0, 0, Header, 1, 2, 240
1, 0, Start_track
1, 0, Time_signature, 4, 2, 24, 8
1, 0, Tempo, 833333
1, 0, SMPTE_offset, 64, 0, 0, 0, 0
1, 61440, Time_signature, 4, 2, 12, 8
1, 61680, Tempo, 869565
1, 61800, Tempo, 909091
1, 61920, Tempo, 1016949
1, 62040, Tempo, 1153846
1, 62160, Tempo, 1500000
1, 62160, End_track
2, 0, Start_track
2, 0, Title_t, "Cello"
2, 900, Note_on_c, 0, 59, 64
2, 950, Note_off_c, 0, 59, 64
2, 960, Note_on_c, 0, 43, 64
2, 990, Note_on_c, 0, 50, 64
2, 1015, Note_on_c, 0, 59, 64
2, 1200, Note_off_c, 0, 50, 64
2, 1200, Note_off_c, 0, 43, 64
2, 1260, Note_off_c, 0, 59, 64
2, 1260, Note_on_c, 0, 57, 64
2, 1320, Note_off_c, 0, 57, 64
2, 1320, Note_on_c, 0, 55, 64
2, 1380, Note_off_c, 0, 55, 64
2, 1380, Note_on_c, 0, 54, 64
2, 1440, Note_off_c, 0, 54, 64
2, 1440, Note_on_c, 0, 55, 64
2, 1500, Note_off_c, 0, 55, 64
2, 1500, Note_on_c, 0, 50, 64
2, 1560, Note_off_c, 0, 50, 64
2, 1560, Note_on_c, 0, 52, 64
2, 1620, Note_off_c, 0, 52, 64
2, 1620, Note_on_c, 0, 54, 64
2, 1680, Note_off_c, 0, 54, 64
2, 1680, Note_on_c, 0, 55, 64
2, 1740, Note_off_c, 0, 55, 64
2, 1740, Note_on_c, 0, 57, 64
2, 1800, Note_off_c, 0, 57, 64
2, 1800, Note_on_c, 0, 59, 64
2, 1860, Note_off_c, 0, 59, 64
2, 1860, Note_on_c, 0, 60, 64
2, 1920, Note_off_c, 0, 60, 64
2, 1920, Note_on_c, 0, 62, 64
2, 1980, Note_off_c, 0, 62, 64
2, 1980, Note_on_c, 0, 59, 64
2, 2040, Note_off_c, 0, 59, 64
2, 2040, Note_on_c, 0, 55, 64
2, 2100, Note_off_c, 0, 55, 64
2, 2100, Note_on_c, 0, 54, 64
2, 2160, Note_off_c, 0, 54, 64
2, 2160, Note_on_c, 0, 55, 64
2, 2220, Note_off_c, 0, 55, 64
2, 2220, Note_on_c, 0, 52, 64
2, 2280, Note_off_c, 0, 52, 64
2, 2280, Note_on_c, 0, 50, 64
2, 2340, Note_off_c, 0, 50, 64
2, 2340, Note_on_c, 0, 48, 64
2, 2400, Note_off_c, 0, 48, 64
2, 2400, Note_on_c, 0, 47, 64
2, 2460, Note_off_c, 0, 47, 64
2, 2460, Note_on_c, 0, 48, 64
2, 2520, Note_off_c, 0, 48, 64
2, 2520, Note_on_c, 0, 50, 64
2, 2580, Note_off_c, 0, 50, 64
2, 2580, Note_on_c, 0, 52, 64
2, 2640, Note_off_c, 0, 52, 64
2, 2640, Note_on_c, 0, 54, 64
2, 2700, Note_off_c, 0, 54, 64
2, 2700, Note_on_c, 0, 55, 64
2, 2760, Note_off_c, 0, 55, 64
2, 2760, Note_on_c, 0, 57, 64
2, 2820, Note_off_c, 0, 57, 64
2, 2820, Note_on_c, 0, 59, 64
2, 2880, Note_off_c, 0, 59, 64
2, 2880, Note_on_c, 0, 60, 64
2, 2940, Note_off_c, 0, 60, 64
2, 2940, Note_on_c, 0, 57, 64
2, 3000, Note_off_c, 0, 57, 64
2, 3000, Note_on_c, 0, 55, 64
2, 3060, Note_off_c, 0, 55, 64
2, 3060, Note_on_c, 0, 54, 64
2, 3120, Note_off_c, 0, 54, 64
2, 3120, Note_on_c, 0, 55, 64
2, 3180, Note_off_c, 0, 55, 64
2, 3180, Note_on_c, 0, 52, 64
2, 3240, Note_off_c, 0, 52, 64
2, 3240, Note_on_c, 0, 54, 64
2, 3300, Note_off_c, 0, 54, 64
2, 3300, Note_on_c, 0, 55, 64
2, 3360, Note_off_c, 0, 55, 64
2, 3360, Note_on_c, 0, 45, 64
2, 3420, Note_off_c, 0, 45, 64
2, 3420, Note_on_c, 0, 50, 64
2, 3480, Note_off_c, 0, 50, 64
2, 3480, Note_on_c, 0, 54, 64
2, 3540, Note_off_c, 0, 54, 64
2, 3540, Note_on_c, 0, 55, 64
2, 3600, Note_off_c, 0, 55, 64
2, 3600, Note_on_c, 0, 57, 64
2, 3660, Note_off_c, 0, 57, 64
2, 3660, Note_on_c, 0, 59, 64
2, 3720, Note_off_c, 0, 59, 64
2, 3720, Note_on_c, 0, 60, 64
2, 3780, Note_off_c, 0, 60, 64
2, 3780, Note_on_c, 0, 57, 64
2, 3840, Note_off_c, 0, 57, 64
2, 3840, Note_on_c, 0, 59, 64
2, 3900, Note_off_c, 0, 59, 64
2, 3900, Note_on_c, 0, 55, 64
2, 3950, Note_off_c, 0, 55, 64
2, 3960, Note_on_c, 0, 55, 64
2, 4020, Note_off_c, 0, 55, 64
2, 4020, Note_on_c, 0, 50, 64
2, 4070, Note_off_c, 0, 50, 64
2, 4080, Note_on_c, 0, 50, 64
2, 4140, Note_off_c, 0, 50, 64
2, 4140, Note_on_c, 0, 47, 64
2, 4190, Note_off_c, 0, 47, 64
2, 4200, Note_on_c, 0, 47, 64
2, 4260, Note_off_c, 0, 47, 64
2, 4260, Note_on_c, 0, 43, 64
2, 4310, Note_off_c, 0, 43, 64
2, 4320, Note_on_c, 0, 43, 64
2, 4490, Note_off_c, 0, 43, 64
2, 4500, Note_on_c, 0, 60, 64
2, 4530, Note_off_c, 0, 60, 64
2, 4530, Note_on_c, 0, 59, 64
2, 4560, Note_off_c, 0, 59, 64
2, 4560, Note_on_c, 0, 60, 64
2, 4620, Note_off_c, 0, 60, 64
2, 4620, Note_on_c, 0, 59, 64
2, 4680, Note_off_c, 0, 59, 64
2, 4680, Note_on_c, 0, 57, 64
2, 4740, Note_off_c, 0, 57, 64
2, 4740, Note_on_c, 0, 55, 64
2, 4800, Note_off_c, 0, 55, 64
2, 4800, Note_on_c, 0, 57, 64
2, 4860, Note_off_c, 0, 57, 64
2, 4860, Note_on_c, 0, 59, 64
2, 4920, Note_off_c, 0, 59, 64
2, 4920, Note_on_c, 0, 60, 64
2, 4980, Note_off_c, 0, 60, 64
2, 4980, Note_on_c, 0, 57, 64
2, 5040, Note_off_c, 0, 57, 64
2, 5040, Note_on_c, 0, 55, 64
2, 5100, Note_off_c, 0, 55, 64
2, 5100, Note_on_c, 0, 54, 64
2, 5160, Note_off_c, 0, 54, 64
2, 5160, Note_on_c, 0, 55, 64
2, 5220, Note_off_c, 0, 55, 64
2, 5220, Note_on_c, 0, 57, 64
2, 5280, Note_off_c, 0, 57, 64
2, 5280, Note_on_c, 0, 52, 64
2, 5310, Note_off_c, 0, 52, 64
2, 5310, Note_on_c, 0, 51, 64
2, 5460, Note_off_c, 0, 51, 64
2, 5460, Note_on_c, 0, 60, 64
2, 5490, Note_off_c, 0, 60, 64
2, 5490, Note_on_c, 0, 62, 64
2, 5520, Note_off_c, 0, 62, 64
2, 5520, Note_on_c, 0, 59, 64
2, 5580, Note_off_c, 0, 59, 64
2, 5580, Note_on_c, 0, 57, 64
2, 5640, Note_off_c, 0, 57, 64
2, 5640, Note_on_c, 0, 55, 64
2, 5700, Note_off_c, 0, 55, 64
2, 5700, Note_on_c, 0, 54, 64
2, 5760, Note_off_c, 0, 54, 64
2, 5760, Note_on_c, 0, 55, 64
2, 5820, Note_off_c, 0, 55, 64
2, 5820, Note_on_c, 0, 52, 64
2, 5870, Note_off_c, 0, 52, 64
2, 5880, Note_on_c, 0, 52, 64
2, 5940, Note_off_c, 0, 52, 64
2, 5940, Note_on_c, 0, 47, 64
2, 5990, Note_off_c, 0, 47, 64
2, 6000, Note_on_c, 0, 47, 64
2, 6060, Note_off_c, 0, 47, 64
2, 6060, Note_on_c, 0, 43, 64
2, 6110, Note_off_c, 0, 43, 64
2, 6120, Note_on_c, 0, 43, 64
2, 6180, Note_off_c, 0, 43, 64
2, 6180, Note_on_c, 0, 40, 64
2, 6230, Note_off_c, 0, 40, 64
2, 6240, Note_on_c, 0, 40, 64
2, 6410, Note_off_c, 0, 40, 64
2, 6420, Note_on_c, 0, 47, 64
2, 6480, Note_off_c, 0, 47, 64
2, 6480, Note_on_c, 0, 52, 64
2, 6540, Note_off_c, 0, 52, 64
2, 6540, Note_on_c, 0, 55, 64
2, 6600, Note_off_c, 0, 55, 64
2, 6600, Note_on_c, 0, 54, 64
2, 6660, Note_off_c, 0, 54, 64
2, 6660, Note_on_c, 0, 57, 64
2, 6720, Note_off_c, 0, 57, 64
2, 6720, Note_on_c, 0, 55, 64
2, 6780, Note_off_c, 0, 55, 64
2, 6780, Note_on_c, 0, 54, 64
2, 6840, Note_off_c, 0, 54, 64
2, 6840, Note_on_c, 0, 52, 64
2, 6900, Note_off_c, 0, 52, 64
2, 6900, Note_on_c, 0, 54, 64
2, 6960, Note_off_c, 0, 54, 64
2, 6960, Note_on_c, 0, 55, 64
2, 7020, Note_off_c, 0, 55, 64
2, 7020, Note_on_c, 0, 61, 64
2, 7080, Note_off_c, 0, 61, 64
2, 7080, Note_on_c, 0, 55, 64
2, 7140, Note_off_c, 0, 55, 64
2, 7140, Note_on_c, 0, 54, 64
2, 7200, Note_off_c, 0, 54, 64
2, 7200, Note_on_c, 0, 55, 64
2, 7260, Note_off_c, 0, 55, 64
2, 7260, Note_on_c, 0, 61, 64
2, 7320, Note_off_c, 0, 61, 64
2, 7320, Note_on_c, 0, 52, 64
2, 7380, Note_off_c, 0, 52, 64
2, 7380, Note_on_c, 0, 54, 64
2, 7440, Note_off_c, 0, 54, 64
2, 7440, Note_on_c, 0, 55, 64
2, 7500, Note_off_c, 0, 55, 64
2, 7500, Note_on_c, 0, 52, 64
2, 7560, Note_off_c, 0, 52, 64
2, 7560, Note_on_c, 0, 45, 64
2, 7620, Note_off_c, 0, 45, 64
2, 7620, Note_on_c, 0, 55, 64
2, 7660, Note_off_c, 0, 55, 64
2, 7680, Note_on_c, 0, 55, 70
2, 7699, Note_off_c, 0, 55, 64
2, 7699, Note_on_c, 0, 54, 64
2, 7719, Note_off_c, 0, 54, 64
2, 7719, Note_on_c, 0, 55, 64
2, 7739, Note_off_c, 0, 55, 64
2, 7739, Note_on_c, 0, 54, 64
2, 7759, Note_off_c, 0, 54, 64
2, 7759, Note_on_c, 0, 55, 64
2, 7779, Note_off_c, 0, 55, 64
2, 7779, Note_on_c, 0, 54, 64
2, 7799, Note_off_c, 0, 54, 64
2, 7800, Note_on_c, 0, 50, 64
2, 7860, Note_off_c, 0, 50, 64
2, 7860, Note_on_c, 0, 52, 64
2, 7920, Note_off_c, 0, 52, 64
2, 7920, Note_on_c, 0, 54, 64
2, 7980, Note_off_c, 0, 54, 64
2, 7980, Note_on_c, 0, 50, 64
2, 8040, Note_off_c, 0, 50, 64
2, 8040, Note_on_c, 0, 55, 64
2, 8100, Note_off_c, 0, 55, 64
2, 8100, Note_on_c, 0, 52, 64
2, 8160, Note_off_c, 0, 52, 64
2, 8160, Note_on_c, 0, 54, 64
2, 8220, Note_off_c, 0, 54, 64
2, 8220, Note_on_c, 0, 50, 64
2, 8280, Note_off_c, 0, 50, 64
2, 8280, Note_on_c, 0, 54, 64
2, 8340, Note_off_c, 0, 54, 64
2, 8340, Note_on_c, 0, 55, 64
2, 8400, Note_off_c, 0, 55, 64
2, 8400, Note_on_c, 0, 57, 64
2, 8460, Note_off_c, 0, 57, 64
2, 8460, Note_on_c, 0, 59, 64
2, 8520, Note_off_c, 0, 59, 64
2, 8520, Note_on_c, 0, 60, 64
2, 8580, Note_off_c, 0, 60, 64
2, 8580, Note_on_c, 0, 57, 64
2, 8640, Note_off_c, 0, 57, 64
2, 8640, Note_on_c, 0, 59, 64
2, 8700, Note_off_c, 0, 59, 64
2, 8700, Note_on_c, 0, 50, 64
2, 8760, Note_off_c, 0, 50, 64
2, 8760, Note_on_c, 0, 43, 64
2, 8820, Note_off_c, 0, 43, 64
2, 8820, Note_on_c, 0, 50, 64
2, 8880, Note_off_c, 0, 50, 64
2, 8880, Note_on_c, 0, 59, 64
2, 8940, Note_off_c, 0, 59, 64
2, 8940, Note_on_c, 0, 55, 64
2, 9000, Note_off_c, 0, 55, 64
2, 9000, Note_on_c, 0, 57, 64
2, 9060, Note_off_c, 0, 57, 64
2, 9060, Note_on_c, 0, 54, 64
2, 9120, Note_off_c, 0, 54, 64
2, 9120, Note_on_c, 0, 55, 64
2, 9180, Note_off_c, 0, 55, 64
2, 9180, Note_on_c, 0, 52, 64
2, 9240, Note_off_c, 0, 52, 64
2, 9240, Note_on_c, 0, 55, 64
2, 9300, Note_off_c, 0, 55, 64
2, 9300, Note_on_c, 0, 57, 64
2, 9360, Note_off_c, 0, 57, 64
2, 9360, Note_on_c, 0, 59, 64
2, 9420, Note_off_c, 0, 59, 64
2, 9420, Note_on_c, 0, 61, 64
2, 9480, Note_off_c, 0, 61, 64
2, 9480, Note_on_c, 0, 62, 64
2, 9540, Note_off_c, 0, 62, 64
2, 9540, Note_on_c, 0, 59, 64
2, 9600, Note_off_c, 0, 59, 64
2, 9600, Note_on_c, 0, 61, 64
2, 9660, Note_off_c, 0, 61, 64
2, 9660, Note_on_c, 0, 52, 64
2, 9720, Note_off_c, 0, 52, 64
2, 9720, Note_on_c, 0, 43, 64
2, 9780, Note_off_c, 0, 43, 64
2, 9780, Note_on_c, 0, 52, 64
2, 9840, Note_off_c, 0, 52, 64
2, 9840, Note_on_c, 0, 61, 64
2, 9900, Note_off_c, 0, 61, 64
2, 9900, Note_on_c, 0, 57, 64
2, 9960, Note_off_c, 0, 57, 64
2, 9960, Note_on_c, 0, 59, 64
2, 10020, Note_off_c, 0, 59, 64
2, 10020, Note_on_c, 0, 62, 64
2, 10080, Note_off_c, 0, 62, 64
2, 10080, Note_on_c, 0, 61, 64
2, 10140, Note_off_c, 0, 61, 64
2, 10140, Note_on_c, 0, 57, 64
2, 10200, Note_off_c, 0, 57, 64
2, 10200, Note_on_c, 0, 62, 64
2, 10260, Note_off_c, 0, 62, 64
2, 10260, Note_on_c, 0, 59, 64
2, 10320, Note_off_c, 0, 59, 64
2, 10320, Note_on_c, 0, 61, 64
2, 10380, Note_off_c, 0, 61, 64
2, 10380, Note_on_c, 0, 57, 64
2, 10440, Note_off_c, 0, 57, 64
2, 10440, Note_on_c, 0, 64, 64
2, 10500, Note_off_c, 0, 64, 64
2, 10500, Note_on_c, 0, 55, 64
2, 10540, Note_off_c, 0, 55, 64
2, 10560, Note_on_c, 0, 55, 64
2, 10584, Note_on_c, 0, 54, 64
2, 10590, Note_off_c, 0, 55, 64
2, 10604, Note_off_c, 0, 54, 45
2, 10604, Note_on_c, 0, 55, 64
2, 10624, Note_off_c, 0, 55, 49
2, 10624, Note_on_c, 0, 54, 64
2, 10644, Note_off_c, 0, 54, 52
2, 10644, Note_on_c, 0, 55, 64
2, 10664, Note_off_c, 0, 55, 49
2, 10664, Note_on_c, 0, 54, 64
2, 10684, Note_off_c, 0, 54, 44
2, 10684, Note_on_c, 0, 55, 64
2, 10704, Note_off_c, 0, 55, 45
2, 10704, Note_on_c, 0, 54, 64
2, 10740, Note_off_c, 0, 54, 46
2, 10740, Note_on_c, 0, 62, 64
2, 10800, Note_off_c, 0, 62, 64
2, 10800, Note_on_c, 0, 57, 64
2, 10860, Note_off_c, 0, 57, 64
2, 10860, Note_on_c, 0, 55, 64
2, 10920, Note_off_c, 0, 55, 64
2, 10920, Note_on_c, 0, 54, 64
2, 10980, Note_off_c, 0, 54, 64
2, 10980, Note_on_c, 0, 52, 64
2, 11040, Note_off_c, 0, 52, 64
2, 11040, Note_on_c, 0, 50, 64
2, 11100, Note_off_c, 0, 50, 64
2, 11100, Note_on_c, 0, 57, 64
2, 11160, Note_off_c, 0, 57, 64
2, 11160, Note_on_c, 0, 55, 64
2, 11220, Note_off_c, 0, 55, 64
2, 11220, Note_on_c, 0, 52, 64
2, 11280, Note_off_c, 0, 52, 64
2, 11280, Note_on_c, 0, 54, 64
2, 11340, Note_off_c, 0, 54, 64
2, 11340, Note_on_c, 0, 50, 64
2, 11400, Note_off_c, 0, 50, 64
2, 11400, Note_on_c, 0, 57, 64
2, 11460, Note_off_c, 0, 57, 64
2, 11460, Note_on_c, 0, 48, 64
2, 11500, Note_off_c, 0, 48, 64
2, 11520, Note_on_c, 0, 48, 64
2, 11544, Note_on_c, 0, 47, 64
2, 11550, Note_off_c, 0, 48, 64
2, 11564, Note_off_c, 0, 47, 43
2, 11564, Note_on_c, 0, 48, 64
2, 11584, Note_off_c, 0, 48, 52
2, 11584, Note_on_c, 0, 47, 64
2, 11604, Note_off_c, 0, 47, 49
2, 11604, Note_on_c, 0, 48, 64
2, 11624, Note_off_c, 0, 48, 37
2, 11624, Note_on_c, 0, 47, 64
2, 11644, Note_off_c, 0, 47, 43
2, 11644, Note_on_c, 0, 48, 64
2, 11664, Note_off_c, 0, 48, 37
2, 11664, Note_on_c, 0, 47, 64
2, 11700, Note_off_c, 0, 47, 32
2, 11700, Note_on_c, 0, 55, 64
2, 11760, Note_off_c, 0, 55, 64
2, 11760, Note_on_c, 0, 50, 64
2, 11820, Note_off_c, 0, 50, 64
2, 11820, Note_on_c, 0, 48, 64
2, 11880, Note_off_c, 0, 48, 64
2, 11880, Note_on_c, 0, 47, 64
2, 11940, Note_off_c, 0, 47, 64
2, 11940, Note_on_c, 0, 45, 64
2, 12000, Note_off_c, 0, 45, 64
2, 12000, Note_on_c, 0, 43, 64
2, 12060, Note_off_c, 0, 43, 64
2, 12060, Note_on_c, 0, 50, 64
2, 12120, Note_off_c, 0, 50, 64
2, 12120, Note_on_c, 0, 48, 64
2, 12180, Note_off_c, 0, 48, 64
2, 12180, Note_on_c, 0, 45, 64
2, 12240, Note_off_c, 0, 45, 64
2, 12240, Note_on_c, 0, 47, 64
2, 12300, Note_off_c, 0, 47, 64
2, 12300, Note_on_c, 0, 43, 64
2, 12360, Note_off_c, 0, 43, 64
2, 12360, Note_on_c, 0, 50, 64
2, 12420, Note_off_c, 0, 50, 64
2, 12420, Note_on_c, 0, 42, 64
2, 12480, Note_off_c, 0, 42, 64
2, 12480, Note_on_c, 0, 40, 64
2, 12540, Note_off_c, 0, 40, 64
2, 12540, Note_on_c, 0, 43, 64
2, 12600, Note_off_c, 0, 43, 64
2, 12600, Note_on_c, 0, 45, 64
2, 12660, Note_off_c, 0, 45, 64
2, 12660, Note_on_c, 0, 47, 64
2, 12720, Note_off_c, 0, 47, 64
2, 12720, Note_on_c, 0, 49, 64
2, 12780, Note_off_c, 0, 49, 64
2, 12780, Note_on_c, 0, 50, 64
2, 12840, Note_off_c, 0, 50, 64
2, 12840, Note_on_c, 0, 52, 64
2, 12900, Note_off_c, 0, 52, 64
2, 12900, Note_on_c, 0, 54, 64
2, 12960, Note_off_c, 0, 54, 64
2, 12960, Note_on_c, 0, 55, 64
2, 13020, Note_off_c, 0, 55, 64
2, 13020, Note_on_c, 0, 57, 64
2, 13080, Note_off_c, 0, 57, 64
2, 13080, Note_on_c, 0, 61, 64
2, 13140, Note_off_c, 0, 61, 64
2, 13140, Note_on_c, 0, 62, 64
2, 13200, Note_off_c, 0, 62, 64
2, 13200, Note_on_c, 0, 64, 64
2, 13260, Note_off_c, 0, 64, 64
2, 13260, Note_on_c, 0, 57, 64
2, 13320, Note_off_c, 0, 57, 64
2, 13320, Note_on_c, 0, 67, 64
2, 13440, Note_off_c, 0, 67, 64
2, 13440, Note_on_c, 0, 50, 64
2, 13500, Note_off_c, 0, 50, 64
2, 13500, Note_on_c, 0, 67, 64
2, 13560, Note_off_c, 0, 67, 64
2, 13560, Note_on_c, 0, 66, 64
2, 13620, Note_off_c, 0, 66, 64
2, 13620, Note_on_c, 0, 64, 64
2, 13680, Note_off_c, 0, 64, 64
2, 13680, Note_on_c, 0, 66, 64
2, 13740, Note_off_c, 0, 66, 64
2, 13740, Note_on_c, 0, 62, 64
2, 13800, Note_off_c, 0, 62, 64
2, 13800, Note_on_c, 0, 57, 64
2, 13860, Note_off_c, 0, 57, 64
2, 13860, Note_on_c, 0, 62, 64
2, 13920, Note_off_c, 0, 62, 64
2, 13920, Note_on_c, 0, 50, 64
2, 13980, Note_off_c, 0, 50, 64
2, 13980, Note_on_c, 0, 54, 64
2, 14040, Note_off_c, 0, 54, 64
2, 14040, Note_on_c, 0, 57, 64
2, 14100, Note_off_c, 0, 57, 64
2, 14100, Note_on_c, 0, 60, 64
2, 14145, Note_off_c, 0, 60, 64
2, 14160, Note_on_c, 0, 60, 64
2, 14179, Note_off_c, 0, 60, 64
2, 14179, Note_on_c, 0, 59, 64
2, 14199, Note_off_c, 0, 59, 64
2, 14199, Note_on_c, 0, 60, 64
2, 14219, Note_off_c, 0, 60, 64
2, 14219, Note_on_c, 0, 59, 64
2, 14239, Note_off_c, 0, 59, 64
2, 14239, Note_on_c, 0, 60, 64
2, 14259, Note_off_c, 0, 60, 64
2, 14259, Note_on_c, 0, 59, 64
2, 14279, Note_off_c, 0, 59, 64
2, 14280, Note_on_c, 0, 60, 64
2, 14310, Note_off_c, 0, 60, 64
2, 14310, Note_on_c, 0, 59, 64
2, 14340, Note_off_c, 0, 59, 64
2, 14340, Note_on_c, 0, 57, 64
2, 14400, Note_off_c, 0, 57, 64
2, 14400, Note_on_c, 0, 43, 64
2, 14430, Note_on_c, 0, 50, 64
2, 14455, Note_on_c, 0, 59, 64
2, 14580, Note_off_c, 0, 59, 64
2, 14580, Note_off_c, 0, 50, 64
2, 14580, Note_off_c, 0, 43, 64
2, 14580, Note_on_c, 0, 57, 64
2, 14640, Note_off_c, 0, 57, 64
2, 14640, Note_on_c, 0, 55, 64
2, 14700, Note_off_c, 0, 55, 64
2, 14700, Note_on_c, 0, 54, 64
2, 14760, Note_off_c, 0, 54, 64
2, 14760, Note_on_c, 0, 52, 64
2, 14820, Note_off_c, 0, 52, 64
2, 14820, Note_on_c, 0, 62, 64
2, 14880, Note_off_c, 0, 62, 64
2, 14880, Note_on_c, 0, 61, 64
2, 14940, Note_off_c, 0, 61, 64
2, 14940, Note_on_c, 0, 64, 64
2, 15000, Note_off_c, 0, 64, 64
2, 15000, Note_on_c, 0, 57, 64
2, 15060, Note_off_c, 0, 57, 64
2, 15060, Note_on_c, 0, 55, 64
2, 15120, Note_off_c, 0, 55, 64
2, 15120, Note_on_c, 0, 54, 64
2, 15180, Note_off_c, 0, 54, 64
2, 15180, Note_on_c, 0, 50, 64
2, 15240, Note_off_c, 0, 50, 64
2, 15240, Note_on_c, 0, 45, 64
2, 15300, Note_off_c, 0, 45, 64
2, 15300, Note_on_c, 0, 49, 64
2, 15360, Note_off_c, 0, 49, 64
2, 15360, Note_on_c, 0, 38, 64
2, 15540, Note_off_c, 0, 38, 64
2, 15540, Note_on_c, 0, 45, 64
2, 15600, Note_off_c, 0, 45, 64
2, 15600, Note_on_c, 0, 50, 64
2, 15660, Note_off_c, 0, 50, 64
2, 15660, Note_on_c, 0, 54, 64
2, 15720, Note_off_c, 0, 54, 64
2, 15720, Note_on_c, 0, 57, 64
2, 15780, Note_off_c, 0, 57, 64
2, 15780, Note_on_c, 0, 61, 64
2, 15840, Note_off_c, 0, 61, 64
2, 15840, Note_on_c, 0, 62, 64
2, 15900, Note_off_c, 0, 62, 64
2, 15900, Note_on_c, 0, 57, 64
2, 15960, Note_off_c, 0, 57, 64
2, 15960, Note_on_c, 0, 54, 64
2, 16020, Note_off_c, 0, 54, 64
2, 16020, Note_on_c, 0, 50, 64
2, 16080, Note_off_c, 0, 50, 64
2, 16080, Note_on_c, 0, 38, 64
2, 16230, Note_off_c, 0, 38, 64
2, 16260, Note_on_c, 0, 59, 64
2, 16310, Note_off_c, 0, 59, 64
2, 16320, Note_on_c, 0, 43, 64
2, 16350, Note_on_c, 0, 50, 64
2, 16375, Note_on_c, 0, 59, 64
2, 16560, Note_off_c, 0, 50, 64
2, 16560, Note_off_c, 0, 43, 64
2, 16620, Note_off_c, 0, 59, 64
2, 16620, Note_on_c, 0, 57, 64
2, 16680, Note_off_c, 0, 57, 64
2, 16680, Note_on_c, 0, 55, 64
2, 16740, Note_off_c, 0, 55, 64
2, 16740, Note_on_c, 0, 54, 64
2, 16800, Note_off_c, 0, 54, 64
2, 16800, Note_on_c, 0, 55, 64
2, 16860, Note_off_c, 0, 55, 64
2, 16860, Note_on_c, 0, 50, 64
2, 16920, Note_off_c, 0, 50, 64
2, 16920, Note_on_c, 0, 52, 64
2, 16980, Note_off_c, 0, 52, 64
2, 16980, Note_on_c, 0, 54, 64
2, 17040, Note_off_c, 0, 54, 64
2, 17040, Note_on_c, 0, 55, 64
2, 17100, Note_off_c, 0, 55, 64
2, 17100, Note_on_c, 0, 57, 64
2, 17160, Note_off_c, 0, 57, 64
2, 17160, Note_on_c, 0, 59, 64
2, 17220, Note_off_c, 0, 59, 64
2, 17220, Note_on_c, 0, 60, 64
2, 17280, Note_off_c, 0, 60, 64
2, 17280, Note_on_c, 0, 62, 64
2, 17340, Note_off_c, 0, 62, 64
2, 17340, Note_on_c, 0, 59, 64
2, 17400, Note_off_c, 0, 59, 64
2, 17400, Note_on_c, 0, 55, 64
2, 17460, Note_off_c, 0, 55, 64
2, 17460, Note_on_c, 0, 54, 64
2, 17520, Note_off_c, 0, 54, 64
2, 17520, Note_on_c, 0, 55, 64
2, 17580, Note_off_c, 0, 55, 64
2, 17580, Note_on_c, 0, 52, 64
2, 17640, Note_off_c, 0, 52, 64
2, 17640, Note_on_c, 0, 50, 64
2, 17700, Note_off_c, 0, 50, 64
2, 17700, Note_on_c, 0, 48, 64
2, 17760, Note_off_c, 0, 48, 64
2, 17760, Note_on_c, 0, 47, 64
2, 17820, Note_off_c, 0, 47, 64
2, 17820, Note_on_c, 0, 48, 64
2, 17880, Note_off_c, 0, 48, 64
2, 17880, Note_on_c, 0, 50, 64
2, 17940, Note_off_c, 0, 50, 64
2, 17940, Note_on_c, 0, 52, 64
2, 18000, Note_off_c, 0, 52, 64
2, 18000, Note_on_c, 0, 54, 64
2, 18060, Note_off_c, 0, 54, 64
2, 18060, Note_on_c, 0, 55, 64
2, 18120, Note_off_c, 0, 55, 64
2, 18120, Note_on_c, 0, 57, 64
2, 18180, Note_off_c, 0, 57, 64
2, 18180, Note_on_c, 0, 59, 64
2, 18240, Note_off_c, 0, 59, 64
2, 18240, Note_on_c, 0, 60, 64
2, 18300, Note_off_c, 0, 60, 64
2, 18300, Note_on_c, 0, 57, 64
2, 18360, Note_off_c, 0, 57, 64
2, 18360, Note_on_c, 0, 55, 64
2, 18420, Note_off_c, 0, 55, 64
2, 18420, Note_on_c, 0, 54, 64
2, 18480, Note_off_c, 0, 54, 64
2, 18480, Note_on_c, 0, 55, 64
2, 18540, Note_off_c, 0, 55, 64
2, 18540, Note_on_c, 0, 52, 64
2, 18600, Note_off_c, 0, 52, 64
2, 18600, Note_on_c, 0, 54, 64
2, 18660, Note_off_c, 0, 54, 64
2, 18660, Note_on_c, 0, 55, 64
2, 18720, Note_off_c, 0, 55, 64
2, 18720, Note_on_c, 0, 45, 64
2, 18780, Note_off_c, 0, 45, 64
2, 18780, Note_on_c, 0, 50, 64
2, 18840, Note_off_c, 0, 50, 64
2, 18840, Note_on_c, 0, 54, 64
2, 18900, Note_off_c, 0, 54, 64
2, 18900, Note_on_c, 0, 55, 64
2, 18960, Note_off_c, 0, 55, 64
2, 18960, Note_on_c, 0, 57, 64
2, 19020, Note_off_c, 0, 57, 64
2, 19020, Note_on_c, 0, 59, 64
2, 19080, Note_off_c, 0, 59, 64
2, 19080, Note_on_c, 0, 60, 64
2, 19140, Note_off_c, 0, 60, 64
2, 19140, Note_on_c, 0, 57, 64
2, 19200, Note_off_c, 0, 57, 64
2, 19200, Note_on_c, 0, 59, 64
2, 19260, Note_off_c, 0, 59, 64
2, 19260, Note_on_c, 0, 55, 64
2, 19310, Note_off_c, 0, 55, 64
2, 19320, Note_on_c, 0, 55, 64
2, 19380, Note_off_c, 0, 55, 64
2, 19380, Note_on_c, 0, 50, 64
2, 19430, Note_off_c, 0, 50, 64
2, 19440, Note_on_c, 0, 50, 64
2, 19500, Note_off_c, 0, 50, 64
2, 19500, Note_on_c, 0, 47, 64
2, 19550, Note_off_c, 0, 47, 64
2, 19560, Note_on_c, 0, 47, 64
2, 19620, Note_off_c, 0, 47, 64
2, 19620, Note_on_c, 0, 43, 64
2, 19670, Note_off_c, 0, 43, 64
2, 19680, Note_on_c, 0, 43, 64
2, 19850, Note_off_c, 0, 43, 64
2, 19860, Note_on_c, 0, 60, 64
2, 19890, Note_off_c, 0, 60, 64
2, 19890, Note_on_c, 0, 59, 64
2, 19920, Note_off_c, 0, 59, 64
2, 19920, Note_on_c, 0, 60, 64
2, 19980, Note_off_c, 0, 60, 64
2, 19980, Note_on_c, 0, 59, 64
2, 20040, Note_off_c, 0, 59, 64
2, 20040, Note_on_c, 0, 57, 64
2, 20100, Note_off_c, 0, 57, 64
2, 20100, Note_on_c, 0, 55, 64
2, 20160, Note_off_c, 0, 55, 64
2, 20160, Note_on_c, 0, 57, 64
2, 20220, Note_off_c, 0, 57, 64
2, 20220, Note_on_c, 0, 59, 64
2, 20280, Note_off_c, 0, 59, 64
2, 20280, Note_on_c, 0, 60, 64
2, 20340, Note_off_c, 0, 60, 64
2, 20340, Note_on_c, 0, 57, 64
2, 20400, Note_off_c, 0, 57, 64
2, 20400, Note_on_c, 0, 55, 64
2, 20460, Note_off_c, 0, 55, 64
2, 20460, Note_on_c, 0, 54, 64
2, 20520, Note_off_c, 0, 54, 64
2, 20520, Note_on_c, 0, 55, 64
2, 20580, Note_off_c, 0, 55, 64
2, 20580, Note_on_c, 0, 57, 64
2, 20640, Note_off_c, 0, 57, 64
2, 20640, Note_on_c, 0, 52, 64
2, 20670, Note_off_c, 0, 52, 64
2, 20670, Note_on_c, 0, 51, 64
2, 20820, Note_off_c, 0, 51, 64
2, 20820, Note_on_c, 0, 60, 64
2, 20850, Note_off_c, 0, 60, 64
2, 20850, Note_on_c, 0, 62, 64
2, 20880, Note_off_c, 0, 62, 64
2, 20880, Note_on_c, 0, 59, 64
2, 20940, Note_off_c, 0, 59, 64
2, 20940, Note_on_c, 0, 57, 64
2, 21000, Note_off_c, 0, 57, 64
2, 21000, Note_on_c, 0, 55, 64
2, 21060, Note_off_c, 0, 55, 64
2, 21060, Note_on_c, 0, 54, 64
2, 21120, Note_off_c, 0, 54, 64
2, 21120, Note_on_c, 0, 55, 64
2, 21180, Note_off_c, 0, 55, 64
2, 21180, Note_on_c, 0, 52, 64
2, 21230, Note_off_c, 0, 52, 64
2, 21240, Note_on_c, 0, 52, 64
2, 21300, Note_off_c, 0, 52, 64
2, 21300, Note_on_c, 0, 47, 64
2, 21350, Note_off_c, 0, 47, 64
2, 21360, Note_on_c, 0, 47, 64
2, 21420, Note_off_c, 0, 47, 64
2, 21420, Note_on_c, 0, 43, 64
2, 21470, Note_off_c, 0, 43, 64
2, 21480, Note_on_c, 0, 43, 64
2, 21540, Note_off_c, 0, 43, 64
2, 21540, Note_on_c, 0, 40, 64
2, 21590, Note_off_c, 0, 40, 64
2, 21600, Note_on_c, 0, 40, 64
2, 21770, Note_off_c, 0, 40, 64
2, 21780, Note_on_c, 0, 47, 64
2, 21840, Note_off_c, 0, 47, 64
2, 21840, Note_on_c, 0, 52, 64
2, 21900, Note_off_c, 0, 52, 64
2, 21900, Note_on_c, 0, 55, 64
2, 21960, Note_off_c, 0, 55, 64
2, 21960, Note_on_c, 0, 54, 64
2, 22020, Note_off_c, 0, 54, 64
2, 22020, Note_on_c, 0, 57, 64
2, 22080, Note_off_c, 0, 57, 64
2, 22080, Note_on_c, 0, 55, 64
2, 22140, Note_off_c, 0, 55, 64
2, 22140, Note_on_c, 0, 54, 64
2, 22200, Note_off_c, 0, 54, 64
2, 22200, Note_on_c, 0, 52, 64
2, 22260, Note_off_c, 0, 52, 64
2, 22260, Note_on_c, 0, 54, 64
2, 22320, Note_off_c, 0, 54, 64
2, 22320, Note_on_c, 0, 55, 64
2, 22380, Note_off_c, 0, 55, 64
2, 22380, Note_on_c, 0, 61, 64
2, 22440, Note_off_c, 0, 61, 64
2, 22440, Note_on_c, 0, 55, 64
2, 22500, Note_off_c, 0, 55, 64
2, 22500, Note_on_c, 0, 54, 64
2, 22560, Note_off_c, 0, 54, 64
2, 22560, Note_on_c, 0, 55, 64
2, 22620, Note_off_c, 0, 55, 64
2, 22620, Note_on_c, 0, 61, 64
2, 22680, Note_off_c, 0, 61, 64
2, 22680, Note_on_c, 0, 52, 64
2, 22740, Note_off_c, 0, 52, 64
2, 22740, Note_on_c, 0, 54, 64
2, 22800, Note_off_c, 0, 54, 64
2, 22800, Note_on_c, 0, 55, 64
2, 22860, Note_off_c, 0, 55, 64
2, 22860, Note_on_c, 0, 52, 64
2, 22920, Note_off_c, 0, 52, 64
2, 22920, Note_on_c, 0, 45, 64
2, 22980, Note_off_c, 0, 45, 64
2, 22980, Note_on_c, 0, 55, 64
2, 23020, Note_off_c, 0, 55, 64
2, 23040, Note_on_c, 0, 55, 70
2, 23059, Note_off_c, 0, 55, 64
2, 23059, Note_on_c, 0, 54, 64
2, 23079, Note_off_c, 0, 54, 64
2, 23079, Note_on_c, 0, 55, 64
2, 23099, Note_off_c, 0, 55, 64
2, 23099, Note_on_c, 0, 54, 64
2, 23119, Note_off_c, 0, 54, 64
2, 23119, Note_on_c, 0, 55, 64
2, 23139, Note_off_c, 0, 55, 64
2, 23139, Note_on_c, 0, 54, 64
2, 23159, Note_off_c, 0, 54, 64
2, 23160, Note_on_c, 0, 50, 64
2, 23220, Note_off_c, 0, 50, 64
2, 23220, Note_on_c, 0, 52, 64
2, 23280, Note_off_c, 0, 52, 64
2, 23280, Note_on_c, 0, 54, 64
2, 23340, Note_off_c, 0, 54, 64
2, 23340, Note_on_c, 0, 50, 64
2, 23400, Note_off_c, 0, 50, 64
2, 23400, Note_on_c, 0, 55, 64
2, 23460, Note_off_c, 0, 55, 64
2, 23460, Note_on_c, 0, 52, 64
2, 23520, Note_off_c, 0, 52, 64
2, 23520, Note_on_c, 0, 54, 64
2, 23580, Note_off_c, 0, 54, 64
2, 23580, Note_on_c, 0, 50, 64
2, 23640, Note_off_c, 0, 50, 64
2, 23640, Note_on_c, 0, 54, 64
2, 23700, Note_off_c, 0, 54, 64
2, 23700, Note_on_c, 0, 55, 64
2, 23760, Note_off_c, 0, 55, 64
2, 23760, Note_on_c, 0, 57, 64
2, 23820, Note_off_c, 0, 57, 64
2, 23820, Note_on_c, 0, 59, 64
2, 23880, Note_off_c, 0, 59, 64
2, 23880, Note_on_c, 0, 60, 64
2, 23940, Note_off_c, 0, 60, 64
2, 23940, Note_on_c, 0, 57, 64
2, 24000, Note_off_c, 0, 57, 64
2, 24000, Note_on_c, 0, 59, 64
2, 24060, Note_off_c, 0, 59, 64
2, 24060, Note_on_c, 0, 50, 64
2, 24120, Note_off_c, 0, 50, 64
2, 24120, Note_on_c, 0, 43, 64
2, 24180, Note_off_c, 0, 43, 64
2, 24180, Note_on_c, 0, 50, 64
2, 24240, Note_off_c, 0, 50, 64
2, 24240, Note_on_c, 0, 59, 64
2, 24300, Note_off_c, 0, 59, 64
2, 24300, Note_on_c, 0, 55, 64
2, 24360, Note_off_c, 0, 55, 64
2, 24360, Note_on_c, 0, 57, 64
2, 24420, Note_off_c, 0, 57, 64
2, 24420, Note_on_c, 0, 54, 64
2, 24480, Note_off_c, 0, 54, 64
2, 24480, Note_on_c, 0, 55, 64
2, 24540, Note_off_c, 0, 55, 64
2, 24540, Note_on_c, 0, 52, 64
2, 24600, Note_off_c, 0, 52, 64
2, 24600, Note_on_c, 0, 55, 64
2, 24660, Note_off_c, 0, 55, 64
2, 24660, Note_on_c, 0, 57, 64
2, 24720, Note_off_c, 0, 57, 64
2, 24720, Note_on_c, 0, 59, 64
2, 24780, Note_off_c, 0, 59, 64
2, 24780, Note_on_c, 0, 61, 64
2, 24840, Note_off_c, 0, 61, 64
2, 24840, Note_on_c, 0, 62, 64
2, 24900, Note_off_c, 0, 62, 64
2, 24900, Note_on_c, 0, 59, 64
2, 24960, Note_off_c, 0, 59, 64
2, 24960, Note_on_c, 0, 61, 64
2, 25020, Note_off_c, 0, 61, 64
2, 25020, Note_on_c, 0, 52, 64
2, 25080, Note_off_c, 0, 52, 64
2, 25080, Note_on_c, 0, 43, 64
2, 25140, Note_off_c, 0, 43, 64
2, 25140, Note_on_c, 0, 52, 64
2, 25200, Note_off_c, 0, 52, 64
2, 25200, Note_on_c, 0, 61, 64
2, 25260, Note_off_c, 0, 61, 64
2, 25260, Note_on_c, 0, 57, 64
2, 25320, Note_off_c, 0, 57, 64
2, 25320, Note_on_c, 0, 59, 64
2, 25380, Note_off_c, 0, 59, 64
2, 25380, Note_on_c, 0, 62, 64
2, 25440, Note_off_c, 0, 62, 64
2, 25440, Note_on_c, 0, 61, 64
2, 25500, Note_off_c, 0, 61, 64
2, 25500, Note_on_c, 0, 57, 64
2, 25560, Note_off_c, 0, 57, 64
2, 25560, Note_on_c, 0, 62, 64
2, 25620, Note_off_c, 0, 62, 64
2, 25620, Note_on_c, 0, 59, 64
2, 25680, Note_off_c, 0, 59, 64
2, 25680, Note_on_c, 0, 61, 64
2, 25740, Note_off_c, 0, 61, 64
2, 25740, Note_on_c, 0, 57, 64
2, 25800, Note_off_c, 0, 57, 64
2, 25800, Note_on_c, 0, 64, 64
2, 25860, Note_off_c, 0, 64, 64
2, 25860, Note_on_c, 0, 55, 64
2, 25900, Note_off_c, 0, 55, 64
2, 25920, Note_on_c, 0, 55, 64
2, 25944, Note_on_c, 0, 54, 64
2, 25950, Note_off_c, 0, 55, 64
2, 25964, Note_off_c, 0, 54, 45
2, 25964, Note_on_c, 0, 55, 64
2, 25984, Note_off_c, 0, 55, 49
2, 25984, Note_on_c, 0, 54, 64
2, 26004, Note_off_c, 0, 54, 52
2, 26004, Note_on_c, 0, 55, 64
2, 26024, Note_off_c, 0, 55, 49
2, 26024, Note_on_c, 0, 54, 64
2, 26044, Note_off_c, 0, 54, 44
2, 26044, Note_on_c, 0, 55, 64
2, 26064, Note_off_c, 0, 55, 45
2, 26064, Note_on_c, 0, 54, 64
2, 26100, Note_off_c, 0, 54, 46
2, 26100, Note_on_c, 0, 62, 64
2, 26160, Note_off_c, 0, 62, 64
2, 26160, Note_on_c, 0, 57, 64
2, 26220, Note_off_c, 0, 57, 64
2, 26220, Note_on_c, 0, 55, 64
2, 26280, Note_off_c, 0, 55, 64
2, 26280, Note_on_c, 0, 54, 64
2, 26340, Note_off_c, 0, 54, 64
2, 26340, Note_on_c, 0, 52, 64
2, 26400, Note_off_c, 0, 52, 64
2, 26400, Note_on_c, 0, 50, 64
2, 26460, Note_off_c, 0, 50, 64
2, 26460, Note_on_c, 0, 57, 64
2, 26520, Note_off_c, 0, 57, 64
2, 26520, Note_on_c, 0, 55, 64
2, 26580, Note_off_c, 0, 55, 64
2, 26580, Note_on_c, 0, 52, 64
2, 26640, Note_off_c, 0, 52, 64
2, 26640, Note_on_c, 0, 54, 64
2, 26700, Note_off_c, 0, 54, 64
2, 26700, Note_on_c, 0, 50, 64
2, 26760, Note_off_c, 0, 50, 64
2, 26760, Note_on_c, 0, 57, 64
2, 26820, Note_off_c, 0, 57, 64
2, 26820, Note_on_c, 0, 48, 64
2, 26860, Note_off_c, 0, 48, 64
2, 26880, Note_on_c, 0, 48, 64
2, 26904, Note_on_c, 0, 47, 64
2, 26910, Note_off_c, 0, 48, 64
2, 26924, Note_off_c, 0, 47, 43
2, 26924, Note_on_c, 0, 48, 64
2, 26944, Note_off_c, 0, 48, 52
2, 26944, Note_on_c, 0, 47, 64
2, 26964, Note_off_c, 0, 47, 49
2, 26964, Note_on_c, 0, 48, 64
2, 26984, Note_off_c, 0, 48, 37
2, 26984, Note_on_c, 0, 47, 64
2, 27004, Note_off_c, 0, 47, 43
2, 27004, Note_on_c, 0, 48, 64
2, 27024, Note_off_c, 0, 48, 37
2, 27024, Note_on_c, 0, 47, 64
2, 27060, Note_off_c, 0, 47, 32
2, 27060, Note_on_c, 0, 55, 64
2, 27120, Note_off_c, 0, 55, 64
2, 27120, Note_on_c, 0, 50, 64
2, 27180, Note_off_c, 0, 50, 64
2, 27180, Note_on_c, 0, 48, 64
2, 27240, Note_off_c, 0, 48, 64
2, 27240, Note_on_c, 0, 47, 64
2, 27300, Note_off_c, 0, 47, 64
2, 27300, Note_on_c, 0, 45, 64
2, 27360, Note_off_c, 0, 45, 64
2, 27360, Note_on_c, 0, 43, 64
2, 27420, Note_off_c, 0, 43, 64
2, 27420, Note_on_c, 0, 50, 64
2, 27480, Note_off_c, 0, 50, 64
2, 27480, Note_on_c, 0, 48, 64
2, 27540, Note_off_c, 0, 48, 64
2, 27540, Note_on_c, 0, 45, 64
2, 27600, Note_off_c, 0, 45, 64
2, 27600, Note_on_c, 0, 47, 64
2, 27660, Note_off_c, 0, 47, 64
2, 27660, Note_on_c, 0, 43, 64
2, 27720, Note_off_c, 0, 43, 64
2, 27720, Note_on_c, 0, 50, 64
2, 27780, Note_off_c, 0, 50, 64
2, 27780, Note_on_c, 0, 42, 64
2, 27840, Note_off_c, 0, 42, 64
2, 27840, Note_on_c, 0, 40, 64
2, 27900, Note_off_c, 0, 40, 64
2, 27900, Note_on_c, 0, 43, 64
2, 27960, Note_off_c, 0, 43, 64
2, 27960, Note_on_c, 0, 45, 64
2, 28020, Note_off_c, 0, 45, 64
2, 28020, Note_on_c, 0, 47, 64
2, 28080, Note_off_c, 0, 47, 64
2, 28080, Note_on_c, 0, 49, 64
2, 28140, Note_off_c, 0, 49, 64
2, 28140, Note_on_c, 0, 50, 64
2, 28200, Note_off_c, 0, 50, 64
2, 28200, Note_on_c, 0, 52, 64
2, 28260, Note_off_c, 0, 52, 64
2, 28260, Note_on_c, 0, 54, 64
2, 28320, Note_off_c, 0, 54, 64
2, 28320, Note_on_c, 0, 55, 64
2, 28380, Note_off_c, 0, 55, 64
2, 28380, Note_on_c, 0, 57, 64
2, 28440, Note_off_c, 0, 57, 64
2, 28440, Note_on_c, 0, 61, 64
2, 28500, Note_off_c, 0, 61, 64
2, 28500, Note_on_c, 0, 62, 64
2, 28560, Note_off_c, 0, 62, 64
2, 28560, Note_on_c, 0, 64, 64
2, 28620, Note_off_c, 0, 64, 64
2, 28620, Note_on_c, 0, 57, 64
2, 28680, Note_off_c, 0, 57, 64
2, 28680, Note_on_c, 0, 67, 64
2, 28800, Note_off_c, 0, 67, 64
2, 28800, Note_on_c, 0, 50, 64
2, 28860, Note_off_c, 0, 50, 64
2, 28860, Note_on_c, 0, 67, 64
2, 28920, Note_off_c, 0, 67, 64
2, 28920, Note_on_c, 0, 66, 64
2, 28980, Note_off_c, 0, 66, 64
2, 28980, Note_on_c, 0, 64, 64
2, 29040, Note_off_c, 0, 64, 64
2, 29040, Note_on_c, 0, 66, 64
2, 29100, Note_off_c, 0, 66, 64
2, 29100, Note_on_c, 0, 62, 64
2, 29160, Note_off_c, 0, 62, 64
2, 29160, Note_on_c, 0, 57, 64
2, 29220, Note_off_c, 0, 57, 64
2, 29220, Note_on_c, 0, 62, 64
2, 29280, Note_off_c, 0, 62, 64
2, 29280, Note_on_c, 0, 50, 64
2, 29340, Note_off_c, 0, 50, 64
2, 29340, Note_on_c, 0, 54, 64
2, 29400, Note_off_c, 0, 54, 64
2, 29400, Note_on_c, 0, 57, 64
2, 29460, Note_off_c, 0, 57, 64
2, 29460, Note_on_c, 0, 60, 64
2, 29505, Note_off_c, 0, 60, 64
2, 29520, Note_on_c, 0, 60, 64
2, 29539, Note_off_c, 0, 60, 64
2, 29539, Note_on_c, 0, 59, 64
2, 29559, Note_off_c, 0, 59, 64
2, 29559, Note_on_c, 0, 60, 64
2, 29579, Note_off_c, 0, 60, 64
2, 29579, Note_on_c, 0, 59, 64
2, 29599, Note_off_c, 0, 59, 64
2, 29599, Note_on_c, 0, 60, 64
2, 29619, Note_off_c, 0, 60, 64
2, 29619, Note_on_c, 0, 59, 64
2, 29639, Note_off_c, 0, 59, 64
2, 29640, Note_on_c, 0, 60, 64
2, 29670, Note_off_c, 0, 60, 64
2, 29670, Note_on_c, 0, 59, 64
2, 29700, Note_off_c, 0, 59, 64
2, 29700, Note_on_c, 0, 57, 64
2, 29760, Note_off_c, 0, 57, 64
2, 29760, Note_on_c, 0, 43, 64
2, 29790, Note_on_c, 0, 50, 64
2, 29815, Note_on_c, 0, 59, 64
2, 29940, Note_off_c, 0, 59, 64
2, 29940, Note_off_c, 0, 50, 64
2, 29940, Note_off_c, 0, 43, 64
2, 29940, Note_on_c, 0, 57, 64
2, 30000, Note_off_c, 0, 57, 64
2, 30000, Note_on_c, 0, 55, 64
2, 30060, Note_off_c, 0, 55, 64
2, 30060, Note_on_c, 0, 54, 64
2, 30120, Note_off_c, 0, 54, 64
2, 30120, Note_on_c, 0, 52, 64
2, 30180, Note_off_c, 0, 52, 64
2, 30180, Note_on_c, 0, 62, 64
2, 30240, Note_off_c, 0, 62, 64
2, 30240, Note_on_c, 0, 61, 64
2, 30300, Note_off_c, 0, 61, 64
2, 30300, Note_on_c, 0, 64, 64
2, 30360, Note_off_c, 0, 64, 64
2, 30360, Note_on_c, 0, 57, 64
2, 30420, Note_off_c, 0, 57, 64
2, 30420, Note_on_c, 0, 55, 64
2, 30480, Note_off_c, 0, 55, 64
2, 30480, Note_on_c, 0, 54, 64
2, 30540, Note_off_c, 0, 54, 64
2, 30540, Note_on_c, 0, 50, 64
2, 30600, Note_off_c, 0, 50, 64
2, 30600, Note_on_c, 0, 45, 64
2, 30660, Note_off_c, 0, 45, 64
2, 30660, Note_on_c, 0, 49, 64
2, 30720, Note_off_c, 0, 49, 64
2, 30720, Note_on_c, 0, 38, 64
2, 30900, Note_off_c, 0, 38, 64
2, 30900, Note_on_c, 0, 45, 64
2, 30960, Note_off_c, 0, 45, 64
2, 30960, Note_on_c, 0, 50, 64
2, 31020, Note_off_c, 0, 50, 64
2, 31020, Note_on_c, 0, 54, 64
2, 31080, Note_off_c, 0, 54, 64
2, 31080, Note_on_c, 0, 57, 64
2, 31140, Note_off_c, 0, 57, 64
2, 31140, Note_on_c, 0, 61, 64
2, 31200, Note_off_c, 0, 61, 64
2, 31200, Note_on_c, 0, 62, 64
2, 31260, Note_off_c, 0, 62, 64
2, 31260, Note_on_c, 0, 57, 64
2, 31320, Note_off_c, 0, 57, 64
2, 31320, Note_on_c, 0, 54, 64
2, 31380, Note_off_c, 0, 54, 64
2, 31380, Note_on_c, 0, 50, 64
2, 31440, Note_off_c, 0, 50, 64
2, 31440, Note_on_c, 0, 38, 64
2, 31600, Note_off_c, 0, 38, 64
2, 31620, Note_on_c, 0, 57, 64
2, 31670, Note_off_c, 0, 57, 64
2, 31680, Note_on_c, 0, 50, 64
2, 31700, Note_on_c, 0, 57, 64
2, 31970, Note_off_c, 0, 57, 64
2, 31970, Note_off_c, 0, 50, 64
2, 31980, Note_on_c, 0, 54, 64
2, 32040, Note_off_c, 0, 54, 64
2, 32040, Note_on_c, 0, 55, 64
2, 32100, Note_off_c, 0, 55, 64
2, 32100, Note_on_c, 0, 57, 64
2, 32160, Note_off_c, 0, 57, 64
2, 32160, Note_on_c, 0, 50, 64
2, 32220, Note_off_c, 0, 50, 64
2, 32220, Note_on_c, 0, 52, 64
2, 32280, Note_off_c, 0, 52, 64
2, 32280, Note_on_c, 0, 54, 64
2, 32340, Note_off_c, 0, 54, 64
2, 32340, Note_on_c, 0, 55, 64
2, 32400, Note_off_c, 0, 55, 64
2, 32400, Note_on_c, 0, 57, 64
2, 32460, Note_off_c, 0, 57, 64
2, 32460, Note_on_c, 0, 54, 64
2, 32520, Note_off_c, 0, 54, 64
2, 32520, Note_on_c, 0, 50, 64
2, 32580, Note_off_c, 0, 50, 64
2, 32580, Note_on_c, 0, 48, 64
2, 32640, Note_off_c, 0, 48, 64
2, 32640, Note_on_c, 0, 47, 64
2, 32700, Note_off_c, 0, 47, 64
2, 32700, Note_on_c, 0, 50, 64
2, 32760, Note_off_c, 0, 50, 64
2, 32760, Note_on_c, 0, 55, 64
2, 32820, Note_off_c, 0, 55, 64
2, 32820, Note_on_c, 0, 54, 64
2, 32880, Note_off_c, 0, 54, 64
2, 32880, Note_on_c, 0, 55, 64
2, 32940, Note_off_c, 0, 55, 64
2, 32940, Note_on_c, 0, 57, 64
2, 33000, Note_off_c, 0, 57, 64
2, 33000, Note_on_c, 0, 59, 64
2, 33060, Note_off_c, 0, 59, 64
2, 33060, Note_on_c, 0, 60, 64
2, 33120, Note_off_c, 0, 60, 64
2, 33120, Note_on_c, 0, 62, 64
2, 33180, Note_off_c, 0, 62, 64
2, 33180, Note_on_c, 0, 59, 64
2, 33240, Note_off_c, 0, 59, 64
2, 33240, Note_on_c, 0, 57, 64
2, 33300, Note_off_c, 0, 57, 64
2, 33300, Note_on_c, 0, 55, 64
2, 33360, Note_off_c, 0, 55, 64
2, 33360, Note_on_c, 0, 53, 64
2, 33420, Note_off_c, 0, 53, 64
2, 33420, Note_on_c, 0, 52, 64
2, 33480, Note_off_c, 0, 52, 64
2, 33480, Note_on_c, 0, 53, 64
2, 33540, Note_off_c, 0, 53, 64
2, 33540, Note_on_c, 0, 62, 64
2, 33600, Note_off_c, 0, 62, 64
2, 33600, Note_on_c, 0, 53, 64
2, 33619, Note_off_c, 0, 53, 64
2, 33619, Note_on_c, 0, 52, 64
2, 33639, Note_off_c, 0, 52, 64
2, 33639, Note_on_c, 0, 53, 64
2, 33659, Note_off_c, 0, 53, 64
2, 33659, Note_on_c, 0, 52, 64
2, 33679, Note_off_c, 0, 52, 64
2, 33679, Note_on_c, 0, 53, 64
2, 33699, Note_off_c, 0, 53, 64
2, 33699, Note_on_c, 0, 52, 64
2, 33719, Note_off_c, 0, 52, 64
2, 33720, Note_on_c, 0, 50, 64
2, 33780, Note_off_c, 0, 50, 64
2, 33780, Note_on_c, 0, 48, 64
2, 33840, Note_off_c, 0, 48, 64
2, 33840, Note_on_c, 0, 60, 64
2, 33900, Note_off_c, 0, 60, 64
2, 33900, Note_on_c, 0, 45, 64
2, 33960, Note_off_c, 0, 45, 64
2, 33960, Note_on_c, 0, 47, 64
2, 34020, Note_off_c, 0, 47, 64
2, 34020, Note_on_c, 0, 48, 64
2, 34080, Note_off_c, 0, 48, 64
2, 34080, Note_on_c, 0, 38, 64
2, 34140, Note_off_c, 0, 38, 64
2, 34140, Note_on_c, 0, 60, 64
2, 34200, Note_off_c, 0, 60, 64
2, 34200, Note_on_c, 0, 59, 64
2, 34260, Note_off_c, 0, 59, 64
2, 34260, Note_on_c, 0, 60, 64
2, 34320, Note_off_c, 0, 60, 64
2, 34320, Note_on_c, 0, 62, 64
2, 34380, Note_off_c, 0, 62, 64
2, 34380, Note_on_c, 0, 59, 64
2, 34440, Note_off_c, 0, 59, 64
2, 34440, Note_on_c, 0, 60, 64
2, 34500, Note_off_c, 0, 60, 64
2, 34500, Note_on_c, 0, 57, 64
2, 34560, Note_off_c, 0, 57, 64
2, 34560, Note_on_c, 0, 57, 64
2, 34579, Note_off_c, 0, 57, 64
2, 34579, Note_on_c, 0, 56, 64
2, 34599, Note_off_c, 0, 56, 64
2, 34599, Note_on_c, 0, 57, 64
2, 34619, Note_off_c, 0, 57, 64
2, 34619, Note_on_c, 0, 56, 64
2, 34639, Note_off_c, 0, 56, 64
2, 34639, Note_on_c, 0, 57, 64
2, 34659, Note_off_c, 0, 57, 64
2, 34659, Note_on_c, 0, 56, 64
2, 34679, Note_off_c, 0, 56, 64
2, 34680, Note_on_c, 0, 54, 64
2, 34740, Note_off_c, 0, 54, 64
2, 34740, Note_on_c, 0, 52, 64
2, 34800, Note_off_c, 0, 52, 64
2, 34800, Note_on_c, 0, 59, 64
2, 34860, Note_off_c, 0, 59, 64
2, 34860, Note_on_c, 0, 50, 64
2, 34920, Note_off_c, 0, 50, 64
2, 34920, Note_on_c, 0, 48, 64
2, 34980, Note_off_c, 0, 48, 64
2, 34980, Note_on_c, 0, 47, 64
2, 35040, Note_off_c, 0, 47, 64
2, 35040, Note_on_c, 0, 48, 64
2, 35100, Note_off_c, 0, 48, 64
2, 35100, Note_on_c, 0, 52, 64
2, 35160, Note_off_c, 0, 52, 64
2, 35160, Note_on_c, 0, 54, 64
2, 35220, Note_off_c, 0, 54, 64
2, 35220, Note_on_c, 0, 56, 64
2, 35280, Note_off_c, 0, 56, 64
2, 35280, Note_on_c, 0, 57, 64
2, 35340, Note_off_c, 0, 57, 64
2, 35340, Note_on_c, 0, 60, 64
2, 35400, Note_off_c, 0, 60, 64
2, 35400, Note_on_c, 0, 59, 64
2, 35460, Note_off_c, 0, 59, 64
2, 35460, Note_on_c, 0, 57, 64
2, 35520, Note_off_c, 0, 57, 64
2, 35520, Note_on_c, 0, 62, 64
2, 35640, Note_off_c, 0, 62, 64
2, 35640, Note_on_c, 0, 47, 64
2, 35700, Note_off_c, 0, 47, 64
2, 35700, Note_on_c, 0, 48, 64
2, 35760, Note_off_c, 0, 48, 64
2, 35760, Note_on_c, 0, 50, 64
2, 35820, Note_off_c, 0, 50, 64
2, 35820, Note_on_c, 0, 52, 64
2, 35880, Note_off_c, 0, 52, 64
2, 35880, Note_on_c, 0, 53, 64
2, 35940, Note_off_c, 0, 53, 64
2, 35940, Note_on_c, 0, 45, 64
2, 36000, Note_off_c, 0, 45, 64
2, 36000, Note_on_c, 0, 45, 64
2, 36019, Note_off_c, 0, 45, 64
2, 36019, Note_on_c, 0, 44, 64
2, 36039, Note_off_c, 0, 44, 64
2, 36039, Note_on_c, 0, 45, 64
2, 36059, Note_off_c, 0, 45, 64
2, 36059, Note_on_c, 0, 44, 64
2, 36079, Note_off_c, 0, 44, 64
2, 36079, Note_on_c, 0, 45, 64
2, 36099, Note_off_c, 0, 45, 64
2, 36099, Note_on_c, 0, 44, 64
2, 36119, Note_off_c, 0, 44, 64
2, 36120, Note_on_c, 0, 45, 64
2, 36150, Note_off_c, 0, 45, 64
2, 36150, Note_on_c, 0, 44, 64
2, 36180, Note_off_c, 0, 44, 64
2, 36180, Note_on_c, 0, 52, 64
2, 36240, Note_off_c, 0, 52, 64
2, 36240, Note_on_c, 0, 59, 64
2, 36300, Note_off_c, 0, 59, 64
2, 36300, Note_on_c, 0, 62, 64
2, 36360, Note_off_c, 0, 62, 64
2, 36360, Note_on_c, 0, 60, 64
2, 36420, Note_off_c, 0, 60, 64
2, 36420, Note_on_c, 0, 59, 64
2, 36480, Note_off_c, 0, 59, 64
2, 36480, Note_on_c, 0, 45, 64
2, 36510, Note_on_c, 0, 52, 64
2, 36530, Note_on_c, 0, 60, 64
2, 36660, Note_off_c, 0, 60, 64
2, 36660, Note_off_c, 0, 52, 64
2, 36660, Note_off_c, 0, 45, 64
2, 36660, Note_on_c, 0, 59, 64
2, 36720, Note_off_c, 0, 59, 64
2, 36720, Note_on_c, 0, 57, 64
2, 36780, Note_off_c, 0, 57, 64
2, 36780, Note_on_c, 0, 55, 64
2, 36840, Note_off_c, 0, 55, 64
2, 36840, Note_on_c, 0, 53, 64
2, 36900, Note_off_c, 0, 53, 64
2, 36900, Note_on_c, 0, 52, 64
2, 36960, Note_off_c, 0, 52, 64
2, 36960, Note_on_c, 0, 53, 64
2, 37020, Note_off_c, 0, 53, 64
2, 37020, Note_on_c, 0, 50, 64
2, 37080, Note_off_c, 0, 50, 64
2, 37080, Note_on_c, 0, 58, 64
2, 37140, Note_off_c, 0, 58, 64
2, 37140, Note_on_c, 0, 57, 64
2, 37200, Note_off_c, 0, 57, 64
2, 37200, Note_on_c, 0, 58, 64
2, 37260, Note_off_c, 0, 58, 64
2, 37260, Note_on_c, 0, 60, 64
2, 37320, Note_off_c, 0, 60, 64
2, 37320, Note_on_c, 0, 62, 64
2, 37380, Note_off_c, 0, 62, 64
2, 37380, Note_on_c, 0, 57, 64
2, 37440, Note_off_c, 0, 57, 64
2, 37440, Note_on_c, 0, 56, 64
2, 37500, Note_off_c, 0, 56, 64
2, 37500, Note_on_c, 0, 57, 64
2, 37560, Note_off_c, 0, 57, 64
2, 37560, Note_on_c, 0, 59, 64
2, 37620, Note_off_c, 0, 59, 64
2, 37620, Note_on_c, 0, 52, 64
2, 37680, Note_off_c, 0, 52, 64
2, 37680, Note_on_c, 0, 53, 64
2, 37740, Note_off_c, 0, 53, 64
2, 37740, Note_on_c, 0, 50, 64
2, 37800, Note_off_c, 0, 50, 64
2, 37800, Note_on_c, 0, 48, 64
2, 37860, Note_off_c, 0, 48, 64
2, 37860, Note_on_c, 0, 47, 64
2, 37920, Note_off_c, 0, 47, 64
2, 37920, Note_on_c, 0, 48, 64
2, 37980, Note_off_c, 0, 48, 64
2, 37980, Note_on_c, 0, 52, 64
2, 38040, Note_off_c, 0, 52, 64
2, 38040, Note_on_c, 0, 57, 64
2, 38100, Note_off_c, 0, 57, 64
2, 38100, Note_on_c, 0, 59, 64
2, 38160, Note_off_c, 0, 59, 64
2, 38160, Note_on_c, 0, 52, 64
2, 38160, Note_on_c, 0, 60, 64
2, 38179, Note_off_c, 0, 60, 64
2, 38179, Note_on_c, 0, 59, 64
2, 38199, Note_off_c, 0, 59, 64
2, 38199, Note_on_c, 0, 60, 64
2, 38219, Note_off_c, 0, 60, 64
2, 38219, Note_on_c, 0, 59, 64
2, 38239, Note_off_c, 0, 59, 64
2, 38239, Note_on_c, 0, 60, 64
2, 38259, Note_off_c, 0, 60, 64
2, 38259, Note_on_c, 0, 59, 64
2, 38279, Note_off_c, 0, 59, 64
2, 38280, Note_on_c, 0, 60, 64
2, 38310, Note_off_c, 0, 60, 64
2, 38310, Note_on_c, 0, 59, 64
2, 38340, Note_off_c, 0, 59, 64
2, 38340, Note_off_c, 0, 52, 64
2, 38340, Note_on_c, 0, 57, 64
2, 38385, Note_off_c, 0, 57, 64
2, 38400, Note_on_c, 0, 45, 64
2, 38425, Note_on_c, 0, 52, 64
2, 38450, Note_on_c, 0, 57, 64
2, 38580, Note_off_c, 0, 57, 64
2, 38580, Note_off_c, 0, 52, 64
2, 38580, Note_off_c, 0, 45, 64
2, 38580, Note_on_c, 0, 59, 64
2, 38640, Note_off_c, 0, 59, 64
2, 38640, Note_on_c, 0, 60, 64
2, 38700, Note_off_c, 0, 60, 64
2, 38700, Note_on_c, 0, 59, 64
2, 38760, Note_off_c, 0, 59, 64
2, 38760, Note_on_c, 0, 60, 64
2, 38820, Note_off_c, 0, 60, 64
2, 38820, Note_on_c, 0, 55, 64
2, 38880, Note_off_c, 0, 55, 64
2, 38880, Note_on_c, 0, 54, 64
2, 38940, Note_off_c, 0, 54, 64
2, 38940, Note_on_c, 0, 55, 64
2, 39000, Note_off_c, 0, 55, 64
2, 39000, Note_on_c, 0, 57, 64
2, 39060, Note_off_c, 0, 57, 64
2, 39060, Note_on_c, 0, 52, 64
2, 39120, Note_off_c, 0, 52, 64
2, 39120, Note_on_c, 0, 50, 64
2, 39180, Note_off_c, 0, 50, 64
2, 39180, Note_on_c, 0, 48, 64
2, 39240, Note_off_c, 0, 48, 64
2, 39240, Note_on_c, 0, 47, 64
2, 39300, Note_off_c, 0, 47, 64
2, 39300, Note_on_c, 0, 45, 64
2, 39360, Note_off_c, 0, 45, 64
2, 39360, Note_on_c, 0, 43, 64
2, 39420, Note_off_c, 0, 43, 64
2, 39420, Note_on_c, 0, 50, 64
2, 39480, Note_off_c, 0, 50, 64
2, 39480, Note_on_c, 0, 54, 64
2, 39540, Note_off_c, 0, 54, 64
2, 39540, Note_on_c, 0, 60, 64
2, 39600, Note_off_c, 0, 60, 64
2, 39600, Note_on_c, 0, 59, 64
2, 39660, Note_off_c, 0, 59, 64
2, 39660, Note_on_c, 0, 57, 64
2, 39720, Note_off_c, 0, 57, 64
2, 39720, Note_on_c, 0, 55, 64
2, 39780, Note_off_c, 0, 55, 64
2, 39780, Note_on_c, 0, 57, 64
2, 39840, Note_off_c, 0, 57, 64
2, 39840, Note_on_c, 0, 59, 64
2, 39900, Note_off_c, 0, 59, 64
2, 39900, Note_on_c, 0, 60, 64
2, 39960, Note_off_c, 0, 60, 64
2, 39960, Note_on_c, 0, 62, 64
2, 40020, Note_off_c, 0, 62, 64
2, 40020, Note_on_c, 0, 64, 64
2, 40080, Note_off_c, 0, 64, 64
2, 40080, Note_on_c, 0, 62, 64
2, 40140, Note_off_c, 0, 62, 64
2, 40140, Note_on_c, 0, 64, 64
2, 40200, Note_off_c, 0, 64, 64
2, 40200, Note_on_c, 0, 65, 64
2, 40260, Note_off_c, 0, 65, 64
2, 40260, Note_on_c, 0, 62, 64
2, 40320, Note_off_c, 0, 62, 64
2, 40320, Note_on_c, 0, 64, 64
2, 40440, Note_off_c, 0, 64, 64
2, 40440, Note_on_c, 0, 57, 64
2, 40459, Note_off_c, 0, 57, 64
2, 40459, Note_on_c, 0, 55, 64
2, 40479, Note_off_c, 0, 55, 64
2, 40479, Note_on_c, 0, 57, 64
2, 40499, Note_off_c, 0, 57, 64
2, 40499, Note_on_c, 0, 55, 64
2, 40519, Note_off_c, 0, 55, 64
2, 40519, Note_on_c, 0, 57, 64
2, 40539, Note_off_c, 0, 57, 64
2, 40539, Note_on_c, 0, 55, 64
2, 40559, Note_off_c, 0, 55, 64
2, 40560, Note_on_c, 0, 48, 64
2, 40620, Note_off_c, 0, 48, 64
2, 40620, Note_on_c, 0, 62, 64
2, 40680, Note_off_c, 0, 62, 64
2, 40680, Note_on_c, 0, 60, 64
2, 40740, Note_off_c, 0, 60, 64
2, 40740, Note_on_c, 0, 59, 64
2, 40800, Note_off_c, 0, 59, 64
2, 40800, Note_on_c, 0, 57, 64
2, 40860, Note_off_c, 0, 57, 64
2, 40860, Note_on_c, 0, 59, 64
2, 40920, Note_off_c, 0, 59, 64
2, 40920, Note_on_c, 0, 60, 64
2, 40980, Note_off_c, 0, 60, 64
2, 40980, Note_on_c, 0, 64, 64
2, 41040, Note_off_c, 0, 64, 64
2, 41040, Note_on_c, 0, 64, 64
2, 41059, Note_off_c, 0, 64, 64
2, 41059, Note_on_c, 0, 62, 64
2, 41079, Note_off_c, 0, 62, 64
2, 41079, Note_on_c, 0, 64, 64
2, 41099, Note_off_c, 0, 64, 64
2, 41099, Note_on_c, 0, 62, 64
2, 41119, Note_off_c, 0, 62, 64
2, 41119, Note_on_c, 0, 64, 64
2, 41139, Note_off_c, 0, 64, 64
2, 41139, Note_on_c, 0, 62, 64
2, 41159, Note_off_c, 0, 62, 64
2, 41160, Note_on_c, 0, 64, 64
2, 41190, Note_off_c, 0, 64, 64
2, 41190, Note_on_c, 0, 62, 64
2, 41220, Note_off_c, 0, 62, 64
2, 41220, Note_on_c, 0, 60, 64
2, 41280, Note_off_c, 0, 60, 64
2, 41280, Note_on_c, 0, 62, 64
2, 41400, Note_off_c, 0, 62, 64
2, 41400, Note_on_c, 0, 59, 64
2, 41419, Note_off_c, 0, 59, 64
2, 41419, Note_on_c, 0, 57, 64
2, 41439, Note_off_c, 0, 57, 64
2, 41439, Note_on_c, 0, 59, 64
2, 41459, Note_off_c, 0, 59, 64
2, 41459, Note_on_c, 0, 57, 64
2, 41479, Note_off_c, 0, 57, 64
2, 41479, Note_on_c, 0, 59, 64
2, 41499, Note_off_c, 0, 59, 64
2, 41499, Note_on_c, 0, 57, 64
2, 41519, Note_off_c, 0, 57, 64
2, 41520, Note_on_c, 0, 47, 64
2, 41580, Note_off_c, 0, 47, 64
2, 41580, Note_on_c, 0, 60, 64
2, 41640, Note_off_c, 0, 60, 64
2, 41640, Note_on_c, 0, 59, 64
2, 41700, Note_off_c, 0, 59, 64
2, 41700, Note_on_c, 0, 57, 64
2, 41760, Note_off_c, 0, 57, 64
2, 41760, Note_on_c, 0, 55, 64
2, 41820, Note_off_c, 0, 55, 64
2, 41820, Note_on_c, 0, 54, 64
2, 41880, Note_off_c, 0, 54, 64
2, 41880, Note_on_c, 0, 52, 64
2, 41940, Note_off_c, 0, 52, 64
2, 41940, Note_on_c, 0, 55, 64
2, 42000, Note_off_c, 0, 55, 64
2, 42000, Note_on_c, 0, 59, 64
2, 42060, Note_off_c, 0, 59, 64
2, 42060, Note_on_c, 0, 62, 64
2, 42120, Note_off_c, 0, 62, 64
2, 42120, Note_on_c, 0, 60, 64
2, 42180, Note_off_c, 0, 60, 64
2, 42180, Note_on_c, 0, 59, 64
2, 42240, Note_off_c, 0, 59, 64
2, 42240, Note_on_c, 0, 60, 64
2, 42360, Note_off_c, 0, 60, 64
2, 42360, Note_on_c, 0, 57, 64
2, 42379, Note_off_c, 0, 57, 64
2, 42379, Note_on_c, 0, 55, 64
2, 42399, Note_off_c, 0, 55, 64
2, 42399, Note_on_c, 0, 57, 64
2, 42419, Note_off_c, 0, 57, 64
2, 42419, Note_on_c, 0, 55, 64
2, 42439, Note_off_c, 0, 55, 64
2, 42439, Note_on_c, 0, 57, 64
2, 42459, Note_off_c, 0, 57, 64
2, 42459, Note_on_c, 0, 55, 64
2, 42479, Note_off_c, 0, 55, 64
2, 42480, Note_on_c, 0, 45, 64
2, 42540, Note_off_c, 0, 45, 64
2, 42540, Note_on_c, 0, 52, 64
2, 42600, Note_off_c, 0, 52, 64
2, 42600, Note_on_c, 0, 54, 64
2, 42660, Note_off_c, 0, 54, 64
2, 42660, Note_on_c, 0, 55, 64
2, 42720, Note_off_c, 0, 55, 64
2, 42720, Note_on_c, 0, 54, 64
2, 42780, Note_off_c, 0, 54, 64
2, 42780, Note_on_c, 0, 57, 64
2, 42840, Note_off_c, 0, 57, 64
2, 42840, Note_on_c, 0, 59, 64
2, 42900, Note_off_c, 0, 59, 64
2, 42900, Note_on_c, 0, 60, 64
2, 42960, Note_off_c, 0, 60, 64
2, 42960, Note_on_c, 0, 50, 64
2, 43020, Note_off_c, 0, 50, 64
2, 43020, Note_on_c, 0, 48, 64
2, 43080, Note_off_c, 0, 48, 64
2, 43080, Note_on_c, 0, 47, 64
2, 43140, Note_off_c, 0, 47, 64
2, 43140, Note_on_c, 0, 45, 64
2, 43200, Note_off_c, 0, 45, 64
2, 43200, Note_on_c, 0, 43, 64
2, 43260, Note_off_c, 0, 43, 64
2, 43260, Note_on_c, 0, 50, 64
2, 43320, Note_off_c, 0, 50, 64
2, 43320, Note_on_c, 0, 54, 64
2, 43380, Note_off_c, 0, 54, 64
2, 43380, Note_on_c, 0, 57, 64
2, 43440, Note_off_c, 0, 57, 64
2, 43440, Note_on_c, 0, 60, 64
2, 43500, Note_off_c, 0, 60, 64
2, 43500, Note_on_c, 0, 57, 64
2, 43560, Note_off_c, 0, 57, 64
2, 43560, Note_on_c, 0, 54, 64
2, 43620, Note_off_c, 0, 54, 64
2, 43620, Note_on_c, 0, 50, 64
2, 43665, Note_off_c, 0, 50, 64
2, 43680, Note_on_c, 0, 43, 64
2, 43710, Note_on_c, 0, 50, 64
2, 43725, Note_on_c, 0, 59, 64
2, 43850, Note_off_c, 0, 59, 64
2, 43850, Note_off_c, 0, 50, 64
2, 43860, Note_off_c, 0, 43, 64
2, 43860, Note_on_c, 0, 50, 64
2, 43920, Note_off_c, 0, 50, 64
2, 43920, Note_on_c, 0, 52, 64
2, 43980, Note_off_c, 0, 52, 64
2, 43980, Note_on_c, 0, 55, 64
2, 44040, Note_off_c, 0, 55, 64
2, 44040, Note_on_c, 0, 57, 64
2, 44100, Note_off_c, 0, 57, 64
2, 44100, Note_on_c, 0, 61, 64
2, 44160, Note_off_c, 0, 61, 64
2, 44160, Note_on_c, 0, 62, 64
2, 44220, Note_off_c, 0, 62, 64
2, 44220, Note_on_c, 0, 57, 64
2, 44280, Note_off_c, 0, 57, 64
2, 44280, Note_on_c, 0, 54, 64
2, 44340, Note_off_c, 0, 54, 64
2, 44340, Note_on_c, 0, 52, 64
2, 44400, Note_off_c, 0, 52, 64
2, 44400, Note_on_c, 0, 50, 64
2, 44460, Note_off_c, 0, 50, 64
2, 44460, Note_on_c, 0, 53, 64
2, 44520, Note_off_c, 0, 53, 64
2, 44520, Note_on_c, 0, 55, 64
2, 44580, Note_off_c, 0, 55, 64
2, 44580, Note_on_c, 0, 59, 64
2, 44640, Note_off_c, 0, 59, 64
2, 44640, Note_on_c, 0, 60, 64
2, 44700, Note_off_c, 0, 60, 64
2, 44700, Note_on_c, 0, 55, 64
2, 44760, Note_off_c, 0, 55, 64
2, 44760, Note_on_c, 0, 52, 64
2, 44820, Note_off_c, 0, 52, 64
2, 44820, Note_on_c, 0, 50, 64
2, 44880, Note_off_c, 0, 50, 64
2, 44880, Note_on_c, 0, 48, 64
2, 44940, Note_off_c, 0, 48, 64
2, 44940, Note_on_c, 0, 52, 64
2, 45000, Note_off_c, 0, 52, 64
2, 45000, Note_on_c, 0, 57, 64
2, 45060, Note_off_c, 0, 57, 64
2, 45060, Note_on_c, 0, 60, 64
2, 45120, Note_off_c, 0, 60, 64
2, 45120, Note_on_c, 0, 54, 64
2, 45180, Note_off_c, 0, 54, 64
2, 45180, Note_on_c, 0, 57, 64
2, 45240, Note_off_c, 0, 57, 64
2, 45240, Note_on_c, 0, 60, 64
2, 45300, Note_off_c, 0, 60, 64
2, 45300, Note_on_c, 0, 64, 64
2, 45360, Note_off_c, 0, 64, 64
2, 45360, Note_on_c, 0, 64, 64
2, 45379, Note_off_c, 0, 64, 64
2, 45379, Note_on_c, 0, 62, 64
2, 45399, Note_off_c, 0, 62, 64
2, 45399, Note_on_c, 0, 64, 64
2, 45419, Note_off_c, 0, 64, 64
2, 45419, Note_on_c, 0, 62, 64
2, 45439, Note_off_c, 0, 62, 64
2, 45439, Note_on_c, 0, 64, 64
2, 45459, Note_off_c, 0, 64, 64
2, 45459, Note_on_c, 0, 62, 64
2, 45479, Note_off_c, 0, 62, 64
2, 45480, Note_on_c, 0, 64, 64
2, 45510, Note_off_c, 0, 64, 64
2, 45510, Note_on_c, 0, 62, 64
2, 45540, Note_off_c, 0, 62, 64
2, 45540, Note_on_c, 0, 48, 64
2, 45600, Note_off_c, 0, 48, 64
2, 45600, Note_on_c, 0, 47, 64
2, 45660, Note_off_c, 0, 47, 64
2, 45660, Note_on_c, 0, 55, 64
2, 45720, Note_off_c, 0, 55, 64
2, 45720, Note_on_c, 0, 45, 64
2, 45780, Note_off_c, 0, 45, 64
2, 45780, Note_on_c, 0, 43, 64
2, 45840, Note_off_c, 0, 43, 64
2, 45840, Note_on_c, 0, 38, 64
2, 45900, Note_off_c, 0, 38, 64
2, 45900, Note_on_c, 0, 45, 64
2, 45960, Note_off_c, 0, 45, 64
2, 45960, Note_on_c, 0, 55, 64
2, 46020, Note_off_c, 0, 55, 64
2, 46020, Note_on_c, 0, 54, 64
2, 46080, Note_off_c, 0, 54, 64
2, 46080, Note_on_c, 0, 55, 64
2, 46140, Note_off_c, 0, 55, 64
2, 46140, Note_on_c, 0, 43, 64
2, 46200, Note_off_c, 0, 43, 64
2, 46200, Note_on_c, 0, 47, 64
2, 46260, Note_off_c, 0, 47, 64
2, 46260, Note_on_c, 0, 50, 64
2, 46320, Note_off_c, 0, 50, 64
2, 46320, Note_on_c, 0, 55, 64
2, 46380, Note_off_c, 0, 55, 64
2, 46380, Note_on_c, 0, 59, 64
2, 46440, Note_off_c, 0, 59, 64
2, 46440, Note_on_c, 0, 62, 64
2, 46500, Note_off_c, 0, 62, 64
2, 46500, Note_on_c, 0, 66, 64
2, 46560, Note_off_c, 0, 66, 64
2, 46560, Note_on_c, 0, 67, 64
2, 46620, Note_off_c, 0, 67, 64
2, 46620, Note_on_c, 0, 62, 64
2, 46680, Note_off_c, 0, 62, 64
2, 46680, Note_on_c, 0, 59, 64
2, 46740, Note_off_c, 0, 59, 64
2, 46740, Note_on_c, 0, 55, 64
2, 46800, Note_off_c, 0, 55, 64
2, 46800, Note_on_c, 0, 43, 64
2, 46960, Note_off_c, 0, 43, 64
2, 46980, Note_on_c, 0, 57, 64
2, 47020, Note_off_c, 0, 57, 64
2, 47040, Note_on_c, 0, 50, 64
2, 47060, Note_on_c, 0, 57, 64
2, 47330, Note_off_c, 0, 57, 64
2, 47330, Note_off_c, 0, 50, 64
2, 47340, Note_on_c, 0, 54, 64
2, 47400, Note_off_c, 0, 54, 64
2, 47400, Note_on_c, 0, 55, 64
2, 47460, Note_off_c, 0, 55, 64
2, 47460, Note_on_c, 0, 57, 64
2, 47520, Note_off_c, 0, 57, 64
2, 47520, Note_on_c, 0, 50, 64
2, 47580, Note_off_c, 0, 50, 64
2, 47580, Note_on_c, 0, 52, 64
2, 47640, Note_off_c, 0, 52, 64
2, 47640, Note_on_c, 0, 54, 64
2, 47700, Note_off_c, 0, 54, 64
2, 47700, Note_on_c, 0, 55, 64
2, 47760, Note_off_c, 0, 55, 64
2, 47760, Note_on_c, 0, 57, 64
2, 47820, Note_off_c, 0, 57, 64
2, 47820, Note_on_c, 0, 54, 64
2, 47880, Note_off_c, 0, 54, 64
2, 47880, Note_on_c, 0, 50, 64
2, 47940, Note_off_c, 0, 50, 64
2, 47940, Note_on_c, 0, 48, 64
2, 48000, Note_off_c, 0, 48, 64
2, 48000, Note_on_c, 0, 47, 64
2, 48060, Note_off_c, 0, 47, 64
2, 48060, Note_on_c, 0, 50, 64
2, 48120, Note_off_c, 0, 50, 64
2, 48120, Note_on_c, 0, 55, 64
2, 48180, Note_off_c, 0, 55, 64
2, 48180, Note_on_c, 0, 54, 64
2, 48240, Note_off_c, 0, 54, 64
2, 48240, Note_on_c, 0, 55, 64
2, 48300, Note_off_c, 0, 55, 64
2, 48300, Note_on_c, 0, 57, 64
2, 48360, Note_off_c, 0, 57, 64
2, 48360, Note_on_c, 0, 59, 64
2, 48420, Note_off_c, 0, 59, 64
2, 48420, Note_on_c, 0, 60, 64
2, 48480, Note_off_c, 0, 60, 64
2, 48480, Note_on_c, 0, 62, 64
2, 48540, Note_off_c, 0, 62, 64
2, 48540, Note_on_c, 0, 59, 64
2, 48600, Note_off_c, 0, 59, 64
2, 48600, Note_on_c, 0, 57, 64
2, 48660, Note_off_c, 0, 57, 64
2, 48660, Note_on_c, 0, 55, 64
2, 48720, Note_off_c, 0, 55, 64
2, 48720, Note_on_c, 0, 53, 64
2, 48780, Note_off_c, 0, 53, 64
2, 48780, Note_on_c, 0, 52, 64
2, 48840, Note_off_c, 0, 52, 64
2, 48840, Note_on_c, 0, 53, 64
2, 48900, Note_off_c, 0, 53, 64
2, 48900, Note_on_c, 0, 62, 64
2, 48960, Note_off_c, 0, 62, 64
2, 48960, Note_on_c, 0, 53, 64
2, 48979, Note_off_c, 0, 53, 64
2, 48979, Note_on_c, 0, 52, 64
2, 48999, Note_off_c, 0, 52, 64
2, 48999, Note_on_c, 0, 53, 64
2, 49019, Note_off_c, 0, 53, 64
2, 49019, Note_on_c, 0, 52, 64
2, 49039, Note_off_c, 0, 52, 64
2, 49039, Note_on_c, 0, 53, 64
2, 49059, Note_off_c, 0, 53, 64
2, 49059, Note_on_c, 0, 52, 64
2, 49079, Note_off_c, 0, 52, 64
2, 49080, Note_on_c, 0, 50, 64
2, 49140, Note_off_c, 0, 50, 64
2, 49140, Note_on_c, 0, 48, 64
2, 49200, Note_off_c, 0, 48, 64
2, 49200, Note_on_c, 0, 60, 64
2, 49260, Note_off_c, 0, 60, 64
2, 49260, Note_on_c, 0, 45, 64
2, 49320, Note_off_c, 0, 45, 64
2, 49320, Note_on_c, 0, 47, 64
2, 49380, Note_off_c, 0, 47, 64
2, 49380, Note_on_c, 0, 48, 64
2, 49440, Note_off_c, 0, 48, 64
2, 49440, Note_on_c, 0, 38, 64
2, 49500, Note_off_c, 0, 38, 64
2, 49500, Note_on_c, 0, 60, 64
2, 49560, Note_off_c, 0, 60, 64
2, 49560, Note_on_c, 0, 59, 64
2, 49620, Note_off_c, 0, 59, 64
2, 49620, Note_on_c, 0, 60, 64
2, 49680, Note_off_c, 0, 60, 64
2, 49680, Note_on_c, 0, 62, 64
2, 49740, Note_off_c, 0, 62, 64
2, 49740, Note_on_c, 0, 59, 64
2, 49800, Note_off_c, 0, 59, 64
2, 49800, Note_on_c, 0, 60, 64
2, 49860, Note_off_c, 0, 60, 64
2, 49860, Note_on_c, 0, 57, 64
2, 49920, Note_off_c, 0, 57, 64
2, 49920, Note_on_c, 0, 57, 64
2, 49939, Note_off_c, 0, 57, 64
2, 49939, Note_on_c, 0, 56, 64
2, 49959, Note_off_c, 0, 56, 64
2, 49959, Note_on_c, 0, 57, 64
2, 49979, Note_off_c, 0, 57, 64
2, 49979, Note_on_c, 0, 56, 64
2, 49999, Note_off_c, 0, 56, 64
2, 49999, Note_on_c, 0, 57, 64
2, 50019, Note_off_c, 0, 57, 64
2, 50019, Note_on_c, 0, 56, 64
2, 50039, Note_off_c, 0, 56, 64
2, 50040, Note_on_c, 0, 54, 64
2, 50100, Note_off_c, 0, 54, 64
2, 50100, Note_on_c, 0, 52, 64
2, 50160, Note_off_c, 0, 52, 64
2, 50160, Note_on_c, 0, 59, 64
2, 50220, Note_off_c, 0, 59, 64
2, 50220, Note_on_c, 0, 50, 64
2, 50280, Note_off_c, 0, 50, 64
2, 50280, Note_on_c, 0, 48, 64
2, 50340, Note_off_c, 0, 48, 64
2, 50340, Note_on_c, 0, 47, 64
2, 50400, Note_off_c, 0, 47, 64
2, 50400, Note_on_c, 0, 48, 64
2, 50460, Note_off_c, 0, 48, 64
2, 50460, Note_on_c, 0, 52, 64
2, 50520, Note_off_c, 0, 52, 64
2, 50520, Note_on_c, 0, 54, 64
2, 50580, Note_off_c, 0, 54, 64
2, 50580, Note_on_c, 0, 56, 64
2, 50640, Note_off_c, 0, 56, 64
2, 50640, Note_on_c, 0, 57, 64
2, 50700, Note_off_c, 0, 57, 64
2, 50700, Note_on_c, 0, 60, 64
2, 50760, Note_off_c, 0, 60, 64
2, 50760, Note_on_c, 0, 59, 64
2, 50820, Note_off_c, 0, 59, 64
2, 50820, Note_on_c, 0, 57, 64
2, 50880, Note_off_c, 0, 57, 64
2, 50880, Note_on_c, 0, 62, 64
2, 51000, Note_off_c, 0, 62, 64
2, 51000, Note_on_c, 0, 47, 64
2, 51060, Note_off_c, 0, 47, 64
2, 51060, Note_on_c, 0, 48, 64
2, 51120, Note_off_c, 0, 48, 64
2, 51120, Note_on_c, 0, 50, 64
2, 51180, Note_off_c, 0, 50, 64
2, 51180, Note_on_c, 0, 52, 64
2, 51240, Note_off_c, 0, 52, 64
2, 51240, Note_on_c, 0, 53, 64
2, 51300, Note_off_c, 0, 53, 64
2, 51300, Note_on_c, 0, 45, 64
2, 51360, Note_off_c, 0, 45, 64
2, 51360, Note_on_c, 0, 45, 64
2, 51379, Note_off_c, 0, 45, 64
2, 51379, Note_on_c, 0, 44, 64
2, 51399, Note_off_c, 0, 44, 64
2, 51399, Note_on_c, 0, 45, 64
2, 51419, Note_off_c, 0, 45, 64
2, 51419, Note_on_c, 0, 44, 64
2, 51439, Note_off_c, 0, 44, 64
2, 51439, Note_on_c, 0, 45, 64
2, 51459, Note_off_c, 0, 45, 64
2, 51459, Note_on_c, 0, 44, 64
2, 51479, Note_off_c, 0, 44, 64
2, 51480, Note_on_c, 0, 45, 64
2, 51510, Note_off_c, 0, 45, 64
2, 51510, Note_on_c, 0, 44, 64
2, 51540, Note_off_c, 0, 44, 64
2, 51540, Note_on_c, 0, 52, 64
2, 51600, Note_off_c, 0, 52, 64
2, 51600, Note_on_c, 0, 59, 64
2, 51660, Note_off_c, 0, 59, 64
2, 51660, Note_on_c, 0, 62, 64
2, 51720, Note_off_c, 0, 62, 64
2, 51720, Note_on_c, 0, 60, 64
2, 51780, Note_off_c, 0, 60, 64
2, 51780, Note_on_c, 0, 59, 64
2, 51840, Note_off_c, 0, 59, 64
2, 51840, Note_on_c, 0, 45, 64
2, 51870, Note_on_c, 0, 52, 64
2, 51890, Note_on_c, 0, 60, 64
2, 52020, Note_off_c, 0, 60, 64
2, 52020, Note_off_c, 0, 52, 64
2, 52020, Note_off_c, 0, 45, 64
2, 52020, Note_on_c, 0, 59, 64
2, 52080, Note_off_c, 0, 59, 64
2, 52080, Note_on_c, 0, 57, 64
2, 52140, Note_off_c, 0, 57, 64
2, 52140, Note_on_c, 0, 55, 64
2, 52200, Note_off_c, 0, 55, 64
2, 52200, Note_on_c, 0, 53, 64
2, 52260, Note_off_c, 0, 53, 64
2, 52260, Note_on_c, 0, 52, 64
2, 52320, Note_off_c, 0, 52, 64
2, 52320, Note_on_c, 0, 53, 64
2, 52380, Note_off_c, 0, 53, 64
2, 52380, Note_on_c, 0, 50, 64
2, 52440, Note_off_c, 0, 50, 64
2, 52440, Note_on_c, 0, 58, 64
2, 52500, Note_off_c, 0, 58, 64
2, 52500, Note_on_c, 0, 57, 64
2, 52560, Note_off_c, 0, 57, 64
2, 52560, Note_on_c, 0, 58, 64
2, 52620, Note_off_c, 0, 58, 64
2, 52620, Note_on_c, 0, 60, 64
2, 52680, Note_off_c, 0, 60, 64
2, 52680, Note_on_c, 0, 62, 64
2, 52740, Note_off_c, 0, 62, 64
2, 52740, Note_on_c, 0, 57, 64
2, 52800, Note_off_c, 0, 57, 64
2, 52800, Note_on_c, 0, 56, 64
2, 52860, Note_off_c, 0, 56, 64
2, 52860, Note_on_c, 0, 57, 64
2, 52920, Note_off_c, 0, 57, 64
2, 52920, Note_on_c, 0, 59, 64
2, 52980, Note_off_c, 0, 59, 64
2, 52980, Note_on_c, 0, 52, 64
2, 53040, Note_off_c, 0, 52, 64
2, 53040, Note_on_c, 0, 53, 64
2, 53100, Note_off_c, 0, 53, 64
2, 53100, Note_on_c, 0, 50, 64
2, 53160, Note_off_c, 0, 50, 64
2, 53160, Note_on_c, 0, 48, 64
2, 53220, Note_off_c, 0, 48, 64
2, 53220, Note_on_c, 0, 47, 64
2, 53280, Note_off_c, 0, 47, 64
2, 53280, Note_on_c, 0, 48, 64
2, 53340, Note_off_c, 0, 48, 64
2, 53340, Note_on_c, 0, 52, 64
2, 53400, Note_off_c, 0, 52, 64
2, 53400, Note_on_c, 0, 57, 64
2, 53460, Note_off_c, 0, 57, 64
2, 53460, Note_on_c, 0, 59, 64
2, 53520, Note_off_c, 0, 59, 64
2, 53520, Note_on_c, 0, 52, 64
2, 53520, Note_on_c, 0, 60, 64
2, 53539, Note_off_c, 0, 60, 64
2, 53539, Note_on_c, 0, 59, 64
2, 53559, Note_off_c, 0, 59, 64
2, 53559, Note_on_c, 0, 60, 64
2, 53579, Note_off_c, 0, 60, 64
2, 53579, Note_on_c, 0, 59, 64
2, 53599, Note_off_c, 0, 59, 64
2, 53599, Note_on_c, 0, 60, 64
2, 53619, Note_off_c, 0, 60, 64
2, 53619, Note_on_c, 0, 59, 64
2, 53639, Note_off_c, 0, 59, 64
2, 53640, Note_on_c, 0, 60, 64
2, 53670, Note_off_c, 0, 60, 64
2, 53670, Note_on_c, 0, 59, 64
2, 53700, Note_off_c, 0, 59, 64
2, 53700, Note_off_c, 0, 52, 64
2, 53700, Note_on_c, 0, 57, 64
2, 53745, Note_off_c, 0, 57, 64
2, 53760, Note_on_c, 0, 45, 64
2, 53785, Note_on_c, 0, 52, 64
2, 53810, Note_on_c, 0, 57, 64
2, 53940, Note_off_c, 0, 57, 64
2, 53940, Note_off_c, 0, 52, 64
2, 53940, Note_off_c, 0, 45, 64
2, 53940, Note_on_c, 0, 59, 64
2, 54000, Note_off_c, 0, 59, 64
2, 54000, Note_on_c, 0, 60, 64
2, 54060, Note_off_c, 0, 60, 64
2, 54060, Note_on_c, 0, 59, 64
2, 54120, Note_off_c, 0, 59, 64
2, 54120, Note_on_c, 0, 60, 64
2, 54180, Note_off_c, 0, 60, 64
2, 54180, Note_on_c, 0, 55, 64
2, 54240, Note_off_c, 0, 55, 64
2, 54240, Note_on_c, 0, 54, 64
2, 54300, Note_off_c, 0, 54, 64
2, 54300, Note_on_c, 0, 55, 64
2, 54360, Note_off_c, 0, 55, 64
2, 54360, Note_on_c, 0, 57, 64
2, 54420, Note_off_c, 0, 57, 64
2, 54420, Note_on_c, 0, 52, 64
2, 54480, Note_off_c, 0, 52, 64
2, 54480, Note_on_c, 0, 50, 64
2, 54540, Note_off_c, 0, 50, 64
2, 54540, Note_on_c, 0, 48, 64
2, 54600, Note_off_c, 0, 48, 64
2, 54600, Note_on_c, 0, 47, 64
2, 54660, Note_off_c, 0, 47, 64
2, 54660, Note_on_c, 0, 45, 64
2, 54720, Note_off_c, 0, 45, 64
2, 54720, Note_on_c, 0, 43, 64
2, 54780, Note_off_c, 0, 43, 64
2, 54780, Note_on_c, 0, 50, 64
2, 54840, Note_off_c, 0, 50, 64
2, 54840, Note_on_c, 0, 54, 64
2, 54900, Note_off_c, 0, 54, 64
2, 54900, Note_on_c, 0, 60, 64
2, 54960, Note_off_c, 0, 60, 64
2, 54960, Note_on_c, 0, 59, 64
2, 55020, Note_off_c, 0, 59, 64
2, 55020, Note_on_c, 0, 57, 64
2, 55080, Note_off_c, 0, 57, 64
2, 55080, Note_on_c, 0, 55, 64
2, 55140, Note_off_c, 0, 55, 64
2, 55140, Note_on_c, 0, 57, 64
2, 55200, Note_off_c, 0, 57, 64
2, 55200, Note_on_c, 0, 59, 64
2, 55260, Note_off_c, 0, 59, 64
2, 55260, Note_on_c, 0, 60, 64
2, 55320, Note_off_c, 0, 60, 64
2, 55320, Note_on_c, 0, 62, 64
2, 55380, Note_off_c, 0, 62, 64
2, 55380, Note_on_c, 0, 64, 64
2, 55440, Note_off_c, 0, 64, 64
2, 55440, Note_on_c, 0, 62, 64
2, 55500, Note_off_c, 0, 62, 64
2, 55500, Note_on_c, 0, 64, 64
2, 55560, Note_off_c, 0, 64, 64
2, 55560, Note_on_c, 0, 65, 64
2, 55620, Note_off_c, 0, 65, 64
2, 55620, Note_on_c, 0, 62, 64
2, 55680, Note_off_c, 0, 62, 64
2, 55680, Note_on_c, 0, 64, 64
2, 55800, Note_off_c, 0, 64, 64
2, 55800, Note_on_c, 0, 57, 64
2, 55819, Note_off_c, 0, 57, 64
2, 55819, Note_on_c, 0, 55, 64
2, 55839, Note_off_c, 0, 55, 64
2, 55839, Note_on_c, 0, 57, 64
2, 55859, Note_off_c, 0, 57, 64
2, 55859, Note_on_c, 0, 55, 64
2, 55879, Note_off_c, 0, 55, 64
2, 55879, Note_on_c, 0, 57, 64
2, 55899, Note_off_c, 0, 57, 64
2, 55899, Note_on_c, 0, 55, 64
2, 55919, Note_off_c, 0, 55, 64
2, 55920, Note_on_c, 0, 48, 64
2, 55980, Note_off_c, 0, 48, 64
2, 55980, Note_on_c, 0, 62, 64
2, 56040, Note_off_c, 0, 62, 64
2, 56040, Note_on_c, 0, 60, 64
2, 56100, Note_off_c, 0, 60, 64
2, 56100, Note_on_c, 0, 59, 64
2, 56160, Note_off_c, 0, 59, 64
2, 56160, Note_on_c, 0, 57, 64
2, 56220, Note_off_c, 0, 57, 64
2, 56220, Note_on_c, 0, 59, 64
2, 56280, Note_off_c, 0, 59, 64
2, 56280, Note_on_c, 0, 60, 64
2, 56340, Note_off_c, 0, 60, 64
2, 56340, Note_on_c, 0, 64, 64
2, 56400, Note_off_c, 0, 64, 64
2, 56400, Note_on_c, 0, 64, 64
2, 56419, Note_off_c, 0, 64, 64
2, 56419, Note_on_c, 0, 62, 64
2, 56439, Note_off_c, 0, 62, 64
2, 56439, Note_on_c, 0, 64, 64
2, 56459, Note_off_c, 0, 64, 64
2, 56459, Note_on_c, 0, 62, 64
2, 56479, Note_off_c, 0, 62, 64
2, 56479, Note_on_c, 0, 64, 64
2, 56499, Note_off_c, 0, 64, 64
2, 56499, Note_on_c, 0, 62, 64
2, 56519, Note_off_c, 0, 62, 64
2, 56520, Note_on_c, 0, 64, 64
2, 56550, Note_off_c, 0, 64, 64
2, 56550, Note_on_c, 0, 62, 64
2, 56580, Note_off_c, 0, 62, 64
2, 56580, Note_on_c, 0, 60, 64
2, 56640, Note_off_c, 0, 60, 64
2, 56640, Note_on_c, 0, 62, 64
2, 56760, Note_off_c, 0, 62, 64
2, 56760, Note_on_c, 0, 59, 64
2, 56779, Note_off_c, 0, 59, 64
2, 56779, Note_on_c, 0, 57, 64
2, 56799, Note_off_c, 0, 57, 64
2, 56799, Note_on_c, 0, 59, 64
2, 56819, Note_off_c, 0, 59, 64
2, 56819, Note_on_c, 0, 57, 64
2, 56839, Note_off_c, 0, 57, 64
2, 56839, Note_on_c, 0, 59, 64
2, 56859, Note_off_c, 0, 59, 64
2, 56859, Note_on_c, 0, 57, 64
2, 56879, Note_off_c, 0, 57, 64
2, 56880, Note_on_c, 0, 47, 64
2, 56940, Note_off_c, 0, 47, 64
2, 56940, Note_on_c, 0, 60, 64
2, 57000, Note_off_c, 0, 60, 64
2, 57000, Note_on_c, 0, 59, 64
2, 57060, Note_off_c, 0, 59, 64
2, 57060, Note_on_c, 0, 57, 64
2, 57120, Note_off_c, 0, 57, 64
2, 57120, Note_on_c, 0, 55, 64
2, 57180, Note_off_c, 0, 55, 64
2, 57180, Note_on_c, 0, 54, 64
2, 57240, Note_off_c, 0, 54, 64
2, 57240, Note_on_c, 0, 52, 64
2, 57300, Note_off_c, 0, 52, 64
2, 57300, Note_on_c, 0, 55, 64
2, 57360, Note_off_c, 0, 55, 64
2, 57360, Note_on_c, 0, 59, 64
2, 57420, Note_off_c, 0, 59, 64
2, 57420, Note_on_c, 0, 62, 64
2, 57480, Note_off_c, 0, 62, 64
2, 57480, Note_on_c, 0, 60, 64
2, 57540, Note_off_c, 0, 60, 64
2, 57540, Note_on_c, 0, 59, 64
2, 57600, Note_off_c, 0, 59, 64
2, 57600, Note_on_c, 0, 60, 64
2, 57720, Note_off_c, 0, 60, 64
2, 57720, Note_on_c, 0, 57, 64
2, 57739, Note_off_c, 0, 57, 64
2, 57739, Note_on_c, 0, 55, 64
2, 57759, Note_off_c, 0, 55, 64
2, 57759, Note_on_c, 0, 57, 64
2, 57779, Note_off_c, 0, 57, 64
2, 57779, Note_on_c, 0, 55, 64
2, 57799, Note_off_c, 0, 55, 64
2, 57799, Note_on_c, 0, 57, 64
2, 57819, Note_off_c, 0, 57, 64
2, 57819, Note_on_c, 0, 55, 64
2, 57839, Note_off_c, 0, 55, 64
2, 57840, Note_on_c, 0, 45, 64
2, 57900, Note_off_c, 0, 45, 64
2, 57900, Note_on_c, 0, 52, 64
2, 57960, Note_off_c, 0, 52, 64
2, 57960, Note_on_c, 0, 54, 64
2, 58020, Note_off_c, 0, 54, 64
2, 58020, Note_on_c, 0, 55, 64
2, 58080, Note_off_c, 0, 55, 64
2, 58080, Note_on_c, 0, 54, 64
2, 58140, Note_off_c, 0, 54, 64
2, 58140, Note_on_c, 0, 57, 64
2, 58200, Note_off_c, 0, 57, 64
2, 58200, Note_on_c, 0, 59, 64
2, 58260, Note_off_c, 0, 59, 64
2, 58260, Note_on_c, 0, 60, 64
2, 58320, Note_off_c, 0, 60, 64
2, 58320, Note_on_c, 0, 50, 64
2, 58380, Note_off_c, 0, 50, 64
2, 58380, Note_on_c, 0, 48, 64
2, 58440, Note_off_c, 0, 48, 64
2, 58440, Note_on_c, 0, 47, 64
2, 58500, Note_off_c, 0, 47, 64
2, 58500, Note_on_c, 0, 45, 64
2, 58560, Note_off_c, 0, 45, 64
2, 58560, Note_on_c, 0, 43, 64
2, 58620, Note_off_c, 0, 43, 64
2, 58620, Note_on_c, 0, 50, 64
2, 58680, Note_off_c, 0, 50, 64
2, 58680, Note_on_c, 0, 54, 64
2, 58740, Note_off_c, 0, 54, 64
2, 58740, Note_on_c, 0, 57, 64
2, 58800, Note_off_c, 0, 57, 64
2, 58800, Note_on_c, 0, 60, 64
2, 58860, Note_off_c, 0, 60, 64
2, 58860, Note_on_c, 0, 57, 64
2, 58920, Note_off_c, 0, 57, 64
2, 58920, Note_on_c, 0, 54, 64
2, 58980, Note_off_c, 0, 54, 64
2, 58980, Note_on_c, 0, 50, 64
2, 59025, Note_off_c, 0, 50, 64
2, 59040, Note_on_c, 0, 43, 64
2, 59070, Note_on_c, 0, 50, 64
2, 59085, Note_on_c, 0, 59, 64
2, 59210, Note_off_c, 0, 59, 64
2, 59210, Note_off_c, 0, 50, 64
2, 59220, Note_off_c, 0, 43, 64
2, 59220, Note_on_c, 0, 50, 64
2, 59280, Note_off_c, 0, 50, 64
2, 59280, Note_on_c, 0, 52, 64
2, 59340, Note_off_c, 0, 52, 64
2, 59340, Note_on_c, 0, 55, 64
2, 59400, Note_off_c, 0, 55, 64
2, 59400, Note_on_c, 0, 57, 64
2, 59460, Note_off_c, 0, 57, 64
2, 59460, Note_on_c, 0, 61, 64
2, 59520, Note_off_c, 0, 61, 64
2, 59520, Note_on_c, 0, 62, 64
2, 59580, Note_off_c, 0, 62, 64
2, 59580, Note_on_c, 0, 57, 64
2, 59640, Note_off_c, 0, 57, 64
2, 59640, Note_on_c, 0, 54, 64
2, 59700, Note_off_c, 0, 54, 64
2, 59700, Note_on_c, 0, 52, 64
2, 59760, Note_off_c, 0, 52, 64
2, 59760, Note_on_c, 0, 50, 64
2, 59820, Note_off_c, 0, 50, 64
2, 59820, Note_on_c, 0, 53, 64
2, 59880, Note_off_c, 0, 53, 64
2, 59880, Note_on_c, 0, 55, 64
2, 59940, Note_off_c, 0, 55, 64
2, 59940, Note_on_c, 0, 59, 64
2, 60000, Note_off_c, 0, 59, 64
2, 60000, Note_on_c, 0, 60, 64
2, 60060, Note_off_c, 0, 60, 64
2, 60060, Note_on_c, 0, 55, 64
2, 60120, Note_off_c, 0, 55, 64
2, 60120, Note_on_c, 0, 52, 64
2, 60180, Note_off_c, 0, 52, 64
2, 60180, Note_on_c, 0, 50, 64
2, 60240, Note_off_c, 0, 50, 64
2, 60240, Note_on_c, 0, 48, 64
2, 60300, Note_off_c, 0, 48, 64
2, 60300, Note_on_c, 0, 52, 64
2, 60360, Note_off_c, 0, 52, 64
2, 60360, Note_on_c, 0, 57, 64
2, 60420, Note_off_c, 0, 57, 64
2, 60420, Note_on_c, 0, 60, 64
2, 60480, Note_off_c, 0, 60, 64
2, 60480, Note_on_c, 0, 54, 64
2, 60540, Note_off_c, 0, 54, 64
2, 60540, Note_on_c, 0, 57, 64
2, 60600, Note_off_c, 0, 57, 64
2, 60600, Note_on_c, 0, 60, 64
2, 60660, Note_off_c, 0, 60, 64
2, 60660, Note_on_c, 0, 64, 64
2, 60720, Note_off_c, 0, 64, 64
2, 60720, Note_on_c, 0, 64, 64
2, 60739, Note_off_c, 0, 64, 64
2, 60739, Note_on_c, 0, 62, 64
2, 60759, Note_off_c, 0, 62, 64
2, 60759, Note_on_c, 0, 64, 64
2, 60779, Note_off_c, 0, 64, 64
2, 60779, Note_on_c, 0, 62, 64
2, 60799, Note_off_c, 0, 62, 64
2, 60799, Note_on_c, 0, 64, 64
2, 60819, Note_off_c, 0, 64, 64
2, 60819, Note_on_c, 0, 62, 64
2, 60839, Note_off_c, 0, 62, 64
2, 60840, Note_on_c, 0, 64, 64
2, 60870, Note_off_c, 0, 64, 64
2, 60870, Note_on_c, 0, 62, 64
2, 60900, Note_off_c, 0, 62, 64
2, 60900, Note_on_c, 0, 48, 64
2, 60960, Note_off_c, 0, 48, 64
2, 60960, Note_on_c, 0, 47, 64
2, 61020, Note_off_c, 0, 47, 64
2, 61020, Note_on_c, 0, 55, 64
2, 61080, Note_off_c, 0, 55, 64
2, 61080, Note_on_c, 0, 45, 64
2, 61140, Note_off_c, 0, 45, 64
2, 61140, Note_on_c, 0, 43, 64
2, 61200, Note_off_c, 0, 43, 64
2, 61200, Note_on_c, 0, 38, 64
2, 61260, Note_off_c, 0, 38, 64
2, 61260, Note_on_c, 0, 45, 64
2, 61320, Note_off_c, 0, 45, 64
2, 61320, Note_on_c, 0, 55, 64
2, 61380, Note_off_c, 0, 55, 64
2, 61380, Note_on_c, 0, 54, 64
2, 61440, Note_off_c, 0, 54, 64
2, 61440, Note_on_c, 0, 55, 64
2, 61500, Note_off_c, 0, 55, 64
2, 61500, Note_on_c, 0, 43, 64
2, 61560, Note_off_c, 0, 43, 64
2, 61560, Note_on_c, 0, 47, 64
2, 61620, Note_off_c, 0, 47, 64
2, 61620, Note_on_c, 0, 50, 64
2, 61680, Note_off_c, 0, 50, 64
2, 61680, Note_on_c, 0, 55, 64
2, 61740, Note_off_c, 0, 55, 64
2, 61740, Note_on_c, 0, 59, 64
2, 61800, Note_off_c, 0, 59, 64
2, 61800, Note_on_c, 0, 62, 64
2, 61860, Note_off_c, 0, 62, 64
2, 61860, Note_on_c, 0, 66, 64
2, 61920, Note_off_c, 0, 66, 64
2, 61920, Note_on_c, 0, 67, 64
2, 61980, Note_off_c, 0, 67, 64
2, 61980, Note_on_c, 0, 62, 64
2, 62040, Note_off_c, 0, 62, 64
2, 62040, Note_on_c, 0, 59, 64
2, 62100, Note_off_c, 0, 59, 64
2, 62100, Note_on_c, 0, 55, 64
2, 62160, Note_off_c, 0, 55, 64
2, 62160, Note_on_c, 0, 43, 64
2, 62320, Note_off_c, 0, 43, 64
2, 62399, End_track
0, 0, End_of_file
