0, 0, Header, 1, 2, 240
1, 0, Start_track
1, 0, Time_signature, 6, 3, 36, 8
1, 0, Tempo, 384615
1, 0, SMPTE_offset, 64, 0, 0, 0, 0
1, 48240, Time_signature, 6, 3, 12, 8
1, 48240, Tempo, 392157
1, 48600, Tempo, 408163
1, 48840, Tempo, 425532
1, 48960, Tempo, 437956
1, 49080, Tempo, 472441
1, 49200, Tempo, 540541
1, 49320, Tempo, 697674
1, 49680, Time_signature, 6, 3, 36, 8
1, 49680, Tempo, 384615
1, 49680, End_track
2, 0, Start_track
2, 0, Title_t, "Cello"
2, 600, Note_on_c, 0, 50, 64
2, 647, Note_off_c, 0, 50, 64
2, 720, Note_on_c, 0, 55, 64
2, 840, Note_off_c, 0, 55, 64
2, 840, Note_on_c, 0, 50, 64
2, 960, Note_off_c, 0, 50, 64
2, 960, Note_on_c, 0, 52, 64
2, 1007, Note_off_c, 0, 52, 64
2, 1080, Note_on_c, 0, 52, 64
2, 1200, Note_off_c, 0, 52, 64
2, 1200, Note_on_c, 0, 48, 64
2, 1320, Note_off_c, 0, 48, 64
2, 1320, Note_on_c, 0, 50, 64
2, 1367, Note_off_c, 0, 50, 64
2, 1440, Note_on_c, 0, 50, 64
2, 1560, Note_off_c, 0, 50, 64
2, 1560, Note_on_c, 0, 55, 64
2, 1680, Note_off_c, 0, 55, 64
2, 1680, Note_on_c, 0, 50, 64
2, 1727, Note_off_c, 0, 50, 64
2, 1800, Note_on_c, 0, 47, 64
2, 1847, Note_off_c, 0, 47, 64
2, 1920, Note_on_c, 0, 43, 64
2, 1967, Note_off_c, 0, 43, 64
2, 2040, Note_on_c, 0, 50, 64
2, 2087, Note_off_c, 0, 50, 64
2, 2160, Note_on_c, 0, 55, 64
2, 2220, Note_off_c, 0, 55, 64
2, 2220, Note_on_c, 0, 57, 64
2, 2280, Note_off_c, 0, 57, 64
2, 2280, Note_on_c, 0, 59, 64
2, 2400, Note_off_c, 0, 59, 64
2, 2400, Note_on_c, 0, 57, 64
2, 2447, Note_off_c, 0, 57, 64
2, 2520, Note_on_c, 0, 57, 64
2, 2580, Note_off_c, 0, 57, 64
2, 2580, Note_on_c, 0, 59, 64
2, 2640, Note_off_c, 0, 59, 64
2, 2640, Note_on_c, 0, 60, 64
2, 2760, Note_off_c, 0, 60, 64
2, 2760, Note_on_c, 0, 59, 64
2, 2807, Note_off_c, 0, 59, 64
2, 2880, Note_on_c, 0, 43, 64
2, 2880, Note_on_c, 0, 60, 64
2, 2910, Note_off_c, 0, 60, 64
2, 2910, Note_on_c, 0, 50, 64
2, 2910, Note_on_c, 0, 59, 64
2, 2940, Note_off_c, 0, 59, 64
2, 2940, Note_on_c, 0, 60, 64
2, 2970, Note_off_c, 0, 60, 64
2, 2970, Note_on_c, 0, 59, 64
2, 3000, Note_off_c, 0, 59, 64
2, 3000, Note_on_c, 0, 60, 64
2, 3039, Note_off_c, 0, 60, 64
2, 3039, Note_on_c, 0, 59, 64
2, 3079, Note_off_c, 0, 59, 64
2, 3079, Note_on_c, 0, 60, 64
2, 3119, Note_off_c, 0, 60, 64
2, 3119, Note_on_c, 0, 59, 64
2, 3159, Note_off_c, 0, 59, 64
2, 3159, Note_on_c, 0, 60, 64
2, 3199, Note_off_c, 0, 60, 64
2, 3199, Note_on_c, 0, 59, 64
2, 3220, Note_off_c, 0, 50, 64
2, 3220, Note_off_c, 0, 43, 64
2, 3239, Note_off_c, 0, 59, 64
2, 3240, Note_on_c, 0, 50, 64
2, 3260, Note_on_c, 0, 57, 64
2, 3460, Note_off_c, 0, 57, 64
2, 3460, Note_off_c, 0, 50, 64
2, 3480, Note_on_c, 0, 57, 72
2, 3540, Note_off_c, 0, 57, 64
2, 3600, Note_on_c, 0, 59, 64
2, 3647, Note_off_c, 0, 59, 64
2, 3720, Note_on_c, 0, 54, 64
2, 3767, Note_off_c, 0, 54, 64
2, 3840, Note_on_c, 0, 55, 64
2, 4080, Note_off_c, 0, 55, 64
2, 4080, Note_on_c, 0, 52, 64
2, 4127, Note_off_c, 0, 52, 64
2, 4200, Note_on_c, 0, 55, 64
2, 4247, Note_off_c, 0, 55, 64
2, 4320, Note_on_c, 0, 57, 64
2, 4367, Note_off_c, 0, 57, 64
2, 4440, Note_on_c, 0, 52, 64
2, 4487, Note_off_c, 0, 52, 64
2, 4560, Note_on_c, 0, 54, 64
2, 4800, Note_off_c, 0, 54, 64
2, 4800, Note_on_c, 0, 50, 64
2, 4847, Note_off_c, 0, 50, 64
2, 4920, Note_on_c, 0, 54, 64
2, 4967, Note_off_c, 0, 54, 64
2, 5040, Note_on_c, 0, 55, 64
2, 5087, Note_off_c, 0, 55, 64
2, 5160, Note_on_c, 0, 59, 64
2, 5207, Note_off_c, 0, 59, 64
2, 5280, Note_on_c, 0, 55, 64
2, 5327, Note_off_c, 0, 55, 64
2, 5400, Note_on_c, 0, 52, 64
2, 5447, Note_off_c, 0, 52, 64
2, 5520, Note_on_c, 0, 47, 64
2, 5567, Note_off_c, 0, 47, 64
2, 5640, Note_on_c, 0, 50, 64
2, 5687, Note_off_c, 0, 50, 64
2, 5760, Note_on_c, 0, 49, 64
2, 5880, Note_off_c, 0, 49, 64
2, 5880, Note_on_c, 0, 52, 64
2, 6000, Note_off_c, 0, 52, 64
2, 6000, Note_on_c, 0, 57, 64
2, 6047, Note_off_c, 0, 57, 64
2, 6120, Note_on_c, 0, 45, 64
2, 6360, Note_off_c, 0, 45, 64
2, 6360, Note_on_c, 0, 52, 64
2, 6407, Note_off_c, 0, 52, 64
2, 6480, Note_on_c, 0, 53, 64
2, 6600, Note_off_c, 0, 53, 64
2, 6600, Note_on_c, 0, 52, 64
2, 6720, Note_off_c, 0, 52, 64
2, 6720, Note_on_c, 0, 55, 64
2, 6767, Note_off_c, 0, 55, 64
2, 6840, Note_on_c, 0, 55, 64
2, 6960, Note_off_c, 0, 55, 64
2, 6960, Note_on_c, 0, 53, 64
2, 7080, Note_off_c, 0, 53, 64
2, 7080, Note_on_c, 0, 57, 64
2, 7127, Note_off_c, 0, 57, 64
2, 7200, Note_on_c, 0, 57, 64
2, 7320, Note_off_c, 0, 57, 64
2, 7320, Note_on_c, 0, 55, 64
2, 7440, Note_off_c, 0, 55, 64
2, 7440, Note_on_c, 0, 58, 64
2, 7487, Note_off_c, 0, 58, 64
2, 7560, Note_on_c, 0, 58, 64
2, 7680, Note_off_c, 0, 58, 64
2, 7680, Note_on_c, 0, 57, 64
2, 7800, Note_off_c, 0, 57, 64
2, 7800, Note_on_c, 0, 55, 64
2, 7847, Note_off_c, 0, 55, 64
2, 7920, Note_on_c, 0, 53, 64
2, 8040, Note_off_c, 0, 53, 64
2, 8040, Note_on_c, 0, 52, 64
2, 8160, Note_off_c, 0, 52, 64
2, 8160, Note_on_c, 0, 50, 64
2, 8207, Note_off_c, 0, 50, 64
2, 8280, Note_on_c, 0, 45, 64
2, 8400, Note_off_c, 0, 45, 64
2, 8400, Note_on_c, 0, 50, 64
2, 8520, Note_off_c, 0, 50, 64
2, 8520, Note_on_c, 0, 49, 64
2, 8567, Note_off_c, 0, 49, 64
2, 8640, Note_on_c, 0, 50, 64
2, 8687, Note_off_c, 0, 50, 64
2, 8760, Note_on_c, 0, 45, 64
2, 8807, Note_off_c, 0, 45, 64
2, 8880, Note_on_c, 0, 42, 64
2, 8927, Note_off_c, 0, 42, 64
2, 9000, Note_on_c, 0, 38, 64
2, 9240, Note_off_c, 0, 38, 64
2, 9240, Note_on_c, 0, 50, 64
2, 9287, Note_off_c, 0, 50, 64
2, 9360, Note_on_c, 0, 55, 64
2, 9480, Note_off_c, 0, 55, 64
2, 9480, Note_on_c, 0, 50, 64
2, 9600, Note_off_c, 0, 50, 64
2, 9600, Note_on_c, 0, 52, 64
2, 9647, Note_off_c, 0, 52, 64
2, 9720, Note_on_c, 0, 52, 64
2, 9840, Note_off_c, 0, 52, 64
2, 9840, Note_on_c, 0, 48, 64
2, 9960, Note_off_c, 0, 48, 64
2, 9960, Note_on_c, 0, 50, 64
2, 10007, Note_off_c, 0, 50, 64
2, 10080, Note_on_c, 0, 50, 64
2, 10200, Note_off_c, 0, 50, 64
2, 10200, Note_on_c, 0, 55, 64
2, 10320, Note_off_c, 0, 55, 64
2, 10320, Note_on_c, 0, 50, 64
2, 10367, Note_off_c, 0, 50, 64
2, 10440, Note_on_c, 0, 47, 64
2, 10487, Note_off_c, 0, 47, 64
2, 10560, Note_on_c, 0, 43, 64
2, 10607, Note_off_c, 0, 43, 64
2, 10680, Note_on_c, 0, 50, 64
2, 10727, Note_off_c, 0, 50, 64
2, 10800, Note_on_c, 0, 55, 64
2, 10860, Note_off_c, 0, 55, 64
2, 10860, Note_on_c, 0, 57, 64
2, 10920, Note_off_c, 0, 57, 64
2, 10920, Note_on_c, 0, 59, 64
2, 11040, Note_off_c, 0, 59, 64
2, 11040, Note_on_c, 0, 57, 64
2, 11087, Note_off_c, 0, 57, 64
2, 11160, Note_on_c, 0, 57, 64
2, 11220, Note_off_c, 0, 57, 64
2, 11220, Note_on_c, 0, 59, 64
2, 11280, Note_off_c, 0, 59, 64
2, 11280, Note_on_c, 0, 60, 64
2, 11400, Note_off_c, 0, 60, 64
2, 11400, Note_on_c, 0, 59, 64
2, 11447, Note_off_c, 0, 59, 64
2, 11520, Note_on_c, 0, 43, 64
2, 11520, Note_on_c, 0, 60, 64
2, 11550, Note_off_c, 0, 60, 64
2, 11550, Note_on_c, 0, 50, 64
2, 11550, Note_on_c, 0, 59, 64
2, 11580, Note_off_c, 0, 59, 64
2, 11580, Note_on_c, 0, 60, 64
2, 11610, Note_off_c, 0, 60, 64
2, 11610, Note_on_c, 0, 59, 64
2, 11640, Note_off_c, 0, 59, 64
2, 11640, Note_on_c, 0, 60, 64
2, 11679, Note_off_c, 0, 60, 64
2, 11679, Note_on_c, 0, 59, 64
2, 11719, Note_off_c, 0, 59, 64
2, 11719, Note_on_c, 0, 60, 64
2, 11759, Note_off_c, 0, 60, 64
2, 11759, Note_on_c, 0, 59, 64
2, 11799, Note_off_c, 0, 59, 64
2, 11799, Note_on_c, 0, 60, 64
2, 11839, Note_off_c, 0, 60, 64
2, 11839, Note_on_c, 0, 59, 64
2, 11860, Note_off_c, 0, 50, 64
2, 11860, Note_off_c, 0, 43, 64
2, 11879, Note_off_c, 0, 59, 64
2, 11880, Note_on_c, 0, 50, 64
2, 11900, Note_on_c, 0, 57, 64
2, 12100, Note_off_c, 0, 57, 64
2, 12100, Note_off_c, 0, 50, 64
2, 12120, Note_on_c, 0, 57, 72
2, 12180, Note_off_c, 0, 57, 64
2, 12240, Note_on_c, 0, 59, 64
2, 12287, Note_off_c, 0, 59, 64
2, 12360, Note_on_c, 0, 54, 64
2, 12407, Note_off_c, 0, 54, 64
2, 12480, Note_on_c, 0, 55, 64
2, 12720, Note_off_c, 0, 55, 64
2, 12720, Note_on_c, 0, 52, 64
2, 12767, Note_off_c, 0, 52, 64
2, 12840, Note_on_c, 0, 55, 64
2, 12887, Note_off_c, 0, 55, 64
2, 12960, Note_on_c, 0, 57, 64
2, 13007, Note_off_c, 0, 57, 64
2, 13080, Note_on_c, 0, 52, 64
2, 13127, Note_off_c, 0, 52, 64
2, 13200, Note_on_c, 0, 54, 64
2, 13440, Note_off_c, 0, 54, 64
2, 13440, Note_on_c, 0, 50, 64
2, 13487, Note_off_c, 0, 50, 64
2, 13560, Note_on_c, 0, 54, 64
2, 13607, Note_off_c, 0, 54, 64
2, 13680, Note_on_c, 0, 55, 64
2, 13727, Note_off_c, 0, 55, 64
2, 13800, Note_on_c, 0, 59, 64
2, 13847, Note_off_c, 0, 59, 64
2, 13920, Note_on_c, 0, 55, 64
2, 13967, Note_off_c, 0, 55, 64
2, 14040, Note_on_c, 0, 52, 64
2, 14087, Note_off_c, 0, 52, 64
2, 14160, Note_on_c, 0, 47, 64
2, 14207, Note_off_c, 0, 47, 64
2, 14280, Note_on_c, 0, 50, 64
2, 14327, Note_off_c, 0, 50, 64
2, 14400, Note_on_c, 0, 49, 64
2, 14520, Note_off_c, 0, 49, 64
2, 14520, Note_on_c, 0, 52, 64
2, 14640, Note_off_c, 0, 52, 64
2, 14640, Note_on_c, 0, 57, 64
2, 14687, Note_off_c, 0, 57, 64
2, 14760, Note_on_c, 0, 45, 64
2, 15000, Note_off_c, 0, 45, 64
2, 15000, Note_on_c, 0, 52, 64
2, 15047, Note_off_c, 0, 52, 64
2, 15120, Note_on_c, 0, 53, 64
2, 15240, Note_off_c, 0, 53, 64
2, 15240, Note_on_c, 0, 52, 64
2, 15360, Note_off_c, 0, 52, 64
2, 15360, Note_on_c, 0, 55, 64
2, 15407, Note_off_c, 0, 55, 64
2, 15480, Note_on_c, 0, 55, 64
2, 15600, Note_off_c, 0, 55, 64
2, 15600, Note_on_c, 0, 53, 64
2, 15720, Note_off_c, 0, 53, 64
2, 15720, Note_on_c, 0, 57, 64
2, 15767, Note_off_c, 0, 57, 64
2, 15840, Note_on_c, 0, 57, 64
2, 15960, Note_off_c, 0, 57, 64
2, 15960, Note_on_c, 0, 55, 64
2, 16080, Note_off_c, 0, 55, 64
2, 16080, Note_on_c, 0, 58, 64
2, 16127, Note_off_c, 0, 58, 64
2, 16200, Note_on_c, 0, 58, 64
2, 16320, Note_off_c, 0, 58, 64
2, 16320, Note_on_c, 0, 57, 64
2, 16440, Note_off_c, 0, 57, 64
2, 16440, Note_on_c, 0, 55, 64
2, 16487, Note_off_c, 0, 55, 64
2, 16560, Note_on_c, 0, 53, 64
2, 16680, Note_off_c, 0, 53, 64
2, 16680, Note_on_c, 0, 52, 64
2, 16800, Note_off_c, 0, 52, 64
2, 16800, Note_on_c, 0, 50, 64
2, 16847, Note_off_c, 0, 50, 64
2, 16920, Note_on_c, 0, 45, 64
2, 17040, Note_off_c, 0, 45, 64
2, 17040, Note_on_c, 0, 50, 64
2, 17160, Note_off_c, 0, 50, 64
2, 17160, Note_on_c, 0, 49, 64
2, 17207, Note_off_c, 0, 49, 64
2, 17280, Note_on_c, 0, 50, 64
2, 17327, Note_off_c, 0, 50, 64
2, 17400, Note_on_c, 0, 45, 64
2, 17447, Note_off_c, 0, 45, 64
2, 17520, Note_on_c, 0, 42, 64
2, 17567, Note_off_c, 0, 42, 64
2, 17640, Note_on_c, 0, 38, 64
2, 17880, Note_off_c, 0, 38, 64
2, 17880, Note_on_c, 0, 57, 64
2, 18000, Note_off_c, 0, 57, 64
2, 18000, Note_on_c, 0, 57, 64
2, 18120, Note_off_c, 0, 57, 64
2, 18120, Note_on_c, 0, 54, 64
2, 18240, Note_off_c, 0, 54, 64
2, 18240, Note_on_c, 0, 55, 64
2, 18287, Note_off_c, 0, 55, 64
2, 18360, Note_on_c, 0, 55, 64
2, 18480, Note_off_c, 0, 55, 64
2, 18480, Note_on_c, 0, 52, 64
2, 18600, Note_off_c, 0, 52, 64
2, 18600, Note_on_c, 0, 54, 64
2, 18647, Note_off_c, 0, 54, 64
2, 18720, Note_on_c, 0, 54, 64
2, 18780, Note_off_c, 0, 54, 64
2, 18780, Note_on_c, 0, 55, 64
2, 18840, Note_off_c, 0, 55, 64
2, 18840, Note_on_c, 0, 57, 64
2, 18960, Note_off_c, 0, 57, 64
2, 18960, Note_on_c, 0, 54, 64
2, 19007, Note_off_c, 0, 54, 64
2, 19080, Note_on_c, 0, 50, 64
2, 19127, Note_off_c, 0, 50, 64
2, 19200, Note_on_c, 0, 60, 64
2, 19247, Note_off_c, 0, 60, 64
2, 19320, Note_on_c, 0, 59, 64
2, 19367, Note_off_c, 0, 59, 64
2, 19440, Note_on_c, 0, 59, 64
2, 19560, Note_off_c, 0, 59, 64
2, 19560, Note_on_c, 0, 55, 64
2, 19680, Note_off_c, 0, 55, 64
2, 19680, Note_on_c, 0, 57, 64
2, 19727, Note_off_c, 0, 57, 64
2, 19800, Note_on_c, 0, 57, 64
2, 19920, Note_off_c, 0, 57, 64
2, 19920, Note_on_c, 0, 54, 64
2, 20040, Note_off_c, 0, 54, 64
2, 20040, Note_on_c, 0, 55, 64
2, 20087, Note_off_c, 0, 55, 64
2, 20160, Note_on_c, 0, 55, 64
2, 20220, Note_off_c, 0, 55, 64
2, 20220, Note_on_c, 0, 57, 64
2, 20280, Note_off_c, 0, 57, 64
2, 20280, Note_on_c, 0, 59, 64
2, 20400, Note_off_c, 0, 59, 64
2, 20400, Note_on_c, 0, 55, 64
2, 20447, Note_off_c, 0, 55, 64
2, 20520, Note_on_c, 0, 52, 64
2, 20567, Note_off_c, 0, 52, 64
2, 20640, Note_on_c, 0, 62, 64
2, 20687, Note_off_c, 0, 62, 64
2, 20760, Note_on_c, 0, 60, 64
2, 20807, Note_off_c, 0, 60, 64
2, 20880, Note_on_c, 0, 57, 64
2, 20927, Note_off_c, 0, 57, 64
2, 21000, Note_on_c, 0, 62, 64
2, 21047, Note_off_c, 0, 62, 64
2, 21120, Note_on_c, 0, 60, 64
2, 21167, Note_off_c, 0, 60, 64
2, 21240, Note_on_c, 0, 50, 64
2, 21287, Note_off_c, 0, 50, 64
2, 21360, Note_on_c, 0, 60, 64
2, 21407, Note_off_c, 0, 60, 64
2, 21480, Note_on_c, 0, 59, 64
2, 21527, Note_off_c, 0, 59, 64
2, 21600, Note_on_c, 0, 55, 64
2, 21647, Note_off_c, 0, 55, 64
2, 21720, Note_on_c, 0, 60, 64
2, 21767, Note_off_c, 0, 60, 64
2, 21840, Note_on_c, 0, 59, 64
2, 21887, Note_off_c, 0, 59, 64
2, 21960, Note_on_c, 0, 48, 64
2, 22007, Note_off_c, 0, 48, 64
2, 22080, Note_on_c, 0, 59, 64
2, 22127, Note_off_c, 0, 59, 64
2, 22200, Note_on_c, 0, 57, 64
2, 22247, Note_off_c, 0, 57, 64
2, 22320, Note_on_c, 0, 55, 64
2, 22440, Note_off_c, 0, 55, 64
2, 22440, Note_on_c, 0, 54, 64
2, 22560, Note_off_c, 0, 54, 64
2, 22560, Note_on_c, 0, 52, 64
2, 22607, Note_off_c, 0, 52, 64
2, 22680, Note_on_c, 0, 47, 64
2, 22800, Note_off_c, 0, 47, 64
2, 22800, Note_on_c, 0, 52, 64
2, 22847, Note_off_c, 0, 52, 64
2, 22920, Note_on_c, 0, 51, 64
2, 22967, Note_off_c, 0, 51, 64
2, 23040, Note_on_c, 0, 52, 64
2, 23087, Note_off_c, 0, 52, 64
2, 23160, Note_on_c, 0, 47, 64
2, 23207, Note_off_c, 0, 47, 64
2, 23280, Note_on_c, 0, 43, 64
2, 23327, Note_off_c, 0, 43, 64
2, 23400, Note_on_c, 0, 40, 64
2, 23640, Note_off_c, 0, 40, 64
2, 23640, Note_on_c, 0, 55, 64
2, 23687, Note_off_c, 0, 55, 64
2, 23760, Note_on_c, 0, 57, 64
2, 23807, Note_off_c, 0, 57, 64
2, 23880, Note_on_c, 0, 54, 64
2, 23927, Note_off_c, 0, 54, 64
2, 24000, Note_on_c, 0, 55, 64
2, 24047, Note_off_c, 0, 55, 64
2, 24120, Note_on_c, 0, 61, 64
2, 24180, Note_off_c, 0, 61, 64
2, 24180, Note_on_c, 0, 62, 64
2, 24240, Note_off_c, 0, 62, 64
2, 24240, Note_on_c, 0, 64, 64
2, 24360, Note_off_c, 0, 64, 64
2, 24360, Note_on_c, 0, 54, 64
2, 24407, Note_off_c, 0, 54, 64
2, 24480, Note_on_c, 0, 55, 64
2, 24527, Note_off_c, 0, 55, 64
2, 24600, Note_on_c, 0, 52, 64
2, 24647, Note_off_c, 0, 52, 64
2, 24720, Note_on_c, 0, 53, 64
2, 24767, Note_off_c, 0, 53, 64
2, 24840, Note_on_c, 0, 59, 64
2, 24900, Note_off_c, 0, 59, 64
2, 24900, Note_on_c, 0, 60, 64
2, 24960, Note_off_c, 0, 60, 64
2, 24960, Note_on_c, 0, 62, 64
2, 25080, Note_off_c, 0, 62, 64
2, 25080, Note_on_c, 0, 52, 64
2, 25127, Note_off_c, 0, 52, 64
2, 25200, Note_on_c, 0, 53, 64
2, 25320, Note_off_c, 0, 53, 64
2, 25320, Note_on_c, 0, 50, 64
2, 25367, Note_off_c, 0, 50, 64
2, 25440, Note_on_c, 0, 52, 64
2, 25487, Note_off_c, 0, 52, 64
2, 25560, Note_on_c, 0, 57, 64
2, 25620, Note_off_c, 0, 57, 64
2, 25620, Note_on_c, 0, 59, 64
2, 25680, Note_off_c, 0, 59, 64
2, 25680, Note_on_c, 0, 60, 64
2, 25800, Note_off_c, 0, 60, 64
2, 25800, Note_on_c, 0, 57, 64
2, 25847, Note_off_c, 0, 57, 64
2, 25920, Note_on_c, 0, 54, 64
2, 25980, Note_off_c, 0, 54, 64
2, 25980, Note_on_c, 0, 55, 64
2, 26040, Note_off_c, 0, 55, 64
2, 26040, Note_on_c, 0, 57, 64
2, 26160, Note_off_c, 0, 57, 64
2, 26160, Note_on_c, 0, 54, 64
2, 26207, Note_off_c, 0, 54, 64
2, 26280, Note_on_c, 0, 50, 64
2, 26520, Note_off_c, 0, 50, 64
2, 26520, Note_on_c, 0, 57, 64
2, 26567, Note_off_c, 0, 57, 64
2, 26640, Note_on_c, 0, 58, 64
2, 26760, Note_off_c, 0, 58, 64
2, 26760, Note_on_c, 0, 57, 64
2, 26880, Note_off_c, 0, 57, 64
2, 26880, Note_on_c, 0, 60, 64
2, 26927, Note_off_c, 0, 60, 64
2, 27000, Note_on_c, 0, 60, 64
2, 27120, Note_off_c, 0, 60, 64
2, 27120, Note_on_c, 0, 58, 64
2, 27240, Note_off_c, 0, 58, 64
2, 27240, Note_on_c, 0, 62, 64
2, 27287, Note_off_c, 0, 62, 64
2, 27360, Note_on_c, 0, 62, 64
2, 27480, Note_off_c, 0, 62, 64
2, 27480, Note_on_c, 0, 60, 64
2, 27600, Note_off_c, 0, 60, 64
2, 27600, Note_on_c, 0, 63, 64
2, 27647, Note_off_c, 0, 63, 64
2, 27720, Note_on_c, 0, 63, 64
2, 27840, Note_off_c, 0, 63, 64
2, 27840, Note_on_c, 0, 62, 64
2, 27960, Note_off_c, 0, 62, 64
2, 27960, Note_on_c, 0, 60, 64
2, 28007, Note_off_c, 0, 60, 64
2, 28080, Note_on_c, 0, 58, 64
2, 28200, Note_off_c, 0, 58, 64
2, 28200, Note_on_c, 0, 57, 64
2, 28320, Note_off_c, 0, 57, 64
2, 28320, Note_on_c, 0, 55, 64
2, 28367, Note_off_c, 0, 55, 64
2, 28440, Note_on_c, 0, 50, 64
2, 28560, Note_off_c, 0, 50, 64
2, 28560, Note_on_c, 0, 55, 64
2, 28680, Note_off_c, 0, 55, 64
2, 28680, Note_on_c, 0, 54, 64
2, 28727, Note_off_c, 0, 54, 64
2, 28800, Note_on_c, 0, 55, 64
2, 28847, Note_off_c, 0, 55, 64
2, 28920, Note_on_c, 0, 47, 64
2, 28980, Note_off_c, 0, 47, 64
2, 28980, Note_on_c, 0, 48, 64
2, 29040, Note_off_c, 0, 48, 64
2, 29040, Note_on_c, 0, 50, 64
2, 29160, Note_off_c, 0, 50, 64
2, 29160, Note_on_c, 0, 43, 64
2, 29280, Note_off_c, 0, 43, 64
2, 29280, Note_on_c, 0, 47, 64
2, 29400, Note_off_c, 0, 47, 64
2, 29400, Note_on_c, 0, 50, 64
2, 29447, Note_off_c, 0, 50, 64
2, 29520, Note_on_c, 0, 55, 64
2, 29567, Note_off_c, 0, 55, 64
2, 29640, Note_on_c, 0, 52, 64
2, 29700, Note_off_c, 0, 52, 64
2, 29700, Note_on_c, 0, 53, 64
2, 29760, Note_off_c, 0, 53, 64
2, 29760, Note_on_c, 0, 55, 64
2, 29880, Note_off_c, 0, 55, 64
2, 29880, Note_on_c, 0, 47, 64
2, 30000, Note_off_c, 0, 47, 64
2, 30000, Note_on_c, 0, 48, 64
2, 30120, Note_off_c, 0, 48, 64
2, 30120, Note_on_c, 0, 52, 64
2, 30167, Note_off_c, 0, 52, 64
2, 30240, Note_on_c, 0, 57, 64
2, 30287, Note_off_c, 0, 57, 64
2, 30360, Note_on_c, 0, 54, 64
2, 30420, Note_off_c, 0, 54, 64
2, 30420, Note_on_c, 0, 55, 64
2, 30480, Note_off_c, 0, 55, 64
2, 30480, Note_on_c, 0, 57, 64
2, 30600, Note_off_c, 0, 57, 64
2, 30600, Note_on_c, 0, 49, 64
2, 30720, Note_off_c, 0, 49, 64
2, 30720, Note_on_c, 0, 50, 64
2, 30840, Note_off_c, 0, 50, 64
2, 30840, Note_on_c, 0, 54, 64
2, 30887, Note_off_c, 0, 54, 64
2, 30960, Note_on_c, 0, 59, 64
2, 31007, Note_off_c, 0, 59, 64
2, 31080, Note_on_c, 0, 55, 64
2, 31140, Note_off_c, 0, 55, 64
2, 31140, Note_on_c, 0, 57, 64
2, 31200, Note_off_c, 0, 57, 64
2, 31200, Note_on_c, 0, 59, 64
2, 31320, Note_off_c, 0, 59, 64
2, 31320, Note_on_c, 0, 51, 64
2, 31440, Note_off_c, 0, 51, 64
2, 31440, Note_on_c, 0, 52, 64
2, 31560, Note_off_c, 0, 52, 64
2, 31560, Note_on_c, 0, 60, 64
2, 31607, Note_off_c, 0, 60, 64
2, 31680, Note_on_c, 0, 52, 64
2, 31800, Note_off_c, 0, 52, 64
2, 31800, Note_on_c, 0, 54, 64
2, 31920, Note_off_c, 0, 54, 64
2, 31920, Note_on_c, 0, 62, 64
2, 31967, Note_off_c, 0, 62, 64
2, 32040, Note_on_c, 0, 54, 64
2, 32160, Note_off_c, 0, 54, 64
2, 32160, Note_on_c, 0, 55, 64
2, 32280, Note_off_c, 0, 55, 64
2, 32280, Note_on_c, 0, 64, 64
2, 32327, Note_off_c, 0, 64, 64
2, 32400, Note_on_c, 0, 50, 64
2, 32520, Note_off_c, 0, 50, 64
2, 32520, Note_on_c, 0, 52, 64
2, 32580, Note_off_c, 0, 52, 64
2, 32580, Note_on_c, 0, 54, 64
2, 32640, Note_off_c, 0, 54, 64
2, 32640, Note_on_c, 0, 55, 64
2, 32700, Note_off_c, 0, 55, 64
2, 32700, Note_on_c, 0, 57, 64
2, 32760, Note_off_c, 0, 57, 64
2, 32760, Note_on_c, 0, 59, 64
2, 32880, Note_off_c, 0, 59, 64
2, 32880, Note_on_c, 0, 55, 64
2, 32927, Note_off_c, 0, 55, 64
2, 33000, Note_on_c, 0, 54, 64
2, 33047, Note_off_c, 0, 54, 64
2, 33120, Note_on_c, 0, 55, 64
2, 33167, Note_off_c, 0, 55, 64
2, 33240, Note_on_c, 0, 50, 64
2, 33287, Note_off_c, 0, 50, 64
2, 33360, Note_on_c, 0, 47, 64
2, 33407, Note_off_c, 0, 47, 64
2, 33480, Note_on_c, 0, 43, 64
2, 33720, Note_off_c, 0, 43, 64
2, 33720, Note_on_c, 0, 57, 64
2, 33840, Note_off_c, 0, 57, 64
2, 33840, Note_on_c, 0, 57, 64
2, 33960, Note_off_c, 0, 57, 64
2, 33960, Note_on_c, 0, 54, 64
2, 34080, Note_off_c, 0, 54, 64
2, 34080, Note_on_c, 0, 55, 64
2, 34127, Note_off_c, 0, 55, 64
2, 34200, Note_on_c, 0, 55, 64
2, 34320, Note_off_c, 0, 55, 64
2, 34320, Note_on_c, 0, 52, 64
2, 34440, Note_off_c, 0, 52, 64
2, 34440, Note_on_c, 0, 54, 64
2, 34487, Note_off_c, 0, 54, 64
2, 34560, Note_on_c, 0, 54, 64
2, 34620, Note_off_c, 0, 54, 64
2, 34620, Note_on_c, 0, 55, 64
2, 34680, Note_off_c, 0, 55, 64
2, 34680, Note_on_c, 0, 57, 64
2, 34800, Note_off_c, 0, 57, 64
2, 34800, Note_on_c, 0, 54, 64
2, 34847, Note_off_c, 0, 54, 64
2, 34920, Note_on_c, 0, 50, 64
2, 34967, Note_off_c, 0, 50, 64
2, 35040, Note_on_c, 0, 60, 64
2, 35087, Note_off_c, 0, 60, 64
2, 35160, Note_on_c, 0, 59, 64
2, 35207, Note_off_c, 0, 59, 64
2, 35280, Note_on_c, 0, 59, 64
2, 35400, Note_off_c, 0, 59, 64
2, 35400, Note_on_c, 0, 55, 64
2, 35520, Note_off_c, 0, 55, 64
2, 35520, Note_on_c, 0, 57, 64
2, 35567, Note_off_c, 0, 57, 64
2, 35640, Note_on_c, 0, 57, 64
2, 35760, Note_off_c, 0, 57, 64
2, 35760, Note_on_c, 0, 54, 64
2, 35880, Note_off_c, 0, 54, 64
2, 35880, Note_on_c, 0, 55, 64
2, 35927, Note_off_c, 0, 55, 64
2, 36000, Note_on_c, 0, 55, 64
2, 36060, Note_off_c, 0, 55, 64
2, 36060, Note_on_c, 0, 57, 64
2, 36120, Note_off_c, 0, 57, 64
2, 36120, Note_on_c, 0, 59, 64
2, 36240, Note_off_c, 0, 59, 64
2, 36240, Note_on_c, 0, 55, 64
2, 36287, Note_off_c, 0, 55, 64
2, 36360, Note_on_c, 0, 52, 64
2, 36407, Note_off_c, 0, 52, 64
2, 36480, Note_on_c, 0, 62, 64
2, 36527, Note_off_c, 0, 62, 64
2, 36600, Note_on_c, 0, 60, 64
2, 36647, Note_off_c, 0, 60, 64
2, 36720, Note_on_c, 0, 57, 64
2, 36767, Note_off_c, 0, 57, 64
2, 36840, Note_on_c, 0, 62, 64
2, 36887, Note_off_c, 0, 62, 64
2, 36960, Note_on_c, 0, 60, 64
2, 37007, Note_off_c, 0, 60, 64
2, 37080, Note_on_c, 0, 50, 64
2, 37127, Note_off_c, 0, 50, 64
2, 37200, Note_on_c, 0, 60, 64
2, 37247, Note_off_c, 0, 60, 64
2, 37320, Note_on_c, 0, 59, 64
2, 37367, Note_off_c, 0, 59, 64
2, 37440, Note_on_c, 0, 55, 64
2, 37487, Note_off_c, 0, 55, 64
2, 37560, Note_on_c, 0, 60, 64
2, 37607, Note_off_c, 0, 60, 64
2, 37680, Note_on_c, 0, 59, 64
2, 37727, Note_off_c, 0, 59, 64
2, 37800, Note_on_c, 0, 48, 64
2, 37847, Note_off_c, 0, 48, 64
2, 37920, Note_on_c, 0, 59, 64
2, 37967, Note_off_c, 0, 59, 64
2, 38040, Note_on_c, 0, 57, 64
2, 38087, Note_off_c, 0, 57, 64
2, 38160, Note_on_c, 0, 55, 64
2, 38280, Note_off_c, 0, 55, 64
2, 38280, Note_on_c, 0, 54, 64
2, 38400, Note_off_c, 0, 54, 64
2, 38400, Note_on_c, 0, 52, 64
2, 38447, Note_off_c, 0, 52, 64
2, 38520, Note_on_c, 0, 47, 64
2, 38640, Note_off_c, 0, 47, 64
2, 38640, Note_on_c, 0, 52, 64
2, 38687, Note_off_c, 0, 52, 64
2, 38760, Note_on_c, 0, 51, 64
2, 38807, Note_off_c, 0, 51, 64
2, 38880, Note_on_c, 0, 52, 64
2, 38927, Note_off_c, 0, 52, 64
2, 39000, Note_on_c, 0, 47, 64
2, 39047, Note_off_c, 0, 47, 64
2, 39120, Note_on_c, 0, 43, 64
2, 39167, Note_off_c, 0, 43, 64
2, 39240, Note_on_c, 0, 40, 64
2, 39480, Note_off_c, 0, 40, 64
2, 39480, Note_on_c, 0, 55, 64
2, 39527, Note_off_c, 0, 55, 64
2, 39600, Note_on_c, 0, 57, 64
2, 39647, Note_off_c, 0, 57, 64
2, 39720, Note_on_c, 0, 54, 64
2, 39767, Note_off_c, 0, 54, 64
2, 39840, Note_on_c, 0, 55, 64
2, 39887, Note_off_c, 0, 55, 64
2, 39960, Note_on_c, 0, 61, 64
2, 40020, Note_off_c, 0, 61, 64
2, 40020, Note_on_c, 0, 62, 64
2, 40080, Note_off_c, 0, 62, 64
2, 40080, Note_on_c, 0, 64, 64
2, 40200, Note_off_c, 0, 64, 64
2, 40200, Note_on_c, 0, 54, 64
2, 40247, Note_off_c, 0, 54, 64
2, 40320, Note_on_c, 0, 55, 64
2, 40367, Note_off_c, 0, 55, 64
2, 40440, Note_on_c, 0, 52, 64
2, 40487, Note_off_c, 0, 52, 64
2, 40560, Note_on_c, 0, 53, 64
2, 40607, Note_off_c, 0, 53, 64
2, 40680, Note_on_c, 0, 59, 64
2, 40740, Note_off_c, 0, 59, 64
2, 40740, Note_on_c, 0, 60, 64
2, 40800, Note_off_c, 0, 60, 64
2, 40800, Note_on_c, 0, 62, 64
2, 40920, Note_off_c, 0, 62, 64
2, 40920, Note_on_c, 0, 52, 64
2, 40967, Note_off_c, 0, 52, 64
2, 41040, Note_on_c, 0, 53, 64
2, 41160, Note_off_c, 0, 53, 64
2, 41160, Note_on_c, 0, 50, 64
2, 41207, Note_off_c, 0, 50, 64
2, 41280, Note_on_c, 0, 52, 64
2, 41327, Note_off_c, 0, 52, 64
2, 41400, Note_on_c, 0, 57, 64
2, 41460, Note_off_c, 0, 57, 64
2, 41460, Note_on_c, 0, 59, 64
2, 41520, Note_off_c, 0, 59, 64
2, 41520, Note_on_c, 0, 60, 64
2, 41640, Note_off_c, 0, 60, 64
2, 41640, Note_on_c, 0, 57, 64
2, 41687, Note_off_c, 0, 57, 64
2, 41760, Note_on_c, 0, 54, 64
2, 41820, Note_off_c, 0, 54, 64
2, 41820, Note_on_c, 0, 55, 64
2, 41880, Note_off_c, 0, 55, 64
2, 41880, Note_on_c, 0, 57, 64
2, 42000, Note_off_c, 0, 57, 64
2, 42000, Note_on_c, 0, 54, 64
2, 42047, Note_off_c, 0, 54, 64
2, 42120, Note_on_c, 0, 50, 64
2, 42360, Note_off_c, 0, 50, 64
2, 42360, Note_on_c, 0, 57, 64
2, 42407, Note_off_c, 0, 57, 64
2, 42480, Note_on_c, 0, 58, 64
2, 42600, Note_off_c, 0, 58, 64
2, 42600, Note_on_c, 0, 57, 64
2, 42720, Note_off_c, 0, 57, 64
2, 42720, Note_on_c, 0, 60, 64
2, 42767, Note_off_c, 0, 60, 64
2, 42840, Note_on_c, 0, 60, 64
2, 42960, Note_off_c, 0, 60, 64
2, 42960, Note_on_c, 0, 58, 64
2, 43080, Note_off_c, 0, 58, 64
2, 43080, Note_on_c, 0, 62, 64
2, 43127, Note_off_c, 0, 62, 64
2, 43200, Note_on_c, 0, 62, 64
2, 43320, Note_off_c, 0, 62, 64
2, 43320, Note_on_c, 0, 60, 64
2, 43440, Note_off_c, 0, 60, 64
2, 43440, Note_on_c, 0, 63, 64
2, 43487, Note_off_c, 0, 63, 64
2, 43560, Note_on_c, 0, 63, 64
2, 43680, Note_off_c, 0, 63, 64
2, 43680, Note_on_c, 0, 62, 64
2, 43800, Note_off_c, 0, 62, 64
2, 43800, Note_on_c, 0, 60, 64
2, 43847, Note_off_c, 0, 60, 64
2, 43920, Note_on_c, 0, 58, 64
2, 44040, Note_off_c, 0, 58, 64
2, 44040, Note_on_c, 0, 57, 64
2, 44160, Note_off_c, 0, 57, 64
2, 44160, Note_on_c, 0, 55, 64
2, 44207, Note_off_c, 0, 55, 64
2, 44280, Note_on_c, 0, 50, 64
2, 44400, Note_off_c, 0, 50, 64
2, 44400, Note_on_c, 0, 55, 64
2, 44520, Note_off_c, 0, 55, 64
2, 44520, Note_on_c, 0, 54, 64
2, 44567, Note_off_c, 0, 54, 64
2, 44640, Note_on_c, 0, 55, 64
2, 44687, Note_off_c, 0, 55, 64
2, 44760, Note_on_c, 0, 47, 64
2, 44820, Note_off_c, 0, 47, 64
2, 44820, Note_on_c, 0, 48, 64
2, 44880, Note_off_c, 0, 48, 64
2, 44880, Note_on_c, 0, 50, 64
2, 45000, Note_off_c, 0, 50, 64
2, 45000, Note_on_c, 0, 43, 64
2, 45120, Note_off_c, 0, 43, 64
2, 45120, Note_on_c, 0, 47, 64
2, 45240, Note_off_c, 0, 47, 64
2, 45240, Note_on_c, 0, 50, 64
2, 45287, Note_off_c, 0, 50, 64
2, 45360, Note_on_c, 0, 55, 64
2, 45407, Note_off_c, 0, 55, 64
2, 45480, Note_on_c, 0, 52, 64
2, 45540, Note_off_c, 0, 52, 64
2, 45540, Note_on_c, 0, 53, 64
2, 45600, Note_off_c, 0, 53, 64
2, 45600, Note_on_c, 0, 55, 64
2, 45720, Note_off_c, 0, 55, 64
2, 45720, Note_on_c, 0, 47, 64
2, 45840, Note_off_c, 0, 47, 64
2, 45840, Note_on_c, 0, 48, 64
2, 45960, Note_off_c, 0, 48, 64
2, 45960, Note_on_c, 0, 52, 64
2, 46007, Note_off_c, 0, 52, 64
2, 46080, Note_on_c, 0, 57, 64
2, 46127, Note_off_c, 0, 57, 64
2, 46200, Note_on_c, 0, 54, 64
2, 46260, Note_off_c, 0, 54, 64
2, 46260, Note_on_c, 0, 55, 64
2, 46320, Note_off_c, 0, 55, 64
2, 46320, Note_on_c, 0, 57, 64
2, 46440, Note_off_c, 0, 57, 64
2, 46440, Note_on_c, 0, 49, 64
2, 46560, Note_off_c, 0, 49, 64
2, 46560, Note_on_c, 0, 50, 64
2, 46680, Note_off_c, 0, 50, 64
2, 46680, Note_on_c, 0, 54, 64
2, 46727, Note_off_c, 0, 54, 64
2, 46800, Note_on_c, 0, 59, 64
2, 46847, Note_off_c, 0, 59, 64
2, 46920, Note_on_c, 0, 55, 64
2, 46980, Note_off_c, 0, 55, 64
2, 46980, Note_on_c, 0, 57, 64
2, 47040, Note_off_c, 0, 57, 64
2, 47040, Note_on_c, 0, 59, 64
2, 47160, Note_off_c, 0, 59, 64
2, 47160, Note_on_c, 0, 51, 64
2, 47280, Note_off_c, 0, 51, 64
2, 47280, Note_on_c, 0, 52, 64
2, 47400, Note_off_c, 0, 52, 64
2, 47400, Note_on_c, 0, 60, 64
2, 47447, Note_off_c, 0, 60, 64
2, 47520, Note_on_c, 0, 52, 64
2, 47640, Note_off_c, 0, 52, 64
2, 47640, Note_on_c, 0, 54, 64
2, 47760, Note_off_c, 0, 54, 64
2, 47760, Note_on_c, 0, 62, 64
2, 47807, Note_off_c, 0, 62, 64
2, 47880, Note_on_c, 0, 54, 64
2, 48000, Note_off_c, 0, 54, 64
2, 48000, Note_on_c, 0, 55, 64
2, 48120, Note_off_c, 0, 55, 64
2, 48120, Note_on_c, 0, 64, 64
2, 48167, Note_off_c, 0, 64, 64
2, 48240, Note_on_c, 0, 50, 64
2, 48360, Note_off_c, 0, 50, 64
2, 48360, Note_on_c, 0, 52, 64
2, 48420, Note_off_c, 0, 52, 64
2, 48420, Note_on_c, 0, 54, 64
2, 48480, Note_off_c, 0, 54, 64
2, 48480, Note_on_c, 0, 55, 64
2, 48540, Note_off_c, 0, 55, 64
2, 48540, Note_on_c, 0, 57, 64
2, 48600, Note_off_c, 0, 57, 64
2, 48600, Note_on_c, 0, 59, 64
2, 48720, Note_off_c, 0, 59, 64
2, 48720, Note_on_c, 0, 55, 64
2, 48767, Note_off_c, 0, 55, 64
2, 48840, Note_on_c, 0, 54, 64
2, 48887, Note_off_c, 0, 54, 64
2, 48960, Note_on_c, 0, 55, 64
2, 49007, Note_off_c, 0, 55, 64
2, 49080, Note_on_c, 0, 50, 64
2, 49127, Note_off_c, 0, 50, 64
2, 49200, Note_on_c, 0, 47, 64
2, 49247, Note_off_c, 0, 47, 64
2, 49320, Note_on_c, 0, 43, 64
2, 49680, Note_off_c, 0, 43, 64
2, 49759, End_track
0, 0, End_of_file
