0, 0, Header, 1, 2, 240
1, 0, Start_track
1, 0, Time_signature, 3, 2, 24, 8
1, 0, Tempo, 576923
1, 0, SMPTE_offset, 0, 0, 0, 0, 0
1, 19440, Marker_t, "A'"
1, 38160, Marker_t, "B"
1, 65520, Marker_t, "B'"
1, 91680, Tempo, 600000
1, 91880, Tempo, 659341
1, 92160, Tempo, 759494
1, 92880, Tempo, 576923
1, 92880, End_track
2, 0, Start_track
2, 600, Note_on_c, 0, 51, 64
2, 690, Note_off_c, 0, 51, 64
2, 720, Note_on_c, 0, 51, 64
2, 810, Note_off_c, 0, 51, 64
2, 840, Note_on_c, 0, 46, 64
2, 930, Note_off_c, 0, 46, 64
2, 960, Note_on_c, 0, 48, 64
2, 1050, Note_off_c, 0, 48, 64
2, 1080, Note_on_c, 0, 44, 64
2, 1170, Note_off_c, 0, 44, 64
2, 1200, Note_on_c, 0, 41, 64
2, 1290, Note_off_c, 0, 41, 64
2, 1320, Note_on_c, 0, 50, 64
2, 1410, Note_off_c, 0, 50, 64
2, 1440, Note_on_c, 0, 51, 64
2, 1680, Note_off_c, 0, 51, 64
2, 1680, Note_on_c, 0, 39, 64
2, 1740, Note_off_c, 0, 39, 64
2, 1740, Note_on_c, 0, 50, 64
2, 1800, Note_off_c, 0, 50, 64
2, 1800, Note_on_c, 0, 51, 64
2, 1860, Note_off_c, 0, 51, 64
2, 1860, Note_on_c, 0, 53, 64
2, 1920, Note_off_c, 0, 53, 64
2, 1920, Note_on_c, 0, 55, 64
2, 1980, Note_off_c, 0, 55, 64
2, 1980, Note_on_c, 0, 53, 64
2, 2040, Note_off_c, 0, 53, 64
2, 2040, Note_on_c, 0, 55, 64
2, 2100, Note_off_c, 0, 55, 64
2, 2100, Note_on_c, 0, 57, 64
2, 2160, Note_off_c, 0, 57, 64
2, 2160, Note_on_c, 0, 58, 64
2, 2250, Note_off_c, 0, 58, 64
2, 2280, Note_on_c, 0, 53, 64
2, 2370, Note_off_c, 0, 53, 64
2, 2400, Note_on_c, 0, 55, 64
2, 2490, Note_off_c, 0, 55, 64
2, 2520, Note_on_c, 0, 51, 64
2, 2610, Note_off_c, 0, 51, 64
2, 2640, Note_on_c, 0, 48, 64
2, 2730, Note_off_c, 0, 48, 64
2, 2760, Note_on_c, 0, 57, 64
2, 2850, Note_off_c, 0, 57, 64
2, 2880, Note_on_c, 0, 58, 64
2, 3120, Note_off_c, 0, 58, 64
2, 3120, Note_on_c, 0, 46, 64
2, 3220, Note_off_c, 0, 46, 64
2, 3240, Note_on_c, 0, 46, 72
2, 3270, Note_off_c, 0, 46, 52
2, 3270, Note_on_c, 0, 44, 48
2, 3300, Note_off_c, 0, 44, 42
2, 3300, Note_on_c, 0, 46, 56
2, 3330, Note_off_c, 0, 46, 44
2, 3330, Note_on_c, 0, 44, 64
2, 3360, Note_off_c, 0, 44, 45
2, 3360, Note_on_c, 0, 43, 64
2, 3480, Note_off_c, 0, 43, 64
2, 3480, Note_on_c, 0, 51, 64
2, 3570, Note_off_c, 0, 51, 64
2, 3600, Note_on_c, 0, 44, 64
2, 3679, Note_off_c, 0, 44, 64
2, 3679, Note_on_c, 0, 46, 64
2, 3759, Note_off_c, 0, 46, 64
2, 3759, Note_on_c, 0, 48, 64
2, 3839, Note_off_c, 0, 48, 64
2, 3840, Note_on_c, 0, 48, 64
2, 3919, Note_off_c, 0, 48, 64
2, 3919, Note_on_c, 0, 50, 64
2, 3999, Note_off_c, 0, 50, 64
2, 3999, Note_on_c, 0, 51, 64
2, 4079, Note_off_c, 0, 51, 64
2, 4080, Note_on_c, 0, 53, 64
2, 4159, Note_off_c, 0, 53, 64
2, 4159, Note_on_c, 0, 55, 64
2, 4239, Note_off_c, 0, 55, 64
2, 4239, Note_on_c, 0, 56, 64
2, 4319, Note_off_c, 0, 56, 64
2, 4320, Note_on_c, 0, 43, 64
2, 4399, Note_off_c, 0, 43, 64
2, 4399, Note_on_c, 0, 44, 64
2, 4479, Note_off_c, 0, 44, 64
2, 4479, Note_on_c, 0, 46, 64
2, 4559, Note_off_c, 0, 46, 64
2, 4560, Note_on_c, 0, 46, 64
2, 4639, Note_off_c, 0, 46, 64
2, 4639, Note_on_c, 0, 48, 64
2, 4719, Note_off_c, 0, 48, 64
2, 4719, Note_on_c, 0, 50, 64
2, 4799, Note_off_c, 0, 50, 64
2, 4800, Note_on_c, 0, 51, 64
2, 4879, Note_off_c, 0, 51, 64
2, 4879, Note_on_c, 0, 53, 64
2, 4959, Note_off_c, 0, 53, 64
2, 4959, Note_on_c, 0, 55, 64
2, 5039, Note_off_c, 0, 55, 64
2, 5040, Note_on_c, 0, 53, 64
2, 5119, Note_off_c, 0, 53, 64
2, 5119, Note_on_c, 0, 55, 64
2, 5199, Note_off_c, 0, 55, 64
2, 5199, Note_on_c, 0, 56, 64
2, 5279, Note_off_c, 0, 56, 64
2, 5280, Note_on_c, 0, 55, 64
2, 5359, Note_off_c, 0, 55, 64
2, 5359, Note_on_c, 0, 53, 64
2, 5439, Note_off_c, 0, 53, 64
2, 5439, Note_on_c, 0, 51, 64
2, 5519, Note_off_c, 0, 51, 64
2, 5520, Note_on_c, 0, 46, 64
2, 5599, Note_off_c, 0, 46, 64
2, 5599, Note_on_c, 0, 51, 64
2, 5679, Note_off_c, 0, 51, 64
2, 5679, Note_on_c, 0, 50, 64
2, 5759, Note_off_c, 0, 50, 64
2, 5760, Note_on_c, 0, 51, 64
2, 6000, Note_off_c, 0, 51, 64
2, 6000, Note_on_c, 0, 39, 64
2, 6060, Note_off_c, 0, 39, 64
2, 6060, Note_on_c, 0, 46, 64
2, 6120, Note_off_c, 0, 46, 64
2, 6120, Note_on_c, 0, 48, 64
2, 6180, Note_off_c, 0, 48, 64
2, 6180, Note_on_c, 0, 50, 64
2, 6240, Note_off_c, 0, 50, 64
2, 6240, Note_on_c, 0, 51, 64
2, 6300, Note_off_c, 0, 51, 64
2, 6300, Note_on_c, 0, 50, 64
2, 6360, Note_off_c, 0, 50, 64
2, 6360, Note_on_c, 0, 51, 64
2, 6420, Note_off_c, 0, 51, 64
2, 6420, Note_on_c, 0, 53, 64
2, 6480, Note_off_c, 0, 53, 64
2, 6480, Note_on_c, 0, 55, 64
2, 6570, Note_off_c, 0, 55, 64
2, 6600, Note_on_c, 0, 51, 64
2, 6690, Note_off_c, 0, 51, 64
2, 6720, Note_on_c, 0, 55, 64
2, 6810, Note_off_c, 0, 55, 64
2, 6840, Note_on_c, 0, 50, 64
2, 6930, Note_off_c, 0, 50, 64
2, 6960, Note_on_c, 0, 48, 64
2, 7050, Note_off_c, 0, 48, 64
2, 7080, Note_on_c, 0, 58, 64
2, 7170, Note_off_c, 0, 58, 64
2, 7200, Note_on_c, 0, 57, 64
2, 7440, Note_off_c, 0, 57, 64
2, 7440, Note_on_c, 0, 39, 64
2, 7500, Note_off_c, 0, 39, 64
2, 7500, Note_on_c, 0, 48, 64
2, 7560, Note_off_c, 0, 48, 64
2, 7560, Note_on_c, 0, 50, 64
2, 7620, Note_off_c, 0, 50, 64
2, 7620, Note_on_c, 0, 51, 64
2, 7680, Note_off_c, 0, 51, 64
2, 7680, Note_on_c, 0, 53, 64
2, 7740, Note_off_c, 0, 53, 64
2, 7740, Note_on_c, 0, 51, 64
2, 7800, Note_off_c, 0, 51, 64
2, 7800, Note_on_c, 0, 53, 64
2, 7860, Note_off_c, 0, 53, 64
2, 7860, Note_on_c, 0, 55, 64
2, 7920, Note_off_c, 0, 55, 64
2, 7920, Note_on_c, 0, 57, 64
2, 8010, Note_off_c, 0, 57, 64
2, 8040, Note_on_c, 0, 53, 64
2, 8130, Note_off_c, 0, 53, 64
2, 8160, Note_on_c, 0, 57, 64
2, 8250, Note_off_c, 0, 57, 64
2, 8280, Note_on_c, 0, 51, 64
2, 8370, Note_off_c, 0, 51, 64
2, 8400, Note_on_c, 0, 50, 64
2, 8490, Note_off_c, 0, 50, 64
2, 8520, Note_on_c, 0, 60, 64
2, 8610, Note_off_c, 0, 60, 64
2, 8640, Note_on_c, 0, 58, 64
2, 8880, Note_off_c, 0, 58, 64
2, 8880, Note_on_c, 0, 38, 64
2, 8940, Note_off_c, 0, 38, 64
2, 8940, Note_on_c, 0, 50, 64
2, 9000, Note_off_c, 0, 50, 64
2, 9000, Note_on_c, 0, 51, 64
2, 9060, Note_off_c, 0, 51, 64
2, 9060, Note_on_c, 0, 53, 64
2, 9120, Note_off_c, 0, 53, 64
2, 9120, Note_on_c, 0, 55, 64
2, 9180, Note_off_c, 0, 55, 64
2, 9180, Note_on_c, 0, 53, 64
2, 9240, Note_off_c, 0, 53, 64
2, 9240, Note_on_c, 0, 55, 64
2, 9300, Note_off_c, 0, 55, 64
2, 9300, Note_on_c, 0, 57, 64
2, 9360, Note_off_c, 0, 57, 64
2, 9360, Note_on_c, 0, 58, 64
2, 9450, Note_off_c, 0, 58, 64
2, 9480, Note_on_c, 0, 55, 64
2, 9570, Note_off_c, 0, 55, 64
2, 9600, Note_on_c, 0, 58, 64
2, 9690, Note_off_c, 0, 58, 64
2, 9720, Note_on_c, 0, 53, 64
2, 9810, Note_off_c, 0, 53, 64
2, 9840, Note_on_c, 0, 51, 64
2, 9930, Note_off_c, 0, 51, 64
2, 9960, Note_on_c, 0, 62, 64
2, 10050, Note_off_c, 0, 62, 64
2, 10080, Note_on_c, 0, 60, 64
2, 10170, Note_off_c, 0, 60, 64
2, 10200, Note_on_c, 0, 57, 64
2, 10290, Note_off_c, 0, 57, 64
2, 10320, Note_on_c, 0, 60, 64
2, 10410, Note_off_c, 0, 60, 64
2, 10440, Note_on_c, 0, 55, 64
2, 10530, Note_off_c, 0, 55, 64
2, 10560, Note_on_c, 0, 53, 64
2, 10650, Note_off_c, 0, 53, 64
2, 10680, Note_on_c, 0, 63, 64
2, 10770, Note_off_c, 0, 63, 64
2, 10800, Note_on_c, 0, 62, 64
2, 10890, Note_off_c, 0, 62, 64
2, 10920, Note_on_c, 0, 58, 64
2, 11010, Note_off_c, 0, 58, 64
2, 11040, Note_on_c, 0, 62, 64
2, 11130, Note_off_c, 0, 62, 64
2, 11160, Note_on_c, 0, 57, 64
2, 11250, Note_off_c, 0, 57, 64
2, 11280, Note_on_c, 0, 55, 64
2, 11370, Note_off_c, 0, 55, 64
2, 11400, Note_on_c, 0, 65, 64
2, 11490, Note_off_c, 0, 65, 64
2, 11520, Note_on_c, 0, 63, 64
2, 11610, Note_off_c, 0, 63, 64
2, 11640, Note_on_c, 0, 60, 64
2, 11730, Note_off_c, 0, 60, 64
2, 11760, Note_on_c, 0, 63, 64
2, 11850, Note_off_c, 0, 63, 64
2, 11880, Note_on_c, 0, 57, 64
2, 11970, Note_off_c, 0, 57, 64
2, 12000, Note_on_c, 0, 53, 64
2, 12090, Note_off_c, 0, 53, 64
2, 12120, Note_on_c, 0, 63, 64
2, 12210, Note_off_c, 0, 63, 64
2, 12240, Note_on_c, 0, 62, 64
2, 12330, Note_off_c, 0, 62, 64
2, 12360, Note_on_c, 0, 58, 64
2, 12450, Note_off_c, 0, 58, 64
2, 12480, Note_on_c, 0, 62, 64
2, 12570, Note_off_c, 0, 62, 64
2, 12600, Note_on_c, 0, 55, 64
2, 12690, Note_off_c, 0, 55, 64
2, 12720, Note_on_c, 0, 51, 64
2, 12810, Note_off_c, 0, 51, 64
2, 12840, Note_on_c, 0, 60, 64
2, 12930, Note_off_c, 0, 60, 64
2, 12960, Note_on_c, 0, 53, 64
2, 12960, Note_on_c, 0, 57, 64
2, 13200, Note_off_c, 0, 53, 64
2, 13279, Note_off_c, 0, 57, 64
2, 13279, Note_on_c, 0, 53, 64
2, 13359, Note_off_c, 0, 53, 64
2, 13359, Note_on_c, 0, 55, 64
2, 13439, Note_off_c, 0, 55, 64
2, 13440, Note_on_c, 0, 57, 64
2, 13519, Note_off_c, 0, 57, 64
2, 13519, Note_on_c, 0, 58, 64
2, 13599, Note_off_c, 0, 58, 64
2, 13599, Note_on_c, 0, 60, 64
2, 13679, Note_off_c, 0, 60, 64
2, 13680, Note_on_c, 0, 51, 64
2, 13680, Note_on_c, 0, 60, 64
2, 13920, Note_off_c, 0, 51, 64
2, 13999, Note_off_c, 0, 60, 64
2, 13999, Note_on_c, 0, 57, 64
2, 14079, Note_off_c, 0, 57, 64
2, 14079, Note_on_c, 0, 58, 64
2, 14159, Note_off_c, 0, 58, 64
2, 14160, Note_on_c, 0, 60, 64
2, 14239, Note_off_c, 0, 60, 64
2, 14239, Note_on_c, 0, 62, 64
2, 14319, Note_off_c, 0, 62, 64
2, 14319, Note_on_c, 0, 63, 64
2, 14399, Note_off_c, 0, 63, 64
2, 14400, Note_on_c, 0, 57, 64
2, 14400, Note_on_c, 0, 48, 64
2, 14400, Note_on_c, 0, 63, 64
2, 14640, Note_off_c, 0, 48, 64
2, 14640, Note_off_c, 0, 57, 64
2, 14719, Note_off_c, 0, 63, 64
2, 14719, Note_on_c, 0, 60, 64
2, 14799, Note_off_c, 0, 60, 64
2, 14799, Note_on_c, 0, 62, 64
2, 14879, Note_off_c, 0, 62, 64
2, 14880, Note_on_c, 0, 63, 64
2, 14959, Note_off_c, 0, 63, 64
2, 14959, Note_on_c, 0, 65, 64
2, 15039, Note_off_c, 0, 65, 64
2, 15039, Note_on_c, 0, 67, 64
2, 15119, Note_off_c, 0, 67, 64
2, 15120, Note_on_c, 0, 57, 64
2, 15120, Note_on_c, 0, 67, 64
2, 15360, Note_off_c, 0, 67, 64
2, 15360, Note_off_c, 0, 57, 64
2, 15360, Note_on_c, 0, 65, 64
2, 15450, Note_off_c, 0, 65, 64
2, 15480, Note_on_c, 0, 63, 64
2, 15570, Note_off_c, 0, 63, 64
2, 15600, Note_on_c, 0, 62, 64
2, 15690, Note_off_c, 0, 62, 64
2, 15720, Note_on_c, 0, 60, 64
2, 15810, Note_off_c, 0, 60, 64
2, 15840, Note_on_c, 0, 62, 64
2, 15930, Note_off_c, 0, 62, 64
2, 15960, Note_on_c, 0, 58, 64
2, 16050, Note_off_c, 0, 58, 64
2, 16080, Note_on_c, 0, 51, 64
2, 16170, Note_off_c, 0, 51, 64
2, 16200, Note_on_c, 0, 60, 64
2, 16290, Note_off_c, 0, 60, 64
2, 16320, Note_on_c, 0, 53, 64
2, 16410, Note_off_c, 0, 53, 64
2, 16440, Note_on_c, 0, 57, 64
2, 16530, Note_off_c, 0, 57, 64
2, 16560, Note_on_c, 0, 58, 64
2, 16800, Note_off_c, 0, 58, 64
2, 16800, Note_on_c, 0, 46, 64
2, 16860, Note_off_c, 0, 46, 64
2, 16860, Note_on_c, 0, 58, 64
2, 16920, Note_off_c, 0, 58, 64
2, 16920, Note_on_c, 0, 57, 64
2, 16980, Note_off_c, 0, 57, 64
2, 16980, Note_on_c, 0, 55, 64
2, 17040, Note_off_c, 0, 55, 64
2, 17040, Note_on_c, 0, 53, 64
2, 17100, Note_off_c, 0, 53, 64
2, 17100, Note_on_c, 0, 55, 64
2, 17160, Note_off_c, 0, 55, 64
2, 17160, Note_on_c, 0, 53, 64
2, 17220, Note_off_c, 0, 53, 64
2, 17220, Note_on_c, 0, 51, 64
2, 17280, Note_off_c, 0, 51, 64
2, 17280, Note_on_c, 0, 50, 64
2, 17359, Note_off_c, 0, 50, 64
2, 17359, Note_on_c, 0, 46, 64
2, 17439, Note_off_c, 0, 46, 64
2, 17439, Note_on_c, 0, 48, 64
2, 17519, Note_off_c, 0, 48, 64
2, 17520, Note_on_c, 0, 50, 64
2, 17599, Note_off_c, 0, 50, 64
2, 17599, Note_on_c, 0, 51, 64
2, 17679, Note_off_c, 0, 51, 64
2, 17679, Note_on_c, 0, 53, 64
2, 17759, Note_off_c, 0, 53, 64
2, 17760, Note_on_c, 0, 53, 64
2, 17839, Note_off_c, 0, 53, 64
2, 17839, Note_on_c, 0, 55, 64
2, 17919, Note_off_c, 0, 55, 64
2, 17919, Note_on_c, 0, 57, 64
2, 17999, Note_off_c, 0, 57, 64
2, 18000, Note_on_c, 0, 58, 64
2, 18120, Note_off_c, 0, 58, 64
2, 18120, Note_on_c, 0, 50, 64
2, 18240, Note_off_c, 0, 50, 64
2, 18240, Note_on_c, 0, 41, 64
2, 18240, Note_on_c, 0, 48, 64
2, 18600, Note_off_c, 0, 48, 64
2, 18600, Note_on_c, 0, 46, 64
2, 18700, Note_off_c, 0, 46, 64
2, 18700, Note_off_c, 0, 41, 64
2, 18720, Note_on_c, 0, 46, 64
2, 19200, Note_off_c, 0, 46, 64
2, 19300, Note_on_c, 0, 51, 64
2, 19420, Note_off_c, 0, 51, 64
2, 19440, Note_on_c, 0, 51, 64
2, 19530, Note_off_c, 0, 51, 64
2, 19560, Note_on_c, 0, 46, 64
2, 19650, Note_off_c, 0, 46, 64
2, 19680, Note_on_c, 0, 48, 64
2, 19770, Note_off_c, 0, 48, 64
2, 19800, Note_on_c, 0, 44, 64
2, 19890, Note_off_c, 0, 44, 64
2, 19920, Note_on_c, 0, 41, 64
2, 20010, Note_off_c, 0, 41, 64
2, 20040, Note_on_c, 0, 50, 64
2, 20130, Note_off_c, 0, 50, 64
2, 20160, Note_on_c, 0, 51, 64
2, 20400, Note_off_c, 0, 51, 64
2, 20400, Note_on_c, 0, 39, 64
2, 20460, Note_off_c, 0, 39, 64
2, 20460, Note_on_c, 0, 50, 64
2, 20520, Note_off_c, 0, 50, 64
2, 20520, Note_on_c, 0, 51, 64
2, 20580, Note_off_c, 0, 51, 64
2, 20580, Note_on_c, 0, 53, 64
2, 20640, Note_off_c, 0, 53, 64
2, 20640, Note_on_c, 0, 55, 64
2, 20700, Note_off_c, 0, 55, 64
2, 20700, Note_on_c, 0, 53, 64
2, 20760, Note_off_c, 0, 53, 64
2, 20760, Note_on_c, 0, 55, 64
2, 20820, Note_off_c, 0, 55, 64
2, 20820, Note_on_c, 0, 57, 64
2, 20880, Note_off_c, 0, 57, 64
2, 20880, Note_on_c, 0, 58, 64
2, 20970, Note_off_c, 0, 58, 64
2, 21000, Note_on_c, 0, 53, 64
2, 21090, Note_off_c, 0, 53, 64
2, 21120, Note_on_c, 0, 55, 64
2, 21210, Note_off_c, 0, 55, 64
2, 21240, Note_on_c, 0, 51, 64
2, 21330, Note_off_c, 0, 51, 64
2, 21360, Note_on_c, 0, 48, 64
2, 21450, Note_off_c, 0, 48, 64
2, 21480, Note_on_c, 0, 57, 64
2, 21570, Note_off_c, 0, 57, 64
2, 21600, Note_on_c, 0, 58, 64
2, 21840, Note_off_c, 0, 58, 64
2, 21840, Note_on_c, 0, 46, 64
2, 21940, Note_off_c, 0, 46, 64
2, 21960, Note_on_c, 0, 46, 72
2, 21990, Note_off_c, 0, 46, 52
2, 21990, Note_on_c, 0, 44, 48
2, 22020, Note_off_c, 0, 44, 42
2, 22020, Note_on_c, 0, 46, 56
2, 22050, Note_off_c, 0, 46, 44
2, 22050, Note_on_c, 0, 44, 64
2, 22080, Note_off_c, 0, 44, 45
2, 22080, Note_on_c, 0, 43, 64
2, 22200, Note_off_c, 0, 43, 64
2, 22200, Note_on_c, 0, 51, 64
2, 22290, Note_off_c, 0, 51, 64
2, 22320, Note_on_c, 0, 44, 64
2, 22399, Note_off_c, 0, 44, 64
2, 22399, Note_on_c, 0, 46, 64
2, 22479, Note_off_c, 0, 46, 64
2, 22479, Note_on_c, 0, 48, 64
2, 22559, Note_off_c, 0, 48, 64
2, 22560, Note_on_c, 0, 48, 64
2, 22639, Note_off_c, 0, 48, 64
2, 22639, Note_on_c, 0, 50, 64
2, 22719, Note_off_c, 0, 50, 64
2, 22719, Note_on_c, 0, 51, 64
2, 22799, Note_off_c, 0, 51, 64
2, 22800, Note_on_c, 0, 53, 64
2, 22879, Note_off_c, 0, 53, 64
2, 22879, Note_on_c, 0, 55, 64
2, 22959, Note_off_c, 0, 55, 64
2, 22959, Note_on_c, 0, 56, 64
2, 23039, Note_off_c, 0, 56, 64
2, 23040, Note_on_c, 0, 43, 64
2, 23119, Note_off_c, 0, 43, 64
2, 23119, Note_on_c, 0, 44, 64
2, 23199, Note_off_c, 0, 44, 64
2, 23199, Note_on_c, 0, 46, 64
2, 23279, Note_off_c, 0, 46, 64
2, 23280, Note_on_c, 0, 46, 64
2, 23359, Note_off_c, 0, 46, 64
2, 23359, Note_on_c, 0, 48, 64
2, 23439, Note_off_c, 0, 48, 64
2, 23439, Note_on_c, 0, 50, 64
2, 23519, Note_off_c, 0, 50, 64
2, 23520, Note_on_c, 0, 51, 64
2, 23599, Note_off_c, 0, 51, 64
2, 23599, Note_on_c, 0, 53, 64
2, 23679, Note_off_c, 0, 53, 64
2, 23679, Note_on_c, 0, 55, 64
2, 23759, Note_off_c, 0, 55, 64
2, 23760, Note_on_c, 0, 53, 64
2, 23839, Note_off_c, 0, 53, 64
2, 23839, Note_on_c, 0, 55, 64
2, 23919, Note_off_c, 0, 55, 64
2, 23919, Note_on_c, 0, 56, 64
2, 23999, Note_off_c, 0, 56, 64
2, 24000, Note_on_c, 0, 55, 64
2, 24079, Note_off_c, 0, 55, 64
2, 24079, Note_on_c, 0, 53, 64
2, 24159, Note_off_c, 0, 53, 64
2, 24159, Note_on_c, 0, 51, 64
2, 24239, Note_off_c, 0, 51, 64
2, 24240, Note_on_c, 0, 46, 64
2, 24319, Note_off_c, 0, 46, 64
2, 24319, Note_on_c, 0, 51, 64
2, 24399, Note_off_c, 0, 51, 64
2, 24399, Note_on_c, 0, 50, 64
2, 24479, Note_off_c, 0, 50, 64
2, 24480, Note_on_c, 0, 51, 64
2, 24720, Note_off_c, 0, 51, 64
2, 24720, Note_on_c, 0, 39, 64
2, 24780, Note_off_c, 0, 39, 64
2, 24780, Note_on_c, 0, 46, 64
2, 24840, Note_off_c, 0, 46, 64
2, 24840, Note_on_c, 0, 48, 64
2, 24900, Note_off_c, 0, 48, 64
2, 24900, Note_on_c, 0, 50, 64
2, 24960, Note_off_c, 0, 50, 64
2, 24960, Note_on_c, 0, 51, 64
2, 25020, Note_off_c, 0, 51, 64
2, 25020, Note_on_c, 0, 50, 64
2, 25080, Note_off_c, 0, 50, 64
2, 25080, Note_on_c, 0, 51, 64
2, 25140, Note_off_c, 0, 51, 64
2, 25140, Note_on_c, 0, 53, 64
2, 25200, Note_off_c, 0, 53, 64
2, 25200, Note_on_c, 0, 55, 64
2, 25290, Note_off_c, 0, 55, 64
2, 25320, Note_on_c, 0, 51, 64
2, 25410, Note_off_c, 0, 51, 64
2, 25440, Note_on_c, 0, 55, 64
2, 25530, Note_off_c, 0, 55, 64
2, 25560, Note_on_c, 0, 50, 64
2, 25650, Note_off_c, 0, 50, 64
2, 25680, Note_on_c, 0, 48, 64
2, 25770, Note_off_c, 0, 48, 64
2, 25800, Note_on_c, 0, 58, 64
2, 25890, Note_off_c, 0, 58, 64
2, 25920, Note_on_c, 0, 57, 64
2, 26160, Note_off_c, 0, 57, 64
2, 26160, Note_on_c, 0, 39, 64
2, 26220, Note_off_c, 0, 39, 64
2, 26220, Note_on_c, 0, 48, 64
2, 26280, Note_off_c, 0, 48, 64
2, 26280, Note_on_c, 0, 50, 64
2, 26340, Note_off_c, 0, 50, 64
2, 26340, Note_on_c, 0, 51, 64
2, 26400, Note_off_c, 0, 51, 64
2, 26400, Note_on_c, 0, 53, 64
2, 26460, Note_off_c, 0, 53, 64
2, 26460, Note_on_c, 0, 51, 64
2, 26520, Note_off_c, 0, 51, 64
2, 26520, Note_on_c, 0, 53, 64
2, 26580, Note_off_c, 0, 53, 64
2, 26580, Note_on_c, 0, 55, 64
2, 26640, Note_off_c, 0, 55, 64
2, 26640, Note_on_c, 0, 57, 64
2, 26730, Note_off_c, 0, 57, 64
2, 26760, Note_on_c, 0, 53, 64
2, 26850, Note_off_c, 0, 53, 64
2, 26880, Note_on_c, 0, 57, 64
2, 26970, Note_off_c, 0, 57, 64
2, 27000, Note_on_c, 0, 51, 64
2, 27090, Note_off_c, 0, 51, 64
2, 27120, Note_on_c, 0, 50, 64
2, 27210, Note_off_c, 0, 50, 64
2, 27240, Note_on_c, 0, 60, 64
2, 27330, Note_off_c, 0, 60, 64
2, 27360, Note_on_c, 0, 58, 64
2, 27600, Note_off_c, 0, 58, 64
2, 27600, Note_on_c, 0, 38, 64
2, 27660, Note_off_c, 0, 38, 64
2, 27660, Note_on_c, 0, 50, 64
2, 27720, Note_off_c, 0, 50, 64
2, 27720, Note_on_c, 0, 51, 64
2, 27780, Note_off_c, 0, 51, 64
2, 27780, Note_on_c, 0, 53, 64
2, 27840, Note_off_c, 0, 53, 64
2, 27840, Note_on_c, 0, 55, 64
2, 27900, Note_off_c, 0, 55, 64
2, 27900, Note_on_c, 0, 53, 64
2, 27960, Note_off_c, 0, 53, 64
2, 27960, Note_on_c, 0, 55, 64
2, 28020, Note_off_c, 0, 55, 64
2, 28020, Note_on_c, 0, 57, 64
2, 28080, Note_off_c, 0, 57, 64
2, 28080, Note_on_c, 0, 58, 64
2, 28170, Note_off_c, 0, 58, 64
2, 28200, Note_on_c, 0, 55, 64
2, 28290, Note_off_c, 0, 55, 64
2, 28320, Note_on_c, 0, 58, 64
2, 28410, Note_off_c, 0, 58, 64
2, 28440, Note_on_c, 0, 53, 64
2, 28530, Note_off_c, 0, 53, 64
2, 28560, Note_on_c, 0, 51, 64
2, 28650, Note_off_c, 0, 51, 64
2, 28680, Note_on_c, 0, 62, 64
2, 28770, Note_off_c, 0, 62, 64
2, 28800, Note_on_c, 0, 60, 64
2, 28890, Note_off_c, 0, 60, 64
2, 28920, Note_on_c, 0, 57, 64
2, 29010, Note_off_c, 0, 57, 64
2, 29040, Note_on_c, 0, 60, 64
2, 29130, Note_off_c, 0, 60, 64
2, 29160, Note_on_c, 0, 55, 64
2, 29250, Note_off_c, 0, 55, 64
2, 29280, Note_on_c, 0, 53, 64
2, 29370, Note_off_c, 0, 53, 64
2, 29400, Note_on_c, 0, 63, 64
2, 29490, Note_off_c, 0, 63, 64
2, 29520, Note_on_c, 0, 62, 64
2, 29610, Note_off_c, 0, 62, 64
2, 29640, Note_on_c, 0, 58, 64
2, 29730, Note_off_c, 0, 58, 64
2, 29760, Note_on_c, 0, 62, 64
2, 29850, Note_off_c, 0, 62, 64
2, 29880, Note_on_c, 0, 57, 64
2, 29970, Note_off_c, 0, 57, 64
2, 30000, Note_on_c, 0, 55, 64
2, 30090, Note_off_c, 0, 55, 64
2, 30120, Note_on_c, 0, 65, 64
2, 30210, Note_off_c, 0, 65, 64
2, 30240, Note_on_c, 0, 63, 64
2, 30330, Note_off_c, 0, 63, 64
2, 30360, Note_on_c, 0, 60, 64
2, 30450, Note_off_c, 0, 60, 64
2, 30480, Note_on_c, 0, 63, 64
2, 30570, Note_off_c, 0, 63, 64
2, 30600, Note_on_c, 0, 57, 64
2, 30690, Note_off_c, 0, 57, 64
2, 30720, Note_on_c, 0, 53, 64
2, 30810, Note_off_c, 0, 53, 64
2, 30840, Note_on_c, 0, 63, 64
2, 30930, Note_off_c, 0, 63, 64
2, 30960, Note_on_c, 0, 62, 64
2, 31050, Note_off_c, 0, 62, 64
2, 31080, Note_on_c, 0, 58, 64
2, 31170, Note_off_c, 0, 58, 64
2, 31200, Note_on_c, 0, 62, 64
2, 31290, Note_off_c, 0, 62, 64
2, 31320, Note_on_c, 0, 55, 64
2, 31410, Note_off_c, 0, 55, 64
2, 31440, Note_on_c, 0, 51, 64
2, 31530, Note_off_c, 0, 51, 64
2, 31560, Note_on_c, 0, 60, 64
2, 31650, Note_off_c, 0, 60, 64
2, 31680, Note_on_c, 0, 53, 64
2, 31680, Note_on_c, 0, 57, 64
2, 31920, Note_off_c, 0, 53, 64
2, 31999, Note_off_c, 0, 57, 64
2, 31999, Note_on_c, 0, 53, 64
2, 32079, Note_off_c, 0, 53, 64
2, 32079, Note_on_c, 0, 55, 64
2, 32159, Note_off_c, 0, 55, 64
2, 32160, Note_on_c, 0, 57, 64
2, 32239, Note_off_c, 0, 57, 64
2, 32239, Note_on_c, 0, 58, 64
2, 32319, Note_off_c, 0, 58, 64
2, 32319, Note_on_c, 0, 60, 64
2, 32399, Note_off_c, 0, 60, 64
2, 32400, Note_on_c, 0, 51, 64
2, 32400, Note_on_c, 0, 60, 64
2, 32640, Note_off_c, 0, 51, 64
2, 32719, Note_off_c, 0, 60, 64
2, 32719, Note_on_c, 0, 57, 64
2, 32799, Note_off_c, 0, 57, 64
2, 32799, Note_on_c, 0, 58, 64
2, 32879, Note_off_c, 0, 58, 64
2, 32880, Note_on_c, 0, 60, 64
2, 32959, Note_off_c, 0, 60, 64
2, 32959, Note_on_c, 0, 62, 64
2, 33039, Note_off_c, 0, 62, 64
2, 33039, Note_on_c, 0, 63, 64
2, 33119, Note_off_c, 0, 63, 64
2, 33120, Note_on_c, 0, 57, 64
2, 33120, Note_on_c, 0, 48, 64
2, 33120, Note_on_c, 0, 63, 64
2, 33360, Note_off_c, 0, 48, 64
2, 33360, Note_off_c, 0, 57, 64
2, 33439, Note_off_c, 0, 63, 64
2, 33439, Note_on_c, 0, 60, 64
2, 33519, Note_off_c, 0, 60, 64
2, 33519, Note_on_c, 0, 62, 64
2, 33599, Note_off_c, 0, 62, 64
2, 33600, Note_on_c, 0, 63, 64
2, 33679, Note_off_c, 0, 63, 64
2, 33679, Note_on_c, 0, 65, 64
2, 33759, Note_off_c, 0, 65, 64
2, 33759, Note_on_c, 0, 67, 64
2, 33839, Note_off_c, 0, 67, 64
2, 33840, Note_on_c, 0, 57, 64
2, 33840, Note_on_c, 0, 67, 64
2, 34080, Note_off_c, 0, 67, 64
2, 34080, Note_off_c, 0, 57, 64
2, 34080, Note_on_c, 0, 65, 64
2, 34170, Note_off_c, 0, 65, 64
2, 34200, Note_on_c, 0, 63, 64
2, 34290, Note_off_c, 0, 63, 64
2, 34320, Note_on_c, 0, 62, 64
2, 34410, Note_off_c, 0, 62, 64
2, 34440, Note_on_c, 0, 60, 64
2, 34530, Note_off_c, 0, 60, 64
2, 34560, Note_on_c, 0, 62, 64
2, 34650, Note_off_c, 0, 62, 64
2, 34680, Note_on_c, 0, 58, 64
2, 34770, Note_off_c, 0, 58, 64
2, 34800, Note_on_c, 0, 51, 64
2, 34890, Note_off_c, 0, 51, 64
2, 34920, Note_on_c, 0, 60, 64
2, 35010, Note_off_c, 0, 60, 64
2, 35040, Note_on_c, 0, 53, 64
2, 35130, Note_off_c, 0, 53, 64
2, 35160, Note_on_c, 0, 57, 64
2, 35250, Note_off_c, 0, 57, 64
2, 35280, Note_on_c, 0, 58, 64
2, 35520, Note_off_c, 0, 58, 64
2, 35520, Note_on_c, 0, 46, 64
2, 35580, Note_off_c, 0, 46, 64
2, 35580, Note_on_c, 0, 58, 64
2, 35640, Note_off_c, 0, 58, 64
2, 35640, Note_on_c, 0, 57, 64
2, 35700, Note_off_c, 0, 57, 64
2, 35700, Note_on_c, 0, 55, 64
2, 35760, Note_off_c, 0, 55, 64
2, 35760, Note_on_c, 0, 53, 64
2, 35820, Note_off_c, 0, 53, 64
2, 35820, Note_on_c, 0, 55, 64
2, 35880, Note_off_c, 0, 55, 64
2, 35880, Note_on_c, 0, 53, 64
2, 35940, Note_off_c, 0, 53, 64
2, 35940, Note_on_c, 0, 51, 64
2, 36000, Note_off_c, 0, 51, 64
2, 36000, Note_on_c, 0, 50, 64
2, 36079, Note_off_c, 0, 50, 64
2, 36079, Note_on_c, 0, 46, 64
2, 36159, Note_off_c, 0, 46, 64
2, 36159, Note_on_c, 0, 48, 64
2, 36239, Note_off_c, 0, 48, 64
2, 36240, Note_on_c, 0, 50, 64
2, 36319, Note_off_c, 0, 50, 64
2, 36319, Note_on_c, 0, 51, 64
2, 36399, Note_off_c, 0, 51, 64
2, 36399, Note_on_c, 0, 53, 64
2, 36479, Note_off_c, 0, 53, 64
2, 36480, Note_on_c, 0, 53, 64
2, 36559, Note_off_c, 0, 53, 64
2, 36559, Note_on_c, 0, 55, 64
2, 36639, Note_off_c, 0, 55, 64
2, 36639, Note_on_c, 0, 57, 64
2, 36719, Note_off_c, 0, 57, 64
2, 36720, Note_on_c, 0, 58, 64
2, 36840, Note_off_c, 0, 58, 64
2, 36840, Note_on_c, 0, 50, 64
2, 36960, Note_off_c, 0, 50, 64
2, 36960, Note_on_c, 0, 41, 64
2, 36960, Note_on_c, 0, 48, 64
2, 37320, Note_off_c, 0, 48, 64
2, 37320, Note_on_c, 0, 46, 64
2, 37420, Note_off_c, 0, 46, 64
2, 37420, Note_off_c, 0, 41, 64
2, 37440, Note_on_c, 0, 46, 64
2, 37920, Note_off_c, 0, 46, 64
2, 38040, Note_on_c, 0, 53, 64
2, 38140, Note_off_c, 0, 53, 64
2, 38160, Note_on_c, 0, 53, 64
2, 38250, Note_off_c, 0, 53, 64
2, 38280, Note_on_c, 0, 50, 64
2, 38370, Note_off_c, 0, 50, 64
2, 38400, Note_on_c, 0, 55, 64
2, 38490, Note_off_c, 0, 55, 64
2, 38520, Note_on_c, 0, 51, 64
2, 38610, Note_off_c, 0, 51, 64
2, 38640, Note_on_c, 0, 45, 64
2, 38730, Note_off_c, 0, 45, 64
2, 38760, Note_on_c, 0, 53, 64
2, 38850, Note_off_c, 0, 53, 64
2, 38880, Note_on_c, 0, 50, 64
2, 39120, Note_off_c, 0, 50, 64
2, 39120, Note_on_c, 0, 46, 64
2, 39240, Note_off_c, 0, 46, 64
2, 39240, Note_on_c, 0, 48, 64
2, 39300, Note_off_c, 0, 48, 64
2, 39300, Note_on_c, 0, 50, 64
2, 39360, Note_off_c, 0, 50, 64
2, 39360, Note_on_c, 0, 51, 64
2, 39420, Note_off_c, 0, 51, 64
2, 39420, Note_on_c, 0, 50, 64
2, 39480, Note_off_c, 0, 50, 64
2, 39480, Note_on_c, 0, 51, 64
2, 39540, Note_off_c, 0, 51, 64
2, 39540, Note_on_c, 0, 53, 64
2, 39600, Note_off_c, 0, 53, 64
2, 39600, Note_on_c, 0, 55, 64
2, 39690, Note_off_c, 0, 55, 64
2, 39720, Note_on_c, 0, 51, 64
2, 39810, Note_off_c, 0, 51, 64
2, 39840, Note_on_c, 0, 56, 64
2, 39930, Note_off_c, 0, 56, 64
2, 39960, Note_on_c, 0, 53, 64
2, 40050, Note_off_c, 0, 53, 64
2, 40080, Note_on_c, 0, 47, 64
2, 40170, Note_off_c, 0, 47, 64
2, 40200, Note_on_c, 0, 55, 64
2, 40290, Note_off_c, 0, 55, 64
2, 40320, Note_on_c, 0, 51, 64
2, 40560, Note_off_c, 0, 51, 64
2, 40560, Note_on_c, 0, 48, 64
2, 40620, Note_off_c, 0, 48, 64
2, 40620, Note_on_c, 0, 55, 64
2, 40680, Note_off_c, 0, 55, 64
2, 40680, Note_on_c, 0, 57, 64
2, 40740, Note_off_c, 0, 57, 64
2, 40740, Note_on_c, 0, 59, 64
2, 40800, Note_off_c, 0, 59, 64
2, 40800, Note_on_c, 0, 60, 64
2, 40860, Note_off_c, 0, 60, 64
2, 40860, Note_on_c, 0, 59, 64
2, 40920, Note_off_c, 0, 59, 64
2, 40920, Note_on_c, 0, 60, 64
2, 40980, Note_off_c, 0, 60, 64
2, 40980, Note_on_c, 0, 62, 64
2, 41040, Note_off_c, 0, 62, 64
2, 41040, Note_on_c, 0, 63, 64
2, 41130, Note_off_c, 0, 63, 64
2, 41160, Note_on_c, 0, 62, 64
2, 41250, Note_off_c, 0, 62, 64
2, 41280, Note_on_c, 0, 63, 64
2, 41370, Note_off_c, 0, 63, 64
2, 41400, Note_on_c, 0, 60, 64
2, 41490, Note_off_c, 0, 60, 64
2, 41520, Note_on_c, 0, 63, 64
2, 41610, Note_off_c, 0, 63, 64
2, 41640, Note_on_c, 0, 58, 64
2, 41730, Note_off_c, 0, 58, 64
2, 41760, Note_on_c, 0, 63, 64
2, 41850, Note_off_c, 0, 63, 64
2, 41880, Note_on_c, 0, 57, 64
2, 41970, Note_off_c, 0, 57, 64
2, 42000, Note_on_c, 0, 63, 64
2, 42090, Note_off_c, 0, 63, 64
2, 42120, Note_on_c, 0, 55, 64
2, 42210, Note_off_c, 0, 55, 64
2, 42240, Note_on_c, 0, 53, 64
2, 42330, Note_off_c, 0, 53, 64
2, 42360, Note_on_c, 0, 63, 64
2, 42450, Note_off_c, 0, 63, 64
2, 42480, Note_on_c, 0, 62, 64
2, 42570, Note_off_c, 0, 62, 64
2, 42600, Note_on_c, 0, 60, 64
2, 42690, Note_off_c, 0, 60, 64
2, 42720, Note_on_c, 0, 62, 64
2, 42810, Note_off_c, 0, 62, 64
2, 42840, Note_on_c, 0, 58, 64
2, 42930, Note_off_c, 0, 58, 64
2, 42960, Note_on_c, 0, 62, 64
2, 43050, Note_off_c, 0, 62, 64
2, 43080, Note_on_c, 0, 57, 64
2, 43170, Note_off_c, 0, 57, 64
2, 43200, Note_on_c, 0, 62, 64
2, 43290, Note_off_c, 0, 62, 64
2, 43320, Note_on_c, 0, 55, 64
2, 43410, Note_off_c, 0, 55, 64
2, 43440, Note_on_c, 0, 62, 64
2, 43530, Note_off_c, 0, 62, 64
2, 43560, Note_on_c, 0, 53, 64
2, 43650, Note_off_c, 0, 53, 64
2, 43680, Note_on_c, 0, 51, 64
2, 43770, Note_off_c, 0, 51, 64
2, 43800, Note_on_c, 0, 61, 64
2, 43890, Note_off_c, 0, 61, 64
2, 43920, Note_on_c, 0, 60, 64
2, 44010, Note_off_c, 0, 60, 64
2, 44040, Note_on_c, 0, 58, 64
2, 44130, Note_off_c, 0, 58, 64
2, 44160, Note_on_c, 0, 60, 64
2, 44250, Note_off_c, 0, 60, 64
2, 44280, Note_on_c, 0, 56, 64
2, 44370, Note_off_c, 0, 56, 64
2, 44400, Note_on_c, 0, 60, 64
2, 44490, Note_off_c, 0, 60, 64
2, 44520, Note_on_c, 0, 55, 64
2, 44610, Note_off_c, 0, 55, 64
2, 44640, Note_on_c, 0, 60, 64
2, 44730, Note_off_c, 0, 60, 64
2, 44760, Note_on_c, 0, 53, 64
2, 44850, Note_off_c, 0, 53, 64
2, 44880, Note_on_c, 0, 60, 64
2, 44970, Note_off_c, 0, 60, 64
2, 45000, Note_on_c, 0, 51, 64
2, 45090, Note_off_c, 0, 51, 64
2, 45120, Note_on_c, 0, 50, 64
2, 45210, Note_off_c, 0, 50, 64
2, 45240, Note_on_c, 0, 53, 64
2, 45330, Note_off_c, 0, 53, 64
2, 45360, Note_on_c, 0, 56, 64
2, 45450, Note_off_c, 0, 56, 64
2, 45480, Note_on_c, 0, 55, 64
2, 45570, Note_off_c, 0, 55, 64
2, 45600, Note_on_c, 0, 56, 64
2, 45690, Note_off_c, 0, 56, 64
2, 45720, Note_on_c, 0, 53, 64
2, 45810, Note_off_c, 0, 53, 64
2, 45840, Note_on_c, 0, 56, 64
2, 45930, Note_off_c, 0, 56, 64
2, 45960, Note_on_c, 0, 51, 64
2, 46050, Note_off_c, 0, 51, 64
2, 46080, Note_on_c, 0, 56, 64
2, 46170, Note_off_c, 0, 56, 64
2, 46200, Note_on_c, 0, 50, 64
2, 46290, Note_off_c, 0, 50, 64
2, 46320, Note_on_c, 0, 56, 64
2, 46410, Note_off_c, 0, 56, 64
2, 46440, Note_on_c, 0, 48, 64
2, 46530, Note_off_c, 0, 48, 64
2, 46560, Note_on_c, 0, 47, 64
2, 46650, Note_off_c, 0, 47, 64
2, 46680, Note_on_c, 0, 50, 64
2, 46770, Note_off_c, 0, 50, 64
2, 46800, Note_on_c, 0, 53, 64
2, 46890, Note_off_c, 0, 53, 64
2, 46920, Note_on_c, 0, 51, 64
2, 47010, Note_off_c, 0, 51, 64
2, 47040, Note_on_c, 0, 53, 64
2, 47130, Note_off_c, 0, 53, 64
2, 47160, Note_on_c, 0, 50, 64
2, 47250, Note_off_c, 0, 50, 64
2, 47280, Note_on_c, 0, 53, 64
2, 47370, Note_off_c, 0, 53, 64
2, 47400, Note_on_c, 0, 48, 64
2, 47490, Note_off_c, 0, 48, 64
2, 47520, Note_on_c, 0, 53, 64
2, 47610, Note_off_c, 0, 53, 64
2, 47640, Note_on_c, 0, 47, 64
2, 47730, Note_off_c, 0, 47, 64
2, 47760, Note_on_c, 0, 53, 64
2, 47850, Note_off_c, 0, 53, 64
2, 47880, Note_on_c, 0, 45, 64
2, 47970, Note_off_c, 0, 45, 64
2, 48000, Note_on_c, 0, 43, 64
2, 48090, Note_off_c, 0, 43, 64
2, 48120, Note_on_c, 0, 59, 64
2, 48210, Note_off_c, 0, 59, 64
2, 48240, Note_on_c, 0, 60, 64
2, 48330, Note_off_c, 0, 60, 64
2, 48360, Note_on_c, 0, 63, 64
2, 48450, Note_off_c, 0, 63, 64
2, 48480, Note_on_c, 0, 53, 64
2, 48570, Note_off_c, 0, 53, 64
2, 48600, Note_on_c, 0, 62, 64
2, 48690, Note_off_c, 0, 62, 64
2, 48720, Note_on_c, 0, 55, 64
2, 48810, Note_off_c, 0, 55, 64
2, 48840, Note_on_c, 0, 59, 64
2, 48930, Note_off_c, 0, 59, 64
2, 48960, Note_on_c, 0, 60, 64
2, 49200, Note_off_c, 0, 60, 64
2, 49200, Note_on_c, 0, 36, 64
2, 49260, Note_off_c, 0, 36, 64
2, 49260, Note_on_c, 0, 43, 64
2, 49320, Note_off_c, 0, 43, 64
2, 49320, Note_on_c, 0, 45, 64
2, 49380, Note_off_c, 0, 45, 64
2, 49380, Note_on_c, 0, 47, 64
2, 49440, Note_off_c, 0, 47, 64
2, 49440, Note_on_c, 0, 48, 64
2, 49500, Note_off_c, 0, 48, 64
2, 49500, Note_on_c, 0, 47, 64
2, 49560, Note_off_c, 0, 47, 64
2, 49560, Note_on_c, 0, 48, 64
2, 49620, Note_off_c, 0, 48, 64
2, 49620, Note_on_c, 0, 50, 64
2, 49680, Note_off_c, 0, 50, 64
2, 49680, Note_on_c, 0, 52, 64
2, 49740, Note_off_c, 0, 52, 64
2, 49740, Note_on_c, 0, 50, 64
2, 49800, Note_off_c, 0, 50, 64
2, 49800, Note_on_c, 0, 52, 64
2, 49860, Note_off_c, 0, 52, 64
2, 49860, Note_on_c, 0, 53, 64
2, 49920, Note_off_c, 0, 53, 64
2, 49920, Note_on_c, 0, 55, 64
2, 49980, Note_off_c, 0, 55, 64
2, 49980, Note_on_c, 0, 53, 64
2, 50040, Note_off_c, 0, 53, 64
2, 50040, Note_on_c, 0, 55, 64
2, 50100, Note_off_c, 0, 55, 64
2, 50100, Note_on_c, 0, 56, 64
2, 50160, Note_off_c, 0, 56, 64
2, 50160, Note_on_c, 0, 58, 64
2, 50220, Note_off_c, 0, 58, 64
2, 50220, Note_on_c, 0, 56, 64
2, 50280, Note_off_c, 0, 56, 64
2, 50280, Note_on_c, 0, 58, 64
2, 50340, Note_off_c, 0, 58, 64
2, 50340, Note_on_c, 0, 55, 64
2, 50400, Note_off_c, 0, 55, 64
2, 50400, Note_on_c, 0, 56, 64
2, 50479, Note_off_c, 0, 56, 64
2, 50479, Note_on_c, 0, 55, 64
2, 50559, Note_off_c, 0, 55, 64
2, 50559, Note_on_c, 0, 53, 64
2, 50639, Note_off_c, 0, 53, 64
2, 50640, Note_on_c, 0, 53, 64
2, 50719, Note_off_c, 0, 53, 64
2, 50719, Note_on_c, 0, 51, 64
2, 50799, Note_off_c, 0, 51, 64
2, 50799, Note_on_c, 0, 50, 64
2, 50879, Note_off_c, 0, 50, 64
2, 50880, Note_on_c, 0, 50, 64
2, 50959, Note_off_c, 0, 50, 64
2, 50959, Note_on_c, 0, 48, 64
2, 51039, Note_off_c, 0, 48, 64
2, 51039, Note_on_c, 0, 46, 64
2, 51119, Note_off_c, 0, 46, 64
2, 51120, Note_on_c, 0, 46, 64
2, 51180, Note_off_c, 0, 46, 64
2, 51180, Note_on_c, 0, 48, 64
2, 51240, Note_off_c, 0, 48, 64
2, 51240, Note_on_c, 0, 50, 64
2, 51300, Note_off_c, 0, 50, 64
2, 51300, Note_on_c, 0, 51, 64
2, 51360, Note_off_c, 0, 51, 64
2, 51360, Note_on_c, 0, 53, 64
2, 51420, Note_off_c, 0, 53, 64
2, 51420, Note_on_c, 0, 51, 64
2, 51480, Note_off_c, 0, 51, 64
2, 51480, Note_on_c, 0, 53, 64
2, 51540, Note_off_c, 0, 53, 64
2, 51540, Note_on_c, 0, 55, 64
2, 51600, Note_off_c, 0, 55, 64
2, 51600, Note_on_c, 0, 56, 64
2, 51660, Note_off_c, 0, 56, 64
2, 51660, Note_on_c, 0, 55, 64
2, 51720, Note_off_c, 0, 55, 64
2, 51720, Note_on_c, 0, 56, 64
2, 51780, Note_off_c, 0, 56, 64
2, 51780, Note_on_c, 0, 53, 64
2, 51840, Note_off_c, 0, 53, 64
2, 51840, Note_on_c, 0, 55, 64
2, 51919, Note_off_c, 0, 55, 64
2, 51919, Note_on_c, 0, 53, 64
2, 51999, Note_off_c, 0, 53, 64
2, 51999, Note_on_c, 0, 51, 64
2, 52079, Note_off_c, 0, 51, 64
2, 52080, Note_on_c, 0, 51, 64
2, 52159, Note_off_c, 0, 51, 64
2, 52159, Note_on_c, 0, 50, 64
2, 52239, Note_off_c, 0, 50, 64
2, 52239, Note_on_c, 0, 48, 64
2, 52319, Note_off_c, 0, 48, 64
2, 52320, Note_on_c, 0, 48, 64
2, 52399, Note_off_c, 0, 48, 64
2, 52399, Note_on_c, 0, 46, 64
2, 52479, Note_off_c, 0, 46, 64
2, 52479, Note_on_c, 0, 44, 64
2, 52559, Note_off_c, 0, 44, 64
2, 52560, Note_on_c, 0, 44, 64
2, 52680, Note_off_c, 0, 44, 64
2, 52680, Note_on_c, 0, 60, 64
2, 52740, Note_off_c, 0, 60, 64
2, 52740, Note_on_c, 0, 58, 64
2, 52800, Note_off_c, 0, 58, 64
2, 52800, Note_on_c, 0, 56, 64
2, 52860, Note_off_c, 0, 56, 64
2, 52860, Note_on_c, 0, 58, 64
2, 52920, Note_off_c, 0, 58, 64
2, 52920, Note_on_c, 0, 56, 64
2, 52980, Note_off_c, 0, 56, 64
2, 52980, Note_on_c, 0, 55, 64
2, 53040, Note_off_c, 0, 55, 64
2, 53040, Note_on_c, 0, 53, 64
2, 53100, Note_off_c, 0, 53, 64
2, 53100, Note_on_c, 0, 55, 64
2, 53160, Note_off_c, 0, 55, 64
2, 53160, Note_on_c, 0, 53, 64
2, 53220, Note_off_c, 0, 53, 64
2, 53220, Note_on_c, 0, 51, 64
2, 53280, Note_off_c, 0, 51, 64
2, 53280, Note_on_c, 0, 50, 64
2, 53340, Note_off_c, 0, 50, 64
2, 53340, Note_on_c, 0, 51, 64
2, 53400, Note_off_c, 0, 51, 64
2, 53400, Note_on_c, 0, 50, 64
2, 53460, Note_off_c, 0, 50, 64
2, 53460, Note_on_c, 0, 48, 64
2, 53520, Note_off_c, 0, 48, 64
2, 53520, Note_on_c, 0, 46, 64
2, 53580, Note_off_c, 0, 46, 64
2, 53580, Note_on_c, 0, 48, 64
2, 53640, Note_off_c, 0, 48, 64
2, 53640, Note_on_c, 0, 46, 64
2, 53700, Note_off_c, 0, 46, 64
2, 53700, Note_on_c, 0, 44, 64
2, 53760, Note_off_c, 0, 44, 64
2, 53760, Note_on_c, 0, 43, 64
2, 53820, Note_off_c, 0, 43, 64
2, 53820, Note_on_c, 0, 44, 64
2, 53880, Note_off_c, 0, 44, 64
2, 53880, Note_on_c, 0, 43, 64
2, 53940, Note_off_c, 0, 43, 64
2, 53940, Note_on_c, 0, 41, 64
2, 54000, Note_off_c, 0, 41, 64
2, 54000, Note_on_c, 0, 39, 64
2, 54090, Note_off_c, 0, 39, 64
2, 54120, Note_on_c, 0, 63, 64
2, 54210, Note_off_c, 0, 63, 64
2, 54240, Note_on_c, 0, 58, 64
2, 54300, Note_off_c, 0, 58, 64
2, 54300, Note_on_c, 0, 56, 64
2, 54360, Note_off_c, 0, 56, 64
2, 54360, Note_on_c, 0, 55, 64
2, 54420, Note_off_c, 0, 55, 64
2, 54420, Note_on_c, 0, 53, 64
2, 54480, Note_off_c, 0, 53, 64
2, 54480, Note_on_c, 0, 51, 64
2, 54570, Note_off_c, 0, 51, 64
2, 54600, Note_on_c, 0, 46, 64
2, 54690, Note_off_c, 0, 46, 64
2, 54720, Note_on_c, 0, 43, 64
2, 54810, Note_off_c, 0, 43, 64
2, 54840, Note_on_c, 0, 61, 64
2, 54930, Note_off_c, 0, 61, 64
2, 54960, Note_on_c, 0, 58, 64
2, 55020, Note_off_c, 0, 58, 64
2, 55020, Note_on_c, 0, 56, 64
2, 55080, Note_off_c, 0, 56, 64
2, 55080, Note_on_c, 0, 55, 64
2, 55140, Note_off_c, 0, 55, 64
2, 55140, Note_on_c, 0, 53, 64
2, 55200, Note_off_c, 0, 53, 64
2, 55200, Note_on_c, 0, 51, 64
2, 55320, Note_off_c, 0, 51, 64
2, 55320, Note_on_c, 0, 61, 64
2, 55440, Note_off_c, 0, 61, 64
2, 55440, Note_on_c, 0, 44, 64
2, 55530, Note_off_c, 0, 44, 64
2, 55560, Note_on_c, 0, 61, 64
2, 55650, Note_off_c, 0, 61, 64
2, 55680, Note_on_c, 0, 60, 64
2, 55740, Note_off_c, 0, 60, 64
2, 55740, Note_on_c, 0, 58, 64
2, 55800, Note_off_c, 0, 58, 64
2, 55800, Note_on_c, 0, 56, 64
2, 55860, Note_off_c, 0, 56, 64
2, 55860, Note_on_c, 0, 55, 64
2, 55920, Note_off_c, 0, 55, 64
2, 55920, Note_on_c, 0, 53, 64
2, 56040, Note_off_c, 0, 53, 64
2, 56040, Note_on_c, 0, 60, 64
2, 56160, Note_off_c, 0, 60, 64
2, 56160, Note_on_c, 0, 43, 64
2, 56250, Note_off_c, 0, 43, 64
2, 56280, Note_on_c, 0, 60, 64
2, 56370, Note_off_c, 0, 60, 64
2, 56400, Note_on_c, 0, 58, 64
2, 56460, Note_off_c, 0, 58, 64
2, 56460, Note_on_c, 0, 56, 64
2, 56520, Note_off_c, 0, 56, 64
2, 56520, Note_on_c, 0, 55, 64
2, 56580, Note_off_c, 0, 55, 64
2, 56580, Note_on_c, 0, 53, 64
2, 56640, Note_off_c, 0, 53, 64
2, 56640, Note_on_c, 0, 52, 64
2, 56760, Note_off_c, 0, 52, 64
2, 56760, Note_on_c, 0, 58, 64
2, 56880, Note_off_c, 0, 58, 64
2, 56880, Note_on_c, 0, 41, 64
2, 56970, Note_off_c, 0, 41, 64
2, 57000, Note_on_c, 0, 58, 64
2, 57090, Note_off_c, 0, 58, 64
2, 57120, Note_on_c, 0, 56, 64
2, 57180, Note_off_c, 0, 56, 64
2, 57180, Note_on_c, 0, 55, 64
2, 57240, Note_off_c, 0, 55, 64
2, 57240, Note_on_c, 0, 53, 64
2, 57300, Note_off_c, 0, 53, 64
2, 57300, Note_on_c, 0, 51, 64
2, 57360, Note_off_c, 0, 51, 64
2, 57360, Note_on_c, 0, 50, 64
2, 57480, Note_off_c, 0, 50, 64
2, 57480, Note_on_c, 0, 56, 64
2, 57600, Note_off_c, 0, 56, 64
2, 57600, Note_on_c, 0, 39, 64
2, 57690, Note_off_c, 0, 39, 64
2, 57720, Note_on_c, 0, 56, 64
2, 57810, Note_off_c, 0, 56, 64
2, 57840, Note_on_c, 0, 55, 64
2, 57900, Note_off_c, 0, 55, 64
2, 57900, Note_on_c, 0, 53, 64
2, 57960, Note_off_c, 0, 53, 64
2, 57960, Note_on_c, 0, 51, 64
2, 58020, Note_off_c, 0, 51, 64
2, 58020, Note_on_c, 0, 50, 64
2, 58080, Note_off_c, 0, 50, 64
2, 58080, Note_on_c, 0, 51, 64
2, 58200, Note_off_c, 0, 51, 64
2, 58200, Note_on_c, 0, 55, 64
2, 58320, Note_off_c, 0, 55, 64
2, 58320, Note_on_c, 0, 45, 64
2, 58440, Note_off_c, 0, 45, 64
2, 58440, Note_on_c, 0, 48, 64
2, 58560, Note_off_c, 0, 48, 64
2, 58560, Note_on_c, 0, 51, 64
2, 58680, Note_off_c, 0, 51, 64
2, 58680, Note_on_c, 0, 54, 64
2, 58800, Note_off_c, 0, 54, 64
2, 58800, Note_on_c, 0, 57, 64
2, 58920, Note_off_c, 0, 57, 64
2, 58920, Note_on_c, 0, 60, 64
2, 59040, Note_off_c, 0, 60, 64
2, 59040, Note_on_c, 0, 46, 64
2, 59040, Note_on_c, 0, 50, 64
2, 59280, Note_off_c, 0, 46, 64
2, 59359, Note_off_c, 0, 50, 64
2, 59359, Note_on_c, 0, 46, 64
2, 59439, Note_off_c, 0, 46, 64
2, 59439, Note_on_c, 0, 48, 64
2, 59519, Note_off_c, 0, 48, 64
2, 59520, Note_on_c, 0, 50, 64
2, 59599, Note_off_c, 0, 50, 64
2, 59599, Note_on_c, 0, 51, 64
2, 59679, Note_off_c, 0, 51, 64
2, 59679, Note_on_c, 0, 53, 64
2, 59759, Note_off_c, 0, 53, 64
2, 59760, Note_on_c, 0, 44, 64
2, 59760, Note_on_c, 0, 53, 64
2, 60000, Note_off_c, 0, 44, 64
2, 60079, Note_off_c, 0, 53, 64
2, 60079, Note_on_c, 0, 50, 64
2, 60159, Note_off_c, 0, 50, 64
2, 60159, Note_on_c, 0, 51, 64
2, 60239, Note_off_c, 0, 51, 64
2, 60240, Note_on_c, 0, 53, 64
2, 60319, Note_off_c, 0, 53, 64
2, 60319, Note_on_c, 0, 55, 64
2, 60399, Note_off_c, 0, 55, 64
2, 60399, Note_on_c, 0, 56, 64
2, 60460, Note_on_c, 0, 41, 64
2, 60479, Note_off_c, 0, 56, 64
2, 60480, Note_on_c, 0, 50, 64
2, 60520, Note_on_c, 0, 56, 64
2, 60580, Note_off_c, 0, 41, 64
2, 60720, Note_off_c, 0, 50, 64
2, 60780, Note_off_c, 0, 56, 64
2, 60799, Note_on_c, 0, 53, 64
2, 60879, Note_off_c, 0, 53, 64
2, 60879, Note_on_c, 0, 55, 64
2, 60959, Note_off_c, 0, 55, 64
2, 60960, Note_on_c, 0, 56, 64
2, 61039, Note_off_c, 0, 56, 64
2, 61039, Note_on_c, 0, 58, 64
2, 61119, Note_off_c, 0, 58, 64
2, 61119, Note_on_c, 0, 60, 64
2, 61192, Note_on_c, 0, 50, 64
2, 61199, Note_off_c, 0, 60, 64
2, 61200, Note_on_c, 0, 60, 64
2, 61432, Note_off_c, 0, 50, 64
2, 61440, Note_off_c, 0, 60, 64
2, 61440, Note_on_c, 0, 58, 64
2, 61560, Note_off_c, 0, 58, 64
2, 61560, Note_on_c, 0, 56, 64
2, 61680, Note_off_c, 0, 56, 64
2, 61680, Note_on_c, 0, 55, 64
2, 61770, Note_off_c, 0, 55, 64
2, 61800, Note_on_c, 0, 53, 64
2, 61890, Note_off_c, 0, 53, 64
2, 61920, Note_on_c, 0, 55, 64
2, 62010, Note_off_c, 0, 55, 64
2, 62040, Note_on_c, 0, 51, 64
2, 62130, Note_off_c, 0, 51, 64
2, 62160, Note_on_c, 0, 44, 64
2, 62250, Note_off_c, 0, 44, 64
2, 62280, Note_on_c, 0, 53, 64
2, 62370, Note_off_c, 0, 53, 64
2, 62400, Note_on_c, 0, 46, 64
2, 62490, Note_off_c, 0, 46, 64
2, 62520, Note_on_c, 0, 50, 64
2, 62610, Note_off_c, 0, 50, 64
2, 62640, Note_on_c, 0, 51, 64
2, 62880, Note_off_c, 0, 51, 64
2, 62880, Note_on_c, 0, 39, 64
2, 62940, Note_off_c, 0, 39, 64
2, 62940, Note_on_c, 0, 46, 64
2, 63000, Note_off_c, 0, 46, 64
2, 63000, Note_on_c, 0, 48, 64
2, 63060, Note_off_c, 0, 48, 64
2, 63060, Note_on_c, 0, 50, 64
2, 63120, Note_off_c, 0, 50, 64
2, 63120, Note_on_c, 0, 51, 64
2, 63180, Note_off_c, 0, 51, 64
2, 63180, Note_on_c, 0, 50, 64
2, 63240, Note_off_c, 0, 50, 64
2, 63240, Note_on_c, 0, 51, 64
2, 63300, Note_off_c, 0, 51, 64
2, 63300, Note_on_c, 0, 53, 64
2, 63360, Note_off_c, 0, 53, 64
2, 63360, Note_on_c, 0, 55, 64
2, 63439, Note_off_c, 0, 55, 64
2, 63439, Note_on_c, 0, 51, 64
2, 63519, Note_off_c, 0, 51, 64
2, 63519, Note_on_c, 0, 53, 64
2, 63599, Note_off_c, 0, 53, 64
2, 63600, Note_on_c, 0, 55, 64
2, 63679, Note_off_c, 0, 55, 64
2, 63679, Note_on_c, 0, 56, 64
2, 63759, Note_off_c, 0, 56, 64
2, 63759, Note_on_c, 0, 58, 64
2, 63839, Note_off_c, 0, 58, 64
2, 63840, Note_on_c, 0, 58, 64
2, 63919, Note_off_c, 0, 58, 64
2, 63919, Note_on_c, 0, 60, 64
2, 63999, Note_off_c, 0, 60, 64
2, 63999, Note_on_c, 0, 62, 64
2, 64079, Note_off_c, 0, 62, 64
2, 64080, Note_on_c, 0, 63, 64
2, 64200, Note_off_c, 0, 63, 64
2, 64200, Note_on_c, 0, 55, 64
2, 64320, Note_off_c, 0, 55, 64
2, 64320, Note_on_c, 0, 53, 64
2, 64320, Note_on_c, 0, 46, 64
2, 64660, Note_off_c, 0, 53, 64
2, 64680, Note_on_c, 0, 51, 64
2, 64770, Note_off_c, 0, 51, 64
2, 64780, Note_off_c, 0, 46, 64
2, 64800, Note_on_c, 0, 39, 64
2, 64820, Note_on_c, 0, 46, 64
2, 64840, Note_on_c, 0, 51, 64
2, 65280, Note_off_c, 0, 51, 64
2, 65280, Note_off_c, 0, 46, 64
2, 65280, Note_off_c, 0, 39, 64
2, 65400, Note_on_c, 0, 53, 64
2, 65500, Note_off_c, 0, 53, 64
2, 65520, Note_on_c, 0, 53, 64
2, 65610, Note_off_c, 0, 53, 64
2, 65640, Note_on_c, 0, 50, 64
2, 65730, Note_off_c, 0, 50, 64
2, 65760, Note_on_c, 0, 55, 64
2, 65850, Note_off_c, 0, 55, 64
2, 65880, Note_on_c, 0, 51, 64
2, 65970, Note_off_c, 0, 51, 64
2, 66000, Note_on_c, 0, 45, 64
2, 66090, Note_off_c, 0, 45, 64
2, 66120, Note_on_c, 0, 53, 64
2, 66210, Note_off_c, 0, 53, 64
2, 66240, Note_on_c, 0, 50, 64
2, 66480, Note_off_c, 0, 50, 64
2, 66480, Note_on_c, 0, 46, 64
2, 66600, Note_off_c, 0, 46, 64
2, 66600, Note_on_c, 0, 48, 64
2, 66660, Note_off_c, 0, 48, 64
2, 66660, Note_on_c, 0, 50, 64
2, 66720, Note_off_c, 0, 50, 64
2, 66720, Note_on_c, 0, 51, 64
2, 66780, Note_off_c, 0, 51, 64
2, 66780, Note_on_c, 0, 50, 64
2, 66840, Note_off_c, 0, 50, 64
2, 66840, Note_on_c, 0, 51, 64
2, 66900, Note_off_c, 0, 51, 64
2, 66900, Note_on_c, 0, 53, 64
2, 66960, Note_off_c, 0, 53, 64
2, 66960, Note_on_c, 0, 55, 64
2, 67050, Note_off_c, 0, 55, 64
2, 67080, Note_on_c, 0, 51, 64
2, 67170, Note_off_c, 0, 51, 64
2, 67200, Note_on_c, 0, 56, 64
2, 67290, Note_off_c, 0, 56, 64
2, 67320, Note_on_c, 0, 53, 64
2, 67410, Note_off_c, 0, 53, 64
2, 67440, Note_on_c, 0, 47, 64
2, 67530, Note_off_c, 0, 47, 64
2, 67560, Note_on_c, 0, 55, 64
2, 67650, Note_off_c, 0, 55, 64
2, 67680, Note_on_c, 0, 51, 64
2, 67920, Note_off_c, 0, 51, 64
2, 67920, Note_on_c, 0, 48, 64
2, 67980, Note_off_c, 0, 48, 64
2, 67980, Note_on_c, 0, 55, 64
2, 68040, Note_off_c, 0, 55, 64
2, 68040, Note_on_c, 0, 57, 64
2, 68100, Note_off_c, 0, 57, 64
2, 68100, Note_on_c, 0, 59, 64
2, 68160, Note_off_c, 0, 59, 64
2, 68160, Note_on_c, 0, 60, 64
2, 68220, Note_off_c, 0, 60, 64
2, 68220, Note_on_c, 0, 59, 64
2, 68280, Note_off_c, 0, 59, 64
2, 68280, Note_on_c, 0, 60, 64
2, 68340, Note_off_c, 0, 60, 64
2, 68340, Note_on_c, 0, 62, 64
2, 68400, Note_off_c, 0, 62, 64
2, 68400, Note_on_c, 0, 63, 64
2, 68490, Note_off_c, 0, 63, 64
2, 68520, Note_on_c, 0, 62, 64
2, 68610, Note_off_c, 0, 62, 64
2, 68640, Note_on_c, 0, 63, 64
2, 68730, Note_off_c, 0, 63, 64
2, 68760, Note_on_c, 0, 60, 64
2, 68850, Note_off_c, 0, 60, 64
2, 68880, Note_on_c, 0, 63, 64
2, 68970, Note_off_c, 0, 63, 64
2, 69000, Note_on_c, 0, 58, 64
2, 69090, Note_off_c, 0, 58, 64
2, 69120, Note_on_c, 0, 63, 64
2, 69210, Note_off_c, 0, 63, 64
2, 69240, Note_on_c, 0, 57, 64
2, 69330, Note_off_c, 0, 57, 64
2, 69360, Note_on_c, 0, 63, 64
2, 69450, Note_off_c, 0, 63, 64
2, 69480, Note_on_c, 0, 55, 64
2, 69570, Note_off_c, 0, 55, 64
2, 69600, Note_on_c, 0, 53, 64
2, 69690, Note_off_c, 0, 53, 64
2, 69720, Note_on_c, 0, 63, 64
2, 69810, Note_off_c, 0, 63, 64
2, 69840, Note_on_c, 0, 62, 64
2, 69930, Note_off_c, 0, 62, 64
2, 69960, Note_on_c, 0, 60, 64
2, 70050, Note_off_c, 0, 60, 64
2, 70080, Note_on_c, 0, 62, 64
2, 70170, Note_off_c, 0, 62, 64
2, 70200, Note_on_c, 0, 58, 64
2, 70290, Note_off_c, 0, 58, 64
2, 70320, Note_on_c, 0, 62, 64
2, 70410, Note_off_c, 0, 62, 64
2, 70440, Note_on_c, 0, 57, 64
2, 70530, Note_off_c, 0, 57, 64
2, 70560, Note_on_c, 0, 62, 64
2, 70650, Note_off_c, 0, 62, 64
2, 70680, Note_on_c, 0, 55, 64
2, 70770, Note_off_c, 0, 55, 64
2, 70800, Note_on_c, 0, 62, 64
2, 70890, Note_off_c, 0, 62, 64
2, 70920, Note_on_c, 0, 53, 64
2, 71010, Note_off_c, 0, 53, 64
2, 71040, Note_on_c, 0, 51, 64
2, 71130, Note_off_c, 0, 51, 64
2, 71160, Note_on_c, 0, 61, 64
2, 71250, Note_off_c, 0, 61, 64
2, 71280, Note_on_c, 0, 60, 64
2, 71370, Note_off_c, 0, 60, 64
2, 71400, Note_on_c, 0, 58, 64
2, 71490, Note_off_c, 0, 58, 64
2, 71520, Note_on_c, 0, 60, 64
2, 71610, Note_off_c, 0, 60, 64
2, 71640, Note_on_c, 0, 56, 64
2, 71730, Note_off_c, 0, 56, 64
2, 71760, Note_on_c, 0, 60, 64
2, 71850, Note_off_c, 0, 60, 64
2, 71880, Note_on_c, 0, 55, 64
2, 71970, Note_off_c, 0, 55, 64
2, 72000, Note_on_c, 0, 60, 64
2, 72090, Note_off_c, 0, 60, 64
2, 72120, Note_on_c, 0, 53, 64
2, 72210, Note_off_c, 0, 53, 64
2, 72240, Note_on_c, 0, 60, 64
2, 72330, Note_off_c, 0, 60, 64
2, 72360, Note_on_c, 0, 51, 64
2, 72450, Note_off_c, 0, 51, 64
2, 72480, Note_on_c, 0, 50, 64
2, 72570, Note_off_c, 0, 50, 64
2, 72600, Note_on_c, 0, 53, 64
2, 72690, Note_off_c, 0, 53, 64
2, 72720, Note_on_c, 0, 56, 64
2, 72810, Note_off_c, 0, 56, 64
2, 72840, Note_on_c, 0, 55, 64
2, 72930, Note_off_c, 0, 55, 64
2, 72960, Note_on_c, 0, 56, 64
2, 73050, Note_off_c, 0, 56, 64
2, 73080, Note_on_c, 0, 53, 64
2, 73170, Note_off_c, 0, 53, 64
2, 73200, Note_on_c, 0, 56, 64
2, 73290, Note_off_c, 0, 56, 64
2, 73320, Note_on_c, 0, 51, 64
2, 73410, Note_off_c, 0, 51, 64
2, 73440, Note_on_c, 0, 56, 64
2, 73530, Note_off_c, 0, 56, 64
2, 73560, Note_on_c, 0, 50, 64
2, 73650, Note_off_c, 0, 50, 64
2, 73680, Note_on_c, 0, 56, 64
2, 73770, Note_off_c, 0, 56, 64
2, 73800, Note_on_c, 0, 48, 64
2, 73890, Note_off_c, 0, 48, 64
2, 73920, Note_on_c, 0, 47, 64
2, 74010, Note_off_c, 0, 47, 64
2, 74040, Note_on_c, 0, 50, 64
2, 74130, Note_off_c, 0, 50, 64
2, 74160, Note_on_c, 0, 53, 64
2, 74250, Note_off_c, 0, 53, 64
2, 74280, Note_on_c, 0, 51, 64
2, 74370, Note_off_c, 0, 51, 64
2, 74400, Note_on_c, 0, 53, 64
2, 74490, Note_off_c, 0, 53, 64
2, 74520, Note_on_c, 0, 50, 64
2, 74610, Note_off_c, 0, 50, 64
2, 74640, Note_on_c, 0, 53, 64
2, 74730, Note_off_c, 0, 53, 64
2, 74760, Note_on_c, 0, 48, 64
2, 74850, Note_off_c, 0, 48, 64
2, 74880, Note_on_c, 0, 53, 64
2, 74970, Note_off_c, 0, 53, 64
2, 75000, Note_on_c, 0, 47, 64
2, 75090, Note_off_c, 0, 47, 64
2, 75120, Note_on_c, 0, 53, 64
2, 75210, Note_off_c, 0, 53, 64
2, 75240, Note_on_c, 0, 45, 64
2, 75330, Note_off_c, 0, 45, 64
2, 75360, Note_on_c, 0, 43, 64
2, 75450, Note_off_c, 0, 43, 64
2, 75480, Note_on_c, 0, 59, 64
2, 75570, Note_off_c, 0, 59, 64
2, 75600, Note_on_c, 0, 60, 64
2, 75690, Note_off_c, 0, 60, 64
2, 75720, Note_on_c, 0, 63, 64
2, 75810, Note_off_c, 0, 63, 64
2, 75840, Note_on_c, 0, 53, 64
2, 75930, Note_off_c, 0, 53, 64
2, 75960, Note_on_c, 0, 62, 64
2, 76050, Note_off_c, 0, 62, 64
2, 76080, Note_on_c, 0, 55, 64
2, 76170, Note_off_c, 0, 55, 64
2, 76200, Note_on_c, 0, 59, 64
2, 76290, Note_off_c, 0, 59, 64
2, 76320, Note_on_c, 0, 60, 64
2, 76560, Note_off_c, 0, 60, 64
2, 76560, Note_on_c, 0, 36, 64
2, 76620, Note_off_c, 0, 36, 64
2, 76620, Note_on_c, 0, 43, 64
2, 76680, Note_off_c, 0, 43, 64
2, 76680, Note_on_c, 0, 45, 64
2, 76740, Note_off_c, 0, 45, 64
2, 76740, Note_on_c, 0, 47, 64
2, 76800, Note_off_c, 0, 47, 64
2, 76800, Note_on_c, 0, 48, 64
2, 76860, Note_off_c, 0, 48, 64
2, 76860, Note_on_c, 0, 47, 64
2, 76920, Note_off_c, 0, 47, 64
2, 76920, Note_on_c, 0, 48, 64
2, 76980, Note_off_c, 0, 48, 64
2, 76980, Note_on_c, 0, 50, 64
2, 77040, Note_off_c, 0, 50, 64
2, 77040, Note_on_c, 0, 52, 64
2, 77100, Note_off_c, 0, 52, 64
2, 77100, Note_on_c, 0, 50, 64
2, 77160, Note_off_c, 0, 50, 64
2, 77160, Note_on_c, 0, 52, 64
2, 77220, Note_off_c, 0, 52, 64
2, 77220, Note_on_c, 0, 53, 64
2, 77280, Note_off_c, 0, 53, 64
2, 77280, Note_on_c, 0, 55, 64
2, 77340, Note_off_c, 0, 55, 64
2, 77340, Note_on_c, 0, 53, 64
2, 77400, Note_off_c, 0, 53, 64
2, 77400, Note_on_c, 0, 55, 64
2, 77460, Note_off_c, 0, 55, 64
2, 77460, Note_on_c, 0, 56, 64
2, 77520, Note_off_c, 0, 56, 64
2, 77520, Note_on_c, 0, 58, 64
2, 77580, Note_off_c, 0, 58, 64
2, 77580, Note_on_c, 0, 56, 64
2, 77640, Note_off_c, 0, 56, 64
2, 77640, Note_on_c, 0, 58, 64
2, 77700, Note_off_c, 0, 58, 64
2, 77700, Note_on_c, 0, 55, 64
2, 77760, Note_off_c, 0, 55, 64
2, 77760, Note_on_c, 0, 56, 64
2, 77839, Note_off_c, 0, 56, 64
2, 77839, Note_on_c, 0, 55, 64
2, 77919, Note_off_c, 0, 55, 64
2, 77919, Note_on_c, 0, 53, 64
2, 77999, Note_off_c, 0, 53, 64
2, 78000, Note_on_c, 0, 53, 64
2, 78079, Note_off_c, 0, 53, 64
2, 78079, Note_on_c, 0, 51, 64
2, 78159, Note_off_c, 0, 51, 64
2, 78159, Note_on_c, 0, 50, 64
2, 78239, Note_off_c, 0, 50, 64
2, 78240, Note_on_c, 0, 50, 64
2, 78319, Note_off_c, 0, 50, 64
2, 78319, Note_on_c, 0, 48, 64
2, 78399, Note_off_c, 0, 48, 64
2, 78399, Note_on_c, 0, 46, 64
2, 78479, Note_off_c, 0, 46, 64
2, 78480, Note_on_c, 0, 46, 64
2, 78540, Note_off_c, 0, 46, 64
2, 78540, Note_on_c, 0, 48, 64
2, 78600, Note_off_c, 0, 48, 64
2, 78600, Note_on_c, 0, 50, 64
2, 78660, Note_off_c, 0, 50, 64
2, 78660, Note_on_c, 0, 51, 64
2, 78720, Note_off_c, 0, 51, 64
2, 78720, Note_on_c, 0, 53, 64
2, 78780, Note_off_c, 0, 53, 64
2, 78780, Note_on_c, 0, 51, 64
2, 78840, Note_off_c, 0, 51, 64
2, 78840, Note_on_c, 0, 53, 64
2, 78900, Note_off_c, 0, 53, 64
2, 78900, Note_on_c, 0, 55, 64
2, 78960, Note_off_c, 0, 55, 64
2, 78960, Note_on_c, 0, 56, 64
2, 79020, Note_off_c, 0, 56, 64
2, 79020, Note_on_c, 0, 55, 64
2, 79080, Note_off_c, 0, 55, 64
2, 79080, Note_on_c, 0, 56, 64
2, 79140, Note_off_c, 0, 56, 64
2, 79140, Note_on_c, 0, 53, 64
2, 79200, Note_off_c, 0, 53, 64
2, 79200, Note_on_c, 0, 55, 64
2, 79279, Note_off_c, 0, 55, 64
2, 79279, Note_on_c, 0, 53, 64
2, 79359, Note_off_c, 0, 53, 64
2, 79359, Note_on_c, 0, 51, 64
2, 79439, Note_off_c, 0, 51, 64
2, 79440, Note_on_c, 0, 51, 64
2, 79519, Note_off_c, 0, 51, 64
2, 79519, Note_on_c, 0, 50, 64
2, 79599, Note_off_c, 0, 50, 64
2, 79599, Note_on_c, 0, 48, 64
2, 79679, Note_off_c, 0, 48, 64
2, 79680, Note_on_c, 0, 48, 64
2, 79759, Note_off_c, 0, 48, 64
2, 79759, Note_on_c, 0, 46, 64
2, 79839, Note_off_c, 0, 46, 64
2, 79839, Note_on_c, 0, 44, 64
2, 79919, Note_off_c, 0, 44, 64
2, 79920, Note_on_c, 0, 44, 64
2, 80040, Note_off_c, 0, 44, 64
2, 80040, Note_on_c, 0, 60, 64
2, 80100, Note_off_c, 0, 60, 64
2, 80100, Note_on_c, 0, 58, 64
2, 80160, Note_off_c, 0, 58, 64
2, 80160, Note_on_c, 0, 56, 64
2, 80220, Note_off_c, 0, 56, 64
2, 80220, Note_on_c, 0, 58, 64
2, 80280, Note_off_c, 0, 58, 64
2, 80280, Note_on_c, 0, 56, 64
2, 80340, Note_off_c, 0, 56, 64
2, 80340, Note_on_c, 0, 55, 64
2, 80400, Note_off_c, 0, 55, 64
2, 80400, Note_on_c, 0, 53, 64
2, 80460, Note_off_c, 0, 53, 64
2, 80460, Note_on_c, 0, 55, 64
2, 80520, Note_off_c, 0, 55, 64
2, 80520, Note_on_c, 0, 53, 64
2, 80580, Note_off_c, 0, 53, 64
2, 80580, Note_on_c, 0, 51, 64
2, 80640, Note_off_c, 0, 51, 64
2, 80640, Note_on_c, 0, 50, 64
2, 80700, Note_off_c, 0, 50, 64
2, 80700, Note_on_c, 0, 51, 64
2, 80760, Note_off_c, 0, 51, 64
2, 80760, Note_on_c, 0, 50, 64
2, 80820, Note_off_c, 0, 50, 64
2, 80820, Note_on_c, 0, 48, 64
2, 80880, Note_off_c, 0, 48, 64
2, 80880, Note_on_c, 0, 46, 64
2, 80940, Note_off_c, 0, 46, 64
2, 80940, Note_on_c, 0, 48, 64
2, 81000, Note_off_c, 0, 48, 64
2, 81000, Note_on_c, 0, 46, 64
2, 81060, Note_off_c, 0, 46, 64
2, 81060, Note_on_c, 0, 44, 64
2, 81120, Note_off_c, 0, 44, 64
2, 81120, Note_on_c, 0, 43, 64
2, 81180, Note_off_c, 0, 43, 64
2, 81180, Note_on_c, 0, 44, 64
2, 81240, Note_off_c, 0, 44, 64
2, 81240, Note_on_c, 0, 43, 64
2, 81300, Note_off_c, 0, 43, 64
2, 81300, Note_on_c, 0, 41, 64
2, 81360, Note_off_c, 0, 41, 64
2, 81360, Note_on_c, 0, 39, 64
2, 81450, Note_off_c, 0, 39, 64
2, 81480, Note_on_c, 0, 63, 64
2, 81570, Note_off_c, 0, 63, 64
2, 81600, Note_on_c, 0, 58, 64
2, 81660, Note_off_c, 0, 58, 64
2, 81660, Note_on_c, 0, 56, 64
2, 81720, Note_off_c, 0, 56, 64
2, 81720, Note_on_c, 0, 55, 64
2, 81780, Note_off_c, 0, 55, 64
2, 81780, Note_on_c, 0, 53, 64
2, 81840, Note_off_c, 0, 53, 64
2, 81840, Note_on_c, 0, 51, 64
2, 81930, Note_off_c, 0, 51, 64
2, 81960, Note_on_c, 0, 46, 64
2, 82050, Note_off_c, 0, 46, 64
2, 82080, Note_on_c, 0, 43, 64
2, 82170, Note_off_c, 0, 43, 64
2, 82200, Note_on_c, 0, 61, 64
2, 82290, Note_off_c, 0, 61, 64
2, 82320, Note_on_c, 0, 58, 64
2, 82380, Note_off_c, 0, 58, 64
2, 82380, Note_on_c, 0, 56, 64
2, 82440, Note_off_c, 0, 56, 64
2, 82440, Note_on_c, 0, 55, 64
2, 82500, Note_off_c, 0, 55, 64
2, 82500, Note_on_c, 0, 53, 64
2, 82560, Note_off_c, 0, 53, 64
2, 82560, Note_on_c, 0, 51, 64
2, 82680, Note_off_c, 0, 51, 64
2, 82680, Note_on_c, 0, 61, 64
2, 82800, Note_off_c, 0, 61, 64
2, 82800, Note_on_c, 0, 44, 64
2, 82890, Note_off_c, 0, 44, 64
2, 82920, Note_on_c, 0, 61, 64
2, 83010, Note_off_c, 0, 61, 64
2, 83040, Note_on_c, 0, 60, 64
2, 83100, Note_off_c, 0, 60, 64
2, 83100, Note_on_c, 0, 58, 64
2, 83160, Note_off_c, 0, 58, 64
2, 83160, Note_on_c, 0, 56, 64
2, 83220, Note_off_c, 0, 56, 64
2, 83220, Note_on_c, 0, 55, 64
2, 83280, Note_off_c, 0, 55, 64
2, 83280, Note_on_c, 0, 53, 64
2, 83400, Note_off_c, 0, 53, 64
2, 83400, Note_on_c, 0, 60, 64
2, 83520, Note_off_c, 0, 60, 64
2, 83520, Note_on_c, 0, 43, 64
2, 83610, Note_off_c, 0, 43, 64
2, 83640, Note_on_c, 0, 60, 64
2, 83730, Note_off_c, 0, 60, 64
2, 83760, Note_on_c, 0, 58, 64
2, 83820, Note_off_c, 0, 58, 64
2, 83820, Note_on_c, 0, 56, 64
2, 83880, Note_off_c, 0, 56, 64
2, 83880, Note_on_c, 0, 55, 64
2, 83940, Note_off_c, 0, 55, 64
2, 83940, Note_on_c, 0, 53, 64
2, 84000, Note_off_c, 0, 53, 64
2, 84000, Note_on_c, 0, 52, 64
2, 84120, Note_off_c, 0, 52, 64
2, 84120, Note_on_c, 0, 58, 64
2, 84240, Note_off_c, 0, 58, 64
2, 84240, Note_on_c, 0, 41, 64
2, 84330, Note_off_c, 0, 41, 64
2, 84360, Note_on_c, 0, 58, 64
2, 84450, Note_off_c, 0, 58, 64
2, 84480, Note_on_c, 0, 56, 64
2, 84540, Note_off_c, 0, 56, 64
2, 84540, Note_on_c, 0, 55, 64
2, 84600, Note_off_c, 0, 55, 64
2, 84600, Note_on_c, 0, 53, 64
2, 84660, Note_off_c, 0, 53, 64
2, 84660, Note_on_c, 0, 51, 64
2, 84720, Note_off_c, 0, 51, 64
2, 84720, Note_on_c, 0, 50, 64
2, 84840, Note_off_c, 0, 50, 64
2, 84840, Note_on_c, 0, 56, 64
2, 84960, Note_off_c, 0, 56, 64
2, 84960, Note_on_c, 0, 39, 64
2, 85050, Note_off_c, 0, 39, 64
2, 85080, Note_on_c, 0, 56, 64
2, 85170, Note_off_c, 0, 56, 64
2, 85200, Note_on_c, 0, 55, 64
2, 85260, Note_off_c, 0, 55, 64
2, 85260, Note_on_c, 0, 53, 64
2, 85320, Note_off_c, 0, 53, 64
2, 85320, Note_on_c, 0, 51, 64
2, 85380, Note_off_c, 0, 51, 64
2, 85380, Note_on_c, 0, 50, 64
2, 85440, Note_off_c, 0, 50, 64
2, 85440, Note_on_c, 0, 51, 64
2, 85560, Note_off_c, 0, 51, 64
2, 85560, Note_on_c, 0, 55, 64
2, 85680, Note_off_c, 0, 55, 64
2, 85680, Note_on_c, 0, 45, 64
2, 85800, Note_off_c, 0, 45, 64
2, 85800, Note_on_c, 0, 48, 64
2, 85920, Note_off_c, 0, 48, 64
2, 85920, Note_on_c, 0, 51, 64
2, 86040, Note_off_c, 0, 51, 64
2, 86040, Note_on_c, 0, 54, 64
2, 86160, Note_off_c, 0, 54, 64
2, 86160, Note_on_c, 0, 57, 64
2, 86280, Note_off_c, 0, 57, 64
2, 86280, Note_on_c, 0, 60, 64
2, 86400, Note_off_c, 0, 60, 64
2, 86400, Note_on_c, 0, 46, 64
2, 86400, Note_on_c, 0, 50, 64
2, 86640, Note_off_c, 0, 46, 64
2, 86719, Note_off_c, 0, 50, 64
2, 86719, Note_on_c, 0, 46, 64
2, 86799, Note_off_c, 0, 46, 64
2, 86799, Note_on_c, 0, 48, 64
2, 86879, Note_off_c, 0, 48, 64
2, 86880, Note_on_c, 0, 50, 64
2, 86959, Note_off_c, 0, 50, 64
2, 86959, Note_on_c, 0, 51, 64
2, 87039, Note_off_c, 0, 51, 64
2, 87039, Note_on_c, 0, 53, 64
2, 87119, Note_off_c, 0, 53, 64
2, 87120, Note_on_c, 0, 44, 64
2, 87120, Note_on_c, 0, 53, 64
2, 87360, Note_off_c, 0, 44, 64
2, 87439, Note_off_c, 0, 53, 64
2, 87439, Note_on_c, 0, 50, 64
2, 87519, Note_off_c, 0, 50, 64
2, 87519, Note_on_c, 0, 51, 64
2, 87599, Note_off_c, 0, 51, 64
2, 87600, Note_on_c, 0, 53, 64
2, 87679, Note_off_c, 0, 53, 64
2, 87679, Note_on_c, 0, 55, 64
2, 87759, Note_off_c, 0, 55, 64
2, 87759, Note_on_c, 0, 56, 64
2, 87820, Note_on_c, 0, 41, 64
2, 87839, Note_off_c, 0, 56, 64
2, 87840, Note_on_c, 0, 50, 64
2, 87880, Note_on_c, 0, 56, 64
2, 87940, Note_off_c, 0, 41, 64
2, 88080, Note_off_c, 0, 50, 64
2, 88140, Note_off_c, 0, 56, 64
2, 88159, Note_on_c, 0, 53, 64
2, 88239, Note_off_c, 0, 53, 64
2, 88239, Note_on_c, 0, 55, 64
2, 88319, Note_off_c, 0, 55, 64
2, 88320, Note_on_c, 0, 56, 64
2, 88399, Note_off_c, 0, 56, 64
2, 88399, Note_on_c, 0, 58, 64
2, 88479, Note_off_c, 0, 58, 64
2, 88479, Note_on_c, 0, 60, 64
2, 88552, Note_on_c, 0, 50, 64
2, 88559, Note_off_c, 0, 60, 64
2, 88560, Note_on_c, 0, 60, 64
2, 88792, Note_off_c, 0, 50, 64
2, 88800, Note_off_c, 0, 60, 64
2, 88800, Note_on_c, 0, 58, 64
2, 88920, Note_off_c, 0, 58, 64
2, 88920, Note_on_c, 0, 56, 64
2, 89040, Note_off_c, 0, 56, 64
2, 89040, Note_on_c, 0, 55, 64
2, 89130, Note_off_c, 0, 55, 64
2, 89160, Note_on_c, 0, 53, 64
2, 89250, Note_off_c, 0, 53, 64
2, 89280, Note_on_c, 0, 55, 64
2, 89370, Note_off_c, 0, 55, 64
2, 89400, Note_on_c, 0, 51, 64
2, 89490, Note_off_c, 0, 51, 64
2, 89520, Note_on_c, 0, 44, 64
2, 89610, Note_off_c, 0, 44, 64
2, 89640, Note_on_c, 0, 53, 64
2, 89730, Note_off_c, 0, 53, 64
2, 89760, Note_on_c, 0, 46, 64
2, 89850, Note_off_c, 0, 46, 64
2, 89880, Note_on_c, 0, 50, 64
2, 89970, Note_off_c, 0, 50, 64
2, 90000, Note_on_c, 0, 51, 64
2, 90240, Note_off_c, 0, 51, 64
2, 90240, Note_on_c, 0, 39, 64
2, 90300, Note_off_c, 0, 39, 64
2, 90300, Note_on_c, 0, 46, 64
2, 90360, Note_off_c, 0, 46, 64
2, 90360, Note_on_c, 0, 48, 64
2, 90420, Note_off_c, 0, 48, 64
2, 90420, Note_on_c, 0, 50, 64
2, 90480, Note_off_c, 0, 50, 64
2, 90480, Note_on_c, 0, 51, 64
2, 90540, Note_off_c, 0, 51, 64
2, 90540, Note_on_c, 0, 50, 64
2, 90600, Note_off_c, 0, 50, 64
2, 90600, Note_on_c, 0, 51, 64
2, 90660, Note_off_c, 0, 51, 64
2, 90660, Note_on_c, 0, 53, 64
2, 90720, Note_off_c, 0, 53, 64
2, 90720, Note_on_c, 0, 55, 64
2, 90799, Note_off_c, 0, 55, 64
2, 90799, Note_on_c, 0, 51, 64
2, 90879, Note_off_c, 0, 51, 64
2, 90879, Note_on_c, 0, 53, 64
2, 90959, Note_off_c, 0, 53, 64
2, 90960, Note_on_c, 0, 55, 64
2, 91039, Note_off_c, 0, 55, 64
2, 91039, Note_on_c, 0, 56, 64
2, 91119, Note_off_c, 0, 56, 64
2, 91119, Note_on_c, 0, 58, 64
2, 91199, Note_off_c, 0, 58, 64
2, 91200, Note_on_c, 0, 58, 64
2, 91279, Note_off_c, 0, 58, 64
2, 91279, Note_on_c, 0, 60, 64
2, 91359, Note_off_c, 0, 60, 64
2, 91359, Note_on_c, 0, 62, 64
2, 91439, Note_off_c, 0, 62, 64
2, 91440, Note_on_c, 0, 63, 64
2, 91560, Note_off_c, 0, 63, 64
2, 91560, Note_on_c, 0, 55, 64
2, 91680, Note_off_c, 0, 55, 64
2, 91680, Note_on_c, 0, 53, 64
2, 91680, Note_on_c, 0, 46, 64
2, 92020, Note_off_c, 0, 53, 64
2, 92040, Note_on_c, 0, 51, 64
2, 92130, Note_off_c, 0, 51, 64
2, 92140, Note_off_c, 0, 46, 64
2, 92160, Note_on_c, 0, 39, 64
2, 92180, Note_on_c, 0, 46, 64
2, 92200, Note_on_c, 0, 51, 64
2, 92640, Note_off_c, 0, 51, 64
2, 92640, Note_off_c, 0, 46, 64
2, 92640, Note_off_c, 0, 39, 64
2, 92703, End_track
0, 0, End_of_file
