0, 0, Header, 1, 5, 1024
1, 0, Start_track
1, 0, Time_signature, 4, 2, 24, 8
1, 0, Key_signature, 0, "major"
1, 0, Tempo, 750000
1, 4096, Time_signature, 4, 2, 24, 8
1, 4096, Key_signature, 0, "major"
1, 8192, Time_signature, 4, 2, 24, 8
1, 8192, Key_signature, 0, "major"
1, 12288, Time_signature, 4, 2, 24, 8
1, 12288, Key_signature, 0, "major"
1, 16384, Time_signature, 4, 2, 24, 8
1, 16384, Key_signature, 0, "major"
1, 20480, Time_signature, 4, 2, 24, 8
1, 20480, Key_signature, 0, "major"
1, 24576, Time_signature, 4, 2, 24, 8
1, 24576, Key_signature, 0, "major"
1, 28672, Time_signature, 4, 2, 24, 8
1, 28672, Key_signature, 0, "major"
1, 32768, Time_signature, 4, 2, 24, 8
1, 32768, Key_signature, 0, "major"
1, 36864, Time_signature, 4, 2, 24, 8
1, 36864, Key_signature, 0, "major"
1, 40960, Time_signature, 4, 2, 24, 8
1, 40960, Key_signature, 0, "major"
1, 45056, Time_signature, 4, 2, 24, 8
1, 45056, Key_signature, 0, "major"
1, 49152, Time_signature, 4, 2, 24, 8
1, 49152, Key_signature, 0, "major"
1, 53248, Time_signature, 4, 2, 24, 8
1, 53248, Key_signature, 0, "major"
1, 57344, Time_signature, 4, 2, 24, 8
1, 57344, Key_signature, 0, "major"
1, 61440, Time_signature, 4, 2, 24, 8
1, 61440, Key_signature, 0, "major"
1, 65536, Time_signature, 4, 2, 24, 8
1, 65536, Key_signature, 0, "major"
1, 69632, Time_signature, 4, 2, 24, 8
1, 69632, Key_signature, 0, "major"
1, 73728, Time_signature, 4, 2, 24, 8
1, 73728, Key_signature, 0, "major"
1, 77824, Time_signature, 4, 2, 24, 8
1, 77824, Key_signature, 0, "major"
1, 81920, Time_signature, 4, 2, 24, 8
1, 81920, Key_signature, 0, "major"
1, 86016, Time_signature, 3, 2, 24, 8
1, 86016, Key_signature, 0, "major"
1, 89088, Time_signature, 3, 2, 24, 8
1, 89088, Key_signature, 0, "major"
1, 92160, Time_signature, 3, 2, 24, 8
1, 92160, Key_signature, 0, "major"
1, 95232, Time_signature, 3, 2, 24, 8
1, 95232, Key_signature, 0, "major"
1, 98304, Time_signature, 3, 2, 24, 8
1, 98304, Key_signature, 0, "major"
1, 101376, Time_signature, 3, 2, 24, 8
1, 101376, Key_signature, 0, "major"
1, 104448, Time_signature, 3, 2, 24, 8
1, 104448, Key_signature, 0, "major"
1, 107520, Time_signature, 3, 2, 24, 8
1, 107520, Key_signature, 0, "major"
1, 110592, Time_signature, 3, 2, 24, 8
1, 110592, Key_signature, 0, "major"
1, 113664, Time_signature, 3, 2, 24, 8
1, 113664, Key_signature, 0, "major"
1, 116736, Time_signature, 3, 2, 24, 8
1, 116736, Key_signature, 0, "major"
1, 119808, Time_signature, 3, 2, 24, 8
1, 119808, Key_signature, 0, "major"
1, 122880, Time_signature, 3, 2, 24, 8
1, 122880, Key_signature, 0, "major"
1, 125952, Time_signature, 3, 2, 24, 8
1, 125952, Key_signature, 0, "major"
1, 129024, Time_signature, 3, 2, 24, 8
1, 129024, Key_signature, 0, "major"
1, 132096, Time_signature, 3, 2, 24, 8
1, 132096, Key_signature, 0, "major"
1, 135168, Time_signature, 4, 2, 24, 8
1, 135168, Key_signature, 0, "major"
1, 139264, Time_signature, 4, 2, 24, 8
1, 139264, Key_signature, 0, "major"
1, 143360, Time_signature, 4, 2, 24, 8
1, 143360, Key_signature, 0, "major"
1, 147456, Time_signature, 4, 2, 24, 8
1, 147456, Key_signature, 0, "major"
1, 150528, End_track
2, 0, Start_track
2, 3072, Note_on_c, 0, 76, 64
2, 4096, Note_off_c, 0, 76, 0
2, 4096, Note_on_c, 0, 76, 64
2, 5120, Note_off_c, 0, 76, 0
2, 5120, Note_on_c, 0, 72, 64
2, 6144, Note_off_c, 0, 72, 0
2, 6144, Note_on_c, 0, 74, 64
2, 7168, Note_off_c, 0, 74, 0
2, 7168, Note_on_c, 0, 76, 64
2, 8192, Note_off_c, 0, 76, 0
2, 8192, Note_on_c, 0, 77, 64
2, 10240, Note_off_c, 0, 77, 0
2, 10240, Note_on_c, 0, 74, 64
2, 11264, Note_off_c, 0, 74, 0
2, 11264, Note_on_c, 0, 74, 64
2, 12288, Note_off_c, 0, 74, 0
2, 12288, Note_on_c, 0, 74, 64
2, 13312, Note_off_c, 0, 74, 0
2, 13312, Note_on_c, 0, 72, 64
2, 14336, Note_off_c, 0, 72, 0
2, 14336, Note_on_c, 0, 72, 64
2, 15360, Note_off_c, 0, 72, 0
2, 15360, Note_on_c, 0, 71, 64
2, 16384, Note_off_c, 0, 71, 0
2, 16384, Note_on_c, 0, 72, 64
2, 18432, Note_off_c, 0, 72, 0
2, 19456, Note_on_c, 0, 74, 64
2, 20480, Note_off_c, 0, 74, 0
2, 20480, Note_on_c, 0, 74, 64
2, 21504, Note_off_c, 0, 74, 0
2, 21504, Note_on_c, 0, 74, 64
2, 22528, Note_off_c, 0, 74, 0
2, 22528, Note_on_c, 0, 74, 64
2, 23552, Note_off_c, 0, 74, 0
2, 23552, Note_on_c, 0, 76, 64
2, 24576, Note_off_c, 0, 76, 0
2, 24576, Note_on_c, 0, 72, 64
2, 26624, Note_off_c, 0, 72, 0
2, 26624, Note_on_c, 0, 72, 64
2, 27648, Note_off_c, 0, 72, 0
2, 27648, Note_on_c, 0, 72, 64
2, 28672, Note_off_c, 0, 72, 0
2, 28672, Note_on_c, 0, 71, 64
2, 29696, Note_off_c, 0, 71, 0
2, 29696, Note_on_c, 0, 72, 64
2, 30720, Note_off_c, 0, 72, 0
2, 30720, Note_on_c, 0, 74, 64
2, 31744, Note_off_c, 0, 74, 0
2, 31744, Note_on_c, 0, 74, 64
2, 32768, Note_off_c, 0, 74, 0
2, 32768, Note_on_c, 0, 72, 64
2, 35840, Note_off_c, 0, 72, 0
2, 35840, Note_on_c, 0, 76, 64
2, 36864, Note_off_c, 0, 76, 0
2, 36864, Note_on_c, 0, 76, 64
2, 37888, Note_off_c, 0, 76, 0
2, 37888, Note_on_c, 0, 72, 64
2, 38912, Note_off_c, 0, 72, 0
2, 38912, Note_on_c, 0, 74, 64
2, 39936, Note_off_c, 0, 74, 0
2, 39936, Note_on_c, 0, 76, 64
2, 40960, Note_off_c, 0, 76, 0
2, 40960, Note_on_c, 0, 77, 64
2, 43008, Note_off_c, 0, 77, 0
2, 43008, Note_on_c, 0, 74, 64
2, 44032, Note_off_c, 0, 74, 0
2, 44032, Note_on_c, 0, 74, 64
2, 45056, Note_off_c, 0, 74, 0
2, 45056, Note_on_c, 0, 74, 64
2, 46080, Note_off_c, 0, 74, 0
2, 46080, Note_on_c, 0, 72, 64
2, 47104, Note_off_c, 0, 72, 0
2, 47104, Note_on_c, 0, 72, 64
2, 48128, Note_off_c, 0, 72, 0
2, 48128, Note_on_c, 0, 71, 64
2, 49152, Note_off_c, 0, 71, 0
2, 49152, Note_on_c, 0, 72, 64
2, 51200, Note_off_c, 0, 72, 0
2, 52224, Note_on_c, 0, 74, 64
2, 53248, Note_off_c, 0, 74, 0
2, 53248, Note_on_c, 0, 74, 64
2, 54272, Note_off_c, 0, 74, 0
2, 54272, Note_on_c, 0, 74, 64
2, 55296, Note_off_c, 0, 74, 0
2, 55296, Note_on_c, 0, 74, 64
2, 56320, Note_off_c, 0, 74, 0
2, 56320, Note_on_c, 0, 76, 64
2, 57344, Note_off_c, 0, 76, 0
2, 57344, Note_on_c, 0, 72, 64
2, 59392, Note_off_c, 0, 72, 0
2, 59392, Note_on_c, 0, 72, 64
2, 60416, Note_off_c, 0, 72, 0
2, 60416, Note_on_c, 0, 72, 64
2, 61440, Note_off_c, 0, 72, 0
2, 61440, Note_on_c, 0, 71, 64
2, 62464, Note_off_c, 0, 71, 0
2, 62464, Note_on_c, 0, 72, 64
2, 63488, Note_off_c, 0, 72, 0
2, 63488, Note_on_c, 0, 74, 64
2, 64512, Note_off_c, 0, 74, 0
2, 64512, Note_on_c, 0, 74, 64
2, 65536, Note_off_c, 0, 74, 0
2, 65536, Note_on_c, 0, 72, 64
2, 68608, Note_off_c, 0, 72, 0
2, 68608, Note_on_c, 0, 71, 64
2, 69632, Note_off_c, 0, 71, 0
2, 69632, Note_on_c, 0, 71, 64
2, 70656, Note_off_c, 0, 71, 0
2, 70656, Note_on_c, 0, 71, 64
2, 71680, Note_off_c, 0, 71, 0
2, 71680, Note_on_c, 0, 71, 64
2, 72704, Note_off_c, 0, 71, 0
2, 72704, Note_on_c, 0, 71, 64
2, 73728, Note_off_c, 0, 71, 0
2, 73728, Note_on_c, 0, 72, 64
2, 75776, Note_off_c, 0, 72, 0
2, 75776, Note_on_c, 0, 72, 64
2, 76800, Note_off_c, 0, 72, 0
2, 76800, Note_on_c, 0, 71, 64
2, 77824, Note_off_c, 0, 71, 0
2, 77824, Note_on_c, 0, 71, 64
2, 78848, Note_off_c, 0, 71, 0
2, 78848, Note_on_c, 0, 71, 64
2, 79872, Note_off_c, 0, 71, 0
2, 79872, Note_on_c, 0, 71, 64
2, 80896, Note_off_c, 0, 71, 0
2, 80896, Note_on_c, 0, 71, 64
2, 81920, Note_off_c, 0, 71, 0
2, 81920, Note_on_c, 0, 72, 64
2, 83968, Note_off_c, 0, 72, 0
2, 83968, Note_on_c, 0, 72, 64
2, 84992, Note_off_c, 0, 72, 0
2, 84992, Note_on_c, 0, 76, 64
2, 86016, Note_off_c, 0, 76, 0
2, 86016, Note_on_c, 0, 76, 64
2, 87040, Note_off_c, 0, 76, 0
2, 87040, Note_on_c, 0, 74, 64
2, 88064, Note_off_c, 0, 74, 0
2, 88064, Note_on_c, 0, 72, 64
2, 89088, Note_off_c, 0, 72, 0
2, 89088, Note_on_c, 0, 74, 64
2, 91136, Note_off_c, 0, 74, 0
2, 91136, Note_on_c, 0, 76, 64
2, 92160, Note_off_c, 0, 76, 0
2, 92160, Note_on_c, 0, 77, 64
2, 95232, Note_off_c, 0, 77, 0
2, 95232, Note_on_c, 0, 76, 64
2, 97280, Note_off_c, 0, 76, 0
2, 97280, Note_on_c, 0, 76, 64
2, 98304, Note_off_c, 0, 76, 0
2, 98304, Note_on_c, 0, 74, 64
2, 100352, Note_off_c, 0, 74, 0
2, 100352, Note_on_c, 0, 74, 64
2, 101376, Note_off_c, 0, 74, 0
2, 101376, Note_on_c, 0, 73, 64
2, 103424, Note_off_c, 0, 73, 0
2, 103424, Note_on_c, 0, 73, 64
2, 104448, Note_off_c, 0, 73, 0
2, 104448, Note_on_c, 0, 74, 64
2, 109568, Note_off_c, 0, 74, 0
2, 109568, Note_on_c, 0, 76, 64
2, 110592, Note_off_c, 0, 76, 0
2, 110592, Note_on_c, 0, 76, 64
2, 111616, Note_off_c, 0, 76, 0
2, 111616, Note_on_c, 0, 74, 64
2, 112640, Note_off_c, 0, 74, 0
2, 112640, Note_on_c, 0, 72, 64
2, 113664, Note_off_c, 0, 72, 0
2, 113664, Note_on_c, 0, 74, 64
2, 115712, Note_off_c, 0, 74, 0
2, 115712, Note_on_c, 0, 76, 64
2, 116736, Note_off_c, 0, 76, 0
2, 116736, Note_on_c, 0, 77, 64
2, 119808, Note_off_c, 0, 77, 0
2, 119808, Note_on_c, 0, 76, 64
2, 121856, Note_off_c, 0, 76, 0
2, 121856, Note_on_c, 0, 76, 64
2, 122880, Note_off_c, 0, 76, 0
2, 122880, Note_on_c, 0, 74, 64
2, 124928, Note_off_c, 0, 74, 0
2, 124928, Note_on_c, 0, 74, 64
2, 125952, Note_off_c, 0, 74, 0
2, 125952, Note_on_c, 0, 73, 64
2, 128000, Note_off_c, 0, 73, 0
2, 128000, Note_on_c, 0, 73, 64
2, 129024, Note_off_c, 0, 73, 0
2, 129024, Note_on_c, 0, 74, 64
2, 134144, Note_off_c, 0, 74, 0
2, 134144, Note_on_c, 0, 76, 64
2, 135168, Note_off_c, 0, 76, 0
2, 135168, Note_on_c, 0, 76, 64
2, 136192, Note_off_c, 0, 76, 0
2, 136192, Note_on_c, 0, 72, 64
2, 137216, Note_off_c, 0, 72, 0
2, 137216, Note_on_c, 0, 74, 64
2, 138240, Note_off_c, 0, 74, 0
2, 138240, Note_on_c, 0, 76, 64
2, 139264, Note_off_c, 0, 76, 0
2, 139264, Note_on_c, 0, 77, 64
2, 141312, Note_off_c, 0, 77, 0
2, 141312, Note_on_c, 0, 74, 64
2, 142336, Note_off_c, 0, 74, 0
2, 142336, Note_on_c, 0, 74, 64
2, 143360, Note_off_c, 0, 74, 0
2, 143360, Note_on_c, 0, 74, 64
2, 144384, Note_off_c, 0, 74, 0
2, 144384, Note_on_c, 0, 72, 64
2, 145408, Note_off_c, 0, 72, 0
2, 145408, Note_on_c, 0, 72, 64
2, 146432, Note_off_c, 0, 72, 0
2, 146432, Note_on_c, 0, 71, 64
2, 147456, Note_off_c, 0, 71, 0
2, 147456, Note_on_c, 0, 72, 64
2, 150528, Note_off_c, 0, 72, 0
2, 150528, End_track
3, 0, Start_track
3, 3072, Note_on_c, 1, 67, 64
3, 4096, Note_off_c, 1, 67, 0
3, 4096, Note_on_c, 1, 67, 64
3, 5120, Note_off_c, 1, 67, 0
3, 5120, Note_on_c, 1, 67, 64
3, 6144, Note_off_c, 1, 67, 0
3, 6144, Note_on_c, 1, 67, 64
3, 7168, Note_off_c, 1, 67, 0
3, 7168, Note_on_c, 1, 67, 64
3, 8192, Note_off_c, 1, 67, 0
3, 8192, Note_on_c, 1, 65, 64
3, 8704, Note_off_c, 1, 65, 0
3, 8704, Note_on_c, 1, 67, 64
3, 9216, Note_off_c, 1, 67, 0
3, 9216, Note_on_c, 1, 69, 64
3, 10240, Note_off_c, 1, 69, 0
3, 10240, Note_on_c, 1, 70, 64
3, 11264, Note_off_c, 1, 70, 0
3, 11264, Note_on_c, 1, 69, 64
3, 12288, Note_off_c, 1, 69, 0
3, 12288, Note_on_c, 1, 67, 64
3, 13312, Note_off_c, 1, 67, 0
3, 13312, Note_on_c, 1, 67, 64
3, 14336, Note_off_c, 1, 67, 0
3, 14336, Note_on_c, 1, 69, 64
3, 15360, Note_off_c, 1, 69, 0
3, 15360, Note_on_c, 1, 67, 64
3, 16384, Note_off_c, 1, 67, 0
3, 16384, Note_on_c, 1, 67, 64
3, 18432, Note_off_c, 1, 67, 0
3, 19456, Note_on_c, 1, 67, 64
3, 19968, Note_off_c, 1, 67, 0
3, 19968, Note_on_c, 1, 66, 64
3, 20480, Note_off_c, 1, 66, 0
3, 20480, Note_on_c, 1, 67, 64
3, 22016, Note_off_c, 1, 67, 0
3, 22016, Note_on_c, 1, 66, 64
3, 22528, Note_off_c, 1, 66, 0
3, 22528, Note_on_c, 1, 67, 64
3, 23552, Note_off_c, 1, 67, 0
3, 23552, Note_on_c, 1, 67, 64
3, 24576, Note_off_c, 1, 67, 0
3, 24576, Note_on_c, 1, 67, 64
3, 25600, Note_off_c, 1, 67, 0
3, 25600, Note_on_c, 1, 65, 64
3, 26112, Note_off_c, 1, 65, 0
3, 26112, Note_on_c, 1, 64, 64
3, 26624, Note_off_c, 1, 64, 0
3, 26624, Note_on_c, 1, 65, 64
3, 27648, Note_off_c, 1, 65, 0
3, 27648, Note_on_c, 1, 67, 64
3, 28672, Note_off_c, 1, 67, 0
3, 28672, Note_on_c, 1, 67, 64
3, 29184, Note_off_c, 1, 67, 0
3, 29184, Note_on_c, 1, 65, 64
3, 29696, Note_off_c, 1, 65, 0
3, 29696, Note_on_c, 1, 64, 64
3, 30720, Note_off_c, 1, 64, 0
3, 30720, Note_on_c, 1, 69, 64
3, 31744, Note_off_c, 1, 69, 0
3, 31744, Note_on_c, 1, 67, 64
3, 32256, Note_off_c, 1, 67, 0
3, 32256, Note_on_c, 1, 65, 64
3, 32768, Note_off_c, 1, 65, 0
3, 32768, Note_on_c, 1, 64, 64
3, 35840, Note_off_c, 1, 64, 0
3, 35840, Note_on_c, 1, 67, 64
3, 36864, Note_off_c, 1, 67, 0
3, 36864, Note_on_c, 1, 67, 64
3, 37888, Note_off_c, 1, 67, 0
3, 37888, Note_on_c, 1, 67, 64
3, 38912, Note_off_c, 1, 67, 0
3, 38912, Note_on_c, 1, 67, 64
3, 39936, Note_off_c, 1, 67, 0
3, 39936, Note_on_c, 1, 67, 64
3, 40960, Note_off_c, 1, 67, 0
3, 40960, Note_on_c, 1, 65, 64
3, 41472, Note_off_c, 1, 65, 0
3, 41472, Note_on_c, 1, 67, 64
3, 41984, Note_off_c, 1, 67, 0
3, 41984, Note_on_c, 1, 69, 64
3, 43008, Note_off_c, 1, 69, 0
3, 43008, Note_on_c, 1, 70, 64
3, 44032, Note_off_c, 1, 70, 0
3, 44032, Note_on_c, 1, 69, 64
3, 45056, Note_off_c, 1, 69, 0
3, 45056, Note_on_c, 1, 67, 64
3, 46080, Note_off_c, 1, 67, 0
3, 46080, Note_on_c, 1, 67, 64
3, 47104, Note_off_c, 1, 67, 0
3, 47104, Note_on_c, 1, 69, 64
3, 48128, Note_off_c, 1, 69, 0
3, 48128, Note_on_c, 1, 67, 64
3, 49152, Note_off_c, 1, 67, 0
3, 49152, Note_on_c, 1, 67, 64
3, 51200, Note_off_c, 1, 67, 0
3, 52224, Note_on_c, 1, 67, 64
3, 52736, Note_off_c, 1, 67, 0
3, 52736, Note_on_c, 1, 66, 64
3, 53248, Note_off_c, 1, 66, 0
3, 53248, Note_on_c, 1, 67, 64
3, 54784, Note_off_c, 1, 67, 0
3, 54784, Note_on_c, 1, 66, 64
3, 55296, Note_off_c, 1, 66, 0
3, 55296, Note_on_c, 1, 67, 64
3, 56320, Note_off_c, 1, 67, 0
3, 56320, Note_on_c, 1, 67, 64
3, 57344, Note_off_c, 1, 67, 0
3, 57344, Note_on_c, 1, 67, 64
3, 58368, Note_off_c, 1, 67, 0
3, 58368, Note_on_c, 1, 65, 64
3, 58880, Note_off_c, 1, 65, 0
3, 58880, Note_on_c, 1, 64, 64
3, 59392, Note_off_c, 1, 64, 0
3, 59392, Note_on_c, 1, 65, 64
3, 60416, Note_off_c, 1, 65, 0
3, 60416, Note_on_c, 1, 67, 64
3, 61440, Note_off_c, 1, 67, 0
3, 61440, Note_on_c, 1, 67, 64
3, 61952, Note_off_c, 1, 67, 0
3, 61952, Note_on_c, 1, 65, 64
3, 62464, Note_off_c, 1, 65, 0
3, 62464, Note_on_c, 1, 64, 64
3, 63488, Note_off_c, 1, 64, 0
3, 63488, Note_on_c, 1, 69, 64
3, 64512, Note_off_c, 1, 69, 0
3, 64512, Note_on_c, 1, 67, 64
3, 65024, Note_off_c, 1, 67, 0
3, 65024, Note_on_c, 1, 65, 64
3, 65536, Note_off_c, 1, 65, 0
3, 65536, Note_on_c, 1, 64, 64
3, 68608, Note_off_c, 1, 64, 0
3, 68608, Note_on_c, 1, 67, 64
3, 69632, Note_off_c, 1, 67, 0
3, 69632, Note_on_c, 1, 67, 64
3, 70656, Note_off_c, 1, 67, 0
3, 70656, Note_on_c, 1, 69, 64
3, 71680, Note_off_c, 1, 69, 0
3, 71680, Note_on_c, 1, 67, 64
3, 72704, Note_off_c, 1, 67, 0
3, 72704, Note_on_c, 1, 68, 64
3, 73728, Note_off_c, 1, 68, 0
3, 73728, Note_on_c, 1, 69, 64
3, 75776, Note_off_c, 1, 69, 0
3, 75776, Note_on_c, 1, 69, 64
3, 76800, Note_off_c, 1, 69, 0
3, 76800, Note_on_c, 1, 69, 64
3, 77824, Note_off_c, 1, 69, 0
3, 77824, Note_on_c, 1, 69, 64
3, 78848, Note_off_c, 1, 69, 0
3, 78848, Note_on_c, 1, 67, 64
3, 79872, Note_off_c, 1, 67, 0
3, 79872, Note_on_c, 1, 62, 64
3, 80896, Note_off_c, 1, 62, 0
3, 80896, Note_on_c, 1, 67, 64
3, 81920, Note_off_c, 1, 67, 0
3, 81920, Note_on_c, 1, 67, 64
3, 83968, Note_off_c, 1, 67, 0
3, 83968, Note_on_c, 1, 67, 64
3, 84992, Note_off_c, 1, 67, 0
3, 84992, Note_on_c, 1, 67, 64
3, 86016, Note_off_c, 1, 67, 0
3, 86016, Note_on_c, 1, 67, 64
3, 88064, Note_off_c, 1, 67, 0
3, 88064, Note_on_c, 1, 67, 64
3, 89088, Note_off_c, 1, 67, 0
3, 89088, Note_on_c, 1, 67, 64
3, 90112, Note_off_c, 1, 67, 0
3, 90112, Note_on_c, 1, 69, 64
3, 91136, Note_off_c, 1, 69, 0
3, 91136, Note_on_c, 1, 71, 64
3, 92160, Note_off_c, 1, 71, 0
3, 92160, Note_on_c, 1, 72, 64
3, 93184, Note_off_c, 1, 72, 0
3, 93184, Note_on_c, 1, 71, 64
3, 94208, Note_off_c, 1, 71, 0
3, 94208, Note_on_c, 1, 69, 64
3, 95232, Note_off_c, 1, 69, 0
3, 95232, Note_on_c, 1, 67, 64
3, 97280, Note_off_c, 1, 67, 0
3, 97280, Note_on_c, 1, 72, 64
3, 98304, Note_off_c, 1, 72, 0
3, 98304, Note_on_c, 1, 71, 64
3, 99328, Note_off_c, 1, 71, 0
3, 99328, Note_on_c, 1, 69, 64
3, 100352, Note_off_c, 1, 69, 0
3, 100352, Note_on_c, 1, 67, 64
3, 101376, Note_off_c, 1, 67, 0
3, 101376, Note_on_c, 1, 69, 64
3, 102400, Note_off_c, 1, 69, 0
3, 102400, Note_on_c, 1, 70, 64
3, 103424, Note_off_c, 1, 70, 0
3, 103424, Note_on_c, 1, 67, 64
3, 104448, Note_off_c, 1, 67, 0
3, 104448, Note_on_c, 1, 65, 64
3, 106496, Note_off_c, 1, 65, 0
3, 106496, Note_on_c, 1, 70, 64
3, 107520, Note_off_c, 1, 70, 0
3, 107520, Note_on_c, 1, 69, 64
3, 109568, Note_off_c, 1, 69, 0
3, 109568, Note_on_c, 1, 69, 64
3, 110592, Note_off_c, 1, 69, 0
3, 110592, Note_on_c, 1, 71, 64
3, 112640, Note_off_c, 1, 71, 0
3, 112640, Note_on_c, 1, 69, 64
3, 113664, Note_off_c, 1, 69, 0
3, 113664, Note_on_c, 1, 69, 64
3, 115712, Note_off_c, 1, 69, 0
3, 115712, Note_on_c, 1, 67, 64
3, 116736, Note_off_c, 1, 67, 0
3, 116736, Note_on_c, 1, 69, 64
3, 118784, Note_off_c, 1, 69, 0
3, 118784, Note_on_c, 1, 67, 64
3, 119808, Note_off_c, 1, 67, 0
3, 119808, Note_on_c, 1, 67, 64
3, 121856, Note_off_c, 1, 67, 0
3, 121856, Note_on_c, 1, 67, 64
3, 122880, Note_off_c, 1, 67, 0
3, 122880, Note_on_c, 1, 65, 64
3, 123904, Note_off_c, 1, 65, 0
3, 123904, Note_on_c, 1, 67, 64
3, 124928, Note_off_c, 1, 67, 0
3, 124928, Note_on_c, 1, 69, 64
3, 125952, Note_off_c, 1, 69, 0
3, 125952, Note_on_c, 1, 67, 64
3, 126976, Note_off_c, 1, 67, 0
3, 126976, Note_on_c, 1, 69, 64
3, 128000, Note_off_c, 1, 69, 0
3, 128000, Note_on_c, 1, 70, 64
3, 129024, Note_off_c, 1, 70, 0
3, 129024, Note_on_c, 1, 69, 64
3, 130048, Note_off_c, 1, 69, 0
3, 130048, Note_on_c, 1, 70, 64
3, 131072, Note_off_c, 1, 70, 0
3, 131072, Note_on_c, 1, 67, 64
3, 132096, Note_off_c, 1, 67, 0
3, 132096, Note_on_c, 1, 66, 64
3, 134144, Note_off_c, 1, 66, 0
3, 134144, Note_on_c, 1, 69, 64
3, 135168, Note_off_c, 1, 69, 0
3, 135168, Note_on_c, 1, 67, 64
3, 136192, Note_off_c, 1, 67, 0
3, 136192, Note_on_c, 1, 67, 64
3, 137216, Note_off_c, 1, 67, 0
3, 137216, Note_on_c, 1, 67, 64
3, 138240, Note_off_c, 1, 67, 0
3, 138240, Note_on_c, 1, 67, 64
3, 139264, Note_off_c, 1, 67, 0
3, 139264, Note_on_c, 1, 69, 64
3, 141312, Note_off_c, 1, 69, 0
3, 141312, Note_on_c, 1, 67, 64
3, 142336, Note_off_c, 1, 67, 0
3, 142336, Note_on_c, 1, 67, 64
3, 143360, Note_off_c, 1, 67, 0
3, 143360, Note_on_c, 1, 67, 64
3, 144384, Note_off_c, 1, 67, 0
3, 144384, Note_on_c, 1, 67, 64
3, 145408, Note_off_c, 1, 67, 0
3, 145408, Note_on_c, 1, 67, 64
3, 145920, Note_off_c, 1, 67, 0
3, 145920, Note_on_c, 1, 69, 64
3, 146432, Note_off_c, 1, 69, 0
3, 146432, Note_on_c, 1, 67, 64
3, 146944, Note_off_c, 1, 67, 0
3, 146944, Note_on_c, 1, 65, 64
3, 147456, Note_off_c, 1, 65, 0
3, 147456, Note_on_c, 1, 64, 64
3, 150528, Note_off_c, 1, 64, 0
3, 150528, End_track
4, 0, Start_track
4, 3072, Note_on_c, 2, 60, 64
4, 4096, Note_off_c, 2, 60, 0
4, 4096, Note_on_c, 2, 60, 64
4, 4608, Note_off_c, 2, 60, 0
4, 4608, Note_on_c, 2, 62, 64
4, 5120, Note_off_c, 2, 62, 0
4, 5120, Note_on_c, 2, 64, 64
4, 6144, Note_off_c, 2, 64, 0
4, 6144, Note_on_c, 2, 62, 64
4, 7168, Note_off_c, 2, 62, 0
4, 7168, Note_on_c, 2, 60, 64
4, 8192, Note_off_c, 2, 60, 0
4, 8192, Note_on_c, 2, 60, 64
4, 9216, Note_off_c, 2, 60, 0
4, 9216, Note_on_c, 2, 65, 64
4, 10240, Note_off_c, 2, 65, 0
4, 10240, Note_on_c, 2, 65, 64
4, 11264, Note_off_c, 2, 65, 0
4, 11264, Note_on_c, 2, 57, 64
4, 12288, Note_off_c, 2, 57, 0
4, 12288, Note_on_c, 2, 59, 64
4, 13312, Note_off_c, 2, 59, 0
4, 13312, Note_on_c, 2, 60, 64
4, 14336, Note_off_c, 2, 60, 0
4, 14336, Note_on_c, 2, 65, 64
4, 14848, Note_off_c, 2, 65, 0
4, 14848, Note_on_c, 2, 64, 64
4, 15360, Note_off_c, 2, 64, 0
4, 15360, Note_on_c, 2, 62, 64
4, 16384, Note_off_c, 2, 62, 0
4, 16384, Note_on_c, 2, 64, 64
4, 18432, Note_off_c, 2, 64, 0
4, 19456, Note_on_c, 2, 59, 64
4, 19968, Note_off_c, 2, 59, 0
4, 19968, Note_on_c, 2, 57, 64
4, 20480, Note_off_c, 2, 57, 0
4, 20480, Note_on_c, 2, 59, 64
4, 20992, Note_off_c, 2, 59, 0
4, 20992, Note_on_c, 2, 57, 64
4, 21504, Note_off_c, 2, 57, 0
4, 21504, Note_on_c, 2, 59, 64
4, 22016, Note_off_c, 2, 59, 0
4, 22016, Note_on_c, 2, 60, 64
4, 22528, Note_off_c, 2, 60, 0
4, 22528, Note_on_c, 2, 62, 64
4, 23552, Note_off_c, 2, 62, 0
4, 23552, Note_on_c, 2, 60, 64
4, 24064, Note_off_c, 2, 60, 0
4, 24064, Note_on_c, 2, 58, 64
4, 24576, Note_off_c, 2, 58, 0
4, 24576, Note_on_c, 2, 58, 64
4, 25600, Note_off_c, 2, 58, 0
4, 25600, Note_on_c, 2, 57, 64
4, 26112, Note_off_c, 2, 57, 0
4, 26112, Note_on_c, 2, 55, 64
4, 26624, Note_off_c, 2, 55, 0
4, 26624, Note_on_c, 2, 57, 64
4, 27648, Note_off_c, 2, 57, 0
4, 27648, Note_on_c, 2, 64, 64
4, 28672, Note_off_c, 2, 64, 0
4, 28672, Note_on_c, 2, 62, 64
4, 29696, Note_off_c, 2, 62, 0
4, 29696, Note_on_c, 2, 60, 64
4, 31744, Note_off_c, 2, 60, 0
4, 31744, Note_on_c, 2, 59, 64
4, 32768, Note_off_c, 2, 59, 0
4, 32768, Note_on_c, 2, 55, 64
4, 35840, Note_off_c, 2, 55, 0
4, 35840, Note_on_c, 2, 60, 64
4, 36864, Note_off_c, 2, 60, 0
4, 36864, Note_on_c, 2, 60, 64
4, 37376, Note_off_c, 2, 60, 0
4, 37376, Note_on_c, 2, 62, 64
4, 37888, Note_off_c, 2, 62, 0
4, 37888, Note_on_c, 2, 64, 64
4, 38912, Note_off_c, 2, 64, 0
4, 38912, Note_on_c, 2, 62, 64
4, 39936, Note_off_c, 2, 62, 0
4, 39936, Note_on_c, 2, 60, 64
4, 40960, Note_off_c, 2, 60, 0
4, 40960, Note_on_c, 2, 60, 64
4, 41984, Note_off_c, 2, 60, 0
4, 41984, Note_on_c, 2, 65, 64
4, 43008, Note_off_c, 2, 65, 0
4, 43008, Note_on_c, 2, 65, 64
4, 44032, Note_off_c, 2, 65, 0
4, 44032, Note_on_c, 2, 57, 64
4, 45056, Note_off_c, 2, 57, 0
4, 45056, Note_on_c, 2, 59, 64
4, 46080, Note_off_c, 2, 59, 0
4, 46080, Note_on_c, 2, 60, 64
4, 47104, Note_off_c, 2, 60, 0
4, 47104, Note_on_c, 2, 65, 64
4, 47616, Note_off_c, 2, 65, 0
4, 47616, Note_on_c, 2, 64, 64
4, 48128, Note_off_c, 2, 64, 0
4, 48128, Note_on_c, 2, 62, 64
4, 49152, Note_off_c, 2, 62, 0
4, 49152, Note_on_c, 2, 64, 64
4, 51200, Note_off_c, 2, 64, 0
4, 52224, Note_on_c, 2, 59, 64
4, 52736, Note_off_c, 2, 59, 0
4, 52736, Note_on_c, 2, 57, 64
4, 53248, Note_off_c, 2, 57, 0
4, 53248, Note_on_c, 2, 59, 64
4, 53760, Note_off_c, 2, 59, 0
4, 53760, Note_on_c, 2, 57, 64
4, 54272, Note_off_c, 2, 57, 0
4, 54272, Note_on_c, 2, 59, 64
4, 54784, Note_off_c, 2, 59, 0
4, 54784, Note_on_c, 2, 60, 64
4, 55296, Note_off_c, 2, 60, 0
4, 55296, Note_on_c, 2, 62, 64
4, 56320, Note_off_c, 2, 62, 0
4, 56320, Note_on_c, 2, 60, 64
4, 56832, Note_off_c, 2, 60, 0
4, 56832, Note_on_c, 2, 58, 64
4, 57344, Note_off_c, 2, 58, 0
4, 57344, Note_on_c, 2, 58, 64
4, 58368, Note_off_c, 2, 58, 0
4, 58368, Note_on_c, 2, 57, 64
4, 58880, Note_off_c, 2, 57, 0
4, 58880, Note_on_c, 2, 55, 64
4, 59392, Note_off_c, 2, 55, 0
4, 59392, Note_on_c, 2, 57, 64
4, 60416, Note_off_c, 2, 57, 0
4, 60416, Note_on_c, 2, 64, 64
4, 61440, Note_off_c, 2, 64, 0
4, 61440, Note_on_c, 2, 62, 64
4, 62464, Note_off_c, 2, 62, 0
4, 62464, Note_on_c, 2, 60, 64
4, 64512, Note_off_c, 2, 60, 0
4, 64512, Note_on_c, 2, 59, 64
4, 65536, Note_off_c, 2, 59, 0
4, 65536, Note_on_c, 2, 55, 64
4, 68608, Note_off_c, 2, 55, 0
4, 68608, Note_on_c, 2, 62, 64
4, 69632, Note_off_c, 2, 62, 0
4, 69632, Note_on_c, 2, 62, 64
4, 70144, Note_off_c, 2, 62, 0
4, 70144, Note_on_c, 2, 64, 64
4, 70656, Note_off_c, 2, 64, 0
4, 70656, Note_on_c, 2, 66, 64
4, 71680, Note_off_c, 2, 66, 0
4, 71680, Note_on_c, 2, 64, 64
4, 72704, Note_off_c, 2, 64, 0
4, 72704, Note_on_c, 2, 64, 64
4, 73728, Note_off_c, 2, 64, 0
4, 73728, Note_on_c, 2, 64, 64
4, 75776, Note_off_c, 2, 64, 0
4, 75776, Note_on_c, 2, 64, 64
4, 76800, Note_off_c, 2, 64, 0
4, 76800, Note_on_c, 2, 65, 64
4, 77824, Note_off_c, 2, 65, 0
4, 77824, Note_on_c, 2, 65, 64
4, 78848, Note_off_c, 2, 65, 0
4, 78848, Note_on_c, 2, 64, 64
4, 79360, Note_off_c, 2, 64, 0
4, 79360, Note_on_c, 2, 65, 64
4, 79872, Note_off_c, 2, 65, 0
4, 79872, Note_on_c, 2, 67, 64
4, 80896, Note_off_c, 2, 67, 0
4, 80896, Note_on_c, 2, 65, 64
4, 82944, Note_off_c, 2, 65, 0
4, 82944, Note_on_c, 2, 64, 64
4, 83456, Note_off_c, 2, 64, 0
4, 83456, Note_on_c, 2, 62, 64
4, 83968, Note_off_c, 2, 62, 0
4, 83968, Note_on_c, 2, 64, 64
4, 84992, Note_off_c, 2, 64, 0
4, 84992, Note_on_c, 2, 60, 64
4, 86016, Note_off_c, 2, 60, 0
4, 86016, Note_on_c, 2, 60, 64
4, 87040, Note_off_c, 2, 60, 0
4, 87040, Note_on_c, 2, 62, 64
4, 88064, Note_off_c, 2, 62, 0
4, 88064, Note_on_c, 2, 64, 64
4, 89088, Note_off_c, 2, 64, 0
4, 89088, Note_on_c, 2, 62, 64
4, 91136, Note_off_c, 2, 62, 0
4, 91136, Note_on_c, 2, 67, 64
4, 92160, Note_off_c, 2, 67, 0
4, 92160, Note_on_c, 2, 60, 64
4, 94208, Note_off_c, 2, 60, 0
4, 94208, Note_on_c, 2, 62, 64
4, 95232, Note_off_c, 2, 62, 0
4, 95232, Note_on_c, 2, 64, 64
4, 97280, Note_off_c, 2, 64, 0
4, 97280, Note_on_c, 2, 67, 64
4, 98304, Note_off_c, 2, 67, 0
4, 98304, Note_on_c, 2, 67, 64
4, 99328, Note_off_c, 2, 67, 0
4, 99328, Note_on_c, 2, 65, 64
4, 100352, Note_off_c, 2, 65, 0
4, 100352, Note_on_c, 2, 64, 64
4, 101376, Note_off_c, 2, 64, 0
4, 101376, Note_on_c, 2, 65, 64
4, 102400, Note_off_c, 2, 65, 0
4, 102400, Note_on_c, 2, 64, 64
4, 104448, Note_off_c, 2, 64, 0
4, 104448, Note_on_c, 2, 62, 64
4, 106496, Note_off_c, 2, 62, 0
4, 106496, Note_on_c, 2, 64, 64
4, 107520, Note_off_c, 2, 64, 0
4, 107520, Note_on_c, 2, 65, 64
4, 109568, Note_off_c, 2, 65, 0
4, 109568, Note_on_c, 2, 60, 64
4, 110592, Note_off_c, 2, 60, 0
4, 110592, Note_on_c, 2, 59, 64
4, 111616, Note_off_c, 2, 59, 0
4, 111616, Note_on_c, 2, 64, 64
4, 113664, Note_off_c, 2, 64, 0
4, 113664, Note_on_c, 2, 57, 64
4, 114688, Note_off_c, 2, 57, 0
4, 114688, Note_on_c, 2, 59, 64
4, 115712, Note_off_c, 2, 59, 0
4, 115712, Note_on_c, 2, 60, 64
4, 117760, Note_off_c, 2, 60, 0
4, 117760, Note_on_c, 2, 59, 64
4, 118272, Note_off_c, 2, 59, 0
4, 118272, Note_on_c, 2, 57, 64
4, 118784, Note_off_c, 2, 57, 0
4, 118784, Note_on_c, 2, 59, 64
4, 119808, Note_off_c, 2, 59, 0
4, 119808, Note_on_c, 2, 60, 64
4, 121856, Note_off_c, 2, 60, 0
4, 121856, Note_on_c, 2, 57, 64
4, 122880, Note_off_c, 2, 57, 0
4, 122880, Note_on_c, 2, 57, 64
4, 124928, Note_off_c, 2, 57, 0
4, 124928, Note_on_c, 2, 62, 64
4, 125952, Note_off_c, 2, 62, 0
4, 125952, Note_on_c, 2, 64, 64
4, 128000, Note_off_c, 2, 64, 0
4, 128000, Note_on_c, 2, 64, 64
4, 129024, Note_off_c, 2, 64, 0
4, 129024, Note_on_c, 2, 57, 64
4, 130048, Note_off_c, 2, 57, 0
4, 130048, Note_on_c, 2, 62, 64
4, 131072, Note_off_c, 2, 62, 0
4, 131072, Note_on_c, 2, 58, 64
4, 132096, Note_off_c, 2, 58, 0
4, 132096, Note_on_c, 2, 57, 64
4, 134144, Note_off_c, 2, 57, 0
4, 134144, Note_on_c, 2, 60, 64
4, 135168, Note_off_c, 2, 60, 0
4, 135168, Note_on_c, 2, 60, 64
4, 136192, Note_off_c, 2, 60, 0
4, 136192, Note_on_c, 2, 60, 64
4, 137216, Note_off_c, 2, 60, 0
4, 137216, Note_on_c, 2, 59, 64
4, 138240, Note_off_c, 2, 59, 0
4, 138240, Note_on_c, 2, 60, 64
4, 139264, Note_off_c, 2, 60, 0
4, 139264, Note_on_c, 2, 60, 64
4, 139776, Note_off_c, 2, 60, 0
4, 139776, Note_on_c, 2, 64, 64
4, 140288, Note_off_c, 2, 64, 0
4, 140288, Note_on_c, 2, 62, 64
4, 140800, Note_off_c, 2, 62, 0
4, 140800, Note_on_c, 2, 60, 64
4, 141312, Note_off_c, 2, 60, 0
4, 141312, Note_on_c, 2, 59, 64
4, 142336, Note_off_c, 2, 59, 0
4, 142336, Note_on_c, 2, 59, 64
4, 143360, Note_off_c, 2, 59, 0
4, 143360, Note_on_c, 2, 59, 64
4, 144384, Note_off_c, 2, 59, 0
4, 144384, Note_on_c, 2, 60, 64
4, 144896, Note_off_c, 2, 60, 0
4, 144896, Note_on_c, 2, 62, 64
4, 145408, Note_off_c, 2, 62, 0
4, 145408, Note_on_c, 2, 64, 64
4, 146432, Note_off_c, 2, 64, 0
4, 146432, Note_on_c, 2, 62, 64
4, 146944, Note_off_c, 2, 62, 0
4, 146944, Note_on_c, 2, 55, 64
4, 147456, Note_off_c, 2, 55, 0
4, 147456, Note_on_c, 2, 55, 64
4, 150528, Note_off_c, 2, 55, 0
4, 150528, End_track
5, 0, Start_track
5, 3072, Note_on_c, 3, 48, 64
5, 4096, Note_off_c, 3, 48, 0
5, 4096, Note_on_c, 3, 48, 64
5, 5120, Note_off_c, 3, 48, 0
5, 5120, Note_on_c, 3, 60, 64
5, 6144, Note_off_c, 3, 60, 0
5, 6144, Note_on_c, 3, 59, 64
5, 7168, Note_off_c, 3, 59, 0
5, 7168, Note_on_c, 3, 58, 64
5, 8192, Note_off_c, 3, 58, 0
5, 8192, Note_on_c, 3, 57, 64
5, 9216, Note_off_c, 3, 57, 0
5, 9216, Note_on_c, 3, 55, 64
5, 9728, Note_off_c, 3, 55, 0
5, 9728, Note_on_c, 3, 53, 64
5, 10240, Note_off_c, 3, 53, 0
5, 10240, Note_on_c, 3, 58, 64
5, 11264, Note_off_c, 3, 58, 0
5, 11264, Note_on_c, 3, 54, 64
5, 12288, Note_off_c, 3, 54, 0
5, 12288, Note_on_c, 3, 55, 64
5, 12800, Note_off_c, 3, 55, 0
5, 12800, Note_on_c, 3, 53, 64
5, 13312, Note_off_c, 3, 53, 0
5, 13312, Note_on_c, 3, 52, 64
5, 14336, Note_off_c, 3, 52, 0
5, 14336, Note_on_c, 3, 53, 64
5, 15360, Note_off_c, 3, 53, 0
5, 15360, Note_on_c, 3, 55, 64
5, 16384, Note_off_c, 3, 55, 0
5, 16384, Note_on_c, 3, 48, 64
5, 18432, Note_off_c, 3, 48, 0
5, 19456, Note_on_c, 3, 43, 64
5, 20480, Note_off_c, 3, 43, 0
5, 20480, Note_on_c, 3, 55, 64
5, 20992, Note_off_c, 3, 55, 0
5, 20992, Note_on_c, 3, 54, 64
5, 21504, Note_off_c, 3, 54, 0
5, 21504, Note_on_c, 3, 55, 64
5, 22016, Note_off_c, 3, 55, 0
5, 22016, Note_on_c, 3, 57, 64
5, 22528, Note_off_c, 3, 57, 0
5, 22528, Note_on_c, 3, 59, 64
5, 23040, Note_off_c, 3, 59, 0
5, 23040, Note_on_c, 3, 55, 64
5, 23552, Note_off_c, 3, 55, 0
5, 23552, Note_on_c, 3, 60, 64
5, 24576, Note_off_c, 3, 60, 0
5, 24576, Note_on_c, 3, 53, 64
5, 26624, Note_off_c, 3, 53, 0
5, 26624, Note_on_c, 3, 53, 64
5, 27648, Note_off_c, 3, 53, 0
5, 27648, Note_on_c, 3, 52, 64
5, 28160, Note_off_c, 3, 52, 0
5, 28160, Note_on_c, 3, 53, 64
5, 28672, Note_off_c, 3, 53, 0
5, 28672, Note_on_c, 3, 55, 64
5, 29696, Note_off_c, 3, 55, 0
5, 29696, Note_on_c, 3, 57, 64
5, 30208, Note_off_c, 3, 57, 0
5, 30208, Note_on_c, 3, 55, 64
5, 30720, Note_off_c, 3, 55, 0
5, 30720, Note_on_c, 3, 53, 64
5, 31744, Note_off_c, 3, 53, 0
5, 31744, Note_on_c, 3, 55, 64
5, 32256, Note_off_c, 3, 55, 0
5, 32256, Note_on_c, 3, 43, 64
5, 32768, Note_off_c, 3, 43, 0
5, 32768, Note_on_c, 3, 48, 64
5, 35840, Note_off_c, 3, 48, 0
5, 35840, Note_on_c, 3, 43, 64
5, 36864, Note_off_c, 3, 43, 0
5, 36864, Note_on_c, 3, 48, 64
5, 37888, Note_off_c, 3, 48, 0
5, 37888, Note_on_c, 3, 60, 64
5, 38912, Note_off_c, 3, 60, 0
5, 38912, Note_on_c, 3, 59, 64
5, 39936, Note_off_c, 3, 59, 0
5, 39936, Note_on_c, 3, 58, 64
5, 40960, Note_off_c, 3, 58, 0
5, 40960, Note_on_c, 3, 57, 64
5, 41984, Note_off_c, 3, 57, 0
5, 41984, Note_on_c, 3, 55, 64
5, 42496, Note_off_c, 3, 55, 0
5, 42496, Note_on_c, 3, 53, 64
5, 43008, Note_off_c, 3, 53, 0
5, 43008, Note_on_c, 3, 58, 64
5, 44032, Note_off_c, 3, 58, 0
5, 44032, Note_on_c, 3, 54, 64
5, 45056, Note_off_c, 3, 54, 0
5, 45056, Note_on_c, 3, 55, 64
5, 45568, Note_off_c, 3, 55, 0
5, 45568, Note_on_c, 3, 53, 64
5, 46080, Note_off_c, 3, 53, 0
5, 46080, Note_on_c, 3, 52, 64
5, 47104, Note_off_c, 3, 52, 0
5, 47104, Note_on_c, 3, 53, 64
5, 48128, Note_off_c, 3, 53, 0
5, 48128, Note_on_c, 3, 55, 64
5, 49152, Note_off_c, 3, 55, 0
5, 49152, Note_on_c, 3, 48, 64
5, 51200, Note_off_c, 3, 48, 0
5, 52224, Note_on_c, 3, 43, 64
5, 53248, Note_off_c, 3, 43, 0
5, 53248, Note_on_c, 3, 55, 64
5, 53760, Note_off_c, 3, 55, 0
5, 53760, Note_on_c, 3, 54, 64
5, 54272, Note_off_c, 3, 54, 0
5, 54272, Note_on_c, 3, 55, 64
5, 54784, Note_off_c, 3, 55, 0
5, 54784, Note_on_c, 3, 57, 64
5, 55296, Note_off_c, 3, 57, 0
5, 55296, Note_on_c, 3, 59, 64
5, 55808, Note_off_c, 3, 59, 0
5, 55808, Note_on_c, 3, 55, 64
5, 56320, Note_off_c, 3, 55, 0
5, 56320, Note_on_c, 3, 60, 64
5, 57344, Note_off_c, 3, 60, 0
5, 57344, Note_on_c, 3, 53, 64
5, 59392, Note_off_c, 3, 53, 0
5, 59392, Note_on_c, 3, 53, 64
5, 60416, Note_off_c, 3, 53, 0
5, 60416, Note_on_c, 3, 52, 64
5, 60928, Note_off_c, 3, 52, 0
5, 60928, Note_on_c, 3, 53, 64
5, 61440, Note_off_c, 3, 53, 0
5, 61440, Note_on_c, 3, 55, 64
5, 62464, Note_off_c, 3, 55, 0
5, 62464, Note_on_c, 3, 57, 64
5, 62976, Note_off_c, 3, 57, 0
5, 62976, Note_on_c, 3, 55, 64
5, 63488, Note_off_c, 3, 55, 0
5, 63488, Note_on_c, 3, 53, 64
5, 64512, Note_off_c, 3, 53, 0
5, 64512, Note_on_c, 3, 55, 64
5, 65024, Note_off_c, 3, 55, 0
5, 65024, Note_on_c, 3, 43, 64
5, 65536, Note_off_c, 3, 43, 0
5, 65536, Note_on_c, 3, 48, 64
5, 68608, Note_off_c, 3, 48, 0
5, 68608, Note_on_c, 3, 43, 64
5, 69632, Note_off_c, 3, 43, 0
5, 69632, Note_on_c, 3, 55, 64
5, 70144, Note_off_c, 3, 55, 0
5, 70144, Note_on_c, 3, 54, 64
5, 70656, Note_off_c, 3, 54, 0
5, 70656, Note_on_c, 3, 52, 64
5, 71168, Note_off_c, 3, 52, 0
5, 71168, Note_on_c, 3, 51, 64
5, 71680, Note_off_c, 3, 51, 0
5, 71680, Note_on_c, 3, 52, 64
5, 72192, Note_off_c, 3, 52, 0
5, 72192, Note_on_c, 3, 50, 64
5, 72704, Note_off_c, 3, 50, 0
5, 72704, Note_on_c, 3, 48, 64
5, 73216, Note_off_c, 3, 48, 0
5, 73216, Note_on_c, 3, 47, 64
5, 73728, Note_off_c, 3, 47, 0
5, 73728, Note_on_c, 3, 45, 64
5, 75776, Note_off_c, 3, 45, 0
5, 75776, Note_on_c, 3, 45, 64
5, 76800, Note_off_c, 3, 45, 0
5, 76800, Note_on_c, 3, 50, 64
5, 77824, Note_off_c, 3, 50, 0
5, 77824, Note_on_c, 3, 52, 64
5, 78336, Note_off_c, 3, 52, 0
5, 78336, Note_on_c, 3, 53, 64
5, 78848, Note_off_c, 3, 53, 0
5, 78848, Note_on_c, 3, 55, 64
5, 79360, Note_off_c, 3, 55, 0
5, 79360, Note_on_c, 3, 57, 64
5, 79872, Note_off_c, 3, 57, 0
5, 79872, Note_on_c, 3, 55, 64
5, 80384, Note_off_c, 3, 55, 0
5, 80384, Note_on_c, 3, 53, 64
5, 80896, Note_off_c, 3, 53, 0
5, 80896, Note_on_c, 3, 52, 64
5, 81408, Note_off_c, 3, 52, 0
5, 81408, Note_on_c, 3, 50, 64
5, 81920, Note_off_c, 3, 50, 0
5, 81920, Note_on_c, 3, 48, 64
5, 83968, Note_off_c, 3, 48, 0
5, 83968, Note_on_c, 3, 48, 64
5, 84992, Note_off_c, 3, 48, 0
5, 84992, Note_on_c, 3, 48, 64
5, 86016, Note_off_c, 3, 48, 0
5, 86016, Note_on_c, 3, 60, 64
5, 87040, Note_off_c, 3, 60, 0
5, 87040, Note_on_c, 3, 59, 64
5, 88064, Note_off_c, 3, 59, 0
5, 88064, Note_on_c, 3, 57, 64
5, 89088, Note_off_c, 3, 57, 0
5, 89088, Note_on_c, 3, 59, 64
5, 90112, Note_off_c, 3, 59, 0
5, 90112, Note_on_c, 3, 57, 64
5, 91136, Note_off_c, 3, 57, 0
5, 91136, Note_on_c, 3, 55, 64
5, 92160, Note_off_c, 3, 55, 0
5, 92160, Note_on_c, 3, 57, 64
5, 94208, Note_off_c, 3, 57, 0
5, 94208, Note_on_c, 3, 59, 64
5, 95232, Note_off_c, 3, 59, 0
5, 95232, Note_on_c, 3, 60, 64
5, 97280, Note_off_c, 3, 60, 0
5, 97280, Note_on_c, 3, 48, 64
5, 98304, Note_off_c, 3, 48, 0
5, 98304, Note_on_c, 3, 55, 64
5, 99328, Note_off_c, 3, 55, 0
5, 99328, Note_on_c, 3, 57, 64
5, 100352, Note_off_c, 3, 57, 0
5, 100352, Note_on_c, 3, 58, 64
5, 101376, Note_off_c, 3, 58, 0
5, 101376, Note_on_c, 3, 57, 64
5, 102400, Note_off_c, 3, 57, 0
5, 102400, Note_on_c, 3, 55, 64
5, 103424, Note_off_c, 3, 55, 0
5, 103424, Note_on_c, 3, 57, 64
5, 104448, Note_off_c, 3, 57, 0
5, 104448, Note_on_c, 3, 58, 64
5, 105472, Note_off_c, 3, 58, 0
5, 105472, Note_on_c, 3, 57, 64
5, 106496, Note_off_c, 3, 57, 0
5, 106496, Note_on_c, 3, 55, 64
5, 107520, Note_off_c, 3, 55, 0
5, 107520, Note_on_c, 3, 50, 64
5, 109568, Note_off_c, 3, 50, 0
5, 109568, Note_on_c, 3, 57, 64
5, 110592, Note_off_c, 3, 57, 0
5, 110592, Note_on_c, 3, 56, 64
5, 112640, Note_off_c, 3, 56, 0
5, 112640, Note_on_c, 3, 57, 64
5, 113664, Note_off_c, 3, 57, 0
5, 113664, Note_on_c, 3, 53, 64
5, 115712, Note_off_c, 3, 53, 0
5, 115712, Note_on_c, 3, 52, 64
5, 116736, Note_off_c, 3, 52, 0
5, 116736, Note_on_c, 3, 50, 64
5, 118784, Note_off_c, 3, 50, 0
5, 118784, Note_on_c, 3, 55, 64
5, 119808, Note_off_c, 3, 55, 0
5, 119808, Note_on_c, 3, 48, 64
5, 121856, Note_off_c, 3, 48, 0
5, 121856, Note_on_c, 3, 49, 64
5, 122880, Note_off_c, 3, 49, 0
5, 122880, Note_on_c, 3, 50, 64
5, 123904, Note_off_c, 3, 50, 0
5, 123904, Note_on_c, 3, 52, 64
5, 124928, Note_off_c, 3, 52, 0
5, 124928, Note_on_c, 3, 53, 64
5, 125952, Note_off_c, 3, 53, 0
5, 125952, Note_on_c, 3, 52, 64
5, 126976, Note_off_c, 3, 52, 0
5, 126976, Note_on_c, 3, 53, 64
5, 128000, Note_off_c, 3, 53, 0
5, 128000, Note_on_c, 3, 55, 64
5, 129024, Note_off_c, 3, 55, 0
5, 129024, Note_on_c, 3, 54, 64
5, 130048, Note_off_c, 3, 54, 0
5, 130048, Note_on_c, 3, 55, 64
5, 131072, Note_off_c, 3, 55, 0
5, 131072, Note_on_c, 3, 43, 64
5, 132096, Note_off_c, 3, 43, 0
5, 132096, Note_on_c, 3, 50, 64
5, 134144, Note_off_c, 3, 50, 0
5, 134144, Note_on_c, 3, 45, 64
5, 134656, Note_off_c, 3, 45, 0
5, 134656, Note_on_c, 3, 47, 64
5, 135168, Note_off_c, 3, 47, 0
5, 135168, Note_on_c, 3, 48, 64
5, 135680, Note_off_c, 3, 48, 0
5, 135680, Note_on_c, 3, 50, 64
5, 136192, Note_off_c, 3, 50, 0
5, 136192, Note_on_c, 3, 52, 64
5, 136704, Note_off_c, 3, 52, 0
5, 136704, Note_on_c, 3, 48, 64
5, 137216, Note_off_c, 3, 48, 0
5, 137216, Note_on_c, 3, 53, 64
5, 137728, Note_off_c, 3, 53, 0
5, 137728, Note_on_c, 3, 55, 64
5, 138240, Note_off_c, 3, 55, 0
5, 138240, Note_on_c, 3, 53, 64
5, 138752, Note_off_c, 3, 53, 0
5, 138752, Note_on_c, 3, 52, 64
5, 139264, Note_off_c, 3, 52, 0
5, 139264, Note_on_c, 3, 50, 64
5, 139776, Note_off_c, 3, 50, 0
5, 139776, Note_on_c, 3, 52, 64
5, 140288, Note_off_c, 3, 52, 0
5, 140288, Note_on_c, 3, 53, 64
5, 140800, Note_off_c, 3, 53, 0
5, 140800, Note_on_c, 3, 50, 64
5, 141312, Note_off_c, 3, 50, 0
5, 141312, Note_on_c, 3, 55, 64
5, 141824, Note_off_c, 3, 55, 0
5, 141824, Note_on_c, 3, 57, 64
5, 142336, Note_off_c, 3, 57, 0
5, 142336, Note_on_c, 3, 55, 64
5, 142848, Note_off_c, 3, 55, 0
5, 142848, Note_on_c, 3, 53, 64
5, 143360, Note_off_c, 3, 53, 0
5, 143360, Note_on_c, 3, 52, 64
5, 143872, Note_off_c, 3, 52, 0
5, 143872, Note_on_c, 3, 50, 64
5, 144384, Note_off_c, 3, 50, 0
5, 144384, Note_on_c, 3, 52, 64
5, 144896, Note_off_c, 3, 52, 0
5, 144896, Note_on_c, 3, 53, 64
5, 145408, Note_off_c, 3, 53, 0
5, 145408, Note_on_c, 3, 55, 64
5, 145920, Note_off_c, 3, 55, 0
5, 145920, Note_on_c, 3, 53, 64
5, 146432, Note_off_c, 3, 53, 0
5, 146432, Note_on_c, 3, 55, 64
5, 146944, Note_off_c, 3, 55, 0
5, 146944, Note_on_c, 3, 43, 64
5, 147456, Note_off_c, 3, 43, 0
5, 147456, Note_on_c, 3, 48, 64
5, 150528, Note_off_c, 3, 48, 0
5, 150528, End_track
0, 0, End_of_file
