0, 0, Header, 1, 5, 120
1, 0, Start_track
1, 0, Time_signature, 1, 4, 6, 8
1, 0, Key_signature, -2, "major"
1, 0, Tempo, 631578
1, 30, Time_signature, 4, 2, 24, 8
1, 36393, Tempo, 923076
1, 36393, End_track
2, 0, Start_track
2, 0, MIDI_port, 0
2, 0, Program_c, 0, 99
2, 0, Control_c, 0, 7, 90
2, 0, Control_c, 0, 10, 64
2, 38, Control_c, 0, 7, 99
2, 120, Note_on_c, 0, 77, 80
2, 146, Note_on_c, 0, 77, 0
2, 150, Note_on_c, 0, 77, 80
2, 176, Note_on_c, 0, 77, 0
2, 180, Note_on_c, 0, 74, 80
2, 206, Note_on_c, 0, 74, 0
2, 210, Note_on_c, 0, 70, 80
2, 236, Note_on_c, 0, 70, 0
2, 240, Note_on_c, 0, 69, 80
2, 266, Note_on_c, 0, 69, 0
2, 270, Note_on_c, 0, 70, 80
2, 296, Note_on_c, 0, 70, 0
2, 300, Note_on_c, 0, 74, 80
2, 326, Note_on_c, 0, 74, 0
2, 330, Note_on_c, 0, 65, 80
2, 356, Note_on_c, 0, 65, 0
2, 360, Note_on_c, 0, 70, 80
2, 386, Note_on_c, 0, 70, 0
2, 390, Note_on_c, 0, 62, 80
2, 416, Note_on_c, 0, 62, 0
2, 420, Note_on_c, 0, 65, 80
2, 446, Note_on_c, 0, 65, 0
2, 450, Note_on_c, 0, 58, 80
2, 476, Note_on_c, 0, 58, 0
2, 480, Note_on_c, 0, 62, 80
2, 506, Note_on_c, 0, 62, 0
2, 510, Note_on_c, 0, 65, 80
2, 536, Note_on_c, 0, 65, 0
2, 540, Note_on_c, 0, 68, 80
2, 566, Note_on_c, 0, 68, 0
2, 570, Note_on_c, 0, 74, 80
2, 596, Note_on_c, 0, 74, 0
2, 600, Note_on_c, 0, 77, 80
2, 626, Note_on_c, 0, 77, 0
2, 630, Note_on_c, 0, 79, 80
2, 656, Note_on_c, 0, 79, 0
2, 660, Note_on_c, 0, 75, 80
2, 686, Note_on_c, 0, 75, 0
2, 690, Note_on_c, 0, 70, 80
2, 716, Note_on_c, 0, 70, 0
2, 720, Note_on_c, 0, 69, 80
2, 746, Note_on_c, 0, 69, 0
2, 750, Note_on_c, 0, 70, 80
2, 776, Note_on_c, 0, 70, 0
2, 780, Note_on_c, 0, 75, 80
2, 806, Note_on_c, 0, 75, 0
2, 810, Note_on_c, 0, 67, 80
2, 836, Note_on_c, 0, 67, 0
2, 840, Note_on_c, 0, 70, 80
2, 866, Note_on_c, 0, 70, 0
2, 870, Note_on_c, 0, 63, 80
2, 896, Note_on_c, 0, 63, 0
2, 900, Note_on_c, 0, 67, 80
2, 926, Note_on_c, 0, 67, 0
2, 930, Note_on_c, 0, 58, 80
2, 956, Note_on_c, 0, 58, 0
2, 960, Note_on_c, 0, 63, 80
2, 986, Note_on_c, 0, 63, 0
2, 990, Note_on_c, 0, 67, 80
2, 1016, Note_on_c, 0, 67, 0
2, 1020, Note_on_c, 0, 70, 80
2, 1046, Note_on_c, 0, 70, 0
2, 1050, Note_on_c, 0, 75, 80
2, 1076, Note_on_c, 0, 75, 0
2, 1080, Note_on_c, 0, 79, 80
2, 1106, Note_on_c, 0, 79, 0
2, 1110, Note_on_c, 0, 81, 80
2, 1136, Note_on_c, 0, 81, 0
2, 1140, Note_on_c, 0, 75, 80
2, 1166, Note_on_c, 0, 75, 0
2, 1170, Note_on_c, 0, 72, 80
2, 1196, Note_on_c, 0, 72, 0
2, 1200, Note_on_c, 0, 70, 80
2, 1226, Note_on_c, 0, 70, 0
2, 1230, Note_on_c, 0, 72, 80
2, 1256, Note_on_c, 0, 72, 0
2, 1260, Note_on_c, 0, 75, 80
2, 1286, Note_on_c, 0, 75, 0
2, 1290, Note_on_c, 0, 69, 80
2, 1316, Note_on_c, 0, 69, 0
2, 1320, Note_on_c, 0, 72, 80
2, 1346, Note_on_c, 0, 72, 0
2, 1350, Note_on_c, 0, 63, 80
2, 1376, Note_on_c, 0, 63, 0
2, 1380, Note_on_c, 0, 69, 80
2, 1406, Note_on_c, 0, 69, 0
2, 1410, Note_on_c, 0, 60, 80
2, 1436, Note_on_c, 0, 60, 0
2, 1440, Note_on_c, 0, 63, 80
2, 1466, Note_on_c, 0, 63, 0
2, 1470, Note_on_c, 0, 69, 80
2, 1496, Note_on_c, 0, 69, 0
2, 1500, Note_on_c, 0, 72, 80
2, 1526, Note_on_c, 0, 72, 0
2, 1530, Note_on_c, 0, 75, 80
2, 1556, Note_on_c, 0, 75, 0
2, 1560, Note_on_c, 0, 81, 80
2, 1586, Note_on_c, 0, 81, 0
2, 1590, Note_on_c, 0, 82, 80
2, 1616, Note_on_c, 0, 82, 0
2, 1620, Note_on_c, 0, 77, 80
2, 1646, Note_on_c, 0, 77, 0
2, 1650, Note_on_c, 0, 74, 80
2, 1676, Note_on_c, 0, 74, 0
2, 1680, Note_on_c, 0, 72, 80
2, 1706, Note_on_c, 0, 72, 0
2, 1710, Note_on_c, 0, 74, 80
2, 1736, Note_on_c, 0, 74, 0
2, 1740, Note_on_c, 0, 77, 80
2, 1766, Note_on_c, 0, 77, 0
2, 1770, Note_on_c, 0, 70, 80
2, 1796, Note_on_c, 0, 70, 0
2, 1800, Note_on_c, 0, 74, 80
2, 1826, Note_on_c, 0, 74, 0
2, 1830, Note_on_c, 0, 65, 80
2, 1856, Note_on_c, 0, 65, 0
2, 1860, Note_on_c, 0, 70, 80
2, 1886, Note_on_c, 0, 70, 0
2, 1890, Note_on_c, 0, 62, 80
2, 1916, Note_on_c, 0, 62, 0
2, 1920, Note_on_c, 0, 65, 80
2, 1946, Note_on_c, 0, 65, 0
2, 1980, Note_on_c, 0, 67, 80
2, 2032, Note_on_c, 0, 67, 0
2, 2040, Note_on_c, 0, 65, 80
2, 2066, Note_on_c, 0, 65, 0
2, 2100, Note_on_c, 0, 72, 80
2, 2126, Note_on_c, 0, 72, 0
2, 2130, Note_on_c, 0, 64, 80
2, 2156, Note_on_c, 0, 64, 0
2, 2160, Note_on_c, 0, 62, 80
2, 2186, Note_on_c, 0, 62, 0
2, 2190, Note_on_c, 0, 64, 80
2, 2216, Note_on_c, 0, 64, 0
2, 2220, Note_on_c, 0, 67, 80
2, 2246, Note_on_c, 0, 67, 0
2, 2250, Note_on_c, 0, 60, 80
2, 2276, Note_on_c, 0, 60, 0
2, 2280, Note_on_c, 0, 64, 80
2, 2306, Note_on_c, 0, 64, 0
2, 2340, Note_on_c, 0, 57, 80
2, 2366, Note_on_c, 0, 57, 0
2, 2370, Note_on_c, 0, 60, 80
2, 2396, Note_on_c, 0, 60, 0
2, 2400, Note_on_c, 0, 63, 80
2, 2426, Note_on_c, 0, 63, 0
2, 2430, Note_on_c, 0, 62, 80
2, 2456, Note_on_c, 0, 62, 0
2, 2460, Note_on_c, 0, 60, 80
2, 2486, Note_on_c, 0, 60, 0
2, 2490, Note_on_c, 0, 72, 80
2, 2516, Note_on_c, 0, 72, 0
2, 2520, Note_on_c, 0, 62, 80
2, 2546, Note_on_c, 0, 62, 0
2, 2550, Note_on_c, 0, 63, 80
2, 2576, Note_on_c, 0, 63, 0
2, 2580, Note_on_c, 0, 67, 80
2, 2606, Note_on_c, 0, 67, 0
2, 2610, Note_on_c, 0, 72, 80
2, 2636, Note_on_c, 0, 72, 0
2, 2640, Note_on_c, 0, 71, 80
2, 2666, Note_on_c, 0, 71, 0
2, 2670, Note_on_c, 0, 72, 80
2, 2696, Note_on_c, 0, 72, 0
2, 2700, Note_on_c, 0, 75, 80
2, 2726, Note_on_c, 0, 75, 0
2, 2730, Note_on_c, 0, 69, 80
2, 2756, Note_on_c, 0, 69, 0
2, 2760, Note_on_c, 0, 72, 80
2, 2786, Note_on_c, 0, 72, 0
2, 2790, Note_on_c, 0, 66, 80
2, 2816, Note_on_c, 0, 66, 0
2, 2820, Note_on_c, 0, 69, 80
2, 2846, Note_on_c, 0, 69, 0
2, 2850, Note_on_c, 0, 72, 80
2, 2876, Note_on_c, 0, 72, 0
2, 2880, Note_on_c, 0, 75, 80
2, 2906, Note_on_c, 0, 75, 0
2, 2910, Note_on_c, 0, 74, 80
2, 2936, Note_on_c, 0, 74, 0
2, 2940, Note_on_c, 0, 72, 80
2, 2966, Note_on_c, 0, 72, 0
2, 2970, Note_on_c, 0, 81, 80
2, 2996, Note_on_c, 0, 81, 0
2, 3000, Note_on_c, 0, 72, 80
2, 3026, Note_on_c, 0, 72, 0
2, 3060, Note_on_c, 0, 72, 80
2, 3086, Note_on_c, 0, 72, 0
2, 3090, Note_on_c, 0, 70, 80
2, 3116, Note_on_c, 0, 70, 0
2, 3120, Note_on_c, 0, 69, 80
2, 3146, Note_on_c, 0, 69, 0
2, 3150, Note_on_c, 0, 70, 80
2, 3176, Note_on_c, 0, 70, 0
2, 3180, Note_on_c, 0, 74, 80
2, 3206, Note_on_c, 0, 74, 0
2, 3210, Note_on_c, 0, 76, 80
2, 3236, Note_on_c, 0, 76, 0
2, 3240, Note_on_c, 0, 77, 80
2, 3266, Note_on_c, 0, 77, 0
2, 3270, Note_on_c, 0, 79, 80
2, 3296, Note_on_c, 0, 79, 0
2, 3300, Note_on_c, 0, 72, 80
2, 3326, Note_on_c, 0, 72, 0
2, 3330, Note_on_c, 0, 70, 80
2, 3356, Note_on_c, 0, 70, 0
2, 3360, Note_on_c, 0, 69, 80
2, 3386, Note_on_c, 0, 69, 0
2, 3390, Note_on_c, 0, 70, 80
2, 3416, Note_on_c, 0, 70, 0
2, 3420, Note_on_c, 0, 79, 80
2, 3446, Note_on_c, 0, 79, 0
2, 3450, Note_on_c, 0, 70, 80
2, 3476, Note_on_c, 0, 70, 0
2, 3480, Note_on_c, 0, 77, 80
2, 3506, Note_on_c, 0, 77, 0
2, 3510, Note_on_c, 0, 70, 80
2, 3536, Note_on_c, 0, 70, 0
2, 3540, Note_on_c, 0, 77, 80
2, 3566, Note_on_c, 0, 77, 0
2, 3570, Note_on_c, 0, 76, 80
2, 3596, Note_on_c, 0, 76, 0
2, 3600, Note_on_c, 0, 74, 80
2, 3626, Note_on_c, 0, 74, 0
2, 3630, Note_on_c, 0, 76, 80
2, 3656, Note_on_c, 0, 76, 0
2, 3660, Note_on_c, 0, 79, 80
2, 3686, Note_on_c, 0, 79, 0
2, 3690, Note_on_c, 0, 81, 80
2, 3716, Note_on_c, 0, 81, 0
2, 3720, Note_on_c, 0, 82, 80
2, 3746, Note_on_c, 0, 82, 0
2, 3750, Note_on_c, 0, 84, 80
2, 3776, Note_on_c, 0, 84, 0
2, 3780, Note_on_c, 0, 77, 80
2, 3806, Note_on_c, 0, 77, 0
2, 3810, Note_on_c, 0, 76, 80
2, 3836, Note_on_c, 0, 76, 0
2, 3840, Note_on_c, 0, 74, 80
2, 3866, Note_on_c, 0, 74, 0
2, 3870, Note_on_c, 0, 76, 80
2, 3896, Note_on_c, 0, 76, 0
2, 3900, Note_on_c, 0, 84, 80
2, 3926, Note_on_c, 0, 84, 0
2, 3930, Note_on_c, 0, 76, 80
2, 3956, Note_on_c, 0, 76, 0
2, 3960, Note_on_c, 0, 82, 80
2, 3986, Note_on_c, 0, 82, 0
2, 3990, Note_on_c, 0, 76, 80
2, 4016, Note_on_c, 0, 76, 0
2, 4020, Note_on_c, 0, 82, 80
2, 4046, Note_on_c, 0, 82, 0
2, 4050, Note_on_c, 0, 81, 80
2, 4076, Note_on_c, 0, 81, 0
2, 4080, Note_on_c, 0, 79, 80
2, 4106, Note_on_c, 0, 79, 0
2, 4110, Note_on_c, 0, 77, 80
2, 4136, Note_on_c, 0, 77, 0
2, 4140, Note_on_c, 0, 81, 80
2, 4166, Note_on_c, 0, 81, 0
2, 4170, Note_on_c, 0, 76, 80
2, 4196, Note_on_c, 0, 76, 0
2, 4200, Note_on_c, 0, 81, 80
2, 4226, Note_on_c, 0, 81, 0
2, 4230, Note_on_c, 0, 74, 80
2, 4256, Note_on_c, 0, 74, 0
2, 4260, Note_on_c, 0, 81, 80
2, 4286, Note_on_c, 0, 81, 0
2, 4290, Note_on_c, 0, 74, 80
2, 4316, Note_on_c, 0, 74, 0
2, 4320, Note_on_c, 0, 72, 80
2, 4346, Note_on_c, 0, 72, 0
2, 4350, Note_on_c, 0, 70, 80
2, 4376, Note_on_c, 0, 70, 0
2, 4380, Note_on_c, 0, 74, 80
2, 4406, Note_on_c, 0, 74, 0
2, 4410, Note_on_c, 0, 69, 80
2, 4436, Note_on_c, 0, 69, 0
2, 4440, Note_on_c, 0, 74, 80
2, 4466, Note_on_c, 0, 74, 0
2, 4470, Note_on_c, 0, 67, 80
2, 4496, Note_on_c, 0, 67, 0
2, 4500, Note_on_c, 0, 81, 80
2, 4526, Note_on_c, 0, 81, 0
2, 4530, Note_on_c, 0, 79, 80
2, 4556, Note_on_c, 0, 79, 0
2, 4560, Note_on_c, 0, 77, 80
2, 4586, Note_on_c, 0, 77, 0
2, 4590, Note_on_c, 0, 76, 80
2, 4616, Note_on_c, 0, 76, 0
2, 4620, Note_on_c, 0, 79, 80
2, 4646, Note_on_c, 0, 79, 0
2, 4650, Note_on_c, 0, 74, 80
2, 4676, Note_on_c, 0, 74, 0
2, 4680, Note_on_c, 0, 79, 80
2, 4706, Note_on_c, 0, 79, 0
2, 4710, Note_on_c, 0, 72, 80
2, 4736, Note_on_c, 0, 72, 0
2, 4740, Note_on_c, 0, 79, 80
2, 4766, Note_on_c, 0, 79, 0
2, 4770, Note_on_c, 0, 72, 80
2, 4796, Note_on_c, 0, 72, 0
2, 4800, Note_on_c, 0, 70, 80
2, 4826, Note_on_c, 0, 70, 0
2, 4830, Note_on_c, 0, 69, 80
2, 4856, Note_on_c, 0, 69, 0
2, 4860, Note_on_c, 0, 72, 80
2, 4886, Note_on_c, 0, 72, 0
2, 4890, Note_on_c, 0, 67, 80
2, 4916, Note_on_c, 0, 67, 0
2, 4920, Note_on_c, 0, 72, 80
2, 4946, Note_on_c, 0, 72, 0
2, 4950, Note_on_c, 0, 65, 80
2, 4976, Note_on_c, 0, 65, 0
2, 4980, Note_on_c, 0, 79, 80
2, 5006, Note_on_c, 0, 79, 0
2, 5010, Note_on_c, 0, 77, 80
2, 5036, Note_on_c, 0, 77, 0
2, 5040, Note_on_c, 0, 76, 80
2, 5066, Note_on_c, 0, 76, 0
2, 5070, Note_on_c, 0, 74, 80
2, 5096, Note_on_c, 0, 74, 0
2, 5100, Note_on_c, 0, 77, 80
2, 5126, Note_on_c, 0, 77, 0
2, 5130, Note_on_c, 0, 72, 80
2, 5156, Note_on_c, 0, 72, 0
2, 5160, Note_on_c, 0, 77, 80
2, 5186, Note_on_c, 0, 77, 0
2, 5190, Note_on_c, 0, 70, 80
2, 5216, Note_on_c, 0, 70, 0
2, 5220, Note_on_c, 0, 77, 80
2, 5246, Note_on_c, 0, 77, 0
2, 5250, Note_on_c, 0, 70, 80
2, 5276, Note_on_c, 0, 70, 0
2, 5280, Note_on_c, 0, 69, 80
2, 5306, Note_on_c, 0, 69, 0
2, 5310, Note_on_c, 0, 67, 80
2, 5336, Note_on_c, 0, 67, 0
2, 5340, Note_on_c, 0, 70, 80
2, 5366, Note_on_c, 0, 70, 0
2, 5370, Note_on_c, 0, 65, 80
2, 5396, Note_on_c, 0, 65, 0
2, 5400, Note_on_c, 0, 70, 80
2, 5426, Note_on_c, 0, 70, 0
2, 5430, Note_on_c, 0, 64, 80
2, 5451, Note_on_c, 0, 64, 0
2, 5452, Note_on_c, 0, 65, 80
2, 5459, Note_on_c, 0, 65, 0
2, 5460, Note_on_c, 0, 64, 80
2, 5466, Note_on_c, 0, 64, 0
2, 5467, Note_on_c, 0, 65, 80
2, 5474, Note_on_c, 0, 65, 0
2, 5475, Note_on_c, 0, 64, 80
2, 5481, Note_on_c, 0, 64, 0
2, 5482, Note_on_c, 0, 65, 80
2, 5489, Note_on_c, 0, 65, 0
2, 5490, Note_on_c, 0, 64, 80
2, 5496, Note_on_c, 0, 64, 0
2, 5497, Note_on_c, 0, 65, 80
2, 5504, Note_on_c, 0, 65, 0
2, 5505, Note_on_c, 0, 64, 80
2, 5511, Note_on_c, 0, 64, 0
2, 5512, Note_on_c, 0, 65, 80
2, 5519, Note_on_c, 0, 65, 0
2, 5520, Note_on_c, 0, 64, 80
2, 5526, Note_on_c, 0, 64, 0
2, 5527, Note_on_c, 0, 65, 80
2, 5534, Note_on_c, 0, 65, 0
2, 5535, Note_on_c, 0, 64, 80
2, 5541, Note_on_c, 0, 64, 0
2, 5542, Note_on_c, 0, 65, 80
2, 5549, Note_on_c, 0, 65, 0
2, 5610, Note_on_c, 0, 60, 80
2, 5662, Note_on_c, 0, 60, 0
2, 5670, Note_on_c, 0, 65, 80
2, 5722, Note_on_c, 0, 65, 0
2, 5730, Note_on_c, 0, 67, 80
2, 5756, Note_on_c, 0, 67, 0
2, 5760, Note_on_c, 0, 69, 80
2, 5786, Note_on_c, 0, 69, 0
2, 5790, Note_on_c, 0, 70, 80
2, 5842, Note_on_c, 0, 70, 0
2, 5850, Note_on_c, 0, 69, 80
2, 5856, Note_on_c, 0, 69, 0
2, 5857, Note_on_c, 0, 70, 80
2, 5864, Note_on_c, 0, 70, 0
2, 5865, Note_on_c, 0, 69, 80
2, 5878, Note_on_c, 0, 69, 0
2, 5880, Note_on_c, 0, 67, 80
2, 5906, Note_on_c, 0, 67, 0
2, 5910, Note_on_c, 0, 69, 80
2, 6015, Note_on_c, 0, 69, 0
2, 6060, Note_on_c, 0, 60, 80
2, 6086, Note_on_c, 0, 60, 0
2, 6090, Note_on_c, 0, 65, 80
2, 6116, Note_on_c, 0, 65, 0
2, 6120, Note_on_c, 0, 67, 80
2, 6146, Note_on_c, 0, 67, 0
2, 6150, Note_on_c, 0, 69, 80
2, 6176, Note_on_c, 0, 69, 0
2, 6180, Note_on_c, 0, 65, 80
2, 6206, Note_on_c, 0, 65, 0
2, 6210, Note_on_c, 0, 71, 80
2, 6236, Note_on_c, 0, 71, 0
2, 6240, Note_on_c, 0, 72, 80
2, 6266, Note_on_c, 0, 72, 0
2, 6270, Note_on_c, 0, 74, 80
2, 6296, Note_on_c, 0, 74, 0
2, 6300, Note_on_c, 0, 65, 80
2, 6326, Note_on_c, 0, 65, 0
2, 6330, Note_on_c, 0, 72, 80
2, 6356, Note_on_c, 0, 72, 0
2, 6360, Note_on_c, 0, 71, 80
2, 6386, Note_on_c, 0, 71, 0
2, 6390, Note_on_c, 0, 72, 80
2, 6495, Note_on_c, 0, 72, 0
2, 6570, Note_on_c, 0, 67, 80
2, 6622, Note_on_c, 0, 67, 0
2, 6630, Note_on_c, 0, 72, 80
2, 6682, Note_on_c, 0, 72, 0
2, 6690, Note_on_c, 0, 74, 80
2, 6716, Note_on_c, 0, 74, 0
2, 6720, Note_on_c, 0, 76, 80
2, 6746, Note_on_c, 0, 76, 0
2, 6750, Note_on_c, 0, 77, 80
2, 6802, Note_on_c, 0, 77, 0
2, 6810, Note_on_c, 0, 76, 80
2, 6816, Note_on_c, 0, 76, 0
2, 6817, Note_on_c, 0, 77, 80
2, 6824, Note_on_c, 0, 77, 0
2, 6825, Note_on_c, 0, 76, 80
2, 6838, Note_on_c, 0, 76, 0
2, 6840, Note_on_c, 0, 74, 80
2, 6866, Note_on_c, 0, 74, 0
2, 6870, Note_on_c, 0, 76, 80
2, 6922, Note_on_c, 0, 76, 0
2, 6930, Note_on_c, 0, 77, 80
2, 6956, Note_on_c, 0, 77, 0
2, 6960, Note_on_c, 0, 79, 80
2, 6986, Note_on_c, 0, 79, 0
2, 6990, Note_on_c, 0, 80, 80
2, 7042, Note_on_c, 0, 80, 0
2, 7050, Note_on_c, 0, 79, 80
2, 7056, Note_on_c, 0, 79, 0
2, 7057, Note_on_c, 0, 80, 80
2, 7064, Note_on_c, 0, 80, 0
2, 7065, Note_on_c, 0, 79, 80
2, 7078, Note_on_c, 0, 79, 0
2, 7080, Note_on_c, 0, 77, 80
2, 7106, Note_on_c, 0, 77, 0
2, 7110, Note_on_c, 0, 79, 80
2, 7162, Note_on_c, 0, 79, 0
2, 7170, Note_on_c, 0, 80, 80
2, 7196, Note_on_c, 0, 80, 0
2, 7200, Note_on_c, 0, 82, 80
2, 7226, Note_on_c, 0, 82, 0
2, 7230, Note_on_c, 0, 84, 80
2, 7282, Note_on_c, 0, 84, 0
2, 7290, Note_on_c, 0, 82, 80
2, 7296, Note_on_c, 0, 82, 0
2, 7297, Note_on_c, 0, 84, 80
2, 7304, Note_on_c, 0, 84, 0
2, 7305, Note_on_c, 0, 82, 80
2, 7318, Note_on_c, 0, 82, 0
2, 7320, Note_on_c, 0, 80, 80
2, 7346, Note_on_c, 0, 80, 0
2, 7350, Note_on_c, 0, 82, 80
2, 7376, Note_on_c, 0, 82, 0
2, 7380, Note_on_c, 0, 79, 80
2, 7406, Note_on_c, 0, 79, 0
2, 7410, Note_on_c, 0, 76, 80
2, 7436, Note_on_c, 0, 76, 0
2, 7440, Note_on_c, 0, 72, 80
2, 7466, Note_on_c, 0, 72, 0
2, 7470, Note_on_c, 0, 70, 80
2, 7496, Note_on_c, 0, 70, 0
2, 7500, Note_on_c, 0, 67, 80
2, 7526, Note_on_c, 0, 67, 0
2, 7530, Note_on_c, 0, 72, 80
2, 7556, Note_on_c, 0, 72, 0
2, 7560, Note_on_c, 0, 76, 80
2, 7586, Note_on_c, 0, 76, 0
2, 7590, Note_on_c, 0, 77, 80
2, 7616, Note_on_c, 0, 77, 0
2, 7620, Note_on_c, 0, 72, 80
2, 7646, Note_on_c, 0, 72, 0
2, 7650, Note_on_c, 0, 69, 80
2, 7676, Note_on_c, 0, 69, 0
2, 7680, Note_on_c, 0, 65, 80
2, 7706, Note_on_c, 0, 65, 0
2, 7740, Note_on_c, 0, 67, 80
2, 7766, Note_on_c, 0, 67, 0
2, 7770, Note_on_c, 0, 70, 80
2, 7796, Note_on_c, 0, 70, 0
2, 7800, Note_on_c, 0, 76, 80
2, 7826, Note_on_c, 0, 76, 0
2, 7830, Note_on_c, 0, 77, 80
2, 7908, Note_on_c, 0, 77, 0
2, 7920, Note_on_c, 0, 75, 80
2, 7946, Note_on_c, 0, 75, 0
2, 7950, Note_on_c, 0, 74, 80
2, 8028, Note_on_c, 0, 74, 0
2, 8040, Note_on_c, 0, 74, 80
2, 8066, Note_on_c, 0, 74, 0
2, 8100, Note_on_c, 0, 74, 80
2, 8126, Note_on_c, 0, 74, 0
2, 8130, Note_on_c, 0, 72, 80
2, 8182, Note_on_c, 0, 72, 0
2, 8220, Note_on_c, 0, 69, 80
2, 8246, Note_on_c, 0, 69, 0
2, 8250, Note_on_c, 0, 70, 80
2, 8302, Note_on_c, 0, 70, 0
2, 8310, Note_on_c, 0, 69, 80
2, 8362, Note_on_c, 0, 69, 0
2, 8370, Note_on_c, 0, 65, 80
2, 8422, Note_on_c, 0, 65, 0
2, 8460, Note_on_c, 0, 65, 80
2, 8512, Note_on_c, 0, 65, 0
2, 8520, Note_on_c, 0, 64, 80
2, 8546, Note_on_c, 0, 64, 0
2, 8550, Note_on_c, 0, 65, 80
2, 8715, Note_on_c, 0, 65, 0
2, 8724, Control_c, 0, 7, 89
2, 8760, Note_on_c, 0, 77, 80
2, 8786, Note_on_c, 0, 77, 0
2, 8790, Note_on_c, 0, 77, 80
2, 8816, Note_on_c, 0, 77, 0
2, 8820, Note_on_c, 0, 74, 80
2, 8846, Note_on_c, 0, 74, 0
2, 8850, Note_on_c, 0, 70, 80
2, 8876, Note_on_c, 0, 70, 0
2, 8880, Note_on_c, 0, 69, 80
2, 8906, Note_on_c, 0, 69, 0
2, 8910, Note_on_c, 0, 70, 80
2, 8936, Note_on_c, 0, 70, 0
2, 8940, Note_on_c, 0, 74, 80
2, 8966, Note_on_c, 0, 74, 0
2, 8970, Note_on_c, 0, 65, 80
2, 8996, Note_on_c, 0, 65, 0
2, 9000, Note_on_c, 0, 70, 80
2, 9026, Note_on_c, 0, 70, 0
2, 9030, Note_on_c, 0, 62, 80
2, 9056, Note_on_c, 0, 62, 0
2, 9060, Note_on_c, 0, 65, 80
2, 9086, Note_on_c, 0, 65, 0
2, 9090, Note_on_c, 0, 58, 80
2, 9116, Note_on_c, 0, 58, 0
2, 9120, Note_on_c, 0, 62, 80
2, 9146, Note_on_c, 0, 62, 0
2, 9150, Note_on_c, 0, 65, 80
2, 9176, Note_on_c, 0, 65, 0
2, 9180, Note_on_c, 0, 68, 80
2, 9206, Note_on_c, 0, 68, 0
2, 9210, Note_on_c, 0, 74, 80
2, 9236, Note_on_c, 0, 74, 0
2, 9240, Note_on_c, 0, 77, 80
2, 9266, Note_on_c, 0, 77, 0
2, 9270, Note_on_c, 0, 79, 80
2, 9296, Note_on_c, 0, 79, 0
2, 9300, Note_on_c, 0, 75, 80
2, 9326, Note_on_c, 0, 75, 0
2, 9330, Note_on_c, 0, 70, 80
2, 9356, Note_on_c, 0, 70, 0
2, 9360, Note_on_c, 0, 69, 80
2, 9386, Note_on_c, 0, 69, 0
2, 9390, Note_on_c, 0, 70, 80
2, 9416, Note_on_c, 0, 70, 0
2, 9420, Note_on_c, 0, 75, 80
2, 9446, Note_on_c, 0, 75, 0
2, 9450, Note_on_c, 0, 67, 80
2, 9476, Note_on_c, 0, 67, 0
2, 9480, Note_on_c, 0, 70, 80
2, 9506, Note_on_c, 0, 70, 0
2, 9510, Note_on_c, 0, 63, 80
2, 9536, Note_on_c, 0, 63, 0
2, 9540, Note_on_c, 0, 67, 80
2, 9566, Note_on_c, 0, 67, 0
2, 9570, Note_on_c, 0, 58, 80
2, 9596, Note_on_c, 0, 58, 0
2, 9600, Note_on_c, 0, 63, 80
2, 9626, Note_on_c, 0, 63, 0
2, 9630, Note_on_c, 0, 67, 80
2, 9656, Note_on_c, 0, 67, 0
2, 9660, Note_on_c, 0, 70, 80
2, 9686, Note_on_c, 0, 70, 0
2, 9690, Note_on_c, 0, 75, 80
2, 9716, Note_on_c, 0, 75, 0
2, 9720, Note_on_c, 0, 79, 80
2, 9746, Note_on_c, 0, 79, 0
2, 9750, Note_on_c, 0, 81, 80
2, 9776, Note_on_c, 0, 81, 0
2, 9780, Note_on_c, 0, 75, 80
2, 9806, Note_on_c, 0, 75, 0
2, 9810, Note_on_c, 0, 72, 80
2, 9836, Note_on_c, 0, 72, 0
2, 9840, Note_on_c, 0, 70, 80
2, 9866, Note_on_c, 0, 70, 0
2, 9870, Note_on_c, 0, 72, 80
2, 9896, Note_on_c, 0, 72, 0
2, 9900, Note_on_c, 0, 75, 80
2, 9926, Note_on_c, 0, 75, 0
2, 9930, Note_on_c, 0, 69, 80
2, 9956, Note_on_c, 0, 69, 0
2, 9960, Note_on_c, 0, 72, 80
2, 9986, Note_on_c, 0, 72, 0
2, 9990, Note_on_c, 0, 63, 80
2, 10016, Note_on_c, 0, 63, 0
2, 10020, Note_on_c, 0, 69, 80
2, 10046, Note_on_c, 0, 69, 0
2, 10050, Note_on_c, 0, 60, 80
2, 10076, Note_on_c, 0, 60, 0
2, 10080, Note_on_c, 0, 63, 80
2, 10106, Note_on_c, 0, 63, 0
2, 10110, Note_on_c, 0, 69, 80
2, 10136, Note_on_c, 0, 69, 0
2, 10140, Note_on_c, 0, 72, 80
2, 10166, Note_on_c, 0, 72, 0
2, 10170, Note_on_c, 0, 75, 80
2, 10196, Note_on_c, 0, 75, 0
2, 10200, Note_on_c, 0, 81, 80
2, 10226, Note_on_c, 0, 81, 0
2, 10230, Note_on_c, 0, 82, 80
2, 10256, Note_on_c, 0, 82, 0
2, 10260, Note_on_c, 0, 77, 80
2, 10286, Note_on_c, 0, 77, 0
2, 10290, Note_on_c, 0, 74, 80
2, 10316, Note_on_c, 0, 74, 0
2, 10320, Note_on_c, 0, 72, 80
2, 10346, Note_on_c, 0, 72, 0
2, 10350, Note_on_c, 0, 74, 80
2, 10376, Note_on_c, 0, 74, 0
2, 10380, Note_on_c, 0, 77, 80
2, 10406, Note_on_c, 0, 77, 0
2, 10410, Note_on_c, 0, 70, 80
2, 10436, Note_on_c, 0, 70, 0
2, 10440, Note_on_c, 0, 74, 80
2, 10466, Note_on_c, 0, 74, 0
2, 10470, Note_on_c, 0, 65, 80
2, 10496, Note_on_c, 0, 65, 0
2, 10500, Note_on_c, 0, 70, 80
2, 10526, Note_on_c, 0, 70, 0
2, 10530, Note_on_c, 0, 62, 80
2, 10556, Note_on_c, 0, 62, 0
2, 10560, Note_on_c, 0, 65, 80
2, 10586, Note_on_c, 0, 65, 0
2, 10620, Note_on_c, 0, 67, 80
2, 10672, Note_on_c, 0, 67, 0
2, 10680, Note_on_c, 0, 65, 80
2, 10706, Note_on_c, 0, 65, 0
2, 10740, Note_on_c, 0, 72, 80
2, 10766, Note_on_c, 0, 72, 0
2, 10770, Note_on_c, 0, 64, 80
2, 10796, Note_on_c, 0, 64, 0
2, 10800, Note_on_c, 0, 62, 80
2, 10826, Note_on_c, 0, 62, 0
2, 10830, Note_on_c, 0, 64, 80
2, 10856, Note_on_c, 0, 64, 0
2, 10860, Note_on_c, 0, 67, 80
2, 10886, Note_on_c, 0, 67, 0
2, 10890, Note_on_c, 0, 60, 80
2, 10916, Note_on_c, 0, 60, 0
2, 10920, Note_on_c, 0, 64, 80
2, 10946, Note_on_c, 0, 64, 0
2, 10980, Note_on_c, 0, 57, 80
2, 11006, Note_on_c, 0, 57, 0
2, 11010, Note_on_c, 0, 60, 80
2, 11036, Note_on_c, 0, 60, 0
2, 11040, Note_on_c, 0, 63, 80
2, 11066, Note_on_c, 0, 63, 0
2, 11070, Note_on_c, 0, 62, 80
2, 11096, Note_on_c, 0, 62, 0
2, 11100, Note_on_c, 0, 60, 80
2, 11126, Note_on_c, 0, 60, 0
2, 11130, Note_on_c, 0, 72, 80
2, 11156, Note_on_c, 0, 72, 0
2, 11160, Note_on_c, 0, 62, 80
2, 11186, Note_on_c, 0, 62, 0
2, 11190, Note_on_c, 0, 63, 80
2, 11216, Note_on_c, 0, 63, 0
2, 11220, Note_on_c, 0, 67, 80
2, 11246, Note_on_c, 0, 67, 0
2, 11250, Note_on_c, 0, 72, 80
2, 11276, Note_on_c, 0, 72, 0
2, 11280, Note_on_c, 0, 71, 80
2, 11306, Note_on_c, 0, 71, 0
2, 11310, Note_on_c, 0, 72, 80
2, 11336, Note_on_c, 0, 72, 0
2, 11340, Note_on_c, 0, 75, 80
2, 11366, Note_on_c, 0, 75, 0
2, 11370, Note_on_c, 0, 69, 80
2, 11396, Note_on_c, 0, 69, 0
2, 11400, Note_on_c, 0, 72, 80
2, 11426, Note_on_c, 0, 72, 0
2, 11430, Note_on_c, 0, 66, 80
2, 11456, Note_on_c, 0, 66, 0
2, 11460, Note_on_c, 0, 69, 80
2, 11486, Note_on_c, 0, 69, 0
2, 11490, Note_on_c, 0, 72, 80
2, 11516, Note_on_c, 0, 72, 0
2, 11520, Note_on_c, 0, 75, 80
2, 11546, Note_on_c, 0, 75, 0
2, 11550, Note_on_c, 0, 74, 80
2, 11576, Note_on_c, 0, 74, 0
2, 11580, Note_on_c, 0, 72, 80
2, 11606, Note_on_c, 0, 72, 0
2, 11610, Note_on_c, 0, 81, 80
2, 11636, Note_on_c, 0, 81, 0
2, 11640, Note_on_c, 0, 72, 80
2, 11666, Note_on_c, 0, 72, 0
2, 11700, Note_on_c, 0, 72, 80
2, 11726, Note_on_c, 0, 72, 0
2, 11730, Note_on_c, 0, 70, 80
2, 11756, Note_on_c, 0, 70, 0
2, 11760, Note_on_c, 0, 69, 80
2, 11786, Note_on_c, 0, 69, 0
2, 11790, Note_on_c, 0, 70, 80
2, 11816, Note_on_c, 0, 70, 0
2, 11820, Note_on_c, 0, 74, 80
2, 11846, Note_on_c, 0, 74, 0
2, 11850, Note_on_c, 0, 76, 80
2, 11876, Note_on_c, 0, 76, 0
2, 11880, Note_on_c, 0, 77, 80
2, 11906, Note_on_c, 0, 77, 0
2, 11910, Note_on_c, 0, 79, 80
2, 11936, Note_on_c, 0, 79, 0
2, 11940, Note_on_c, 0, 72, 80
2, 11966, Note_on_c, 0, 72, 0
2, 11970, Note_on_c, 0, 70, 80
2, 11996, Note_on_c, 0, 70, 0
2, 12000, Note_on_c, 0, 69, 80
2, 12026, Note_on_c, 0, 69, 0
2, 12030, Note_on_c, 0, 70, 80
2, 12056, Note_on_c, 0, 70, 0
2, 12060, Note_on_c, 0, 79, 80
2, 12086, Note_on_c, 0, 79, 0
2, 12090, Note_on_c, 0, 70, 80
2, 12116, Note_on_c, 0, 70, 0
2, 12120, Note_on_c, 0, 77, 80
2, 12146, Note_on_c, 0, 77, 0
2, 12150, Note_on_c, 0, 70, 80
2, 12176, Note_on_c, 0, 70, 0
2, 12180, Note_on_c, 0, 77, 80
2, 12206, Note_on_c, 0, 77, 0
2, 12210, Note_on_c, 0, 76, 80
2, 12236, Note_on_c, 0, 76, 0
2, 12240, Note_on_c, 0, 74, 80
2, 12266, Note_on_c, 0, 74, 0
2, 12270, Note_on_c, 0, 76, 80
2, 12296, Note_on_c, 0, 76, 0
2, 12300, Note_on_c, 0, 79, 80
2, 12326, Note_on_c, 0, 79, 0
2, 12330, Note_on_c, 0, 81, 80
2, 12356, Note_on_c, 0, 81, 0
2, 12360, Note_on_c, 0, 82, 80
2, 12386, Note_on_c, 0, 82, 0
2, 12390, Note_on_c, 0, 84, 80
2, 12416, Note_on_c, 0, 84, 0
2, 12420, Note_on_c, 0, 77, 80
2, 12446, Note_on_c, 0, 77, 0
2, 12450, Note_on_c, 0, 76, 80
2, 12476, Note_on_c, 0, 76, 0
2, 12480, Note_on_c, 0, 74, 80
2, 12506, Note_on_c, 0, 74, 0
2, 12510, Note_on_c, 0, 76, 80
2, 12536, Note_on_c, 0, 76, 0
2, 12540, Note_on_c, 0, 84, 80
2, 12566, Note_on_c, 0, 84, 0
2, 12570, Note_on_c, 0, 76, 80
2, 12596, Note_on_c, 0, 76, 0
2, 12600, Note_on_c, 0, 82, 80
2, 12626, Note_on_c, 0, 82, 0
2, 12630, Note_on_c, 0, 76, 80
2, 12656, Note_on_c, 0, 76, 0
2, 12660, Note_on_c, 0, 82, 80
2, 12686, Note_on_c, 0, 82, 0
2, 12690, Note_on_c, 0, 81, 80
2, 12716, Note_on_c, 0, 81, 0
2, 12720, Note_on_c, 0, 79, 80
2, 12746, Note_on_c, 0, 79, 0
2, 12750, Note_on_c, 0, 77, 80
2, 12776, Note_on_c, 0, 77, 0
2, 12780, Note_on_c, 0, 81, 80
2, 12806, Note_on_c, 0, 81, 0
2, 12810, Note_on_c, 0, 76, 80
2, 12836, Note_on_c, 0, 76, 0
2, 12840, Note_on_c, 0, 81, 80
2, 12866, Note_on_c, 0, 81, 0
2, 12870, Note_on_c, 0, 74, 80
2, 12896, Note_on_c, 0, 74, 0
2, 12900, Note_on_c, 0, 81, 80
2, 12926, Note_on_c, 0, 81, 0
2, 12930, Note_on_c, 0, 74, 80
2, 12956, Note_on_c, 0, 74, 0
2, 12960, Note_on_c, 0, 72, 80
2, 12986, Note_on_c, 0, 72, 0
2, 12990, Note_on_c, 0, 70, 80
2, 13016, Note_on_c, 0, 70, 0
2, 13020, Note_on_c, 0, 74, 80
2, 13046, Note_on_c, 0, 74, 0
2, 13050, Note_on_c, 0, 69, 80
2, 13076, Note_on_c, 0, 69, 0
2, 13080, Note_on_c, 0, 74, 80
2, 13106, Note_on_c, 0, 74, 0
2, 13110, Note_on_c, 0, 67, 80
2, 13136, Note_on_c, 0, 67, 0
2, 13140, Note_on_c, 0, 81, 80
2, 13166, Note_on_c, 0, 81, 0
2, 13170, Note_on_c, 0, 79, 80
2, 13196, Note_on_c, 0, 79, 0
2, 13200, Note_on_c, 0, 77, 80
2, 13226, Note_on_c, 0, 77, 0
2, 13230, Note_on_c, 0, 76, 80
2, 13256, Note_on_c, 0, 76, 0
2, 13260, Note_on_c, 0, 79, 80
2, 13286, Note_on_c, 0, 79, 0
2, 13290, Note_on_c, 0, 74, 80
2, 13316, Note_on_c, 0, 74, 0
2, 13320, Note_on_c, 0, 79, 80
2, 13346, Note_on_c, 0, 79, 0
2, 13350, Note_on_c, 0, 72, 80
2, 13376, Note_on_c, 0, 72, 0
2, 13380, Note_on_c, 0, 79, 80
2, 13406, Note_on_c, 0, 79, 0
2, 13410, Note_on_c, 0, 72, 80
2, 13436, Note_on_c, 0, 72, 0
2, 13440, Note_on_c, 0, 70, 80
2, 13466, Note_on_c, 0, 70, 0
2, 13470, Note_on_c, 0, 69, 80
2, 13496, Note_on_c, 0, 69, 0
2, 13500, Note_on_c, 0, 72, 80
2, 13526, Note_on_c, 0, 72, 0
2, 13530, Note_on_c, 0, 67, 80
2, 13556, Note_on_c, 0, 67, 0
2, 13560, Note_on_c, 0, 72, 80
2, 13586, Note_on_c, 0, 72, 0
2, 13590, Note_on_c, 0, 65, 80
2, 13616, Note_on_c, 0, 65, 0
2, 13620, Note_on_c, 0, 79, 80
2, 13646, Note_on_c, 0, 79, 0
2, 13650, Note_on_c, 0, 77, 80
2, 13676, Note_on_c, 0, 77, 0
2, 13680, Note_on_c, 0, 76, 80
2, 13706, Note_on_c, 0, 76, 0
2, 13710, Note_on_c, 0, 74, 80
2, 13736, Note_on_c, 0, 74, 0
2, 13740, Note_on_c, 0, 77, 80
2, 13766, Note_on_c, 0, 77, 0
2, 13770, Note_on_c, 0, 72, 80
2, 13796, Note_on_c, 0, 72, 0
2, 13800, Note_on_c, 0, 77, 80
2, 13826, Note_on_c, 0, 77, 0
2, 13830, Note_on_c, 0, 70, 80
2, 13856, Note_on_c, 0, 70, 0
2, 13860, Note_on_c, 0, 77, 80
2, 13886, Note_on_c, 0, 77, 0
2, 13890, Note_on_c, 0, 70, 80
2, 13916, Note_on_c, 0, 70, 0
2, 13920, Note_on_c, 0, 69, 80
2, 13946, Note_on_c, 0, 69, 0
2, 13950, Note_on_c, 0, 67, 80
2, 13976, Note_on_c, 0, 67, 0
2, 13980, Note_on_c, 0, 70, 80
2, 14006, Note_on_c, 0, 70, 0
2, 14010, Note_on_c, 0, 65, 80
2, 14036, Note_on_c, 0, 65, 0
2, 14040, Note_on_c, 0, 70, 80
2, 14066, Note_on_c, 0, 70, 0
2, 14070, Note_on_c, 0, 64, 80
2, 14091, Note_on_c, 0, 64, 0
2, 14092, Note_on_c, 0, 65, 80
2, 14099, Note_on_c, 0, 65, 0
2, 14100, Note_on_c, 0, 64, 80
2, 14106, Note_on_c, 0, 64, 0
2, 14107, Note_on_c, 0, 65, 80
2, 14114, Note_on_c, 0, 65, 0
2, 14115, Note_on_c, 0, 64, 80
2, 14121, Note_on_c, 0, 64, 0
2, 14122, Note_on_c, 0, 65, 80
2, 14129, Note_on_c, 0, 65, 0
2, 14130, Note_on_c, 0, 64, 80
2, 14136, Note_on_c, 0, 64, 0
2, 14137, Note_on_c, 0, 65, 80
2, 14144, Note_on_c, 0, 65, 0
2, 14145, Note_on_c, 0, 64, 80
2, 14151, Note_on_c, 0, 64, 0
2, 14152, Note_on_c, 0, 65, 80
2, 14159, Note_on_c, 0, 65, 0
2, 14160, Note_on_c, 0, 64, 80
2, 14166, Note_on_c, 0, 64, 0
2, 14167, Note_on_c, 0, 65, 80
2, 14174, Note_on_c, 0, 65, 0
2, 14175, Note_on_c, 0, 64, 80
2, 14181, Note_on_c, 0, 64, 0
2, 14182, Note_on_c, 0, 65, 80
2, 14189, Note_on_c, 0, 65, 0
2, 14250, Note_on_c, 0, 60, 80
2, 14302, Note_on_c, 0, 60, 0
2, 14310, Note_on_c, 0, 65, 80
2, 14362, Note_on_c, 0, 65, 0
2, 14370, Note_on_c, 0, 67, 80
2, 14396, Note_on_c, 0, 67, 0
2, 14400, Note_on_c, 0, 69, 80
2, 14426, Note_on_c, 0, 69, 0
2, 14430, Note_on_c, 0, 70, 80
2, 14482, Note_on_c, 0, 70, 0
2, 14490, Note_on_c, 0, 69, 80
2, 14496, Note_on_c, 0, 69, 0
2, 14497, Note_on_c, 0, 70, 80
2, 14504, Note_on_c, 0, 70, 0
2, 14505, Note_on_c, 0, 69, 80
2, 14518, Note_on_c, 0, 69, 0
2, 14520, Note_on_c, 0, 67, 80
2, 14546, Note_on_c, 0, 67, 0
2, 14550, Note_on_c, 0, 69, 80
2, 14655, Note_on_c, 0, 69, 0
2, 14700, Note_on_c, 0, 60, 80
2, 14726, Note_on_c, 0, 60, 0
2, 14730, Note_on_c, 0, 65, 80
2, 14756, Note_on_c, 0, 65, 0
2, 14760, Note_on_c, 0, 67, 80
2, 14786, Note_on_c, 0, 67, 0
2, 14790, Note_on_c, 0, 69, 80
2, 14816, Note_on_c, 0, 69, 0
2, 14820, Note_on_c, 0, 65, 80
2, 14846, Note_on_c, 0, 65, 0
2, 14850, Note_on_c, 0, 71, 80
2, 14876, Note_on_c, 0, 71, 0
2, 14880, Note_on_c, 0, 72, 80
2, 14906, Note_on_c, 0, 72, 0
2, 14910, Note_on_c, 0, 74, 80
2, 14936, Note_on_c, 0, 74, 0
2, 14940, Note_on_c, 0, 65, 80
2, 14966, Note_on_c, 0, 65, 0
2, 14970, Note_on_c, 0, 72, 80
2, 14996, Note_on_c, 0, 72, 0
2, 15000, Note_on_c, 0, 71, 80
2, 15026, Note_on_c, 0, 71, 0
2, 15030, Note_on_c, 0, 72, 80
2, 15135, Note_on_c, 0, 72, 0
2, 15210, Note_on_c, 0, 67, 80
2, 15262, Note_on_c, 0, 67, 0
2, 15270, Note_on_c, 0, 72, 80
2, 15322, Note_on_c, 0, 72, 0
2, 15330, Note_on_c, 0, 74, 80
2, 15356, Note_on_c, 0, 74, 0
2, 15360, Note_on_c, 0, 76, 80
2, 15386, Note_on_c, 0, 76, 0
2, 15390, Note_on_c, 0, 77, 80
2, 15442, Note_on_c, 0, 77, 0
2, 15450, Note_on_c, 0, 76, 80
2, 15456, Note_on_c, 0, 76, 0
2, 15457, Note_on_c, 0, 77, 80
2, 15464, Note_on_c, 0, 77, 0
2, 15465, Note_on_c, 0, 76, 80
2, 15478, Note_on_c, 0, 76, 0
2, 15480, Note_on_c, 0, 74, 80
2, 15506, Note_on_c, 0, 74, 0
2, 15510, Note_on_c, 0, 76, 80
2, 15562, Note_on_c, 0, 76, 0
2, 15570, Note_on_c, 0, 77, 80
2, 15596, Note_on_c, 0, 77, 0
2, 15600, Note_on_c, 0, 79, 80
2, 15626, Note_on_c, 0, 79, 0
2, 15630, Note_on_c, 0, 80, 80
2, 15682, Note_on_c, 0, 80, 0
2, 15690, Note_on_c, 0, 79, 80
2, 15696, Note_on_c, 0, 79, 0
2, 15697, Note_on_c, 0, 80, 80
2, 15704, Note_on_c, 0, 80, 0
2, 15705, Note_on_c, 0, 79, 80
2, 15718, Note_on_c, 0, 79, 0
2, 15720, Note_on_c, 0, 77, 80
2, 15746, Note_on_c, 0, 77, 0
2, 15750, Note_on_c, 0, 79, 80
2, 15802, Note_on_c, 0, 79, 0
2, 15810, Note_on_c, 0, 80, 80
2, 15836, Note_on_c, 0, 80, 0
2, 15840, Note_on_c, 0, 82, 80
2, 15866, Note_on_c, 0, 82, 0
2, 15870, Note_on_c, 0, 84, 80
2, 15922, Note_on_c, 0, 84, 0
2, 15930, Note_on_c, 0, 82, 80
2, 15936, Note_on_c, 0, 82, 0
2, 15937, Note_on_c, 0, 84, 80
2, 15944, Note_on_c, 0, 84, 0
2, 15945, Note_on_c, 0, 82, 80
2, 15958, Note_on_c, 0, 82, 0
2, 15960, Note_on_c, 0, 80, 80
2, 15986, Note_on_c, 0, 80, 0
2, 15990, Note_on_c, 0, 82, 80
2, 16016, Note_on_c, 0, 82, 0
2, 16020, Note_on_c, 0, 79, 80
2, 16046, Note_on_c, 0, 79, 0
2, 16050, Note_on_c, 0, 76, 80
2, 16076, Note_on_c, 0, 76, 0
2, 16080, Note_on_c, 0, 72, 80
2, 16106, Note_on_c, 0, 72, 0
2, 16110, Note_on_c, 0, 70, 80
2, 16136, Note_on_c, 0, 70, 0
2, 16140, Note_on_c, 0, 67, 80
2, 16166, Note_on_c, 0, 67, 0
2, 16170, Note_on_c, 0, 72, 80
2, 16196, Note_on_c, 0, 72, 0
2, 16200, Note_on_c, 0, 76, 80
2, 16226, Note_on_c, 0, 76, 0
2, 16230, Note_on_c, 0, 77, 80
2, 16256, Note_on_c, 0, 77, 0
2, 16260, Note_on_c, 0, 72, 80
2, 16286, Note_on_c, 0, 72, 0
2, 16290, Note_on_c, 0, 69, 80
2, 16316, Note_on_c, 0, 69, 0
2, 16320, Note_on_c, 0, 65, 80
2, 16346, Note_on_c, 0, 65, 0
2, 16380, Note_on_c, 0, 67, 80
2, 16406, Note_on_c, 0, 67, 0
2, 16410, Note_on_c, 0, 70, 80
2, 16436, Note_on_c, 0, 70, 0
2, 16440, Note_on_c, 0, 76, 80
2, 16466, Note_on_c, 0, 76, 0
2, 16470, Note_on_c, 0, 77, 80
2, 16548, Note_on_c, 0, 77, 0
2, 16560, Note_on_c, 0, 75, 80
2, 16586, Note_on_c, 0, 75, 0
2, 16590, Note_on_c, 0, 74, 80
2, 16668, Note_on_c, 0, 74, 0
2, 16680, Note_on_c, 0, 74, 80
2, 16706, Note_on_c, 0, 74, 0
2, 16740, Note_on_c, 0, 74, 80
2, 16766, Note_on_c, 0, 74, 0
2, 16770, Note_on_c, 0, 72, 80
2, 16822, Note_on_c, 0, 72, 0
2, 16860, Note_on_c, 0, 69, 80
2, 16886, Note_on_c, 0, 69, 0
2, 16890, Note_on_c, 0, 70, 80
2, 16942, Note_on_c, 0, 70, 0
2, 16950, Note_on_c, 0, 69, 80
2, 17002, Note_on_c, 0, 69, 0
2, 17010, Note_on_c, 0, 65, 80
2, 17062, Note_on_c, 0, 65, 0
2, 17100, Note_on_c, 0, 65, 80
2, 17152, Note_on_c, 0, 65, 0
2, 17160, Note_on_c, 0, 64, 80
2, 17186, Note_on_c, 0, 64, 0
2, 17190, Note_on_c, 0, 65, 80
2, 17355, Note_on_c, 0, 65, 0
2, 17370, Control_c, 0, 7, 99
2, 17400, Note_on_c, 0, 72, 80
2, 17426, Note_on_c, 0, 72, 0
2, 17430, Note_on_c, 0, 72, 80
2, 17456, Note_on_c, 0, 72, 0
2, 17460, Note_on_c, 0, 69, 80
2, 17486, Note_on_c, 0, 69, 0
2, 17490, Note_on_c, 0, 65, 80
2, 17516, Note_on_c, 0, 65, 0
2, 17520, Note_on_c, 0, 64, 80
2, 17546, Note_on_c, 0, 64, 0
2, 17550, Note_on_c, 0, 65, 80
2, 17576, Note_on_c, 0, 65, 0
2, 17580, Note_on_c, 0, 69, 80
2, 17606, Note_on_c, 0, 69, 0
2, 17610, Note_on_c, 0, 60, 80
2, 17636, Note_on_c, 0, 60, 0
2, 17640, Note_on_c, 0, 65, 80
2, 17666, Note_on_c, 0, 65, 0
2, 17670, Note_on_c, 0, 57, 80
2, 17696, Note_on_c, 0, 57, 0
2, 17700, Note_on_c, 0, 60, 80
2, 17726, Note_on_c, 0, 60, 0
2, 17730, Note_on_c, 0, 53, 80
2, 17756, Note_on_c, 0, 53, 0
2, 17760, Note_on_c, 0, 57, 80
2, 17786, Note_on_c, 0, 57, 0
2, 17790, Note_on_c, 0, 60, 80
2, 17816, Note_on_c, 0, 60, 0
2, 17820, Note_on_c, 0, 64, 80
2, 17846, Note_on_c, 0, 64, 0
2, 17850, Note_on_c, 0, 69, 80
2, 17876, Note_on_c, 0, 69, 0
2, 17880, Note_on_c, 0, 70, 80
2, 17906, Note_on_c, 0, 70, 0
2, 17910, Note_on_c, 0, 72, 80
2, 17936, Note_on_c, 0, 72, 0
2, 17940, Note_on_c, 0, 69, 80
2, 17966, Note_on_c, 0, 69, 0
2, 17970, Note_on_c, 0, 63, 80
2, 17996, Note_on_c, 0, 63, 0
2, 18000, Note_on_c, 0, 62, 80
2, 18026, Note_on_c, 0, 62, 0
2, 18030, Note_on_c, 0, 63, 80
2, 18056, Note_on_c, 0, 63, 0
2, 18060, Note_on_c, 0, 69, 80
2, 18086, Note_on_c, 0, 69, 0
2, 18090, Note_on_c, 0, 60, 80
2, 18116, Note_on_c, 0, 60, 0
2, 18120, Note_on_c, 0, 63, 80
2, 18146, Note_on_c, 0, 63, 0
2, 18150, Note_on_c, 0, 57, 80
2, 18176, Note_on_c, 0, 57, 0
2, 18180, Note_on_c, 0, 60, 80
2, 18206, Note_on_c, 0, 60, 0
2, 18210, Note_on_c, 0, 54, 80
2, 18236, Note_on_c, 0, 54, 0
2, 18240, Note_on_c, 0, 57, 80
2, 18266, Note_on_c, 0, 57, 0
2, 18270, Note_on_c, 0, 62, 80
2, 18296, Note_on_c, 0, 62, 0
2, 18300, Note_on_c, 0, 66, 80
2, 18326, Note_on_c, 0, 66, 0
2, 18330, Note_on_c, 0, 69, 80
2, 18356, Note_on_c, 0, 69, 0
2, 18360, Note_on_c, 0, 72, 80
2, 18386, Note_on_c, 0, 72, 0
2, 18390, Note_on_c, 0, 70, 80
2, 18656, Note_on_c, 0, 70, 0
2, 18660, Note_on_c, 0, 70, 80
2, 18686, Note_on_c, 0, 70, 0
2, 18690, Note_on_c, 0, 69, 80
2, 18716, Note_on_c, 0, 69, 0
2, 18720, Note_on_c, 0, 67, 80
2, 18746, Note_on_c, 0, 67, 0
2, 18750, Note_on_c, 0, 69, 80
2, 18776, Note_on_c, 0, 69, 0
2, 18780, Note_on_c, 0, 72, 80
2, 18806, Note_on_c, 0, 72, 0
2, 18810, Note_on_c, 0, 66, 80
2, 18836, Note_on_c, 0, 66, 0
2, 18840, Note_on_c, 0, 67, 80
2, 18866, Note_on_c, 0, 67, 0
2, 18870, Note_on_c, 0, 66, 80
2, 18975, Note_on_c, 0, 66, 0
2, 19380, Note_on_c, 0, 67, 80
2, 19406, Note_on_c, 0, 67, 0
2, 19410, Note_on_c, 0, 65, 80
2, 19436, Note_on_c, 0, 65, 0
2, 19440, Note_on_c, 0, 63, 80
2, 19466, Note_on_c, 0, 63, 0
2, 19470, Note_on_c, 0, 65, 80
2, 19496, Note_on_c, 0, 65, 0
2, 19500, Note_on_c, 0, 68, 80
2, 19526, Note_on_c, 0, 68, 0
2, 19530, Note_on_c, 0, 62, 80
2, 19556, Note_on_c, 0, 62, 0
2, 19560, Note_on_c, 0, 65, 80
2, 19586, Note_on_c, 0, 65, 0
2, 19590, Note_on_c, 0, 59, 80
2, 19616, Note_on_c, 0, 59, 0
2, 19620, Note_on_c, 0, 62, 80
2, 19646, Note_on_c, 0, 62, 0
2, 19650, Note_on_c, 0, 67, 80
2, 19676, Note_on_c, 0, 67, 0
2, 19680, Note_on_c, 0, 71, 80
2, 19706, Note_on_c, 0, 71, 0
2, 19710, Note_on_c, 0, 72, 80
2, 19736, Note_on_c, 0, 72, 0
2, 19740, Note_on_c, 0, 67, 80
2, 19766, Note_on_c, 0, 67, 0
2, 19770, Note_on_c, 0, 74, 80
2, 19796, Note_on_c, 0, 74, 0
2, 19800, Note_on_c, 0, 65, 80
2, 19826, Note_on_c, 0, 65, 0
2, 19830, Note_on_c, 0, 63, 80
2, 19856, Note_on_c, 0, 63, 0
2, 19860, Note_on_c, 0, 67, 80
2, 19886, Note_on_c, 0, 67, 0
2, 19890, Note_on_c, 0, 69, 80
2, 19916, Note_on_c, 0, 69, 0
2, 19920, Note_on_c, 0, 71, 80
2, 19946, Note_on_c, 0, 71, 0
2, 19950, Note_on_c, 0, 72, 80
2, 19976, Note_on_c, 0, 72, 0
2, 19980, Note_on_c, 0, 75, 80
2, 20006, Note_on_c, 0, 75, 0
2, 20010, Note_on_c, 0, 70, 80
2, 20036, Note_on_c, 0, 70, 0
2, 20040, Note_on_c, 0, 75, 80
2, 20066, Note_on_c, 0, 75, 0
2, 20070, Note_on_c, 0, 68, 80
2, 20096, Note_on_c, 0, 68, 0
2, 20100, Note_on_c, 0, 75, 80
2, 20126, Note_on_c, 0, 75, 0
2, 20130, Note_on_c, 0, 68, 80
2, 20156, Note_on_c, 0, 68, 0
2, 20160, Note_on_c, 0, 67, 80
2, 20186, Note_on_c, 0, 67, 0
2, 20190, Note_on_c, 0, 65, 80
2, 20216, Note_on_c, 0, 65, 0
2, 20220, Note_on_c, 0, 68, 80
2, 20246, Note_on_c, 0, 68, 0
2, 20250, Note_on_c, 0, 63, 80
2, 20276, Note_on_c, 0, 63, 0
2, 20280, Note_on_c, 0, 68, 80
2, 20306, Note_on_c, 0, 68, 0
2, 20310, Note_on_c, 0, 62, 80
2, 20336, Note_on_c, 0, 62, 0
2, 20340, Note_on_c, 0, 65, 80
2, 20366, Note_on_c, 0, 65, 0
2, 20370, Note_on_c, 0, 67, 80
2, 20396, Note_on_c, 0, 67, 0
2, 20400, Note_on_c, 0, 69, 80
2, 20426, Note_on_c, 0, 69, 0
2, 20430, Note_on_c, 0, 70, 80
2, 20456, Note_on_c, 0, 70, 0
2, 20460, Note_on_c, 0, 74, 80
2, 20486, Note_on_c, 0, 74, 0
2, 20490, Note_on_c, 0, 68, 80
2, 20516, Note_on_c, 0, 68, 0
2, 20520, Note_on_c, 0, 74, 80
2, 20546, Note_on_c, 0, 74, 0
2, 20550, Note_on_c, 0, 67, 80
2, 20576, Note_on_c, 0, 67, 0
2, 20580, Note_on_c, 0, 74, 80
2, 20606, Note_on_c, 0, 74, 0
2, 20610, Note_on_c, 0, 67, 80
2, 20636, Note_on_c, 0, 67, 0
2, 20640, Note_on_c, 0, 65, 80
2, 20666, Note_on_c, 0, 65, 0
2, 20670, Note_on_c, 0, 63, 80
2, 20696, Note_on_c, 0, 63, 0
2, 20700, Note_on_c, 0, 67, 80
2, 20726, Note_on_c, 0, 67, 0
2, 20730, Note_on_c, 0, 62, 80
2, 20756, Note_on_c, 0, 62, 0
2, 20760, Note_on_c, 0, 67, 80
2, 20786, Note_on_c, 0, 67, 0
2, 20790, Note_on_c, 0, 60, 80
2, 20816, Note_on_c, 0, 60, 0
2, 20820, Note_on_c, 0, 63, 80
2, 20846, Note_on_c, 0, 63, 0
2, 20850, Note_on_c, 0, 65, 80
2, 20876, Note_on_c, 0, 65, 0
2, 20880, Note_on_c, 0, 67, 80
2, 20906, Note_on_c, 0, 67, 0
2, 20910, Note_on_c, 0, 68, 80
2, 20936, Note_on_c, 0, 68, 0
2, 20940, Note_on_c, 0, 72, 80
2, 20966, Note_on_c, 0, 72, 0
2, 20970, Note_on_c, 0, 67, 80
2, 20996, Note_on_c, 0, 67, 0
2, 21000, Note_on_c, 0, 72, 80
2, 21026, Note_on_c, 0, 72, 0
2, 21030, Note_on_c, 0, 65, 80
2, 21056, Note_on_c, 0, 65, 0
2, 21060, Note_on_c, 0, 72, 80
2, 21086, Note_on_c, 0, 72, 0
2, 21090, Note_on_c, 0, 65, 80
2, 21116, Note_on_c, 0, 65, 0
2, 21120, Note_on_c, 0, 63, 80
2, 21146, Note_on_c, 0, 63, 0
2, 21150, Note_on_c, 0, 62, 80
2, 21176, Note_on_c, 0, 62, 0
2, 21180, Note_on_c, 0, 65, 80
2, 21206, Note_on_c, 0, 65, 0
2, 21210, Note_on_c, 0, 60, 80
2, 21236, Note_on_c, 0, 60, 0
2, 21240, Note_on_c, 0, 65, 80
2, 21266, Note_on_c, 0, 65, 0
2, 21270, Note_on_c, 0, 59, 80
2, 21291, Note_on_c, 0, 59, 0
2, 21292, Note_on_c, 0, 60, 80
2, 21299, Note_on_c, 0, 60, 0
2, 21300, Note_on_c, 0, 59, 80
2, 21306, Note_on_c, 0, 59, 0
2, 21307, Note_on_c, 0, 60, 80
2, 21314, Note_on_c, 0, 60, 0
2, 21315, Note_on_c, 0, 59, 80
2, 21321, Note_on_c, 0, 59, 0
2, 21322, Note_on_c, 0, 60, 80
2, 21329, Note_on_c, 0, 60, 0
2, 21330, Note_on_c, 0, 59, 80
2, 21336, Note_on_c, 0, 59, 0
2, 21337, Note_on_c, 0, 60, 80
2, 21344, Note_on_c, 0, 60, 0
2, 21345, Note_on_c, 0, 59, 80
2, 21351, Note_on_c, 0, 59, 0
2, 21352, Note_on_c, 0, 60, 80
2, 21359, Note_on_c, 0, 60, 0
2, 21360, Note_on_c, 0, 59, 80
2, 21388, Note_on_c, 0, 59, 0
2, 21450, Note_on_c, 0, 55, 80
2, 21502, Note_on_c, 0, 55, 0
2, 21510, Note_on_c, 0, 60, 80
2, 21562, Note_on_c, 0, 60, 0
2, 21570, Note_on_c, 0, 62, 80
2, 21596, Note_on_c, 0, 62, 0
2, 21600, Note_on_c, 0, 63, 80
2, 21626, Note_on_c, 0, 63, 0
2, 21630, Note_on_c, 0, 65, 80
2, 21682, Note_on_c, 0, 65, 0
2, 21690, Note_on_c, 0, 63, 80
2, 21696, Note_on_c, 0, 63, 0
2, 21697, Note_on_c, 0, 65, 80
2, 21704, Note_on_c, 0, 65, 0
2, 21705, Note_on_c, 0, 63, 80
2, 21718, Note_on_c, 0, 63, 0
2, 21720, Note_on_c, 0, 62, 80
2, 21746, Note_on_c, 0, 62, 0
2, 21750, Note_on_c, 0, 63, 80
2, 21855, Note_on_c, 0, 63, 0
2, 21900, Note_on_c, 0, 55, 80
2, 21926, Note_on_c, 0, 55, 0
2, 21930, Note_on_c, 0, 60, 80
2, 21956, Note_on_c, 0, 60, 0
2, 21960, Note_on_c, 0, 62, 80
2, 21986, Note_on_c, 0, 62, 0
2, 21990, Note_on_c, 0, 63, 80
2, 22016, Note_on_c, 0, 63, 0
2, 22020, Note_on_c, 0, 60, 80
2, 22046, Note_on_c, 0, 60, 0
2, 22050, Note_on_c, 0, 66, 80
2, 22076, Note_on_c, 0, 66, 0
2, 22080, Note_on_c, 0, 67, 80
2, 22106, Note_on_c, 0, 67, 0
2, 22110, Note_on_c, 0, 69, 80
2, 22136, Note_on_c, 0, 69, 0
2, 22140, Note_on_c, 0, 60, 80
2, 22166, Note_on_c, 0, 60, 0
2, 22170, Note_on_c, 0, 67, 80
2, 22196, Note_on_c, 0, 67, 0
2, 22200, Note_on_c, 0, 66, 80
2, 22226, Note_on_c, 0, 66, 0
2, 22230, Note_on_c, 0, 67, 80
2, 22335, Note_on_c, 0, 67, 0
2, 22410, Note_on_c, 0, 62, 80
2, 22462, Note_on_c, 0, 62, 0
2, 22470, Note_on_c, 0, 67, 80
2, 22522, Note_on_c, 0, 67, 0
2, 22530, Note_on_c, 0, 69, 80
2, 22556, Note_on_c, 0, 69, 0
2, 22560, Note_on_c, 0, 71, 80
2, 22586, Note_on_c, 0, 71, 0
2, 22590, Note_on_c, 0, 72, 80
2, 22642, Note_on_c, 0, 72, 0
2, 22650, Note_on_c, 0, 71, 80
2, 22656, Note_on_c, 0, 71, 0
2, 22657, Note_on_c, 0, 72, 80
2, 22664, Note_on_c, 0, 72, 0
2, 22665, Note_on_c, 0, 71, 80
2, 22678, Note_on_c, 0, 71, 0
2, 22680, Note_on_c, 0, 69, 80
2, 22706, Note_on_c, 0, 69, 0
2, 22710, Note_on_c, 0, 71, 80
2, 22762, Note_on_c, 0, 71, 0
2, 22770, Note_on_c, 0, 72, 80
2, 22796, Note_on_c, 0, 72, 0
2, 22800, Note_on_c, 0, 74, 80
2, 22826, Note_on_c, 0, 74, 0
2, 22830, Note_on_c, 0, 75, 80
2, 22882, Note_on_c, 0, 75, 0
2, 22890, Note_on_c, 0, 74, 80
2, 22896, Note_on_c, 0, 74, 0
2, 22897, Note_on_c, 0, 75, 80
2, 22904, Note_on_c, 0, 75, 0
2, 22905, Note_on_c, 0, 74, 80
2, 22918, Note_on_c, 0, 74, 0
2, 22920, Note_on_c, 0, 72, 80
2, 22946, Note_on_c, 0, 72, 0
2, 22950, Note_on_c, 0, 74, 80
2, 23002, Note_on_c, 0, 74, 0
2, 23010, Note_on_c, 0, 75, 80
2, 23036, Note_on_c, 0, 75, 0
2, 23040, Note_on_c, 0, 77, 80
2, 23066, Note_on_c, 0, 77, 0
2, 23070, Note_on_c, 0, 79, 80
2, 23122, Note_on_c, 0, 79, 0
2, 23130, Note_on_c, 0, 77, 80
2, 23136, Note_on_c, 0, 77, 0
2, 23137, Note_on_c, 0, 79, 80
2, 23144, Note_on_c, 0, 79, 0
2, 23145, Note_on_c, 0, 77, 80
2, 23158, Note_on_c, 0, 77, 0
2, 23160, Note_on_c, 0, 75, 80
2, 23186, Note_on_c, 0, 75, 0
2, 23190, Note_on_c, 0, 77, 80
2, 23216, Note_on_c, 0, 77, 0
2, 23220, Note_on_c, 0, 74, 80
2, 23246, Note_on_c, 0, 74, 0
2, 23250, Note_on_c, 0, 71, 80
2, 23276, Note_on_c, 0, 71, 0
2, 23280, Note_on_c, 0, 67, 80
2, 23306, Note_on_c, 0, 67, 0
2, 23310, Note_on_c, 0, 65, 80
2, 23336, Note_on_c, 0, 65, 0
2, 23340, Note_on_c, 0, 62, 80
2, 23366, Note_on_c, 0, 62, 0
2, 23370, Note_on_c, 0, 67, 80
2, 23396, Note_on_c, 0, 67, 0
2, 23400, Note_on_c, 0, 71, 80
2, 23426, Note_on_c, 0, 71, 0
2, 23430, Note_on_c, 0, 72, 80
2, 23456, Note_on_c, 0, 72, 0
2, 23460, Note_on_c, 0, 67, 80
2, 23486, Note_on_c, 0, 67, 0
2, 23490, Note_on_c, 0, 63, 80
2, 23516, Note_on_c, 0, 63, 0
2, 23520, Note_on_c, 0, 60, 80
2, 23546, Note_on_c, 0, 60, 0
2, 23580, Note_on_c, 0, 62, 80
2, 23606, Note_on_c, 0, 62, 0
2, 23610, Note_on_c, 0, 65, 80
2, 23636, Note_on_c, 0, 65, 0
2, 23640, Note_on_c, 0, 71, 80
2, 23666, Note_on_c, 0, 71, 0
2, 23670, Note_on_c, 0, 72, 80
2, 23696, Note_on_c, 0, 72, 0
2, 23700, Note_on_c, 0, 67, 80
2, 23726, Note_on_c, 0, 67, 0
2, 23730, Note_on_c, 0, 63, 80
2, 23756, Note_on_c, 0, 63, 0
2, 23760, Note_on_c, 0, 60, 80
2, 23786, Note_on_c, 0, 60, 0
2, 23790, Note_on_c, 0, 63, 80
2, 23816, Note_on_c, 0, 63, 0
2, 23820, Note_on_c, 0, 67, 80
2, 23846, Note_on_c, 0, 67, 0
2, 23850, Note_on_c, 0, 72, 80
2, 23876, Note_on_c, 0, 72, 0
2, 23880, Note_on_c, 0, 74, 80
2, 23906, Note_on_c, 0, 74, 0
2, 23910, Note_on_c, 0, 75, 80
2, 23936, Note_on_c, 0, 75, 0
2, 23940, Note_on_c, 0, 72, 80
2, 23966, Note_on_c, 0, 72, 0
2, 23970, Note_on_c, 0, 69, 80
2, 23996, Note_on_c, 0, 69, 0
2, 24000, Note_on_c, 0, 67, 80
2, 24026, Note_on_c, 0, 67, 0
2, 24030, Note_on_c, 0, 69, 80
2, 24056, Note_on_c, 0, 69, 0
2, 24060, Note_on_c, 0, 72, 80
2, 24086, Note_on_c, 0, 72, 0
2, 24090, Note_on_c, 0, 65, 80
2, 24116, Note_on_c, 0, 65, 0
2, 24120, Note_on_c, 0, 72, 80
2, 24146, Note_on_c, 0, 72, 0
2, 24150, Note_on_c, 0, 74, 80
2, 24176, Note_on_c, 0, 74, 0
2, 24180, Note_on_c, 0, 77, 80
2, 24206, Note_on_c, 0, 77, 0
2, 24210, Note_on_c, 0, 70, 80
2, 24236, Note_on_c, 0, 70, 0
2, 24240, Note_on_c, 0, 69, 80
2, 24266, Note_on_c, 0, 69, 0
2, 24270, Note_on_c, 0, 70, 80
2, 24296, Note_on_c, 0, 70, 0
2, 24300, Note_on_c, 0, 74, 80
2, 24326, Note_on_c, 0, 74, 0
2, 24330, Note_on_c, 0, 77, 80
2, 24356, Note_on_c, 0, 77, 0
2, 24360, Note_on_c, 0, 79, 80
2, 24386, Note_on_c, 0, 79, 0
2, 24390, Note_on_c, 0, 80, 80
2, 24416, Note_on_c, 0, 80, 0
2, 24420, Note_on_c, 0, 77, 80
2, 24446, Note_on_c, 0, 77, 0
2, 24450, Note_on_c, 0, 74, 80
2, 24476, Note_on_c, 0, 74, 0
2, 24480, Note_on_c, 0, 72, 80
2, 24506, Note_on_c, 0, 72, 0
2, 24510, Note_on_c, 0, 74, 80
2, 24536, Note_on_c, 0, 74, 0
2, 24540, Note_on_c, 0, 77, 80
2, 24566, Note_on_c, 0, 77, 0
2, 24570, Note_on_c, 0, 70, 80
2, 24596, Note_on_c, 0, 70, 0
2, 24600, Note_on_c, 0, 77, 80
2, 24626, Note_on_c, 0, 77, 0
2, 24630, Note_on_c, 0, 79, 80
2, 24656, Note_on_c, 0, 79, 0
2, 24660, Note_on_c, 0, 82, 80
2, 24686, Note_on_c, 0, 82, 0
2, 24690, Note_on_c, 0, 75, 80
2, 24716, Note_on_c, 0, 75, 0
2, 24720, Note_on_c, 0, 74, 80
2, 24746, Note_on_c, 0, 74, 0
2, 24750, Note_on_c, 0, 75, 80
2, 24776, Note_on_c, 0, 75, 0
2, 24780, Note_on_c, 0, 79, 80
2, 24806, Note_on_c, 0, 79, 0
2, 24810, Note_on_c, 0, 81, 80
2, 24836, Note_on_c, 0, 81, 0
2, 24840, Note_on_c, 0, 82, 80
2, 24866, Note_on_c, 0, 82, 0
2, 24870, Note_on_c, 0, 84, 80
2, 24896, Note_on_c, 0, 84, 0
2, 24900, Note_on_c, 0, 77, 80
2, 24926, Note_on_c, 0, 77, 0
2, 24930, Note_on_c, 0, 75, 80
2, 24956, Note_on_c, 0, 75, 0
2, 24960, Note_on_c, 0, 74, 80
2, 24986, Note_on_c, 0, 74, 0
2, 24990, Note_on_c, 0, 75, 80
2, 25016, Note_on_c, 0, 75, 0
2, 25020, Note_on_c, 0, 77, 80
2, 25046, Note_on_c, 0, 77, 0
2, 25050, Note_on_c, 0, 72, 80
2, 25076, Note_on_c, 0, 72, 0
2, 25080, Note_on_c, 0, 75, 80
2, 25106, Note_on_c, 0, 75, 0
2, 25110, Note_on_c, 0, 74, 80
2, 25136, Note_on_c, 0, 74, 0
2, 25140, Note_on_c, 0, 68, 80
2, 25166, Note_on_c, 0, 68, 0
2, 25170, Note_on_c, 0, 67, 80
2, 25196, Note_on_c, 0, 67, 0
2, 25200, Note_on_c, 0, 65, 80
2, 25226, Note_on_c, 0, 65, 0
2, 25230, Note_on_c, 0, 64, 80
2, 25256, Note_on_c, 0, 64, 0
2, 25260, Note_on_c, 0, 67, 80
2, 25286, Note_on_c, 0, 67, 0
2, 25290, Note_on_c, 0, 70, 80
2, 25316, Note_on_c, 0, 70, 0
2, 25320, Note_on_c, 0, 67, 80
2, 25346, Note_on_c, 0, 67, 0
2, 25350, Note_on_c, 0, 69, 80
2, 25376, Note_on_c, 0, 69, 0
2, 25380, Note_on_c, 0, 75, 80
2, 25406, Note_on_c, 0, 75, 0
2, 25410, Note_on_c, 0, 74, 80
2, 25436, Note_on_c, 0, 74, 0
2, 25440, Note_on_c, 0, 72, 80
2, 25466, Note_on_c, 0, 72, 0
2, 25470, Note_on_c, 0, 74, 80
2, 25496, Note_on_c, 0, 74, 0
2, 25500, Note_on_c, 0, 70, 80
2, 25526, Note_on_c, 0, 70, 0
2, 25530, Note_on_c, 0, 65, 80
2, 25556, Note_on_c, 0, 65, 0
2, 25560, Note_on_c, 0, 69, 80
2, 25586, Note_on_c, 0, 69, 0
2, 25590, Note_on_c, 0, 70, 80
2, 25616, Note_on_c, 0, 70, 0
2, 25620, Note_on_c, 0, 74, 80
2, 25646, Note_on_c, 0, 74, 0
2, 25650, Note_on_c, 0, 77, 80
2, 25676, Note_on_c, 0, 77, 0
2, 25680, Note_on_c, 0, 79, 80
2, 25706, Note_on_c, 0, 79, 0
2, 25710, Note_on_c, 0, 80, 80
2, 25736, Note_on_c, 0, 80, 0
2, 25740, Note_on_c, 0, 77, 80
2, 25766, Note_on_c, 0, 77, 0
2, 25770, Note_on_c, 0, 74, 80
2, 25796, Note_on_c, 0, 74, 0
2, 25800, Note_on_c, 0, 70, 80
2, 25826, Note_on_c, 0, 70, 0
2, 25860, Note_on_c, 0, 70, 80
2, 25886, Note_on_c, 0, 70, 0
2, 25890, Note_on_c, 0, 75, 80
2, 25916, Note_on_c, 0, 75, 0
2, 25920, Note_on_c, 0, 79, 80
2, 25946, Note_on_c, 0, 79, 0
2, 25950, Note_on_c, 0, 82, 80
2, 25976, Note_on_c, 0, 82, 0
2, 25980, Note_on_c, 0, 79, 80
2, 26006, Note_on_c, 0, 79, 0
2, 26010, Note_on_c, 0, 76, 80
2, 26036, Note_on_c, 0, 76, 0
2, 26040, Note_on_c, 0, 73, 80
2, 26066, Note_on_c, 0, 73, 0
2, 26100, Note_on_c, 0, 72, 80
2, 26126, Note_on_c, 0, 72, 0
2, 26130, Note_on_c, 0, 75, 80
2, 26156, Note_on_c, 0, 75, 0
2, 26160, Note_on_c, 0, 81, 80
2, 26186, Note_on_c, 0, 81, 0
2, 26190, Note_on_c, 0, 84, 80
2, 26216, Note_on_c, 0, 84, 0
2, 26220, Note_on_c, 0, 81, 80
2, 26246, Note_on_c, 0, 81, 0
2, 26250, Note_on_c, 0, 78, 80
2, 26276, Note_on_c, 0, 78, 0
2, 26280, Note_on_c, 0, 75, 80
2, 26306, Note_on_c, 0, 75, 0
2, 26310, Note_on_c, 0, 74, 80
2, 26336, Note_on_c, 0, 74, 0
2, 26340, Note_on_c, 0, 82, 80
2, 26366, Note_on_c, 0, 82, 0
2, 26370, Note_on_c, 0, 79, 80
2, 26396, Note_on_c, 0, 79, 0
2, 26400, Note_on_c, 0, 76, 80
2, 26426, Note_on_c, 0, 76, 0
2, 26430, Note_on_c, 0, 77, 80
2, 26456, Note_on_c, 0, 77, 0
2, 26460, Note_on_c, 0, 70, 80
2, 26486, Note_on_c, 0, 70, 0
2, 26490, Note_on_c, 0, 69, 80
2, 26516, Note_on_c, 0, 69, 0
2, 26520, Note_on_c, 0, 75, 80
2, 26546, Note_on_c, 0, 75, 0
2, 26550, Note_on_c, 0, 74, 80
2, 26576, Note_on_c, 0, 74, 0
2, 26580, Note_on_c, 0, 68, 80
2, 26606, Note_on_c, 0, 68, 0
2, 26610, Note_on_c, 0, 67, 80
2, 26636, Note_on_c, 0, 67, 0
2, 26640, Note_on_c, 0, 72, 80
2, 26666, Note_on_c, 0, 72, 0
2, 26670, Note_on_c, 0, 70, 80
2, 26696, Note_on_c, 0, 70, 0
2, 26700, Note_on_c, 0, 65, 80
2, 26726, Note_on_c, 0, 65, 0
2, 26730, Note_on_c, 0, 63, 80
2, 26756, Note_on_c, 0, 63, 0
2, 26760, Note_on_c, 0, 69, 80
2, 26786, Note_on_c, 0, 69, 0
2, 26790, Note_on_c, 0, 65, 80
2, 26790, Note_on_c, 0, 70, 80
2, 26955, Note_on_c, 0, 70, 0
2, 26955, Note_on_c, 0, 65, 0
2, 26966, Control_c, 0, 7, 109
2, 27000, Note_on_c, 0, 72, 80
2, 27026, Note_on_c, 0, 72, 0
2, 27030, Note_on_c, 0, 72, 80
2, 27056, Note_on_c, 0, 72, 0
2, 27060, Note_on_c, 0, 69, 80
2, 27086, Note_on_c, 0, 69, 0
2, 27090, Note_on_c, 0, 65, 80
2, 27116, Note_on_c, 0, 65, 0
2, 27120, Note_on_c, 0, 64, 80
2, 27146, Note_on_c, 0, 64, 0
2, 27150, Note_on_c, 0, 65, 80
2, 27176, Note_on_c, 0, 65, 0
2, 27180, Note_on_c, 0, 69, 80
2, 27206, Note_on_c, 0, 69, 0
2, 27210, Note_on_c, 0, 60, 80
2, 27236, Note_on_c, 0, 60, 0
2, 27240, Note_on_c, 0, 65, 80
2, 27266, Note_on_c, 0, 65, 0
2, 27270, Note_on_c, 0, 57, 80
2, 27296, Note_on_c, 0, 57, 0
2, 27300, Note_on_c, 0, 60, 80
2, 27326, Note_on_c, 0, 60, 0
2, 27330, Note_on_c, 0, 53, 80
2, 27356, Note_on_c, 0, 53, 0
2, 27360, Note_on_c, 0, 57, 80
2, 27386, Note_on_c, 0, 57, 0
2, 27390, Note_on_c, 0, 60, 80
2, 27416, Note_on_c, 0, 60, 0
2, 27420, Note_on_c, 0, 64, 80
2, 27446, Note_on_c, 0, 64, 0
2, 27450, Note_on_c, 0, 69, 80
2, 27476, Note_on_c, 0, 69, 0
2, 27480, Note_on_c, 0, 70, 80
2, 27506, Note_on_c, 0, 70, 0
2, 27510, Note_on_c, 0, 72, 80
2, 27536, Note_on_c, 0, 72, 0
2, 27540, Note_on_c, 0, 69, 80
2, 27566, Note_on_c, 0, 69, 0
2, 27570, Note_on_c, 0, 63, 80
2, 27596, Note_on_c, 0, 63, 0
2, 27600, Note_on_c, 0, 62, 80
2, 27626, Note_on_c, 0, 62, 0
2, 27630, Note_on_c, 0, 63, 80
2, 27656, Note_on_c, 0, 63, 0
2, 27660, Note_on_c, 0, 69, 80
2, 27686, Note_on_c, 0, 69, 0
2, 27690, Note_on_c, 0, 60, 80
2, 27716, Note_on_c, 0, 60, 0
2, 27720, Note_on_c, 0, 63, 80
2, 27746, Note_on_c, 0, 63, 0
2, 27750, Note_on_c, 0, 57, 80
2, 27776, Note_on_c, 0, 57, 0
2, 27780, Note_on_c, 0, 60, 80
2, 27806, Note_on_c, 0, 60, 0
2, 27810, Note_on_c, 0, 54, 80
2, 27836, Note_on_c, 0, 54, 0
2, 27840, Note_on_c, 0, 57, 80
2, 27866, Note_on_c, 0, 57, 0
2, 27870, Note_on_c, 0, 62, 80
2, 27896, Note_on_c, 0, 62, 0
2, 27900, Note_on_c, 0, 66, 80
2, 27926, Note_on_c, 0, 66, 0
2, 27930, Note_on_c, 0, 69, 80
2, 27956, Note_on_c, 0, 69, 0
2, 27960, Note_on_c, 0, 72, 80
2, 27986, Note_on_c, 0, 72, 0
2, 27990, Note_on_c, 0, 70, 80
2, 28256, Note_on_c, 0, 70, 0
2, 28260, Note_on_c, 0, 70, 80
2, 28286, Note_on_c, 0, 70, 0
2, 28290, Note_on_c, 0, 69, 80
2, 28316, Note_on_c, 0, 69, 0
2, 28320, Note_on_c, 0, 67, 80
2, 28346, Note_on_c, 0, 67, 0
2, 28350, Note_on_c, 0, 69, 80
2, 28376, Note_on_c, 0, 69, 0
2, 28380, Note_on_c, 0, 72, 80
2, 28406, Note_on_c, 0, 72, 0
2, 28410, Note_on_c, 0, 66, 80
2, 28436, Note_on_c, 0, 66, 0
2, 28440, Note_on_c, 0, 67, 80
2, 28466, Note_on_c, 0, 67, 0
2, 28470, Note_on_c, 0, 66, 80
2, 28575, Note_on_c, 0, 66, 0
2, 28980, Note_on_c, 0, 67, 80
2, 29006, Note_on_c, 0, 67, 0
2, 29010, Note_on_c, 0, 65, 80
2, 29036, Note_on_c, 0, 65, 0
2, 29040, Note_on_c, 0, 63, 80
2, 29066, Note_on_c, 0, 63, 0
2, 29070, Note_on_c, 0, 65, 80
2, 29096, Note_on_c, 0, 65, 0
2, 29100, Note_on_c, 0, 68, 80
2, 29126, Note_on_c, 0, 68, 0
2, 29130, Note_on_c, 0, 62, 80
2, 29156, Note_on_c, 0, 62, 0
2, 29160, Note_on_c, 0, 65, 80
2, 29186, Note_on_c, 0, 65, 0
2, 29190, Note_on_c, 0, 59, 80
2, 29216, Note_on_c, 0, 59, 0
2, 29220, Note_on_c, 0, 62, 80
2, 29246, Note_on_c, 0, 62, 0
2, 29250, Note_on_c, 0, 67, 80
2, 29276, Note_on_c, 0, 67, 0
2, 29280, Note_on_c, 0, 71, 80
2, 29306, Note_on_c, 0, 71, 0
2, 29310, Note_on_c, 0, 72, 80
2, 29336, Note_on_c, 0, 72, 0
2, 29340, Note_on_c, 0, 67, 80
2, 29366, Note_on_c, 0, 67, 0
2, 29370, Note_on_c, 0, 74, 80
2, 29396, Note_on_c, 0, 74, 0
2, 29400, Note_on_c, 0, 65, 80
2, 29426, Note_on_c, 0, 65, 0
2, 29430, Note_on_c, 0, 63, 80
2, 29456, Note_on_c, 0, 63, 0
2, 29460, Note_on_c, 0, 67, 80
2, 29486, Note_on_c, 0, 67, 0
2, 29490, Note_on_c, 0, 69, 80
2, 29516, Note_on_c, 0, 69, 0
2, 29520, Note_on_c, 0, 71, 80
2, 29546, Note_on_c, 0, 71, 0
2, 29550, Note_on_c, 0, 72, 80
2, 29576, Note_on_c, 0, 72, 0
2, 29580, Note_on_c, 0, 75, 80
2, 29606, Note_on_c, 0, 75, 0
2, 29610, Note_on_c, 0, 70, 80
2, 29636, Note_on_c, 0, 70, 0
2, 29640, Note_on_c, 0, 75, 80
2, 29666, Note_on_c, 0, 75, 0
2, 29670, Note_on_c, 0, 68, 80
2, 29696, Note_on_c, 0, 68, 0
2, 29700, Note_on_c, 0, 75, 80
2, 29726, Note_on_c, 0, 75, 0
2, 29730, Note_on_c, 0, 68, 80
2, 29756, Note_on_c, 0, 68, 0
2, 29760, Note_on_c, 0, 67, 80
2, 29786, Note_on_c, 0, 67, 0
2, 29790, Note_on_c, 0, 65, 80
2, 29816, Note_on_c, 0, 65, 0
2, 29820, Note_on_c, 0, 68, 80
2, 29846, Note_on_c, 0, 68, 0
2, 29850, Note_on_c, 0, 63, 80
2, 29876, Note_on_c, 0, 63, 0
2, 29880, Note_on_c, 0, 68, 80
2, 29906, Note_on_c, 0, 68, 0
2, 29910, Note_on_c, 0, 62, 80
2, 29936, Note_on_c, 0, 62, 0
2, 29940, Note_on_c, 0, 65, 80
2, 29966, Note_on_c, 0, 65, 0
2, 29970, Note_on_c, 0, 67, 80
2, 29996, Note_on_c, 0, 67, 0
2, 30000, Note_on_c, 0, 69, 80
2, 30026, Note_on_c, 0, 69, 0
2, 30030, Note_on_c, 0, 70, 80
2, 30056, Note_on_c, 0, 70, 0
2, 30060, Note_on_c, 0, 74, 80
2, 30086, Note_on_c, 0, 74, 0
2, 30090, Note_on_c, 0, 68, 80
2, 30116, Note_on_c, 0, 68, 0
2, 30120, Note_on_c, 0, 74, 80
2, 30146, Note_on_c, 0, 74, 0
2, 30150, Note_on_c, 0, 67, 80
2, 30176, Note_on_c, 0, 67, 0
2, 30180, Note_on_c, 0, 74, 80
2, 30206, Note_on_c, 0, 74, 0
2, 30210, Note_on_c, 0, 67, 80
2, 30236, Note_on_c, 0, 67, 0
2, 30240, Note_on_c, 0, 65, 80
2, 30266, Note_on_c, 0, 65, 0
2, 30270, Note_on_c, 0, 63, 80
2, 30296, Note_on_c, 0, 63, 0
2, 30300, Note_on_c, 0, 67, 80
2, 30326, Note_on_c, 0, 67, 0
2, 30330, Note_on_c, 0, 62, 80
2, 30356, Note_on_c, 0, 62, 0
2, 30360, Note_on_c, 0, 67, 80
2, 30386, Note_on_c, 0, 67, 0
2, 30390, Note_on_c, 0, 60, 80
2, 30416, Note_on_c, 0, 60, 0
2, 30420, Note_on_c, 0, 63, 80
2, 30446, Note_on_c, 0, 63, 0
2, 30450, Note_on_c, 0, 65, 80
2, 30476, Note_on_c, 0, 65, 0
2, 30480, Note_on_c, 0, 67, 80
2, 30506, Note_on_c, 0, 67, 0
2, 30510, Note_on_c, 0, 68, 80
2, 30536, Note_on_c, 0, 68, 0
2, 30540, Note_on_c, 0, 72, 80
2, 30566, Note_on_c, 0, 72, 0
2, 30570, Note_on_c, 0, 67, 80
2, 30596, Note_on_c, 0, 67, 0
2, 30600, Note_on_c, 0, 72, 80
2, 30626, Note_on_c, 0, 72, 0
2, 30630, Note_on_c, 0, 65, 80
2, 30656, Note_on_c, 0, 65, 0
2, 30660, Note_on_c, 0, 72, 80
2, 30686, Note_on_c, 0, 72, 0
2, 30690, Note_on_c, 0, 65, 80
2, 30716, Note_on_c, 0, 65, 0
2, 30720, Note_on_c, 0, 63, 80
2, 30746, Note_on_c, 0, 63, 0
2, 30750, Note_on_c, 0, 62, 80
2, 30776, Note_on_c, 0, 62, 0
2, 30780, Note_on_c, 0, 65, 80
2, 30806, Note_on_c, 0, 65, 0
2, 30810, Note_on_c, 0, 60, 80
2, 30836, Note_on_c, 0, 60, 0
2, 30840, Note_on_c, 0, 65, 80
2, 30866, Note_on_c, 0, 65, 0
2, 30870, Note_on_c, 0, 59, 80
2, 30891, Note_on_c, 0, 59, 0
2, 30892, Note_on_c, 0, 60, 80
2, 30899, Note_on_c, 0, 60, 0
2, 30900, Note_on_c, 0, 59, 80
2, 30906, Note_on_c, 0, 59, 0
2, 30907, Note_on_c, 0, 60, 80
2, 30914, Note_on_c, 0, 60, 0
2, 30915, Note_on_c, 0, 59, 80
2, 30921, Note_on_c, 0, 59, 0
2, 30922, Note_on_c, 0, 60, 80
2, 30929, Note_on_c, 0, 60, 0
2, 30930, Note_on_c, 0, 59, 80
2, 30936, Note_on_c, 0, 59, 0
2, 30937, Note_on_c, 0, 60, 80
2, 30944, Note_on_c, 0, 60, 0
2, 30945, Note_on_c, 0, 59, 80
2, 30951, Note_on_c, 0, 59, 0
2, 30952, Note_on_c, 0, 60, 80
2, 30959, Note_on_c, 0, 60, 0
2, 30960, Note_on_c, 0, 59, 80
2, 30988, Note_on_c, 0, 59, 0
2, 31050, Note_on_c, 0, 55, 80
2, 31102, Note_on_c, 0, 55, 0
2, 31110, Note_on_c, 0, 60, 80
2, 31162, Note_on_c, 0, 60, 0
2, 31170, Note_on_c, 0, 62, 80
2, 31196, Note_on_c, 0, 62, 0
2, 31200, Note_on_c, 0, 63, 80
2, 31226, Note_on_c, 0, 63, 0
2, 31230, Note_on_c, 0, 65, 80
2, 31282, Note_on_c, 0, 65, 0
2, 31290, Note_on_c, 0, 63, 80
2, 31296, Note_on_c, 0, 63, 0
2, 31297, Note_on_c, 0, 65, 80
2, 31304, Note_on_c, 0, 65, 0
2, 31305, Note_on_c, 0, 63, 80
2, 31318, Note_on_c, 0, 63, 0
2, 31320, Note_on_c, 0, 62, 80
2, 31346, Note_on_c, 0, 62, 0
2, 31350, Note_on_c, 0, 63, 80
2, 31455, Note_on_c, 0, 63, 0
2, 31500, Note_on_c, 0, 55, 80
2, 31526, Note_on_c, 0, 55, 0
2, 31530, Note_on_c, 0, 60, 80
2, 31556, Note_on_c, 0, 60, 0
2, 31560, Note_on_c, 0, 62, 80
2, 31586, Note_on_c, 0, 62, 0
2, 31590, Note_on_c, 0, 63, 80
2, 31616, Note_on_c, 0, 63, 0
2, 31620, Note_on_c, 0, 60, 80
2, 31646, Note_on_c, 0, 60, 0
2, 31650, Note_on_c, 0, 66, 80
2, 31676, Note_on_c, 0, 66, 0
2, 31680, Note_on_c, 0, 67, 80
2, 31706, Note_on_c, 0, 67, 0
2, 31710, Note_on_c, 0, 69, 80
2, 31736, Note_on_c, 0, 69, 0
2, 31740, Note_on_c, 0, 60, 80
2, 31766, Note_on_c, 0, 60, 0
2, 31770, Note_on_c, 0, 67, 80
2, 31796, Note_on_c, 0, 67, 0
2, 31800, Note_on_c, 0, 66, 80
2, 31826, Note_on_c, 0, 66, 0
2, 31830, Note_on_c, 0, 67, 80
2, 31935, Note_on_c, 0, 67, 0
2, 32010, Note_on_c, 0, 62, 80
2, 32062, Note_on_c, 0, 62, 0
2, 32070, Note_on_c, 0, 67, 80
2, 32122, Note_on_c, 0, 67, 0
2, 32130, Note_on_c, 0, 69, 80
2, 32156, Note_on_c, 0, 69, 0
2, 32160, Note_on_c, 0, 71, 80
2, 32186, Note_on_c, 0, 71, 0
2, 32190, Note_on_c, 0, 72, 80
2, 32242, Note_on_c, 0, 72, 0
2, 32250, Note_on_c, 0, 71, 80
2, 32256, Note_on_c, 0, 71, 0
2, 32257, Note_on_c, 0, 72, 80
2, 32264, Note_on_c, 0, 72, 0
2, 32265, Note_on_c, 0, 71, 80
2, 32278, Note_on_c, 0, 71, 0
2, 32280, Note_on_c, 0, 69, 80
2, 32306, Note_on_c, 0, 69, 0
2, 32310, Note_on_c, 0, 71, 80
2, 32362, Note_on_c, 0, 71, 0
2, 32370, Note_on_c, 0, 72, 80
2, 32396, Note_on_c, 0, 72, 0
2, 32400, Note_on_c, 0, 74, 80
2, 32426, Note_on_c, 0, 74, 0
2, 32430, Note_on_c, 0, 75, 80
2, 32482, Note_on_c, 0, 75, 0
2, 32490, Note_on_c, 0, 74, 80
2, 32496, Note_on_c, 0, 74, 0
2, 32497, Note_on_c, 0, 75, 80
2, 32504, Note_on_c, 0, 75, 0
2, 32505, Note_on_c, 0, 74, 80
2, 32518, Note_on_c, 0, 74, 0
2, 32520, Note_on_c, 0, 72, 80
2, 32546, Note_on_c, 0, 72, 0
2, 32550, Note_on_c, 0, 74, 80
2, 32602, Note_on_c, 0, 74, 0
2, 32610, Note_on_c, 0, 75, 80
2, 32636, Note_on_c, 0, 75, 0
2, 32640, Note_on_c, 0, 77, 80
2, 32666, Note_on_c, 0, 77, 0
2, 32670, Note_on_c, 0, 79, 80
2, 32722, Note_on_c, 0, 79, 0
2, 32730, Note_on_c, 0, 77, 80
2, 32736, Note_on_c, 0, 77, 0
2, 32737, Note_on_c, 0, 79, 80
2, 32744, Note_on_c, 0, 79, 0
2, 32745, Note_on_c, 0, 77, 80
2, 32758, Note_on_c, 0, 77, 0
2, 32760, Note_on_c, 0, 75, 80
2, 32786, Note_on_c, 0, 75, 0
2, 32790, Note_on_c, 0, 77, 80
2, 32816, Note_on_c, 0, 77, 0
2, 32820, Note_on_c, 0, 74, 80
2, 32846, Note_on_c, 0, 74, 0
2, 32850, Note_on_c, 0, 71, 80
2, 32876, Note_on_c, 0, 71, 0
2, 32880, Note_on_c, 0, 67, 80
2, 32906, Note_on_c, 0, 67, 0
2, 32910, Note_on_c, 0, 65, 80
2, 32936, Note_on_c, 0, 65, 0
2, 32940, Note_on_c, 0, 62, 80
2, 32966, Note_on_c, 0, 62, 0
2, 32970, Note_on_c, 0, 67, 80
2, 32996, Note_on_c, 0, 67, 0
2, 33000, Note_on_c, 0, 71, 80
2, 33026, Note_on_c, 0, 71, 0
2, 33030, Note_on_c, 0, 72, 80
2, 33056, Note_on_c, 0, 72, 0
2, 33060, Note_on_c, 0, 67, 80
2, 33086, Note_on_c, 0, 67, 0
2, 33090, Note_on_c, 0, 63, 80
2, 33116, Note_on_c, 0, 63, 0
2, 33120, Note_on_c, 0, 60, 80
2, 33146, Note_on_c, 0, 60, 0
2, 33180, Note_on_c, 0, 62, 80
2, 33206, Note_on_c, 0, 62, 0
2, 33210, Note_on_c, 0, 65, 80
2, 33236, Note_on_c, 0, 65, 0
2, 33240, Note_on_c, 0, 71, 80
2, 33266, Note_on_c, 0, 71, 0
2, 33270, Note_on_c, 0, 72, 80
2, 33296, Note_on_c, 0, 72, 0
2, 33300, Note_on_c, 0, 67, 80
2, 33326, Note_on_c, 0, 67, 0
2, 33330, Note_on_c, 0, 63, 80
2, 33356, Note_on_c, 0, 63, 0
2, 33360, Note_on_c, 0, 60, 80
2, 33386, Note_on_c, 0, 60, 0
2, 33390, Note_on_c, 0, 63, 80
2, 33416, Note_on_c, 0, 63, 0
2, 33420, Note_on_c, 0, 67, 80
2, 33446, Note_on_c, 0, 67, 0
2, 33450, Note_on_c, 0, 72, 80
2, 33476, Note_on_c, 0, 72, 0
2, 33480, Note_on_c, 0, 74, 80
2, 33506, Note_on_c, 0, 74, 0
2, 33510, Note_on_c, 0, 75, 80
2, 33536, Note_on_c, 0, 75, 0
2, 33540, Note_on_c, 0, 72, 80
2, 33566, Note_on_c, 0, 72, 0
2, 33570, Note_on_c, 0, 69, 80
2, 33596, Note_on_c, 0, 69, 0
2, 33600, Note_on_c, 0, 67, 80
2, 33626, Note_on_c, 0, 67, 0
2, 33630, Note_on_c, 0, 69, 80
2, 33656, Note_on_c, 0, 69, 0
2, 33660, Note_on_c, 0, 72, 80
2, 33686, Note_on_c, 0, 72, 0
2, 33690, Note_on_c, 0, 65, 80
2, 33716, Note_on_c, 0, 65, 0
2, 33720, Note_on_c, 0, 72, 80
2, 33746, Note_on_c, 0, 72, 0
2, 33750, Note_on_c, 0, 74, 80
2, 33776, Note_on_c, 0, 74, 0
2, 33780, Note_on_c, 0, 77, 80
2, 33806, Note_on_c, 0, 77, 0
2, 33810, Note_on_c, 0, 70, 80
2, 33836, Note_on_c, 0, 70, 0
2, 33840, Note_on_c, 0, 69, 80
2, 33866, Note_on_c, 0, 69, 0
2, 33870, Note_on_c, 0, 70, 80
2, 33896, Note_on_c, 0, 70, 0
2, 33900, Note_on_c, 0, 74, 80
2, 33926, Note_on_c, 0, 74, 0
2, 33930, Note_on_c, 0, 77, 80
2, 33956, Note_on_c, 0, 77, 0
2, 33960, Note_on_c, 0, 79, 80
2, 33986, Note_on_c, 0, 79, 0
2, 33990, Note_on_c, 0, 80, 80
2, 34016, Note_on_c, 0, 80, 0
2, 34020, Note_on_c, 0, 77, 80
2, 34046, Note_on_c, 0, 77, 0
2, 34050, Note_on_c, 0, 74, 80
2, 34076, Note_on_c, 0, 74, 0
2, 34080, Note_on_c, 0, 72, 80
2, 34106, Note_on_c, 0, 72, 0
2, 34110, Note_on_c, 0, 74, 80
2, 34136, Note_on_c, 0, 74, 0
2, 34140, Note_on_c, 0, 77, 80
2, 34166, Note_on_c, 0, 77, 0
2, 34170, Note_on_c, 0, 70, 80
2, 34196, Note_on_c, 0, 70, 0
2, 34200, Note_on_c, 0, 77, 80
2, 34226, Note_on_c, 0, 77, 0
2, 34230, Note_on_c, 0, 79, 80
2, 34256, Note_on_c, 0, 79, 0
2, 34260, Note_on_c, 0, 82, 80
2, 34286, Note_on_c, 0, 82, 0
2, 34290, Note_on_c, 0, 75, 80
2, 34316, Note_on_c, 0, 75, 0
2, 34320, Note_on_c, 0, 74, 80
2, 34346, Note_on_c, 0, 74, 0
2, 34350, Note_on_c, 0, 75, 80
2, 34376, Note_on_c, 0, 75, 0
2, 34380, Note_on_c, 0, 79, 80
2, 34406, Note_on_c, 0, 79, 0
2, 34410, Note_on_c, 0, 81, 80
2, 34436, Note_on_c, 0, 81, 0
2, 34440, Note_on_c, 0, 82, 80
2, 34466, Note_on_c, 0, 82, 0
2, 34470, Note_on_c, 0, 84, 80
2, 34496, Note_on_c, 0, 84, 0
2, 34500, Note_on_c, 0, 77, 80
2, 34526, Note_on_c, 0, 77, 0
2, 34530, Note_on_c, 0, 75, 80
2, 34556, Note_on_c, 0, 75, 0
2, 34560, Note_on_c, 0, 74, 80
2, 34586, Note_on_c, 0, 74, 0
2, 34590, Note_on_c, 0, 75, 80
2, 34616, Note_on_c, 0, 75, 0
2, 34620, Note_on_c, 0, 77, 80
2, 34646, Note_on_c, 0, 77, 0
2, 34650, Note_on_c, 0, 72, 80
2, 34676, Note_on_c, 0, 72, 0
2, 34680, Note_on_c, 0, 75, 80
2, 34706, Note_on_c, 0, 75, 0
2, 34710, Note_on_c, 0, 74, 80
2, 34736, Note_on_c, 0, 74, 0
2, 34740, Note_on_c, 0, 68, 80
2, 34766, Note_on_c, 0, 68, 0
2, 34770, Note_on_c, 0, 67, 80
2, 34796, Note_on_c, 0, 67, 0
2, 34800, Note_on_c, 0, 65, 80
2, 34826, Note_on_c, 0, 65, 0
2, 34830, Note_on_c, 0, 64, 80
2, 34856, Note_on_c, 0, 64, 0
2, 34860, Note_on_c, 0, 67, 80
2, 34886, Note_on_c, 0, 67, 0
2, 34890, Note_on_c, 0, 70, 80
2, 34916, Note_on_c, 0, 70, 0
2, 34920, Note_on_c, 0, 67, 80
2, 34946, Note_on_c, 0, 67, 0
2, 34950, Note_on_c, 0, 69, 80
2, 34976, Note_on_c, 0, 69, 0
2, 34980, Note_on_c, 0, 75, 80
2, 35006, Note_on_c, 0, 75, 0
2, 35010, Note_on_c, 0, 74, 80
2, 35036, Note_on_c, 0, 74, 0
2, 35040, Note_on_c, 0, 72, 80
2, 35066, Note_on_c, 0, 72, 0
2, 35070, Note_on_c, 0, 74, 80
2, 35096, Note_on_c, 0, 74, 0
2, 35100, Note_on_c, 0, 70, 80
2, 35126, Note_on_c, 0, 70, 0
2, 35130, Note_on_c, 0, 65, 80
2, 35156, Note_on_c, 0, 65, 0
2, 35160, Note_on_c, 0, 69, 80
2, 35186, Note_on_c, 0, 69, 0
2, 35190, Note_on_c, 0, 70, 80
2, 35216, Note_on_c, 0, 70, 0
2, 35220, Note_on_c, 0, 74, 80
2, 35246, Note_on_c, 0, 74, 0
2, 35250, Note_on_c, 0, 77, 80
2, 35276, Note_on_c, 0, 77, 0
2, 35280, Note_on_c, 0, 79, 80
2, 35306, Note_on_c, 0, 79, 0
2, 35310, Note_on_c, 0, 80, 80
2, 35336, Note_on_c, 0, 80, 0
2, 35340, Note_on_c, 0, 77, 80
2, 35366, Note_on_c, 0, 77, 0
2, 35370, Note_on_c, 0, 74, 80
2, 35396, Note_on_c, 0, 74, 0
2, 35400, Note_on_c, 0, 70, 80
2, 35426, Note_on_c, 0, 70, 0
2, 35460, Note_on_c, 0, 70, 80
2, 35486, Note_on_c, 0, 70, 0
2, 35490, Note_on_c, 0, 75, 80
2, 35516, Note_on_c, 0, 75, 0
2, 35520, Note_on_c, 0, 79, 80
2, 35546, Note_on_c, 0, 79, 0
2, 35550, Note_on_c, 0, 82, 80
2, 35576, Note_on_c, 0, 82, 0
2, 35580, Note_on_c, 0, 79, 80
2, 35606, Note_on_c, 0, 79, 0
2, 35610, Note_on_c, 0, 76, 80
2, 35636, Note_on_c, 0, 76, 0
2, 35640, Note_on_c, 0, 73, 80
2, 35666, Note_on_c, 0, 73, 0
2, 35700, Note_on_c, 0, 72, 80
2, 35726, Note_on_c, 0, 72, 0
2, 35730, Note_on_c, 0, 75, 80
2, 35756, Note_on_c, 0, 75, 0
2, 35760, Note_on_c, 0, 81, 80
2, 35786, Note_on_c, 0, 81, 0
2, 35790, Note_on_c, 0, 84, 80
2, 35816, Note_on_c, 0, 84, 0
2, 35820, Note_on_c, 0, 81, 80
2, 35846, Note_on_c, 0, 81, 0
2, 35850, Note_on_c, 0, 78, 80
2, 35876, Note_on_c, 0, 78, 0
2, 35880, Note_on_c, 0, 75, 80
2, 35906, Note_on_c, 0, 75, 0
2, 35910, Note_on_c, 0, 74, 80
2, 35936, Note_on_c, 0, 74, 0
2, 35940, Note_on_c, 0, 82, 80
2, 35966, Note_on_c, 0, 82, 0
2, 35970, Note_on_c, 0, 79, 80
2, 35996, Note_on_c, 0, 79, 0
2, 36000, Note_on_c, 0, 76, 80
2, 36026, Note_on_c, 0, 76, 0
2, 36030, Note_on_c, 0, 77, 80
2, 36056, Note_on_c, 0, 77, 0
2, 36060, Note_on_c, 0, 70, 80
2, 36086, Note_on_c, 0, 70, 0
2, 36090, Note_on_c, 0, 69, 80
2, 36116, Note_on_c, 0, 69, 0
2, 36120, Note_on_c, 0, 75, 80
2, 36146, Note_on_c, 0, 75, 0
2, 36150, Note_on_c, 0, 74, 80
2, 36176, Note_on_c, 0, 74, 0
2, 36180, Note_on_c, 0, 68, 80
2, 36206, Note_on_c, 0, 68, 0
2, 36210, Note_on_c, 0, 67, 80
2, 36236, Note_on_c, 0, 67, 0
2, 36240, Note_on_c, 0, 72, 80
2, 36266, Note_on_c, 0, 72, 0
2, 36270, Note_on_c, 0, 70, 80
2, 36296, Note_on_c, 0, 70, 0
2, 36300, Note_on_c, 0, 65, 80
2, 36326, Note_on_c, 0, 65, 0
2, 36330, Note_on_c, 0, 63, 80
2, 36356, Note_on_c, 0, 63, 0
2, 36360, Note_on_c, 0, 69, 80
2, 36386, Note_on_c, 0, 69, 0
2, 36390, Note_on_c, 0, 65, 80
2, 36390, Note_on_c, 0, 70, 80
2, 36555, Note_on_c, 0, 70, 0
2, 36555, Note_on_c, 0, 65, 0
2, 36555, End_track
3, 0, Start_track
3, 0, MIDI_port, 0
3, 0, Program_c, 1, 82
3, 0, Control_c, 1, 7, 85
3, 0, Control_c, 1, 10, 32
3, 46, Control_c, 1, 7, 94
3, 1950, Note_on_c, 1, 58, 68
3, 2002, Note_on_c, 1, 58, 0
3, 2010, Note_on_c, 1, 57, 68
3, 2062, Note_on_c, 1, 57, 0
3, 2070, Note_on_c, 1, 55, 68
3, 2175, Note_on_c, 1, 55, 0
3, 2310, Note_on_c, 1, 54, 68
3, 2415, Note_on_c, 1, 54, 0
3, 2550, Note_on_c, 1, 55, 68
3, 2655, Note_on_c, 1, 55, 0
3, 3330, Note_on_c, 1, 64, 68
3, 3435, Note_on_c, 1, 64, 0
3, 3450, Note_on_c, 1, 62, 68
3, 3502, Note_on_c, 1, 62, 0
3, 3510, Note_on_c, 1, 60, 68
3, 3562, Note_on_c, 1, 60, 0
3, 3810, Note_on_c, 1, 57, 68
3, 3915, Note_on_c, 1, 57, 0
3, 3930, Note_on_c, 1, 55, 68
3, 3982, Note_on_c, 1, 55, 0
3, 3990, Note_on_c, 1, 53, 68
3, 4042, Note_on_c, 1, 53, 0
3, 4050, Note_on_c, 1, 65, 68
3, 4102, Note_on_c, 1, 65, 0
3, 4110, Note_on_c, 1, 69, 68
3, 4162, Note_on_c, 1, 69, 0
3, 4170, Note_on_c, 1, 72, 68
3, 4222, Note_on_c, 1, 72, 0
3, 4230, Note_on_c, 1, 70, 68
3, 4282, Note_on_c, 1, 70, 0
3, 4530, Note_on_c, 1, 64, 68
3, 4582, Note_on_c, 1, 64, 0
3, 4590, Note_on_c, 1, 67, 68
3, 4642, Note_on_c, 1, 67, 0
3, 4650, Note_on_c, 1, 70, 68
3, 4702, Note_on_c, 1, 70, 0
3, 4710, Note_on_c, 1, 69, 68
3, 4762, Note_on_c, 1, 69, 0
3, 5010, Note_on_c, 1, 62, 68
3, 5062, Note_on_c, 1, 62, 0
3, 5070, Note_on_c, 1, 65, 68
3, 5122, Note_on_c, 1, 65, 0
3, 5130, Note_on_c, 1, 69, 68
3, 5182, Note_on_c, 1, 69, 0
3, 5190, Note_on_c, 1, 67, 68
3, 5242, Note_on_c, 1, 67, 0
3, 5940, Note_on_c, 1, 65, 68
3, 5966, Note_on_c, 1, 65, 0
3, 5970, Note_on_c, 1, 64, 68
3, 5996, Note_on_c, 1, 64, 0
3, 6000, Note_on_c, 1, 62, 68
3, 6026, Note_on_c, 1, 62, 0
3, 6030, Note_on_c, 1, 60, 68
3, 6056, Note_on_c, 1, 60, 0
3, 6060, Note_on_c, 1, 58, 68
3, 6086, Note_on_c, 1, 58, 0
3, 6090, Note_on_c, 1, 57, 68
3, 6116, Note_on_c, 1, 57, 0
3, 6120, Note_on_c, 1, 55, 68
3, 6146, Note_on_c, 1, 55, 0
3, 6150, Note_on_c, 1, 53, 68
3, 6176, Note_on_c, 1, 53, 0
3, 6180, Note_on_c, 1, 52, 68
3, 6206, Note_on_c, 1, 52, 0
3, 6210, Note_on_c, 1, 50, 68
3, 6236, Note_on_c, 1, 50, 0
3, 6240, Note_on_c, 1, 48, 68
3, 6266, Note_on_c, 1, 48, 0
3, 6270, Note_on_c, 1, 47, 68
3, 6296, Note_on_c, 1, 47, 0
3, 6300, Note_on_c, 1, 55, 68
3, 6326, Note_on_c, 1, 55, 0
3, 6330, Note_on_c, 1, 43, 68
3, 6356, Note_on_c, 1, 43, 0
3, 6360, Note_on_c, 1, 53, 68
3, 6386, Note_on_c, 1, 53, 0
3, 6390, Note_on_c, 1, 36, 68
3, 6442, Note_on_c, 1, 36, 0
3, 7860, Note_on_c, 1, 70, 68
3, 7886, Note_on_c, 1, 70, 0
3, 7890, Note_on_c, 1, 69, 68
3, 7942, Note_on_c, 1, 69, 0
3, 7980, Note_on_c, 1, 69, 68
3, 8006, Note_on_c, 1, 69, 0
3, 8010, Note_on_c, 1, 70, 68
3, 8062, Note_on_c, 1, 70, 0
3, 8070, Note_on_c, 1, 64, 68
3, 8148, Note_on_c, 1, 64, 0
3, 8160, Note_on_c, 1, 65, 68
3, 8186, Note_on_c, 1, 65, 0
3, 8190, Note_on_c, 1, 67, 68
3, 8268, Note_on_c, 1, 67, 0
3, 8280, Note_on_c, 1, 67, 68
3, 8306, Note_on_c, 1, 67, 0
3, 8340, Note_on_c, 1, 64, 68
3, 8366, Note_on_c, 1, 64, 0
3, 8370, Note_on_c, 1, 65, 68
3, 8396, Note_on_c, 1, 65, 0
3, 8400, Note_on_c, 1, 59, 68
3, 8426, Note_on_c, 1, 59, 0
3, 8430, Note_on_c, 1, 60, 68
3, 8482, Note_on_c, 1, 60, 0
3, 8490, Note_on_c, 1, 58, 68
3, 8542, Note_on_c, 1, 58, 0
3, 8550, Note_on_c, 1, 57, 68
3, 8550, Note_on_c, 1, 60, 68
3, 8715, Note_on_c, 1, 60, 0
3, 8715, Note_on_c, 1, 57, 0
3, 8720, Control_c, 1, 7, 84
3, 10590, Note_on_c, 1, 58, 68
3, 10642, Note_on_c, 1, 58, 0
3, 10650, Note_on_c, 1, 57, 68
3, 10702, Note_on_c, 1, 57, 0
3, 10710, Note_on_c, 1, 55, 68
3, 10815, Note_on_c, 1, 55, 0
3, 10950, Note_on_c, 1, 54, 68
3, 11055, Note_on_c, 1, 54, 0
3, 11190, Note_on_c, 1, 55, 68
3, 11295, Note_on_c, 1, 55, 0
3, 11970, Note_on_c, 1, 64, 68
3, 12075, Note_on_c, 1, 64, 0
3, 12090, Note_on_c, 1, 62, 68
3, 12142, Note_on_c, 1, 62, 0
3, 12150, Note_on_c, 1, 60, 68
3, 12202, Note_on_c, 1, 60, 0
3, 12450, Note_on_c, 1, 57, 68
3, 12555, Note_on_c, 1, 57, 0
3, 12570, Note_on_c, 1, 55, 68
3, 12622, Note_on_c, 1, 55, 0
3, 12630, Note_on_c, 1, 53, 68
3, 12682, Note_on_c, 1, 53, 0
3, 12690, Note_on_c, 1, 65, 68
3, 12742, Note_on_c, 1, 65, 0
3, 12750, Note_on_c, 1, 69, 68
3, 12802, Note_on_c, 1, 69, 0
3, 12810, Note_on_c, 1, 72, 68
3, 12862, Note_on_c, 1, 72, 0
3, 12870, Note_on_c, 1, 70, 68
3, 12922, Note_on_c, 1, 70, 0
3, 13170, Note_on_c, 1, 64, 68
3, 13222, Note_on_c, 1, 64, 0
3, 13230, Note_on_c, 1, 67, 68
3, 13282, Note_on_c, 1, 67, 0
3, 13290, Note_on_c, 1, 70, 68
3, 13342, Note_on_c, 1, 70, 0
3, 13350, Note_on_c, 1, 69, 68
3, 13402, Note_on_c, 1, 69, 0
3, 13650, Note_on_c, 1, 62, 68
3, 13702, Note_on_c, 1, 62, 0
3, 13710, Note_on_c, 1, 65, 68
3, 13762, Note_on_c, 1, 65, 0
3, 13770, Note_on_c, 1, 69, 68
3, 13822, Note_on_c, 1, 69, 0
3, 13830, Note_on_c, 1, 67, 68
3, 13882, Note_on_c, 1, 67, 0
3, 14580, Note_on_c, 1, 65, 68
3, 14606, Note_on_c, 1, 65, 0
3, 14610, Note_on_c, 1, 64, 68
3, 14636, Note_on_c, 1, 64, 0
3, 14640, Note_on_c, 1, 62, 68
3, 14666, Note_on_c, 1, 62, 0
3, 14670, Note_on_c, 1, 60, 68
3, 14696, Note_on_c, 1, 60, 0
3, 14700, Note_on_c, 1, 58, 68
3, 14726, Note_on_c, 1, 58, 0
3, 14730, Note_on_c, 1, 57, 68
3, 14756, Note_on_c, 1, 57, 0
3, 14760, Note_on_c, 1, 55, 68
3, 14786, Note_on_c, 1, 55, 0
3, 14790, Note_on_c, 1, 53, 68
3, 14816, Note_on_c, 1, 53, 0
3, 14820, Note_on_c, 1, 52, 68
3, 14846, Note_on_c, 1, 52, 0
3, 14850, Note_on_c, 1, 50, 68
3, 14876, Note_on_c, 1, 50, 0
3, 14880, Note_on_c, 1, 48, 68
3, 14906, Note_on_c, 1, 48, 0
3, 14910, Note_on_c, 1, 47, 68
3, 14936, Note_on_c, 1, 47, 0
3, 14940, Note_on_c, 1, 55, 68
3, 14966, Note_on_c, 1, 55, 0
3, 14970, Note_on_c, 1, 43, 68
3, 14996, Note_on_c, 1, 43, 0
3, 15000, Note_on_c, 1, 53, 68
3, 15026, Note_on_c, 1, 53, 0
3, 15030, Note_on_c, 1, 36, 68
3, 15082, Note_on_c, 1, 36, 0
3, 16500, Note_on_c, 1, 70, 68
3, 16526, Note_on_c, 1, 70, 0
3, 16530, Note_on_c, 1, 69, 68
3, 16582, Note_on_c, 1, 69, 0
3, 16620, Note_on_c, 1, 69, 68
3, 16646, Note_on_c, 1, 69, 0
3, 16650, Note_on_c, 1, 70, 68
3, 16702, Note_on_c, 1, 70, 0
3, 16710, Note_on_c, 1, 64, 68
3, 16788, Note_on_c, 1, 64, 0
3, 16800, Note_on_c, 1, 65, 68
3, 16826, Note_on_c, 1, 65, 0
3, 16830, Note_on_c, 1, 67, 68
3, 16908, Note_on_c, 1, 67, 0
3, 16920, Note_on_c, 1, 67, 68
3, 16946, Note_on_c, 1, 67, 0
3, 16980, Note_on_c, 1, 64, 68
3, 17006, Note_on_c, 1, 64, 0
3, 17010, Note_on_c, 1, 65, 68
3, 17036, Note_on_c, 1, 65, 0
3, 17040, Note_on_c, 1, 59, 68
3, 17066, Note_on_c, 1, 59, 0
3, 17070, Note_on_c, 1, 60, 68
3, 17122, Note_on_c, 1, 60, 0
3, 17130, Note_on_c, 1, 58, 68
3, 17182, Note_on_c, 1, 58, 0
3, 17190, Note_on_c, 1, 57, 68
3, 17190, Note_on_c, 1, 60, 68
3, 17355, Note_on_c, 1, 60, 0
3, 17355, Note_on_c, 1, 57, 0
3, 17368, Control_c, 1, 7, 94
3, 18420, Note_on_c, 1, 69, 68
3, 18446, Note_on_c, 1, 69, 0
3, 18450, Note_on_c, 1, 67, 68
3, 18476, Note_on_c, 1, 67, 0
3, 18480, Note_on_c, 1, 66, 68
3, 18506, Note_on_c, 1, 66, 0
3, 18510, Note_on_c, 1, 67, 68
3, 18536, Note_on_c, 1, 67, 0
3, 18540, Note_on_c, 1, 70, 68
3, 18566, Note_on_c, 1, 70, 0
3, 18570, Note_on_c, 1, 62, 68
3, 18596, Note_on_c, 1, 62, 0
3, 18600, Note_on_c, 1, 65, 68
3, 18626, Note_on_c, 1, 65, 0
3, 18630, Note_on_c, 1, 63, 68
3, 18855, Note_on_c, 1, 63, 0
3, 18900, Note_on_c, 1, 62, 68
3, 18926, Note_on_c, 1, 62, 0
3, 18930, Note_on_c, 1, 60, 68
3, 18956, Note_on_c, 1, 60, 0
3, 18960, Note_on_c, 1, 58, 68
3, 18986, Note_on_c, 1, 58, 0
3, 18990, Note_on_c, 1, 60, 68
3, 19016, Note_on_c, 1, 60, 0
3, 19020, Note_on_c, 1, 63, 68
3, 19046, Note_on_c, 1, 63, 0
3, 19050, Note_on_c, 1, 57, 68
3, 19076, Note_on_c, 1, 57, 0
3, 19080, Note_on_c, 1, 60, 68
3, 19106, Note_on_c, 1, 60, 0
3, 19110, Note_on_c, 1, 54, 68
3, 19136, Note_on_c, 1, 54, 0
3, 19140, Note_on_c, 1, 57, 68
3, 19166, Note_on_c, 1, 57, 0
3, 19170, Note_on_c, 1, 62, 68
3, 19196, Note_on_c, 1, 62, 0
3, 19200, Note_on_c, 1, 66, 68
3, 19226, Note_on_c, 1, 66, 0
3, 19230, Note_on_c, 1, 67, 68
3, 19256, Note_on_c, 1, 67, 0
3, 19260, Note_on_c, 1, 62, 68
3, 19286, Note_on_c, 1, 62, 0
3, 19290, Note_on_c, 1, 69, 68
3, 19316, Note_on_c, 1, 69, 0
3, 19320, Note_on_c, 1, 62, 68
3, 19346, Note_on_c, 1, 62, 0
3, 19350, Note_on_c, 1, 70, 68
3, 19455, Note_on_c, 1, 70, 0
3, 19890, Note_on_c, 1, 60, 68
3, 19942, Note_on_c, 1, 60, 0
3, 19950, Note_on_c, 1, 63, 68
3, 20002, Note_on_c, 1, 63, 0
3, 20010, Note_on_c, 1, 67, 68
3, 20062, Note_on_c, 1, 67, 0
3, 20070, Note_on_c, 1, 65, 68
3, 20122, Note_on_c, 1, 65, 0
3, 20370, Note_on_c, 1, 58, 68
3, 20422, Note_on_c, 1, 58, 0
3, 20430, Note_on_c, 1, 62, 68
3, 20482, Note_on_c, 1, 62, 0
3, 20490, Note_on_c, 1, 65, 68
3, 20542, Note_on_c, 1, 65, 0
3, 20550, Note_on_c, 1, 63, 68
3, 20602, Note_on_c, 1, 63, 0
3, 20850, Note_on_c, 1, 56, 68
3, 20902, Note_on_c, 1, 56, 0
3, 20910, Note_on_c, 1, 60, 68
3, 20962, Note_on_c, 1, 60, 0
3, 20970, Note_on_c, 1, 63, 68
3, 21022, Note_on_c, 1, 63, 0
3, 21030, Note_on_c, 1, 62, 68
3, 21082, Note_on_c, 1, 62, 0
3, 21300, Note_on_c, 1, 55, 68
3, 21326, Note_on_c, 1, 55, 0
3, 21330, Note_on_c, 1, 53, 68
3, 21356, Note_on_c, 1, 53, 0
3, 21360, Note_on_c, 1, 51, 68
3, 21386, Note_on_c, 1, 51, 0
3, 21390, Note_on_c, 1, 50, 68
3, 21416, Note_on_c, 1, 50, 0
3, 21420, Note_on_c, 1, 48, 68
3, 21446, Note_on_c, 1, 48, 0
3, 21450, Note_on_c, 1, 47, 68
3, 21476, Note_on_c, 1, 47, 0
3, 21480, Note_on_c, 1, 45, 68
3, 21506, Note_on_c, 1, 45, 0
3, 21510, Note_on_c, 1, 43, 68
3, 21536, Note_on_c, 1, 43, 0
3, 21540, Note_on_c, 1, 51, 68
3, 21566, Note_on_c, 1, 51, 0
3, 21570, Note_on_c, 1, 50, 68
3, 21596, Note_on_c, 1, 50, 0
3, 21600, Note_on_c, 1, 48, 68
3, 21626, Note_on_c, 1, 48, 0
3, 21630, Note_on_c, 1, 47, 68
3, 21656, Note_on_c, 1, 47, 0
3, 21660, Note_on_c, 1, 50, 68
3, 21686, Note_on_c, 1, 50, 0
3, 21690, Note_on_c, 1, 43, 68
3, 21716, Note_on_c, 1, 43, 0
3, 21720, Note_on_c, 1, 47, 68
3, 21746, Note_on_c, 1, 47, 0
3, 21750, Note_on_c, 1, 31, 68
3, 21802, Note_on_c, 1, 31, 0
3, 22260, Note_on_c, 1, 63, 68
3, 22286, Note_on_c, 1, 63, 0
3, 22290, Note_on_c, 1, 62, 68
3, 22316, Note_on_c, 1, 62, 0
3, 22320, Note_on_c, 1, 60, 68
3, 22346, Note_on_c, 1, 60, 0
3, 22350, Note_on_c, 1, 59, 68
3, 22376, Note_on_c, 1, 59, 0
3, 22380, Note_on_c, 1, 57, 68
3, 22406, Note_on_c, 1, 57, 0
3, 22410, Note_on_c, 1, 55, 68
3, 22436, Note_on_c, 1, 55, 0
3, 22440, Note_on_c, 1, 53, 68
3, 22466, Note_on_c, 1, 53, 0
3, 22470, Note_on_c, 1, 51, 68
3, 22496, Note_on_c, 1, 51, 0
3, 22500, Note_on_c, 1, 55, 68
3, 22526, Note_on_c, 1, 55, 0
3, 22530, Note_on_c, 1, 60, 68
3, 22556, Note_on_c, 1, 60, 0
3, 22560, Note_on_c, 1, 62, 68
3, 22586, Note_on_c, 1, 62, 0
3, 22590, Note_on_c, 1, 54, 68
3, 22616, Note_on_c, 1, 54, 0
3, 22620, Note_on_c, 1, 63, 68
3, 22646, Note_on_c, 1, 63, 0
3, 22650, Note_on_c, 1, 62, 68
3, 22676, Note_on_c, 1, 62, 0
3, 22680, Note_on_c, 1, 60, 68
3, 22706, Note_on_c, 1, 60, 0
3, 22710, Note_on_c, 1, 55, 68
3, 22736, Note_on_c, 1, 55, 0
3, 22740, Note_on_c, 1, 62, 68
3, 22766, Note_on_c, 1, 62, 0
3, 22770, Note_on_c, 1, 63, 68
3, 22796, Note_on_c, 1, 63, 0
3, 22800, Note_on_c, 1, 65, 68
3, 22826, Note_on_c, 1, 65, 0
3, 22830, Note_on_c, 1, 57, 68
3, 22856, Note_on_c, 1, 57, 0
3, 22860, Note_on_c, 1, 67, 68
3, 22886, Note_on_c, 1, 67, 0
3, 22890, Note_on_c, 1, 65, 68
3, 22916, Note_on_c, 1, 65, 0
3, 22920, Note_on_c, 1, 63, 68
3, 22946, Note_on_c, 1, 63, 0
3, 22950, Note_on_c, 1, 59, 68
3, 22976, Note_on_c, 1, 59, 0
3, 22980, Note_on_c, 1, 65, 68
3, 23006, Note_on_c, 1, 65, 0
3, 23010, Note_on_c, 1, 63, 68
3, 23036, Note_on_c, 1, 63, 0
3, 23040, Note_on_c, 1, 62, 68
3, 23066, Note_on_c, 1, 62, 0
3, 23070, Note_on_c, 1, 60, 68
3, 23096, Note_on_c, 1, 60, 0
3, 23100, Note_on_c, 1, 63, 68
3, 23126, Note_on_c, 1, 63, 0
3, 23130, Note_on_c, 1, 62, 68
3, 23156, Note_on_c, 1, 62, 0
3, 23160, Note_on_c, 1, 60, 68
3, 23186, Note_on_c, 1, 60, 0
3, 23190, Note_on_c, 1, 62, 68
3, 23242, Note_on_c, 1, 62, 0
3, 23250, Note_on_c, 1, 65, 68
3, 23302, Note_on_c, 1, 65, 0
3, 23310, Note_on_c, 1, 55, 68
3, 23362, Note_on_c, 1, 55, 0
3, 23370, Note_on_c, 1, 53, 68
3, 23422, Note_on_c, 1, 53, 0
3, 23430, Note_on_c, 1, 51, 68
3, 23482, Note_on_c, 1, 51, 0
3, 23490, Note_on_c, 1, 53, 68
3, 23542, Note_on_c, 1, 53, 0
3, 23550, Note_on_c, 1, 55, 68
3, 23602, Note_on_c, 1, 55, 0
3, 26610, Note_on_c, 1, 63, 68
3, 26662, Note_on_c, 1, 63, 0
3, 26670, Note_on_c, 1, 62, 68
3, 26722, Note_on_c, 1, 62, 0
3, 26730, Note_on_c, 1, 60, 68
3, 26782, Note_on_c, 1, 60, 0
3, 26790, Note_on_c, 1, 58, 68
3, 26790, Note_on_c, 1, 62, 68
3, 26955, Note_on_c, 1, 62, 0
3, 26955, Note_on_c, 1, 58, 0
3, 26962, Control_c, 1, 7, 104
3, 28020, Note_on_c, 1, 69, 68
3, 28046, Note_on_c, 1, 69, 0
3, 28050, Note_on_c, 1, 67, 68
3, 28076, Note_on_c, 1, 67, 0
3, 28080, Note_on_c, 1, 66, 68
3, 28106, Note_on_c, 1, 66, 0
3, 28110, Note_on_c, 1, 67, 68
3, 28136, Note_on_c, 1, 67, 0
3, 28140, Note_on_c, 1, 70, 68
3, 28166, Note_on_c, 1, 70, 0
3, 28170, Note_on_c, 1, 62, 68
3, 28196, Note_on_c, 1, 62, 0
3, 28200, Note_on_c, 1, 65, 68
3, 28226, Note_on_c, 1, 65, 0
3, 28230, Note_on_c, 1, 63, 68
3, 28455, Note_on_c, 1, 63, 0
3, 28500, Note_on_c, 1, 62, 68
3, 28526, Note_on_c, 1, 62, 0
3, 28530, Note_on_c, 1, 60, 68
3, 28556, Note_on_c, 1, 60, 0
3, 28560, Note_on_c, 1, 58, 68
3, 28586, Note_on_c, 1, 58, 0
3, 28590, Note_on_c, 1, 60, 68
3, 28616, Note_on_c, 1, 60, 0
3, 28620, Note_on_c, 1, 63, 68
3, 28646, Note_on_c, 1, 63, 0
3, 28650, Note_on_c, 1, 57, 68
3, 28676, Note_on_c, 1, 57, 0
3, 28680, Note_on_c, 1, 60, 68
3, 28706, Note_on_c, 1, 60, 0
3, 28710, Note_on_c, 1, 54, 68
3, 28736, Note_on_c, 1, 54, 0
3, 28740, Note_on_c, 1, 57, 68
3, 28766, Note_on_c, 1, 57, 0
3, 28770, Note_on_c, 1, 62, 68
3, 28796, Note_on_c, 1, 62, 0
3, 28800, Note_on_c, 1, 66, 68
3, 28826, Note_on_c, 1, 66, 0
3, 28830, Note_on_c, 1, 67, 68
3, 28856, Note_on_c, 1, 67, 0
3, 28860, Note_on_c, 1, 62, 68
3, 28886, Note_on_c, 1, 62, 0
3, 28890, Note_on_c, 1, 69, 68
3, 28916, Note_on_c, 1, 69, 0
3, 28920, Note_on_c, 1, 62, 68
3, 28946, Note_on_c, 1, 62, 0
3, 28950, Note_on_c, 1, 70, 68
3, 29055, Note_on_c, 1, 70, 0
3, 29490, Note_on_c, 1, 60, 68
3, 29542, Note_on_c, 1, 60, 0
3, 29550, Note_on_c, 1, 63, 68
3, 29602, Note_on_c, 1, 63, 0
3, 29610, Note_on_c, 1, 67, 68
3, 29662, Note_on_c, 1, 67, 0
3, 29670, Note_on_c, 1, 65, 68
3, 29722, Note_on_c, 1, 65, 0
3, 29970, Note_on_c, 1, 58, 68
3, 30022, Note_on_c, 1, 58, 0
3, 30030, Note_on_c, 1, 62, 68
3, 30082, Note_on_c, 1, 62, 0
3, 30090, Note_on_c, 1, 65, 68
3, 30142, Note_on_c, 1, 65, 0
3, 30150, Note_on_c, 1, 63, 68
3, 30202, Note_on_c, 1, 63, 0
3, 30450, Note_on_c, 1, 56, 68
3, 30502, Note_on_c, 1, 56, 0
3, 30510, Note_on_c, 1, 60, 68
3, 30562, Note_on_c, 1, 60, 0
3, 30570, Note_on_c, 1, 63, 68
3, 30622, Note_on_c, 1, 63, 0
3, 30630, Note_on_c, 1, 62, 68
3, 30682, Note_on_c, 1, 62, 0
3, 30900, Note_on_c, 1, 55, 68
3, 30926, Note_on_c, 1, 55, 0
3, 30930, Note_on_c, 1, 53, 68
3, 30956, Note_on_c, 1, 53, 0
3, 30960, Note_on_c, 1, 51, 68
3, 30986, Note_on_c, 1, 51, 0
3, 30990, Note_on_c, 1, 50, 68
3, 31016, Note_on_c, 1, 50, 0
3, 31020, Note_on_c, 1, 48, 68
3, 31046, Note_on_c, 1, 48, 0
3, 31050, Note_on_c, 1, 47, 68
3, 31076, Note_on_c, 1, 47, 0
3, 31080, Note_on_c, 1, 45, 68
3, 31106, Note_on_c, 1, 45, 0
3, 31110, Note_on_c, 1, 43, 68
3, 31136, Note_on_c, 1, 43, 0
3, 31140, Note_on_c, 1, 51, 68
3, 31166, Note_on_c, 1, 51, 0
3, 31170, Note_on_c, 1, 50, 68
3, 31196, Note_on_c, 1, 50, 0
3, 31200, Note_on_c, 1, 48, 68
3, 31226, Note_on_c, 1, 48, 0
3, 31230, Note_on_c, 1, 47, 68
3, 31256, Note_on_c, 1, 47, 0
3, 31260, Note_on_c, 1, 50, 68
3, 31286, Note_on_c, 1, 50, 0
3, 31290, Note_on_c, 1, 43, 68
3, 31316, Note_on_c, 1, 43, 0
3, 31320, Note_on_c, 1, 47, 68
3, 31346, Note_on_c, 1, 47, 0
3, 31350, Note_on_c, 1, 31, 68
3, 31402, Note_on_c, 1, 31, 0
3, 31860, Note_on_c, 1, 63, 68
3, 31886, Note_on_c, 1, 63, 0
3, 31890, Note_on_c, 1, 62, 68
3, 31916, Note_on_c, 1, 62, 0
3, 31920, Note_on_c, 1, 60, 68
3, 31946, Note_on_c, 1, 60, 0
3, 31950, Note_on_c, 1, 59, 68
3, 31976, Note_on_c, 1, 59, 0
3, 31980, Note_on_c, 1, 57, 68
3, 32006, Note_on_c, 1, 57, 0
3, 32010, Note_on_c, 1, 55, 68
3, 32036, Note_on_c, 1, 55, 0
3, 32040, Note_on_c, 1, 53, 68
3, 32066, Note_on_c, 1, 53, 0
3, 32070, Note_on_c, 1, 51, 68
3, 32096, Note_on_c, 1, 51, 0
3, 32100, Note_on_c, 1, 55, 68
3, 32126, Note_on_c, 1, 55, 0
3, 32130, Note_on_c, 1, 60, 68
3, 32156, Note_on_c, 1, 60, 0
3, 32160, Note_on_c, 1, 62, 68
3, 32186, Note_on_c, 1, 62, 0
3, 32190, Note_on_c, 1, 54, 68
3, 32216, Note_on_c, 1, 54, 0
3, 32220, Note_on_c, 1, 63, 68
3, 32246, Note_on_c, 1, 63, 0
3, 32250, Note_on_c, 1, 62, 68
3, 32276, Note_on_c, 1, 62, 0
3, 32280, Note_on_c, 1, 60, 68
3, 32306, Note_on_c, 1, 60, 0
3, 32310, Note_on_c, 1, 55, 68
3, 32336, Note_on_c, 1, 55, 0
3, 32340, Note_on_c, 1, 62, 68
3, 32366, Note_on_c, 1, 62, 0
3, 32370, Note_on_c, 1, 63, 68
3, 32396, Note_on_c, 1, 63, 0
3, 32400, Note_on_c, 1, 65, 68
3, 32426, Note_on_c, 1, 65, 0
3, 32430, Note_on_c, 1, 57, 68
3, 32456, Note_on_c, 1, 57, 0
3, 32460, Note_on_c, 1, 67, 68
3, 32486, Note_on_c, 1, 67, 0
3, 32490, Note_on_c, 1, 65, 68
3, 32516, Note_on_c, 1, 65, 0
3, 32520, Note_on_c, 1, 63, 68
3, 32546, Note_on_c, 1, 63, 0
3, 32550, Note_on_c, 1, 59, 68
3, 32576, Note_on_c, 1, 59, 0
3, 32580, Note_on_c, 1, 65, 68
3, 32606, Note_on_c, 1, 65, 0
3, 32610, Note_on_c, 1, 63, 68
3, 32636, Note_on_c, 1, 63, 0
3, 32640, Note_on_c, 1, 62, 68
3, 32666, Note_on_c, 1, 62, 0
3, 32670, Note_on_c, 1, 60, 68
3, 32696, Note_on_c, 1, 60, 0
3, 32700, Note_on_c, 1, 63, 68
3, 32726, Note_on_c, 1, 63, 0
3, 32730, Note_on_c, 1, 62, 68
3, 32756, Note_on_c, 1, 62, 0
3, 32760, Note_on_c, 1, 60, 68
3, 32786, Note_on_c, 1, 60, 0
3, 32790, Note_on_c, 1, 62, 68
3, 32842, Note_on_c, 1, 62, 0
3, 32850, Note_on_c, 1, 65, 68
3, 32902, Note_on_c, 1, 65, 0
3, 32910, Note_on_c, 1, 55, 68
3, 32962, Note_on_c, 1, 55, 0
3, 32970, Note_on_c, 1, 53, 68
3, 33022, Note_on_c, 1, 53, 0
3, 33030, Note_on_c, 1, 51, 68
3, 33082, Note_on_c, 1, 51, 0
3, 33090, Note_on_c, 1, 53, 68
3, 33142, Note_on_c, 1, 53, 0
3, 33150, Note_on_c, 1, 55, 68
3, 33202, Note_on_c, 1, 55, 0
3, 36210, Note_on_c, 1, 63, 68
3, 36262, Note_on_c, 1, 63, 0
3, 36270, Note_on_c, 1, 62, 68
3, 36322, Note_on_c, 1, 62, 0
3, 36330, Note_on_c, 1, 60, 68
3, 36382, Note_on_c, 1, 60, 0
3, 36390, Note_on_c, 1, 58, 68
3, 36390, Note_on_c, 1, 62, 68
3, 36555, Note_on_c, 1, 62, 0
3, 36555, Note_on_c, 1, 58, 0
3, 36555, End_track
4, 0, Start_track
4, 0, MIDI_port, 0
4, 0, Program_c, 2, 81
4, 0, Control_c, 2, 7, 70
4, 0, Control_c, 2, 10, 96
4, 40, Control_c, 2, 7, 79
4, 150, Note_on_c, 2, 46, 80
4, 255, Note_on_c, 2, 46, 0
4, 630, Note_on_c, 2, 46, 80
4, 735, Note_on_c, 2, 46, 0
4, 1110, Note_on_c, 2, 46, 80
4, 1215, Note_on_c, 2, 46, 0
4, 1590, Note_on_c, 2, 46, 80
4, 1695, Note_on_c, 2, 46, 0
4, 2070, Note_on_c, 2, 46, 80
4, 2175, Note_on_c, 2, 46, 0
4, 2310, Note_on_c, 2, 45, 80
4, 2415, Note_on_c, 2, 45, 0
4, 2550, Note_on_c, 2, 43, 80
4, 2655, Note_on_c, 2, 43, 0
4, 3030, Note_on_c, 2, 43, 80
4, 3082, Note_on_c, 2, 43, 0
4, 3090, Note_on_c, 2, 55, 80
4, 3195, Note_on_c, 2, 55, 0
4, 3210, Note_on_c, 2, 53, 80
4, 3262, Note_on_c, 2, 53, 0
4, 3270, Note_on_c, 2, 52, 80
4, 3322, Note_on_c, 2, 52, 0
4, 3570, Note_on_c, 2, 48, 80
4, 3675, Note_on_c, 2, 48, 0
4, 3690, Note_on_c, 2, 46, 80
4, 3742, Note_on_c, 2, 46, 0
4, 3750, Note_on_c, 2, 45, 80
4, 3802, Note_on_c, 2, 45, 0
4, 4290, Note_on_c, 2, 58, 80
4, 4342, Note_on_c, 2, 58, 0
4, 4350, Note_on_c, 2, 62, 80
4, 4402, Note_on_c, 2, 62, 0
4, 4410, Note_on_c, 2, 65, 80
4, 4462, Note_on_c, 2, 65, 0
4, 4470, Note_on_c, 2, 52, 80
4, 4522, Note_on_c, 2, 52, 0
4, 4770, Note_on_c, 2, 57, 80
4, 4822, Note_on_c, 2, 57, 0
4, 4830, Note_on_c, 2, 60, 80
4, 4882, Note_on_c, 2, 60, 0
4, 4890, Note_on_c, 2, 64, 80
4, 4942, Note_on_c, 2, 64, 0
4, 4950, Note_on_c, 2, 50, 80
4, 5002, Note_on_c, 2, 50, 0
4, 5250, Note_on_c, 2, 55, 80
4, 5302, Note_on_c, 2, 55, 0
4, 5310, Note_on_c, 2, 58, 80
4, 5362, Note_on_c, 2, 58, 0
4, 5370, Note_on_c, 2, 62, 80
4, 5422, Note_on_c, 2, 62, 0
4, 5430, Note_on_c, 2, 48, 80
4, 5456, Note_on_c, 2, 48, 0
4, 5460, Note_on_c, 2, 60, 80
4, 5486, Note_on_c, 2, 60, 0
4, 5490, Note_on_c, 2, 58, 80
4, 5516, Note_on_c, 2, 58, 0
4, 5520, Note_on_c, 2, 57, 80
4, 5546, Note_on_c, 2, 57, 0
4, 5550, Note_on_c, 2, 55, 80
4, 5576, Note_on_c, 2, 55, 0
4, 5580, Note_on_c, 2, 53, 80
4, 5606, Note_on_c, 2, 53, 0
4, 5610, Note_on_c, 2, 52, 80
4, 5636, Note_on_c, 2, 52, 0
4, 5640, Note_on_c, 2, 50, 80
4, 5666, Note_on_c, 2, 50, 0
4, 5670, Note_on_c, 2, 48, 80
4, 5696, Note_on_c, 2, 48, 0
4, 5700, Note_on_c, 2, 57, 80
4, 5726, Note_on_c, 2, 57, 0
4, 5730, Note_on_c, 2, 55, 80
4, 5756, Note_on_c, 2, 55, 0
4, 5760, Note_on_c, 2, 53, 80
4, 5786, Note_on_c, 2, 53, 0
4, 5790, Note_on_c, 2, 52, 80
4, 5816, Note_on_c, 2, 52, 0
4, 5820, Note_on_c, 2, 55, 80
4, 5846, Note_on_c, 2, 55, 0
4, 5850, Note_on_c, 2, 48, 80
4, 5876, Note_on_c, 2, 48, 0
4, 5880, Note_on_c, 2, 52, 80
4, 5906, Note_on_c, 2, 52, 0
4, 5910, Note_on_c, 2, 36, 80
4, 5962, Note_on_c, 2, 36, 0
4, 7350, Note_on_c, 2, 64, 80
4, 7402, Note_on_c, 2, 64, 0
4, 7410, Note_on_c, 2, 67, 80
4, 7462, Note_on_c, 2, 67, 0
4, 7470, Note_on_c, 2, 60, 80
4, 7522, Note_on_c, 2, 60, 0
4, 7530, Note_on_c, 2, 58, 80
4, 7582, Note_on_c, 2, 58, 0
4, 7590, Note_on_c, 2, 57, 80
4, 7642, Note_on_c, 2, 57, 0
4, 7650, Note_on_c, 2, 58, 80
4, 7702, Note_on_c, 2, 58, 0
4, 7710, Note_on_c, 2, 60, 80
4, 7762, Note_on_c, 2, 60, 0
4, 7770, Note_on_c, 2, 48, 80
4, 7822, Note_on_c, 2, 48, 0
4, 7830, Note_on_c, 2, 53, 80
4, 7908, Note_on_c, 2, 53, 0
4, 7920, Note_on_c, 2, 57, 80
4, 7946, Note_on_c, 2, 57, 0
4, 7950, Note_on_c, 2, 58, 80
4, 8028, Note_on_c, 2, 58, 0
4, 8040, Note_on_c, 2, 57, 80
4, 8066, Note_on_c, 2, 57, 0
4, 8070, Note_on_c, 2, 55, 80
4, 8148, Note_on_c, 2, 55, 0
4, 8160, Note_on_c, 2, 53, 80
4, 8186, Note_on_c, 2, 53, 0
4, 8190, Note_on_c, 2, 52, 80
4, 8268, Note_on_c, 2, 52, 0
4, 8280, Note_on_c, 2, 52, 80
4, 8306, Note_on_c, 2, 52, 0
4, 8310, Note_on_c, 2, 53, 80
4, 8388, Note_on_c, 2, 53, 0
4, 8400, Note_on_c, 2, 50, 80
4, 8426, Note_on_c, 2, 50, 0
4, 8430, Note_on_c, 2, 48, 80
4, 8482, Note_on_c, 2, 48, 0
4, 8490, Note_on_c, 2, 36, 80
4, 8542, Note_on_c, 2, 36, 0
4, 8550, Note_on_c, 2, 41, 80
4, 8715, Note_on_c, 2, 41, 0
4, 8722, Control_c, 2, 7, 69
4, 8790, Note_on_c, 2, 46, 80
4, 8895, Note_on_c, 2, 46, 0
4, 9270, Note_on_c, 2, 46, 80
4, 9375, Note_on_c, 2, 46, 0
4, 9750, Note_on_c, 2, 46, 80
4, 9855, Note_on_c, 2, 46, 0
4, 10230, Note_on_c, 2, 46, 80
4, 10335, Note_on_c, 2, 46, 0
4, 10710, Note_on_c, 2, 46, 80
4, 10815, Note_on_c, 2, 46, 0
4, 10950, Note_on_c, 2, 45, 80
4, 11055, Note_on_c, 2, 45, 0
4, 11190, Note_on_c, 2, 43, 80
4, 11295, Note_on_c, 2, 43, 0
4, 11670, Note_on_c, 2, 43, 80
4, 11722, Note_on_c, 2, 43, 0
4, 11730, Note_on_c, 2, 55, 80
4, 11835, Note_on_c, 2, 55, 0
4, 11850, Note_on_c, 2, 53, 80
4, 11902, Note_on_c, 2, 53, 0
4, 11910, Note_on_c, 2, 52, 80
4, 11962, Note_on_c, 2, 52, 0
4, 12210, Note_on_c, 2, 48, 80
4, 12315, Note_on_c, 2, 48, 0
4, 12330, Note_on_c, 2, 46, 80
4, 12382, Note_on_c, 2, 46, 0
4, 12390, Note_on_c, 2, 45, 80
4, 12442, Note_on_c, 2, 45, 0
4, 12930, Note_on_c, 2, 58, 80
4, 12982, Note_on_c, 2, 58, 0
4, 12990, Note_on_c, 2, 62, 80
4, 13042, Note_on_c, 2, 62, 0
4, 13050, Note_on_c, 2, 65, 80
4, 13102, Note_on_c, 2, 65, 0
4, 13110, Note_on_c, 2, 52, 80
4, 13162, Note_on_c, 2, 52, 0
4, 13410, Note_on_c, 2, 57, 80
4, 13462, Note_on_c, 2, 57, 0
4, 13470, Note_on_c, 2, 60, 80
4, 13522, Note_on_c, 2, 60, 0
4, 13530, Note_on_c, 2, 64, 80
4, 13582, Note_on_c, 2, 64, 0
4, 13590, Note_on_c, 2, 50, 80
4, 13642, Note_on_c, 2, 50, 0
4, 13890, Note_on_c, 2, 55, 80
4, 13942, Note_on_c, 2, 55, 0
4, 13950, Note_on_c, 2, 58, 80
4, 14002, Note_on_c, 2, 58, 0
4, 14010, Note_on_c, 2, 62, 80
4, 14062, Note_on_c, 2, 62, 0
4, 14070, Note_on_c, 2, 48, 80
4, 14096, Note_on_c, 2, 48, 0
4, 14100, Note_on_c, 2, 60, 80
4, 14126, Note_on_c, 2, 60, 0
4, 14130, Note_on_c, 2, 58, 80
4, 14156, Note_on_c, 2, 58, 0
4, 14160, Note_on_c, 2, 57, 80
4, 14186, Note_on_c, 2, 57, 0
4, 14190, Note_on_c, 2, 55, 80
4, 14216, Note_on_c, 2, 55, 0
4, 14220, Note_on_c, 2, 53, 80
4, 14246, Note_on_c, 2, 53, 0
4, 14250, Note_on_c, 2, 52, 80
4, 14276, Note_on_c, 2, 52, 0
4, 14280, Note_on_c, 2, 50, 80
4, 14306, Note_on_c, 2, 50, 0
4, 14310, Note_on_c, 2, 48, 80
4, 14336, Note_on_c, 2, 48, 0
4, 14340, Note_on_c, 2, 57, 80
4, 14366, Note_on_c, 2, 57, 0
4, 14370, Note_on_c, 2, 55, 80
4, 14396, Note_on_c, 2, 55, 0
4, 14400, Note_on_c, 2, 53, 80
4, 14426, Note_on_c, 2, 53, 0
4, 14430, Note_on_c, 2, 52, 80
4, 14456, Note_on_c, 2, 52, 0
4, 14460, Note_on_c, 2, 55, 80
4, 14486, Note_on_c, 2, 55, 0
4, 14490, Note_on_c, 2, 48, 80
4, 14516, Note_on_c, 2, 48, 0
4, 14520, Note_on_c, 2, 52, 80
4, 14546, Note_on_c, 2, 52, 0
4, 14550, Note_on_c, 2, 36, 80
4, 14602, Note_on_c, 2, 36, 0
4, 15990, Note_on_c, 2, 64, 80
4, 16042, Note_on_c, 2, 64, 0
4, 16050, Note_on_c, 2, 67, 80
4, 16102, Note_on_c, 2, 67, 0
4, 16110, Note_on_c, 2, 60, 80
4, 16162, Note_on_c, 2, 60, 0
4, 16170, Note_on_c, 2, 58, 80
4, 16222, Note_on_c, 2, 58, 0
4, 16230, Note_on_c, 2, 57, 80
4, 16282, Note_on_c, 2, 57, 0
4, 16290, Note_on_c, 2, 58, 80
4, 16342, Note_on_c, 2, 58, 0
4, 16350, Note_on_c, 2, 60, 80
4, 16402, Note_on_c, 2, 60, 0
4, 16410, Note_on_c, 2, 48, 80
4, 16462, Note_on_c, 2, 48, 0
4, 16470, Note_on_c, 2, 53, 80
4, 16548, Note_on_c, 2, 53, 0
4, 16560, Note_on_c, 2, 57, 80
4, 16586, Note_on_c, 2, 57, 0
4, 16590, Note_on_c, 2, 58, 80
4, 16668, Note_on_c, 2, 58, 0
4, 16680, Note_on_c, 2, 57, 80
4, 16706, Note_on_c, 2, 57, 0
4, 16710, Note_on_c, 2, 55, 80
4, 16788, Note_on_c, 2, 55, 0
4, 16800, Note_on_c, 2, 53, 80
4, 16826, Note_on_c, 2, 53, 0
4, 16830, Note_on_c, 2, 52, 80
4, 16908, Note_on_c, 2, 52, 0
4, 16920, Note_on_c, 2, 52, 80
4, 16946, Note_on_c, 2, 52, 0
4, 16950, Note_on_c, 2, 53, 80
4, 17028, Note_on_c, 2, 53, 0
4, 17040, Note_on_c, 2, 50, 80
4, 17066, Note_on_c, 2, 50, 0
4, 17070, Note_on_c, 2, 48, 80
4, 17122, Note_on_c, 2, 48, 0
4, 17130, Note_on_c, 2, 36, 80
4, 17182, Note_on_c, 2, 36, 0
4, 17190, Note_on_c, 2, 41, 80
4, 17355, Note_on_c, 2, 41, 0
4, 17358, Control_c, 2, 7, 79
4, 17430, Note_on_c, 2, 41, 80
4, 17535, Note_on_c, 2, 41, 0
4, 17910, Note_on_c, 2, 42, 80
4, 18015, Note_on_c, 2, 42, 0
4, 18390, Note_on_c, 2, 43, 80
4, 18442, Note_on_c, 2, 43, 0
4, 18450, Note_on_c, 2, 45, 80
4, 18502, Note_on_c, 2, 45, 0
4, 18510, Note_on_c, 2, 46, 80
4, 18562, Note_on_c, 2, 46, 0
4, 18570, Note_on_c, 2, 43, 80
4, 18622, Note_on_c, 2, 43, 0
4, 18630, Note_on_c, 2, 48, 80
4, 18682, Note_on_c, 2, 48, 0
4, 18690, Note_on_c, 2, 46, 80
4, 18742, Note_on_c, 2, 46, 0
4, 18750, Note_on_c, 2, 48, 80
4, 18802, Note_on_c, 2, 48, 0
4, 18810, Note_on_c, 2, 45, 80
4, 18862, Note_on_c, 2, 45, 0
4, 18870, Note_on_c, 2, 50, 80
4, 18975, Note_on_c, 2, 50, 0
4, 19170, Note_on_c, 2, 48, 80
4, 19222, Note_on_c, 2, 48, 0
4, 19230, Note_on_c, 2, 46, 80
4, 19282, Note_on_c, 2, 46, 0
4, 19290, Note_on_c, 2, 45, 80
4, 19342, Note_on_c, 2, 45, 0
4, 19350, Note_on_c, 2, 43, 80
4, 19455, Note_on_c, 2, 43, 0
4, 19650, Note_on_c, 2, 53, 80
4, 19702, Note_on_c, 2, 53, 0
4, 19710, Note_on_c, 2, 51, 80
4, 19762, Note_on_c, 2, 51, 0
4, 19770, Note_on_c, 2, 50, 80
4, 19822, Note_on_c, 2, 50, 0
4, 19830, Note_on_c, 2, 48, 80
4, 19882, Note_on_c, 2, 48, 0
4, 20130, Note_on_c, 2, 53, 80
4, 20182, Note_on_c, 2, 53, 0
4, 20190, Note_on_c, 2, 56, 80
4, 20242, Note_on_c, 2, 56, 0
4, 20250, Note_on_c, 2, 60, 80
4, 20302, Note_on_c, 2, 60, 0
4, 20310, Note_on_c, 2, 46, 80
4, 20362, Note_on_c, 2, 46, 0
4, 20610, Note_on_c, 2, 51, 80
4, 20662, Note_on_c, 2, 51, 0
4, 20670, Note_on_c, 2, 55, 80
4, 20722, Note_on_c, 2, 55, 0
4, 20730, Note_on_c, 2, 58, 80
4, 20782, Note_on_c, 2, 58, 0
4, 20790, Note_on_c, 2, 44, 80
4, 20842, Note_on_c, 2, 44, 0
4, 21090, Note_on_c, 2, 50, 80
4, 21142, Note_on_c, 2, 50, 0
4, 21150, Note_on_c, 2, 53, 80
4, 21202, Note_on_c, 2, 53, 0
4, 21210, Note_on_c, 2, 56, 80
4, 21262, Note_on_c, 2, 56, 0
4, 21270, Note_on_c, 2, 43, 80
4, 21375, Note_on_c, 2, 43, 0
4, 21780, Note_on_c, 2, 60, 80
4, 21806, Note_on_c, 2, 60, 0
4, 21810, Note_on_c, 2, 59, 80
4, 21836, Note_on_c, 2, 59, 0
4, 21840, Note_on_c, 2, 57, 80
4, 21866, Note_on_c, 2, 57, 0
4, 21870, Note_on_c, 2, 55, 80
4, 21896, Note_on_c, 2, 55, 0
4, 21900, Note_on_c, 2, 53, 80
4, 21926, Note_on_c, 2, 53, 0
4, 21930, Note_on_c, 2, 51, 80
4, 21956, Note_on_c, 2, 51, 0
4, 21960, Note_on_c, 2, 50, 80
4, 21986, Note_on_c, 2, 50, 0
4, 21990, Note_on_c, 2, 48, 80
4, 22016, Note_on_c, 2, 48, 0
4, 22020, Note_on_c, 2, 46, 80
4, 22046, Note_on_c, 2, 46, 0
4, 22050, Note_on_c, 2, 45, 80
4, 22076, Note_on_c, 2, 45, 0
4, 22080, Note_on_c, 2, 43, 80
4, 22106, Note_on_c, 2, 43, 0
4, 22110, Note_on_c, 2, 42, 80
4, 22136, Note_on_c, 2, 42, 0
4, 22140, Note_on_c, 2, 50, 80
4, 22166, Note_on_c, 2, 50, 0
4, 22170, Note_on_c, 2, 38, 80
4, 22196, Note_on_c, 2, 38, 0
4, 22200, Note_on_c, 2, 48, 80
4, 22226, Note_on_c, 2, 48, 0
4, 22230, Note_on_c, 2, 31, 80
4, 22282, Note_on_c, 2, 31, 0
4, 23610, Note_on_c, 2, 43, 80
4, 23662, Note_on_c, 2, 43, 0
4, 23670, Note_on_c, 2, 48, 80
4, 23722, Note_on_c, 2, 48, 0
4, 23730, Note_on_c, 2, 55, 80
4, 23782, Note_on_c, 2, 55, 0
4, 23790, Note_on_c, 2, 60, 80
4, 23842, Note_on_c, 2, 60, 0
4, 23850, Note_on_c, 2, 58, 80
4, 23902, Note_on_c, 2, 58, 0
4, 23910, Note_on_c, 2, 57, 80
4, 23962, Note_on_c, 2, 57, 0
4, 23970, Note_on_c, 2, 60, 80
4, 24022, Note_on_c, 2, 60, 0
4, 24030, Note_on_c, 2, 53, 80
4, 24082, Note_on_c, 2, 53, 0
4, 24090, Note_on_c, 2, 57, 80
4, 24142, Note_on_c, 2, 57, 0
4, 24150, Note_on_c, 2, 46, 80
4, 24202, Note_on_c, 2, 46, 0
4, 24210, Note_on_c, 2, 50, 80
4, 24262, Note_on_c, 2, 50, 0
4, 24270, Note_on_c, 2, 53, 80
4, 24322, Note_on_c, 2, 53, 0
4, 24330, Note_on_c, 2, 58, 80
4, 24382, Note_on_c, 2, 58, 0
4, 24390, Note_on_c, 2, 62, 80
4, 24442, Note_on_c, 2, 62, 0
4, 24450, Note_on_c, 2, 65, 80
4, 24502, Note_on_c, 2, 65, 0
4, 24510, Note_on_c, 2, 58, 80
4, 24562, Note_on_c, 2, 58, 0
4, 24570, Note_on_c, 2, 62, 80
4, 24622, Note_on_c, 2, 62, 0
4, 24630, Note_on_c, 2, 63, 80
4, 24682, Note_on_c, 2, 63, 0
4, 24690, Note_on_c, 2, 62, 80
4, 24742, Note_on_c, 2, 62, 0
4, 24750, Note_on_c, 2, 60, 80
4, 24802, Note_on_c, 2, 60, 0
4, 24810, Note_on_c, 2, 58, 80
4, 24862, Note_on_c, 2, 58, 0
4, 24870, Note_on_c, 2, 57, 80
4, 24922, Note_on_c, 2, 57, 0
4, 24930, Note_on_c, 2, 60, 80
4, 24982, Note_on_c, 2, 60, 0
4, 24990, Note_on_c, 2, 53, 80
4, 25042, Note_on_c, 2, 53, 0
4, 25050, Note_on_c, 2, 57, 80
4, 25102, Note_on_c, 2, 57, 0
4, 25110, Note_on_c, 2, 58, 80
4, 25162, Note_on_c, 2, 58, 0
4, 25170, Note_on_c, 2, 62, 80
4, 25222, Note_on_c, 2, 62, 0
4, 25230, Note_on_c, 2, 55, 80
4, 25282, Note_on_c, 2, 55, 0
4, 25290, Note_on_c, 2, 60, 80
4, 25342, Note_on_c, 2, 60, 0
4, 25350, Note_on_c, 2, 53, 80
4, 25402, Note_on_c, 2, 53, 0
4, 25410, Note_on_c, 2, 58, 80
4, 25462, Note_on_c, 2, 58, 0
4, 25470, Note_on_c, 2, 51, 80
4, 25522, Note_on_c, 2, 51, 0
4, 25530, Note_on_c, 2, 53, 80
4, 25582, Note_on_c, 2, 53, 0
4, 25590, Note_on_c, 2, 46, 80
4, 25642, Note_on_c, 2, 46, 0
4, 25650, Note_on_c, 2, 56, 80
4, 25702, Note_on_c, 2, 56, 0
4, 25710, Note_on_c, 2, 62, 80
4, 25762, Note_on_c, 2, 62, 0
4, 25770, Note_on_c, 2, 65, 80
4, 25822, Note_on_c, 2, 65, 0
4, 25830, Note_on_c, 2, 46, 80
4, 25882, Note_on_c, 2, 46, 0
4, 25890, Note_on_c, 2, 58, 80
4, 25942, Note_on_c, 2, 58, 0
4, 25950, Note_on_c, 2, 63, 80
4, 26002, Note_on_c, 2, 63, 0
4, 26010, Note_on_c, 2, 67, 80
4, 26062, Note_on_c, 2, 67, 0
4, 26070, Note_on_c, 2, 46, 80
4, 26122, Note_on_c, 2, 46, 0
4, 26130, Note_on_c, 2, 60, 80
4, 26182, Note_on_c, 2, 60, 0
4, 26190, Note_on_c, 2, 63, 80
4, 26242, Note_on_c, 2, 63, 0
4, 26250, Note_on_c, 2, 69, 80
4, 26302, Note_on_c, 2, 69, 0
4, 26310, Note_on_c, 2, 70, 80
4, 26336, Note_on_c, 2, 70, 0
4, 26340, Note_on_c, 2, 62, 80
4, 26366, Note_on_c, 2, 62, 0
4, 26370, Note_on_c, 2, 60, 80
4, 26396, Note_on_c, 2, 60, 0
4, 26400, Note_on_c, 2, 58, 80
4, 26426, Note_on_c, 2, 58, 0
4, 26430, Note_on_c, 2, 65, 80
4, 26482, Note_on_c, 2, 65, 0
4, 26490, Note_on_c, 2, 53, 80
4, 26542, Note_on_c, 2, 53, 0
4, 26550, Note_on_c, 2, 58, 80
4, 26775, Note_on_c, 2, 58, 0
4, 26790, Note_on_c, 2, 46, 80
4, 26955, Note_on_c, 2, 46, 0
4, 26966, Control_c, 2, 7, 89
4, 27030, Note_on_c, 2, 41, 80
4, 27135, Note_on_c, 2, 41, 0
4, 27510, Note_on_c, 2, 42, 80
4, 27615, Note_on_c, 2, 42, 0
4, 27990, Note_on_c, 2, 43, 80
4, 28042, Note_on_c, 2, 43, 0
4, 28050, Note_on_c, 2, 45, 80
4, 28102, Note_on_c, 2, 45, 0
4, 28110, Note_on_c, 2, 46, 80
4, 28162, Note_on_c, 2, 46, 0
4, 28170, Note_on_c, 2, 43, 80
4, 28222, Note_on_c, 2, 43, 0
4, 28230, Note_on_c, 2, 48, 80
4, 28282, Note_on_c, 2, 48, 0
4, 28290, Note_on_c, 2, 46, 80
4, 28342, Note_on_c, 2, 46, 0
4, 28350, Note_on_c, 2, 48, 80
4, 28402, Note_on_c, 2, 48, 0
4, 28410, Note_on_c, 2, 45, 80
4, 28462, Note_on_c, 2, 45, 0
4, 28470, Note_on_c, 2, 50, 80
4, 28575, Note_on_c, 2, 50, 0
4, 28770, Note_on_c, 2, 48, 80
4, 28822, Note_on_c, 2, 48, 0
4, 28830, Note_on_c, 2, 46, 80
4, 28882, Note_on_c, 2, 46, 0
4, 28890, Note_on_c, 2, 45, 80
4, 28942, Note_on_c, 2, 45, 0
4, 28950, Note_on_c, 2, 43, 80
4, 29055, Note_on_c, 2, 43, 0
4, 29250, Note_on_c, 2, 53, 80
4, 29302, Note_on_c, 2, 53, 0
4, 29310, Note_on_c, 2, 51, 80
4, 29362, Note_on_c, 2, 51, 0
4, 29370, Note_on_c, 2, 50, 80
4, 29422, Note_on_c, 2, 50, 0
4, 29430, Note_on_c, 2, 48, 80
4, 29482, Note_on_c, 2, 48, 0
4, 29730, Note_on_c, 2, 53, 80
4, 29782, Note_on_c, 2, 53, 0
4, 29790, Note_on_c, 2, 56, 80
4, 29842, Note_on_c, 2, 56, 0
4, 29850, Note_on_c, 2, 60, 80
4, 29902, Note_on_c, 2, 60, 0
4, 29910, Note_on_c, 2, 46, 80
4, 29962, Note_on_c, 2, 46, 0
4, 30210, Note_on_c, 2, 51, 80
4, 30262, Note_on_c, 2, 51, 0
4, 30270, Note_on_c, 2, 55, 80
4, 30322, Note_on_c, 2, 55, 0
4, 30330, Note_on_c, 2, 58, 80
4, 30382, Note_on_c, 2, 58, 0
4, 30390, Note_on_c, 2, 44, 80
4, 30442, Note_on_c, 2, 44, 0
4, 30690, Note_on_c, 2, 50, 80
4, 30742, Note_on_c, 2, 50, 0
4, 30750, Note_on_c, 2, 53, 80
4, 30802, Note_on_c, 2, 53, 0
4, 30810, Note_on_c, 2, 56, 80
4, 30862, Note_on_c, 2, 56, 0
4, 30870, Note_on_c, 2, 43, 80
4, 30975, Note_on_c, 2, 43, 0
4, 31380, Note_on_c, 2, 60, 80
4, 31406, Note_on_c, 2, 60, 0
4, 31410, Note_on_c, 2, 59, 80
4, 31436, Note_on_c, 2, 59, 0
4, 31440, Note_on_c, 2, 57, 80
4, 31466, Note_on_c, 2, 57, 0
4, 31470, Note_on_c, 2, 55, 80
4, 31496, Note_on_c, 2, 55, 0
4, 31500, Note_on_c, 2, 53, 80
4, 31526, Note_on_c, 2, 53, 0
4, 31530, Note_on_c, 2, 51, 80
4, 31556, Note_on_c, 2, 51, 0
4, 31560, Note_on_c, 2, 50, 80
4, 31586, Note_on_c, 2, 50, 0
4, 31590, Note_on_c, 2, 48, 80
4, 31616, Note_on_c, 2, 48, 0
4, 31620, Note_on_c, 2, 46, 80
4, 31646, Note_on_c, 2, 46, 0
4, 31650, Note_on_c, 2, 45, 80
4, 31676, Note_on_c, 2, 45, 0
4, 31680, Note_on_c, 2, 43, 80
4, 31706, Note_on_c, 2, 43, 0
4, 31710, Note_on_c, 2, 42, 80
4, 31736, Note_on_c, 2, 42, 0
4, 31740, Note_on_c, 2, 50, 80
4, 31766, Note_on_c, 2, 50, 0
4, 31770, Note_on_c, 2, 38, 80
4, 31796, Note_on_c, 2, 38, 0
4, 31800, Note_on_c, 2, 48, 80
4, 31826, Note_on_c, 2, 48, 0
4, 31830, Note_on_c, 2, 31, 80
4, 31882, Note_on_c, 2, 31, 0
4, 33210, Note_on_c, 2, 43, 80
4, 33262, Note_on_c, 2, 43, 0
4, 33270, Note_on_c, 2, 48, 80
4, 33322, Note_on_c, 2, 48, 0
4, 33330, Note_on_c, 2, 55, 80
4, 33382, Note_on_c, 2, 55, 0
4, 33390, Note_on_c, 2, 60, 80
4, 33442, Note_on_c, 2, 60, 0
4, 33450, Note_on_c, 2, 58, 80
4, 33502, Note_on_c, 2, 58, 0
4, 33510, Note_on_c, 2, 57, 80
4, 33562, Note_on_c, 2, 57, 0
4, 33570, Note_on_c, 2, 60, 80
4, 33622, Note_on_c, 2, 60, 0
4, 33630, Note_on_c, 2, 53, 80
4, 33682, Note_on_c, 2, 53, 0
4, 33690, Note_on_c, 2, 57, 80
4, 33742, Note_on_c, 2, 57, 0
4, 33750, Note_on_c, 2, 46, 80
4, 33802, Note_on_c, 2, 46, 0
4, 33810, Note_on_c, 2, 50, 80
4, 33862, Note_on_c, 2, 50, 0
4, 33870, Note_on_c, 2, 53, 80
4, 33922, Note_on_c, 2, 53, 0
4, 33930, Note_on_c, 2, 58, 80
4, 33982, Note_on_c, 2, 58, 0
4, 33990, Note_on_c, 2, 62, 80
4, 34042, Note_on_c, 2, 62, 0
4, 34050, Note_on_c, 2, 65, 80
4, 34102, Note_on_c, 2, 65, 0
4, 34110, Note_on_c, 2, 58, 80
4, 34162, Note_on_c, 2, 58, 0
4, 34170, Note_on_c, 2, 62, 80
4, 34222, Note_on_c, 2, 62, 0
4, 34230, Note_on_c, 2, 63, 80
4, 34282, Note_on_c, 2, 63, 0
4, 34290, Note_on_c, 2, 62, 80
4, 34342, Note_on_c, 2, 62, 0
4, 34350, Note_on_c, 2, 60, 80
4, 34402, Note_on_c, 2, 60, 0
4, 34410, Note_on_c, 2, 58, 80
4, 34462, Note_on_c, 2, 58, 0
4, 34470, Note_on_c, 2, 57, 80
4, 34522, Note_on_c, 2, 57, 0
4, 34530, Note_on_c, 2, 60, 80
4, 34582, Note_on_c, 2, 60, 0
4, 34590, Note_on_c, 2, 53, 80
4, 34642, Note_on_c, 2, 53, 0
4, 34650, Note_on_c, 2, 57, 80
4, 34702, Note_on_c, 2, 57, 0
4, 34710, Note_on_c, 2, 58, 80
4, 34762, Note_on_c, 2, 58, 0
4, 34770, Note_on_c, 2, 62, 80
4, 34822, Note_on_c, 2, 62, 0
4, 34830, Note_on_c, 2, 55, 80
4, 34882, Note_on_c, 2, 55, 0
4, 34890, Note_on_c, 2, 60, 80
4, 34942, Note_on_c, 2, 60, 0
4, 34950, Note_on_c, 2, 53, 80
4, 35002, Note_on_c, 2, 53, 0
4, 35010, Note_on_c, 2, 58, 80
4, 35062, Note_on_c, 2, 58, 0
4, 35070, Note_on_c, 2, 51, 80
4, 35122, Note_on_c, 2, 51, 0
4, 35130, Note_on_c, 2, 53, 80
4, 35182, Note_on_c, 2, 53, 0
4, 35190, Note_on_c, 2, 46, 80
4, 35242, Note_on_c, 2, 46, 0
4, 35250, Note_on_c, 2, 56, 80
4, 35302, Note_on_c, 2, 56, 0
4, 35310, Note_on_c, 2, 62, 80
4, 35362, Note_on_c, 2, 62, 0
4, 35370, Note_on_c, 2, 65, 80
4, 35422, Note_on_c, 2, 65, 0
4, 35430, Note_on_c, 2, 46, 80
4, 35482, Note_on_c, 2, 46, 0
4, 35490, Note_on_c, 2, 58, 80
4, 35542, Note_on_c, 2, 58, 0
4, 35550, Note_on_c, 2, 63, 80
4, 35602, Note_on_c, 2, 63, 0
4, 35610, Note_on_c, 2, 67, 80
4, 35662, Note_on_c, 2, 67, 0
4, 35670, Note_on_c, 2, 46, 80
4, 35722, Note_on_c, 2, 46, 0
4, 35730, Note_on_c, 2, 60, 80
4, 35782, Note_on_c, 2, 60, 0
4, 35790, Note_on_c, 2, 63, 80
4, 35842, Note_on_c, 2, 63, 0
4, 35850, Note_on_c, 2, 69, 80
4, 35902, Note_on_c, 2, 69, 0
4, 35910, Note_on_c, 2, 70, 80
4, 35936, Note_on_c, 2, 70, 0
4, 35940, Note_on_c, 2, 62, 80
4, 35966, Note_on_c, 2, 62, 0
4, 35970, Note_on_c, 2, 60, 80
4, 35996, Note_on_c, 2, 60, 0
4, 36000, Note_on_c, 2, 58, 80
4, 36026, Note_on_c, 2, 58, 0
4, 36030, Note_on_c, 2, 65, 80
4, 36082, Note_on_c, 2, 65, 0
4, 36090, Note_on_c, 2, 53, 80
4, 36142, Note_on_c, 2, 53, 0
4, 36150, Note_on_c, 2, 58, 80
4, 36375, Note_on_c, 2, 58, 0
4, 36390, Note_on_c, 2, 46, 80
4, 36555, Note_on_c, 2, 46, 0
4, 36555, End_track
5, 0, Start_track
5, 0, MIDI_port, 0
5, 0, Program_c, 3, 3
5, 0, Control_c, 3, 7, 70
5, 0, Control_c, 3, 10, 24
5, 36, Control_c, 3, 7, 79
5, 6420, Note_on_c, 3, 69, 80
5, 6446, Note_on_c, 3, 69, 0
5, 6450, Note_on_c, 3, 67, 80
5, 6476, Note_on_c, 3, 67, 0
5, 6480, Note_on_c, 3, 65, 80
5, 6506, Note_on_c, 3, 65, 0
5, 6510, Note_on_c, 3, 64, 80
5, 6536, Note_on_c, 3, 64, 0
5, 6540, Note_on_c, 3, 62, 80
5, 6566, Note_on_c, 3, 62, 0
5, 6570, Note_on_c, 3, 60, 80
5, 6596, Note_on_c, 3, 60, 0
5, 6600, Note_on_c, 3, 58, 80
5, 6626, Note_on_c, 3, 58, 0
5, 6630, Note_on_c, 3, 57, 80
5, 6656, Note_on_c, 3, 57, 0
5, 6660, Note_on_c, 3, 60, 80
5, 6686, Note_on_c, 3, 60, 0
5, 6690, Note_on_c, 3, 65, 80
5, 6716, Note_on_c, 3, 65, 0
5, 6720, Note_on_c, 3, 64, 80
5, 6746, Note_on_c, 3, 64, 0
5, 6750, Note_on_c, 3, 56, 80
5, 6776, Note_on_c, 3, 56, 0
5, 6780, Note_on_c, 3, 62, 80
5, 6806, Note_on_c, 3, 62, 0
5, 6810, Note_on_c, 3, 60, 80
5, 6836, Note_on_c, 3, 60, 0
5, 6840, Note_on_c, 3, 59, 80
5, 6866, Note_on_c, 3, 59, 0
5, 6870, Note_on_c, 3, 55, 80
5, 6896, Note_on_c, 3, 55, 0
5, 6900, Note_on_c, 3, 58, 80
5, 6926, Note_on_c, 3, 58, 0
5, 6930, Note_on_c, 3, 61, 80
5, 6956, Note_on_c, 3, 61, 0
5, 6960, Note_on_c, 3, 60, 80
5, 6986, Note_on_c, 3, 60, 0
5, 6990, Note_on_c, 3, 53, 80
5, 7016, Note_on_c, 3, 53, 0
5, 7020, Note_on_c, 3, 60, 80
5, 7046, Note_on_c, 3, 60, 0
5, 7050, Note_on_c, 3, 58, 80
5, 7076, Note_on_c, 3, 58, 0
5, 7080, Note_on_c, 3, 56, 80
5, 7106, Note_on_c, 3, 56, 0
5, 7110, Note_on_c, 3, 52, 80
5, 7136, Note_on_c, 3, 52, 0
5, 7140, Note_on_c, 3, 58, 80
5, 7166, Note_on_c, 3, 58, 0
5, 7170, Note_on_c, 3, 56, 80
5, 7196, Note_on_c, 3, 56, 0
5, 7200, Note_on_c, 3, 55, 80
5, 7226, Note_on_c, 3, 55, 0
5, 7230, Note_on_c, 3, 53, 80
5, 7256, Note_on_c, 3, 53, 0
5, 7260, Note_on_c, 3, 52, 80
5, 7286, Note_on_c, 3, 52, 0
5, 7290, Note_on_c, 3, 50, 80
5, 7316, Note_on_c, 3, 50, 0
5, 7320, Note_on_c, 3, 48, 80
5, 7346, Note_on_c, 3, 48, 0
5, 7860, Note_on_c, 3, 62, 80
5, 7886, Note_on_c, 3, 62, 0
5, 7890, Note_on_c, 3, 60, 80
5, 7942, Note_on_c, 3, 60, 0
5, 7980, Note_on_c, 3, 60, 80
5, 8006, Note_on_c, 3, 60, 0
5, 8010, Note_on_c, 3, 62, 80
5, 8062, Note_on_c, 3, 62, 0
5, 8100, Note_on_c, 3, 57, 80
5, 8126, Note_on_c, 3, 57, 0
5, 8130, Note_on_c, 3, 58, 80
5, 8182, Note_on_c, 3, 58, 0
5, 8220, Note_on_c, 3, 53, 80
5, 8246, Note_on_c, 3, 53, 0
5, 8250, Note_on_c, 3, 55, 80
5, 8302, Note_on_c, 3, 55, 0
5, 8340, Note_on_c, 3, 55, 80
5, 8366, Note_on_c, 3, 55, 0
5, 8370, Note_on_c, 3, 57, 80
5, 8482, Note_on_c, 3, 57, 0
5, 8490, Note_on_c, 3, 55, 80
5, 8542, Note_on_c, 3, 55, 0
5, 8550, Note_on_c, 3, 53, 80
5, 8715, Note_on_c, 3, 53, 0
5, 8728, Control_c, 3, 7, 69
5, 15060, Note_on_c, 3, 69, 80
5, 15086, Note_on_c, 3, 69, 0
5, 15090, Note_on_c, 3, 67, 80
5, 15116, Note_on_c, 3, 67, 0
5, 15120, Note_on_c, 3, 65, 80
5, 15146, Note_on_c, 3, 65, 0
5, 15150, Note_on_c, 3, 64, 80
5, 15176, Note_on_c, 3, 64, 0
5, 15180, Note_on_c, 3, 62, 80
5, 15206, Note_on_c, 3, 62, 0
5, 15210, Note_on_c, 3, 60, 80
5, 15236, Note_on_c, 3, 60, 0
5, 15240, Note_on_c, 3, 58, 80
5, 15266, Note_on_c, 3, 58, 0
5, 15270, Note_on_c, 3, 57, 80
5, 15296, Note_on_c, 3, 57, 0
5, 15300, Note_on_c, 3, 60, 80
5, 15326, Note_on_c, 3, 60, 0
5, 15330, Note_on_c, 3, 65, 80
5, 15356, Note_on_c, 3, 65, 0
5, 15360, Note_on_c, 3, 64, 80
5, 15386, Note_on_c, 3, 64, 0
5, 15390, Note_on_c, 3, 56, 80
5, 15416, Note_on_c, 3, 56, 0
5, 15420, Note_on_c, 3, 62, 80
5, 15446, Note_on_c, 3, 62, 0
5, 15450, Note_on_c, 3, 60, 80
5, 15476, Note_on_c, 3, 60, 0
5, 15480, Note_on_c, 3, 59, 80
5, 15506, Note_on_c, 3, 59, 0
5, 15510, Note_on_c, 3, 55, 80
5, 15536, Note_on_c, 3, 55, 0
5, 15540, Note_on_c, 3, 58, 80
5, 15566, Note_on_c, 3, 58, 0
5, 15570, Note_on_c, 3, 61, 80
5, 15596, Note_on_c, 3, 61, 0
5, 15600, Note_on_c, 3, 60, 80
5, 15626, Note_on_c, 3, 60, 0
5, 15630, Note_on_c, 3, 53, 80
5, 15656, Note_on_c, 3, 53, 0
5, 15660, Note_on_c, 3, 60, 80
5, 15686, Note_on_c, 3, 60, 0
5, 15690, Note_on_c, 3, 58, 80
5, 15716, Note_on_c, 3, 58, 0
5, 15720, Note_on_c, 3, 56, 80
5, 15746, Note_on_c, 3, 56, 0
5, 15750, Note_on_c, 3, 52, 80
5, 15776, Note_on_c, 3, 52, 0
5, 15780, Note_on_c, 3, 58, 80
5, 15806, Note_on_c, 3, 58, 0
5, 15810, Note_on_c, 3, 56, 80
5, 15836, Note_on_c, 3, 56, 0
5, 15840, Note_on_c, 3, 55, 80
5, 15866, Note_on_c, 3, 55, 0
5, 15870, Note_on_c, 3, 53, 80
5, 15896, Note_on_c, 3, 53, 0
5, 15900, Note_on_c, 3, 52, 80
5, 15926, Note_on_c, 3, 52, 0
5, 15930, Note_on_c, 3, 50, 80
5, 15956, Note_on_c, 3, 50, 0
5, 15960, Note_on_c, 3, 48, 80
5, 15986, Note_on_c, 3, 48, 0
5, 16500, Note_on_c, 3, 62, 80
5, 16526, Note_on_c, 3, 62, 0
5, 16530, Note_on_c, 3, 60, 80
5, 16582, Note_on_c, 3, 60, 0
5, 16620, Note_on_c, 3, 60, 80
5, 16646, Note_on_c, 3, 60, 0
5, 16650, Note_on_c, 3, 62, 80
5, 16702, Note_on_c, 3, 62, 0
5, 16740, Note_on_c, 3, 57, 80
5, 16766, Note_on_c, 3, 57, 0
5, 16770, Note_on_c, 3, 58, 80
5, 16822, Note_on_c, 3, 58, 0
5, 16860, Note_on_c, 3, 53, 80
5, 16886, Note_on_c, 3, 53, 0
5, 16890, Note_on_c, 3, 55, 80
5, 16942, Note_on_c, 3, 55, 0
5, 16980, Note_on_c, 3, 55, 80
5, 17006, Note_on_c, 3, 55, 0
5, 17010, Note_on_c, 3, 57, 80
5, 17122, Note_on_c, 3, 57, 0
5, 17130, Note_on_c, 3, 55, 80
5, 17182, Note_on_c, 3, 55, 0
5, 17190, Note_on_c, 3, 53, 80
5, 17355, Note_on_c, 3, 53, 0
5, 17356, Control_c, 3, 7, 79
5, 26970, Control_c, 3, 7, 89
5, 26970, End_track
0, 0, End_of_file
