0, 0, Header, 1, 5, 120
1, 0, Start_track
1, 0, Time_signature, 3, 3, 12, 8
1, 0, Key_signature, -3, "major"
1, 0, Tempo, 545454
1, 180, Time_signature, 2, 1, 48, 8
1, 15540, Time_signature, 4, 3, 12, 8
1, 15780, Time_signature, 2, 1, 48, 8
1, 31140, Time_signature, 4, 3, 12, 8
1, 31380, Time_signature, 2, 1, 48, 8
1, 46740, Time_signature, 4, 3, 12, 8
1, 46980, Time_signature, 2, 1, 48, 8
1, 46980, End_track
2, 0, Start_track
2, 0, MIDI_port, 0
2, 0, Program_c, 0, 11
2, 0, Control_c, 0, 7, 110
2, 60, Program_c, 0, 71
2, 120, Control_c, 0, 10, 64
2, 120, Note_on_c, 0, 80, 100
2, 172, Note_on_c, 0, 80, 0
2, 180, Note_on_c, 0, 79, 100
2, 232, Note_on_c, 0, 79, 0
2, 240, Note_on_c, 0, 77, 100
2, 292, Note_on_c, 0, 77, 0
2, 300, Note_on_c, 0, 79, 100
2, 352, Note_on_c, 0, 79, 0
2, 360, Note_on_c, 0, 74, 100
2, 412, Note_on_c, 0, 74, 0
2, 420, Note_on_c, 0, 75, 100
2, 472, Note_on_c, 0, 75, 0
2, 480, Note_on_c, 0, 71, 100
2, 532, Note_on_c, 0, 71, 0
2, 540, Note_on_c, 0, 72, 100
2, 592, Note_on_c, 0, 72, 0
2, 600, Note_on_c, 0, 77, 100
2, 652, Note_on_c, 0, 77, 0
2, 660, Note_on_c, 0, 75, 100
2, 712, Note_on_c, 0, 75, 0
2, 720, Note_on_c, 0, 74, 100
2, 772, Note_on_c, 0, 74, 0
2, 780, Note_on_c, 0, 75, 100
2, 832, Note_on_c, 0, 75, 0
2, 840, Note_on_c, 0, 71, 100
2, 892, Note_on_c, 0, 71, 0
2, 900, Note_on_c, 0, 72, 100
2, 952, Note_on_c, 0, 72, 0
2, 960, Note_on_c, 0, 67, 100
2, 1012, Note_on_c, 0, 67, 0
2, 1020, Note_on_c, 0, 68, 100
2, 1072, Note_on_c, 0, 68, 0
2, 1080, Note_on_c, 0, 74, 100
2, 1132, Note_on_c, 0, 74, 0
2, 1140, Note_on_c, 0, 72, 100
2, 1192, Note_on_c, 0, 72, 0
2, 1200, Note_on_c, 0, 71, 100
2, 1252, Note_on_c, 0, 71, 0
2, 1260, Note_on_c, 0, 72, 100
2, 1312, Note_on_c, 0, 72, 0
2, 1320, Note_on_c, 0, 67, 100
2, 1372, Note_on_c, 0, 67, 0
2, 1380, Note_on_c, 0, 68, 100
2, 1432, Note_on_c, 0, 68, 0
2, 1440, Note_on_c, 0, 63, 100
2, 1492, Note_on_c, 0, 63, 0
2, 1500, Note_on_c, 0, 65, 100
2, 1552, Note_on_c, 0, 65, 0
2, 1560, Note_on_c, 0, 75, 100
2, 1612, Note_on_c, 0, 75, 0
2, 1620, Note_on_c, 0, 74, 100
2, 1672, Note_on_c, 0, 74, 0
2, 1680, Note_on_c, 0, 72, 100
2, 1732, Note_on_c, 0, 72, 0
2, 1740, Note_on_c, 0, 71, 100
2, 1753, Note_on_c, 0, 71, 0
2, 1755, Note_on_c, 0, 72, 100
2, 1768, Note_on_c, 0, 72, 0
2, 1770, Note_on_c, 0, 71, 100
2, 1783, Note_on_c, 0, 71, 0
2, 1785, Note_on_c, 0, 72, 100
2, 1798, Note_on_c, 0, 72, 0
2, 1800, Note_on_c, 0, 71, 100
2, 1897, Note_on_c, 0, 71, 0
2, 1920, Note_on_c, 0, 69, 100
2, 1972, Note_on_c, 0, 69, 0
2, 1980, Note_on_c, 0, 67, 100
2, 2085, Note_on_c, 0, 67, 0
2, 2100, Note_on_c, 0, 71, 100
2, 2205, Note_on_c, 0, 71, 0
2, 2220, Note_on_c, 0, 72, 100
2, 2272, Note_on_c, 0, 72, 0
2, 2280, Note_on_c, 0, 74, 100
2, 2332, Note_on_c, 0, 74, 0
2, 2340, Note_on_c, 0, 75, 100
2, 2445, Note_on_c, 0, 75, 0
2, 2460, Note_on_c, 0, 65, 100
2, 2512, Note_on_c, 0, 65, 0
2, 2520, Note_on_c, 0, 75, 100
2, 2572, Note_on_c, 0, 75, 0
2, 2580, Note_on_c, 0, 74, 100
2, 2632, Note_on_c, 0, 74, 0
2, 2640, Note_on_c, 0, 72, 100
2, 2692, Note_on_c, 0, 72, 0
2, 2700, Note_on_c, 0, 74, 100
2, 2752, Note_on_c, 0, 74, 0
2, 2760, Note_on_c, 0, 75, 100
2, 2812, Note_on_c, 0, 75, 0
2, 2820, Note_on_c, 0, 77, 100
2, 2925, Note_on_c, 0, 77, 0
2, 2940, Note_on_c, 0, 67, 100
2, 2992, Note_on_c, 0, 67, 0
2, 3000, Note_on_c, 0, 77, 100
2, 3052, Note_on_c, 0, 77, 0
2, 3060, Note_on_c, 0, 75, 100
2, 3112, Note_on_c, 0, 75, 0
2, 3120, Note_on_c, 0, 74, 100
2, 3172, Note_on_c, 0, 74, 0
2, 3180, Note_on_c, 0, 75, 100
2, 3232, Note_on_c, 0, 75, 0
2, 3240, Note_on_c, 0, 77, 100
2, 3292, Note_on_c, 0, 77, 0
2, 3300, Note_on_c, 0, 79, 100
2, 3405, Note_on_c, 0, 79, 0
2, 3420, Note_on_c, 0, 68, 100
2, 3472, Note_on_c, 0, 68, 0
2, 3480, Note_on_c, 0, 79, 100
2, 3532, Note_on_c, 0, 79, 0
2, 3540, Note_on_c, 0, 77, 100
2, 3592, Note_on_c, 0, 77, 0
2, 3600, Note_on_c, 0, 75, 100
2, 3652, Note_on_c, 0, 75, 0
2, 3660, Note_on_c, 0, 77, 100
2, 3712, Note_on_c, 0, 77, 0
2, 3720, Note_on_c, 0, 79, 100
2, 3772, Note_on_c, 0, 79, 0
2, 3780, Note_on_c, 0, 80, 100
2, 3885, Note_on_c, 0, 80, 0
2, 3900, Note_on_c, 0, 71, 100
2, 3952, Note_on_c, 0, 71, 0
2, 3960, Note_on_c, 0, 80, 100
2, 4012, Note_on_c, 0, 80, 0
2, 4020, Note_on_c, 0, 79, 100
2, 4072, Note_on_c, 0, 79, 0
2, 4080, Note_on_c, 0, 77, 100
2, 4132, Note_on_c, 0, 77, 0
2, 4140, Note_on_c, 0, 75, 100
2, 4545, Note_on_c, 0, 75, 0
2, 4560, Note_on_c, 0, 72, 100
2, 4612, Note_on_c, 0, 72, 0
2, 4620, Note_on_c, 0, 74, 100
2, 5025, Note_on_c, 0, 74, 0
2, 5040, Note_on_c, 0, 71, 100
2, 5092, Note_on_c, 0, 71, 0
2, 5100, Note_on_c, 0, 72, 100
2, 5512, Note_on_c, 0, 72, 0
2, 5520, Note_on_c, 0, 71, 100
2, 5572, Note_on_c, 0, 71, 0
2, 5580, Note_on_c, 0, 72, 100
2, 5872, Note_on_c, 0, 72, 0
2, 5880, Note_on_c, 0, 72, 100
2, 5932, Note_on_c, 0, 72, 0
2, 5940, Note_on_c, 0, 70, 100
2, 5992, Note_on_c, 0, 70, 0
2, 6000, Note_on_c, 0, 68, 100
2, 6052, Note_on_c, 0, 68, 0
2, 6060, Note_on_c, 0, 67, 100
2, 6112, Note_on_c, 0, 67, 0
2, 6120, Note_on_c, 0, 72, 100
2, 6146, Note_on_c, 0, 72, 0
2, 6150, Note_on_c, 0, 74, 100
2, 6176, Note_on_c, 0, 74, 0
2, 6180, Note_on_c, 0, 75, 100
2, 6232, Note_on_c, 0, 75, 0
2, 6240, Note_on_c, 0, 72, 100
2, 6292, Note_on_c, 0, 72, 0
2, 6300, Note_on_c, 0, 67, 100
2, 6405, Note_on_c, 0, 67, 0
2, 6420, Note_on_c, 0, 68, 100
2, 6525, Note_on_c, 0, 68, 0
2, 6540, Note_on_c, 0, 70, 100
2, 6885, Note_on_c, 0, 70, 0
2, 6900, Note_on_c, 0, 79, 100
2, 7072, Note_on_c, 0, 79, 0
2, 7080, Note_on_c, 0, 72, 100
2, 7106, Note_on_c, 0, 72, 0
2, 7110, Note_on_c, 0, 74, 100
2, 7136, Note_on_c, 0, 74, 0
2, 7140, Note_on_c, 0, 75, 100
2, 7192, Note_on_c, 0, 75, 0
2, 7200, Note_on_c, 0, 72, 100
2, 7252, Note_on_c, 0, 72, 0
2, 7260, Note_on_c, 0, 69, 100
2, 7312, Note_on_c, 0, 69, 0
2, 7320, Note_on_c, 0, 77, 100
2, 7372, Note_on_c, 0, 77, 0
2, 7380, Note_on_c, 0, 72, 100
2, 7406, Note_on_c, 0, 72, 0
2, 7410, Note_on_c, 0, 74, 100
2, 7436, Note_on_c, 0, 74, 0
2, 7440, Note_on_c, 0, 75, 100
2, 7492, Note_on_c, 0, 75, 0
2, 7500, Note_on_c, 0, 74, 100
2, 7845, Note_on_c, 0, 74, 0
2, 7860, Note_on_c, 0, 74, 100
2, 7965, Note_on_c, 0, 74, 0
2, 7980, Note_on_c, 0, 74, 100
2, 8085, Note_on_c, 0, 74, 0
2, 8100, Note_on_c, 0, 72, 100
2, 8113, Note_on_c, 0, 72, 0
2, 8115, Note_on_c, 0, 74, 100
2, 8128, Note_on_c, 0, 74, 0
2, 8130, Note_on_c, 0, 72, 100
2, 8143, Note_on_c, 0, 72, 0
2, 8145, Note_on_c, 0, 74, 100
2, 8158, Note_on_c, 0, 74, 0
2, 8160, Note_on_c, 0, 72, 100
2, 8212, Note_on_c, 0, 72, 0
2, 8280, Note_on_c, 0, 78, 100
2, 8332, Note_on_c, 0, 78, 0
2, 8340, Note_on_c, 0, 79, 100
2, 8392, Note_on_c, 0, 79, 0
2, 8400, Note_on_c, 0, 81, 100
2, 8452, Note_on_c, 0, 81, 0
2, 8460, Note_on_c, 0, 75, 100
2, 8565, Note_on_c, 0, 75, 0
2, 8580, Note_on_c, 0, 74, 100
2, 8593, Note_on_c, 0, 74, 0
2, 8595, Note_on_c, 0, 75, 100
2, 8608, Note_on_c, 0, 75, 0
2, 8610, Note_on_c, 0, 74, 100
2, 8623, Note_on_c, 0, 74, 0
2, 8625, Note_on_c, 0, 75, 100
2, 8638, Note_on_c, 0, 75, 0
2, 8640, Note_on_c, 0, 74, 100
2, 8692, Note_on_c, 0, 74, 0
2, 8760, Note_on_c, 0, 79, 100
2, 8812, Note_on_c, 0, 79, 0
2, 8820, Note_on_c, 0, 81, 100
2, 8872, Note_on_c, 0, 81, 0
2, 8880, Note_on_c, 0, 82, 100
2, 8932, Note_on_c, 0, 82, 0
2, 8940, Note_on_c, 0, 77, 100
2, 9045, Note_on_c, 0, 77, 0
2, 9060, Note_on_c, 0, 76, 100
2, 9073, Note_on_c, 0, 76, 0
2, 9075, Note_on_c, 0, 77, 100
2, 9088, Note_on_c, 0, 77, 0
2, 9090, Note_on_c, 0, 76, 100
2, 9103, Note_on_c, 0, 76, 0
2, 9105, Note_on_c, 0, 77, 100
2, 9118, Note_on_c, 0, 77, 0
2, 9120, Note_on_c, 0, 76, 100
2, 9172, Note_on_c, 0, 76, 0
2, 9240, Note_on_c, 0, 81, 100
2, 9292, Note_on_c, 0, 81, 0
2, 9300, Note_on_c, 0, 82, 100
2, 9352, Note_on_c, 0, 82, 0
2, 9360, Note_on_c, 0, 84, 100
2, 9412, Note_on_c, 0, 84, 0
2, 9420, Note_on_c, 0, 79, 100
2, 9525, Note_on_c, 0, 79, 0
2, 9540, Note_on_c, 0, 78, 100
2, 9645, Note_on_c, 0, 78, 0
2, 9720, Note_on_c, 0, 75, 100
2, 9772, Note_on_c, 0, 75, 0
2, 9780, Note_on_c, 0, 74, 100
2, 9832, Note_on_c, 0, 74, 0
2, 9840, Note_on_c, 0, 72, 100
2, 9892, Note_on_c, 0, 72, 0
2, 9900, Note_on_c, 0, 74, 100
2, 9952, Note_on_c, 0, 74, 0
2, 9960, Note_on_c, 0, 69, 100
2, 10012, Note_on_c, 0, 69, 0
2, 10020, Note_on_c, 0, 70, 100
2, 10072, Note_on_c, 0, 70, 0
2, 10080, Note_on_c, 0, 66, 100
2, 10132, Note_on_c, 0, 66, 0
2, 10140, Note_on_c, 0, 67, 100
2, 10192, Note_on_c, 0, 67, 0
2, 10200, Note_on_c, 0, 72, 100
2, 10252, Note_on_c, 0, 72, 0
2, 10260, Note_on_c, 0, 70, 100
2, 10312, Note_on_c, 0, 70, 0
2, 10320, Note_on_c, 0, 69, 100
2, 10372, Note_on_c, 0, 69, 0
2, 10380, Note_on_c, 0, 70, 100
2, 10432, Note_on_c, 0, 70, 0
2, 10440, Note_on_c, 0, 66, 100
2, 10492, Note_on_c, 0, 66, 0
2, 10500, Note_on_c, 0, 67, 100
2, 10552, Note_on_c, 0, 67, 0
2, 10560, Note_on_c, 0, 62, 100
2, 10612, Note_on_c, 0, 62, 0
2, 10620, Note_on_c, 0, 63, 100
2, 10672, Note_on_c, 0, 63, 0
2, 10680, Note_on_c, 0, 69, 100
2, 10732, Note_on_c, 0, 69, 0
2, 10740, Note_on_c, 0, 67, 100
2, 10792, Note_on_c, 0, 67, 0
2, 10800, Note_on_c, 0, 66, 100
2, 10852, Note_on_c, 0, 66, 0
2, 10860, Note_on_c, 0, 67, 100
2, 10912, Note_on_c, 0, 67, 0
2, 10920, Note_on_c, 0, 62, 100
2, 10972, Note_on_c, 0, 62, 0
2, 10980, Note_on_c, 0, 63, 100
2, 11032, Note_on_c, 0, 63, 0
2, 11040, Note_on_c, 0, 59, 100
2, 11092, Note_on_c, 0, 59, 0
2, 11100, Note_on_c, 0, 60, 100
2, 11152, Note_on_c, 0, 60, 0
2, 11160, Note_on_c, 0, 65, 100
2, 11212, Note_on_c, 0, 65, 0
2, 11220, Note_on_c, 0, 63, 100
2, 11272, Note_on_c, 0, 63, 0
2, 11280, Note_on_c, 0, 62, 100
2, 11332, Note_on_c, 0, 62, 0
2, 11340, Note_on_c, 0, 63, 100
2, 11392, Note_on_c, 0, 63, 0
2, 11400, Note_on_c, 0, 60, 100
2, 11452, Note_on_c, 0, 60, 0
2, 11460, Note_on_c, 0, 62, 100
2, 11512, Note_on_c, 0, 62, 0
2, 11520, Note_on_c, 0, 66, 100
2, 11572, Note_on_c, 0, 66, 0
2, 11580, Note_on_c, 0, 69, 100
2, 11632, Note_on_c, 0, 69, 0
2, 11640, Note_on_c, 0, 63, 100
2, 11692, Note_on_c, 0, 63, 0
2, 11700, Note_on_c, 0, 62, 100
2, 11752, Note_on_c, 0, 62, 0
2, 11760, Note_on_c, 0, 60, 100
2, 11812, Note_on_c, 0, 60, 0
2, 11820, Note_on_c, 0, 58, 100
2, 11872, Note_on_c, 0, 58, 0
2, 11880, Note_on_c, 0, 62, 100
2, 11932, Note_on_c, 0, 62, 0
2, 11940, Note_on_c, 0, 67, 100
2, 11992, Note_on_c, 0, 67, 0
2, 12000, Note_on_c, 0, 70, 100
2, 12112, Note_on_c, 0, 70, 0
2, 12120, Note_on_c, 0, 66, 100
2, 12172, Note_on_c, 0, 66, 0
2, 12180, Note_on_c, 0, 67, 100
2, 12232, Note_on_c, 0, 67, 0
2, 12240, Note_on_c, 0, 58, 100
2, 12292, Note_on_c, 0, 58, 0
2, 12300, Note_on_c, 0, 60, 100
2, 12352, Note_on_c, 0, 60, 0
2, 12360, Note_on_c, 0, 63, 100
2, 12412, Note_on_c, 0, 63, 0
2, 12420, Note_on_c, 0, 67, 100
2, 12472, Note_on_c, 0, 67, 0
2, 12480, Note_on_c, 0, 70, 100
2, 12592, Note_on_c, 0, 70, 0
2, 12600, Note_on_c, 0, 66, 100
2, 12652, Note_on_c, 0, 66, 0
2, 12660, Note_on_c, 0, 67, 100
2, 12712, Note_on_c, 0, 67, 0
2, 12720, Note_on_c, 0, 60, 100
2, 12772, Note_on_c, 0, 60, 0
2, 12780, Note_on_c, 0, 62, 100
2, 12832, Note_on_c, 0, 62, 0
2, 12840, Note_on_c, 0, 66, 100
2, 12892, Note_on_c, 0, 66, 0
2, 12900, Note_on_c, 0, 67, 100
2, 12952, Note_on_c, 0, 67, 0
2, 12960, Note_on_c, 0, 70, 100
2, 13072, Note_on_c, 0, 70, 0
2, 13080, Note_on_c, 0, 66, 100
2, 13132, Note_on_c, 0, 66, 0
2, 13140, Note_on_c, 0, 67, 100
2, 13192, Note_on_c, 0, 67, 0
2, 13200, Note_on_c, 0, 62, 100
2, 13252, Note_on_c, 0, 62, 0
2, 13260, Note_on_c, 0, 63, 100
2, 13312, Note_on_c, 0, 63, 0
2, 13320, Note_on_c, 0, 66, 100
2, 13372, Note_on_c, 0, 66, 0
2, 13380, Note_on_c, 0, 67, 100
2, 13432, Note_on_c, 0, 67, 0
2, 13440, Note_on_c, 0, 70, 100
2, 13552, Note_on_c, 0, 70, 0
2, 13560, Note_on_c, 0, 66, 100
2, 13612, Note_on_c, 0, 66, 0
2, 13620, Note_on_c, 0, 67, 100
2, 13672, Note_on_c, 0, 67, 0
2, 13680, Note_on_c, 0, 70, 100
2, 13732, Note_on_c, 0, 70, 0
2, 13740, Note_on_c, 0, 76, 100
2, 13792, Note_on_c, 0, 76, 0
2, 13800, Note_on_c, 0, 69, 100
2, 13852, Note_on_c, 0, 69, 0
2, 13860, Note_on_c, 0, 70, 100
2, 13912, Note_on_c, 0, 70, 0
2, 13920, Note_on_c, 0, 66, 100
2, 13972, Note_on_c, 0, 66, 0
2, 13980, Note_on_c, 0, 67, 100
2, 14032, Note_on_c, 0, 67, 0
2, 14040, Note_on_c, 0, 70, 100
2, 14092, Note_on_c, 0, 70, 0
2, 14100, Note_on_c, 0, 69, 100
2, 14152, Note_on_c, 0, 69, 0
2, 14160, Note_on_c, 0, 67, 100
2, 14212, Note_on_c, 0, 67, 0
2, 14220, Note_on_c, 0, 66, 100
2, 14272, Note_on_c, 0, 66, 0
2, 14280, Note_on_c, 0, 62, 100
2, 14332, Note_on_c, 0, 62, 0
2, 14340, Note_on_c, 0, 63, 100
2, 14392, Note_on_c, 0, 63, 0
2, 14400, Note_on_c, 0, 58, 100
2, 14452, Note_on_c, 0, 58, 0
2, 14460, Note_on_c, 0, 60, 100
2, 14512, Note_on_c, 0, 60, 0
2, 14520, Note_on_c, 0, 63, 100
2, 14572, Note_on_c, 0, 63, 0
2, 14580, Note_on_c, 0, 62, 100
2, 14632, Note_on_c, 0, 62, 0
2, 14640, Note_on_c, 0, 60, 100
2, 14692, Note_on_c, 0, 60, 0
2, 14700, Note_on_c, 0, 58, 100
2, 14805, Note_on_c, 0, 58, 0
2, 14820, Note_on_c, 0, 74, 100
2, 14925, Note_on_c, 0, 74, 0
2, 14940, Note_on_c, 0, 70, 100
2, 15045, Note_on_c, 0, 70, 0
2, 15060, Note_on_c, 0, 69, 100
2, 15112, Note_on_c, 0, 69, 0
2, 15120, Note_on_c, 0, 67, 100
2, 15172, Note_on_c, 0, 67, 0
2, 15180, Note_on_c, 0, 67, 100
2, 15645, Note_on_c, 0, 67, 0
2, 15660, Program_c, 0, 11
2, 15720, Control_c, 0, 10, 10
2, 15720, Note_on_c, 0, 80, 100
2, 15772, Note_on_c, 0, 80, 0
2, 15780, Note_on_c, 0, 79, 100
2, 15832, Note_on_c, 0, 79, 0
2, 15840, Note_on_c, 0, 77, 100
2, 15892, Note_on_c, 0, 77, 0
2, 15900, Note_on_c, 0, 79, 100
2, 15952, Note_on_c, 0, 79, 0
2, 15960, Note_on_c, 0, 74, 100
2, 16012, Note_on_c, 0, 74, 0
2, 16020, Note_on_c, 0, 75, 100
2, 16072, Note_on_c, 0, 75, 0
2, 16080, Note_on_c, 0, 71, 100
2, 16132, Note_on_c, 0, 71, 0
2, 16140, Note_on_c, 0, 72, 100
2, 16192, Note_on_c, 0, 72, 0
2, 16200, Note_on_c, 0, 77, 100
2, 16252, Note_on_c, 0, 77, 0
2, 16260, Note_on_c, 0, 75, 100
2, 16312, Note_on_c, 0, 75, 0
2, 16320, Note_on_c, 0, 74, 100
2, 16372, Note_on_c, 0, 74, 0
2, 16380, Note_on_c, 0, 75, 100
2, 16432, Note_on_c, 0, 75, 0
2, 16440, Note_on_c, 0, 71, 100
2, 16492, Note_on_c, 0, 71, 0
2, 16500, Note_on_c, 0, 72, 100
2, 16552, Note_on_c, 0, 72, 0
2, 16560, Note_on_c, 0, 67, 100
2, 16612, Note_on_c, 0, 67, 0
2, 16620, Note_on_c, 0, 68, 100
2, 16672, Note_on_c, 0, 68, 0
2, 16680, Note_on_c, 0, 74, 100
2, 16732, Note_on_c, 0, 74, 0
2, 16740, Note_on_c, 0, 72, 100
2, 16792, Note_on_c, 0, 72, 0
2, 16800, Note_on_c, 0, 71, 100
2, 16852, Note_on_c, 0, 71, 0
2, 16860, Note_on_c, 0, 72, 100
2, 16912, Note_on_c, 0, 72, 0
2, 16920, Note_on_c, 0, 67, 100
2, 16972, Note_on_c, 0, 67, 0
2, 16980, Note_on_c, 0, 68, 100
2, 17032, Note_on_c, 0, 68, 0
2, 17040, Note_on_c, 0, 63, 100
2, 17092, Note_on_c, 0, 63, 0
2, 17100, Note_on_c, 0, 65, 100
2, 17152, Note_on_c, 0, 65, 0
2, 17160, Note_on_c, 0, 75, 100
2, 17212, Note_on_c, 0, 75, 0
2, 17220, Note_on_c, 0, 74, 100
2, 17272, Note_on_c, 0, 74, 0
2, 17280, Note_on_c, 0, 72, 100
2, 17332, Note_on_c, 0, 72, 0
2, 17340, Note_on_c, 0, 71, 100
2, 17353, Note_on_c, 0, 71, 0
2, 17355, Note_on_c, 0, 72, 100
2, 17368, Note_on_c, 0, 72, 0
2, 17370, Note_on_c, 0, 71, 100
2, 17383, Note_on_c, 0, 71, 0
2, 17385, Note_on_c, 0, 72, 100
2, 17398, Note_on_c, 0, 72, 0
2, 17400, Note_on_c, 0, 71, 100
2, 17497, Note_on_c, 0, 71, 0
2, 17520, Note_on_c, 0, 69, 100
2, 17572, Note_on_c, 0, 69, 0
2, 17580, Note_on_c, 0, 67, 100
2, 17685, Note_on_c, 0, 67, 0
2, 17700, Note_on_c, 0, 71, 100
2, 17805, Note_on_c, 0, 71, 0
2, 17820, Note_on_c, 0, 72, 100
2, 17872, Note_on_c, 0, 72, 0
2, 17880, Note_on_c, 0, 74, 100
2, 17932, Note_on_c, 0, 74, 0
2, 17940, Note_on_c, 0, 75, 100
2, 18045, Note_on_c, 0, 75, 0
2, 18120, Note_on_c, 0, 75, 100
2, 18172, Note_on_c, 0, 75, 0
2, 18180, Note_on_c, 0, 74, 100
2, 18232, Note_on_c, 0, 74, 0
2, 18240, Note_on_c, 0, 72, 100
2, 18292, Note_on_c, 0, 72, 0
2, 18300, Note_on_c, 0, 74, 100
2, 18352, Note_on_c, 0, 74, 0
2, 18360, Note_on_c, 0, 75, 100
2, 18412, Note_on_c, 0, 75, 0
2, 18420, Note_on_c, 0, 77, 100
2, 18525, Note_on_c, 0, 77, 0
2, 18600, Note_on_c, 0, 77, 100
2, 18652, Note_on_c, 0, 77, 0
2, 18660, Note_on_c, 0, 75, 100
2, 18712, Note_on_c, 0, 75, 0
2, 18720, Note_on_c, 0, 74, 100
2, 18772, Note_on_c, 0, 74, 0
2, 18780, Note_on_c, 0, 75, 100
2, 18832, Note_on_c, 0, 75, 0
2, 18840, Note_on_c, 0, 77, 100
2, 18892, Note_on_c, 0, 77, 0
2, 18900, Note_on_c, 0, 79, 100
2, 19005, Note_on_c, 0, 79, 0
2, 19080, Note_on_c, 0, 79, 100
2, 19132, Note_on_c, 0, 79, 0
2, 19140, Note_on_c, 0, 77, 100
2, 19192, Note_on_c, 0, 77, 0
2, 19200, Note_on_c, 0, 75, 100
2, 19252, Note_on_c, 0, 75, 0
2, 19260, Note_on_c, 0, 77, 100
2, 19312, Note_on_c, 0, 77, 0
2, 19320, Note_on_c, 0, 79, 100
2, 19372, Note_on_c, 0, 79, 0
2, 19380, Note_on_c, 0, 80, 100
2, 19485, Note_on_c, 0, 80, 0
2, 19560, Note_on_c, 0, 80, 100
2, 19612, Note_on_c, 0, 80, 0
2, 19620, Note_on_c, 0, 79, 100
2, 19672, Note_on_c, 0, 79, 0
2, 19680, Note_on_c, 0, 77, 100
2, 19732, Note_on_c, 0, 77, 0
2, 19740, Note_on_c, 0, 75, 100
2, 20145, Note_on_c, 0, 75, 0
2, 20160, Note_on_c, 0, 72, 100
2, 20212, Note_on_c, 0, 72, 0
2, 20220, Note_on_c, 0, 74, 100
2, 20625, Note_on_c, 0, 74, 0
2, 20640, Note_on_c, 0, 71, 100
2, 20692, Note_on_c, 0, 71, 0
2, 20700, Note_on_c, 0, 72, 100
2, 21112, Note_on_c, 0, 72, 0
2, 21120, Note_on_c, 0, 71, 100
2, 21172, Note_on_c, 0, 71, 0
2, 21180, Note_on_c, 0, 72, 100
2, 21472, Note_on_c, 0, 72, 0
2, 21480, Note_on_c, 0, 72, 100
2, 21532, Note_on_c, 0, 72, 0
2, 21540, Note_on_c, 0, 70, 100
2, 21592, Note_on_c, 0, 70, 0
2, 21600, Note_on_c, 0, 68, 100
2, 21652, Note_on_c, 0, 68, 0
2, 21660, Note_on_c, 0, 67, 100
2, 21712, Note_on_c, 0, 67, 0
2, 21720, Note_on_c, 0, 72, 100
2, 21746, Note_on_c, 0, 72, 0
2, 21750, Note_on_c, 0, 74, 100
2, 21776, Note_on_c, 0, 74, 0
2, 21780, Note_on_c, 0, 75, 100
2, 21832, Note_on_c, 0, 75, 0
2, 21840, Note_on_c, 0, 72, 100
2, 21892, Note_on_c, 0, 72, 0
2, 21900, Note_on_c, 0, 67, 100
2, 22005, Note_on_c, 0, 67, 0
2, 22020, Note_on_c, 0, 68, 100
2, 22125, Note_on_c, 0, 68, 0
2, 22140, Note_on_c, 0, 70, 100
2, 22485, Note_on_c, 0, 70, 0
2, 22500, Note_on_c, 0, 79, 100
2, 22672, Note_on_c, 0, 79, 0
2, 22680, Note_on_c, 0, 72, 100
2, 22706, Note_on_c, 0, 72, 0
2, 22710, Note_on_c, 0, 74, 100
2, 22736, Note_on_c, 0, 74, 0
2, 22740, Note_on_c, 0, 75, 100
2, 22792, Note_on_c, 0, 75, 0
2, 22800, Note_on_c, 0, 72, 100
2, 22852, Note_on_c, 0, 72, 0
2, 22860, Note_on_c, 0, 69, 100
2, 22912, Note_on_c, 0, 69, 0
2, 22920, Note_on_c, 0, 77, 100
2, 22972, Note_on_c, 0, 77, 0
2, 22980, Note_on_c, 0, 72, 100
2, 23006, Note_on_c, 0, 72, 0
2, 23010, Note_on_c, 0, 74, 100
2, 23036, Note_on_c, 0, 74, 0
2, 23040, Note_on_c, 0, 75, 100
2, 23092, Note_on_c, 0, 75, 0
2, 23100, Note_on_c, 0, 74, 100
2, 23445, Note_on_c, 0, 74, 0
2, 23460, Note_on_c, 0, 74, 100
2, 23565, Note_on_c, 0, 74, 0
2, 23580, Note_on_c, 0, 74, 100
2, 23685, Note_on_c, 0, 74, 0
2, 23700, Note_on_c, 0, 72, 100
2, 23713, Note_on_c, 0, 72, 0
2, 23715, Note_on_c, 0, 74, 100
2, 23728, Note_on_c, 0, 74, 0
2, 23730, Note_on_c, 0, 72, 100
2, 23743, Note_on_c, 0, 72, 0
2, 23745, Note_on_c, 0, 74, 100
2, 23758, Note_on_c, 0, 74, 0
2, 23760, Note_on_c, 0, 72, 100
2, 23812, Note_on_c, 0, 72, 0
2, 23880, Note_on_c, 0, 78, 100
2, 23932, Note_on_c, 0, 78, 0
2, 23940, Note_on_c, 0, 79, 100
2, 23992, Note_on_c, 0, 79, 0
2, 24000, Note_on_c, 0, 81, 100
2, 24052, Note_on_c, 0, 81, 0
2, 24060, Note_on_c, 0, 75, 100
2, 24165, Note_on_c, 0, 75, 0
2, 24180, Note_on_c, 0, 74, 100
2, 24193, Note_on_c, 0, 74, 0
2, 24195, Note_on_c, 0, 75, 100
2, 24208, Note_on_c, 0, 75, 0
2, 24210, Note_on_c, 0, 74, 100
2, 24223, Note_on_c, 0, 74, 0
2, 24225, Note_on_c, 0, 75, 100
2, 24238, Note_on_c, 0, 75, 0
2, 24240, Note_on_c, 0, 74, 100
2, 24292, Note_on_c, 0, 74, 0
2, 24360, Note_on_c, 0, 79, 100
2, 24412, Note_on_c, 0, 79, 0
2, 24420, Note_on_c, 0, 81, 100
2, 24472, Note_on_c, 0, 81, 0
2, 24480, Note_on_c, 0, 82, 100
2, 24532, Note_on_c, 0, 82, 0
2, 24540, Note_on_c, 0, 77, 100
2, 24645, Note_on_c, 0, 77, 0
2, 24660, Note_on_c, 0, 76, 100
2, 24673, Note_on_c, 0, 76, 0
2, 24675, Note_on_c, 0, 77, 100
2, 24688, Note_on_c, 0, 77, 0
2, 24690, Note_on_c, 0, 76, 100
2, 24703, Note_on_c, 0, 76, 0
2, 24705, Note_on_c, 0, 77, 100
2, 24718, Note_on_c, 0, 77, 0
2, 24720, Note_on_c, 0, 76, 100
2, 24772, Note_on_c, 0, 76, 0
2, 24840, Note_on_c, 0, 81, 100
2, 24892, Note_on_c, 0, 81, 0
2, 24900, Note_on_c, 0, 82, 100
2, 24952, Note_on_c, 0, 82, 0
2, 24960, Note_on_c, 0, 84, 100
2, 25012, Note_on_c, 0, 84, 0
2, 25020, Note_on_c, 0, 79, 100
2, 25125, Note_on_c, 0, 79, 0
2, 25140, Note_on_c, 0, 78, 100
2, 25245, Note_on_c, 0, 78, 0
2, 25320, Note_on_c, 0, 75, 100
2, 25372, Note_on_c, 0, 75, 0
2, 25380, Note_on_c, 0, 74, 100
2, 25432, Note_on_c, 0, 74, 0
2, 25440, Note_on_c, 0, 72, 100
2, 25492, Note_on_c, 0, 72, 0
2, 25500, Note_on_c, 0, 74, 100
2, 25552, Note_on_c, 0, 74, 0
2, 25800, Note_on_c, 0, 72, 100
2, 25852, Note_on_c, 0, 72, 0
2, 25860, Note_on_c, 0, 70, 100
2, 25912, Note_on_c, 0, 70, 0
2, 25920, Note_on_c, 0, 69, 100
2, 25972, Note_on_c, 0, 69, 0
2, 25980, Note_on_c, 0, 70, 100
2, 26032, Note_on_c, 0, 70, 0
2, 26280, Note_on_c, 0, 69, 100
2, 26332, Note_on_c, 0, 69, 0
2, 26340, Note_on_c, 0, 67, 100
2, 26392, Note_on_c, 0, 67, 0
2, 26400, Note_on_c, 0, 66, 100
2, 26452, Note_on_c, 0, 66, 0
2, 26460, Note_on_c, 0, 67, 100
2, 26512, Note_on_c, 0, 67, 0
2, 26760, Note_on_c, 0, 65, 100
2, 26812, Note_on_c, 0, 65, 0
2, 26820, Note_on_c, 0, 63, 100
2, 26872, Note_on_c, 0, 63, 0
2, 26880, Note_on_c, 0, 62, 100
2, 26932, Note_on_c, 0, 62, 0
2, 26940, Note_on_c, 0, 63, 100
2, 26992, Note_on_c, 0, 63, 0
2, 27000, Note_on_c, 0, 60, 100
2, 27052, Note_on_c, 0, 60, 0
2, 27060, Note_on_c, 0, 62, 100
2, 27112, Note_on_c, 0, 62, 0
2, 27120, Note_on_c, 0, 66, 100
2, 27172, Note_on_c, 0, 66, 0
2, 27180, Note_on_c, 0, 69, 100
2, 27232, Note_on_c, 0, 69, 0
2, 27480, Note_on_c, 0, 62, 100
2, 27532, Note_on_c, 0, 62, 0
2, 27540, Note_on_c, 0, 67, 100
2, 27592, Note_on_c, 0, 67, 0
2, 27600, Note_on_c, 0, 70, 100
2, 27712, Note_on_c, 0, 70, 0
2, 27960, Note_on_c, 0, 63, 100
2, 28012, Note_on_c, 0, 63, 0
2, 28020, Note_on_c, 0, 67, 100
2, 28072, Note_on_c, 0, 67, 0
2, 28080, Note_on_c, 0, 70, 100
2, 28192, Note_on_c, 0, 70, 0
2, 28440, Note_on_c, 0, 66, 100
2, 28492, Note_on_c, 0, 66, 0
2, 28500, Note_on_c, 0, 67, 100
2, 28552, Note_on_c, 0, 67, 0
2, 28560, Note_on_c, 0, 70, 100
2, 28672, Note_on_c, 0, 70, 0
2, 28920, Note_on_c, 0, 66, 100
2, 28972, Note_on_c, 0, 66, 0
2, 28980, Note_on_c, 0, 67, 100
2, 29032, Note_on_c, 0, 67, 0
2, 29040, Note_on_c, 0, 70, 100
2, 29152, Note_on_c, 0, 70, 0
2, 29160, Note_on_c, 0, 66, 100
2, 29212, Note_on_c, 0, 66, 0
2, 29220, Note_on_c, 0, 67, 100
2, 29272, Note_on_c, 0, 67, 0
2, 29280, Note_on_c, 0, 70, 100
2, 29332, Note_on_c, 0, 70, 0
2, 29340, Note_on_c, 0, 76, 100
2, 29392, Note_on_c, 0, 76, 0
2, 29640, Note_on_c, 0, 70, 100
2, 29692, Note_on_c, 0, 70, 0
2, 29700, Note_on_c, 0, 69, 100
2, 29752, Note_on_c, 0, 69, 0
2, 29760, Note_on_c, 0, 67, 100
2, 29812, Note_on_c, 0, 67, 0
2, 29820, Note_on_c, 0, 66, 100
2, 29872, Note_on_c, 0, 66, 0
2, 30120, Note_on_c, 0, 63, 100
2, 30172, Note_on_c, 0, 63, 0
2, 30180, Note_on_c, 0, 62, 100
2, 30232, Note_on_c, 0, 62, 0
2, 30240, Note_on_c, 0, 60, 100
2, 30292, Note_on_c, 0, 60, 0
2, 30300, Note_on_c, 0, 58, 100
2, 30405, Note_on_c, 0, 58, 0
2, 30420, Note_on_c, 0, 74, 100
2, 30525, Note_on_c, 0, 74, 0
2, 30540, Note_on_c, 0, 70, 100
2, 30645, Note_on_c, 0, 70, 0
2, 30660, Note_on_c, 0, 69, 100
2, 30712, Note_on_c, 0, 69, 0
2, 30720, Note_on_c, 0, 67, 100
2, 30772, Note_on_c, 0, 67, 0
2, 30780, Note_on_c, 0, 67, 100
2, 31245, Note_on_c, 0, 67, 0
2, 31260, Program_c, 0, 71
2, 31262, Control_c, 0, 7, 127
2, 31320, Control_c, 0, 10, 64
2, 31320, Note_on_c, 0, 75, 100
2, 31372, Note_on_c, 0, 75, 0
2, 31380, Note_on_c, 0, 74, 100
2, 31432, Note_on_c, 0, 74, 0
2, 31440, Note_on_c, 0, 72, 100
2, 31492, Note_on_c, 0, 72, 0
2, 31500, Note_on_c, 0, 74, 100
2, 31552, Note_on_c, 0, 74, 0
2, 31560, Note_on_c, 0, 69, 100
2, 31612, Note_on_c, 0, 69, 0
2, 31620, Note_on_c, 0, 71, 100
2, 31672, Note_on_c, 0, 71, 0
2, 31680, Note_on_c, 0, 67, 100
2, 31732, Note_on_c, 0, 67, 0
2, 31740, Note_on_c, 0, 68, 100
2, 31792, Note_on_c, 0, 68, 0
2, 31800, Note_on_c, 0, 65, 100
2, 31852, Note_on_c, 0, 65, 0
2, 31860, Note_on_c, 0, 63, 100
2, 31912, Note_on_c, 0, 63, 0
2, 31920, Note_on_c, 0, 62, 100
2, 31972, Note_on_c, 0, 62, 0
2, 31980, Note_on_c, 0, 63, 100
2, 32032, Note_on_c, 0, 63, 0
2, 32040, Note_on_c, 0, 65, 100
2, 32066, Note_on_c, 0, 65, 0
2, 32070, Note_on_c, 0, 67, 100
2, 32096, Note_on_c, 0, 67, 0
2, 32100, Note_on_c, 0, 60, 100
2, 32205, Note_on_c, 0, 60, 0
2, 32280, Note_on_c, 0, 80, 100
2, 32332, Note_on_c, 0, 80, 0
2, 32340, Note_on_c, 0, 79, 100
2, 32392, Note_on_c, 0, 79, 0
2, 32400, Note_on_c, 0, 77, 100
2, 32452, Note_on_c, 0, 77, 0
2, 32460, Note_on_c, 0, 79, 100
2, 32512, Note_on_c, 0, 79, 0
2, 32520, Note_on_c, 0, 74, 100
2, 32572, Note_on_c, 0, 74, 0
2, 32580, Note_on_c, 0, 76, 100
2, 32632, Note_on_c, 0, 76, 0
2, 32640, Note_on_c, 0, 72, 100
2, 32692, Note_on_c, 0, 72, 0
2, 32700, Note_on_c, 0, 73, 100
2, 32752, Note_on_c, 0, 73, 0
2, 32760, Note_on_c, 0, 70, 100
2, 32812, Note_on_c, 0, 70, 0
2, 32820, Note_on_c, 0, 68, 100
2, 32872, Note_on_c, 0, 68, 0
2, 32880, Note_on_c, 0, 67, 100
2, 32932, Note_on_c, 0, 67, 0
2, 32940, Note_on_c, 0, 68, 100
2, 32992, Note_on_c, 0, 68, 0
2, 33000, Note_on_c, 0, 70, 100
2, 33026, Note_on_c, 0, 70, 0
2, 33030, Note_on_c, 0, 72, 100
2, 33056, Note_on_c, 0, 72, 0
2, 33060, Note_on_c, 0, 65, 100
2, 33165, Note_on_c, 0, 65, 0
2, 33240, Note_on_c, 0, 60, 100
2, 33292, Note_on_c, 0, 60, 0
2, 33300, Note_on_c, 0, 65, 100
2, 33352, Note_on_c, 0, 65, 0
2, 33360, Note_on_c, 0, 67, 100
2, 33412, Note_on_c, 0, 67, 0
2, 33420, Note_on_c, 0, 68, 100
2, 33472, Note_on_c, 0, 68, 0
2, 33480, Note_on_c, 0, 64, 100
2, 33532, Note_on_c, 0, 64, 0
2, 33540, Note_on_c, 0, 65, 100
2, 33592, Note_on_c, 0, 65, 0
2, 33600, Note_on_c, 0, 60, 100
2, 33652, Note_on_c, 0, 60, 0
2, 33660, Note_on_c, 0, 61, 100
2, 33712, Note_on_c, 0, 61, 0
2, 33720, Note_on_c, 0, 72, 100
2, 33772, Note_on_c, 0, 72, 0
2, 33780, Note_on_c, 0, 70, 100
2, 33832, Note_on_c, 0, 70, 0
2, 33840, Note_on_c, 0, 68, 100
2, 33892, Note_on_c, 0, 68, 0
2, 33900, Note_on_c, 0, 70, 100
2, 33952, Note_on_c, 0, 70, 0
2, 33960, Note_on_c, 0, 65, 100
2, 34012, Note_on_c, 0, 65, 0
2, 34020, Note_on_c, 0, 67, 100
2, 34072, Note_on_c, 0, 67, 0
2, 34080, Note_on_c, 0, 62, 100
2, 34132, Note_on_c, 0, 62, 0
2, 34140, Note_on_c, 0, 64, 100
2, 34192, Note_on_c, 0, 64, 0
2, 34200, Note_on_c, 0, 73, 100
2, 34252, Note_on_c, 0, 73, 0
2, 34260, Note_on_c, 0, 72, 100
2, 34312, Note_on_c, 0, 72, 0
2, 34320, Note_on_c, 0, 70, 100
2, 34372, Note_on_c, 0, 70, 0
2, 34380, Note_on_c, 0, 72, 100
2, 34432, Note_on_c, 0, 72, 0
2, 34440, Note_on_c, 0, 67, 100
2, 34492, Note_on_c, 0, 67, 0
2, 34500, Note_on_c, 0, 68, 100
2, 34552, Note_on_c, 0, 68, 0
2, 34560, Note_on_c, 0, 64, 100
2, 34612, Note_on_c, 0, 64, 0
2, 34620, Note_on_c, 0, 65, 100
2, 34672, Note_on_c, 0, 65, 0
2, 34680, Note_on_c, 0, 75, 100
2, 34732, Note_on_c, 0, 75, 0
2, 34740, Note_on_c, 0, 73, 100
2, 34792, Note_on_c, 0, 73, 0
2, 34800, Note_on_c, 0, 72, 100
2, 34852, Note_on_c, 0, 72, 0
2, 34860, Note_on_c, 0, 73, 100
2, 34912, Note_on_c, 0, 73, 0
2, 34920, Note_on_c, 0, 69, 100
2, 34972, Note_on_c, 0, 69, 0
2, 34980, Note_on_c, 0, 70, 100
2, 35032, Note_on_c, 0, 70, 0
2, 35040, Note_on_c, 0, 67, 100
2, 35092, Note_on_c, 0, 67, 0
2, 35100, Note_on_c, 0, 79, 100
2, 35392, Note_on_c, 0, 79, 0
2, 35400, Note_on_c, 0, 72, 100
2, 35452, Note_on_c, 0, 72, 0
2, 35460, Note_on_c, 0, 77, 100
2, 35512, Note_on_c, 0, 77, 0
2, 35520, Note_on_c, 0, 76, 100
2, 35572, Note_on_c, 0, 76, 0
2, 35580, Note_on_c, 0, 80, 100
2, 35632, Note_on_c, 0, 80, 0
2, 35640, Note_on_c, 0, 79, 100
2, 35692, Note_on_c, 0, 79, 0
2, 35700, Note_on_c, 0, 77, 100
2, 35752, Note_on_c, 0, 77, 0
2, 35760, Note_on_c, 0, 76, 100
2, 35812, Note_on_c, 0, 76, 0
2, 35820, Note_on_c, 0, 77, 100
2, 35872, Note_on_c, 0, 77, 0
2, 35880, Note_on_c, 0, 72, 100
2, 35932, Note_on_c, 0, 72, 0
2, 35940, Note_on_c, 0, 75, 100
2, 35992, Note_on_c, 0, 75, 0
2, 36000, Note_on_c, 0, 73, 100
2, 36052, Note_on_c, 0, 73, 0
2, 36060, Note_on_c, 0, 82, 100
2, 36112, Note_on_c, 0, 82, 0
2, 36120, Note_on_c, 0, 80, 100
2, 36172, Note_on_c, 0, 80, 0
2, 36180, Note_on_c, 0, 79, 100
2, 36232, Note_on_c, 0, 79, 0
2, 36240, Note_on_c, 0, 77, 100
2, 36292, Note_on_c, 0, 77, 0
2, 36300, Note_on_c, 0, 76, 100
2, 36352, Note_on_c, 0, 76, 0
2, 36360, Note_on_c, 0, 77, 100
2, 36386, Note_on_c, 0, 77, 0
2, 36390, Note_on_c, 0, 79, 100
2, 36416, Note_on_c, 0, 79, 0
2, 36420, Note_on_c, 0, 72, 100
2, 36472, Note_on_c, 0, 72, 0
2, 36480, Note_on_c, 0, 70, 100
2, 36532, Note_on_c, 0, 70, 0
2, 36540, Note_on_c, 0, 68, 100
2, 36592, Note_on_c, 0, 68, 0
2, 36600, Note_on_c, 0, 77, 100
2, 36652, Note_on_c, 0, 77, 0
2, 36660, Note_on_c, 0, 67, 100
2, 36712, Note_on_c, 0, 67, 0
2, 36720, Note_on_c, 0, 76, 100
2, 36772, Note_on_c, 0, 76, 0
2, 36780, Note_on_c, 0, 77, 100
2, 37046, Note_on_c, 0, 77, 0
2, 37050, Note_on_c, 0, 79, 100
2, 37076, Note_on_c, 0, 79, 0
2, 37080, Note_on_c, 0, 77, 100
2, 37106, Note_on_c, 0, 77, 0
2, 37110, Note_on_c, 0, 76, 100
2, 37136, Note_on_c, 0, 76, 0
2, 37140, Note_on_c, 0, 77, 100
2, 37192, Note_on_c, 0, 77, 0
2, 37200, Note_on_c, 0, 79, 100
2, 37252, Note_on_c, 0, 79, 0
2, 37260, Note_on_c, 0, 80, 100
2, 37312, Note_on_c, 0, 80, 0
2, 37320, Note_on_c, 0, 76, 100
2, 37372, Note_on_c, 0, 76, 0
2, 37380, Note_on_c, 0, 77, 100
2, 37432, Note_on_c, 0, 77, 0
2, 37440, Note_on_c, 0, 72, 100
2, 37492, Note_on_c, 0, 72, 0
2, 37500, Note_on_c, 0, 68, 100
2, 37552, Note_on_c, 0, 68, 0
2, 37560, Note_on_c, 0, 65, 100
2, 37612, Note_on_c, 0, 65, 0
2, 37620, Note_on_c, 0, 75, 100
2, 37672, Note_on_c, 0, 75, 0
2, 37680, Note_on_c, 0, 72, 100
2, 37732, Note_on_c, 0, 72, 0
2, 37740, Note_on_c, 0, 74, 100
2, 37792, Note_on_c, 0, 74, 0
2, 37800, Note_on_c, 0, 69, 100
2, 37852, Note_on_c, 0, 69, 0
2, 37860, Note_on_c, 0, 70, 100
2, 37912, Note_on_c, 0, 70, 0
2, 37920, Note_on_c, 0, 74, 100
2, 37972, Note_on_c, 0, 74, 0
2, 37980, Note_on_c, 0, 77, 100
2, 38032, Note_on_c, 0, 77, 0
2, 38040, Note_on_c, 0, 80, 100
2, 38092, Note_on_c, 0, 80, 0
2, 38100, Note_on_c, 0, 79, 100
2, 38152, Note_on_c, 0, 79, 0
2, 38160, Note_on_c, 0, 77, 100
2, 38212, Note_on_c, 0, 77, 0
2, 38220, Note_on_c, 0, 79, 100
2, 38272, Note_on_c, 0, 79, 0
2, 38280, Note_on_c, 0, 74, 100
2, 38332, Note_on_c, 0, 74, 0
2, 38340, Note_on_c, 0, 75, 100
2, 38392, Note_on_c, 0, 75, 0
2, 38400, Note_on_c, 0, 70, 100
2, 38452, Note_on_c, 0, 70, 0
2, 38460, Note_on_c, 0, 67, 100
2, 38512, Note_on_c, 0, 67, 0
2, 38520, Note_on_c, 0, 63, 100
2, 38572, Note_on_c, 0, 63, 0
2, 38580, Note_on_c, 0, 74, 100
2, 38632, Note_on_c, 0, 74, 0
2, 38640, Note_on_c, 0, 71, 100
2, 38692, Note_on_c, 0, 71, 0
2, 38700, Note_on_c, 0, 72, 100
2, 38752, Note_on_c, 0, 72, 0
2, 38760, Note_on_c, 0, 67, 100
2, 38812, Note_on_c, 0, 67, 0
2, 38820, Note_on_c, 0, 68, 100
2, 38872, Note_on_c, 0, 68, 0
2, 38880, Note_on_c, 0, 72, 100
2, 38932, Note_on_c, 0, 72, 0
2, 38940, Note_on_c, 0, 75, 100
2, 38992, Note_on_c, 0, 75, 0
2, 39000, Note_on_c, 0, 79, 100
2, 39052, Note_on_c, 0, 79, 0
2, 39060, Note_on_c, 0, 77, 100
2, 39112, Note_on_c, 0, 77, 0
2, 39120, Note_on_c, 0, 75, 100
2, 39172, Note_on_c, 0, 75, 0
2, 39180, Note_on_c, 0, 77, 100
2, 39232, Note_on_c, 0, 77, 0
2, 39240, Note_on_c, 0, 72, 100
2, 39292, Note_on_c, 0, 72, 0
2, 39300, Note_on_c, 0, 74, 100
2, 39352, Note_on_c, 0, 74, 0
2, 39360, Note_on_c, 0, 68, 100
2, 39412, Note_on_c, 0, 68, 0
2, 39420, Note_on_c, 0, 65, 100
2, 39472, Note_on_c, 0, 65, 0
2, 39480, Note_on_c, 0, 62, 100
2, 39532, Note_on_c, 0, 62, 0
2, 39540, Note_on_c, 0, 72, 100
2, 39592, Note_on_c, 0, 72, 0
2, 39600, Note_on_c, 0, 69, 100
2, 39652, Note_on_c, 0, 69, 0
2, 39660, Note_on_c, 0, 71, 100
2, 39712, Note_on_c, 0, 71, 0
2, 39720, Note_on_c, 0, 66, 100
2, 39772, Note_on_c, 0, 66, 0
2, 39780, Note_on_c, 0, 67, 100
2, 39832, Note_on_c, 0, 67, 0
2, 39840, Note_on_c, 0, 71, 100
2, 39892, Note_on_c, 0, 71, 0
2, 39900, Note_on_c, 0, 74, 100
2, 39952, Note_on_c, 0, 74, 0
2, 39960, Note_on_c, 0, 77, 100
2, 40012, Note_on_c, 0, 77, 0
2, 40020, Note_on_c, 0, 75, 100
2, 40072, Note_on_c, 0, 75, 0
2, 40080, Note_on_c, 0, 74, 100
2, 40132, Note_on_c, 0, 74, 0
2, 40140, Note_on_c, 0, 75, 100
2, 40192, Note_on_c, 0, 75, 0
2, 40200, Note_on_c, 0, 71, 100
2, 40252, Note_on_c, 0, 71, 0
2, 40260, Note_on_c, 0, 72, 100
2, 40312, Note_on_c, 0, 72, 0
2, 40320, Note_on_c, 0, 68, 100
2, 40372, Note_on_c, 0, 68, 0
2, 40380, Note_on_c, 0, 67, 100
2, 40432, Note_on_c, 0, 67, 0
2, 40440, Note_on_c, 0, 65, 100
2, 40492, Note_on_c, 0, 65, 0
2, 40500, Note_on_c, 0, 75, 100
2, 40552, Note_on_c, 0, 75, 0
2, 40560, Note_on_c, 0, 74, 100
2, 40612, Note_on_c, 0, 74, 0
2, 40620, Note_on_c, 0, 72, 100
2, 40672, Note_on_c, 0, 72, 0
2, 40680, Note_on_c, 0, 71, 100
2, 40732, Note_on_c, 0, 71, 0
2, 40740, Note_on_c, 0, 72, 100
2, 40792, Note_on_c, 0, 72, 0
2, 40800, Note_on_c, 0, 74, 100
2, 40852, Note_on_c, 0, 74, 0
2, 40860, Note_on_c, 0, 67, 100
2, 40965, Note_on_c, 0, 67, 0
2, 40980, Note_on_c, 0, 74, 100
2, 41085, Note_on_c, 0, 74, 0
2, 41100, Note_on_c, 0, 75, 100
2, 41152, Note_on_c, 0, 75, 0
2, 41160, Note_on_c, 0, 79, 100
2, 41212, Note_on_c, 0, 79, 0
2, 41220, Note_on_c, 0, 84, 100
2, 41272, Note_on_c, 0, 84, 0
2, 41280, Note_on_c, 0, 79, 100
2, 41332, Note_on_c, 0, 79, 0
2, 41340, Note_on_c, 0, 75, 100
2, 41392, Note_on_c, 0, 75, 0
2, 41400, Note_on_c, 0, 74, 100
2, 41452, Note_on_c, 0, 74, 0
2, 41460, Note_on_c, 0, 72, 100
2, 41512, Note_on_c, 0, 72, 0
2, 41520, Note_on_c, 0, 71, 100
2, 41572, Note_on_c, 0, 71, 0
2, 41580, Note_on_c, 0, 72, 100
2, 41632, Note_on_c, 0, 72, 0
2, 41640, Note_on_c, 0, 75, 100
2, 41692, Note_on_c, 0, 75, 0
2, 41700, Note_on_c, 0, 79, 100
2, 41872, Note_on_c, 0, 79, 0
2, 41880, Note_on_c, 0, 70, 100
2, 41932, Note_on_c, 0, 70, 0
2, 41940, Note_on_c, 0, 68, 100
2, 41992, Note_on_c, 0, 68, 0
2, 42000, Note_on_c, 0, 67, 100
2, 42052, Note_on_c, 0, 67, 0
2, 42060, Note_on_c, 0, 68, 100
2, 42112, Note_on_c, 0, 68, 0
2, 42120, Note_on_c, 0, 72, 100
2, 42172, Note_on_c, 0, 72, 0
2, 42180, Note_on_c, 0, 77, 100
2, 42232, Note_on_c, 0, 77, 0
2, 42240, Note_on_c, 0, 72, 100
2, 42292, Note_on_c, 0, 72, 0
2, 42300, Note_on_c, 0, 68, 100
2, 42352, Note_on_c, 0, 68, 0
2, 42360, Note_on_c, 0, 67, 100
2, 42412, Note_on_c, 0, 67, 0
2, 42420, Note_on_c, 0, 65, 100
2, 42472, Note_on_c, 0, 65, 0
2, 42480, Note_on_c, 0, 64, 100
2, 42532, Note_on_c, 0, 64, 0
2, 42540, Note_on_c, 0, 65, 100
2, 42592, Note_on_c, 0, 65, 0
2, 42600, Note_on_c, 0, 71, 100
2, 42652, Note_on_c, 0, 71, 0
2, 42660, Note_on_c, 0, 74, 100
2, 42832, Note_on_c, 0, 74, 0
2, 42840, Note_on_c, 0, 65, 100
2, 42892, Note_on_c, 0, 65, 0
2, 42900, Note_on_c, 0, 63, 100
2, 42952, Note_on_c, 0, 63, 0
2, 42960, Note_on_c, 0, 62, 100
2, 43012, Note_on_c, 0, 62, 0
2, 43020, Note_on_c, 0, 60, 100
2, 43125, Note_on_c, 0, 60, 0
2, 43140, Note_on_c, 0, 75, 100
2, 43245, Note_on_c, 0, 75, 0
2, 43260, Note_on_c, 0, 68, 100
2, 43365, Note_on_c, 0, 68, 0
2, 43380, Note_on_c, 0, 67, 100
2, 43485, Note_on_c, 0, 67, 0
2, 43500, Note_on_c, 0, 62, 100
2, 43605, Note_on_c, 0, 62, 0
2, 43620, Note_on_c, 0, 77, 100
2, 43725, Note_on_c, 0, 77, 0
2, 43740, Note_on_c, 0, 68, 100
2, 43845, Note_on_c, 0, 68, 0
2, 43860, Note_on_c, 0, 67, 100
2, 43965, Note_on_c, 0, 67, 0
2, 43980, Note_on_c, 0, 63, 100
2, 44085, Note_on_c, 0, 63, 0
2, 44100, Note_on_c, 0, 79, 100
2, 44205, Note_on_c, 0, 79, 0
2, 44220, Note_on_c, 0, 68, 100
2, 44325, Note_on_c, 0, 68, 0
2, 44340, Note_on_c, 0, 67, 100
2, 44445, Note_on_c, 0, 67, 0
2, 44460, Note_on_c, 0, 65, 100
2, 44565, Note_on_c, 0, 65, 0
2, 44580, Note_on_c, 0, 80, 100
2, 44632, Note_on_c, 0, 80, 0
2, 44640, Note_on_c, 0, 79, 100
2, 44692, Note_on_c, 0, 79, 0
2, 44700, Note_on_c, 0, 80, 100
2, 44752, Note_on_c, 0, 80, 0
2, 44760, Note_on_c, 0, 79, 100
2, 44812, Note_on_c, 0, 79, 0
2, 44820, Note_on_c, 0, 78, 100
2, 44872, Note_on_c, 0, 78, 0
2, 44880, Note_on_c, 0, 79, 100
2, 44932, Note_on_c, 0, 79, 0
2, 44940, Note_on_c, 0, 79, 100
2, 44992, Note_on_c, 0, 79, 0
2, 45000, Note_on_c, 0, 78, 100
2, 45028, Note_on_c, 0, 78, 0
2, 45030, Note_on_c, 0, 79, 100
2, 45043, Note_on_c, 0, 79, 0
2, 45045, Note_on_c, 0, 78, 100
2, 45058, Note_on_c, 0, 78, 0
2, 45060, Note_on_c, 0, 79, 100
2, 45073, Note_on_c, 0, 79, 0
2, 45075, Note_on_c, 0, 78, 100
2, 45088, Note_on_c, 0, 78, 0
2, 45090, Note_on_c, 0, 79, 100
2, 45103, Note_on_c, 0, 79, 0
2, 45105, Note_on_c, 0, 78, 100
2, 45118, Note_on_c, 0, 78, 0
2, 45120, Note_on_c, 0, 79, 100
2, 45133, Note_on_c, 0, 79, 0
2, 45135, Note_on_c, 0, 78, 100
2, 45148, Note_on_c, 0, 78, 0
2, 45150, Note_on_c, 0, 79, 100
2, 45163, Note_on_c, 0, 79, 0
2, 45165, Note_on_c, 0, 78, 100
2, 45178, Note_on_c, 0, 78, 0
2, 45180, Note_on_c, 0, 79, 100
2, 45193, Note_on_c, 0, 79, 0
2, 45195, Note_on_c, 0, 78, 100
2, 45208, Note_on_c, 0, 78, 0
2, 45210, Note_on_c, 0, 79, 100
2, 45223, Note_on_c, 0, 79, 0
2, 45225, Note_on_c, 0, 78, 100
2, 45238, Note_on_c, 0, 78, 0
2, 45240, Note_on_c, 0, 79, 100
2, 45253, Note_on_c, 0, 79, 0
2, 45255, Note_on_c, 0, 78, 100
2, 45268, Note_on_c, 0, 78, 0
2, 45270, Note_on_c, 0, 79, 100
2, 45283, Note_on_c, 0, 79, 0
2, 45285, Note_on_c, 0, 78, 100
2, 45352, Note_on_c, 0, 78, 0
2, 45360, Note_on_c, 0, 76, 100
2, 45386, Note_on_c, 0, 76, 0
2, 45390, Note_on_c, 0, 78, 100
2, 45416, Note_on_c, 0, 78, 0
2, 45420, Note_on_c, 0, 79, 100
2, 45472, Note_on_c, 0, 79, 0
2, 45480, Note_on_c, 0, 74, 100
2, 45532, Note_on_c, 0, 74, 0
2, 45540, Note_on_c, 0, 77, 100
2, 45592, Note_on_c, 0, 77, 0
2, 45600, Note_on_c, 0, 75, 100
2, 45652, Note_on_c, 0, 75, 0
2, 45660, Note_on_c, 0, 74, 100
2, 45712, Note_on_c, 0, 74, 0
2, 45720, Note_on_c, 0, 72, 100
2, 45772, Note_on_c, 0, 72, 0
2, 45780, Note_on_c, 0, 71, 100
2, 45832, Note_on_c, 0, 71, 0
2, 45840, Note_on_c, 0, 69, 100
2, 45892, Note_on_c, 0, 69, 0
2, 45900, Note_on_c, 0, 67, 100
2, 46005, Note_on_c, 0, 67, 0
2, 46020, Note_on_c, 0, 79, 100
2, 46125, Note_on_c, 0, 79, 0
2, 46140, Note_on_c, 0, 75, 100
2, 46245, Note_on_c, 0, 75, 0
2, 46260, Note_on_c, 0, 74, 100
2, 46312, Note_on_c, 0, 74, 0
2, 46320, Note_on_c, 0, 72, 100
2, 46372, Note_on_c, 0, 72, 0
2, 46380, Note_on_c, 0, 72, 100
2, 46845, Note_on_c, 0, 72, 0
2, 46860, Program_c, 0, 11
2, 46920, Control_c, 0, 10, 10
2, 46920, Note_on_c, 0, 75, 100
2, 46972, Note_on_c, 0, 75, 0
2, 46980, Note_on_c, 0, 74, 100
2, 47032, Note_on_c, 0, 74, 0
2, 47040, Note_on_c, 0, 72, 100
2, 47092, Note_on_c, 0, 72, 0
2, 47100, Note_on_c, 0, 74, 100
2, 47152, Note_on_c, 0, 74, 0
2, 47160, Note_on_c, 0, 69, 100
2, 47212, Note_on_c, 0, 69, 0
2, 47220, Note_on_c, 0, 71, 100
2, 47272, Note_on_c, 0, 71, 0
2, 47280, Note_on_c, 0, 67, 100
2, 47332, Note_on_c, 0, 67, 0
2, 47340, Note_on_c, 0, 68, 100
2, 47392, Note_on_c, 0, 68, 0
2, 47880, Note_on_c, 0, 80, 100
2, 47932, Note_on_c, 0, 80, 0
2, 47940, Note_on_c, 0, 79, 100
2, 47992, Note_on_c, 0, 79, 0
2, 48000, Note_on_c, 0, 77, 100
2, 48052, Note_on_c, 0, 77, 0
2, 48060, Note_on_c, 0, 79, 100
2, 48112, Note_on_c, 0, 79, 0
2, 48120, Note_on_c, 0, 74, 100
2, 48172, Note_on_c, 0, 74, 0
2, 48180, Note_on_c, 0, 76, 100
2, 48232, Note_on_c, 0, 76, 0
2, 48240, Note_on_c, 0, 72, 100
2, 48292, Note_on_c, 0, 72, 0
2, 48300, Note_on_c, 0, 73, 100
2, 48352, Note_on_c, 0, 73, 0
2, 48840, Note_on_c, 0, 60, 100
2, 48892, Note_on_c, 0, 60, 0
2, 48900, Note_on_c, 0, 65, 100
2, 48952, Note_on_c, 0, 65, 0
2, 48960, Note_on_c, 0, 67, 100
2, 49012, Note_on_c, 0, 67, 0
2, 49020, Note_on_c, 0, 68, 100
2, 49072, Note_on_c, 0, 68, 0
2, 49320, Note_on_c, 0, 72, 100
2, 49372, Note_on_c, 0, 72, 0
2, 49380, Note_on_c, 0, 70, 100
2, 49432, Note_on_c, 0, 70, 0
2, 49440, Note_on_c, 0, 68, 100
2, 49492, Note_on_c, 0, 68, 0
2, 49500, Note_on_c, 0, 70, 100
2, 49552, Note_on_c, 0, 70, 0
2, 49800, Note_on_c, 0, 73, 100
2, 49852, Note_on_c, 0, 73, 0
2, 49860, Note_on_c, 0, 72, 100
2, 49912, Note_on_c, 0, 72, 0
2, 49920, Note_on_c, 0, 70, 100
2, 49972, Note_on_c, 0, 70, 0
2, 49980, Note_on_c, 0, 72, 100
2, 50032, Note_on_c, 0, 72, 0
2, 50280, Note_on_c, 0, 75, 100
2, 50332, Note_on_c, 0, 75, 0
2, 50340, Note_on_c, 0, 73, 100
2, 50392, Note_on_c, 0, 73, 0
2, 50400, Note_on_c, 0, 72, 100
2, 50452, Note_on_c, 0, 72, 0
2, 50460, Note_on_c, 0, 73, 100
2, 50512, Note_on_c, 0, 73, 0
2, 50700, Note_on_c, 0, 79, 100
2, 50992, Note_on_c, 0, 79, 0
2, 51180, Note_on_c, 0, 80, 100
2, 51232, Note_on_c, 0, 80, 0
2, 51240, Note_on_c, 0, 79, 100
2, 51292, Note_on_c, 0, 79, 0
2, 51300, Note_on_c, 0, 77, 100
2, 51352, Note_on_c, 0, 77, 0
2, 51360, Note_on_c, 0, 76, 100
2, 51412, Note_on_c, 0, 76, 0
2, 51420, Note_on_c, 0, 77, 100
2, 51472, Note_on_c, 0, 77, 0
2, 51660, Note_on_c, 0, 82, 100
2, 51712, Note_on_c, 0, 82, 0
2, 51720, Note_on_c, 0, 80, 100
2, 51772, Note_on_c, 0, 80, 0
2, 51780, Note_on_c, 0, 79, 100
2, 51832, Note_on_c, 0, 79, 0
2, 51840, Note_on_c, 0, 77, 100
2, 51892, Note_on_c, 0, 77, 0
2, 51900, Note_on_c, 0, 76, 100
2, 51952, Note_on_c, 0, 76, 0
2, 51960, Note_on_c, 0, 77, 100
2, 51986, Note_on_c, 0, 77, 0
2, 51990, Note_on_c, 0, 79, 100
2, 52016, Note_on_c, 0, 79, 0
2, 52200, Note_on_c, 0, 77, 100
2, 52252, Note_on_c, 0, 77, 0
2, 52320, Note_on_c, 0, 76, 100
2, 52372, Note_on_c, 0, 76, 0
2, 52380, Note_on_c, 0, 77, 100
2, 52646, Note_on_c, 0, 77, 0
2, 52650, Note_on_c, 0, 79, 100
2, 52676, Note_on_c, 0, 79, 0
2, 52680, Note_on_c, 0, 77, 100
2, 52706, Note_on_c, 0, 77, 0
2, 52710, Note_on_c, 0, 76, 100
2, 52736, Note_on_c, 0, 76, 0
2, 52740, Note_on_c, 0, 77, 100
2, 52792, Note_on_c, 0, 77, 0
2, 52800, Note_on_c, 0, 79, 100
2, 52852, Note_on_c, 0, 79, 0
2, 52860, Note_on_c, 0, 80, 100
2, 52912, Note_on_c, 0, 80, 0
2, 53220, Note_on_c, 0, 75, 100
2, 53272, Note_on_c, 0, 75, 0
2, 53280, Note_on_c, 0, 72, 100
2, 53332, Note_on_c, 0, 72, 0
2, 53340, Note_on_c, 0, 74, 100
2, 53392, Note_on_c, 0, 74, 0
2, 53640, Note_on_c, 0, 80, 100
2, 53692, Note_on_c, 0, 80, 0
2, 53700, Note_on_c, 0, 79, 100
2, 53752, Note_on_c, 0, 79, 0
2, 53760, Note_on_c, 0, 77, 100
2, 53812, Note_on_c, 0, 77, 0
2, 53820, Note_on_c, 0, 79, 100
2, 53872, Note_on_c, 0, 79, 0
2, 54180, Note_on_c, 0, 74, 100
2, 54232, Note_on_c, 0, 74, 0
2, 54240, Note_on_c, 0, 71, 100
2, 54292, Note_on_c, 0, 71, 0
2, 54300, Note_on_c, 0, 72, 100
2, 54352, Note_on_c, 0, 72, 0
2, 54600, Note_on_c, 0, 79, 100
2, 54652, Note_on_c, 0, 79, 0
2, 54660, Note_on_c, 0, 77, 100
2, 54712, Note_on_c, 0, 77, 0
2, 54720, Note_on_c, 0, 75, 100
2, 54772, Note_on_c, 0, 75, 0
2, 54780, Note_on_c, 0, 77, 100
2, 54832, Note_on_c, 0, 77, 0
2, 55140, Note_on_c, 0, 72, 100
2, 55192, Note_on_c, 0, 72, 0
2, 55200, Note_on_c, 0, 69, 100
2, 55252, Note_on_c, 0, 69, 0
2, 55260, Note_on_c, 0, 71, 100
2, 55312, Note_on_c, 0, 71, 0
2, 55560, Note_on_c, 0, 77, 100
2, 55612, Note_on_c, 0, 77, 0
2, 55620, Note_on_c, 0, 75, 100
2, 55672, Note_on_c, 0, 75, 0
2, 55680, Note_on_c, 0, 74, 100
2, 55732, Note_on_c, 0, 74, 0
2, 55740, Note_on_c, 0, 75, 100
2, 55792, Note_on_c, 0, 75, 0
2, 56100, Note_on_c, 0, 75, 100
2, 56152, Note_on_c, 0, 75, 0
2, 56160, Note_on_c, 0, 74, 100
2, 56212, Note_on_c, 0, 74, 0
2, 56220, Note_on_c, 0, 72, 100
2, 56272, Note_on_c, 0, 72, 0
2, 56280, Note_on_c, 0, 71, 100
2, 56332, Note_on_c, 0, 71, 0
2, 56340, Note_on_c, 0, 72, 100
2, 56392, Note_on_c, 0, 72, 0
2, 56400, Note_on_c, 0, 74, 100
2, 56452, Note_on_c, 0, 74, 0
2, 56460, Note_on_c, 0, 67, 100
2, 56565, Note_on_c, 0, 67, 0
2, 56580, Note_on_c, 0, 74, 100
2, 56685, Note_on_c, 0, 74, 0
2, 56700, Note_on_c, 0, 75, 100
2, 56752, Note_on_c, 0, 75, 0
2, 56760, Note_on_c, 0, 79, 100
2, 56812, Note_on_c, 0, 79, 0
2, 56820, Note_on_c, 0, 84, 100
2, 56872, Note_on_c, 0, 84, 0
2, 56880, Note_on_c, 0, 79, 100
2, 56932, Note_on_c, 0, 79, 0
2, 56940, Note_on_c, 0, 75, 100
2, 56992, Note_on_c, 0, 75, 0
2, 57000, Note_on_c, 0, 74, 100
2, 57052, Note_on_c, 0, 74, 0
2, 57060, Note_on_c, 0, 72, 100
2, 57112, Note_on_c, 0, 72, 0
2, 57120, Note_on_c, 0, 71, 100
2, 57172, Note_on_c, 0, 71, 0
2, 57180, Note_on_c, 0, 72, 100
2, 57232, Note_on_c, 0, 72, 0
2, 57240, Note_on_c, 0, 75, 100
2, 57292, Note_on_c, 0, 75, 0
2, 57300, Note_on_c, 0, 79, 100
2, 57472, Note_on_c, 0, 79, 0
2, 57720, Note_on_c, 0, 72, 100
2, 57772, Note_on_c, 0, 72, 0
2, 57780, Note_on_c, 0, 77, 100
2, 57832, Note_on_c, 0, 77, 0
2, 57840, Note_on_c, 0, 72, 100
2, 57892, Note_on_c, 0, 72, 0
2, 57900, Note_on_c, 0, 68, 100
2, 57952, Note_on_c, 0, 68, 0
2, 57960, Note_on_c, 0, 67, 100
2, 58012, Note_on_c, 0, 67, 0
2, 58020, Note_on_c, 0, 65, 100
2, 58072, Note_on_c, 0, 65, 0
2, 58080, Note_on_c, 0, 64, 100
2, 58132, Note_on_c, 0, 64, 0
2, 58140, Note_on_c, 0, 65, 100
2, 58192, Note_on_c, 0, 65, 0
2, 58200, Note_on_c, 0, 71, 100
2, 58252, Note_on_c, 0, 71, 0
2, 58260, Note_on_c, 0, 74, 100
2, 58432, Note_on_c, 0, 74, 0
2, 58740, Note_on_c, 0, 75, 100
2, 58845, Note_on_c, 0, 75, 0
2, 59220, Note_on_c, 0, 77, 100
2, 59325, Note_on_c, 0, 77, 0
2, 59700, Note_on_c, 0, 79, 100
2, 59805, Note_on_c, 0, 79, 0
2, 60180, Note_on_c, 0, 80, 100
2, 60232, Note_on_c, 0, 80, 0
2, 60240, Note_on_c, 0, 79, 100
2, 60292, Note_on_c, 0, 79, 0
2, 60300, Note_on_c, 0, 80, 100
2, 60352, Note_on_c, 0, 80, 0
2, 60360, Note_on_c, 0, 79, 100
2, 60412, Note_on_c, 0, 79, 0
2, 60420, Note_on_c, 0, 78, 100
2, 60472, Note_on_c, 0, 78, 0
2, 60480, Note_on_c, 0, 79, 100
2, 60532, Note_on_c, 0, 79, 0
2, 60540, Note_on_c, 0, 79, 100
2, 60592, Note_on_c, 0, 79, 0
2, 60600, Note_on_c, 0, 78, 100
2, 60628, Note_on_c, 0, 78, 0
2, 60630, Note_on_c, 0, 79, 100
2, 60643, Note_on_c, 0, 79, 0
2, 60645, Note_on_c, 0, 78, 100
2, 60658, Note_on_c, 0, 78, 0
2, 60660, Note_on_c, 0, 79, 100
2, 60673, Note_on_c, 0, 79, 0
2, 60675, Note_on_c, 0, 78, 100
2, 60688, Note_on_c, 0, 78, 0
2, 60690, Note_on_c, 0, 79, 100
2, 60703, Note_on_c, 0, 79, 0
2, 60705, Note_on_c, 0, 78, 100
2, 60718, Note_on_c, 0, 78, 0
2, 60720, Note_on_c, 0, 79, 100
2, 60733, Note_on_c, 0, 79, 0
2, 60735, Note_on_c, 0, 78, 100
2, 60748, Note_on_c, 0, 78, 0
2, 60750, Note_on_c, 0, 79, 100
2, 60763, Note_on_c, 0, 79, 0
2, 60765, Note_on_c, 0, 78, 100
2, 60778, Note_on_c, 0, 78, 0
2, 60780, Note_on_c, 0, 79, 100
2, 60793, Note_on_c, 0, 79, 0
2, 60795, Note_on_c, 0, 78, 100
2, 60808, Note_on_c, 0, 78, 0
2, 60810, Note_on_c, 0, 79, 100
2, 60823, Note_on_c, 0, 79, 0
2, 60825, Note_on_c, 0, 78, 100
2, 60838, Note_on_c, 0, 78, 0
2, 60840, Note_on_c, 0, 79, 100
2, 60853, Note_on_c, 0, 79, 0
2, 60855, Note_on_c, 0, 78, 100
2, 60868, Note_on_c, 0, 78, 0
2, 60870, Note_on_c, 0, 79, 100
2, 60883, Note_on_c, 0, 79, 0
2, 60885, Note_on_c, 0, 78, 100
2, 60952, Note_on_c, 0, 78, 0
2, 60960, Note_on_c, 0, 76, 100
2, 60986, Note_on_c, 0, 76, 0
2, 60990, Note_on_c, 0, 78, 100
2, 61016, Note_on_c, 0, 78, 0
2, 61020, Note_on_c, 0, 79, 100
2, 61072, Note_on_c, 0, 79, 0
2, 61620, Note_on_c, 0, 79, 100
2, 61725, Note_on_c, 0, 79, 0
2, 61740, Note_on_c, 0, 75, 100
2, 61845, Note_on_c, 0, 75, 0
2, 61860, Note_on_c, 0, 74, 100
2, 61912, Note_on_c, 0, 74, 0
2, 61920, Note_on_c, 0, 72, 100
2, 61972, Note_on_c, 0, 72, 0
2, 61980, Note_on_c, 0, 72, 100
2, 62445, Note_on_c, 0, 72, 0
2, 62445, End_track
3, 0, Start_track
3, 0, MIDI_port, 0
3, 0, Program_c, 1, 11
3, 0, Control_c, 1, 7, 110
3, 0, Control_c, 1, 10, 40
3, 4020, Program_c, 1, 71
3, 4200, Note_on_c, 1, 71, 100
3, 4252, Note_on_c, 1, 71, 0
3, 4260, Note_on_c, 1, 72, 100
3, 4312, Note_on_c, 1, 72, 0
3, 4320, Note_on_c, 1, 67, 100
3, 4372, Note_on_c, 1, 67, 0
3, 4380, Note_on_c, 1, 68, 100
3, 4432, Note_on_c, 1, 68, 0
3, 4440, Note_on_c, 1, 63, 100
3, 4492, Note_on_c, 1, 63, 0
3, 4500, Note_on_c, 1, 65, 100
3, 4605, Note_on_c, 1, 65, 0
3, 4680, Note_on_c, 1, 67, 100
3, 4732, Note_on_c, 1, 67, 0
3, 4740, Note_on_c, 1, 68, 100
3, 4792, Note_on_c, 1, 68, 0
3, 4800, Note_on_c, 1, 65, 100
3, 4852, Note_on_c, 1, 65, 0
3, 4860, Note_on_c, 1, 67, 100
3, 4912, Note_on_c, 1, 67, 0
3, 4920, Note_on_c, 1, 62, 100
3, 4972, Note_on_c, 1, 62, 0
3, 4980, Note_on_c, 1, 63, 100
3, 5152, Note_on_c, 1, 63, 0
3, 5160, Note_on_c, 1, 65, 100
3, 5186, Note_on_c, 1, 65, 0
3, 5190, Note_on_c, 1, 67, 100
3, 5216, Note_on_c, 1, 67, 0
3, 5220, Note_on_c, 1, 68, 100
3, 5272, Note_on_c, 1, 68, 0
3, 5280, Note_on_c, 1, 65, 100
3, 5332, Note_on_c, 1, 65, 0
3, 5340, Note_on_c, 1, 62, 100
3, 5392, Note_on_c, 1, 62, 0
3, 5400, Note_on_c, 1, 65, 100
3, 5632, Note_on_c, 1, 65, 0
3, 5640, Note_on_c, 1, 65, 100
3, 5692, Note_on_c, 1, 65, 0
3, 5700, Note_on_c, 1, 63, 100
3, 5752, Note_on_c, 1, 63, 0
3, 5760, Note_on_c, 1, 62, 100
3, 5812, Note_on_c, 1, 62, 0
3, 5820, Note_on_c, 1, 63, 100
3, 5925, Note_on_c, 1, 63, 0
3, 5940, Note_on_c, 1, 65, 100
3, 6045, Note_on_c, 1, 65, 0
3, 6060, Note_on_c, 1, 63, 100
3, 6285, Note_on_c, 1, 63, 0
3, 6600, Note_on_c, 1, 65, 100
3, 6652, Note_on_c, 1, 65, 0
3, 6660, Note_on_c, 1, 67, 100
3, 6712, Note_on_c, 1, 67, 0
3, 6720, Note_on_c, 1, 62, 100
3, 6772, Note_on_c, 1, 62, 0
3, 6780, Note_on_c, 1, 63, 100
3, 6885, Note_on_c, 1, 63, 0
3, 7560, Note_on_c, 1, 69, 100
3, 7612, Note_on_c, 1, 69, 0
3, 7620, Note_on_c, 1, 70, 100
3, 7845, Note_on_c, 1, 70, 0
3, 7860, Note_on_c, 1, 66, 100
3, 7965, Note_on_c, 1, 66, 0
3, 7980, Note_on_c, 1, 67, 100
3, 8205, Note_on_c, 1, 67, 0
3, 8460, Note_on_c, 1, 69, 100
3, 8685, Note_on_c, 1, 69, 0
3, 8940, Note_on_c, 1, 70, 100
3, 9165, Note_on_c, 1, 70, 0
3, 9420, Note_on_c, 1, 72, 100
3, 9645, Note_on_c, 1, 72, 0
3, 14820, Note_on_c, 1, 62, 100
3, 14820, Note_on_c, 1, 67, 100
3, 14925, Note_on_c, 1, 67, 0
3, 14925, Note_on_c, 1, 62, 0
3, 14940, Note_on_c, 1, 62, 100
3, 14940, Note_on_c, 1, 67, 100
3, 15045, Note_on_c, 1, 67, 0
3, 15045, Note_on_c, 1, 62, 0
3, 15060, Note_on_c, 1, 60, 100
3, 15060, Note_on_c, 1, 66, 100
3, 15165, Note_on_c, 1, 66, 0
3, 15165, Note_on_c, 1, 60, 0
3, 15240, Note_on_c, 1, 62, 100
3, 15300, Note_on_c, 1, 59, 100
3, 15645, Note_on_c, 1, 59, 0
3, 15645, Note_on_c, 1, 62, 0
3, 19620, Program_c, 1, 11
3, 19800, Note_on_c, 1, 71, 100
3, 19852, Note_on_c, 1, 71, 0
3, 19860, Note_on_c, 1, 72, 100
3, 19912, Note_on_c, 1, 72, 0
3, 19920, Note_on_c, 1, 67, 100
3, 19972, Note_on_c, 1, 67, 0
3, 19980, Note_on_c, 1, 68, 100
3, 20032, Note_on_c, 1, 68, 0
3, 20040, Note_on_c, 1, 63, 100
3, 20092, Note_on_c, 1, 63, 0
3, 20100, Note_on_c, 1, 65, 100
3, 20205, Note_on_c, 1, 65, 0
3, 20280, Note_on_c, 1, 67, 100
3, 20332, Note_on_c, 1, 67, 0
3, 20340, Note_on_c, 1, 68, 100
3, 20392, Note_on_c, 1, 68, 0
3, 20400, Note_on_c, 1, 65, 100
3, 20452, Note_on_c, 1, 65, 0
3, 20460, Note_on_c, 1, 67, 100
3, 20512, Note_on_c, 1, 67, 0
3, 20520, Note_on_c, 1, 62, 100
3, 20572, Note_on_c, 1, 62, 0
3, 20580, Note_on_c, 1, 63, 100
3, 20752, Note_on_c, 1, 63, 0
3, 20760, Note_on_c, 1, 65, 100
3, 20786, Note_on_c, 1, 65, 0
3, 20790, Note_on_c, 1, 67, 100
3, 20816, Note_on_c, 1, 67, 0
3, 20820, Note_on_c, 1, 68, 100
3, 20872, Note_on_c, 1, 68, 0
3, 20880, Note_on_c, 1, 65, 100
3, 20932, Note_on_c, 1, 65, 0
3, 20940, Note_on_c, 1, 62, 100
3, 20992, Note_on_c, 1, 62, 0
3, 21000, Note_on_c, 1, 65, 100
3, 21232, Note_on_c, 1, 65, 0
3, 21240, Note_on_c, 1, 65, 100
3, 21292, Note_on_c, 1, 65, 0
3, 21300, Note_on_c, 1, 63, 100
3, 21352, Note_on_c, 1, 63, 0
3, 21360, Note_on_c, 1, 62, 100
3, 21412, Note_on_c, 1, 62, 0
3, 21420, Note_on_c, 1, 63, 100
3, 21525, Note_on_c, 1, 63, 0
3, 21540, Note_on_c, 1, 65, 100
3, 21645, Note_on_c, 1, 65, 0
3, 21660, Note_on_c, 1, 63, 100
3, 21885, Note_on_c, 1, 63, 0
3, 22200, Note_on_c, 1, 65, 100
3, 22252, Note_on_c, 1, 65, 0
3, 22260, Note_on_c, 1, 67, 100
3, 22312, Note_on_c, 1, 67, 0
3, 22320, Note_on_c, 1, 62, 100
3, 22372, Note_on_c, 1, 62, 0
3, 22380, Note_on_c, 1, 63, 100
3, 22485, Note_on_c, 1, 63, 0
3, 23160, Note_on_c, 1, 69, 100
3, 23212, Note_on_c, 1, 69, 0
3, 23220, Note_on_c, 1, 70, 100
3, 23445, Note_on_c, 1, 70, 0
3, 23460, Note_on_c, 1, 66, 100
3, 23565, Note_on_c, 1, 66, 0
3, 23580, Note_on_c, 1, 67, 100
3, 23805, Note_on_c, 1, 67, 0
3, 24060, Note_on_c, 1, 69, 100
3, 24285, Note_on_c, 1, 69, 0
3, 24540, Note_on_c, 1, 70, 100
3, 24765, Note_on_c, 1, 70, 0
3, 25020, Note_on_c, 1, 72, 100
3, 25245, Note_on_c, 1, 72, 0
3, 30420, Note_on_c, 1, 62, 100
3, 30420, Note_on_c, 1, 67, 100
3, 30525, Note_on_c, 1, 67, 0
3, 30525, Note_on_c, 1, 62, 0
3, 30540, Note_on_c, 1, 62, 100
3, 30540, Note_on_c, 1, 67, 100
3, 30645, Note_on_c, 1, 67, 0
3, 30645, Note_on_c, 1, 62, 0
3, 30660, Note_on_c, 1, 60, 100
3, 30660, Note_on_c, 1, 66, 100
3, 30765, Note_on_c, 1, 66, 0
3, 30765, Note_on_c, 1, 60, 0
3, 30840, Note_on_c, 1, 62, 100
3, 30900, Note_on_c, 1, 59, 100
3, 31245, Note_on_c, 1, 59, 0
3, 31245, Note_on_c, 1, 62, 0
3, 45300, Control_c, 1, 7, 127
3, 45780, Program_c, 1, 71
3, 46020, Note_on_c, 1, 67, 100
3, 46020, Note_on_c, 1, 72, 100
3, 46020, Note_on_c, 1, 75, 100
3, 46125, Note_on_c, 1, 75, 0
3, 46125, Note_on_c, 1, 72, 0
3, 46125, Note_on_c, 1, 67, 0
3, 46140, Note_on_c, 1, 67, 100
3, 46140, Note_on_c, 1, 72, 100
3, 46245, Note_on_c, 1, 72, 0
3, 46245, Note_on_c, 1, 67, 0
3, 46260, Note_on_c, 1, 65, 100
3, 46260, Note_on_c, 1, 71, 100
3, 46365, Note_on_c, 1, 71, 0
3, 46365, Note_on_c, 1, 65, 0
3, 46380, Note_on_c, 1, 63, 100
3, 46380, Note_on_c, 1, 67, 100
3, 46845, Note_on_c, 1, 67, 0
3, 46845, Note_on_c, 1, 63, 0
3, 61380, Program_c, 1, 11
3, 61620, Note_on_c, 1, 67, 100
3, 61620, Note_on_c, 1, 72, 100
3, 61620, Note_on_c, 1, 75, 100
3, 61725, Note_on_c, 1, 75, 0
3, 61725, Note_on_c, 1, 72, 0
3, 61725, Note_on_c, 1, 67, 0
3, 61740, Note_on_c, 1, 67, 100
3, 61740, Note_on_c, 1, 72, 100
3, 61845, Note_on_c, 1, 72, 0
3, 61845, Note_on_c, 1, 67, 0
3, 61860, Note_on_c, 1, 65, 100
3, 61860, Note_on_c, 1, 71, 100
3, 61965, Note_on_c, 1, 71, 0
3, 61965, Note_on_c, 1, 65, 0
3, 61980, Note_on_c, 1, 63, 100
3, 61980, Note_on_c, 1, 67, 100
3, 62445, Note_on_c, 1, 67, 0
3, 62445, Note_on_c, 1, 63, 0
3, 62445, End_track
4, 0, Start_track
4, 0, MIDI_port, 0
4, 0, Program_c, 2, 34
4, 0, Control_c, 2, 7, 90
4, 0, Control_c, 2, 10, 85
4, 180, Program_c, 2, 42
4, 280, Control_c, 2, 7, 90
4, 300, Note_on_c, 2, 48, 90
4, 405, Note_on_c, 2, 48, 0
4, 420, Note_on_c, 2, 36, 90
4, 525, Note_on_c, 2, 36, 0
4, 600, Note_on_c, 2, 68, 90
4, 652, Note_on_c, 2, 68, 0
4, 660, Note_on_c, 2, 67, 90
4, 712, Note_on_c, 2, 67, 0
4, 720, Note_on_c, 2, 65, 90
4, 772, Note_on_c, 2, 65, 0
4, 780, Note_on_c, 2, 67, 90
4, 832, Note_on_c, 2, 67, 0
4, 840, Note_on_c, 2, 62, 90
4, 892, Note_on_c, 2, 62, 0
4, 900, Note_on_c, 2, 63, 90
4, 952, Note_on_c, 2, 63, 0
4, 960, Note_on_c, 2, 59, 90
4, 1012, Note_on_c, 2, 59, 0
4, 1020, Note_on_c, 2, 60, 90
4, 1072, Note_on_c, 2, 60, 0
4, 1080, Note_on_c, 2, 65, 90
4, 1132, Note_on_c, 2, 65, 0
4, 1140, Note_on_c, 2, 63, 90
4, 1192, Note_on_c, 2, 63, 0
4, 1200, Note_on_c, 2, 62, 90
4, 1252, Note_on_c, 2, 62, 0
4, 1260, Note_on_c, 2, 63, 90
4, 1312, Note_on_c, 2, 63, 0
4, 1320, Note_on_c, 2, 59, 90
4, 1372, Note_on_c, 2, 59, 0
4, 1380, Note_on_c, 2, 60, 90
4, 1432, Note_on_c, 2, 60, 0
4, 1440, Note_on_c, 2, 55, 90
4, 1492, Note_on_c, 2, 55, 0
4, 1500, Note_on_c, 2, 56, 90
4, 1605, Note_on_c, 2, 56, 0
4, 1620, Note_on_c, 2, 53, 90
4, 1725, Note_on_c, 2, 53, 0
4, 1740, Note_on_c, 2, 55, 90
4, 1845, Note_on_c, 2, 55, 0
4, 1860, Note_on_c, 2, 43, 90
4, 2032, Note_on_c, 2, 43, 0
4, 2040, Note_on_c, 2, 53, 90
4, 2092, Note_on_c, 2, 53, 0
4, 2100, Note_on_c, 2, 51, 90
4, 2152, Note_on_c, 2, 51, 0
4, 2160, Note_on_c, 2, 50, 90
4, 2212, Note_on_c, 2, 50, 0
4, 2220, Note_on_c, 2, 51, 90
4, 2272, Note_on_c, 2, 51, 0
4, 2280, Note_on_c, 2, 47, 90
4, 2332, Note_on_c, 2, 47, 0
4, 2340, Note_on_c, 2, 48, 90
4, 2392, Note_on_c, 2, 48, 0
4, 2400, Note_on_c, 2, 43, 90
4, 2452, Note_on_c, 2, 43, 0
4, 2460, Note_on_c, 2, 44, 90
4, 2512, Note_on_c, 2, 44, 0
4, 2520, Note_on_c, 2, 55, 90
4, 2572, Note_on_c, 2, 55, 0
4, 2580, Note_on_c, 2, 53, 90
4, 2632, Note_on_c, 2, 53, 0
4, 2640, Note_on_c, 2, 51, 90
4, 2692, Note_on_c, 2, 51, 0
4, 2700, Note_on_c, 2, 53, 90
4, 2752, Note_on_c, 2, 53, 0
4, 2760, Note_on_c, 2, 48, 90
4, 2812, Note_on_c, 2, 48, 0
4, 2820, Note_on_c, 2, 50, 90
4, 2872, Note_on_c, 2, 50, 0
4, 2880, Note_on_c, 2, 45, 90
4, 2932, Note_on_c, 2, 45, 0
4, 2940, Note_on_c, 2, 47, 90
4, 2992, Note_on_c, 2, 47, 0
4, 3000, Note_on_c, 2, 56, 90
4, 3052, Note_on_c, 2, 56, 0
4, 3060, Note_on_c, 2, 55, 90
4, 3112, Note_on_c, 2, 55, 0
4, 3120, Note_on_c, 2, 53, 90
4, 3172, Note_on_c, 2, 53, 0
4, 3180, Note_on_c, 2, 55, 90
4, 3232, Note_on_c, 2, 55, 0
4, 3240, Note_on_c, 2, 50, 90
4, 3292, Note_on_c, 2, 50, 0
4, 3300, Note_on_c, 2, 51, 90
4, 3352, Note_on_c, 2, 51, 0
4, 3360, Note_on_c, 2, 47, 90
4, 3412, Note_on_c, 2, 47, 0
4, 3420, Note_on_c, 2, 48, 90
4, 3472, Note_on_c, 2, 48, 0
4, 3480, Note_on_c, 2, 58, 90
4, 3532, Note_on_c, 2, 58, 0
4, 3540, Note_on_c, 2, 56, 90
4, 3592, Note_on_c, 2, 56, 0
4, 3600, Note_on_c, 2, 55, 90
4, 3652, Note_on_c, 2, 55, 0
4, 3660, Note_on_c, 2, 56, 90
4, 3712, Note_on_c, 2, 56, 0
4, 3720, Note_on_c, 2, 51, 90
4, 3772, Note_on_c, 2, 51, 0
4, 3780, Note_on_c, 2, 53, 90
4, 3832, Note_on_c, 2, 53, 0
4, 3840, Note_on_c, 2, 48, 90
4, 3892, Note_on_c, 2, 48, 0
4, 3900, Note_on_c, 2, 50, 90
4, 4005, Note_on_c, 2, 50, 0
4, 4020, Note_on_c, 2, 59, 90
4, 4125, Note_on_c, 2, 59, 0
4, 4140, Note_on_c, 2, 60, 90
4, 4245, Note_on_c, 2, 60, 0
4, 4260, Note_on_c, 2, 63, 90
4, 4365, Note_on_c, 2, 63, 0
4, 4380, Note_on_c, 2, 53, 90
4, 4485, Note_on_c, 2, 53, 0
4, 4500, Note_on_c, 2, 56, 90
4, 4605, Note_on_c, 2, 56, 0
4, 4620, Note_on_c, 2, 47, 90
4, 4725, Note_on_c, 2, 47, 0
4, 4740, Note_on_c, 2, 50, 90
4, 4845, Note_on_c, 2, 50, 0
4, 4860, Note_on_c, 2, 41, 90
4, 4965, Note_on_c, 2, 41, 0
4, 4980, Note_on_c, 2, 43, 90
4, 5085, Note_on_c, 2, 43, 0
4, 5100, Note_on_c, 2, 44, 90
4, 5205, Note_on_c, 2, 44, 0
4, 5220, Note_on_c, 2, 41, 90
4, 5325, Note_on_c, 2, 41, 0
4, 5340, Note_on_c, 2, 43, 90
4, 5445, Note_on_c, 2, 43, 0
4, 5460, Note_on_c, 2, 55, 90
4, 5565, Note_on_c, 2, 55, 0
4, 5580, Note_on_c, 2, 48, 90
4, 5685, Note_on_c, 2, 48, 0
4, 5700, Note_on_c, 2, 55, 90
4, 5805, Note_on_c, 2, 55, 0
4, 5820, Note_on_c, 2, 60, 90
4, 5940, Note_on_c, 2, 62, 90
4, 6045, Note_on_c, 2, 62, 0
4, 6045, Note_on_c, 2, 60, 0
4, 6060, Note_on_c, 2, 60, 90
4, 6225, Note_on_c, 2, 60, 0
4, 6240, Note_on_c, 2, 55, 90
4, 6266, Note_on_c, 2, 55, 0
4, 6270, Note_on_c, 2, 53, 90
4, 6296, Note_on_c, 2, 53, 0
4, 6300, Note_on_c, 2, 51, 90
4, 6326, Note_on_c, 2, 51, 0
4, 6330, Note_on_c, 2, 53, 90
4, 6356, Note_on_c, 2, 53, 0
4, 6360, Note_on_c, 2, 55, 90
4, 6412, Note_on_c, 2, 55, 0
4, 6420, Note_on_c, 2, 48, 90
4, 6446, Note_on_c, 2, 48, 0
4, 6450, Note_on_c, 2, 50, 90
4, 6476, Note_on_c, 2, 50, 0
4, 6480, Note_on_c, 2, 51, 90
4, 6532, Note_on_c, 2, 51, 0
4, 6540, Note_on_c, 2, 43, 90
4, 6705, Note_on_c, 2, 43, 0
4, 6720, Note_on_c, 2, 46, 90
4, 6746, Note_on_c, 2, 46, 0
4, 6750, Note_on_c, 2, 44, 90
4, 6776, Note_on_c, 2, 44, 0
4, 6780, Note_on_c, 2, 43, 90
4, 6806, Note_on_c, 2, 43, 0
4, 6810, Note_on_c, 2, 44, 90
4, 6836, Note_on_c, 2, 44, 0
4, 6840, Note_on_c, 2, 46, 90
4, 6892, Note_on_c, 2, 46, 0
4, 6900, Note_on_c, 2, 39, 90
4, 6926, Note_on_c, 2, 39, 0
4, 6930, Note_on_c, 2, 41, 90
4, 6956, Note_on_c, 2, 41, 0
4, 6960, Note_on_c, 2, 43, 90
4, 7012, Note_on_c, 2, 43, 0
4, 7020, Note_on_c, 2, 33, 90
4, 7125, Note_on_c, 2, 33, 0
4, 7140, Note_on_c, 2, 36, 90
4, 7245, Note_on_c, 2, 36, 0
4, 7260, Note_on_c, 2, 41, 90
4, 7365, Note_on_c, 2, 41, 0
4, 7380, Note_on_c, 2, 45, 90
4, 7485, Note_on_c, 2, 45, 0
4, 7500, Note_on_c, 2, 46, 90
4, 7665, Note_on_c, 2, 46, 0
4, 7680, Note_on_c, 2, 65, 90
4, 7706, Note_on_c, 2, 65, 0
4, 7710, Note_on_c, 2, 63, 90
4, 7736, Note_on_c, 2, 63, 0
4, 7740, Note_on_c, 2, 62, 90
4, 7766, Note_on_c, 2, 62, 0
4, 7770, Note_on_c, 2, 63, 90
4, 7796, Note_on_c, 2, 63, 0
4, 7800, Note_on_c, 2, 65, 90
4, 7852, Note_on_c, 2, 65, 0
4, 7860, Note_on_c, 2, 58, 90
4, 7886, Note_on_c, 2, 58, 0
4, 7890, Note_on_c, 2, 60, 90
4, 7916, Note_on_c, 2, 60, 0
4, 7920, Note_on_c, 2, 62, 90
4, 7972, Note_on_c, 2, 62, 0
4, 7980, Note_on_c, 2, 51, 90
4, 8032, Note_on_c, 2, 51, 0
4, 8040, Note_on_c, 2, 55, 90
4, 8092, Note_on_c, 2, 55, 0
4, 8100, Note_on_c, 2, 57, 90
4, 8152, Note_on_c, 2, 57, 0
4, 8160, Note_on_c, 2, 58, 90
4, 8212, Note_on_c, 2, 58, 0
4, 8220, Note_on_c, 2, 60, 90
4, 8272, Note_on_c, 2, 60, 0
4, 8280, Note_on_c, 2, 62, 90
4, 8332, Note_on_c, 2, 62, 0
4, 8340, Note_on_c, 2, 63, 90
4, 8392, Note_on_c, 2, 63, 0
4, 8400, Note_on_c, 2, 60, 90
4, 8452, Note_on_c, 2, 60, 0
4, 8460, Note_on_c, 2, 54, 90
4, 8512, Note_on_c, 2, 54, 0
4, 8520, Note_on_c, 2, 57, 90
4, 8572, Note_on_c, 2, 57, 0
4, 8580, Note_on_c, 2, 58, 90
4, 8632, Note_on_c, 2, 58, 0
4, 8640, Note_on_c, 2, 60, 90
4, 8692, Note_on_c, 2, 60, 0
4, 8700, Note_on_c, 2, 62, 90
4, 8752, Note_on_c, 2, 62, 0
4, 8760, Note_on_c, 2, 64, 90
4, 8812, Note_on_c, 2, 64, 0
4, 8820, Note_on_c, 2, 66, 90
4, 8872, Note_on_c, 2, 66, 0
4, 8880, Note_on_c, 2, 62, 90
4, 8932, Note_on_c, 2, 62, 0
4, 8940, Note_on_c, 2, 55, 90
4, 8992, Note_on_c, 2, 55, 0
4, 9000, Note_on_c, 2, 58, 90
4, 9052, Note_on_c, 2, 58, 0
4, 9060, Note_on_c, 2, 60, 90
4, 9112, Note_on_c, 2, 60, 0
4, 9120, Note_on_c, 2, 62, 90
4, 9172, Note_on_c, 2, 62, 0
4, 9180, Note_on_c, 2, 64, 90
4, 9232, Note_on_c, 2, 64, 0
4, 9240, Note_on_c, 2, 66, 90
4, 9292, Note_on_c, 2, 66, 0
4, 9300, Note_on_c, 2, 67, 90
4, 9352, Note_on_c, 2, 67, 0
4, 9360, Note_on_c, 2, 63, 90
4, 9412, Note_on_c, 2, 63, 0
4, 9420, Note_on_c, 2, 57, 90
4, 9472, Note_on_c, 2, 57, 0
4, 9480, Note_on_c, 2, 60, 90
4, 9532, Note_on_c, 2, 60, 0
4, 9540, Note_on_c, 2, 62, 90
4, 9592, Note_on_c, 2, 62, 0
4, 9600, Note_on_c, 2, 63, 90
4, 9652, Note_on_c, 2, 63, 0
4, 9660, Note_on_c, 2, 62, 90
4, 9712, Note_on_c, 2, 62, 0
4, 9720, Note_on_c, 2, 60, 90
4, 9772, Note_on_c, 2, 60, 0
4, 9780, Note_on_c, 2, 58, 90
4, 9832, Note_on_c, 2, 58, 0
4, 9840, Note_on_c, 2, 57, 90
4, 9892, Note_on_c, 2, 57, 0
4, 9900, Note_on_c, 2, 58, 90
4, 9952, Note_on_c, 2, 58, 0
4, 9960, Note_on_c, 2, 60, 90
4, 10012, Note_on_c, 2, 60, 0
4, 10020, Note_on_c, 2, 62, 90
4, 10072, Note_on_c, 2, 62, 0
4, 10080, Note_on_c, 2, 57, 90
4, 10132, Note_on_c, 2, 57, 0
4, 10140, Note_on_c, 2, 58, 90
4, 10192, Note_on_c, 2, 58, 0
4, 10200, Note_on_c, 2, 63, 90
4, 10252, Note_on_c, 2, 63, 0
4, 10260, Note_on_c, 2, 62, 90
4, 10312, Note_on_c, 2, 62, 0
4, 10320, Note_on_c, 2, 60, 90
4, 10372, Note_on_c, 2, 60, 0
4, 10380, Note_on_c, 2, 62, 90
4, 10432, Note_on_c, 2, 62, 0
4, 10440, Note_on_c, 2, 57, 90
4, 10492, Note_on_c, 2, 57, 0
4, 10500, Note_on_c, 2, 58, 90
4, 10552, Note_on_c, 2, 58, 0
4, 10560, Note_on_c, 2, 54, 90
4, 10612, Note_on_c, 2, 54, 0
4, 10620, Note_on_c, 2, 55, 90
4, 10672, Note_on_c, 2, 55, 0
4, 10680, Note_on_c, 2, 60, 90
4, 10732, Note_on_c, 2, 60, 0
4, 10740, Note_on_c, 2, 58, 90
4, 10792, Note_on_c, 2, 58, 0
4, 10800, Note_on_c, 2, 57, 90
4, 10852, Note_on_c, 2, 57, 0
4, 10860, Note_on_c, 2, 58, 90
4, 10912, Note_on_c, 2, 58, 0
4, 10920, Note_on_c, 2, 54, 90
4, 10972, Note_on_c, 2, 54, 0
4, 10980, Note_on_c, 2, 55, 90
4, 11032, Note_on_c, 2, 55, 0
4, 11040, Note_on_c, 2, 50, 90
4, 11092, Note_on_c, 2, 50, 0
4, 11100, Note_on_c, 2, 51, 90
4, 11126, Note_on_c, 2, 51, 0
4, 11130, Note_on_c, 2, 53, 90
4, 11156, Note_on_c, 2, 53, 0
4, 11160, Note_on_c, 2, 55, 90
4, 11212, Note_on_c, 2, 55, 0
4, 11220, Note_on_c, 2, 48, 90
4, 11246, Note_on_c, 2, 48, 0
4, 11250, Note_on_c, 2, 50, 90
4, 11276, Note_on_c, 2, 50, 0
4, 11280, Note_on_c, 2, 51, 90
4, 11332, Note_on_c, 2, 51, 0
4, 11340, Note_on_c, 2, 42, 90
4, 11565, Note_on_c, 2, 42, 0
4, 11700, Note_on_c, 2, 38, 90
4, 11805, Note_on_c, 2, 38, 0
4, 11820, Note_on_c, 2, 43, 90
4, 11925, Note_on_c, 2, 43, 0
4, 11940, Note_on_c, 2, 58, 90
4, 12045, Note_on_c, 2, 58, 0
4, 12060, Note_on_c, 2, 51, 90
4, 12165, Note_on_c, 2, 51, 0
4, 12180, Note_on_c, 2, 50, 90
4, 12285, Note_on_c, 2, 50, 0
4, 12300, Note_on_c, 2, 45, 90
4, 12405, Note_on_c, 2, 45, 0
4, 12420, Note_on_c, 2, 60, 90
4, 12525, Note_on_c, 2, 60, 0
4, 12540, Note_on_c, 2, 51, 90
4, 12645, Note_on_c, 2, 51, 0
4, 12660, Note_on_c, 2, 50, 90
4, 12765, Note_on_c, 2, 50, 0
4, 12780, Note_on_c, 2, 46, 90
4, 12885, Note_on_c, 2, 46, 0
4, 12900, Note_on_c, 2, 62, 90
4, 13005, Note_on_c, 2, 62, 0
4, 13020, Note_on_c, 2, 51, 90
4, 13125, Note_on_c, 2, 51, 0
4, 13140, Note_on_c, 2, 50, 90
4, 13245, Note_on_c, 2, 50, 0
4, 13260, Note_on_c, 2, 48, 90
4, 13365, Note_on_c, 2, 48, 0
4, 13380, Note_on_c, 2, 63, 90
4, 13485, Note_on_c, 2, 63, 0
4, 13500, Note_on_c, 2, 51, 90
4, 13605, Note_on_c, 2, 51, 0
4, 13620, Note_on_c, 2, 50, 90
4, 13725, Note_on_c, 2, 50, 0
4, 13740, Note_on_c, 2, 37, 90
4, 13740, Note_on_c, 2, 49, 90
4, 13965, Note_on_c, 2, 49, 0
4, 13965, Note_on_c, 2, 37, 0
4, 14100, Note_on_c, 2, 49, 90
4, 14205, Note_on_c, 2, 49, 0
4, 14220, Note_on_c, 2, 50, 90
4, 14325, Note_on_c, 2, 50, 0
4, 14340, Note_on_c, 2, 45, 90
4, 14445, Note_on_c, 2, 45, 0
4, 14460, Note_on_c, 2, 42, 90
4, 14565, Note_on_c, 2, 42, 0
4, 14580, Note_on_c, 2, 38, 90
4, 14685, Note_on_c, 2, 38, 0
4, 14700, Note_on_c, 2, 43, 90
4, 14752, Note_on_c, 2, 43, 0
4, 14760, Note_on_c, 2, 45, 90
4, 14812, Note_on_c, 2, 45, 0
4, 14820, Note_on_c, 2, 46, 90
4, 14872, Note_on_c, 2, 46, 0
4, 14880, Note_on_c, 2, 48, 90
4, 14932, Note_on_c, 2, 48, 0
4, 14940, Note_on_c, 2, 50, 90
4, 15045, Note_on_c, 2, 50, 0
4, 15060, Note_on_c, 2, 38, 90
4, 15165, Note_on_c, 2, 38, 0
4, 15180, Note_on_c, 2, 43, 90
4, 15360, Note_on_c, 2, 50, 90
4, 15412, Note_on_c, 2, 50, 0
4, 15420, Note_on_c, 2, 55, 90
4, 15645, Note_on_c, 2, 55, 0
4, 15645, Note_on_c, 2, 43, 0
4, 15780, Program_c, 2, 34
4, 15880, Control_c, 2, 7, 80
4, 15900, Note_on_c, 2, 48, 90
4, 16005, Note_on_c, 2, 48, 0
4, 16020, Note_on_c, 2, 36, 90
4, 16125, Note_on_c, 2, 36, 0
4, 16200, Note_on_c, 2, 68, 90
4, 16252, Note_on_c, 2, 68, 0
4, 16260, Note_on_c, 2, 67, 90
4, 16312, Note_on_c, 2, 67, 0
4, 16320, Note_on_c, 2, 65, 90
4, 16372, Note_on_c, 2, 65, 0
4, 16380, Note_on_c, 2, 67, 90
4, 16432, Note_on_c, 2, 67, 0
4, 16440, Note_on_c, 2, 62, 90
4, 16492, Note_on_c, 2, 62, 0
4, 16500, Note_on_c, 2, 63, 90
4, 16552, Note_on_c, 2, 63, 0
4, 16560, Note_on_c, 2, 59, 90
4, 16612, Note_on_c, 2, 59, 0
4, 16620, Note_on_c, 2, 60, 90
4, 16672, Note_on_c, 2, 60, 0
4, 16680, Note_on_c, 2, 65, 90
4, 16732, Note_on_c, 2, 65, 0
4, 16740, Note_on_c, 2, 63, 90
4, 16792, Note_on_c, 2, 63, 0
4, 16800, Note_on_c, 2, 62, 90
4, 16852, Note_on_c, 2, 62, 0
4, 16860, Note_on_c, 2, 63, 90
4, 16912, Note_on_c, 2, 63, 0
4, 16920, Note_on_c, 2, 59, 90
4, 16972, Note_on_c, 2, 59, 0
4, 16980, Note_on_c, 2, 60, 90
4, 17032, Note_on_c, 2, 60, 0
4, 17040, Note_on_c, 2, 55, 90
4, 17092, Note_on_c, 2, 55, 0
4, 17100, Note_on_c, 2, 56, 90
4, 17205, Note_on_c, 2, 56, 0
4, 17220, Note_on_c, 2, 53, 90
4, 17325, Note_on_c, 2, 53, 0
4, 17340, Note_on_c, 2, 55, 90
4, 17445, Note_on_c, 2, 55, 0
4, 17460, Note_on_c, 2, 43, 90
4, 17632, Note_on_c, 2, 43, 0
4, 17640, Note_on_c, 2, 53, 90
4, 17692, Note_on_c, 2, 53, 0
4, 17700, Note_on_c, 2, 51, 90
4, 17752, Note_on_c, 2, 51, 0
4, 17760, Note_on_c, 2, 50, 90
4, 17812, Note_on_c, 2, 50, 0
4, 17820, Note_on_c, 2, 51, 90
4, 17872, Note_on_c, 2, 51, 0
4, 17880, Note_on_c, 2, 47, 90
4, 17932, Note_on_c, 2, 47, 0
4, 17940, Note_on_c, 2, 48, 90
4, 17992, Note_on_c, 2, 48, 0
4, 18000, Note_on_c, 2, 43, 90
4, 18052, Note_on_c, 2, 43, 0
4, 18060, Note_on_c, 2, 44, 90
4, 18112, Note_on_c, 2, 44, 0
4, 18120, Note_on_c, 2, 55, 90
4, 18172, Note_on_c, 2, 55, 0
4, 18180, Note_on_c, 2, 53, 90
4, 18232, Note_on_c, 2, 53, 0
4, 18240, Note_on_c, 2, 51, 90
4, 18292, Note_on_c, 2, 51, 0
4, 18300, Note_on_c, 2, 53, 90
4, 18352, Note_on_c, 2, 53, 0
4, 18360, Note_on_c, 2, 48, 90
4, 18412, Note_on_c, 2, 48, 0
4, 18420, Note_on_c, 2, 50, 90
4, 18472, Note_on_c, 2, 50, 0
4, 18480, Note_on_c, 2, 45, 90
4, 18532, Note_on_c, 2, 45, 0
4, 18540, Note_on_c, 2, 47, 90
4, 18592, Note_on_c, 2, 47, 0
4, 18600, Note_on_c, 2, 56, 90
4, 18652, Note_on_c, 2, 56, 0
4, 18660, Note_on_c, 2, 55, 90
4, 18712, Note_on_c, 2, 55, 0
4, 18720, Note_on_c, 2, 53, 90
4, 18772, Note_on_c, 2, 53, 0
4, 18780, Note_on_c, 2, 55, 90
4, 18832, Note_on_c, 2, 55, 0
4, 18840, Note_on_c, 2, 50, 90
4, 18892, Note_on_c, 2, 50, 0
4, 18900, Note_on_c, 2, 51, 90
4, 18952, Note_on_c, 2, 51, 0
4, 18960, Note_on_c, 2, 47, 90
4, 19012, Note_on_c, 2, 47, 0
4, 19020, Note_on_c, 2, 48, 90
4, 19072, Note_on_c, 2, 48, 0
4, 19080, Note_on_c, 2, 58, 90
4, 19132, Note_on_c, 2, 58, 0
4, 19140, Note_on_c, 2, 56, 90
4, 19192, Note_on_c, 2, 56, 0
4, 19200, Note_on_c, 2, 55, 90
4, 19252, Note_on_c, 2, 55, 0
4, 19260, Note_on_c, 2, 56, 90
4, 19312, Note_on_c, 2, 56, 0
4, 19320, Note_on_c, 2, 51, 90
4, 19372, Note_on_c, 2, 51, 0
4, 19380, Note_on_c, 2, 53, 90
4, 19432, Note_on_c, 2, 53, 0
4, 19440, Note_on_c, 2, 48, 90
4, 19492, Note_on_c, 2, 48, 0
4, 19500, Note_on_c, 2, 50, 90
4, 19605, Note_on_c, 2, 50, 0
4, 19620, Note_on_c, 2, 59, 90
4, 19725, Note_on_c, 2, 59, 0
4, 19740, Note_on_c, 2, 60, 90
4, 19845, Note_on_c, 2, 60, 0
4, 19860, Note_on_c, 2, 63, 90
4, 19965, Note_on_c, 2, 63, 0
4, 19980, Note_on_c, 2, 53, 90
4, 20085, Note_on_c, 2, 53, 0
4, 20100, Note_on_c, 2, 56, 90
4, 20205, Note_on_c, 2, 56, 0
4, 20220, Note_on_c, 2, 47, 90
4, 20325, Note_on_c, 2, 47, 0
4, 20340, Note_on_c, 2, 50, 90
4, 20445, Note_on_c, 2, 50, 0
4, 20460, Note_on_c, 2, 41, 90
4, 20565, Note_on_c, 2, 41, 0
4, 20580, Note_on_c, 2, 43, 90
4, 20685, Note_on_c, 2, 43, 0
4, 20700, Note_on_c, 2, 44, 90
4, 20805, Note_on_c, 2, 44, 0
4, 20820, Note_on_c, 2, 41, 90
4, 20925, Note_on_c, 2, 41, 0
4, 20940, Note_on_c, 2, 43, 90
4, 21045, Note_on_c, 2, 43, 0
4, 21060, Note_on_c, 2, 55, 90
4, 21165, Note_on_c, 2, 55, 0
4, 21180, Note_on_c, 2, 48, 90
4, 21285, Note_on_c, 2, 48, 0
4, 21300, Note_on_c, 2, 55, 90
4, 21405, Note_on_c, 2, 55, 0
4, 21420, Note_on_c, 2, 60, 90
4, 21540, Note_on_c, 2, 62, 90
4, 21645, Note_on_c, 2, 62, 0
4, 21645, Note_on_c, 2, 60, 0
4, 21660, Note_on_c, 2, 60, 90
4, 21825, Note_on_c, 2, 60, 0
4, 21840, Note_on_c, 2, 55, 90
4, 21866, Note_on_c, 2, 55, 0
4, 21870, Note_on_c, 2, 53, 90
4, 21896, Note_on_c, 2, 53, 0
4, 21900, Note_on_c, 2, 51, 90
4, 21926, Note_on_c, 2, 51, 0
4, 21930, Note_on_c, 2, 53, 90
4, 21956, Note_on_c, 2, 53, 0
4, 21960, Note_on_c, 2, 55, 90
4, 22012, Note_on_c, 2, 55, 0
4, 22020, Note_on_c, 2, 48, 90
4, 22046, Note_on_c, 2, 48, 0
4, 22050, Note_on_c, 2, 50, 90
4, 22076, Note_on_c, 2, 50, 0
4, 22080, Note_on_c, 2, 51, 90
4, 22132, Note_on_c, 2, 51, 0
4, 22140, Note_on_c, 2, 43, 90
4, 22305, Note_on_c, 2, 43, 0
4, 22320, Note_on_c, 2, 46, 90
4, 22346, Note_on_c, 2, 46, 0
4, 22350, Note_on_c, 2, 44, 90
4, 22376, Note_on_c, 2, 44, 0
4, 22380, Note_on_c, 2, 43, 90
4, 22406, Note_on_c, 2, 43, 0
4, 22410, Note_on_c, 2, 44, 90
4, 22436, Note_on_c, 2, 44, 0
4, 22440, Note_on_c, 2, 46, 90
4, 22492, Note_on_c, 2, 46, 0
4, 22500, Note_on_c, 2, 39, 90
4, 22526, Note_on_c, 2, 39, 0
4, 22530, Note_on_c, 2, 41, 90
4, 22556, Note_on_c, 2, 41, 0
4, 22560, Note_on_c, 2, 43, 90
4, 22612, Note_on_c, 2, 43, 0
4, 22620, Note_on_c, 2, 33, 90
4, 22725, Note_on_c, 2, 33, 0
4, 22740, Note_on_c, 2, 36, 90
4, 22845, Note_on_c, 2, 36, 0
4, 22860, Note_on_c, 2, 41, 90
4, 22965, Note_on_c, 2, 41, 0
4, 22980, Note_on_c, 2, 45, 90
4, 23085, Note_on_c, 2, 45, 0
4, 23100, Note_on_c, 2, 46, 90
4, 23265, Note_on_c, 2, 46, 0
4, 23280, Note_on_c, 2, 65, 90
4, 23306, Note_on_c, 2, 65, 0
4, 23310, Note_on_c, 2, 63, 90
4, 23336, Note_on_c, 2, 63, 0
4, 23340, Note_on_c, 2, 62, 90
4, 23366, Note_on_c, 2, 62, 0
4, 23370, Note_on_c, 2, 63, 90
4, 23396, Note_on_c, 2, 63, 0
4, 23400, Note_on_c, 2, 65, 90
4, 23452, Note_on_c, 2, 65, 0
4, 23460, Note_on_c, 2, 58, 90
4, 23486, Note_on_c, 2, 58, 0
4, 23490, Note_on_c, 2, 60, 90
4, 23516, Note_on_c, 2, 60, 0
4, 23520, Note_on_c, 2, 62, 90
4, 23572, Note_on_c, 2, 62, 0
4, 23580, Note_on_c, 2, 51, 90
4, 23632, Note_on_c, 2, 51, 0
4, 23640, Note_on_c, 2, 55, 90
4, 23692, Note_on_c, 2, 55, 0
4, 23700, Note_on_c, 2, 57, 90
4, 23752, Note_on_c, 2, 57, 0
4, 23760, Note_on_c, 2, 58, 90
4, 23812, Note_on_c, 2, 58, 0
4, 23820, Note_on_c, 2, 60, 90
4, 23872, Note_on_c, 2, 60, 0
4, 23880, Note_on_c, 2, 62, 90
4, 23932, Note_on_c, 2, 62, 0
4, 23940, Note_on_c, 2, 63, 90
4, 23992, Note_on_c, 2, 63, 0
4, 24000, Note_on_c, 2, 60, 90
4, 24052, Note_on_c, 2, 60, 0
4, 24060, Note_on_c, 2, 54, 90
4, 24112, Note_on_c, 2, 54, 0
4, 24120, Note_on_c, 2, 57, 90
4, 24172, Note_on_c, 2, 57, 0
4, 24180, Note_on_c, 2, 58, 90
4, 24232, Note_on_c, 2, 58, 0
4, 24240, Note_on_c, 2, 60, 90
4, 24292, Note_on_c, 2, 60, 0
4, 24300, Note_on_c, 2, 62, 90
4, 24352, Note_on_c, 2, 62, 0
4, 24360, Note_on_c, 2, 64, 90
4, 24412, Note_on_c, 2, 64, 0
4, 24420, Note_on_c, 2, 66, 90
4, 24472, Note_on_c, 2, 66, 0
4, 24480, Note_on_c, 2, 62, 90
4, 24532, Note_on_c, 2, 62, 0
4, 24540, Note_on_c, 2, 55, 90
4, 24592, Note_on_c, 2, 55, 0
4, 24600, Note_on_c, 2, 58, 90
4, 24652, Note_on_c, 2, 58, 0
4, 24660, Note_on_c, 2, 60, 90
4, 24712, Note_on_c, 2, 60, 0
4, 24720, Note_on_c, 2, 62, 90
4, 24772, Note_on_c, 2, 62, 0
4, 24780, Note_on_c, 2, 64, 90
4, 24832, Note_on_c, 2, 64, 0
4, 24840, Note_on_c, 2, 66, 90
4, 24892, Note_on_c, 2, 66, 0
4, 24900, Note_on_c, 2, 67, 90
4, 24952, Note_on_c, 2, 67, 0
4, 24960, Note_on_c, 2, 63, 90
4, 25012, Note_on_c, 2, 63, 0
4, 25020, Note_on_c, 2, 57, 90
4, 25072, Note_on_c, 2, 57, 0
4, 25080, Note_on_c, 2, 60, 90
4, 25132, Note_on_c, 2, 60, 0
4, 25140, Note_on_c, 2, 62, 90
4, 25192, Note_on_c, 2, 62, 0
4, 25200, Note_on_c, 2, 63, 90
4, 25252, Note_on_c, 2, 63, 0
4, 25260, Note_on_c, 2, 62, 90
4, 25312, Note_on_c, 2, 62, 0
4, 25320, Note_on_c, 2, 60, 90
4, 25372, Note_on_c, 2, 60, 0
4, 25380, Note_on_c, 2, 58, 90
4, 25432, Note_on_c, 2, 58, 0
4, 25440, Note_on_c, 2, 57, 90
4, 25492, Note_on_c, 2, 57, 0
4, 25500, Note_on_c, 2, 58, 90
4, 25552, Note_on_c, 2, 58, 0
4, 25560, Note_on_c, 2, 60, 90
4, 25612, Note_on_c, 2, 60, 0
4, 25620, Note_on_c, 2, 62, 90
4, 25672, Note_on_c, 2, 62, 0
4, 25680, Note_on_c, 2, 57, 90
4, 25732, Note_on_c, 2, 57, 0
4, 25740, Note_on_c, 2, 58, 90
4, 25792, Note_on_c, 2, 58, 0
4, 25800, Note_on_c, 2, 63, 90
4, 25852, Note_on_c, 2, 63, 0
4, 25860, Note_on_c, 2, 62, 90
4, 25912, Note_on_c, 2, 62, 0
4, 25920, Note_on_c, 2, 60, 90
4, 25972, Note_on_c, 2, 60, 0
4, 25980, Note_on_c, 2, 62, 90
4, 26032, Note_on_c, 2, 62, 0
4, 26040, Note_on_c, 2, 57, 90
4, 26092, Note_on_c, 2, 57, 0
4, 26100, Note_on_c, 2, 58, 90
4, 26152, Note_on_c, 2, 58, 0
4, 26160, Note_on_c, 2, 54, 90
4, 26212, Note_on_c, 2, 54, 0
4, 26220, Note_on_c, 2, 55, 90
4, 26272, Note_on_c, 2, 55, 0
4, 26280, Note_on_c, 2, 60, 90
4, 26332, Note_on_c, 2, 60, 0
4, 26340, Note_on_c, 2, 58, 90
4, 26392, Note_on_c, 2, 58, 0
4, 26400, Note_on_c, 2, 57, 90
4, 26452, Note_on_c, 2, 57, 0
4, 26460, Note_on_c, 2, 58, 90
4, 26512, Note_on_c, 2, 58, 0
4, 26520, Note_on_c, 2, 54, 90
4, 26572, Note_on_c, 2, 54, 0
4, 26580, Note_on_c, 2, 55, 90
4, 26632, Note_on_c, 2, 55, 0
4, 26640, Note_on_c, 2, 50, 90
4, 26692, Note_on_c, 2, 50, 0
4, 26700, Note_on_c, 2, 51, 90
4, 26726, Note_on_c, 2, 51, 0
4, 26730, Note_on_c, 2, 53, 90
4, 26756, Note_on_c, 2, 53, 0
4, 26760, Note_on_c, 2, 55, 90
4, 26812, Note_on_c, 2, 55, 0
4, 26820, Note_on_c, 2, 48, 90
4, 26846, Note_on_c, 2, 48, 0
4, 26850, Note_on_c, 2, 50, 90
4, 26876, Note_on_c, 2, 50, 0
4, 26880, Note_on_c, 2, 51, 90
4, 26932, Note_on_c, 2, 51, 0
4, 26940, Note_on_c, 2, 42, 90
4, 27165, Note_on_c, 2, 42, 0
4, 27300, Note_on_c, 2, 38, 90
4, 27405, Note_on_c, 2, 38, 0
4, 27420, Note_on_c, 2, 43, 90
4, 27525, Note_on_c, 2, 43, 0
4, 27540, Note_on_c, 2, 58, 90
4, 27645, Note_on_c, 2, 58, 0
4, 27660, Note_on_c, 2, 51, 90
4, 27765, Note_on_c, 2, 51, 0
4, 27780, Note_on_c, 2, 50, 90
4, 27885, Note_on_c, 2, 50, 0
4, 27900, Note_on_c, 2, 45, 90
4, 28005, Note_on_c, 2, 45, 0
4, 28020, Note_on_c, 2, 60, 90
4, 28125, Note_on_c, 2, 60, 0
4, 28140, Note_on_c, 2, 51, 90
4, 28245, Note_on_c, 2, 51, 0
4, 28260, Note_on_c, 2, 50, 90
4, 28365, Note_on_c, 2, 50, 0
4, 28380, Note_on_c, 2, 46, 90
4, 28485, Note_on_c, 2, 46, 0
4, 28500, Note_on_c, 2, 62, 90
4, 28605, Note_on_c, 2, 62, 0
4, 28620, Note_on_c, 2, 51, 90
4, 28725, Note_on_c, 2, 51, 0
4, 28740, Note_on_c, 2, 50, 90
4, 28845, Note_on_c, 2, 50, 0
4, 28860, Note_on_c, 2, 48, 90
4, 28965, Note_on_c, 2, 48, 0
4, 28980, Note_on_c, 2, 63, 90
4, 29085, Note_on_c, 2, 63, 0
4, 29100, Note_on_c, 2, 51, 90
4, 29205, Note_on_c, 2, 51, 0
4, 29220, Note_on_c, 2, 50, 90
4, 29325, Note_on_c, 2, 50, 0
4, 29340, Note_on_c, 2, 37, 90
4, 29340, Note_on_c, 2, 49, 90
4, 29565, Note_on_c, 2, 49, 0
4, 29565, Note_on_c, 2, 37, 0
4, 29700, Note_on_c, 2, 49, 90
4, 29805, Note_on_c, 2, 49, 0
4, 29820, Note_on_c, 2, 50, 90
4, 29925, Note_on_c, 2, 50, 0
4, 29940, Note_on_c, 2, 45, 90
4, 30045, Note_on_c, 2, 45, 0
4, 30060, Note_on_c, 2, 42, 90
4, 30165, Note_on_c, 2, 42, 0
4, 30180, Note_on_c, 2, 38, 90
4, 30285, Note_on_c, 2, 38, 0
4, 30300, Note_on_c, 2, 43, 90
4, 30352, Note_on_c, 2, 43, 0
4, 30360, Note_on_c, 2, 45, 90
4, 30412, Note_on_c, 2, 45, 0
4, 30420, Note_on_c, 2, 46, 90
4, 30472, Note_on_c, 2, 46, 0
4, 30480, Note_on_c, 2, 48, 90
4, 30532, Note_on_c, 2, 48, 0
4, 30540, Note_on_c, 2, 50, 90
4, 30645, Note_on_c, 2, 50, 0
4, 30660, Note_on_c, 2, 38, 90
4, 30765, Note_on_c, 2, 38, 0
4, 30780, Note_on_c, 2, 43, 90
4, 30960, Note_on_c, 2, 50, 90
4, 31012, Note_on_c, 2, 50, 0
4, 31020, Note_on_c, 2, 55, 90
4, 31245, Note_on_c, 2, 55, 0
4, 31245, Note_on_c, 2, 43, 0
4, 31380, Program_c, 2, 42
4, 31480, Control_c, 2, 7, 100
4, 31500, Note_on_c, 2, 43, 90
4, 31605, Note_on_c, 2, 43, 0
4, 31620, Note_on_c, 2, 55, 90
4, 31725, Note_on_c, 2, 55, 0
4, 31800, Note_on_c, 2, 56, 90
4, 31852, Note_on_c, 2, 56, 0
4, 31860, Note_on_c, 2, 55, 90
4, 31912, Note_on_c, 2, 55, 0
4, 31920, Note_on_c, 2, 53, 90
4, 31972, Note_on_c, 2, 53, 0
4, 31980, Note_on_c, 2, 55, 90
4, 32032, Note_on_c, 2, 55, 0
4, 32040, Note_on_c, 2, 50, 90
4, 32092, Note_on_c, 2, 50, 0
4, 32100, Note_on_c, 2, 51, 90
4, 32152, Note_on_c, 2, 51, 0
4, 32160, Note_on_c, 2, 47, 90
4, 32212, Note_on_c, 2, 47, 0
4, 32220, Note_on_c, 2, 48, 90
4, 32272, Note_on_c, 2, 48, 0
4, 32280, Note_on_c, 2, 41, 90
4, 32332, Note_on_c, 2, 41, 0
4, 32340, Note_on_c, 2, 39, 90
4, 32392, Note_on_c, 2, 39, 0
4, 32400, Note_on_c, 2, 38, 90
4, 32452, Note_on_c, 2, 38, 0
4, 32460, Note_on_c, 2, 36, 90
4, 32565, Note_on_c, 2, 36, 0
4, 32580, Note_on_c, 2, 48, 90
4, 32685, Note_on_c, 2, 48, 0
4, 32760, Note_on_c, 2, 61, 90
4, 32812, Note_on_c, 2, 61, 0
4, 32820, Note_on_c, 2, 60, 90
4, 32872, Note_on_c, 2, 60, 0
4, 32880, Note_on_c, 2, 58, 90
4, 32932, Note_on_c, 2, 58, 0
4, 32940, Note_on_c, 2, 60, 90
4, 32992, Note_on_c, 2, 60, 0
4, 33000, Note_on_c, 2, 55, 90
4, 33052, Note_on_c, 2, 55, 0
4, 33060, Note_on_c, 2, 56, 90
4, 33112, Note_on_c, 2, 56, 0
4, 33120, Note_on_c, 2, 52, 90
4, 33172, Note_on_c, 2, 52, 0
4, 33180, Note_on_c, 2, 53, 90
4, 33232, Note_on_c, 2, 53, 0
4, 33240, Note_on_c, 2, 46, 90
4, 33292, Note_on_c, 2, 46, 0
4, 33300, Note_on_c, 2, 44, 90
4, 33352, Note_on_c, 2, 44, 0
4, 33360, Note_on_c, 2, 43, 90
4, 33412, Note_on_c, 2, 43, 0
4, 33420, Note_on_c, 2, 41, 90
4, 33472, Note_on_c, 2, 41, 0
4, 33480, Note_on_c, 2, 43, 90
4, 33532, Note_on_c, 2, 43, 0
4, 33540, Note_on_c, 2, 44, 90
4, 33645, Note_on_c, 2, 44, 0
4, 33660, Note_on_c, 2, 34, 90
4, 33712, Note_on_c, 2, 34, 0
4, 33720, Note_on_c, 2, 44, 90
4, 33772, Note_on_c, 2, 44, 0
4, 33780, Note_on_c, 2, 43, 90
4, 33832, Note_on_c, 2, 43, 0
4, 33840, Note_on_c, 2, 41, 90
4, 33892, Note_on_c, 2, 41, 0
4, 33900, Note_on_c, 2, 43, 90
4, 33952, Note_on_c, 2, 43, 0
4, 33960, Note_on_c, 2, 44, 90
4, 34012, Note_on_c, 2, 44, 0
4, 34020, Note_on_c, 2, 46, 90
4, 34125, Note_on_c, 2, 46, 0
4, 34140, Note_on_c, 2, 36, 90
4, 34192, Note_on_c, 2, 36, 0
4, 34200, Note_on_c, 2, 46, 90
4, 34252, Note_on_c, 2, 46, 0
4, 34260, Note_on_c, 2, 44, 90
4, 34312, Note_on_c, 2, 44, 0
4, 34320, Note_on_c, 2, 43, 90
4, 34372, Note_on_c, 2, 43, 0
4, 34380, Note_on_c, 2, 44, 90
4, 34432, Note_on_c, 2, 44, 0
4, 34440, Note_on_c, 2, 46, 90
4, 34492, Note_on_c, 2, 46, 0
4, 34500, Note_on_c, 2, 48, 90
4, 34605, Note_on_c, 2, 48, 0
4, 34620, Note_on_c, 2, 37, 90
4, 34672, Note_on_c, 2, 37, 0
4, 34680, Note_on_c, 2, 48, 90
4, 34732, Note_on_c, 2, 48, 0
4, 34740, Note_on_c, 2, 46, 90
4, 34792, Note_on_c, 2, 46, 0
4, 34800, Note_on_c, 2, 44, 90
4, 34852, Note_on_c, 2, 44, 0
4, 34860, Note_on_c, 2, 46, 90
4, 34912, Note_on_c, 2, 46, 0
4, 34920, Note_on_c, 2, 48, 90
4, 34972, Note_on_c, 2, 48, 0
4, 34980, Note_on_c, 2, 49, 90
4, 35085, Note_on_c, 2, 49, 0
4, 35100, Note_on_c, 2, 40, 90
4, 35152, Note_on_c, 2, 40, 0
4, 35160, Note_on_c, 2, 49, 90
4, 35212, Note_on_c, 2, 49, 0
4, 35220, Note_on_c, 2, 48, 90
4, 35272, Note_on_c, 2, 48, 0
4, 35280, Note_on_c, 2, 46, 90
4, 35332, Note_on_c, 2, 46, 0
4, 35340, Note_on_c, 2, 44, 90
4, 35445, Note_on_c, 2, 44, 0
4, 35460, Note_on_c, 2, 48, 90
4, 35565, Note_on_c, 2, 48, 0
4, 35580, Note_on_c, 2, 41, 90
4, 35685, Note_on_c, 2, 41, 0
4, 35700, Note_on_c, 2, 44, 90
4, 35805, Note_on_c, 2, 44, 0
4, 35820, Note_on_c, 2, 49, 90
4, 35925, Note_on_c, 2, 49, 0
4, 35940, Note_on_c, 2, 53, 90
4, 36045, Note_on_c, 2, 53, 0
4, 36060, Note_on_c, 2, 43, 90
4, 36165, Note_on_c, 2, 43, 0
4, 36180, Note_on_c, 2, 46, 90
4, 36405, Note_on_c, 2, 46, 0
4, 36420, Note_on_c, 2, 44, 90
4, 36472, Note_on_c, 2, 44, 0
4, 36480, Note_on_c, 2, 46, 90
4, 36532, Note_on_c, 2, 46, 0
4, 36540, Note_on_c, 2, 48, 90
4, 36645, Note_on_c, 2, 48, 0
4, 36660, Note_on_c, 2, 36, 90
4, 36765, Note_on_c, 2, 36, 0
4, 36780, Note_on_c, 2, 41, 90
4, 36832, Note_on_c, 2, 41, 0
4, 36840, Note_on_c, 2, 48, 90
4, 36892, Note_on_c, 2, 48, 0
4, 36900, Note_on_c, 2, 53, 90
4, 36952, Note_on_c, 2, 53, 0
4, 36960, Note_on_c, 2, 55, 90
4, 37012, Note_on_c, 2, 55, 0
4, 37020, Note_on_c, 2, 56, 90
4, 37072, Note_on_c, 2, 56, 0
4, 37080, Note_on_c, 2, 53, 90
4, 37132, Note_on_c, 2, 53, 0
4, 37140, Note_on_c, 2, 56, 90
4, 37192, Note_on_c, 2, 56, 0
4, 37200, Note_on_c, 2, 60, 90
4, 37252, Note_on_c, 2, 60, 0
4, 37260, Note_on_c, 2, 65, 90
4, 37365, Note_on_c, 2, 65, 0
4, 37380, Note_on_c, 2, 56, 90
4, 37485, Note_on_c, 2, 56, 0
4, 37500, Note_on_c, 2, 60, 90
4, 37605, Note_on_c, 2, 60, 0
4, 37620, Note_on_c, 2, 53, 90
4, 37725, Note_on_c, 2, 53, 0
4, 37740, Note_on_c, 2, 58, 90
4, 37845, Note_on_c, 2, 58, 0
4, 37860, Note_on_c, 2, 65, 90
4, 37965, Note_on_c, 2, 65, 0
4, 37980, Note_on_c, 2, 62, 90
4, 38085, Note_on_c, 2, 62, 0
4, 38100, Note_on_c, 2, 58, 90
4, 38205, Note_on_c, 2, 58, 0
4, 38220, Note_on_c, 2, 63, 90
4, 38325, Note_on_c, 2, 63, 0
4, 38340, Note_on_c, 2, 55, 90
4, 38445, Note_on_c, 2, 55, 0
4, 38460, Note_on_c, 2, 58, 90
4, 38565, Note_on_c, 2, 58, 0
4, 38580, Note_on_c, 2, 51, 90
4, 38685, Note_on_c, 2, 51, 0
4, 38700, Note_on_c, 2, 56, 90
4, 38805, Note_on_c, 2, 56, 0
4, 38820, Note_on_c, 2, 63, 90
4, 38925, Note_on_c, 2, 63, 0
4, 38940, Note_on_c, 2, 60, 90
4, 39045, Note_on_c, 2, 60, 0
4, 39060, Note_on_c, 2, 56, 90
4, 39165, Note_on_c, 2, 56, 0
4, 39180, Note_on_c, 2, 62, 90
4, 39285, Note_on_c, 2, 62, 0
4, 39300, Note_on_c, 2, 53, 90
4, 39405, Note_on_c, 2, 53, 0
4, 39420, Note_on_c, 2, 56, 90
4, 39525, Note_on_c, 2, 56, 0
4, 39540, Note_on_c, 2, 50, 90
4, 39645, Note_on_c, 2, 50, 0
4, 39660, Note_on_c, 2, 55, 90
4, 39765, Note_on_c, 2, 55, 0
4, 39780, Note_on_c, 2, 62, 90
4, 39885, Note_on_c, 2, 62, 0
4, 39900, Note_on_c, 2, 59, 90
4, 40005, Note_on_c, 2, 59, 0
4, 40020, Note_on_c, 2, 55, 90
4, 40125, Note_on_c, 2, 55, 0
4, 40140, Note_on_c, 2, 60, 90
4, 40245, Note_on_c, 2, 60, 0
4, 40260, Note_on_c, 2, 51, 90
4, 40365, Note_on_c, 2, 51, 0
4, 40380, Note_on_c, 2, 56, 90
4, 40485, Note_on_c, 2, 56, 0
4, 40500, Note_on_c, 2, 53, 90
4, 40605, Note_on_c, 2, 53, 0
4, 40620, Note_on_c, 2, 55, 90
4, 40725, Note_on_c, 2, 55, 0
4, 40740, Note_on_c, 2, 43, 90
4, 40912, Note_on_c, 2, 43, 0
4, 40920, Note_on_c, 2, 56, 90
4, 40972, Note_on_c, 2, 56, 0
4, 40980, Note_on_c, 2, 55, 90
4, 41032, Note_on_c, 2, 55, 0
4, 41040, Note_on_c, 2, 53, 90
4, 41092, Note_on_c, 2, 53, 0
4, 41100, Note_on_c, 2, 55, 90
4, 41152, Note_on_c, 2, 55, 0
4, 41160, Note_on_c, 2, 50, 90
4, 41212, Note_on_c, 2, 50, 0
4, 41220, Note_on_c, 2, 51, 90
4, 41272, Note_on_c, 2, 51, 0
4, 41280, Note_on_c, 2, 47, 90
4, 41332, Note_on_c, 2, 47, 0
4, 41340, Note_on_c, 2, 48, 90
4, 41392, Note_on_c, 2, 48, 0
4, 41400, Note_on_c, 2, 53, 90
4, 41452, Note_on_c, 2, 53, 0
4, 41460, Note_on_c, 2, 51, 90
4, 41512, Note_on_c, 2, 51, 0
4, 41520, Note_on_c, 2, 50, 90
4, 41572, Note_on_c, 2, 50, 0
4, 41580, Note_on_c, 2, 51, 90
4, 41632, Note_on_c, 2, 51, 0
4, 41640, Note_on_c, 2, 47, 90
4, 41692, Note_on_c, 2, 47, 0
4, 41700, Note_on_c, 2, 48, 90
4, 41752, Note_on_c, 2, 48, 0
4, 41760, Note_on_c, 2, 43, 90
4, 41812, Note_on_c, 2, 43, 0
4, 41820, Note_on_c, 2, 44, 90
4, 41872, Note_on_c, 2, 44, 0
4, 41880, Note_on_c, 2, 49, 90
4, 41932, Note_on_c, 2, 49, 0
4, 41940, Note_on_c, 2, 48, 90
4, 41992, Note_on_c, 2, 48, 0
4, 42000, Note_on_c, 2, 46, 90
4, 42052, Note_on_c, 2, 46, 0
4, 42060, Note_on_c, 2, 48, 90
4, 42112, Note_on_c, 2, 48, 0
4, 42120, Note_on_c, 2, 43, 90
4, 42172, Note_on_c, 2, 43, 0
4, 42180, Note_on_c, 2, 44, 90
4, 42232, Note_on_c, 2, 44, 0
4, 42240, Note_on_c, 2, 40, 90
4, 42292, Note_on_c, 2, 40, 0
4, 42300, Note_on_c, 2, 41, 90
4, 42352, Note_on_c, 2, 41, 0
4, 42360, Note_on_c, 2, 46, 90
4, 42412, Note_on_c, 2, 46, 0
4, 42420, Note_on_c, 2, 44, 90
4, 42472, Note_on_c, 2, 44, 0
4, 42480, Note_on_c, 2, 43, 90
4, 42532, Note_on_c, 2, 43, 0
4, 42540, Note_on_c, 2, 44, 90
4, 42592, Note_on_c, 2, 44, 0
4, 42600, Note_on_c, 2, 41, 90
4, 42652, Note_on_c, 2, 41, 0
4, 42660, Note_on_c, 2, 43, 90
4, 42712, Note_on_c, 2, 43, 0
4, 42720, Note_on_c, 2, 47, 90
4, 42772, Note_on_c, 2, 47, 0
4, 42780, Note_on_c, 2, 50, 90
4, 42832, Note_on_c, 2, 50, 0
4, 42840, Note_on_c, 2, 44, 90
4, 42892, Note_on_c, 2, 44, 0
4, 42900, Note_on_c, 2, 43, 90
4, 42952, Note_on_c, 2, 43, 0
4, 42960, Note_on_c, 2, 41, 90
4, 43012, Note_on_c, 2, 41, 0
4, 43020, Note_on_c, 2, 39, 90
4, 43072, Note_on_c, 2, 39, 0
4, 43080, Note_on_c, 2, 43, 90
4, 43132, Note_on_c, 2, 43, 0
4, 43140, Note_on_c, 2, 48, 90
4, 43192, Note_on_c, 2, 48, 0
4, 43200, Note_on_c, 2, 51, 90
4, 43312, Note_on_c, 2, 51, 0
4, 43320, Note_on_c, 2, 47, 90
4, 43372, Note_on_c, 2, 47, 0
4, 43380, Note_on_c, 2, 48, 90
4, 43432, Note_on_c, 2, 48, 0
4, 43440, Note_on_c, 2, 39, 90
4, 43492, Note_on_c, 2, 39, 0
4, 43500, Note_on_c, 2, 41, 90
4, 43552, Note_on_c, 2, 41, 0
4, 43560, Note_on_c, 2, 44, 90
4, 43612, Note_on_c, 2, 44, 0
4, 43620, Note_on_c, 2, 48, 90
4, 43672, Note_on_c, 2, 48, 0
4, 43680, Note_on_c, 2, 51, 90
4, 43792, Note_on_c, 2, 51, 0
4, 43800, Note_on_c, 2, 47, 90
4, 43852, Note_on_c, 2, 47, 0
4, 43860, Note_on_c, 2, 48, 90
4, 43912, Note_on_c, 2, 48, 0
4, 43920, Note_on_c, 2, 41, 90
4, 43972, Note_on_c, 2, 41, 0
4, 43980, Note_on_c, 2, 43, 90
4, 44032, Note_on_c, 2, 43, 0
4, 44040, Note_on_c, 2, 47, 90
4, 44092, Note_on_c, 2, 47, 0
4, 44100, Note_on_c, 2, 48, 90
4, 44152, Note_on_c, 2, 48, 0
4, 44160, Note_on_c, 2, 51, 90
4, 44272, Note_on_c, 2, 51, 0
4, 44280, Note_on_c, 2, 47, 90
4, 44332, Note_on_c, 2, 47, 0
4, 44340, Note_on_c, 2, 48, 90
4, 44392, Note_on_c, 2, 48, 0
4, 44400, Note_on_c, 2, 43, 90
4, 44452, Note_on_c, 2, 43, 0
4, 44460, Note_on_c, 2, 44, 90
4, 44512, Note_on_c, 2, 44, 0
4, 44520, Note_on_c, 2, 47, 90
4, 44572, Note_on_c, 2, 47, 0
4, 44580, Note_on_c, 2, 48, 90
4, 44632, Note_on_c, 2, 48, 0
4, 44640, Note_on_c, 2, 51, 90
4, 44752, Note_on_c, 2, 51, 0
4, 44760, Note_on_c, 2, 47, 90
4, 44812, Note_on_c, 2, 47, 0
4, 44820, Note_on_c, 2, 48, 90
4, 44872, Note_on_c, 2, 48, 0
4, 44880, Note_on_c, 2, 51, 90
4, 44932, Note_on_c, 2, 51, 0
4, 44940, Note_on_c, 2, 57, 90
4, 44992, Note_on_c, 2, 57, 0
4, 45000, Note_on_c, 2, 50, 90
4, 45052, Note_on_c, 2, 50, 0
4, 45060, Note_on_c, 2, 51, 90
4, 45112, Note_on_c, 2, 51, 0
4, 45120, Note_on_c, 2, 47, 90
4, 45172, Note_on_c, 2, 47, 0
4, 45180, Note_on_c, 2, 48, 90
4, 45232, Note_on_c, 2, 48, 0
4, 45240, Note_on_c, 2, 51, 90
4, 45292, Note_on_c, 2, 51, 0
4, 45300, Note_on_c, 2, 50, 90
4, 45352, Note_on_c, 2, 50, 0
4, 45360, Note_on_c, 2, 48, 90
4, 45412, Note_on_c, 2, 48, 0
4, 45420, Note_on_c, 2, 47, 90
4, 45472, Note_on_c, 2, 47, 0
4, 45480, Note_on_c, 2, 43, 90
4, 45532, Note_on_c, 2, 43, 0
4, 45540, Note_on_c, 2, 44, 90
4, 45592, Note_on_c, 2, 44, 0
4, 45600, Note_on_c, 2, 39, 90
4, 45652, Note_on_c, 2, 39, 0
4, 45660, Note_on_c, 2, 41, 90
4, 45712, Note_on_c, 2, 41, 0
4, 45720, Note_on_c, 2, 44, 90
4, 45772, Note_on_c, 2, 44, 0
4, 45780, Note_on_c, 2, 43, 90
4, 45832, Note_on_c, 2, 43, 0
4, 45840, Note_on_c, 2, 41, 90
4, 45892, Note_on_c, 2, 41, 0
4, 45900, Note_on_c, 2, 39, 90
4, 45952, Note_on_c, 2, 39, 0
4, 45960, Note_on_c, 2, 43, 90
4, 46012, Note_on_c, 2, 43, 0
4, 46020, Note_on_c, 2, 48, 90
4, 46072, Note_on_c, 2, 48, 0
4, 46080, Note_on_c, 2, 51, 90
4, 46132, Note_on_c, 2, 51, 0
4, 46140, Note_on_c, 2, 55, 90
4, 46245, Note_on_c, 2, 55, 0
4, 46260, Note_on_c, 2, 43, 90
4, 46365, Note_on_c, 2, 43, 0
4, 46380, Note_on_c, 2, 36, 90
4, 46380, Note_on_c, 2, 48, 90
4, 46845, Note_on_c, 2, 48, 0
4, 46845, Note_on_c, 2, 36, 0
4, 46980, Program_c, 2, 34
4, 47080, Control_c, 2, 7, 80
4, 47100, Note_on_c, 2, 43, 90
4, 47205, Note_on_c, 2, 43, 0
4, 47220, Note_on_c, 2, 55, 90
4, 47325, Note_on_c, 2, 55, 0
4, 47400, Note_on_c, 2, 56, 90
4, 47452, Note_on_c, 2, 56, 0
4, 47460, Note_on_c, 2, 55, 90
4, 47512, Note_on_c, 2, 55, 0
4, 47520, Note_on_c, 2, 53, 90
4, 47572, Note_on_c, 2, 53, 0
4, 47580, Note_on_c, 2, 55, 90
4, 47632, Note_on_c, 2, 55, 0
4, 47640, Note_on_c, 2, 50, 90
4, 47692, Note_on_c, 2, 50, 0
4, 47700, Note_on_c, 2, 51, 90
4, 47752, Note_on_c, 2, 51, 0
4, 47760, Note_on_c, 2, 47, 90
4, 47812, Note_on_c, 2, 47, 0
4, 47820, Note_on_c, 2, 48, 90
4, 47872, Note_on_c, 2, 48, 0
4, 47880, Note_on_c, 2, 41, 90
4, 47932, Note_on_c, 2, 41, 0
4, 47940, Note_on_c, 2, 39, 90
4, 47992, Note_on_c, 2, 39, 0
4, 48000, Note_on_c, 2, 38, 90
4, 48052, Note_on_c, 2, 38, 0
4, 48060, Note_on_c, 2, 36, 90
4, 48165, Note_on_c, 2, 36, 0
4, 48180, Note_on_c, 2, 48, 90
4, 48285, Note_on_c, 2, 48, 0
4, 48360, Note_on_c, 2, 61, 90
4, 48412, Note_on_c, 2, 61, 0
4, 48420, Note_on_c, 2, 60, 90
4, 48472, Note_on_c, 2, 60, 0
4, 48480, Note_on_c, 2, 58, 90
4, 48532, Note_on_c, 2, 58, 0
4, 48540, Note_on_c, 2, 60, 90
4, 48592, Note_on_c, 2, 60, 0
4, 48600, Note_on_c, 2, 55, 90
4, 48652, Note_on_c, 2, 55, 0
4, 48660, Note_on_c, 2, 56, 90
4, 48712, Note_on_c, 2, 56, 0
4, 48720, Note_on_c, 2, 52, 90
4, 48772, Note_on_c, 2, 52, 0
4, 48780, Note_on_c, 2, 53, 90
4, 48832, Note_on_c, 2, 53, 0
4, 48840, Note_on_c, 2, 46, 90
4, 48892, Note_on_c, 2, 46, 0
4, 48900, Note_on_c, 2, 44, 90
4, 48952, Note_on_c, 2, 44, 0
4, 48960, Note_on_c, 2, 43, 90
4, 49012, Note_on_c, 2, 43, 0
4, 49020, Note_on_c, 2, 41, 90
4, 49072, Note_on_c, 2, 41, 0
4, 49080, Note_on_c, 2, 43, 90
4, 49132, Note_on_c, 2, 43, 0
4, 49140, Note_on_c, 2, 44, 90
4, 49245, Note_on_c, 2, 44, 0
4, 49260, Note_on_c, 2, 34, 90
4, 49312, Note_on_c, 2, 34, 0
4, 49320, Note_on_c, 2, 44, 90
4, 49372, Note_on_c, 2, 44, 0
4, 49380, Note_on_c, 2, 43, 90
4, 49432, Note_on_c, 2, 43, 0
4, 49440, Note_on_c, 2, 41, 90
4, 49492, Note_on_c, 2, 41, 0
4, 49500, Note_on_c, 2, 43, 90
4, 49552, Note_on_c, 2, 43, 0
4, 49560, Note_on_c, 2, 44, 90
4, 49612, Note_on_c, 2, 44, 0
4, 49620, Note_on_c, 2, 46, 90
4, 49725, Note_on_c, 2, 46, 0
4, 49740, Note_on_c, 2, 36, 90
4, 49792, Note_on_c, 2, 36, 0
4, 49800, Note_on_c, 2, 46, 90
4, 49852, Note_on_c, 2, 46, 0
4, 49860, Note_on_c, 2, 44, 90
4, 49912, Note_on_c, 2, 44, 0
4, 49920, Note_on_c, 2, 43, 90
4, 49972, Note_on_c, 2, 43, 0
4, 49980, Note_on_c, 2, 44, 90
4, 50032, Note_on_c, 2, 44, 0
4, 50040, Note_on_c, 2, 46, 90
4, 50092, Note_on_c, 2, 46, 0
4, 50100, Note_on_c, 2, 48, 90
4, 50205, Note_on_c, 2, 48, 0
4, 50220, Note_on_c, 2, 37, 90
4, 50272, Note_on_c, 2, 37, 0
4, 50280, Note_on_c, 2, 48, 90
4, 50332, Note_on_c, 2, 48, 0
4, 50340, Note_on_c, 2, 46, 90
4, 50392, Note_on_c, 2, 46, 0
4, 50400, Note_on_c, 2, 44, 90
4, 50452, Note_on_c, 2, 44, 0
4, 50460, Note_on_c, 2, 46, 90
4, 50512, Note_on_c, 2, 46, 0
4, 50520, Note_on_c, 2, 48, 90
4, 50572, Note_on_c, 2, 48, 0
4, 50580, Note_on_c, 2, 49, 90
4, 50685, Note_on_c, 2, 49, 0
4, 50700, Note_on_c, 2, 40, 90
4, 50752, Note_on_c, 2, 40, 0
4, 50760, Note_on_c, 2, 49, 90
4, 50812, Note_on_c, 2, 49, 0
4, 50820, Note_on_c, 2, 48, 90
4, 50872, Note_on_c, 2, 48, 0
4, 50880, Note_on_c, 2, 46, 90
4, 50932, Note_on_c, 2, 46, 0
4, 50940, Note_on_c, 2, 44, 90
4, 51045, Note_on_c, 2, 44, 0
4, 51060, Note_on_c, 2, 48, 90
4, 51165, Note_on_c, 2, 48, 0
4, 51180, Note_on_c, 2, 41, 90
4, 51285, Note_on_c, 2, 41, 0
4, 51300, Note_on_c, 2, 44, 90
4, 51405, Note_on_c, 2, 44, 0
4, 51420, Note_on_c, 2, 49, 90
4, 51525, Note_on_c, 2, 49, 0
4, 51540, Note_on_c, 2, 53, 90
4, 51645, Note_on_c, 2, 53, 0
4, 51660, Note_on_c, 2, 43, 90
4, 51765, Note_on_c, 2, 43, 0
4, 51780, Note_on_c, 2, 46, 90
4, 52005, Note_on_c, 2, 46, 0
4, 52020, Note_on_c, 2, 44, 90
4, 52072, Note_on_c, 2, 44, 0
4, 52080, Note_on_c, 2, 46, 90
4, 52132, Note_on_c, 2, 46, 0
4, 52140, Note_on_c, 2, 48, 90
4, 52245, Note_on_c, 2, 48, 0
4, 52260, Note_on_c, 2, 36, 90
4, 52365, Note_on_c, 2, 36, 0
4, 52380, Note_on_c, 2, 41, 90
4, 52432, Note_on_c, 2, 41, 0
4, 52440, Note_on_c, 2, 48, 90
4, 52492, Note_on_c, 2, 48, 0
4, 52500, Note_on_c, 2, 53, 90
4, 52552, Note_on_c, 2, 53, 0
4, 52560, Note_on_c, 2, 55, 90
4, 52612, Note_on_c, 2, 55, 0
4, 52620, Note_on_c, 2, 56, 90
4, 52672, Note_on_c, 2, 56, 0
4, 52680, Note_on_c, 2, 53, 90
4, 52732, Note_on_c, 2, 53, 0
4, 52740, Note_on_c, 2, 56, 90
4, 52792, Note_on_c, 2, 56, 0
4, 52800, Note_on_c, 2, 60, 90
4, 52852, Note_on_c, 2, 60, 0
4, 52860, Note_on_c, 2, 65, 90
4, 52965, Note_on_c, 2, 65, 0
4, 52980, Note_on_c, 2, 56, 90
4, 53085, Note_on_c, 2, 56, 0
4, 53100, Note_on_c, 2, 60, 90
4, 53205, Note_on_c, 2, 60, 0
4, 53220, Note_on_c, 2, 53, 90
4, 53325, Note_on_c, 2, 53, 0
4, 53340, Note_on_c, 2, 58, 90
4, 53445, Note_on_c, 2, 58, 0
4, 53460, Note_on_c, 2, 65, 90
4, 53565, Note_on_c, 2, 65, 0
4, 53580, Note_on_c, 2, 62, 90
4, 53685, Note_on_c, 2, 62, 0
4, 53700, Note_on_c, 2, 58, 90
4, 53805, Note_on_c, 2, 58, 0
4, 53820, Note_on_c, 2, 63, 90
4, 53925, Note_on_c, 2, 63, 0
4, 53940, Note_on_c, 2, 55, 90
4, 54045, Note_on_c, 2, 55, 0
4, 54060, Note_on_c, 2, 58, 90
4, 54165, Note_on_c, 2, 58, 0
4, 54180, Note_on_c, 2, 51, 90
4, 54285, Note_on_c, 2, 51, 0
4, 54300, Note_on_c, 2, 56, 90
4, 54405, Note_on_c, 2, 56, 0
4, 54420, Note_on_c, 2, 63, 90
4, 54525, Note_on_c, 2, 63, 0
4, 54540, Note_on_c, 2, 60, 90
4, 54645, Note_on_c, 2, 60, 0
4, 54660, Note_on_c, 2, 56, 90
4, 54765, Note_on_c, 2, 56, 0
4, 54780, Note_on_c, 2, 62, 90
4, 54885, Note_on_c, 2, 62, 0
4, 54900, Note_on_c, 2, 53, 90
4, 55005, Note_on_c, 2, 53, 0
4, 55020, Note_on_c, 2, 56, 90
4, 55125, Note_on_c, 2, 56, 0
4, 55140, Note_on_c, 2, 50, 90
4, 55245, Note_on_c, 2, 50, 0
4, 55260, Note_on_c, 2, 55, 90
4, 55365, Note_on_c, 2, 55, 0
4, 55380, Note_on_c, 2, 62, 90
4, 55485, Note_on_c, 2, 62, 0
4, 55500, Note_on_c, 2, 59, 90
4, 55605, Note_on_c, 2, 59, 0
4, 55620, Note_on_c, 2, 55, 90
4, 55725, Note_on_c, 2, 55, 0
4, 55740, Note_on_c, 2, 60, 90
4, 55845, Note_on_c, 2, 60, 0
4, 55860, Note_on_c, 2, 51, 90
4, 55965, Note_on_c, 2, 51, 0
4, 55980, Note_on_c, 2, 56, 90
4, 56085, Note_on_c, 2, 56, 0
4, 56100, Note_on_c, 2, 53, 90
4, 56205, Note_on_c, 2, 53, 0
4, 56220, Note_on_c, 2, 55, 90
4, 56325, Note_on_c, 2, 55, 0
4, 56340, Note_on_c, 2, 43, 90
4, 56512, Note_on_c, 2, 43, 0
4, 56520, Note_on_c, 2, 56, 90
4, 56572, Note_on_c, 2, 56, 0
4, 56580, Note_on_c, 2, 55, 90
4, 56632, Note_on_c, 2, 55, 0
4, 56640, Note_on_c, 2, 53, 90
4, 56692, Note_on_c, 2, 53, 0
4, 56700, Note_on_c, 2, 55, 90
4, 56752, Note_on_c, 2, 55, 0
4, 56760, Note_on_c, 2, 50, 90
4, 56812, Note_on_c, 2, 50, 0
4, 56820, Note_on_c, 2, 51, 90
4, 56872, Note_on_c, 2, 51, 0
4, 56880, Note_on_c, 2, 47, 90
4, 56932, Note_on_c, 2, 47, 0
4, 56940, Note_on_c, 2, 48, 90
4, 56992, Note_on_c, 2, 48, 0
4, 57000, Note_on_c, 2, 53, 90
4, 57052, Note_on_c, 2, 53, 0
4, 57060, Note_on_c, 2, 51, 90
4, 57112, Note_on_c, 2, 51, 0
4, 57120, Note_on_c, 2, 50, 90
4, 57172, Note_on_c, 2, 50, 0
4, 57180, Note_on_c, 2, 51, 90
4, 57232, Note_on_c, 2, 51, 0
4, 57240, Note_on_c, 2, 47, 90
4, 57292, Note_on_c, 2, 47, 0
4, 57300, Note_on_c, 2, 48, 90
4, 57352, Note_on_c, 2, 48, 0
4, 57360, Note_on_c, 2, 43, 90
4, 57412, Note_on_c, 2, 43, 0
4, 57420, Note_on_c, 2, 44, 90
4, 57472, Note_on_c, 2, 44, 0
4, 57480, Note_on_c, 2, 49, 90
4, 57532, Note_on_c, 2, 49, 0
4, 57540, Note_on_c, 2, 48, 90
4, 57592, Note_on_c, 2, 48, 0
4, 57600, Note_on_c, 2, 46, 90
4, 57652, Note_on_c, 2, 46, 0
4, 57660, Note_on_c, 2, 48, 90
4, 57712, Note_on_c, 2, 48, 0
4, 57720, Note_on_c, 2, 43, 90
4, 57772, Note_on_c, 2, 43, 0
4, 57780, Note_on_c, 2, 44, 90
4, 57832, Note_on_c, 2, 44, 0
4, 57840, Note_on_c, 2, 40, 90
4, 57892, Note_on_c, 2, 40, 0
4, 57900, Note_on_c, 2, 41, 90
4, 57952, Note_on_c, 2, 41, 0
4, 57960, Note_on_c, 2, 46, 90
4, 58012, Note_on_c, 2, 46, 0
4, 58020, Note_on_c, 2, 44, 90
4, 58072, Note_on_c, 2, 44, 0
4, 58080, Note_on_c, 2, 43, 90
4, 58132, Note_on_c, 2, 43, 0
4, 58140, Note_on_c, 2, 44, 90
4, 58192, Note_on_c, 2, 44, 0
4, 58200, Note_on_c, 2, 41, 90
4, 58252, Note_on_c, 2, 41, 0
4, 58260, Note_on_c, 2, 43, 90
4, 58312, Note_on_c, 2, 43, 0
4, 58320, Note_on_c, 2, 47, 90
4, 58372, Note_on_c, 2, 47, 0
4, 58380, Note_on_c, 2, 50, 90
4, 58432, Note_on_c, 2, 50, 0
4, 58440, Note_on_c, 2, 44, 90
4, 58492, Note_on_c, 2, 44, 0
4, 58500, Note_on_c, 2, 43, 90
4, 58552, Note_on_c, 2, 43, 0
4, 58560, Note_on_c, 2, 41, 90
4, 58612, Note_on_c, 2, 41, 0
4, 58620, Note_on_c, 2, 39, 90
4, 58672, Note_on_c, 2, 39, 0
4, 58680, Note_on_c, 2, 43, 90
4, 58732, Note_on_c, 2, 43, 0
4, 58740, Note_on_c, 2, 48, 90
4, 58792, Note_on_c, 2, 48, 0
4, 58800, Note_on_c, 2, 51, 90
4, 58912, Note_on_c, 2, 51, 0
4, 58920, Note_on_c, 2, 47, 90
4, 58972, Note_on_c, 2, 47, 0
4, 58980, Note_on_c, 2, 48, 90
4, 59032, Note_on_c, 2, 48, 0
4, 59040, Note_on_c, 2, 39, 90
4, 59092, Note_on_c, 2, 39, 0
4, 59100, Note_on_c, 2, 41, 90
4, 59152, Note_on_c, 2, 41, 0
4, 59160, Note_on_c, 2, 44, 90
4, 59212, Note_on_c, 2, 44, 0
4, 59220, Note_on_c, 2, 48, 90
4, 59272, Note_on_c, 2, 48, 0
4, 59280, Note_on_c, 2, 51, 90
4, 59392, Note_on_c, 2, 51, 0
4, 59400, Note_on_c, 2, 47, 90
4, 59452, Note_on_c, 2, 47, 0
4, 59460, Note_on_c, 2, 48, 90
4, 59512, Note_on_c, 2, 48, 0
4, 59520, Note_on_c, 2, 41, 90
4, 59572, Note_on_c, 2, 41, 0
4, 59580, Note_on_c, 2, 43, 90
4, 59632, Note_on_c, 2, 43, 0
4, 59640, Note_on_c, 2, 47, 90
4, 59692, Note_on_c, 2, 47, 0
4, 59700, Note_on_c, 2, 48, 90
4, 59752, Note_on_c, 2, 48, 0
4, 59760, Note_on_c, 2, 51, 90
4, 59872, Note_on_c, 2, 51, 0
4, 59880, Note_on_c, 2, 47, 90
4, 59932, Note_on_c, 2, 47, 0
4, 59940, Note_on_c, 2, 48, 90
4, 59992, Note_on_c, 2, 48, 0
4, 60000, Note_on_c, 2, 43, 90
4, 60052, Note_on_c, 2, 43, 0
4, 60060, Note_on_c, 2, 44, 90
4, 60112, Note_on_c, 2, 44, 0
4, 60120, Note_on_c, 2, 47, 90
4, 60172, Note_on_c, 2, 47, 0
4, 60180, Note_on_c, 2, 48, 90
4, 60232, Note_on_c, 2, 48, 0
4, 60240, Note_on_c, 2, 51, 90
4, 60352, Note_on_c, 2, 51, 0
4, 60360, Note_on_c, 2, 47, 90
4, 60412, Note_on_c, 2, 47, 0
4, 60420, Note_on_c, 2, 48, 90
4, 60472, Note_on_c, 2, 48, 0
4, 60480, Note_on_c, 2, 51, 90
4, 60532, Note_on_c, 2, 51, 0
4, 60540, Note_on_c, 2, 57, 90
4, 60592, Note_on_c, 2, 57, 0
4, 60600, Note_on_c, 2, 50, 90
4, 60652, Note_on_c, 2, 50, 0
4, 60660, Note_on_c, 2, 51, 90
4, 60712, Note_on_c, 2, 51, 0
4, 60720, Note_on_c, 2, 47, 90
4, 60772, Note_on_c, 2, 47, 0
4, 60780, Note_on_c, 2, 48, 90
4, 60832, Note_on_c, 2, 48, 0
4, 60840, Note_on_c, 2, 51, 90
4, 60892, Note_on_c, 2, 51, 0
4, 60900, Note_on_c, 2, 50, 90
4, 60952, Note_on_c, 2, 50, 0
4, 60960, Note_on_c, 2, 48, 90
4, 61012, Note_on_c, 2, 48, 0
4, 61020, Note_on_c, 2, 47, 90
4, 61072, Note_on_c, 2, 47, 0
4, 61080, Note_on_c, 2, 43, 90
4, 61132, Note_on_c, 2, 43, 0
4, 61140, Note_on_c, 2, 44, 90
4, 61192, Note_on_c, 2, 44, 0
4, 61200, Note_on_c, 2, 39, 90
4, 61252, Note_on_c, 2, 39, 0
4, 61260, Note_on_c, 2, 41, 90
4, 61312, Note_on_c, 2, 41, 0
4, 61320, Note_on_c, 2, 44, 90
4, 61372, Note_on_c, 2, 44, 0
4, 61380, Note_on_c, 2, 43, 90
4, 61432, Note_on_c, 2, 43, 0
4, 61440, Note_on_c, 2, 41, 90
4, 61492, Note_on_c, 2, 41, 0
4, 61500, Note_on_c, 2, 39, 90
4, 61552, Note_on_c, 2, 39, 0
4, 61560, Note_on_c, 2, 43, 90
4, 61612, Note_on_c, 2, 43, 0
4, 61620, Note_on_c, 2, 48, 90
4, 61672, Note_on_c, 2, 48, 0
4, 61680, Note_on_c, 2, 51, 90
4, 61732, Note_on_c, 2, 51, 0
4, 61740, Note_on_c, 2, 55, 90
4, 61845, Note_on_c, 2, 55, 0
4, 61860, Note_on_c, 2, 43, 90
4, 61965, Note_on_c, 2, 43, 0
4, 61980, Note_on_c, 2, 36, 90
4, 61980, Note_on_c, 2, 48, 90
4, 62445, Note_on_c, 2, 48, 0
4, 62445, Note_on_c, 2, 36, 0
4, 62445, End_track
5, 0, Start_track
5, 0, MIDI_port, 0
5, 0, Program_c, 3, 10
5, 0, Control_c, 3, 7, 100
5, 18060, Control_c, 3, 10, 110
5, 18060, Note_on_c, 3, 65, 90
5, 18112, Note_on_c, 3, 65, 0
5, 18540, Note_on_c, 3, 67, 90
5, 18592, Note_on_c, 3, 67, 0
5, 19020, Note_on_c, 3, 68, 90
5, 19072, Note_on_c, 3, 68, 0
5, 19500, Note_on_c, 3, 71, 90
5, 19552, Note_on_c, 3, 71, 0
5, 25560, Note_on_c, 3, 69, 90
5, 25612, Note_on_c, 3, 69, 0
5, 25620, Note_on_c, 3, 70, 90
5, 25672, Note_on_c, 3, 70, 0
5, 25680, Note_on_c, 3, 66, 90
5, 25732, Note_on_c, 3, 66, 0
5, 25740, Note_on_c, 3, 67, 90
5, 25792, Note_on_c, 3, 67, 0
5, 26040, Note_on_c, 3, 66, 90
5, 26092, Note_on_c, 3, 66, 0
5, 26100, Note_on_c, 3, 67, 90
5, 26152, Note_on_c, 3, 67, 0
5, 26160, Note_on_c, 3, 62, 90
5, 26212, Note_on_c, 3, 62, 0
5, 26220, Note_on_c, 3, 63, 90
5, 26272, Note_on_c, 3, 63, 0
5, 26520, Note_on_c, 3, 62, 90
5, 26572, Note_on_c, 3, 62, 0
5, 26580, Note_on_c, 3, 63, 90
5, 26632, Note_on_c, 3, 63, 0
5, 26640, Note_on_c, 3, 59, 90
5, 26692, Note_on_c, 3, 59, 0
5, 26700, Note_on_c, 3, 60, 90
5, 26752, Note_on_c, 3, 60, 0
5, 27240, Note_on_c, 3, 63, 90
5, 27292, Note_on_c, 3, 63, 0
5, 27300, Note_on_c, 3, 62, 90
5, 27352, Note_on_c, 3, 62, 0
5, 27360, Note_on_c, 3, 60, 90
5, 27412, Note_on_c, 3, 60, 0
5, 27420, Note_on_c, 3, 58, 90
5, 27472, Note_on_c, 3, 58, 0
5, 27720, Note_on_c, 3, 66, 90
5, 27772, Note_on_c, 3, 66, 0
5, 27780, Note_on_c, 3, 67, 90
5, 27832, Note_on_c, 3, 67, 0
5, 27840, Note_on_c, 3, 58, 90
5, 27892, Note_on_c, 3, 58, 0
5, 27900, Note_on_c, 3, 60, 90
5, 27952, Note_on_c, 3, 60, 0
5, 28200, Note_on_c, 3, 66, 90
5, 28252, Note_on_c, 3, 66, 0
5, 28260, Note_on_c, 3, 67, 90
5, 28312, Note_on_c, 3, 67, 0
5, 28320, Note_on_c, 3, 60, 90
5, 28372, Note_on_c, 3, 60, 0
5, 28380, Note_on_c, 3, 62, 90
5, 28432, Note_on_c, 3, 62, 0
5, 28680, Note_on_c, 3, 66, 90
5, 28732, Note_on_c, 3, 66, 0
5, 28740, Note_on_c, 3, 67, 90
5, 28792, Note_on_c, 3, 67, 0
5, 28800, Note_on_c, 3, 62, 90
5, 28852, Note_on_c, 3, 62, 0
5, 28860, Note_on_c, 3, 63, 90
5, 28912, Note_on_c, 3, 63, 0
5, 29400, Note_on_c, 3, 69, 90
5, 29452, Note_on_c, 3, 69, 0
5, 29460, Note_on_c, 3, 70, 90
5, 29512, Note_on_c, 3, 70, 0
5, 29520, Note_on_c, 3, 66, 90
5, 29572, Note_on_c, 3, 66, 0
5, 29580, Note_on_c, 3, 67, 90
5, 29632, Note_on_c, 3, 67, 0
5, 29880, Note_on_c, 3, 62, 90
5, 29932, Note_on_c, 3, 62, 0
5, 29940, Note_on_c, 3, 63, 90
5, 29992, Note_on_c, 3, 63, 0
5, 30000, Note_on_c, 3, 58, 90
5, 30052, Note_on_c, 3, 58, 0
5, 30060, Note_on_c, 3, 60, 90
5, 30112, Note_on_c, 3, 60, 0
5, 47220, Control_c, 3, 7, 110
5, 47400, Note_on_c, 3, 65, 90
5, 47452, Note_on_c, 3, 65, 0
5, 47460, Note_on_c, 3, 63, 90
5, 47512, Note_on_c, 3, 63, 0
5, 47520, Note_on_c, 3, 62, 90
5, 47572, Note_on_c, 3, 62, 0
5, 47580, Note_on_c, 3, 63, 90
5, 47632, Note_on_c, 3, 63, 0
5, 47640, Note_on_c, 3, 65, 90
5, 47666, Note_on_c, 3, 65, 0
5, 47670, Note_on_c, 3, 67, 90
5, 47696, Note_on_c, 3, 67, 0
5, 47700, Note_on_c, 3, 60, 90
5, 47805, Note_on_c, 3, 60, 0
5, 48360, Note_on_c, 3, 70, 90
5, 48412, Note_on_c, 3, 70, 0
5, 48420, Note_on_c, 3, 68, 90
5, 48472, Note_on_c, 3, 68, 0
5, 48480, Note_on_c, 3, 67, 90
5, 48532, Note_on_c, 3, 67, 0
5, 48540, Note_on_c, 3, 68, 90
5, 48592, Note_on_c, 3, 68, 0
5, 48600, Note_on_c, 3, 70, 90
5, 48626, Note_on_c, 3, 70, 0
5, 48630, Note_on_c, 3, 72, 90
5, 48656, Note_on_c, 3, 72, 0
5, 48660, Note_on_c, 3, 65, 90
5, 48765, Note_on_c, 3, 65, 0
5, 49080, Note_on_c, 3, 64, 90
5, 49132, Note_on_c, 3, 64, 0
5, 49140, Note_on_c, 3, 65, 90
5, 49192, Note_on_c, 3, 65, 0
5, 49200, Note_on_c, 3, 60, 90
5, 49252, Note_on_c, 3, 60, 0
5, 49260, Note_on_c, 3, 61, 90
5, 49312, Note_on_c, 3, 61, 0
5, 49560, Note_on_c, 3, 65, 90
5, 49612, Note_on_c, 3, 65, 0
5, 49620, Note_on_c, 3, 67, 90
5, 49672, Note_on_c, 3, 67, 0
5, 49680, Note_on_c, 3, 62, 90
5, 49732, Note_on_c, 3, 62, 0
5, 49740, Note_on_c, 3, 64, 90
5, 49792, Note_on_c, 3, 64, 0
5, 50040, Note_on_c, 3, 67, 90
5, 50092, Note_on_c, 3, 67, 0
5, 50100, Note_on_c, 3, 68, 90
5, 50152, Note_on_c, 3, 68, 0
5, 50160, Note_on_c, 3, 64, 90
5, 50212, Note_on_c, 3, 64, 0
5, 50220, Note_on_c, 3, 65, 90
5, 50272, Note_on_c, 3, 65, 0
5, 50520, Note_on_c, 3, 69, 90
5, 50572, Note_on_c, 3, 69, 0
5, 50580, Note_on_c, 3, 70, 90
5, 50632, Note_on_c, 3, 70, 0
5, 50640, Note_on_c, 3, 67, 90
5, 50692, Note_on_c, 3, 67, 0
5, 51000, Note_on_c, 3, 72, 90
5, 51052, Note_on_c, 3, 72, 0
5, 51060, Note_on_c, 3, 77, 90
5, 51112, Note_on_c, 3, 77, 0
5, 51120, Note_on_c, 3, 76, 90
5, 51172, Note_on_c, 3, 76, 0
5, 51480, Note_on_c, 3, 72, 90
5, 51532, Note_on_c, 3, 72, 0
5, 51540, Note_on_c, 3, 75, 90
5, 51592, Note_on_c, 3, 75, 0
5, 51600, Note_on_c, 3, 73, 90
5, 51652, Note_on_c, 3, 73, 0
5, 52020, Note_on_c, 3, 72, 90
5, 52072, Note_on_c, 3, 72, 0
5, 52080, Note_on_c, 3, 70, 90
5, 52132, Note_on_c, 3, 70, 0
5, 52140, Note_on_c, 3, 68, 90
5, 52192, Note_on_c, 3, 68, 0
5, 52260, Note_on_c, 3, 67, 90
5, 52312, Note_on_c, 3, 67, 0
5, 52920, Note_on_c, 3, 76, 90
5, 52972, Note_on_c, 3, 76, 0
5, 52980, Note_on_c, 3, 77, 90
5, 53032, Note_on_c, 3, 77, 0
5, 53040, Note_on_c, 3, 72, 90
5, 53092, Note_on_c, 3, 72, 0
5, 53100, Note_on_c, 3, 68, 90
5, 53152, Note_on_c, 3, 68, 0
5, 53160, Note_on_c, 3, 65, 90
5, 53212, Note_on_c, 3, 65, 0
5, 53400, Note_on_c, 3, 69, 90
5, 53452, Note_on_c, 3, 69, 0
5, 53460, Note_on_c, 3, 70, 90
5, 53512, Note_on_c, 3, 70, 0
5, 53520, Note_on_c, 3, 74, 90
5, 53572, Note_on_c, 3, 74, 0
5, 53580, Note_on_c, 3, 77, 90
5, 53632, Note_on_c, 3, 77, 0
5, 53880, Note_on_c, 3, 74, 90
5, 53932, Note_on_c, 3, 74, 0
5, 53940, Note_on_c, 3, 75, 90
5, 53992, Note_on_c, 3, 75, 0
5, 54000, Note_on_c, 3, 70, 90
5, 54052, Note_on_c, 3, 70, 0
5, 54060, Note_on_c, 3, 67, 90
5, 54112, Note_on_c, 3, 67, 0
5, 54120, Note_on_c, 3, 63, 90
5, 54172, Note_on_c, 3, 63, 0
5, 54360, Note_on_c, 3, 67, 90
5, 54412, Note_on_c, 3, 67, 0
5, 54420, Note_on_c, 3, 68, 90
5, 54472, Note_on_c, 3, 68, 0
5, 54480, Note_on_c, 3, 72, 90
5, 54532, Note_on_c, 3, 72, 0
5, 54540, Note_on_c, 3, 75, 90
5, 54592, Note_on_c, 3, 75, 0
5, 54840, Note_on_c, 3, 72, 90
5, 54892, Note_on_c, 3, 72, 0
5, 54900, Note_on_c, 3, 74, 90
5, 54952, Note_on_c, 3, 74, 0
5, 54960, Note_on_c, 3, 68, 90
5, 55012, Note_on_c, 3, 68, 0
5, 55020, Note_on_c, 3, 65, 90
5, 55072, Note_on_c, 3, 65, 0
5, 55080, Note_on_c, 3, 62, 90
5, 55132, Note_on_c, 3, 62, 0
5, 55320, Note_on_c, 3, 66, 90
5, 55372, Note_on_c, 3, 66, 0
5, 55380, Note_on_c, 3, 67, 90
5, 55432, Note_on_c, 3, 67, 0
5, 55440, Note_on_c, 3, 71, 90
5, 55492, Note_on_c, 3, 71, 0
5, 55500, Note_on_c, 3, 74, 90
5, 55552, Note_on_c, 3, 74, 0
5, 55800, Note_on_c, 3, 71, 90
5, 55852, Note_on_c, 3, 71, 0
5, 55860, Note_on_c, 3, 72, 90
5, 55912, Note_on_c, 3, 72, 0
5, 55920, Note_on_c, 3, 68, 90
5, 55972, Note_on_c, 3, 68, 0
5, 55980, Note_on_c, 3, 67, 90
5, 56032, Note_on_c, 3, 67, 0
5, 56040, Note_on_c, 3, 65, 90
5, 56092, Note_on_c, 3, 65, 0
5, 57480, Note_on_c, 3, 70, 90
5, 57532, Note_on_c, 3, 70, 0
5, 57540, Note_on_c, 3, 68, 90
5, 57592, Note_on_c, 3, 68, 0
5, 57600, Note_on_c, 3, 67, 90
5, 57652, Note_on_c, 3, 67, 0
5, 57660, Note_on_c, 3, 68, 90
5, 57712, Note_on_c, 3, 68, 0
5, 58440, Note_on_c, 3, 65, 90
5, 58492, Note_on_c, 3, 65, 0
5, 58500, Note_on_c, 3, 63, 90
5, 58552, Note_on_c, 3, 63, 0
5, 58560, Note_on_c, 3, 62, 90
5, 58612, Note_on_c, 3, 62, 0
5, 58620, Note_on_c, 3, 60, 90
5, 58725, Note_on_c, 3, 60, 0
5, 58860, Note_on_c, 3, 68, 90
5, 58965, Note_on_c, 3, 68, 0
5, 58980, Note_on_c, 3, 67, 90
5, 59085, Note_on_c, 3, 67, 0
5, 59100, Note_on_c, 3, 62, 90
5, 59205, Note_on_c, 3, 62, 0
5, 59340, Note_on_c, 3, 68, 90
5, 59445, Note_on_c, 3, 68, 0
5, 59460, Note_on_c, 3, 67, 90
5, 59565, Note_on_c, 3, 67, 0
5, 59580, Note_on_c, 3, 63, 90
5, 59685, Note_on_c, 3, 63, 0
5, 59820, Note_on_c, 3, 68, 90
5, 59925, Note_on_c, 3, 68, 0
5, 59940, Note_on_c, 3, 67, 90
5, 60045, Note_on_c, 3, 67, 0
5, 60060, Note_on_c, 3, 65, 90
5, 60165, Note_on_c, 3, 65, 0
5, 61080, Note_on_c, 3, 74, 90
5, 61132, Note_on_c, 3, 74, 0
5, 61140, Note_on_c, 3, 77, 90
5, 61192, Note_on_c, 3, 77, 0
5, 61200, Note_on_c, 3, 75, 90
5, 61252, Note_on_c, 3, 75, 0
5, 61260, Note_on_c, 3, 74, 90
5, 61312, Note_on_c, 3, 74, 0
5, 61320, Note_on_c, 3, 72, 90
5, 61372, Note_on_c, 3, 72, 0
5, 61380, Note_on_c, 3, 71, 90
5, 61432, Note_on_c, 3, 71, 0
5, 61440, Note_on_c, 3, 69, 90
5, 61492, Note_on_c, 3, 69, 0
5, 61500, Note_on_c, 3, 67, 90
5, 61605, Note_on_c, 3, 67, 0
5, 61605, End_track
0, 0, End_of_file
