0, 0, Header, 1, 5, 480
1, 0, Start_track
1, 0, SMPTE_offset, 96, 0, 0, 0, 0
1, 0, Tempo, 1200000
1, 0, Time_signature, 3, 2, 24, 8
1, 22828, Tempo, 1224489
1, 22832, Tempo, 1250000
1, 22856, Tempo, 1276595
1, 22892, Tempo, 1304347
1, 22928, Tempo, 1333333
1, 22936, Tempo, 1363636
1, 22988, Tempo, 1395348
1, 23036, Tempo, 1153846
1, 23044, Tempo, 1200000
1, 33640, Tempo, 1200000
1, 33672, Tempo, 1224489
1, 33676, Tempo, 1250000
1, 33688, Tempo, 1276595
1, 33696, Tempo, 1304347
1, 33720, Tempo, 1363636
1, 33740, Tempo, 1395348
1, 33768, Tempo, 1428571
1, 33836, Tempo, 1463414
1, 33848, Tempo, 1500000
1, 33916, Tempo, 1463414
1, 33924, Tempo, 1428571
1, 33932, Tempo, 1395348
1, 33944, Tempo, 1363636
1, 33960, Tempo, 1304347
1, 33976, Tempo, 1276595
1, 33992, Tempo, 1250000
1, 34012, Tempo, 1224489
1, 34024, Tempo, 1200000
1, 45372, Tempo, 1224489
1, 45384, Tempo, 1250000
1, 45404, Tempo, 1276595
1, 45432, Tempo, 1304347
1, 45436, Tempo, 1333333
1, 45480, Tempo, 1363636
1, 45512, Tempo, 1395348
1, 45588, Tempo, 1428571
1, 45592, Tempo, 1463414
1, 45624, Tempo, 1500000
1, 45648, Tempo, 1538461
1, 45688, Tempo, 1621621
1, 45720, Tempo, 1666666
1, 45784, Tempo, 1714285
1, 45812, Tempo, 1764705
1, 45824, Tempo, 1818181
1, 45856, Tempo, 1875000
1, 45872, Tempo, 1935483
1, 45900, Tempo, 2000000
1, 45916, Tempo, 2068965
1, 45936, Tempo, 2142857
1, 45964, Tempo, 2222222
1, 45996, Tempo, 2400000
1, 46012, Tempo, 2500000
1, 46028, Tempo, 2608695
1, 46084, Tempo, 517241
1, 91700, Tempo, 4000000
1, 92160, End_track
2, 0, Start_track
2, 0, Title_t, "goldberg.mid"
2, 0, Program_c, 0, 0
2, 0, Note_on_c, 0, 79, 93
2, 32, Control_c, 0, 7, 110
2, 476, Note_on_c, 0, 79, 0
2, 480, Note_on_c, 0, 79, 85
2, 956, Note_on_c, 0, 79, 0
2, 960, Note_on_c, 0, 81, 82
2, 1016, Note_on_c, 0, 81, 0
2, 1020, Note_on_c, 0, 79, 85
2, 1076, Note_on_c, 0, 79, 0
2, 1080, Note_on_c, 0, 81, 80
2, 1316, Note_on_c, 0, 81, 0
2, 1320, Note_on_c, 0, 83, 92
2, 1436, Note_on_c, 0, 83, 0
2, 1440, Note_on_c, 0, 81, 88
2, 1676, Note_on_c, 0, 81, 0
2, 1680, Note_on_c, 0, 79, 86
2, 1796, Note_on_c, 0, 79, 0
2, 1800, Note_on_c, 0, 78, 76
2, 1916, Note_on_c, 0, 78, 0
2, 1920, Note_on_c, 0, 76, 82
2, 2156, Note_on_c, 0, 76, 0
2, 2160, Note_on_c, 0, 74, 75
2, 2880, Note_on_c, 0, 74, 0
2, 2880, Note_on_c, 0, 67, 88
2, 2940, Note_on_c, 0, 67, 0
2, 2940, Note_on_c, 0, 66, 88
2, 3000, Note_on_c, 0, 66, 0
2, 3000, Note_on_c, 0, 67, 88
2, 3360, Note_on_c, 0, 67, 0
2, 3360, Note_on_c, 0, 69, 88
2, 3420, Note_on_c, 0, 69, 0
2, 3420, Note_on_c, 0, 67, 88
2, 3480, Note_on_c, 0, 67, 0
2, 3480, Note_on_c, 0, 66, 88
2, 3540, Note_on_c, 0, 66, 0
2, 3540, Note_on_c, 0, 67, 88
2, 3600, Note_on_c, 0, 67, 0
2, 3600, Note_on_c, 0, 69, 88
2, 3660, Note_on_c, 0, 69, 0
2, 3660, Note_on_c, 0, 67, 88
2, 3720, Note_on_c, 0, 67, 0
2, 3720, Note_on_c, 0, 69, 88
2, 3780, Note_on_c, 0, 69, 0
2, 3780, Note_on_c, 0, 67, 88
2, 3840, Note_on_c, 0, 67, 0
2, 3840, Note_on_c, 0, 69, 88
2, 3900, Note_on_c, 0, 69, 0
2, 3900, Note_on_c, 0, 67, 88
2, 3960, Note_on_c, 0, 67, 0
2, 3960, Note_on_c, 0, 69, 88
2, 4020, Note_on_c, 0, 69, 0
2, 4020, Note_on_c, 0, 67, 88
2, 4080, Note_on_c, 0, 67, 0
2, 4080, Note_on_c, 0, 66, 88
2, 4200, Note_on_c, 0, 66, 0
2, 4200, Note_on_c, 0, 67, 88
2, 4320, Note_on_c, 0, 67, 0
2, 4320, Note_on_c, 0, 69, 69
2, 4376, Note_on_c, 0, 69, 0
2, 4380, Note_on_c, 0, 67, 71
2, 4436, Note_on_c, 0, 67, 0
2, 4440, Note_on_c, 0, 66, 62
2, 4556, Note_on_c, 0, 66, 0
2, 4560, Note_on_c, 0, 67, 80
2, 4616, Note_on_c, 0, 67, 0
2, 4620, Note_on_c, 0, 66, 81
2, 4680, Note_on_c, 0, 66, 0
2, 4680, Note_on_c, 0, 64, 72
2, 4800, Note_on_c, 0, 64, 0
2, 4800, Note_on_c, 0, 64, 84
2, 5036, Note_on_c, 0, 64, 0
2, 5040, Note_on_c, 0, 62, 75
2, 5756, Note_on_c, 0, 62, 0
2, 5760, Note_on_c, 0, 74, 92
2, 6236, Note_on_c, 0, 74, 0
2, 6240, Note_on_c, 0, 74, 88
2, 6716, Note_on_c, 0, 74, 0
2, 6720, Note_on_c, 0, 76, 83
2, 6776, Note_on_c, 0, 76, 0
2, 6780, Note_on_c, 0, 74, 73
2, 6836, Note_on_c, 0, 74, 0
2, 6840, Note_on_c, 0, 76, 74
2, 7076, Note_on_c, 0, 76, 0
2, 7080, Note_on_c, 0, 77, 85
2, 7196, Note_on_c, 0, 77, 0
2, 7200, Note_on_c, 0, 76, 69
2, 7436, Note_on_c, 0, 76, 0
2, 7440, Note_on_c, 0, 74, 74
2, 7556, Note_on_c, 0, 74, 0
2, 7560, Note_on_c, 0, 72, 81
2, 7676, Note_on_c, 0, 72, 0
2, 7680, Note_on_c, 0, 71, 73
2, 7916, Note_on_c, 0, 71, 0
2, 7920, Note_on_c, 0, 69, 64
2, 8400, Note_on_c, 0, 69, 0
2, 8400, Note_on_c, 0, 79, 98
2, 8456, Note_on_c, 0, 79, 0
2, 8460, Note_on_c, 0, 78, 90
2, 8516, Note_on_c, 0, 78, 0
2, 8520, Note_on_c, 0, 76, 85
2, 8576, Note_on_c, 0, 76, 0
2, 8580, Note_on_c, 0, 78, 81
2, 8636, Note_on_c, 0, 78, 0
2, 8640, Note_on_c, 0, 79, 97
2, 8696, Note_on_c, 0, 79, 0
2, 8700, Note_on_c, 0, 78, 102
2, 8876, Note_on_c, 0, 78, 0
2, 8880, Note_on_c, 0, 81, 96
2, 8936, Note_on_c, 0, 81, 0
2, 8940, Note_on_c, 0, 79, 96
2, 9116, Note_on_c, 0, 79, 0
2, 9120, Note_on_c, 0, 78, 101
2, 9176, Note_on_c, 0, 78, 0
2, 9180, Note_on_c, 0, 76, 82
2, 9360, Note_on_c, 0, 76, 0
2, 9360, Note_on_c, 0, 74, 72
2, 9416, Note_on_c, 0, 74, 0
2, 9420, Note_on_c, 0, 72, 92
2, 9600, Note_on_c, 0, 72, 0
2, 9600, Note_on_c, 0, 72, 86
2, 9720, Note_on_c, 0, 72, 0
2, 9720, Note_on_c, 0, 81, 90
2, 9956, Note_on_c, 0, 81, 0
2, 9960, Note_on_c, 0, 72, 83
2, 10076, Note_on_c, 0, 72, 0
2, 10080, Note_on_c, 0, 71, 68
2, 10136, Note_on_c, 0, 71, 0
2, 10140, Note_on_c, 0, 67, 71
2, 10320, Note_on_c, 0, 67, 0
2, 10320, Note_on_c, 0, 66, 84
2, 10560, Note_on_c, 0, 66, 0
2, 10560, Note_on_c, 0, 66, 90
2, 10800, Note_on_c, 0, 66, 0
2, 10800, Note_on_c, 0, 67, 73
2, 11516, Note_on_c, 0, 67, 0
2, 11520, Note_on_c, 0, 71, 82
2, 11996, Note_on_c, 0, 71, 0
2, 12000, Note_on_c, 0, 71, 88
2, 12476, Note_on_c, 0, 71, 0
2, 12480, Note_on_c, 0, 73, 77
2, 12536, Note_on_c, 0, 73, 0
2, 12540, Note_on_c, 0, 71, 74
2, 12596, Note_on_c, 0, 71, 0
2, 12600, Note_on_c, 0, 73, 82
2, 12836, Note_on_c, 0, 73, 0
2, 12840, Note_on_c, 0, 74, 89
2, 12956, Note_on_c, 0, 74, 0
2, 12960, Note_on_c, 0, 74, 95
2, 13076, Note_on_c, 0, 74, 0
2, 13080, Note_on_c, 0, 73, 92
2, 13196, Note_on_c, 0, 73, 0
2, 13200, Note_on_c, 0, 71, 91
2, 13316, Note_on_c, 0, 71, 0
2, 13320, Note_on_c, 0, 69, 75
2, 14280, Note_on_c, 0, 69, 0
2, 14400, Note_on_c, 0, 67, 93
2, 14460, Note_on_c, 0, 71, 93
2, 14520, Note_on_c, 0, 76, 93
2, 14580, Note_on_c, 0, 79, 93
2, 14700, Note_on_c, 0, 71, 0
2, 14760, Note_on_c, 0, 76, 0
2, 14820, Note_on_c, 0, 79, 0
2, 14880, Note_on_c, 0, 67, 0
2, 14880, Note_on_c, 0, 81, 117
2, 14940, Note_on_c, 0, 81, 0
2, 14940, Note_on_c, 0, 79, 90
2, 14996, Note_on_c, 0, 79, 0
2, 15000, Note_on_c, 0, 78, 70
2, 15060, Note_on_c, 0, 78, 0
2, 15060, Note_on_c, 0, 79, 86
2, 15116, Note_on_c, 0, 79, 0
2, 15120, Note_on_c, 0, 81, 83
2, 15176, Note_on_c, 0, 81, 0
2, 15180, Note_on_c, 0, 79, 81
2, 15236, Note_on_c, 0, 79, 0
2, 15240, Note_on_c, 0, 81, 77
2, 15296, Note_on_c, 0, 81, 0
2, 15300, Note_on_c, 0, 79, 85
2, 15356, Note_on_c, 0, 79, 0
2, 15360, Note_on_c, 0, 81, 81
2, 15416, Note_on_c, 0, 81, 0
2, 15420, Note_on_c, 0, 79, 90
2, 15476, Note_on_c, 0, 79, 0
2, 15480, Note_on_c, 0, 81, 80
2, 15536, Note_on_c, 0, 81, 0
2, 15540, Note_on_c, 0, 79, 79
2, 15600, Note_on_c, 0, 79, 0
2, 15600, Note_on_c, 0, 78, 85
2, 15720, Note_on_c, 0, 78, 0
2, 15720, Note_on_c, 0, 79, 85
2, 15840, Note_on_c, 0, 79, 0
2, 15840, Note_on_c, 0, 79, 93
2, 16076, Note_on_c, 0, 79, 0
2, 16080, Note_on_c, 0, 78, 80
2, 16196, Note_on_c, 0, 78, 0
2, 16200, Note_on_c, 0, 76, 73
2, 16320, Note_on_c, 0, 76, 0
2, 16320, Note_on_c, 0, 74, 80
2, 16556, Note_on_c, 0, 74, 0
2, 16560, Note_on_c, 0, 73, 85
2, 17036, Note_on_c, 0, 73, 0
2, 17040, Note_on_c, 0, 76, 90
2, 17280, Note_on_c, 0, 76, 0
2, 17280, Note_on_c, 0, 81, 93
2, 17396, Note_on_c, 0, 81, 0
2, 17400, Note_on_c, 0, 79, 88
2, 17520, Note_on_c, 0, 79, 0
2, 17520, Note_on_c, 0, 78, 88
2, 17636, Note_on_c, 0, 78, 0
2, 17640, Note_on_c, 0, 76, 86
2, 17756, Note_on_c, 0, 76, 0
2, 17760, Note_on_c, 0, 74, 80
2, 17996, Note_on_c, 0, 74, 0
2, 18000, Note_on_c, 0, 69, 81
2, 18536, Note_on_c, 0, 69, 0
2, 18540, Note_on_c, 0, 71, 78
2, 18596, Note_on_c, 0, 71, 0
2, 18600, Note_on_c, 0, 72, 90
2, 18720, Note_on_c, 0, 72, 0
2, 18720, Note_on_c, 0, 71, 86
2, 18836, Note_on_c, 0, 71, 0
2, 18840, Note_on_c, 0, 69, 65
2, 18956, Note_on_c, 0, 69, 0
2, 18960, Note_on_c, 0, 67, 70
2, 19076, Note_on_c, 0, 67, 0
2, 19080, Note_on_c, 0, 66, 80
2, 19196, Note_on_c, 0, 66, 0
2, 19200, Note_on_c, 0, 64, 89
2, 19440, Note_on_c, 0, 64, 0
2, 19440, Note_on_c, 0, 74, 85
2, 19556, Note_on_c, 0, 74, 0
2, 19560, Note_on_c, 0, 73, 80
2, 19976, Note_on_c, 0, 73, 0
2, 19980, Note_on_c, 0, 74, 78
2, 20036, Note_on_c, 0, 74, 0
2, 20040, Note_on_c, 0, 76, 77
2, 20156, Note_on_c, 0, 76, 0
2, 20160, Note_on_c, 0, 74, 83
2, 20276, Note_on_c, 0, 74, 0
2, 20280, Note_on_c, 0, 73, 89
2, 20396, Note_on_c, 0, 73, 0
2, 20400, Note_on_c, 0, 71, 84
2, 20516, Note_on_c, 0, 71, 0
2, 20520, Note_on_c, 0, 69, 80
2, 20636, Note_on_c, 0, 69, 0
2, 20640, Note_on_c, 0, 79, 97
2, 20876, Note_on_c, 0, 79, 0
2, 20880, Note_on_c, 0, 71, 86
2, 21360, Note_on_c, 0, 71, 0
2, 21360, Note_on_c, 0, 73, 85
2, 21596, Note_on_c, 0, 73, 0
2, 21600, Note_on_c, 0, 73, 88
2, 21720, Note_on_c, 0, 73, 0
2, 21720, Note_on_c, 0, 74, 85
2, 21900, Note_on_c, 0, 74, 0
2, 21900, Note_on_c, 0, 76, 78
2, 21956, Note_on_c, 0, 76, 0
2, 21960, Note_on_c, 0, 74, 83
2, 22016, Note_on_c, 0, 74, 0
2, 22020, Note_on_c, 0, 73, 80
2, 22080, Note_on_c, 0, 73, 0
2, 22080, Note_on_c, 0, 73, 84
2, 22316, Note_on_c, 0, 73, 0
2, 22320, Note_on_c, 0, 74, 75
2, 23040, Note_on_c, 0, 74, 0
2, 23040, Note_on_c, 0, 69, 113
2, 23100, Note_on_c, 0, 69, 0
2, 23100, Note_on_c, 0, 67, 113
2, 23160, Note_on_c, 0, 67, 0
2, 23160, Note_on_c, 0, 69, 113
2, 23520, Note_on_c, 0, 69, 0
2, 23520, Note_on_c, 0, 71, 75
2, 23580, Note_on_c, 0, 71, 0
2, 23580, Note_on_c, 0, 69, 75
2, 23640, Note_on_c, 0, 69, 0
2, 23640, Note_on_c, 0, 67, 75
2, 23700, Note_on_c, 0, 67, 0
2, 23700, Note_on_c, 0, 69, 75
2, 23760, Note_on_c, 0, 69, 0
2, 23760, Note_on_c, 0, 71, 75
2, 23820, Note_on_c, 0, 71, 0
2, 23820, Note_on_c, 0, 69, 75
2, 23880, Note_on_c, 0, 69, 0
2, 23880, Note_on_c, 0, 71, 75
2, 23940, Note_on_c, 0, 71, 0
2, 23940, Note_on_c, 0, 69, 75
2, 24000, Note_on_c, 0, 69, 0
2, 24000, Note_on_c, 0, 71, 75
2, 24060, Note_on_c, 0, 71, 0
2, 24060, Note_on_c, 0, 69, 75
2, 24180, Note_on_c, 0, 69, 0
2, 24180, Note_on_c, 0, 71, 75
2, 24240, Note_on_c, 0, 71, 0
2, 24240, Note_on_c, 0, 72, 75
2, 24300, Note_on_c, 0, 72, 0
2, 24300, Note_on_c, 0, 74, 75
2, 24360, Note_on_c, 0, 74, 0
2, 24360, Note_on_c, 0, 76, 75
2, 24480, Note_on_c, 0, 76, 0
2, 24480, Note_on_c, 0, 76, 113
2, 24596, Note_on_c, 0, 76, 0
2, 24600, Note_on_c, 0, 74, 85
2, 24716, Note_on_c, 0, 74, 0
2, 24720, Note_on_c, 0, 72, 96
2, 24836, Note_on_c, 0, 72, 0
2, 24840, Note_on_c, 0, 71, 75
2, 24956, Note_on_c, 0, 71, 0
2, 24960, Note_on_c, 0, 69, 73
2, 25196, Note_on_c, 0, 69, 0
2, 25200, Note_on_c, 0, 67, 85
2, 25680, Note_on_c, 0, 67, 0
2, 25680, Note_on_c, 0, 79, 102
2, 25916, Note_on_c, 0, 79, 0
2, 25920, Note_on_c, 0, 78, 101
2, 26036, Note_on_c, 0, 78, 0
2, 26040, Note_on_c, 0, 76, 102
2, 26280, Note_on_c, 0, 76, 0
2, 26280, Note_on_c, 0, 78, 86
2, 26340, Note_on_c, 0, 78, 0
2, 26340, Note_on_c, 0, 75, 92
2, 26400, Note_on_c, 0, 75, 0
2, 26400, Note_on_c, 0, 75, 93
2, 26636, Note_on_c, 0, 75, 0
2, 26640, Note_on_c, 0, 76, 92
2, 27116, Note_on_c, 0, 76, 0
2, 27120, Note_on_c, 0, 81, 101
2, 27176, Note_on_c, 0, 81, 0
2, 27180, Note_on_c, 0, 83, 109
2, 27236, Note_on_c, 0, 83, 0
2, 27240, Note_on_c, 0, 81, 97
2, 27296, Note_on_c, 0, 81, 0
2, 27300, Note_on_c, 0, 79, 92
2, 27356, Note_on_c, 0, 79, 0
2, 27360, Note_on_c, 0, 81, 111
2, 27716, Note_on_c, 0, 81, 0
2, 27720, Note_on_c, 0, 78, 96
2, 27836, Note_on_c, 0, 78, 0
2, 27840, Note_on_c, 0, 76, 93
2, 28076, Note_on_c, 0, 76, 0
2, 28080, Note_on_c, 0, 75, 101
2, 28556, Note_on_c, 0, 75, 0
2, 28560, Note_on_c, 0, 71, 101
2, 28800, Note_on_c, 0, 71, 0
2, 28800, Note_on_c, 0, 76, 90
2, 28860, Note_on_c, 0, 76, 0
2, 28860, Note_on_c, 0, 78, 90
2, 28920, Note_on_c, 0, 78, 0
2, 28920, Note_on_c, 0, 79, 101
2, 29160, Note_on_c, 0, 79, 0
2, 29160, Note_on_c, 0, 78, 102
2, 29276, Note_on_c, 0, 78, 0
2, 29280, Note_on_c, 0, 78, 106
2, 29516, Note_on_c, 0, 78, 0
2, 29520, Note_on_c, 0, 76, 97
2, 29876, Note_on_c, 0, 76, 0
2, 29880, Note_on_c, 0, 71, 85
2, 29996, Note_on_c, 0, 71, 0
2, 30000, Note_on_c, 0, 72, 95
2, 30056, Note_on_c, 0, 72, 0
2, 30060, Note_on_c, 0, 71, 88
2, 30116, Note_on_c, 0, 71, 0
2, 30120, Note_on_c, 0, 69, 84
2, 30176, Note_on_c, 0, 69, 0
2, 30180, Note_on_c, 0, 71, 80
2, 30236, Note_on_c, 0, 71, 0
2, 30240, Note_on_c, 0, 79, 109
2, 30296, Note_on_c, 0, 79, 0
2, 30300, Note_on_c, 0, 76, 90
2, 30476, Note_on_c, 0, 76, 0
2, 30480, Note_on_c, 0, 78, 99
2, 30536, Note_on_c, 0, 78, 0
2, 30540, Note_on_c, 0, 75, 101
2, 30656, Note_on_c, 0, 75, 0
2, 30720, Note_on_c, 0, 75, 117
2, 30956, Note_on_c, 0, 75, 0
2, 30960, Note_on_c, 0, 76, 102
2, 31316, Note_on_c, 0, 76, 0
2, 31320, Note_on_c, 0, 67, 92
2, 31436, Note_on_c, 0, 67, 0
2, 31440, Note_on_c, 0, 66, 86
2, 31556, Note_on_c, 0, 66, 0
2, 31560, Note_on_c, 0, 64, 80
2, 31676, Note_on_c, 0, 64, 0
2, 31680, Note_on_c, 0, 66, 97
2, 32040, Note_on_c, 0, 66, 0
2, 32040, Note_on_c, 0, 76, 121
2, 32160, Note_on_c, 0, 76, 0
2, 32160, Note_on_c, 0, 75, 117
2, 32220, Note_on_c, 0, 75, 0
2, 32220, Note_on_c, 0, 76, 75
2, 32280, Note_on_c, 0, 76, 0
2, 32280, Note_on_c, 0, 78, 75
2, 32340, Note_on_c, 0, 78, 0
2, 32340, Note_on_c, 0, 79, 85
2, 32396, Note_on_c, 0, 79, 0
2, 32400, Note_on_c, 0, 81, 117
2, 32636, Note_on_c, 0, 81, 0
2, 32640, Note_on_c, 0, 79, 109
2, 32876, Note_on_c, 0, 79, 0
2, 32880, Note_on_c, 0, 78, 117
2, 33116, Note_on_c, 0, 78, 0
2, 33120, Note_on_c, 0, 78, 102
2, 33236, Note_on_c, 0, 78, 0
2, 33240, Note_on_c, 0, 76, 117
2, 33480, Note_on_c, 0, 76, 0
2, 33480, Note_on_c, 0, 78, 89
2, 33536, Note_on_c, 0, 78, 0
2, 33540, Note_on_c, 0, 75, 99
2, 33596, Note_on_c, 0, 75, 0
2, 33600, Note_on_c, 0, 75, 88
2, 33836, Note_on_c, 0, 75, 0
2, 33840, Note_on_c, 0, 76, 91
2, 34556, Note_on_c, 0, 76, 0
2, 34560, Note_on_c, 0, 76, 91
2, 34796, Note_on_c, 0, 76, 0
2, 34800, Note_on_c, 0, 74, 78
2, 34916, Note_on_c, 0, 74, 0
2, 34920, Note_on_c, 0, 72, 72
2, 35036, Note_on_c, 0, 72, 0
2, 35040, Note_on_c, 0, 71, 72
2, 35276, Note_on_c, 0, 71, 0
2, 35280, Note_on_c, 0, 69, 59
2, 35756, Note_on_c, 0, 69, 0
2, 35760, Note_on_c, 0, 71, 69
2, 35876, Note_on_c, 0, 71, 0
2, 35880, Note_on_c, 0, 72, 75
2, 35996, Note_on_c, 0, 72, 0
2, 36000, Note_on_c, 0, 74, 74
2, 36056, Note_on_c, 0, 74, 0
2, 36060, Note_on_c, 0, 72, 74
2, 36116, Note_on_c, 0, 72, 0
2, 36120, Note_on_c, 0, 71, 65
2, 36236, Note_on_c, 0, 71, 0
2, 36240, Note_on_c, 0, 72, 71
2, 36296, Note_on_c, 0, 72, 0
2, 36300, Note_on_c, 0, 71, 78
2, 36356, Note_on_c, 0, 71, 0
2, 36360, Note_on_c, 0, 69, 67
2, 36416, Note_on_c, 0, 69, 0
2, 36480, Note_on_c, 0, 69, 68
2, 36716, Note_on_c, 0, 69, 0
2, 36720, Note_on_c, 0, 67, 72
2, 37196, Note_on_c, 0, 67, 0
2, 37200, Note_on_c, 0, 69, 68
2, 37316, Note_on_c, 0, 69, 0
2, 37320, Note_on_c, 0, 71, 62
2, 37436, Note_on_c, 0, 71, 0
2, 37440, Note_on_c, 0, 72, 73
2, 37556, Note_on_c, 0, 72, 0
2, 37560, Note_on_c, 0, 74, 73
2, 37676, Note_on_c, 0, 74, 0
2, 37680, Note_on_c, 0, 72, 82
2, 37796, Note_on_c, 0, 72, 0
2, 37800, Note_on_c, 0, 71, 82
2, 37916, Note_on_c, 0, 71, 0
2, 37920, Note_on_c, 0, 72, 74
2, 38036, Note_on_c, 0, 72, 0
2, 38040, Note_on_c, 0, 69, 76
2, 38156, Note_on_c, 0, 69, 0
2, 38160, Note_on_c, 0, 64, 76
2, 38276, Note_on_c, 0, 64, 0
2, 38280, Note_on_c, 0, 69, 69
2, 38396, Note_on_c, 0, 69, 0
2, 38400, Note_on_c, 0, 72, 83
2, 38876, Note_on_c, 0, 72, 0
2, 39000, Note_on_c, 0, 74, 81
2, 39116, Note_on_c, 0, 74, 0
2, 39120, Note_on_c, 0, 72, 83
2, 39236, Note_on_c, 0, 72, 0
2, 39240, Note_on_c, 0, 71, 71
2, 39356, Note_on_c, 0, 71, 0
2, 39360, Note_on_c, 0, 72, 72
2, 39476, Note_on_c, 0, 72, 0
2, 39480, Note_on_c, 0, 69, 68
2, 39596, Note_on_c, 0, 69, 0
2, 39600, Note_on_c, 0, 66, 72
2, 39716, Note_on_c, 0, 66, 0
2, 39720, Note_on_c, 0, 69, 88
2, 39836, Note_on_c, 0, 69, 0
2, 39840, Note_on_c, 0, 72, 90
2, 39956, Note_on_c, 0, 72, 0
2, 39960, Note_on_c, 0, 76, 86
2, 40076, Note_on_c, 0, 76, 0
2, 40080, Note_on_c, 0, 74, 84
2, 40196, Note_on_c, 0, 74, 0
2, 40200, Note_on_c, 0, 72, 83
2, 40316, Note_on_c, 0, 72, 0
2, 40320, Note_on_c, 0, 71, 78
2, 40436, Note_on_c, 0, 71, 0
2, 40440, Note_on_c, 0, 72, 77
2, 40556, Note_on_c, 0, 72, 0
2, 40560, Note_on_c, 0, 71, 72
2, 40676, Note_on_c, 0, 71, 0
2, 40680, Note_on_c, 0, 69, 71
2, 40796, Note_on_c, 0, 69, 0
2, 40800, Note_on_c, 0, 71, 77
2, 40916, Note_on_c, 0, 71, 0
2, 40920, Note_on_c, 0, 67, 81
2, 41036, Note_on_c, 0, 67, 0
2, 41040, Note_on_c, 0, 62, 72
2, 41156, Note_on_c, 0, 62, 0
2, 41160, Note_on_c, 0, 67, 80
2, 41276, Note_on_c, 0, 67, 0
2, 41280, Note_on_c, 0, 71, 81
2, 41396, Note_on_c, 0, 71, 0
2, 41400, Note_on_c, 0, 67, 72
2, 41516, Note_on_c, 0, 67, 0
2, 41520, Note_on_c, 0, 72, 88
2, 41636, Note_on_c, 0, 72, 0
2, 41640, Note_on_c, 0, 74, 88
2, 41756, Note_on_c, 0, 74, 0
2, 41760, Note_on_c, 0, 76, 88
2, 41876, Note_on_c, 0, 76, 0
2, 41880, Note_on_c, 0, 77, 84
2, 41996, Note_on_c, 0, 77, 0
2, 42000, Note_on_c, 0, 76, 86
2, 42116, Note_on_c, 0, 76, 0
2, 42120, Note_on_c, 0, 74, 78
2, 42236, Note_on_c, 0, 74, 0
2, 42240, Note_on_c, 0, 76, 85
2, 42356, Note_on_c, 0, 76, 0
2, 42360, Note_on_c, 0, 72, 75
2, 42476, Note_on_c, 0, 72, 0
2, 42480, Note_on_c, 0, 67, 73
2, 42600, Note_on_c, 0, 67, 0
2, 42600, Note_on_c, 0, 72, 88
2, 42716, Note_on_c, 0, 72, 0
2, 42720, Note_on_c, 0, 76, 93
2, 42836, Note_on_c, 0, 76, 0
2, 42840, Note_on_c, 0, 72, 77
2, 42956, Note_on_c, 0, 72, 0
2, 42960, Note_on_c, 0, 78, 76
2, 43076, Note_on_c, 0, 78, 0
2, 43080, Note_on_c, 0, 79, 91
2, 43196, Note_on_c, 0, 79, 0
2, 43200, Note_on_c, 0, 81, 98
2, 43316, Note_on_c, 0, 81, 0
2, 43320, Note_on_c, 0, 72, 81
2, 43436, Note_on_c, 0, 72, 0
2, 43440, Note_on_c, 0, 71, 80
2, 43556, Note_on_c, 0, 71, 0
2, 43560, Note_on_c, 0, 69, 71
2, 43676, Note_on_c, 0, 69, 0
2, 43680, Note_on_c, 0, 71, 76
2, 43796, Note_on_c, 0, 71, 0
2, 43800, Note_on_c, 0, 72, 80
2, 43916, Note_on_c, 0, 72, 0
2, 43920, Note_on_c, 0, 74, 84
2, 44036, Note_on_c, 0, 74, 0
2, 44040, Note_on_c, 0, 67, 76
2, 44156, Note_on_c, 0, 67, 0
2, 44160, Note_on_c, 0, 71, 88
2, 44276, Note_on_c, 0, 71, 0
2, 44280, Note_on_c, 0, 69, 75
2, 44396, Note_on_c, 0, 69, 0
2, 44400, Note_on_c, 0, 67, 82
2, 44516, Note_on_c, 0, 67, 0
2, 44520, Note_on_c, 0, 66, 86
2, 44636, Note_on_c, 0, 66, 0
2, 44640, Note_on_c, 0, 67, 90
2, 45236, Note_on_c, 0, 67, 0
2, 45240, Note_on_c, 0, 62, 76
2, 45360, Note_on_c, 0, 62, 0
2, 45360, Note_on_c, 0, 67, 97
2, 45476, Note_on_c, 0, 67, 0
2, 45480, Note_on_c, 0, 66, 94
2, 45596, Note_on_c, 0, 66, 0
2, 45600, Note_on_c, 0, 66, 92
2, 45720, Note_on_c, 0, 66, 0
2, 45720, Note_on_c, 0, 67, 92
2, 46080, Note_on_c, 0, 67, 0
2, 46080, Note_on_c, 0, 67, 111
2, 46196, Note_on_c, 0, 67, 0
2, 46200, Note_on_c, 0, 66, 123
2, 46316, Note_on_c, 0, 66, 0
2, 46320, Note_on_c, 0, 67, 115
2, 46676, Note_on_c, 0, 67, 0
2, 46680, Note_on_c, 0, 62, 97
2, 46796, Note_on_c, 0, 62, 0
2, 46800, Note_on_c, 0, 64, 106
2, 46916, Note_on_c, 0, 64, 0
2, 46920, Note_on_c, 0, 66, 101
2, 47036, Note_on_c, 0, 66, 0
2, 47040, Note_on_c, 0, 67, 97
2, 47156, Note_on_c, 0, 67, 0
2, 47160, Note_on_c, 0, 69, 100
2, 47276, Note_on_c, 0, 69, 0
2, 47280, Note_on_c, 0, 71, 99
2, 47396, Note_on_c, 0, 71, 0
2, 47400, Note_on_c, 0, 73, 92
2, 47516, Note_on_c, 0, 73, 0
2, 47520, Note_on_c, 0, 74, 102
2, 47636, Note_on_c, 0, 74, 0
2, 47640, Note_on_c, 0, 73, 92
2, 47756, Note_on_c, 0, 73, 0
2, 47760, Note_on_c, 0, 74, 111
2, 48116, Note_on_c, 0, 74, 0
2, 48120, Note_on_c, 0, 69, 83
2, 48236, Note_on_c, 0, 69, 0
2, 48240, Note_on_c, 0, 71, 98
2, 48356, Note_on_c, 0, 71, 0
2, 48360, Note_on_c, 0, 73, 104
2, 48476, Note_on_c, 0, 73, 0
2, 48480, Note_on_c, 0, 74, 96
2, 48596, Note_on_c, 0, 74, 0
2, 48600, Note_on_c, 0, 76, 107
2, 48716, Note_on_c, 0, 76, 0
2, 48720, Note_on_c, 0, 78, 102
2, 48836, Note_on_c, 0, 78, 0
2, 48840, Note_on_c, 0, 74, 100
2, 48956, Note_on_c, 0, 74, 0
2, 48960, Note_on_c, 0, 79, 109
2, 49080, Note_on_c, 0, 79, 0
2, 49080, Note_on_c, 0, 78, 104
2, 49200, Note_on_c, 0, 78, 0
2, 49200, Note_on_c, 0, 79, 111
2, 49560, Note_on_c, 0, 79, 0
2, 49560, Note_on_c, 0, 78, 106
2, 49676, Note_on_c, 0, 78, 0
2, 49680, Note_on_c, 0, 76, 104
2, 49796, Note_on_c, 0, 76, 0
2, 49800, Note_on_c, 0, 74, 84
2, 49916, Note_on_c, 0, 74, 0
2, 49920, Note_on_c, 0, 73, 108
2, 50036, Note_on_c, 0, 73, 0
2, 50040, Note_on_c, 0, 76, 95
2, 50156, Note_on_c, 0, 76, 0
2, 50160, Note_on_c, 0, 69, 85
2, 50276, Note_on_c, 0, 69, 0
2, 50280, Note_on_c, 0, 67, 93
2, 50396, Note_on_c, 0, 67, 0
2, 50400, Note_on_c, 0, 66, 110
2, 50516, Note_on_c, 0, 66, 0
2, 50520, Note_on_c, 0, 64, 98
2, 50636, Note_on_c, 0, 64, 0
2, 50640, Note_on_c, 0, 62, 100
2, 50756, Note_on_c, 0, 62, 0
2, 50760, Note_on_c, 0, 61, 106
2, 50876, Note_on_c, 0, 61, 0
2, 50880, Note_on_c, 0, 62, 90
2, 50996, Note_on_c, 0, 62, 0
2, 51000, Note_on_c, 0, 66, 104
2, 51116, Note_on_c, 0, 66, 0
2, 51120, Note_on_c, 0, 57, 96
2, 51236, Note_on_c, 0, 57, 0
2, 51240, Note_on_c, 0, 55, 95
2, 51356, Note_on_c, 0, 55, 0
2, 51360, Note_on_c, 0, 54, 110
2, 51476, Note_on_c, 0, 54, 0
2, 51480, Note_on_c, 0, 57, 101
2, 51596, Note_on_c, 0, 57, 0
2, 51600, Note_on_c, 0, 50, 98
2, 51836, Note_on_c, 0, 50, 0
2, 52080, Note_on_c, 0, 74, 93
2, 52196, Note_on_c, 0, 74, 0
2, 52200, Note_on_c, 0, 72, 85
2, 52316, Note_on_c, 0, 72, 0
2, 52320, Note_on_c, 0, 74, 101
2, 52436, Note_on_c, 0, 74, 0
2, 52560, Note_on_c, 0, 67, 97
2, 52676, Note_on_c, 0, 67, 0
2, 52800, Note_on_c, 0, 59, 88
2, 52916, Note_on_c, 0, 59, 0
2, 53040, Note_on_c, 0, 74, 101
2, 53156, Note_on_c, 0, 74, 0
2, 53520, Note_on_c, 0, 76, 115
2, 53636, Note_on_c, 0, 76, 0
2, 53640, Note_on_c, 0, 74, 85
2, 53756, Note_on_c, 0, 74, 0
2, 53760, Note_on_c, 0, 76, 107
2, 53876, Note_on_c, 0, 76, 0
2, 54000, Note_on_c, 0, 69, 91
2, 54116, Note_on_c, 0, 69, 0
2, 54240, Note_on_c, 0, 60, 74
2, 54356, Note_on_c, 0, 60, 0
2, 54480, Note_on_c, 0, 76, 119
2, 54596, Note_on_c, 0, 76, 0
2, 54960, Note_on_c, 0, 78, 125
2, 55076, Note_on_c, 0, 78, 0
2, 55080, Note_on_c, 0, 76, 95
2, 55196, Note_on_c, 0, 76, 0
2, 55200, Note_on_c, 0, 78, 99
2, 55316, Note_on_c, 0, 78, 0
2, 55440, Note_on_c, 0, 74, 95
2, 55556, Note_on_c, 0, 74, 0
2, 55680, Note_on_c, 0, 81, 107
2, 55796, Note_on_c, 0, 81, 0
2, 55920, Note_on_c, 0, 72, 111
2, 56396, Note_on_c, 0, 72, 0
2, 56400, Note_on_c, 0, 71, 109
2, 56756, Note_on_c, 0, 71, 0
2, 56760, Note_on_c, 0, 67, 96
2, 56876, Note_on_c, 0, 67, 0
2, 56880, Note_on_c, 0, 71, 98
2, 56996, Note_on_c, 0, 71, 0
2, 57000, Note_on_c, 0, 74, 97
2, 57116, Note_on_c, 0, 74, 0
2, 57120, Note_on_c, 0, 79, 107
2, 57236, Note_on_c, 0, 79, 0
2, 57240, Note_on_c, 0, 74, 90
2, 57356, Note_on_c, 0, 74, 0
2, 57360, Note_on_c, 0, 79, 66
2, 57476, Note_on_c, 0, 79, 0
2, 57480, Note_on_c, 0, 81, 104
2, 57596, Note_on_c, 0, 81, 0
2, 57600, Note_on_c, 0, 83, 119
2, 57716, Note_on_c, 0, 83, 0
2, 57720, Note_on_c, 0, 79, 88
2, 57836, Note_on_c, 0, 79, 0
2, 57840, Note_on_c, 0, 74, 86
2, 57956, Note_on_c, 0, 74, 0
2, 57960, Note_on_c, 0, 71, 71
2, 58076, Note_on_c, 0, 71, 0
2, 58080, Note_on_c, 0, 67, 91
2, 58196, Note_on_c, 0, 67, 0
2, 58200, Note_on_c, 0, 71, 75
2, 58316, Note_on_c, 0, 71, 0
2, 58320, Note_on_c, 0, 74, 75
2, 58436, Note_on_c, 0, 74, 0
2, 58440, Note_on_c, 0, 79, 46
2, 58556, Note_on_c, 0, 79, 0
2, 58560, Note_on_c, 0, 83, 107
2, 58676, Note_on_c, 0, 83, 0
2, 58680, Note_on_c, 0, 79, 89
2, 58796, Note_on_c, 0, 79, 0
2, 58800, Note_on_c, 0, 78, 97
2, 58916, Note_on_c, 0, 78, 0
2, 58920, Note_on_c, 0, 76, 88
2, 59036, Note_on_c, 0, 76, 0
2, 59040, Note_on_c, 0, 81, 107
2, 59160, Note_on_c, 0, 81, 0
2, 59160, Note_on_c, 0, 76, 96
2, 59280, Note_on_c, 0, 76, 0
2, 59280, Note_on_c, 0, 73, 90
2, 59400, Note_on_c, 0, 73, 0
2, 59400, Note_on_c, 0, 69, 77
2, 59520, Note_on_c, 0, 69, 0
2, 59520, Note_on_c, 0, 66, 104
2, 59640, Note_on_c, 0, 66, 0
2, 59640, Note_on_c, 0, 69, 63
2, 59760, Note_on_c, 0, 69, 0
2, 59760, Note_on_c, 0, 73, 49
2, 59876, Note_on_c, 0, 73, 0
2, 59880, Note_on_c, 0, 76, 72
2, 59996, Note_on_c, 0, 76, 0
2, 60000, Note_on_c, 0, 81, 93
2, 60116, Note_on_c, 0, 81, 0
2, 60120, Note_on_c, 0, 78, 77
2, 60236, Note_on_c, 0, 78, 0
2, 60240, Note_on_c, 0, 76, 91
2, 60356, Note_on_c, 0, 76, 0
2, 60360, Note_on_c, 0, 74, 93
2, 60476, Note_on_c, 0, 74, 0
2, 60480, Note_on_c, 0, 79, 102
2, 60596, Note_on_c, 0, 79, 0
2, 60600, Note_on_c, 0, 74, 86
2, 60716, Note_on_c, 0, 74, 0
2, 60720, Note_on_c, 0, 71, 90
2, 60836, Note_on_c, 0, 71, 0
2, 60840, Note_on_c, 0, 67, 91
2, 60956, Note_on_c, 0, 67, 0
2, 60960, Note_on_c, 0, 64, 88
2, 61076, Note_on_c, 0, 64, 0
2, 61080, Note_on_c, 0, 67, 73
2, 61196, Note_on_c, 0, 67, 0
2, 61200, Note_on_c, 0, 71, 92
2, 61316, Note_on_c, 0, 71, 0
2, 61320, Note_on_c, 0, 74, 95
2, 61436, Note_on_c, 0, 74, 0
2, 61440, Note_on_c, 0, 79, 102
2, 61556, Note_on_c, 0, 79, 0
2, 61560, Note_on_c, 0, 78, 108
2, 61676, Note_on_c, 0, 78, 0
2, 61680, Note_on_c, 0, 76, 77
2, 61796, Note_on_c, 0, 76, 0
2, 61800, Note_on_c, 0, 74, 67
2, 61916, Note_on_c, 0, 74, 0
2, 61920, Note_on_c, 0, 73, 99
2, 62036, Note_on_c, 0, 73, 0
2, 62040, Note_on_c, 0, 67, 92
2, 62156, Note_on_c, 0, 67, 0
2, 62160, Note_on_c, 0, 64, 95
2, 62276, Note_on_c, 0, 64, 0
2, 62280, Note_on_c, 0, 61, 119
2, 62396, Note_on_c, 0, 61, 0
2, 62400, Note_on_c, 0, 57, 66
2, 62516, Note_on_c, 0, 57, 0
2, 62520, Note_on_c, 0, 61, 119
2, 62636, Note_on_c, 0, 61, 0
2, 62640, Note_on_c, 0, 64, 78
2, 62756, Note_on_c, 0, 64, 0
2, 62760, Note_on_c, 0, 67, 104
2, 62876, Note_on_c, 0, 67, 0
2, 62880, Note_on_c, 0, 73, 104
2, 62996, Note_on_c, 0, 73, 0
2, 63000, Note_on_c, 0, 76, 109
2, 63116, Note_on_c, 0, 76, 0
2, 63120, Note_on_c, 0, 74, 97
2, 63236, Note_on_c, 0, 74, 0
2, 63240, Note_on_c, 0, 73, 110
2, 63356, Note_on_c, 0, 73, 0
2, 63360, Note_on_c, 0, 74, 113
2, 63600, Note_on_c, 0, 74, 0
2, 63600, Note_on_c, 0, 54, 115
2, 63840, Note_on_c, 0, 54, 0
2, 63840, Note_on_c, 0, 54, 115
2, 64080, Note_on_c, 0, 54, 0
2, 64080, Note_on_c, 0, 69, 100
2, 64316, Note_on_c, 0, 69, 0
2, 64320, Note_on_c, 0, 74, 109
2, 64556, Note_on_c, 0, 74, 0
2, 64560, Note_on_c, 0, 78, 115
2, 64800, Note_on_c, 0, 78, 0
2, 64800, Note_on_c, 0, 71, 115
2, 65040, Note_on_c, 0, 71, 0
2, 65040, Note_on_c, 0, 55, 115
2, 65280, Note_on_c, 0, 55, 0
2, 65280, Note_on_c, 0, 55, 115
2, 65520, Note_on_c, 0, 55, 0
2, 65520, Note_on_c, 0, 71, 115
2, 65760, Note_on_c, 0, 71, 0
2, 65760, Note_on_c, 0, 76, 115
2, 66000, Note_on_c, 0, 76, 0
2, 66000, Note_on_c, 0, 79, 115
2, 66240, Note_on_c, 0, 79, 0
2, 66240, Note_on_c, 0, 73, 127
2, 66360, Note_on_c, 0, 76, 96
2, 66368, Note_on_c, 0, 73, 0
2, 66460, Note_on_c, 0, 76, 0
2, 66480, Note_on_c, 0, 69, 92
2, 66600, Note_on_c, 0, 67, 90
2, 66604, Note_on_c, 0, 69, 0
2, 66720, Note_on_c, 0, 66, 104
2, 66732, Note_on_c, 0, 67, 0
2, 66824, Note_on_c, 0, 66, 0
2, 66840, Note_on_c, 0, 69, 96
2, 66960, Note_on_c, 0, 69, 0
2, 66960, Note_on_c, 0, 74, 95
2, 67080, Note_on_c, 0, 74, 0
2, 67080, Note_on_c, 0, 78, 94
2, 67196, Note_on_c, 0, 78, 0
2, 67200, Note_on_c, 0, 79, 104
2, 67320, Note_on_c, 0, 76, 98
2, 67340, Note_on_c, 0, 79, 0
2, 67440, Note_on_c, 0, 74, 93
2, 67448, Note_on_c, 0, 76, 0
2, 67560, Note_on_c, 0, 73, 90
2, 67572, Note_on_c, 0, 74, 0
2, 67680, Note_on_c, 0, 78, 92
2, 67692, Note_on_c, 0, 73, 0
2, 67800, Note_on_c, 0, 74, 67
2, 67804, Note_on_c, 0, 78, 0
2, 67920, Note_on_c, 0, 73, 90
2, 67928, Note_on_c, 0, 74, 0
2, 68040, Note_on_c, 0, 71, 80
2, 68060, Note_on_c, 0, 73, 0
2, 68160, Note_on_c, 0, 69, 83
2, 68164, Note_on_c, 0, 71, 0
2, 68280, Note_on_c, 0, 67, 89
2, 68288, Note_on_c, 0, 69, 0
2, 68400, Note_on_c, 0, 66, 106
2, 68436, Note_on_c, 0, 67, 0
2, 68520, Note_on_c, 0, 66, 0
2, 68520, Note_on_c, 0, 64, 89
2, 68640, Note_on_c, 0, 64, 0
2, 68640, Note_on_c, 0, 62, 107
2, 69116, Note_on_c, 0, 62, 0
2, 69120, Note_on_c, 0, 78, 102
2, 69240, Note_on_c, 0, 78, 0
2, 69240, Note_on_c, 0, 79, 82
2, 69360, Note_on_c, 0, 79, 0
2, 69360, Note_on_c, 0, 81, 102
2, 69732, Note_on_c, 0, 81, 0
2, 69732, Note_on_c, 0, 83, 107
2, 69848, Note_on_c, 0, 81, 84
2, 69884, Note_on_c, 0, 83, 0
2, 69960, Note_on_c, 0, 79, 92
2, 69988, Note_on_c, 0, 81, 0
2, 70080, Note_on_c, 0, 78, 112
2, 70096, Note_on_c, 0, 79, 0
2, 70200, Note_on_c, 0, 78, 0
2, 70200, Note_on_c, 0, 76, 80
2, 70320, Note_on_c, 0, 76, 0
2, 70320, Note_on_c, 0, 74, 78
2, 70440, Note_on_c, 0, 74, 0
2, 70440, Note_on_c, 0, 72, 85
2, 70560, Note_on_c, 0, 72, 0
2, 70560, Note_on_c, 0, 71, 83
2, 70680, Note_on_c, 0, 71, 0
2, 70680, Note_on_c, 0, 72, 86
2, 70800, Note_on_c, 0, 72, 0
2, 70800, Note_on_c, 0, 74, 91
2, 71148, Note_on_c, 0, 76, 91
2, 71160, Note_on_c, 0, 74, 0
2, 71272, Note_on_c, 0, 74, 89
2, 71300, Note_on_c, 0, 76, 0
2, 71388, Note_on_c, 0, 72, 89
2, 71416, Note_on_c, 0, 74, 0
2, 71500, Note_on_c, 0, 72, 0
2, 71520, Note_on_c, 0, 71, 80
2, 71640, Note_on_c, 0, 71, 0
2, 71640, Note_on_c, 0, 69, 84
2, 71760, Note_on_c, 0, 69, 0
2, 71760, Note_on_c, 0, 67, 71
2, 71880, Note_on_c, 0, 67, 0
2, 71880, Note_on_c, 0, 66, 102
2, 72000, Note_on_c, 0, 66, 0
2, 72000, Note_on_c, 0, 64, 88
2, 72120, Note_on_c, 0, 68, 88
2, 72144, Note_on_c, 0, 64, 0
2, 72240, Note_on_c, 0, 68, 0
2, 72240, Note_on_c, 0, 69, 82
2, 72360, Note_on_c, 0, 71, 92
2, 72384, Note_on_c, 0, 69, 0
2, 72480, Note_on_c, 0, 69, 71
2, 72512, Note_on_c, 0, 71, 0
2, 72584, Note_on_c, 0, 69, 0
2, 72600, Note_on_c, 0, 64, 75
2, 72720, Note_on_c, 0, 69, 81
2, 72748, Note_on_c, 0, 64, 0
2, 72840, Note_on_c, 0, 69, 0
2, 72840, Note_on_c, 0, 71, 78
2, 72960, Note_on_c, 0, 72, 78
2, 72976, Note_on_c, 0, 71, 0
2, 73068, Note_on_c, 0, 72, 0
2, 73080, Note_on_c, 0, 69, 84
2, 73200, Note_on_c, 0, 69, 0
2, 73200, Note_on_c, 0, 75, 63
2, 73320, Note_on_c, 0, 75, 0
2, 73320, Note_on_c, 0, 76, 66
2, 73428, Note_on_c, 0, 78, 101
2, 73444, Note_on_c, 0, 76, 0
2, 73540, Note_on_c, 0, 76, 84
2, 73544, Note_on_c, 0, 78, 0
2, 73668, Note_on_c, 0, 75, 89
2, 73696, Note_on_c, 0, 76, 0
2, 73792, Note_on_c, 0, 73, 93
2, 73812, Note_on_c, 0, 75, 0
2, 73920, Note_on_c, 0, 71, 88
2, 73924, Note_on_c, 0, 73, 0
2, 74932, Note_on_c, 0, 71, 0
2, 75000, Note_on_c, 0, 75, 88
2, 75072, Note_on_c, 0, 75, 0
2, 75120, Note_on_c, 0, 76, 88
2, 75476, Note_on_c, 0, 63, 90
2, 75532, Note_on_c, 0, 76, 0
2, 75584, Note_on_c, 0, 63, 0
2, 75600, Note_on_c, 0, 64, 95
2, 75940, Note_on_c, 0, 64, 0
2, 75976, Note_on_c, 0, 51, 106
2, 76064, Note_on_c, 0, 51, 0
2, 76088, Note_on_c, 0, 52, 95
2, 76316, Note_on_c, 0, 52, 0
2, 76440, Note_on_c, 0, 80, 104
2, 76560, Note_on_c, 0, 80, 0
2, 76560, Note_on_c, 0, 81, 97
2, 76896, Note_on_c, 0, 81, 0
2, 76920, Note_on_c, 0, 68, 94
2, 77004, Note_on_c, 0, 68, 0
2, 77040, Note_on_c, 0, 69, 95
2, 77400, Note_on_c, 0, 69, 0
2, 77400, Note_on_c, 0, 56, 121
2, 77492, Note_on_c, 0, 56, 0
2, 77520, Note_on_c, 0, 57, 117
2, 77880, Note_on_c, 0, 59, 117
2, 77936, Note_on_c, 0, 57, 0
2, 78000, Note_on_c, 0, 59, 0
2, 78000, Note_on_c, 0, 60, 117
2, 78120, Note_on_c, 0, 60, 0
2, 78120, Note_on_c, 0, 66, 117
2, 78240, Note_on_c, 0, 66, 0
2, 78240, Note_on_c, 0, 59, 117
2, 78360, Note_on_c, 0, 59, 0
2, 78360, Note_on_c, 0, 63, 117
2, 78480, Note_on_c, 0, 63, 0
2, 78480, Note_on_c, 0, 64, 117
2, 78600, Note_on_c, 0, 64, 0
2, 78600, Note_on_c, 0, 67, 117
2, 78720, Note_on_c, 0, 67, 0
2, 78720, Note_on_c, 0, 66, 117
2, 78840, Note_on_c, 0, 66, 0
2, 78840, Note_on_c, 0, 64, 117
2, 78960, Note_on_c, 0, 64, 0
2, 78960, Note_on_c, 0, 63, 117
2, 79080, Note_on_c, 0, 63, 0
2, 79080, Note_on_c, 0, 69, 117
2, 79200, Note_on_c, 0, 69, 0
2, 79200, Note_on_c, 0, 67, 117
2, 79320, Note_on_c, 0, 67, 0
2, 79320, Note_on_c, 0, 66, 117
2, 79440, Note_on_c, 0, 66, 0
2, 79440, Note_on_c, 0, 64, 117
2, 79560, Note_on_c, 0, 64, 0
2, 79560, Note_on_c, 0, 63, 117
2, 79680, Note_on_c, 0, 63, 0
2, 79680, Note_on_c, 0, 64, 117
2, 79800, Note_on_c, 0, 64, 0
2, 79800, Note_on_c, 0, 67, 117
2, 79920, Note_on_c, 0, 67, 0
2, 79920, Note_on_c, 0, 59, 117
2, 80040, Note_on_c, 0, 59, 0
2, 80040, Note_on_c, 0, 57, 117
2, 80160, Note_on_c, 0, 57, 0
2, 80160, Note_on_c, 0, 55, 117
2, 80280, Note_on_c, 0, 55, 0
2, 80280, Note_on_c, 0, 59, 117
2, 80400, Note_on_c, 0, 59, 0
2, 80400, Note_on_c, 0, 52, 117
2, 80640, Note_on_c, 0, 52, 0
2, 80880, Note_on_c, 0, 76, 117
2, 81120, Note_on_c, 0, 76, 0
2, 81120, Note_on_c, 0, 72, 117
2, 81360, Note_on_c, 0, 72, 0
2, 81360, Note_on_c, 0, 76, 117
2, 81600, Note_on_c, 0, 76, 0
2, 81600, Note_on_c, 0, 81, 117
2, 81840, Note_on_c, 0, 81, 0
2, 81840, Note_on_c, 0, 69, 117
2, 82080, Note_on_c, 0, 69, 0
2, 82320, Note_on_c, 0, 74, 117
2, 82560, Note_on_c, 0, 74, 0
2, 82560, Note_on_c, 0, 71, 117
2, 82800, Note_on_c, 0, 71, 0
2, 82800, Note_on_c, 0, 74, 117
2, 83040, Note_on_c, 0, 74, 0
2, 83040, Note_on_c, 0, 79, 117
2, 83280, Note_on_c, 0, 79, 0
2, 83280, Note_on_c, 0, 67, 117
2, 83520, Note_on_c, 0, 67, 0
2, 83520, Note_on_c, 0, 72, 117
2, 83640, Note_on_c, 0, 72, 0
2, 83640, Note_on_c, 0, 69, 117
2, 83760, Note_on_c, 0, 69, 0
2, 83760, Note_on_c, 0, 64, 117
2, 83880, Note_on_c, 0, 64, 0
2, 83880, Note_on_c, 0, 60, 117
2, 84000, Note_on_c, 0, 60, 0
2, 84000, Note_on_c, 0, 57, 117
2, 84120, Note_on_c, 0, 57, 0
2, 84120, Note_on_c, 0, 60, 117
2, 84240, Note_on_c, 0, 60, 0
2, 84240, Note_on_c, 0, 64, 117
2, 84360, Note_on_c, 0, 64, 0
2, 84360, Note_on_c, 0, 69, 117
2, 84480, Note_on_c, 0, 69, 0
2, 84480, Note_on_c, 0, 72, 117
2, 84600, Note_on_c, 0, 72, 0
2, 84600, Note_on_c, 0, 69, 117
2, 84720, Note_on_c, 0, 69, 0
2, 84720, Note_on_c, 0, 72, 117
2, 84840, Note_on_c, 0, 72, 0
2, 84840, Note_on_c, 0, 76, 117
2, 84960, Note_on_c, 0, 76, 0
2, 84960, Note_on_c, 0, 78, 117
2, 85080, Note_on_c, 0, 78, 0
2, 85080, Note_on_c, 0, 72, 117
2, 85200, Note_on_c, 0, 72, 0
2, 85200, Note_on_c, 0, 69, 117
2, 85320, Note_on_c, 0, 69, 0
2, 85320, Note_on_c, 0, 66, 117
2, 85440, Note_on_c, 0, 66, 0
2, 85440, Note_on_c, 0, 62, 117
2, 85560, Note_on_c, 0, 62, 0
2, 85560, Note_on_c, 0, 66, 117
2, 85680, Note_on_c, 0, 66, 0
2, 85680, Note_on_c, 0, 69, 117
2, 85800, Note_on_c, 0, 69, 0
2, 85800, Note_on_c, 0, 72, 117
2, 85920, Note_on_c, 0, 72, 0
2, 85920, Note_on_c, 0, 78, 117
2, 86040, Note_on_c, 0, 78, 0
2, 86040, Note_on_c, 0, 72, 117
2, 86160, Note_on_c, 0, 72, 0
2, 86160, Note_on_c, 0, 78, 117
2, 86280, Note_on_c, 0, 78, 0
2, 86280, Note_on_c, 0, 81, 117
2, 86400, Note_on_c, 0, 81, 0
2, 86400, Note_on_c, 0, 83, 117
2, 86520, Note_on_c, 0, 83, 0
2, 86520, Note_on_c, 0, 79, 117
2, 86640, Note_on_c, 0, 79, 0
2, 86640, Note_on_c, 0, 74, 117
2, 86760, Note_on_c, 0, 74, 0
2, 86760, Note_on_c, 0, 71, 117
2, 86880, Note_on_c, 0, 71, 0
2, 86880, Note_on_c, 0, 67, 117
2, 87000, Note_on_c, 0, 67, 0
2, 87000, Note_on_c, 0, 71, 117
2, 87120, Note_on_c, 0, 71, 0
2, 87120, Note_on_c, 0, 74, 117
2, 87240, Note_on_c, 0, 74, 0
2, 87240, Note_on_c, 0, 79, 117
2, 87360, Note_on_c, 0, 79, 0
2, 87360, Note_on_c, 0, 83, 117
2, 87480, Note_on_c, 0, 83, 0
2, 87480, Note_on_c, 0, 77, 117
2, 87600, Note_on_c, 0, 77, 0
2, 87600, Note_on_c, 0, 83, 117
2, 87720, Note_on_c, 0, 83, 0
2, 87720, Note_on_c, 0, 86, 117
2, 87840, Note_on_c, 0, 86, 0
2, 87840, Note_on_c, 0, 76, 117
2, 87960, Note_on_c, 0, 76, 0
2, 87960, Note_on_c, 0, 86, 117
2, 88080, Note_on_c, 0, 86, 0
2, 88080, Note_on_c, 0, 84, 117
2, 88200, Note_on_c, 0, 84, 0
2, 88200, Note_on_c, 0, 76, 117
2, 88320, Note_on_c, 0, 76, 0
2, 88320, Note_on_c, 0, 74, 117
2, 88440, Note_on_c, 0, 74, 0
2, 88440, Note_on_c, 0, 84, 117
2, 88560, Note_on_c, 0, 84, 0
2, 88560, Note_on_c, 0, 83, 117
2, 88680, Note_on_c, 0, 83, 0
2, 88680, Note_on_c, 0, 74, 117
2, 88800, Note_on_c, 0, 74, 0
2, 88800, Note_on_c, 0, 72, 117
2, 88920, Note_on_c, 0, 72, 0
2, 88920, Note_on_c, 0, 76, 117
2, 89040, Note_on_c, 0, 76, 0
2, 89040, Note_on_c, 0, 78, 117
2, 89160, Note_on_c, 0, 78, 0
2, 89160, Note_on_c, 0, 79, 117
2, 89280, Note_on_c, 0, 79, 0
2, 89280, Note_on_c, 0, 81, 117
2, 89400, Note_on_c, 0, 81, 0
2, 89400, Note_on_c, 0, 72, 117
2, 89520, Note_on_c, 0, 72, 0
2, 89520, Note_on_c, 0, 71, 117
2, 89640, Note_on_c, 0, 71, 0
2, 89640, Note_on_c, 0, 69, 117
2, 89760, Note_on_c, 0, 69, 0
2, 89760, Note_on_c, 0, 71, 117
2, 89880, Note_on_c, 0, 71, 0
2, 89880, Note_on_c, 0, 74, 117
2, 90000, Note_on_c, 0, 74, 0
2, 90000, Note_on_c, 0, 71, 117
2, 90120, Note_on_c, 0, 71, 0
2, 90120, Note_on_c, 0, 67, 117
2, 90240, Note_on_c, 0, 67, 0
2, 90240, Note_on_c, 0, 72, 117
2, 90360, Note_on_c, 0, 72, 0
2, 90360, Note_on_c, 0, 69, 117
2, 90480, Note_on_c, 0, 69, 0
2, 90480, Note_on_c, 0, 67, 117
2, 90600, Note_on_c, 0, 67, 0
2, 90600, Note_on_c, 0, 66, 117
2, 90720, Note_on_c, 0, 66, 0
2, 90720, Note_on_c, 0, 71, 117
2, 90840, Note_on_c, 0, 71, 0
2, 90840, Note_on_c, 0, 67, 117
2, 90960, Note_on_c, 0, 67, 0
2, 90960, Note_on_c, 0, 66, 117
2, 91080, Note_on_c, 0, 66, 0
2, 91080, Note_on_c, 0, 64, 117
2, 91200, Note_on_c, 0, 64, 0
2, 91200, Note_on_c, 0, 62, 117
2, 91320, Note_on_c, 0, 62, 0
2, 91320, Note_on_c, 0, 60, 117
2, 91440, Note_on_c, 0, 60, 0
2, 91440, Note_on_c, 0, 59, 117
2, 91560, Note_on_c, 0, 59, 0
2, 91560, Note_on_c, 0, 57, 117
2, 91680, Note_on_c, 0, 57, 0
2, 91680, Note_on_c, 0, 55, 117
2, 92160, Note_on_c, 0, 55, 0
2, 92160, End_track
3, 0, Start_track
3, 0, Title_t, "goldberg.mid"
3, 0, Program_c, 1, 0
3, 96, Control_c, 1, 7, 112
3, 960, Note_on_c, 1, 62, 106
3, 1436, Note_on_c, 1, 62, 0
3, 2400, Note_on_c, 1, 62, 97
3, 2876, Note_on_c, 1, 62, 0
3, 3840, Note_on_c, 1, 61, 92
3, 4316, Note_on_c, 1, 61, 0
3, 5280, Note_on_c, 1, 57, 97
3, 5756, Note_on_c, 1, 57, 0
3, 6720, Note_on_c, 1, 55, 98
3, 7196, Note_on_c, 1, 55, 0
3, 8160, Note_on_c, 1, 57, 102
3, 8636, Note_on_c, 1, 57, 0
3, 12480, Note_on_c, 1, 64, 101
3, 12956, Note_on_c, 1, 64, 0
3, 13440, Note_on_c, 1, 74, 101
3, 14400, Note_on_c, 1, 74, 0
3, 18240, Note_on_c, 1, 62, 98
3, 18716, Note_on_c, 1, 62, 0
3, 19680, Note_on_c, 1, 64, 101
3, 20156, Note_on_c, 1, 64, 0
3, 20160, Note_on_c, 1, 66, 104
3, 20636, Note_on_c, 1, 66, 0
3, 20640, Note_on_c, 1, 64, 107
3, 21000, Note_on_c, 1, 64, 0
3, 21000, Note_on_c, 1, 66, 104
3, 21120, Note_on_c, 1, 66, 0
3, 21120, Note_on_c, 1, 67, 104
3, 22076, Note_on_c, 1, 67, 0
3, 22080, Note_on_c, 1, 66, 94
3, 23036, Note_on_c, 1, 66, 0
3, 31680, Note_on_c, 1, 66, 83
3, 32160, Note_on_c, 1, 66, 0
3, 32400, Note_on_c, 1, 72, 83
3, 32640, Note_on_c, 1, 72, 0
3, 32640, Note_on_c, 1, 71, 83
3, 32880, Note_on_c, 1, 71, 0
3, 32880, Note_on_c, 1, 69, 83
3, 33600, Note_on_c, 1, 69, 0
3, 33600, Note_on_c, 1, 67, 83
3, 34560, Note_on_c, 1, 67, 0
3, 35520, Note_on_c, 1, 57, 83
3, 36240, Note_on_c, 1, 57, 0
3, 38160, Note_on_c, 1, 64, 83
3, 38520, Note_on_c, 1, 64, 0
3, 38520, Note_on_c, 1, 71, 83
3, 38640, Note_on_c, 1, 71, 0
3, 38640, Note_on_c, 1, 69, 83
3, 38760, Note_on_c, 1, 69, 0
3, 38760, Note_on_c, 1, 67, 83
3, 38880, Note_on_c, 1, 67, 0
3, 38880, Note_on_c, 1, 66, 83
3, 39360, Note_on_c, 1, 66, 0
3, 39600, Note_on_c, 1, 66, 83
3, 40320, Note_on_c, 1, 66, 0
3, 40320, Note_on_c, 1, 67, 83
3, 40560, Note_on_c, 1, 67, 0
3, 41040, Note_on_c, 1, 62, 83
3, 41400, Note_on_c, 1, 62, 0
3, 41400, Note_on_c, 1, 67, 83
3, 42360, Note_on_c, 1, 67, 0
3, 42480, Note_on_c, 1, 67, 83
3, 42840, Note_on_c, 1, 67, 0
3, 42840, Note_on_c, 1, 72, 83
3, 43200, Note_on_c, 1, 72, 0
3, 92160, End_track
4, 0, Start_track
4, 0, Title_t, "goldberg.mid"
4, 0, Program_c, 2, 0
4, 32, Control_c, 2, 7, 115
4, 480, Note_on_c, 2, 59, 86
4, 1436, Note_on_c, 2, 59, 0
4, 1920, Note_on_c, 2, 57, 81
4, 2876, Note_on_c, 2, 57, 0
4, 3360, Note_on_c, 2, 55, 78
4, 4316, Note_on_c, 2, 55, 0
4, 4800, Note_on_c, 2, 54, 93
4, 5756, Note_on_c, 2, 54, 0
4, 6240, Note_on_c, 2, 50, 81
4, 7196, Note_on_c, 2, 50, 0
4, 7680, Note_on_c, 2, 52, 86
4, 8400, Note_on_c, 2, 52, 0
4, 8880, Note_on_c, 2, 60, 97
4, 9360, Note_on_c, 2, 60, 0
4, 9360, Note_on_c, 2, 59, 74
4, 9476, Note_on_c, 2, 59, 0
4, 9480, Note_on_c, 2, 57, 74
4, 9596, Note_on_c, 2, 57, 0
4, 9600, Note_on_c, 2, 55, 70
4, 9716, Note_on_c, 2, 55, 0
4, 9720, Note_on_c, 2, 54, 86
4, 9836, Note_on_c, 2, 54, 0
4, 9840, Note_on_c, 2, 52, 78
4, 9956, Note_on_c, 2, 52, 0
4, 9960, Note_on_c, 2, 54, 89
4, 10076, Note_on_c, 2, 54, 0
4, 10080, Note_on_c, 2, 55, 75
4, 10316, Note_on_c, 2, 55, 0
4, 10320, Note_on_c, 2, 57, 92
4, 10556, Note_on_c, 2, 57, 0
4, 10560, Note_on_c, 2, 59, 91
4, 11520, Note_on_c, 2, 59, 0
4, 12000, Note_on_c, 2, 59, 96
4, 12956, Note_on_c, 2, 59, 0
4, 12960, Note_on_c, 2, 57, 97
4, 13440, Note_on_c, 2, 57, 0
4, 14640, Note_on_c, 2, 59, 90
4, 14880, Note_on_c, 2, 59, 0
4, 14880, Note_on_c, 2, 64, 92
4, 15600, Note_on_c, 2, 64, 0
4, 15600, Note_on_c, 2, 62, 85
4, 15840, Note_on_c, 2, 62, 0
4, 15840, Note_on_c, 2, 61, 88
4, 16076, Note_on_c, 2, 61, 0
4, 16080, Note_on_c, 2, 62, 85
4, 16316, Note_on_c, 2, 62, 0
4, 16320, Note_on_c, 2, 64, 93
4, 17276, Note_on_c, 2, 64, 0
4, 17760, Note_on_c, 2, 57, 86
4, 18716, Note_on_c, 2, 57, 0
4, 19200, Note_on_c, 2, 59, 96
4, 19680, Note_on_c, 2, 59, 0
4, 22320, Note_on_c, 2, 57, 96
4, 22560, Note_on_c, 2, 57, 0
4, 22560, Note_on_c, 2, 62, 96
4, 23040, Note_on_c, 2, 62, 0
4, 23280, Note_on_c, 2, 64, 98
4, 23520, Note_on_c, 2, 64, 0
4, 23520, Note_on_c, 2, 66, 92
4, 23580, Note_on_c, 2, 66, 0
4, 23580, Note_on_c, 2, 64, 92
4, 23640, Note_on_c, 2, 64, 0
4, 23640, Note_on_c, 2, 66, 92
4, 24360, Note_on_c, 2, 66, 0
4, 24720, Note_on_c, 2, 60, 100
4, 24956, Note_on_c, 2, 60, 0
4, 24960, Note_on_c, 2, 62, 83
4, 25916, Note_on_c, 2, 62, 0
4, 26160, Note_on_c, 2, 64, 98
4, 26396, Note_on_c, 2, 64, 0
4, 26400, Note_on_c, 2, 67, 111
4, 26880, Note_on_c, 2, 67, 0
4, 26880, Note_on_c, 2, 66, 88
4, 26940, Note_on_c, 2, 66, 0
4, 26940, Note_on_c, 2, 67, 88
4, 27000, Note_on_c, 2, 67, 0
4, 27000, Note_on_c, 2, 66, 88
4, 27120, Note_on_c, 2, 66, 0
4, 27120, Note_on_c, 2, 64, 88
4, 27356, Note_on_c, 2, 64, 0
4, 27360, Note_on_c, 2, 63, 102
4, 27596, Note_on_c, 2, 63, 0
4, 27600, Note_on_c, 2, 64, 100
4, 27836, Note_on_c, 2, 64, 0
4, 27840, Note_on_c, 2, 66, 86
4, 28796, Note_on_c, 2, 66, 0
4, 29040, Note_on_c, 2, 57, 106
4, 29280, Note_on_c, 2, 57, 0
4, 29280, Note_on_c, 2, 55, 92
4, 29340, Note_on_c, 2, 55, 0
4, 29340, Note_on_c, 2, 57, 92
4, 29400, Note_on_c, 2, 57, 0
4, 29400, Note_on_c, 2, 55, 92
4, 29520, Note_on_c, 2, 55, 0
4, 29520, Note_on_c, 2, 54, 92
4, 29756, Note_on_c, 2, 54, 0
4, 29760, Note_on_c, 2, 55, 84
4, 30240, Note_on_c, 2, 55, 0
4, 30480, Note_on_c, 2, 57, 97
4, 30720, Note_on_c, 2, 57, 0
4, 30720, Note_on_c, 2, 55, 85
4, 30780, Note_on_c, 2, 55, 0
4, 30780, Note_on_c, 2, 57, 85
4, 30840, Note_on_c, 2, 57, 0
4, 30840, Note_on_c, 2, 55, 85
4, 30960, Note_on_c, 2, 55, 0
4, 30960, Note_on_c, 2, 54, 80
4, 31196, Note_on_c, 2, 54, 0
4, 31200, Note_on_c, 2, 55, 86
4, 31436, Note_on_c, 2, 55, 0
4, 31440, Note_on_c, 2, 59, 97
4, 31680, Note_on_c, 2, 59, 0
4, 32880, Note_on_c, 2, 51, 107
4, 33120, Note_on_c, 2, 51, 0
4, 33120, Note_on_c, 2, 52, 107
4, 33600, Note_on_c, 2, 52, 0
4, 35040, Note_on_c, 2, 52, 71
4, 35996, Note_on_c, 2, 52, 0
4, 36240, Note_on_c, 2, 54, 99
4, 36476, Note_on_c, 2, 54, 0
4, 36480, Note_on_c, 2, 52, 90
4, 36596, Note_on_c, 2, 52, 0
4, 36600, Note_on_c, 2, 50, 85
4, 36716, Note_on_c, 2, 50, 0
4, 36720, Note_on_c, 2, 52, 83
4, 36836, Note_on_c, 2, 52, 0
4, 36840, Note_on_c, 2, 54, 76
4, 36956, Note_on_c, 2, 54, 0
4, 36960, Note_on_c, 2, 55, 76
4, 37076, Note_on_c, 2, 55, 0
4, 37080, Note_on_c, 2, 54, 81
4, 37196, Note_on_c, 2, 54, 0
4, 37200, Note_on_c, 2, 55, 80
4, 37676, Note_on_c, 2, 55, 0
4, 37680, Note_on_c, 2, 52, 81
4, 37916, Note_on_c, 2, 52, 0
4, 37920, Note_on_c, 2, 57, 77
4, 38156, Note_on_c, 2, 57, 0
4, 44760, Note_on_c, 2, 60, 75
4, 44876, Note_on_c, 2, 60, 0
4, 44880, Note_on_c, 2, 59, 66
4, 44996, Note_on_c, 2, 59, 0
4, 45000, Note_on_c, 2, 57, 69
4, 45116, Note_on_c, 2, 57, 0
4, 45120, Note_on_c, 2, 59, 80
4, 46080, Note_on_c, 2, 59, 0
4, 92160, End_track
5, 0, Start_track
5, 0, Title_t, "goldberg.mid"
5, 0, Program_c, 3, 0
5, 0, Note_on_c, 3, 55, 78
5, 64, Control_c, 3, 7, 115
5, 1436, Note_on_c, 3, 55, 0
5, 1440, Note_on_c, 3, 54, 80
5, 2876, Note_on_c, 3, 54, 0
5, 2880, Note_on_c, 3, 52, 85
5, 4316, Note_on_c, 3, 52, 0
5, 4320, Note_on_c, 3, 50, 82
5, 5276, Note_on_c, 3, 50, 0
5, 5520, Note_on_c, 3, 48, 80
5, 5756, Note_on_c, 3, 48, 0
5, 5760, Note_on_c, 3, 47, 85
5, 7196, Note_on_c, 3, 47, 0
5, 7200, Note_on_c, 3, 48, 96
5, 8396, Note_on_c, 3, 48, 0
5, 8400, Note_on_c, 3, 50, 89
5, 8636, Note_on_c, 3, 50, 0
5, 8640, Note_on_c, 3, 52, 82
5, 8876, Note_on_c, 3, 52, 0
5, 8880, Note_on_c, 3, 48, 77
5, 9116, Note_on_c, 3, 48, 0
5, 9120, Note_on_c, 3, 50, 92
5, 10076, Note_on_c, 3, 50, 0
5, 10080, Note_on_c, 3, 43, 82
5, 10796, Note_on_c, 3, 43, 0
5, 10800, Note_on_c, 3, 50, 85
5, 11036, Note_on_c, 3, 50, 0
5, 11040, Note_on_c, 3, 52, 86
5, 11100, Note_on_c, 3, 52, 0
5, 11100, Note_on_c, 3, 50, 86
5, 11160, Note_on_c, 3, 50, 0
5, 11160, Note_on_c, 3, 52, 86
5, 11400, Note_on_c, 3, 52, 0
5, 11400, Note_on_c, 3, 54, 80
5, 11520, Note_on_c, 3, 54, 0
5, 11520, Note_on_c, 3, 55, 90
5, 13440, Note_on_c, 3, 55, 0
5, 13440, Note_on_c, 3, 55, 77
5, 13500, Note_on_c, 3, 55, 0
5, 13500, Note_on_c, 3, 54, 77
5, 13560, Note_on_c, 3, 54, 0
5, 13560, Note_on_c, 3, 55, 77
5, 13620, Note_on_c, 3, 55, 0
5, 13620, Note_on_c, 3, 54, 77
5, 13680, Note_on_c, 3, 54, 0
5, 13680, Note_on_c, 3, 52, 71
5, 13916, Note_on_c, 3, 52, 0
5, 13920, Note_on_c, 3, 54, 96
5, 14160, Note_on_c, 3, 54, 0
5, 14160, Note_on_c, 3, 59, 92
5, 14400, Note_on_c, 3, 59, 0
5, 14400, Note_on_c, 3, 52, 88
5, 15116, Note_on_c, 3, 52, 0
5, 15120, Note_on_c, 3, 52, 109
5, 15356, Note_on_c, 3, 52, 0
5, 15360, Note_on_c, 3, 54, 96
5, 15596, Note_on_c, 3, 54, 0
5, 15600, Note_on_c, 3, 55, 81
5, 15836, Note_on_c, 3, 55, 0
5, 15840, Note_on_c, 3, 57, 80
5, 16560, Note_on_c, 3, 57, 0
5, 16560, Note_on_c, 3, 59, 100
5, 16796, Note_on_c, 3, 59, 0
5, 16800, Note_on_c, 3, 57, 66
5, 17036, Note_on_c, 3, 57, 0
5, 17040, Note_on_c, 3, 55, 73
5, 17276, Note_on_c, 3, 55, 0
5, 17280, Note_on_c, 3, 54, 70
5, 18720, Note_on_c, 3, 54, 0
5, 18720, Note_on_c, 3, 55, 83
5, 20156, Note_on_c, 3, 55, 0
5, 20160, Note_on_c, 3, 57, 89
5, 21596, Note_on_c, 3, 57, 0
5, 21600, Note_on_c, 3, 50, 96
5, 23036, Note_on_c, 3, 50, 0
5, 23040, Note_on_c, 3, 62, 98
5, 24000, Note_on_c, 3, 62, 0
5, 24000, Note_on_c, 3, 60, 86
5, 24476, Note_on_c, 3, 60, 0
5, 24480, Note_on_c, 3, 59, 82
5, 25196, Note_on_c, 3, 59, 0
5, 25200, Note_on_c, 3, 57, 90
5, 25436, Note_on_c, 3, 57, 0
5, 25440, Note_on_c, 3, 59, 89
5, 25916, Note_on_c, 3, 59, 0
5, 25920, Note_on_c, 3, 60, 96
5, 26636, Note_on_c, 3, 60, 0
5, 26640, Note_on_c, 3, 59, 88
5, 26876, Note_on_c, 3, 59, 0
5, 26880, Note_on_c, 3, 57, 82
5, 27356, Note_on_c, 3, 57, 0
5, 27360, Note_on_c, 3, 59, 89
5, 28076, Note_on_c, 3, 59, 0
5, 28080, Note_on_c, 3, 57, 80
5, 28316, Note_on_c, 3, 57, 0
5, 28320, Note_on_c, 3, 55, 79
5, 28556, Note_on_c, 3, 55, 0
5, 28560, Note_on_c, 3, 54, 93
5, 28796, Note_on_c, 3, 54, 0
5, 28800, Note_on_c, 3, 52, 89
5, 29760, Note_on_c, 3, 52, 0
5, 29760, Note_on_c, 3, 50, 90
5, 30236, Note_on_c, 3, 50, 0
5, 30240, Note_on_c, 3, 48, 97
5, 31196, Note_on_c, 3, 48, 0
5, 31200, Note_on_c, 3, 47, 100
5, 31676, Note_on_c, 3, 47, 0
5, 31680, Note_on_c, 3, 45, 96
5, 31916, Note_on_c, 3, 45, 0
5, 31920, Note_on_c, 3, 48, 91
5, 32156, Note_on_c, 3, 48, 0
5, 32160, Note_on_c, 3, 47, 102
5, 32396, Note_on_c, 3, 47, 0
5, 32400, Note_on_c, 3, 45, 88
5, 32636, Note_on_c, 3, 45, 0
5, 32640, Note_on_c, 3, 47, 107
5, 33116, Note_on_c, 3, 47, 0
5, 33120, Note_on_c, 3, 52, 117
5, 33356, Note_on_c, 3, 52, 0
5, 33360, Note_on_c, 3, 47, 117
5, 33596, Note_on_c, 3, 47, 0
5, 33600, Note_on_c, 3, 40, 100
5, 33836, Note_on_c, 3, 40, 0
5, 33840, Note_on_c, 3, 47, 96
5, 34076, Note_on_c, 3, 47, 0
5, 34080, Note_on_c, 3, 52, 90
5, 34316, Note_on_c, 3, 52, 0
5, 34320, Note_on_c, 3, 50, 80
5, 34556, Note_on_c, 3, 50, 0
5, 34560, Note_on_c, 3, 48, 85
5, 35996, Note_on_c, 3, 48, 0
5, 36000, Note_on_c, 3, 47, 90
5, 37436, Note_on_c, 3, 47, 0
5, 37440, Note_on_c, 3, 45, 85
5, 38156, Note_on_c, 3, 45, 0
5, 38160, Note_on_c, 3, 43, 71
5, 38396, Note_on_c, 3, 43, 0
5, 38400, Note_on_c, 3, 42, 96
5, 38636, Note_on_c, 3, 42, 0
5, 38640, Note_on_c, 3, 40, 77
5, 38876, Note_on_c, 3, 40, 0
5, 38880, Note_on_c, 3, 38, 91
5, 39116, Note_on_c, 3, 38, 0
5, 39120, Note_on_c, 3, 45, 93
5, 39356, Note_on_c, 3, 45, 0
5, 39360, Note_on_c, 3, 50, 102
5, 39596, Note_on_c, 3, 50, 0
5, 39600, Note_on_c, 3, 48, 95
5, 39836, Note_on_c, 3, 48, 0
5, 39840, Note_on_c, 3, 47, 91
5, 40076, Note_on_c, 3, 47, 0
5, 40080, Note_on_c, 3, 45, 86
5, 40316, Note_on_c, 3, 45, 0
5, 40320, Note_on_c, 3, 43, 96
5, 40556, Note_on_c, 3, 43, 0
5, 40560, Note_on_c, 3, 50, 96
5, 40796, Note_on_c, 3, 50, 0
5, 40800, Note_on_c, 3, 55, 104
5, 41036, Note_on_c, 3, 55, 0
5, 41040, Note_on_c, 3, 53, 81
5, 41276, Note_on_c, 3, 53, 0
5, 41280, Note_on_c, 3, 52, 91
5, 41516, Note_on_c, 3, 52, 0
5, 41520, Note_on_c, 3, 50, 80
5, 41756, Note_on_c, 3, 50, 0
5, 41760, Note_on_c, 3, 48, 95
5, 41996, Note_on_c, 3, 48, 0
5, 42000, Note_on_c, 3, 55, 88
5, 42236, Note_on_c, 3, 55, 0
5, 42240, Note_on_c, 3, 60, 101
5, 42476, Note_on_c, 3, 60, 0
5, 42480, Note_on_c, 3, 59, 93
5, 42716, Note_on_c, 3, 59, 0
5, 42720, Note_on_c, 3, 57, 95
5, 42956, Note_on_c, 3, 57, 0
5, 42960, Note_on_c, 3, 55, 80
5, 43196, Note_on_c, 3, 55, 0
5, 43200, Note_on_c, 3, 54, 96
5, 43436, Note_on_c, 3, 54, 0
5, 43440, Note_on_c, 3, 50, 88
5, 43676, Note_on_c, 3, 50, 0
5, 43680, Note_on_c, 3, 55, 88
5, 43916, Note_on_c, 3, 55, 0
5, 43920, Note_on_c, 3, 59, 98
5, 44156, Note_on_c, 3, 59, 0
5, 44160, Note_on_c, 3, 62, 106
5, 44396, Note_on_c, 3, 62, 0
5, 44400, Note_on_c, 3, 50, 90
5, 44636, Note_on_c, 3, 50, 0
5, 44640, Note_on_c, 3, 55, 91
5, 45360, Note_on_c, 3, 55, 0
5, 45360, Note_on_c, 3, 50, 88
5, 45596, Note_on_c, 3, 50, 0
5, 45600, Note_on_c, 3, 43, 81
5, 46080, Note_on_c, 3, 43, 0
5, 46080, Note_on_c, 3, 43, 127
5, 46316, Note_on_c, 3, 43, 0
5, 46320, Note_on_c, 3, 59, 124
5, 46436, Note_on_c, 3, 59, 0
5, 46440, Note_on_c, 3, 57, 123
5, 46556, Note_on_c, 3, 57, 0
5, 46560, Note_on_c, 3, 59, 119
5, 46796, Note_on_c, 3, 59, 0
5, 46800, Note_on_c, 3, 55, 117
5, 47036, Note_on_c, 3, 55, 0
5, 47040, Note_on_c, 3, 43, 126
5, 47276, Note_on_c, 3, 43, 0
5, 47280, Note_on_c, 3, 55, 117
5, 47516, Note_on_c, 3, 55, 0
5, 47520, Note_on_c, 3, 42, 127
5, 47756, Note_on_c, 3, 42, 0
5, 47760, Note_on_c, 3, 54, 127
5, 47876, Note_on_c, 3, 54, 0
5, 47880, Note_on_c, 3, 52, 121
5, 47996, Note_on_c, 3, 52, 0
5, 48000, Note_on_c, 3, 54, 117
5, 48236, Note_on_c, 3, 54, 0
5, 48240, Note_on_c, 3, 50, 117
5, 48476, Note_on_c, 3, 50, 0
5, 48480, Note_on_c, 3, 42, 127
5, 48716, Note_on_c, 3, 42, 0
5, 48720, Note_on_c, 3, 50, 123
5, 48956, Note_on_c, 3, 50, 0
5, 48960, Note_on_c, 3, 40, 127
5, 49196, Note_on_c, 3, 40, 0
5, 49200, Note_on_c, 3, 52, 123
5, 49316, Note_on_c, 3, 52, 0
5, 49320, Note_on_c, 3, 50, 113
5, 49436, Note_on_c, 3, 50, 0
5, 49440, Note_on_c, 3, 52, 109
5, 49676, Note_on_c, 3, 52, 0
5, 49680, Note_on_c, 3, 55, 109
5, 49916, Note_on_c, 3, 55, 0
5, 49920, Note_on_c, 3, 45, 123
5, 50156, Note_on_c, 3, 45, 0
5, 50160, Note_on_c, 3, 61, 127
5, 50396, Note_on_c, 3, 61, 0
5, 50400, Note_on_c, 3, 50, 126
5, 50636, Note_on_c, 3, 50, 0
5, 50640, Note_on_c, 3, 54, 123
5, 50756, Note_on_c, 3, 54, 0
5, 50760, Note_on_c, 3, 52, 107
5, 50876, Note_on_c, 3, 52, 0
5, 50880, Note_on_c, 3, 54, 125
5, 51116, Note_on_c, 3, 54, 0
5, 51120, Note_on_c, 3, 50, 124
5, 51356, Note_on_c, 3, 50, 0
5, 51360, Note_on_c, 3, 38, 126
5, 51716, Note_on_c, 3, 38, 0
5, 51720, Note_on_c, 3, 48, 123
5, 51836, Note_on_c, 3, 48, 0
5, 51840, Note_on_c, 3, 47, 115
5, 51956, Note_on_c, 3, 47, 0
5, 51960, Note_on_c, 3, 45, 117
5, 52076, Note_on_c, 3, 45, 0
5, 52080, Note_on_c, 3, 47, 126
5, 52436, Note_on_c, 3, 47, 0
5, 52440, Note_on_c, 3, 50, 111
5, 52556, Note_on_c, 3, 50, 0
5, 52560, Note_on_c, 3, 52, 115
5, 52676, Note_on_c, 3, 52, 0
5, 52680, Note_on_c, 3, 54, 115
5, 52796, Note_on_c, 3, 54, 0
5, 52800, Note_on_c, 3, 55, 102
5, 52916, Note_on_c, 3, 55, 0
5, 52920, Note_on_c, 3, 57, 104
5, 53036, Note_on_c, 3, 57, 0
5, 53040, Note_on_c, 3, 59, 113
5, 53156, Note_on_c, 3, 59, 0
5, 53160, Note_on_c, 3, 55, 102
5, 53276, Note_on_c, 3, 55, 0
5, 53280, Note_on_c, 3, 48, 100
5, 53396, Note_on_c, 3, 48, 0
5, 53400, Note_on_c, 3, 47, 119
5, 53516, Note_on_c, 3, 47, 0
5, 53520, Note_on_c, 3, 48, 126
5, 53876, Note_on_c, 3, 48, 0
5, 53880, Note_on_c, 3, 52, 117
5, 53996, Note_on_c, 3, 52, 0
5, 54000, Note_on_c, 3, 54, 112
5, 54116, Note_on_c, 3, 54, 0
5, 54120, Note_on_c, 3, 55, 95
5, 54236, Note_on_c, 3, 55, 0
5, 54240, Note_on_c, 3, 57, 119
5, 54356, Note_on_c, 3, 57, 0
5, 54360, Note_on_c, 3, 59, 113
5, 54476, Note_on_c, 3, 59, 0
5, 54480, Note_on_c, 3, 60, 113
5, 54596, Note_on_c, 3, 60, 0
5, 54600, Note_on_c, 3, 57, 113
5, 54716, Note_on_c, 3, 57, 0
5, 54720, Note_on_c, 3, 50, 111
5, 54836, Note_on_c, 3, 50, 0
5, 54840, Note_on_c, 3, 49, 96
5, 54956, Note_on_c, 3, 49, 0
5, 54960, Note_on_c, 3, 50, 121
5, 55316, Note_on_c, 3, 50, 0
5, 55320, Note_on_c, 3, 57, 117
5, 55436, Note_on_c, 3, 57, 0
5, 55440, Note_on_c, 3, 59, 101
5, 55556, Note_on_c, 3, 59, 0
5, 55560, Note_on_c, 3, 60, 111
5, 55676, Note_on_c, 3, 60, 0
5, 55680, Note_on_c, 3, 62, 107
5, 55796, Note_on_c, 3, 62, 0
5, 55800, Note_on_c, 3, 64, 102
5, 55916, Note_on_c, 3, 64, 0
5, 55920, Note_on_c, 3, 66, 96
5, 56036, Note_on_c, 3, 66, 0
5, 56040, Note_on_c, 3, 62, 104
5, 56156, Note_on_c, 3, 62, 0
5, 56160, Note_on_c, 3, 67, 121
5, 56276, Note_on_c, 3, 67, 0
5, 56280, Note_on_c, 3, 66, 59
5, 56396, Note_on_c, 3, 66, 0
5, 56400, Note_on_c, 3, 67, 115
5, 56516, Note_on_c, 3, 67, 0
5, 56520, Note_on_c, 3, 62, 95
5, 56636, Note_on_c, 3, 62, 0
5, 56640, Note_on_c, 3, 59, 98
5, 56756, Note_on_c, 3, 59, 0
5, 56760, Note_on_c, 3, 62, 92
5, 56876, Note_on_c, 3, 62, 0
5, 56880, Note_on_c, 3, 55, 100
5, 56996, Note_on_c, 3, 55, 0
5, 57000, Note_on_c, 3, 59, 60
5, 57116, Note_on_c, 3, 59, 0
5, 57120, Note_on_c, 3, 50, 96
5, 57236, Note_on_c, 3, 50, 0
5, 57240, Note_on_c, 3, 55, 100
5, 57356, Note_on_c, 3, 55, 0
5, 57360, Note_on_c, 3, 47, 107
5, 57476, Note_on_c, 3, 47, 0
5, 57480, Note_on_c, 3, 50, 89
5, 57596, Note_on_c, 3, 50, 0
5, 57600, Note_on_c, 3, 43, 121
5, 57716, Note_on_c, 3, 43, 0
5, 57840, Note_on_c, 3, 55, 100
5, 58076, Note_on_c, 3, 55, 0
5, 58080, Note_on_c, 3, 59, 121
5, 58316, Note_on_c, 3, 59, 0
5, 58320, Note_on_c, 3, 55, 109
5, 58556, Note_on_c, 3, 55, 0
5, 58560, Note_on_c, 3, 43, 121
5, 58796, Note_on_c, 3, 43, 0
5, 58800, Note_on_c, 3, 55, 121
5, 59036, Note_on_c, 3, 55, 0
5, 59040, Note_on_c, 3, 42, 125
5, 59276, Note_on_c, 3, 42, 0
5, 59280, Note_on_c, 3, 54, 115
5, 59516, Note_on_c, 3, 54, 0
5, 59520, Note_on_c, 3, 57, 106
5, 59756, Note_on_c, 3, 57, 0
5, 59760, Note_on_c, 3, 54, 110
5, 59996, Note_on_c, 3, 54, 0
5, 60000, Note_on_c, 3, 42, 127
5, 60236, Note_on_c, 3, 42, 0
5, 60240, Note_on_c, 3, 54, 121
5, 60476, Note_on_c, 3, 54, 0
5, 60480, Note_on_c, 3, 40, 109
5, 60716, Note_on_c, 3, 40, 0
5, 60720, Note_on_c, 3, 52, 113
5, 60956, Note_on_c, 3, 52, 0
5, 60960, Note_on_c, 3, 55, 109
5, 61196, Note_on_c, 3, 55, 0
5, 61200, Note_on_c, 3, 52, 111
5, 61436, Note_on_c, 3, 52, 0
5, 61440, Note_on_c, 3, 40, 109
5, 61676, Note_on_c, 3, 40, 0
5, 61680, Note_on_c, 3, 55, 113
5, 61916, Note_on_c, 3, 55, 0
5, 61920, Note_on_c, 3, 45, 123
5, 62156, Note_on_c, 3, 45, 0
5, 62160, Note_on_c, 3, 52, 113
5, 62396, Note_on_c, 3, 52, 0
5, 62400, Note_on_c, 3, 55, 106
5, 62636, Note_on_c, 3, 55, 0
5, 62640, Note_on_c, 3, 52, 113
5, 62876, Note_on_c, 3, 52, 0
5, 62880, Note_on_c, 3, 45, 115
5, 63116, Note_on_c, 3, 45, 0
5, 63120, Note_on_c, 3, 55, 119
5, 63356, Note_on_c, 3, 55, 0
5, 63360, Note_on_c, 3, 54, 108
5, 63476, Note_on_c, 3, 54, 0
5, 63480, Note_on_c, 3, 57, 91
5, 63596, Note_on_c, 3, 57, 0
5, 63600, Note_on_c, 3, 62, 107
5, 63716, Note_on_c, 3, 62, 0
5, 63720, Note_on_c, 3, 66, 93
5, 63836, Note_on_c, 3, 66, 0
5, 63840, Note_on_c, 3, 69, 84
5, 63956, Note_on_c, 3, 69, 0
5, 63960, Note_on_c, 3, 66, 84
5, 64076, Note_on_c, 3, 66, 0
5, 64080, Note_on_c, 3, 62, 88
5, 64196, Note_on_c, 3, 62, 0
5, 64200, Note_on_c, 3, 57, 84
5, 64316, Note_on_c, 3, 57, 0
5, 64320, Note_on_c, 3, 54, 84
5, 64436, Note_on_c, 3, 54, 0
5, 64440, Note_on_c, 3, 57, 75
5, 64556, Note_on_c, 3, 57, 0
5, 64560, Note_on_c, 3, 50, 97
5, 64676, Note_on_c, 3, 50, 0
5, 64680, Note_on_c, 3, 54, 95
5, 64796, Note_on_c, 3, 54, 0
5, 64800, Note_on_c, 3, 55, 115
5, 64916, Note_on_c, 3, 55, 0
5, 64920, Note_on_c, 3, 59, 115
5, 65036, Note_on_c, 3, 59, 0
5, 65040, Note_on_c, 3, 62, 115
5, 65156, Note_on_c, 3, 62, 0
5, 65160, Note_on_c, 3, 67, 115
5, 65276, Note_on_c, 3, 67, 0
5, 65280, Note_on_c, 3, 71, 115
5, 65396, Note_on_c, 3, 71, 0
5, 65400, Note_on_c, 3, 67, 115
5, 65516, Note_on_c, 3, 67, 0
5, 65520, Note_on_c, 3, 62, 115
5, 65636, Note_on_c, 3, 62, 0
5, 65640, Note_on_c, 3, 59, 115
5, 65756, Note_on_c, 3, 59, 0
5, 65760, Note_on_c, 3, 55, 115
5, 65876, Note_on_c, 3, 55, 0
5, 65880, Note_on_c, 3, 59, 115
5, 65996, Note_on_c, 3, 59, 0
5, 66000, Note_on_c, 3, 52, 115
5, 66116, Note_on_c, 3, 52, 0
5, 66120, Note_on_c, 3, 55, 115
5, 66236, Note_on_c, 3, 55, 0
5, 66240, Note_on_c, 3, 57, 115
5, 66476, Note_on_c, 3, 57, 0
5, 66480, Note_on_c, 3, 61, 115
5, 66716, Note_on_c, 3, 61, 0
5, 66720, Note_on_c, 3, 62, 115
5, 66836, Note_on_c, 3, 62, 0
5, 66840, Note_on_c, 3, 57, 115
5, 66956, Note_on_c, 3, 57, 0
5, 66960, Note_on_c, 3, 54, 115
5, 67076, Note_on_c, 3, 54, 0
5, 67080, Note_on_c, 3, 50, 115
5, 67196, Note_on_c, 3, 50, 0
5, 67200, Note_on_c, 3, 57, 115
5, 67436, Note_on_c, 3, 57, 0
5, 67440, Note_on_c, 3, 45, 115
5, 67676, Note_on_c, 3, 45, 0
5, 67680, Note_on_c, 3, 38, 115
5, 67796, Note_on_c, 3, 38, 0
5, 67800, Note_on_c, 3, 50, 115
5, 67916, Note_on_c, 3, 50, 0
5, 67920, Note_on_c, 3, 52, 115
5, 68036, Note_on_c, 3, 52, 0
5, 68040, Note_on_c, 3, 54, 115
5, 68156, Note_on_c, 3, 54, 0
5, 68160, Note_on_c, 3, 55, 115
5, 68276, Note_on_c, 3, 55, 0
5, 68280, Note_on_c, 3, 57, 115
5, 68396, Note_on_c, 3, 57, 0
5, 68400, Note_on_c, 3, 59, 115
5, 68516, Note_on_c, 3, 59, 0
5, 68520, Note_on_c, 3, 61, 115
5, 68636, Note_on_c, 3, 61, 0
5, 68640, Note_on_c, 3, 62, 115
5, 69116, Note_on_c, 3, 62, 0
5, 69120, Note_on_c, 3, 38, 126
5, 69356, Note_on_c, 3, 38, 0
5, 69360, Note_on_c, 3, 54, 127
5, 69476, Note_on_c, 3, 54, 0
5, 69480, Note_on_c, 3, 52, 117
5, 69596, Note_on_c, 3, 52, 0
5, 69600, Note_on_c, 3, 54, 117
5, 69836, Note_on_c, 3, 54, 0
5, 69840, Note_on_c, 3, 50, 111
5, 70076, Note_on_c, 3, 50, 0
5, 70080, Note_on_c, 3, 38, 121
5, 70316, Note_on_c, 3, 38, 0
5, 70320, Note_on_c, 3, 54, 127
5, 70556, Note_on_c, 3, 54, 0
5, 70560, Note_on_c, 3, 43, 121
5, 70796, Note_on_c, 3, 43, 0
5, 70800, Note_on_c, 3, 59, 121
5, 70916, Note_on_c, 3, 59, 0
5, 70920, Note_on_c, 3, 57, 117
5, 71036, Note_on_c, 3, 57, 0
5, 71040, Note_on_c, 3, 59, 117
5, 71276, Note_on_c, 3, 59, 0
5, 71280, Note_on_c, 3, 55, 115
5, 71516, Note_on_c, 3, 55, 0
5, 71520, Note_on_c, 3, 43, 113
5, 71756, Note_on_c, 3, 43, 0
5, 71760, Note_on_c, 3, 59, 115
5, 71996, Note_on_c, 3, 59, 0
5, 72000, Note_on_c, 3, 48, 127
5, 72236, Note_on_c, 3, 48, 0
5, 72240, Note_on_c, 3, 60, 121
5, 72356, Note_on_c, 3, 60, 0
5, 72360, Note_on_c, 3, 59, 115
5, 72476, Note_on_c, 3, 59, 0
5, 72480, Note_on_c, 3, 60, 111
5, 72716, Note_on_c, 3, 60, 0
5, 72720, Note_on_c, 3, 54, 127
5, 72956, Note_on_c, 3, 54, 0
5, 72960, Note_on_c, 3, 57, 119
5, 73196, Note_on_c, 3, 57, 0
5, 73200, Note_on_c, 3, 60, 123
5, 73436, Note_on_c, 3, 60, 0
5, 73440, Note_on_c, 3, 57, 119
5, 73676, Note_on_c, 3, 57, 0
5, 73680, Note_on_c, 3, 54, 127
5, 73916, Note_on_c, 3, 54, 0
5, 73920, Note_on_c, 3, 51, 119
5, 74036, Note_on_c, 3, 51, 0
5, 74040, Note_on_c, 3, 47, 106
5, 74156, Note_on_c, 3, 47, 0
5, 74160, Note_on_c, 3, 51, 121
5, 74276, Note_on_c, 3, 51, 0
5, 74280, Note_on_c, 3, 54, 127
5, 74396, Note_on_c, 3, 54, 0
5, 74400, Note_on_c, 3, 59, 117
5, 74516, Note_on_c, 3, 59, 0
5, 74520, Note_on_c, 3, 63, 108
5, 74636, Note_on_c, 3, 63, 0
5, 74640, Note_on_c, 3, 66, 110
5, 74756, Note_on_c, 3, 66, 0
5, 74760, Note_on_c, 3, 69, 101
5, 74876, Note_on_c, 3, 69, 0
5, 74880, Note_on_c, 3, 67, 115
5, 75236, Note_on_c, 3, 67, 0
5, 75240, Note_on_c, 3, 66, 119
5, 75356, Note_on_c, 3, 66, 0
5, 75360, Note_on_c, 3, 67, 111
5, 75716, Note_on_c, 3, 67, 0
5, 75720, Note_on_c, 3, 54, 123
5, 75836, Note_on_c, 3, 54, 0
5, 75840, Note_on_c, 3, 55, 124
5, 76196, Note_on_c, 3, 55, 0
5, 76200, Note_on_c, 3, 47, 111
5, 76316, Note_on_c, 3, 47, 0
5, 76320, Note_on_c, 3, 48, 124
5, 76676, Note_on_c, 3, 48, 0
5, 76680, Note_on_c, 3, 71, 117
5, 76796, Note_on_c, 3, 71, 0
5, 76800, Note_on_c, 3, 72, 109
5, 77156, Note_on_c, 3, 72, 0
5, 77160, Note_on_c, 3, 59, 121
5, 77276, Note_on_c, 3, 59, 0
5, 77280, Note_on_c, 3, 60, 127
5, 77640, Note_on_c, 3, 52, 117
5, 77756, Note_on_c, 3, 60, 0
5, 77756, Note_on_c, 3, 52, 0
5, 77760, Note_on_c, 3, 51, 125
5, 77996, Note_on_c, 3, 51, 0
5, 78000, Note_on_c, 3, 57, 121
5, 78236, Note_on_c, 3, 57, 0
5, 78240, Note_on_c, 3, 55, 106
5, 78476, Note_on_c, 3, 55, 0
5, 78480, Note_on_c, 3, 46, 108
5, 78716, Note_on_c, 3, 46, 0
5, 78720, Note_on_c, 3, 47, 126
5, 78956, Note_on_c, 3, 47, 0
5, 78960, Note_on_c, 3, 54, 127
5, 79196, Note_on_c, 3, 54, 0
5, 79200, Note_on_c, 3, 52, 121
5, 79436, Note_on_c, 3, 52, 0
5, 79440, Note_on_c, 3, 55, 119
5, 79556, Note_on_c, 3, 55, 0
5, 79560, Note_on_c, 3, 54, 125
5, 79676, Note_on_c, 3, 54, 0
5, 79680, Note_on_c, 3, 55, 113
5, 79916, Note_on_c, 3, 55, 0
5, 79920, Note_on_c, 3, 52, 119
5, 80156, Note_on_c, 3, 52, 0
5, 80160, Note_on_c, 3, 40, 127
5, 80516, Note_on_c, 3, 40, 0
5, 80520, Note_on_c, 3, 50, 115
5, 80636, Note_on_c, 3, 50, 0
5, 80640, Note_on_c, 3, 48, 101
5, 80756, Note_on_c, 3, 48, 0
5, 80760, Note_on_c, 3, 52, 102
5, 80876, Note_on_c, 3, 52, 0
5, 80880, Note_on_c, 3, 57, 91
5, 80996, Note_on_c, 3, 57, 0
5, 81000, Note_on_c, 3, 60, 104
5, 81116, Note_on_c, 3, 60, 0
5, 81120, Note_on_c, 3, 64, 106
5, 81236, Note_on_c, 3, 64, 0
5, 81240, Note_on_c, 3, 60, 109
5, 81356, Note_on_c, 3, 60, 0
5, 81360, Note_on_c, 3, 57, 97
5, 81476, Note_on_c, 3, 57, 0
5, 81480, Note_on_c, 3, 52, 115
5, 81596, Note_on_c, 3, 52, 0
5, 81600, Note_on_c, 3, 48, 97
5, 81720, Note_on_c, 3, 48, 0
5, 81720, Note_on_c, 3, 52, 49
5, 81836, Note_on_c, 3, 52, 0
5, 81840, Note_on_c, 3, 50, 111
5, 81956, Note_on_c, 3, 50, 0
5, 81960, Note_on_c, 3, 48, 98
5, 82076, Note_on_c, 3, 48, 0
5, 82080, Note_on_c, 3, 47, 104
5, 82196, Note_on_c, 3, 47, 0
5, 82200, Note_on_c, 3, 50, 86
5, 82316, Note_on_c, 3, 50, 0
5, 82320, Note_on_c, 3, 55, 95
5, 82436, Note_on_c, 3, 55, 0
5, 82440, Note_on_c, 3, 59, 102
5, 82556, Note_on_c, 3, 59, 0
5, 82560, Note_on_c, 3, 62, 107
5, 82676, Note_on_c, 3, 62, 0
5, 82680, Note_on_c, 3, 59, 113
5, 82796, Note_on_c, 3, 59, 0
5, 82800, Note_on_c, 3, 55, 98
5, 82916, Note_on_c, 3, 55, 0
5, 82920, Note_on_c, 3, 50, 101
5, 83036, Note_on_c, 3, 50, 0
5, 83040, Note_on_c, 3, 47, 106
5, 83156, Note_on_c, 3, 47, 0
5, 83160, Note_on_c, 3, 50, 96
5, 83276, Note_on_c, 3, 50, 0
5, 83280, Note_on_c, 3, 48, 96
5, 83396, Note_on_c, 3, 48, 0
5, 83400, Note_on_c, 3, 47, 100
5, 83516, Note_on_c, 3, 47, 0
5, 83520, Note_on_c, 3, 45, 97
5, 83756, Note_on_c, 3, 45, 0
5, 83760, Note_on_c, 3, 48, 115
5, 83996, Note_on_c, 3, 48, 0
5, 84000, Note_on_c, 3, 52, 115
5, 84236, Note_on_c, 3, 52, 0
5, 84240, Note_on_c, 3, 55, 107
5, 84476, Note_on_c, 3, 55, 0
5, 84480, Note_on_c, 3, 54, 127
5, 84716, Note_on_c, 3, 54, 0
5, 84720, Note_on_c, 3, 52, 117
5, 84956, Note_on_c, 3, 52, 0
5, 84960, Note_on_c, 3, 50, 119
5, 85196, Note_on_c, 3, 50, 0
5, 85200, Note_on_c, 3, 54, 121
5, 85436, Note_on_c, 3, 54, 0
5, 85440, Note_on_c, 3, 57, 123
5, 85676, Note_on_c, 3, 57, 0
5, 85680, Note_on_c, 3, 60, 98
5, 85916, Note_on_c, 3, 60, 0
5, 85920, Note_on_c, 3, 59, 106
5, 86156, Note_on_c, 3, 59, 0
5, 86160, Note_on_c, 3, 57, 119
5, 86396, Note_on_c, 3, 57, 0
5, 86400, Note_on_c, 3, 55, 117
5, 86636, Note_on_c, 3, 55, 0
5, 86640, Note_on_c, 3, 59, 121
5, 86876, Note_on_c, 3, 59, 0
5, 86880, Note_on_c, 3, 62, 113
5, 87116, Note_on_c, 3, 62, 0
5, 87120, Note_on_c, 3, 65, 121
5, 87356, Note_on_c, 3, 65, 0
5, 87360, Note_on_c, 3, 64, 119
5, 87596, Note_on_c, 3, 64, 0
5, 87600, Note_on_c, 3, 62, 121
5, 87836, Note_on_c, 3, 62, 0
5, 87840, Note_on_c, 3, 60, 119
5, 88080, Note_on_c, 3, 60, 0
5, 88080, Note_on_c, 3, 64, 113
5, 88320, Note_on_c, 3, 64, 0
5, 88320, Note_on_c, 3, 66, 115
5, 88560, Note_on_c, 3, 66, 0
5, 88560, Note_on_c, 3, 68, 101
5, 88800, Note_on_c, 3, 68, 0
5, 88800, Note_on_c, 3, 69, 110
5, 89040, Note_on_c, 3, 69, 0
5, 89040, Note_on_c, 3, 67, 109
5, 89276, Note_on_c, 3, 67, 0
5, 89280, Note_on_c, 3, 66, 123
5, 89516, Note_on_c, 3, 66, 0
5, 89520, Note_on_c, 3, 62, 102
5, 89760, Note_on_c, 3, 62, 0
5, 89760, Note_on_c, 3, 67, 107
5, 90000, Note_on_c, 3, 67, 0
5, 90000, Note_on_c, 3, 55, 109
5, 90240, Note_on_c, 3, 55, 0
5, 90240, Note_on_c, 3, 62, 113
5, 90480, Note_on_c, 3, 62, 0
5, 90480, Note_on_c, 3, 50, 111
5, 90720, Note_on_c, 3, 50, 0
5, 90720, Note_on_c, 3, 55, 117
5, 90836, Note_on_c, 3, 55, 0
5, 90840, Note_on_c, 3, 43, 107
5, 90956, Note_on_c, 3, 43, 0
5, 90960, Note_on_c, 3, 45, 115
5, 91076, Note_on_c, 3, 45, 0
5, 91080, Note_on_c, 3, 47, 111
5, 91196, Note_on_c, 3, 47, 0
5, 91200, Note_on_c, 3, 48, 107
5, 91316, Note_on_c, 3, 48, 0
5, 91320, Note_on_c, 3, 50, 109
5, 91436, Note_on_c, 3, 50, 0
5, 91440, Note_on_c, 3, 52, 115
5, 91556, Note_on_c, 3, 52, 0
5, 91560, Note_on_c, 3, 54, 112
5, 91676, Note_on_c, 3, 54, 0
5, 91680, Note_on_c, 3, 55, 117
5, 92160, Note_on_c, 3, 55, 0
5, 92160, End_track
0, 0, End_of_file
