0, 0, Header, 1, 3, 96
1, 0, Start_track
1, 0, Key_signature, -1, "major"
1, 0, Time_signature, 8, 2, 24, 8
1, 0, Tempo, 599704
1, 41088, Tempo, 666337
1, 41184, Tempo, 799605
1, 41376, Tempo, 999506
1, 41472, Tempo, 468519
1, 42240, End_track
2, 0, Start_track
2, 0, Program_c, 0, 0
2, 0, Note_on_c, 0, 62, 64
2, 48, Note_on_c, 0, 62, 0
2, 48, Note_on_c, 0, 70, 64
2, 96, Note_on_c, 0, 70, 0
2, 96, Note_on_c, 0, 69, 64
2, 288, Note_on_c, 0, 69, 0
2, 288, Note_on_c, 0, 67, 64
2, 384, Note_on_c, 0, 67, 0
2, 384, Note_on_c, 0, 65, 64
2, 432, Note_on_c, 0, 65, 0
2, 432, Note_on_c, 0, 64, 64
2, 456, Note_on_c, 0, 64, 0
2, 456, Note_on_c, 0, 62, 64
2, 480, Note_on_c, 0, 62, 0
2, 480, Note_on_c, 0, 63, 64
2, 672, Note_on_c, 0, 63, 0
2, 672, Note_on_c, 0, 62, 64
2, 768, Note_on_c, 0, 62, 0
2, 768, Note_on_c, 0, 61, 64
2, 816, Note_on_c, 0, 61, 0
2, 816, Note_on_c, 0, 62, 64
2, 840, Note_on_c, 0, 62, 0
2, 840, Note_on_c, 0, 64, 64
2, 864, Note_on_c, 0, 64, 0
2, 864, Note_on_c, 0, 62, 64
2, 1056, Note_on_c, 0, 62, 0
2, 1056, Note_on_c, 0, 64, 64
2, 1152, Note_on_c, 0, 64, 0
2, 1152, Note_on_c, 0, 65, 64
2, 1200, Note_on_c, 0, 65, 0
2, 1200, Note_on_c, 0, 57, 64
2, 1248, Note_on_c, 0, 57, 0
2, 1248, Note_on_c, 0, 67, 64
2, 1440, Note_on_c, 0, 67, 0
2, 1440, Note_on_c, 0, 65, 64
2, 1488, Note_on_c, 0, 65, 0
2, 1488, Note_on_c, 0, 64, 64
2, 1536, Note_on_c, 0, 64, 0
2, 1536, Note_on_c, 0, 65, 64
2, 1560, Note_on_c, 0, 65, 0
2, 1560, Note_on_c, 0, 67, 64
2, 1584, Note_on_c, 0, 67, 0
2, 1584, Note_on_c, 0, 69, 64
2, 1680, Note_on_c, 0, 69, 0
2, 1680, Note_on_c, 0, 67, 64
2, 1728, Note_on_c, 0, 67, 0
2, 1728, Note_on_c, 0, 65, 64
2, 1776, Note_on_c, 0, 65, 0
2, 1776, Note_on_c, 0, 74, 64
2, 1824, Note_on_c, 0, 74, 0
2, 1824, Note_on_c, 0, 67, 64
2, 1872, Note_on_c, 0, 67, 0
2, 1872, Note_on_c, 0, 76, 64
2, 1920, Note_on_c, 0, 76, 0
2, 1920, Note_on_c, 0, 69, 64
2, 1968, Note_on_c, 0, 69, 0
2, 1968, Note_on_c, 0, 77, 64
2, 2016, Note_on_c, 0, 77, 0
2, 2016, Note_on_c, 0, 71, 64
2, 2064, Note_on_c, 0, 71, 0
2, 2064, Note_on_c, 0, 74, 64
2, 2112, Note_on_c, 0, 74, 0
2, 2112, Note_on_c, 0, 72, 64
2, 2160, Note_on_c, 0, 72, 0
2, 2160, Note_on_c, 0, 70, 64
2, 2208, Note_on_c, 0, 70, 0
2, 2208, Note_on_c, 0, 79, 64
2, 2256, Note_on_c, 0, 79, 0
2, 2256, Note_on_c, 0, 70, 64
2, 2304, Note_on_c, 0, 70, 0
2, 2304, Note_on_c, 0, 69, 64
2, 2328, Note_on_c, 0, 69, 0
2, 2328, Note_on_c, 0, 75, 64
2, 2352, Note_on_c, 0, 75, 0
2, 2352, Note_on_c, 0, 74, 64
2, 2448, Note_on_c, 0, 74, 0
2, 2448, Note_on_c, 0, 72, 64
2, 2496, Note_on_c, 0, 72, 0
2, 2496, Note_on_c, 0, 70, 64
2, 2544, Note_on_c, 0, 70, 0
2, 2544, Note_on_c, 0, 79, 64
2, 2592, Note_on_c, 0, 79, 0
2, 2592, Note_on_c, 0, 72, 64
2, 2640, Note_on_c, 0, 72, 0
2, 2640, Note_on_c, 0, 81, 64
2, 2688, Note_on_c, 0, 81, 0
2, 2688, Note_on_c, 0, 74, 64
2, 2736, Note_on_c, 0, 74, 0
2, 2736, Note_on_c, 0, 82, 64
2, 2784, Note_on_c, 0, 82, 0
2, 2784, Note_on_c, 0, 76, 64
2, 2832, Note_on_c, 0, 76, 0
2, 2832, Note_on_c, 0, 79, 64
2, 2880, Note_on_c, 0, 79, 0
2, 2880, Note_on_c, 0, 77, 64
2, 2928, Note_on_c, 0, 77, 0
2, 2928, Note_on_c, 0, 75, 64
2, 2976, Note_on_c, 0, 75, 0
2, 2976, Note_on_c, 0, 84, 64
2, 3024, Note_on_c, 0, 84, 0
2, 3024, Note_on_c, 0, 75, 64
2, 3072, Note_on_c, 0, 75, 0
2, 3072, Note_on_c, 0, 74, 64
2, 3120, Note_on_c, 0, 74, 0
2, 3120, Note_on_c, 0, 62, 64
2, 3216, Note_on_c, 0, 62, 0
2, 3216, Note_on_c, 0, 64, 64
2, 3264, Note_on_c, 0, 64, 0
2, 3264, Note_on_c, 0, 65, 64
2, 3312, Note_on_c, 0, 65, 0
2, 3312, Note_on_c, 0, 69, 64
2, 3360, Note_on_c, 0, 69, 0
2, 3360, Note_on_c, 0, 74, 64
2, 3408, Note_on_c, 0, 74, 0
2, 3408, Note_on_c, 0, 77, 64
2, 3456, Note_on_c, 0, 77, 0
2, 3456, Note_on_c, 0, 67, 64
2, 3504, Note_on_c, 0, 67, 0
2, 3504, Note_on_c, 0, 76, 64
2, 3552, Note_on_c, 0, 76, 0
2, 3552, Note_on_c, 0, 65, 64
2, 3600, Note_on_c, 0, 65, 0
2, 3600, Note_on_c, 0, 74, 64
2, 3648, Note_on_c, 0, 74, 0
2, 3648, Note_on_c, 0, 64, 64
2, 3696, Note_on_c, 0, 64, 0
2, 3696, Note_on_c, 0, 73, 64
2, 3744, Note_on_c, 0, 73, 0
2, 3744, Note_on_c, 0, 74, 64
2, 3792, Note_on_c, 0, 74, 0
2, 3792, Note_on_c, 0, 76, 64
2, 3840, Note_on_c, 0, 76, 0
2, 3840, Note_on_c, 0, 69, 64
2, 3888, Note_on_c, 0, 69, 0
2, 3888, Note_on_c, 0, 74, 64
2, 3912, Note_on_c, 0, 74, 0
2, 3912, Note_on_c, 0, 72, 64
2, 3936, Note_on_c, 0, 72, 0
2, 3936, Note_on_c, 0, 70, 64
2, 3984, Note_on_c, 0, 70, 0
2, 3984, Note_on_c, 0, 69, 64
2, 4032, Note_on_c, 0, 69, 0
2, 4032, Note_on_c, 0, 67, 64
2, 4080, Note_on_c, 0, 67, 0
2, 4080, Note_on_c, 0, 79, 64
2, 4104, Note_on_c, 0, 79, 0
2, 4104, Note_on_c, 0, 77, 64
2, 4128, Note_on_c, 0, 77, 0
2, 4128, Note_on_c, 0, 76, 64
2, 4176, Note_on_c, 0, 76, 0
2, 4176, Note_on_c, 0, 74, 64
2, 4224, Note_on_c, 0, 74, 0
2, 4224, Note_on_c, 0, 73, 64
2, 4272, Note_on_c, 0, 73, 0
2, 4272, Note_on_c, 0, 76, 64
2, 4296, Note_on_c, 0, 76, 0
2, 4296, Note_on_c, 0, 74, 64
2, 4320, Note_on_c, 0, 74, 0
2, 4320, Note_on_c, 0, 72, 64
2, 4368, Note_on_c, 0, 72, 0
2, 4368, Note_on_c, 0, 71, 64
2, 4416, Note_on_c, 0, 71, 0
2, 4416, Note_on_c, 0, 69, 64
2, 4464, Note_on_c, 0, 69, 0
2, 4464, Note_on_c, 0, 81, 64
2, 4488, Note_on_c, 0, 81, 0
2, 4488, Note_on_c, 0, 79, 64
2, 4512, Note_on_c, 0, 79, 0
2, 4512, Note_on_c, 0, 77, 64
2, 4536, Note_on_c, 0, 77, 0
2, 4536, Note_on_c, 0, 76, 64
2, 4560, Note_on_c, 0, 76, 0
2, 4560, Note_on_c, 0, 74, 64
2, 4584, Note_on_c, 0, 74, 0
2, 4584, Note_on_c, 0, 73, 64
2, 4608, Note_on_c, 0, 73, 0
2, 4608, Note_on_c, 0, 74, 64
2, 4704, Note_on_c, 0, 74, 0
2, 4800, Note_on_c, 0, 62, 64
2, 4848, Note_on_c, 0, 62, 0
2, 4848, Note_on_c, 0, 70, 64
2, 4944, Note_on_c, 0, 70, 0
2, 4944, Note_on_c, 0, 69, 64
2, 4968, Note_on_c, 0, 69, 0
2, 4968, Note_on_c, 0, 67, 64
2, 4992, Note_on_c, 0, 67, 0
2, 4992, Note_on_c, 0, 69, 64
2, 5016, Note_on_c, 0, 69, 0
2, 5016, Note_on_c, 0, 65, 64
2, 5040, Note_on_c, 0, 65, 0
2, 5040, Note_on_c, 0, 62, 64
2, 5136, Note_on_c, 0, 62, 0
2, 5136, Note_on_c, 0, 64, 64
2, 5160, Note_on_c, 0, 64, 0
2, 5160, Note_on_c, 0, 65, 64
2, 5184, Note_on_c, 0, 65, 0
2, 5184, Note_on_c, 0, 67, 64
2, 5208, Note_on_c, 0, 67, 0
2, 5208, Note_on_c, 0, 64, 64
2, 5232, Note_on_c, 0, 64, 0
2, 5232, Note_on_c, 0, 61, 64
2, 5328, Note_on_c, 0, 61, 0
2, 5328, Note_on_c, 0, 62, 64
2, 5352, Note_on_c, 0, 62, 0
2, 5352, Note_on_c, 0, 64, 64
2, 5376, Note_on_c, 0, 64, 0
2, 5376, Note_on_c, 0, 65, 64
2, 5400, Note_on_c, 0, 65, 0
2, 5400, Note_on_c, 0, 64, 64
2, 5424, Note_on_c, 0, 64, 0
2, 5424, Note_on_c, 0, 62, 64
2, 5520, Note_on_c, 0, 62, 0
2, 5520, Note_on_c, 0, 74, 64
2, 5568, Note_on_c, 0, 74, 0
2, 5568, Note_on_c, 0, 75, 64
2, 5616, Note_on_c, 0, 75, 0
2, 5616, Note_on_c, 0, 76, 64
2, 5664, Note_on_c, 0, 76, 0
2, 5664, Note_on_c, 0, 77, 64
2, 5712, Note_on_c, 0, 77, 0
2, 5712, Note_on_c, 0, 78, 64
2, 5760, Note_on_c, 0, 78, 0
2, 5760, Note_on_c, 0, 79, 64
2, 5808, Note_on_c, 0, 79, 0
2, 5808, Note_on_c, 0, 80, 64
2, 5856, Note_on_c, 0, 80, 0
2, 5856, Note_on_c, 0, 81, 64
2, 5904, Note_on_c, 0, 81, 0
2, 5904, Note_on_c, 0, 82, 64
2, 6000, Note_on_c, 0, 82, 0
2, 6000, Note_on_c, 0, 81, 64
2, 6024, Note_on_c, 0, 81, 0
2, 6024, Note_on_c, 0, 79, 64
2, 6048, Note_on_c, 0, 79, 0
2, 6048, Note_on_c, 0, 81, 64
2, 6096, Note_on_c, 0, 81, 0
2, 6096, Note_on_c, 0, 76, 64
2, 6144, Note_on_c, 0, 76, 0
2, 6144, Note_on_c, 0, 77, 64
2, 6168, Note_on_c, 0, 77, 0
2, 6168, Note_on_c, 0, 76, 64
2, 6192, Note_on_c, 0, 76, 0
2, 6192, Note_on_c, 0, 74, 64
2, 6288, Note_on_c, 0, 74, 0
2, 6288, Note_on_c, 0, 72, 64
2, 6312, Note_on_c, 0, 72, 0
2, 6312, Note_on_c, 0, 71, 64
2, 6336, Note_on_c, 0, 71, 0
2, 6336, Note_on_c, 0, 72, 64
2, 6384, Note_on_c, 0, 72, 0
2, 6384, Note_on_c, 0, 77, 64
2, 6480, Note_on_c, 0, 77, 0
2, 6480, Note_on_c, 0, 76, 64
2, 6504, Note_on_c, 0, 76, 0
2, 6504, Note_on_c, 0, 74, 64
2, 6528, Note_on_c, 0, 74, 0
2, 6528, Note_on_c, 0, 76, 64
2, 6552, Note_on_c, 0, 76, 0
2, 6552, Note_on_c, 0, 72, 64
2, 6576, Note_on_c, 0, 72, 0
2, 6576, Note_on_c, 0, 69, 64
2, 6672, Note_on_c, 0, 69, 0
2, 6672, Note_on_c, 0, 71, 64
2, 6696, Note_on_c, 0, 71, 0
2, 6696, Note_on_c, 0, 72, 64
2, 6720, Note_on_c, 0, 72, 0
2, 6720, Note_on_c, 0, 74, 64
2, 6744, Note_on_c, 0, 74, 0
2, 6744, Note_on_c, 0, 71, 64
2, 6768, Note_on_c, 0, 71, 0
2, 6768, Note_on_c, 0, 68, 64
2, 6864, Note_on_c, 0, 68, 0
2, 6864, Note_on_c, 0, 69, 64
2, 6888, Note_on_c, 0, 69, 0
2, 6888, Note_on_c, 0, 71, 64
2, 6912, Note_on_c, 0, 71, 0
2, 6912, Note_on_c, 0, 72, 64
2, 6936, Note_on_c, 0, 72, 0
2, 6936, Note_on_c, 0, 71, 64
2, 6960, Note_on_c, 0, 71, 0
2, 6960, Note_on_c, 0, 69, 64
2, 7056, Note_on_c, 0, 69, 0
2, 7056, Note_on_c, 0, 57, 64
2, 7104, Note_on_c, 0, 57, 0
2, 7104, Note_on_c, 0, 58, 64
2, 7152, Note_on_c, 0, 58, 0
2, 7152, Note_on_c, 0, 59, 64
2, 7200, Note_on_c, 0, 59, 0
2, 7200, Note_on_c, 0, 60, 64
2, 7248, Note_on_c, 0, 60, 0
2, 7248, Note_on_c, 0, 61, 64
2, 7296, Note_on_c, 0, 61, 0
2, 7296, Note_on_c, 0, 62, 64
2, 7344, Note_on_c, 0, 62, 0
2, 7344, Note_on_c, 0, 63, 64
2, 7392, Note_on_c, 0, 63, 0
2, 7392, Note_on_c, 0, 64, 64
2, 7440, Note_on_c, 0, 64, 0
2, 7440, Note_on_c, 0, 65, 64
2, 7536, Note_on_c, 0, 65, 0
2, 7536, Note_on_c, 0, 64, 64
2, 7560, Note_on_c, 0, 64, 0
2, 7560, Note_on_c, 0, 62, 64
2, 7584, Note_on_c, 0, 62, 0
2, 7584, Note_on_c, 0, 64, 64
2, 7632, Note_on_c, 0, 64, 0
2, 7632, Note_on_c, 0, 59, 64
2, 7680, Note_on_c, 0, 59, 0
2, 7680, Note_on_c, 0, 60, 64
2, 7704, Note_on_c, 0, 60, 0
2, 7704, Note_on_c, 0, 59, 64
2, 7728, Note_on_c, 0, 59, 0
2, 7728, Note_on_c, 0, 57, 64
2, 7776, Note_on_c, 0, 57, 0
2, 7824, Note_on_c, 0, 72, 64
2, 7872, Note_on_c, 0, 72, 0
2, 7872, Note_on_c, 0, 62, 64
2, 7920, Note_on_c, 0, 62, 0
2, 7920, Note_on_c, 0, 70, 64
2, 7968, Note_on_c, 0, 70, 0
2, 7968, Note_on_c, 0, 64, 64
2, 8016, Note_on_c, 0, 64, 0
2, 8016, Note_on_c, 0, 70, 64
2, 8088, Note_on_c, 0, 70, 0
2, 8088, Note_on_c, 0, 69, 64
2, 8112, Note_on_c, 0, 69, 0
2, 8112, Note_on_c, 0, 67, 64
2, 8136, Note_on_c, 0, 67, 0
2, 8136, Note_on_c, 0, 69, 64
2, 8160, Note_on_c, 0, 69, 0
2, 8160, Note_on_c, 0, 70, 64
2, 8184, Note_on_c, 0, 70, 0
2, 8184, Note_on_c, 0, 69, 64
2, 8208, Note_on_c, 0, 69, 0
2, 8208, Note_on_c, 0, 70, 64
2, 8232, Note_on_c, 0, 70, 0
2, 8232, Note_on_c, 0, 71, 64
2, 8256, Note_on_c, 0, 71, 0
2, 8256, Note_on_c, 0, 72, 64
2, 8280, Note_on_c, 0, 72, 0
2, 8280, Note_on_c, 0, 71, 64
2, 8304, Note_on_c, 0, 71, 0
2, 8304, Note_on_c, 0, 72, 64
2, 8328, Note_on_c, 0, 72, 0
2, 8328, Note_on_c, 0, 73, 64
2, 8352, Note_on_c, 0, 73, 0
2, 8352, Note_on_c, 0, 74, 64
2, 8400, Note_on_c, 0, 74, 0
2, 8400, Note_on_c, 0, 62, 64
2, 8448, Note_on_c, 0, 62, 0
2, 8448, Note_on_c, 0, 64, 64
2, 8472, Note_on_c, 0, 64, 0
2, 8472, Note_on_c, 0, 62, 64
2, 8496, Note_on_c, 0, 62, 0
2, 8496, Note_on_c, 0, 61, 64
2, 8544, Note_on_c, 0, 61, 0
2, 8592, Note_on_c, 0, 64, 64
2, 8640, Note_on_c, 0, 64, 0
2, 8640, Note_on_c, 0, 65, 64
2, 8664, Note_on_c, 0, 65, 0
2, 8664, Note_on_c, 0, 64, 64
2, 8688, Note_on_c, 0, 64, 0
2, 8688, Note_on_c, 0, 62, 64
2, 8736, Note_on_c, 0, 62, 0
2, 8784, Note_on_c, 0, 65, 64
2, 8832, Note_on_c, 0, 65, 0
2, 8832, Note_on_c, 0, 67, 64
2, 8856, Note_on_c, 0, 67, 0
2, 8856, Note_on_c, 0, 65, 64
2, 8880, Note_on_c, 0, 65, 0
2, 8880, Note_on_c, 0, 64, 64
2, 8976, Note_on_c, 0, 64, 0
2, 8976, Note_on_c, 0, 74, 64
2, 9072, Note_on_c, 0, 74, 0
2, 9072, Note_on_c, 0, 73, 64
2, 9096, Note_on_c, 0, 73, 0
2, 9096, Note_on_c, 0, 74, 64
2, 9120, Note_on_c, 0, 74, 0
2, 9120, Note_on_c, 0, 76, 64
2, 9168, Note_on_c, 0, 76, 0
2, 9168, Note_on_c, 0, 67, 64
2, 9216, Note_on_c, 0, 67, 0
2, 9216, Note_on_c, 0, 67, 64
2, 9264, Note_on_c, 0, 67, 0
2, 9264, Note_on_c, 0, 65, 64
2, 9288, Note_on_c, 0, 65, 0
2, 9288, Note_on_c, 0, 64, 64
2, 9312, Note_on_c, 0, 64, 0
2, 9312, Note_on_c, 0, 65, 64
2, 9456, Note_on_c, 0, 65, 0
2, 9456, Note_on_c, 0, 64, 64
2, 9480, Note_on_c, 0, 64, 0
2, 9480, Note_on_c, 0, 62, 64
2, 9504, Note_on_c, 0, 62, 0
2, 9504, Note_on_c, 0, 60, 64
2, 9552, Note_on_c, 0, 60, 0
2, 9552, Note_on_c, 0, 59, 64
2, 9600, Note_on_c, 0, 59, 0
2, 9600, Note_on_c, 0, 60, 64
2, 9648, Note_on_c, 0, 60, 0
2, 9648, Note_on_c, 0, 72, 64
2, 9672, Note_on_c, 0, 72, 0
2, 9672, Note_on_c, 0, 71, 64
2, 9696, Note_on_c, 0, 71, 0
2, 9696, Note_on_c, 0, 72, 64
2, 9840, Note_on_c, 0, 72, 0
2, 9840, Note_on_c, 0, 70, 64
2, 9864, Note_on_c, 0, 70, 0
2, 9864, Note_on_c, 0, 69, 64
2, 9888, Note_on_c, 0, 69, 0
2, 9888, Note_on_c, 0, 67, 64
2, 9936, Note_on_c, 0, 67, 0
2, 9936, Note_on_c, 0, 66, 64
2, 9984, Note_on_c, 0, 66, 0
2, 9984, Note_on_c, 0, 67, 64
2, 10032, Note_on_c, 0, 67, 0
2, 10032, Note_on_c, 0, 79, 64
2, 10056, Note_on_c, 0, 79, 0
2, 10056, Note_on_c, 0, 78, 64
2, 10080, Note_on_c, 0, 78, 0
2, 10080, Note_on_c, 0, 79, 64
2, 10224, Note_on_c, 0, 79, 0
2, 10224, Note_on_c, 0, 77, 64
2, 10320, Note_on_c, 0, 77, 0
2, 10320, Note_on_c, 0, 76, 64
2, 10368, Note_on_c, 0, 76, 0
2, 10368, Note_on_c, 0, 77, 64
2, 10416, Note_on_c, 0, 77, 0
2, 10416, Note_on_c, 0, 82, 64
2, 10440, Note_on_c, 0, 82, 0
2, 10440, Note_on_c, 0, 81, 64
2, 10464, Note_on_c, 0, 81, 0
2, 10464, Note_on_c, 0, 82, 64
2, 10560, Note_on_c, 0, 82, 0
2, 10560, Note_on_c, 0, 82, 64
2, 10584, Note_on_c, 0, 82, 0
2, 10584, Note_on_c, 0, 81, 64
2, 10608, Note_on_c, 0, 81, 0
2, 10608, Note_on_c, 0, 79, 64
2, 10632, Note_on_c, 0, 79, 0
2, 10632, Note_on_c, 0, 77, 64
2, 10656, Note_on_c, 0, 77, 0
2, 10656, Note_on_c, 0, 76, 64
2, 10680, Note_on_c, 0, 76, 0
2, 10680, Note_on_c, 0, 74, 64
2, 10704, Note_on_c, 0, 74, 0
2, 10704, Note_on_c, 0, 73, 64
2, 10728, Note_on_c, 0, 73, 0
2, 10728, Note_on_c, 0, 74, 64
2, 10752, Note_on_c, 0, 74, 0
2, 10752, Note_on_c, 0, 73, 64
2, 10776, Note_on_c, 0, 73, 0
2, 10776, Note_on_c, 0, 77, 64
2, 10800, Note_on_c, 0, 77, 0
2, 10800, Note_on_c, 0, 76, 64
2, 10824, Note_on_c, 0, 76, 0
2, 10824, Note_on_c, 0, 75, 64
2, 10848, Note_on_c, 0, 75, 0
2, 10848, Note_on_c, 0, 76, 64
2, 10872, Note_on_c, 0, 76, 0
2, 10872, Note_on_c, 0, 74, 64
2, 10896, Note_on_c, 0, 74, 0
2, 10896, Note_on_c, 0, 73, 64
2, 10920, Note_on_c, 0, 73, 0
2, 10920, Note_on_c, 0, 74, 64
2, 10944, Note_on_c, 0, 74, 0
2, 10944, Note_on_c, 0, 72, 64
2, 10968, Note_on_c, 0, 72, 0
2, 10968, Note_on_c, 0, 71, 64
2, 10992, Note_on_c, 0, 71, 0
2, 10992, Note_on_c, 0, 72, 64
2, 11016, Note_on_c, 0, 72, 0
2, 11016, Note_on_c, 0, 70, 64
2, 11040, Note_on_c, 0, 70, 0
2, 11040, Note_on_c, 0, 69, 64
2, 11064, Note_on_c, 0, 69, 0
2, 11064, Note_on_c, 0, 70, 64
2, 11088, Note_on_c, 0, 70, 0
2, 11088, Note_on_c, 0, 69, 64
2, 11112, Note_on_c, 0, 69, 0
2, 11112, Note_on_c, 0, 68, 64
2, 11136, Note_on_c, 0, 68, 0
2, 11136, Note_on_c, 0, 69, 64
2, 11184, Note_on_c, 0, 69, 0
2, 11184, Note_on_c, 0, 61, 64
2, 11208, Note_on_c, 0, 61, 0
2, 11208, Note_on_c, 0, 62, 64
2, 11232, Note_on_c, 0, 62, 0
2, 11232, Note_on_c, 0, 64, 64
2, 11280, Note_on_c, 0, 64, 0
2, 11280, Note_on_c, 0, 64, 64
2, 11304, Note_on_c, 0, 64, 0
2, 11304, Note_on_c, 0, 65, 64
2, 11328, Note_on_c, 0, 65, 0
2, 11328, Note_on_c, 0, 67, 64
2, 11352, Note_on_c, 0, 67, 0
2, 11352, Note_on_c, 0, 69, 64
2, 11376, Note_on_c, 0, 69, 0
2, 11376, Note_on_c, 0, 70, 64
2, 11472, Note_on_c, 0, 70, 0
2, 11472, Note_on_c, 0, 69, 64
2, 11496, Note_on_c, 0, 69, 0
2, 11496, Note_on_c, 0, 67, 64
2, 11520, Note_on_c, 0, 67, 0
2, 11520, Note_on_c, 0, 65, 64
2, 11544, Note_on_c, 0, 65, 0
2, 11544, Note_on_c, 0, 64, 64
2, 11568, Note_on_c, 0, 64, 0
2, 11568, Note_on_c, 0, 62, 64
2, 11592, Note_on_c, 0, 62, 0
2, 11592, Note_on_c, 0, 64, 64
2, 11616, Note_on_c, 0, 64, 0
2, 11616, Note_on_c, 0, 65, 64
2, 11640, Note_on_c, 0, 65, 0
2, 11640, Note_on_c, 0, 67, 64
2, 11664, Note_on_c, 0, 67, 0
2, 11664, Note_on_c, 0, 69, 64
2, 11688, Note_on_c, 0, 69, 0
2, 11688, Note_on_c, 0, 71, 64
2, 11712, Note_on_c, 0, 71, 0
2, 11712, Note_on_c, 0, 73, 64
2, 11736, Note_on_c, 0, 73, 0
2, 11736, Note_on_c, 0, 71, 64
2, 11760, Note_on_c, 0, 71, 0
2, 11760, Note_on_c, 0, 69, 64
2, 11784, Note_on_c, 0, 69, 0
2, 11784, Note_on_c, 0, 71, 64
2, 11808, Note_on_c, 0, 71, 0
2, 11808, Note_on_c, 0, 73, 64
2, 11832, Note_on_c, 0, 73, 0
2, 11832, Note_on_c, 0, 74, 64
2, 11856, Note_on_c, 0, 74, 0
2, 11856, Note_on_c, 0, 76, 64
2, 11880, Note_on_c, 0, 76, 0
2, 11880, Note_on_c, 0, 77, 64
2, 11904, Note_on_c, 0, 77, 0
2, 11904, Note_on_c, 0, 79, 64
2, 11928, Note_on_c, 0, 79, 0
2, 11928, Note_on_c, 0, 77, 64
2, 11952, Note_on_c, 0, 77, 0
2, 11952, Note_on_c, 0, 76, 64
2, 11976, Note_on_c, 0, 76, 0
2, 11976, Note_on_c, 0, 77, 64
2, 12000, Note_on_c, 0, 77, 0
2, 12000, Note_on_c, 0, 79, 64
2, 12024, Note_on_c, 0, 79, 0
2, 12024, Note_on_c, 0, 81, 64
2, 12048, Note_on_c, 0, 81, 0
2, 12048, Note_on_c, 0, 82, 64
2, 12072, Note_on_c, 0, 82, 0
2, 12072, Note_on_c, 0, 81, 64
2, 12096, Note_on_c, 0, 81, 0
2, 12096, Note_on_c, 0, 79, 64
2, 12120, Note_on_c, 0, 79, 0
2, 12120, Note_on_c, 0, 77, 64
2, 12144, Note_on_c, 0, 77, 0
2, 12144, Note_on_c, 0, 76, 64
2, 12168, Note_on_c, 0, 76, 0
2, 12168, Note_on_c, 0, 74, 64
2, 12192, Note_on_c, 0, 74, 0
2, 12192, Note_on_c, 0, 73, 64
2, 12216, Note_on_c, 0, 73, 0
2, 12216, Note_on_c, 0, 74, 64
2, 12240, Note_on_c, 0, 74, 0
2, 12240, Note_on_c, 0, 76, 64
2, 12288, Note_on_c, 0, 76, 0
2, 12288, Note_on_c, 0, 76, 64
2, 12336, Note_on_c, 0, 76, 0
2, 12336, Note_on_c, 0, 74, 64
2, 12432, Note_on_c, 0, 74, 0
2, 12432, Note_on_c, 0, 72, 64
2, 12456, Note_on_c, 0, 72, 0
2, 12456, Note_on_c, 0, 71, 64
2, 12480, Note_on_c, 0, 71, 0
2, 12480, Note_on_c, 0, 72, 64
2, 12528, Note_on_c, 0, 72, 0
2, 12528, Note_on_c, 0, 77, 64
2, 12624, Note_on_c, 0, 77, 0
2, 12624, Note_on_c, 0, 76, 64
2, 12648, Note_on_c, 0, 76, 0
2, 12648, Note_on_c, 0, 75, 64
2, 12672, Note_on_c, 0, 75, 0
2, 12672, Note_on_c, 0, 76, 64
2, 12720, Note_on_c, 0, 76, 0
2, 12720, Note_on_c, 0, 71, 64
2, 12816, Note_on_c, 0, 71, 0
2, 12816, Note_on_c, 0, 73, 64
2, 12864, Note_on_c, 0, 73, 0
2, 12864, Note_on_c, 0, 74, 64
2, 12912, Note_on_c, 0, 74, 0
2, 12912, Note_on_c, 0, 69, 64
2, 13008, Note_on_c, 0, 69, 0
2, 13008, Note_on_c, 0, 71, 64
2, 13056, Note_on_c, 0, 71, 0
2, 13056, Note_on_c, 0, 72, 64
2, 13104, Note_on_c, 0, 72, 0
2, 13104, Note_on_c, 0, 67, 64
2, 13200, Note_on_c, 0, 67, 0
2, 13200, Note_on_c, 0, 69, 64
2, 13248, Note_on_c, 0, 69, 0
2, 13248, Note_on_c, 0, 70, 64
2, 13272, Note_on_c, 0, 70, 0
2, 13272, Note_on_c, 0, 69, 64
2, 13296, Note_on_c, 0, 69, 0
2, 13296, Note_on_c, 0, 67, 64
2, 13368, Note_on_c, 0, 67, 0
2, 13368, Note_on_c, 0, 69, 64
2, 13392, Note_on_c, 0, 69, 0
2, 13392, Note_on_c, 0, 67, 64
2, 13416, Note_on_c, 0, 67, 0
2, 13416, Note_on_c, 0, 66, 64
2, 13440, Note_on_c, 0, 66, 0
2, 13440, Note_on_c, 0, 67, 64
2, 13488, Note_on_c, 0, 67, 0
2, 13488, Note_on_c, 0, 57, 64
2, 13536, Note_on_c, 0, 57, 0
2, 13584, Note_on_c, 0, 67, 64
2, 13680, Note_on_c, 0, 67, 0
2, 13680, Note_on_c, 0, 65, 64
2, 13704, Note_on_c, 0, 65, 0
2, 13704, Note_on_c, 0, 64, 64
2, 13728, Note_on_c, 0, 64, 0
2, 13728, Note_on_c, 0, 62, 64
2, 13752, Note_on_c, 0, 62, 0
2, 13752, Note_on_c, 0, 61, 64
2, 13776, Note_on_c, 0, 61, 0
2, 13776, Note_on_c, 0, 64, 64
2, 13824, Note_on_c, 0, 64, 0
2, 13824, Note_on_c, 0, 64, 64
2, 13848, Note_on_c, 0, 64, 0
2, 13848, Note_on_c, 0, 62, 64
2, 13872, Note_on_c, 0, 62, 0
2, 13872, Note_on_c, 0, 74, 64
2, 13968, Note_on_c, 0, 74, 0
2, 13968, Note_on_c, 0, 72, 64
2, 13992, Note_on_c, 0, 72, 0
2, 13992, Note_on_c, 0, 71, 64
2, 14016, Note_on_c, 0, 71, 0
2, 14016, Note_on_c, 0, 72, 64
2, 14064, Note_on_c, 0, 72, 0
2, 14064, Note_on_c, 0, 70, 64
2, 14088, Note_on_c, 0, 70, 0
2, 14088, Note_on_c, 0, 69, 64
2, 14112, Note_on_c, 0, 69, 0
2, 14112, Note_on_c, 0, 67, 64
2, 14136, Note_on_c, 0, 67, 0
2, 14136, Note_on_c, 0, 66, 64
2, 14160, Note_on_c, 0, 66, 0
2, 14160, Note_on_c, 0, 69, 64
2, 14232, Note_on_c, 0, 69, 0
2, 14232, Note_on_c, 0, 67, 64
2, 14256, Note_on_c, 0, 67, 0
2, 14256, Note_on_c, 0, 69, 64
2, 14280, Note_on_c, 0, 69, 0
2, 14280, Note_on_c, 0, 70, 64
2, 14304, Note_on_c, 0, 70, 0
2, 14304, Note_on_c, 0, 72, 64
2, 14328, Note_on_c, 0, 72, 0
2, 14328, Note_on_c, 0, 70, 64
2, 14352, Note_on_c, 0, 70, 0
2, 14352, Note_on_c, 0, 69, 64
2, 14400, Note_on_c, 0, 69, 0
2, 14400, Note_on_c, 0, 75, 64
2, 14448, Note_on_c, 0, 75, 0
2, 14448, Note_on_c, 0, 74, 64
2, 14544, Note_on_c, 0, 74, 0
2, 14544, Note_on_c, 0, 72, 64
2, 14592, Note_on_c, 0, 72, 0
2, 14592, Note_on_c, 0, 70, 64
2, 14616, Note_on_c, 0, 70, 0
2, 14616, Note_on_c, 0, 72, 64
2, 14640, Note_on_c, 0, 72, 0
2, 14640, Note_on_c, 0, 74, 64
2, 14664, Note_on_c, 0, 74, 0
2, 14664, Note_on_c, 0, 76, 64
2, 14688, Note_on_c, 0, 76, 0
2, 14688, Note_on_c, 0, 78, 64
2, 14712, Note_on_c, 0, 78, 0
2, 14712, Note_on_c, 0, 76, 64
2, 14736, Note_on_c, 0, 76, 0
2, 14736, Note_on_c, 0, 74, 64
2, 14784, Note_on_c, 0, 74, 0
2, 14784, Note_on_c, 0, 82, 64
2, 14832, Note_on_c, 0, 82, 0
2, 14832, Note_on_c, 0, 81, 64
2, 14928, Note_on_c, 0, 81, 0
2, 14928, Note_on_c, 0, 79, 64
2, 14976, Note_on_c, 0, 79, 0
2, 14976, Note_on_c, 0, 78, 64
2, 15000, Note_on_c, 0, 78, 0
2, 15000, Note_on_c, 0, 79, 64
2, 15024, Note_on_c, 0, 79, 0
2, 15024, Note_on_c, 0, 81, 64
2, 15048, Note_on_c, 0, 81, 0
2, 15048, Note_on_c, 0, 82, 64
2, 15072, Note_on_c, 0, 82, 0
2, 15072, Note_on_c, 0, 84, 64
2, 15096, Note_on_c, 0, 84, 0
2, 15096, Note_on_c, 0, 75, 64
2, 15120, Note_on_c, 0, 75, 0
2, 15120, Note_on_c, 0, 74, 64
2, 15144, Note_on_c, 0, 74, 0
2, 15144, Note_on_c, 0, 72, 64
2, 15168, Note_on_c, 0, 72, 0
2, 15168, Note_on_c, 0, 79, 64
2, 15176, Note_on_c, 0, 79, 0
2, 15176, Note_on_c, 0, 78, 64
2, 15192, Note_on_c, 0, 78, 0
2, 15192, Note_on_c, 0, 79, 64
2, 15208, Note_on_c, 0, 79, 0
2, 15208, Note_on_c, 0, 78, 64
2, 15224, Note_on_c, 0, 78, 0
2, 15224, Note_on_c, 0, 79, 64
2, 15240, Note_on_c, 0, 79, 0
2, 15240, Note_on_c, 0, 78, 64
2, 15248, Note_on_c, 0, 78, 0
2, 15248, Note_on_c, 0, 79, 64
2, 15264, Note_on_c, 0, 79, 0
2, 15264, Note_on_c, 0, 78, 64
2, 15280, Note_on_c, 0, 78, 0
2, 15280, Note_on_c, 0, 79, 64
2, 15296, Note_on_c, 0, 79, 0
2, 15296, Note_on_c, 0, 78, 64
2, 15312, Note_on_c, 0, 78, 0
2, 15312, Note_on_c, 0, 76, 64
2, 15336, Note_on_c, 0, 76, 0
2, 15336, Note_on_c, 0, 78, 64
2, 15360, Note_on_c, 0, 78, 0
2, 15360, Note_on_c, 0, 79, 64
2, 15456, Note_on_c, 0, 79, 0
2, 15456, Note_on_c, 0, 79, 64
2, 15480, Note_on_c, 0, 79, 0
2, 15480, Note_on_c, 0, 77, 64
2, 15504, Note_on_c, 0, 77, 0
2, 15504, Note_on_c, 0, 76, 64
2, 15528, Note_on_c, 0, 76, 0
2, 15528, Note_on_c, 0, 79, 64
2, 15552, Note_on_c, 0, 79, 0
2, 15552, Note_on_c, 0, 77, 64
2, 15576, Note_on_c, 0, 77, 0
2, 15576, Note_on_c, 0, 76, 64
2, 15600, Note_on_c, 0, 76, 0
2, 15600, Note_on_c, 0, 74, 64
2, 15624, Note_on_c, 0, 74, 0
2, 15624, Note_on_c, 0, 73, 64
2, 15648, Note_on_c, 0, 73, 0
2, 15648, Note_on_c, 0, 72, 64
2, 15672, Note_on_c, 0, 72, 0
2, 15672, Note_on_c, 0, 70, 64
2, 15696, Note_on_c, 0, 70, 0
2, 15696, Note_on_c, 0, 69, 64
2, 15720, Note_on_c, 0, 69, 0
2, 15720, Note_on_c, 0, 68, 64
2, 15744, Note_on_c, 0, 68, 0
2, 15744, Note_on_c, 0, 69, 64
2, 15792, Note_on_c, 0, 69, 0
2, 15792, Note_on_c, 0, 81, 64
2, 15840, Note_on_c, 0, 81, 0
2, 15840, Note_on_c, 0, 74, 64
2, 15888, Note_on_c, 0, 74, 0
2, 15888, Note_on_c, 0, 78, 64
2, 15936, Note_on_c, 0, 78, 0
2, 15936, Note_on_c, 0, 67, 64
2, 15984, Note_on_c, 0, 67, 0
2, 15984, Note_on_c, 0, 79, 64
2, 16032, Note_on_c, 0, 79, 0
2, 16032, Note_on_c, 0, 72, 64
2, 16080, Note_on_c, 0, 72, 0
2, 16080, Note_on_c, 0, 76, 64
2, 16128, Note_on_c, 0, 76, 0
2, 16128, Note_on_c, 0, 65, 64
2, 16176, Note_on_c, 0, 65, 0
2, 16176, Note_on_c, 0, 77, 64
2, 16224, Note_on_c, 0, 77, 0
2, 16224, Note_on_c, 0, 71, 64
2, 16272, Note_on_c, 0, 71, 0
2, 16272, Note_on_c, 0, 74, 64
2, 16320, Note_on_c, 0, 74, 0
2, 16320, Note_on_c, 0, 64, 64
2, 16368, Note_on_c, 0, 64, 0
2, 16368, Note_on_c, 0, 76, 64
2, 16416, Note_on_c, 0, 76, 0
2, 16416, Note_on_c, 0, 69, 64
2, 16440, Note_on_c, 0, 69, 0
2, 16440, Note_on_c, 0, 73, 64
2, 16464, Note_on_c, 0, 73, 0
2, 16464, Note_on_c, 0, 74, 64
2, 16488, Note_on_c, 0, 74, 0
2, 16488, Note_on_c, 0, 75, 64
2, 16512, Note_on_c, 0, 75, 0
2, 16512, Note_on_c, 0, 74, 64
2, 16536, Note_on_c, 0, 74, 0
2, 16536, Note_on_c, 0, 71, 64
2, 16560, Note_on_c, 0, 71, 0
2, 16560, Note_on_c, 0, 72, 64
2, 16656, Note_on_c, 0, 72, 0
2, 16656, Note_on_c, 0, 72, 64
2, 16752, Note_on_c, 0, 72, 0
2, 16752, Note_on_c, 0, 70, 64
2, 16848, Note_on_c, 0, 70, 0
2, 16848, Note_on_c, 0, 69, 64
2, 16896, Note_on_c, 0, 69, 0
2, 16896, Note_on_c, 0, 69, 64
2, 16944, Note_on_c, 0, 69, 0
2, 16944, Note_on_c, 0, 67, 64
2, 17040, Note_on_c, 0, 67, 0
2, 17040, Note_on_c, 0, 65, 64
2, 17064, Note_on_c, 0, 65, 0
2, 17064, Note_on_c, 0, 64, 64
2, 17088, Note_on_c, 0, 64, 0
2, 17088, Note_on_c, 0, 65, 64
2, 17136, Note_on_c, 0, 65, 0
2, 17136, Note_on_c, 0, 70, 64
2, 17160, Note_on_c, 0, 70, 0
2, 17160, Note_on_c, 0, 69, 64
2, 17184, Note_on_c, 0, 69, 0
2, 17184, Note_on_c, 0, 67, 64
2, 17208, Note_on_c, 0, 67, 0
2, 17208, Note_on_c, 0, 65, 64
2, 17232, Note_on_c, 0, 65, 0
2, 17232, Note_on_c, 0, 64, 64
2, 17256, Note_on_c, 0, 64, 0
2, 17256, Note_on_c, 0, 62, 64
2, 17280, Note_on_c, 0, 62, 0
2, 17280, Note_on_c, 0, 61, 64
2, 17304, Note_on_c, 0, 61, 0
2, 17304, Note_on_c, 0, 62, 64
2, 17328, Note_on_c, 0, 62, 0
2, 17328, Note_on_c, 0, 64, 64
2, 17376, Note_on_c, 0, 64, 0
2, 17424, Note_on_c, 0, 64, 64
2, 17496, Note_on_c, 0, 64, 0
2, 17496, Note_on_c, 0, 65, 64
2, 17520, Note_on_c, 0, 65, 0
2, 17520, Note_on_c, 0, 64, 64
2, 17544, Note_on_c, 0, 64, 0
2, 17544, Note_on_c, 0, 62, 64
2, 17568, Note_on_c, 0, 62, 0
2, 17568, Note_on_c, 0, 64, 64
2, 17592, Note_on_c, 0, 64, 0
2, 17592, Note_on_c, 0, 65, 64
2, 17616, Note_on_c, 0, 65, 0
2, 17616, Note_on_c, 0, 67, 64
2, 17640, Note_on_c, 0, 67, 0
2, 17640, Note_on_c, 0, 69, 64
2, 17664, Note_on_c, 0, 69, 0
2, 17664, Note_on_c, 0, 70, 64
2, 17688, Note_on_c, 0, 70, 0
2, 17688, Note_on_c, 0, 69, 64
2, 17712, Note_on_c, 0, 69, 0
2, 17712, Note_on_c, 0, 67, 64
2, 17736, Note_on_c, 0, 67, 0
2, 17736, Note_on_c, 0, 66, 64
2, 17760, Note_on_c, 0, 66, 0
2, 17760, Note_on_c, 0, 67, 64
2, 17856, Note_on_c, 0, 67, 0
2, 17856, Note_on_c, 0, 67, 64
2, 17880, Note_on_c, 0, 67, 0
2, 17880, Note_on_c, 0, 69, 64
2, 17904, Note_on_c, 0, 69, 0
2, 17904, Note_on_c, 0, 67, 64
2, 17928, Note_on_c, 0, 67, 0
2, 17928, Note_on_c, 0, 66, 64
2, 17952, Note_on_c, 0, 66, 0
2, 17952, Note_on_c, 0, 67, 64
2, 18048, Note_on_c, 0, 67, 0
2, 18048, Note_on_c, 0, 67, 64
2, 18072, Note_on_c, 0, 67, 0
2, 18072, Note_on_c, 0, 69, 64
2, 18096, Note_on_c, 0, 69, 0
2, 18096, Note_on_c, 0, 67, 64
2, 18120, Note_on_c, 0, 67, 0
2, 18120, Note_on_c, 0, 66, 64
2, 18144, Note_on_c, 0, 66, 0
2, 18144, Note_on_c, 0, 67, 64
2, 18192, Note_on_c, 0, 67, 0
2, 18192, Note_on_c, 0, 79, 64
2, 18264, Note_on_c, 0, 79, 0
2, 18264, Note_on_c, 0, 74, 64
2, 18288, Note_on_c, 0, 74, 0
2, 18288, Note_on_c, 0, 73, 64
2, 18312, Note_on_c, 0, 73, 0
2, 18312, Note_on_c, 0, 71, 64
2, 18336, Note_on_c, 0, 71, 0
2, 18336, Note_on_c, 0, 69, 64
2, 18360, Note_on_c, 0, 69, 0
2, 18360, Note_on_c, 0, 73, 64
2, 18384, Note_on_c, 0, 73, 0
2, 18384, Note_on_c, 0, 76, 64
2, 18408, Note_on_c, 0, 76, 0
2, 18408, Note_on_c, 0, 79, 64
2, 18432, Note_on_c, 0, 79, 0
2, 18432, Note_on_c, 0, 77, 64
2, 18456, Note_on_c, 0, 77, 0
2, 18456, Note_on_c, 0, 76, 64
2, 18480, Note_on_c, 0, 76, 0
2, 18480, Note_on_c, 0, 74, 64
2, 18504, Note_on_c, 0, 74, 0
2, 18504, Note_on_c, 0, 73, 64
2, 18528, Note_on_c, 0, 73, 0
2, 18528, Note_on_c, 0, 74, 64
2, 18576, Note_on_c, 0, 74, 0
2, 18576, Note_on_c, 0, 70, 64
2, 18624, Note_on_c, 0, 70, 0
2, 18624, Note_on_c, 0, 69, 64
2, 18648, Note_on_c, 0, 69, 0
2, 18648, Note_on_c, 0, 67, 64
2, 18672, Note_on_c, 0, 67, 0
2, 18672, Note_on_c, 0, 75, 64
2, 18768, Note_on_c, 0, 75, 0
2, 18768, Note_on_c, 0, 74, 64
2, 18864, Note_on_c, 0, 74, 0
2, 18864, Note_on_c, 0, 73, 64
2, 18888, Note_on_c, 0, 73, 0
2, 18888, Note_on_c, 0, 71, 64
2, 18912, Note_on_c, 0, 71, 0
2, 18912, Note_on_c, 0, 73, 64
2, 18960, Note_on_c, 0, 73, 0
2, 18960, Note_on_c, 0, 69, 64
2, 19008, Note_on_c, 0, 69, 0
2, 19008, Note_on_c, 0, 67, 64
2, 19032, Note_on_c, 0, 67, 0
2, 19032, Note_on_c, 0, 65, 64
2, 19056, Note_on_c, 0, 65, 0
2, 19056, Note_on_c, 0, 74, 64
2, 19152, Note_on_c, 0, 74, 0
2, 19152, Note_on_c, 0, 72, 64
2, 19200, Note_on_c, 0, 72, 0
2, 19200, Note_on_c, 0, 72, 64
2, 19248, Note_on_c, 0, 72, 0
2, 19248, Note_on_c, 0, 71, 64
2, 19272, Note_on_c, 0, 71, 0
2, 19272, Note_on_c, 0, 69, 64
2, 19296, Note_on_c, 0, 69, 0
2, 19296, Note_on_c, 0, 71, 64
2, 19344, Note_on_c, 0, 71, 0
2, 19344, Note_on_c, 0, 67, 64
2, 19392, Note_on_c, 0, 67, 0
2, 19392, Note_on_c, 0, 65, 64
2, 19416, Note_on_c, 0, 65, 0
2, 19416, Note_on_c, 0, 64, 64
2, 19440, Note_on_c, 0, 64, 0
2, 19440, Note_on_c, 0, 67, 64
2, 19464, Note_on_c, 0, 67, 0
2, 19464, Note_on_c, 0, 70, 64
2, 19488, Note_on_c, 0, 70, 0
2, 19488, Note_on_c, 0, 73, 64
2, 19512, Note_on_c, 0, 73, 0
2, 19512, Note_on_c, 0, 67, 64
2, 19536, Note_on_c, 0, 67, 0
2, 19536, Note_on_c, 0, 65, 64
2, 19560, Note_on_c, 0, 65, 0
2, 19560, Note_on_c, 0, 64, 64
2, 19584, Note_on_c, 0, 64, 0
2, 19584, Note_on_c, 0, 62, 64
2, 19608, Note_on_c, 0, 62, 0
2, 19608, Note_on_c, 0, 59, 64
2, 19632, Note_on_c, 0, 59, 0
2, 19632, Note_on_c, 0, 61, 64
2, 19704, Note_on_c, 0, 61, 0
2, 19704, Note_on_c, 0, 62, 64
2, 19728, Note_on_c, 0, 62, 0
2, 19728, Note_on_c, 0, 64, 64
2, 19752, Note_on_c, 0, 64, 0
2, 19752, Note_on_c, 0, 65, 64
2, 19776, Note_on_c, 0, 65, 0
2, 19776, Note_on_c, 0, 64, 64
2, 19800, Note_on_c, 0, 64, 0
2, 19800, Note_on_c, 0, 61, 64
2, 19824, Note_on_c, 0, 61, 0
2, 19824, Note_on_c, 0, 70, 64
2, 19920, Note_on_c, 0, 70, 0
2, 19920, Note_on_c, 0, 69, 64
2, 19944, Note_on_c, 0, 69, 0
2, 19944, Note_on_c, 0, 67, 64
2, 19968, Note_on_c, 0, 67, 0
2, 19968, Note_on_c, 0, 65, 64
2, 20016, Note_on_c, 0, 65, 0
2, 20016, Note_on_c, 0, 64, 64
2, 20064, Note_on_c, 0, 64, 0
2, 20064, Note_on_c, 0, 65, 64
2, 20112, Note_on_c, 0, 65, 0
2, 20112, Note_on_c, 0, 62, 64
2, 20176, Note_on_c, 0, 62, 0
2, 20176, Note_on_c, 0, 61, 64
2, 20192, Note_on_c, 0, 61, 0
2, 20192, Note_on_c, 0, 62, 64
2, 20208, Note_on_c, 0, 62, 0
2, 20208, Note_on_c, 0, 61, 64
2, 20224, Note_on_c, 0, 61, 0
2, 20224, Note_on_c, 0, 62, 64
2, 20240, Note_on_c, 0, 62, 0
2, 20240, Note_on_c, 0, 61, 64
2, 20256, Note_on_c, 0, 61, 0
2, 20256, Note_on_c, 0, 62, 64
2, 20272, Note_on_c, 0, 62, 0
2, 20272, Note_on_c, 0, 61, 64
2, 20288, Note_on_c, 0, 61, 0
2, 20288, Note_on_c, 0, 59, 64
2, 20304, Note_on_c, 0, 59, 0
2, 20304, Note_on_c, 0, 61, 64
2, 20320, Note_on_c, 0, 61, 0
2, 20320, Note_on_c, 0, 62, 64
2, 20448, Note_on_c, 0, 62, 0
2, 21504, Program_c, 0, 5
2, 21504, Note_on_c, 0, 81, 64
2, 21600, Note_on_c, 0, 81, 0
2, 21600, Note_on_c, 0, 73, 64
2, 21696, Note_on_c, 0, 73, 0
2, 21696, Note_on_c, 0, 74, 64
2, 22080, Note_on_c, 0, 74, 0
2, 22080, Note_on_c, 0, 76, 64
2, 22272, Note_on_c, 0, 76, 0
2, 22272, Note_on_c, 0, 78, 64
2, 22368, Note_on_c, 0, 78, 0
2, 22368, Note_on_c, 0, 79, 64
2, 22416, Note_on_c, 0, 79, 0
2, 22416, Note_on_c, 0, 81, 64
2, 22464, Note_on_c, 0, 81, 0
2, 22464, Note_on_c, 0, 79, 64
2, 22848, Note_on_c, 0, 79, 0
2, 22848, Note_on_c, 0, 81, 64
2, 23040, Note_on_c, 0, 81, 0
2, 23040, Note_on_c, 0, 82, 64
2, 23136, Note_on_c, 0, 82, 0
2, 23136, Note_on_c, 0, 81, 64
2, 23184, Note_on_c, 0, 81, 0
2, 23184, Note_on_c, 0, 79, 64
2, 23232, Note_on_c, 0, 79, 0
2, 23232, Note_on_c, 0, 81, 64
2, 23616, Note_on_c, 0, 81, 0
2, 23616, Note_on_c, 0, 79, 64
2, 23808, Note_on_c, 0, 79, 0
2, 23808, Note_on_c, 0, 77, 64
2, 23904, Note_on_c, 0, 77, 0
2, 23904, Note_on_c, 0, 86, 64
2, 24000, Note_on_c, 0, 86, 0
2, 24000, Note_on_c, 0, 76, 64
2, 24384, Note_on_c, 0, 76, 0
2, 24384, Note_on_c, 0, 77, 64
2, 24480, Note_on_c, 0, 77, 0
2, 24480, Note_on_c, 0, 79, 64
2, 24576, Note_on_c, 0, 79, 0
2, 24576, Note_on_c, 0, 77, 64
2, 24624, Note_on_c, 0, 77, 0
2, 24624, Note_on_c, 0, 76, 64
2, 24672, Note_on_c, 0, 76, 0
2, 24672, Note_on_c, 0, 74, 64
2, 24864, Note_on_c, 0, 74, 0
2, 24864, Note_on_c, 0, 76, 64
2, 24960, Note_on_c, 0, 76, 0
2, 24960, Note_on_c, 0, 77, 64
2, 25056, Note_on_c, 0, 77, 0
2, 25056, Note_on_c, 0, 69, 64
2, 25152, Note_on_c, 0, 69, 0
2, 25152, Note_on_c, 0, 76, 64
2, 25248, Note_on_c, 0, 76, 0
2, 25248, Note_on_c, 0, 67, 64
2, 25344, Note_on_c, 0, 67, 0
2, 25344, Note_on_c, 0, 74, 64
2, 25440, Note_on_c, 0, 74, 0
2, 25440, Note_on_c, 0, 65, 64
2, 25536, Note_on_c, 0, 65, 0
2, 25536, Note_on_c, 0, 72, 64
2, 25632, Note_on_c, 0, 72, 0
2, 25632, Note_on_c, 0, 69, 64
2, 25728, Note_on_c, 0, 69, 0
2, 25728, Note_on_c, 0, 71, 64
2, 25824, Note_on_c, 0, 71, 0
2, 25824, Note_on_c, 0, 72, 64
2, 25920, Note_on_c, 0, 72, 0
2, 25920, Note_on_c, 0, 64, 64
2, 26016, Note_on_c, 0, 64, 0
2, 26016, Note_on_c, 0, 73, 64
2, 26112, Note_on_c, 0, 73, 0
2, 26112, Note_on_c, 0, 74, 64
2, 26160, Note_on_c, 0, 74, 0
2, 26160, Note_on_c, 0, 68, 64
2, 26208, Note_on_c, 0, 68, 0
2, 26208, Note_on_c, 0, 69, 64
2, 26400, Note_on_c, 0, 69, 0
2, 26400, Note_on_c, 0, 71, 64
2, 26496, Note_on_c, 0, 71, 0
2, 26496, Note_on_c, 0, 72, 64
2, 26592, Note_on_c, 0, 72, 0
2, 26592, Note_on_c, 0, 64, 64
2, 26688, Note_on_c, 0, 64, 0
2, 26688, Note_on_c, 0, 71, 64
2, 26784, Note_on_c, 0, 71, 0
2, 26784, Note_on_c, 0, 62, 64
2, 26880, Note_on_c, 0, 62, 0
2, 26880, Note_on_c, 0, 69, 64
2, 26976, Note_on_c, 0, 69, 0
2, 26976, Note_on_c, 0, 60, 64
2, 27072, Note_on_c, 0, 60, 0
2, 27072, Note_on_c, 0, 67, 64
2, 27168, Note_on_c, 0, 67, 0
2, 27168, Note_on_c, 0, 64, 64
2, 27264, Note_on_c, 0, 64, 0
2, 27264, Note_on_c, 0, 66, 64
2, 27360, Note_on_c, 0, 66, 0
2, 27360, Note_on_c, 0, 67, 64
2, 27456, Note_on_c, 0, 67, 0
2, 27456, Note_on_c, 0, 59, 64
2, 27552, Note_on_c, 0, 59, 0
2, 27552, Note_on_c, 0, 68, 64
2, 27648, Note_on_c, 0, 68, 0
2, 27648, Note_on_c, 0, 69, 64
2, 27744, Note_on_c, 0, 69, 0
2, 27744, Note_on_c, 0, 81, 64
2, 27936, Note_on_c, 0, 81, 0
2, 27936, Note_on_c, 0, 79, 64
2, 28032, Note_on_c, 0, 79, 0
2, 28032, Note_on_c, 0, 77, 64
2, 28128, Note_on_c, 0, 77, 0
2, 28128, Note_on_c, 0, 74, 64
2, 28224, Note_on_c, 0, 74, 0
2, 28224, Note_on_c, 0, 69, 64
2, 28320, Note_on_c, 0, 69, 0
2, 28320, Note_on_c, 0, 65, 64
2, 28416, Note_on_c, 0, 65, 0
2, 28416, Note_on_c, 0, 76, 64
2, 28512, Note_on_c, 0, 76, 0
2, 28512, Note_on_c, 0, 67, 64
2, 28608, Note_on_c, 0, 67, 0
2, 28608, Note_on_c, 0, 77, 64
2, 28704, Note_on_c, 0, 77, 0
2, 28704, Note_on_c, 0, 69, 64
2, 28800, Note_on_c, 0, 69, 0
2, 28800, Note_on_c, 0, 79, 64
2, 28896, Note_on_c, 0, 79, 0
2, 28896, Note_on_c, 0, 70, 64
2, 28992, Note_on_c, 0, 70, 0
2, 28992, Note_on_c, 0, 69, 64
2, 29088, Note_on_c, 0, 69, 0
2, 29088, Note_on_c, 0, 67, 64
2, 29184, Note_on_c, 0, 67, 0
2, 29184, Note_on_c, 0, 74, 64
2, 29280, Note_on_c, 0, 74, 0
2, 29280, Note_on_c, 0, 69, 64
2, 29328, Note_on_c, 0, 69, 0
2, 29328, Note_on_c, 0, 71, 64
2, 29376, Note_on_c, 0, 71, 0
2, 29376, Note_on_c, 0, 72, 64
2, 29472, Note_on_c, 0, 72, 0
2, 29472, Note_on_c, 0, 74, 64
2, 29568, Note_on_c, 0, 74, 0
2, 29568, Note_on_c, 0, 76, 64
2, 29664, Note_on_c, 0, 76, 0
2, 29664, Note_on_c, 0, 64, 64
2, 29712, Note_on_c, 0, 64, 0
2, 29712, Note_on_c, 0, 66, 64
2, 29760, Note_on_c, 0, 66, 0
2, 29760, Note_on_c, 0, 67, 64
2, 29856, Note_on_c, 0, 67, 0
2, 29856, Note_on_c, 0, 69, 64
2, 29952, Note_on_c, 0, 69, 0
2, 29952, Note_on_c, 0, 70, 64
2, 30048, Note_on_c, 0, 70, 0
2, 30048, Note_on_c, 0, 67, 64
2, 30096, Note_on_c, 0, 67, 0
2, 30096, Note_on_c, 0, 69, 64
2, 30144, Note_on_c, 0, 69, 0
2, 30144, Note_on_c, 0, 71, 64
2, 30240, Note_on_c, 0, 71, 0
2, 30240, Note_on_c, 0, 73, 64
2, 30336, Note_on_c, 0, 73, 0
2, 30336, Note_on_c, 0, 74, 64
2, 30432, Note_on_c, 0, 74, 0
2, 30432, Note_on_c, 0, 62, 64
2, 30480, Note_on_c, 0, 62, 0
2, 30480, Note_on_c, 0, 64, 64
2, 30528, Note_on_c, 0, 64, 0
2, 30528, Note_on_c, 0, 65, 64
2, 30576, Note_on_c, 0, 65, 0
2, 30576, Note_on_c, 0, 67, 64
2, 30624, Note_on_c, 0, 67, 0
2, 30624, Note_on_c, 0, 69, 64
2, 30672, Note_on_c, 0, 69, 0
2, 30672, Note_on_c, 0, 70, 64
2, 30720, Note_on_c, 0, 70, 0
2, 30720, Note_on_c, 0, 69, 64
2, 30912, Note_on_c, 0, 69, 0
2, 31104, Note_on_c, 0, 81, 64
2, 31200, Note_on_c, 0, 81, 0
2, 31200, Note_on_c, 0, 73, 64
2, 31392, Note_on_c, 0, 73, 0
2, 31392, Note_on_c, 0, 74, 64
2, 31440, Note_on_c, 0, 74, 0
2, 31440, Note_on_c, 0, 76, 64
2, 31488, Note_on_c, 0, 76, 0
2, 31488, Note_on_c, 0, 74, 64
2, 31536, Note_on_c, 0, 74, 0
2, 31536, Note_on_c, 0, 77, 64
2, 31584, Note_on_c, 0, 77, 0
2, 31584, Note_on_c, 0, 81, 64
2, 31776, Note_on_c, 0, 81, 0
2, 31776, Note_on_c, 0, 79, 64
2, 31824, Note_on_c, 0, 79, 0
2, 31824, Note_on_c, 0, 77, 64
2, 31872, Note_on_c, 0, 77, 0
2, 31872, Note_on_c, 0, 76, 64
2, 31920, Note_on_c, 0, 76, 0
2, 31920, Note_on_c, 0, 79, 64
2, 31968, Note_on_c, 0, 79, 0
2, 31968, Note_on_c, 0, 82, 64
2, 32160, Note_on_c, 0, 82, 0
2, 32160, Note_on_c, 0, 81, 64
2, 32208, Note_on_c, 0, 81, 0
2, 32208, Note_on_c, 0, 79, 64
2, 32256, Note_on_c, 0, 79, 0
2, 32256, Note_on_c, 0, 78, 64
2, 32304, Note_on_c, 0, 78, 0
2, 32304, Note_on_c, 0, 80, 64
2, 32352, Note_on_c, 0, 80, 0
2, 32352, Note_on_c, 0, 81, 64
2, 32544, Note_on_c, 0, 81, 0
2, 32544, Note_on_c, 0, 69, 64
2, 32640, Note_on_c, 0, 69, 0
2, 32640, Note_on_c, 0, 68, 64
2, 32736, Note_on_c, 0, 68, 0
2, 32736, Note_on_c, 0, 67, 64
2, 32832, Note_on_c, 0, 67, 0
2, 32832, Note_on_c, 0, 66, 64
2, 32928, Note_on_c, 0, 66, 0
2, 32928, Note_on_c, 0, 65, 64
2, 33024, Note_on_c, 0, 65, 0
2, 33024, Note_on_c, 0, 64, 64
2, 33120, Note_on_c, 0, 64, 0
2, 33120, Note_on_c, 0, 63, 64
2, 33216, Note_on_c, 0, 63, 0
2, 33216, Note_on_c, 0, 62, 64
2, 33312, Note_on_c, 0, 62, 0
2, 33312, Note_on_c, 0, 61, 64
2, 33504, Note_on_c, 0, 61, 0
2, 33504, Note_on_c, 0, 62, 64
2, 33552, Note_on_c, 0, 62, 0
2, 33552, Note_on_c, 0, 64, 64
2, 33600, Note_on_c, 0, 64, 0
2, 33600, Note_on_c, 0, 62, 64
2, 33696, Note_on_c, 0, 62, 0
2, 33696, Note_on_c, 0, 67, 64
2, 33792, Note_on_c, 0, 67, 0
2, 33792, Note_on_c, 0, 66, 64
2, 33840, Note_on_c, 0, 66, 0
2, 33840, Note_on_c, 0, 68, 64
2, 33888, Note_on_c, 0, 68, 0
2, 33888, Note_on_c, 0, 69, 64
2, 34080, Note_on_c, 0, 69, 0
2, 34080, Note_on_c, 0, 70, 64
2, 34128, Note_on_c, 0, 70, 0
2, 34128, Note_on_c, 0, 72, 64
2, 34176, Note_on_c, 0, 72, 0
2, 34176, Note_on_c, 0, 70, 64
2, 34272, Note_on_c, 0, 70, 0
2, 34272, Note_on_c, 0, 66, 64
2, 34464, Note_on_c, 0, 66, 0
2, 34464, Note_on_c, 0, 68, 64
2, 34512, Note_on_c, 0, 68, 0
2, 34512, Note_on_c, 0, 69, 64
2, 34560, Note_on_c, 0, 69, 0
2, 34560, Note_on_c, 0, 67, 64
2, 34608, Note_on_c, 0, 67, 0
2, 34608, Note_on_c, 0, 70, 64
2, 34656, Note_on_c, 0, 70, 0
2, 34656, Note_on_c, 0, 74, 64
2, 34848, Note_on_c, 0, 74, 0
2, 34848, Note_on_c, 0, 72, 64
2, 34896, Note_on_c, 0, 72, 0
2, 34896, Note_on_c, 0, 70, 64
2, 34944, Note_on_c, 0, 70, 0
2, 34944, Note_on_c, 0, 69, 64
2, 34992, Note_on_c, 0, 69, 0
2, 34992, Note_on_c, 0, 72, 64
2, 35040, Note_on_c, 0, 72, 0
2, 35040, Note_on_c, 0, 75, 64
2, 35232, Note_on_c, 0, 75, 0
2, 35232, Note_on_c, 0, 74, 64
2, 35280, Note_on_c, 0, 74, 0
2, 35280, Note_on_c, 0, 72, 64
2, 35328, Note_on_c, 0, 72, 0
2, 35328, Note_on_c, 0, 71, 64
2, 35376, Note_on_c, 0, 71, 0
2, 35376, Note_on_c, 0, 73, 64
2, 35424, Note_on_c, 0, 73, 0
2, 35424, Note_on_c, 0, 74, 64
2, 35616, Note_on_c, 0, 74, 0
2, 35616, Note_on_c, 0, 86, 64
2, 35712, Note_on_c, 0, 86, 0
2, 35712, Note_on_c, 0, 85, 64
2, 35808, Note_on_c, 0, 85, 0
2, 35808, Note_on_c, 0, 84, 64
2, 35904, Note_on_c, 0, 84, 0
2, 35904, Note_on_c, 0, 83, 64
2, 36000, Note_on_c, 0, 83, 0
2, 36000, Note_on_c, 0, 82, 64
2, 36096, Note_on_c, 0, 82, 0
2, 36096, Note_on_c, 0, 81, 64
2, 36192, Note_on_c, 0, 81, 0
2, 36192, Note_on_c, 0, 80, 64
2, 36288, Note_on_c, 0, 80, 0
2, 36288, Note_on_c, 0, 79, 64
2, 36384, Note_on_c, 0, 79, 0
2, 36384, Note_on_c, 0, 78, 64
2, 36576, Note_on_c, 0, 78, 0
2, 36576, Note_on_c, 0, 79, 64
2, 36624, Note_on_c, 0, 79, 0
2, 36624, Note_on_c, 0, 81, 64
2, 36672, Note_on_c, 0, 81, 0
2, 36672, Note_on_c, 0, 79, 64
2, 36768, Note_on_c, 0, 79, 0
2, 36768, Note_on_c, 0, 84, 64
2, 36864, Note_on_c, 0, 84, 0
2, 36864, Note_on_c, 0, 83, 64
2, 36912, Note_on_c, 0, 83, 0
2, 36912, Note_on_c, 0, 85, 64
2, 36960, Note_on_c, 0, 85, 0
2, 36960, Note_on_c, 0, 86, 64
2, 37056, Note_on_c, 0, 86, 0
2, 37152, Note_on_c, 0, 70, 64
2, 37248, Note_on_c, 0, 70, 0
2, 37248, Note_on_c, 0, 81, 64
2, 37344, Note_on_c, 0, 81, 0
2, 37344, Note_on_c, 0, 73, 64
2, 37440, Note_on_c, 0, 73, 0
2, 37440, Note_on_c, 0, 79, 64
2, 37536, Note_on_c, 0, 79, 0
2, 37536, Note_on_c, 0, 73, 64
2, 37632, Note_on_c, 0, 73, 0
2, 37632, Note_on_c, 0, 73, 64
2, 37680, Note_on_c, 0, 73, 0
2, 37680, Note_on_c, 0, 74, 64
2, 37728, Note_on_c, 0, 74, 0
2, 37728, Note_on_c, 0, 76, 64
2, 37776, Note_on_c, 0, 76, 0
2, 37776, Note_on_c, 0, 74, 64
2, 37824, Note_on_c, 0, 74, 0
2, 37824, Note_on_c, 0, 73, 64
2, 37872, Note_on_c, 0, 73, 0
2, 37872, Note_on_c, 0, 74, 64
2, 37920, Note_on_c, 0, 74, 0
2, 37920, Note_on_c, 0, 73, 64
2, 37968, Note_on_c, 0, 73, 0
2, 37968, Note_on_c, 0, 72, 64
2, 38016, Note_on_c, 0, 72, 0
2, 38016, Note_on_c, 0, 71, 64
2, 38064, Note_on_c, 0, 71, 0
2, 38064, Note_on_c, 0, 72, 64
2, 38112, Note_on_c, 0, 72, 0
2, 38112, Note_on_c, 0, 71, 64
2, 38160, Note_on_c, 0, 71, 0
2, 38160, Note_on_c, 0, 70, 64
2, 38208, Note_on_c, 0, 70, 0
2, 38208, Note_on_c, 0, 69, 64
2, 38304, Note_on_c, 0, 69, 0
2, 38304, Note_on_c, 0, 81, 64
2, 38400, Note_on_c, 0, 81, 0
2, 38400, Note_on_c, 0, 81, 64
2, 38496, Note_on_c, 0, 81, 0
2, 38496, Note_on_c, 0, 82, 64
2, 38592, Note_on_c, 0, 82, 0
2, 38688, Note_on_c, 0, 79, 64
2, 38784, Note_on_c, 0, 79, 0
2, 38784, Note_on_c, 0, 80, 64
2, 38880, Note_on_c, 0, 80, 0
2, 38880, Note_on_c, 0, 81, 64
2, 38976, Note_on_c, 0, 81, 0
2, 39072, Note_on_c, 0, 77, 64
2, 39168, Note_on_c, 0, 77, 0
2, 39168, Note_on_c, 0, 78, 64
2, 39264, Note_on_c, 0, 78, 0
2, 39264, Note_on_c, 0, 79, 64
2, 39456, Note_on_c, 0, 79, 0
2, 39456, Note_on_c, 0, 69, 64
2, 39648, Note_on_c, 0, 69, 0
2, 39648, Note_on_c, 0, 70, 64
2, 39696, Note_on_c, 0, 70, 0
2, 39696, Note_on_c, 0, 69, 64
2, 39744, Note_on_c, 0, 69, 0
2, 39744, Note_on_c, 0, 70, 64
2, 39840, Note_on_c, 0, 70, 0
2, 39840, Note_on_c, 0, 76, 64
2, 39936, Note_on_c, 0, 76, 0
2, 39936, Note_on_c, 0, 74, 64
2, 39984, Note_on_c, 0, 74, 0
2, 39984, Note_on_c, 0, 82, 64
2, 40032, Note_on_c, 0, 82, 0
2, 40032, Note_on_c, 0, 81, 64
2, 40224, Note_on_c, 0, 81, 0
2, 40224, Note_on_c, 0, 79, 64
2, 40320, Note_on_c, 0, 79, 0
2, 40320, Note_on_c, 0, 77, 64
2, 40368, Note_on_c, 0, 77, 0
2, 40368, Note_on_c, 0, 76, 64
2, 40392, Note_on_c, 0, 76, 0
2, 40392, Note_on_c, 0, 74, 64
2, 40416, Note_on_c, 0, 74, 0
2, 40416, Note_on_c, 0, 75, 64
2, 40608, Note_on_c, 0, 75, 0
2, 40608, Note_on_c, 0, 74, 64
2, 40704, Note_on_c, 0, 74, 0
2, 40704, Note_on_c, 0, 73, 64
2, 40752, Note_on_c, 0, 73, 0
2, 40752, Note_on_c, 0, 74, 64
2, 40776, Note_on_c, 0, 74, 0
2, 40776, Note_on_c, 0, 76, 64
2, 40800, Note_on_c, 0, 76, 0
2, 40800, Note_on_c, 0, 74, 64
2, 40992, Note_on_c, 0, 74, 0
2, 40992, Note_on_c, 0, 76, 64
2, 41088, Note_on_c, 0, 76, 0
2, 41088, Note_on_c, 0, 77, 64
2, 41136, Note_on_c, 0, 77, 0
2, 41136, Note_on_c, 0, 69, 64
2, 41184, Note_on_c, 0, 69, 0
2, 41184, Note_on_c, 0, 79, 64
2, 41376, Note_on_c, 0, 79, 0
2, 41376, Note_on_c, 0, 77, 64
2, 41424, Note_on_c, 0, 77, 0
2, 41424, Note_on_c, 0, 76, 64
2, 41472, Note_on_c, 0, 76, 0
2, 41472, Note_on_c, 0, 74, 64
2, 42048, Note_on_c, 0, 74, 0
2, 42048, Note_on_c, 0, 74, 64
2, 42240, Note_on_c, 0, 74, 0
2, 42240, End_track
3, 0, Start_track
3, 0, Program_c, 0, 0
3, 1536, Note_on_c, 0, 57, 64
3, 1632, Note_on_c, 0, 57, 0
3, 1632, Note_on_c, 0, 49, 64
3, 1728, Note_on_c, 0, 49, 0
3, 1728, Note_on_c, 0, 50, 64
3, 2112, Note_on_c, 0, 50, 0
3, 2112, Note_on_c, 0, 52, 64
3, 2304, Note_on_c, 0, 52, 0
3, 2304, Note_on_c, 0, 54, 64
3, 2400, Note_on_c, 0, 54, 0
3, 2400, Note_on_c, 0, 55, 64
3, 2448, Note_on_c, 0, 55, 0
3, 2448, Note_on_c, 0, 57, 64
3, 2496, Note_on_c, 0, 57, 0
3, 2496, Note_on_c, 0, 55, 64
3, 2880, Note_on_c, 0, 55, 0
3, 2880, Note_on_c, 0, 57, 64
3, 3072, Note_on_c, 0, 57, 0
3, 3072, Note_on_c, 0, 58, 64
3, 3168, Note_on_c, 0, 58, 0
3, 3168, Note_on_c, 0, 57, 64
3, 3216, Note_on_c, 0, 57, 0
3, 3216, Note_on_c, 0, 55, 64
3, 3264, Note_on_c, 0, 55, 0
3, 3264, Note_on_c, 0, 57, 64
3, 3648, Note_on_c, 0, 57, 0
3, 3648, Note_on_c, 0, 55, 64
3, 3840, Note_on_c, 0, 55, 0
3, 3840, Note_on_c, 0, 53, 64
3, 3936, Note_on_c, 0, 53, 0
3, 3936, Note_on_c, 0, 62, 64
3, 4032, Note_on_c, 0, 62, 0
3, 4032, Note_on_c, 0, 52, 64
3, 4416, Note_on_c, 0, 52, 0
3, 4416, Note_on_c, 0, 53, 64
3, 4512, Note_on_c, 0, 53, 0
3, 4512, Note_on_c, 0, 55, 64
3, 4608, Note_on_c, 0, 55, 0
3, 4608, Note_on_c, 0, 53, 64
3, 4656, Note_on_c, 0, 53, 0
3, 4656, Note_on_c, 0, 52, 64
3, 4704, Note_on_c, 0, 52, 0
3, 4704, Note_on_c, 0, 50, 64
3, 4896, Note_on_c, 0, 50, 0
3, 4896, Note_on_c, 0, 52, 64
3, 4992, Note_on_c, 0, 52, 0
3, 4992, Note_on_c, 0, 53, 64
3, 5088, Note_on_c, 0, 53, 0
3, 5088, Note_on_c, 0, 45, 64
3, 5184, Note_on_c, 0, 45, 0
3, 5184, Note_on_c, 0, 52, 64
3, 5280, Note_on_c, 0, 52, 0
3, 5280, Note_on_c, 0, 43, 64
3, 5376, Note_on_c, 0, 43, 0
3, 5376, Note_on_c, 0, 50, 64
3, 5472, Note_on_c, 0, 50, 0
3, 5472, Note_on_c, 0, 41, 64
3, 5568, Note_on_c, 0, 41, 0
3, 5568, Note_on_c, 0, 48, 64
3, 5664, Note_on_c, 0, 48, 0
3, 5664, Note_on_c, 0, 45, 64
3, 5760, Note_on_c, 0, 45, 0
3, 5760, Note_on_c, 0, 47, 64
3, 5856, Note_on_c, 0, 47, 0
3, 5856, Note_on_c, 0, 48, 64
3, 5952, Note_on_c, 0, 48, 0
3, 5952, Note_on_c, 0, 40, 64
3, 6048, Note_on_c, 0, 40, 0
3, 6048, Note_on_c, 0, 49, 64
3, 6144, Note_on_c, 0, 49, 0
3, 6144, Note_on_c, 0, 50, 64
3, 6192, Note_on_c, 0, 50, 0
3, 6192, Note_on_c, 0, 44, 64
3, 6240, Note_on_c, 0, 44, 0
3, 6240, Note_on_c, 0, 45, 64
3, 6432, Note_on_c, 0, 45, 0
3, 6432, Note_on_c, 0, 47, 64
3, 6528, Note_on_c, 0, 47, 0
3, 6528, Note_on_c, 0, 48, 64
3, 6624, Note_on_c, 0, 48, 0
3, 6624, Note_on_c, 0, 40, 64
3, 6720, Note_on_c, 0, 40, 0
3, 6720, Note_on_c, 0, 47, 64
3, 6816, Note_on_c, 0, 47, 0
3, 6816, Note_on_c, 0, 38, 64
3, 6912, Note_on_c, 0, 38, 0
3, 6912, Note_on_c, 0, 45, 64
3, 7008, Note_on_c, 0, 45, 0
3, 7008, Note_on_c, 0, 36, 64
3, 7104, Note_on_c, 0, 36, 0
3, 7104, Note_on_c, 0, 43, 64
3, 7200, Note_on_c, 0, 43, 0
3, 7200, Note_on_c, 0, 40, 64
3, 7296, Note_on_c, 0, 40, 0
3, 7296, Note_on_c, 0, 42, 64
3, 7392, Note_on_c, 0, 42, 0
3, 7392, Note_on_c, 0, 43, 64
3, 7488, Note_on_c, 0, 43, 0
3, 7488, Note_on_c, 0, 35, 64
3, 7584, Note_on_c, 0, 35, 0
3, 7584, Note_on_c, 0, 44, 64
3, 7680, Note_on_c, 0, 44, 0
3, 7680, Note_on_c, 0, 45, 64
3, 7776, Note_on_c, 0, 45, 0
3, 7776, Note_on_c, 0, 57, 64
3, 7968, Note_on_c, 0, 57, 0
3, 7968, Note_on_c, 0, 55, 64
3, 8064, Note_on_c, 0, 55, 0
3, 8064, Note_on_c, 0, 53, 64
3, 8160, Note_on_c, 0, 53, 0
3, 8160, Note_on_c, 0, 50, 64
3, 8256, Note_on_c, 0, 50, 0
3, 8256, Note_on_c, 0, 45, 64
3, 8352, Note_on_c, 0, 45, 0
3, 8352, Note_on_c, 0, 41, 64
3, 8448, Note_on_c, 0, 41, 0
3, 8448, Note_on_c, 0, 52, 64
3, 8544, Note_on_c, 0, 52, 0
3, 8544, Note_on_c, 0, 43, 64
3, 8640, Note_on_c, 0, 43, 0
3, 8640, Note_on_c, 0, 53, 64
3, 8736, Note_on_c, 0, 53, 0
3, 8736, Note_on_c, 0, 45, 64
3, 8832, Note_on_c, 0, 45, 0
3, 8832, Note_on_c, 0, 55, 64
3, 8928, Note_on_c, 0, 55, 0
3, 8928, Note_on_c, 0, 46, 64
3, 9024, Note_on_c, 0, 46, 0
3, 9024, Note_on_c, 0, 45, 64
3, 9120, Note_on_c, 0, 45, 0
3, 9120, Note_on_c, 0, 43, 64
3, 9216, Note_on_c, 0, 43, 0
3, 9216, Note_on_c, 0, 50, 64
3, 9312, Note_on_c, 0, 50, 0
3, 9312, Note_on_c, 0, 45, 64
3, 9360, Note_on_c, 0, 45, 0
3, 9360, Note_on_c, 0, 47, 64
3, 9408, Note_on_c, 0, 47, 0
3, 9408, Note_on_c, 0, 48, 64
3, 9504, Note_on_c, 0, 48, 0
3, 9504, Note_on_c, 0, 50, 64
3, 9600, Note_on_c, 0, 50, 0
3, 9600, Note_on_c, 0, 52, 64
3, 9696, Note_on_c, 0, 52, 0
3, 9696, Note_on_c, 0, 40, 64
3, 9744, Note_on_c, 0, 40, 0
3, 9744, Note_on_c, 0, 42, 64
3, 9792, Note_on_c, 0, 42, 0
3, 9792, Note_on_c, 0, 43, 64
3, 9888, Note_on_c, 0, 43, 0
3, 9888, Note_on_c, 0, 45, 64
3, 9984, Note_on_c, 0, 45, 0
3, 9984, Note_on_c, 0, 46, 64
3, 10080, Note_on_c, 0, 46, 0
3, 10080, Note_on_c, 0, 43, 64
3, 10128, Note_on_c, 0, 43, 0
3, 10128, Note_on_c, 0, 45, 64
3, 10176, Note_on_c, 0, 45, 0
3, 10176, Note_on_c, 0, 47, 64
3, 10272, Note_on_c, 0, 47, 0
3, 10272, Note_on_c, 0, 49, 64
3, 10368, Note_on_c, 0, 49, 0
3, 10368, Note_on_c, 0, 50, 64
3, 10464, Note_on_c, 0, 50, 0
3, 10464, Note_on_c, 0, 38, 64
3, 10512, Note_on_c, 0, 38, 0
3, 10512, Note_on_c, 0, 40, 64
3, 10560, Note_on_c, 0, 40, 0
3, 10560, Note_on_c, 0, 41, 64
3, 10608, Note_on_c, 0, 41, 0
3, 10608, Note_on_c, 0, 43, 64
3, 10656, Note_on_c, 0, 43, 0
3, 10656, Note_on_c, 0, 45, 64
3, 10704, Note_on_c, 0, 45, 0
3, 10704, Note_on_c, 0, 46, 64
3, 10752, Note_on_c, 0, 46, 0
3, 10752, Note_on_c, 0, 45, 64
3, 10944, Note_on_c, 0, 45, 0
3, 11136, Note_on_c, 0, 57, 64
3, 11232, Note_on_c, 0, 57, 0
3, 11232, Note_on_c, 0, 49, 64
3, 11424, Note_on_c, 0, 49, 0
3, 11424, Note_on_c, 0, 50, 64
3, 11472, Note_on_c, 0, 50, 0
3, 11472, Note_on_c, 0, 52, 64
3, 11520, Note_on_c, 0, 52, 0
3, 11520, Note_on_c, 0, 50, 64
3, 11568, Note_on_c, 0, 50, 0
3, 11568, Note_on_c, 0, 53, 64
3, 11616, Note_on_c, 0, 53, 0
3, 11616, Note_on_c, 0, 57, 64
3, 11808, Note_on_c, 0, 57, 0
3, 11808, Note_on_c, 0, 55, 64
3, 11856, Note_on_c, 0, 55, 0
3, 11856, Note_on_c, 0, 53, 64
3, 11904, Note_on_c, 0, 53, 0
3, 11904, Note_on_c, 0, 52, 64
3, 11952, Note_on_c, 0, 52, 0
3, 11952, Note_on_c, 0, 55, 64
3, 12000, Note_on_c, 0, 55, 0
3, 12000, Note_on_c, 0, 58, 64
3, 12192, Note_on_c, 0, 58, 0
3, 12192, Note_on_c, 0, 57, 64
3, 12240, Note_on_c, 0, 57, 0
3, 12240, Note_on_c, 0, 55, 64
3, 12288, Note_on_c, 0, 55, 0
3, 12288, Note_on_c, 0, 54, 64
3, 12336, Note_on_c, 0, 54, 0
3, 12336, Note_on_c, 0, 56, 64
3, 12384, Note_on_c, 0, 56, 0
3, 12384, Note_on_c, 0, 57, 64
3, 12576, Note_on_c, 0, 57, 0
3, 12576, Note_on_c, 0, 45, 64
3, 12672, Note_on_c, 0, 45, 0
3, 12672, Note_on_c, 0, 44, 64
3, 12768, Note_on_c, 0, 44, 0
3, 12768, Note_on_c, 0, 43, 64
3, 12864, Note_on_c, 0, 43, 0
3, 12864, Note_on_c, 0, 42, 64
3, 12960, Note_on_c, 0, 42, 0
3, 12960, Note_on_c, 0, 41, 64
3, 13056, Note_on_c, 0, 41, 0
3, 13056, Note_on_c, 0, 40, 64
3, 13152, Note_on_c, 0, 40, 0
3, 13152, Note_on_c, 0, 39, 64
3, 13248, Note_on_c, 0, 39, 0
3, 13248, Note_on_c, 0, 38, 64
3, 13344, Note_on_c, 0, 38, 0
3, 13344, Note_on_c, 0, 37, 64
3, 13536, Note_on_c, 0, 37, 0
3, 13536, Note_on_c, 0, 38, 64
3, 13584, Note_on_c, 0, 38, 0
3, 13584, Note_on_c, 0, 40, 64
3, 13632, Note_on_c, 0, 40, 0
3, 13632, Note_on_c, 0, 38, 64
3, 13728, Note_on_c, 0, 38, 0
3, 13728, Note_on_c, 0, 43, 64
3, 13824, Note_on_c, 0, 43, 0
3, 13824, Note_on_c, 0, 42, 64
3, 13872, Note_on_c, 0, 42, 0
3, 13872, Note_on_c, 0, 44, 64
3, 13920, Note_on_c, 0, 44, 0
3, 13920, Note_on_c, 0, 45, 64
3, 14112, Note_on_c, 0, 45, 0
3, 14112, Note_on_c, 0, 46, 64
3, 14160, Note_on_c, 0, 46, 0
3, 14160, Note_on_c, 0, 48, 64
3, 14208, Note_on_c, 0, 48, 0
3, 14208, Note_on_c, 0, 46, 64
3, 14304, Note_on_c, 0, 46, 0
3, 14304, Note_on_c, 0, 42, 64
3, 14496, Note_on_c, 0, 42, 0
3, 14496, Note_on_c, 0, 44, 64
3, 14544, Note_on_c, 0, 44, 0
3, 14544, Note_on_c, 0, 45, 64
3, 14592, Note_on_c, 0, 45, 0
3, 14592, Note_on_c, 0, 43, 64
3, 14640, Note_on_c, 0, 43, 0
3, 14640, Note_on_c, 0, 46, 64
3, 14688, Note_on_c, 0, 46, 0
3, 14688, Note_on_c, 0, 50, 64
3, 14880, Note_on_c, 0, 50, 0
3, 14880, Note_on_c, 0, 48, 64
3, 14928, Note_on_c, 0, 48, 0
3, 14928, Note_on_c, 0, 46, 64
3, 14976, Note_on_c, 0, 46, 0
3, 14976, Note_on_c, 0, 45, 64
3, 15024, Note_on_c, 0, 45, 0
3, 15024, Note_on_c, 0, 48, 64
3, 15072, Note_on_c, 0, 48, 0
3, 15072, Note_on_c, 0, 51, 64
3, 15264, Note_on_c, 0, 51, 0
3, 15264, Note_on_c, 0, 50, 64
3, 15312, Note_on_c, 0, 50, 0
3, 15312, Note_on_c, 0, 48, 64
3, 15360, Note_on_c, 0, 48, 0
3, 15360, Note_on_c, 0, 47, 64
3, 15408, Note_on_c, 0, 47, 0
3, 15408, Note_on_c, 0, 49, 64
3, 15456, Note_on_c, 0, 49, 0
3, 15456, Note_on_c, 0, 50, 64
3, 15648, Note_on_c, 0, 50, 0
3, 15648, Note_on_c, 0, 62, 64
3, 15744, Note_on_c, 0, 62, 0
3, 15744, Note_on_c, 0, 61, 64
3, 15840, Note_on_c, 0, 61, 0
3, 15840, Note_on_c, 0, 60, 64
3, 15936, Note_on_c, 0, 60, 0
3, 15936, Note_on_c, 0, 59, 64
3, 16032, Note_on_c, 0, 59, 0
3, 16032, Note_on_c, 0, 58, 64
3, 16128, Note_on_c, 0, 58, 0
3, 16128, Note_on_c, 0, 57, 64
3, 16224, Note_on_c, 0, 57, 0
3, 16224, Note_on_c, 0, 56, 64
3, 16320, Note_on_c, 0, 56, 0
3, 16320, Note_on_c, 0, 55, 64
3, 16416, Note_on_c, 0, 55, 0
3, 16416, Note_on_c, 0, 54, 64
3, 16608, Note_on_c, 0, 54, 0
3, 16608, Note_on_c, 0, 55, 64
3, 16656, Note_on_c, 0, 55, 0
3, 16656, Note_on_c, 0, 57, 64
3, 16704, Note_on_c, 0, 57, 0
3, 16704, Note_on_c, 0, 55, 64
3, 16800, Note_on_c, 0, 55, 0
3, 16800, Note_on_c, 0, 60, 64
3, 16896, Note_on_c, 0, 60, 0
3, 16896, Note_on_c, 0, 59, 64
3, 16944, Note_on_c, 0, 59, 0
3, 16944, Note_on_c, 0, 61, 64
3, 16992, Note_on_c, 0, 61, 0
3, 16992, Note_on_c, 0, 62, 64
3, 17088, Note_on_c, 0, 62, 0
3, 17184, Note_on_c, 0, 46, 64
3, 17280, Note_on_c, 0, 46, 0
3, 17280, Note_on_c, 0, 57, 64
3, 17376, Note_on_c, 0, 57, 0
3, 17376, Note_on_c, 0, 49, 64
3, 17472, Note_on_c, 0, 49, 0
3, 17472, Note_on_c, 0, 55, 64
3, 17568, Note_on_c, 0, 55, 0
3, 17568, Note_on_c, 0, 49, 64
3, 17664, Note_on_c, 0, 49, 0
3, 17664, Note_on_c, 0, 49, 64
3, 17712, Note_on_c, 0, 49, 0
3, 17712, Note_on_c, 0, 50, 64
3, 17760, Note_on_c, 0, 50, 0
3, 17760, Note_on_c, 0, 52, 64
3, 17808, Note_on_c, 0, 52, 0
3, 17808, Note_on_c, 0, 50, 64
3, 17856, Note_on_c, 0, 50, 0
3, 17856, Note_on_c, 0, 49, 64
3, 17904, Note_on_c, 0, 49, 0
3, 17904, Note_on_c, 0, 50, 64
3, 17952, Note_on_c, 0, 50, 0
3, 17952, Note_on_c, 0, 49, 64
3, 18000, Note_on_c, 0, 49, 0
3, 18000, Note_on_c, 0, 48, 64
3, 18048, Note_on_c, 0, 48, 0
3, 18048, Note_on_c, 0, 47, 64
3, 18096, Note_on_c, 0, 47, 0
3, 18096, Note_on_c, 0, 48, 64
3, 18144, Note_on_c, 0, 48, 0
3, 18144, Note_on_c, 0, 47, 64
3, 18192, Note_on_c, 0, 47, 0
3, 18192, Note_on_c, 0, 46, 64
3, 18240, Note_on_c, 0, 46, 0
3, 18240, Note_on_c, 0, 45, 64
3, 18336, Note_on_c, 0, 45, 0
3, 18336, Note_on_c, 0, 57, 64
3, 18432, Note_on_c, 0, 57, 0
3, 18432, Note_on_c, 0, 57, 64
3, 18528, Note_on_c, 0, 57, 0
3, 18528, Note_on_c, 0, 58, 64
3, 18624, Note_on_c, 0, 58, 0
3, 18720, Note_on_c, 0, 55, 64
3, 18816, Note_on_c, 0, 55, 0
3, 18816, Note_on_c, 0, 56, 64
3, 18912, Note_on_c, 0, 56, 0
3, 18912, Note_on_c, 0, 57, 64
3, 19008, Note_on_c, 0, 57, 0
3, 19104, Note_on_c, 0, 53, 64
3, 19200, Note_on_c, 0, 53, 0
3, 19200, Note_on_c, 0, 54, 64
3, 19296, Note_on_c, 0, 54, 0
3, 19296, Note_on_c, 0, 55, 64
3, 19488, Note_on_c, 0, 55, 0
3, 19488, Note_on_c, 0, 45, 64
3, 19680, Note_on_c, 0, 45, 0
3, 19680, Note_on_c, 0, 46, 64
3, 19728, Note_on_c, 0, 46, 0
3, 19728, Note_on_c, 0, 45, 64
3, 19776, Note_on_c, 0, 45, 0
3, 19776, Note_on_c, 0, 43, 64
3, 19872, Note_on_c, 0, 43, 0
3, 19872, Note_on_c, 0, 52, 64
3, 19968, Note_on_c, 0, 52, 0
3, 19968, Program_c, 0, 0
3, 19968, Note_on_c, 0, 50, 64
3, 20016, Note_on_c, 0, 50, 0
3, 20016, Note_on_c, 0, 58, 64
3, 20064, Note_on_c, 0, 58, 0
3, 20064, Note_on_c, 0, 57, 64
3, 20256, Note_on_c, 0, 57, 0
3, 20256, Note_on_c, 0, 55, 64
3, 20352, Note_on_c, 0, 55, 0
3, 20352, Note_on_c, 0, 53, 64
3, 20400, Note_on_c, 0, 53, 0
3, 20400, Note_on_c, 0, 52, 64
3, 20424, Note_on_c, 0, 52, 0
3, 20424, Note_on_c, 0, 50, 64
3, 20448, Note_on_c, 0, 50, 0
3, 20448, Note_on_c, 0, 51, 64
3, 20640, Note_on_c, 0, 51, 0
3, 20640, Note_on_c, 0, 50, 64
3, 20736, Note_on_c, 0, 50, 0
3, 20736, Note_on_c, 0, 49, 64
3, 20784, Note_on_c, 0, 49, 0
3, 20784, Note_on_c, 0, 50, 64
3, 20808, Note_on_c, 0, 50, 0
3, 20808, Note_on_c, 0, 52, 64
3, 20832, Note_on_c, 0, 52, 0
3, 20832, Note_on_c, 0, 50, 64
3, 21024, Note_on_c, 0, 50, 0
3, 21024, Note_on_c, 0, 52, 64
3, 21120, Note_on_c, 0, 52, 0
3, 21120, Note_on_c, 0, 53, 64
3, 21168, Note_on_c, 0, 53, 0
3, 21168, Note_on_c, 0, 45, 64
3, 21216, Note_on_c, 0, 45, 0
3, 21216, Note_on_c, 0, 55, 64
3, 21408, Note_on_c, 0, 55, 0
3, 21408, Note_on_c, 0, 53, 64
3, 21456, Note_on_c, 0, 53, 0
3, 21456, Note_on_c, 0, 52, 64
3, 21504, Note_on_c, 0, 52, 0
3, 21504, Note_on_c, 0, 53, 64
3, 21528, Note_on_c, 0, 53, 0
3, 21528, Note_on_c, 0, 55, 64
3, 21552, Note_on_c, 0, 55, 0
3, 21552, Note_on_c, 0, 57, 64
3, 21648, Note_on_c, 0, 57, 0
3, 21648, Note_on_c, 0, 55, 64
3, 21696, Note_on_c, 0, 55, 0
3, 21696, Note_on_c, 0, 53, 64
3, 21744, Note_on_c, 0, 53, 0
3, 21744, Note_on_c, 0, 62, 64
3, 21792, Note_on_c, 0, 62, 0
3, 21792, Note_on_c, 0, 55, 64
3, 21840, Note_on_c, 0, 55, 0
3, 21840, Note_on_c, 0, 64, 64
3, 21888, Note_on_c, 0, 64, 0
3, 21888, Note_on_c, 0, 57, 64
3, 21936, Note_on_c, 0, 57, 0
3, 21936, Note_on_c, 0, 65, 64
3, 21984, Note_on_c, 0, 65, 0
3, 21984, Note_on_c, 0, 59, 64
3, 22032, Note_on_c, 0, 59, 0
3, 22032, Note_on_c, 0, 62, 64
3, 22080, Note_on_c, 0, 62, 0
3, 22080, Note_on_c, 0, 60, 64
3, 22128, Note_on_c, 0, 60, 0
3, 22128, Note_on_c, 0, 58, 64
3, 22176, Note_on_c, 0, 58, 0
3, 22176, Note_on_c, 0, 67, 64
3, 22224, Note_on_c, 0, 67, 0
3, 22224, Note_on_c, 0, 58, 64
3, 22272, Note_on_c, 0, 58, 0
3, 22272, Note_on_c, 0, 57, 64
3, 22296, Note_on_c, 0, 57, 0
3, 22296, Note_on_c, 0, 63, 64
3, 22320, Note_on_c, 0, 63, 0
3, 22320, Note_on_c, 0, 62, 64
3, 22416, Note_on_c, 0, 62, 0
3, 22416, Note_on_c, 0, 60, 64
3, 22464, Note_on_c, 0, 60, 0
3, 22464, Note_on_c, 0, 58, 64
3, 22512, Note_on_c, 0, 58, 0
3, 22512, Note_on_c, 0, 67, 64
3, 22560, Note_on_c, 0, 67, 0
3, 22560, Note_on_c, 0, 60, 64
3, 22608, Note_on_c, 0, 60, 0
3, 22608, Note_on_c, 0, 69, 64
3, 22656, Note_on_c, 0, 69, 0
3, 22656, Note_on_c, 0, 62, 64
3, 22704, Note_on_c, 0, 62, 0
3, 22704, Note_on_c, 0, 70, 64
3, 22752, Note_on_c, 0, 70, 0
3, 22752, Note_on_c, 0, 64, 64
3, 22800, Note_on_c, 0, 64, 0
3, 22800, Note_on_c, 0, 67, 64
3, 22848, Note_on_c, 0, 67, 0
3, 22848, Note_on_c, 0, 65, 64
3, 22896, Note_on_c, 0, 65, 0
3, 22896, Note_on_c, 0, 63, 64
3, 22944, Note_on_c, 0, 63, 0
3, 22944, Note_on_c, 0, 72, 64
3, 22992, Note_on_c, 0, 72, 0
3, 22992, Note_on_c, 0, 63, 64
3, 23040, Note_on_c, 0, 63, 0
3, 23040, Note_on_c, 0, 62, 64
3, 23088, Note_on_c, 0, 62, 0
3, 23088, Note_on_c, 0, 50, 64
3, 23184, Note_on_c, 0, 50, 0
3, 23184, Note_on_c, 0, 52, 64
3, 23232, Note_on_c, 0, 52, 0
3, 23232, Note_on_c, 0, 53, 64
3, 23280, Note_on_c, 0, 53, 0
3, 23280, Note_on_c, 0, 57, 64
3, 23328, Note_on_c, 0, 57, 0
3, 23328, Note_on_c, 0, 62, 64
3, 23376, Note_on_c, 0, 62, 0
3, 23376, Note_on_c, 0, 65, 64
3, 23424, Note_on_c, 0, 65, 0
3, 23424, Note_on_c, 0, 55, 64
3, 23472, Note_on_c, 0, 55, 0
3, 23472, Note_on_c, 0, 64, 64
3, 23520, Note_on_c, 0, 64, 0
3, 23520, Note_on_c, 0, 53, 64
3, 23568, Note_on_c, 0, 53, 0
3, 23568, Note_on_c, 0, 62, 64
3, 23616, Note_on_c, 0, 62, 0
3, 23616, Note_on_c, 0, 52, 64
3, 23664, Note_on_c, 0, 52, 0
3, 23664, Note_on_c, 0, 61, 64
3, 23712, Note_on_c, 0, 61, 0
3, 23712, Note_on_c, 0, 62, 64
3, 23760, Note_on_c, 0, 62, 0
3, 23760, Note_on_c, 0, 64, 64
3, 23808, Note_on_c, 0, 64, 0
3, 23808, Note_on_c, 0, 57, 64
3, 23856, Note_on_c, 0, 57, 0
3, 23856, Note_on_c, 0, 62, 64
3, 23880, Note_on_c, 0, 62, 0
3, 23880, Note_on_c, 0, 60, 64
3, 23904, Note_on_c, 0, 60, 0
3, 23904, Note_on_c, 0, 58, 64
3, 23952, Note_on_c, 0, 58, 0
3, 23952, Note_on_c, 0, 57, 64
3, 24000, Note_on_c, 0, 57, 0
3, 24000, Note_on_c, 0, 55, 64
3, 24048, Note_on_c, 0, 55, 0
3, 24048, Note_on_c, 0, 67, 64
3, 24072, Note_on_c, 0, 67, 0
3, 24072, Note_on_c, 0, 65, 64
3, 24096, Note_on_c, 0, 65, 0
3, 24096, Note_on_c, 0, 64, 64
3, 24144, Note_on_c, 0, 64, 0
3, 24144, Note_on_c, 0, 62, 64
3, 24192, Note_on_c, 0, 62, 0
3, 24192, Note_on_c, 0, 61, 64
3, 24240, Note_on_c, 0, 61, 0
3, 24240, Note_on_c, 0, 64, 64
3, 24264, Note_on_c, 0, 64, 0
3, 24264, Note_on_c, 0, 62, 64
3, 24288, Note_on_c, 0, 62, 0
3, 24288, Note_on_c, 0, 60, 64
3, 24336, Note_on_c, 0, 60, 0
3, 24336, Note_on_c, 0, 59, 64
3, 24384, Note_on_c, 0, 59, 0
3, 24384, Note_on_c, 0, 57, 64
3, 24432, Note_on_c, 0, 57, 0
3, 24432, Note_on_c, 0, 69, 64
3, 24456, Note_on_c, 0, 69, 0
3, 24456, Note_on_c, 0, 67, 64
3, 24480, Note_on_c, 0, 67, 0
3, 24480, Note_on_c, 0, 65, 64
3, 24504, Note_on_c, 0, 65, 0
3, 24504, Note_on_c, 0, 64, 64
3, 24528, Note_on_c, 0, 64, 0
3, 24528, Note_on_c, 0, 62, 64
3, 24552, Note_on_c, 0, 62, 0
3, 24552, Note_on_c, 0, 61, 64
3, 24576, Note_on_c, 0, 61, 0
3, 24576, Note_on_c, 0, 62, 64
3, 24672, Note_on_c, 0, 62, 0
3, 24768, Note_on_c, 0, 50, 64
3, 24816, Note_on_c, 0, 50, 0
3, 24816, Note_on_c, 0, 58, 64
3, 24912, Note_on_c, 0, 58, 0
3, 24912, Note_on_c, 0, 57, 64
3, 24936, Note_on_c, 0, 57, 0
3, 24936, Note_on_c, 0, 55, 64
3, 24960, Note_on_c, 0, 55, 0
3, 24960, Note_on_c, 0, 57, 64
3, 24984, Note_on_c, 0, 57, 0
3, 24984, Note_on_c, 0, 53, 64
3, 25008, Note_on_c, 0, 53, 0
3, 25008, Note_on_c, 0, 50, 64
3, 25104, Note_on_c, 0, 50, 0
3, 25104, Note_on_c, 0, 52, 64
3, 25128, Note_on_c, 0, 52, 0
3, 25128, Note_on_c, 0, 53, 64
3, 25152, Note_on_c, 0, 53, 0
3, 25152, Note_on_c, 0, 55, 64
3, 25176, Note_on_c, 0, 55, 0
3, 25176, Note_on_c, 0, 52, 64
3, 25200, Note_on_c, 0, 52, 0
3, 25200, Note_on_c, 0, 49, 64
3, 25296, Note_on_c, 0, 49, 0
3, 25296, Note_on_c, 0, 50, 64
3, 25320, Note_on_c, 0, 50, 0
3, 25320, Note_on_c, 0, 52, 64
3, 25344, Note_on_c, 0, 52, 0
3, 25344, Note_on_c, 0, 53, 64
3, 25368, Note_on_c, 0, 53, 0
3, 25368, Note_on_c, 0, 52, 64
3, 25392, Note_on_c, 0, 52, 0
3, 25392, Note_on_c, 0, 50, 64
3, 25488, Note_on_c, 0, 50, 0
3, 25488, Note_on_c, 0, 62, 64
3, 25536, Note_on_c, 0, 62, 0
3, 25536, Note_on_c, 0, 63, 64
3, 25584, Note_on_c, 0, 63, 0
3, 25584, Note_on_c, 0, 64, 64
3, 25632, Note_on_c, 0, 64, 0
3, 25632, Note_on_c, 0, 65, 64
3, 25680, Note_on_c, 0, 65, 0
3, 25680, Note_on_c, 0, 66, 64
3, 25728, Note_on_c, 0, 66, 0
3, 25728, Note_on_c, 0, 67, 64
3, 25776, Note_on_c, 0, 67, 0
3, 25776, Note_on_c, 0, 68, 64
3, 25824, Note_on_c, 0, 68, 0
3, 25824, Note_on_c, 0, 69, 64
3, 25872, Note_on_c, 0, 69, 0
3, 25872, Note_on_c, 0, 70, 64
3, 25968, Note_on_c, 0, 70, 0
3, 25968, Note_on_c, 0, 69, 64
3, 25992, Note_on_c, 0, 69, 0
3, 25992, Note_on_c, 0, 67, 64
3, 26016, Note_on_c, 0, 67, 0
3, 26016, Note_on_c, 0, 69, 64
3, 26064, Note_on_c, 0, 69, 0
3, 26064, Note_on_c, 0, 64, 64
3, 26112, Note_on_c, 0, 64, 0
3, 26112, Note_on_c, 0, 65, 64
3, 26136, Note_on_c, 0, 65, 0
3, 26136, Note_on_c, 0, 64, 64
3, 26160, Note_on_c, 0, 64, 0
3, 26160, Note_on_c, 0, 62, 64
3, 26256, Note_on_c, 0, 62, 0
3, 26256, Note_on_c, 0, 60, 64
3, 26280, Note_on_c, 0, 60, 0
3, 26280, Note_on_c, 0, 59, 64
3, 26304, Note_on_c, 0, 59, 0
3, 26304, Note_on_c, 0, 60, 64
3, 26352, Note_on_c, 0, 60, 0
3, 26352, Note_on_c, 0, 65, 64
3, 26448, Note_on_c, 0, 65, 0
3, 26448, Note_on_c, 0, 64, 64
3, 26472, Note_on_c, 0, 64, 0
3, 26472, Note_on_c, 0, 62, 64
3, 26496, Note_on_c, 0, 62, 0
3, 26496, Note_on_c, 0, 64, 64
3, 26520, Note_on_c, 0, 64, 0
3, 26520, Note_on_c, 0, 60, 64
3, 26544, Note_on_c, 0, 60, 0
3, 26544, Note_on_c, 0, 57, 64
3, 26640, Note_on_c, 0, 57, 0
3, 26640, Note_on_c, 0, 59, 64
3, 26664, Note_on_c, 0, 59, 0
3, 26664, Note_on_c, 0, 60, 64
3, 26688, Note_on_c, 0, 60, 0
3, 26688, Note_on_c, 0, 62, 64
3, 26712, Note_on_c, 0, 62, 0
3, 26712, Note_on_c, 0, 59, 64
3, 26736, Note_on_c, 0, 59, 0
3, 26736, Note_on_c, 0, 56, 64
3, 26832, Note_on_c, 0, 56, 0
3, 26832, Note_on_c, 0, 57, 64
3, 26856, Note_on_c, 0, 57, 0
3, 26856, Note_on_c, 0, 59, 64
3, 26880, Note_on_c, 0, 59, 0
3, 26880, Note_on_c, 0, 60, 64
3, 26904, Note_on_c, 0, 60, 0
3, 26904, Note_on_c, 0, 59, 64
3, 26928, Note_on_c, 0, 59, 0
3, 26928, Note_on_c, 0, 57, 64
3, 27024, Note_on_c, 0, 57, 0
3, 27024, Note_on_c, 0, 45, 64
3, 27072, Note_on_c, 0, 45, 0
3, 27072, Note_on_c, 0, 46, 64
3, 27120, Note_on_c, 0, 46, 0
3, 27120, Note_on_c, 0, 47, 64
3, 27168, Note_on_c, 0, 47, 0
3, 27168, Note_on_c, 0, 48, 64
3, 27216, Note_on_c, 0, 48, 0
3, 27216, Note_on_c, 0, 49, 64
3, 27264, Note_on_c, 0, 49, 0
3, 27264, Note_on_c, 0, 50, 64
3, 27312, Note_on_c, 0, 50, 0
3, 27312, Note_on_c, 0, 51, 64
3, 27360, Note_on_c, 0, 51, 0
3, 27360, Note_on_c, 0, 52, 64
3, 27408, Note_on_c, 0, 52, 0
3, 27408, Note_on_c, 0, 53, 64
3, 27504, Note_on_c, 0, 53, 0
3, 27504, Note_on_c, 0, 52, 64
3, 27528, Note_on_c, 0, 52, 0
3, 27528, Note_on_c, 0, 50, 64
3, 27552, Note_on_c, 0, 50, 0
3, 27552, Note_on_c, 0, 52, 64
3, 27600, Note_on_c, 0, 52, 0
3, 27600, Note_on_c, 0, 47, 64
3, 27648, Note_on_c, 0, 47, 0
3, 27648, Note_on_c, 0, 48, 64
3, 27672, Note_on_c, 0, 48, 0
3, 27672, Note_on_c, 0, 47, 64
3, 27696, Note_on_c, 0, 47, 0
3, 27696, Note_on_c, 0, 45, 64
3, 27744, Note_on_c, 0, 45, 0
3, 27792, Note_on_c, 0, 60, 64
3, 27840, Note_on_c, 0, 60, 0
3, 27840, Note_on_c, 0, 50, 64
3, 27888, Note_on_c, 0, 50, 0
3, 27888, Note_on_c, 0, 58, 64
3, 27936, Note_on_c, 0, 58, 0
3, 27936, Note_on_c, 0, 52, 64
3, 27984, Note_on_c, 0, 52, 0
3, 27984, Note_on_c, 0, 58, 64
3, 28056, Note_on_c, 0, 58, 0
3, 28056, Note_on_c, 0, 57, 64
3, 28080, Note_on_c, 0, 57, 0
3, 28080, Note_on_c, 0, 55, 64
3, 28104, Note_on_c, 0, 55, 0
3, 28104, Note_on_c, 0, 57, 64
3, 28128, Note_on_c, 0, 57, 0
3, 28128, Note_on_c, 0, 58, 64
3, 28152, Note_on_c, 0, 58, 0
3, 28152, Note_on_c, 0, 57, 64
3, 28176, Note_on_c, 0, 57, 0
3, 28176, Note_on_c, 0, 58, 64
3, 28200, Note_on_c, 0, 58, 0
3, 28200, Note_on_c, 0, 59, 64
3, 28224, Note_on_c, 0, 59, 0
3, 28224, Note_on_c, 0, 60, 64
3, 28248, Note_on_c, 0, 60, 0
3, 28248, Note_on_c, 0, 59, 64
3, 28272, Note_on_c, 0, 59, 0
3, 28272, Note_on_c, 0, 60, 64
3, 28296, Note_on_c, 0, 60, 0
3, 28296, Note_on_c, 0, 61, 64
3, 28320, Note_on_c, 0, 61, 0
3, 28320, Note_on_c, 0, 62, 64
3, 28368, Note_on_c, 0, 62, 0
3, 28368, Note_on_c, 0, 50, 64
3, 28416, Note_on_c, 0, 50, 0
3, 28416, Note_on_c, 0, 52, 64
3, 28440, Note_on_c, 0, 52, 0
3, 28440, Note_on_c, 0, 50, 64
3, 28464, Note_on_c, 0, 50, 0
3, 28464, Note_on_c, 0, 49, 64
3, 28512, Note_on_c, 0, 49, 0
3, 28560, Note_on_c, 0, 52, 64
3, 28608, Note_on_c, 0, 52, 0
3, 28608, Note_on_c, 0, 53, 64
3, 28632, Note_on_c, 0, 53, 0
3, 28632, Note_on_c, 0, 52, 64
3, 28656, Note_on_c, 0, 52, 0
3, 28656, Note_on_c, 0, 50, 64
3, 28704, Note_on_c, 0, 50, 0
3, 28752, Note_on_c, 0, 53, 64
3, 28800, Note_on_c, 0, 53, 0
3, 28800, Note_on_c, 0, 55, 64
3, 28824, Note_on_c, 0, 55, 0
3, 28824, Note_on_c, 0, 53, 64
3, 28848, Note_on_c, 0, 53, 0
3, 28848, Note_on_c, 0, 52, 64
3, 28944, Note_on_c, 0, 52, 0
3, 28944, Note_on_c, 0, 62, 64
3, 29040, Note_on_c, 0, 62, 0
3, 29040, Note_on_c, 0, 61, 64
3, 29064, Note_on_c, 0, 61, 0
3, 29064, Note_on_c, 0, 62, 64
3, 29088, Note_on_c, 0, 62, 0
3, 29088, Note_on_c, 0, 64, 64
3, 29136, Note_on_c, 0, 64, 0
3, 29136, Note_on_c, 0, 55, 64
3, 29184, Note_on_c, 0, 55, 0
3, 29184, Note_on_c, 0, 55, 64
3, 29232, Note_on_c, 0, 55, 0
3, 29232, Note_on_c, 0, 53, 64
3, 29256, Note_on_c, 0, 53, 0
3, 29256, Note_on_c, 0, 52, 64
3, 29280, Note_on_c, 0, 52, 0
3, 29280, Note_on_c, 0, 53, 64
3, 29424, Note_on_c, 0, 53, 0
3, 29424, Note_on_c, 0, 52, 64
3, 29448, Note_on_c, 0, 52, 0
3, 29448, Note_on_c, 0, 50, 64
3, 29472, Note_on_c, 0, 50, 0
3, 29472, Note_on_c, 0, 48, 64
3, 29520, Note_on_c, 0, 48, 0
3, 29520, Note_on_c, 0, 47, 64
3, 29568, Note_on_c, 0, 47, 0
3, 29568, Note_on_c, 0, 48, 64
3, 29616, Note_on_c, 0, 48, 0
3, 29616, Note_on_c, 0, 60, 64
3, 29640, Note_on_c, 0, 60, 0
3, 29640, Note_on_c, 0, 59, 64
3, 29664, Note_on_c, 0, 59, 0
3, 29664, Note_on_c, 0, 60, 64
3, 29808, Note_on_c, 0, 60, 0
3, 29808, Note_on_c, 0, 58, 64
3, 29832, Note_on_c, 0, 58, 0
3, 29832, Note_on_c, 0, 57, 64
3, 29856, Note_on_c, 0, 57, 0
3, 29856, Note_on_c, 0, 55, 64
3, 29904, Note_on_c, 0, 55, 0
3, 29904, Note_on_c, 0, 54, 64
3, 29952, Note_on_c, 0, 54, 0
3, 29952, Note_on_c, 0, 55, 64
3, 30000, Note_on_c, 0, 55, 0
3, 30000, Note_on_c, 0, 67, 64
3, 30024, Note_on_c, 0, 67, 0
3, 30024, Note_on_c, 0, 66, 64
3, 30048, Note_on_c, 0, 66, 0
3, 30048, Note_on_c, 0, 67, 64
3, 30192, Note_on_c, 0, 67, 0
3, 30192, Note_on_c, 0, 65, 64
3, 30288, Note_on_c, 0, 65, 0
3, 30288, Note_on_c, 0, 64, 64
3, 30336, Note_on_c, 0, 64, 0
3, 30336, Note_on_c, 0, 65, 64
3, 30384, Note_on_c, 0, 65, 0
3, 30384, Note_on_c, 0, 70, 64
3, 30408, Note_on_c, 0, 70, 0
3, 30408, Note_on_c, 0, 69, 64
3, 30432, Note_on_c, 0, 69, 0
3, 30432, Note_on_c, 0, 70, 64
3, 30528, Note_on_c, 0, 70, 0
3, 30528, Note_on_c, 0, 70, 64
3, 30552, Note_on_c, 0, 70, 0
3, 30552, Note_on_c, 0, 69, 64
3, 30576, Note_on_c, 0, 69, 0
3, 30576, Note_on_c, 0, 67, 64
3, 30600, Note_on_c, 0, 67, 0
3, 30600, Note_on_c, 0, 65, 64
3, 30624, Note_on_c, 0, 65, 0
3, 30624, Note_on_c, 0, 64, 64
3, 30648, Note_on_c, 0, 64, 0
3, 30648, Note_on_c, 0, 62, 64
3, 30672, Note_on_c, 0, 62, 0
3, 30672, Note_on_c, 0, 61, 64
3, 30696, Note_on_c, 0, 61, 0
3, 30696, Note_on_c, 0, 62, 64
3, 30720, Note_on_c, 0, 62, 0
3, 30720, Note_on_c, 0, 61, 64
3, 30744, Note_on_c, 0, 61, 0
3, 30744, Note_on_c, 0, 65, 64
3, 30768, Note_on_c, 0, 65, 0
3, 30768, Note_on_c, 0, 64, 64
3, 30792, Note_on_c, 0, 64, 0
3, 30792, Note_on_c, 0, 63, 64
3, 30816, Note_on_c, 0, 63, 0
3, 30816, Note_on_c, 0, 64, 64
3, 30840, Note_on_c, 0, 64, 0
3, 30840, Note_on_c, 0, 62, 64
3, 30864, Note_on_c, 0, 62, 0
3, 30864, Note_on_c, 0, 61, 64
3, 30888, Note_on_c, 0, 61, 0
3, 30888, Note_on_c, 0, 62, 64
3, 30912, Note_on_c, 0, 62, 0
3, 30912, Note_on_c, 0, 60, 64
3, 30936, Note_on_c, 0, 60, 0
3, 30936, Note_on_c, 0, 59, 64
3, 30960, Note_on_c, 0, 59, 0
3, 30960, Note_on_c, 0, 60, 64
3, 30984, Note_on_c, 0, 60, 0
3, 30984, Note_on_c, 0, 58, 64
3, 31008, Note_on_c, 0, 58, 0
3, 31008, Note_on_c, 0, 57, 64
3, 31032, Note_on_c, 0, 57, 0
3, 31032, Note_on_c, 0, 58, 64
3, 31056, Note_on_c, 0, 58, 0
3, 31056, Note_on_c, 0, 57, 64
3, 31080, Note_on_c, 0, 57, 0
3, 31080, Note_on_c, 0, 56, 64
3, 31104, Note_on_c, 0, 56, 0
3, 31104, Note_on_c, 0, 57, 64
3, 31152, Note_on_c, 0, 57, 0
3, 31152, Note_on_c, 0, 49, 64
3, 31176, Note_on_c, 0, 49, 0
3, 31176, Note_on_c, 0, 50, 64
3, 31200, Note_on_c, 0, 50, 0
3, 31200, Note_on_c, 0, 52, 64
3, 31248, Note_on_c, 0, 52, 0
3, 31248, Note_on_c, 0, 52, 64
3, 31272, Note_on_c, 0, 52, 0
3, 31272, Note_on_c, 0, 53, 64
3, 31296, Note_on_c, 0, 53, 0
3, 31296, Note_on_c, 0, 55, 64
3, 31320, Note_on_c, 0, 55, 0
3, 31320, Note_on_c, 0, 57, 64
3, 31344, Note_on_c, 0, 57, 0
3, 31344, Note_on_c, 0, 58, 64
3, 31440, Note_on_c, 0, 58, 0
3, 31440, Note_on_c, 0, 57, 64
3, 31464, Note_on_c, 0, 57, 0
3, 31464, Note_on_c, 0, 55, 64
3, 31488, Note_on_c, 0, 55, 0
3, 31488, Note_on_c, 0, 53, 64
3, 31512, Note_on_c, 0, 53, 0
3, 31512, Note_on_c, 0, 52, 64
3, 31536, Note_on_c, 0, 52, 0
3, 31536, Note_on_c, 0, 50, 64
3, 31560, Note_on_c, 0, 50, 0
3, 31560, Note_on_c, 0, 52, 64
3, 31584, Note_on_c, 0, 52, 0
3, 31584, Note_on_c, 0, 53, 64
3, 31608, Note_on_c, 0, 53, 0
3, 31608, Note_on_c, 0, 55, 64
3, 31632, Note_on_c, 0, 55, 0
3, 31632, Note_on_c, 0, 57, 64
3, 31656, Note_on_c, 0, 57, 0
3, 31656, Note_on_c, 0, 59, 64
3, 31680, Note_on_c, 0, 59, 0
3, 31680, Note_on_c, 0, 61, 64
3, 31704, Note_on_c, 0, 61, 0
3, 31704, Note_on_c, 0, 59, 64
3, 31728, Note_on_c, 0, 59, 0
3, 31728, Note_on_c, 0, 57, 64
3, 31752, Note_on_c, 0, 57, 0
3, 31752, Note_on_c, 0, 59, 64
3, 31776, Note_on_c, 0, 59, 0
3, 31776, Note_on_c, 0, 61, 64
3, 31800, Note_on_c, 0, 61, 0
3, 31800, Note_on_c, 0, 62, 64
3, 31824, Note_on_c, 0, 62, 0
3, 31824, Note_on_c, 0, 64, 64
3, 31848, Note_on_c, 0, 64, 0
3, 31848, Note_on_c, 0, 65, 64
3, 31872, Note_on_c, 0, 65, 0
3, 31872, Note_on_c, 0, 67, 64
3, 31896, Note_on_c, 0, 67, 0
3, 31896, Note_on_c, 0, 65, 64
3, 31920, Note_on_c, 0, 65, 0
3, 31920, Note_on_c, 0, 64, 64
3, 31944, Note_on_c, 0, 64, 0
3, 31944, Note_on_c, 0, 65, 64
3, 31968, Note_on_c, 0, 65, 0
3, 31968, Note_on_c, 0, 67, 64
3, 31992, Note_on_c, 0, 67, 0
3, 31992, Note_on_c, 0, 69, 64
3, 32016, Note_on_c, 0, 69, 0
3, 32016, Note_on_c, 0, 70, 64
3, 32040, Note_on_c, 0, 70, 0
3, 32040, Note_on_c, 0, 69, 64
3, 32064, Note_on_c, 0, 69, 0
3, 32064, Note_on_c, 0, 67, 64
3, 32088, Note_on_c, 0, 67, 0
3, 32088, Note_on_c, 0, 65, 64
3, 32112, Note_on_c, 0, 65, 0
3, 32112, Note_on_c, 0, 64, 64
3, 32136, Note_on_c, 0, 64, 0
3, 32136, Note_on_c, 0, 62, 64
3, 32160, Note_on_c, 0, 62, 0
3, 32160, Note_on_c, 0, 61, 64
3, 32184, Note_on_c, 0, 61, 0
3, 32184, Note_on_c, 0, 62, 64
3, 32208, Note_on_c, 0, 62, 0
3, 32208, Note_on_c, 0, 64, 64
3, 32256, Note_on_c, 0, 64, 0
3, 32256, Note_on_c, 0, 64, 64
3, 32304, Note_on_c, 0, 64, 0
3, 32304, Note_on_c, 0, 62, 64
3, 32400, Note_on_c, 0, 62, 0
3, 32400, Note_on_c, 0, 60, 64
3, 32424, Note_on_c, 0, 60, 0
3, 32424, Note_on_c, 0, 59, 64
3, 32448, Note_on_c, 0, 59, 0
3, 32448, Note_on_c, 0, 60, 64
3, 32496, Note_on_c, 0, 60, 0
3, 32496, Note_on_c, 0, 65, 64
3, 32592, Note_on_c, 0, 65, 0
3, 32592, Note_on_c, 0, 64, 64
3, 32616, Note_on_c, 0, 64, 0
3, 32616, Note_on_c, 0, 63, 64
3, 32640, Note_on_c, 0, 63, 0
3, 32640, Note_on_c, 0, 64, 64
3, 32688, Note_on_c, 0, 64, 0
3, 32688, Note_on_c, 0, 59, 64
3, 32784, Note_on_c, 0, 59, 0
3, 32784, Note_on_c, 0, 61, 64
3, 32832, Note_on_c, 0, 61, 0
3, 32832, Note_on_c, 0, 62, 64
3, 32880, Note_on_c, 0, 62, 0
3, 32880, Note_on_c, 0, 57, 64
3, 32976, Note_on_c, 0, 57, 0
3, 32976, Note_on_c, 0, 59, 64
3, 33024, Note_on_c, 0, 59, 0
3, 33024, Note_on_c, 0, 60, 64
3, 33072, Note_on_c, 0, 60, 0
3, 33072, Note_on_c, 0, 55, 64
3, 33168, Note_on_c, 0, 55, 0
3, 33168, Note_on_c, 0, 57, 64
3, 33216, Note_on_c, 0, 57, 0
3, 33216, Note_on_c, 0, 58, 64
3, 33240, Note_on_c, 0, 58, 0
3, 33240, Note_on_c, 0, 57, 64
3, 33264, Note_on_c, 0, 57, 0
3, 33264, Note_on_c, 0, 55, 64
3, 33336, Note_on_c, 0, 55, 0
3, 33336, Note_on_c, 0, 57, 64
3, 33360, Note_on_c, 0, 57, 0
3, 33360, Note_on_c, 0, 55, 64
3, 33384, Note_on_c, 0, 55, 0
3, 33384, Note_on_c, 0, 54, 64
3, 33408, Note_on_c, 0, 54, 0
3, 33408, Note_on_c, 0, 55, 64
3, 33456, Note_on_c, 0, 55, 0
3, 33456, Note_on_c, 0, 45, 64
3, 33504, Note_on_c, 0, 45, 0
3, 33552, Note_on_c, 0, 55, 64
3, 33648, Note_on_c, 0, 55, 0
3, 33648, Note_on_c, 0, 53, 64
3, 33672, Note_on_c, 0, 53, 0
3, 33672, Note_on_c, 0, 52, 64
3, 33696, Note_on_c, 0, 52, 0
3, 33696, Note_on_c, 0, 50, 64
3, 33720, Note_on_c, 0, 50, 0
3, 33720, Note_on_c, 0, 49, 64
3, 33744, Note_on_c, 0, 49, 0
3, 33744, Note_on_c, 0, 52, 64
3, 33792, Note_on_c, 0, 52, 0
3, 33792, Note_on_c, 0, 52, 64
3, 33816, Note_on_c, 0, 52, 0
3, 33816, Note_on_c, 0, 50, 64
3, 33840, Note_on_c, 0, 50, 0
3, 33840, Note_on_c, 0, 62, 64
3, 33936, Note_on_c, 0, 62, 0
3, 33936, Note_on_c, 0, 60, 64
3, 33960, Note_on_c, 0, 60, 0
3, 33960, Note_on_c, 0, 59, 64
3, 33984, Note_on_c, 0, 59, 0
3, 33984, Note_on_c, 0, 60, 64
3, 34032, Note_on_c, 0, 60, 0
3, 34032, Note_on_c, 0, 58, 64
3, 34056, Note_on_c, 0, 58, 0
3, 34056, Note_on_c, 0, 57, 64
3, 34080, Note_on_c, 0, 57, 0
3, 34080, Note_on_c, 0, 55, 64
3, 34104, Note_on_c, 0, 55, 0
3, 34104, Note_on_c, 0, 54, 64
3, 34128, Note_on_c, 0, 54, 0
3, 34128, Note_on_c, 0, 57, 64
3, 34200, Note_on_c, 0, 57, 0
3, 34200, Note_on_c, 0, 55, 64
3, 34224, Note_on_c, 0, 55, 0
3, 34224, Note_on_c, 0, 57, 64
3, 34248, Note_on_c, 0, 57, 0
3, 34248, Note_on_c, 0, 58, 64
3, 34272, Note_on_c, 0, 58, 0
3, 34272, Note_on_c, 0, 60, 64
3, 34296, Note_on_c, 0, 60, 0
3, 34296, Note_on_c, 0, 58, 64
3, 34320, Note_on_c, 0, 58, 0
3, 34320, Note_on_c, 0, 57, 64
3, 34368, Note_on_c, 0, 57, 0
3, 34368, Note_on_c, 0, 63, 64
3, 34416, Note_on_c, 0, 63, 0
3, 34416, Note_on_c, 0, 62, 64
3, 34512, Note_on_c, 0, 62, 0
3, 34512, Note_on_c, 0, 60, 64
3, 34560, Note_on_c, 0, 60, 0
3, 34560, Note_on_c, 0, 58, 64
3, 34584, Note_on_c, 0, 58, 0
3, 34584, Note_on_c, 0, 60, 64
3, 34608, Note_on_c, 0, 60, 0
3, 34608, Note_on_c, 0, 62, 64
3, 34632, Note_on_c, 0, 62, 0
3, 34632, Note_on_c, 0, 64, 64
3, 34656, Note_on_c, 0, 64, 0
3, 34656, Note_on_c, 0, 66, 64
3, 34680, Note_on_c, 0, 66, 0
3, 34680, Note_on_c, 0, 64, 64
3, 34704, Note_on_c, 0, 64, 0
3, 34704, Note_on_c, 0, 62, 64
3, 34752, Note_on_c, 0, 62, 0
3, 34752, Note_on_c, 0, 70, 64
3, 34800, Note_on_c, 0, 70, 0
3, 34800, Note_on_c, 0, 69, 64
3, 34896, Note_on_c, 0, 69, 0
3, 34896, Note_on_c, 0, 67, 64
3, 34944, Note_on_c, 0, 67, 0
3, 34944, Note_on_c, 0, 66, 64
3, 34968, Note_on_c, 0, 66, 0
3, 34968, Note_on_c, 0, 67, 64
3, 34992, Note_on_c, 0, 67, 0
3, 34992, Note_on_c, 0, 69, 64
3, 35016, Note_on_c, 0, 69, 0
3, 35016, Note_on_c, 0, 70, 64
3, 35040, Note_on_c, 0, 70, 0
3, 35040, Note_on_c, 0, 72, 64
3, 35064, Note_on_c, 0, 72, 0
3, 35064, Note_on_c, 0, 63, 64
3, 35088, Note_on_c, 0, 63, 0
3, 35088, Note_on_c, 0, 62, 64
3, 35112, Note_on_c, 0, 62, 0
3, 35112, Note_on_c, 0, 60, 64
3, 35136, Note_on_c, 0, 60, 0
3, 35136, Note_on_c, 0, 67, 64
3, 35144, Note_on_c, 0, 67, 0
3, 35144, Note_on_c, 0, 66, 64
3, 35160, Note_on_c, 0, 66, 0
3, 35160, Note_on_c, 0, 67, 64
3, 35176, Note_on_c, 0, 67, 0
3, 35176, Note_on_c, 0, 66, 64
3, 35192, Note_on_c, 0, 66, 0
3, 35192, Note_on_c, 0, 67, 64
3, 35208, Note_on_c, 0, 67, 0
3, 35208, Note_on_c, 0, 66, 64
3, 35216, Note_on_c, 0, 66, 0
3, 35216, Note_on_c, 0, 67, 64
3, 35232, Note_on_c, 0, 67, 0
3, 35232, Note_on_c, 0, 66, 64
3, 35248, Note_on_c, 0, 66, 0
3, 35248, Note_on_c, 0, 67, 64
3, 35264, Note_on_c, 0, 67, 0
3, 35264, Note_on_c, 0, 66, 64
3, 35280, Note_on_c, 0, 66, 0
3, 35280, Note_on_c, 0, 64, 64
3, 35304, Note_on_c, 0, 64, 0
3, 35304, Note_on_c, 0, 66, 64
3, 35328, Note_on_c, 0, 66, 0
3, 35328, Note_on_c, 0, 67, 64
3, 35424, Note_on_c, 0, 67, 0
3, 35424, Note_on_c, 0, 67, 64
3, 35448, Note_on_c, 0, 67, 0
3, 35448, Note_on_c, 0, 65, 64
3, 35472, Note_on_c, 0, 65, 0
3, 35472, Note_on_c, 0, 64, 64
3, 35496, Note_on_c, 0, 64, 0
3, 35496, Note_on_c, 0, 67, 64
3, 35520, Note_on_c, 0, 67, 0
3, 35520, Note_on_c, 0, 65, 64
3, 35544, Note_on_c, 0, 65, 0
3, 35544, Note_on_c, 0, 64, 64
3, 35568, Note_on_c, 0, 64, 0
3, 35568, Note_on_c, 0, 62, 64
3, 35592, Note_on_c, 0, 62, 0
3, 35592, Note_on_c, 0, 61, 64
3, 35616, Note_on_c, 0, 61, 0
3, 35616, Note_on_c, 0, 60, 64
3, 35640, Note_on_c, 0, 60, 0
3, 35640, Note_on_c, 0, 58, 64
3, 35664, Note_on_c, 0, 58, 0
3, 35664, Note_on_c, 0, 57, 64
3, 35688, Note_on_c, 0, 57, 0
3, 35688, Note_on_c, 0, 56, 64
3, 35712, Note_on_c, 0, 56, 0
3, 35712, Note_on_c, 0, 57, 64
3, 35760, Note_on_c, 0, 57, 0
3, 35760, Note_on_c, 0, 69, 64
3, 35808, Note_on_c, 0, 69, 0
3, 35808, Note_on_c, 0, 62, 64
3, 35856, Note_on_c, 0, 62, 0
3, 35856, Note_on_c, 0, 66, 64
3, 35904, Note_on_c, 0, 66, 0
3, 35904, Note_on_c, 0, 55, 64
3, 35952, Note_on_c, 0, 55, 0
3, 35952, Note_on_c, 0, 67, 64
3, 36000, Note_on_c, 0, 67, 0
3, 36000, Note_on_c, 0, 60, 64
3, 36048, Note_on_c, 0, 60, 0
3, 36048, Note_on_c, 0, 64, 64
3, 36096, Note_on_c, 0, 64, 0
3, 36096, Note_on_c, 0, 53, 64
3, 36144, Note_on_c, 0, 53, 0
3, 36144, Note_on_c, 0, 65, 64
3, 36192, Note_on_c, 0, 65, 0
3, 36192, Note_on_c, 0, 59, 64
3, 36240, Note_on_c, 0, 59, 0
3, 36240, Note_on_c, 0, 62, 64
3, 36288, Note_on_c, 0, 62, 0
3, 36288, Note_on_c, 0, 52, 64
3, 36336, Note_on_c, 0, 52, 0
3, 36336, Note_on_c, 0, 64, 64
3, 36384, Note_on_c, 0, 64, 0
3, 36384, Note_on_c, 0, 57, 64
3, 36408, Note_on_c, 0, 57, 0
3, 36408, Note_on_c, 0, 61, 64
3, 36432, Note_on_c, 0, 61, 0
3, 36432, Note_on_c, 0, 62, 64
3, 36456, Note_on_c, 0, 62, 0
3, 36456, Note_on_c, 0, 63, 64
3, 36480, Note_on_c, 0, 63, 0
3, 36480, Note_on_c, 0, 62, 64
3, 36504, Note_on_c, 0, 62, 0
3, 36504, Note_on_c, 0, 59, 64
3, 36528, Note_on_c, 0, 59, 0
3, 36528, Note_on_c, 0, 60, 64
3, 36624, Note_on_c, 0, 60, 0
3, 36624, Note_on_c, 0, 60, 64
3, 36720, Note_on_c, 0, 60, 0
3, 36720, Note_on_c, 0, 58, 64
3, 36816, Note_on_c, 0, 58, 0
3, 36816, Note_on_c, 0, 57, 64
3, 36864, Note_on_c, 0, 57, 0
3, 36864, Note_on_c, 0, 57, 64
3, 36912, Note_on_c, 0, 57, 0
3, 36912, Note_on_c, 0, 55, 64
3, 37008, Note_on_c, 0, 55, 0
3, 37008, Note_on_c, 0, 53, 64
3, 37032, Note_on_c, 0, 53, 0
3, 37032, Note_on_c, 0, 52, 64
3, 37056, Note_on_c, 0, 52, 0
3, 37056, Note_on_c, 0, 53, 64
3, 37104, Note_on_c, 0, 53, 0
3, 37104, Note_on_c, 0, 58, 64
3, 37128, Note_on_c, 0, 58, 0
3, 37128, Note_on_c, 0, 57, 64
3, 37152, Note_on_c, 0, 57, 0
3, 37152, Note_on_c, 0, 55, 64
3, 37176, Note_on_c, 0, 55, 0
3, 37176, Note_on_c, 0, 53, 64
3, 37200, Note_on_c, 0, 53, 0
3, 37200, Note_on_c, 0, 52, 64
3, 37224, Note_on_c, 0, 52, 0
3, 37224, Note_on_c, 0, 50, 64
3, 37248, Note_on_c, 0, 50, 0
3, 37248, Note_on_c, 0, 49, 64
3, 37272, Note_on_c, 0, 49, 0
3, 37272, Note_on_c, 0, 50, 64
3, 37296, Note_on_c, 0, 50, 0
3, 37296, Note_on_c, 0, 52, 64
3, 37344, Note_on_c, 0, 52, 0
3, 37392, Note_on_c, 0, 52, 64
3, 37464, Note_on_c, 0, 52, 0
3, 37464, Note_on_c, 0, 53, 64
3, 37488, Note_on_c, 0, 53, 0
3, 37488, Note_on_c, 0, 52, 64
3, 37512, Note_on_c, 0, 52, 0
3, 37512, Note_on_c, 0, 50, 64
3, 37536, Note_on_c, 0, 50, 0
3, 37536, Note_on_c, 0, 52, 64
3, 37560, Note_on_c, 0, 52, 0
3, 37560, Note_on_c, 0, 53, 64
3, 37584, Note_on_c, 0, 53, 0
3, 37584, Note_on_c, 0, 55, 64
3, 37608, Note_on_c, 0, 55, 0
3, 37608, Note_on_c, 0, 57, 64
3, 37632, Note_on_c, 0, 57, 0
3, 37632, Note_on_c, 0, 58, 64
3, 37656, Note_on_c, 0, 58, 0
3, 37656, Note_on_c, 0, 57, 64
3, 37680, Note_on_c, 0, 57, 0
3, 37680, Note_on_c, 0, 55, 64
3, 37704, Note_on_c, 0, 55, 0
3, 37704, Note_on_c, 0, 54, 64
3, 37728, Note_on_c, 0, 54, 0
3, 37728, Note_on_c, 0, 55, 64
3, 37824, Note_on_c, 0, 55, 0
3, 37824, Note_on_c, 0, 55, 64
3, 37848, Note_on_c, 0, 55, 0
3, 37848, Note_on_c, 0, 57, 64
3, 37872, Note_on_c, 0, 57, 0
3, 37872, Note_on_c, 0, 55, 64
3, 37896, Note_on_c, 0, 55, 0
3, 37896, Note_on_c, 0, 54, 64
3, 37920, Note_on_c, 0, 54, 0
3, 37920, Note_on_c, 0, 55, 64
3, 38016, Note_on_c, 0, 55, 0
3, 38016, Note_on_c, 0, 55, 64
3, 38040, Note_on_c, 0, 55, 0
3, 38040, Note_on_c, 0, 57, 64
3, 38064, Note_on_c, 0, 57, 0
3, 38064, Note_on_c, 0, 55, 64
3, 38088, Note_on_c, 0, 55, 0
3, 38088, Note_on_c, 0, 54, 64
3, 38112, Note_on_c, 0, 54, 0
3, 38112, Note_on_c, 0, 55, 64
3, 38160, Note_on_c, 0, 55, 0
3, 38160, Note_on_c, 0, 67, 64
3, 38232, Note_on_c, 0, 67, 0
3, 38232, Note_on_c, 0, 62, 64
3, 38256, Note_on_c, 0, 62, 0
3, 38256, Note_on_c, 0, 61, 64
3, 38280, Note_on_c, 0, 61, 0
3, 38280, Note_on_c, 0, 59, 64
3, 38304, Note_on_c, 0, 59, 0
3, 38304, Note_on_c, 0, 57, 64
3, 38328, Note_on_c, 0, 57, 0
3, 38328, Note_on_c, 0, 61, 64
3, 38352, Note_on_c, 0, 61, 0
3, 38352, Note_on_c, 0, 64, 64
3, 38376, Note_on_c, 0, 64, 0
3, 38376, Note_on_c, 0, 67, 64
3, 38400, Note_on_c, 0, 67, 0
3, 38400, Note_on_c, 0, 65, 64
3, 38424, Note_on_c, 0, 65, 0
3, 38424, Note_on_c, 0, 64, 64
3, 38448, Note_on_c, 0, 64, 0
3, 38448, Note_on_c, 0, 62, 64
3, 38472, Note_on_c, 0, 62, 0
3, 38472, Note_on_c, 0, 61, 64
3, 38496, Note_on_c, 0, 61, 0
3, 38496, Note_on_c, 0, 62, 64
3, 38544, Note_on_c, 0, 62, 0
3, 38544, Note_on_c, 0, 58, 64
3, 38592, Note_on_c, 0, 58, 0
3, 38592, Note_on_c, 0, 57, 64
3, 38616, Note_on_c, 0, 57, 0
3, 38616, Note_on_c, 0, 55, 64
3, 38640, Note_on_c, 0, 55, 0
3, 38640, Note_on_c, 0, 63, 64
3, 38736, Note_on_c, 0, 63, 0
3, 38736, Note_on_c, 0, 62, 64
3, 38832, Note_on_c, 0, 62, 0
3, 38832, Note_on_c, 0, 61, 64
3, 38856, Note_on_c, 0, 61, 0
3, 38856, Note_on_c, 0, 59, 64
3, 38880, Note_on_c, 0, 59, 0
3, 38880, Note_on_c, 0, 61, 64
3, 38928, Note_on_c, 0, 61, 0
3, 38928, Note_on_c, 0, 57, 64
3, 38976, Note_on_c, 0, 57, 0
3, 38976, Note_on_c, 0, 55, 64
3, 39000, Note_on_c, 0, 55, 0
3, 39000, Note_on_c, 0, 53, 64
3, 39024, Note_on_c, 0, 53, 0
3, 39024, Note_on_c, 0, 62, 64
3, 39120, Note_on_c, 0, 62, 0
3, 39120, Note_on_c, 0, 60, 64
3, 39168, Note_on_c, 0, 60, 0
3, 39168, Note_on_c, 0, 60, 64
3, 39216, Note_on_c, 0, 60, 0
3, 39216, Note_on_c, 0, 59, 64
3, 39240, Note_on_c, 0, 59, 0
3, 39240, Note_on_c, 0, 57, 64
3, 39264, Note_on_c, 0, 57, 0
3, 39264, Note_on_c, 0, 59, 64
3, 39312, Note_on_c, 0, 59, 0
3, 39312, Note_on_c, 0, 55, 64
3, 39360, Note_on_c, 0, 55, 0
3, 39360, Note_on_c, 0, 53, 64
3, 39384, Note_on_c, 0, 53, 0
3, 39384, Note_on_c, 0, 52, 64
3, 39408, Note_on_c, 0, 52, 0
3, 39408, Note_on_c, 0, 55, 64
3, 39432, Note_on_c, 0, 55, 0
3, 39432, Note_on_c, 0, 58, 64
3, 39456, Note_on_c, 0, 58, 0
3, 39456, Note_on_c, 0, 61, 64
3, 39480, Note_on_c, 0, 61, 0
3, 39480, Note_on_c, 0, 55, 64
3, 39504, Note_on_c, 0, 55, 0
3, 39504, Note_on_c, 0, 53, 64
3, 39528, Note_on_c, 0, 53, 0
3, 39528, Note_on_c, 0, 52, 64
3, 39552, Note_on_c, 0, 52, 0
3, 39552, Note_on_c, 0, 50, 64
3, 39576, Note_on_c, 0, 50, 0
3, 39576, Note_on_c, 0, 47, 64
3, 39600, Note_on_c, 0, 47, 0
3, 39600, Note_on_c, 0, 49, 64
3, 39672, Note_on_c, 0, 49, 0
3, 39672, Note_on_c, 0, 50, 64
3, 39696, Note_on_c, 0, 50, 0
3, 39696, Note_on_c, 0, 52, 64
3, 39720, Note_on_c, 0, 52, 0
3, 39720, Note_on_c, 0, 53, 64
3, 39744, Note_on_c, 0, 53, 0
3, 39744, Note_on_c, 0, 52, 64
3, 39768, Note_on_c, 0, 52, 0
3, 39768, Note_on_c, 0, 49, 64
3, 39792, Note_on_c, 0, 49, 0
3, 39792, Note_on_c, 0, 58, 64
3, 39888, Note_on_c, 0, 58, 0
3, 39888, Note_on_c, 0, 57, 64
3, 39912, Note_on_c, 0, 57, 0
3, 39912, Note_on_c, 0, 55, 64
3, 39936, Note_on_c, 0, 55, 0
3, 39936, Note_on_c, 0, 53, 64
3, 39984, Note_on_c, 0, 53, 0
3, 39984, Note_on_c, 0, 52, 64
3, 40032, Note_on_c, 0, 52, 0
3, 40032, Note_on_c, 0, 53, 64
3, 40080, Note_on_c, 0, 53, 0
3, 40080, Note_on_c, 0, 50, 64
3, 40144, Note_on_c, 0, 50, 0
3, 40144, Note_on_c, 0, 49, 64
3, 40160, Note_on_c, 0, 49, 0
3, 40160, Note_on_c, 0, 50, 64
3, 40176, Note_on_c, 0, 50, 0
3, 40176, Note_on_c, 0, 49, 64
3, 40192, Note_on_c, 0, 49, 0
3, 40192, Note_on_c, 0, 50, 64
3, 40208, Note_on_c, 0, 50, 0
3, 40208, Note_on_c, 0, 49, 64
3, 40224, Note_on_c, 0, 49, 0
3, 40224, Note_on_c, 0, 50, 64
3, 40240, Note_on_c, 0, 50, 0
3, 40240, Note_on_c, 0, 49, 64
3, 40256, Note_on_c, 0, 49, 0
3, 40256, Note_on_c, 0, 47, 64
3, 40272, Note_on_c, 0, 47, 0
3, 40272, Note_on_c, 0, 49, 64
3, 40288, Note_on_c, 0, 49, 0
3, 40288, Note_on_c, 0, 50, 64
3, 40432, Note_on_c, 0, 50, 0
3, 40432, Note_on_c, 0, 50, 64
3, 40464, Note_on_c, 0, 50, 0
3, 40464, Note_on_c, 0, 48, 64
3, 40488, Note_on_c, 0, 48, 0
3, 40488, Note_on_c, 0, 47, 64
3, 40512, Note_on_c, 0, 47, 0
3, 40512, Note_on_c, 0, 48, 64
3, 40560, Note_on_c, 0, 48, 0
3, 40560, Note_on_c, 0, 46, 64
3, 40584, Note_on_c, 0, 46, 0
3, 40584, Note_on_c, 0, 45, 64
3, 40608, Note_on_c, 0, 45, 0
3, 40608, Note_on_c, 0, 46, 64
3, 40656, Note_on_c, 0, 46, 0
3, 40656, Note_on_c, 0, 55, 64
3, 40680, Note_on_c, 0, 55, 0
3, 40680, Note_on_c, 0, 54, 64
3, 40704, Note_on_c, 0, 54, 0
3, 40704, Note_on_c, 0, 55, 64
3, 40848, Note_on_c, 0, 55, 0
3, 40848, Note_on_c, 0, 53, 64
3, 40872, Note_on_c, 0, 53, 0
3, 40872, Note_on_c, 0, 52, 64
3, 40896, Note_on_c, 0, 52, 0
3, 40896, Note_on_c, 0, 53, 64
3, 40944, Note_on_c, 0, 53, 0
3, 40944, Note_on_c, 0, 52, 64
3, 40968, Note_on_c, 0, 52, 0
3, 40968, Note_on_c, 0, 50, 64
3, 40992, Note_on_c, 0, 50, 0
3, 40992, Note_on_c, 0, 49, 64
3, 41040, Note_on_c, 0, 49, 0
3, 41040, Note_on_c, 0, 57, 64
3, 41064, Note_on_c, 0, 57, 0
3, 41064, Note_on_c, 0, 56, 64
3, 41088, Note_on_c, 0, 56, 0
3, 41088, Note_on_c, 0, 57, 64
3, 41136, Note_on_c, 0, 57, 0
3, 41136, Note_on_c, 0, 62, 64
3, 41160, Note_on_c, 0, 62, 0
3, 41160, Note_on_c, 0, 60, 64
3, 41184, Note_on_c, 0, 60, 0
3, 41184, Note_on_c, 0, 58, 64
3, 41232, Note_on_c, 0, 58, 0
3, 41232, Note_on_c, 0, 57, 64
3, 41256, Note_on_c, 0, 57, 0
3, 41256, Note_on_c, 0, 55, 64
3, 41280, Note_on_c, 0, 55, 0
3, 41280, Note_on_c, 0, 57, 64
3, 41376, Note_on_c, 0, 57, 0
3, 41376, Note_on_c, 0, 45, 64
3, 41472, Note_on_c, 0, 45, 0
3, 41472, Note_on_c, 0, 50, 64
3, 42048, Note_on_c, 0, 50, 0
3, 42048, Note_on_c, 0, 50, 64
3, 42240, Note_on_c, 0, 50, 0
3, 42240, End_track
0, 0, End_of_file
