0, 0, Header, 1, 3, 96
1, 0, Start_track
1, 0, Key_signature, -1, "major"
1, 0, Time_signature, 9, 4, 24, 8
1, 0, Tempo, 666337
1, 21024, Tempo, 799605
1, 21168, Tempo, 666337
1, 21648, Tempo, 799605
1, 21792, Tempo, 999506
1, 21864, Tempo, 1199407
1, 21936, Tempo, 1499259
1, 22008, Tempo, 1999012
1, 22248, End_track
2, 0, Start_track
2, 0, Program_c, 0, 0
2, 0, Note_on_c, 0, 69, 64
2, 72, Note_on_c, 0, 69, 0
2, 72, Note_on_c, 0, 62, 64
2, 96, Note_on_c, 0, 62, 0
2, 96, Note_on_c, 0, 61, 64
2, 120, Note_on_c, 0, 61, 0
2, 120, Note_on_c, 0, 62, 64
2, 144, Note_on_c, 0, 62, 0
2, 144, Note_on_c, 0, 64, 64
2, 168, Note_on_c, 0, 64, 0
2, 168, Note_on_c, 0, 62, 64
2, 192, Note_on_c, 0, 62, 0
2, 192, Note_on_c, 0, 64, 64
2, 216, Note_on_c, 0, 64, 0
2, 216, Note_on_c, 0, 65, 64
2, 240, Note_on_c, 0, 65, 0
2, 240, Note_on_c, 0, 64, 64
2, 264, Note_on_c, 0, 64, 0
2, 264, Note_on_c, 0, 65, 64
2, 288, Note_on_c, 0, 65, 0
2, 288, Note_on_c, 0, 67, 64
2, 312, Note_on_c, 0, 67, 0
2, 312, Note_on_c, 0, 65, 64
2, 336, Note_on_c, 0, 65, 0
2, 336, Note_on_c, 0, 67, 64
2, 360, Note_on_c, 0, 67, 0
2, 360, Note_on_c, 0, 69, 64
2, 384, Note_on_c, 0, 69, 0
2, 384, Note_on_c, 0, 67, 64
2, 408, Note_on_c, 0, 67, 0
2, 408, Note_on_c, 0, 69, 64
2, 432, Note_on_c, 0, 69, 0
2, 432, Note_on_c, 0, 70, 64
2, 480, Note_on_c, 0, 70, 0
2, 504, Note_on_c, 0, 69, 64
2, 552, Note_on_c, 0, 69, 0
2, 576, Note_on_c, 0, 67, 64
2, 624, Note_on_c, 0, 67, 0
2, 648, Note_on_c, 0, 67, 64
2, 672, Note_on_c, 0, 67, 0
2, 672, Note_on_c, 0, 65, 64
2, 768, Note_on_c, 0, 65, 0
2, 768, Note_on_c, 0, 64, 64
2, 792, Note_on_c, 0, 64, 0
2, 792, Note_on_c, 0, 65, 64
2, 840, Note_on_c, 0, 65, 0
2, 840, Note_on_c, 0, 67, 64
2, 864, Note_on_c, 0, 67, 0
2, 864, Note_on_c, 0, 69, 64
2, 912, Note_on_c, 0, 69, 0
2, 912, Note_on_c, 0, 79, 64
2, 936, Note_on_c, 0, 79, 0
2, 936, Note_on_c, 0, 77, 64
2, 984, Note_on_c, 0, 77, 0
2, 984, Note_on_c, 0, 69, 64
2, 1008, Note_on_c, 0, 69, 0
2, 1008, Note_on_c, 0, 67, 64
2, 1056, Note_on_c, 0, 67, 0
2, 1056, Note_on_c, 0, 76, 64
2, 1080, Note_on_c, 0, 76, 0
2, 1080, Note_on_c, 0, 74, 64
2, 1128, Note_on_c, 0, 74, 0
2, 1128, Note_on_c, 0, 65, 64
2, 1152, Note_on_c, 0, 65, 0
2, 1152, Note_on_c, 0, 64, 64
2, 1200, Note_on_c, 0, 64, 0
2, 1200, Note_on_c, 0, 74, 64
2, 1224, Note_on_c, 0, 74, 0
2, 1224, Note_on_c, 0, 73, 64
2, 1272, Note_on_c, 0, 73, 0
2, 1272, Note_on_c, 0, 64, 64
2, 1296, Note_on_c, 0, 64, 0
2, 1296, Note_on_c, 0, 64, 64
2, 1320, Note_on_c, 0, 64, 0
2, 1320, Note_on_c, 0, 62, 64
2, 1344, Note_on_c, 0, 62, 0
2, 1344, Note_on_c, 0, 61, 64
2, 1368, Note_on_c, 0, 61, 0
2, 1368, Note_on_c, 0, 62, 64
2, 1392, Note_on_c, 0, 62, 0
2, 1392, Note_on_c, 0, 64, 64
2, 1416, Note_on_c, 0, 64, 0
2, 1416, Note_on_c, 0, 65, 64
2, 1440, Note_on_c, 0, 65, 0
2, 1440, Note_on_c, 0, 67, 64
2, 1464, Note_on_c, 0, 67, 0
2, 1464, Note_on_c, 0, 69, 64
2, 1488, Note_on_c, 0, 69, 0
2, 1488, Note_on_c, 0, 70, 64
2, 1512, Note_on_c, 0, 70, 0
2, 1512, Note_on_c, 0, 70, 64
2, 1536, Note_on_c, 0, 70, 0
2, 1536, Note_on_c, 0, 69, 64
2, 1560, Note_on_c, 0, 69, 0
2, 1560, Note_on_c, 0, 67, 64
2, 1584, Note_on_c, 0, 67, 0
2, 1584, Note_on_c, 0, 69, 64
2, 1608, Note_on_c, 0, 69, 0
2, 1608, Note_on_c, 0, 71, 64
2, 1632, Note_on_c, 0, 71, 0
2, 1632, Note_on_c, 0, 73, 64
2, 1656, Note_on_c, 0, 73, 0
2, 1656, Note_on_c, 0, 74, 64
2, 1680, Note_on_c, 0, 74, 0
2, 1680, Note_on_c, 0, 76, 64
2, 1704, Note_on_c, 0, 76, 0
2, 1704, Note_on_c, 0, 77, 64
2, 1728, Note_on_c, 0, 77, 0
2, 1728, Note_on_c, 0, 77, 64
2, 1752, Note_on_c, 0, 77, 0
2, 1752, Note_on_c, 0, 74, 64
2, 1776, Note_on_c, 0, 74, 0
2, 1776, Note_on_c, 0, 76, 64
2, 1800, Note_on_c, 0, 76, 0
2, 1800, Note_on_c, 0, 76, 64
2, 1824, Note_on_c, 0, 76, 0
2, 1824, Note_on_c, 0, 73, 64
2, 1848, Note_on_c, 0, 73, 0
2, 1848, Note_on_c, 0, 74, 64
2, 1872, Note_on_c, 0, 74, 0
2, 1872, Note_on_c, 0, 74, 64
2, 1896, Note_on_c, 0, 74, 0
2, 1896, Note_on_c, 0, 71, 64
2, 1920, Note_on_c, 0, 71, 0
2, 1920, Note_on_c, 0, 72, 64
2, 1944, Note_on_c, 0, 72, 0
2, 1944, Note_on_c, 0, 72, 64
2, 1968, Note_on_c, 0, 72, 0
2, 1968, Note_on_c, 0, 69, 64
2, 1992, Note_on_c, 0, 69, 0
2, 1992, Note_on_c, 0, 70, 64
2, 2016, Note_on_c, 0, 70, 0
2, 2016, Note_on_c, 0, 70, 64
2, 2040, Note_on_c, 0, 70, 0
2, 2040, Note_on_c, 0, 67, 64
2, 2064, Note_on_c, 0, 67, 0
2, 2064, Note_on_c, 0, 69, 64
2, 2088, Note_on_c, 0, 69, 0
2, 2088, Note_on_c, 0, 69, 64
2, 2112, Note_on_c, 0, 69, 0
2, 2112, Note_on_c, 0, 65, 64
2, 2136, Note_on_c, 0, 65, 0
2, 2136, Note_on_c, 0, 67, 64
2, 2160, Note_on_c, 0, 67, 0
2, 2160, Note_on_c, 0, 67, 64
2, 2184, Note_on_c, 0, 67, 0
2, 2184, Note_on_c, 0, 65, 64
2, 2256, Note_on_c, 0, 65, 0
2, 2256, Note_on_c, 0, 67, 64
2, 2280, Note_on_c, 0, 67, 0
2, 2280, Note_on_c, 0, 69, 64
2, 2304, Note_on_c, 0, 69, 0
2, 2304, Note_on_c, 0, 70, 64
2, 2328, Note_on_c, 0, 70, 0
2, 2328, Note_on_c, 0, 69, 64
2, 2352, Note_on_c, 0, 69, 0
2, 2352, Note_on_c, 0, 67, 64
2, 2376, Note_on_c, 0, 67, 0
2, 2376, Note_on_c, 0, 74, 64
2, 2400, Note_on_c, 0, 74, 0
2, 2400, Note_on_c, 0, 73, 64
2, 2472, Note_on_c, 0, 73, 0
2, 2472, Note_on_c, 0, 74, 64
2, 2496, Note_on_c, 0, 74, 0
2, 2496, Note_on_c, 0, 76, 64
2, 2520, Note_on_c, 0, 76, 0
2, 2520, Note_on_c, 0, 77, 64
2, 2544, Note_on_c, 0, 77, 0
2, 2544, Note_on_c, 0, 76, 64
2, 2568, Note_on_c, 0, 76, 0
2, 2568, Note_on_c, 0, 74, 64
2, 2592, Note_on_c, 0, 74, 0
2, 2592, Note_on_c, 0, 81, 64
2, 2608, Note_on_c, 0, 81, 0
2, 2608, Note_on_c, 0, 80, 64
2, 2624, Note_on_c, 0, 80, 0
2, 2624, Note_on_c, 0, 81, 64
2, 2640, Note_on_c, 0, 81, 0
2, 2640, Note_on_c, 0, 80, 64
2, 2656, Note_on_c, 0, 80, 0
2, 2656, Note_on_c, 0, 81, 64
2, 2672, Note_on_c, 0, 81, 0
2, 2672, Note_on_c, 0, 80, 64
2, 2688, Note_on_c, 0, 80, 0
2, 2688, Note_on_c, 0, 81, 64
2, 2704, Note_on_c, 0, 81, 0
2, 2704, Note_on_c, 0, 80, 64
2, 2720, Note_on_c, 0, 80, 0
2, 2720, Note_on_c, 0, 81, 64
2, 2736, Note_on_c, 0, 81, 0
2, 2736, Note_on_c, 0, 80, 64
2, 2752, Note_on_c, 0, 80, 0
2, 2752, Note_on_c, 0, 81, 64
2, 2768, Note_on_c, 0, 81, 0
2, 2768, Note_on_c, 0, 80, 64
2, 2784, Note_on_c, 0, 80, 0
2, 2784, Note_on_c, 0, 78, 64
2, 2800, Note_on_c, 0, 78, 0
2, 2800, Note_on_c, 0, 80, 64
2, 2808, Note_on_c, 0, 80, 0
2, 2808, Note_on_c, 0, 81, 64
2, 2856, Note_on_c, 0, 81, 0
2, 2928, Note_on_c, 0, 73, 64
2, 2952, Note_on_c, 0, 73, 0
2, 2952, Note_on_c, 0, 74, 64
2, 3000, Note_on_c, 0, 74, 0
2, 3000, Note_on_c, 0, 76, 64
2, 3024, Note_on_c, 0, 76, 0
2, 3024, Note_on_c, 0, 69, 64
2, 3048, Note_on_c, 0, 69, 0
2, 3048, Note_on_c, 0, 71, 64
2, 3072, Note_on_c, 0, 71, 0
2, 3072, Note_on_c, 0, 73, 64
2, 3096, Note_on_c, 0, 73, 0
2, 3096, Note_on_c, 0, 74, 64
2, 3120, Note_on_c, 0, 74, 0
2, 3120, Note_on_c, 0, 76, 64
2, 3144, Note_on_c, 0, 76, 0
2, 3144, Note_on_c, 0, 77, 64
2, 3168, Note_on_c, 0, 77, 0
2, 3168, Note_on_c, 0, 67, 64
2, 3240, Note_on_c, 0, 67, 0
2, 3240, Note_on_c, 0, 67, 64
2, 3264, Note_on_c, 0, 67, 0
2, 3264, Note_on_c, 0, 79, 64
2, 3288, Note_on_c, 0, 79, 0
2, 3288, Note_on_c, 0, 77, 64
2, 3312, Note_on_c, 0, 77, 0
2, 3312, Note_on_c, 0, 76, 64
2, 3336, Note_on_c, 0, 76, 0
2, 3336, Note_on_c, 0, 74, 64
2, 3360, Note_on_c, 0, 74, 0
2, 3360, Note_on_c, 0, 73, 64
2, 3384, Note_on_c, 0, 73, 0
2, 3384, Note_on_c, 0, 74, 64
2, 3456, Note_on_c, 0, 74, 0
2, 3456, Note_on_c, 0, 74, 64
2, 3480, Note_on_c, 0, 74, 0
2, 3480, Note_on_c, 0, 71, 64
2, 3504, Note_on_c, 0, 71, 0
2, 3504, Note_on_c, 0, 73, 64
2, 3528, Note_on_c, 0, 73, 0
2, 3528, Note_on_c, 0, 74, 64
2, 3552, Note_on_c, 0, 74, 0
2, 3552, Note_on_c, 0, 76, 64
2, 3576, Note_on_c, 0, 76, 0
2, 3576, Note_on_c, 0, 77, 64
2, 3600, Note_on_c, 0, 77, 0
2, 3600, Note_on_c, 0, 76, 64
2, 3624, Note_on_c, 0, 76, 0
2, 3624, Note_on_c, 0, 77, 64
2, 3648, Note_on_c, 0, 77, 0
2, 3648, Note_on_c, 0, 74, 64
2, 3672, Note_on_c, 0, 74, 0
2, 3672, Note_on_c, 0, 73, 64
2, 3696, Note_on_c, 0, 73, 0
2, 3696, Note_on_c, 0, 74, 64
2, 3720, Note_on_c, 0, 74, 0
2, 3720, Note_on_c, 0, 76, 64
2, 3744, Note_on_c, 0, 76, 0
2, 3744, Note_on_c, 0, 69, 64
2, 3840, Note_on_c, 0, 69, 0
2, 3840, Note_on_c, 0, 70, 64
2, 3864, Note_on_c, 0, 70, 0
2, 3864, Note_on_c, 0, 67, 64
2, 3888, Note_on_c, 0, 67, 0
2, 3888, Note_on_c, 0, 65, 64
2, 3912, Note_on_c, 0, 65, 0
2, 3912, Note_on_c, 0, 67, 64
2, 3936, Note_on_c, 0, 67, 0
2, 3936, Note_on_c, 0, 64, 64
2, 3960, Note_on_c, 0, 64, 0
2, 3960, Note_on_c, 0, 65, 64
2, 3984, Note_on_c, 0, 65, 0
2, 3984, Note_on_c, 0, 69, 64
2, 4008, Note_on_c, 0, 69, 0
2, 4008, Note_on_c, 0, 74, 64
2, 4032, Note_on_c, 0, 74, 0
2, 4032, Note_on_c, 0, 72, 64
2, 4056, Note_on_c, 0, 72, 0
2, 4056, Note_on_c, 0, 70, 64
2, 4080, Note_on_c, 0, 70, 0
2, 4080, Note_on_c, 0, 69, 64
2, 4104, Note_on_c, 0, 69, 0
2, 4104, Note_on_c, 0, 70, 64
2, 4128, Note_on_c, 0, 70, 0
2, 4128, Note_on_c, 0, 74, 64
2, 4152, Note_on_c, 0, 74, 0
2, 4152, Note_on_c, 0, 79, 64
2, 4176, Note_on_c, 0, 79, 0
2, 4176, Note_on_c, 0, 73, 64
2, 4200, Note_on_c, 0, 73, 0
2, 4200, Note_on_c, 0, 76, 64
2, 4224, Note_on_c, 0, 76, 0
2, 4224, Note_on_c, 0, 69, 64
2, 4248, Note_on_c, 0, 69, 0
2, 4248, Note_on_c, 0, 70, 64
2, 4272, Note_on_c, 0, 70, 0
2, 4272, Note_on_c, 0, 69, 64
2, 4296, Note_on_c, 0, 69, 0
2, 4296, Note_on_c, 0, 67, 64
2, 4320, Note_on_c, 0, 67, 0
2, 4320, Note_on_c, 0, 65, 64
2, 4344, Note_on_c, 0, 65, 0
2, 4344, Note_on_c, 0, 67, 64
2, 4368, Note_on_c, 0, 67, 0
2, 4368, Note_on_c, 0, 64, 64
2, 4392, Note_on_c, 0, 64, 0
2, 4392, Note_on_c, 0, 65, 64
2, 4440, Note_on_c, 0, 65, 0
2, 4440, Note_on_c, 0, 74, 64
2, 4464, Note_on_c, 0, 74, 0
2, 4464, Note_on_c, 0, 67, 64
2, 4512, Note_on_c, 0, 67, 0
2, 4512, Note_on_c, 0, 65, 64
2, 4536, Note_on_c, 0, 65, 0
2, 4536, Note_on_c, 0, 64, 64
2, 4560, Note_on_c, 0, 64, 0
2, 4560, Note_on_c, 0, 69, 64
2, 4584, Note_on_c, 0, 69, 0
2, 4584, Note_on_c, 0, 67, 64
2, 4608, Note_on_c, 0, 67, 0
2, 4608, Note_on_c, 0, 65, 64
2, 4632, Note_on_c, 0, 65, 0
2, 4632, Note_on_c, 0, 64, 64
2, 4656, Note_on_c, 0, 64, 0
2, 4656, Note_on_c, 0, 62, 64
2, 4680, Note_on_c, 0, 62, 0
2, 4680, Note_on_c, 0, 62, 64
2, 4696, Note_on_c, 0, 62, 0
2, 4696, Note_on_c, 0, 61, 64
2, 4712, Note_on_c, 0, 61, 0
2, 4712, Note_on_c, 0, 62, 64
2, 4728, Note_on_c, 0, 62, 0
2, 4728, Note_on_c, 0, 61, 64
2, 4744, Note_on_c, 0, 61, 0
2, 4744, Note_on_c, 0, 62, 64
2, 4752, Note_on_c, 0, 62, 0
2, 4752, Note_on_c, 0, 62, 64
2, 4800, Note_on_c, 0, 62, 0
2, 5184, Note_on_c, 0, 74, 64
2, 5256, Note_on_c, 0, 74, 0
2, 5256, Note_on_c, 0, 69, 64
2, 5280, Note_on_c, 0, 69, 0
2, 5280, Note_on_c, 0, 68, 64
2, 5304, Note_on_c, 0, 68, 0
2, 5304, Note_on_c, 0, 69, 64
2, 5328, Note_on_c, 0, 69, 0
2, 5328, Note_on_c, 0, 71, 64
2, 5352, Note_on_c, 0, 71, 0
2, 5352, Note_on_c, 0, 69, 64
2, 5376, Note_on_c, 0, 69, 0
2, 5376, Note_on_c, 0, 71, 64
2, 5400, Note_on_c, 0, 71, 0
2, 5400, Note_on_c, 0, 72, 64
2, 5424, Note_on_c, 0, 72, 0
2, 5424, Note_on_c, 0, 71, 64
2, 5448, Note_on_c, 0, 71, 0
2, 5448, Note_on_c, 0, 73, 64
2, 5472, Note_on_c, 0, 73, 0
2, 5472, Note_on_c, 0, 74, 64
2, 5496, Note_on_c, 0, 74, 0
2, 5496, Note_on_c, 0, 73, 64
2, 5520, Note_on_c, 0, 73, 0
2, 5520, Note_on_c, 0, 74, 64
2, 5544, Note_on_c, 0, 74, 0
2, 5544, Note_on_c, 0, 76, 64
2, 5568, Note_on_c, 0, 76, 0
2, 5568, Note_on_c, 0, 74, 64
2, 5592, Note_on_c, 0, 74, 0
2, 5592, Note_on_c, 0, 76, 64
2, 5616, Note_on_c, 0, 76, 0
2, 5616, Note_on_c, 0, 77, 64
2, 5664, Note_on_c, 0, 77, 0
2, 5688, Note_on_c, 0, 76, 64
2, 5736, Note_on_c, 0, 76, 0
2, 5760, Note_on_c, 0, 74, 64
2, 5808, Note_on_c, 0, 74, 0
2, 5832, Note_on_c, 0, 74, 64
2, 5856, Note_on_c, 0, 74, 0
2, 5856, Note_on_c, 0, 73, 64
2, 5952, Note_on_c, 0, 73, 0
2, 5952, Note_on_c, 0, 69, 64
2, 5976, Note_on_c, 0, 69, 0
2, 5976, Note_on_c, 0, 71, 64
2, 6024, Note_on_c, 0, 71, 0
2, 6024, Note_on_c, 0, 73, 64
2, 6048, Note_on_c, 0, 73, 0
2, 6048, Note_on_c, 0, 74, 64
2, 6072, Note_on_c, 0, 74, 0
2, 6072, Note_on_c, 0, 72, 64
2, 6096, Note_on_c, 0, 72, 0
2, 6096, Note_on_c, 0, 71, 64
2, 6120, Note_on_c, 0, 71, 0
2, 6120, Note_on_c, 0, 72, 64
2, 6168, Note_on_c, 0, 72, 0
2, 6168, Note_on_c, 0, 81, 64
2, 6192, Note_on_c, 0, 81, 0
2, 6192, Note_on_c, 0, 80, 64
2, 6240, Note_on_c, 0, 80, 0
2, 6240, Note_on_c, 0, 74, 64
2, 6264, Note_on_c, 0, 74, 0
2, 6264, Note_on_c, 0, 76, 64
2, 6312, Note_on_c, 0, 76, 0
2, 6312, Note_on_c, 0, 79, 64
2, 6336, Note_on_c, 0, 79, 0
2, 6336, Note_on_c, 0, 77, 64
2, 6360, Note_on_c, 0, 77, 0
2, 6360, Note_on_c, 0, 76, 64
2, 6384, Note_on_c, 0, 76, 0
2, 6384, Note_on_c, 0, 74, 64
2, 6408, Note_on_c, 0, 74, 0
2, 6408, Note_on_c, 0, 73, 64
2, 6456, Note_on_c, 0, 73, 0
2, 6456, Note_on_c, 0, 82, 64
2, 6480, Note_on_c, 0, 82, 0
2, 6480, Note_on_c, 0, 81, 64
2, 6504, Note_on_c, 0, 81, 0
2, 6504, Note_on_c, 0, 77, 64
2, 6528, Note_on_c, 0, 77, 0
2, 6528, Note_on_c, 0, 74, 64
2, 6552, Note_on_c, 0, 74, 0
2, 6552, Note_on_c, 0, 74, 64
2, 6576, Note_on_c, 0, 74, 0
2, 6576, Note_on_c, 0, 79, 64
2, 6600, Note_on_c, 0, 79, 0
2, 6600, Note_on_c, 0, 72, 64
2, 6624, Note_on_c, 0, 72, 0
2, 6624, Note_on_c, 0, 72, 64
2, 6648, Note_on_c, 0, 72, 0
2, 6648, Note_on_c, 0, 77, 64
2, 6672, Note_on_c, 0, 77, 0
2, 6672, Note_on_c, 0, 70, 64
2, 6696, Note_on_c, 0, 70, 0
2, 6696, Note_on_c, 0, 70, 64
2, 6720, Note_on_c, 0, 70, 0
2, 6720, Note_on_c, 0, 69, 64
2, 6744, Note_on_c, 0, 69, 0
2, 6744, Note_on_c, 0, 67, 64
2, 6768, Note_on_c, 0, 67, 0
2, 6768, Note_on_c, 0, 69, 64
2, 6792, Note_on_c, 0, 69, 0
2, 6792, Note_on_c, 0, 73, 64
2, 6816, Note_on_c, 0, 73, 0
2, 6816, Note_on_c, 0, 76, 64
2, 6840, Note_on_c, 0, 76, 0
2, 6840, Note_on_c, 0, 79, 64
2, 6864, Note_on_c, 0, 79, 0
2, 6864, Note_on_c, 0, 77, 64
2, 6888, Note_on_c, 0, 77, 0
2, 6888, Note_on_c, 0, 76, 64
2, 6912, Note_on_c, 0, 76, 0
2, 6912, Note_on_c, 0, 77, 64
2, 6936, Note_on_c, 0, 77, 0
2, 6936, Note_on_c, 0, 76, 64
2, 6960, Note_on_c, 0, 76, 0
2, 6960, Note_on_c, 0, 74, 64
2, 6984, Note_on_c, 0, 74, 0
2, 6984, Note_on_c, 0, 76, 64
2, 7008, Note_on_c, 0, 76, 0
2, 7008, Note_on_c, 0, 74, 64
2, 7032, Note_on_c, 0, 74, 0
2, 7032, Note_on_c, 0, 72, 64
2, 7056, Note_on_c, 0, 72, 0
2, 7056, Note_on_c, 0, 74, 64
2, 7080, Note_on_c, 0, 74, 0
2, 7080, Note_on_c, 0, 72, 64
2, 7104, Note_on_c, 0, 72, 0
2, 7104, Note_on_c, 0, 71, 64
2, 7128, Note_on_c, 0, 71, 0
2, 7128, Note_on_c, 0, 72, 64
2, 7152, Note_on_c, 0, 72, 0
2, 7152, Note_on_c, 0, 74, 64
2, 7176, Note_on_c, 0, 74, 0
2, 7176, Note_on_c, 0, 76, 64
2, 7200, Note_on_c, 0, 76, 0
2, 7200, Note_on_c, 0, 74, 64
2, 7224, Note_on_c, 0, 74, 0
2, 7224, Note_on_c, 0, 76, 64
2, 7248, Note_on_c, 0, 76, 0
2, 7248, Note_on_c, 0, 77, 64
2, 7272, Note_on_c, 0, 77, 0
2, 7272, Note_on_c, 0, 76, 64
2, 7296, Note_on_c, 0, 76, 0
2, 7296, Note_on_c, 0, 77, 64
2, 7320, Note_on_c, 0, 77, 0
2, 7320, Note_on_c, 0, 79, 64
2, 7344, Note_on_c, 0, 79, 0
2, 7344, Note_on_c, 0, 77, 64
2, 7368, Note_on_c, 0, 77, 0
2, 7368, Note_on_c, 0, 74, 64
2, 7392, Note_on_c, 0, 74, 0
2, 7392, Note_on_c, 0, 81, 64
2, 7416, Note_on_c, 0, 81, 0
2, 7416, Note_on_c, 0, 70, 64
2, 7440, Note_on_c, 0, 70, 0
2, 7440, Note_on_c, 0, 76, 64
2, 7464, Note_on_c, 0, 76, 0
2, 7464, Note_on_c, 0, 79, 64
2, 7488, Note_on_c, 0, 79, 0
2, 7488, Note_on_c, 0, 69, 64
2, 7512, Note_on_c, 0, 69, 0
2, 7512, Note_on_c, 0, 74, 64
2, 7536, Note_on_c, 0, 74, 0
2, 7536, Note_on_c, 0, 77, 64
2, 7560, Note_on_c, 0, 77, 0
2, 7560, Note_on_c, 0, 67, 64
2, 7584, Note_on_c, 0, 67, 0
2, 7584, Note_on_c, 0, 73, 64
2, 7608, Note_on_c, 0, 73, 0
2, 7608, Note_on_c, 0, 76, 64
2, 7632, Note_on_c, 0, 76, 0
2, 7632, Note_on_c, 0, 65, 64
2, 7656, Note_on_c, 0, 65, 0
2, 7656, Note_on_c, 0, 69, 64
2, 7680, Note_on_c, 0, 69, 0
2, 7680, Note_on_c, 0, 67, 64
2, 7704, Note_on_c, 0, 67, 0
2, 7704, Note_on_c, 0, 70, 64
2, 7728, Note_on_c, 0, 70, 0
2, 7728, Note_on_c, 0, 69, 64
2, 7752, Note_on_c, 0, 69, 0
2, 7752, Note_on_c, 0, 73, 64
2, 7776, Note_on_c, 0, 73, 0
2, 7776, Note_on_c, 0, 74, 64
2, 7800, Note_on_c, 0, 74, 0
2, 7800, Note_on_c, 0, 76, 64
2, 7824, Note_on_c, 0, 76, 0
2, 7824, Note_on_c, 0, 77, 64
2, 7848, Note_on_c, 0, 77, 0
2, 7848, Note_on_c, 0, 69, 64
2, 7864, Note_on_c, 0, 69, 0
2, 7864, Note_on_c, 0, 68, 64
2, 7880, Note_on_c, 0, 68, 0
2, 7880, Note_on_c, 0, 69, 64
2, 7896, Note_on_c, 0, 69, 0
2, 7896, Note_on_c, 0, 68, 64
2, 7912, Note_on_c, 0, 68, 0
2, 7912, Note_on_c, 0, 69, 64
2, 7928, Note_on_c, 0, 69, 0
2, 7928, Note_on_c, 0, 68, 64
2, 7944, Note_on_c, 0, 68, 0
2, 7944, Note_on_c, 0, 66, 64
2, 7960, Note_on_c, 0, 66, 0
2, 7960, Note_on_c, 0, 68, 64
2, 7976, Note_on_c, 0, 68, 0
2, 7976, Note_on_c, 0, 69, 64
2, 7992, Note_on_c, 0, 69, 0
2, 7992, Note_on_c, 0, 69, 64
2, 8040, Note_on_c, 0, 69, 0
2, 8112, Note_on_c, 0, 71, 64
2, 8136, Note_on_c, 0, 71, 0
2, 8136, Note_on_c, 0, 72, 64
2, 8184, Note_on_c, 0, 72, 0
2, 8184, Note_on_c, 0, 69, 64
2, 8208, Note_on_c, 0, 69, 0
2, 8208, Note_on_c, 0, 74, 64
2, 8256, Note_on_c, 0, 74, 0
2, 8256, Note_on_c, 0, 77, 64
2, 8280, Note_on_c, 0, 77, 0
2, 8280, Note_on_c, 0, 77, 64
2, 8304, Note_on_c, 0, 77, 0
2, 8304, Note_on_c, 0, 76, 64
2, 8328, Note_on_c, 0, 76, 0
2, 8328, Note_on_c, 0, 74, 64
2, 8352, Note_on_c, 0, 74, 0
2, 8352, Note_on_c, 0, 72, 64
2, 8376, Note_on_c, 0, 72, 0
2, 8376, Note_on_c, 0, 74, 64
2, 8400, Note_on_c, 0, 74, 0
2, 8400, Note_on_c, 0, 71, 64
2, 8424, Note_on_c, 0, 71, 0
2, 8424, Note_on_c, 0, 76, 64
2, 8496, Note_on_c, 0, 76, 0
2, 8496, Note_on_c, 0, 69, 64
2, 8568, Note_on_c, 0, 69, 0
2, 8640, Note_on_c, 0, 69, 64
2, 8712, Note_on_c, 0, 69, 0
2, 8712, Note_on_c, 0, 76, 64
2, 8736, Note_on_c, 0, 76, 0
2, 8736, Note_on_c, 0, 77, 64
2, 8760, Note_on_c, 0, 77, 0
2, 8760, Note_on_c, 0, 76, 64
2, 8784, Note_on_c, 0, 76, 0
2, 8784, Note_on_c, 0, 74, 64
2, 8808, Note_on_c, 0, 74, 0
2, 8808, Note_on_c, 0, 76, 64
2, 8832, Note_on_c, 0, 76, 0
2, 8832, Note_on_c, 0, 74, 64
2, 8856, Note_on_c, 0, 74, 0
2, 8856, Note_on_c, 0, 72, 64
2, 8880, Note_on_c, 0, 72, 0
2, 8880, Note_on_c, 0, 74, 64
2, 8904, Note_on_c, 0, 74, 0
2, 8904, Note_on_c, 0, 72, 64
2, 8928, Note_on_c, 0, 72, 0
2, 8928, Note_on_c, 0, 71, 64
2, 8952, Note_on_c, 0, 71, 0
2, 8952, Note_on_c, 0, 72, 64
2, 8976, Note_on_c, 0, 72, 0
2, 8976, Note_on_c, 0, 71, 64
2, 9000, Note_on_c, 0, 71, 0
2, 9000, Note_on_c, 0, 69, 64
2, 9024, Note_on_c, 0, 69, 0
2, 9024, Note_on_c, 0, 71, 64
2, 9048, Note_on_c, 0, 71, 0
2, 9048, Note_on_c, 0, 69, 64
2, 9072, Note_on_c, 0, 69, 0
2, 9072, Note_on_c, 0, 68, 64
2, 9120, Note_on_c, 0, 68, 0
2, 9144, Note_on_c, 0, 69, 64
2, 9192, Note_on_c, 0, 69, 0
2, 9216, Note_on_c, 0, 70, 64
2, 9264, Note_on_c, 0, 70, 0
2, 9264, Note_on_c, 0, 71, 64
2, 9288, Note_on_c, 0, 71, 0
2, 9288, Note_on_c, 0, 72, 64
2, 9384, Note_on_c, 0, 72, 0
2, 9384, Note_on_c, 0, 72, 64
2, 9408, Note_on_c, 0, 72, 0
2, 9408, Note_on_c, 0, 74, 64
2, 9432, Note_on_c, 0, 74, 0
2, 9432, Note_on_c, 0, 72, 64
2, 9480, Note_on_c, 0, 72, 0
2, 9480, Note_on_c, 0, 71, 64
2, 9504, Note_on_c, 0, 71, 0
2, 9504, Note_on_c, 0, 69, 64
2, 9528, Note_on_c, 0, 69, 0
2, 9528, Note_on_c, 0, 64, 64
2, 9552, Note_on_c, 0, 64, 0
2, 9552, Note_on_c, 0, 69, 64
2, 9576, Note_on_c, 0, 69, 0
2, 9576, Note_on_c, 0, 72, 64
2, 9600, Note_on_c, 0, 72, 0
2, 9600, Note_on_c, 0, 69, 64
2, 9624, Note_on_c, 0, 69, 0
2, 9624, Note_on_c, 0, 72, 64
2, 9648, Note_on_c, 0, 72, 0
2, 9648, Note_on_c, 0, 76, 64
2, 9696, Note_on_c, 0, 76, 0
2, 9696, Note_on_c, 0, 68, 64
2, 9720, Note_on_c, 0, 68, 0
2, 9720, Note_on_c, 0, 69, 64
2, 9768, Note_on_c, 0, 69, 0
2, 9768, Note_on_c, 0, 77, 64
2, 9792, Note_on_c, 0, 77, 0
2, 9792, Note_on_c, 0, 67, 64
2, 9840, Note_on_c, 0, 67, 0
2, 9840, Note_on_c, 0, 76, 64
2, 9864, Note_on_c, 0, 76, 0
2, 9864, Note_on_c, 0, 65, 64
2, 9912, Note_on_c, 0, 65, 0
2, 9912, Note_on_c, 0, 74, 64
2, 9936, Note_on_c, 0, 74, 0
2, 9936, Note_on_c, 0, 64, 64
2, 9960, Note_on_c, 0, 64, 0
2, 9960, Note_on_c, 0, 71, 64
2, 9984, Note_on_c, 0, 71, 0
2, 9984, Note_on_c, 0, 74, 64
2, 10008, Note_on_c, 0, 74, 0
2, 10008, Note_on_c, 0, 72, 64
2, 10032, Note_on_c, 0, 72, 0
2, 10032, Note_on_c, 0, 71, 64
2, 10056, Note_on_c, 0, 71, 0
2, 10056, Note_on_c, 0, 69, 64
2, 10080, Note_on_c, 0, 69, 0
2, 10080, Note_on_c, 0, 68, 64
2, 10104, Note_on_c, 0, 68, 0
2, 10104, Note_on_c, 0, 74, 64
2, 10128, Note_on_c, 0, 74, 0
2, 10128, Note_on_c, 0, 77, 64
2, 10152, Note_on_c, 0, 77, 0
2, 10152, Note_on_c, 0, 76, 64
2, 10176, Note_on_c, 0, 76, 0
2, 10176, Note_on_c, 0, 74, 64
2, 10200, Note_on_c, 0, 74, 0
2, 10200, Note_on_c, 0, 72, 64
2, 10224, Note_on_c, 0, 72, 0
2, 10224, Note_on_c, 0, 71, 64
2, 10248, Note_on_c, 0, 71, 0
2, 10248, Note_on_c, 0, 69, 64
2, 10272, Note_on_c, 0, 69, 0
2, 10272, Note_on_c, 0, 68, 64
2, 10296, Note_on_c, 0, 68, 0
2, 10296, Note_on_c, 0, 69, 64
2, 10320, Note_on_c, 0, 69, 0
2, 10320, Note_on_c, 0, 64, 64
2, 10344, Note_on_c, 0, 64, 0
2, 10344, Note_on_c, 0, 71, 64
2, 10368, Note_on_c, 0, 71, 0
2, 10368, Note_on_c, 0, 72, 64
2, 10392, Note_on_c, 0, 72, 0
2, 10392, Note_on_c, 0, 71, 64
2, 10416, Note_on_c, 0, 71, 0
2, 10416, Note_on_c, 0, 69, 64
2, 10440, Note_on_c, 0, 69, 0
2, 10440, Note_on_c, 0, 76, 64
2, 10536, Note_on_c, 0, 76, 0
2, 10536, Note_on_c, 0, 71, 64
2, 10560, Note_on_c, 0, 71, 0
2, 10560, Note_on_c, 0, 74, 64
2, 10584, Note_on_c, 0, 74, 0
2, 10584, Note_on_c, 0, 74, 64
2, 10608, Note_on_c, 0, 74, 0
2, 10608, Note_on_c, 0, 72, 64
2, 10632, Note_on_c, 0, 72, 0
2, 10632, Note_on_c, 0, 81, 64
2, 10656, Note_on_c, 0, 81, 0
2, 10656, Note_on_c, 0, 72, 64
2, 10680, Note_on_c, 0, 72, 0
2, 10680, Note_on_c, 0, 71, 64
2, 10704, Note_on_c, 0, 71, 0
2, 10704, Note_on_c, 0, 79, 64
2, 10728, Note_on_c, 0, 79, 0
2, 10728, Note_on_c, 0, 71, 64
2, 10752, Note_on_c, 0, 71, 0
2, 10752, Note_on_c, 0, 69, 64
2, 10776, Note_on_c, 0, 69, 0
2, 10776, Note_on_c, 0, 77, 64
2, 10800, Note_on_c, 0, 77, 0
2, 10800, Note_on_c, 0, 69, 64
2, 10824, Note_on_c, 0, 69, 0
2, 10824, Note_on_c, 0, 68, 64
2, 10848, Note_on_c, 0, 68, 0
2, 10848, Note_on_c, 0, 71, 64
2, 10872, Note_on_c, 0, 71, 0
2, 10872, Note_on_c, 0, 64, 64
2, 10920, Note_on_c, 0, 64, 0
2, 11088, Note_on_c, 0, 74, 64
2, 11184, Note_on_c, 0, 74, 0
2, 11184, Note_on_c, 0, 72, 64
2, 11208, Note_on_c, 0, 72, 0
2, 11208, Note_on_c, 0, 74, 64
2, 11232, Note_on_c, 0, 74, 0
2, 11232, Note_on_c, 0, 76, 64
2, 11256, Note_on_c, 0, 76, 0
2, 11256, Note_on_c, 0, 74, 64
2, 11280, Note_on_c, 0, 74, 0
2, 11280, Note_on_c, 0, 72, 64
2, 11304, Note_on_c, 0, 72, 0
2, 11304, Note_on_c, 0, 71, 64
2, 11328, Note_on_c, 0, 71, 0
2, 11328, Note_on_c, 0, 72, 64
2, 11352, Note_on_c, 0, 72, 0
2, 11352, Note_on_c, 0, 74, 64
2, 11376, Note_on_c, 0, 74, 0
2, 11376, Note_on_c, 0, 76, 64
2, 11400, Note_on_c, 0, 76, 0
2, 11400, Note_on_c, 0, 78, 64
2, 11424, Note_on_c, 0, 78, 0
2, 11424, Note_on_c, 0, 80, 64
2, 11448, Note_on_c, 0, 80, 0
2, 11448, Note_on_c, 0, 81, 64
2, 11472, Note_on_c, 0, 81, 0
2, 11472, Note_on_c, 0, 76, 64
2, 11496, Note_on_c, 0, 76, 0
2, 11496, Note_on_c, 0, 72, 64
2, 11520, Note_on_c, 0, 72, 0
2, 11520, Note_on_c, 0, 74, 64
2, 11544, Note_on_c, 0, 74, 0
2, 11544, Note_on_c, 0, 79, 64
2, 11568, Note_on_c, 0, 79, 0
2, 11568, Note_on_c, 0, 71, 64
2, 11592, Note_on_c, 0, 71, 0
2, 11592, Note_on_c, 0, 72, 64
2, 11616, Note_on_c, 0, 72, 0
2, 11616, Note_on_c, 0, 77, 64
2, 11640, Note_on_c, 0, 77, 0
2, 11640, Note_on_c, 0, 69, 64
2, 11664, Note_on_c, 0, 69, 0
2, 11664, Note_on_c, 0, 71, 64
2, 11688, Note_on_c, 0, 71, 0
2, 11688, Note_on_c, 0, 76, 64
2, 11712, Note_on_c, 0, 76, 0
2, 11712, Note_on_c, 0, 74, 64
2, 11736, Note_on_c, 0, 74, 0
2, 11736, Note_on_c, 0, 72, 64
2, 11760, Note_on_c, 0, 72, 0
2, 11760, Note_on_c, 0, 71, 64
2, 11784, Note_on_c, 0, 71, 0
2, 11784, Note_on_c, 0, 69, 64
2, 11808, Note_on_c, 0, 69, 0
2, 11808, Note_on_c, 0, 71, 64
2, 11832, Note_on_c, 0, 71, 0
2, 11832, Note_on_c, 0, 69, 64
2, 11856, Note_on_c, 0, 69, 0
2, 11856, Note_on_c, 0, 68, 64
2, 11880, Note_on_c, 0, 68, 0
2, 11880, Note_on_c, 0, 69, 64
2, 11904, Note_on_c, 0, 69, 0
2, 11904, Note_on_c, 0, 68, 64
2, 11928, Note_on_c, 0, 68, 0
2, 11928, Note_on_c, 0, 66, 64
2, 11952, Note_on_c, 0, 66, 0
2, 11952, Note_on_c, 0, 68, 64
2, 11976, Note_on_c, 0, 68, 0
2, 11976, Note_on_c, 0, 64, 64
2, 12000, Note_on_c, 0, 64, 0
2, 12000, Note_on_c, 0, 68, 64
2, 12024, Note_on_c, 0, 68, 0
2, 12024, Note_on_c, 0, 71, 64
2, 12048, Note_on_c, 0, 71, 0
2, 12048, Note_on_c, 0, 76, 64
2, 12072, Note_on_c, 0, 76, 0
2, 12072, Note_on_c, 0, 74, 64
2, 12096, Note_on_c, 0, 74, 0
2, 12096, Note_on_c, 0, 72, 64
2, 12120, Note_on_c, 0, 72, 0
2, 12120, Note_on_c, 0, 71, 64
2, 12144, Note_on_c, 0, 71, 0
2, 12144, Note_on_c, 0, 69, 64
2, 12168, Note_on_c, 0, 69, 0
2, 12168, Note_on_c, 0, 74, 64
2, 12264, Note_on_c, 0, 74, 0
2, 12264, Note_on_c, 0, 72, 64
2, 12288, Note_on_c, 0, 72, 0
2, 12288, Note_on_c, 0, 71, 64
2, 12312, Note_on_c, 0, 71, 0
2, 12312, Note_on_c, 0, 72, 64
2, 12360, Note_on_c, 0, 72, 0
2, 12384, Note_on_c, 0, 77, 64
2, 12432, Note_on_c, 0, 77, 0
2, 12456, Note_on_c, 0, 76, 64
2, 12504, Note_on_c, 0, 76, 0
2, 12528, Note_on_c, 0, 74, 64
2, 12576, Note_on_c, 0, 74, 0
2, 12576, Note_on_c, 0, 68, 64
2, 12600, Note_on_c, 0, 68, 0
2, 12600, Note_on_c, 0, 69, 64
2, 12648, Note_on_c, 0, 69, 0
2, 12648, Note_on_c, 0, 72, 64
2, 12672, Note_on_c, 0, 72, 0
2, 12672, Note_on_c, 0, 68, 64
2, 12688, Note_on_c, 0, 68, 0
2, 12688, Note_on_c, 0, 66, 64
2, 12704, Note_on_c, 0, 66, 0
2, 12704, Note_on_c, 0, 68, 64
2, 12720, Note_on_c, 0, 68, 0
2, 12720, Note_on_c, 0, 66, 64
2, 12736, Note_on_c, 0, 66, 0
2, 12736, Note_on_c, 0, 64, 64
2, 12744, Note_on_c, 0, 64, 0
2, 12744, Note_on_c, 0, 64, 64
2, 12792, Note_on_c, 0, 64, 0
2, 12984, Note_on_c, 0, 62, 64
2, 13008, Note_on_c, 0, 62, 0
2, 13008, Note_on_c, 0, 64, 64
2, 13032, Note_on_c, 0, 64, 0
2, 13032, Note_on_c, 0, 65, 64
2, 13056, Note_on_c, 0, 65, 0
2, 13056, Note_on_c, 0, 67, 64
2, 13080, Note_on_c, 0, 67, 0
2, 13080, Note_on_c, 0, 65, 64
2, 13104, Note_on_c, 0, 65, 0
2, 13104, Note_on_c, 0, 64, 64
2, 13176, Note_on_c, 0, 64, 0
2, 13176, Note_on_c, 0, 64, 64
2, 13200, Note_on_c, 0, 64, 0
2, 13200, Note_on_c, 0, 65, 64
2, 13224, Note_on_c, 0, 65, 0
2, 13224, Note_on_c, 0, 67, 64
2, 13248, Note_on_c, 0, 67, 0
2, 13248, Note_on_c, 0, 69, 64
2, 13272, Note_on_c, 0, 69, 0
2, 13272, Note_on_c, 0, 70, 64
2, 13296, Note_on_c, 0, 70, 0
2, 13296, Note_on_c, 0, 69, 64
2, 13320, Note_on_c, 0, 69, 0
2, 13320, Note_on_c, 0, 67, 64
2, 13344, Note_on_c, 0, 67, 0
2, 13344, Note_on_c, 0, 69, 64
2, 13368, Note_on_c, 0, 69, 0
2, 13368, Note_on_c, 0, 67, 64
2, 13392, Note_on_c, 0, 67, 0
2, 13392, Note_on_c, 0, 65, 64
2, 13416, Note_on_c, 0, 65, 0
2, 13416, Note_on_c, 0, 67, 64
2, 13440, Note_on_c, 0, 67, 0
2, 13440, Note_on_c, 0, 65, 64
2, 13464, Note_on_c, 0, 65, 0
2, 13464, Note_on_c, 0, 64, 64
2, 13488, Note_on_c, 0, 64, 0
2, 13488, Note_on_c, 0, 65, 64
2, 13512, Note_on_c, 0, 65, 0
2, 13512, Note_on_c, 0, 64, 64
2, 13536, Note_on_c, 0, 64, 0
2, 13536, Note_on_c, 0, 62, 64
2, 13560, Note_on_c, 0, 62, 0
2, 13560, Note_on_c, 0, 64, 64
2, 13584, Note_on_c, 0, 64, 0
2, 13584, Note_on_c, 0, 62, 64
2, 13608, Note_on_c, 0, 62, 0
2, 13608, Note_on_c, 0, 61, 64
2, 13656, Note_on_c, 0, 61, 0
2, 13680, Note_on_c, 0, 62, 64
2, 13728, Note_on_c, 0, 62, 0
2, 13752, Note_on_c, 0, 64, 64
2, 13800, Note_on_c, 0, 64, 0
2, 13824, Note_on_c, 0, 65, 64
2, 13920, Note_on_c, 0, 65, 0
2, 13920, Note_on_c, 0, 65, 64
2, 13944, Note_on_c, 0, 65, 0
2, 13944, Note_on_c, 0, 69, 64
2, 13968, Note_on_c, 0, 69, 0
2, 13968, Note_on_c, 0, 69, 64
2, 13984, Note_on_c, 0, 69, 0
2, 13984, Note_on_c, 0, 67, 64
2, 14000, Note_on_c, 0, 67, 0
2, 14000, Note_on_c, 0, 69, 64
2, 14016, Note_on_c, 0, 69, 0
2, 14016, Note_on_c, 0, 65, 64
2, 14040, Note_on_c, 0, 65, 0
2, 14040, Note_on_c, 0, 67, 64
2, 14064, Note_on_c, 0, 67, 0
2, 14064, Note_on_c, 0, 65, 64
2, 14088, Note_on_c, 0, 65, 0
2, 14088, Note_on_c, 0, 64, 64
2, 14112, Note_on_c, 0, 64, 0
2, 14112, Note_on_c, 0, 74, 64
2, 14128, Note_on_c, 0, 74, 0
2, 14128, Note_on_c, 0, 73, 64
2, 14144, Note_on_c, 0, 73, 0
2, 14144, Note_on_c, 0, 74, 64
2, 14160, Note_on_c, 0, 74, 0
2, 14160, Note_on_c, 0, 73, 64
2, 14176, Note_on_c, 0, 73, 0
2, 14176, Note_on_c, 0, 74, 64
2, 14192, Note_on_c, 0, 74, 0
2, 14192, Note_on_c, 0, 73, 64
2, 14208, Note_on_c, 0, 73, 0
2, 14208, Note_on_c, 0, 71, 64
2, 14224, Note_on_c, 0, 71, 0
2, 14224, Note_on_c, 0, 73, 64
2, 14240, Note_on_c, 0, 73, 0
2, 14240, Note_on_c, 0, 74, 64
2, 14256, Note_on_c, 0, 74, 0
2, 14256, Note_on_c, 0, 74, 64
2, 14280, Note_on_c, 0, 74, 0
2, 14280, Note_on_c, 0, 70, 64
2, 14304, Note_on_c, 0, 70, 0
2, 14304, Note_on_c, 0, 79, 64
2, 14328, Note_on_c, 0, 79, 0
2, 14328, Note_on_c, 0, 72, 64
2, 14352, Note_on_c, 0, 72, 0
2, 14352, Note_on_c, 0, 69, 64
2, 14376, Note_on_c, 0, 69, 0
2, 14376, Note_on_c, 0, 77, 64
2, 14400, Note_on_c, 0, 77, 0
2, 14400, Note_on_c, 0, 70, 64
2, 14424, Note_on_c, 0, 70, 0
2, 14424, Note_on_c, 0, 67, 64
2, 14448, Note_on_c, 0, 67, 0
2, 14448, Note_on_c, 0, 76, 64
2, 14472, Note_on_c, 0, 76, 0
2, 14472, Note_on_c, 0, 69, 64
2, 14496, Note_on_c, 0, 69, 0
2, 14496, Note_on_c, 0, 67, 64
2, 14520, Note_on_c, 0, 67, 0
2, 14520, Note_on_c, 0, 76, 64
2, 14544, Note_on_c, 0, 76, 0
2, 14544, Note_on_c, 0, 69, 64
2, 14568, Note_on_c, 0, 69, 0
2, 14568, Note_on_c, 0, 65, 64
2, 14592, Note_on_c, 0, 65, 0
2, 14592, Note_on_c, 0, 74, 64
2, 14616, Note_on_c, 0, 74, 0
2, 14616, Note_on_c, 0, 67, 64
2, 14640, Note_on_c, 0, 67, 0
2, 14640, Note_on_c, 0, 64, 64
2, 14664, Note_on_c, 0, 64, 0
2, 14664, Note_on_c, 0, 73, 64
2, 14688, Note_on_c, 0, 73, 0
2, 14688, Note_on_c, 0, 74, 64
2, 14712, Note_on_c, 0, 74, 0
2, 14712, Note_on_c, 0, 69, 64
2, 14736, Note_on_c, 0, 69, 0
2, 14736, Note_on_c, 0, 65, 64
2, 14760, Note_on_c, 0, 65, 0
2, 14760, Note_on_c, 0, 62, 64
2, 14784, Note_on_c, 0, 62, 0
2, 14784, Note_on_c, 0, 64, 64
2, 14808, Note_on_c, 0, 64, 0
2, 14808, Note_on_c, 0, 65, 64
2, 14832, Note_on_c, 0, 65, 0
2, 14832, Note_on_c, 0, 64, 64
2, 14856, Note_on_c, 0, 64, 0
2, 14856, Note_on_c, 0, 65, 64
2, 14880, Note_on_c, 0, 65, 0
2, 14880, Note_on_c, 0, 62, 64
2, 14904, Note_on_c, 0, 62, 0
2, 14904, Note_on_c, 0, 64, 64
2, 15000, Note_on_c, 0, 64, 0
2, 15000, Note_on_c, 0, 65, 64
2, 15024, Note_on_c, 0, 65, 0
2, 15024, Note_on_c, 0, 67, 64
2, 15048, Note_on_c, 0, 67, 0
2, 15048, Note_on_c, 0, 65, 64
2, 15072, Note_on_c, 0, 65, 0
2, 15072, Note_on_c, 0, 67, 64
2, 15096, Note_on_c, 0, 67, 0
2, 15096, Note_on_c, 0, 64, 64
2, 15120, Note_on_c, 0, 64, 0
2, 15120, Note_on_c, 0, 65, 64
2, 15168, Note_on_c, 0, 65, 0
2, 15192, Note_on_c, 0, 64, 64
2, 15240, Note_on_c, 0, 64, 0
2, 15264, Note_on_c, 0, 62, 64
2, 15312, Note_on_c, 0, 62, 0
2, 15336, Note_on_c, 0, 61, 64
2, 15384, Note_on_c, 0, 61, 0
2, 15408, Note_on_c, 0, 62, 64
2, 15456, Note_on_c, 0, 62, 0
2, 15480, Note_on_c, 0, 64, 64
2, 15528, Note_on_c, 0, 64, 0
2, 15552, Note_on_c, 0, 65, 64
2, 15576, Note_on_c, 0, 65, 0
2, 15576, Note_on_c, 0, 64, 64
2, 15600, Note_on_c, 0, 64, 0
2, 15600, Note_on_c, 0, 62, 64
2, 15624, Note_on_c, 0, 62, 0
2, 15624, Note_on_c, 0, 70, 64
2, 15648, Note_on_c, 0, 70, 0
2, 15648, Note_on_c, 0, 69, 64
2, 15672, Note_on_c, 0, 69, 0
2, 15672, Note_on_c, 0, 67, 64
2, 15696, Note_on_c, 0, 67, 0
2, 15696, Note_on_c, 0, 73, 64
2, 15744, Note_on_c, 0, 73, 0
2, 15792, Note_on_c, 0, 67, 64
2, 15816, Note_on_c, 0, 67, 0
2, 15816, Note_on_c, 0, 62, 64
2, 15840, Note_on_c, 0, 62, 0
2, 15840, Note_on_c, 0, 61, 64
2, 15864, Note_on_c, 0, 61, 0
2, 15864, Note_on_c, 0, 62, 64
2, 15888, Note_on_c, 0, 62, 0
2, 15888, Note_on_c, 0, 64, 64
2, 15912, Note_on_c, 0, 64, 0
2, 15912, Note_on_c, 0, 57, 64
2, 15936, Note_on_c, 0, 57, 0
2, 15936, Note_on_c, 0, 59, 64
2, 15960, Note_on_c, 0, 59, 0
2, 15960, Note_on_c, 0, 61, 64
2, 15984, Note_on_c, 0, 61, 0
2, 15984, Note_on_c, 0, 62, 64
2, 16008, Note_on_c, 0, 62, 0
2, 16008, Note_on_c, 0, 55, 64
2, 16032, Note_on_c, 0, 55, 0
2, 16032, Note_on_c, 0, 58, 64
2, 16056, Note_on_c, 0, 58, 0
2, 16056, Note_on_c, 0, 60, 64
2, 16080, Note_on_c, 0, 60, 0
2, 16080, Note_on_c, 0, 53, 64
2, 16104, Note_on_c, 0, 53, 0
2, 16104, Note_on_c, 0, 57, 64
2, 16128, Note_on_c, 0, 57, 0
2, 16128, Note_on_c, 0, 58, 64
2, 16152, Note_on_c, 0, 58, 0
2, 16152, Note_on_c, 0, 52, 64
2, 16176, Note_on_c, 0, 52, 0
2, 16176, Note_on_c, 0, 55, 64
2, 16200, Note_on_c, 0, 55, 0
2, 16200, Note_on_c, 0, 57, 64
2, 16224, Note_on_c, 0, 57, 0
2, 16224, Note_on_c, 0, 69, 64
2, 16248, Note_on_c, 0, 69, 0
2, 16248, Note_on_c, 0, 67, 64
2, 16272, Note_on_c, 0, 67, 0
2, 16272, Note_on_c, 0, 65, 64
2, 16296, Note_on_c, 0, 65, 0
2, 16296, Note_on_c, 0, 74, 64
2, 16320, Note_on_c, 0, 74, 0
2, 16320, Note_on_c, 0, 72, 64
2, 16344, Note_on_c, 0, 72, 0
2, 16344, Note_on_c, 0, 70, 64
2, 16368, Note_on_c, 0, 70, 0
2, 16368, Note_on_c, 0, 69, 64
2, 16392, Note_on_c, 0, 69, 0
2, 16392, Note_on_c, 0, 70, 64
2, 16416, Note_on_c, 0, 70, 0
2, 16416, Note_on_c, 0, 69, 64
2, 16488, Note_on_c, 0, 69, 0
2, 16488, Note_on_c, 0, 62, 64
2, 16512, Note_on_c, 0, 62, 0
2, 16512, Note_on_c, 0, 61, 64
2, 16536, Note_on_c, 0, 61, 0
2, 16536, Note_on_c, 0, 62, 64
2, 16560, Note_on_c, 0, 62, 0
2, 16560, Note_on_c, 0, 64, 64
2, 16584, Note_on_c, 0, 64, 0
2, 16584, Note_on_c, 0, 62, 64
2, 16608, Note_on_c, 0, 62, 0
2, 16608, Note_on_c, 0, 64, 64
2, 16632, Note_on_c, 0, 64, 0
2, 16632, Note_on_c, 0, 65, 64
2, 16656, Note_on_c, 0, 65, 0
2, 16656, Note_on_c, 0, 64, 64
2, 16680, Note_on_c, 0, 64, 0
2, 16680, Note_on_c, 0, 65, 64
2, 16704, Note_on_c, 0, 65, 0
2, 16704, Note_on_c, 0, 67, 64
2, 16728, Note_on_c, 0, 67, 0
2, 16728, Note_on_c, 0, 65, 64
2, 16752, Note_on_c, 0, 65, 0
2, 16752, Note_on_c, 0, 67, 64
2, 16776, Note_on_c, 0, 67, 0
2, 16776, Note_on_c, 0, 69, 64
2, 16800, Note_on_c, 0, 69, 0
2, 16800, Note_on_c, 0, 67, 64
2, 16824, Note_on_c, 0, 67, 0
2, 16824, Note_on_c, 0, 69, 64
2, 16848, Note_on_c, 0, 69, 0
2, 16848, Note_on_c, 0, 70, 64
2, 16896, Note_on_c, 0, 70, 0
2, 16920, Note_on_c, 0, 69, 64
2, 16968, Note_on_c, 0, 69, 0
2, 16992, Note_on_c, 0, 67, 64
2, 17040, Note_on_c, 0, 67, 0
2, 17064, Note_on_c, 0, 67, 64
2, 17088, Note_on_c, 0, 67, 0
2, 17088, Note_on_c, 0, 65, 64
2, 17184, Note_on_c, 0, 65, 0
2, 17184, Note_on_c, 0, 64, 64
2, 17208, Note_on_c, 0, 64, 0
2, 17208, Note_on_c, 0, 65, 64
2, 17256, Note_on_c, 0, 65, 0
2, 17256, Note_on_c, 0, 67, 64
2, 17280, Note_on_c, 0, 67, 0
2, 17280, Note_on_c, 0, 69, 64
2, 17328, Note_on_c, 0, 69, 0
2, 17328, Note_on_c, 0, 79, 64
2, 17352, Note_on_c, 0, 79, 0
2, 17352, Note_on_c, 0, 77, 64
2, 17400, Note_on_c, 0, 77, 0
2, 17400, Note_on_c, 0, 69, 64
2, 17424, Note_on_c, 0, 69, 0
2, 17424, Note_on_c, 0, 67, 64
2, 17472, Note_on_c, 0, 67, 0
2, 17472, Note_on_c, 0, 76, 64
2, 17496, Note_on_c, 0, 76, 0
2, 17496, Note_on_c, 0, 74, 64
2, 17544, Note_on_c, 0, 74, 0
2, 17544, Note_on_c, 0, 65, 64
2, 17568, Note_on_c, 0, 65, 0
2, 17568, Note_on_c, 0, 64, 64
2, 17616, Note_on_c, 0, 64, 0
2, 17616, Note_on_c, 0, 74, 64
2, 17640, Note_on_c, 0, 74, 0
2, 17640, Note_on_c, 0, 73, 64
2, 17688, Note_on_c, 0, 73, 0
2, 17688, Note_on_c, 0, 64, 64
2, 17712, Note_on_c, 0, 64, 0
2, 17712, Note_on_c, 0, 64, 64
2, 17736, Note_on_c, 0, 64, 0
2, 17736, Note_on_c, 0, 62, 64
2, 17760, Note_on_c, 0, 62, 0
2, 17760, Note_on_c, 0, 61, 64
2, 17784, Note_on_c, 0, 61, 0
2, 17784, Note_on_c, 0, 62, 64
2, 17808, Note_on_c, 0, 62, 0
2, 17808, Note_on_c, 0, 64, 64
2, 17832, Note_on_c, 0, 64, 0
2, 17832, Note_on_c, 0, 65, 64
2, 17856, Note_on_c, 0, 65, 0
2, 17856, Note_on_c, 0, 67, 64
2, 17880, Note_on_c, 0, 67, 0
2, 17880, Note_on_c, 0, 69, 64
2, 17904, Note_on_c, 0, 69, 0
2, 17904, Note_on_c, 0, 70, 64
2, 17928, Note_on_c, 0, 70, 0
2, 17928, Note_on_c, 0, 70, 64
2, 17952, Note_on_c, 0, 70, 0
2, 17952, Note_on_c, 0, 69, 64
2, 17976, Note_on_c, 0, 69, 0
2, 17976, Note_on_c, 0, 67, 64
2, 18000, Note_on_c, 0, 67, 0
2, 18000, Note_on_c, 0, 69, 64
2, 18024, Note_on_c, 0, 69, 0
2, 18024, Note_on_c, 0, 71, 64
2, 18048, Note_on_c, 0, 71, 0
2, 18048, Note_on_c, 0, 73, 64
2, 18072, Note_on_c, 0, 73, 0
2, 18072, Note_on_c, 0, 74, 64
2, 18096, Note_on_c, 0, 74, 0
2, 18096, Note_on_c, 0, 76, 64
2, 18120, Note_on_c, 0, 76, 0
2, 18120, Note_on_c, 0, 77, 64
2, 18144, Note_on_c, 0, 77, 0
2, 18144, Note_on_c, 0, 77, 64
2, 18168, Note_on_c, 0, 77, 0
2, 18168, Note_on_c, 0, 74, 64
2, 18192, Note_on_c, 0, 74, 0
2, 18192, Note_on_c, 0, 76, 64
2, 18216, Note_on_c, 0, 76, 0
2, 18216, Note_on_c, 0, 76, 64
2, 18240, Note_on_c, 0, 76, 0
2, 18240, Note_on_c, 0, 73, 64
2, 18264, Note_on_c, 0, 73, 0
2, 18264, Note_on_c, 0, 74, 64
2, 18288, Note_on_c, 0, 74, 0
2, 18288, Note_on_c, 0, 74, 64
2, 18312, Note_on_c, 0, 74, 0
2, 18312, Note_on_c, 0, 71, 64
2, 18336, Note_on_c, 0, 71, 0
2, 18336, Note_on_c, 0, 72, 64
2, 18360, Note_on_c, 0, 72, 0
2, 18360, Note_on_c, 0, 72, 64
2, 18384, Note_on_c, 0, 72, 0
2, 18384, Note_on_c, 0, 69, 64
2, 18408, Note_on_c, 0, 69, 0
2, 18408, Note_on_c, 0, 70, 64
2, 18432, Note_on_c, 0, 70, 0
2, 18432, Note_on_c, 0, 70, 64
2, 18456, Note_on_c, 0, 70, 0
2, 18456, Note_on_c, 0, 67, 64
2, 18480, Note_on_c, 0, 67, 0
2, 18480, Note_on_c, 0, 69, 64
2, 18504, Note_on_c, 0, 69, 0
2, 18504, Note_on_c, 0, 69, 64
2, 18528, Note_on_c, 0, 69, 0
2, 18528, Note_on_c, 0, 65, 64
2, 18552, Note_on_c, 0, 65, 0
2, 18552, Note_on_c, 0, 67, 64
2, 18576, Note_on_c, 0, 67, 0
2, 18576, Note_on_c, 0, 65, 64
2, 18672, Note_on_c, 0, 65, 0
2, 18672, Note_on_c, 0, 67, 64
2, 18696, Note_on_c, 0, 67, 0
2, 18696, Note_on_c, 0, 69, 64
2, 18720, Note_on_c, 0, 69, 0
2, 18720, Note_on_c, 0, 70, 64
2, 18744, Note_on_c, 0, 70, 0
2, 18744, Note_on_c, 0, 69, 64
2, 18768, Note_on_c, 0, 69, 0
2, 18768, Note_on_c, 0, 67, 64
2, 18792, Note_on_c, 0, 67, 0
2, 18792, Note_on_c, 0, 74, 64
2, 18816, Note_on_c, 0, 74, 0
2, 18816, Note_on_c, 0, 73, 64
2, 18888, Note_on_c, 0, 73, 0
2, 18888, Note_on_c, 0, 74, 64
2, 18912, Note_on_c, 0, 74, 0
2, 18912, Note_on_c, 0, 76, 64
2, 18936, Note_on_c, 0, 76, 0
2, 18936, Note_on_c, 0, 77, 64
2, 18960, Note_on_c, 0, 77, 0
2, 18960, Note_on_c, 0, 76, 64
2, 18984, Note_on_c, 0, 76, 0
2, 18984, Note_on_c, 0, 74, 64
2, 19008, Note_on_c, 0, 74, 0
2, 19008, Note_on_c, 0, 81, 64
2, 19024, Note_on_c, 0, 81, 0
2, 19024, Note_on_c, 0, 80, 64
2, 19040, Note_on_c, 0, 80, 0
2, 19040, Note_on_c, 0, 81, 64
2, 19056, Note_on_c, 0, 81, 0
2, 19056, Note_on_c, 0, 80, 64
2, 19072, Note_on_c, 0, 80, 0
2, 19072, Note_on_c, 0, 81, 64
2, 19088, Note_on_c, 0, 81, 0
2, 19088, Note_on_c, 0, 80, 64
2, 19104, Note_on_c, 0, 80, 0
2, 19104, Note_on_c, 0, 81, 64
2, 19120, Note_on_c, 0, 81, 0
2, 19120, Note_on_c, 0, 80, 64
2, 19136, Note_on_c, 0, 80, 0
2, 19136, Note_on_c, 0, 81, 64
2, 19152, Note_on_c, 0, 81, 0
2, 19152, Note_on_c, 0, 80, 64
2, 19168, Note_on_c, 0, 80, 0
2, 19168, Note_on_c, 0, 81, 64
2, 19184, Note_on_c, 0, 81, 0
2, 19184, Note_on_c, 0, 80, 64
2, 19200, Note_on_c, 0, 80, 0
2, 19200, Note_on_c, 0, 78, 64
2, 19216, Note_on_c, 0, 78, 0
2, 19216, Note_on_c, 0, 80, 64
2, 19224, Note_on_c, 0, 80, 0
2, 19224, Note_on_c, 0, 81, 64
2, 19272, Note_on_c, 0, 81, 0
2, 19344, Note_on_c, 0, 73, 64
2, 19368, Note_on_c, 0, 73, 0
2, 19368, Note_on_c, 0, 74, 64
2, 19416, Note_on_c, 0, 74, 0
2, 19416, Note_on_c, 0, 76, 64
2, 19440, Note_on_c, 0, 76, 0
2, 19440, Note_on_c, 0, 69, 64
2, 19464, Note_on_c, 0, 69, 0
2, 19464, Note_on_c, 0, 71, 64
2, 19488, Note_on_c, 0, 71, 0
2, 19488, Note_on_c, 0, 73, 64
2, 19512, Note_on_c, 0, 73, 0
2, 19512, Note_on_c, 0, 74, 64
2, 19536, Note_on_c, 0, 74, 0
2, 19536, Note_on_c, 0, 76, 64
2, 19560, Note_on_c, 0, 76, 0
2, 19560, Note_on_c, 0, 77, 64
2, 19584, Note_on_c, 0, 77, 0
2, 19584, Note_on_c, 0, 67, 64
2, 19656, Note_on_c, 0, 67, 0
2, 19656, Note_on_c, 0, 67, 64
2, 19680, Note_on_c, 0, 67, 0
2, 19680, Note_on_c, 0, 79, 64
2, 19704, Note_on_c, 0, 79, 0
2, 19704, Note_on_c, 0, 77, 64
2, 19728, Note_on_c, 0, 77, 0
2, 19728, Note_on_c, 0, 76, 64
2, 19752, Note_on_c, 0, 76, 0
2, 19752, Note_on_c, 0, 74, 64
2, 19776, Note_on_c, 0, 74, 0
2, 19776, Note_on_c, 0, 73, 64
2, 19800, Note_on_c, 0, 73, 0
2, 19800, Note_on_c, 0, 74, 64
2, 19872, Note_on_c, 0, 74, 0
2, 19872, Note_on_c, 0, 74, 64
2, 19896, Note_on_c, 0, 74, 0
2, 19896, Note_on_c, 0, 71, 64
2, 19920, Note_on_c, 0, 71, 0
2, 19920, Note_on_c, 0, 73, 64
2, 19944, Note_on_c, 0, 73, 0
2, 19944, Note_on_c, 0, 74, 64
2, 19968, Note_on_c, 0, 74, 0
2, 19968, Note_on_c, 0, 76, 64
2, 19992, Note_on_c, 0, 76, 0
2, 19992, Note_on_c, 0, 77, 64
2, 20016, Note_on_c, 0, 77, 0
2, 20016, Note_on_c, 0, 76, 64
2, 20040, Note_on_c, 0, 76, 0
2, 20040, Note_on_c, 0, 77, 64
2, 20064, Note_on_c, 0, 77, 0
2, 20064, Note_on_c, 0, 74, 64
2, 20088, Note_on_c, 0, 74, 0
2, 20088, Note_on_c, 0, 73, 64
2, 20112, Note_on_c, 0, 73, 0
2, 20112, Note_on_c, 0, 74, 64
2, 20136, Note_on_c, 0, 74, 0
2, 20136, Note_on_c, 0, 76, 64
2, 20160, Note_on_c, 0, 76, 0
2, 20160, Note_on_c, 0, 69, 64
2, 20256, Note_on_c, 0, 69, 0
2, 20256, Note_on_c, 0, 70, 64
2, 20280, Note_on_c, 0, 70, 0
2, 20280, Note_on_c, 0, 67, 64
2, 20304, Note_on_c, 0, 67, 0
2, 20304, Note_on_c, 0, 65, 64
2, 20328, Note_on_c, 0, 65, 0
2, 20328, Note_on_c, 0, 67, 64
2, 20352, Note_on_c, 0, 67, 0
2, 20352, Note_on_c, 0, 64, 64
2, 20376, Note_on_c, 0, 64, 0
2, 20376, Note_on_c, 0, 65, 64
2, 20400, Note_on_c, 0, 65, 0
2, 20400, Note_on_c, 0, 69, 64
2, 20424, Note_on_c, 0, 69, 0
2, 20424, Note_on_c, 0, 74, 64
2, 20448, Note_on_c, 0, 74, 0
2, 20448, Note_on_c, 0, 72, 64
2, 20472, Note_on_c, 0, 72, 0
2, 20472, Note_on_c, 0, 70, 64
2, 20496, Note_on_c, 0, 70, 0
2, 20496, Note_on_c, 0, 69, 64
2, 20520, Note_on_c, 0, 69, 0
2, 20520, Note_on_c, 0, 70, 64
2, 20544, Note_on_c, 0, 70, 0
2, 20544, Note_on_c, 0, 74, 64
2, 20568, Note_on_c, 0, 74, 0
2, 20568, Note_on_c, 0, 79, 64
2, 20592, Note_on_c, 0, 79, 0
2, 20592, Note_on_c, 0, 73, 64
2, 20616, Note_on_c, 0, 73, 0
2, 20616, Note_on_c, 0, 76, 64
2, 20640, Note_on_c, 0, 76, 0
2, 20640, Note_on_c, 0, 69, 64
2, 20664, Note_on_c, 0, 69, 0
2, 20664, Note_on_c, 0, 70, 64
2, 20688, Note_on_c, 0, 70, 0
2, 20688, Note_on_c, 0, 69, 64
2, 20712, Note_on_c, 0, 69, 0
2, 20712, Note_on_c, 0, 67, 64
2, 20736, Note_on_c, 0, 67, 0
2, 20736, Note_on_c, 0, 65, 64
2, 20760, Note_on_c, 0, 65, 0
2, 20760, Note_on_c, 0, 67, 64
2, 20784, Note_on_c, 0, 67, 0
2, 20784, Note_on_c, 0, 64, 64
2, 20808, Note_on_c, 0, 64, 0
2, 20808, Note_on_c, 0, 65, 64
2, 20856, Note_on_c, 0, 65, 0
2, 20856, Note_on_c, 0, 74, 64
2, 20880, Note_on_c, 0, 74, 0
2, 20880, Note_on_c, 0, 67, 64
2, 20928, Note_on_c, 0, 67, 0
2, 20928, Note_on_c, 0, 65, 64
2, 20952, Note_on_c, 0, 65, 0
2, 20952, Note_on_c, 0, 64, 64
2, 20976, Note_on_c, 0, 64, 0
2, 20976, Note_on_c, 0, 69, 64
2, 21000, Note_on_c, 0, 69, 0
2, 21000, Note_on_c, 0, 67, 64
2, 21024, Note_on_c, 0, 67, 0
2, 21024, Note_on_c, 0, 65, 64
2, 21048, Note_on_c, 0, 65, 0
2, 21048, Note_on_c, 0, 64, 64
2, 21072, Note_on_c, 0, 64, 0
2, 21072, Note_on_c, 0, 62, 64
2, 21096, Note_on_c, 0, 62, 0
2, 21096, Note_on_c, 0, 62, 64
2, 21112, Note_on_c, 0, 62, 0
2, 21112, Note_on_c, 0, 61, 64
2, 21128, Note_on_c, 0, 61, 0
2, 21128, Note_on_c, 0, 62, 64
2, 21144, Note_on_c, 0, 62, 0
2, 21144, Note_on_c, 0, 61, 64
2, 21160, Note_on_c, 0, 61, 0
2, 21160, Note_on_c, 0, 62, 64
2, 21168, Note_on_c, 0, 62, 0
2, 21168, Note_on_c, 0, 62, 64
2, 21216, Note_on_c, 0, 62, 0
2, 21288, Note_on_c, 0, 70, 64
2, 21312, Note_on_c, 0, 70, 0
2, 21312, Note_on_c, 0, 69, 64
2, 21360, Note_on_c, 0, 69, 0
2, 21360, Note_on_c, 0, 77, 64
2, 21384, Note_on_c, 0, 77, 0
2, 21384, Note_on_c, 0, 67, 64
2, 21408, Note_on_c, 0, 67, 0
2, 21408, Note_on_c, 0, 69, 64
2, 21432, Note_on_c, 0, 69, 0
2, 21432, Note_on_c, 0, 70, 64
2, 21456, Note_on_c, 0, 70, 0
2, 21456, Note_on_c, 0, 69, 64
2, 21480, Note_on_c, 0, 69, 0
2, 21480, Note_on_c, 0, 73, 64
2, 21504, Note_on_c, 0, 73, 0
2, 21504, Note_on_c, 0, 76, 64
2, 21528, Note_on_c, 0, 76, 0
2, 21528, Note_on_c, 0, 79, 64
2, 21552, Note_on_c, 0, 79, 0
2, 21552, Note_on_c, 0, 77, 64
2, 21576, Note_on_c, 0, 77, 0
2, 21576, Note_on_c, 0, 76, 64
2, 21600, Note_on_c, 0, 76, 0
2, 21600, Note_on_c, 0, 81, 64
2, 21648, Note_on_c, 0, 81, 0
2, 21648, Note_on_c, 0, 73, 64
2, 21672, Note_on_c, 0, 73, 0
2, 21672, Note_on_c, 0, 74, 64
2, 21696, Note_on_c, 0, 74, 0
2, 21696, Note_on_c, 0, 76, 64
2, 21720, Note_on_c, 0, 76, 0
2, 21720, Note_on_c, 0, 77, 64
2, 21744, Note_on_c, 0, 77, 0
2, 21744, Note_on_c, 0, 70, 64
2, 21768, Note_on_c, 0, 70, 0
2, 21768, Note_on_c, 0, 75, 64
2, 21792, Note_on_c, 0, 75, 0
2, 21792, Note_on_c, 0, 74, 64
2, 21816, Note_on_c, 0, 74, 0
2, 21816, Note_on_c, 0, 73, 64
2, 21840, Note_on_c, 0, 73, 0
2, 21840, Note_on_c, 0, 74, 64
2, 21864, Note_on_c, 0, 74, 0
2, 21864, Note_on_c, 0, 76, 64
2, 21888, Note_on_c, 0, 76, 0
2, 21888, Note_on_c, 0, 69, 64
2, 21936, Note_on_c, 0, 69, 0
2, 21960, Note_on_c, 0, 45, 64
2, 22008, Note_on_c, 0, 45, 0
2, 22032, Note_on_c, 0, 38, 64
2, 22176, Note_on_c, 0, 38, 0
2, 22248, End_track
3, 0, Start_track
3, 0, Program_c, 0, 0
3, 864, Note_on_c, 0, 57, 64
3, 936, Note_on_c, 0, 57, 0
3, 936, Note_on_c, 0, 50, 64
3, 960, Note_on_c, 0, 50, 0
3, 960, Note_on_c, 0, 49, 64
3, 984, Note_on_c, 0, 49, 0
3, 984, Note_on_c, 0, 50, 64
3, 1008, Note_on_c, 0, 50, 0
3, 1008, Note_on_c, 0, 52, 64
3, 1032, Note_on_c, 0, 52, 0
3, 1032, Note_on_c, 0, 50, 64
3, 1056, Note_on_c, 0, 50, 0
3, 1056, Note_on_c, 0, 52, 64
3, 1080, Note_on_c, 0, 52, 0
3, 1080, Note_on_c, 0, 53, 64
3, 1104, Note_on_c, 0, 53, 0
3, 1104, Note_on_c, 0, 52, 64
3, 1128, Note_on_c, 0, 52, 0
3, 1128, Note_on_c, 0, 53, 64
3, 1152, Note_on_c, 0, 53, 0
3, 1152, Note_on_c, 0, 55, 64
3, 1176, Note_on_c, 0, 55, 0
3, 1176, Note_on_c, 0, 53, 64
3, 1200, Note_on_c, 0, 53, 0
3, 1200, Note_on_c, 0, 55, 64
3, 1224, Note_on_c, 0, 55, 0
3, 1224, Note_on_c, 0, 57, 64
3, 1248, Note_on_c, 0, 57, 0
3, 1248, Note_on_c, 0, 55, 64
3, 1272, Note_on_c, 0, 55, 0
3, 1272, Note_on_c, 0, 57, 64
3, 1296, Note_on_c, 0, 57, 0
3, 1296, Note_on_c, 0, 58, 64
3, 1344, Note_on_c, 0, 58, 0
3, 1368, Note_on_c, 0, 57, 64
3, 1416, Note_on_c, 0, 57, 0
3, 1440, Note_on_c, 0, 55, 64
3, 1488, Note_on_c, 0, 55, 0
3, 1512, Note_on_c, 0, 55, 64
3, 1536, Note_on_c, 0, 55, 0
3, 1536, Note_on_c, 0, 53, 64
3, 1632, Note_on_c, 0, 53, 0
3, 1632, Note_on_c, 0, 52, 64
3, 1656, Note_on_c, 0, 52, 0
3, 1656, Note_on_c, 0, 53, 64
3, 1704, Note_on_c, 0, 53, 0
3, 1704, Note_on_c, 0, 55, 64
3, 1728, Note_on_c, 0, 55, 0
3, 1728, Note_on_c, 0, 57, 64
3, 1776, Note_on_c, 0, 57, 0
3, 1776, Note_on_c, 0, 67, 64
3, 1800, Note_on_c, 0, 67, 0
3, 1800, Note_on_c, 0, 65, 64
3, 1848, Note_on_c, 0, 65, 0
3, 1848, Note_on_c, 0, 57, 64
3, 1872, Note_on_c, 0, 57, 0
3, 1872, Note_on_c, 0, 55, 64
3, 1920, Note_on_c, 0, 55, 0
3, 1920, Note_on_c, 0, 64, 64
3, 1944, Note_on_c, 0, 64, 0
3, 1944, Note_on_c, 0, 62, 64
3, 1992, Note_on_c, 0, 62, 0
3, 1992, Note_on_c, 0, 53, 64
3, 2016, Note_on_c, 0, 53, 0
3, 2016, Note_on_c, 0, 52, 64
3, 2064, Note_on_c, 0, 52, 0
3, 2064, Note_on_c, 0, 62, 64
3, 2088, Note_on_c, 0, 62, 0
3, 2088, Note_on_c, 0, 61, 64
3, 2136, Note_on_c, 0, 61, 0
3, 2136, Note_on_c, 0, 52, 64
3, 2160, Note_on_c, 0, 52, 0
3, 2160, Note_on_c, 0, 52, 64
3, 2184, Note_on_c, 0, 52, 0
3, 2184, Note_on_c, 0, 50, 64
3, 2208, Note_on_c, 0, 50, 0
3, 2208, Note_on_c, 0, 49, 64
3, 2232, Note_on_c, 0, 49, 0
3, 2232, Note_on_c, 0, 50, 64
3, 2256, Note_on_c, 0, 50, 0
3, 2256, Note_on_c, 0, 52, 64
3, 2280, Note_on_c, 0, 52, 0
3, 2280, Note_on_c, 0, 53, 64
3, 2304, Note_on_c, 0, 53, 0
3, 2304, Note_on_c, 0, 55, 64
3, 2328, Note_on_c, 0, 55, 0
3, 2328, Note_on_c, 0, 57, 64
3, 2352, Note_on_c, 0, 57, 0
3, 2352, Note_on_c, 0, 58, 64
3, 2376, Note_on_c, 0, 58, 0
3, 2376, Note_on_c, 0, 58, 64
3, 2400, Note_on_c, 0, 58, 0
3, 2400, Note_on_c, 0, 57, 64
3, 2424, Note_on_c, 0, 57, 0
3, 2424, Note_on_c, 0, 55, 64
3, 2448, Note_on_c, 0, 55, 0
3, 2448, Note_on_c, 0, 57, 64
3, 2472, Note_on_c, 0, 57, 0
3, 2472, Note_on_c, 0, 59, 64
3, 2496, Note_on_c, 0, 59, 0
3, 2496, Note_on_c, 0, 61, 64
3, 2520, Note_on_c, 0, 61, 0
3, 2520, Note_on_c, 0, 62, 64
3, 2544, Note_on_c, 0, 62, 0
3, 2544, Note_on_c, 0, 64, 64
3, 2568, Note_on_c, 0, 64, 0
3, 2568, Note_on_c, 0, 65, 64
3, 2592, Note_on_c, 0, 65, 0
3, 2592, Note_on_c, 0, 65, 64
3, 2616, Note_on_c, 0, 65, 0
3, 2616, Note_on_c, 0, 62, 64
3, 2640, Note_on_c, 0, 62, 0
3, 2640, Note_on_c, 0, 64, 64
3, 2664, Note_on_c, 0, 64, 0
3, 2664, Note_on_c, 0, 64, 64
3, 2688, Note_on_c, 0, 64, 0
3, 2688, Note_on_c, 0, 61, 64
3, 2712, Note_on_c, 0, 61, 0
3, 2712, Note_on_c, 0, 62, 64
3, 2736, Note_on_c, 0, 62, 0
3, 2736, Note_on_c, 0, 62, 64
3, 2760, Note_on_c, 0, 62, 0
3, 2760, Note_on_c, 0, 59, 64
3, 2784, Note_on_c, 0, 59, 0
3, 2784, Note_on_c, 0, 60, 64
3, 2808, Note_on_c, 0, 60, 0
3, 2808, Note_on_c, 0, 60, 64
3, 2832, Note_on_c, 0, 60, 0
3, 2832, Note_on_c, 0, 57, 64
3, 2856, Note_on_c, 0, 57, 0
3, 2856, Note_on_c, 0, 58, 64
3, 2880, Note_on_c, 0, 58, 0
3, 2880, Note_on_c, 0, 58, 64
3, 2904, Note_on_c, 0, 58, 0
3, 2904, Note_on_c, 0, 55, 64
3, 2928, Note_on_c, 0, 55, 0
3, 2928, Note_on_c, 0, 57, 64
3, 2952, Note_on_c, 0, 57, 0
3, 2952, Note_on_c, 0, 57, 64
3, 2976, Note_on_c, 0, 57, 0
3, 2976, Note_on_c, 0, 53, 64
3, 3000, Note_on_c, 0, 53, 0
3, 3000, Note_on_c, 0, 55, 64
3, 3024, Note_on_c, 0, 55, 0
3, 3024, Note_on_c, 0, 55, 64
3, 3048, Note_on_c, 0, 55, 0
3, 3048, Note_on_c, 0, 53, 64
3, 3120, Note_on_c, 0, 53, 0
3, 3120, Note_on_c, 0, 55, 64
3, 3144, Note_on_c, 0, 55, 0
3, 3144, Note_on_c, 0, 57, 64
3, 3168, Note_on_c, 0, 57, 0
3, 3168, Note_on_c, 0, 58, 64
3, 3192, Note_on_c, 0, 58, 0
3, 3192, Note_on_c, 0, 57, 64
3, 3216, Note_on_c, 0, 57, 0
3, 3216, Note_on_c, 0, 55, 64
3, 3240, Note_on_c, 0, 55, 0
3, 3240, Note_on_c, 0, 62, 64
3, 3264, Note_on_c, 0, 62, 0
3, 3264, Note_on_c, 0, 61, 64
3, 3336, Note_on_c, 0, 61, 0
3, 3336, Note_on_c, 0, 62, 64
3, 3360, Note_on_c, 0, 62, 0
3, 3360, Note_on_c, 0, 64, 64
3, 3384, Note_on_c, 0, 64, 0
3, 3384, Note_on_c, 0, 65, 64
3, 3408, Note_on_c, 0, 65, 0
3, 3408, Note_on_c, 0, 64, 64
3, 3432, Note_on_c, 0, 64, 0
3, 3432, Note_on_c, 0, 62, 64
3, 3456, Note_on_c, 0, 62, 0
3, 3456, Note_on_c, 0, 69, 64
3, 3472, Note_on_c, 0, 69, 0
3, 3472, Note_on_c, 0, 68, 64
3, 3488, Note_on_c, 0, 68, 0
3, 3488, Note_on_c, 0, 69, 64
3, 3504, Note_on_c, 0, 69, 0
3, 3504, Note_on_c, 0, 68, 64
3, 3520, Note_on_c, 0, 68, 0
3, 3520, Note_on_c, 0, 69, 64
3, 3536, Note_on_c, 0, 69, 0
3, 3536, Note_on_c, 0, 68, 64
3, 3552, Note_on_c, 0, 68, 0
3, 3552, Note_on_c, 0, 69, 64
3, 3568, Note_on_c, 0, 69, 0
3, 3568, Note_on_c, 0, 68, 64
3, 3584, Note_on_c, 0, 68, 0
3, 3584, Note_on_c, 0, 69, 64
3, 3600, Note_on_c, 0, 69, 0
3, 3600, Note_on_c, 0, 68, 64
3, 3616, Note_on_c, 0, 68, 0
3, 3616, Note_on_c, 0, 69, 64
3, 3632, Note_on_c, 0, 69, 0
3, 3632, Note_on_c, 0, 68, 64
3, 3648, Note_on_c, 0, 68, 0
3, 3648, Note_on_c, 0, 66, 64
3, 3664, Note_on_c, 0, 66, 0
3, 3664, Note_on_c, 0, 68, 64
3, 3672, Note_on_c, 0, 68, 0
3, 3672, Note_on_c, 0, 69, 64
3, 3720, Note_on_c, 0, 69, 0
3, 3792, Note_on_c, 0, 61, 64
3, 3816, Note_on_c, 0, 61, 0
3, 3816, Note_on_c, 0, 62, 64
3, 3864, Note_on_c, 0, 62, 0
3, 3864, Note_on_c, 0, 64, 64
3, 3888, Note_on_c, 0, 64, 0
3, 3888, Note_on_c, 0, 57, 64
3, 3912, Note_on_c, 0, 57, 0
3, 3912, Note_on_c, 0, 59, 64
3, 3936, Note_on_c, 0, 59, 0
3, 3936, Note_on_c, 0, 61, 64
3, 3960, Note_on_c, 0, 61, 0
3, 3960, Note_on_c, 0, 62, 64
3, 3984, Note_on_c, 0, 62, 0
3, 3984, Note_on_c, 0, 64, 64
3, 4008, Note_on_c, 0, 64, 0
3, 4008, Note_on_c, 0, 65, 64
3, 4032, Note_on_c, 0, 65, 0
3, 4032, Note_on_c, 0, 55, 64
3, 4104, Note_on_c, 0, 55, 0
3, 4104, Note_on_c, 0, 55, 64
3, 4128, Note_on_c, 0, 55, 0
3, 4128, Note_on_c, 0, 67, 64
3, 4152, Note_on_c, 0, 67, 0
3, 4152, Note_on_c, 0, 65, 64
3, 4176, Note_on_c, 0, 65, 0
3, 4176, Note_on_c, 0, 64, 64
3, 4200, Note_on_c, 0, 64, 0
3, 4200, Note_on_c, 0, 62, 64
3, 4224, Note_on_c, 0, 62, 0
3, 4224, Note_on_c, 0, 61, 64
3, 4248, Note_on_c, 0, 61, 0
3, 4248, Note_on_c, 0, 62, 64
3, 4320, Note_on_c, 0, 62, 0
3, 4320, Note_on_c, 0, 62, 64
3, 4344, Note_on_c, 0, 62, 0
3, 4344, Note_on_c, 0, 59, 64
3, 4368, Note_on_c, 0, 59, 0
3, 4368, Note_on_c, 0, 61, 64
3, 4392, Note_on_c, 0, 61, 0
3, 4392, Note_on_c, 0, 62, 64
3, 4416, Note_on_c, 0, 62, 0
3, 4416, Note_on_c, 0, 64, 64
3, 4440, Note_on_c, 0, 64, 0
3, 4440, Note_on_c, 0, 65, 64
3, 4464, Note_on_c, 0, 65, 0
3, 4464, Note_on_c, 0, 64, 64
3, 4488, Note_on_c, 0, 64, 0
3, 4488, Note_on_c, 0, 65, 64
3, 4512, Note_on_c, 0, 65, 0
3, 4512, Note_on_c, 0, 62, 64
3, 4536, Note_on_c, 0, 62, 0
3, 4536, Note_on_c, 0, 61, 64
3, 4560, Note_on_c, 0, 61, 0
3, 4560, Note_on_c, 0, 62, 64
3, 4584, Note_on_c, 0, 62, 0
3, 4584, Note_on_c, 0, 64, 64
3, 4608, Note_on_c, 0, 64, 0
3, 4608, Note_on_c, 0, 57, 64
3, 4704, Note_on_c, 0, 57, 0
3, 4704, Note_on_c, 0, 58, 64
3, 4728, Note_on_c, 0, 58, 0
3, 4728, Note_on_c, 0, 55, 64
3, 4752, Note_on_c, 0, 55, 0
3, 4752, Note_on_c, 0, 53, 64
3, 4776, Note_on_c, 0, 53, 0
3, 4776, Note_on_c, 0, 55, 64
3, 4800, Note_on_c, 0, 55, 0
3, 4800, Note_on_c, 0, 52, 64
3, 4824, Note_on_c, 0, 52, 0
3, 4824, Note_on_c, 0, 53, 64
3, 4848, Note_on_c, 0, 53, 0
3, 4848, Note_on_c, 0, 57, 64
3, 4872, Note_on_c, 0, 57, 0
3, 4872, Note_on_c, 0, 62, 64
3, 4896, Note_on_c, 0, 62, 0
3, 4896, Note_on_c, 0, 60, 64
3, 4920, Note_on_c, 0, 60, 0
3, 4920, Note_on_c, 0, 58, 64
3, 4944, Note_on_c, 0, 58, 0
3, 4944, Note_on_c, 0, 57, 64
3, 4968, Note_on_c, 0, 57, 0
3, 4968, Note_on_c, 0, 58, 64
3, 4992, Note_on_c, 0, 58, 0
3, 4992, Note_on_c, 0, 62, 64
3, 5016, Note_on_c, 0, 62, 0
3, 5016, Note_on_c, 0, 67, 64
3, 5040, Note_on_c, 0, 67, 0
3, 5040, Note_on_c, 0, 61, 64
3, 5064, Note_on_c, 0, 61, 0
3, 5064, Note_on_c, 0, 64, 64
3, 5088, Note_on_c, 0, 64, 0
3, 5088, Note_on_c, 0, 57, 64
3, 5112, Note_on_c, 0, 57, 0
3, 5112, Note_on_c, 0, 58, 64
3, 5136, Note_on_c, 0, 58, 0
3, 5136, Note_on_c, 0, 57, 64
3, 5160, Note_on_c, 0, 57, 0
3, 5160, Note_on_c, 0, 55, 64
3, 5184, Note_on_c, 0, 55, 0
3, 5184, Note_on_c, 0, 53, 64
3, 5208, Note_on_c, 0, 53, 0
3, 5208, Note_on_c, 0, 55, 64
3, 5232, Note_on_c, 0, 55, 0
3, 5232, Note_on_c, 0, 52, 64
3, 5256, Note_on_c, 0, 52, 0
3, 5256, Note_on_c, 0, 53, 64
3, 5304, Note_on_c, 0, 53, 0
3, 5304, Note_on_c, 0, 62, 64
3, 5328, Note_on_c, 0, 62, 0
3, 5328, Note_on_c, 0, 55, 64
3, 5376, Note_on_c, 0, 55, 0
3, 5376, Note_on_c, 0, 53, 64
3, 5400, Note_on_c, 0, 53, 0
3, 5400, Note_on_c, 0, 52, 64
3, 5424, Note_on_c, 0, 52, 0
3, 5424, Note_on_c, 0, 57, 64
3, 5448, Note_on_c, 0, 57, 0
3, 5448, Note_on_c, 0, 55, 64
3, 5472, Note_on_c, 0, 55, 0
3, 5472, Note_on_c, 0, 53, 64
3, 5496, Note_on_c, 0, 53, 0
3, 5496, Note_on_c, 0, 52, 64
3, 5520, Note_on_c, 0, 52, 0
3, 5520, Note_on_c, 0, 50, 64
3, 5544, Note_on_c, 0, 50, 0
3, 5544, Note_on_c, 0, 50, 64
3, 5560, Note_on_c, 0, 50, 0
3, 5560, Note_on_c, 0, 49, 64
3, 5576, Note_on_c, 0, 49, 0
3, 5576, Note_on_c, 0, 50, 64
3, 5592, Note_on_c, 0, 50, 0
3, 5592, Note_on_c, 0, 49, 64
3, 5608, Note_on_c, 0, 49, 0
3, 5608, Note_on_c, 0, 50, 64
3, 5616, Note_on_c, 0, 50, 0
3, 5616, Note_on_c, 0, 50, 64
3, 5664, Note_on_c, 0, 50, 0
3, 6048, Note_on_c, 0, 62, 64
3, 6120, Note_on_c, 0, 62, 0
3, 6120, Note_on_c, 0, 57, 64
3, 6144, Note_on_c, 0, 57, 0
3, 6144, Note_on_c, 0, 56, 64
3, 6168, Note_on_c, 0, 56, 0
3, 6168, Note_on_c, 0, 57, 64
3, 6192, Note_on_c, 0, 57, 0
3, 6192, Note_on_c, 0, 59, 64
3, 6216, Note_on_c, 0, 59, 0
3, 6216, Note_on_c, 0, 57, 64
3, 6240, Note_on_c, 0, 57, 0
3, 6240, Note_on_c, 0, 59, 64
3, 6264, Note_on_c, 0, 59, 0
3, 6264, Note_on_c, 0, 60, 64
3, 6288, Note_on_c, 0, 60, 0
3, 6288, Note_on_c, 0, 59, 64
3, 6312, Note_on_c, 0, 59, 0
3, 6312, Note_on_c, 0, 61, 64
3, 6336, Note_on_c, 0, 61, 0
3, 6336, Note_on_c, 0, 62, 64
3, 6360, Note_on_c, 0, 62, 0
3, 6360, Note_on_c, 0, 61, 64
3, 6384, Note_on_c, 0, 61, 0
3, 6384, Note_on_c, 0, 62, 64
3, 6408, Note_on_c, 0, 62, 0
3, 6408, Note_on_c, 0, 64, 64
3, 6432, Note_on_c, 0, 64, 0
3, 6432, Note_on_c, 0, 62, 64
3, 6456, Note_on_c, 0, 62, 0
3, 6456, Note_on_c, 0, 64, 64
3, 6480, Note_on_c, 0, 64, 0
3, 6480, Note_on_c, 0, 65, 64
3, 6528, Note_on_c, 0, 65, 0
3, 6552, Note_on_c, 0, 64, 64
3, 6600, Note_on_c, 0, 64, 0
3, 6624, Note_on_c, 0, 62, 64
3, 6672, Note_on_c, 0, 62, 0
3, 6696, Note_on_c, 0, 62, 64
3, 6720, Note_on_c, 0, 62, 0
3, 6720, Note_on_c, 0, 61, 64
3, 6816, Note_on_c, 0, 61, 0
3, 6816, Note_on_c, 0, 57, 64
3, 6840, Note_on_c, 0, 57, 0
3, 6840, Note_on_c, 0, 59, 64
3, 6888, Note_on_c, 0, 59, 0
3, 6888, Note_on_c, 0, 61, 64
3, 6912, Note_on_c, 0, 61, 0
3, 6912, Note_on_c, 0, 62, 64
3, 6936, Note_on_c, 0, 62, 0
3, 6936, Note_on_c, 0, 60, 64
3, 6960, Note_on_c, 0, 60, 0
3, 6960, Note_on_c, 0, 59, 64
3, 6984, Note_on_c, 0, 59, 0
3, 6984, Note_on_c, 0, 60, 64
3, 7032, Note_on_c, 0, 60, 0
3, 7032, Note_on_c, 0, 69, 64
3, 7056, Note_on_c, 0, 69, 0
3, 7056, Note_on_c, 0, 68, 64
3, 7104, Note_on_c, 0, 68, 0
3, 7104, Note_on_c, 0, 62, 64
3, 7128, Note_on_c, 0, 62, 0
3, 7128, Note_on_c, 0, 64, 64
3, 7176, Note_on_c, 0, 64, 0
3, 7176, Note_on_c, 0, 67, 64
3, 7200, Note_on_c, 0, 67, 0
3, 7200, Note_on_c, 0, 65, 64
3, 7224, Note_on_c, 0, 65, 0
3, 7224, Note_on_c, 0, 64, 64
3, 7248, Note_on_c, 0, 64, 0
3, 7248, Note_on_c, 0, 62, 64
3, 7272, Note_on_c, 0, 62, 0
3, 7272, Note_on_c, 0, 61, 64
3, 7320, Note_on_c, 0, 61, 0
3, 7320, Note_on_c, 0, 70, 64
3, 7344, Note_on_c, 0, 70, 0
3, 7344, Note_on_c, 0, 69, 64
3, 7368, Note_on_c, 0, 69, 0
3, 7368, Note_on_c, 0, 65, 64
3, 7392, Note_on_c, 0, 65, 0
3, 7392, Note_on_c, 0, 62, 64
3, 7416, Note_on_c, 0, 62, 0
3, 7416, Note_on_c, 0, 62, 64
3, 7440, Note_on_c, 0, 62, 0
3, 7440, Note_on_c, 0, 67, 64
3, 7464, Note_on_c, 0, 67, 0
3, 7464, Note_on_c, 0, 60, 64
3, 7488, Note_on_c, 0, 60, 0
3, 7488, Note_on_c, 0, 60, 64
3, 7512, Note_on_c, 0, 60, 0
3, 7512, Note_on_c, 0, 65, 64
3, 7536, Note_on_c, 0, 65, 0
3, 7536, Note_on_c, 0, 58, 64
3, 7560, Note_on_c, 0, 58, 0
3, 7560, Note_on_c, 0, 58, 64
3, 7584, Note_on_c, 0, 58, 0
3, 7584, Note_on_c, 0, 57, 64
3, 7608, Note_on_c, 0, 57, 0
3, 7608, Note_on_c, 0, 55, 64
3, 7632, Note_on_c, 0, 55, 0
3, 7632, Note_on_c, 0, 57, 64
3, 7656, Note_on_c, 0, 57, 0
3, 7656, Note_on_c, 0, 61, 64
3, 7680, Note_on_c, 0, 61, 0
3, 7680, Note_on_c, 0, 64, 64
3, 7704, Note_on_c, 0, 64, 0
3, 7704, Note_on_c, 0, 67, 64
3, 7728, Note_on_c, 0, 67, 0
3, 7728, Note_on_c, 0, 65, 64
3, 7752, Note_on_c, 0, 65, 0
3, 7752, Note_on_c, 0, 64, 64
3, 7776, Note_on_c, 0, 64, 0
3, 7776, Note_on_c, 0, 65, 64
3, 7800, Note_on_c, 0, 65, 0
3, 7800, Note_on_c, 0, 64, 64
3, 7824, Note_on_c, 0, 64, 0
3, 7824, Note_on_c, 0, 62, 64
3, 7848, Note_on_c, 0, 62, 0
3, 7848, Note_on_c, 0, 64, 64
3, 7872, Note_on_c, 0, 64, 0
3, 7872, Note_on_c, 0, 62, 64
3, 7896, Note_on_c, 0, 62, 0
3, 7896, Note_on_c, 0, 60, 64
3, 7920, Note_on_c, 0, 60, 0
3, 7920, Note_on_c, 0, 62, 64
3, 7944, Note_on_c, 0, 62, 0
3, 7944, Note_on_c, 0, 60, 64
3, 7968, Note_on_c, 0, 60, 0
3, 7968, Note_on_c, 0, 59, 64
3, 7992, Note_on_c, 0, 59, 0
3, 7992, Note_on_c, 0, 60, 64
3, 8016, Note_on_c, 0, 60, 0
3, 8016, Note_on_c, 0, 62, 64
3, 8040, Note_on_c, 0, 62, 0
3, 8040, Note_on_c, 0, 64, 64
3, 8064, Note_on_c, 0, 64, 0
3, 8064, Note_on_c, 0, 62, 64
3, 8088, Note_on_c, 0, 62, 0
3, 8088, Note_on_c, 0, 64, 64
3, 8112, Note_on_c, 0, 64, 0
3, 8112, Note_on_c, 0, 65, 64
3, 8136, Note_on_c, 0, 65, 0
3, 8136, Note_on_c, 0, 64, 64
3, 8160, Note_on_c, 0, 64, 0
3, 8160, Note_on_c, 0, 65, 64
3, 8184, Note_on_c, 0, 65, 0
3, 8184, Note_on_c, 0, 67, 64
3, 8208, Note_on_c, 0, 67, 0
3, 8208, Note_on_c, 0, 65, 64
3, 8232, Note_on_c, 0, 65, 0
3, 8232, Note_on_c, 0, 62, 64
3, 8256, Note_on_c, 0, 62, 0
3, 8256, Note_on_c, 0, 69, 64
3, 8280, Note_on_c, 0, 69, 0
3, 8280, Note_on_c, 0, 58, 64
3, 8304, Note_on_c, 0, 58, 0
3, 8304, Note_on_c, 0, 64, 64
3, 8328, Note_on_c, 0, 64, 0
3, 8328, Note_on_c, 0, 67, 64
3, 8352, Note_on_c, 0, 67, 0
3, 8352, Note_on_c, 0, 57, 64
3, 8376, Note_on_c, 0, 57, 0
3, 8376, Note_on_c, 0, 62, 64
3, 8400, Note_on_c, 0, 62, 0
3, 8400, Note_on_c, 0, 65, 64
3, 8424, Note_on_c, 0, 65, 0
3, 8424, Note_on_c, 0, 55, 64
3, 8448, Note_on_c, 0, 55, 0
3, 8448, Note_on_c, 0, 61, 64
3, 8472, Note_on_c, 0, 61, 0
3, 8472, Note_on_c, 0, 64, 64
3, 8496, Note_on_c, 0, 64, 0
3, 8496, Note_on_c, 0, 53, 64
3, 8520, Note_on_c, 0, 53, 0
3, 8520, Note_on_c, 0, 57, 64
3, 8544, Note_on_c, 0, 57, 0
3, 8544, Note_on_c, 0, 55, 64
3, 8568, Note_on_c, 0, 55, 0
3, 8568, Note_on_c, 0, 58, 64
3, 8592, Note_on_c, 0, 58, 0
3, 8592, Note_on_c, 0, 57, 64
3, 8616, Note_on_c, 0, 57, 0
3, 8616, Note_on_c, 0, 61, 64
3, 8640, Note_on_c, 0, 61, 0
3, 8640, Note_on_c, 0, 62, 64
3, 8664, Note_on_c, 0, 62, 0
3, 8664, Note_on_c, 0, 64, 64
3, 8688, Note_on_c, 0, 64, 0
3, 8688, Note_on_c, 0, 65, 64
3, 8712, Note_on_c, 0, 65, 0
3, 8712, Note_on_c, 0, 57, 64
3, 8728, Note_on_c, 0, 57, 0
3, 8728, Note_on_c, 0, 56, 64
3, 8744, Note_on_c, 0, 56, 0
3, 8744, Note_on_c, 0, 57, 64
3, 8760, Note_on_c, 0, 57, 0
3, 8760, Note_on_c, 0, 56, 64
3, 8776, Note_on_c, 0, 56, 0
3, 8776, Note_on_c, 0, 57, 64
3, 8792, Note_on_c, 0, 57, 0
3, 8792, Note_on_c, 0, 56, 64
3, 8808, Note_on_c, 0, 56, 0
3, 8808, Note_on_c, 0, 54, 64
3, 8824, Note_on_c, 0, 54, 0
3, 8824, Note_on_c, 0, 56, 64
3, 8840, Note_on_c, 0, 56, 0
3, 8840, Note_on_c, 0, 57, 64
3, 8856, Note_on_c, 0, 57, 0
3, 8856, Note_on_c, 0, 57, 64
3, 8904, Note_on_c, 0, 57, 0
3, 8976, Note_on_c, 0, 59, 64
3, 9000, Note_on_c, 0, 59, 0
3, 9000, Note_on_c, 0, 60, 64
3, 9048, Note_on_c, 0, 60, 0
3, 9048, Note_on_c, 0, 57, 64
3, 9072, Note_on_c, 0, 57, 0
3, 9072, Note_on_c, 0, 58, 64
3, 9120, Note_on_c, 0, 58, 0
3, 9120, Note_on_c, 0, 65, 64
3, 9144, Note_on_c, 0, 65, 0
3, 9144, Note_on_c, 0, 65, 64
3, 9168, Note_on_c, 0, 65, 0
3, 9168, Note_on_c, 0, 64, 64
3, 9192, Note_on_c, 0, 64, 0
3, 9192, Note_on_c, 0, 62, 64
3, 9216, Note_on_c, 0, 62, 0
3, 9216, Note_on_c, 0, 60, 64
3, 9240, Note_on_c, 0, 60, 0
3, 9240, Note_on_c, 0, 62, 64
3, 9264, Note_on_c, 0, 62, 0
3, 9264, Note_on_c, 0, 59, 64
3, 9288, Note_on_c, 0, 59, 0
3, 9288, Note_on_c, 0, 60, 64
3, 9360, Note_on_c, 0, 60, 0
3, 9360, Note_on_c, 0, 57, 64
3, 9432, Note_on_c, 0, 57, 0
3, 9504, Note_on_c, 0, 57, 64
3, 9576, Note_on_c, 0, 57, 0
3, 9576, Note_on_c, 0, 64, 64
3, 9600, Note_on_c, 0, 64, 0
3, 9600, Note_on_c, 0, 65, 64
3, 9624, Note_on_c, 0, 65, 0
3, 9624, Note_on_c, 0, 64, 64
3, 9648, Note_on_c, 0, 64, 0
3, 9648, Note_on_c, 0, 62, 64
3, 9672, Note_on_c, 0, 62, 0
3, 9672, Note_on_c, 0, 64, 64
3, 9696, Note_on_c, 0, 64, 0
3, 9696, Note_on_c, 0, 62, 64
3, 9720, Note_on_c, 0, 62, 0
3, 9720, Note_on_c, 0, 60, 64
3, 9744, Note_on_c, 0, 60, 0
3, 9744, Note_on_c, 0, 62, 64
3, 9768, Note_on_c, 0, 62, 0
3, 9768, Note_on_c, 0, 60, 64
3, 9792, Note_on_c, 0, 60, 0
3, 9792, Note_on_c, 0, 59, 64
3, 9816, Note_on_c, 0, 59, 0
3, 9816, Note_on_c, 0, 60, 64
3, 9840, Note_on_c, 0, 60, 0
3, 9840, Note_on_c, 0, 59, 64
3, 9864, Note_on_c, 0, 59, 0
3, 9864, Note_on_c, 0, 57, 64
3, 9888, Note_on_c, 0, 57, 0
3, 9888, Note_on_c, 0, 59, 64
3, 9912, Note_on_c, 0, 59, 0
3, 9912, Note_on_c, 0, 57, 64
3, 9936, Note_on_c, 0, 57, 0
3, 9936, Note_on_c, 0, 56, 64
3, 9984, Note_on_c, 0, 56, 0
3, 10008, Note_on_c, 0, 57, 64
3, 10056, Note_on_c, 0, 57, 0
3, 10080, Note_on_c, 0, 59, 64
3, 10128, Note_on_c, 0, 59, 0
3, 10152, Note_on_c, 0, 60, 64
3, 10248, Note_on_c, 0, 60, 0
3, 10248, Note_on_c, 0, 60, 64
3, 10272, Note_on_c, 0, 60, 0
3, 10272, Note_on_c, 0, 62, 64
3, 10296, Note_on_c, 0, 62, 0
3, 10296, Note_on_c, 0, 60, 64
3, 10344, Note_on_c, 0, 60, 0
3, 10344, Note_on_c, 0, 59, 64
3, 10368, Note_on_c, 0, 59, 0
3, 10368, Note_on_c, 0, 57, 64
3, 10392, Note_on_c, 0, 57, 0
3, 10392, Note_on_c, 0, 52, 64
3, 10416, Note_on_c, 0, 52, 0
3, 10416, Note_on_c, 0, 57, 64
3, 10440, Note_on_c, 0, 57, 0
3, 10440, Note_on_c, 0, 60, 64
3, 10464, Note_on_c, 0, 60, 0
3, 10464, Note_on_c, 0, 57, 64
3, 10488, Note_on_c, 0, 57, 0
3, 10488, Note_on_c, 0, 60, 64
3, 10512, Note_on_c, 0, 60, 0
3, 10512, Note_on_c, 0, 64, 64
3, 10560, Note_on_c, 0, 64, 0
3, 10560, Note_on_c, 0, 56, 64
3, 10584, Note_on_c, 0, 56, 0
3, 10584, Note_on_c, 0, 57, 64
3, 10632, Note_on_c, 0, 57, 0
3, 10632, Note_on_c, 0, 65, 64
3, 10656, Note_on_c, 0, 65, 0
3, 10656, Note_on_c, 0, 55, 64
3, 10704, Note_on_c, 0, 55, 0
3, 10704, Note_on_c, 0, 64, 64
3, 10728, Note_on_c, 0, 64, 0
3, 10728, Note_on_c, 0, 53, 64
3, 10776, Note_on_c, 0, 53, 0
3, 10776, Note_on_c, 0, 62, 64
3, 10800, Note_on_c, 0, 62, 0
3, 10800, Note_on_c, 0, 48, 64
3, 10824, Note_on_c, 0, 48, 0
3, 10824, Note_on_c, 0, 59, 64
3, 10848, Note_on_c, 0, 59, 0
3, 10848, Note_on_c, 0, 62, 64
3, 10872, Note_on_c, 0, 62, 0
3, 10872, Note_on_c, 0, 60, 64
3, 10896, Note_on_c, 0, 60, 0
3, 10896, Note_on_c, 0, 59, 64
3, 10920, Note_on_c, 0, 59, 0
3, 10920, Note_on_c, 0, 57, 64
3, 10944, Note_on_c, 0, 57, 0
3, 10944, Note_on_c, 0, 56, 64
3, 10968, Note_on_c, 0, 56, 0
3, 10968, Note_on_c, 0, 62, 64
3, 10992, Note_on_c, 0, 62, 0
3, 10992, Note_on_c, 0, 65, 64
3, 11016, Note_on_c, 0, 65, 0
3, 11016, Note_on_c, 0, 64, 64
3, 11040, Note_on_c, 0, 64, 0
3, 11040, Note_on_c, 0, 62, 64
3, 11064, Note_on_c, 0, 62, 0
3, 11064, Note_on_c, 0, 60, 64
3, 11088, Note_on_c, 0, 60, 0
3, 11088, Note_on_c, 0, 59, 64
3, 11112, Note_on_c, 0, 59, 0
3, 11112, Note_on_c, 0, 57, 64
3, 11136, Note_on_c, 0, 57, 0
3, 11136, Note_on_c, 0, 56, 64
3, 11160, Note_on_c, 0, 56, 0
3, 11160, Note_on_c, 0, 57, 64
3, 11184, Note_on_c, 0, 57, 0
3, 11184, Note_on_c, 0, 52, 64
3, 11208, Note_on_c, 0, 52, 0
3, 11208, Note_on_c, 0, 59, 64
3, 11232, Note_on_c, 0, 59, 0
3, 11232, Note_on_c, 0, 60, 64
3, 11256, Note_on_c, 0, 60, 0
3, 11256, Note_on_c, 0, 59, 64
3, 11280, Note_on_c, 0, 59, 0
3, 11280, Note_on_c, 0, 57, 64
3, 11304, Note_on_c, 0, 57, 0
3, 11304, Note_on_c, 0, 64, 64
3, 11400, Note_on_c, 0, 64, 0
3, 11400, Note_on_c, 0, 59, 64
3, 11424, Note_on_c, 0, 59, 0
3, 11424, Note_on_c, 0, 62, 64
3, 11448, Note_on_c, 0, 62, 0
3, 11448, Note_on_c, 0, 62, 64
3, 11472, Note_on_c, 0, 62, 0
3, 11472, Note_on_c, 0, 60, 64
3, 11496, Note_on_c, 0, 60, 0
3, 11496, Note_on_c, 0, 69, 64
3, 11520, Note_on_c, 0, 69, 0
3, 11520, Note_on_c, 0, 60, 64
3, 11544, Note_on_c, 0, 60, 0
3, 11544, Note_on_c, 0, 59, 64
3, 11568, Note_on_c, 0, 59, 0
3, 11568, Note_on_c, 0, 67, 64
3, 11592, Note_on_c, 0, 67, 0
3, 11592, Note_on_c, 0, 59, 64
3, 11616, Note_on_c, 0, 59, 0
3, 11616, Note_on_c, 0, 57, 64
3, 11640, Note_on_c, 0, 57, 0
3, 11640, Note_on_c, 0, 65, 64
3, 11664, Note_on_c, 0, 65, 0
3, 11664, Note_on_c, 0, 57, 64
3, 11688, Note_on_c, 0, 57, 0
3, 11688, Note_on_c, 0, 56, 64
3, 11712, Note_on_c, 0, 56, 0
3, 11712, Note_on_c, 0, 59, 64
3, 11736, Note_on_c, 0, 59, 0
3, 11736, Note_on_c, 0, 52, 64
3, 11784, Note_on_c, 0, 52, 0
3, 11952, Note_on_c, 0, 62, 64
3, 12048, Note_on_c, 0, 62, 0
3, 12048, Note_on_c, 0, 60, 64
3, 12072, Note_on_c, 0, 60, 0
3, 12072, Note_on_c, 0, 62, 64
3, 12096, Note_on_c, 0, 62, 0
3, 12096, Note_on_c, 0, 64, 64
3, 12120, Note_on_c, 0, 64, 0
3, 12120, Note_on_c, 0, 62, 64
3, 12144, Note_on_c, 0, 62, 0
3, 12144, Note_on_c, 0, 60, 64
3, 12168, Note_on_c, 0, 60, 0
3, 12168, Note_on_c, 0, 59, 64
3, 12192, Note_on_c, 0, 59, 0
3, 12192, Note_on_c, 0, 60, 64
3, 12216, Note_on_c, 0, 60, 0
3, 12216, Note_on_c, 0, 62, 64
3, 12240, Note_on_c, 0, 62, 0
3, 12240, Note_on_c, 0, 64, 64
3, 12264, Note_on_c, 0, 64, 0
3, 12264, Note_on_c, 0, 66, 64
3, 12288, Note_on_c, 0, 66, 0
3, 12288, Note_on_c, 0, 68, 64
3, 12312, Note_on_c, 0, 68, 0
3, 12312, Note_on_c, 0, 69, 64
3, 12336, Note_on_c, 0, 69, 0
3, 12336, Note_on_c, 0, 64, 64
3, 12360, Note_on_c, 0, 64, 0
3, 12360, Note_on_c, 0, 60, 64
3, 12384, Note_on_c, 0, 60, 0
3, 12384, Note_on_c, 0, 62, 64
3, 12408, Note_on_c, 0, 62, 0
3, 12408, Note_on_c, 0, 67, 64
3, 12432, Note_on_c, 0, 67, 0
3, 12432, Note_on_c, 0, 59, 64
3, 12456, Note_on_c, 0, 59, 0
3, 12456, Note_on_c, 0, 60, 64
3, 12480, Note_on_c, 0, 60, 0
3, 12480, Note_on_c, 0, 65, 64
3, 12504, Note_on_c, 0, 65, 0
3, 12504, Note_on_c, 0, 57, 64
3, 12528, Note_on_c, 0, 57, 0
3, 12528, Note_on_c, 0, 59, 64
3, 12552, Note_on_c, 0, 59, 0
3, 12552, Note_on_c, 0, 64, 64
3, 12576, Note_on_c, 0, 64, 0
3, 12576, Note_on_c, 0, 62, 64
3, 12600, Note_on_c, 0, 62, 0
3, 12600, Note_on_c, 0, 60, 64
3, 12624, Note_on_c, 0, 60, 0
3, 12624, Note_on_c, 0, 59, 64
3, 12648, Note_on_c, 0, 59, 0
3, 12648, Note_on_c, 0, 57, 64
3, 12672, Note_on_c, 0, 57, 0
3, 12672, Note_on_c, 0, 59, 64
3, 12696, Note_on_c, 0, 59, 0
3, 12696, Note_on_c, 0, 57, 64
3, 12720, Note_on_c, 0, 57, 0
3, 12720, Note_on_c, 0, 56, 64
3, 12744, Note_on_c, 0, 56, 0
3, 12744, Note_on_c, 0, 57, 64
3, 12768, Note_on_c, 0, 57, 0
3, 12768, Note_on_c, 0, 56, 64
3, 12792, Note_on_c, 0, 56, 0
3, 12792, Note_on_c, 0, 54, 64
3, 12816, Note_on_c, 0, 54, 0
3, 12816, Note_on_c, 0, 56, 64
3, 12840, Note_on_c, 0, 56, 0
3, 12840, Note_on_c, 0, 52, 64
3, 12864, Note_on_c, 0, 52, 0
3, 12864, Note_on_c, 0, 56, 64
3, 12888, Note_on_c, 0, 56, 0
3, 12888, Note_on_c, 0, 59, 64
3, 12912, Note_on_c, 0, 59, 0
3, 12912, Note_on_c, 0, 64, 64
3, 12936, Note_on_c, 0, 64, 0
3, 12936, Note_on_c, 0, 62, 64
3, 12960, Note_on_c, 0, 62, 0
3, 12960, Note_on_c, 0, 60, 64
3, 12984, Note_on_c, 0, 60, 0
3, 12984, Note_on_c, 0, 59, 64
3, 13008, Note_on_c, 0, 59, 0
3, 13008, Note_on_c, 0, 57, 64
3, 13032, Note_on_c, 0, 57, 0
3, 13032, Note_on_c, 0, 62, 64
3, 13128, Note_on_c, 0, 62, 0
3, 13128, Note_on_c, 0, 60, 64
3, 13152, Note_on_c, 0, 60, 0
3, 13152, Note_on_c, 0, 59, 64
3, 13176, Note_on_c, 0, 59, 0
3, 13176, Note_on_c, 0, 60, 64
3, 13224, Note_on_c, 0, 60, 0
3, 13248, Note_on_c, 0, 65, 64
3, 13296, Note_on_c, 0, 65, 0
3, 13320, Note_on_c, 0, 64, 64
3, 13368, Note_on_c, 0, 64, 0
3, 13392, Note_on_c, 0, 62, 64
3, 13440, Note_on_c, 0, 62, 0
3, 13440, Note_on_c, 0, 56, 64
3, 13464, Note_on_c, 0, 56, 0
3, 13464, Note_on_c, 0, 57, 64
3, 13512, Note_on_c, 0, 57, 0
3, 13512, Note_on_c, 0, 60, 64
3, 13536, Note_on_c, 0, 60, 0
3, 13536, Note_on_c, 0, 56, 64
3, 13552, Note_on_c, 0, 56, 0
3, 13552, Note_on_c, 0, 54, 64
3, 13568, Note_on_c, 0, 54, 0
3, 13568, Note_on_c, 0, 56, 64
3, 13584, Note_on_c, 0, 56, 0
3, 13584, Note_on_c, 0, 54, 64
3, 13600, Note_on_c, 0, 54, 0
3, 13600, Note_on_c, 0, 52, 64
3, 13608, Note_on_c, 0, 52, 0
3, 13608, Note_on_c, 0, 52, 64
3, 13656, Note_on_c, 0, 52, 0
3, 13848, Note_on_c, 0, 50, 64
3, 13872, Note_on_c, 0, 50, 0
3, 13872, Note_on_c, 0, 52, 64
3, 13896, Note_on_c, 0, 52, 0
3, 13896, Note_on_c, 0, 53, 64
3, 13920, Note_on_c, 0, 53, 0
3, 13920, Note_on_c, 0, 55, 64
3, 13944, Note_on_c, 0, 55, 0
3, 13944, Note_on_c, 0, 53, 64
3, 13968, Note_on_c, 0, 53, 0
3, 13968, Note_on_c, 0, 52, 64
3, 14040, Note_on_c, 0, 52, 0
3, 14040, Note_on_c, 0, 52, 64
3, 14064, Note_on_c, 0, 52, 0
3, 14064, Note_on_c, 0, 53, 64
3, 14088, Note_on_c, 0, 53, 0
3, 14088, Note_on_c, 0, 55, 64
3, 14112, Note_on_c, 0, 55, 0
3, 14112, Note_on_c, 0, 57, 64
3, 14136, Note_on_c, 0, 57, 0
3, 14136, Note_on_c, 0, 58, 64
3, 14160, Note_on_c, 0, 58, 0
3, 14160, Note_on_c, 0, 57, 64
3, 14184, Note_on_c, 0, 57, 0
3, 14184, Note_on_c, 0, 55, 64
3, 14208, Note_on_c, 0, 55, 0
3, 14208, Note_on_c, 0, 57, 64
3, 14232, Note_on_c, 0, 57, 0
3, 14232, Note_on_c, 0, 55, 64
3, 14256, Note_on_c, 0, 55, 0
3, 14256, Note_on_c, 0, 53, 64
3, 14280, Note_on_c, 0, 53, 0
3, 14280, Note_on_c, 0, 55, 64
3, 14304, Note_on_c, 0, 55, 0
3, 14304, Note_on_c, 0, 53, 64
3, 14328, Note_on_c, 0, 53, 0
3, 14328, Note_on_c, 0, 52, 64
3, 14352, Note_on_c, 0, 52, 0
3, 14352, Note_on_c, 0, 53, 64
3, 14376, Note_on_c, 0, 53, 0
3, 14376, Note_on_c, 0, 52, 64
3, 14400, Note_on_c, 0, 52, 0
3, 14400, Note_on_c, 0, 50, 64
3, 14424, Note_on_c, 0, 50, 0
3, 14424, Note_on_c, 0, 52, 64
3, 14448, Note_on_c, 0, 52, 0
3, 14448, Note_on_c, 0, 50, 64
3, 14472, Note_on_c, 0, 50, 0
3, 14472, Note_on_c, 0, 46, 64
3, 14520, Note_on_c, 0, 46, 0
3, 14544, Note_on_c, 0, 50, 64
3, 14592, Note_on_c, 0, 50, 0
3, 14616, Note_on_c, 0, 52, 64
3, 14664, Note_on_c, 0, 52, 0
3, 14688, Note_on_c, 0, 53, 64
3, 14784, Note_on_c, 0, 53, 0
3, 14784, Note_on_c, 0, 53, 64
3, 14808, Note_on_c, 0, 53, 0
3, 14808, Note_on_c, 0, 57, 64
3, 14832, Note_on_c, 0, 57, 0
3, 14832, Note_on_c, 0, 57, 64
3, 14848, Note_on_c, 0, 57, 0
3, 14848, Note_on_c, 0, 55, 64
3, 14864, Note_on_c, 0, 55, 0
3, 14864, Note_on_c, 0, 57, 64
3, 14880, Note_on_c, 0, 57, 0
3, 14880, Note_on_c, 0, 53, 64
3, 14904, Note_on_c, 0, 53, 0
3, 14904, Note_on_c, 0, 55, 64
3, 14928, Note_on_c, 0, 55, 0
3, 14928, Note_on_c, 0, 53, 64
3, 14952, Note_on_c, 0, 53, 0
3, 14952, Note_on_c, 0, 52, 64
3, 14976, Note_on_c, 0, 52, 0
3, 14976, Note_on_c, 0, 62, 64
3, 14992, Note_on_c, 0, 62, 0
3, 14992, Note_on_c, 0, 61, 64
3, 15008, Note_on_c, 0, 61, 0
3, 15008, Note_on_c, 0, 62, 64
3, 15024, Note_on_c, 0, 62, 0
3, 15024, Note_on_c, 0, 61, 64
3, 15040, Note_on_c, 0, 61, 0
3, 15040, Note_on_c, 0, 62, 64
3, 15056, Note_on_c, 0, 62, 0
3, 15056, Note_on_c, 0, 61, 64
3, 15072, Note_on_c, 0, 61, 0
3, 15072, Note_on_c, 0, 59, 64
3, 15088, Note_on_c, 0, 59, 0
3, 15088, Note_on_c, 0, 61, 64
3, 15104, Note_on_c, 0, 61, 0
3, 15104, Note_on_c, 0, 62, 64
3, 15120, Note_on_c, 0, 62, 0
3, 15120, Note_on_c, 0, 62, 64
3, 15144, Note_on_c, 0, 62, 0
3, 15144, Note_on_c, 0, 58, 64
3, 15168, Note_on_c, 0, 58, 0
3, 15168, Note_on_c, 0, 67, 64
3, 15192, Note_on_c, 0, 67, 0
3, 15192, Note_on_c, 0, 60, 64
3, 15216, Note_on_c, 0, 60, 0
3, 15216, Note_on_c, 0, 57, 64
3, 15240, Note_on_c, 0, 57, 0
3, 15240, Note_on_c, 0, 65, 64
3, 15264, Note_on_c, 0, 65, 0
3, 15264, Note_on_c, 0, 58, 64
3, 15288, Note_on_c, 0, 58, 0
3, 15288, Note_on_c, 0, 55, 64
3, 15312, Note_on_c, 0, 55, 0
3, 15312, Note_on_c, 0, 64, 64
3, 15336, Note_on_c, 0, 64, 0
3, 15336, Note_on_c, 0, 57, 64
3, 15360, Note_on_c, 0, 57, 0
3, 15360, Note_on_c, 0, 55, 64
3, 15384, Note_on_c, 0, 55, 0
3, 15384, Note_on_c, 0, 64, 64
3, 15408, Note_on_c, 0, 64, 0
3, 15408, Note_on_c, 0, 57, 64
3, 15432, Note_on_c, 0, 57, 0
3, 15432, Note_on_c, 0, 53, 64
3, 15456, Note_on_c, 0, 53, 0
3, 15456, Note_on_c, 0, 62, 64
3, 15480, Note_on_c, 0, 62, 0
3, 15480, Note_on_c, 0, 55, 64
3, 15504, Note_on_c, 0, 55, 0
3, 15504, Note_on_c, 0, 52, 64
3, 15528, Note_on_c, 0, 52, 0
3, 15528, Note_on_c, 0, 61, 64
3, 15552, Note_on_c, 0, 61, 0
3, 15552, Note_on_c, 0, 62, 64
3, 15576, Note_on_c, 0, 62, 0
3, 15576, Note_on_c, 0, 57, 64
3, 15600, Note_on_c, 0, 57, 0
3, 15600, Note_on_c, 0, 53, 64
3, 15624, Note_on_c, 0, 53, 0
3, 15624, Note_on_c, 0, 50, 64
3, 15648, Note_on_c, 0, 50, 0
3, 15648, Note_on_c, 0, 52, 64
3, 15672, Note_on_c, 0, 52, 0
3, 15672, Note_on_c, 0, 53, 64
3, 15696, Note_on_c, 0, 53, 0
3, 15696, Note_on_c, 0, 52, 64
3, 15720, Note_on_c, 0, 52, 0
3, 15720, Note_on_c, 0, 53, 64
3, 15744, Note_on_c, 0, 53, 0
3, 15744, Note_on_c, 0, 50, 64
3, 15768, Note_on_c, 0, 50, 0
3, 15768, Note_on_c, 0, 52, 64
3, 15864, Note_on_c, 0, 52, 0
3, 15864, Note_on_c, 0, 53, 64
3, 15888, Note_on_c, 0, 53, 0
3, 15888, Note_on_c, 0, 55, 64
3, 15912, Note_on_c, 0, 55, 0
3, 15912, Note_on_c, 0, 53, 64
3, 15936, Note_on_c, 0, 53, 0
3, 15936, Note_on_c, 0, 55, 64
3, 15960, Note_on_c, 0, 55, 0
3, 15960, Note_on_c, 0, 52, 64
3, 15984, Note_on_c, 0, 52, 0
3, 15984, Note_on_c, 0, 53, 64
3, 16032, Note_on_c, 0, 53, 0
3, 16056, Note_on_c, 0, 52, 64
3, 16104, Note_on_c, 0, 52, 0
3, 16128, Note_on_c, 0, 50, 64
3, 16176, Note_on_c, 0, 50, 0
3, 16200, Note_on_c, 0, 49, 64
3, 16248, Note_on_c, 0, 49, 0
3, 16272, Note_on_c, 0, 50, 64
3, 16320, Note_on_c, 0, 50, 0
3, 16344, Note_on_c, 0, 52, 64
3, 16392, Note_on_c, 0, 52, 0
3, 16416, Note_on_c, 0, 53, 64
3, 16440, Note_on_c, 0, 53, 0
3, 16440, Note_on_c, 0, 52, 64
3, 16464, Note_on_c, 0, 52, 0
3, 16464, Note_on_c, 0, 50, 64
3, 16488, Note_on_c, 0, 50, 0
3, 16488, Note_on_c, 0, 58, 64
3, 16512, Note_on_c, 0, 58, 0
3, 16512, Note_on_c, 0, 57, 64
3, 16536, Note_on_c, 0, 57, 0
3, 16536, Note_on_c, 0, 55, 64
3, 16560, Note_on_c, 0, 55, 0
3, 16560, Note_on_c, 0, 61, 64
3, 16608, Note_on_c, 0, 61, 0
3, 16656, Note_on_c, 0, 55, 64
3, 16680, Note_on_c, 0, 55, 0
3, 16680, Note_on_c, 0, 50, 64
3, 16704, Note_on_c, 0, 50, 0
3, 16704, Note_on_c, 0, 49, 64
3, 16728, Note_on_c, 0, 49, 0
3, 16728, Note_on_c, 0, 50, 64
3, 16752, Note_on_c, 0, 50, 0
3, 16752, Note_on_c, 0, 52, 64
3, 16776, Note_on_c, 0, 52, 0
3, 16776, Note_on_c, 0, 45, 64
3, 16800, Note_on_c, 0, 45, 0
3, 16800, Note_on_c, 0, 47, 64
3, 16824, Note_on_c, 0, 47, 0
3, 16824, Note_on_c, 0, 49, 64
3, 16848, Note_on_c, 0, 49, 0
3, 16848, Note_on_c, 0, 50, 64
3, 16872, Note_on_c, 0, 50, 0
3, 16872, Note_on_c, 0, 43, 64
3, 16896, Note_on_c, 0, 43, 0
3, 16896, Note_on_c, 0, 46, 64
3, 16920, Note_on_c, 0, 46, 0
3, 16920, Note_on_c, 0, 48, 64
3, 16944, Note_on_c, 0, 48, 0
3, 16944, Note_on_c, 0, 41, 64
3, 16968, Note_on_c, 0, 41, 0
3, 16968, Note_on_c, 0, 45, 64
3, 16992, Note_on_c, 0, 45, 0
3, 16992, Note_on_c, 0, 46, 64
3, 17016, Note_on_c, 0, 46, 0
3, 17016, Note_on_c, 0, 40, 64
3, 17040, Note_on_c, 0, 40, 0
3, 17040, Note_on_c, 0, 43, 64
3, 17064, Note_on_c, 0, 43, 0
3, 17064, Note_on_c, 0, 45, 64
3, 17088, Note_on_c, 0, 45, 0
3, 17088, Note_on_c, 0, 57, 64
3, 17112, Note_on_c, 0, 57, 0
3, 17112, Note_on_c, 0, 55, 64
3, 17136, Note_on_c, 0, 55, 0
3, 17136, Note_on_c, 0, 53, 64
3, 17160, Note_on_c, 0, 53, 0
3, 17160, Note_on_c, 0, 62, 64
3, 17184, Note_on_c, 0, 62, 0
3, 17184, Note_on_c, 0, 60, 64
3, 17208, Note_on_c, 0, 60, 0
3, 17208, Note_on_c, 0, 58, 64
3, 17232, Note_on_c, 0, 58, 0
3, 17232, Note_on_c, 0, 57, 64
3, 17256, Note_on_c, 0, 57, 0
3, 17256, Note_on_c, 0, 58, 64
3, 17280, Note_on_c, 0, 58, 0
3, 17280, Note_on_c, 0, 57, 64
3, 17352, Note_on_c, 0, 57, 0
3, 17352, Note_on_c, 0, 50, 64
3, 17376, Note_on_c, 0, 50, 0
3, 17376, Note_on_c, 0, 49, 64
3, 17400, Note_on_c, 0, 49, 0
3, 17400, Note_on_c, 0, 50, 64
3, 17424, Note_on_c, 0, 50, 0
3, 17424, Note_on_c, 0, 52, 64
3, 17448, Note_on_c, 0, 52, 0
3, 17448, Note_on_c, 0, 50, 64
3, 17472, Note_on_c, 0, 50, 0
3, 17472, Note_on_c, 0, 52, 64
3, 17496, Note_on_c, 0, 52, 0
3, 17496, Note_on_c, 0, 53, 64
3, 17520, Note_on_c, 0, 53, 0
3, 17520, Note_on_c, 0, 52, 64
3, 17544, Note_on_c, 0, 52, 0
3, 17544, Note_on_c, 0, 53, 64
3, 17568, Note_on_c, 0, 53, 0
3, 17568, Note_on_c, 0, 55, 64
3, 17592, Note_on_c, 0, 55, 0
3, 17592, Note_on_c, 0, 53, 64
3, 17616, Note_on_c, 0, 53, 0
3, 17616, Note_on_c, 0, 55, 64
3, 17640, Note_on_c, 0, 55, 0
3, 17640, Note_on_c, 0, 57, 64
3, 17664, Note_on_c, 0, 57, 0
3, 17664, Note_on_c, 0, 55, 64
3, 17688, Note_on_c, 0, 55, 0
3, 17688, Note_on_c, 0, 57, 64
3, 17712, Note_on_c, 0, 57, 0
3, 17712, Note_on_c, 0, 58, 64
3, 17760, Note_on_c, 0, 58, 0
3, 17784, Note_on_c, 0, 57, 64
3, 17832, Note_on_c, 0, 57, 0
3, 17856, Note_on_c, 0, 55, 64
3, 17904, Note_on_c, 0, 55, 0
3, 17928, Note_on_c, 0, 55, 64
3, 17952, Note_on_c, 0, 55, 0
3, 17952, Note_on_c, 0, 53, 64
3, 18048, Note_on_c, 0, 53, 0
3, 18048, Note_on_c, 0, 52, 64
3, 18072, Note_on_c, 0, 52, 0
3, 18072, Note_on_c, 0, 53, 64
3, 18120, Note_on_c, 0, 53, 0
3, 18120, Note_on_c, 0, 55, 64
3, 18144, Note_on_c, 0, 55, 0
3, 18144, Note_on_c, 0, 57, 64
3, 18192, Note_on_c, 0, 57, 0
3, 18192, Note_on_c, 0, 67, 64
3, 18216, Note_on_c, 0, 67, 0
3, 18216, Note_on_c, 0, 65, 64
3, 18264, Note_on_c, 0, 65, 0
3, 18264, Note_on_c, 0, 57, 64
3, 18288, Note_on_c, 0, 57, 0
3, 18288, Note_on_c, 0, 55, 64
3, 18336, Note_on_c, 0, 55, 0
3, 18336, Note_on_c, 0, 64, 64
3, 18360, Note_on_c, 0, 64, 0
3, 18360, Note_on_c, 0, 62, 64
3, 18408, Note_on_c, 0, 62, 0
3, 18408, Note_on_c, 0, 53, 64
3, 18432, Note_on_c, 0, 53, 0
3, 18432, Note_on_c, 0, 52, 64
3, 18480, Note_on_c, 0, 52, 0
3, 18480, Note_on_c, 0, 62, 64
3, 18504, Note_on_c, 0, 62, 0
3, 18504, Note_on_c, 0, 61, 64
3, 18552, Note_on_c, 0, 61, 0
3, 18552, Note_on_c, 0, 52, 64
3, 18576, Note_on_c, 0, 52, 0
3, 18576, Note_on_c, 0, 52, 64
3, 18600, Note_on_c, 0, 52, 0
3, 18600, Note_on_c, 0, 50, 64
3, 18624, Note_on_c, 0, 50, 0
3, 18624, Note_on_c, 0, 49, 64
3, 18648, Note_on_c, 0, 49, 0
3, 18648, Note_on_c, 0, 50, 64
3, 18672, Note_on_c, 0, 50, 0
3, 18672, Note_on_c, 0, 52, 64
3, 18696, Note_on_c, 0, 52, 0
3, 18696, Note_on_c, 0, 53, 64
3, 18720, Note_on_c, 0, 53, 0
3, 18720, Note_on_c, 0, 55, 64
3, 18744, Note_on_c, 0, 55, 0
3, 18744, Note_on_c, 0, 57, 64
3, 18768, Note_on_c, 0, 57, 0
3, 18768, Note_on_c, 0, 58, 64
3, 18792, Note_on_c, 0, 58, 0
3, 18792, Note_on_c, 0, 58, 64
3, 18816, Note_on_c, 0, 58, 0
3, 18816, Note_on_c, 0, 57, 64
3, 18840, Note_on_c, 0, 57, 0
3, 18840, Note_on_c, 0, 55, 64
3, 18864, Note_on_c, 0, 55, 0
3, 18864, Note_on_c, 0, 57, 64
3, 18888, Note_on_c, 0, 57, 0
3, 18888, Note_on_c, 0, 59, 64
3, 18912, Note_on_c, 0, 59, 0
3, 18912, Note_on_c, 0, 61, 64
3, 18936, Note_on_c, 0, 61, 0
3, 18936, Note_on_c, 0, 62, 64
3, 18960, Note_on_c, 0, 62, 0
3, 18960, Note_on_c, 0, 64, 64
3, 18984, Note_on_c, 0, 64, 0
3, 18984, Note_on_c, 0, 65, 64
3, 19008, Note_on_c, 0, 65, 0
3, 19008, Note_on_c, 0, 65, 64
3, 19032, Note_on_c, 0, 65, 0
3, 19032, Note_on_c, 0, 62, 64
3, 19056, Note_on_c, 0, 62, 0
3, 19056, Note_on_c, 0, 64, 64
3, 19080, Note_on_c, 0, 64, 0
3, 19080, Note_on_c, 0, 64, 64
3, 19104, Note_on_c, 0, 64, 0
3, 19104, Note_on_c, 0, 61, 64
3, 19128, Note_on_c, 0, 61, 0
3, 19128, Note_on_c, 0, 62, 64
3, 19152, Note_on_c, 0, 62, 0
3, 19152, Note_on_c, 0, 62, 64
3, 19176, Note_on_c, 0, 62, 0
3, 19176, Note_on_c, 0, 59, 64
3, 19200, Note_on_c, 0, 59, 0
3, 19200, Note_on_c, 0, 60, 64
3, 19224, Note_on_c, 0, 60, 0
3, 19224, Note_on_c, 0, 60, 64
3, 19248, Note_on_c, 0, 60, 0
3, 19248, Note_on_c, 0, 57, 64
3, 19272, Note_on_c, 0, 57, 0
3, 19272, Note_on_c, 0, 58, 64
3, 19296, Note_on_c, 0, 58, 0
3, 19296, Note_on_c, 0, 58, 64
3, 19320, Note_on_c, 0, 58, 0
3, 19320, Note_on_c, 0, 55, 64
3, 19344, Note_on_c, 0, 55, 0
3, 19344, Note_on_c, 0, 57, 64
3, 19368, Note_on_c, 0, 57, 0
3, 19368, Note_on_c, 0, 57, 64
3, 19392, Note_on_c, 0, 57, 0
3, 19392, Note_on_c, 0, 53, 64
3, 19416, Note_on_c, 0, 53, 0
3, 19416, Note_on_c, 0, 55, 64
3, 19440, Note_on_c, 0, 55, 0
3, 19440, Note_on_c, 0, 53, 64
3, 19536, Note_on_c, 0, 53, 0
3, 19536, Note_on_c, 0, 55, 64
3, 19560, Note_on_c, 0, 55, 0
3, 19560, Note_on_c, 0, 57, 64
3, 19584, Note_on_c, 0, 57, 0
3, 19584, Note_on_c, 0, 58, 64
3, 19608, Note_on_c, 0, 58, 0
3, 19608, Note_on_c, 0, 57, 64
3, 19632, Note_on_c, 0, 57, 0
3, 19632, Note_on_c, 0, 55, 64
3, 19656, Note_on_c, 0, 55, 0
3, 19656, Note_on_c, 0, 62, 64
3, 19680, Note_on_c, 0, 62, 0
3, 19680, Note_on_c, 0, 61, 64
3, 19752, Note_on_c, 0, 61, 0
3, 19752, Note_on_c, 0, 62, 64
3, 19776, Note_on_c, 0, 62, 0
3, 19776, Note_on_c, 0, 64, 64
3, 19800, Note_on_c, 0, 64, 0
3, 19800, Note_on_c, 0, 65, 64
3, 19824, Note_on_c, 0, 65, 0
3, 19824, Note_on_c, 0, 64, 64
3, 19848, Note_on_c, 0, 64, 0
3, 19848, Note_on_c, 0, 62, 64
3, 19872, Note_on_c, 0, 62, 0
3, 19872, Note_on_c, 0, 69, 64
3, 19888, Note_on_c, 0, 69, 0
3, 19888, Note_on_c, 0, 68, 64
3, 19904, Note_on_c, 0, 68, 0
3, 19904, Note_on_c, 0, 69, 64
3, 19920, Note_on_c, 0, 69, 0
3, 19920, Note_on_c, 0, 68, 64
3, 19936, Note_on_c, 0, 68, 0
3, 19936, Note_on_c, 0, 69, 64
3, 19952, Note_on_c, 0, 69, 0
3, 19952, Note_on_c, 0, 68, 64
3, 19968, Note_on_c, 0, 68, 0
3, 19968, Note_on_c, 0, 69, 64
3, 19984, Note_on_c, 0, 69, 0
3, 19984, Note_on_c, 0, 68, 64
3, 20000, Note_on_c, 0, 68, 0
3, 20000, Note_on_c, 0, 69, 64
3, 20016, Note_on_c, 0, 69, 0
3, 20016, Note_on_c, 0, 68, 64
3, 20032, Note_on_c, 0, 68, 0
3, 20032, Note_on_c, 0, 69, 64
3, 20048, Note_on_c, 0, 69, 0
3, 20048, Note_on_c, 0, 68, 64
3, 20064, Note_on_c, 0, 68, 0
3, 20064, Note_on_c, 0, 66, 64
3, 20080, Note_on_c, 0, 66, 0
3, 20080, Note_on_c, 0, 68, 64
3, 20088, Note_on_c, 0, 68, 0
3, 20088, Note_on_c, 0, 69, 64
3, 20136, Note_on_c, 0, 69, 0
3, 20208, Note_on_c, 0, 61, 64
3, 20232, Note_on_c, 0, 61, 0
3, 20232, Note_on_c, 0, 62, 64
3, 20280, Note_on_c, 0, 62, 0
3, 20280, Note_on_c, 0, 64, 64
3, 20304, Note_on_c, 0, 64, 0
3, 20304, Note_on_c, 0, 57, 64
3, 20328, Note_on_c, 0, 57, 0
3, 20328, Note_on_c, 0, 59, 64
3, 20352, Note_on_c, 0, 59, 0
3, 20352, Note_on_c, 0, 61, 64
3, 20376, Note_on_c, 0, 61, 0
3, 20376, Note_on_c, 0, 62, 64
3, 20400, Note_on_c, 0, 62, 0
3, 20400, Note_on_c, 0, 64, 64
3, 20424, Note_on_c, 0, 64, 0
3, 20424, Note_on_c, 0, 65, 64
3, 20448, Note_on_c, 0, 65, 0
3, 20448, Note_on_c, 0, 55, 64
3, 20520, Note_on_c, 0, 55, 0
3, 20520, Note_on_c, 0, 55, 64
3, 20544, Note_on_c, 0, 55, 0
3, 20544, Note_on_c, 0, 67, 64
3, 20568, Note_on_c, 0, 67, 0
3, 20568, Note_on_c, 0, 65, 64
3, 20592, Note_on_c, 0, 65, 0
3, 20592, Note_on_c, 0, 64, 64
3, 20616, Note_on_c, 0, 64, 0
3, 20616, Note_on_c, 0, 62, 64
3, 20640, Note_on_c, 0, 62, 0
3, 20640, Note_on_c, 0, 61, 64
3, 20664, Note_on_c, 0, 61, 0
3, 20664, Note_on_c, 0, 62, 64
3, 20736, Note_on_c, 0, 62, 0
3, 20736, Note_on_c, 0, 62, 64
3, 20760, Note_on_c, 0, 62, 0
3, 20760, Note_on_c, 0, 59, 64
3, 20784, Note_on_c, 0, 59, 0
3, 20784, Note_on_c, 0, 61, 64
3, 20808, Note_on_c, 0, 61, 0
3, 20808, Note_on_c, 0, 62, 64
3, 20832, Note_on_c, 0, 62, 0
3, 20832, Note_on_c, 0, 64, 64
3, 20856, Note_on_c, 0, 64, 0
3, 20856, Note_on_c, 0, 65, 64
3, 20880, Note_on_c, 0, 65, 0
3, 20880, Note_on_c, 0, 64, 64
3, 20904, Note_on_c, 0, 64, 0
3, 20904, Note_on_c, 0, 65, 64
3, 20928, Note_on_c, 0, 65, 0
3, 20928, Note_on_c, 0, 62, 64
3, 20952, Note_on_c, 0, 62, 0
3, 20952, Note_on_c, 0, 61, 64
3, 20976, Note_on_c, 0, 61, 0
3, 20976, Note_on_c, 0, 62, 64
3, 21000, Note_on_c, 0, 62, 0
3, 21000, Note_on_c, 0, 64, 64
3, 21024, Note_on_c, 0, 64, 0
3, 21024, Note_on_c, 0, 57, 64
3, 21120, Note_on_c, 0, 57, 0
3, 21120, Note_on_c, 0, 58, 64
3, 21144, Note_on_c, 0, 58, 0
3, 21144, Note_on_c, 0, 55, 64
3, 21168, Note_on_c, 0, 55, 0
3, 21168, Note_on_c, 0, 53, 64
3, 21192, Note_on_c, 0, 53, 0
3, 21192, Note_on_c, 0, 55, 64
3, 21216, Note_on_c, 0, 55, 0
3, 21216, Note_on_c, 0, 52, 64
3, 21240, Note_on_c, 0, 52, 0
3, 21240, Note_on_c, 0, 53, 64
3, 21264, Note_on_c, 0, 53, 0
3, 21264, Note_on_c, 0, 57, 64
3, 21288, Note_on_c, 0, 57, 0
3, 21288, Note_on_c, 0, 62, 64
3, 21312, Note_on_c, 0, 62, 0
3, 21312, Note_on_c, 0, 60, 64
3, 21336, Note_on_c, 0, 60, 0
3, 21336, Note_on_c, 0, 58, 64
3, 21360, Note_on_c, 0, 58, 0
3, 21360, Note_on_c, 0, 57, 64
3, 21384, Note_on_c, 0, 57, 0
3, 21384, Note_on_c, 0, 58, 64
3, 21408, Note_on_c, 0, 58, 0
3, 21408, Note_on_c, 0, 62, 64
3, 21432, Note_on_c, 0, 62, 0
3, 21432, Note_on_c, 0, 67, 64
3, 21456, Note_on_c, 0, 67, 0
3, 21456, Note_on_c, 0, 61, 64
3, 21480, Note_on_c, 0, 61, 0
3, 21480, Note_on_c, 0, 64, 64
3, 21504, Note_on_c, 0, 64, 0
3, 21504, Note_on_c, 0, 57, 64
3, 21528, Note_on_c, 0, 57, 0
3, 21528, Note_on_c, 0, 58, 64
3, 21552, Note_on_c, 0, 58, 0
3, 21552, Note_on_c, 0, 57, 64
3, 21576, Note_on_c, 0, 57, 0
3, 21576, Note_on_c, 0, 55, 64
3, 21600, Note_on_c, 0, 55, 0
3, 21600, Note_on_c, 0, 53, 64
3, 21624, Note_on_c, 0, 53, 0
3, 21624, Note_on_c, 0, 55, 64
3, 21648, Note_on_c, 0, 55, 0
3, 21648, Note_on_c, 0, 52, 64
3, 21672, Note_on_c, 0, 52, 0
3, 21672, Note_on_c, 0, 53, 64
3, 21720, Note_on_c, 0, 53, 0
3, 21720, Note_on_c, 0, 62, 64
3, 21744, Note_on_c, 0, 62, 0
3, 21744, Note_on_c, 0, 55, 64
3, 21792, Note_on_c, 0, 55, 0
3, 21792, Note_on_c, 0, 53, 64
3, 21816, Note_on_c, 0, 53, 0
3, 21816, Note_on_c, 0, 52, 64
3, 21840, Note_on_c, 0, 52, 0
3, 21840, Note_on_c, 0, 57, 64
3, 21864, Note_on_c, 0, 57, 0
3, 21864, Note_on_c, 0, 55, 64
3, 21888, Note_on_c, 0, 55, 0
3, 21888, Note_on_c, 0, 53, 64
3, 21912, Note_on_c, 0, 53, 0
3, 21912, Note_on_c, 0, 52, 64
3, 21936, Note_on_c, 0, 52, 0
3, 21936, Note_on_c, 0, 50, 64
3, 21960, Note_on_c, 0, 50, 0
3, 21960, Note_on_c, 0, 50, 64
3, 21976, Note_on_c, 0, 50, 0
3, 21976, Note_on_c, 0, 49, 64
3, 21984, Note_on_c, 0, 49, 0
3, 21984, Note_on_c, 0, 50, 64
3, 21992, Note_on_c, 0, 50, 0
3, 21992, Note_on_c, 0, 49, 64
3, 22000, Note_on_c, 0, 49, 0
3, 22000, Note_on_c, 0, 50, 64
3, 22008, Note_on_c, 0, 50, 0
3, 22008, Note_on_c, 0, 49, 64
3, 22016, Note_on_c, 0, 49, 0
3, 22016, Note_on_c, 0, 47, 64
3, 22024, Note_on_c, 0, 47, 0
3, 22024, Note_on_c, 0, 49, 64
3, 22032, Note_on_c, 0, 49, 0
3, 22032, Note_on_c, 0, 50, 64
3, 22176, Note_on_c, 0, 50, 0
3, 22248, End_track
0, 0, End_of_file
