0, 0, Header, 1, 3, 96
1, 0, Start_track
1, 0, Key_signature, -1, "major"
1, 0, Time_signature, 8, 2, 24, 8
1, 0, Tempo, 399802
1, 62976, End_track
2, 0, Start_track
2, 0, Program_c, 0, 0
2, 3072, Note_on_c, 0, 72, 64
2, 3264, Note_on_c, 0, 72, 0
2, 3264, Note_on_c, 0, 65, 64
2, 3648, Note_on_c, 0, 65, 0
2, 3648, Note_on_c, 0, 69, 64
2, 3840, Note_on_c, 0, 69, 0
2, 3840, Note_on_c, 0, 69, 64
2, 4032, Note_on_c, 0, 69, 0
2, 4032, Note_on_c, 0, 72, 64
2, 4416, Note_on_c, 0, 72, 0
2, 4416, Note_on_c, 0, 74, 64
2, 4608, Note_on_c, 0, 74, 0
2, 4608, Note_on_c, 0, 74, 64
2, 4800, Note_on_c, 0, 74, 0
2, 4800, Note_on_c, 0, 72, 64
2, 5184, Note_on_c, 0, 72, 0
2, 5184, Note_on_c, 0, 70, 64
2, 5376, Note_on_c, 0, 70, 0
2, 5376, Note_on_c, 0, 70, 64
2, 5568, Note_on_c, 0, 70, 0
2, 5568, Note_on_c, 0, 69, 64
2, 5856, Note_on_c, 0, 69, 0
2, 5856, Note_on_c, 0, 69, 64
2, 5904, Note_on_c, 0, 69, 0
2, 5904, Note_on_c, 0, 67, 64
2, 5952, Note_on_c, 0, 67, 0
2, 5952, Note_on_c, 0, 69, 64
2, 6096, Note_on_c, 0, 69, 0
2, 6096, Note_on_c, 0, 71, 64
2, 6144, Note_on_c, 0, 71, 0
2, 6144, Note_on_c, 0, 72, 64
2, 6208, Note_on_c, 0, 72, 0
2, 6208, Note_on_c, 0, 70, 64
2, 6272, Note_on_c, 0, 70, 0
2, 6272, Note_on_c, 0, 72, 64
2, 6336, Note_on_c, 0, 72, 0
2, 6336, Note_on_c, 0, 74, 64
2, 6400, Note_on_c, 0, 74, 0
2, 6400, Note_on_c, 0, 72, 64
2, 6464, Note_on_c, 0, 72, 0
2, 6464, Note_on_c, 0, 70, 64
2, 6528, Note_on_c, 0, 70, 0
2, 6528, Note_on_c, 0, 69, 64
2, 6592, Note_on_c, 0, 69, 0
2, 6592, Note_on_c, 0, 70, 64
2, 6656, Note_on_c, 0, 70, 0
2, 6656, Note_on_c, 0, 67, 64
2, 6720, Note_on_c, 0, 67, 0
2, 6720, Note_on_c, 0, 65, 64
2, 6784, Note_on_c, 0, 65, 0
2, 6784, Note_on_c, 0, 67, 64
2, 6848, Note_on_c, 0, 67, 0
2, 6848, Note_on_c, 0, 64, 64
2, 6912, Note_on_c, 0, 64, 0
2, 6912, Note_on_c, 0, 65, 64
2, 6976, Note_on_c, 0, 65, 0
2, 6976, Note_on_c, 0, 72, 64
2, 7040, Note_on_c, 0, 72, 0
2, 7040, Note_on_c, 0, 77, 64
2, 7104, Note_on_c, 0, 77, 0
2, 7104, Note_on_c, 0, 76, 64
2, 7168, Note_on_c, 0, 76, 0
2, 7168, Note_on_c, 0, 77, 64
2, 7232, Note_on_c, 0, 77, 0
2, 7232, Note_on_c, 0, 74, 64
2, 7296, Note_on_c, 0, 74, 0
2, 7296, Note_on_c, 0, 72, 64
2, 7360, Note_on_c, 0, 72, 0
2, 7360, Note_on_c, 0, 74, 64
2, 7424, Note_on_c, 0, 74, 0
2, 7424, Note_on_c, 0, 70, 64
2, 7488, Note_on_c, 0, 70, 0
2, 7488, Note_on_c, 0, 69, 64
2, 7552, Note_on_c, 0, 69, 0
2, 7552, Note_on_c, 0, 70, 64
2, 7616, Note_on_c, 0, 70, 0
2, 7616, Note_on_c, 0, 67, 64
2, 7680, Note_on_c, 0, 67, 0
2, 7680, Note_on_c, 0, 69, 64
2, 7744, Note_on_c, 0, 69, 0
2, 7744, Note_on_c, 0, 65, 64
2, 7808, Note_on_c, 0, 65, 0
2, 7808, Note_on_c, 0, 67, 64
2, 7872, Note_on_c, 0, 67, 0
2, 7872, Note_on_c, 0, 69, 64
2, 7936, Note_on_c, 0, 69, 0
2, 7936, Note_on_c, 0, 72, 64
2, 8000, Note_on_c, 0, 72, 0
2, 8000, Note_on_c, 0, 70, 64
2, 8064, Note_on_c, 0, 70, 0
2, 8064, Note_on_c, 0, 72, 64
2, 8128, Note_on_c, 0, 72, 0
2, 8128, Note_on_c, 0, 74, 64
2, 8192, Note_on_c, 0, 74, 0
2, 8192, Note_on_c, 0, 76, 64
2, 8256, Note_on_c, 0, 76, 0
2, 8256, Note_on_c, 0, 77, 64
2, 8320, Note_on_c, 0, 77, 0
2, 8320, Note_on_c, 0, 79, 64
2, 8384, Note_on_c, 0, 79, 0
2, 8384, Note_on_c, 0, 76, 64
2, 8448, Note_on_c, 0, 76, 0
2, 8448, Note_on_c, 0, 77, 64
2, 8512, Note_on_c, 0, 77, 0
2, 8512, Note_on_c, 0, 65, 64
2, 8576, Note_on_c, 0, 65, 0
2, 8576, Note_on_c, 0, 77, 64
2, 8704, Note_on_c, 0, 77, 0
2, 8704, Note_on_c, 0, 76, 64
2, 8768, Note_on_c, 0, 76, 0
2, 8768, Note_on_c, 0, 79, 64
2, 8832, Note_on_c, 0, 79, 0
2, 8832, Note_on_c, 0, 77, 64
2, 8896, Note_on_c, 0, 77, 0
2, 8896, Note_on_c, 0, 79, 64
2, 8960, Note_on_c, 0, 79, 0
2, 8960, Note_on_c, 0, 81, 64
2, 9024, Note_on_c, 0, 81, 0
2, 9024, Note_on_c, 0, 79, 64
2, 9088, Note_on_c, 0, 79, 0
2, 9088, Note_on_c, 0, 81, 64
2, 9152, Note_on_c, 0, 81, 0
2, 9152, Note_on_c, 0, 77, 64
2, 9216, Note_on_c, 0, 77, 0
2, 9216, Note_on_c, 0, 76, 64
2, 9408, Note_on_c, 0, 76, 0
2, 9408, Note_on_c, 0, 69, 64
2, 9792, Note_on_c, 0, 69, 0
2, 9792, Note_on_c, 0, 72, 64
2, 9984, Note_on_c, 0, 72, 0
2, 9984, Note_on_c, 0, 72, 64
2, 10176, Note_on_c, 0, 72, 0
2, 10176, Note_on_c, 0, 76, 64
2, 10560, Note_on_c, 0, 76, 0
2, 10560, Note_on_c, 0, 77, 64
2, 10752, Note_on_c, 0, 77, 0
2, 10752, Note_on_c, 0, 77, 64
2, 10944, Note_on_c, 0, 77, 0
2, 10944, Note_on_c, 0, 76, 64
2, 11328, Note_on_c, 0, 76, 0
2, 11328, Note_on_c, 0, 74, 64
2, 11520, Note_on_c, 0, 74, 0
2, 11520, Note_on_c, 0, 74, 64
2, 11712, Note_on_c, 0, 74, 0
2, 11712, Note_on_c, 0, 72, 64
2, 12000, Note_on_c, 0, 72, 0
2, 12000, Note_on_c, 0, 72, 64
2, 12048, Note_on_c, 0, 72, 0
2, 12048, Note_on_c, 0, 71, 64
2, 12096, Note_on_c, 0, 71, 0
2, 12096, Note_on_c, 0, 72, 64
2, 12240, Note_on_c, 0, 72, 0
2, 12240, Note_on_c, 0, 74, 64
2, 12288, Note_on_c, 0, 74, 0
2, 12288, Note_on_c, 0, 76, 64
2, 12352, Note_on_c, 0, 76, 0
2, 12352, Note_on_c, 0, 74, 64
2, 12416, Note_on_c, 0, 74, 0
2, 12416, Note_on_c, 0, 76, 64
2, 12544, Note_on_c, 0, 76, 0
2, 12544, Note_on_c, 0, 77, 64
2, 12608, Note_on_c, 0, 77, 0
2, 12608, Note_on_c, 0, 79, 64
2, 12672, Note_on_c, 0, 79, 0
2, 12672, Note_on_c, 0, 77, 64
2, 12736, Note_on_c, 0, 77, 0
2, 12736, Note_on_c, 0, 79, 64
2, 12800, Note_on_c, 0, 79, 0
2, 12800, Note_on_c, 0, 81, 64
2, 12864, Note_on_c, 0, 81, 0
2, 12864, Note_on_c, 0, 79, 64
2, 12928, Note_on_c, 0, 79, 0
2, 12928, Note_on_c, 0, 81, 64
2, 12992, Note_on_c, 0, 81, 0
2, 12992, Note_on_c, 0, 82, 64
2, 13056, Note_on_c, 0, 82, 0
2, 13056, Note_on_c, 0, 81, 64
2, 13120, Note_on_c, 0, 81, 0
2, 13120, Note_on_c, 0, 82, 64
2, 13184, Note_on_c, 0, 82, 0
2, 13184, Note_on_c, 0, 84, 64
2, 13248, Note_on_c, 0, 84, 0
2, 13248, Note_on_c, 0, 82, 64
2, 13312, Note_on_c, 0, 82, 0
2, 13312, Note_on_c, 0, 84, 64
2, 13376, Note_on_c, 0, 84, 0
2, 13376, Note_on_c, 0, 86, 64
2, 13440, Note_on_c, 0, 86, 0
2, 13440, Note_on_c, 0, 84, 64
2, 13504, Note_on_c, 0, 84, 0
2, 13504, Note_on_c, 0, 82, 64
2, 13568, Note_on_c, 0, 82, 0
2, 13568, Note_on_c, 0, 84, 64
2, 13696, Note_on_c, 0, 84, 0
2, 13696, Note_on_c, 0, 81, 64
2, 13760, Note_on_c, 0, 81, 0
2, 13760, Note_on_c, 0, 77, 64
2, 13824, Note_on_c, 0, 77, 0
2, 13824, Note_on_c, 0, 74, 64
2, 13888, Note_on_c, 0, 74, 0
2, 13888, Note_on_c, 0, 72, 64
2, 13952, Note_on_c, 0, 72, 0
2, 13952, Note_on_c, 0, 74, 64
2, 14080, Note_on_c, 0, 74, 0
2, 14080, Note_on_c, 0, 82, 64
2, 14144, Note_on_c, 0, 82, 0
2, 14144, Note_on_c, 0, 74, 64
2, 14208, Note_on_c, 0, 74, 0
2, 14208, Note_on_c, 0, 72, 64
2, 14272, Note_on_c, 0, 72, 0
2, 14272, Note_on_c, 0, 70, 64
2, 14336, Note_on_c, 0, 70, 0
2, 14336, Note_on_c, 0, 72, 64
2, 14464, Note_on_c, 0, 72, 0
2, 14464, Note_on_c, 0, 81, 64
2, 14528, Note_on_c, 0, 81, 0
2, 14528, Note_on_c, 0, 72, 64
2, 14592, Note_on_c, 0, 72, 0
2, 14592, Note_on_c, 0, 70, 64
2, 14656, Note_on_c, 0, 70, 0
2, 14656, Note_on_c, 0, 69, 64
2, 14720, Note_on_c, 0, 69, 0
2, 14720, Note_on_c, 0, 70, 64
2, 14848, Note_on_c, 0, 70, 0
2, 14848, Note_on_c, 0, 79, 64
2, 14912, Note_on_c, 0, 79, 0
2, 14912, Note_on_c, 0, 70, 64
2, 14976, Note_on_c, 0, 70, 0
2, 14976, Note_on_c, 0, 69, 64
2, 15040, Note_on_c, 0, 69, 0
2, 15040, Note_on_c, 0, 67, 64
2, 15104, Note_on_c, 0, 67, 0
2, 15104, Note_on_c, 0, 69, 64
2, 15232, Note_on_c, 0, 69, 0
2, 15232, Note_on_c, 0, 67, 64
2, 15296, Note_on_c, 0, 67, 0
2, 15296, Note_on_c, 0, 65, 64
2, 15360, Note_on_c, 0, 65, 0
2, 15360, Note_on_c, 0, 70, 64
2, 15504, Note_on_c, 0, 70, 0
2, 15504, Note_on_c, 0, 67, 64
2, 15552, Note_on_c, 0, 67, 0
2, 15552, Note_on_c, 0, 64, 64
2, 15744, Note_on_c, 0, 64, 0
2, 15936, Note_on_c, 0, 76, 64
2, 16128, Note_on_c, 0, 76, 0
2, 16128, Note_on_c, 0, 76, 64
2, 16192, Note_on_c, 0, 76, 0
2, 16192, Note_on_c, 0, 74, 64
2, 16224, Note_on_c, 0, 74, 0
2, 16224, Note_on_c, 0, 73, 64
2, 16256, Note_on_c, 0, 73, 0
2, 16256, Note_on_c, 0, 71, 64
2, 16288, Note_on_c, 0, 71, 0
2, 16288, Note_on_c, 0, 69, 64
2, 16320, Note_on_c, 0, 69, 0
2, 16320, Note_on_c, 0, 79, 64
2, 16608, Note_on_c, 0, 79, 0
2, 16608, Note_on_c, 0, 79, 64
2, 16656, Note_on_c, 0, 79, 0
2, 16656, Note_on_c, 0, 76, 64
2, 16704, Note_on_c, 0, 76, 0
2, 16704, Note_on_c, 0, 81, 64
2, 16896, Note_on_c, 0, 81, 0
2, 16896, Note_on_c, 0, 81, 64
2, 17088, Note_on_c, 0, 81, 0
2, 17088, Note_on_c, 0, 80, 64
2, 17280, Note_on_c, 0, 80, 0
2, 17280, Note_on_c, 0, 79, 64
2, 17472, Note_on_c, 0, 79, 0
2, 17472, Note_on_c, 0, 78, 64
2, 17664, Note_on_c, 0, 78, 0
2, 17664, Note_on_c, 0, 77, 64
2, 17856, Note_on_c, 0, 77, 0
2, 17856, Note_on_c, 0, 76, 64
2, 18144, Note_on_c, 0, 76, 0
2, 18144, Note_on_c, 0, 76, 64
2, 18192, Note_on_c, 0, 76, 0
2, 18192, Note_on_c, 0, 81, 64
2, 18240, Note_on_c, 0, 81, 0
2, 18240, Note_on_c, 0, 74, 64
2, 18304, Note_on_c, 0, 74, 0
2, 18304, Note_on_c, 0, 76, 64
2, 18368, Note_on_c, 0, 76, 0
2, 18368, Note_on_c, 0, 77, 64
2, 18432, Note_on_c, 0, 77, 0
2, 18432, Note_on_c, 0, 77, 64
2, 18496, Note_on_c, 0, 77, 0
2, 18496, Note_on_c, 0, 76, 64
2, 18528, Note_on_c, 0, 76, 0
2, 18528, Note_on_c, 0, 74, 64
2, 18560, Note_on_c, 0, 74, 0
2, 18560, Note_on_c, 0, 76, 64
2, 18624, Note_on_c, 0, 76, 0
2, 18688, Note_on_c, 0, 86, 64
2, 18720, Note_on_c, 0, 86, 0
2, 18720, Note_on_c, 0, 84, 64
2, 18752, Note_on_c, 0, 84, 0
2, 18752, Note_on_c, 0, 82, 64
2, 18784, Note_on_c, 0, 82, 0
2, 18784, Note_on_c, 0, 81, 64
2, 18816, Note_on_c, 0, 81, 0
2, 18816, Note_on_c, 0, 79, 64
2, 18848, Note_on_c, 0, 79, 0
2, 18848, Note_on_c, 0, 81, 64
2, 18880, Note_on_c, 0, 81, 0
2, 18880, Note_on_c, 0, 82, 64
2, 18912, Note_on_c, 0, 82, 0
2, 18912, Note_on_c, 0, 81, 64
2, 18944, Note_on_c, 0, 81, 0
2, 18944, Note_on_c, 0, 79, 64
2, 18976, Note_on_c, 0, 79, 0
2, 18976, Note_on_c, 0, 77, 64
2, 19008, Note_on_c, 0, 77, 0
2, 19008, Note_on_c, 0, 76, 64
2, 19072, Note_on_c, 0, 76, 0
2, 19072, Note_on_c, 0, 79, 64
2, 19136, Note_on_c, 0, 79, 0
2, 19136, Note_on_c, 0, 82, 64
2, 19200, Note_on_c, 0, 82, 0
2, 19200, Note_on_c, 0, 73, 64
2, 19264, Note_on_c, 0, 73, 0
2, 19264, Note_on_c, 0, 76, 64
2, 19328, Note_on_c, 0, 76, 0
2, 19328, Note_on_c, 0, 79, 64
2, 19392, Note_on_c, 0, 79, 0
2, 19456, Note_on_c, 0, 76, 64
2, 19520, Note_on_c, 0, 76, 0
2, 19520, Note_on_c, 0, 77, 64
2, 19584, Note_on_c, 0, 77, 0
2, 19584, Note_on_c, 0, 79, 64
2, 19648, Note_on_c, 0, 79, 0
2, 19648, Note_on_c, 0, 81, 64
2, 19712, Note_on_c, 0, 81, 0
2, 19712, Note_on_c, 0, 82, 64
2, 19808, Note_on_c, 0, 82, 0
2, 19808, Note_on_c, 0, 81, 64
2, 19840, Note_on_c, 0, 81, 0
2, 19840, Note_on_c, 0, 79, 64
2, 19872, Note_on_c, 0, 79, 0
2, 19872, Note_on_c, 0, 81, 64
2, 19904, Note_on_c, 0, 81, 0
2, 19904, Note_on_c, 0, 82, 64
2, 19936, Note_on_c, 0, 82, 0
2, 19936, Note_on_c, 0, 79, 64
2, 19968, Note_on_c, 0, 79, 0
2, 19968, Note_on_c, 0, 81, 64
2, 20000, Note_on_c, 0, 81, 0
2, 20000, Note_on_c, 0, 79, 64
2, 20032, Note_on_c, 0, 79, 0
2, 20032, Note_on_c, 0, 77, 64
2, 20064, Note_on_c, 0, 77, 0
2, 20064, Note_on_c, 0, 76, 64
2, 20096, Note_on_c, 0, 76, 0
2, 20096, Note_on_c, 0, 77, 64
2, 20224, Note_on_c, 0, 77, 0
2, 20224, Note_on_c, 0, 76, 64
2, 20288, Note_on_c, 0, 76, 0
2, 20288, Note_on_c, 0, 75, 64
2, 20352, Note_on_c, 0, 75, 0
2, 20352, Note_on_c, 0, 76, 64
2, 20384, Note_on_c, 0, 76, 0
2, 20384, Note_on_c, 0, 74, 64
2, 20416, Note_on_c, 0, 74, 0
2, 20416, Note_on_c, 0, 72, 64
2, 20448, Note_on_c, 0, 72, 0
2, 20448, Note_on_c, 0, 74, 64
2, 20480, Note_on_c, 0, 74, 0
2, 20480, Note_on_c, 0, 75, 64
2, 20608, Note_on_c, 0, 75, 0
2, 20608, Note_on_c, 0, 74, 64
2, 20672, Note_on_c, 0, 74, 0
2, 20672, Note_on_c, 0, 73, 64
2, 20736, Note_on_c, 0, 73, 0
2, 20736, Note_on_c, 0, 74, 64
2, 20768, Note_on_c, 0, 74, 0
2, 20768, Note_on_c, 0, 72, 64
2, 20800, Note_on_c, 0, 72, 0
2, 20800, Note_on_c, 0, 70, 64
2, 20832, Note_on_c, 0, 70, 0
2, 20832, Note_on_c, 0, 72, 64
2, 20864, Note_on_c, 0, 72, 0
2, 20864, Note_on_c, 0, 73, 64
2, 20992, Note_on_c, 0, 73, 0
2, 20992, Note_on_c, 0, 72, 64
2, 21056, Note_on_c, 0, 72, 0
2, 21056, Note_on_c, 0, 71, 64
2, 21120, Note_on_c, 0, 71, 0
2, 21120, Note_on_c, 0, 72, 64
2, 21408, Note_on_c, 0, 72, 0
2, 21456, Note_on_c, 0, 83, 64
2, 21504, Note_on_c, 0, 83, 0
2, 21504, Note_on_c, 0, 84, 64
2, 21648, Note_on_c, 0, 84, 0
2, 21648, Note_on_c, 0, 72, 64
2, 21696, Note_on_c, 0, 72, 0
2, 21696, Note_on_c, 0, 77, 64
2, 21952, Note_on_c, 0, 77, 0
2, 21952, Note_on_c, 0, 76, 64
2, 22016, Note_on_c, 0, 76, 0
2, 22016, Note_on_c, 0, 77, 64
2, 22080, Note_on_c, 0, 77, 0
2, 22080, Note_on_c, 0, 82, 64
2, 22272, Note_on_c, 0, 82, 0
2, 22272, Note_on_c, 0, 82, 64
2, 22336, Note_on_c, 0, 82, 0
2, 22336, Note_on_c, 0, 81, 64
2, 22368, Note_on_c, 0, 81, 0
2, 22368, Note_on_c, 0, 79, 64
2, 22400, Note_on_c, 0, 79, 0
2, 22400, Note_on_c, 0, 77, 64
2, 22432, Note_on_c, 0, 77, 0
2, 22432, Note_on_c, 0, 76, 64
2, 22464, Note_on_c, 0, 76, 0
2, 22464, Note_on_c, 0, 86, 64
2, 22752, Note_on_c, 0, 86, 0
2, 22752, Note_on_c, 0, 86, 64
2, 22800, Note_on_c, 0, 86, 0
2, 22800, Note_on_c, 0, 77, 64
2, 22848, Note_on_c, 0, 77, 0
2, 22848, Note_on_c, 0, 76, 64
2, 22912, Note_on_c, 0, 76, 0
2, 22912, Note_on_c, 0, 77, 64
2, 22976, Note_on_c, 0, 77, 0
2, 22976, Note_on_c, 0, 79, 64
2, 23040, Note_on_c, 0, 79, 0
2, 23040, Note_on_c, 0, 79, 64
2, 23104, Note_on_c, 0, 79, 0
2, 23104, Note_on_c, 0, 84, 64
2, 23168, Note_on_c, 0, 84, 0
2, 23168, Note_on_c, 0, 77, 64
2, 23232, Note_on_c, 0, 77, 0
2, 23232, Note_on_c, 0, 82, 64
2, 23520, Note_on_c, 0, 82, 0
2, 23520, Note_on_c, 0, 82, 64
2, 23568, Note_on_c, 0, 82, 0
2, 23568, Note_on_c, 0, 72, 64
2, 23616, Note_on_c, 0, 72, 0
2, 23616, Note_on_c, 0, 81, 64
2, 23808, Note_on_c, 0, 81, 0
2, 23808, Note_on_c, 0, 81, 64
2, 23952, Note_on_c, 0, 81, 0
2, 23952, Note_on_c, 0, 70, 64
2, 24000, Note_on_c, 0, 70, 0
2, 24000, Note_on_c, 0, 79, 64
2, 24256, Note_on_c, 0, 79, 0
2, 24256, Note_on_c, 0, 77, 64
2, 24320, Note_on_c, 0, 77, 0
2, 24320, Note_on_c, 0, 76, 64
2, 24384, Note_on_c, 0, 76, 0
2, 24384, Note_on_c, 0, 77, 64
2, 24448, Note_on_c, 0, 77, 0
2, 24448, Note_on_c, 0, 79, 64
2, 24512, Note_on_c, 0, 79, 0
2, 24512, Note_on_c, 0, 81, 64
2, 24576, Note_on_c, 0, 81, 0
2, 24576, Note_on_c, 0, 79, 64
2, 24640, Note_on_c, 0, 79, 0
2, 24640, Note_on_c, 0, 73, 64
2, 24704, Note_on_c, 0, 73, 0
2, 24800, Note_on_c, 0, 86, 64
2, 24832, Note_on_c, 0, 86, 0
2, 24832, Note_on_c, 0, 85, 64
2, 24864, Note_on_c, 0, 85, 0
2, 24864, Note_on_c, 0, 83, 64
2, 24896, Note_on_c, 0, 83, 0
2, 24896, Note_on_c, 0, 81, 64
2, 24928, Note_on_c, 0, 81, 0
2, 24928, Note_on_c, 0, 79, 64
2, 24960, Note_on_c, 0, 79, 0
2, 24960, Note_on_c, 0, 77, 64
2, 25152, Note_on_c, 0, 77, 0
2, 25152, Note_on_c, 0, 77, 64
2, 25184, Note_on_c, 0, 77, 0
2, 25184, Note_on_c, 0, 81, 64
2, 25216, Note_on_c, 0, 81, 0
2, 25216, Note_on_c, 0, 82, 64
2, 25248, Note_on_c, 0, 82, 0
2, 25248, Note_on_c, 0, 81, 64
2, 25280, Note_on_c, 0, 81, 0
2, 25280, Note_on_c, 0, 79, 64
2, 25312, Note_on_c, 0, 79, 0
2, 25312, Note_on_c, 0, 77, 64
2, 25344, Note_on_c, 0, 77, 0
2, 25344, Note_on_c, 0, 76, 64
2, 25408, Note_on_c, 0, 76, 0
2, 25408, Note_on_c, 0, 77, 64
2, 25472, Note_on_c, 0, 77, 0
2, 25472, Note_on_c, 0, 79, 64
2, 25536, Note_on_c, 0, 79, 0
2, 25536, Note_on_c, 0, 81, 64
2, 25568, Note_on_c, 0, 81, 0
2, 25568, Note_on_c, 0, 79, 64
2, 25600, Note_on_c, 0, 79, 0
2, 25600, Note_on_c, 0, 77, 64
2, 25632, Note_on_c, 0, 77, 0
2, 25632, Note_on_c, 0, 79, 64
2, 25664, Note_on_c, 0, 79, 0
2, 25664, Note_on_c, 0, 81, 64
2, 25728, Note_on_c, 0, 81, 0
2, 25728, Note_on_c, 0, 83, 64
2, 25792, Note_on_c, 0, 83, 0
2, 25792, Note_on_c, 0, 85, 64
2, 25856, Note_on_c, 0, 85, 0
2, 25856, Note_on_c, 0, 86, 64
2, 25984, Note_on_c, 0, 86, 0
2, 25984, Note_on_c, 0, 84, 64
2, 26048, Note_on_c, 0, 84, 0
2, 26048, Note_on_c, 0, 83, 64
2, 26112, Note_on_c, 0, 83, 0
2, 26112, Note_on_c, 0, 84, 64
2, 26144, Note_on_c, 0, 84, 0
2, 26144, Note_on_c, 0, 83, 64
2, 26176, Note_on_c, 0, 83, 0
2, 26176, Note_on_c, 0, 81, 64
2, 26208, Note_on_c, 0, 81, 0
2, 26208, Note_on_c, 0, 80, 64
2, 26240, Note_on_c, 0, 80, 0
2, 26240, Note_on_c, 0, 81, 64
2, 26368, Note_on_c, 0, 81, 0
2, 26368, Note_on_c, 0, 82, 64
2, 26432, Note_on_c, 0, 82, 0
2, 26432, Note_on_c, 0, 81, 64
2, 26496, Note_on_c, 0, 81, 0
2, 26496, Note_on_c, 0, 79, 64
2, 26560, Note_on_c, 0, 79, 0
2, 26560, Note_on_c, 0, 78, 64
2, 26624, Note_on_c, 0, 78, 0
2, 26624, Note_on_c, 0, 79, 64
2, 26752, Note_on_c, 0, 79, 0
2, 26752, Note_on_c, 0, 77, 64
2, 26784, Note_on_c, 0, 77, 0
2, 26784, Note_on_c, 0, 76, 64
2, 26816, Note_on_c, 0, 76, 0
2, 26816, Note_on_c, 0, 74, 64
2, 26848, Note_on_c, 0, 74, 0
2, 26848, Note_on_c, 0, 73, 64
2, 26880, Note_on_c, 0, 73, 0
2, 26880, Note_on_c, 0, 77, 64
2, 26944, Note_on_c, 0, 77, 0
2, 26944, Note_on_c, 0, 76, 64
2, 27008, Note_on_c, 0, 76, 0
2, 27008, Note_on_c, 0, 77, 64
2, 27136, Note_on_c, 0, 77, 0
2, 27136, Note_on_c, 0, 79, 64
2, 27200, Note_on_c, 0, 79, 0
2, 27200, Note_on_c, 0, 77, 64
2, 27264, Note_on_c, 0, 77, 0
2, 27264, Note_on_c, 0, 76, 64
2, 27328, Note_on_c, 0, 76, 0
2, 27328, Note_on_c, 0, 77, 64
2, 27392, Note_on_c, 0, 77, 0
2, 27392, Note_on_c, 0, 79, 64
2, 27456, Note_on_c, 0, 79, 0
2, 27456, Note_on_c, 0, 72, 64
2, 27520, Note_on_c, 0, 72, 0
2, 27520, Note_on_c, 0, 76, 64
2, 27584, Note_on_c, 0, 76, 0
2, 27584, Note_on_c, 0, 74, 64
2, 27648, Note_on_c, 0, 74, 0
2, 27648, Note_on_c, 0, 76, 64
2, 27680, Note_on_c, 0, 76, 0
2, 27680, Note_on_c, 0, 77, 64
2, 27712, Note_on_c, 0, 77, 0
2, 27712, Note_on_c, 0, 79, 64
2, 27744, Note_on_c, 0, 79, 0
2, 27744, Note_on_c, 0, 81, 64
2, 27776, Note_on_c, 0, 81, 0
2, 27776, Note_on_c, 0, 82, 64
2, 27808, Note_on_c, 0, 82, 0
2, 27808, Note_on_c, 0, 79, 64
2, 27840, Note_on_c, 0, 79, 0
2, 27840, Note_on_c, 0, 81, 64
2, 27872, Note_on_c, 0, 81, 0
2, 27872, Note_on_c, 0, 82, 64
2, 27904, Note_on_c, 0, 82, 0
2, 27904, Note_on_c, 0, 84, 64
2, 27968, Note_on_c, 0, 84, 0
2, 27968, Note_on_c, 0, 76, 64
2, 28032, Note_on_c, 0, 76, 0
2, 28032, Note_on_c, 0, 77, 64
2, 28064, Note_on_c, 0, 77, 0
2, 28064, Note_on_c, 0, 81, 64
2, 28096, Note_on_c, 0, 81, 0
2, 28096, Note_on_c, 0, 79, 64
2, 28128, Note_on_c, 0, 79, 0
2, 28128, Note_on_c, 0, 77, 64
2, 28160, Note_on_c, 0, 77, 0
2, 28160, Note_on_c, 0, 76, 64
2, 28192, Note_on_c, 0, 76, 0
2, 28192, Note_on_c, 0, 74, 64
2, 28224, Note_on_c, 0, 74, 0
2, 28224, Note_on_c, 0, 72, 64
2, 28288, Note_on_c, 0, 72, 0
2, 28288, Note_on_c, 0, 76, 64
2, 28352, Note_on_c, 0, 76, 0
2, 28352, Note_on_c, 0, 79, 64
2, 28416, Note_on_c, 0, 79, 0
2, 28416, Note_on_c, 0, 84, 64
2, 28800, Note_on_c, 0, 84, 0
2, 28800, Note_on_c, 0, 84, 64
2, 28864, Note_on_c, 0, 84, 0
2, 28864, Note_on_c, 0, 82, 64
2, 28928, Note_on_c, 0, 82, 0
2, 28928, Note_on_c, 0, 81, 64
2, 28992, Note_on_c, 0, 81, 0
2, 28992, Note_on_c, 0, 79, 64
2, 29184, Note_on_c, 0, 79, 0
2, 29184, Note_on_c, 0, 79, 64
2, 29328, Note_on_c, 0, 79, 0
2, 29328, Note_on_c, 0, 84, 64
2, 29376, Note_on_c, 0, 84, 0
2, 29376, Note_on_c, 0, 77, 64
2, 29664, Note_on_c, 0, 77, 0
2, 29664, Note_on_c, 0, 77, 64
2, 29712, Note_on_c, 0, 77, 0
2, 29712, Note_on_c, 0, 86, 64
2, 29760, Note_on_c, 0, 86, 0
2, 29760, Note_on_c, 0, 76, 64
2, 29824, Note_on_c, 0, 76, 0
2, 29824, Note_on_c, 0, 79, 64
2, 29888, Note_on_c, 0, 79, 0
2, 29888, Note_on_c, 0, 85, 64
2, 29952, Note_on_c, 0, 85, 0
2, 29952, Note_on_c, 0, 69, 64
2, 30144, Note_on_c, 0, 69, 0
2, 30144, Note_on_c, 0, 62, 64
2, 30528, Note_on_c, 0, 62, 0
2, 30528, Note_on_c, 0, 65, 64
2, 30720, Note_on_c, 0, 65, 0
2, 30720, Note_on_c, 0, 65, 64
2, 30912, Note_on_c, 0, 65, 0
2, 30912, Note_on_c, 0, 69, 64
2, 31296, Note_on_c, 0, 69, 0
2, 31296, Note_on_c, 0, 70, 64
2, 31488, Note_on_c, 0, 70, 0
2, 31488, Note_on_c, 0, 70, 64
2, 31680, Note_on_c, 0, 70, 0
2, 31680, Note_on_c, 0, 69, 64
2, 32064, Note_on_c, 0, 69, 0
2, 32064, Note_on_c, 0, 67, 64
2, 32256, Note_on_c, 0, 67, 0
2, 32256, Note_on_c, 0, 67, 64
2, 32448, Note_on_c, 0, 67, 0
2, 32448, Note_on_c, 0, 65, 64
2, 32736, Note_on_c, 0, 65, 0
2, 32736, Note_on_c, 0, 65, 64
2, 32784, Note_on_c, 0, 65, 0
2, 32784, Note_on_c, 0, 64, 64
2, 32832, Note_on_c, 0, 64, 0
2, 32832, Note_on_c, 0, 65, 64
2, 32976, Note_on_c, 0, 65, 0
2, 32976, Note_on_c, 0, 67, 64
2, 33024, Note_on_c, 0, 67, 0
2, 33024, Note_on_c, 0, 69, 64
2, 33088, Note_on_c, 0, 69, 0
2, 33088, Note_on_c, 0, 67, 64
2, 33152, Note_on_c, 0, 67, 0
2, 33152, Note_on_c, 0, 69, 64
2, 33216, Note_on_c, 0, 69, 0
2, 33216, Note_on_c, 0, 70, 64
2, 33280, Note_on_c, 0, 70, 0
2, 33280, Note_on_c, 0, 69, 64
2, 33344, Note_on_c, 0, 69, 0
2, 33344, Note_on_c, 0, 67, 64
2, 33408, Note_on_c, 0, 67, 0
2, 33408, Note_on_c, 0, 65, 64
2, 33472, Note_on_c, 0, 65, 0
2, 33472, Note_on_c, 0, 67, 64
2, 33536, Note_on_c, 0, 67, 0
2, 33536, Note_on_c, 0, 64, 64
2, 33600, Note_on_c, 0, 64, 0
2, 33600, Note_on_c, 0, 62, 64
2, 33664, Note_on_c, 0, 62, 0
2, 33664, Note_on_c, 0, 64, 64
2, 33728, Note_on_c, 0, 64, 0
2, 33728, Note_on_c, 0, 61, 64
2, 33792, Note_on_c, 0, 61, 0
2, 33792, Note_on_c, 0, 62, 64
2, 33856, Note_on_c, 0, 62, 0
2, 33856, Note_on_c, 0, 69, 64
2, 33920, Note_on_c, 0, 69, 0
2, 33920, Note_on_c, 0, 74, 64
2, 33984, Note_on_c, 0, 74, 0
2, 33984, Note_on_c, 0, 72, 64
2, 34048, Note_on_c, 0, 72, 0
2, 34048, Note_on_c, 0, 74, 64
2, 34112, Note_on_c, 0, 74, 0
2, 34112, Note_on_c, 0, 70, 64
2, 34176, Note_on_c, 0, 70, 0
2, 34176, Note_on_c, 0, 69, 64
2, 34240, Note_on_c, 0, 69, 0
2, 34240, Note_on_c, 0, 70, 64
2, 34304, Note_on_c, 0, 70, 0
2, 34304, Note_on_c, 0, 67, 64
2, 34368, Note_on_c, 0, 67, 0
2, 34368, Note_on_c, 0, 65, 64
2, 34432, Note_on_c, 0, 65, 0
2, 34432, Note_on_c, 0, 67, 64
2, 34496, Note_on_c, 0, 67, 0
2, 34496, Note_on_c, 0, 64, 64
2, 34560, Note_on_c, 0, 64, 0
2, 34560, Note_on_c, 0, 65, 64
2, 34624, Note_on_c, 0, 65, 0
2, 34624, Note_on_c, 0, 62, 64
2, 34688, Note_on_c, 0, 62, 0
2, 34688, Note_on_c, 0, 64, 64
2, 34752, Note_on_c, 0, 64, 0
2, 34752, Note_on_c, 0, 65, 64
2, 34816, Note_on_c, 0, 65, 0
2, 34816, Note_on_c, 0, 69, 64
2, 34880, Note_on_c, 0, 69, 0
2, 34880, Note_on_c, 0, 67, 64
2, 34944, Note_on_c, 0, 67, 0
2, 34944, Note_on_c, 0, 69, 64
2, 35008, Note_on_c, 0, 69, 0
2, 35008, Note_on_c, 0, 71, 64
2, 35072, Note_on_c, 0, 71, 0
2, 35072, Note_on_c, 0, 73, 64
2, 35136, Note_on_c, 0, 73, 0
2, 35136, Note_on_c, 0, 74, 64
2, 35200, Note_on_c, 0, 74, 0
2, 35200, Note_on_c, 0, 76, 64
2, 35264, Note_on_c, 0, 76, 0
2, 35264, Note_on_c, 0, 73, 64
2, 35328, Note_on_c, 0, 73, 0
2, 35328, Note_on_c, 0, 74, 64
2, 35392, Note_on_c, 0, 74, 0
2, 35392, Note_on_c, 0, 62, 64
2, 35456, Note_on_c, 0, 62, 0
2, 35456, Note_on_c, 0, 74, 64
2, 35584, Note_on_c, 0, 74, 0
2, 35584, Note_on_c, 0, 73, 64
2, 35648, Note_on_c, 0, 73, 0
2, 35648, Note_on_c, 0, 76, 64
2, 35712, Note_on_c, 0, 76, 0
2, 35712, Note_on_c, 0, 74, 64
2, 35776, Note_on_c, 0, 74, 0
2, 35776, Note_on_c, 0, 76, 64
2, 35840, Note_on_c, 0, 76, 0
2, 35840, Note_on_c, 0, 77, 64
2, 35904, Note_on_c, 0, 77, 0
2, 35904, Note_on_c, 0, 76, 64
2, 35968, Note_on_c, 0, 76, 0
2, 35968, Note_on_c, 0, 77, 64
2, 36032, Note_on_c, 0, 77, 0
2, 36032, Note_on_c, 0, 74, 64
2, 36096, Note_on_c, 0, 74, 0
2, 36096, Note_on_c, 0, 72, 64
2, 36288, Note_on_c, 0, 72, 0
2, 36288, Note_on_c, 0, 65, 64
2, 36672, Note_on_c, 0, 65, 0
2, 36672, Note_on_c, 0, 69, 64
2, 36864, Note_on_c, 0, 69, 0
2, 36864, Note_on_c, 0, 69, 64
2, 37056, Note_on_c, 0, 69, 0
2, 37056, Note_on_c, 0, 72, 64
2, 37440, Note_on_c, 0, 72, 0
2, 37440, Note_on_c, 0, 74, 64
2, 37632, Note_on_c, 0, 74, 0
2, 37632, Note_on_c, 0, 74, 64
2, 37824, Note_on_c, 0, 74, 0
2, 37824, Note_on_c, 0, 72, 64
2, 38208, Note_on_c, 0, 72, 0
2, 38208, Note_on_c, 0, 70, 64
2, 38400, Note_on_c, 0, 70, 0
2, 38400, Note_on_c, 0, 70, 64
2, 38592, Note_on_c, 0, 70, 0
2, 38592, Note_on_c, 0, 69, 64
2, 38880, Note_on_c, 0, 69, 0
2, 38880, Note_on_c, 0, 69, 64
2, 38928, Note_on_c, 0, 69, 0
2, 38928, Note_on_c, 0, 67, 64
2, 38976, Note_on_c, 0, 67, 0
2, 38976, Note_on_c, 0, 69, 64
2, 39120, Note_on_c, 0, 69, 0
2, 39120, Note_on_c, 0, 71, 64
2, 39168, Note_on_c, 0, 71, 0
2, 39168, Note_on_c, 0, 72, 64
2, 39232, Note_on_c, 0, 72, 0
2, 39232, Note_on_c, 0, 71, 64
2, 39296, Note_on_c, 0, 71, 0
2, 39296, Note_on_c, 0, 72, 64
2, 39424, Note_on_c, 0, 72, 0
2, 39424, Note_on_c, 0, 74, 64
2, 39488, Note_on_c, 0, 74, 0
2, 39488, Note_on_c, 0, 76, 64
2, 39552, Note_on_c, 0, 76, 0
2, 39552, Note_on_c, 0, 74, 64
2, 39616, Note_on_c, 0, 74, 0
2, 39616, Note_on_c, 0, 76, 64
2, 39680, Note_on_c, 0, 76, 0
2, 39680, Note_on_c, 0, 77, 64
2, 39744, Note_on_c, 0, 77, 0
2, 39744, Note_on_c, 0, 76, 64
2, 39808, Note_on_c, 0, 76, 0
2, 39808, Note_on_c, 0, 77, 64
2, 39872, Note_on_c, 0, 77, 0
2, 39872, Note_on_c, 0, 79, 64
2, 39936, Note_on_c, 0, 79, 0
2, 39936, Note_on_c, 0, 77, 64
2, 40000, Note_on_c, 0, 77, 0
2, 40000, Note_on_c, 0, 79, 64
2, 40064, Note_on_c, 0, 79, 0
2, 40064, Note_on_c, 0, 81, 64
2, 40128, Note_on_c, 0, 81, 0
2, 40128, Note_on_c, 0, 79, 64
2, 40192, Note_on_c, 0, 79, 0
2, 40192, Note_on_c, 0, 81, 64
2, 40256, Note_on_c, 0, 81, 0
2, 40256, Note_on_c, 0, 82, 64
2, 40320, Note_on_c, 0, 82, 0
2, 40320, Note_on_c, 0, 81, 64
2, 40384, Note_on_c, 0, 81, 0
2, 40384, Note_on_c, 0, 79, 64
2, 40448, Note_on_c, 0, 79, 0
2, 40448, Note_on_c, 0, 81, 64
2, 40576, Note_on_c, 0, 81, 0
2, 40576, Note_on_c, 0, 77, 64
2, 40640, Note_on_c, 0, 77, 0
2, 40640, Note_on_c, 0, 74, 64
2, 40704, Note_on_c, 0, 74, 0
2, 40704, Note_on_c, 0, 70, 64
2, 40768, Note_on_c, 0, 70, 0
2, 40768, Note_on_c, 0, 69, 64
2, 40832, Note_on_c, 0, 69, 0
2, 40832, Note_on_c, 0, 70, 64
2, 40960, Note_on_c, 0, 70, 0
2, 40960, Note_on_c, 0, 79, 64
2, 41024, Note_on_c, 0, 79, 0
2, 41024, Note_on_c, 0, 70, 64
2, 41088, Note_on_c, 0, 70, 0
2, 41088, Note_on_c, 0, 69, 64
2, 41152, Note_on_c, 0, 69, 0
2, 41152, Note_on_c, 0, 67, 64
2, 41216, Note_on_c, 0, 67, 0
2, 41216, Note_on_c, 0, 69, 64
2, 41344, Note_on_c, 0, 69, 0
2, 41344, Note_on_c, 0, 77, 64
2, 41408, Note_on_c, 0, 77, 0
2, 41408, Note_on_c, 0, 69, 64
2, 41472, Note_on_c, 0, 69, 0
2, 41472, Note_on_c, 0, 67, 64
2, 41536, Note_on_c, 0, 67, 0
2, 41536, Note_on_c, 0, 65, 64
2, 41600, Note_on_c, 0, 65, 0
2, 41600, Note_on_c, 0, 67, 64
2, 41728, Note_on_c, 0, 67, 0
2, 41728, Note_on_c, 0, 76, 64
2, 41792, Note_on_c, 0, 76, 0
2, 41792, Note_on_c, 0, 67, 64
2, 41856, Note_on_c, 0, 67, 0
2, 41856, Note_on_c, 0, 65, 64
2, 41920, Note_on_c, 0, 65, 0
2, 41920, Note_on_c, 0, 64, 64
2, 41984, Note_on_c, 0, 64, 0
2, 41984, Note_on_c, 0, 65, 64
2, 42112, Note_on_c, 0, 65, 0
2, 42112, Note_on_c, 0, 64, 64
2, 42176, Note_on_c, 0, 64, 0
2, 42176, Note_on_c, 0, 62, 64
2, 42240, Note_on_c, 0, 62, 0
2, 42240, Note_on_c, 0, 67, 64
2, 42384, Note_on_c, 0, 67, 0
2, 42384, Note_on_c, 0, 64, 64
2, 42432, Note_on_c, 0, 64, 0
2, 42432, Note_on_c, 0, 60, 64
2, 42624, Note_on_c, 0, 60, 0
2, 42816, Note_on_c, 0, 72, 64
2, 43008, Note_on_c, 0, 72, 0
2, 43008, Note_on_c, 0, 72, 64
2, 43072, Note_on_c, 0, 72, 0
2, 43072, Note_on_c, 0, 70, 64
2, 43104, Note_on_c, 0, 70, 0
2, 43104, Note_on_c, 0, 69, 64
2, 43136, Note_on_c, 0, 69, 0
2, 43136, Note_on_c, 0, 67, 64
2, 43168, Note_on_c, 0, 67, 0
2, 43168, Note_on_c, 0, 65, 64
2, 43200, Note_on_c, 0, 65, 0
2, 43200, Note_on_c, 0, 76, 64
2, 43488, Note_on_c, 0, 76, 0
2, 43488, Note_on_c, 0, 76, 64
2, 43536, Note_on_c, 0, 76, 0
2, 43536, Note_on_c, 0, 72, 64
2, 43584, Note_on_c, 0, 72, 0
2, 43584, Note_on_c, 0, 77, 64
2, 43776, Note_on_c, 0, 77, 0
2, 43776, Note_on_c, 0, 77, 64
2, 43968, Note_on_c, 0, 77, 0
2, 43968, Note_on_c, 0, 76, 64
2, 44160, Note_on_c, 0, 76, 0
2, 44160, Note_on_c, 0, 75, 64
2, 44352, Note_on_c, 0, 75, 0
2, 44352, Note_on_c, 0, 74, 64
2, 44544, Note_on_c, 0, 74, 0
2, 44544, Note_on_c, 0, 73, 64
2, 44736, Note_on_c, 0, 73, 0
2, 44736, Note_on_c, 0, 72, 64
2, 45024, Note_on_c, 0, 72, 0
2, 45024, Note_on_c, 0, 72, 64
2, 45072, Note_on_c, 0, 72, 0
2, 45072, Note_on_c, 0, 77, 64
2, 45120, Note_on_c, 0, 77, 0
2, 45120, Note_on_c, 0, 71, 64
2, 45184, Note_on_c, 0, 71, 0
2, 45184, Note_on_c, 0, 72, 64
2, 45248, Note_on_c, 0, 72, 0
2, 45248, Note_on_c, 0, 74, 64
2, 45312, Note_on_c, 0, 74, 0
2, 45312, Note_on_c, 0, 74, 64
2, 45376, Note_on_c, 0, 74, 0
2, 45376, Note_on_c, 0, 72, 64
2, 45408, Note_on_c, 0, 72, 0
2, 45408, Note_on_c, 0, 71, 64
2, 45440, Note_on_c, 0, 71, 0
2, 45440, Note_on_c, 0, 72, 64
2, 45504, Note_on_c, 0, 72, 0
2, 45568, Note_on_c, 0, 82, 64
2, 45600, Note_on_c, 0, 82, 0
2, 45600, Note_on_c, 0, 81, 64
2, 45632, Note_on_c, 0, 81, 0
2, 45632, Note_on_c, 0, 79, 64
2, 45664, Note_on_c, 0, 79, 0
2, 45664, Note_on_c, 0, 77, 64
2, 45696, Note_on_c, 0, 77, 0
2, 45696, Note_on_c, 0, 76, 64
2, 45728, Note_on_c, 0, 76, 0
2, 45728, Note_on_c, 0, 77, 64
2, 45760, Note_on_c, 0, 77, 0
2, 45760, Note_on_c, 0, 79, 64
2, 45792, Note_on_c, 0, 79, 0
2, 45792, Note_on_c, 0, 77, 64
2, 45824, Note_on_c, 0, 77, 0
2, 45824, Note_on_c, 0, 76, 64
2, 45856, Note_on_c, 0, 76, 0
2, 45856, Note_on_c, 0, 74, 64
2, 45888, Note_on_c, 0, 74, 0
2, 45888, Note_on_c, 0, 72, 64
2, 45952, Note_on_c, 0, 72, 0
2, 45952, Note_on_c, 0, 76, 64
2, 46016, Note_on_c, 0, 76, 0
2, 46016, Note_on_c, 0, 79, 64
2, 46080, Note_on_c, 0, 79, 0
2, 46080, Note_on_c, 0, 69, 64
2, 46144, Note_on_c, 0, 69, 0
2, 46144, Note_on_c, 0, 72, 64
2, 46208, Note_on_c, 0, 72, 0
2, 46208, Note_on_c, 0, 76, 64
2, 46272, Note_on_c, 0, 76, 0
2, 46336, Note_on_c, 0, 72, 64
2, 46400, Note_on_c, 0, 72, 0
2, 46400, Note_on_c, 0, 74, 64
2, 46464, Note_on_c, 0, 74, 0
2, 46464, Note_on_c, 0, 76, 64
2, 46528, Note_on_c, 0, 76, 0
2, 46528, Note_on_c, 0, 77, 64
2, 46592, Note_on_c, 0, 77, 0
2, 46592, Note_on_c, 0, 79, 64
2, 46688, Note_on_c, 0, 79, 0
2, 46688, Note_on_c, 0, 77, 64
2, 46720, Note_on_c, 0, 77, 0
2, 46720, Note_on_c, 0, 76, 64
2, 46752, Note_on_c, 0, 76, 0
2, 46752, Note_on_c, 0, 77, 64
2, 46784, Note_on_c, 0, 77, 0
2, 46784, Note_on_c, 0, 79, 64
2, 46816, Note_on_c, 0, 79, 0
2, 46816, Note_on_c, 0, 76, 64
2, 46848, Note_on_c, 0, 76, 0
2, 46848, Note_on_c, 0, 77, 64
2, 46880, Note_on_c, 0, 77, 0
2, 46880, Note_on_c, 0, 76, 64
2, 46912, Note_on_c, 0, 76, 0
2, 46912, Note_on_c, 0, 74, 64
2, 46944, Note_on_c, 0, 74, 0
2, 46944, Note_on_c, 0, 73, 64
2, 46976, Note_on_c, 0, 73, 0
2, 46976, Note_on_c, 0, 74, 64
2, 47104, Note_on_c, 0, 74, 0
2, 47104, Note_on_c, 0, 72, 64
2, 47168, Note_on_c, 0, 72, 0
2, 47168, Note_on_c, 0, 71, 64
2, 47232, Note_on_c, 0, 71, 0
2, 47232, Note_on_c, 0, 72, 64
2, 47264, Note_on_c, 0, 72, 0
2, 47264, Note_on_c, 0, 71, 64
2, 47296, Note_on_c, 0, 71, 0
2, 47296, Note_on_c, 0, 69, 64
2, 47328, Note_on_c, 0, 69, 0
2, 47328, Note_on_c, 0, 71, 64
2, 47360, Note_on_c, 0, 71, 0
2, 47360, Note_on_c, 0, 72, 64
2, 47488, Note_on_c, 0, 72, 0
2, 47488, Note_on_c, 0, 70, 64
2, 47552, Note_on_c, 0, 70, 0
2, 47552, Note_on_c, 0, 69, 64
2, 47616, Note_on_c, 0, 69, 0
2, 47616, Note_on_c, 0, 70, 64
2, 47648, Note_on_c, 0, 70, 0
2, 47648, Note_on_c, 0, 69, 64
2, 47680, Note_on_c, 0, 69, 0
2, 47680, Note_on_c, 0, 67, 64
2, 47712, Note_on_c, 0, 67, 0
2, 47712, Note_on_c, 0, 69, 64
2, 47744, Note_on_c, 0, 69, 0
2, 47744, Note_on_c, 0, 70, 64
2, 47872, Note_on_c, 0, 70, 0
2, 47872, Note_on_c, 0, 69, 64
2, 47936, Note_on_c, 0, 69, 0
2, 47936, Note_on_c, 0, 68, 64
2, 48000, Note_on_c, 0, 68, 0
2, 48000, Note_on_c, 0, 68, 64
2, 48024, Note_on_c, 0, 68, 0
2, 48024, Note_on_c, 0, 69, 64
2, 48216, Note_on_c, 0, 69, 0
2, 48216, Note_on_c, 0, 69, 64
2, 48288, Note_on_c, 0, 69, 0
2, 48336, Note_on_c, 0, 80, 64
2, 48384, Note_on_c, 0, 80, 0
2, 48384, Note_on_c, 0, 81, 64
2, 48528, Note_on_c, 0, 81, 0
2, 48528, Note_on_c, 0, 69, 64
2, 48576, Note_on_c, 0, 69, 0
2, 48576, Note_on_c, 0, 74, 64
2, 48832, Note_on_c, 0, 74, 0
2, 48832, Note_on_c, 0, 73, 64
2, 48896, Note_on_c, 0, 73, 0
2, 48896, Note_on_c, 0, 74, 64
2, 48960, Note_on_c, 0, 74, 0
2, 48960, Note_on_c, 0, 79, 64
2, 49152, Note_on_c, 0, 79, 0
2, 49152, Note_on_c, 0, 79, 64
2, 49216, Note_on_c, 0, 79, 0
2, 49216, Note_on_c, 0, 77, 64
2, 49248, Note_on_c, 0, 77, 0
2, 49248, Note_on_c, 0, 76, 64
2, 49280, Note_on_c, 0, 76, 0
2, 49280, Note_on_c, 0, 74, 64
2, 49312, Note_on_c, 0, 74, 0
2, 49312, Note_on_c, 0, 73, 64
2, 49344, Note_on_c, 0, 73, 0
2, 49344, Note_on_c, 0, 82, 64
2, 49632, Note_on_c, 0, 82, 0
2, 49632, Note_on_c, 0, 82, 64
2, 49680, Note_on_c, 0, 82, 0
2, 49680, Note_on_c, 0, 74, 64
2, 49728, Note_on_c, 0, 74, 0
2, 49728, Note_on_c, 0, 73, 64
2, 49792, Note_on_c, 0, 73, 0
2, 49792, Note_on_c, 0, 74, 64
2, 49856, Note_on_c, 0, 74, 0
2, 49856, Note_on_c, 0, 76, 64
2, 49920, Note_on_c, 0, 76, 0
2, 49920, Note_on_c, 0, 76, 64
2, 49984, Note_on_c, 0, 76, 0
2, 49984, Note_on_c, 0, 81, 64
2, 50048, Note_on_c, 0, 81, 0
2, 50048, Note_on_c, 0, 74, 64
2, 50112, Note_on_c, 0, 74, 0
2, 50112, Note_on_c, 0, 79, 64
2, 50400, Note_on_c, 0, 79, 0
2, 50400, Note_on_c, 0, 79, 64
2, 50448, Note_on_c, 0, 79, 0
2, 50448, Note_on_c, 0, 69, 64
2, 50496, Note_on_c, 0, 69, 0
2, 50496, Note_on_c, 0, 77, 64
2, 50688, Note_on_c, 0, 77, 0
2, 50688, Note_on_c, 0, 77, 64
2, 50832, Note_on_c, 0, 77, 0
2, 50832, Note_on_c, 0, 67, 64
2, 50880, Note_on_c, 0, 67, 0
2, 50880, Note_on_c, 0, 76, 64
2, 51136, Note_on_c, 0, 76, 0
2, 51136, Note_on_c, 0, 74, 64
2, 51200, Note_on_c, 0, 74, 0
2, 51200, Note_on_c, 0, 73, 64
2, 51264, Note_on_c, 0, 73, 0
2, 51264, Note_on_c, 0, 74, 64
2, 51328, Note_on_c, 0, 74, 0
2, 51328, Note_on_c, 0, 76, 64
2, 51392, Note_on_c, 0, 76, 0
2, 51392, Note_on_c, 0, 77, 64
2, 51456, Note_on_c, 0, 77, 0
2, 51456, Note_on_c, 0, 76, 64
2, 51520, Note_on_c, 0, 76, 0
2, 51520, Note_on_c, 0, 69, 64
2, 51584, Note_on_c, 0, 69, 0
2, 51680, Note_on_c, 0, 82, 64
2, 51712, Note_on_c, 0, 82, 0
2, 51712, Note_on_c, 0, 81, 64
2, 51744, Note_on_c, 0, 81, 0
2, 51744, Note_on_c, 0, 79, 64
2, 51776, Note_on_c, 0, 79, 0
2, 51776, Note_on_c, 0, 77, 64
2, 51808, Note_on_c, 0, 77, 0
2, 51808, Note_on_c, 0, 76, 64
2, 51840, Note_on_c, 0, 76, 0
2, 51840, Note_on_c, 0, 74, 64
2, 52032, Note_on_c, 0, 74, 0
2, 52032, Note_on_c, 0, 74, 64
2, 52064, Note_on_c, 0, 74, 0
2, 52064, Note_on_c, 0, 77, 64
2, 52096, Note_on_c, 0, 77, 0
2, 52096, Note_on_c, 0, 79, 64
2, 52128, Note_on_c, 0, 79, 0
2, 52128, Note_on_c, 0, 77, 64
2, 52160, Note_on_c, 0, 77, 0
2, 52160, Note_on_c, 0, 76, 64
2, 52192, Note_on_c, 0, 76, 0
2, 52192, Note_on_c, 0, 74, 64
2, 52224, Note_on_c, 0, 74, 0
2, 52224, Note_on_c, 0, 73, 64
2, 52288, Note_on_c, 0, 73, 0
2, 52288, Note_on_c, 0, 74, 64
2, 52352, Note_on_c, 0, 74, 0
2, 52352, Note_on_c, 0, 76, 64
2, 52416, Note_on_c, 0, 76, 0
2, 52416, Note_on_c, 0, 77, 64
2, 52448, Note_on_c, 0, 77, 0
2, 52448, Note_on_c, 0, 76, 64
2, 52480, Note_on_c, 0, 76, 0
2, 52480, Note_on_c, 0, 74, 64
2, 52512, Note_on_c, 0, 74, 0
2, 52512, Note_on_c, 0, 76, 64
2, 52544, Note_on_c, 0, 76, 0
2, 52544, Note_on_c, 0, 77, 64
2, 52608, Note_on_c, 0, 77, 0
2, 52608, Note_on_c, 0, 79, 64
2, 52672, Note_on_c, 0, 79, 0
2, 52672, Note_on_c, 0, 81, 64
2, 52736, Note_on_c, 0, 81, 0
2, 52736, Note_on_c, 0, 82, 64
2, 52864, Note_on_c, 0, 82, 0
2, 52864, Note_on_c, 0, 81, 64
2, 52928, Note_on_c, 0, 81, 0
2, 52928, Note_on_c, 0, 79, 64
2, 52992, Note_on_c, 0, 79, 0
2, 52992, Note_on_c, 0, 81, 64
2, 53024, Note_on_c, 0, 81, 0
2, 53024, Note_on_c, 0, 79, 64
2, 53056, Note_on_c, 0, 79, 0
2, 53056, Note_on_c, 0, 77, 64
2, 53088, Note_on_c, 0, 77, 0
2, 53088, Note_on_c, 0, 76, 64
2, 53120, Note_on_c, 0, 76, 0
2, 53120, Note_on_c, 0, 77, 64
2, 53248, Note_on_c, 0, 77, 0
2, 53248, Note_on_c, 0, 79, 64
2, 53312, Note_on_c, 0, 79, 0
2, 53312, Note_on_c, 0, 77, 64
2, 53376, Note_on_c, 0, 77, 0
2, 53376, Note_on_c, 0, 76, 64
2, 53440, Note_on_c, 0, 76, 0
2, 53440, Note_on_c, 0, 75, 64
2, 53504, Note_on_c, 0, 75, 0
2, 53504, Note_on_c, 0, 76, 64
2, 53632, Note_on_c, 0, 76, 0
2, 53632, Note_on_c, 0, 74, 64
2, 53664, Note_on_c, 0, 74, 0
2, 53664, Note_on_c, 0, 72, 64
2, 53696, Note_on_c, 0, 72, 0
2, 53696, Note_on_c, 0, 70, 64
2, 53728, Note_on_c, 0, 70, 0
2, 53728, Note_on_c, 0, 69, 64
2, 53760, Note_on_c, 0, 69, 0
2, 53760, Note_on_c, 0, 74, 64
2, 53824, Note_on_c, 0, 74, 0
2, 53824, Note_on_c, 0, 73, 64
2, 53888, Note_on_c, 0, 73, 0
2, 53888, Note_on_c, 0, 74, 64
2, 54016, Note_on_c, 0, 74, 0
2, 54016, Note_on_c, 0, 76, 64
2, 54080, Note_on_c, 0, 76, 0
2, 54080, Note_on_c, 0, 74, 64
2, 54144, Note_on_c, 0, 74, 0
2, 54144, Note_on_c, 0, 73, 64
2, 54208, Note_on_c, 0, 73, 0
2, 54208, Note_on_c, 0, 74, 64
2, 54272, Note_on_c, 0, 74, 0
2, 54272, Note_on_c, 0, 76, 64
2, 54336, Note_on_c, 0, 76, 0
2, 54336, Note_on_c, 0, 69, 64
2, 54400, Note_on_c, 0, 69, 0
2, 54400, Note_on_c, 0, 73, 64
2, 54464, Note_on_c, 0, 73, 0
2, 54464, Note_on_c, 0, 71, 64
2, 54528, Note_on_c, 0, 71, 0
2, 54528, Note_on_c, 0, 73, 64
2, 54560, Note_on_c, 0, 73, 0
2, 54560, Note_on_c, 0, 74, 64
2, 54592, Note_on_c, 0, 74, 0
2, 54592, Note_on_c, 0, 76, 64
2, 54624, Note_on_c, 0, 76, 0
2, 54624, Note_on_c, 0, 77, 64
2, 54656, Note_on_c, 0, 77, 0
2, 54656, Note_on_c, 0, 79, 64
2, 54688, Note_on_c, 0, 79, 0
2, 54688, Note_on_c, 0, 76, 64
2, 54720, Note_on_c, 0, 76, 0
2, 54720, Note_on_c, 0, 77, 64
2, 54752, Note_on_c, 0, 77, 0
2, 54752, Note_on_c, 0, 79, 64
2, 54784, Note_on_c, 0, 79, 0
2, 54784, Note_on_c, 0, 81, 64
2, 54848, Note_on_c, 0, 81, 0
2, 54848, Note_on_c, 0, 73, 64
2, 54912, Note_on_c, 0, 73, 0
2, 54912, Note_on_c, 0, 74, 64
2, 54944, Note_on_c, 0, 74, 0
2, 54944, Note_on_c, 0, 77, 64
2, 54976, Note_on_c, 0, 77, 0
2, 54976, Note_on_c, 0, 76, 64
2, 55008, Note_on_c, 0, 76, 0
2, 55008, Note_on_c, 0, 74, 64
2, 55040, Note_on_c, 0, 74, 0
2, 55040, Note_on_c, 0, 73, 64
2, 55072, Note_on_c, 0, 73, 0
2, 55072, Note_on_c, 0, 71, 64
2, 55104, Note_on_c, 0, 71, 0
2, 55104, Note_on_c, 0, 69, 64
2, 55168, Note_on_c, 0, 69, 0
2, 55168, Note_on_c, 0, 73, 64
2, 55232, Note_on_c, 0, 73, 0
2, 55232, Note_on_c, 0, 76, 64
2, 55296, Note_on_c, 0, 76, 0
2, 55296, Note_on_c, 0, 81, 64
2, 55680, Note_on_c, 0, 81, 0
2, 55680, Note_on_c, 0, 81, 64
2, 55744, Note_on_c, 0, 81, 0
2, 55744, Note_on_c, 0, 79, 64
2, 55808, Note_on_c, 0, 79, 0
2, 55808, Note_on_c, 0, 77, 64
2, 55872, Note_on_c, 0, 77, 0
2, 55872, Note_on_c, 0, 76, 64
2, 56064, Note_on_c, 0, 76, 0
2, 56064, Note_on_c, 0, 76, 64
2, 56208, Note_on_c, 0, 76, 0
2, 56208, Note_on_c, 0, 81, 64
2, 56256, Note_on_c, 0, 81, 0
2, 56256, Note_on_c, 0, 74, 64
2, 56544, Note_on_c, 0, 74, 0
2, 56544, Note_on_c, 0, 74, 64
2, 56592, Note_on_c, 0, 74, 0
2, 56592, Note_on_c, 0, 82, 64
2, 56640, Note_on_c, 0, 82, 0
2, 56640, Note_on_c, 0, 73, 64
2, 56704, Note_on_c, 0, 73, 0
2, 56704, Note_on_c, 0, 76, 64
2, 56768, Note_on_c, 0, 76, 0
2, 56768, Note_on_c, 0, 81, 64
2, 56832, Note_on_c, 0, 81, 0
2, 56832, Note_on_c, 0, 69, 64
2, 56976, Note_on_c, 0, 69, 0
2, 56976, Note_on_c, 0, 74, 64
2, 57024, Note_on_c, 0, 74, 0
2, 57024, Note_on_c, 0, 70, 64
2, 57280, Note_on_c, 0, 70, 0
2, 57280, Note_on_c, 0, 69, 64
2, 57344, Note_on_c, 0, 69, 0
2, 57344, Note_on_c, 0, 68, 64
2, 57408, Note_on_c, 0, 68, 0
2, 57408, Note_on_c, 0, 69, 64
2, 57600, Note_on_c, 0, 69, 0
2, 57600, Note_on_c, 0, 69, 64
2, 57664, Note_on_c, 0, 69, 0
2, 57664, Note_on_c, 0, 76, 64
2, 57728, Note_on_c, 0, 76, 0
2, 57728, Note_on_c, 0, 73, 64
2, 57792, Note_on_c, 0, 73, 0
2, 57832, Note_on_c, 0, 82, 64
2, 57856, Note_on_c, 0, 82, 0
2, 57856, Note_on_c, 0, 81, 64
2, 57920, Note_on_c, 0, 81, 0
2, 57920, Note_on_c, 0, 79, 64
2, 57984, Note_on_c, 0, 79, 0
2, 57984, Note_on_c, 0, 81, 64
2, 58008, Note_on_c, 0, 81, 0
2, 58008, Note_on_c, 0, 77, 64
2, 58200, Note_on_c, 0, 77, 0
2, 58200, Note_on_c, 0, 77, 64
2, 58208, Note_on_c, 0, 77, 0
2, 58208, Note_on_c, 0, 81, 64
2, 58240, Note_on_c, 0, 81, 0
2, 58240, Note_on_c, 0, 79, 64
2, 58272, Note_on_c, 0, 79, 0
2, 58272, Note_on_c, 0, 77, 64
2, 58304, Note_on_c, 0, 77, 0
2, 58304, Note_on_c, 0, 76, 64
2, 58336, Note_on_c, 0, 76, 0
2, 58336, Note_on_c, 0, 74, 64
2, 58368, Note_on_c, 0, 74, 0
2, 58368, Note_on_c, 0, 73, 64
2, 58400, Note_on_c, 0, 73, 0
2, 58400, Note_on_c, 0, 71, 64
2, 58432, Note_on_c, 0, 71, 0
2, 58432, Note_on_c, 0, 69, 64
2, 58464, Note_on_c, 0, 69, 0
2, 58464, Note_on_c, 0, 71, 64
2, 58496, Note_on_c, 0, 71, 0
2, 58496, Note_on_c, 0, 73, 64
2, 58528, Note_on_c, 0, 73, 0
2, 58528, Note_on_c, 0, 74, 64
2, 58560, Note_on_c, 0, 74, 0
2, 58560, Note_on_c, 0, 76, 64
2, 58592, Note_on_c, 0, 76, 0
2, 58592, Note_on_c, 0, 74, 64
2, 58624, Note_on_c, 0, 74, 0
2, 58624, Note_on_c, 0, 76, 64
2, 58656, Note_on_c, 0, 76, 0
2, 58656, Note_on_c, 0, 77, 64
2, 58688, Note_on_c, 0, 77, 0
2, 58688, Note_on_c, 0, 79, 64
2, 58720, Note_on_c, 0, 79, 0
2, 58720, Note_on_c, 0, 76, 64
2, 58752, Note_on_c, 0, 76, 0
2, 58752, Note_on_c, 0, 77, 64
2, 58784, Note_on_c, 0, 77, 0
2, 58784, Note_on_c, 0, 74, 64
2, 58816, Note_on_c, 0, 74, 0
2, 58816, Note_on_c, 0, 76, 64
2, 58848, Note_on_c, 0, 76, 0
2, 58848, Note_on_c, 0, 77, 64
2, 58880, Note_on_c, 0, 77, 0
2, 58880, Note_on_c, 0, 79, 64
2, 58912, Note_on_c, 0, 79, 0
2, 58912, Note_on_c, 0, 81, 64
2, 58944, Note_on_c, 0, 81, 0
2, 58944, Note_on_c, 0, 82, 64
2, 58976, Note_on_c, 0, 82, 0
2, 58976, Note_on_c, 0, 81, 64
2, 59008, Note_on_c, 0, 81, 0
2, 59008, Note_on_c, 0, 79, 64
2, 59040, Note_on_c, 0, 79, 0
2, 59040, Note_on_c, 0, 77, 64
2, 59072, Note_on_c, 0, 77, 0
2, 59072, Note_on_c, 0, 76, 64
2, 59104, Note_on_c, 0, 76, 0
2, 59104, Note_on_c, 0, 74, 64
2, 59136, Note_on_c, 0, 74, 0
2, 59136, Note_on_c, 0, 73, 64
2, 59168, Note_on_c, 0, 73, 0
2, 59168, Note_on_c, 0, 76, 64
2, 59200, Note_on_c, 0, 76, 0
2, 59200, Note_on_c, 0, 79, 64
2, 59232, Note_on_c, 0, 79, 0
2, 59232, Note_on_c, 0, 82, 64
2, 59264, Note_on_c, 0, 82, 0
2, 59264, Note_on_c, 0, 81, 64
2, 59296, Note_on_c, 0, 81, 0
2, 59296, Note_on_c, 0, 79, 64
2, 59328, Note_on_c, 0, 79, 0
2, 59328, Note_on_c, 0, 81, 64
2, 59360, Note_on_c, 0, 81, 0
2, 59360, Note_on_c, 0, 79, 64
2, 59392, Note_on_c, 0, 79, 0
2, 59392, Note_on_c, 0, 77, 64
2, 59424, Note_on_c, 0, 77, 0
2, 59424, Note_on_c, 0, 76, 64
2, 59456, Note_on_c, 0, 76, 0
2, 59456, Note_on_c, 0, 74, 64
2, 59488, Note_on_c, 0, 74, 0
2, 59488, Note_on_c, 0, 72, 64
2, 59520, Note_on_c, 0, 72, 0
2, 59520, Note_on_c, 0, 70, 64
2, 59552, Note_on_c, 0, 70, 0
2, 59552, Note_on_c, 0, 72, 64
2, 59584, Note_on_c, 0, 72, 0
2, 59584, Note_on_c, 0, 70, 64
2, 59616, Note_on_c, 0, 70, 0
2, 59616, Note_on_c, 0, 69, 64
2, 59648, Note_on_c, 0, 69, 0
2, 59648, Note_on_c, 0, 67, 64
2, 59680, Note_on_c, 0, 67, 0
2, 59680, Note_on_c, 0, 65, 64
2, 59712, Note_on_c, 0, 65, 0
2, 59712, Note_on_c, 0, 67, 64
2, 59744, Note_on_c, 0, 67, 0
2, 59744, Note_on_c, 0, 70, 64
2, 59776, Note_on_c, 0, 70, 0
2, 59776, Note_on_c, 0, 69, 64
2, 59808, Note_on_c, 0, 69, 0
2, 59808, Note_on_c, 0, 67, 64
2, 59840, Note_on_c, 0, 67, 0
2, 59840, Note_on_c, 0, 65, 64
2, 59872, Note_on_c, 0, 65, 0
2, 59872, Note_on_c, 0, 64, 64
2, 59904, Note_on_c, 0, 64, 0
2, 59904, Note_on_c, 0, 65, 64
2, 59928, Note_on_c, 0, 65, 0
2, 59952, Note_on_c, 0, 67, 64
2, 60000, Note_on_c, 0, 67, 0
2, 60000, Note_on_c, 0, 65, 64
2, 60048, Note_on_c, 0, 65, 0
2, 60048, Note_on_c, 0, 64, 64
2, 60096, Note_on_c, 0, 64, 0
2, 60096, Note_on_c, 0, 65, 64
2, 60120, Note_on_c, 0, 65, 0
2, 60144, Note_on_c, 0, 70, 64
2, 60192, Note_on_c, 0, 70, 0
2, 60192, Note_on_c, 0, 69, 64
2, 60240, Note_on_c, 0, 69, 0
2, 60240, Note_on_c, 0, 67, 64
2, 60288, Note_on_c, 0, 67, 0
2, 60288, Note_on_c, 0, 69, 64
2, 60312, Note_on_c, 0, 69, 0
2, 60336, Note_on_c, 0, 74, 64
2, 60384, Note_on_c, 0, 74, 0
2, 60384, Note_on_c, 0, 73, 64
2, 60432, Note_on_c, 0, 73, 0
2, 60432, Note_on_c, 0, 71, 64
2, 60480, Note_on_c, 0, 71, 0
2, 60480, Note_on_c, 0, 73, 64
2, 60504, Note_on_c, 0, 73, 0
2, 60528, Note_on_c, 0, 77, 64
2, 60576, Note_on_c, 0, 77, 0
2, 60576, Note_on_c, 0, 76, 64
2, 60624, Note_on_c, 0, 76, 0
2, 60624, Note_on_c, 0, 74, 64
2, 60672, Note_on_c, 0, 74, 0
2, 60672, Note_on_c, 0, 76, 64
2, 60720, Note_on_c, 0, 76, 0
2, 60720, Note_on_c, 0, 77, 64
2, 60744, Note_on_c, 0, 77, 0
2, 60744, Note_on_c, 0, 79, 64
2, 60768, Note_on_c, 0, 79, 0
2, 60768, Note_on_c, 0, 77, 64
2, 60792, Note_on_c, 0, 77, 0
2, 60792, Note_on_c, 0, 76, 64
2, 60816, Note_on_c, 0, 76, 0
2, 60816, Note_on_c, 0, 74, 64
2, 60840, Note_on_c, 0, 74, 0
2, 60840, Note_on_c, 0, 73, 64
2, 60864, Note_on_c, 0, 73, 0
2, 60864, Note_on_c, 0, 74, 64
2, 60888, Note_on_c, 0, 74, 0
2, 60888, Note_on_c, 0, 77, 64
2, 60912, Note_on_c, 0, 77, 0
2, 60912, Note_on_c, 0, 79, 64
2, 60936, Note_on_c, 0, 79, 0
2, 60936, Note_on_c, 0, 81, 64
2, 60960, Note_on_c, 0, 81, 0
2, 60960, Note_on_c, 0, 82, 64
2, 61008, Note_on_c, 0, 82, 0
2, 61008, Note_on_c, 0, 74, 64
2, 61056, Note_on_c, 0, 74, 0
2, 61056, Note_on_c, 0, 73, 64
2, 61104, Note_on_c, 0, 73, 0
2, 61104, Note_on_c, 0, 69, 64
2, 61152, Note_on_c, 0, 69, 0
2, 61152, Note_on_c, 0, 74, 64
2, 61200, Note_on_c, 0, 74, 0
2, 61200, Note_on_c, 0, 73, 64
2, 61248, Note_on_c, 0, 73, 0
2, 61248, Note_on_c, 0, 74, 64
2, 61440, Note_on_c, 0, 74, 0
2, 61440, Note_on_c, 0, 74, 64
2, 61728, Note_on_c, 0, 74, 0
2, 61728, Note_on_c, 0, 62, 64
2, 61776, Note_on_c, 0, 62, 0
2, 61776, Note_on_c, 0, 64, 64
2, 61824, Note_on_c, 0, 64, 0
2, 61824, Note_on_c, 0, 65, 64
2, 61848, Note_on_c, 0, 65, 0
2, 61848, Note_on_c, 0, 64, 64
2, 61872, Note_on_c, 0, 64, 0
2, 61872, Note_on_c, 0, 65, 64
2, 61896, Note_on_c, 0, 65, 0
2, 61896, Note_on_c, 0, 64, 64
2, 61920, Note_on_c, 0, 64, 0
2, 61920, Note_on_c, 0, 65, 64
2, 61944, Note_on_c, 0, 65, 0
2, 61944, Note_on_c, 0, 64, 64
2, 61968, Note_on_c, 0, 64, 0
2, 61968, Note_on_c, 0, 65, 64
2, 61992, Note_on_c, 0, 65, 0
2, 61992, Note_on_c, 0, 64, 64
2, 62016, Note_on_c, 0, 64, 0
2, 62016, Note_on_c, 0, 65, 64
2, 62040, Note_on_c, 0, 65, 0
2, 62040, Note_on_c, 0, 64, 64
2, 62064, Note_on_c, 0, 64, 0
2, 62064, Note_on_c, 0, 65, 64
2, 62088, Note_on_c, 0, 65, 0
2, 62088, Note_on_c, 0, 64, 64
2, 62112, Note_on_c, 0, 64, 0
2, 62112, Note_on_c, 0, 65, 64
2, 62136, Note_on_c, 0, 65, 0
2, 62136, Note_on_c, 0, 64, 64
2, 62160, Note_on_c, 0, 64, 0
2, 62160, Note_on_c, 0, 62, 64
2, 62184, Note_on_c, 0, 62, 0
2, 62184, Note_on_c, 0, 64, 64
2, 62208, Note_on_c, 0, 64, 0
2, 62208, Note_on_c, 0, 62, 64
2, 62784, Note_on_c, 0, 62, 0
2, 62784, Note_on_c, 0, 62, 64
2, 62976, Note_on_c, 0, 62, 0
2, 62976, End_track
3, 0, Start_track
3, 0, Program_c, 0, 0
3, 0, Note_on_c, 0, 57, 64
3, 192, Note_on_c, 0, 57, 0
3, 192, Note_on_c, 0, 50, 64
3, 576, Note_on_c, 0, 50, 0
3, 576, Note_on_c, 0, 53, 64
3, 768, Note_on_c, 0, 53, 0
3, 768, Note_on_c, 0, 53, 64
3, 960, Note_on_c, 0, 53, 0
3, 960, Note_on_c, 0, 57, 64
3, 1344, Note_on_c, 0, 57, 0
3, 1344, Note_on_c, 0, 58, 64
3, 1536, Note_on_c, 0, 58, 0
3, 1536, Note_on_c, 0, 58, 64
3, 1728, Note_on_c, 0, 58, 0
3, 1728, Note_on_c, 0, 57, 64
3, 2112, Note_on_c, 0, 57, 0
3, 2112, Note_on_c, 0, 55, 64
3, 2304, Note_on_c, 0, 55, 0
3, 2304, Note_on_c, 0, 55, 64
3, 2496, Note_on_c, 0, 55, 0
3, 2496, Note_on_c, 0, 53, 64
3, 2784, Note_on_c, 0, 53, 0
3, 2784, Note_on_c, 0, 53, 64
3, 2832, Note_on_c, 0, 53, 0
3, 2832, Note_on_c, 0, 52, 64
3, 2880, Note_on_c, 0, 52, 0
3, 2880, Note_on_c, 0, 53, 64
3, 3024, Note_on_c, 0, 53, 0
3, 3024, Note_on_c, 0, 55, 64
3, 3072, Note_on_c, 0, 55, 0
3, 3072, Note_on_c, 0, 57, 64
3, 3136, Note_on_c, 0, 57, 0
3, 3136, Note_on_c, 0, 55, 64
3, 3200, Note_on_c, 0, 55, 0
3, 3200, Note_on_c, 0, 57, 64
3, 3264, Note_on_c, 0, 57, 0
3, 3264, Note_on_c, 0, 58, 64
3, 3328, Note_on_c, 0, 58, 0
3, 3328, Note_on_c, 0, 57, 64
3, 3392, Note_on_c, 0, 57, 0
3, 3392, Note_on_c, 0, 55, 64
3, 3456, Note_on_c, 0, 55, 0
3, 3456, Note_on_c, 0, 53, 64
3, 3520, Note_on_c, 0, 53, 0
3, 3520, Note_on_c, 0, 55, 64
3, 3584, Note_on_c, 0, 55, 0
3, 3584, Note_on_c, 0, 52, 64
3, 3648, Note_on_c, 0, 52, 0
3, 3648, Note_on_c, 0, 50, 64
3, 3712, Note_on_c, 0, 50, 0
3, 3712, Note_on_c, 0, 52, 64
3, 3776, Note_on_c, 0, 52, 0
3, 3776, Note_on_c, 0, 49, 64
3, 3840, Note_on_c, 0, 49, 0
3, 3840, Note_on_c, 0, 50, 64
3, 3904, Note_on_c, 0, 50, 0
3, 3904, Note_on_c, 0, 57, 64
3, 3968, Note_on_c, 0, 57, 0
3, 3968, Note_on_c, 0, 62, 64
3, 4032, Note_on_c, 0, 62, 0
3, 4032, Note_on_c, 0, 60, 64
3, 4096, Note_on_c, 0, 60, 0
3, 4096, Note_on_c, 0, 62, 64
3, 4160, Note_on_c, 0, 62, 0
3, 4160, Note_on_c, 0, 58, 64
3, 4224, Note_on_c, 0, 58, 0
3, 4224, Note_on_c, 0, 57, 64
3, 4288, Note_on_c, 0, 57, 0
3, 4288, Note_on_c, 0, 58, 64
3, 4352, Note_on_c, 0, 58, 0
3, 4352, Note_on_c, 0, 55, 64
3, 4416, Note_on_c, 0, 55, 0
3, 4416, Note_on_c, 0, 53, 64
3, 4480, Note_on_c, 0, 53, 0
3, 4480, Note_on_c, 0, 55, 64
3, 4544, Note_on_c, 0, 55, 0
3, 4544, Note_on_c, 0, 52, 64
3, 4608, Note_on_c, 0, 52, 0
3, 4608, Note_on_c, 0, 53, 64
3, 4672, Note_on_c, 0, 53, 0
3, 4672, Note_on_c, 0, 50, 64
3, 4736, Note_on_c, 0, 50, 0
3, 4736, Note_on_c, 0, 52, 64
3, 4800, Note_on_c, 0, 52, 0
3, 4800, Note_on_c, 0, 53, 64
3, 4864, Note_on_c, 0, 53, 0
3, 4864, Note_on_c, 0, 57, 64
3, 4928, Note_on_c, 0, 57, 0
3, 4928, Note_on_c, 0, 55, 64
3, 4992, Note_on_c, 0, 55, 0
3, 4992, Note_on_c, 0, 57, 64
3, 5056, Note_on_c, 0, 57, 0
3, 5056, Note_on_c, 0, 58, 64
3, 5120, Note_on_c, 0, 58, 0
3, 5120, Note_on_c, 0, 60, 64
3, 5184, Note_on_c, 0, 60, 0
3, 5184, Note_on_c, 0, 62, 64
3, 5248, Note_on_c, 0, 62, 0
3, 5248, Note_on_c, 0, 64, 64
3, 5312, Note_on_c, 0, 64, 0
3, 5312, Note_on_c, 0, 61, 64
3, 5376, Note_on_c, 0, 61, 0
3, 5376, Note_on_c, 0, 62, 64
3, 5440, Note_on_c, 0, 62, 0
3, 5440, Note_on_c, 0, 50, 64
3, 5504, Note_on_c, 0, 50, 0
3, 5504, Note_on_c, 0, 62, 64
3, 5632, Note_on_c, 0, 62, 0
3, 5632, Note_on_c, 0, 61, 64
3, 5696, Note_on_c, 0, 61, 0
3, 5696, Note_on_c, 0, 64, 64
3, 5760, Note_on_c, 0, 64, 0
3, 5760, Note_on_c, 0, 62, 64
3, 5824, Note_on_c, 0, 62, 0
3, 5824, Note_on_c, 0, 64, 64
3, 5888, Note_on_c, 0, 64, 0
3, 5888, Note_on_c, 0, 65, 64
3, 5952, Note_on_c, 0, 65, 0
3, 5952, Note_on_c, 0, 64, 64
3, 6016, Note_on_c, 0, 64, 0
3, 6016, Note_on_c, 0, 65, 64
3, 6080, Note_on_c, 0, 65, 0
3, 6080, Note_on_c, 0, 62, 64
3, 6144, Note_on_c, 0, 62, 0
3, 6144, Note_on_c, 0, 60, 64
3, 6336, Note_on_c, 0, 60, 0
3, 6336, Note_on_c, 0, 53, 64
3, 6720, Note_on_c, 0, 53, 0
3, 6720, Note_on_c, 0, 57, 64
3, 6912, Note_on_c, 0, 57, 0
3, 6912, Note_on_c, 0, 57, 64
3, 7104, Note_on_c, 0, 57, 0
3, 7104, Note_on_c, 0, 60, 64
3, 7488, Note_on_c, 0, 60, 0
3, 7488, Note_on_c, 0, 62, 64
3, 7680, Note_on_c, 0, 62, 0
3, 7680, Note_on_c, 0, 62, 64
3, 7872, Note_on_c, 0, 62, 0
3, 7872, Note_on_c, 0, 60, 64
3, 8256, Note_on_c, 0, 60, 0
3, 8256, Note_on_c, 0, 58, 64
3, 8448, Note_on_c, 0, 58, 0
3, 8448, Note_on_c, 0, 58, 64
3, 8640, Note_on_c, 0, 58, 0
3, 8640, Note_on_c, 0, 57, 64
3, 8928, Note_on_c, 0, 57, 0
3, 8928, Note_on_c, 0, 57, 64
3, 8976, Note_on_c, 0, 57, 0
3, 8976, Note_on_c, 0, 55, 64
3, 9024, Note_on_c, 0, 55, 0
3, 9024, Note_on_c, 0, 57, 64
3, 9168, Note_on_c, 0, 57, 0
3, 9168, Note_on_c, 0, 59, 64
3, 9216, Note_on_c, 0, 59, 0
3, 9216, Note_on_c, 0, 60, 64
3, 9280, Note_on_c, 0, 60, 0
3, 9280, Note_on_c, 0, 59, 64
3, 9344, Note_on_c, 0, 59, 0
3, 9344, Note_on_c, 0, 60, 64
3, 9472, Note_on_c, 0, 60, 0
3, 9472, Note_on_c, 0, 62, 64
3, 9536, Note_on_c, 0, 62, 0
3, 9536, Note_on_c, 0, 64, 64
3, 9600, Note_on_c, 0, 64, 0
3, 9600, Note_on_c, 0, 62, 64
3, 9664, Note_on_c, 0, 62, 0
3, 9664, Note_on_c, 0, 64, 64
3, 9728, Note_on_c, 0, 64, 0
3, 9728, Note_on_c, 0, 65, 64
3, 9792, Note_on_c, 0, 65, 0
3, 9792, Note_on_c, 0, 64, 64
3, 9856, Note_on_c, 0, 64, 0
3, 9856, Note_on_c, 0, 65, 64
3, 9920, Note_on_c, 0, 65, 0
3, 9920, Note_on_c, 0, 67, 64
3, 9984, Note_on_c, 0, 67, 0
3, 9984, Note_on_c, 0, 65, 64
3, 10048, Note_on_c, 0, 65, 0
3, 10048, Note_on_c, 0, 67, 64
3, 10112, Note_on_c, 0, 67, 0
3, 10112, Note_on_c, 0, 69, 64
3, 10176, Note_on_c, 0, 69, 0
3, 10176, Note_on_c, 0, 67, 64
3, 10240, Note_on_c, 0, 67, 0
3, 10240, Note_on_c, 0, 69, 64
3, 10304, Note_on_c, 0, 69, 0
3, 10304, Note_on_c, 0, 70, 64
3, 10368, Note_on_c, 0, 70, 0
3, 10368, Note_on_c, 0, 69, 64
3, 10432, Note_on_c, 0, 69, 0
3, 10432, Note_on_c, 0, 67, 64
3, 10496, Note_on_c, 0, 67, 0
3, 10496, Note_on_c, 0, 69, 64
3, 10624, Note_on_c, 0, 69, 0
3, 10624, Note_on_c, 0, 65, 64
3, 10688, Note_on_c, 0, 65, 0
3, 10688, Note_on_c, 0, 62, 64
3, 10752, Note_on_c, 0, 62, 0
3, 10752, Note_on_c, 0, 58, 64
3, 10816, Note_on_c, 0, 58, 0
3, 10816, Note_on_c, 0, 57, 64
3, 10880, Note_on_c, 0, 57, 0
3, 10880, Note_on_c, 0, 58, 64
3, 11008, Note_on_c, 0, 58, 0
3, 11008, Note_on_c, 0, 67, 64
3, 11072, Note_on_c, 0, 67, 0
3, 11072, Note_on_c, 0, 58, 64
3, 11136, Note_on_c, 0, 58, 0
3, 11136, Note_on_c, 0, 57, 64
3, 11200, Note_on_c, 0, 57, 0
3, 11200, Note_on_c, 0, 55, 64
3, 11264, Note_on_c, 0, 55, 0
3, 11264, Note_on_c, 0, 57, 64
3, 11392, Note_on_c, 0, 57, 0
3, 11392, Note_on_c, 0, 65, 64
3, 11456, Note_on_c, 0, 65, 0
3, 11456, Note_on_c, 0, 57, 64
3, 11520, Note_on_c, 0, 57, 0
3, 11520, Note_on_c, 0, 55, 64
3, 11584, Note_on_c, 0, 55, 0
3, 11584, Note_on_c, 0, 53, 64
3, 11648, Note_on_c, 0, 53, 0
3, 11648, Note_on_c, 0, 55, 64
3, 11776, Note_on_c, 0, 55, 0
3, 11776, Note_on_c, 0, 64, 64
3, 11840, Note_on_c, 0, 64, 0
3, 11840, Note_on_c, 0, 55, 64
3, 11904, Note_on_c, 0, 55, 0
3, 11904, Note_on_c, 0, 53, 64
3, 11968, Note_on_c, 0, 53, 0
3, 11968, Note_on_c, 0, 52, 64
3, 12032, Note_on_c, 0, 52, 0
3, 12032, Note_on_c, 0, 53, 64
3, 12160, Note_on_c, 0, 53, 0
3, 12160, Note_on_c, 0, 52, 64
3, 12224, Note_on_c, 0, 52, 0
3, 12224, Note_on_c, 0, 50, 64
3, 12288, Note_on_c, 0, 50, 0
3, 12288, Note_on_c, 0, 55, 64
3, 12432, Note_on_c, 0, 55, 0
3, 12432, Note_on_c, 0, 52, 64
3, 12480, Note_on_c, 0, 52, 0
3, 12480, Note_on_c, 0, 48, 64
3, 12672, Note_on_c, 0, 48, 0
3, 12864, Note_on_c, 0, 60, 64
3, 13056, Note_on_c, 0, 60, 0
3, 13056, Note_on_c, 0, 60, 64
3, 13120, Note_on_c, 0, 60, 0
3, 13120, Note_on_c, 0, 58, 64
3, 13152, Note_on_c, 0, 58, 0
3, 13152, Note_on_c, 0, 57, 64
3, 13184, Note_on_c, 0, 57, 0
3, 13184, Note_on_c, 0, 55, 64
3, 13216, Note_on_c, 0, 55, 0
3, 13216, Note_on_c, 0, 53, 64
3, 13248, Note_on_c, 0, 53, 0
3, 13248, Note_on_c, 0, 64, 64
3, 13536, Note_on_c, 0, 64, 0
3, 13536, Note_on_c, 0, 64, 64
3, 13584, Note_on_c, 0, 64, 0
3, 13584, Note_on_c, 0, 60, 64
3, 13632, Note_on_c, 0, 60, 0
3, 13632, Note_on_c, 0, 65, 64
3, 13824, Note_on_c, 0, 65, 0
3, 13824, Note_on_c, 0, 65, 64
3, 14016, Note_on_c, 0, 65, 0
3, 14016, Note_on_c, 0, 64, 64
3, 14208, Note_on_c, 0, 64, 0
3, 14208, Note_on_c, 0, 63, 64
3, 14400, Note_on_c, 0, 63, 0
3, 14400, Note_on_c, 0, 62, 64
3, 14592, Note_on_c, 0, 62, 0
3, 14592, Note_on_c, 0, 61, 64
3, 14784, Note_on_c, 0, 61, 0
3, 14784, Note_on_c, 0, 60, 64
3, 15072, Note_on_c, 0, 60, 0
3, 15072, Note_on_c, 0, 60, 64
3, 15120, Note_on_c, 0, 60, 0
3, 15120, Note_on_c, 0, 65, 64
3, 15168, Note_on_c, 0, 65, 0
3, 15168, Note_on_c, 0, 59, 64
3, 15232, Note_on_c, 0, 59, 0
3, 15232, Note_on_c, 0, 61, 64
3, 15296, Note_on_c, 0, 61, 0
3, 15296, Note_on_c, 0, 62, 64
3, 15360, Note_on_c, 0, 62, 0
3, 15360, Note_on_c, 0, 62, 64
3, 15424, Note_on_c, 0, 62, 0
3, 15424, Note_on_c, 0, 61, 64
3, 15456, Note_on_c, 0, 61, 0
3, 15456, Note_on_c, 0, 59, 64
3, 15488, Note_on_c, 0, 59, 0
3, 15488, Note_on_c, 0, 61, 64
3, 15552, Note_on_c, 0, 61, 0
3, 15616, Note_on_c, 0, 70, 64
3, 15648, Note_on_c, 0, 70, 0
3, 15648, Note_on_c, 0, 69, 64
3, 15680, Note_on_c, 0, 69, 0
3, 15680, Note_on_c, 0, 67, 64
3, 15712, Note_on_c, 0, 67, 0
3, 15712, Note_on_c, 0, 65, 64
3, 15744, Note_on_c, 0, 65, 0
3, 15744, Note_on_c, 0, 64, 64
3, 15776, Note_on_c, 0, 64, 0
3, 15776, Note_on_c, 0, 65, 64
3, 15808, Note_on_c, 0, 65, 0
3, 15808, Note_on_c, 0, 67, 64
3, 15840, Note_on_c, 0, 67, 0
3, 15840, Note_on_c, 0, 65, 64
3, 15872, Note_on_c, 0, 65, 0
3, 15872, Note_on_c, 0, 64, 64
3, 15904, Note_on_c, 0, 64, 0
3, 15904, Note_on_c, 0, 62, 64
3, 15936, Note_on_c, 0, 62, 0
3, 15936, Note_on_c, 0, 61, 64
3, 16000, Note_on_c, 0, 61, 0
3, 16000, Note_on_c, 0, 64, 64
3, 16064, Note_on_c, 0, 64, 0
3, 16064, Note_on_c, 0, 67, 64
3, 16128, Note_on_c, 0, 67, 0
3, 16128, Note_on_c, 0, 57, 64
3, 16192, Note_on_c, 0, 57, 0
3, 16192, Note_on_c, 0, 61, 64
3, 16256, Note_on_c, 0, 61, 0
3, 16256, Note_on_c, 0, 64, 64
3, 16320, Note_on_c, 0, 64, 0
3, 16384, Note_on_c, 0, 61, 64
3, 16448, Note_on_c, 0, 61, 0
3, 16448, Note_on_c, 0, 62, 64
3, 16512, Note_on_c, 0, 62, 0
3, 16512, Note_on_c, 0, 64, 64
3, 16576, Note_on_c, 0, 64, 0
3, 16576, Note_on_c, 0, 65, 64
3, 16640, Note_on_c, 0, 65, 0
3, 16640, Note_on_c, 0, 67, 64
3, 16736, Note_on_c, 0, 67, 0
3, 16736, Note_on_c, 0, 65, 64
3, 16768, Note_on_c, 0, 65, 0
3, 16768, Note_on_c, 0, 64, 64
3, 16800, Note_on_c, 0, 64, 0
3, 16800, Note_on_c, 0, 65, 64
3, 16832, Note_on_c, 0, 65, 0
3, 16832, Note_on_c, 0, 67, 64
3, 16864, Note_on_c, 0, 67, 0
3, 16864, Note_on_c, 0, 64, 64
3, 16896, Note_on_c, 0, 64, 0
3, 16896, Note_on_c, 0, 65, 64
3, 16928, Note_on_c, 0, 65, 0
3, 16928, Note_on_c, 0, 64, 64
3, 16960, Note_on_c, 0, 64, 0
3, 16960, Note_on_c, 0, 62, 64
3, 16992, Note_on_c, 0, 62, 0
3, 16992, Note_on_c, 0, 61, 64
3, 17024, Note_on_c, 0, 61, 0
3, 17024, Note_on_c, 0, 62, 64
3, 17152, Note_on_c, 0, 62, 0
3, 17152, Note_on_c, 0, 61, 64
3, 17216, Note_on_c, 0, 61, 0
3, 17216, Note_on_c, 0, 59, 64
3, 17280, Note_on_c, 0, 59, 0
3, 17280, Note_on_c, 0, 61, 64
3, 17312, Note_on_c, 0, 61, 0
3, 17312, Note_on_c, 0, 59, 64
3, 17344, Note_on_c, 0, 59, 0
3, 17344, Note_on_c, 0, 57, 64
3, 17376, Note_on_c, 0, 57, 0
3, 17376, Note_on_c, 0, 59, 64
3, 17408, Note_on_c, 0, 59, 0
3, 17408, Note_on_c, 0, 60, 64
3, 17536, Note_on_c, 0, 60, 0
3, 17536, Note_on_c, 0, 59, 64
3, 17600, Note_on_c, 0, 59, 0
3, 17600, Note_on_c, 0, 57, 64
3, 17664, Note_on_c, 0, 57, 0
3, 17664, Note_on_c, 0, 59, 64
3, 17696, Note_on_c, 0, 59, 0
3, 17696, Note_on_c, 0, 57, 64
3, 17728, Note_on_c, 0, 57, 0
3, 17728, Note_on_c, 0, 55, 64
3, 17760, Note_on_c, 0, 55, 0
3, 17760, Note_on_c, 0, 57, 64
3, 17792, Note_on_c, 0, 57, 0
3, 17792, Note_on_c, 0, 58, 64
3, 17920, Note_on_c, 0, 58, 0
3, 17920, Note_on_c, 0, 57, 64
3, 17984, Note_on_c, 0, 57, 0
3, 17984, Note_on_c, 0, 56, 64
3, 18048, Note_on_c, 0, 56, 0
3, 18048, Note_on_c, 0, 57, 64
3, 18336, Note_on_c, 0, 57, 0
3, 18384, Note_on_c, 0, 68, 64
3, 18432, Note_on_c, 0, 68, 0
3, 18432, Note_on_c, 0, 69, 64
3, 18576, Note_on_c, 0, 69, 0
3, 18576, Note_on_c, 0, 57, 64
3, 18624, Note_on_c, 0, 57, 0
3, 18624, Note_on_c, 0, 62, 64
3, 18880, Note_on_c, 0, 62, 0
3, 18880, Note_on_c, 0, 61, 64
3, 18944, Note_on_c, 0, 61, 0
3, 18944, Note_on_c, 0, 62, 64
3, 19008, Note_on_c, 0, 62, 0
3, 19008, Note_on_c, 0, 67, 64
3, 19200, Note_on_c, 0, 67, 0
3, 19200, Note_on_c, 0, 67, 64
3, 19264, Note_on_c, 0, 67, 0
3, 19264, Note_on_c, 0, 65, 64
3, 19296, Note_on_c, 0, 65, 0
3, 19296, Note_on_c, 0, 64, 64
3, 19328, Note_on_c, 0, 64, 0
3, 19328, Note_on_c, 0, 62, 64
3, 19360, Note_on_c, 0, 62, 0
3, 19360, Note_on_c, 0, 61, 64
3, 19392, Note_on_c, 0, 61, 0
3, 19392, Note_on_c, 0, 70, 64
3, 19680, Note_on_c, 0, 70, 0
3, 19680, Note_on_c, 0, 70, 64
3, 19728, Note_on_c, 0, 70, 0
3, 19728, Note_on_c, 0, 62, 64
3, 19776, Note_on_c, 0, 62, 0
3, 19776, Note_on_c, 0, 61, 64
3, 19840, Note_on_c, 0, 61, 0
3, 19840, Note_on_c, 0, 62, 64
3, 19904, Note_on_c, 0, 62, 0
3, 19904, Note_on_c, 0, 64, 64
3, 19968, Note_on_c, 0, 64, 0
3, 19968, Note_on_c, 0, 64, 64
3, 20032, Note_on_c, 0, 64, 0
3, 20032, Note_on_c, 0, 69, 64
3, 20096, Note_on_c, 0, 69, 0
3, 20096, Note_on_c, 0, 62, 64
3, 20160, Note_on_c, 0, 62, 0
3, 20160, Note_on_c, 0, 67, 64
3, 20448, Note_on_c, 0, 67, 0
3, 20448, Note_on_c, 0, 67, 64
3, 20496, Note_on_c, 0, 67, 0
3, 20496, Note_on_c, 0, 57, 64
3, 20544, Note_on_c, 0, 57, 0
3, 20544, Note_on_c, 0, 65, 64
3, 20736, Note_on_c, 0, 65, 0
3, 20736, Note_on_c, 0, 65, 64
3, 20880, Note_on_c, 0, 65, 0
3, 20880, Note_on_c, 0, 55, 64
3, 20928, Note_on_c, 0, 55, 0
3, 20928, Note_on_c, 0, 64, 64
3, 21184, Note_on_c, 0, 64, 0
3, 21184, Note_on_c, 0, 62, 64
3, 21248, Note_on_c, 0, 62, 0
3, 21248, Note_on_c, 0, 60, 64
3, 21312, Note_on_c, 0, 60, 0
3, 21312, Note_on_c, 0, 62, 64
3, 21376, Note_on_c, 0, 62, 0
3, 21376, Note_on_c, 0, 64, 64
3, 21440, Note_on_c, 0, 64, 0
3, 21440, Note_on_c, 0, 65, 64
3, 21504, Note_on_c, 0, 65, 0
3, 21504, Note_on_c, 0, 64, 64
3, 21568, Note_on_c, 0, 64, 0
3, 21568, Note_on_c, 0, 57, 64
3, 21632, Note_on_c, 0, 57, 0
3, 21728, Note_on_c, 0, 70, 64
3, 21760, Note_on_c, 0, 70, 0
3, 21760, Note_on_c, 0, 69, 64
3, 21792, Note_on_c, 0, 69, 0
3, 21792, Note_on_c, 0, 67, 64
3, 21824, Note_on_c, 0, 67, 0
3, 21824, Note_on_c, 0, 65, 64
3, 21856, Note_on_c, 0, 65, 0
3, 21856, Note_on_c, 0, 64, 64
3, 21888, Note_on_c, 0, 64, 0
3, 21888, Note_on_c, 0, 62, 64
3, 22080, Note_on_c, 0, 62, 0
3, 22080, Note_on_c, 0, 62, 64
3, 22112, Note_on_c, 0, 62, 0
3, 22112, Note_on_c, 0, 65, 64
3, 22144, Note_on_c, 0, 65, 0
3, 22144, Note_on_c, 0, 67, 64
3, 22176, Note_on_c, 0, 67, 0
3, 22176, Note_on_c, 0, 65, 64
3, 22208, Note_on_c, 0, 65, 0
3, 22208, Note_on_c, 0, 64, 64
3, 22240, Note_on_c, 0, 64, 0
3, 22240, Note_on_c, 0, 62, 64
3, 22272, Note_on_c, 0, 62, 0
3, 22272, Note_on_c, 0, 61, 64
3, 22336, Note_on_c, 0, 61, 0
3, 22336, Note_on_c, 0, 62, 64
3, 22400, Note_on_c, 0, 62, 0
3, 22400, Note_on_c, 0, 64, 64
3, 22464, Note_on_c, 0, 64, 0
3, 22464, Note_on_c, 0, 65, 64
3, 22496, Note_on_c, 0, 65, 0
3, 22496, Note_on_c, 0, 64, 64
3, 22528, Note_on_c, 0, 64, 0
3, 22528, Note_on_c, 0, 62, 64
3, 22560, Note_on_c, 0, 62, 0
3, 22560, Note_on_c, 0, 64, 64
3, 22592, Note_on_c, 0, 64, 0
3, 22592, Note_on_c, 0, 65, 64
3, 22656, Note_on_c, 0, 65, 0
3, 22656, Note_on_c, 0, 67, 64
3, 22720, Note_on_c, 0, 67, 0
3, 22720, Note_on_c, 0, 69, 64
3, 22784, Note_on_c, 0, 69, 0
3, 22784, Note_on_c, 0, 70, 64
3, 22912, Note_on_c, 0, 70, 0
3, 22912, Note_on_c, 0, 69, 64
3, 22976, Note_on_c, 0, 69, 0
3, 22976, Note_on_c, 0, 67, 64
3, 23040, Note_on_c, 0, 67, 0
3, 23040, Note_on_c, 0, 69, 64
3, 23072, Note_on_c, 0, 69, 0
3, 23072, Note_on_c, 0, 67, 64
3, 23104, Note_on_c, 0, 67, 0
3, 23104, Note_on_c, 0, 65, 64
3, 23136, Note_on_c, 0, 65, 0
3, 23136, Note_on_c, 0, 64, 64
3, 23168, Note_on_c, 0, 64, 0
3, 23168, Note_on_c, 0, 65, 64
3, 23296, Note_on_c, 0, 65, 0
3, 23296, Note_on_c, 0, 67, 64
3, 23360, Note_on_c, 0, 67, 0
3, 23360, Note_on_c, 0, 65, 64
3, 23424, Note_on_c, 0, 65, 0
3, 23424, Note_on_c, 0, 64, 64
3, 23488, Note_on_c, 0, 64, 0
3, 23488, Note_on_c, 0, 62, 64
3, 23552, Note_on_c, 0, 62, 0
3, 23552, Note_on_c, 0, 64, 64
3, 23680, Note_on_c, 0, 64, 0
3, 23680, Note_on_c, 0, 62, 64
3, 23712, Note_on_c, 0, 62, 0
3, 23712, Note_on_c, 0, 60, 64
3, 23744, Note_on_c, 0, 60, 0
3, 23744, Note_on_c, 0, 58, 64
3, 23776, Note_on_c, 0, 58, 0
3, 23776, Note_on_c, 0, 57, 64
3, 23808, Note_on_c, 0, 57, 0
3, 23808, Note_on_c, 0, 62, 64
3, 23872, Note_on_c, 0, 62, 0
3, 23872, Note_on_c, 0, 61, 64
3, 23936, Note_on_c, 0, 61, 0
3, 23936, Note_on_c, 0, 62, 64
3, 24064, Note_on_c, 0, 62, 0
3, 24064, Note_on_c, 0, 64, 64
3, 24128, Note_on_c, 0, 64, 0
3, 24128, Note_on_c, 0, 62, 64
3, 24192, Note_on_c, 0, 62, 0
3, 24192, Note_on_c, 0, 61, 64
3, 24256, Note_on_c, 0, 61, 0
3, 24256, Note_on_c, 0, 62, 64
3, 24320, Note_on_c, 0, 62, 0
3, 24320, Note_on_c, 0, 64, 64
3, 24384, Note_on_c, 0, 64, 0
3, 24384, Note_on_c, 0, 57, 64
3, 24448, Note_on_c, 0, 57, 0
3, 24448, Note_on_c, 0, 61, 64
3, 24512, Note_on_c, 0, 61, 0
3, 24512, Note_on_c, 0, 59, 64
3, 24576, Note_on_c, 0, 59, 0
3, 24576, Note_on_c, 0, 61, 64
3, 24608, Note_on_c, 0, 61, 0
3, 24608, Note_on_c, 0, 62, 64
3, 24640, Note_on_c, 0, 62, 0
3, 24640, Note_on_c, 0, 64, 64
3, 24672, Note_on_c, 0, 64, 0
3, 24672, Note_on_c, 0, 65, 64
3, 24704, Note_on_c, 0, 65, 0
3, 24704, Note_on_c, 0, 67, 64
3, 24736, Note_on_c, 0, 67, 0
3, 24736, Note_on_c, 0, 64, 64
3, 24768, Note_on_c, 0, 64, 0
3, 24768, Note_on_c, 0, 65, 64
3, 24800, Note_on_c, 0, 65, 0
3, 24800, Note_on_c, 0, 67, 64
3, 24832, Note_on_c, 0, 67, 0
3, 24832, Note_on_c, 0, 69, 64
3, 24896, Note_on_c, 0, 69, 0
3, 24896, Note_on_c, 0, 61, 64
3, 24960, Note_on_c, 0, 61, 0
3, 24960, Note_on_c, 0, 62, 64
3, 24992, Note_on_c, 0, 62, 0
3, 24992, Note_on_c, 0, 65, 64
3, 25024, Note_on_c, 0, 65, 0
3, 25024, Note_on_c, 0, 64, 64
3, 25056, Note_on_c, 0, 64, 0
3, 25056, Note_on_c, 0, 62, 64
3, 25088, Note_on_c, 0, 62, 0
3, 25088, Note_on_c, 0, 61, 64
3, 25120, Note_on_c, 0, 61, 0
3, 25120, Note_on_c, 0, 59, 64
3, 25152, Note_on_c, 0, 59, 0
3, 25152, Note_on_c, 0, 57, 64
3, 25216, Note_on_c, 0, 57, 0
3, 25216, Note_on_c, 0, 61, 64
3, 25280, Note_on_c, 0, 61, 0
3, 25280, Note_on_c, 0, 64, 64
3, 25344, Note_on_c, 0, 64, 0
3, 25344, Note_on_c, 0, 69, 64
3, 25728, Note_on_c, 0, 69, 0
3, 25728, Note_on_c, 0, 69, 64
3, 25792, Note_on_c, 0, 69, 0
3, 25792, Note_on_c, 0, 67, 64
3, 25856, Note_on_c, 0, 67, 0
3, 25856, Note_on_c, 0, 65, 64
3, 25920, Note_on_c, 0, 65, 0
3, 25920, Note_on_c, 0, 64, 64
3, 26112, Note_on_c, 0, 64, 0
3, 26112, Note_on_c, 0, 64, 64
3, 26256, Note_on_c, 0, 64, 0
3, 26256, Note_on_c, 0, 69, 64
3, 26304, Note_on_c, 0, 69, 0
3, 26304, Note_on_c, 0, 62, 64
3, 26592, Note_on_c, 0, 62, 0
3, 26592, Note_on_c, 0, 62, 64
3, 26640, Note_on_c, 0, 62, 0
3, 26640, Note_on_c, 0, 70, 64
3, 26688, Note_on_c, 0, 70, 0
3, 26688, Note_on_c, 0, 61, 64
3, 26752, Note_on_c, 0, 61, 0
3, 26752, Note_on_c, 0, 64, 64
3, 26816, Note_on_c, 0, 64, 0
3, 26816, Note_on_c, 0, 69, 64
3, 26880, Note_on_c, 0, 69, 0
3, 26880, Note_on_c, 0, 57, 64
3, 27024, Note_on_c, 0, 57, 0
3, 27024, Note_on_c, 0, 62, 64
3, 27072, Note_on_c, 0, 62, 0
3, 27072, Note_on_c, 0, 58, 64
3, 27328, Note_on_c, 0, 58, 0
3, 27328, Note_on_c, 0, 57, 64
3, 27392, Note_on_c, 0, 57, 0
3, 27392, Note_on_c, 0, 55, 64
3, 27456, Note_on_c, 0, 55, 0
3, 27456, Note_on_c, 0, 57, 64
3, 27648, Note_on_c, 0, 57, 0
3, 27648, Note_on_c, 0, 57, 64
3, 27712, Note_on_c, 0, 57, 0
3, 27712, Note_on_c, 0, 64, 64
3, 27776, Note_on_c, 0, 64, 0
3, 27776, Note_on_c, 0, 60, 64
3, 27840, Note_on_c, 0, 60, 0
3, 27880, Note_on_c, 0, 70, 64
3, 27904, Note_on_c, 0, 70, 0
3, 27904, Note_on_c, 0, 69, 64
3, 27968, Note_on_c, 0, 69, 0
3, 27968, Note_on_c, 0, 67, 64
3, 28032, Note_on_c, 0, 67, 0
3, 28032, Note_on_c, 0, 69, 64
3, 28056, Note_on_c, 0, 69, 0
3, 28056, Note_on_c, 0, 65, 64
3, 28248, Note_on_c, 0, 65, 0
3, 28248, Note_on_c, 0, 65, 64
3, 28256, Note_on_c, 0, 65, 0
3, 28256, Note_on_c, 0, 69, 64
3, 28288, Note_on_c, 0, 69, 0
3, 28288, Note_on_c, 0, 67, 64
3, 28320, Note_on_c, 0, 67, 0
3, 28320, Note_on_c, 0, 65, 64
3, 28352, Note_on_c, 0, 65, 0
3, 28352, Note_on_c, 0, 64, 64
3, 28384, Note_on_c, 0, 64, 0
3, 28384, Note_on_c, 0, 62, 64
3, 28416, Note_on_c, 0, 62, 0
3, 28416, Note_on_c, 0, 60, 64
3, 28448, Note_on_c, 0, 60, 0
3, 28448, Note_on_c, 0, 58, 64
3, 28480, Note_on_c, 0, 58, 0
3, 28480, Note_on_c, 0, 57, 64
3, 28512, Note_on_c, 0, 57, 0
3, 28512, Note_on_c, 0, 58, 64
3, 28544, Note_on_c, 0, 58, 0
3, 28544, Note_on_c, 0, 60, 64
3, 28576, Note_on_c, 0, 60, 0
3, 28576, Note_on_c, 0, 62, 64
3, 28608, Note_on_c, 0, 62, 0
3, 28608, Note_on_c, 0, 64, 64
3, 28640, Note_on_c, 0, 64, 0
3, 28640, Note_on_c, 0, 62, 64
3, 28672, Note_on_c, 0, 62, 0
3, 28672, Note_on_c, 0, 64, 64
3, 28704, Note_on_c, 0, 64, 0
3, 28704, Note_on_c, 0, 66, 64
3, 28736, Note_on_c, 0, 66, 0
3, 28736, Note_on_c, 0, 67, 64
3, 28768, Note_on_c, 0, 67, 0
3, 28768, Note_on_c, 0, 64, 64
3, 28800, Note_on_c, 0, 64, 0
3, 28800, Note_on_c, 0, 66, 64
3, 28832, Note_on_c, 0, 66, 0
3, 28832, Note_on_c, 0, 62, 64
3, 28864, Note_on_c, 0, 62, 0
3, 28864, Note_on_c, 0, 64, 64
3, 28896, Note_on_c, 0, 64, 0
3, 28896, Note_on_c, 0, 66, 64
3, 28928, Note_on_c, 0, 66, 0
3, 28928, Note_on_c, 0, 67, 64
3, 28960, Note_on_c, 0, 67, 0
3, 28960, Note_on_c, 0, 69, 64
3, 28992, Note_on_c, 0, 69, 0
3, 28992, Note_on_c, 0, 70, 64
3, 29024, Note_on_c, 0, 70, 0
3, 29024, Note_on_c, 0, 69, 64
3, 29056, Note_on_c, 0, 69, 0
3, 29056, Note_on_c, 0, 67, 64
3, 29088, Note_on_c, 0, 67, 0
3, 29088, Note_on_c, 0, 65, 64
3, 29120, Note_on_c, 0, 65, 0
3, 29120, Note_on_c, 0, 64, 64
3, 29152, Note_on_c, 0, 64, 0
3, 29152, Note_on_c, 0, 62, 64
3, 29184, Note_on_c, 0, 62, 0
3, 29184, Note_on_c, 0, 60, 64
3, 29216, Note_on_c, 0, 60, 0
3, 29216, Note_on_c, 0, 64, 64
3, 29248, Note_on_c, 0, 64, 0
3, 29248, Note_on_c, 0, 67, 64
3, 29280, Note_on_c, 0, 67, 0
3, 29280, Note_on_c, 0, 70, 64
3, 29312, Note_on_c, 0, 70, 0
3, 29312, Note_on_c, 0, 69, 64
3, 29344, Note_on_c, 0, 69, 0
3, 29344, Note_on_c, 0, 67, 64
3, 29376, Note_on_c, 0, 67, 0
3, 29376, Note_on_c, 0, 69, 64
3, 29408, Note_on_c, 0, 69, 0
3, 29408, Note_on_c, 0, 67, 64
3, 29440, Note_on_c, 0, 67, 0
3, 29440, Note_on_c, 0, 65, 64
3, 29472, Note_on_c, 0, 65, 0
3, 29472, Note_on_c, 0, 64, 64
3, 29504, Note_on_c, 0, 64, 0
3, 29504, Note_on_c, 0, 62, 64
3, 29536, Note_on_c, 0, 62, 0
3, 29536, Note_on_c, 0, 60, 64
3, 29568, Note_on_c, 0, 60, 0
3, 29568, Note_on_c, 0, 58, 64
3, 29600, Note_on_c, 0, 58, 0
3, 29600, Note_on_c, 0, 60, 64
3, 29632, Note_on_c, 0, 60, 0
3, 29632, Note_on_c, 0, 58, 64
3, 29664, Note_on_c, 0, 58, 0
3, 29664, Note_on_c, 0, 57, 64
3, 29696, Note_on_c, 0, 57, 0
3, 29696, Note_on_c, 0, 55, 64
3, 29728, Note_on_c, 0, 55, 0
3, 29728, Note_on_c, 0, 53, 64
3, 29760, Note_on_c, 0, 53, 0
3, 29760, Note_on_c, 0, 55, 64
3, 29792, Note_on_c, 0, 55, 0
3, 29792, Note_on_c, 0, 58, 64
3, 29824, Note_on_c, 0, 58, 0
3, 29824, Note_on_c, 0, 57, 64
3, 29856, Note_on_c, 0, 57, 0
3, 29856, Note_on_c, 0, 55, 64
3, 29888, Note_on_c, 0, 55, 0
3, 29888, Note_on_c, 0, 53, 64
3, 29920, Note_on_c, 0, 53, 0
3, 29920, Note_on_c, 0, 52, 64
3, 29952, Note_on_c, 0, 52, 0
3, 29952, Note_on_c, 0, 53, 64
3, 29984, Note_on_c, 0, 53, 0
3, 29984, Note_on_c, 0, 50, 64
3, 30016, Note_on_c, 0, 50, 0
3, 30016, Note_on_c, 0, 52, 64
3, 30048, Note_on_c, 0, 52, 0
3, 30048, Note_on_c, 0, 53, 64
3, 30080, Note_on_c, 0, 53, 0
3, 30080, Note_on_c, 0, 55, 64
3, 30112, Note_on_c, 0, 55, 0
3, 30112, Note_on_c, 0, 57, 64
3, 30144, Note_on_c, 0, 57, 0
3, 30144, Note_on_c, 0, 58, 64
3, 30208, Note_on_c, 0, 58, 0
3, 30208, Note_on_c, 0, 57, 64
3, 30272, Note_on_c, 0, 57, 0
3, 30272, Note_on_c, 0, 55, 64
3, 30336, Note_on_c, 0, 55, 0
3, 30336, Note_on_c, 0, 53, 64
3, 30400, Note_on_c, 0, 53, 0
3, 30400, Note_on_c, 0, 55, 64
3, 30464, Note_on_c, 0, 55, 0
3, 30464, Note_on_c, 0, 52, 64
3, 30528, Note_on_c, 0, 52, 0
3, 30528, Note_on_c, 0, 50, 64
3, 30592, Note_on_c, 0, 50, 0
3, 30592, Note_on_c, 0, 52, 64
3, 30656, Note_on_c, 0, 52, 0
3, 30656, Note_on_c, 0, 49, 64
3, 30720, Note_on_c, 0, 49, 0
3, 30720, Note_on_c, 0, 50, 64
3, 30752, Note_on_c, 0, 50, 0
3, 30752, Note_on_c, 0, 52, 64
3, 30784, Note_on_c, 0, 52, 0
3, 30784, Note_on_c, 0, 53, 64
3, 30816, Note_on_c, 0, 53, 0
3, 30816, Note_on_c, 0, 55, 64
3, 30848, Note_on_c, 0, 55, 0
3, 30848, Note_on_c, 0, 57, 64
3, 30880, Note_on_c, 0, 57, 0
3, 30880, Note_on_c, 0, 58, 64
3, 30912, Note_on_c, 0, 58, 0
3, 30912, Note_on_c, 0, 60, 64
3, 30976, Note_on_c, 0, 60, 0
3, 30976, Note_on_c, 0, 62, 64
3, 31040, Note_on_c, 0, 62, 0
3, 31040, Note_on_c, 0, 58, 64
3, 31104, Note_on_c, 0, 58, 0
3, 31104, Note_on_c, 0, 57, 64
3, 31168, Note_on_c, 0, 57, 0
3, 31168, Note_on_c, 0, 58, 64
3, 31232, Note_on_c, 0, 58, 0
3, 31232, Note_on_c, 0, 55, 64
3, 31296, Note_on_c, 0, 55, 0
3, 31296, Note_on_c, 0, 53, 64
3, 31360, Note_on_c, 0, 53, 0
3, 31360, Note_on_c, 0, 55, 64
3, 31424, Note_on_c, 0, 55, 0
3, 31424, Note_on_c, 0, 52, 64
3, 31488, Note_on_c, 0, 52, 0
3, 31488, Note_on_c, 0, 53, 64
3, 31520, Note_on_c, 0, 53, 0
3, 31520, Note_on_c, 0, 57, 64
3, 31552, Note_on_c, 0, 57, 0
3, 31552, Note_on_c, 0, 58, 64
3, 31584, Note_on_c, 0, 58, 0
3, 31584, Note_on_c, 0, 60, 64
3, 31616, Note_on_c, 0, 60, 0
3, 31616, Note_on_c, 0, 62, 64
3, 31648, Note_on_c, 0, 62, 0
3, 31648, Note_on_c, 0, 64, 64
3, 31680, Note_on_c, 0, 64, 0
3, 31680, Note_on_c, 0, 65, 64
3, 31744, Note_on_c, 0, 65, 0
3, 31744, Note_on_c, 0, 67, 64
3, 31808, Note_on_c, 0, 67, 0
3, 31808, Note_on_c, 0, 64, 64
3, 31872, Note_on_c, 0, 64, 0
3, 31872, Note_on_c, 0, 62, 64
3, 31936, Note_on_c, 0, 62, 0
3, 31936, Note_on_c, 0, 61, 64
3, 32000, Note_on_c, 0, 61, 0
3, 32000, Note_on_c, 0, 62, 64
3, 32064, Note_on_c, 0, 62, 0
3, 32064, Note_on_c, 0, 64, 64
3, 32128, Note_on_c, 0, 64, 0
3, 32128, Note_on_c, 0, 65, 64
3, 32192, Note_on_c, 0, 65, 0
3, 32192, Note_on_c, 0, 62, 64
3, 32256, Note_on_c, 0, 62, 0
3, 32256, Note_on_c, 0, 61, 64
3, 32320, Note_on_c, 0, 61, 0
3, 32320, Note_on_c, 0, 59, 64
3, 32384, Note_on_c, 0, 59, 0
3, 32384, Note_on_c, 0, 61, 64
3, 32448, Note_on_c, 0, 61, 0
3, 32448, Note_on_c, 0, 62, 64
3, 32512, Note_on_c, 0, 62, 0
3, 32512, Note_on_c, 0, 64, 64
3, 32576, Note_on_c, 0, 64, 0
3, 32576, Note_on_c, 0, 60, 64
3, 32648, Note_on_c, 0, 60, 0
3, 32648, Note_on_c, 0, 60, 64
3, 32664, Note_on_c, 0, 60, 0
3, 32664, Note_on_c, 0, 58, 64
3, 32688, Note_on_c, 0, 58, 0
3, 32688, Note_on_c, 0, 60, 64
3, 32712, Note_on_c, 0, 60, 0
3, 32712, Note_on_c, 0, 58, 64
3, 32736, Note_on_c, 0, 58, 0
3, 32736, Note_on_c, 0, 60, 64
3, 32760, Note_on_c, 0, 60, 0
3, 32760, Note_on_c, 0, 58, 64
3, 32784, Note_on_c, 0, 58, 0
3, 32784, Note_on_c, 0, 60, 64
3, 32808, Note_on_c, 0, 60, 0
3, 32808, Note_on_c, 0, 58, 64
3, 32832, Note_on_c, 0, 58, 0
3, 32832, Note_on_c, 0, 60, 64
3, 32856, Note_on_c, 0, 60, 0
3, 32856, Note_on_c, 0, 58, 64
3, 32880, Note_on_c, 0, 58, 0
3, 32880, Note_on_c, 0, 60, 64
3, 32904, Note_on_c, 0, 60, 0
3, 32904, Note_on_c, 0, 58, 64
3, 32928, Note_on_c, 0, 58, 0
3, 32928, Note_on_c, 0, 60, 64
3, 32952, Note_on_c, 0, 60, 0
3, 32952, Note_on_c, 0, 58, 64
3, 32976, Note_on_c, 0, 58, 0
3, 32976, Note_on_c, 0, 57, 64
3, 33000, Note_on_c, 0, 57, 0
3, 33000, Note_on_c, 0, 58, 64
3, 33024, Note_on_c, 0, 58, 0
3, 33024, Note_on_c, 0, 57, 64
3, 33216, Note_on_c, 0, 57, 0
3, 33216, Note_on_c, 0, 50, 64
3, 33600, Note_on_c, 0, 50, 0
3, 33600, Note_on_c, 0, 53, 64
3, 33792, Note_on_c, 0, 53, 0
3, 33792, Note_on_c, 0, 53, 64
3, 33984, Note_on_c, 0, 53, 0
3, 33984, Note_on_c, 0, 57, 64
3, 34368, Note_on_c, 0, 57, 0
3, 34368, Note_on_c, 0, 58, 64
3, 34560, Note_on_c, 0, 58, 0
3, 34560, Note_on_c, 0, 58, 64
3, 34752, Note_on_c, 0, 58, 0
3, 34752, Note_on_c, 0, 57, 64
3, 35136, Note_on_c, 0, 57, 0
3, 35136, Note_on_c, 0, 55, 64
3, 35328, Note_on_c, 0, 55, 0
3, 35328, Note_on_c, 0, 55, 64
3, 35520, Note_on_c, 0, 55, 0
3, 35520, Note_on_c, 0, 53, 64
3, 35808, Note_on_c, 0, 53, 0
3, 35808, Note_on_c, 0, 53, 64
3, 35856, Note_on_c, 0, 53, 0
3, 35856, Note_on_c, 0, 52, 64
3, 35904, Note_on_c, 0, 52, 0
3, 35904, Note_on_c, 0, 53, 64
3, 36048, Note_on_c, 0, 53, 0
3, 36048, Note_on_c, 0, 55, 64
3, 36096, Note_on_c, 0, 55, 0
3, 36096, Note_on_c, 0, 57, 64
3, 36160, Note_on_c, 0, 57, 0
3, 36160, Note_on_c, 0, 55, 64
3, 36224, Note_on_c, 0, 55, 0
3, 36224, Note_on_c, 0, 57, 64
3, 36288, Note_on_c, 0, 57, 0
3, 36288, Note_on_c, 0, 58, 64
3, 36352, Note_on_c, 0, 58, 0
3, 36352, Note_on_c, 0, 57, 64
3, 36416, Note_on_c, 0, 57, 0
3, 36416, Note_on_c, 0, 55, 64
3, 36480, Note_on_c, 0, 55, 0
3, 36480, Note_on_c, 0, 53, 64
3, 36544, Note_on_c, 0, 53, 0
3, 36544, Note_on_c, 0, 55, 64
3, 36608, Note_on_c, 0, 55, 0
3, 36608, Note_on_c, 0, 52, 64
3, 36672, Note_on_c, 0, 52, 0
3, 36672, Note_on_c, 0, 50, 64
3, 36736, Note_on_c, 0, 50, 0
3, 36736, Note_on_c, 0, 52, 64
3, 36800, Note_on_c, 0, 52, 0
3, 36800, Note_on_c, 0, 49, 64
3, 36864, Note_on_c, 0, 49, 0
3, 36864, Note_on_c, 0, 50, 64
3, 36928, Note_on_c, 0, 50, 0
3, 36928, Note_on_c, 0, 57, 64
3, 36992, Note_on_c, 0, 57, 0
3, 36992, Note_on_c, 0, 62, 64
3, 37056, Note_on_c, 0, 62, 0
3, 37056, Note_on_c, 0, 60, 64
3, 37120, Note_on_c, 0, 60, 0
3, 37120, Note_on_c, 0, 62, 64
3, 37184, Note_on_c, 0, 62, 0
3, 37184, Note_on_c, 0, 58, 64
3, 37248, Note_on_c, 0, 58, 0
3, 37248, Note_on_c, 0, 57, 64
3, 37312, Note_on_c, 0, 57, 0
3, 37312, Note_on_c, 0, 58, 64
3, 37376, Note_on_c, 0, 58, 0
3, 37376, Note_on_c, 0, 55, 64
3, 37440, Note_on_c, 0, 55, 0
3, 37440, Note_on_c, 0, 53, 64
3, 37504, Note_on_c, 0, 53, 0
3, 37504, Note_on_c, 0, 55, 64
3, 37568, Note_on_c, 0, 55, 0
3, 37568, Note_on_c, 0, 52, 64
3, 37632, Note_on_c, 0, 52, 0
3, 37632, Note_on_c, 0, 53, 64
3, 37696, Note_on_c, 0, 53, 0
3, 37696, Note_on_c, 0, 50, 64
3, 37760, Note_on_c, 0, 50, 0
3, 37760, Note_on_c, 0, 52, 64
3, 37824, Note_on_c, 0, 52, 0
3, 37824, Note_on_c, 0, 53, 64
3, 37888, Note_on_c, 0, 53, 0
3, 37888, Note_on_c, 0, 57, 64
3, 37952, Note_on_c, 0, 57, 0
3, 37952, Note_on_c, 0, 55, 64
3, 38016, Note_on_c, 0, 55, 0
3, 38016, Note_on_c, 0, 57, 64
3, 38080, Note_on_c, 0, 57, 0
3, 38080, Note_on_c, 0, 58, 64
3, 38144, Note_on_c, 0, 58, 0
3, 38144, Note_on_c, 0, 60, 64
3, 38208, Note_on_c, 0, 60, 0
3, 38208, Note_on_c, 0, 62, 64
3, 38272, Note_on_c, 0, 62, 0
3, 38272, Note_on_c, 0, 64, 64
3, 38336, Note_on_c, 0, 64, 0
3, 38336, Note_on_c, 0, 61, 64
3, 38400, Note_on_c, 0, 61, 0
3, 38400, Note_on_c, 0, 62, 64
3, 38464, Note_on_c, 0, 62, 0
3, 38464, Note_on_c, 0, 50, 64
3, 38528, Note_on_c, 0, 50, 0
3, 38528, Note_on_c, 0, 62, 64
3, 38656, Note_on_c, 0, 62, 0
3, 38656, Note_on_c, 0, 61, 64
3, 38720, Note_on_c, 0, 61, 0
3, 38720, Note_on_c, 0, 64, 64
3, 38784, Note_on_c, 0, 64, 0
3, 38784, Note_on_c, 0, 62, 64
3, 38848, Note_on_c, 0, 62, 0
3, 38848, Note_on_c, 0, 64, 64
3, 38912, Note_on_c, 0, 64, 0
3, 38912, Note_on_c, 0, 65, 64
3, 38976, Note_on_c, 0, 65, 0
3, 38976, Note_on_c, 0, 64, 64
3, 39040, Note_on_c, 0, 64, 0
3, 39040, Note_on_c, 0, 65, 64
3, 39104, Note_on_c, 0, 65, 0
3, 39104, Note_on_c, 0, 62, 64
3, 39168, Note_on_c, 0, 62, 0
3, 39168, Note_on_c, 0, 60, 64
3, 39360, Note_on_c, 0, 60, 0
3, 39360, Note_on_c, 0, 53, 64
3, 39744, Note_on_c, 0, 53, 0
3, 39744, Note_on_c, 0, 57, 64
3, 39936, Note_on_c, 0, 57, 0
3, 39936, Note_on_c, 0, 57, 64
3, 40128, Note_on_c, 0, 57, 0
3, 40128, Note_on_c, 0, 60, 64
3, 40512, Note_on_c, 0, 60, 0
3, 40512, Note_on_c, 0, 62, 64
3, 40704, Note_on_c, 0, 62, 0
3, 40704, Note_on_c, 0, 62, 64
3, 40896, Note_on_c, 0, 62, 0
3, 40896, Note_on_c, 0, 60, 64
3, 41280, Note_on_c, 0, 60, 0
3, 41280, Note_on_c, 0, 58, 64
3, 41472, Note_on_c, 0, 58, 0
3, 41472, Note_on_c, 0, 58, 64
3, 41664, Note_on_c, 0, 58, 0
3, 41664, Note_on_c, 0, 57, 64
3, 41952, Note_on_c, 0, 57, 0
3, 41952, Note_on_c, 0, 57, 64
3, 42000, Note_on_c, 0, 57, 0
3, 42000, Note_on_c, 0, 55, 64
3, 42048, Note_on_c, 0, 55, 0
3, 42048, Note_on_c, 0, 57, 64
3, 42192, Note_on_c, 0, 57, 0
3, 42192, Note_on_c, 0, 59, 64
3, 42240, Note_on_c, 0, 59, 0
3, 42240, Note_on_c, 0, 60, 64
3, 42304, Note_on_c, 0, 60, 0
3, 42304, Note_on_c, 0, 59, 64
3, 42368, Note_on_c, 0, 59, 0
3, 42368, Note_on_c, 0, 60, 64
3, 42496, Note_on_c, 0, 60, 0
3, 42496, Note_on_c, 0, 62, 64
3, 42560, Note_on_c, 0, 62, 0
3, 42560, Note_on_c, 0, 64, 64
3, 42624, Note_on_c, 0, 64, 0
3, 42624, Note_on_c, 0, 62, 64
3, 42688, Note_on_c, 0, 62, 0
3, 42688, Note_on_c, 0, 64, 64
3, 42752, Note_on_c, 0, 64, 0
3, 42752, Note_on_c, 0, 65, 64
3, 42816, Note_on_c, 0, 65, 0
3, 42816, Note_on_c, 0, 64, 64
3, 42880, Note_on_c, 0, 64, 0
3, 42880, Note_on_c, 0, 65, 64
3, 42944, Note_on_c, 0, 65, 0
3, 42944, Note_on_c, 0, 67, 64
3, 43008, Note_on_c, 0, 67, 0
3, 43008, Note_on_c, 0, 65, 64
3, 43072, Note_on_c, 0, 65, 0
3, 43072, Note_on_c, 0, 67, 64
3, 43136, Note_on_c, 0, 67, 0
3, 43136, Note_on_c, 0, 69, 64
3, 43200, Note_on_c, 0, 69, 0
3, 43200, Note_on_c, 0, 67, 64
3, 43264, Note_on_c, 0, 67, 0
3, 43264, Note_on_c, 0, 69, 64
3, 43328, Note_on_c, 0, 69, 0
3, 43328, Note_on_c, 0, 70, 64
3, 43392, Note_on_c, 0, 70, 0
3, 43392, Note_on_c, 0, 69, 64
3, 43456, Note_on_c, 0, 69, 0
3, 43456, Note_on_c, 0, 67, 64
3, 43520, Note_on_c, 0, 67, 0
3, 43520, Note_on_c, 0, 69, 64
3, 43648, Note_on_c, 0, 69, 0
3, 43648, Note_on_c, 0, 65, 64
3, 43712, Note_on_c, 0, 65, 0
3, 43712, Note_on_c, 0, 62, 64
3, 43776, Note_on_c, 0, 62, 0
3, 43776, Note_on_c, 0, 58, 64
3, 43840, Note_on_c, 0, 58, 0
3, 43840, Note_on_c, 0, 57, 64
3, 43904, Note_on_c, 0, 57, 0
3, 43904, Note_on_c, 0, 58, 64
3, 44032, Note_on_c, 0, 58, 0
3, 44032, Note_on_c, 0, 67, 64
3, 44096, Note_on_c, 0, 67, 0
3, 44096, Note_on_c, 0, 58, 64
3, 44160, Note_on_c, 0, 58, 0
3, 44160, Note_on_c, 0, 57, 64
3, 44224, Note_on_c, 0, 57, 0
3, 44224, Note_on_c, 0, 55, 64
3, 44288, Note_on_c, 0, 55, 0
3, 44288, Note_on_c, 0, 57, 64
3, 44416, Note_on_c, 0, 57, 0
3, 44416, Note_on_c, 0, 65, 64
3, 44480, Note_on_c, 0, 65, 0
3, 44480, Note_on_c, 0, 57, 64
3, 44544, Note_on_c, 0, 57, 0
3, 44544, Note_on_c, 0, 55, 64
3, 44608, Note_on_c, 0, 55, 0
3, 44608, Note_on_c, 0, 53, 64
3, 44672, Note_on_c, 0, 53, 0
3, 44672, Note_on_c, 0, 55, 64
3, 44800, Note_on_c, 0, 55, 0
3, 44800, Note_on_c, 0, 64, 64
3, 44864, Note_on_c, 0, 64, 0
3, 44864, Note_on_c, 0, 55, 64
3, 44928, Note_on_c, 0, 55, 0
3, 44928, Note_on_c, 0, 53, 64
3, 44992, Note_on_c, 0, 53, 0
3, 44992, Note_on_c, 0, 52, 64
3, 45056, Note_on_c, 0, 52, 0
3, 45056, Note_on_c, 0, 53, 64
3, 45184, Note_on_c, 0, 53, 0
3, 45184, Note_on_c, 0, 52, 64
3, 45248, Note_on_c, 0, 52, 0
3, 45248, Note_on_c, 0, 50, 64
3, 45312, Note_on_c, 0, 50, 0
3, 45312, Note_on_c, 0, 55, 64
3, 45456, Note_on_c, 0, 55, 0
3, 45456, Note_on_c, 0, 52, 64
3, 45504, Note_on_c, 0, 52, 0
3, 45504, Note_on_c, 0, 48, 64
3, 45696, Note_on_c, 0, 48, 0
3, 45888, Note_on_c, 0, 60, 64
3, 46080, Note_on_c, 0, 60, 0
3, 46080, Note_on_c, 0, 60, 64
3, 46144, Note_on_c, 0, 60, 0
3, 46144, Note_on_c, 0, 58, 64
3, 46176, Note_on_c, 0, 58, 0
3, 46176, Note_on_c, 0, 57, 64
3, 46208, Note_on_c, 0, 57, 0
3, 46208, Note_on_c, 0, 55, 64
3, 46240, Note_on_c, 0, 55, 0
3, 46240, Note_on_c, 0, 53, 64
3, 46272, Note_on_c, 0, 53, 0
3, 46272, Note_on_c, 0, 64, 64
3, 46560, Note_on_c, 0, 64, 0
3, 46560, Note_on_c, 0, 64, 64
3, 46608, Note_on_c, 0, 64, 0
3, 46608, Note_on_c, 0, 60, 64
3, 46656, Note_on_c, 0, 60, 0
3, 46656, Note_on_c, 0, 65, 64
3, 46848, Note_on_c, 0, 65, 0
3, 46848, Note_on_c, 0, 65, 64
3, 47040, Note_on_c, 0, 65, 0
3, 47040, Note_on_c, 0, 64, 64
3, 47232, Note_on_c, 0, 64, 0
3, 47232, Note_on_c, 0, 63, 64
3, 47424, Note_on_c, 0, 63, 0
3, 47424, Note_on_c, 0, 62, 64
3, 47616, Note_on_c, 0, 62, 0
3, 47616, Note_on_c, 0, 61, 64
3, 47808, Note_on_c, 0, 61, 0
3, 47808, Note_on_c, 0, 60, 64
3, 48096, Note_on_c, 0, 60, 0
3, 48096, Note_on_c, 0, 60, 64
3, 48144, Note_on_c, 0, 60, 0
3, 48144, Note_on_c, 0, 65, 64
3, 48192, Note_on_c, 0, 65, 0
3, 48192, Note_on_c, 0, 59, 64
3, 48256, Note_on_c, 0, 59, 0
3, 48256, Note_on_c, 0, 61, 64
3, 48320, Note_on_c, 0, 61, 0
3, 48320, Note_on_c, 0, 62, 64
3, 48384, Note_on_c, 0, 62, 0
3, 48384, Note_on_c, 0, 62, 64
3, 48448, Note_on_c, 0, 62, 0
3, 48448, Note_on_c, 0, 61, 64
3, 48480, Note_on_c, 0, 61, 0
3, 48480, Note_on_c, 0, 59, 64
3, 48512, Note_on_c, 0, 59, 0
3, 48512, Note_on_c, 0, 61, 64
3, 48576, Note_on_c, 0, 61, 0
3, 48640, Note_on_c, 0, 70, 64
3, 48672, Note_on_c, 0, 70, 0
3, 48672, Note_on_c, 0, 69, 64
3, 48704, Note_on_c, 0, 69, 0
3, 48704, Note_on_c, 0, 67, 64
3, 48736, Note_on_c, 0, 67, 0
3, 48736, Note_on_c, 0, 65, 64
3, 48768, Note_on_c, 0, 65, 0
3, 48768, Note_on_c, 0, 64, 64
3, 48800, Note_on_c, 0, 64, 0
3, 48800, Note_on_c, 0, 65, 64
3, 48832, Note_on_c, 0, 65, 0
3, 48832, Note_on_c, 0, 67, 64
3, 48864, Note_on_c, 0, 67, 0
3, 48864, Note_on_c, 0, 65, 64
3, 48896, Note_on_c, 0, 65, 0
3, 48896, Note_on_c, 0, 64, 64
3, 48928, Note_on_c, 0, 64, 0
3, 48928, Note_on_c, 0, 62, 64
3, 48960, Note_on_c, 0, 62, 0
3, 48960, Note_on_c, 0, 61, 64
3, 49024, Note_on_c, 0, 61, 0
3, 49024, Note_on_c, 0, 64, 64
3, 49088, Note_on_c, 0, 64, 0
3, 49088, Note_on_c, 0, 67, 64
3, 49152, Note_on_c, 0, 67, 0
3, 49152, Note_on_c, 0, 57, 64
3, 49216, Note_on_c, 0, 57, 0
3, 49216, Note_on_c, 0, 61, 64
3, 49280, Note_on_c, 0, 61, 0
3, 49280, Note_on_c, 0, 64, 64
3, 49344, Note_on_c, 0, 64, 0
3, 49408, Note_on_c, 0, 61, 64
3, 49472, Note_on_c, 0, 61, 0
3, 49472, Note_on_c, 0, 62, 64
3, 49536, Note_on_c, 0, 62, 0
3, 49536, Note_on_c, 0, 64, 64
3, 49600, Note_on_c, 0, 64, 0
3, 49600, Note_on_c, 0, 65, 64
3, 49664, Note_on_c, 0, 65, 0
3, 49664, Note_on_c, 0, 67, 64
3, 49760, Note_on_c, 0, 67, 0
3, 49760, Note_on_c, 0, 65, 64
3, 49792, Note_on_c, 0, 65, 0
3, 49792, Note_on_c, 0, 64, 64
3, 49824, Note_on_c, 0, 64, 0
3, 49824, Note_on_c, 0, 65, 64
3, 49856, Note_on_c, 0, 65, 0
3, 49856, Note_on_c, 0, 67, 64
3, 49888, Note_on_c, 0, 67, 0
3, 49888, Note_on_c, 0, 64, 64
3, 49920, Note_on_c, 0, 64, 0
3, 49920, Note_on_c, 0, 65, 64
3, 49952, Note_on_c, 0, 65, 0
3, 49952, Note_on_c, 0, 64, 64
3, 49984, Note_on_c, 0, 64, 0
3, 49984, Note_on_c, 0, 62, 64
3, 50016, Note_on_c, 0, 62, 0
3, 50016, Note_on_c, 0, 61, 64
3, 50048, Note_on_c, 0, 61, 0
3, 50048, Note_on_c, 0, 62, 64
3, 50176, Note_on_c, 0, 62, 0
3, 50176, Note_on_c, 0, 61, 64
3, 50240, Note_on_c, 0, 61, 0
3, 50240, Note_on_c, 0, 59, 64
3, 50304, Note_on_c, 0, 59, 0
3, 50304, Note_on_c, 0, 61, 64
3, 50336, Note_on_c, 0, 61, 0
3, 50336, Note_on_c, 0, 59, 64
3, 50368, Note_on_c, 0, 59, 0
3, 50368, Note_on_c, 0, 57, 64
3, 50400, Note_on_c, 0, 57, 0
3, 50400, Note_on_c, 0, 59, 64
3, 50432, Note_on_c, 0, 59, 0
3, 50432, Note_on_c, 0, 60, 64
3, 50560, Note_on_c, 0, 60, 0
3, 50560, Note_on_c, 0, 59, 64
3, 50624, Note_on_c, 0, 59, 0
3, 50624, Note_on_c, 0, 57, 64
3, 50688, Note_on_c, 0, 57, 0
3, 50688, Note_on_c, 0, 59, 64
3, 50720, Note_on_c, 0, 59, 0
3, 50720, Note_on_c, 0, 57, 64
3, 50752, Note_on_c, 0, 57, 0
3, 50752, Note_on_c, 0, 55, 64
3, 50784, Note_on_c, 0, 55, 0
3, 50784, Note_on_c, 0, 57, 64
3, 50816, Note_on_c, 0, 57, 0
3, 50816, Note_on_c, 0, 58, 64
3, 50944, Note_on_c, 0, 58, 0
3, 50944, Note_on_c, 0, 57, 64
3, 51008, Note_on_c, 0, 57, 0
3, 51008, Note_on_c, 0, 56, 64
3, 51072, Note_on_c, 0, 56, 0
3, 51072, Note_on_c, 0, 57, 64
3, 51360, Note_on_c, 0, 57, 0
3, 51408, Note_on_c, 0, 68, 64
3, 51456, Note_on_c, 0, 68, 0
3, 51456, Note_on_c, 0, 69, 64
3, 51600, Note_on_c, 0, 69, 0
3, 51600, Note_on_c, 0, 57, 64
3, 51648, Note_on_c, 0, 57, 0
3, 51648, Note_on_c, 0, 62, 64
3, 51904, Note_on_c, 0, 62, 0
3, 51904, Note_on_c, 0, 61, 64
3, 51968, Note_on_c, 0, 61, 0
3, 51968, Note_on_c, 0, 62, 64
3, 52032, Note_on_c, 0, 62, 0
3, 52032, Note_on_c, 0, 67, 64
3, 52224, Note_on_c, 0, 67, 0
3, 52224, Note_on_c, 0, 67, 64
3, 52288, Note_on_c, 0, 67, 0
3, 52288, Note_on_c, 0, 65, 64
3, 52320, Note_on_c, 0, 65, 0
3, 52320, Note_on_c, 0, 64, 64
3, 52352, Note_on_c, 0, 64, 0
3, 52352, Note_on_c, 0, 62, 64
3, 52384, Note_on_c, 0, 62, 0
3, 52384, Note_on_c, 0, 61, 64
3, 52416, Note_on_c, 0, 61, 0
3, 52416, Note_on_c, 0, 70, 64
3, 52704, Note_on_c, 0, 70, 0
3, 52704, Note_on_c, 0, 70, 64
3, 52752, Note_on_c, 0, 70, 0
3, 52752, Note_on_c, 0, 62, 64
3, 52800, Note_on_c, 0, 62, 0
3, 52800, Note_on_c, 0, 61, 64
3, 52864, Note_on_c, 0, 61, 0
3, 52864, Note_on_c, 0, 62, 64
3, 52928, Note_on_c, 0, 62, 0
3, 52928, Note_on_c, 0, 64, 64
3, 52992, Note_on_c, 0, 64, 0
3, 52992, Note_on_c, 0, 64, 64
3, 53056, Note_on_c, 0, 64, 0
3, 53056, Note_on_c, 0, 69, 64
3, 53120, Note_on_c, 0, 69, 0
3, 53120, Note_on_c, 0, 62, 64
3, 53184, Note_on_c, 0, 62, 0
3, 53184, Note_on_c, 0, 67, 64
3, 53472, Note_on_c, 0, 67, 0
3, 53472, Note_on_c, 0, 67, 64
3, 53520, Note_on_c, 0, 67, 0
3, 53520, Note_on_c, 0, 57, 64
3, 53568, Note_on_c, 0, 57, 0
3, 53568, Note_on_c, 0, 65, 64
3, 53760, Note_on_c, 0, 65, 0
3, 53760, Note_on_c, 0, 65, 64
3, 53904, Note_on_c, 0, 65, 0
3, 53904, Note_on_c, 0, 55, 64
3, 53952, Note_on_c, 0, 55, 0
3, 53952, Note_on_c, 0, 64, 64
3, 54208, Note_on_c, 0, 64, 0
3, 54208, Note_on_c, 0, 62, 64
3, 54272, Note_on_c, 0, 62, 0
3, 54272, Note_on_c, 0, 61, 64
3, 54336, Note_on_c, 0, 61, 0
3, 54336, Note_on_c, 0, 62, 64
3, 54400, Note_on_c, 0, 62, 0
3, 54400, Note_on_c, 0, 64, 64
3, 54464, Note_on_c, 0, 64, 0
3, 54464, Note_on_c, 0, 65, 64
3, 54528, Note_on_c, 0, 65, 0
3, 54528, Note_on_c, 0, 64, 64
3, 54592, Note_on_c, 0, 64, 0
3, 54592, Note_on_c, 0, 57, 64
3, 54656, Note_on_c, 0, 57, 0
3, 54784, Note_on_c, 0, 69, 64
3, 54816, Note_on_c, 0, 69, 0
3, 54816, Note_on_c, 0, 67, 64
3, 54848, Note_on_c, 0, 67, 0
3, 54848, Note_on_c, 0, 65, 64
3, 54880, Note_on_c, 0, 65, 0
3, 54880, Note_on_c, 0, 64, 64
3, 54912, Note_on_c, 0, 64, 0
3, 54912, Note_on_c, 0, 62, 64
3, 55104, Note_on_c, 0, 62, 0
3, 55104, Note_on_c, 0, 62, 64
3, 55136, Note_on_c, 0, 62, 0
3, 55136, Note_on_c, 0, 65, 64
3, 55168, Note_on_c, 0, 65, 0
3, 55168, Note_on_c, 0, 67, 64
3, 55200, Note_on_c, 0, 67, 0
3, 55200, Note_on_c, 0, 65, 64
3, 55232, Note_on_c, 0, 65, 0
3, 55232, Note_on_c, 0, 64, 64
3, 55264, Note_on_c, 0, 64, 0
3, 55264, Note_on_c, 0, 62, 64
3, 55296, Note_on_c, 0, 62, 0
3, 55296, Note_on_c, 0, 61, 64
3, 55360, Note_on_c, 0, 61, 0
3, 55360, Note_on_c, 0, 62, 64
3, 55424, Note_on_c, 0, 62, 0
3, 55424, Note_on_c, 0, 64, 64
3, 55488, Note_on_c, 0, 64, 0
3, 55488, Note_on_c, 0, 65, 64
3, 55520, Note_on_c, 0, 65, 0
3, 55520, Note_on_c, 0, 64, 64
3, 55552, Note_on_c, 0, 64, 0
3, 55552, Note_on_c, 0, 62, 64
3, 55584, Note_on_c, 0, 62, 0
3, 55584, Note_on_c, 0, 64, 64
3, 55616, Note_on_c, 0, 64, 0
3, 55616, Note_on_c, 0, 65, 64
3, 55680, Note_on_c, 0, 65, 0
3, 55680, Note_on_c, 0, 67, 64
3, 55744, Note_on_c, 0, 67, 0
3, 55744, Note_on_c, 0, 69, 64
3, 55808, Note_on_c, 0, 69, 0
3, 55808, Note_on_c, 0, 70, 64
3, 55936, Note_on_c, 0, 70, 0
3, 55936, Note_on_c, 0, 69, 64
3, 56000, Note_on_c, 0, 69, 0
3, 56000, Note_on_c, 0, 67, 64
3, 56064, Note_on_c, 0, 67, 0
3, 56064, Note_on_c, 0, 69, 64
3, 56096, Note_on_c, 0, 69, 0
3, 56096, Note_on_c, 0, 67, 64
3, 56128, Note_on_c, 0, 67, 0
3, 56128, Note_on_c, 0, 65, 64
3, 56160, Note_on_c, 0, 65, 0
3, 56160, Note_on_c, 0, 64, 64
3, 56192, Note_on_c, 0, 64, 0
3, 56192, Note_on_c, 0, 65, 64
3, 56320, Note_on_c, 0, 65, 0
3, 56320, Note_on_c, 0, 67, 64
3, 56384, Note_on_c, 0, 67, 0
3, 56384, Note_on_c, 0, 65, 64
3, 56448, Note_on_c, 0, 65, 0
3, 56448, Note_on_c, 0, 64, 64
3, 56512, Note_on_c, 0, 64, 0
3, 56512, Note_on_c, 0, 62, 64
3, 56576, Note_on_c, 0, 62, 0
3, 56576, Note_on_c, 0, 64, 64
3, 56704, Note_on_c, 0, 64, 0
3, 56704, Note_on_c, 0, 62, 64
3, 56736, Note_on_c, 0, 62, 0
3, 56736, Note_on_c, 0, 61, 64
3, 56768, Note_on_c, 0, 61, 0
3, 56768, Note_on_c, 0, 59, 64
3, 56800, Note_on_c, 0, 59, 0
3, 56800, Note_on_c, 0, 57, 64
3, 56832, Note_on_c, 0, 57, 0
3, 56832, Note_on_c, 0, 62, 64
3, 56896, Note_on_c, 0, 62, 0
3, 56896, Note_on_c, 0, 61, 64
3, 56960, Note_on_c, 0, 61, 0
3, 56960, Note_on_c, 0, 62, 64
3, 57088, Note_on_c, 0, 62, 0
3, 57088, Note_on_c, 0, 64, 64
3, 57152, Note_on_c, 0, 64, 0
3, 57152, Note_on_c, 0, 62, 64
3, 57216, Note_on_c, 0, 62, 0
3, 57216, Note_on_c, 0, 61, 64
3, 57280, Note_on_c, 0, 61, 0
3, 57280, Note_on_c, 0, 62, 64
3, 57344, Note_on_c, 0, 62, 0
3, 57344, Note_on_c, 0, 64, 64
3, 57408, Note_on_c, 0, 64, 0
3, 57408, Note_on_c, 0, 57, 64
3, 57472, Note_on_c, 0, 57, 0
3, 57472, Note_on_c, 0, 61, 64
3, 57536, Note_on_c, 0, 61, 0
3, 57536, Note_on_c, 0, 59, 64
3, 57600, Note_on_c, 0, 59, 0
3, 57600, Note_on_c, 0, 61, 64
3, 57632, Note_on_c, 0, 61, 0
3, 57632, Note_on_c, 0, 62, 64
3, 57664, Note_on_c, 0, 62, 0
3, 57664, Note_on_c, 0, 64, 64
3, 57696, Note_on_c, 0, 64, 0
3, 57696, Note_on_c, 0, 65, 64
3, 57728, Note_on_c, 0, 65, 0
3, 57728, Note_on_c, 0, 67, 64
3, 57760, Note_on_c, 0, 67, 0
3, 57760, Note_on_c, 0, 64, 64
3, 57792, Note_on_c, 0, 64, 0
3, 57792, Note_on_c, 0, 65, 64
3, 57824, Note_on_c, 0, 65, 0
3, 57824, Note_on_c, 0, 67, 64
3, 57856, Note_on_c, 0, 67, 0
3, 57856, Note_on_c, 0, 69, 64
3, 57920, Note_on_c, 0, 69, 0
3, 57920, Note_on_c, 0, 61, 64
3, 57984, Note_on_c, 0, 61, 0
3, 57984, Note_on_c, 0, 62, 64
3, 58016, Note_on_c, 0, 62, 0
3, 58016, Note_on_c, 0, 65, 64
3, 58048, Note_on_c, 0, 65, 0
3, 58048, Note_on_c, 0, 64, 64
3, 58080, Note_on_c, 0, 64, 0
3, 58080, Note_on_c, 0, 62, 64
3, 58112, Note_on_c, 0, 62, 0
3, 58112, Note_on_c, 0, 61, 64
3, 58144, Note_on_c, 0, 61, 0
3, 58144, Note_on_c, 0, 59, 64
3, 58176, Note_on_c, 0, 59, 0
3, 58176, Note_on_c, 0, 57, 64
3, 58240, Note_on_c, 0, 57, 0
3, 58240, Note_on_c, 0, 61, 64
3, 58304, Note_on_c, 0, 61, 0
3, 58304, Note_on_c, 0, 64, 64
3, 58368, Note_on_c, 0, 64, 0
3, 58368, Note_on_c, 0, 69, 64
3, 58752, Note_on_c, 0, 69, 0
3, 58752, Note_on_c, 0, 69, 64
3, 58816, Note_on_c, 0, 69, 0
3, 58816, Note_on_c, 0, 67, 64
3, 58880, Note_on_c, 0, 67, 0
3, 58880, Note_on_c, 0, 65, 64
3, 58944, Note_on_c, 0, 65, 0
3, 58944, Note_on_c, 0, 64, 64
3, 59136, Note_on_c, 0, 64, 0
3, 59136, Note_on_c, 0, 64, 64
3, 59280, Note_on_c, 0, 64, 0
3, 59280, Note_on_c, 0, 69, 64
3, 59328, Note_on_c, 0, 69, 0
3, 59328, Note_on_c, 0, 62, 64
3, 59616, Note_on_c, 0, 62, 0
3, 59616, Note_on_c, 0, 62, 64
3, 59664, Note_on_c, 0, 62, 0
3, 59664, Note_on_c, 0, 70, 64
3, 59712, Note_on_c, 0, 70, 0
3, 59712, Note_on_c, 0, 61, 64
3, 59776, Note_on_c, 0, 61, 0
3, 59776, Note_on_c, 0, 64, 64
3, 59840, Note_on_c, 0, 64, 0
3, 59840, Note_on_c, 0, 69, 64
3, 59904, Note_on_c, 0, 69, 0
3, 59904, Note_on_c, 0, 57, 64
3, 60000, Note_on_c, 0, 57, 0
3, 60000, Note_on_c, 0, 50, 64
3, 60192, Note_on_c, 0, 50, 0
3, 60192, Note_on_c, 0, 53, 64
3, 60384, Note_on_c, 0, 53, 0
3, 60384, Note_on_c, 0, 57, 64
3, 60576, Note_on_c, 0, 57, 0
3, 60576, Note_on_c, 0, 58, 64
3, 60672, Note_on_c, 0, 58, 0
3, 60672, Note_on_c, 0, 58, 64
3, 60768, Note_on_c, 0, 58, 0
3, 60768, Note_on_c, 0, 57, 64
3, 60960, Note_on_c, 0, 57, 0
3, 60960, Note_on_c, 0, 55, 64
3, 61152, Note_on_c, 0, 55, 0
3, 61152, Note_on_c, 0, 53, 64
3, 61248, Note_on_c, 0, 53, 0
3, 61248, Note_on_c, 0, 53, 64
3, 61296, Note_on_c, 0, 53, 0
3, 61296, Note_on_c, 0, 52, 64
3, 61344, Note_on_c, 0, 52, 0
3, 61344, Note_on_c, 0, 53, 64
3, 61392, Note_on_c, 0, 53, 0
3, 61392, Note_on_c, 0, 55, 64
3, 61440, Note_on_c, 0, 55, 0
3, 61440, Note_on_c, 0, 57, 64
3, 61824, Note_on_c, 0, 57, 0
3, 61824, Note_on_c, 0, 45, 64
3, 62208, Note_on_c, 0, 45, 0
3, 62208, Note_on_c, 0, 38, 64
3, 62784, Note_on_c, 0, 38, 0
3, 62784, Note_on_c, 0, 38, 64
3, 62976, Note_on_c, 0, 38, 0
3, 62976, End_track
0, 0, End_of_file
