0, 0, Header, 1, 3, 96
1, 0, Start_track
1, 0, Key_signature, -1, "major"
1, 0, Time_signature, 4, 2, 24, 8
1, 0, Tempo, 468519
1, 29040, Tempo, 535450
1, 29232, Tempo, 599704
1, 29472, Tempo, 666337
1, 29568, Tempo, 799605
1, 29952, End_track
2, 0, Start_track
2, 0, Program_c, 0, 0
2, 3072, Note_on_c, 0, 69, 64
2, 3104, Note_on_c, 0, 69, 0
2, 3104, Note_on_c, 0, 71, 64
2, 3136, Note_on_c, 0, 71, 0
2, 3136, Note_on_c, 0, 69, 64
2, 3168, Note_on_c, 0, 69, 0
2, 3168, Note_on_c, 0, 68, 64
2, 3200, Note_on_c, 0, 68, 0
2, 3200, Note_on_c, 0, 69, 64
2, 3232, Note_on_c, 0, 69, 0
2, 3232, Note_on_c, 0, 71, 64
2, 3264, Note_on_c, 0, 71, 0
2, 3264, Note_on_c, 0, 72, 64
2, 3296, Note_on_c, 0, 72, 0
2, 3296, Note_on_c, 0, 74, 64
2, 3328, Note_on_c, 0, 74, 0
2, 3328, Note_on_c, 0, 72, 64
2, 3360, Note_on_c, 0, 72, 0
2, 3360, Note_on_c, 0, 71, 64
2, 3392, Note_on_c, 0, 71, 0
2, 3392, Note_on_c, 0, 72, 64
2, 3424, Note_on_c, 0, 72, 0
2, 3424, Note_on_c, 0, 74, 64
2, 3456, Note_on_c, 0, 74, 0
2, 3456, Note_on_c, 0, 76, 64
2, 3648, Note_on_c, 0, 76, 0
2, 3648, Note_on_c, 0, 76, 64
2, 3696, Note_on_c, 0, 76, 0
2, 3696, Note_on_c, 0, 74, 64
2, 3744, Note_on_c, 0, 74, 0
2, 3744, Note_on_c, 0, 72, 64
2, 3792, Note_on_c, 0, 72, 0
2, 3792, Note_on_c, 0, 71, 64
2, 3840, Note_on_c, 0, 71, 0
2, 3840, Note_on_c, 0, 72, 64
2, 4032, Note_on_c, 0, 72, 0
2, 4032, Note_on_c, 0, 72, 64
2, 4080, Note_on_c, 0, 72, 0
2, 4080, Note_on_c, 0, 71, 64
2, 4128, Note_on_c, 0, 71, 0
2, 4128, Note_on_c, 0, 69, 64
2, 4176, Note_on_c, 0, 69, 0
2, 4176, Note_on_c, 0, 68, 64
2, 4224, Note_on_c, 0, 68, 0
2, 4224, Note_on_c, 0, 69, 64
2, 4320, Note_on_c, 0, 69, 0
2, 4320, Note_on_c, 0, 71, 64
2, 4368, Note_on_c, 0, 71, 0
2, 4368, Note_on_c, 0, 72, 64
2, 4416, Note_on_c, 0, 72, 0
2, 4416, Note_on_c, 0, 74, 64
2, 4464, Note_on_c, 0, 74, 0
2, 4464, Note_on_c, 0, 76, 64
2, 4512, Note_on_c, 0, 76, 0
2, 4512, Note_on_c, 0, 77, 64
2, 4608, Note_on_c, 0, 77, 0
2, 4608, Note_on_c, 0, 77, 64
2, 4704, Note_on_c, 0, 77, 0
2, 4704, Note_on_c, 0, 68, 64
2, 4800, Note_on_c, 0, 68, 0
2, 4848, Note_on_c, 0, 64, 64
2, 4896, Note_on_c, 0, 64, 0
2, 4896, Note_on_c, 0, 66, 64
2, 4944, Note_on_c, 0, 66, 0
2, 4944, Note_on_c, 0, 68, 64
2, 4992, Note_on_c, 0, 68, 0
2, 4992, Note_on_c, 0, 69, 64
2, 5040, Note_on_c, 0, 69, 0
2, 5040, Note_on_c, 0, 68, 64
2, 5088, Note_on_c, 0, 68, 0
2, 5088, Note_on_c, 0, 66, 64
2, 5136, Note_on_c, 0, 66, 0
2, 5136, Note_on_c, 0, 64, 64
2, 5184, Note_on_c, 0, 64, 0
2, 5184, Note_on_c, 0, 71, 64
2, 5232, Note_on_c, 0, 71, 0
2, 5232, Note_on_c, 0, 68, 64
2, 5280, Note_on_c, 0, 68, 0
2, 5280, Note_on_c, 0, 66, 64
2, 5328, Note_on_c, 0, 66, 0
2, 5328, Note_on_c, 0, 64, 64
2, 5376, Note_on_c, 0, 64, 0
2, 5376, Note_on_c, 0, 72, 64
2, 5424, Note_on_c, 0, 72, 0
2, 5424, Note_on_c, 0, 71, 64
2, 5472, Note_on_c, 0, 71, 0
2, 5472, Note_on_c, 0, 69, 64
2, 5568, Note_on_c, 0, 69, 0
2, 5616, Note_on_c, 0, 77, 64
2, 5664, Note_on_c, 0, 77, 0
2, 5664, Note_on_c, 0, 76, 64
2, 5712, Note_on_c, 0, 76, 0
2, 5712, Note_on_c, 0, 75, 64
2, 5760, Note_on_c, 0, 75, 0
2, 5760, Note_on_c, 0, 76, 64
2, 5808, Note_on_c, 0, 76, 0
2, 5808, Note_on_c, 0, 72, 64
2, 5856, Note_on_c, 0, 72, 0
2, 5856, Note_on_c, 0, 71, 64
2, 5904, Note_on_c, 0, 71, 0
2, 5904, Note_on_c, 0, 69, 64
2, 5952, Note_on_c, 0, 69, 0
2, 5952, Note_on_c, 0, 74, 64
2, 6000, Note_on_c, 0, 74, 0
2, 6000, Note_on_c, 0, 71, 64
2, 6048, Note_on_c, 0, 71, 0
2, 6048, Note_on_c, 0, 69, 64
2, 6096, Note_on_c, 0, 69, 0
2, 6096, Note_on_c, 0, 68, 64
2, 6144, Note_on_c, 0, 68, 0
2, 6144, Note_on_c, 0, 69, 64
2, 6240, Note_on_c, 0, 69, 0
2, 6336, Note_on_c, 0, 64, 64
2, 6368, Note_on_c, 0, 64, 0
2, 6368, Note_on_c, 0, 65, 64
2, 6400, Note_on_c, 0, 65, 0
2, 6400, Note_on_c, 0, 64, 64
2, 6432, Note_on_c, 0, 64, 0
2, 6432, Note_on_c, 0, 62, 64
2, 6464, Note_on_c, 0, 62, 0
2, 6464, Note_on_c, 0, 64, 64
2, 6496, Note_on_c, 0, 64, 0
2, 6496, Note_on_c, 0, 65, 64
2, 6528, Note_on_c, 0, 65, 0
2, 6528, Note_on_c, 0, 67, 64
2, 6576, Note_on_c, 0, 67, 0
2, 6576, Note_on_c, 0, 64, 64
2, 6624, Note_on_c, 0, 64, 0
2, 6624, Note_on_c, 0, 65, 64
2, 6672, Note_on_c, 0, 65, 0
2, 6672, Note_on_c, 0, 67, 64
2, 6720, Note_on_c, 0, 67, 0
2, 6720, Note_on_c, 0, 69, 64
2, 6768, Note_on_c, 0, 69, 0
2, 6768, Note_on_c, 0, 71, 64
2, 6816, Note_on_c, 0, 71, 0
2, 6816, Note_on_c, 0, 73, 64
2, 6864, Note_on_c, 0, 73, 0
2, 6864, Note_on_c, 0, 74, 64
2, 6912, Note_on_c, 0, 74, 0
2, 6912, Note_on_c, 0, 76, 64
2, 6960, Note_on_c, 0, 76, 0
2, 6960, Note_on_c, 0, 74, 64
2, 7008, Note_on_c, 0, 74, 0
2, 7008, Note_on_c, 0, 73, 64
2, 7056, Note_on_c, 0, 73, 0
2, 7056, Note_on_c, 0, 71, 64
2, 7104, Note_on_c, 0, 71, 0
2, 7104, Note_on_c, 0, 69, 64
2, 7248, Note_on_c, 0, 69, 0
2, 7248, Note_on_c, 0, 70, 64
2, 7296, Note_on_c, 0, 70, 0
2, 7296, Note_on_c, 0, 72, 64
2, 7344, Note_on_c, 0, 72, 0
2, 7344, Note_on_c, 0, 70, 64
2, 7392, Note_on_c, 0, 70, 0
2, 7392, Note_on_c, 0, 69, 64
2, 7440, Note_on_c, 0, 69, 0
2, 7440, Note_on_c, 0, 67, 64
2, 7488, Note_on_c, 0, 67, 0
2, 7488, Note_on_c, 0, 65, 64
2, 7536, Note_on_c, 0, 65, 0
2, 7536, Note_on_c, 0, 67, 64
2, 7584, Note_on_c, 0, 67, 0
2, 7584, Note_on_c, 0, 69, 64
2, 7632, Note_on_c, 0, 69, 0
2, 7632, Note_on_c, 0, 65, 64
2, 7680, Note_on_c, 0, 65, 0
2, 7680, Note_on_c, 0, 62, 64
2, 7728, Note_on_c, 0, 62, 0
2, 7728, Note_on_c, 0, 64, 64
2, 7776, Note_on_c, 0, 64, 0
2, 7776, Note_on_c, 0, 65, 64
2, 7824, Note_on_c, 0, 65, 0
2, 7824, Note_on_c, 0, 58, 64
2, 7872, Note_on_c, 0, 58, 0
2, 7872, Note_on_c, 0, 70, 64
2, 7920, Note_on_c, 0, 70, 0
2, 7920, Note_on_c, 0, 67, 64
2, 7968, Note_on_c, 0, 67, 0
2, 7968, Note_on_c, 0, 69, 64
2, 8016, Note_on_c, 0, 69, 0
2, 8016, Note_on_c, 0, 70, 64
2, 8064, Note_on_c, 0, 70, 0
2, 8064, Note_on_c, 0, 60, 64
2, 8112, Note_on_c, 0, 60, 0
2, 8112, Note_on_c, 0, 64, 64
2, 8160, Note_on_c, 0, 64, 0
2, 8160, Note_on_c, 0, 69, 64
2, 8208, Note_on_c, 0, 69, 0
2, 8256, Note_on_c, 0, 62, 64
2, 8304, Note_on_c, 0, 62, 0
2, 8304, Note_on_c, 0, 65, 64
2, 8352, Note_on_c, 0, 65, 0
2, 8352, Note_on_c, 0, 70, 64
2, 8400, Note_on_c, 0, 70, 0
2, 8448, Note_on_c, 0, 64, 64
2, 8496, Note_on_c, 0, 64, 0
2, 8496, Note_on_c, 0, 67, 64
2, 8544, Note_on_c, 0, 67, 0
2, 8544, Note_on_c, 0, 69, 64
2, 8592, Note_on_c, 0, 69, 0
2, 8592, Note_on_c, 0, 70, 64
2, 8640, Note_on_c, 0, 70, 0
2, 8640, Note_on_c, 0, 72, 64
2, 8688, Note_on_c, 0, 72, 0
2, 8688, Note_on_c, 0, 69, 64
2, 8736, Note_on_c, 0, 69, 0
2, 8736, Note_on_c, 0, 67, 64
2, 8784, Note_on_c, 0, 67, 0
2, 8784, Note_on_c, 0, 65, 64
2, 8832, Note_on_c, 0, 65, 0
2, 8832, Note_on_c, 0, 67, 64
2, 8928, Note_on_c, 0, 67, 0
2, 8928, Note_on_c, 0, 72, 64
2, 9024, Note_on_c, 0, 72, 0
2, 9024, Note_on_c, 0, 69, 64
2, 9120, Note_on_c, 0, 69, 0
2, 9120, Note_on_c, 0, 71, 64
2, 9216, Note_on_c, 0, 71, 0
2, 9216, Note_on_c, 0, 72, 64
2, 9248, Note_on_c, 0, 72, 0
2, 9248, Note_on_c, 0, 74, 64
2, 9280, Note_on_c, 0, 74, 0
2, 9280, Note_on_c, 0, 72, 64
2, 9312, Note_on_c, 0, 72, 0
2, 9312, Note_on_c, 0, 71, 64
2, 9344, Note_on_c, 0, 71, 0
2, 9344, Note_on_c, 0, 72, 64
2, 9376, Note_on_c, 0, 72, 0
2, 9376, Note_on_c, 0, 74, 64
2, 9408, Note_on_c, 0, 74, 0
2, 9408, Note_on_c, 0, 76, 64
2, 9552, Note_on_c, 0, 76, 0
2, 9552, Note_on_c, 0, 74, 64
2, 9576, Note_on_c, 0, 74, 0
2, 9576, Note_on_c, 0, 72, 64
2, 9600, Note_on_c, 0, 72, 0
2, 9600, Note_on_c, 0, 71, 64
2, 9648, Note_on_c, 0, 71, 0
2, 9648, Note_on_c, 0, 67, 64
2, 9696, Note_on_c, 0, 67, 0
2, 9696, Note_on_c, 0, 69, 64
2, 9744, Note_on_c, 0, 69, 0
2, 9744, Note_on_c, 0, 71, 64
2, 9792, Note_on_c, 0, 71, 0
2, 9792, Note_on_c, 0, 72, 64
2, 9936, Note_on_c, 0, 72, 0
2, 9936, Note_on_c, 0, 71, 64
2, 9960, Note_on_c, 0, 71, 0
2, 9960, Note_on_c, 0, 69, 64
2, 9984, Note_on_c, 0, 69, 0
2, 9984, Note_on_c, 0, 68, 64
2, 10080, Note_on_c, 0, 68, 0
2, 10080, Note_on_c, 0, 64, 64
2, 10176, Note_on_c, 0, 64, 0
2, 10224, Note_on_c, 0, 69, 64
2, 10272, Note_on_c, 0, 69, 0
2, 10272, Note_on_c, 0, 67, 64
2, 10320, Note_on_c, 0, 67, 0
2, 10320, Note_on_c, 0, 65, 64
2, 10368, Note_on_c, 0, 65, 0
2, 10368, Note_on_c, 0, 64, 64
2, 10464, Note_on_c, 0, 64, 0
2, 10464, Note_on_c, 0, 60, 64
2, 10512, Note_on_c, 0, 60, 0
2, 10512, Note_on_c, 0, 64, 64
2, 10560, Note_on_c, 0, 64, 0
2, 10560, Note_on_c, 0, 69, 64
2, 10656, Note_on_c, 0, 69, 0
2, 10656, Note_on_c, 0, 61, 64
2, 10752, Note_on_c, 0, 61, 0
2, 10752, Note_on_c, 0, 62, 64
2, 10848, Note_on_c, 0, 62, 0
2, 10848, Note_on_c, 0, 57, 64
2, 10944, Note_on_c, 0, 57, 0
2, 10992, Note_on_c, 0, 59, 64
2, 11040, Note_on_c, 0, 59, 0
2, 11040, Note_on_c, 0, 61, 64
2, 11088, Note_on_c, 0, 61, 0
2, 11088, Note_on_c, 0, 62, 64
2, 11136, Note_on_c, 0, 62, 0
2, 11136, Note_on_c, 0, 64, 64
2, 11184, Note_on_c, 0, 64, 0
2, 11184, Note_on_c, 0, 62, 64
2, 11232, Note_on_c, 0, 62, 0
2, 11232, Note_on_c, 0, 61, 64
2, 11280, Note_on_c, 0, 61, 0
2, 11280, Note_on_c, 0, 64, 64
2, 11328, Note_on_c, 0, 64, 0
2, 11328, Note_on_c, 0, 65, 64
2, 11376, Note_on_c, 0, 65, 0
2, 11376, Note_on_c, 0, 64, 64
2, 11424, Note_on_c, 0, 64, 0
2, 11424, Note_on_c, 0, 62, 64
2, 11472, Note_on_c, 0, 62, 0
2, 11472, Note_on_c, 0, 65, 64
2, 11520, Note_on_c, 0, 65, 0
2, 11520, Note_on_c, 0, 67, 64
2, 11568, Note_on_c, 0, 67, 0
2, 11568, Note_on_c, 0, 65, 64
2, 11616, Note_on_c, 0, 65, 0
2, 11616, Note_on_c, 0, 64, 64
2, 11664, Note_on_c, 0, 64, 0
2, 11664, Note_on_c, 0, 62, 64
2, 11712, Note_on_c, 0, 62, 0
2, 11712, Note_on_c, 0, 64, 64
2, 11760, Note_on_c, 0, 64, 0
2, 11760, Note_on_c, 0, 72, 64
2, 11808, Note_on_c, 0, 72, 0
2, 11808, Note_on_c, 0, 70, 64
2, 11856, Note_on_c, 0, 70, 0
2, 11856, Note_on_c, 0, 69, 64
2, 11904, Note_on_c, 0, 69, 0
2, 11904, Note_on_c, 0, 70, 64
2, 11952, Note_on_c, 0, 70, 0
2, 11952, Note_on_c, 0, 67, 64
2, 12000, Note_on_c, 0, 67, 0
2, 12000, Note_on_c, 0, 64, 64
2, 12048, Note_on_c, 0, 64, 0
2, 12048, Note_on_c, 0, 67, 64
2, 12096, Note_on_c, 0, 67, 0
2, 12096, Note_on_c, 0, 61, 64
2, 12144, Note_on_c, 0, 61, 0
2, 12144, Note_on_c, 0, 64, 64
2, 12192, Note_on_c, 0, 64, 0
2, 12192, Note_on_c, 0, 62, 64
2, 12240, Note_on_c, 0, 62, 0
2, 12240, Note_on_c, 0, 65, 64
2, 12288, Note_on_c, 0, 65, 0
2, 12288, Note_on_c, 0, 64, 64
2, 12384, Note_on_c, 0, 64, 0
2, 12480, Note_on_c, 0, 71, 64
2, 12512, Note_on_c, 0, 71, 0
2, 12512, Note_on_c, 0, 72, 64
2, 12544, Note_on_c, 0, 72, 0
2, 12544, Note_on_c, 0, 71, 64
2, 12576, Note_on_c, 0, 71, 0
2, 12576, Note_on_c, 0, 69, 64
2, 12608, Note_on_c, 0, 69, 0
2, 12608, Note_on_c, 0, 71, 64
2, 12640, Note_on_c, 0, 71, 0
2, 12640, Note_on_c, 0, 73, 64
2, 12672, Note_on_c, 0, 73, 0
2, 12672, Note_on_c, 0, 74, 64
2, 12704, Note_on_c, 0, 74, 0
2, 12704, Note_on_c, 0, 76, 64
2, 12736, Note_on_c, 0, 76, 0
2, 12736, Note_on_c, 0, 74, 64
2, 12768, Note_on_c, 0, 74, 0
2, 12768, Note_on_c, 0, 73, 64
2, 12800, Note_on_c, 0, 73, 0
2, 12800, Note_on_c, 0, 74, 64
2, 12832, Note_on_c, 0, 74, 0
2, 12832, Note_on_c, 0, 76, 64
2, 12864, Note_on_c, 0, 76, 0
2, 12864, Note_on_c, 0, 77, 64
2, 12896, Note_on_c, 0, 77, 0
2, 12896, Note_on_c, 0, 79, 64
2, 12928, Note_on_c, 0, 79, 0
2, 12928, Note_on_c, 0, 77, 64
2, 12960, Note_on_c, 0, 77, 0
2, 12960, Note_on_c, 0, 76, 64
2, 12992, Note_on_c, 0, 76, 0
2, 12992, Note_on_c, 0, 77, 64
2, 13024, Note_on_c, 0, 77, 0
2, 13024, Note_on_c, 0, 79, 64
2, 13056, Note_on_c, 0, 79, 0
2, 13056, Note_on_c, 0, 81, 64
2, 13248, Note_on_c, 0, 81, 0
2, 13248, Note_on_c, 0, 81, 64
2, 13296, Note_on_c, 0, 81, 0
2, 13296, Note_on_c, 0, 79, 64
2, 13344, Note_on_c, 0, 79, 0
2, 13344, Note_on_c, 0, 77, 64
2, 13392, Note_on_c, 0, 77, 0
2, 13392, Note_on_c, 0, 76, 64
2, 13440, Note_on_c, 0, 76, 0
2, 13440, Note_on_c, 0, 77, 64
2, 13632, Note_on_c, 0, 77, 0
2, 13632, Note_on_c, 0, 77, 64
2, 13680, Note_on_c, 0, 77, 0
2, 13680, Note_on_c, 0, 76, 64
2, 13728, Note_on_c, 0, 76, 0
2, 13728, Note_on_c, 0, 74, 64
2, 13776, Note_on_c, 0, 74, 0
2, 13776, Note_on_c, 0, 73, 64
2, 13824, Note_on_c, 0, 73, 0
2, 13824, Note_on_c, 0, 74, 64
2, 13920, Note_on_c, 0, 74, 0
2, 13920, Note_on_c, 0, 76, 64
2, 13968, Note_on_c, 0, 76, 0
2, 13968, Note_on_c, 0, 77, 64
2, 14016, Note_on_c, 0, 77, 0
2, 14016, Note_on_c, 0, 79, 64
2, 14064, Note_on_c, 0, 79, 0
2, 14064, Note_on_c, 0, 81, 64
2, 14112, Note_on_c, 0, 81, 0
2, 14112, Note_on_c, 0, 82, 64
2, 14208, Note_on_c, 0, 82, 0
2, 14208, Note_on_c, 0, 82, 64
2, 14304, Note_on_c, 0, 82, 0
2, 14304, Note_on_c, 0, 73, 64
2, 14400, Note_on_c, 0, 73, 0
2, 14448, Note_on_c, 0, 69, 64
2, 14496, Note_on_c, 0, 69, 0
2, 14496, Note_on_c, 0, 71, 64
2, 14544, Note_on_c, 0, 71, 0
2, 14544, Note_on_c, 0, 73, 64
2, 14592, Note_on_c, 0, 73, 0
2, 14592, Note_on_c, 0, 74, 64
2, 14640, Note_on_c, 0, 74, 0
2, 14640, Note_on_c, 0, 73, 64
2, 14688, Note_on_c, 0, 73, 0
2, 14688, Note_on_c, 0, 71, 64
2, 14736, Note_on_c, 0, 71, 0
2, 14736, Note_on_c, 0, 69, 64
2, 14784, Note_on_c, 0, 69, 0
2, 14784, Note_on_c, 0, 76, 64
2, 14832, Note_on_c, 0, 76, 0
2, 14832, Note_on_c, 0, 73, 64
2, 14880, Note_on_c, 0, 73, 0
2, 14880, Note_on_c, 0, 71, 64
2, 14928, Note_on_c, 0, 71, 0
2, 14928, Note_on_c, 0, 69, 64
2, 14976, Note_on_c, 0, 69, 0
2, 14976, Note_on_c, 0, 77, 64
2, 15024, Note_on_c, 0, 77, 0
2, 15024, Note_on_c, 0, 76, 64
2, 15072, Note_on_c, 0, 76, 0
2, 15072, Note_on_c, 0, 74, 64
2, 15168, Note_on_c, 0, 74, 0
2, 15216, Note_on_c, 0, 82, 64
2, 15264, Note_on_c, 0, 82, 0
2, 15264, Note_on_c, 0, 81, 64
2, 15312, Note_on_c, 0, 81, 0
2, 15312, Note_on_c, 0, 80, 64
2, 15360, Note_on_c, 0, 80, 0
2, 15360, Note_on_c, 0, 81, 64
2, 15408, Note_on_c, 0, 81, 0
2, 15408, Note_on_c, 0, 77, 64
2, 15456, Note_on_c, 0, 77, 0
2, 15456, Note_on_c, 0, 76, 64
2, 15504, Note_on_c, 0, 76, 0
2, 15504, Note_on_c, 0, 74, 64
2, 15552, Note_on_c, 0, 74, 0
2, 15552, Note_on_c, 0, 77, 64
2, 15600, Note_on_c, 0, 77, 0
2, 15600, Note_on_c, 0, 76, 64
2, 15648, Note_on_c, 0, 76, 0
2, 15648, Note_on_c, 0, 74, 64
2, 15696, Note_on_c, 0, 74, 0
2, 15696, Note_on_c, 0, 73, 64
2, 15744, Note_on_c, 0, 73, 0
2, 15744, Note_on_c, 0, 74, 64
2, 15840, Note_on_c, 0, 74, 0
2, 15936, Note_on_c, 0, 69, 64
2, 15968, Note_on_c, 0, 69, 0
2, 15968, Note_on_c, 0, 70, 64
2, 16000, Note_on_c, 0, 70, 0
2, 16000, Note_on_c, 0, 69, 64
2, 16032, Note_on_c, 0, 69, 0
2, 16032, Note_on_c, 0, 67, 64
2, 16064, Note_on_c, 0, 67, 0
2, 16064, Note_on_c, 0, 69, 64
2, 16096, Note_on_c, 0, 69, 0
2, 16096, Note_on_c, 0, 71, 64
2, 16128, Note_on_c, 0, 71, 0
2, 16128, Note_on_c, 0, 73, 64
2, 16176, Note_on_c, 0, 73, 0
2, 16176, Note_on_c, 0, 69, 64
2, 16224, Note_on_c, 0, 69, 0
2, 16224, Note_on_c, 0, 71, 64
2, 16272, Note_on_c, 0, 71, 0
2, 16272, Note_on_c, 0, 73, 64
2, 16320, Note_on_c, 0, 73, 0
2, 16320, Note_on_c, 0, 74, 64
2, 16368, Note_on_c, 0, 74, 0
2, 16368, Note_on_c, 0, 76, 64
2, 16416, Note_on_c, 0, 76, 0
2, 16416, Note_on_c, 0, 77, 64
2, 16464, Note_on_c, 0, 77, 0
2, 16464, Note_on_c, 0, 79, 64
2, 16512, Note_on_c, 0, 79, 0
2, 16512, Note_on_c, 0, 81, 64
2, 16560, Note_on_c, 0, 81, 0
2, 16560, Note_on_c, 0, 79, 64
2, 16608, Note_on_c, 0, 79, 0
2, 16608, Note_on_c, 0, 77, 64
2, 16656, Note_on_c, 0, 77, 0
2, 16656, Note_on_c, 0, 76, 64
2, 16704, Note_on_c, 0, 76, 0
2, 16704, Note_on_c, 0, 74, 64
2, 16848, Note_on_c, 0, 74, 0
2, 16848, Note_on_c, 0, 76, 64
2, 16896, Note_on_c, 0, 76, 0
2, 16896, Note_on_c, 0, 77, 64
2, 16944, Note_on_c, 0, 77, 0
2, 16944, Note_on_c, 0, 76, 64
2, 16992, Note_on_c, 0, 76, 0
2, 16992, Note_on_c, 0, 74, 64
2, 17040, Note_on_c, 0, 74, 0
2, 17040, Note_on_c, 0, 72, 64
2, 17088, Note_on_c, 0, 72, 0
2, 17088, Note_on_c, 0, 70, 64
2, 17136, Note_on_c, 0, 70, 0
2, 17136, Note_on_c, 0, 72, 64
2, 17184, Note_on_c, 0, 72, 0
2, 17184, Note_on_c, 0, 74, 64
2, 17232, Note_on_c, 0, 74, 0
2, 17232, Note_on_c, 0, 70, 64
2, 17280, Note_on_c, 0, 70, 0
2, 17280, Note_on_c, 0, 67, 64
2, 17328, Note_on_c, 0, 67, 0
2, 17328, Note_on_c, 0, 69, 64
2, 17376, Note_on_c, 0, 69, 0
2, 17376, Note_on_c, 0, 70, 64
2, 17424, Note_on_c, 0, 70, 0
2, 17424, Note_on_c, 0, 64, 64
2, 17472, Note_on_c, 0, 64, 0
2, 17472, Note_on_c, 0, 76, 64
2, 17520, Note_on_c, 0, 76, 0
2, 17520, Note_on_c, 0, 73, 64
2, 17568, Note_on_c, 0, 73, 0
2, 17568, Note_on_c, 0, 74, 64
2, 17616, Note_on_c, 0, 74, 0
2, 17616, Note_on_c, 0, 76, 64
2, 17664, Note_on_c, 0, 76, 0
2, 17664, Note_on_c, 0, 65, 64
2, 17712, Note_on_c, 0, 65, 0
2, 17712, Note_on_c, 0, 69, 64
2, 17760, Note_on_c, 0, 69, 0
2, 17760, Note_on_c, 0, 74, 64
2, 17808, Note_on_c, 0, 74, 0
2, 17856, Note_on_c, 0, 67, 64
2, 17904, Note_on_c, 0, 67, 0
2, 17904, Note_on_c, 0, 70, 64
2, 17952, Note_on_c, 0, 70, 0
2, 17952, Note_on_c, 0, 76, 64
2, 18000, Note_on_c, 0, 76, 0
2, 18048, Note_on_c, 0, 69, 64
2, 18096, Note_on_c, 0, 69, 0
2, 18096, Note_on_c, 0, 73, 64
2, 18144, Note_on_c, 0, 73, 0
2, 18144, Note_on_c, 0, 74, 64
2, 18192, Note_on_c, 0, 74, 0
2, 18192, Note_on_c, 0, 76, 64
2, 18240, Note_on_c, 0, 76, 0
2, 18240, Note_on_c, 0, 77, 64
2, 18288, Note_on_c, 0, 77, 0
2, 18288, Note_on_c, 0, 74, 64
2, 18336, Note_on_c, 0, 74, 0
2, 18336, Note_on_c, 0, 73, 64
2, 18384, Note_on_c, 0, 73, 0
2, 18384, Note_on_c, 0, 71, 64
2, 18432, Note_on_c, 0, 71, 0
2, 18432, Note_on_c, 0, 73, 64
2, 18528, Note_on_c, 0, 73, 0
2, 18528, Note_on_c, 0, 77, 64
2, 18624, Note_on_c, 0, 77, 0
2, 18624, Note_on_c, 0, 74, 64
2, 18720, Note_on_c, 0, 74, 0
2, 18720, Note_on_c, 0, 76, 64
2, 18816, Note_on_c, 0, 76, 0
2, 18816, Note_on_c, 0, 77, 64
2, 18848, Note_on_c, 0, 77, 0
2, 18848, Note_on_c, 0, 79, 64
2, 18880, Note_on_c, 0, 79, 0
2, 18880, Note_on_c, 0, 77, 64
2, 18912, Note_on_c, 0, 77, 0
2, 18912, Note_on_c, 0, 76, 64
2, 18944, Note_on_c, 0, 76, 0
2, 18944, Note_on_c, 0, 77, 64
2, 18976, Note_on_c, 0, 77, 0
2, 18976, Note_on_c, 0, 79, 64
2, 19008, Note_on_c, 0, 79, 0
2, 19008, Note_on_c, 0, 81, 64
2, 19152, Note_on_c, 0, 81, 0
2, 19152, Note_on_c, 0, 79, 64
2, 19176, Note_on_c, 0, 79, 0
2, 19176, Note_on_c, 0, 77, 64
2, 19200, Note_on_c, 0, 77, 0
2, 19200, Note_on_c, 0, 76, 64
2, 19248, Note_on_c, 0, 76, 0
2, 19248, Note_on_c, 0, 73, 64
2, 19296, Note_on_c, 0, 73, 0
2, 19296, Note_on_c, 0, 74, 64
2, 19344, Note_on_c, 0, 74, 0
2, 19344, Note_on_c, 0, 76, 64
2, 19392, Note_on_c, 0, 76, 0
2, 19392, Note_on_c, 0, 77, 64
2, 19536, Note_on_c, 0, 77, 0
2, 19536, Note_on_c, 0, 76, 64
2, 19560, Note_on_c, 0, 76, 0
2, 19560, Note_on_c, 0, 74, 64
2, 19584, Note_on_c, 0, 74, 0
2, 19584, Note_on_c, 0, 73, 64
2, 19680, Note_on_c, 0, 73, 0
2, 19680, Note_on_c, 0, 69, 64
2, 19776, Note_on_c, 0, 69, 0
2, 19824, Note_on_c, 0, 74, 64
2, 19872, Note_on_c, 0, 74, 0
2, 19872, Note_on_c, 0, 72, 64
2, 19920, Note_on_c, 0, 72, 0
2, 19920, Note_on_c, 0, 70, 64
2, 19968, Note_on_c, 0, 70, 0
2, 19968, Note_on_c, 0, 69, 64
2, 20064, Note_on_c, 0, 69, 0
2, 20064, Note_on_c, 0, 65, 64
2, 20112, Note_on_c, 0, 65, 0
2, 20112, Note_on_c, 0, 69, 64
2, 20160, Note_on_c, 0, 69, 0
2, 20160, Note_on_c, 0, 74, 64
2, 20256, Note_on_c, 0, 74, 0
2, 20256, Note_on_c, 0, 66, 64
2, 20352, Note_on_c, 0, 66, 0
2, 20352, Note_on_c, 0, 67, 64
2, 20448, Note_on_c, 0, 67, 0
2, 20448, Note_on_c, 0, 62, 64
2, 20544, Note_on_c, 0, 62, 0
2, 20592, Note_on_c, 0, 64, 64
2, 20640, Note_on_c, 0, 64, 0
2, 20640, Note_on_c, 0, 65, 64
2, 20688, Note_on_c, 0, 65, 0
2, 20688, Note_on_c, 0, 67, 64
2, 20736, Note_on_c, 0, 67, 0
2, 20736, Note_on_c, 0, 69, 64
2, 20784, Note_on_c, 0, 69, 0
2, 20784, Note_on_c, 0, 67, 64
2, 20832, Note_on_c, 0, 67, 0
2, 20832, Note_on_c, 0, 65, 64
2, 20880, Note_on_c, 0, 65, 0
2, 20880, Note_on_c, 0, 69, 64
2, 20928, Note_on_c, 0, 69, 0
2, 20928, Note_on_c, 0, 70, 64
2, 20976, Note_on_c, 0, 70, 0
2, 20976, Note_on_c, 0, 69, 64
2, 21024, Note_on_c, 0, 69, 0
2, 21024, Note_on_c, 0, 67, 64
2, 21072, Note_on_c, 0, 67, 0
2, 21072, Note_on_c, 0, 70, 64
2, 21120, Note_on_c, 0, 70, 0
2, 21120, Note_on_c, 0, 72, 64
2, 21168, Note_on_c, 0, 72, 0
2, 21168, Note_on_c, 0, 70, 64
2, 21216, Note_on_c, 0, 70, 0
2, 21216, Note_on_c, 0, 69, 64
2, 21264, Note_on_c, 0, 69, 0
2, 21264, Note_on_c, 0, 67, 64
2, 21312, Note_on_c, 0, 67, 0
2, 21312, Note_on_c, 0, 69, 64
2, 21360, Note_on_c, 0, 69, 0
2, 21360, Note_on_c, 0, 77, 64
2, 21408, Note_on_c, 0, 77, 0
2, 21408, Note_on_c, 0, 76, 64
2, 21456, Note_on_c, 0, 76, 0
2, 21456, Note_on_c, 0, 74, 64
2, 21504, Note_on_c, 0, 74, 0
2, 21504, Note_on_c, 0, 76, 64
2, 21552, Note_on_c, 0, 76, 0
2, 21552, Note_on_c, 0, 72, 64
2, 21600, Note_on_c, 0, 72, 0
2, 21600, Note_on_c, 0, 69, 64
2, 21648, Note_on_c, 0, 69, 0
2, 21648, Note_on_c, 0, 72, 64
2, 21696, Note_on_c, 0, 72, 0
2, 21696, Note_on_c, 0, 65, 64
2, 21744, Note_on_c, 0, 65, 0
2, 21744, Note_on_c, 0, 69, 64
2, 21792, Note_on_c, 0, 69, 0
2, 21792, Note_on_c, 0, 67, 64
2, 21840, Note_on_c, 0, 67, 0
2, 21840, Note_on_c, 0, 70, 64
2, 21888, Note_on_c, 0, 70, 0
2, 21888, Note_on_c, 0, 69, 64
2, 21984, Note_on_c, 0, 69, 0
2, 22080, Note_on_c, 0, 76, 64
2, 22112, Note_on_c, 0, 76, 0
2, 22112, Note_on_c, 0, 77, 64
2, 22144, Note_on_c, 0, 77, 0
2, 22144, Note_on_c, 0, 76, 64
2, 22176, Note_on_c, 0, 76, 0
2, 22176, Note_on_c, 0, 74, 64
2, 22208, Note_on_c, 0, 74, 0
2, 22208, Note_on_c, 0, 76, 64
2, 22240, Note_on_c, 0, 76, 0
2, 22240, Note_on_c, 0, 77, 64
2, 22272, Note_on_c, 0, 77, 0
2, 22272, Note_on_c, 0, 79, 64
2, 22368, Note_on_c, 0, 79, 0
2, 22368, Note_on_c, 0, 79, 64
2, 22392, Note_on_c, 0, 79, 0
2, 22392, Note_on_c, 0, 77, 64
2, 22416, Note_on_c, 0, 77, 0
2, 22416, Note_on_c, 0, 76, 64
2, 22440, Note_on_c, 0, 76, 0
2, 22440, Note_on_c, 0, 74, 64
2, 22464, Note_on_c, 0, 74, 0
2, 22464, Note_on_c, 0, 72, 64
2, 22496, Note_on_c, 0, 72, 0
2, 22496, Note_on_c, 0, 74, 64
2, 22528, Note_on_c, 0, 74, 0
2, 22528, Note_on_c, 0, 72, 64
2, 22560, Note_on_c, 0, 72, 0
2, 22560, Note_on_c, 0, 71, 64
2, 22592, Note_on_c, 0, 71, 0
2, 22592, Note_on_c, 0, 72, 64
2, 22624, Note_on_c, 0, 72, 0
2, 22624, Note_on_c, 0, 74, 64
2, 22656, Note_on_c, 0, 74, 0
2, 22656, Note_on_c, 0, 76, 64
2, 22704, Note_on_c, 0, 76, 0
2, 22704, Note_on_c, 0, 74, 64
2, 22752, Note_on_c, 0, 74, 0
2, 22752, Note_on_c, 0, 73, 64
2, 22800, Note_on_c, 0, 73, 0
2, 22800, Note_on_c, 0, 71, 64
2, 22848, Note_on_c, 0, 71, 0
2, 22848, Note_on_c, 0, 69, 64
2, 22992, Note_on_c, 0, 69, 0
2, 22992, Note_on_c, 0, 70, 64
2, 23040, Note_on_c, 0, 70, 0
2, 23040, Note_on_c, 0, 72, 64
2, 23088, Note_on_c, 0, 72, 0
2, 23088, Note_on_c, 0, 70, 64
2, 23136, Note_on_c, 0, 70, 0
2, 23136, Note_on_c, 0, 69, 64
2, 23184, Note_on_c, 0, 69, 0
2, 23184, Note_on_c, 0, 67, 64
2, 23232, Note_on_c, 0, 67, 0
2, 23232, Note_on_c, 0, 65, 64
2, 23280, Note_on_c, 0, 65, 0
2, 23280, Note_on_c, 0, 67, 64
2, 23328, Note_on_c, 0, 67, 0
2, 23328, Note_on_c, 0, 69, 64
2, 23376, Note_on_c, 0, 69, 0
2, 23376, Note_on_c, 0, 65, 64
2, 23424, Note_on_c, 0, 65, 0
2, 23424, Note_on_c, 0, 70, 64
2, 23472, Note_on_c, 0, 70, 0
2, 23472, Note_on_c, 0, 67, 64
2, 23520, Note_on_c, 0, 67, 0
2, 23520, Note_on_c, 0, 65, 64
2, 23568, Note_on_c, 0, 65, 0
2, 23568, Note_on_c, 0, 64, 64
2, 23616, Note_on_c, 0, 64, 0
2, 23616, Note_on_c, 0, 62, 64
2, 23712, Note_on_c, 0, 62, 0
2, 23904, Note_on_c, 0, 69, 64
2, 24000, Note_on_c, 0, 69, 0
2, 24000, Note_on_c, 0, 62, 64
2, 24048, Note_on_c, 0, 62, 0
2, 24048, Note_on_c, 0, 65, 64
2, 24096, Note_on_c, 0, 65, 0
2, 24096, Note_on_c, 0, 70, 64
2, 24192, Note_on_c, 0, 70, 0
2, 24192, Note_on_c, 0, 64, 64
2, 24240, Note_on_c, 0, 64, 0
2, 24240, Note_on_c, 0, 67, 64
2, 24288, Note_on_c, 0, 67, 0
2, 24288, Note_on_c, 0, 72, 64
2, 24384, Note_on_c, 0, 72, 0
2, 24432, Note_on_c, 0, 69, 64
2, 24480, Note_on_c, 0, 69, 0
2, 24480, Note_on_c, 0, 67, 64
2, 24528, Note_on_c, 0, 67, 0
2, 24528, Note_on_c, 0, 66, 64
2, 24576, Note_on_c, 0, 66, 0
2, 24576, Note_on_c, 0, 67, 64
2, 24672, Note_on_c, 0, 67, 0
2, 24672, Note_on_c, 0, 69, 64
2, 24864, Note_on_c, 0, 69, 0
2, 24864, Note_on_c, 0, 70, 64
2, 24960, Note_on_c, 0, 70, 0
2, 24960, Note_on_c, 0, 61, 64
2, 25008, Note_on_c, 0, 61, 0
2, 25008, Note_on_c, 0, 62, 64
2, 25056, Note_on_c, 0, 62, 0
2, 25056, Note_on_c, 0, 64, 64
2, 25104, Note_on_c, 0, 64, 0
2, 25104, Note_on_c, 0, 65, 64
2, 25152, Note_on_c, 0, 65, 0
2, 25152, Note_on_c, 0, 67, 64
2, 25184, Note_on_c, 0, 67, 0
2, 25184, Note_on_c, 0, 69, 64
2, 25216, Note_on_c, 0, 69, 0
2, 25216, Note_on_c, 0, 67, 64
2, 25248, Note_on_c, 0, 67, 0
2, 25248, Note_on_c, 0, 65, 64
2, 25280, Note_on_c, 0, 65, 0
2, 25280, Note_on_c, 0, 67, 64
2, 25312, Note_on_c, 0, 67, 0
2, 25312, Note_on_c, 0, 69, 64
2, 25344, Note_on_c, 0, 69, 0
2, 25344, Note_on_c, 0, 70, 64
2, 25440, Note_on_c, 0, 70, 0
2, 25440, Note_on_c, 0, 67, 64
2, 25536, Note_on_c, 0, 67, 0
2, 25536, Note_on_c, 0, 74, 64
2, 25568, Note_on_c, 0, 74, 0
2, 25568, Note_on_c, 0, 76, 64
2, 25600, Note_on_c, 0, 76, 0
2, 25600, Note_on_c, 0, 74, 64
2, 25632, Note_on_c, 0, 74, 0
2, 25632, Note_on_c, 0, 73, 64
2, 25664, Note_on_c, 0, 73, 0
2, 25664, Note_on_c, 0, 74, 64
2, 25696, Note_on_c, 0, 74, 0
2, 25696, Note_on_c, 0, 76, 64
2, 25728, Note_on_c, 0, 76, 0
2, 25728, Note_on_c, 0, 77, 64
2, 25824, Note_on_c, 0, 77, 0
2, 25824, Note_on_c, 0, 74, 64
2, 25920, Note_on_c, 0, 74, 0
2, 25920, Note_on_c, 0, 69, 64
2, 25952, Note_on_c, 0, 69, 0
2, 25952, Note_on_c, 0, 71, 64
2, 25984, Note_on_c, 0, 71, 0
2, 25984, Note_on_c, 0, 69, 64
2, 26016, Note_on_c, 0, 69, 0
2, 26016, Note_on_c, 0, 68, 64
2, 26048, Note_on_c, 0, 68, 0
2, 26048, Note_on_c, 0, 69, 64
2, 26080, Note_on_c, 0, 69, 0
2, 26080, Note_on_c, 0, 71, 64
2, 26112, Note_on_c, 0, 71, 0
2, 26112, Note_on_c, 0, 73, 64
2, 26144, Note_on_c, 0, 73, 0
2, 26144, Note_on_c, 0, 74, 64
2, 26176, Note_on_c, 0, 74, 0
2, 26176, Note_on_c, 0, 73, 64
2, 26208, Note_on_c, 0, 73, 0
2, 26208, Note_on_c, 0, 71, 64
2, 26240, Note_on_c, 0, 71, 0
2, 26240, Note_on_c, 0, 73, 64
2, 26272, Note_on_c, 0, 73, 0
2, 26272, Note_on_c, 0, 74, 64
2, 26304, Note_on_c, 0, 74, 0
2, 26304, Note_on_c, 0, 76, 64
2, 26352, Note_on_c, 0, 76, 0
2, 26352, Note_on_c, 0, 69, 64
2, 26400, Note_on_c, 0, 69, 0
2, 26400, Note_on_c, 0, 81, 64
2, 26496, Note_on_c, 0, 81, 0
2, 26496, Note_on_c, 0, 81, 64
2, 26544, Note_on_c, 0, 81, 0
2, 26544, Note_on_c, 0, 79, 64
2, 26592, Note_on_c, 0, 79, 0
2, 26592, Note_on_c, 0, 77, 64
2, 26640, Note_on_c, 0, 77, 0
2, 26640, Note_on_c, 0, 76, 64
2, 26688, Note_on_c, 0, 76, 0
2, 26688, Note_on_c, 0, 77, 64
2, 26880, Note_on_c, 0, 77, 0
2, 26880, Note_on_c, 0, 77, 64
2, 26928, Note_on_c, 0, 77, 0
2, 26928, Note_on_c, 0, 76, 64
2, 26976, Note_on_c, 0, 76, 0
2, 26976, Note_on_c, 0, 74, 64
2, 27024, Note_on_c, 0, 74, 0
2, 27024, Note_on_c, 0, 72, 64
2, 27072, Note_on_c, 0, 72, 0
2, 27072, Note_on_c, 0, 70, 64
2, 27120, Note_on_c, 0, 70, 0
2, 27120, Note_on_c, 0, 72, 64
2, 27168, Note_on_c, 0, 72, 0
2, 27168, Note_on_c, 0, 74, 64
2, 27216, Note_on_c, 0, 74, 0
2, 27216, Note_on_c, 0, 70, 64
2, 27264, Note_on_c, 0, 70, 0
2, 27264, Note_on_c, 0, 67, 64
2, 27312, Note_on_c, 0, 67, 0
2, 27312, Note_on_c, 0, 69, 64
2, 27360, Note_on_c, 0, 69, 0
2, 27360, Note_on_c, 0, 70, 64
2, 27408, Note_on_c, 0, 70, 0
2, 27408, Note_on_c, 0, 64, 64
2, 27456, Note_on_c, 0, 64, 0
2, 27456, Note_on_c, 0, 76, 64
2, 27504, Note_on_c, 0, 76, 0
2, 27504, Note_on_c, 0, 73, 64
2, 27552, Note_on_c, 0, 73, 0
2, 27552, Note_on_c, 0, 74, 64
2, 27600, Note_on_c, 0, 74, 0
2, 27600, Note_on_c, 0, 76, 64
2, 27648, Note_on_c, 0, 76, 0
2, 27648, Note_on_c, 0, 65, 64
2, 27696, Note_on_c, 0, 65, 0
2, 27696, Note_on_c, 0, 69, 64
2, 27744, Note_on_c, 0, 69, 0
2, 27744, Note_on_c, 0, 74, 64
2, 27792, Note_on_c, 0, 74, 0
2, 27840, Note_on_c, 0, 67, 64
2, 27888, Note_on_c, 0, 67, 0
2, 27888, Note_on_c, 0, 70, 64
2, 27936, Note_on_c, 0, 70, 0
2, 27936, Note_on_c, 0, 76, 64
2, 27984, Note_on_c, 0, 76, 0
2, 28032, Note_on_c, 0, 69, 64
2, 28080, Note_on_c, 0, 69, 0
2, 28080, Note_on_c, 0, 73, 64
2, 28128, Note_on_c, 0, 73, 0
2, 28128, Note_on_c, 0, 74, 64
2, 28176, Note_on_c, 0, 74, 0
2, 28176, Note_on_c, 0, 76, 64
2, 28224, Note_on_c, 0, 76, 0
2, 28224, Note_on_c, 0, 77, 64
2, 28272, Note_on_c, 0, 77, 0
2, 28272, Note_on_c, 0, 74, 64
2, 28320, Note_on_c, 0, 74, 0
2, 28320, Note_on_c, 0, 73, 64
2, 28368, Note_on_c, 0, 73, 0
2, 28368, Note_on_c, 0, 71, 64
2, 28416, Note_on_c, 0, 71, 0
2, 28416, Note_on_c, 0, 73, 64
2, 28512, Note_on_c, 0, 73, 0
2, 28512, Note_on_c, 0, 77, 64
2, 28608, Note_on_c, 0, 77, 0
2, 28608, Note_on_c, 0, 74, 64
2, 28704, Note_on_c, 0, 74, 0
2, 28704, Note_on_c, 0, 76, 64
2, 28800, Note_on_c, 0, 76, 0
2, 28800, Note_on_c, 0, 77, 64
2, 28848, Note_on_c, 0, 77, 0
2, 28848, Note_on_c, 0, 76, 64
2, 28896, Note_on_c, 0, 76, 0
2, 28896, Note_on_c, 0, 74, 64
2, 28992, Note_on_c, 0, 74, 0
2, 29040, Note_on_c, 0, 82, 64
2, 29088, Note_on_c, 0, 82, 0
2, 29088, Note_on_c, 0, 81, 64
2, 29136, Note_on_c, 0, 81, 0
2, 29136, Note_on_c, 0, 80, 64
2, 29184, Note_on_c, 0, 80, 0
2, 29184, Note_on_c, 0, 81, 64
2, 29232, Note_on_c, 0, 81, 0
2, 29232, Note_on_c, 0, 77, 64
2, 29280, Note_on_c, 0, 77, 0
2, 29280, Note_on_c, 0, 76, 64
2, 29328, Note_on_c, 0, 76, 0
2, 29328, Note_on_c, 0, 74, 64
2, 29376, Note_on_c, 0, 74, 0
2, 29376, Note_on_c, 0, 77, 64
2, 29424, Note_on_c, 0, 77, 0
2, 29424, Note_on_c, 0, 76, 64
2, 29472, Note_on_c, 0, 76, 0
2, 29472, Note_on_c, 0, 74, 64
2, 29520, Note_on_c, 0, 74, 0
2, 29520, Note_on_c, 0, 73, 64
2, 29568, Note_on_c, 0, 73, 0
2, 29568, Note_on_c, 0, 74, 64
2, 29952, Note_on_c, 0, 74, 0
2, 29952, End_track
3, 0, Start_track
3, 0, Program_c, 0, 0
3, 0, Note_on_c, 0, 50, 64
3, 32, Note_on_c, 0, 50, 0
3, 32, Note_on_c, 0, 52, 64
3, 64, Note_on_c, 0, 52, 0
3, 64, Note_on_c, 0, 50, 64
3, 96, Note_on_c, 0, 50, 0
3, 96, Note_on_c, 0, 49, 64
3, 128, Note_on_c, 0, 49, 0
3, 128, Note_on_c, 0, 50, 64
3, 160, Note_on_c, 0, 50, 0
3, 160, Note_on_c, 0, 52, 64
3, 192, Note_on_c, 0, 52, 0
3, 192, Note_on_c, 0, 53, 64
3, 224, Note_on_c, 0, 53, 0
3, 224, Note_on_c, 0, 55, 64
3, 256, Note_on_c, 0, 55, 0
3, 256, Note_on_c, 0, 53, 64
3, 288, Note_on_c, 0, 53, 0
3, 288, Note_on_c, 0, 52, 64
3, 320, Note_on_c, 0, 52, 0
3, 320, Note_on_c, 0, 53, 64
3, 352, Note_on_c, 0, 53, 0
3, 352, Note_on_c, 0, 55, 64
3, 384, Note_on_c, 0, 55, 0
3, 384, Note_on_c, 0, 57, 64
3, 576, Note_on_c, 0, 57, 0
3, 576, Note_on_c, 0, 57, 64
3, 624, Note_on_c, 0, 57, 0
3, 624, Note_on_c, 0, 55, 64
3, 672, Note_on_c, 0, 55, 0
3, 672, Note_on_c, 0, 53, 64
3, 720, Note_on_c, 0, 53, 0
3, 720, Note_on_c, 0, 52, 64
3, 768, Note_on_c, 0, 52, 0
3, 768, Note_on_c, 0, 53, 64
3, 960, Note_on_c, 0, 53, 0
3, 960, Note_on_c, 0, 53, 64
3, 1008, Note_on_c, 0, 53, 0
3, 1008, Note_on_c, 0, 52, 64
3, 1056, Note_on_c, 0, 52, 0
3, 1056, Note_on_c, 0, 50, 64
3, 1104, Note_on_c, 0, 50, 0
3, 1104, Note_on_c, 0, 49, 64
3, 1152, Note_on_c, 0, 49, 0
3, 1152, Note_on_c, 0, 50, 64
3, 1248, Note_on_c, 0, 50, 0
3, 1248, Note_on_c, 0, 52, 64
3, 1296, Note_on_c, 0, 52, 0
3, 1296, Note_on_c, 0, 53, 64
3, 1344, Note_on_c, 0, 53, 0
3, 1344, Note_on_c, 0, 55, 64
3, 1392, Note_on_c, 0, 55, 0
3, 1392, Note_on_c, 0, 57, 64
3, 1440, Note_on_c, 0, 57, 0
3, 1440, Note_on_c, 0, 58, 64
3, 1536, Note_on_c, 0, 58, 0
3, 1536, Note_on_c, 0, 58, 64
3, 1632, Note_on_c, 0, 58, 0
3, 1632, Note_on_c, 0, 49, 64
3, 1728, Note_on_c, 0, 49, 0
3, 1776, Note_on_c, 0, 45, 64
3, 1824, Note_on_c, 0, 45, 0
3, 1824, Note_on_c, 0, 47, 64
3, 1872, Note_on_c, 0, 47, 0
3, 1872, Note_on_c, 0, 49, 64
3, 1920, Note_on_c, 0, 49, 0
3, 1920, Note_on_c, 0, 50, 64
3, 1968, Note_on_c, 0, 50, 0
3, 1968, Note_on_c, 0, 49, 64
3, 2016, Note_on_c, 0, 49, 0
3, 2016, Note_on_c, 0, 47, 64
3, 2064, Note_on_c, 0, 47, 0
3, 2064, Note_on_c, 0, 45, 64
3, 2112, Note_on_c, 0, 45, 0
3, 2112, Note_on_c, 0, 52, 64
3, 2160, Note_on_c, 0, 52, 0
3, 2160, Note_on_c, 0, 49, 64
3, 2208, Note_on_c, 0, 49, 0
3, 2208, Note_on_c, 0, 47, 64
3, 2256, Note_on_c, 0, 47, 0
3, 2256, Note_on_c, 0, 45, 64
3, 2304, Note_on_c, 0, 45, 0
3, 2304, Note_on_c, 0, 53, 64
3, 2352, Note_on_c, 0, 53, 0
3, 2352, Note_on_c, 0, 52, 64
3, 2400, Note_on_c, 0, 52, 0
3, 2400, Note_on_c, 0, 50, 64
3, 2496, Note_on_c, 0, 50, 0
3, 2544, Note_on_c, 0, 58, 64
3, 2592, Note_on_c, 0, 58, 0
3, 2592, Note_on_c, 0, 57, 64
3, 2640, Note_on_c, 0, 57, 0
3, 2640, Note_on_c, 0, 56, 64
3, 2688, Note_on_c, 0, 56, 0
3, 2688, Note_on_c, 0, 57, 64
3, 2736, Note_on_c, 0, 57, 0
3, 2736, Note_on_c, 0, 53, 64
3, 2784, Note_on_c, 0, 53, 0
3, 2784, Note_on_c, 0, 52, 64
3, 2832, Note_on_c, 0, 52, 0
3, 2832, Note_on_c, 0, 50, 64
3, 2880, Note_on_c, 0, 50, 0
3, 2880, Note_on_c, 0, 53, 64
3, 2928, Note_on_c, 0, 53, 0
3, 2928, Note_on_c, 0, 52, 64
3, 2976, Note_on_c, 0, 52, 0
3, 2976, Note_on_c, 0, 50, 64
3, 3024, Note_on_c, 0, 50, 0
3, 3024, Note_on_c, 0, 49, 64
3, 3072, Note_on_c, 0, 49, 0
3, 3072, Note_on_c, 0, 50, 64
3, 3168, Note_on_c, 0, 50, 0
3, 3264, Note_on_c, 0, 45, 64
3, 3296, Note_on_c, 0, 45, 0
3, 3296, Note_on_c, 0, 47, 64
3, 3328, Note_on_c, 0, 47, 0
3, 3328, Note_on_c, 0, 45, 64
3, 3360, Note_on_c, 0, 45, 0
3, 3360, Note_on_c, 0, 44, 64
3, 3392, Note_on_c, 0, 44, 0
3, 3392, Note_on_c, 0, 45, 64
3, 3424, Note_on_c, 0, 45, 0
3, 3424, Note_on_c, 0, 47, 64
3, 3456, Note_on_c, 0, 47, 0
3, 3456, Note_on_c, 0, 48, 64
3, 3504, Note_on_c, 0, 48, 0
3, 3504, Note_on_c, 0, 45, 64
3, 3552, Note_on_c, 0, 45, 0
3, 3552, Note_on_c, 0, 47, 64
3, 3600, Note_on_c, 0, 47, 0
3, 3600, Note_on_c, 0, 48, 64
3, 3648, Note_on_c, 0, 48, 0
3, 3648, Note_on_c, 0, 50, 64
3, 3696, Note_on_c, 0, 50, 0
3, 3696, Note_on_c, 0, 52, 64
3, 3744, Note_on_c, 0, 52, 0
3, 3744, Note_on_c, 0, 54, 64
3, 3792, Note_on_c, 0, 54, 0
3, 3792, Note_on_c, 0, 56, 64
3, 3840, Note_on_c, 0, 56, 0
3, 3840, Note_on_c, 0, 57, 64
3, 3888, Note_on_c, 0, 57, 0
3, 3888, Note_on_c, 0, 55, 64
3, 3936, Note_on_c, 0, 55, 0
3, 3936, Note_on_c, 0, 53, 64
3, 3984, Note_on_c, 0, 53, 0
3, 3984, Note_on_c, 0, 52, 64
3, 4032, Note_on_c, 0, 52, 0
3, 4032, Note_on_c, 0, 50, 64
3, 4176, Note_on_c, 0, 50, 0
3, 4176, Note_on_c, 0, 52, 64
3, 4224, Note_on_c, 0, 52, 0
3, 4224, Note_on_c, 0, 53, 64
3, 4272, Note_on_c, 0, 53, 0
3, 4272, Note_on_c, 0, 52, 64
3, 4320, Note_on_c, 0, 52, 0
3, 4320, Note_on_c, 0, 50, 64
3, 4368, Note_on_c, 0, 50, 0
3, 4368, Note_on_c, 0, 48, 64
3, 4416, Note_on_c, 0, 48, 0
3, 4416, Note_on_c, 0, 47, 64
3, 4464, Note_on_c, 0, 47, 0
3, 4464, Note_on_c, 0, 48, 64
3, 4512, Note_on_c, 0, 48, 0
3, 4512, Note_on_c, 0, 50, 64
3, 4560, Note_on_c, 0, 50, 0
3, 4560, Note_on_c, 0, 47, 64
3, 4608, Note_on_c, 0, 47, 0
3, 4608, Note_on_c, 0, 44, 64
3, 4656, Note_on_c, 0, 44, 0
3, 4656, Note_on_c, 0, 45, 64
3, 4704, Note_on_c, 0, 45, 0
3, 4704, Note_on_c, 0, 47, 64
3, 4752, Note_on_c, 0, 47, 0
3, 4752, Note_on_c, 0, 40, 64
3, 4800, Note_on_c, 0, 40, 0
3, 4800, Note_on_c, 0, 52, 64
3, 4848, Note_on_c, 0, 52, 0
3, 4848, Note_on_c, 0, 48, 64
3, 4896, Note_on_c, 0, 48, 0
3, 4896, Note_on_c, 0, 50, 64
3, 4944, Note_on_c, 0, 50, 0
3, 4944, Note_on_c, 0, 52, 64
3, 4992, Note_on_c, 0, 52, 0
3, 4992, Note_on_c, 0, 42, 64
3, 5040, Note_on_c, 0, 42, 0
3, 5040, Note_on_c, 0, 45, 64
3, 5088, Note_on_c, 0, 45, 0
3, 5088, Note_on_c, 0, 50, 64
3, 5136, Note_on_c, 0, 50, 0
3, 5184, Note_on_c, 0, 44, 64
3, 5232, Note_on_c, 0, 44, 0
3, 5232, Note_on_c, 0, 47, 64
3, 5280, Note_on_c, 0, 47, 0
3, 5280, Note_on_c, 0, 52, 64
3, 5328, Note_on_c, 0, 52, 0
3, 5376, Note_on_c, 0, 45, 64
3, 5424, Note_on_c, 0, 45, 0
3, 5424, Note_on_c, 0, 48, 64
3, 5472, Note_on_c, 0, 48, 0
3, 5472, Note_on_c, 0, 50, 64
3, 5520, Note_on_c, 0, 50, 0
3, 5520, Note_on_c, 0, 52, 64
3, 5568, Note_on_c, 0, 52, 0
3, 5568, Note_on_c, 0, 53, 64
3, 5616, Note_on_c, 0, 53, 0
3, 5616, Note_on_c, 0, 50, 64
3, 5664, Note_on_c, 0, 50, 0
3, 5664, Note_on_c, 0, 48, 64
3, 5712, Note_on_c, 0, 48, 0
3, 5712, Note_on_c, 0, 47, 64
3, 5760, Note_on_c, 0, 47, 0
3, 5760, Note_on_c, 0, 48, 64
3, 5856, Note_on_c, 0, 48, 0
3, 5856, Note_on_c, 0, 53, 64
3, 5952, Note_on_c, 0, 53, 0
3, 5952, Note_on_c, 0, 50, 64
3, 6048, Note_on_c, 0, 50, 0
3, 6048, Note_on_c, 0, 52, 64
3, 6144, Note_on_c, 0, 52, 0
3, 6144, Note_on_c, 0, 53, 64
3, 6176, Note_on_c, 0, 53, 0
3, 6176, Note_on_c, 0, 55, 64
3, 6208, Note_on_c, 0, 55, 0
3, 6208, Note_on_c, 0, 53, 64
3, 6240, Note_on_c, 0, 53, 0
3, 6240, Note_on_c, 0, 52, 64
3, 6272, Note_on_c, 0, 52, 0
3, 6272, Note_on_c, 0, 53, 64
3, 6304, Note_on_c, 0, 53, 0
3, 6304, Note_on_c, 0, 55, 64
3, 6336, Note_on_c, 0, 55, 0
3, 6336, Note_on_c, 0, 57, 64
3, 6480, Note_on_c, 0, 57, 0
3, 6480, Note_on_c, 0, 55, 64
3, 6504, Note_on_c, 0, 55, 0
3, 6504, Note_on_c, 0, 53, 64
3, 6528, Note_on_c, 0, 53, 0
3, 6528, Note_on_c, 0, 52, 64
3, 6576, Note_on_c, 0, 52, 0
3, 6576, Note_on_c, 0, 48, 64
3, 6624, Note_on_c, 0, 48, 0
3, 6624, Note_on_c, 0, 50, 64
3, 6672, Note_on_c, 0, 50, 0
3, 6672, Note_on_c, 0, 52, 64
3, 6720, Note_on_c, 0, 52, 0
3, 6720, Note_on_c, 0, 53, 64
3, 6864, Note_on_c, 0, 53, 0
3, 6864, Note_on_c, 0, 52, 64
3, 6888, Note_on_c, 0, 52, 0
3, 6888, Note_on_c, 0, 50, 64
3, 6912, Note_on_c, 0, 50, 0
3, 6912, Note_on_c, 0, 49, 64
3, 7008, Note_on_c, 0, 49, 0
3, 7008, Note_on_c, 0, 45, 64
3, 7104, Note_on_c, 0, 45, 0
3, 7152, Note_on_c, 0, 50, 64
3, 7200, Note_on_c, 0, 50, 0
3, 7200, Note_on_c, 0, 48, 64
3, 7248, Note_on_c, 0, 48, 0
3, 7248, Note_on_c, 0, 46, 64
3, 7296, Note_on_c, 0, 46, 0
3, 7296, Note_on_c, 0, 45, 64
3, 7392, Note_on_c, 0, 45, 0
3, 7392, Note_on_c, 0, 41, 64
3, 7440, Note_on_c, 0, 41, 0
3, 7440, Note_on_c, 0, 45, 64
3, 7488, Note_on_c, 0, 45, 0
3, 7488, Note_on_c, 0, 50, 64
3, 7584, Note_on_c, 0, 50, 0
3, 7584, Note_on_c, 0, 41, 64
3, 7680, Note_on_c, 0, 41, 0
3, 7680, Note_on_c, 0, 43, 64
3, 7776, Note_on_c, 0, 43, 0
3, 7776, Note_on_c, 0, 38, 64
3, 7872, Note_on_c, 0, 38, 0
3, 7920, Note_on_c, 0, 40, 64
3, 7968, Note_on_c, 0, 40, 0
3, 7968, Note_on_c, 0, 41, 64
3, 8016, Note_on_c, 0, 41, 0
3, 8016, Note_on_c, 0, 43, 64
3, 8064, Note_on_c, 0, 43, 0
3, 8064, Note_on_c, 0, 45, 64
3, 8112, Note_on_c, 0, 45, 0
3, 8112, Note_on_c, 0, 43, 64
3, 8160, Note_on_c, 0, 43, 0
3, 8160, Note_on_c, 0, 41, 64
3, 8208, Note_on_c, 0, 41, 0
3, 8208, Note_on_c, 0, 45, 64
3, 8256, Note_on_c, 0, 45, 0
3, 8256, Note_on_c, 0, 46, 64
3, 8304, Note_on_c, 0, 46, 0
3, 8304, Note_on_c, 0, 45, 64
3, 8352, Note_on_c, 0, 45, 0
3, 8352, Note_on_c, 0, 43, 64
3, 8400, Note_on_c, 0, 43, 0
3, 8400, Note_on_c, 0, 46, 64
3, 8448, Note_on_c, 0, 46, 0
3, 8448, Note_on_c, 0, 48, 64
3, 8496, Note_on_c, 0, 48, 0
3, 8496, Note_on_c, 0, 46, 64
3, 8544, Note_on_c, 0, 46, 0
3, 8544, Note_on_c, 0, 45, 64
3, 8592, Note_on_c, 0, 45, 0
3, 8592, Note_on_c, 0, 43, 64
3, 8640, Note_on_c, 0, 43, 0
3, 8640, Note_on_c, 0, 45, 64
3, 8688, Note_on_c, 0, 45, 0
3, 8688, Note_on_c, 0, 53, 64
3, 8736, Note_on_c, 0, 53, 0
3, 8736, Note_on_c, 0, 52, 64
3, 8784, Note_on_c, 0, 52, 0
3, 8784, Note_on_c, 0, 50, 64
3, 8832, Note_on_c, 0, 50, 0
3, 8832, Note_on_c, 0, 52, 64
3, 8880, Note_on_c, 0, 52, 0
3, 8880, Note_on_c, 0, 48, 64
3, 8928, Note_on_c, 0, 48, 0
3, 8928, Note_on_c, 0, 45, 64
3, 8976, Note_on_c, 0, 45, 0
3, 8976, Note_on_c, 0, 48, 64
3, 9024, Note_on_c, 0, 48, 0
3, 9024, Note_on_c, 0, 42, 64
3, 9072, Note_on_c, 0, 42, 0
3, 9072, Note_on_c, 0, 45, 64
3, 9120, Note_on_c, 0, 45, 0
3, 9120, Note_on_c, 0, 44, 64
3, 9168, Note_on_c, 0, 44, 0
3, 9168, Note_on_c, 0, 47, 64
3, 9216, Note_on_c, 0, 47, 0
3, 9216, Note_on_c, 0, 45, 64
3, 9312, Note_on_c, 0, 45, 0
3, 9408, Note_on_c, 0, 52, 64
3, 9440, Note_on_c, 0, 52, 0
3, 9440, Note_on_c, 0, 53, 64
3, 9472, Note_on_c, 0, 53, 0
3, 9472, Note_on_c, 0, 52, 64
3, 9504, Note_on_c, 0, 52, 0
3, 9504, Note_on_c, 0, 50, 64
3, 9536, Note_on_c, 0, 50, 0
3, 9536, Note_on_c, 0, 52, 64
3, 9568, Note_on_c, 0, 52, 0
3, 9568, Note_on_c, 0, 53, 64
3, 9600, Note_on_c, 0, 53, 0
3, 9600, Note_on_c, 0, 55, 64
3, 9696, Note_on_c, 0, 55, 0
3, 9696, Note_on_c, 0, 55, 64
3, 9720, Note_on_c, 0, 55, 0
3, 9720, Note_on_c, 0, 53, 64
3, 9744, Note_on_c, 0, 53, 0
3, 9744, Note_on_c, 0, 52, 64
3, 9768, Note_on_c, 0, 52, 0
3, 9768, Note_on_c, 0, 50, 64
3, 9792, Note_on_c, 0, 50, 0
3, 9792, Note_on_c, 0, 48, 64
3, 9824, Note_on_c, 0, 48, 0
3, 9824, Note_on_c, 0, 50, 64
3, 9856, Note_on_c, 0, 50, 0
3, 9856, Note_on_c, 0, 48, 64
3, 9888, Note_on_c, 0, 48, 0
3, 9888, Note_on_c, 0, 47, 64
3, 9920, Note_on_c, 0, 47, 0
3, 9920, Note_on_c, 0, 48, 64
3, 9952, Note_on_c, 0, 48, 0
3, 9952, Note_on_c, 0, 50, 64
3, 9984, Note_on_c, 0, 50, 0
3, 9984, Note_on_c, 0, 52, 64
3, 10032, Note_on_c, 0, 52, 0
3, 10032, Note_on_c, 0, 50, 64
3, 10080, Note_on_c, 0, 50, 0
3, 10080, Note_on_c, 0, 48, 64
3, 10128, Note_on_c, 0, 48, 0
3, 10128, Note_on_c, 0, 47, 64
3, 10176, Note_on_c, 0, 47, 0
3, 10176, Note_on_c, 0, 45, 64
3, 10320, Note_on_c, 0, 45, 0
3, 10320, Note_on_c, 0, 47, 64
3, 10368, Note_on_c, 0, 47, 0
3, 10368, Note_on_c, 0, 48, 64
3, 10416, Note_on_c, 0, 48, 0
3, 10416, Note_on_c, 0, 46, 64
3, 10464, Note_on_c, 0, 46, 0
3, 10464, Note_on_c, 0, 45, 64
3, 10512, Note_on_c, 0, 45, 0
3, 10512, Note_on_c, 0, 43, 64
3, 10560, Note_on_c, 0, 43, 0
3, 10560, Note_on_c, 0, 41, 64
3, 10608, Note_on_c, 0, 41, 0
3, 10608, Note_on_c, 0, 43, 64
3, 10656, Note_on_c, 0, 43, 0
3, 10656, Note_on_c, 0, 45, 64
3, 10704, Note_on_c, 0, 45, 0
3, 10704, Note_on_c, 0, 41, 64
3, 10752, Note_on_c, 0, 41, 0
3, 10752, Note_on_c, 0, 46, 64
3, 10800, Note_on_c, 0, 46, 0
3, 10800, Note_on_c, 0, 43, 64
3, 10848, Note_on_c, 0, 43, 0
3, 10848, Note_on_c, 0, 41, 64
3, 10896, Note_on_c, 0, 41, 0
3, 10896, Note_on_c, 0, 40, 64
3, 10944, Note_on_c, 0, 40, 0
3, 10944, Note_on_c, 0, 38, 64
3, 11040, Note_on_c, 0, 38, 0
3, 11232, Note_on_c, 0, 45, 64
3, 11328, Note_on_c, 0, 45, 0
3, 11328, Note_on_c, 0, 38, 64
3, 11376, Note_on_c, 0, 38, 0
3, 11376, Note_on_c, 0, 41, 64
3, 11424, Note_on_c, 0, 41, 0
3, 11424, Note_on_c, 0, 46, 64
3, 11520, Note_on_c, 0, 46, 0
3, 11520, Note_on_c, 0, 40, 64
3, 11568, Note_on_c, 0, 40, 0
3, 11568, Note_on_c, 0, 43, 64
3, 11616, Note_on_c, 0, 43, 0
3, 11616, Note_on_c, 0, 48, 64
3, 11712, Note_on_c, 0, 48, 0
3, 11760, Note_on_c, 0, 45, 64
3, 11808, Note_on_c, 0, 45, 0
3, 11808, Note_on_c, 0, 43, 64
3, 11856, Note_on_c, 0, 43, 0
3, 11856, Note_on_c, 0, 42, 64
3, 11904, Note_on_c, 0, 42, 0
3, 11904, Note_on_c, 0, 43, 64
3, 12000, Note_on_c, 0, 43, 0
3, 12000, Note_on_c, 0, 45, 64
3, 12192, Note_on_c, 0, 45, 0
3, 12192, Note_on_c, 0, 46, 64
3, 12288, Note_on_c, 0, 46, 0
3, 12288, Note_on_c, 0, 37, 64
3, 12336, Note_on_c, 0, 37, 0
3, 12336, Note_on_c, 0, 38, 64
3, 12384, Note_on_c, 0, 38, 0
3, 12384, Note_on_c, 0, 40, 64
3, 12432, Note_on_c, 0, 40, 0
3, 12432, Note_on_c, 0, 41, 64
3, 12480, Note_on_c, 0, 41, 0
3, 12480, Note_on_c, 0, 43, 64
3, 12512, Note_on_c, 0, 43, 0
3, 12512, Note_on_c, 0, 45, 64
3, 12544, Note_on_c, 0, 45, 0
3, 12544, Note_on_c, 0, 43, 64
3, 12576, Note_on_c, 0, 43, 0
3, 12576, Note_on_c, 0, 41, 64
3, 12608, Note_on_c, 0, 41, 0
3, 12608, Note_on_c, 0, 43, 64
3, 12640, Note_on_c, 0, 43, 0
3, 12640, Note_on_c, 0, 45, 64
3, 12672, Note_on_c, 0, 45, 0
3, 12672, Note_on_c, 0, 46, 64
3, 12768, Note_on_c, 0, 46, 0
3, 12768, Note_on_c, 0, 43, 64
3, 12864, Note_on_c, 0, 43, 0
3, 12864, Note_on_c, 0, 50, 64
3, 12896, Note_on_c, 0, 50, 0
3, 12896, Note_on_c, 0, 52, 64
3, 12928, Note_on_c, 0, 52, 0
3, 12928, Note_on_c, 0, 50, 64
3, 12960, Note_on_c, 0, 50, 0
3, 12960, Note_on_c, 0, 49, 64
3, 12992, Note_on_c, 0, 49, 0
3, 12992, Note_on_c, 0, 50, 64
3, 13024, Note_on_c, 0, 50, 0
3, 13024, Note_on_c, 0, 52, 64
3, 13056, Note_on_c, 0, 52, 0
3, 13056, Note_on_c, 0, 53, 64
3, 13088, Note_on_c, 0, 53, 0
3, 13088, Note_on_c, 0, 55, 64
3, 13120, Note_on_c, 0, 55, 0
3, 13120, Note_on_c, 0, 53, 64
3, 13152, Note_on_c, 0, 53, 0
3, 13152, Note_on_c, 0, 52, 64
3, 13184, Note_on_c, 0, 52, 0
3, 13184, Note_on_c, 0, 53, 64
3, 13216, Note_on_c, 0, 53, 0
3, 13216, Note_on_c, 0, 55, 64
3, 13248, Note_on_c, 0, 55, 0
3, 13248, Note_on_c, 0, 57, 64
3, 13296, Note_on_c, 0, 57, 0
3, 13296, Note_on_c, 0, 50, 64
3, 13344, Note_on_c, 0, 50, 0
3, 13344, Note_on_c, 0, 62, 64
3, 13440, Note_on_c, 0, 62, 0
3, 13440, Note_on_c, 0, 62, 64
3, 13488, Note_on_c, 0, 62, 0
3, 13488, Note_on_c, 0, 60, 64
3, 13536, Note_on_c, 0, 60, 0
3, 13536, Note_on_c, 0, 58, 64
3, 13584, Note_on_c, 0, 58, 0
3, 13584, Note_on_c, 0, 57, 64
3, 13632, Note_on_c, 0, 57, 0
3, 13632, Note_on_c, 0, 58, 64
3, 13824, Note_on_c, 0, 58, 0
3, 13824, Note_on_c, 0, 58, 64
3, 13872, Note_on_c, 0, 58, 0
3, 13872, Note_on_c, 0, 57, 64
3, 13920, Note_on_c, 0, 57, 0
3, 13920, Note_on_c, 0, 55, 64
3, 13968, Note_on_c, 0, 55, 0
3, 13968, Note_on_c, 0, 53, 64
3, 14016, Note_on_c, 0, 53, 0
3, 14016, Note_on_c, 0, 52, 64
3, 14064, Note_on_c, 0, 52, 0
3, 14064, Note_on_c, 0, 53, 64
3, 14112, Note_on_c, 0, 53, 0
3, 14112, Note_on_c, 0, 55, 64
3, 14160, Note_on_c, 0, 55, 0
3, 14160, Note_on_c, 0, 52, 64
3, 14208, Note_on_c, 0, 52, 0
3, 14208, Note_on_c, 0, 49, 64
3, 14256, Note_on_c, 0, 49, 0
3, 14256, Note_on_c, 0, 50, 64
3, 14304, Note_on_c, 0, 50, 0
3, 14304, Note_on_c, 0, 52, 64
3, 14352, Note_on_c, 0, 52, 0
3, 14352, Note_on_c, 0, 45, 64
3, 14400, Note_on_c, 0, 45, 0
3, 14400, Note_on_c, 0, 57, 64
3, 14448, Note_on_c, 0, 57, 0
3, 14448, Note_on_c, 0, 53, 64
3, 14496, Note_on_c, 0, 53, 0
3, 14496, Note_on_c, 0, 55, 64
3, 14544, Note_on_c, 0, 55, 0
3, 14544, Note_on_c, 0, 57, 64
3, 14592, Note_on_c, 0, 57, 0
3, 14592, Note_on_c, 0, 47, 64
3, 14640, Note_on_c, 0, 47, 0
3, 14640, Note_on_c, 0, 50, 64
3, 14688, Note_on_c, 0, 50, 0
3, 14688, Note_on_c, 0, 55, 64
3, 14736, Note_on_c, 0, 55, 0
3, 14784, Note_on_c, 0, 49, 64
3, 14832, Note_on_c, 0, 49, 0
3, 14832, Note_on_c, 0, 52, 64
3, 14880, Note_on_c, 0, 52, 0
3, 14880, Note_on_c, 0, 57, 64
3, 14928, Note_on_c, 0, 57, 0
3, 14976, Note_on_c, 0, 50, 64
3, 15024, Note_on_c, 0, 50, 0
3, 15024, Note_on_c, 0, 53, 64
3, 15072, Note_on_c, 0, 53, 0
3, 15072, Note_on_c, 0, 55, 64
3, 15120, Note_on_c, 0, 55, 0
3, 15120, Note_on_c, 0, 57, 64
3, 15168, Note_on_c, 0, 57, 0
3, 15168, Note_on_c, 0, 58, 64
3, 15216, Note_on_c, 0, 58, 0
3, 15216, Note_on_c, 0, 55, 64
3, 15264, Note_on_c, 0, 55, 0
3, 15264, Note_on_c, 0, 53, 64
3, 15312, Note_on_c, 0, 53, 0
3, 15312, Note_on_c, 0, 52, 64
3, 15360, Note_on_c, 0, 52, 0
3, 15360, Note_on_c, 0, 53, 64
3, 15456, Note_on_c, 0, 53, 0
3, 15456, Note_on_c, 0, 58, 64
3, 15552, Note_on_c, 0, 58, 0
3, 15552, Note_on_c, 0, 55, 64
3, 15648, Note_on_c, 0, 55, 0
3, 15648, Note_on_c, 0, 57, 64
3, 15744, Note_on_c, 0, 57, 0
3, 15744, Note_on_c, 0, 50, 64
3, 15776, Note_on_c, 0, 50, 0
3, 15776, Note_on_c, 0, 52, 64
3, 15808, Note_on_c, 0, 52, 0
3, 15808, Note_on_c, 0, 50, 64
3, 15840, Note_on_c, 0, 50, 0
3, 15840, Note_on_c, 0, 49, 64
3, 15872, Note_on_c, 0, 49, 0
3, 15872, Note_on_c, 0, 50, 64
3, 15904, Note_on_c, 0, 50, 0
3, 15904, Note_on_c, 0, 52, 64
3, 15936, Note_on_c, 0, 52, 0
3, 15936, Note_on_c, 0, 53, 64
3, 15968, Note_on_c, 0, 53, 0
3, 15968, Note_on_c, 0, 55, 64
3, 16000, Note_on_c, 0, 55, 0
3, 16000, Note_on_c, 0, 53, 64
3, 16032, Note_on_c, 0, 53, 0
3, 16032, Note_on_c, 0, 52, 64
3, 16064, Note_on_c, 0, 52, 0
3, 16064, Note_on_c, 0, 53, 64
3, 16096, Note_on_c, 0, 53, 0
3, 16096, Note_on_c, 0, 55, 64
3, 16128, Note_on_c, 0, 55, 0
3, 16128, Note_on_c, 0, 57, 64
3, 16320, Note_on_c, 0, 57, 0
3, 16320, Note_on_c, 0, 57, 64
3, 16368, Note_on_c, 0, 57, 0
3, 16368, Note_on_c, 0, 55, 64
3, 16416, Note_on_c, 0, 55, 0
3, 16416, Note_on_c, 0, 53, 64
3, 16464, Note_on_c, 0, 53, 0
3, 16464, Note_on_c, 0, 52, 64
3, 16512, Note_on_c, 0, 52, 0
3, 16512, Note_on_c, 0, 53, 64
3, 16704, Note_on_c, 0, 53, 0
3, 16704, Note_on_c, 0, 53, 64
3, 16752, Note_on_c, 0, 53, 0
3, 16752, Note_on_c, 0, 52, 64
3, 16800, Note_on_c, 0, 52, 0
3, 16800, Note_on_c, 0, 50, 64
3, 16848, Note_on_c, 0, 50, 0
3, 16848, Note_on_c, 0, 49, 64
3, 16896, Note_on_c, 0, 49, 0
3, 16896, Note_on_c, 0, 50, 64
3, 16992, Note_on_c, 0, 50, 0
3, 16992, Note_on_c, 0, 52, 64
3, 17040, Note_on_c, 0, 52, 0
3, 17040, Note_on_c, 0, 53, 64
3, 17088, Note_on_c, 0, 53, 0
3, 17088, Note_on_c, 0, 55, 64
3, 17136, Note_on_c, 0, 55, 0
3, 17136, Note_on_c, 0, 57, 64
3, 17184, Note_on_c, 0, 57, 0
3, 17184, Note_on_c, 0, 58, 64
3, 17280, Note_on_c, 0, 58, 0
3, 17280, Note_on_c, 0, 58, 64
3, 17376, Note_on_c, 0, 58, 0
3, 17376, Note_on_c, 0, 49, 64
3, 17472, Note_on_c, 0, 49, 0
3, 17520, Note_on_c, 0, 45, 64
3, 17568, Note_on_c, 0, 45, 0
3, 17568, Note_on_c, 0, 47, 64
3, 17616, Note_on_c, 0, 47, 0
3, 17616, Note_on_c, 0, 49, 64
3, 17664, Note_on_c, 0, 49, 0
3, 17664, Note_on_c, 0, 50, 64
3, 17712, Note_on_c, 0, 50, 0
3, 17712, Note_on_c, 0, 49, 64
3, 17760, Note_on_c, 0, 49, 0
3, 17760, Note_on_c, 0, 47, 64
3, 17808, Note_on_c, 0, 47, 0
3, 17808, Note_on_c, 0, 45, 64
3, 17856, Note_on_c, 0, 45, 0
3, 17856, Note_on_c, 0, 52, 64
3, 17904, Note_on_c, 0, 52, 0
3, 17904, Note_on_c, 0, 49, 64
3, 17952, Note_on_c, 0, 49, 0
3, 17952, Note_on_c, 0, 47, 64
3, 18000, Note_on_c, 0, 47, 0
3, 18000, Note_on_c, 0, 45, 64
3, 18048, Note_on_c, 0, 45, 0
3, 18048, Note_on_c, 0, 53, 64
3, 18096, Note_on_c, 0, 53, 0
3, 18096, Note_on_c, 0, 52, 64
3, 18144, Note_on_c, 0, 52, 0
3, 18144, Note_on_c, 0, 50, 64
3, 18240, Note_on_c, 0, 50, 0
3, 18288, Note_on_c, 0, 58, 64
3, 18336, Note_on_c, 0, 58, 0
3, 18336, Note_on_c, 0, 57, 64
3, 18384, Note_on_c, 0, 57, 0
3, 18384, Note_on_c, 0, 56, 64
3, 18432, Note_on_c, 0, 56, 0
3, 18432, Note_on_c, 0, 57, 64
3, 18480, Note_on_c, 0, 57, 0
3, 18480, Note_on_c, 0, 53, 64
3, 18528, Note_on_c, 0, 53, 0
3, 18528, Note_on_c, 0, 52, 64
3, 18576, Note_on_c, 0, 52, 0
3, 18576, Note_on_c, 0, 50, 64
3, 18624, Note_on_c, 0, 50, 0
3, 18624, Note_on_c, 0, 53, 64
3, 18672, Note_on_c, 0, 53, 0
3, 18672, Note_on_c, 0, 52, 64
3, 18720, Note_on_c, 0, 52, 0
3, 18720, Note_on_c, 0, 50, 64
3, 18768, Note_on_c, 0, 50, 0
3, 18768, Note_on_c, 0, 49, 64
3, 18816, Note_on_c, 0, 49, 0
3, 18816, Note_on_c, 0, 50, 64
3, 18912, Note_on_c, 0, 50, 0
3, 19008, Note_on_c, 0, 45, 64
3, 19040, Note_on_c, 0, 45, 0
3, 19040, Note_on_c, 0, 46, 64
3, 19072, Note_on_c, 0, 46, 0
3, 19072, Note_on_c, 0, 45, 64
3, 19104, Note_on_c, 0, 45, 0
3, 19104, Note_on_c, 0, 43, 64
3, 19136, Note_on_c, 0, 43, 0
3, 19136, Note_on_c, 0, 45, 64
3, 19168, Note_on_c, 0, 45, 0
3, 19168, Note_on_c, 0, 47, 64
3, 19200, Note_on_c, 0, 47, 0
3, 19200, Note_on_c, 0, 49, 64
3, 19248, Note_on_c, 0, 49, 0
3, 19248, Note_on_c, 0, 45, 64
3, 19296, Note_on_c, 0, 45, 0
3, 19296, Note_on_c, 0, 47, 64
3, 19344, Note_on_c, 0, 47, 0
3, 19344, Note_on_c, 0, 49, 64
3, 19392, Note_on_c, 0, 49, 0
3, 19392, Note_on_c, 0, 50, 64
3, 19440, Note_on_c, 0, 50, 0
3, 19440, Note_on_c, 0, 52, 64
3, 19488, Note_on_c, 0, 52, 0
3, 19488, Note_on_c, 0, 53, 64
3, 19536, Note_on_c, 0, 53, 0
3, 19536, Note_on_c, 0, 55, 64
3, 19584, Note_on_c, 0, 55, 0
3, 19584, Note_on_c, 0, 57, 64
3, 19632, Note_on_c, 0, 57, 0
3, 19632, Note_on_c, 0, 55, 64
3, 19680, Note_on_c, 0, 55, 0
3, 19680, Note_on_c, 0, 53, 64
3, 19728, Note_on_c, 0, 53, 0
3, 19728, Note_on_c, 0, 52, 64
3, 19776, Note_on_c, 0, 52, 0
3, 19776, Note_on_c, 0, 50, 64
3, 19920, Note_on_c, 0, 50, 0
3, 19920, Note_on_c, 0, 52, 64
3, 19968, Note_on_c, 0, 52, 0
3, 19968, Note_on_c, 0, 53, 64
3, 20016, Note_on_c, 0, 53, 0
3, 20016, Note_on_c, 0, 52, 64
3, 20064, Note_on_c, 0, 52, 0
3, 20064, Note_on_c, 0, 50, 64
3, 20112, Note_on_c, 0, 50, 0
3, 20112, Note_on_c, 0, 48, 64
3, 20160, Note_on_c, 0, 48, 0
3, 20160, Note_on_c, 0, 46, 64
3, 20208, Note_on_c, 0, 46, 0
3, 20208, Note_on_c, 0, 48, 64
3, 20256, Note_on_c, 0, 48, 0
3, 20256, Note_on_c, 0, 50, 64
3, 20304, Note_on_c, 0, 50, 0
3, 20304, Note_on_c, 0, 46, 64
3, 20352, Note_on_c, 0, 46, 0
3, 20352, Note_on_c, 0, 43, 64
3, 20400, Note_on_c, 0, 43, 0
3, 20400, Note_on_c, 0, 45, 64
3, 20448, Note_on_c, 0, 45, 0
3, 20448, Note_on_c, 0, 46, 64
3, 20496, Note_on_c, 0, 46, 0
3, 20496, Note_on_c, 0, 40, 64
3, 20544, Note_on_c, 0, 40, 0
3, 20544, Note_on_c, 0, 52, 64
3, 20592, Note_on_c, 0, 52, 0
3, 20592, Note_on_c, 0, 49, 64
3, 20640, Note_on_c, 0, 49, 0
3, 20640, Note_on_c, 0, 50, 64
3, 20688, Note_on_c, 0, 50, 0
3, 20688, Note_on_c, 0, 52, 64
3, 20736, Note_on_c, 0, 52, 0
3, 20736, Note_on_c, 0, 41, 64
3, 20784, Note_on_c, 0, 41, 0
3, 20784, Note_on_c, 0, 45, 64
3, 20832, Note_on_c, 0, 45, 0
3, 20832, Note_on_c, 0, 50, 64
3, 20880, Note_on_c, 0, 50, 0
3, 20928, Note_on_c, 0, 43, 64
3, 20976, Note_on_c, 0, 43, 0
3, 20976, Note_on_c, 0, 46, 64
3, 21024, Note_on_c, 0, 46, 0
3, 21024, Note_on_c, 0, 52, 64
3, 21072, Note_on_c, 0, 52, 0
3, 21120, Note_on_c, 0, 45, 64
3, 21168, Note_on_c, 0, 45, 0
3, 21168, Note_on_c, 0, 48, 64
3, 21216, Note_on_c, 0, 48, 0
3, 21216, Note_on_c, 0, 50, 64
3, 21264, Note_on_c, 0, 50, 0
3, 21264, Note_on_c, 0, 52, 64
3, 21312, Note_on_c, 0, 52, 0
3, 21312, Note_on_c, 0, 53, 64
3, 21360, Note_on_c, 0, 53, 0
3, 21360, Note_on_c, 0, 50, 64
3, 21408, Note_on_c, 0, 50, 0
3, 21408, Note_on_c, 0, 48, 64
3, 21456, Note_on_c, 0, 48, 0
3, 21456, Note_on_c, 0, 47, 64
3, 21504, Note_on_c, 0, 47, 0
3, 21504, Note_on_c, 0, 48, 64
3, 21600, Note_on_c, 0, 48, 0
3, 21600, Note_on_c, 0, 53, 64
3, 21696, Note_on_c, 0, 53, 0
3, 21696, Note_on_c, 0, 50, 64
3, 21792, Note_on_c, 0, 50, 0
3, 21792, Note_on_c, 0, 52, 64
3, 21888, Note_on_c, 0, 52, 0
3, 21888, Note_on_c, 0, 53, 64
3, 21920, Note_on_c, 0, 53, 0
3, 21920, Note_on_c, 0, 55, 64
3, 21952, Note_on_c, 0, 55, 0
3, 21952, Note_on_c, 0, 53, 64
3, 21984, Note_on_c, 0, 53, 0
3, 21984, Note_on_c, 0, 52, 64
3, 22016, Note_on_c, 0, 52, 0
3, 22016, Note_on_c, 0, 53, 64
3, 22048, Note_on_c, 0, 53, 0
3, 22048, Note_on_c, 0, 55, 64
3, 22080, Note_on_c, 0, 55, 0
3, 22080, Note_on_c, 0, 57, 64
3, 22224, Note_on_c, 0, 57, 0
3, 22224, Note_on_c, 0, 55, 64
3, 22248, Note_on_c, 0, 55, 0
3, 22248, Note_on_c, 0, 53, 64
3, 22272, Note_on_c, 0, 53, 0
3, 22272, Note_on_c, 0, 52, 64
3, 22320, Note_on_c, 0, 52, 0
3, 22320, Note_on_c, 0, 48, 64
3, 22368, Note_on_c, 0, 48, 0
3, 22368, Note_on_c, 0, 50, 64
3, 22416, Note_on_c, 0, 50, 0
3, 22416, Note_on_c, 0, 52, 64
3, 22464, Note_on_c, 0, 52, 0
3, 22464, Note_on_c, 0, 53, 64
3, 22608, Note_on_c, 0, 53, 0
3, 22608, Note_on_c, 0, 52, 64
3, 22632, Note_on_c, 0, 52, 0
3, 22632, Note_on_c, 0, 50, 64
3, 22656, Note_on_c, 0, 50, 0
3, 22656, Note_on_c, 0, 49, 64
3, 22752, Note_on_c, 0, 49, 0
3, 22752, Note_on_c, 0, 45, 64
3, 22848, Note_on_c, 0, 45, 0
3, 22896, Note_on_c, 0, 50, 64
3, 22944, Note_on_c, 0, 50, 0
3, 22944, Note_on_c, 0, 48, 64
3, 22992, Note_on_c, 0, 48, 0
3, 22992, Note_on_c, 0, 46, 64
3, 23040, Note_on_c, 0, 46, 0
3, 23040, Note_on_c, 0, 45, 64
3, 23136, Note_on_c, 0, 45, 0
3, 23136, Note_on_c, 0, 41, 64
3, 23184, Note_on_c, 0, 41, 0
3, 23184, Note_on_c, 0, 45, 64
3, 23232, Note_on_c, 0, 45, 0
3, 23232, Note_on_c, 0, 50, 64
3, 23328, Note_on_c, 0, 50, 0
3, 23328, Note_on_c, 0, 41, 64
3, 23424, Note_on_c, 0, 41, 0
3, 23424, Note_on_c, 0, 43, 64
3, 23520, Note_on_c, 0, 43, 0
3, 23520, Note_on_c, 0, 38, 64
3, 23616, Note_on_c, 0, 38, 0
3, 23664, Note_on_c, 0, 40, 64
3, 23712, Note_on_c, 0, 40, 0
3, 23712, Note_on_c, 0, 41, 64
3, 23760, Note_on_c, 0, 41, 0
3, 23760, Note_on_c, 0, 43, 64
3, 23808, Note_on_c, 0, 43, 0
3, 23808, Note_on_c, 0, 45, 64
3, 23856, Note_on_c, 0, 45, 0
3, 23856, Note_on_c, 0, 43, 64
3, 23904, Note_on_c, 0, 43, 0
3, 23904, Note_on_c, 0, 41, 64
3, 23952, Note_on_c, 0, 41, 0
3, 23952, Note_on_c, 0, 45, 64
3, 24000, Note_on_c, 0, 45, 0
3, 24000, Note_on_c, 0, 46, 64
3, 24048, Note_on_c, 0, 46, 0
3, 24048, Note_on_c, 0, 45, 64
3, 24096, Note_on_c, 0, 45, 0
3, 24096, Note_on_c, 0, 43, 64
3, 24144, Note_on_c, 0, 43, 0
3, 24144, Note_on_c, 0, 46, 64
3, 24192, Note_on_c, 0, 46, 0
3, 24192, Note_on_c, 0, 48, 64
3, 24240, Note_on_c, 0, 48, 0
3, 24240, Note_on_c, 0, 46, 64
3, 24288, Note_on_c, 0, 46, 0
3, 24288, Note_on_c, 0, 45, 64
3, 24336, Note_on_c, 0, 45, 0
3, 24336, Note_on_c, 0, 43, 64
3, 24384, Note_on_c, 0, 43, 0
3, 24384, Note_on_c, 0, 45, 64
3, 24432, Note_on_c, 0, 45, 0
3, 24432, Note_on_c, 0, 53, 64
3, 24480, Note_on_c, 0, 53, 0
3, 24480, Note_on_c, 0, 51, 64
3, 24528, Note_on_c, 0, 51, 0
3, 24528, Note_on_c, 0, 50, 64
3, 24576, Note_on_c, 0, 50, 0
3, 24576, Note_on_c, 0, 51, 64
3, 24624, Note_on_c, 0, 51, 0
3, 24624, Note_on_c, 0, 48, 64
3, 24672, Note_on_c, 0, 48, 0
3, 24672, Note_on_c, 0, 45, 64
3, 24720, Note_on_c, 0, 45, 0
3, 24720, Note_on_c, 0, 48, 64
3, 24768, Note_on_c, 0, 48, 0
3, 24768, Note_on_c, 0, 42, 64
3, 24816, Note_on_c, 0, 42, 0
3, 24816, Note_on_c, 0, 45, 64
3, 24864, Note_on_c, 0, 45, 0
3, 24864, Note_on_c, 0, 43, 64
3, 24912, Note_on_c, 0, 43, 0
3, 24912, Note_on_c, 0, 46, 64
3, 24960, Note_on_c, 0, 46, 0
3, 24960, Note_on_c, 0, 45, 64
3, 25056, Note_on_c, 0, 45, 0
3, 25152, Note_on_c, 0, 52, 64
3, 25184, Note_on_c, 0, 52, 0
3, 25184, Note_on_c, 0, 53, 64
3, 25216, Note_on_c, 0, 53, 0
3, 25216, Note_on_c, 0, 52, 64
3, 25248, Note_on_c, 0, 52, 0
3, 25248, Note_on_c, 0, 50, 64
3, 25280, Note_on_c, 0, 50, 0
3, 25280, Note_on_c, 0, 52, 64
3, 25312, Note_on_c, 0, 52, 0
3, 25312, Note_on_c, 0, 53, 64
3, 25344, Note_on_c, 0, 53, 0
3, 25344, Note_on_c, 0, 55, 64
3, 25376, Note_on_c, 0, 55, 0
3, 25376, Note_on_c, 0, 57, 64
3, 25408, Note_on_c, 0, 57, 0
3, 25408, Note_on_c, 0, 55, 64
3, 25440, Note_on_c, 0, 55, 0
3, 25440, Note_on_c, 0, 53, 64
3, 25472, Note_on_c, 0, 53, 0
3, 25472, Note_on_c, 0, 55, 64
3, 25504, Note_on_c, 0, 55, 0
3, 25504, Note_on_c, 0, 57, 64
3, 25536, Note_on_c, 0, 57, 0
3, 25536, Note_on_c, 0, 58, 64
3, 25632, Note_on_c, 0, 58, 0
3, 25632, Note_on_c, 0, 55, 64
3, 25728, Note_on_c, 0, 55, 0
3, 25728, Note_on_c, 0, 50, 64
3, 25760, Note_on_c, 0, 50, 0
3, 25760, Note_on_c, 0, 52, 64
3, 25792, Note_on_c, 0, 52, 0
3, 25792, Note_on_c, 0, 50, 64
3, 25824, Note_on_c, 0, 50, 0
3, 25824, Note_on_c, 0, 49, 64
3, 25856, Note_on_c, 0, 49, 0
3, 25856, Note_on_c, 0, 50, 64
3, 25888, Note_on_c, 0, 50, 0
3, 25888, Note_on_c, 0, 52, 64
3, 25920, Note_on_c, 0, 52, 0
3, 25920, Note_on_c, 0, 53, 64
3, 25952, Note_on_c, 0, 53, 0
3, 25952, Note_on_c, 0, 55, 64
3, 25984, Note_on_c, 0, 55, 0
3, 25984, Note_on_c, 0, 53, 64
3, 26016, Note_on_c, 0, 53, 0
3, 26016, Note_on_c, 0, 52, 64
3, 26048, Note_on_c, 0, 52, 0
3, 26048, Note_on_c, 0, 53, 64
3, 26080, Note_on_c, 0, 53, 0
3, 26080, Note_on_c, 0, 55, 64
3, 26112, Note_on_c, 0, 55, 0
3, 26112, Note_on_c, 0, 57, 64
3, 26304, Note_on_c, 0, 57, 0
3, 26304, Note_on_c, 0, 57, 64
3, 26352, Note_on_c, 0, 57, 0
3, 26352, Note_on_c, 0, 55, 64
3, 26400, Note_on_c, 0, 55, 0
3, 26400, Note_on_c, 0, 53, 64
3, 26448, Note_on_c, 0, 53, 0
3, 26448, Note_on_c, 0, 52, 64
3, 26496, Note_on_c, 0, 52, 0
3, 26496, Note_on_c, 0, 53, 64
3, 26688, Note_on_c, 0, 53, 0
3, 26688, Note_on_c, 0, 53, 64
3, 26736, Note_on_c, 0, 53, 0
3, 26736, Note_on_c, 0, 52, 64
3, 26784, Note_on_c, 0, 52, 0
3, 26784, Note_on_c, 0, 50, 64
3, 26832, Note_on_c, 0, 50, 0
3, 26832, Note_on_c, 0, 49, 64
3, 26880, Note_on_c, 0, 49, 0
3, 26880, Note_on_c, 0, 50, 64
3, 26976, Note_on_c, 0, 50, 0
3, 26976, Note_on_c, 0, 52, 64
3, 27024, Note_on_c, 0, 52, 0
3, 27024, Note_on_c, 0, 53, 64
3, 27072, Note_on_c, 0, 53, 0
3, 27072, Note_on_c, 0, 55, 64
3, 27120, Note_on_c, 0, 55, 0
3, 27120, Note_on_c, 0, 57, 64
3, 27168, Note_on_c, 0, 57, 0
3, 27168, Note_on_c, 0, 58, 64
3, 27264, Note_on_c, 0, 58, 0
3, 27264, Note_on_c, 0, 58, 64
3, 27360, Note_on_c, 0, 58, 0
3, 27360, Note_on_c, 0, 49, 64
3, 27456, Note_on_c, 0, 49, 0
3, 27504, Note_on_c, 0, 45, 64
3, 27552, Note_on_c, 0, 45, 0
3, 27552, Note_on_c, 0, 47, 64
3, 27600, Note_on_c, 0, 47, 0
3, 27600, Note_on_c, 0, 49, 64
3, 27648, Note_on_c, 0, 49, 0
3, 27648, Note_on_c, 0, 50, 64
3, 27696, Note_on_c, 0, 50, 0
3, 27696, Note_on_c, 0, 49, 64
3, 27744, Note_on_c, 0, 49, 0
3, 27744, Note_on_c, 0, 47, 64
3, 27792, Note_on_c, 0, 47, 0
3, 27792, Note_on_c, 0, 45, 64
3, 27840, Note_on_c, 0, 45, 0
3, 27840, Note_on_c, 0, 52, 64
3, 27888, Note_on_c, 0, 52, 0
3, 27888, Note_on_c, 0, 49, 64
3, 27936, Note_on_c, 0, 49, 0
3, 27936, Note_on_c, 0, 47, 64
3, 27984, Note_on_c, 0, 47, 0
3, 27984, Note_on_c, 0, 45, 64
3, 28032, Note_on_c, 0, 45, 0
3, 28032, Note_on_c, 0, 53, 64
3, 28080, Note_on_c, 0, 53, 0
3, 28080, Note_on_c, 0, 52, 64
3, 28128, Note_on_c, 0, 52, 0
3, 28128, Note_on_c, 0, 50, 64
3, 28224, Note_on_c, 0, 50, 0
3, 28272, Note_on_c, 0, 58, 64
3, 28320, Note_on_c, 0, 58, 0
3, 28320, Note_on_c, 0, 57, 64
3, 28368, Note_on_c, 0, 57, 0
3, 28368, Note_on_c, 0, 56, 64
3, 28416, Note_on_c, 0, 56, 0
3, 28416, Note_on_c, 0, 57, 64
3, 28464, Note_on_c, 0, 57, 0
3, 28464, Note_on_c, 0, 53, 64
3, 28512, Note_on_c, 0, 53, 0
3, 28512, Note_on_c, 0, 52, 64
3, 28560, Note_on_c, 0, 52, 0
3, 28560, Note_on_c, 0, 50, 64
3, 28608, Note_on_c, 0, 50, 0
3, 28608, Note_on_c, 0, 53, 64
3, 28656, Note_on_c, 0, 53, 0
3, 28656, Note_on_c, 0, 52, 64
3, 28704, Note_on_c, 0, 52, 0
3, 28704, Note_on_c, 0, 50, 64
3, 28752, Note_on_c, 0, 50, 0
3, 28752, Note_on_c, 0, 49, 64
3, 28800, Note_on_c, 0, 49, 0
3, 28800, Note_on_c, 0, 50, 64
3, 28848, Note_on_c, 0, 50, 0
3, 28848, Note_on_c, 0, 41, 64
3, 28896, Note_on_c, 0, 41, 0
3, 28896, Note_on_c, 0, 43, 64
3, 28944, Note_on_c, 0, 43, 0
3, 28944, Note_on_c, 0, 45, 64
3, 28992, Note_on_c, 0, 45, 0
3, 28992, Note_on_c, 0, 46, 64
3, 29040, Note_on_c, 0, 46, 0
3, 29040, Note_on_c, 0, 43, 64
3, 29088, Note_on_c, 0, 43, 0
3, 29088, Note_on_c, 0, 41, 64
3, 29136, Note_on_c, 0, 41, 0
3, 29136, Note_on_c, 0, 40, 64
3, 29184, Note_on_c, 0, 40, 0
3, 29184, Note_on_c, 0, 41, 64
3, 29280, Note_on_c, 0, 41, 0
3, 29280, Note_on_c, 0, 46, 64
3, 29376, Note_on_c, 0, 46, 0
3, 29376, Note_on_c, 0, 43, 64
3, 29472, Note_on_c, 0, 43, 0
3, 29472, Note_on_c, 0, 45, 64
3, 29568, Note_on_c, 0, 45, 0
3, 29568, Note_on_c, 0, 38, 64
3, 29952, Note_on_c, 0, 38, 0
3, 29952, End_track
0, 0, End_of_file
