0, 0, Header, 1, 4, 120
1, 0, Start_track
1, 0, Time_signature, 2, 2, 24, 8
1, 0, Key_signature, -3, "major"
1, 0, Tempo, 571428
1, 33963, Tempo, 600000
1, 34200, Tempo, 625000
1, 34320, Tempo, 652173
1, 34683, Tempo, 571428
1, 45476, Tempo, 606060
1, 45720, Tempo, 638297
1, 45840, Tempo, 705882
1, 45906, Tempo, 882352
1, 46083, Tempo, 909090
1, 46090, Tempo, 1090909
1, 46106, Tempo, 1250000
1, 46116, Tempo, 1500000
1, 46116, End_track
2, 0, Start_track
2, 0, MIDI_port, 0
2, 0, Program_c, 0, 100
2, 0, Control_c, 0, 7, 80
2, 0, Control_c, 0, 10, 90
2, 180, Control_c, 0, 7, 115
2, 180, Control_c, 0, 10, 30
2, 180, Program_c, 0, 3
2, 180, Note_on_c, 0, 67, 120
2, 232, Note_on_c, 0, 67, 0
2, 240, Note_on_c, 0, 72, 120
2, 412, Note_on_c, 0, 72, 0
2, 420, Note_on_c, 0, 74, 120
2, 446, Note_on_c, 0, 74, 0
2, 450, Note_on_c, 0, 72, 120
2, 476, Note_on_c, 0, 72, 0
2, 480, Note_on_c, 0, 71, 120
2, 506, Note_on_c, 0, 71, 0
2, 510, Note_on_c, 0, 69, 120
2, 536, Note_on_c, 0, 69, 0
2, 540, Note_on_c, 0, 67, 120
2, 566, Note_on_c, 0, 67, 0
2, 570, Note_on_c, 0, 65, 120
2, 596, Note_on_c, 0, 65, 0
2, 600, Note_on_c, 0, 63, 120
2, 652, Note_on_c, 0, 63, 0
2, 660, Note_on_c, 0, 79, 120
2, 712, Note_on_c, 0, 79, 0
2, 720, Note_on_c, 0, 62, 120
2, 772, Note_on_c, 0, 62, 0
2, 780, Note_on_c, 0, 77, 120
2, 832, Note_on_c, 0, 77, 0
2, 840, Note_on_c, 0, 75, 120
2, 866, Note_on_c, 0, 75, 0
2, 870, Note_on_c, 0, 74, 120
2, 896, Note_on_c, 0, 74, 0
2, 900, Note_on_c, 0, 72, 120
2, 926, Note_on_c, 0, 72, 0
2, 930, Note_on_c, 0, 74, 120
2, 956, Note_on_c, 0, 74, 0
2, 960, Note_on_c, 0, 76, 120
2, 986, Note_on_c, 0, 76, 0
2, 990, Note_on_c, 0, 78, 120
2, 1016, Note_on_c, 0, 78, 0
2, 1020, Note_on_c, 0, 79, 120
2, 1046, Note_on_c, 0, 79, 0
2, 1050, Note_on_c, 0, 81, 120
2, 1076, Note_on_c, 0, 81, 0
2, 1080, Note_on_c, 0, 82, 120
2, 1106, Note_on_c, 0, 82, 0
2, 1110, Note_on_c, 0, 79, 120
2, 1136, Note_on_c, 0, 79, 0
2, 1140, Note_on_c, 0, 78, 120
2, 1166, Note_on_c, 0, 78, 0
2, 1170, Note_on_c, 0, 79, 120
2, 1196, Note_on_c, 0, 79, 0
2, 1200, Note_on_c, 0, 74, 120
2, 1226, Note_on_c, 0, 74, 0
2, 1230, Note_on_c, 0, 79, 120
2, 1256, Note_on_c, 0, 79, 0
2, 1260, Note_on_c, 0, 78, 120
2, 1286, Note_on_c, 0, 78, 0
2, 1290, Note_on_c, 0, 79, 120
2, 1316, Note_on_c, 0, 79, 0
2, 1320, Note_on_c, 0, 84, 120
2, 1346, Note_on_c, 0, 84, 0
2, 1350, Note_on_c, 0, 79, 120
2, 1376, Note_on_c, 0, 79, 0
2, 1380, Note_on_c, 0, 78, 120
2, 1406, Note_on_c, 0, 78, 0
2, 1410, Note_on_c, 0, 79, 120
2, 1436, Note_on_c, 0, 79, 0
2, 1440, Note_on_c, 0, 81, 120
2, 1466, Note_on_c, 0, 81, 0
2, 1470, Note_on_c, 0, 79, 120
2, 1496, Note_on_c, 0, 79, 0
2, 1500, Note_on_c, 0, 78, 120
2, 1526, Note_on_c, 0, 78, 0
2, 1530, Note_on_c, 0, 79, 120
2, 1556, Note_on_c, 0, 79, 0
2, 1560, Note_on_c, 0, 74, 120
2, 1612, Note_on_c, 0, 74, 0
2, 1620, Note_on_c, 0, 79, 120
2, 1725, Note_on_c, 0, 79, 0
2, 1740, Note_on_c, 0, 78, 120
2, 1792, Note_on_c, 0, 78, 0
2, 1800, Note_on_c, 0, 79, 120
2, 1852, Note_on_c, 0, 79, 0
2, 2070, Note_on_c, 0, 72, 120
2, 2096, Note_on_c, 0, 72, 0
2, 2100, Note_on_c, 0, 66, 120
2, 2126, Note_on_c, 0, 66, 0
2, 2130, Note_on_c, 0, 67, 120
2, 2156, Note_on_c, 0, 67, 0
2, 2160, Note_on_c, 0, 69, 120
2, 2186, Note_on_c, 0, 69, 0
2, 2190, Note_on_c, 0, 70, 120
2, 2216, Note_on_c, 0, 70, 0
2, 2220, Note_on_c, 0, 72, 120
2, 2306, Note_on_c, 0, 72, 0
2, 2310, Note_on_c, 0, 70, 120
2, 2336, Note_on_c, 0, 70, 0
2, 2340, Note_on_c, 0, 69, 120
2, 2366, Note_on_c, 0, 69, 0
2, 2370, Note_on_c, 0, 70, 120
2, 2396, Note_on_c, 0, 70, 0
2, 2400, Note_on_c, 0, 72, 120
2, 2426, Note_on_c, 0, 72, 0
2, 2430, Note_on_c, 0, 74, 120
2, 2456, Note_on_c, 0, 74, 0
2, 2460, Note_on_c, 0, 76, 120
2, 2486, Note_on_c, 0, 76, 0
2, 2490, Note_on_c, 0, 78, 120
2, 2516, Note_on_c, 0, 78, 0
2, 2520, Note_on_c, 0, 79, 120
2, 2572, Note_on_c, 0, 79, 0
2, 2580, Note_on_c, 0, 78, 120
2, 2606, Note_on_c, 0, 78, 0
2, 2610, Note_on_c, 0, 79, 120
2, 2812, Note_on_c, 0, 79, 0
2, 2820, Note_on_c, 0, 76, 120
2, 2846, Note_on_c, 0, 76, 0
2, 2850, Note_on_c, 0, 79, 120
2, 3052, Note_on_c, 0, 79, 0
2, 3060, Note_on_c, 0, 76, 120
2, 3086, Note_on_c, 0, 76, 0
2, 3090, Note_on_c, 0, 77, 120
2, 3292, Note_on_c, 0, 77, 0
2, 3300, Note_on_c, 0, 74, 120
2, 3326, Note_on_c, 0, 74, 0
2, 3330, Note_on_c, 0, 77, 120
2, 3506, Note_on_c, 0, 77, 0
2, 3510, Note_on_c, 0, 75, 120
2, 3536, Note_on_c, 0, 75, 0
2, 3540, Note_on_c, 0, 74, 120
2, 3566, Note_on_c, 0, 74, 0
2, 3570, Note_on_c, 0, 77, 120
2, 3596, Note_on_c, 0, 77, 0
2, 3600, Note_on_c, 0, 75, 120
2, 3626, Note_on_c, 0, 75, 0
2, 3630, Note_on_c, 0, 74, 120
2, 3656, Note_on_c, 0, 74, 0
2, 3660, Note_on_c, 0, 72, 120
2, 3686, Note_on_c, 0, 72, 0
2, 3690, Note_on_c, 0, 71, 120
2, 3716, Note_on_c, 0, 71, 0
2, 3720, Note_on_c, 0, 72, 120
2, 3746, Note_on_c, 0, 72, 0
2, 3750, Note_on_c, 0, 71, 120
2, 3776, Note_on_c, 0, 71, 0
2, 3780, Note_on_c, 0, 72, 120
2, 3806, Note_on_c, 0, 72, 0
2, 3810, Note_on_c, 0, 74, 120
2, 3836, Note_on_c, 0, 74, 0
2, 3840, Note_on_c, 0, 75, 120
2, 3866, Note_on_c, 0, 75, 0
2, 3870, Note_on_c, 0, 77, 120
2, 3896, Note_on_c, 0, 77, 0
2, 3900, Note_on_c, 0, 79, 120
2, 3986, Note_on_c, 0, 79, 0
2, 3990, Note_on_c, 0, 77, 120
2, 4016, Note_on_c, 0, 77, 0
2, 4020, Note_on_c, 0, 75, 120
2, 4046, Note_on_c, 0, 75, 0
2, 4050, Note_on_c, 0, 79, 120
2, 4076, Note_on_c, 0, 79, 0
2, 4080, Note_on_c, 0, 77, 120
2, 4106, Note_on_c, 0, 77, 0
2, 4110, Note_on_c, 0, 75, 120
2, 4136, Note_on_c, 0, 75, 0
2, 4140, Note_on_c, 0, 74, 120
2, 4166, Note_on_c, 0, 74, 0
2, 4170, Note_on_c, 0, 72, 120
2, 4196, Note_on_c, 0, 72, 0
2, 4200, Note_on_c, 0, 71, 120
2, 4226, Note_on_c, 0, 71, 0
2, 4230, Note_on_c, 0, 69, 120
2, 4256, Note_on_c, 0, 69, 0
2, 4260, Note_on_c, 0, 71, 120
2, 4286, Note_on_c, 0, 71, 0
2, 4290, Note_on_c, 0, 72, 120
2, 4316, Note_on_c, 0, 72, 0
2, 4320, Note_on_c, 0, 74, 120
2, 4346, Note_on_c, 0, 74, 0
2, 4350, Note_on_c, 0, 75, 120
2, 4376, Note_on_c, 0, 75, 0
2, 4380, Note_on_c, 0, 77, 120
2, 4466, Note_on_c, 0, 77, 0
2, 4470, Note_on_c, 0, 80, 120
2, 4496, Note_on_c, 0, 80, 0
2, 4500, Note_on_c, 0, 79, 120
2, 4526, Note_on_c, 0, 79, 0
2, 4530, Note_on_c, 0, 77, 120
2, 4556, Note_on_c, 0, 77, 0
2, 4560, Note_on_c, 0, 75, 120
2, 4586, Note_on_c, 0, 75, 0
2, 4590, Note_on_c, 0, 74, 120
2, 4616, Note_on_c, 0, 74, 0
2, 4620, Note_on_c, 0, 72, 120
2, 4646, Note_on_c, 0, 72, 0
2, 4650, Note_on_c, 0, 70, 120
2, 4676, Note_on_c, 0, 70, 0
2, 4680, Note_on_c, 0, 68, 120
2, 4706, Note_on_c, 0, 68, 0
2, 4710, Note_on_c, 0, 72, 120
2, 4736, Note_on_c, 0, 72, 0
2, 4740, Note_on_c, 0, 77, 120
2, 4766, Note_on_c, 0, 77, 0
2, 4770, Note_on_c, 0, 75, 120
2, 4796, Note_on_c, 0, 75, 0
2, 4800, Note_on_c, 0, 74, 120
2, 4826, Note_on_c, 0, 74, 0
2, 4830, Note_on_c, 0, 72, 120
2, 4856, Note_on_c, 0, 72, 0
2, 4860, Note_on_c, 0, 71, 120
2, 4886, Note_on_c, 0, 71, 0
2, 4890, Note_on_c, 0, 74, 120
2, 4916, Note_on_c, 0, 74, 0
2, 4920, Note_on_c, 0, 79, 120
2, 4946, Note_on_c, 0, 79, 0
2, 4950, Note_on_c, 0, 77, 120
2, 4976, Note_on_c, 0, 77, 0
2, 4980, Note_on_c, 0, 75, 120
2, 5006, Note_on_c, 0, 75, 0
2, 5010, Note_on_c, 0, 79, 120
2, 5036, Note_on_c, 0, 79, 0
2, 5040, Note_on_c, 0, 77, 120
2, 5066, Note_on_c, 0, 77, 0
2, 5070, Note_on_c, 0, 75, 120
2, 5096, Note_on_c, 0, 75, 0
2, 5100, Note_on_c, 0, 74, 120
2, 5126, Note_on_c, 0, 74, 0
2, 5130, Note_on_c, 0, 77, 120
2, 5156, Note_on_c, 0, 77, 0
2, 5160, Note_on_c, 0, 75, 120
2, 5265, Note_on_c, 0, 75, 0
2, 6630, Note_on_c, 0, 55, 120
2, 6656, Note_on_c, 0, 55, 0
2, 6660, Note_on_c, 0, 54, 120
2, 6686, Note_on_c, 0, 54, 0
2, 6690, Note_on_c, 0, 55, 120
2, 6716, Note_on_c, 0, 55, 0
2, 6720, Note_on_c, 0, 50, 120
2, 6746, Note_on_c, 0, 50, 0
2, 6750, Note_on_c, 0, 55, 120
2, 6776, Note_on_c, 0, 55, 0
2, 6780, Note_on_c, 0, 54, 120
2, 6806, Note_on_c, 0, 54, 0
2, 6810, Note_on_c, 0, 55, 120
2, 6836, Note_on_c, 0, 55, 0
2, 6840, Note_on_c, 0, 48, 120
2, 6866, Note_on_c, 0, 48, 0
2, 6870, Note_on_c, 0, 55, 120
2, 6896, Note_on_c, 0, 55, 0
2, 6900, Note_on_c, 0, 54, 120
2, 6926, Note_on_c, 0, 54, 0
2, 6930, Note_on_c, 0, 55, 120
2, 6956, Note_on_c, 0, 55, 0
2, 6960, Note_on_c, 0, 57, 120
2, 6986, Note_on_c, 0, 57, 0
2, 6990, Note_on_c, 0, 55, 120
2, 7016, Note_on_c, 0, 55, 0
2, 7020, Note_on_c, 0, 54, 120
2, 7046, Note_on_c, 0, 54, 0
2, 7050, Note_on_c, 0, 52, 120
2, 7076, Note_on_c, 0, 52, 0
2, 7080, Note_on_c, 0, 50, 120
2, 7132, Note_on_c, 0, 50, 0
2, 7140, Note_on_c, 0, 55, 120
2, 7245, Note_on_c, 0, 55, 0
2, 7260, Note_on_c, 0, 54, 120
2, 7312, Note_on_c, 0, 54, 0
2, 7350, Note_on_c, 0, 55, 120
2, 7376, Note_on_c, 0, 55, 0
2, 7380, Note_on_c, 0, 54, 120
2, 7406, Note_on_c, 0, 54, 0
2, 7410, Note_on_c, 0, 55, 120
2, 7436, Note_on_c, 0, 55, 0
2, 7440, Note_on_c, 0, 50, 120
2, 7466, Note_on_c, 0, 50, 0
2, 7470, Note_on_c, 0, 55, 120
2, 7496, Note_on_c, 0, 55, 0
2, 7500, Note_on_c, 0, 54, 120
2, 7526, Note_on_c, 0, 54, 0
2, 7530, Note_on_c, 0, 55, 120
2, 7556, Note_on_c, 0, 55, 0
2, 7560, Note_on_c, 0, 58, 120
2, 7586, Note_on_c, 0, 58, 0
2, 7590, Note_on_c, 0, 55, 120
2, 7616, Note_on_c, 0, 55, 0
2, 7620, Note_on_c, 0, 64, 120
2, 7646, Note_on_c, 0, 64, 0
2, 7650, Note_on_c, 0, 58, 120
2, 7676, Note_on_c, 0, 58, 0
2, 7680, Note_on_c, 0, 67, 120
2, 7706, Note_on_c, 0, 67, 0
2, 7710, Note_on_c, 0, 58, 120
2, 7736, Note_on_c, 0, 58, 0
2, 7740, Note_on_c, 0, 56, 120
2, 7766, Note_on_c, 0, 56, 0
2, 7770, Note_on_c, 0, 55, 120
2, 7796, Note_on_c, 0, 55, 0
2, 7800, Note_on_c, 0, 56, 120
2, 7826, Note_on_c, 0, 56, 0
2, 7830, Note_on_c, 0, 53, 120
2, 7856, Note_on_c, 0, 53, 0
2, 7860, Note_on_c, 0, 52, 120
2, 7886, Note_on_c, 0, 52, 0
2, 7890, Note_on_c, 0, 53, 120
2, 7916, Note_on_c, 0, 53, 0
2, 7920, Note_on_c, 0, 48, 120
2, 7946, Note_on_c, 0, 48, 0
2, 7950, Note_on_c, 0, 53, 120
2, 7976, Note_on_c, 0, 53, 0
2, 7980, Note_on_c, 0, 52, 120
2, 8006, Note_on_c, 0, 52, 0
2, 8010, Note_on_c, 0, 53, 120
2, 8036, Note_on_c, 0, 53, 0
2, 8040, Note_on_c, 0, 56, 120
2, 8066, Note_on_c, 0, 56, 0
2, 8070, Note_on_c, 0, 53, 120
2, 8096, Note_on_c, 0, 53, 0
2, 8100, Note_on_c, 0, 62, 120
2, 8126, Note_on_c, 0, 62, 0
2, 8130, Note_on_c, 0, 56, 120
2, 8156, Note_on_c, 0, 56, 0
2, 8160, Note_on_c, 0, 65, 120
2, 8186, Note_on_c, 0, 65, 0
2, 8190, Note_on_c, 0, 56, 120
2, 8216, Note_on_c, 0, 56, 0
2, 8220, Note_on_c, 0, 55, 120
2, 8246, Note_on_c, 0, 55, 0
2, 8250, Note_on_c, 0, 53, 120
2, 8276, Note_on_c, 0, 53, 0
2, 8280, Note_on_c, 0, 55, 120
2, 8332, Note_on_c, 0, 55, 0
2, 8340, Note_on_c, 0, 58, 120
2, 8392, Note_on_c, 0, 58, 0
2, 8400, Note_on_c, 0, 63, 120
2, 8572, Note_on_c, 0, 63, 0
2, 8580, Note_on_c, 0, 65, 120
2, 8606, Note_on_c, 0, 65, 0
2, 8610, Note_on_c, 0, 63, 120
2, 8636, Note_on_c, 0, 63, 0
2, 8640, Note_on_c, 0, 62, 120
2, 8666, Note_on_c, 0, 62, 0
2, 8670, Note_on_c, 0, 60, 120
2, 8696, Note_on_c, 0, 60, 0
2, 8700, Note_on_c, 0, 58, 120
2, 8726, Note_on_c, 0, 58, 0
2, 8730, Note_on_c, 0, 56, 120
2, 8756, Note_on_c, 0, 56, 0
2, 8760, Note_on_c, 0, 55, 120
2, 8865, Note_on_c, 0, 55, 0
2, 8940, Note_on_c, 0, 60, 120
2, 8992, Note_on_c, 0, 60, 0
2, 9000, Note_on_c, 0, 65, 120
2, 9105, Note_on_c, 0, 65, 0
2, 9300, Note_on_c, 0, 51, 120
2, 9352, Note_on_c, 0, 51, 0
2, 9360, Note_on_c, 0, 53, 120
2, 9412, Note_on_c, 0, 53, 0
2, 9420, Note_on_c, 0, 55, 120
2, 9532, Note_on_c, 0, 55, 0
2, 9540, Note_on_c, 0, 55, 120
2, 9592, Note_on_c, 0, 55, 0
2, 9600, Note_on_c, 0, 60, 120
2, 9772, Note_on_c, 0, 60, 0
2, 9780, Note_on_c, 0, 60, 120
2, 9806, Note_on_c, 0, 60, 0
2, 9810, Note_on_c, 0, 62, 120
2, 9836, Note_on_c, 0, 62, 0
2, 9840, Note_on_c, 0, 63, 120
2, 9866, Note_on_c, 0, 63, 0
2, 9870, Note_on_c, 0, 65, 120
2, 9896, Note_on_c, 0, 65, 0
2, 9900, Note_on_c, 0, 67, 120
2, 9926, Note_on_c, 0, 67, 0
2, 9930, Note_on_c, 0, 68, 120
2, 9956, Note_on_c, 0, 68, 0
2, 9960, Note_on_c, 0, 70, 120
2, 10012, Note_on_c, 0, 70, 0
2, 10020, Note_on_c, 0, 53, 120
2, 10072, Note_on_c, 0, 53, 0
2, 10080, Note_on_c, 0, 58, 120
2, 10252, Note_on_c, 0, 58, 0
2, 10260, Note_on_c, 0, 58, 120
2, 10286, Note_on_c, 0, 58, 0
2, 10290, Note_on_c, 0, 60, 120
2, 10316, Note_on_c, 0, 60, 0
2, 10320, Note_on_c, 0, 61, 120
2, 10346, Note_on_c, 0, 61, 0
2, 10350, Note_on_c, 0, 63, 120
2, 10376, Note_on_c, 0, 63, 0
2, 10380, Note_on_c, 0, 65, 120
2, 10406, Note_on_c, 0, 65, 0
2, 10410, Note_on_c, 0, 67, 120
2, 10436, Note_on_c, 0, 67, 0
2, 10440, Note_on_c, 0, 68, 120
2, 10492, Note_on_c, 0, 68, 0
2, 10500, Note_on_c, 0, 55, 120
2, 10552, Note_on_c, 0, 55, 0
2, 10560, Note_on_c, 0, 53, 120
2, 10612, Note_on_c, 0, 53, 0
2, 10620, Note_on_c, 0, 52, 120
2, 10672, Note_on_c, 0, 52, 0
2, 10680, Note_on_c, 0, 53, 120
2, 10706, Note_on_c, 0, 53, 0
2, 10710, Note_on_c, 0, 65, 120
2, 10736, Note_on_c, 0, 65, 0
2, 10740, Note_on_c, 0, 64, 120
2, 10766, Note_on_c, 0, 64, 0
2, 10770, Note_on_c, 0, 67, 120
2, 10796, Note_on_c, 0, 67, 0
2, 10800, Note_on_c, 0, 65, 120
2, 10826, Note_on_c, 0, 65, 0
2, 10830, Note_on_c, 0, 63, 120
2, 10856, Note_on_c, 0, 63, 0
2, 10860, Note_on_c, 0, 62, 120
2, 10886, Note_on_c, 0, 62, 0
2, 10890, Note_on_c, 0, 60, 120
2, 10916, Note_on_c, 0, 60, 0
2, 10920, Note_on_c, 0, 59, 120
2, 11025, Note_on_c, 0, 59, 0
2, 11100, Note_on_c, 0, 63, 120
2, 11152, Note_on_c, 0, 63, 0
2, 11160, Note_on_c, 0, 60, 120
2, 11385, Note_on_c, 0, 60, 0
2, 11400, Note_on_c, 0, 67, 120
2, 11625, Note_on_c, 0, 67, 0
2, 11700, Control_c, 0, 7, 90
2, 11700, Control_c, 0, 10, 90
2, 11700, Program_c, 0, 71
2, 11700, Note_on_c, 0, 67, 127
2, 11736, Note_on_c, 0, 67, 0
2, 11760, Note_on_c, 0, 72, 127
2, 11932, Note_on_c, 0, 72, 0
2, 11940, Note_on_c, 0, 74, 127
2, 11966, Note_on_c, 0, 74, 0
2, 11970, Note_on_c, 0, 72, 127
2, 11996, Note_on_c, 0, 72, 0
2, 12000, Note_on_c, 0, 71, 127
2, 12026, Note_on_c, 0, 71, 0
2, 12030, Note_on_c, 0, 69, 127
2, 12056, Note_on_c, 0, 69, 0
2, 12060, Note_on_c, 0, 67, 127
2, 12086, Note_on_c, 0, 67, 0
2, 12090, Note_on_c, 0, 65, 122
2, 12116, Note_on_c, 0, 65, 0
2, 12120, Note_on_c, 0, 63, 120
2, 12172, Note_on_c, 0, 63, 0
2, 12180, Note_on_c, 0, 79, 127
2, 12220, Note_on_c, 0, 79, 0
2, 12240, Note_on_c, 0, 62, 127
2, 12276, Note_on_c, 0, 62, 0
2, 12300, Note_on_c, 0, 77, 127
2, 12352, Note_on_c, 0, 77, 0
2, 12360, Note_on_c, 0, 75, 127
2, 12386, Note_on_c, 0, 75, 0
2, 12390, Note_on_c, 0, 74, 127
2, 12416, Note_on_c, 0, 74, 0
2, 12420, Note_on_c, 0, 72, 127
2, 12446, Note_on_c, 0, 72, 0
2, 12450, Note_on_c, 0, 74, 127
2, 12476, Note_on_c, 0, 74, 0
2, 12480, Note_on_c, 0, 76, 127
2, 12506, Note_on_c, 0, 76, 0
2, 12510, Note_on_c, 0, 78, 127
2, 12536, Note_on_c, 0, 78, 0
2, 12540, Note_on_c, 0, 79, 127
2, 12566, Note_on_c, 0, 79, 0
2, 12570, Note_on_c, 0, 81, 126
2, 12596, Note_on_c, 0, 81, 0
2, 12600, Note_on_c, 0, 82, 126
2, 12626, Note_on_c, 0, 82, 0
2, 12630, Note_on_c, 0, 79, 120
2, 12656, Note_on_c, 0, 79, 0
2, 12660, Note_on_c, 0, 78, 120
2, 12686, Note_on_c, 0, 78, 0
2, 12690, Note_on_c, 0, 79, 120
2, 12716, Note_on_c, 0, 79, 0
2, 12720, Note_on_c, 0, 74, 120
2, 12746, Note_on_c, 0, 74, 0
2, 12750, Note_on_c, 0, 79, 120
2, 12776, Note_on_c, 0, 79, 0
2, 12780, Note_on_c, 0, 78, 120
2, 12806, Note_on_c, 0, 78, 0
2, 12810, Note_on_c, 0, 79, 120
2, 12836, Note_on_c, 0, 79, 0
2, 12840, Note_on_c, 0, 84, 120
2, 12866, Note_on_c, 0, 84, 0
2, 12870, Note_on_c, 0, 79, 120
2, 12896, Note_on_c, 0, 79, 0
2, 12900, Note_on_c, 0, 78, 120
2, 12926, Note_on_c, 0, 78, 0
2, 12930, Note_on_c, 0, 79, 120
2, 12956, Note_on_c, 0, 79, 0
2, 12960, Note_on_c, 0, 81, 120
2, 12986, Note_on_c, 0, 81, 0
2, 12990, Note_on_c, 0, 79, 120
2, 13016, Note_on_c, 0, 79, 0
2, 13020, Note_on_c, 0, 78, 120
2, 13046, Note_on_c, 0, 78, 0
2, 13050, Note_on_c, 0, 79, 120
2, 13076, Note_on_c, 0, 79, 0
2, 13080, Note_on_c, 0, 74, 120
2, 13118, Note_on_c, 0, 74, 0
2, 13140, Note_on_c, 0, 79, 120
2, 13260, Note_on_c, 0, 78, 120
2, 13263, Note_on_c, 0, 79, 0
2, 13320, Note_on_c, 0, 78, 0
2, 13320, Note_on_c, 0, 79, 120
2, 13372, Note_on_c, 0, 79, 0
2, 13590, Note_on_c, 0, 72, 120
2, 13616, Note_on_c, 0, 72, 0
2, 13620, Note_on_c, 0, 66, 120
2, 13646, Note_on_c, 0, 66, 0
2, 13650, Note_on_c, 0, 67, 120
2, 13676, Note_on_c, 0, 67, 0
2, 13680, Note_on_c, 0, 69, 120
2, 13706, Note_on_c, 0, 69, 0
2, 13710, Note_on_c, 0, 70, 120
2, 13736, Note_on_c, 0, 70, 0
2, 13740, Note_on_c, 0, 72, 120
2, 13830, Note_on_c, 0, 70, 120
2, 13833, Note_on_c, 0, 72, 0
2, 13856, Note_on_c, 0, 70, 0
2, 13860, Note_on_c, 0, 69, 120
2, 13886, Note_on_c, 0, 69, 0
2, 13890, Note_on_c, 0, 70, 120
2, 13916, Note_on_c, 0, 70, 0
2, 13920, Note_on_c, 0, 72, 120
2, 13946, Note_on_c, 0, 72, 0
2, 13950, Note_on_c, 0, 74, 120
2, 13976, Note_on_c, 0, 74, 0
2, 13980, Note_on_c, 0, 76, 120
2, 14006, Note_on_c, 0, 76, 0
2, 14010, Note_on_c, 0, 78, 120
2, 14036, Note_on_c, 0, 78, 0
2, 14040, Note_on_c, 0, 79, 120
2, 14085, Note_on_c, 0, 79, 0
2, 14100, Note_on_c, 0, 78, 120
2, 14130, Note_on_c, 0, 78, 0
2, 14130, Note_on_c, 0, 79, 120
2, 14310, Note_on_c, 0, 79, 0
2, 14340, Note_on_c, 0, 76, 120
2, 14370, Note_on_c, 0, 79, 120
2, 14375, Note_on_c, 0, 76, 0
2, 14555, Note_on_c, 0, 79, 0
2, 14580, Note_on_c, 0, 76, 120
2, 14610, Note_on_c, 0, 76, 0
2, 14610, Note_on_c, 0, 77, 120
2, 14795, Note_on_c, 0, 77, 0
2, 14820, Note_on_c, 0, 74, 120
2, 14846, Note_on_c, 0, 74, 0
2, 14850, Note_on_c, 0, 77, 120
2, 15026, Note_on_c, 0, 77, 0
2, 15030, Note_on_c, 0, 75, 120
2, 15056, Note_on_c, 0, 75, 0
2, 15060, Note_on_c, 0, 74, 120
2, 15086, Note_on_c, 0, 74, 0
2, 15090, Note_on_c, 0, 77, 120
2, 15116, Note_on_c, 0, 77, 0
2, 15120, Note_on_c, 0, 75, 120
2, 15146, Note_on_c, 0, 75, 0
2, 15150, Note_on_c, 0, 74, 120
2, 15176, Note_on_c, 0, 74, 0
2, 15180, Note_on_c, 0, 72, 120
2, 15206, Note_on_c, 0, 72, 0
2, 15210, Note_on_c, 0, 71, 120
2, 15236, Note_on_c, 0, 71, 0
2, 15240, Note_on_c, 0, 72, 120
2, 15266, Note_on_c, 0, 72, 0
2, 15270, Note_on_c, 0, 71, 120
2, 15296, Note_on_c, 0, 71, 0
2, 15300, Note_on_c, 0, 72, 120
2, 15326, Note_on_c, 0, 72, 0
2, 15330, Note_on_c, 0, 74, 120
2, 15356, Note_on_c, 0, 74, 0
2, 15360, Note_on_c, 0, 75, 120
2, 15386, Note_on_c, 0, 75, 0
2, 15390, Note_on_c, 0, 77, 120
2, 15416, Note_on_c, 0, 77, 0
2, 15420, Note_on_c, 0, 79, 120
2, 15485, Note_on_c, 0, 79, 0
2, 15510, Note_on_c, 0, 77, 120
2, 15536, Note_on_c, 0, 77, 0
2, 15540, Note_on_c, 0, 75, 120
2, 15566, Note_on_c, 0, 75, 0
2, 15570, Note_on_c, 0, 79, 120
2, 15596, Note_on_c, 0, 79, 0
2, 15600, Note_on_c, 0, 77, 120
2, 15626, Note_on_c, 0, 77, 0
2, 15630, Note_on_c, 0, 75, 120
2, 15656, Note_on_c, 0, 75, 0
2, 15660, Note_on_c, 0, 74, 120
2, 15686, Note_on_c, 0, 74, 0
2, 15690, Note_on_c, 0, 72, 120
2, 15716, Note_on_c, 0, 72, 0
2, 15720, Note_on_c, 0, 71, 120
2, 15746, Note_on_c, 0, 71, 0
2, 15750, Note_on_c, 0, 69, 120
2, 15776, Note_on_c, 0, 69, 0
2, 15780, Note_on_c, 0, 71, 120
2, 15806, Note_on_c, 0, 71, 0
2, 15810, Note_on_c, 0, 72, 120
2, 15836, Note_on_c, 0, 72, 0
2, 15840, Note_on_c, 0, 74, 120
2, 15866, Note_on_c, 0, 74, 0
2, 15870, Note_on_c, 0, 75, 120
2, 15896, Note_on_c, 0, 75, 0
2, 15900, Note_on_c, 0, 77, 120
2, 15965, Note_on_c, 0, 77, 0
2, 15990, Note_on_c, 0, 80, 120
2, 16016, Note_on_c, 0, 80, 0
2, 16020, Note_on_c, 0, 79, 120
2, 16046, Note_on_c, 0, 79, 0
2, 16050, Note_on_c, 0, 77, 120
2, 16076, Note_on_c, 0, 77, 0
2, 16080, Note_on_c, 0, 75, 120
2, 16106, Note_on_c, 0, 75, 0
2, 16110, Note_on_c, 0, 74, 120
2, 16136, Note_on_c, 0, 74, 0
2, 16140, Note_on_c, 0, 72, 120
2, 16166, Note_on_c, 0, 72, 0
2, 16170, Note_on_c, 0, 70, 120
2, 16196, Note_on_c, 0, 70, 0
2, 16200, Note_on_c, 0, 68, 120
2, 16226, Note_on_c, 0, 68, 0
2, 16230, Note_on_c, 0, 72, 120
2, 16256, Note_on_c, 0, 72, 0
2, 16260, Note_on_c, 0, 77, 120
2, 16286, Note_on_c, 0, 77, 0
2, 16290, Note_on_c, 0, 75, 120
2, 16316, Note_on_c, 0, 75, 0
2, 16320, Note_on_c, 0, 74, 120
2, 16346, Note_on_c, 0, 74, 0
2, 16350, Note_on_c, 0, 72, 120
2, 16376, Note_on_c, 0, 72, 0
2, 16380, Note_on_c, 0, 71, 120
2, 16406, Note_on_c, 0, 71, 0
2, 16410, Note_on_c, 0, 74, 120
2, 16436, Note_on_c, 0, 74, 0
2, 16440, Note_on_c, 0, 79, 120
2, 16466, Note_on_c, 0, 79, 0
2, 16470, Note_on_c, 0, 77, 120
2, 16496, Note_on_c, 0, 77, 0
2, 16500, Note_on_c, 0, 75, 120
2, 16526, Note_on_c, 0, 75, 0
2, 16530, Note_on_c, 0, 79, 120
2, 16556, Note_on_c, 0, 79, 0
2, 16560, Note_on_c, 0, 77, 120
2, 16586, Note_on_c, 0, 77, 0
2, 16590, Note_on_c, 0, 75, 120
2, 16616, Note_on_c, 0, 75, 0
2, 16620, Note_on_c, 0, 74, 120
2, 16646, Note_on_c, 0, 74, 0
2, 16650, Note_on_c, 0, 77, 120
2, 16676, Note_on_c, 0, 77, 0
2, 16680, Note_on_c, 0, 75, 120
2, 16800, Note_on_c, 0, 75, 0
2, 18150, Note_on_c, 0, 55, 120
2, 18176, Note_on_c, 0, 55, 0
2, 18180, Note_on_c, 0, 54, 120
2, 18206, Note_on_c, 0, 54, 0
2, 18210, Note_on_c, 0, 55, 120
2, 18236, Note_on_c, 0, 55, 0
2, 18240, Note_on_c, 0, 50, 120
2, 18266, Note_on_c, 0, 50, 0
2, 18270, Note_on_c, 0, 55, 120
2, 18296, Note_on_c, 0, 55, 0
2, 18300, Note_on_c, 0, 54, 120
2, 18326, Note_on_c, 0, 54, 0
2, 18330, Note_on_c, 0, 55, 120
2, 18356, Note_on_c, 0, 55, 0
2, 18360, Note_on_c, 0, 48, 120
2, 18386, Note_on_c, 0, 48, 0
2, 18390, Note_on_c, 0, 55, 120
2, 18416, Note_on_c, 0, 55, 0
2, 18420, Note_on_c, 0, 54, 120
2, 18446, Note_on_c, 0, 54, 0
2, 18450, Note_on_c, 0, 55, 120
2, 18476, Note_on_c, 0, 55, 0
2, 18480, Note_on_c, 0, 57, 120
2, 18506, Note_on_c, 0, 57, 0
2, 18510, Note_on_c, 0, 55, 120
2, 18536, Note_on_c, 0, 55, 0
2, 18540, Note_on_c, 0, 54, 120
2, 18566, Note_on_c, 0, 54, 0
2, 18570, Note_on_c, 0, 52, 120
2, 18596, Note_on_c, 0, 52, 0
2, 18600, Note_on_c, 0, 50, 120
2, 18640, Note_on_c, 0, 50, 0
2, 18660, Note_on_c, 0, 55, 120
2, 18780, Note_on_c, 0, 55, 0
2, 18780, Note_on_c, 0, 54, 120
2, 18840, Note_on_c, 0, 54, 0
2, 18870, Note_on_c, 0, 55, 120
2, 18896, Note_on_c, 0, 55, 0
2, 18900, Note_on_c, 0, 54, 120
2, 18926, Note_on_c, 0, 54, 0
2, 18930, Note_on_c, 0, 55, 120
2, 18956, Note_on_c, 0, 55, 0
2, 18960, Note_on_c, 0, 50, 120
2, 18986, Note_on_c, 0, 50, 0
2, 18990, Note_on_c, 0, 55, 120
2, 19016, Note_on_c, 0, 55, 0
2, 19020, Note_on_c, 0, 54, 120
2, 19046, Note_on_c, 0, 54, 0
2, 19050, Note_on_c, 0, 55, 120
2, 19076, Note_on_c, 0, 55, 0
2, 19080, Note_on_c, 0, 58, 120
2, 19106, Note_on_c, 0, 58, 0
2, 19110, Note_on_c, 0, 55, 120
2, 19136, Note_on_c, 0, 55, 0
2, 19140, Note_on_c, 0, 64, 120
2, 19166, Note_on_c, 0, 64, 0
2, 19170, Note_on_c, 0, 58, 120
2, 19196, Note_on_c, 0, 58, 0
2, 19200, Note_on_c, 0, 67, 120
2, 19226, Note_on_c, 0, 67, 0
2, 19230, Note_on_c, 0, 58, 120
2, 19256, Note_on_c, 0, 58, 0
2, 19260, Note_on_c, 0, 56, 120
2, 19286, Note_on_c, 0, 56, 0
2, 19290, Note_on_c, 0, 55, 120
2, 19316, Note_on_c, 0, 55, 0
2, 19320, Note_on_c, 0, 56, 120
2, 19346, Note_on_c, 0, 56, 0
2, 19350, Note_on_c, 0, 53, 120
2, 19376, Note_on_c, 0, 53, 0
2, 19380, Note_on_c, 0, 52, 120
2, 19406, Note_on_c, 0, 52, 0
2, 19410, Note_on_c, 0, 53, 120
2, 19436, Note_on_c, 0, 53, 0
2, 19440, Note_on_c, 0, 48, 120
2, 19466, Note_on_c, 0, 48, 0
2, 19470, Note_on_c, 0, 53, 120
2, 19496, Note_on_c, 0, 53, 0
2, 19500, Note_on_c, 0, 52, 120
2, 19526, Note_on_c, 0, 52, 0
2, 19530, Note_on_c, 0, 53, 120
2, 19556, Note_on_c, 0, 53, 0
2, 19560, Note_on_c, 0, 56, 120
2, 19586, Note_on_c, 0, 56, 0
2, 19590, Note_on_c, 0, 53, 120
2, 19616, Note_on_c, 0, 53, 0
2, 19620, Note_on_c, 0, 62, 120
2, 19646, Note_on_c, 0, 62, 0
2, 19650, Note_on_c, 0, 56, 120
2, 19676, Note_on_c, 0, 56, 0
2, 19680, Note_on_c, 0, 65, 120
2, 19706, Note_on_c, 0, 65, 0
2, 19710, Note_on_c, 0, 56, 120
2, 19736, Note_on_c, 0, 56, 0
2, 19740, Note_on_c, 0, 55, 120
2, 19766, Note_on_c, 0, 55, 0
2, 19770, Note_on_c, 0, 53, 120
2, 19796, Note_on_c, 0, 53, 0
2, 19800, Note_on_c, 0, 55, 120
2, 19840, Note_on_c, 0, 55, 0
2, 19860, Note_on_c, 0, 58, 127
2, 19905, Note_on_c, 0, 58, 0
2, 19920, Note_on_c, 0, 63, 127
2, 20092, Note_on_c, 0, 63, 0
2, 20100, Note_on_c, 0, 65, 127
2, 20126, Note_on_c, 0, 65, 0
2, 20130, Note_on_c, 0, 63, 127
2, 20156, Note_on_c, 0, 63, 0
2, 20160, Note_on_c, 0, 62, 127
2, 20186, Note_on_c, 0, 62, 0
2, 20190, Note_on_c, 0, 60, 127
2, 20216, Note_on_c, 0, 60, 0
2, 20220, Note_on_c, 0, 58, 127
2, 20246, Note_on_c, 0, 58, 0
2, 20250, Note_on_c, 0, 56, 121
2, 20276, Note_on_c, 0, 56, 0
2, 20280, Note_on_c, 0, 55, 120
2, 20385, Note_on_c, 0, 55, 0
2, 20460, Note_on_c, 0, 60, 120
2, 20520, Note_on_c, 0, 60, 0
2, 20520, Note_on_c, 0, 65, 120
2, 20625, Note_on_c, 0, 65, 0
2, 20820, Note_on_c, 0, 51, 120
2, 20880, Note_on_c, 0, 51, 0
2, 20880, Note_on_c, 0, 53, 120
2, 20940, Note_on_c, 0, 53, 0
2, 20940, Note_on_c, 0, 55, 120
2, 21035, Note_on_c, 0, 55, 0
2, 21060, Note_on_c, 0, 55, 120
2, 21120, Note_on_c, 0, 55, 0
2, 21120, Note_on_c, 0, 60, 120
2, 21292, Note_on_c, 0, 60, 0
2, 21300, Note_on_c, 0, 60, 120
2, 21326, Note_on_c, 0, 60, 0
2, 21330, Note_on_c, 0, 62, 120
2, 21356, Note_on_c, 0, 62, 0
2, 21360, Note_on_c, 0, 63, 120
2, 21386, Note_on_c, 0, 63, 0
2, 21390, Note_on_c, 0, 65, 120
2, 21416, Note_on_c, 0, 65, 0
2, 21420, Note_on_c, 0, 67, 120
2, 21446, Note_on_c, 0, 67, 0
2, 21450, Note_on_c, 0, 68, 120
2, 21476, Note_on_c, 0, 68, 0
2, 21480, Note_on_c, 0, 70, 120
2, 21520, Note_on_c, 0, 70, 0
2, 21540, Note_on_c, 0, 53, 120
2, 21600, Note_on_c, 0, 53, 0
2, 21600, Note_on_c, 0, 58, 120
2, 21772, Note_on_c, 0, 58, 0
2, 21780, Note_on_c, 0, 58, 120
2, 21806, Note_on_c, 0, 58, 0
2, 21810, Note_on_c, 0, 60, 120
2, 21836, Note_on_c, 0, 60, 0
2, 21840, Note_on_c, 0, 61, 120
2, 21866, Note_on_c, 0, 61, 0
2, 21870, Note_on_c, 0, 63, 120
2, 21896, Note_on_c, 0, 63, 0
2, 21900, Note_on_c, 0, 65, 120
2, 21926, Note_on_c, 0, 65, 0
2, 21930, Note_on_c, 0, 67, 120
2, 21956, Note_on_c, 0, 67, 0
2, 21960, Note_on_c, 0, 68, 120
2, 22005, Note_on_c, 0, 68, 0
2, 22020, Note_on_c, 0, 55, 120
2, 22080, Note_on_c, 0, 55, 0
2, 22080, Note_on_c, 0, 53, 120
2, 22140, Note_on_c, 0, 53, 0
2, 22140, Note_on_c, 0, 52, 120
2, 22200, Note_on_c, 0, 52, 0
2, 22200, Note_on_c, 0, 53, 120
2, 22226, Note_on_c, 0, 53, 0
2, 22230, Note_on_c, 0, 65, 120
2, 22256, Note_on_c, 0, 65, 0
2, 22260, Note_on_c, 0, 64, 120
2, 22286, Note_on_c, 0, 64, 0
2, 22290, Note_on_c, 0, 67, 120
2, 22316, Note_on_c, 0, 67, 0
2, 22320, Note_on_c, 0, 65, 120
2, 22346, Note_on_c, 0, 65, 0
2, 22350, Note_on_c, 0, 63, 120
2, 22376, Note_on_c, 0, 63, 0
2, 22380, Note_on_c, 0, 62, 120
2, 22406, Note_on_c, 0, 62, 0
2, 22410, Note_on_c, 0, 60, 120
2, 22436, Note_on_c, 0, 60, 0
2, 22440, Note_on_c, 0, 59, 120
2, 22545, Note_on_c, 0, 59, 0
2, 22620, Note_on_c, 0, 63, 120
2, 22680, Note_on_c, 0, 63, 0
2, 22680, Note_on_c, 0, 60, 120
2, 22905, Note_on_c, 0, 60, 0
2, 22920, Note_on_c, 0, 67, 120
2, 23145, Note_on_c, 0, 67, 0
2, 23220, Control_c, 0, 7, 100
2, 23220, Control_c, 0, 10, 30
2, 23220, Program_c, 0, 3
2, 23220, Note_on_c, 0, 74, 120
2, 23272, Note_on_c, 0, 74, 0
2, 23280, Note_on_c, 0, 67, 120
2, 23452, Note_on_c, 0, 67, 0
2, 23460, Note_on_c, 0, 65, 120
2, 23486, Note_on_c, 0, 65, 0
2, 23490, Note_on_c, 0, 67, 120
2, 23516, Note_on_c, 0, 67, 0
2, 23520, Note_on_c, 0, 69, 120
2, 23546, Note_on_c, 0, 69, 0
2, 23550, Note_on_c, 0, 71, 120
2, 23576, Note_on_c, 0, 71, 0
2, 23580, Note_on_c, 0, 72, 120
2, 23606, Note_on_c, 0, 72, 0
2, 23610, Note_on_c, 0, 74, 120
2, 23636, Note_on_c, 0, 74, 0
2, 23640, Note_on_c, 0, 75, 120
2, 23692, Note_on_c, 0, 75, 0
2, 23700, Note_on_c, 0, 60, 120
2, 23752, Note_on_c, 0, 60, 0
2, 23760, Note_on_c, 0, 77, 120
2, 23812, Note_on_c, 0, 77, 0
2, 23820, Note_on_c, 0, 62, 120
2, 23872, Note_on_c, 0, 62, 0
2, 23880, Note_on_c, 0, 79, 120
2, 23906, Note_on_c, 0, 79, 0
2, 23910, Note_on_c, 0, 80, 120
2, 23936, Note_on_c, 0, 80, 0
2, 23940, Note_on_c, 0, 79, 120
2, 23966, Note_on_c, 0, 79, 0
2, 23970, Note_on_c, 0, 77, 120
2, 23996, Note_on_c, 0, 77, 0
2, 24000, Note_on_c, 0, 75, 120
2, 24026, Note_on_c, 0, 75, 0
2, 24030, Note_on_c, 0, 74, 120
2, 24056, Note_on_c, 0, 74, 0
2, 24060, Note_on_c, 0, 72, 120
2, 24086, Note_on_c, 0, 72, 0
2, 24090, Note_on_c, 0, 70, 120
2, 24116, Note_on_c, 0, 70, 0
2, 24120, Note_on_c, 0, 68, 120
2, 24172, Note_on_c, 0, 68, 0
2, 24180, Note_on_c, 0, 77, 120
2, 24232, Note_on_c, 0, 77, 0
2, 24240, Note_on_c, 0, 67, 120
2, 24292, Note_on_c, 0, 67, 0
2, 24300, Note_on_c, 0, 76, 120
2, 24352, Note_on_c, 0, 76, 0
2, 24360, Note_on_c, 0, 77, 120
2, 24386, Note_on_c, 0, 77, 0
2, 24390, Note_on_c, 0, 84, 120
2, 24416, Note_on_c, 0, 84, 0
2, 24420, Note_on_c, 0, 76, 120
2, 24446, Note_on_c, 0, 76, 0
2, 24450, Note_on_c, 0, 77, 120
2, 24476, Note_on_c, 0, 77, 0
2, 24510, Note_on_c, 0, 84, 120
2, 24536, Note_on_c, 0, 84, 0
2, 24540, Note_on_c, 0, 76, 120
2, 24566, Note_on_c, 0, 76, 0
2, 24570, Note_on_c, 0, 77, 120
2, 24652, Note_on_c, 0, 77, 0
2, 24900, Note_on_c, 0, 77, 120
2, 24926, Note_on_c, 0, 77, 0
2, 24930, Note_on_c, 0, 79, 120
2, 24956, Note_on_c, 0, 79, 0
2, 24960, Note_on_c, 0, 80, 120
2, 24986, Note_on_c, 0, 80, 0
2, 24990, Note_on_c, 0, 82, 120
2, 25016, Note_on_c, 0, 82, 0
2, 25020, Note_on_c, 0, 84, 120
2, 25046, Note_on_c, 0, 84, 0
2, 25050, Note_on_c, 0, 74, 120
2, 25076, Note_on_c, 0, 74, 0
2, 25080, Note_on_c, 0, 75, 120
2, 25132, Note_on_c, 0, 75, 0
2, 25380, Note_on_c, 0, 75, 120
2, 25406, Note_on_c, 0, 75, 0
2, 25410, Note_on_c, 0, 77, 120
2, 25436, Note_on_c, 0, 77, 0
2, 25440, Note_on_c, 0, 79, 120
2, 25466, Note_on_c, 0, 79, 0
2, 25470, Note_on_c, 0, 80, 120
2, 25496, Note_on_c, 0, 80, 0
2, 25500, Note_on_c, 0, 82, 120
2, 25526, Note_on_c, 0, 82, 0
2, 25530, Note_on_c, 0, 79, 120
2, 25556, Note_on_c, 0, 79, 0
2, 25560, Note_on_c, 0, 80, 120
2, 25612, Note_on_c, 0, 80, 0
2, 25830, Note_on_c, 0, 79, 120
2, 25856, Note_on_c, 0, 79, 0
2, 25860, Note_on_c, 0, 77, 120
2, 25886, Note_on_c, 0, 77, 0
2, 25890, Note_on_c, 0, 75, 120
2, 25916, Note_on_c, 0, 75, 0
2, 25920, Note_on_c, 0, 74, 120
2, 25946, Note_on_c, 0, 74, 0
2, 25950, Note_on_c, 0, 72, 120
2, 25976, Note_on_c, 0, 72, 0
2, 25980, Note_on_c, 0, 71, 120
2, 26006, Note_on_c, 0, 71, 0
2, 26010, Note_on_c, 0, 69, 120
2, 26036, Note_on_c, 0, 69, 0
2, 26040, Note_on_c, 0, 71, 120
2, 26066, Note_on_c, 0, 71, 0
2, 26070, Note_on_c, 0, 72, 120
2, 26096, Note_on_c, 0, 72, 0
2, 26100, Note_on_c, 0, 74, 120
2, 26126, Note_on_c, 0, 74, 0
2, 26130, Note_on_c, 0, 75, 120
2, 26156, Note_on_c, 0, 75, 0
2, 26160, Note_on_c, 0, 77, 120
2, 26306, Note_on_c, 0, 77, 0
2, 26310, Note_on_c, 0, 75, 120
2, 26336, Note_on_c, 0, 75, 0
2, 26340, Note_on_c, 0, 71, 120
2, 26366, Note_on_c, 0, 71, 0
2, 26370, Note_on_c, 0, 72, 120
2, 26396, Note_on_c, 0, 72, 0
2, 26430, Note_on_c, 0, 75, 120
2, 26456, Note_on_c, 0, 75, 0
2, 26460, Note_on_c, 0, 71, 120
2, 26486, Note_on_c, 0, 71, 0
2, 26490, Note_on_c, 0, 72, 120
2, 26516, Note_on_c, 0, 72, 0
2, 26550, Note_on_c, 0, 74, 120
2, 26576, Note_on_c, 0, 74, 0
2, 26580, Note_on_c, 0, 71, 120
2, 26606, Note_on_c, 0, 71, 0
2, 26610, Note_on_c, 0, 72, 120
2, 26636, Note_on_c, 0, 72, 0
2, 26670, Note_on_c, 0, 72, 120
2, 26696, Note_on_c, 0, 72, 0
2, 26700, Note_on_c, 0, 71, 120
2, 26726, Note_on_c, 0, 71, 0
2, 26730, Note_on_c, 0, 72, 120
2, 26812, Note_on_c, 0, 72, 0
2, 26820, Note_on_c, 0, 79, 120
2, 26872, Note_on_c, 0, 79, 0
2, 26880, Note_on_c, 0, 74, 120
2, 26932, Note_on_c, 0, 74, 0
2, 26940, Note_on_c, 0, 77, 120
2, 27052, Note_on_c, 0, 77, 0
2, 27060, Note_on_c, 0, 75, 120
2, 27086, Note_on_c, 0, 75, 0
2, 27090, Note_on_c, 0, 77, 120
2, 27116, Note_on_c, 0, 77, 0
2, 27120, Note_on_c, 0, 79, 120
2, 27292, Note_on_c, 0, 79, 0
2, 27300, Note_on_c, 0, 77, 120
2, 27352, Note_on_c, 0, 77, 0
2, 27360, Note_on_c, 0, 72, 120
2, 27412, Note_on_c, 0, 72, 0
2, 27420, Note_on_c, 0, 75, 120
2, 27532, Note_on_c, 0, 75, 0
2, 27540, Note_on_c, 0, 74, 120
2, 27566, Note_on_c, 0, 74, 0
2, 27570, Note_on_c, 0, 75, 120
2, 27596, Note_on_c, 0, 75, 0
2, 27600, Note_on_c, 0, 77, 120
2, 27772, Note_on_c, 0, 77, 0
2, 27780, Note_on_c, 0, 75, 120
2, 27806, Note_on_c, 0, 75, 0
2, 27810, Note_on_c, 0, 74, 120
2, 27836, Note_on_c, 0, 74, 0
2, 27840, Note_on_c, 0, 72, 120
2, 27866, Note_on_c, 0, 72, 0
2, 27870, Note_on_c, 0, 70, 120
2, 27896, Note_on_c, 0, 70, 0
2, 27900, Note_on_c, 0, 69, 120
2, 27926, Note_on_c, 0, 69, 0
2, 27930, Note_on_c, 0, 67, 120
2, 27956, Note_on_c, 0, 67, 0
2, 27960, Note_on_c, 0, 72, 120
2, 28365, Note_on_c, 0, 72, 0
2, 28380, Note_on_c, 0, 72, 120
2, 28432, Note_on_c, 0, 72, 0
2, 28440, Note_on_c, 0, 70, 120
2, 28545, Note_on_c, 0, 70, 0
2, 28560, Note_on_c, 0, 69, 120
2, 28665, Note_on_c, 0, 69, 0
2, 28710, Note_on_c, 0, 81, 120
2, 28736, Note_on_c, 0, 81, 0
2, 28740, Note_on_c, 0, 78, 120
2, 28766, Note_on_c, 0, 78, 0
2, 28770, Note_on_c, 0, 79, 120
2, 28796, Note_on_c, 0, 79, 0
2, 28830, Note_on_c, 0, 81, 120
2, 28856, Note_on_c, 0, 81, 0
2, 28860, Note_on_c, 0, 78, 120
2, 28886, Note_on_c, 0, 78, 0
2, 28890, Note_on_c, 0, 79, 120
2, 28916, Note_on_c, 0, 79, 0
2, 28980, Note_on_c, 0, 79, 120
2, 29032, Note_on_c, 0, 79, 0
2, 29040, Note_on_c, 0, 75, 120
2, 29212, Note_on_c, 0, 75, 0
2, 29220, Note_on_c, 0, 74, 120
2, 29325, Note_on_c, 0, 74, 0
2, 29340, Note_on_c, 0, 72, 120
2, 29452, Note_on_c, 0, 72, 0
2, 29460, Note_on_c, 0, 75, 120
2, 29512, Note_on_c, 0, 75, 0
2, 29520, Note_on_c, 0, 74, 120
2, 29572, Note_on_c, 0, 74, 0
2, 29580, Note_on_c, 0, 72, 120
2, 29632, Note_on_c, 0, 72, 0
2, 29640, Note_on_c, 0, 70, 120
2, 29692, Note_on_c, 0, 70, 0
2, 29700, Note_on_c, 0, 79, 120
2, 29752, Note_on_c, 0, 79, 0
2, 29760, Note_on_c, 0, 69, 120
2, 29812, Note_on_c, 0, 69, 0
2, 29820, Note_on_c, 0, 78, 120
2, 29872, Note_on_c, 0, 78, 0
2, 29880, Note_on_c, 0, 79, 120
2, 29985, Note_on_c, 0, 79, 0
2, 30060, Note_on_c, 0, 77, 120
2, 30112, Note_on_c, 0, 77, 0
2, 30120, Note_on_c, 0, 71, 120
2, 30225, Note_on_c, 0, 71, 0
2, 30420, Note_on_c, 0, 79, 120
2, 30472, Note_on_c, 0, 79, 0
2, 30480, Note_on_c, 0, 72, 120
2, 30652, Note_on_c, 0, 72, 0
2, 30660, Note_on_c, 0, 70, 120
2, 30686, Note_on_c, 0, 70, 0
2, 30690, Note_on_c, 0, 72, 120
2, 30716, Note_on_c, 0, 72, 0
2, 30720, Note_on_c, 0, 74, 120
2, 30746, Note_on_c, 0, 74, 0
2, 30750, Note_on_c, 0, 76, 120
2, 30776, Note_on_c, 0, 76, 0
2, 30780, Note_on_c, 0, 77, 120
2, 30806, Note_on_c, 0, 77, 0
2, 30810, Note_on_c, 0, 79, 120
2, 30836, Note_on_c, 0, 79, 0
2, 30840, Note_on_c, 0, 80, 120
2, 30866, Note_on_c, 0, 80, 0
2, 30870, Note_on_c, 0, 84, 120
2, 30948, Note_on_c, 0, 84, 0
2, 30960, Note_on_c, 0, 80, 120
2, 30986, Note_on_c, 0, 80, 0
2, 30990, Note_on_c, 0, 84, 120
2, 31016, Note_on_c, 0, 84, 0
2, 31020, Note_on_c, 0, 82, 120
2, 31046, Note_on_c, 0, 82, 0
2, 31050, Note_on_c, 0, 84, 120
2, 31076, Note_on_c, 0, 84, 0
2, 31080, Note_on_c, 0, 80, 120
2, 31106, Note_on_c, 0, 80, 0
2, 31110, Note_on_c, 0, 84, 120
2, 31188, Note_on_c, 0, 84, 0
2, 31200, Note_on_c, 0, 80, 120
2, 31226, Note_on_c, 0, 80, 0
2, 31230, Note_on_c, 0, 82, 120
2, 31256, Note_on_c, 0, 82, 0
2, 31260, Note_on_c, 0, 80, 120
2, 31286, Note_on_c, 0, 80, 0
2, 31290, Note_on_c, 0, 82, 120
2, 31316, Note_on_c, 0, 82, 0
2, 31320, Note_on_c, 0, 79, 120
2, 31346, Note_on_c, 0, 79, 0
2, 31350, Note_on_c, 0, 82, 120
2, 31428, Note_on_c, 0, 82, 0
2, 31440, Note_on_c, 0, 79, 120
2, 31466, Note_on_c, 0, 79, 0
2, 31470, Note_on_c, 0, 82, 120
2, 31496, Note_on_c, 0, 82, 0
2, 31500, Note_on_c, 0, 80, 120
2, 31526, Note_on_c, 0, 80, 0
2, 31530, Note_on_c, 0, 82, 120
2, 31556, Note_on_c, 0, 82, 0
2, 31560, Note_on_c, 0, 79, 120
2, 31586, Note_on_c, 0, 79, 0
2, 31590, Note_on_c, 0, 82, 120
2, 31668, Note_on_c, 0, 82, 0
2, 31680, Note_on_c, 0, 79, 120
2, 31706, Note_on_c, 0, 79, 0
2, 31710, Note_on_c, 0, 80, 120
2, 31736, Note_on_c, 0, 80, 0
2, 31740, Note_on_c, 0, 79, 120
2, 31766, Note_on_c, 0, 79, 0
2, 31770, Note_on_c, 0, 80, 120
2, 31796, Note_on_c, 0, 80, 0
2, 31800, Note_on_c, 0, 77, 120
2, 31826, Note_on_c, 0, 77, 0
2, 31830, Note_on_c, 0, 80, 120
2, 31908, Note_on_c, 0, 80, 0
2, 31920, Note_on_c, 0, 77, 120
2, 31946, Note_on_c, 0, 77, 0
2, 31950, Note_on_c, 0, 80, 120
2, 31976, Note_on_c, 0, 80, 0
2, 31980, Note_on_c, 0, 79, 120
2, 32006, Note_on_c, 0, 79, 0
2, 32010, Note_on_c, 0, 80, 120
2, 32036, Note_on_c, 0, 80, 0
2, 32040, Note_on_c, 0, 77, 120
2, 32066, Note_on_c, 0, 77, 0
2, 32070, Note_on_c, 0, 80, 120
2, 32148, Note_on_c, 0, 80, 0
2, 32160, Note_on_c, 0, 77, 120
2, 32186, Note_on_c, 0, 77, 0
2, 32190, Note_on_c, 0, 79, 120
2, 32216, Note_on_c, 0, 79, 0
2, 32220, Note_on_c, 0, 77, 120
2, 32246, Note_on_c, 0, 77, 0
2, 32250, Note_on_c, 0, 79, 120
2, 32276, Note_on_c, 0, 79, 0
2, 32280, Note_on_c, 0, 75, 120
2, 32306, Note_on_c, 0, 75, 0
2, 32310, Note_on_c, 0, 79, 120
2, 32336, Note_on_c, 0, 79, 0
2, 32340, Note_on_c, 0, 74, 120
2, 32366, Note_on_c, 0, 74, 0
2, 32370, Note_on_c, 0, 79, 120
2, 32396, Note_on_c, 0, 79, 0
2, 32400, Note_on_c, 0, 72, 120
2, 32426, Note_on_c, 0, 72, 0
2, 32430, Note_on_c, 0, 77, 120
2, 32456, Note_on_c, 0, 77, 0
2, 32460, Note_on_c, 0, 70, 120
2, 32486, Note_on_c, 0, 70, 0
2, 32490, Note_on_c, 0, 75, 120
2, 32516, Note_on_c, 0, 75, 0
2, 32520, Note_on_c, 0, 68, 120
2, 32546, Note_on_c, 0, 68, 0
2, 32550, Note_on_c, 0, 72, 120
2, 32576, Note_on_c, 0, 72, 0
2, 32580, Note_on_c, 0, 77, 120
2, 32606, Note_on_c, 0, 77, 0
2, 32610, Note_on_c, 0, 75, 120
2, 32636, Note_on_c, 0, 75, 0
2, 32640, Note_on_c, 0, 77, 120
2, 32745, Note_on_c, 0, 77, 0
2, 32820, Note_on_c, 0, 72, 120
2, 32872, Note_on_c, 0, 72, 0
2, 32880, Note_on_c, 0, 79, 120
2, 33052, Note_on_c, 0, 79, 0
2, 33060, Note_on_c, 0, 80, 120
2, 33086, Note_on_c, 0, 80, 0
2, 33090, Note_on_c, 0, 79, 120
2, 33116, Note_on_c, 0, 79, 0
2, 33120, Note_on_c, 0, 77, 120
2, 33146, Note_on_c, 0, 77, 0
2, 33150, Note_on_c, 0, 75, 120
2, 33176, Note_on_c, 0, 75, 0
2, 33180, Note_on_c, 0, 74, 120
2, 33206, Note_on_c, 0, 74, 0
2, 33210, Note_on_c, 0, 72, 120
2, 33236, Note_on_c, 0, 72, 0
2, 33240, Note_on_c, 0, 71, 120
2, 33345, Note_on_c, 0, 71, 0
2, 33420, Note_on_c, 0, 75, 120
2, 33472, Note_on_c, 0, 75, 0
2, 33480, Note_on_c, 0, 72, 120
2, 33585, Note_on_c, 0, 72, 0
2, 33780, Note_on_c, 0, 67, 120
2, 33832, Note_on_c, 0, 67, 0
2, 33840, Note_on_c, 0, 77, 120
2, 34012, Note_on_c, 0, 77, 0
2, 34020, Note_on_c, 0, 74, 120
2, 34072, Note_on_c, 0, 74, 0
2, 34080, Note_on_c, 0, 79, 120
2, 34132, Note_on_c, 0, 79, 0
2, 34140, Note_on_c, 0, 77, 120
2, 34192, Note_on_c, 0, 77, 0
2, 34200, Note_on_c, 0, 75, 120
2, 34305, Note_on_c, 0, 75, 0
2, 34320, Note_on_c, 0, 74, 120
2, 34425, Note_on_c, 0, 74, 0
2, 34440, Note_on_c, 0, 72, 120
2, 34665, Note_on_c, 0, 72, 0
2, 34740, Control_c, 0, 7, 110
2, 34740, Program_c, 0, 100
2, 34740, Note_on_c, 0, 74, 120
2, 34792, Note_on_c, 0, 74, 0
2, 34800, Note_on_c, 0, 67, 120
2, 34972, Note_on_c, 0, 67, 0
2, 34980, Note_on_c, 0, 65, 120
2, 35006, Note_on_c, 0, 65, 0
2, 35010, Note_on_c, 0, 67, 120
2, 35036, Note_on_c, 0, 67, 0
2, 35040, Note_on_c, 0, 69, 120
2, 35066, Note_on_c, 0, 69, 0
2, 35070, Note_on_c, 0, 71, 120
2, 35096, Note_on_c, 0, 71, 0
2, 35100, Note_on_c, 0, 72, 120
2, 35126, Note_on_c, 0, 72, 0
2, 35130, Note_on_c, 0, 74, 120
2, 35156, Note_on_c, 0, 74, 0
2, 35160, Note_on_c, 0, 75, 120
2, 35212, Note_on_c, 0, 75, 0
2, 35220, Note_on_c, 0, 60, 120
2, 35272, Note_on_c, 0, 60, 0
2, 35280, Note_on_c, 0, 77, 120
2, 35332, Note_on_c, 0, 77, 0
2, 35340, Note_on_c, 0, 62, 120
2, 35392, Note_on_c, 0, 62, 0
2, 35400, Note_on_c, 0, 79, 120
2, 35426, Note_on_c, 0, 79, 0
2, 35430, Note_on_c, 0, 80, 120
2, 35456, Note_on_c, 0, 80, 0
2, 35460, Note_on_c, 0, 79, 120
2, 35486, Note_on_c, 0, 79, 0
2, 35490, Note_on_c, 0, 77, 120
2, 35516, Note_on_c, 0, 77, 0
2, 35520, Note_on_c, 0, 75, 120
2, 35546, Note_on_c, 0, 75, 0
2, 35550, Note_on_c, 0, 74, 120
2, 35576, Note_on_c, 0, 74, 0
2, 35580, Note_on_c, 0, 72, 120
2, 35606, Note_on_c, 0, 72, 0
2, 35610, Note_on_c, 0, 70, 120
2, 35636, Note_on_c, 0, 70, 0
2, 35640, Note_on_c, 0, 68, 120
2, 35692, Note_on_c, 0, 68, 0
2, 35700, Note_on_c, 0, 77, 120
2, 35752, Note_on_c, 0, 77, 0
2, 35760, Note_on_c, 0, 67, 120
2, 35812, Note_on_c, 0, 67, 0
2, 35820, Note_on_c, 0, 76, 120
2, 35872, Note_on_c, 0, 76, 0
2, 35880, Note_on_c, 0, 77, 120
2, 35906, Note_on_c, 0, 77, 0
2, 35910, Note_on_c, 0, 84, 120
2, 35936, Note_on_c, 0, 84, 0
2, 35940, Note_on_c, 0, 76, 120
2, 35966, Note_on_c, 0, 76, 0
2, 35970, Note_on_c, 0, 77, 120
2, 35996, Note_on_c, 0, 77, 0
2, 36030, Note_on_c, 0, 84, 120
2, 36056, Note_on_c, 0, 84, 0
2, 36060, Note_on_c, 0, 76, 120
2, 36086, Note_on_c, 0, 76, 0
2, 36090, Note_on_c, 0, 77, 120
2, 36172, Note_on_c, 0, 77, 0
2, 36420, Note_on_c, 0, 77, 120
2, 36446, Note_on_c, 0, 77, 0
2, 36450, Note_on_c, 0, 79, 120
2, 36476, Note_on_c, 0, 79, 0
2, 36480, Note_on_c, 0, 80, 120
2, 36506, Note_on_c, 0, 80, 0
2, 36510, Note_on_c, 0, 82, 120
2, 36536, Note_on_c, 0, 82, 0
2, 36540, Note_on_c, 0, 84, 120
2, 36566, Note_on_c, 0, 84, 0
2, 36570, Note_on_c, 0, 74, 120
2, 36596, Note_on_c, 0, 74, 0
2, 36600, Note_on_c, 0, 75, 120
2, 36652, Note_on_c, 0, 75, 0
2, 36900, Note_on_c, 0, 75, 120
2, 36926, Note_on_c, 0, 75, 0
2, 36930, Note_on_c, 0, 77, 120
2, 36956, Note_on_c, 0, 77, 0
2, 36960, Note_on_c, 0, 79, 120
2, 36986, Note_on_c, 0, 79, 0
2, 36990, Note_on_c, 0, 80, 120
2, 37016, Note_on_c, 0, 80, 0
2, 37020, Note_on_c, 0, 82, 120
2, 37046, Note_on_c, 0, 82, 0
2, 37050, Note_on_c, 0, 79, 120
2, 37076, Note_on_c, 0, 79, 0
2, 37080, Note_on_c, 0, 80, 120
2, 37132, Note_on_c, 0, 80, 0
2, 37350, Note_on_c, 0, 79, 120
2, 37376, Note_on_c, 0, 79, 0
2, 37380, Note_on_c, 0, 77, 120
2, 37406, Note_on_c, 0, 77, 0
2, 37410, Note_on_c, 0, 75, 120
2, 37436, Note_on_c, 0, 75, 0
2, 37440, Note_on_c, 0, 74, 120
2, 37466, Note_on_c, 0, 74, 0
2, 37470, Note_on_c, 0, 72, 120
2, 37496, Note_on_c, 0, 72, 0
2, 37500, Note_on_c, 0, 71, 120
2, 37526, Note_on_c, 0, 71, 0
2, 37530, Note_on_c, 0, 69, 120
2, 37556, Note_on_c, 0, 69, 0
2, 37560, Note_on_c, 0, 71, 120
2, 37586, Note_on_c, 0, 71, 0
2, 37590, Note_on_c, 0, 72, 120
2, 37616, Note_on_c, 0, 72, 0
2, 37620, Note_on_c, 0, 74, 120
2, 37646, Note_on_c, 0, 74, 0
2, 37650, Note_on_c, 0, 75, 120
2, 37676, Note_on_c, 0, 75, 0
2, 37680, Note_on_c, 0, 77, 120
2, 37826, Note_on_c, 0, 77, 0
2, 37830, Note_on_c, 0, 75, 120
2, 37856, Note_on_c, 0, 75, 0
2, 37860, Note_on_c, 0, 71, 120
2, 37886, Note_on_c, 0, 71, 0
2, 37890, Note_on_c, 0, 72, 120
2, 37916, Note_on_c, 0, 72, 0
2, 37950, Note_on_c, 0, 75, 120
2, 37976, Note_on_c, 0, 75, 0
2, 37980, Note_on_c, 0, 71, 120
2, 38006, Note_on_c, 0, 71, 0
2, 38010, Note_on_c, 0, 72, 120
2, 38036, Note_on_c, 0, 72, 0
2, 38070, Note_on_c, 0, 74, 120
2, 38096, Note_on_c, 0, 74, 0
2, 38100, Note_on_c, 0, 71, 120
2, 38126, Note_on_c, 0, 71, 0
2, 38130, Note_on_c, 0, 72, 120
2, 38156, Note_on_c, 0, 72, 0
2, 38190, Note_on_c, 0, 72, 120
2, 38216, Note_on_c, 0, 72, 0
2, 38220, Note_on_c, 0, 71, 120
2, 38246, Note_on_c, 0, 71, 0
2, 38250, Note_on_c, 0, 72, 120
2, 38332, Note_on_c, 0, 72, 0
2, 38340, Note_on_c, 0, 79, 120
2, 38392, Note_on_c, 0, 79, 0
2, 38400, Note_on_c, 0, 74, 120
2, 38452, Note_on_c, 0, 74, 0
2, 38460, Note_on_c, 0, 77, 120
2, 38572, Note_on_c, 0, 77, 0
2, 38580, Note_on_c, 0, 75, 120
2, 38606, Note_on_c, 0, 75, 0
2, 38610, Note_on_c, 0, 77, 120
2, 38636, Note_on_c, 0, 77, 0
2, 38640, Note_on_c, 0, 79, 120
2, 38812, Note_on_c, 0, 79, 0
2, 38820, Note_on_c, 0, 77, 120
2, 38872, Note_on_c, 0, 77, 0
2, 38880, Note_on_c, 0, 72, 120
2, 38932, Note_on_c, 0, 72, 0
2, 38940, Note_on_c, 0, 75, 120
2, 39052, Note_on_c, 0, 75, 0
2, 39060, Note_on_c, 0, 74, 120
2, 39086, Note_on_c, 0, 74, 0
2, 39090, Note_on_c, 0, 75, 120
2, 39116, Note_on_c, 0, 75, 0
2, 39120, Note_on_c, 0, 77, 120
2, 39292, Note_on_c, 0, 77, 0
2, 39300, Note_on_c, 0, 75, 120
2, 39326, Note_on_c, 0, 75, 0
2, 39330, Note_on_c, 0, 74, 120
2, 39356, Note_on_c, 0, 74, 0
2, 39360, Note_on_c, 0, 72, 120
2, 39386, Note_on_c, 0, 72, 0
2, 39390, Note_on_c, 0, 70, 120
2, 39416, Note_on_c, 0, 70, 0
2, 39420, Note_on_c, 0, 69, 120
2, 39446, Note_on_c, 0, 69, 0
2, 39450, Note_on_c, 0, 67, 120
2, 39476, Note_on_c, 0, 67, 0
2, 39480, Note_on_c, 0, 72, 120
2, 39885, Note_on_c, 0, 72, 0
2, 39900, Note_on_c, 0, 72, 120
2, 39952, Note_on_c, 0, 72, 0
2, 39960, Note_on_c, 0, 70, 120
2, 40065, Note_on_c, 0, 70, 0
2, 40080, Note_on_c, 0, 69, 120
2, 40185, Note_on_c, 0, 69, 0
2, 40230, Note_on_c, 0, 81, 120
2, 40256, Note_on_c, 0, 81, 0
2, 40260, Note_on_c, 0, 78, 120
2, 40286, Note_on_c, 0, 78, 0
2, 40290, Note_on_c, 0, 79, 120
2, 40316, Note_on_c, 0, 79, 0
2, 40350, Note_on_c, 0, 81, 120
2, 40376, Note_on_c, 0, 81, 0
2, 40380, Note_on_c, 0, 78, 120
2, 40406, Note_on_c, 0, 78, 0
2, 40410, Note_on_c, 0, 79, 120
2, 40436, Note_on_c, 0, 79, 0
2, 40500, Note_on_c, 0, 79, 120
2, 40552, Note_on_c, 0, 79, 0
2, 40560, Note_on_c, 0, 75, 120
2, 40732, Note_on_c, 0, 75, 0
2, 40740, Note_on_c, 0, 74, 120
2, 40845, Note_on_c, 0, 74, 0
2, 40860, Note_on_c, 0, 72, 120
2, 40972, Note_on_c, 0, 72, 0
2, 40980, Note_on_c, 0, 75, 120
2, 41032, Note_on_c, 0, 75, 0
2, 41040, Note_on_c, 0, 74, 120
2, 41092, Note_on_c, 0, 74, 0
2, 41100, Note_on_c, 0, 72, 120
2, 41152, Note_on_c, 0, 72, 0
2, 41160, Note_on_c, 0, 70, 120
2, 41212, Note_on_c, 0, 70, 0
2, 41220, Note_on_c, 0, 79, 120
2, 41272, Note_on_c, 0, 79, 0
2, 41280, Note_on_c, 0, 69, 120
2, 41332, Note_on_c, 0, 69, 0
2, 41340, Note_on_c, 0, 78, 120
2, 41392, Note_on_c, 0, 78, 0
2, 41400, Note_on_c, 0, 79, 120
2, 41505, Note_on_c, 0, 79, 0
2, 41580, Note_on_c, 0, 77, 120
2, 41632, Note_on_c, 0, 77, 0
2, 41640, Note_on_c, 0, 71, 120
2, 41745, Note_on_c, 0, 71, 0
2, 41940, Note_on_c, 0, 79, 120
2, 41992, Note_on_c, 0, 79, 0
2, 42000, Note_on_c, 0, 72, 120
2, 42172, Note_on_c, 0, 72, 0
2, 42180, Note_on_c, 0, 70, 120
2, 42206, Note_on_c, 0, 70, 0
2, 42210, Note_on_c, 0, 72, 120
2, 42236, Note_on_c, 0, 72, 0
2, 42240, Note_on_c, 0, 74, 120
2, 42266, Note_on_c, 0, 74, 0
2, 42270, Note_on_c, 0, 76, 120
2, 42296, Note_on_c, 0, 76, 0
2, 42300, Note_on_c, 0, 77, 120
2, 42326, Note_on_c, 0, 77, 0
2, 42330, Note_on_c, 0, 79, 120
2, 42356, Note_on_c, 0, 79, 0
2, 42360, Note_on_c, 0, 80, 120
2, 42386, Note_on_c, 0, 80, 0
2, 42390, Note_on_c, 0, 84, 120
2, 42468, Note_on_c, 0, 84, 0
2, 42480, Note_on_c, 0, 80, 120
2, 42506, Note_on_c, 0, 80, 0
2, 42510, Note_on_c, 0, 84, 120
2, 42536, Note_on_c, 0, 84, 0
2, 42540, Note_on_c, 0, 82, 120
2, 42566, Note_on_c, 0, 82, 0
2, 42570, Note_on_c, 0, 84, 120
2, 42596, Note_on_c, 0, 84, 0
2, 42600, Note_on_c, 0, 80, 120
2, 42626, Note_on_c, 0, 80, 0
2, 42630, Note_on_c, 0, 84, 120
2, 42708, Note_on_c, 0, 84, 0
2, 42720, Note_on_c, 0, 80, 120
2, 42746, Note_on_c, 0, 80, 0
2, 42750, Note_on_c, 0, 82, 120
2, 42776, Note_on_c, 0, 82, 0
2, 42780, Note_on_c, 0, 80, 120
2, 42806, Note_on_c, 0, 80, 0
2, 42810, Note_on_c, 0, 82, 120
2, 42836, Note_on_c, 0, 82, 0
2, 42840, Note_on_c, 0, 79, 120
2, 42866, Note_on_c, 0, 79, 0
2, 42870, Note_on_c, 0, 82, 120
2, 42948, Note_on_c, 0, 82, 0
2, 42960, Note_on_c, 0, 79, 120
2, 42986, Note_on_c, 0, 79, 0
2, 42990, Note_on_c, 0, 82, 120
2, 43016, Note_on_c, 0, 82, 0
2, 43020, Note_on_c, 0, 80, 120
2, 43046, Note_on_c, 0, 80, 0
2, 43050, Note_on_c, 0, 82, 120
2, 43076, Note_on_c, 0, 82, 0
2, 43080, Note_on_c, 0, 79, 120
2, 43106, Note_on_c, 0, 79, 0
2, 43110, Note_on_c, 0, 82, 120
2, 43188, Note_on_c, 0, 82, 0
2, 43200, Note_on_c, 0, 79, 120
2, 43226, Note_on_c, 0, 79, 0
2, 43230, Note_on_c, 0, 80, 120
2, 43256, Note_on_c, 0, 80, 0
2, 43260, Note_on_c, 0, 79, 120
2, 43286, Note_on_c, 0, 79, 0
2, 43290, Note_on_c, 0, 80, 120
2, 43316, Note_on_c, 0, 80, 0
2, 43320, Note_on_c, 0, 77, 120
2, 43346, Note_on_c, 0, 77, 0
2, 43350, Note_on_c, 0, 80, 120
2, 43428, Note_on_c, 0, 80, 0
2, 43440, Note_on_c, 0, 77, 120
2, 43466, Note_on_c, 0, 77, 0
2, 43470, Note_on_c, 0, 80, 120
2, 43496, Note_on_c, 0, 80, 0
2, 43500, Note_on_c, 0, 79, 120
2, 43526, Note_on_c, 0, 79, 0
2, 43530, Note_on_c, 0, 80, 120
2, 43556, Note_on_c, 0, 80, 0
2, 43560, Note_on_c, 0, 77, 120
2, 43586, Note_on_c, 0, 77, 0
2, 43590, Note_on_c, 0, 80, 120
2, 43668, Note_on_c, 0, 80, 0
2, 43680, Note_on_c, 0, 77, 120
2, 43706, Note_on_c, 0, 77, 0
2, 43710, Note_on_c, 0, 79, 120
2, 43736, Note_on_c, 0, 79, 0
2, 43740, Note_on_c, 0, 77, 120
2, 43766, Note_on_c, 0, 77, 0
2, 43770, Note_on_c, 0, 79, 120
2, 43796, Note_on_c, 0, 79, 0
2, 43800, Note_on_c, 0, 75, 120
2, 43826, Note_on_c, 0, 75, 0
2, 43830, Note_on_c, 0, 79, 120
2, 43856, Note_on_c, 0, 79, 0
2, 43860, Note_on_c, 0, 74, 120
2, 43886, Note_on_c, 0, 74, 0
2, 43890, Note_on_c, 0, 79, 120
2, 43916, Note_on_c, 0, 79, 0
2, 43920, Note_on_c, 0, 72, 120
2, 43946, Note_on_c, 0, 72, 0
2, 43950, Note_on_c, 0, 77, 120
2, 43976, Note_on_c, 0, 77, 0
2, 43980, Note_on_c, 0, 70, 120
2, 44006, Note_on_c, 0, 70, 0
2, 44010, Note_on_c, 0, 75, 120
2, 44036, Note_on_c, 0, 75, 0
2, 44040, Note_on_c, 0, 68, 120
2, 44066, Note_on_c, 0, 68, 0
2, 44070, Note_on_c, 0, 72, 120
2, 44096, Note_on_c, 0, 72, 0
2, 44100, Note_on_c, 0, 77, 120
2, 44126, Note_on_c, 0, 77, 0
2, 44130, Note_on_c, 0, 75, 120
2, 44156, Note_on_c, 0, 75, 0
2, 44160, Note_on_c, 0, 77, 120
2, 44265, Note_on_c, 0, 77, 0
2, 44340, Note_on_c, 0, 72, 120
2, 44392, Note_on_c, 0, 72, 0
2, 44400, Note_on_c, 0, 79, 120
2, 44572, Note_on_c, 0, 79, 0
2, 44580, Note_on_c, 0, 80, 120
2, 44606, Note_on_c, 0, 80, 0
2, 44610, Note_on_c, 0, 79, 120
2, 44636, Note_on_c, 0, 79, 0
2, 44640, Note_on_c, 0, 77, 120
2, 44666, Note_on_c, 0, 77, 0
2, 44670, Note_on_c, 0, 75, 120
2, 44696, Note_on_c, 0, 75, 0
2, 44700, Note_on_c, 0, 74, 120
2, 44726, Note_on_c, 0, 74, 0
2, 44730, Note_on_c, 0, 72, 120
2, 44756, Note_on_c, 0, 72, 0
2, 44760, Note_on_c, 0, 71, 120
2, 44865, Note_on_c, 0, 71, 0
2, 44940, Note_on_c, 0, 75, 120
2, 44992, Note_on_c, 0, 75, 0
2, 45000, Note_on_c, 0, 72, 120
2, 45105, Note_on_c, 0, 72, 0
2, 45300, Note_on_c, 0, 67, 120
2, 45352, Note_on_c, 0, 67, 0
2, 45360, Note_on_c, 0, 77, 120
2, 45532, Note_on_c, 0, 77, 0
2, 45540, Note_on_c, 0, 74, 120
2, 45592, Note_on_c, 0, 74, 0
2, 45600, Note_on_c, 0, 79, 120
2, 45652, Note_on_c, 0, 79, 0
2, 45660, Note_on_c, 0, 77, 120
2, 45712, Note_on_c, 0, 77, 0
2, 45720, Note_on_c, 0, 75, 120
2, 45825, Note_on_c, 0, 75, 0
2, 45840, Note_on_c, 0, 74, 120
2, 45945, Note_on_c, 0, 74, 0
2, 45960, Note_on_c, 0, 72, 120
2, 46185, Note_on_c, 0, 72, 0
2, 46185, End_track
3, 0, Start_track
3, 0, MIDI_port, 0
3, 0, Program_c, 1, 103
3, 0, Control_c, 1, 7, 80
3, 0, Control_c, 1, 10, 30
3, 120, Control_c, 1, 10, 90
3, 120, Control_c, 1, 7, 110
3, 120, Program_c, 1, 2
3, 120, Note_on_c, 1, 51, 120
3, 225, Note_on_c, 1, 51, 0
3, 300, Note_on_c, 1, 51, 120
3, 352, Note_on_c, 1, 51, 0
3, 360, Note_on_c, 1, 53, 120
3, 465, Note_on_c, 1, 53, 0
3, 540, Note_on_c, 1, 59, 120
3, 592, Note_on_c, 1, 59, 0
3, 600, Note_on_c, 1, 60, 120
3, 765, Note_on_c, 1, 60, 0
3, 780, Note_on_c, 1, 59, 120
3, 832, Note_on_c, 1, 59, 0
3, 840, Note_on_c, 1, 60, 120
3, 892, Note_on_c, 1, 60, 0
3, 1140, Note_on_c, 1, 62, 120
3, 1192, Note_on_c, 1, 62, 0
3, 1200, Note_on_c, 1, 67, 120
3, 1372, Note_on_c, 1, 67, 0
3, 1380, Note_on_c, 1, 69, 120
3, 1406, Note_on_c, 1, 69, 0
3, 1410, Note_on_c, 1, 67, 120
3, 1436, Note_on_c, 1, 67, 0
3, 1440, Note_on_c, 1, 66, 120
3, 1466, Note_on_c, 1, 66, 0
3, 1470, Note_on_c, 1, 64, 120
3, 1496, Note_on_c, 1, 64, 0
3, 1500, Note_on_c, 1, 62, 120
3, 1526, Note_on_c, 1, 62, 0
3, 1530, Note_on_c, 1, 60, 120
3, 1556, Note_on_c, 1, 60, 0
3, 1560, Note_on_c, 1, 58, 120
3, 1612, Note_on_c, 1, 58, 0
3, 1620, Note_on_c, 1, 74, 120
3, 1672, Note_on_c, 1, 74, 0
3, 1680, Note_on_c, 1, 57, 120
3, 1732, Note_on_c, 1, 57, 0
3, 1740, Note_on_c, 1, 72, 120
3, 1826, Note_on_c, 1, 72, 0
3, 1830, Note_on_c, 1, 70, 120
3, 1856, Note_on_c, 1, 70, 0
3, 1860, Note_on_c, 1, 69, 120
3, 1886, Note_on_c, 1, 69, 0
3, 1890, Note_on_c, 1, 72, 120
3, 1916, Note_on_c, 1, 72, 0
3, 1920, Note_on_c, 1, 70, 120
3, 1946, Note_on_c, 1, 70, 0
3, 1950, Note_on_c, 1, 69, 120
3, 1976, Note_on_c, 1, 69, 0
3, 1980, Note_on_c, 1, 67, 120
3, 2006, Note_on_c, 1, 67, 0
3, 2010, Note_on_c, 1, 65, 120
3, 2036, Note_on_c, 1, 65, 0
3, 2040, Note_on_c, 1, 63, 120
3, 2092, Note_on_c, 1, 63, 0
3, 2100, Note_on_c, 1, 60, 120
3, 2152, Note_on_c, 1, 60, 0
3, 2220, Note_on_c, 1, 66, 120
3, 2272, Note_on_c, 1, 66, 0
3, 2280, Note_on_c, 1, 67, 120
3, 2332, Note_on_c, 1, 67, 0
3, 2460, Note_on_c, 1, 73, 120
3, 2512, Note_on_c, 1, 73, 0
3, 2520, Note_on_c, 1, 70, 120
3, 2546, Note_on_c, 1, 70, 0
3, 2550, Note_on_c, 1, 74, 120
3, 2628, Note_on_c, 1, 74, 0
3, 2640, Note_on_c, 1, 70, 120
3, 2666, Note_on_c, 1, 70, 0
3, 2670, Note_on_c, 1, 73, 120
3, 2696, Note_on_c, 1, 73, 0
3, 2700, Note_on_c, 1, 72, 120
3, 2726, Note_on_c, 1, 72, 0
3, 2730, Note_on_c, 1, 73, 120
3, 2756, Note_on_c, 1, 73, 0
3, 2760, Note_on_c, 1, 70, 120
3, 2786, Note_on_c, 1, 70, 0
3, 2790, Note_on_c, 1, 73, 120
3, 2868, Note_on_c, 1, 73, 0
3, 2880, Note_on_c, 1, 70, 120
3, 2906, Note_on_c, 1, 70, 0
3, 2910, Note_on_c, 1, 72, 120
3, 2936, Note_on_c, 1, 72, 0
3, 2940, Note_on_c, 1, 70, 120
3, 2966, Note_on_c, 1, 70, 0
3, 2970, Note_on_c, 1, 72, 120
3, 2996, Note_on_c, 1, 72, 0
3, 3000, Note_on_c, 1, 68, 120
3, 3026, Note_on_c, 1, 68, 0
3, 3030, Note_on_c, 1, 72, 120
3, 3108, Note_on_c, 1, 72, 0
3, 3120, Note_on_c, 1, 68, 120
3, 3146, Note_on_c, 1, 68, 0
3, 3150, Note_on_c, 1, 72, 120
3, 3176, Note_on_c, 1, 72, 0
3, 3180, Note_on_c, 1, 70, 120
3, 3206, Note_on_c, 1, 70, 0
3, 3210, Note_on_c, 1, 72, 120
3, 3236, Note_on_c, 1, 72, 0
3, 3240, Note_on_c, 1, 68, 120
3, 3266, Note_on_c, 1, 68, 0
3, 3270, Note_on_c, 1, 70, 120
3, 3348, Note_on_c, 1, 70, 0
3, 3360, Note_on_c, 1, 68, 120
3, 3386, Note_on_c, 1, 68, 0
3, 3390, Note_on_c, 1, 70, 120
3, 3416, Note_on_c, 1, 70, 0
3, 3420, Note_on_c, 1, 68, 120
3, 3446, Note_on_c, 1, 68, 0
3, 3450, Note_on_c, 1, 70, 120
3, 3476, Note_on_c, 1, 70, 0
3, 3480, Note_on_c, 1, 67, 120
3, 3532, Note_on_c, 1, 67, 0
3, 3780, Note_on_c, 1, 63, 120
3, 3806, Note_on_c, 1, 63, 0
3, 3810, Note_on_c, 1, 65, 120
3, 3836, Note_on_c, 1, 65, 0
3, 3840, Note_on_c, 1, 67, 120
3, 3866, Note_on_c, 1, 67, 0
3, 3870, Note_on_c, 1, 69, 120
3, 3896, Note_on_c, 1, 69, 0
3, 3900, Note_on_c, 1, 71, 120
3, 3926, Note_on_c, 1, 71, 0
3, 3930, Note_on_c, 1, 72, 120
3, 3956, Note_on_c, 1, 72, 0
3, 3960, Note_on_c, 1, 74, 120
3, 4012, Note_on_c, 1, 74, 0
3, 4260, Note_on_c, 1, 62, 120
3, 4286, Note_on_c, 1, 62, 0
3, 4290, Note_on_c, 1, 63, 120
3, 4316, Note_on_c, 1, 63, 0
3, 4320, Note_on_c, 1, 65, 120
3, 4346, Note_on_c, 1, 65, 0
3, 4350, Note_on_c, 1, 67, 120
3, 4376, Note_on_c, 1, 67, 0
3, 4380, Note_on_c, 1, 69, 120
3, 4406, Note_on_c, 1, 69, 0
3, 4410, Note_on_c, 1, 70, 120
3, 4436, Note_on_c, 1, 70, 0
3, 4440, Note_on_c, 1, 72, 120
3, 4492, Note_on_c, 1, 72, 0
3, 4980, Note_on_c, 1, 72, 120
3, 5085, Note_on_c, 1, 72, 0
3, 5100, Note_on_c, 1, 71, 120
3, 5152, Note_on_c, 1, 71, 0
3, 5190, Note_on_c, 1, 72, 120
3, 5216, Note_on_c, 1, 72, 0
3, 5220, Note_on_c, 1, 71, 120
3, 5246, Note_on_c, 1, 71, 0
3, 5250, Note_on_c, 1, 72, 120
3, 5276, Note_on_c, 1, 72, 0
3, 5280, Note_on_c, 1, 67, 120
3, 5306, Note_on_c, 1, 67, 0
3, 5310, Note_on_c, 1, 72, 120
3, 5336, Note_on_c, 1, 72, 0
3, 5340, Note_on_c, 1, 71, 120
3, 5366, Note_on_c, 1, 71, 0
3, 5370, Note_on_c, 1, 72, 120
3, 5396, Note_on_c, 1, 72, 0
3, 5400, Note_on_c, 1, 75, 120
3, 5426, Note_on_c, 1, 75, 0
3, 5430, Note_on_c, 1, 72, 120
3, 5456, Note_on_c, 1, 72, 0
3, 5460, Note_on_c, 1, 81, 127
3, 5486, Note_on_c, 1, 81, 0
3, 5490, Note_on_c, 1, 75, 120
3, 5516, Note_on_c, 1, 75, 0
3, 5520, Note_on_c, 1, 84, 127
3, 5546, Note_on_c, 1, 84, 0
3, 5550, Note_on_c, 1, 75, 120
3, 5576, Note_on_c, 1, 75, 0
3, 5580, Note_on_c, 1, 74, 120
3, 5606, Note_on_c, 1, 74, 0
3, 5610, Note_on_c, 1, 72, 120
3, 5636, Note_on_c, 1, 72, 0
3, 5640, Note_on_c, 1, 74, 120
3, 5666, Note_on_c, 1, 74, 0
3, 5670, Note_on_c, 1, 70, 120
3, 5696, Note_on_c, 1, 70, 0
3, 5700, Note_on_c, 1, 69, 120
3, 5726, Note_on_c, 1, 69, 0
3, 5730, Note_on_c, 1, 70, 120
3, 5756, Note_on_c, 1, 70, 0
3, 5760, Note_on_c, 1, 65, 120
3, 5786, Note_on_c, 1, 65, 0
3, 5790, Note_on_c, 1, 70, 120
3, 5816, Note_on_c, 1, 70, 0
3, 5820, Note_on_c, 1, 69, 120
3, 5846, Note_on_c, 1, 69, 0
3, 5850, Note_on_c, 1, 70, 120
3, 5876, Note_on_c, 1, 70, 0
3, 5880, Note_on_c, 1, 74, 120
3, 5906, Note_on_c, 1, 74, 0
3, 5910, Note_on_c, 1, 70, 120
3, 5936, Note_on_c, 1, 70, 0
3, 5940, Note_on_c, 1, 79, 127
3, 5966, Note_on_c, 1, 79, 0
3, 5970, Note_on_c, 1, 74, 120
3, 5996, Note_on_c, 1, 74, 0
3, 6000, Note_on_c, 1, 82, 127
3, 6026, Note_on_c, 1, 82, 0
3, 6030, Note_on_c, 1, 74, 120
3, 6056, Note_on_c, 1, 74, 0
3, 6060, Note_on_c, 1, 72, 120
3, 6086, Note_on_c, 1, 72, 0
3, 6090, Note_on_c, 1, 70, 120
3, 6116, Note_on_c, 1, 70, 0
3, 6120, Note_on_c, 1, 72, 120
3, 6146, Note_on_c, 1, 72, 0
3, 6150, Note_on_c, 1, 69, 120
3, 6176, Note_on_c, 1, 69, 0
3, 6180, Note_on_c, 1, 67, 120
3, 6206, Note_on_c, 1, 67, 0
3, 6210, Note_on_c, 1, 69, 120
3, 6236, Note_on_c, 1, 69, 0
3, 6240, Note_on_c, 1, 66, 120
3, 6266, Note_on_c, 1, 66, 0
3, 6270, Note_on_c, 1, 69, 120
3, 6296, Note_on_c, 1, 69, 0
3, 6300, Note_on_c, 1, 67, 120
3, 6326, Note_on_c, 1, 67, 0
3, 6330, Note_on_c, 1, 69, 120
3, 6356, Note_on_c, 1, 69, 0
3, 6360, Note_on_c, 1, 72, 120
3, 6386, Note_on_c, 1, 72, 0
3, 6390, Note_on_c, 1, 69, 120
3, 6416, Note_on_c, 1, 69, 0
3, 6420, Note_on_c, 1, 78, 127
3, 6446, Note_on_c, 1, 78, 0
3, 6450, Note_on_c, 1, 72, 120
3, 6476, Note_on_c, 1, 72, 0
3, 6480, Note_on_c, 1, 81, 127
3, 6506, Note_on_c, 1, 81, 0
3, 6510, Note_on_c, 1, 72, 120
3, 6536, Note_on_c, 1, 72, 0
3, 6540, Note_on_c, 1, 70, 120
3, 6566, Note_on_c, 1, 70, 0
3, 6570, Note_on_c, 1, 69, 120
3, 6596, Note_on_c, 1, 69, 0
3, 6600, Note_on_c, 1, 70, 120
3, 6652, Note_on_c, 1, 70, 0
3, 6660, Note_on_c, 1, 74, 120
3, 6712, Note_on_c, 1, 74, 0
3, 6720, Note_on_c, 1, 79, 120
3, 6892, Note_on_c, 1, 79, 0
3, 6900, Note_on_c, 1, 81, 120
3, 6926, Note_on_c, 1, 81, 0
3, 6930, Note_on_c, 1, 79, 120
3, 6956, Note_on_c, 1, 79, 0
3, 6960, Note_on_c, 1, 78, 120
3, 6986, Note_on_c, 1, 78, 0
3, 6990, Note_on_c, 1, 76, 120
3, 7016, Note_on_c, 1, 76, 0
3, 7020, Note_on_c, 1, 74, 120
3, 7046, Note_on_c, 1, 74, 0
3, 7050, Note_on_c, 1, 72, 120
3, 7076, Note_on_c, 1, 72, 0
3, 7080, Note_on_c, 1, 70, 120
3, 7132, Note_on_c, 1, 70, 0
3, 7140, Note_on_c, 1, 86, 127
3, 7192, Note_on_c, 1, 86, 0
3, 7200, Note_on_c, 1, 69, 120
3, 7252, Note_on_c, 1, 69, 0
3, 7260, Note_on_c, 1, 84, 127
3, 7312, Note_on_c, 1, 84, 0
3, 7320, Note_on_c, 1, 67, 120
3, 7372, Note_on_c, 1, 67, 0
3, 7380, Note_on_c, 1, 82, 120
3, 7406, Note_on_c, 1, 82, 0
3, 7410, Note_on_c, 1, 81, 120
3, 7436, Note_on_c, 1, 81, 0
3, 7440, Note_on_c, 1, 79, 120
3, 7492, Note_on_c, 1, 79, 0
3, 7500, Note_on_c, 1, 82, 120
3, 7552, Note_on_c, 1, 82, 0
3, 7560, Note_on_c, 1, 76, 120
3, 7612, Note_on_c, 1, 76, 0
3, 7620, Note_on_c, 1, 79, 120
3, 7672, Note_on_c, 1, 79, 0
3, 7680, Note_on_c, 1, 70, 120
3, 7732, Note_on_c, 1, 70, 0
3, 7740, Note_on_c, 1, 76, 120
3, 7792, Note_on_c, 1, 76, 0
3, 7800, Note_on_c, 1, 65, 120
3, 7852, Note_on_c, 1, 65, 0
3, 7860, Note_on_c, 1, 80, 120
3, 7886, Note_on_c, 1, 80, 0
3, 7890, Note_on_c, 1, 79, 120
3, 7916, Note_on_c, 1, 79, 0
3, 7920, Note_on_c, 1, 77, 120
3, 7972, Note_on_c, 1, 77, 0
3, 7980, Note_on_c, 1, 80, 120
3, 8032, Note_on_c, 1, 80, 0
3, 8040, Note_on_c, 1, 74, 120
3, 8092, Note_on_c, 1, 74, 0
3, 8100, Note_on_c, 1, 77, 120
3, 8152, Note_on_c, 1, 77, 0
3, 8160, Note_on_c, 1, 68, 120
3, 8212, Note_on_c, 1, 68, 0
3, 8220, Note_on_c, 1, 74, 120
3, 8272, Note_on_c, 1, 74, 0
3, 8280, Note_on_c, 1, 63, 120
3, 8385, Note_on_c, 1, 63, 0
3, 8460, Note_on_c, 1, 72, 120
3, 8512, Note_on_c, 1, 72, 0
3, 8520, Note_on_c, 1, 68, 120
3, 8625, Note_on_c, 1, 68, 0
3, 8820, Note_on_c, 1, 67, 120
3, 8872, Note_on_c, 1, 67, 0
3, 8880, Note_on_c, 1, 72, 120
3, 9052, Note_on_c, 1, 72, 0
3, 9060, Note_on_c, 1, 74, 120
3, 9086, Note_on_c, 1, 74, 0
3, 9090, Note_on_c, 1, 72, 120
3, 9116, Note_on_c, 1, 72, 0
3, 9120, Note_on_c, 1, 71, 120
3, 9146, Note_on_c, 1, 71, 0
3, 9150, Note_on_c, 1, 69, 120
3, 9176, Note_on_c, 1, 69, 0
3, 9180, Note_on_c, 1, 67, 120
3, 9206, Note_on_c, 1, 67, 0
3, 9210, Note_on_c, 1, 65, 120
3, 9236, Note_on_c, 1, 65, 0
3, 9240, Note_on_c, 1, 63, 120
3, 9292, Note_on_c, 1, 63, 0
3, 9300, Note_on_c, 1, 79, 120
3, 9352, Note_on_c, 1, 79, 0
3, 9360, Note_on_c, 1, 62, 120
3, 9412, Note_on_c, 1, 62, 0
3, 9420, Note_on_c, 1, 77, 120
3, 9506, Note_on_c, 1, 77, 0
3, 9510, Note_on_c, 1, 75, 120
3, 9536, Note_on_c, 1, 75, 0
3, 9540, Note_on_c, 1, 74, 120
3, 9566, Note_on_c, 1, 74, 0
3, 9570, Note_on_c, 1, 77, 120
3, 9596, Note_on_c, 1, 77, 0
3, 9600, Note_on_c, 1, 75, 120
3, 9626, Note_on_c, 1, 75, 0
3, 9630, Note_on_c, 1, 74, 120
3, 9656, Note_on_c, 1, 74, 0
3, 9660, Note_on_c, 1, 72, 120
3, 9686, Note_on_c, 1, 72, 0
3, 9690, Note_on_c, 1, 70, 120
3, 9716, Note_on_c, 1, 70, 0
3, 9720, Note_on_c, 1, 68, 120
3, 9746, Note_on_c, 1, 68, 0
3, 9750, Note_on_c, 1, 67, 120
3, 9776, Note_on_c, 1, 67, 0
3, 9780, Note_on_c, 1, 68, 120
3, 9806, Note_on_c, 1, 68, 0
3, 9810, Note_on_c, 1, 70, 120
3, 9836, Note_on_c, 1, 70, 0
3, 9840, Note_on_c, 1, 72, 120
3, 9866, Note_on_c, 1, 72, 0
3, 9870, Note_on_c, 1, 74, 120
3, 9896, Note_on_c, 1, 74, 0
3, 9900, Note_on_c, 1, 75, 120
3, 9986, Note_on_c, 1, 75, 0
3, 9990, Note_on_c, 1, 74, 120
3, 10016, Note_on_c, 1, 74, 0
3, 10020, Note_on_c, 1, 72, 120
3, 10046, Note_on_c, 1, 72, 0
3, 10050, Note_on_c, 1, 75, 120
3, 10076, Note_on_c, 1, 75, 0
3, 10080, Note_on_c, 1, 74, 120
3, 10106, Note_on_c, 1, 74, 0
3, 10110, Note_on_c, 1, 72, 120
3, 10136, Note_on_c, 1, 72, 0
3, 10140, Note_on_c, 1, 70, 120
3, 10166, Note_on_c, 1, 70, 0
3, 10170, Note_on_c, 1, 68, 120
3, 10196, Note_on_c, 1, 68, 0
3, 10200, Note_on_c, 1, 67, 120
3, 10226, Note_on_c, 1, 67, 0
3, 10230, Note_on_c, 1, 65, 120
3, 10256, Note_on_c, 1, 65, 0
3, 10260, Note_on_c, 1, 67, 120
3, 10286, Note_on_c, 1, 67, 0
3, 10290, Note_on_c, 1, 68, 120
3, 10316, Note_on_c, 1, 68, 0
3, 10320, Note_on_c, 1, 70, 120
3, 10346, Note_on_c, 1, 70, 0
3, 10350, Note_on_c, 1, 72, 120
3, 10376, Note_on_c, 1, 72, 0
3, 10380, Note_on_c, 1, 73, 120
3, 10466, Note_on_c, 1, 73, 0
3, 10470, Note_on_c, 1, 72, 120
3, 10496, Note_on_c, 1, 72, 0
3, 10500, Note_on_c, 1, 70, 120
3, 10526, Note_on_c, 1, 70, 0
3, 10530, Note_on_c, 1, 73, 120
3, 10556, Note_on_c, 1, 73, 0
3, 10560, Note_on_c, 1, 72, 120
3, 10586, Note_on_c, 1, 72, 0
3, 10590, Note_on_c, 1, 70, 120
3, 10616, Note_on_c, 1, 70, 0
3, 10620, Note_on_c, 1, 68, 120
3, 10646, Note_on_c, 1, 68, 0
3, 10650, Note_on_c, 1, 67, 120
3, 10676, Note_on_c, 1, 67, 0
3, 10680, Note_on_c, 1, 68, 120
3, 10972, Note_on_c, 1, 68, 0
3, 10980, Note_on_c, 1, 67, 120
3, 11032, Note_on_c, 1, 67, 0
3, 11040, Note_on_c, 1, 67, 120
3, 11212, Note_on_c, 1, 67, 0
3, 11220, Note_on_c, 1, 68, 120
3, 11246, Note_on_c, 1, 68, 0
3, 11250, Note_on_c, 1, 67, 120
3, 11276, Note_on_c, 1, 67, 0
3, 11280, Note_on_c, 1, 65, 120
3, 11306, Note_on_c, 1, 65, 0
3, 11310, Note_on_c, 1, 63, 120
3, 11336, Note_on_c, 1, 63, 0
3, 11340, Note_on_c, 1, 62, 120
3, 11366, Note_on_c, 1, 62, 0
3, 11370, Note_on_c, 1, 60, 120
3, 11396, Note_on_c, 1, 60, 0
3, 11400, Note_on_c, 1, 59, 120
3, 11625, Note_on_c, 1, 59, 0
3, 11640, Control_c, 1, 7, 90
3, 11640, Control_c, 1, 10, 30
3, 11640, Program_c, 1, 71
3, 11640, Note_on_c, 1, 51, 120
3, 11745, Note_on_c, 1, 51, 0
3, 11820, Note_on_c, 1, 51, 120
3, 11880, Note_on_c, 1, 51, 0
3, 11880, Note_on_c, 1, 53, 120
3, 11985, Note_on_c, 1, 53, 0
3, 12060, Note_on_c, 1, 59, 120
3, 12120, Note_on_c, 1, 59, 0
3, 12120, Note_on_c, 1, 60, 120
3, 12300, Note_on_c, 1, 60, 0
3, 12300, Note_on_c, 1, 59, 120
3, 12360, Note_on_c, 1, 59, 0
3, 12360, Note_on_c, 1, 60, 120
3, 12412, Note_on_c, 1, 60, 0
3, 12660, Note_on_c, 1, 62, 127
3, 12695, Note_on_c, 1, 62, 0
3, 12720, Note_on_c, 1, 67, 127
3, 12880, Note_on_c, 1, 67, 0
3, 12900, Note_on_c, 1, 69, 127
3, 12926, Note_on_c, 1, 69, 0
3, 12930, Note_on_c, 1, 67, 127
3, 12956, Note_on_c, 1, 67, 0
3, 12960, Note_on_c, 1, 66, 126
3, 12986, Note_on_c, 1, 66, 0
3, 12990, Note_on_c, 1, 64, 123
3, 13016, Note_on_c, 1, 64, 0
3, 13020, Note_on_c, 1, 62, 120
3, 13046, Note_on_c, 1, 62, 0
3, 13050, Note_on_c, 1, 60, 120
3, 13076, Note_on_c, 1, 60, 0
3, 13080, Note_on_c, 1, 58, 120
3, 13120, Note_on_c, 1, 58, 0
3, 13140, Note_on_c, 1, 74, 120
3, 13192, Note_on_c, 1, 74, 0
3, 13200, Note_on_c, 1, 57, 120
3, 13240, Note_on_c, 1, 57, 0
3, 13260, Note_on_c, 1, 72, 120
3, 13346, Note_on_c, 1, 72, 0
3, 13350, Note_on_c, 1, 70, 120
3, 13376, Note_on_c, 1, 70, 0
3, 13380, Note_on_c, 1, 69, 120
3, 13406, Note_on_c, 1, 69, 0
3, 13410, Note_on_c, 1, 72, 120
3, 13436, Note_on_c, 1, 72, 0
3, 13440, Note_on_c, 1, 70, 120
3, 13466, Note_on_c, 1, 70, 0
3, 13470, Note_on_c, 1, 69, 120
3, 13496, Note_on_c, 1, 69, 0
3, 13500, Note_on_c, 1, 67, 120
3, 13526, Note_on_c, 1, 67, 0
3, 13530, Note_on_c, 1, 65, 120
3, 13556, Note_on_c, 1, 65, 0
3, 13560, Note_on_c, 1, 63, 120
3, 13612, Note_on_c, 1, 63, 0
3, 13620, Note_on_c, 1, 60, 120
3, 13672, Note_on_c, 1, 60, 0
3, 13740, Note_on_c, 1, 66, 120
3, 13800, Note_on_c, 1, 66, 0
3, 13800, Note_on_c, 1, 67, 120
3, 13852, Note_on_c, 1, 67, 0
3, 13980, Note_on_c, 1, 73, 120
3, 14040, Note_on_c, 1, 73, 0
3, 14040, Note_on_c, 1, 70, 120
3, 14066, Note_on_c, 1, 70, 0
3, 14070, Note_on_c, 1, 74, 120
3, 14130, Note_on_c, 1, 74, 0
3, 14160, Note_on_c, 1, 70, 120
3, 14186, Note_on_c, 1, 70, 0
3, 14190, Note_on_c, 1, 73, 120
3, 14216, Note_on_c, 1, 73, 0
3, 14220, Note_on_c, 1, 72, 120
3, 14246, Note_on_c, 1, 72, 0
3, 14250, Note_on_c, 1, 73, 120
3, 14276, Note_on_c, 1, 73, 0
3, 14280, Note_on_c, 1, 70, 120
3, 14306, Note_on_c, 1, 70, 0
3, 14310, Note_on_c, 1, 73, 120
3, 14375, Note_on_c, 1, 73, 0
3, 14400, Note_on_c, 1, 70, 120
3, 14426, Note_on_c, 1, 70, 0
3, 14430, Note_on_c, 1, 72, 120
3, 14456, Note_on_c, 1, 72, 0
3, 14460, Note_on_c, 1, 70, 120
3, 14486, Note_on_c, 1, 70, 0
3, 14490, Note_on_c, 1, 72, 120
3, 14516, Note_on_c, 1, 72, 0
3, 14520, Note_on_c, 1, 68, 120
3, 14546, Note_on_c, 1, 68, 0
3, 14550, Note_on_c, 1, 72, 120
3, 14615, Note_on_c, 1, 72, 0
3, 14640, Note_on_c, 1, 68, 120
3, 14666, Note_on_c, 1, 68, 0
3, 14670, Note_on_c, 1, 72, 120
3, 14696, Note_on_c, 1, 72, 0
3, 14700, Note_on_c, 1, 70, 120
3, 14726, Note_on_c, 1, 70, 0
3, 14730, Note_on_c, 1, 72, 120
3, 14756, Note_on_c, 1, 72, 0
3, 14760, Note_on_c, 1, 68, 120
3, 14786, Note_on_c, 1, 68, 0
3, 14790, Note_on_c, 1, 70, 120
3, 14855, Note_on_c, 1, 70, 0
3, 14880, Note_on_c, 1, 68, 120
3, 14906, Note_on_c, 1, 68, 0
3, 14910, Note_on_c, 1, 70, 120
3, 14936, Note_on_c, 1, 70, 0
3, 14940, Note_on_c, 1, 68, 120
3, 14966, Note_on_c, 1, 68, 0
3, 14970, Note_on_c, 1, 70, 120
3, 14996, Note_on_c, 1, 70, 0
3, 15000, Note_on_c, 1, 67, 120
3, 15052, Note_on_c, 1, 67, 0
3, 15300, Note_on_c, 1, 63, 120
3, 15326, Note_on_c, 1, 63, 0
3, 15330, Note_on_c, 1, 65, 120
3, 15356, Note_on_c, 1, 65, 0
3, 15360, Note_on_c, 1, 67, 120
3, 15386, Note_on_c, 1, 67, 0
3, 15390, Note_on_c, 1, 69, 120
3, 15416, Note_on_c, 1, 69, 0
3, 15420, Note_on_c, 1, 71, 120
3, 15446, Note_on_c, 1, 71, 0
3, 15450, Note_on_c, 1, 72, 120
3, 15476, Note_on_c, 1, 72, 0
3, 15480, Note_on_c, 1, 74, 120
3, 15532, Note_on_c, 1, 74, 0
3, 15780, Note_on_c, 1, 62, 120
3, 15806, Note_on_c, 1, 62, 0
3, 15810, Note_on_c, 1, 63, 120
3, 15836, Note_on_c, 1, 63, 0
3, 15840, Note_on_c, 1, 65, 120
3, 15866, Note_on_c, 1, 65, 0
3, 15870, Note_on_c, 1, 67, 120
3, 15896, Note_on_c, 1, 67, 0
3, 15900, Note_on_c, 1, 69, 120
3, 15926, Note_on_c, 1, 69, 0
3, 15930, Note_on_c, 1, 70, 120
3, 15956, Note_on_c, 1, 70, 0
3, 15960, Note_on_c, 1, 72, 120
3, 16012, Note_on_c, 1, 72, 0
3, 16500, Note_on_c, 1, 72, 120
3, 16620, Note_on_c, 1, 72, 0
3, 16620, Note_on_c, 1, 71, 120
3, 16672, Note_on_c, 1, 71, 0
3, 16710, Note_on_c, 1, 72, 120
3, 16736, Note_on_c, 1, 72, 0
3, 16740, Note_on_c, 1, 71, 120
3, 16766, Note_on_c, 1, 71, 0
3, 16770, Note_on_c, 1, 72, 120
3, 16796, Note_on_c, 1, 72, 0
3, 16800, Note_on_c, 1, 67, 120
3, 16826, Note_on_c, 1, 67, 0
3, 16830, Note_on_c, 1, 72, 120
3, 16856, Note_on_c, 1, 72, 0
3, 16860, Note_on_c, 1, 71, 120
3, 16886, Note_on_c, 1, 71, 0
3, 16890, Note_on_c, 1, 72, 120
3, 16916, Note_on_c, 1, 72, 0
3, 16920, Note_on_c, 1, 75, 120
3, 16946, Note_on_c, 1, 75, 0
3, 16950, Note_on_c, 1, 72, 120
3, 16976, Note_on_c, 1, 72, 0
3, 16980, Note_on_c, 1, 81, 127
3, 17006, Note_on_c, 1, 81, 0
3, 17010, Note_on_c, 1, 75, 120
3, 17036, Note_on_c, 1, 75, 0
3, 17040, Note_on_c, 1, 84, 127
3, 17066, Note_on_c, 1, 84, 0
3, 17070, Note_on_c, 1, 75, 120
3, 17096, Note_on_c, 1, 75, 0
3, 17100, Note_on_c, 1, 74, 120
3, 17126, Note_on_c, 1, 74, 0
3, 17130, Note_on_c, 1, 72, 120
3, 17156, Note_on_c, 1, 72, 0
3, 17160, Note_on_c, 1, 74, 120
3, 17186, Note_on_c, 1, 74, 0
3, 17190, Note_on_c, 1, 70, 120
3, 17216, Note_on_c, 1, 70, 0
3, 17220, Note_on_c, 1, 69, 120
3, 17246, Note_on_c, 1, 69, 0
3, 17250, Note_on_c, 1, 70, 120
3, 17276, Note_on_c, 1, 70, 0
3, 17280, Note_on_c, 1, 65, 120
3, 17306, Note_on_c, 1, 65, 0
3, 17310, Note_on_c, 1, 70, 120
3, 17336, Note_on_c, 1, 70, 0
3, 17340, Note_on_c, 1, 69, 120
3, 17366, Note_on_c, 1, 69, 0
3, 17370, Note_on_c, 1, 70, 120
3, 17396, Note_on_c, 1, 70, 0
3, 17400, Note_on_c, 1, 74, 120
3, 17426, Note_on_c, 1, 74, 0
3, 17430, Note_on_c, 1, 70, 120
3, 17456, Note_on_c, 1, 70, 0
3, 17460, Note_on_c, 1, 79, 127
3, 17486, Note_on_c, 1, 79, 0
3, 17490, Note_on_c, 1, 74, 120
3, 17516, Note_on_c, 1, 74, 0
3, 17520, Note_on_c, 1, 82, 127
3, 17546, Note_on_c, 1, 82, 0
3, 17550, Note_on_c, 1, 74, 120
3, 17576, Note_on_c, 1, 74, 0
3, 17580, Note_on_c, 1, 72, 120
3, 17606, Note_on_c, 1, 72, 0
3, 17610, Note_on_c, 1, 70, 120
3, 17636, Note_on_c, 1, 70, 0
3, 17640, Note_on_c, 1, 72, 120
3, 17666, Note_on_c, 1, 72, 0
3, 17670, Note_on_c, 1, 69, 120
3, 17696, Note_on_c, 1, 69, 0
3, 17700, Note_on_c, 1, 67, 120
3, 17726, Note_on_c, 1, 67, 0
3, 17730, Note_on_c, 1, 69, 120
3, 17756, Note_on_c, 1, 69, 0
3, 17760, Note_on_c, 1, 66, 120
3, 17786, Note_on_c, 1, 66, 0
3, 17790, Note_on_c, 1, 69, 120
3, 17816, Note_on_c, 1, 69, 0
3, 17820, Note_on_c, 1, 67, 120
3, 17846, Note_on_c, 1, 67, 0
3, 17850, Note_on_c, 1, 69, 120
3, 17876, Note_on_c, 1, 69, 0
3, 17880, Note_on_c, 1, 72, 120
3, 17906, Note_on_c, 1, 72, 0
3, 17910, Note_on_c, 1, 69, 120
3, 17936, Note_on_c, 1, 69, 0
3, 17940, Note_on_c, 1, 78, 127
3, 17966, Note_on_c, 1, 78, 0
3, 17970, Note_on_c, 1, 72, 120
3, 17996, Note_on_c, 1, 72, 0
3, 18000, Note_on_c, 1, 81, 127
3, 18026, Note_on_c, 1, 81, 0
3, 18030, Note_on_c, 1, 72, 120
3, 18056, Note_on_c, 1, 72, 0
3, 18060, Note_on_c, 1, 70, 120
3, 18086, Note_on_c, 1, 70, 0
3, 18090, Note_on_c, 1, 69, 120
3, 18116, Note_on_c, 1, 69, 0
3, 18120, Note_on_c, 1, 70, 120
3, 18160, Note_on_c, 1, 70, 0
3, 18180, Note_on_c, 1, 74, 127
3, 18220, Note_on_c, 1, 74, 0
3, 18240, Note_on_c, 1, 79, 127
3, 18395, Note_on_c, 1, 79, 0
3, 18420, Note_on_c, 1, 81, 127
3, 18446, Note_on_c, 1, 81, 0
3, 18450, Note_on_c, 1, 79, 127
3, 18476, Note_on_c, 1, 79, 0
3, 18480, Note_on_c, 1, 78, 127
3, 18506, Note_on_c, 1, 78, 0
3, 18510, Note_on_c, 1, 76, 122
3, 18536, Note_on_c, 1, 76, 0
3, 18540, Note_on_c, 1, 74, 121
3, 18566, Note_on_c, 1, 74, 0
3, 18570, Note_on_c, 1, 72, 120
3, 18596, Note_on_c, 1, 72, 0
3, 18600, Note_on_c, 1, 70, 120
3, 18652, Note_on_c, 1, 70, 0
3, 18660, Note_on_c, 1, 86, 127
3, 18700, Note_on_c, 1, 86, 0
3, 18720, Note_on_c, 1, 69, 120
3, 18772, Note_on_c, 1, 69, 0
3, 18780, Note_on_c, 1, 84, 127
3, 18820, Note_on_c, 1, 84, 0
3, 18840, Note_on_c, 1, 67, 120
3, 18892, Note_on_c, 1, 67, 0
3, 18900, Note_on_c, 1, 82, 120
3, 18926, Note_on_c, 1, 82, 0
3, 18930, Note_on_c, 1, 81, 120
3, 18956, Note_on_c, 1, 81, 0
3, 18960, Note_on_c, 1, 79, 120
3, 19020, Note_on_c, 1, 79, 0
3, 19020, Note_on_c, 1, 82, 120
3, 19060, Note_on_c, 1, 82, 0
3, 19080, Note_on_c, 1, 76, 120
3, 19140, Note_on_c, 1, 79, 120
3, 19145, Note_on_c, 1, 76, 0
3, 19180, Note_on_c, 1, 79, 0
3, 19200, Note_on_c, 1, 70, 120
3, 19260, Note_on_c, 1, 70, 0
3, 19260, Note_on_c, 1, 76, 120
3, 19300, Note_on_c, 1, 76, 0
3, 19320, Note_on_c, 1, 65, 120
3, 19372, Note_on_c, 1, 65, 0
3, 19380, Note_on_c, 1, 80, 120
3, 19406, Note_on_c, 1, 80, 0
3, 19410, Note_on_c, 1, 79, 120
3, 19436, Note_on_c, 1, 79, 0
3, 19440, Note_on_c, 1, 77, 120
3, 19500, Note_on_c, 1, 77, 0
3, 19500, Note_on_c, 1, 80, 120
3, 19540, Note_on_c, 1, 80, 0
3, 19560, Note_on_c, 1, 74, 120
3, 19620, Note_on_c, 1, 74, 0
3, 19620, Note_on_c, 1, 77, 120
3, 19660, Note_on_c, 1, 77, 0
3, 19680, Note_on_c, 1, 68, 120
3, 19740, Note_on_c, 1, 68, 0
3, 19740, Note_on_c, 1, 74, 120
3, 19780, Note_on_c, 1, 74, 0
3, 19800, Note_on_c, 1, 63, 120
3, 19905, Note_on_c, 1, 63, 0
3, 19980, Note_on_c, 1, 72, 120
3, 20040, Note_on_c, 1, 72, 0
3, 20040, Note_on_c, 1, 68, 120
3, 20145, Note_on_c, 1, 68, 0
3, 20340, Note_on_c, 1, 67, 120
3, 20380, Note_on_c, 1, 67, 0
3, 20400, Note_on_c, 1, 72, 120
3, 20572, Note_on_c, 1, 72, 0
3, 20580, Note_on_c, 1, 74, 120
3, 20606, Note_on_c, 1, 74, 0
3, 20610, Note_on_c, 1, 72, 120
3, 20636, Note_on_c, 1, 72, 0
3, 20640, Note_on_c, 1, 71, 120
3, 20666, Note_on_c, 1, 71, 0
3, 20670, Note_on_c, 1, 69, 120
3, 20696, Note_on_c, 1, 69, 0
3, 20700, Note_on_c, 1, 67, 120
3, 20726, Note_on_c, 1, 67, 0
3, 20730, Note_on_c, 1, 65, 120
3, 20756, Note_on_c, 1, 65, 0
3, 20760, Note_on_c, 1, 63, 120
3, 20812, Note_on_c, 1, 63, 0
3, 20820, Note_on_c, 1, 79, 120
3, 20860, Note_on_c, 1, 79, 0
3, 20880, Note_on_c, 1, 62, 120
3, 20932, Note_on_c, 1, 62, 0
3, 20940, Note_on_c, 1, 77, 120
3, 21026, Note_on_c, 1, 77, 0
3, 21030, Note_on_c, 1, 75, 120
3, 21056, Note_on_c, 1, 75, 0
3, 21060, Note_on_c, 1, 74, 120
3, 21086, Note_on_c, 1, 74, 0
3, 21090, Note_on_c, 1, 77, 120
3, 21116, Note_on_c, 1, 77, 0
3, 21120, Note_on_c, 1, 75, 120
3, 21146, Note_on_c, 1, 75, 0
3, 21150, Note_on_c, 1, 74, 120
3, 21176, Note_on_c, 1, 74, 0
3, 21180, Note_on_c, 1, 72, 120
3, 21206, Note_on_c, 1, 72, 0
3, 21210, Note_on_c, 1, 70, 120
3, 21236, Note_on_c, 1, 70, 0
3, 21240, Note_on_c, 1, 68, 120
3, 21266, Note_on_c, 1, 68, 0
3, 21270, Note_on_c, 1, 67, 120
3, 21296, Note_on_c, 1, 67, 0
3, 21300, Note_on_c, 1, 68, 120
3, 21326, Note_on_c, 1, 68, 0
3, 21330, Note_on_c, 1, 70, 120
3, 21356, Note_on_c, 1, 70, 0
3, 21360, Note_on_c, 1, 72, 120
3, 21386, Note_on_c, 1, 72, 0
3, 21390, Note_on_c, 1, 74, 120
3, 21416, Note_on_c, 1, 74, 0
3, 21420, Note_on_c, 1, 75, 120
3, 21485, Note_on_c, 1, 75, 0
3, 21510, Note_on_c, 1, 74, 120
3, 21536, Note_on_c, 1, 74, 0
3, 21540, Note_on_c, 1, 72, 120
3, 21566, Note_on_c, 1, 72, 0
3, 21570, Note_on_c, 1, 75, 120
3, 21596, Note_on_c, 1, 75, 0
3, 21600, Note_on_c, 1, 74, 120
3, 21626, Note_on_c, 1, 74, 0
3, 21630, Note_on_c, 1, 72, 120
3, 21656, Note_on_c, 1, 72, 0
3, 21660, Note_on_c, 1, 70, 120
3, 21686, Note_on_c, 1, 70, 0
3, 21690, Note_on_c, 1, 68, 120
3, 21716, Note_on_c, 1, 68, 0
3, 21720, Note_on_c, 1, 67, 120
3, 21746, Note_on_c, 1, 67, 0
3, 21750, Note_on_c, 1, 65, 120
3, 21776, Note_on_c, 1, 65, 0
3, 21780, Note_on_c, 1, 67, 120
3, 21806, Note_on_c, 1, 67, 0
3, 21810, Note_on_c, 1, 68, 120
3, 21836, Note_on_c, 1, 68, 0
3, 21840, Note_on_c, 1, 70, 120
3, 21866, Note_on_c, 1, 70, 0
3, 21870, Note_on_c, 1, 72, 120
3, 21896, Note_on_c, 1, 72, 0
3, 21900, Note_on_c, 1, 73, 120
3, 21965, Note_on_c, 1, 73, 0
3, 21990, Note_on_c, 1, 72, 120
3, 22016, Note_on_c, 1, 72, 0
3, 22020, Note_on_c, 1, 70, 120
3, 22046, Note_on_c, 1, 70, 0
3, 22050, Note_on_c, 1, 73, 120
3, 22076, Note_on_c, 1, 73, 0
3, 22080, Note_on_c, 1, 72, 120
3, 22106, Note_on_c, 1, 72, 0
3, 22110, Note_on_c, 1, 70, 120
3, 22136, Note_on_c, 1, 70, 0
3, 22140, Note_on_c, 1, 68, 120
3, 22166, Note_on_c, 1, 68, 0
3, 22170, Note_on_c, 1, 67, 120
3, 22196, Note_on_c, 1, 67, 0
3, 22200, Note_on_c, 1, 68, 120
3, 22445, Note_on_c, 1, 68, 0
3, 22500, Note_on_c, 1, 67, 120
3, 22530, Note_on_c, 1, 67, 0
3, 22560, Note_on_c, 1, 67, 120
3, 22715, Note_on_c, 1, 67, 0
3, 22740, Note_on_c, 1, 68, 127
3, 22766, Note_on_c, 1, 68, 0
3, 22770, Note_on_c, 1, 67, 127
3, 22796, Note_on_c, 1, 67, 0
3, 22800, Note_on_c, 1, 65, 127
3, 22826, Note_on_c, 1, 65, 0
3, 22830, Note_on_c, 1, 63, 127
3, 22856, Note_on_c, 1, 63, 0
3, 22860, Note_on_c, 1, 62, 125
3, 22886, Note_on_c, 1, 62, 0
3, 22890, Note_on_c, 1, 60, 123
3, 22916, Note_on_c, 1, 60, 0
3, 22920, Note_on_c, 1, 59, 120
3, 23145, Note_on_c, 1, 59, 0
3, 23160, Control_c, 1, 7, 90
3, 23160, Control_c, 1, 10, 90
3, 23160, Program_c, 1, 2
3, 23160, Note_on_c, 1, 59, 120
3, 23265, Note_on_c, 1, 59, 0
3, 23340, Note_on_c, 1, 62, 120
3, 23392, Note_on_c, 1, 62, 0
3, 23400, Note_on_c, 1, 55, 120
3, 23452, Note_on_c, 1, 55, 0
3, 23460, Note_on_c, 1, 60, 120
3, 23565, Note_on_c, 1, 60, 0
3, 23580, Note_on_c, 1, 59, 120
3, 23632, Note_on_c, 1, 59, 0
3, 23670, Note_on_c, 1, 55, 120
3, 23696, Note_on_c, 1, 55, 0
3, 23700, Note_on_c, 1, 56, 120
3, 23726, Note_on_c, 1, 56, 0
3, 23730, Note_on_c, 1, 55, 120
3, 23756, Note_on_c, 1, 55, 0
3, 23790, Note_on_c, 1, 53, 120
3, 23816, Note_on_c, 1, 53, 0
3, 23820, Note_on_c, 1, 55, 120
3, 23846, Note_on_c, 1, 55, 0
3, 23850, Note_on_c, 1, 53, 120
3, 23876, Note_on_c, 1, 53, 0
3, 23880, Note_on_c, 1, 51, 120
3, 23932, Note_on_c, 1, 51, 0
3, 23940, Note_on_c, 1, 67, 120
3, 23992, Note_on_c, 1, 67, 0
3, 24000, Note_on_c, 1, 60, 120
3, 24172, Note_on_c, 1, 60, 0
3, 24180, Note_on_c, 1, 58, 120
3, 24206, Note_on_c, 1, 58, 0
3, 24210, Note_on_c, 1, 60, 120
3, 24236, Note_on_c, 1, 60, 0
3, 24240, Note_on_c, 1, 62, 120
3, 24266, Note_on_c, 1, 62, 0
3, 24270, Note_on_c, 1, 64, 120
3, 24296, Note_on_c, 1, 64, 0
3, 24300, Note_on_c, 1, 65, 120
3, 24326, Note_on_c, 1, 65, 0
3, 24330, Note_on_c, 1, 67, 120
3, 24356, Note_on_c, 1, 67, 0
3, 24360, Note_on_c, 1, 68, 120
3, 24412, Note_on_c, 1, 68, 0
3, 24420, Note_on_c, 1, 53, 120
3, 24472, Note_on_c, 1, 53, 0
3, 24480, Note_on_c, 1, 70, 120
3, 24532, Note_on_c, 1, 70, 0
3, 24540, Note_on_c, 1, 55, 120
3, 24592, Note_on_c, 1, 55, 0
3, 24600, Note_on_c, 1, 72, 120
3, 24626, Note_on_c, 1, 72, 0
3, 24630, Note_on_c, 1, 73, 120
3, 24656, Note_on_c, 1, 73, 0
3, 24660, Note_on_c, 1, 72, 120
3, 24686, Note_on_c, 1, 72, 0
3, 24690, Note_on_c, 1, 70, 120
3, 24716, Note_on_c, 1, 70, 0
3, 24720, Note_on_c, 1, 68, 120
3, 24746, Note_on_c, 1, 68, 0
3, 24750, Note_on_c, 1, 67, 120
3, 24776, Note_on_c, 1, 67, 0
3, 24780, Note_on_c, 1, 65, 120
3, 24806, Note_on_c, 1, 65, 0
3, 24810, Note_on_c, 1, 63, 120
3, 24836, Note_on_c, 1, 63, 0
3, 24840, Note_on_c, 1, 62, 120
3, 24866, Note_on_c, 1, 62, 0
3, 24870, Note_on_c, 1, 60, 120
3, 24896, Note_on_c, 1, 60, 0
3, 24900, Note_on_c, 1, 62, 120
3, 24926, Note_on_c, 1, 62, 0
3, 24930, Note_on_c, 1, 63, 120
3, 24956, Note_on_c, 1, 63, 0
3, 24960, Note_on_c, 1, 65, 120
3, 24986, Note_on_c, 1, 65, 0
3, 24990, Note_on_c, 1, 67, 120
3, 25016, Note_on_c, 1, 67, 0
3, 25020, Note_on_c, 1, 68, 120
3, 25106, Note_on_c, 1, 68, 0
3, 25110, Note_on_c, 1, 72, 120
3, 25136, Note_on_c, 1, 72, 0
3, 25140, Note_on_c, 1, 70, 120
3, 25166, Note_on_c, 1, 70, 0
3, 25170, Note_on_c, 1, 68, 120
3, 25196, Note_on_c, 1, 68, 0
3, 25200, Note_on_c, 1, 67, 120
3, 25226, Note_on_c, 1, 67, 0
3, 25230, Note_on_c, 1, 65, 120
3, 25256, Note_on_c, 1, 65, 0
3, 25260, Note_on_c, 1, 63, 120
3, 25286, Note_on_c, 1, 63, 0
3, 25290, Note_on_c, 1, 62, 120
3, 25316, Note_on_c, 1, 62, 0
3, 25320, Note_on_c, 1, 60, 120
3, 25346, Note_on_c, 1, 60, 0
3, 25350, Note_on_c, 1, 59, 120
3, 25376, Note_on_c, 1, 59, 0
3, 25380, Note_on_c, 1, 60, 120
3, 25406, Note_on_c, 1, 60, 0
3, 25410, Note_on_c, 1, 62, 120
3, 25436, Note_on_c, 1, 62, 0
3, 25440, Note_on_c, 1, 63, 120
3, 25466, Note_on_c, 1, 63, 0
3, 25470, Note_on_c, 1, 65, 120
3, 25496, Note_on_c, 1, 65, 0
3, 25500, Note_on_c, 1, 67, 120
3, 25586, Note_on_c, 1, 67, 0
3, 25590, Note_on_c, 1, 70, 120
3, 25616, Note_on_c, 1, 70, 0
3, 25620, Note_on_c, 1, 68, 120
3, 25646, Note_on_c, 1, 68, 0
3, 25650, Note_on_c, 1, 67, 120
3, 25676, Note_on_c, 1, 67, 0
3, 25680, Note_on_c, 1, 65, 120
3, 25706, Note_on_c, 1, 65, 0
3, 25710, Note_on_c, 1, 63, 120
3, 25736, Note_on_c, 1, 63, 0
3, 25740, Note_on_c, 1, 62, 120
3, 25766, Note_on_c, 1, 62, 0
3, 25770, Note_on_c, 1, 60, 120
3, 25796, Note_on_c, 1, 60, 0
3, 25800, Note_on_c, 1, 59, 120
3, 25852, Note_on_c, 1, 59, 0
3, 26220, Note_on_c, 1, 74, 120
3, 26272, Note_on_c, 1, 74, 0
3, 26280, Note_on_c, 1, 67, 120
3, 26385, Note_on_c, 1, 67, 0
3, 26400, Note_on_c, 1, 65, 120
3, 26505, Note_on_c, 1, 65, 0
3, 26520, Note_on_c, 1, 63, 120
3, 26625, Note_on_c, 1, 63, 0
3, 26640, Note_on_c, 1, 62, 120
3, 26745, Note_on_c, 1, 62, 0
3, 26760, Note_on_c, 1, 63, 120
3, 26812, Note_on_c, 1, 63, 0
3, 26820, Note_on_c, 1, 75, 120
3, 26872, Note_on_c, 1, 75, 0
3, 26880, Note_on_c, 1, 71, 120
3, 26932, Note_on_c, 1, 71, 0
3, 26940, Note_on_c, 1, 74, 120
3, 27165, Note_on_c, 1, 74, 0
3, 27180, Note_on_c, 1, 72, 120
3, 27206, Note_on_c, 1, 72, 0
3, 27210, Note_on_c, 1, 70, 120
3, 27236, Note_on_c, 1, 70, 0
3, 27240, Note_on_c, 1, 69, 120
3, 27405, Note_on_c, 1, 69, 0
3, 27420, Note_on_c, 1, 72, 120
3, 27645, Note_on_c, 1, 72, 0
3, 27660, Note_on_c, 1, 70, 120
3, 27686, Note_on_c, 1, 70, 0
3, 27690, Note_on_c, 1, 68, 120
3, 27716, Note_on_c, 1, 68, 0
3, 27720, Note_on_c, 1, 67, 120
3, 27825, Note_on_c, 1, 67, 0
3, 28020, Note_on_c, 1, 70, 120
3, 28072, Note_on_c, 1, 70, 0
3, 28080, Note_on_c, 1, 69, 120
3, 28132, Note_on_c, 1, 69, 0
3, 28140, Note_on_c, 1, 67, 120
3, 28192, Note_on_c, 1, 67, 0
3, 28200, Note_on_c, 1, 66, 120
3, 28252, Note_on_c, 1, 66, 0
3, 28260, Note_on_c, 1, 69, 120
3, 28312, Note_on_c, 1, 69, 0
3, 28320, Note_on_c, 1, 62, 120
3, 28492, Note_on_c, 1, 62, 0
3, 28500, Note_on_c, 1, 60, 120
3, 28526, Note_on_c, 1, 60, 0
3, 28530, Note_on_c, 1, 62, 120
3, 28556, Note_on_c, 1, 62, 0
3, 28560, Note_on_c, 1, 64, 120
3, 28586, Note_on_c, 1, 64, 0
3, 28590, Note_on_c, 1, 66, 120
3, 28616, Note_on_c, 1, 66, 0
3, 28620, Note_on_c, 1, 67, 120
3, 28646, Note_on_c, 1, 67, 0
3, 28650, Note_on_c, 1, 69, 120
3, 28676, Note_on_c, 1, 69, 0
3, 28680, Note_on_c, 1, 70, 120
3, 28732, Note_on_c, 1, 70, 0
3, 28740, Note_on_c, 1, 55, 120
3, 28792, Note_on_c, 1, 55, 0
3, 28800, Note_on_c, 1, 72, 120
3, 28852, Note_on_c, 1, 72, 0
3, 28860, Note_on_c, 1, 57, 120
3, 28912, Note_on_c, 1, 57, 0
3, 28920, Note_on_c, 1, 74, 120
3, 29085, Note_on_c, 1, 74, 0
3, 29100, Note_on_c, 1, 72, 120
3, 29152, Note_on_c, 1, 72, 0
3, 29160, Note_on_c, 1, 66, 120
3, 29212, Note_on_c, 1, 66, 0
3, 29220, Note_on_c, 1, 70, 120
3, 29325, Note_on_c, 1, 70, 0
3, 29340, Note_on_c, 1, 69, 120
3, 29452, Note_on_c, 1, 69, 0
3, 29460, Note_on_c, 1, 66, 120
3, 29512, Note_on_c, 1, 66, 0
3, 29520, Note_on_c, 1, 67, 120
3, 29572, Note_on_c, 1, 67, 0
3, 29580, Note_on_c, 1, 69, 120
3, 29632, Note_on_c, 1, 69, 0
3, 29640, Note_on_c, 1, 62, 120
3, 29692, Note_on_c, 1, 62, 0
3, 29790, Note_on_c, 1, 75, 120
3, 29816, Note_on_c, 1, 75, 0
3, 29820, Note_on_c, 1, 74, 120
3, 29846, Note_on_c, 1, 74, 0
3, 29850, Note_on_c, 1, 72, 120
3, 29876, Note_on_c, 1, 72, 0
3, 29880, Note_on_c, 1, 71, 120
3, 29932, Note_on_c, 1, 71, 0
3, 29940, Note_on_c, 1, 74, 120
3, 29992, Note_on_c, 1, 74, 0
3, 30000, Note_on_c, 1, 67, 120
3, 30172, Note_on_c, 1, 67, 0
3, 30180, Note_on_c, 1, 65, 120
3, 30206, Note_on_c, 1, 65, 0
3, 30210, Note_on_c, 1, 67, 120
3, 30236, Note_on_c, 1, 67, 0
3, 30240, Note_on_c, 1, 69, 120
3, 30266, Note_on_c, 1, 69, 0
3, 30270, Note_on_c, 1, 71, 120
3, 30296, Note_on_c, 1, 71, 0
3, 30300, Note_on_c, 1, 72, 120
3, 30326, Note_on_c, 1, 72, 0
3, 30330, Note_on_c, 1, 74, 120
3, 30356, Note_on_c, 1, 74, 0
3, 30360, Note_on_c, 1, 75, 120
3, 30386, Note_on_c, 1, 75, 0
3, 30390, Note_on_c, 1, 59, 120
3, 30416, Note_on_c, 1, 59, 0
3, 30420, Note_on_c, 1, 60, 120
3, 30446, Note_on_c, 1, 60, 0
3, 30450, Note_on_c, 1, 62, 120
3, 30476, Note_on_c, 1, 62, 0
3, 30480, Note_on_c, 1, 63, 120
3, 30506, Note_on_c, 1, 63, 0
3, 30510, Note_on_c, 1, 65, 120
3, 30536, Note_on_c, 1, 65, 0
3, 30540, Note_on_c, 1, 67, 120
3, 30566, Note_on_c, 1, 67, 0
3, 30570, Note_on_c, 1, 68, 120
3, 30596, Note_on_c, 1, 68, 0
3, 30600, Note_on_c, 1, 70, 120
3, 30626, Note_on_c, 1, 70, 0
3, 30630, Note_on_c, 1, 68, 120
3, 30656, Note_on_c, 1, 68, 0
3, 30660, Note_on_c, 1, 67, 120
3, 30686, Note_on_c, 1, 67, 0
3, 30690, Note_on_c, 1, 68, 120
3, 30716, Note_on_c, 1, 68, 0
3, 30720, Note_on_c, 1, 70, 120
3, 30746, Note_on_c, 1, 70, 0
3, 30750, Note_on_c, 1, 72, 120
3, 30776, Note_on_c, 1, 72, 0
3, 30780, Note_on_c, 1, 74, 120
3, 30806, Note_on_c, 1, 74, 0
3, 30810, Note_on_c, 1, 76, 120
3, 30836, Note_on_c, 1, 76, 0
3, 30840, Note_on_c, 1, 77, 120
3, 30892, Note_on_c, 1, 77, 0
3, 30900, Note_on_c, 1, 76, 120
3, 30926, Note_on_c, 1, 76, 0
3, 30930, Note_on_c, 1, 77, 120
3, 31132, Note_on_c, 1, 77, 0
3, 31140, Note_on_c, 1, 76, 120
3, 31166, Note_on_c, 1, 76, 0
3, 31170, Note_on_c, 1, 77, 120
3, 31372, Note_on_c, 1, 77, 0
3, 31380, Note_on_c, 1, 74, 120
3, 31406, Note_on_c, 1, 74, 0
3, 31410, Note_on_c, 1, 75, 120
3, 31612, Note_on_c, 1, 75, 0
3, 31620, Note_on_c, 1, 74, 120
3, 31646, Note_on_c, 1, 74, 0
3, 31650, Note_on_c, 1, 75, 120
3, 31852, Note_on_c, 1, 75, 0
3, 31860, Note_on_c, 1, 72, 120
3, 31886, Note_on_c, 1, 72, 0
3, 31890, Note_on_c, 1, 74, 120
3, 32092, Note_on_c, 1, 74, 0
3, 32100, Note_on_c, 1, 72, 120
3, 32126, Note_on_c, 1, 72, 0
3, 32130, Note_on_c, 1, 74, 120
3, 32265, Note_on_c, 1, 74, 0
3, 32280, Note_on_c, 1, 72, 120
3, 32332, Note_on_c, 1, 72, 0
3, 32340, Note_on_c, 1, 70, 120
3, 32392, Note_on_c, 1, 70, 0
3, 32400, Note_on_c, 1, 68, 120
3, 32452, Note_on_c, 1, 68, 0
3, 32460, Note_on_c, 1, 67, 120
3, 32512, Note_on_c, 1, 67, 0
3, 32520, Note_on_c, 1, 65, 120
3, 32625, Note_on_c, 1, 65, 0
3, 32670, Note_on_c, 1, 72, 120
3, 32696, Note_on_c, 1, 72, 0
3, 32700, Note_on_c, 1, 71, 120
3, 32726, Note_on_c, 1, 71, 0
3, 32730, Note_on_c, 1, 74, 120
3, 32756, Note_on_c, 1, 74, 0
3, 32760, Note_on_c, 1, 67, 120
3, 32865, Note_on_c, 1, 67, 0
3, 32940, Note_on_c, 1, 75, 120
3, 32992, Note_on_c, 1, 75, 0
3, 33000, Note_on_c, 1, 72, 120
3, 33105, Note_on_c, 1, 72, 0
3, 33300, Note_on_c, 1, 62, 120
3, 33352, Note_on_c, 1, 62, 0
3, 33360, Note_on_c, 1, 67, 120
3, 33532, Note_on_c, 1, 67, 0
3, 33540, Note_on_c, 1, 68, 120
3, 33566, Note_on_c, 1, 68, 0
3, 33570, Note_on_c, 1, 67, 120
3, 33596, Note_on_c, 1, 67, 0
3, 33600, Note_on_c, 1, 65, 120
3, 33626, Note_on_c, 1, 65, 0
3, 33630, Note_on_c, 1, 63, 120
3, 33656, Note_on_c, 1, 63, 0
3, 33660, Note_on_c, 1, 62, 120
3, 33686, Note_on_c, 1, 62, 0
3, 33690, Note_on_c, 1, 60, 120
3, 33716, Note_on_c, 1, 60, 0
3, 33720, Note_on_c, 1, 59, 120
3, 33825, Note_on_c, 1, 59, 0
3, 33900, Note_on_c, 1, 74, 120
3, 33952, Note_on_c, 1, 74, 0
3, 33960, Note_on_c, 1, 67, 120
3, 34012, Note_on_c, 1, 67, 0
3, 34020, Note_on_c, 1, 71, 120
3, 34072, Note_on_c, 1, 71, 0
3, 34080, Note_on_c, 1, 72, 120
3, 34132, Note_on_c, 1, 72, 0
3, 34140, Note_on_c, 1, 68, 120
3, 34140, Note_on_c, 1, 74, 120
3, 34192, Note_on_c, 1, 68, 0
3, 34200, Note_on_c, 1, 67, 120
3, 34252, Note_on_c, 1, 74, 0
3, 34260, Note_on_c, 1, 72, 120
3, 34312, Note_on_c, 1, 67, 0
3, 34320, Note_on_c, 1, 65, 120
3, 34372, Note_on_c, 1, 72, 0
3, 34380, Note_on_c, 1, 71, 120
3, 34432, Note_on_c, 1, 71, 0
3, 34432, Note_on_c, 1, 65, 0
3, 34440, Note_on_c, 1, 63, 120
3, 34440, Note_on_c, 1, 67, 120
3, 34665, Note_on_c, 1, 67, 0
3, 34665, Note_on_c, 1, 63, 0
3, 34680, Control_c, 1, 7, 110
3, 34680, Program_c, 1, 103
3, 34680, Note_on_c, 1, 59, 120
3, 34785, Note_on_c, 1, 59, 0
3, 34860, Note_on_c, 1, 62, 120
3, 34912, Note_on_c, 1, 62, 0
3, 34920, Note_on_c, 1, 55, 120
3, 34972, Note_on_c, 1, 55, 0
3, 34980, Note_on_c, 1, 60, 120
3, 35085, Note_on_c, 1, 60, 0
3, 35100, Note_on_c, 1, 59, 120
3, 35152, Note_on_c, 1, 59, 0
3, 35190, Note_on_c, 1, 55, 120
3, 35216, Note_on_c, 1, 55, 0
3, 35220, Note_on_c, 1, 56, 120
3, 35246, Note_on_c, 1, 56, 0
3, 35250, Note_on_c, 1, 55, 120
3, 35276, Note_on_c, 1, 55, 0
3, 35310, Note_on_c, 1, 53, 120
3, 35336, Note_on_c, 1, 53, 0
3, 35340, Note_on_c, 1, 55, 120
3, 35366, Note_on_c, 1, 55, 0
3, 35370, Note_on_c, 1, 53, 120
3, 35396, Note_on_c, 1, 53, 0
3, 35400, Note_on_c, 1, 51, 120
3, 35452, Note_on_c, 1, 51, 0
3, 35460, Note_on_c, 1, 67, 120
3, 35512, Note_on_c, 1, 67, 0
3, 35520, Note_on_c, 1, 60, 120
3, 35692, Note_on_c, 1, 60, 0
3, 35700, Note_on_c, 1, 58, 120
3, 35726, Note_on_c, 1, 58, 0
3, 35730, Note_on_c, 1, 60, 120
3, 35756, Note_on_c, 1, 60, 0
3, 35760, Note_on_c, 1, 62, 120
3, 35786, Note_on_c, 1, 62, 0
3, 35790, Note_on_c, 1, 64, 120
3, 35816, Note_on_c, 1, 64, 0
3, 35820, Note_on_c, 1, 65, 120
3, 35846, Note_on_c, 1, 65, 0
3, 35850, Note_on_c, 1, 67, 120
3, 35876, Note_on_c, 1, 67, 0
3, 35880, Note_on_c, 1, 68, 120
3, 35932, Note_on_c, 1, 68, 0
3, 35940, Note_on_c, 1, 53, 120
3, 35992, Note_on_c, 1, 53, 0
3, 36000, Note_on_c, 1, 70, 120
3, 36052, Note_on_c, 1, 70, 0
3, 36060, Note_on_c, 1, 55, 120
3, 36112, Note_on_c, 1, 55, 0
3, 36120, Note_on_c, 1, 72, 120
3, 36146, Note_on_c, 1, 72, 0
3, 36150, Note_on_c, 1, 73, 120
3, 36176, Note_on_c, 1, 73, 0
3, 36180, Note_on_c, 1, 72, 120
3, 36206, Note_on_c, 1, 72, 0
3, 36210, Note_on_c, 1, 70, 120
3, 36236, Note_on_c, 1, 70, 0
3, 36240, Note_on_c, 1, 68, 120
3, 36266, Note_on_c, 1, 68, 0
3, 36270, Note_on_c, 1, 67, 120
3, 36296, Note_on_c, 1, 67, 0
3, 36300, Note_on_c, 1, 65, 120
3, 36326, Note_on_c, 1, 65, 0
3, 36330, Note_on_c, 1, 63, 120
3, 36356, Note_on_c, 1, 63, 0
3, 36360, Note_on_c, 1, 62, 120
3, 36386, Note_on_c, 1, 62, 0
3, 36390, Note_on_c, 1, 60, 120
3, 36416, Note_on_c, 1, 60, 0
3, 36420, Note_on_c, 1, 62, 120
3, 36446, Note_on_c, 1, 62, 0
3, 36450, Note_on_c, 1, 63, 120
3, 36476, Note_on_c, 1, 63, 0
3, 36480, Note_on_c, 1, 65, 120
3, 36506, Note_on_c, 1, 65, 0
3, 36510, Note_on_c, 1, 67, 120
3, 36536, Note_on_c, 1, 67, 0
3, 36540, Note_on_c, 1, 68, 120
3, 36626, Note_on_c, 1, 68, 0
3, 36630, Note_on_c, 1, 72, 120
3, 36656, Note_on_c, 1, 72, 0
3, 36660, Note_on_c, 1, 70, 120
3, 36686, Note_on_c, 1, 70, 0
3, 36690, Note_on_c, 1, 68, 120
3, 36716, Note_on_c, 1, 68, 0
3, 36720, Note_on_c, 1, 67, 120
3, 36746, Note_on_c, 1, 67, 0
3, 36750, Note_on_c, 1, 65, 120
3, 36776, Note_on_c, 1, 65, 0
3, 36780, Note_on_c, 1, 63, 120
3, 36806, Note_on_c, 1, 63, 0
3, 36810, Note_on_c, 1, 62, 120
3, 36836, Note_on_c, 1, 62, 0
3, 36840, Note_on_c, 1, 60, 120
3, 36866, Note_on_c, 1, 60, 0
3, 36870, Note_on_c, 1, 59, 120
3, 36896, Note_on_c, 1, 59, 0
3, 36900, Note_on_c, 1, 60, 120
3, 36926, Note_on_c, 1, 60, 0
3, 36930, Note_on_c, 1, 62, 120
3, 36956, Note_on_c, 1, 62, 0
3, 36960, Note_on_c, 1, 63, 120
3, 36986, Note_on_c, 1, 63, 0
3, 36990, Note_on_c, 1, 65, 120
3, 37016, Note_on_c, 1, 65, 0
3, 37020, Note_on_c, 1, 67, 120
3, 37106, Note_on_c, 1, 67, 0
3, 37110, Note_on_c, 1, 70, 120
3, 37136, Note_on_c, 1, 70, 0
3, 37140, Note_on_c, 1, 68, 120
3, 37166, Note_on_c, 1, 68, 0
3, 37170, Note_on_c, 1, 67, 120
3, 37196, Note_on_c, 1, 67, 0
3, 37200, Note_on_c, 1, 65, 120
3, 37226, Note_on_c, 1, 65, 0
3, 37230, Note_on_c, 1, 63, 120
3, 37256, Note_on_c, 1, 63, 0
3, 37260, Note_on_c, 1, 62, 120
3, 37286, Note_on_c, 1, 62, 0
3, 37290, Note_on_c, 1, 60, 120
3, 37316, Note_on_c, 1, 60, 0
3, 37320, Note_on_c, 1, 59, 120
3, 37372, Note_on_c, 1, 59, 0
3, 37740, Note_on_c, 1, 74, 120
3, 37792, Note_on_c, 1, 74, 0
3, 37800, Note_on_c, 1, 67, 120
3, 37905, Note_on_c, 1, 67, 0
3, 37920, Note_on_c, 1, 65, 120
3, 38025, Note_on_c, 1, 65, 0
3, 38040, Note_on_c, 1, 63, 120
3, 38145, Note_on_c, 1, 63, 0
3, 38160, Note_on_c, 1, 62, 120
3, 38265, Note_on_c, 1, 62, 0
3, 38280, Note_on_c, 1, 63, 120
3, 38332, Note_on_c, 1, 63, 0
3, 38340, Note_on_c, 1, 75, 120
3, 38392, Note_on_c, 1, 75, 0
3, 38400, Note_on_c, 1, 71, 120
3, 38452, Note_on_c, 1, 71, 0
3, 38460, Note_on_c, 1, 74, 120
3, 38685, Note_on_c, 1, 74, 0
3, 38700, Note_on_c, 1, 72, 120
3, 38726, Note_on_c, 1, 72, 0
3, 38730, Note_on_c, 1, 70, 120
3, 38756, Note_on_c, 1, 70, 0
3, 38760, Note_on_c, 1, 69, 120
3, 38925, Note_on_c, 1, 69, 0
3, 38940, Note_on_c, 1, 72, 120
3, 39165, Note_on_c, 1, 72, 0
3, 39180, Note_on_c, 1, 70, 120
3, 39206, Note_on_c, 1, 70, 0
3, 39210, Note_on_c, 1, 68, 120
3, 39236, Note_on_c, 1, 68, 0
3, 39240, Note_on_c, 1, 67, 120
3, 39345, Note_on_c, 1, 67, 0
3, 39540, Note_on_c, 1, 70, 120
3, 39592, Note_on_c, 1, 70, 0
3, 39600, Note_on_c, 1, 69, 120
3, 39652, Note_on_c, 1, 69, 0
3, 39660, Note_on_c, 1, 67, 120
3, 39712, Note_on_c, 1, 67, 0
3, 39720, Note_on_c, 1, 66, 120
3, 39772, Note_on_c, 1, 66, 0
3, 39780, Note_on_c, 1, 69, 120
3, 39832, Note_on_c, 1, 69, 0
3, 39840, Note_on_c, 1, 62, 120
3, 40012, Note_on_c, 1, 62, 0
3, 40020, Note_on_c, 1, 60, 120
3, 40046, Note_on_c, 1, 60, 0
3, 40050, Note_on_c, 1, 62, 120
3, 40076, Note_on_c, 1, 62, 0
3, 40080, Note_on_c, 1, 64, 120
3, 40106, Note_on_c, 1, 64, 0
3, 40110, Note_on_c, 1, 66, 120
3, 40136, Note_on_c, 1, 66, 0
3, 40140, Note_on_c, 1, 67, 120
3, 40166, Note_on_c, 1, 67, 0
3, 40170, Note_on_c, 1, 69, 120
3, 40196, Note_on_c, 1, 69, 0
3, 40200, Note_on_c, 1, 70, 120
3, 40252, Note_on_c, 1, 70, 0
3, 40260, Note_on_c, 1, 55, 120
3, 40312, Note_on_c, 1, 55, 0
3, 40320, Note_on_c, 1, 72, 120
3, 40372, Note_on_c, 1, 72, 0
3, 40380, Note_on_c, 1, 57, 120
3, 40432, Note_on_c, 1, 57, 0
3, 40440, Note_on_c, 1, 74, 120
3, 40605, Note_on_c, 1, 74, 0
3, 40620, Note_on_c, 1, 72, 120
3, 40672, Note_on_c, 1, 72, 0
3, 40680, Note_on_c, 1, 66, 120
3, 40732, Note_on_c, 1, 66, 0
3, 40740, Note_on_c, 1, 70, 120
3, 40845, Note_on_c, 1, 70, 0
3, 40860, Note_on_c, 1, 69, 120
3, 40972, Note_on_c, 1, 69, 0
3, 40980, Note_on_c, 1, 66, 120
3, 41032, Note_on_c, 1, 66, 0
3, 41040, Note_on_c, 1, 67, 120
3, 41092, Note_on_c, 1, 67, 0
3, 41100, Note_on_c, 1, 69, 120
3, 41152, Note_on_c, 1, 69, 0
3, 41160, Note_on_c, 1, 62, 120
3, 41212, Note_on_c, 1, 62, 0
3, 41310, Note_on_c, 1, 75, 120
3, 41336, Note_on_c, 1, 75, 0
3, 41340, Note_on_c, 1, 74, 120
3, 41366, Note_on_c, 1, 74, 0
3, 41370, Note_on_c, 1, 72, 120
3, 41396, Note_on_c, 1, 72, 0
3, 41400, Note_on_c, 1, 71, 120
3, 41452, Note_on_c, 1, 71, 0
3, 41460, Note_on_c, 1, 74, 120
3, 41512, Note_on_c, 1, 74, 0
3, 41520, Note_on_c, 1, 67, 120
3, 41692, Note_on_c, 1, 67, 0
3, 41700, Note_on_c, 1, 65, 120
3, 41726, Note_on_c, 1, 65, 0
3, 41730, Note_on_c, 1, 67, 120
3, 41756, Note_on_c, 1, 67, 0
3, 41760, Note_on_c, 1, 69, 120
3, 41786, Note_on_c, 1, 69, 0
3, 41790, Note_on_c, 1, 71, 120
3, 41816, Note_on_c, 1, 71, 0
3, 41820, Note_on_c, 1, 72, 120
3, 41846, Note_on_c, 1, 72, 0
3, 41850, Note_on_c, 1, 74, 120
3, 41876, Note_on_c, 1, 74, 0
3, 41880, Note_on_c, 1, 75, 120
3, 41906, Note_on_c, 1, 75, 0
3, 41910, Note_on_c, 1, 59, 120
3, 41936, Note_on_c, 1, 59, 0
3, 41940, Note_on_c, 1, 60, 120
3, 41966, Note_on_c, 1, 60, 0
3, 41970, Note_on_c, 1, 62, 120
3, 41996, Note_on_c, 1, 62, 0
3, 42000, Note_on_c, 1, 63, 120
3, 42026, Note_on_c, 1, 63, 0
3, 42030, Note_on_c, 1, 65, 120
3, 42056, Note_on_c, 1, 65, 0
3, 42060, Note_on_c, 1, 67, 120
3, 42086, Note_on_c, 1, 67, 0
3, 42090, Note_on_c, 1, 68, 120
3, 42116, Note_on_c, 1, 68, 0
3, 42120, Note_on_c, 1, 70, 120
3, 42146, Note_on_c, 1, 70, 0
3, 42150, Note_on_c, 1, 68, 120
3, 42176, Note_on_c, 1, 68, 0
3, 42180, Note_on_c, 1, 67, 120
3, 42206, Note_on_c, 1, 67, 0
3, 42210, Note_on_c, 1, 68, 120
3, 42236, Note_on_c, 1, 68, 0
3, 42240, Note_on_c, 1, 70, 120
3, 42266, Note_on_c, 1, 70, 0
3, 42270, Note_on_c, 1, 72, 120
3, 42296, Note_on_c, 1, 72, 0
3, 42300, Note_on_c, 1, 74, 120
3, 42326, Note_on_c, 1, 74, 0
3, 42330, Note_on_c, 1, 76, 120
3, 42356, Note_on_c, 1, 76, 0
3, 42360, Note_on_c, 1, 77, 120
3, 42412, Note_on_c, 1, 77, 0
3, 42420, Note_on_c, 1, 76, 120
3, 42446, Note_on_c, 1, 76, 0
3, 42450, Note_on_c, 1, 77, 120
3, 42652, Note_on_c, 1, 77, 0
3, 42660, Note_on_c, 1, 76, 120
3, 42686, Note_on_c, 1, 76, 0
3, 42690, Note_on_c, 1, 77, 120
3, 42892, Note_on_c, 1, 77, 0
3, 42900, Note_on_c, 1, 74, 120
3, 42926, Note_on_c, 1, 74, 0
3, 42930, Note_on_c, 1, 75, 120
3, 43132, Note_on_c, 1, 75, 0
3, 43140, Note_on_c, 1, 74, 120
3, 43166, Note_on_c, 1, 74, 0
3, 43170, Note_on_c, 1, 75, 120
3, 43372, Note_on_c, 1, 75, 0
3, 43380, Note_on_c, 1, 72, 120
3, 43406, Note_on_c, 1, 72, 0
3, 43410, Note_on_c, 1, 74, 120
3, 43612, Note_on_c, 1, 74, 0
3, 43620, Note_on_c, 1, 72, 120
3, 43646, Note_on_c, 1, 72, 0
3, 43650, Note_on_c, 1, 74, 120
3, 43785, Note_on_c, 1, 74, 0
3, 43800, Note_on_c, 1, 72, 120
3, 43852, Note_on_c, 1, 72, 0
3, 43860, Note_on_c, 1, 70, 120
3, 43912, Note_on_c, 1, 70, 0
3, 43920, Note_on_c, 1, 68, 120
3, 43972, Note_on_c, 1, 68, 0
3, 43980, Note_on_c, 1, 67, 120
3, 44032, Note_on_c, 1, 67, 0
3, 44040, Note_on_c, 1, 65, 120
3, 44145, Note_on_c, 1, 65, 0
3, 44190, Note_on_c, 1, 72, 120
3, 44216, Note_on_c, 1, 72, 0
3, 44220, Note_on_c, 1, 71, 120
3, 44246, Note_on_c, 1, 71, 0
3, 44250, Note_on_c, 1, 74, 120
3, 44276, Note_on_c, 1, 74, 0
3, 44280, Note_on_c, 1, 67, 120
3, 44385, Note_on_c, 1, 67, 0
3, 44460, Note_on_c, 1, 75, 120
3, 44512, Note_on_c, 1, 75, 0
3, 44520, Note_on_c, 1, 72, 120
3, 44625, Note_on_c, 1, 72, 0
3, 44820, Note_on_c, 1, 62, 120
3, 44872, Note_on_c, 1, 62, 0
3, 44880, Note_on_c, 1, 67, 120
3, 45052, Note_on_c, 1, 67, 0
3, 45060, Note_on_c, 1, 68, 120
3, 45086, Note_on_c, 1, 68, 0
3, 45090, Note_on_c, 1, 67, 120
3, 45116, Note_on_c, 1, 67, 0
3, 45120, Note_on_c, 1, 65, 120
3, 45146, Note_on_c, 1, 65, 0
3, 45150, Note_on_c, 1, 63, 120
3, 45176, Note_on_c, 1, 63, 0
3, 45180, Note_on_c, 1, 62, 120
3, 45206, Note_on_c, 1, 62, 0
3, 45210, Note_on_c, 1, 60, 120
3, 45236, Note_on_c, 1, 60, 0
3, 45240, Note_on_c, 1, 59, 120
3, 45345, Note_on_c, 1, 59, 0
3, 45420, Note_on_c, 1, 74, 120
3, 45472, Note_on_c, 1, 74, 0
3, 45480, Note_on_c, 1, 67, 120
3, 45532, Note_on_c, 1, 67, 0
3, 45540, Note_on_c, 1, 71, 120
3, 45592, Note_on_c, 1, 71, 0
3, 45600, Note_on_c, 1, 72, 120
3, 45652, Note_on_c, 1, 72, 0
3, 45660, Note_on_c, 1, 68, 120
3, 45660, Note_on_c, 1, 74, 120
3, 45712, Note_on_c, 1, 68, 0
3, 45720, Note_on_c, 1, 67, 120
3, 45772, Note_on_c, 1, 74, 0
3, 45780, Note_on_c, 1, 72, 120
3, 45832, Note_on_c, 1, 67, 0
3, 45840, Note_on_c, 1, 65, 120
3, 45892, Note_on_c, 1, 72, 0
3, 45900, Note_on_c, 1, 71, 120
3, 45952, Note_on_c, 1, 71, 0
3, 45952, Note_on_c, 1, 65, 0
3, 45960, Note_on_c, 1, 63, 120
3, 45960, Note_on_c, 1, 67, 120
3, 46185, Note_on_c, 1, 67, 0
3, 46185, Note_on_c, 1, 63, 0
3, 46185, End_track
4, 0, Start_track
4, 0, MIDI_port, 0
4, 0, Program_c, 2, 38
4, 0, Control_c, 2, 7, 85
4, 0, Control_c, 2, 10, 64
4, 120, Control_c, 2, 10, 64
4, 120, Control_c, 2, 7, 110
4, 120, Program_c, 2, 6
4, 120, Note_on_c, 2, 48, 120
4, 225, Note_on_c, 2, 48, 0
4, 300, Note_on_c, 2, 48, 120
4, 352, Note_on_c, 2, 48, 0
4, 360, Note_on_c, 2, 50, 120
4, 465, Note_on_c, 2, 50, 0
4, 660, Note_on_c, 2, 51, 120
4, 712, Note_on_c, 2, 51, 0
4, 720, Note_on_c, 2, 53, 120
4, 772, Note_on_c, 2, 53, 0
4, 780, Note_on_c, 2, 55, 120
4, 832, Note_on_c, 2, 55, 0
4, 840, Note_on_c, 2, 48, 120
4, 892, Note_on_c, 2, 48, 0
4, 900, Note_on_c, 2, 60, 120
4, 952, Note_on_c, 2, 60, 0
4, 960, Note_on_c, 2, 58, 120
4, 1012, Note_on_c, 2, 58, 0
4, 1020, Note_on_c, 2, 57, 120
4, 1072, Note_on_c, 2, 57, 0
4, 1080, Note_on_c, 2, 55, 120
4, 1185, Note_on_c, 2, 55, 0
4, 1260, Note_on_c, 2, 55, 120
4, 1312, Note_on_c, 2, 55, 0
4, 1320, Note_on_c, 2, 57, 120
4, 1425, Note_on_c, 2, 57, 0
4, 1620, Note_on_c, 2, 46, 120
4, 1672, Note_on_c, 2, 46, 0
4, 1680, Note_on_c, 2, 48, 120
4, 1732, Note_on_c, 2, 48, 0
4, 1740, Note_on_c, 2, 50, 120
4, 1792, Note_on_c, 2, 50, 0
4, 1800, Note_on_c, 2, 43, 120
4, 1852, Note_on_c, 2, 43, 0
4, 1860, Note_on_c, 2, 50, 120
4, 1912, Note_on_c, 2, 50, 0
4, 1920, Note_on_c, 2, 55, 120
4, 2092, Note_on_c, 2, 55, 0
4, 2100, Note_on_c, 2, 57, 120
4, 2126, Note_on_c, 2, 57, 0
4, 2130, Note_on_c, 2, 55, 120
4, 2156, Note_on_c, 2, 55, 0
4, 2160, Note_on_c, 2, 54, 120
4, 2186, Note_on_c, 2, 54, 0
4, 2190, Note_on_c, 2, 52, 120
4, 2216, Note_on_c, 2, 52, 0
4, 2220, Note_on_c, 2, 50, 120
4, 2246, Note_on_c, 2, 50, 0
4, 2250, Note_on_c, 2, 48, 120
4, 2276, Note_on_c, 2, 48, 0
4, 2280, Note_on_c, 2, 46, 120
4, 2332, Note_on_c, 2, 46, 0
4, 2340, Note_on_c, 2, 62, 120
4, 2392, Note_on_c, 2, 62, 0
4, 2400, Note_on_c, 2, 45, 120
4, 2452, Note_on_c, 2, 45, 0
4, 2460, Note_on_c, 2, 60, 120
4, 2512, Note_on_c, 2, 60, 0
4, 2520, Note_on_c, 2, 43, 120
4, 2572, Note_on_c, 2, 43, 0
4, 2580, Note_on_c, 2, 58, 120
4, 2632, Note_on_c, 2, 58, 0
4, 2640, Note_on_c, 2, 41, 120
4, 2692, Note_on_c, 2, 41, 0
4, 2700, Note_on_c, 2, 56, 120
4, 2752, Note_on_c, 2, 56, 0
4, 2760, Note_on_c, 2, 40, 120
4, 2812, Note_on_c, 2, 40, 0
4, 2820, Note_on_c, 2, 55, 120
4, 2872, Note_on_c, 2, 55, 0
4, 2880, Note_on_c, 2, 36, 120
4, 2932, Note_on_c, 2, 36, 0
4, 2940, Note_on_c, 2, 52, 120
4, 2992, Note_on_c, 2, 52, 0
4, 3000, Note_on_c, 2, 41, 120
4, 3052, Note_on_c, 2, 41, 0
4, 3060, Note_on_c, 2, 56, 120
4, 3112, Note_on_c, 2, 56, 0
4, 3120, Note_on_c, 2, 39, 120
4, 3172, Note_on_c, 2, 39, 0
4, 3180, Note_on_c, 2, 55, 120
4, 3232, Note_on_c, 2, 55, 0
4, 3240, Note_on_c, 2, 38, 120
4, 3292, Note_on_c, 2, 38, 0
4, 3300, Note_on_c, 2, 53, 120
4, 3352, Note_on_c, 2, 53, 0
4, 3360, Note_on_c, 2, 34, 120
4, 3412, Note_on_c, 2, 34, 0
4, 3420, Note_on_c, 2, 50, 120
4, 3472, Note_on_c, 2, 50, 0
4, 3480, Note_on_c, 2, 39, 120
4, 3532, Note_on_c, 2, 39, 0
4, 3540, Note_on_c, 2, 51, 120
4, 3592, Note_on_c, 2, 51, 0
4, 3600, Note_on_c, 2, 53, 120
4, 3652, Note_on_c, 2, 53, 0
4, 3660, Note_on_c, 2, 55, 120
4, 3712, Note_on_c, 2, 55, 0
4, 3720, Note_on_c, 2, 56, 120
4, 3772, Note_on_c, 2, 56, 0
4, 4020, Note_on_c, 2, 50, 120
4, 4072, Note_on_c, 2, 50, 0
4, 4080, Note_on_c, 2, 51, 120
4, 4132, Note_on_c, 2, 51, 0
4, 4140, Note_on_c, 2, 53, 120
4, 4192, Note_on_c, 2, 53, 0
4, 4200, Note_on_c, 2, 55, 120
4, 4252, Note_on_c, 2, 55, 0
4, 4500, Note_on_c, 2, 55, 120
4, 4552, Note_on_c, 2, 55, 0
4, 4560, Note_on_c, 2, 60, 120
4, 4732, Note_on_c, 2, 60, 0
4, 4740, Note_on_c, 2, 62, 120
4, 4766, Note_on_c, 2, 62, 0
4, 4770, Note_on_c, 2, 60, 120
4, 4796, Note_on_c, 2, 60, 0
4, 4800, Note_on_c, 2, 59, 120
4, 4826, Note_on_c, 2, 59, 0
4, 4830, Note_on_c, 2, 57, 120
4, 4856, Note_on_c, 2, 57, 0
4, 4860, Note_on_c, 2, 55, 120
4, 4886, Note_on_c, 2, 55, 0
4, 4890, Note_on_c, 2, 53, 120
4, 4916, Note_on_c, 2, 53, 0
4, 4920, Note_on_c, 2, 51, 120
4, 4972, Note_on_c, 2, 51, 0
4, 4980, Note_on_c, 2, 67, 120
4, 5032, Note_on_c, 2, 67, 0
4, 5040, Note_on_c, 2, 50, 120
4, 5092, Note_on_c, 2, 50, 0
4, 5100, Note_on_c, 2, 65, 120
4, 5152, Note_on_c, 2, 65, 0
4, 5160, Note_on_c, 2, 48, 120
4, 5212, Note_on_c, 2, 48, 0
4, 5220, Note_on_c, 2, 63, 120
4, 5246, Note_on_c, 2, 63, 0
4, 5250, Note_on_c, 2, 62, 120
4, 5276, Note_on_c, 2, 62, 0
4, 5280, Note_on_c, 2, 60, 120
4, 5332, Note_on_c, 2, 60, 0
4, 5340, Note_on_c, 2, 63, 120
4, 5392, Note_on_c, 2, 63, 0
4, 5400, Note_on_c, 2, 57, 120
4, 5452, Note_on_c, 2, 57, 0
4, 5460, Note_on_c, 2, 60, 120
4, 5512, Note_on_c, 2, 60, 0
4, 5520, Note_on_c, 2, 53, 120
4, 5572, Note_on_c, 2, 53, 0
4, 5580, Note_on_c, 2, 57, 120
4, 5632, Note_on_c, 2, 57, 0
4, 5640, Note_on_c, 2, 46, 120
4, 5692, Note_on_c, 2, 46, 0
4, 5700, Note_on_c, 2, 62, 120
4, 5726, Note_on_c, 2, 62, 0
4, 5730, Note_on_c, 2, 60, 120
4, 5756, Note_on_c, 2, 60, 0
4, 5760, Note_on_c, 2, 58, 120
4, 5812, Note_on_c, 2, 58, 0
4, 5820, Note_on_c, 2, 62, 120
4, 5872, Note_on_c, 2, 62, 0
4, 5880, Note_on_c, 2, 55, 120
4, 5932, Note_on_c, 2, 55, 0
4, 5940, Note_on_c, 2, 58, 120
4, 5992, Note_on_c, 2, 58, 0
4, 6000, Note_on_c, 2, 51, 120
4, 6052, Note_on_c, 2, 51, 0
4, 6060, Note_on_c, 2, 55, 120
4, 6112, Note_on_c, 2, 55, 0
4, 6120, Note_on_c, 2, 45, 120
4, 6172, Note_on_c, 2, 45, 0
4, 6180, Note_on_c, 2, 60, 120
4, 6206, Note_on_c, 2, 60, 0
4, 6210, Note_on_c, 2, 58, 120
4, 6236, Note_on_c, 2, 58, 0
4, 6240, Note_on_c, 2, 57, 120
4, 6292, Note_on_c, 2, 57, 0
4, 6300, Note_on_c, 2, 60, 120
4, 6352, Note_on_c, 2, 60, 0
4, 6360, Note_on_c, 2, 54, 120
4, 6412, Note_on_c, 2, 54, 0
4, 6420, Note_on_c, 2, 57, 120
4, 6472, Note_on_c, 2, 57, 0
4, 6480, Note_on_c, 2, 50, 120
4, 6532, Note_on_c, 2, 50, 0
4, 6540, Note_on_c, 2, 54, 120
4, 6592, Note_on_c, 2, 54, 0
4, 6600, Note_on_c, 2, 43, 120
4, 6652, Note_on_c, 2, 43, 0
4, 6720, Note_on_c, 2, 46, 120
4, 6772, Note_on_c, 2, 46, 0
4, 6840, Note_on_c, 2, 45, 120
4, 6892, Note_on_c, 2, 45, 0
4, 6960, Note_on_c, 2, 48, 120
4, 7012, Note_on_c, 2, 48, 0
4, 7140, Note_on_c, 2, 46, 120
4, 7192, Note_on_c, 2, 46, 0
4, 7200, Note_on_c, 2, 48, 120
4, 7252, Note_on_c, 2, 48, 0
4, 7260, Note_on_c, 2, 50, 120
4, 7312, Note_on_c, 2, 50, 0
4, 7320, Note_on_c, 2, 43, 120
4, 7372, Note_on_c, 2, 43, 0
4, 7440, Note_on_c, 2, 46, 120
4, 7492, Note_on_c, 2, 46, 0
4, 7680, Note_on_c, 2, 48, 120
4, 7732, Note_on_c, 2, 48, 0
4, 7800, Note_on_c, 2, 53, 120
4, 7852, Note_on_c, 2, 53, 0
4, 7920, Note_on_c, 2, 44, 120
4, 7972, Note_on_c, 2, 44, 0
4, 8160, Note_on_c, 2, 46, 120
4, 8212, Note_on_c, 2, 46, 0
4, 8310, Note_on_c, 2, 53, 120
4, 8336, Note_on_c, 2, 53, 0
4, 8340, Note_on_c, 2, 51, 120
4, 8366, Note_on_c, 2, 51, 0
4, 8370, Note_on_c, 2, 50, 120
4, 8396, Note_on_c, 2, 50, 0
4, 8400, Note_on_c, 2, 48, 120
4, 8426, Note_on_c, 2, 48, 0
4, 8430, Note_on_c, 2, 46, 120
4, 8456, Note_on_c, 2, 46, 0
4, 8460, Note_on_c, 2, 44, 120
4, 8486, Note_on_c, 2, 44, 0
4, 8490, Note_on_c, 2, 43, 120
4, 8516, Note_on_c, 2, 43, 0
4, 8520, Note_on_c, 2, 41, 120
4, 8546, Note_on_c, 2, 41, 0
4, 8550, Note_on_c, 2, 51, 120
4, 8576, Note_on_c, 2, 51, 0
4, 8580, Note_on_c, 2, 50, 120
4, 8606, Note_on_c, 2, 50, 0
4, 8610, Note_on_c, 2, 48, 120
4, 8636, Note_on_c, 2, 48, 0
4, 8640, Note_on_c, 2, 46, 120
4, 8666, Note_on_c, 2, 46, 0
4, 8670, Note_on_c, 2, 44, 120
4, 8696, Note_on_c, 2, 44, 0
4, 8700, Note_on_c, 2, 43, 120
4, 8726, Note_on_c, 2, 43, 0
4, 8730, Note_on_c, 2, 41, 120
4, 8756, Note_on_c, 2, 41, 0
4, 8760, Note_on_c, 2, 39, 120
4, 8786, Note_on_c, 2, 39, 0
4, 8790, Note_on_c, 2, 50, 120
4, 8816, Note_on_c, 2, 50, 0
4, 8820, Note_on_c, 2, 48, 120
4, 8846, Note_on_c, 2, 48, 0
4, 8850, Note_on_c, 2, 46, 120
4, 8876, Note_on_c, 2, 46, 0
4, 8880, Note_on_c, 2, 44, 120
4, 8906, Note_on_c, 2, 44, 0
4, 8910, Note_on_c, 2, 43, 120
4, 8936, Note_on_c, 2, 43, 0
4, 8940, Note_on_c, 2, 41, 120
4, 8966, Note_on_c, 2, 41, 0
4, 8970, Note_on_c, 2, 39, 120
4, 8996, Note_on_c, 2, 39, 0
4, 9000, Note_on_c, 2, 38, 120
4, 9026, Note_on_c, 2, 38, 0
4, 9030, Note_on_c, 2, 48, 120
4, 9056, Note_on_c, 2, 48, 0
4, 9060, Note_on_c, 2, 46, 120
4, 9086, Note_on_c, 2, 46, 0
4, 9090, Note_on_c, 2, 44, 120
4, 9116, Note_on_c, 2, 44, 0
4, 9120, Note_on_c, 2, 43, 120
4, 9146, Note_on_c, 2, 43, 0
4, 9150, Note_on_c, 2, 41, 120
4, 9176, Note_on_c, 2, 41, 0
4, 9180, Note_on_c, 2, 39, 120
4, 9206, Note_on_c, 2, 39, 0
4, 9210, Note_on_c, 2, 38, 120
4, 9236, Note_on_c, 2, 38, 0
4, 9240, Note_on_c, 2, 36, 120
4, 9292, Note_on_c, 2, 36, 0
4, 9300, Note_on_c, 2, 48, 120
4, 9405, Note_on_c, 2, 48, 0
4, 9420, Note_on_c, 2, 47, 120
4, 9472, Note_on_c, 2, 47, 0
4, 9480, Note_on_c, 2, 48, 120
4, 9585, Note_on_c, 2, 48, 0
4, 9630, Note_on_c, 2, 48, 120
4, 9656, Note_on_c, 2, 48, 0
4, 9660, Note_on_c, 2, 50, 120
4, 9686, Note_on_c, 2, 50, 0
4, 9690, Note_on_c, 2, 51, 120
4, 9716, Note_on_c, 2, 51, 0
4, 9720, Note_on_c, 2, 53, 120
4, 9772, Note_on_c, 2, 53, 0
4, 9960, Note_on_c, 2, 46, 120
4, 10065, Note_on_c, 2, 46, 0
4, 10110, Note_on_c, 2, 46, 120
4, 10136, Note_on_c, 2, 46, 0
4, 10140, Note_on_c, 2, 48, 120
4, 10166, Note_on_c, 2, 48, 0
4, 10170, Note_on_c, 2, 50, 120
4, 10196, Note_on_c, 2, 50, 0
4, 10200, Note_on_c, 2, 51, 120
4, 10252, Note_on_c, 2, 51, 0
4, 10500, Note_on_c, 2, 44, 120
4, 10552, Note_on_c, 2, 44, 0
4, 10560, Note_on_c, 2, 46, 120
4, 10612, Note_on_c, 2, 46, 0
4, 10620, Note_on_c, 2, 48, 120
4, 10672, Note_on_c, 2, 48, 0
4, 10680, Note_on_c, 2, 41, 120
4, 10732, Note_on_c, 2, 41, 0
4, 10740, Note_on_c, 2, 48, 120
4, 10792, Note_on_c, 2, 48, 0
4, 10800, Note_on_c, 2, 53, 120
4, 10946, Note_on_c, 2, 53, 0
4, 10950, Note_on_c, 2, 51, 120
4, 10976, Note_on_c, 2, 51, 0
4, 10980, Note_on_c, 2, 50, 120
4, 11006, Note_on_c, 2, 50, 0
4, 11010, Note_on_c, 2, 53, 120
4, 11036, Note_on_c, 2, 53, 0
4, 11040, Note_on_c, 2, 51, 120
4, 11066, Note_on_c, 2, 51, 0
4, 11070, Note_on_c, 2, 50, 120
4, 11096, Note_on_c, 2, 50, 0
4, 11100, Note_on_c, 2, 48, 120
4, 11126, Note_on_c, 2, 48, 0
4, 11130, Note_on_c, 2, 46, 120
4, 11156, Note_on_c, 2, 46, 0
4, 11160, Note_on_c, 2, 44, 120
4, 11212, Note_on_c, 2, 44, 0
4, 11220, Note_on_c, 2, 43, 120
4, 11272, Note_on_c, 2, 43, 0
4, 11280, Note_on_c, 2, 46, 120
4, 11293, Note_on_c, 2, 46, 0
4, 11295, Note_on_c, 2, 44, 120
4, 11308, Note_on_c, 2, 44, 0
4, 11310, Note_on_c, 2, 46, 120
4, 11323, Note_on_c, 2, 46, 0
4, 11325, Note_on_c, 2, 44, 120
4, 11338, Note_on_c, 2, 44, 0
4, 11340, Note_on_c, 2, 46, 120
4, 11353, Note_on_c, 2, 46, 0
4, 11355, Note_on_c, 2, 44, 120
4, 11368, Note_on_c, 2, 44, 0
4, 11370, Note_on_c, 2, 43, 120
4, 11383, Note_on_c, 2, 43, 0
4, 11385, Note_on_c, 2, 44, 120
4, 11398, Note_on_c, 2, 44, 0
4, 11400, Note_on_c, 2, 43, 120
4, 11625, Note_on_c, 2, 43, 0
4, 11640, Control_c, 2, 7, 100
4, 11640, Program_c, 2, 3
4, 11640, Note_on_c, 2, 48, 120
4, 11745, Note_on_c, 2, 48, 0
4, 11820, Note_on_c, 2, 48, 120
4, 11872, Note_on_c, 2, 48, 0
4, 11880, Note_on_c, 2, 50, 120
4, 11985, Note_on_c, 2, 50, 0
4, 12180, Note_on_c, 2, 51, 120
4, 12232, Note_on_c, 2, 51, 0
4, 12240, Note_on_c, 2, 53, 120
4, 12292, Note_on_c, 2, 53, 0
4, 12300, Note_on_c, 2, 55, 120
4, 12352, Note_on_c, 2, 55, 0
4, 12360, Note_on_c, 2, 48, 120
4, 12412, Note_on_c, 2, 48, 0
4, 12420, Note_on_c, 2, 60, 120
4, 12472, Note_on_c, 2, 60, 0
4, 12480, Note_on_c, 2, 58, 120
4, 12532, Note_on_c, 2, 58, 0
4, 12540, Note_on_c, 2, 57, 120
4, 12592, Note_on_c, 2, 57, 0
4, 12600, Note_on_c, 2, 55, 120
4, 12705, Note_on_c, 2, 55, 0
4, 12780, Note_on_c, 2, 55, 120
4, 12832, Note_on_c, 2, 55, 0
4, 12840, Note_on_c, 2, 57, 120
4, 12945, Note_on_c, 2, 57, 0
4, 13140, Note_on_c, 2, 46, 120
4, 13192, Note_on_c, 2, 46, 0
4, 13200, Note_on_c, 2, 48, 120
4, 13252, Note_on_c, 2, 48, 0
4, 13260, Note_on_c, 2, 50, 120
4, 13312, Note_on_c, 2, 50, 0
4, 13320, Note_on_c, 2, 43, 120
4, 13372, Note_on_c, 2, 43, 0
4, 13380, Note_on_c, 2, 50, 120
4, 13432, Note_on_c, 2, 50, 0
4, 13440, Note_on_c, 2, 55, 120
4, 13612, Note_on_c, 2, 55, 0
4, 13620, Note_on_c, 2, 57, 120
4, 13646, Note_on_c, 2, 57, 0
4, 13650, Note_on_c, 2, 55, 120
4, 13676, Note_on_c, 2, 55, 0
4, 13680, Note_on_c, 2, 54, 120
4, 13706, Note_on_c, 2, 54, 0
4, 13710, Note_on_c, 2, 52, 120
4, 13736, Note_on_c, 2, 52, 0
4, 13740, Note_on_c, 2, 50, 120
4, 13766, Note_on_c, 2, 50, 0
4, 13770, Note_on_c, 2, 48, 120
4, 13796, Note_on_c, 2, 48, 0
4, 13800, Note_on_c, 2, 46, 120
4, 13852, Note_on_c, 2, 46, 0
4, 13860, Note_on_c, 2, 62, 120
4, 13912, Note_on_c, 2, 62, 0
4, 13920, Note_on_c, 2, 45, 120
4, 13972, Note_on_c, 2, 45, 0
4, 13980, Note_on_c, 2, 60, 120
4, 14032, Note_on_c, 2, 60, 0
4, 14040, Note_on_c, 2, 43, 120
4, 14092, Note_on_c, 2, 43, 0
4, 14100, Note_on_c, 2, 58, 120
4, 14152, Note_on_c, 2, 58, 0
4, 14160, Note_on_c, 2, 41, 120
4, 14212, Note_on_c, 2, 41, 0
4, 14220, Note_on_c, 2, 56, 120
4, 14272, Note_on_c, 2, 56, 0
4, 14280, Note_on_c, 2, 40, 120
4, 14332, Note_on_c, 2, 40, 0
4, 14340, Note_on_c, 2, 55, 120
4, 14392, Note_on_c, 2, 55, 0
4, 14400, Note_on_c, 2, 36, 120
4, 14452, Note_on_c, 2, 36, 0
4, 14460, Note_on_c, 2, 52, 120
4, 14512, Note_on_c, 2, 52, 0
4, 14520, Note_on_c, 2, 41, 120
4, 14572, Note_on_c, 2, 41, 0
4, 14580, Note_on_c, 2, 56, 120
4, 14632, Note_on_c, 2, 56, 0
4, 14640, Note_on_c, 2, 39, 120
4, 14692, Note_on_c, 2, 39, 0
4, 14700, Note_on_c, 2, 55, 120
4, 14752, Note_on_c, 2, 55, 0
4, 14760, Note_on_c, 2, 38, 120
4, 14812, Note_on_c, 2, 38, 0
4, 14820, Note_on_c, 2, 53, 120
4, 14872, Note_on_c, 2, 53, 0
4, 14880, Note_on_c, 2, 34, 120
4, 14932, Note_on_c, 2, 34, 0
4, 14940, Note_on_c, 2, 50, 120
4, 14992, Note_on_c, 2, 50, 0
4, 15000, Note_on_c, 2, 39, 120
4, 15052, Note_on_c, 2, 39, 0
4, 15060, Note_on_c, 2, 51, 120
4, 15112, Note_on_c, 2, 51, 0
4, 15120, Note_on_c, 2, 53, 120
4, 15172, Note_on_c, 2, 53, 0
4, 15180, Note_on_c, 2, 55, 120
4, 15232, Note_on_c, 2, 55, 0
4, 15240, Note_on_c, 2, 56, 120
4, 15292, Note_on_c, 2, 56, 0
4, 15540, Note_on_c, 2, 50, 120
4, 15592, Note_on_c, 2, 50, 0
4, 15600, Note_on_c, 2, 51, 120
4, 15652, Note_on_c, 2, 51, 0
4, 15660, Note_on_c, 2, 53, 120
4, 15712, Note_on_c, 2, 53, 0
4, 15720, Note_on_c, 2, 55, 120
4, 15772, Note_on_c, 2, 55, 0
4, 16020, Note_on_c, 2, 55, 120
4, 16072, Note_on_c, 2, 55, 0
4, 16080, Note_on_c, 2, 60, 120
4, 16252, Note_on_c, 2, 60, 0
4, 16260, Note_on_c, 2, 62, 120
4, 16286, Note_on_c, 2, 62, 0
4, 16290, Note_on_c, 2, 60, 120
4, 16316, Note_on_c, 2, 60, 0
4, 16320, Note_on_c, 2, 59, 120
4, 16346, Note_on_c, 2, 59, 0
4, 16350, Note_on_c, 2, 57, 120
4, 16376, Note_on_c, 2, 57, 0
4, 16380, Note_on_c, 2, 55, 120
4, 16406, Note_on_c, 2, 55, 0
4, 16410, Note_on_c, 2, 53, 120
4, 16436, Note_on_c, 2, 53, 0
4, 16440, Note_on_c, 2, 51, 120
4, 16492, Note_on_c, 2, 51, 0
4, 16500, Note_on_c, 2, 67, 120
4, 16552, Note_on_c, 2, 67, 0
4, 16560, Note_on_c, 2, 50, 120
4, 16612, Note_on_c, 2, 50, 0
4, 16620, Note_on_c, 2, 65, 120
4, 16672, Note_on_c, 2, 65, 0
4, 16680, Note_on_c, 2, 48, 120
4, 16732, Note_on_c, 2, 48, 0
4, 16740, Note_on_c, 2, 63, 120
4, 16766, Note_on_c, 2, 63, 0
4, 16770, Note_on_c, 2, 62, 120
4, 16796, Note_on_c, 2, 62, 0
4, 16800, Note_on_c, 2, 60, 120
4, 16852, Note_on_c, 2, 60, 0
4, 16860, Note_on_c, 2, 63, 120
4, 16912, Note_on_c, 2, 63, 0
4, 16920, Note_on_c, 2, 57, 120
4, 16972, Note_on_c, 2, 57, 0
4, 16980, Note_on_c, 2, 60, 120
4, 17032, Note_on_c, 2, 60, 0
4, 17040, Note_on_c, 2, 53, 120
4, 17092, Note_on_c, 2, 53, 0
4, 17100, Note_on_c, 2, 57, 120
4, 17152, Note_on_c, 2, 57, 0
4, 17160, Note_on_c, 2, 46, 120
4, 17212, Note_on_c, 2, 46, 0
4, 17220, Note_on_c, 2, 62, 120
4, 17246, Note_on_c, 2, 62, 0
4, 17250, Note_on_c, 2, 60, 120
4, 17276, Note_on_c, 2, 60, 0
4, 17280, Note_on_c, 2, 58, 120
4, 17332, Note_on_c, 2, 58, 0
4, 17340, Note_on_c, 2, 62, 120
4, 17392, Note_on_c, 2, 62, 0
4, 17400, Note_on_c, 2, 55, 120
4, 17452, Note_on_c, 2, 55, 0
4, 17460, Note_on_c, 2, 58, 120
4, 17512, Note_on_c, 2, 58, 0
4, 17520, Note_on_c, 2, 51, 120
4, 17572, Note_on_c, 2, 51, 0
4, 17580, Note_on_c, 2, 55, 120
4, 17632, Note_on_c, 2, 55, 0
4, 17640, Note_on_c, 2, 45, 120
4, 17692, Note_on_c, 2, 45, 0
4, 17700, Note_on_c, 2, 60, 120
4, 17726, Note_on_c, 2, 60, 0
4, 17730, Note_on_c, 2, 58, 120
4, 17756, Note_on_c, 2, 58, 0
4, 17760, Note_on_c, 2, 57, 120
4, 17812, Note_on_c, 2, 57, 0
4, 17820, Note_on_c, 2, 60, 120
4, 17872, Note_on_c, 2, 60, 0
4, 17880, Note_on_c, 2, 54, 120
4, 17932, Note_on_c, 2, 54, 0
4, 17940, Note_on_c, 2, 57, 120
4, 17992, Note_on_c, 2, 57, 0
4, 18000, Note_on_c, 2, 50, 120
4, 18052, Note_on_c, 2, 50, 0
4, 18060, Note_on_c, 2, 54, 120
4, 18112, Note_on_c, 2, 54, 0
4, 18120, Note_on_c, 2, 43, 120
4, 18172, Note_on_c, 2, 43, 0
4, 18240, Note_on_c, 2, 46, 120
4, 18292, Note_on_c, 2, 46, 0
4, 18360, Note_on_c, 2, 45, 120
4, 18412, Note_on_c, 2, 45, 0
4, 18480, Note_on_c, 2, 48, 120
4, 18532, Note_on_c, 2, 48, 0
4, 18660, Note_on_c, 2, 46, 120
4, 18712, Note_on_c, 2, 46, 0
4, 18720, Note_on_c, 2, 48, 120
4, 18772, Note_on_c, 2, 48, 0
4, 18780, Note_on_c, 2, 50, 120
4, 18832, Note_on_c, 2, 50, 0
4, 18840, Note_on_c, 2, 43, 120
4, 18892, Note_on_c, 2, 43, 0
4, 18960, Note_on_c, 2, 46, 120
4, 19012, Note_on_c, 2, 46, 0
4, 19200, Note_on_c, 2, 48, 120
4, 19252, Note_on_c, 2, 48, 0
4, 19320, Note_on_c, 2, 53, 120
4, 19372, Note_on_c, 2, 53, 0
4, 19440, Note_on_c, 2, 44, 120
4, 19492, Note_on_c, 2, 44, 0
4, 19680, Note_on_c, 2, 46, 120
4, 19732, Note_on_c, 2, 46, 0
4, 19830, Note_on_c, 2, 53, 120
4, 19856, Note_on_c, 2, 53, 0
4, 19860, Note_on_c, 2, 51, 120
4, 19886, Note_on_c, 2, 51, 0
4, 19890, Note_on_c, 2, 50, 120
4, 19916, Note_on_c, 2, 50, 0
4, 19920, Note_on_c, 2, 48, 120
4, 19946, Note_on_c, 2, 48, 0
4, 19950, Note_on_c, 2, 46, 120
4, 19976, Note_on_c, 2, 46, 0
4, 19980, Note_on_c, 2, 44, 120
4, 20006, Note_on_c, 2, 44, 0
4, 20010, Note_on_c, 2, 43, 120
4, 20036, Note_on_c, 2, 43, 0
4, 20040, Note_on_c, 2, 41, 120
4, 20066, Note_on_c, 2, 41, 0
4, 20070, Note_on_c, 2, 51, 120
4, 20096, Note_on_c, 2, 51, 0
4, 20100, Note_on_c, 2, 50, 120
4, 20126, Note_on_c, 2, 50, 0
4, 20130, Note_on_c, 2, 48, 120
4, 20156, Note_on_c, 2, 48, 0
4, 20160, Note_on_c, 2, 46, 120
4, 20186, Note_on_c, 2, 46, 0
4, 20190, Note_on_c, 2, 44, 120
4, 20216, Note_on_c, 2, 44, 0
4, 20220, Note_on_c, 2, 43, 120
4, 20246, Note_on_c, 2, 43, 0
4, 20250, Note_on_c, 2, 41, 120
4, 20276, Note_on_c, 2, 41, 0
4, 20280, Note_on_c, 2, 39, 120
4, 20306, Note_on_c, 2, 39, 0
4, 20310, Note_on_c, 2, 50, 120
4, 20336, Note_on_c, 2, 50, 0
4, 20340, Note_on_c, 2, 48, 120
4, 20366, Note_on_c, 2, 48, 0
4, 20370, Note_on_c, 2, 46, 120
4, 20396, Note_on_c, 2, 46, 0
4, 20400, Note_on_c, 2, 44, 120
4, 20426, Note_on_c, 2, 44, 0
4, 20430, Note_on_c, 2, 43, 120
4, 20456, Note_on_c, 2, 43, 0
4, 20460, Note_on_c, 2, 41, 120
4, 20486, Note_on_c, 2, 41, 0
4, 20490, Note_on_c, 2, 39, 120
4, 20516, Note_on_c, 2, 39, 0
4, 20520, Note_on_c, 2, 38, 120
4, 20546, Note_on_c, 2, 38, 0
4, 20550, Note_on_c, 2, 48, 120
4, 20576, Note_on_c, 2, 48, 0
4, 20580, Note_on_c, 2, 46, 120
4, 20606, Note_on_c, 2, 46, 0
4, 20610, Note_on_c, 2, 44, 120
4, 20636, Note_on_c, 2, 44, 0
4, 20640, Note_on_c, 2, 43, 120
4, 20666, Note_on_c, 2, 43, 0
4, 20670, Note_on_c, 2, 41, 120
4, 20696, Note_on_c, 2, 41, 0
4, 20700, Note_on_c, 2, 39, 120
4, 20726, Note_on_c, 2, 39, 0
4, 20730, Note_on_c, 2, 38, 120
4, 20756, Note_on_c, 2, 38, 0
4, 20760, Note_on_c, 2, 36, 120
4, 20812, Note_on_c, 2, 36, 0
4, 20820, Note_on_c, 2, 48, 120
4, 20925, Note_on_c, 2, 48, 0
4, 20940, Note_on_c, 2, 47, 120
4, 20992, Note_on_c, 2, 47, 0
4, 21000, Note_on_c, 2, 48, 120
4, 21105, Note_on_c, 2, 48, 0
4, 21150, Note_on_c, 2, 48, 120
4, 21176, Note_on_c, 2, 48, 0
4, 21180, Note_on_c, 2, 50, 120
4, 21206, Note_on_c, 2, 50, 0
4, 21210, Note_on_c, 2, 51, 120
4, 21236, Note_on_c, 2, 51, 0
4, 21240, Note_on_c, 2, 53, 120
4, 21292, Note_on_c, 2, 53, 0
4, 21480, Note_on_c, 2, 46, 120
4, 21585, Note_on_c, 2, 46, 0
4, 21630, Note_on_c, 2, 46, 120
4, 21656, Note_on_c, 2, 46, 0
4, 21660, Note_on_c, 2, 48, 120
4, 21686, Note_on_c, 2, 48, 0
4, 21690, Note_on_c, 2, 50, 120
4, 21716, Note_on_c, 2, 50, 0
4, 21720, Note_on_c, 2, 51, 120
4, 21772, Note_on_c, 2, 51, 0
4, 22020, Note_on_c, 2, 44, 120
4, 22072, Note_on_c, 2, 44, 0
4, 22080, Note_on_c, 2, 46, 120
4, 22132, Note_on_c, 2, 46, 0
4, 22140, Note_on_c, 2, 48, 120
4, 22192, Note_on_c, 2, 48, 0
4, 22200, Note_on_c, 2, 41, 120
4, 22252, Note_on_c, 2, 41, 0
4, 22260, Note_on_c, 2, 48, 120
4, 22312, Note_on_c, 2, 48, 0
4, 22320, Note_on_c, 2, 53, 120
4, 22466, Note_on_c, 2, 53, 0
4, 22470, Note_on_c, 2, 51, 120
4, 22496, Note_on_c, 2, 51, 0
4, 22500, Note_on_c, 2, 50, 120
4, 22526, Note_on_c, 2, 50, 0
4, 22530, Note_on_c, 2, 53, 120
4, 22556, Note_on_c, 2, 53, 0
4, 22560, Note_on_c, 2, 51, 120
4, 22586, Note_on_c, 2, 51, 0
4, 22590, Note_on_c, 2, 50, 120
4, 22616, Note_on_c, 2, 50, 0
4, 22620, Note_on_c, 2, 48, 120
4, 22646, Note_on_c, 2, 48, 0
4, 22650, Note_on_c, 2, 46, 120
4, 22676, Note_on_c, 2, 46, 0
4, 22680, Note_on_c, 2, 44, 120
4, 22732, Note_on_c, 2, 44, 0
4, 22740, Note_on_c, 2, 43, 120
4, 22792, Note_on_c, 2, 43, 0
4, 22800, Note_on_c, 2, 46, 120
4, 22813, Note_on_c, 2, 46, 0
4, 22815, Note_on_c, 2, 44, 120
4, 22828, Note_on_c, 2, 44, 0
4, 22830, Note_on_c, 2, 46, 120
4, 22843, Note_on_c, 2, 46, 0
4, 22845, Note_on_c, 2, 44, 120
4, 22858, Note_on_c, 2, 44, 0
4, 22860, Note_on_c, 2, 46, 120
4, 22873, Note_on_c, 2, 46, 0
4, 22875, Note_on_c, 2, 44, 120
4, 22888, Note_on_c, 2, 44, 0
4, 22890, Note_on_c, 2, 43, 120
4, 22903, Note_on_c, 2, 43, 0
4, 22905, Note_on_c, 2, 44, 120
4, 22918, Note_on_c, 2, 44, 0
4, 22920, Note_on_c, 2, 43, 120
4, 23145, Note_on_c, 2, 43, 0
4, 23160, Control_c, 2, 7, 100
4, 23160, Program_c, 2, 6
4, 23160, Note_on_c, 2, 55, 120
4, 23265, Note_on_c, 2, 55, 0
4, 23340, Note_on_c, 2, 53, 120
4, 23392, Note_on_c, 2, 53, 0
4, 23400, Note_on_c, 2, 51, 120
4, 23505, Note_on_c, 2, 51, 0
4, 23520, Note_on_c, 2, 50, 120
4, 23625, Note_on_c, 2, 50, 0
4, 23640, Note_on_c, 2, 48, 120
4, 23692, Note_on_c, 2, 48, 0
4, 23760, Note_on_c, 2, 50, 120
4, 23812, Note_on_c, 2, 50, 0
4, 23880, Note_on_c, 2, 51, 120
4, 23985, Note_on_c, 2, 51, 0
4, 24060, Note_on_c, 2, 52, 120
4, 24112, Note_on_c, 2, 52, 0
4, 24120, Note_on_c, 2, 53, 120
4, 24225, Note_on_c, 2, 53, 0
4, 24240, Note_on_c, 2, 58, 120
4, 24292, Note_on_c, 2, 58, 0
4, 24300, Note_on_c, 2, 60, 120
4, 24352, Note_on_c, 2, 60, 0
4, 24360, Note_on_c, 2, 65, 120
4, 24412, Note_on_c, 2, 65, 0
4, 24480, Note_on_c, 2, 67, 120
4, 24532, Note_on_c, 2, 67, 0
4, 24600, Note_on_c, 2, 68, 120
4, 24652, Note_on_c, 2, 68, 0
4, 24660, Note_on_c, 2, 53, 120
4, 24712, Note_on_c, 2, 53, 0
4, 24720, Note_on_c, 2, 55, 120
4, 24772, Note_on_c, 2, 55, 0
4, 24780, Note_on_c, 2, 56, 120
4, 24832, Note_on_c, 2, 56, 0
4, 24840, Note_on_c, 2, 58, 120
4, 24892, Note_on_c, 2, 58, 0
4, 25140, Note_on_c, 2, 51, 120
4, 25192, Note_on_c, 2, 51, 0
4, 25200, Note_on_c, 2, 53, 120
4, 25252, Note_on_c, 2, 53, 0
4, 25260, Note_on_c, 2, 55, 120
4, 25312, Note_on_c, 2, 55, 0
4, 25320, Note_on_c, 2, 56, 120
4, 25372, Note_on_c, 2, 56, 0
4, 25620, Note_on_c, 2, 50, 120
4, 25672, Note_on_c, 2, 50, 0
4, 25680, Note_on_c, 2, 51, 120
4, 25732, Note_on_c, 2, 51, 0
4, 25740, Note_on_c, 2, 53, 120
4, 25792, Note_on_c, 2, 53, 0
4, 25800, Note_on_c, 2, 55, 120
4, 25852, Note_on_c, 2, 55, 0
4, 25860, Note_on_c, 2, 50, 120
4, 25912, Note_on_c, 2, 50, 0
4, 25920, Note_on_c, 2, 43, 120
4, 26092, Note_on_c, 2, 43, 0
4, 26100, Note_on_c, 2, 41, 120
4, 26126, Note_on_c, 2, 41, 0
4, 26130, Note_on_c, 2, 43, 120
4, 26156, Note_on_c, 2, 43, 0
4, 26160, Note_on_c, 2, 45, 120
4, 26186, Note_on_c, 2, 45, 0
4, 26190, Note_on_c, 2, 47, 120
4, 26216, Note_on_c, 2, 47, 0
4, 26220, Note_on_c, 2, 48, 120
4, 26246, Note_on_c, 2, 48, 0
4, 26250, Note_on_c, 2, 50, 120
4, 26276, Note_on_c, 2, 50, 0
4, 26280, Note_on_c, 2, 51, 120
4, 26332, Note_on_c, 2, 51, 0
4, 26340, Note_on_c, 2, 36, 120
4, 26392, Note_on_c, 2, 36, 0
4, 26400, Note_on_c, 2, 53, 120
4, 26452, Note_on_c, 2, 53, 0
4, 26460, Note_on_c, 2, 38, 120
4, 26512, Note_on_c, 2, 38, 0
4, 26520, Note_on_c, 2, 55, 120
4, 26572, Note_on_c, 2, 55, 0
4, 26580, Note_on_c, 2, 39, 120
4, 26632, Note_on_c, 2, 39, 0
4, 26640, Note_on_c, 2, 56, 120
4, 26692, Note_on_c, 2, 56, 0
4, 26700, Note_on_c, 2, 41, 120
4, 26752, Note_on_c, 2, 41, 0
4, 26760, Note_on_c, 2, 55, 120
4, 26786, Note_on_c, 2, 55, 0
4, 26790, Note_on_c, 2, 43, 120
4, 26816, Note_on_c, 2, 43, 0
4, 26820, Note_on_c, 2, 55, 120
4, 26846, Note_on_c, 2, 55, 0
4, 26850, Note_on_c, 2, 56, 120
4, 26876, Note_on_c, 2, 56, 0
4, 26880, Note_on_c, 2, 55, 120
4, 26906, Note_on_c, 2, 55, 0
4, 26910, Note_on_c, 2, 53, 120
4, 26936, Note_on_c, 2, 53, 0
4, 26940, Note_on_c, 2, 51, 120
4, 26966, Note_on_c, 2, 51, 0
4, 26970, Note_on_c, 2, 50, 120
4, 26996, Note_on_c, 2, 50, 0
4, 27000, Note_on_c, 2, 48, 120
4, 27026, Note_on_c, 2, 48, 0
4, 27030, Note_on_c, 2, 55, 120
4, 27056, Note_on_c, 2, 55, 0
4, 27060, Note_on_c, 2, 60, 120
4, 27086, Note_on_c, 2, 60, 0
4, 27090, Note_on_c, 2, 62, 120
4, 27116, Note_on_c, 2, 62, 0
4, 27120, Note_on_c, 2, 60, 120
4, 27146, Note_on_c, 2, 60, 0
4, 27150, Note_on_c, 2, 58, 120
4, 27176, Note_on_c, 2, 58, 0
4, 27180, Note_on_c, 2, 57, 120
4, 27206, Note_on_c, 2, 57, 0
4, 27210, Note_on_c, 2, 55, 120
4, 27236, Note_on_c, 2, 55, 0
4, 27240, Note_on_c, 2, 53, 120
4, 27266, Note_on_c, 2, 53, 0
4, 27270, Note_on_c, 2, 41, 120
4, 27296, Note_on_c, 2, 41, 0
4, 27300, Note_on_c, 2, 53, 120
4, 27326, Note_on_c, 2, 53, 0
4, 27330, Note_on_c, 2, 55, 120
4, 27356, Note_on_c, 2, 55, 0
4, 27360, Note_on_c, 2, 53, 120
4, 27386, Note_on_c, 2, 53, 0
4, 27390, Note_on_c, 2, 51, 120
4, 27416, Note_on_c, 2, 51, 0
4, 27420, Note_on_c, 2, 50, 120
4, 27446, Note_on_c, 2, 50, 0
4, 27450, Note_on_c, 2, 48, 120
4, 27476, Note_on_c, 2, 48, 0
4, 27480, Note_on_c, 2, 46, 120
4, 27506, Note_on_c, 2, 46, 0
4, 27510, Note_on_c, 2, 53, 120
4, 27536, Note_on_c, 2, 53, 0
4, 27540, Note_on_c, 2, 58, 120
4, 27566, Note_on_c, 2, 58, 0
4, 27570, Note_on_c, 2, 60, 120
4, 27596, Note_on_c, 2, 60, 0
4, 27600, Note_on_c, 2, 58, 120
4, 27626, Note_on_c, 2, 58, 0
4, 27630, Note_on_c, 2, 56, 120
4, 27656, Note_on_c, 2, 56, 0
4, 27660, Note_on_c, 2, 55, 120
4, 27686, Note_on_c, 2, 55, 0
4, 27690, Note_on_c, 2, 53, 120
4, 27716, Note_on_c, 2, 53, 0
4, 27720, Note_on_c, 2, 51, 120
4, 27746, Note_on_c, 2, 51, 0
4, 27750, Note_on_c, 2, 39, 120
4, 27776, Note_on_c, 2, 39, 0
4, 27780, Note_on_c, 2, 51, 120
4, 27806, Note_on_c, 2, 51, 0
4, 27810, Note_on_c, 2, 53, 120
4, 27836, Note_on_c, 2, 53, 0
4, 27840, Note_on_c, 2, 51, 120
4, 27866, Note_on_c, 2, 51, 0
4, 27870, Note_on_c, 2, 50, 120
4, 27896, Note_on_c, 2, 50, 0
4, 27900, Note_on_c, 2, 48, 120
4, 27926, Note_on_c, 2, 48, 0
4, 27930, Note_on_c, 2, 46, 120
4, 27956, Note_on_c, 2, 46, 0
4, 27960, Note_on_c, 2, 45, 120
4, 27986, Note_on_c, 2, 45, 0
4, 27990, Note_on_c, 2, 43, 120
4, 28016, Note_on_c, 2, 43, 0
4, 28020, Note_on_c, 2, 45, 120
4, 28046, Note_on_c, 2, 45, 0
4, 28050, Note_on_c, 2, 46, 120
4, 28076, Note_on_c, 2, 46, 0
4, 28080, Note_on_c, 2, 48, 120
4, 28106, Note_on_c, 2, 48, 0
4, 28110, Note_on_c, 2, 50, 120
4, 28136, Note_on_c, 2, 50, 0
4, 28140, Note_on_c, 2, 51, 120
4, 28166, Note_on_c, 2, 51, 0
4, 28170, Note_on_c, 2, 48, 120
4, 28196, Note_on_c, 2, 48, 0
4, 28200, Note_on_c, 2, 50, 120
4, 28226, Note_on_c, 2, 50, 0
4, 28230, Note_on_c, 2, 48, 120
4, 28256, Note_on_c, 2, 48, 0
4, 28260, Note_on_c, 2, 50, 120
4, 28286, Note_on_c, 2, 50, 0
4, 28290, Note_on_c, 2, 52, 120
4, 28316, Note_on_c, 2, 52, 0
4, 28320, Note_on_c, 2, 54, 120
4, 28346, Note_on_c, 2, 54, 0
4, 28350, Note_on_c, 2, 55, 120
4, 28376, Note_on_c, 2, 55, 0
4, 28380, Note_on_c, 2, 57, 120
4, 28406, Note_on_c, 2, 57, 0
4, 28410, Note_on_c, 2, 54, 120
4, 28436, Note_on_c, 2, 54, 0
4, 28440, Note_on_c, 2, 55, 120
4, 28492, Note_on_c, 2, 55, 0
4, 28500, Note_on_c, 2, 51, 120
4, 28552, Note_on_c, 2, 51, 0
4, 28560, Note_on_c, 2, 48, 120
4, 28612, Note_on_c, 2, 48, 0
4, 28620, Note_on_c, 2, 50, 120
4, 28672, Note_on_c, 2, 50, 0
4, 28680, Note_on_c, 2, 43, 120
4, 28732, Note_on_c, 2, 43, 0
4, 28800, Note_on_c, 2, 51, 120
4, 28852, Note_on_c, 2, 51, 0
4, 28920, Note_on_c, 2, 46, 120
4, 28946, Note_on_c, 2, 46, 0
4, 28950, Note_on_c, 2, 55, 120
4, 28976, Note_on_c, 2, 55, 0
4, 28980, Note_on_c, 2, 54, 120
4, 29006, Note_on_c, 2, 54, 0
4, 29010, Note_on_c, 2, 55, 120
4, 29036, Note_on_c, 2, 55, 0
4, 29040, Note_on_c, 2, 48, 120
4, 29066, Note_on_c, 2, 48, 0
4, 29070, Note_on_c, 2, 57, 120
4, 29096, Note_on_c, 2, 57, 0
4, 29100, Note_on_c, 2, 54, 120
4, 29126, Note_on_c, 2, 54, 0
4, 29130, Note_on_c, 2, 55, 120
4, 29156, Note_on_c, 2, 55, 0
4, 29160, Note_on_c, 2, 50, 120
4, 29186, Note_on_c, 2, 50, 0
4, 29190, Note_on_c, 2, 58, 120
4, 29216, Note_on_c, 2, 58, 0
4, 29220, Note_on_c, 2, 54, 120
4, 29246, Note_on_c, 2, 54, 0
4, 29250, Note_on_c, 2, 55, 120
4, 29276, Note_on_c, 2, 55, 0
4, 29280, Note_on_c, 2, 51, 120
4, 29306, Note_on_c, 2, 51, 0
4, 29310, Note_on_c, 2, 60, 120
4, 29336, Note_on_c, 2, 60, 0
4, 29340, Note_on_c, 2, 54, 120
4, 29366, Note_on_c, 2, 54, 0
4, 29370, Note_on_c, 2, 55, 120
4, 29396, Note_on_c, 2, 55, 0
4, 29400, Note_on_c, 2, 42, 120
4, 29426, Note_on_c, 2, 42, 0
4, 29430, Note_on_c, 2, 51, 120
4, 29456, Note_on_c, 2, 51, 0
4, 29460, Note_on_c, 2, 50, 120
4, 29486, Note_on_c, 2, 50, 0
4, 29490, Note_on_c, 2, 48, 120
4, 29516, Note_on_c, 2, 48, 0
4, 29520, Note_on_c, 2, 46, 120
4, 29546, Note_on_c, 2, 46, 0
4, 29550, Note_on_c, 2, 45, 120
4, 29576, Note_on_c, 2, 45, 0
4, 29580, Note_on_c, 2, 43, 120
4, 29606, Note_on_c, 2, 43, 0
4, 29610, Note_on_c, 2, 42, 120
4, 29636, Note_on_c, 2, 42, 0
4, 29640, Note_on_c, 2, 43, 120
4, 29666, Note_on_c, 2, 43, 0
4, 29670, Note_on_c, 2, 41, 120
4, 29696, Note_on_c, 2, 41, 0
4, 29700, Note_on_c, 2, 39, 120
4, 29726, Note_on_c, 2, 39, 0
4, 29730, Note_on_c, 2, 38, 120
4, 29756, Note_on_c, 2, 38, 0
4, 29760, Note_on_c, 2, 36, 120
4, 29812, Note_on_c, 2, 36, 0
4, 29820, Note_on_c, 2, 38, 120
4, 29872, Note_on_c, 2, 38, 0
4, 29880, Note_on_c, 2, 43, 120
4, 29906, Note_on_c, 2, 43, 0
4, 29910, Note_on_c, 2, 42, 120
4, 29936, Note_on_c, 2, 42, 0
4, 29940, Note_on_c, 2, 43, 120
4, 29966, Note_on_c, 2, 43, 0
4, 29970, Note_on_c, 2, 45, 120
4, 29996, Note_on_c, 2, 45, 0
4, 30000, Note_on_c, 2, 47, 120
4, 30026, Note_on_c, 2, 47, 0
4, 30030, Note_on_c, 2, 48, 120
4, 30056, Note_on_c, 2, 48, 0
4, 30060, Note_on_c, 2, 50, 120
4, 30086, Note_on_c, 2, 50, 0
4, 30090, Note_on_c, 2, 51, 120
4, 30116, Note_on_c, 2, 51, 0
4, 30120, Note_on_c, 2, 53, 120
4, 30146, Note_on_c, 2, 53, 0
4, 30150, Note_on_c, 2, 51, 120
4, 30176, Note_on_c, 2, 51, 0
4, 30180, Note_on_c, 2, 50, 120
4, 30206, Note_on_c, 2, 50, 0
4, 30210, Note_on_c, 2, 51, 120
4, 30236, Note_on_c, 2, 51, 0
4, 30240, Note_on_c, 2, 53, 120
4, 30266, Note_on_c, 2, 53, 0
4, 30270, Note_on_c, 2, 55, 120
4, 30296, Note_on_c, 2, 55, 0
4, 30300, Note_on_c, 2, 57, 120
4, 30326, Note_on_c, 2, 57, 0
4, 30330, Note_on_c, 2, 59, 120
4, 30356, Note_on_c, 2, 59, 0
4, 30360, Note_on_c, 2, 60, 120
4, 30412, Note_on_c, 2, 60, 0
4, 30540, Note_on_c, 2, 60, 120
4, 30592, Note_on_c, 2, 60, 0
4, 30600, Note_on_c, 2, 52, 120
4, 30652, Note_on_c, 2, 52, 0
4, 30780, Note_on_c, 2, 60, 120
4, 30832, Note_on_c, 2, 60, 0
4, 30840, Note_on_c, 2, 53, 120
4, 30892, Note_on_c, 2, 53, 0
4, 30900, Note_on_c, 2, 68, 120
4, 30952, Note_on_c, 2, 68, 0
4, 30960, Note_on_c, 2, 51, 120
4, 31012, Note_on_c, 2, 51, 0
4, 31020, Note_on_c, 2, 67, 120
4, 31072, Note_on_c, 2, 67, 0
4, 31080, Note_on_c, 2, 50, 120
4, 31132, Note_on_c, 2, 50, 0
4, 31140, Note_on_c, 2, 65, 120
4, 31192, Note_on_c, 2, 65, 0
4, 31200, Note_on_c, 2, 46, 120
4, 31252, Note_on_c, 2, 46, 0
4, 31260, Note_on_c, 2, 62, 120
4, 31312, Note_on_c, 2, 62, 0
4, 31320, Note_on_c, 2, 51, 120
4, 31372, Note_on_c, 2, 51, 0
4, 31380, Note_on_c, 2, 67, 120
4, 31432, Note_on_c, 2, 67, 0
4, 31440, Note_on_c, 2, 50, 120
4, 31492, Note_on_c, 2, 50, 0
4, 31500, Note_on_c, 2, 65, 120
4, 31552, Note_on_c, 2, 65, 0
4, 31560, Note_on_c, 2, 48, 120
4, 31612, Note_on_c, 2, 48, 0
4, 31620, Note_on_c, 2, 63, 120
4, 31672, Note_on_c, 2, 63, 0
4, 31680, Note_on_c, 2, 44, 120
4, 31732, Note_on_c, 2, 44, 0
4, 31740, Note_on_c, 2, 60, 120
4, 31792, Note_on_c, 2, 60, 0
4, 31800, Note_on_c, 2, 50, 120
4, 31852, Note_on_c, 2, 50, 0
4, 31860, Note_on_c, 2, 65, 120
4, 31912, Note_on_c, 2, 65, 0
4, 31920, Note_on_c, 2, 48, 120
4, 31972, Note_on_c, 2, 48, 0
4, 31980, Note_on_c, 2, 63, 120
4, 32032, Note_on_c, 2, 63, 0
4, 32040, Note_on_c, 2, 47, 120
4, 32092, Note_on_c, 2, 47, 0
4, 32100, Note_on_c, 2, 62, 120
4, 32152, Note_on_c, 2, 62, 0
4, 32160, Note_on_c, 2, 43, 120
4, 32212, Note_on_c, 2, 43, 0
4, 32220, Note_on_c, 2, 59, 120
4, 32272, Note_on_c, 2, 59, 0
4, 32280, Note_on_c, 2, 48, 120
4, 32332, Note_on_c, 2, 48, 0
4, 32340, Note_on_c, 2, 55, 120
4, 32392, Note_on_c, 2, 55, 0
4, 32400, Note_on_c, 2, 60, 120
4, 32572, Note_on_c, 2, 60, 0
4, 32580, Note_on_c, 2, 62, 120
4, 32606, Note_on_c, 2, 62, 0
4, 32610, Note_on_c, 2, 60, 120
4, 32636, Note_on_c, 2, 60, 0
4, 32640, Note_on_c, 2, 59, 120
4, 32666, Note_on_c, 2, 59, 0
4, 32670, Note_on_c, 2, 57, 120
4, 32696, Note_on_c, 2, 57, 0
4, 32700, Note_on_c, 2, 55, 120
4, 32726, Note_on_c, 2, 55, 0
4, 32730, Note_on_c, 2, 53, 120
4, 32756, Note_on_c, 2, 53, 0
4, 32760, Note_on_c, 2, 51, 120
4, 32786, Note_on_c, 2, 51, 0
4, 32790, Note_on_c, 2, 50, 120
4, 32816, Note_on_c, 2, 50, 0
4, 32820, Note_on_c, 2, 48, 120
4, 32846, Note_on_c, 2, 48, 0
4, 32850, Note_on_c, 2, 50, 120
4, 32876, Note_on_c, 2, 50, 0
4, 32880, Note_on_c, 2, 51, 120
4, 32906, Note_on_c, 2, 51, 0
4, 32910, Note_on_c, 2, 53, 120
4, 32936, Note_on_c, 2, 53, 0
4, 32940, Note_on_c, 2, 55, 120
4, 32966, Note_on_c, 2, 55, 0
4, 32970, Note_on_c, 2, 51, 120
4, 32996, Note_on_c, 2, 51, 0
4, 33000, Note_on_c, 2, 56, 120
4, 33026, Note_on_c, 2, 56, 0
4, 33030, Note_on_c, 2, 55, 120
4, 33056, Note_on_c, 2, 55, 0
4, 33060, Note_on_c, 2, 53, 120
4, 33086, Note_on_c, 2, 53, 0
4, 33090, Note_on_c, 2, 55, 120
4, 33116, Note_on_c, 2, 55, 0
4, 33120, Note_on_c, 2, 56, 120
4, 33266, Note_on_c, 2, 56, 0
4, 33270, Note_on_c, 2, 56, 120
4, 33296, Note_on_c, 2, 56, 0
4, 33300, Note_on_c, 2, 55, 120
4, 33326, Note_on_c, 2, 55, 0
4, 33330, Note_on_c, 2, 53, 120
4, 33356, Note_on_c, 2, 53, 0
4, 33360, Note_on_c, 2, 51, 120
4, 33386, Note_on_c, 2, 51, 0
4, 33390, Note_on_c, 2, 50, 120
4, 33416, Note_on_c, 2, 50, 0
4, 33420, Note_on_c, 2, 48, 120
4, 33446, Note_on_c, 2, 48, 0
4, 33450, Note_on_c, 2, 46, 120
4, 33476, Note_on_c, 2, 46, 0
4, 33480, Note_on_c, 2, 44, 120
4, 33506, Note_on_c, 2, 44, 0
4, 33510, Note_on_c, 2, 55, 120
4, 33536, Note_on_c, 2, 55, 0
4, 33540, Note_on_c, 2, 53, 120
4, 33566, Note_on_c, 2, 53, 0
4, 33570, Note_on_c, 2, 51, 120
4, 33596, Note_on_c, 2, 51, 0
4, 33600, Note_on_c, 2, 50, 120
4, 33626, Note_on_c, 2, 50, 0
4, 33630, Note_on_c, 2, 48, 120
4, 33656, Note_on_c, 2, 48, 0
4, 33660, Note_on_c, 2, 47, 120
4, 33686, Note_on_c, 2, 47, 0
4, 33690, Note_on_c, 2, 45, 120
4, 33716, Note_on_c, 2, 45, 0
4, 33720, Note_on_c, 2, 43, 120
4, 33746, Note_on_c, 2, 43, 0
4, 33750, Note_on_c, 2, 51, 120
4, 33776, Note_on_c, 2, 51, 0
4, 33780, Note_on_c, 2, 50, 120
4, 33806, Note_on_c, 2, 50, 0
4, 33810, Note_on_c, 2, 48, 120
4, 33836, Note_on_c, 2, 48, 0
4, 33840, Note_on_c, 2, 47, 120
4, 33866, Note_on_c, 2, 47, 0
4, 33870, Note_on_c, 2, 45, 120
4, 33896, Note_on_c, 2, 45, 0
4, 33900, Note_on_c, 2, 43, 120
4, 33926, Note_on_c, 2, 43, 0
4, 33930, Note_on_c, 2, 41, 120
4, 33956, Note_on_c, 2, 41, 0
4, 33960, Note_on_c, 2, 39, 120
4, 33986, Note_on_c, 2, 39, 0
4, 33990, Note_on_c, 2, 44, 120
4, 34016, Note_on_c, 2, 44, 0
4, 34020, Note_on_c, 2, 43, 120
4, 34046, Note_on_c, 2, 43, 0
4, 34050, Note_on_c, 2, 41, 120
4, 34076, Note_on_c, 2, 41, 0
4, 34080, Note_on_c, 2, 39, 120
4, 34106, Note_on_c, 2, 39, 0
4, 34110, Note_on_c, 2, 38, 120
4, 34136, Note_on_c, 2, 38, 0
4, 34140, Note_on_c, 2, 39, 120
4, 34166, Note_on_c, 2, 39, 0
4, 34170, Note_on_c, 2, 41, 120
4, 34196, Note_on_c, 2, 41, 0
4, 34200, Note_on_c, 2, 43, 120
4, 34226, Note_on_c, 2, 43, 0
4, 34230, Note_on_c, 2, 48, 120
4, 34256, Note_on_c, 2, 48, 0
4, 34260, Note_on_c, 2, 51, 120
4, 34286, Note_on_c, 2, 51, 0
4, 34290, Note_on_c, 2, 54, 120
4, 34316, Note_on_c, 2, 54, 0
4, 34320, Note_on_c, 2, 55, 120
4, 34372, Note_on_c, 2, 55, 0
4, 34380, Note_on_c, 2, 43, 120
4, 34432, Note_on_c, 2, 43, 0
4, 34440, Note_on_c, 2, 36, 120
4, 34440, Note_on_c, 2, 48, 120
4, 34665, Note_on_c, 2, 48, 0
4, 34665, Note_on_c, 2, 36, 0
4, 34680, Control_c, 2, 7, 110
4, 34680, Program_c, 2, 38
4, 34680, Note_on_c, 2, 55, 120
4, 34785, Note_on_c, 2, 55, 0
4, 34860, Note_on_c, 2, 53, 120
4, 34912, Note_on_c, 2, 53, 0
4, 34920, Note_on_c, 2, 51, 120
4, 35025, Note_on_c, 2, 51, 0
4, 35040, Note_on_c, 2, 50, 120
4, 35145, Note_on_c, 2, 50, 0
4, 35160, Note_on_c, 2, 48, 120
4, 35212, Note_on_c, 2, 48, 0
4, 35280, Note_on_c, 2, 50, 120
4, 35332, Note_on_c, 2, 50, 0
4, 35400, Note_on_c, 2, 51, 120
4, 35505, Note_on_c, 2, 51, 0
4, 35580, Note_on_c, 2, 52, 120
4, 35632, Note_on_c, 2, 52, 0
4, 35640, Note_on_c, 2, 53, 120
4, 35745, Note_on_c, 2, 53, 0
4, 35760, Note_on_c, 2, 58, 120
4, 35812, Note_on_c, 2, 58, 0
4, 35820, Note_on_c, 2, 60, 120
4, 35872, Note_on_c, 2, 60, 0
4, 35880, Note_on_c, 2, 65, 120
4, 35932, Note_on_c, 2, 65, 0
4, 36000, Note_on_c, 2, 67, 120
4, 36052, Note_on_c, 2, 67, 0
4, 36120, Note_on_c, 2, 68, 120
4, 36172, Note_on_c, 2, 68, 0
4, 36180, Note_on_c, 2, 53, 120
4, 36232, Note_on_c, 2, 53, 0
4, 36240, Note_on_c, 2, 55, 120
4, 36292, Note_on_c, 2, 55, 0
4, 36300, Note_on_c, 2, 56, 120
4, 36352, Note_on_c, 2, 56, 0
4, 36360, Note_on_c, 2, 58, 120
4, 36412, Note_on_c, 2, 58, 0
4, 36660, Note_on_c, 2, 51, 120
4, 36712, Note_on_c, 2, 51, 0
4, 36720, Note_on_c, 2, 53, 120
4, 36772, Note_on_c, 2, 53, 0
4, 36780, Note_on_c, 2, 55, 120
4, 36832, Note_on_c, 2, 55, 0
4, 36840, Note_on_c, 2, 56, 120
4, 36892, Note_on_c, 2, 56, 0
4, 37140, Note_on_c, 2, 50, 120
4, 37192, Note_on_c, 2, 50, 0
4, 37200, Note_on_c, 2, 51, 120
4, 37252, Note_on_c, 2, 51, 0
4, 37260, Note_on_c, 2, 53, 120
4, 37312, Note_on_c, 2, 53, 0
4, 37320, Note_on_c, 2, 55, 120
4, 37372, Note_on_c, 2, 55, 0
4, 37380, Note_on_c, 2, 50, 120
4, 37432, Note_on_c, 2, 50, 0
4, 37440, Note_on_c, 2, 43, 120
4, 37612, Note_on_c, 2, 43, 0
4, 37620, Note_on_c, 2, 41, 120
4, 37646, Note_on_c, 2, 41, 0
4, 37650, Note_on_c, 2, 43, 120
4, 37676, Note_on_c, 2, 43, 0
4, 37680, Note_on_c, 2, 45, 120
4, 37706, Note_on_c, 2, 45, 0
4, 37710, Note_on_c, 2, 47, 120
4, 37736, Note_on_c, 2, 47, 0
4, 37740, Note_on_c, 2, 48, 120
4, 37766, Note_on_c, 2, 48, 0
4, 37770, Note_on_c, 2, 50, 120
4, 37796, Note_on_c, 2, 50, 0
4, 37800, Note_on_c, 2, 51, 120
4, 37852, Note_on_c, 2, 51, 0
4, 37860, Note_on_c, 2, 36, 120
4, 37912, Note_on_c, 2, 36, 0
4, 37920, Note_on_c, 2, 53, 120
4, 37972, Note_on_c, 2, 53, 0
4, 37980, Note_on_c, 2, 38, 120
4, 38032, Note_on_c, 2, 38, 0
4, 38040, Note_on_c, 2, 55, 120
4, 38092, Note_on_c, 2, 55, 0
4, 38100, Note_on_c, 2, 39, 120
4, 38152, Note_on_c, 2, 39, 0
4, 38160, Note_on_c, 2, 56, 120
4, 38212, Note_on_c, 2, 56, 0
4, 38220, Note_on_c, 2, 41, 120
4, 38272, Note_on_c, 2, 41, 0
4, 38280, Note_on_c, 2, 55, 120
4, 38306, Note_on_c, 2, 55, 0
4, 38310, Note_on_c, 2, 43, 120
4, 38336, Note_on_c, 2, 43, 0
4, 38340, Note_on_c, 2, 55, 120
4, 38366, Note_on_c, 2, 55, 0
4, 38370, Note_on_c, 2, 56, 120
4, 38396, Note_on_c, 2, 56, 0
4, 38400, Note_on_c, 2, 55, 120
4, 38426, Note_on_c, 2, 55, 0
4, 38430, Note_on_c, 2, 53, 120
4, 38456, Note_on_c, 2, 53, 0
4, 38460, Note_on_c, 2, 51, 120
4, 38486, Note_on_c, 2, 51, 0
4, 38490, Note_on_c, 2, 50, 120
4, 38516, Note_on_c, 2, 50, 0
4, 38520, Note_on_c, 2, 48, 120
4, 38546, Note_on_c, 2, 48, 0
4, 38550, Note_on_c, 2, 55, 120
4, 38576, Note_on_c, 2, 55, 0
4, 38580, Note_on_c, 2, 60, 120
4, 38606, Note_on_c, 2, 60, 0
4, 38610, Note_on_c, 2, 62, 120
4, 38636, Note_on_c, 2, 62, 0
4, 38640, Note_on_c, 2, 60, 120
4, 38666, Note_on_c, 2, 60, 0
4, 38670, Note_on_c, 2, 58, 120
4, 38696, Note_on_c, 2, 58, 0
4, 38700, Note_on_c, 2, 57, 120
4, 38726, Note_on_c, 2, 57, 0
4, 38730, Note_on_c, 2, 55, 120
4, 38756, Note_on_c, 2, 55, 0
4, 38760, Note_on_c, 2, 53, 120
4, 38786, Note_on_c, 2, 53, 0
4, 38790, Note_on_c, 2, 41, 120
4, 38816, Note_on_c, 2, 41, 0
4, 38820, Note_on_c, 2, 53, 120
4, 38846, Note_on_c, 2, 53, 0
4, 38850, Note_on_c, 2, 55, 120
4, 38876, Note_on_c, 2, 55, 0
4, 38880, Note_on_c, 2, 53, 120
4, 38906, Note_on_c, 2, 53, 0
4, 38910, Note_on_c, 2, 51, 120
4, 38936, Note_on_c, 2, 51, 0
4, 38940, Note_on_c, 2, 50, 120
4, 38966, Note_on_c, 2, 50, 0
4, 38970, Note_on_c, 2, 48, 120
4, 38996, Note_on_c, 2, 48, 0
4, 39000, Note_on_c, 2, 46, 120
4, 39026, Note_on_c, 2, 46, 0
4, 39030, Note_on_c, 2, 53, 120
4, 39056, Note_on_c, 2, 53, 0
4, 39060, Note_on_c, 2, 58, 120
4, 39086, Note_on_c, 2, 58, 0
4, 39090, Note_on_c, 2, 60, 120
4, 39116, Note_on_c, 2, 60, 0
4, 39120, Note_on_c, 2, 58, 120
4, 39146, Note_on_c, 2, 58, 0
4, 39150, Note_on_c, 2, 56, 120
4, 39176, Note_on_c, 2, 56, 0
4, 39180, Note_on_c, 2, 55, 120
4, 39206, Note_on_c, 2, 55, 0
4, 39210, Note_on_c, 2, 53, 120
4, 39236, Note_on_c, 2, 53, 0
4, 39240, Note_on_c, 2, 51, 120
4, 39266, Note_on_c, 2, 51, 0
4, 39270, Note_on_c, 2, 39, 120
4, 39296, Note_on_c, 2, 39, 0
4, 39300, Note_on_c, 2, 51, 120
4, 39326, Note_on_c, 2, 51, 0
4, 39330, Note_on_c, 2, 53, 120
4, 39356, Note_on_c, 2, 53, 0
4, 39360, Note_on_c, 2, 51, 120
4, 39386, Note_on_c, 2, 51, 0
4, 39390, Note_on_c, 2, 50, 120
4, 39416, Note_on_c, 2, 50, 0
4, 39420, Note_on_c, 2, 48, 120
4, 39446, Note_on_c, 2, 48, 0
4, 39450, Note_on_c, 2, 46, 120
4, 39476, Note_on_c, 2, 46, 0
4, 39480, Note_on_c, 2, 45, 120
4, 39506, Note_on_c, 2, 45, 0
4, 39510, Note_on_c, 2, 43, 120
4, 39536, Note_on_c, 2, 43, 0
4, 39540, Note_on_c, 2, 45, 120
4, 39566, Note_on_c, 2, 45, 0
4, 39570, Note_on_c, 2, 46, 120
4, 39596, Note_on_c, 2, 46, 0
4, 39600, Note_on_c, 2, 48, 120
4, 39626, Note_on_c, 2, 48, 0
4, 39630, Note_on_c, 2, 50, 120
4, 39656, Note_on_c, 2, 50, 0
4, 39660, Note_on_c, 2, 51, 120
4, 39686, Note_on_c, 2, 51, 0
4, 39690, Note_on_c, 2, 48, 120
4, 39716, Note_on_c, 2, 48, 0
4, 39720, Note_on_c, 2, 50, 120
4, 39746, Note_on_c, 2, 50, 0
4, 39750, Note_on_c, 2, 48, 120
4, 39776, Note_on_c, 2, 48, 0
4, 39780, Note_on_c, 2, 50, 120
4, 39806, Note_on_c, 2, 50, 0
4, 39810, Note_on_c, 2, 52, 120
4, 39836, Note_on_c, 2, 52, 0
4, 39840, Note_on_c, 2, 54, 120
4, 39866, Note_on_c, 2, 54, 0
4, 39870, Note_on_c, 2, 55, 120
4, 39896, Note_on_c, 2, 55, 0
4, 39900, Note_on_c, 2, 57, 120
4, 39926, Note_on_c, 2, 57, 0
4, 39930, Note_on_c, 2, 54, 120
4, 39956, Note_on_c, 2, 54, 0
4, 39960, Note_on_c, 2, 55, 120
4, 40012, Note_on_c, 2, 55, 0
4, 40020, Note_on_c, 2, 51, 120
4, 40072, Note_on_c, 2, 51, 0
4, 40080, Note_on_c, 2, 48, 120
4, 40132, Note_on_c, 2, 48, 0
4, 40140, Note_on_c, 2, 50, 120
4, 40192, Note_on_c, 2, 50, 0
4, 40200, Note_on_c, 2, 43, 120
4, 40252, Note_on_c, 2, 43, 0
4, 40320, Note_on_c, 2, 51, 120
4, 40372, Note_on_c, 2, 51, 0
4, 40440, Note_on_c, 2, 46, 120
4, 40466, Note_on_c, 2, 46, 0
4, 40470, Note_on_c, 2, 55, 120
4, 40496, Note_on_c, 2, 55, 0
4, 40500, Note_on_c, 2, 54, 120
4, 40526, Note_on_c, 2, 54, 0
4, 40530, Note_on_c, 2, 55, 120
4, 40556, Note_on_c, 2, 55, 0
4, 40560, Note_on_c, 2, 48, 120
4, 40586, Note_on_c, 2, 48, 0
4, 40590, Note_on_c, 2, 57, 120
4, 40616, Note_on_c, 2, 57, 0
4, 40620, Note_on_c, 2, 54, 120
4, 40646, Note_on_c, 2, 54, 0
4, 40650, Note_on_c, 2, 55, 120
4, 40676, Note_on_c, 2, 55, 0
4, 40680, Note_on_c, 2, 50, 120
4, 40706, Note_on_c, 2, 50, 0
4, 40710, Note_on_c, 2, 58, 120
4, 40736, Note_on_c, 2, 58, 0
4, 40740, Note_on_c, 2, 54, 120
4, 40766, Note_on_c, 2, 54, 0
4, 40770, Note_on_c, 2, 55, 120
4, 40796, Note_on_c, 2, 55, 0
4, 40800, Note_on_c, 2, 51, 120
4, 40826, Note_on_c, 2, 51, 0
4, 40830, Note_on_c, 2, 60, 120
4, 40856, Note_on_c, 2, 60, 0
4, 40860, Note_on_c, 2, 54, 120
4, 40886, Note_on_c, 2, 54, 0
4, 40890, Note_on_c, 2, 55, 120
4, 40916, Note_on_c, 2, 55, 0
4, 40920, Note_on_c, 2, 42, 120
4, 40946, Note_on_c, 2, 42, 0
4, 40950, Note_on_c, 2, 51, 120
4, 40976, Note_on_c, 2, 51, 0
4, 40980, Note_on_c, 2, 50, 120
4, 41006, Note_on_c, 2, 50, 0
4, 41010, Note_on_c, 2, 48, 120
4, 41036, Note_on_c, 2, 48, 0
4, 41040, Note_on_c, 2, 46, 120
4, 41066, Note_on_c, 2, 46, 0
4, 41070, Note_on_c, 2, 45, 120
4, 41096, Note_on_c, 2, 45, 0
4, 41100, Note_on_c, 2, 43, 120
4, 41126, Note_on_c, 2, 43, 0
4, 41130, Note_on_c, 2, 42, 120
4, 41156, Note_on_c, 2, 42, 0
4, 41160, Note_on_c, 2, 43, 120
4, 41186, Note_on_c, 2, 43, 0
4, 41190, Note_on_c, 2, 41, 120
4, 41216, Note_on_c, 2, 41, 0
4, 41220, Note_on_c, 2, 39, 120
4, 41246, Note_on_c, 2, 39, 0
4, 41250, Note_on_c, 2, 38, 120
4, 41276, Note_on_c, 2, 38, 0
4, 41280, Note_on_c, 2, 36, 120
4, 41332, Note_on_c, 2, 36, 0
4, 41340, Note_on_c, 2, 38, 120
4, 41392, Note_on_c, 2, 38, 0
4, 41400, Note_on_c, 2, 43, 120
4, 41426, Note_on_c, 2, 43, 0
4, 41430, Note_on_c, 2, 42, 120
4, 41456, Note_on_c, 2, 42, 0
4, 41460, Note_on_c, 2, 43, 120
4, 41486, Note_on_c, 2, 43, 0
4, 41490, Note_on_c, 2, 45, 120
4, 41516, Note_on_c, 2, 45, 0
4, 41520, Note_on_c, 2, 47, 120
4, 41546, Note_on_c, 2, 47, 0
4, 41550, Note_on_c, 2, 48, 120
4, 41576, Note_on_c, 2, 48, 0
4, 41580, Note_on_c, 2, 50, 120
4, 41606, Note_on_c, 2, 50, 0
4, 41610, Note_on_c, 2, 51, 120
4, 41636, Note_on_c, 2, 51, 0
4, 41640, Note_on_c, 2, 53, 120
4, 41666, Note_on_c, 2, 53, 0
4, 41670, Note_on_c, 2, 51, 120
4, 41696, Note_on_c, 2, 51, 0
4, 41700, Note_on_c, 2, 50, 120
4, 41726, Note_on_c, 2, 50, 0
4, 41730, Note_on_c, 2, 51, 120
4, 41756, Note_on_c, 2, 51, 0
4, 41760, Note_on_c, 2, 53, 120
4, 41786, Note_on_c, 2, 53, 0
4, 41790, Note_on_c, 2, 55, 120
4, 41816, Note_on_c, 2, 55, 0
4, 41820, Note_on_c, 2, 57, 120
4, 41846, Note_on_c, 2, 57, 0
4, 41850, Note_on_c, 2, 59, 120
4, 41876, Note_on_c, 2, 59, 0
4, 41880, Note_on_c, 2, 60, 120
4, 41932, Note_on_c, 2, 60, 0
4, 42060, Note_on_c, 2, 60, 120
4, 42112, Note_on_c, 2, 60, 0
4, 42120, Note_on_c, 2, 52, 120
4, 42172, Note_on_c, 2, 52, 0
4, 42300, Note_on_c, 2, 60, 120
4, 42352, Note_on_c, 2, 60, 0
4, 42360, Note_on_c, 2, 53, 120
4, 42412, Note_on_c, 2, 53, 0
4, 42420, Note_on_c, 2, 68, 120
4, 42472, Note_on_c, 2, 68, 0
4, 42480, Note_on_c, 2, 51, 120
4, 42532, Note_on_c, 2, 51, 0
4, 42540, Note_on_c, 2, 67, 120
4, 42592, Note_on_c, 2, 67, 0
4, 42600, Note_on_c, 2, 50, 120
4, 42652, Note_on_c, 2, 50, 0
4, 42660, Note_on_c, 2, 65, 120
4, 42712, Note_on_c, 2, 65, 0
4, 42720, Note_on_c, 2, 46, 120
4, 42772, Note_on_c, 2, 46, 0
4, 42780, Note_on_c, 2, 62, 120
4, 42832, Note_on_c, 2, 62, 0
4, 42840, Note_on_c, 2, 51, 120
4, 42892, Note_on_c, 2, 51, 0
4, 42900, Note_on_c, 2, 67, 120
4, 42952, Note_on_c, 2, 67, 0
4, 42960, Note_on_c, 2, 50, 120
4, 43012, Note_on_c, 2, 50, 0
4, 43020, Note_on_c, 2, 65, 120
4, 43072, Note_on_c, 2, 65, 0
4, 43080, Note_on_c, 2, 48, 120
4, 43132, Note_on_c, 2, 48, 0
4, 43140, Note_on_c, 2, 63, 120
4, 43192, Note_on_c, 2, 63, 0
4, 43200, Note_on_c, 2, 44, 120
4, 43252, Note_on_c, 2, 44, 0
4, 43260, Note_on_c, 2, 60, 120
4, 43312, Note_on_c, 2, 60, 0
4, 43320, Note_on_c, 2, 50, 120
4, 43372, Note_on_c, 2, 50, 0
4, 43380, Note_on_c, 2, 65, 120
4, 43432, Note_on_c, 2, 65, 0
4, 43440, Note_on_c, 2, 48, 120
4, 43492, Note_on_c, 2, 48, 0
4, 43500, Note_on_c, 2, 63, 120
4, 43552, Note_on_c, 2, 63, 0
4, 43560, Note_on_c, 2, 47, 120
4, 43612, Note_on_c, 2, 47, 0
4, 43620, Note_on_c, 2, 62, 120
4, 43672, Note_on_c, 2, 62, 0
4, 43680, Note_on_c, 2, 43, 120
4, 43732, Note_on_c, 2, 43, 0
4, 43740, Note_on_c, 2, 59, 120
4, 43792, Note_on_c, 2, 59, 0
4, 43800, Note_on_c, 2, 48, 120
4, 43852, Note_on_c, 2, 48, 0
4, 43860, Note_on_c, 2, 55, 120
4, 43912, Note_on_c, 2, 55, 0
4, 43920, Note_on_c, 2, 60, 120
4, 44092, Note_on_c, 2, 60, 0
4, 44100, Note_on_c, 2, 62, 120
4, 44126, Note_on_c, 2, 62, 0
4, 44130, Note_on_c, 2, 60, 120
4, 44156, Note_on_c, 2, 60, 0
4, 44160, Note_on_c, 2, 59, 120
4, 44186, Note_on_c, 2, 59, 0
4, 44190, Note_on_c, 2, 57, 120
4, 44216, Note_on_c, 2, 57, 0
4, 44220, Note_on_c, 2, 55, 120
4, 44246, Note_on_c, 2, 55, 0
4, 44250, Note_on_c, 2, 53, 120
4, 44276, Note_on_c, 2, 53, 0
4, 44280, Note_on_c, 2, 51, 120
4, 44306, Note_on_c, 2, 51, 0
4, 44310, Note_on_c, 2, 50, 120
4, 44336, Note_on_c, 2, 50, 0
4, 44340, Note_on_c, 2, 48, 120
4, 44366, Note_on_c, 2, 48, 0
4, 44370, Note_on_c, 2, 50, 120
4, 44396, Note_on_c, 2, 50, 0
4, 44400, Note_on_c, 2, 51, 120
4, 44426, Note_on_c, 2, 51, 0
4, 44430, Note_on_c, 2, 53, 120
4, 44456, Note_on_c, 2, 53, 0
4, 44460, Note_on_c, 2, 55, 120
4, 44486, Note_on_c, 2, 55, 0
4, 44490, Note_on_c, 2, 51, 120
4, 44516, Note_on_c, 2, 51, 0
4, 44520, Note_on_c, 2, 56, 120
4, 44546, Note_on_c, 2, 56, 0
4, 44550, Note_on_c, 2, 55, 120
4, 44576, Note_on_c, 2, 55, 0
4, 44580, Note_on_c, 2, 53, 120
4, 44606, Note_on_c, 2, 53, 0
4, 44610, Note_on_c, 2, 55, 120
4, 44636, Note_on_c, 2, 55, 0
4, 44640, Note_on_c, 2, 56, 120
4, 44786, Note_on_c, 2, 56, 0
4, 44790, Note_on_c, 2, 56, 120
4, 44816, Note_on_c, 2, 56, 0
4, 44820, Note_on_c, 2, 55, 120
4, 44846, Note_on_c, 2, 55, 0
4, 44850, Note_on_c, 2, 53, 120
4, 44876, Note_on_c, 2, 53, 0
4, 44880, Note_on_c, 2, 51, 120
4, 44906, Note_on_c, 2, 51, 0
4, 44910, Note_on_c, 2, 50, 120
4, 44936, Note_on_c, 2, 50, 0
4, 44940, Note_on_c, 2, 48, 120
4, 44966, Note_on_c, 2, 48, 0
4, 44970, Note_on_c, 2, 46, 120
4, 44996, Note_on_c, 2, 46, 0
4, 45000, Note_on_c, 2, 44, 120
4, 45026, Note_on_c, 2, 44, 0
4, 45030, Note_on_c, 2, 55, 120
4, 45056, Note_on_c, 2, 55, 0
4, 45060, Note_on_c, 2, 53, 120
4, 45086, Note_on_c, 2, 53, 0
4, 45090, Note_on_c, 2, 51, 120
4, 45116, Note_on_c, 2, 51, 0
4, 45120, Note_on_c, 2, 50, 120
4, 45146, Note_on_c, 2, 50, 0
4, 45150, Note_on_c, 2, 48, 120
4, 45176, Note_on_c, 2, 48, 0
4, 45180, Note_on_c, 2, 47, 120
4, 45206, Note_on_c, 2, 47, 0
4, 45210, Note_on_c, 2, 45, 120
4, 45236, Note_on_c, 2, 45, 0
4, 45240, Note_on_c, 2, 43, 120
4, 45266, Note_on_c, 2, 43, 0
4, 45270, Note_on_c, 2, 51, 120
4, 45296, Note_on_c, 2, 51, 0
4, 45300, Note_on_c, 2, 50, 120
4, 45326, Note_on_c, 2, 50, 0
4, 45330, Note_on_c, 2, 48, 120
4, 45356, Note_on_c, 2, 48, 0
4, 45360, Note_on_c, 2, 47, 120
4, 45386, Note_on_c, 2, 47, 0
4, 45390, Note_on_c, 2, 45, 120
4, 45416, Note_on_c, 2, 45, 0
4, 45420, Note_on_c, 2, 43, 120
4, 45446, Note_on_c, 2, 43, 0
4, 45450, Note_on_c, 2, 41, 120
4, 45476, Note_on_c, 2, 41, 0
4, 45480, Note_on_c, 2, 39, 120
4, 45506, Note_on_c, 2, 39, 0
4, 45510, Note_on_c, 2, 44, 120
4, 45536, Note_on_c, 2, 44, 0
4, 45540, Note_on_c, 2, 43, 120
4, 45566, Note_on_c, 2, 43, 0
4, 45570, Note_on_c, 2, 41, 120
4, 45596, Note_on_c, 2, 41, 0
4, 45600, Note_on_c, 2, 39, 120
4, 45626, Note_on_c, 2, 39, 0
4, 45630, Note_on_c, 2, 38, 120
4, 45656, Note_on_c, 2, 38, 0
4, 45660, Note_on_c, 2, 39, 120
4, 45686, Note_on_c, 2, 39, 0
4, 45690, Note_on_c, 2, 41, 120
4, 45716, Note_on_c, 2, 41, 0
4, 45720, Note_on_c, 2, 43, 120
4, 45746, Note_on_c, 2, 43, 0
4, 45750, Note_on_c, 2, 48, 120
4, 45776, Note_on_c, 2, 48, 0
4, 45780, Note_on_c, 2, 51, 120
4, 45806, Note_on_c, 2, 51, 0
4, 45810, Note_on_c, 2, 54, 120
4, 45836, Note_on_c, 2, 54, 0
4, 45840, Note_on_c, 2, 55, 120
4, 45892, Note_on_c, 2, 55, 0
4, 45900, Note_on_c, 2, 43, 120
4, 45952, Note_on_c, 2, 43, 0
4, 45960, Note_on_c, 2, 36, 120
4, 45960, Note_on_c, 2, 48, 120
4, 46185, Note_on_c, 2, 48, 0
4, 46185, Note_on_c, 2, 36, 0
4, 46185, End_track
0, 0, End_of_file
