0, 0, Header, 1, 5, 120
1, 0, Start_track
1, 0, Time_signature, 4, 2, 24, 8
1, 0, Key_signature, 0, "major"
1, 0, Tempo, 857142
1, 9544, Tempo, 1016949
1, 9546, Tempo, 909090
1, 10200, Tempo, 952380
1, 10558, Tempo, 1034482
1, 10562, Tempo, 1176470
1, 10680, Tempo, 1363636
1, 10748, Tempo, 1621621
1, 10750, Tempo, 2068965
1, 10752, Tempo, 2608695
1, 10752, End_track
2, 0, Start_track
2, 0, MIDI_port, 0
2, 0, Title_t, "Oboe"
2, 0, Program_c, 0, 68
2, 0, Control_c, 0, 7, 120
2, 0, Control_c, 0, 10, 64
2, 120, Note_on_c, 0, 67, 80
2, 285, Note_on_c, 0, 67, 0
2, 300, Note_on_c, 0, 69, 80
2, 465, Note_on_c, 0, 69, 0
2, 480, Note_on_c, 0, 70, 80
2, 645, Note_on_c, 0, 70, 0
2, 660, Note_on_c, 0, 70, 80
2, 825, Note_on_c, 0, 70, 0
2, 900, Note_on_c, 0, 67, 80
2, 952, Note_on_c, 0, 67, 0
2, 960, Note_on_c, 0, 72, 80
2, 1072, Note_on_c, 0, 72, 0
2, 1080, Note_on_c, 0, 70, 80
2, 1106, Note_on_c, 0, 70, 0
2, 1110, Note_on_c, 0, 69, 80
2, 1136, Note_on_c, 0, 69, 0
2, 1140, Note_on_c, 0, 70, 80
2, 1192, Note_on_c, 0, 70, 0
2, 1200, Note_on_c, 0, 69, 80
2, 1365, Note_on_c, 0, 69, 0
2, 1380, Note_on_c, 0, 69, 80
2, 1545, Note_on_c, 0, 69, 0
2, 1560, Note_on_c, 0, 70, 80
2, 1725, Note_on_c, 0, 70, 0
2, 1740, Note_on_c, 0, 72, 80
2, 1905, Note_on_c, 0, 72, 0
2, 1920, Note_on_c, 0, 74, 80
2, 2085, Note_on_c, 0, 74, 0
2, 2100, Note_on_c, 0, 70, 80
2, 2265, Note_on_c, 0, 70, 0
2, 2340, Note_on_c, 0, 70, 80
2, 2392, Note_on_c, 0, 70, 0
2, 2400, Note_on_c, 0, 75, 80
2, 2512, Note_on_c, 0, 75, 0
2, 2520, Note_on_c, 0, 74, 80
2, 2546, Note_on_c, 0, 74, 0
2, 2550, Note_on_c, 0, 72, 80
2, 2576, Note_on_c, 0, 72, 0
2, 2580, Note_on_c, 0, 74, 80
2, 2632, Note_on_c, 0, 74, 0
2, 2640, Note_on_c, 0, 72, 80
2, 2805, Note_on_c, 0, 72, 0
2, 2820, Note_on_c, 0, 72, 80
2, 2985, Note_on_c, 0, 72, 0
2, 3000, Note_on_c, 0, 70, 80
2, 3105, Note_on_c, 0, 70, 0
2, 3120, Note_on_c, 0, 77, 80
2, 3232, Note_on_c, 0, 77, 0
2, 3240, Note_on_c, 0, 75, 80
2, 3266, Note_on_c, 0, 75, 0
2, 3270, Note_on_c, 0, 74, 80
2, 3296, Note_on_c, 0, 74, 0
2, 3300, Note_on_c, 0, 75, 80
2, 3352, Note_on_c, 0, 75, 0
2, 3360, Note_on_c, 0, 74, 80
2, 3525, Note_on_c, 0, 74, 0
2, 3540, Note_on_c, 0, 74, 80
2, 3705, Note_on_c, 0, 74, 0
2, 3720, Note_on_c, 0, 74, 80
2, 3885, Note_on_c, 0, 74, 0
2, 3900, Note_on_c, 0, 74, 80
2, 4065, Note_on_c, 0, 74, 0
2, 4080, Note_on_c, 0, 72, 80
2, 4245, Note_on_c, 0, 72, 0
2, 4260, Note_on_c, 0, 70, 80
2, 4425, Note_on_c, 0, 70, 0
2, 4440, Note_on_c, 0, 72, 80
2, 4605, Note_on_c, 0, 72, 0
2, 4620, Note_on_c, 0, 72, 80
2, 4785, Note_on_c, 0, 72, 0
2, 4800, Note_on_c, 0, 72, 80
2, 4965, Note_on_c, 0, 72, 0
2, 4980, Note_on_c, 0, 77, 80
2, 5032, Note_on_c, 0, 77, 0
2, 5040, Note_on_c, 0, 75, 80
2, 5092, Note_on_c, 0, 75, 0
2, 5100, Note_on_c, 0, 74, 80
2, 5152, Note_on_c, 0, 74, 0
2, 5160, Note_on_c, 0, 75, 80
2, 5325, Note_on_c, 0, 75, 0
2, 5340, Note_on_c, 0, 75, 80
2, 5505, Note_on_c, 0, 75, 0
2, 5520, Note_on_c, 0, 74, 80
2, 5685, Note_on_c, 0, 74, 0
2, 5700, Note_on_c, 0, 72, 80
2, 5865, Note_on_c, 0, 72, 0
2, 5940, Note_on_c, 0, 72, 80
2, 5992, Note_on_c, 0, 72, 0
2, 6000, Note_on_c, 0, 80, 80
2, 6112, Note_on_c, 0, 80, 0
2, 6120, Note_on_c, 0, 71, 80
2, 6146, Note_on_c, 0, 71, 0
2, 6150, Note_on_c, 0, 69, 80
2, 6176, Note_on_c, 0, 69, 0
2, 6180, Note_on_c, 0, 71, 80
2, 6232, Note_on_c, 0, 71, 0
2, 6240, Note_on_c, 0, 72, 80
2, 6405, Note_on_c, 0, 72, 0
2, 6420, Note_on_c, 0, 72, 80
2, 6585, Note_on_c, 0, 72, 0
2, 6600, Note_on_c, 0, 67, 80
2, 6765, Note_on_c, 0, 67, 0
2, 6780, Note_on_c, 0, 69, 80
2, 6945, Note_on_c, 0, 69, 0
2, 6960, Note_on_c, 0, 70, 80
2, 7125, Note_on_c, 0, 70, 0
2, 7140, Note_on_c, 0, 70, 80
2, 7305, Note_on_c, 0, 70, 0
2, 7320, Note_on_c, 0, 69, 80
2, 7372, Note_on_c, 0, 69, 0
2, 7380, Note_on_c, 0, 72, 80
2, 7432, Note_on_c, 0, 72, 0
2, 7440, Note_on_c, 0, 77, 80
2, 7552, Note_on_c, 0, 77, 0
2, 7560, Note_on_c, 0, 75, 80
2, 7586, Note_on_c, 0, 75, 0
2, 7590, Note_on_c, 0, 74, 80
2, 7616, Note_on_c, 0, 74, 0
2, 7620, Note_on_c, 0, 75, 80
2, 7672, Note_on_c, 0, 75, 0
2, 7680, Note_on_c, 0, 74, 80
2, 7845, Note_on_c, 0, 74, 0
2, 7860, Note_on_c, 0, 74, 80
2, 8025, Note_on_c, 0, 74, 0
2, 8100, Note_on_c, 0, 74, 80
2, 8152, Note_on_c, 0, 74, 0
2, 8160, Note_on_c, 0, 79, 80
2, 8272, Note_on_c, 0, 79, 0
2, 8280, Note_on_c, 0, 77, 80
2, 8306, Note_on_c, 0, 77, 0
2, 8310, Note_on_c, 0, 75, 80
2, 8336, Note_on_c, 0, 75, 0
2, 8340, Note_on_c, 0, 77, 80
2, 8392, Note_on_c, 0, 77, 0
2, 8400, Note_on_c, 0, 75, 80
2, 8565, Note_on_c, 0, 75, 0
2, 8580, Note_on_c, 0, 74, 80
2, 8745, Note_on_c, 0, 74, 0
2, 8760, Note_on_c, 0, 72, 80
2, 8925, Note_on_c, 0, 72, 0
2, 8940, Note_on_c, 0, 70, 80
2, 9105, Note_on_c, 0, 70, 0
2, 9180, Note_on_c, 0, 72, 80
2, 9232, Note_on_c, 0, 72, 0
2, 9240, Note_on_c, 0, 79, 80
2, 9352, Note_on_c, 0, 79, 0
2, 9360, Note_on_c, 0, 78, 80
2, 9386, Note_on_c, 0, 78, 0
2, 9390, Note_on_c, 0, 76, 80
2, 9416, Note_on_c, 0, 76, 0
2, 9420, Note_on_c, 0, 78, 80
2, 9472, Note_on_c, 0, 78, 0
2, 9480, Note_on_c, 0, 79, 80
2, 9532, Note_on_c, 0, 79, 0
2, 9540, Note_on_c, 0, 74, 80
2, 9592, Note_on_c, 0, 74, 0
2, 9600, Note_on_c, 0, 77, 80
2, 9712, Note_on_c, 0, 77, 0
2, 9720, Note_on_c, 0, 75, 80
2, 9746, Note_on_c, 0, 75, 0
2, 9750, Note_on_c, 0, 74, 80
2, 9776, Note_on_c, 0, 74, 0
2, 9780, Note_on_c, 0, 75, 80
2, 9832, Note_on_c, 0, 75, 0
2, 9840, Note_on_c, 0, 74, 80
2, 9892, Note_on_c, 0, 74, 0
2, 9900, Note_on_c, 0, 79, 80
2, 9952, Note_on_c, 0, 79, 0
2, 9960, Note_on_c, 0, 74, 80
2, 10072, Note_on_c, 0, 74, 0
2, 10080, Note_on_c, 0, 72, 80
2, 10106, Note_on_c, 0, 72, 0
2, 10110, Note_on_c, 0, 71, 80
2, 10136, Note_on_c, 0, 71, 0
2, 10140, Note_on_c, 0, 72, 80
2, 10192, Note_on_c, 0, 72, 0
2, 10200, Note_on_c, 0, 70, 80
2, 10252, Note_on_c, 0, 70, 0
2, 10260, Note_on_c, 0, 79, 80
2, 10312, Note_on_c, 0, 79, 0
2, 10320, Note_on_c, 0, 70, 80
2, 10432, Note_on_c, 0, 70, 0
2, 10440, Note_on_c, 0, 69, 80
2, 10466, Note_on_c, 0, 69, 0
2, 10470, Note_on_c, 0, 67, 80
2, 10496, Note_on_c, 0, 67, 0
2, 10500, Note_on_c, 0, 69, 80
2, 10612, Note_on_c, 0, 69, 0
2, 10620, Note_on_c, 0, 74, 80
2, 10672, Note_on_c, 0, 74, 0
2, 10680, Note_on_c, 0, 66, 80
2, 10732, Note_on_c, 0, 66, 0
2, 10740, Note_on_c, 0, 67, 80
2, 10860, Control_c, 0, 7, 120
2, 10861, Control_c, 0, 7, 118
2, 10862, Control_c, 0, 7, 116
2, 10863, Control_c, 0, 7, 114
2, 10864, Control_c, 0, 7, 112
2, 10865, Control_c, 0, 7, 110
2, 10866, Control_c, 0, 7, 109
2, 10867, Control_c, 0, 7, 107
2, 10868, Control_c, 0, 7, 105
2, 10869, Control_c, 0, 7, 103
2, 10870, Control_c, 0, 7, 101
2, 10871, Control_c, 0, 7, 99
2, 10872, Control_c, 0, 7, 98
2, 10873, Control_c, 0, 7, 96
2, 10874, Control_c, 0, 7, 94
2, 10875, Control_c, 0, 7, 92
2, 10876, Control_c, 0, 7, 90
2, 10877, Control_c, 0, 7, 88
2, 10878, Control_c, 0, 7, 87
2, 10879, Control_c, 0, 7, 85
2, 10880, Control_c, 0, 7, 83
2, 10881, Control_c, 0, 7, 81
2, 10882, Control_c, 0, 7, 79
2, 10883, Control_c, 0, 7, 77
2, 10884, Control_c, 0, 7, 76
2, 10885, Control_c, 0, 7, 74
2, 10886, Control_c, 0, 7, 72
2, 10887, Control_c, 0, 7, 70
2, 10888, Control_c, 0, 7, 68
2, 10889, Control_c, 0, 7, 66
2, 10890, Control_c, 0, 7, 65
2, 10891, Control_c, 0, 7, 63
2, 10892, Control_c, 0, 7, 61
2, 10893, Control_c, 0, 7, 59
2, 10894, Control_c, 0, 7, 57
2, 10895, Control_c, 0, 7, 55
2, 10896, Control_c, 0, 7, 54
2, 10897, Control_c, 0, 7, 52
2, 10898, Control_c, 0, 7, 50
2, 10899, Control_c, 0, 7, 48
2, 10900, Control_c, 0, 7, 46
2, 10901, Control_c, 0, 7, 44
2, 10902, Control_c, 0, 7, 43
2, 10903, Control_c, 0, 7, 41
2, 10904, Control_c, 0, 7, 39
2, 10905, Note_on_c, 0, 67, 0
2, 10905, Control_c, 0, 7, 37
2, 10906, Control_c, 0, 7, 35
2, 10907, Control_c, 0, 7, 33
2, 10908, Control_c, 0, 7, 32
2, 10909, Control_c, 0, 7, 30
2, 10910, Control_c, 0, 7, 28
2, 10911, Control_c, 0, 7, 26
2, 10912, Control_c, 0, 7, 24
2, 10913, Control_c, 0, 7, 22
2, 10914, Control_c, 0, 7, 21
2, 10915, Control_c, 0, 7, 19
2, 10916, Control_c, 0, 7, 17
2, 10917, Control_c, 0, 7, 15
2, 10918, Control_c, 0, 7, 13
2, 10919, Control_c, 0, 7, 11
2, 10920, Control_c, 0, 7, 10
2, 10920, End_track
3, 0, Start_track
3, 0, MIDI_port, 0
3, 0, Title_t, "Lead 2(Sawtooth)"
3, 0, Program_c, 1, 81
3, 0, Control_c, 1, 7, 80
3, 0, Control_c, 1, 10, 1
3, 540, Note_on_c, 1, 62, 80
3, 592, Note_on_c, 1, 62, 0
3, 600, Note_on_c, 1, 67, 80
3, 712, Note_on_c, 1, 67, 0
3, 720, Note_on_c, 1, 65, 80
3, 746, Note_on_c, 1, 65, 0
3, 750, Note_on_c, 1, 63, 80
3, 776, Note_on_c, 1, 63, 0
3, 780, Note_on_c, 1, 65, 80
3, 832, Note_on_c, 1, 65, 0
3, 840, Note_on_c, 1, 63, 80
3, 1005, Note_on_c, 1, 63, 0
3, 1080, Note_on_c, 1, 62, 80
3, 1132, Note_on_c, 1, 62, 0
3, 1140, Note_on_c, 1, 67, 80
3, 1252, Note_on_c, 1, 67, 0
3, 1260, Note_on_c, 1, 66, 80
3, 1286, Note_on_c, 1, 66, 0
3, 1290, Note_on_c, 1, 64, 80
3, 1316, Note_on_c, 1, 64, 0
3, 1320, Note_on_c, 1, 65, 80
3, 1545, Note_on_c, 1, 65, 0
3, 1620, Note_on_c, 1, 58, 80
3, 1672, Note_on_c, 1, 58, 0
3, 1680, Note_on_c, 1, 70, 80
3, 1792, Note_on_c, 1, 70, 0
3, 1800, Note_on_c, 1, 69, 80
3, 1826, Note_on_c, 1, 69, 0
3, 1830, Note_on_c, 1, 67, 80
3, 1856, Note_on_c, 1, 67, 0
3, 1860, Note_on_c, 1, 69, 80
3, 1912, Note_on_c, 1, 69, 0
3, 1920, Note_on_c, 1, 70, 80
3, 2085, Note_on_c, 1, 70, 0
3, 2100, Note_on_c, 1, 65, 80
3, 2265, Note_on_c, 1, 65, 0
3, 2280, Note_on_c, 1, 63, 80
3, 2445, Note_on_c, 1, 63, 0
3, 2460, Note_on_c, 1, 65, 80
3, 2625, Note_on_c, 1, 65, 0
3, 2700, Note_on_c, 1, 67, 80
3, 2752, Note_on_c, 1, 67, 0
3, 2760, Note_on_c, 1, 70, 80
3, 2872, Note_on_c, 1, 70, 0
3, 2880, Note_on_c, 1, 69, 80
3, 2906, Note_on_c, 1, 69, 0
3, 2910, Note_on_c, 1, 67, 80
3, 2936, Note_on_c, 1, 67, 0
3, 2940, Note_on_c, 1, 69, 80
3, 2992, Note_on_c, 1, 69, 0
3, 3060, Note_on_c, 1, 65, 80
3, 3165, Note_on_c, 1, 65, 0
3, 3180, Note_on_c, 1, 67, 80
3, 3285, Note_on_c, 1, 67, 0
3, 3300, Note_on_c, 1, 69, 80
3, 3352, Note_on_c, 1, 69, 0
3, 3360, Note_on_c, 1, 70, 80
3, 3525, Note_on_c, 1, 70, 0
3, 3540, Note_on_c, 1, 69, 80
3, 3705, Note_on_c, 1, 69, 0
3, 3720, Note_on_c, 1, 70, 80
3, 3952, Note_on_c, 1, 70, 0
3, 3960, Note_on_c, 1, 69, 80
3, 3986, Note_on_c, 1, 69, 0
3, 3990, Note_on_c, 1, 67, 80
3, 4016, Note_on_c, 1, 67, 0
3, 4020, Note_on_c, 1, 69, 80
3, 4072, Note_on_c, 1, 69, 0
3, 4080, Note_on_c, 1, 67, 80
3, 4132, Note_on_c, 1, 67, 0
3, 4140, Note_on_c, 1, 64, 80
3, 4192, Note_on_c, 1, 64, 0
3, 4200, Note_on_c, 1, 69, 80
3, 4312, Note_on_c, 1, 69, 0
3, 4320, Note_on_c, 1, 67, 80
3, 4346, Note_on_c, 1, 67, 0
3, 4350, Note_on_c, 1, 65, 80
3, 4376, Note_on_c, 1, 65, 0
3, 4380, Note_on_c, 1, 67, 80
3, 4432, Note_on_c, 1, 67, 0
3, 4440, Note_on_c, 1, 69, 80
3, 4605, Note_on_c, 1, 69, 0
3, 4620, Note_on_c, 1, 70, 80
3, 4785, Note_on_c, 1, 70, 0
3, 4800, Note_on_c, 1, 69, 80
3, 4905, Note_on_c, 1, 69, 0
3, 4920, Note_on_c, 1, 68, 80
3, 5032, Note_on_c, 1, 68, 0
3, 5040, Note_on_c, 1, 67, 80
3, 5145, Note_on_c, 1, 67, 0
3, 5220, Note_on_c, 1, 67, 80
3, 5272, Note_on_c, 1, 67, 0
3, 5280, Note_on_c, 1, 72, 80
3, 5392, Note_on_c, 1, 72, 0
3, 5400, Note_on_c, 1, 70, 80
3, 5426, Note_on_c, 1, 70, 0
3, 5430, Note_on_c, 1, 68, 80
3, 5456, Note_on_c, 1, 68, 0
3, 5460, Note_on_c, 1, 70, 80
3, 5512, Note_on_c, 1, 70, 0
3, 5520, Note_on_c, 1, 68, 80
3, 5572, Note_on_c, 1, 68, 0
3, 5580, Note_on_c, 1, 62, 80
3, 5632, Note_on_c, 1, 62, 0
3, 5640, Note_on_c, 1, 67, 80
3, 5752, Note_on_c, 1, 67, 0
3, 5760, Note_on_c, 1, 65, 80
3, 5786, Note_on_c, 1, 65, 0
3, 5790, Note_on_c, 1, 63, 80
3, 5816, Note_on_c, 1, 63, 0
3, 5820, Note_on_c, 1, 65, 80
3, 5872, Note_on_c, 1, 65, 0
3, 5880, Note_on_c, 1, 67, 80
3, 5985, Note_on_c, 1, 67, 0
3, 6000, Note_on_c, 1, 65, 80
3, 6112, Note_on_c, 1, 65, 0
3, 6120, Note_on_c, 1, 63, 80
3, 6172, Note_on_c, 1, 63, 0
3, 6180, Note_on_c, 1, 65, 80
3, 6292, Note_on_c, 1, 65, 0
3, 6300, Note_on_c, 1, 63, 80
3, 6326, Note_on_c, 1, 63, 0
3, 6330, Note_on_c, 1, 62, 80
3, 6356, Note_on_c, 1, 62, 0
3, 6360, Note_on_c, 1, 63, 80
3, 6386, Note_on_c, 1, 63, 0
3, 6390, Note_on_c, 1, 65, 80
3, 6416, Note_on_c, 1, 65, 0
3, 6420, Note_on_c, 1, 67, 80
3, 6585, Note_on_c, 1, 67, 0
3, 6660, Note_on_c, 1, 55, 80
3, 6712, Note_on_c, 1, 55, 0
3, 6720, Note_on_c, 1, 67, 80
3, 6832, Note_on_c, 1, 67, 0
3, 6840, Note_on_c, 1, 66, 80
3, 6866, Note_on_c, 1, 66, 0
3, 6870, Note_on_c, 1, 64, 80
3, 6896, Note_on_c, 1, 64, 0
3, 6900, Note_on_c, 1, 66, 80
3, 6952, Note_on_c, 1, 66, 0
3, 6960, Note_on_c, 1, 67, 80
3, 7065, Note_on_c, 1, 67, 0
3, 7080, Note_on_c, 1, 65, 80
3, 7132, Note_on_c, 1, 65, 0
3, 7140, Note_on_c, 1, 63, 80
3, 7245, Note_on_c, 1, 63, 0
3, 7260, Note_on_c, 1, 62, 80
3, 7312, Note_on_c, 1, 62, 0
3, 7320, Note_on_c, 1, 60, 80
3, 7425, Note_on_c, 1, 60, 0
3, 7440, Note_on_c, 1, 58, 80
3, 7605, Note_on_c, 1, 58, 0
3, 7620, Note_on_c, 1, 57, 80
3, 7672, Note_on_c, 1, 57, 0
3, 7680, Note_on_c, 1, 58, 80
3, 7732, Note_on_c, 1, 58, 0
3, 7740, Note_on_c, 1, 65, 80
3, 7792, Note_on_c, 1, 65, 0
3, 7800, Note_on_c, 1, 70, 80
3, 7912, Note_on_c, 1, 70, 0
3, 7920, Note_on_c, 1, 68, 80
3, 7946, Note_on_c, 1, 68, 0
3, 7950, Note_on_c, 1, 67, 80
3, 7976, Note_on_c, 1, 67, 0
3, 7980, Note_on_c, 1, 68, 80
3, 8032, Note_on_c, 1, 68, 0
3, 8040, Note_on_c, 1, 67, 80
3, 8205, Note_on_c, 1, 67, 0
3, 8220, Note_on_c, 1, 74, 80
3, 8452, Note_on_c, 1, 74, 0
3, 8460, Note_on_c, 1, 72, 80
3, 8486, Note_on_c, 1, 72, 0
3, 8490, Note_on_c, 1, 70, 80
3, 8516, Note_on_c, 1, 70, 0
3, 8520, Note_on_c, 1, 72, 80
3, 8632, Note_on_c, 1, 72, 0
3, 8640, Note_on_c, 1, 70, 80
3, 8666, Note_on_c, 1, 70, 0
3, 8670, Note_on_c, 1, 69, 80
3, 8696, Note_on_c, 1, 69, 0
3, 8700, Note_on_c, 1, 70, 80
3, 8812, Note_on_c, 1, 70, 0
3, 8820, Note_on_c, 1, 69, 80
3, 8846, Note_on_c, 1, 69, 0
3, 8850, Note_on_c, 1, 67, 80
3, 8876, Note_on_c, 1, 67, 0
3, 8880, Note_on_c, 1, 69, 80
3, 8992, Note_on_c, 1, 69, 0
3, 9000, Note_on_c, 1, 67, 80
3, 9026, Note_on_c, 1, 67, 0
3, 9030, Note_on_c, 1, 66, 80
3, 9056, Note_on_c, 1, 66, 0
3, 9060, Note_on_c, 1, 67, 80
3, 9112, Note_on_c, 1, 67, 0
3, 9120, Note_on_c, 1, 69, 80
3, 9285, Note_on_c, 1, 69, 0
3, 9300, Note_on_c, 1, 69, 80
3, 9465, Note_on_c, 1, 69, 0
3, 9480, Note_on_c, 1, 67, 80
3, 10305, Note_on_c, 1, 67, 0
3, 10500, Note_on_c, 1, 63, 80
3, 10552, Note_on_c, 1, 63, 0
3, 10560, Note_on_c, 1, 62, 80
3, 10612, Note_on_c, 1, 62, 0
3, 10680, Note_on_c, 1, 60, 80
3, 10680, Note_on_c, 1, 62, 80
3, 10732, Note_on_c, 1, 62, 0
3, 10732, Note_on_c, 1, 60, 0
3, 10740, Note_on_c, 1, 59, 80
3, 10740, Note_on_c, 1, 62, 80
3, 10860, Control_c, 1, 7, 80
3, 10861, Control_c, 1, 7, 78
3, 10862, Control_c, 1, 7, 77
3, 10863, Control_c, 1, 7, 76
3, 10864, Control_c, 1, 7, 75
3, 10865, Control_c, 1, 7, 73
3, 10866, Control_c, 1, 7, 72
3, 10867, Control_c, 1, 7, 71
3, 10868, Control_c, 1, 7, 70
3, 10869, Control_c, 1, 7, 68
3, 10870, Control_c, 1, 7, 67
3, 10871, Control_c, 1, 7, 66
3, 10872, Control_c, 1, 7, 65
3, 10873, Control_c, 1, 7, 63
3, 10874, Control_c, 1, 7, 62
3, 10875, Control_c, 1, 7, 61
3, 10876, Control_c, 1, 7, 60
3, 10877, Control_c, 1, 7, 58
3, 10878, Control_c, 1, 7, 57
3, 10879, Control_c, 1, 7, 56
3, 10880, Control_c, 1, 7, 55
3, 10881, Control_c, 1, 7, 53
3, 10882, Control_c, 1, 7, 52
3, 10883, Control_c, 1, 7, 51
3, 10884, Control_c, 1, 7, 50
3, 10885, Control_c, 1, 7, 48
3, 10886, Control_c, 1, 7, 47
3, 10887, Control_c, 1, 7, 46
3, 10888, Control_c, 1, 7, 45
3, 10889, Control_c, 1, 7, 43
3, 10890, Control_c, 1, 7, 42
3, 10891, Control_c, 1, 7, 41
3, 10892, Control_c, 1, 7, 40
3, 10893, Control_c, 1, 7, 38
3, 10894, Control_c, 1, 7, 37
3, 10895, Control_c, 1, 7, 36
3, 10896, Control_c, 1, 7, 35
3, 10897, Control_c, 1, 7, 33
3, 10898, Control_c, 1, 7, 32
3, 10899, Control_c, 1, 7, 31
3, 10900, Control_c, 1, 7, 30
3, 10901, Control_c, 1, 7, 28
3, 10902, Control_c, 1, 7, 27
3, 10903, Control_c, 1, 7, 26
3, 10904, Control_c, 1, 7, 25
3, 10905, Note_on_c, 1, 62, 0
3, 10905, Note_on_c, 1, 59, 0
3, 10905, Control_c, 1, 7, 23
3, 10906, Control_c, 1, 7, 22
3, 10907, Control_c, 1, 7, 21
3, 10908, Control_c, 1, 7, 20
3, 10909, Control_c, 1, 7, 18
3, 10910, Control_c, 1, 7, 17
3, 10911, Control_c, 1, 7, 16
3, 10912, Control_c, 1, 7, 15
3, 10913, Control_c, 1, 7, 13
3, 10914, Control_c, 1, 7, 12
3, 10915, Control_c, 1, 7, 11
3, 10916, Control_c, 1, 7, 10
3, 10917, Control_c, 1, 7, 8
3, 10918, Control_c, 1, 7, 7
3, 10919, Control_c, 1, 7, 6
3, 10920, Control_c, 1, 7, 5
3, 10920, End_track
4, 0, Start_track
4, 0, MIDI_port, 0
4, 0, Title_t, "Lead 3(calliope)"
4, 0, Program_c, 2, 82
4, 0, Control_c, 2, 7, 80
4, 0, Control_c, 2, 10, 126
4, 1260, Note_on_c, 2, 57, 80
4, 1312, Note_on_c, 2, 57, 0
4, 1320, Note_on_c, 2, 62, 80
4, 1545, Note_on_c, 2, 62, 0
4, 1980, Note_on_c, 2, 53, 80
4, 2032, Note_on_c, 2, 53, 0
4, 2040, Note_on_c, 2, 58, 80
4, 2152, Note_on_c, 2, 58, 0
4, 2160, Note_on_c, 2, 56, 80
4, 2186, Note_on_c, 2, 56, 0
4, 2190, Note_on_c, 2, 55, 80
4, 2216, Note_on_c, 2, 55, 0
4, 2220, Note_on_c, 2, 56, 80
4, 2272, Note_on_c, 2, 56, 0
4, 2280, Note_on_c, 2, 55, 80
4, 2385, Note_on_c, 2, 55, 0
4, 2400, Note_on_c, 2, 57, 80
4, 2512, Note_on_c, 2, 57, 0
4, 2520, Note_on_c, 2, 53, 80
4, 2572, Note_on_c, 2, 53, 0
4, 2580, Note_on_c, 2, 58, 80
4, 2692, Note_on_c, 2, 58, 0
4, 2700, Note_on_c, 2, 57, 80
4, 2726, Note_on_c, 2, 57, 0
4, 2730, Note_on_c, 2, 55, 80
4, 2756, Note_on_c, 2, 55, 0
4, 2760, Note_on_c, 2, 67, 80
4, 2872, Note_on_c, 2, 67, 0
4, 2880, Note_on_c, 2, 60, 80
4, 2932, Note_on_c, 2, 60, 0
4, 2940, Note_on_c, 2, 63, 80
4, 3052, Note_on_c, 2, 63, 0
4, 3060, Note_on_c, 2, 62, 80
4, 3086, Note_on_c, 2, 62, 0
4, 3090, Note_on_c, 2, 60, 80
4, 3116, Note_on_c, 2, 60, 0
4, 3120, Note_on_c, 2, 62, 80
4, 3232, Note_on_c, 2, 62, 0
4, 3240, Note_on_c, 2, 60, 80
4, 3266, Note_on_c, 2, 60, 0
4, 3270, Note_on_c, 2, 58, 80
4, 3296, Note_on_c, 2, 58, 0
4, 3300, Note_on_c, 2, 60, 80
4, 3352, Note_on_c, 2, 60, 0
4, 3360, Note_on_c, 2, 58, 80
4, 3412, Note_on_c, 2, 58, 0
4, 3780, Note_on_c, 2, 62, 80
4, 3832, Note_on_c, 2, 62, 0
4, 3840, Note_on_c, 2, 67, 80
4, 3952, Note_on_c, 2, 67, 0
4, 3960, Note_on_c, 2, 65, 80
4, 3986, Note_on_c, 2, 65, 0
4, 3990, Note_on_c, 2, 64, 80
4, 4016, Note_on_c, 2, 64, 0
4, 4020, Note_on_c, 2, 65, 80
4, 4072, Note_on_c, 2, 65, 0
4, 4080, Note_on_c, 2, 64, 80
4, 4132, Note_on_c, 2, 64, 0
4, 4140, Note_on_c, 2, 60, 80
4, 4192, Note_on_c, 2, 60, 0
4, 4200, Note_on_c, 2, 65, 80
4, 4312, Note_on_c, 2, 65, 0
4, 4320, Note_on_c, 2, 64, 80
4, 4346, Note_on_c, 2, 64, 0
4, 4350, Note_on_c, 2, 62, 80
4, 4376, Note_on_c, 2, 62, 0
4, 4380, Note_on_c, 2, 64, 80
4, 4432, Note_on_c, 2, 64, 0
4, 4440, Note_on_c, 2, 65, 80
4, 4605, Note_on_c, 2, 65, 0
4, 4620, Note_on_c, 2, 67, 80
4, 4785, Note_on_c, 2, 67, 0
4, 4860, Note_on_c, 2, 57, 80
4, 4912, Note_on_c, 2, 57, 0
4, 4920, Note_on_c, 2, 60, 80
4, 5032, Note_on_c, 2, 60, 0
4, 5040, Note_on_c, 2, 59, 80
4, 5066, Note_on_c, 2, 59, 0
4, 5070, Note_on_c, 2, 57, 80
4, 5096, Note_on_c, 2, 57, 0
4, 5100, Note_on_c, 2, 59, 80
4, 5152, Note_on_c, 2, 59, 0
4, 5160, Note_on_c, 2, 60, 80
4, 5572, Note_on_c, 2, 60, 0
4, 5580, Note_on_c, 2, 59, 80
4, 5606, Note_on_c, 2, 59, 0
4, 5610, Note_on_c, 2, 57, 80
4, 5636, Note_on_c, 2, 57, 0
4, 5640, Note_on_c, 2, 59, 80
4, 5692, Note_on_c, 2, 59, 0
4, 5700, Note_on_c, 2, 60, 80
4, 5805, Note_on_c, 2, 60, 0
4, 5820, Note_on_c, 2, 62, 80
4, 5872, Note_on_c, 2, 62, 0
4, 5880, Note_on_c, 2, 63, 80
4, 6045, Note_on_c, 2, 63, 0
4, 6060, Note_on_c, 2, 62, 80
4, 6112, Note_on_c, 2, 62, 0
4, 6120, Note_on_c, 2, 60, 80
4, 6172, Note_on_c, 2, 60, 0
4, 6180, Note_on_c, 2, 62, 80
4, 6232, Note_on_c, 2, 62, 0
4, 6300, Note_on_c, 2, 55, 80
4, 6352, Note_on_c, 2, 55, 0
4, 6360, Note_on_c, 2, 60, 80
4, 6412, Note_on_c, 2, 60, 0
4, 6420, Note_on_c, 2, 63, 80
4, 6585, Note_on_c, 2, 63, 0
4, 8460, Note_on_c, 2, 63, 80
4, 8512, Note_on_c, 2, 63, 0
4, 8520, Note_on_c, 2, 69, 80
4, 8632, Note_on_c, 2, 69, 0
4, 8640, Note_on_c, 2, 67, 80
4, 8666, Note_on_c, 2, 67, 0
4, 8670, Note_on_c, 2, 66, 80
4, 8696, Note_on_c, 2, 66, 0
4, 8700, Note_on_c, 2, 67, 80
4, 8752, Note_on_c, 2, 67, 0
4, 8820, Note_on_c, 2, 57, 80
4, 8872, Note_on_c, 2, 57, 0
4, 8880, Note_on_c, 2, 62, 80
4, 8932, Note_on_c, 2, 62, 0
4, 9000, Note_on_c, 2, 58, 80
4, 9052, Note_on_c, 2, 58, 0
4, 9060, Note_on_c, 2, 62, 80
4, 9112, Note_on_c, 2, 62, 0
4, 9360, Note_on_c, 2, 57, 80
4, 9412, Note_on_c, 2, 57, 0
4, 9420, Note_on_c, 2, 60, 80
4, 9532, Note_on_c, 2, 60, 0
4, 9540, Note_on_c, 2, 59, 80
4, 9566, Note_on_c, 2, 59, 0
4, 9570, Note_on_c, 2, 57, 80
4, 9596, Note_on_c, 2, 57, 0
4, 9600, Note_on_c, 2, 59, 80
4, 9652, Note_on_c, 2, 59, 0
4, 9660, Note_on_c, 2, 60, 80
4, 9712, Note_on_c, 2, 60, 0
4, 9720, Note_on_c, 2, 55, 80
4, 9772, Note_on_c, 2, 55, 0
4, 9780, Note_on_c, 2, 60, 80
4, 9892, Note_on_c, 2, 60, 0
4, 9900, Note_on_c, 2, 59, 80
4, 9926, Note_on_c, 2, 59, 0
4, 9930, Note_on_c, 2, 57, 80
4, 9956, Note_on_c, 2, 57, 0
4, 9960, Note_on_c, 2, 59, 80
4, 10012, Note_on_c, 2, 59, 0
4, 10020, Note_on_c, 2, 63, 80
4, 10072, Note_on_c, 2, 63, 0
4, 10080, Note_on_c, 2, 55, 80
4, 10132, Note_on_c, 2, 55, 0
4, 10140, Note_on_c, 2, 63, 80
4, 10252, Note_on_c, 2, 63, 0
4, 10260, Note_on_c, 2, 62, 80
4, 10286, Note_on_c, 2, 62, 0
4, 10290, Note_on_c, 2, 60, 80
4, 10316, Note_on_c, 2, 60, 0
4, 10320, Note_on_c, 2, 62, 80
4, 10372, Note_on_c, 2, 62, 0
4, 10380, Note_on_c, 2, 60, 80
4, 10432, Note_on_c, 2, 60, 0
4, 10440, Note_on_c, 2, 54, 80
4, 10492, Note_on_c, 2, 54, 0
4, 10500, Note_on_c, 2, 60, 80
4, 10552, Note_on_c, 2, 60, 0
4, 10560, Note_on_c, 2, 58, 80
4, 10612, Note_on_c, 2, 58, 0
4, 10680, Note_on_c, 2, 57, 80
4, 10732, Note_on_c, 2, 57, 0
4, 10740, Note_on_c, 2, 55, 80
4, 10860, Control_c, 2, 7, 80
4, 10861, Control_c, 2, 7, 78
4, 10862, Control_c, 2, 7, 77
4, 10863, Control_c, 2, 7, 76
4, 10864, Control_c, 2, 7, 75
4, 10865, Control_c, 2, 7, 73
4, 10866, Control_c, 2, 7, 72
4, 10867, Control_c, 2, 7, 71
4, 10868, Control_c, 2, 7, 70
4, 10869, Control_c, 2, 7, 68
4, 10870, Control_c, 2, 7, 67
4, 10871, Control_c, 2, 7, 66
4, 10872, Control_c, 2, 7, 65
4, 10873, Control_c, 2, 7, 63
4, 10874, Control_c, 2, 7, 62
4, 10875, Control_c, 2, 7, 61
4, 10876, Control_c, 2, 7, 60
4, 10877, Control_c, 2, 7, 58
4, 10878, Control_c, 2, 7, 57
4, 10879, Control_c, 2, 7, 56
4, 10880, Control_c, 2, 7, 55
4, 10881, Control_c, 2, 7, 53
4, 10882, Control_c, 2, 7, 52
4, 10883, Control_c, 2, 7, 51
4, 10884, Control_c, 2, 7, 50
4, 10885, Control_c, 2, 7, 48
4, 10886, Control_c, 2, 7, 47
4, 10887, Control_c, 2, 7, 46
4, 10888, Control_c, 2, 7, 45
4, 10889, Control_c, 2, 7, 43
4, 10890, Control_c, 2, 7, 42
4, 10891, Control_c, 2, 7, 41
4, 10892, Control_c, 2, 7, 40
4, 10893, Control_c, 2, 7, 38
4, 10894, Control_c, 2, 7, 37
4, 10895, Control_c, 2, 7, 36
4, 10896, Control_c, 2, 7, 35
4, 10897, Control_c, 2, 7, 33
4, 10898, Control_c, 2, 7, 32
4, 10899, Control_c, 2, 7, 31
4, 10900, Control_c, 2, 7, 30
4, 10901, Control_c, 2, 7, 28
4, 10902, Control_c, 2, 7, 27
4, 10903, Control_c, 2, 7, 26
4, 10904, Control_c, 2, 7, 25
4, 10905, Note_on_c, 2, 55, 0
4, 10905, Control_c, 2, 7, 23
4, 10906, Control_c, 2, 7, 22
4, 10907, Control_c, 2, 7, 21
4, 10908, Control_c, 2, 7, 20
4, 10909, Control_c, 2, 7, 18
4, 10910, Control_c, 2, 7, 17
4, 10911, Control_c, 2, 7, 16
4, 10912, Control_c, 2, 7, 15
4, 10913, Control_c, 2, 7, 13
4, 10914, Control_c, 2, 7, 12
4, 10915, Control_c, 2, 7, 11
4, 10916, Control_c, 2, 7, 10
4, 10917, Control_c, 2, 7, 8
4, 10918, Control_c, 2, 7, 7
4, 10919, Control_c, 2, 7, 6
4, 10920, Control_c, 2, 7, 5
4, 10920, End_track
5, 0, Start_track
5, 0, MIDI_port, 0
5, 0, Title_t, "Contrabass"
5, 0, Program_c, 3, 43
5, 0, Control_c, 3, 7, 90
5, 0, Control_c, 3, 10, 64
5, 180, Note_on_c, 3, 43, 80
5, 232, Note_on_c, 3, 43, 0
5, 240, Note_on_c, 3, 55, 80
5, 352, Note_on_c, 3, 55, 0
5, 360, Note_on_c, 3, 54, 80
5, 386, Note_on_c, 3, 54, 0
5, 390, Note_on_c, 3, 52, 80
5, 416, Note_on_c, 3, 52, 0
5, 420, Note_on_c, 3, 54, 80
5, 472, Note_on_c, 3, 54, 0
5, 480, Note_on_c, 3, 55, 80
5, 585, Note_on_c, 3, 55, 0
5, 600, Note_on_c, 3, 53, 80
5, 652, Note_on_c, 3, 53, 0
5, 660, Note_on_c, 3, 51, 80
5, 765, Note_on_c, 3, 51, 0
5, 780, Note_on_c, 3, 50, 80
5, 832, Note_on_c, 3, 50, 0
5, 840, Note_on_c, 3, 48, 80
5, 945, Note_on_c, 3, 48, 0
5, 960, Note_on_c, 3, 51, 80
5, 1012, Note_on_c, 3, 51, 0
5, 1020, Note_on_c, 3, 55, 80
5, 1185, Note_on_c, 3, 55, 0
5, 1200, Note_on_c, 3, 50, 80
5, 1365, Note_on_c, 3, 50, 0
5, 1380, Note_on_c, 3, 38, 80
5, 1432, Note_on_c, 3, 38, 0
5, 1440, Note_on_c, 3, 50, 80
5, 1466, Note_on_c, 3, 50, 0
5, 1470, Note_on_c, 3, 48, 80
5, 1496, Note_on_c, 3, 48, 0
5, 1500, Note_on_c, 3, 50, 80
5, 1552, Note_on_c, 3, 50, 0
5, 1560, Note_on_c, 3, 43, 80
5, 1612, Note_on_c, 3, 43, 0
5, 1620, Note_on_c, 3, 55, 80
5, 1672, Note_on_c, 3, 55, 0
5, 1680, Note_on_c, 3, 53, 80
5, 1732, Note_on_c, 3, 53, 0
5, 1740, Note_on_c, 3, 51, 80
5, 1792, Note_on_c, 3, 51, 0
5, 1800, Note_on_c, 3, 53, 80
5, 1852, Note_on_c, 3, 53, 0
5, 1860, Note_on_c, 3, 41, 80
5, 1912, Note_on_c, 3, 41, 0
5, 1920, Note_on_c, 3, 46, 80
5, 2085, Note_on_c, 3, 46, 0
5, 2100, Note_on_c, 3, 50, 80
5, 2385, Note_on_c, 3, 50, 0
5, 2400, Note_on_c, 3, 48, 80
5, 2452, Note_on_c, 3, 48, 0
5, 2460, Note_on_c, 3, 50, 80
5, 2625, Note_on_c, 3, 50, 0
5, 2640, Note_on_c, 3, 51, 80
5, 2805, Note_on_c, 3, 51, 0
5, 2820, Note_on_c, 3, 53, 80
5, 2985, Note_on_c, 3, 53, 0
5, 3000, Note_on_c, 3, 58, 80
5, 3412, Note_on_c, 3, 58, 0
5, 3420, Note_on_c, 3, 46, 80
5, 3472, Note_on_c, 3, 46, 0
5, 3480, Note_on_c, 3, 55, 80
5, 3592, Note_on_c, 3, 55, 0
5, 3600, Note_on_c, 3, 54, 80
5, 3626, Note_on_c, 3, 54, 0
5, 3630, Note_on_c, 3, 52, 80
5, 3656, Note_on_c, 3, 52, 0
5, 3660, Note_on_c, 3, 54, 80
5, 3712, Note_on_c, 3, 54, 0
5, 3720, Note_on_c, 3, 55, 80
5, 3885, Note_on_c, 3, 55, 0
5, 3900, Note_on_c, 3, 58, 80
5, 4185, Note_on_c, 3, 58, 0
5, 4200, Note_on_c, 3, 57, 80
5, 4252, Note_on_c, 3, 57, 0
5, 4260, Note_on_c, 3, 50, 80
5, 4312, Note_on_c, 3, 50, 0
5, 4320, Note_on_c, 3, 55, 80
5, 4425, Note_on_c, 3, 55, 0
5, 4500, Note_on_c, 3, 41, 80
5, 4552, Note_on_c, 3, 41, 0
5, 4560, Note_on_c, 3, 53, 80
5, 4672, Note_on_c, 3, 53, 0
5, 4680, Note_on_c, 3, 52, 80
5, 4706, Note_on_c, 3, 52, 0
5, 4710, Note_on_c, 3, 50, 80
5, 4736, Note_on_c, 3, 50, 0
5, 4740, Note_on_c, 3, 52, 80
5, 4792, Note_on_c, 3, 52, 0
5, 4800, Note_on_c, 3, 53, 80
5, 4905, Note_on_c, 3, 53, 0
5, 4920, Note_on_c, 3, 51, 80
5, 4972, Note_on_c, 3, 51, 0
5, 4980, Note_on_c, 3, 50, 80
5, 5032, Note_on_c, 3, 50, 0
5, 5040, Note_on_c, 3, 55, 80
5, 5145, Note_on_c, 3, 55, 0
5, 5160, Note_on_c, 3, 48, 80
5, 5265, Note_on_c, 3, 48, 0
5, 5280, Note_on_c, 3, 58, 80
5, 5332, Note_on_c, 3, 58, 0
5, 5340, Note_on_c, 3, 56, 80
5, 5445, Note_on_c, 3, 56, 0
5, 5460, Note_on_c, 3, 55, 80
5, 5512, Note_on_c, 3, 55, 0
5, 5520, Note_on_c, 3, 53, 80
5, 5685, Note_on_c, 3, 53, 0
5, 5700, Note_on_c, 3, 51, 80
5, 5752, Note_on_c, 3, 51, 0
5, 5760, Note_on_c, 3, 56, 80
5, 5865, Note_on_c, 3, 56, 0
5, 5880, Note_on_c, 3, 55, 80
5, 6225, Note_on_c, 3, 55, 0
5, 6240, Note_on_c, 3, 48, 80
5, 6405, Note_on_c, 3, 48, 0
5, 6420, Note_on_c, 3, 36, 80
5, 6472, Note_on_c, 3, 36, 0
5, 6480, Note_on_c, 3, 48, 80
5, 6506, Note_on_c, 3, 48, 0
5, 6510, Note_on_c, 3, 47, 80
5, 6536, Note_on_c, 3, 47, 0
5, 6540, Note_on_c, 3, 48, 80
5, 6566, Note_on_c, 3, 48, 0
5, 6570, Note_on_c, 3, 50, 80
5, 6596, Note_on_c, 3, 50, 0
5, 6600, Note_on_c, 3, 51, 80
5, 6705, Note_on_c, 3, 51, 0
5, 6720, Note_on_c, 3, 50, 80
5, 6772, Note_on_c, 3, 50, 0
5, 6780, Note_on_c, 3, 48, 80
5, 6832, Note_on_c, 3, 48, 0
5, 6840, Note_on_c, 3, 50, 80
5, 6892, Note_on_c, 3, 50, 0
5, 6900, Note_on_c, 3, 38, 80
5, 6952, Note_on_c, 3, 38, 0
5, 6960, Note_on_c, 3, 43, 80
5, 7012, Note_on_c, 3, 43, 0
5, 7020, Note_on_c, 3, 50, 80
5, 7072, Note_on_c, 3, 50, 0
5, 7080, Note_on_c, 3, 55, 80
5, 7192, Note_on_c, 3, 55, 0
5, 7200, Note_on_c, 3, 53, 80
5, 7226, Note_on_c, 3, 53, 0
5, 7230, Note_on_c, 3, 51, 80
5, 7256, Note_on_c, 3, 51, 0
5, 7260, Note_on_c, 3, 53, 80
5, 7312, Note_on_c, 3, 53, 0
5, 7320, Note_on_c, 3, 51, 80
5, 7425, Note_on_c, 3, 51, 0
5, 7440, Note_on_c, 3, 50, 80
5, 7492, Note_on_c, 3, 50, 0
5, 7500, Note_on_c, 3, 48, 80
5, 7605, Note_on_c, 3, 48, 0
5, 7620, Note_on_c, 3, 53, 80
5, 7672, Note_on_c, 3, 53, 0
5, 7680, Note_on_c, 3, 46, 80
5, 7732, Note_on_c, 3, 46, 0
5, 7740, Note_on_c, 3, 50, 80
5, 7792, Note_on_c, 3, 50, 0
5, 7800, Note_on_c, 3, 53, 80
5, 7852, Note_on_c, 3, 53, 0
5, 7860, Note_on_c, 3, 58, 80
5, 7965, Note_on_c, 3, 58, 0
5, 7980, Note_on_c, 3, 46, 80
5, 8032, Note_on_c, 3, 46, 0
5, 8040, Note_on_c, 3, 47, 80
5, 8205, Note_on_c, 3, 47, 0
5, 8220, Note_on_c, 3, 59, 80
5, 8385, Note_on_c, 3, 59, 0
5, 8400, Note_on_c, 3, 60, 80
5, 8565, Note_on_c, 3, 60, 0
5, 8580, Note_on_c, 3, 55, 80
5, 8745, Note_on_c, 3, 55, 0
5, 8760, Note_on_c, 3, 52, 80
5, 8812, Note_on_c, 3, 52, 0
5, 8820, Note_on_c, 3, 54, 80
5, 8925, Note_on_c, 3, 54, 0
5, 8940, Note_on_c, 3, 55, 80
5, 9105, Note_on_c, 3, 55, 0
5, 9120, Note_on_c, 3, 48, 80
5, 9172, Note_on_c, 3, 48, 0
5, 9180, Note_on_c, 3, 46, 80
5, 9206, Note_on_c, 3, 46, 0
5, 9210, Note_on_c, 3, 45, 80
5, 9236, Note_on_c, 3, 45, 0
5, 9240, Note_on_c, 3, 46, 80
5, 9266, Note_on_c, 3, 46, 0
5, 9270, Note_on_c, 3, 48, 80
5, 9296, Note_on_c, 3, 48, 0
5, 9300, Note_on_c, 3, 50, 80
5, 9465, Note_on_c, 3, 50, 0
5, 9480, Note_on_c, 3, 55, 80
5, 9712, Note_on_c, 3, 55, 0
5, 9720, Note_on_c, 3, 55, 80
5, 10072, Note_on_c, 3, 55, 0
5, 10080, Note_on_c, 3, 55, 80
5, 10432, Note_on_c, 3, 55, 0
5, 10440, Note_on_c, 3, 54, 80
5, 10545, Note_on_c, 3, 54, 0
5, 10560, Note_on_c, 3, 55, 80
5, 10612, Note_on_c, 3, 55, 0
5, 10620, Note_on_c, 3, 46, 80
5, 10672, Note_on_c, 3, 46, 0
5, 10680, Note_on_c, 3, 50, 80
5, 10732, Note_on_c, 3, 50, 0
5, 10740, Note_on_c, 3, 43, 80
5, 10860, Control_c, 3, 7, 90
5, 10861, Control_c, 3, 7, 88
5, 10862, Control_c, 3, 7, 87
5, 10863, Control_c, 3, 7, 85
5, 10864, Control_c, 3, 7, 84
5, 10865, Control_c, 3, 7, 82
5, 10866, Control_c, 3, 7, 81
5, 10867, Control_c, 3, 7, 80
5, 10868, Control_c, 3, 7, 78
5, 10869, Control_c, 3, 7, 77
5, 10870, Control_c, 3, 7, 75
5, 10871, Control_c, 3, 7, 74
5, 10872, Control_c, 3, 7, 73
5, 10873, Control_c, 3, 7, 71
5, 10874, Control_c, 3, 7, 70
5, 10875, Control_c, 3, 7, 68
5, 10876, Control_c, 3, 7, 67
5, 10877, Control_c, 3, 7, 65
5, 10878, Control_c, 3, 7, 64
5, 10879, Control_c, 3, 7, 63
5, 10880, Control_c, 3, 7, 61
5, 10881, Control_c, 3, 7, 60
5, 10882, Control_c, 3, 7, 58
5, 10883, Control_c, 3, 7, 57
5, 10884, Control_c, 3, 7, 56
5, 10885, Control_c, 3, 7, 54
5, 10886, Control_c, 3, 7, 53
5, 10887, Control_c, 3, 7, 51
5, 10888, Control_c, 3, 7, 50
5, 10889, Control_c, 3, 7, 48
5, 10890, Control_c, 3, 7, 47
5, 10891, Control_c, 3, 7, 46
5, 10892, Control_c, 3, 7, 44
5, 10893, Control_c, 3, 7, 43
5, 10894, Control_c, 3, 7, 41
5, 10895, Control_c, 3, 7, 40
5, 10896, Control_c, 3, 7, 39
5, 10897, Control_c, 3, 7, 37
5, 10898, Control_c, 3, 7, 36
5, 10899, Control_c, 3, 7, 34
5, 10900, Control_c, 3, 7, 33
5, 10901, Control_c, 3, 7, 31
5, 10902, Control_c, 3, 7, 30
5, 10903, Control_c, 3, 7, 29
5, 10904, Control_c, 3, 7, 27
5, 10905, Note_on_c, 3, 43, 0
5, 10905, Control_c, 3, 7, 26
5, 10906, Control_c, 3, 7, 24
5, 10907, Control_c, 3, 7, 23
5, 10908, Control_c, 3, 7, 22
5, 10909, Control_c, 3, 7, 20
5, 10910, Control_c, 3, 7, 19
5, 10911, Control_c, 3, 7, 17
5, 10912, Control_c, 3, 7, 16
5, 10913, Control_c, 3, 7, 14
5, 10914, Control_c, 3, 7, 13
5, 10915, Control_c, 3, 7, 12
5, 10916, Control_c, 3, 7, 10
5, 10917, Control_c, 3, 7, 9
5, 10918, Control_c, 3, 7, 7
5, 10919, Control_c, 3, 7, 6
5, 10920, Control_c, 3, 7, 5
5, 10920, End_track
0, 0, End_of_file
