0, 0, Header, 1, 5, 120
1, 0, Start_track
1, 0, Time_signature, 4, 2, 24, 8
1, 0, Key_signature, 0, "major"
1, 0, Tempo, 1200000
1, 6358, Tempo, 1276595
1, 7202, Tempo, 1276595
1, 7212, Tempo, 1276595
1, 7220, Tempo, 1276595
1, 7232, Tempo, 1304347
1, 7242, Tempo, 1304347
1, 7258, Tempo, 1304347
1, 7268, Tempo, 1304347
1, 7310, Tempo, 1333333
1, 7318, Tempo, 1304347
1, 7324, Tempo, 1304347
1, 7328, Tempo, 1304347
1, 7340, Tempo, 1333333
1, 7376, Tempo, 1333333
1, 7414, Tempo, 1363636
1, 7440, Tempo, 1395348
1, 7444, Tempo, 1428571
1, 7450, Tempo, 1395348
1, 7484, Tempo, 1428571
1, 7492, Tempo, 1463414
1, 7494, Tempo, 1500000
1, 7496, Tempo, 1500000
1, 7498, Tempo, 1538461
1, 7508, Tempo, 1538461
1, 7510, Tempo, 1621621
1, 7514, Tempo, 1714285
1, 7522, Tempo, 1714285
1, 7526, Tempo, 1764705
1, 7528, Tempo, 1818181
1, 7532, Tempo, 1875000
1, 7534, Tempo, 2142857
1, 7536, Tempo, 2142857
1, 7540, Tempo, 2222222
1, 7544, Tempo, 2222222
1, 7548, Tempo, 2400000
1, 7584, Tempo, 2608695
1, 7596, Tempo, 2727272
1, 7604, Tempo, 2727272
1, 7614, Tempo, 2857142
1, 7616, Tempo, 2857142
1, 7620, Tempo, 3000000
1, 7634, Tempo, 2857142
1, 7638, Tempo, 4615384
1, 7642, Tempo, 4615384
1, 7656, Tempo, 4285714
1, 7664, Tempo, 4615384
1, 7664, End_track
2, 0, Start_track
2, 0, MIDI_port, 0
2, 0, Title_t, "Synth Brass"
2, 0, Program_c, 0, 62
2, 0, Control_c, 0, 7, 110
2, 0, Control_c, 0, 10, 1
2, 210, Note_on_c, 0, 82, 80
2, 236, Note_on_c, 0, 82, 0
2, 240, Note_on_c, 0, 72, 80
2, 318, Note_on_c, 0, 72, 0
2, 330, Note_on_c, 0, 81, 80
2, 356, Note_on_c, 0, 81, 0
2, 360, Note_on_c, 0, 70, 80
2, 373, Note_on_c, 0, 70, 0
2, 375, Note_on_c, 0, 74, 80
2, 388, Note_on_c, 0, 74, 0
2, 390, Note_on_c, 0, 76, 80
2, 403, Note_on_c, 0, 76, 0
2, 405, Note_on_c, 0, 78, 80
2, 418, Note_on_c, 0, 78, 0
2, 420, Note_on_c, 0, 79, 80
2, 493, Note_on_c, 0, 79, 0
2, 495, Note_on_c, 0, 79, 80
2, 508, Note_on_c, 0, 79, 0
2, 510, Note_on_c, 0, 80, 80
2, 523, Note_on_c, 0, 80, 0
2, 525, Note_on_c, 0, 79, 80
2, 538, Note_on_c, 0, 79, 0
2, 540, Note_on_c, 0, 77, 80
2, 553, Note_on_c, 0, 77, 0
2, 555, Note_on_c, 0, 75, 80
2, 568, Note_on_c, 0, 75, 0
2, 570, Note_on_c, 0, 77, 80
2, 583, Note_on_c, 0, 77, 0
2, 585, Note_on_c, 0, 74, 80
2, 598, Note_on_c, 0, 74, 0
2, 600, Note_on_c, 0, 75, 80
2, 673, Note_on_c, 0, 75, 0
2, 675, Note_on_c, 0, 84, 80
2, 688, Note_on_c, 0, 84, 0
2, 690, Note_on_c, 0, 82, 80
2, 703, Note_on_c, 0, 82, 0
2, 705, Note_on_c, 0, 84, 80
2, 718, Note_on_c, 0, 84, 0
2, 720, Note_on_c, 0, 74, 80
2, 793, Note_on_c, 0, 74, 0
2, 795, Note_on_c, 0, 82, 80
2, 808, Note_on_c, 0, 82, 0
2, 810, Note_on_c, 0, 81, 80
2, 823, Note_on_c, 0, 81, 0
2, 825, Note_on_c, 0, 82, 80
2, 838, Note_on_c, 0, 82, 0
2, 840, Note_on_c, 0, 72, 80
2, 853, Note_on_c, 0, 72, 0
2, 855, Note_on_c, 0, 76, 80
2, 868, Note_on_c, 0, 76, 0
2, 870, Note_on_c, 0, 78, 80
2, 883, Note_on_c, 0, 78, 0
2, 885, Note_on_c, 0, 79, 80
2, 898, Note_on_c, 0, 79, 0
2, 900, Note_on_c, 0, 81, 80
2, 973, Note_on_c, 0, 81, 0
2, 975, Note_on_c, 0, 78, 80
2, 988, Note_on_c, 0, 78, 0
2, 990, Note_on_c, 0, 79, 80
2, 1003, Note_on_c, 0, 79, 0
2, 1005, Note_on_c, 0, 81, 80
2, 1018, Note_on_c, 0, 81, 0
2, 1020, Note_on_c, 0, 72, 80
2, 1093, Note_on_c, 0, 72, 0
2, 1095, Note_on_c, 0, 66, 80
2, 1108, Note_on_c, 0, 66, 0
2, 1110, Note_on_c, 0, 67, 80
2, 1123, Note_on_c, 0, 67, 0
2, 1125, Note_on_c, 0, 69, 80
2, 1138, Note_on_c, 0, 69, 0
2, 1140, Note_on_c, 0, 70, 80
2, 1226, Note_on_c, 0, 70, 0
2, 1230, Note_on_c, 0, 72, 80
2, 1243, Note_on_c, 0, 72, 0
2, 1245, Note_on_c, 0, 70, 80
2, 1258, Note_on_c, 0, 70, 0
2, 1260, Note_on_c, 0, 69, 80
2, 1273, Note_on_c, 0, 69, 0
2, 1275, Note_on_c, 0, 70, 80
2, 1288, Note_on_c, 0, 70, 0
2, 1290, Note_on_c, 0, 67, 80
2, 1303, Note_on_c, 0, 67, 0
2, 1305, Note_on_c, 0, 69, 80
2, 1318, Note_on_c, 0, 69, 0
2, 1320, Note_on_c, 0, 70, 80
2, 1398, Note_on_c, 0, 70, 0
2, 1410, Note_on_c, 0, 77, 80
2, 1436, Note_on_c, 0, 77, 0
2, 1440, Note_on_c, 0, 68, 80
2, 1518, Note_on_c, 0, 68, 0
2, 1530, Note_on_c, 0, 74, 80
2, 1556, Note_on_c, 0, 74, 0
2, 1560, Note_on_c, 0, 63, 80
2, 1573, Note_on_c, 0, 63, 0
2, 1575, Note_on_c, 0, 67, 80
2, 1588, Note_on_c, 0, 67, 0
2, 1590, Note_on_c, 0, 69, 80
2, 1603, Note_on_c, 0, 69, 0
2, 1605, Note_on_c, 0, 70, 80
2, 1618, Note_on_c, 0, 70, 0
2, 1620, Note_on_c, 0, 72, 80
2, 1693, Note_on_c, 0, 72, 0
2, 1695, Note_on_c, 0, 65, 80
2, 1708, Note_on_c, 0, 65, 0
2, 1710, Note_on_c, 0, 67, 80
2, 1723, Note_on_c, 0, 67, 0
2, 1725, Note_on_c, 0, 69, 80
2, 1738, Note_on_c, 0, 69, 0
2, 1740, Note_on_c, 0, 70, 80
2, 1873, Note_on_c, 0, 70, 0
2, 1875, Note_on_c, 0, 75, 80
2, 1888, Note_on_c, 0, 75, 0
2, 1890, Note_on_c, 0, 74, 80
2, 1903, Note_on_c, 0, 74, 0
2, 1905, Note_on_c, 0, 75, 80
2, 1918, Note_on_c, 0, 75, 0
2, 1920, Note_on_c, 0, 68, 80
2, 1993, Note_on_c, 0, 68, 0
2, 1995, Note_on_c, 0, 72, 80
2, 2008, Note_on_c, 0, 72, 0
2, 2010, Note_on_c, 0, 70, 80
2, 2023, Note_on_c, 0, 70, 0
2, 2025, Note_on_c, 0, 72, 80
2, 2038, Note_on_c, 0, 72, 0
2, 2040, Note_on_c, 0, 65, 80
2, 2113, Note_on_c, 0, 65, 0
2, 2115, Note_on_c, 0, 65, 80
2, 2128, Note_on_c, 0, 65, 0
2, 2130, Note_on_c, 0, 63, 80
2, 2143, Note_on_c, 0, 63, 0
2, 2145, Note_on_c, 0, 62, 80
2, 2158, Note_on_c, 0, 62, 0
2, 2160, Note_on_c, 0, 63, 80
2, 2233, Note_on_c, 0, 63, 0
2, 2235, Note_on_c, 0, 63, 80
2, 2248, Note_on_c, 0, 63, 0
2, 2250, Note_on_c, 0, 62, 80
2, 2263, Note_on_c, 0, 62, 0
2, 2265, Note_on_c, 0, 60, 80
2, 2278, Note_on_c, 0, 60, 0
2, 2280, Note_on_c, 0, 62, 80
2, 2293, Note_on_c, 0, 62, 0
2, 2295, Note_on_c, 0, 66, 80
2, 2308, Note_on_c, 0, 66, 0
2, 2310, Note_on_c, 0, 67, 80
2, 2323, Note_on_c, 0, 67, 0
2, 2325, Note_on_c, 0, 69, 80
2, 2338, Note_on_c, 0, 69, 0
2, 2340, Note_on_c, 0, 70, 80
2, 2413, Note_on_c, 0, 70, 0
2, 2415, Note_on_c, 0, 70, 80
2, 2428, Note_on_c, 0, 70, 0
2, 2430, Note_on_c, 0, 69, 80
2, 2443, Note_on_c, 0, 69, 0
2, 2445, Note_on_c, 0, 67, 80
2, 2458, Note_on_c, 0, 67, 0
2, 2460, Note_on_c, 0, 69, 80
2, 2533, Note_on_c, 0, 69, 0
2, 2535, Note_on_c, 0, 81, 80
2, 2548, Note_on_c, 0, 81, 0
2, 2550, Note_on_c, 0, 79, 80
2, 2563, Note_on_c, 0, 79, 0
2, 2565, Note_on_c, 0, 78, 80
2, 2578, Note_on_c, 0, 78, 0
2, 2580, Note_on_c, 0, 79, 80
2, 2653, Note_on_c, 0, 79, 0
2, 2655, Note_on_c, 0, 79, 80
2, 2668, Note_on_c, 0, 79, 0
2, 2670, Note_on_c, 0, 77, 80
2, 2683, Note_on_c, 0, 77, 0
2, 2685, Note_on_c, 0, 75, 80
2, 2698, Note_on_c, 0, 75, 0
2, 2700, Note_on_c, 0, 77, 80
2, 2773, Note_on_c, 0, 77, 0
2, 2775, Note_on_c, 0, 77, 80
2, 2788, Note_on_c, 0, 77, 0
2, 2790, Note_on_c, 0, 75, 80
2, 2803, Note_on_c, 0, 75, 0
2, 2805, Note_on_c, 0, 74, 80
2, 2818, Note_on_c, 0, 74, 0
2, 2820, Note_on_c, 0, 75, 80
2, 2893, Note_on_c, 0, 75, 0
2, 2895, Note_on_c, 0, 75, 80
2, 2908, Note_on_c, 0, 75, 0
2, 2910, Note_on_c, 0, 74, 80
2, 2923, Note_on_c, 0, 74, 0
2, 2925, Note_on_c, 0, 72, 80
2, 2938, Note_on_c, 0, 72, 0
2, 2940, Note_on_c, 0, 74, 80
2, 3013, Note_on_c, 0, 74, 0
2, 3015, Note_on_c, 0, 67, 80
2, 3028, Note_on_c, 0, 67, 0
2, 3030, Note_on_c, 0, 69, 80
2, 3043, Note_on_c, 0, 69, 0
2, 3045, Note_on_c, 0, 71, 80
2, 3058, Note_on_c, 0, 71, 0
2, 3060, Note_on_c, 0, 72, 80
2, 3146, Note_on_c, 0, 72, 0
2, 3150, Note_on_c, 0, 74, 80
2, 3163, Note_on_c, 0, 74, 0
2, 3165, Note_on_c, 0, 72, 80
2, 3178, Note_on_c, 0, 72, 0
2, 3180, Note_on_c, 0, 71, 80
2, 3193, Note_on_c, 0, 71, 0
2, 3195, Note_on_c, 0, 72, 80
2, 3208, Note_on_c, 0, 72, 0
2, 3210, Note_on_c, 0, 69, 80
2, 3223, Note_on_c, 0, 69, 0
2, 3225, Note_on_c, 0, 71, 80
2, 3238, Note_on_c, 0, 71, 0
2, 3240, Note_on_c, 0, 72, 80
2, 3318, Note_on_c, 0, 72, 0
2, 3330, Note_on_c, 0, 75, 80
2, 3356, Note_on_c, 0, 75, 0
2, 3360, Note_on_c, 0, 65, 80
2, 3438, Note_on_c, 0, 65, 0
2, 3450, Note_on_c, 0, 74, 80
2, 3476, Note_on_c, 0, 74, 0
2, 3480, Note_on_c, 0, 63, 80
2, 3493, Note_on_c, 0, 63, 0
2, 3495, Note_on_c, 0, 67, 80
2, 3508, Note_on_c, 0, 67, 0
2, 3510, Note_on_c, 0, 69, 80
2, 3523, Note_on_c, 0, 69, 0
2, 3525, Note_on_c, 0, 71, 80
2, 3538, Note_on_c, 0, 71, 0
2, 3540, Note_on_c, 0, 72, 80
2, 3613, Note_on_c, 0, 72, 0
2, 3615, Note_on_c, 0, 71, 80
2, 3628, Note_on_c, 0, 71, 0
2, 3630, Note_on_c, 0, 72, 80
2, 3643, Note_on_c, 0, 72, 0
2, 3645, Note_on_c, 0, 74, 80
2, 3658, Note_on_c, 0, 74, 0
2, 3660, Note_on_c, 0, 75, 80
2, 3733, Note_on_c, 0, 75, 0
2, 3735, Note_on_c, 0, 75, 80
2, 3748, Note_on_c, 0, 75, 0
2, 3750, Note_on_c, 0, 74, 80
2, 3763, Note_on_c, 0, 74, 0
2, 3765, Note_on_c, 0, 72, 80
2, 3778, Note_on_c, 0, 72, 0
2, 3780, Note_on_c, 0, 71, 80
2, 3793, Note_on_c, 0, 71, 0
2, 3795, Note_on_c, 0, 72, 80
2, 3808, Note_on_c, 0, 72, 0
2, 3810, Note_on_c, 0, 69, 80
2, 3823, Note_on_c, 0, 69, 0
2, 3825, Note_on_c, 0, 71, 80
2, 3838, Note_on_c, 0, 71, 0
2, 3840, Note_on_c, 0, 72, 80
2, 4033, Note_on_c, 0, 72, 0
2, 4035, Note_on_c, 0, 80, 80
2, 4048, Note_on_c, 0, 80, 0
2, 4050, Note_on_c, 0, 79, 80
2, 4063, Note_on_c, 0, 79, 0
2, 4065, Note_on_c, 0, 80, 80
2, 4078, Note_on_c, 0, 80, 0
2, 4080, Note_on_c, 0, 71, 80
2, 4153, Note_on_c, 0, 71, 0
2, 4155, Note_on_c, 0, 74, 80
2, 4168, Note_on_c, 0, 74, 0
2, 4170, Note_on_c, 0, 72, 80
2, 4183, Note_on_c, 0, 72, 0
2, 4185, Note_on_c, 0, 71, 80
2, 4198, Note_on_c, 0, 71, 0
2, 4200, Note_on_c, 0, 72, 80
2, 4213, Note_on_c, 0, 72, 0
2, 4215, Note_on_c, 0, 71, 80
2, 4228, Note_on_c, 0, 71, 0
2, 4230, Note_on_c, 0, 72, 80
2, 4243, Note_on_c, 0, 72, 0
2, 4245, Note_on_c, 0, 74, 80
2, 4258, Note_on_c, 0, 74, 0
2, 4260, Note_on_c, 0, 75, 80
2, 4333, Note_on_c, 0, 75, 0
2, 4335, Note_on_c, 0, 77, 80
2, 4348, Note_on_c, 0, 77, 0
2, 4350, Note_on_c, 0, 75, 80
2, 4363, Note_on_c, 0, 75, 0
2, 4365, Note_on_c, 0, 74, 80
2, 4378, Note_on_c, 0, 74, 0
2, 4380, Note_on_c, 0, 72, 80
2, 4393, Note_on_c, 0, 72, 0
2, 4395, Note_on_c, 0, 70, 80
2, 4408, Note_on_c, 0, 70, 0
2, 4410, Note_on_c, 0, 72, 80
2, 4423, Note_on_c, 0, 72, 0
2, 4425, Note_on_c, 0, 69, 80
2, 4438, Note_on_c, 0, 69, 0
2, 4440, Note_on_c, 0, 70, 80
2, 4453, Note_on_c, 0, 70, 0
2, 4455, Note_on_c, 0, 74, 87
2, 4468, Note_on_c, 0, 74, 0
2, 4470, Note_on_c, 0, 76, 96
2, 4483, Note_on_c, 0, 76, 0
2, 4485, Note_on_c, 0, 78, 98
2, 4498, Note_on_c, 0, 78, 0
2, 4500, Note_on_c, 0, 79, 102
2, 4586, Note_on_c, 0, 79, 0
2, 4590, Note_on_c, 0, 81, 101
2, 4603, Note_on_c, 0, 81, 0
2, 4605, Note_on_c, 0, 79, 101
2, 4618, Note_on_c, 0, 79, 0
2, 4620, Note_on_c, 0, 78, 100
2, 4633, Note_on_c, 0, 78, 0
2, 4635, Note_on_c, 0, 79, 98
2, 4648, Note_on_c, 0, 79, 0
2, 4650, Note_on_c, 0, 76, 97
2, 4663, Note_on_c, 0, 76, 0
2, 4665, Note_on_c, 0, 78, 98
2, 4678, Note_on_c, 0, 78, 0
2, 4680, Note_on_c, 0, 79, 100
2, 4758, Note_on_c, 0, 79, 0
2, 4770, Note_on_c, 0, 82, 96
2, 4796, Note_on_c, 0, 82, 0
2, 4800, Note_on_c, 0, 74, 95
2, 4878, Note_on_c, 0, 74, 0
2, 4890, Note_on_c, 0, 79, 94
2, 4916, Note_on_c, 0, 79, 0
2, 4920, Note_on_c, 0, 67, 93
2, 4933, Note_on_c, 0, 67, 0
2, 4935, Note_on_c, 0, 71, 93
2, 4948, Note_on_c, 0, 71, 0
2, 4950, Note_on_c, 0, 72, 93
2, 4963, Note_on_c, 0, 72, 0
2, 4965, Note_on_c, 0, 74, 92
2, 4978, Note_on_c, 0, 74, 0
2, 4980, Note_on_c, 0, 75, 91
2, 5053, Note_on_c, 0, 75, 0
2, 5055, Note_on_c, 0, 74, 92
2, 5068, Note_on_c, 0, 74, 0
2, 5070, Note_on_c, 0, 76, 93
2, 5083, Note_on_c, 0, 76, 0
2, 5085, Note_on_c, 0, 78, 91
2, 5098, Note_on_c, 0, 78, 0
2, 5100, Note_on_c, 0, 79, 89
2, 5173, Note_on_c, 0, 79, 0
2, 5175, Note_on_c, 0, 78, 89
2, 5188, Note_on_c, 0, 78, 0
2, 5190, Note_on_c, 0, 79, 88
2, 5203, Note_on_c, 0, 79, 0
2, 5205, Note_on_c, 0, 81, 87
2, 5218, Note_on_c, 0, 81, 0
2, 5220, Note_on_c, 0, 72, 87
2, 5293, Note_on_c, 0, 72, 0
2, 5295, Note_on_c, 0, 69, 85
2, 5308, Note_on_c, 0, 69, 0
2, 5310, Note_on_c, 0, 70, 84
2, 5323, Note_on_c, 0, 70, 0
2, 5325, Note_on_c, 0, 72, 84
2, 5338, Note_on_c, 0, 72, 0
2, 5340, Note_on_c, 0, 66, 82
2, 5478, Note_on_c, 0, 66, 0
2, 5490, Note_on_c, 0, 82, 80
2, 5516, Note_on_c, 0, 82, 0
2, 5520, Note_on_c, 0, 72, 80
2, 5598, Note_on_c, 0, 72, 0
2, 5610, Note_on_c, 0, 81, 80
2, 5636, Note_on_c, 0, 81, 0
2, 5640, Note_on_c, 0, 70, 80
2, 5653, Note_on_c, 0, 70, 0
2, 5655, Note_on_c, 0, 67, 80
2, 5668, Note_on_c, 0, 67, 0
2, 5670, Note_on_c, 0, 69, 80
2, 5683, Note_on_c, 0, 69, 0
2, 5685, Note_on_c, 0, 70, 80
2, 5698, Note_on_c, 0, 70, 0
2, 5700, Note_on_c, 0, 72, 80
2, 5773, Note_on_c, 0, 72, 0
2, 5775, Note_on_c, 0, 66, 80
2, 5788, Note_on_c, 0, 66, 0
2, 5790, Note_on_c, 0, 67, 80
2, 5803, Note_on_c, 0, 67, 0
2, 5805, Note_on_c, 0, 69, 80
2, 5818, Note_on_c, 0, 69, 0
2, 5820, Note_on_c, 0, 70, 80
2, 5893, Note_on_c, 0, 70, 0
2, 5895, Note_on_c, 0, 70, 80
2, 5908, Note_on_c, 0, 70, 0
2, 5910, Note_on_c, 0, 72, 80
2, 5923, Note_on_c, 0, 72, 0
2, 5925, Note_on_c, 0, 74, 80
2, 5938, Note_on_c, 0, 74, 0
2, 5940, Note_on_c, 0, 75, 80
2, 6013, Note_on_c, 0, 75, 0
2, 6015, Note_on_c, 0, 69, 80
2, 6028, Note_on_c, 0, 69, 0
2, 6030, Note_on_c, 0, 70, 80
2, 6043, Note_on_c, 0, 70, 0
2, 6045, Note_on_c, 0, 72, 80
2, 6058, Note_on_c, 0, 72, 0
2, 6060, Note_on_c, 0, 74, 80
2, 6133, Note_on_c, 0, 74, 0
2, 6135, Note_on_c, 0, 67, 80
2, 6148, Note_on_c, 0, 67, 0
2, 6150, Note_on_c, 0, 69, 80
2, 6163, Note_on_c, 0, 69, 0
2, 6165, Note_on_c, 0, 70, 80
2, 6178, Note_on_c, 0, 70, 0
2, 6180, Note_on_c, 0, 72, 80
2, 6253, Note_on_c, 0, 72, 0
2, 6255, Note_on_c, 0, 74, 80
2, 6268, Note_on_c, 0, 74, 0
2, 6270, Note_on_c, 0, 75, 80
2, 6283, Note_on_c, 0, 75, 0
2, 6285, Note_on_c, 0, 74, 80
2, 6298, Note_on_c, 0, 74, 0
2, 6300, Note_on_c, 0, 72, 80
2, 6313, Note_on_c, 0, 72, 0
2, 6315, Note_on_c, 0, 71, 80
2, 6328, Note_on_c, 0, 71, 0
2, 6330, Note_on_c, 0, 72, 80
2, 6343, Note_on_c, 0, 72, 0
2, 6345, Note_on_c, 0, 69, 80
2, 6358, Note_on_c, 0, 69, 0
2, 6360, Note_on_c, 0, 71, 80
2, 6373, Note_on_c, 0, 71, 0
2, 6375, Note_on_c, 0, 74, 100
2, 6388, Note_on_c, 0, 74, 0
2, 6390, Note_on_c, 0, 75, 100
2, 6403, Note_on_c, 0, 75, 0
2, 6405, Note_on_c, 0, 77, 100
2, 6418, Note_on_c, 0, 77, 0
2, 6420, Note_on_c, 0, 79, 100
2, 6493, Note_on_c, 0, 79, 0
2, 6495, Note_on_c, 0, 75, 101
2, 6508, Note_on_c, 0, 75, 0
2, 6510, Note_on_c, 0, 74, 101
2, 6523, Note_on_c, 0, 74, 0
2, 6525, Note_on_c, 0, 72, 101
2, 6538, Note_on_c, 0, 72, 0
2, 6540, Note_on_c, 0, 77, 101
2, 6613, Note_on_c, 0, 77, 0
2, 6615, Note_on_c, 0, 71, 100
2, 6628, Note_on_c, 0, 71, 0
2, 6630, Note_on_c, 0, 72, 100
2, 6643, Note_on_c, 0, 72, 0
2, 6645, Note_on_c, 0, 74, 100
2, 6658, Note_on_c, 0, 74, 0
2, 6660, Note_on_c, 0, 75, 100
2, 6733, Note_on_c, 0, 75, 0
2, 6735, Note_on_c, 0, 68, 101
2, 6748, Note_on_c, 0, 68, 0
2, 6750, Note_on_c, 0, 67, 100
2, 6763, Note_on_c, 0, 67, 0
2, 6765, Note_on_c, 0, 65, 99
2, 6778, Note_on_c, 0, 65, 0
2, 6780, Note_on_c, 0, 74, 99
2, 6853, Note_on_c, 0, 74, 0
2, 6855, Note_on_c, 0, 72, 99
2, 6868, Note_on_c, 0, 72, 0
2, 6870, Note_on_c, 0, 71, 98
2, 6883, Note_on_c, 0, 71, 0
2, 6885, Note_on_c, 0, 69, 98
2, 6898, Note_on_c, 0, 69, 0
2, 6900, Note_on_c, 0, 67, 98
2, 6913, Note_on_c, 0, 67, 0
2, 6915, Note_on_c, 0, 65, 99
2, 6928, Note_on_c, 0, 65, 0
2, 6930, Note_on_c, 0, 63, 99
2, 6943, Note_on_c, 0, 63, 0
2, 6945, Note_on_c, 0, 62, 99
2, 6958, Note_on_c, 0, 62, 0
2, 6960, Note_on_c, 0, 63, 99
2, 7012, Note_on_c, 0, 63, 0
2, 7020, Note_on_c, 0, 75, 100
2, 7093, Note_on_c, 0, 75, 0
2, 7095, Note_on_c, 0, 72, 101
2, 7108, Note_on_c, 0, 72, 0
2, 7110, Note_on_c, 0, 71, 100
2, 7123, Note_on_c, 0, 71, 0
2, 7125, Note_on_c, 0, 69, 100
2, 7138, Note_on_c, 0, 69, 0
2, 7140, Note_on_c, 0, 74, 100
2, 7153, Note_on_c, 0, 74, 0
2, 7155, Note_on_c, 0, 71, 100
2, 7168, Note_on_c, 0, 71, 0
2, 7170, Note_on_c, 0, 69, 100
2, 7183, Note_on_c, 0, 69, 0
2, 7185, Note_on_c, 0, 67, 100
2, 7198, Note_on_c, 0, 67, 0
2, 7200, Note_on_c, 0, 72, 100
2, 7213, Note_on_c, 0, 72, 0
2, 7215, Note_on_c, 0, 69, 100
2, 7228, Note_on_c, 0, 69, 0
2, 7230, Note_on_c, 0, 67, 100
2, 7243, Note_on_c, 0, 67, 0
2, 7245, Note_on_c, 0, 66, 101
2, 7258, Note_on_c, 0, 66, 0
2, 7260, Note_on_c, 0, 71, 102
2, 7273, Note_on_c, 0, 71, 0
2, 7275, Note_on_c, 0, 67, 102
2, 7288, Note_on_c, 0, 67, 0
2, 7290, Note_on_c, 0, 66, 101
2, 7303, Note_on_c, 0, 66, 0
2, 7305, Note_on_c, 0, 64, 100
2, 7318, Note_on_c, 0, 64, 0
2, 7320, Note_on_c, 0, 69, 100
2, 7333, Note_on_c, 0, 69, 0
2, 7335, Note_on_c, 0, 66, 100
2, 7348, Note_on_c, 0, 66, 0
2, 7350, Note_on_c, 0, 75, 100
2, 7363, Note_on_c, 0, 75, 0
2, 7365, Note_on_c, 0, 66, 100
2, 7378, Note_on_c, 0, 66, 0
2, 7380, Note_on_c, 0, 69, 100
2, 7393, Note_on_c, 0, 69, 0
2, 7395, Note_on_c, 0, 66, 100
2, 7408, Note_on_c, 0, 66, 0
2, 7410, Note_on_c, 0, 75, 100
2, 7423, Note_on_c, 0, 75, 0
2, 7425, Note_on_c, 0, 66, 100
2, 7438, Note_on_c, 0, 66, 0
2, 7440, Note_on_c, 0, 69, 100
2, 7453, Note_on_c, 0, 69, 0
2, 7455, Note_on_c, 0, 66, 100
2, 7468, Note_on_c, 0, 66, 0
2, 7470, Note_on_c, 0, 75, 100
2, 7483, Note_on_c, 0, 75, 0
2, 7485, Note_on_c, 0, 66, 100
2, 7498, Note_on_c, 0, 66, 0
2, 7500, Note_on_c, 0, 69, 100
2, 7513, Note_on_c, 0, 69, 0
2, 7515, Note_on_c, 0, 66, 100
2, 7528, Note_on_c, 0, 66, 0
2, 7530, Note_on_c, 0, 75, 100
2, 7543, Note_on_c, 0, 75, 0
2, 7545, Note_on_c, 0, 66, 100
2, 7558, Note_on_c, 0, 66, 0
2, 7560, Note_on_c, 0, 67, 100
2, 7560, Note_on_c, 0, 74, 100
2, 7665, Note_on_c, 0, 74, 0
2, 7665, Note_on_c, 0, 67, 0
2, 7665, End_track
3, 0, Start_track
3, 0, MIDI_port, 0
3, 0, Title_t, "Lead 2(sawtooth)"
3, 0, Program_c, 1, 81
3, 0, Control_c, 1, 7, 95
3, 0, Control_c, 1, 10, 126
3, 135, Note_on_c, 1, 62, 80
3, 148, Note_on_c, 1, 62, 0
3, 150, Note_on_c, 1, 64, 80
3, 163, Note_on_c, 1, 64, 0
3, 165, Note_on_c, 1, 66, 80
3, 178, Note_on_c, 1, 66, 0
3, 180, Note_on_c, 1, 67, 80
3, 266, Note_on_c, 1, 67, 0
3, 270, Note_on_c, 1, 69, 80
3, 283, Note_on_c, 1, 69, 0
3, 285, Note_on_c, 1, 67, 80
3, 298, Note_on_c, 1, 67, 0
3, 300, Note_on_c, 1, 66, 80
3, 313, Note_on_c, 1, 66, 0
3, 315, Note_on_c, 1, 67, 80
3, 328, Note_on_c, 1, 67, 0
3, 330, Note_on_c, 1, 64, 80
3, 343, Note_on_c, 1, 64, 0
3, 345, Note_on_c, 1, 66, 80
3, 358, Note_on_c, 1, 66, 0
3, 360, Note_on_c, 1, 67, 80
3, 438, Note_on_c, 1, 67, 0
3, 450, Note_on_c, 1, 74, 80
3, 476, Note_on_c, 1, 74, 0
3, 480, Note_on_c, 1, 62, 80
3, 558, Note_on_c, 1, 62, 0
3, 570, Note_on_c, 1, 67, 80
3, 596, Note_on_c, 1, 67, 0
3, 600, Note_on_c, 1, 60, 80
3, 613, Note_on_c, 1, 60, 0
3, 615, Note_on_c, 1, 63, 80
3, 628, Note_on_c, 1, 63, 0
3, 630, Note_on_c, 1, 65, 80
3, 643, Note_on_c, 1, 65, 0
3, 645, Note_on_c, 1, 67, 80
3, 658, Note_on_c, 1, 67, 0
3, 660, Note_on_c, 1, 69, 80
3, 733, Note_on_c, 1, 69, 0
3, 735, Note_on_c, 1, 62, 80
3, 748, Note_on_c, 1, 62, 0
3, 750, Note_on_c, 1, 64, 80
3, 763, Note_on_c, 1, 64, 0
3, 765, Note_on_c, 1, 66, 80
3, 778, Note_on_c, 1, 66, 0
3, 780, Note_on_c, 1, 67, 80
3, 913, Note_on_c, 1, 67, 0
3, 915, Note_on_c, 1, 72, 80
3, 928, Note_on_c, 1, 72, 0
3, 930, Note_on_c, 1, 70, 80
3, 943, Note_on_c, 1, 70, 0
3, 945, Note_on_c, 1, 72, 80
3, 958, Note_on_c, 1, 72, 0
3, 960, Note_on_c, 1, 66, 80
3, 1033, Note_on_c, 1, 66, 0
3, 1035, Note_on_c, 1, 69, 80
3, 1048, Note_on_c, 1, 69, 0
3, 1050, Note_on_c, 1, 67, 80
3, 1063, Note_on_c, 1, 67, 0
3, 1065, Note_on_c, 1, 69, 80
3, 1078, Note_on_c, 1, 69, 0
3, 1080, Note_on_c, 1, 62, 80
3, 1158, Note_on_c, 1, 62, 0
3, 1170, Note_on_c, 1, 62, 80
3, 1196, Note_on_c, 1, 62, 0
3, 1200, Note_on_c, 1, 51, 80
3, 1278, Note_on_c, 1, 51, 0
3, 1290, Note_on_c, 1, 60, 80
3, 1316, Note_on_c, 1, 60, 0
3, 1320, Note_on_c, 1, 50, 80
3, 1333, Note_on_c, 1, 50, 0
3, 1335, Note_on_c, 1, 53, 80
3, 1348, Note_on_c, 1, 53, 0
3, 1350, Note_on_c, 1, 55, 80
3, 1363, Note_on_c, 1, 55, 0
3, 1365, Note_on_c, 1, 57, 80
3, 1378, Note_on_c, 1, 57, 0
3, 1380, Note_on_c, 1, 58, 80
3, 1453, Note_on_c, 1, 58, 0
3, 1455, Note_on_c, 1, 60, 80
3, 1468, Note_on_c, 1, 60, 0
3, 1470, Note_on_c, 1, 62, 80
3, 1483, Note_on_c, 1, 62, 0
3, 1485, Note_on_c, 1, 60, 80
3, 1498, Note_on_c, 1, 60, 0
3, 1500, Note_on_c, 1, 58, 80
3, 1513, Note_on_c, 1, 58, 0
3, 1515, Note_on_c, 1, 60, 80
3, 1528, Note_on_c, 1, 60, 0
3, 1530, Note_on_c, 1, 56, 80
3, 1543, Note_on_c, 1, 56, 0
3, 1545, Note_on_c, 1, 58, 80
3, 1558, Note_on_c, 1, 58, 0
3, 1560, Note_on_c, 1, 55, 80
3, 1633, Note_on_c, 1, 55, 0
3, 1635, Note_on_c, 1, 63, 80
3, 1648, Note_on_c, 1, 63, 0
3, 1650, Note_on_c, 1, 62, 80
3, 1663, Note_on_c, 1, 62, 0
3, 1665, Note_on_c, 1, 63, 80
3, 1678, Note_on_c, 1, 63, 0
3, 1680, Note_on_c, 1, 53, 80
3, 1753, Note_on_c, 1, 53, 0
3, 1755, Note_on_c, 1, 62, 80
3, 1768, Note_on_c, 1, 62, 0
3, 1770, Note_on_c, 1, 60, 80
3, 1783, Note_on_c, 1, 60, 0
3, 1785, Note_on_c, 1, 62, 80
3, 1798, Note_on_c, 1, 62, 0
3, 1800, Note_on_c, 1, 51, 80
3, 1813, Note_on_c, 1, 51, 0
3, 1815, Note_on_c, 1, 55, 80
3, 1828, Note_on_c, 1, 55, 0
3, 1830, Note_on_c, 1, 57, 80
3, 1843, Note_on_c, 1, 57, 0
3, 1845, Note_on_c, 1, 58, 80
3, 1858, Note_on_c, 1, 58, 0
3, 1860, Note_on_c, 1, 60, 80
3, 1933, Note_on_c, 1, 60, 0
3, 1935, Note_on_c, 1, 56, 80
3, 1948, Note_on_c, 1, 56, 0
3, 1950, Note_on_c, 1, 58, 80
3, 1963, Note_on_c, 1, 58, 0
3, 1965, Note_on_c, 1, 60, 80
3, 1978, Note_on_c, 1, 60, 0
3, 1980, Note_on_c, 1, 51, 80
3, 2053, Note_on_c, 1, 51, 0
3, 2055, Note_on_c, 1, 50, 80
3, 2068, Note_on_c, 1, 50, 0
3, 2070, Note_on_c, 1, 51, 80
3, 2083, Note_on_c, 1, 51, 0
3, 2085, Note_on_c, 1, 53, 80
3, 2098, Note_on_c, 1, 53, 0
3, 2100, Note_on_c, 1, 55, 80
3, 2173, Note_on_c, 1, 55, 0
3, 2175, Note_on_c, 1, 53, 80
3, 2188, Note_on_c, 1, 53, 0
3, 2190, Note_on_c, 1, 55, 80
3, 2203, Note_on_c, 1, 55, 0
3, 2205, Note_on_c, 1, 57, 80
3, 2218, Note_on_c, 1, 57, 0
3, 2220, Note_on_c, 1, 58, 80
3, 2353, Note_on_c, 1, 58, 0
3, 2355, Note_on_c, 1, 55, 80
3, 2368, Note_on_c, 1, 55, 0
3, 2370, Note_on_c, 1, 57, 80
3, 2383, Note_on_c, 1, 57, 0
3, 2385, Note_on_c, 1, 58, 80
3, 2398, Note_on_c, 1, 58, 0
3, 2400, Note_on_c, 1, 60, 80
3, 2473, Note_on_c, 1, 60, 0
3, 2475, Note_on_c, 1, 60, 80
3, 2488, Note_on_c, 1, 60, 0
3, 2490, Note_on_c, 1, 58, 80
3, 2503, Note_on_c, 1, 58, 0
3, 2505, Note_on_c, 1, 57, 80
3, 2518, Note_on_c, 1, 57, 0
3, 2520, Note_on_c, 1, 58, 80
3, 2593, Note_on_c, 1, 58, 0
3, 2595, Note_on_c, 1, 70, 80
3, 2608, Note_on_c, 1, 70, 0
3, 2610, Note_on_c, 1, 69, 80
3, 2623, Note_on_c, 1, 69, 0
3, 2625, Note_on_c, 1, 67, 80
3, 2638, Note_on_c, 1, 67, 0
3, 2640, Note_on_c, 1, 69, 80
3, 2713, Note_on_c, 1, 69, 0
3, 2715, Note_on_c, 1, 67, 80
3, 2728, Note_on_c, 1, 67, 0
3, 2730, Note_on_c, 1, 69, 80
3, 2743, Note_on_c, 1, 69, 0
3, 2745, Note_on_c, 1, 71, 80
3, 2758, Note_on_c, 1, 71, 0
3, 2760, Note_on_c, 1, 72, 80
3, 2833, Note_on_c, 1, 72, 0
3, 2835, Note_on_c, 1, 60, 80
3, 2848, Note_on_c, 1, 60, 0
3, 2850, Note_on_c, 1, 62, 80
3, 2863, Note_on_c, 1, 62, 0
3, 2865, Note_on_c, 1, 63, 80
3, 2878, Note_on_c, 1, 63, 0
3, 2880, Note_on_c, 1, 65, 80
3, 2953, Note_on_c, 1, 65, 0
3, 2955, Note_on_c, 1, 65, 80
3, 2968, Note_on_c, 1, 65, 0
3, 2970, Note_on_c, 1, 63, 80
3, 2983, Note_on_c, 1, 63, 0
3, 2985, Note_on_c, 1, 62, 80
3, 2998, Note_on_c, 1, 62, 0
3, 3000, Note_on_c, 1, 63, 80
3, 3078, Note_on_c, 1, 63, 0
3, 3090, Note_on_c, 1, 63, 80
3, 3116, Note_on_c, 1, 63, 0
3, 3120, Note_on_c, 1, 53, 80
3, 3198, Note_on_c, 1, 53, 0
3, 3210, Note_on_c, 1, 62, 80
3, 3236, Note_on_c, 1, 62, 0
3, 3240, Note_on_c, 1, 51, 80
3, 3253, Note_on_c, 1, 51, 0
3, 3255, Note_on_c, 1, 55, 80
3, 3268, Note_on_c, 1, 55, 0
3, 3270, Note_on_c, 1, 57, 80
3, 3283, Note_on_c, 1, 57, 0
3, 3285, Note_on_c, 1, 59, 80
3, 3298, Note_on_c, 1, 59, 0
3, 3300, Note_on_c, 1, 60, 80
3, 3386, Note_on_c, 1, 60, 0
3, 3390, Note_on_c, 1, 62, 80
3, 3403, Note_on_c, 1, 62, 0
3, 3405, Note_on_c, 1, 60, 80
3, 3418, Note_on_c, 1, 60, 0
3, 3420, Note_on_c, 1, 59, 80
3, 3433, Note_on_c, 1, 59, 0
3, 3435, Note_on_c, 1, 60, 80
3, 3448, Note_on_c, 1, 60, 0
3, 3450, Note_on_c, 1, 57, 80
3, 3463, Note_on_c, 1, 57, 0
3, 3465, Note_on_c, 1, 59, 80
3, 3478, Note_on_c, 1, 59, 0
3, 3480, Note_on_c, 1, 60, 80
3, 3553, Note_on_c, 1, 60, 0
3, 3555, Note_on_c, 1, 63, 80
3, 3568, Note_on_c, 1, 63, 0
3, 3570, Note_on_c, 1, 62, 80
3, 3583, Note_on_c, 1, 62, 0
3, 3585, Note_on_c, 1, 63, 80
3, 3598, Note_on_c, 1, 63, 0
3, 3600, Note_on_c, 1, 55, 80
3, 3673, Note_on_c, 1, 55, 0
3, 3675, Note_on_c, 1, 60, 80
3, 3688, Note_on_c, 1, 60, 0
3, 3690, Note_on_c, 1, 59, 80
3, 3703, Note_on_c, 1, 59, 0
3, 3705, Note_on_c, 1, 60, 80
3, 3718, Note_on_c, 1, 60, 0
3, 3720, Note_on_c, 1, 53, 80
3, 3853, Note_on_c, 1, 53, 0
3, 3855, Note_on_c, 1, 56, 80
3, 3868, Note_on_c, 1, 56, 0
3, 3870, Note_on_c, 1, 55, 80
3, 3883, Note_on_c, 1, 55, 0
3, 3885, Note_on_c, 1, 53, 80
3, 3898, Note_on_c, 1, 53, 0
3, 3900, Note_on_c, 1, 51, 80
3, 3913, Note_on_c, 1, 51, 0
3, 3915, Note_on_c, 1, 53, 80
3, 3928, Note_on_c, 1, 53, 0
3, 3930, Note_on_c, 1, 50, 80
3, 3943, Note_on_c, 1, 50, 0
3, 3945, Note_on_c, 1, 51, 80
3, 3958, Note_on_c, 1, 51, 0
3, 3960, Note_on_c, 1, 53, 80
3, 3973, Note_on_c, 1, 53, 0
3, 3975, Note_on_c, 1, 51, 80
3, 3988, Note_on_c, 1, 51, 0
3, 3990, Note_on_c, 1, 53, 80
3, 4003, Note_on_c, 1, 53, 0
3, 4005, Note_on_c, 1, 55, 80
3, 4018, Note_on_c, 1, 55, 0
3, 4020, Note_on_c, 1, 56, 80
3, 4093, Note_on_c, 1, 56, 0
3, 4095, Note_on_c, 1, 53, 80
3, 4108, Note_on_c, 1, 53, 0
3, 4110, Note_on_c, 1, 55, 80
3, 4123, Note_on_c, 1, 55, 0
3, 4125, Note_on_c, 1, 56, 80
3, 4138, Note_on_c, 1, 56, 0
3, 4140, Note_on_c, 1, 50, 80
3, 4153, Note_on_c, 1, 50, 0
3, 4155, Note_on_c, 1, 53, 80
3, 4168, Note_on_c, 1, 53, 0
3, 4170, Note_on_c, 1, 51, 80
3, 4183, Note_on_c, 1, 51, 0
3, 4185, Note_on_c, 1, 50, 80
3, 4198, Note_on_c, 1, 50, 0
3, 4200, Note_on_c, 1, 51, 80
3, 4278, Note_on_c, 1, 51, 0
3, 4290, Note_on_c, 1, 60, 80
3, 4316, Note_on_c, 1, 60, 0
3, 4320, Note_on_c, 1, 54, 80
3, 4398, Note_on_c, 1, 54, 0
3, 4410, Note_on_c, 1, 57, 80
3, 4436, Note_on_c, 1, 57, 0
3, 4440, Note_on_c, 1, 50, 80
3, 4518, Note_on_c, 1, 50, 0
3, 4530, Note_on_c, 1, 70, 92
3, 4556, Note_on_c, 1, 70, 0
3, 4560, Note_on_c, 1, 60, 92
3, 4638, Note_on_c, 1, 60, 0
3, 4650, Note_on_c, 1, 69, 92
3, 4676, Note_on_c, 1, 69, 0
3, 4680, Note_on_c, 1, 58, 92
3, 4693, Note_on_c, 1, 58, 0
3, 4695, Note_on_c, 1, 62, 92
3, 4708, Note_on_c, 1, 62, 0
3, 4710, Note_on_c, 1, 64, 91
3, 4723, Note_on_c, 1, 64, 0
3, 4725, Note_on_c, 1, 66, 91
3, 4738, Note_on_c, 1, 66, 0
3, 4740, Note_on_c, 1, 67, 91
3, 4813, Note_on_c, 1, 67, 0
3, 4815, Note_on_c, 1, 67, 91
3, 4828, Note_on_c, 1, 67, 0
3, 4830, Note_on_c, 1, 68, 91
3, 4843, Note_on_c, 1, 68, 0
3, 4845, Note_on_c, 1, 67, 91
3, 4858, Note_on_c, 1, 67, 0
3, 4860, Note_on_c, 1, 65, 91
3, 4873, Note_on_c, 1, 65, 0
3, 4875, Note_on_c, 1, 63, 91
3, 4888, Note_on_c, 1, 63, 0
3, 4890, Note_on_c, 1, 65, 91
3, 4903, Note_on_c, 1, 65, 0
3, 4905, Note_on_c, 1, 62, 91
3, 4918, Note_on_c, 1, 62, 0
3, 4920, Note_on_c, 1, 63, 91
3, 4993, Note_on_c, 1, 63, 0
3, 4995, Note_on_c, 1, 67, 91
3, 5008, Note_on_c, 1, 67, 0
3, 5010, Note_on_c, 1, 65, 89
3, 5023, Note_on_c, 1, 65, 0
3, 5025, Note_on_c, 1, 67, 89
3, 5038, Note_on_c, 1, 67, 0
3, 5040, Note_on_c, 1, 60, 89
3, 5113, Note_on_c, 1, 60, 0
3, 5115, Note_on_c, 1, 63, 86
3, 5128, Note_on_c, 1, 63, 0
3, 5130, Note_on_c, 1, 62, 85
3, 5143, Note_on_c, 1, 62, 0
3, 5145, Note_on_c, 1, 63, 85
3, 5158, Note_on_c, 1, 63, 0
3, 5160, Note_on_c, 1, 57, 85
3, 5233, Note_on_c, 1, 57, 0
3, 5235, Note_on_c, 1, 60, 84
3, 5248, Note_on_c, 1, 60, 0
3, 5250, Note_on_c, 1, 58, 83
3, 5263, Note_on_c, 1, 58, 0
3, 5265, Note_on_c, 1, 60, 83
3, 5278, Note_on_c, 1, 60, 0
3, 5280, Note_on_c, 1, 54, 81
3, 5353, Note_on_c, 1, 54, 0
3, 5355, Note_on_c, 1, 57, 80
3, 5368, Note_on_c, 1, 57, 0
3, 5370, Note_on_c, 1, 55, 80
3, 5383, Note_on_c, 1, 55, 0
3, 5385, Note_on_c, 1, 57, 80
3, 5398, Note_on_c, 1, 57, 0
3, 5400, Note_on_c, 1, 50, 80
3, 5413, Note_on_c, 1, 50, 0
3, 5415, Note_on_c, 1, 54, 80
3, 5428, Note_on_c, 1, 54, 0
3, 5430, Note_on_c, 1, 55, 80
3, 5443, Note_on_c, 1, 55, 0
3, 5445, Note_on_c, 1, 57, 80
3, 5458, Note_on_c, 1, 57, 0
3, 5460, Note_on_c, 1, 58, 80
3, 5546, Note_on_c, 1, 58, 0
3, 5550, Note_on_c, 1, 57, 80
3, 5563, Note_on_c, 1, 57, 0
3, 5565, Note_on_c, 1, 55, 80
3, 5578, Note_on_c, 1, 55, 0
3, 5580, Note_on_c, 1, 54, 80
3, 5593, Note_on_c, 1, 54, 0
3, 5595, Note_on_c, 1, 55, 80
3, 5608, Note_on_c, 1, 55, 0
3, 5610, Note_on_c, 1, 52, 80
3, 5623, Note_on_c, 1, 52, 0
3, 5625, Note_on_c, 1, 54, 80
3, 5638, Note_on_c, 1, 54, 0
3, 5640, Note_on_c, 1, 55, 80
3, 5713, Note_on_c, 1, 55, 0
3, 5715, Note_on_c, 1, 67, 80
3, 5728, Note_on_c, 1, 67, 0
3, 5730, Note_on_c, 1, 66, 80
3, 5743, Note_on_c, 1, 66, 0
3, 5745, Note_on_c, 1, 67, 80
3, 5758, Note_on_c, 1, 67, 0
3, 5760, Note_on_c, 1, 55, 80
3, 5833, Note_on_c, 1, 55, 0
3, 5835, Note_on_c, 1, 67, 80
3, 5848, Note_on_c, 1, 67, 0
3, 5850, Note_on_c, 1, 66, 80
3, 5863, Note_on_c, 1, 66, 0
3, 5865, Note_on_c, 1, 67, 80
3, 5878, Note_on_c, 1, 67, 0
3, 5880, Note_on_c, 1, 55, 80
3, 5953, Note_on_c, 1, 55, 0
3, 5955, Note_on_c, 1, 67, 80
3, 5968, Note_on_c, 1, 67, 0
3, 5970, Note_on_c, 1, 66, 80
3, 5983, Note_on_c, 1, 66, 0
3, 5985, Note_on_c, 1, 67, 80
3, 5998, Note_on_c, 1, 67, 0
3, 6000, Note_on_c, 1, 55, 80
3, 6073, Note_on_c, 1, 55, 0
3, 6075, Note_on_c, 1, 67, 80
3, 6088, Note_on_c, 1, 67, 0
3, 6090, Note_on_c, 1, 66, 80
3, 6103, Note_on_c, 1, 66, 0
3, 6105, Note_on_c, 1, 67, 80
3, 6118, Note_on_c, 1, 67, 0
3, 6120, Note_on_c, 1, 55, 80
3, 6198, Note_on_c, 1, 55, 0
3, 6210, Note_on_c, 1, 63, 80
3, 6236, Note_on_c, 1, 63, 0
3, 6240, Note_on_c, 1, 54, 80
3, 6318, Note_on_c, 1, 54, 0
3, 6330, Note_on_c, 1, 57, 80
3, 6356, Note_on_c, 1, 57, 0
3, 6360, Note_on_c, 1, 50, 80
3, 6433, Note_on_c, 1, 50, 0
3, 6435, Note_on_c, 1, 59, 90
3, 6448, Note_on_c, 1, 59, 0
3, 6450, Note_on_c, 1, 60, 92
3, 6463, Note_on_c, 1, 60, 0
3, 6465, Note_on_c, 1, 62, 91
3, 6478, Note_on_c, 1, 62, 0
3, 6480, Note_on_c, 1, 63, 91
3, 6553, Note_on_c, 1, 63, 0
3, 6555, Note_on_c, 1, 60, 91
3, 6568, Note_on_c, 1, 60, 0
3, 6570, Note_on_c, 1, 59, 91
3, 6583, Note_on_c, 1, 59, 0
3, 6585, Note_on_c, 1, 57, 91
3, 6598, Note_on_c, 1, 57, 0
3, 6600, Note_on_c, 1, 62, 91
3, 6673, Note_on_c, 1, 62, 0
3, 6675, Note_on_c, 1, 55, 92
3, 6688, Note_on_c, 1, 55, 0
3, 6690, Note_on_c, 1, 57, 91
3, 6703, Note_on_c, 1, 57, 0
3, 6705, Note_on_c, 1, 59, 91
3, 6718, Note_on_c, 1, 59, 0
3, 6720, Note_on_c, 1, 60, 91
3, 6793, Note_on_c, 1, 60, 0
3, 6795, Note_on_c, 1, 53, 91
3, 6808, Note_on_c, 1, 53, 0
3, 6810, Note_on_c, 1, 51, 91
3, 6823, Note_on_c, 1, 51, 0
3, 6825, Note_on_c, 1, 50, 90
3, 6838, Note_on_c, 1, 50, 0
3, 6840, Note_on_c, 1, 59, 91
3, 6973, Note_on_c, 1, 59, 0
3, 6975, Note_on_c, 1, 55, 91
3, 6988, Note_on_c, 1, 55, 0
3, 6990, Note_on_c, 1, 57, 91
3, 7003, Note_on_c, 1, 57, 0
3, 7005, Note_on_c, 1, 59, 91
3, 7018, Note_on_c, 1, 59, 0
3, 7020, Note_on_c, 1, 60, 91
3, 7033, Note_on_c, 1, 60, 0
3, 7035, Note_on_c, 1, 62, 91
3, 7048, Note_on_c, 1, 62, 0
3, 7050, Note_on_c, 1, 63, 91
3, 7063, Note_on_c, 1, 63, 0
3, 7065, Note_on_c, 1, 65, 91
3, 7078, Note_on_c, 1, 65, 0
3, 7080, Note_on_c, 1, 67, 91
3, 7093, Note_on_c, 1, 67, 0
3, 7095, Note_on_c, 1, 63, 91
3, 7108, Note_on_c, 1, 63, 0
3, 7110, Note_on_c, 1, 62, 91
3, 7123, Note_on_c, 1, 62, 0
3, 7125, Note_on_c, 1, 60, 91
3, 7138, Note_on_c, 1, 60, 0
3, 7140, Note_on_c, 1, 65, 91
3, 7153, Note_on_c, 1, 65, 0
3, 7155, Note_on_c, 1, 62, 90
3, 7168, Note_on_c, 1, 62, 0
3, 7170, Note_on_c, 1, 60, 90
3, 7183, Note_on_c, 1, 60, 0
3, 7185, Note_on_c, 1, 59, 90
3, 7198, Note_on_c, 1, 59, 0
3, 7200, Note_on_c, 1, 63, 91
3, 7213, Note_on_c, 1, 63, 0
3, 7215, Note_on_c, 1, 60, 90
3, 7228, Note_on_c, 1, 60, 0
3, 7230, Note_on_c, 1, 59, 90
3, 7243, Note_on_c, 1, 59, 0
3, 7245, Note_on_c, 1, 57, 90
3, 7258, Note_on_c, 1, 57, 0
3, 7260, Note_on_c, 1, 62, 90
3, 7273, Note_on_c, 1, 62, 0
3, 7275, Note_on_c, 1, 59, 90
3, 7288, Note_on_c, 1, 59, 0
3, 7290, Note_on_c, 1, 57, 90
3, 7303, Note_on_c, 1, 57, 0
3, 7305, Note_on_c, 1, 55, 91
3, 7318, Note_on_c, 1, 55, 0
3, 7320, Note_on_c, 1, 60, 91
3, 7333, Note_on_c, 1, 60, 0
3, 7335, Note_on_c, 1, 57, 91
3, 7348, Note_on_c, 1, 57, 0
3, 7350, Note_on_c, 1, 54, 91
3, 7363, Note_on_c, 1, 54, 0
3, 7365, Note_on_c, 1, 57, 91
3, 7378, Note_on_c, 1, 57, 0
3, 7380, Note_on_c, 1, 60, 91
3, 7393, Note_on_c, 1, 60, 0
3, 7395, Note_on_c, 1, 57, 90
3, 7408, Note_on_c, 1, 57, 0
3, 7410, Note_on_c, 1, 54, 91
3, 7423, Note_on_c, 1, 54, 0
3, 7425, Note_on_c, 1, 57, 91
3, 7438, Note_on_c, 1, 57, 0
3, 7440, Note_on_c, 1, 60, 91
3, 7453, Note_on_c, 1, 60, 0
3, 7455, Note_on_c, 1, 57, 90
3, 7468, Note_on_c, 1, 57, 0
3, 7470, Note_on_c, 1, 54, 91
3, 7483, Note_on_c, 1, 54, 0
3, 7485, Note_on_c, 1, 57, 91
3, 7498, Note_on_c, 1, 57, 0
3, 7500, Note_on_c, 1, 60, 92
3, 7513, Note_on_c, 1, 60, 0
3, 7515, Note_on_c, 1, 57, 91
3, 7528, Note_on_c, 1, 57, 0
3, 7530, Note_on_c, 1, 54, 91
3, 7543, Note_on_c, 1, 54, 0
3, 7545, Note_on_c, 1, 57, 91
3, 7558, Note_on_c, 1, 57, 0
3, 7560, Note_on_c, 1, 59, 91
3, 7665, Note_on_c, 1, 59, 0
3, 7665, End_track
4, 0, Start_track
4, 0, MIDI_port, 0
4, 0, Title_t, "Pad 1 (new age)"
4, 0, Program_c, 2, 88
4, 0, Control_c, 2, 7, 105
4, 0, Control_c, 2, 10, 64
4, 120, Note_on_c, 2, 43, 80
4, 120, Note_on_c, 2, 43, 80
4, 225, Note_on_c, 2, 43, 0
4, 225, Note_on_c, 2, 43, 0
4, 240, Note_on_c, 2, 45, 80
4, 240, Note_on_c, 2, 45, 80
4, 345, Note_on_c, 2, 45, 0
4, 345, Note_on_c, 2, 45, 0
4, 360, Note_on_c, 2, 46, 80
4, 360, Note_on_c, 2, 46, 80
4, 465, Note_on_c, 2, 46, 0
4, 465, Note_on_c, 2, 46, 0
4, 480, Note_on_c, 2, 47, 80
4, 480, Note_on_c, 2, 47, 80
4, 585, Note_on_c, 2, 47, 0
4, 585, Note_on_c, 2, 47, 0
4, 600, Note_on_c, 2, 48, 80
4, 600, Note_on_c, 2, 48, 80
4, 705, Note_on_c, 2, 48, 0
4, 705, Note_on_c, 2, 48, 0
4, 720, Note_on_c, 2, 46, 80
4, 720, Note_on_c, 2, 46, 80
4, 825, Note_on_c, 2, 46, 0
4, 825, Note_on_c, 2, 46, 0
4, 840, Note_on_c, 2, 45, 80
4, 840, Note_on_c, 2, 45, 80
4, 945, Note_on_c, 2, 45, 0
4, 945, Note_on_c, 2, 45, 0
4, 960, Note_on_c, 2, 45, 80
4, 960, Note_on_c, 2, 45, 80
4, 1065, Note_on_c, 2, 45, 0
4, 1065, Note_on_c, 2, 45, 0
4, 1080, Note_on_c, 2, 46, 80
4, 1080, Note_on_c, 2, 46, 80
4, 1185, Note_on_c, 2, 46, 0
4, 1185, Note_on_c, 2, 46, 0
4, 1200, Note_on_c, 2, 48, 80
4, 1200, Note_on_c, 2, 48, 80
4, 1305, Note_on_c, 2, 48, 0
4, 1305, Note_on_c, 2, 48, 0
4, 1320, Note_on_c, 2, 50, 80
4, 1320, Note_on_c, 2, 50, 80
4, 1425, Note_on_c, 2, 50, 0
4, 1425, Note_on_c, 2, 50, 0
4, 1440, Note_on_c, 2, 46, 80
4, 1440, Note_on_c, 2, 46, 80
4, 1545, Note_on_c, 2, 46, 0
4, 1545, Note_on_c, 2, 46, 0
4, 1560, Note_on_c, 2, 51, 80
4, 1560, Note_on_c, 2, 51, 80
4, 1665, Note_on_c, 2, 51, 0
4, 1665, Note_on_c, 2, 51, 0
4, 1680, Note_on_c, 2, 50, 80
4, 1680, Note_on_c, 2, 50, 80
4, 1785, Note_on_c, 2, 50, 0
4, 1785, Note_on_c, 2, 50, 0
4, 1800, Note_on_c, 2, 48, 80
4, 1800, Note_on_c, 2, 48, 80
4, 2025, Note_on_c, 2, 48, 0
4, 2025, Note_on_c, 2, 48, 0
4, 2040, Note_on_c, 2, 46, 80
4, 2040, Note_on_c, 2, 46, 80
4, 2265, Note_on_c, 2, 46, 0
4, 2265, Note_on_c, 2, 46, 0
4, 2280, Note_on_c, 2, 50, 80
4, 2280, Note_on_c, 2, 50, 80
4, 2385, Note_on_c, 2, 50, 0
4, 2385, Note_on_c, 2, 50, 0
4, 2400, Note_on_c, 2, 50, 80
4, 2400, Note_on_c, 2, 50, 80
4, 2505, Note_on_c, 2, 50, 0
4, 2505, Note_on_c, 2, 50, 0
4, 2520, Note_on_c, 2, 50, 80
4, 2520, Note_on_c, 2, 50, 80
4, 2625, Note_on_c, 2, 50, 0
4, 2625, Note_on_c, 2, 50, 0
4, 2640, Note_on_c, 2, 50, 80
4, 2640, Note_on_c, 2, 50, 80
4, 2745, Note_on_c, 2, 50, 0
4, 2745, Note_on_c, 2, 50, 0
4, 2760, Note_on_c, 2, 48, 80
4, 2760, Note_on_c, 2, 48, 80
4, 2865, Note_on_c, 2, 48, 0
4, 2865, Note_on_c, 2, 48, 0
4, 2880, Note_on_c, 2, 47, 80
4, 2880, Note_on_c, 2, 47, 80
4, 2985, Note_on_c, 2, 47, 0
4, 2985, Note_on_c, 2, 47, 0
4, 3000, Note_on_c, 2, 48, 80
4, 3000, Note_on_c, 2, 48, 80
4, 3105, Note_on_c, 2, 48, 0
4, 3105, Note_on_c, 2, 48, 0
4, 3120, Note_on_c, 2, 48, 80
4, 3120, Note_on_c, 2, 48, 80
4, 3225, Note_on_c, 2, 48, 0
4, 3225, Note_on_c, 2, 48, 0
4, 3240, Note_on_c, 2, 48, 80
4, 3240, Note_on_c, 2, 48, 80
4, 3345, Note_on_c, 2, 48, 0
4, 3345, Note_on_c, 2, 48, 0
4, 3360, Note_on_c, 2, 50, 80
4, 3360, Note_on_c, 2, 50, 80
4, 3465, Note_on_c, 2, 50, 0
4, 3465, Note_on_c, 2, 50, 0
4, 3480, Note_on_c, 2, 51, 80
4, 3480, Note_on_c, 2, 51, 80
4, 3585, Note_on_c, 2, 51, 0
4, 3585, Note_on_c, 2, 51, 0
4, 3600, Note_on_c, 2, 51, 80
4, 3600, Note_on_c, 2, 51, 80
4, 3705, Note_on_c, 2, 51, 0
4, 3705, Note_on_c, 2, 51, 0
4, 3720, Note_on_c, 2, 50, 80
4, 3720, Note_on_c, 2, 50, 80
4, 3825, Note_on_c, 2, 50, 0
4, 3825, Note_on_c, 2, 50, 0
4, 3840, Note_on_c, 2, 48, 80
4, 3840, Note_on_c, 2, 48, 80
4, 3945, Note_on_c, 2, 48, 0
4, 3945, Note_on_c, 2, 48, 0
4, 3960, Note_on_c, 2, 50, 80
4, 3960, Note_on_c, 2, 50, 80
4, 4185, Note_on_c, 2, 50, 0
4, 4185, Note_on_c, 2, 50, 0
4, 4200, Note_on_c, 2, 48, 80
4, 4200, Note_on_c, 2, 48, 80
4, 4425, Note_on_c, 2, 48, 0
4, 4425, Note_on_c, 2, 48, 0
4, 4440, Note_on_c, 2, 43, 80
4, 4440, Note_on_c, 2, 43, 80
4, 4545, Note_on_c, 2, 43, 0
4, 4545, Note_on_c, 2, 43, 0
4, 4560, Note_on_c, 2, 45, 80
4, 4560, Note_on_c, 2, 45, 80
4, 4665, Note_on_c, 2, 45, 0
4, 4665, Note_on_c, 2, 45, 0
4, 4680, Note_on_c, 2, 46, 80
4, 4680, Note_on_c, 2, 46, 80
4, 4785, Note_on_c, 2, 46, 0
4, 4785, Note_on_c, 2, 46, 0
4, 4800, Note_on_c, 2, 46, 80
4, 4800, Note_on_c, 2, 46, 80
4, 4905, Note_on_c, 2, 46, 0
4, 4905, Note_on_c, 2, 46, 0
4, 4920, Note_on_c, 2, 48, 80
4, 4920, Note_on_c, 2, 48, 80
4, 5025, Note_on_c, 2, 48, 0
4, 5025, Note_on_c, 2, 48, 0
4, 5040, Note_on_c, 2, 48, 80
4, 5040, Note_on_c, 2, 48, 80
4, 5145, Note_on_c, 2, 48, 0
4, 5145, Note_on_c, 2, 48, 0
4, 5160, Note_on_c, 2, 50, 80
4, 5160, Note_on_c, 2, 50, 80
4, 5265, Note_on_c, 2, 50, 0
4, 5265, Note_on_c, 2, 50, 0
4, 5280, Note_on_c, 2, 50, 80
4, 5280, Note_on_c, 2, 50, 80
4, 5385, Note_on_c, 2, 50, 0
4, 5385, Note_on_c, 2, 50, 0
4, 5400, Note_on_c, 2, 50, 80
4, 5400, Note_on_c, 2, 50, 80
4, 5505, Note_on_c, 2, 50, 0
4, 5505, Note_on_c, 2, 50, 0
4, 5520, Note_on_c, 2, 50, 80
4, 5520, Note_on_c, 2, 50, 80
4, 5625, Note_on_c, 2, 50, 0
4, 5625, Note_on_c, 2, 50, 0
4, 5640, Note_on_c, 2, 51, 80
4, 5640, Note_on_c, 2, 51, 80
4, 5745, Note_on_c, 2, 51, 0
4, 5745, Note_on_c, 2, 51, 0
4, 5760, Note_on_c, 2, 50, 80
4, 5760, Note_on_c, 2, 50, 80
4, 5865, Note_on_c, 2, 50, 0
4, 5865, Note_on_c, 2, 50, 0
4, 5880, Note_on_c, 2, 48, 80
4, 5880, Note_on_c, 2, 48, 80
4, 5985, Note_on_c, 2, 48, 0
4, 5985, Note_on_c, 2, 48, 0
4, 6000, Note_on_c, 2, 46, 80
4, 6000, Note_on_c, 2, 46, 80
4, 6105, Note_on_c, 2, 46, 0
4, 6105, Note_on_c, 2, 46, 0
4, 6120, Note_on_c, 2, 45, 80
4, 6120, Note_on_c, 2, 45, 80
4, 6345, Note_on_c, 2, 45, 0
4, 6345, Note_on_c, 2, 45, 0
4, 6360, Note_on_c, 2, 43, 80
4, 6360, Note_on_c, 2, 43, 80
4, 7665, Note_on_c, 2, 43, 0
4, 7665, Note_on_c, 2, 43, 0
4, 7665, End_track
5, 0, Start_track
5, 0, MIDI_port, 0
5, 0, Title_t, "Church Organ"
5, 0, Program_c, 3, 19
5, 0, Control_c, 3, 7, 90
5, 0, Control_c, 3, 10, 64
5, 120, Note_on_c, 3, 43, 80
5, 120, Note_on_c, 3, 43, 80
5, 225, Note_on_c, 3, 43, 0
5, 225, Note_on_c, 3, 43, 0
5, 240, Note_on_c, 3, 45, 80
5, 240, Note_on_c, 3, 45, 80
5, 345, Note_on_c, 3, 45, 0
5, 345, Note_on_c, 3, 45, 0
5, 360, Note_on_c, 3, 46, 80
5, 360, Note_on_c, 3, 46, 80
5, 465, Note_on_c, 3, 46, 0
5, 465, Note_on_c, 3, 46, 0
5, 480, Note_on_c, 3, 47, 80
5, 480, Note_on_c, 3, 47, 80
5, 585, Note_on_c, 3, 47, 0
5, 585, Note_on_c, 3, 47, 0
5, 600, Note_on_c, 3, 48, 80
5, 600, Note_on_c, 3, 48, 80
5, 705, Note_on_c, 3, 48, 0
5, 705, Note_on_c, 3, 48, 0
5, 720, Note_on_c, 3, 46, 80
5, 720, Note_on_c, 3, 46, 80
5, 825, Note_on_c, 3, 46, 0
5, 825, Note_on_c, 3, 46, 0
5, 840, Note_on_c, 3, 45, 80
5, 840, Note_on_c, 3, 45, 80
5, 945, Note_on_c, 3, 45, 0
5, 945, Note_on_c, 3, 45, 0
5, 960, Note_on_c, 3, 45, 80
5, 960, Note_on_c, 3, 45, 80
5, 1065, Note_on_c, 3, 45, 0
5, 1065, Note_on_c, 3, 45, 0
5, 1080, Note_on_c, 3, 46, 80
5, 1080, Note_on_c, 3, 46, 80
5, 1185, Note_on_c, 3, 46, 0
5, 1185, Note_on_c, 3, 46, 0
5, 1200, Note_on_c, 3, 48, 80
5, 1200, Note_on_c, 3, 48, 80
5, 1305, Note_on_c, 3, 48, 0
5, 1305, Note_on_c, 3, 48, 0
5, 1320, Note_on_c, 3, 50, 80
5, 1320, Note_on_c, 3, 50, 80
5, 1425, Note_on_c, 3, 50, 0
5, 1425, Note_on_c, 3, 50, 0
5, 1440, Note_on_c, 3, 46, 80
5, 1440, Note_on_c, 3, 46, 80
5, 1545, Note_on_c, 3, 46, 0
5, 1545, Note_on_c, 3, 46, 0
5, 1560, Note_on_c, 3, 51, 80
5, 1560, Note_on_c, 3, 51, 80
5, 1665, Note_on_c, 3, 51, 0
5, 1665, Note_on_c, 3, 51, 0
5, 1680, Note_on_c, 3, 50, 80
5, 1680, Note_on_c, 3, 50, 80
5, 1785, Note_on_c, 3, 50, 0
5, 1785, Note_on_c, 3, 50, 0
5, 1800, Note_on_c, 3, 48, 80
5, 1800, Note_on_c, 3, 48, 80
5, 2025, Note_on_c, 3, 48, 0
5, 2025, Note_on_c, 3, 48, 0
5, 2040, Note_on_c, 3, 46, 80
5, 2040, Note_on_c, 3, 46, 80
5, 2265, Note_on_c, 3, 46, 0
5, 2265, Note_on_c, 3, 46, 0
5, 2280, Note_on_c, 3, 50, 80
5, 2280, Note_on_c, 3, 50, 80
5, 2385, Note_on_c, 3, 50, 0
5, 2385, Note_on_c, 3, 50, 0
5, 2400, Note_on_c, 3, 50, 80
5, 2400, Note_on_c, 3, 50, 80
5, 2505, Note_on_c, 3, 50, 0
5, 2505, Note_on_c, 3, 50, 0
5, 2520, Note_on_c, 3, 50, 80
5, 2520, Note_on_c, 3, 50, 80
5, 2625, Note_on_c, 3, 50, 0
5, 2625, Note_on_c, 3, 50, 0
5, 2640, Note_on_c, 3, 50, 80
5, 2640, Note_on_c, 3, 50, 80
5, 2745, Note_on_c, 3, 50, 0
5, 2745, Note_on_c, 3, 50, 0
5, 2760, Note_on_c, 3, 48, 80
5, 2760, Note_on_c, 3, 48, 80
5, 2865, Note_on_c, 3, 48, 0
5, 2865, Note_on_c, 3, 48, 0
5, 2880, Note_on_c, 3, 47, 80
5, 2880, Note_on_c, 3, 47, 80
5, 2985, Note_on_c, 3, 47, 0
5, 2985, Note_on_c, 3, 47, 0
5, 3000, Note_on_c, 3, 48, 80
5, 3000, Note_on_c, 3, 48, 80
5, 3105, Note_on_c, 3, 48, 0
5, 3105, Note_on_c, 3, 48, 0
5, 3120, Note_on_c, 3, 48, 80
5, 3120, Note_on_c, 3, 48, 80
5, 3225, Note_on_c, 3, 48, 0
5, 3225, Note_on_c, 3, 48, 0
5, 3240, Note_on_c, 3, 48, 80
5, 3240, Note_on_c, 3, 48, 80
5, 3345, Note_on_c, 3, 48, 0
5, 3345, Note_on_c, 3, 48, 0
5, 3360, Note_on_c, 3, 50, 80
5, 3360, Note_on_c, 3, 50, 80
5, 3465, Note_on_c, 3, 50, 0
5, 3465, Note_on_c, 3, 50, 0
5, 3480, Note_on_c, 3, 51, 80
5, 3480, Note_on_c, 3, 51, 80
5, 3585, Note_on_c, 3, 51, 0
5, 3585, Note_on_c, 3, 51, 0
5, 3600, Note_on_c, 3, 51, 80
5, 3600, Note_on_c, 3, 51, 80
5, 3705, Note_on_c, 3, 51, 0
5, 3705, Note_on_c, 3, 51, 0
5, 3720, Note_on_c, 3, 50, 80
5, 3720, Note_on_c, 3, 50, 80
5, 3825, Note_on_c, 3, 50, 0
5, 3825, Note_on_c, 3, 50, 0
5, 3840, Note_on_c, 3, 48, 80
5, 3840, Note_on_c, 3, 48, 80
5, 3945, Note_on_c, 3, 48, 0
5, 3945, Note_on_c, 3, 48, 0
5, 3960, Note_on_c, 3, 50, 80
5, 3960, Note_on_c, 3, 50, 80
5, 4185, Note_on_c, 3, 50, 0
5, 4185, Note_on_c, 3, 50, 0
5, 4200, Note_on_c, 3, 48, 80
5, 4200, Note_on_c, 3, 48, 80
5, 4425, Note_on_c, 3, 48, 0
5, 4425, Note_on_c, 3, 48, 0
5, 4440, Note_on_c, 3, 43, 80
5, 4440, Note_on_c, 3, 43, 80
5, 4545, Note_on_c, 3, 43, 0
5, 4545, Note_on_c, 3, 43, 0
5, 4560, Note_on_c, 3, 45, 80
5, 4560, Note_on_c, 3, 45, 80
5, 4665, Note_on_c, 3, 45, 0
5, 4665, Note_on_c, 3, 45, 0
5, 4680, Note_on_c, 3, 46, 80
5, 4680, Note_on_c, 3, 46, 80
5, 4785, Note_on_c, 3, 46, 0
5, 4785, Note_on_c, 3, 46, 0
5, 4800, Note_on_c, 3, 46, 80
5, 4800, Note_on_c, 3, 46, 80
5, 4905, Note_on_c, 3, 46, 0
5, 4905, Note_on_c, 3, 46, 0
5, 4920, Note_on_c, 3, 48, 80
5, 4920, Note_on_c, 3, 48, 80
5, 5025, Note_on_c, 3, 48, 0
5, 5025, Note_on_c, 3, 48, 0
5, 5040, Note_on_c, 3, 48, 80
5, 5040, Note_on_c, 3, 48, 80
5, 5145, Note_on_c, 3, 48, 0
5, 5145, Note_on_c, 3, 48, 0
5, 5160, Note_on_c, 3, 50, 80
5, 5160, Note_on_c, 3, 50, 80
5, 5265, Note_on_c, 3, 50, 0
5, 5265, Note_on_c, 3, 50, 0
5, 5280, Note_on_c, 3, 50, 80
5, 5280, Note_on_c, 3, 50, 80
5, 5385, Note_on_c, 3, 50, 0
5, 5385, Note_on_c, 3, 50, 0
5, 5400, Note_on_c, 3, 50, 80
5, 5400, Note_on_c, 3, 50, 80
5, 5505, Note_on_c, 3, 50, 0
5, 5505, Note_on_c, 3, 50, 0
5, 5520, Note_on_c, 3, 50, 80
5, 5520, Note_on_c, 3, 50, 80
5, 5625, Note_on_c, 3, 50, 0
5, 5625, Note_on_c, 3, 50, 0
5, 5640, Note_on_c, 3, 51, 80
5, 5640, Note_on_c, 3, 51, 80
5, 5745, Note_on_c, 3, 51, 0
5, 5745, Note_on_c, 3, 51, 0
5, 5760, Note_on_c, 3, 50, 80
5, 5760, Note_on_c, 3, 50, 80
5, 5865, Note_on_c, 3, 50, 0
5, 5865, Note_on_c, 3, 50, 0
5, 5880, Note_on_c, 3, 48, 80
5, 5880, Note_on_c, 3, 48, 80
5, 5985, Note_on_c, 3, 48, 0
5, 5985, Note_on_c, 3, 48, 0
5, 6000, Note_on_c, 3, 46, 80
5, 6000, Note_on_c, 3, 46, 80
5, 6105, Note_on_c, 3, 46, 0
5, 6105, Note_on_c, 3, 46, 0
5, 6120, Note_on_c, 3, 45, 80
5, 6120, Note_on_c, 3, 45, 80
5, 6345, Note_on_c, 3, 45, 0
5, 6345, Note_on_c, 3, 45, 0
5, 6360, Note_on_c, 3, 43, 80
5, 6360, Note_on_c, 3, 43, 80
5, 7665, Note_on_c, 3, 43, 0
5, 7665, Note_on_c, 3, 43, 0
5, 7665, End_track
0, 0, End_of_file
