0, 0, Header, 1, 5, 240
1, 0, Start_track
1, 0, Tempo, 1333333
1, 0, Time_signature, 4, 2, 24, 8
1, 0, End_track
2, 0, Start_track
2, 0, Title_t, "Brass Section"
2, 0, Program_c, 0, 61
2, 0, Control_c, 0, 7, 115
2, 0, Control_c, 0, 10, 1
2, 3120, Note_on_c, 0, 67, 80
2, 3224, Note_on_c, 0, 67, 0
2, 3240, Note_on_c, 0, 62, 80
2, 3292, Note_on_c, 0, 62, 0
2, 3300, Note_on_c, 0, 67, 80
2, 3352, Note_on_c, 0, 67, 0
2, 3360, Note_on_c, 0, 66, 80
2, 3412, Note_on_c, 0, 66, 0
2, 3420, Note_on_c, 0, 67, 80
2, 3446, Note_on_c, 0, 67, 0
2, 3450, Note_on_c, 0, 69, 80
2, 3476, Note_on_c, 0, 69, 0
2, 3480, Note_on_c, 0, 62, 80
2, 3532, Note_on_c, 0, 62, 0
2, 3540, Note_on_c, 0, 69, 80
2, 3592, Note_on_c, 0, 69, 0
2, 3600, Note_on_c, 0, 70, 80
2, 3704, Note_on_c, 0, 70, 0
2, 3720, Note_on_c, 0, 67, 80
2, 3824, Note_on_c, 0, 67, 0
2, 4080, Note_on_c, 0, 67, 80
2, 4106, Note_on_c, 0, 67, 0
2, 4110, Note_on_c, 0, 66, 80
2, 4136, Note_on_c, 0, 66, 0
2, 4140, Note_on_c, 0, 67, 80
2, 4244, Note_on_c, 0, 67, 0
2, 4260, Note_on_c, 0, 69, 80
2, 4312, Note_on_c, 0, 69, 0
2, 4320, Note_on_c, 0, 69, 80
2, 4332, Note_on_c, 0, 69, 0
2, 4334, Note_on_c, 0, 70, 80
2, 4348, Note_on_c, 0, 70, 0
2, 4350, Note_on_c, 0, 69, 80
2, 4362, Note_on_c, 0, 69, 0
2, 4364, Note_on_c, 0, 70, 80
2, 4378, Note_on_c, 0, 70, 0
2, 4380, Note_on_c, 0, 69, 80
2, 4392, Note_on_c, 0, 69, 0
2, 4394, Note_on_c, 0, 70, 80
2, 4408, Note_on_c, 0, 70, 0
2, 4410, Note_on_c, 0, 69, 80
2, 4422, Note_on_c, 0, 69, 0
2, 4424, Note_on_c, 0, 70, 80
2, 4438, Note_on_c, 0, 70, 0
2, 4440, Note_on_c, 0, 69, 80
2, 4496, Note_on_c, 0, 69, 0
2, 4500, Note_on_c, 0, 67, 80
2, 4526, Note_on_c, 0, 67, 0
2, 4530, Note_on_c, 0, 69, 80
2, 4556, Note_on_c, 0, 69, 0
2, 4560, Note_on_c, 0, 70, 80
2, 4664, Note_on_c, 0, 70, 0
2, 4680, Note_on_c, 0, 67, 80
2, 4732, Note_on_c, 0, 67, 0
2, 4740, Note_on_c, 0, 75, 80
2, 4792, Note_on_c, 0, 75, 0
2, 4800, Note_on_c, 0, 71, 80
2, 4852, Note_on_c, 0, 71, 0
2, 4860, Note_on_c, 0, 72, 80
2, 4886, Note_on_c, 0, 72, 0
2, 4890, Note_on_c, 0, 74, 80
2, 4916, Note_on_c, 0, 74, 0
2, 4920, Note_on_c, 0, 67, 80
2, 4972, Note_on_c, 0, 67, 0
2, 4980, Note_on_c, 0, 71, 80
2, 5032, Note_on_c, 0, 71, 0
2, 5040, Note_on_c, 0, 72, 80
2, 5052, Note_on_c, 0, 72, 0
2, 5054, Note_on_c, 0, 70, 80
2, 5068, Note_on_c, 0, 70, 0
2, 5070, Note_on_c, 0, 72, 80
2, 5204, Note_on_c, 0, 72, 0
2, 5220, Note_on_c, 0, 74, 80
2, 5272, Note_on_c, 0, 74, 0
2, 5280, Note_on_c, 0, 70, 80
2, 5292, Note_on_c, 0, 70, 0
2, 5294, Note_on_c, 0, 72, 80
2, 5308, Note_on_c, 0, 72, 0
2, 5310, Note_on_c, 0, 70, 80
2, 5322, Note_on_c, 0, 70, 0
2, 5324, Note_on_c, 0, 72, 80
2, 5338, Note_on_c, 0, 72, 0
2, 5340, Note_on_c, 0, 70, 80
2, 5352, Note_on_c, 0, 70, 0
2, 5354, Note_on_c, 0, 72, 80
2, 5368, Note_on_c, 0, 72, 0
2, 5370, Note_on_c, 0, 70, 80
2, 5382, Note_on_c, 0, 70, 0
2, 5384, Note_on_c, 0, 72, 80
2, 5398, Note_on_c, 0, 72, 0
2, 5400, Note_on_c, 0, 70, 80
2, 5456, Note_on_c, 0, 70, 0
2, 5460, Note_on_c, 0, 69, 80
2, 5486, Note_on_c, 0, 69, 0
2, 5490, Note_on_c, 0, 70, 80
2, 5516, Note_on_c, 0, 70, 0
2, 5520, Note_on_c, 0, 69, 80
2, 5624, Note_on_c, 0, 69, 0
2, 5640, Note_on_c, 0, 62, 80
2, 5692, Note_on_c, 0, 62, 0
2, 5700, Note_on_c, 0, 79, 80
2, 5752, Note_on_c, 0, 79, 0
2, 5760, Note_on_c, 0, 78, 80
2, 5812, Note_on_c, 0, 78, 0
2, 5820, Note_on_c, 0, 79, 80
2, 5846, Note_on_c, 0, 79, 0
2, 5850, Note_on_c, 0, 81, 80
2, 5876, Note_on_c, 0, 81, 0
2, 5880, Note_on_c, 0, 74, 80
2, 5932, Note_on_c, 0, 74, 0
2, 5940, Note_on_c, 0, 79, 80
2, 5992, Note_on_c, 0, 79, 0
2, 6000, Note_on_c, 0, 72, 80
2, 6052, Note_on_c, 0, 72, 0
2, 6060, Note_on_c, 0, 74, 80
2, 6086, Note_on_c, 0, 74, 0
2, 6090, Note_on_c, 0, 75, 80
2, 6116, Note_on_c, 0, 75, 0
2, 6120, Note_on_c, 0, 66, 80
2, 6172, Note_on_c, 0, 66, 0
2, 6180, Note_on_c, 0, 74, 80
2, 6232, Note_on_c, 0, 74, 0
2, 6240, Note_on_c, 0, 70, 80
2, 6252, Note_on_c, 0, 70, 0
2, 6254, Note_on_c, 0, 72, 80
2, 6268, Note_on_c, 0, 72, 0
2, 6270, Note_on_c, 0, 70, 80
2, 6282, Note_on_c, 0, 70, 0
2, 6284, Note_on_c, 0, 72, 80
2, 6298, Note_on_c, 0, 72, 0
2, 6300, Note_on_c, 0, 70, 80
2, 6312, Note_on_c, 0, 70, 0
2, 6314, Note_on_c, 0, 72, 80
2, 6328, Note_on_c, 0, 72, 0
2, 6330, Note_on_c, 0, 70, 80
2, 6342, Note_on_c, 0, 70, 0
2, 6344, Note_on_c, 0, 72, 80
2, 6358, Note_on_c, 0, 72, 0
2, 6360, Note_on_c, 0, 70, 80
2, 6372, Note_on_c, 0, 70, 0
2, 6374, Note_on_c, 0, 72, 80
2, 6388, Note_on_c, 0, 72, 0
2, 6390, Note_on_c, 0, 70, 80
2, 6402, Note_on_c, 0, 70, 0
2, 6404, Note_on_c, 0, 72, 80
2, 6418, Note_on_c, 0, 72, 0
2, 6420, Note_on_c, 0, 69, 80
2, 6446, Note_on_c, 0, 69, 0
2, 6450, Note_on_c, 0, 70, 80
2, 6476, Note_on_c, 0, 70, 0
2, 6480, Note_on_c, 0, 69, 80
2, 6690, Note_on_c, 0, 69, 0
2, 6720, Note_on_c, 0, 69, 80
2, 6930, Note_on_c, 0, 69, 0
2, 7440, Note_on_c, 0, 70, 80
2, 7492, Note_on_c, 0, 70, 0
2, 7500, Note_on_c, 0, 72, 80
2, 7552, Note_on_c, 0, 72, 0
2, 7560, Note_on_c, 0, 70, 80
2, 7612, Note_on_c, 0, 70, 0
2, 7620, Note_on_c, 0, 72, 80
2, 7672, Note_on_c, 0, 72, 0
2, 7680, Note_on_c, 0, 72, 80
2, 7692, Note_on_c, 0, 72, 0
2, 7694, Note_on_c, 0, 74, 80
2, 7708, Note_on_c, 0, 74, 0
2, 7710, Note_on_c, 0, 72, 80
2, 7722, Note_on_c, 0, 72, 0
2, 7724, Note_on_c, 0, 74, 80
2, 7738, Note_on_c, 0, 74, 0
2, 7740, Note_on_c, 0, 72, 80
2, 7752, Note_on_c, 0, 72, 0
2, 7754, Note_on_c, 0, 74, 80
2, 7768, Note_on_c, 0, 74, 0
2, 7770, Note_on_c, 0, 72, 80
2, 7782, Note_on_c, 0, 72, 0
2, 7784, Note_on_c, 0, 74, 80
2, 7798, Note_on_c, 0, 74, 0
2, 7800, Note_on_c, 0, 72, 80
2, 7812, Note_on_c, 0, 72, 0
2, 7814, Note_on_c, 0, 74, 80
2, 7828, Note_on_c, 0, 74, 0
2, 7830, Note_on_c, 0, 72, 80
2, 7842, Note_on_c, 0, 72, 0
2, 7844, Note_on_c, 0, 74, 80
2, 7858, Note_on_c, 0, 74, 0
2, 7860, Note_on_c, 0, 70, 80
2, 7886, Note_on_c, 0, 70, 0
2, 7890, Note_on_c, 0, 72, 80
2, 7916, Note_on_c, 0, 72, 0
2, 7920, Note_on_c, 0, 74, 80
2, 7972, Note_on_c, 0, 74, 0
2, 7980, Note_on_c, 0, 75, 80
2, 8006, Note_on_c, 0, 75, 0
2, 8010, Note_on_c, 0, 77, 80
2, 8036, Note_on_c, 0, 77, 0
2, 8040, Note_on_c, 0, 75, 80
2, 8092, Note_on_c, 0, 75, 0
2, 8100, Note_on_c, 0, 74, 80
2, 8152, Note_on_c, 0, 74, 0
2, 8160, Note_on_c, 0, 72, 80
2, 8212, Note_on_c, 0, 72, 0
2, 8220, Note_on_c, 0, 70, 80
2, 8272, Note_on_c, 0, 70, 0
2, 8280, Note_on_c, 0, 68, 80
2, 8332, Note_on_c, 0, 68, 0
2, 8340, Note_on_c, 0, 67, 80
2, 8392, Note_on_c, 0, 67, 0
2, 8400, Note_on_c, 0, 75, 80
2, 8452, Note_on_c, 0, 75, 0
2, 8460, Note_on_c, 0, 77, 80
2, 8486, Note_on_c, 0, 77, 0
2, 8490, Note_on_c, 0, 79, 80
2, 8516, Note_on_c, 0, 79, 0
2, 8520, Note_on_c, 0, 77, 80
2, 8572, Note_on_c, 0, 77, 0
2, 8580, Note_on_c, 0, 75, 80
2, 8632, Note_on_c, 0, 75, 0
2, 8640, Note_on_c, 0, 74, 80
2, 8692, Note_on_c, 0, 74, 0
2, 8700, Note_on_c, 0, 72, 80
2, 8752, Note_on_c, 0, 72, 0
2, 8760, Note_on_c, 0, 70, 80
2, 8812, Note_on_c, 0, 70, 0
2, 8820, Note_on_c, 0, 69, 80
2, 8872, Note_on_c, 0, 69, 0
2, 8880, Note_on_c, 0, 77, 80
2, 8906, Note_on_c, 0, 77, 0
2, 8910, Note_on_c, 0, 75, 80
2, 8936, Note_on_c, 0, 75, 0
2, 8940, Note_on_c, 0, 77, 80
2, 9172, Note_on_c, 0, 77, 0
2, 9180, Note_on_c, 0, 79, 80
2, 9206, Note_on_c, 0, 79, 0
2, 9210, Note_on_c, 0, 77, 80
2, 9236, Note_on_c, 0, 77, 0
2, 9240, Note_on_c, 0, 75, 80
2, 9292, Note_on_c, 0, 75, 0
2, 9300, Note_on_c, 0, 77, 80
2, 9326, Note_on_c, 0, 77, 0
2, 9330, Note_on_c, 0, 74, 80
2, 9356, Note_on_c, 0, 74, 0
2, 9360, Note_on_c, 0, 75, 80
2, 9372, Note_on_c, 0, 75, 0
2, 9374, Note_on_c, 0, 74, 80
2, 9388, Note_on_c, 0, 74, 0
2, 9390, Note_on_c, 0, 75, 80
2, 9652, Note_on_c, 0, 75, 0
2, 9660, Note_on_c, 0, 77, 80
2, 9686, Note_on_c, 0, 77, 0
2, 9690, Note_on_c, 0, 79, 80
2, 9716, Note_on_c, 0, 79, 0
2, 9720, Note_on_c, 0, 77, 80
2, 9746, Note_on_c, 0, 77, 0
2, 9750, Note_on_c, 0, 79, 80
2, 9776, Note_on_c, 0, 79, 0
2, 9780, Note_on_c, 0, 75, 80
2, 9832, Note_on_c, 0, 75, 0
2, 9840, Note_on_c, 0, 74, 80
2, 10132, Note_on_c, 0, 74, 0
2, 10140, Note_on_c, 0, 79, 80
2, 10166, Note_on_c, 0, 79, 0
2, 10170, Note_on_c, 0, 77, 80
2, 10196, Note_on_c, 0, 77, 0
2, 10200, Note_on_c, 0, 75, 80
2, 10226, Note_on_c, 0, 75, 0
2, 10230, Note_on_c, 0, 74, 80
2, 10256, Note_on_c, 0, 74, 0
2, 10260, Note_on_c, 0, 72, 80
2, 10286, Note_on_c, 0, 72, 0
2, 10290, Note_on_c, 0, 70, 80
2, 10316, Note_on_c, 0, 70, 0
2, 10320, Note_on_c, 0, 69, 80
2, 10346, Note_on_c, 0, 69, 0
2, 10350, Note_on_c, 0, 67, 80
2, 10376, Note_on_c, 0, 67, 0
2, 10380, Note_on_c, 0, 65, 80
2, 10406, Note_on_c, 0, 65, 0
2, 10410, Note_on_c, 0, 67, 80
2, 10436, Note_on_c, 0, 67, 0
2, 10440, Note_on_c, 0, 69, 80
2, 10466, Note_on_c, 0, 69, 0
2, 10470, Note_on_c, 0, 70, 80
2, 10496, Note_on_c, 0, 70, 0
2, 10500, Note_on_c, 0, 69, 80
2, 10526, Note_on_c, 0, 69, 0
2, 10530, Note_on_c, 0, 70, 80
2, 10556, Note_on_c, 0, 70, 0
2, 10560, Note_on_c, 0, 72, 80
2, 10586, Note_on_c, 0, 72, 0
2, 10590, Note_on_c, 0, 70, 80
2, 10616, Note_on_c, 0, 70, 0
2, 10620, Note_on_c, 0, 69, 80
2, 10646, Note_on_c, 0, 69, 0
2, 10650, Note_on_c, 0, 70, 80
2, 10676, Note_on_c, 0, 70, 0
2, 10680, Note_on_c, 0, 72, 80
2, 10706, Note_on_c, 0, 72, 0
2, 10710, Note_on_c, 0, 74, 80
2, 10736, Note_on_c, 0, 74, 0
2, 10740, Note_on_c, 0, 72, 80
2, 10766, Note_on_c, 0, 72, 0
2, 10770, Note_on_c, 0, 74, 80
2, 10796, Note_on_c, 0, 74, 0
2, 10800, Note_on_c, 0, 75, 80
2, 10826, Note_on_c, 0, 75, 0
2, 10830, Note_on_c, 0, 77, 80
2, 10842, Note_on_c, 0, 77, 0
2, 10844, Note_on_c, 0, 75, 80
2, 10858, Note_on_c, 0, 75, 0
2, 10860, Note_on_c, 0, 74, 80
2, 10886, Note_on_c, 0, 74, 0
2, 10890, Note_on_c, 0, 75, 80
2, 10916, Note_on_c, 0, 75, 0
2, 10920, Note_on_c, 0, 77, 80
2, 10946, Note_on_c, 0, 77, 0
2, 10950, Note_on_c, 0, 79, 80
2, 10962, Note_on_c, 0, 79, 0
2, 10964, Note_on_c, 0, 77, 80
2, 10978, Note_on_c, 0, 77, 0
2, 10980, Note_on_c, 0, 75, 80
2, 10992, Note_on_c, 0, 75, 0
2, 10994, Note_on_c, 0, 77, 80
2, 11008, Note_on_c, 0, 77, 0
2, 11010, Note_on_c, 0, 79, 80
2, 11036, Note_on_c, 0, 79, 0
2, 11040, Note_on_c, 0, 72, 80
2, 11052, Note_on_c, 0, 72, 0
2, 11054, Note_on_c, 0, 74, 80
2, 11068, Note_on_c, 0, 74, 0
2, 11070, Note_on_c, 0, 72, 80
2, 11082, Note_on_c, 0, 72, 0
2, 11084, Note_on_c, 0, 74, 80
2, 11098, Note_on_c, 0, 74, 0
2, 11100, Note_on_c, 0, 72, 80
2, 11112, Note_on_c, 0, 72, 0
2, 11114, Note_on_c, 0, 74, 80
2, 11128, Note_on_c, 0, 74, 0
2, 11130, Note_on_c, 0, 72, 80
2, 11142, Note_on_c, 0, 72, 0
2, 11144, Note_on_c, 0, 74, 80
2, 11158, Note_on_c, 0, 74, 0
2, 11160, Note_on_c, 0, 72, 80
2, 11172, Note_on_c, 0, 72, 0
2, 11174, Note_on_c, 0, 74, 80
2, 11188, Note_on_c, 0, 74, 0
2, 11190, Note_on_c, 0, 72, 80
2, 11216, Note_on_c, 0, 72, 0
2, 11220, Note_on_c, 0, 70, 80
2, 11272, Note_on_c, 0, 70, 0
2, 11280, Note_on_c, 0, 70, 80
2, 11490, Note_on_c, 0, 70, 0
2, 14160, Note_on_c, 0, 74, 80
2, 14452, Note_on_c, 0, 74, 0
2, 14460, Note_on_c, 0, 72, 80
2, 14512, Note_on_c, 0, 72, 0
2, 14520, Note_on_c, 0, 75, 80
2, 14572, Note_on_c, 0, 75, 0
2, 14580, Note_on_c, 0, 74, 80
2, 14632, Note_on_c, 0, 74, 0
2, 14640, Note_on_c, 0, 74, 80
2, 14932, Note_on_c, 0, 74, 0
2, 14940, Note_on_c, 0, 77, 80
2, 14992, Note_on_c, 0, 77, 0
2, 15000, Note_on_c, 0, 79, 80
2, 15052, Note_on_c, 0, 79, 0
2, 15060, Note_on_c, 0, 75, 80
2, 15112, Note_on_c, 0, 75, 0
2, 15120, Note_on_c, 0, 72, 80
2, 15172, Note_on_c, 0, 72, 0
2, 15180, Note_on_c, 0, 77, 80
2, 15232, Note_on_c, 0, 77, 0
2, 15240, Note_on_c, 0, 75, 80
2, 15266, Note_on_c, 0, 75, 0
2, 15270, Note_on_c, 0, 74, 80
2, 15296, Note_on_c, 0, 74, 0
2, 15300, Note_on_c, 0, 72, 80
2, 15352, Note_on_c, 0, 72, 0
2, 15360, Note_on_c, 0, 70, 80
2, 15412, Note_on_c, 0, 70, 0
2, 15420, Note_on_c, 0, 72, 80
2, 15472, Note_on_c, 0, 72, 0
2, 15480, Note_on_c, 0, 69, 80
2, 15532, Note_on_c, 0, 69, 0
2, 15540, Note_on_c, 0, 70, 80
2, 15592, Note_on_c, 0, 70, 0
2, 15600, Note_on_c, 0, 72, 80
2, 15652, Note_on_c, 0, 72, 0
2, 15660, Note_on_c, 0, 65, 80
2, 15712, Note_on_c, 0, 65, 0
2, 15720, Note_on_c, 0, 69, 80
2, 15772, Note_on_c, 0, 69, 0
2, 15780, Note_on_c, 0, 70, 80
2, 15832, Note_on_c, 0, 70, 0
2, 15840, Note_on_c, 0, 72, 80
2, 15892, Note_on_c, 0, 72, 0
2, 15900, Note_on_c, 0, 65, 80
2, 15952, Note_on_c, 0, 65, 0
2, 15960, Note_on_c, 0, 77, 80
2, 16012, Note_on_c, 0, 77, 0
2, 16020, Note_on_c, 0, 79, 80
2, 16072, Note_on_c, 0, 79, 0
2, 16080, Note_on_c, 0, 69, 80
2, 16132, Note_on_c, 0, 69, 0
2, 16140, Note_on_c, 0, 70, 80
2, 16192, Note_on_c, 0, 70, 0
2, 16200, Note_on_c, 0, 69, 80
2, 16252, Note_on_c, 0, 69, 0
2, 16260, Note_on_c, 0, 70, 80
2, 16312, Note_on_c, 0, 70, 0
2, 16320, Note_on_c, 0, 70, 80
2, 16332, Note_on_c, 0, 70, 0
2, 16334, Note_on_c, 0, 72, 80
2, 16348, Note_on_c, 0, 72, 0
2, 16350, Note_on_c, 0, 70, 80
2, 16362, Note_on_c, 0, 70, 0
2, 16364, Note_on_c, 0, 72, 80
2, 16378, Note_on_c, 0, 72, 0
2, 16380, Note_on_c, 0, 70, 80
2, 16392, Note_on_c, 0, 70, 0
2, 16394, Note_on_c, 0, 72, 80
2, 16408, Note_on_c, 0, 72, 0
2, 16410, Note_on_c, 0, 70, 80
2, 16422, Note_on_c, 0, 70, 0
2, 16424, Note_on_c, 0, 72, 80
2, 16438, Note_on_c, 0, 72, 0
2, 16440, Note_on_c, 0, 70, 80
2, 16496, Note_on_c, 0, 70, 0
2, 16500, Note_on_c, 0, 69, 80
2, 16526, Note_on_c, 0, 69, 0
2, 16530, Note_on_c, 0, 70, 80
2, 16556, Note_on_c, 0, 70, 0
2, 16560, Note_on_c, 0, 72, 80
2, 16664, Note_on_c, 0, 72, 0
2, 16680, Note_on_c, 0, 65, 80
2, 16784, Note_on_c, 0, 65, 0
2, 17040, Note_on_c, 0, 72, 80
2, 17144, Note_on_c, 0, 72, 0
2, 17160, Note_on_c, 0, 65, 80
2, 17212, Note_on_c, 0, 65, 0
2, 17220, Note_on_c, 0, 72, 80
2, 17272, Note_on_c, 0, 72, 0
2, 17280, Note_on_c, 0, 74, 80
2, 17332, Note_on_c, 0, 74, 0
2, 17340, Note_on_c, 0, 75, 80
2, 17366, Note_on_c, 0, 75, 0
2, 17370, Note_on_c, 0, 77, 80
2, 17396, Note_on_c, 0, 77, 0
2, 17400, Note_on_c, 0, 75, 80
2, 17452, Note_on_c, 0, 75, 0
2, 17460, Note_on_c, 0, 74, 80
2, 17512, Note_on_c, 0, 74, 0
2, 17520, Note_on_c, 0, 75, 80
2, 17730, Note_on_c, 0, 75, 0
2, 18000, Note_on_c, 0, 72, 80
2, 18104, Note_on_c, 0, 72, 0
2, 18120, Note_on_c, 0, 67, 80
2, 18172, Note_on_c, 0, 67, 0
2, 18180, Note_on_c, 0, 72, 80
2, 18232, Note_on_c, 0, 72, 0
2, 18240, Note_on_c, 0, 77, 80
2, 18292, Note_on_c, 0, 77, 0
2, 18300, Note_on_c, 0, 79, 80
2, 18326, Note_on_c, 0, 79, 0
2, 18330, Note_on_c, 0, 80, 80
2, 18356, Note_on_c, 0, 80, 0
2, 18360, Note_on_c, 0, 79, 80
2, 18412, Note_on_c, 0, 79, 0
2, 18420, Note_on_c, 0, 77, 80
2, 18472, Note_on_c, 0, 77, 0
2, 18480, Note_on_c, 0, 75, 80
2, 18824, Note_on_c, 0, 75, 0
2, 18840, Note_on_c, 0, 77, 80
2, 18892, Note_on_c, 0, 77, 0
2, 18900, Note_on_c, 0, 74, 80
2, 18926, Note_on_c, 0, 74, 0
2, 18930, Note_on_c, 0, 75, 80
2, 18956, Note_on_c, 0, 75, 0
2, 18960, Note_on_c, 0, 75, 80
2, 19064, Note_on_c, 0, 75, 0
2, 19080, Note_on_c, 0, 74, 80
2, 19252, Note_on_c, 0, 74, 0
2, 19260, Note_on_c, 0, 82, 80
2, 19312, Note_on_c, 0, 82, 0
2, 19320, Note_on_c, 0, 79, 80
2, 19372, Note_on_c, 0, 79, 0
2, 19380, Note_on_c, 0, 73, 80
2, 19432, Note_on_c, 0, 73, 0
2, 19440, Note_on_c, 0, 72, 80
2, 19732, Note_on_c, 0, 72, 0
2, 19740, Note_on_c, 0, 75, 80
2, 19792, Note_on_c, 0, 75, 0
2, 19800, Note_on_c, 0, 74, 80
2, 19852, Note_on_c, 0, 74, 0
2, 19860, Note_on_c, 0, 75, 80
2, 19886, Note_on_c, 0, 75, 0
2, 19890, Note_on_c, 0, 72, 80
2, 19916, Note_on_c, 0, 72, 0
2, 19920, Note_on_c, 0, 79, 80
2, 19946, Note_on_c, 0, 79, 0
2, 19950, Note_on_c, 0, 77, 80
2, 19976, Note_on_c, 0, 77, 0
2, 19980, Note_on_c, 0, 79, 80
2, 20084, Note_on_c, 0, 79, 0
2, 20100, Note_on_c, 0, 80, 80
2, 20152, Note_on_c, 0, 80, 0
2, 20160, Note_on_c, 0, 74, 80
2, 20172, Note_on_c, 0, 74, 0
2, 20174, Note_on_c, 0, 75, 80
2, 20188, Note_on_c, 0, 75, 0
2, 20190, Note_on_c, 0, 74, 80
2, 20202, Note_on_c, 0, 74, 0
2, 20204, Note_on_c, 0, 75, 80
2, 20218, Note_on_c, 0, 75, 0
2, 20220, Note_on_c, 0, 74, 80
2, 20232, Note_on_c, 0, 74, 0
2, 20234, Note_on_c, 0, 75, 80
2, 20248, Note_on_c, 0, 75, 0
2, 20250, Note_on_c, 0, 74, 80
2, 20262, Note_on_c, 0, 74, 0
2, 20264, Note_on_c, 0, 75, 80
2, 20278, Note_on_c, 0, 75, 0
2, 20280, Note_on_c, 0, 74, 80
2, 20332, Note_on_c, 0, 74, 0
2, 20340, Note_on_c, 0, 72, 80
2, 20392, Note_on_c, 0, 72, 0
2, 20400, Note_on_c, 0, 72, 80
2, 20610, Note_on_c, 0, 72, 0
2, 23280, Note_on_c, 0, 67, 80
2, 23384, Note_on_c, 0, 67, 0
2, 23400, Note_on_c, 0, 66, 80
2, 23412, Note_on_c, 0, 66, 0
2, 23414, Note_on_c, 0, 67, 80
2, 23428, Note_on_c, 0, 67, 0
2, 23430, Note_on_c, 0, 66, 80
2, 23456, Note_on_c, 0, 66, 0
2, 23460, Note_on_c, 0, 67, 80
2, 23512, Note_on_c, 0, 67, 0
2, 23520, Note_on_c, 0, 69, 80
2, 23572, Note_on_c, 0, 69, 0
2, 23580, Note_on_c, 0, 70, 80
2, 23606, Note_on_c, 0, 70, 0
2, 23610, Note_on_c, 0, 69, 80
2, 23636, Note_on_c, 0, 69, 0
2, 23640, Note_on_c, 0, 67, 80
2, 23692, Note_on_c, 0, 67, 0
2, 23700, Note_on_c, 0, 69, 80
2, 23752, Note_on_c, 0, 69, 0
2, 23760, Note_on_c, 0, 70, 80
2, 23864, Note_on_c, 0, 70, 0
2, 23880, Note_on_c, 0, 67, 80
2, 23984, Note_on_c, 0, 67, 0
2, 24240, Note_on_c, 0, 67, 80
2, 24292, Note_on_c, 0, 67, 0
2, 24300, Note_on_c, 0, 66, 80
2, 24352, Note_on_c, 0, 66, 0
2, 24360, Note_on_c, 0, 62, 80
2, 24412, Note_on_c, 0, 62, 0
2, 24420, Note_on_c, 0, 67, 80
2, 24472, Note_on_c, 0, 67, 0
2, 24480, Note_on_c, 0, 69, 80
2, 24532, Note_on_c, 0, 69, 0
2, 24540, Note_on_c, 0, 66, 80
2, 24592, Note_on_c, 0, 66, 0
2, 24600, Note_on_c, 0, 62, 80
2, 24652, Note_on_c, 0, 62, 0
2, 24660, Note_on_c, 0, 69, 80
2, 24712, Note_on_c, 0, 69, 0
2, 24720, Note_on_c, 0, 70, 80
2, 24772, Note_on_c, 0, 70, 0
2, 24780, Note_on_c, 0, 67, 80
2, 24832, Note_on_c, 0, 67, 0
2, 24840, Note_on_c, 0, 66, 80
2, 24892, Note_on_c, 0, 66, 0
2, 24900, Note_on_c, 0, 67, 80
2, 24952, Note_on_c, 0, 67, 0
2, 24960, Note_on_c, 0, 62, 80
2, 25012, Note_on_c, 0, 62, 0
2, 25020, Note_on_c, 0, 74, 80
2, 25072, Note_on_c, 0, 74, 0
2, 25080, Note_on_c, 0, 70, 80
2, 25106, Note_on_c, 0, 70, 0
2, 25110, Note_on_c, 0, 72, 80
2, 25136, Note_on_c, 0, 72, 0
2, 25140, Note_on_c, 0, 69, 80
2, 25166, Note_on_c, 0, 69, 0
2, 25170, Note_on_c, 0, 70, 80
2, 25196, Note_on_c, 0, 70, 0
2, 25200, Note_on_c, 0, 72, 80
2, 25226, Note_on_c, 0, 72, 0
2, 25230, Note_on_c, 0, 74, 80
2, 25256, Note_on_c, 0, 74, 0
2, 25260, Note_on_c, 0, 72, 80
2, 25286, Note_on_c, 0, 72, 0
2, 25290, Note_on_c, 0, 74, 80
2, 25316, Note_on_c, 0, 74, 0
2, 25320, Note_on_c, 0, 74, 80
2, 25332, Note_on_c, 0, 74, 0
2, 25334, Note_on_c, 0, 75, 80
2, 25348, Note_on_c, 0, 75, 0
2, 25350, Note_on_c, 0, 74, 80
2, 25362, Note_on_c, 0, 74, 0
2, 25364, Note_on_c, 0, 75, 80
2, 25378, Note_on_c, 0, 75, 0
2, 25380, Note_on_c, 0, 74, 80
2, 25406, Note_on_c, 0, 74, 0
2, 25410, Note_on_c, 0, 72, 80
2, 25422, Note_on_c, 0, 72, 0
2, 25424, Note_on_c, 0, 74, 80
2, 25438, Note_on_c, 0, 74, 0
2, 25440, Note_on_c, 0, 75, 80
2, 25452, Note_on_c, 0, 75, 0
2, 25454, Note_on_c, 0, 77, 80
2, 25468, Note_on_c, 0, 77, 0
2, 25470, Note_on_c, 0, 75, 80
2, 25482, Note_on_c, 0, 75, 0
2, 25484, Note_on_c, 0, 77, 80
2, 25498, Note_on_c, 0, 77, 0
2, 25500, Note_on_c, 0, 74, 80
2, 25526, Note_on_c, 0, 74, 0
2, 25530, Note_on_c, 0, 75, 80
2, 25556, Note_on_c, 0, 75, 0
2, 25560, Note_on_c, 0, 77, 80
2, 25612, Note_on_c, 0, 77, 0
2, 25620, Note_on_c, 0, 79, 80
2, 25646, Note_on_c, 0, 79, 0
2, 25650, Note_on_c, 0, 75, 80
2, 25676, Note_on_c, 0, 75, 0
2, 25680, Note_on_c, 0, 75, 80
2, 25784, Note_on_c, 0, 75, 0
2, 25800, Note_on_c, 0, 74, 80
2, 25904, Note_on_c, 0, 74, 0
2, 26160, Note_on_c, 0, 74, 80
2, 26212, Note_on_c, 0, 74, 0
2, 26220, Note_on_c, 0, 70, 80
2, 26272, Note_on_c, 0, 70, 0
2, 26280, Note_on_c, 0, 67, 80
2, 26332, Note_on_c, 0, 67, 0
2, 26340, Note_on_c, 0, 79, 80
2, 26392, Note_on_c, 0, 79, 0
2, 26400, Note_on_c, 0, 77, 80
2, 26452, Note_on_c, 0, 77, 0
2, 26460, Note_on_c, 0, 79, 80
2, 26486, Note_on_c, 0, 79, 0
2, 26490, Note_on_c, 0, 80, 80
2, 26516, Note_on_c, 0, 80, 0
2, 26520, Note_on_c, 0, 74, 80
2, 26572, Note_on_c, 0, 74, 0
2, 26580, Note_on_c, 0, 79, 80
2, 26632, Note_on_c, 0, 79, 0
2, 26640, Note_on_c, 0, 75, 80
2, 26744, Note_on_c, 0, 75, 0
2, 26760, Note_on_c, 0, 74, 80
2, 26812, Note_on_c, 0, 74, 0
2, 26820, Note_on_c, 0, 72, 80
2, 26872, Note_on_c, 0, 72, 0
2, 27120, Note_on_c, 0, 72, 80
2, 27172, Note_on_c, 0, 72, 0
2, 27180, Note_on_c, 0, 69, 80
2, 27232, Note_on_c, 0, 69, 0
2, 27240, Note_on_c, 0, 65, 80
2, 27292, Note_on_c, 0, 65, 0
2, 27300, Note_on_c, 0, 77, 80
2, 27352, Note_on_c, 0, 77, 0
2, 27360, Note_on_c, 0, 75, 80
2, 27412, Note_on_c, 0, 75, 0
2, 27420, Note_on_c, 0, 77, 80
2, 27446, Note_on_c, 0, 77, 0
2, 27450, Note_on_c, 0, 79, 80
2, 27476, Note_on_c, 0, 79, 0
2, 27480, Note_on_c, 0, 72, 80
2, 27532, Note_on_c, 0, 72, 0
2, 27540, Note_on_c, 0, 77, 80
2, 27592, Note_on_c, 0, 77, 0
2, 27600, Note_on_c, 0, 74, 80
2, 27704, Note_on_c, 0, 74, 0
2, 27720, Note_on_c, 0, 72, 80
2, 27772, Note_on_c, 0, 72, 0
2, 27780, Note_on_c, 0, 70, 80
2, 27832, Note_on_c, 0, 70, 0
2, 28080, Note_on_c, 0, 74, 80
2, 28132, Note_on_c, 0, 74, 0
2, 28140, Note_on_c, 0, 72, 80
2, 28166, Note_on_c, 0, 72, 0
2, 28170, Note_on_c, 0, 70, 80
2, 28196, Note_on_c, 0, 70, 0
2, 28200, Note_on_c, 0, 72, 80
2, 28252, Note_on_c, 0, 72, 0
2, 28260, Note_on_c, 0, 74, 80
2, 28312, Note_on_c, 0, 74, 0
2, 28320, Note_on_c, 0, 67, 80
2, 28372, Note_on_c, 0, 67, 0
2, 28380, Note_on_c, 0, 69, 80
2, 28406, Note_on_c, 0, 69, 0
2, 28410, Note_on_c, 0, 70, 80
2, 28436, Note_on_c, 0, 70, 0
2, 28440, Note_on_c, 0, 72, 80
2, 28492, Note_on_c, 0, 72, 0
2, 28500, Note_on_c, 0, 75, 80
2, 28526, Note_on_c, 0, 75, 0
2, 28530, Note_on_c, 0, 74, 80
2, 28556, Note_on_c, 0, 74, 0
2, 28560, Note_on_c, 0, 75, 80
2, 28612, Note_on_c, 0, 75, 0
2, 28620, Note_on_c, 0, 74, 80
2, 28646, Note_on_c, 0, 74, 0
2, 28650, Note_on_c, 0, 72, 80
2, 28676, Note_on_c, 0, 72, 0
2, 28680, Note_on_c, 0, 74, 80
2, 28732, Note_on_c, 0, 74, 0
2, 28740, Note_on_c, 0, 75, 80
2, 28792, Note_on_c, 0, 75, 0
2, 28800, Note_on_c, 0, 69, 80
2, 28852, Note_on_c, 0, 69, 0
2, 28860, Note_on_c, 0, 72, 80
2, 28886, Note_on_c, 0, 72, 0
2, 28890, Note_on_c, 0, 70, 80
2, 28916, Note_on_c, 0, 70, 0
2, 28920, Note_on_c, 0, 72, 80
2, 28972, Note_on_c, 0, 72, 0
2, 28980, Note_on_c, 0, 74, 80
2, 29006, Note_on_c, 0, 74, 0
2, 29010, Note_on_c, 0, 75, 80
2, 29036, Note_on_c, 0, 75, 0
2, 29040, Note_on_c, 0, 66, 80
2, 29144, Note_on_c, 0, 66, 0
2, 29160, Note_on_c, 0, 64, 80
2, 29212, Note_on_c, 0, 64, 0
2, 29220, Note_on_c, 0, 62, 80
2, 29272, Note_on_c, 0, 62, 0
2, 29280, Note_on_c, 0, 74, 80
2, 29572, Note_on_c, 0, 74, 0
2, 29580, Note_on_c, 0, 75, 80
2, 29606, Note_on_c, 0, 75, 0
2, 29610, Note_on_c, 0, 74, 80
2, 29636, Note_on_c, 0, 74, 0
2, 29640, Note_on_c, 0, 72, 80
2, 29692, Note_on_c, 0, 72, 0
2, 29700, Note_on_c, 0, 74, 80
2, 29726, Note_on_c, 0, 74, 0
2, 29730, Note_on_c, 0, 70, 80
2, 29756, Note_on_c, 0, 70, 0
2, 29760, Note_on_c, 0, 72, 80
2, 30052, Note_on_c, 0, 72, 0
2, 30060, Note_on_c, 0, 74, 80
2, 30086, Note_on_c, 0, 74, 0
2, 30090, Note_on_c, 0, 72, 80
2, 30116, Note_on_c, 0, 72, 0
2, 30120, Note_on_c, 0, 70, 80
2, 30172, Note_on_c, 0, 70, 0
2, 30180, Note_on_c, 0, 72, 80
2, 30206, Note_on_c, 0, 72, 0
2, 30210, Note_on_c, 0, 69, 80
2, 30236, Note_on_c, 0, 69, 0
2, 30240, Note_on_c, 0, 70, 80
2, 30532, Note_on_c, 0, 70, 0
2, 30540, Note_on_c, 0, 75, 80
2, 30566, Note_on_c, 0, 75, 0
2, 30570, Note_on_c, 0, 74, 80
2, 30596, Note_on_c, 0, 74, 0
2, 30600, Note_on_c, 0, 72, 80
2, 30626, Note_on_c, 0, 72, 0
2, 30630, Note_on_c, 0, 70, 80
2, 30656, Note_on_c, 0, 70, 0
2, 30660, Note_on_c, 0, 69, 80
2, 30686, Note_on_c, 0, 69, 0
2, 30690, Note_on_c, 0, 70, 80
2, 30716, Note_on_c, 0, 70, 0
2, 30720, Note_on_c, 0, 72, 80
2, 30746, Note_on_c, 0, 72, 0
2, 30750, Note_on_c, 0, 70, 80
2, 30776, Note_on_c, 0, 70, 0
2, 30780, Note_on_c, 0, 69, 80
2, 30806, Note_on_c, 0, 69, 0
2, 30810, Note_on_c, 0, 67, 80
2, 30836, Note_on_c, 0, 67, 0
2, 30840, Note_on_c, 0, 69, 80
2, 30866, Note_on_c, 0, 69, 0
2, 30870, Note_on_c, 0, 66, 80
2, 30896, Note_on_c, 0, 66, 0
2, 30900, Note_on_c, 0, 67, 80
2, 30926, Note_on_c, 0, 67, 0
2, 30930, Note_on_c, 0, 69, 80
2, 30956, Note_on_c, 0, 69, 0
2, 30960, Note_on_c, 0, 62, 80
2, 30986, Note_on_c, 0, 62, 0
2, 30990, Note_on_c, 0, 64, 80
2, 31016, Note_on_c, 0, 64, 0
2, 31020, Note_on_c, 0, 62, 80
2, 31046, Note_on_c, 0, 62, 0
2, 31050, Note_on_c, 0, 64, 80
2, 31076, Note_on_c, 0, 64, 0
2, 31080, Note_on_c, 0, 66, 80
2, 31106, Note_on_c, 0, 66, 0
2, 31110, Note_on_c, 0, 67, 80
2, 31136, Note_on_c, 0, 67, 0
2, 31140, Note_on_c, 0, 66, 80
2, 31166, Note_on_c, 0, 66, 0
2, 31170, Note_on_c, 0, 67, 80
2, 31196, Note_on_c, 0, 67, 0
2, 31200, Note_on_c, 0, 69, 80
2, 31226, Note_on_c, 0, 69, 0
2, 31230, Note_on_c, 0, 67, 80
2, 31256, Note_on_c, 0, 67, 0
2, 31260, Note_on_c, 0, 66, 80
2, 31286, Note_on_c, 0, 66, 0
2, 31290, Note_on_c, 0, 67, 80
2, 31316, Note_on_c, 0, 67, 0
2, 31320, Note_on_c, 0, 69, 80
2, 31346, Note_on_c, 0, 69, 0
2, 31350, Note_on_c, 0, 70, 80
2, 31376, Note_on_c, 0, 70, 0
2, 31380, Note_on_c, 0, 69, 80
2, 31406, Note_on_c, 0, 69, 0
2, 31410, Note_on_c, 0, 70, 80
2, 31436, Note_on_c, 0, 70, 0
2, 31440, Note_on_c, 0, 72, 80
2, 31466, Note_on_c, 0, 72, 0
2, 31470, Note_on_c, 0, 74, 80
2, 31482, Note_on_c, 0, 74, 0
2, 31484, Note_on_c, 0, 72, 80
2, 31498, Note_on_c, 0, 72, 0
2, 31500, Note_on_c, 0, 70, 80
2, 31526, Note_on_c, 0, 70, 0
2, 31530, Note_on_c, 0, 72, 80
2, 31556, Note_on_c, 0, 72, 0
2, 31560, Note_on_c, 0, 74, 80
2, 31586, Note_on_c, 0, 74, 0
2, 31590, Note_on_c, 0, 75, 80
2, 31602, Note_on_c, 0, 75, 0
2, 31604, Note_on_c, 0, 74, 80
2, 31618, Note_on_c, 0, 74, 0
2, 31620, Note_on_c, 0, 72, 80
2, 31632, Note_on_c, 0, 72, 0
2, 31634, Note_on_c, 0, 74, 80
2, 31648, Note_on_c, 0, 74, 0
2, 31650, Note_on_c, 0, 75, 80
2, 31676, Note_on_c, 0, 75, 0
2, 31680, Note_on_c, 0, 69, 80
2, 31692, Note_on_c, 0, 69, 0
2, 31694, Note_on_c, 0, 70, 80
2, 31708, Note_on_c, 0, 70, 0
2, 31710, Note_on_c, 0, 69, 80
2, 31722, Note_on_c, 0, 69, 0
2, 31724, Note_on_c, 0, 70, 80
2, 31738, Note_on_c, 0, 70, 0
2, 31740, Note_on_c, 0, 69, 80
2, 31752, Note_on_c, 0, 69, 0
2, 31754, Note_on_c, 0, 70, 80
2, 31768, Note_on_c, 0, 70, 0
2, 31770, Note_on_c, 0, 69, 80
2, 31782, Note_on_c, 0, 69, 0
2, 31784, Note_on_c, 0, 70, 80
2, 31798, Note_on_c, 0, 70, 0
2, 31800, Note_on_c, 0, 69, 80
2, 31856, Note_on_c, 0, 69, 0
2, 31860, Note_on_c, 0, 67, 80
2, 31912, Note_on_c, 0, 67, 0
2, 31920, Note_on_c, 0, 67, 80
2, 32130, Note_on_c, 0, 67, 0
2, 32130, End_track
3, 0, Start_track
3, 0, Title_t, "Clarinet"
3, 0, Program_c, 1, 71
3, 0, Control_c, 1, 7, 80
3, 0, Control_c, 1, 10, 64
3, 240, Note_on_c, 1, 55, 80
3, 344, Note_on_c, 1, 55, 0
3, 360, Note_on_c, 1, 50, 80
3, 412, Note_on_c, 1, 50, 0
3, 420, Note_on_c, 1, 55, 80
3, 472, Note_on_c, 1, 55, 0
3, 480, Note_on_c, 1, 57, 80
3, 584, Note_on_c, 1, 57, 0
3, 600, Note_on_c, 1, 50, 80
3, 652, Note_on_c, 1, 50, 0
3, 660, Note_on_c, 1, 57, 80
3, 712, Note_on_c, 1, 57, 0
3, 720, Note_on_c, 1, 58, 80
3, 772, Note_on_c, 1, 58, 0
3, 780, Note_on_c, 1, 62, 80
3, 832, Note_on_c, 1, 62, 0
3, 840, Note_on_c, 1, 58, 80
3, 892, Note_on_c, 1, 58, 0
3, 900, Note_on_c, 1, 55, 80
3, 952, Note_on_c, 1, 55, 0
3, 960, Note_on_c, 1, 54, 80
3, 1012, Note_on_c, 1, 54, 0
3, 1020, Note_on_c, 1, 57, 80
3, 1072, Note_on_c, 1, 57, 0
3, 1080, Note_on_c, 1, 54, 80
3, 1132, Note_on_c, 1, 54, 0
3, 1140, Note_on_c, 1, 50, 80
3, 1192, Note_on_c, 1, 50, 0
3, 1200, Note_on_c, 1, 55, 80
3, 1252, Note_on_c, 1, 55, 0
3, 1260, Note_on_c, 1, 58, 80
3, 1312, Note_on_c, 1, 58, 0
3, 1320, Note_on_c, 1, 55, 80
3, 1372, Note_on_c, 1, 55, 0
3, 1380, Note_on_c, 1, 50, 80
3, 1432, Note_on_c, 1, 50, 0
3, 1440, Note_on_c, 1, 51, 80
3, 1492, Note_on_c, 1, 51, 0
3, 1500, Note_on_c, 1, 50, 80
3, 1552, Note_on_c, 1, 50, 0
3, 1560, Note_on_c, 1, 51, 80
3, 1612, Note_on_c, 1, 51, 0
3, 1620, Note_on_c, 1, 48, 80
3, 1672, Note_on_c, 1, 48, 0
3, 1680, Note_on_c, 1, 53, 80
3, 1732, Note_on_c, 1, 53, 0
3, 1740, Note_on_c, 1, 57, 80
3, 1792, Note_on_c, 1, 57, 0
3, 1800, Note_on_c, 1, 53, 80
3, 1852, Note_on_c, 1, 53, 0
3, 1860, Note_on_c, 1, 48, 80
3, 1912, Note_on_c, 1, 48, 0
3, 1920, Note_on_c, 1, 50, 80
3, 1972, Note_on_c, 1, 50, 0
3, 1980, Note_on_c, 1, 48, 80
3, 2032, Note_on_c, 1, 48, 0
3, 2040, Note_on_c, 1, 50, 80
3, 2092, Note_on_c, 1, 50, 0
3, 2100, Note_on_c, 1, 46, 80
3, 2152, Note_on_c, 1, 46, 0
3, 2160, Note_on_c, 1, 51, 80
3, 2212, Note_on_c, 1, 51, 0
3, 2220, Note_on_c, 1, 55, 80
3, 2272, Note_on_c, 1, 55, 0
3, 2280, Note_on_c, 1, 51, 80
3, 2332, Note_on_c, 1, 51, 0
3, 2340, Note_on_c, 1, 46, 80
3, 2392, Note_on_c, 1, 46, 0
3, 2400, Note_on_c, 1, 48, 80
3, 2452, Note_on_c, 1, 48, 0
3, 2460, Note_on_c, 1, 46, 80
3, 2512, Note_on_c, 1, 46, 0
3, 2520, Note_on_c, 1, 48, 80
3, 2572, Note_on_c, 1, 48, 0
3, 2580, Note_on_c, 1, 45, 80
3, 2632, Note_on_c, 1, 45, 0
3, 2640, Note_on_c, 1, 46, 80
3, 2744, Note_on_c, 1, 46, 0
3, 2760, Note_on_c, 1, 43, 80
3, 2812, Note_on_c, 1, 43, 0
3, 2820, Note_on_c, 1, 46, 80
3, 2872, Note_on_c, 1, 46, 0
3, 2880, Note_on_c, 1, 50, 80
3, 2984, Note_on_c, 1, 50, 0
3, 3000, Note_on_c, 1, 38, 80
3, 3104, Note_on_c, 1, 38, 0
3, 3120, Note_on_c, 1, 43, 80
3, 3224, Note_on_c, 1, 43, 0
3, 3240, Note_on_c, 1, 46, 80
3, 3344, Note_on_c, 1, 46, 0
3, 3360, Note_on_c, 1, 50, 80
3, 3464, Note_on_c, 1, 50, 0
3, 3480, Note_on_c, 1, 54, 80
3, 3584, Note_on_c, 1, 54, 0
3, 3600, Note_on_c, 1, 55, 80
3, 3704, Note_on_c, 1, 55, 0
3, 3720, Note_on_c, 1, 50, 80
3, 3772, Note_on_c, 1, 50, 0
3, 3780, Note_on_c, 1, 55, 80
3, 3832, Note_on_c, 1, 55, 0
3, 3840, Note_on_c, 1, 57, 80
3, 3944, Note_on_c, 1, 57, 0
3, 3960, Note_on_c, 1, 50, 80
3, 4012, Note_on_c, 1, 50, 0
3, 4020, Note_on_c, 1, 57, 80
3, 4072, Note_on_c, 1, 57, 0
3, 4080, Note_on_c, 1, 58, 80
3, 4132, Note_on_c, 1, 58, 0
3, 4140, Note_on_c, 1, 62, 80
3, 4192, Note_on_c, 1, 62, 0
3, 4200, Note_on_c, 1, 58, 80
3, 4252, Note_on_c, 1, 58, 0
3, 4260, Note_on_c, 1, 55, 80
3, 4312, Note_on_c, 1, 55, 0
3, 4320, Note_on_c, 1, 54, 80
3, 4372, Note_on_c, 1, 54, 0
3, 4380, Note_on_c, 1, 57, 80
3, 4432, Note_on_c, 1, 57, 0
3, 4440, Note_on_c, 1, 54, 80
3, 4492, Note_on_c, 1, 54, 0
3, 4500, Note_on_c, 1, 50, 80
3, 4552, Note_on_c, 1, 50, 0
3, 4560, Note_on_c, 1, 55, 80
3, 4664, Note_on_c, 1, 55, 0
3, 4680, Note_on_c, 1, 43, 80
3, 4784, Note_on_c, 1, 43, 0
3, 4920, Note_on_c, 1, 53, 80
3, 5024, Note_on_c, 1, 53, 0
3, 5040, Note_on_c, 1, 51, 80
3, 5092, Note_on_c, 1, 51, 0
3, 5100, Note_on_c, 1, 55, 80
3, 5152, Note_on_c, 1, 55, 0
3, 5160, Note_on_c, 1, 51, 80
3, 5212, Note_on_c, 1, 51, 0
3, 5220, Note_on_c, 1, 46, 80
3, 5272, Note_on_c, 1, 46, 0
3, 5280, Note_on_c, 1, 48, 80
3, 5332, Note_on_c, 1, 48, 0
3, 5340, Note_on_c, 1, 46, 80
3, 5392, Note_on_c, 1, 46, 0
3, 5400, Note_on_c, 1, 48, 80
3, 5452, Note_on_c, 1, 48, 0
3, 5460, Note_on_c, 1, 45, 80
3, 5512, Note_on_c, 1, 45, 0
3, 5520, Note_on_c, 1, 50, 80
3, 5624, Note_on_c, 1, 50, 0
3, 5640, Note_on_c, 1, 62, 80
3, 5744, Note_on_c, 1, 62, 0
3, 5760, Note_on_c, 1, 60, 80
3, 5864, Note_on_c, 1, 60, 0
3, 5880, Note_on_c, 1, 58, 80
3, 5984, Note_on_c, 1, 58, 0
3, 6000, Note_on_c, 1, 57, 80
3, 6104, Note_on_c, 1, 57, 0
3, 6120, Note_on_c, 1, 50, 80
3, 6172, Note_on_c, 1, 50, 0
3, 6180, Note_on_c, 1, 54, 80
3, 6232, Note_on_c, 1, 54, 0
3, 6240, Note_on_c, 1, 55, 80
3, 6344, Note_on_c, 1, 55, 0
3, 6360, Note_on_c, 1, 43, 80
3, 6412, Note_on_c, 1, 43, 0
3, 6420, Note_on_c, 1, 55, 80
3, 6472, Note_on_c, 1, 55, 0
3, 6480, Note_on_c, 1, 54, 80
3, 6532, Note_on_c, 1, 54, 0
3, 6540, Note_on_c, 1, 57, 80
3, 6592, Note_on_c, 1, 57, 0
3, 6600, Note_on_c, 1, 54, 80
3, 6652, Note_on_c, 1, 54, 0
3, 6660, Note_on_c, 1, 50, 80
3, 6712, Note_on_c, 1, 50, 0
3, 6720, Note_on_c, 1, 60, 80
3, 6772, Note_on_c, 1, 60, 0
3, 6780, Note_on_c, 1, 58, 80
3, 6832, Note_on_c, 1, 58, 0
3, 6840, Note_on_c, 1, 60, 80
3, 6892, Note_on_c, 1, 60, 0
3, 6900, Note_on_c, 1, 57, 80
3, 6952, Note_on_c, 1, 57, 0
3, 6960, Note_on_c, 1, 58, 80
3, 7064, Note_on_c, 1, 58, 0
3, 7080, Note_on_c, 1, 55, 80
3, 7132, Note_on_c, 1, 55, 0
3, 7140, Note_on_c, 1, 58, 80
3, 7192, Note_on_c, 1, 58, 0
3, 7200, Note_on_c, 1, 60, 80
3, 7304, Note_on_c, 1, 60, 0
3, 7320, Note_on_c, 1, 57, 80
3, 7372, Note_on_c, 1, 57, 0
3, 7380, Note_on_c, 1, 60, 80
3, 7432, Note_on_c, 1, 60, 0
3, 7440, Note_on_c, 1, 62, 80
3, 7492, Note_on_c, 1, 62, 0
3, 7500, Note_on_c, 1, 65, 80
3, 7552, Note_on_c, 1, 65, 0
3, 7560, Note_on_c, 1, 62, 80
3, 7612, Note_on_c, 1, 62, 0
3, 7620, Note_on_c, 1, 58, 80
3, 7672, Note_on_c, 1, 58, 0
3, 7680, Note_on_c, 1, 57, 80
3, 7732, Note_on_c, 1, 57, 0
3, 7740, Note_on_c, 1, 60, 80
3, 7792, Note_on_c, 1, 60, 0
3, 7800, Note_on_c, 1, 57, 80
3, 7852, Note_on_c, 1, 57, 0
3, 7860, Note_on_c, 1, 53, 80
3, 7912, Note_on_c, 1, 53, 0
3, 7920, Note_on_c, 1, 58, 80
3, 8024, Note_on_c, 1, 58, 0
3, 8040, Note_on_c, 1, 46, 80
3, 8144, Note_on_c, 1, 46, 0
3, 8280, Note_on_c, 1, 58, 80
3, 8384, Note_on_c, 1, 58, 0
3, 8400, Note_on_c, 1, 60, 80
3, 8504, Note_on_c, 1, 60, 0
3, 8520, Note_on_c, 1, 48, 80
3, 8624, Note_on_c, 1, 48, 0
3, 8760, Note_on_c, 1, 60, 80
3, 8864, Note_on_c, 1, 60, 0
3, 8880, Note_on_c, 1, 62, 80
3, 8932, Note_on_c, 1, 62, 0
3, 8940, Note_on_c, 1, 65, 80
3, 8992, Note_on_c, 1, 65, 0
3, 9000, Note_on_c, 1, 62, 80
3, 9052, Note_on_c, 1, 62, 0
3, 9060, Note_on_c, 1, 57, 80
3, 9112, Note_on_c, 1, 57, 0
3, 9120, Note_on_c, 1, 58, 80
3, 9172, Note_on_c, 1, 58, 0
3, 9180, Note_on_c, 1, 57, 80
3, 9232, Note_on_c, 1, 57, 0
3, 9240, Note_on_c, 1, 58, 80
3, 9292, Note_on_c, 1, 58, 0
3, 9300, Note_on_c, 1, 55, 80
3, 9352, Note_on_c, 1, 55, 0
3, 9360, Note_on_c, 1, 60, 80
3, 9412, Note_on_c, 1, 60, 0
3, 9420, Note_on_c, 1, 63, 80
3, 9472, Note_on_c, 1, 63, 0
3, 9480, Note_on_c, 1, 60, 80
3, 9532, Note_on_c, 1, 60, 0
3, 9540, Note_on_c, 1, 55, 80
3, 9592, Note_on_c, 1, 55, 0
3, 9600, Note_on_c, 1, 57, 80
3, 9652, Note_on_c, 1, 57, 0
3, 9660, Note_on_c, 1, 55, 80
3, 9712, Note_on_c, 1, 55, 0
3, 9720, Note_on_c, 1, 57, 80
3, 9772, Note_on_c, 1, 57, 0
3, 9780, Note_on_c, 1, 53, 80
3, 9832, Note_on_c, 1, 53, 0
3, 9840, Note_on_c, 1, 58, 80
3, 9892, Note_on_c, 1, 58, 0
3, 9900, Note_on_c, 1, 62, 80
3, 9952, Note_on_c, 1, 62, 0
3, 9960, Note_on_c, 1, 58, 80
3, 10012, Note_on_c, 1, 58, 0
3, 10020, Note_on_c, 1, 53, 80
3, 10072, Note_on_c, 1, 53, 0
3, 10080, Note_on_c, 1, 55, 80
3, 10132, Note_on_c, 1, 55, 0
3, 10140, Note_on_c, 1, 53, 80
3, 10192, Note_on_c, 1, 53, 0
3, 10200, Note_on_c, 1, 55, 80
3, 10252, Note_on_c, 1, 55, 0
3, 10260, Note_on_c, 1, 51, 80
3, 10312, Note_on_c, 1, 51, 0
3, 10320, Note_on_c, 1, 53, 80
3, 10424, Note_on_c, 1, 53, 0
3, 10440, Note_on_c, 1, 41, 80
3, 10544, Note_on_c, 1, 41, 0
3, 10680, Note_on_c, 1, 53, 80
3, 10784, Note_on_c, 1, 53, 0
3, 10800, Note_on_c, 1, 55, 80
3, 10904, Note_on_c, 1, 55, 0
3, 10920, Note_on_c, 1, 50, 80
3, 10972, Note_on_c, 1, 50, 0
3, 10980, Note_on_c, 1, 51, 80
3, 11032, Note_on_c, 1, 51, 0
3, 11040, Note_on_c, 1, 53, 80
3, 11144, Note_on_c, 1, 53, 0
3, 11160, Note_on_c, 1, 41, 80
3, 11264, Note_on_c, 1, 41, 0
3, 11280, Note_on_c, 1, 58, 80
3, 11384, Note_on_c, 1, 58, 0
3, 11400, Note_on_c, 1, 53, 80
3, 11452, Note_on_c, 1, 53, 0
3, 11460, Note_on_c, 1, 58, 80
3, 11512, Note_on_c, 1, 58, 0
3, 11520, Note_on_c, 1, 60, 80
3, 11624, Note_on_c, 1, 60, 0
3, 11640, Note_on_c, 1, 53, 80
3, 11692, Note_on_c, 1, 53, 0
3, 11700, Note_on_c, 1, 60, 80
3, 11752, Note_on_c, 1, 60, 0
3, 11760, Note_on_c, 1, 62, 80
3, 11812, Note_on_c, 1, 62, 0
3, 11820, Note_on_c, 1, 65, 80
3, 11872, Note_on_c, 1, 65, 0
3, 11880, Note_on_c, 1, 62, 80
3, 11932, Note_on_c, 1, 62, 0
3, 11940, Note_on_c, 1, 58, 80
3, 11992, Note_on_c, 1, 58, 0
3, 12000, Note_on_c, 1, 57, 80
3, 12052, Note_on_c, 1, 57, 0
3, 12060, Note_on_c, 1, 60, 80
3, 12112, Note_on_c, 1, 60, 0
3, 12120, Note_on_c, 1, 57, 80
3, 12172, Note_on_c, 1, 57, 0
3, 12180, Note_on_c, 1, 53, 80
3, 12232, Note_on_c, 1, 53, 0
3, 12240, Note_on_c, 1, 58, 80
3, 12292, Note_on_c, 1, 58, 0
3, 12300, Note_on_c, 1, 62, 80
3, 12352, Note_on_c, 1, 62, 0
3, 12360, Note_on_c, 1, 58, 80
3, 12412, Note_on_c, 1, 58, 0
3, 12420, Note_on_c, 1, 53, 80
3, 12472, Note_on_c, 1, 53, 0
3, 12480, Note_on_c, 1, 55, 80
3, 12532, Note_on_c, 1, 55, 0
3, 12540, Note_on_c, 1, 53, 80
3, 12592, Note_on_c, 1, 53, 0
3, 12600, Note_on_c, 1, 55, 80
3, 12652, Note_on_c, 1, 55, 0
3, 12660, Note_on_c, 1, 51, 80
3, 12712, Note_on_c, 1, 51, 0
3, 12720, Note_on_c, 1, 57, 80
3, 12772, Note_on_c, 1, 57, 0
3, 12780, Note_on_c, 1, 60, 80
3, 12832, Note_on_c, 1, 60, 0
3, 12840, Note_on_c, 1, 57, 80
3, 12892, Note_on_c, 1, 57, 0
3, 12900, Note_on_c, 1, 51, 80
3, 12952, Note_on_c, 1, 51, 0
3, 12960, Note_on_c, 1, 53, 80
3, 13012, Note_on_c, 1, 53, 0
3, 13020, Note_on_c, 1, 51, 80
3, 13072, Note_on_c, 1, 51, 0
3, 13080, Note_on_c, 1, 53, 80
3, 13132, Note_on_c, 1, 53, 0
3, 13140, Note_on_c, 1, 50, 80
3, 13192, Note_on_c, 1, 50, 0
3, 13200, Note_on_c, 1, 55, 80
3, 13252, Note_on_c, 1, 55, 0
3, 13260, Note_on_c, 1, 58, 80
3, 13312, Note_on_c, 1, 58, 0
3, 13320, Note_on_c, 1, 55, 80
3, 13372, Note_on_c, 1, 55, 0
3, 13380, Note_on_c, 1, 50, 80
3, 13432, Note_on_c, 1, 50, 0
3, 13440, Note_on_c, 1, 51, 80
3, 13492, Note_on_c, 1, 51, 0
3, 13500, Note_on_c, 1, 50, 80
3, 13552, Note_on_c, 1, 50, 0
3, 13560, Note_on_c, 1, 51, 80
3, 13612, Note_on_c, 1, 51, 0
3, 13620, Note_on_c, 1, 48, 80
3, 13672, Note_on_c, 1, 48, 0
3, 13680, Note_on_c, 1, 50, 80
3, 13784, Note_on_c, 1, 50, 0
3, 13800, Note_on_c, 1, 46, 80
3, 13852, Note_on_c, 1, 46, 0
3, 13860, Note_on_c, 1, 50, 80
3, 13912, Note_on_c, 1, 50, 0
3, 13920, Note_on_c, 1, 53, 80
3, 14024, Note_on_c, 1, 53, 0
3, 14040, Note_on_c, 1, 41, 80
3, 14092, Note_on_c, 1, 41, 0
3, 14100, Note_on_c, 1, 53, 80
3, 14152, Note_on_c, 1, 53, 0
3, 14160, Note_on_c, 1, 58, 80
3, 14212, Note_on_c, 1, 58, 0
3, 14220, Note_on_c, 1, 62, 80
3, 14272, Note_on_c, 1, 62, 0
3, 14280, Note_on_c, 1, 58, 80
3, 14332, Note_on_c, 1, 58, 0
3, 14340, Note_on_c, 1, 55, 80
3, 14392, Note_on_c, 1, 55, 0
3, 14400, Note_on_c, 1, 54, 80
3, 14452, Note_on_c, 1, 54, 0
3, 14460, Note_on_c, 1, 57, 80
3, 14512, Note_on_c, 1, 57, 0
3, 14520, Note_on_c, 1, 54, 80
3, 14572, Note_on_c, 1, 54, 0
3, 14580, Note_on_c, 1, 50, 80
3, 14632, Note_on_c, 1, 50, 0
3, 14640, Note_on_c, 1, 55, 80
3, 14692, Note_on_c, 1, 55, 0
3, 14700, Note_on_c, 1, 58, 80
3, 14752, Note_on_c, 1, 58, 0
3, 14760, Note_on_c, 1, 55, 80
3, 14812, Note_on_c, 1, 55, 0
3, 14820, Note_on_c, 1, 50, 80
3, 14872, Note_on_c, 1, 50, 0
3, 14880, Note_on_c, 1, 51, 80
3, 14932, Note_on_c, 1, 51, 0
3, 14940, Note_on_c, 1, 50, 80
3, 14992, Note_on_c, 1, 50, 0
3, 15000, Note_on_c, 1, 51, 80
3, 15052, Note_on_c, 1, 51, 0
3, 15060, Note_on_c, 1, 48, 80
3, 15112, Note_on_c, 1, 48, 0
3, 15120, Note_on_c, 1, 53, 80
3, 15172, Note_on_c, 1, 53, 0
3, 15180, Note_on_c, 1, 57, 80
3, 15232, Note_on_c, 1, 57, 0
3, 15240, Note_on_c, 1, 53, 80
3, 15292, Note_on_c, 1, 53, 0
3, 15300, Note_on_c, 1, 48, 80
3, 15352, Note_on_c, 1, 48, 0
3, 15360, Note_on_c, 1, 50, 80
3, 15412, Note_on_c, 1, 50, 0
3, 15420, Note_on_c, 1, 48, 80
3, 15472, Note_on_c, 1, 48, 0
3, 15480, Note_on_c, 1, 50, 80
3, 15532, Note_on_c, 1, 50, 0
3, 15540, Note_on_c, 1, 46, 80
3, 15592, Note_on_c, 1, 46, 0
3, 15600, Note_on_c, 1, 51, 80
3, 15704, Note_on_c, 1, 51, 0
3, 15720, Note_on_c, 1, 39, 80
3, 15824, Note_on_c, 1, 39, 0
3, 15960, Note_on_c, 1, 50, 80
3, 16064, Note_on_c, 1, 50, 0
3, 16080, Note_on_c, 1, 48, 80
3, 16132, Note_on_c, 1, 48, 0
3, 16140, Note_on_c, 1, 53, 80
3, 16192, Note_on_c, 1, 53, 0
3, 16200, Note_on_c, 1, 51, 80
3, 16252, Note_on_c, 1, 51, 0
3, 16260, Note_on_c, 1, 48, 80
3, 16312, Note_on_c, 1, 48, 0
3, 16320, Note_on_c, 1, 50, 80
3, 16372, Note_on_c, 1, 50, 0
3, 16380, Note_on_c, 1, 48, 80
3, 16432, Note_on_c, 1, 48, 0
3, 16440, Note_on_c, 1, 50, 80
3, 16492, Note_on_c, 1, 50, 0
3, 16500, Note_on_c, 1, 46, 80
3, 16552, Note_on_c, 1, 46, 0
3, 16560, Note_on_c, 1, 53, 80
3, 16664, Note_on_c, 1, 53, 0
3, 16680, Note_on_c, 1, 48, 80
3, 16732, Note_on_c, 1, 48, 0
3, 16740, Note_on_c, 1, 53, 80
3, 16792, Note_on_c, 1, 53, 0
3, 16800, Note_on_c, 1, 55, 80
3, 16904, Note_on_c, 1, 55, 0
3, 16920, Note_on_c, 1, 48, 80
3, 16972, Note_on_c, 1, 48, 0
3, 16980, Note_on_c, 1, 55, 80
3, 17032, Note_on_c, 1, 55, 0
3, 17040, Note_on_c, 1, 57, 80
3, 17092, Note_on_c, 1, 57, 0
3, 17100, Note_on_c, 1, 60, 80
3, 17152, Note_on_c, 1, 60, 0
3, 17160, Note_on_c, 1, 57, 80
3, 17212, Note_on_c, 1, 57, 0
3, 17220, Note_on_c, 1, 53, 80
3, 17272, Note_on_c, 1, 53, 0
3, 17280, Note_on_c, 1, 59, 80
3, 17332, Note_on_c, 1, 59, 0
3, 17340, Note_on_c, 1, 62, 80
3, 17392, Note_on_c, 1, 62, 0
3, 17400, Note_on_c, 1, 59, 80
3, 17452, Note_on_c, 1, 59, 0
3, 17460, Note_on_c, 1, 55, 80
3, 17512, Note_on_c, 1, 55, 0
3, 17520, Note_on_c, 1, 60, 80
3, 17624, Note_on_c, 1, 60, 0
3, 17640, Note_on_c, 1, 55, 80
3, 17692, Note_on_c, 1, 55, 0
3, 17700, Note_on_c, 1, 60, 80
3, 17752, Note_on_c, 1, 60, 0
3, 17760, Note_on_c, 1, 62, 80
3, 17864, Note_on_c, 1, 62, 0
3, 17880, Note_on_c, 1, 55, 80
3, 17932, Note_on_c, 1, 55, 0
3, 17940, Note_on_c, 1, 62, 80
3, 17992, Note_on_c, 1, 62, 0
3, 18000, Note_on_c, 1, 63, 80
3, 18052, Note_on_c, 1, 63, 0
3, 18060, Note_on_c, 1, 67, 80
3, 18112, Note_on_c, 1, 67, 0
3, 18120, Note_on_c, 1, 63, 80
3, 18172, Note_on_c, 1, 63, 0
3, 18180, Note_on_c, 1, 60, 80
3, 18232, Note_on_c, 1, 60, 0
3, 18240, Note_on_c, 1, 59, 80
3, 18292, Note_on_c, 1, 59, 0
3, 18300, Note_on_c, 1, 62, 80
3, 18352, Note_on_c, 1, 62, 0
3, 18360, Note_on_c, 1, 59, 80
3, 18412, Note_on_c, 1, 59, 0
3, 18420, Note_on_c, 1, 55, 80
3, 18472, Note_on_c, 1, 55, 0
3, 18480, Note_on_c, 1, 60, 80
3, 18532, Note_on_c, 1, 60, 0
3, 18540, Note_on_c, 1, 63, 80
3, 18592, Note_on_c, 1, 63, 0
3, 18600, Note_on_c, 1, 60, 80
3, 18652, Note_on_c, 1, 60, 0
3, 18660, Note_on_c, 1, 55, 80
3, 18712, Note_on_c, 1, 55, 0
3, 18720, Note_on_c, 1, 56, 80
3, 18772, Note_on_c, 1, 56, 0
3, 18780, Note_on_c, 1, 55, 80
3, 18832, Note_on_c, 1, 55, 0
3, 18840, Note_on_c, 1, 56, 80
3, 18892, Note_on_c, 1, 56, 0
3, 18900, Note_on_c, 1, 53, 80
3, 18952, Note_on_c, 1, 53, 0
3, 18960, Note_on_c, 1, 58, 80
3, 19012, Note_on_c, 1, 58, 0
3, 19020, Note_on_c, 1, 62, 80
3, 19072, Note_on_c, 1, 62, 0
3, 19080, Note_on_c, 1, 58, 80
3, 19132, Note_on_c, 1, 58, 0
3, 19140, Note_on_c, 1, 53, 80
3, 19192, Note_on_c, 1, 53, 0
3, 19200, Note_on_c, 1, 55, 80
3, 19252, Note_on_c, 1, 55, 0
3, 19260, Note_on_c, 1, 53, 80
3, 19312, Note_on_c, 1, 53, 0
3, 19320, Note_on_c, 1, 55, 80
3, 19372, Note_on_c, 1, 55, 0
3, 19380, Note_on_c, 1, 51, 80
3, 19432, Note_on_c, 1, 51, 0
3, 19440, Note_on_c, 1, 56, 80
3, 19492, Note_on_c, 1, 56, 0
3, 19500, Note_on_c, 1, 60, 80
3, 19552, Note_on_c, 1, 60, 0
3, 19560, Note_on_c, 1, 56, 80
3, 19612, Note_on_c, 1, 56, 0
3, 19620, Note_on_c, 1, 51, 80
3, 19672, Note_on_c, 1, 51, 0
3, 19680, Note_on_c, 1, 53, 80
3, 19732, Note_on_c, 1, 53, 0
3, 19740, Note_on_c, 1, 51, 80
3, 19792, Note_on_c, 1, 51, 0
3, 19800, Note_on_c, 1, 53, 80
3, 19852, Note_on_c, 1, 53, 0
3, 19860, Note_on_c, 1, 50, 80
3, 19912, Note_on_c, 1, 50, 0
3, 19920, Note_on_c, 1, 51, 80
3, 20024, Note_on_c, 1, 51, 0
3, 20040, Note_on_c, 1, 48, 80
3, 20092, Note_on_c, 1, 48, 0
3, 20100, Note_on_c, 1, 51, 80
3, 20152, Note_on_c, 1, 51, 0
3, 20160, Note_on_c, 1, 55, 80
3, 20264, Note_on_c, 1, 55, 0
3, 20280, Note_on_c, 1, 43, 80
3, 20384, Note_on_c, 1, 43, 0
3, 20400, Note_on_c, 1, 48, 80
3, 20504, Note_on_c, 1, 48, 0
3, 20520, Note_on_c, 1, 43, 80
3, 20572, Note_on_c, 1, 43, 0
3, 20580, Note_on_c, 1, 48, 80
3, 20632, Note_on_c, 1, 48, 0
3, 20640, Note_on_c, 1, 50, 80
3, 20744, Note_on_c, 1, 50, 0
3, 20760, Note_on_c, 1, 43, 80
3, 20812, Note_on_c, 1, 43, 0
3, 20820, Note_on_c, 1, 50, 80
3, 20872, Note_on_c, 1, 50, 0
3, 20880, Note_on_c, 1, 51, 80
3, 20932, Note_on_c, 1, 51, 0
3, 20940, Note_on_c, 1, 55, 80
3, 20992, Note_on_c, 1, 55, 0
3, 21000, Note_on_c, 1, 51, 80
3, 21052, Note_on_c, 1, 51, 0
3, 21060, Note_on_c, 1, 48, 80
3, 21112, Note_on_c, 1, 48, 0
3, 21120, Note_on_c, 1, 47, 80
3, 21172, Note_on_c, 1, 47, 0
3, 21180, Note_on_c, 1, 50, 80
3, 21232, Note_on_c, 1, 50, 0
3, 21240, Note_on_c, 1, 47, 80
3, 21292, Note_on_c, 1, 47, 0
3, 21300, Note_on_c, 1, 43, 80
3, 21352, Note_on_c, 1, 43, 0
3, 21360, Note_on_c, 1, 48, 80
3, 21412, Note_on_c, 1, 48, 0
3, 21420, Note_on_c, 1, 51, 80
3, 21472, Note_on_c, 1, 51, 0
3, 21480, Note_on_c, 1, 48, 80
3, 21532, Note_on_c, 1, 48, 0
3, 21540, Note_on_c, 1, 43, 80
3, 21592, Note_on_c, 1, 43, 0
3, 21600, Note_on_c, 1, 44, 80
3, 21652, Note_on_c, 1, 44, 0
3, 21660, Note_on_c, 1, 43, 80
3, 21712, Note_on_c, 1, 43, 0
3, 21720, Note_on_c, 1, 44, 80
3, 21772, Note_on_c, 1, 44, 0
3, 21780, Note_on_c, 1, 41, 80
3, 21832, Note_on_c, 1, 41, 0
3, 21840, Note_on_c, 1, 46, 80
3, 21892, Note_on_c, 1, 46, 0
3, 21900, Note_on_c, 1, 50, 80
3, 21952, Note_on_c, 1, 50, 0
3, 21960, Note_on_c, 1, 46, 80
3, 22012, Note_on_c, 1, 46, 0
3, 22020, Note_on_c, 1, 41, 80
3, 22072, Note_on_c, 1, 41, 0
3, 22080, Note_on_c, 1, 43, 80
3, 22132, Note_on_c, 1, 43, 0
3, 22140, Note_on_c, 1, 41, 80
3, 22192, Note_on_c, 1, 41, 0
3, 22200, Note_on_c, 1, 43, 80
3, 22252, Note_on_c, 1, 43, 0
3, 22260, Note_on_c, 1, 39, 80
3, 22312, Note_on_c, 1, 39, 0
3, 22320, Note_on_c, 1, 44, 80
3, 22372, Note_on_c, 1, 44, 0
3, 22380, Note_on_c, 1, 48, 80
3, 22432, Note_on_c, 1, 48, 0
3, 22440, Note_on_c, 1, 44, 80
3, 22492, Note_on_c, 1, 44, 0
3, 22500, Note_on_c, 1, 39, 80
3, 22552, Note_on_c, 1, 39, 0
3, 22560, Note_on_c, 1, 41, 80
3, 22612, Note_on_c, 1, 41, 0
3, 22620, Note_on_c, 1, 39, 80
3, 22672, Note_on_c, 1, 39, 0
3, 22680, Note_on_c, 1, 41, 80
3, 22732, Note_on_c, 1, 41, 0
3, 22740, Note_on_c, 1, 38, 80
3, 22792, Note_on_c, 1, 38, 0
3, 22800, Note_on_c, 1, 39, 80
3, 22852, Note_on_c, 1, 39, 0
3, 22860, Note_on_c, 1, 36, 80
3, 22912, Note_on_c, 1, 36, 0
3, 22920, Note_on_c, 1, 39, 80
3, 22972, Note_on_c, 1, 39, 0
3, 22980, Note_on_c, 1, 41, 80
3, 23032, Note_on_c, 1, 41, 0
3, 23040, Note_on_c, 1, 43, 80
3, 23144, Note_on_c, 1, 43, 0
3, 23160, Note_on_c, 1, 43, 80
3, 23264, Note_on_c, 1, 43, 0
3, 23280, Note_on_c, 1, 36, 80
3, 23332, Note_on_c, 1, 36, 0
3, 23340, Note_on_c, 1, 51, 80
3, 23392, Note_on_c, 1, 51, 0
3, 23400, Note_on_c, 1, 48, 80
3, 23452, Note_on_c, 1, 48, 0
3, 23460, Note_on_c, 1, 45, 80
3, 23512, Note_on_c, 1, 45, 0
3, 23520, Note_on_c, 1, 42, 80
3, 23572, Note_on_c, 1, 42, 0
3, 23580, Note_on_c, 1, 45, 80
3, 23632, Note_on_c, 1, 45, 0
3, 23640, Note_on_c, 1, 42, 80
3, 23692, Note_on_c, 1, 42, 0
3, 23700, Note_on_c, 1, 38, 80
3, 23752, Note_on_c, 1, 38, 0
3, 23760, Note_on_c, 1, 43, 80
3, 23864, Note_on_c, 1, 43, 0
3, 23880, Note_on_c, 1, 38, 80
3, 23932, Note_on_c, 1, 38, 0
3, 23940, Note_on_c, 1, 43, 80
3, 23992, Note_on_c, 1, 43, 0
3, 24000, Note_on_c, 1, 45, 80
3, 24104, Note_on_c, 1, 45, 0
3, 24120, Note_on_c, 1, 38, 80
3, 24172, Note_on_c, 1, 38, 0
3, 24180, Note_on_c, 1, 45, 80
3, 24232, Note_on_c, 1, 45, 0
3, 24240, Note_on_c, 1, 46, 80
3, 24292, Note_on_c, 1, 46, 0
3, 24300, Note_on_c, 1, 62, 80
3, 24352, Note_on_c, 1, 62, 0
3, 24360, Note_on_c, 1, 58, 80
3, 24412, Note_on_c, 1, 58, 0
3, 24420, Note_on_c, 1, 55, 80
3, 24472, Note_on_c, 1, 55, 0
3, 24480, Note_on_c, 1, 54, 80
3, 24532, Note_on_c, 1, 54, 0
3, 24540, Note_on_c, 1, 57, 80
3, 24592, Note_on_c, 1, 57, 0
3, 24600, Note_on_c, 1, 54, 80
3, 24652, Note_on_c, 1, 54, 0
3, 24660, Note_on_c, 1, 50, 80
3, 24712, Note_on_c, 1, 50, 0
3, 24720, Note_on_c, 1, 55, 80
3, 24824, Note_on_c, 1, 55, 0
3, 24840, Note_on_c, 1, 50, 80
3, 24944, Note_on_c, 1, 50, 0
3, 24960, Note_on_c, 1, 46, 80
3, 25064, Note_on_c, 1, 46, 0
3, 25080, Note_on_c, 1, 43, 80
3, 25132, Note_on_c, 1, 43, 0
3, 25140, Note_on_c, 1, 55, 80
3, 25192, Note_on_c, 1, 55, 0
3, 25200, Note_on_c, 1, 51, 80
3, 25252, Note_on_c, 1, 51, 0
3, 25260, Note_on_c, 1, 55, 80
3, 25312, Note_on_c, 1, 55, 0
3, 25320, Note_on_c, 1, 51, 80
3, 25372, Note_on_c, 1, 51, 0
3, 25380, Note_on_c, 1, 48, 80
3, 25432, Note_on_c, 1, 48, 0
3, 25440, Note_on_c, 1, 45, 80
3, 25492, Note_on_c, 1, 45, 0
3, 25500, Note_on_c, 1, 48, 80
3, 25552, Note_on_c, 1, 48, 0
3, 25560, Note_on_c, 1, 45, 80
3, 25612, Note_on_c, 1, 45, 0
3, 25620, Note_on_c, 1, 41, 80
3, 25672, Note_on_c, 1, 41, 0
3, 25680, Note_on_c, 1, 46, 80
3, 25732, Note_on_c, 1, 46, 0
3, 25740, Note_on_c, 1, 50, 80
3, 25792, Note_on_c, 1, 50, 0
3, 25800, Note_on_c, 1, 46, 80
3, 25852, Note_on_c, 1, 46, 0
3, 25860, Note_on_c, 1, 43, 80
3, 25912, Note_on_c, 1, 43, 0
3, 25920, Note_on_c, 1, 42, 80
3, 25972, Note_on_c, 1, 42, 0
3, 25980, Note_on_c, 1, 45, 80
3, 26032, Note_on_c, 1, 45, 0
3, 26040, Note_on_c, 1, 42, 80
3, 26092, Note_on_c, 1, 42, 0
3, 26100, Note_on_c, 1, 38, 80
3, 26152, Note_on_c, 1, 38, 0
3, 26160, Note_on_c, 1, 43, 80
3, 26370, Note_on_c, 1, 43, 0
3, 26520, Note_on_c, 1, 55, 80
3, 26624, Note_on_c, 1, 55, 0
3, 26640, Note_on_c, 1, 60, 80
3, 26692, Note_on_c, 1, 60, 0
3, 26700, Note_on_c, 1, 63, 80
3, 26752, Note_on_c, 1, 63, 0
3, 26760, Note_on_c, 1, 60, 80
3, 26812, Note_on_c, 1, 60, 0
3, 26820, Note_on_c, 1, 55, 80
3, 26872, Note_on_c, 1, 55, 0
3, 26880, Note_on_c, 1, 51, 80
3, 26932, Note_on_c, 1, 51, 0
3, 26940, Note_on_c, 1, 55, 80
3, 26992, Note_on_c, 1, 55, 0
3, 27000, Note_on_c, 1, 51, 80
3, 27052, Note_on_c, 1, 51, 0
3, 27060, Note_on_c, 1, 48, 80
3, 27112, Note_on_c, 1, 48, 0
3, 27120, Note_on_c, 1, 45, 80
3, 27330, Note_on_c, 1, 45, 0
3, 27480, Note_on_c, 1, 53, 80
3, 27584, Note_on_c, 1, 53, 0
3, 27600, Note_on_c, 1, 58, 80
3, 27652, Note_on_c, 1, 58, 0
3, 27660, Note_on_c, 1, 62, 80
3, 27712, Note_on_c, 1, 62, 0
3, 27720, Note_on_c, 1, 58, 80
3, 27772, Note_on_c, 1, 58, 0
3, 27780, Note_on_c, 1, 55, 80
3, 27832, Note_on_c, 1, 55, 0
3, 27840, Note_on_c, 1, 54, 80
3, 27892, Note_on_c, 1, 54, 0
3, 27900, Note_on_c, 1, 57, 80
3, 27952, Note_on_c, 1, 57, 0
3, 27960, Note_on_c, 1, 54, 80
3, 28012, Note_on_c, 1, 54, 0
3, 28020, Note_on_c, 1, 50, 80
3, 28072, Note_on_c, 1, 50, 0
3, 28080, Note_on_c, 1, 55, 80
3, 28132, Note_on_c, 1, 55, 0
3, 28140, Note_on_c, 1, 58, 80
3, 28192, Note_on_c, 1, 58, 0
3, 28200, Note_on_c, 1, 55, 80
3, 28252, Note_on_c, 1, 55, 0
3, 28260, Note_on_c, 1, 50, 80
3, 28312, Note_on_c, 1, 50, 0
3, 28320, Note_on_c, 1, 46, 80
3, 28372, Note_on_c, 1, 46, 0
3, 28380, Note_on_c, 1, 50, 80
3, 28432, Note_on_c, 1, 50, 0
3, 28440, Note_on_c, 1, 46, 80
3, 28492, Note_on_c, 1, 46, 0
3, 28500, Note_on_c, 1, 43, 80
3, 28552, Note_on_c, 1, 43, 0
3, 28560, Note_on_c, 1, 48, 80
3, 28612, Note_on_c, 1, 48, 0
3, 28620, Note_on_c, 1, 51, 80
3, 28672, Note_on_c, 1, 51, 0
3, 28680, Note_on_c, 1, 48, 80
3, 28732, Note_on_c, 1, 48, 0
3, 28740, Note_on_c, 1, 43, 80
3, 28792, Note_on_c, 1, 43, 0
3, 28800, Note_on_c, 1, 39, 80
3, 28852, Note_on_c, 1, 39, 0
3, 28860, Note_on_c, 1, 43, 80
3, 28912, Note_on_c, 1, 43, 0
3, 28920, Note_on_c, 1, 39, 80
3, 28972, Note_on_c, 1, 39, 0
3, 28980, Note_on_c, 1, 36, 80
3, 29032, Note_on_c, 1, 36, 0
3, 29040, Note_on_c, 1, 38, 80
3, 29250, Note_on_c, 1, 38, 0
3, 29280, Note_on_c, 1, 58, 80
3, 29332, Note_on_c, 1, 58, 0
3, 29340, Note_on_c, 1, 62, 80
3, 29392, Note_on_c, 1, 62, 0
3, 29400, Note_on_c, 1, 58, 80
3, 29452, Note_on_c, 1, 58, 0
3, 29460, Note_on_c, 1, 54, 80
3, 29512, Note_on_c, 1, 54, 0
3, 29520, Note_on_c, 1, 55, 80
3, 29572, Note_on_c, 1, 55, 0
3, 29580, Note_on_c, 1, 54, 80
3, 29632, Note_on_c, 1, 54, 0
3, 29640, Note_on_c, 1, 55, 80
3, 29692, Note_on_c, 1, 55, 0
3, 29700, Note_on_c, 1, 52, 80
3, 29752, Note_on_c, 1, 52, 0
3, 29760, Note_on_c, 1, 57, 80
3, 29812, Note_on_c, 1, 57, 0
3, 29820, Note_on_c, 1, 60, 80
3, 29872, Note_on_c, 1, 60, 0
3, 29880, Note_on_c, 1, 57, 80
3, 29932, Note_on_c, 1, 57, 0
3, 29940, Note_on_c, 1, 52, 80
3, 29992, Note_on_c, 1, 52, 0
3, 30000, Note_on_c, 1, 54, 80
3, 30052, Note_on_c, 1, 54, 0
3, 30060, Note_on_c, 1, 52, 80
3, 30112, Note_on_c, 1, 52, 0
3, 30120, Note_on_c, 1, 54, 80
3, 30172, Note_on_c, 1, 54, 0
3, 30180, Note_on_c, 1, 50, 80
3, 30232, Note_on_c, 1, 50, 0
3, 30240, Note_on_c, 1, 55, 80
3, 30292, Note_on_c, 1, 55, 0
3, 30300, Note_on_c, 1, 58, 80
3, 30352, Note_on_c, 1, 58, 0
3, 30360, Note_on_c, 1, 55, 80
3, 30412, Note_on_c, 1, 55, 0
3, 30420, Note_on_c, 1, 50, 80
3, 30472, Note_on_c, 1, 50, 0
3, 30480, Note_on_c, 1, 51, 80
3, 30532, Note_on_c, 1, 51, 0
3, 30540, Note_on_c, 1, 50, 80
3, 30592, Note_on_c, 1, 50, 0
3, 30600, Note_on_c, 1, 51, 80
3, 30652, Note_on_c, 1, 51, 0
3, 30660, Note_on_c, 1, 48, 80
3, 30712, Note_on_c, 1, 48, 0
3, 30720, Note_on_c, 1, 60, 80
3, 31252, Note_on_c, 1, 60, 0
3, 31260, Note_on_c, 1, 63, 80
3, 31312, Note_on_c, 1, 63, 0
3, 31320, Note_on_c, 1, 60, 80
3, 31372, Note_on_c, 1, 60, 0
3, 31380, Note_on_c, 1, 57, 80
3, 31432, Note_on_c, 1, 57, 0
3, 31440, Note_on_c, 1, 54, 80
3, 31492, Note_on_c, 1, 54, 0
3, 31500, Note_on_c, 1, 50, 80
3, 31552, Note_on_c, 1, 50, 0
3, 31560, Note_on_c, 1, 58, 80
3, 31612, Note_on_c, 1, 58, 0
3, 31620, Note_on_c, 1, 55, 80
3, 31672, Note_on_c, 1, 55, 0
3, 31680, Note_on_c, 1, 62, 80
3, 31784, Note_on_c, 1, 62, 0
3, 31800, Note_on_c, 1, 50, 80
3, 31904, Note_on_c, 1, 50, 0
3, 31920, Note_on_c, 1, 55, 80
3, 32024, Note_on_c, 1, 55, 0
3, 32040, Note_on_c, 1, 50, 80
3, 32092, Note_on_c, 1, 50, 0
3, 32100, Note_on_c, 1, 55, 80
3, 32152, Note_on_c, 1, 55, 0
3, 32160, Note_on_c, 1, 57, 80
3, 32264, Note_on_c, 1, 57, 0
3, 32280, Note_on_c, 1, 50, 80
3, 32332, Note_on_c, 1, 50, 0
3, 32340, Note_on_c, 1, 57, 80
3, 32392, Note_on_c, 1, 57, 0
3, 32400, Note_on_c, 1, 58, 80
3, 32452, Note_on_c, 1, 58, 0
3, 32460, Note_on_c, 1, 62, 80
3, 32512, Note_on_c, 1, 62, 0
3, 32520, Note_on_c, 1, 58, 80
3, 32572, Note_on_c, 1, 58, 0
3, 32580, Note_on_c, 1, 55, 80
3, 32632, Note_on_c, 1, 55, 0
3, 32640, Note_on_c, 1, 54, 80
3, 32692, Note_on_c, 1, 54, 0
3, 32700, Note_on_c, 1, 57, 80
3, 32752, Note_on_c, 1, 57, 0
3, 32760, Note_on_c, 1, 54, 80
3, 32812, Note_on_c, 1, 54, 0
3, 32820, Note_on_c, 1, 50, 80
3, 32872, Note_on_c, 1, 50, 0
3, 32880, Note_on_c, 1, 55, 80
3, 32932, Note_on_c, 1, 55, 0
3, 32940, Note_on_c, 1, 58, 80
3, 32992, Note_on_c, 1, 58, 0
3, 33000, Note_on_c, 1, 55, 80
3, 33052, Note_on_c, 1, 55, 0
3, 33060, Note_on_c, 1, 50, 80
3, 33112, Note_on_c, 1, 50, 0
3, 33120, Note_on_c, 1, 51, 80
3, 33172, Note_on_c, 1, 51, 0
3, 33180, Note_on_c, 1, 50, 80
3, 33232, Note_on_c, 1, 50, 0
3, 33240, Note_on_c, 1, 51, 80
3, 33292, Note_on_c, 1, 51, 0
3, 33300, Note_on_c, 1, 48, 80
3, 33352, Note_on_c, 1, 48, 0
3, 33360, Note_on_c, 1, 53, 80
3, 33412, Note_on_c, 1, 53, 0
3, 33420, Note_on_c, 1, 57, 80
3, 33472, Note_on_c, 1, 57, 0
3, 33480, Note_on_c, 1, 53, 80
3, 33532, Note_on_c, 1, 53, 0
3, 33540, Note_on_c, 1, 48, 80
3, 33592, Note_on_c, 1, 48, 0
3, 33600, Note_on_c, 1, 50, 80
3, 33652, Note_on_c, 1, 50, 0
3, 33660, Note_on_c, 1, 48, 80
3, 33712, Note_on_c, 1, 48, 0
3, 33720, Note_on_c, 1, 50, 80
3, 33772, Note_on_c, 1, 50, 0
3, 33780, Note_on_c, 1, 46, 80
3, 33832, Note_on_c, 1, 46, 0
3, 33840, Note_on_c, 1, 51, 80
3, 33892, Note_on_c, 1, 51, 0
3, 33900, Note_on_c, 1, 55, 80
3, 33952, Note_on_c, 1, 55, 0
3, 33960, Note_on_c, 1, 51, 80
3, 34012, Note_on_c, 1, 51, 0
3, 34020, Note_on_c, 1, 46, 80
3, 34072, Note_on_c, 1, 46, 0
3, 34080, Note_on_c, 1, 48, 80
3, 34132, Note_on_c, 1, 48, 0
3, 34140, Note_on_c, 1, 46, 80
3, 34192, Note_on_c, 1, 46, 0
3, 34200, Note_on_c, 1, 48, 80
3, 34252, Note_on_c, 1, 48, 0
3, 34260, Note_on_c, 1, 45, 80
3, 34312, Note_on_c, 1, 45, 0
3, 34320, Note_on_c, 1, 46, 80
3, 34424, Note_on_c, 1, 46, 0
3, 34440, Note_on_c, 1, 43, 80
3, 34492, Note_on_c, 1, 43, 0
3, 34500, Note_on_c, 1, 46, 80
3, 34552, Note_on_c, 1, 46, 0
3, 34560, Note_on_c, 1, 50, 80
3, 34664, Note_on_c, 1, 50, 0
3, 34680, Note_on_c, 1, 38, 80
3, 34784, Note_on_c, 1, 38, 0
3, 34800, Note_on_c, 1, 43, 80
3, 35010, Note_on_c, 1, 43, 0
3, 35010, End_track
4, 0, Start_track
4, 0, Title_t, "Pad 1 (New Age)"
4, 0, Program_c, 2, 88
4, 0, Control_c, 2, 7, 120
4, 0, Control_c, 2, 10, 127
4, 3120, Note_on_c, 2, 67, 80
4, 3224, Note_on_c, 2, 67, 0
4, 3240, Note_on_c, 2, 62, 80
4, 3292, Note_on_c, 2, 62, 0
4, 3300, Note_on_c, 2, 67, 80
4, 3352, Note_on_c, 2, 67, 0
4, 3360, Note_on_c, 2, 66, 80
4, 3412, Note_on_c, 2, 66, 0
4, 3420, Note_on_c, 2, 67, 80
4, 3446, Note_on_c, 2, 67, 0
4, 3450, Note_on_c, 2, 69, 80
4, 3476, Note_on_c, 2, 69, 0
4, 3480, Note_on_c, 2, 62, 80
4, 3532, Note_on_c, 2, 62, 0
4, 3540, Note_on_c, 2, 69, 80
4, 3592, Note_on_c, 2, 69, 0
4, 3600, Note_on_c, 2, 70, 80
4, 3704, Note_on_c, 2, 70, 0
4, 3720, Note_on_c, 2, 67, 80
4, 3824, Note_on_c, 2, 67, 0
4, 4080, Note_on_c, 2, 67, 80
4, 4106, Note_on_c, 2, 67, 0
4, 4110, Note_on_c, 2, 66, 80
4, 4136, Note_on_c, 2, 66, 0
4, 4140, Note_on_c, 2, 67, 80
4, 4244, Note_on_c, 2, 67, 0
4, 4260, Note_on_c, 2, 69, 80
4, 4312, Note_on_c, 2, 69, 0
4, 4320, Note_on_c, 2, 69, 80
4, 4332, Note_on_c, 2, 69, 0
4, 4334, Note_on_c, 2, 70, 80
4, 4348, Note_on_c, 2, 70, 0
4, 4350, Note_on_c, 2, 69, 80
4, 4362, Note_on_c, 2, 69, 0
4, 4364, Note_on_c, 2, 70, 80
4, 4378, Note_on_c, 2, 70, 0
4, 4380, Note_on_c, 2, 69, 80
4, 4392, Note_on_c, 2, 69, 0
4, 4394, Note_on_c, 2, 70, 80
4, 4408, Note_on_c, 2, 70, 0
4, 4410, Note_on_c, 2, 69, 80
4, 4422, Note_on_c, 2, 69, 0
4, 4424, Note_on_c, 2, 70, 80
4, 4438, Note_on_c, 2, 70, 0
4, 4440, Note_on_c, 2, 69, 80
4, 4496, Note_on_c, 2, 69, 0
4, 4500, Note_on_c, 2, 67, 80
4, 4526, Note_on_c, 2, 67, 0
4, 4530, Note_on_c, 2, 69, 80
4, 4556, Note_on_c, 2, 69, 0
4, 4560, Note_on_c, 2, 70, 80
4, 4664, Note_on_c, 2, 70, 0
4, 4680, Note_on_c, 2, 67, 80
4, 4732, Note_on_c, 2, 67, 0
4, 4740, Note_on_c, 2, 75, 80
4, 4792, Note_on_c, 2, 75, 0
4, 4800, Note_on_c, 2, 71, 80
4, 4852, Note_on_c, 2, 71, 0
4, 4860, Note_on_c, 2, 72, 80
4, 4886, Note_on_c, 2, 72, 0
4, 4890, Note_on_c, 2, 74, 80
4, 4916, Note_on_c, 2, 74, 0
4, 4920, Note_on_c, 2, 67, 80
4, 4972, Note_on_c, 2, 67, 0
4, 4980, Note_on_c, 2, 71, 80
4, 5032, Note_on_c, 2, 71, 0
4, 5040, Note_on_c, 2, 72, 80
4, 5052, Note_on_c, 2, 72, 0
4, 5054, Note_on_c, 2, 70, 80
4, 5068, Note_on_c, 2, 70, 0
4, 5070, Note_on_c, 2, 72, 80
4, 5204, Note_on_c, 2, 72, 0
4, 5220, Note_on_c, 2, 74, 80
4, 5272, Note_on_c, 2, 74, 0
4, 5280, Note_on_c, 2, 70, 80
4, 5292, Note_on_c, 2, 70, 0
4, 5294, Note_on_c, 2, 72, 80
4, 5308, Note_on_c, 2, 72, 0
4, 5310, Note_on_c, 2, 70, 80
4, 5322, Note_on_c, 2, 70, 0
4, 5324, Note_on_c, 2, 72, 80
4, 5338, Note_on_c, 2, 72, 0
4, 5340, Note_on_c, 2, 70, 80
4, 5352, Note_on_c, 2, 70, 0
4, 5354, Note_on_c, 2, 72, 80
4, 5368, Note_on_c, 2, 72, 0
4, 5370, Note_on_c, 2, 70, 80
4, 5382, Note_on_c, 2, 70, 0
4, 5384, Note_on_c, 2, 72, 80
4, 5398, Note_on_c, 2, 72, 0
4, 5400, Note_on_c, 2, 70, 80
4, 5456, Note_on_c, 2, 70, 0
4, 5460, Note_on_c, 2, 69, 80
4, 5486, Note_on_c, 2, 69, 0
4, 5490, Note_on_c, 2, 70, 80
4, 5516, Note_on_c, 2, 70, 0
4, 5520, Note_on_c, 2, 69, 80
4, 5624, Note_on_c, 2, 69, 0
4, 5640, Note_on_c, 2, 62, 80
4, 5692, Note_on_c, 2, 62, 0
4, 5700, Note_on_c, 2, 79, 80
4, 5752, Note_on_c, 2, 79, 0
4, 5760, Note_on_c, 2, 78, 80
4, 5812, Note_on_c, 2, 78, 0
4, 5820, Note_on_c, 2, 79, 80
4, 5846, Note_on_c, 2, 79, 0
4, 5850, Note_on_c, 2, 81, 80
4, 5876, Note_on_c, 2, 81, 0
4, 5880, Note_on_c, 2, 74, 80
4, 5932, Note_on_c, 2, 74, 0
4, 5940, Note_on_c, 2, 79, 80
4, 5992, Note_on_c, 2, 79, 0
4, 6000, Note_on_c, 2, 72, 80
4, 6052, Note_on_c, 2, 72, 0
4, 6060, Note_on_c, 2, 74, 80
4, 6086, Note_on_c, 2, 74, 0
4, 6090, Note_on_c, 2, 75, 80
4, 6116, Note_on_c, 2, 75, 0
4, 6120, Note_on_c, 2, 66, 80
4, 6172, Note_on_c, 2, 66, 0
4, 6180, Note_on_c, 2, 74, 80
4, 6232, Note_on_c, 2, 74, 0
4, 6240, Note_on_c, 2, 70, 80
4, 6252, Note_on_c, 2, 70, 0
4, 6254, Note_on_c, 2, 72, 80
4, 6268, Note_on_c, 2, 72, 0
4, 6270, Note_on_c, 2, 70, 80
4, 6282, Note_on_c, 2, 70, 0
4, 6284, Note_on_c, 2, 72, 80
4, 6298, Note_on_c, 2, 72, 0
4, 6300, Note_on_c, 2, 70, 80
4, 6312, Note_on_c, 2, 70, 0
4, 6314, Note_on_c, 2, 72, 80
4, 6328, Note_on_c, 2, 72, 0
4, 6330, Note_on_c, 2, 70, 80
4, 6342, Note_on_c, 2, 70, 0
4, 6344, Note_on_c, 2, 72, 80
4, 6358, Note_on_c, 2, 72, 0
4, 6360, Note_on_c, 2, 70, 80
4, 6372, Note_on_c, 2, 70, 0
4, 6374, Note_on_c, 2, 72, 80
4, 6388, Note_on_c, 2, 72, 0
4, 6390, Note_on_c, 2, 70, 80
4, 6402, Note_on_c, 2, 70, 0
4, 6404, Note_on_c, 2, 72, 80
4, 6418, Note_on_c, 2, 72, 0
4, 6420, Note_on_c, 2, 69, 80
4, 6446, Note_on_c, 2, 69, 0
4, 6450, Note_on_c, 2, 70, 80
4, 6476, Note_on_c, 2, 70, 0
4, 6480, Note_on_c, 2, 69, 80
4, 6690, Note_on_c, 2, 69, 0
4, 6720, Note_on_c, 2, 69, 80
4, 6930, Note_on_c, 2, 69, 0
4, 7440, Note_on_c, 2, 70, 80
4, 7492, Note_on_c, 2, 70, 0
4, 7500, Note_on_c, 2, 72, 80
4, 7552, Note_on_c, 2, 72, 0
4, 7560, Note_on_c, 2, 70, 80
4, 7612, Note_on_c, 2, 70, 0
4, 7620, Note_on_c, 2, 72, 80
4, 7672, Note_on_c, 2, 72, 0
4, 7680, Note_on_c, 2, 72, 80
4, 7692, Note_on_c, 2, 72, 0
4, 7694, Note_on_c, 2, 74, 80
4, 7708, Note_on_c, 2, 74, 0
4, 7710, Note_on_c, 2, 72, 80
4, 7722, Note_on_c, 2, 72, 0
4, 7724, Note_on_c, 2, 74, 80
4, 7738, Note_on_c, 2, 74, 0
4, 7740, Note_on_c, 2, 72, 80
4, 7752, Note_on_c, 2, 72, 0
4, 7754, Note_on_c, 2, 74, 80
4, 7768, Note_on_c, 2, 74, 0
4, 7770, Note_on_c, 2, 72, 80
4, 7782, Note_on_c, 2, 72, 0
4, 7784, Note_on_c, 2, 74, 80
4, 7798, Note_on_c, 2, 74, 0
4, 7800, Note_on_c, 2, 72, 80
4, 7812, Note_on_c, 2, 72, 0
4, 7814, Note_on_c, 2, 74, 80
4, 7828, Note_on_c, 2, 74, 0
4, 7830, Note_on_c, 2, 72, 80
4, 7842, Note_on_c, 2, 72, 0
4, 7844, Note_on_c, 2, 74, 80
4, 7858, Note_on_c, 2, 74, 0
4, 7860, Note_on_c, 2, 70, 80
4, 7886, Note_on_c, 2, 70, 0
4, 7890, Note_on_c, 2, 72, 80
4, 7916, Note_on_c, 2, 72, 0
4, 7920, Note_on_c, 2, 74, 80
4, 7972, Note_on_c, 2, 74, 0
4, 7980, Note_on_c, 2, 75, 80
4, 8006, Note_on_c, 2, 75, 0
4, 8010, Note_on_c, 2, 77, 80
4, 8036, Note_on_c, 2, 77, 0
4, 8040, Note_on_c, 2, 75, 80
4, 8092, Note_on_c, 2, 75, 0
4, 8100, Note_on_c, 2, 74, 80
4, 8152, Note_on_c, 2, 74, 0
4, 8160, Note_on_c, 2, 72, 80
4, 8212, Note_on_c, 2, 72, 0
4, 8220, Note_on_c, 2, 70, 80
4, 8272, Note_on_c, 2, 70, 0
4, 8280, Note_on_c, 2, 68, 80
4, 8332, Note_on_c, 2, 68, 0
4, 8340, Note_on_c, 2, 67, 80
4, 8392, Note_on_c, 2, 67, 0
4, 8400, Note_on_c, 2, 75, 80
4, 8452, Note_on_c, 2, 75, 0
4, 8460, Note_on_c, 2, 77, 80
4, 8486, Note_on_c, 2, 77, 0
4, 8490, Note_on_c, 2, 79, 80
4, 8516, Note_on_c, 2, 79, 0
4, 8520, Note_on_c, 2, 77, 80
4, 8572, Note_on_c, 2, 77, 0
4, 8580, Note_on_c, 2, 75, 80
4, 8632, Note_on_c, 2, 75, 0
4, 8640, Note_on_c, 2, 74, 80
4, 8692, Note_on_c, 2, 74, 0
4, 8700, Note_on_c, 2, 72, 80
4, 8752, Note_on_c, 2, 72, 0
4, 8760, Note_on_c, 2, 70, 80
4, 8812, Note_on_c, 2, 70, 0
4, 8820, Note_on_c, 2, 69, 80
4, 8872, Note_on_c, 2, 69, 0
4, 8880, Note_on_c, 2, 77, 80
4, 8906, Note_on_c, 2, 77, 0
4, 8910, Note_on_c, 2, 75, 80
4, 8936, Note_on_c, 2, 75, 0
4, 8940, Note_on_c, 2, 77, 80
4, 9172, Note_on_c, 2, 77, 0
4, 9180, Note_on_c, 2, 79, 80
4, 9206, Note_on_c, 2, 79, 0
4, 9210, Note_on_c, 2, 77, 80
4, 9236, Note_on_c, 2, 77, 0
4, 9240, Note_on_c, 2, 75, 80
4, 9292, Note_on_c, 2, 75, 0
4, 9300, Note_on_c, 2, 77, 80
4, 9326, Note_on_c, 2, 77, 0
4, 9330, Note_on_c, 2, 74, 80
4, 9356, Note_on_c, 2, 74, 0
4, 9360, Note_on_c, 2, 75, 80
4, 9372, Note_on_c, 2, 75, 0
4, 9374, Note_on_c, 2, 74, 80
4, 9388, Note_on_c, 2, 74, 0
4, 9390, Note_on_c, 2, 75, 80
4, 9652, Note_on_c, 2, 75, 0
4, 9660, Note_on_c, 2, 77, 80
4, 9686, Note_on_c, 2, 77, 0
4, 9690, Note_on_c, 2, 79, 80
4, 9716, Note_on_c, 2, 79, 0
4, 9720, Note_on_c, 2, 77, 80
4, 9746, Note_on_c, 2, 77, 0
4, 9750, Note_on_c, 2, 79, 80
4, 9776, Note_on_c, 2, 79, 0
4, 9780, Note_on_c, 2, 75, 80
4, 9832, Note_on_c, 2, 75, 0
4, 9840, Note_on_c, 2, 74, 80
4, 10132, Note_on_c, 2, 74, 0
4, 10140, Note_on_c, 2, 79, 80
4, 10166, Note_on_c, 2, 79, 0
4, 10170, Note_on_c, 2, 77, 80
4, 10196, Note_on_c, 2, 77, 0
4, 10200, Note_on_c, 2, 75, 80
4, 10226, Note_on_c, 2, 75, 0
4, 10230, Note_on_c, 2, 74, 80
4, 10256, Note_on_c, 2, 74, 0
4, 10260, Note_on_c, 2, 72, 80
4, 10286, Note_on_c, 2, 72, 0
4, 10290, Note_on_c, 2, 70, 80
4, 10316, Note_on_c, 2, 70, 0
4, 10320, Note_on_c, 2, 69, 80
4, 10346, Note_on_c, 2, 69, 0
4, 10350, Note_on_c, 2, 67, 80
4, 10376, Note_on_c, 2, 67, 0
4, 10380, Note_on_c, 2, 65, 80
4, 10406, Note_on_c, 2, 65, 0
4, 10410, Note_on_c, 2, 67, 80
4, 10436, Note_on_c, 2, 67, 0
4, 10440, Note_on_c, 2, 69, 80
4, 10466, Note_on_c, 2, 69, 0
4, 10470, Note_on_c, 2, 70, 80
4, 10496, Note_on_c, 2, 70, 0
4, 10500, Note_on_c, 2, 69, 80
4, 10526, Note_on_c, 2, 69, 0
4, 10530, Note_on_c, 2, 70, 80
4, 10556, Note_on_c, 2, 70, 0
4, 10560, Note_on_c, 2, 72, 80
4, 10586, Note_on_c, 2, 72, 0
4, 10590, Note_on_c, 2, 70, 80
4, 10616, Note_on_c, 2, 70, 0
4, 10620, Note_on_c, 2, 69, 80
4, 10646, Note_on_c, 2, 69, 0
4, 10650, Note_on_c, 2, 70, 80
4, 10676, Note_on_c, 2, 70, 0
4, 10680, Note_on_c, 2, 72, 80
4, 10706, Note_on_c, 2, 72, 0
4, 10710, Note_on_c, 2, 74, 80
4, 10736, Note_on_c, 2, 74, 0
4, 10740, Note_on_c, 2, 72, 80
4, 10766, Note_on_c, 2, 72, 0
4, 10770, Note_on_c, 2, 74, 80
4, 10796, Note_on_c, 2, 74, 0
4, 10800, Note_on_c, 2, 75, 80
4, 10826, Note_on_c, 2, 75, 0
4, 10830, Note_on_c, 2, 77, 80
4, 10842, Note_on_c, 2, 77, 0
4, 10844, Note_on_c, 2, 75, 80
4, 10858, Note_on_c, 2, 75, 0
4, 10860, Note_on_c, 2, 74, 80
4, 10886, Note_on_c, 2, 74, 0
4, 10890, Note_on_c, 2, 75, 80
4, 10916, Note_on_c, 2, 75, 0
4, 10920, Note_on_c, 2, 77, 80
4, 10946, Note_on_c, 2, 77, 0
4, 10950, Note_on_c, 2, 79, 80
4, 10962, Note_on_c, 2, 79, 0
4, 10964, Note_on_c, 2, 77, 80
4, 10978, Note_on_c, 2, 77, 0
4, 10980, Note_on_c, 2, 75, 80
4, 10992, Note_on_c, 2, 75, 0
4, 10994, Note_on_c, 2, 77, 80
4, 11008, Note_on_c, 2, 77, 0
4, 11010, Note_on_c, 2, 79, 80
4, 11036, Note_on_c, 2, 79, 0
4, 11040, Note_on_c, 2, 72, 80
4, 11052, Note_on_c, 2, 72, 0
4, 11054, Note_on_c, 2, 74, 80
4, 11068, Note_on_c, 2, 74, 0
4, 11070, Note_on_c, 2, 72, 80
4, 11082, Note_on_c, 2, 72, 0
4, 11084, Note_on_c, 2, 74, 80
4, 11098, Note_on_c, 2, 74, 0
4, 11100, Note_on_c, 2, 72, 80
4, 11112, Note_on_c, 2, 72, 0
4, 11114, Note_on_c, 2, 74, 80
4, 11128, Note_on_c, 2, 74, 0
4, 11130, Note_on_c, 2, 72, 80
4, 11142, Note_on_c, 2, 72, 0
4, 11144, Note_on_c, 2, 74, 80
4, 11158, Note_on_c, 2, 74, 0
4, 11160, Note_on_c, 2, 72, 80
4, 11172, Note_on_c, 2, 72, 0
4, 11174, Note_on_c, 2, 74, 80
4, 11188, Note_on_c, 2, 74, 0
4, 11190, Note_on_c, 2, 72, 80
4, 11216, Note_on_c, 2, 72, 0
4, 11220, Note_on_c, 2, 70, 80
4, 11272, Note_on_c, 2, 70, 0
4, 11280, Note_on_c, 2, 70, 80
4, 11490, Note_on_c, 2, 70, 0
4, 14160, Note_on_c, 2, 74, 80
4, 14452, Note_on_c, 2, 74, 0
4, 14460, Note_on_c, 2, 72, 80
4, 14512, Note_on_c, 2, 72, 0
4, 14520, Note_on_c, 2, 75, 80
4, 14572, Note_on_c, 2, 75, 0
4, 14580, Note_on_c, 2, 74, 80
4, 14632, Note_on_c, 2, 74, 0
4, 14640, Note_on_c, 2, 74, 80
4, 14932, Note_on_c, 2, 74, 0
4, 14940, Note_on_c, 2, 77, 80
4, 14992, Note_on_c, 2, 77, 0
4, 15000, Note_on_c, 2, 79, 80
4, 15052, Note_on_c, 2, 79, 0
4, 15060, Note_on_c, 2, 75, 80
4, 15112, Note_on_c, 2, 75, 0
4, 15120, Note_on_c, 2, 72, 80
4, 15172, Note_on_c, 2, 72, 0
4, 15180, Note_on_c, 2, 77, 80
4, 15232, Note_on_c, 2, 77, 0
4, 15240, Note_on_c, 2, 75, 80
4, 15266, Note_on_c, 2, 75, 0
4, 15270, Note_on_c, 2, 74, 80
4, 15296, Note_on_c, 2, 74, 0
4, 15300, Note_on_c, 2, 72, 80
4, 15352, Note_on_c, 2, 72, 0
4, 15360, Note_on_c, 2, 70, 80
4, 15412, Note_on_c, 2, 70, 0
4, 15420, Note_on_c, 2, 72, 80
4, 15472, Note_on_c, 2, 72, 0
4, 15480, Note_on_c, 2, 69, 80
4, 15532, Note_on_c, 2, 69, 0
4, 15540, Note_on_c, 2, 70, 80
4, 15592, Note_on_c, 2, 70, 0
4, 15600, Note_on_c, 2, 72, 80
4, 15652, Note_on_c, 2, 72, 0
4, 15660, Note_on_c, 2, 65, 80
4, 15712, Note_on_c, 2, 65, 0
4, 15720, Note_on_c, 2, 69, 80
4, 15772, Note_on_c, 2, 69, 0
4, 15780, Note_on_c, 2, 70, 80
4, 15832, Note_on_c, 2, 70, 0
4, 15840, Note_on_c, 2, 72, 80
4, 15892, Note_on_c, 2, 72, 0
4, 15900, Note_on_c, 2, 65, 80
4, 15952, Note_on_c, 2, 65, 0
4, 15960, Note_on_c, 2, 77, 80
4, 16012, Note_on_c, 2, 77, 0
4, 16020, Note_on_c, 2, 79, 80
4, 16072, Note_on_c, 2, 79, 0
4, 16080, Note_on_c, 2, 69, 80
4, 16132, Note_on_c, 2, 69, 0
4, 16140, Note_on_c, 2, 70, 80
4, 16192, Note_on_c, 2, 70, 0
4, 16200, Note_on_c, 2, 69, 80
4, 16252, Note_on_c, 2, 69, 0
4, 16260, Note_on_c, 2, 70, 80
4, 16312, Note_on_c, 2, 70, 0
4, 16320, Note_on_c, 2, 70, 80
4, 16332, Note_on_c, 2, 70, 0
4, 16334, Note_on_c, 2, 72, 80
4, 16348, Note_on_c, 2, 72, 0
4, 16350, Note_on_c, 2, 70, 80
4, 16362, Note_on_c, 2, 70, 0
4, 16364, Note_on_c, 2, 72, 80
4, 16378, Note_on_c, 2, 72, 0
4, 16380, Note_on_c, 2, 70, 80
4, 16392, Note_on_c, 2, 70, 0
4, 16394, Note_on_c, 2, 72, 80
4, 16408, Note_on_c, 2, 72, 0
4, 16410, Note_on_c, 2, 70, 80
4, 16422, Note_on_c, 2, 70, 0
4, 16424, Note_on_c, 2, 72, 80
4, 16438, Note_on_c, 2, 72, 0
4, 16440, Note_on_c, 2, 70, 80
4, 16496, Note_on_c, 2, 70, 0
4, 16500, Note_on_c, 2, 69, 80
4, 16526, Note_on_c, 2, 69, 0
4, 16530, Note_on_c, 2, 70, 80
4, 16556, Note_on_c, 2, 70, 0
4, 16560, Note_on_c, 2, 72, 80
4, 16664, Note_on_c, 2, 72, 0
4, 16680, Note_on_c, 2, 65, 80
4, 16784, Note_on_c, 2, 65, 0
4, 17040, Note_on_c, 2, 72, 80
4, 17144, Note_on_c, 2, 72, 0
4, 17160, Note_on_c, 2, 65, 80
4, 17212, Note_on_c, 2, 65, 0
4, 17220, Note_on_c, 2, 72, 80
4, 17272, Note_on_c, 2, 72, 0
4, 17280, Note_on_c, 2, 74, 80
4, 17332, Note_on_c, 2, 74, 0
4, 17340, Note_on_c, 2, 75, 80
4, 17366, Note_on_c, 2, 75, 0
4, 17370, Note_on_c, 2, 77, 80
4, 17396, Note_on_c, 2, 77, 0
4, 17400, Note_on_c, 2, 75, 80
4, 17452, Note_on_c, 2, 75, 0
4, 17460, Note_on_c, 2, 74, 80
4, 17512, Note_on_c, 2, 74, 0
4, 17520, Note_on_c, 2, 75, 80
4, 17730, Note_on_c, 2, 75, 0
4, 18000, Note_on_c, 2, 72, 80
4, 18104, Note_on_c, 2, 72, 0
4, 18120, Note_on_c, 2, 67, 80
4, 18172, Note_on_c, 2, 67, 0
4, 18180, Note_on_c, 2, 72, 80
4, 18232, Note_on_c, 2, 72, 0
4, 18240, Note_on_c, 2, 77, 80
4, 18292, Note_on_c, 2, 77, 0
4, 18300, Note_on_c, 2, 79, 80
4, 18326, Note_on_c, 2, 79, 0
4, 18330, Note_on_c, 2, 80, 80
4, 18356, Note_on_c, 2, 80, 0
4, 18360, Note_on_c, 2, 79, 80
4, 18412, Note_on_c, 2, 79, 0
4, 18420, Note_on_c, 2, 77, 80
4, 18472, Note_on_c, 2, 77, 0
4, 18480, Note_on_c, 2, 75, 80
4, 18824, Note_on_c, 2, 75, 0
4, 18840, Note_on_c, 2, 77, 80
4, 18892, Note_on_c, 2, 77, 0
4, 18900, Note_on_c, 2, 74, 80
4, 18926, Note_on_c, 2, 74, 0
4, 18930, Note_on_c, 2, 75, 80
4, 18956, Note_on_c, 2, 75, 0
4, 18960, Note_on_c, 2, 75, 80
4, 19064, Note_on_c, 2, 75, 0
4, 19080, Note_on_c, 2, 74, 80
4, 19252, Note_on_c, 2, 74, 0
4, 19260, Note_on_c, 2, 82, 80
4, 19312, Note_on_c, 2, 82, 0
4, 19320, Note_on_c, 2, 79, 80
4, 19372, Note_on_c, 2, 79, 0
4, 19380, Note_on_c, 2, 73, 80
4, 19432, Note_on_c, 2, 73, 0
4, 19440, Note_on_c, 2, 72, 80
4, 19732, Note_on_c, 2, 72, 0
4, 19740, Note_on_c, 2, 75, 80
4, 19792, Note_on_c, 2, 75, 0
4, 19800, Note_on_c, 2, 74, 80
4, 19852, Note_on_c, 2, 74, 0
4, 19860, Note_on_c, 2, 75, 80
4, 19886, Note_on_c, 2, 75, 0
4, 19890, Note_on_c, 2, 72, 80
4, 19916, Note_on_c, 2, 72, 0
4, 19920, Note_on_c, 2, 79, 80
4, 19946, Note_on_c, 2, 79, 0
4, 19950, Note_on_c, 2, 77, 80
4, 19976, Note_on_c, 2, 77, 0
4, 19980, Note_on_c, 2, 79, 80
4, 20084, Note_on_c, 2, 79, 0
4, 20100, Note_on_c, 2, 80, 80
4, 20152, Note_on_c, 2, 80, 0
4, 20160, Note_on_c, 2, 74, 80
4, 20172, Note_on_c, 2, 74, 0
4, 20174, Note_on_c, 2, 75, 80
4, 20188, Note_on_c, 2, 75, 0
4, 20190, Note_on_c, 2, 74, 80
4, 20202, Note_on_c, 2, 74, 0
4, 20204, Note_on_c, 2, 75, 80
4, 20218, Note_on_c, 2, 75, 0
4, 20220, Note_on_c, 2, 74, 80
4, 20232, Note_on_c, 2, 74, 0
4, 20234, Note_on_c, 2, 75, 80
4, 20248, Note_on_c, 2, 75, 0
4, 20250, Note_on_c, 2, 74, 80
4, 20262, Note_on_c, 2, 74, 0
4, 20264, Note_on_c, 2, 75, 80
4, 20278, Note_on_c, 2, 75, 0
4, 20280, Note_on_c, 2, 74, 80
4, 20332, Note_on_c, 2, 74, 0
4, 20340, Note_on_c, 2, 72, 80
4, 20392, Note_on_c, 2, 72, 0
4, 20400, Note_on_c, 2, 72, 80
4, 20610, Note_on_c, 2, 72, 0
4, 23280, Note_on_c, 2, 67, 80
4, 23384, Note_on_c, 2, 67, 0
4, 23400, Note_on_c, 2, 66, 80
4, 23412, Note_on_c, 2, 66, 0
4, 23414, Note_on_c, 2, 67, 80
4, 23428, Note_on_c, 2, 67, 0
4, 23430, Note_on_c, 2, 66, 80
4, 23456, Note_on_c, 2, 66, 0
4, 23460, Note_on_c, 2, 67, 80
4, 23512, Note_on_c, 2, 67, 0
4, 23520, Note_on_c, 2, 69, 80
4, 23572, Note_on_c, 2, 69, 0
4, 23580, Note_on_c, 2, 70, 80
4, 23606, Note_on_c, 2, 70, 0
4, 23610, Note_on_c, 2, 69, 80
4, 23636, Note_on_c, 2, 69, 0
4, 23640, Note_on_c, 2, 67, 80
4, 23692, Note_on_c, 2, 67, 0
4, 23700, Note_on_c, 2, 69, 80
4, 23752, Note_on_c, 2, 69, 0
4, 23760, Note_on_c, 2, 70, 80
4, 23864, Note_on_c, 2, 70, 0
4, 23880, Note_on_c, 2, 67, 80
4, 23984, Note_on_c, 2, 67, 0
4, 24240, Note_on_c, 2, 67, 80
4, 24292, Note_on_c, 2, 67, 0
4, 24300, Note_on_c, 2, 66, 80
4, 24352, Note_on_c, 2, 66, 0
4, 24360, Note_on_c, 2, 62, 80
4, 24412, Note_on_c, 2, 62, 0
4, 24420, Note_on_c, 2, 67, 80
4, 24472, Note_on_c, 2, 67, 0
4, 24480, Note_on_c, 2, 69, 80
4, 24532, Note_on_c, 2, 69, 0
4, 24540, Note_on_c, 2, 66, 80
4, 24592, Note_on_c, 2, 66, 0
4, 24600, Note_on_c, 2, 62, 80
4, 24652, Note_on_c, 2, 62, 0
4, 24660, Note_on_c, 2, 69, 80
4, 24712, Note_on_c, 2, 69, 0
4, 24720, Note_on_c, 2, 70, 80
4, 24772, Note_on_c, 2, 70, 0
4, 24780, Note_on_c, 2, 67, 80
4, 24832, Note_on_c, 2, 67, 0
4, 24840, Note_on_c, 2, 66, 80
4, 24892, Note_on_c, 2, 66, 0
4, 24900, Note_on_c, 2, 67, 80
4, 24952, Note_on_c, 2, 67, 0
4, 24960, Note_on_c, 2, 62, 80
4, 25012, Note_on_c, 2, 62, 0
4, 25020, Note_on_c, 2, 74, 80
4, 25072, Note_on_c, 2, 74, 0
4, 25080, Note_on_c, 2, 70, 80
4, 25106, Note_on_c, 2, 70, 0
4, 25110, Note_on_c, 2, 72, 80
4, 25136, Note_on_c, 2, 72, 0
4, 25140, Note_on_c, 2, 69, 80
4, 25166, Note_on_c, 2, 69, 0
4, 25170, Note_on_c, 2, 70, 80
4, 25196, Note_on_c, 2, 70, 0
4, 25200, Note_on_c, 2, 72, 80
4, 25226, Note_on_c, 2, 72, 0
4, 25230, Note_on_c, 2, 74, 80
4, 25256, Note_on_c, 2, 74, 0
4, 25260, Note_on_c, 2, 72, 80
4, 25286, Note_on_c, 2, 72, 0
4, 25290, Note_on_c, 2, 74, 80
4, 25316, Note_on_c, 2, 74, 0
4, 25320, Note_on_c, 2, 74, 80
4, 25332, Note_on_c, 2, 74, 0
4, 25334, Note_on_c, 2, 75, 80
4, 25348, Note_on_c, 2, 75, 0
4, 25350, Note_on_c, 2, 74, 80
4, 25362, Note_on_c, 2, 74, 0
4, 25364, Note_on_c, 2, 75, 80
4, 25378, Note_on_c, 2, 75, 0
4, 25380, Note_on_c, 2, 74, 80
4, 25406, Note_on_c, 2, 74, 0
4, 25410, Note_on_c, 2, 72, 80
4, 25422, Note_on_c, 2, 72, 0
4, 25424, Note_on_c, 2, 74, 80
4, 25438, Note_on_c, 2, 74, 0
4, 25440, Note_on_c, 2, 75, 80
4, 25452, Note_on_c, 2, 75, 0
4, 25454, Note_on_c, 2, 77, 80
4, 25468, Note_on_c, 2, 77, 0
4, 25470, Note_on_c, 2, 75, 80
4, 25482, Note_on_c, 2, 75, 0
4, 25484, Note_on_c, 2, 77, 80
4, 25498, Note_on_c, 2, 77, 0
4, 25500, Note_on_c, 2, 74, 80
4, 25526, Note_on_c, 2, 74, 0
4, 25530, Note_on_c, 2, 75, 80
4, 25556, Note_on_c, 2, 75, 0
4, 25560, Note_on_c, 2, 77, 80
4, 25612, Note_on_c, 2, 77, 0
4, 25620, Note_on_c, 2, 79, 80
4, 25646, Note_on_c, 2, 79, 0
4, 25650, Note_on_c, 2, 75, 80
4, 25676, Note_on_c, 2, 75, 0
4, 25680, Note_on_c, 2, 75, 80
4, 25784, Note_on_c, 2, 75, 0
4, 25800, Note_on_c, 2, 74, 80
4, 25904, Note_on_c, 2, 74, 0
4, 26160, Note_on_c, 2, 74, 80
4, 26212, Note_on_c, 2, 74, 0
4, 26220, Note_on_c, 2, 70, 80
4, 26272, Note_on_c, 2, 70, 0
4, 26280, Note_on_c, 2, 67, 80
4, 26332, Note_on_c, 2, 67, 0
4, 26340, Note_on_c, 2, 79, 80
4, 26392, Note_on_c, 2, 79, 0
4, 26400, Note_on_c, 2, 77, 80
4, 26452, Note_on_c, 2, 77, 0
4, 26460, Note_on_c, 2, 79, 80
4, 26486, Note_on_c, 2, 79, 0
4, 26490, Note_on_c, 2, 80, 80
4, 26516, Note_on_c, 2, 80, 0
4, 26520, Note_on_c, 2, 74, 80
4, 26572, Note_on_c, 2, 74, 0
4, 26580, Note_on_c, 2, 79, 80
4, 26632, Note_on_c, 2, 79, 0
4, 26640, Note_on_c, 2, 75, 80
4, 26744, Note_on_c, 2, 75, 0
4, 26760, Note_on_c, 2, 74, 80
4, 26812, Note_on_c, 2, 74, 0
4, 26820, Note_on_c, 2, 72, 80
4, 26872, Note_on_c, 2, 72, 0
4, 27120, Note_on_c, 2, 72, 80
4, 27172, Note_on_c, 2, 72, 0
4, 27180, Note_on_c, 2, 69, 80
4, 27232, Note_on_c, 2, 69, 0
4, 27240, Note_on_c, 2, 65, 80
4, 27292, Note_on_c, 2, 65, 0
4, 27300, Note_on_c, 2, 77, 80
4, 27352, Note_on_c, 2, 77, 0
4, 27360, Note_on_c, 2, 75, 80
4, 27412, Note_on_c, 2, 75, 0
4, 27420, Note_on_c, 2, 77, 80
4, 27446, Note_on_c, 2, 77, 0
4, 27450, Note_on_c, 2, 79, 80
4, 27476, Note_on_c, 2, 79, 0
4, 27480, Note_on_c, 2, 72, 80
4, 27532, Note_on_c, 2, 72, 0
4, 27540, Note_on_c, 2, 77, 80
4, 27592, Note_on_c, 2, 77, 0
4, 27600, Note_on_c, 2, 74, 80
4, 27704, Note_on_c, 2, 74, 0
4, 27720, Note_on_c, 2, 72, 80
4, 27772, Note_on_c, 2, 72, 0
4, 27780, Note_on_c, 2, 70, 80
4, 27832, Note_on_c, 2, 70, 0
4, 28080, Note_on_c, 2, 74, 80
4, 28132, Note_on_c, 2, 74, 0
4, 28140, Note_on_c, 2, 72, 80
4, 28166, Note_on_c, 2, 72, 0
4, 28170, Note_on_c, 2, 70, 80
4, 28196, Note_on_c, 2, 70, 0
4, 28200, Note_on_c, 2, 72, 80
4, 28252, Note_on_c, 2, 72, 0
4, 28260, Note_on_c, 2, 74, 80
4, 28312, Note_on_c, 2, 74, 0
4, 28320, Note_on_c, 2, 67, 80
4, 28372, Note_on_c, 2, 67, 0
4, 28380, Note_on_c, 2, 69, 80
4, 28406, Note_on_c, 2, 69, 0
4, 28410, Note_on_c, 2, 70, 80
4, 28436, Note_on_c, 2, 70, 0
4, 28440, Note_on_c, 2, 72, 80
4, 28492, Note_on_c, 2, 72, 0
4, 28500, Note_on_c, 2, 75, 80
4, 28526, Note_on_c, 2, 75, 0
4, 28530, Note_on_c, 2, 74, 80
4, 28556, Note_on_c, 2, 74, 0
4, 28560, Note_on_c, 2, 75, 80
4, 28612, Note_on_c, 2, 75, 0
4, 28620, Note_on_c, 2, 74, 80
4, 28646, Note_on_c, 2, 74, 0
4, 28650, Note_on_c, 2, 72, 80
4, 28676, Note_on_c, 2, 72, 0
4, 28680, Note_on_c, 2, 74, 80
4, 28732, Note_on_c, 2, 74, 0
4, 28740, Note_on_c, 2, 75, 80
4, 28792, Note_on_c, 2, 75, 0
4, 28800, Note_on_c, 2, 69, 80
4, 28852, Note_on_c, 2, 69, 0
4, 28860, Note_on_c, 2, 72, 80
4, 28886, Note_on_c, 2, 72, 0
4, 28890, Note_on_c, 2, 70, 80
4, 28916, Note_on_c, 2, 70, 0
4, 28920, Note_on_c, 2, 72, 80
4, 28972, Note_on_c, 2, 72, 0
4, 28980, Note_on_c, 2, 74, 80
4, 29006, Note_on_c, 2, 74, 0
4, 29010, Note_on_c, 2, 75, 80
4, 29036, Note_on_c, 2, 75, 0
4, 29040, Note_on_c, 2, 66, 80
4, 29144, Note_on_c, 2, 66, 0
4, 29160, Note_on_c, 2, 64, 80
4, 29212, Note_on_c, 2, 64, 0
4, 29220, Note_on_c, 2, 62, 80
4, 29272, Note_on_c, 2, 62, 0
4, 29280, Note_on_c, 2, 74, 80
4, 29572, Note_on_c, 2, 74, 0
4, 29580, Note_on_c, 2, 75, 80
4, 29606, Note_on_c, 2, 75, 0
4, 29610, Note_on_c, 2, 74, 80
4, 29636, Note_on_c, 2, 74, 0
4, 29640, Note_on_c, 2, 72, 80
4, 29692, Note_on_c, 2, 72, 0
4, 29700, Note_on_c, 2, 74, 80
4, 29726, Note_on_c, 2, 74, 0
4, 29730, Note_on_c, 2, 70, 80
4, 29756, Note_on_c, 2, 70, 0
4, 29760, Note_on_c, 2, 72, 80
4, 30052, Note_on_c, 2, 72, 0
4, 30060, Note_on_c, 2, 74, 80
4, 30086, Note_on_c, 2, 74, 0
4, 30090, Note_on_c, 2, 72, 80
4, 30116, Note_on_c, 2, 72, 0
4, 30120, Note_on_c, 2, 70, 80
4, 30172, Note_on_c, 2, 70, 0
4, 30180, Note_on_c, 2, 72, 80
4, 30206, Note_on_c, 2, 72, 0
4, 30210, Note_on_c, 2, 69, 80
4, 30236, Note_on_c, 2, 69, 0
4, 30240, Note_on_c, 2, 70, 80
4, 30532, Note_on_c, 2, 70, 0
4, 30540, Note_on_c, 2, 75, 80
4, 30566, Note_on_c, 2, 75, 0
4, 30570, Note_on_c, 2, 74, 80
4, 30596, Note_on_c, 2, 74, 0
4, 30600, Note_on_c, 2, 72, 80
4, 30626, Note_on_c, 2, 72, 0
4, 30630, Note_on_c, 2, 70, 80
4, 30656, Note_on_c, 2, 70, 0
4, 30660, Note_on_c, 2, 69, 80
4, 30686, Note_on_c, 2, 69, 0
4, 30690, Note_on_c, 2, 70, 80
4, 30716, Note_on_c, 2, 70, 0
4, 30720, Note_on_c, 2, 72, 80
4, 30746, Note_on_c, 2, 72, 0
4, 30750, Note_on_c, 2, 70, 80
4, 30776, Note_on_c, 2, 70, 0
4, 30780, Note_on_c, 2, 69, 80
4, 30806, Note_on_c, 2, 69, 0
4, 30810, Note_on_c, 2, 67, 80
4, 30836, Note_on_c, 2, 67, 0
4, 30840, Note_on_c, 2, 69, 80
4, 30866, Note_on_c, 2, 69, 0
4, 30870, Note_on_c, 2, 66, 80
4, 30896, Note_on_c, 2, 66, 0
4, 30900, Note_on_c, 2, 67, 80
4, 30926, Note_on_c, 2, 67, 0
4, 30930, Note_on_c, 2, 69, 80
4, 30956, Note_on_c, 2, 69, 0
4, 30960, Note_on_c, 2, 62, 80
4, 30986, Note_on_c, 2, 62, 0
4, 30990, Note_on_c, 2, 64, 80
4, 31016, Note_on_c, 2, 64, 0
4, 31020, Note_on_c, 2, 62, 80
4, 31046, Note_on_c, 2, 62, 0
4, 31050, Note_on_c, 2, 64, 80
4, 31076, Note_on_c, 2, 64, 0
4, 31080, Note_on_c, 2, 66, 80
4, 31106, Note_on_c, 2, 66, 0
4, 31110, Note_on_c, 2, 67, 80
4, 31136, Note_on_c, 2, 67, 0
4, 31140, Note_on_c, 2, 66, 80
4, 31166, Note_on_c, 2, 66, 0
4, 31170, Note_on_c, 2, 67, 80
4, 31196, Note_on_c, 2, 67, 0
4, 31200, Note_on_c, 2, 69, 80
4, 31226, Note_on_c, 2, 69, 0
4, 31230, Note_on_c, 2, 67, 80
4, 31256, Note_on_c, 2, 67, 0
4, 31260, Note_on_c, 2, 66, 80
4, 31286, Note_on_c, 2, 66, 0
4, 31290, Note_on_c, 2, 67, 80
4, 31316, Note_on_c, 2, 67, 0
4, 31320, Note_on_c, 2, 69, 80
4, 31346, Note_on_c, 2, 69, 0
4, 31350, Note_on_c, 2, 70, 80
4, 31376, Note_on_c, 2, 70, 0
4, 31380, Note_on_c, 2, 69, 80
4, 31406, Note_on_c, 2, 69, 0
4, 31410, Note_on_c, 2, 70, 80
4, 31436, Note_on_c, 2, 70, 0
4, 31440, Note_on_c, 2, 72, 80
4, 31466, Note_on_c, 2, 72, 0
4, 31470, Note_on_c, 2, 74, 80
4, 31482, Note_on_c, 2, 74, 0
4, 31484, Note_on_c, 2, 72, 80
4, 31498, Note_on_c, 2, 72, 0
4, 31500, Note_on_c, 2, 70, 80
4, 31526, Note_on_c, 2, 70, 0
4, 31530, Note_on_c, 2, 72, 80
4, 31556, Note_on_c, 2, 72, 0
4, 31560, Note_on_c, 2, 74, 80
4, 31586, Note_on_c, 2, 74, 0
4, 31590, Note_on_c, 2, 75, 80
4, 31602, Note_on_c, 2, 75, 0
4, 31604, Note_on_c, 2, 74, 80
4, 31618, Note_on_c, 2, 74, 0
4, 31620, Note_on_c, 2, 72, 80
4, 31632, Note_on_c, 2, 72, 0
4, 31634, Note_on_c, 2, 74, 80
4, 31648, Note_on_c, 2, 74, 0
4, 31650, Note_on_c, 2, 75, 80
4, 31676, Note_on_c, 2, 75, 0
4, 31680, Note_on_c, 2, 69, 80
4, 31692, Note_on_c, 2, 69, 0
4, 31694, Note_on_c, 2, 70, 80
4, 31708, Note_on_c, 2, 70, 0
4, 31710, Note_on_c, 2, 69, 80
4, 31722, Note_on_c, 2, 69, 0
4, 31724, Note_on_c, 2, 70, 80
4, 31738, Note_on_c, 2, 70, 0
4, 31740, Note_on_c, 2, 69, 80
4, 31752, Note_on_c, 2, 69, 0
4, 31754, Note_on_c, 2, 70, 80
4, 31768, Note_on_c, 2, 70, 0
4, 31770, Note_on_c, 2, 69, 80
4, 31782, Note_on_c, 2, 69, 0
4, 31784, Note_on_c, 2, 70, 80
4, 31798, Note_on_c, 2, 70, 0
4, 31800, Note_on_c, 2, 69, 80
4, 31856, Note_on_c, 2, 69, 0
4, 31860, Note_on_c, 2, 67, 80
4, 31912, Note_on_c, 2, 67, 0
4, 31920, Note_on_c, 2, 67, 80
4, 32130, Note_on_c, 2, 67, 0
4, 32130, End_track
5, 0, Start_track
5, 0, Title_t, "String Ensemble 1"
5, 0, Program_c, 3, 48
5, 0, Control_c, 3, 7, 120
5, 0, Control_c, 3, 10, 64
5, 240, Note_on_c, 3, 55, 80
5, 344, Note_on_c, 3, 55, 0
5, 360, Note_on_c, 3, 50, 80
5, 412, Note_on_c, 3, 50, 0
5, 420, Note_on_c, 3, 55, 80
5, 472, Note_on_c, 3, 55, 0
5, 480, Note_on_c, 3, 57, 80
5, 584, Note_on_c, 3, 57, 0
5, 600, Note_on_c, 3, 50, 80
5, 652, Note_on_c, 3, 50, 0
5, 660, Note_on_c, 3, 57, 80
5, 712, Note_on_c, 3, 57, 0
5, 720, Note_on_c, 3, 58, 80
5, 772, Note_on_c, 3, 58, 0
5, 780, Note_on_c, 3, 62, 80
5, 832, Note_on_c, 3, 62, 0
5, 840, Note_on_c, 3, 58, 80
5, 892, Note_on_c, 3, 58, 0
5, 900, Note_on_c, 3, 55, 80
5, 952, Note_on_c, 3, 55, 0
5, 960, Note_on_c, 3, 54, 80
5, 1012, Note_on_c, 3, 54, 0
5, 1020, Note_on_c, 3, 57, 80
5, 1072, Note_on_c, 3, 57, 0
5, 1080, Note_on_c, 3, 54, 80
5, 1132, Note_on_c, 3, 54, 0
5, 1140, Note_on_c, 3, 50, 80
5, 1192, Note_on_c, 3, 50, 0
5, 1200, Note_on_c, 3, 55, 80
5, 1252, Note_on_c, 3, 55, 0
5, 1260, Note_on_c, 3, 58, 80
5, 1312, Note_on_c, 3, 58, 0
5, 1320, Note_on_c, 3, 55, 80
5, 1372, Note_on_c, 3, 55, 0
5, 1380, Note_on_c, 3, 50, 80
5, 1432, Note_on_c, 3, 50, 0
5, 1440, Note_on_c, 3, 51, 80
5, 1492, Note_on_c, 3, 51, 0
5, 1500, Note_on_c, 3, 50, 80
5, 1552, Note_on_c, 3, 50, 0
5, 1560, Note_on_c, 3, 51, 80
5, 1612, Note_on_c, 3, 51, 0
5, 1620, Note_on_c, 3, 48, 80
5, 1672, Note_on_c, 3, 48, 0
5, 1680, Note_on_c, 3, 53, 80
5, 1732, Note_on_c, 3, 53, 0
5, 1740, Note_on_c, 3, 57, 80
5, 1792, Note_on_c, 3, 57, 0
5, 1800, Note_on_c, 3, 53, 80
5, 1852, Note_on_c, 3, 53, 0
5, 1860, Note_on_c, 3, 48, 80
5, 1912, Note_on_c, 3, 48, 0
5, 1920, Note_on_c, 3, 50, 80
5, 1972, Note_on_c, 3, 50, 0
5, 1980, Note_on_c, 3, 48, 80
5, 2032, Note_on_c, 3, 48, 0
5, 2040, Note_on_c, 3, 50, 80
5, 2092, Note_on_c, 3, 50, 0
5, 2100, Note_on_c, 3, 46, 80
5, 2152, Note_on_c, 3, 46, 0
5, 2160, Note_on_c, 3, 51, 80
5, 2212, Note_on_c, 3, 51, 0
5, 2220, Note_on_c, 3, 55, 80
5, 2272, Note_on_c, 3, 55, 0
5, 2280, Note_on_c, 3, 51, 80
5, 2332, Note_on_c, 3, 51, 0
5, 2340, Note_on_c, 3, 46, 80
5, 2392, Note_on_c, 3, 46, 0
5, 2400, Note_on_c, 3, 48, 80
5, 2452, Note_on_c, 3, 48, 0
5, 2460, Note_on_c, 3, 46, 80
5, 2512, Note_on_c, 3, 46, 0
5, 2520, Note_on_c, 3, 48, 80
5, 2572, Note_on_c, 3, 48, 0
5, 2580, Note_on_c, 3, 45, 80
5, 2632, Note_on_c, 3, 45, 0
5, 2640, Note_on_c, 3, 46, 80
5, 2744, Note_on_c, 3, 46, 0
5, 2760, Note_on_c, 3, 43, 80
5, 2812, Note_on_c, 3, 43, 0
5, 2820, Note_on_c, 3, 46, 80
5, 2872, Note_on_c, 3, 46, 0
5, 2880, Note_on_c, 3, 50, 80
5, 2984, Note_on_c, 3, 50, 0
5, 3000, Note_on_c, 3, 38, 80
5, 3104, Note_on_c, 3, 38, 0
5, 3120, Note_on_c, 3, 43, 80
5, 3224, Note_on_c, 3, 43, 0
5, 3240, Note_on_c, 3, 46, 80
5, 3344, Note_on_c, 3, 46, 0
5, 3360, Note_on_c, 3, 50, 80
5, 3464, Note_on_c, 3, 50, 0
5, 3480, Note_on_c, 3, 54, 80
5, 3584, Note_on_c, 3, 54, 0
5, 3600, Note_on_c, 3, 55, 80
5, 3704, Note_on_c, 3, 55, 0
5, 3720, Note_on_c, 3, 50, 80
5, 3772, Note_on_c, 3, 50, 0
5, 3780, Note_on_c, 3, 55, 80
5, 3832, Note_on_c, 3, 55, 0
5, 3840, Note_on_c, 3, 57, 80
5, 3944, Note_on_c, 3, 57, 0
5, 3960, Note_on_c, 3, 50, 80
5, 4012, Note_on_c, 3, 50, 0
5, 4020, Note_on_c, 3, 57, 80
5, 4072, Note_on_c, 3, 57, 0
5, 4080, Note_on_c, 3, 58, 80
5, 4132, Note_on_c, 3, 58, 0
5, 4140, Note_on_c, 3, 62, 80
5, 4192, Note_on_c, 3, 62, 0
5, 4200, Note_on_c, 3, 58, 80
5, 4252, Note_on_c, 3, 58, 0
5, 4260, Note_on_c, 3, 55, 80
5, 4312, Note_on_c, 3, 55, 0
5, 4320, Note_on_c, 3, 54, 80
5, 4372, Note_on_c, 3, 54, 0
5, 4380, Note_on_c, 3, 57, 80
5, 4432, Note_on_c, 3, 57, 0
5, 4440, Note_on_c, 3, 54, 80
5, 4492, Note_on_c, 3, 54, 0
5, 4500, Note_on_c, 3, 50, 80
5, 4552, Note_on_c, 3, 50, 0
5, 4560, Note_on_c, 3, 55, 80
5, 4664, Note_on_c, 3, 55, 0
5, 4680, Note_on_c, 3, 43, 80
5, 4784, Note_on_c, 3, 43, 0
5, 4920, Note_on_c, 3, 53, 80
5, 5024, Note_on_c, 3, 53, 0
5, 5040, Note_on_c, 3, 51, 80
5, 5092, Note_on_c, 3, 51, 0
5, 5100, Note_on_c, 3, 55, 80
5, 5152, Note_on_c, 3, 55, 0
5, 5160, Note_on_c, 3, 51, 80
5, 5212, Note_on_c, 3, 51, 0
5, 5220, Note_on_c, 3, 46, 80
5, 5272, Note_on_c, 3, 46, 0
5, 5280, Note_on_c, 3, 48, 80
5, 5332, Note_on_c, 3, 48, 0
5, 5340, Note_on_c, 3, 46, 80
5, 5392, Note_on_c, 3, 46, 0
5, 5400, Note_on_c, 3, 48, 80
5, 5452, Note_on_c, 3, 48, 0
5, 5460, Note_on_c, 3, 45, 80
5, 5512, Note_on_c, 3, 45, 0
5, 5520, Note_on_c, 3, 50, 80
5, 5624, Note_on_c, 3, 50, 0
5, 5640, Note_on_c, 3, 62, 80
5, 5744, Note_on_c, 3, 62, 0
5, 5760, Note_on_c, 3, 60, 80
5, 5864, Note_on_c, 3, 60, 0
5, 5880, Note_on_c, 3, 58, 80
5, 5984, Note_on_c, 3, 58, 0
5, 6000, Note_on_c, 3, 57, 80
5, 6104, Note_on_c, 3, 57, 0
5, 6120, Note_on_c, 3, 50, 80
5, 6172, Note_on_c, 3, 50, 0
5, 6180, Note_on_c, 3, 54, 80
5, 6232, Note_on_c, 3, 54, 0
5, 6240, Note_on_c, 3, 55, 80
5, 6344, Note_on_c, 3, 55, 0
5, 6360, Note_on_c, 3, 43, 80
5, 6412, Note_on_c, 3, 43, 0
5, 6420, Note_on_c, 3, 55, 80
5, 6472, Note_on_c, 3, 55, 0
5, 6480, Note_on_c, 3, 54, 80
5, 6532, Note_on_c, 3, 54, 0
5, 6540, Note_on_c, 3, 57, 80
5, 6592, Note_on_c, 3, 57, 0
5, 6600, Note_on_c, 3, 54, 80
5, 6652, Note_on_c, 3, 54, 0
5, 6660, Note_on_c, 3, 50, 80
5, 6712, Note_on_c, 3, 50, 0
5, 6720, Note_on_c, 3, 60, 80
5, 6772, Note_on_c, 3, 60, 0
5, 6780, Note_on_c, 3, 58, 80
5, 6832, Note_on_c, 3, 58, 0
5, 6840, Note_on_c, 3, 60, 80
5, 6892, Note_on_c, 3, 60, 0
5, 6900, Note_on_c, 3, 57, 80
5, 6952, Note_on_c, 3, 57, 0
5, 6960, Note_on_c, 3, 58, 80
5, 7064, Note_on_c, 3, 58, 0
5, 7080, Note_on_c, 3, 55, 80
5, 7132, Note_on_c, 3, 55, 0
5, 7140, Note_on_c, 3, 58, 80
5, 7192, Note_on_c, 3, 58, 0
5, 7200, Note_on_c, 3, 60, 80
5, 7304, Note_on_c, 3, 60, 0
5, 7320, Note_on_c, 3, 57, 80
5, 7372, Note_on_c, 3, 57, 0
5, 7380, Note_on_c, 3, 60, 80
5, 7432, Note_on_c, 3, 60, 0
5, 7440, Note_on_c, 3, 62, 80
5, 7492, Note_on_c, 3, 62, 0
5, 7500, Note_on_c, 3, 65, 80
5, 7552, Note_on_c, 3, 65, 0
5, 7560, Note_on_c, 3, 62, 80
5, 7612, Note_on_c, 3, 62, 0
5, 7620, Note_on_c, 3, 58, 80
5, 7672, Note_on_c, 3, 58, 0
5, 7680, Note_on_c, 3, 57, 80
5, 7732, Note_on_c, 3, 57, 0
5, 7740, Note_on_c, 3, 60, 80
5, 7792, Note_on_c, 3, 60, 0
5, 7800, Note_on_c, 3, 57, 80
5, 7852, Note_on_c, 3, 57, 0
5, 7860, Note_on_c, 3, 53, 80
5, 7912, Note_on_c, 3, 53, 0
5, 7920, Note_on_c, 3, 58, 80
5, 8024, Note_on_c, 3, 58, 0
5, 8040, Note_on_c, 3, 46, 80
5, 8144, Note_on_c, 3, 46, 0
5, 8280, Note_on_c, 3, 58, 80
5, 8384, Note_on_c, 3, 58, 0
5, 8400, Note_on_c, 3, 60, 80
5, 8504, Note_on_c, 3, 60, 0
5, 8520, Note_on_c, 3, 48, 80
5, 8624, Note_on_c, 3, 48, 0
5, 8760, Note_on_c, 3, 60, 80
5, 8864, Note_on_c, 3, 60, 0
5, 8880, Note_on_c, 3, 62, 80
5, 8932, Note_on_c, 3, 62, 0
5, 8940, Note_on_c, 3, 65, 80
5, 8992, Note_on_c, 3, 65, 0
5, 9000, Note_on_c, 3, 62, 80
5, 9052, Note_on_c, 3, 62, 0
5, 9060, Note_on_c, 3, 57, 80
5, 9112, Note_on_c, 3, 57, 0
5, 9120, Note_on_c, 3, 58, 80
5, 9172, Note_on_c, 3, 58, 0
5, 9180, Note_on_c, 3, 57, 80
5, 9232, Note_on_c, 3, 57, 0
5, 9240, Note_on_c, 3, 58, 80
5, 9292, Note_on_c, 3, 58, 0
5, 9300, Note_on_c, 3, 55, 80
5, 9352, Note_on_c, 3, 55, 0
5, 9360, Note_on_c, 3, 60, 80
5, 9412, Note_on_c, 3, 60, 0
5, 9420, Note_on_c, 3, 63, 80
5, 9472, Note_on_c, 3, 63, 0
5, 9480, Note_on_c, 3, 60, 80
5, 9532, Note_on_c, 3, 60, 0
5, 9540, Note_on_c, 3, 55, 80
5, 9592, Note_on_c, 3, 55, 0
5, 9600, Note_on_c, 3, 57, 80
5, 9652, Note_on_c, 3, 57, 0
5, 9660, Note_on_c, 3, 55, 80
5, 9712, Note_on_c, 3, 55, 0
5, 9720, Note_on_c, 3, 57, 80
5, 9772, Note_on_c, 3, 57, 0
5, 9780, Note_on_c, 3, 53, 80
5, 9832, Note_on_c, 3, 53, 0
5, 9840, Note_on_c, 3, 58, 80
5, 9892, Note_on_c, 3, 58, 0
5, 9900, Note_on_c, 3, 62, 80
5, 9952, Note_on_c, 3, 62, 0
5, 9960, Note_on_c, 3, 58, 80
5, 10012, Note_on_c, 3, 58, 0
5, 10020, Note_on_c, 3, 53, 80
5, 10072, Note_on_c, 3, 53, 0
5, 10080, Note_on_c, 3, 55, 80
5, 10132, Note_on_c, 3, 55, 0
5, 10140, Note_on_c, 3, 53, 80
5, 10192, Note_on_c, 3, 53, 0
5, 10200, Note_on_c, 3, 55, 80
5, 10252, Note_on_c, 3, 55, 0
5, 10260, Note_on_c, 3, 51, 80
5, 10312, Note_on_c, 3, 51, 0
5, 10320, Note_on_c, 3, 53, 80
5, 10424, Note_on_c, 3, 53, 0
5, 10440, Note_on_c, 3, 41, 80
5, 10544, Note_on_c, 3, 41, 0
5, 10680, Note_on_c, 3, 53, 80
5, 10784, Note_on_c, 3, 53, 0
5, 10800, Note_on_c, 3, 55, 80
5, 10904, Note_on_c, 3, 55, 0
5, 10920, Note_on_c, 3, 50, 80
5, 10972, Note_on_c, 3, 50, 0
5, 10980, Note_on_c, 3, 51, 80
5, 11032, Note_on_c, 3, 51, 0
5, 11040, Note_on_c, 3, 53, 80
5, 11144, Note_on_c, 3, 53, 0
5, 11160, Note_on_c, 3, 41, 80
5, 11264, Note_on_c, 3, 41, 0
5, 11280, Note_on_c, 3, 58, 80
5, 11384, Note_on_c, 3, 58, 0
5, 11400, Note_on_c, 3, 53, 80
5, 11452, Note_on_c, 3, 53, 0
5, 11460, Note_on_c, 3, 58, 80
5, 11512, Note_on_c, 3, 58, 0
5, 11520, Note_on_c, 3, 60, 80
5, 11624, Note_on_c, 3, 60, 0
5, 11640, Note_on_c, 3, 53, 80
5, 11692, Note_on_c, 3, 53, 0
5, 11700, Note_on_c, 3, 60, 80
5, 11752, Note_on_c, 3, 60, 0
5, 11760, Note_on_c, 3, 62, 80
5, 11812, Note_on_c, 3, 62, 0
5, 11820, Note_on_c, 3, 65, 80
5, 11872, Note_on_c, 3, 65, 0
5, 11880, Note_on_c, 3, 62, 80
5, 11932, Note_on_c, 3, 62, 0
5, 11940, Note_on_c, 3, 58, 80
5, 11992, Note_on_c, 3, 58, 0
5, 12000, Note_on_c, 3, 57, 80
5, 12052, Note_on_c, 3, 57, 0
5, 12060, Note_on_c, 3, 60, 80
5, 12112, Note_on_c, 3, 60, 0
5, 12120, Note_on_c, 3, 57, 80
5, 12172, Note_on_c, 3, 57, 0
5, 12180, Note_on_c, 3, 53, 80
5, 12232, Note_on_c, 3, 53, 0
5, 12240, Note_on_c, 3, 58, 80
5, 12292, Note_on_c, 3, 58, 0
5, 12300, Note_on_c, 3, 62, 80
5, 12352, Note_on_c, 3, 62, 0
5, 12360, Note_on_c, 3, 58, 80
5, 12412, Note_on_c, 3, 58, 0
5, 12420, Note_on_c, 3, 53, 80
5, 12472, Note_on_c, 3, 53, 0
5, 12480, Note_on_c, 3, 55, 80
5, 12532, Note_on_c, 3, 55, 0
5, 12540, Note_on_c, 3, 53, 80
5, 12592, Note_on_c, 3, 53, 0
5, 12600, Note_on_c, 3, 55, 80
5, 12652, Note_on_c, 3, 55, 0
5, 12660, Note_on_c, 3, 51, 80
5, 12712, Note_on_c, 3, 51, 0
5, 12720, Note_on_c, 3, 57, 80
5, 12772, Note_on_c, 3, 57, 0
5, 12780, Note_on_c, 3, 60, 80
5, 12832, Note_on_c, 3, 60, 0
5, 12840, Note_on_c, 3, 57, 80
5, 12892, Note_on_c, 3, 57, 0
5, 12900, Note_on_c, 3, 51, 80
5, 12952, Note_on_c, 3, 51, 0
5, 12960, Note_on_c, 3, 53, 80
5, 13012, Note_on_c, 3, 53, 0
5, 13020, Note_on_c, 3, 51, 80
5, 13072, Note_on_c, 3, 51, 0
5, 13080, Note_on_c, 3, 53, 80
5, 13132, Note_on_c, 3, 53, 0
5, 13140, Note_on_c, 3, 50, 80
5, 13192, Note_on_c, 3, 50, 0
5, 13200, Note_on_c, 3, 55, 80
5, 13252, Note_on_c, 3, 55, 0
5, 13260, Note_on_c, 3, 58, 80
5, 13312, Note_on_c, 3, 58, 0
5, 13320, Note_on_c, 3, 55, 80
5, 13372, Note_on_c, 3, 55, 0
5, 13380, Note_on_c, 3, 50, 80
5, 13432, Note_on_c, 3, 50, 0
5, 13440, Note_on_c, 3, 51, 80
5, 13492, Note_on_c, 3, 51, 0
5, 13500, Note_on_c, 3, 50, 80
5, 13552, Note_on_c, 3, 50, 0
5, 13560, Note_on_c, 3, 51, 80
5, 13612, Note_on_c, 3, 51, 0
5, 13620, Note_on_c, 3, 48, 80
5, 13672, Note_on_c, 3, 48, 0
5, 13680, Note_on_c, 3, 50, 80
5, 13784, Note_on_c, 3, 50, 0
5, 13800, Note_on_c, 3, 46, 80
5, 13852, Note_on_c, 3, 46, 0
5, 13860, Note_on_c, 3, 50, 80
5, 13912, Note_on_c, 3, 50, 0
5, 13920, Note_on_c, 3, 53, 80
5, 14024, Note_on_c, 3, 53, 0
5, 14040, Note_on_c, 3, 41, 80
5, 14092, Note_on_c, 3, 41, 0
5, 14100, Note_on_c, 3, 53, 80
5, 14152, Note_on_c, 3, 53, 0
5, 14160, Note_on_c, 3, 58, 80
5, 14212, Note_on_c, 3, 58, 0
5, 14220, Note_on_c, 3, 62, 80
5, 14272, Note_on_c, 3, 62, 0
5, 14280, Note_on_c, 3, 58, 80
5, 14332, Note_on_c, 3, 58, 0
5, 14340, Note_on_c, 3, 55, 80
5, 14392, Note_on_c, 3, 55, 0
5, 14400, Note_on_c, 3, 54, 80
5, 14452, Note_on_c, 3, 54, 0
5, 14460, Note_on_c, 3, 57, 80
5, 14512, Note_on_c, 3, 57, 0
5, 14520, Note_on_c, 3, 54, 80
5, 14572, Note_on_c, 3, 54, 0
5, 14580, Note_on_c, 3, 50, 80
5, 14632, Note_on_c, 3, 50, 0
5, 14640, Note_on_c, 3, 55, 80
5, 14692, Note_on_c, 3, 55, 0
5, 14700, Note_on_c, 3, 58, 80
5, 14752, Note_on_c, 3, 58, 0
5, 14760, Note_on_c, 3, 55, 80
5, 14812, Note_on_c, 3, 55, 0
5, 14820, Note_on_c, 3, 50, 80
5, 14872, Note_on_c, 3, 50, 0
5, 14880, Note_on_c, 3, 51, 80
5, 14932, Note_on_c, 3, 51, 0
5, 14940, Note_on_c, 3, 50, 80
5, 14992, Note_on_c, 3, 50, 0
5, 15000, Note_on_c, 3, 51, 80
5, 15052, Note_on_c, 3, 51, 0
5, 15060, Note_on_c, 3, 48, 80
5, 15112, Note_on_c, 3, 48, 0
5, 15120, Note_on_c, 3, 53, 80
5, 15172, Note_on_c, 3, 53, 0
5, 15180, Note_on_c, 3, 57, 80
5, 15232, Note_on_c, 3, 57, 0
5, 15240, Note_on_c, 3, 53, 80
5, 15292, Note_on_c, 3, 53, 0
5, 15300, Note_on_c, 3, 48, 80
5, 15352, Note_on_c, 3, 48, 0
5, 15360, Note_on_c, 3, 50, 80
5, 15412, Note_on_c, 3, 50, 0
5, 15420, Note_on_c, 3, 48, 80
5, 15472, Note_on_c, 3, 48, 0
5, 15480, Note_on_c, 3, 50, 80
5, 15532, Note_on_c, 3, 50, 0
5, 15540, Note_on_c, 3, 46, 80
5, 15592, Note_on_c, 3, 46, 0
5, 15600, Note_on_c, 3, 51, 80
5, 15704, Note_on_c, 3, 51, 0
5, 15720, Note_on_c, 3, 39, 80
5, 15824, Note_on_c, 3, 39, 0
5, 15960, Note_on_c, 3, 50, 80
5, 16064, Note_on_c, 3, 50, 0
5, 16080, Note_on_c, 3, 48, 80
5, 16132, Note_on_c, 3, 48, 0
5, 16140, Note_on_c, 3, 53, 80
5, 16192, Note_on_c, 3, 53, 0
5, 16200, Note_on_c, 3, 51, 80
5, 16252, Note_on_c, 3, 51, 0
5, 16260, Note_on_c, 3, 48, 80
5, 16312, Note_on_c, 3, 48, 0
5, 16320, Note_on_c, 3, 50, 80
5, 16372, Note_on_c, 3, 50, 0
5, 16380, Note_on_c, 3, 48, 80
5, 16432, Note_on_c, 3, 48, 0
5, 16440, Note_on_c, 3, 50, 80
5, 16492, Note_on_c, 3, 50, 0
5, 16500, Note_on_c, 3, 46, 80
5, 16552, Note_on_c, 3, 46, 0
5, 16560, Note_on_c, 3, 53, 80
5, 16664, Note_on_c, 3, 53, 0
5, 16680, Note_on_c, 3, 48, 80
5, 16732, Note_on_c, 3, 48, 0
5, 16740, Note_on_c, 3, 53, 80
5, 16792, Note_on_c, 3, 53, 0
5, 16800, Note_on_c, 3, 55, 80
5, 16904, Note_on_c, 3, 55, 0
5, 16920, Note_on_c, 3, 48, 80
5, 16972, Note_on_c, 3, 48, 0
5, 16980, Note_on_c, 3, 55, 80
5, 17032, Note_on_c, 3, 55, 0
5, 17040, Note_on_c, 3, 57, 80
5, 17092, Note_on_c, 3, 57, 0
5, 17100, Note_on_c, 3, 60, 80
5, 17152, Note_on_c, 3, 60, 0
5, 17160, Note_on_c, 3, 57, 80
5, 17212, Note_on_c, 3, 57, 0
5, 17220, Note_on_c, 3, 53, 80
5, 17272, Note_on_c, 3, 53, 0
5, 17280, Note_on_c, 3, 59, 80
5, 17332, Note_on_c, 3, 59, 0
5, 17340, Note_on_c, 3, 62, 80
5, 17392, Note_on_c, 3, 62, 0
5, 17400, Note_on_c, 3, 59, 80
5, 17452, Note_on_c, 3, 59, 0
5, 17460, Note_on_c, 3, 55, 80
5, 17512, Note_on_c, 3, 55, 0
5, 17520, Note_on_c, 3, 60, 80
5, 17624, Note_on_c, 3, 60, 0
5, 17640, Note_on_c, 3, 55, 80
5, 17692, Note_on_c, 3, 55, 0
5, 17700, Note_on_c, 3, 60, 80
5, 17752, Note_on_c, 3, 60, 0
5, 17760, Note_on_c, 3, 62, 80
5, 17864, Note_on_c, 3, 62, 0
5, 17880, Note_on_c, 3, 55, 80
5, 17932, Note_on_c, 3, 55, 0
5, 17940, Note_on_c, 3, 62, 80
5, 17992, Note_on_c, 3, 62, 0
5, 18000, Note_on_c, 3, 63, 80
5, 18052, Note_on_c, 3, 63, 0
5, 18060, Note_on_c, 3, 67, 80
5, 18112, Note_on_c, 3, 67, 0
5, 18120, Note_on_c, 3, 63, 80
5, 18172, Note_on_c, 3, 63, 0
5, 18180, Note_on_c, 3, 60, 80
5, 18232, Note_on_c, 3, 60, 0
5, 18240, Note_on_c, 3, 59, 80
5, 18292, Note_on_c, 3, 59, 0
5, 18300, Note_on_c, 3, 62, 80
5, 18352, Note_on_c, 3, 62, 0
5, 18360, Note_on_c, 3, 59, 80
5, 18412, Note_on_c, 3, 59, 0
5, 18420, Note_on_c, 3, 55, 80
5, 18472, Note_on_c, 3, 55, 0
5, 18480, Note_on_c, 3, 60, 80
5, 18532, Note_on_c, 3, 60, 0
5, 18540, Note_on_c, 3, 63, 80
5, 18592, Note_on_c, 3, 63, 0
5, 18600, Note_on_c, 3, 60, 80
5, 18652, Note_on_c, 3, 60, 0
5, 18660, Note_on_c, 3, 55, 80
5, 18712, Note_on_c, 3, 55, 0
5, 18720, Note_on_c, 3, 56, 80
5, 18772, Note_on_c, 3, 56, 0
5, 18780, Note_on_c, 3, 55, 80
5, 18832, Note_on_c, 3, 55, 0
5, 18840, Note_on_c, 3, 56, 80
5, 18892, Note_on_c, 3, 56, 0
5, 18900, Note_on_c, 3, 53, 80
5, 18952, Note_on_c, 3, 53, 0
5, 18960, Note_on_c, 3, 58, 80
5, 19012, Note_on_c, 3, 58, 0
5, 19020, Note_on_c, 3, 62, 80
5, 19072, Note_on_c, 3, 62, 0
5, 19080, Note_on_c, 3, 58, 80
5, 19132, Note_on_c, 3, 58, 0
5, 19140, Note_on_c, 3, 53, 80
5, 19192, Note_on_c, 3, 53, 0
5, 19200, Note_on_c, 3, 55, 80
5, 19252, Note_on_c, 3, 55, 0
5, 19260, Note_on_c, 3, 53, 80
5, 19312, Note_on_c, 3, 53, 0
5, 19320, Note_on_c, 3, 55, 80
5, 19372, Note_on_c, 3, 55, 0
5, 19380, Note_on_c, 3, 51, 80
5, 19432, Note_on_c, 3, 51, 0
5, 19440, Note_on_c, 3, 56, 80
5, 19492, Note_on_c, 3, 56, 0
5, 19500, Note_on_c, 3, 60, 80
5, 19552, Note_on_c, 3, 60, 0
5, 19560, Note_on_c, 3, 56, 80
5, 19612, Note_on_c, 3, 56, 0
5, 19620, Note_on_c, 3, 51, 80
5, 19672, Note_on_c, 3, 51, 0
5, 19680, Note_on_c, 3, 53, 80
5, 19732, Note_on_c, 3, 53, 0
5, 19740, Note_on_c, 3, 51, 80
5, 19792, Note_on_c, 3, 51, 0
5, 19800, Note_on_c, 3, 53, 80
5, 19852, Note_on_c, 3, 53, 0
5, 19860, Note_on_c, 3, 50, 80
5, 19912, Note_on_c, 3, 50, 0
5, 19920, Note_on_c, 3, 51, 80
5, 20024, Note_on_c, 3, 51, 0
5, 20040, Note_on_c, 3, 48, 80
5, 20092, Note_on_c, 3, 48, 0
5, 20100, Note_on_c, 3, 51, 80
5, 20152, Note_on_c, 3, 51, 0
5, 20160, Note_on_c, 3, 55, 80
5, 20264, Note_on_c, 3, 55, 0
5, 20280, Note_on_c, 3, 43, 80
5, 20384, Note_on_c, 3, 43, 0
5, 20400, Note_on_c, 3, 48, 80
5, 20504, Note_on_c, 3, 48, 0
5, 20520, Note_on_c, 3, 43, 80
5, 20572, Note_on_c, 3, 43, 0
5, 20580, Note_on_c, 3, 48, 80
5, 20632, Note_on_c, 3, 48, 0
5, 20640, Note_on_c, 3, 50, 80
5, 20744, Note_on_c, 3, 50, 0
5, 20760, Note_on_c, 3, 43, 80
5, 20812, Note_on_c, 3, 43, 0
5, 20820, Note_on_c, 3, 50, 80
5, 20872, Note_on_c, 3, 50, 0
5, 20880, Note_on_c, 3, 51, 80
5, 20932, Note_on_c, 3, 51, 0
5, 20940, Note_on_c, 3, 55, 80
5, 20992, Note_on_c, 3, 55, 0
5, 21000, Note_on_c, 3, 51, 80
5, 21052, Note_on_c, 3, 51, 0
5, 21060, Note_on_c, 3, 48, 80
5, 21112, Note_on_c, 3, 48, 0
5, 21120, Note_on_c, 3, 47, 80
5, 21172, Note_on_c, 3, 47, 0
5, 21180, Note_on_c, 3, 50, 80
5, 21232, Note_on_c, 3, 50, 0
5, 21240, Note_on_c, 3, 47, 80
5, 21292, Note_on_c, 3, 47, 0
5, 21300, Note_on_c, 3, 43, 80
5, 21352, Note_on_c, 3, 43, 0
5, 21360, Note_on_c, 3, 48, 80
5, 21412, Note_on_c, 3, 48, 0
5, 21420, Note_on_c, 3, 51, 80
5, 21472, Note_on_c, 3, 51, 0
5, 21480, Note_on_c, 3, 48, 80
5, 21532, Note_on_c, 3, 48, 0
5, 21540, Note_on_c, 3, 43, 80
5, 21592, Note_on_c, 3, 43, 0
5, 21600, Note_on_c, 3, 44, 80
5, 21652, Note_on_c, 3, 44, 0
5, 21660, Note_on_c, 3, 43, 80
5, 21712, Note_on_c, 3, 43, 0
5, 21720, Note_on_c, 3, 44, 80
5, 21772, Note_on_c, 3, 44, 0
5, 21780, Note_on_c, 3, 41, 80
5, 21832, Note_on_c, 3, 41, 0
5, 21840, Note_on_c, 3, 46, 80
5, 21892, Note_on_c, 3, 46, 0
5, 21900, Note_on_c, 3, 50, 80
5, 21952, Note_on_c, 3, 50, 0
5, 21960, Note_on_c, 3, 46, 80
5, 22012, Note_on_c, 3, 46, 0
5, 22020, Note_on_c, 3, 41, 80
5, 22072, Note_on_c, 3, 41, 0
5, 22080, Note_on_c, 3, 43, 80
5, 22132, Note_on_c, 3, 43, 0
5, 22140, Note_on_c, 3, 41, 80
5, 22192, Note_on_c, 3, 41, 0
5, 22200, Note_on_c, 3, 43, 80
5, 22252, Note_on_c, 3, 43, 0
5, 22260, Note_on_c, 3, 39, 80
5, 22312, Note_on_c, 3, 39, 0
5, 22320, Note_on_c, 3, 44, 80
5, 22372, Note_on_c, 3, 44, 0
5, 22380, Note_on_c, 3, 48, 80
5, 22432, Note_on_c, 3, 48, 0
5, 22440, Note_on_c, 3, 44, 80
5, 22492, Note_on_c, 3, 44, 0
5, 22500, Note_on_c, 3, 39, 80
5, 22552, Note_on_c, 3, 39, 0
5, 22560, Note_on_c, 3, 41, 80
5, 22612, Note_on_c, 3, 41, 0
5, 22620, Note_on_c, 3, 39, 80
5, 22672, Note_on_c, 3, 39, 0
5, 22680, Note_on_c, 3, 41, 80
5, 22732, Note_on_c, 3, 41, 0
5, 22740, Note_on_c, 3, 38, 80
5, 22792, Note_on_c, 3, 38, 0
5, 22800, Note_on_c, 3, 39, 80
5, 22852, Note_on_c, 3, 39, 0
5, 22860, Note_on_c, 3, 36, 80
5, 22912, Note_on_c, 3, 36, 0
5, 22920, Note_on_c, 3, 39, 80
5, 22972, Note_on_c, 3, 39, 0
5, 22980, Note_on_c, 3, 41, 80
5, 23032, Note_on_c, 3, 41, 0
5, 23040, Note_on_c, 3, 43, 80
5, 23144, Note_on_c, 3, 43, 0
5, 23160, Note_on_c, 3, 43, 80
5, 23264, Note_on_c, 3, 43, 0
5, 23280, Note_on_c, 3, 36, 80
5, 23332, Note_on_c, 3, 36, 0
5, 23340, Note_on_c, 3, 51, 80
5, 23392, Note_on_c, 3, 51, 0
5, 23400, Note_on_c, 3, 48, 80
5, 23452, Note_on_c, 3, 48, 0
5, 23460, Note_on_c, 3, 45, 80
5, 23512, Note_on_c, 3, 45, 0
5, 23520, Note_on_c, 3, 42, 80
5, 23572, Note_on_c, 3, 42, 0
5, 23580, Note_on_c, 3, 45, 80
5, 23632, Note_on_c, 3, 45, 0
5, 23640, Note_on_c, 3, 42, 80
5, 23692, Note_on_c, 3, 42, 0
5, 23700, Note_on_c, 3, 38, 80
5, 23752, Note_on_c, 3, 38, 0
5, 23760, Note_on_c, 3, 43, 80
5, 23864, Note_on_c, 3, 43, 0
5, 23880, Note_on_c, 3, 38, 80
5, 23932, Note_on_c, 3, 38, 0
5, 23940, Note_on_c, 3, 43, 80
5, 23992, Note_on_c, 3, 43, 0
5, 24000, Note_on_c, 3, 45, 80
5, 24104, Note_on_c, 3, 45, 0
5, 24120, Note_on_c, 3, 38, 80
5, 24172, Note_on_c, 3, 38, 0
5, 24180, Note_on_c, 3, 45, 80
5, 24232, Note_on_c, 3, 45, 0
5, 24240, Note_on_c, 3, 46, 80
5, 24292, Note_on_c, 3, 46, 0
5, 24300, Note_on_c, 3, 62, 80
5, 24352, Note_on_c, 3, 62, 0
5, 24360, Note_on_c, 3, 58, 80
5, 24412, Note_on_c, 3, 58, 0
5, 24420, Note_on_c, 3, 55, 80
5, 24472, Note_on_c, 3, 55, 0
5, 24480, Note_on_c, 3, 54, 80
5, 24532, Note_on_c, 3, 54, 0
5, 24540, Note_on_c, 3, 57, 80
5, 24592, Note_on_c, 3, 57, 0
5, 24600, Note_on_c, 3, 54, 80
5, 24652, Note_on_c, 3, 54, 0
5, 24660, Note_on_c, 3, 50, 80
5, 24712, Note_on_c, 3, 50, 0
5, 24720, Note_on_c, 3, 55, 80
5, 24824, Note_on_c, 3, 55, 0
5, 24840, Note_on_c, 3, 50, 80
5, 24944, Note_on_c, 3, 50, 0
5, 24960, Note_on_c, 3, 46, 80
5, 25064, Note_on_c, 3, 46, 0
5, 25080, Note_on_c, 3, 43, 80
5, 25132, Note_on_c, 3, 43, 0
5, 25140, Note_on_c, 3, 55, 80
5, 25192, Note_on_c, 3, 55, 0
5, 25200, Note_on_c, 3, 51, 80
5, 25252, Note_on_c, 3, 51, 0
5, 25260, Note_on_c, 3, 55, 80
5, 25312, Note_on_c, 3, 55, 0
5, 25320, Note_on_c, 3, 51, 80
5, 25372, Note_on_c, 3, 51, 0
5, 25380, Note_on_c, 3, 48, 80
5, 25432, Note_on_c, 3, 48, 0
5, 25440, Note_on_c, 3, 45, 80
5, 25492, Note_on_c, 3, 45, 0
5, 25500, Note_on_c, 3, 48, 80
5, 25552, Note_on_c, 3, 48, 0
5, 25560, Note_on_c, 3, 45, 80
5, 25612, Note_on_c, 3, 45, 0
5, 25620, Note_on_c, 3, 41, 80
5, 25672, Note_on_c, 3, 41, 0
5, 25680, Note_on_c, 3, 46, 80
5, 25732, Note_on_c, 3, 46, 0
5, 25740, Note_on_c, 3, 50, 80
5, 25792, Note_on_c, 3, 50, 0
5, 25800, Note_on_c, 3, 46, 80
5, 25852, Note_on_c, 3, 46, 0
5, 25860, Note_on_c, 3, 43, 80
5, 25912, Note_on_c, 3, 43, 0
5, 25920, Note_on_c, 3, 42, 80
5, 25972, Note_on_c, 3, 42, 0
5, 25980, Note_on_c, 3, 45, 80
5, 26032, Note_on_c, 3, 45, 0
5, 26040, Note_on_c, 3, 42, 80
5, 26092, Note_on_c, 3, 42, 0
5, 26100, Note_on_c, 3, 38, 80
5, 26152, Note_on_c, 3, 38, 0
5, 26160, Note_on_c, 3, 43, 80
5, 26370, Note_on_c, 3, 43, 0
5, 26520, Note_on_c, 3, 55, 80
5, 26624, Note_on_c, 3, 55, 0
5, 26640, Note_on_c, 3, 60, 80
5, 26692, Note_on_c, 3, 60, 0
5, 26700, Note_on_c, 3, 63, 80
5, 26752, Note_on_c, 3, 63, 0
5, 26760, Note_on_c, 3, 60, 80
5, 26812, Note_on_c, 3, 60, 0
5, 26820, Note_on_c, 3, 55, 80
5, 26872, Note_on_c, 3, 55, 0
5, 26880, Note_on_c, 3, 51, 80
5, 26932, Note_on_c, 3, 51, 0
5, 26940, Note_on_c, 3, 55, 80
5, 26992, Note_on_c, 3, 55, 0
5, 27000, Note_on_c, 3, 51, 80
5, 27052, Note_on_c, 3, 51, 0
5, 27060, Note_on_c, 3, 48, 80
5, 27112, Note_on_c, 3, 48, 0
5, 27120, Note_on_c, 3, 45, 80
5, 27330, Note_on_c, 3, 45, 0
5, 27480, Note_on_c, 3, 53, 80
5, 27584, Note_on_c, 3, 53, 0
5, 27600, Note_on_c, 3, 58, 80
5, 27652, Note_on_c, 3, 58, 0
5, 27660, Note_on_c, 3, 62, 80
5, 27712, Note_on_c, 3, 62, 0
5, 27720, Note_on_c, 3, 58, 80
5, 27772, Note_on_c, 3, 58, 0
5, 27780, Note_on_c, 3, 55, 80
5, 27832, Note_on_c, 3, 55, 0
5, 27840, Note_on_c, 3, 54, 80
5, 27892, Note_on_c, 3, 54, 0
5, 27900, Note_on_c, 3, 57, 80
5, 27952, Note_on_c, 3, 57, 0
5, 27960, Note_on_c, 3, 54, 80
5, 28012, Note_on_c, 3, 54, 0
5, 28020, Note_on_c, 3, 50, 80
5, 28072, Note_on_c, 3, 50, 0
5, 28080, Note_on_c, 3, 55, 80
5, 28132, Note_on_c, 3, 55, 0
5, 28140, Note_on_c, 3, 58, 80
5, 28192, Note_on_c, 3, 58, 0
5, 28200, Note_on_c, 3, 55, 80
5, 28252, Note_on_c, 3, 55, 0
5, 28260, Note_on_c, 3, 50, 80
5, 28312, Note_on_c, 3, 50, 0
5, 28320, Note_on_c, 3, 46, 80
5, 28372, Note_on_c, 3, 46, 0
5, 28380, Note_on_c, 3, 50, 80
5, 28432, Note_on_c, 3, 50, 0
5, 28440, Note_on_c, 3, 46, 80
5, 28492, Note_on_c, 3, 46, 0
5, 28500, Note_on_c, 3, 43, 80
5, 28552, Note_on_c, 3, 43, 0
5, 28560, Note_on_c, 3, 48, 80
5, 28612, Note_on_c, 3, 48, 0
5, 28620, Note_on_c, 3, 51, 80
5, 28672, Note_on_c, 3, 51, 0
5, 28680, Note_on_c, 3, 48, 80
5, 28732, Note_on_c, 3, 48, 0
5, 28740, Note_on_c, 3, 43, 80
5, 28792, Note_on_c, 3, 43, 0
5, 28800, Note_on_c, 3, 39, 80
5, 28852, Note_on_c, 3, 39, 0
5, 28860, Note_on_c, 3, 43, 80
5, 28912, Note_on_c, 3, 43, 0
5, 28920, Note_on_c, 3, 39, 80
5, 28972, Note_on_c, 3, 39, 0
5, 28980, Note_on_c, 3, 36, 80
5, 29032, Note_on_c, 3, 36, 0
5, 29040, Note_on_c, 3, 38, 80
5, 29250, Note_on_c, 3, 38, 0
5, 29280, Note_on_c, 3, 58, 80
5, 29332, Note_on_c, 3, 58, 0
5, 29340, Note_on_c, 3, 62, 80
5, 29392, Note_on_c, 3, 62, 0
5, 29400, Note_on_c, 3, 58, 80
5, 29452, Note_on_c, 3, 58, 0
5, 29460, Note_on_c, 3, 54, 80
5, 29512, Note_on_c, 3, 54, 0
5, 29520, Note_on_c, 3, 55, 80
5, 29572, Note_on_c, 3, 55, 0
5, 29580, Note_on_c, 3, 54, 80
5, 29632, Note_on_c, 3, 54, 0
5, 29640, Note_on_c, 3, 55, 80
5, 29692, Note_on_c, 3, 55, 0
5, 29700, Note_on_c, 3, 52, 80
5, 29752, Note_on_c, 3, 52, 0
5, 29760, Note_on_c, 3, 57, 80
5, 29812, Note_on_c, 3, 57, 0
5, 29820, Note_on_c, 3, 60, 80
5, 29872, Note_on_c, 3, 60, 0
5, 29880, Note_on_c, 3, 57, 80
5, 29932, Note_on_c, 3, 57, 0
5, 29940, Note_on_c, 3, 52, 80
5, 29992, Note_on_c, 3, 52, 0
5, 30000, Note_on_c, 3, 54, 80
5, 30052, Note_on_c, 3, 54, 0
5, 30060, Note_on_c, 3, 52, 80
5, 30112, Note_on_c, 3, 52, 0
5, 30120, Note_on_c, 3, 54, 80
5, 30172, Note_on_c, 3, 54, 0
5, 30180, Note_on_c, 3, 50, 80
5, 30232, Note_on_c, 3, 50, 0
5, 30240, Note_on_c, 3, 55, 80
5, 30292, Note_on_c, 3, 55, 0
5, 30300, Note_on_c, 3, 58, 80
5, 30352, Note_on_c, 3, 58, 0
5, 30360, Note_on_c, 3, 55, 80
5, 30412, Note_on_c, 3, 55, 0
5, 30420, Note_on_c, 3, 50, 80
5, 30472, Note_on_c, 3, 50, 0
5, 30480, Note_on_c, 3, 51, 80
5, 30532, Note_on_c, 3, 51, 0
5, 30540, Note_on_c, 3, 50, 80
5, 30592, Note_on_c, 3, 50, 0
5, 30600, Note_on_c, 3, 51, 80
5, 30652, Note_on_c, 3, 51, 0
5, 30660, Note_on_c, 3, 48, 80
5, 30712, Note_on_c, 3, 48, 0
5, 30720, Note_on_c, 3, 60, 80
5, 31252, Note_on_c, 3, 60, 0
5, 31260, Note_on_c, 3, 63, 80
5, 31312, Note_on_c, 3, 63, 0
5, 31320, Note_on_c, 3, 60, 80
5, 31372, Note_on_c, 3, 60, 0
5, 31380, Note_on_c, 3, 57, 80
5, 31432, Note_on_c, 3, 57, 0
5, 31440, Note_on_c, 3, 54, 80
5, 31492, Note_on_c, 3, 54, 0
5, 31500, Note_on_c, 3, 50, 80
5, 31552, Note_on_c, 3, 50, 0
5, 31560, Note_on_c, 3, 58, 80
5, 31612, Note_on_c, 3, 58, 0
5, 31620, Note_on_c, 3, 55, 80
5, 31672, Note_on_c, 3, 55, 0
5, 31680, Note_on_c, 3, 62, 80
5, 31784, Note_on_c, 3, 62, 0
5, 31800, Note_on_c, 3, 50, 80
5, 31904, Note_on_c, 3, 50, 0
5, 31920, Note_on_c, 3, 55, 80
5, 32024, Note_on_c, 3, 55, 0
5, 32040, Note_on_c, 3, 50, 80
5, 32092, Note_on_c, 3, 50, 0
5, 32100, Note_on_c, 3, 55, 80
5, 32152, Note_on_c, 3, 55, 0
5, 32160, Note_on_c, 3, 57, 80
5, 32264, Note_on_c, 3, 57, 0
5, 32280, Note_on_c, 3, 50, 80
5, 32332, Note_on_c, 3, 50, 0
5, 32340, Note_on_c, 3, 57, 80
5, 32392, Note_on_c, 3, 57, 0
5, 32400, Note_on_c, 3, 58, 80
5, 32452, Note_on_c, 3, 58, 0
5, 32460, Note_on_c, 3, 62, 80
5, 32512, Note_on_c, 3, 62, 0
5, 32520, Note_on_c, 3, 58, 80
5, 32572, Note_on_c, 3, 58, 0
5, 32580, Note_on_c, 3, 55, 80
5, 32632, Note_on_c, 3, 55, 0
5, 32640, Note_on_c, 3, 54, 80
5, 32692, Note_on_c, 3, 54, 0
5, 32700, Note_on_c, 3, 57, 80
5, 32752, Note_on_c, 3, 57, 0
5, 32760, Note_on_c, 3, 54, 80
5, 32812, Note_on_c, 3, 54, 0
5, 32820, Note_on_c, 3, 50, 80
5, 32872, Note_on_c, 3, 50, 0
5, 32880, Note_on_c, 3, 55, 80
5, 32932, Note_on_c, 3, 55, 0
5, 32940, Note_on_c, 3, 58, 80
5, 32992, Note_on_c, 3, 58, 0
5, 33000, Note_on_c, 3, 55, 80
5, 33052, Note_on_c, 3, 55, 0
5, 33060, Note_on_c, 3, 50, 80
5, 33112, Note_on_c, 3, 50, 0
5, 33120, Note_on_c, 3, 51, 80
5, 33172, Note_on_c, 3, 51, 0
5, 33180, Note_on_c, 3, 50, 80
5, 33232, Note_on_c, 3, 50, 0
5, 33240, Note_on_c, 3, 51, 80
5, 33292, Note_on_c, 3, 51, 0
5, 33300, Note_on_c, 3, 48, 80
5, 33352, Note_on_c, 3, 48, 0
5, 33360, Note_on_c, 3, 53, 80
5, 33412, Note_on_c, 3, 53, 0
5, 33420, Note_on_c, 3, 57, 80
5, 33472, Note_on_c, 3, 57, 0
5, 33480, Note_on_c, 3, 53, 80
5, 33532, Note_on_c, 3, 53, 0
5, 33540, Note_on_c, 3, 48, 80
5, 33592, Note_on_c, 3, 48, 0
5, 33600, Note_on_c, 3, 50, 80
5, 33652, Note_on_c, 3, 50, 0
5, 33660, Note_on_c, 3, 48, 80
5, 33712, Note_on_c, 3, 48, 0
5, 33720, Note_on_c, 3, 50, 80
5, 33772, Note_on_c, 3, 50, 0
5, 33780, Note_on_c, 3, 46, 80
5, 33832, Note_on_c, 3, 46, 0
5, 33840, Note_on_c, 3, 51, 80
5, 33892, Note_on_c, 3, 51, 0
5, 33900, Note_on_c, 3, 55, 80
5, 33952, Note_on_c, 3, 55, 0
5, 33960, Note_on_c, 3, 51, 80
5, 34012, Note_on_c, 3, 51, 0
5, 34020, Note_on_c, 3, 46, 80
5, 34072, Note_on_c, 3, 46, 0
5, 34080, Note_on_c, 3, 48, 80
5, 34132, Note_on_c, 3, 48, 0
5, 34140, Note_on_c, 3, 46, 80
5, 34192, Note_on_c, 3, 46, 0
5, 34200, Note_on_c, 3, 48, 80
5, 34252, Note_on_c, 3, 48, 0
5, 34260, Note_on_c, 3, 45, 80
5, 34312, Note_on_c, 3, 45, 0
5, 34320, Note_on_c, 3, 46, 80
5, 34424, Note_on_c, 3, 46, 0
5, 34440, Note_on_c, 3, 43, 80
5, 34492, Note_on_c, 3, 43, 0
5, 34500, Note_on_c, 3, 46, 80
5, 34552, Note_on_c, 3, 46, 0
5, 34560, Note_on_c, 3, 50, 80
5, 34664, Note_on_c, 3, 50, 0
5, 34680, Note_on_c, 3, 38, 80
5, 34784, Note_on_c, 3, 38, 0
5, 34800, Note_on_c, 3, 43, 80
5, 35010, Note_on_c, 3, 43, 0
5, 35010, End_track
0, 0, End_of_file
