0, 0, Header, 1, 5, 120
1, 0, Start_track
1, 0, Time_signature, 4, 2, 24, 8
1, 0, Key_signature, 0, "major"
1, 0, Tempo, 750000
1, 11160, Tempo, 821917
1, 11401, Tempo, 1034482
1, 11576, Tempo, 1818181
1, 11610, Tempo, 2400000
1, 11610, End_track
2, 0, Start_track
2, 0, MIDI_port, 0
2, 0, Title_t, "Acoustic Guitar"
2, 0, Program_c, 0, 25
2, 0, Control_c, 0, 7, 90
2, 0, Control_c, 0, 10, 1
2, 44, Control_c, 0, 7, 90
2, 150, Note_on_c, 0, 75, 90
2, 176, Note_on_c, 0, 75, 0
2, 180, Note_on_c, 0, 74, 90
2, 206, Note_on_c, 0, 74, 0
2, 210, Note_on_c, 0, 72, 90
2, 236, Note_on_c, 0, 72, 0
2, 240, Note_on_c, 0, 70, 90
2, 266, Note_on_c, 0, 70, 0
2, 270, Note_on_c, 0, 72, 90
2, 296, Note_on_c, 0, 72, 0
2, 300, Note_on_c, 0, 74, 90
2, 326, Note_on_c, 0, 74, 0
2, 330, Note_on_c, 0, 67, 90
2, 356, Note_on_c, 0, 67, 0
2, 360, Note_on_c, 0, 66, 90
2, 386, Note_on_c, 0, 66, 0
2, 390, Note_on_c, 0, 69, 90
2, 416, Note_on_c, 0, 69, 0
2, 420, Note_on_c, 0, 72, 90
2, 446, Note_on_c, 0, 72, 0
2, 450, Note_on_c, 0, 66, 90
2, 476, Note_on_c, 0, 66, 0
2, 480, Note_on_c, 0, 67, 90
2, 532, Note_on_c, 0, 67, 0
2, 540, Note_on_c, 0, 62, 90
2, 592, Note_on_c, 0, 62, 0
2, 600, Note_on_c, 0, 67, 90
2, 652, Note_on_c, 0, 67, 0
2, 660, Note_on_c, 0, 70, 90
2, 712, Note_on_c, 0, 70, 0
2, 720, Note_on_c, 0, 74, 90
2, 772, Note_on_c, 0, 74, 0
2, 780, Note_on_c, 0, 67, 90
2, 832, Note_on_c, 0, 67, 0
2, 840, Note_on_c, 0, 72, 90
2, 866, Note_on_c, 0, 72, 0
2, 870, Note_on_c, 0, 77, 90
2, 896, Note_on_c, 0, 77, 0
2, 900, Note_on_c, 0, 75, 90
2, 926, Note_on_c, 0, 75, 0
2, 930, Note_on_c, 0, 74, 90
2, 956, Note_on_c, 0, 74, 0
2, 960, Note_on_c, 0, 72, 90
2, 986, Note_on_c, 0, 72, 0
2, 990, Note_on_c, 0, 74, 90
2, 1016, Note_on_c, 0, 74, 0
2, 1020, Note_on_c, 0, 75, 90
2, 1046, Note_on_c, 0, 75, 0
2, 1050, Note_on_c, 0, 69, 90
2, 1076, Note_on_c, 0, 69, 0
2, 1080, Note_on_c, 0, 67, 90
2, 1106, Note_on_c, 0, 67, 0
2, 1110, Note_on_c, 0, 70, 90
2, 1136, Note_on_c, 0, 70, 0
2, 1140, Note_on_c, 0, 75, 90
2, 1166, Note_on_c, 0, 75, 0
2, 1170, Note_on_c, 0, 67, 90
2, 1196, Note_on_c, 0, 67, 0
2, 1200, Note_on_c, 0, 66, 90
2, 1252, Note_on_c, 0, 66, 0
2, 1260, Note_on_c, 0, 62, 90
2, 1312, Note_on_c, 0, 62, 0
2, 1350, Note_on_c, 0, 70, 90
2, 1376, Note_on_c, 0, 70, 0
2, 1380, Note_on_c, 0, 69, 90
2, 1406, Note_on_c, 0, 69, 0
2, 1410, Note_on_c, 0, 67, 90
2, 1436, Note_on_c, 0, 67, 0
2, 1440, Note_on_c, 0, 66, 90
2, 1466, Note_on_c, 0, 66, 0
2, 1470, Note_on_c, 0, 67, 90
2, 1496, Note_on_c, 0, 67, 0
2, 1500, Note_on_c, 0, 69, 90
2, 1526, Note_on_c, 0, 69, 0
2, 1530, Note_on_c, 0, 62, 90
2, 1556, Note_on_c, 0, 62, 0
2, 1560, Note_on_c, 0, 67, 90
2, 1586, Note_on_c, 0, 67, 0
2, 1590, Note_on_c, 0, 79, 90
2, 1616, Note_on_c, 0, 79, 0
2, 1620, Note_on_c, 0, 77, 90
2, 1646, Note_on_c, 0, 77, 0
2, 1650, Note_on_c, 0, 75, 90
2, 1676, Note_on_c, 0, 75, 0
2, 1680, Note_on_c, 0, 74, 90
2, 1706, Note_on_c, 0, 74, 0
2, 1710, Note_on_c, 0, 75, 90
2, 1736, Note_on_c, 0, 75, 0
2, 1740, Note_on_c, 0, 77, 90
2, 1766, Note_on_c, 0, 77, 0
2, 1770, Note_on_c, 0, 70, 90
2, 1796, Note_on_c, 0, 70, 0
2, 1800, Note_on_c, 0, 69, 90
2, 1826, Note_on_c, 0, 69, 0
2, 1830, Note_on_c, 0, 72, 90
2, 1856, Note_on_c, 0, 72, 0
2, 1860, Note_on_c, 0, 75, 90
2, 1886, Note_on_c, 0, 75, 0
2, 1890, Note_on_c, 0, 69, 90
2, 1916, Note_on_c, 0, 69, 0
2, 1920, Note_on_c, 0, 70, 90
2, 1972, Note_on_c, 0, 70, 0
2, 1980, Note_on_c, 0, 62, 90
2, 2032, Note_on_c, 0, 62, 0
2, 2040, Note_on_c, 0, 65, 90
2, 2092, Note_on_c, 0, 65, 0
2, 2100, Note_on_c, 0, 70, 90
2, 2152, Note_on_c, 0, 70, 0
2, 2160, Note_on_c, 0, 74, 90
2, 2212, Note_on_c, 0, 74, 0
2, 2220, Note_on_c, 0, 62, 90
2, 2272, Note_on_c, 0, 62, 0
2, 2280, Note_on_c, 0, 70, 90
2, 2306, Note_on_c, 0, 70, 0
2, 2310, Note_on_c, 0, 77, 90
2, 2336, Note_on_c, 0, 77, 0
2, 2340, Note_on_c, 0, 75, 90
2, 2366, Note_on_c, 0, 75, 0
2, 2370, Note_on_c, 0, 74, 90
2, 2396, Note_on_c, 0, 74, 0
2, 2400, Note_on_c, 0, 72, 90
2, 2426, Note_on_c, 0, 72, 0
2, 2430, Note_on_c, 0, 74, 90
2, 2456, Note_on_c, 0, 74, 0
2, 2460, Note_on_c, 0, 75, 90
2, 2486, Note_on_c, 0, 75, 0
2, 2490, Note_on_c, 0, 67, 90
2, 2516, Note_on_c, 0, 67, 0
2, 2520, Note_on_c, 0, 65, 90
2, 2546, Note_on_c, 0, 65, 0
2, 2550, Note_on_c, 0, 70, 90
2, 2576, Note_on_c, 0, 70, 0
2, 2580, Note_on_c, 0, 74, 90
2, 2606, Note_on_c, 0, 74, 0
2, 2610, Note_on_c, 0, 65, 90
2, 2636, Note_on_c, 0, 65, 0
2, 2640, Note_on_c, 0, 63, 90
2, 2666, Note_on_c, 0, 63, 0
2, 2670, Note_on_c, 0, 74, 90
2, 2696, Note_on_c, 0, 74, 0
2, 2700, Note_on_c, 0, 72, 90
2, 2726, Note_on_c, 0, 72, 0
2, 2730, Note_on_c, 0, 70, 90
2, 2756, Note_on_c, 0, 70, 0
2, 2760, Note_on_c, 0, 69, 90
2, 2786, Note_on_c, 0, 69, 0
2, 2790, Note_on_c, 0, 70, 90
2, 2816, Note_on_c, 0, 70, 0
2, 2820, Note_on_c, 0, 72, 90
2, 2846, Note_on_c, 0, 72, 0
2, 2850, Note_on_c, 0, 65, 90
2, 2876, Note_on_c, 0, 65, 0
2, 2880, Note_on_c, 0, 63, 90
2, 2906, Note_on_c, 0, 63, 0
2, 2910, Note_on_c, 0, 69, 90
2, 2936, Note_on_c, 0, 69, 0
2, 2940, Note_on_c, 0, 72, 90
2, 2966, Note_on_c, 0, 72, 0
2, 2970, Note_on_c, 0, 63, 90
2, 2996, Note_on_c, 0, 63, 0
2, 3000, Note_on_c, 0, 62, 90
2, 3052, Note_on_c, 0, 62, 0
2, 3060, Note_on_c, 0, 65, 90
2, 3112, Note_on_c, 0, 65, 0
2, 3120, Note_on_c, 0, 70, 90
2, 3172, Note_on_c, 0, 70, 0
2, 3180, Note_on_c, 0, 74, 90
2, 3232, Note_on_c, 0, 74, 0
2, 3240, Note_on_c, 0, 77, 90
2, 3292, Note_on_c, 0, 77, 0
2, 3300, Note_on_c, 0, 72, 90
2, 3352, Note_on_c, 0, 72, 0
2, 3360, Note_on_c, 0, 74, 90
2, 3386, Note_on_c, 0, 74, 0
2, 3390, Note_on_c, 0, 82, 90
2, 3416, Note_on_c, 0, 82, 0
2, 3420, Note_on_c, 0, 81, 90
2, 3446, Note_on_c, 0, 81, 0
2, 3450, Note_on_c, 0, 79, 90
2, 3476, Note_on_c, 0, 79, 0
2, 3480, Note_on_c, 0, 78, 90
2, 3506, Note_on_c, 0, 78, 0
2, 3510, Note_on_c, 0, 79, 90
2, 3536, Note_on_c, 0, 79, 0
2, 3540, Note_on_c, 0, 81, 90
2, 3566, Note_on_c, 0, 81, 0
2, 3570, Note_on_c, 0, 74, 90
2, 3596, Note_on_c, 0, 74, 0
2, 3600, Note_on_c, 0, 72, 90
2, 3626, Note_on_c, 0, 72, 0
2, 3630, Note_on_c, 0, 75, 90
2, 3656, Note_on_c, 0, 75, 0
2, 3660, Note_on_c, 0, 74, 90
2, 3686, Note_on_c, 0, 74, 0
2, 3690, Note_on_c, 0, 72, 90
2, 3716, Note_on_c, 0, 72, 0
2, 3720, Note_on_c, 0, 70, 90
2, 3746, Note_on_c, 0, 70, 0
2, 3750, Note_on_c, 0, 75, 90
2, 3776, Note_on_c, 0, 75, 0
2, 3780, Note_on_c, 0, 74, 90
2, 3806, Note_on_c, 0, 74, 0
2, 3810, Note_on_c, 0, 72, 90
2, 3836, Note_on_c, 0, 72, 0
2, 3840, Note_on_c, 0, 70, 90
2, 3866, Note_on_c, 0, 70, 0
2, 3870, Note_on_c, 0, 72, 90
2, 3896, Note_on_c, 0, 72, 0
2, 3900, Note_on_c, 0, 74, 90
2, 3926, Note_on_c, 0, 74, 0
2, 3930, Note_on_c, 0, 67, 90
2, 3956, Note_on_c, 0, 67, 0
2, 3960, Note_on_c, 0, 66, 90
2, 3986, Note_on_c, 0, 66, 0
2, 3990, Note_on_c, 0, 69, 90
2, 4016, Note_on_c, 0, 69, 0
2, 4020, Note_on_c, 0, 72, 90
2, 4046, Note_on_c, 0, 72, 0
2, 4050, Note_on_c, 0, 66, 90
2, 4076, Note_on_c, 0, 66, 0
2, 4080, Note_on_c, 0, 67, 90
2, 4132, Note_on_c, 0, 67, 0
2, 4140, Note_on_c, 0, 58, 90
2, 4192, Note_on_c, 0, 58, 0
2, 4200, Note_on_c, 0, 62, 90
2, 4252, Note_on_c, 0, 62, 0
2, 4260, Note_on_c, 0, 67, 90
2, 4312, Note_on_c, 0, 67, 0
2, 4320, Note_on_c, 0, 70, 90
2, 4372, Note_on_c, 0, 70, 0
2, 4380, Note_on_c, 0, 67, 90
2, 4432, Note_on_c, 0, 67, 0
2, 4440, Note_on_c, 0, 72, 90
2, 4466, Note_on_c, 0, 72, 0
2, 4470, Note_on_c, 0, 74, 90
2, 4496, Note_on_c, 0, 74, 0
2, 4500, Note_on_c, 0, 72, 90
2, 4526, Note_on_c, 0, 72, 0
2, 4530, Note_on_c, 0, 70, 90
2, 4556, Note_on_c, 0, 70, 0
2, 4560, Note_on_c, 0, 69, 90
2, 4586, Note_on_c, 0, 69, 0
2, 4590, Note_on_c, 0, 70, 90
2, 4616, Note_on_c, 0, 70, 0
2, 4620, Note_on_c, 0, 72, 90
2, 4646, Note_on_c, 0, 72, 0
2, 4650, Note_on_c, 0, 65, 90
2, 4676, Note_on_c, 0, 65, 0
2, 4680, Note_on_c, 0, 64, 90
2, 4706, Note_on_c, 0, 64, 0
2, 4710, Note_on_c, 0, 67, 90
2, 4736, Note_on_c, 0, 67, 0
2, 4740, Note_on_c, 0, 72, 90
2, 4766, Note_on_c, 0, 72, 0
2, 4770, Note_on_c, 0, 64, 90
2, 4796, Note_on_c, 0, 64, 0
2, 4800, Note_on_c, 0, 69, 90
2, 4852, Note_on_c, 0, 69, 0
2, 4860, Note_on_c, 0, 60, 90
2, 4912, Note_on_c, 0, 60, 0
2, 4920, Note_on_c, 0, 65, 90
2, 4972, Note_on_c, 0, 65, 0
2, 4980, Note_on_c, 0, 69, 90
2, 5032, Note_on_c, 0, 69, 0
2, 5040, Note_on_c, 0, 72, 90
2, 5092, Note_on_c, 0, 72, 0
2, 5100, Note_on_c, 0, 67, 90
2, 5152, Note_on_c, 0, 67, 0
2, 5160, Note_on_c, 0, 69, 90
2, 5186, Note_on_c, 0, 69, 0
2, 5190, Note_on_c, 0, 67, 90
2, 5216, Note_on_c, 0, 67, 0
2, 5220, Note_on_c, 0, 69, 90
2, 5246, Note_on_c, 0, 69, 0
2, 5250, Note_on_c, 0, 71, 90
2, 5276, Note_on_c, 0, 71, 0
2, 5280, Note_on_c, 0, 72, 90
2, 5306, Note_on_c, 0, 72, 0
2, 5310, Note_on_c, 0, 71, 90
2, 5336, Note_on_c, 0, 71, 0
2, 5340, Note_on_c, 0, 69, 90
2, 5366, Note_on_c, 0, 69, 0
2, 5370, Note_on_c, 0, 75, 90
2, 5396, Note_on_c, 0, 75, 0
2, 5400, Note_on_c, 0, 77, 90
2, 5426, Note_on_c, 0, 77, 0
2, 5430, Note_on_c, 0, 74, 90
2, 5456, Note_on_c, 0, 74, 0
2, 5460, Note_on_c, 0, 71, 90
2, 5486, Note_on_c, 0, 71, 0
2, 5490, Note_on_c, 0, 77, 90
2, 5516, Note_on_c, 0, 77, 0
2, 5520, Note_on_c, 0, 75, 90
2, 5572, Note_on_c, 0, 75, 0
2, 5580, Note_on_c, 0, 84, 90
2, 5632, Note_on_c, 0, 84, 0
2, 5640, Note_on_c, 0, 79, 90
2, 5692, Note_on_c, 0, 79, 0
2, 5700, Note_on_c, 0, 75, 90
2, 5752, Note_on_c, 0, 75, 0
2, 5760, Note_on_c, 0, 72, 90
2, 5812, Note_on_c, 0, 72, 0
2, 5820, Note_on_c, 0, 80, 90
2, 5872, Note_on_c, 0, 80, 0
2, 5880, Note_on_c, 0, 79, 90
2, 5906, Note_on_c, 0, 79, 0
2, 5910, Note_on_c, 0, 69, 90
2, 5936, Note_on_c, 0, 69, 0
2, 5940, Note_on_c, 0, 71, 90
2, 5966, Note_on_c, 0, 71, 0
2, 5970, Note_on_c, 0, 72, 90
2, 5996, Note_on_c, 0, 72, 0
2, 6000, Note_on_c, 0, 74, 90
2, 6026, Note_on_c, 0, 74, 0
2, 6030, Note_on_c, 0, 72, 90
2, 6056, Note_on_c, 0, 72, 0
2, 6060, Note_on_c, 0, 71, 90
2, 6086, Note_on_c, 0, 71, 0
2, 6090, Note_on_c, 0, 74, 90
2, 6116, Note_on_c, 0, 74, 0
2, 6120, Note_on_c, 0, 75, 90
2, 6146, Note_on_c, 0, 75, 0
2, 6150, Note_on_c, 0, 72, 90
2, 6176, Note_on_c, 0, 72, 0
2, 6180, Note_on_c, 0, 67, 90
2, 6206, Note_on_c, 0, 67, 0
2, 6210, Note_on_c, 0, 75, 90
2, 6236, Note_on_c, 0, 75, 0
2, 6240, Note_on_c, 0, 77, 90
2, 6266, Note_on_c, 0, 77, 0
2, 6270, Note_on_c, 0, 75, 90
2, 6296, Note_on_c, 0, 75, 0
2, 6300, Note_on_c, 0, 74, 90
2, 6326, Note_on_c, 0, 74, 0
2, 6330, Note_on_c, 0, 72, 90
2, 6356, Note_on_c, 0, 72, 0
2, 6360, Note_on_c, 0, 71, 90
2, 6386, Note_on_c, 0, 71, 0
2, 6390, Note_on_c, 0, 72, 90
2, 6416, Note_on_c, 0, 72, 0
2, 6420, Note_on_c, 0, 74, 90
2, 6446, Note_on_c, 0, 74, 0
2, 6450, Note_on_c, 0, 67, 90
2, 6476, Note_on_c, 0, 67, 0
2, 6480, Note_on_c, 0, 65, 90
2, 6506, Note_on_c, 0, 65, 0
2, 6510, Note_on_c, 0, 71, 90
2, 6536, Note_on_c, 0, 71, 0
2, 6540, Note_on_c, 0, 74, 90
2, 6566, Note_on_c, 0, 74, 0
2, 6570, Note_on_c, 0, 65, 90
2, 6596, Note_on_c, 0, 65, 0
2, 6600, Note_on_c, 0, 63, 90
2, 6652, Note_on_c, 0, 63, 0
2, 6660, Note_on_c, 0, 55, 90
2, 6712, Note_on_c, 0, 55, 0
2, 6720, Note_on_c, 0, 60, 90
2, 6772, Note_on_c, 0, 60, 0
2, 6780, Note_on_c, 0, 63, 90
2, 6832, Note_on_c, 0, 63, 0
2, 6840, Note_on_c, 0, 67, 90
2, 6892, Note_on_c, 0, 67, 0
2, 6900, Note_on_c, 0, 62, 90
2, 6952, Note_on_c, 0, 62, 0
2, 6960, Note_on_c, 0, 63, 90
2, 6986, Note_on_c, 0, 63, 0
2, 6990, Note_on_c, 0, 59, 90
2, 7016, Note_on_c, 0, 59, 0
2, 7020, Note_on_c, 0, 60, 90
2, 7046, Note_on_c, 0, 60, 0
2, 7050, Note_on_c, 0, 62, 90
2, 7076, Note_on_c, 0, 62, 0
2, 7080, Note_on_c, 0, 63, 90
2, 7106, Note_on_c, 0, 63, 0
2, 7110, Note_on_c, 0, 62, 90
2, 7136, Note_on_c, 0, 62, 0
2, 7140, Note_on_c, 0, 60, 90
2, 7166, Note_on_c, 0, 60, 0
2, 7170, Note_on_c, 0, 69, 90
2, 7196, Note_on_c, 0, 69, 0
2, 7200, Note_on_c, 0, 71, 90
2, 7226, Note_on_c, 0, 71, 0
2, 7230, Note_on_c, 0, 67, 90
2, 7256, Note_on_c, 0, 67, 0
2, 7260, Note_on_c, 0, 69, 90
2, 7286, Note_on_c, 0, 69, 0
2, 7290, Note_on_c, 0, 71, 90
2, 7316, Note_on_c, 0, 71, 0
2, 7320, Note_on_c, 0, 72, 90
2, 7372, Note_on_c, 0, 72, 0
2, 7380, Note_on_c, 0, 67, 90
2, 7432, Note_on_c, 0, 67, 0
2, 7440, Note_on_c, 0, 72, 90
2, 7492, Note_on_c, 0, 72, 0
2, 7500, Note_on_c, 0, 75, 90
2, 7552, Note_on_c, 0, 75, 0
2, 7560, Note_on_c, 0, 74, 90
2, 7612, Note_on_c, 0, 74, 0
2, 7620, Note_on_c, 0, 72, 90
2, 7672, Note_on_c, 0, 72, 0
2, 7680, Note_on_c, 0, 70, 90
2, 7706, Note_on_c, 0, 70, 0
2, 7710, Note_on_c, 0, 72, 90
2, 7736, Note_on_c, 0, 72, 0
2, 7740, Note_on_c, 0, 70, 90
2, 7766, Note_on_c, 0, 70, 0
2, 7770, Note_on_c, 0, 69, 90
2, 7796, Note_on_c, 0, 69, 0
2, 7800, Note_on_c, 0, 67, 90
2, 7826, Note_on_c, 0, 67, 0
2, 7830, Note_on_c, 0, 69, 90
2, 7856, Note_on_c, 0, 69, 0
2, 7860, Note_on_c, 0, 70, 90
2, 7886, Note_on_c, 0, 70, 0
2, 7890, Note_on_c, 0, 63, 90
2, 7916, Note_on_c, 0, 63, 0
2, 7920, Note_on_c, 0, 62, 90
2, 7946, Note_on_c, 0, 62, 0
2, 7950, Note_on_c, 0, 65, 90
2, 7976, Note_on_c, 0, 65, 0
2, 7980, Note_on_c, 0, 70, 90
2, 8006, Note_on_c, 0, 70, 0
2, 8010, Note_on_c, 0, 62, 90
2, 8036, Note_on_c, 0, 62, 0
2, 8040, Note_on_c, 0, 60, 90
2, 8066, Note_on_c, 0, 60, 0
2, 8070, Note_on_c, 0, 63, 90
2, 8096, Note_on_c, 0, 63, 0
2, 8100, Note_on_c, 0, 65, 90
2, 8126, Note_on_c, 0, 65, 0
2, 8130, Note_on_c, 0, 67, 90
2, 8156, Note_on_c, 0, 67, 0
2, 8160, Note_on_c, 0, 69, 90
2, 8186, Note_on_c, 0, 69, 0
2, 8190, Note_on_c, 0, 67, 90
2, 8216, Note_on_c, 0, 67, 0
2, 8220, Note_on_c, 0, 69, 90
2, 8246, Note_on_c, 0, 69, 0
2, 8250, Note_on_c, 0, 70, 90
2, 8276, Note_on_c, 0, 70, 0
2, 8280, Note_on_c, 0, 72, 90
2, 8306, Note_on_c, 0, 72, 0
2, 8310, Note_on_c, 0, 70, 90
2, 8336, Note_on_c, 0, 70, 0
2, 8340, Note_on_c, 0, 69, 90
2, 8366, Note_on_c, 0, 69, 0
2, 8370, Note_on_c, 0, 67, 90
2, 8396, Note_on_c, 0, 67, 0
2, 8400, Note_on_c, 0, 65, 90
2, 8426, Note_on_c, 0, 65, 0
2, 8430, Note_on_c, 0, 75, 90
2, 8456, Note_on_c, 0, 75, 0
2, 8460, Note_on_c, 0, 74, 90
2, 8486, Note_on_c, 0, 74, 0
2, 8490, Note_on_c, 0, 72, 90
2, 8516, Note_on_c, 0, 72, 0
2, 8520, Note_on_c, 0, 70, 90
2, 8546, Note_on_c, 0, 70, 0
2, 8550, Note_on_c, 0, 72, 90
2, 8576, Note_on_c, 0, 72, 0
2, 8580, Note_on_c, 0, 74, 90
2, 8606, Note_on_c, 0, 74, 0
2, 8610, Note_on_c, 0, 67, 90
2, 8636, Note_on_c, 0, 67, 0
2, 8640, Note_on_c, 0, 66, 90
2, 8666, Note_on_c, 0, 66, 0
2, 8670, Note_on_c, 0, 69, 90
2, 8696, Note_on_c, 0, 69, 0
2, 8700, Note_on_c, 0, 72, 90
2, 8726, Note_on_c, 0, 72, 0
2, 8730, Note_on_c, 0, 66, 90
2, 8756, Note_on_c, 0, 66, 0
2, 8760, Note_on_c, 0, 70, 90
2, 8786, Note_on_c, 0, 70, 0
2, 8790, Note_on_c, 0, 66, 90
2, 8816, Note_on_c, 0, 66, 0
2, 8820, Note_on_c, 0, 67, 90
2, 8846, Note_on_c, 0, 67, 0
2, 8850, Note_on_c, 0, 69, 90
2, 8876, Note_on_c, 0, 69, 0
2, 8880, Note_on_c, 0, 70, 90
2, 8906, Note_on_c, 0, 70, 0
2, 8910, Note_on_c, 0, 69, 90
2, 8936, Note_on_c, 0, 69, 0
2, 8940, Note_on_c, 0, 67, 90
2, 8966, Note_on_c, 0, 67, 0
2, 8970, Note_on_c, 0, 72, 90
2, 8996, Note_on_c, 0, 72, 0
2, 9000, Note_on_c, 0, 74, 90
2, 9026, Note_on_c, 0, 74, 0
2, 9030, Note_on_c, 0, 71, 90
2, 9056, Note_on_c, 0, 71, 0
2, 9060, Note_on_c, 0, 67, 90
2, 9086, Note_on_c, 0, 67, 0
2, 9090, Note_on_c, 0, 71, 90
2, 9116, Note_on_c, 0, 71, 0
2, 9120, Note_on_c, 0, 72, 90
2, 9146, Note_on_c, 0, 72, 0
2, 9150, Note_on_c, 0, 71, 90
2, 9176, Note_on_c, 0, 71, 0
2, 9180, Note_on_c, 0, 72, 90
2, 9206, Note_on_c, 0, 72, 0
2, 9210, Note_on_c, 0, 74, 90
2, 9236, Note_on_c, 0, 74, 0
2, 9240, Note_on_c, 0, 75, 90
2, 9266, Note_on_c, 0, 75, 0
2, 9270, Note_on_c, 0, 74, 90
2, 9296, Note_on_c, 0, 74, 0
2, 9300, Note_on_c, 0, 72, 90
2, 9326, Note_on_c, 0, 72, 0
2, 9330, Note_on_c, 0, 78, 90
2, 9356, Note_on_c, 0, 78, 0
2, 9360, Note_on_c, 0, 79, 90
2, 9386, Note_on_c, 0, 79, 0
2, 9390, Note_on_c, 0, 74, 90
2, 9416, Note_on_c, 0, 74, 0
2, 9420, Note_on_c, 0, 70, 90
2, 9446, Note_on_c, 0, 70, 0
2, 9450, Note_on_c, 0, 79, 90
2, 9476, Note_on_c, 0, 79, 0
2, 9480, Note_on_c, 0, 69, 90
2, 9506, Note_on_c, 0, 69, 0
2, 9510, Note_on_c, 0, 77, 90
2, 9536, Note_on_c, 0, 77, 0
2, 9540, Note_on_c, 0, 75, 90
2, 9566, Note_on_c, 0, 75, 0
2, 9570, Note_on_c, 0, 74, 90
2, 9596, Note_on_c, 0, 74, 0
2, 9600, Note_on_c, 0, 72, 90
2, 9626, Note_on_c, 0, 72, 0
2, 9630, Note_on_c, 0, 74, 90
2, 9656, Note_on_c, 0, 74, 0
2, 9660, Note_on_c, 0, 75, 90
2, 9686, Note_on_c, 0, 75, 0
2, 9690, Note_on_c, 0, 69, 90
2, 9716, Note_on_c, 0, 69, 0
2, 9720, Note_on_c, 0, 67, 90
2, 9746, Note_on_c, 0, 67, 0
2, 9750, Note_on_c, 0, 70, 90
2, 9776, Note_on_c, 0, 70, 0
2, 9780, Note_on_c, 0, 75, 90
2, 9806, Note_on_c, 0, 75, 0
2, 9810, Note_on_c, 0, 67, 90
2, 9836, Note_on_c, 0, 67, 0
2, 9840, Note_on_c, 0, 66, 90
2, 9866, Note_on_c, 0, 66, 0
2, 9870, Note_on_c, 0, 74, 90
2, 9896, Note_on_c, 0, 74, 0
2, 9900, Note_on_c, 0, 72, 90
2, 9926, Note_on_c, 0, 72, 0
2, 9930, Note_on_c, 0, 70, 90
2, 9956, Note_on_c, 0, 70, 0
2, 9960, Note_on_c, 0, 69, 90
2, 9986, Note_on_c, 0, 69, 0
2, 9990, Note_on_c, 0, 70, 90
2, 10016, Note_on_c, 0, 70, 0
2, 10020, Note_on_c, 0, 72, 90
2, 10046, Note_on_c, 0, 72, 0
2, 10050, Note_on_c, 0, 67, 90
2, 10076, Note_on_c, 0, 67, 0
2, 10080, Note_on_c, 0, 65, 90
2, 10106, Note_on_c, 0, 65, 0
2, 10110, Note_on_c, 0, 69, 90
2, 10136, Note_on_c, 0, 69, 0
2, 10140, Note_on_c, 0, 72, 90
2, 10166, Note_on_c, 0, 72, 0
2, 10170, Note_on_c, 0, 65, 90
2, 10196, Note_on_c, 0, 65, 0
2, 10200, Note_on_c, 0, 71, 90
2, 10226, Note_on_c, 0, 71, 0
2, 10230, Note_on_c, 0, 68, 90
2, 10256, Note_on_c, 0, 68, 0
2, 10260, Note_on_c, 0, 67, 90
2, 10286, Note_on_c, 0, 67, 0
2, 10290, Note_on_c, 0, 65, 90
2, 10316, Note_on_c, 0, 65, 0
2, 10320, Note_on_c, 0, 63, 90
2, 10346, Note_on_c, 0, 63, 0
2, 10350, Note_on_c, 0, 65, 90
2, 10376, Note_on_c, 0, 65, 0
2, 10380, Note_on_c, 0, 67, 90
2, 10406, Note_on_c, 0, 67, 0
2, 10410, Note_on_c, 0, 60, 90
2, 10436, Note_on_c, 0, 60, 0
2, 10440, Note_on_c, 0, 59, 90
2, 10466, Note_on_c, 0, 59, 0
2, 10470, Note_on_c, 0, 62, 90
2, 10496, Note_on_c, 0, 62, 0
2, 10500, Note_on_c, 0, 65, 90
2, 10526, Note_on_c, 0, 65, 0
2, 10530, Note_on_c, 0, 59, 90
2, 10556, Note_on_c, 0, 59, 0
2, 10560, Note_on_c, 0, 60, 90
2, 10586, Note_on_c, 0, 60, 0
2, 10590, Note_on_c, 0, 59, 90
2, 10616, Note_on_c, 0, 59, 0
2, 10620, Note_on_c, 0, 60, 90
2, 10646, Note_on_c, 0, 60, 0
2, 10650, Note_on_c, 0, 62, 90
2, 10676, Note_on_c, 0, 62, 0
2, 10680, Note_on_c, 0, 63, 90
2, 10706, Note_on_c, 0, 63, 0
2, 10710, Note_on_c, 0, 62, 90
2, 10736, Note_on_c, 0, 62, 0
2, 10740, Note_on_c, 0, 60, 90
2, 10766, Note_on_c, 0, 60, 0
2, 10770, Note_on_c, 0, 67, 90
2, 10796, Note_on_c, 0, 67, 0
2, 10800, Note_on_c, 0, 69, 90
2, 10826, Note_on_c, 0, 69, 0
2, 10830, Note_on_c, 0, 66, 90
2, 10856, Note_on_c, 0, 66, 0
2, 10860, Note_on_c, 0, 60, 90
2, 10886, Note_on_c, 0, 60, 0
2, 10890, Note_on_c, 0, 69, 90
2, 10916, Note_on_c, 0, 69, 0
2, 10920, Note_on_c, 0, 71, 90
2, 10946, Note_on_c, 0, 71, 0
2, 10950, Note_on_c, 0, 67, 90
2, 10976, Note_on_c, 0, 67, 0
2, 10980, Note_on_c, 0, 69, 90
2, 11006, Note_on_c, 0, 69, 0
2, 11010, Note_on_c, 0, 71, 90
2, 11036, Note_on_c, 0, 71, 0
2, 11040, Note_on_c, 0, 72, 90
2, 11066, Note_on_c, 0, 72, 0
2, 11070, Note_on_c, 0, 71, 90
2, 11096, Note_on_c, 0, 71, 0
2, 11100, Note_on_c, 0, 69, 90
2, 11126, Note_on_c, 0, 69, 0
2, 11130, Note_on_c, 0, 74, 90
2, 11156, Note_on_c, 0, 74, 0
2, 11160, Note_on_c, 0, 75, 90
2, 11186, Note_on_c, 0, 75, 0
2, 11190, Note_on_c, 0, 72, 90
2, 11216, Note_on_c, 0, 72, 0
2, 11220, Note_on_c, 0, 69, 90
2, 11246, Note_on_c, 0, 69, 0
2, 11250, Note_on_c, 0, 78, 90
2, 11276, Note_on_c, 0, 78, 0
2, 11280, Note_on_c, 0, 79, 90
2, 11426, Note_on_c, 0, 79, 0
2, 11430, Note_on_c, 0, 74, 90
2, 11456, Note_on_c, 0, 74, 0
2, 11460, Note_on_c, 0, 71, 90
2, 11486, Note_on_c, 0, 71, 0
2, 11490, Note_on_c, 0, 66, 90
2, 11516, Note_on_c, 0, 66, 0
2, 11520, Note_on_c, 0, 67, 90
2, 11640, Note_on_c, 0, 67, 0
2, 11640, End_track
3, 0, Start_track
3, 0, MIDI_port, 0
3, 0, Title_t, "Acoustic Bass"
3, 0, Program_c, 1, 32
3, 0, Control_c, 1, 7, 90
3, 0, Control_c, 1, 10, 126
3, 40, Control_c, 1, 7, 89
3, 180, Note_on_c, 1, 38, 90
3, 232, Note_on_c, 1, 38, 0
3, 240, Note_on_c, 1, 43, 90
3, 292, Note_on_c, 1, 43, 0
3, 300, Note_on_c, 1, 46, 90
3, 352, Note_on_c, 1, 46, 0
3, 360, Note_on_c, 1, 50, 90
3, 412, Note_on_c, 1, 50, 0
3, 420, Note_on_c, 1, 38, 90
3, 472, Note_on_c, 1, 38, 0
3, 480, Note_on_c, 1, 43, 90
3, 506, Note_on_c, 1, 43, 0
3, 510, Note_on_c, 1, 51, 90
3, 536, Note_on_c, 1, 51, 0
3, 540, Note_on_c, 1, 50, 90
3, 566, Note_on_c, 1, 50, 0
3, 570, Note_on_c, 1, 48, 90
3, 596, Note_on_c, 1, 48, 0
3, 600, Note_on_c, 1, 46, 90
3, 626, Note_on_c, 1, 46, 0
3, 630, Note_on_c, 1, 48, 90
3, 656, Note_on_c, 1, 48, 0
3, 660, Note_on_c, 1, 50, 90
3, 686, Note_on_c, 1, 50, 0
3, 690, Note_on_c, 1, 43, 90
3, 716, Note_on_c, 1, 43, 0
3, 720, Note_on_c, 1, 41, 90
3, 746, Note_on_c, 1, 41, 0
3, 750, Note_on_c, 1, 43, 90
3, 776, Note_on_c, 1, 43, 0
3, 780, Note_on_c, 1, 50, 90
3, 806, Note_on_c, 1, 50, 0
3, 810, Note_on_c, 1, 41, 90
3, 836, Note_on_c, 1, 41, 0
3, 840, Note_on_c, 1, 39, 90
3, 892, Note_on_c, 1, 39, 0
3, 900, Note_on_c, 1, 36, 90
3, 952, Note_on_c, 1, 36, 0
3, 960, Note_on_c, 1, 39, 90
3, 1012, Note_on_c, 1, 39, 0
3, 1020, Note_on_c, 1, 43, 90
3, 1072, Note_on_c, 1, 43, 0
3, 1080, Note_on_c, 1, 48, 90
3, 1132, Note_on_c, 1, 48, 0
3, 1140, Note_on_c, 1, 36, 90
3, 1192, Note_on_c, 1, 36, 0
3, 1200, Note_on_c, 1, 38, 90
3, 1226, Note_on_c, 1, 38, 0
3, 1230, Note_on_c, 1, 58, 90
3, 1256, Note_on_c, 1, 58, 0
3, 1260, Note_on_c, 1, 57, 90
3, 1286, Note_on_c, 1, 57, 0
3, 1290, Note_on_c, 1, 55, 90
3, 1316, Note_on_c, 1, 55, 0
3, 1320, Note_on_c, 1, 54, 90
3, 1346, Note_on_c, 1, 54, 0
3, 1350, Note_on_c, 1, 55, 90
3, 1376, Note_on_c, 1, 55, 0
3, 1380, Note_on_c, 1, 57, 90
3, 1406, Note_on_c, 1, 57, 0
3, 1410, Note_on_c, 1, 50, 90
3, 1436, Note_on_c, 1, 50, 0
3, 1440, Note_on_c, 1, 48, 90
3, 1466, Note_on_c, 1, 48, 0
3, 1470, Note_on_c, 1, 51, 90
3, 1496, Note_on_c, 1, 51, 0
3, 1500, Note_on_c, 1, 50, 90
3, 1526, Note_on_c, 1, 50, 0
3, 1530, Note_on_c, 1, 48, 90
3, 1556, Note_on_c, 1, 48, 0
3, 1560, Note_on_c, 1, 46, 90
3, 1612, Note_on_c, 1, 46, 0
3, 1620, Note_on_c, 1, 43, 90
3, 1672, Note_on_c, 1, 43, 0
3, 1680, Note_on_c, 1, 46, 90
3, 1732, Note_on_c, 1, 46, 0
3, 1740, Note_on_c, 1, 50, 90
3, 1792, Note_on_c, 1, 50, 0
3, 1800, Note_on_c, 1, 53, 90
3, 1852, Note_on_c, 1, 53, 0
3, 1860, Note_on_c, 1, 41, 90
3, 1912, Note_on_c, 1, 41, 0
3, 1920, Note_on_c, 1, 46, 90
3, 1946, Note_on_c, 1, 46, 0
3, 1950, Note_on_c, 1, 55, 90
3, 1976, Note_on_c, 1, 55, 0
3, 1980, Note_on_c, 1, 53, 90
3, 2006, Note_on_c, 1, 53, 0
3, 2010, Note_on_c, 1, 51, 90
3, 2036, Note_on_c, 1, 51, 0
3, 2040, Note_on_c, 1, 50, 90
3, 2066, Note_on_c, 1, 50, 0
3, 2070, Note_on_c, 1, 51, 90
3, 2096, Note_on_c, 1, 51, 0
3, 2100, Note_on_c, 1, 53, 90
3, 2126, Note_on_c, 1, 53, 0
3, 2130, Note_on_c, 1, 46, 90
3, 2156, Note_on_c, 1, 46, 0
3, 2160, Note_on_c, 1, 44, 90
3, 2186, Note_on_c, 1, 44, 0
3, 2190, Note_on_c, 1, 50, 90
3, 2216, Note_on_c, 1, 50, 0
3, 2220, Note_on_c, 1, 53, 90
3, 2246, Note_on_c, 1, 53, 0
3, 2250, Note_on_c, 1, 44, 90
3, 2276, Note_on_c, 1, 44, 0
3, 2280, Note_on_c, 1, 43, 90
3, 2332, Note_on_c, 1, 43, 0
3, 2340, Note_on_c, 1, 36, 90
3, 2392, Note_on_c, 1, 36, 0
3, 2400, Note_on_c, 1, 39, 90
3, 2452, Note_on_c, 1, 39, 0
3, 2460, Note_on_c, 1, 43, 90
3, 2512, Note_on_c, 1, 43, 0
3, 2520, Note_on_c, 1, 46, 90
3, 2572, Note_on_c, 1, 46, 0
3, 2580, Note_on_c, 1, 43, 90
3, 2632, Note_on_c, 1, 43, 0
3, 2640, Note_on_c, 1, 48, 90
3, 2692, Note_on_c, 1, 48, 0
3, 2700, Note_on_c, 1, 39, 90
3, 2752, Note_on_c, 1, 39, 0
3, 2760, Note_on_c, 1, 41, 90
3, 2812, Note_on_c, 1, 41, 0
3, 2820, Note_on_c, 1, 45, 90
3, 2872, Note_on_c, 1, 45, 0
3, 2880, Note_on_c, 1, 48, 90
3, 2932, Note_on_c, 1, 48, 0
3, 2940, Note_on_c, 1, 41, 90
3, 2992, Note_on_c, 1, 41, 0
3, 3000, Note_on_c, 1, 46, 90
3, 3026, Note_on_c, 1, 46, 0
3, 3030, Note_on_c, 1, 55, 90
3, 3056, Note_on_c, 1, 55, 0
3, 3060, Note_on_c, 1, 53, 90
3, 3086, Note_on_c, 1, 53, 0
3, 3090, Note_on_c, 1, 51, 90
3, 3116, Note_on_c, 1, 51, 0
3, 3120, Note_on_c, 1, 50, 90
3, 3146, Note_on_c, 1, 50, 0
3, 3150, Note_on_c, 1, 51, 90
3, 3176, Note_on_c, 1, 51, 0
3, 3180, Note_on_c, 1, 53, 90
3, 3206, Note_on_c, 1, 53, 0
3, 3210, Note_on_c, 1, 46, 90
3, 3236, Note_on_c, 1, 46, 0
3, 3240, Note_on_c, 1, 45, 90
3, 3266, Note_on_c, 1, 45, 0
3, 3270, Note_on_c, 1, 48, 90
3, 3296, Note_on_c, 1, 48, 0
3, 3300, Note_on_c, 1, 51, 90
3, 3326, Note_on_c, 1, 51, 0
3, 3330, Note_on_c, 1, 45, 90
3, 3356, Note_on_c, 1, 45, 0
3, 3360, Note_on_c, 1, 46, 90
3, 3412, Note_on_c, 1, 46, 0
3, 3420, Note_on_c, 1, 48, 90
3, 3472, Note_on_c, 1, 48, 0
3, 3480, Note_on_c, 1, 50, 90
3, 3506, Note_on_c, 1, 50, 0
3, 3510, Note_on_c, 1, 58, 90
3, 3536, Note_on_c, 1, 58, 0
3, 3540, Note_on_c, 1, 57, 90
3, 3566, Note_on_c, 1, 57, 0
3, 3570, Note_on_c, 1, 55, 90
3, 3596, Note_on_c, 1, 55, 0
3, 3600, Note_on_c, 1, 54, 90
3, 3626, Note_on_c, 1, 54, 0
3, 3630, Note_on_c, 1, 55, 90
3, 3656, Note_on_c, 1, 55, 0
3, 3660, Note_on_c, 1, 57, 90
3, 3686, Note_on_c, 1, 57, 0
3, 3690, Note_on_c, 1, 50, 90
3, 3716, Note_on_c, 1, 50, 0
3, 3720, Note_on_c, 1, 55, 90
3, 3772, Note_on_c, 1, 55, 0
3, 3780, Note_on_c, 1, 50, 90
3, 3832, Note_on_c, 1, 50, 0
3, 3840, Note_on_c, 1, 55, 90
3, 3892, Note_on_c, 1, 55, 0
3, 3900, Note_on_c, 1, 58, 90
3, 3952, Note_on_c, 1, 58, 0
3, 3960, Note_on_c, 1, 62, 90
3, 4012, Note_on_c, 1, 62, 0
3, 4020, Note_on_c, 1, 57, 90
3, 4072, Note_on_c, 1, 57, 0
3, 4080, Note_on_c, 1, 58, 90
3, 4106, Note_on_c, 1, 58, 0
3, 4110, Note_on_c, 1, 63, 90
3, 4136, Note_on_c, 1, 63, 0
3, 4140, Note_on_c, 1, 62, 90
3, 4166, Note_on_c, 1, 62, 0
3, 4170, Note_on_c, 1, 60, 90
3, 4196, Note_on_c, 1, 60, 0
3, 4200, Note_on_c, 1, 58, 90
3, 4226, Note_on_c, 1, 58, 0
3, 4230, Note_on_c, 1, 60, 90
3, 4256, Note_on_c, 1, 60, 0
3, 4260, Note_on_c, 1, 62, 90
3, 4286, Note_on_c, 1, 62, 0
3, 4290, Note_on_c, 1, 55, 90
3, 4316, Note_on_c, 1, 55, 0
3, 4320, Note_on_c, 1, 53, 90
3, 4346, Note_on_c, 1, 53, 0
3, 4350, Note_on_c, 1, 55, 90
3, 4376, Note_on_c, 1, 55, 0
3, 4380, Note_on_c, 1, 62, 90
3, 4406, Note_on_c, 1, 62, 0
3, 4410, Note_on_c, 1, 53, 90
3, 4436, Note_on_c, 1, 53, 0
3, 4440, Note_on_c, 1, 52, 90
3, 4492, Note_on_c, 1, 52, 0
3, 4500, Note_on_c, 1, 48, 90
3, 4552, Note_on_c, 1, 48, 0
3, 4560, Note_on_c, 1, 53, 90
3, 4612, Note_on_c, 1, 53, 0
3, 4620, Note_on_c, 1, 57, 90
3, 4672, Note_on_c, 1, 57, 0
3, 4680, Note_on_c, 1, 55, 90
3, 4706, Note_on_c, 1, 55, 0
3, 4710, Note_on_c, 1, 58, 90
3, 4736, Note_on_c, 1, 58, 0
3, 4740, Note_on_c, 1, 57, 90
3, 4766, Note_on_c, 1, 57, 0
3, 4770, Note_on_c, 1, 55, 90
3, 4796, Note_on_c, 1, 55, 0
3, 4800, Note_on_c, 1, 53, 90
3, 4826, Note_on_c, 1, 53, 0
3, 4830, Note_on_c, 1, 50, 90
3, 4856, Note_on_c, 1, 50, 0
3, 4860, Note_on_c, 1, 48, 90
3, 4886, Note_on_c, 1, 48, 0
3, 4890, Note_on_c, 1, 46, 90
3, 4916, Note_on_c, 1, 46, 0
3, 4920, Note_on_c, 1, 45, 90
3, 4946, Note_on_c, 1, 45, 0
3, 4950, Note_on_c, 1, 46, 90
3, 4976, Note_on_c, 1, 46, 0
3, 4980, Note_on_c, 1, 48, 90
3, 5006, Note_on_c, 1, 48, 0
3, 5010, Note_on_c, 1, 41, 90
3, 5036, Note_on_c, 1, 41, 0
3, 5040, Note_on_c, 1, 40, 90
3, 5066, Note_on_c, 1, 40, 0
3, 5070, Note_on_c, 1, 43, 90
3, 5096, Note_on_c, 1, 43, 0
3, 5100, Note_on_c, 1, 46, 90
3, 5126, Note_on_c, 1, 46, 0
3, 5130, Note_on_c, 1, 40, 90
3, 5156, Note_on_c, 1, 40, 0
3, 5160, Note_on_c, 1, 53, 90
3, 5212, Note_on_c, 1, 53, 0
3, 5220, Note_on_c, 1, 48, 90
3, 5272, Note_on_c, 1, 48, 0
3, 5280, Note_on_c, 1, 45, 90
3, 5332, Note_on_c, 1, 45, 0
3, 5340, Note_on_c, 1, 41, 90
3, 5392, Note_on_c, 1, 41, 0
3, 5400, Note_on_c, 1, 38, 90
3, 5452, Note_on_c, 1, 38, 0
3, 5460, Note_on_c, 1, 43, 90
3, 5512, Note_on_c, 1, 43, 0
3, 5520, Note_on_c, 1, 36, 90
3, 5546, Note_on_c, 1, 36, 0
3, 5550, Note_on_c, 1, 47, 90
3, 5576, Note_on_c, 1, 47, 0
3, 5580, Note_on_c, 1, 48, 90
3, 5606, Note_on_c, 1, 48, 0
3, 5610, Note_on_c, 1, 50, 90
3, 5636, Note_on_c, 1, 50, 0
3, 5640, Note_on_c, 1, 51, 90
3, 5666, Note_on_c, 1, 51, 0
3, 5670, Note_on_c, 1, 50, 90
3, 5696, Note_on_c, 1, 50, 0
3, 5700, Note_on_c, 1, 48, 90
3, 5726, Note_on_c, 1, 48, 0
3, 5730, Note_on_c, 1, 55, 90
3, 5756, Note_on_c, 1, 55, 0
3, 5760, Note_on_c, 1, 56, 90
3, 5786, Note_on_c, 1, 56, 0
3, 5790, Note_on_c, 1, 53, 90
3, 5816, Note_on_c, 1, 53, 0
3, 5820, Note_on_c, 1, 48, 90
3, 5846, Note_on_c, 1, 48, 0
3, 5850, Note_on_c, 1, 56, 90
3, 5876, Note_on_c, 1, 56, 0
3, 5880, Note_on_c, 1, 47, 90
3, 5932, Note_on_c, 1, 47, 0
3, 5940, Note_on_c, 1, 62, 90
3, 5992, Note_on_c, 1, 62, 0
3, 6000, Note_on_c, 1, 59, 90
3, 6052, Note_on_c, 1, 59, 0
3, 6060, Note_on_c, 1, 55, 90
3, 6112, Note_on_c, 1, 55, 0
3, 6120, Note_on_c, 1, 51, 90
3, 6172, Note_on_c, 1, 51, 0
3, 6180, Note_on_c, 1, 56, 90
3, 6232, Note_on_c, 1, 56, 0
3, 6240, Note_on_c, 1, 50, 90
3, 6292, Note_on_c, 1, 50, 0
3, 6300, Note_on_c, 1, 53, 90
3, 6352, Note_on_c, 1, 53, 0
3, 6360, Note_on_c, 1, 55, 90
3, 6412, Note_on_c, 1, 55, 0
3, 6420, Note_on_c, 1, 53, 90
3, 6472, Note_on_c, 1, 53, 0
3, 6480, Note_on_c, 1, 55, 90
3, 6532, Note_on_c, 1, 55, 0
3, 6540, Note_on_c, 1, 43, 90
3, 6592, Note_on_c, 1, 43, 0
3, 6600, Note_on_c, 1, 48, 90
3, 6626, Note_on_c, 1, 48, 0
3, 6630, Note_on_c, 1, 56, 90
3, 6656, Note_on_c, 1, 56, 0
3, 6660, Note_on_c, 1, 55, 90
3, 6686, Note_on_c, 1, 55, 0
3, 6690, Note_on_c, 1, 53, 90
3, 6716, Note_on_c, 1, 53, 0
3, 6720, Note_on_c, 1, 51, 90
3, 6746, Note_on_c, 1, 51, 0
3, 6750, Note_on_c, 1, 53, 90
3, 6776, Note_on_c, 1, 53, 0
3, 6780, Note_on_c, 1, 55, 90
3, 6806, Note_on_c, 1, 55, 0
3, 6810, Note_on_c, 1, 48, 90
3, 6836, Note_on_c, 1, 48, 0
3, 6840, Note_on_c, 1, 47, 90
3, 6866, Note_on_c, 1, 47, 0
3, 6870, Note_on_c, 1, 50, 90
3, 6896, Note_on_c, 1, 50, 0
3, 6900, Note_on_c, 1, 53, 90
3, 6926, Note_on_c, 1, 53, 0
3, 6930, Note_on_c, 1, 47, 90
3, 6956, Note_on_c, 1, 47, 0
3, 6960, Note_on_c, 1, 48, 90
3, 7012, Note_on_c, 1, 48, 0
3, 7020, Note_on_c, 1, 36, 90
3, 7072, Note_on_c, 1, 36, 0
3, 7110, Note_on_c, 1, 50, 90
3, 7136, Note_on_c, 1, 50, 0
3, 7140, Note_on_c, 1, 51, 90
3, 7166, Note_on_c, 1, 51, 0
3, 7170, Note_on_c, 1, 53, 90
3, 7196, Note_on_c, 1, 53, 0
3, 7200, Note_on_c, 1, 55, 90
3, 7226, Note_on_c, 1, 55, 0
3, 7230, Note_on_c, 1, 53, 90
3, 7256, Note_on_c, 1, 53, 0
3, 7260, Note_on_c, 1, 51, 90
3, 7286, Note_on_c, 1, 51, 0
3, 7290, Note_on_c, 1, 50, 90
3, 7316, Note_on_c, 1, 50, 0
3, 7320, Note_on_c, 1, 51, 90
3, 7346, Note_on_c, 1, 51, 0
3, 7350, Note_on_c, 1, 50, 90
3, 7376, Note_on_c, 1, 50, 0
3, 7380, Note_on_c, 1, 48, 90
3, 7406, Note_on_c, 1, 48, 0
3, 7410, Note_on_c, 1, 46, 90
3, 7436, Note_on_c, 1, 46, 0
3, 7440, Note_on_c, 1, 45, 90
3, 7466, Note_on_c, 1, 45, 0
3, 7470, Note_on_c, 1, 46, 90
3, 7496, Note_on_c, 1, 46, 0
3, 7500, Note_on_c, 1, 48, 90
3, 7526, Note_on_c, 1, 48, 0
3, 7530, Note_on_c, 1, 43, 90
3, 7556, Note_on_c, 1, 43, 0
3, 7560, Note_on_c, 1, 42, 90
3, 7586, Note_on_c, 1, 42, 0
3, 7590, Note_on_c, 1, 45, 90
3, 7616, Note_on_c, 1, 45, 0
3, 7620, Note_on_c, 1, 50, 90
3, 7646, Note_on_c, 1, 50, 0
3, 7650, Note_on_c, 1, 42, 90
3, 7676, Note_on_c, 1, 42, 0
3, 7680, Note_on_c, 1, 43, 90
3, 7706, Note_on_c, 1, 43, 0
3, 7710, Note_on_c, 1, 38, 90
3, 7736, Note_on_c, 1, 38, 0
3, 7740, Note_on_c, 1, 40, 90
3, 7766, Note_on_c, 1, 40, 0
3, 7770, Note_on_c, 1, 42, 90
3, 7796, Note_on_c, 1, 42, 0
3, 7800, Note_on_c, 1, 43, 90
3, 7826, Note_on_c, 1, 43, 0
3, 7830, Note_on_c, 1, 42, 90
3, 7856, Note_on_c, 1, 42, 0
3, 7860, Note_on_c, 1, 43, 90
3, 7886, Note_on_c, 1, 43, 0
3, 7890, Note_on_c, 1, 45, 90
3, 7916, Note_on_c, 1, 45, 0
3, 7920, Note_on_c, 1, 46, 90
3, 7946, Note_on_c, 1, 46, 0
3, 7950, Note_on_c, 1, 45, 90
3, 7976, Note_on_c, 1, 45, 0
3, 7980, Note_on_c, 1, 43, 90
3, 8006, Note_on_c, 1, 43, 0
3, 8010, Note_on_c, 1, 41, 90
3, 8036, Note_on_c, 1, 41, 0
3, 8040, Note_on_c, 1, 39, 90
3, 8066, Note_on_c, 1, 39, 0
3, 8070, Note_on_c, 1, 53, 90
3, 8096, Note_on_c, 1, 53, 0
3, 8100, Note_on_c, 1, 51, 90
3, 8126, Note_on_c, 1, 51, 0
3, 8130, Note_on_c, 1, 50, 90
3, 8156, Note_on_c, 1, 50, 0
3, 8160, Note_on_c, 1, 48, 90
3, 8186, Note_on_c, 1, 48, 0
3, 8190, Note_on_c, 1, 50, 90
3, 8216, Note_on_c, 1, 50, 0
3, 8220, Note_on_c, 1, 51, 90
3, 8246, Note_on_c, 1, 51, 0
3, 8250, Note_on_c, 1, 46, 90
3, 8276, Note_on_c, 1, 46, 0
3, 8280, Note_on_c, 1, 45, 90
3, 8306, Note_on_c, 1, 45, 0
3, 8310, Note_on_c, 1, 48, 90
3, 8336, Note_on_c, 1, 48, 0
3, 8340, Note_on_c, 1, 51, 90
3, 8366, Note_on_c, 1, 51, 0
3, 8370, Note_on_c, 1, 45, 90
3, 8396, Note_on_c, 1, 45, 0
3, 8400, Note_on_c, 1, 46, 90
3, 8426, Note_on_c, 1, 46, 0
3, 8430, Note_on_c, 1, 48, 90
3, 8456, Note_on_c, 1, 48, 0
3, 8460, Note_on_c, 1, 46, 90
3, 8486, Note_on_c, 1, 46, 0
3, 8490, Note_on_c, 1, 45, 90
3, 8516, Note_on_c, 1, 45, 0
3, 8520, Note_on_c, 1, 43, 90
3, 8546, Note_on_c, 1, 43, 0
3, 8550, Note_on_c, 1, 45, 90
3, 8576, Note_on_c, 1, 45, 0
3, 8580, Note_on_c, 1, 46, 90
3, 8606, Note_on_c, 1, 46, 0
3, 8610, Note_on_c, 1, 48, 90
3, 8636, Note_on_c, 1, 48, 0
3, 8640, Note_on_c, 1, 50, 90
3, 8666, Note_on_c, 1, 50, 0
3, 8670, Note_on_c, 1, 52, 90
3, 8696, Note_on_c, 1, 52, 0
3, 8700, Note_on_c, 1, 54, 90
3, 8726, Note_on_c, 1, 54, 0
3, 8730, Note_on_c, 1, 50, 90
3, 8756, Note_on_c, 1, 50, 0
3, 8760, Note_on_c, 1, 55, 90
3, 8786, Note_on_c, 1, 55, 0
3, 8790, Note_on_c, 1, 51, 90
3, 8816, Note_on_c, 1, 51, 0
3, 8820, Note_on_c, 1, 50, 90
3, 8846, Note_on_c, 1, 50, 0
3, 8850, Note_on_c, 1, 48, 90
3, 8876, Note_on_c, 1, 48, 0
3, 8880, Note_on_c, 1, 46, 90
3, 8906, Note_on_c, 1, 46, 0
3, 8910, Note_on_c, 1, 48, 90
3, 8936, Note_on_c, 1, 48, 0
3, 8940, Note_on_c, 1, 50, 90
3, 8966, Note_on_c, 1, 50, 0
3, 8970, Note_on_c, 1, 43, 90
3, 8996, Note_on_c, 1, 43, 0
3, 9000, Note_on_c, 1, 41, 90
3, 9026, Note_on_c, 1, 41, 0
3, 9030, Note_on_c, 1, 43, 90
3, 9056, Note_on_c, 1, 43, 0
3, 9060, Note_on_c, 1, 50, 90
3, 9086, Note_on_c, 1, 50, 0
3, 9090, Note_on_c, 1, 41, 90
3, 9116, Note_on_c, 1, 41, 0
3, 9120, Note_on_c, 1, 39, 90
3, 9146, Note_on_c, 1, 39, 0
3, 9150, Note_on_c, 1, 56, 90
3, 9176, Note_on_c, 1, 56, 0
3, 9180, Note_on_c, 1, 55, 90
3, 9206, Note_on_c, 1, 55, 0
3, 9210, Note_on_c, 1, 53, 90
3, 9236, Note_on_c, 1, 53, 0
3, 9240, Note_on_c, 1, 51, 90
3, 9266, Note_on_c, 1, 51, 0
3, 9270, Note_on_c, 1, 53, 90
3, 9296, Note_on_c, 1, 53, 0
3, 9300, Note_on_c, 1, 55, 90
3, 9326, Note_on_c, 1, 55, 0
3, 9330, Note_on_c, 1, 48, 90
3, 9356, Note_on_c, 1, 48, 0
3, 9360, Note_on_c, 1, 46, 90
3, 9386, Note_on_c, 1, 46, 0
3, 9390, Note_on_c, 1, 50, 90
3, 9416, Note_on_c, 1, 50, 0
3, 9420, Note_on_c, 1, 55, 90
3, 9446, Note_on_c, 1, 55, 0
3, 9450, Note_on_c, 1, 46, 90
3, 9476, Note_on_c, 1, 46, 0
3, 9480, Note_on_c, 1, 51, 90
3, 9532, Note_on_c, 1, 51, 0
3, 9540, Note_on_c, 1, 48, 90
3, 9592, Note_on_c, 1, 48, 0
3, 9600, Note_on_c, 1, 45, 90
3, 9652, Note_on_c, 1, 45, 0
3, 9660, Note_on_c, 1, 48, 90
3, 9712, Note_on_c, 1, 48, 0
3, 9720, Note_on_c, 1, 51, 90
3, 9772, Note_on_c, 1, 51, 0
3, 9780, Note_on_c, 1, 48, 90
3, 9832, Note_on_c, 1, 48, 0
3, 9840, Note_on_c, 1, 50, 90
3, 9892, Note_on_c, 1, 50, 0
3, 9900, Note_on_c, 1, 38, 90
3, 9952, Note_on_c, 1, 38, 0
3, 9960, Note_on_c, 1, 42, 90
3, 10012, Note_on_c, 1, 42, 0
3, 10020, Note_on_c, 1, 45, 90
3, 10072, Note_on_c, 1, 45, 0
3, 10080, Note_on_c, 1, 50, 90
3, 10132, Note_on_c, 1, 50, 0
3, 10140, Note_on_c, 1, 38, 90
3, 10192, Note_on_c, 1, 38, 0
3, 10200, Note_on_c, 1, 43, 90
3, 10226, Note_on_c, 1, 43, 0
3, 10230, Note_on_c, 1, 47, 90
3, 10256, Note_on_c, 1, 47, 0
3, 10260, Note_on_c, 1, 48, 90
3, 10286, Note_on_c, 1, 48, 0
3, 10290, Note_on_c, 1, 50, 90
3, 10316, Note_on_c, 1, 50, 0
3, 10320, Note_on_c, 1, 51, 90
3, 10346, Note_on_c, 1, 51, 0
3, 10350, Note_on_c, 1, 50, 90
3, 10376, Note_on_c, 1, 50, 0
3, 10380, Note_on_c, 1, 48, 90
3, 10406, Note_on_c, 1, 48, 0
3, 10410, Note_on_c, 1, 55, 90
3, 10436, Note_on_c, 1, 55, 0
3, 10440, Note_on_c, 1, 56, 90
3, 10466, Note_on_c, 1, 56, 0
3, 10470, Note_on_c, 1, 53, 90
3, 10496, Note_on_c, 1, 53, 0
3, 10500, Note_on_c, 1, 50, 90
3, 10526, Note_on_c, 1, 50, 0
3, 10530, Note_on_c, 1, 53, 90
3, 10556, Note_on_c, 1, 53, 0
3, 10560, Note_on_c, 1, 51, 90
3, 10586, Note_on_c, 1, 51, 0
3, 10590, Note_on_c, 1, 53, 90
3, 10616, Note_on_c, 1, 53, 0
3, 10620, Note_on_c, 1, 51, 90
3, 10646, Note_on_c, 1, 51, 0
3, 10650, Note_on_c, 1, 50, 90
3, 10676, Note_on_c, 1, 50, 0
3, 10680, Note_on_c, 1, 48, 90
3, 10706, Note_on_c, 1, 48, 0
3, 10710, Note_on_c, 1, 50, 90
3, 10736, Note_on_c, 1, 50, 0
3, 10740, Note_on_c, 1, 51, 90
3, 10766, Note_on_c, 1, 51, 0
3, 10770, Note_on_c, 1, 50, 90
3, 10796, Note_on_c, 1, 50, 0
3, 10800, Note_on_c, 1, 48, 90
3, 10826, Note_on_c, 1, 48, 0
3, 10830, Note_on_c, 1, 51, 90
3, 10856, Note_on_c, 1, 51, 0
3, 10860, Note_on_c, 1, 50, 90
3, 10886, Note_on_c, 1, 50, 0
3, 10890, Note_on_c, 1, 48, 90
3, 10916, Note_on_c, 1, 48, 0
3, 10920, Note_on_c, 1, 55, 90
3, 10946, Note_on_c, 1, 55, 0
3, 10950, Note_on_c, 1, 56, 90
3, 10976, Note_on_c, 1, 56, 0
3, 10980, Note_on_c, 1, 55, 90
3, 11006, Note_on_c, 1, 55, 0
3, 11010, Note_on_c, 1, 53, 90
3, 11036, Note_on_c, 1, 53, 0
3, 11040, Note_on_c, 1, 51, 90
3, 11066, Note_on_c, 1, 51, 0
3, 11070, Note_on_c, 1, 50, 90
3, 11096, Note_on_c, 1, 50, 0
3, 11100, Note_on_c, 1, 48, 90
3, 11126, Note_on_c, 1, 48, 0
3, 11130, Note_on_c, 1, 47, 90
3, 11156, Note_on_c, 1, 47, 0
3, 11160, Note_on_c, 1, 45, 90
3, 11186, Note_on_c, 1, 45, 0
3, 11190, Note_on_c, 1, 54, 90
3, 11216, Note_on_c, 1, 54, 0
3, 11220, Note_on_c, 1, 51, 90
3, 11246, Note_on_c, 1, 51, 0
3, 11250, Note_on_c, 1, 48, 90
3, 11276, Note_on_c, 1, 48, 0
3, 11280, Note_on_c, 1, 43, 90
3, 11310, Note_on_c, 1, 47, 90
3, 11336, Note_on_c, 1, 47, 0
3, 11340, Note_on_c, 1, 50, 90
3, 11366, Note_on_c, 1, 50, 0
3, 11370, Note_on_c, 1, 54, 90
3, 11396, Note_on_c, 1, 54, 0
3, 11400, Note_on_c, 1, 55, 90
3, 11640, Note_on_c, 1, 55, 0
3, 11640, Note_on_c, 1, 43, 0
3, 11640, End_track
4, 0, Start_track
4, 0, MIDI_port, 0
4, 0, Title_t, "Reed Organ"
4, 0, Program_c, 2, 20
4, 0, Control_c, 2, 7, 95
4, 0, Control_c, 2, 10, 64
4, 42, Control_c, 2, 7, 94
4, 120, Note_on_c, 2, 55, 90
4, 345, Note_on_c, 2, 55, 0
4, 360, Note_on_c, 2, 57, 90
4, 465, Note_on_c, 2, 57, 0
4, 480, Note_on_c, 2, 58, 90
4, 705, Note_on_c, 2, 58, 0
4, 720, Note_on_c, 2, 59, 90
4, 825, Note_on_c, 2, 59, 0
4, 840, Note_on_c, 2, 60, 90
4, 1065, Note_on_c, 2, 60, 0
4, 1080, Note_on_c, 2, 58, 90
4, 1185, Note_on_c, 2, 58, 0
4, 1200, Note_on_c, 2, 57, 90
4, 1425, Note_on_c, 2, 57, 0
4, 1440, Note_on_c, 2, 57, 90
4, 1545, Note_on_c, 2, 57, 0
4, 1560, Note_on_c, 2, 58, 90
4, 1785, Note_on_c, 2, 58, 0
4, 1800, Note_on_c, 2, 60, 90
4, 1905, Note_on_c, 2, 60, 0
4, 1920, Note_on_c, 2, 62, 90
4, 2145, Note_on_c, 2, 62, 0
4, 2160, Note_on_c, 2, 58, 90
4, 2265, Note_on_c, 2, 58, 0
4, 2280, Note_on_c, 2, 63, 90
4, 2505, Note_on_c, 2, 63, 0
4, 2520, Note_on_c, 2, 62, 90
4, 2625, Note_on_c, 2, 62, 0
4, 2640, Note_on_c, 2, 60, 90
4, 2985, Note_on_c, 2, 60, 0
4, 3000, Note_on_c, 2, 58, 90
4, 3345, Note_on_c, 2, 58, 0
4, 3720, Note_on_c, 2, 62, 90
4, 3945, Note_on_c, 2, 62, 0
4, 3960, Note_on_c, 2, 62, 90
4, 4065, Note_on_c, 2, 62, 0
4, 4080, Note_on_c, 2, 62, 90
4, 4305, Note_on_c, 2, 62, 0
4, 4320, Note_on_c, 2, 62, 90
4, 4425, Note_on_c, 2, 62, 0
4, 4440, Note_on_c, 2, 60, 90
4, 4665, Note_on_c, 2, 60, 0
4, 4680, Note_on_c, 2, 58, 90
4, 4785, Note_on_c, 2, 58, 0
4, 4800, Note_on_c, 2, 60, 90
4, 5025, Note_on_c, 2, 60, 0
4, 5040, Note_on_c, 2, 60, 90
4, 5145, Note_on_c, 2, 60, 0
4, 5160, Note_on_c, 2, 60, 90
4, 5385, Note_on_c, 2, 60, 0
4, 5400, Note_on_c, 2, 62, 90
4, 5505, Note_on_c, 2, 62, 0
4, 5520, Note_on_c, 2, 63, 90
4, 5745, Note_on_c, 2, 63, 0
4, 5760, Note_on_c, 2, 63, 90
4, 5865, Note_on_c, 2, 63, 0
4, 5880, Note_on_c, 2, 62, 90
4, 6105, Note_on_c, 2, 62, 0
4, 6120, Note_on_c, 2, 60, 90
4, 6225, Note_on_c, 2, 60, 0
4, 6240, Note_on_c, 2, 62, 90
4, 6585, Note_on_c, 2, 62, 0
4, 6600, Note_on_c, 2, 60, 90
4, 6945, Note_on_c, 2, 60, 0
4, 7320, Note_on_c, 2, 55, 90
4, 7545, Note_on_c, 2, 55, 0
4, 7560, Note_on_c, 2, 57, 90
4, 7665, Note_on_c, 2, 57, 0
4, 7680, Note_on_c, 2, 58, 90
4, 7905, Note_on_c, 2, 58, 0
4, 7920, Note_on_c, 2, 58, 90
4, 8025, Note_on_c, 2, 58, 0
4, 8040, Note_on_c, 2, 60, 90
4, 8265, Note_on_c, 2, 60, 0
4, 8280, Note_on_c, 2, 60, 90
4, 8385, Note_on_c, 2, 60, 0
4, 8400, Note_on_c, 2, 62, 90
4, 8625, Note_on_c, 2, 62, 0
4, 8640, Note_on_c, 2, 62, 90
4, 8745, Note_on_c, 2, 62, 0
4, 8760, Note_on_c, 2, 62, 90
4, 8985, Note_on_c, 2, 62, 0
4, 9000, Note_on_c, 2, 62, 90
4, 9105, Note_on_c, 2, 62, 0
4, 9120, Note_on_c, 2, 63, 90
4, 9345, Note_on_c, 2, 63, 0
4, 9360, Note_on_c, 2, 62, 90
4, 9465, Note_on_c, 2, 62, 0
4, 9480, Note_on_c, 2, 60, 90
4, 9705, Note_on_c, 2, 60, 0
4, 9720, Note_on_c, 2, 58, 90
4, 9825, Note_on_c, 2, 58, 0
4, 9840, Note_on_c, 2, 57, 90
4, 10185, Note_on_c, 2, 57, 0
4, 10200, Note_on_c, 2, 55, 90
4, 11610, Control_c, 2, 7, 49
4, 11611, Control_c, 2, 7, 47
4, 11612, Control_c, 2, 7, 45
4, 11613, Control_c, 2, 7, 44
4, 11614, Control_c, 2, 7, 42
4, 11615, Control_c, 2, 7, 40
4, 11616, Control_c, 2, 7, 39
4, 11617, Control_c, 2, 7, 37
4, 11618, Control_c, 2, 7, 35
4, 11619, Control_c, 2, 7, 34
4, 11620, Control_c, 2, 7, 32
4, 11621, Control_c, 2, 7, 31
4, 11622, Control_c, 2, 7, 29
4, 11623, Control_c, 2, 7, 27
4, 11624, Control_c, 2, 7, 26
4, 11625, Control_c, 2, 7, 24
4, 11626, Control_c, 2, 7, 22
4, 11627, Control_c, 2, 7, 21
4, 11628, Control_c, 2, 7, 19
4, 11629, Control_c, 2, 7, 17
4, 11630, Control_c, 2, 7, 16
4, 11631, Control_c, 2, 7, 14
4, 11632, Control_c, 2, 7, 13
4, 11633, Control_c, 2, 7, 11
4, 11634, Control_c, 2, 7, 9
4, 11635, Control_c, 2, 7, 8
4, 11636, Control_c, 2, 7, 6
4, 11637, Control_c, 2, 7, 4
4, 11638, Control_c, 2, 7, 3
4, 11639, Control_c, 2, 7, 1
4, 11640, Note_on_c, 2, 55, 0
4, 11640, Control_c, 2, 7, 0
4, 11640, End_track
5, 0, Start_track
5, 0, MIDI_port, 0
5, 0, Title_t, "Flute"
5, 0, Program_c, 3, 73
5, 0, Control_c, 3, 7, 125
5, 0, Control_c, 3, 10, 64
5, 54, Control_c, 3, 7, 116
5, 120, Note_on_c, 3, 67, 127
5, 360, Note_on_c, 3, 67, 0
5, 360, Note_on_c, 3, 69, 126
5, 480, Note_on_c, 3, 69, 0
5, 480, Note_on_c, 3, 70, 125
5, 705, Note_on_c, 3, 70, 0
5, 720, Note_on_c, 3, 71, 127
5, 840, Note_on_c, 3, 71, 0
5, 840, Note_on_c, 3, 72, 127
5, 1080, Note_on_c, 3, 72, 0
5, 1080, Note_on_c, 3, 70, 127
5, 1200, Note_on_c, 3, 70, 0
5, 1200, Note_on_c, 3, 69, 127
5, 1425, Note_on_c, 3, 69, 0
5, 1440, Note_on_c, 3, 69, 125
5, 1545, Note_on_c, 3, 69, 0
5, 1560, Note_on_c, 3, 70, 127
5, 1800, Note_on_c, 3, 70, 0
5, 1800, Note_on_c, 3, 72, 127
5, 1920, Note_on_c, 3, 72, 0
5, 1920, Note_on_c, 3, 74, 127
5, 2145, Note_on_c, 3, 74, 0
5, 2160, Note_on_c, 3, 70, 127
5, 2280, Note_on_c, 3, 70, 0
5, 2280, Note_on_c, 3, 75, 127
5, 2520, Note_on_c, 3, 75, 0
5, 2520, Note_on_c, 3, 74, 127
5, 2640, Note_on_c, 3, 74, 0
5, 2640, Note_on_c, 3, 72, 127
5, 2985, Note_on_c, 3, 72, 0
5, 3000, Note_on_c, 3, 70, 127
5, 3345, Note_on_c, 3, 70, 0
5, 3720, Note_on_c, 3, 74, 126
5, 3945, Note_on_c, 3, 74, 0
5, 3960, Note_on_c, 3, 74, 127
5, 4065, Note_on_c, 3, 74, 0
5, 4080, Note_on_c, 3, 74, 127
5, 4305, Note_on_c, 3, 74, 0
5, 4320, Note_on_c, 3, 74, 127
5, 4440, Note_on_c, 3, 74, 0
5, 4440, Note_on_c, 3, 72, 127
5, 4680, Note_on_c, 3, 72, 0
5, 4680, Note_on_c, 3, 70, 127
5, 4800, Note_on_c, 3, 70, 0
5, 4800, Note_on_c, 3, 72, 127
5, 5025, Note_on_c, 3, 72, 0
5, 5040, Note_on_c, 3, 72, 127
5, 5145, Note_on_c, 3, 72, 0
5, 5160, Note_on_c, 3, 72, 127
5, 5400, Note_on_c, 3, 72, 0
5, 5400, Note_on_c, 3, 74, 127
5, 5520, Note_on_c, 3, 74, 0
5, 5520, Note_on_c, 3, 75, 127
5, 5745, Note_on_c, 3, 75, 0
5, 5760, Note_on_c, 3, 75, 127
5, 5880, Note_on_c, 3, 75, 0
5, 5880, Note_on_c, 3, 74, 127
5, 6105, Note_on_c, 3, 74, 0
5, 6120, Note_on_c, 3, 72, 127
5, 6240, Note_on_c, 3, 72, 0
5, 6240, Note_on_c, 3, 74, 127
5, 6585, Note_on_c, 3, 74, 0
5, 6600, Note_on_c, 3, 72, 127
5, 6945, Note_on_c, 3, 72, 0
5, 7320, Note_on_c, 3, 67, 127
5, 7560, Note_on_c, 3, 67, 0
5, 7560, Note_on_c, 3, 69, 127
5, 7680, Note_on_c, 3, 69, 0
5, 7680, Note_on_c, 3, 70, 127
5, 7905, Note_on_c, 3, 70, 0
5, 7920, Note_on_c, 3, 70, 127
5, 8040, Note_on_c, 3, 70, 0
5, 8040, Note_on_c, 3, 72, 127
5, 8265, Note_on_c, 3, 72, 0
5, 8280, Note_on_c, 3, 72, 126
5, 8400, Note_on_c, 3, 72, 0
5, 8400, Note_on_c, 3, 74, 127
5, 8625, Note_on_c, 3, 74, 0
5, 8640, Note_on_c, 3, 74, 127
5, 8745, Note_on_c, 3, 74, 0
5, 8760, Note_on_c, 3, 74, 127
5, 8985, Note_on_c, 3, 74, 0
5, 9000, Note_on_c, 3, 74, 127
5, 9120, Note_on_c, 3, 74, 0
5, 9120, Note_on_c, 3, 75, 127
5, 9345, Note_on_c, 3, 75, 0
5, 9360, Note_on_c, 3, 74, 127
5, 9480, Note_on_c, 3, 74, 0
5, 9480, Note_on_c, 3, 72, 127
5, 9705, Note_on_c, 3, 72, 0
5, 9720, Note_on_c, 3, 70, 127
5, 9840, Note_on_c, 3, 70, 0
5, 9840, Note_on_c, 3, 69, 127
5, 10185, Note_on_c, 3, 69, 0
5, 10200, Note_on_c, 3, 67, 127
5, 11610, Control_c, 3, 7, 126
5, 11611, Control_c, 3, 7, 121
5, 11612, Control_c, 3, 7, 117
5, 11613, Control_c, 3, 7, 113
5, 11614, Control_c, 3, 7, 109
5, 11615, Control_c, 3, 7, 105
5, 11616, Control_c, 3, 7, 100
5, 11617, Control_c, 3, 7, 96
5, 11618, Control_c, 3, 7, 92
5, 11619, Control_c, 3, 7, 88
5, 11620, Control_c, 3, 7, 84
5, 11621, Control_c, 3, 7, 79
5, 11622, Control_c, 3, 7, 75
5, 11623, Control_c, 3, 7, 71
5, 11624, Control_c, 3, 7, 67
5, 11625, Control_c, 3, 7, 63
5, 11626, Control_c, 3, 7, 58
5, 11627, Control_c, 3, 7, 54
5, 11628, Control_c, 3, 7, 50
5, 11629, Control_c, 3, 7, 46
5, 11630, Control_c, 3, 7, 42
5, 11631, Control_c, 3, 7, 37
5, 11632, Control_c, 3, 7, 33
5, 11633, Control_c, 3, 7, 29
5, 11634, Control_c, 3, 7, 25
5, 11635, Control_c, 3, 7, 21
5, 11636, Control_c, 3, 7, 16
5, 11637, Control_c, 3, 7, 12
5, 11638, Control_c, 3, 7, 8
5, 11639, Control_c, 3, 7, 4
5, 11640, Note_on_c, 3, 67, 0
5, 11640, Control_c, 3, 7, 0
5, 11640, End_track
0, 0, End_of_file
