0, 0, Header, 1, 10, 120
1, 0, Start_track
1, 0, Time_signature, 4, 2, 24, 8
1, 0, Key_signature, 0, "major"
1, 0, Tempo, 681818
1, 36599, Tempo, 731707
1, 36839, Tempo, 789473
1, 37319, Tempo, 923076
1, 37496, Tempo, 1153846
1, 37496, End_track
2, 0, Start_track
2, 0, MIDI_port, 0
2, 0, Title_t, "Pad 1(new age)"
2, 0, Program_c, 0, 88
2, 0, Control_c, 0, 7, 107
2, 0, Control_c, 0, 10, 64
2, 66, Control_c, 0, 7, 106
2, 240, Note_on_c, 0, 67, 118
2, 300, Note_on_c, 0, 67, 0
2, 300, Note_on_c, 0, 69, 118
2, 330, Note_on_c, 0, 69, 0
2, 330, Note_on_c, 0, 70, 115
2, 356, Note_on_c, 0, 70, 0
2, 360, Note_on_c, 0, 69, 118
2, 420, Note_on_c, 0, 69, 0
2, 420, Note_on_c, 0, 70, 119
2, 450, Note_on_c, 0, 70, 0
2, 450, Note_on_c, 0, 72, 117
2, 476, Note_on_c, 0, 72, 0
2, 480, Note_on_c, 0, 70, 119
2, 645, Note_on_c, 0, 70, 0
2, 660, Note_on_c, 0, 69, 118
2, 712, Note_on_c, 0, 69, 0
2, 720, Note_on_c, 0, 67, 120
2, 825, Note_on_c, 0, 67, 0
2, 960, Note_on_c, 0, 72, 120
2, 1038, Note_on_c, 0, 72, 0
2, 1050, Note_on_c, 0, 74, 118
2, 1076, Note_on_c, 0, 74, 0
2, 1080, Note_on_c, 0, 70, 120
2, 1158, Note_on_c, 0, 70, 0
2, 1170, Note_on_c, 0, 69, 120
2, 1196, Note_on_c, 0, 69, 0
2, 1200, Note_on_c, 0, 69, 118
2, 1425, Note_on_c, 0, 69, 0
2, 1680, Note_on_c, 0, 75, 123
2, 1732, Note_on_c, 0, 75, 0
2, 1740, Note_on_c, 0, 74, 122
2, 1792, Note_on_c, 0, 74, 0
2, 1800, Note_on_c, 0, 72, 120
2, 1826, Note_on_c, 0, 72, 0
2, 1830, Note_on_c, 0, 70, 122
2, 1856, Note_on_c, 0, 70, 0
2, 1860, Note_on_c, 0, 69, 120
2, 1886, Note_on_c, 0, 69, 0
2, 1890, Note_on_c, 0, 70, 120
2, 1903, Note_on_c, 0, 70, 0
2, 1905, Note_on_c, 0, 67, 120
2, 1918, Note_on_c, 0, 67, 0
2, 1920, Note_on_c, 0, 69, 120
2, 1933, Note_on_c, 0, 69, 0
2, 1935, Note_on_c, 0, 67, 120
2, 1948, Note_on_c, 0, 67, 0
2, 1950, Note_on_c, 0, 69, 120
2, 2028, Note_on_c, 0, 69, 0
2, 2040, Note_on_c, 0, 62, 120
2, 2145, Note_on_c, 0, 62, 0
2, 6360, Note_on_c, 0, 70, 121
2, 6465, Note_on_c, 0, 70, 0
2, 6480, Note_on_c, 0, 72, 116
2, 6540, Note_on_c, 0, 72, 0
2, 6540, Note_on_c, 0, 74, 118
2, 6570, Note_on_c, 0, 74, 0
2, 6570, Note_on_c, 0, 75, 120
2, 6596, Note_on_c, 0, 75, 0
2, 6600, Note_on_c, 0, 74, 123
2, 6765, Note_on_c, 0, 74, 0
2, 6780, Note_on_c, 0, 72, 119
2, 6832, Note_on_c, 0, 72, 0
2, 6840, Note_on_c, 0, 70, 121
2, 6945, Note_on_c, 0, 70, 0
2, 7080, Note_on_c, 0, 75, 121
2, 7158, Note_on_c, 0, 75, 0
2, 7170, Note_on_c, 0, 77, 120
2, 7196, Note_on_c, 0, 77, 0
2, 7200, Note_on_c, 0, 74, 120
2, 7278, Note_on_c, 0, 74, 0
2, 7290, Note_on_c, 0, 72, 119
2, 7316, Note_on_c, 0, 72, 0
2, 7320, Note_on_c, 0, 72, 119
2, 7545, Note_on_c, 0, 72, 0
2, 7800, Note_on_c, 0, 79, 122
2, 7852, Note_on_c, 0, 79, 0
2, 7860, Note_on_c, 0, 77, 121
2, 7912, Note_on_c, 0, 77, 0
2, 7920, Note_on_c, 0, 75, 120
2, 7972, Note_on_c, 0, 75, 0
2, 7980, Note_on_c, 0, 74, 122
2, 7986, Note_on_c, 0, 74, 0
2, 7987, Note_on_c, 0, 75, 122
2, 7993, Note_on_c, 0, 75, 0
2, 7995, Note_on_c, 0, 74, 122
2, 8001, Note_on_c, 0, 74, 0
2, 8002, Note_on_c, 0, 75, 122
2, 8008, Note_on_c, 0, 75, 0
2, 8010, Note_on_c, 0, 72, 122
2, 8023, Note_on_c, 0, 72, 0
2, 8025, Note_on_c, 0, 74, 122
2, 8038, Note_on_c, 0, 74, 0
2, 8040, Note_on_c, 0, 72, 121
2, 8145, Note_on_c, 0, 72, 0
2, 8160, Note_on_c, 0, 65, 121
2, 8265, Note_on_c, 0, 65, 0
2, 12840, Note_on_c, 0, 74, 121
2, 12945, Note_on_c, 0, 74, 0
2, 12960, Note_on_c, 0, 72, 118
2, 13065, Note_on_c, 0, 72, 0
2, 13080, Note_on_c, 0, 70, 118
2, 13245, Note_on_c, 0, 70, 0
2, 13260, Note_on_c, 0, 72, 119
2, 13312, Note_on_c, 0, 72, 0
2, 13320, Note_on_c, 0, 74, 119
2, 13425, Note_on_c, 0, 74, 0
2, 13560, Note_on_c, 0, 72, 118
2, 13638, Note_on_c, 0, 72, 0
2, 13650, Note_on_c, 0, 74, 119
2, 13676, Note_on_c, 0, 74, 0
2, 13680, Note_on_c, 0, 70, 118
2, 13693, Note_on_c, 0, 70, 0
2, 13695, Note_on_c, 0, 72, 117
2, 13708, Note_on_c, 0, 72, 0
2, 13710, Note_on_c, 0, 70, 118
2, 13723, Note_on_c, 0, 70, 0
2, 13725, Note_on_c, 0, 72, 118
2, 13738, Note_on_c, 0, 72, 0
2, 13740, Note_on_c, 0, 70, 117
2, 13753, Note_on_c, 0, 70, 0
2, 13755, Note_on_c, 0, 72, 117
2, 13768, Note_on_c, 0, 72, 0
2, 13770, Note_on_c, 0, 69, 117
2, 13783, Note_on_c, 0, 69, 0
2, 13785, Note_on_c, 0, 70, 119
2, 13798, Note_on_c, 0, 70, 0
2, 13800, Note_on_c, 0, 72, 120
2, 13905, Note_on_c, 0, 72, 0
2, 13920, Note_on_c, 0, 65, 120
2, 14025, Note_on_c, 0, 65, 0
2, 14040, Note_on_c, 0, 77, 120
2, 14212, Note_on_c, 0, 77, 0
2, 14220, Note_on_c, 0, 75, 119
2, 14272, Note_on_c, 0, 75, 0
2, 14280, Note_on_c, 0, 74, 120
2, 14332, Note_on_c, 0, 74, 0
2, 14340, Note_on_c, 0, 72, 117
2, 14392, Note_on_c, 0, 72, 0
2, 14400, Note_on_c, 0, 70, 119
2, 14413, Note_on_c, 0, 70, 0
2, 14415, Note_on_c, 0, 72, 119
2, 14428, Note_on_c, 0, 72, 0
2, 14430, Note_on_c, 0, 70, 118
2, 14443, Note_on_c, 0, 70, 0
2, 14445, Note_on_c, 0, 72, 118
2, 14458, Note_on_c, 0, 72, 0
2, 14460, Note_on_c, 0, 70, 118
2, 14473, Note_on_c, 0, 70, 0
2, 14475, Note_on_c, 0, 72, 118
2, 14488, Note_on_c, 0, 72, 0
2, 14490, Note_on_c, 0, 69, 120
2, 14503, Note_on_c, 0, 69, 0
2, 14505, Note_on_c, 0, 70, 119
2, 14518, Note_on_c, 0, 70, 0
2, 14520, Note_on_c, 0, 72, 120
2, 14745, Note_on_c, 0, 72, 0
2, 18240, Note_on_c, 0, 72, 121
2, 18300, Note_on_c, 0, 72, 0
2, 18300, Note_on_c, 0, 71, 119
2, 18330, Note_on_c, 0, 71, 0
2, 18330, Note_on_c, 0, 72, 118
2, 18355, Note_on_c, 0, 72, 0
2, 18360, Note_on_c, 0, 74, 118
2, 18420, Note_on_c, 0, 74, 0
2, 18420, Note_on_c, 0, 75, 120
2, 18450, Note_on_c, 0, 75, 0
2, 18450, Note_on_c, 0, 77, 120
2, 18476, Note_on_c, 0, 77, 0
2, 18480, Note_on_c, 0, 75, 120
2, 18645, Note_on_c, 0, 75, 0
2, 18660, Note_on_c, 0, 74, 122
2, 18712, Note_on_c, 0, 74, 0
2, 18720, Note_on_c, 0, 72, 120
2, 18825, Note_on_c, 0, 72, 0
2, 18960, Note_on_c, 0, 80, 121
2, 19012, Note_on_c, 0, 80, 0
2, 19020, Note_on_c, 0, 79, 121
2, 19072, Note_on_c, 0, 79, 0
2, 19080, Note_on_c, 0, 77, 122
2, 19132, Note_on_c, 0, 77, 0
2, 19140, Note_on_c, 0, 79, 121
2, 19166, Note_on_c, 0, 79, 0
2, 19170, Note_on_c, 0, 80, 122
2, 19196, Note_on_c, 0, 80, 0
2, 19200, Note_on_c, 0, 71, 120
2, 19365, Note_on_c, 0, 71, 0
2, 19380, Note_on_c, 0, 72, 118
2, 19432, Note_on_c, 0, 72, 0
2, 19440, Note_on_c, 0, 74, 118
2, 19492, Note_on_c, 0, 74, 0
2, 19500, Note_on_c, 0, 67, 120
2, 19552, Note_on_c, 0, 67, 0
2, 19560, Note_on_c, 0, 79, 120
2, 19612, Note_on_c, 0, 79, 0
2, 19620, Note_on_c, 0, 72, 120
2, 19672, Note_on_c, 0, 72, 0
2, 19680, Note_on_c, 0, 71, 119
2, 19845, Note_on_c, 0, 71, 0
2, 19860, Note_on_c, 0, 72, 120
2, 19912, Note_on_c, 0, 72, 0
2, 19920, Note_on_c, 0, 74, 121
2, 20025, Note_on_c, 0, 74, 0
2, 24360, Note_on_c, 0, 67, 121
2, 24420, Note_on_c, 0, 67, 0
2, 24420, Note_on_c, 0, 66, 119
2, 24450, Note_on_c, 0, 66, 0
2, 24450, Note_on_c, 0, 67, 119
2, 24476, Note_on_c, 0, 67, 0
2, 24480, Note_on_c, 0, 69, 119
2, 24540, Note_on_c, 0, 69, 0
2, 24545, Note_on_c, 0, 70, 119
2, 24570, Note_on_c, 0, 72, 119
2, 24575, Note_on_c, 0, 70, 0
2, 24596, Note_on_c, 0, 72, 0
2, 24600, Note_on_c, 0, 70, 118
2, 24765, Note_on_c, 0, 70, 0
2, 24780, Note_on_c, 0, 69, 119
2, 24832, Note_on_c, 0, 69, 0
2, 24840, Note_on_c, 0, 67, 121
2, 24945, Note_on_c, 0, 67, 0
2, 25080, Note_on_c, 0, 72, 120
2, 25158, Note_on_c, 0, 72, 0
2, 25170, Note_on_c, 0, 74, 121
2, 25196, Note_on_c, 0, 74, 0
2, 25200, Note_on_c, 0, 75, 120
2, 25278, Note_on_c, 0, 75, 0
2, 25290, Note_on_c, 0, 77, 120
2, 25316, Note_on_c, 0, 77, 0
2, 25320, Note_on_c, 0, 74, 120
2, 25545, Note_on_c, 0, 74, 0
2, 25560, Note_on_c, 0, 74, 119
2, 25665, Note_on_c, 0, 74, 0
2, 25740, Note_on_c, 0, 74, 120
2, 25792, Note_on_c, 0, 74, 0
2, 25800, Note_on_c, 0, 72, 120
2, 25852, Note_on_c, 0, 72, 0
2, 25860, Note_on_c, 0, 70, 120
2, 25912, Note_on_c, 0, 70, 0
2, 25920, Note_on_c, 0, 69, 121
2, 25972, Note_on_c, 0, 69, 0
2, 25980, Note_on_c, 0, 70, 119
2, 26006, Note_on_c, 0, 70, 0
2, 26010, Note_on_c, 0, 67, 119
2, 26036, Note_on_c, 0, 67, 0
2, 26040, Note_on_c, 0, 74, 119
2, 26053, Note_on_c, 0, 74, 0
2, 26055, Note_on_c, 0, 72, 119
2, 26068, Note_on_c, 0, 72, 0
2, 26070, Note_on_c, 0, 74, 119
2, 26265, Note_on_c, 0, 74, 0
2, 29760, Note_on_c, 0, 79, 118
2, 29812, Note_on_c, 0, 79, 0
2, 29820, Note_on_c, 0, 77, 119
2, 29872, Note_on_c, 0, 77, 0
2, 29880, Note_on_c, 0, 75, 121
2, 29932, Note_on_c, 0, 75, 0
2, 29940, Note_on_c, 0, 77, 119
2, 29966, Note_on_c, 0, 77, 0
2, 29970, Note_on_c, 0, 74, 118
2, 29996, Note_on_c, 0, 74, 0
2, 30000, Note_on_c, 0, 75, 120
2, 30165, Note_on_c, 0, 75, 0
2, 30180, Note_on_c, 0, 77, 122
2, 30232, Note_on_c, 0, 77, 0
2, 30240, Note_on_c, 0, 79, 122
2, 30345, Note_on_c, 0, 79, 0
2, 30480, Note_on_c, 0, 72, 120
2, 30585, Note_on_c, 0, 72, 0
2, 30600, Note_on_c, 0, 74, 121
2, 30660, Note_on_c, 0, 74, 0
2, 30660, Note_on_c, 0, 75, 120
2, 30690, Note_on_c, 0, 75, 0
2, 30690, Note_on_c, 0, 77, 121
2, 30716, Note_on_c, 0, 77, 0
2, 30720, Note_on_c, 0, 74, 121
2, 30885, Note_on_c, 0, 74, 0
2, 30900, Note_on_c, 0, 72, 118
2, 30952, Note_on_c, 0, 72, 0
2, 30960, Note_on_c, 0, 70, 119
2, 31020, Note_on_c, 0, 70, 0
2, 31020, Note_on_c, 0, 72, 121
2, 31050, Note_on_c, 0, 72, 0
2, 31050, Note_on_c, 0, 74, 121
2, 31076, Note_on_c, 0, 74, 0
2, 31080, Note_on_c, 0, 67, 121
2, 31185, Note_on_c, 0, 67, 0
2, 31200, Note_on_c, 0, 72, 121
2, 31252, Note_on_c, 0, 72, 0
2, 31260, Note_on_c, 0, 70, 119
2, 31312, Note_on_c, 0, 70, 0
2, 31320, Note_on_c, 0, 69, 116
2, 31372, Note_on_c, 0, 69, 0
2, 31380, Note_on_c, 0, 70, 119
2, 31406, Note_on_c, 0, 70, 0
2, 31410, Note_on_c, 0, 67, 119
2, 31436, Note_on_c, 0, 67, 0
2, 31440, Note_on_c, 0, 66, 119
2, 31605, Note_on_c, 0, 66, 0
2, 31620, Note_on_c, 0, 64, 120
2, 31672, Note_on_c, 0, 64, 0
2, 31680, Note_on_c, 0, 62, 122
2, 31785, Note_on_c, 0, 62, 0
2, 35880, Note_on_c, 0, 79, 121
2, 35985, Note_on_c, 0, 79, 0
2, 36000, Note_on_c, 0, 77, 121
2, 36105, Note_on_c, 0, 77, 0
2, 36120, Note_on_c, 0, 75, 119
2, 36285, Note_on_c, 0, 75, 0
2, 36300, Note_on_c, 0, 77, 121
2, 36352, Note_on_c, 0, 77, 0
2, 36360, Note_on_c, 0, 79, 121
2, 36465, Note_on_c, 0, 79, 0
2, 36480, Note_on_c, 0, 72, 122
2, 36585, Note_on_c, 0, 72, 0
2, 36600, Note_on_c, 0, 84, 118
2, 36705, Note_on_c, 0, 84, 0
2, 36720, Note_on_c, 0, 82, 120
2, 36798, Note_on_c, 0, 82, 0
2, 36840, Note_on_c, 0, 82, 119
2, 36900, Note_on_c, 0, 82, 0
2, 36900, Note_on_c, 0, 81, 120
2, 36952, Note_on_c, 0, 81, 0
2, 36960, Note_on_c, 0, 79, 120
2, 37012, Note_on_c, 0, 79, 0
2, 37020, Note_on_c, 0, 78, 120
2, 37072, Note_on_c, 0, 78, 0
2, 37080, Note_on_c, 0, 79, 118
2, 37252, Note_on_c, 0, 79, 0
2, 37260, Note_on_c, 0, 72, 121
2, 37312, Note_on_c, 0, 72, 0
2, 37320, Note_on_c, 0, 70, 122
2, 37425, Note_on_c, 0, 70, 0
2, 37440, Note_on_c, 0, 69, 118
2, 37453, Note_on_c, 0, 69, 0
2, 37455, Note_on_c, 0, 70, 118
2, 37468, Note_on_c, 0, 70, 0
2, 37470, Note_on_c, 0, 69, 117
2, 37496, Note_on_c, 0, 69, 0
2, 37500, Note_on_c, 0, 67, 117
2, 37552, Note_on_c, 0, 67, 0
2, 37560, Note_on_c, 0, 67, 117
2, 37920, Note_on_c, 0, 67, 0
2, 37920, End_track
3, 0, Start_track
3, 0, MIDI_port, 0
3, 0, Title_t, "Trumpet"
3, 0, Program_c, 1, 56
3, 0, Control_c, 1, 7, 105
3, 0, Control_c, 1, 10, 64
3, 48, Control_c, 1, 7, 104
3, 2640, Note_on_c, 1, 67, 119
3, 2985, Note_on_c, 1, 67, 0
3, 3000, Note_on_c, 1, 69, 119
3, 3345, Note_on_c, 1, 69, 0
3, 3360, Note_on_c, 1, 70, 121
3, 3705, Note_on_c, 1, 70, 0
3, 3720, Note_on_c, 1, 70, 120
3, 4065, Note_on_c, 1, 70, 0
3, 4080, Note_on_c, 1, 72, 122
3, 4425, Note_on_c, 1, 72, 0
3, 4440, Note_on_c, 1, 70, 120
3, 4453, Note_on_c, 1, 70, 0
3, 4455, Note_on_c, 1, 72, 119
3, 4468, Note_on_c, 1, 72, 0
3, 4470, Note_on_c, 1, 70, 120
3, 4483, Note_on_c, 1, 70, 0
3, 4485, Note_on_c, 1, 72, 120
3, 4498, Note_on_c, 1, 72, 0
3, 4500, Note_on_c, 1, 70, 120
3, 4513, Note_on_c, 1, 70, 0
3, 4515, Note_on_c, 1, 72, 119
3, 4528, Note_on_c, 1, 72, 0
3, 4530, Note_on_c, 1, 70, 119
3, 4543, Note_on_c, 1, 70, 0
3, 4545, Note_on_c, 1, 72, 119
3, 4558, Note_on_c, 1, 72, 0
3, 4560, Note_on_c, 1, 70, 119
3, 4573, Note_on_c, 1, 70, 0
3, 4575, Note_on_c, 1, 72, 119
3, 4588, Note_on_c, 1, 72, 0
3, 4590, Note_on_c, 1, 70, 119
3, 4603, Note_on_c, 1, 70, 0
3, 4605, Note_on_c, 1, 72, 119
3, 4618, Note_on_c, 1, 72, 0
3, 4620, Note_on_c, 1, 70, 119
3, 4633, Note_on_c, 1, 70, 0
3, 4635, Note_on_c, 1, 72, 119
3, 4648, Note_on_c, 1, 72, 0
3, 4650, Note_on_c, 1, 70, 119
3, 4663, Note_on_c, 1, 70, 0
3, 4665, Note_on_c, 1, 72, 119
3, 4678, Note_on_c, 1, 72, 0
3, 4680, Note_on_c, 1, 70, 119
3, 4785, Note_on_c, 1, 70, 0
3, 4800, Note_on_c, 1, 69, 120
3, 5145, Note_on_c, 1, 69, 0
3, 5160, Note_on_c, 1, 69, 121
3, 5505, Note_on_c, 1, 69, 0
3, 8760, Note_on_c, 1, 70, 120
3, 9105, Note_on_c, 1, 70, 0
3, 9120, Note_on_c, 1, 72, 123
3, 9465, Note_on_c, 1, 72, 0
3, 9480, Note_on_c, 1, 74, 122
3, 9825, Note_on_c, 1, 74, 0
3, 9840, Note_on_c, 1, 70, 123
3, 10185, Note_on_c, 1, 70, 0
3, 10200, Note_on_c, 1, 75, 118
3, 10545, Note_on_c, 1, 75, 0
3, 10560, Note_on_c, 1, 74, 120
3, 10905, Note_on_c, 1, 74, 0
3, 10920, Note_on_c, 1, 72, 121
3, 11293, Note_on_c, 1, 72, 0
3, 11295, Note_on_c, 1, 74, 118
3, 11308, Note_on_c, 1, 74, 0
3, 11310, Note_on_c, 1, 72, 118
3, 11323, Note_on_c, 1, 72, 0
3, 11325, Note_on_c, 1, 74, 119
3, 11338, Note_on_c, 1, 74, 0
3, 11340, Note_on_c, 1, 72, 119
3, 11353, Note_on_c, 1, 72, 0
3, 11355, Note_on_c, 1, 74, 119
3, 11368, Note_on_c, 1, 74, 0
3, 11370, Note_on_c, 1, 72, 119
3, 11383, Note_on_c, 1, 72, 0
3, 11385, Note_on_c, 1, 74, 119
3, 11398, Note_on_c, 1, 74, 0
3, 11400, Note_on_c, 1, 72, 120
3, 11413, Note_on_c, 1, 72, 0
3, 11415, Note_on_c, 1, 74, 120
3, 11428, Note_on_c, 1, 74, 0
3, 11430, Note_on_c, 1, 72, 120
3, 11443, Note_on_c, 1, 72, 0
3, 11445, Note_on_c, 1, 74, 120
3, 11458, Note_on_c, 1, 74, 0
3, 11460, Note_on_c, 1, 72, 119
3, 11473, Note_on_c, 1, 72, 0
3, 11475, Note_on_c, 1, 74, 118
3, 11488, Note_on_c, 1, 74, 0
3, 11490, Note_on_c, 1, 72, 118
3, 11503, Note_on_c, 1, 72, 0
3, 11505, Note_on_c, 1, 74, 120
3, 11518, Note_on_c, 1, 74, 0
3, 11520, Note_on_c, 1, 72, 120
3, 11625, Note_on_c, 1, 72, 0
3, 11640, Note_on_c, 1, 70, 121
3, 11985, Note_on_c, 1, 70, 0
3, 15240, Note_on_c, 1, 74, 119
3, 15585, Note_on_c, 1, 74, 0
3, 15600, Note_on_c, 1, 74, 119
3, 15945, Note_on_c, 1, 74, 0
3, 15960, Note_on_c, 1, 74, 122
3, 16305, Note_on_c, 1, 74, 0
3, 16320, Note_on_c, 1, 74, 122
3, 16665, Note_on_c, 1, 74, 0
3, 16680, Note_on_c, 1, 72, 120
3, 17025, Note_on_c, 1, 72, 0
3, 17040, Note_on_c, 1, 70, 119
3, 17385, Note_on_c, 1, 70, 0
3, 17400, Note_on_c, 1, 72, 119
3, 17745, Note_on_c, 1, 72, 0
3, 17760, Note_on_c, 1, 72, 120
3, 18105, Note_on_c, 1, 72, 0
3, 20280, Note_on_c, 1, 72, 121
3, 20625, Note_on_c, 1, 72, 0
3, 20640, Note_on_c, 1, 74, 121
3, 20985, Note_on_c, 1, 74, 0
3, 21000, Note_on_c, 1, 75, 119
3, 21345, Note_on_c, 1, 75, 0
3, 21360, Note_on_c, 1, 75, 121
3, 21705, Note_on_c, 1, 75, 0
3, 21720, Note_on_c, 1, 74, 120
3, 22065, Note_on_c, 1, 74, 0
3, 22080, Note_on_c, 1, 72, 119
3, 22425, Note_on_c, 1, 72, 0
3, 22440, Note_on_c, 1, 74, 122
3, 22813, Note_on_c, 1, 74, 0
3, 22815, Note_on_c, 1, 75, 119
3, 22828, Note_on_c, 1, 75, 0
3, 22830, Note_on_c, 1, 74, 120
3, 22843, Note_on_c, 1, 74, 0
3, 22845, Note_on_c, 1, 75, 119
3, 22858, Note_on_c, 1, 75, 0
3, 22860, Note_on_c, 1, 74, 119
3, 22873, Note_on_c, 1, 74, 0
3, 22875, Note_on_c, 1, 75, 119
3, 22888, Note_on_c, 1, 75, 0
3, 22890, Note_on_c, 1, 74, 120
3, 22903, Note_on_c, 1, 74, 0
3, 22905, Note_on_c, 1, 75, 121
3, 22918, Note_on_c, 1, 75, 0
3, 22920, Note_on_c, 1, 74, 121
3, 22933, Note_on_c, 1, 74, 0
3, 22935, Note_on_c, 1, 75, 120
3, 22948, Note_on_c, 1, 75, 0
3, 22950, Note_on_c, 1, 74, 120
3, 22963, Note_on_c, 1, 74, 0
3, 22965, Note_on_c, 1, 75, 121
3, 22978, Note_on_c, 1, 75, 0
3, 22980, Note_on_c, 1, 74, 121
3, 22993, Note_on_c, 1, 74, 0
3, 22995, Note_on_c, 1, 75, 121
3, 23008, Note_on_c, 1, 75, 0
3, 23010, Note_on_c, 1, 74, 121
3, 23023, Note_on_c, 1, 74, 0
3, 23025, Note_on_c, 1, 75, 120
3, 23038, Note_on_c, 1, 75, 0
3, 23040, Note_on_c, 1, 74, 120
3, 23145, Note_on_c, 1, 74, 0
3, 23160, Note_on_c, 1, 72, 120
3, 23505, Note_on_c, 1, 72, 0
3, 26760, Note_on_c, 1, 67, 121
3, 27105, Note_on_c, 1, 67, 0
3, 27120, Note_on_c, 1, 69, 120
3, 27465, Note_on_c, 1, 69, 0
3, 27480, Note_on_c, 1, 70, 120
3, 27825, Note_on_c, 1, 70, 0
3, 27840, Note_on_c, 1, 70, 120
3, 28185, Note_on_c, 1, 70, 0
3, 28200, Note_on_c, 1, 72, 125
3, 28545, Note_on_c, 1, 72, 0
3, 28560, Note_on_c, 1, 72, 120
3, 28573, Note_on_c, 1, 72, 0
3, 28575, Note_on_c, 1, 74, 120
3, 28588, Note_on_c, 1, 74, 0
3, 28590, Note_on_c, 1, 72, 120
3, 28603, Note_on_c, 1, 72, 0
3, 28605, Note_on_c, 1, 74, 119
3, 28618, Note_on_c, 1, 74, 0
3, 28620, Note_on_c, 1, 72, 119
3, 28633, Note_on_c, 1, 72, 0
3, 28635, Note_on_c, 1, 74, 119
3, 28648, Note_on_c, 1, 74, 0
3, 28650, Note_on_c, 1, 72, 119
3, 28663, Note_on_c, 1, 72, 0
3, 28665, Note_on_c, 1, 74, 119
3, 28678, Note_on_c, 1, 74, 0
3, 28680, Note_on_c, 1, 72, 119
3, 28693, Note_on_c, 1, 72, 0
3, 28695, Note_on_c, 1, 74, 120
3, 28708, Note_on_c, 1, 74, 0
3, 28710, Note_on_c, 1, 72, 120
3, 28723, Note_on_c, 1, 72, 0
3, 28725, Note_on_c, 1, 74, 120
3, 28738, Note_on_c, 1, 74, 0
3, 28740, Note_on_c, 1, 72, 120
3, 28753, Note_on_c, 1, 72, 0
3, 28755, Note_on_c, 1, 74, 120
3, 28768, Note_on_c, 1, 74, 0
3, 28770, Note_on_c, 1, 72, 120
3, 28783, Note_on_c, 1, 72, 0
3, 28785, Note_on_c, 1, 74, 120
3, 28798, Note_on_c, 1, 74, 0
3, 28800, Note_on_c, 1, 72, 120
3, 28905, Note_on_c, 1, 72, 0
3, 28920, Note_on_c, 1, 74, 119
3, 29265, Note_on_c, 1, 74, 0
3, 29280, Note_on_c, 1, 74, 120
3, 29625, Note_on_c, 1, 74, 0
3, 32160, Note_on_c, 1, 74, 121
3, 32505, Note_on_c, 1, 74, 0
3, 32520, Note_on_c, 1, 74, 119
3, 32865, Note_on_c, 1, 74, 0
3, 32880, Note_on_c, 1, 75, 121
3, 33225, Note_on_c, 1, 75, 0
3, 33240, Note_on_c, 1, 74, 119
3, 33585, Note_on_c, 1, 74, 0
3, 33600, Note_on_c, 1, 72, 121
3, 33945, Note_on_c, 1, 72, 0
3, 33960, Note_on_c, 1, 70, 121
3, 34305, Note_on_c, 1, 70, 0
3, 34320, Note_on_c, 1, 69, 119
3, 34665, Note_on_c, 1, 69, 0
3, 34680, Note_on_c, 1, 69, 121
3, 35025, Note_on_c, 1, 69, 0
3, 35040, Note_on_c, 1, 67, 122
3, 35505, Note_on_c, 1, 67, 0
3, 35505, End_track
4, 0, Start_track
4, 0, MIDI_port, 0
4, 0, Title_t, "Trombone"
4, 0, Program_c, 2, 57
4, 0, Control_c, 2, 7, 120
4, 0, Control_c, 2, 10, 64
4, 48, Control_c, 2, 7, 119
4, 26760, Note_on_c, 2, 67, 127
4, 27225, Note_on_c, 2, 67, 0
4, 27240, Note_on_c, 2, 66, 127
4, 27292, Note_on_c, 2, 66, 0
4, 27300, Note_on_c, 2, 64, 127
4, 27352, Note_on_c, 2, 64, 0
4, 27360, Note_on_c, 2, 66, 127
4, 27465, Note_on_c, 2, 66, 0
4, 27480, Note_on_c, 2, 67, 127
4, 27825, Note_on_c, 2, 67, 0
4, 27840, Note_on_c, 2, 67, 127
4, 28252, Note_on_c, 2, 67, 0
4, 28260, Note_on_c, 2, 69, 127
4, 28312, Note_on_c, 2, 69, 0
4, 28320, Note_on_c, 2, 70, 127
4, 28372, Note_on_c, 2, 70, 0
4, 28380, Note_on_c, 2, 69, 127
4, 28432, Note_on_c, 2, 69, 0
4, 28440, Note_on_c, 2, 70, 127
4, 28545, Note_on_c, 2, 70, 0
4, 28560, Note_on_c, 2, 69, 127
4, 28905, Note_on_c, 2, 69, 0
4, 28920, Note_on_c, 2, 70, 127
4, 29265, Note_on_c, 2, 70, 0
4, 29280, Note_on_c, 2, 70, 127
4, 29625, Note_on_c, 2, 70, 0
4, 32220, Note_on_c, 2, 62, 127
4, 32272, Note_on_c, 2, 62, 0
4, 32280, Note_on_c, 2, 67, 127
4, 32332, Note_on_c, 2, 67, 0
4, 32340, Note_on_c, 2, 70, 127
4, 32392, Note_on_c, 2, 70, 0
4, 32400, Note_on_c, 2, 69, 127
4, 32452, Note_on_c, 2, 69, 0
4, 32460, Note_on_c, 2, 72, 127
4, 32512, Note_on_c, 2, 72, 0
4, 32520, Note_on_c, 2, 71, 127
4, 32865, Note_on_c, 2, 71, 0
4, 32880, Note_on_c, 2, 72, 127
4, 33345, Note_on_c, 2, 72, 0
4, 33360, Note_on_c, 2, 70, 127
4, 33412, Note_on_c, 2, 70, 0
4, 33420, Note_on_c, 2, 69, 127
4, 33472, Note_on_c, 2, 69, 0
4, 33480, Note_on_c, 2, 70, 127
4, 33705, Note_on_c, 2, 70, 0
4, 33720, Note_on_c, 2, 69, 127
4, 33772, Note_on_c, 2, 69, 0
4, 33780, Note_on_c, 2, 67, 127
4, 33832, Note_on_c, 2, 67, 0
4, 33840, Note_on_c, 2, 69, 127
4, 34065, Note_on_c, 2, 69, 0
4, 34080, Note_on_c, 2, 67, 127
4, 34132, Note_on_c, 2, 67, 0
4, 34140, Note_on_c, 2, 66, 127
4, 34192, Note_on_c, 2, 66, 0
4, 34200, Note_on_c, 2, 67, 127
4, 34665, Note_on_c, 2, 67, 0
4, 34680, Note_on_c, 2, 66, 127
4, 34845, Note_on_c, 2, 66, 0
4, 34860, Note_on_c, 2, 64, 127
4, 34912, Note_on_c, 2, 64, 0
4, 34920, Note_on_c, 2, 62, 127
4, 35092, Note_on_c, 2, 62, 0
4, 35100, Note_on_c, 2, 60, 127
4, 35152, Note_on_c, 2, 60, 0
4, 35160, Note_on_c, 2, 62, 127
4, 35212, Note_on_c, 2, 62, 0
4, 35220, Note_on_c, 2, 59, 127
4, 35272, Note_on_c, 2, 59, 0
4, 35280, Note_on_c, 2, 60, 127
4, 35332, Note_on_c, 2, 60, 0
4, 35340, Note_on_c, 2, 62, 127
4, 35392, Note_on_c, 2, 62, 0
4, 35400, Note_on_c, 2, 63, 127
4, 35452, Note_on_c, 2, 63, 0
4, 35460, Note_on_c, 2, 62, 127
4, 35512, Note_on_c, 2, 62, 0
4, 35520, Note_on_c, 2, 63, 127
4, 35572, Note_on_c, 2, 63, 0
4, 35580, Note_on_c, 2, 65, 127
4, 35632, Note_on_c, 2, 65, 0
4, 35640, Note_on_c, 2, 67, 127
4, 35692, Note_on_c, 2, 67, 0
4, 35700, Note_on_c, 2, 68, 127
4, 35752, Note_on_c, 2, 68, 0
4, 35760, Note_on_c, 2, 62, 127
4, 35865, Note_on_c, 2, 62, 0
4, 35865, End_track
5, 0, Start_track
5, 0, MIDI_port, 0
5, 0, Title_t, "Oboe"
5, 0, Program_c, 3, 68
5, 0, Control_c, 3, 7, 100
5, 0, Control_c, 3, 10, 1
5, 34, Control_c, 3, 7, 99
5, 240, Note_on_c, 3, 62, 90
5, 345, Note_on_c, 3, 62, 0
5, 360, Note_on_c, 3, 62, 90
5, 465, Note_on_c, 3, 62, 0
5, 480, Note_on_c, 3, 62, 90
5, 825, Note_on_c, 3, 62, 0
5, 840, Note_on_c, 3, 60, 90
5, 945, Note_on_c, 3, 60, 0
5, 960, Note_on_c, 3, 62, 90
5, 1492, Note_on_c, 3, 62, 0
5, 1500, Note_on_c, 3, 64, 90
5, 1552, Note_on_c, 3, 64, 0
5, 1560, Note_on_c, 3, 66, 90
5, 1612, Note_on_c, 3, 66, 0
5, 1620, Note_on_c, 3, 67, 90
5, 1672, Note_on_c, 3, 67, 0
5, 1680, Note_on_c, 3, 69, 90
5, 1785, Note_on_c, 3, 69, 0
5, 1800, Note_on_c, 3, 62, 90
5, 2085, Note_on_c, 3, 62, 0
5, 2100, Note_on_c, 3, 62, 127
5, 2152, Note_on_c, 3, 62, 0
5, 2160, Note_on_c, 3, 64, 127
5, 2212, Note_on_c, 3, 64, 0
5, 2220, Note_on_c, 3, 66, 127
5, 2272, Note_on_c, 3, 66, 0
5, 2280, Note_on_c, 3, 67, 127
5, 2332, Note_on_c, 3, 67, 0
5, 2340, Note_on_c, 3, 69, 127
5, 2392, Note_on_c, 3, 69, 0
5, 2400, Note_on_c, 3, 70, 127
5, 2452, Note_on_c, 3, 70, 0
5, 2460, Note_on_c, 3, 69, 127
5, 2512, Note_on_c, 3, 69, 0
5, 2520, Note_on_c, 3, 67, 127
5, 2572, Note_on_c, 3, 67, 0
5, 2580, Note_on_c, 3, 66, 127
5, 2632, Note_on_c, 3, 66, 0
5, 2640, Note_on_c, 3, 67, 127
5, 2692, Note_on_c, 3, 67, 0
5, 2700, Note_on_c, 3, 65, 127
5, 2752, Note_on_c, 3, 65, 0
5, 2760, Note_on_c, 3, 63, 90
5, 2812, Note_on_c, 3, 63, 0
5, 2820, Note_on_c, 3, 62, 90
5, 2872, Note_on_c, 3, 62, 0
5, 2880, Note_on_c, 3, 60, 90
5, 2932, Note_on_c, 3, 60, 0
5, 2940, Note_on_c, 3, 62, 90
5, 2992, Note_on_c, 3, 62, 0
5, 3000, Note_on_c, 3, 63, 90
5, 3165, Note_on_c, 3, 63, 0
5, 3180, Note_on_c, 3, 63, 90
5, 3232, Note_on_c, 3, 63, 0
5, 3240, Note_on_c, 3, 62, 90
5, 3292, Note_on_c, 3, 62, 0
5, 3300, Note_on_c, 3, 60, 90
5, 3352, Note_on_c, 3, 60, 0
5, 3360, Note_on_c, 3, 58, 90
5, 3412, Note_on_c, 3, 58, 0
5, 3420, Note_on_c, 3, 60, 90
5, 3472, Note_on_c, 3, 60, 0
5, 3480, Note_on_c, 3, 62, 90
5, 3705, Note_on_c, 3, 62, 0
5, 3720, Note_on_c, 3, 63, 90
5, 3772, Note_on_c, 3, 63, 0
5, 3780, Note_on_c, 3, 68, 90
5, 3832, Note_on_c, 3, 68, 0
5, 3840, Note_on_c, 3, 67, 90
5, 3892, Note_on_c, 3, 67, 0
5, 3900, Note_on_c, 3, 65, 90
5, 3952, Note_on_c, 3, 65, 0
5, 3960, Note_on_c, 3, 63, 90
5, 4012, Note_on_c, 3, 63, 0
5, 4020, Note_on_c, 3, 62, 90
5, 4072, Note_on_c, 3, 62, 0
5, 4080, Note_on_c, 3, 60, 90
5, 4305, Note_on_c, 3, 60, 0
5, 4320, Note_on_c, 3, 62, 90
5, 4492, Note_on_c, 3, 62, 0
5, 4500, Note_on_c, 3, 62, 90
5, 4552, Note_on_c, 3, 62, 0
5, 4560, Note_on_c, 3, 64, 90
5, 4612, Note_on_c, 3, 64, 0
5, 4620, Note_on_c, 3, 65, 90
5, 4672, Note_on_c, 3, 65, 0
5, 4680, Note_on_c, 3, 67, 90
5, 4732, Note_on_c, 3, 67, 0
5, 4740, Note_on_c, 3, 61, 90
5, 4792, Note_on_c, 3, 61, 0
5, 4800, Note_on_c, 3, 62, 90
5, 4852, Note_on_c, 3, 62, 0
5, 4860, Note_on_c, 3, 64, 90
5, 4912, Note_on_c, 3, 64, 0
5, 4920, Note_on_c, 3, 65, 90
5, 4972, Note_on_c, 3, 65, 0
5, 4980, Note_on_c, 3, 67, 90
5, 5032, Note_on_c, 3, 67, 0
5, 5040, Note_on_c, 3, 69, 90
5, 5212, Note_on_c, 3, 69, 0
5, 5220, Note_on_c, 3, 70, 90
5, 5272, Note_on_c, 3, 70, 0
5, 5280, Note_on_c, 3, 69, 90
5, 5332, Note_on_c, 3, 69, 0
5, 5340, Note_on_c, 3, 67, 90
5, 5392, Note_on_c, 3, 67, 0
5, 5400, Note_on_c, 3, 65, 90
5, 5452, Note_on_c, 3, 65, 0
5, 5460, Note_on_c, 3, 64, 90
5, 5512, Note_on_c, 3, 64, 0
5, 5520, Note_on_c, 3, 65, 90
5, 5572, Note_on_c, 3, 65, 0
5, 5580, Note_on_c, 3, 69, 119
5, 5632, Note_on_c, 3, 69, 0
5, 5640, Note_on_c, 3, 67, 118
5, 5692, Note_on_c, 3, 67, 0
5, 5700, Note_on_c, 3, 65, 119
5, 5752, Note_on_c, 3, 65, 0
5, 5760, Note_on_c, 3, 64, 119
5, 5812, Note_on_c, 3, 64, 0
5, 5820, Note_on_c, 3, 65, 121
5, 5872, Note_on_c, 3, 65, 0
5, 5880, Note_on_c, 3, 62, 82
5, 5985, Note_on_c, 3, 62, 0
5, 6360, Note_on_c, 3, 67, 90
5, 6465, Note_on_c, 3, 67, 0
5, 6480, Note_on_c, 3, 65, 90
5, 6585, Note_on_c, 3, 65, 0
5, 6600, Note_on_c, 3, 65, 90
5, 6945, Note_on_c, 3, 65, 0
5, 6960, Note_on_c, 3, 63, 69
5, 7065, Note_on_c, 3, 63, 0
5, 7080, Note_on_c, 3, 65, 90
5, 7612, Note_on_c, 3, 65, 0
5, 7620, Note_on_c, 3, 67, 90
5, 7672, Note_on_c, 3, 67, 0
5, 7680, Note_on_c, 3, 69, 90
5, 7732, Note_on_c, 3, 69, 0
5, 7740, Note_on_c, 3, 70, 90
5, 7792, Note_on_c, 3, 70, 0
5, 7800, Note_on_c, 3, 72, 90
5, 7905, Note_on_c, 3, 72, 0
5, 7920, Note_on_c, 3, 65, 90
5, 8205, Note_on_c, 3, 65, 0
5, 8220, Note_on_c, 3, 65, 127
5, 8272, Note_on_c, 3, 65, 0
5, 8280, Note_on_c, 3, 67, 127
5, 8332, Note_on_c, 3, 67, 0
5, 8340, Note_on_c, 3, 69, 127
5, 8392, Note_on_c, 3, 69, 0
5, 8400, Note_on_c, 3, 70, 127
5, 8452, Note_on_c, 3, 70, 0
5, 8460, Note_on_c, 3, 72, 127
5, 8512, Note_on_c, 3, 72, 0
5, 8520, Note_on_c, 3, 74, 127
5, 8572, Note_on_c, 3, 74, 0
5, 8580, Note_on_c, 3, 72, 127
5, 8632, Note_on_c, 3, 72, 0
5, 8640, Note_on_c, 3, 70, 127
5, 8692, Note_on_c, 3, 70, 0
5, 8700, Note_on_c, 3, 69, 127
5, 8752, Note_on_c, 3, 69, 0
5, 8760, Note_on_c, 3, 70, 127
5, 8812, Note_on_c, 3, 70, 0
5, 8820, Note_on_c, 3, 68, 90
5, 8872, Note_on_c, 3, 68, 0
5, 8880, Note_on_c, 3, 67, 90
5, 8932, Note_on_c, 3, 67, 0
5, 8940, Note_on_c, 3, 65, 90
5, 8992, Note_on_c, 3, 65, 0
5, 9000, Note_on_c, 3, 63, 90
5, 9052, Note_on_c, 3, 63, 0
5, 9060, Note_on_c, 3, 65, 90
5, 9112, Note_on_c, 3, 65, 0
5, 9120, Note_on_c, 3, 67, 90
5, 9285, Note_on_c, 3, 67, 0
5, 9300, Note_on_c, 3, 67, 90
5, 9352, Note_on_c, 3, 67, 0
5, 9360, Note_on_c, 3, 65, 90
5, 9412, Note_on_c, 3, 65, 0
5, 9420, Note_on_c, 3, 63, 90
5, 9472, Note_on_c, 3, 63, 0
5, 9480, Note_on_c, 3, 62, 90
5, 9532, Note_on_c, 3, 62, 0
5, 9540, Note_on_c, 3, 63, 90
5, 9592, Note_on_c, 3, 63, 0
5, 9600, Note_on_c, 3, 65, 90
5, 9705, Note_on_c, 3, 65, 0
5, 9720, Note_on_c, 3, 66, 90
5, 9825, Note_on_c, 3, 66, 0
5, 9840, Note_on_c, 3, 67, 90
5, 9892, Note_on_c, 3, 67, 0
5, 9900, Note_on_c, 3, 68, 90
5, 9952, Note_on_c, 3, 68, 0
5, 9960, Note_on_c, 3, 67, 90
5, 10012, Note_on_c, 3, 67, 0
5, 10020, Note_on_c, 3, 65, 90
5, 10072, Note_on_c, 3, 65, 0
5, 10080, Note_on_c, 3, 63, 90
5, 10132, Note_on_c, 3, 63, 0
5, 10140, Note_on_c, 3, 62, 90
5, 10192, Note_on_c, 3, 62, 0
5, 10200, Note_on_c, 3, 63, 90
5, 10252, Note_on_c, 3, 63, 0
5, 10260, Note_on_c, 3, 65, 90
5, 10312, Note_on_c, 3, 65, 0
5, 10320, Note_on_c, 3, 67, 90
5, 10425, Note_on_c, 3, 67, 0
5, 10440, Note_on_c, 3, 65, 90
5, 10612, Note_on_c, 3, 65, 0
5, 10620, Note_on_c, 3, 62, 90
5, 10672, Note_on_c, 3, 62, 0
5, 10680, Note_on_c, 3, 64, 90
5, 10732, Note_on_c, 3, 64, 0
5, 10740, Note_on_c, 3, 66, 90
5, 10792, Note_on_c, 3, 66, 0
5, 10800, Note_on_c, 3, 67, 90
5, 11332, Note_on_c, 3, 67, 0
5, 11340, Note_on_c, 3, 60, 90
5, 11392, Note_on_c, 3, 60, 0
5, 11400, Note_on_c, 3, 65, 90
5, 11452, Note_on_c, 3, 65, 0
5, 11460, Note_on_c, 3, 67, 90
5, 11512, Note_on_c, 3, 67, 0
5, 11520, Note_on_c, 3, 65, 90
5, 11572, Note_on_c, 3, 65, 0
5, 11580, Note_on_c, 3, 63, 90
5, 11632, Note_on_c, 3, 63, 0
5, 11640, Note_on_c, 3, 62, 90
5, 11745, Note_on_c, 3, 62, 0
5, 11760, Note_on_c, 3, 67, 90
5, 11865, Note_on_c, 3, 67, 0
5, 11880, Note_on_c, 3, 65, 127
5, 11932, Note_on_c, 3, 65, 0
5, 11940, Note_on_c, 3, 67, 127
5, 11992, Note_on_c, 3, 67, 0
5, 12000, Note_on_c, 3, 69, 127
5, 12052, Note_on_c, 3, 69, 0
5, 12060, Note_on_c, 3, 70, 127
5, 12112, Note_on_c, 3, 70, 0
5, 12120, Note_on_c, 3, 72, 127
5, 12172, Note_on_c, 3, 72, 0
5, 12180, Note_on_c, 3, 70, 127
5, 12232, Note_on_c, 3, 70, 0
5, 12240, Note_on_c, 3, 72, 127
5, 12292, Note_on_c, 3, 72, 0
5, 12300, Note_on_c, 3, 69, 127
5, 12352, Note_on_c, 3, 69, 0
5, 12360, Note_on_c, 3, 70, 127
5, 12465, Note_on_c, 3, 70, 0
5, 12780, Note_on_c, 3, 62, 90
5, 12832, Note_on_c, 3, 62, 0
5, 12840, Note_on_c, 3, 63, 90
5, 12892, Note_on_c, 3, 63, 0
5, 12900, Note_on_c, 3, 65, 90
5, 12952, Note_on_c, 3, 65, 0
5, 12960, Note_on_c, 3, 67, 90
5, 13012, Note_on_c, 3, 67, 0
5, 13020, Note_on_c, 3, 69, 90
5, 13072, Note_on_c, 3, 69, 0
5, 13080, Note_on_c, 3, 70, 90
5, 13132, Note_on_c, 3, 70, 0
5, 13140, Note_on_c, 3, 75, 90
5, 13192, Note_on_c, 3, 75, 0
5, 13200, Note_on_c, 3, 74, 90
5, 13252, Note_on_c, 3, 74, 0
5, 13260, Note_on_c, 3, 72, 90
5, 13312, Note_on_c, 3, 72, 0
5, 13320, Note_on_c, 3, 70, 90
5, 13372, Note_on_c, 3, 70, 0
5, 13380, Note_on_c, 3, 69, 90
5, 13432, Note_on_c, 3, 69, 0
5, 13440, Note_on_c, 3, 67, 90
5, 13605, Note_on_c, 3, 67, 0
5, 13620, Note_on_c, 3, 65, 90
5, 13732, Note_on_c, 3, 65, 0
5, 13740, Note_on_c, 3, 64, 90
5, 13792, Note_on_c, 3, 64, 0
5, 13800, Note_on_c, 3, 69, 90
5, 13852, Note_on_c, 3, 69, 0
5, 13860, Note_on_c, 3, 70, 90
5, 13912, Note_on_c, 3, 70, 0
5, 13920, Note_on_c, 3, 69, 90
5, 13972, Note_on_c, 3, 69, 0
5, 13980, Note_on_c, 3, 67, 90
5, 14032, Note_on_c, 3, 67, 0
5, 14040, Note_on_c, 3, 69, 90
5, 14092, Note_on_c, 3, 69, 0
5, 14100, Note_on_c, 3, 65, 90
5, 14152, Note_on_c, 3, 65, 0
5, 14160, Note_on_c, 3, 70, 90
5, 14325, Note_on_c, 3, 70, 0
5, 14340, Note_on_c, 3, 69, 90
5, 14392, Note_on_c, 3, 69, 0
5, 14400, Note_on_c, 3, 67, 90
5, 14625, Note_on_c, 3, 67, 0
5, 14640, Note_on_c, 3, 65, 90
5, 14692, Note_on_c, 3, 65, 0
5, 14700, Note_on_c, 3, 63, 90
5, 14752, Note_on_c, 3, 63, 0
5, 14760, Note_on_c, 3, 62, 90
5, 14812, Note_on_c, 3, 62, 0
5, 14820, Note_on_c, 3, 65, 127
5, 14872, Note_on_c, 3, 65, 0
5, 14880, Note_on_c, 3, 67, 127
5, 15045, Note_on_c, 3, 67, 0
5, 15060, Note_on_c, 3, 72, 127
5, 15112, Note_on_c, 3, 72, 0
5, 15120, Note_on_c, 3, 69, 127
5, 15133, Note_on_c, 3, 69, 0
5, 15135, Note_on_c, 3, 70, 127
5, 15148, Note_on_c, 3, 70, 0
5, 15150, Note_on_c, 3, 69, 127
5, 15163, Note_on_c, 3, 69, 0
5, 15165, Note_on_c, 3, 70, 127
5, 15178, Note_on_c, 3, 70, 0
5, 15180, Note_on_c, 3, 67, 127
5, 15206, Note_on_c, 3, 67, 0
5, 15210, Note_on_c, 3, 69, 127
5, 15236, Note_on_c, 3, 69, 0
5, 15240, Note_on_c, 3, 70, 127
5, 15345, Note_on_c, 3, 70, 0
5, 15660, Note_on_c, 3, 72, 90
5, 15712, Note_on_c, 3, 72, 0
5, 15720, Note_on_c, 3, 70, 90
5, 15772, Note_on_c, 3, 70, 0
5, 15780, Note_on_c, 3, 69, 90
5, 15832, Note_on_c, 3, 69, 0
5, 15840, Note_on_c, 3, 67, 90
5, 15892, Note_on_c, 3, 67, 0
5, 15900, Note_on_c, 3, 69, 90
5, 15952, Note_on_c, 3, 69, 0
5, 15960, Note_on_c, 3, 70, 90
5, 16012, Note_on_c, 3, 70, 0
5, 16020, Note_on_c, 3, 72, 90
5, 16072, Note_on_c, 3, 72, 0
5, 16080, Note_on_c, 3, 70, 90
5, 16132, Note_on_c, 3, 70, 0
5, 16140, Note_on_c, 3, 69, 90
5, 16192, Note_on_c, 3, 69, 0
5, 16200, Note_on_c, 3, 67, 90
5, 16252, Note_on_c, 3, 67, 0
5, 16260, Note_on_c, 3, 66, 90
5, 16312, Note_on_c, 3, 66, 0
5, 16320, Note_on_c, 3, 67, 90
5, 16372, Note_on_c, 3, 67, 0
5, 16380, Note_on_c, 3, 66, 90
5, 16432, Note_on_c, 3, 66, 0
5, 16440, Note_on_c, 3, 67, 90
5, 16492, Note_on_c, 3, 67, 0
5, 16500, Note_on_c, 3, 69, 90
5, 16552, Note_on_c, 3, 69, 0
5, 16560, Note_on_c, 3, 70, 90
5, 16732, Note_on_c, 3, 70, 0
5, 16740, Note_on_c, 3, 70, 90
5, 16792, Note_on_c, 3, 70, 0
5, 16800, Note_on_c, 3, 69, 90
5, 16852, Note_on_c, 3, 69, 0
5, 16860, Note_on_c, 3, 67, 90
5, 16912, Note_on_c, 3, 67, 0
5, 16920, Note_on_c, 3, 65, 90
5, 16972, Note_on_c, 3, 65, 0
5, 16980, Note_on_c, 3, 63, 90
5, 17032, Note_on_c, 3, 63, 0
5, 17040, Note_on_c, 3, 65, 90
5, 17332, Note_on_c, 3, 65, 0
5, 17340, Note_on_c, 3, 64, 90
5, 17392, Note_on_c, 3, 64, 0
5, 17400, Note_on_c, 3, 65, 90
5, 17452, Note_on_c, 3, 65, 0
5, 17460, Note_on_c, 3, 67, 90
5, 17512, Note_on_c, 3, 67, 0
5, 17520, Note_on_c, 3, 65, 90
5, 17572, Note_on_c, 3, 65, 0
5, 17580, Note_on_c, 3, 64, 90
5, 17632, Note_on_c, 3, 64, 0
5, 17640, Note_on_c, 3, 65, 90
5, 17692, Note_on_c, 3, 65, 0
5, 17700, Note_on_c, 3, 67, 90
5, 17752, Note_on_c, 3, 67, 0
5, 17760, Note_on_c, 3, 69, 90
5, 17812, Note_on_c, 3, 69, 0
5, 17820, Note_on_c, 3, 70, 90
5, 17872, Note_on_c, 3, 70, 0
5, 17880, Note_on_c, 3, 69, 90
5, 17932, Note_on_c, 3, 69, 0
5, 17940, Note_on_c, 3, 67, 90
5, 17992, Note_on_c, 3, 67, 0
5, 18000, Note_on_c, 3, 65, 90
5, 18052, Note_on_c, 3, 65, 0
5, 18060, Note_on_c, 3, 64, 90
5, 18112, Note_on_c, 3, 64, 0
5, 18120, Note_on_c, 3, 65, 90
5, 18225, Note_on_c, 3, 65, 0
5, 18240, Note_on_c, 3, 65, 90
5, 18405, Note_on_c, 3, 65, 0
5, 18420, Note_on_c, 3, 62, 90
5, 18472, Note_on_c, 3, 62, 0
5, 18480, Note_on_c, 3, 67, 90
5, 18532, Note_on_c, 3, 67, 0
5, 18540, Note_on_c, 3, 68, 90
5, 18592, Note_on_c, 3, 68, 0
5, 18600, Note_on_c, 3, 67, 90
5, 18652, Note_on_c, 3, 67, 0
5, 18660, Note_on_c, 3, 65, 90
5, 18712, Note_on_c, 3, 65, 0
5, 18720, Note_on_c, 3, 63, 90
5, 18772, Note_on_c, 3, 63, 0
5, 18780, Note_on_c, 3, 62, 90
5, 18832, Note_on_c, 3, 62, 0
5, 18840, Note_on_c, 3, 60, 90
5, 18945, Note_on_c, 3, 60, 0
5, 18960, Note_on_c, 3, 59, 90
5, 19065, Note_on_c, 3, 59, 0
5, 19080, Note_on_c, 3, 60, 90
5, 19185, Note_on_c, 3, 60, 0
5, 19200, Note_on_c, 3, 62, 90
5, 19252, Note_on_c, 3, 62, 0
5, 19260, Note_on_c, 3, 60, 90
5, 19312, Note_on_c, 3, 60, 0
5, 19320, Note_on_c, 3, 62, 90
5, 19372, Note_on_c, 3, 62, 0
5, 19380, Note_on_c, 3, 63, 90
5, 19432, Note_on_c, 3, 63, 0
5, 19440, Note_on_c, 3, 65, 90
5, 19545, Note_on_c, 3, 65, 0
5, 19560, Note_on_c, 3, 63, 90
5, 19665, Note_on_c, 3, 63, 0
5, 19680, Note_on_c, 3, 65, 90
5, 19785, Note_on_c, 3, 65, 0
5, 19800, Note_on_c, 3, 63, 90
5, 19905, Note_on_c, 3, 63, 0
5, 19920, Note_on_c, 3, 59, 90
5, 19972, Note_on_c, 3, 59, 0
5, 19980, Note_on_c, 3, 62, 90
5, 20032, Note_on_c, 3, 62, 0
5, 20040, Note_on_c, 3, 63, 90
5, 20092, Note_on_c, 3, 63, 0
5, 20100, Note_on_c, 3, 62, 90
5, 20152, Note_on_c, 3, 62, 0
5, 20160, Note_on_c, 3, 60, 90
5, 20212, Note_on_c, 3, 60, 0
5, 20220, Note_on_c, 3, 59, 90
5, 20272, Note_on_c, 3, 59, 0
5, 20280, Note_on_c, 3, 60, 90
5, 20332, Note_on_c, 3, 60, 0
5, 20340, Note_on_c, 3, 62, 90
5, 20392, Note_on_c, 3, 62, 0
5, 20400, Note_on_c, 3, 63, 90
5, 20452, Note_on_c, 3, 63, 0
5, 20460, Note_on_c, 3, 65, 90
5, 20512, Note_on_c, 3, 65, 0
5, 20520, Note_on_c, 3, 67, 90
5, 20572, Note_on_c, 3, 67, 0
5, 20580, Note_on_c, 3, 63, 90
5, 20632, Note_on_c, 3, 63, 0
5, 20640, Note_on_c, 3, 68, 90
5, 20692, Note_on_c, 3, 68, 0
5, 20700, Note_on_c, 3, 67, 90
5, 20752, Note_on_c, 3, 67, 0
5, 20760, Note_on_c, 3, 65, 90
5, 20812, Note_on_c, 3, 65, 0
5, 20820, Note_on_c, 3, 68, 90
5, 20872, Note_on_c, 3, 68, 0
5, 20880, Note_on_c, 3, 67, 90
5, 20932, Note_on_c, 3, 67, 0
5, 20940, Note_on_c, 3, 65, 90
5, 20992, Note_on_c, 3, 65, 0
5, 21000, Note_on_c, 3, 63, 90
5, 21052, Note_on_c, 3, 63, 0
5, 21060, Note_on_c, 3, 65, 90
5, 21112, Note_on_c, 3, 65, 0
5, 21120, Note_on_c, 3, 67, 90
5, 21172, Note_on_c, 3, 67, 0
5, 21180, Note_on_c, 3, 68, 90
5, 21232, Note_on_c, 3, 68, 0
5, 21240, Note_on_c, 3, 70, 90
5, 21292, Note_on_c, 3, 70, 0
5, 21300, Note_on_c, 3, 67, 90
5, 21352, Note_on_c, 3, 67, 0
5, 21360, Note_on_c, 3, 72, 90
5, 21412, Note_on_c, 3, 72, 0
5, 21420, Note_on_c, 3, 73, 90
5, 21472, Note_on_c, 3, 73, 0
5, 21480, Note_on_c, 3, 72, 90
5, 21532, Note_on_c, 3, 72, 0
5, 21540, Note_on_c, 3, 70, 90
5, 21592, Note_on_c, 3, 70, 0
5, 21600, Note_on_c, 3, 68, 90
5, 21652, Note_on_c, 3, 68, 0
5, 21660, Note_on_c, 3, 67, 90
5, 21712, Note_on_c, 3, 67, 0
5, 21720, Note_on_c, 3, 68, 90
5, 21772, Note_on_c, 3, 68, 0
5, 21780, Note_on_c, 3, 65, 90
5, 21832, Note_on_c, 3, 65, 0
5, 21840, Note_on_c, 3, 62, 90
5, 21892, Note_on_c, 3, 62, 0
5, 21900, Note_on_c, 3, 63, 90
5, 21952, Note_on_c, 3, 63, 0
5, 21960, Note_on_c, 3, 65, 90
5, 22012, Note_on_c, 3, 65, 0
5, 22020, Note_on_c, 3, 62, 90
5, 22072, Note_on_c, 3, 62, 0
5, 22080, Note_on_c, 3, 67, 90
5, 22132, Note_on_c, 3, 67, 0
5, 22140, Note_on_c, 3, 65, 90
5, 22192, Note_on_c, 3, 65, 0
5, 22200, Note_on_c, 3, 63, 90
5, 22252, Note_on_c, 3, 63, 0
5, 22260, Note_on_c, 3, 65, 90
5, 22312, Note_on_c, 3, 65, 0
5, 22320, Note_on_c, 3, 67, 90
5, 22372, Note_on_c, 3, 67, 0
5, 22380, Note_on_c, 3, 63, 90
5, 22432, Note_on_c, 3, 63, 0
5, 22440, Note_on_c, 3, 68, 90
5, 22492, Note_on_c, 3, 68, 0
5, 22500, Note_on_c, 3, 70, 90
5, 22552, Note_on_c, 3, 70, 0
5, 22560, Note_on_c, 3, 68, 90
5, 22612, Note_on_c, 3, 68, 0
5, 22620, Note_on_c, 3, 67, 90
5, 22672, Note_on_c, 3, 67, 0
5, 22680, Note_on_c, 3, 65, 90
5, 22732, Note_on_c, 3, 65, 0
5, 22740, Note_on_c, 3, 63, 90
5, 22792, Note_on_c, 3, 63, 0
5, 22800, Note_on_c, 3, 65, 90
5, 22852, Note_on_c, 3, 65, 0
5, 22860, Note_on_c, 3, 68, 90
5, 22912, Note_on_c, 3, 68, 0
5, 22920, Note_on_c, 3, 67, 90
5, 22972, Note_on_c, 3, 67, 0
5, 22980, Note_on_c, 3, 65, 90
5, 23032, Note_on_c, 3, 65, 0
5, 23040, Note_on_c, 3, 64, 90
5, 23092, Note_on_c, 3, 64, 0
5, 23100, Note_on_c, 3, 65, 90
5, 23152, Note_on_c, 3, 65, 0
5, 23160, Note_on_c, 3, 64, 90
5, 23212, Note_on_c, 3, 64, 0
5, 23220, Note_on_c, 3, 65, 90
5, 23272, Note_on_c, 3, 65, 0
5, 23280, Note_on_c, 3, 67, 90
5, 23332, Note_on_c, 3, 67, 0
5, 23340, Note_on_c, 3, 68, 90
5, 23392, Note_on_c, 3, 68, 0
5, 23400, Note_on_c, 3, 70, 90
5, 23452, Note_on_c, 3, 70, 0
5, 23460, Note_on_c, 3, 67, 90
5, 23512, Note_on_c, 3, 67, 0
5, 23520, Note_on_c, 3, 72, 121
5, 23685, Note_on_c, 3, 72, 0
5, 23700, Note_on_c, 3, 74, 127
5, 23752, Note_on_c, 3, 74, 0
5, 23760, Note_on_c, 3, 71, 127
5, 23865, Note_on_c, 3, 71, 0
5, 23880, Note_on_c, 3, 72, 127
5, 23985, Note_on_c, 3, 72, 0
5, 24360, Note_on_c, 3, 67, 90
5, 24525, Note_on_c, 3, 67, 0
5, 24540, Note_on_c, 3, 66, 90
5, 24592, Note_on_c, 3, 66, 0
5, 24600, Note_on_c, 3, 67, 90
5, 25012, Note_on_c, 3, 67, 0
5, 25020, Note_on_c, 3, 65, 90
5, 25072, Note_on_c, 3, 65, 0
5, 25080, Note_on_c, 3, 63, 90
5, 25132, Note_on_c, 3, 63, 0
5, 25140, Note_on_c, 3, 62, 90
5, 25192, Note_on_c, 3, 62, 0
5, 25200, Note_on_c, 3, 60, 90
5, 25305, Note_on_c, 3, 60, 0
5, 25320, Note_on_c, 3, 62, 90
5, 25372, Note_on_c, 3, 62, 0
5, 25380, Note_on_c, 3, 60, 90
5, 25432, Note_on_c, 3, 60, 0
5, 25440, Note_on_c, 3, 62, 90
5, 25492, Note_on_c, 3, 62, 0
5, 25500, Note_on_c, 3, 63, 90
5, 25552, Note_on_c, 3, 63, 0
5, 25560, Note_on_c, 3, 65, 90
5, 25612, Note_on_c, 3, 65, 0
5, 25620, Note_on_c, 3, 62, 90
5, 25672, Note_on_c, 3, 62, 0
5, 25680, Note_on_c, 3, 67, 90
5, 25785, Note_on_c, 3, 67, 0
5, 25800, Note_on_c, 3, 62, 90
5, 26092, Note_on_c, 3, 62, 0
5, 26100, Note_on_c, 3, 64, 127
5, 26152, Note_on_c, 3, 64, 0
5, 26160, Note_on_c, 3, 66, 127
5, 26212, Note_on_c, 3, 66, 0
5, 26220, Note_on_c, 3, 67, 127
5, 26272, Note_on_c, 3, 67, 0
5, 26280, Note_on_c, 3, 69, 127
5, 26332, Note_on_c, 3, 69, 0
5, 26340, Note_on_c, 3, 66, 127
5, 26392, Note_on_c, 3, 66, 0
5, 26400, Note_on_c, 3, 70, 127
5, 26452, Note_on_c, 3, 70, 0
5, 26460, Note_on_c, 3, 72, 127
5, 26512, Note_on_c, 3, 72, 0
5, 26520, Note_on_c, 3, 70, 127
5, 26572, Note_on_c, 3, 70, 0
5, 26580, Note_on_c, 3, 69, 127
5, 26632, Note_on_c, 3, 69, 0
5, 26640, Note_on_c, 3, 67, 127
5, 26692, Note_on_c, 3, 67, 0
5, 26700, Note_on_c, 3, 66, 127
5, 26752, Note_on_c, 3, 66, 0
5, 26760, Note_on_c, 3, 67, 127
5, 26812, Note_on_c, 3, 67, 0
5, 26820, Note_on_c, 3, 62, 90
5, 26872, Note_on_c, 3, 62, 0
5, 26880, Note_on_c, 3, 67, 90
5, 26932, Note_on_c, 3, 67, 0
5, 26940, Note_on_c, 3, 69, 90
5, 26992, Note_on_c, 3, 69, 0
5, 27000, Note_on_c, 3, 67, 90
5, 27052, Note_on_c, 3, 67, 0
5, 27060, Note_on_c, 3, 65, 90
5, 27112, Note_on_c, 3, 65, 0
5, 27120, Note_on_c, 3, 63, 90
5, 27225, Note_on_c, 3, 63, 0
5, 27240, Note_on_c, 3, 62, 90
5, 27532, Note_on_c, 3, 62, 0
5, 27540, Note_on_c, 3, 63, 90
5, 27592, Note_on_c, 3, 63, 0
5, 27600, Note_on_c, 3, 62, 90
5, 27652, Note_on_c, 3, 62, 0
5, 27660, Note_on_c, 3, 60, 90
5, 27712, Note_on_c, 3, 60, 0
5, 27720, Note_on_c, 3, 58, 90
5, 27772, Note_on_c, 3, 58, 0
5, 27780, Note_on_c, 3, 57, 90
5, 27832, Note_on_c, 3, 57, 0
5, 27840, Note_on_c, 3, 55, 90
5, 27892, Note_on_c, 3, 55, 0
5, 27900, Note_on_c, 3, 57, 90
5, 27952, Note_on_c, 3, 57, 0
5, 27960, Note_on_c, 3, 58, 90
5, 28012, Note_on_c, 3, 58, 0
5, 28020, Note_on_c, 3, 60, 90
5, 28072, Note_on_c, 3, 60, 0
5, 28080, Note_on_c, 3, 62, 90
5, 28185, Note_on_c, 3, 62, 0
5, 28200, Note_on_c, 3, 63, 90
5, 28252, Note_on_c, 3, 63, 0
5, 28260, Note_on_c, 3, 62, 90
5, 28312, Note_on_c, 3, 62, 0
5, 28320, Note_on_c, 3, 60, 90
5, 28372, Note_on_c, 3, 60, 0
5, 28380, Note_on_c, 3, 62, 90
5, 28432, Note_on_c, 3, 62, 0
5, 28440, Note_on_c, 3, 60, 90
5, 28492, Note_on_c, 3, 60, 0
5, 28500, Note_on_c, 3, 58, 90
5, 28552, Note_on_c, 3, 58, 0
5, 28560, Note_on_c, 3, 63, 90
5, 28612, Note_on_c, 3, 63, 0
5, 28620, Note_on_c, 3, 62, 90
5, 28672, Note_on_c, 3, 62, 0
5, 28680, Note_on_c, 3, 60, 90
5, 28905, Note_on_c, 3, 60, 0
5, 28920, Note_on_c, 3, 65, 90
5, 29212, Note_on_c, 3, 65, 0
5, 29220, Note_on_c, 3, 67, 90
5, 29272, Note_on_c, 3, 67, 0
5, 29280, Note_on_c, 3, 68, 90
5, 29332, Note_on_c, 3, 68, 0
5, 29340, Note_on_c, 3, 67, 90
5, 29392, Note_on_c, 3, 67, 0
5, 29400, Note_on_c, 3, 65, 90
5, 29452, Note_on_c, 3, 65, 0
5, 29460, Note_on_c, 3, 63, 90
5, 29512, Note_on_c, 3, 63, 0
5, 29520, Note_on_c, 3, 62, 90
5, 29572, Note_on_c, 3, 62, 0
5, 29580, Note_on_c, 3, 60, 90
5, 29632, Note_on_c, 3, 60, 0
5, 29640, Note_on_c, 3, 58, 90
5, 29692, Note_on_c, 3, 58, 0
5, 29700, Note_on_c, 3, 59, 90
5, 29752, Note_on_c, 3, 59, 0
5, 29760, Note_on_c, 3, 60, 90
5, 29812, Note_on_c, 3, 60, 0
5, 29820, Note_on_c, 3, 62, 90
5, 29872, Note_on_c, 3, 62, 0
5, 29880, Note_on_c, 3, 60, 90
5, 29932, Note_on_c, 3, 60, 0
5, 29940, Note_on_c, 3, 59, 90
5, 29992, Note_on_c, 3, 59, 0
5, 30000, Note_on_c, 3, 60, 90
5, 30105, Note_on_c, 3, 60, 0
5, 30120, Note_on_c, 3, 67, 90
5, 30345, Note_on_c, 3, 67, 0
5, 30360, Note_on_c, 3, 65, 90
5, 30945, Note_on_c, 3, 65, 0
5, 30960, Note_on_c, 3, 65, 90
5, 31185, Note_on_c, 3, 65, 0
5, 31200, Note_on_c, 3, 63, 90
5, 31425, Note_on_c, 3, 63, 0
5, 31440, Note_on_c, 3, 62, 90
5, 31605, Note_on_c, 3, 62, 0
5, 31620, Note_on_c, 3, 64, 90
5, 31672, Note_on_c, 3, 64, 0
5, 31680, Note_on_c, 3, 66, 90
5, 31732, Note_on_c, 3, 66, 0
5, 31740, Note_on_c, 3, 62, 90
5, 31792, Note_on_c, 3, 62, 0
5, 31800, Note_on_c, 3, 67, 90
5, 31852, Note_on_c, 3, 67, 0
5, 31860, Note_on_c, 3, 72, 127
5, 31912, Note_on_c, 3, 72, 0
5, 31920, Note_on_c, 3, 70, 127
5, 31972, Note_on_c, 3, 70, 0
5, 31980, Note_on_c, 3, 69, 127
5, 32032, Note_on_c, 3, 69, 0
5, 32040, Note_on_c, 3, 67, 127
5, 32092, Note_on_c, 3, 67, 0
5, 32100, Note_on_c, 3, 66, 127
5, 32152, Note_on_c, 3, 66, 0
5, 32160, Note_on_c, 3, 67, 127
5, 32265, Note_on_c, 3, 67, 0
5, 32580, Note_on_c, 3, 62, 127
5, 32632, Note_on_c, 3, 62, 0
5, 32640, Note_on_c, 3, 67, 127
5, 32692, Note_on_c, 3, 67, 0
5, 32700, Note_on_c, 3, 63, 127
5, 32752, Note_on_c, 3, 63, 0
5, 32760, Note_on_c, 3, 65, 127
5, 32812, Note_on_c, 3, 65, 0
5, 32820, Note_on_c, 3, 62, 127
5, 32872, Note_on_c, 3, 62, 0
5, 32880, Note_on_c, 3, 67, 127
5, 32985, Note_on_c, 3, 67, 0
5, 33000, Note_on_c, 3, 66, 90
5, 33105, Note_on_c, 3, 66, 0
5, 33120, Note_on_c, 3, 67, 90
5, 33225, Note_on_c, 3, 67, 0
5, 33240, Note_on_c, 3, 69, 90
5, 33345, Note_on_c, 3, 69, 0
5, 33360, Note_on_c, 3, 67, 90
5, 33412, Note_on_c, 3, 67, 0
5, 33420, Note_on_c, 3, 66, 90
5, 33472, Note_on_c, 3, 66, 0
5, 33480, Note_on_c, 3, 67, 90
5, 33705, Note_on_c, 3, 67, 0
5, 33720, Note_on_c, 3, 65, 90
5, 33772, Note_on_c, 3, 65, 0
5, 33780, Note_on_c, 3, 63, 90
5, 33832, Note_on_c, 3, 63, 0
5, 33840, Note_on_c, 3, 65, 90
5, 34065, Note_on_c, 3, 65, 0
5, 34080, Note_on_c, 3, 63, 90
5, 34132, Note_on_c, 3, 63, 0
5, 34140, Note_on_c, 3, 62, 90
5, 34192, Note_on_c, 3, 62, 0
5, 34200, Note_on_c, 3, 63, 90
5, 34252, Note_on_c, 3, 63, 0
5, 34260, Note_on_c, 3, 62, 90
5, 34312, Note_on_c, 3, 62, 0
5, 34320, Note_on_c, 3, 63, 90
5, 34665, Note_on_c, 3, 63, 0
5, 34680, Note_on_c, 3, 62, 90
5, 34845, Note_on_c, 3, 62, 0
5, 34860, Note_on_c, 3, 61, 90
5, 34912, Note_on_c, 3, 61, 0
5, 34920, Note_on_c, 3, 62, 90
5, 34972, Note_on_c, 3, 62, 0
5, 34980, Note_on_c, 3, 60, 90
5, 35032, Note_on_c, 3, 60, 0
5, 35040, Note_on_c, 3, 59, 90
5, 35092, Note_on_c, 3, 59, 0
5, 35100, Note_on_c, 3, 57, 90
5, 35152, Note_on_c, 3, 57, 0
5, 35160, Note_on_c, 3, 59, 90
5, 35212, Note_on_c, 3, 59, 0
5, 35220, Note_on_c, 3, 55, 90
5, 35272, Note_on_c, 3, 55, 0
5, 35280, Note_on_c, 3, 57, 90
5, 35332, Note_on_c, 3, 57, 0
5, 35340, Note_on_c, 3, 59, 90
5, 35392, Note_on_c, 3, 59, 0
5, 35400, Note_on_c, 3, 60, 90
5, 35565, Note_on_c, 3, 60, 0
5, 35580, Note_on_c, 3, 59, 90
5, 35632, Note_on_c, 3, 59, 0
5, 35640, Note_on_c, 3, 60, 90
5, 35745, Note_on_c, 3, 60, 0
5, 35760, Note_on_c, 3, 65, 90
5, 35865, Note_on_c, 3, 65, 0
5, 35880, Note_on_c, 3, 59, 90
5, 35985, Note_on_c, 3, 59, 0
5, 36000, Note_on_c, 3, 62, 90
5, 36225, Note_on_c, 3, 62, 0
5, 36240, Note_on_c, 3, 60, 90
5, 36292, Note_on_c, 3, 60, 0
5, 36300, Note_on_c, 3, 62, 90
5, 36352, Note_on_c, 3, 62, 0
5, 36360, Note_on_c, 3, 63, 90
5, 36532, Note_on_c, 3, 63, 0
5, 36540, Note_on_c, 3, 70, 90
5, 36592, Note_on_c, 3, 70, 0
5, 36600, Note_on_c, 3, 69, 90
5, 36652, Note_on_c, 3, 69, 0
5, 36660, Note_on_c, 3, 67, 90
5, 36712, Note_on_c, 3, 67, 0
5, 36720, Note_on_c, 3, 66, 90
5, 36772, Note_on_c, 3, 66, 0
5, 36780, Note_on_c, 3, 67, 90
5, 36832, Note_on_c, 3, 67, 0
5, 36840, Note_on_c, 3, 66, 90
5, 36945, Note_on_c, 3, 66, 0
5, 36960, Note_on_c, 3, 69, 127
5, 37065, Note_on_c, 3, 69, 0
5, 37080, Note_on_c, 3, 67, 127
5, 37305, Note_on_c, 3, 67, 0
5, 37320, Note_on_c, 3, 67, 127
5, 37425, Note_on_c, 3, 67, 0
5, 37440, Note_on_c, 3, 66, 127
5, 37545, Note_on_c, 3, 66, 0
5, 37560, Note_on_c, 3, 62, 127
5, 37920, Note_on_c, 3, 62, 0
5, 37920, End_track
6, 0, Start_track
6, 0, MIDI_port, 0
6, 0, Title_t, "Clarinet"
6, 0, Program_c, 4, 71
6, 0, Control_c, 4, 7, 85
6, 0, Control_c, 4, 10, 126
6, 46, Control_c, 4, 7, 84
6, 240, Note_on_c, 4, 55, 90
6, 345, Note_on_c, 4, 55, 0
6, 360, Note_on_c, 4, 54, 90
6, 465, Note_on_c, 4, 54, 0
6, 480, Note_on_c, 4, 55, 90
6, 645, Note_on_c, 4, 55, 0
6, 660, Note_on_c, 4, 57, 90
6, 712, Note_on_c, 4, 57, 0
6, 720, Note_on_c, 4, 58, 90
6, 945, Note_on_c, 4, 58, 0
6, 960, Note_on_c, 4, 57, 90
6, 1065, Note_on_c, 4, 57, 0
6, 1080, Note_on_c, 4, 55, 90
6, 1305, Note_on_c, 4, 55, 0
6, 1320, Note_on_c, 4, 54, 90
6, 1425, Note_on_c, 4, 54, 0
6, 1440, Note_on_c, 4, 55, 90
6, 1545, Note_on_c, 4, 55, 0
6, 1560, Note_on_c, 4, 60, 90
6, 1665, Note_on_c, 4, 60, 0
6, 1680, Note_on_c, 4, 57, 90
6, 1785, Note_on_c, 4, 57, 0
6, 1800, Note_on_c, 4, 55, 90
6, 2025, Note_on_c, 4, 55, 0
6, 2040, Note_on_c, 4, 54, 90
6, 2145, Note_on_c, 4, 54, 0
6, 2160, Note_on_c, 4, 55, 127
6, 2212, Note_on_c, 4, 55, 0
6, 2220, Note_on_c, 4, 57, 127
6, 2272, Note_on_c, 4, 57, 0
6, 2280, Note_on_c, 4, 58, 127
6, 2332, Note_on_c, 4, 58, 0
6, 2340, Note_on_c, 4, 60, 127
6, 2392, Note_on_c, 4, 60, 0
6, 2400, Note_on_c, 4, 62, 127
6, 2452, Note_on_c, 4, 62, 0
6, 2460, Note_on_c, 4, 60, 127
6, 2512, Note_on_c, 4, 60, 0
6, 2520, Note_on_c, 4, 58, 127
6, 2572, Note_on_c, 4, 58, 0
6, 2580, Note_on_c, 4, 57, 127
6, 2632, Note_on_c, 4, 57, 0
6, 2640, Note_on_c, 4, 58, 127
6, 2745, Note_on_c, 4, 58, 0
6, 2760, Note_on_c, 4, 60, 90
6, 2865, Note_on_c, 4, 60, 0
6, 2880, Note_on_c, 4, 55, 90
6, 3052, Note_on_c, 4, 55, 0
6, 3060, Note_on_c, 4, 58, 90
6, 3112, Note_on_c, 4, 58, 0
6, 3120, Note_on_c, 4, 57, 90
6, 3172, Note_on_c, 4, 57, 0
6, 3180, Note_on_c, 4, 55, 90
6, 3232, Note_on_c, 4, 55, 0
6, 3240, Note_on_c, 4, 54, 90
6, 3345, Note_on_c, 4, 54, 0
6, 3360, Note_on_c, 4, 55, 90
6, 3412, Note_on_c, 4, 55, 0
6, 3420, Note_on_c, 4, 57, 90
6, 3472, Note_on_c, 4, 57, 0
6, 3480, Note_on_c, 4, 58, 90
6, 3532, Note_on_c, 4, 58, 0
6, 3540, Note_on_c, 4, 60, 90
6, 3592, Note_on_c, 4, 60, 0
6, 3600, Note_on_c, 4, 58, 90
6, 3652, Note_on_c, 4, 58, 0
6, 3660, Note_on_c, 4, 56, 90
6, 3712, Note_on_c, 4, 56, 0
6, 3720, Note_on_c, 4, 55, 90
6, 3885, Note_on_c, 4, 55, 0
6, 3900, Note_on_c, 4, 56, 90
6, 3952, Note_on_c, 4, 56, 0
6, 3960, Note_on_c, 4, 58, 90
6, 4132, Note_on_c, 4, 58, 0
6, 4140, Note_on_c, 4, 57, 90
6, 4192, Note_on_c, 4, 57, 0
6, 4200, Note_on_c, 4, 55, 90
6, 4252, Note_on_c, 4, 55, 0
6, 4260, Note_on_c, 4, 54, 90
6, 4312, Note_on_c, 4, 54, 0
6, 4320, Note_on_c, 4, 55, 90
6, 4372, Note_on_c, 4, 55, 0
6, 4380, Note_on_c, 4, 57, 90
6, 4432, Note_on_c, 4, 57, 0
6, 4440, Note_on_c, 4, 58, 90
6, 4605, Note_on_c, 4, 58, 0
6, 4620, Note_on_c, 4, 57, 90
6, 4672, Note_on_c, 4, 57, 0
6, 4680, Note_on_c, 4, 55, 90
6, 4785, Note_on_c, 4, 55, 0
6, 4800, Note_on_c, 4, 57, 90
6, 4965, Note_on_c, 4, 57, 0
6, 4980, Note_on_c, 4, 59, 90
6, 5032, Note_on_c, 4, 59, 0
6, 5040, Note_on_c, 4, 61, 90
6, 5092, Note_on_c, 4, 61, 0
6, 5100, Note_on_c, 4, 57, 90
6, 5152, Note_on_c, 4, 57, 0
6, 5160, Note_on_c, 4, 62, 90
6, 5325, Note_on_c, 4, 62, 0
6, 5340, Note_on_c, 4, 64, 90
6, 5392, Note_on_c, 4, 64, 0
6, 5400, Note_on_c, 4, 62, 90
6, 5452, Note_on_c, 4, 62, 0
6, 5460, Note_on_c, 4, 61, 90
6, 5512, Note_on_c, 4, 61, 0
6, 5520, Note_on_c, 4, 62, 90
6, 5745, Note_on_c, 4, 62, 0
6, 5760, Note_on_c, 4, 61, 90
6, 5865, Note_on_c, 4, 61, 0
6, 5880, Note_on_c, 4, 62, 90
6, 5985, Note_on_c, 4, 62, 0
6, 6360, Note_on_c, 4, 62, 90
6, 6465, Note_on_c, 4, 62, 0
6, 6480, Note_on_c, 4, 60, 90
6, 6585, Note_on_c, 4, 60, 0
6, 6600, Note_on_c, 4, 58, 90
6, 6765, Note_on_c, 4, 58, 0
6, 6780, Note_on_c, 4, 60, 90
6, 6832, Note_on_c, 4, 60, 0
6, 6840, Note_on_c, 4, 62, 90
6, 7065, Note_on_c, 4, 62, 0
6, 7080, Note_on_c, 4, 60, 90
6, 7185, Note_on_c, 4, 60, 0
6, 7200, Note_on_c, 4, 58, 90
6, 7425, Note_on_c, 4, 58, 0
6, 7440, Note_on_c, 4, 57, 90
6, 7545, Note_on_c, 4, 57, 0
6, 7560, Note_on_c, 4, 58, 90
6, 7665, Note_on_c, 4, 58, 0
6, 7680, Note_on_c, 4, 63, 90
6, 7785, Note_on_c, 4, 63, 0
6, 7800, Note_on_c, 4, 60, 90
6, 7905, Note_on_c, 4, 60, 0
6, 7920, Note_on_c, 4, 58, 90
6, 8145, Note_on_c, 4, 58, 0
6, 8160, Note_on_c, 4, 57, 90
6, 8265, Note_on_c, 4, 57, 0
6, 8280, Note_on_c, 4, 58, 90
6, 8332, Note_on_c, 4, 58, 0
6, 8340, Note_on_c, 4, 60, 127
6, 8392, Note_on_c, 4, 60, 0
6, 8400, Note_on_c, 4, 62, 127
6, 8452, Note_on_c, 4, 62, 0
6, 8460, Note_on_c, 4, 63, 127
6, 8512, Note_on_c, 4, 63, 0
6, 8520, Note_on_c, 4, 65, 127
6, 8572, Note_on_c, 4, 65, 0
6, 8580, Note_on_c, 4, 63, 127
6, 8632, Note_on_c, 4, 63, 0
6, 8640, Note_on_c, 4, 62, 127
6, 8692, Note_on_c, 4, 62, 0
6, 8700, Note_on_c, 4, 60, 127
6, 8752, Note_on_c, 4, 60, 0
6, 8760, Note_on_c, 4, 62, 127
6, 8865, Note_on_c, 4, 62, 0
6, 8880, Note_on_c, 4, 63, 90
6, 8985, Note_on_c, 4, 63, 0
6, 9000, Note_on_c, 4, 58, 90
6, 9172, Note_on_c, 4, 58, 0
6, 9180, Note_on_c, 4, 62, 90
6, 9232, Note_on_c, 4, 62, 0
6, 9240, Note_on_c, 4, 60, 90
6, 9292, Note_on_c, 4, 60, 0
6, 9300, Note_on_c, 4, 58, 90
6, 9352, Note_on_c, 4, 58, 0
6, 9360, Note_on_c, 4, 57, 90
6, 9465, Note_on_c, 4, 57, 0
6, 9480, Note_on_c, 4, 58, 90
6, 9645, Note_on_c, 4, 58, 0
6, 9660, Note_on_c, 4, 57, 90
6, 9712, Note_on_c, 4, 57, 0
6, 9720, Note_on_c, 4, 58, 90
6, 9772, Note_on_c, 4, 58, 0
6, 9780, Note_on_c, 4, 60, 90
6, 9832, Note_on_c, 4, 60, 0
6, 9840, Note_on_c, 4, 62, 90
6, 10005, Note_on_c, 4, 62, 0
6, 10020, Note_on_c, 4, 62, 90
6, 10072, Note_on_c, 4, 62, 0
6, 10080, Note_on_c, 4, 60, 90
6, 10132, Note_on_c, 4, 60, 0
6, 10140, Note_on_c, 4, 58, 90
6, 10252, Note_on_c, 4, 58, 0
6, 10260, Note_on_c, 4, 57, 90
6, 10312, Note_on_c, 4, 57, 0
6, 10320, Note_on_c, 4, 58, 90
6, 10372, Note_on_c, 4, 58, 0
6, 10380, Note_on_c, 4, 63, 90
6, 10432, Note_on_c, 4, 63, 0
6, 10440, Note_on_c, 4, 62, 90
6, 10492, Note_on_c, 4, 62, 0
6, 10500, Note_on_c, 4, 60, 90
6, 10552, Note_on_c, 4, 60, 0
6, 10560, Note_on_c, 4, 58, 90
6, 10972, Note_on_c, 4, 58, 0
6, 10980, Note_on_c, 4, 55, 90
6, 11032, Note_on_c, 4, 55, 0
6, 11040, Note_on_c, 4, 60, 90
6, 11092, Note_on_c, 4, 60, 0
6, 11100, Note_on_c, 4, 62, 90
6, 11152, Note_on_c, 4, 62, 0
6, 11160, Note_on_c, 4, 60, 90
6, 11212, Note_on_c, 4, 60, 0
6, 11220, Note_on_c, 4, 58, 90
6, 11272, Note_on_c, 4, 58, 0
6, 11280, Note_on_c, 4, 57, 90
6, 11625, Note_on_c, 4, 57, 0
6, 11640, Note_on_c, 4, 58, 90
6, 11692, Note_on_c, 4, 58, 0
6, 11700, Note_on_c, 4, 57, 90
6, 11752, Note_on_c, 4, 57, 0
6, 11760, Note_on_c, 4, 58, 90
6, 11812, Note_on_c, 4, 58, 0
6, 11820, Note_on_c, 4, 60, 127
6, 11872, Note_on_c, 4, 60, 0
6, 11880, Note_on_c, 4, 62, 127
6, 11932, Note_on_c, 4, 62, 0
6, 11940, Note_on_c, 4, 63, 127
6, 11992, Note_on_c, 4, 63, 0
6, 12000, Note_on_c, 4, 60, 127
6, 12052, Note_on_c, 4, 60, 0
6, 12060, Note_on_c, 4, 62, 127
6, 12112, Note_on_c, 4, 62, 0
6, 12120, Note_on_c, 4, 63, 127
6, 12172, Note_on_c, 4, 63, 0
6, 12180, Note_on_c, 4, 62, 127
6, 12232, Note_on_c, 4, 62, 0
6, 12240, Note_on_c, 4, 63, 127
6, 12292, Note_on_c, 4, 63, 0
6, 12300, Note_on_c, 4, 60, 127
6, 12352, Note_on_c, 4, 60, 0
6, 12360, Note_on_c, 4, 62, 127
6, 12465, Note_on_c, 4, 62, 0
6, 12780, Note_on_c, 4, 58, 90
6, 12832, Note_on_c, 4, 58, 0
6, 12840, Note_on_c, 4, 60, 90
6, 12892, Note_on_c, 4, 60, 0
6, 12900, Note_on_c, 4, 62, 90
6, 12952, Note_on_c, 4, 62, 0
6, 12960, Note_on_c, 4, 64, 90
6, 13012, Note_on_c, 4, 64, 0
6, 13020, Note_on_c, 4, 66, 90
6, 13072, Note_on_c, 4, 66, 0
6, 13080, Note_on_c, 4, 67, 90
6, 13132, Note_on_c, 4, 67, 0
6, 13140, Note_on_c, 4, 72, 90
6, 13192, Note_on_c, 4, 72, 0
6, 13200, Note_on_c, 4, 70, 90
6, 13252, Note_on_c, 4, 70, 0
6, 13260, Note_on_c, 4, 69, 90
6, 13312, Note_on_c, 4, 69, 0
6, 13320, Note_on_c, 4, 67, 90
6, 13372, Note_on_c, 4, 67, 0
6, 13380, Note_on_c, 4, 65, 90
6, 13432, Note_on_c, 4, 65, 0
6, 13440, Note_on_c, 4, 64, 90
6, 13492, Note_on_c, 4, 64, 0
6, 13500, Note_on_c, 4, 62, 90
6, 13552, Note_on_c, 4, 62, 0
6, 13560, Note_on_c, 4, 60, 90
6, 13852, Note_on_c, 4, 60, 0
6, 13860, Note_on_c, 4, 62, 90
6, 13912, Note_on_c, 4, 62, 0
6, 13920, Note_on_c, 4, 60, 90
6, 13972, Note_on_c, 4, 60, 0
6, 13980, Note_on_c, 4, 58, 90
6, 14032, Note_on_c, 4, 58, 0
6, 14040, Note_on_c, 4, 60, 90
6, 14092, Note_on_c, 4, 60, 0
6, 14100, Note_on_c, 4, 57, 90
6, 14152, Note_on_c, 4, 57, 0
6, 14160, Note_on_c, 4, 62, 90
6, 14212, Note_on_c, 4, 62, 0
6, 14220, Note_on_c, 4, 63, 90
6, 14272, Note_on_c, 4, 63, 0
6, 14280, Note_on_c, 4, 65, 90
6, 14332, Note_on_c, 4, 65, 0
6, 14340, Note_on_c, 4, 63, 90
6, 14392, Note_on_c, 4, 63, 0
6, 14400, Note_on_c, 4, 62, 90
6, 14505, Note_on_c, 4, 62, 0
6, 14520, Note_on_c, 4, 60, 90
6, 14572, Note_on_c, 4, 60, 0
6, 14580, Note_on_c, 4, 58, 90
6, 14632, Note_on_c, 4, 58, 0
6, 14640, Note_on_c, 4, 57, 90
6, 14745, Note_on_c, 4, 57, 0
6, 14760, Note_on_c, 4, 58, 90
6, 14932, Note_on_c, 4, 58, 0
6, 14940, Note_on_c, 4, 58, 90
6, 14992, Note_on_c, 4, 58, 0
6, 15000, Note_on_c, 4, 63, 90
6, 15225, Note_on_c, 4, 63, 0
6, 15240, Note_on_c, 4, 62, 90
6, 15292, Note_on_c, 4, 62, 0
6, 15300, Note_on_c, 4, 67, 90
6, 15352, Note_on_c, 4, 67, 0
6, 15360, Note_on_c, 4, 65, 90
6, 15412, Note_on_c, 4, 65, 0
6, 15420, Note_on_c, 4, 63, 90
6, 15472, Note_on_c, 4, 63, 0
6, 15480, Note_on_c, 4, 62, 90
6, 15532, Note_on_c, 4, 62, 0
6, 15540, Note_on_c, 4, 63, 90
6, 15592, Note_on_c, 4, 63, 0
6, 15600, Note_on_c, 4, 65, 90
6, 15825, Note_on_c, 4, 65, 0
6, 15840, Note_on_c, 4, 66, 90
6, 15945, Note_on_c, 4, 66, 0
6, 15960, Note_on_c, 4, 67, 90
6, 16012, Note_on_c, 4, 67, 0
6, 16020, Note_on_c, 4, 63, 90
6, 16072, Note_on_c, 4, 63, 0
6, 16080, Note_on_c, 4, 62, 90
6, 16132, Note_on_c, 4, 62, 0
6, 16140, Note_on_c, 4, 60, 90
6, 16192, Note_on_c, 4, 60, 0
6, 16200, Note_on_c, 4, 58, 90
6, 16252, Note_on_c, 4, 58, 0
6, 16260, Note_on_c, 4, 57, 90
6, 16312, Note_on_c, 4, 57, 0
6, 16320, Note_on_c, 4, 55, 90
6, 16372, Note_on_c, 4, 55, 0
6, 16380, Note_on_c, 4, 57, 90
6, 16432, Note_on_c, 4, 57, 0
6, 16440, Note_on_c, 4, 58, 90
6, 16492, Note_on_c, 4, 58, 0
6, 16500, Note_on_c, 4, 60, 90
6, 16552, Note_on_c, 4, 60, 0
6, 16560, Note_on_c, 4, 62, 90
6, 16612, Note_on_c, 4, 62, 0
6, 16620, Note_on_c, 4, 64, 90
6, 16672, Note_on_c, 4, 64, 0
6, 16680, Note_on_c, 4, 65, 90
6, 16732, Note_on_c, 4, 65, 0
6, 16740, Note_on_c, 4, 64, 90
6, 16792, Note_on_c, 4, 64, 0
6, 16800, Note_on_c, 4, 65, 90
6, 16852, Note_on_c, 4, 65, 0
6, 16860, Note_on_c, 4, 58, 90
6, 16912, Note_on_c, 4, 58, 0
6, 16920, Note_on_c, 4, 57, 90
6, 16972, Note_on_c, 4, 57, 0
6, 16980, Note_on_c, 4, 55, 90
6, 17032, Note_on_c, 4, 55, 0
6, 17040, Note_on_c, 4, 53, 90
6, 17092, Note_on_c, 4, 53, 0
6, 17100, Note_on_c, 4, 57, 90
6, 17152, Note_on_c, 4, 57, 0
6, 17160, Note_on_c, 4, 58, 90
6, 17212, Note_on_c, 4, 58, 0
6, 17220, Note_on_c, 4, 60, 90
6, 17272, Note_on_c, 4, 60, 0
6, 17280, Note_on_c, 4, 62, 90
6, 17385, Note_on_c, 4, 62, 0
6, 17400, Note_on_c, 4, 60, 90
6, 17452, Note_on_c, 4, 60, 0
6, 17460, Note_on_c, 4, 58, 90
6, 17512, Note_on_c, 4, 58, 0
6, 17520, Note_on_c, 4, 57, 90
6, 17572, Note_on_c, 4, 57, 0
6, 17580, Note_on_c, 4, 60, 90
6, 17632, Note_on_c, 4, 60, 0
6, 17640, Note_on_c, 4, 62, 90
6, 17692, Note_on_c, 4, 62, 0
6, 17700, Note_on_c, 4, 64, 90
6, 17752, Note_on_c, 4, 64, 0
6, 17760, Note_on_c, 4, 65, 90
6, 17812, Note_on_c, 4, 65, 0
6, 17820, Note_on_c, 4, 62, 90
6, 17872, Note_on_c, 4, 62, 0
6, 17880, Note_on_c, 4, 60, 90
6, 17932, Note_on_c, 4, 60, 0
6, 17940, Note_on_c, 4, 58, 90
6, 17992, Note_on_c, 4, 58, 0
6, 18000, Note_on_c, 4, 57, 90
6, 18052, Note_on_c, 4, 57, 0
6, 18060, Note_on_c, 4, 55, 90
6, 18112, Note_on_c, 4, 55, 0
6, 18120, Note_on_c, 4, 57, 90
6, 18225, Note_on_c, 4, 57, 0
6, 18240, Note_on_c, 4, 57, 90
6, 18345, Note_on_c, 4, 57, 0
6, 18360, Note_on_c, 4, 59, 90
6, 18465, Note_on_c, 4, 59, 0
6, 18480, Note_on_c, 4, 60, 90
6, 18772, Note_on_c, 4, 60, 0
6, 18780, Note_on_c, 4, 58, 90
6, 18832, Note_on_c, 4, 58, 0
6, 18840, Note_on_c, 4, 56, 90
6, 18892, Note_on_c, 4, 56, 0
6, 18900, Note_on_c, 4, 55, 90
6, 18952, Note_on_c, 4, 55, 0
6, 18960, Note_on_c, 4, 53, 90
6, 19065, Note_on_c, 4, 53, 0
6, 19080, Note_on_c, 4, 55, 90
6, 19425, Note_on_c, 4, 55, 0
6, 19440, Note_on_c, 4, 59, 90
6, 19545, Note_on_c, 4, 59, 0
6, 19560, Note_on_c, 4, 60, 90
6, 19665, Note_on_c, 4, 60, 0
6, 19680, Note_on_c, 4, 62, 90
6, 19785, Note_on_c, 4, 62, 0
6, 19800, Note_on_c, 4, 55, 90
6, 20085, Note_on_c, 4, 55, 0
6, 20100, Note_on_c, 4, 53, 90
6, 20152, Note_on_c, 4, 53, 0
6, 20160, Note_on_c, 4, 51, 90
6, 20212, Note_on_c, 4, 51, 0
6, 20220, Note_on_c, 4, 50, 90
6, 20272, Note_on_c, 4, 50, 0
6, 20280, Note_on_c, 4, 48, 90
6, 20385, Note_on_c, 4, 48, 0
6, 20400, Note_on_c, 4, 55, 90
6, 20505, Note_on_c, 4, 55, 0
6, 20520, Note_on_c, 4, 60, 90
6, 20865, Note_on_c, 4, 60, 0
6, 20880, Note_on_c, 4, 59, 90
6, 20985, Note_on_c, 4, 59, 0
6, 21000, Note_on_c, 4, 60, 90
6, 21052, Note_on_c, 4, 60, 0
6, 21060, Note_on_c, 4, 62, 90
6, 21112, Note_on_c, 4, 62, 0
6, 21120, Note_on_c, 4, 63, 90
6, 21225, Note_on_c, 4, 63, 0
6, 21240, Note_on_c, 4, 61, 90
6, 21345, Note_on_c, 4, 61, 0
6, 21360, Note_on_c, 4, 60, 90
6, 21825, Note_on_c, 4, 60, 0
6, 21840, Note_on_c, 4, 59, 90
6, 21892, Note_on_c, 4, 59, 0
6, 21900, Note_on_c, 4, 60, 90
6, 21952, Note_on_c, 4, 60, 0
6, 21960, Note_on_c, 4, 62, 90
6, 22012, Note_on_c, 4, 62, 0
6, 22020, Note_on_c, 4, 59, 90
6, 22072, Note_on_c, 4, 59, 0
6, 22080, Note_on_c, 4, 63, 90
6, 22132, Note_on_c, 4, 63, 0
6, 22140, Note_on_c, 4, 62, 90
6, 22192, Note_on_c, 4, 62, 0
6, 22200, Note_on_c, 4, 60, 90
6, 22252, Note_on_c, 4, 60, 0
6, 22260, Note_on_c, 4, 62, 90
6, 22312, Note_on_c, 4, 62, 0
6, 22320, Note_on_c, 4, 63, 90
6, 22372, Note_on_c, 4, 63, 0
6, 22380, Note_on_c, 4, 60, 90
6, 22432, Note_on_c, 4, 60, 0
6, 22440, Note_on_c, 4, 65, 90
6, 22492, Note_on_c, 4, 65, 0
6, 22500, Note_on_c, 4, 67, 90
6, 22552, Note_on_c, 4, 67, 0
6, 22560, Note_on_c, 4, 65, 90
6, 22612, Note_on_c, 4, 65, 0
6, 22620, Note_on_c, 4, 63, 90
6, 22672, Note_on_c, 4, 63, 0
6, 22680, Note_on_c, 4, 62, 90
6, 22732, Note_on_c, 4, 62, 0
6, 22740, Note_on_c, 4, 60, 90
6, 22792, Note_on_c, 4, 60, 0
6, 22800, Note_on_c, 4, 59, 90
6, 23145, Note_on_c, 4, 59, 0
6, 23160, Note_on_c, 4, 60, 90
6, 23212, Note_on_c, 4, 60, 0
6, 23220, Note_on_c, 4, 62, 90
6, 23272, Note_on_c, 4, 62, 0
6, 23280, Note_on_c, 4, 64, 90
6, 23332, Note_on_c, 4, 64, 0
6, 23340, Note_on_c, 4, 65, 90
6, 23392, Note_on_c, 4, 65, 0
6, 23400, Note_on_c, 4, 62, 90
6, 23452, Note_on_c, 4, 62, 0
6, 23460, Note_on_c, 4, 64, 90
6, 23512, Note_on_c, 4, 64, 0
6, 23520, Note_on_c, 4, 65, 90
6, 23572, Note_on_c, 4, 65, 0
6, 23580, Note_on_c, 4, 67, 90
6, 23632, Note_on_c, 4, 67, 0
6, 23640, Note_on_c, 4, 68, 90
6, 23745, Note_on_c, 4, 68, 0
6, 23760, Note_on_c, 4, 67, 90
6, 23812, Note_on_c, 4, 67, 0
6, 23820, Note_on_c, 4, 65, 90
6, 23872, Note_on_c, 4, 65, 0
6, 23880, Note_on_c, 4, 63, 90
6, 23985, Note_on_c, 4, 63, 0
6, 24360, Note_on_c, 4, 63, 90
6, 24412, Note_on_c, 4, 63, 0
6, 24420, Note_on_c, 4, 62, 90
6, 24472, Note_on_c, 4, 62, 0
6, 24480, Note_on_c, 4, 60, 90
6, 24585, Note_on_c, 4, 60, 0
6, 24600, Note_on_c, 4, 62, 90
6, 24765, Note_on_c, 4, 62, 0
6, 24780, Note_on_c, 4, 60, 90
6, 24832, Note_on_c, 4, 60, 0
6, 24840, Note_on_c, 4, 58, 90
6, 25185, Note_on_c, 4, 58, 0
6, 25200, Note_on_c, 4, 57, 90
6, 25305, Note_on_c, 4, 57, 0
6, 25320, Note_on_c, 4, 58, 90
6, 25785, Note_on_c, 4, 58, 0
6, 25800, Note_on_c, 4, 57, 90
6, 25905, Note_on_c, 4, 57, 0
6, 25920, Note_on_c, 4, 58, 90
6, 26025, Note_on_c, 4, 58, 0
6, 26040, Note_on_c, 4, 57, 90
6, 26092, Note_on_c, 4, 57, 0
6, 26100, Note_on_c, 4, 55, 125
6, 26152, Note_on_c, 4, 55, 0
6, 26160, Note_on_c, 4, 57, 127
6, 26212, Note_on_c, 4, 57, 0
6, 26220, Note_on_c, 4, 58, 127
6, 26272, Note_on_c, 4, 58, 0
6, 26280, Note_on_c, 4, 60, 127
6, 26332, Note_on_c, 4, 60, 0
6, 26340, Note_on_c, 4, 57, 127
6, 26392, Note_on_c, 4, 57, 0
6, 26400, Note_on_c, 4, 62, 127
6, 26452, Note_on_c, 4, 62, 0
6, 26460, Note_on_c, 4, 63, 127
6, 26512, Note_on_c, 4, 63, 0
6, 26520, Note_on_c, 4, 62, 127
6, 26572, Note_on_c, 4, 62, 0
6, 26580, Note_on_c, 4, 60, 127
6, 26632, Note_on_c, 4, 60, 0
6, 26640, Note_on_c, 4, 58, 127
6, 26692, Note_on_c, 4, 58, 0
6, 26700, Note_on_c, 4, 57, 127
6, 26752, Note_on_c, 4, 57, 0
6, 26760, Note_on_c, 4, 58, 127
6, 27105, Note_on_c, 4, 58, 0
6, 27120, Note_on_c, 4, 60, 90
6, 27172, Note_on_c, 4, 60, 0
6, 27180, Note_on_c, 4, 58, 90
6, 27232, Note_on_c, 4, 58, 0
6, 27240, Note_on_c, 4, 57, 90
6, 27292, Note_on_c, 4, 57, 0
6, 27300, Note_on_c, 4, 55, 90
6, 27352, Note_on_c, 4, 55, 0
6, 27360, Note_on_c, 4, 57, 90
6, 27412, Note_on_c, 4, 57, 0
6, 27420, Note_on_c, 4, 54, 90
6, 27472, Note_on_c, 4, 54, 0
6, 27480, Note_on_c, 4, 50, 90
6, 27945, Note_on_c, 4, 50, 0
6, 27960, Note_on_c, 4, 55, 90
6, 28012, Note_on_c, 4, 55, 0
6, 28020, Note_on_c, 4, 57, 90
6, 28072, Note_on_c, 4, 57, 0
6, 28080, Note_on_c, 4, 58, 90
6, 28132, Note_on_c, 4, 58, 0
6, 28140, Note_on_c, 4, 57, 90
6, 28192, Note_on_c, 4, 57, 0
6, 28200, Note_on_c, 4, 55, 90
6, 28545, Note_on_c, 4, 55, 0
6, 28560, Note_on_c, 4, 60, 90
6, 28612, Note_on_c, 4, 60, 0
6, 28620, Note_on_c, 4, 58, 90
6, 28672, Note_on_c, 4, 58, 0
6, 28680, Note_on_c, 4, 57, 90
6, 28732, Note_on_c, 4, 57, 0
6, 28740, Note_on_c, 4, 58, 90
6, 28792, Note_on_c, 4, 58, 0
6, 28800, Note_on_c, 4, 57, 90
6, 28852, Note_on_c, 4, 57, 0
6, 28860, Note_on_c, 4, 55, 90
6, 28912, Note_on_c, 4, 55, 0
6, 28920, Note_on_c, 4, 53, 90
6, 28972, Note_on_c, 4, 53, 0
6, 28980, Note_on_c, 4, 57, 90
6, 29032, Note_on_c, 4, 57, 0
6, 29040, Note_on_c, 4, 58, 90
6, 29092, Note_on_c, 4, 58, 0
6, 29100, Note_on_c, 4, 60, 90
6, 29152, Note_on_c, 4, 60, 0
6, 29160, Note_on_c, 4, 62, 90
6, 29212, Note_on_c, 4, 62, 0
6, 29220, Note_on_c, 4, 63, 90
6, 29272, Note_on_c, 4, 63, 0
6, 29280, Note_on_c, 4, 65, 90
6, 29332, Note_on_c, 4, 65, 0
6, 29340, Note_on_c, 4, 63, 90
6, 29392, Note_on_c, 4, 63, 0
6, 29400, Note_on_c, 4, 62, 90
6, 29452, Note_on_c, 4, 62, 0
6, 29460, Note_on_c, 4, 60, 90
6, 29512, Note_on_c, 4, 60, 0
6, 29520, Note_on_c, 4, 58, 90
6, 29572, Note_on_c, 4, 58, 0
6, 29580, Note_on_c, 4, 56, 90
6, 29632, Note_on_c, 4, 56, 0
6, 29640, Note_on_c, 4, 55, 90
6, 29805, Note_on_c, 4, 55, 0
6, 29820, Note_on_c, 4, 56, 90
6, 29872, Note_on_c, 4, 56, 0
6, 29880, Note_on_c, 4, 55, 90
6, 30052, Note_on_c, 4, 55, 0
6, 30060, Note_on_c, 4, 59, 90
6, 30112, Note_on_c, 4, 59, 0
6, 30120, Note_on_c, 4, 60, 90
6, 30172, Note_on_c, 4, 60, 0
6, 30180, Note_on_c, 4, 62, 90
6, 30232, Note_on_c, 4, 62, 0
6, 30240, Note_on_c, 4, 63, 90
6, 30412, Note_on_c, 4, 63, 0
6, 30420, Note_on_c, 4, 62, 90
6, 30472, Note_on_c, 4, 62, 0
6, 30480, Note_on_c, 4, 60, 90
6, 30532, Note_on_c, 4, 60, 0
6, 30540, Note_on_c, 4, 58, 90
6, 30592, Note_on_c, 4, 58, 0
6, 30600, Note_on_c, 4, 57, 90
6, 30705, Note_on_c, 4, 57, 0
6, 30720, Note_on_c, 4, 58, 90
6, 31132, Note_on_c, 4, 58, 0
6, 31140, Note_on_c, 4, 57, 90
6, 31192, Note_on_c, 4, 57, 0
6, 31200, Note_on_c, 4, 55, 90
6, 31305, Note_on_c, 4, 55, 0
6, 31320, Note_on_c, 4, 60, 90
6, 31372, Note_on_c, 4, 60, 0
6, 31380, Note_on_c, 4, 58, 90
6, 31432, Note_on_c, 4, 58, 0
6, 31440, Note_on_c, 4, 57, 90
6, 31785, Note_on_c, 4, 57, 0
6, 31800, Note_on_c, 4, 62, 127
6, 31852, Note_on_c, 4, 62, 0
6, 31860, Note_on_c, 4, 63, 127
6, 31912, Note_on_c, 4, 63, 0
6, 31920, Note_on_c, 4, 62, 127
6, 31972, Note_on_c, 4, 62, 0
6, 31980, Note_on_c, 4, 60, 127
6, 32032, Note_on_c, 4, 60, 0
6, 32040, Note_on_c, 4, 58, 127
6, 32092, Note_on_c, 4, 58, 0
6, 32100, Note_on_c, 4, 57, 127
6, 32152, Note_on_c, 4, 57, 0
6, 32160, Note_on_c, 4, 58, 127
6, 32265, Note_on_c, 4, 58, 0
6, 32940, Note_on_c, 4, 55, 127
6, 32992, Note_on_c, 4, 55, 0
6, 33000, Note_on_c, 4, 60, 127
6, 33052, Note_on_c, 4, 60, 0
6, 33060, Note_on_c, 4, 57, 127
6, 33112, Note_on_c, 4, 57, 0
6, 33120, Note_on_c, 4, 58, 127
6, 33172, Note_on_c, 4, 58, 0
6, 33180, Note_on_c, 4, 55, 127
6, 33232, Note_on_c, 4, 55, 0
6, 33240, Note_on_c, 4, 62, 127
6, 33585, Note_on_c, 4, 62, 0
6, 33600, Note_on_c, 4, 55, 90
6, 33705, Note_on_c, 4, 55, 0
6, 33720, Note_on_c, 4, 57, 90
6, 33945, Note_on_c, 4, 57, 0
6, 33960, Note_on_c, 4, 58, 90
6, 34252, Note_on_c, 4, 58, 0
6, 34260, Note_on_c, 4, 55, 90
6, 34312, Note_on_c, 4, 55, 0
6, 34320, Note_on_c, 4, 60, 90
6, 34372, Note_on_c, 4, 60, 0
6, 34380, Note_on_c, 4, 62, 127
6, 34432, Note_on_c, 4, 62, 0
6, 34440, Note_on_c, 4, 60, 127
6, 34492, Note_on_c, 4, 60, 0
6, 34500, Note_on_c, 4, 58, 127
6, 34552, Note_on_c, 4, 58, 0
6, 34560, Note_on_c, 4, 57, 127
6, 34612, Note_on_c, 4, 57, 0
6, 34620, Note_on_c, 4, 55, 127
6, 34672, Note_on_c, 4, 55, 0
6, 34680, Note_on_c, 4, 62, 127
6, 34732, Note_on_c, 4, 62, 0
6, 34740, Note_on_c, 4, 58, 127
6, 34792, Note_on_c, 4, 58, 0
6, 34800, Note_on_c, 4, 57, 127
6, 34852, Note_on_c, 4, 57, 0
6, 34860, Note_on_c, 4, 55, 127
6, 34912, Note_on_c, 4, 55, 0
6, 34920, Note_on_c, 4, 53, 127
6, 34972, Note_on_c, 4, 53, 0
6, 34980, Note_on_c, 4, 51, 127
6, 35032, Note_on_c, 4, 51, 0
6, 35040, Note_on_c, 4, 50, 127
6, 35385, Note_on_c, 4, 50, 0
6, 35400, Note_on_c, 4, 55, 90
6, 36345, Note_on_c, 4, 55, 0
6, 36360, Note_on_c, 4, 60, 90
6, 36645, Note_on_c, 4, 60, 0
6, 36660, Note_on_c, 4, 58, 90
6, 36712, Note_on_c, 4, 58, 0
6, 36720, Note_on_c, 4, 57, 90
6, 36772, Note_on_c, 4, 57, 0
6, 36780, Note_on_c, 4, 55, 90
6, 36832, Note_on_c, 4, 55, 0
6, 36840, Note_on_c, 4, 62, 90
6, 37065, Note_on_c, 4, 62, 0
6, 37080, Note_on_c, 4, 62, 127
6, 37185, Note_on_c, 4, 62, 0
6, 37200, Note_on_c, 4, 63, 127
6, 37305, Note_on_c, 4, 63, 0
6, 37320, Note_on_c, 4, 62, 127
6, 37425, Note_on_c, 4, 62, 0
6, 37440, Note_on_c, 4, 60, 127
6, 37545, Note_on_c, 4, 60, 0
6, 37560, Note_on_c, 4, 59, 127
6, 37920, Note_on_c, 4, 59, 0
6, 37920, End_track
7, 0, Start_track
7, 0, MIDI_port, 0
7, 0, Title_t, "String Ensemble"
7, 0, Program_c, 5, 48
7, 0, Control_c, 5, 7, 105
7, 0, Control_c, 5, 10, 64
7, 50, Control_c, 5, 7, 104
7, 120, Note_on_c, 5, 55, 127
7, 225, Note_on_c, 5, 55, 0
7, 240, Note_on_c, 5, 46, 90
7, 345, Note_on_c, 5, 46, 0
7, 360, Note_on_c, 5, 50, 90
7, 465, Note_on_c, 5, 50, 0
7, 480, Note_on_c, 5, 43, 90
7, 585, Note_on_c, 5, 43, 0
7, 600, Note_on_c, 5, 55, 90
7, 705, Note_on_c, 5, 55, 0
7, 720, Note_on_c, 5, 53, 90
7, 825, Note_on_c, 5, 53, 0
7, 840, Note_on_c, 5, 52, 90
7, 1005, Note_on_c, 5, 52, 0
7, 1020, Note_on_c, 5, 54, 90
7, 1072, Note_on_c, 5, 54, 0
7, 1080, Note_on_c, 5, 55, 90
7, 1185, Note_on_c, 5, 55, 0
7, 1200, Note_on_c, 5, 50, 90
7, 1305, Note_on_c, 5, 50, 0
7, 1320, Note_on_c, 5, 48, 90
7, 1425, Note_on_c, 5, 48, 0
7, 1440, Note_on_c, 5, 46, 90
7, 1545, Note_on_c, 5, 46, 0
7, 1560, Note_on_c, 5, 45, 90
7, 1665, Note_on_c, 5, 45, 0
7, 1680, Note_on_c, 5, 42, 90
7, 1785, Note_on_c, 5, 42, 0
7, 1800, Note_on_c, 5, 43, 90
7, 1905, Note_on_c, 5, 43, 0
7, 1920, Note_on_c, 5, 38, 90
7, 2025, Note_on_c, 5, 38, 0
7, 2040, Note_on_c, 5, 50, 90
7, 2145, Note_on_c, 5, 50, 0
7, 2160, Note_on_c, 5, 48, 90
7, 2265, Note_on_c, 5, 48, 0
7, 2280, Note_on_c, 5, 46, 90
7, 2445, Note_on_c, 5, 46, 0
7, 2460, Note_on_c, 5, 48, 90
7, 2512, Note_on_c, 5, 48, 0
7, 2520, Note_on_c, 5, 50, 90
7, 2625, Note_on_c, 5, 50, 0
7, 2640, Note_on_c, 5, 43, 90
7, 2745, Note_on_c, 5, 43, 0
7, 2760, Note_on_c, 5, 45, 90
7, 2865, Note_on_c, 5, 45, 0
7, 2880, Note_on_c, 5, 47, 90
7, 2985, Note_on_c, 5, 47, 0
7, 3000, Note_on_c, 5, 48, 90
7, 3165, Note_on_c, 5, 48, 0
7, 3180, Note_on_c, 5, 46, 90
7, 3232, Note_on_c, 5, 46, 0
7, 3240, Note_on_c, 5, 45, 90
7, 3345, Note_on_c, 5, 45, 0
7, 3360, Note_on_c, 5, 43, 90
7, 3465, Note_on_c, 5, 43, 0
7, 3480, Note_on_c, 5, 55, 90
7, 3585, Note_on_c, 5, 55, 0
7, 3600, Note_on_c, 5, 53, 90
7, 3705, Note_on_c, 5, 53, 0
7, 3720, Note_on_c, 5, 51, 90
7, 3885, Note_on_c, 5, 51, 0
7, 3900, Note_on_c, 5, 53, 90
7, 3952, Note_on_c, 5, 53, 0
7, 3960, Note_on_c, 5, 55, 90
7, 4065, Note_on_c, 5, 55, 0
7, 4080, Note_on_c, 5, 45, 90
7, 4185, Note_on_c, 5, 45, 0
7, 4200, Note_on_c, 5, 52, 90
7, 4305, Note_on_c, 5, 52, 0
7, 4320, Note_on_c, 5, 54, 90
7, 4425, Note_on_c, 5, 54, 0
7, 4440, Note_on_c, 5, 55, 90
7, 4605, Note_on_c, 5, 55, 0
7, 4620, Note_on_c, 5, 53, 90
7, 4672, Note_on_c, 5, 53, 0
7, 4680, Note_on_c, 5, 52, 90
7, 4785, Note_on_c, 5, 52, 0
7, 4800, Note_on_c, 5, 53, 90
7, 4905, Note_on_c, 5, 53, 0
7, 4920, Note_on_c, 5, 57, 90
7, 5025, Note_on_c, 5, 57, 0
7, 5040, Note_on_c, 5, 55, 90
7, 5145, Note_on_c, 5, 55, 0
7, 5160, Note_on_c, 5, 53, 90
7, 5325, Note_on_c, 5, 53, 0
7, 5340, Note_on_c, 5, 55, 90
7, 5392, Note_on_c, 5, 55, 0
7, 5400, Note_on_c, 5, 57, 90
7, 5505, Note_on_c, 5, 57, 0
7, 5520, Note_on_c, 5, 50, 90
7, 5625, Note_on_c, 5, 50, 0
7, 5640, Note_on_c, 5, 43, 90
7, 5745, Note_on_c, 5, 43, 0
7, 5760, Note_on_c, 5, 45, 90
7, 5865, Note_on_c, 5, 45, 0
7, 5880, Note_on_c, 5, 38, 90
7, 5932, Note_on_c, 5, 38, 0
7, 5940, Note_on_c, 5, 51, 90
7, 5992, Note_on_c, 5, 51, 0
7, 6000, Note_on_c, 5, 50, 90
7, 6052, Note_on_c, 5, 50, 0
7, 6060, Note_on_c, 5, 48, 90
7, 6112, Note_on_c, 5, 48, 0
7, 6120, Note_on_c, 5, 46, 90
7, 6172, Note_on_c, 5, 46, 0
7, 6180, Note_on_c, 5, 45, 90
7, 6232, Note_on_c, 5, 45, 0
7, 6240, Note_on_c, 5, 43, 90
7, 6345, Note_on_c, 5, 43, 0
7, 6360, Note_on_c, 5, 55, 90
7, 6465, Note_on_c, 5, 55, 0
7, 6480, Note_on_c, 5, 57, 90
7, 6585, Note_on_c, 5, 57, 0
7, 6600, Note_on_c, 5, 58, 90
7, 6705, Note_on_c, 5, 58, 0
7, 6720, Note_on_c, 5, 46, 90
7, 6825, Note_on_c, 5, 46, 0
7, 6840, Note_on_c, 5, 45, 90
7, 6945, Note_on_c, 5, 45, 0
7, 6960, Note_on_c, 5, 43, 90
7, 7125, Note_on_c, 5, 43, 0
7, 7140, Note_on_c, 5, 45, 90
7, 7192, Note_on_c, 5, 45, 0
7, 7200, Note_on_c, 5, 46, 90
7, 7305, Note_on_c, 5, 46, 0
7, 7320, Note_on_c, 5, 53, 90
7, 7425, Note_on_c, 5, 53, 0
7, 7440, Note_on_c, 5, 51, 90
7, 7545, Note_on_c, 5, 51, 0
7, 7560, Note_on_c, 5, 50, 90
7, 7665, Note_on_c, 5, 50, 0
7, 7680, Note_on_c, 5, 48, 90
7, 7785, Note_on_c, 5, 48, 0
7, 7800, Note_on_c, 5, 45, 90
7, 7905, Note_on_c, 5, 45, 0
7, 7920, Note_on_c, 5, 46, 90
7, 8025, Note_on_c, 5, 46, 0
7, 8040, Note_on_c, 5, 41, 90
7, 8145, Note_on_c, 5, 41, 0
7, 8160, Note_on_c, 5, 53, 90
7, 8265, Note_on_c, 5, 53, 0
7, 8280, Note_on_c, 5, 51, 90
7, 8385, Note_on_c, 5, 51, 0
7, 8400, Note_on_c, 5, 50, 90
7, 8565, Note_on_c, 5, 50, 0
7, 8580, Note_on_c, 5, 51, 90
7, 8632, Note_on_c, 5, 51, 0
7, 8640, Note_on_c, 5, 53, 90
7, 8745, Note_on_c, 5, 53, 0
7, 8760, Note_on_c, 5, 46, 90
7, 8865, Note_on_c, 5, 46, 0
7, 8880, Note_on_c, 5, 48, 90
7, 8985, Note_on_c, 5, 48, 0
7, 9000, Note_on_c, 5, 50, 90
7, 9105, Note_on_c, 5, 50, 0
7, 9120, Note_on_c, 5, 51, 90
7, 9285, Note_on_c, 5, 51, 0
7, 9300, Note_on_c, 5, 50, 90
7, 9352, Note_on_c, 5, 50, 0
7, 9360, Note_on_c, 5, 48, 90
7, 9465, Note_on_c, 5, 48, 0
7, 9480, Note_on_c, 5, 46, 90
7, 9585, Note_on_c, 5, 46, 0
7, 9600, Note_on_c, 5, 58, 90
7, 9705, Note_on_c, 5, 58, 0
7, 9720, Note_on_c, 5, 57, 90
7, 9825, Note_on_c, 5, 57, 0
7, 9840, Note_on_c, 5, 55, 90
7, 10005, Note_on_c, 5, 55, 0
7, 10020, Note_on_c, 5, 57, 90
7, 10072, Note_on_c, 5, 57, 0
7, 10080, Note_on_c, 5, 58, 90
7, 10185, Note_on_c, 5, 58, 0
7, 10200, Note_on_c, 5, 48, 90
7, 10305, Note_on_c, 5, 48, 0
7, 10320, Note_on_c, 5, 43, 90
7, 10425, Note_on_c, 5, 43, 0
7, 10440, Note_on_c, 5, 45, 90
7, 10545, Note_on_c, 5, 45, 0
7, 10560, Note_on_c, 5, 46, 90
7, 10725, Note_on_c, 5, 46, 0
7, 10740, Note_on_c, 5, 45, 90
7, 10792, Note_on_c, 5, 45, 0
7, 10800, Note_on_c, 5, 43, 90
7, 10852, Note_on_c, 5, 43, 0
7, 10860, Note_on_c, 5, 41, 90
7, 10912, Note_on_c, 5, 41, 0
7, 10920, Note_on_c, 5, 40, 90
7, 11025, Note_on_c, 5, 40, 0
7, 11040, Note_on_c, 5, 38, 90
7, 11145, Note_on_c, 5, 38, 0
7, 11160, Note_on_c, 5, 40, 90
7, 11265, Note_on_c, 5, 40, 0
7, 11280, Note_on_c, 5, 41, 90
7, 11385, Note_on_c, 5, 41, 0
7, 11400, Note_on_c, 5, 39, 90
7, 11505, Note_on_c, 5, 39, 0
7, 11520, Note_on_c, 5, 41, 90
7, 11625, Note_on_c, 5, 41, 0
7, 11640, Note_on_c, 5, 43, 90
7, 11805, Note_on_c, 5, 43, 0
7, 11820, Note_on_c, 5, 45, 90
7, 11872, Note_on_c, 5, 45, 0
7, 11880, Note_on_c, 5, 46, 90
7, 11985, Note_on_c, 5, 46, 0
7, 12000, Note_on_c, 5, 39, 90
7, 12105, Note_on_c, 5, 39, 0
7, 12120, Note_on_c, 5, 36, 90
7, 12225, Note_on_c, 5, 36, 0
7, 12240, Note_on_c, 5, 41, 90
7, 12345, Note_on_c, 5, 41, 0
7, 12360, Note_on_c, 5, 46, 90
7, 12412, Note_on_c, 5, 46, 0
7, 12420, Note_on_c, 5, 50, 127
7, 12472, Note_on_c, 5, 50, 0
7, 12480, Note_on_c, 5, 51, 127
7, 12532, Note_on_c, 5, 51, 0
7, 12540, Note_on_c, 5, 53, 127
7, 12592, Note_on_c, 5, 53, 0
7, 12600, Note_on_c, 5, 55, 127
7, 12652, Note_on_c, 5, 55, 0
7, 12660, Note_on_c, 5, 57, 127
7, 12712, Note_on_c, 5, 57, 0
7, 12720, Note_on_c, 5, 58, 127
7, 12825, Note_on_c, 5, 58, 0
7, 12840, Note_on_c, 5, 46, 90
7, 12945, Note_on_c, 5, 46, 0
7, 12960, Note_on_c, 5, 45, 90
7, 13065, Note_on_c, 5, 45, 0
7, 13080, Note_on_c, 5, 43, 90
7, 13245, Note_on_c, 5, 43, 0
7, 13260, Note_on_c, 5, 45, 90
7, 13312, Note_on_c, 5, 45, 0
7, 13320, Note_on_c, 5, 46, 90
7, 13545, Note_on_c, 5, 46, 0
7, 13560, Note_on_c, 5, 45, 90
7, 13665, Note_on_c, 5, 45, 0
7, 13680, Note_on_c, 5, 43, 90
7, 13785, Note_on_c, 5, 43, 0
7, 13800, Note_on_c, 5, 41, 90
7, 13905, Note_on_c, 5, 41, 0
7, 13920, Note_on_c, 5, 53, 90
7, 14025, Note_on_c, 5, 53, 0
7, 14040, Note_on_c, 5, 51, 90
7, 14145, Note_on_c, 5, 51, 0
7, 14160, Note_on_c, 5, 50, 90
7, 14325, Note_on_c, 5, 50, 0
7, 14340, Note_on_c, 5, 51, 90
7, 14392, Note_on_c, 5, 51, 0
7, 14400, Note_on_c, 5, 53, 90
7, 14452, Note_on_c, 5, 53, 0
7, 14460, Note_on_c, 5, 55, 90
7, 14512, Note_on_c, 5, 55, 0
7, 14520, Note_on_c, 5, 57, 90
7, 14625, Note_on_c, 5, 57, 0
7, 14640, Note_on_c, 5, 53, 90
7, 14745, Note_on_c, 5, 53, 0
7, 14760, Note_on_c, 5, 58, 90
7, 14865, Note_on_c, 5, 58, 0
7, 14880, Note_on_c, 5, 51, 90
7, 14985, Note_on_c, 5, 51, 0
7, 15000, Note_on_c, 5, 48, 90
7, 15105, Note_on_c, 5, 48, 0
7, 15120, Note_on_c, 5, 53, 90
7, 15225, Note_on_c, 5, 53, 0
7, 15240, Note_on_c, 5, 46, 90
7, 15345, Note_on_c, 5, 46, 0
7, 15360, Note_on_c, 5, 50, 90
7, 15465, Note_on_c, 5, 50, 0
7, 15480, Note_on_c, 5, 48, 90
7, 15585, Note_on_c, 5, 48, 0
7, 15600, Note_on_c, 5, 46, 90
7, 15765, Note_on_c, 5, 46, 0
7, 15780, Note_on_c, 5, 48, 90
7, 15832, Note_on_c, 5, 48, 0
7, 15840, Note_on_c, 5, 50, 90
7, 15945, Note_on_c, 5, 50, 0
7, 15960, Note_on_c, 5, 43, 90
7, 16065, Note_on_c, 5, 43, 0
7, 16080, Note_on_c, 5, 55, 90
7, 16185, Note_on_c, 5, 55, 0
7, 16200, Note_on_c, 5, 57, 90
7, 16305, Note_on_c, 5, 57, 0
7, 16320, Note_on_c, 5, 58, 90
7, 16485, Note_on_c, 5, 58, 0
7, 16500, Note_on_c, 5, 57, 90
7, 16552, Note_on_c, 5, 57, 0
7, 16560, Note_on_c, 5, 55, 90
7, 16665, Note_on_c, 5, 55, 0
7, 16680, Note_on_c, 5, 57, 90
7, 16785, Note_on_c, 5, 57, 0
7, 16800, Note_on_c, 5, 53, 90
7, 16905, Note_on_c, 5, 53, 0
7, 16920, Note_on_c, 5, 51, 90
7, 17025, Note_on_c, 5, 51, 0
7, 17040, Note_on_c, 5, 50, 90
7, 17205, Note_on_c, 5, 50, 0
7, 17220, Note_on_c, 5, 51, 90
7, 17272, Note_on_c, 5, 51, 0
7, 17280, Note_on_c, 5, 53, 90
7, 17385, Note_on_c, 5, 53, 0
7, 17400, Note_on_c, 5, 45, 90
7, 17505, Note_on_c, 5, 45, 0
7, 17520, Note_on_c, 5, 48, 90
7, 17625, Note_on_c, 5, 48, 0
7, 17640, Note_on_c, 5, 46, 90
7, 17745, Note_on_c, 5, 46, 0
7, 17760, Note_on_c, 5, 45, 90
7, 17925, Note_on_c, 5, 45, 0
7, 17940, Note_on_c, 5, 46, 90
7, 17992, Note_on_c, 5, 46, 0
7, 18000, Note_on_c, 5, 48, 90
7, 18105, Note_on_c, 5, 48, 0
7, 18120, Note_on_c, 5, 41, 90
7, 18225, Note_on_c, 5, 41, 0
7, 18240, Note_on_c, 5, 51, 90
7, 18345, Note_on_c, 5, 51, 0
7, 18360, Note_on_c, 5, 50, 90
7, 18465, Note_on_c, 5, 50, 0
7, 18480, Note_on_c, 5, 48, 90
7, 18645, Note_on_c, 5, 48, 0
7, 18660, Note_on_c, 5, 50, 90
7, 18712, Note_on_c, 5, 50, 0
7, 18720, Note_on_c, 5, 51, 90
7, 18945, Note_on_c, 5, 51, 0
7, 18960, Note_on_c, 5, 50, 90
7, 19065, Note_on_c, 5, 50, 0
7, 19080, Note_on_c, 5, 51, 90
7, 19185, Note_on_c, 5, 51, 0
7, 19200, Note_on_c, 5, 53, 90
7, 19365, Note_on_c, 5, 53, 0
7, 19380, Note_on_c, 5, 51, 90
7, 19432, Note_on_c, 5, 51, 0
7, 19440, Note_on_c, 5, 50, 90
7, 19545, Note_on_c, 5, 50, 0
7, 19560, Note_on_c, 5, 51, 90
7, 19665, Note_on_c, 5, 51, 0
7, 19680, Note_on_c, 5, 50, 90
7, 19785, Note_on_c, 5, 50, 0
7, 19800, Note_on_c, 5, 48, 90
7, 19905, Note_on_c, 5, 48, 0
7, 19920, Note_on_c, 5, 43, 90
7, 20025, Note_on_c, 5, 43, 0
7, 20040, Note_on_c, 5, 48, 90
7, 20145, Note_on_c, 5, 48, 0
7, 20160, Note_on_c, 5, 50, 90
7, 20265, Note_on_c, 5, 50, 0
7, 20280, Note_on_c, 5, 51, 90
7, 20445, Note_on_c, 5, 51, 0
7, 20460, Note_on_c, 5, 50, 90
7, 20512, Note_on_c, 5, 50, 0
7, 20520, Note_on_c, 5, 48, 90
7, 20625, Note_on_c, 5, 48, 0
7, 20640, Note_on_c, 5, 53, 90
7, 20745, Note_on_c, 5, 53, 0
7, 20760, Note_on_c, 5, 50, 90
7, 20865, Note_on_c, 5, 50, 0
7, 20880, Note_on_c, 5, 55, 90
7, 20985, Note_on_c, 5, 55, 0
7, 21000, Note_on_c, 5, 48, 90
7, 21105, Note_on_c, 5, 48, 0
7, 21120, Note_on_c, 5, 60, 90
7, 21225, Note_on_c, 5, 60, 0
7, 21240, Note_on_c, 5, 58, 90
7, 21345, Note_on_c, 5, 58, 0
7, 21360, Note_on_c, 5, 56, 90
7, 21525, Note_on_c, 5, 56, 0
7, 21540, Note_on_c, 5, 58, 90
7, 21592, Note_on_c, 5, 58, 0
7, 21600, Note_on_c, 5, 60, 90
7, 21705, Note_on_c, 5, 60, 0
7, 21720, Note_on_c, 5, 53, 90
7, 21825, Note_on_c, 5, 53, 0
7, 21840, Note_on_c, 5, 55, 90
7, 21945, Note_on_c, 5, 55, 0
7, 21960, Note_on_c, 5, 53, 90
7, 22065, Note_on_c, 5, 53, 0
7, 22080, Note_on_c, 5, 51, 90
7, 22185, Note_on_c, 5, 51, 0
7, 22200, Note_on_c, 5, 56, 90
7, 22305, Note_on_c, 5, 56, 0
7, 22320, Note_on_c, 5, 55, 90
7, 22425, Note_on_c, 5, 55, 0
7, 22440, Note_on_c, 5, 53, 90
7, 22605, Note_on_c, 5, 53, 0
7, 22620, Note_on_c, 5, 55, 90
7, 22672, Note_on_c, 5, 55, 0
7, 22680, Note_on_c, 5, 56, 90
7, 22785, Note_on_c, 5, 56, 0
7, 22800, Note_on_c, 5, 50, 90
7, 22905, Note_on_c, 5, 50, 0
7, 22920, Note_on_c, 5, 55, 90
7, 23025, Note_on_c, 5, 55, 0
7, 23040, Note_on_c, 5, 56, 90
7, 23145, Note_on_c, 5, 56, 0
7, 23160, Note_on_c, 5, 58, 90
7, 23325, Note_on_c, 5, 58, 0
7, 23340, Note_on_c, 5, 56, 90
7, 23392, Note_on_c, 5, 56, 0
7, 23400, Note_on_c, 5, 55, 90
7, 23505, Note_on_c, 5, 55, 0
7, 23520, Note_on_c, 5, 56, 90
7, 23625, Note_on_c, 5, 56, 0
7, 23640, Note_on_c, 5, 53, 90
7, 23745, Note_on_c, 5, 53, 0
7, 23760, Note_on_c, 5, 55, 90
7, 23865, Note_on_c, 5, 55, 0
7, 23880, Note_on_c, 5, 48, 90
7, 23932, Note_on_c, 5, 48, 0
7, 23940, Note_on_c, 5, 44, 116
7, 23992, Note_on_c, 5, 44, 0
7, 24000, Note_on_c, 5, 43, 127
7, 24052, Note_on_c, 5, 43, 0
7, 24060, Note_on_c, 5, 41, 127
7, 24112, Note_on_c, 5, 41, 0
7, 24120, Note_on_c, 5, 39, 127
7, 24172, Note_on_c, 5, 39, 0
7, 24180, Note_on_c, 5, 38, 127
7, 24232, Note_on_c, 5, 38, 0
7, 24240, Note_on_c, 5, 36, 127
7, 24345, Note_on_c, 5, 36, 0
7, 24360, Note_on_c, 5, 46, 93
7, 24465, Note_on_c, 5, 46, 0
7, 24480, Note_on_c, 5, 45, 90
7, 24585, Note_on_c, 5, 45, 0
7, 24600, Note_on_c, 5, 43, 90
7, 24705, Note_on_c, 5, 43, 0
7, 24720, Note_on_c, 5, 55, 90
7, 24825, Note_on_c, 5, 55, 0
7, 24840, Note_on_c, 5, 53, 90
7, 24945, Note_on_c, 5, 53, 0
7, 24960, Note_on_c, 5, 51, 90
7, 25065, Note_on_c, 5, 51, 0
7, 25080, Note_on_c, 5, 48, 90
7, 25185, Note_on_c, 5, 48, 0
7, 25200, Note_on_c, 5, 53, 90
7, 25305, Note_on_c, 5, 53, 0
7, 25320, Note_on_c, 5, 46, 90
7, 25425, Note_on_c, 5, 46, 0
7, 25440, Note_on_c, 5, 55, 90
7, 25545, Note_on_c, 5, 55, 0
7, 25560, Note_on_c, 5, 53, 90
7, 25665, Note_on_c, 5, 53, 0
7, 25680, Note_on_c, 5, 52, 90
7, 25845, Note_on_c, 5, 52, 0
7, 25860, Note_on_c, 5, 54, 90
7, 25912, Note_on_c, 5, 54, 0
7, 25920, Note_on_c, 5, 55, 90
7, 26025, Note_on_c, 5, 55, 0
7, 26040, Note_on_c, 5, 54, 90
7, 26145, Note_on_c, 5, 54, 0
7, 26160, Note_on_c, 5, 62, 90
7, 26265, Note_on_c, 5, 62, 0
7, 26280, Note_on_c, 5, 60, 90
7, 26385, Note_on_c, 5, 60, 0
7, 26400, Note_on_c, 5, 58, 90
7, 26565, Note_on_c, 5, 58, 0
7, 26580, Note_on_c, 5, 60, 90
7, 26632, Note_on_c, 5, 60, 0
7, 26640, Note_on_c, 5, 62, 90
7, 26745, Note_on_c, 5, 62, 0
7, 26760, Note_on_c, 5, 55, 90
7, 26865, Note_on_c, 5, 55, 0
7, 26880, Note_on_c, 5, 51, 90
7, 26985, Note_on_c, 5, 51, 0
7, 27000, Note_on_c, 5, 50, 90
7, 27105, Note_on_c, 5, 50, 0
7, 27120, Note_on_c, 5, 48, 90
7, 27225, Note_on_c, 5, 48, 0
7, 27240, Note_on_c, 5, 50, 90
7, 27345, Note_on_c, 5, 50, 0
7, 27360, Note_on_c, 5, 48, 90
7, 27465, Note_on_c, 5, 48, 0
7, 27480, Note_on_c, 5, 46, 90
7, 27645, Note_on_c, 5, 46, 0
7, 27660, Note_on_c, 5, 48, 90
7, 27712, Note_on_c, 5, 48, 0
7, 27720, Note_on_c, 5, 50, 90
7, 27825, Note_on_c, 5, 50, 0
7, 27840, Note_on_c, 5, 43, 90
7, 27945, Note_on_c, 5, 43, 0
7, 27960, Note_on_c, 5, 55, 90
7, 28065, Note_on_c, 5, 55, 0
7, 28080, Note_on_c, 5, 53, 90
7, 28185, Note_on_c, 5, 53, 0
7, 28200, Note_on_c, 5, 51, 90
7, 28365, Note_on_c, 5, 51, 0
7, 28380, Note_on_c, 5, 53, 90
7, 28432, Note_on_c, 5, 53, 0
7, 28440, Note_on_c, 5, 55, 90
7, 28545, Note_on_c, 5, 55, 0
7, 28560, Note_on_c, 5, 48, 90
7, 28665, Note_on_c, 5, 48, 0
7, 28680, Note_on_c, 5, 53, 90
7, 28785, Note_on_c, 5, 53, 0
7, 28800, Note_on_c, 5, 51, 90
7, 28905, Note_on_c, 5, 51, 0
7, 28920, Note_on_c, 5, 50, 90
7, 29085, Note_on_c, 5, 50, 0
7, 29100, Note_on_c, 5, 51, 90
7, 29152, Note_on_c, 5, 51, 0
7, 29160, Note_on_c, 5, 53, 90
7, 29265, Note_on_c, 5, 53, 0
7, 29280, Note_on_c, 5, 46, 90
7, 29445, Note_on_c, 5, 46, 0
7, 29460, Note_on_c, 5, 48, 90
7, 29512, Note_on_c, 5, 48, 0
7, 29520, Note_on_c, 5, 50, 90
7, 29625, Note_on_c, 5, 50, 0
7, 29640, Note_on_c, 5, 51, 90
7, 29805, Note_on_c, 5, 51, 0
7, 29820, Note_on_c, 5, 53, 90
7, 29872, Note_on_c, 5, 53, 0
7, 29880, Note_on_c, 5, 55, 90
7, 29985, Note_on_c, 5, 55, 0
7, 30000, Note_on_c, 5, 48, 90
7, 30105, Note_on_c, 5, 48, 0
7, 30120, Note_on_c, 5, 60, 90
7, 30225, Note_on_c, 5, 60, 0
7, 30240, Note_on_c, 5, 58, 90
7, 30345, Note_on_c, 5, 58, 0
7, 30360, Note_on_c, 5, 57, 90
7, 30525, Note_on_c, 5, 57, 0
7, 30540, Note_on_c, 5, 55, 90
7, 30592, Note_on_c, 5, 55, 0
7, 30600, Note_on_c, 5, 53, 90
7, 30705, Note_on_c, 5, 53, 0
7, 30720, Note_on_c, 5, 58, 90
7, 30825, Note_on_c, 5, 58, 0
7, 30840, Note_on_c, 5, 46, 90
7, 30945, Note_on_c, 5, 46, 0
7, 30960, Note_on_c, 5, 50, 90
7, 31065, Note_on_c, 5, 50, 0
7, 31080, Note_on_c, 5, 51, 90
7, 31245, Note_on_c, 5, 51, 0
7, 31260, Note_on_c, 5, 50, 90
7, 31312, Note_on_c, 5, 50, 0
7, 31320, Note_on_c, 5, 48, 90
7, 31425, Note_on_c, 5, 48, 0
7, 31440, Note_on_c, 5, 50, 90
7, 31545, Note_on_c, 5, 50, 0
7, 31560, Note_on_c, 5, 62, 90
7, 31665, Note_on_c, 5, 62, 0
7, 31680, Note_on_c, 5, 60, 90
7, 31785, Note_on_c, 5, 60, 0
7, 31800, Note_on_c, 5, 58, 90
7, 31965, Note_on_c, 5, 58, 0
7, 31980, Note_on_c, 5, 60, 90
7, 32032, Note_on_c, 5, 60, 0
7, 32040, Note_on_c, 5, 62, 90
7, 32145, Note_on_c, 5, 62, 0
7, 32160, Note_on_c, 5, 55, 90
7, 32265, Note_on_c, 5, 55, 0
7, 32280, Note_on_c, 5, 55, 90
7, 32385, Note_on_c, 5, 55, 0
7, 32400, Note_on_c, 5, 53, 90
7, 32505, Note_on_c, 5, 53, 0
7, 32520, Note_on_c, 5, 51, 90
7, 32685, Note_on_c, 5, 51, 0
7, 32700, Note_on_c, 5, 53, 90
7, 32752, Note_on_c, 5, 53, 0
7, 32760, Note_on_c, 5, 55, 90
7, 32865, Note_on_c, 5, 55, 0
7, 32880, Note_on_c, 5, 48, 90
7, 32985, Note_on_c, 5, 48, 0
7, 33000, Note_on_c, 5, 45, 90
7, 33105, Note_on_c, 5, 45, 0
7, 33120, Note_on_c, 5, 43, 90
7, 33225, Note_on_c, 5, 43, 0
7, 33240, Note_on_c, 5, 42, 90
7, 33292, Note_on_c, 5, 42, 0
7, 33300, Note_on_c, 5, 54, 90
7, 33352, Note_on_c, 5, 54, 0
7, 33360, Note_on_c, 5, 55, 90
7, 33412, Note_on_c, 5, 55, 0
7, 33420, Note_on_c, 5, 51, 90
7, 33472, Note_on_c, 5, 51, 0
7, 33480, Note_on_c, 5, 53, 90
7, 33532, Note_on_c, 5, 53, 0
7, 33540, Note_on_c, 5, 50, 90
7, 33592, Note_on_c, 5, 50, 0
7, 33600, Note_on_c, 5, 51, 90
7, 33652, Note_on_c, 5, 51, 0
7, 33660, Note_on_c, 5, 48, 90
7, 33712, Note_on_c, 5, 48, 0
7, 33720, Note_on_c, 5, 53, 90
7, 33772, Note_on_c, 5, 53, 0
7, 33780, Note_on_c, 5, 50, 90
7, 33832, Note_on_c, 5, 50, 0
7, 33840, Note_on_c, 5, 51, 90
7, 33892, Note_on_c, 5, 51, 0
7, 33900, Note_on_c, 5, 48, 90
7, 33952, Note_on_c, 5, 48, 0
7, 33960, Note_on_c, 5, 50, 90
7, 34012, Note_on_c, 5, 50, 0
7, 34020, Note_on_c, 5, 46, 90
7, 34072, Note_on_c, 5, 46, 0
7, 34080, Note_on_c, 5, 51, 90
7, 34132, Note_on_c, 5, 51, 0
7, 34140, Note_on_c, 5, 48, 90
7, 34192, Note_on_c, 5, 48, 0
7, 34200, Note_on_c, 5, 50, 90
7, 34252, Note_on_c, 5, 50, 0
7, 34260, Note_on_c, 5, 46, 90
7, 34312, Note_on_c, 5, 46, 0
7, 34320, Note_on_c, 5, 48, 90
7, 34425, Note_on_c, 5, 48, 0
7, 34440, Note_on_c, 5, 46, 90
7, 34545, Note_on_c, 5, 46, 0
7, 34560, Note_on_c, 5, 48, 90
7, 34665, Note_on_c, 5, 48, 0
7, 34680, Note_on_c, 5, 50, 90
7, 34845, Note_on_c, 5, 50, 0
7, 34860, Note_on_c, 5, 52, 90
7, 34912, Note_on_c, 5, 52, 0
7, 34920, Note_on_c, 5, 53, 90
7, 35145, Note_on_c, 5, 53, 0
7, 35160, Note_on_c, 5, 51, 90
7, 35265, Note_on_c, 5, 51, 0
7, 35280, Note_on_c, 5, 50, 90
7, 35385, Note_on_c, 5, 50, 0
7, 35400, Note_on_c, 5, 48, 90
7, 35565, Note_on_c, 5, 48, 0
7, 35580, Note_on_c, 5, 50, 90
7, 35632, Note_on_c, 5, 50, 0
7, 35640, Note_on_c, 5, 51, 90
7, 35745, Note_on_c, 5, 51, 0
7, 35760, Note_on_c, 5, 47, 90
7, 35812, Note_on_c, 5, 47, 0
7, 35820, Note_on_c, 5, 45, 90
7, 35872, Note_on_c, 5, 45, 0
7, 35880, Note_on_c, 5, 43, 90
7, 35932, Note_on_c, 5, 43, 0
7, 35940, Note_on_c, 5, 45, 90
7, 35992, Note_on_c, 5, 45, 0
7, 36000, Note_on_c, 5, 47, 90
7, 36052, Note_on_c, 5, 47, 0
7, 36060, Note_on_c, 5, 43, 90
7, 36112, Note_on_c, 5, 43, 0
7, 36120, Note_on_c, 5, 48, 90
7, 36225, Note_on_c, 5, 48, 0
7, 36240, Note_on_c, 5, 60, 90
7, 36345, Note_on_c, 5, 60, 0
7, 36360, Note_on_c, 5, 58, 90
7, 36465, Note_on_c, 5, 58, 0
7, 36480, Note_on_c, 5, 57, 90
7, 36645, Note_on_c, 5, 57, 0
7, 36660, Note_on_c, 5, 58, 90
7, 36712, Note_on_c, 5, 58, 0
7, 36720, Note_on_c, 5, 60, 90
7, 36825, Note_on_c, 5, 60, 0
7, 36840, Note_on_c, 5, 48, 90
7, 37065, Note_on_c, 5, 48, 0
7, 37080, Note_on_c, 5, 46, 90
7, 37185, Note_on_c, 5, 46, 0
7, 37200, Note_on_c, 5, 48, 90
7, 37305, Note_on_c, 5, 48, 0
7, 37320, Note_on_c, 5, 50, 90
7, 37425, Note_on_c, 5, 50, 0
7, 37440, Note_on_c, 5, 38, 127
7, 37545, Note_on_c, 5, 38, 0
7, 37560, Note_on_c, 5, 43, 127
7, 37920, Note_on_c, 5, 43, 0
7, 37920, End_track
8, 0, Start_track
8, 0, MIDI_port, 0
8, 0, Title_t, "Hammond Organ"
8, 0, Program_c, 6, 16
8, 0, Control_c, 6, 7, 107
8, 0, Control_c, 6, 10, 64
8, 36, Control_c, 6, 7, 106
8, 240, Note_on_c, 6, 67, 127
8, 300, Note_on_c, 6, 67, 0
8, 300, Note_on_c, 6, 69, 127
8, 330, Note_on_c, 6, 69, 0
8, 330, Note_on_c, 6, 70, 127
8, 356, Note_on_c, 6, 70, 0
8, 360, Note_on_c, 6, 69, 127
8, 420, Note_on_c, 6, 69, 0
8, 420, Note_on_c, 6, 70, 127
8, 450, Note_on_c, 6, 70, 0
8, 450, Note_on_c, 6, 72, 127
8, 476, Note_on_c, 6, 72, 0
8, 480, Note_on_c, 6, 70, 127
8, 645, Note_on_c, 6, 70, 0
8, 660, Note_on_c, 6, 69, 127
8, 712, Note_on_c, 6, 69, 0
8, 720, Note_on_c, 6, 67, 127
8, 825, Note_on_c, 6, 67, 0
8, 960, Note_on_c, 6, 72, 127
8, 1038, Note_on_c, 6, 72, 0
8, 1050, Note_on_c, 6, 74, 127
8, 1076, Note_on_c, 6, 74, 0
8, 1080, Note_on_c, 6, 70, 127
8, 1158, Note_on_c, 6, 70, 0
8, 1170, Note_on_c, 6, 69, 127
8, 1196, Note_on_c, 6, 69, 0
8, 1200, Note_on_c, 6, 69, 127
8, 1425, Note_on_c, 6, 69, 0
8, 1680, Note_on_c, 6, 75, 127
8, 1732, Note_on_c, 6, 75, 0
8, 1740, Note_on_c, 6, 74, 127
8, 1792, Note_on_c, 6, 74, 0
8, 1800, Note_on_c, 6, 72, 127
8, 1826, Note_on_c, 6, 72, 0
8, 1830, Note_on_c, 6, 70, 127
8, 1856, Note_on_c, 6, 70, 0
8, 1860, Note_on_c, 6, 69, 127
8, 1886, Note_on_c, 6, 69, 0
8, 1890, Note_on_c, 6, 70, 127
8, 1903, Note_on_c, 6, 70, 0
8, 1905, Note_on_c, 6, 67, 127
8, 1918, Note_on_c, 6, 67, 0
8, 1920, Note_on_c, 6, 69, 127
8, 1933, Note_on_c, 6, 69, 0
8, 1935, Note_on_c, 6, 67, 127
8, 1948, Note_on_c, 6, 67, 0
8, 1950, Note_on_c, 6, 69, 127
8, 2028, Note_on_c, 6, 69, 0
8, 2040, Note_on_c, 6, 62, 127
8, 2145, Note_on_c, 6, 62, 0
8, 6360, Note_on_c, 6, 70, 127
8, 6465, Note_on_c, 6, 70, 0
8, 6480, Note_on_c, 6, 72, 127
8, 6540, Note_on_c, 6, 72, 0
8, 6540, Note_on_c, 6, 74, 127
8, 6570, Note_on_c, 6, 74, 0
8, 6570, Note_on_c, 6, 75, 127
8, 6596, Note_on_c, 6, 75, 0
8, 6600, Note_on_c, 6, 74, 127
8, 6765, Note_on_c, 6, 74, 0
8, 6780, Note_on_c, 6, 72, 127
8, 6832, Note_on_c, 6, 72, 0
8, 6840, Note_on_c, 6, 70, 127
8, 6945, Note_on_c, 6, 70, 0
8, 7080, Note_on_c, 6, 75, 127
8, 7158, Note_on_c, 6, 75, 0
8, 7170, Note_on_c, 6, 77, 127
8, 7196, Note_on_c, 6, 77, 0
8, 7200, Note_on_c, 6, 74, 127
8, 7278, Note_on_c, 6, 74, 0
8, 7290, Note_on_c, 6, 72, 127
8, 7316, Note_on_c, 6, 72, 0
8, 7320, Note_on_c, 6, 72, 127
8, 7545, Note_on_c, 6, 72, 0
8, 7800, Note_on_c, 6, 79, 127
8, 7852, Note_on_c, 6, 79, 0
8, 7860, Note_on_c, 6, 77, 127
8, 7912, Note_on_c, 6, 77, 0
8, 7920, Note_on_c, 6, 75, 127
8, 7972, Note_on_c, 6, 75, 0
8, 7980, Note_on_c, 6, 74, 127
8, 7986, Note_on_c, 6, 74, 0
8, 7987, Note_on_c, 6, 75, 127
8, 7993, Note_on_c, 6, 75, 0
8, 7995, Note_on_c, 6, 74, 127
8, 8001, Note_on_c, 6, 74, 0
8, 8002, Note_on_c, 6, 75, 127
8, 8008, Note_on_c, 6, 75, 0
8, 8010, Note_on_c, 6, 72, 127
8, 8023, Note_on_c, 6, 72, 0
8, 8025, Note_on_c, 6, 74, 127
8, 8038, Note_on_c, 6, 74, 0
8, 8040, Note_on_c, 6, 72, 127
8, 8145, Note_on_c, 6, 72, 0
8, 8160, Note_on_c, 6, 65, 127
8, 8265, Note_on_c, 6, 65, 0
8, 12840, Note_on_c, 6, 74, 127
8, 12945, Note_on_c, 6, 74, 0
8, 12960, Note_on_c, 6, 72, 127
8, 13065, Note_on_c, 6, 72, 0
8, 13080, Note_on_c, 6, 70, 127
8, 13245, Note_on_c, 6, 70, 0
8, 13260, Note_on_c, 6, 72, 127
8, 13312, Note_on_c, 6, 72, 0
8, 13320, Note_on_c, 6, 74, 127
8, 13425, Note_on_c, 6, 74, 0
8, 13560, Note_on_c, 6, 72, 127
8, 13638, Note_on_c, 6, 72, 0
8, 13650, Note_on_c, 6, 74, 127
8, 13676, Note_on_c, 6, 74, 0
8, 13680, Note_on_c, 6, 70, 127
8, 13693, Note_on_c, 6, 70, 0
8, 13695, Note_on_c, 6, 72, 127
8, 13708, Note_on_c, 6, 72, 0
8, 13710, Note_on_c, 6, 70, 127
8, 13723, Note_on_c, 6, 70, 0
8, 13725, Note_on_c, 6, 72, 127
8, 13738, Note_on_c, 6, 72, 0
8, 13740, Note_on_c, 6, 70, 127
8, 13753, Note_on_c, 6, 70, 0
8, 13755, Note_on_c, 6, 72, 127
8, 13768, Note_on_c, 6, 72, 0
8, 13770, Note_on_c, 6, 69, 127
8, 13783, Note_on_c, 6, 69, 0
8, 13785, Note_on_c, 6, 70, 127
8, 13798, Note_on_c, 6, 70, 0
8, 13800, Note_on_c, 6, 72, 127
8, 13905, Note_on_c, 6, 72, 0
8, 13920, Note_on_c, 6, 65, 127
8, 14025, Note_on_c, 6, 65, 0
8, 14040, Note_on_c, 6, 77, 126
8, 14212, Note_on_c, 6, 77, 0
8, 14220, Note_on_c, 6, 75, 127
8, 14272, Note_on_c, 6, 75, 0
8, 14280, Note_on_c, 6, 74, 127
8, 14332, Note_on_c, 6, 74, 0
8, 14340, Note_on_c, 6, 72, 127
8, 14392, Note_on_c, 6, 72, 0
8, 14400, Note_on_c, 6, 70, 127
8, 14413, Note_on_c, 6, 70, 0
8, 14415, Note_on_c, 6, 72, 127
8, 14428, Note_on_c, 6, 72, 0
8, 14430, Note_on_c, 6, 70, 127
8, 14443, Note_on_c, 6, 70, 0
8, 14445, Note_on_c, 6, 72, 127
8, 14458, Note_on_c, 6, 72, 0
8, 14460, Note_on_c, 6, 70, 127
8, 14473, Note_on_c, 6, 70, 0
8, 14475, Note_on_c, 6, 72, 127
8, 14488, Note_on_c, 6, 72, 0
8, 14490, Note_on_c, 6, 69, 127
8, 14503, Note_on_c, 6, 69, 0
8, 14505, Note_on_c, 6, 70, 127
8, 14518, Note_on_c, 6, 70, 0
8, 14520, Note_on_c, 6, 72, 127
8, 14745, Note_on_c, 6, 72, 0
8, 18240, Note_on_c, 6, 72, 127
8, 18300, Note_on_c, 6, 72, 0
8, 18300, Note_on_c, 6, 71, 127
8, 18330, Note_on_c, 6, 71, 0
8, 18330, Note_on_c, 6, 72, 127
8, 18356, Note_on_c, 6, 72, 0
8, 18360, Note_on_c, 6, 74, 127
8, 18420, Note_on_c, 6, 74, 0
8, 18420, Note_on_c, 6, 75, 127
8, 18450, Note_on_c, 6, 75, 0
8, 18450, Note_on_c, 6, 77, 127
8, 18476, Note_on_c, 6, 77, 0
8, 18480, Note_on_c, 6, 75, 127
8, 18645, Note_on_c, 6, 75, 0
8, 18660, Note_on_c, 6, 74, 127
8, 18712, Note_on_c, 6, 74, 0
8, 18720, Note_on_c, 6, 72, 127
8, 18825, Note_on_c, 6, 72, 0
8, 18960, Note_on_c, 6, 80, 127
8, 19012, Note_on_c, 6, 80, 0
8, 19020, Note_on_c, 6, 79, 127
8, 19072, Note_on_c, 6, 79, 0
8, 19080, Note_on_c, 6, 77, 127
8, 19132, Note_on_c, 6, 77, 0
8, 19140, Note_on_c, 6, 79, 127
8, 19166, Note_on_c, 6, 79, 0
8, 19170, Note_on_c, 6, 80, 127
8, 19196, Note_on_c, 6, 80, 0
8, 19200, Note_on_c, 6, 71, 127
8, 19365, Note_on_c, 6, 71, 0
8, 19380, Note_on_c, 6, 72, 127
8, 19432, Note_on_c, 6, 72, 0
8, 19440, Note_on_c, 6, 74, 127
8, 19492, Note_on_c, 6, 74, 0
8, 19500, Note_on_c, 6, 67, 127
8, 19552, Note_on_c, 6, 67, 0
8, 19560, Note_on_c, 6, 79, 127
8, 19612, Note_on_c, 6, 79, 0
8, 19620, Note_on_c, 6, 72, 127
8, 19672, Note_on_c, 6, 72, 0
8, 19680, Note_on_c, 6, 71, 127
8, 19845, Note_on_c, 6, 71, 0
8, 19860, Note_on_c, 6, 72, 127
8, 19912, Note_on_c, 6, 72, 0
8, 19920, Note_on_c, 6, 74, 127
8, 20025, Note_on_c, 6, 74, 0
8, 24360, Note_on_c, 6, 67, 127
8, 24420, Note_on_c, 6, 67, 0
8, 24420, Note_on_c, 6, 66, 127
8, 24450, Note_on_c, 6, 66, 0
8, 24450, Note_on_c, 6, 67, 127
8, 24476, Note_on_c, 6, 67, 0
8, 24480, Note_on_c, 6, 69, 127
8, 24540, Note_on_c, 6, 69, 0
8, 24540, Note_on_c, 6, 70, 127
8, 24570, Note_on_c, 6, 70, 0
8, 24570, Note_on_c, 6, 72, 127
8, 24596, Note_on_c, 6, 72, 0
8, 24600, Note_on_c, 6, 70, 127
8, 24765, Note_on_c, 6, 70, 0
8, 24780, Note_on_c, 6, 69, 127
8, 24832, Note_on_c, 6, 69, 0
8, 24840, Note_on_c, 6, 67, 127
8, 24945, Note_on_c, 6, 67, 0
8, 25080, Note_on_c, 6, 72, 127
8, 25158, Note_on_c, 6, 72, 0
8, 25170, Note_on_c, 6, 74, 127
8, 25196, Note_on_c, 6, 74, 0
8, 25200, Note_on_c, 6, 75, 127
8, 25278, Note_on_c, 6, 75, 0
8, 25290, Note_on_c, 6, 77, 127
8, 25316, Note_on_c, 6, 77, 0
8, 25320, Note_on_c, 6, 74, 127
8, 25545, Note_on_c, 6, 74, 0
8, 25560, Note_on_c, 6, 74, 127
8, 25665, Note_on_c, 6, 74, 0
8, 25740, Note_on_c, 6, 74, 127
8, 25792, Note_on_c, 6, 74, 0
8, 25800, Note_on_c, 6, 72, 127
8, 25852, Note_on_c, 6, 72, 0
8, 25860, Note_on_c, 6, 70, 127
8, 25912, Note_on_c, 6, 70, 0
8, 25920, Note_on_c, 6, 69, 127
8, 25972, Note_on_c, 6, 69, 0
8, 25980, Note_on_c, 6, 70, 127
8, 26006, Note_on_c, 6, 70, 0
8, 26010, Note_on_c, 6, 67, 127
8, 26036, Note_on_c, 6, 67, 0
8, 26040, Note_on_c, 6, 74, 127
8, 26053, Note_on_c, 6, 74, 0
8, 26055, Note_on_c, 6, 72, 127
8, 26068, Note_on_c, 6, 72, 0
8, 26070, Note_on_c, 6, 74, 127
8, 26265, Note_on_c, 6, 74, 0
8, 29760, Note_on_c, 6, 79, 127
8, 29812, Note_on_c, 6, 79, 0
8, 29820, Note_on_c, 6, 77, 127
8, 29872, Note_on_c, 6, 77, 0
8, 29880, Note_on_c, 6, 75, 127
8, 29932, Note_on_c, 6, 75, 0
8, 29940, Note_on_c, 6, 77, 127
8, 29966, Note_on_c, 6, 77, 0
8, 29970, Note_on_c, 6, 74, 127
8, 29996, Note_on_c, 6, 74, 0
8, 30000, Note_on_c, 6, 75, 127
8, 30165, Note_on_c, 6, 75, 0
8, 30180, Note_on_c, 6, 77, 127
8, 30232, Note_on_c, 6, 77, 0
8, 30240, Note_on_c, 6, 79, 127
8, 30345, Note_on_c, 6, 79, 0
8, 30480, Note_on_c, 6, 72, 127
8, 30585, Note_on_c, 6, 72, 0
8, 30600, Note_on_c, 6, 74, 127
8, 30660, Note_on_c, 6, 74, 0
8, 30660, Note_on_c, 6, 75, 127
8, 30690, Note_on_c, 6, 75, 0
8, 30690, Note_on_c, 6, 77, 127
8, 30716, Note_on_c, 6, 77, 0
8, 30720, Note_on_c, 6, 74, 127
8, 30885, Note_on_c, 6, 74, 0
8, 30900, Note_on_c, 6, 72, 127
8, 30952, Note_on_c, 6, 72, 0
8, 30960, Note_on_c, 6, 70, 127
8, 31020, Note_on_c, 6, 70, 0
8, 31020, Note_on_c, 6, 72, 127
8, 31050, Note_on_c, 6, 72, 0
8, 31050, Note_on_c, 6, 74, 127
8, 31076, Note_on_c, 6, 74, 0
8, 31080, Note_on_c, 6, 67, 127
8, 31185, Note_on_c, 6, 67, 0
8, 31200, Note_on_c, 6, 72, 127
8, 31252, Note_on_c, 6, 72, 0
8, 31260, Note_on_c, 6, 70, 127
8, 31312, Note_on_c, 6, 70, 0
8, 31320, Note_on_c, 6, 69, 127
8, 31372, Note_on_c, 6, 69, 0
8, 31380, Note_on_c, 6, 70, 127
8, 31406, Note_on_c, 6, 70, 0
8, 31410, Note_on_c, 6, 67, 127
8, 31436, Note_on_c, 6, 67, 0
8, 31440, Note_on_c, 6, 66, 127
8, 31605, Note_on_c, 6, 66, 0
8, 31620, Note_on_c, 6, 64, 127
8, 31672, Note_on_c, 6, 64, 0
8, 31680, Note_on_c, 6, 62, 127
8, 31785, Note_on_c, 6, 62, 0
8, 35880, Note_on_c, 6, 79, 127
8, 36000, Note_on_c, 6, 79, 0
8, 36000, Note_on_c, 6, 77, 127
8, 36120, Note_on_c, 6, 77, 0
8, 36120, Note_on_c, 6, 75, 127
8, 36300, Note_on_c, 6, 75, 0
8, 36300, Note_on_c, 6, 77, 127
8, 36360, Note_on_c, 6, 77, 0
8, 36360, Note_on_c, 6, 79, 127
8, 36480, Note_on_c, 6, 79, 0
8, 36480, Note_on_c, 6, 72, 127
8, 36585, Note_on_c, 6, 72, 0
8, 36600, Note_on_c, 6, 84, 127
8, 36720, Note_on_c, 6, 84, 0
8, 36720, Note_on_c, 6, 82, 127
8, 36798, Note_on_c, 6, 82, 0
8, 36840, Note_on_c, 6, 82, 127
8, 36900, Note_on_c, 6, 82, 0
8, 36900, Note_on_c, 6, 81, 127
8, 36952, Note_on_c, 6, 81, 0
8, 36960, Note_on_c, 6, 79, 127
8, 37020, Note_on_c, 6, 79, 0
8, 37020, Note_on_c, 6, 78, 127
8, 37080, Note_on_c, 6, 78, 0
8, 37080, Note_on_c, 6, 79, 127
8, 37252, Note_on_c, 6, 79, 0
8, 37260, Note_on_c, 6, 72, 127
8, 37320, Note_on_c, 6, 72, 0
8, 37320, Note_on_c, 6, 70, 127
8, 37425, Note_on_c, 6, 70, 0
8, 37440, Note_on_c, 6, 69, 127
8, 37453, Note_on_c, 6, 69, 0
8, 37455, Note_on_c, 6, 70, 127
8, 37468, Note_on_c, 6, 70, 0
8, 37470, Note_on_c, 6, 69, 127
8, 37496, Note_on_c, 6, 69, 0
8, 37500, Note_on_c, 6, 67, 127
8, 37552, Note_on_c, 6, 67, 0
8, 37560, Note_on_c, 6, 67, 127
8, 37920, Note_on_c, 6, 67, 0
8, 37920, End_track
9, 0, Start_track
9, 0, MIDI_port, 0
9, 0, Title_t, "Viola"
9, 0, Program_c, 7, 41
9, 0, Control_c, 7, 7, 105
9, 0, Control_c, 7, 10, 64
9, 42, Control_c, 7, 7, 104
9, 2640, Note_on_c, 7, 67, 122
9, 2985, Note_on_c, 7, 67, 0
9, 3000, Note_on_c, 7, 69, 122
9, 3345, Note_on_c, 7, 69, 0
9, 3360, Note_on_c, 7, 70, 122
9, 3705, Note_on_c, 7, 70, 0
9, 3720, Note_on_c, 7, 70, 120
9, 4065, Note_on_c, 7, 70, 0
9, 4080, Note_on_c, 7, 72, 119
9, 4425, Note_on_c, 7, 72, 0
9, 4440, Note_on_c, 7, 70, 121
9, 4453, Note_on_c, 7, 70, 0
9, 4455, Note_on_c, 7, 72, 122
9, 4468, Note_on_c, 7, 72, 0
9, 4470, Note_on_c, 7, 70, 122
9, 4483, Note_on_c, 7, 70, 0
9, 4485, Note_on_c, 7, 72, 120
9, 4498, Note_on_c, 7, 72, 0
9, 4500, Note_on_c, 7, 70, 118
9, 4513, Note_on_c, 7, 70, 0
9, 4515, Note_on_c, 7, 72, 124
9, 4528, Note_on_c, 7, 72, 0
9, 4530, Note_on_c, 7, 70, 124
9, 4543, Note_on_c, 7, 70, 0
9, 4545, Note_on_c, 7, 72, 123
9, 4558, Note_on_c, 7, 72, 0
9, 4560, Note_on_c, 7, 70, 123
9, 4573, Note_on_c, 7, 70, 0
9, 4575, Note_on_c, 7, 72, 123
9, 4588, Note_on_c, 7, 72, 0
9, 4590, Note_on_c, 7, 70, 123
9, 4603, Note_on_c, 7, 70, 0
9, 4605, Note_on_c, 7, 72, 123
9, 4618, Note_on_c, 7, 72, 0
9, 4620, Note_on_c, 7, 70, 123
9, 4633, Note_on_c, 7, 70, 0
9, 4635, Note_on_c, 7, 72, 121
9, 4648, Note_on_c, 7, 72, 0
9, 4650, Note_on_c, 7, 70, 120
9, 4663, Note_on_c, 7, 70, 0
9, 4665, Note_on_c, 7, 72, 120
9, 4678, Note_on_c, 7, 72, 0
9, 4680, Note_on_c, 7, 70, 120
9, 4785, Note_on_c, 7, 70, 0
9, 4800, Note_on_c, 7, 69, 120
9, 5145, Note_on_c, 7, 69, 0
9, 5160, Note_on_c, 7, 69, 121
9, 5505, Note_on_c, 7, 69, 0
9, 8760, Note_on_c, 7, 70, 121
9, 9105, Note_on_c, 7, 70, 0
9, 9120, Note_on_c, 7, 72, 119
9, 9465, Note_on_c, 7, 72, 0
9, 9480, Note_on_c, 7, 74, 119
9, 9825, Note_on_c, 7, 74, 0
9, 9840, Note_on_c, 7, 70, 119
9, 10185, Note_on_c, 7, 70, 0
9, 10200, Note_on_c, 7, 75, 121
9, 10545, Note_on_c, 7, 75, 0
9, 10560, Note_on_c, 7, 74, 121
9, 10905, Note_on_c, 7, 74, 0
9, 10920, Note_on_c, 7, 72, 121
9, 11293, Note_on_c, 7, 72, 0
9, 11295, Note_on_c, 7, 74, 119
9, 11308, Note_on_c, 7, 74, 0
9, 11310, Note_on_c, 7, 72, 119
9, 11323, Note_on_c, 7, 72, 0
9, 11325, Note_on_c, 7, 74, 119
9, 11338, Note_on_c, 7, 74, 0
9, 11340, Note_on_c, 7, 72, 119
9, 11353, Note_on_c, 7, 72, 0
9, 11355, Note_on_c, 7, 74, 119
9, 11368, Note_on_c, 7, 74, 0
9, 11370, Note_on_c, 7, 72, 119
9, 11383, Note_on_c, 7, 72, 0
9, 11385, Note_on_c, 7, 74, 119
9, 11398, Note_on_c, 7, 74, 0
9, 11400, Note_on_c, 7, 72, 119
9, 11413, Note_on_c, 7, 72, 0
9, 11415, Note_on_c, 7, 74, 119
9, 11428, Note_on_c, 7, 74, 0
9, 11430, Note_on_c, 7, 72, 118
9, 11443, Note_on_c, 7, 72, 0
9, 11445, Note_on_c, 7, 74, 118
9, 11458, Note_on_c, 7, 74, 0
9, 11460, Note_on_c, 7, 72, 118
9, 11473, Note_on_c, 7, 72, 0
9, 11475, Note_on_c, 7, 74, 118
9, 11488, Note_on_c, 7, 74, 0
9, 11490, Note_on_c, 7, 72, 118
9, 11503, Note_on_c, 7, 72, 0
9, 11505, Note_on_c, 7, 74, 118
9, 11518, Note_on_c, 7, 74, 0
9, 11520, Note_on_c, 7, 72, 118
9, 11625, Note_on_c, 7, 72, 0
9, 11640, Note_on_c, 7, 70, 119
9, 11985, Note_on_c, 7, 70, 0
9, 15240, Note_on_c, 7, 74, 120
9, 15585, Note_on_c, 7, 74, 0
9, 15600, Note_on_c, 7, 74, 119
9, 15945, Note_on_c, 7, 74, 0
9, 15960, Note_on_c, 7, 74, 123
9, 16305, Note_on_c, 7, 74, 0
9, 16320, Note_on_c, 7, 74, 118
9, 16665, Note_on_c, 7, 74, 0
9, 16680, Note_on_c, 7, 72, 120
9, 17025, Note_on_c, 7, 72, 0
9, 17040, Note_on_c, 7, 70, 120
9, 17385, Note_on_c, 7, 70, 0
9, 17400, Note_on_c, 7, 72, 120
9, 17745, Note_on_c, 7, 72, 0
9, 17760, Note_on_c, 7, 72, 121
9, 18105, Note_on_c, 7, 72, 0
9, 20280, Note_on_c, 7, 72, 120
9, 20625, Note_on_c, 7, 72, 0
9, 20640, Note_on_c, 7, 74, 118
9, 20985, Note_on_c, 7, 74, 0
9, 21000, Note_on_c, 7, 75, 118
9, 21345, Note_on_c, 7, 75, 0
9, 21360, Note_on_c, 7, 75, 121
9, 21705, Note_on_c, 7, 75, 0
9, 21720, Note_on_c, 7, 74, 119
9, 22065, Note_on_c, 7, 74, 0
9, 22080, Note_on_c, 7, 72, 120
9, 22425, Note_on_c, 7, 72, 0
9, 22440, Note_on_c, 7, 74, 119
9, 22813, Note_on_c, 7, 74, 0
9, 22815, Note_on_c, 7, 75, 120
9, 22828, Note_on_c, 7, 75, 0
9, 22830, Note_on_c, 7, 74, 120
9, 22843, Note_on_c, 7, 74, 0
9, 22845, Note_on_c, 7, 75, 120
9, 22858, Note_on_c, 7, 75, 0
9, 22860, Note_on_c, 7, 74, 121
9, 22873, Note_on_c, 7, 74, 0
9, 22875, Note_on_c, 7, 75, 121
9, 22888, Note_on_c, 7, 75, 0
9, 22890, Note_on_c, 7, 74, 121
9, 22903, Note_on_c, 7, 74, 0
9, 22905, Note_on_c, 7, 75, 122
9, 22918, Note_on_c, 7, 75, 0
9, 22920, Note_on_c, 7, 74, 122
9, 22933, Note_on_c, 7, 74, 0
9, 22935, Note_on_c, 7, 75, 122
9, 22948, Note_on_c, 7, 75, 0
9, 22950, Note_on_c, 7, 74, 122
9, 22963, Note_on_c, 7, 74, 0
9, 22965, Note_on_c, 7, 75, 122
9, 22978, Note_on_c, 7, 75, 0
9, 22980, Note_on_c, 7, 74, 122
9, 22993, Note_on_c, 7, 74, 0
9, 22995, Note_on_c, 7, 75, 122
9, 23008, Note_on_c, 7, 75, 0
9, 23010, Note_on_c, 7, 74, 122
9, 23023, Note_on_c, 7, 74, 0
9, 23025, Note_on_c, 7, 75, 122
9, 23038, Note_on_c, 7, 75, 0
9, 23040, Note_on_c, 7, 74, 122
9, 23145, Note_on_c, 7, 74, 0
9, 23160, Note_on_c, 7, 72, 122
9, 23505, Note_on_c, 7, 72, 0
9, 26760, Note_on_c, 7, 67, 119
9, 27105, Note_on_c, 7, 67, 0
9, 27120, Note_on_c, 7, 69, 119
9, 27465, Note_on_c, 7, 69, 0
9, 27480, Note_on_c, 7, 70, 120
9, 27825, Note_on_c, 7, 70, 0
9, 27840, Note_on_c, 7, 70, 119
9, 28185, Note_on_c, 7, 70, 0
9, 28200, Note_on_c, 7, 72, 120
9, 28545, Note_on_c, 7, 72, 0
9, 28560, Note_on_c, 7, 72, 122
9, 28573, Note_on_c, 7, 72, 0
9, 28575, Note_on_c, 7, 74, 122
9, 28588, Note_on_c, 7, 74, 0
9, 28590, Note_on_c, 7, 72, 120
9, 28603, Note_on_c, 7, 72, 0
9, 28605, Note_on_c, 7, 74, 120
9, 28618, Note_on_c, 7, 74, 0
9, 28620, Note_on_c, 7, 72, 119
9, 28633, Note_on_c, 7, 72, 0
9, 28635, Note_on_c, 7, 74, 121
9, 28648, Note_on_c, 7, 74, 0
9, 28650, Note_on_c, 7, 72, 121
9, 28663, Note_on_c, 7, 72, 0
9, 28665, Note_on_c, 7, 74, 121
9, 28678, Note_on_c, 7, 74, 0
9, 28680, Note_on_c, 7, 72, 121
9, 28693, Note_on_c, 7, 72, 0
9, 28695, Note_on_c, 7, 74, 121
9, 28708, Note_on_c, 7, 74, 0
9, 28710, Note_on_c, 7, 72, 121
9, 28723, Note_on_c, 7, 72, 0
9, 28725, Note_on_c, 7, 74, 121
9, 28738, Note_on_c, 7, 74, 0
9, 28740, Note_on_c, 7, 72, 121
9, 28753, Note_on_c, 7, 72, 0
9, 28755, Note_on_c, 7, 74, 121
9, 28768, Note_on_c, 7, 74, 0
9, 28770, Note_on_c, 7, 72, 121
9, 28783, Note_on_c, 7, 72, 0
9, 28785, Note_on_c, 7, 74, 121
9, 28798, Note_on_c, 7, 74, 0
9, 28800, Note_on_c, 7, 72, 117
9, 28905, Note_on_c, 7, 72, 0
9, 28920, Note_on_c, 7, 74, 117
9, 29265, Note_on_c, 7, 74, 0
9, 29280, Note_on_c, 7, 74, 120
9, 29625, Note_on_c, 7, 74, 0
9, 32160, Note_on_c, 7, 74, 122
9, 32505, Note_on_c, 7, 74, 0
9, 32520, Note_on_c, 7, 74, 122
9, 32865, Note_on_c, 7, 74, 0
9, 32880, Note_on_c, 7, 75, 122
9, 33225, Note_on_c, 7, 75, 0
9, 33240, Note_on_c, 7, 74, 120
9, 33585, Note_on_c, 7, 74, 0
9, 33600, Note_on_c, 7, 72, 118
9, 33945, Note_on_c, 7, 72, 0
9, 33960, Note_on_c, 7, 70, 120
9, 34305, Note_on_c, 7, 70, 0
9, 34320, Note_on_c, 7, 69, 119
9, 34665, Note_on_c, 7, 69, 0
9, 34680, Note_on_c, 7, 69, 120
9, 35025, Note_on_c, 7, 69, 0
9, 35040, Note_on_c, 7, 67, 121
9, 35505, Note_on_c, 7, 67, 0
9, 35505, End_track
10, 0, Start_track
10, 0, MIDI_port, 0
10, 0, Title_t, "Contrabass"
10, 0, Program_c, 8, 43
10, 0, Control_c, 8, 7, 90
10, 0, Control_c, 8, 10, 64
10, 38, Control_c, 8, 7, 89
10, 120, Note_on_c, 8, 55, 127
10, 225, Note_on_c, 8, 55, 0
10, 240, Note_on_c, 8, 46, 90
10, 345, Note_on_c, 8, 46, 0
10, 360, Note_on_c, 8, 50, 90
10, 465, Note_on_c, 8, 50, 0
10, 480, Note_on_c, 8, 43, 90
10, 585, Note_on_c, 8, 43, 0
10, 600, Note_on_c, 8, 55, 90
10, 705, Note_on_c, 8, 55, 0
10, 720, Note_on_c, 8, 53, 90
10, 825, Note_on_c, 8, 53, 0
10, 840, Note_on_c, 8, 52, 90
10, 1005, Note_on_c, 8, 52, 0
10, 1020, Note_on_c, 8, 54, 90
10, 1072, Note_on_c, 8, 54, 0
10, 1080, Note_on_c, 8, 55, 90
10, 1185, Note_on_c, 8, 55, 0
10, 1200, Note_on_c, 8, 50, 90
10, 1305, Note_on_c, 8, 50, 0
10, 1320, Note_on_c, 8, 48, 90
10, 1425, Note_on_c, 8, 48, 0
10, 1440, Note_on_c, 8, 46, 90
10, 1545, Note_on_c, 8, 46, 0
10, 1560, Note_on_c, 8, 45, 90
10, 1665, Note_on_c, 8, 45, 0
10, 1680, Note_on_c, 8, 42, 90
10, 1785, Note_on_c, 8, 42, 0
10, 1800, Note_on_c, 8, 43, 90
10, 1905, Note_on_c, 8, 43, 0
10, 1920, Note_on_c, 8, 38, 90
10, 2025, Note_on_c, 8, 38, 0
10, 2040, Note_on_c, 8, 50, 90
10, 2145, Note_on_c, 8, 50, 0
10, 2160, Note_on_c, 8, 48, 90
10, 2265, Note_on_c, 8, 48, 0
10, 2280, Note_on_c, 8, 46, 90
10, 2445, Note_on_c, 8, 46, 0
10, 2460, Note_on_c, 8, 48, 90
10, 2512, Note_on_c, 8, 48, 0
10, 2520, Note_on_c, 8, 50, 90
10, 2625, Note_on_c, 8, 50, 0
10, 2640, Note_on_c, 8, 43, 90
10, 2745, Note_on_c, 8, 43, 0
10, 2760, Note_on_c, 8, 45, 90
10, 2865, Note_on_c, 8, 45, 0
10, 2880, Note_on_c, 8, 47, 90
10, 2985, Note_on_c, 8, 47, 0
10, 3000, Note_on_c, 8, 48, 90
10, 3165, Note_on_c, 8, 48, 0
10, 3180, Note_on_c, 8, 46, 90
10, 3232, Note_on_c, 8, 46, 0
10, 3240, Note_on_c, 8, 45, 90
10, 3345, Note_on_c, 8, 45, 0
10, 3360, Note_on_c, 8, 43, 90
10, 3465, Note_on_c, 8, 43, 0
10, 3480, Note_on_c, 8, 55, 90
10, 3585, Note_on_c, 8, 55, 0
10, 3600, Note_on_c, 8, 53, 90
10, 3705, Note_on_c, 8, 53, 0
10, 3720, Note_on_c, 8, 51, 90
10, 3885, Note_on_c, 8, 51, 0
10, 3900, Note_on_c, 8, 53, 90
10, 3952, Note_on_c, 8, 53, 0
10, 3960, Note_on_c, 8, 55, 90
10, 4065, Note_on_c, 8, 55, 0
10, 4080, Note_on_c, 8, 45, 90
10, 4185, Note_on_c, 8, 45, 0
10, 4200, Note_on_c, 8, 52, 90
10, 4305, Note_on_c, 8, 52, 0
10, 4320, Note_on_c, 8, 54, 90
10, 4425, Note_on_c, 8, 54, 0
10, 4440, Note_on_c, 8, 55, 90
10, 4605, Note_on_c, 8, 55, 0
10, 4620, Note_on_c, 8, 53, 90
10, 4672, Note_on_c, 8, 53, 0
10, 4680, Note_on_c, 8, 52, 90
10, 4785, Note_on_c, 8, 52, 0
10, 4800, Note_on_c, 8, 53, 90
10, 4905, Note_on_c, 8, 53, 0
10, 4920, Note_on_c, 8, 57, 90
10, 5025, Note_on_c, 8, 57, 0
10, 5040, Note_on_c, 8, 55, 90
10, 5145, Note_on_c, 8, 55, 0
10, 5160, Note_on_c, 8, 53, 90
10, 5325, Note_on_c, 8, 53, 0
10, 5340, Note_on_c, 8, 55, 90
10, 5392, Note_on_c, 8, 55, 0
10, 5400, Note_on_c, 8, 57, 90
10, 5505, Note_on_c, 8, 57, 0
10, 5520, Note_on_c, 8, 50, 90
10, 5625, Note_on_c, 8, 50, 0
10, 5640, Note_on_c, 8, 43, 90
10, 5745, Note_on_c, 8, 43, 0
10, 5760, Note_on_c, 8, 45, 90
10, 5865, Note_on_c, 8, 45, 0
10, 5880, Note_on_c, 8, 38, 90
10, 5932, Note_on_c, 8, 38, 0
10, 5940, Note_on_c, 8, 51, 127
10, 5992, Note_on_c, 8, 51, 0
10, 6000, Note_on_c, 8, 50, 127
10, 6052, Note_on_c, 8, 50, 0
10, 6060, Note_on_c, 8, 48, 127
10, 6112, Note_on_c, 8, 48, 0
10, 6120, Note_on_c, 8, 46, 127
10, 6172, Note_on_c, 8, 46, 0
10, 6180, Note_on_c, 8, 45, 127
10, 6232, Note_on_c, 8, 45, 0
10, 6240, Note_on_c, 8, 43, 127
10, 6345, Note_on_c, 8, 43, 0
10, 6360, Note_on_c, 8, 55, 90
10, 6465, Note_on_c, 8, 55, 0
10, 6480, Note_on_c, 8, 57, 90
10, 6585, Note_on_c, 8, 57, 0
10, 6600, Note_on_c, 8, 58, 90
10, 6705, Note_on_c, 8, 58, 0
10, 6720, Note_on_c, 8, 46, 90
10, 6825, Note_on_c, 8, 46, 0
10, 6840, Note_on_c, 8, 45, 90
10, 6945, Note_on_c, 8, 45, 0
10, 6960, Note_on_c, 8, 43, 90
10, 7125, Note_on_c, 8, 43, 0
10, 7140, Note_on_c, 8, 45, 90
10, 7192, Note_on_c, 8, 45, 0
10, 7200, Note_on_c, 8, 46, 90
10, 7305, Note_on_c, 8, 46, 0
10, 7320, Note_on_c, 8, 53, 90
10, 7425, Note_on_c, 8, 53, 0
10, 7440, Note_on_c, 8, 51, 90
10, 7545, Note_on_c, 8, 51, 0
10, 7560, Note_on_c, 8, 50, 90
10, 7665, Note_on_c, 8, 50, 0
10, 7680, Note_on_c, 8, 48, 90
10, 7785, Note_on_c, 8, 48, 0
10, 7800, Note_on_c, 8, 45, 90
10, 7905, Note_on_c, 8, 45, 0
10, 7920, Note_on_c, 8, 46, 90
10, 8025, Note_on_c, 8, 46, 0
10, 8040, Note_on_c, 8, 41, 90
10, 8145, Note_on_c, 8, 41, 0
10, 8160, Note_on_c, 8, 53, 90
10, 8265, Note_on_c, 8, 53, 0
10, 8280, Note_on_c, 8, 51, 90
10, 8385, Note_on_c, 8, 51, 0
10, 8400, Note_on_c, 8, 50, 90
10, 8565, Note_on_c, 8, 50, 0
10, 8580, Note_on_c, 8, 51, 90
10, 8632, Note_on_c, 8, 51, 0
10, 8640, Note_on_c, 8, 53, 90
10, 8745, Note_on_c, 8, 53, 0
10, 8760, Note_on_c, 8, 46, 90
10, 8865, Note_on_c, 8, 46, 0
10, 8880, Note_on_c, 8, 48, 90
10, 8985, Note_on_c, 8, 48, 0
10, 9000, Note_on_c, 8, 50, 90
10, 9105, Note_on_c, 8, 50, 0
10, 9120, Note_on_c, 8, 51, 90
10, 9285, Note_on_c, 8, 51, 0
10, 9300, Note_on_c, 8, 50, 90
10, 9352, Note_on_c, 8, 50, 0
10, 9360, Note_on_c, 8, 48, 90
10, 9465, Note_on_c, 8, 48, 0
10, 9480, Note_on_c, 8, 46, 90
10, 9585, Note_on_c, 8, 46, 0
10, 9600, Note_on_c, 8, 58, 90
10, 9705, Note_on_c, 8, 58, 0
10, 9720, Note_on_c, 8, 57, 90
10, 9825, Note_on_c, 8, 57, 0
10, 9840, Note_on_c, 8, 55, 90
10, 10005, Note_on_c, 8, 55, 0
10, 10020, Note_on_c, 8, 57, 90
10, 10072, Note_on_c, 8, 57, 0
10, 10080, Note_on_c, 8, 58, 90
10, 10185, Note_on_c, 8, 58, 0
10, 10200, Note_on_c, 8, 48, 90
10, 10305, Note_on_c, 8, 48, 0
10, 10320, Note_on_c, 8, 43, 90
10, 10425, Note_on_c, 8, 43, 0
10, 10440, Note_on_c, 8, 45, 90
10, 10545, Note_on_c, 8, 45, 0
10, 10560, Note_on_c, 8, 46, 90
10, 10725, Note_on_c, 8, 46, 0
10, 10740, Note_on_c, 8, 45, 90
10, 10792, Note_on_c, 8, 45, 0
10, 10800, Note_on_c, 8, 43, 90
10, 10852, Note_on_c, 8, 43, 0
10, 10860, Note_on_c, 8, 41, 90
10, 10912, Note_on_c, 8, 41, 0
10, 10920, Note_on_c, 8, 40, 90
10, 11025, Note_on_c, 8, 40, 0
10, 11040, Note_on_c, 8, 38, 90
10, 11145, Note_on_c, 8, 38, 0
10, 11160, Note_on_c, 8, 40, 90
10, 11265, Note_on_c, 8, 40, 0
10, 11280, Note_on_c, 8, 41, 90
10, 11385, Note_on_c, 8, 41, 0
10, 11400, Note_on_c, 8, 39, 90
10, 11505, Note_on_c, 8, 39, 0
10, 11520, Note_on_c, 8, 41, 90
10, 11625, Note_on_c, 8, 41, 0
10, 11640, Note_on_c, 8, 43, 90
10, 11805, Note_on_c, 8, 43, 0
10, 11820, Note_on_c, 8, 45, 90
10, 11872, Note_on_c, 8, 45, 0
10, 11880, Note_on_c, 8, 46, 90
10, 11985, Note_on_c, 8, 46, 0
10, 12000, Note_on_c, 8, 39, 90
10, 12105, Note_on_c, 8, 39, 0
10, 12120, Note_on_c, 8, 36, 90
10, 12225, Note_on_c, 8, 36, 0
10, 12240, Note_on_c, 8, 41, 90
10, 12345, Note_on_c, 8, 41, 0
10, 12360, Note_on_c, 8, 46, 90
10, 12412, Note_on_c, 8, 46, 0
10, 12420, Note_on_c, 8, 50, 127
10, 12472, Note_on_c, 8, 50, 0
10, 12480, Note_on_c, 8, 51, 127
10, 12532, Note_on_c, 8, 51, 0
10, 12540, Note_on_c, 8, 53, 127
10, 12592, Note_on_c, 8, 53, 0
10, 12600, Note_on_c, 8, 55, 127
10, 12652, Note_on_c, 8, 55, 0
10, 12660, Note_on_c, 8, 57, 127
10, 12712, Note_on_c, 8, 57, 0
10, 12720, Note_on_c, 8, 58, 127
10, 12825, Note_on_c, 8, 58, 0
10, 12840, Note_on_c, 8, 46, 90
10, 12945, Note_on_c, 8, 46, 0
10, 12960, Note_on_c, 8, 45, 90
10, 13065, Note_on_c, 8, 45, 0
10, 13080, Note_on_c, 8, 43, 90
10, 13245, Note_on_c, 8, 43, 0
10, 13260, Note_on_c, 8, 45, 90
10, 13312, Note_on_c, 8, 45, 0
10, 13320, Note_on_c, 8, 46, 90
10, 13545, Note_on_c, 8, 46, 0
10, 13560, Note_on_c, 8, 45, 90
10, 13665, Note_on_c, 8, 45, 0
10, 13680, Note_on_c, 8, 43, 90
10, 13785, Note_on_c, 8, 43, 0
10, 13800, Note_on_c, 8, 41, 90
10, 13905, Note_on_c, 8, 41, 0
10, 13920, Note_on_c, 8, 53, 90
10, 14025, Note_on_c, 8, 53, 0
10, 14040, Note_on_c, 8, 51, 90
10, 14145, Note_on_c, 8, 51, 0
10, 14160, Note_on_c, 8, 50, 90
10, 14325, Note_on_c, 8, 50, 0
10, 14340, Note_on_c, 8, 51, 90
10, 14392, Note_on_c, 8, 51, 0
10, 14400, Note_on_c, 8, 53, 90
10, 14452, Note_on_c, 8, 53, 0
10, 14460, Note_on_c, 8, 55, 90
10, 14512, Note_on_c, 8, 55, 0
10, 14520, Note_on_c, 8, 57, 90
10, 14625, Note_on_c, 8, 57, 0
10, 14640, Note_on_c, 8, 53, 90
10, 14745, Note_on_c, 8, 53, 0
10, 14760, Note_on_c, 8, 58, 90
10, 14865, Note_on_c, 8, 58, 0
10, 14880, Note_on_c, 8, 51, 90
10, 14985, Note_on_c, 8, 51, 0
10, 15000, Note_on_c, 8, 48, 90
10, 15105, Note_on_c, 8, 48, 0
10, 15120, Note_on_c, 8, 53, 90
10, 15225, Note_on_c, 8, 53, 0
10, 15240, Note_on_c, 8, 46, 90
10, 15345, Note_on_c, 8, 46, 0
10, 15360, Note_on_c, 8, 50, 90
10, 15465, Note_on_c, 8, 50, 0
10, 15480, Note_on_c, 8, 48, 90
10, 15585, Note_on_c, 8, 48, 0
10, 15600, Note_on_c, 8, 46, 90
10, 15765, Note_on_c, 8, 46, 0
10, 15780, Note_on_c, 8, 48, 90
10, 15832, Note_on_c, 8, 48, 0
10, 15840, Note_on_c, 8, 50, 90
10, 15945, Note_on_c, 8, 50, 0
10, 15960, Note_on_c, 8, 43, 90
10, 16065, Note_on_c, 8, 43, 0
10, 16080, Note_on_c, 8, 55, 90
10, 16185, Note_on_c, 8, 55, 0
10, 16200, Note_on_c, 8, 57, 90
10, 16305, Note_on_c, 8, 57, 0
10, 16320, Note_on_c, 8, 58, 90
10, 16485, Note_on_c, 8, 58, 0
10, 16500, Note_on_c, 8, 57, 90
10, 16552, Note_on_c, 8, 57, 0
10, 16560, Note_on_c, 8, 55, 90
10, 16665, Note_on_c, 8, 55, 0
10, 16680, Note_on_c, 8, 57, 90
10, 16785, Note_on_c, 8, 57, 0
10, 16800, Note_on_c, 8, 53, 90
10, 16905, Note_on_c, 8, 53, 0
10, 16920, Note_on_c, 8, 51, 90
10, 17025, Note_on_c, 8, 51, 0
10, 17040, Note_on_c, 8, 50, 90
10, 17205, Note_on_c, 8, 50, 0
10, 17220, Note_on_c, 8, 51, 90
10, 17272, Note_on_c, 8, 51, 0
10, 17280, Note_on_c, 8, 53, 90
10, 17385, Note_on_c, 8, 53, 0
10, 17400, Note_on_c, 8, 45, 90
10, 17505, Note_on_c, 8, 45, 0
10, 17520, Note_on_c, 8, 48, 90
10, 17625, Note_on_c, 8, 48, 0
10, 17640, Note_on_c, 8, 46, 90
10, 17745, Note_on_c, 8, 46, 0
10, 17760, Note_on_c, 8, 45, 90
10, 17925, Note_on_c, 8, 45, 0
10, 17940, Note_on_c, 8, 46, 90
10, 17992, Note_on_c, 8, 46, 0
10, 18000, Note_on_c, 8, 48, 90
10, 18105, Note_on_c, 8, 48, 0
10, 18120, Note_on_c, 8, 41, 90
10, 18225, Note_on_c, 8, 41, 0
10, 18240, Note_on_c, 8, 51, 90
10, 18345, Note_on_c, 8, 51, 0
10, 18360, Note_on_c, 8, 50, 90
10, 18465, Note_on_c, 8, 50, 0
10, 18480, Note_on_c, 8, 48, 90
10, 18645, Note_on_c, 8, 48, 0
10, 18660, Note_on_c, 8, 50, 90
10, 18712, Note_on_c, 8, 50, 0
10, 18720, Note_on_c, 8, 51, 90
10, 18945, Note_on_c, 8, 51, 0
10, 18960, Note_on_c, 8, 50, 90
10, 19065, Note_on_c, 8, 50, 0
10, 19080, Note_on_c, 8, 51, 90
10, 19185, Note_on_c, 8, 51, 0
10, 19200, Note_on_c, 8, 53, 90
10, 19365, Note_on_c, 8, 53, 0
10, 19380, Note_on_c, 8, 51, 90
10, 19432, Note_on_c, 8, 51, 0
10, 19440, Note_on_c, 8, 50, 90
10, 19545, Note_on_c, 8, 50, 0
10, 19560, Note_on_c, 8, 51, 90
10, 19665, Note_on_c, 8, 51, 0
10, 19680, Note_on_c, 8, 50, 90
10, 19785, Note_on_c, 8, 50, 0
10, 19800, Note_on_c, 8, 48, 90
10, 19905, Note_on_c, 8, 48, 0
10, 19920, Note_on_c, 8, 43, 90
10, 20025, Note_on_c, 8, 43, 0
10, 20040, Note_on_c, 8, 48, 90
10, 20145, Note_on_c, 8, 48, 0
10, 20160, Note_on_c, 8, 50, 90
10, 20265, Note_on_c, 8, 50, 0
10, 20280, Note_on_c, 8, 51, 90
10, 20445, Note_on_c, 8, 51, 0
10, 20460, Note_on_c, 8, 50, 90
10, 20512, Note_on_c, 8, 50, 0
10, 20520, Note_on_c, 8, 48, 90
10, 20625, Note_on_c, 8, 48, 0
10, 20640, Note_on_c, 8, 53, 90
10, 20745, Note_on_c, 8, 53, 0
10, 20760, Note_on_c, 8, 50, 90
10, 20865, Note_on_c, 8, 50, 0
10, 20880, Note_on_c, 8, 55, 90
10, 20985, Note_on_c, 8, 55, 0
10, 21000, Note_on_c, 8, 48, 90
10, 21105, Note_on_c, 8, 48, 0
10, 21120, Note_on_c, 8, 60, 90
10, 21225, Note_on_c, 8, 60, 0
10, 21240, Note_on_c, 8, 58, 90
10, 21345, Note_on_c, 8, 58, 0
10, 21360, Note_on_c, 8, 56, 90
10, 21525, Note_on_c, 8, 56, 0
10, 21540, Note_on_c, 8, 58, 90
10, 21592, Note_on_c, 8, 58, 0
10, 21600, Note_on_c, 8, 60, 90
10, 21705, Note_on_c, 8, 60, 0
10, 21720, Note_on_c, 8, 53, 90
10, 21825, Note_on_c, 8, 53, 0
10, 21840, Note_on_c, 8, 55, 90
10, 21945, Note_on_c, 8, 55, 0
10, 21960, Note_on_c, 8, 53, 90
10, 22065, Note_on_c, 8, 53, 0
10, 22080, Note_on_c, 8, 51, 90
10, 22185, Note_on_c, 8, 51, 0
10, 22200, Note_on_c, 8, 56, 90
10, 22305, Note_on_c, 8, 56, 0
10, 22320, Note_on_c, 8, 55, 90
10, 22425, Note_on_c, 8, 55, 0
10, 22440, Note_on_c, 8, 53, 90
10, 22605, Note_on_c, 8, 53, 0
10, 22620, Note_on_c, 8, 55, 90
10, 22672, Note_on_c, 8, 55, 0
10, 22680, Note_on_c, 8, 56, 90
10, 22785, Note_on_c, 8, 56, 0
10, 22800, Note_on_c, 8, 50, 90
10, 22905, Note_on_c, 8, 50, 0
10, 22920, Note_on_c, 8, 55, 90
10, 23025, Note_on_c, 8, 55, 0
10, 23040, Note_on_c, 8, 56, 90
10, 23145, Note_on_c, 8, 56, 0
10, 23160, Note_on_c, 8, 58, 90
10, 23325, Note_on_c, 8, 58, 0
10, 23340, Note_on_c, 8, 56, 90
10, 23392, Note_on_c, 8, 56, 0
10, 23400, Note_on_c, 8, 55, 90
10, 23505, Note_on_c, 8, 55, 0
10, 23520, Note_on_c, 8, 56, 90
10, 23625, Note_on_c, 8, 56, 0
10, 23640, Note_on_c, 8, 53, 90
10, 23745, Note_on_c, 8, 53, 0
10, 23760, Note_on_c, 8, 55, 90
10, 23865, Note_on_c, 8, 55, 0
10, 23880, Note_on_c, 8, 48, 90
10, 23932, Note_on_c, 8, 48, 0
10, 23940, Note_on_c, 8, 44, 127
10, 23992, Note_on_c, 8, 44, 0
10, 24000, Note_on_c, 8, 43, 127
10, 24052, Note_on_c, 8, 43, 0
10, 24060, Note_on_c, 8, 41, 127
10, 24112, Note_on_c, 8, 41, 0
10, 24120, Note_on_c, 8, 39, 127
10, 24172, Note_on_c, 8, 39, 0
10, 24180, Note_on_c, 8, 38, 127
10, 24232, Note_on_c, 8, 38, 0
10, 24240, Note_on_c, 8, 36, 127
10, 24345, Note_on_c, 8, 36, 0
10, 24360, Note_on_c, 8, 46, 90
10, 24465, Note_on_c, 8, 46, 0
10, 24480, Note_on_c, 8, 45, 90
10, 24585, Note_on_c, 8, 45, 0
10, 24600, Note_on_c, 8, 43, 90
10, 24705, Note_on_c, 8, 43, 0
10, 24720, Note_on_c, 8, 55, 90
10, 24825, Note_on_c, 8, 55, 0
10, 24840, Note_on_c, 8, 53, 90
10, 24945, Note_on_c, 8, 53, 0
10, 24960, Note_on_c, 8, 51, 90
10, 25065, Note_on_c, 8, 51, 0
10, 25080, Note_on_c, 8, 48, 90
10, 25185, Note_on_c, 8, 48, 0
10, 25200, Note_on_c, 8, 53, 90
10, 25305, Note_on_c, 8, 53, 0
10, 25320, Note_on_c, 8, 46, 90
10, 25425, Note_on_c, 8, 46, 0
10, 25440, Note_on_c, 8, 55, 90
10, 25545, Note_on_c, 8, 55, 0
10, 25560, Note_on_c, 8, 53, 90
10, 25665, Note_on_c, 8, 53, 0
10, 25680, Note_on_c, 8, 52, 90
10, 25845, Note_on_c, 8, 52, 0
10, 25860, Note_on_c, 8, 54, 90
10, 25912, Note_on_c, 8, 54, 0
10, 25920, Note_on_c, 8, 55, 90
10, 26025, Note_on_c, 8, 55, 0
10, 26040, Note_on_c, 8, 54, 90
10, 26145, Note_on_c, 8, 54, 0
10, 26160, Note_on_c, 8, 62, 90
10, 26265, Note_on_c, 8, 62, 0
10, 26280, Note_on_c, 8, 60, 90
10, 26385, Note_on_c, 8, 60, 0
10, 26400, Note_on_c, 8, 58, 90
10, 26565, Note_on_c, 8, 58, 0
10, 26580, Note_on_c, 8, 60, 90
10, 26632, Note_on_c, 8, 60, 0
10, 26640, Note_on_c, 8, 62, 90
10, 26745, Note_on_c, 8, 62, 0
10, 26760, Note_on_c, 8, 55, 90
10, 26865, Note_on_c, 8, 55, 0
10, 26880, Note_on_c, 8, 51, 90
10, 26985, Note_on_c, 8, 51, 0
10, 27000, Note_on_c, 8, 50, 90
10, 27105, Note_on_c, 8, 50, 0
10, 27120, Note_on_c, 8, 48, 90
10, 27225, Note_on_c, 8, 48, 0
10, 27240, Note_on_c, 8, 50, 90
10, 27345, Note_on_c, 8, 50, 0
10, 27360, Note_on_c, 8, 48, 90
10, 27465, Note_on_c, 8, 48, 0
10, 27480, Note_on_c, 8, 46, 90
10, 27645, Note_on_c, 8, 46, 0
10, 27660, Note_on_c, 8, 48, 90
10, 27712, Note_on_c, 8, 48, 0
10, 27720, Note_on_c, 8, 50, 90
10, 27825, Note_on_c, 8, 50, 0
10, 27840, Note_on_c, 8, 43, 90
10, 27945, Note_on_c, 8, 43, 0
10, 27960, Note_on_c, 8, 55, 90
10, 28065, Note_on_c, 8, 55, 0
10, 28080, Note_on_c, 8, 53, 90
10, 28185, Note_on_c, 8, 53, 0
10, 28200, Note_on_c, 8, 51, 90
10, 28365, Note_on_c, 8, 51, 0
10, 28380, Note_on_c, 8, 53, 90
10, 28432, Note_on_c, 8, 53, 0
10, 28440, Note_on_c, 8, 55, 90
10, 28545, Note_on_c, 8, 55, 0
10, 28560, Note_on_c, 8, 48, 90
10, 28665, Note_on_c, 8, 48, 0
10, 28680, Note_on_c, 8, 53, 90
10, 28785, Note_on_c, 8, 53, 0
10, 28800, Note_on_c, 8, 51, 90
10, 28905, Note_on_c, 8, 51, 0
10, 28920, Note_on_c, 8, 50, 90
10, 29085, Note_on_c, 8, 50, 0
10, 29100, Note_on_c, 8, 51, 90
10, 29152, Note_on_c, 8, 51, 0
10, 29160, Note_on_c, 8, 53, 90
10, 29265, Note_on_c, 8, 53, 0
10, 29280, Note_on_c, 8, 46, 90
10, 29445, Note_on_c, 8, 46, 0
10, 29460, Note_on_c, 8, 48, 90
10, 29512, Note_on_c, 8, 48, 0
10, 29520, Note_on_c, 8, 50, 90
10, 29625, Note_on_c, 8, 50, 0
10, 29640, Note_on_c, 8, 51, 90
10, 29805, Note_on_c, 8, 51, 0
10, 29820, Note_on_c, 8, 53, 90
10, 29872, Note_on_c, 8, 53, 0
10, 29880, Note_on_c, 8, 55, 90
10, 29985, Note_on_c, 8, 55, 0
10, 30000, Note_on_c, 8, 48, 90
10, 30105, Note_on_c, 8, 48, 0
10, 30120, Note_on_c, 8, 60, 90
10, 30225, Note_on_c, 8, 60, 0
10, 30240, Note_on_c, 8, 58, 90
10, 30345, Note_on_c, 8, 58, 0
10, 30360, Note_on_c, 8, 57, 90
10, 30525, Note_on_c, 8, 57, 0
10, 30540, Note_on_c, 8, 55, 90
10, 30592, Note_on_c, 8, 55, 0
10, 30600, Note_on_c, 8, 53, 90
10, 30705, Note_on_c, 8, 53, 0
10, 30720, Note_on_c, 8, 58, 90
10, 30825, Note_on_c, 8, 58, 0
10, 30840, Note_on_c, 8, 46, 90
10, 30945, Note_on_c, 8, 46, 0
10, 30960, Note_on_c, 8, 50, 90
10, 31065, Note_on_c, 8, 50, 0
10, 31080, Note_on_c, 8, 51, 90
10, 31245, Note_on_c, 8, 51, 0
10, 31260, Note_on_c, 8, 50, 90
10, 31312, Note_on_c, 8, 50, 0
10, 31320, Note_on_c, 8, 48, 90
10, 31425, Note_on_c, 8, 48, 0
10, 31440, Note_on_c, 8, 50, 90
10, 31545, Note_on_c, 8, 50, 0
10, 31560, Note_on_c, 8, 62, 90
10, 31665, Note_on_c, 8, 62, 0
10, 31680, Note_on_c, 8, 60, 90
10, 31785, Note_on_c, 8, 60, 0
10, 31800, Note_on_c, 8, 58, 90
10, 31965, Note_on_c, 8, 58, 0
10, 31980, Note_on_c, 8, 60, 90
10, 32032, Note_on_c, 8, 60, 0
10, 32040, Note_on_c, 8, 62, 90
10, 32145, Note_on_c, 8, 62, 0
10, 32160, Note_on_c, 8, 55, 90
10, 32265, Note_on_c, 8, 55, 0
10, 32280, Note_on_c, 8, 55, 90
10, 32385, Note_on_c, 8, 55, 0
10, 32400, Note_on_c, 8, 53, 90
10, 32505, Note_on_c, 8, 53, 0
10, 32520, Note_on_c, 8, 51, 90
10, 32685, Note_on_c, 8, 51, 0
10, 32700, Note_on_c, 8, 53, 90
10, 32752, Note_on_c, 8, 53, 0
10, 32760, Note_on_c, 8, 55, 90
10, 32865, Note_on_c, 8, 55, 0
10, 32880, Note_on_c, 8, 48, 90
10, 32985, Note_on_c, 8, 48, 0
10, 33000, Note_on_c, 8, 45, 90
10, 33105, Note_on_c, 8, 45, 0
10, 33120, Note_on_c, 8, 43, 90
10, 33225, Note_on_c, 8, 43, 0
10, 33240, Note_on_c, 8, 42, 90
10, 33292, Note_on_c, 8, 42, 0
10, 33300, Note_on_c, 8, 54, 127
10, 33352, Note_on_c, 8, 54, 0
10, 33360, Note_on_c, 8, 55, 127
10, 33412, Note_on_c, 8, 55, 0
10, 33420, Note_on_c, 8, 51, 127
10, 33472, Note_on_c, 8, 51, 0
10, 33480, Note_on_c, 8, 53, 127
10, 33532, Note_on_c, 8, 53, 0
10, 33540, Note_on_c, 8, 50, 127
10, 33592, Note_on_c, 8, 50, 0
10, 33600, Note_on_c, 8, 51, 127
10, 33652, Note_on_c, 8, 51, 0
10, 33660, Note_on_c, 8, 48, 127
10, 33712, Note_on_c, 8, 48, 0
10, 33720, Note_on_c, 8, 53, 127
10, 33772, Note_on_c, 8, 53, 0
10, 33780, Note_on_c, 8, 50, 127
10, 33832, Note_on_c, 8, 50, 0
10, 33840, Note_on_c, 8, 51, 127
10, 33892, Note_on_c, 8, 51, 0
10, 33900, Note_on_c, 8, 48, 127
10, 33952, Note_on_c, 8, 48, 0
10, 33960, Note_on_c, 8, 50, 127
10, 34012, Note_on_c, 8, 50, 0
10, 34020, Note_on_c, 8, 46, 127
10, 34072, Note_on_c, 8, 46, 0
10, 34080, Note_on_c, 8, 51, 127
10, 34132, Note_on_c, 8, 51, 0
10, 34140, Note_on_c, 8, 48, 127
10, 34192, Note_on_c, 8, 48, 0
10, 34200, Note_on_c, 8, 50, 127
10, 34252, Note_on_c, 8, 50, 0
10, 34260, Note_on_c, 8, 46, 127
10, 34312, Note_on_c, 8, 46, 0
10, 34320, Note_on_c, 8, 48, 90
10, 34425, Note_on_c, 8, 48, 0
10, 34440, Note_on_c, 8, 46, 90
10, 34545, Note_on_c, 8, 46, 0
10, 34560, Note_on_c, 8, 48, 90
10, 34665, Note_on_c, 8, 48, 0
10, 34680, Note_on_c, 8, 50, 90
10, 34845, Note_on_c, 8, 50, 0
10, 34860, Note_on_c, 8, 52, 90
10, 34912, Note_on_c, 8, 52, 0
10, 34920, Note_on_c, 8, 53, 90
10, 35145, Note_on_c, 8, 53, 0
10, 35160, Note_on_c, 8, 51, 90
10, 35265, Note_on_c, 8, 51, 0
10, 35280, Note_on_c, 8, 50, 90
10, 35385, Note_on_c, 8, 50, 0
10, 35400, Note_on_c, 8, 48, 90
10, 35565, Note_on_c, 8, 48, 0
10, 35580, Note_on_c, 8, 50, 90
10, 35632, Note_on_c, 8, 50, 0
10, 35640, Note_on_c, 8, 51, 90
10, 35745, Note_on_c, 8, 51, 0
10, 35760, Note_on_c, 8, 47, 90
10, 35812, Note_on_c, 8, 47, 0
10, 35820, Note_on_c, 8, 45, 90
10, 35872, Note_on_c, 8, 45, 0
10, 35880, Note_on_c, 8, 43, 90
10, 35932, Note_on_c, 8, 43, 0
10, 35940, Note_on_c, 8, 45, 90
10, 35992, Note_on_c, 8, 45, 0
10, 36000, Note_on_c, 8, 47, 90
10, 36052, Note_on_c, 8, 47, 0
10, 36060, Note_on_c, 8, 43, 90
10, 36112, Note_on_c, 8, 43, 0
10, 36120, Note_on_c, 8, 48, 90
10, 36225, Note_on_c, 8, 48, 0
10, 36240, Note_on_c, 8, 60, 90
10, 36345, Note_on_c, 8, 60, 0
10, 36360, Note_on_c, 8, 58, 90
10, 36465, Note_on_c, 8, 58, 0
10, 36480, Note_on_c, 8, 57, 90
10, 36645, Note_on_c, 8, 57, 0
10, 36660, Note_on_c, 8, 58, 90
10, 36712, Note_on_c, 8, 58, 0
10, 36720, Note_on_c, 8, 60, 90
10, 36825, Note_on_c, 8, 60, 0
10, 36840, Note_on_c, 8, 48, 90
10, 37065, Note_on_c, 8, 48, 0
10, 37080, Note_on_c, 8, 46, 90
10, 37185, Note_on_c, 8, 46, 0
10, 37200, Note_on_c, 8, 48, 90
10, 37305, Note_on_c, 8, 48, 0
10, 37320, Note_on_c, 8, 50, 90
10, 37425, Note_on_c, 8, 50, 0
10, 37440, Note_on_c, 8, 38, 127
10, 37545, Note_on_c, 8, 38, 0
10, 37560, Note_on_c, 8, 43, 127
10, 37920, Note_on_c, 8, 43, 0
10, 37920, End_track
0, 0, End_of_file
