0, 0, Header, 1, 5, 96
1, 0, Start_track
1, 0, Key_signature, -1, "major"
1, 0, Time_signature, 4, 2, 24, 8
1, 0, Tempo, 666337
1, 19824, Tempo, 799605
1, 19968, Tempo, 666337
1, 24480, Tempo, 799605
1, 24576, Tempo, 666337
1, 32448, Tempo, 799605
1, 32688, Tempo, 999506
1, 32736, Tempo, 666337
1, 33744, Tempo, 799605
1, 33984, Tempo, 1199407
1, 34128, Tempo, 1499259
1, 34560, End_track
2, 0, Start_track
2, 0, Program_c, 0, 0
2, 0, Note_on_c, 0, 69, 88
2, 192, Note_on_c, 0, 69, 0
2, 192, Note_on_c, 0, 62, 88
2, 336, Note_on_c, 0, 62, 0
2, 336, Note_on_c, 0, 64, 88
2, 384, Note_on_c, 0, 64, 0
2, 384, Note_on_c, 0, 65, 88
2, 528, Note_on_c, 0, 65, 0
2, 528, Note_on_c, 0, 67, 88
2, 576, Note_on_c, 0, 67, 0
2, 576, Note_on_c, 0, 69, 88
2, 768, Note_on_c, 0, 69, 0
2, 768, Note_on_c, 0, 70, 88
2, 960, Note_on_c, 0, 70, 0
2, 960, Note_on_c, 0, 69, 88
2, 1104, Note_on_c, 0, 69, 0
2, 1104, Note_on_c, 0, 67, 88
2, 1152, Note_on_c, 0, 67, 0
2, 1152, Note_on_c, 0, 65, 88
2, 1344, Note_on_c, 0, 65, 0
2, 1344, Note_on_c, 0, 65, 72
2, 1392, Note_on_c, 0, 65, 0
2, 1392, Note_on_c, 0, 64, 72
2, 1440, Note_on_c, 0, 64, 0
2, 1440, Note_on_c, 0, 65, 72
2, 1488, Note_on_c, 0, 65, 0
2, 1488, Note_on_c, 0, 67, 72
2, 1536, Note_on_c, 0, 67, 0
2, 1536, Note_on_c, 0, 69, 72
2, 1584, Note_on_c, 0, 69, 0
2, 1584, Note_on_c, 0, 70, 72
2, 1632, Note_on_c, 0, 70, 0
2, 1632, Note_on_c, 0, 72, 72
2, 1776, Note_on_c, 0, 72, 0
2, 1776, Note_on_c, 0, 70, 72
2, 1824, Note_on_c, 0, 70, 0
2, 1824, Note_on_c, 0, 69, 72
2, 1872, Note_on_c, 0, 69, 0
2, 1872, Note_on_c, 0, 70, 72
2, 1920, Note_on_c, 0, 70, 0
2, 1920, Note_on_c, 0, 64, 72
2, 1968, Note_on_c, 0, 64, 0
2, 1968, Note_on_c, 0, 65, 72
2, 2016, Note_on_c, 0, 65, 0
2, 2016, Note_on_c, 0, 67, 72
2, 2160, Note_on_c, 0, 67, 0
2, 2160, Note_on_c, 0, 69, 72
2, 2208, Note_on_c, 0, 69, 0
2, 2208, Note_on_c, 0, 65, 72
2, 2256, Note_on_c, 0, 65, 0
2, 2256, Note_on_c, 0, 67, 72
2, 2304, Note_on_c, 0, 67, 0
2, 2304, Note_on_c, 0, 69, 72
2, 2352, Note_on_c, 0, 69, 0
2, 2352, Note_on_c, 0, 67, 72
2, 2400, Note_on_c, 0, 67, 0
2, 2400, Note_on_c, 0, 65, 72
2, 2448, Note_on_c, 0, 65, 0
2, 2448, Note_on_c, 0, 64, 72
2, 2496, Note_on_c, 0, 64, 0
2, 2496, Note_on_c, 0, 62, 72
2, 2544, Note_on_c, 0, 62, 0
2, 2544, Note_on_c, 0, 59, 72
2, 2592, Note_on_c, 0, 59, 0
2, 2592, Note_on_c, 0, 61, 72
2, 2688, Note_on_c, 0, 61, 0
2, 2688, Note_on_c, 0, 62, 72
2, 2880, Note_on_c, 0, 62, 0
2, 2880, Note_on_c, 0, 62, 72
2, 2928, Note_on_c, 0, 62, 0
2, 2928, Note_on_c, 0, 64, 72
2, 2976, Note_on_c, 0, 64, 0
2, 2976, Note_on_c, 0, 65, 72
2, 3024, Note_on_c, 0, 65, 0
2, 3024, Note_on_c, 0, 67, 72
2, 3072, Note_on_c, 0, 67, 0
2, 3072, Note_on_c, 0, 69, 72
2, 3120, Note_on_c, 0, 69, 0
2, 3120, Note_on_c, 0, 64, 72
2, 3168, Note_on_c, 0, 64, 0
2, 3168, Note_on_c, 0, 69, 72
2, 3312, Note_on_c, 0, 69, 0
2, 3312, Note_on_c, 0, 62, 72
2, 3360, Note_on_c, 0, 62, 0
2, 3360, Note_on_c, 0, 67, 72
2, 3456, Note_on_c, 0, 67, 0
2, 3456, Note_on_c, 0, 65, 72
2, 3504, Note_on_c, 0, 65, 0
2, 3504, Note_on_c, 0, 69, 72
2, 3552, Note_on_c, 0, 69, 0
2, 3552, Note_on_c, 0, 71, 72
2, 3600, Note_on_c, 0, 71, 0
2, 3600, Note_on_c, 0, 73, 72
2, 3648, Note_on_c, 0, 73, 0
2, 3648, Note_on_c, 0, 74, 72
2, 3696, Note_on_c, 0, 74, 0
2, 3696, Note_on_c, 0, 69, 72
2, 3744, Note_on_c, 0, 69, 0
2, 3744, Note_on_c, 0, 74, 72
2, 3840, Note_on_c, 0, 74, 0
2, 3840, Note_on_c, 0, 72, 72
2, 4032, Note_on_c, 0, 72, 0
2, 4464, Note_on_c, 0, 81, 56
2, 4512, Note_on_c, 0, 81, 0
2, 4512, Note_on_c, 0, 79, 56
2, 4560, Note_on_c, 0, 79, 0
2, 4560, Note_on_c, 0, 77, 56
2, 4608, Note_on_c, 0, 77, 0
2, 4608, Note_on_c, 0, 76, 56
2, 4800, Note_on_c, 0, 76, 0
2, 4800, Note_on_c, 0, 76, 56
2, 4848, Note_on_c, 0, 76, 0
2, 4848, Note_on_c, 0, 79, 56
2, 4896, Note_on_c, 0, 79, 0
2, 4896, Note_on_c, 0, 77, 56
2, 4944, Note_on_c, 0, 77, 0
2, 4944, Note_on_c, 0, 76, 56
2, 4992, Note_on_c, 0, 76, 0
2, 4992, Note_on_c, 0, 77, 56
2, 5184, Note_on_c, 0, 77, 0
2, 5184, Note_on_c, 0, 76, 56
2, 5376, Note_on_c, 0, 76, 0
2, 5376, Note_on_c, 0, 76, 56
2, 5424, Note_on_c, 0, 76, 0
2, 5424, Note_on_c, 0, 69, 72
2, 5472, Note_on_c, 0, 69, 0
2, 5472, Note_on_c, 0, 71, 72
2, 5520, Note_on_c, 0, 71, 0
2, 5520, Note_on_c, 0, 73, 72
2, 5568, Note_on_c, 0, 73, 0
2, 5568, Note_on_c, 0, 74, 72
2, 5616, Note_on_c, 0, 74, 0
2, 5616, Note_on_c, 0, 69, 72
2, 5664, Note_on_c, 0, 69, 0
2, 5664, Note_on_c, 0, 74, 72
2, 5760, Note_on_c, 0, 74, 0
2, 5760, Note_on_c, 0, 74, 72
2, 5808, Note_on_c, 0, 74, 0
2, 5808, Note_on_c, 0, 74, 72
2, 5856, Note_on_c, 0, 74, 0
2, 5856, Note_on_c, 0, 73, 72
2, 5904, Note_on_c, 0, 73, 0
2, 5904, Note_on_c, 0, 71, 72
2, 5952, Note_on_c, 0, 71, 0
2, 5952, Note_on_c, 0, 73, 72
2, 6144, Note_on_c, 0, 73, 0
2, 6192, Note_on_c, 0, 57, 72
2, 6240, Note_on_c, 0, 57, 0
2, 6240, Note_on_c, 0, 59, 72
2, 6288, Note_on_c, 0, 59, 0
2, 6288, Note_on_c, 0, 61, 72
2, 6336, Note_on_c, 0, 61, 0
2, 6336, Note_on_c, 0, 62, 72
2, 6384, Note_on_c, 0, 62, 0
2, 6384, Note_on_c, 0, 64, 72
2, 6432, Note_on_c, 0, 64, 0
2, 6432, Note_on_c, 0, 65, 72
2, 6528, Note_on_c, 0, 65, 0
2, 6528, Note_on_c, 0, 65, 72
2, 6576, Note_on_c, 0, 65, 0
2, 6576, Note_on_c, 0, 67, 72
2, 6624, Note_on_c, 0, 67, 0
2, 6624, Note_on_c, 0, 69, 72
2, 6768, Note_on_c, 0, 69, 0
2, 6768, Note_on_c, 0, 67, 72
2, 6816, Note_on_c, 0, 67, 0
2, 6816, Note_on_c, 0, 65, 72
2, 6864, Note_on_c, 0, 65, 0
2, 6864, Note_on_c, 0, 64, 72
2, 6912, Note_on_c, 0, 64, 0
2, 6912, Note_on_c, 0, 62, 72
2, 7008, Note_on_c, 0, 62, 0
2, 7008, Note_on_c, 0, 74, 72
2, 7152, Note_on_c, 0, 74, 0
2, 7152, Note_on_c, 0, 74, 72
2, 7200, Note_on_c, 0, 74, 0
2, 7200, Note_on_c, 0, 72, 72
2, 7248, Note_on_c, 0, 72, 0
2, 7248, Note_on_c, 0, 71, 72
2, 7296, Note_on_c, 0, 71, 0
2, 7296, Note_on_c, 0, 69, 72
2, 7344, Note_on_c, 0, 69, 0
2, 7344, Note_on_c, 0, 64, 72
2, 7392, Note_on_c, 0, 64, 0
2, 7392, Note_on_c, 0, 66, 72
2, 7440, Note_on_c, 0, 66, 0
2, 7440, Note_on_c, 0, 68, 72
2, 7488, Note_on_c, 0, 68, 0
2, 7488, Note_on_c, 0, 69, 72
2, 7680, Note_on_c, 0, 69, 0
2, 7680, Note_on_c, 0, 69, 72
2, 7728, Note_on_c, 0, 69, 0
2, 7728, Note_on_c, 0, 68, 72
2, 7776, Note_on_c, 0, 68, 0
2, 7776, Note_on_c, 0, 69, 72
2, 7824, Note_on_c, 0, 69, 0
2, 7824, Note_on_c, 0, 71, 72
2, 7872, Note_on_c, 0, 71, 0
2, 7872, Note_on_c, 0, 72, 72
2, 8064, Note_on_c, 0, 72, 0
2, 8064, Note_on_c, 0, 71, 72
2, 8256, Note_on_c, 0, 71, 0
2, 8256, Note_on_c, 0, 71, 72
2, 8304, Note_on_c, 0, 71, 0
2, 8304, Note_on_c, 0, 71, 72
2, 8352, Note_on_c, 0, 71, 0
2, 8352, Note_on_c, 0, 69, 72
2, 8400, Note_on_c, 0, 69, 0
2, 8400, Note_on_c, 0, 68, 72
2, 8448, Note_on_c, 0, 68, 0
2, 8448, Note_on_c, 0, 69, 72
2, 8496, Note_on_c, 0, 69, 0
2, 8496, Note_on_c, 0, 67, 72
2, 8544, Note_on_c, 0, 67, 0
2, 8544, Note_on_c, 0, 65, 72
2, 8592, Note_on_c, 0, 65, 0
2, 8592, Note_on_c, 0, 64, 72
2, 8640, Note_on_c, 0, 64, 0
2, 8640, Note_on_c, 0, 65, 72
2, 8784, Note_on_c, 0, 65, 0
2, 8784, Note_on_c, 0, 67, 72
2, 8832, Note_on_c, 0, 67, 0
2, 8832, Note_on_c, 0, 60, 72
2, 9024, Note_on_c, 0, 60, 0
2, 9600, Note_on_c, 0, 62, 88
2, 9792, Note_on_c, 0, 62, 0
2, 9792, Note_on_c, 0, 69, 88
2, 9936, Note_on_c, 0, 69, 0
2, 9936, Note_on_c, 0, 67, 88
2, 9984, Note_on_c, 0, 67, 0
2, 9984, Note_on_c, 0, 65, 88
2, 10128, Note_on_c, 0, 65, 0
2, 10128, Note_on_c, 0, 64, 88
2, 10176, Note_on_c, 0, 64, 0
2, 10176, Note_on_c, 0, 62, 88
2, 10368, Note_on_c, 0, 62, 0
2, 10368, Note_on_c, 0, 61, 88
2, 10560, Note_on_c, 0, 61, 0
2, 10560, Note_on_c, 0, 62, 88
2, 10704, Note_on_c, 0, 62, 0
2, 10704, Note_on_c, 0, 64, 88
2, 10752, Note_on_c, 0, 64, 0
2, 10752, Note_on_c, 0, 65, 88
2, 10944, Note_on_c, 0, 65, 0
2, 10944, Note_on_c, 0, 65, 88
2, 10992, Note_on_c, 0, 65, 0
2, 10992, Note_on_c, 0, 67, 88
2, 11040, Note_on_c, 0, 67, 0
2, 11040, Note_on_c, 0, 65, 88
2, 11088, Note_on_c, 0, 65, 0
2, 11088, Note_on_c, 0, 63, 88
2, 11136, Note_on_c, 0, 63, 0
2, 11136, Note_on_c, 0, 62, 88
2, 11520, Note_on_c, 0, 62, 0
2, 11520, Note_on_c, 0, 62, 88
2, 11568, Note_on_c, 0, 62, 0
2, 11568, Note_on_c, 0, 63, 72
2, 11616, Note_on_c, 0, 63, 0
2, 11616, Note_on_c, 0, 62, 72
2, 11664, Note_on_c, 0, 62, 0
2, 11664, Note_on_c, 0, 60, 72
2, 11712, Note_on_c, 0, 60, 0
2, 11712, Note_on_c, 0, 58, 72
2, 11904, Note_on_c, 0, 58, 0
2, 11904, Note_on_c, 0, 58, 72
2, 12096, Note_on_c, 0, 58, 0
2, 12096, Note_on_c, 0, 58, 72
2, 12144, Note_on_c, 0, 58, 0
2, 12144, Note_on_c, 0, 62, 72
2, 12192, Note_on_c, 0, 62, 0
2, 12192, Note_on_c, 0, 60, 72
2, 12240, Note_on_c, 0, 60, 0
2, 12240, Note_on_c, 0, 58, 72
2, 12288, Note_on_c, 0, 58, 0
2, 12288, Note_on_c, 0, 57, 72
2, 12432, Note_on_c, 0, 57, 0
2, 12432, Note_on_c, 0, 69, 72
2, 12480, Note_on_c, 0, 69, 0
2, 12480, Note_on_c, 0, 67, 72
2, 12528, Note_on_c, 0, 67, 0
2, 12528, Note_on_c, 0, 65, 72
2, 12576, Note_on_c, 0, 65, 0
2, 12576, Note_on_c, 0, 67, 72
2, 12672, Note_on_c, 0, 67, 0
2, 12672, Note_on_c, 0, 60, 72
2, 12864, Note_on_c, 0, 60, 0
2, 12912, Note_on_c, 0, 65, 72
2, 12960, Note_on_c, 0, 65, 0
2, 12960, Note_on_c, 0, 64, 72
2, 13008, Note_on_c, 0, 64, 0
2, 13008, Note_on_c, 0, 62, 72
2, 13056, Note_on_c, 0, 62, 0
2, 13056, Note_on_c, 0, 67, 72
2, 13104, Note_on_c, 0, 67, 0
2, 13104, Note_on_c, 0, 69, 72
2, 13152, Note_on_c, 0, 69, 0
2, 13152, Note_on_c, 0, 70, 72
2, 13296, Note_on_c, 0, 70, 0
2, 13296, Note_on_c, 0, 69, 72
2, 13344, Note_on_c, 0, 69, 0
2, 13344, Note_on_c, 0, 70, 72
2, 13440, Note_on_c, 0, 70, 0
2, 13440, Note_on_c, 0, 69, 72
2, 13536, Note_on_c, 0, 69, 0
2, 13536, Note_on_c, 0, 64, 72
2, 13632, Note_on_c, 0, 64, 0
2, 13632, Note_on_c, 0, 65, 72
2, 13824, Note_on_c, 0, 65, 0
2, 13824, Note_on_c, 0, 65, 72
2, 13872, Note_on_c, 0, 65, 0
2, 13872, Note_on_c, 0, 64, 72
2, 13920, Note_on_c, 0, 64, 0
2, 13920, Note_on_c, 0, 65, 72
2, 13968, Note_on_c, 0, 65, 0
2, 13968, Note_on_c, 0, 67, 72
2, 14016, Note_on_c, 0, 67, 0
2, 14016, Note_on_c, 0, 69, 72
2, 14208, Note_on_c, 0, 69, 0
2, 14208, Note_on_c, 0, 69, 72
2, 14256, Note_on_c, 0, 69, 0
2, 14256, Note_on_c, 0, 70, 72
2, 14304, Note_on_c, 0, 70, 0
2, 14304, Note_on_c, 0, 69, 72
2, 14352, Note_on_c, 0, 69, 0
2, 14352, Note_on_c, 0, 67, 72
2, 14400, Note_on_c, 0, 67, 0
2, 14400, Note_on_c, 0, 65, 72
2, 14496, Note_on_c, 0, 65, 0
2, 14496, Note_on_c, 0, 69, 72
2, 14592, Note_on_c, 0, 69, 0
2, 14592, Note_on_c, 0, 67, 72
2, 14784, Note_on_c, 0, 67, 0
2, 14784, Note_on_c, 0, 65, 72
2, 14976, Note_on_c, 0, 65, 0
2, 14976, Note_on_c, 0, 64, 72
2, 15168, Note_on_c, 0, 64, 0
2, 15168, Note_on_c, 0, 62, 72
2, 15360, Note_on_c, 0, 62, 0
2, 15360, Note_on_c, 0, 60, 72
2, 15552, Note_on_c, 0, 60, 0
2, 15552, Note_on_c, 0, 67, 88
2, 15744, Note_on_c, 0, 67, 0
2, 15744, Note_on_c, 0, 74, 88
2, 15888, Note_on_c, 0, 74, 0
2, 15888, Note_on_c, 0, 72, 88
2, 15936, Note_on_c, 0, 72, 0
2, 15936, Note_on_c, 0, 70, 88
2, 16080, Note_on_c, 0, 70, 0
2, 16080, Note_on_c, 0, 69, 88
2, 16128, Note_on_c, 0, 69, 0
2, 16128, Note_on_c, 0, 67, 88
2, 16320, Note_on_c, 0, 67, 0
2, 16320, Note_on_c, 0, 66, 88
2, 16512, Note_on_c, 0, 66, 0
2, 16512, Note_on_c, 0, 67, 88
2, 16656, Note_on_c, 0, 67, 0
2, 16656, Note_on_c, 0, 69, 88
2, 16704, Note_on_c, 0, 69, 0
2, 16704, Note_on_c, 0, 70, 88
2, 16896, Note_on_c, 0, 70, 0
2, 16896, Note_on_c, 0, 70, 88
2, 16944, Note_on_c, 0, 70, 0
2, 16944, Note_on_c, 0, 72, 88
2, 16992, Note_on_c, 0, 72, 0
2, 16992, Note_on_c, 0, 70, 88
2, 17040, Note_on_c, 0, 70, 0
2, 17040, Note_on_c, 0, 69, 88
2, 17088, Note_on_c, 0, 69, 0
2, 17088, Note_on_c, 0, 67, 88
2, 17136, Note_on_c, 0, 67, 0
2, 17136, Note_on_c, 0, 70, 72
2, 17184, Note_on_c, 0, 70, 0
2, 17184, Note_on_c, 0, 69, 72
2, 17232, Note_on_c, 0, 69, 0
2, 17232, Note_on_c, 0, 67, 72
2, 17280, Note_on_c, 0, 67, 0
2, 17280, Note_on_c, 0, 69, 72
2, 17376, Note_on_c, 0, 69, 0
2, 17376, Note_on_c, 0, 72, 72
2, 17472, Note_on_c, 0, 72, 0
2, 17472, Note_on_c, 0, 65, 72
2, 17616, Note_on_c, 0, 65, 0
2, 17616, Note_on_c, 0, 67, 72
2, 17664, Note_on_c, 0, 67, 0
2, 17664, Note_on_c, 0, 65, 72
2, 17712, Note_on_c, 0, 65, 0
2, 17712, Note_on_c, 0, 63, 72
2, 17760, Note_on_c, 0, 63, 0
2, 17760, Note_on_c, 0, 62, 72
2, 17808, Note_on_c, 0, 62, 0
2, 17808, Note_on_c, 0, 60, 72
2, 17856, Note_on_c, 0, 60, 0
2, 17856, Note_on_c, 0, 62, 72
2, 18048, Note_on_c, 0, 62, 0
2, 18096, Note_on_c, 0, 57, 72
2, 18144, Note_on_c, 0, 57, 0
2, 18144, Note_on_c, 0, 58, 72
2, 18192, Note_on_c, 0, 58, 0
2, 18192, Note_on_c, 0, 60, 72
2, 18240, Note_on_c, 0, 60, 0
2, 18240, Note_on_c, 0, 62, 72
2, 18288, Note_on_c, 0, 62, 0
2, 18288, Note_on_c, 0, 60, 72
2, 18336, Note_on_c, 0, 60, 0
2, 18336, Note_on_c, 0, 63, 72
2, 18432, Note_on_c, 0, 63, 0
2, 18432, Note_on_c, 0, 62, 72
2, 18528, Note_on_c, 0, 62, 0
2, 18528, Note_on_c, 0, 67, 72
2, 18576, Note_on_c, 0, 67, 0
2, 18576, Note_on_c, 0, 69, 72
2, 18624, Note_on_c, 0, 69, 0
2, 18624, Note_on_c, 0, 70, 72
2, 18672, Note_on_c, 0, 70, 0
2, 18672, Note_on_c, 0, 72, 72
2, 18720, Note_on_c, 0, 72, 0
2, 18720, Note_on_c, 0, 74, 72
2, 18816, Note_on_c, 0, 74, 0
2, 18816, Note_on_c, 0, 74, 72
2, 18864, Note_on_c, 0, 74, 0
2, 18864, Note_on_c, 0, 72, 72
2, 18912, Note_on_c, 0, 72, 0
2, 18912, Note_on_c, 0, 70, 72
2, 18960, Note_on_c, 0, 70, 0
2, 18960, Note_on_c, 0, 69, 72
2, 19008, Note_on_c, 0, 69, 0
2, 19008, Note_on_c, 0, 67, 72
2, 19056, Note_on_c, 0, 67, 0
2, 19056, Note_on_c, 0, 69, 72
2, 19104, Note_on_c, 0, 69, 0
2, 19104, Note_on_c, 0, 70, 72
2, 19200, Note_on_c, 0, 70, 0
2, 19200, Note_on_c, 0, 70, 72
2, 19248, Note_on_c, 0, 70, 0
2, 19248, Note_on_c, 0, 67, 72
2, 19296, Note_on_c, 0, 67, 0
2, 19296, Note_on_c, 0, 69, 72
2, 19440, Note_on_c, 0, 69, 0
2, 19440, Note_on_c, 0, 65, 72
2, 19488, Note_on_c, 0, 65, 0
2, 19488, Note_on_c, 0, 67, 72
2, 19536, Note_on_c, 0, 67, 0
2, 19536, Note_on_c, 0, 69, 72
2, 19584, Note_on_c, 0, 69, 0
2, 19584, Note_on_c, 0, 70, 72
2, 19776, Note_on_c, 0, 70, 0
2, 19776, Note_on_c, 0, 70, 72
2, 19824, Note_on_c, 0, 70, 0
2, 19824, Note_on_c, 0, 70, 72
2, 19872, Note_on_c, 0, 70, 0
2, 19872, Note_on_c, 0, 69, 72
2, 19920, Note_on_c, 0, 69, 0
2, 19920, Note_on_c, 0, 67, 72
2, 19968, Note_on_c, 0, 67, 0
2, 19968, Note_on_c, 0, 69, 72
2, 20064, Note_on_c, 0, 69, 0
2, 20256, Note_on_c, 0, 72, 72
2, 20352, Note_on_c, 0, 72, 0
2, 20352, Note_on_c, 0, 67, 72
2, 20496, Note_on_c, 0, 67, 0
2, 20496, Note_on_c, 0, 69, 72
2, 20544, Note_on_c, 0, 69, 0
2, 20544, Note_on_c, 0, 70, 72
2, 20688, Note_on_c, 0, 70, 0
2, 20688, Note_on_c, 0, 72, 72
2, 20736, Note_on_c, 0, 72, 0
2, 20736, Note_on_c, 0, 74, 72
2, 20832, Note_on_c, 0, 74, 0
2, 20832, Note_on_c, 0, 69, 72
2, 20976, Note_on_c, 0, 69, 0
2, 20976, Note_on_c, 0, 70, 72
2, 21024, Note_on_c, 0, 70, 0
2, 21024, Note_on_c, 0, 72, 72
2, 21120, Note_on_c, 0, 72, 0
2, 21120, Note_on_c, 0, 72, 72
2, 21216, Note_on_c, 0, 72, 0
2, 21216, Note_on_c, 0, 70, 72
2, 21408, Note_on_c, 0, 70, 0
2, 21408, Note_on_c, 0, 69, 72
2, 21504, Note_on_c, 0, 69, 0
2, 21504, Note_on_c, 0, 69, 72
2, 21552, Note_on_c, 0, 69, 0
2, 21552, Note_on_c, 0, 71, 72
2, 21600, Note_on_c, 0, 71, 0
2, 21600, Note_on_c, 0, 69, 72
2, 21648, Note_on_c, 0, 69, 0
2, 21648, Note_on_c, 0, 68, 72
2, 21696, Note_on_c, 0, 68, 0
2, 21696, Note_on_c, 0, 69, 72
2, 21888, Note_on_c, 0, 69, 0
2, 22080, Note_on_c, 0, 62, 88
2, 22272, Note_on_c, 0, 62, 0
2, 22272, Note_on_c, 0, 69, 88
2, 22416, Note_on_c, 0, 69, 0
2, 22416, Note_on_c, 0, 67, 88
2, 22464, Note_on_c, 0, 67, 0
2, 22464, Note_on_c, 0, 65, 88
2, 22608, Note_on_c, 0, 65, 0
2, 22608, Note_on_c, 0, 64, 88
2, 22656, Note_on_c, 0, 64, 0
2, 22656, Note_on_c, 0, 62, 88
2, 22848, Note_on_c, 0, 62, 0
2, 22848, Note_on_c, 0, 61, 88
2, 23040, Note_on_c, 0, 61, 0
2, 23040, Note_on_c, 0, 62, 88
2, 23184, Note_on_c, 0, 62, 0
2, 23184, Note_on_c, 0, 64, 88
2, 23232, Note_on_c, 0, 64, 0
2, 23232, Note_on_c, 0, 65, 88
2, 23424, Note_on_c, 0, 65, 0
2, 23424, Note_on_c, 0, 65, 88
2, 23472, Note_on_c, 0, 65, 0
2, 23472, Note_on_c, 0, 67, 88
2, 23520, Note_on_c, 0, 67, 0
2, 23520, Note_on_c, 0, 65, 88
2, 23568, Note_on_c, 0, 65, 0
2, 23568, Note_on_c, 0, 63, 88
2, 23616, Note_on_c, 0, 63, 0
2, 23616, Note_on_c, 0, 62, 88
2, 23808, Note_on_c, 0, 62, 0
2, 23808, Note_on_c, 0, 62, 88
2, 24000, Note_on_c, 0, 62, 0
2, 24000, Note_on_c, 0, 62, 88
2, 24048, Note_on_c, 0, 62, 0
2, 24048, Note_on_c, 0, 62, 72
2, 24096, Note_on_c, 0, 62, 0
2, 24096, Note_on_c, 0, 60, 72
2, 24144, Note_on_c, 0, 60, 0
2, 24144, Note_on_c, 0, 58, 72
2, 24192, Note_on_c, 0, 58, 0
2, 24192, Note_on_c, 0, 57, 72
2, 24480, Note_on_c, 0, 57, 0
2, 24480, Note_on_c, 0, 56, 72
2, 24576, Note_on_c, 0, 56, 0
2, 24576, Note_on_c, 0, 57, 72
2, 24672, Note_on_c, 0, 57, 0
2, 24864, Note_on_c, 0, 69, 72
2, 24960, Note_on_c, 0, 69, 0
2, 24960, Note_on_c, 0, 74, 72
2, 25104, Note_on_c, 0, 74, 0
2, 25104, Note_on_c, 0, 72, 72
2, 25152, Note_on_c, 0, 72, 0
2, 25152, Note_on_c, 0, 70, 72
2, 25296, Note_on_c, 0, 70, 0
2, 25296, Note_on_c, 0, 69, 72
2, 25344, Note_on_c, 0, 69, 0
2, 25344, Note_on_c, 0, 67, 72
2, 25440, Note_on_c, 0, 67, 0
2, 25440, Note_on_c, 0, 72, 72
2, 25584, Note_on_c, 0, 72, 0
2, 25584, Note_on_c, 0, 70, 72
2, 25632, Note_on_c, 0, 70, 0
2, 25632, Note_on_c, 0, 69, 72
2, 25728, Note_on_c, 0, 69, 0
2, 25728, Note_on_c, 0, 69, 72
2, 25776, Note_on_c, 0, 69, 0
2, 25776, Note_on_c, 0, 67, 72
2, 25824, Note_on_c, 0, 67, 0
2, 25824, Note_on_c, 0, 65, 72
2, 25920, Note_on_c, 0, 65, 0
2, 25920, Note_on_c, 0, 70, 72
2, 25968, Note_on_c, 0, 70, 0
2, 25968, Note_on_c, 0, 69, 72
2, 26016, Note_on_c, 0, 69, 0
2, 26016, Note_on_c, 0, 67, 72
2, 26112, Note_on_c, 0, 67, 0
2, 26112, Note_on_c, 0, 72, 72
2, 26160, Note_on_c, 0, 72, 0
2, 26160, Note_on_c, 0, 70, 72
2, 26208, Note_on_c, 0, 70, 0
2, 26208, Note_on_c, 0, 72, 72
2, 26352, Note_on_c, 0, 72, 0
2, 26352, Note_on_c, 0, 69, 72
2, 26400, Note_on_c, 0, 69, 0
2, 26400, Note_on_c, 0, 70, 72
2, 26496, Note_on_c, 0, 70, 0
2, 26496, Note_on_c, 0, 69, 72
2, 26544, Note_on_c, 0, 69, 0
2, 26544, Note_on_c, 0, 73, 72
2, 26592, Note_on_c, 0, 73, 0
2, 26592, Note_on_c, 0, 74, 72
2, 26640, Note_on_c, 0, 74, 0
2, 26640, Note_on_c, 0, 76, 72
2, 26688, Note_on_c, 0, 76, 0
2, 26688, Note_on_c, 0, 77, 72
2, 26880, Note_on_c, 0, 77, 0
2, 26928, Note_on_c, 0, 81, 72
2, 26976, Note_on_c, 0, 81, 0
2, 26976, Note_on_c, 0, 79, 72
2, 27024, Note_on_c, 0, 79, 0
2, 27024, Note_on_c, 0, 77, 72
2, 27072, Note_on_c, 0, 77, 0
2, 27072, Note_on_c, 0, 76, 72
2, 27120, Note_on_c, 0, 76, 0
2, 27120, Note_on_c, 0, 74, 72
2, 27168, Note_on_c, 0, 74, 0
2, 27168, Note_on_c, 0, 76, 72
2, 27264, Note_on_c, 0, 76, 0
2, 27264, Note_on_c, 0, 74, 72
2, 27456, Note_on_c, 0, 74, 0
2, 29568, Note_on_c, 0, 62, 88
2, 29760, Note_on_c, 0, 62, 0
2, 29760, Note_on_c, 0, 69, 88
2, 29904, Note_on_c, 0, 69, 0
2, 29904, Note_on_c, 0, 67, 88
2, 29952, Note_on_c, 0, 67, 0
2, 29952, Note_on_c, 0, 65, 88
2, 30096, Note_on_c, 0, 65, 0
2, 30096, Note_on_c, 0, 64, 88
2, 30144, Note_on_c, 0, 64, 0
2, 30144, Note_on_c, 0, 62, 88
2, 30336, Note_on_c, 0, 62, 0
2, 30336, Note_on_c, 0, 61, 88
2, 30528, Note_on_c, 0, 61, 0
2, 30528, Note_on_c, 0, 62, 88
2, 30672, Note_on_c, 0, 62, 0
2, 30672, Note_on_c, 0, 64, 88
2, 30720, Note_on_c, 0, 64, 0
2, 30720, Note_on_c, 0, 65, 88
2, 30912, Note_on_c, 0, 65, 0
2, 30912, Note_on_c, 0, 65, 88
2, 30960, Note_on_c, 0, 65, 0
2, 30960, Note_on_c, 0, 67, 88
2, 31008, Note_on_c, 0, 67, 0
2, 31008, Note_on_c, 0, 65, 88
2, 31056, Note_on_c, 0, 65, 0
2, 31056, Note_on_c, 0, 64, 88
2, 31104, Note_on_c, 0, 64, 0
2, 31104, Note_on_c, 0, 62, 88
2, 31392, Note_on_c, 0, 62, 0
2, 31536, Note_on_c, 0, 69, 72
2, 31584, Note_on_c, 0, 69, 0
2, 31584, Note_on_c, 0, 70, 72
2, 31632, Note_on_c, 0, 70, 0
2, 31632, Note_on_c, 0, 72, 72
2, 31680, Note_on_c, 0, 72, 0
2, 31680, Note_on_c, 0, 74, 72
2, 31872, Note_on_c, 0, 74, 0
2, 31872, Note_on_c, 0, 69, 72
2, 32064, Note_on_c, 0, 69, 0
2, 32064, Note_on_c, 0, 69, 72
2, 32112, Note_on_c, 0, 69, 0
2, 32112, Note_on_c, 0, 69, 72
2, 32160, Note_on_c, 0, 69, 0
2, 32160, Note_on_c, 0, 67, 72
2, 32256, Note_on_c, 0, 67, 0
2, 32256, Note_on_c, 0, 67, 72
2, 32304, Note_on_c, 0, 67, 0
2, 32304, Note_on_c, 0, 69, 72
2, 32352, Note_on_c, 0, 69, 0
2, 32352, Note_on_c, 0, 70, 72
2, 32448, Note_on_c, 0, 70, 0
2, 32448, Note_on_c, 0, 69, 72
2, 32592, Note_on_c, 0, 69, 0
2, 32592, Note_on_c, 0, 67, 72
2, 32640, Note_on_c, 0, 67, 0
2, 32640, Note_on_c, 0, 67, 72
2, 32688, Note_on_c, 0, 67, 0
2, 32688, Note_on_c, 0, 64, 72
2, 32736, Note_on_c, 0, 64, 0
2, 32736, Note_on_c, 0, 66, 72
2, 32832, Note_on_c, 0, 66, 0
2, 32832, Note_on_c, 0, 69, 88
2, 32976, Note_on_c, 0, 69, 0
2, 32976, Note_on_c, 0, 67, 88
2, 33024, Note_on_c, 0, 67, 0
2, 33024, Note_on_c, 0, 66, 88
2, 33168, Note_on_c, 0, 66, 0
2, 33168, Note_on_c, 0, 64, 88
2, 33216, Note_on_c, 0, 64, 0
2, 33216, Note_on_c, 0, 62, 88
2, 33408, Note_on_c, 0, 62, 0
2, 33408, Note_on_c, 0, 61, 88
2, 33600, Note_on_c, 0, 61, 0
2, 33600, Note_on_c, 0, 62, 88
2, 33744, Note_on_c, 0, 62, 0
2, 33744, Note_on_c, 0, 64, 88
2, 33792, Note_on_c, 0, 64, 0
2, 33792, Note_on_c, 0, 66, 88
2, 33984, Note_on_c, 0, 66, 0
2, 33984, Note_on_c, 0, 66, 88
2, 34032, Note_on_c, 0, 66, 0
2, 34032, Note_on_c, 0, 67, 88
2, 34080, Note_on_c, 0, 67, 0
2, 34080, Note_on_c, 0, 66, 88
2, 34128, Note_on_c, 0, 66, 0
2, 34128, Note_on_c, 0, 64, 88
2, 34176, Note_on_c, 0, 64, 0
2, 34176, Note_on_c, 0, 62, 88
2, 34560, Note_on_c, 0, 62, 0
2, 34560, End_track
3, 0, Start_track
3, 2304, Note_on_c, 0, 74, 88
3, 2496, Note_on_c, 0, 74, 0
3, 2496, Note_on_c, 0, 81, 88
3, 2640, Note_on_c, 0, 81, 0
3, 2640, Note_on_c, 0, 79, 88
3, 2688, Note_on_c, 0, 79, 0
3, 2688, Note_on_c, 0, 77, 88
3, 2832, Note_on_c, 0, 77, 0
3, 2832, Note_on_c, 0, 76, 88
3, 2880, Note_on_c, 0, 76, 0
3, 2880, Note_on_c, 0, 74, 88
3, 3072, Note_on_c, 0, 74, 0
3, 3072, Note_on_c, 0, 73, 88
3, 3264, Note_on_c, 0, 73, 0
3, 3264, Note_on_c, 0, 74, 88
3, 3408, Note_on_c, 0, 74, 0
3, 3408, Note_on_c, 0, 76, 88
3, 3456, Note_on_c, 0, 76, 0
3, 3456, Note_on_c, 0, 77, 88
3, 3648, Note_on_c, 0, 77, 0
3, 3648, Note_on_c, 0, 77, 88
3, 3696, Note_on_c, 0, 77, 0
3, 3696, Note_on_c, 0, 81, 88
3, 3744, Note_on_c, 0, 81, 0
3, 3744, Note_on_c, 0, 79, 88
3, 3792, Note_on_c, 0, 79, 0
3, 3792, Note_on_c, 0, 77, 88
3, 3840, Note_on_c, 0, 77, 0
3, 3840, Note_on_c, 0, 76, 88
3, 3888, Note_on_c, 0, 76, 0
3, 3888, Note_on_c, 0, 80, 72
3, 3936, Note_on_c, 0, 80, 0
3, 3936, Note_on_c, 0, 81, 72
3, 3984, Note_on_c, 0, 81, 0
3, 3984, Note_on_c, 0, 83, 72
3, 4032, Note_on_c, 0, 83, 0
3, 4032, Note_on_c, 0, 84, 72
3, 4224, Note_on_c, 0, 84, 0
3, 4224, Note_on_c, 0, 84, 72
3, 4272, Note_on_c, 0, 84, 0
3, 4272, Note_on_c, 0, 84, 72
3, 4320, Note_on_c, 0, 84, 0
3, 4320, Note_on_c, 0, 82, 72
3, 4368, Note_on_c, 0, 82, 0
3, 4368, Note_on_c, 0, 81, 72
3, 4416, Note_on_c, 0, 81, 0
3, 4416, Note_on_c, 0, 82, 72
3, 4608, Note_on_c, 0, 82, 0
3, 4608, Note_on_c, 0, 82, 72
3, 4656, Note_on_c, 0, 82, 0
3, 4656, Note_on_c, 0, 82, 72
3, 4704, Note_on_c, 0, 82, 0
3, 4704, Note_on_c, 0, 81, 72
3, 4752, Note_on_c, 0, 81, 0
3, 4752, Note_on_c, 0, 79, 72
3, 4800, Note_on_c, 0, 79, 0
3, 4800, Note_on_c, 0, 81, 72
3, 4992, Note_on_c, 0, 81, 0
3, 4992, Note_on_c, 0, 81, 72
3, 5088, Note_on_c, 0, 81, 0
3, 5088, Note_on_c, 0, 82, 72
3, 5184, Note_on_c, 0, 82, 0
3, 5184, Note_on_c, 0, 79, 72
3, 5376, Note_on_c, 0, 79, 0
3, 5376, Note_on_c, 0, 79, 72
3, 5664, Note_on_c, 0, 79, 0
3, 5664, Note_on_c, 0, 77, 72
3, 5760, Note_on_c, 0, 77, 0
3, 5760, Note_on_c, 0, 76, 72
3, 5952, Note_on_c, 0, 76, 0
3, 6144, Note_on_c, 0, 74, 88
3, 6336, Note_on_c, 0, 74, 0
3, 6336, Note_on_c, 0, 69, 88
3, 6480, Note_on_c, 0, 69, 0
3, 6480, Note_on_c, 0, 71, 88
3, 6528, Note_on_c, 0, 71, 0
3, 6528, Note_on_c, 0, 72, 88
3, 6672, Note_on_c, 0, 72, 0
3, 6672, Note_on_c, 0, 74, 88
3, 6720, Note_on_c, 0, 74, 0
3, 6720, Note_on_c, 0, 76, 88
3, 6912, Note_on_c, 0, 76, 0
3, 6912, Note_on_c, 0, 77, 88
3, 7104, Note_on_c, 0, 77, 0
3, 7104, Note_on_c, 0, 76, 88
3, 7248, Note_on_c, 0, 76, 0
3, 7248, Note_on_c, 0, 74, 88
3, 7296, Note_on_c, 0, 74, 0
3, 7296, Note_on_c, 0, 72, 88
3, 7488, Note_on_c, 0, 72, 0
3, 7488, Note_on_c, 0, 72, 88
3, 7536, Note_on_c, 0, 72, 0
3, 7536, Note_on_c, 0, 71, 88
3, 7584, Note_on_c, 0, 71, 0
3, 7584, Note_on_c, 0, 72, 88
3, 7632, Note_on_c, 0, 72, 0
3, 7632, Note_on_c, 0, 74, 88
3, 7680, Note_on_c, 0, 74, 0
3, 7680, Note_on_c, 0, 76, 88
3, 7776, Note_on_c, 0, 76, 0
3, 7776, Note_on_c, 0, 75, 72
3, 7920, Note_on_c, 0, 75, 0
3, 7920, Note_on_c, 0, 78, 72
3, 7968, Note_on_c, 0, 78, 0
3, 7968, Note_on_c, 0, 76, 72
3, 8016, Note_on_c, 0, 76, 0
3, 8016, Note_on_c, 0, 75, 72
3, 8064, Note_on_c, 0, 75, 0
3, 8064, Note_on_c, 0, 76, 72
3, 8112, Note_on_c, 0, 76, 0
3, 8112, Note_on_c, 0, 74, 72
3, 8160, Note_on_c, 0, 74, 0
3, 8160, Note_on_c, 0, 72, 72
3, 8208, Note_on_c, 0, 72, 0
3, 8208, Note_on_c, 0, 71, 72
3, 8256, Note_on_c, 0, 71, 0
3, 8256, Note_on_c, 0, 72, 72
3, 8400, Note_on_c, 0, 72, 0
3, 8400, Note_on_c, 0, 71, 72
3, 8448, Note_on_c, 0, 71, 0
3, 8448, Note_on_c, 0, 69, 72
3, 8640, Note_on_c, 0, 69, 0
3, 8640, Note_on_c, 0, 69, 72
3, 8688, Note_on_c, 0, 69, 0
3, 8688, Note_on_c, 0, 70, 72
3, 8736, Note_on_c, 0, 70, 0
3, 8736, Note_on_c, 0, 69, 72
3, 8784, Note_on_c, 0, 69, 0
3, 8784, Note_on_c, 0, 67, 72
3, 8832, Note_on_c, 0, 67, 0
3, 8832, Note_on_c, 0, 69, 72
3, 8880, Note_on_c, 0, 69, 0
3, 8880, Note_on_c, 0, 72, 72
3, 8928, Note_on_c, 0, 72, 0
3, 8928, Note_on_c, 0, 74, 72
3, 8976, Note_on_c, 0, 74, 0
3, 8976, Note_on_c, 0, 76, 72
3, 9024, Note_on_c, 0, 76, 0
3, 9024, Note_on_c, 0, 77, 72
3, 9072, Note_on_c, 0, 77, 0
3, 9072, Note_on_c, 0, 79, 72
3, 9120, Note_on_c, 0, 79, 0
3, 9120, Note_on_c, 0, 81, 72
3, 9216, Note_on_c, 0, 81, 0
3, 9216, Note_on_c, 0, 81, 72
3, 9264, Note_on_c, 0, 81, 0
3, 9264, Note_on_c, 0, 79, 72
3, 9312, Note_on_c, 0, 79, 0
3, 9312, Note_on_c, 0, 77, 72
3, 9360, Note_on_c, 0, 77, 0
3, 9360, Note_on_c, 0, 76, 72
3, 9408, Note_on_c, 0, 76, 0
3, 9408, Note_on_c, 0, 77, 72
3, 9456, Note_on_c, 0, 77, 0
3, 9456, Note_on_c, 0, 76, 72
3, 9504, Note_on_c, 0, 76, 0
3, 9504, Note_on_c, 0, 74, 72
3, 9552, Note_on_c, 0, 74, 0
3, 9552, Note_on_c, 0, 73, 72
3, 9600, Note_on_c, 0, 73, 0
3, 9600, Note_on_c, 0, 74, 72
3, 9648, Note_on_c, 0, 74, 0
3, 9648, Note_on_c, 0, 69, 72
3, 9696, Note_on_c, 0, 69, 0
3, 9696, Note_on_c, 0, 71, 72
3, 9744, Note_on_c, 0, 71, 0
3, 9744, Note_on_c, 0, 73, 72
3, 9792, Note_on_c, 0, 73, 0
3, 9792, Note_on_c, 0, 74, 72
3, 9984, Note_on_c, 0, 74, 0
3, 9984, Note_on_c, 0, 74, 72
3, 10032, Note_on_c, 0, 74, 0
3, 10032, Note_on_c, 0, 72, 72
3, 10080, Note_on_c, 0, 72, 0
3, 10080, Note_on_c, 0, 70, 72
3, 10128, Note_on_c, 0, 70, 0
3, 10128, Note_on_c, 0, 69, 72
3, 10176, Note_on_c, 0, 69, 0
3, 10176, Note_on_c, 0, 67, 72
3, 10368, Note_on_c, 0, 67, 0
3, 10368, Note_on_c, 0, 67, 72
3, 10560, Note_on_c, 0, 67, 0
3, 10560, Note_on_c, 0, 67, 72
3, 10608, Note_on_c, 0, 67, 0
3, 10608, Note_on_c, 0, 65, 72
3, 10656, Note_on_c, 0, 65, 0
3, 10656, Note_on_c, 0, 70, 72
3, 10752, Note_on_c, 0, 70, 0
3, 10752, Note_on_c, 0, 69, 72
3, 10944, Note_on_c, 0, 69, 0
3, 12480, Note_on_c, 0, 72, 88
3, 12672, Note_on_c, 0, 72, 0
3, 12672, Note_on_c, 0, 65, 88
3, 12816, Note_on_c, 0, 65, 0
3, 12816, Note_on_c, 0, 67, 88
3, 12864, Note_on_c, 0, 67, 0
3, 12864, Note_on_c, 0, 69, 88
3, 13008, Note_on_c, 0, 69, 0
3, 13008, Note_on_c, 0, 70, 88
3, 13056, Note_on_c, 0, 70, 0
3, 13056, Note_on_c, 0, 72, 88
3, 13248, Note_on_c, 0, 72, 0
3, 13248, Note_on_c, 0, 74, 88
3, 13440, Note_on_c, 0, 74, 0
3, 13440, Note_on_c, 0, 72, 88
3, 13584, Note_on_c, 0, 72, 0
3, 13584, Note_on_c, 0, 70, 88
3, 13632, Note_on_c, 0, 70, 0
3, 13632, Note_on_c, 0, 69, 88
3, 13824, Note_on_c, 0, 69, 0
3, 13824, Note_on_c, 0, 69, 88
3, 13872, Note_on_c, 0, 69, 0
3, 13872, Note_on_c, 0, 67, 88
3, 13920, Note_on_c, 0, 67, 0
3, 13920, Note_on_c, 0, 69, 88
3, 13968, Note_on_c, 0, 69, 0
3, 13968, Note_on_c, 0, 70, 88
3, 14016, Note_on_c, 0, 70, 0
3, 14016, Note_on_c, 0, 72, 88
3, 14208, Note_on_c, 0, 72, 0
3, 14208, Note_on_c, 0, 72, 88
3, 14256, Note_on_c, 0, 72, 0
3, 14256, Note_on_c, 0, 74, 72
3, 14304, Note_on_c, 0, 74, 0
3, 14304, Note_on_c, 0, 72, 72
3, 14352, Note_on_c, 0, 72, 0
3, 14352, Note_on_c, 0, 70, 72
3, 14400, Note_on_c, 0, 70, 0
3, 14400, Note_on_c, 0, 69, 72
3, 14496, Note_on_c, 0, 69, 0
3, 14496, Note_on_c, 0, 77, 72
3, 14592, Note_on_c, 0, 77, 0
3, 14592, Note_on_c, 0, 77, 72
3, 14688, Note_on_c, 0, 77, 0
3, 14688, Note_on_c, 0, 76, 72
3, 14880, Note_on_c, 0, 76, 0
3, 14880, Note_on_c, 0, 74, 72
3, 14976, Note_on_c, 0, 74, 0
3, 14976, Note_on_c, 0, 74, 72
3, 15072, Note_on_c, 0, 74, 0
3, 15072, Note_on_c, 0, 72, 72
3, 15264, Note_on_c, 0, 72, 0
3, 15264, Note_on_c, 0, 70, 72
3, 15360, Note_on_c, 0, 70, 0
3, 15360, Note_on_c, 0, 70, 72
3, 15504, Note_on_c, 0, 70, 0
3, 15504, Note_on_c, 0, 69, 72
3, 15552, Note_on_c, 0, 69, 0
3, 15552, Note_on_c, 0, 72, 72
3, 15600, Note_on_c, 0, 72, 0
3, 15600, Note_on_c, 0, 71, 72
3, 15648, Note_on_c, 0, 71, 0
3, 15648, Note_on_c, 0, 72, 72
3, 15744, Note_on_c, 0, 72, 0
3, 15744, Note_on_c, 0, 66, 72
3, 15792, Note_on_c, 0, 66, 0
3, 15792, Note_on_c, 0, 62, 72
3, 15840, Note_on_c, 0, 62, 0
3, 15840, Note_on_c, 0, 67, 72
3, 15984, Note_on_c, 0, 67, 0
3, 15984, Note_on_c, 0, 79, 72
3, 16032, Note_on_c, 0, 79, 0
3, 16032, Note_on_c, 0, 77, 72
3, 16128, Note_on_c, 0, 77, 0
3, 16128, Note_on_c, 0, 70, 72
3, 16272, Note_on_c, 0, 70, 0
3, 16272, Note_on_c, 0, 69, 72
3, 16320, Note_on_c, 0, 69, 0
3, 16320, Note_on_c, 0, 74, 72
3, 16416, Note_on_c, 0, 74, 0
3, 16800, Note_on_c, 0, 74, 72
3, 16896, Note_on_c, 0, 74, 0
3, 16896, Note_on_c, 0, 79, 72
3, 17184, Note_on_c, 0, 79, 0
3, 17184, Note_on_c, 0, 77, 72
3, 17232, Note_on_c, 0, 77, 0
3, 17232, Note_on_c, 0, 75, 72
3, 17280, Note_on_c, 0, 75, 0
3, 17280, Note_on_c, 0, 77, 72
3, 17472, Note_on_c, 0, 77, 0
3, 17472, Note_on_c, 0, 77, 72
3, 17520, Note_on_c, 0, 77, 0
3, 17520, Note_on_c, 0, 75, 72
3, 17568, Note_on_c, 0, 75, 0
3, 17568, Note_on_c, 0, 74, 72
3, 17664, Note_on_c, 0, 74, 0
3, 17664, Note_on_c, 0, 74, 72
3, 17712, Note_on_c, 0, 74, 0
3, 17712, Note_on_c, 0, 67, 72
3, 17760, Note_on_c, 0, 67, 0
3, 17760, Note_on_c, 0, 65, 72
3, 17808, Note_on_c, 0, 65, 0
3, 17808, Note_on_c, 0, 63, 72
3, 17856, Note_on_c, 0, 63, 0
3, 17856, Note_on_c, 0, 62, 72
3, 17904, Note_on_c, 0, 62, 0
3, 17904, Note_on_c, 0, 65, 72
3, 17952, Note_on_c, 0, 65, 0
3, 17952, Note_on_c, 0, 67, 72
3, 18000, Note_on_c, 0, 67, 0
3, 18000, Note_on_c, 0, 69, 72
3, 18048, Note_on_c, 0, 69, 0
3, 18048, Note_on_c, 0, 70, 72
3, 18096, Note_on_c, 0, 70, 0
3, 18096, Note_on_c, 0, 65, 72
3, 18144, Note_on_c, 0, 65, 0
3, 18144, Note_on_c, 0, 70, 72
3, 18288, Note_on_c, 0, 70, 0
3, 18288, Note_on_c, 0, 72, 72
3, 18336, Note_on_c, 0, 72, 0
3, 18336, Note_on_c, 0, 70, 72
3, 18384, Note_on_c, 0, 70, 0
3, 18384, Note_on_c, 0, 69, 72
3, 18432, Note_on_c, 0, 69, 0
3, 18432, Note_on_c, 0, 70, 72
3, 18480, Note_on_c, 0, 70, 0
3, 18480, Note_on_c, 0, 72, 72
3, 18528, Note_on_c, 0, 72, 0
3, 18528, Note_on_c, 0, 74, 72
3, 18672, Note_on_c, 0, 74, 0
3, 18672, Note_on_c, 0, 75, 72
3, 18720, Note_on_c, 0, 75, 0
3, 18720, Note_on_c, 0, 77, 72
3, 18816, Note_on_c, 0, 77, 0
3, 18816, Note_on_c, 0, 77, 72
3, 18864, Note_on_c, 0, 77, 0
3, 18864, Note_on_c, 0, 75, 72
3, 18912, Note_on_c, 0, 75, 0
3, 18912, Note_on_c, 0, 74, 72
3, 18960, Note_on_c, 0, 74, 0
3, 18960, Note_on_c, 0, 72, 72
3, 19008, Note_on_c, 0, 72, 0
3, 19008, Note_on_c, 0, 70, 72
3, 19152, Note_on_c, 0, 70, 0
3, 19152, Note_on_c, 0, 72, 72
3, 19200, Note_on_c, 0, 72, 0
3, 19200, Note_on_c, 0, 74, 72
3, 19296, Note_on_c, 0, 74, 0
3, 19296, Note_on_c, 0, 72, 72
3, 19392, Note_on_c, 0, 72, 0
3, 19392, Note_on_c, 0, 77, 72
3, 19584, Note_on_c, 0, 77, 0
3, 19584, Note_on_c, 0, 77, 72
3, 19632, Note_on_c, 0, 77, 0
3, 19632, Note_on_c, 0, 76, 72
3, 19680, Note_on_c, 0, 76, 0
3, 19680, Note_on_c, 0, 77, 72
3, 19728, Note_on_c, 0, 77, 0
3, 19728, Note_on_c, 0, 79, 72
3, 19776, Note_on_c, 0, 79, 0
3, 19776, Note_on_c, 0, 72, 72
3, 19824, Note_on_c, 0, 72, 0
3, 19824, Note_on_c, 0, 72, 72
3, 19968, Note_on_c, 0, 72, 0
3, 19968, Note_on_c, 0, 72, 72
3, 20064, Note_on_c, 0, 72, 0
3, 20064, Note_on_c, 0, 77, 72
3, 20160, Note_on_c, 0, 77, 0
3, 20160, Note_on_c, 0, 72, 72
3, 20304, Note_on_c, 0, 72, 0
3, 20304, Note_on_c, 0, 74, 72
3, 20352, Note_on_c, 0, 74, 0
3, 20352, Note_on_c, 0, 75, 72
3, 20496, Note_on_c, 0, 75, 0
3, 20496, Note_on_c, 0, 77, 72
3, 20544, Note_on_c, 0, 77, 0
3, 20544, Note_on_c, 0, 79, 72
3, 20640, Note_on_c, 0, 79, 0
3, 20640, Note_on_c, 0, 74, 72
3, 20736, Note_on_c, 0, 74, 0
3, 20736, Note_on_c, 0, 74, 72
3, 20784, Note_on_c, 0, 74, 0
3, 20784, Note_on_c, 0, 76, 72
3, 20832, Note_on_c, 0, 76, 0
3, 20832, Note_on_c, 0, 77, 72
3, 20976, Note_on_c, 0, 77, 0
3, 20976, Note_on_c, 0, 79, 72
3, 21024, Note_on_c, 0, 79, 0
3, 21024, Note_on_c, 0, 81, 72
3, 21120, Note_on_c, 0, 81, 0
3, 21120, Note_on_c, 0, 76, 72
3, 21168, Note_on_c, 0, 76, 0
3, 21168, Note_on_c, 0, 77, 72
3, 21216, Note_on_c, 0, 77, 0
3, 21216, Note_on_c, 0, 79, 72
3, 21312, Note_on_c, 0, 79, 0
3, 21312, Note_on_c, 0, 74, 72
3, 21360, Note_on_c, 0, 74, 0
3, 21360, Note_on_c, 0, 76, 72
3, 21408, Note_on_c, 0, 76, 0
3, 21408, Note_on_c, 0, 77, 72
3, 21504, Note_on_c, 0, 77, 0
3, 21504, Note_on_c, 0, 76, 88
3, 21696, Note_on_c, 0, 76, 0
3, 21696, Note_on_c, 0, 81, 88
3, 21840, Note_on_c, 0, 81, 0
3, 21840, Note_on_c, 0, 79, 88
3, 21888, Note_on_c, 0, 79, 0
3, 21888, Note_on_c, 0, 77, 88
3, 22032, Note_on_c, 0, 77, 0
3, 22032, Note_on_c, 0, 76, 88
3, 22080, Note_on_c, 0, 76, 0
3, 22080, Note_on_c, 0, 74, 88
3, 22272, Note_on_c, 0, 74, 0
3, 22272, Note_on_c, 0, 73, 88
3, 22464, Note_on_c, 0, 73, 0
3, 22464, Note_on_c, 0, 74, 88
3, 22608, Note_on_c, 0, 74, 0
3, 22608, Note_on_c, 0, 76, 88
3, 22656, Note_on_c, 0, 76, 0
3, 22656, Note_on_c, 0, 77, 88
3, 22848, Note_on_c, 0, 77, 0
3, 22848, Note_on_c, 0, 77, 88
3, 22896, Note_on_c, 0, 77, 0
3, 22896, Note_on_c, 0, 79, 88
3, 22944, Note_on_c, 0, 79, 0
3, 22944, Note_on_c, 0, 77, 88
3, 22992, Note_on_c, 0, 77, 0
3, 22992, Note_on_c, 0, 76, 88
3, 23040, Note_on_c, 0, 76, 0
3, 23040, Note_on_c, 0, 74, 88
3, 23328, Note_on_c, 0, 74, 0
3, 23328, Note_on_c, 0, 69, 72
3, 23424, Note_on_c, 0, 69, 0
3, 23424, Note_on_c, 0, 69, 72
3, 23520, Note_on_c, 0, 69, 0
3, 23520, Note_on_c, 0, 72, 72
3, 23616, Note_on_c, 0, 72, 0
3, 23616, Note_on_c, 0, 65, 72
3, 23808, Note_on_c, 0, 65, 0
3, 23808, Note_on_c, 0, 65, 72
3, 23856, Note_on_c, 0, 65, 0
3, 23856, Note_on_c, 0, 69, 72
3, 23904, Note_on_c, 0, 69, 0
3, 23904, Note_on_c, 0, 67, 72
3, 23952, Note_on_c, 0, 67, 0
3, 23952, Note_on_c, 0, 65, 72
3, 24000, Note_on_c, 0, 65, 0
3, 24000, Note_on_c, 0, 64, 72
3, 24192, Note_on_c, 0, 64, 0
3, 24192, Note_on_c, 0, 64, 72
3, 24384, Note_on_c, 0, 64, 0
3, 24384, Note_on_c, 0, 64, 72
3, 24432, Note_on_c, 0, 64, 0
3, 24432, Note_on_c, 0, 62, 72
3, 24480, Note_on_c, 0, 62, 0
3, 24480, Note_on_c, 0, 61, 72
3, 24528, Note_on_c, 0, 61, 0
3, 24528, Note_on_c, 0, 62, 72
3, 24576, Note_on_c, 0, 62, 0
3, 24576, Note_on_c, 0, 61, 72
3, 24672, Note_on_c, 0, 61, 0
3, 24672, Note_on_c, 0, 76, 72
3, 24768, Note_on_c, 0, 76, 0
3, 24768, Note_on_c, 0, 81, 72
3, 24912, Note_on_c, 0, 81, 0
3, 24912, Note_on_c, 0, 79, 72
3, 24960, Note_on_c, 0, 79, 0
3, 24960, Note_on_c, 0, 77, 72
3, 25104, Note_on_c, 0, 77, 0
3, 25104, Note_on_c, 0, 76, 72
3, 25152, Note_on_c, 0, 76, 0
3, 25152, Note_on_c, 0, 77, 72
3, 25248, Note_on_c, 0, 77, 0
3, 25248, Note_on_c, 0, 79, 72
3, 25344, Note_on_c, 0, 79, 0
3, 25344, Note_on_c, 0, 79, 72
3, 25392, Note_on_c, 0, 79, 0
3, 25392, Note_on_c, 0, 77, 72
3, 25440, Note_on_c, 0, 77, 0
3, 25440, Note_on_c, 0, 76, 72
3, 25584, Note_on_c, 0, 76, 0
3, 25584, Note_on_c, 0, 74, 72
3, 25632, Note_on_c, 0, 74, 0
3, 25632, Note_on_c, 0, 72, 72
3, 25728, Note_on_c, 0, 72, 0
3, 25728, Note_on_c, 0, 77, 72
3, 25776, Note_on_c, 0, 77, 0
3, 25776, Note_on_c, 0, 76, 72
3, 25824, Note_on_c, 0, 76, 0
3, 25824, Note_on_c, 0, 74, 72
3, 25920, Note_on_c, 0, 74, 0
3, 25920, Note_on_c, 0, 79, 72
3, 25968, Note_on_c, 0, 79, 0
3, 25968, Note_on_c, 0, 77, 72
3, 26016, Note_on_c, 0, 77, 0
3, 26016, Note_on_c, 0, 76, 72
3, 26112, Note_on_c, 0, 76, 0
3, 26112, Note_on_c, 0, 81, 88
3, 26304, Note_on_c, 0, 81, 0
3, 26304, Note_on_c, 0, 74, 88
3, 26448, Note_on_c, 0, 74, 0
3, 26448, Note_on_c, 0, 76, 88
3, 26496, Note_on_c, 0, 76, 0
3, 26496, Note_on_c, 0, 77, 88
3, 26640, Note_on_c, 0, 77, 0
3, 26640, Note_on_c, 0, 79, 88
3, 26688, Note_on_c, 0, 79, 0
3, 26688, Note_on_c, 0, 81, 88
3, 26880, Note_on_c, 0, 81, 0
3, 26880, Note_on_c, 0, 82, 88
3, 27072, Note_on_c, 0, 82, 0
3, 27072, Note_on_c, 0, 81, 88
3, 27216, Note_on_c, 0, 81, 0
3, 27216, Note_on_c, 0, 79, 88
3, 27264, Note_on_c, 0, 79, 0
3, 27264, Note_on_c, 0, 77, 88
3, 27456, Note_on_c, 0, 77, 0
3, 27456, Note_on_c, 0, 77, 88
3, 27504, Note_on_c, 0, 77, 0
3, 27504, Note_on_c, 0, 76, 88
3, 27552, Note_on_c, 0, 76, 0
3, 27552, Note_on_c, 0, 77, 88
3, 27600, Note_on_c, 0, 77, 0
3, 27600, Note_on_c, 0, 79, 88
3, 27648, Note_on_c, 0, 79, 0
3, 27648, Note_on_c, 0, 81, 88
3, 27696, Note_on_c, 0, 81, 0
3, 27696, Note_on_c, 0, 79, 88
3, 27744, Note_on_c, 0, 79, 0
3, 27744, Note_on_c, 0, 77, 88
3, 27792, Note_on_c, 0, 77, 0
3, 27792, Note_on_c, 0, 81, 88
3, 27840, Note_on_c, 0, 81, 0
3, 27840, Note_on_c, 0, 74, 88
3, 28032, Note_on_c, 0, 74, 0
3, 28032, Note_on_c, 0, 74, 88
3, 28080, Note_on_c, 0, 74, 0
3, 28080, Note_on_c, 0, 70, 88
3, 28128, Note_on_c, 0, 70, 0
3, 28128, Note_on_c, 0, 72, 88
3, 28320, Note_on_c, 0, 72, 0
3, 28320, Note_on_c, 0, 70, 88
3, 28416, Note_on_c, 0, 70, 0
3, 28416, Note_on_c, 0, 69, 88
3, 28608, Note_on_c, 0, 69, 0
3, 28608, Note_on_c, 0, 69, 88
3, 28656, Note_on_c, 0, 69, 0
3, 28656, Note_on_c, 0, 62, 88
3, 28704, Note_on_c, 0, 62, 0
3, 28704, Note_on_c, 0, 67, 88
3, 28752, Note_on_c, 0, 67, 0
3, 28752, Note_on_c, 0, 70, 88
3, 28800, Note_on_c, 0, 70, 0
3, 28800, Note_on_c, 0, 64, 88
3, 29088, Note_on_c, 0, 64, 0
3, 29088, Note_on_c, 0, 62, 88
3, 29184, Note_on_c, 0, 62, 0
3, 29184, Note_on_c, 0, 62, 88
3, 29232, Note_on_c, 0, 62, 0
3, 29232, Note_on_c, 0, 61, 88
3, 29280, Note_on_c, 0, 61, 0
3, 29280, Note_on_c, 0, 62, 88
3, 29328, Note_on_c, 0, 62, 0
3, 29328, Note_on_c, 0, 59, 88
3, 29376, Note_on_c, 0, 59, 0
3, 29376, Note_on_c, 0, 61, 88
3, 29424, Note_on_c, 0, 61, 0
3, 29424, Note_on_c, 0, 64, 88
3, 29472, Note_on_c, 0, 64, 0
3, 29472, Note_on_c, 0, 69, 88
3, 29568, Note_on_c, 0, 69, 0
3, 29568, Note_on_c, 0, 69, 88
3, 29616, Note_on_c, 0, 69, 0
3, 29616, Note_on_c, 0, 70, 88
3, 29664, Note_on_c, 0, 70, 0
3, 29664, Note_on_c, 0, 69, 88
3, 29712, Note_on_c, 0, 69, 0
3, 29712, Note_on_c, 0, 67, 88
3, 29760, Note_on_c, 0, 67, 0
3, 29760, Note_on_c, 0, 65, 88
3, 29808, Note_on_c, 0, 65, 0
3, 29808, Note_on_c, 0, 64, 88
3, 29856, Note_on_c, 0, 64, 0
3, 29856, Note_on_c, 0, 62, 88
3, 29904, Note_on_c, 0, 62, 0
3, 29904, Note_on_c, 0, 64, 88
3, 29952, Note_on_c, 0, 64, 0
3, 29952, Note_on_c, 0, 65, 88
3, 30000, Note_on_c, 0, 65, 0
3, 30000, Note_on_c, 0, 67, 88
3, 30048, Note_on_c, 0, 67, 0
3, 30048, Note_on_c, 0, 69, 88
3, 30192, Note_on_c, 0, 69, 0
3, 30192, Note_on_c, 0, 67, 88
3, 30240, Note_on_c, 0, 67, 0
3, 30240, Note_on_c, 0, 65, 88
3, 30288, Note_on_c, 0, 65, 0
3, 30288, Note_on_c, 0, 67, 88
3, 30336, Note_on_c, 0, 67, 0
3, 30336, Note_on_c, 0, 69, 88
3, 30384, Note_on_c, 0, 69, 0
3, 30384, Note_on_c, 0, 67, 88
3, 30432, Note_on_c, 0, 67, 0
3, 30432, Note_on_c, 0, 65, 88
3, 30480, Note_on_c, 0, 65, 0
3, 30480, Note_on_c, 0, 64, 88
3, 30528, Note_on_c, 0, 64, 0
3, 30528, Note_on_c, 0, 62, 88
3, 30576, Note_on_c, 0, 62, 0
3, 30576, Note_on_c, 0, 70, 88
3, 30624, Note_on_c, 0, 70, 0
3, 30624, Note_on_c, 0, 69, 88
3, 30672, Note_on_c, 0, 69, 0
3, 30672, Note_on_c, 0, 67, 88
3, 30720, Note_on_c, 0, 67, 0
3, 30720, Note_on_c, 0, 65, 88
3, 30768, Note_on_c, 0, 65, 0
3, 30768, Note_on_c, 0, 69, 88
3, 30816, Note_on_c, 0, 69, 0
3, 30816, Note_on_c, 0, 71, 88
3, 30864, Note_on_c, 0, 71, 0
3, 30864, Note_on_c, 0, 73, 88
3, 30912, Note_on_c, 0, 73, 0
3, 30912, Note_on_c, 0, 74, 88
3, 31104, Note_on_c, 0, 74, 0
3, 31104, Note_on_c, 0, 74, 88
3, 31152, Note_on_c, 0, 74, 0
3, 31152, Note_on_c, 0, 75, 88
3, 31200, Note_on_c, 0, 75, 0
3, 31200, Note_on_c, 0, 74, 88
3, 31248, Note_on_c, 0, 74, 0
3, 31248, Note_on_c, 0, 72, 88
3, 31296, Note_on_c, 0, 72, 0
3, 31296, Note_on_c, 0, 70, 88
3, 31344, Note_on_c, 0, 70, 0
3, 31344, Note_on_c, 0, 74, 88
3, 31392, Note_on_c, 0, 74, 0
3, 31392, Note_on_c, 0, 76, 88
3, 31440, Note_on_c, 0, 76, 0
3, 31440, Note_on_c, 0, 78, 88
3, 31488, Note_on_c, 0, 78, 0
3, 31488, Note_on_c, 0, 79, 88
3, 31680, Note_on_c, 0, 79, 0
3, 31680, Note_on_c, 0, 79, 88
3, 31728, Note_on_c, 0, 79, 0
3, 31728, Note_on_c, 0, 81, 88
3, 31776, Note_on_c, 0, 81, 0
3, 31776, Note_on_c, 0, 79, 88
3, 31824, Note_on_c, 0, 79, 0
3, 31824, Note_on_c, 0, 77, 88
3, 31872, Note_on_c, 0, 77, 0
3, 31872, Note_on_c, 0, 76, 88
3, 31920, Note_on_c, 0, 76, 0
3, 31920, Note_on_c, 0, 73, 88
3, 31968, Note_on_c, 0, 73, 0
3, 31968, Note_on_c, 0, 74, 88
3, 32160, Note_on_c, 0, 74, 0
3, 32160, Note_on_c, 0, 74, 88
3, 32208, Note_on_c, 0, 74, 0
3, 32208, Note_on_c, 0, 79, 88
3, 32256, Note_on_c, 0, 79, 0
3, 32256, Note_on_c, 0, 73, 88
3, 32352, Note_on_c, 0, 73, 0
3, 32352, Note_on_c, 0, 74, 88
3, 32448, Note_on_c, 0, 74, 0
3, 32448, Note_on_c, 0, 74, 88
3, 32544, Note_on_c, 0, 74, 0
3, 32544, Note_on_c, 0, 73, 88
3, 32640, Note_on_c, 0, 73, 0
3, 32640, Note_on_c, 0, 74, 88
3, 32688, Note_on_c, 0, 74, 0
3, 32688, Note_on_c, 0, 74, 88
3, 32736, Note_on_c, 0, 74, 0
3, 32736, Note_on_c, 0, 74, 88
3, 32832, Note_on_c, 0, 74, 0
3, 32880, Note_on_c, 0, 74, 88
3, 32928, Note_on_c, 0, 74, 0
3, 32928, Note_on_c, 0, 72, 88
3, 32976, Note_on_c, 0, 72, 0
3, 32976, Note_on_c, 0, 70, 88
3, 33024, Note_on_c, 0, 70, 0
3, 33024, Note_on_c, 0, 69, 88
3, 33072, Note_on_c, 0, 69, 0
3, 33072, Note_on_c, 0, 70, 88
3, 33120, Note_on_c, 0, 70, 0
3, 33120, Note_on_c, 0, 69, 88
3, 33168, Note_on_c, 0, 69, 0
3, 33168, Note_on_c, 0, 67, 88
3, 33216, Note_on_c, 0, 67, 0
3, 33216, Note_on_c, 0, 66, 88
3, 33264, Note_on_c, 0, 66, 0
3, 33264, Note_on_c, 0, 67, 88
3, 33312, Note_on_c, 0, 67, 0
3, 33312, Note_on_c, 0, 66, 88
3, 33360, Note_on_c, 0, 66, 0
3, 33360, Note_on_c, 0, 69, 88
3, 33408, Note_on_c, 0, 69, 0
3, 33408, Note_on_c, 0, 64, 88
3, 33456, Note_on_c, 0, 64, 0
3, 33456, Note_on_c, 0, 62, 88
3, 33504, Note_on_c, 0, 62, 0
3, 33504, Note_on_c, 0, 64, 88
3, 33552, Note_on_c, 0, 64, 0
3, 33552, Note_on_c, 0, 67, 88
3, 33600, Note_on_c, 0, 67, 0
3, 33600, Note_on_c, 0, 66, 88
3, 33648, Note_on_c, 0, 66, 0
3, 33648, Note_on_c, 0, 69, 88
3, 33696, Note_on_c, 0, 69, 0
3, 33696, Note_on_c, 0, 72, 88
3, 33744, Note_on_c, 0, 72, 0
3, 33744, Note_on_c, 0, 72, 88
3, 33792, Note_on_c, 0, 72, 0
3, 33792, Note_on_c, 0, 72, 88
3, 33984, Note_on_c, 0, 72, 0
3, 33984, Note_on_c, 0, 72, 88
3, 34032, Note_on_c, 0, 72, 0
3, 34032, Note_on_c, 0, 70, 88
3, 34080, Note_on_c, 0, 70, 0
3, 34080, Note_on_c, 0, 74, 88
3, 34128, Note_on_c, 0, 74, 0
3, 34128, Note_on_c, 0, 73, 88
3, 34176, Note_on_c, 0, 73, 0
3, 34176, Note_on_c, 0, 74, 88
3, 34560, Note_on_c, 0, 74, 0
3, 34560, End_track
4, 0, Start_track
4, 3456, Note_on_c, 0, 62, 88
4, 3648, Note_on_c, 0, 62, 0
4, 3648, Note_on_c, 0, 57, 88
4, 3792, Note_on_c, 0, 57, 0
4, 3792, Note_on_c, 0, 59, 88
4, 3840, Note_on_c, 0, 59, 0
4, 3840, Note_on_c, 0, 60, 88
4, 3984, Note_on_c, 0, 60, 0
4, 3984, Note_on_c, 0, 62, 88
4, 4032, Note_on_c, 0, 62, 0
4, 4032, Note_on_c, 0, 64, 88
4, 4224, Note_on_c, 0, 64, 0
4, 4224, Note_on_c, 0, 65, 88
4, 4416, Note_on_c, 0, 65, 0
4, 4416, Note_on_c, 0, 64, 88
4, 4560, Note_on_c, 0, 64, 0
4, 4560, Note_on_c, 0, 62, 88
4, 4608, Note_on_c, 0, 62, 0
4, 4608, Note_on_c, 0, 61, 88
4, 4800, Note_on_c, 0, 61, 0
4, 4800, Note_on_c, 0, 61, 88
4, 4848, Note_on_c, 0, 61, 0
4, 4848, Note_on_c, 0, 57, 88
4, 4896, Note_on_c, 0, 57, 0
4, 4896, Note_on_c, 0, 59, 88
4, 4944, Note_on_c, 0, 59, 0
4, 4944, Note_on_c, 0, 61, 88
4, 4992, Note_on_c, 0, 61, 0
4, 4992, Note_on_c, 0, 62, 88
4, 5184, Note_on_c, 0, 62, 0
4, 5184, Note_on_c, 0, 62, 88
4, 5232, Note_on_c, 0, 62, 0
4, 5232, Note_on_c, 0, 62, 72
4, 5280, Note_on_c, 0, 62, 0
4, 5280, Note_on_c, 0, 61, 72
4, 5328, Note_on_c, 0, 61, 0
4, 5328, Note_on_c, 0, 59, 72
4, 5376, Note_on_c, 0, 59, 0
4, 5376, Note_on_c, 0, 61, 72
4, 5472, Note_on_c, 0, 61, 0
4, 5472, Note_on_c, 0, 62, 72
4, 5520, Note_on_c, 0, 62, 0
4, 5520, Note_on_c, 0, 64, 72
4, 5568, Note_on_c, 0, 64, 0
4, 5568, Note_on_c, 0, 65, 72
4, 5616, Note_on_c, 0, 65, 0
4, 5616, Note_on_c, 0, 64, 72
4, 5664, Note_on_c, 0, 64, 0
4, 5664, Note_on_c, 0, 65, 72
4, 5712, Note_on_c, 0, 65, 0
4, 5712, Note_on_c, 0, 67, 72
4, 5760, Note_on_c, 0, 67, 0
4, 5760, Note_on_c, 0, 69, 72
4, 5856, Note_on_c, 0, 69, 0
4, 5856, Note_on_c, 0, 64, 72
4, 5952, Note_on_c, 0, 64, 0
4, 5952, Note_on_c, 0, 69, 72
4, 6144, Note_on_c, 0, 69, 0
4, 7296, Note_on_c, 0, 57, 88
4, 7488, Note_on_c, 0, 57, 0
4, 7488, Note_on_c, 0, 64, 88
4, 7632, Note_on_c, 0, 64, 0
4, 7632, Note_on_c, 0, 62, 88
4, 7680, Note_on_c, 0, 62, 0
4, 7680, Note_on_c, 0, 60, 88
4, 7824, Note_on_c, 0, 60, 0
4, 7824, Note_on_c, 0, 59, 88
4, 7872, Note_on_c, 0, 59, 0
4, 7872, Note_on_c, 0, 57, 88
4, 8064, Note_on_c, 0, 57, 0
4, 8064, Note_on_c, 0, 56, 88
4, 8256, Note_on_c, 0, 56, 0
4, 8256, Note_on_c, 0, 57, 88
4, 8400, Note_on_c, 0, 57, 0
4, 8400, Note_on_c, 0, 59, 88
4, 8448, Note_on_c, 0, 59, 0
4, 8448, Note_on_c, 0, 60, 88
4, 8640, Note_on_c, 0, 60, 0
4, 8640, Note_on_c, 0, 60, 88
4, 8688, Note_on_c, 0, 60, 0
4, 8688, Note_on_c, 0, 62, 88
4, 8736, Note_on_c, 0, 62, 0
4, 8736, Note_on_c, 0, 60, 88
4, 8784, Note_on_c, 0, 60, 0
4, 8784, Note_on_c, 0, 58, 88
4, 8832, Note_on_c, 0, 58, 0
4, 8832, Note_on_c, 0, 57, 88
4, 9024, Note_on_c, 0, 57, 0
4, 9072, Note_on_c, 0, 64, 72
4, 9120, Note_on_c, 0, 64, 0
4, 9120, Note_on_c, 0, 62, 72
4, 9168, Note_on_c, 0, 62, 0
4, 9168, Note_on_c, 0, 61, 72
4, 9216, Note_on_c, 0, 61, 0
4, 9216, Note_on_c, 0, 62, 72
4, 9408, Note_on_c, 0, 62, 0
4, 9408, Note_on_c, 0, 62, 72
4, 9456, Note_on_c, 0, 62, 0
4, 9456, Note_on_c, 0, 61, 72
4, 9504, Note_on_c, 0, 61, 0
4, 9504, Note_on_c, 0, 64, 72
4, 9600, Note_on_c, 0, 64, 0
4, 9600, Note_on_c, 0, 57, 72
4, 9888, Note_on_c, 0, 57, 0
4, 9888, Note_on_c, 0, 62, 72
4, 9984, Note_on_c, 0, 62, 0
4, 9984, Note_on_c, 0, 62, 72
4, 10128, Note_on_c, 0, 62, 0
4, 10128, Note_on_c, 0, 60, 72
4, 10176, Note_on_c, 0, 60, 0
4, 10176, Note_on_c, 0, 58, 72
4, 10368, Note_on_c, 0, 58, 0
4, 10368, Note_on_c, 0, 58, 72
4, 10416, Note_on_c, 0, 58, 0
4, 10416, Note_on_c, 0, 58, 72
4, 10464, Note_on_c, 0, 58, 0
4, 10464, Note_on_c, 0, 57, 72
4, 10512, Note_on_c, 0, 57, 0
4, 10512, Note_on_c, 0, 55, 72
4, 10560, Note_on_c, 0, 55, 0
4, 10560, Note_on_c, 0, 57, 72
4, 10704, Note_on_c, 0, 57, 0
4, 10704, Note_on_c, 0, 55, 72
4, 10752, Note_on_c, 0, 55, 0
4, 10752, Note_on_c, 0, 57, 72
4, 10848, Note_on_c, 0, 57, 0
4, 10848, Note_on_c, 0, 58, 72
4, 10944, Note_on_c, 0, 58, 0
4, 10944, Note_on_c, 0, 60, 72
4, 11136, Note_on_c, 0, 60, 0
4, 11136, Note_on_c, 0, 60, 72
4, 11184, Note_on_c, 0, 60, 0
4, 11184, Note_on_c, 0, 58, 72
4, 11232, Note_on_c, 0, 58, 0
4, 11232, Note_on_c, 0, 57, 72
4, 11280, Note_on_c, 0, 57, 0
4, 11280, Note_on_c, 0, 55, 72
4, 11328, Note_on_c, 0, 55, 0
4, 11328, Note_on_c, 0, 53, 72
4, 11424, Note_on_c, 0, 53, 0
4, 11424, Note_on_c, 0, 55, 72
4, 11520, Note_on_c, 0, 55, 0
4, 11520, Note_on_c, 0, 57, 72
4, 11712, Note_on_c, 0, 57, 0
4, 11712, Note_on_c, 0, 57, 72
4, 11760, Note_on_c, 0, 57, 0
4, 11760, Note_on_c, 0, 55, 72
4, 11808, Note_on_c, 0, 55, 0
4, 11808, Note_on_c, 0, 53, 72
4, 11856, Note_on_c, 0, 53, 0
4, 11856, Note_on_c, 0, 52, 72
4, 11904, Note_on_c, 0, 52, 0
4, 11904, Note_on_c, 0, 50, 72
4, 12000, Note_on_c, 0, 50, 0
4, 12000, Note_on_c, 0, 52, 72
4, 12096, Note_on_c, 0, 52, 0
4, 12096, Note_on_c, 0, 53, 72
4, 12192, Note_on_c, 0, 53, 0
4, 12192, Note_on_c, 0, 55, 72
4, 12288, Note_on_c, 0, 55, 0
4, 12288, Note_on_c, 0, 55, 72
4, 12336, Note_on_c, 0, 55, 0
4, 12336, Note_on_c, 0, 55, 72
4, 12384, Note_on_c, 0, 55, 0
4, 12384, Note_on_c, 0, 53, 72
4, 12576, Note_on_c, 0, 53, 0
4, 12576, Note_on_c, 0, 52, 72
4, 12672, Note_on_c, 0, 52, 0
4, 12672, Note_on_c, 0, 53, 72
4, 12720, Note_on_c, 0, 53, 0
4, 12720, Note_on_c, 0, 48, 72
4, 12768, Note_on_c, 0, 48, 0
4, 12768, Note_on_c, 0, 50, 72
4, 12816, Note_on_c, 0, 50, 0
4, 12816, Note_on_c, 0, 52, 72
4, 12864, Note_on_c, 0, 52, 0
4, 12864, Note_on_c, 0, 53, 72
4, 12960, Note_on_c, 0, 53, 0
4, 13200, Note_on_c, 0, 48, 72
4, 13248, Note_on_c, 0, 48, 0
4, 13248, Note_on_c, 0, 53, 72
4, 13392, Note_on_c, 0, 53, 0
4, 13392, Note_on_c, 0, 52, 72
4, 13440, Note_on_c, 0, 52, 0
4, 13440, Note_on_c, 0, 53, 72
4, 13488, Note_on_c, 0, 53, 0
4, 13488, Note_on_c, 0, 57, 72
4, 13536, Note_on_c, 0, 57, 0
4, 13536, Note_on_c, 0, 60, 72
4, 13824, Note_on_c, 0, 60, 0
4, 13824, Note_on_c, 0, 60, 72
4, 13872, Note_on_c, 0, 60, 0
4, 13872, Note_on_c, 0, 58, 72
4, 13920, Note_on_c, 0, 58, 0
4, 13920, Note_on_c, 0, 57, 72
4, 13968, Note_on_c, 0, 57, 0
4, 13968, Note_on_c, 0, 55, 72
4, 14016, Note_on_c, 0, 55, 0
4, 14016, Note_on_c, 0, 53, 72
4, 14208, Note_on_c, 0, 53, 0
4, 14208, Note_on_c, 0, 53, 72
4, 14256, Note_on_c, 0, 53, 0
4, 14256, Note_on_c, 0, 52, 72
4, 14304, Note_on_c, 0, 52, 0
4, 14304, Note_on_c, 0, 53, 72
4, 14352, Note_on_c, 0, 53, 0
4, 14352, Note_on_c, 0, 55, 72
4, 14400, Note_on_c, 0, 55, 0
4, 14400, Note_on_c, 0, 57, 72
4, 14496, Note_on_c, 0, 57, 0
4, 15360, Note_on_c, 0, 60, 88
4, 15552, Note_on_c, 0, 60, 0
4, 15552, Note_on_c, 0, 55, 88
4, 15696, Note_on_c, 0, 55, 0
4, 15696, Note_on_c, 0, 57, 88
4, 15744, Note_on_c, 0, 57, 0
4, 15744, Note_on_c, 0, 58, 88
4, 15888, Note_on_c, 0, 58, 0
4, 15888, Note_on_c, 0, 60, 88
4, 15936, Note_on_c, 0, 60, 0
4, 15936, Note_on_c, 0, 62, 88
4, 16128, Note_on_c, 0, 62, 0
4, 16128, Note_on_c, 0, 63, 88
4, 16320, Note_on_c, 0, 63, 0
4, 16320, Note_on_c, 0, 62, 88
4, 16464, Note_on_c, 0, 62, 0
4, 16464, Note_on_c, 0, 60, 88
4, 16512, Note_on_c, 0, 60, 0
4, 16512, Note_on_c, 0, 58, 88
4, 16704, Note_on_c, 0, 58, 0
4, 16704, Note_on_c, 0, 58, 88
4, 16752, Note_on_c, 0, 58, 0
4, 16752, Note_on_c, 0, 57, 88
4, 16800, Note_on_c, 0, 57, 0
4, 16800, Note_on_c, 0, 58, 88
4, 16848, Note_on_c, 0, 58, 0
4, 16848, Note_on_c, 0, 60, 88
4, 16896, Note_on_c, 0, 60, 0
4, 16896, Note_on_c, 0, 62, 88
4, 17088, Note_on_c, 0, 62, 0
4, 17088, Note_on_c, 0, 62, 88
4, 17136, Note_on_c, 0, 62, 0
4, 17136, Note_on_c, 0, 62, 72
4, 17184, Note_on_c, 0, 62, 0
4, 17184, Note_on_c, 0, 60, 72
4, 17232, Note_on_c, 0, 60, 0
4, 17232, Note_on_c, 0, 58, 72
4, 17280, Note_on_c, 0, 58, 0
4, 17280, Note_on_c, 0, 60, 72
4, 17472, Note_on_c, 0, 60, 0
4, 17472, Note_on_c, 0, 60, 72
4, 17520, Note_on_c, 0, 60, 0
4, 17520, Note_on_c, 0, 53, 72
4, 17568, Note_on_c, 0, 53, 0
4, 17568, Note_on_c, 0, 58, 72
4, 17664, Note_on_c, 0, 58, 0
4, 17664, Note_on_c, 0, 58, 72
4, 17760, Note_on_c, 0, 58, 0
4, 17760, Note_on_c, 0, 57, 72
4, 17856, Note_on_c, 0, 57, 0
4, 17856, Note_on_c, 0, 58, 72
4, 18048, Note_on_c, 0, 58, 0
4, 18240, Note_on_c, 0, 65, 88
4, 18432, Note_on_c, 0, 65, 0
4, 18432, Note_on_c, 0, 58, 88
4, 18576, Note_on_c, 0, 58, 0
4, 18576, Note_on_c, 0, 60, 88
4, 18624, Note_on_c, 0, 60, 0
4, 18624, Note_on_c, 0, 62, 88
4, 18768, Note_on_c, 0, 62, 0
4, 18768, Note_on_c, 0, 63, 88
4, 18816, Note_on_c, 0, 63, 0
4, 18816, Note_on_c, 0, 65, 88
4, 19008, Note_on_c, 0, 65, 0
4, 19008, Note_on_c, 0, 67, 88
4, 19200, Note_on_c, 0, 67, 0
4, 19200, Note_on_c, 0, 65, 88
4, 19344, Note_on_c, 0, 65, 0
4, 19344, Note_on_c, 0, 63, 88
4, 19392, Note_on_c, 0, 63, 0
4, 19392, Note_on_c, 0, 62, 88
4, 19584, Note_on_c, 0, 62, 0
4, 19584, Note_on_c, 0, 62, 88
4, 19632, Note_on_c, 0, 62, 0
4, 19632, Note_on_c, 0, 60, 88
4, 19680, Note_on_c, 0, 60, 0
4, 19680, Note_on_c, 0, 62, 88
4, 19728, Note_on_c, 0, 62, 0
4, 19728, Note_on_c, 0, 64, 88
4, 19776, Note_on_c, 0, 64, 0
4, 19776, Note_on_c, 0, 65, 88
4, 19824, Note_on_c, 0, 65, 0
4, 19824, Note_on_c, 0, 65, 88
4, 19968, Note_on_c, 0, 65, 0
4, 19968, Note_on_c, 0, 65, 88
4, 20064, Note_on_c, 0, 65, 0
4, 20160, Note_on_c, 0, 65, 88
4, 20256, Note_on_c, 0, 65, 0
4, 20256, Note_on_c, 0, 60, 88
4, 20352, Note_on_c, 0, 60, 0
4, 20352, Note_on_c, 0, 60, 88
4, 20400, Note_on_c, 0, 60, 0
4, 20400, Note_on_c, 0, 62, 88
4, 20448, Note_on_c, 0, 62, 0
4, 20448, Note_on_c, 0, 63, 88
4, 20592, Note_on_c, 0, 63, 0
4, 20592, Note_on_c, 0, 65, 88
4, 20640, Note_on_c, 0, 65, 0
4, 20640, Note_on_c, 0, 67, 88
4, 20736, Note_on_c, 0, 67, 0
4, 20736, Note_on_c, 0, 62, 88
4, 20880, Note_on_c, 0, 62, 0
4, 20880, Note_on_c, 0, 64, 88
4, 20928, Note_on_c, 0, 64, 0
4, 20928, Note_on_c, 0, 65, 88
4, 21072, Note_on_c, 0, 65, 0
4, 21072, Note_on_c, 0, 67, 88
4, 21120, Note_on_c, 0, 67, 0
4, 21120, Note_on_c, 0, 69, 88
4, 21216, Note_on_c, 0, 69, 0
4, 21216, Note_on_c, 0, 64, 88
4, 21264, Note_on_c, 0, 64, 0
4, 21264, Note_on_c, 0, 65, 88
4, 21312, Note_on_c, 0, 65, 0
4, 21312, Note_on_c, 0, 67, 88
4, 21408, Note_on_c, 0, 67, 0
4, 21408, Note_on_c, 0, 62, 88
4, 21504, Note_on_c, 0, 62, 0
4, 21504, Note_on_c, 0, 62, 88
4, 21552, Note_on_c, 0, 62, 0
4, 21552, Note_on_c, 0, 62, 88
4, 21600, Note_on_c, 0, 62, 0
4, 21600, Note_on_c, 0, 61, 88
4, 21648, Note_on_c, 0, 61, 0
4, 21648, Note_on_c, 0, 59, 88
4, 21696, Note_on_c, 0, 59, 0
4, 21696, Note_on_c, 0, 61, 88
4, 21888, Note_on_c, 0, 61, 0
4, 21888, Note_on_c, 0, 62, 88
4, 21936, Note_on_c, 0, 62, 0
4, 21936, Note_on_c, 0, 57, 88
4, 21984, Note_on_c, 0, 57, 0
4, 21984, Note_on_c, 0, 60, 88
4, 22128, Note_on_c, 0, 60, 0
4, 22128, Note_on_c, 0, 57, 88
4, 22176, Note_on_c, 0, 57, 0
4, 22176, Note_on_c, 0, 58, 88
4, 22224, Note_on_c, 0, 58, 0
4, 22224, Note_on_c, 0, 67, 88
4, 22272, Note_on_c, 0, 67, 0
4, 22272, Note_on_c, 0, 64, 88
4, 22368, Note_on_c, 0, 64, 0
4, 22368, Note_on_c, 0, 57, 88
4, 22512, Note_on_c, 0, 57, 0
4, 22512, Note_on_c, 0, 57, 88
4, 22560, Note_on_c, 0, 57, 0
4, 22560, Note_on_c, 0, 59, 88
4, 22608, Note_on_c, 0, 59, 0
4, 22608, Note_on_c, 0, 61, 88
4, 22656, Note_on_c, 0, 61, 0
4, 22656, Note_on_c, 0, 62, 88
4, 22752, Note_on_c, 0, 62, 0
4, 22944, Note_on_c, 0, 69, 88
4, 23040, Note_on_c, 0, 69, 0
4, 23040, Note_on_c, 0, 70, 88
4, 23136, Note_on_c, 0, 70, 0
4, 23136, Note_on_c, 0, 58, 88
4, 23232, Note_on_c, 0, 58, 0
4, 23232, Note_on_c, 0, 57, 88
4, 23280, Note_on_c, 0, 57, 0
4, 23280, Note_on_c, 0, 55, 88
4, 23328, Note_on_c, 0, 55, 0
4, 23328, Note_on_c, 0, 57, 88
4, 23376, Note_on_c, 0, 57, 0
4, 23376, Note_on_c, 0, 58, 88
4, 23424, Note_on_c, 0, 58, 0
4, 23424, Note_on_c, 0, 60, 88
4, 23616, Note_on_c, 0, 60, 0
4, 23616, Note_on_c, 0, 60, 88
4, 23664, Note_on_c, 0, 60, 0
4, 23664, Note_on_c, 0, 60, 88
4, 23712, Note_on_c, 0, 60, 0
4, 23712, Note_on_c, 0, 58, 88
4, 23760, Note_on_c, 0, 58, 0
4, 23760, Note_on_c, 0, 57, 88
4, 23808, Note_on_c, 0, 57, 0
4, 23808, Note_on_c, 0, 55, 88
4, 24192, Note_on_c, 0, 55, 0
4, 24192, Note_on_c, 0, 55, 88
4, 24240, Note_on_c, 0, 55, 0
4, 24240, Note_on_c, 0, 55, 88
4, 24288, Note_on_c, 0, 55, 0
4, 24288, Note_on_c, 0, 53, 88
4, 24336, Note_on_c, 0, 53, 0
4, 24336, Note_on_c, 0, 52, 88
4, 24384, Note_on_c, 0, 52, 0
4, 24384, Note_on_c, 0, 53, 88
4, 24480, Note_on_c, 0, 53, 0
4, 24480, Note_on_c, 0, 53, 72
4, 24576, Note_on_c, 0, 53, 0
4, 24576, Note_on_c, 0, 52, 72
4, 24672, Note_on_c, 0, 52, 0
4, 24960, Note_on_c, 0, 62, 72
4, 25056, Note_on_c, 0, 62, 0
4, 25056, Note_on_c, 0, 67, 72
4, 25200, Note_on_c, 0, 67, 0
4, 25200, Note_on_c, 0, 65, 72
4, 25248, Note_on_c, 0, 65, 0
4, 25248, Note_on_c, 0, 64, 72
4, 25344, Note_on_c, 0, 64, 0
4, 25344, Note_on_c, 0, 64, 72
4, 25392, Note_on_c, 0, 64, 0
4, 25392, Note_on_c, 0, 62, 72
4, 25440, Note_on_c, 0, 62, 0
4, 25440, Note_on_c, 0, 60, 72
4, 25536, Note_on_c, 0, 60, 0
4, 25536, Note_on_c, 0, 65, 72
4, 25680, Note_on_c, 0, 65, 0
4, 25680, Note_on_c, 0, 64, 72
4, 25728, Note_on_c, 0, 64, 0
4, 25728, Note_on_c, 0, 62, 72
4, 26016, Note_on_c, 0, 62, 0
4, 26016, Note_on_c, 0, 64, 72
4, 26112, Note_on_c, 0, 64, 0
4, 26112, Note_on_c, 0, 64, 72
4, 26160, Note_on_c, 0, 64, 0
4, 26160, Note_on_c, 0, 62, 72
4, 26208, Note_on_c, 0, 62, 0
4, 26208, Note_on_c, 0, 64, 72
4, 26256, Note_on_c, 0, 64, 0
4, 26256, Note_on_c, 0, 66, 72
4, 26304, Note_on_c, 0, 66, 0
4, 26304, Note_on_c, 0, 67, 72
4, 26496, Note_on_c, 0, 67, 0
4, 26496, Note_on_c, 0, 69, 88
4, 26688, Note_on_c, 0, 69, 0
4, 26688, Note_on_c, 0, 62, 88
4, 26832, Note_on_c, 0, 62, 0
4, 26832, Note_on_c, 0, 64, 88
4, 26880, Note_on_c, 0, 64, 0
4, 26880, Note_on_c, 0, 65, 88
4, 27024, Note_on_c, 0, 65, 0
4, 27024, Note_on_c, 0, 67, 88
4, 27072, Note_on_c, 0, 67, 0
4, 27072, Note_on_c, 0, 69, 88
4, 27264, Note_on_c, 0, 69, 0
4, 27264, Note_on_c, 0, 70, 88
4, 27456, Note_on_c, 0, 70, 0
4, 27456, Note_on_c, 0, 69, 88
4, 27600, Note_on_c, 0, 69, 0
4, 27600, Note_on_c, 0, 67, 88
4, 27648, Note_on_c, 0, 67, 0
4, 27648, Note_on_c, 0, 65, 88
4, 27840, Note_on_c, 0, 65, 0
4, 27840, Note_on_c, 0, 65, 88
4, 27888, Note_on_c, 0, 65, 0
4, 27888, Note_on_c, 0, 64, 88
4, 27936, Note_on_c, 0, 64, 0
4, 27936, Note_on_c, 0, 66, 88
4, 27984, Note_on_c, 0, 66, 0
4, 27984, Note_on_c, 0, 67, 88
4, 28032, Note_on_c, 0, 67, 0
4, 28032, Note_on_c, 0, 69, 88
4, 28080, Note_on_c, 0, 69, 0
4, 28080, Note_on_c, 0, 67, 72
4, 28128, Note_on_c, 0, 67, 0
4, 28128, Note_on_c, 0, 66, 72
4, 28176, Note_on_c, 0, 66, 0
4, 28176, Note_on_c, 0, 69, 72
4, 28224, Note_on_c, 0, 69, 0
4, 28224, Note_on_c, 0, 62, 72
4, 28320, Note_on_c, 0, 62, 0
4, 28320, Note_on_c, 0, 67, 72
4, 28416, Note_on_c, 0, 67, 0
4, 28416, Note_on_c, 0, 67, 72
4, 28464, Note_on_c, 0, 67, 0
4, 28464, Note_on_c, 0, 61, 72
4, 28512, Note_on_c, 0, 61, 0
4, 28512, Note_on_c, 0, 62, 72
4, 28560, Note_on_c, 0, 62, 0
4, 28560, Note_on_c, 0, 65, 72
4, 28608, Note_on_c, 0, 65, 0
4, 28608, Note_on_c, 0, 58, 72
4, 28800, Note_on_c, 0, 58, 0
4, 28800, Note_on_c, 0, 58, 72
4, 28848, Note_on_c, 0, 58, 0
4, 28848, Note_on_c, 0, 57, 72
4, 28896, Note_on_c, 0, 57, 0
4, 28896, Note_on_c, 0, 55, 72
4, 28944, Note_on_c, 0, 55, 0
4, 28944, Note_on_c, 0, 57, 72
4, 28992, Note_on_c, 0, 57, 0
4, 28992, Note_on_c, 0, 53, 72
4, 29184, Note_on_c, 0, 53, 0
4, 29184, Note_on_c, 0, 52, 88
4, 29376, Note_on_c, 0, 52, 0
4, 29376, Note_on_c, 0, 57, 88
4, 29520, Note_on_c, 0, 57, 0
4, 29520, Note_on_c, 0, 55, 88
4, 29568, Note_on_c, 0, 55, 0
4, 29568, Note_on_c, 0, 53, 88
4, 29712, Note_on_c, 0, 53, 0
4, 29712, Note_on_c, 0, 52, 88
4, 29760, Note_on_c, 0, 52, 0
4, 29760, Note_on_c, 0, 50, 88
4, 29952, Note_on_c, 0, 50, 0
4, 29952, Note_on_c, 0, 49, 88
4, 30144, Note_on_c, 0, 49, 0
4, 30144, Note_on_c, 0, 50, 88
4, 30288, Note_on_c, 0, 50, 0
4, 30288, Note_on_c, 0, 52, 88
4, 30336, Note_on_c, 0, 52, 0
4, 30336, Note_on_c, 0, 53, 88
4, 30528, Note_on_c, 0, 53, 0
4, 30528, Note_on_c, 0, 53, 88
4, 30576, Note_on_c, 0, 53, 0
4, 30576, Note_on_c, 0, 55, 88
4, 30624, Note_on_c, 0, 55, 0
4, 30624, Note_on_c, 0, 53, 88
4, 30672, Note_on_c, 0, 53, 0
4, 30672, Note_on_c, 0, 52, 88
4, 30720, Note_on_c, 0, 52, 0
4, 30720, Note_on_c, 0, 50, 88
4, 30768, Note_on_c, 0, 50, 0
4, 30768, Note_on_c, 0, 53, 72
4, 30816, Note_on_c, 0, 53, 0
4, 30816, Note_on_c, 0, 55, 72
4, 30864, Note_on_c, 0, 55, 0
4, 30864, Note_on_c, 0, 57, 72
4, 30912, Note_on_c, 0, 57, 0
4, 30912, Note_on_c, 0, 58, 72
4, 31104, Note_on_c, 0, 58, 0
4, 31104, Note_on_c, 0, 58, 72
4, 31152, Note_on_c, 0, 58, 0
4, 31152, Note_on_c, 0, 60, 72
4, 31200, Note_on_c, 0, 60, 0
4, 31200, Note_on_c, 0, 58, 72
4, 31248, Note_on_c, 0, 58, 0
4, 31248, Note_on_c, 0, 57, 72
4, 31296, Note_on_c, 0, 57, 0
4, 31296, Note_on_c, 0, 55, 72
4, 31344, Note_on_c, 0, 55, 0
4, 31344, Note_on_c, 0, 58, 72
4, 31392, Note_on_c, 0, 58, 0
4, 31392, Note_on_c, 0, 60, 72
4, 31440, Note_on_c, 0, 60, 0
4, 31440, Note_on_c, 0, 62, 72
4, 31488, Note_on_c, 0, 62, 0
4, 31488, Note_on_c, 0, 63, 72
4, 31680, Note_on_c, 0, 63, 0
4, 31680, Note_on_c, 0, 62, 72
4, 31776, Note_on_c, 0, 62, 0
4, 31776, Note_on_c, 0, 67, 72
4, 31872, Note_on_c, 0, 67, 0
4, 31872, Note_on_c, 0, 67, 72
4, 31968, Note_on_c, 0, 67, 0
4, 31968, Note_on_c, 0, 65, 72
4, 32016, Note_on_c, 0, 65, 0
4, 32016, Note_on_c, 0, 64, 72
4, 32064, Note_on_c, 0, 64, 0
4, 32064, Note_on_c, 0, 62, 72
4, 32112, Note_on_c, 0, 62, 0
4, 32112, Note_on_c, 0, 65, 72
4, 32160, Note_on_c, 0, 65, 0
4, 32160, Note_on_c, 0, 64, 72
4, 32208, Note_on_c, 0, 64, 0
4, 32208, Note_on_c, 0, 62, 72
4, 32256, Note_on_c, 0, 62, 0
4, 32256, Note_on_c, 0, 64, 72
4, 32352, Note_on_c, 0, 64, 0
4, 32352, Note_on_c, 0, 65, 72
4, 32448, Note_on_c, 0, 65, 0
4, 32448, Note_on_c, 0, 64, 72
4, 32496, Note_on_c, 0, 64, 0
4, 32496, Note_on_c, 0, 62, 72
4, 32544, Note_on_c, 0, 62, 0
4, 32544, Note_on_c, 0, 64, 72
4, 32640, Note_on_c, 0, 64, 0
4, 32640, Note_on_c, 0, 62, 72
4, 32688, Note_on_c, 0, 62, 0
4, 32688, Note_on_c, 0, 62, 88
4, 32736, Note_on_c, 0, 62, 0
4, 32736, Note_on_c, 0, 62, 88
4, 32832, Note_on_c, 0, 62, 0
4, 32880, Note_on_c, 0, 52, 88
4, 32928, Note_on_c, 0, 52, 0
4, 32928, Note_on_c, 0, 54, 88
4, 32976, Note_on_c, 0, 54, 0
4, 32976, Note_on_c, 0, 55, 88
4, 33024, Note_on_c, 0, 55, 0
4, 33024, Note_on_c, 0, 57, 88
4, 33072, Note_on_c, 0, 57, 0
4, 33072, Note_on_c, 0, 55, 88
4, 33120, Note_on_c, 0, 55, 0
4, 33120, Note_on_c, 0, 57, 88
4, 33168, Note_on_c, 0, 57, 0
4, 33168, Note_on_c, 0, 58, 88
4, 33216, Note_on_c, 0, 58, 0
4, 33216, Note_on_c, 0, 60, 88
4, 33264, Note_on_c, 0, 60, 0
4, 33264, Note_on_c, 0, 58, 88
4, 33312, Note_on_c, 0, 58, 0
4, 33312, Note_on_c, 0, 60, 88
4, 33360, Note_on_c, 0, 60, 0
4, 33360, Note_on_c, 0, 54, 88
4, 33408, Note_on_c, 0, 54, 0
4, 33408, Note_on_c, 0, 55, 88
4, 33456, Note_on_c, 0, 55, 0
4, 33456, Note_on_c, 0, 57, 88
4, 33504, Note_on_c, 0, 57, 0
4, 33504, Note_on_c, 0, 55, 88
4, 33552, Note_on_c, 0, 55, 0
4, 33552, Note_on_c, 0, 52, 88
4, 33600, Note_on_c, 0, 52, 0
4, 33600, Note_on_c, 0, 57, 88
4, 33648, Note_on_c, 0, 57, 0
4, 33648, Note_on_c, 0, 55, 88
4, 33696, Note_on_c, 0, 55, 0
4, 33696, Note_on_c, 0, 54, 88
4, 33744, Note_on_c, 0, 54, 0
4, 33744, Note_on_c, 0, 52, 88
4, 33792, Note_on_c, 0, 52, 0
4, 33792, Note_on_c, 0, 50, 88
4, 33984, Note_on_c, 0, 50, 0
4, 33984, Note_on_c, 0, 50, 88
4, 34032, Note_on_c, 0, 50, 0
4, 34032, Note_on_c, 0, 49, 88
4, 34080, Note_on_c, 0, 49, 0
4, 34080, Note_on_c, 0, 50, 88
4, 34128, Note_on_c, 0, 50, 0
4, 34128, Note_on_c, 0, 52, 88
4, 34176, Note_on_c, 0, 52, 0
4, 34176, Note_on_c, 0, 54, 88
4, 34560, Note_on_c, 0, 54, 0
4, 34560, End_track
5, 0, Start_track
5, 1152, Note_on_c, 0, 50, 88
5, 1344, Note_on_c, 0, 50, 0
5, 1344, Note_on_c, 0, 57, 88
5, 1488, Note_on_c, 0, 57, 0
5, 1488, Note_on_c, 0, 55, 88
5, 1536, Note_on_c, 0, 55, 0
5, 1536, Note_on_c, 0, 53, 88
5, 1680, Note_on_c, 0, 53, 0
5, 1680, Note_on_c, 0, 52, 88
5, 1728, Note_on_c, 0, 52, 0
5, 1728, Note_on_c, 0, 50, 88
5, 1920, Note_on_c, 0, 50, 0
5, 1920, Note_on_c, 0, 49, 88
5, 2112, Note_on_c, 0, 49, 0
5, 2112, Note_on_c, 0, 50, 88
5, 2256, Note_on_c, 0, 50, 0
5, 2256, Note_on_c, 0, 52, 88
5, 2304, Note_on_c, 0, 52, 0
5, 2304, Note_on_c, 0, 53, 88
5, 2496, Note_on_c, 0, 53, 0
5, 2496, Note_on_c, 0, 53, 88
5, 2544, Note_on_c, 0, 53, 0
5, 2544, Note_on_c, 0, 55, 88
5, 2592, Note_on_c, 0, 55, 0
5, 2592, Note_on_c, 0, 53, 88
5, 2640, Note_on_c, 0, 53, 0
5, 2640, Note_on_c, 0, 52, 88
5, 2688, Note_on_c, 0, 52, 0
5, 2688, Note_on_c, 0, 50, 88
5, 2736, Note_on_c, 0, 50, 0
5, 2736, Note_on_c, 0, 53, 72
5, 2784, Note_on_c, 0, 53, 0
5, 2784, Note_on_c, 0, 55, 72
5, 2832, Note_on_c, 0, 55, 0
5, 2832, Note_on_c, 0, 57, 72
5, 2880, Note_on_c, 0, 57, 0
5, 2880, Note_on_c, 0, 58, 72
5, 3072, Note_on_c, 0, 58, 0
5, 3072, Note_on_c, 0, 57, 72
5, 3216, Note_on_c, 0, 57, 0
5, 3216, Note_on_c, 0, 45, 72
5, 3264, Note_on_c, 0, 45, 0
5, 3264, Note_on_c, 0, 47, 72
5, 3408, Note_on_c, 0, 47, 0
5, 3408, Note_on_c, 0, 49, 72
5, 3456, Note_on_c, 0, 49, 0
5, 3456, Note_on_c, 0, 50, 72
5, 3600, Note_on_c, 0, 50, 0
5, 3600, Note_on_c, 0, 52, 72
5, 3648, Note_on_c, 0, 52, 0
5, 3648, Note_on_c, 0, 53, 72
5, 3744, Note_on_c, 0, 53, 0
5, 3744, Note_on_c, 0, 50, 72
5, 3840, Note_on_c, 0, 50, 0
5, 3840, Note_on_c, 0, 57, 72
5, 4032, Note_on_c, 0, 57, 0
5, 4032, Note_on_c, 0, 57, 72
5, 4080, Note_on_c, 0, 57, 0
5, 4080, Note_on_c, 0, 57, 72
5, 4128, Note_on_c, 0, 57, 0
5, 4128, Note_on_c, 0, 58, 72
5, 4176, Note_on_c, 0, 58, 0
5, 4176, Note_on_c, 0, 60, 72
5, 4224, Note_on_c, 0, 60, 0
5, 4224, Note_on_c, 0, 62, 72
5, 4416, Note_on_c, 0, 62, 0
5, 4416, Note_on_c, 0, 55, 72
5, 4608, Note_on_c, 0, 55, 0
5, 4608, Note_on_c, 0, 55, 72
5, 4656, Note_on_c, 0, 55, 0
5, 4656, Note_on_c, 0, 55, 72
5, 4704, Note_on_c, 0, 55, 0
5, 4704, Note_on_c, 0, 53, 72
5, 4752, Note_on_c, 0, 53, 0
5, 4752, Note_on_c, 0, 52, 72
5, 4800, Note_on_c, 0, 52, 0
5, 4800, Note_on_c, 0, 53, 72
5, 4992, Note_on_c, 0, 53, 0
5, 4992, Note_on_c, 0, 53, 72
5, 5040, Note_on_c, 0, 53, 0
5, 5040, Note_on_c, 0, 53, 72
5, 5088, Note_on_c, 0, 53, 0
5, 5088, Note_on_c, 0, 52, 72
5, 5136, Note_on_c, 0, 52, 0
5, 5136, Note_on_c, 0, 50, 72
5, 5184, Note_on_c, 0, 50, 0
5, 5184, Note_on_c, 0, 52, 72
5, 5376, Note_on_c, 0, 52, 0
5, 5376, Note_on_c, 0, 57, 72
5, 5760, Note_on_c, 0, 57, 0
5, 5760, Note_on_c, 0, 57, 72
5, 5952, Note_on_c, 0, 57, 0
5, 5952, Note_on_c, 0, 57, 72
5, 6000, Note_on_c, 0, 57, 0
5, 6000, Note_on_c, 0, 58, 72
5, 6048, Note_on_c, 0, 58, 0
5, 6048, Note_on_c, 0, 57, 72
5, 6096, Note_on_c, 0, 57, 0
5, 6096, Note_on_c, 0, 55, 72
5, 6144, Note_on_c, 0, 55, 0
5, 6144, Note_on_c, 0, 53, 72
5, 6432, Note_on_c, 0, 53, 0
5, 6432, Note_on_c, 0, 50, 72
5, 6528, Note_on_c, 0, 50, 0
5, 6528, Note_on_c, 0, 57, 72
5, 6624, Note_on_c, 0, 57, 0
5, 6624, Note_on_c, 0, 53, 72
5, 6720, Note_on_c, 0, 53, 0
5, 6720, Note_on_c, 0, 60, 72
5, 6912, Note_on_c, 0, 60, 0
5, 6912, Note_on_c, 0, 60, 72
5, 6960, Note_on_c, 0, 60, 0
5, 6960, Note_on_c, 0, 60, 72
5, 7008, Note_on_c, 0, 60, 0
5, 7008, Note_on_c, 0, 59, 72
5, 7056, Note_on_c, 0, 59, 0
5, 7056, Note_on_c, 0, 57, 72
5, 7104, Note_on_c, 0, 57, 0
5, 7104, Note_on_c, 0, 56, 72
5, 7296, Note_on_c, 0, 56, 0
5, 7296, Note_on_c, 0, 57, 72
5, 7488, Note_on_c, 0, 57, 0
5, 7488, Note_on_c, 0, 57, 72
5, 7536, Note_on_c, 0, 57, 0
5, 7536, Note_on_c, 0, 55, 72
5, 7584, Note_on_c, 0, 55, 0
5, 7584, Note_on_c, 0, 53, 72
5, 7680, Note_on_c, 0, 53, 0
5, 7680, Note_on_c, 0, 52, 72
5, 8064, Note_on_c, 0, 52, 0
5, 8064, Note_on_c, 0, 52, 72
5, 8256, Note_on_c, 0, 52, 0
5, 8448, Note_on_c, 0, 57, 88
5, 8640, Note_on_c, 0, 57, 0
5, 8640, Note_on_c, 0, 50, 88
5, 8784, Note_on_c, 0, 50, 0
5, 8784, Note_on_c, 0, 52, 88
5, 8832, Note_on_c, 0, 52, 0
5, 8832, Note_on_c, 0, 53, 88
5, 8976, Note_on_c, 0, 53, 0
5, 8976, Note_on_c, 0, 55, 88
5, 9024, Note_on_c, 0, 55, 0
5, 9024, Note_on_c, 0, 57, 88
5, 9216, Note_on_c, 0, 57, 0
5, 9216, Note_on_c, 0, 58, 88
5, 9408, Note_on_c, 0, 58, 0
5, 9408, Note_on_c, 0, 57, 88
5, 9552, Note_on_c, 0, 57, 0
5, 9552, Note_on_c, 0, 55, 88
5, 9600, Note_on_c, 0, 55, 0
5, 9600, Note_on_c, 0, 53, 88
5, 9792, Note_on_c, 0, 53, 0
5, 9792, Note_on_c, 0, 53, 88
5, 9840, Note_on_c, 0, 53, 0
5, 9840, Note_on_c, 0, 52, 88
5, 9888, Note_on_c, 0, 52, 0
5, 9888, Note_on_c, 0, 53, 88
5, 9936, Note_on_c, 0, 53, 0
5, 9936, Note_on_c, 0, 55, 88
5, 9984, Note_on_c, 0, 55, 0
5, 9984, Note_on_c, 0, 57, 88
5, 10176, Note_on_c, 0, 57, 0
5, 10224, Note_on_c, 0, 57, 72
5, 10272, Note_on_c, 0, 57, 0
5, 10272, Note_on_c, 0, 55, 72
5, 10320, Note_on_c, 0, 55, 0
5, 10320, Note_on_c, 0, 53, 72
5, 10368, Note_on_c, 0, 53, 0
5, 10368, Note_on_c, 0, 52, 72
5, 10560, Note_on_c, 0, 52, 0
5, 10560, Note_on_c, 0, 50, 72
5, 10752, Note_on_c, 0, 50, 0
5, 10752, Note_on_c, 0, 50, 72
5, 10800, Note_on_c, 0, 50, 0
5, 10800, Note_on_c, 0, 50, 72
5, 10848, Note_on_c, 0, 50, 0
5, 10848, Note_on_c, 0, 48, 72
5, 10896, Note_on_c, 0, 48, 0
5, 10896, Note_on_c, 0, 46, 72
5, 10944, Note_on_c, 0, 46, 0
5, 10944, Note_on_c, 0, 45, 72
5, 11136, Note_on_c, 0, 45, 0
5, 11136, Note_on_c, 0, 46, 72
5, 11328, Note_on_c, 0, 46, 0
5, 11328, Note_on_c, 0, 46, 72
5, 11376, Note_on_c, 0, 46, 0
5, 11376, Note_on_c, 0, 46, 72
5, 11424, Note_on_c, 0, 46, 0
5, 11424, Note_on_c, 0, 45, 72
5, 11472, Note_on_c, 0, 45, 0
5, 11472, Note_on_c, 0, 43, 72
5, 11520, Note_on_c, 0, 43, 0
5, 11520, Note_on_c, 0, 42, 72
5, 11712, Note_on_c, 0, 42, 0
5, 11712, Note_on_c, 0, 43, 72
5, 11904, Note_on_c, 0, 43, 0
5, 11904, Note_on_c, 0, 43, 72
5, 11952, Note_on_c, 0, 43, 0
5, 11952, Note_on_c, 0, 43, 72
5, 12000, Note_on_c, 0, 43, 0
5, 12000, Note_on_c, 0, 41, 72
5, 12048, Note_on_c, 0, 41, 0
5, 12048, Note_on_c, 0, 40, 72
5, 12096, Note_on_c, 0, 40, 0
5, 12096, Note_on_c, 0, 38, 72
5, 12192, Note_on_c, 0, 38, 0
5, 12192, Note_on_c, 0, 40, 72
5, 12288, Note_on_c, 0, 40, 0
5, 12288, Note_on_c, 0, 41, 88
5, 12480, Note_on_c, 0, 41, 0
5, 12480, Note_on_c, 0, 48, 88
5, 12624, Note_on_c, 0, 48, 0
5, 12624, Note_on_c, 0, 46, 88
5, 12672, Note_on_c, 0, 46, 0
5, 12672, Note_on_c, 0, 45, 88
5, 12816, Note_on_c, 0, 45, 0
5, 12816, Note_on_c, 0, 43, 88
5, 12864, Note_on_c, 0, 43, 0
5, 12864, Note_on_c, 0, 41, 88
5, 13056, Note_on_c, 0, 41, 0
5, 13056, Note_on_c, 0, 40, 88
5, 13248, Note_on_c, 0, 40, 0
5, 13248, Note_on_c, 0, 41, 88
5, 13392, Note_on_c, 0, 41, 0
5, 13392, Note_on_c, 0, 43, 88
5, 13440, Note_on_c, 0, 43, 0
5, 13440, Note_on_c, 0, 45, 88
5, 13632, Note_on_c, 0, 45, 0
5, 13632, Note_on_c, 0, 45, 88
5, 13680, Note_on_c, 0, 45, 0
5, 13680, Note_on_c, 0, 46, 88
5, 13728, Note_on_c, 0, 46, 0
5, 13728, Note_on_c, 0, 45, 88
5, 13776, Note_on_c, 0, 45, 0
5, 13776, Note_on_c, 0, 43, 88
5, 13824, Note_on_c, 0, 43, 0
5, 13824, Note_on_c, 0, 41, 88
5, 14016, Note_on_c, 0, 41, 0
5, 14016, Note_on_c, 0, 41, 88
5, 14064, Note_on_c, 0, 41, 0
5, 14064, Note_on_c, 0, 45, 72
5, 14112, Note_on_c, 0, 45, 0
5, 14112, Note_on_c, 0, 46, 72
5, 14160, Note_on_c, 0, 46, 0
5, 14160, Note_on_c, 0, 48, 72
5, 14208, Note_on_c, 0, 48, 0
5, 14208, Note_on_c, 0, 50, 72
5, 14400, Note_on_c, 0, 50, 0
5, 14400, Note_on_c, 0, 50, 72
5, 14448, Note_on_c, 0, 50, 0
5, 14448, Note_on_c, 0, 52, 72
5, 14496, Note_on_c, 0, 52, 0
5, 14496, Note_on_c, 0, 50, 72
5, 14544, Note_on_c, 0, 50, 0
5, 14544, Note_on_c, 0, 48, 72
5, 14592, Note_on_c, 0, 48, 0
5, 14592, Note_on_c, 0, 47, 72
5, 14640, Note_on_c, 0, 47, 0
5, 14640, Note_on_c, 0, 50, 72
5, 14688, Note_on_c, 0, 50, 0
5, 14688, Note_on_c, 0, 48, 72
5, 14736, Note_on_c, 0, 48, 0
5, 14736, Note_on_c, 0, 47, 72
5, 14784, Note_on_c, 0, 47, 0
5, 14784, Note_on_c, 0, 45, 72
5, 14832, Note_on_c, 0, 45, 0
5, 14832, Note_on_c, 0, 43, 72
5, 14880, Note_on_c, 0, 43, 0
5, 14880, Note_on_c, 0, 45, 72
5, 14928, Note_on_c, 0, 45, 0
5, 14928, Note_on_c, 0, 47, 72
5, 14976, Note_on_c, 0, 47, 0
5, 14976, Note_on_c, 0, 48, 72
5, 15024, Note_on_c, 0, 48, 0
5, 15024, Note_on_c, 0, 50, 72
5, 15072, Note_on_c, 0, 50, 0
5, 15072, Note_on_c, 0, 52, 72
5, 15120, Note_on_c, 0, 52, 0
5, 15120, Note_on_c, 0, 53, 72
5, 15168, Note_on_c, 0, 53, 0
5, 15168, Note_on_c, 0, 55, 72
5, 15216, Note_on_c, 0, 55, 0
5, 15216, Note_on_c, 0, 57, 72
5, 15264, Note_on_c, 0, 57, 0
5, 15264, Note_on_c, 0, 55, 72
5, 15312, Note_on_c, 0, 55, 0
5, 15312, Note_on_c, 0, 53, 72
5, 15360, Note_on_c, 0, 53, 0
5, 15360, Note_on_c, 0, 52, 72
5, 15408, Note_on_c, 0, 52, 0
5, 15408, Note_on_c, 0, 48, 72
5, 15456, Note_on_c, 0, 48, 0
5, 15456, Note_on_c, 0, 53, 72
5, 15648, Note_on_c, 0, 53, 0
5, 15648, Note_on_c, 0, 51, 72
5, 15744, Note_on_c, 0, 51, 0
5, 15744, Note_on_c, 0, 50, 72
5, 16128, Note_on_c, 0, 50, 0
5, 16128, Note_on_c, 0, 50, 72
5, 16176, Note_on_c, 0, 50, 0
5, 16176, Note_on_c, 0, 43, 72
5, 16224, Note_on_c, 0, 43, 0
5, 16224, Note_on_c, 0, 48, 72
5, 16368, Note_on_c, 0, 48, 0
5, 16368, Note_on_c, 0, 48, 72
5, 16416, Note_on_c, 0, 48, 0
5, 16416, Note_on_c, 0, 46, 72
5, 16464, Note_on_c, 0, 46, 0
5, 16464, Note_on_c, 0, 45, 72
5, 16512, Note_on_c, 0, 45, 0
5, 16512, Note_on_c, 0, 43, 72
5, 16560, Note_on_c, 0, 43, 0
5, 16560, Note_on_c, 0, 50, 72
5, 16608, Note_on_c, 0, 50, 0
5, 16608, Note_on_c, 0, 52, 72
5, 16656, Note_on_c, 0, 52, 0
5, 16656, Note_on_c, 0, 54, 72
5, 16704, Note_on_c, 0, 54, 0
5, 16704, Note_on_c, 0, 55, 72
5, 16896, Note_on_c, 0, 55, 0
5, 16896, Note_on_c, 0, 55, 72
5, 16992, Note_on_c, 0, 55, 0
5, 16992, Note_on_c, 0, 53, 72
5, 17088, Note_on_c, 0, 53, 0
5, 17088, Note_on_c, 0, 51, 72
5, 17280, Note_on_c, 0, 51, 0
5, 17280, Note_on_c, 0, 51, 72
5, 17328, Note_on_c, 0, 51, 0
5, 17328, Note_on_c, 0, 51, 72
5, 17376, Note_on_c, 0, 51, 0
5, 17376, Note_on_c, 0, 50, 72
5, 17424, Note_on_c, 0, 50, 0
5, 17424, Note_on_c, 0, 48, 72
5, 17472, Note_on_c, 0, 48, 0
5, 17472, Note_on_c, 0, 50, 72
5, 17616, Note_on_c, 0, 50, 0
5, 17616, Note_on_c, 0, 51, 72
5, 17664, Note_on_c, 0, 51, 0
5, 17664, Note_on_c, 0, 53, 88
5, 17856, Note_on_c, 0, 53, 0
5, 17856, Note_on_c, 0, 46, 88
5, 18000, Note_on_c, 0, 46, 0
5, 18000, Note_on_c, 0, 48, 88
5, 18048, Note_on_c, 0, 48, 0
5, 18048, Note_on_c, 0, 50, 88
5, 18192, Note_on_c, 0, 50, 0
5, 18192, Note_on_c, 0, 51, 88
5, 18240, Note_on_c, 0, 51, 0
5, 18240, Note_on_c, 0, 53, 88
5, 18432, Note_on_c, 0, 53, 0
5, 18432, Note_on_c, 0, 55, 88
5, 18624, Note_on_c, 0, 55, 0
5, 18624, Note_on_c, 0, 53, 88
5, 18768, Note_on_c, 0, 53, 0
5, 18768, Note_on_c, 0, 51, 88
5, 18816, Note_on_c, 0, 51, 0
5, 18816, Note_on_c, 0, 50, 88
5, 19008, Note_on_c, 0, 50, 0
5, 19008, Note_on_c, 0, 50, 88
5, 19056, Note_on_c, 0, 50, 0
5, 19056, Note_on_c, 0, 48, 88
5, 19104, Note_on_c, 0, 48, 0
5, 19104, Note_on_c, 0, 50, 88
5, 19152, Note_on_c, 0, 50, 0
5, 19152, Note_on_c, 0, 51, 88
5, 19200, Note_on_c, 0, 51, 0
5, 19200, Note_on_c, 0, 53, 88
5, 19584, Note_on_c, 0, 53, 0
5, 19584, Note_on_c, 0, 53, 88
5, 19776, Note_on_c, 0, 53, 0
5, 19776, Note_on_c, 0, 53, 88
5, 19824, Note_on_c, 0, 53, 0
5, 19824, Note_on_c, 0, 53, 88
5, 19968, Note_on_c, 0, 53, 0
5, 19968, Note_on_c, 0, 53, 88
5, 20064, Note_on_c, 0, 53, 0
5, 20352, Note_on_c, 0, 60, 88
5, 20448, Note_on_c, 0, 60, 0
5, 20448, Note_on_c, 0, 55, 88
5, 20592, Note_on_c, 0, 55, 0
5, 20592, Note_on_c, 0, 57, 88
5, 20640, Note_on_c, 0, 57, 0
5, 20640, Note_on_c, 0, 58, 88
5, 20736, Note_on_c, 0, 58, 0
5, 20736, Note_on_c, 0, 58, 88
5, 20784, Note_on_c, 0, 58, 0
5, 20784, Note_on_c, 0, 60, 88
5, 20832, Note_on_c, 0, 60, 0
5, 20832, Note_on_c, 0, 62, 88
5, 20928, Note_on_c, 0, 62, 0
5, 20928, Note_on_c, 0, 57, 88
5, 21072, Note_on_c, 0, 57, 0
5, 21072, Note_on_c, 0, 58, 88
5, 21120, Note_on_c, 0, 58, 0
5, 21120, Note_on_c, 0, 60, 88
5, 21216, Note_on_c, 0, 60, 0
5, 21216, Note_on_c, 0, 55, 88
5, 21264, Note_on_c, 0, 55, 0
5, 21264, Note_on_c, 0, 57, 88
5, 21312, Note_on_c, 0, 57, 0
5, 21312, Note_on_c, 0, 58, 88
5, 21408, Note_on_c, 0, 58, 0
5, 21408, Note_on_c, 0, 53, 88
5, 21456, Note_on_c, 0, 53, 0
5, 21456, Note_on_c, 0, 55, 88
5, 21504, Note_on_c, 0, 55, 0
5, 21504, Note_on_c, 0, 57, 88
5, 21696, Note_on_c, 0, 57, 0
5, 21696, Note_on_c, 0, 57, 88
5, 21744, Note_on_c, 0, 57, 0
5, 21744, Note_on_c, 0, 55, 88
5, 21792, Note_on_c, 0, 55, 0
5, 21792, Note_on_c, 0, 53, 88
5, 21840, Note_on_c, 0, 53, 0
5, 21840, Note_on_c, 0, 52, 88
5, 21888, Note_on_c, 0, 52, 0
5, 21888, Note_on_c, 0, 50, 88
5, 22080, Note_on_c, 0, 50, 0
5, 22176, Note_on_c, 0, 55, 88
5, 22272, Note_on_c, 0, 55, 0
5, 22272, Note_on_c, 0, 55, 88
5, 22320, Note_on_c, 0, 55, 0
5, 22320, Note_on_c, 0, 52, 88
5, 22368, Note_on_c, 0, 52, 0
5, 22368, Note_on_c, 0, 53, 88
5, 22656, Note_on_c, 0, 53, 0
5, 22656, Note_on_c, 0, 53, 88
5, 22704, Note_on_c, 0, 53, 0
5, 22704, Note_on_c, 0, 52, 88
5, 22752, Note_on_c, 0, 52, 0
5, 22752, Note_on_c, 0, 53, 88
5, 22800, Note_on_c, 0, 53, 0
5, 22800, Note_on_c, 0, 55, 88
5, 22848, Note_on_c, 0, 55, 0
5, 22848, Note_on_c, 0, 57, 88
5, 23040, Note_on_c, 0, 57, 0
5, 23040, Note_on_c, 0, 57, 88
5, 23088, Note_on_c, 0, 57, 0
5, 23088, Note_on_c, 0, 54, 88
5, 23136, Note_on_c, 0, 54, 0
5, 23136, Note_on_c, 0, 55, 88
5, 23232, Note_on_c, 0, 55, 0
5, 23232, Note_on_c, 0, 50, 88
5, 23424, Note_on_c, 0, 50, 0
5, 23424, Note_on_c, 0, 45, 88
5, 23616, Note_on_c, 0, 45, 0
5, 23616, Note_on_c, 0, 46, 88
5, 23808, Note_on_c, 0, 46, 0
5, 23808, Note_on_c, 0, 47, 88
5, 24000, Note_on_c, 0, 47, 0
5, 24000, Note_on_c, 0, 48, 88
5, 24192, Note_on_c, 0, 48, 0
5, 24192, Note_on_c, 0, 49, 88
5, 24384, Note_on_c, 0, 49, 0
5, 24384, Note_on_c, 0, 50, 88
5, 24480, Note_on_c, 0, 50, 0
5, 24480, Note_on_c, 0, 50, 88
5, 24576, Note_on_c, 0, 50, 0
5, 24576, Note_on_c, 0, 45, 88
5, 24672, Note_on_c, 0, 45, 0
5, 24768, Note_on_c, 0, 57, 88
5, 24864, Note_on_c, 0, 57, 0
5, 24864, Note_on_c, 0, 62, 88
5, 24960, Note_on_c, 0, 62, 0
5, 24960, Note_on_c, 0, 62, 88
5, 25008, Note_on_c, 0, 62, 0
5, 25008, Note_on_c, 0, 60, 88
5, 25056, Note_on_c, 0, 60, 0
5, 25056, Note_on_c, 0, 58, 88
5, 25200, Note_on_c, 0, 58, 0
5, 25200, Note_on_c, 0, 57, 88
5, 25248, Note_on_c, 0, 57, 0
5, 25248, Note_on_c, 0, 55, 88
5, 25344, Note_on_c, 0, 55, 0
5, 25344, Note_on_c, 0, 60, 88
5, 25488, Note_on_c, 0, 60, 0
5, 25488, Note_on_c, 0, 58, 88
5, 25536, Note_on_c, 0, 58, 0
5, 25536, Note_on_c, 0, 57, 88
5, 25680, Note_on_c, 0, 57, 0
5, 25680, Note_on_c, 0, 55, 88
5, 25728, Note_on_c, 0, 55, 0
5, 25728, Note_on_c, 0, 53, 88
5, 25824, Note_on_c, 0, 53, 0
5, 25824, Note_on_c, 0, 58, 88
5, 25872, Note_on_c, 0, 58, 0
5, 25872, Note_on_c, 0, 57, 88
5, 25920, Note_on_c, 0, 57, 0
5, 25920, Note_on_c, 0, 55, 88
5, 26016, Note_on_c, 0, 55, 0
5, 26016, Note_on_c, 0, 60, 88
5, 26064, Note_on_c, 0, 60, 0
5, 26064, Note_on_c, 0, 58, 88
5, 26112, Note_on_c, 0, 58, 0
5, 26112, Note_on_c, 0, 57, 88
5, 26304, Note_on_c, 0, 57, 0
5, 26304, Note_on_c, 0, 55, 88
5, 26496, Note_on_c, 0, 55, 0
5, 26496, Note_on_c, 0, 50, 88
5, 26688, Note_on_c, 0, 50, 0
5, 26736, Note_on_c, 0, 67, 88
5, 26784, Note_on_c, 0, 67, 0
5, 26784, Note_on_c, 0, 65, 88
5, 26832, Note_on_c, 0, 65, 0
5, 26832, Note_on_c, 0, 64, 88
5, 26880, Note_on_c, 0, 64, 0
5, 26880, Note_on_c, 0, 62, 88
5, 27168, Note_on_c, 0, 62, 0
5, 27168, Note_on_c, 0, 61, 88
5, 27264, Note_on_c, 0, 61, 0
5, 27264, Note_on_c, 0, 62, 88
5, 27312, Note_on_c, 0, 62, 0
5, 27312, Note_on_c, 0, 55, 88
5, 27360, Note_on_c, 0, 55, 0
5, 27360, Note_on_c, 0, 57, 88
5, 27408, Note_on_c, 0, 57, 0
5, 27408, Note_on_c, 0, 58, 88
5, 27456, Note_on_c, 0, 58, 0
5, 27456, Note_on_c, 0, 60, 88
5, 27504, Note_on_c, 0, 60, 0
5, 27504, Note_on_c, 0, 48, 88
5, 27552, Note_on_c, 0, 48, 0
5, 27552, Note_on_c, 0, 50, 88
5, 27600, Note_on_c, 0, 50, 0
5, 27600, Note_on_c, 0, 52, 88
5, 27648, Note_on_c, 0, 52, 0
5, 27648, Note_on_c, 0, 53, 88
5, 27696, Note_on_c, 0, 53, 0
5, 27696, Note_on_c, 0, 55, 88
5, 27744, Note_on_c, 0, 55, 0
5, 27744, Note_on_c, 0, 57, 88
5, 27792, Note_on_c, 0, 57, 0
5, 27792, Note_on_c, 0, 53, 88
5, 27840, Note_on_c, 0, 53, 0
5, 27840, Note_on_c, 0, 58, 88
5, 27936, Note_on_c, 0, 58, 0
5, 27936, Note_on_c, 0, 57, 88
5, 27984, Note_on_c, 0, 57, 0
5, 27984, Note_on_c, 0, 55, 88
5, 28032, Note_on_c, 0, 55, 0
5, 28032, Note_on_c, 0, 54, 88
5, 28128, Note_on_c, 0, 54, 0
5, 28128, Note_on_c, 0, 57, 88
5, 28224, Note_on_c, 0, 57, 0
5, 28224, Note_on_c, 0, 58, 88
5, 28272, Note_on_c, 0, 58, 0
5, 28272, Note_on_c, 0, 45, 88
5, 28320, Note_on_c, 0, 45, 0
5, 28320, Note_on_c, 0, 46, 88
5, 28368, Note_on_c, 0, 46, 0
5, 28368, Note_on_c, 0, 48, 88
5, 28416, Note_on_c, 0, 48, 0
5, 28416, Note_on_c, 0, 50, 88
5, 28464, Note_on_c, 0, 50, 0
5, 28464, Note_on_c, 0, 52, 88
5, 28512, Note_on_c, 0, 52, 0
5, 28512, Note_on_c, 0, 53, 88
5, 28560, Note_on_c, 0, 53, 0
5, 28560, Note_on_c, 0, 50, 88
5, 28608, Note_on_c, 0, 50, 0
5, 28608, Note_on_c, 0, 55, 88
5, 28656, Note_on_c, 0, 55, 0
5, 28656, Note_on_c, 0, 53, 88
5, 28704, Note_on_c, 0, 53, 0
5, 28704, Note_on_c, 0, 52, 88
5, 28752, Note_on_c, 0, 52, 0
5, 28752, Note_on_c, 0, 55, 88
5, 28800, Note_on_c, 0, 55, 0
5, 28800, Note_on_c, 0, 49, 88
5, 28848, Note_on_c, 0, 49, 0
5, 28848, Note_on_c, 0, 50, 88
5, 28896, Note_on_c, 0, 50, 0
5, 28896, Note_on_c, 0, 52, 88
5, 28944, Note_on_c, 0, 52, 0
5, 28944, Note_on_c, 0, 49, 88
5, 28992, Note_on_c, 0, 49, 0
5, 28992, Note_on_c, 0, 50, 88
5, 29040, Note_on_c, 0, 50, 0
5, 29040, Note_on_c, 0, 48, 88
5, 29088, Note_on_c, 0, 48, 0
5, 29088, Note_on_c, 0, 46, 88
5, 29136, Note_on_c, 0, 46, 0
5, 29136, Note_on_c, 0, 50, 88
5, 29184, Note_on_c, 0, 50, 0
5, 29184, Note_on_c, 0, 44, 88
5, 29232, Note_on_c, 0, 44, 0
5, 29232, Note_on_c, 0, 45, 88
5, 29280, Note_on_c, 0, 45, 0
5, 29280, Note_on_c, 0, 47, 88
5, 29328, Note_on_c, 0, 47, 0
5, 29328, Note_on_c, 0, 44, 88
5, 29376, Note_on_c, 0, 44, 0
5, 29376, Note_on_c, 0, 45, 88
5, 29424, Note_on_c, 0, 45, 0
5, 29424, Note_on_c, 0, 55, 88
5, 29472, Note_on_c, 0, 55, 0
5, 29472, Note_on_c, 0, 53, 88
5, 29520, Note_on_c, 0, 53, 0
5, 29520, Note_on_c, 0, 52, 88
5, 29568, Note_on_c, 0, 52, 0
5, 29568, Note_on_c, 0, 50, 88
5, 29760, Note_on_c, 0, 50, 0
5, 29760, Note_on_c, 0, 50, 88
5, 29808, Note_on_c, 0, 50, 0
5, 29808, Note_on_c, 0, 48, 88
5, 29856, Note_on_c, 0, 48, 0
5, 29856, Note_on_c, 0, 46, 88
5, 29952, Note_on_c, 0, 46, 0
5, 29952, Note_on_c, 0, 45, 88
5, 30000, Note_on_c, 0, 45, 0
5, 30000, Note_on_c, 0, 46, 88
5, 30048, Note_on_c, 0, 46, 0
5, 30048, Note_on_c, 0, 45, 88
5, 30096, Note_on_c, 0, 45, 0
5, 30096, Note_on_c, 0, 43, 88
5, 30144, Note_on_c, 0, 43, 0
5, 30144, Note_on_c, 0, 41, 88
5, 30240, Note_on_c, 0, 41, 0
5, 30240, Note_on_c, 0, 46, 88
5, 30336, Note_on_c, 0, 46, 0
5, 30336, Note_on_c, 0, 45, 88
5, 30624, Note_on_c, 0, 45, 0
5, 30624, Note_on_c, 0, 47, 88
5, 30672, Note_on_c, 0, 47, 0
5, 30672, Note_on_c, 0, 49, 88
5, 30720, Note_on_c, 0, 49, 0
5, 30720, Note_on_c, 0, 50, 88
5, 30912, Note_on_c, 0, 50, 0
5, 30912, Note_on_c, 0, 50, 88
5, 30960, Note_on_c, 0, 50, 0
5, 30960, Note_on_c, 0, 49, 88
5, 31008, Note_on_c, 0, 49, 0
5, 31008, Note_on_c, 0, 50, 88
5, 31056, Note_on_c, 0, 50, 0
5, 31056, Note_on_c, 0, 52, 88
5, 31104, Note_on_c, 0, 52, 0
5, 31104, Note_on_c, 0, 53, 88
5, 31200, Note_on_c, 0, 53, 0
5, 31200, Note_on_c, 0, 54, 88
5, 31296, Note_on_c, 0, 54, 0
5, 31296, Note_on_c, 0, 55, 88
5, 31488, Note_on_c, 0, 55, 0
5, 31488, Note_on_c, 0, 55, 88
5, 31536, Note_on_c, 0, 55, 0
5, 31536, Note_on_c, 0, 54, 88
5, 31584, Note_on_c, 0, 54, 0
5, 31584, Note_on_c, 0, 55, 88
5, 31632, Note_on_c, 0, 55, 0
5, 31632, Note_on_c, 0, 57, 88
5, 31680, Note_on_c, 0, 57, 0
5, 31680, Note_on_c, 0, 58, 88
5, 31824, Note_on_c, 0, 58, 0
5, 31824, Note_on_c, 0, 59, 88
5, 31872, Note_on_c, 0, 59, 0
5, 31872, Note_on_c, 0, 61, 88
5, 31920, Note_on_c, 0, 61, 0
5, 31920, Note_on_c, 0, 57, 88
5, 31968, Note_on_c, 0, 57, 0
5, 31968, Note_on_c, 0, 62, 88
5, 32016, Note_on_c, 0, 62, 0
5, 32016, Note_on_c, 0, 60, 88
5, 32064, Note_on_c, 0, 60, 0
5, 32064, Note_on_c, 0, 59, 88
5, 32112, Note_on_c, 0, 59, 0
5, 32112, Note_on_c, 0, 57, 88
5, 32160, Note_on_c, 0, 57, 0
5, 32160, Note_on_c, 0, 58, 88
5, 32256, Note_on_c, 0, 58, 0
5, 32256, Note_on_c, 0, 58, 88
5, 32304, Note_on_c, 0, 58, 0
5, 32304, Note_on_c, 0, 57, 88
5, 32400, Note_on_c, 0, 57, 0
5, 32400, Note_on_c, 0, 56, 88
5, 32448, Note_on_c, 0, 56, 0
5, 32448, Note_on_c, 0, 57, 88
5, 32544, Note_on_c, 0, 57, 0
5, 32544, Note_on_c, 0, 45, 88
5, 32640, Note_on_c, 0, 45, 0
5, 32640, Note_on_c, 0, 50, 88
5, 32688, Note_on_c, 0, 50, 0
5, 32688, Note_on_c, 0, 50, 88
5, 32736, Note_on_c, 0, 50, 0
5, 32736, Note_on_c, 0, 50, 88
5, 32832, Note_on_c, 0, 50, 0
5, 32832, Note_on_c, 0, 50, 88
5, 32976, Note_on_c, 0, 50, 0
5, 32976, Note_on_c, 0, 52, 88
5, 33024, Note_on_c, 0, 52, 0
5, 33024, Note_on_c, 0, 50, 88
5, 33216, Note_on_c, 0, 50, 0
5, 33216, Note_on_c, 0, 57, 88
5, 33408, Note_on_c, 0, 57, 0
5, 33408, Note_on_c, 0, 50, 88
5, 33600, Note_on_c, 0, 50, 0
5, 33600, Note_on_c, 0, 57, 88
5, 33744, Note_on_c, 0, 57, 0
5, 33744, Note_on_c, 0, 55, 88
5, 33792, Note_on_c, 0, 55, 0
5, 33792, Note_on_c, 0, 54, 88
5, 33840, Note_on_c, 0, 54, 0
5, 33840, Note_on_c, 0, 48, 88
5, 33888, Note_on_c, 0, 48, 0
5, 33888, Note_on_c, 0, 46, 88
5, 33936, Note_on_c, 0, 46, 0
5, 33936, Note_on_c, 0, 45, 88
5, 33984, Note_on_c, 0, 45, 0
5, 33984, Note_on_c, 0, 43, 88
5, 34128, Note_on_c, 0, 43, 0
5, 34128, Note_on_c, 0, 43, 88
5, 34176, Note_on_c, 0, 43, 0
5, 34176, Note_on_c, 0, 38, 88
5, 34560, Note_on_c, 0, 38, 0
5, 34560, End_track
0, 0, End_of_file
