0, 0, Header, 1, 5, 96
1, 0, Start_track
1, 0, Key_signature, -1, "major"
1, 0, Time_signature, 4, 2, 24, 8
1, 0, Tempo, 399802
1, 55200, Tempo, 468519
1, 55296, Tempo, 535450
1, 55488, Tempo, 399802
1, 56304, Tempo, 468519
1, 56448, Tempo, 399802
1, 59424, Tempo, 468519
1, 59904, Tempo, 535450
1, 60240, Tempo, 799605
1, 60672, End_track
2, 0, Start_track
2, 0, Program_c, 0, 5
2, 768, Note_on_c, 0, 81, 88
2, 960, Note_on_c, 0, 81, 0
2, 960, Note_on_c, 0, 74, 88
2, 1104, Note_on_c, 0, 74, 0
2, 1104, Note_on_c, 0, 76, 88
2, 1152, Note_on_c, 0, 76, 0
2, 1152, Note_on_c, 0, 77, 88
2, 1296, Note_on_c, 0, 77, 0
2, 1296, Note_on_c, 0, 79, 88
2, 1344, Note_on_c, 0, 79, 0
2, 1344, Note_on_c, 0, 81, 88
2, 1536, Note_on_c, 0, 81, 0
2, 1536, Note_on_c, 0, 82, 88
2, 1728, Note_on_c, 0, 82, 0
2, 1728, Note_on_c, 0, 81, 88
2, 1872, Note_on_c, 0, 81, 0
2, 1872, Note_on_c, 0, 79, 88
2, 1920, Note_on_c, 0, 79, 0
2, 1920, Note_on_c, 0, 77, 88
2, 2112, Note_on_c, 0, 77, 0
2, 2112, Note_on_c, 0, 77, 88
2, 2160, Note_on_c, 0, 77, 0
2, 2160, Note_on_c, 0, 76, 88
2, 2208, Note_on_c, 0, 76, 0
2, 2208, Note_on_c, 0, 77, 88
2, 2256, Note_on_c, 0, 77, 0
2, 2256, Note_on_c, 0, 79, 88
2, 2304, Note_on_c, 0, 79, 0
2, 2304, Note_on_c, 0, 81, 88
2, 2448, Note_on_c, 0, 81, 0
2, 2448, Note_on_c, 0, 79, 72
2, 2496, Note_on_c, 0, 79, 0
2, 2496, Note_on_c, 0, 77, 72
2, 2544, Note_on_c, 0, 77, 0
2, 2544, Note_on_c, 0, 76, 72
2, 2592, Note_on_c, 0, 76, 0
2, 2592, Note_on_c, 0, 74, 72
2, 2640, Note_on_c, 0, 74, 0
2, 2640, Note_on_c, 0, 72, 72
2, 2688, Note_on_c, 0, 72, 0
2, 2688, Note_on_c, 0, 72, 72
2, 2712, Note_on_c, 0, 72, 0
2, 2712, Note_on_c, 0, 70, 72
2, 2736, Note_on_c, 0, 70, 0
2, 2736, Note_on_c, 0, 72, 72
2, 2760, Note_on_c, 0, 72, 0
2, 2760, Note_on_c, 0, 70, 72
2, 2784, Note_on_c, 0, 70, 0
2, 2784, Note_on_c, 0, 72, 72
2, 2808, Note_on_c, 0, 72, 0
2, 2808, Note_on_c, 0, 70, 72
2, 2832, Note_on_c, 0, 70, 0
2, 2832, Note_on_c, 0, 72, 72
2, 2856, Note_on_c, 0, 72, 0
2, 2856, Note_on_c, 0, 70, 72
2, 2880, Note_on_c, 0, 70, 0
2, 2880, Note_on_c, 0, 69, 72
2, 3072, Note_on_c, 0, 69, 0
2, 3072, Note_on_c, 0, 69, 72
2, 3216, Note_on_c, 0, 69, 0
2, 3216, Note_on_c, 0, 71, 72
2, 3264, Note_on_c, 0, 71, 0
2, 3264, Note_on_c, 0, 72, 72
2, 3456, Note_on_c, 0, 72, 0
2, 3456, Note_on_c, 0, 72, 72
2, 3600, Note_on_c, 0, 72, 0
2, 3600, Note_on_c, 0, 71, 72
2, 3648, Note_on_c, 0, 71, 0
2, 3648, Note_on_c, 0, 73, 72
2, 3792, Note_on_c, 0, 73, 0
2, 3792, Note_on_c, 0, 74, 72
2, 3840, Note_on_c, 0, 74, 0
2, 3840, Note_on_c, 0, 76, 72
2, 4032, Note_on_c, 0, 76, 0
2, 4032, Note_on_c, 0, 76, 72
2, 4080, Note_on_c, 0, 76, 0
2, 4080, Note_on_c, 0, 77, 72
2, 4128, Note_on_c, 0, 77, 0
2, 4128, Note_on_c, 0, 76, 72
2, 4176, Note_on_c, 0, 76, 0
2, 4176, Note_on_c, 0, 74, 72
2, 4224, Note_on_c, 0, 74, 0
2, 4224, Note_on_c, 0, 73, 72
2, 4416, Note_on_c, 0, 73, 0
2, 4416, Note_on_c, 0, 74, 72
2, 4560, Note_on_c, 0, 74, 0
2, 4560, Note_on_c, 0, 76, 72
2, 4608, Note_on_c, 0, 76, 0
2, 4608, Note_on_c, 0, 77, 72
2, 4752, Note_on_c, 0, 77, 0
2, 4752, Note_on_c, 0, 76, 72
2, 4800, Note_on_c, 0, 76, 0
2, 4800, Note_on_c, 0, 77, 72
2, 4944, Note_on_c, 0, 77, 0
2, 4944, Note_on_c, 0, 74, 72
2, 4992, Note_on_c, 0, 74, 0
2, 4992, Note_on_c, 0, 76, 72
2, 5376, Note_on_c, 0, 76, 0
2, 5376, Note_on_c, 0, 76, 72
2, 5520, Note_on_c, 0, 76, 0
2, 5520, Note_on_c, 0, 74, 72
2, 5568, Note_on_c, 0, 74, 0
2, 5568, Note_on_c, 0, 72, 72
2, 5712, Note_on_c, 0, 72, 0
2, 5712, Note_on_c, 0, 71, 72
2, 5760, Note_on_c, 0, 71, 0
2, 5760, Note_on_c, 0, 69, 72
2, 5904, Note_on_c, 0, 69, 0
2, 5904, Note_on_c, 0, 81, 72
2, 5952, Note_on_c, 0, 81, 0
2, 5952, Note_on_c, 0, 79, 72
2, 6096, Note_on_c, 0, 79, 0
2, 6096, Note_on_c, 0, 77, 72
2, 6144, Note_on_c, 0, 77, 0
2, 6144, Note_on_c, 0, 76, 72
2, 6336, Note_on_c, 0, 76, 0
2, 7296, Note_on_c, 0, 69, 88
2, 7488, Note_on_c, 0, 69, 0
2, 7488, Note_on_c, 0, 76, 88
2, 7632, Note_on_c, 0, 76, 0
2, 7632, Note_on_c, 0, 74, 88
2, 7680, Note_on_c, 0, 74, 0
2, 7680, Note_on_c, 0, 72, 88
2, 7824, Note_on_c, 0, 72, 0
2, 7824, Note_on_c, 0, 71, 88
2, 7872, Note_on_c, 0, 71, 0
2, 7872, Note_on_c, 0, 69, 88
2, 8064, Note_on_c, 0, 69, 0
2, 8064, Note_on_c, 0, 68, 88
2, 8256, Note_on_c, 0, 68, 0
2, 8256, Note_on_c, 0, 69, 88
2, 8400, Note_on_c, 0, 69, 0
2, 8400, Note_on_c, 0, 71, 88
2, 8448, Note_on_c, 0, 71, 0
2, 8448, Note_on_c, 0, 72, 88
2, 8640, Note_on_c, 0, 72, 0
2, 8640, Note_on_c, 0, 72, 88
2, 8688, Note_on_c, 0, 72, 0
2, 8688, Note_on_c, 0, 74, 88
2, 8736, Note_on_c, 0, 74, 0
2, 8736, Note_on_c, 0, 72, 88
2, 8784, Note_on_c, 0, 72, 0
2, 8784, Note_on_c, 0, 71, 88
2, 8832, Note_on_c, 0, 71, 0
2, 8832, Note_on_c, 0, 69, 88
2, 9216, Note_on_c, 0, 69, 0
2, 9216, Note_on_c, 0, 69, 88
2, 9504, Note_on_c, 0, 69, 0
2, 9504, Note_on_c, 0, 69, 88
2, 9528, Note_on_c, 0, 69, 0
2, 9528, Note_on_c, 0, 69, 88
2, 9552, Note_on_c, 0, 69, 0
2, 9552, Note_on_c, 0, 70, 88
2, 9576, Note_on_c, 0, 70, 0
2, 9576, Note_on_c, 0, 72, 88
2, 9600, Note_on_c, 0, 72, 0
2, 9600, Note_on_c, 0, 74, 72
2, 9984, Note_on_c, 0, 74, 0
2, 9984, Note_on_c, 0, 74, 72
2, 10272, Note_on_c, 0, 74, 0
2, 10272, Note_on_c, 0, 74, 72
2, 10296, Note_on_c, 0, 74, 0
2, 10296, Note_on_c, 0, 74, 72
2, 10320, Note_on_c, 0, 74, 0
2, 10320, Note_on_c, 0, 76, 72
2, 10344, Note_on_c, 0, 76, 0
2, 10344, Note_on_c, 0, 77, 72
2, 10368, Note_on_c, 0, 77, 0
2, 10368, Note_on_c, 0, 79, 72
2, 10752, Note_on_c, 0, 79, 0
2, 10752, Note_on_c, 0, 79, 72
2, 10896, Note_on_c, 0, 79, 0
2, 10896, Note_on_c, 0, 77, 72
2, 10920, Note_on_c, 0, 77, 0
2, 10920, Note_on_c, 0, 76, 72
2, 10944, Note_on_c, 0, 76, 0
2, 10944, Note_on_c, 0, 77, 72
2, 11088, Note_on_c, 0, 77, 0
2, 11088, Note_on_c, 0, 79, 72
2, 11136, Note_on_c, 0, 79, 0
2, 11136, Note_on_c, 0, 81, 72
2, 11280, Note_on_c, 0, 81, 0
2, 11280, Note_on_c, 0, 79, 72
2, 11304, Note_on_c, 0, 79, 0
2, 11304, Note_on_c, 0, 77, 72
2, 11328, Note_on_c, 0, 77, 0
2, 11328, Note_on_c, 0, 76, 72
2, 11472, Note_on_c, 0, 76, 0
2, 11472, Note_on_c, 0, 78, 72
2, 11520, Note_on_c, 0, 78, 0
2, 11520, Note_on_c, 0, 79, 72
2, 11712, Note_on_c, 0, 79, 0
2, 11904, Note_on_c, 0, 81, 88
2, 12096, Note_on_c, 0, 81, 0
2, 12096, Note_on_c, 0, 74, 88
2, 12240, Note_on_c, 0, 74, 0
2, 12240, Note_on_c, 0, 76, 88
2, 12288, Note_on_c, 0, 76, 0
2, 12288, Note_on_c, 0, 77, 88
2, 12432, Note_on_c, 0, 77, 0
2, 12432, Note_on_c, 0, 79, 88
2, 12480, Note_on_c, 0, 79, 0
2, 12480, Note_on_c, 0, 81, 88
2, 12672, Note_on_c, 0, 81, 0
2, 12672, Note_on_c, 0, 82, 88
2, 12864, Note_on_c, 0, 82, 0
2, 12864, Note_on_c, 0, 81, 88
2, 13008, Note_on_c, 0, 81, 0
2, 13008, Note_on_c, 0, 79, 88
2, 13056, Note_on_c, 0, 79, 0
2, 13056, Note_on_c, 0, 77, 88
2, 13248, Note_on_c, 0, 77, 0
2, 13248, Note_on_c, 0, 77, 88
2, 13296, Note_on_c, 0, 77, 0
2, 13296, Note_on_c, 0, 76, 88
2, 13344, Note_on_c, 0, 76, 0
2, 13344, Note_on_c, 0, 77, 88
2, 13392, Note_on_c, 0, 77, 0
2, 13392, Note_on_c, 0, 79, 88
2, 13440, Note_on_c, 0, 79, 0
2, 13440, Note_on_c, 0, 81, 88
2, 13632, Note_on_c, 0, 81, 0
2, 15888, Note_on_c, 0, 74, 72
2, 15936, Note_on_c, 0, 74, 0
2, 15936, Note_on_c, 0, 72, 72
2, 16080, Note_on_c, 0, 72, 0
2, 16080, Note_on_c, 0, 70, 72
2, 16128, Note_on_c, 0, 70, 0
2, 16128, Note_on_c, 0, 69, 72
2, 16272, Note_on_c, 0, 69, 0
2, 16272, Note_on_c, 0, 70, 72
2, 16320, Note_on_c, 0, 70, 0
2, 16320, Note_on_c, 0, 72, 72
2, 16512, Note_on_c, 0, 72, 0
2, 16512, Note_on_c, 0, 72, 72
2, 16608, Note_on_c, 0, 72, 0
2, 16608, Note_on_c, 0, 72, 72
2, 16632, Note_on_c, 0, 72, 0
2, 16632, Note_on_c, 0, 65, 72
2, 16656, Note_on_c, 0, 65, 0
2, 16656, Note_on_c, 0, 67, 72
2, 16680, Note_on_c, 0, 67, 0
2, 16680, Note_on_c, 0, 69, 72
2, 16704, Note_on_c, 0, 69, 0
2, 16704, Note_on_c, 0, 70, 72
2, 16848, Note_on_c, 0, 70, 0
2, 16848, Note_on_c, 0, 70, 72
2, 16896, Note_on_c, 0, 70, 0
2, 16896, Note_on_c, 0, 70, 72
2, 17040, Note_on_c, 0, 70, 0
2, 17040, Note_on_c, 0, 69, 72
2, 17064, Note_on_c, 0, 69, 0
2, 17064, Note_on_c, 0, 67, 72
2, 17088, Note_on_c, 0, 67, 0
2, 17088, Note_on_c, 0, 69, 72
2, 17232, Note_on_c, 0, 69, 0
2, 17232, Note_on_c, 0, 70, 72
2, 17280, Note_on_c, 0, 70, 0
2, 17280, Note_on_c, 0, 72, 72
2, 17424, Note_on_c, 0, 72, 0
2, 17424, Note_on_c, 0, 72, 72
2, 17472, Note_on_c, 0, 72, 0
2, 17472, Note_on_c, 0, 74, 72
2, 17616, Note_on_c, 0, 74, 0
2, 17616, Note_on_c, 0, 76, 72
2, 17664, Note_on_c, 0, 76, 0
2, 17664, Note_on_c, 0, 77, 72
2, 17808, Note_on_c, 0, 77, 0
2, 17808, Note_on_c, 0, 76, 72
2, 17856, Note_on_c, 0, 76, 0
2, 17856, Note_on_c, 0, 77, 72
2, 18000, Note_on_c, 0, 77, 0
2, 18000, Note_on_c, 0, 79, 72
2, 18048, Note_on_c, 0, 79, 0
2, 18048, Note_on_c, 0, 76, 72
2, 18192, Note_on_c, 0, 76, 0
2, 18192, Note_on_c, 0, 74, 72
2, 18240, Note_on_c, 0, 74, 0
2, 18240, Note_on_c, 0, 76, 72
2, 18432, Note_on_c, 0, 76, 0
2, 18432, Note_on_c, 0, 76, 72
2, 18576, Note_on_c, 0, 76, 0
2, 18576, Note_on_c, 0, 74, 72
2, 18600, Note_on_c, 0, 74, 0
2, 18600, Note_on_c, 0, 73, 72
2, 18624, Note_on_c, 0, 73, 0
2, 18624, Note_on_c, 0, 74, 72
2, 18720, Note_on_c, 0, 74, 0
2, 18720, Note_on_c, 0, 74, 72
2, 18744, Note_on_c, 0, 74, 0
2, 18744, Note_on_c, 0, 73, 72
2, 18768, Note_on_c, 0, 73, 0
2, 18768, Note_on_c, 0, 70, 72
2, 18792, Note_on_c, 0, 70, 0
2, 18792, Note_on_c, 0, 69, 72
2, 18816, Note_on_c, 0, 69, 0
2, 18816, Note_on_c, 0, 67, 72
2, 18960, Note_on_c, 0, 67, 0
2, 18960, Note_on_c, 0, 70, 72
2, 19008, Note_on_c, 0, 70, 0
2, 19008, Note_on_c, 0, 69, 72
2, 19152, Note_on_c, 0, 69, 0
2, 19152, Note_on_c, 0, 67, 72
2, 19200, Note_on_c, 0, 67, 0
2, 19200, Note_on_c, 0, 65, 72
2, 19392, Note_on_c, 0, 65, 0
2, 19392, Note_on_c, 0, 65, 72
2, 19440, Note_on_c, 0, 65, 0
2, 19440, Note_on_c, 0, 64, 72
2, 19488, Note_on_c, 0, 64, 0
2, 19488, Note_on_c, 0, 62, 72
2, 19536, Note_on_c, 0, 62, 0
2, 19536, Note_on_c, 0, 61, 72
2, 19584, Note_on_c, 0, 61, 0
2, 19584, Note_on_c, 0, 62, 72
2, 19776, Note_on_c, 0, 62, 0
2, 19920, Note_on_c, 0, 74, 72
2, 19968, Note_on_c, 0, 74, 0
2, 19968, Note_on_c, 0, 67, 72
2, 20160, Note_on_c, 0, 67, 0
2, 20160, Note_on_c, 0, 67, 72
2, 20208, Note_on_c, 0, 67, 0
2, 20208, Note_on_c, 0, 70, 72
2, 20256, Note_on_c, 0, 70, 0
2, 20256, Note_on_c, 0, 69, 72
2, 20304, Note_on_c, 0, 69, 0
2, 20304, Note_on_c, 0, 67, 72
2, 20352, Note_on_c, 0, 67, 0
2, 20352, Note_on_c, 0, 65, 72
2, 20400, Note_on_c, 0, 65, 0
2, 20400, Note_on_c, 0, 69, 72
2, 20448, Note_on_c, 0, 69, 0
2, 20448, Note_on_c, 0, 71, 72
2, 20496, Note_on_c, 0, 71, 0
2, 20496, Note_on_c, 0, 73, 72
2, 20544, Note_on_c, 0, 73, 0
2, 20544, Note_on_c, 0, 74, 72
2, 20736, Note_on_c, 0, 74, 0
2, 20784, Note_on_c, 0, 72, 72
2, 20832, Note_on_c, 0, 72, 0
2, 20832, Note_on_c, 0, 74, 72
2, 20880, Note_on_c, 0, 74, 0
2, 20880, Note_on_c, 0, 76, 72
2, 20928, Note_on_c, 0, 76, 0
2, 20928, Note_on_c, 0, 77, 72
2, 21072, Note_on_c, 0, 77, 0
2, 21072, Note_on_c, 0, 76, 72
2, 21096, Note_on_c, 0, 76, 0
2, 21096, Note_on_c, 0, 74, 72
2, 21120, Note_on_c, 0, 74, 0
2, 21120, Note_on_c, 0, 72, 72
2, 21504, Note_on_c, 0, 72, 0
2, 21504, Note_on_c, 0, 72, 72
2, 21648, Note_on_c, 0, 72, 0
2, 21648, Note_on_c, 0, 69, 72
2, 21696, Note_on_c, 0, 69, 0
2, 21696, Note_on_c, 0, 74, 72
2, 21840, Note_on_c, 0, 74, 0
2, 21840, Note_on_c, 0, 72, 72
2, 21888, Note_on_c, 0, 72, 0
2, 21888, Note_on_c, 0, 70, 72
2, 22272, Note_on_c, 0, 70, 0
2, 22272, Note_on_c, 0, 70, 72
2, 22416, Note_on_c, 0, 70, 0
2, 22416, Note_on_c, 0, 67, 72
2, 22464, Note_on_c, 0, 67, 0
2, 22464, Note_on_c, 0, 72, 72
2, 22608, Note_on_c, 0, 72, 0
2, 22608, Note_on_c, 0, 70, 72
2, 22656, Note_on_c, 0, 70, 0
2, 22656, Note_on_c, 0, 69, 72
2, 23040, Note_on_c, 0, 69, 0
2, 23040, Note_on_c, 0, 69, 72
2, 23184, Note_on_c, 0, 69, 0
2, 23184, Note_on_c, 0, 67, 72
2, 23208, Note_on_c, 0, 67, 0
2, 23208, Note_on_c, 0, 65, 72
2, 23232, Note_on_c, 0, 65, 0
2, 23232, Note_on_c, 0, 67, 72
2, 23376, Note_on_c, 0, 67, 0
2, 23376, Note_on_c, 0, 64, 72
2, 23424, Note_on_c, 0, 64, 0
2, 23424, Note_on_c, 0, 65, 72
2, 23568, Note_on_c, 0, 65, 0
2, 23568, Note_on_c, 0, 67, 72
2, 23616, Note_on_c, 0, 67, 0
2, 23616, Note_on_c, 0, 64, 72
2, 23808, Note_on_c, 0, 64, 0
2, 23808, Note_on_c, 0, 64, 72
2, 23952, Note_on_c, 0, 64, 0
2, 23952, Note_on_c, 0, 62, 72
2, 23976, Note_on_c, 0, 62, 0
2, 23976, Note_on_c, 0, 61, 72
2, 24000, Note_on_c, 0, 61, 0
2, 24000, Note_on_c, 0, 62, 72
2, 24192, Note_on_c, 0, 62, 0
2, 24192, Note_on_c, 0, 62, 72
2, 24336, Note_on_c, 0, 62, 0
2, 24336, Note_on_c, 0, 64, 72
2, 24384, Note_on_c, 0, 64, 0
2, 24384, Note_on_c, 0, 65, 72
2, 24528, Note_on_c, 0, 65, 0
2, 24528, Note_on_c, 0, 62, 72
2, 24576, Note_on_c, 0, 62, 0
2, 24576, Note_on_c, 0, 67, 72
2, 24672, Note_on_c, 0, 67, 0
2, 24672, Note_on_c, 0, 67, 72
2, 24696, Note_on_c, 0, 67, 0
2, 24696, Note_on_c, 0, 76, 72
2, 24720, Note_on_c, 0, 76, 0
2, 24720, Note_on_c, 0, 77, 72
2, 24744, Note_on_c, 0, 77, 0
2, 24744, Note_on_c, 0, 79, 72
2, 24768, Note_on_c, 0, 79, 0
2, 24768, Note_on_c, 0, 77, 72
2, 24912, Note_on_c, 0, 77, 0
2, 24912, Note_on_c, 0, 76, 72
2, 24960, Note_on_c, 0, 76, 0
2, 24960, Note_on_c, 0, 74, 72
2, 25104, Note_on_c, 0, 74, 0
2, 25104, Note_on_c, 0, 72, 72
2, 25152, Note_on_c, 0, 72, 0
2, 25152, Note_on_c, 0, 70, 72
2, 25344, Note_on_c, 0, 70, 0
2, 25344, Note_on_c, 0, 69, 72
2, 25440, Note_on_c, 0, 69, 0
2, 26112, Note_on_c, 0, 74, 88
2, 26496, Note_on_c, 0, 74, 0
2, 26496, Note_on_c, 0, 67, 88
2, 26784, Note_on_c, 0, 67, 0
2, 26784, Note_on_c, 0, 69, 88
2, 26880, Note_on_c, 0, 69, 0
2, 26880, Note_on_c, 0, 70, 88
2, 27168, Note_on_c, 0, 70, 0
2, 27168, Note_on_c, 0, 72, 88
2, 27264, Note_on_c, 0, 72, 0
2, 27264, Note_on_c, 0, 74, 88
2, 27648, Note_on_c, 0, 74, 0
2, 27648, Note_on_c, 0, 75, 88
2, 28032, Note_on_c, 0, 75, 0
2, 28032, Note_on_c, 0, 74, 88
2, 28320, Note_on_c, 0, 74, 0
2, 28320, Note_on_c, 0, 72, 88
2, 28416, Note_on_c, 0, 72, 0
2, 28416, Note_on_c, 0, 70, 88
2, 28800, Note_on_c, 0, 70, 0
2, 28800, Note_on_c, 0, 70, 88
2, 28944, Note_on_c, 0, 70, 0
2, 28944, Note_on_c, 0, 69, 88
2, 28992, Note_on_c, 0, 69, 0
2, 28992, Note_on_c, 0, 70, 88
2, 29136, Note_on_c, 0, 70, 0
2, 29136, Note_on_c, 0, 72, 88
2, 29184, Note_on_c, 0, 72, 0
2, 29184, Note_on_c, 0, 74, 88
2, 29376, Note_on_c, 0, 74, 0
2, 29376, Note_on_c, 0, 74, 72
2, 29424, Note_on_c, 0, 74, 0
2, 29424, Note_on_c, 0, 75, 72
2, 29472, Note_on_c, 0, 75, 0
2, 29472, Note_on_c, 0, 74, 72
2, 29520, Note_on_c, 0, 74, 0
2, 29520, Note_on_c, 0, 72, 72
2, 29568, Note_on_c, 0, 72, 0
2, 29568, Note_on_c, 0, 70, 72
2, 29616, Note_on_c, 0, 70, 0
2, 29616, Note_on_c, 0, 74, 72
2, 29664, Note_on_c, 0, 74, 0
2, 29664, Note_on_c, 0, 75, 72
2, 29712, Note_on_c, 0, 75, 0
2, 29712, Note_on_c, 0, 77, 72
2, 29760, Note_on_c, 0, 77, 0
2, 29760, Note_on_c, 0, 79, 72
2, 29952, Note_on_c, 0, 79, 0
2, 29952, Note_on_c, 0, 79, 72
2, 30000, Note_on_c, 0, 79, 0
2, 30000, Note_on_c, 0, 80, 72
2, 30048, Note_on_c, 0, 80, 0
2, 30048, Note_on_c, 0, 79, 72
2, 30096, Note_on_c, 0, 79, 0
2, 30096, Note_on_c, 0, 77, 72
2, 30144, Note_on_c, 0, 77, 0
2, 30144, Note_on_c, 0, 75, 72
2, 30192, Note_on_c, 0, 75, 0
2, 30192, Note_on_c, 0, 74, 72
2, 30240, Note_on_c, 0, 74, 0
2, 30240, Note_on_c, 0, 72, 72
2, 30288, Note_on_c, 0, 72, 0
2, 30288, Note_on_c, 0, 70, 72
2, 30336, Note_on_c, 0, 70, 0
2, 30336, Note_on_c, 0, 70, 72
2, 30360, Note_on_c, 0, 70, 0
2, 30360, Note_on_c, 0, 69, 72
2, 30384, Note_on_c, 0, 69, 0
2, 30384, Note_on_c, 0, 70, 72
2, 30408, Note_on_c, 0, 70, 0
2, 30408, Note_on_c, 0, 69, 72
2, 30432, Note_on_c, 0, 69, 0
2, 30432, Note_on_c, 0, 70, 72
2, 30456, Note_on_c, 0, 70, 0
2, 30456, Note_on_c, 0, 69, 72
2, 30480, Note_on_c, 0, 69, 0
2, 30480, Note_on_c, 0, 67, 72
2, 30504, Note_on_c, 0, 67, 0
2, 30504, Note_on_c, 0, 65, 72
2, 30528, Note_on_c, 0, 65, 0
2, 30528, Note_on_c, 0, 70, 72
2, 30720, Note_on_c, 0, 70, 0
2, 30720, Note_on_c, 0, 70, 72
2, 30768, Note_on_c, 0, 70, 0
2, 30768, Note_on_c, 0, 69, 72
2, 30816, Note_on_c, 0, 69, 0
2, 30816, Note_on_c, 0, 67, 72
2, 30864, Note_on_c, 0, 67, 0
2, 30864, Note_on_c, 0, 69, 72
2, 30912, Note_on_c, 0, 69, 0
2, 30912, Note_on_c, 0, 70, 72
2, 30960, Note_on_c, 0, 70, 0
2, 30960, Note_on_c, 0, 72, 72
2, 31008, Note_on_c, 0, 72, 0
2, 31008, Note_on_c, 0, 74, 72
2, 31056, Note_on_c, 0, 74, 0
2, 31056, Note_on_c, 0, 76, 72
2, 31104, Note_on_c, 0, 76, 0
2, 31104, Note_on_c, 0, 77, 72
2, 31248, Note_on_c, 0, 77, 0
2, 31248, Note_on_c, 0, 75, 72
2, 31296, Note_on_c, 0, 75, 0
2, 31296, Note_on_c, 0, 74, 72
2, 31344, Note_on_c, 0, 74, 0
2, 31344, Note_on_c, 0, 72, 72
2, 31392, Note_on_c, 0, 72, 0
2, 31392, Note_on_c, 0, 70, 72
2, 31440, Note_on_c, 0, 70, 0
2, 31440, Note_on_c, 0, 69, 72
2, 31488, Note_on_c, 0, 69, 0
2, 31488, Note_on_c, 0, 70, 72
2, 31632, Note_on_c, 0, 70, 0
2, 31632, Note_on_c, 0, 72, 72
2, 31656, Note_on_c, 0, 72, 0
2, 31656, Note_on_c, 0, 74, 72
2, 31680, Note_on_c, 0, 74, 0
2, 31680, Note_on_c, 0, 67, 72
2, 31824, Note_on_c, 0, 67, 0
2, 31824, Note_on_c, 0, 79, 72
2, 31872, Note_on_c, 0, 79, 0
2, 31872, Note_on_c, 0, 70, 72
2, 31968, Note_on_c, 0, 70, 0
2, 31968, Note_on_c, 0, 70, 72
2, 31992, Note_on_c, 0, 70, 0
2, 31992, Note_on_c, 0, 69, 72
2, 32016, Note_on_c, 0, 69, 0
2, 32016, Note_on_c, 0, 67, 72
2, 32040, Note_on_c, 0, 67, 0
2, 32040, Note_on_c, 0, 69, 72
2, 32064, Note_on_c, 0, 69, 0
2, 32064, Note_on_c, 0, 70, 72
2, 32088, Note_on_c, 0, 70, 0
2, 32088, Note_on_c, 0, 69, 72
2, 32112, Note_on_c, 0, 69, 0
2, 32112, Note_on_c, 0, 70, 72
2, 32136, Note_on_c, 0, 70, 0
2, 32136, Note_on_c, 0, 69, 72
2, 32160, Note_on_c, 0, 69, 0
2, 32160, Note_on_c, 0, 70, 72
2, 32184, Note_on_c, 0, 70, 0
2, 32184, Note_on_c, 0, 69, 72
2, 32208, Note_on_c, 0, 69, 0
2, 32208, Note_on_c, 0, 70, 72
2, 32256, Note_on_c, 0, 70, 0
2, 32256, Note_on_c, 0, 70, 72
2, 32448, Note_on_c, 0, 70, 0
2, 32592, Note_on_c, 0, 72, 72
2, 32640, Note_on_c, 0, 72, 0
2, 32640, Note_on_c, 0, 65, 72
2, 32736, Note_on_c, 0, 65, 0
2, 32736, Note_on_c, 0, 65, 72
2, 32760, Note_on_c, 0, 65, 0
2, 32760, Note_on_c, 0, 67, 72
2, 32784, Note_on_c, 0, 67, 0
2, 32784, Note_on_c, 0, 65, 72
2, 32808, Note_on_c, 0, 65, 0
2, 32808, Note_on_c, 0, 64, 72
2, 32832, Note_on_c, 0, 64, 0
2, 32832, Note_on_c, 0, 65, 72
2, 32976, Note_on_c, 0, 65, 0
2, 32976, Note_on_c, 0, 67, 72
2, 33024, Note_on_c, 0, 67, 0
2, 33024, Note_on_c, 0, 69, 72
2, 33216, Note_on_c, 0, 69, 0
2, 33216, Note_on_c, 0, 69, 72
2, 33264, Note_on_c, 0, 69, 0
2, 33264, Note_on_c, 0, 67, 72
2, 33312, Note_on_c, 0, 67, 0
2, 33312, Note_on_c, 0, 69, 72
2, 33360, Note_on_c, 0, 69, 0
2, 33360, Note_on_c, 0, 71, 72
2, 33408, Note_on_c, 0, 71, 0
2, 33408, Note_on_c, 0, 72, 72
2, 33552, Note_on_c, 0, 72, 0
2, 33552, Note_on_c, 0, 67, 72
2, 33600, Note_on_c, 0, 67, 0
2, 33600, Note_on_c, 0, 72, 72
2, 33792, Note_on_c, 0, 72, 0
2, 33792, Note_on_c, 0, 72, 72
2, 33984, Note_on_c, 0, 72, 0
2, 33984, Note_on_c, 0, 71, 72
2, 34032, Note_on_c, 0, 71, 0
2, 34032, Note_on_c, 0, 69, 72
2, 34080, Note_on_c, 0, 69, 0
2, 34080, Note_on_c, 0, 71, 72
2, 34128, Note_on_c, 0, 71, 0
2, 34128, Note_on_c, 0, 73, 72
2, 34176, Note_on_c, 0, 73, 0
2, 34176, Note_on_c, 0, 74, 72
2, 34320, Note_on_c, 0, 74, 0
2, 34320, Note_on_c, 0, 76, 72
2, 34368, Note_on_c, 0, 76, 0
2, 34368, Note_on_c, 0, 77, 72
2, 34560, Note_on_c, 0, 77, 0
2, 34560, Note_on_c, 0, 77, 72
2, 34704, Note_on_c, 0, 77, 0
2, 34704, Note_on_c, 0, 77, 72
2, 34752, Note_on_c, 0, 77, 0
2, 34752, Note_on_c, 0, 76, 72
2, 34896, Note_on_c, 0, 76, 0
2, 34896, Note_on_c, 0, 74, 72
2, 34944, Note_on_c, 0, 74, 0
2, 34944, Note_on_c, 0, 73, 72
2, 35088, Note_on_c, 0, 73, 0
2, 35088, Note_on_c, 0, 69, 72
2, 35136, Note_on_c, 0, 69, 0
2, 35136, Note_on_c, 0, 74, 72
2, 35328, Note_on_c, 0, 74, 0
2, 35328, Note_on_c, 0, 74, 72
2, 35472, Note_on_c, 0, 74, 0
2, 35472, Note_on_c, 0, 72, 72
2, 35496, Note_on_c, 0, 72, 0
2, 35496, Note_on_c, 0, 71, 72
2, 35520, Note_on_c, 0, 71, 0
2, 35520, Note_on_c, 0, 72, 72
2, 35712, Note_on_c, 0, 72, 0
2, 35712, Note_on_c, 0, 72, 72
2, 35856, Note_on_c, 0, 72, 0
2, 35856, Note_on_c, 0, 70, 72
2, 35880, Note_on_c, 0, 70, 0
2, 35880, Note_on_c, 0, 69, 72
2, 35904, Note_on_c, 0, 69, 0
2, 35904, Note_on_c, 0, 70, 72
2, 36096, Note_on_c, 0, 70, 0
2, 36096, Note_on_c, 0, 70, 72
2, 36144, Note_on_c, 0, 70, 0
2, 36144, Note_on_c, 0, 70, 72
2, 36192, Note_on_c, 0, 70, 0
2, 36192, Note_on_c, 0, 69, 72
2, 36240, Note_on_c, 0, 69, 0
2, 36240, Note_on_c, 0, 67, 72
2, 36288, Note_on_c, 0, 67, 0
2, 36288, Note_on_c, 0, 65, 72
2, 36480, Note_on_c, 0, 65, 0
2, 36480, Note_on_c, 0, 65, 72
2, 36624, Note_on_c, 0, 65, 0
2, 36624, Note_on_c, 0, 67, 72
2, 36672, Note_on_c, 0, 67, 0
2, 36672, Note_on_c, 0, 69, 72
2, 36816, Note_on_c, 0, 69, 0
2, 36816, Note_on_c, 0, 70, 72
2, 36864, Note_on_c, 0, 70, 0
2, 36864, Note_on_c, 0, 67, 72
2, 37008, Note_on_c, 0, 67, 0
2, 37008, Note_on_c, 0, 76, 72
2, 37032, Note_on_c, 0, 76, 0
2, 37032, Note_on_c, 0, 77, 72
2, 37056, Note_on_c, 0, 77, 0
2, 37056, Note_on_c, 0, 79, 72
2, 37200, Note_on_c, 0, 79, 0
2, 37200, Note_on_c, 0, 73, 72
2, 37248, Note_on_c, 0, 73, 0
2, 37248, Note_on_c, 0, 74, 72
2, 37392, Note_on_c, 0, 74, 0
2, 37392, Note_on_c, 0, 76, 72
2, 37440, Note_on_c, 0, 76, 0
2, 37440, Note_on_c, 0, 74, 72
2, 37464, Note_on_c, 0, 74, 0
2, 37464, Note_on_c, 0, 72, 72
2, 37488, Note_on_c, 0, 72, 0
2, 37488, Note_on_c, 0, 74, 72
2, 37512, Note_on_c, 0, 74, 0
2, 37512, Note_on_c, 0, 72, 72
2, 37536, Note_on_c, 0, 72, 0
2, 37536, Note_on_c, 0, 74, 72
2, 37560, Note_on_c, 0, 74, 0
2, 37560, Note_on_c, 0, 72, 72
2, 37584, Note_on_c, 0, 72, 0
2, 37584, Note_on_c, 0, 74, 72
2, 37632, Note_on_c, 0, 74, 0
2, 37632, Note_on_c, 0, 74, 72
2, 37776, Note_on_c, 0, 74, 0
2, 37776, Note_on_c, 0, 76, 72
2, 37824, Note_on_c, 0, 76, 0
2, 37824, Note_on_c, 0, 77, 72
2, 37968, Note_on_c, 0, 77, 0
2, 37968, Note_on_c, 0, 79, 72
2, 38016, Note_on_c, 0, 79, 0
2, 38016, Note_on_c, 0, 81, 72
2, 38304, Note_on_c, 0, 81, 0
2, 38304, Note_on_c, 0, 81, 72
2, 38328, Note_on_c, 0, 81, 0
2, 38328, Note_on_c, 0, 81, 72
2, 38352, Note_on_c, 0, 81, 0
2, 38352, Note_on_c, 0, 79, 72
2, 38376, Note_on_c, 0, 79, 0
2, 38376, Note_on_c, 0, 77, 72
2, 38400, Note_on_c, 0, 77, 0
2, 38400, Note_on_c, 0, 76, 72
2, 38784, Note_on_c, 0, 76, 0
2, 38784, Note_on_c, 0, 76, 72
2, 38928, Note_on_c, 0, 76, 0
2, 38928, Note_on_c, 0, 74, 72
2, 38976, Note_on_c, 0, 74, 0
2, 38976, Note_on_c, 0, 76, 72
2, 39120, Note_on_c, 0, 76, 0
2, 39120, Note_on_c, 0, 77, 72
2, 39168, Note_on_c, 0, 77, 0
2, 39168, Note_on_c, 0, 79, 72
2, 39456, Note_on_c, 0, 79, 0
2, 39456, Note_on_c, 0, 79, 72
2, 39480, Note_on_c, 0, 79, 0
2, 39480, Note_on_c, 0, 79, 72
2, 39504, Note_on_c, 0, 79, 0
2, 39504, Note_on_c, 0, 77, 72
2, 39528, Note_on_c, 0, 77, 0
2, 39528, Note_on_c, 0, 76, 72
2, 39552, Note_on_c, 0, 76, 0
2, 39552, Note_on_c, 0, 74, 72
2, 39936, Note_on_c, 0, 74, 0
2, 39936, Note_on_c, 0, 74, 72
2, 40080, Note_on_c, 0, 74, 0
2, 40080, Note_on_c, 0, 73, 72
2, 40128, Note_on_c, 0, 73, 0
2, 40128, Note_on_c, 0, 74, 72
2, 40272, Note_on_c, 0, 74, 0
2, 40272, Note_on_c, 0, 76, 72
2, 40320, Note_on_c, 0, 76, 0
2, 40320, Note_on_c, 0, 77, 72
2, 40608, Note_on_c, 0, 77, 0
2, 40608, Note_on_c, 0, 77, 72
2, 40632, Note_on_c, 0, 77, 0
2, 40632, Note_on_c, 0, 77, 72
2, 40656, Note_on_c, 0, 77, 0
2, 40656, Note_on_c, 0, 76, 72
2, 40680, Note_on_c, 0, 76, 0
2, 40680, Note_on_c, 0, 74, 72
2, 40704, Note_on_c, 0, 74, 0
2, 40704, Note_on_c, 0, 72, 72
2, 41088, Note_on_c, 0, 72, 0
2, 41088, Note_on_c, 0, 72, 72
2, 41232, Note_on_c, 0, 72, 0
2, 41232, Note_on_c, 0, 72, 72
2, 41280, Note_on_c, 0, 72, 0
2, 41280, Note_on_c, 0, 77, 72
2, 41424, Note_on_c, 0, 77, 0
2, 41424, Note_on_c, 0, 76, 72
2, 41472, Note_on_c, 0, 76, 0
2, 41472, Note_on_c, 0, 74, 72
2, 41616, Note_on_c, 0, 74, 0
2, 41616, Note_on_c, 0, 72, 72
2, 41664, Note_on_c, 0, 72, 0
2, 41664, Note_on_c, 0, 70, 72
2, 41856, Note_on_c, 0, 70, 0
2, 41856, Note_on_c, 0, 70, 72
2, 42000, Note_on_c, 0, 70, 0
2, 42000, Note_on_c, 0, 64, 72
2, 42048, Note_on_c, 0, 64, 0
2, 42048, Note_on_c, 0, 69, 72
2, 42192, Note_on_c, 0, 69, 0
2, 42192, Note_on_c, 0, 67, 72
2, 42240, Note_on_c, 0, 67, 0
2, 42240, Note_on_c, 0, 65, 72
2, 42384, Note_on_c, 0, 65, 0
2, 42384, Note_on_c, 0, 66, 72
2, 42432, Note_on_c, 0, 66, 0
2, 42432, Note_on_c, 0, 67, 72
2, 42576, Note_on_c, 0, 67, 0
2, 42576, Note_on_c, 0, 69, 72
2, 42624, Note_on_c, 0, 69, 0
2, 42624, Note_on_c, 0, 70, 72
2, 42768, Note_on_c, 0, 70, 0
2, 42768, Note_on_c, 0, 71, 72
2, 42816, Note_on_c, 0, 71, 0
2, 42816, Note_on_c, 0, 73, 72
2, 42960, Note_on_c, 0, 73, 0
2, 42960, Note_on_c, 0, 74, 72
2, 43008, Note_on_c, 0, 74, 0
2, 43008, Note_on_c, 0, 76, 88
2, 43200, Note_on_c, 0, 76, 0
2, 43200, Note_on_c, 0, 81, 88
2, 43344, Note_on_c, 0, 81, 0
2, 43344, Note_on_c, 0, 79, 88
2, 43392, Note_on_c, 0, 79, 0
2, 43392, Note_on_c, 0, 77, 88
2, 43536, Note_on_c, 0, 77, 0
2, 43536, Note_on_c, 0, 76, 88
2, 43584, Note_on_c, 0, 76, 0
2, 43584, Note_on_c, 0, 74, 88
2, 43776, Note_on_c, 0, 74, 0
2, 43776, Note_on_c, 0, 73, 88
2, 43968, Note_on_c, 0, 73, 0
2, 43968, Note_on_c, 0, 74, 88
2, 44112, Note_on_c, 0, 74, 0
2, 44112, Note_on_c, 0, 76, 88
2, 44160, Note_on_c, 0, 76, 0
2, 44160, Note_on_c, 0, 77, 88
2, 44352, Note_on_c, 0, 77, 0
2, 44352, Note_on_c, 0, 77, 88
2, 44400, Note_on_c, 0, 77, 0
2, 44400, Note_on_c, 0, 79, 88
2, 44448, Note_on_c, 0, 79, 0
2, 44448, Note_on_c, 0, 77, 88
2, 44496, Note_on_c, 0, 77, 0
2, 44496, Note_on_c, 0, 76, 88
2, 44544, Note_on_c, 0, 76, 0
2, 44544, Note_on_c, 0, 74, 88
2, 44736, Note_on_c, 0, 74, 0
2, 48768, Note_on_c, 0, 69, 88
2, 49152, Note_on_c, 0, 69, 0
2, 49152, Note_on_c, 0, 62, 88
2, 49440, Note_on_c, 0, 62, 0
2, 49440, Note_on_c, 0, 64, 88
2, 49536, Note_on_c, 0, 64, 0
2, 49536, Note_on_c, 0, 65, 88
2, 49824, Note_on_c, 0, 65, 0
2, 49824, Note_on_c, 0, 67, 88
2, 49920, Note_on_c, 0, 67, 0
2, 49920, Note_on_c, 0, 69, 88
2, 50304, Note_on_c, 0, 69, 0
2, 50304, Note_on_c, 0, 70, 88
2, 50688, Note_on_c, 0, 70, 0
2, 50688, Note_on_c, 0, 69, 88
2, 50976, Note_on_c, 0, 69, 0
2, 50976, Note_on_c, 0, 67, 88
2, 51072, Note_on_c, 0, 67, 0
2, 51072, Note_on_c, 0, 65, 88
2, 51456, Note_on_c, 0, 65, 0
2, 51456, Note_on_c, 0, 65, 88
2, 51600, Note_on_c, 0, 65, 0
2, 51600, Note_on_c, 0, 64, 88
2, 51648, Note_on_c, 0, 64, 0
2, 51648, Note_on_c, 0, 65, 88
2, 51792, Note_on_c, 0, 65, 0
2, 51792, Note_on_c, 0, 67, 88
2, 51840, Note_on_c, 0, 67, 0
2, 51840, Note_on_c, 0, 69, 88
2, 52224, Note_on_c, 0, 69, 0
2, 52224, Note_on_c, 0, 69, 88
2, 52320, Note_on_c, 0, 69, 0
2, 52320, Note_on_c, 0, 69, 88
2, 52344, Note_on_c, 0, 69, 0
2, 52344, Note_on_c, 0, 62, 88
2, 52368, Note_on_c, 0, 62, 0
2, 52368, Note_on_c, 0, 64, 88
2, 52392, Note_on_c, 0, 64, 0
2, 52392, Note_on_c, 0, 65, 88
2, 52416, Note_on_c, 0, 65, 0
2, 52416, Note_on_c, 0, 67, 72
2, 52608, Note_on_c, 0, 67, 0
2, 52608, Note_on_c, 0, 67, 72
2, 52992, Note_on_c, 0, 67, 0
2, 52992, Note_on_c, 0, 67, 72
2, 53088, Note_on_c, 0, 67, 0
2, 53088, Note_on_c, 0, 67, 72
2, 53112, Note_on_c, 0, 67, 0
2, 53112, Note_on_c, 0, 60, 72
2, 53136, Note_on_c, 0, 60, 0
2, 53136, Note_on_c, 0, 62, 72
2, 53160, Note_on_c, 0, 62, 0
2, 53160, Note_on_c, 0, 64, 72
2, 53184, Note_on_c, 0, 64, 0
2, 53184, Note_on_c, 0, 65, 72
2, 53376, Note_on_c, 0, 65, 0
2, 53376, Note_on_c, 0, 65, 72
2, 53520, Note_on_c, 0, 65, 0
2, 53520, Note_on_c, 0, 62, 72
2, 53568, Note_on_c, 0, 62, 0
2, 53568, Note_on_c, 0, 67, 72
2, 53712, Note_on_c, 0, 67, 0
2, 53712, Note_on_c, 0, 65, 72
2, 53760, Note_on_c, 0, 65, 0
2, 53760, Note_on_c, 0, 64, 72
2, 53904, Note_on_c, 0, 64, 0
2, 53904, Note_on_c, 0, 67, 72
2, 53952, Note_on_c, 0, 67, 0
2, 53952, Note_on_c, 0, 72, 72
2, 54096, Note_on_c, 0, 72, 0
2, 54096, Note_on_c, 0, 70, 72
2, 54144, Note_on_c, 0, 70, 0
2, 54144, Note_on_c, 0, 69, 72
2, 54288, Note_on_c, 0, 69, 0
2, 54288, Note_on_c, 0, 72, 72
2, 54336, Note_on_c, 0, 72, 0
2, 54336, Note_on_c, 0, 77, 72
2, 54480, Note_on_c, 0, 77, 0
2, 54480, Note_on_c, 0, 75, 72
2, 54528, Note_on_c, 0, 75, 0
2, 54528, Note_on_c, 0, 74, 72
2, 54816, Note_on_c, 0, 74, 0
2, 54864, Note_on_c, 0, 74, 72
2, 54912, Note_on_c, 0, 74, 0
2, 54912, Note_on_c, 0, 73, 72
2, 55200, Note_on_c, 0, 73, 0
2, 55248, Note_on_c, 0, 76, 72
2, 55296, Note_on_c, 0, 76, 0
2, 55296, Note_on_c, 0, 69, 72
2, 55488, Note_on_c, 0, 69, 0
2, 55584, Note_on_c, 0, 76, 72
2, 55608, Note_on_c, 0, 76, 0
2, 55608, Note_on_c, 0, 77, 72
2, 55632, Note_on_c, 0, 77, 0
2, 55632, Note_on_c, 0, 79, 72
2, 55680, Note_on_c, 0, 79, 0
2, 55680, Note_on_c, 0, 77, 72
2, 55728, Note_on_c, 0, 77, 0
2, 55728, Note_on_c, 0, 76, 72
2, 55776, Note_on_c, 0, 76, 0
2, 55776, Note_on_c, 0, 74, 72
2, 55824, Note_on_c, 0, 74, 0
2, 55824, Note_on_c, 0, 73, 72
2, 55872, Note_on_c, 0, 73, 0
2, 55872, Note_on_c, 0, 74, 72
2, 56064, Note_on_c, 0, 74, 0
2, 56064, Note_on_c, 0, 74, 72
2, 56208, Note_on_c, 0, 74, 0
2, 56208, Note_on_c, 0, 76, 72
2, 56256, Note_on_c, 0, 76, 0
2, 56256, Note_on_c, 0, 74, 72
2, 56280, Note_on_c, 0, 74, 0
2, 56280, Note_on_c, 0, 73, 72
2, 56304, Note_on_c, 0, 73, 0
2, 56304, Note_on_c, 0, 74, 72
2, 56328, Note_on_c, 0, 74, 0
2, 56328, Note_on_c, 0, 73, 72
2, 56352, Note_on_c, 0, 73, 0
2, 56352, Note_on_c, 0, 71, 72
2, 56376, Note_on_c, 0, 71, 0
2, 56376, Note_on_c, 0, 73, 72
2, 56400, Note_on_c, 0, 73, 0
2, 56400, Note_on_c, 0, 74, 72
2, 56448, Note_on_c, 0, 74, 0
2, 56448, Note_on_c, 0, 74, 72
2, 56640, Note_on_c, 0, 74, 0
2, 57216, Note_on_c, 0, 74, 88
2, 57600, Note_on_c, 0, 74, 0
2, 57600, Note_on_c, 0, 67, 88
2, 57888, Note_on_c, 0, 67, 0
2, 57888, Note_on_c, 0, 69, 88
2, 57984, Note_on_c, 0, 69, 0
2, 57984, Note_on_c, 0, 70, 88
2, 58272, Note_on_c, 0, 70, 0
2, 58272, Note_on_c, 0, 72, 88
2, 58368, Note_on_c, 0, 72, 0
2, 58368, Note_on_c, 0, 74, 88
2, 58752, Note_on_c, 0, 74, 0
2, 58752, Note_on_c, 0, 75, 88
2, 59136, Note_on_c, 0, 75, 0
2, 59136, Note_on_c, 0, 74, 88
2, 59424, Note_on_c, 0, 74, 0
2, 59424, Note_on_c, 0, 72, 88
2, 59520, Note_on_c, 0, 72, 0
2, 59520, Note_on_c, 0, 70, 88
2, 59904, Note_on_c, 0, 70, 0
2, 59904, Note_on_c, 0, 70, 88
2, 60048, Note_on_c, 0, 70, 0
2, 60048, Note_on_c, 0, 78, 88
2, 60096, Note_on_c, 0, 78, 0
2, 60096, Note_on_c, 0, 79, 88
2, 60240, Note_on_c, 0, 79, 0
2, 60240, Note_on_c, 0, 73, 88
2, 60288, Note_on_c, 0, 73, 0
2, 60288, Note_on_c, 0, 74, 88
2, 60672, Note_on_c, 0, 74, 0
2, 60672, End_track
3, 0, Start_track
3, 1920, Note_on_c, 0, 62, 88
3, 2112, Note_on_c, 0, 62, 0
3, 2112, Note_on_c, 0, 69, 88
3, 2256, Note_on_c, 0, 69, 0
3, 2256, Note_on_c, 0, 67, 88
3, 2304, Note_on_c, 0, 67, 0
3, 2304, Note_on_c, 0, 65, 88
3, 2448, Note_on_c, 0, 65, 0
3, 2448, Note_on_c, 0, 64, 88
3, 2496, Note_on_c, 0, 64, 0
3, 2496, Note_on_c, 0, 62, 88
3, 2688, Note_on_c, 0, 62, 0
3, 2688, Note_on_c, 0, 61, 88
3, 2880, Note_on_c, 0, 61, 0
3, 2880, Note_on_c, 0, 62, 88
3, 3024, Note_on_c, 0, 62, 0
3, 3024, Note_on_c, 0, 64, 88
3, 3072, Note_on_c, 0, 64, 0
3, 3072, Note_on_c, 0, 65, 88
3, 3264, Note_on_c, 0, 65, 0
3, 3264, Note_on_c, 0, 65, 88
3, 3312, Note_on_c, 0, 65, 0
3, 3312, Note_on_c, 0, 67, 88
3, 3360, Note_on_c, 0, 67, 0
3, 3360, Note_on_c, 0, 65, 88
3, 3408, Note_on_c, 0, 65, 0
3, 3408, Note_on_c, 0, 64, 88
3, 3456, Note_on_c, 0, 64, 0
3, 3456, Note_on_c, 0, 62, 88
3, 3648, Note_on_c, 0, 62, 0
3, 3648, Note_on_c, 0, 64, 72
3, 3792, Note_on_c, 0, 64, 0
3, 3792, Note_on_c, 0, 65, 72
3, 3840, Note_on_c, 0, 65, 0
3, 3840, Note_on_c, 0, 67, 72
3, 4032, Note_on_c, 0, 67, 0
3, 4032, Note_on_c, 0, 65, 72
3, 4224, Note_on_c, 0, 65, 0
3, 4224, Note_on_c, 0, 65, 72
3, 4368, Note_on_c, 0, 65, 0
3, 4368, Note_on_c, 0, 64, 72
3, 4416, Note_on_c, 0, 64, 0
3, 4416, Note_on_c, 0, 65, 72
3, 4560, Note_on_c, 0, 65, 0
3, 4560, Note_on_c, 0, 67, 72
3, 4608, Note_on_c, 0, 67, 0
3, 4608, Note_on_c, 0, 69, 72
3, 4992, Note_on_c, 0, 69, 0
3, 4992, Note_on_c, 0, 69, 72
3, 5136, Note_on_c, 0, 69, 0
3, 5136, Note_on_c, 0, 71, 72
3, 5184, Note_on_c, 0, 71, 0
3, 5184, Note_on_c, 0, 72, 72
3, 5280, Note_on_c, 0, 72, 0
3, 5280, Note_on_c, 0, 72, 72
3, 5304, Note_on_c, 0, 72, 0
3, 5304, Note_on_c, 0, 71, 72
3, 5328, Note_on_c, 0, 71, 0
3, 5328, Note_on_c, 0, 69, 72
3, 5352, Note_on_c, 0, 69, 0
3, 5352, Note_on_c, 0, 68, 72
3, 5376, Note_on_c, 0, 68, 0
3, 5376, Note_on_c, 0, 69, 88
3, 5760, Note_on_c, 0, 69, 0
3, 5760, Note_on_c, 0, 76, 88
3, 6048, Note_on_c, 0, 76, 0
3, 6048, Note_on_c, 0, 74, 88
3, 6144, Note_on_c, 0, 74, 0
3, 6144, Note_on_c, 0, 72, 88
3, 6432, Note_on_c, 0, 72, 0
3, 6432, Note_on_c, 0, 71, 88
3, 6528, Note_on_c, 0, 71, 0
3, 6528, Note_on_c, 0, 69, 88
3, 6912, Note_on_c, 0, 69, 0
3, 6912, Note_on_c, 0, 68, 88
3, 7296, Note_on_c, 0, 68, 0
3, 7296, Note_on_c, 0, 69, 88
3, 7584, Note_on_c, 0, 69, 0
3, 7584, Note_on_c, 0, 71, 88
3, 7680, Note_on_c, 0, 71, 0
3, 7680, Note_on_c, 0, 72, 88
3, 8064, Note_on_c, 0, 72, 0
3, 8064, Note_on_c, 0, 72, 88
3, 8208, Note_on_c, 0, 72, 0
3, 8208, Note_on_c, 0, 74, 88
3, 8256, Note_on_c, 0, 74, 0
3, 8256, Note_on_c, 0, 72, 88
3, 8400, Note_on_c, 0, 72, 0
3, 8400, Note_on_c, 0, 71, 88
3, 8448, Note_on_c, 0, 71, 0
3, 8448, Note_on_c, 0, 69, 88
3, 8736, Note_on_c, 0, 69, 0
3, 8736, Note_on_c, 0, 69, 88
3, 8784, Note_on_c, 0, 69, 0
3, 8784, Note_on_c, 0, 68, 72
3, 8832, Note_on_c, 0, 68, 0
3, 8832, Note_on_c, 0, 69, 72
3, 9120, Note_on_c, 0, 69, 0
3, 9120, Note_on_c, 0, 69, 72
3, 9144, Note_on_c, 0, 69, 0
3, 9144, Note_on_c, 0, 67, 72
3, 9168, Note_on_c, 0, 67, 0
3, 9168, Note_on_c, 0, 65, 72
3, 9192, Note_on_c, 0, 65, 0
3, 9192, Note_on_c, 0, 64, 72
3, 9216, Note_on_c, 0, 64, 0
3, 9216, Note_on_c, 0, 65, 72
3, 9600, Note_on_c, 0, 65, 0
3, 9600, Note_on_c, 0, 65, 72
3, 9888, Note_on_c, 0, 65, 0
3, 9888, Note_on_c, 0, 65, 72
3, 9912, Note_on_c, 0, 65, 0
3, 9912, Note_on_c, 0, 65, 72
3, 9936, Note_on_c, 0, 65, 0
3, 9936, Note_on_c, 0, 67, 72
3, 9960, Note_on_c, 0, 67, 0
3, 9960, Note_on_c, 0, 69, 72
3, 9984, Note_on_c, 0, 69, 0
3, 9984, Note_on_c, 0, 70, 72
3, 10368, Note_on_c, 0, 70, 0
3, 10368, Note_on_c, 0, 70, 72
3, 10512, Note_on_c, 0, 70, 0
3, 10512, Note_on_c, 0, 71, 72
3, 10560, Note_on_c, 0, 71, 0
3, 10560, Note_on_c, 0, 74, 72
3, 10656, Note_on_c, 0, 74, 0
3, 10656, Note_on_c, 0, 73, 72
3, 10680, Note_on_c, 0, 73, 0
3, 10680, Note_on_c, 0, 71, 72
3, 10704, Note_on_c, 0, 71, 0
3, 10704, Note_on_c, 0, 73, 72
3, 10728, Note_on_c, 0, 73, 0
3, 10728, Note_on_c, 0, 74, 72
3, 10752, Note_on_c, 0, 74, 0
3, 10752, Note_on_c, 0, 76, 72
3, 11040, Note_on_c, 0, 76, 0
3, 11040, Note_on_c, 0, 76, 72
3, 11088, Note_on_c, 0, 76, 0
3, 11088, Note_on_c, 0, 74, 72
3, 11112, Note_on_c, 0, 74, 0
3, 11112, Note_on_c, 0, 73, 72
3, 11136, Note_on_c, 0, 73, 0
3, 11136, Note_on_c, 0, 74, 72
3, 11424, Note_on_c, 0, 74, 0
3, 11424, Note_on_c, 0, 74, 72
3, 11472, Note_on_c, 0, 74, 0
3, 11472, Note_on_c, 0, 72, 72
3, 11520, Note_on_c, 0, 72, 0
3, 11520, Note_on_c, 0, 70, 72
3, 11664, Note_on_c, 0, 70, 0
3, 11664, Note_on_c, 0, 67, 72
3, 11712, Note_on_c, 0, 67, 0
3, 11712, Note_on_c, 0, 65, 72
3, 11856, Note_on_c, 0, 65, 0
3, 11856, Note_on_c, 0, 64, 72
3, 11904, Note_on_c, 0, 64, 0
3, 11904, Note_on_c, 0, 62, 72
3, 12048, Note_on_c, 0, 62, 0
3, 12048, Note_on_c, 0, 73, 72
3, 12096, Note_on_c, 0, 73, 0
3, 12096, Note_on_c, 0, 74, 72
3, 12288, Note_on_c, 0, 74, 0
3, 12288, Note_on_c, 0, 74, 72
3, 12432, Note_on_c, 0, 74, 0
3, 12432, Note_on_c, 0, 71, 72
3, 12480, Note_on_c, 0, 71, 0
3, 12480, Note_on_c, 0, 73, 72
3, 12624, Note_on_c, 0, 73, 0
3, 12624, Note_on_c, 0, 69, 72
3, 12672, Note_on_c, 0, 69, 0
3, 12672, Note_on_c, 0, 65, 72
3, 12816, Note_on_c, 0, 65, 0
3, 12816, Note_on_c, 0, 64, 72
3, 12864, Note_on_c, 0, 64, 0
3, 12864, Note_on_c, 0, 65, 72
3, 13008, Note_on_c, 0, 65, 0
3, 13008, Note_on_c, 0, 67, 72
3, 13056, Note_on_c, 0, 67, 0
3, 13056, Note_on_c, 0, 69, 72
3, 13344, Note_on_c, 0, 69, 0
3, 13344, Note_on_c, 0, 69, 72
3, 13392, Note_on_c, 0, 69, 0
3, 13392, Note_on_c, 0, 70, 72
3, 13440, Note_on_c, 0, 70, 0
3, 13440, Note_on_c, 0, 69, 72
3, 13584, Note_on_c, 0, 69, 0
3, 13584, Note_on_c, 0, 79, 72
3, 13632, Note_on_c, 0, 79, 0
3, 13632, Note_on_c, 0, 77, 72
3, 13680, Note_on_c, 0, 77, 0
3, 13680, Note_on_c, 0, 76, 72
3, 13728, Note_on_c, 0, 76, 0
3, 13728, Note_on_c, 0, 74, 72
3, 13776, Note_on_c, 0, 74, 0
3, 13776, Note_on_c, 0, 73, 72
3, 13824, Note_on_c, 0, 73, 0
3, 13824, Note_on_c, 0, 74, 72
3, 14016, Note_on_c, 0, 74, 0
3, 14016, Note_on_c, 0, 74, 72
3, 14064, Note_on_c, 0, 74, 0
3, 14064, Note_on_c, 0, 72, 72
3, 14112, Note_on_c, 0, 72, 0
3, 14112, Note_on_c, 0, 71, 72
3, 14160, Note_on_c, 0, 71, 0
3, 14160, Note_on_c, 0, 69, 72
3, 14208, Note_on_c, 0, 69, 0
3, 14208, Note_on_c, 0, 71, 72
3, 14352, Note_on_c, 0, 71, 0
3, 14352, Note_on_c, 0, 67, 72
3, 14400, Note_on_c, 0, 67, 0
3, 14400, Note_on_c, 0, 72, 72
3, 14592, Note_on_c, 0, 72, 0
3, 14592, Note_on_c, 0, 72, 72
3, 14736, Note_on_c, 0, 72, 0
3, 14736, Note_on_c, 0, 71, 72
3, 14760, Note_on_c, 0, 71, 0
3, 14760, Note_on_c, 0, 69, 72
3, 14784, Note_on_c, 0, 69, 0
3, 14784, Note_on_c, 0, 72, 72
3, 14808, Note_on_c, 0, 72, 0
3, 14808, Note_on_c, 0, 71, 72
3, 14832, Note_on_c, 0, 71, 0
3, 14832, Note_on_c, 0, 72, 72
3, 14856, Note_on_c, 0, 72, 0
3, 14856, Note_on_c, 0, 71, 72
3, 14880, Note_on_c, 0, 71, 0
3, 14880, Note_on_c, 0, 72, 72
3, 14904, Note_on_c, 0, 72, 0
3, 14904, Note_on_c, 0, 71, 72
3, 14928, Note_on_c, 0, 71, 0
3, 14928, Note_on_c, 0, 69, 72
3, 14952, Note_on_c, 0, 69, 0
3, 14952, Note_on_c, 0, 71, 72
3, 14976, Note_on_c, 0, 71, 0
3, 14976, Note_on_c, 0, 72, 72
3, 15120, Note_on_c, 0, 72, 0
3, 15120, Note_on_c, 0, 70, 72
3, 15168, Note_on_c, 0, 70, 0
3, 15168, Note_on_c, 0, 70, 72
3, 15192, Note_on_c, 0, 70, 0
3, 15192, Note_on_c, 0, 69, 72
3, 15216, Note_on_c, 0, 69, 0
3, 15216, Note_on_c, 0, 70, 72
3, 15240, Note_on_c, 0, 70, 0
3, 15240, Note_on_c, 0, 69, 72
3, 15264, Note_on_c, 0, 69, 0
3, 15264, Note_on_c, 0, 70, 72
3, 15288, Note_on_c, 0, 70, 0
3, 15288, Note_on_c, 0, 69, 72
3, 15312, Note_on_c, 0, 69, 0
3, 15312, Note_on_c, 0, 67, 72
3, 15336, Note_on_c, 0, 67, 0
3, 15336, Note_on_c, 0, 69, 72
3, 15360, Note_on_c, 0, 69, 0
3, 15360, Note_on_c, 0, 70, 72
3, 15504, Note_on_c, 0, 70, 0
3, 15504, Note_on_c, 0, 74, 72
3, 15552, Note_on_c, 0, 74, 0
3, 15552, Note_on_c, 0, 72, 72
3, 15696, Note_on_c, 0, 72, 0
3, 15696, Note_on_c, 0, 70, 72
3, 15744, Note_on_c, 0, 70, 0
3, 15744, Note_on_c, 0, 69, 72
3, 16032, Note_on_c, 0, 69, 0
3, 16032, Note_on_c, 0, 69, 72
3, 16080, Note_on_c, 0, 69, 0
3, 16080, Note_on_c, 0, 67, 72
3, 16128, Note_on_c, 0, 67, 0
3, 16128, Note_on_c, 0, 65, 72
3, 16272, Note_on_c, 0, 65, 0
3, 16272, Note_on_c, 0, 67, 72
3, 16320, Note_on_c, 0, 67, 0
3, 16320, Note_on_c, 0, 65, 72
3, 16464, Note_on_c, 0, 65, 0
3, 16464, Note_on_c, 0, 63, 72
3, 16512, Note_on_c, 0, 63, 0
3, 16512, Note_on_c, 0, 62, 72
3, 16704, Note_on_c, 0, 62, 0
3, 16704, Note_on_c, 0, 67, 72
3, 16896, Note_on_c, 0, 67, 0
3, 16896, Note_on_c, 0, 67, 72
3, 17040, Note_on_c, 0, 67, 0
3, 17040, Note_on_c, 0, 64, 72
3, 17088, Note_on_c, 0, 64, 0
3, 17088, Note_on_c, 0, 65, 72
3, 17280, Note_on_c, 0, 65, 0
3, 17280, Note_on_c, 0, 65, 72
3, 17424, Note_on_c, 0, 65, 0
3, 17424, Note_on_c, 0, 64, 72
3, 17472, Note_on_c, 0, 64, 0
3, 17472, Note_on_c, 0, 65, 72
3, 17616, Note_on_c, 0, 65, 0
3, 17616, Note_on_c, 0, 67, 72
3, 17664, Note_on_c, 0, 67, 0
3, 17664, Note_on_c, 0, 69, 72
3, 17856, Note_on_c, 0, 69, 0
3, 17856, Note_on_c, 0, 74, 72
3, 18048, Note_on_c, 0, 74, 0
3, 18048, Note_on_c, 0, 67, 72
3, 18240, Note_on_c, 0, 67, 0
3, 18432, Note_on_c, 0, 65, 88
3, 18816, Note_on_c, 0, 65, 0
3, 18816, Note_on_c, 0, 72, 88
3, 19104, Note_on_c, 0, 72, 0
3, 19104, Note_on_c, 0, 70, 88
3, 19200, Note_on_c, 0, 70, 0
3, 19200, Note_on_c, 0, 69, 88
3, 19488, Note_on_c, 0, 69, 0
3, 19488, Note_on_c, 0, 67, 88
3, 19584, Note_on_c, 0, 67, 0
3, 19584, Note_on_c, 0, 65, 88
3, 19968, Note_on_c, 0, 65, 0
3, 19968, Note_on_c, 0, 64, 88
3, 20352, Note_on_c, 0, 64, 0
3, 20352, Note_on_c, 0, 65, 88
3, 20640, Note_on_c, 0, 65, 0
3, 20640, Note_on_c, 0, 67, 88
3, 20736, Note_on_c, 0, 67, 0
3, 20736, Note_on_c, 0, 69, 88
3, 21120, Note_on_c, 0, 69, 0
3, 21120, Note_on_c, 0, 69, 88
3, 21264, Note_on_c, 0, 69, 0
3, 21264, Note_on_c, 0, 70, 88
3, 21312, Note_on_c, 0, 70, 0
3, 21312, Note_on_c, 0, 69, 88
3, 21456, Note_on_c, 0, 69, 0
3, 21456, Note_on_c, 0, 67, 88
3, 21504, Note_on_c, 0, 67, 0
3, 21504, Note_on_c, 0, 65, 88
3, 21888, Note_on_c, 0, 65, 0
3, 21888, Note_on_c, 0, 65, 72
3, 22032, Note_on_c, 0, 65, 0
3, 22032, Note_on_c, 0, 62, 72
3, 22080, Note_on_c, 0, 62, 0
3, 22080, Note_on_c, 0, 67, 72
3, 22224, Note_on_c, 0, 67, 0
3, 22224, Note_on_c, 0, 65, 72
3, 22272, Note_on_c, 0, 65, 0
3, 22272, Note_on_c, 0, 64, 72
3, 22656, Note_on_c, 0, 64, 0
3, 22656, Note_on_c, 0, 64, 72
3, 22800, Note_on_c, 0, 64, 0
3, 22800, Note_on_c, 0, 60, 72
3, 22848, Note_on_c, 0, 60, 0
3, 22848, Note_on_c, 0, 65, 72
3, 22992, Note_on_c, 0, 65, 0
3, 22992, Note_on_c, 0, 64, 72
3, 23040, Note_on_c, 0, 64, 0
3, 23040, Note_on_c, 0, 62, 72
3, 23424, Note_on_c, 0, 62, 0
3, 23424, Note_on_c, 0, 62, 72
3, 23616, Note_on_c, 0, 62, 0
3, 23616, Note_on_c, 0, 61, 72
3, 23808, Note_on_c, 0, 61, 0
3, 23808, Note_on_c, 0, 69, 88
3, 24000, Note_on_c, 0, 69, 0
3, 24000, Note_on_c, 0, 62, 88
3, 24144, Note_on_c, 0, 62, 0
3, 24144, Note_on_c, 0, 64, 88
3, 24192, Note_on_c, 0, 64, 0
3, 24192, Note_on_c, 0, 65, 88
3, 24336, Note_on_c, 0, 65, 0
3, 24336, Note_on_c, 0, 67, 88
3, 24384, Note_on_c, 0, 67, 0
3, 24384, Note_on_c, 0, 69, 88
3, 24576, Note_on_c, 0, 69, 0
3, 24576, Note_on_c, 0, 70, 88
3, 24768, Note_on_c, 0, 70, 0
3, 24768, Note_on_c, 0, 69, 88
3, 24912, Note_on_c, 0, 69, 0
3, 24912, Note_on_c, 0, 67, 88
3, 24960, Note_on_c, 0, 67, 0
3, 24960, Note_on_c, 0, 65, 88
3, 25152, Note_on_c, 0, 65, 0
3, 25152, Note_on_c, 0, 65, 88
3, 25200, Note_on_c, 0, 65, 0
3, 25200, Note_on_c, 0, 64, 88
3, 25248, Note_on_c, 0, 64, 0
3, 25248, Note_on_c, 0, 65, 88
3, 25296, Note_on_c, 0, 65, 0
3, 25296, Note_on_c, 0, 67, 88
3, 25344, Note_on_c, 0, 67, 0
3, 25344, Note_on_c, 0, 69, 88
3, 25488, Note_on_c, 0, 69, 0
3, 25488, Note_on_c, 0, 70, 72
3, 25536, Note_on_c, 0, 70, 0
3, 25536, Note_on_c, 0, 72, 72
3, 25680, Note_on_c, 0, 72, 0
3, 25680, Note_on_c, 0, 74, 72
3, 25728, Note_on_c, 0, 74, 0
3, 25728, Note_on_c, 0, 67, 72
3, 25872, Note_on_c, 0, 67, 0
3, 25872, Note_on_c, 0, 75, 72
3, 25920, Note_on_c, 0, 75, 0
3, 25920, Note_on_c, 0, 69, 72
3, 26064, Note_on_c, 0, 69, 0
3, 26064, Note_on_c, 0, 70, 72
3, 26088, Note_on_c, 0, 70, 0
3, 26088, Note_on_c, 0, 72, 72
3, 26112, Note_on_c, 0, 72, 0
3, 26112, Note_on_c, 0, 66, 72
3, 26256, Note_on_c, 0, 66, 0
3, 26256, Note_on_c, 0, 69, 72
3, 26304, Note_on_c, 0, 69, 0
3, 26304, Note_on_c, 0, 62, 72
3, 26496, Note_on_c, 0, 62, 0
3, 26496, Note_on_c, 0, 62, 72
3, 26640, Note_on_c, 0, 62, 0
3, 26640, Note_on_c, 0, 62, 72
3, 26688, Note_on_c, 0, 62, 0
3, 26688, Note_on_c, 0, 64, 72
3, 26832, Note_on_c, 0, 64, 0
3, 26832, Note_on_c, 0, 66, 72
3, 26880, Note_on_c, 0, 66, 0
3, 26880, Note_on_c, 0, 67, 72
3, 27024, Note_on_c, 0, 67, 0
3, 27024, Note_on_c, 0, 66, 72
3, 27072, Note_on_c, 0, 66, 0
3, 27072, Note_on_c, 0, 67, 72
3, 27216, Note_on_c, 0, 67, 0
3, 27216, Note_on_c, 0, 69, 72
3, 27264, Note_on_c, 0, 69, 0
3, 27264, Note_on_c, 0, 70, 72
3, 27408, Note_on_c, 0, 70, 0
3, 27408, Note_on_c, 0, 72, 72
3, 27432, Note_on_c, 0, 72, 0
3, 27432, Note_on_c, 0, 74, 72
3, 27456, Note_on_c, 0, 74, 0
3, 27456, Note_on_c, 0, 72, 72
3, 27504, Note_on_c, 0, 72, 0
3, 27504, Note_on_c, 0, 70, 72
3, 27552, Note_on_c, 0, 70, 0
3, 27552, Note_on_c, 0, 69, 72
3, 27600, Note_on_c, 0, 69, 0
3, 27600, Note_on_c, 0, 67, 72
3, 27648, Note_on_c, 0, 67, 0
3, 27648, Note_on_c, 0, 72, 72
3, 27792, Note_on_c, 0, 72, 0
3, 27792, Note_on_c, 0, 70, 72
3, 27816, Note_on_c, 0, 70, 0
3, 27816, Note_on_c, 0, 69, 72
3, 27840, Note_on_c, 0, 69, 0
3, 27840, Note_on_c, 0, 70, 72
3, 27984, Note_on_c, 0, 70, 0
3, 27984, Note_on_c, 0, 66, 72
3, 28032, Note_on_c, 0, 66, 0
3, 28032, Note_on_c, 0, 67, 72
3, 28176, Note_on_c, 0, 67, 0
3, 28176, Note_on_c, 0, 69, 72
3, 28200, Note_on_c, 0, 69, 0
3, 28200, Note_on_c, 0, 70, 72
3, 28224, Note_on_c, 0, 70, 0
3, 28224, Note_on_c, 0, 64, 72
3, 28368, Note_on_c, 0, 64, 0
3, 28368, Note_on_c, 0, 66, 72
3, 28416, Note_on_c, 0, 66, 0
3, 28416, Note_on_c, 0, 67, 72
3, 28608, Note_on_c, 0, 67, 0
3, 31488, Note_on_c, 0, 65, 88
3, 31680, Note_on_c, 0, 65, 0
3, 31680, Note_on_c, 0, 58, 88
3, 31824, Note_on_c, 0, 58, 0
3, 31824, Note_on_c, 0, 60, 88
3, 31872, Note_on_c, 0, 60, 0
3, 31872, Note_on_c, 0, 62, 88
3, 32016, Note_on_c, 0, 62, 0
3, 32016, Note_on_c, 0, 63, 88
3, 32064, Note_on_c, 0, 63, 0
3, 32064, Note_on_c, 0, 65, 88
3, 32256, Note_on_c, 0, 65, 0
3, 32256, Note_on_c, 0, 67, 88
3, 32448, Note_on_c, 0, 67, 0
3, 32448, Note_on_c, 0, 65, 88
3, 32592, Note_on_c, 0, 65, 0
3, 32592, Note_on_c, 0, 63, 88
3, 32640, Note_on_c, 0, 63, 0
3, 32640, Note_on_c, 0, 62, 88
3, 32832, Note_on_c, 0, 62, 0
3, 32832, Note_on_c, 0, 62, 88
3, 32880, Note_on_c, 0, 62, 0
3, 32880, Note_on_c, 0, 60, 88
3, 32928, Note_on_c, 0, 60, 0
3, 32928, Note_on_c, 0, 62, 88
3, 32976, Note_on_c, 0, 62, 0
3, 32976, Note_on_c, 0, 64, 88
3, 33024, Note_on_c, 0, 64, 0
3, 33024, Note_on_c, 0, 65, 88
3, 33168, Note_on_c, 0, 65, 0
3, 33168, Note_on_c, 0, 60, 72
3, 33216, Note_on_c, 0, 60, 0
3, 33216, Note_on_c, 0, 65, 72
3, 33408, Note_on_c, 0, 65, 0
3, 33408, Note_on_c, 0, 65, 72
3, 33600, Note_on_c, 0, 65, 0
3, 33600, Note_on_c, 0, 64, 72
3, 33648, Note_on_c, 0, 64, 0
3, 33648, Note_on_c, 0, 62, 72
3, 33696, Note_on_c, 0, 62, 0
3, 33696, Note_on_c, 0, 64, 72
3, 33744, Note_on_c, 0, 64, 0
3, 33744, Note_on_c, 0, 66, 72
3, 33792, Note_on_c, 0, 66, 0
3, 33792, Note_on_c, 0, 67, 72
3, 33936, Note_on_c, 0, 67, 0
3, 33936, Note_on_c, 0, 62, 72
3, 33984, Note_on_c, 0, 62, 0
3, 33984, Note_on_c, 0, 67, 72
3, 34176, Note_on_c, 0, 67, 0
3, 34176, Note_on_c, 0, 67, 72
3, 34368, Note_on_c, 0, 67, 0
3, 34368, Note_on_c, 0, 65, 72
3, 34464, Note_on_c, 0, 65, 0
3, 34464, Note_on_c, 0, 65, 72
3, 34488, Note_on_c, 0, 65, 0
3, 34488, Note_on_c, 0, 69, 72
3, 34512, Note_on_c, 0, 69, 0
3, 34512, Note_on_c, 0, 70, 72
3, 34536, Note_on_c, 0, 70, 0
3, 34536, Note_on_c, 0, 72, 72
3, 34560, Note_on_c, 0, 72, 0
3, 34560, Note_on_c, 0, 74, 72
3, 34752, Note_on_c, 0, 74, 0
3, 34752, Note_on_c, 0, 67, 72
3, 34944, Note_on_c, 0, 67, 0
3, 34944, Note_on_c, 0, 67, 72
3, 35136, Note_on_c, 0, 67, 0
3, 35136, Note_on_c, 0, 65, 72
3, 35280, Note_on_c, 0, 65, 0
3, 35280, Note_on_c, 0, 62, 72
3, 35328, Note_on_c, 0, 62, 0
3, 35328, Note_on_c, 0, 64, 72
3, 35520, Note_on_c, 0, 64, 0
3, 35520, Note_on_c, 0, 69, 72
3, 35664, Note_on_c, 0, 69, 0
3, 35664, Note_on_c, 0, 67, 72
3, 35712, Note_on_c, 0, 67, 0
3, 35712, Note_on_c, 0, 65, 72
3, 35856, Note_on_c, 0, 65, 0
3, 35856, Note_on_c, 0, 64, 72
3, 35904, Note_on_c, 0, 64, 0
3, 35904, Note_on_c, 0, 62, 72
3, 36048, Note_on_c, 0, 62, 0
3, 36048, Note_on_c, 0, 61, 72
3, 36096, Note_on_c, 0, 61, 0
3, 36096, Note_on_c, 0, 62, 72
3, 36480, Note_on_c, 0, 62, 0
3, 36480, Note_on_c, 0, 62, 72
3, 36624, Note_on_c, 0, 62, 0
3, 36624, Note_on_c, 0, 64, 72
3, 36672, Note_on_c, 0, 64, 0
3, 36672, Note_on_c, 0, 65, 72
3, 36816, Note_on_c, 0, 65, 0
3, 36816, Note_on_c, 0, 67, 72
3, 36864, Note_on_c, 0, 67, 0
3, 36864, Note_on_c, 0, 64, 72
3, 37056, Note_on_c, 0, 64, 0
3, 37200, Note_on_c, 0, 67, 72
3, 37248, Note_on_c, 0, 67, 0
3, 37248, Note_on_c, 0, 65, 72
3, 37392, Note_on_c, 0, 65, 0
3, 37392, Note_on_c, 0, 67, 72
3, 37440, Note_on_c, 0, 67, 0
3, 37440, Note_on_c, 0, 69, 72
3, 37632, Note_on_c, 0, 69, 0
3, 37632, Note_on_c, 0, 69, 72
3, 37824, Note_on_c, 0, 69, 0
3, 38136, Note_on_c, 0, 76, 72
3, 38160, Note_on_c, 0, 76, 0
3, 38160, Note_on_c, 0, 74, 72
3, 38184, Note_on_c, 0, 74, 0
3, 38184, Note_on_c, 0, 73, 72
3, 38208, Note_on_c, 0, 73, 0
3, 38208, Note_on_c, 0, 74, 72
3, 38400, Note_on_c, 0, 74, 0
3, 38400, Note_on_c, 0, 74, 72
3, 38688, Note_on_c, 0, 74, 0
3, 38688, Note_on_c, 0, 74, 72
3, 38712, Note_on_c, 0, 74, 0
3, 38712, Note_on_c, 0, 74, 72
3, 38736, Note_on_c, 0, 74, 0
3, 38736, Note_on_c, 0, 72, 72
3, 38760, Note_on_c, 0, 72, 0
3, 38760, Note_on_c, 0, 71, 72
3, 38784, Note_on_c, 0, 71, 0
3, 38784, Note_on_c, 0, 72, 72
3, 38976, Note_on_c, 0, 72, 0
3, 39288, Note_on_c, 0, 74, 72
3, 39312, Note_on_c, 0, 74, 0
3, 39312, Note_on_c, 0, 72, 72
3, 39336, Note_on_c, 0, 72, 0
3, 39336, Note_on_c, 0, 71, 72
3, 39360, Note_on_c, 0, 71, 0
3, 39360, Note_on_c, 0, 72, 72
3, 39552, Note_on_c, 0, 72, 0
3, 39552, Note_on_c, 0, 72, 72
3, 39840, Note_on_c, 0, 72, 0
3, 39840, Note_on_c, 0, 72, 72
3, 39864, Note_on_c, 0, 72, 0
3, 39864, Note_on_c, 0, 72, 72
3, 39888, Note_on_c, 0, 72, 0
3, 39888, Note_on_c, 0, 70, 72
3, 39912, Note_on_c, 0, 70, 0
3, 39912, Note_on_c, 0, 69, 72
3, 39936, Note_on_c, 0, 69, 0
3, 39936, Note_on_c, 0, 70, 72
3, 40128, Note_on_c, 0, 70, 0
3, 40440, Note_on_c, 0, 72, 72
3, 40464, Note_on_c, 0, 72, 0
3, 40464, Note_on_c, 0, 70, 72
3, 40488, Note_on_c, 0, 70, 0
3, 40488, Note_on_c, 0, 69, 72
3, 40512, Note_on_c, 0, 69, 0
3, 40512, Note_on_c, 0, 70, 72
3, 40704, Note_on_c, 0, 70, 0
3, 40704, Note_on_c, 0, 70, 72
3, 40992, Note_on_c, 0, 70, 0
3, 40992, Note_on_c, 0, 70, 72
3, 41016, Note_on_c, 0, 70, 0
3, 41016, Note_on_c, 0, 70, 72
3, 41040, Note_on_c, 0, 70, 0
3, 41040, Note_on_c, 0, 69, 72
3, 41064, Note_on_c, 0, 69, 0
3, 41064, Note_on_c, 0, 67, 72
3, 41088, Note_on_c, 0, 67, 0
3, 41088, Note_on_c, 0, 69, 72
3, 41472, Note_on_c, 0, 69, 0
3, 41472, Note_on_c, 0, 69, 72
3, 41616, Note_on_c, 0, 69, 0
3, 41616, Note_on_c, 0, 62, 72
3, 41664, Note_on_c, 0, 62, 0
3, 41664, Note_on_c, 0, 67, 72
3, 41808, Note_on_c, 0, 67, 0
3, 41808, Note_on_c, 0, 65, 72
3, 41856, Note_on_c, 0, 65, 0
3, 41856, Note_on_c, 0, 64, 72
3, 42000, Note_on_c, 0, 64, 0
3, 42000, Note_on_c, 0, 62, 72
3, 42048, Note_on_c, 0, 62, 0
3, 42048, Note_on_c, 0, 61, 72
3, 42240, Note_on_c, 0, 61, 0
3, 42240, Note_on_c, 0, 62, 72
3, 42624, Note_on_c, 0, 62, 0
3, 42624, Note_on_c, 0, 62, 72
3, 42672, Note_on_c, 0, 62, 0
3, 42672, Note_on_c, 0, 62, 72
3, 42720, Note_on_c, 0, 62, 0
3, 42720, Note_on_c, 0, 64, 72
3, 42768, Note_on_c, 0, 64, 0
3, 42768, Note_on_c, 0, 65, 72
3, 42816, Note_on_c, 0, 65, 0
3, 42816, Note_on_c, 0, 64, 72
3, 42864, Note_on_c, 0, 64, 0
3, 42864, Note_on_c, 0, 62, 72
3, 42912, Note_on_c, 0, 62, 0
3, 42912, Note_on_c, 0, 61, 72
3, 42960, Note_on_c, 0, 61, 0
3, 42960, Note_on_c, 0, 59, 72
3, 43008, Note_on_c, 0, 59, 0
3, 43008, Note_on_c, 0, 61, 72
3, 43200, Note_on_c, 0, 61, 0
3, 43200, Note_on_c, 0, 61, 72
3, 43248, Note_on_c, 0, 61, 0
3, 43248, Note_on_c, 0, 57, 72
3, 43296, Note_on_c, 0, 57, 0
3, 43296, Note_on_c, 0, 59, 72
3, 43344, Note_on_c, 0, 59, 0
3, 43344, Note_on_c, 0, 61, 72
3, 43392, Note_on_c, 0, 61, 0
3, 43392, Note_on_c, 0, 62, 72
3, 43536, Note_on_c, 0, 62, 0
3, 43536, Note_on_c, 0, 64, 72
3, 43584, Note_on_c, 0, 64, 0
3, 43584, Note_on_c, 0, 65, 72
3, 43728, Note_on_c, 0, 65, 0
3, 43728, Note_on_c, 0, 67, 72
3, 43776, Note_on_c, 0, 67, 0
3, 43776, Note_on_c, 0, 69, 88
3, 44160, Note_on_c, 0, 69, 0
3, 44160, Note_on_c, 0, 62, 88
3, 44448, Note_on_c, 0, 62, 0
3, 44448, Note_on_c, 0, 64, 88
3, 44544, Note_on_c, 0, 64, 0
3, 44544, Note_on_c, 0, 65, 88
3, 44832, Note_on_c, 0, 65, 0
3, 44832, Note_on_c, 0, 67, 88
3, 44928, Note_on_c, 0, 67, 0
3, 44928, Note_on_c, 0, 69, 88
3, 45312, Note_on_c, 0, 69, 0
3, 45312, Note_on_c, 0, 70, 88
3, 45696, Note_on_c, 0, 70, 0
3, 45696, Note_on_c, 0, 69, 88
3, 45984, Note_on_c, 0, 69, 0
3, 45984, Note_on_c, 0, 67, 88
3, 46080, Note_on_c, 0, 67, 0
3, 46080, Note_on_c, 0, 65, 88
3, 46464, Note_on_c, 0, 65, 0
3, 46464, Note_on_c, 0, 65, 88
3, 46608, Note_on_c, 0, 65, 0
3, 46608, Note_on_c, 0, 64, 88
3, 46656, Note_on_c, 0, 64, 0
3, 46656, Note_on_c, 0, 65, 88
3, 46800, Note_on_c, 0, 65, 0
3, 46800, Note_on_c, 0, 67, 88
3, 46848, Note_on_c, 0, 67, 0
3, 46848, Note_on_c, 0, 69, 88
3, 47040, Note_on_c, 0, 69, 0
3, 47040, Note_on_c, 0, 69, 72
3, 47088, Note_on_c, 0, 69, 0
3, 47088, Note_on_c, 0, 60, 72
3, 47136, Note_on_c, 0, 60, 0
3, 47136, Note_on_c, 0, 62, 72
3, 47184, Note_on_c, 0, 62, 0
3, 47184, Note_on_c, 0, 64, 72
3, 47232, Note_on_c, 0, 64, 0
3, 47232, Note_on_c, 0, 65, 72
3, 47280, Note_on_c, 0, 65, 0
3, 47280, Note_on_c, 0, 67, 72
3, 47328, Note_on_c, 0, 67, 0
3, 47328, Note_on_c, 0, 65, 72
3, 47376, Note_on_c, 0, 65, 0
3, 47376, Note_on_c, 0, 64, 72
3, 47424, Note_on_c, 0, 64, 0
3, 47424, Note_on_c, 0, 62, 72
3, 47472, Note_on_c, 0, 62, 0
3, 47472, Note_on_c, 0, 65, 72
3, 47520, Note_on_c, 0, 65, 0
3, 47520, Note_on_c, 0, 67, 72
3, 47568, Note_on_c, 0, 67, 0
3, 47568, Note_on_c, 0, 69, 72
3, 47616, Note_on_c, 0, 69, 0
3, 47616, Note_on_c, 0, 70, 72
3, 47664, Note_on_c, 0, 70, 0
3, 47664, Note_on_c, 0, 72, 72
3, 47712, Note_on_c, 0, 72, 0
3, 47712, Note_on_c, 0, 70, 72
3, 47760, Note_on_c, 0, 70, 0
3, 47760, Note_on_c, 0, 69, 72
3, 47808, Note_on_c, 0, 69, 0
3, 47808, Note_on_c, 0, 67, 72
3, 47856, Note_on_c, 0, 67, 0
3, 47856, Note_on_c, 0, 55, 72
3, 47904, Note_on_c, 0, 55, 0
3, 47904, Note_on_c, 0, 57, 72
3, 47952, Note_on_c, 0, 57, 0
3, 47952, Note_on_c, 0, 58, 72
3, 48000, Note_on_c, 0, 58, 0
3, 48000, Note_on_c, 0, 60, 72
3, 48048, Note_on_c, 0, 60, 0
3, 48048, Note_on_c, 0, 62, 72
3, 48096, Note_on_c, 0, 62, 0
3, 48096, Note_on_c, 0, 60, 72
3, 48144, Note_on_c, 0, 60, 0
3, 48144, Note_on_c, 0, 58, 72
3, 48192, Note_on_c, 0, 58, 0
3, 48192, Note_on_c, 0, 57, 72
3, 48240, Note_on_c, 0, 57, 0
3, 48240, Note_on_c, 0, 58, 72
3, 48288, Note_on_c, 0, 58, 0
3, 48288, Note_on_c, 0, 57, 72
3, 48336, Note_on_c, 0, 57, 0
3, 48336, Note_on_c, 0, 55, 72
3, 48384, Note_on_c, 0, 55, 0
3, 48384, Note_on_c, 0, 53, 72
3, 48480, Note_on_c, 0, 53, 0
3, 48480, Note_on_c, 0, 53, 72
3, 48504, Note_on_c, 0, 53, 0
3, 48504, Note_on_c, 0, 57, 72
3, 48528, Note_on_c, 0, 57, 0
3, 48528, Note_on_c, 0, 59, 72
3, 48552, Note_on_c, 0, 59, 0
3, 48552, Note_on_c, 0, 61, 72
3, 48576, Note_on_c, 0, 61, 0
3, 48576, Note_on_c, 0, 62, 72
3, 48768, Note_on_c, 0, 62, 0
3, 48768, Note_on_c, 0, 62, 72
3, 48912, Note_on_c, 0, 62, 0
3, 48912, Note_on_c, 0, 61, 72
3, 48960, Note_on_c, 0, 61, 0
3, 48960, Note_on_c, 0, 62, 72
3, 49104, Note_on_c, 0, 62, 0
3, 49104, Note_on_c, 0, 64, 72
3, 49152, Note_on_c, 0, 64, 0
3, 49152, Note_on_c, 0, 65, 72
3, 49344, Note_on_c, 0, 65, 0
3, 49536, Note_on_c, 0, 62, 88
3, 49728, Note_on_c, 0, 62, 0
3, 49728, Note_on_c, 0, 69, 88
3, 49872, Note_on_c, 0, 69, 0
3, 49872, Note_on_c, 0, 67, 88
3, 49920, Note_on_c, 0, 67, 0
3, 49920, Note_on_c, 0, 65, 88
3, 50064, Note_on_c, 0, 65, 0
3, 50064, Note_on_c, 0, 64, 88
3, 50112, Note_on_c, 0, 64, 0
3, 50112, Note_on_c, 0, 62, 88
3, 50304, Note_on_c, 0, 62, 0
3, 50304, Note_on_c, 0, 61, 88
3, 50496, Note_on_c, 0, 61, 0
3, 50496, Note_on_c, 0, 62, 88
3, 50640, Note_on_c, 0, 62, 0
3, 50640, Note_on_c, 0, 64, 88
3, 50688, Note_on_c, 0, 64, 0
3, 50688, Note_on_c, 0, 65, 88
3, 50880, Note_on_c, 0, 65, 0
3, 50880, Note_on_c, 0, 65, 88
3, 50928, Note_on_c, 0, 65, 0
3, 50928, Note_on_c, 0, 67, 88
3, 50976, Note_on_c, 0, 67, 0
3, 50976, Note_on_c, 0, 65, 88
3, 51024, Note_on_c, 0, 65, 0
3, 51024, Note_on_c, 0, 64, 88
3, 51072, Note_on_c, 0, 64, 0
3, 51072, Note_on_c, 0, 62, 88
3, 51216, Note_on_c, 0, 62, 0
3, 51216, Note_on_c, 0, 57, 72
3, 51264, Note_on_c, 0, 57, 0
3, 51264, Note_on_c, 0, 58, 72
3, 51408, Note_on_c, 0, 58, 0
3, 51408, Note_on_c, 0, 60, 72
3, 51456, Note_on_c, 0, 60, 0
3, 51456, Note_on_c, 0, 62, 72
3, 51840, Note_on_c, 0, 62, 0
3, 51840, Note_on_c, 0, 62, 72
3, 51984, Note_on_c, 0, 62, 0
3, 51984, Note_on_c, 0, 57, 72
3, 52032, Note_on_c, 0, 57, 0
3, 52032, Note_on_c, 0, 62, 72
3, 52176, Note_on_c, 0, 62, 0
3, 52176, Note_on_c, 0, 60, 72
3, 52224, Note_on_c, 0, 60, 0
3, 52224, Note_on_c, 0, 58, 72
3, 52368, Note_on_c, 0, 58, 0
3, 52368, Note_on_c, 0, 57, 72
3, 52416, Note_on_c, 0, 57, 0
3, 52416, Note_on_c, 0, 58, 72
3, 52608, Note_on_c, 0, 58, 0
3, 52608, Note_on_c, 0, 58, 72
3, 52752, Note_on_c, 0, 58, 0
3, 52752, Note_on_c, 0, 55, 72
3, 52800, Note_on_c, 0, 55, 0
3, 52800, Note_on_c, 0, 60, 72
3, 52944, Note_on_c, 0, 60, 0
3, 52944, Note_on_c, 0, 58, 72
3, 52992, Note_on_c, 0, 58, 0
3, 52992, Note_on_c, 0, 57, 72
3, 53136, Note_on_c, 0, 57, 0
3, 53136, Note_on_c, 0, 55, 72
3, 53184, Note_on_c, 0, 55, 0
3, 53184, Note_on_c, 0, 57, 72
3, 53376, Note_on_c, 0, 57, 0
3, 53376, Note_on_c, 0, 57, 72
3, 53568, Note_on_c, 0, 57, 0
3, 53568, Note_on_c, 0, 55, 72
3, 53712, Note_on_c, 0, 55, 0
3, 53712, Note_on_c, 0, 62, 72
3, 53760, Note_on_c, 0, 62, 0
3, 53760, Note_on_c, 0, 60, 72
3, 53904, Note_on_c, 0, 60, 0
3, 53904, Note_on_c, 0, 64, 72
3, 53952, Note_on_c, 0, 64, 0
3, 53952, Note_on_c, 0, 65, 72
3, 54096, Note_on_c, 0, 65, 0
3, 54096, Note_on_c, 0, 67, 72
3, 54144, Note_on_c, 0, 67, 0
3, 54144, Note_on_c, 0, 65, 72
3, 54288, Note_on_c, 0, 65, 0
3, 54288, Note_on_c, 0, 67, 72
3, 54336, Note_on_c, 0, 67, 0
3, 54336, Note_on_c, 0, 69, 72
3, 54528, Note_on_c, 0, 69, 0
3, 54528, Note_on_c, 0, 69, 72
3, 54672, Note_on_c, 0, 69, 0
3, 54672, Note_on_c, 0, 66, 72
3, 54720, Note_on_c, 0, 66, 0
3, 54720, Note_on_c, 0, 67, 72
3, 54864, Note_on_c, 0, 67, 0
3, 54864, Note_on_c, 0, 69, 72
3, 54912, Note_on_c, 0, 69, 0
3, 54912, Note_on_c, 0, 70, 72
3, 55200, Note_on_c, 0, 70, 0
3, 55248, Note_on_c, 0, 70, 72
3, 55296, Note_on_c, 0, 70, 0
3, 55296, Note_on_c, 0, 64, 72
3, 55488, Note_on_c, 0, 64, 0
3, 55584, Note_on_c, 0, 73, 72
3, 55680, Note_on_c, 0, 73, 0
3, 55680, Note_on_c, 0, 74, 72
3, 55776, Note_on_c, 0, 74, 0
3, 56016, Note_on_c, 0, 64, 72
3, 56064, Note_on_c, 0, 64, 0
3, 56064, Note_on_c, 0, 65, 72
3, 56208, Note_on_c, 0, 65, 0
3, 56208, Note_on_c, 0, 67, 72
3, 56256, Note_on_c, 0, 67, 0
3, 56256, Note_on_c, 0, 64, 72
3, 56304, Note_on_c, 0, 64, 0
3, 56304, Note_on_c, 0, 64, 88
3, 56400, Note_on_c, 0, 64, 0
3, 56400, Note_on_c, 0, 67, 88
3, 56448, Note_on_c, 0, 67, 0
3, 56448, Note_on_c, 0, 67, 88
3, 56544, Note_on_c, 0, 67, 0
3, 56544, Note_on_c, 0, 67, 88
3, 56568, Note_on_c, 0, 67, 0
3, 56568, Note_on_c, 0, 67, 88
3, 56592, Note_on_c, 0, 67, 0
3, 56592, Note_on_c, 0, 66, 88
3, 56616, Note_on_c, 0, 66, 0
3, 56616, Note_on_c, 0, 64, 88
3, 56640, Note_on_c, 0, 64, 0
3, 56640, Note_on_c, 0, 66, 88
3, 56784, Note_on_c, 0, 66, 0
3, 56784, Note_on_c, 0, 69, 88
3, 56832, Note_on_c, 0, 69, 0
3, 56832, Note_on_c, 0, 62, 88
3, 56976, Note_on_c, 0, 62, 0
3, 56976, Note_on_c, 0, 60, 88
3, 57024, Note_on_c, 0, 60, 0
3, 57024, Note_on_c, 0, 58, 88
3, 57168, Note_on_c, 0, 58, 0
3, 57168, Note_on_c, 0, 63, 88
3, 57216, Note_on_c, 0, 63, 0
3, 57216, Note_on_c, 0, 57, 88
3, 57312, Note_on_c, 0, 57, 0
3, 57312, Note_on_c, 0, 57, 88
3, 57336, Note_on_c, 0, 57, 0
3, 57336, Note_on_c, 0, 69, 88
3, 57360, Note_on_c, 0, 69, 0
3, 57360, Note_on_c, 0, 70, 88
3, 57384, Note_on_c, 0, 70, 0
3, 57384, Note_on_c, 0, 72, 88
3, 57408, Note_on_c, 0, 72, 0
3, 57408, Note_on_c, 0, 70, 88
3, 57456, Note_on_c, 0, 70, 0
3, 57456, Note_on_c, 0, 69, 88
3, 57504, Note_on_c, 0, 69, 0
3, 57504, Note_on_c, 0, 67, 88
3, 57552, Note_on_c, 0, 67, 0
3, 57552, Note_on_c, 0, 66, 88
3, 57600, Note_on_c, 0, 66, 0
3, 57600, Note_on_c, 0, 67, 88
3, 57744, Note_on_c, 0, 67, 0
3, 57744, Note_on_c, 0, 62, 88
3, 57792, Note_on_c, 0, 62, 0
3, 57792, Note_on_c, 0, 64, 88
3, 57936, Note_on_c, 0, 64, 0
3, 57936, Note_on_c, 0, 66, 88
3, 57984, Note_on_c, 0, 66, 0
3, 57984, Note_on_c, 0, 67, 88
3, 58176, Note_on_c, 0, 67, 0
3, 58176, Note_on_c, 0, 74, 88
3, 58320, Note_on_c, 0, 74, 0
3, 58320, Note_on_c, 0, 72, 88
3, 58368, Note_on_c, 0, 72, 0
3, 58368, Note_on_c, 0, 70, 88
3, 58512, Note_on_c, 0, 70, 0
3, 58512, Note_on_c, 0, 69, 88
3, 58560, Note_on_c, 0, 69, 0
3, 58560, Note_on_c, 0, 67, 88
3, 58752, Note_on_c, 0, 67, 0
3, 58752, Note_on_c, 0, 66, 88
3, 58944, Note_on_c, 0, 66, 0
3, 58944, Note_on_c, 0, 67, 88
3, 59088, Note_on_c, 0, 67, 0
3, 59088, Note_on_c, 0, 69, 88
3, 59136, Note_on_c, 0, 69, 0
3, 59136, Note_on_c, 0, 70, 88
3, 59328, Note_on_c, 0, 70, 0
3, 59328, Note_on_c, 0, 70, 88
3, 59376, Note_on_c, 0, 70, 0
3, 59376, Note_on_c, 0, 72, 88
3, 59424, Note_on_c, 0, 72, 0
3, 59424, Note_on_c, 0, 70, 88
3, 59472, Note_on_c, 0, 70, 0
3, 59472, Note_on_c, 0, 69, 88
3, 59520, Note_on_c, 0, 69, 0
3, 59520, Note_on_c, 0, 67, 88
3, 59712, Note_on_c, 0, 67, 0
3, 59712, Note_on_c, 0, 67, 88
3, 59760, Note_on_c, 0, 67, 0
3, 59760, Note_on_c, 0, 69, 88
3, 59808, Note_on_c, 0, 69, 0
3, 59808, Note_on_c, 0, 67, 88
3, 59856, Note_on_c, 0, 67, 0
3, 59856, Note_on_c, 0, 66, 88
3, 59904, Note_on_c, 0, 66, 0
3, 59904, Note_on_c, 0, 64, 88
3, 60048, Note_on_c, 0, 64, 0
3, 60048, Note_on_c, 0, 69, 88
3, 60096, Note_on_c, 0, 69, 0
3, 60096, Note_on_c, 0, 70, 88
3, 60240, Note_on_c, 0, 70, 0
3, 60240, Note_on_c, 0, 67, 88
3, 60288, Note_on_c, 0, 67, 0
3, 60288, Note_on_c, 0, 69, 88
3, 60672, Note_on_c, 0, 69, 0
3, 60672, End_track
4, 0, Start_track
4, 4608, Note_on_c, 0, 62, 88
4, 4800, Note_on_c, 0, 62, 0
4, 4800, Note_on_c, 0, 57, 88
4, 4944, Note_on_c, 0, 57, 0
4, 4944, Note_on_c, 0, 59, 88
4, 4992, Note_on_c, 0, 59, 0
4, 4992, Note_on_c, 0, 60, 88
4, 5136, Note_on_c, 0, 60, 0
4, 5136, Note_on_c, 0, 62, 88
4, 5184, Note_on_c, 0, 62, 0
4, 5184, Note_on_c, 0, 64, 88
4, 5376, Note_on_c, 0, 64, 0
4, 5376, Note_on_c, 0, 65, 88
4, 5568, Note_on_c, 0, 65, 0
4, 5568, Note_on_c, 0, 64, 88
4, 5712, Note_on_c, 0, 64, 0
4, 5712, Note_on_c, 0, 62, 88
4, 5760, Note_on_c, 0, 62, 0
4, 5760, Note_on_c, 0, 60, 88
4, 5952, Note_on_c, 0, 60, 0
4, 5952, Note_on_c, 0, 60, 88
4, 6000, Note_on_c, 0, 60, 0
4, 6000, Note_on_c, 0, 59, 88
4, 6048, Note_on_c, 0, 59, 0
4, 6048, Note_on_c, 0, 60, 88
4, 6096, Note_on_c, 0, 60, 0
4, 6096, Note_on_c, 0, 62, 88
4, 6144, Note_on_c, 0, 62, 0
4, 6144, Note_on_c, 0, 64, 88
4, 6528, Note_on_c, 0, 64, 0
4, 6528, Note_on_c, 0, 64, 88
4, 6720, Note_on_c, 0, 64, 0
4, 6720, Note_on_c, 0, 62, 72
4, 6912, Note_on_c, 0, 62, 0
4, 6912, Note_on_c, 0, 62, 72
4, 7056, Note_on_c, 0, 62, 0
4, 7056, Note_on_c, 0, 59, 72
4, 7104, Note_on_c, 0, 59, 0
4, 7104, Note_on_c, 0, 64, 72
4, 7248, Note_on_c, 0, 64, 0
4, 7248, Note_on_c, 0, 62, 72
4, 7296, Note_on_c, 0, 62, 0
4, 7296, Note_on_c, 0, 60, 72
4, 7440, Note_on_c, 0, 60, 0
4, 7440, Note_on_c, 0, 62, 72
4, 7488, Note_on_c, 0, 62, 0
4, 7488, Note_on_c, 0, 60, 72
4, 7632, Note_on_c, 0, 60, 0
4, 7632, Note_on_c, 0, 59, 72
4, 7680, Note_on_c, 0, 59, 0
4, 7680, Note_on_c, 0, 57, 72
4, 7824, Note_on_c, 0, 57, 0
4, 7824, Note_on_c, 0, 64, 72
4, 8016, Note_on_c, 0, 64, 0
4, 8016, Note_on_c, 0, 63, 72
4, 8064, Note_on_c, 0, 63, 0
4, 8064, Note_on_c, 0, 64, 72
4, 8208, Note_on_c, 0, 64, 0
4, 8208, Note_on_c, 0, 59, 72
4, 8256, Note_on_c, 0, 59, 0
4, 8256, Note_on_c, 0, 60, 72
4, 8400, Note_on_c, 0, 60, 0
4, 8400, Note_on_c, 0, 56, 72
4, 8448, Note_on_c, 0, 56, 0
4, 8448, Note_on_c, 0, 57, 72
4, 8592, Note_on_c, 0, 57, 0
4, 8592, Note_on_c, 0, 52, 72
4, 8640, Note_on_c, 0, 52, 0
4, 8640, Note_on_c, 0, 53, 72
4, 8832, Note_on_c, 0, 53, 0
4, 8832, Note_on_c, 0, 53, 72
4, 8880, Note_on_c, 0, 53, 0
4, 8880, Note_on_c, 0, 55, 72
4, 8928, Note_on_c, 0, 55, 0
4, 8928, Note_on_c, 0, 53, 72
4, 8976, Note_on_c, 0, 53, 0
4, 8976, Note_on_c, 0, 52, 72
4, 9024, Note_on_c, 0, 52, 0
4, 9024, Note_on_c, 0, 50, 72
4, 9216, Note_on_c, 0, 50, 0
4, 9216, Note_on_c, 0, 50, 72
4, 9312, Note_on_c, 0, 50, 0
4, 9312, Note_on_c, 0, 50, 72
4, 9336, Note_on_c, 0, 50, 0
4, 9336, Note_on_c, 0, 57, 72
4, 9360, Note_on_c, 0, 57, 0
4, 9360, Note_on_c, 0, 58, 72
4, 9384, Note_on_c, 0, 58, 0
4, 9384, Note_on_c, 0, 60, 72
4, 9408, Note_on_c, 0, 60, 0
4, 9408, Note_on_c, 0, 62, 72
4, 9552, Note_on_c, 0, 62, 0
4, 9552, Note_on_c, 0, 60, 72
4, 9600, Note_on_c, 0, 60, 0
4, 9600, Note_on_c, 0, 58, 72
4, 9744, Note_on_c, 0, 58, 0
4, 9744, Note_on_c, 0, 60, 72
4, 9792, Note_on_c, 0, 60, 0
4, 9792, Note_on_c, 0, 58, 72
4, 9936, Note_on_c, 0, 58, 0
4, 9936, Note_on_c, 0, 57, 72
4, 9984, Note_on_c, 0, 57, 0
4, 9984, Note_on_c, 0, 55, 72
4, 10080, Note_on_c, 0, 55, 0
4, 10080, Note_on_c, 0, 55, 72
4, 10104, Note_on_c, 0, 55, 0
4, 10104, Note_on_c, 0, 62, 72
4, 10128, Note_on_c, 0, 62, 0
4, 10128, Note_on_c, 0, 64, 72
4, 10152, Note_on_c, 0, 64, 0
4, 10152, Note_on_c, 0, 65, 72
4, 10176, Note_on_c, 0, 65, 0
4, 10176, Note_on_c, 0, 67, 72
4, 10320, Note_on_c, 0, 67, 0
4, 10320, Note_on_c, 0, 65, 72
4, 10368, Note_on_c, 0, 65, 0
4, 10368, Note_on_c, 0, 64, 72
4, 10512, Note_on_c, 0, 64, 0
4, 10512, Note_on_c, 0, 65, 72
4, 10560, Note_on_c, 0, 65, 0
4, 10560, Note_on_c, 0, 64, 72
4, 10704, Note_on_c, 0, 64, 0
4, 10704, Note_on_c, 0, 62, 72
4, 10752, Note_on_c, 0, 62, 0
4, 10752, Note_on_c, 0, 61, 72
4, 10944, Note_on_c, 0, 61, 0
4, 10944, Note_on_c, 0, 57, 72
4, 11136, Note_on_c, 0, 57, 0
4, 11136, Note_on_c, 0, 57, 72
4, 11328, Note_on_c, 0, 57, 0
4, 11520, Note_on_c, 0, 62, 88
4, 11904, Note_on_c, 0, 62, 0
4, 11904, Note_on_c, 0, 69, 88
4, 12192, Note_on_c, 0, 69, 0
4, 12192, Note_on_c, 0, 67, 88
4, 12288, Note_on_c, 0, 67, 0
4, 12288, Note_on_c, 0, 65, 88
4, 12576, Note_on_c, 0, 65, 0
4, 12576, Note_on_c, 0, 64, 88
4, 12672, Note_on_c, 0, 64, 0
4, 12672, Note_on_c, 0, 62, 88
4, 13056, Note_on_c, 0, 62, 0
4, 13056, Note_on_c, 0, 61, 88
4, 13440, Note_on_c, 0, 61, 0
4, 13440, Note_on_c, 0, 62, 88
4, 13728, Note_on_c, 0, 62, 0
4, 13728, Note_on_c, 0, 64, 88
4, 13824, Note_on_c, 0, 64, 0
4, 13824, Note_on_c, 0, 65, 88
4, 14208, Note_on_c, 0, 65, 0
4, 14208, Note_on_c, 0, 65, 88
4, 14352, Note_on_c, 0, 65, 0
4, 14352, Note_on_c, 0, 67, 88
4, 14400, Note_on_c, 0, 67, 0
4, 14400, Note_on_c, 0, 65, 88
4, 14544, Note_on_c, 0, 65, 0
4, 14544, Note_on_c, 0, 64, 88
4, 14592, Note_on_c, 0, 64, 0
4, 14592, Note_on_c, 0, 62, 88
4, 14784, Note_on_c, 0, 62, 0
4, 14976, Note_on_c, 0, 60, 88
4, 15360, Note_on_c, 0, 60, 0
4, 15360, Note_on_c, 0, 53, 88
4, 15648, Note_on_c, 0, 53, 0
4, 15648, Note_on_c, 0, 55, 88
4, 15744, Note_on_c, 0, 55, 0
4, 15744, Note_on_c, 0, 57, 88
4, 16032, Note_on_c, 0, 57, 0
4, 16032, Note_on_c, 0, 58, 88
4, 16128, Note_on_c, 0, 58, 0
4, 16128, Note_on_c, 0, 60, 88
4, 16512, Note_on_c, 0, 60, 0
4, 16512, Note_on_c, 0, 62, 88
4, 16896, Note_on_c, 0, 62, 0
4, 16896, Note_on_c, 0, 60, 88
4, 17184, Note_on_c, 0, 60, 0
4, 17184, Note_on_c, 0, 58, 88
4, 17280, Note_on_c, 0, 58, 0
4, 17280, Note_on_c, 0, 57, 88
4, 17664, Note_on_c, 0, 57, 0
4, 17664, Note_on_c, 0, 57, 88
4, 17808, Note_on_c, 0, 57, 0
4, 17808, Note_on_c, 0, 55, 88
4, 17856, Note_on_c, 0, 55, 0
4, 17856, Note_on_c, 0, 57, 88
4, 18000, Note_on_c, 0, 57, 0
4, 18000, Note_on_c, 0, 59, 88
4, 18048, Note_on_c, 0, 59, 0
4, 18048, Note_on_c, 0, 60, 88
4, 18240, Note_on_c, 0, 60, 0
4, 19200, Note_on_c, 0, 60, 88
4, 19392, Note_on_c, 0, 60, 0
4, 19392, Note_on_c, 0, 53, 88
4, 19536, Note_on_c, 0, 53, 0
4, 19536, Note_on_c, 0, 55, 88
4, 19584, Note_on_c, 0, 55, 0
4, 19584, Note_on_c, 0, 57, 88
4, 19728, Note_on_c, 0, 57, 0
4, 19728, Note_on_c, 0, 58, 88
4, 19776, Note_on_c, 0, 58, 0
4, 19776, Note_on_c, 0, 60, 88
4, 19968, Note_on_c, 0, 60, 0
4, 19968, Note_on_c, 0, 61, 88
4, 20160, Note_on_c, 0, 61, 0
4, 20160, Note_on_c, 0, 60, 88
4, 20304, Note_on_c, 0, 60, 0
4, 20304, Note_on_c, 0, 58, 88
4, 20352, Note_on_c, 0, 58, 0
4, 20352, Note_on_c, 0, 57, 88
4, 20544, Note_on_c, 0, 57, 0
4, 20544, Note_on_c, 0, 57, 88
4, 20592, Note_on_c, 0, 57, 0
4, 20592, Note_on_c, 0, 55, 88
4, 20640, Note_on_c, 0, 55, 0
4, 20640, Note_on_c, 0, 57, 88
4, 20688, Note_on_c, 0, 57, 0
4, 20688, Note_on_c, 0, 58, 88
4, 20736, Note_on_c, 0, 58, 0
4, 20736, Note_on_c, 0, 60, 88
4, 20928, Note_on_c, 0, 60, 0
4, 20928, Note_on_c, 0, 60, 72
4, 20976, Note_on_c, 0, 60, 0
4, 20976, Note_on_c, 0, 59, 72
4, 21024, Note_on_c, 0, 59, 0
4, 21024, Note_on_c, 0, 60, 72
4, 21072, Note_on_c, 0, 60, 0
4, 21072, Note_on_c, 0, 62, 72
4, 21120, Note_on_c, 0, 62, 0
4, 21120, Note_on_c, 0, 64, 72
4, 21312, Note_on_c, 0, 64, 0
4, 23040, Note_on_c, 0, 50, 88
4, 23424, Note_on_c, 0, 50, 0
4, 23424, Note_on_c, 0, 57, 88
4, 23712, Note_on_c, 0, 57, 0
4, 23712, Note_on_c, 0, 55, 88
4, 23808, Note_on_c, 0, 55, 0
4, 23808, Note_on_c, 0, 53, 88
4, 24096, Note_on_c, 0, 53, 0
4, 24096, Note_on_c, 0, 52, 88
4, 24192, Note_on_c, 0, 52, 0
4, 24192, Note_on_c, 0, 50, 88
4, 24576, Note_on_c, 0, 50, 0
4, 24576, Note_on_c, 0, 49, 88
4, 24960, Note_on_c, 0, 49, 0
4, 24960, Note_on_c, 0, 50, 88
4, 25248, Note_on_c, 0, 50, 0
4, 25248, Note_on_c, 0, 52, 88
4, 25344, Note_on_c, 0, 52, 0
4, 25344, Note_on_c, 0, 53, 88
4, 25728, Note_on_c, 0, 53, 0
4, 25728, Note_on_c, 0, 53, 88
4, 25872, Note_on_c, 0, 53, 0
4, 25872, Note_on_c, 0, 55, 88
4, 25920, Note_on_c, 0, 55, 0
4, 25920, Note_on_c, 0, 53, 88
4, 26064, Note_on_c, 0, 53, 0
4, 26064, Note_on_c, 0, 51, 88
4, 26112, Note_on_c, 0, 51, 0
4, 26112, Note_on_c, 0, 50, 88
4, 26256, Note_on_c, 0, 50, 0
4, 26256, Note_on_c, 0, 54, 72
4, 26304, Note_on_c, 0, 54, 0
4, 26304, Note_on_c, 0, 55, 72
4, 26448, Note_on_c, 0, 55, 0
4, 26448, Note_on_c, 0, 57, 72
4, 26496, Note_on_c, 0, 57, 0
4, 26496, Note_on_c, 0, 58, 72
4, 26688, Note_on_c, 0, 58, 0
4, 26688, Note_on_c, 0, 60, 72
4, 26880, Note_on_c, 0, 60, 0
4, 26880, Note_on_c, 0, 62, 72
4, 27072, Note_on_c, 0, 62, 0
4, 27072, Note_on_c, 0, 62, 72
4, 27120, Note_on_c, 0, 62, 0
4, 27120, Note_on_c, 0, 60, 72
4, 27168, Note_on_c, 0, 60, 0
4, 27168, Note_on_c, 0, 58, 72
4, 27216, Note_on_c, 0, 58, 0
4, 27216, Note_on_c, 0, 57, 72
4, 27264, Note_on_c, 0, 57, 0
4, 27264, Note_on_c, 0, 55, 72
4, 27456, Note_on_c, 0, 55, 0
4, 28032, Note_on_c, 0, 62, 88
4, 28224, Note_on_c, 0, 62, 0
4, 28224, Note_on_c, 0, 55, 88
4, 28368, Note_on_c, 0, 55, 0
4, 28368, Note_on_c, 0, 57, 88
4, 28416, Note_on_c, 0, 57, 0
4, 28416, Note_on_c, 0, 58, 88
4, 28560, Note_on_c, 0, 58, 0
4, 28560, Note_on_c, 0, 60, 88
4, 28608, Note_on_c, 0, 60, 0
4, 28608, Note_on_c, 0, 62, 88
4, 28800, Note_on_c, 0, 62, 0
4, 28800, Note_on_c, 0, 63, 88
4, 28992, Note_on_c, 0, 63, 0
4, 28992, Note_on_c, 0, 62, 88
4, 29136, Note_on_c, 0, 62, 0
4, 29136, Note_on_c, 0, 60, 88
4, 29184, Note_on_c, 0, 60, 0
4, 29184, Note_on_c, 0, 58, 88
4, 29376, Note_on_c, 0, 58, 0
4, 29376, Note_on_c, 0, 58, 88
4, 29424, Note_on_c, 0, 58, 0
4, 29424, Note_on_c, 0, 57, 88
4, 29472, Note_on_c, 0, 57, 0
4, 29472, Note_on_c, 0, 58, 88
4, 29520, Note_on_c, 0, 58, 0
4, 29520, Note_on_c, 0, 60, 88
4, 29568, Note_on_c, 0, 60, 0
4, 29568, Note_on_c, 0, 62, 88
4, 29760, Note_on_c, 0, 62, 0
4, 29760, Note_on_c, 0, 62, 72
4, 29808, Note_on_c, 0, 62, 0
4, 29808, Note_on_c, 0, 55, 72
4, 29856, Note_on_c, 0, 55, 0
4, 29856, Note_on_c, 0, 57, 72
4, 29904, Note_on_c, 0, 57, 0
4, 29904, Note_on_c, 0, 59, 72
4, 29952, Note_on_c, 0, 59, 0
4, 29952, Note_on_c, 0, 60, 72
4, 30144, Note_on_c, 0, 60, 0
4, 36096, Note_on_c, 0, 50, 88
4, 36288, Note_on_c, 0, 50, 0
4, 36288, Note_on_c, 0, 57, 88
4, 36432, Note_on_c, 0, 57, 0
4, 36432, Note_on_c, 0, 55, 88
4, 36480, Note_on_c, 0, 55, 0
4, 36480, Note_on_c, 0, 53, 88
4, 36624, Note_on_c, 0, 53, 0
4, 36624, Note_on_c, 0, 52, 88
4, 36672, Note_on_c, 0, 52, 0
4, 36672, Note_on_c, 0, 50, 88
4, 36864, Note_on_c, 0, 50, 0
4, 36864, Note_on_c, 0, 49, 88
4, 37056, Note_on_c, 0, 49, 0
4, 37056, Note_on_c, 0, 50, 88
4, 37200, Note_on_c, 0, 50, 0
4, 37200, Note_on_c, 0, 52, 88
4, 37248, Note_on_c, 0, 52, 0
4, 37248, Note_on_c, 0, 53, 88
4, 37440, Note_on_c, 0, 53, 0
4, 37440, Note_on_c, 0, 53, 88
4, 37488, Note_on_c, 0, 53, 0
4, 37488, Note_on_c, 0, 55, 88
4, 37536, Note_on_c, 0, 55, 0
4, 37536, Note_on_c, 0, 53, 88
4, 37584, Note_on_c, 0, 53, 0
4, 37584, Note_on_c, 0, 52, 88
4, 37632, Note_on_c, 0, 52, 0
4, 37632, Note_on_c, 0, 50, 88
4, 37776, Note_on_c, 0, 50, 0
4, 37776, Note_on_c, 0, 49, 72
4, 37824, Note_on_c, 0, 49, 0
4, 37824, Note_on_c, 0, 50, 72
4, 37968, Note_on_c, 0, 50, 0
4, 37968, Note_on_c, 0, 52, 72
4, 38016, Note_on_c, 0, 52, 0
4, 38016, Note_on_c, 0, 53, 72
4, 38112, Note_on_c, 0, 53, 0
4, 38520, Note_on_c, 0, 52, 72
4, 38544, Note_on_c, 0, 52, 0
4, 38544, Note_on_c, 0, 54, 72
4, 38568, Note_on_c, 0, 54, 0
4, 38568, Note_on_c, 0, 56, 72
4, 38592, Note_on_c, 0, 56, 0
4, 38592, Note_on_c, 0, 57, 72
4, 38784, Note_on_c, 0, 57, 0
4, 38784, Note_on_c, 0, 57, 72
4, 38880, Note_on_c, 0, 57, 0
4, 39672, Note_on_c, 0, 50, 72
4, 39696, Note_on_c, 0, 50, 0
4, 39696, Note_on_c, 0, 52, 72
4, 39720, Note_on_c, 0, 52, 0
4, 39720, Note_on_c, 0, 54, 72
4, 39744, Note_on_c, 0, 54, 0
4, 39744, Note_on_c, 0, 55, 72
4, 39936, Note_on_c, 0, 55, 0
4, 39936, Note_on_c, 0, 55, 72
4, 40032, Note_on_c, 0, 55, 0
4, 40824, Note_on_c, 0, 48, 72
4, 40848, Note_on_c, 0, 48, 0
4, 40848, Note_on_c, 0, 50, 72
4, 40872, Note_on_c, 0, 50, 0
4, 40872, Note_on_c, 0, 52, 72
4, 40896, Note_on_c, 0, 52, 0
4, 40896, Note_on_c, 0, 53, 72
4, 41088, Note_on_c, 0, 53, 0
4, 41088, Note_on_c, 0, 53, 72
4, 41136, Note_on_c, 0, 53, 0
4, 41136, Note_on_c, 0, 55, 72
4, 41184, Note_on_c, 0, 55, 0
4, 41184, Note_on_c, 0, 53, 72
4, 41232, Note_on_c, 0, 53, 0
4, 41232, Note_on_c, 0, 52, 72
4, 41280, Note_on_c, 0, 52, 0
4, 41280, Note_on_c, 0, 50, 72
4, 41328, Note_on_c, 0, 50, 0
4, 41328, Note_on_c, 0, 53, 72
4, 41376, Note_on_c, 0, 53, 0
4, 41376, Note_on_c, 0, 55, 72
4, 41424, Note_on_c, 0, 55, 0
4, 41424, Note_on_c, 0, 57, 72
4, 41472, Note_on_c, 0, 57, 0
4, 41472, Note_on_c, 0, 58, 72
4, 41520, Note_on_c, 0, 58, 0
4, 41520, Note_on_c, 0, 60, 72
4, 41568, Note_on_c, 0, 60, 0
4, 41568, Note_on_c, 0, 58, 72
4, 41616, Note_on_c, 0, 58, 0
4, 41616, Note_on_c, 0, 57, 72
4, 41664, Note_on_c, 0, 57, 0
4, 41664, Note_on_c, 0, 55, 72
4, 41712, Note_on_c, 0, 55, 0
4, 41712, Note_on_c, 0, 53, 72
4, 41760, Note_on_c, 0, 53, 0
4, 41760, Note_on_c, 0, 52, 72
4, 41808, Note_on_c, 0, 52, 0
4, 41808, Note_on_c, 0, 50, 72
4, 41856, Note_on_c, 0, 50, 0
4, 41856, Note_on_c, 0, 49, 72
4, 41904, Note_on_c, 0, 49, 0
4, 41904, Note_on_c, 0, 55, 72
4, 41952, Note_on_c, 0, 55, 0
4, 41952, Note_on_c, 0, 57, 72
4, 42000, Note_on_c, 0, 57, 0
4, 42000, Note_on_c, 0, 58, 72
4, 42048, Note_on_c, 0, 58, 0
4, 42048, Note_on_c, 0, 57, 72
4, 42096, Note_on_c, 0, 57, 0
4, 42096, Note_on_c, 0, 55, 72
4, 42144, Note_on_c, 0, 55, 0
4, 42144, Note_on_c, 0, 53, 72
4, 42192, Note_on_c, 0, 53, 0
4, 42192, Note_on_c, 0, 52, 72
4, 42240, Note_on_c, 0, 52, 0
4, 42240, Note_on_c, 0, 50, 72
4, 42288, Note_on_c, 0, 50, 0
4, 42288, Note_on_c, 0, 57, 72
4, 42336, Note_on_c, 0, 57, 0
4, 42336, Note_on_c, 0, 58, 72
4, 42384, Note_on_c, 0, 58, 0
4, 42384, Note_on_c, 0, 60, 72
4, 42432, Note_on_c, 0, 60, 0
4, 42432, Note_on_c, 0, 58, 72
4, 42480, Note_on_c, 0, 58, 0
4, 42480, Note_on_c, 0, 57, 72
4, 42528, Note_on_c, 0, 57, 0
4, 42528, Note_on_c, 0, 55, 72
4, 42576, Note_on_c, 0, 55, 0
4, 42576, Note_on_c, 0, 54, 72
4, 42624, Note_on_c, 0, 54, 0
4, 42624, Note_on_c, 0, 55, 72
4, 43008, Note_on_c, 0, 55, 0
4, 43008, Note_on_c, 0, 55, 72
4, 43056, Note_on_c, 0, 55, 0
4, 43056, Note_on_c, 0, 58, 72
4, 43104, Note_on_c, 0, 58, 0
4, 43104, Note_on_c, 0, 57, 72
4, 43152, Note_on_c, 0, 57, 0
4, 43152, Note_on_c, 0, 55, 72
4, 43200, Note_on_c, 0, 55, 0
4, 43200, Note_on_c, 0, 53, 72
4, 43392, Note_on_c, 0, 53, 0
4, 43392, Note_on_c, 0, 53, 72
4, 43584, Note_on_c, 0, 53, 0
4, 43584, Note_on_c, 0, 58, 72
4, 43776, Note_on_c, 0, 58, 0
4, 43776, Note_on_c, 0, 57, 72
4, 43968, Note_on_c, 0, 57, 0
4, 44160, Note_on_c, 0, 62, 88
4, 44352, Note_on_c, 0, 62, 0
4, 44352, Note_on_c, 0, 69, 88
4, 44496, Note_on_c, 0, 69, 0
4, 44496, Note_on_c, 0, 67, 88
4, 44544, Note_on_c, 0, 67, 0
4, 44544, Note_on_c, 0, 65, 88
4, 44688, Note_on_c, 0, 65, 0
4, 44688, Note_on_c, 0, 64, 88
4, 44736, Note_on_c, 0, 64, 0
4, 44736, Note_on_c, 0, 62, 88
4, 44928, Note_on_c, 0, 62, 0
4, 44928, Note_on_c, 0, 61, 88
4, 45120, Note_on_c, 0, 61, 0
4, 45120, Note_on_c, 0, 62, 88
4, 45264, Note_on_c, 0, 62, 0
4, 45264, Note_on_c, 0, 64, 88
4, 45312, Note_on_c, 0, 64, 0
4, 45312, Note_on_c, 0, 65, 88
4, 45504, Note_on_c, 0, 65, 0
4, 45504, Note_on_c, 0, 65, 88
4, 45552, Note_on_c, 0, 65, 0
4, 45552, Note_on_c, 0, 69, 88
4, 45600, Note_on_c, 0, 69, 0
4, 45600, Note_on_c, 0, 67, 88
4, 45648, Note_on_c, 0, 67, 0
4, 45648, Note_on_c, 0, 65, 88
4, 45696, Note_on_c, 0, 65, 0
4, 45696, Note_on_c, 0, 64, 88
4, 45744, Note_on_c, 0, 64, 0
4, 45744, Note_on_c, 0, 65, 72
4, 45792, Note_on_c, 0, 65, 0
4, 45792, Note_on_c, 0, 64, 72
4, 45840, Note_on_c, 0, 64, 0
4, 45840, Note_on_c, 0, 62, 72
4, 45888, Note_on_c, 0, 62, 0
4, 45888, Note_on_c, 0, 61, 72
4, 46080, Note_on_c, 0, 61, 0
4, 46080, Note_on_c, 0, 62, 72
4, 46224, Note_on_c, 0, 62, 0
4, 46224, Note_on_c, 0, 57, 72
4, 46272, Note_on_c, 0, 57, 0
4, 46272, Note_on_c, 0, 62, 72
4, 46368, Note_on_c, 0, 62, 0
4, 46368, Note_on_c, 0, 62, 72
4, 46392, Note_on_c, 0, 62, 0
4, 46392, Note_on_c, 0, 60, 72
4, 46416, Note_on_c, 0, 60, 0
4, 46416, Note_on_c, 0, 58, 72
4, 46440, Note_on_c, 0, 58, 0
4, 46440, Note_on_c, 0, 57, 72
4, 46464, Note_on_c, 0, 57, 0
4, 46464, Note_on_c, 0, 58, 72
4, 46608, Note_on_c, 0, 58, 0
4, 46608, Note_on_c, 0, 55, 72
4, 46656, Note_on_c, 0, 55, 0
4, 46656, Note_on_c, 0, 60, 72
4, 46848, Note_on_c, 0, 60, 0
4, 46848, Note_on_c, 0, 60, 72
4, 47040, Note_on_c, 0, 60, 0
4, 48000, Note_on_c, 0, 53, 88
4, 48192, Note_on_c, 0, 53, 0
4, 48192, Note_on_c, 0, 60, 88
4, 48336, Note_on_c, 0, 60, 0
4, 48336, Note_on_c, 0, 58, 88
4, 48384, Note_on_c, 0, 58, 0
4, 48384, Note_on_c, 0, 57, 88
4, 48528, Note_on_c, 0, 57, 0
4, 48528, Note_on_c, 0, 55, 88
4, 48576, Note_on_c, 0, 55, 0
4, 48576, Note_on_c, 0, 53, 88
4, 48768, Note_on_c, 0, 53, 0
4, 48768, Note_on_c, 0, 52, 88
4, 48960, Note_on_c, 0, 52, 0
4, 48960, Note_on_c, 0, 57, 88
4, 49104, Note_on_c, 0, 57, 0
4, 49104, Note_on_c, 0, 55, 88
4, 49152, Note_on_c, 0, 55, 0
4, 49152, Note_on_c, 0, 57, 88
4, 49344, Note_on_c, 0, 57, 0
4, 49344, Note_on_c, 0, 57, 88
4, 49392, Note_on_c, 0, 57, 0
4, 49392, Note_on_c, 0, 58, 88
4, 49440, Note_on_c, 0, 58, 0
4, 49440, Note_on_c, 0, 57, 88
4, 49488, Note_on_c, 0, 57, 0
4, 49488, Note_on_c, 0, 55, 88
4, 49536, Note_on_c, 0, 55, 0
4, 49536, Note_on_c, 0, 53, 88
4, 49584, Note_on_c, 0, 53, 0
4, 49584, Note_on_c, 0, 55, 72
4, 49632, Note_on_c, 0, 55, 0
4, 49632, Note_on_c, 0, 53, 72
4, 49680, Note_on_c, 0, 53, 0
4, 49680, Note_on_c, 0, 52, 72
4, 49728, Note_on_c, 0, 52, 0
4, 49728, Note_on_c, 0, 50, 72
4, 49872, Note_on_c, 0, 50, 0
4, 49872, Note_on_c, 0, 57, 72
4, 49920, Note_on_c, 0, 57, 0
4, 49920, Note_on_c, 0, 62, 72
4, 50064, Note_on_c, 0, 62, 0
4, 50064, Note_on_c, 0, 60, 72
4, 50112, Note_on_c, 0, 60, 0
4, 50112, Note_on_c, 0, 58, 72
4, 50256, Note_on_c, 0, 58, 0
4, 50256, Note_on_c, 0, 57, 72
4, 50304, Note_on_c, 0, 57, 0
4, 50304, Note_on_c, 0, 55, 72
4, 50400, Note_on_c, 0, 55, 0
4, 50736, Note_on_c, 0, 52, 72
4, 50784, Note_on_c, 0, 52, 0
4, 50784, Note_on_c, 0, 53, 72
4, 50832, Note_on_c, 0, 53, 0
4, 50832, Note_on_c, 0, 55, 72
4, 50880, Note_on_c, 0, 55, 0
4, 50880, Note_on_c, 0, 57, 72
4, 51072, Note_on_c, 0, 57, 0
4, 51072, Note_on_c, 0, 57, 72
4, 51120, Note_on_c, 0, 57, 0
4, 51120, Note_on_c, 0, 58, 72
4, 51168, Note_on_c, 0, 58, 0
4, 51168, Note_on_c, 0, 57, 72
4, 51216, Note_on_c, 0, 57, 0
4, 51216, Note_on_c, 0, 55, 72
4, 51264, Note_on_c, 0, 55, 0
4, 51264, Note_on_c, 0, 53, 72
4, 51456, Note_on_c, 0, 53, 0
4, 51456, Note_on_c, 0, 53, 72
4, 51504, Note_on_c, 0, 53, 0
4, 51504, Note_on_c, 0, 52, 72
4, 51552, Note_on_c, 0, 52, 0
4, 51552, Note_on_c, 0, 50, 72
4, 51600, Note_on_c, 0, 50, 0
4, 51600, Note_on_c, 0, 49, 72
4, 51648, Note_on_c, 0, 49, 0
4, 51648, Note_on_c, 0, 50, 72
4, 51840, Note_on_c, 0, 50, 0
4, 51840, Note_on_c, 0, 50, 72
4, 52032, Note_on_c, 0, 50, 0
4, 52176, Note_on_c, 0, 50, 72
4, 52224, Note_on_c, 0, 50, 0
4, 52224, Note_on_c, 0, 55, 72
4, 52368, Note_on_c, 0, 55, 0
4, 52368, Note_on_c, 0, 53, 72
4, 52416, Note_on_c, 0, 53, 0
4, 52416, Note_on_c, 0, 52, 72
4, 52560, Note_on_c, 0, 52, 0
4, 52560, Note_on_c, 0, 50, 72
4, 52608, Note_on_c, 0, 50, 0
4, 52608, Note_on_c, 0, 52, 72
4, 52896, Note_on_c, 0, 52, 0
4, 52896, Note_on_c, 0, 52, 72
4, 52944, Note_on_c, 0, 52, 0
4, 52944, Note_on_c, 0, 48, 72
4, 52992, Note_on_c, 0, 48, 0
4, 52992, Note_on_c, 0, 53, 72
4, 53136, Note_on_c, 0, 53, 0
4, 53136, Note_on_c, 0, 52, 72
4, 53184, Note_on_c, 0, 52, 0
4, 53184, Note_on_c, 0, 50, 72
4, 53328, Note_on_c, 0, 50, 0
4, 53328, Note_on_c, 0, 49, 72
4, 53376, Note_on_c, 0, 49, 0
4, 53376, Note_on_c, 0, 50, 72
4, 53664, Note_on_c, 0, 50, 0
4, 53664, Note_on_c, 0, 50, 72
4, 53712, Note_on_c, 0, 50, 0
4, 53712, Note_on_c, 0, 55, 72
4, 53760, Note_on_c, 0, 55, 0
4, 53760, Note_on_c, 0, 55, 72
4, 53952, Note_on_c, 0, 55, 0
4, 54096, Note_on_c, 0, 52, 72
4, 54144, Note_on_c, 0, 52, 0
4, 54144, Note_on_c, 0, 57, 72
4, 54288, Note_on_c, 0, 57, 0
4, 54288, Note_on_c, 0, 55, 72
4, 54336, Note_on_c, 0, 55, 0
4, 54336, Note_on_c, 0, 53, 72
4, 54480, Note_on_c, 0, 53, 0
4, 54480, Note_on_c, 0, 60, 72
4, 54528, Note_on_c, 0, 60, 0
4, 54528, Note_on_c, 0, 62, 72
4, 54672, Note_on_c, 0, 62, 0
4, 54672, Note_on_c, 0, 60, 72
4, 54720, Note_on_c, 0, 60, 0
4, 54720, Note_on_c, 0, 58, 72
4, 54864, Note_on_c, 0, 58, 0
4, 54864, Note_on_c, 0, 57, 72
4, 54912, Note_on_c, 0, 57, 0
4, 54912, Note_on_c, 0, 55, 72
4, 55200, Note_on_c, 0, 55, 0
4, 55248, Note_on_c, 0, 55, 72
4, 55296, Note_on_c, 0, 55, 0
4, 55296, Note_on_c, 0, 55, 72
4, 55488, Note_on_c, 0, 55, 0
4, 55584, Note_on_c, 0, 57, 72
4, 55680, Note_on_c, 0, 57, 0
4, 55680, Note_on_c, 0, 57, 72
4, 55776, Note_on_c, 0, 57, 0
4, 56016, Note_on_c, 0, 58, 72
4, 56064, Note_on_c, 0, 58, 0
4, 56064, Note_on_c, 0, 57, 72
4, 56208, Note_on_c, 0, 57, 0
4, 56208, Note_on_c, 0, 58, 72
4, 56256, Note_on_c, 0, 58, 0
4, 56256, Note_on_c, 0, 57, 72
4, 56304, Note_on_c, 0, 57, 0
4, 56304, Note_on_c, 0, 57, 88
4, 56352, Note_on_c, 0, 57, 0
4, 56448, Note_on_c, 0, 57, 88
4, 56640, Note_on_c, 0, 57, 0
4, 56640, Note_on_c, 0, 62, 88
4, 56784, Note_on_c, 0, 62, 0
4, 56784, Note_on_c, 0, 60, 88
4, 56832, Note_on_c, 0, 60, 0
4, 56832, Note_on_c, 0, 58, 88
4, 56976, Note_on_c, 0, 58, 0
4, 56976, Note_on_c, 0, 57, 88
4, 57024, Note_on_c, 0, 57, 0
4, 57024, Note_on_c, 0, 55, 88
4, 57216, Note_on_c, 0, 55, 0
4, 57216, Note_on_c, 0, 54, 88
4, 57408, Note_on_c, 0, 54, 0
4, 57408, Note_on_c, 0, 55, 88
4, 57552, Note_on_c, 0, 55, 0
4, 57552, Note_on_c, 0, 57, 88
4, 57600, Note_on_c, 0, 57, 0
4, 57600, Note_on_c, 0, 58, 88
4, 57792, Note_on_c, 0, 58, 0
4, 57792, Note_on_c, 0, 58, 88
4, 57840, Note_on_c, 0, 58, 0
4, 57840, Note_on_c, 0, 60, 88
4, 57888, Note_on_c, 0, 60, 0
4, 57888, Note_on_c, 0, 58, 88
4, 57936, Note_on_c, 0, 58, 0
4, 57936, Note_on_c, 0, 57, 88
4, 57984, Note_on_c, 0, 57, 0
4, 57984, Note_on_c, 0, 55, 88
4, 58272, Note_on_c, 0, 55, 0
4, 58272, Note_on_c, 0, 57, 88
4, 58368, Note_on_c, 0, 57, 0
4, 58368, Note_on_c, 0, 58, 88
4, 58512, Note_on_c, 0, 58, 0
4, 58512, Note_on_c, 0, 60, 88
4, 58560, Note_on_c, 0, 60, 0
4, 58560, Note_on_c, 0, 62, 88
4, 58704, Note_on_c, 0, 62, 0
4, 58704, Note_on_c, 0, 58, 88
4, 58752, Note_on_c, 0, 58, 0
4, 58752, Note_on_c, 0, 60, 88
4, 58896, Note_on_c, 0, 60, 0
4, 58896, Note_on_c, 0, 57, 88
4, 58944, Note_on_c, 0, 57, 0
4, 58944, Note_on_c, 0, 58, 88
4, 59088, Note_on_c, 0, 58, 0
4, 59088, Note_on_c, 0, 60, 88
4, 59136, Note_on_c, 0, 60, 0
4, 59136, Note_on_c, 0, 62, 88
4, 59232, Note_on_c, 0, 62, 0
4, 59232, Note_on_c, 0, 62, 88
4, 59256, Note_on_c, 0, 62, 0
4, 59256, Note_on_c, 0, 50, 88
4, 59280, Note_on_c, 0, 50, 0
4, 59280, Note_on_c, 0, 52, 88
4, 59304, Note_on_c, 0, 52, 0
4, 59304, Note_on_c, 0, 54, 88
4, 59328, Note_on_c, 0, 54, 0
4, 59328, Note_on_c, 0, 55, 88
4, 59424, Note_on_c, 0, 55, 0
4, 59424, Note_on_c, 0, 55, 88
4, 59472, Note_on_c, 0, 55, 0
4, 59472, Note_on_c, 0, 57, 88
4, 59520, Note_on_c, 0, 57, 0
4, 59520, Note_on_c, 0, 58, 88
4, 59664, Note_on_c, 0, 58, 0
4, 59664, Note_on_c, 0, 60, 88
4, 59712, Note_on_c, 0, 60, 0
4, 59712, Note_on_c, 0, 62, 88
4, 59760, Note_on_c, 0, 62, 0
4, 59760, Note_on_c, 0, 60, 88
4, 59808, Note_on_c, 0, 60, 0
4, 59808, Note_on_c, 0, 58, 88
4, 59856, Note_on_c, 0, 58, 0
4, 59856, Note_on_c, 0, 57, 88
4, 59904, Note_on_c, 0, 57, 0
4, 59904, Note_on_c, 0, 55, 88
4, 60000, Note_on_c, 0, 55, 0
4, 60240, Note_on_c, 0, 55, 88
4, 60288, Note_on_c, 0, 55, 0
4, 60288, Note_on_c, 0, 54, 88
4, 60672, Note_on_c, 0, 54, 0
4, 60672, End_track
5, 0, Start_track
5, 0, Note_on_c, 0, 50, 88
5, 384, Note_on_c, 0, 50, 0
5, 384, Note_on_c, 0, 57, 88
5, 672, Note_on_c, 0, 57, 0
5, 672, Note_on_c, 0, 55, 88
5, 768, Note_on_c, 0, 55, 0
5, 768, Note_on_c, 0, 53, 88
5, 1056, Note_on_c, 0, 53, 0
5, 1056, Note_on_c, 0, 52, 88
5, 1152, Note_on_c, 0, 52, 0
5, 1152, Note_on_c, 0, 50, 88
5, 1536, Note_on_c, 0, 50, 0
5, 1536, Note_on_c, 0, 49, 88
5, 1920, Note_on_c, 0, 49, 0
5, 1920, Note_on_c, 0, 50, 88
5, 2208, Note_on_c, 0, 50, 0
5, 2208, Note_on_c, 0, 52, 88
5, 2304, Note_on_c, 0, 52, 0
5, 2304, Note_on_c, 0, 53, 88
5, 2688, Note_on_c, 0, 53, 0
5, 2688, Note_on_c, 0, 53, 88
5, 2832, Note_on_c, 0, 53, 0
5, 2832, Note_on_c, 0, 55, 88
5, 2880, Note_on_c, 0, 55, 0
5, 2880, Note_on_c, 0, 53, 88
5, 3024, Note_on_c, 0, 53, 0
5, 3024, Note_on_c, 0, 52, 88
5, 3072, Note_on_c, 0, 52, 0
5, 3072, Note_on_c, 0, 50, 88
5, 3216, Note_on_c, 0, 50, 0
5, 3216, Note_on_c, 0, 38, 72
5, 3264, Note_on_c, 0, 38, 0
5, 3264, Note_on_c, 0, 40, 72
5, 3408, Note_on_c, 0, 40, 0
5, 3408, Note_on_c, 0, 41, 72
5, 3456, Note_on_c, 0, 41, 0
5, 3456, Note_on_c, 0, 43, 72
5, 3600, Note_on_c, 0, 43, 0
5, 3600, Note_on_c, 0, 45, 72
5, 3648, Note_on_c, 0, 45, 0
5, 3648, Note_on_c, 0, 43, 72
5, 3792, Note_on_c, 0, 43, 0
5, 3792, Note_on_c, 0, 41, 72
5, 3840, Note_on_c, 0, 41, 0
5, 3840, Note_on_c, 0, 40, 72
5, 3984, Note_on_c, 0, 40, 0
5, 3984, Note_on_c, 0, 52, 72
5, 4032, Note_on_c, 0, 52, 0
5, 4032, Note_on_c, 0, 53, 72
5, 4176, Note_on_c, 0, 53, 0
5, 4176, Note_on_c, 0, 55, 72
5, 4224, Note_on_c, 0, 55, 0
5, 4224, Note_on_c, 0, 57, 72
5, 4368, Note_on_c, 0, 57, 0
5, 4368, Note_on_c, 0, 58, 72
5, 4416, Note_on_c, 0, 58, 0
5, 4416, Note_on_c, 0, 57, 72
5, 4560, Note_on_c, 0, 57, 0
5, 4560, Note_on_c, 0, 55, 72
5, 4608, Note_on_c, 0, 55, 0
5, 4608, Note_on_c, 0, 53, 72
5, 4800, Note_on_c, 0, 53, 0
5, 4800, Note_on_c, 0, 50, 72
5, 4992, Note_on_c, 0, 50, 0
5, 4992, Note_on_c, 0, 57, 72
5, 5376, Note_on_c, 0, 57, 0
5, 5376, Note_on_c, 0, 57, 72
5, 5760, Note_on_c, 0, 57, 0
5, 5760, Note_on_c, 0, 57, 72
5, 6144, Note_on_c, 0, 57, 0
5, 6144, Note_on_c, 0, 57, 72
5, 6288, Note_on_c, 0, 57, 0
5, 6288, Note_on_c, 0, 52, 72
5, 6336, Note_on_c, 0, 52, 0
5, 6336, Note_on_c, 0, 57, 72
5, 6480, Note_on_c, 0, 57, 0
5, 6480, Note_on_c, 0, 55, 72
5, 6528, Note_on_c, 0, 55, 0
5, 6528, Note_on_c, 0, 53, 72
5, 6672, Note_on_c, 0, 53, 0
5, 6672, Note_on_c, 0, 52, 72
5, 6720, Note_on_c, 0, 52, 0
5, 6720, Note_on_c, 0, 53, 72
5, 6864, Note_on_c, 0, 53, 0
5, 6864, Note_on_c, 0, 50, 72
5, 6912, Note_on_c, 0, 50, 0
5, 6912, Note_on_c, 0, 52, 72
5, 7200, Note_on_c, 0, 52, 0
5, 7200, Note_on_c, 0, 52, 72
5, 7296, Note_on_c, 0, 52, 0
5, 7296, Note_on_c, 0, 53, 72
5, 7440, Note_on_c, 0, 53, 0
5, 7440, Note_on_c, 0, 52, 72
5, 7488, Note_on_c, 0, 52, 0
5, 7488, Note_on_c, 0, 54, 72
5, 7632, Note_on_c, 0, 54, 0
5, 7632, Note_on_c, 0, 56, 72
5, 7680, Note_on_c, 0, 56, 0
5, 7680, Note_on_c, 0, 57, 72
5, 7824, Note_on_c, 0, 57, 0
5, 7824, Note_on_c, 0, 55, 72
5, 7872, Note_on_c, 0, 55, 0
5, 7872, Note_on_c, 0, 53, 72
5, 8064, Note_on_c, 0, 53, 0
5, 8064, Note_on_c, 0, 52, 72
5, 8448, Note_on_c, 0, 52, 0
5, 10752, Note_on_c, 0, 57, 88
5, 10944, Note_on_c, 0, 57, 0
5, 10944, Note_on_c, 0, 50, 88
5, 11088, Note_on_c, 0, 50, 0
5, 11088, Note_on_c, 0, 52, 88
5, 11136, Note_on_c, 0, 52, 0
5, 11136, Note_on_c, 0, 53, 88
5, 11280, Note_on_c, 0, 53, 0
5, 11280, Note_on_c, 0, 55, 88
5, 11328, Note_on_c, 0, 55, 0
5, 11328, Note_on_c, 0, 57, 88
5, 11520, Note_on_c, 0, 57, 0
5, 11520, Note_on_c, 0, 58, 88
5, 11712, Note_on_c, 0, 58, 0
5, 11712, Note_on_c, 0, 57, 88
5, 11856, Note_on_c, 0, 57, 0
5, 11856, Note_on_c, 0, 55, 88
5, 11904, Note_on_c, 0, 55, 0
5, 11904, Note_on_c, 0, 53, 88
5, 12096, Note_on_c, 0, 53, 0
5, 12096, Note_on_c, 0, 53, 88
5, 12144, Note_on_c, 0, 53, 0
5, 12144, Note_on_c, 0, 52, 88
5, 12192, Note_on_c, 0, 52, 0
5, 12192, Note_on_c, 0, 53, 88
5, 12240, Note_on_c, 0, 53, 0
5, 12240, Note_on_c, 0, 55, 88
5, 12288, Note_on_c, 0, 55, 0
5, 12288, Note_on_c, 0, 57, 88
5, 12672, Note_on_c, 0, 57, 0
5, 12960, Note_on_c, 0, 58, 72
5, 13056, Note_on_c, 0, 58, 0
5, 13056, Note_on_c, 0, 57, 72
5, 13200, Note_on_c, 0, 57, 0
5, 13200, Note_on_c, 0, 55, 72
5, 13248, Note_on_c, 0, 55, 0
5, 13248, Note_on_c, 0, 53, 72
5, 13440, Note_on_c, 0, 53, 0
5, 13440, Note_on_c, 0, 53, 72
5, 13536, Note_on_c, 0, 53, 0
5, 13536, Note_on_c, 0, 53, 72
5, 13560, Note_on_c, 0, 53, 0
5, 13560, Note_on_c, 0, 55, 72
5, 13584, Note_on_c, 0, 55, 0
5, 13584, Note_on_c, 0, 53, 72
5, 13608, Note_on_c, 0, 53, 0
5, 13608, Note_on_c, 0, 52, 72
5, 13632, Note_on_c, 0, 52, 0
5, 13632, Note_on_c, 0, 50, 72
5, 13824, Note_on_c, 0, 50, 0
5, 13944, Note_on_c, 0, 50, 72
5, 13968, Note_on_c, 0, 50, 0
5, 13968, Note_on_c, 0, 52, 72
5, 13992, Note_on_c, 0, 52, 0
5, 13992, Note_on_c, 0, 53, 72
5, 14016, Note_on_c, 0, 53, 0
5, 14016, Note_on_c, 0, 55, 72
5, 14208, Note_on_c, 0, 55, 0
5, 14208, Note_on_c, 0, 55, 72
5, 14304, Note_on_c, 0, 55, 0
5, 14304, Note_on_c, 0, 55, 72
5, 14328, Note_on_c, 0, 55, 0
5, 14328, Note_on_c, 0, 52, 72
5, 14352, Note_on_c, 0, 52, 0
5, 14352, Note_on_c, 0, 53, 72
5, 14376, Note_on_c, 0, 53, 0
5, 14376, Note_on_c, 0, 55, 72
5, 14400, Note_on_c, 0, 55, 0
5, 14400, Note_on_c, 0, 57, 72
5, 14544, Note_on_c, 0, 57, 0
5, 14544, Note_on_c, 0, 55, 72
5, 14592, Note_on_c, 0, 55, 0
5, 14592, Note_on_c, 0, 53, 72
5, 14736, Note_on_c, 0, 53, 0
5, 14736, Note_on_c, 0, 50, 72
5, 14784, Note_on_c, 0, 50, 0
5, 14784, Note_on_c, 0, 55, 72
5, 14928, Note_on_c, 0, 55, 0
5, 14928, Note_on_c, 0, 53, 72
5, 14976, Note_on_c, 0, 53, 0
5, 14976, Note_on_c, 0, 52, 72
5, 15072, Note_on_c, 0, 52, 0
5, 15072, Note_on_c, 0, 52, 72
5, 15096, Note_on_c, 0, 52, 0
5, 15096, Note_on_c, 0, 48, 72
5, 15120, Note_on_c, 0, 48, 0
5, 15120, Note_on_c, 0, 50, 72
5, 15144, Note_on_c, 0, 50, 0
5, 15144, Note_on_c, 0, 52, 72
5, 15168, Note_on_c, 0, 52, 0
5, 15168, Note_on_c, 0, 53, 72
5, 15312, Note_on_c, 0, 53, 0
5, 15312, Note_on_c, 0, 51, 72
5, 15360, Note_on_c, 0, 51, 0
5, 15360, Note_on_c, 0, 50, 72
5, 15504, Note_on_c, 0, 50, 0
5, 15504, Note_on_c, 0, 48, 72
5, 15552, Note_on_c, 0, 48, 0
5, 15552, Note_on_c, 0, 50, 72
5, 15696, Note_on_c, 0, 50, 0
5, 15696, Note_on_c, 0, 52, 72
5, 15744, Note_on_c, 0, 52, 0
5, 15744, Note_on_c, 0, 53, 72
5, 15888, Note_on_c, 0, 53, 0
5, 15888, Note_on_c, 0, 52, 72
5, 15936, Note_on_c, 0, 52, 0
5, 15936, Note_on_c, 0, 53, 72
5, 16080, Note_on_c, 0, 53, 0
5, 16080, Note_on_c, 0, 55, 72
5, 16128, Note_on_c, 0, 55, 0
5, 16128, Note_on_c, 0, 57, 72
5, 16416, Note_on_c, 0, 57, 0
5, 16416, Note_on_c, 0, 57, 72
5, 16440, Note_on_c, 0, 57, 0
5, 16440, Note_on_c, 0, 53, 72
5, 16464, Note_on_c, 0, 53, 0
5, 16464, Note_on_c, 0, 55, 72
5, 16488, Note_on_c, 0, 55, 0
5, 16488, Note_on_c, 0, 57, 72
5, 16512, Note_on_c, 0, 57, 0
5, 16512, Note_on_c, 0, 58, 72
5, 16656, Note_on_c, 0, 58, 0
5, 16656, Note_on_c, 0, 57, 72
5, 16704, Note_on_c, 0, 57, 0
5, 16704, Note_on_c, 0, 55, 72
5, 16848, Note_on_c, 0, 55, 0
5, 16848, Note_on_c, 0, 53, 72
5, 16896, Note_on_c, 0, 53, 0
5, 16896, Note_on_c, 0, 52, 72
5, 17040, Note_on_c, 0, 52, 0
5, 17040, Note_on_c, 0, 48, 72
5, 17088, Note_on_c, 0, 48, 0
5, 17088, Note_on_c, 0, 53, 72
5, 17280, Note_on_c, 0, 53, 0
5, 17280, Note_on_c, 0, 53, 72
5, 17424, Note_on_c, 0, 53, 0
5, 17424, Note_on_c, 0, 55, 72
5, 17472, Note_on_c, 0, 55, 0
5, 17472, Note_on_c, 0, 53, 72
5, 17616, Note_on_c, 0, 53, 0
5, 17616, Note_on_c, 0, 52, 72
5, 17664, Note_on_c, 0, 52, 0
5, 17664, Note_on_c, 0, 50, 72
5, 18048, Note_on_c, 0, 50, 0
5, 18048, Note_on_c, 0, 48, 72
5, 18144, Note_on_c, 0, 48, 0
5, 18144, Note_on_c, 0, 48, 72
5, 18168, Note_on_c, 0, 48, 0
5, 18168, Note_on_c, 0, 55, 72
5, 18192, Note_on_c, 0, 55, 0
5, 18192, Note_on_c, 0, 57, 72
5, 18216, Note_on_c, 0, 57, 0
5, 18216, Note_on_c, 0, 58, 72
5, 18240, Note_on_c, 0, 58, 0
5, 18240, Note_on_c, 0, 60, 72
5, 18384, Note_on_c, 0, 60, 0
5, 18384, Note_on_c, 0, 58, 72
5, 18432, Note_on_c, 0, 58, 0
5, 18432, Note_on_c, 0, 57, 72
5, 18576, Note_on_c, 0, 57, 0
5, 18576, Note_on_c, 0, 53, 72
5, 18624, Note_on_c, 0, 53, 0
5, 18624, Note_on_c, 0, 58, 72
5, 18768, Note_on_c, 0, 58, 0
5, 18768, Note_on_c, 0, 62, 72
5, 18816, Note_on_c, 0, 62, 0
5, 18816, Note_on_c, 0, 52, 72
5, 19104, Note_on_c, 0, 52, 0
5, 19104, Note_on_c, 0, 52, 72
5, 19128, Note_on_c, 0, 52, 0
5, 19128, Note_on_c, 0, 48, 72
5, 19152, Note_on_c, 0, 48, 0
5, 19152, Note_on_c, 0, 50, 72
5, 19176, Note_on_c, 0, 50, 0
5, 19176, Note_on_c, 0, 52, 72
5, 19200, Note_on_c, 0, 52, 0
5, 19200, Note_on_c, 0, 53, 72
5, 19344, Note_on_c, 0, 53, 0
5, 19344, Note_on_c, 0, 52, 72
5, 19392, Note_on_c, 0, 52, 0
5, 19392, Note_on_c, 0, 50, 72
5, 19584, Note_on_c, 0, 50, 0
5, 19584, Note_on_c, 0, 50, 72
5, 19632, Note_on_c, 0, 50, 0
5, 19632, Note_on_c, 0, 50, 72
5, 19680, Note_on_c, 0, 50, 0
5, 19680, Note_on_c, 0, 48, 72
5, 19728, Note_on_c, 0, 48, 0
5, 19728, Note_on_c, 0, 46, 72
5, 19776, Note_on_c, 0, 46, 0
5, 19776, Note_on_c, 0, 45, 72
5, 19824, Note_on_c, 0, 45, 0
5, 19824, Note_on_c, 0, 41, 72
5, 19872, Note_on_c, 0, 41, 0
5, 19872, Note_on_c, 0, 43, 72
5, 19920, Note_on_c, 0, 43, 0
5, 19920, Note_on_c, 0, 45, 72
5, 19968, Note_on_c, 0, 45, 0
5, 19968, Note_on_c, 0, 46, 72
5, 20016, Note_on_c, 0, 46, 0
5, 20016, Note_on_c, 0, 43, 72
5, 20064, Note_on_c, 0, 43, 0
5, 20064, Note_on_c, 0, 45, 72
5, 20112, Note_on_c, 0, 45, 0
5, 20112, Note_on_c, 0, 46, 72
5, 20160, Note_on_c, 0, 46, 0
5, 20160, Note_on_c, 0, 48, 72
5, 20304, Note_on_c, 0, 48, 0
5, 20304, Note_on_c, 0, 49, 72
5, 20352, Note_on_c, 0, 49, 0
5, 20352, Note_on_c, 0, 50, 72
5, 20400, Note_on_c, 0, 50, 0
5, 20400, Note_on_c, 0, 49, 72
5, 20448, Note_on_c, 0, 49, 0
5, 20448, Note_on_c, 0, 50, 72
5, 20496, Note_on_c, 0, 50, 0
5, 20496, Note_on_c, 0, 52, 72
5, 20544, Note_on_c, 0, 52, 0
5, 20544, Note_on_c, 0, 53, 72
5, 20736, Note_on_c, 0, 53, 0
5, 20736, Note_on_c, 0, 53, 72
5, 20784, Note_on_c, 0, 53, 0
5, 20784, Note_on_c, 0, 52, 72
5, 20832, Note_on_c, 0, 52, 0
5, 20832, Note_on_c, 0, 53, 72
5, 20880, Note_on_c, 0, 53, 0
5, 20880, Note_on_c, 0, 55, 72
5, 20928, Note_on_c, 0, 55, 0
5, 20928, Note_on_c, 0, 57, 72
5, 21120, Note_on_c, 0, 57, 0
5, 21120, Note_on_c, 0, 57, 72
5, 21264, Note_on_c, 0, 57, 0
5, 21264, Note_on_c, 0, 55, 72
5, 21312, Note_on_c, 0, 55, 0
5, 21312, Note_on_c, 0, 53, 72
5, 21456, Note_on_c, 0, 53, 0
5, 21456, Note_on_c, 0, 52, 72
5, 21504, Note_on_c, 0, 52, 0
5, 21504, Note_on_c, 0, 50, 72
5, 21792, Note_on_c, 0, 50, 0
5, 21792, Note_on_c, 0, 50, 72
5, 21816, Note_on_c, 0, 50, 0
5, 21816, Note_on_c, 0, 38, 72
5, 21840, Note_on_c, 0, 38, 0
5, 21840, Note_on_c, 0, 40, 72
5, 21864, Note_on_c, 0, 40, 0
5, 21864, Note_on_c, 0, 41, 72
5, 21888, Note_on_c, 0, 41, 0
5, 21888, Note_on_c, 0, 43, 72
5, 22176, Note_on_c, 0, 43, 0
5, 22176, Note_on_c, 0, 43, 72
5, 22200, Note_on_c, 0, 43, 0
5, 22200, Note_on_c, 0, 41, 72
5, 22224, Note_on_c, 0, 41, 0
5, 22224, Note_on_c, 0, 40, 72
5, 22248, Note_on_c, 0, 40, 0
5, 22248, Note_on_c, 0, 38, 72
5, 22272, Note_on_c, 0, 38, 0
5, 22272, Note_on_c, 0, 36, 72
5, 22560, Note_on_c, 0, 36, 0
5, 22560, Note_on_c, 0, 36, 72
5, 22584, Note_on_c, 0, 36, 0
5, 22584, Note_on_c, 0, 48, 72
5, 22608, Note_on_c, 0, 48, 0
5, 22608, Note_on_c, 0, 50, 72
5, 22632, Note_on_c, 0, 50, 0
5, 22632, Note_on_c, 0, 52, 72
5, 22656, Note_on_c, 0, 52, 0
5, 22656, Note_on_c, 0, 53, 72
5, 22944, Note_on_c, 0, 53, 0
5, 22944, Note_on_c, 0, 53, 72
5, 22968, Note_on_c, 0, 53, 0
5, 22968, Note_on_c, 0, 52, 72
5, 22992, Note_on_c, 0, 52, 0
5, 22992, Note_on_c, 0, 50, 72
5, 23016, Note_on_c, 0, 50, 0
5, 23016, Note_on_c, 0, 48, 72
5, 23040, Note_on_c, 0, 48, 0
5, 23040, Note_on_c, 0, 46, 72
5, 23424, Note_on_c, 0, 46, 0
5, 23424, Note_on_c, 0, 45, 72
5, 23808, Note_on_c, 0, 45, 0
5, 23808, Note_on_c, 0, 45, 72
5, 24192, Note_on_c, 0, 45, 0
5, 24192, Note_on_c, 0, 45, 72
5, 24576, Note_on_c, 0, 45, 0
5, 24576, Note_on_c, 0, 45, 72
5, 24864, Note_on_c, 0, 45, 0
5, 24864, Note_on_c, 0, 45, 72
5, 24960, Note_on_c, 0, 45, 0
5, 24960, Note_on_c, 0, 46, 72
5, 25104, Note_on_c, 0, 46, 0
5, 25104, Note_on_c, 0, 45, 72
5, 25152, Note_on_c, 0, 45, 0
5, 25152, Note_on_c, 0, 43, 72
5, 25344, Note_on_c, 0, 43, 0
5, 25344, Note_on_c, 0, 41, 72
5, 25488, Note_on_c, 0, 41, 0
5, 25488, Note_on_c, 0, 43, 72
5, 25536, Note_on_c, 0, 43, 0
5, 25536, Note_on_c, 0, 45, 72
5, 25680, Note_on_c, 0, 45, 0
5, 25680, Note_on_c, 0, 46, 72
5, 25728, Note_on_c, 0, 46, 0
5, 25728, Note_on_c, 0, 48, 72
5, 26112, Note_on_c, 0, 48, 0
5, 26112, Note_on_c, 0, 48, 72
5, 26400, Note_on_c, 0, 48, 0
5, 26400, Note_on_c, 0, 48, 72
5, 26496, Note_on_c, 0, 48, 0
5, 26496, Note_on_c, 0, 46, 72
5, 26784, Note_on_c, 0, 46, 0
5, 26784, Note_on_c, 0, 45, 72
5, 26880, Note_on_c, 0, 45, 0
5, 26880, Note_on_c, 0, 43, 88
5, 27072, Note_on_c, 0, 43, 0
5, 27072, Note_on_c, 0, 50, 88
5, 27216, Note_on_c, 0, 50, 0
5, 27216, Note_on_c, 0, 48, 88
5, 27264, Note_on_c, 0, 48, 0
5, 27264, Note_on_c, 0, 46, 88
5, 27408, Note_on_c, 0, 46, 0
5, 27408, Note_on_c, 0, 45, 88
5, 27456, Note_on_c, 0, 45, 0
5, 27456, Note_on_c, 0, 43, 88
5, 27648, Note_on_c, 0, 43, 0
5, 27648, Note_on_c, 0, 42, 88
5, 27840, Note_on_c, 0, 42, 0
5, 27840, Note_on_c, 0, 43, 88
5, 27984, Note_on_c, 0, 43, 0
5, 27984, Note_on_c, 0, 45, 88
5, 28032, Note_on_c, 0, 45, 0
5, 28032, Note_on_c, 0, 46, 88
5, 28224, Note_on_c, 0, 46, 0
5, 28224, Note_on_c, 0, 46, 88
5, 28272, Note_on_c, 0, 46, 0
5, 28272, Note_on_c, 0, 48, 88
5, 28320, Note_on_c, 0, 48, 0
5, 28320, Note_on_c, 0, 46, 88
5, 28368, Note_on_c, 0, 46, 0
5, 28368, Note_on_c, 0, 45, 88
5, 28416, Note_on_c, 0, 45, 0
5, 28416, Note_on_c, 0, 43, 88
5, 28512, Note_on_c, 0, 43, 0
5, 28512, Note_on_c, 0, 55, 72
5, 28704, Note_on_c, 0, 55, 0
5, 28704, Note_on_c, 0, 55, 72
5, 28728, Note_on_c, 0, 55, 0
5, 28728, Note_on_c, 0, 53, 72
5, 28752, Note_on_c, 0, 53, 0
5, 28752, Note_on_c, 0, 51, 72
5, 28776, Note_on_c, 0, 51, 0
5, 28776, Note_on_c, 0, 50, 72
5, 28800, Note_on_c, 0, 50, 0
5, 28800, Note_on_c, 0, 48, 72
5, 28944, Note_on_c, 0, 48, 0
5, 28944, Note_on_c, 0, 53, 72
5, 28992, Note_on_c, 0, 53, 0
5, 28992, Note_on_c, 0, 55, 72
5, 29136, Note_on_c, 0, 55, 0
5, 29136, Note_on_c, 0, 57, 72
5, 29184, Note_on_c, 0, 57, 0
5, 29184, Note_on_c, 0, 58, 72
5, 29328, Note_on_c, 0, 58, 0
5, 29328, Note_on_c, 0, 57, 72
5, 29376, Note_on_c, 0, 57, 0
5, 29376, Note_on_c, 0, 55, 72
5, 29568, Note_on_c, 0, 55, 0
5, 29568, Note_on_c, 0, 55, 72
5, 29712, Note_on_c, 0, 55, 0
5, 29712, Note_on_c, 0, 53, 72
5, 29760, Note_on_c, 0, 53, 0
5, 29760, Note_on_c, 0, 51, 72
5, 29952, Note_on_c, 0, 51, 0
5, 29952, Note_on_c, 0, 51, 72
5, 30096, Note_on_c, 0, 51, 0
5, 30096, Note_on_c, 0, 50, 72
5, 30144, Note_on_c, 0, 50, 0
5, 30144, Note_on_c, 0, 48, 72
5, 30288, Note_on_c, 0, 48, 0
5, 30288, Note_on_c, 0, 50, 72
5, 30336, Note_on_c, 0, 50, 0
5, 30336, Note_on_c, 0, 51, 72
5, 30384, Note_on_c, 0, 51, 0
5, 30384, Note_on_c, 0, 55, 72
5, 30432, Note_on_c, 0, 55, 0
5, 30432, Note_on_c, 0, 53, 72
5, 30480, Note_on_c, 0, 53, 0
5, 30480, Note_on_c, 0, 51, 72
5, 30528, Note_on_c, 0, 51, 0
5, 30528, Note_on_c, 0, 50, 72
5, 30576, Note_on_c, 0, 50, 0
5, 30576, Note_on_c, 0, 48, 72
5, 30624, Note_on_c, 0, 48, 0
5, 30624, Note_on_c, 0, 46, 72
5, 30672, Note_on_c, 0, 46, 0
5, 30672, Note_on_c, 0, 45, 72
5, 30720, Note_on_c, 0, 45, 0
5, 30720, Note_on_c, 0, 43, 72
5, 30864, Note_on_c, 0, 43, 0
5, 30864, Note_on_c, 0, 41, 72
5, 30912, Note_on_c, 0, 41, 0
5, 30912, Note_on_c, 0, 43, 72
5, 31056, Note_on_c, 0, 43, 0
5, 31056, Note_on_c, 0, 46, 72
5, 31104, Note_on_c, 0, 46, 0
5, 31104, Note_on_c, 0, 45, 72
5, 31152, Note_on_c, 0, 45, 0
5, 31152, Note_on_c, 0, 41, 72
5, 31200, Note_on_c, 0, 41, 0
5, 31200, Note_on_c, 0, 43, 72
5, 31248, Note_on_c, 0, 43, 0
5, 31248, Note_on_c, 0, 45, 72
5, 31296, Note_on_c, 0, 45, 0
5, 31296, Note_on_c, 0, 46, 72
5, 31344, Note_on_c, 0, 46, 0
5, 31344, Note_on_c, 0, 48, 72
5, 31392, Note_on_c, 0, 48, 0
5, 31392, Note_on_c, 0, 50, 72
5, 31440, Note_on_c, 0, 50, 0
5, 31440, Note_on_c, 0, 51, 72
5, 31488, Note_on_c, 0, 51, 0
5, 31488, Note_on_c, 0, 50, 72
5, 31680, Note_on_c, 0, 50, 0
5, 31680, Note_on_c, 0, 51, 72
5, 31872, Note_on_c, 0, 51, 0
5, 31872, Note_on_c, 0, 53, 72
5, 32256, Note_on_c, 0, 53, 0
5, 32256, Note_on_c, 0, 53, 72
5, 32304, Note_on_c, 0, 53, 0
5, 32304, Note_on_c, 0, 51, 72
5, 32328, Note_on_c, 0, 51, 0
5, 32328, Note_on_c, 0, 50, 72
5, 32352, Note_on_c, 0, 50, 0
5, 32352, Note_on_c, 0, 51, 72
5, 32400, Note_on_c, 0, 51, 0
5, 32400, Note_on_c, 0, 48, 72
5, 32448, Note_on_c, 0, 48, 0
5, 32448, Note_on_c, 0, 46, 72
5, 32472, Note_on_c, 0, 46, 0
5, 32472, Note_on_c, 0, 45, 72
5, 32496, Note_on_c, 0, 45, 0
5, 32496, Note_on_c, 0, 46, 72
5, 32520, Note_on_c, 0, 46, 0
5, 32520, Note_on_c, 0, 45, 72
5, 32544, Note_on_c, 0, 45, 0
5, 32544, Note_on_c, 0, 46, 72
5, 32568, Note_on_c, 0, 46, 0
5, 32568, Note_on_c, 0, 45, 72
5, 32592, Note_on_c, 0, 45, 0
5, 32592, Note_on_c, 0, 43, 72
5, 32616, Note_on_c, 0, 43, 0
5, 32616, Note_on_c, 0, 45, 72
5, 32640, Note_on_c, 0, 45, 0
5, 32640, Note_on_c, 0, 46, 72
5, 32784, Note_on_c, 0, 46, 0
5, 32784, Note_on_c, 0, 58, 72
5, 32832, Note_on_c, 0, 58, 0
5, 32832, Note_on_c, 0, 57, 72
5, 32976, Note_on_c, 0, 57, 0
5, 32976, Note_on_c, 0, 55, 72
5, 33024, Note_on_c, 0, 55, 0
5, 33024, Note_on_c, 0, 53, 72
5, 33168, Note_on_c, 0, 53, 0
5, 33168, Note_on_c, 0, 41, 72
5, 33216, Note_on_c, 0, 41, 0
5, 33216, Note_on_c, 0, 39, 72
5, 33360, Note_on_c, 0, 39, 0
5, 33360, Note_on_c, 0, 38, 72
5, 33408, Note_on_c, 0, 38, 0
5, 33408, Note_on_c, 0, 36, 72
5, 33552, Note_on_c, 0, 36, 0
5, 33552, Note_on_c, 0, 48, 72
5, 33600, Note_on_c, 0, 48, 0
5, 33600, Note_on_c, 0, 46, 72
5, 33744, Note_on_c, 0, 46, 0
5, 33744, Note_on_c, 0, 45, 72
5, 33792, Note_on_c, 0, 45, 0
5, 33792, Note_on_c, 0, 43, 72
5, 33936, Note_on_c, 0, 43, 0
5, 33936, Note_on_c, 0, 55, 72
5, 33984, Note_on_c, 0, 55, 0
5, 33984, Note_on_c, 0, 53, 72
5, 34128, Note_on_c, 0, 53, 0
5, 34128, Note_on_c, 0, 52, 72
5, 34176, Note_on_c, 0, 52, 0
5, 34176, Note_on_c, 0, 50, 72
5, 34272, Note_on_c, 0, 50, 0
5, 34272, Note_on_c, 0, 50, 72
5, 34296, Note_on_c, 0, 50, 0
5, 34296, Note_on_c, 0, 57, 72
5, 34320, Note_on_c, 0, 57, 0
5, 34320, Note_on_c, 0, 59, 72
5, 34344, Note_on_c, 0, 59, 0
5, 34344, Note_on_c, 0, 61, 72
5, 34368, Note_on_c, 0, 61, 0
5, 34368, Note_on_c, 0, 62, 72
5, 34512, Note_on_c, 0, 62, 0
5, 34512, Note_on_c, 0, 60, 72
5, 34560, Note_on_c, 0, 60, 0
5, 34560, Note_on_c, 0, 58, 72
5, 34704, Note_on_c, 0, 58, 0
5, 34704, Note_on_c, 0, 57, 72
5, 34752, Note_on_c, 0, 57, 0
5, 34752, Note_on_c, 0, 58, 72
5, 34896, Note_on_c, 0, 58, 0
5, 34896, Note_on_c, 0, 55, 72
5, 34944, Note_on_c, 0, 55, 0
5, 34944, Note_on_c, 0, 57, 72
5, 35136, Note_on_c, 0, 57, 0
5, 35328, Note_on_c, 0, 45, 88
5, 35712, Note_on_c, 0, 45, 0
5, 35712, Note_on_c, 0, 38, 88
5, 36000, Note_on_c, 0, 38, 0
5, 36000, Note_on_c, 0, 40, 88
5, 36096, Note_on_c, 0, 40, 0
5, 36096, Note_on_c, 0, 41, 88
5, 36384, Note_on_c, 0, 41, 0
5, 36384, Note_on_c, 0, 43, 88
5, 36480, Note_on_c, 0, 43, 0
5, 36480, Note_on_c, 0, 45, 88
5, 36864, Note_on_c, 0, 45, 0
5, 36864, Note_on_c, 0, 46, 88
5, 37248, Note_on_c, 0, 46, 0
5, 37248, Note_on_c, 0, 45, 88
5, 37536, Note_on_c, 0, 45, 0
5, 37536, Note_on_c, 0, 43, 88
5, 37632, Note_on_c, 0, 43, 0
5, 37632, Note_on_c, 0, 41, 88
5, 38016, Note_on_c, 0, 41, 0
5, 38016, Note_on_c, 0, 41, 88
5, 38160, Note_on_c, 0, 41, 0
5, 38160, Note_on_c, 0, 40, 88
5, 38208, Note_on_c, 0, 40, 0
5, 38208, Note_on_c, 0, 41, 88
5, 38352, Note_on_c, 0, 41, 0
5, 38352, Note_on_c, 0, 43, 88
5, 38400, Note_on_c, 0, 43, 0
5, 38400, Note_on_c, 0, 45, 88
5, 38784, Note_on_c, 0, 45, 0
5, 38784, Note_on_c, 0, 45, 88
5, 38880, Note_on_c, 0, 45, 0
5, 38880, Note_on_c, 0, 45, 72
5, 38904, Note_on_c, 0, 45, 0
5, 38904, Note_on_c, 0, 48, 72
5, 38928, Note_on_c, 0, 48, 0
5, 38928, Note_on_c, 0, 47, 72
5, 38952, Note_on_c, 0, 47, 0
5, 38952, Note_on_c, 0, 45, 72
5, 38976, Note_on_c, 0, 45, 0
5, 38976, Note_on_c, 0, 43, 72
5, 39072, Note_on_c, 0, 43, 0
5, 39072, Note_on_c, 0, 43, 72
5, 39096, Note_on_c, 0, 43, 0
5, 39096, Note_on_c, 0, 45, 72
5, 39120, Note_on_c, 0, 45, 0
5, 39120, Note_on_c, 0, 43, 72
5, 39144, Note_on_c, 0, 43, 0
5, 39144, Note_on_c, 0, 41, 72
5, 39168, Note_on_c, 0, 41, 0
5, 39168, Note_on_c, 0, 40, 72
5, 39312, Note_on_c, 0, 40, 0
5, 39312, Note_on_c, 0, 38, 72
5, 39360, Note_on_c, 0, 38, 0
5, 39360, Note_on_c, 0, 40, 72
5, 39504, Note_on_c, 0, 40, 0
5, 39504, Note_on_c, 0, 41, 72
5, 39552, Note_on_c, 0, 41, 0
5, 39552, Note_on_c, 0, 43, 72
5, 39936, Note_on_c, 0, 43, 0
5, 39936, Note_on_c, 0, 43, 72
5, 40032, Note_on_c, 0, 43, 0
5, 40032, Note_on_c, 0, 43, 72
5, 40056, Note_on_c, 0, 43, 0
5, 40056, Note_on_c, 0, 46, 72
5, 40080, Note_on_c, 0, 46, 0
5, 40080, Note_on_c, 0, 45, 72
5, 40104, Note_on_c, 0, 45, 0
5, 40104, Note_on_c, 0, 43, 72
5, 40128, Note_on_c, 0, 43, 0
5, 40128, Note_on_c, 0, 41, 72
5, 40224, Note_on_c, 0, 41, 0
5, 40224, Note_on_c, 0, 41, 72
5, 40248, Note_on_c, 0, 41, 0
5, 40248, Note_on_c, 0, 43, 72
5, 40272, Note_on_c, 0, 43, 0
5, 40272, Note_on_c, 0, 41, 72
5, 40296, Note_on_c, 0, 41, 0
5, 40296, Note_on_c, 0, 40, 72
5, 40320, Note_on_c, 0, 40, 0
5, 40320, Note_on_c, 0, 38, 72
5, 40464, Note_on_c, 0, 38, 0
5, 40464, Note_on_c, 0, 36, 72
5, 40512, Note_on_c, 0, 36, 0
5, 40512, Note_on_c, 0, 38, 72
5, 40656, Note_on_c, 0, 38, 0
5, 40656, Note_on_c, 0, 40, 72
5, 40704, Note_on_c, 0, 40, 0
5, 40704, Note_on_c, 0, 41, 72
5, 41088, Note_on_c, 0, 41, 0
5, 41088, Note_on_c, 0, 41, 72
5, 41184, Note_on_c, 0, 41, 0
5, 43920, Note_on_c, 0, 45, 72
5, 43968, Note_on_c, 0, 45, 0
5, 43968, Note_on_c, 0, 47, 72
5, 44112, Note_on_c, 0, 47, 0
5, 44112, Note_on_c, 0, 49, 72
5, 44160, Note_on_c, 0, 49, 0
5, 44160, Note_on_c, 0, 50, 72
5, 44304, Note_on_c, 0, 50, 0
5, 44304, Note_on_c, 0, 52, 72
5, 44352, Note_on_c, 0, 52, 0
5, 44352, Note_on_c, 0, 53, 72
5, 44544, Note_on_c, 0, 53, 0
5, 44544, Note_on_c, 0, 53, 72
5, 44640, Note_on_c, 0, 53, 0
5, 44640, Note_on_c, 0, 53, 72
5, 44664, Note_on_c, 0, 53, 0
5, 44664, Note_on_c, 0, 53, 72
5, 44688, Note_on_c, 0, 53, 0
5, 44688, Note_on_c, 0, 55, 72
5, 44712, Note_on_c, 0, 55, 0
5, 44712, Note_on_c, 0, 57, 72
5, 44736, Note_on_c, 0, 57, 0
5, 44736, Note_on_c, 0, 58, 72
5, 44880, Note_on_c, 0, 58, 0
5, 44880, Note_on_c, 0, 46, 72
5, 44928, Note_on_c, 0, 46, 0
5, 44928, Note_on_c, 0, 45, 72
5, 44976, Note_on_c, 0, 45, 0
5, 44976, Note_on_c, 0, 58, 72
5, 45024, Note_on_c, 0, 58, 0
5, 45024, Note_on_c, 0, 57, 72
5, 45072, Note_on_c, 0, 57, 0
5, 45072, Note_on_c, 0, 55, 72
5, 45120, Note_on_c, 0, 55, 0
5, 45120, Note_on_c, 0, 53, 72
5, 45168, Note_on_c, 0, 53, 0
5, 45168, Note_on_c, 0, 52, 72
5, 45216, Note_on_c, 0, 52, 0
5, 45216, Note_on_c, 0, 50, 72
5, 45264, Note_on_c, 0, 50, 0
5, 45264, Note_on_c, 0, 49, 72
5, 45312, Note_on_c, 0, 49, 0
5, 45312, Note_on_c, 0, 50, 72
5, 45360, Note_on_c, 0, 50, 0
5, 45360, Note_on_c, 0, 60, 72
5, 45408, Note_on_c, 0, 60, 0
5, 45408, Note_on_c, 0, 58, 72
5, 45456, Note_on_c, 0, 58, 0
5, 45456, Note_on_c, 0, 57, 72
5, 45504, Note_on_c, 0, 57, 0
5, 45504, Note_on_c, 0, 55, 72
5, 45552, Note_on_c, 0, 55, 0
5, 45552, Note_on_c, 0, 53, 72
5, 45600, Note_on_c, 0, 53, 0
5, 45600, Note_on_c, 0, 52, 72
5, 45648, Note_on_c, 0, 52, 0
5, 45648, Note_on_c, 0, 50, 72
5, 45696, Note_on_c, 0, 50, 0
5, 45696, Note_on_c, 0, 49, 72
5, 45744, Note_on_c, 0, 49, 0
5, 45744, Note_on_c, 0, 62, 72
5, 45792, Note_on_c, 0, 62, 0
5, 45792, Note_on_c, 0, 61, 72
5, 45840, Note_on_c, 0, 61, 0
5, 45840, Note_on_c, 0, 59, 72
5, 45888, Note_on_c, 0, 59, 0
5, 45888, Note_on_c, 0, 57, 72
5, 45936, Note_on_c, 0, 57, 0
5, 45936, Note_on_c, 0, 55, 72
5, 45984, Note_on_c, 0, 55, 0
5, 45984, Note_on_c, 0, 53, 72
5, 46032, Note_on_c, 0, 53, 0
5, 46032, Note_on_c, 0, 52, 72
5, 46080, Note_on_c, 0, 52, 0
5, 46080, Note_on_c, 0, 50, 72
5, 46128, Note_on_c, 0, 50, 0
5, 46128, Note_on_c, 0, 52, 72
5, 46176, Note_on_c, 0, 52, 0
5, 46176, Note_on_c, 0, 50, 72
5, 46224, Note_on_c, 0, 50, 0
5, 46224, Note_on_c, 0, 48, 72
5, 46272, Note_on_c, 0, 48, 0
5, 46272, Note_on_c, 0, 46, 72
5, 46320, Note_on_c, 0, 46, 0
5, 46320, Note_on_c, 0, 45, 72
5, 46368, Note_on_c, 0, 45, 0
5, 46368, Note_on_c, 0, 43, 72
5, 46416, Note_on_c, 0, 43, 0
5, 46416, Note_on_c, 0, 41, 72
5, 46464, Note_on_c, 0, 41, 0
5, 46464, Note_on_c, 0, 43, 72
5, 46512, Note_on_c, 0, 43, 0
5, 46512, Note_on_c, 0, 50, 72
5, 46560, Note_on_c, 0, 50, 0
5, 46560, Note_on_c, 0, 48, 72
5, 46608, Note_on_c, 0, 48, 0
5, 46608, Note_on_c, 0, 46, 72
5, 46656, Note_on_c, 0, 46, 0
5, 46656, Note_on_c, 0, 45, 72
5, 46704, Note_on_c, 0, 45, 0
5, 46704, Note_on_c, 0, 43, 72
5, 46752, Note_on_c, 0, 43, 0
5, 46752, Note_on_c, 0, 41, 72
5, 46800, Note_on_c, 0, 41, 0
5, 46800, Note_on_c, 0, 40, 72
5, 46848, Note_on_c, 0, 40, 0
5, 46848, Note_on_c, 0, 41, 72
5, 46896, Note_on_c, 0, 41, 0
5, 46896, Note_on_c, 0, 48, 72
5, 46944, Note_on_c, 0, 48, 0
5, 46944, Note_on_c, 0, 50, 72
5, 46992, Note_on_c, 0, 50, 0
5, 46992, Note_on_c, 0, 52, 72
5, 47040, Note_on_c, 0, 52, 0
5, 47040, Note_on_c, 0, 53, 72
5, 47088, Note_on_c, 0, 53, 0
5, 47088, Note_on_c, 0, 55, 72
5, 47136, Note_on_c, 0, 55, 0
5, 47136, Note_on_c, 0, 53, 72
5, 47184, Note_on_c, 0, 53, 0
5, 47184, Note_on_c, 0, 52, 72
5, 47232, Note_on_c, 0, 52, 0
5, 47232, Note_on_c, 0, 50, 72
5, 47280, Note_on_c, 0, 50, 0
5, 47280, Note_on_c, 0, 53, 72
5, 47328, Note_on_c, 0, 53, 0
5, 47328, Note_on_c, 0, 55, 72
5, 47376, Note_on_c, 0, 55, 0
5, 47376, Note_on_c, 0, 57, 72
5, 47424, Note_on_c, 0, 57, 0
5, 47424, Note_on_c, 0, 58, 72
5, 47472, Note_on_c, 0, 58, 0
5, 47472, Note_on_c, 0, 60, 72
5, 47520, Note_on_c, 0, 60, 0
5, 47520, Note_on_c, 0, 58, 72
5, 47568, Note_on_c, 0, 58, 0
5, 47568, Note_on_c, 0, 57, 72
5, 47616, Note_on_c, 0, 57, 0
5, 47616, Note_on_c, 0, 55, 72
5, 47664, Note_on_c, 0, 55, 0
5, 47664, Note_on_c, 0, 43, 72
5, 47712, Note_on_c, 0, 43, 0
5, 47712, Note_on_c, 0, 45, 72
5, 47760, Note_on_c, 0, 45, 0
5, 47760, Note_on_c, 0, 46, 72
5, 47808, Note_on_c, 0, 46, 0
5, 47808, Note_on_c, 0, 48, 72
5, 47856, Note_on_c, 0, 48, 0
5, 47856, Note_on_c, 0, 50, 72
5, 47904, Note_on_c, 0, 50, 0
5, 47904, Note_on_c, 0, 48, 72
5, 47952, Note_on_c, 0, 48, 0
5, 47952, Note_on_c, 0, 46, 72
5, 48000, Note_on_c, 0, 46, 0
5, 48000, Note_on_c, 0, 45, 72
5, 48048, Note_on_c, 0, 45, 0
5, 48048, Note_on_c, 0, 46, 72
5, 48096, Note_on_c, 0, 46, 0
5, 48096, Note_on_c, 0, 45, 72
5, 48144, Note_on_c, 0, 45, 0
5, 48144, Note_on_c, 0, 43, 72
5, 48192, Note_on_c, 0, 43, 0
5, 48192, Note_on_c, 0, 41, 72
5, 48384, Note_on_c, 0, 41, 0
5, 48384, Note_on_c, 0, 41, 72
5, 48672, Note_on_c, 0, 41, 0
5, 48672, Note_on_c, 0, 41, 72
5, 48696, Note_on_c, 0, 41, 0
5, 48696, Note_on_c, 0, 40, 72
5, 48720, Note_on_c, 0, 40, 0
5, 48720, Note_on_c, 0, 41, 72
5, 48744, Note_on_c, 0, 41, 0
5, 48744, Note_on_c, 0, 43, 72
5, 48768, Note_on_c, 0, 43, 0
5, 48768, Note_on_c, 0, 45, 72
5, 48816, Note_on_c, 0, 45, 0
5, 48816, Note_on_c, 0, 58, 72
5, 48864, Note_on_c, 0, 58, 0
5, 48864, Note_on_c, 0, 57, 72
5, 48912, Note_on_c, 0, 57, 0
5, 48912, Note_on_c, 0, 55, 72
5, 48960, Note_on_c, 0, 55, 0
5, 48960, Note_on_c, 0, 53, 72
5, 49008, Note_on_c, 0, 53, 0
5, 49008, Note_on_c, 0, 52, 72
5, 49056, Note_on_c, 0, 52, 0
5, 49056, Note_on_c, 0, 50, 72
5, 49152, Note_on_c, 0, 50, 0
5, 49152, Note_on_c, 0, 50, 72
5, 49200, Note_on_c, 0, 50, 0
5, 49200, Note_on_c, 0, 48, 72
5, 49248, Note_on_c, 0, 48, 0
5, 49248, Note_on_c, 0, 46, 72
5, 49296, Note_on_c, 0, 46, 0
5, 49296, Note_on_c, 0, 45, 72
5, 49344, Note_on_c, 0, 45, 0
5, 49344, Note_on_c, 0, 46, 72
5, 49392, Note_on_c, 0, 46, 0
5, 49392, Note_on_c, 0, 43, 72
5, 49440, Note_on_c, 0, 43, 0
5, 49440, Note_on_c, 0, 49, 72
5, 49536, Note_on_c, 0, 49, 0
5, 49536, Note_on_c, 0, 50, 72
5, 49584, Note_on_c, 0, 50, 0
5, 49584, Note_on_c, 0, 46, 72
5, 49632, Note_on_c, 0, 46, 0
5, 49632, Note_on_c, 0, 45, 72
5, 49680, Note_on_c, 0, 45, 0
5, 49680, Note_on_c, 0, 43, 72
5, 49728, Note_on_c, 0, 43, 0
5, 49728, Note_on_c, 0, 41, 72
5, 49776, Note_on_c, 0, 41, 0
5, 49776, Note_on_c, 0, 43, 72
5, 49824, Note_on_c, 0, 43, 0
5, 49824, Note_on_c, 0, 41, 72
5, 49872, Note_on_c, 0, 41, 0
5, 49872, Note_on_c, 0, 40, 72
5, 49920, Note_on_c, 0, 40, 0
5, 49920, Note_on_c, 0, 38, 72
5, 49968, Note_on_c, 0, 38, 0
5, 49968, Note_on_c, 0, 45, 72
5, 50016, Note_on_c, 0, 45, 0
5, 50016, Note_on_c, 0, 46, 72
5, 50064, Note_on_c, 0, 46, 0
5, 50064, Note_on_c, 0, 48, 72
5, 50112, Note_on_c, 0, 48, 0
5, 50112, Note_on_c, 0, 50, 72
5, 50160, Note_on_c, 0, 50, 0
5, 50160, Note_on_c, 0, 52, 72
5, 50208, Note_on_c, 0, 52, 0
5, 50208, Note_on_c, 0, 53, 72
5, 50304, Note_on_c, 0, 53, 0
5, 50352, Note_on_c, 0, 52, 72
5, 50400, Note_on_c, 0, 52, 0
5, 50400, Note_on_c, 0, 53, 72
5, 50448, Note_on_c, 0, 53, 0
5, 50448, Note_on_c, 0, 55, 72
5, 50496, Note_on_c, 0, 55, 0
5, 50496, Note_on_c, 0, 53, 72
5, 50544, Note_on_c, 0, 53, 0
5, 50544, Note_on_c, 0, 52, 72
5, 50592, Note_on_c, 0, 52, 0
5, 50592, Note_on_c, 0, 50, 72
5, 50640, Note_on_c, 0, 50, 0
5, 50640, Note_on_c, 0, 49, 72
5, 50688, Note_on_c, 0, 49, 0
5, 50688, Note_on_c, 0, 50, 72
5, 51072, Note_on_c, 0, 50, 0
5, 51072, Note_on_c, 0, 50, 72
5, 51264, Note_on_c, 0, 50, 0
5, 51264, Note_on_c, 0, 50, 72
5, 51312, Note_on_c, 0, 50, 0
5, 51312, Note_on_c, 0, 51, 72
5, 51360, Note_on_c, 0, 51, 0
5, 51360, Note_on_c, 0, 50, 72
5, 51408, Note_on_c, 0, 50, 0
5, 51408, Note_on_c, 0, 48, 72
5, 51456, Note_on_c, 0, 48, 0
5, 51456, Note_on_c, 0, 46, 72
5, 51648, Note_on_c, 0, 46, 0
5, 51648, Note_on_c, 0, 46, 72
5, 51696, Note_on_c, 0, 46, 0
5, 51696, Note_on_c, 0, 46, 72
5, 51744, Note_on_c, 0, 46, 0
5, 51744, Note_on_c, 0, 45, 72
5, 51792, Note_on_c, 0, 45, 0
5, 51792, Note_on_c, 0, 43, 72
5, 51840, Note_on_c, 0, 43, 0
5, 51840, Note_on_c, 0, 42, 72
5, 52032, Note_on_c, 0, 42, 0
5, 52560, Note_on_c, 0, 43, 72
5, 52608, Note_on_c, 0, 43, 0
5, 52608, Note_on_c, 0, 48, 72
5, 52704, Note_on_c, 0, 48, 0
5, 52704, Note_on_c, 0, 48, 72
5, 52728, Note_on_c, 0, 48, 0
5, 52728, Note_on_c, 0, 50, 72
5, 52752, Note_on_c, 0, 50, 0
5, 52752, Note_on_c, 0, 48, 72
5, 52776, Note_on_c, 0, 48, 0
5, 52776, Note_on_c, 0, 46, 72
5, 52800, Note_on_c, 0, 46, 0
5, 52800, Note_on_c, 0, 45, 72
5, 52992, Note_on_c, 0, 45, 0
5, 53328, Note_on_c, 0, 41, 72
5, 53376, Note_on_c, 0, 41, 0
5, 53376, Note_on_c, 0, 46, 72
5, 53472, Note_on_c, 0, 46, 0
5, 53472, Note_on_c, 0, 46, 72
5, 53496, Note_on_c, 0, 46, 0
5, 53496, Note_on_c, 0, 48, 72
5, 53520, Note_on_c, 0, 48, 0
5, 53520, Note_on_c, 0, 46, 72
5, 53544, Note_on_c, 0, 46, 0
5, 53544, Note_on_c, 0, 45, 72
5, 53568, Note_on_c, 0, 45, 0
5, 53568, Note_on_c, 0, 46, 72
5, 53712, Note_on_c, 0, 46, 0
5, 53712, Note_on_c, 0, 47, 72
5, 53760, Note_on_c, 0, 47, 0
5, 53760, Note_on_c, 0, 48, 72
5, 53904, Note_on_c, 0, 48, 0
5, 53904, Note_on_c, 0, 46, 72
5, 53952, Note_on_c, 0, 46, 0
5, 53952, Note_on_c, 0, 45, 72
5, 54096, Note_on_c, 0, 45, 0
5, 54096, Note_on_c, 0, 48, 72
5, 54144, Note_on_c, 0, 48, 0
5, 54144, Note_on_c, 0, 53, 72
5, 54288, Note_on_c, 0, 53, 0
5, 54288, Note_on_c, 0, 52, 72
5, 54336, Note_on_c, 0, 52, 0
5, 54336, Note_on_c, 0, 50, 72
5, 54480, Note_on_c, 0, 50, 0
5, 54480, Note_on_c, 0, 53, 72
5, 54528, Note_on_c, 0, 53, 0
5, 54528, Note_on_c, 0, 58, 72
5, 54672, Note_on_c, 0, 58, 0
5, 54672, Note_on_c, 0, 57, 72
5, 54720, Note_on_c, 0, 57, 0
5, 54720, Note_on_c, 0, 55, 72
5, 54864, Note_on_c, 0, 55, 0
5, 54864, Note_on_c, 0, 53, 72
5, 54912, Note_on_c, 0, 53, 0
5, 54912, Note_on_c, 0, 52, 72
5, 55056, Note_on_c, 0, 52, 0
5, 55056, Note_on_c, 0, 53, 72
5, 55104, Note_on_c, 0, 53, 0
5, 55104, Note_on_c, 0, 52, 72
5, 55248, Note_on_c, 0, 52, 0
5, 55248, Note_on_c, 0, 50, 72
5, 55296, Note_on_c, 0, 50, 0
5, 55296, Note_on_c, 0, 49, 72
5, 55488, Note_on_c, 0, 49, 0
5, 55584, Note_on_c, 0, 45, 72
5, 55680, Note_on_c, 0, 45, 0
5, 55680, Note_on_c, 0, 50, 72
5, 55824, Note_on_c, 0, 50, 0
5, 55824, Note_on_c, 0, 52, 72
5, 55872, Note_on_c, 0, 52, 0
5, 55872, Note_on_c, 0, 53, 72
5, 56016, Note_on_c, 0, 53, 0
5, 56016, Note_on_c, 0, 55, 72
5, 56064, Note_on_c, 0, 55, 0
5, 56064, Note_on_c, 0, 57, 72
5, 56208, Note_on_c, 0, 57, 0
5, 56208, Note_on_c, 0, 55, 72
5, 56256, Note_on_c, 0, 55, 0
5, 56256, Note_on_c, 0, 57, 72
5, 56304, Note_on_c, 0, 57, 0
5, 56304, Note_on_c, 0, 57, 88
5, 56400, Note_on_c, 0, 57, 0
5, 56400, Note_on_c, 0, 45, 88
5, 56448, Note_on_c, 0, 45, 0
5, 56448, Note_on_c, 0, 50, 88
5, 56832, Note_on_c, 0, 50, 0
5, 56832, Note_on_c, 0, 50, 88
5, 57216, Note_on_c, 0, 50, 0
5, 57216, Note_on_c, 0, 50, 88
5, 57600, Note_on_c, 0, 50, 0
5, 57600, Note_on_c, 0, 50, 88
5, 57984, Note_on_c, 0, 50, 0
5, 57984, Note_on_c, 0, 50, 88
5, 58368, Note_on_c, 0, 50, 0
5, 58368, Note_on_c, 0, 50, 88
5, 58752, Note_on_c, 0, 50, 0
5, 58752, Note_on_c, 0, 50, 88
5, 59136, Note_on_c, 0, 50, 0
5, 59136, Note_on_c, 0, 50, 88
5, 59520, Note_on_c, 0, 50, 0
5, 59520, Note_on_c, 0, 50, 88
5, 59904, Note_on_c, 0, 50, 0
5, 59904, Note_on_c, 0, 50, 88
5, 60192, Note_on_c, 0, 50, 0
5, 60192, Note_on_c, 0, 50, 88
5, 60240, Note_on_c, 0, 50, 0
5, 60240, Note_on_c, 0, 50, 88
5, 60288, Note_on_c, 0, 50, 0
5, 60288, Note_on_c, 0, 38, 88
5, 60672, Note_on_c, 0, 38, 0
5, 60672, End_track
0, 0, End_of_file
