0, 0, Header, 1, 5, 96
1, 0, Start_track
1, 0, Key_signature, -1, "major"
1, 0, Time_signature, 4, 2, 24, 8
1, 0, Tempo, 999506
1, 21984, Tempo, 1199407
1, 22272, Tempo, 535450
1, 22896, Tempo, 599704
1, 23040, Tempo, 535450
1, 23664, Tempo, 599704
1, 23808, Tempo, 666337
1, 24048, Tempo, 999506
1, 24144, Tempo, 1199407
1, 24576, End_track
2, 0, Start_track
2, 0, Program_c, 0, 5
2, 384, Note_on_c, 0, 81, 88
2, 576, Note_on_c, 0, 81, 0
2, 576, Note_on_c, 0, 74, 88
2, 720, Note_on_c, 0, 74, 0
2, 720, Note_on_c, 0, 76, 88
2, 768, Note_on_c, 0, 76, 0
2, 768, Note_on_c, 0, 77, 88
2, 912, Note_on_c, 0, 77, 0
2, 912, Note_on_c, 0, 79, 88
2, 960, Note_on_c, 0, 79, 0
2, 960, Note_on_c, 0, 81, 88
2, 1152, Note_on_c, 0, 81, 0
2, 1152, Note_on_c, 0, 82, 88
2, 1344, Note_on_c, 0, 82, 0
2, 1344, Note_on_c, 0, 81, 88
2, 1488, Note_on_c, 0, 81, 0
2, 1488, Note_on_c, 0, 79, 88
2, 1536, Note_on_c, 0, 79, 0
2, 1536, Note_on_c, 0, 77, 88
2, 1728, Note_on_c, 0, 77, 0
2, 1728, Note_on_c, 0, 77, 88
2, 1776, Note_on_c, 0, 77, 0
2, 1776, Note_on_c, 0, 76, 88
2, 1824, Note_on_c, 0, 76, 0
2, 1824, Note_on_c, 0, 77, 88
2, 1872, Note_on_c, 0, 77, 0
2, 1872, Note_on_c, 0, 79, 88
2, 1920, Note_on_c, 0, 79, 0
2, 1920, Note_on_c, 0, 81, 88
2, 2016, Note_on_c, 0, 81, 0
2, 2016, Note_on_c, 0, 81, 88
2, 2040, Note_on_c, 0, 81, 0
2, 2040, Note_on_c, 0, 79, 88
2, 2064, Note_on_c, 0, 79, 0
2, 2064, Note_on_c, 0, 77, 88
2, 2088, Note_on_c, 0, 77, 0
2, 2088, Note_on_c, 0, 76, 88
2, 2112, Note_on_c, 0, 76, 0
2, 2112, Note_on_c, 0, 74, 88
2, 2208, Note_on_c, 0, 74, 0
2, 2208, Note_on_c, 0, 74, 88
2, 2232, Note_on_c, 0, 74, 0
2, 2232, Note_on_c, 0, 74, 72
2, 2256, Note_on_c, 0, 74, 0
2, 2256, Note_on_c, 0, 76, 72
2, 2280, Note_on_c, 0, 76, 0
2, 2280, Note_on_c, 0, 77, 72
2, 2304, Note_on_c, 0, 77, 0
2, 2304, Note_on_c, 0, 76, 72
2, 2328, Note_on_c, 0, 76, 0
2, 2328, Note_on_c, 0, 74, 72
2, 2352, Note_on_c, 0, 74, 0
2, 2352, Note_on_c, 0, 72, 72
2, 2376, Note_on_c, 0, 72, 0
2, 2376, Note_on_c, 0, 71, 72
2, 2400, Note_on_c, 0, 71, 0
2, 2400, Note_on_c, 0, 69, 72
2, 2448, Note_on_c, 0, 69, 0
2, 2520, Note_on_c, 0, 76, 72
2, 2544, Note_on_c, 0, 76, 0
2, 2544, Note_on_c, 0, 81, 72
2, 2568, Note_on_c, 0, 81, 0
2, 2568, Note_on_c, 0, 79, 72
2, 2592, Note_on_c, 0, 79, 0
2, 2592, Note_on_c, 0, 77, 72
2, 2616, Note_on_c, 0, 77, 0
2, 2616, Note_on_c, 0, 76, 72
2, 2640, Note_on_c, 0, 76, 0
2, 2640, Note_on_c, 0, 74, 72
2, 2664, Note_on_c, 0, 74, 0
2, 2664, Note_on_c, 0, 72, 72
2, 2688, Note_on_c, 0, 72, 0
2, 2688, Note_on_c, 0, 71, 72
2, 2784, Note_on_c, 0, 71, 0
2, 2904, Note_on_c, 0, 74, 72
2, 2928, Note_on_c, 0, 74, 0
2, 2928, Note_on_c, 0, 76, 72
2, 2952, Note_on_c, 0, 76, 0
2, 2952, Note_on_c, 0, 77, 72
2, 2976, Note_on_c, 0, 77, 0
2, 2976, Note_on_c, 0, 79, 72
2, 3072, Note_on_c, 0, 79, 0
2, 3072, Note_on_c, 0, 79, 72
2, 3096, Note_on_c, 0, 79, 0
2, 3096, Note_on_c, 0, 79, 72
2, 3120, Note_on_c, 0, 79, 0
2, 3120, Note_on_c, 0, 77, 72
2, 3144, Note_on_c, 0, 77, 0
2, 3144, Note_on_c, 0, 76, 72
2, 3168, Note_on_c, 0, 76, 0
2, 3168, Note_on_c, 0, 77, 72
2, 3264, Note_on_c, 0, 77, 0
2, 3264, Note_on_c, 0, 77, 72
2, 3288, Note_on_c, 0, 77, 0
2, 3288, Note_on_c, 0, 79, 72
2, 3312, Note_on_c, 0, 79, 0
2, 3312, Note_on_c, 0, 77, 72
2, 3336, Note_on_c, 0, 77, 0
2, 3336, Note_on_c, 0, 76, 72
2, 3360, Note_on_c, 0, 76, 0
2, 3360, Note_on_c, 0, 74, 72
2, 3456, Note_on_c, 0, 74, 0
2, 3456, Note_on_c, 0, 74, 72
2, 3480, Note_on_c, 0, 74, 0
2, 3480, Note_on_c, 0, 77, 72
2, 3504, Note_on_c, 0, 77, 0
2, 3504, Note_on_c, 0, 76, 72
2, 3528, Note_on_c, 0, 76, 0
2, 3528, Note_on_c, 0, 74, 72
2, 3552, Note_on_c, 0, 74, 0
2, 3552, Note_on_c, 0, 73, 72
2, 3648, Note_on_c, 0, 73, 0
2, 3648, Note_on_c, 0, 73, 72
2, 3672, Note_on_c, 0, 73, 0
2, 3672, Note_on_c, 0, 73, 72
2, 3696, Note_on_c, 0, 73, 0
2, 3696, Note_on_c, 0, 74, 72
2, 3720, Note_on_c, 0, 74, 0
2, 3720, Note_on_c, 0, 76, 72
2, 3744, Note_on_c, 0, 76, 0
2, 3744, Note_on_c, 0, 77, 72
2, 3840, Note_on_c, 0, 77, 0
2, 3840, Note_on_c, 0, 77, 72
2, 3864, Note_on_c, 0, 77, 0
2, 3864, Note_on_c, 0, 76, 72
2, 3888, Note_on_c, 0, 76, 0
2, 3888, Note_on_c, 0, 77, 72
2, 3912, Note_on_c, 0, 77, 0
2, 3912, Note_on_c, 0, 79, 72
2, 3936, Note_on_c, 0, 79, 0
2, 3936, Note_on_c, 0, 81, 72
2, 4032, Note_on_c, 0, 81, 0
2, 4032, Note_on_c, 0, 79, 72
2, 4128, Note_on_c, 0, 79, 0
2, 4128, Note_on_c, 0, 79, 72
2, 4152, Note_on_c, 0, 79, 0
2, 4152, Note_on_c, 0, 82, 72
2, 4176, Note_on_c, 0, 82, 0
2, 4176, Note_on_c, 0, 81, 72
2, 4200, Note_on_c, 0, 81, 0
2, 4200, Note_on_c, 0, 79, 72
2, 4224, Note_on_c, 0, 79, 0
2, 4224, Note_on_c, 0, 78, 72
2, 4320, Note_on_c, 0, 78, 0
2, 4320, Note_on_c, 0, 78, 72
2, 4344, Note_on_c, 0, 78, 0
2, 4344, Note_on_c, 0, 78, 72
2, 4368, Note_on_c, 0, 78, 0
2, 4368, Note_on_c, 0, 79, 72
2, 4392, Note_on_c, 0, 79, 0
2, 4392, Note_on_c, 0, 81, 72
2, 4416, Note_on_c, 0, 81, 0
2, 4416, Note_on_c, 0, 74, 72
2, 4512, Note_on_c, 0, 74, 0
2, 4512, Note_on_c, 0, 75, 72
2, 4608, Note_on_c, 0, 75, 0
2, 4608, Note_on_c, 0, 74, 72
2, 4704, Note_on_c, 0, 74, 0
2, 4800, Note_on_c, 0, 69, 88
2, 4896, Note_on_c, 0, 69, 0
2, 4896, Note_on_c, 0, 74, 88
2, 4968, Note_on_c, 0, 74, 0
2, 4968, Note_on_c, 0, 72, 88
2, 4992, Note_on_c, 0, 72, 0
2, 4992, Note_on_c, 0, 70, 88
2, 5064, Note_on_c, 0, 70, 0
2, 5064, Note_on_c, 0, 69, 88
2, 5088, Note_on_c, 0, 69, 0
2, 5088, Note_on_c, 0, 67, 88
2, 5184, Note_on_c, 0, 67, 0
2, 5184, Note_on_c, 0, 66, 88
2, 5280, Note_on_c, 0, 66, 0
2, 5280, Note_on_c, 0, 67, 88
2, 5352, Note_on_c, 0, 67, 0
2, 5352, Note_on_c, 0, 69, 88
2, 5376, Note_on_c, 0, 69, 0
2, 5376, Note_on_c, 0, 70, 88
2, 5472, Note_on_c, 0, 70, 0
2, 5472, Note_on_c, 0, 70, 88
2, 5496, Note_on_c, 0, 70, 0
2, 5496, Note_on_c, 0, 72, 88
2, 5520, Note_on_c, 0, 72, 0
2, 5520, Note_on_c, 0, 70, 88
2, 5544, Note_on_c, 0, 70, 0
2, 5544, Note_on_c, 0, 69, 88
2, 5568, Note_on_c, 0, 69, 0
2, 5568, Note_on_c, 0, 67, 88
2, 5664, Note_on_c, 0, 67, 0
2, 5664, Note_on_c, 0, 67, 88
2, 5688, Note_on_c, 0, 67, 0
2, 5688, Note_on_c, 0, 68, 72
2, 5712, Note_on_c, 0, 68, 0
2, 5712, Note_on_c, 0, 67, 72
2, 5736, Note_on_c, 0, 67, 0
2, 5736, Note_on_c, 0, 65, 72
2, 5760, Note_on_c, 0, 65, 0
2, 5760, Note_on_c, 0, 63, 72
2, 5784, Note_on_c, 0, 63, 0
2, 5784, Note_on_c, 0, 67, 72
2, 5808, Note_on_c, 0, 67, 0
2, 5808, Note_on_c, 0, 69, 72
2, 5832, Note_on_c, 0, 69, 0
2, 5832, Note_on_c, 0, 70, 72
2, 5856, Note_on_c, 0, 70, 0
2, 5856, Note_on_c, 0, 72, 72
2, 5952, Note_on_c, 0, 72, 0
2, 5952, Note_on_c, 0, 72, 72
2, 5976, Note_on_c, 0, 72, 0
2, 5976, Note_on_c, 0, 72, 72
2, 6000, Note_on_c, 0, 72, 0
2, 6000, Note_on_c, 0, 70, 72
2, 6024, Note_on_c, 0, 70, 0
2, 6024, Note_on_c, 0, 69, 72
2, 6048, Note_on_c, 0, 69, 0
2, 6048, Note_on_c, 0, 70, 72
2, 6072, Note_on_c, 0, 70, 0
2, 6072, Note_on_c, 0, 72, 72
2, 6096, Note_on_c, 0, 72, 0
2, 6096, Note_on_c, 0, 74, 72
2, 6120, Note_on_c, 0, 74, 0
2, 6120, Note_on_c, 0, 75, 72
2, 6144, Note_on_c, 0, 75, 0
2, 6144, Note_on_c, 0, 77, 72
2, 6168, Note_on_c, 0, 77, 0
2, 6168, Note_on_c, 0, 75, 72
2, 6192, Note_on_c, 0, 75, 0
2, 6192, Note_on_c, 0, 74, 72
2, 6216, Note_on_c, 0, 74, 0
2, 6216, Note_on_c, 0, 72, 72
2, 6240, Note_on_c, 0, 72, 0
2, 6240, Note_on_c, 0, 70, 72
2, 6336, Note_on_c, 0, 70, 0
2, 6336, Note_on_c, 0, 70, 72
2, 6360, Note_on_c, 0, 70, 0
2, 6360, Note_on_c, 0, 69, 72
2, 6384, Note_on_c, 0, 69, 0
2, 6384, Note_on_c, 0, 67, 72
2, 6408, Note_on_c, 0, 67, 0
2, 6408, Note_on_c, 0, 65, 72
2, 6432, Note_on_c, 0, 65, 0
2, 6432, Note_on_c, 0, 64, 72
2, 6456, Note_on_c, 0, 64, 0
2, 6456, Note_on_c, 0, 67, 72
2, 6480, Note_on_c, 0, 67, 0
2, 6480, Note_on_c, 0, 65, 72
2, 6504, Note_on_c, 0, 65, 0
2, 6504, Note_on_c, 0, 64, 72
2, 6528, Note_on_c, 0, 64, 0
2, 6528, Note_on_c, 0, 65, 72
2, 6672, Note_on_c, 0, 65, 0
2, 6672, Note_on_c, 0, 70, 72
2, 6744, Note_on_c, 0, 70, 0
2, 6744, Note_on_c, 0, 70, 72
2, 6768, Note_on_c, 0, 70, 0
2, 6768, Note_on_c, 0, 69, 72
2, 6792, Note_on_c, 0, 69, 0
2, 6792, Note_on_c, 0, 67, 72
2, 6816, Note_on_c, 0, 67, 0
2, 6816, Note_on_c, 0, 69, 72
2, 6864, Note_on_c, 0, 69, 0
2, 6864, Note_on_c, 0, 71, 72
2, 6888, Note_on_c, 0, 71, 0
2, 6888, Note_on_c, 0, 72, 72
2, 6912, Note_on_c, 0, 72, 0
2, 6912, Note_on_c, 0, 74, 72
2, 6936, Note_on_c, 0, 74, 0
2, 6936, Note_on_c, 0, 71, 72
2, 6960, Note_on_c, 0, 71, 0
2, 6960, Note_on_c, 0, 72, 72
2, 6984, Note_on_c, 0, 72, 0
2, 6984, Note_on_c, 0, 74, 72
2, 7008, Note_on_c, 0, 74, 0
2, 7008, Note_on_c, 0, 67, 72
2, 7056, Note_on_c, 0, 67, 0
2, 7056, Note_on_c, 0, 75, 72
2, 7104, Note_on_c, 0, 75, 0
2, 7104, Note_on_c, 0, 74, 72
2, 7248, Note_on_c, 0, 74, 0
2, 7248, Note_on_c, 0, 76, 72
2, 7296, Note_on_c, 0, 76, 0
2, 7296, Note_on_c, 0, 77, 72
2, 7488, Note_on_c, 0, 77, 0
2, 7488, Note_on_c, 0, 77, 72
2, 7560, Note_on_c, 0, 77, 0
2, 7560, Note_on_c, 0, 75, 72
2, 7584, Note_on_c, 0, 75, 0
2, 7584, Note_on_c, 0, 74, 72
2, 7680, Note_on_c, 0, 74, 0
2, 7680, Note_on_c, 0, 74, 72
2, 7704, Note_on_c, 0, 74, 0
2, 7704, Note_on_c, 0, 69, 72
2, 7728, Note_on_c, 0, 69, 0
2, 7728, Note_on_c, 0, 74, 72
2, 7800, Note_on_c, 0, 74, 0
2, 7800, Note_on_c, 0, 72, 72
2, 7824, Note_on_c, 0, 72, 0
2, 7824, Note_on_c, 0, 74, 72
2, 7848, Note_on_c, 0, 74, 0
2, 7848, Note_on_c, 0, 75, 72
2, 7872, Note_on_c, 0, 75, 0
2, 7872, Note_on_c, 0, 77, 72
2, 7968, Note_on_c, 0, 77, 0
2, 7968, Note_on_c, 0, 77, 72
2, 7992, Note_on_c, 0, 77, 0
2, 7992, Note_on_c, 0, 79, 72
2, 8016, Note_on_c, 0, 79, 0
2, 8016, Note_on_c, 0, 77, 72
2, 8040, Note_on_c, 0, 77, 0
2, 8040, Note_on_c, 0, 75, 72
2, 8064, Note_on_c, 0, 75, 0
2, 8064, Note_on_c, 0, 74, 72
2, 8160, Note_on_c, 0, 74, 0
2, 8160, Note_on_c, 0, 74, 72
2, 8184, Note_on_c, 0, 74, 0
2, 8184, Note_on_c, 0, 74, 72
2, 8208, Note_on_c, 0, 74, 0
2, 8208, Note_on_c, 0, 72, 72
2, 8232, Note_on_c, 0, 72, 0
2, 8232, Note_on_c, 0, 70, 72
2, 8256, Note_on_c, 0, 70, 0
2, 8256, Note_on_c, 0, 69, 72
2, 8280, Note_on_c, 0, 69, 0
2, 8280, Note_on_c, 0, 75, 72
2, 8304, Note_on_c, 0, 75, 0
2, 8304, Note_on_c, 0, 74, 72
2, 8352, Note_on_c, 0, 74, 0
2, 8352, Note_on_c, 0, 72, 72
2, 8448, Note_on_c, 0, 72, 0
2, 8448, Note_on_c, 0, 72, 72
2, 8472, Note_on_c, 0, 72, 0
2, 8472, Note_on_c, 0, 70, 72
2, 8496, Note_on_c, 0, 70, 0
2, 8496, Note_on_c, 0, 69, 72
2, 8520, Note_on_c, 0, 69, 0
2, 8520, Note_on_c, 0, 67, 72
2, 8544, Note_on_c, 0, 67, 0
2, 8544, Note_on_c, 0, 69, 72
2, 8568, Note_on_c, 0, 69, 0
2, 8568, Note_on_c, 0, 67, 72
2, 8592, Note_on_c, 0, 67, 0
2, 8592, Note_on_c, 0, 65, 72
2, 8640, Note_on_c, 0, 65, 0
2, 8640, Note_on_c, 0, 72, 72
2, 8736, Note_on_c, 0, 72, 0
2, 8736, Note_on_c, 0, 72, 72
2, 8760, Note_on_c, 0, 72, 0
2, 8760, Note_on_c, 0, 71, 72
2, 8784, Note_on_c, 0, 71, 0
2, 8784, Note_on_c, 0, 72, 72
2, 8808, Note_on_c, 0, 72, 0
2, 8808, Note_on_c, 0, 74, 72
2, 8832, Note_on_c, 0, 74, 0
2, 8832, Note_on_c, 0, 67, 72
2, 8928, Note_on_c, 0, 67, 0
2, 9024, Note_on_c, 0, 72, 88
2, 9120, Note_on_c, 0, 72, 0
2, 9120, Note_on_c, 0, 65, 88
2, 9192, Note_on_c, 0, 65, 0
2, 9192, Note_on_c, 0, 67, 88
2, 9216, Note_on_c, 0, 67, 0
2, 9216, Note_on_c, 0, 69, 88
2, 9288, Note_on_c, 0, 69, 0
2, 9288, Note_on_c, 0, 70, 88
2, 9312, Note_on_c, 0, 70, 0
2, 9312, Note_on_c, 0, 72, 88
2, 9408, Note_on_c, 0, 72, 0
2, 9408, Note_on_c, 0, 74, 88
2, 9504, Note_on_c, 0, 74, 0
2, 9504, Note_on_c, 0, 72, 88
2, 9576, Note_on_c, 0, 72, 0
2, 9576, Note_on_c, 0, 70, 88
2, 9600, Note_on_c, 0, 70, 0
2, 9600, Note_on_c, 0, 69, 88
2, 9696, Note_on_c, 0, 69, 0
2, 9696, Note_on_c, 0, 69, 88
2, 9720, Note_on_c, 0, 69, 0
2, 9720, Note_on_c, 0, 67, 88
2, 9744, Note_on_c, 0, 67, 0
2, 9744, Note_on_c, 0, 69, 88
2, 9768, Note_on_c, 0, 69, 0
2, 9768, Note_on_c, 0, 70, 88
2, 9792, Note_on_c, 0, 70, 0
2, 9792, Note_on_c, 0, 72, 88
2, 9888, Note_on_c, 0, 72, 0
2, 9888, Note_on_c, 0, 72, 88
2, 9912, Note_on_c, 0, 72, 0
2, 9912, Note_on_c, 0, 74, 72
2, 9936, Note_on_c, 0, 74, 0
2, 9936, Note_on_c, 0, 72, 72
2, 9960, Note_on_c, 0, 72, 0
2, 9960, Note_on_c, 0, 71, 72
2, 9984, Note_on_c, 0, 71, 0
2, 9984, Note_on_c, 0, 72, 72
2, 10008, Note_on_c, 0, 72, 0
2, 10008, Note_on_c, 0, 74, 72
2, 10032, Note_on_c, 0, 74, 0
2, 10032, Note_on_c, 0, 76, 72
2, 10056, Note_on_c, 0, 76, 0
2, 10056, Note_on_c, 0, 77, 72
2, 10080, Note_on_c, 0, 77, 0
2, 10080, Note_on_c, 0, 79, 72
2, 10176, Note_on_c, 0, 79, 0
2, 10176, Note_on_c, 0, 79, 72
2, 10200, Note_on_c, 0, 79, 0
2, 10200, Note_on_c, 0, 77, 72
2, 10224, Note_on_c, 0, 77, 0
2, 10224, Note_on_c, 0, 76, 72
2, 10248, Note_on_c, 0, 76, 0
2, 10248, Note_on_c, 0, 74, 72
2, 10272, Note_on_c, 0, 74, 0
2, 10272, Note_on_c, 0, 73, 72
2, 10368, Note_on_c, 0, 73, 0
2, 10368, Note_on_c, 0, 74, 72
2, 10464, Note_on_c, 0, 74, 0
2, 10488, Note_on_c, 0, 69, 72
2, 10512, Note_on_c, 0, 69, 0
2, 10512, Note_on_c, 0, 71, 72
2, 10536, Note_on_c, 0, 71, 0
2, 10536, Note_on_c, 0, 73, 72
2, 10560, Note_on_c, 0, 73, 0
2, 10560, Note_on_c, 0, 74, 72
2, 10584, Note_on_c, 0, 74, 0
2, 10584, Note_on_c, 0, 76, 72
2, 10608, Note_on_c, 0, 76, 0
2, 10608, Note_on_c, 0, 77, 72
2, 10704, Note_on_c, 0, 77, 0
2, 10704, Note_on_c, 0, 76, 72
2, 10752, Note_on_c, 0, 76, 0
2, 10752, Note_on_c, 0, 76, 72
2, 10776, Note_on_c, 0, 76, 0
2, 10776, Note_on_c, 0, 76, 72
2, 10800, Note_on_c, 0, 76, 0
2, 10800, Note_on_c, 0, 81, 72
2, 10824, Note_on_c, 0, 81, 0
2, 10824, Note_on_c, 0, 79, 72
2, 10848, Note_on_c, 0, 79, 0
2, 10848, Note_on_c, 0, 77, 72
2, 10872, Note_on_c, 0, 77, 0
2, 10872, Note_on_c, 0, 76, 72
2, 10896, Note_on_c, 0, 76, 0
2, 10896, Note_on_c, 0, 74, 72
2, 10920, Note_on_c, 0, 74, 0
2, 10920, Note_on_c, 0, 73, 72
2, 10944, Note_on_c, 0, 73, 0
2, 10944, Note_on_c, 0, 74, 72
2, 10968, Note_on_c, 0, 74, 0
2, 10968, Note_on_c, 0, 70, 72
2, 10992, Note_on_c, 0, 70, 0
2, 10992, Note_on_c, 0, 69, 72
2, 11016, Note_on_c, 0, 69, 0
2, 11016, Note_on_c, 0, 67, 72
2, 11040, Note_on_c, 0, 67, 0
2, 11040, Note_on_c, 0, 65, 72
2, 11064, Note_on_c, 0, 65, 0
2, 11064, Note_on_c, 0, 64, 72
2, 11088, Note_on_c, 0, 64, 0
2, 11088, Note_on_c, 0, 62, 72
2, 11112, Note_on_c, 0, 62, 0
2, 11112, Note_on_c, 0, 61, 72
2, 11136, Note_on_c, 0, 61, 0
2, 11136, Note_on_c, 0, 62, 72
2, 11160, Note_on_c, 0, 62, 0
2, 11160, Note_on_c, 0, 69, 72
2, 11184, Note_on_c, 0, 69, 0
2, 11184, Note_on_c, 0, 74, 72
2, 11256, Note_on_c, 0, 74, 0
2, 11256, Note_on_c, 0, 77, 72
2, 11280, Note_on_c, 0, 77, 0
2, 11280, Note_on_c, 0, 76, 72
2, 11304, Note_on_c, 0, 76, 0
2, 11304, Note_on_c, 0, 74, 72
2, 11328, Note_on_c, 0, 74, 0
2, 11328, Note_on_c, 0, 76, 72
2, 11352, Note_on_c, 0, 76, 0
2, 11352, Note_on_c, 0, 81, 72
2, 11400, Note_on_c, 0, 81, 0
2, 11400, Note_on_c, 0, 69, 72
2, 11424, Note_on_c, 0, 69, 0
2, 11424, Note_on_c, 0, 70, 72
2, 11448, Note_on_c, 0, 70, 0
2, 11448, Note_on_c, 0, 74, 72
2, 11472, Note_on_c, 0, 74, 0
2, 11472, Note_on_c, 0, 79, 72
2, 11496, Note_on_c, 0, 79, 0
2, 11496, Note_on_c, 0, 67, 72
2, 11520, Note_on_c, 0, 67, 0
2, 11520, Note_on_c, 0, 69, 72
2, 11544, Note_on_c, 0, 69, 0
2, 11544, Note_on_c, 0, 72, 72
2, 11568, Note_on_c, 0, 72, 0
2, 11568, Note_on_c, 0, 77, 72
2, 11592, Note_on_c, 0, 77, 0
2, 11592, Note_on_c, 0, 76, 72
2, 11616, Note_on_c, 0, 76, 0
2, 11616, Note_on_c, 0, 74, 72
2, 11688, Note_on_c, 0, 74, 0
2, 11688, Note_on_c, 0, 76, 72
2, 11712, Note_on_c, 0, 76, 0
2, 11712, Note_on_c, 0, 69, 72
2, 11760, Note_on_c, 0, 69, 0
2, 11760, Note_on_c, 0, 74, 72
2, 11832, Note_on_c, 0, 74, 0
2, 11832, Note_on_c, 0, 76, 72
2, 11856, Note_on_c, 0, 76, 0
2, 11856, Note_on_c, 0, 74, 72
2, 11880, Note_on_c, 0, 74, 0
2, 11880, Note_on_c, 0, 72, 72
2, 11904, Note_on_c, 0, 72, 0
2, 11904, Note_on_c, 0, 77, 72
2, 11952, Note_on_c, 0, 77, 0
2, 11952, Note_on_c, 0, 70, 72
2, 12024, Note_on_c, 0, 70, 0
2, 12024, Note_on_c, 0, 72, 72
2, 12048, Note_on_c, 0, 72, 0
2, 12048, Note_on_c, 0, 70, 72
2, 12072, Note_on_c, 0, 70, 0
2, 12072, Note_on_c, 0, 69, 72
2, 12096, Note_on_c, 0, 69, 0
2, 12096, Note_on_c, 0, 67, 72
2, 12144, Note_on_c, 0, 67, 0
2, 12144, Note_on_c, 0, 79, 72
2, 12216, Note_on_c, 0, 79, 0
2, 12216, Note_on_c, 0, 82, 72
2, 12240, Note_on_c, 0, 82, 0
2, 12240, Note_on_c, 0, 81, 72
2, 12264, Note_on_c, 0, 81, 0
2, 12264, Note_on_c, 0, 79, 72
2, 12288, Note_on_c, 0, 79, 0
2, 12288, Note_on_c, 0, 78, 72
2, 12336, Note_on_c, 0, 78, 0
2, 12336, Note_on_c, 0, 77, 72
2, 12408, Note_on_c, 0, 77, 0
2, 12408, Note_on_c, 0, 81, 72
2, 12432, Note_on_c, 0, 81, 0
2, 12432, Note_on_c, 0, 79, 72
2, 12456, Note_on_c, 0, 79, 0
2, 12456, Note_on_c, 0, 77, 72
2, 12480, Note_on_c, 0, 77, 0
2, 12480, Note_on_c, 0, 76, 72
2, 12528, Note_on_c, 0, 76, 0
2, 12528, Note_on_c, 0, 75, 72
2, 12600, Note_on_c, 0, 75, 0
2, 12600, Note_on_c, 0, 79, 72
2, 12624, Note_on_c, 0, 79, 0
2, 12624, Note_on_c, 0, 77, 72
2, 12648, Note_on_c, 0, 77, 0
2, 12648, Note_on_c, 0, 75, 72
2, 12672, Note_on_c, 0, 75, 0
2, 12672, Note_on_c, 0, 74, 72
2, 12768, Note_on_c, 0, 74, 0
2, 12768, Note_on_c, 0, 73, 72
2, 12816, Note_on_c, 0, 73, 0
2, 12816, Note_on_c, 0, 72, 72
2, 12912, Note_on_c, 0, 72, 0
2, 12912, Note_on_c, 0, 70, 72
2, 12936, Note_on_c, 0, 70, 0
2, 12936, Note_on_c, 0, 69, 72
2, 12960, Note_on_c, 0, 69, 0
2, 12960, Note_on_c, 0, 67, 72
2, 12984, Note_on_c, 0, 67, 0
2, 12984, Note_on_c, 0, 77, 72
2, 13008, Note_on_c, 0, 77, 0
2, 13008, Note_on_c, 0, 76, 72
2, 13032, Note_on_c, 0, 76, 0
2, 13032, Note_on_c, 0, 74, 72
2, 13056, Note_on_c, 0, 74, 0
2, 13056, Note_on_c, 0, 73, 72
2, 13128, Note_on_c, 0, 73, 0
2, 13128, Note_on_c, 0, 74, 72
2, 13152, Note_on_c, 0, 74, 0
2, 13152, Note_on_c, 0, 76, 72
2, 13224, Note_on_c, 0, 76, 0
2, 13224, Note_on_c, 0, 73, 72
2, 13248, Note_on_c, 0, 73, 0
2, 13248, Note_on_c, 0, 74, 72
2, 13272, Note_on_c, 0, 74, 0
2, 13272, Note_on_c, 0, 77, 72
2, 13296, Note_on_c, 0, 77, 0
2, 13296, Note_on_c, 0, 76, 72
2, 13320, Note_on_c, 0, 76, 0
2, 13320, Note_on_c, 0, 74, 72
2, 13344, Note_on_c, 0, 74, 0
2, 13344, Note_on_c, 0, 73, 72
2, 13368, Note_on_c, 0, 73, 0
2, 13368, Note_on_c, 0, 76, 72
2, 13392, Note_on_c, 0, 76, 0
2, 13392, Note_on_c, 0, 69, 72
2, 13416, Note_on_c, 0, 69, 0
2, 13416, Note_on_c, 0, 67, 72
2, 13440, Note_on_c, 0, 67, 0
2, 13440, Note_on_c, 0, 65, 72
2, 13464, Note_on_c, 0, 65, 0
2, 13464, Note_on_c, 0, 67, 72
2, 13488, Note_on_c, 0, 67, 0
2, 13488, Note_on_c, 0, 65, 72
2, 13512, Note_on_c, 0, 65, 0
2, 13512, Note_on_c, 0, 64, 72
2, 13536, Note_on_c, 0, 64, 0
2, 13536, Note_on_c, 0, 62, 72
2, 13560, Note_on_c, 0, 62, 0
2, 13560, Note_on_c, 0, 65, 72
2, 13584, Note_on_c, 0, 65, 0
2, 13584, Note_on_c, 0, 70, 72
2, 13608, Note_on_c, 0, 70, 0
2, 13608, Note_on_c, 0, 69, 72
2, 13632, Note_on_c, 0, 69, 0
2, 13632, Note_on_c, 0, 67, 72
2, 13656, Note_on_c, 0, 67, 0
2, 13656, Note_on_c, 0, 65, 72
2, 13680, Note_on_c, 0, 65, 0
2, 13680, Note_on_c, 0, 64, 72
2, 13704, Note_on_c, 0, 64, 0
2, 13704, Note_on_c, 0, 65, 72
2, 13728, Note_on_c, 0, 65, 0
2, 13728, Note_on_c, 0, 67, 72
2, 13752, Note_on_c, 0, 67, 0
2, 13752, Note_on_c, 0, 70, 72
2, 13776, Note_on_c, 0, 70, 0
2, 13776, Note_on_c, 0, 74, 72
2, 13800, Note_on_c, 0, 74, 0
2, 13800, Note_on_c, 0, 73, 72
2, 13824, Note_on_c, 0, 73, 0
2, 13824, Note_on_c, 0, 74, 72
2, 13920, Note_on_c, 0, 74, 0
2, 13944, Note_on_c, 0, 74, 72
2, 13968, Note_on_c, 0, 74, 0
2, 13968, Note_on_c, 0, 72, 72
2, 13992, Note_on_c, 0, 72, 0
2, 13992, Note_on_c, 0, 70, 72
2, 14016, Note_on_c, 0, 70, 0
2, 14016, Note_on_c, 0, 69, 72
2, 14112, Note_on_c, 0, 69, 0
2, 14136, Note_on_c, 0, 73, 72
2, 14160, Note_on_c, 0, 73, 0
2, 14160, Note_on_c, 0, 74, 72
2, 14184, Note_on_c, 0, 74, 0
2, 14184, Note_on_c, 0, 76, 72
2, 14208, Note_on_c, 0, 76, 0
2, 14208, Note_on_c, 0, 77, 72
2, 14232, Note_on_c, 0, 77, 0
2, 14232, Note_on_c, 0, 79, 72
2, 14256, Note_on_c, 0, 79, 0
2, 14256, Note_on_c, 0, 77, 72
2, 14280, Note_on_c, 0, 77, 0
2, 14280, Note_on_c, 0, 76, 72
2, 14304, Note_on_c, 0, 76, 0
2, 14304, Note_on_c, 0, 74, 88
2, 14400, Note_on_c, 0, 74, 0
2, 14400, Note_on_c, 0, 81, 88
2, 14544, Note_on_c, 0, 81, 0
2, 14544, Note_on_c, 0, 79, 88
2, 14592, Note_on_c, 0, 79, 0
2, 14592, Note_on_c, 0, 77, 88
2, 14736, Note_on_c, 0, 77, 0
2, 14736, Note_on_c, 0, 76, 88
2, 14784, Note_on_c, 0, 76, 0
2, 14784, Note_on_c, 0, 74, 88
2, 14976, Note_on_c, 0, 74, 0
2, 14976, Note_on_c, 0, 73, 88
2, 15168, Note_on_c, 0, 73, 0
2, 15168, Note_on_c, 0, 74, 88
2, 15264, Note_on_c, 0, 74, 0
2, 15264, Note_on_c, 0, 76, 88
2, 15360, Note_on_c, 0, 76, 0
2, 15360, Note_on_c, 0, 77, 88
2, 15552, Note_on_c, 0, 77, 0
2, 15552, Note_on_c, 0, 77, 88
2, 15600, Note_on_c, 0, 77, 0
2, 15600, Note_on_c, 0, 79, 88
2, 15648, Note_on_c, 0, 79, 0
2, 15648, Note_on_c, 0, 77, 88
2, 15696, Note_on_c, 0, 77, 0
2, 15696, Note_on_c, 0, 76, 88
2, 15744, Note_on_c, 0, 76, 0
2, 15744, Note_on_c, 0, 74, 88
2, 15768, Note_on_c, 0, 74, 0
2, 15768, Note_on_c, 0, 69, 88
2, 15792, Note_on_c, 0, 69, 0
2, 15792, Note_on_c, 0, 74, 88
2, 15864, Note_on_c, 0, 74, 0
2, 15864, Note_on_c, 0, 76, 72
2, 15888, Note_on_c, 0, 76, 0
2, 15888, Note_on_c, 0, 74, 72
2, 15912, Note_on_c, 0, 74, 0
2, 15912, Note_on_c, 0, 73, 72
2, 15936, Note_on_c, 0, 73, 0
2, 15936, Note_on_c, 0, 74, 72
2, 15984, Note_on_c, 0, 74, 0
2, 15984, Note_on_c, 0, 81, 88
2, 16032, Note_on_c, 0, 81, 0
2, 16032, Note_on_c, 0, 74, 88
2, 16104, Note_on_c, 0, 74, 0
2, 16104, Note_on_c, 0, 76, 88
2, 16128, Note_on_c, 0, 76, 0
2, 16128, Note_on_c, 0, 77, 88
2, 16200, Note_on_c, 0, 77, 0
2, 16200, Note_on_c, 0, 79, 88
2, 16224, Note_on_c, 0, 79, 0
2, 16224, Note_on_c, 0, 81, 88
2, 16320, Note_on_c, 0, 81, 0
2, 16320, Note_on_c, 0, 82, 88
2, 16416, Note_on_c, 0, 82, 0
2, 16416, Note_on_c, 0, 81, 88
2, 16488, Note_on_c, 0, 81, 0
2, 16488, Note_on_c, 0, 79, 88
2, 16512, Note_on_c, 0, 79, 0
2, 16512, Note_on_c, 0, 77, 88
2, 16608, Note_on_c, 0, 77, 0
2, 16608, Note_on_c, 0, 77, 88
2, 16632, Note_on_c, 0, 77, 0
2, 16632, Note_on_c, 0, 76, 88
2, 16656, Note_on_c, 0, 76, 0
2, 16656, Note_on_c, 0, 77, 88
2, 16680, Note_on_c, 0, 77, 0
2, 16680, Note_on_c, 0, 79, 88
2, 16704, Note_on_c, 0, 79, 0
2, 16704, Note_on_c, 0, 81, 88
2, 16728, Note_on_c, 0, 81, 0
2, 16728, Note_on_c, 0, 77, 72
2, 16752, Note_on_c, 0, 77, 0
2, 16752, Note_on_c, 0, 76, 72
2, 16776, Note_on_c, 0, 76, 0
2, 16776, Note_on_c, 0, 74, 72
2, 16800, Note_on_c, 0, 74, 0
2, 16800, Note_on_c, 0, 72, 72
2, 16848, Note_on_c, 0, 72, 0
2, 18816, Note_on_c, 0, 74, 88
2, 19200, Note_on_c, 0, 74, 0
2, 19200, Note_on_c, 0, 81, 88
2, 19488, Note_on_c, 0, 81, 0
2, 19488, Note_on_c, 0, 79, 88
2, 19584, Note_on_c, 0, 79, 0
2, 19584, Note_on_c, 0, 77, 88
2, 19872, Note_on_c, 0, 77, 0
2, 19872, Note_on_c, 0, 76, 88
2, 19968, Note_on_c, 0, 76, 0
2, 19968, Note_on_c, 0, 74, 88
2, 20352, Note_on_c, 0, 74, 0
2, 20352, Note_on_c, 0, 73, 88
2, 20736, Note_on_c, 0, 73, 0
2, 20736, Note_on_c, 0, 74, 88
2, 21024, Note_on_c, 0, 74, 0
2, 21024, Note_on_c, 0, 76, 88
2, 21120, Note_on_c, 0, 76, 0
2, 21120, Note_on_c, 0, 77, 88
2, 21504, Note_on_c, 0, 77, 0
2, 21504, Note_on_c, 0, 77, 88
2, 21552, Note_on_c, 0, 77, 0
2, 21552, Note_on_c, 0, 74, 88
2, 21600, Note_on_c, 0, 74, 0
2, 21600, Note_on_c, 0, 79, 88
2, 21648, Note_on_c, 0, 79, 0
2, 21648, Note_on_c, 0, 76, 88
2, 21696, Note_on_c, 0, 76, 0
2, 21696, Note_on_c, 0, 77, 88
2, 21744, Note_on_c, 0, 77, 0
2, 21744, Note_on_c, 0, 74, 88
2, 21792, Note_on_c, 0, 74, 0
2, 21792, Note_on_c, 0, 76, 88
2, 21840, Note_on_c, 0, 76, 0
2, 21840, Note_on_c, 0, 73, 88
2, 21888, Note_on_c, 0, 73, 0
2, 21888, Note_on_c, 0, 74, 88
2, 21984, Note_on_c, 0, 74, 0
2, 21984, Note_on_c, 0, 74, 88
2, 22080, Note_on_c, 0, 74, 0
2, 22080, Note_on_c, 0, 74, 88
2, 22104, Note_on_c, 0, 74, 0
2, 22104, Note_on_c, 0, 76, 88
2, 22128, Note_on_c, 0, 76, 0
2, 22128, Note_on_c, 0, 74, 88
2, 22152, Note_on_c, 0, 74, 0
2, 22152, Note_on_c, 0, 73, 88
2, 22176, Note_on_c, 0, 73, 0
2, 22176, Note_on_c, 0, 74, 88
2, 22200, Note_on_c, 0, 74, 0
2, 22200, Note_on_c, 0, 76, 88
2, 22224, Note_on_c, 0, 76, 0
2, 22224, Note_on_c, 0, 77, 88
2, 22248, Note_on_c, 0, 77, 0
2, 22248, Note_on_c, 0, 76, 88
2, 22272, Note_on_c, 0, 76, 0
2, 22272, Note_on_c, 0, 79, 88
2, 22320, Note_on_c, 0, 79, 0
2, 22320, Note_on_c, 0, 77, 88
2, 22368, Note_on_c, 0, 77, 0
2, 22368, Note_on_c, 0, 76, 88
2, 22416, Note_on_c, 0, 76, 0
2, 22416, Note_on_c, 0, 74, 88
2, 22464, Note_on_c, 0, 74, 0
2, 22464, Note_on_c, 0, 76, 88
2, 22512, Note_on_c, 0, 76, 0
2, 22512, Note_on_c, 0, 73, 88
2, 22560, Note_on_c, 0, 73, 0
2, 22560, Note_on_c, 0, 74, 88
2, 22656, Note_on_c, 0, 74, 0
2, 22656, Note_on_c, 0, 65, 88
2, 22704, Note_on_c, 0, 65, 0
2, 22704, Note_on_c, 0, 62, 88
2, 22752, Note_on_c, 0, 62, 0
2, 22752, Note_on_c, 0, 64, 88
2, 22800, Note_on_c, 0, 64, 0
2, 22800, Note_on_c, 0, 65, 88
2, 22848, Note_on_c, 0, 65, 0
2, 22848, Note_on_c, 0, 67, 88
2, 22896, Note_on_c, 0, 67, 0
2, 22896, Note_on_c, 0, 69, 88
2, 22944, Note_on_c, 0, 69, 0
2, 22944, Note_on_c, 0, 70, 88
2, 22992, Note_on_c, 0, 70, 0
2, 22992, Note_on_c, 0, 73, 88
2, 23040, Note_on_c, 0, 73, 0
2, 23040, Note_on_c, 0, 74, 88
2, 23088, Note_on_c, 0, 74, 0
2, 23088, Note_on_c, 0, 69, 88
2, 23136, Note_on_c, 0, 69, 0
2, 23136, Note_on_c, 0, 67, 88
2, 23184, Note_on_c, 0, 67, 0
2, 23184, Note_on_c, 0, 66, 88
2, 23232, Note_on_c, 0, 66, 0
2, 23232, Note_on_c, 0, 67, 88
2, 23328, Note_on_c, 0, 67, 0
2, 23328, Note_on_c, 0, 74, 88
2, 23424, Note_on_c, 0, 74, 0
2, 23424, Note_on_c, 0, 73, 88
2, 23520, Note_on_c, 0, 73, 0
2, 23520, Note_on_c, 0, 72, 88
2, 23664, Note_on_c, 0, 72, 0
2, 23664, Note_on_c, 0, 75, 88
2, 23712, Note_on_c, 0, 75, 0
2, 23712, Note_on_c, 0, 74, 88
2, 23760, Note_on_c, 0, 74, 0
2, 23760, Note_on_c, 0, 72, 88
2, 23808, Note_on_c, 0, 72, 0
2, 23808, Note_on_c, 0, 70, 88
2, 23856, Note_on_c, 0, 70, 0
2, 23856, Note_on_c, 0, 69, 88
2, 23904, Note_on_c, 0, 69, 0
2, 23904, Note_on_c, 0, 67, 88
2, 23952, Note_on_c, 0, 67, 0
2, 23952, Note_on_c, 0, 70, 88
2, 24048, Note_on_c, 0, 70, 0
2, 24048, Note_on_c, 0, 70, 88
2, 24096, Note_on_c, 0, 70, 0
2, 24096, Note_on_c, 0, 69, 88
2, 24144, Note_on_c, 0, 69, 0
2, 24144, Note_on_c, 0, 67, 88
2, 24192, Note_on_c, 0, 67, 0
2, 24192, Note_on_c, 0, 66, 88
2, 24576, Note_on_c, 0, 66, 0
2, 24576, End_track
3, 0, Start_track
3, 0, Program_c, 0, 0
3, 768, Note_on_c, 0, 74, 88
3, 864, Note_on_c, 0, 74, 0
3, 864, Note_on_c, 0, 69, 88
3, 936, Note_on_c, 0, 69, 0
3, 936, Note_on_c, 0, 71, 88
3, 960, Note_on_c, 0, 71, 0
3, 960, Note_on_c, 0, 72, 88
3, 1032, Note_on_c, 0, 72, 0
3, 1032, Note_on_c, 0, 74, 88
3, 1056, Note_on_c, 0, 74, 0
3, 1056, Note_on_c, 0, 76, 88
3, 1152, Note_on_c, 0, 76, 0
3, 1152, Note_on_c, 0, 77, 88
3, 1248, Note_on_c, 0, 77, 0
3, 1248, Note_on_c, 0, 76, 88
3, 1320, Note_on_c, 0, 76, 0
3, 1320, Note_on_c, 0, 74, 88
3, 1344, Note_on_c, 0, 74, 0
3, 1344, Note_on_c, 0, 73, 88
3, 1440, Note_on_c, 0, 73, 0
3, 1440, Note_on_c, 0, 73, 88
3, 1464, Note_on_c, 0, 73, 0
3, 1464, Note_on_c, 0, 69, 88
3, 1488, Note_on_c, 0, 69, 0
3, 1488, Note_on_c, 0, 71, 88
3, 1512, Note_on_c, 0, 71, 0
3, 1512, Note_on_c, 0, 73, 88
3, 1536, Note_on_c, 0, 73, 0
3, 1536, Note_on_c, 0, 74, 88
3, 1560, Note_on_c, 0, 74, 0
3, 1560, Note_on_c, 0, 70, 72
3, 1584, Note_on_c, 0, 70, 0
3, 1584, Note_on_c, 0, 69, 72
3, 1608, Note_on_c, 0, 69, 0
3, 1608, Note_on_c, 0, 67, 72
3, 1632, Note_on_c, 0, 67, 0
3, 1632, Note_on_c, 0, 65, 72
3, 1728, Note_on_c, 0, 65, 0
3, 1728, Note_on_c, 0, 65, 72
3, 1752, Note_on_c, 0, 65, 0
3, 1752, Note_on_c, 0, 69, 72
3, 1776, Note_on_c, 0, 69, 0
3, 1776, Note_on_c, 0, 71, 72
3, 1800, Note_on_c, 0, 71, 0
3, 1800, Note_on_c, 0, 72, 72
3, 1824, Note_on_c, 0, 72, 0
3, 1824, Note_on_c, 0, 74, 72
3, 1920, Note_on_c, 0, 74, 0
3, 1920, Note_on_c, 0, 74, 72
3, 1944, Note_on_c, 0, 74, 0
3, 1944, Note_on_c, 0, 74, 72
3, 1968, Note_on_c, 0, 74, 0
3, 1968, Note_on_c, 0, 72, 72
3, 1992, Note_on_c, 0, 72, 0
3, 1992, Note_on_c, 0, 71, 72
3, 2016, Note_on_c, 0, 71, 0
3, 2016, Note_on_c, 0, 72, 72
3, 2112, Note_on_c, 0, 72, 0
3, 2112, Note_on_c, 0, 72, 72
3, 2136, Note_on_c, 0, 72, 0
3, 2136, Note_on_c, 0, 72, 72
3, 2160, Note_on_c, 0, 72, 0
3, 2160, Note_on_c, 0, 71, 72
3, 2184, Note_on_c, 0, 71, 0
3, 2184, Note_on_c, 0, 69, 72
3, 2208, Note_on_c, 0, 69, 0
3, 2208, Note_on_c, 0, 68, 72
3, 2304, Note_on_c, 0, 68, 0
3, 2304, Note_on_c, 0, 69, 88
3, 2400, Note_on_c, 0, 69, 0
3, 2400, Note_on_c, 0, 76, 88
3, 2472, Note_on_c, 0, 76, 0
3, 2472, Note_on_c, 0, 74, 88
3, 2496, Note_on_c, 0, 74, 0
3, 2496, Note_on_c, 0, 72, 88
3, 2568, Note_on_c, 0, 72, 0
3, 2568, Note_on_c, 0, 71, 88
3, 2592, Note_on_c, 0, 71, 0
3, 2592, Note_on_c, 0, 69, 88
3, 2688, Note_on_c, 0, 69, 0
3, 2688, Note_on_c, 0, 68, 88
3, 2784, Note_on_c, 0, 68, 0
3, 2784, Note_on_c, 0, 69, 88
3, 2856, Note_on_c, 0, 69, 0
3, 2856, Note_on_c, 0, 71, 88
3, 2880, Note_on_c, 0, 71, 0
3, 2880, Note_on_c, 0, 72, 88
3, 2976, Note_on_c, 0, 72, 0
3, 2976, Note_on_c, 0, 72, 88
3, 3000, Note_on_c, 0, 72, 0
3, 3000, Note_on_c, 0, 74, 88
3, 3024, Note_on_c, 0, 74, 0
3, 3024, Note_on_c, 0, 72, 88
3, 3048, Note_on_c, 0, 72, 0
3, 3048, Note_on_c, 0, 70, 88
3, 3072, Note_on_c, 0, 70, 0
3, 3072, Note_on_c, 0, 69, 88
3, 3168, Note_on_c, 0, 69, 0
3, 3168, Note_on_c, 0, 69, 88
3, 3192, Note_on_c, 0, 69, 0
3, 3192, Note_on_c, 0, 69, 72
3, 3216, Note_on_c, 0, 69, 0
3, 3216, Note_on_c, 0, 71, 72
3, 3240, Note_on_c, 0, 71, 0
3, 3240, Note_on_c, 0, 73, 72
3, 3264, Note_on_c, 0, 73, 0
3, 3264, Note_on_c, 0, 74, 72
3, 3360, Note_on_c, 0, 74, 0
3, 3360, Note_on_c, 0, 74, 72
3, 3384, Note_on_c, 0, 74, 0
3, 3384, Note_on_c, 0, 72, 72
3, 3408, Note_on_c, 0, 72, 0
3, 3408, Note_on_c, 0, 70, 72
3, 3432, Note_on_c, 0, 70, 0
3, 3432, Note_on_c, 0, 69, 72
3, 3456, Note_on_c, 0, 69, 0
3, 3456, Note_on_c, 0, 67, 72
3, 3552, Note_on_c, 0, 67, 0
3, 3552, Note_on_c, 0, 67, 72
3, 3576, Note_on_c, 0, 67, 0
3, 3576, Note_on_c, 0, 64, 72
3, 3600, Note_on_c, 0, 64, 0
3, 3600, Note_on_c, 0, 65, 72
3, 3624, Note_on_c, 0, 65, 0
3, 3624, Note_on_c, 0, 67, 72
3, 3648, Note_on_c, 0, 67, 0
3, 3648, Note_on_c, 0, 69, 72
3, 3744, Note_on_c, 0, 69, 0
3, 3744, Note_on_c, 0, 69, 72
3, 3768, Note_on_c, 0, 69, 0
3, 3768, Note_on_c, 0, 67, 72
3, 3792, Note_on_c, 0, 67, 0
3, 3792, Note_on_c, 0, 69, 72
3, 3816, Note_on_c, 0, 69, 0
3, 3816, Note_on_c, 0, 71, 72
3, 3840, Note_on_c, 0, 71, 0
3, 3840, Note_on_c, 0, 72, 72
3, 3888, Note_on_c, 0, 72, 0
3, 3888, Note_on_c, 0, 74, 72
3, 3912, Note_on_c, 0, 74, 0
3, 3912, Note_on_c, 0, 76, 72
3, 3936, Note_on_c, 0, 76, 0
3, 3936, Note_on_c, 0, 77, 72
3, 4032, Note_on_c, 0, 77, 0
3, 4032, Note_on_c, 0, 77, 72
3, 4056, Note_on_c, 0, 77, 0
3, 4056, Note_on_c, 0, 77, 72
3, 4080, Note_on_c, 0, 77, 0
3, 4080, Note_on_c, 0, 75, 72
3, 4104, Note_on_c, 0, 75, 0
3, 4104, Note_on_c, 0, 74, 72
3, 4128, Note_on_c, 0, 74, 0
3, 4128, Note_on_c, 0, 75, 72
3, 4224, Note_on_c, 0, 75, 0
3, 4224, Note_on_c, 0, 75, 72
3, 4248, Note_on_c, 0, 75, 0
3, 4248, Note_on_c, 0, 74, 72
3, 4272, Note_on_c, 0, 74, 0
3, 4272, Note_on_c, 0, 72, 72
3, 4296, Note_on_c, 0, 72, 0
3, 4296, Note_on_c, 0, 70, 72
3, 4320, Note_on_c, 0, 70, 0
3, 4320, Note_on_c, 0, 72, 72
3, 4416, Note_on_c, 0, 72, 0
3, 4416, Note_on_c, 0, 72, 72
3, 4440, Note_on_c, 0, 72, 0
3, 4440, Note_on_c, 0, 72, 72
3, 4464, Note_on_c, 0, 72, 0
3, 4464, Note_on_c, 0, 70, 72
3, 4488, Note_on_c, 0, 70, 0
3, 4488, Note_on_c, 0, 69, 72
3, 4512, Note_on_c, 0, 69, 0
3, 4512, Note_on_c, 0, 67, 72
3, 4560, Note_on_c, 0, 67, 0
3, 4560, Note_on_c, 0, 72, 72
3, 4608, Note_on_c, 0, 72, 0
3, 4608, Note_on_c, 0, 66, 72
3, 4632, Note_on_c, 0, 66, 0
3, 4632, Note_on_c, 0, 62, 72
3, 4656, Note_on_c, 0, 62, 0
3, 4656, Note_on_c, 0, 64, 72
3, 4680, Note_on_c, 0, 64, 0
3, 4680, Note_on_c, 0, 66, 72
3, 4704, Note_on_c, 0, 66, 0
3, 4704, Note_on_c, 0, 67, 72
3, 4800, Note_on_c, 0, 67, 0
3, 4800, Note_on_c, 0, 67, 72
3, 4824, Note_on_c, 0, 67, 0
3, 4824, Note_on_c, 0, 67, 72
3, 4848, Note_on_c, 0, 67, 0
3, 4848, Note_on_c, 0, 66, 72
3, 4872, Note_on_c, 0, 66, 0
3, 4872, Note_on_c, 0, 64, 72
3, 4896, Note_on_c, 0, 64, 0
3, 4896, Note_on_c, 0, 66, 72
3, 4992, Note_on_c, 0, 66, 0
3, 4992, Note_on_c, 0, 67, 72
3, 5064, Note_on_c, 0, 67, 0
3, 5064, Note_on_c, 0, 65, 72
3, 5088, Note_on_c, 0, 65, 0
3, 5088, Note_on_c, 0, 63, 72
3, 5184, Note_on_c, 0, 63, 0
3, 5184, Note_on_c, 0, 62, 88
3, 5376, Note_on_c, 0, 62, 0
3, 5376, Note_on_c, 0, 55, 88
3, 5520, Note_on_c, 0, 55, 0
3, 5520, Note_on_c, 0, 57, 88
3, 5568, Note_on_c, 0, 57, 0
3, 5568, Note_on_c, 0, 58, 88
3, 5640, Note_on_c, 0, 58, 0
3, 5640, Note_on_c, 0, 60, 88
3, 5664, Note_on_c, 0, 60, 0
3, 5664, Note_on_c, 0, 62, 88
3, 5760, Note_on_c, 0, 62, 0
3, 5760, Note_on_c, 0, 63, 88
3, 5952, Note_on_c, 0, 63, 0
3, 5952, Note_on_c, 0, 62, 88
3, 6096, Note_on_c, 0, 62, 0
3, 6096, Note_on_c, 0, 60, 88
3, 6144, Note_on_c, 0, 60, 0
3, 6144, Note_on_c, 0, 58, 88
3, 6336, Note_on_c, 0, 58, 0
3, 6336, Note_on_c, 0, 58, 88
3, 6384, Note_on_c, 0, 58, 0
3, 6384, Note_on_c, 0, 57, 88
3, 6432, Note_on_c, 0, 57, 0
3, 6432, Note_on_c, 0, 58, 88
3, 6480, Note_on_c, 0, 58, 0
3, 6480, Note_on_c, 0, 60, 88
3, 6528, Note_on_c, 0, 60, 0
3, 6528, Note_on_c, 0, 62, 88
3, 6624, Note_on_c, 0, 62, 0
3, 6864, Note_on_c, 0, 68, 72
3, 6912, Note_on_c, 0, 68, 0
3, 6912, Note_on_c, 0, 67, 72
3, 6960, Note_on_c, 0, 67, 0
3, 7056, Note_on_c, 0, 72, 72
3, 7128, Note_on_c, 0, 72, 0
3, 7128, Note_on_c, 0, 72, 72
3, 7152, Note_on_c, 0, 72, 0
3, 7152, Note_on_c, 0, 71, 72
3, 7176, Note_on_c, 0, 71, 0
3, 7176, Note_on_c, 0, 69, 72
3, 7200, Note_on_c, 0, 69, 0
3, 7200, Note_on_c, 0, 71, 72
3, 7296, Note_on_c, 0, 71, 0
3, 7296, Note_on_c, 0, 70, 72
3, 7320, Note_on_c, 0, 70, 0
3, 7320, Note_on_c, 0, 70, 72
3, 7344, Note_on_c, 0, 70, 0
3, 7344, Note_on_c, 0, 69, 72
3, 7368, Note_on_c, 0, 69, 0
3, 7368, Note_on_c, 0, 67, 72
3, 7392, Note_on_c, 0, 67, 0
3, 7392, Note_on_c, 0, 69, 72
3, 7416, Note_on_c, 0, 69, 0
3, 7416, Note_on_c, 0, 70, 72
3, 7440, Note_on_c, 0, 70, 0
3, 7440, Note_on_c, 0, 72, 72
3, 7512, Note_on_c, 0, 72, 0
3, 7512, Note_on_c, 0, 70, 72
3, 7536, Note_on_c, 0, 70, 0
3, 7536, Note_on_c, 0, 69, 72
3, 7608, Note_on_c, 0, 69, 0
3, 7608, Note_on_c, 0, 62, 72
3, 7632, Note_on_c, 0, 62, 0
3, 7632, Note_on_c, 0, 67, 72
3, 7680, Note_on_c, 0, 67, 0
3, 7680, Note_on_c, 0, 67, 72
3, 7728, Note_on_c, 0, 67, 0
3, 7728, Note_on_c, 0, 65, 72
3, 7752, Note_on_c, 0, 65, 0
3, 7752, Note_on_c, 0, 67, 72
3, 7776, Note_on_c, 0, 67, 0
3, 7776, Note_on_c, 0, 69, 72
3, 7872, Note_on_c, 0, 69, 0
3, 7872, Note_on_c, 0, 69, 72
3, 7896, Note_on_c, 0, 69, 0
3, 7896, Note_on_c, 0, 70, 72
3, 7920, Note_on_c, 0, 70, 0
3, 7920, Note_on_c, 0, 72, 72
3, 7944, Note_on_c, 0, 72, 0
3, 7944, Note_on_c, 0, 69, 72
3, 7968, Note_on_c, 0, 69, 0
3, 7968, Note_on_c, 0, 70, 72
3, 8064, Note_on_c, 0, 70, 0
3, 8064, Note_on_c, 0, 70, 72
3, 8088, Note_on_c, 0, 70, 0
3, 8088, Note_on_c, 0, 70, 72
3, 8112, Note_on_c, 0, 70, 0
3, 8112, Note_on_c, 0, 69, 72
3, 8136, Note_on_c, 0, 69, 0
3, 8136, Note_on_c, 0, 67, 72
3, 8160, Note_on_c, 0, 67, 0
3, 8160, Note_on_c, 0, 65, 72
3, 8352, Note_on_c, 0, 65, 0
3, 8352, Note_on_c, 0, 65, 72
3, 8376, Note_on_c, 0, 65, 0
3, 8376, Note_on_c, 0, 67, 72
3, 8400, Note_on_c, 0, 67, 0
3, 8400, Note_on_c, 0, 65, 72
3, 8424, Note_on_c, 0, 65, 0
3, 8424, Note_on_c, 0, 64, 72
3, 8448, Note_on_c, 0, 64, 0
3, 8448, Note_on_c, 0, 65, 88
3, 8544, Note_on_c, 0, 65, 0
3, 8544, Note_on_c, 0, 72, 88
3, 8616, Note_on_c, 0, 72, 0
3, 8616, Note_on_c, 0, 70, 88
3, 8640, Note_on_c, 0, 70, 0
3, 8640, Note_on_c, 0, 69, 88
3, 8712, Note_on_c, 0, 69, 0
3, 8712, Note_on_c, 0, 67, 88
3, 8736, Note_on_c, 0, 67, 0
3, 8736, Note_on_c, 0, 65, 88
3, 8832, Note_on_c, 0, 65, 0
3, 8832, Note_on_c, 0, 64, 88
3, 8928, Note_on_c, 0, 64, 0
3, 8928, Note_on_c, 0, 65, 88
3, 9000, Note_on_c, 0, 65, 0
3, 9000, Note_on_c, 0, 67, 88
3, 9024, Note_on_c, 0, 67, 0
3, 9024, Note_on_c, 0, 69, 88
3, 9120, Note_on_c, 0, 69, 0
3, 9120, Note_on_c, 0, 69, 88
3, 9144, Note_on_c, 0, 69, 0
3, 9144, Note_on_c, 0, 70, 88
3, 9168, Note_on_c, 0, 70, 0
3, 9168, Note_on_c, 0, 69, 88
3, 9192, Note_on_c, 0, 69, 0
3, 9192, Note_on_c, 0, 67, 88
3, 9216, Note_on_c, 0, 67, 0
3, 9216, Note_on_c, 0, 65, 88
3, 9312, Note_on_c, 0, 65, 0
3, 9312, Note_on_c, 0, 65, 88
3, 9336, Note_on_c, 0, 65, 0
3, 9336, Note_on_c, 0, 67, 72
3, 9360, Note_on_c, 0, 67, 0
3, 9360, Note_on_c, 0, 65, 72
3, 9384, Note_on_c, 0, 65, 0
3, 9384, Note_on_c, 0, 63, 72
3, 9408, Note_on_c, 0, 63, 0
3, 9408, Note_on_c, 0, 62, 72
3, 9432, Note_on_c, 0, 62, 0
3, 9432, Note_on_c, 0, 64, 72
3, 9456, Note_on_c, 0, 64, 0
3, 9456, Note_on_c, 0, 65, 72
3, 9528, Note_on_c, 0, 65, 0
3, 9528, Note_on_c, 0, 65, 72
3, 9552, Note_on_c, 0, 65, 0
3, 9552, Note_on_c, 0, 64, 72
3, 9600, Note_on_c, 0, 64, 0
3, 9600, Note_on_c, 0, 64, 72
3, 9624, Note_on_c, 0, 64, 0
3, 9624, Note_on_c, 0, 64, 72
3, 9648, Note_on_c, 0, 64, 0
3, 9648, Note_on_c, 0, 62, 72
3, 9672, Note_on_c, 0, 62, 0
3, 9672, Note_on_c, 0, 61, 72
3, 9696, Note_on_c, 0, 61, 0
3, 9696, Note_on_c, 0, 62, 72
3, 9792, Note_on_c, 0, 62, 0
3, 9792, Note_on_c, 0, 60, 72
3, 9816, Note_on_c, 0, 60, 0
3, 9816, Note_on_c, 0, 64, 72
3, 9840, Note_on_c, 0, 64, 0
3, 9840, Note_on_c, 0, 65, 72
3, 9864, Note_on_c, 0, 65, 0
3, 9864, Note_on_c, 0, 67, 72
3, 9888, Note_on_c, 0, 67, 0
3, 9888, Note_on_c, 0, 69, 72
3, 9984, Note_on_c, 0, 69, 0
3, 9984, Note_on_c, 0, 67, 72
3, 10056, Note_on_c, 0, 67, 0
3, 10056, Note_on_c, 0, 69, 72
3, 10080, Note_on_c, 0, 69, 0
3, 10080, Note_on_c, 0, 70, 72
3, 10104, Note_on_c, 0, 70, 0
3, 10104, Note_on_c, 0, 62, 72
3, 10128, Note_on_c, 0, 62, 0
3, 10128, Note_on_c, 0, 61, 72
3, 10152, Note_on_c, 0, 61, 0
3, 10152, Note_on_c, 0, 59, 72
3, 10176, Note_on_c, 0, 59, 0
3, 10176, Note_on_c, 0, 61, 72
3, 10272, Note_on_c, 0, 61, 0
3, 10296, Note_on_c, 0, 70, 72
3, 10320, Note_on_c, 0, 70, 0
3, 10320, Note_on_c, 0, 69, 72
3, 10344, Note_on_c, 0, 69, 0
3, 10344, Note_on_c, 0, 67, 72
3, 10368, Note_on_c, 0, 67, 0
3, 10368, Note_on_c, 0, 69, 72
3, 10392, Note_on_c, 0, 69, 0
3, 10392, Note_on_c, 0, 67, 72
3, 10416, Note_on_c, 0, 67, 0
3, 10416, Note_on_c, 0, 65, 72
3, 10440, Note_on_c, 0, 65, 0
3, 10440, Note_on_c, 0, 64, 72
3, 10464, Note_on_c, 0, 64, 0
3, 10464, Note_on_c, 0, 62, 72
3, 10512, Note_on_c, 0, 62, 0
3, 10584, Note_on_c, 0, 69, 72
3, 10608, Note_on_c, 0, 69, 0
3, 10608, Note_on_c, 0, 74, 72
3, 10632, Note_on_c, 0, 74, 0
3, 10632, Note_on_c, 0, 73, 72
3, 10656, Note_on_c, 0, 73, 0
3, 10656, Note_on_c, 0, 71, 72
3, 10680, Note_on_c, 0, 71, 0
3, 10680, Note_on_c, 0, 69, 72
3, 10704, Note_on_c, 0, 69, 0
3, 10704, Note_on_c, 0, 71, 72
3, 10728, Note_on_c, 0, 71, 0
3, 10728, Note_on_c, 0, 67, 72
3, 10752, Note_on_c, 0, 67, 0
3, 10752, Note_on_c, 0, 64, 72
3, 10800, Note_on_c, 0, 64, 0
3, 10944, Note_on_c, 0, 62, 88
3, 11040, Note_on_c, 0, 62, 0
3, 11040, Note_on_c, 0, 69, 88
3, 11112, Note_on_c, 0, 69, 0
3, 11112, Note_on_c, 0, 67, 88
3, 11136, Note_on_c, 0, 67, 0
3, 11136, Note_on_c, 0, 65, 88
3, 11208, Note_on_c, 0, 65, 0
3, 11208, Note_on_c, 0, 64, 88
3, 11232, Note_on_c, 0, 64, 0
3, 11232, Note_on_c, 0, 62, 88
3, 11328, Note_on_c, 0, 62, 0
3, 11328, Note_on_c, 0, 61, 88
3, 11424, Note_on_c, 0, 61, 0
3, 11424, Note_on_c, 0, 62, 88
3, 11496, Note_on_c, 0, 62, 0
3, 11496, Note_on_c, 0, 64, 88
3, 11520, Note_on_c, 0, 64, 0
3, 11520, Note_on_c, 0, 65, 88
3, 11616, Note_on_c, 0, 65, 0
3, 11616, Note_on_c, 0, 65, 88
3, 11640, Note_on_c, 0, 65, 0
3, 11640, Note_on_c, 0, 67, 88
3, 11664, Note_on_c, 0, 67, 0
3, 11664, Note_on_c, 0, 65, 88
3, 11688, Note_on_c, 0, 65, 0
3, 11688, Note_on_c, 0, 64, 88
3, 11712, Note_on_c, 0, 64, 0
3, 11712, Note_on_c, 0, 62, 88
3, 11808, Note_on_c, 0, 62, 0
3, 13056, Note_on_c, 0, 69, 88
3, 13440, Note_on_c, 0, 69, 0
3, 13440, Note_on_c, 0, 62, 88
3, 13728, Note_on_c, 0, 62, 0
3, 13728, Note_on_c, 0, 64, 88
3, 13824, Note_on_c, 0, 64, 0
3, 13824, Note_on_c, 0, 65, 88
3, 14112, Note_on_c, 0, 65, 0
3, 14112, Note_on_c, 0, 67, 88
3, 14208, Note_on_c, 0, 67, 0
3, 14208, Note_on_c, 0, 69, 88
3, 14592, Note_on_c, 0, 69, 0
3, 14592, Note_on_c, 0, 70, 88
3, 14976, Note_on_c, 0, 70, 0
3, 14976, Note_on_c, 0, 69, 88
3, 15264, Note_on_c, 0, 69, 0
3, 15264, Note_on_c, 0, 67, 88
3, 15360, Note_on_c, 0, 67, 0
3, 15360, Note_on_c, 0, 65, 88
3, 15744, Note_on_c, 0, 65, 0
3, 15744, Note_on_c, 0, 65, 88
3, 15840, Note_on_c, 0, 65, 0
3, 15840, Note_on_c, 0, 64, 88
3, 15936, Note_on_c, 0, 64, 0
3, 15936, Note_on_c, 0, 65, 88
3, 16032, Note_on_c, 0, 65, 0
3, 16032, Note_on_c, 0, 67, 88
3, 16128, Note_on_c, 0, 67, 0
3, 16128, Note_on_c, 0, 69, 88
3, 16224, Note_on_c, 0, 69, 0
3, 16224, Note_on_c, 0, 62, 88
3, 16296, Note_on_c, 0, 62, 0
3, 16296, Note_on_c, 0, 64, 88
3, 16320, Note_on_c, 0, 64, 0
3, 16320, Note_on_c, 0, 65, 88
3, 16392, Note_on_c, 0, 65, 0
3, 16392, Note_on_c, 0, 67, 88
3, 16416, Note_on_c, 0, 67, 0
3, 16416, Note_on_c, 0, 69, 88
3, 16512, Note_on_c, 0, 69, 0
3, 16512, Note_on_c, 0, 70, 88
3, 16608, Note_on_c, 0, 70, 0
3, 16608, Note_on_c, 0, 69, 88
3, 16680, Note_on_c, 0, 69, 0
3, 16680, Note_on_c, 0, 67, 88
3, 16704, Note_on_c, 0, 67, 0
3, 16704, Note_on_c, 0, 65, 88
3, 16800, Note_on_c, 0, 65, 0
3, 16800, Note_on_c, 0, 65, 88
3, 16824, Note_on_c, 0, 65, 0
3, 16824, Note_on_c, 0, 64, 88
3, 16848, Note_on_c, 0, 64, 0
3, 16848, Note_on_c, 0, 65, 88
3, 16872, Note_on_c, 0, 65, 0
3, 16872, Note_on_c, 0, 67, 88
3, 16896, Note_on_c, 0, 67, 0
3, 16896, Note_on_c, 0, 69, 88
3, 16992, Note_on_c, 0, 69, 0
3, 16992, Note_on_c, 0, 74, 88
3, 17064, Note_on_c, 0, 74, 0
3, 17064, Note_on_c, 0, 72, 88
3, 17088, Note_on_c, 0, 72, 0
3, 17088, Note_on_c, 0, 70, 88
3, 17160, Note_on_c, 0, 70, 0
3, 17160, Note_on_c, 0, 69, 88
3, 17184, Note_on_c, 0, 69, 0
3, 17184, Note_on_c, 0, 67, 88
3, 17280, Note_on_c, 0, 67, 0
3, 17280, Note_on_c, 0, 66, 88
3, 17376, Note_on_c, 0, 66, 0
3, 17376, Note_on_c, 0, 67, 88
3, 17448, Note_on_c, 0, 67, 0
3, 17448, Note_on_c, 0, 69, 88
3, 17472, Note_on_c, 0, 69, 0
3, 17472, Note_on_c, 0, 70, 88
3, 17568, Note_on_c, 0, 70, 0
3, 17568, Note_on_c, 0, 70, 88
3, 17592, Note_on_c, 0, 70, 0
3, 17592, Note_on_c, 0, 72, 88
3, 17616, Note_on_c, 0, 72, 0
3, 17616, Note_on_c, 0, 70, 88
3, 17640, Note_on_c, 0, 70, 0
3, 17640, Note_on_c, 0, 69, 88
3, 17664, Note_on_c, 0, 69, 0
3, 17664, Note_on_c, 0, 67, 88
3, 17760, Note_on_c, 0, 67, 0
3, 17760, Note_on_c, 0, 67, 88
3, 17784, Note_on_c, 0, 67, 0
3, 17784, Note_on_c, 0, 66, 72
3, 17808, Note_on_c, 0, 66, 0
3, 17808, Note_on_c, 0, 67, 72
3, 17832, Note_on_c, 0, 67, 0
3, 17832, Note_on_c, 0, 69, 72
3, 17856, Note_on_c, 0, 69, 0
3, 17856, Note_on_c, 0, 70, 72
3, 17880, Note_on_c, 0, 70, 0
3, 17880, Note_on_c, 0, 72, 72
3, 17904, Note_on_c, 0, 72, 0
3, 17904, Note_on_c, 0, 70, 72
3, 17928, Note_on_c, 0, 70, 0
3, 17928, Note_on_c, 0, 69, 72
3, 17952, Note_on_c, 0, 69, 0
3, 17952, Note_on_c, 0, 67, 72
3, 17976, Note_on_c, 0, 67, 0
3, 17976, Note_on_c, 0, 65, 72
3, 18000, Note_on_c, 0, 65, 0
3, 18000, Note_on_c, 0, 64, 72
3, 18024, Note_on_c, 0, 64, 0
3, 18024, Note_on_c, 0, 62, 72
3, 18048, Note_on_c, 0, 62, 0
3, 18048, Note_on_c, 0, 64, 72
3, 18144, Note_on_c, 0, 64, 0
3, 18144, Note_on_c, 0, 64, 72
3, 18168, Note_on_c, 0, 64, 0
3, 18168, Note_on_c, 0, 64, 72
3, 18192, Note_on_c, 0, 64, 0
3, 18192, Note_on_c, 0, 65, 72
3, 18216, Note_on_c, 0, 65, 0
3, 18216, Note_on_c, 0, 67, 72
3, 18240, Note_on_c, 0, 67, 0
3, 18240, Note_on_c, 0, 69, 72
3, 18288, Note_on_c, 0, 69, 0
3, 18288, Note_on_c, 0, 62, 72
3, 18384, Note_on_c, 0, 62, 0
3, 18384, Note_on_c, 0, 60, 72
3, 18408, Note_on_c, 0, 60, 0
3, 18408, Note_on_c, 0, 58, 72
3, 18432, Note_on_c, 0, 58, 0
3, 18432, Note_on_c, 0, 57, 72
3, 18456, Note_on_c, 0, 57, 0
3, 18456, Note_on_c, 0, 60, 72
3, 18480, Note_on_c, 0, 60, 0
3, 18480, Note_on_c, 0, 62, 72
3, 18504, Note_on_c, 0, 62, 0
3, 18504, Note_on_c, 0, 64, 72
3, 18528, Note_on_c, 0, 64, 0
3, 18528, Note_on_c, 0, 65, 72
3, 18552, Note_on_c, 0, 65, 0
3, 18552, Note_on_c, 0, 67, 72
3, 18576, Note_on_c, 0, 67, 0
3, 18576, Note_on_c, 0, 69, 72
3, 18600, Note_on_c, 0, 69, 0
3, 18600, Note_on_c, 0, 70, 72
3, 18624, Note_on_c, 0, 70, 0
3, 18624, Note_on_c, 0, 72, 72
3, 18672, Note_on_c, 0, 72, 0
3, 18672, Note_on_c, 0, 63, 72
3, 18744, Note_on_c, 0, 63, 0
3, 18744, Note_on_c, 0, 67, 72
3, 18768, Note_on_c, 0, 67, 0
3, 18768, Note_on_c, 0, 65, 72
3, 18792, Note_on_c, 0, 65, 0
3, 18792, Note_on_c, 0, 63, 72
3, 18816, Note_on_c, 0, 63, 0
3, 18816, Note_on_c, 0, 62, 72
3, 18912, Note_on_c, 0, 62, 0
3, 19032, Note_on_c, 0, 69, 72
3, 19056, Note_on_c, 0, 69, 0
3, 19056, Note_on_c, 0, 70, 72
3, 19080, Note_on_c, 0, 70, 0
3, 19080, Note_on_c, 0, 72, 72
3, 19104, Note_on_c, 0, 72, 0
3, 19104, Note_on_c, 0, 70, 72
3, 19128, Note_on_c, 0, 70, 0
3, 19128, Note_on_c, 0, 69, 72
3, 19152, Note_on_c, 0, 69, 0
3, 19152, Note_on_c, 0, 67, 72
3, 19176, Note_on_c, 0, 67, 0
3, 19176, Note_on_c, 0, 65, 72
3, 19200, Note_on_c, 0, 65, 0
3, 19200, Note_on_c, 0, 64, 72
3, 19248, Note_on_c, 0, 64, 0
3, 19248, Note_on_c, 0, 76, 88
3, 19296, Note_on_c, 0, 76, 0
3, 19296, Note_on_c, 0, 69, 88
3, 19368, Note_on_c, 0, 69, 0
3, 19368, Note_on_c, 0, 71, 88
3, 19392, Note_on_c, 0, 71, 0
3, 19392, Note_on_c, 0, 73, 88
3, 19464, Note_on_c, 0, 73, 0
3, 19464, Note_on_c, 0, 74, 88
3, 19488, Note_on_c, 0, 74, 0
3, 19488, Note_on_c, 0, 76, 88
3, 19584, Note_on_c, 0, 76, 0
3, 19584, Note_on_c, 0, 77, 88
3, 19680, Note_on_c, 0, 77, 0
3, 19680, Note_on_c, 0, 76, 88
3, 19752, Note_on_c, 0, 76, 0
3, 19752, Note_on_c, 0, 74, 88
3, 19776, Note_on_c, 0, 74, 0
3, 19776, Note_on_c, 0, 73, 88
3, 19872, Note_on_c, 0, 73, 0
3, 19872, Note_on_c, 0, 73, 88
3, 19896, Note_on_c, 0, 73, 0
3, 19896, Note_on_c, 0, 69, 88
3, 19920, Note_on_c, 0, 69, 0
3, 19920, Note_on_c, 0, 71, 88
3, 19944, Note_on_c, 0, 71, 0
3, 19944, Note_on_c, 0, 73, 88
3, 19968, Note_on_c, 0, 73, 0
3, 19968, Note_on_c, 0, 74, 88
3, 20064, Note_on_c, 0, 74, 0
3, 20064, Note_on_c, 0, 69, 88
3, 20208, Note_on_c, 0, 69, 0
3, 20208, Note_on_c, 0, 67, 88
3, 20232, Note_on_c, 0, 67, 0
3, 20232, Note_on_c, 0, 69, 88
3, 20256, Note_on_c, 0, 69, 0
3, 20256, Note_on_c, 0, 70, 88
3, 20304, Note_on_c, 0, 70, 0
3, 20304, Note_on_c, 0, 67, 88
3, 20352, Note_on_c, 0, 67, 0
3, 20352, Note_on_c, 0, 67, 88
3, 20376, Note_on_c, 0, 67, 0
3, 20376, Note_on_c, 0, 69, 88
3, 20400, Note_on_c, 0, 69, 0
3, 20400, Note_on_c, 0, 67, 88
3, 20424, Note_on_c, 0, 67, 0
3, 20424, Note_on_c, 0, 65, 88
3, 20448, Note_on_c, 0, 65, 0
3, 20448, Note_on_c, 0, 64, 88
3, 20472, Note_on_c, 0, 64, 0
3, 20472, Note_on_c, 0, 62, 88
3, 20496, Note_on_c, 0, 62, 0
3, 20496, Note_on_c, 0, 64, 88
3, 20520, Note_on_c, 0, 64, 0
3, 20520, Note_on_c, 0, 65, 88
3, 20544, Note_on_c, 0, 65, 0
3, 20544, Note_on_c, 0, 67, 88
3, 20592, Note_on_c, 0, 67, 0
3, 20592, Note_on_c, 0, 70, 88
3, 20640, Note_on_c, 0, 70, 0
3, 20640, Note_on_c, 0, 64, 88
3, 20736, Note_on_c, 0, 64, 0
3, 20736, Note_on_c, 0, 69, 88
3, 20808, Note_on_c, 0, 69, 0
3, 20808, Note_on_c, 0, 67, 88
3, 20832, Note_on_c, 0, 67, 0
3, 20832, Note_on_c, 0, 65, 88
3, 20904, Note_on_c, 0, 65, 0
3, 20904, Note_on_c, 0, 64, 88
3, 20928, Note_on_c, 0, 64, 0
3, 20928, Note_on_c, 0, 62, 88
3, 21024, Note_on_c, 0, 62, 0
3, 21024, Note_on_c, 0, 61, 88
3, 21120, Note_on_c, 0, 61, 0
3, 21120, Note_on_c, 0, 62, 88
3, 21192, Note_on_c, 0, 62, 0
3, 21192, Note_on_c, 0, 64, 88
3, 21216, Note_on_c, 0, 64, 0
3, 21216, Note_on_c, 0, 65, 88
3, 21312, Note_on_c, 0, 65, 0
3, 21312, Note_on_c, 0, 65, 88
3, 21336, Note_on_c, 0, 65, 0
3, 21336, Note_on_c, 0, 67, 88
3, 21360, Note_on_c, 0, 67, 0
3, 21360, Note_on_c, 0, 65, 88
3, 21384, Note_on_c, 0, 65, 0
3, 21384, Note_on_c, 0, 64, 88
3, 21408, Note_on_c, 0, 64, 0
3, 21408, Note_on_c, 0, 62, 88
3, 21504, Note_on_c, 0, 62, 0
3, 21504, Note_on_c, 0, 62, 88
3, 21552, Note_on_c, 0, 62, 0
3, 21552, Note_on_c, 0, 70, 72
3, 21648, Note_on_c, 0, 70, 0
3, 21648, Note_on_c, 0, 69, 72
3, 21672, Note_on_c, 0, 69, 0
3, 21672, Note_on_c, 0, 67, 72
3, 21696, Note_on_c, 0, 67, 0
3, 21696, Note_on_c, 0, 69, 72
3, 21744, Note_on_c, 0, 69, 0
3, 21744, Note_on_c, 0, 65, 72
3, 21792, Note_on_c, 0, 65, 0
3, 21792, Note_on_c, 0, 67, 72
3, 21840, Note_on_c, 0, 67, 0
3, 21840, Note_on_c, 0, 64, 72
3, 21888, Note_on_c, 0, 64, 0
3, 21888, Note_on_c, 0, 65, 72
3, 21936, Note_on_c, 0, 65, 0
3, 22032, Note_on_c, 0, 62, 72
3, 22128, Note_on_c, 0, 62, 0
3, 22560, Note_on_c, 0, 56, 88
3, 22656, Note_on_c, 0, 56, 0
3, 22656, Note_on_c, 0, 57, 88
3, 22848, Note_on_c, 0, 57, 0
3, 22848, Note_on_c, 0, 57, 88
3, 22896, Note_on_c, 0, 57, 0
3, 22896, Note_on_c, 0, 57, 88
3, 23040, Note_on_c, 0, 57, 0
3, 23040, Note_on_c, 0, 58, 88
3, 23232, Note_on_c, 0, 58, 0
3, 23232, Note_on_c, 0, 58, 88
3, 23280, Note_on_c, 0, 58, 0
3, 23280, Note_on_c, 0, 60, 88
3, 23328, Note_on_c, 0, 60, 0
3, 23328, Note_on_c, 0, 58, 88
3, 23376, Note_on_c, 0, 58, 0
3, 23376, Note_on_c, 0, 57, 88
3, 23424, Note_on_c, 0, 57, 0
3, 23424, Note_on_c, 0, 55, 88
3, 23472, Note_on_c, 0, 55, 0
3, 23472, Note_on_c, 0, 54, 88
3, 23520, Note_on_c, 0, 54, 0
3, 23520, Note_on_c, 0, 52, 88
3, 23568, Note_on_c, 0, 52, 0
3, 23568, Note_on_c, 0, 55, 88
3, 23616, Note_on_c, 0, 55, 0
3, 23616, Note_on_c, 0, 54, 88
3, 23664, Note_on_c, 0, 54, 0
3, 23664, Note_on_c, 0, 54, 88
3, 23808, Note_on_c, 0, 54, 0
3, 23808, Note_on_c, 0, 55, 88
3, 24000, Note_on_c, 0, 55, 0
3, 24000, Note_on_c, 0, 55, 88
3, 24048, Note_on_c, 0, 55, 0
3, 24048, Note_on_c, 0, 55, 88
3, 24144, Note_on_c, 0, 55, 0
3, 24144, Note_on_c, 0, 55, 88
3, 24192, Note_on_c, 0, 55, 0
3, 24192, Note_on_c, 0, 57, 88
3, 24576, Note_on_c, 0, 57, 0
3, 24576, End_track
4, 0, Start_track
4, 0, Program_c, 0, 0
4, 0, Note_on_c, 0, 62, 88
4, 96, Note_on_c, 0, 62, 0
4, 96, Note_on_c, 0, 69, 88
4, 168, Note_on_c, 0, 69, 0
4, 168, Note_on_c, 0, 67, 88
4, 192, Note_on_c, 0, 67, 0
4, 192, Note_on_c, 0, 65, 88
4, 264, Note_on_c, 0, 65, 0
4, 264, Note_on_c, 0, 64, 88
4, 288, Note_on_c, 0, 64, 0
4, 288, Note_on_c, 0, 62, 88
4, 384, Note_on_c, 0, 62, 0
4, 384, Note_on_c, 0, 61, 88
4, 480, Note_on_c, 0, 61, 0
4, 480, Note_on_c, 0, 62, 88
4, 552, Note_on_c, 0, 62, 0
4, 552, Note_on_c, 0, 64, 88
4, 576, Note_on_c, 0, 64, 0
4, 576, Note_on_c, 0, 65, 88
4, 672, Note_on_c, 0, 65, 0
4, 672, Note_on_c, 0, 65, 88
4, 696, Note_on_c, 0, 65, 0
4, 696, Note_on_c, 0, 67, 88
4, 720, Note_on_c, 0, 67, 0
4, 720, Note_on_c, 0, 65, 88
4, 744, Note_on_c, 0, 65, 0
4, 744, Note_on_c, 0, 64, 88
4, 768, Note_on_c, 0, 64, 0
4, 768, Note_on_c, 0, 62, 88
4, 792, Note_on_c, 0, 62, 0
4, 792, Note_on_c, 0, 61, 72
4, 816, Note_on_c, 0, 61, 0
4, 816, Note_on_c, 0, 62, 72
4, 888, Note_on_c, 0, 62, 0
4, 888, Note_on_c, 0, 62, 72
4, 912, Note_on_c, 0, 62, 0
4, 912, Note_on_c, 0, 60, 72
4, 936, Note_on_c, 0, 60, 0
4, 936, Note_on_c, 0, 59, 72
4, 960, Note_on_c, 0, 59, 0
4, 960, Note_on_c, 0, 57, 72
4, 984, Note_on_c, 0, 57, 0
4, 984, Note_on_c, 0, 56, 72
4, 1008, Note_on_c, 0, 56, 0
4, 1008, Note_on_c, 0, 57, 72
4, 1080, Note_on_c, 0, 57, 0
4, 1080, Note_on_c, 0, 57, 72
4, 1104, Note_on_c, 0, 57, 0
4, 1104, Note_on_c, 0, 59, 72
4, 1128, Note_on_c, 0, 59, 0
4, 1128, Note_on_c, 0, 61, 72
4, 1152, Note_on_c, 0, 61, 0
4, 1152, Note_on_c, 0, 62, 72
4, 1176, Note_on_c, 0, 62, 0
4, 1176, Note_on_c, 0, 60, 72
4, 1200, Note_on_c, 0, 60, 0
4, 1200, Note_on_c, 0, 58, 72
4, 1224, Note_on_c, 0, 58, 0
4, 1224, Note_on_c, 0, 57, 72
4, 1248, Note_on_c, 0, 57, 0
4, 1248, Note_on_c, 0, 55, 72
4, 1272, Note_on_c, 0, 55, 0
4, 1272, Note_on_c, 0, 54, 72
4, 1296, Note_on_c, 0, 54, 0
4, 1296, Note_on_c, 0, 55, 72
4, 1368, Note_on_c, 0, 55, 0
4, 1368, Note_on_c, 0, 58, 72
4, 1392, Note_on_c, 0, 58, 0
4, 1392, Note_on_c, 0, 57, 72
4, 1416, Note_on_c, 0, 57, 0
4, 1416, Note_on_c, 0, 55, 72
4, 1440, Note_on_c, 0, 55, 0
4, 1440, Note_on_c, 0, 53, 72
4, 1512, Note_on_c, 0, 53, 0
4, 1512, Note_on_c, 0, 52, 72
4, 1536, Note_on_c, 0, 52, 0
4, 1656, Note_on_c, 0, 57, 72
4, 1680, Note_on_c, 0, 57, 0
4, 1680, Note_on_c, 0, 59, 72
4, 1704, Note_on_c, 0, 59, 0
4, 1704, Note_on_c, 0, 61, 72
4, 1728, Note_on_c, 0, 61, 0
4, 1728, Note_on_c, 0, 62, 72
4, 1824, Note_on_c, 0, 62, 0
4, 1824, Note_on_c, 0, 62, 72
4, 1848, Note_on_c, 0, 62, 0
4, 1848, Note_on_c, 0, 57, 72
4, 1872, Note_on_c, 0, 57, 0
4, 1872, Note_on_c, 0, 55, 72
4, 1896, Note_on_c, 0, 55, 0
4, 1896, Note_on_c, 0, 53, 72
4, 1920, Note_on_c, 0, 53, 0
4, 1920, Note_on_c, 0, 52, 72
4, 2016, Note_on_c, 0, 52, 0
4, 2016, Note_on_c, 0, 57, 72
4, 2088, Note_on_c, 0, 57, 0
4, 2088, Note_on_c, 0, 55, 72
4, 2112, Note_on_c, 0, 55, 0
4, 2112, Note_on_c, 0, 53, 72
4, 2184, Note_on_c, 0, 53, 0
4, 2184, Note_on_c, 0, 52, 72
4, 2208, Note_on_c, 0, 52, 0
4, 2208, Note_on_c, 0, 50, 72
4, 2304, Note_on_c, 0, 50, 0
4, 2304, Note_on_c, 0, 48, 72
4, 2328, Note_on_c, 0, 48, 0
4, 2328, Note_on_c, 0, 50, 72
4, 2352, Note_on_c, 0, 50, 0
4, 2352, Note_on_c, 0, 52, 72
4, 2424, Note_on_c, 0, 52, 0
4, 2424, Note_on_c, 0, 52, 72
4, 2448, Note_on_c, 0, 52, 0
4, 2448, Note_on_c, 0, 54, 72
4, 2472, Note_on_c, 0, 54, 0
4, 2472, Note_on_c, 0, 56, 72
4, 2496, Note_on_c, 0, 56, 0
4, 2496, Note_on_c, 0, 57, 72
4, 2592, Note_on_c, 0, 57, 0
4, 2712, Note_on_c, 0, 59, 72
4, 2736, Note_on_c, 0, 59, 0
4, 2736, Note_on_c, 0, 64, 72
4, 2760, Note_on_c, 0, 64, 0
4, 2760, Note_on_c, 0, 62, 72
4, 2784, Note_on_c, 0, 62, 0
4, 2784, Note_on_c, 0, 60, 72
4, 2808, Note_on_c, 0, 60, 0
4, 2808, Note_on_c, 0, 59, 72
4, 2832, Note_on_c, 0, 59, 0
4, 2832, Note_on_c, 0, 57, 72
4, 2856, Note_on_c, 0, 57, 0
4, 2856, Note_on_c, 0, 56, 72
4, 2880, Note_on_c, 0, 56, 0
4, 2880, Note_on_c, 0, 57, 72
4, 2928, Note_on_c, 0, 57, 0
4, 3072, Note_on_c, 0, 57, 88
4, 3168, Note_on_c, 0, 57, 0
4, 3168, Note_on_c, 0, 50, 88
4, 3240, Note_on_c, 0, 50, 0
4, 3240, Note_on_c, 0, 52, 88
4, 3264, Note_on_c, 0, 52, 0
4, 3264, Note_on_c, 0, 53, 88
4, 3336, Note_on_c, 0, 53, 0
4, 3336, Note_on_c, 0, 55, 88
4, 3360, Note_on_c, 0, 55, 0
4, 3360, Note_on_c, 0, 57, 88
4, 3456, Note_on_c, 0, 57, 0
4, 3456, Note_on_c, 0, 58, 72
4, 3552, Note_on_c, 0, 58, 0
4, 3552, Note_on_c, 0, 57, 72
4, 3624, Note_on_c, 0, 57, 0
4, 3624, Note_on_c, 0, 55, 72
4, 3648, Note_on_c, 0, 55, 0
4, 3648, Note_on_c, 0, 53, 72
4, 3744, Note_on_c, 0, 53, 0
4, 3744, Note_on_c, 0, 53, 72
4, 3768, Note_on_c, 0, 53, 0
4, 3768, Note_on_c, 0, 52, 72
4, 3792, Note_on_c, 0, 52, 0
4, 3792, Note_on_c, 0, 53, 72
4, 3816, Note_on_c, 0, 53, 0
4, 3816, Note_on_c, 0, 55, 72
4, 3840, Note_on_c, 0, 55, 0
4, 3840, Note_on_c, 0, 57, 72
4, 3936, Note_on_c, 0, 57, 0
4, 3936, Note_on_c, 0, 57, 72
4, 3960, Note_on_c, 0, 57, 0
4, 3960, Note_on_c, 0, 55, 72
4, 3984, Note_on_c, 0, 55, 0
4, 3984, Note_on_c, 0, 57, 72
4, 4008, Note_on_c, 0, 57, 0
4, 4008, Note_on_c, 0, 58, 72
4, 4032, Note_on_c, 0, 58, 0
4, 4032, Note_on_c, 0, 60, 72
4, 4104, Note_on_c, 0, 60, 0
4, 4104, Note_on_c, 0, 55, 72
4, 4128, Note_on_c, 0, 55, 0
4, 4128, Note_on_c, 0, 60, 72
4, 4200, Note_on_c, 0, 60, 0
4, 4200, Note_on_c, 0, 58, 72
4, 4224, Note_on_c, 0, 58, 0
4, 4224, Note_on_c, 0, 57, 72
4, 4320, Note_on_c, 0, 57, 0
4, 4320, Note_on_c, 0, 57, 72
4, 4344, Note_on_c, 0, 57, 0
4, 4344, Note_on_c, 0, 50, 72
4, 4368, Note_on_c, 0, 50, 0
4, 4368, Note_on_c, 0, 52, 72
4, 4392, Note_on_c, 0, 52, 0
4, 4392, Note_on_c, 0, 54, 72
4, 4416, Note_on_c, 0, 54, 0
4, 4416, Note_on_c, 0, 55, 72
4, 4512, Note_on_c, 0, 55, 0
4, 4512, Note_on_c, 0, 55, 72
4, 4536, Note_on_c, 0, 55, 0
4, 4536, Note_on_c, 0, 54, 72
4, 4560, Note_on_c, 0, 54, 0
4, 4560, Note_on_c, 0, 55, 72
4, 4584, Note_on_c, 0, 55, 0
4, 4584, Note_on_c, 0, 57, 72
4, 4608, Note_on_c, 0, 57, 0
4, 4608, Note_on_c, 0, 58, 72
4, 4704, Note_on_c, 0, 58, 0
4, 4704, Note_on_c, 0, 58, 72
4, 4728, Note_on_c, 0, 58, 0
4, 4728, Note_on_c, 0, 57, 72
4, 4752, Note_on_c, 0, 57, 0
4, 4752, Note_on_c, 0, 58, 72
4, 4776, Note_on_c, 0, 58, 0
4, 4776, Note_on_c, 0, 60, 72
4, 4800, Note_on_c, 0, 60, 0
4, 4800, Note_on_c, 0, 62, 72
4, 4896, Note_on_c, 0, 62, 0
4, 4896, Note_on_c, 0, 62, 72
4, 4920, Note_on_c, 0, 62, 0
4, 4920, Note_on_c, 0, 60, 72
4, 4944, Note_on_c, 0, 60, 0
4, 4944, Note_on_c, 0, 58, 72
4, 4968, Note_on_c, 0, 58, 0
4, 4968, Note_on_c, 0, 57, 72
4, 4992, Note_on_c, 0, 57, 0
4, 4992, Note_on_c, 0, 55, 72
4, 5088, Note_on_c, 0, 55, 0
4, 5088, Note_on_c, 0, 55, 72
4, 5112, Note_on_c, 0, 55, 0
4, 5112, Note_on_c, 0, 55, 72
4, 5136, Note_on_c, 0, 55, 0
4, 5136, Note_on_c, 0, 57, 72
4, 5160, Note_on_c, 0, 57, 0
4, 5160, Note_on_c, 0, 58, 72
4, 5184, Note_on_c, 0, 58, 0
4, 5184, Note_on_c, 0, 57, 72
4, 5280, Note_on_c, 0, 57, 0
4, 6144, Note_on_c, 0, 58, 88
4, 6240, Note_on_c, 0, 58, 0
4, 6240, Note_on_c, 0, 65, 88
4, 6312, Note_on_c, 0, 65, 0
4, 6312, Note_on_c, 0, 63, 88
4, 6336, Note_on_c, 0, 63, 0
4, 6336, Note_on_c, 0, 62, 88
4, 6408, Note_on_c, 0, 62, 0
4, 6408, Note_on_c, 0, 60, 88
4, 6432, Note_on_c, 0, 60, 0
4, 6432, Note_on_c, 0, 58, 88
4, 6528, Note_on_c, 0, 58, 0
4, 6528, Note_on_c, 0, 57, 88
4, 6624, Note_on_c, 0, 57, 0
4, 6624, Note_on_c, 0, 58, 88
4, 6696, Note_on_c, 0, 58, 0
4, 6696, Note_on_c, 0, 60, 88
4, 6720, Note_on_c, 0, 60, 0
4, 6720, Note_on_c, 0, 62, 88
4, 6816, Note_on_c, 0, 62, 0
4, 6816, Note_on_c, 0, 62, 88
4, 6840, Note_on_c, 0, 62, 0
4, 6840, Note_on_c, 0, 63, 88
4, 6864, Note_on_c, 0, 63, 0
4, 6864, Note_on_c, 0, 62, 88
4, 6888, Note_on_c, 0, 62, 0
4, 6888, Note_on_c, 0, 60, 88
4, 6912, Note_on_c, 0, 60, 0
4, 6912, Note_on_c, 0, 59, 88
4, 6936, Note_on_c, 0, 59, 0
4, 6936, Note_on_c, 0, 62, 72
4, 6960, Note_on_c, 0, 62, 0
4, 6960, Note_on_c, 0, 63, 72
4, 6984, Note_on_c, 0, 63, 0
4, 6984, Note_on_c, 0, 65, 72
4, 7008, Note_on_c, 0, 65, 0
4, 7008, Note_on_c, 0, 67, 72
4, 7152, Note_on_c, 0, 67, 0
4, 7152, Note_on_c, 0, 62, 72
4, 7224, Note_on_c, 0, 62, 0
4, 7224, Note_on_c, 0, 62, 72
4, 7248, Note_on_c, 0, 62, 0
4, 7248, Note_on_c, 0, 60, 72
4, 7272, Note_on_c, 0, 60, 0
4, 7272, Note_on_c, 0, 58, 72
4, 7296, Note_on_c, 0, 58, 0
4, 7296, Note_on_c, 0, 60, 88
4, 7392, Note_on_c, 0, 60, 0
4, 7392, Note_on_c, 0, 65, 88
4, 7464, Note_on_c, 0, 65, 0
4, 7464, Note_on_c, 0, 64, 88
4, 7488, Note_on_c, 0, 64, 0
4, 7488, Note_on_c, 0, 62, 88
4, 7560, Note_on_c, 0, 62, 0
4, 7560, Note_on_c, 0, 60, 88
4, 7584, Note_on_c, 0, 60, 0
4, 7584, Note_on_c, 0, 58, 88
4, 7680, Note_on_c, 0, 58, 0
4, 7680, Note_on_c, 0, 57, 88
4, 7824, Note_on_c, 0, 57, 0
4, 7824, Note_on_c, 0, 58, 88
4, 7848, Note_on_c, 0, 58, 0
4, 7848, Note_on_c, 0, 60, 88
4, 7872, Note_on_c, 0, 60, 0
4, 7872, Note_on_c, 0, 62, 88
4, 7968, Note_on_c, 0, 62, 0
4, 7968, Note_on_c, 0, 62, 88
4, 7992, Note_on_c, 0, 62, 0
4, 7992, Note_on_c, 0, 63, 88
4, 8016, Note_on_c, 0, 63, 0
4, 8016, Note_on_c, 0, 62, 88
4, 8040, Note_on_c, 0, 62, 0
4, 8040, Note_on_c, 0, 60, 88
4, 8064, Note_on_c, 0, 60, 0
4, 8064, Note_on_c, 0, 58, 88
4, 8160, Note_on_c, 0, 58, 0
4, 8160, Note_on_c, 0, 58, 88
4, 8184, Note_on_c, 0, 58, 0
4, 8184, Note_on_c, 0, 58, 72
4, 8208, Note_on_c, 0, 58, 0
4, 8208, Note_on_c, 0, 57, 72
4, 8232, Note_on_c, 0, 57, 0
4, 8232, Note_on_c, 0, 55, 72
4, 8256, Note_on_c, 0, 55, 0
4, 8256, Note_on_c, 0, 53, 72
4, 8304, Note_on_c, 0, 53, 0
4, 8304, Note_on_c, 0, 58, 72
4, 8376, Note_on_c, 0, 58, 0
4, 8376, Note_on_c, 0, 58, 72
4, 8400, Note_on_c, 0, 58, 0
4, 8400, Note_on_c, 0, 57, 72
4, 8424, Note_on_c, 0, 57, 0
4, 8424, Note_on_c, 0, 55, 72
4, 8448, Note_on_c, 0, 55, 0
4, 8448, Note_on_c, 0, 57, 72
4, 8472, Note_on_c, 0, 57, 0
4, 8472, Note_on_c, 0, 55, 72
4, 8496, Note_on_c, 0, 55, 0
4, 8496, Note_on_c, 0, 53, 72
4, 8520, Note_on_c, 0, 53, 0
4, 8520, Note_on_c, 0, 52, 72
4, 8544, Note_on_c, 0, 52, 0
4, 8544, Note_on_c, 0, 53, 88
4, 8832, Note_on_c, 0, 53, 0
4, 8832, Note_on_c, 0, 60, 88
4, 9120, Note_on_c, 0, 60, 0
4, 9120, Note_on_c, 0, 58, 88
4, 9216, Note_on_c, 0, 58, 0
4, 9216, Note_on_c, 0, 57, 88
4, 9504, Note_on_c, 0, 57, 0
4, 9504, Note_on_c, 0, 55, 88
4, 9600, Note_on_c, 0, 55, 0
4, 9600, Note_on_c, 0, 53, 88
4, 9984, Note_on_c, 0, 53, 0
4, 9984, Note_on_c, 0, 52, 88
4, 10368, Note_on_c, 0, 52, 0
4, 10368, Note_on_c, 0, 53, 88
4, 10656, Note_on_c, 0, 53, 0
4, 10656, Note_on_c, 0, 55, 88
4, 10752, Note_on_c, 0, 55, 0
4, 10752, Note_on_c, 0, 57, 88
4, 11136, Note_on_c, 0, 57, 0
4, 11136, Note_on_c, 0, 57, 88
4, 11232, Note_on_c, 0, 57, 0
4, 11232, Note_on_c, 0, 58, 88
4, 11328, Note_on_c, 0, 58, 0
4, 11328, Note_on_c, 0, 57, 88
4, 11424, Note_on_c, 0, 57, 0
4, 11424, Note_on_c, 0, 55, 88
4, 11520, Note_on_c, 0, 55, 0
4, 11520, Note_on_c, 0, 53, 88
4, 11616, Note_on_c, 0, 53, 0
4, 11664, Note_on_c, 0, 55, 72
4, 11736, Note_on_c, 0, 55, 0
4, 11736, Note_on_c, 0, 57, 72
4, 11760, Note_on_c, 0, 57, 0
4, 11760, Note_on_c, 0, 55, 72
4, 11784, Note_on_c, 0, 55, 0
4, 11784, Note_on_c, 0, 53, 72
4, 11808, Note_on_c, 0, 53, 0
4, 11808, Note_on_c, 0, 52, 72
4, 11856, Note_on_c, 0, 52, 0
4, 11856, Note_on_c, 0, 57, 72
4, 11904, Note_on_c, 0, 57, 0
4, 11904, Note_on_c, 0, 57, 72
4, 11928, Note_on_c, 0, 57, 0
4, 11928, Note_on_c, 0, 58, 72
4, 11952, Note_on_c, 0, 58, 0
4, 11952, Note_on_c, 0, 57, 72
4, 11976, Note_on_c, 0, 57, 0
4, 11976, Note_on_c, 0, 55, 72
4, 12000, Note_on_c, 0, 55, 0
4, 12000, Note_on_c, 0, 53, 72
4, 12024, Note_on_c, 0, 53, 0
4, 12024, Note_on_c, 0, 57, 72
4, 12048, Note_on_c, 0, 57, 0
4, 12048, Note_on_c, 0, 62, 72
4, 12072, Note_on_c, 0, 62, 0
4, 12072, Note_on_c, 0, 60, 72
4, 12096, Note_on_c, 0, 60, 0
4, 12096, Note_on_c, 0, 58, 72
4, 12144, Note_on_c, 0, 58, 0
4, 12144, Note_on_c, 0, 59, 72
4, 12192, Note_on_c, 0, 59, 0
4, 12192, Note_on_c, 0, 60, 72
4, 12240, Note_on_c, 0, 60, 0
4, 12240, Note_on_c, 0, 61, 72
4, 12288, Note_on_c, 0, 61, 0
4, 12288, Note_on_c, 0, 62, 72
4, 12312, Note_on_c, 0, 62, 0
4, 12312, Note_on_c, 0, 60, 72
4, 12336, Note_on_c, 0, 60, 0
4, 12336, Note_on_c, 0, 59, 72
4, 12360, Note_on_c, 0, 59, 0
4, 12360, Note_on_c, 0, 57, 72
4, 12384, Note_on_c, 0, 57, 0
4, 12384, Note_on_c, 0, 59, 72
4, 12432, Note_on_c, 0, 59, 0
4, 12432, Note_on_c, 0, 58, 72
4, 12504, Note_on_c, 0, 58, 0
4, 12504, Note_on_c, 0, 62, 72
4, 12528, Note_on_c, 0, 62, 0
4, 12528, Note_on_c, 0, 60, 72
4, 12552, Note_on_c, 0, 60, 0
4, 12552, Note_on_c, 0, 58, 72
4, 12576, Note_on_c, 0, 58, 0
4, 12576, Note_on_c, 0, 57, 72
4, 12624, Note_on_c, 0, 57, 0
4, 12624, Note_on_c, 0, 69, 72
4, 12672, Note_on_c, 0, 69, 0
4, 12672, Note_on_c, 0, 69, 72
4, 12696, Note_on_c, 0, 69, 0
4, 12696, Note_on_c, 0, 69, 72
4, 12720, Note_on_c, 0, 69, 0
4, 12720, Note_on_c, 0, 67, 72
4, 12744, Note_on_c, 0, 67, 0
4, 12744, Note_on_c, 0, 65, 72
4, 12768, Note_on_c, 0, 65, 0
4, 12768, Note_on_c, 0, 64, 72
4, 12816, Note_on_c, 0, 64, 0
4, 12816, Note_on_c, 0, 63, 72
4, 12864, Note_on_c, 0, 63, 0
4, 12864, Note_on_c, 0, 62, 72
4, 12912, Note_on_c, 0, 62, 0
4, 12912, Note_on_c, 0, 61, 72
4, 12960, Note_on_c, 0, 61, 0
4, 12960, Note_on_c, 0, 62, 72
4, 13008, Note_on_c, 0, 62, 0
4, 13008, Note_on_c, 0, 67, 72
4, 13056, Note_on_c, 0, 67, 0
4, 13056, Note_on_c, 0, 67, 72
4, 13080, Note_on_c, 0, 67, 0
4, 13080, Note_on_c, 0, 65, 72
4, 13104, Note_on_c, 0, 65, 0
4, 13104, Note_on_c, 0, 64, 72
4, 13128, Note_on_c, 0, 64, 0
4, 13128, Note_on_c, 0, 62, 72
4, 13152, Note_on_c, 0, 62, 0
4, 13152, Note_on_c, 0, 61, 72
4, 13200, Note_on_c, 0, 61, 0
4, 13200, Note_on_c, 0, 64, 72
4, 13248, Note_on_c, 0, 64, 0
4, 13248, Note_on_c, 0, 57, 72
4, 13296, Note_on_c, 0, 57, 0
4, 13392, Note_on_c, 0, 49, 72
4, 13440, Note_on_c, 0, 49, 0
4, 13440, Note_on_c, 0, 50, 72
4, 13488, Note_on_c, 0, 50, 0
4, 13632, Note_on_c, 0, 50, 88
4, 13824, Note_on_c, 0, 50, 0
4, 13824, Note_on_c, 0, 57, 88
4, 13968, Note_on_c, 0, 57, 0
4, 13968, Note_on_c, 0, 55, 88
4, 14016, Note_on_c, 0, 55, 0
4, 14016, Note_on_c, 0, 53, 88
4, 14160, Note_on_c, 0, 53, 0
4, 14160, Note_on_c, 0, 52, 88
4, 14208, Note_on_c, 0, 52, 0
4, 14208, Note_on_c, 0, 50, 88
4, 14400, Note_on_c, 0, 50, 0
4, 14400, Note_on_c, 0, 49, 88
4, 14592, Note_on_c, 0, 49, 0
4, 14592, Note_on_c, 0, 50, 88
4, 14736, Note_on_c, 0, 50, 0
4, 14736, Note_on_c, 0, 52, 88
4, 14784, Note_on_c, 0, 52, 0
4, 14784, Note_on_c, 0, 53, 88
4, 14976, Note_on_c, 0, 53, 0
4, 14976, Note_on_c, 0, 53, 88
4, 15024, Note_on_c, 0, 53, 0
4, 15024, Note_on_c, 0, 55, 88
4, 15072, Note_on_c, 0, 55, 0
4, 15072, Note_on_c, 0, 53, 88
4, 15120, Note_on_c, 0, 53, 0
4, 15120, Note_on_c, 0, 52, 88
4, 15168, Note_on_c, 0, 52, 0
4, 15168, Note_on_c, 0, 50, 88
4, 15360, Note_on_c, 0, 50, 0
4, 15360, Note_on_c, 0, 50, 88
4, 15456, Note_on_c, 0, 50, 0
4, 15504, Note_on_c, 0, 49, 72
4, 15576, Note_on_c, 0, 49, 0
4, 15576, Note_on_c, 0, 52, 72
4, 15600, Note_on_c, 0, 52, 0
4, 15600, Note_on_c, 0, 50, 72
4, 15624, Note_on_c, 0, 50, 0
4, 15624, Note_on_c, 0, 49, 72
4, 15648, Note_on_c, 0, 49, 0
4, 15648, Note_on_c, 0, 50, 72
4, 15672, Note_on_c, 0, 50, 0
4, 15672, Note_on_c, 0, 52, 72
4, 15696, Note_on_c, 0, 52, 0
4, 15696, Note_on_c, 0, 53, 72
4, 15720, Note_on_c, 0, 53, 0
4, 15720, Note_on_c, 0, 55, 72
4, 15744, Note_on_c, 0, 55, 0
4, 15744, Note_on_c, 0, 57, 72
4, 15768, Note_on_c, 0, 57, 0
4, 15768, Note_on_c, 0, 55, 72
4, 15792, Note_on_c, 0, 55, 0
4, 15792, Note_on_c, 0, 53, 72
4, 15816, Note_on_c, 0, 53, 0
4, 15816, Note_on_c, 0, 55, 72
4, 15840, Note_on_c, 0, 55, 0
4, 15840, Note_on_c, 0, 57, 72
4, 15936, Note_on_c, 0, 57, 0
4, 15960, Note_on_c, 0, 63, 72
4, 15984, Note_on_c, 0, 63, 0
4, 15984, Note_on_c, 0, 62, 72
4, 16008, Note_on_c, 0, 62, 0
4, 16008, Note_on_c, 0, 60, 72
4, 16032, Note_on_c, 0, 60, 0
4, 16032, Note_on_c, 0, 58, 72
4, 16056, Note_on_c, 0, 58, 0
4, 16056, Note_on_c, 0, 57, 72
4, 16080, Note_on_c, 0, 57, 0
4, 16080, Note_on_c, 0, 55, 72
4, 16128, Note_on_c, 0, 55, 0
4, 16128, Note_on_c, 0, 62, 72
4, 16224, Note_on_c, 0, 62, 0
4, 16272, Note_on_c, 0, 62, 72
4, 16344, Note_on_c, 0, 62, 0
4, 16344, Note_on_c, 0, 61, 72
4, 16368, Note_on_c, 0, 61, 0
4, 16368, Note_on_c, 0, 62, 72
4, 16392, Note_on_c, 0, 62, 0
4, 16392, Note_on_c, 0, 64, 72
4, 16416, Note_on_c, 0, 64, 0
4, 16416, Note_on_c, 0, 65, 72
4, 16440, Note_on_c, 0, 65, 0
4, 16440, Note_on_c, 0, 67, 72
4, 16464, Note_on_c, 0, 67, 0
4, 16464, Note_on_c, 0, 65, 72
4, 16488, Note_on_c, 0, 65, 0
4, 16488, Note_on_c, 0, 64, 72
4, 16512, Note_on_c, 0, 64, 0
4, 16512, Note_on_c, 0, 62, 72
4, 16608, Note_on_c, 0, 62, 0
4, 16608, Note_on_c, 0, 60, 72
4, 16896, Note_on_c, 0, 60, 0
4, 16896, Note_on_c, 0, 60, 72
4, 16920, Note_on_c, 0, 60, 0
4, 16920, Note_on_c, 0, 63, 72
4, 16944, Note_on_c, 0, 63, 0
4, 16944, Note_on_c, 0, 62, 72
4, 16968, Note_on_c, 0, 62, 0
4, 16968, Note_on_c, 0, 60, 72
4, 16992, Note_on_c, 0, 60, 0
4, 16992, Note_on_c, 0, 58, 72
4, 17064, Note_on_c, 0, 58, 0
4, 17064, Note_on_c, 0, 57, 72
4, 17088, Note_on_c, 0, 57, 0
4, 17088, Note_on_c, 0, 55, 72
4, 17184, Note_on_c, 0, 55, 0
4, 17232, Note_on_c, 0, 63, 72
4, 17280, Note_on_c, 0, 63, 0
4, 17280, Note_on_c, 0, 57, 72
4, 17328, Note_on_c, 0, 57, 0
4, 17376, Note_on_c, 0, 62, 88
4, 17472, Note_on_c, 0, 62, 0
4, 17472, Note_on_c, 0, 55, 88
4, 17544, Note_on_c, 0, 55, 0
4, 17544, Note_on_c, 0, 57, 88
4, 17568, Note_on_c, 0, 57, 0
4, 17568, Note_on_c, 0, 58, 88
4, 17640, Note_on_c, 0, 58, 0
4, 17640, Note_on_c, 0, 60, 88
4, 17664, Note_on_c, 0, 60, 0
4, 17664, Note_on_c, 0, 62, 88
4, 17760, Note_on_c, 0, 62, 0
4, 17760, Note_on_c, 0, 63, 88
4, 17856, Note_on_c, 0, 63, 0
4, 17856, Note_on_c, 0, 62, 88
4, 17928, Note_on_c, 0, 62, 0
4, 17928, Note_on_c, 0, 60, 88
4, 17952, Note_on_c, 0, 60, 0
4, 17952, Note_on_c, 0, 58, 88
4, 18048, Note_on_c, 0, 58, 0
4, 18048, Note_on_c, 0, 58, 88
4, 18072, Note_on_c, 0, 58, 0
4, 18072, Note_on_c, 0, 55, 88
4, 18096, Note_on_c, 0, 55, 0
4, 18096, Note_on_c, 0, 57, 88
4, 18120, Note_on_c, 0, 57, 0
4, 18120, Note_on_c, 0, 58, 88
4, 18144, Note_on_c, 0, 58, 0
4, 18144, Note_on_c, 0, 60, 88
4, 18240, Note_on_c, 0, 60, 0
4, 18240, Note_on_c, 0, 60, 88
4, 18264, Note_on_c, 0, 60, 0
4, 18264, Note_on_c, 0, 60, 72
4, 18288, Note_on_c, 0, 60, 0
4, 18288, Note_on_c, 0, 58, 72
4, 18312, Note_on_c, 0, 58, 0
4, 18312, Note_on_c, 0, 57, 72
4, 18336, Note_on_c, 0, 57, 0
4, 18336, Note_on_c, 0, 55, 72
4, 18360, Note_on_c, 0, 55, 0
4, 18360, Note_on_c, 0, 53, 72
4, 18384, Note_on_c, 0, 53, 0
4, 18384, Note_on_c, 0, 52, 72
4, 18408, Note_on_c, 0, 52, 0
4, 18408, Note_on_c, 0, 50, 72
4, 18432, Note_on_c, 0, 50, 0
4, 18432, Note_on_c, 0, 48, 72
4, 18528, Note_on_c, 0, 48, 0
4, 18648, Note_on_c, 0, 62, 72
4, 18672, Note_on_c, 0, 62, 0
4, 18672, Note_on_c, 0, 60, 72
4, 18696, Note_on_c, 0, 60, 0
4, 18696, Note_on_c, 0, 58, 72
4, 18720, Note_on_c, 0, 58, 0
4, 18720, Note_on_c, 0, 57, 72
4, 18816, Note_on_c, 0, 57, 0
4, 18816, Note_on_c, 0, 57, 72
4, 18840, Note_on_c, 0, 57, 0
4, 18840, Note_on_c, 0, 50, 72
4, 18864, Note_on_c, 0, 50, 0
4, 18864, Note_on_c, 0, 52, 72
4, 18888, Note_on_c, 0, 52, 0
4, 18888, Note_on_c, 0, 54, 72
4, 18912, Note_on_c, 0, 54, 0
4, 18912, Note_on_c, 0, 55, 72
4, 18960, Note_on_c, 0, 55, 0
4, 19128, Note_on_c, 0, 65, 72
4, 19152, Note_on_c, 0, 65, 0
4, 19152, Note_on_c, 0, 64, 72
4, 19176, Note_on_c, 0, 64, 0
4, 19176, Note_on_c, 0, 62, 72
4, 19200, Note_on_c, 0, 62, 0
4, 19200, Note_on_c, 0, 61, 72
4, 19296, Note_on_c, 0, 61, 0
4, 19296, Note_on_c, 0, 61, 72
4, 19320, Note_on_c, 0, 61, 0
4, 19320, Note_on_c, 0, 57, 72
4, 19344, Note_on_c, 0, 57, 0
4, 19344, Note_on_c, 0, 62, 72
4, 19392, Note_on_c, 0, 62, 0
4, 19392, Note_on_c, 0, 64, 72
4, 19416, Note_on_c, 0, 64, 0
4, 19416, Note_on_c, 0, 65, 72
4, 19440, Note_on_c, 0, 65, 0
4, 19440, Note_on_c, 0, 64, 72
4, 19464, Note_on_c, 0, 64, 0
4, 19464, Note_on_c, 0, 62, 72
4, 19488, Note_on_c, 0, 62, 0
4, 19488, Note_on_c, 0, 61, 72
4, 19536, Note_on_c, 0, 61, 0
4, 19608, Note_on_c, 0, 57, 72
4, 19632, Note_on_c, 0, 57, 0
4, 19632, Note_on_c, 0, 59, 72
4, 19656, Note_on_c, 0, 59, 0
4, 19656, Note_on_c, 0, 61, 72
4, 19680, Note_on_c, 0, 61, 0
4, 19680, Note_on_c, 0, 62, 72
4, 19728, Note_on_c, 0, 62, 0
4, 19800, Note_on_c, 0, 59, 72
4, 19824, Note_on_c, 0, 59, 0
4, 19824, Note_on_c, 0, 61, 72
4, 19848, Note_on_c, 0, 61, 0
4, 19848, Note_on_c, 0, 62, 72
4, 19872, Note_on_c, 0, 62, 0
4, 19872, Note_on_c, 0, 64, 72
4, 19896, Note_on_c, 0, 64, 0
4, 19896, Note_on_c, 0, 65, 72
4, 19920, Note_on_c, 0, 65, 0
4, 19920, Note_on_c, 0, 67, 72
4, 19944, Note_on_c, 0, 67, 0
4, 19944, Note_on_c, 0, 69, 72
4, 19968, Note_on_c, 0, 69, 0
4, 19968, Note_on_c, 0, 65, 72
4, 20064, Note_on_c, 0, 65, 0
4, 20184, Note_on_c, 0, 50, 72
4, 20208, Note_on_c, 0, 50, 0
4, 20208, Note_on_c, 0, 52, 72
4, 20232, Note_on_c, 0, 52, 0
4, 20232, Note_on_c, 0, 54, 72
4, 20256, Note_on_c, 0, 54, 0
4, 20256, Note_on_c, 0, 55, 72
4, 20280, Note_on_c, 0, 55, 0
4, 20280, Note_on_c, 0, 57, 72
4, 20304, Note_on_c, 0, 57, 0
4, 20304, Note_on_c, 0, 58, 72
4, 20328, Note_on_c, 0, 58, 0
4, 20328, Note_on_c, 0, 55, 72
4, 20352, Note_on_c, 0, 55, 0
4, 20352, Note_on_c, 0, 57, 72
4, 20400, Note_on_c, 0, 57, 0
4, 20400, Note_on_c, 0, 52, 72
4, 20448, Note_on_c, 0, 52, 0
4, 20544, Note_on_c, 0, 58, 72
4, 20592, Note_on_c, 0, 58, 0
4, 20592, Note_on_c, 0, 55, 72
4, 20640, Note_on_c, 0, 55, 0
4, 20736, Note_on_c, 0, 57, 72
4, 20832, Note_on_c, 0, 57, 0
4, 20832, Note_on_c, 0, 62, 72
4, 20904, Note_on_c, 0, 62, 0
4, 20904, Note_on_c, 0, 60, 72
4, 20928, Note_on_c, 0, 60, 0
4, 20928, Note_on_c, 0, 58, 72
4, 21000, Note_on_c, 0, 58, 0
4, 21000, Note_on_c, 0, 57, 72
4, 21024, Note_on_c, 0, 57, 0
4, 21024, Note_on_c, 0, 55, 72
4, 21120, Note_on_c, 0, 55, 0
4, 21120, Note_on_c, 0, 53, 72
4, 21216, Note_on_c, 0, 53, 0
4, 21216, Note_on_c, 0, 53, 72
4, 21240, Note_on_c, 0, 53, 0
4, 21240, Note_on_c, 0, 53, 72
4, 21264, Note_on_c, 0, 53, 0
4, 21264, Note_on_c, 0, 55, 72
4, 21288, Note_on_c, 0, 55, 0
4, 21288, Note_on_c, 0, 57, 72
4, 21312, Note_on_c, 0, 57, 0
4, 21312, Note_on_c, 0, 58, 72
4, 21408, Note_on_c, 0, 58, 0
4, 21408, Note_on_c, 0, 58, 72
4, 21432, Note_on_c, 0, 58, 0
4, 21432, Note_on_c, 0, 60, 72
4, 21456, Note_on_c, 0, 60, 0
4, 21456, Note_on_c, 0, 58, 72
4, 21480, Note_on_c, 0, 58, 0
4, 21480, Note_on_c, 0, 57, 72
4, 21504, Note_on_c, 0, 57, 0
4, 21504, Note_on_c, 0, 55, 72
4, 21552, Note_on_c, 0, 55, 0
4, 21720, Note_on_c, 0, 47, 72
4, 21744, Note_on_c, 0, 47, 0
4, 21744, Note_on_c, 0, 49, 72
4, 21768, Note_on_c, 0, 49, 0
4, 21768, Note_on_c, 0, 50, 72
4, 21792, Note_on_c, 0, 50, 0
4, 21792, Note_on_c, 0, 52, 72
4, 21816, Note_on_c, 0, 52, 0
4, 21816, Note_on_c, 0, 53, 72
4, 21840, Note_on_c, 0, 53, 0
4, 21840, Note_on_c, 0, 55, 72
4, 21864, Note_on_c, 0, 55, 0
4, 21864, Note_on_c, 0, 52, 72
4, 21888, Note_on_c, 0, 52, 0
4, 21888, Note_on_c, 0, 57, 72
4, 21936, Note_on_c, 0, 57, 0
4, 22032, Note_on_c, 0, 53, 72
4, 22128, Note_on_c, 0, 53, 0
4, 22560, Note_on_c, 0, 50, 88
4, 22608, Note_on_c, 0, 50, 0
4, 22608, Note_on_c, 0, 52, 88
4, 22656, Note_on_c, 0, 52, 0
4, 22656, Note_on_c, 0, 53, 88
4, 22848, Note_on_c, 0, 53, 0
4, 22848, Note_on_c, 0, 52, 88
4, 22896, Note_on_c, 0, 52, 0
4, 22896, Note_on_c, 0, 52, 88
4, 23040, Note_on_c, 0, 52, 0
4, 23040, Note_on_c, 0, 50, 88
4, 23232, Note_on_c, 0, 50, 0
4, 23328, Note_on_c, 0, 62, 88
4, 23424, Note_on_c, 0, 62, 0
4, 23424, Note_on_c, 0, 64, 88
4, 23520, Note_on_c, 0, 64, 0
4, 23520, Note_on_c, 0, 67, 88
4, 23616, Note_on_c, 0, 67, 0
4, 23616, Note_on_c, 0, 62, 88
4, 23664, Note_on_c, 0, 62, 0
4, 23664, Note_on_c, 0, 62, 88
4, 23712, Note_on_c, 0, 62, 0
4, 23712, Note_on_c, 0, 57, 88
4, 23808, Note_on_c, 0, 57, 0
4, 23808, Note_on_c, 0, 58, 88
4, 24000, Note_on_c, 0, 58, 0
4, 24000, Note_on_c, 0, 52, 88
4, 24048, Note_on_c, 0, 52, 0
4, 24048, Note_on_c, 0, 52, 88
4, 24144, Note_on_c, 0, 52, 0
4, 24144, Note_on_c, 0, 52, 88
4, 24192, Note_on_c, 0, 52, 0
4, 24192, Note_on_c, 0, 50, 88
4, 24576, Note_on_c, 0, 50, 0
4, 24576, End_track
5, 0, Start_track
5, 0, Program_c, 0, 0
5, 1536, Note_on_c, 0, 50, 72
5, 1920, Note_on_c, 0, 50, 0
5, 1920, Note_on_c, 0, 45, 72
5, 2208, Note_on_c, 0, 45, 0
5, 2208, Note_on_c, 0, 47, 72
5, 2304, Note_on_c, 0, 47, 0
5, 2304, Note_on_c, 0, 48, 72
5, 2592, Note_on_c, 0, 48, 0
5, 2592, Note_on_c, 0, 50, 72
5, 2688, Note_on_c, 0, 50, 0
5, 2688, Note_on_c, 0, 52, 72
5, 3072, Note_on_c, 0, 52, 0
5, 3072, Note_on_c, 0, 53, 72
5, 3456, Note_on_c, 0, 53, 0
5, 3456, Note_on_c, 0, 52, 72
5, 3744, Note_on_c, 0, 52, 0
5, 3744, Note_on_c, 0, 50, 72
5, 3840, Note_on_c, 0, 50, 0
5, 3840, Note_on_c, 0, 48, 72
5, 4224, Note_on_c, 0, 48, 0
5, 4224, Note_on_c, 0, 48, 72
5, 4320, Note_on_c, 0, 48, 0
5, 4320, Note_on_c, 0, 45, 72
5, 4416, Note_on_c, 0, 45, 0
5, 4416, Note_on_c, 0, 46, 72
5, 4512, Note_on_c, 0, 46, 0
5, 4512, Note_on_c, 0, 48, 72
5, 4608, Note_on_c, 0, 48, 0
5, 4608, Note_on_c, 0, 50, 72
5, 4800, Note_on_c, 0, 50, 0
5, 5016, Note_on_c, 0, 43, 72
5, 5040, Note_on_c, 0, 43, 0
5, 5040, Note_on_c, 0, 45, 72
5, 5064, Note_on_c, 0, 45, 0
5, 5064, Note_on_c, 0, 46, 72
5, 5088, Note_on_c, 0, 46, 0
5, 5088, Note_on_c, 0, 48, 72
5, 5184, Note_on_c, 0, 48, 0
5, 5184, Note_on_c, 0, 48, 72
5, 5208, Note_on_c, 0, 48, 0
5, 5208, Note_on_c, 0, 45, 72
5, 5232, Note_on_c, 0, 45, 0
5, 5232, Note_on_c, 0, 50, 72
5, 5256, Note_on_c, 0, 50, 0
5, 5256, Note_on_c, 0, 48, 72
5, 5280, Note_on_c, 0, 48, 0
5, 5280, Note_on_c, 0, 46, 72
5, 5304, Note_on_c, 0, 46, 0
5, 5304, Note_on_c, 0, 45, 72
5, 5328, Note_on_c, 0, 45, 0
5, 5328, Note_on_c, 0, 43, 72
5, 5352, Note_on_c, 0, 43, 0
5, 5352, Note_on_c, 0, 42, 72
5, 5376, Note_on_c, 0, 42, 0
5, 5376, Note_on_c, 0, 43, 72
5, 5400, Note_on_c, 0, 43, 0
5, 5400, Note_on_c, 0, 46, 72
5, 5424, Note_on_c, 0, 46, 0
5, 5424, Note_on_c, 0, 48, 72
5, 5448, Note_on_c, 0, 48, 0
5, 5448, Note_on_c, 0, 50, 72
5, 5472, Note_on_c, 0, 50, 0
5, 5472, Note_on_c, 0, 51, 72
5, 5568, Note_on_c, 0, 51, 0
5, 5568, Note_on_c, 0, 51, 72
5, 5592, Note_on_c, 0, 51, 0
5, 5592, Note_on_c, 0, 51, 72
5, 5616, Note_on_c, 0, 51, 0
5, 5616, Note_on_c, 0, 50, 72
5, 5640, Note_on_c, 0, 50, 0
5, 5640, Note_on_c, 0, 48, 72
5, 5672, Note_on_c, 0, 48, 0
5, 5672, Note_on_c, 0, 47, 72
5, 5680, Note_on_c, 0, 47, 0
5, 5680, Note_on_c, 0, 48, 72
5, 5688, Note_on_c, 0, 48, 0
5, 5688, Note_on_c, 0, 47, 72
5, 5696, Note_on_c, 0, 47, 0
5, 5696, Note_on_c, 0, 48, 72
5, 5704, Note_on_c, 0, 48, 0
5, 5704, Note_on_c, 0, 47, 72
5, 5712, Note_on_c, 0, 47, 0
5, 5712, Note_on_c, 0, 48, 72
5, 5720, Note_on_c, 0, 48, 0
5, 5720, Note_on_c, 0, 47, 72
5, 5728, Note_on_c, 0, 47, 0
5, 5728, Note_on_c, 0, 48, 72
5, 5736, Note_on_c, 0, 48, 0
5, 5736, Note_on_c, 0, 47, 72
5, 5744, Note_on_c, 0, 47, 0
5, 5744, Note_on_c, 0, 45, 72
5, 5752, Note_on_c, 0, 45, 0
5, 5752, Note_on_c, 0, 47, 72
5, 5760, Note_on_c, 0, 47, 0
5, 5760, Note_on_c, 0, 48, 72
5, 5856, Note_on_c, 0, 48, 0
5, 5856, Note_on_c, 0, 48, 72
5, 5880, Note_on_c, 0, 48, 0
5, 5880, Note_on_c, 0, 50, 72
5, 5904, Note_on_c, 0, 50, 0
5, 5904, Note_on_c, 0, 51, 72
5, 5928, Note_on_c, 0, 51, 0
5, 5928, Note_on_c, 0, 53, 72
5, 5952, Note_on_c, 0, 53, 0
5, 5952, Note_on_c, 0, 55, 72
5, 6048, Note_on_c, 0, 55, 0
5, 6048, Note_on_c, 0, 53, 72
5, 6120, Note_on_c, 0, 53, 0
5, 6120, Note_on_c, 0, 51, 72
5, 6144, Note_on_c, 0, 51, 0
5, 6144, Note_on_c, 0, 50, 72
5, 6240, Note_on_c, 0, 50, 0
5, 6240, Note_on_c, 0, 50, 72
5, 6264, Note_on_c, 0, 50, 0
5, 6264, Note_on_c, 0, 51, 72
5, 6288, Note_on_c, 0, 51, 0
5, 6288, Note_on_c, 0, 50, 72
5, 6312, Note_on_c, 0, 50, 0
5, 6312, Note_on_c, 0, 48, 72
5, 6336, Note_on_c, 0, 48, 0
5, 6336, Note_on_c, 0, 46, 72
5, 6384, Note_on_c, 0, 46, 0
5, 6384, Note_on_c, 0, 50, 72
5, 6432, Note_on_c, 0, 50, 0
5, 6432, Note_on_c, 0, 43, 72
5, 6528, Note_on_c, 0, 43, 0
5, 6528, Note_on_c, 0, 41, 72
5, 6552, Note_on_c, 0, 41, 0
5, 6552, Note_on_c, 0, 45, 72
5, 6576, Note_on_c, 0, 45, 0
5, 6576, Note_on_c, 0, 46, 72
5, 6600, Note_on_c, 0, 46, 0
5, 6600, Note_on_c, 0, 48, 72
5, 6624, Note_on_c, 0, 48, 0
5, 6624, Note_on_c, 0, 50, 72
5, 6648, Note_on_c, 0, 50, 0
5, 6648, Note_on_c, 0, 48, 72
5, 6672, Note_on_c, 0, 48, 0
5, 6672, Note_on_c, 0, 50, 72
5, 6696, Note_on_c, 0, 50, 0
5, 6696, Note_on_c, 0, 51, 72
5, 6720, Note_on_c, 0, 51, 0
5, 6720, Note_on_c, 0, 53, 72
5, 6912, Note_on_c, 0, 53, 0
5, 6912, Note_on_c, 0, 53, 72
5, 7008, Note_on_c, 0, 53, 0
5, 7008, Note_on_c, 0, 53, 72
5, 7032, Note_on_c, 0, 53, 0
5, 7032, Note_on_c, 0, 51, 72
5, 7056, Note_on_c, 0, 51, 0
5, 7056, Note_on_c, 0, 50, 72
5, 7080, Note_on_c, 0, 50, 0
5, 7080, Note_on_c, 0, 48, 72
5, 7104, Note_on_c, 0, 48, 0
5, 7104, Note_on_c, 0, 55, 72
5, 7296, Note_on_c, 0, 55, 0
5, 7296, Note_on_c, 0, 53, 72
5, 7392, Note_on_c, 0, 53, 0
5, 7488, Note_on_c, 0, 53, 88
5, 7584, Note_on_c, 0, 53, 0
5, 7584, Note_on_c, 0, 46, 88
5, 7656, Note_on_c, 0, 46, 0
5, 7656, Note_on_c, 0, 48, 88
5, 7680, Note_on_c, 0, 48, 0
5, 7680, Note_on_c, 0, 50, 88
5, 7752, Note_on_c, 0, 50, 0
5, 7752, Note_on_c, 0, 51, 88
5, 7776, Note_on_c, 0, 51, 0
5, 7776, Note_on_c, 0, 53, 88
5, 7968, Note_on_c, 0, 53, 0
5, 7968, Note_on_c, 0, 55, 88
5, 8064, Note_on_c, 0, 55, 0
5, 8064, Note_on_c, 0, 55, 88
5, 8112, Note_on_c, 0, 55, 0
5, 8112, Note_on_c, 0, 53, 88
5, 8136, Note_on_c, 0, 53, 0
5, 8136, Note_on_c, 0, 51, 88
5, 8160, Note_on_c, 0, 51, 0
5, 8160, Note_on_c, 0, 50, 88
5, 8256, Note_on_c, 0, 50, 0
5, 8256, Note_on_c, 0, 50, 88
5, 8280, Note_on_c, 0, 50, 0
5, 8280, Note_on_c, 0, 48, 88
5, 8304, Note_on_c, 0, 48, 0
5, 8304, Note_on_c, 0, 50, 88
5, 8328, Note_on_c, 0, 50, 0
5, 8328, Note_on_c, 0, 52, 88
5, 8352, Note_on_c, 0, 52, 0
5, 8352, Note_on_c, 0, 53, 88
5, 8448, Note_on_c, 0, 53, 0
5, 8448, Note_on_c, 0, 53, 88
5, 8544, Note_on_c, 0, 53, 0
5, 8568, Note_on_c, 0, 46, 72
5, 8592, Note_on_c, 0, 46, 0
5, 8592, Note_on_c, 0, 45, 72
5, 8616, Note_on_c, 0, 45, 0
5, 8616, Note_on_c, 0, 43, 72
5, 8640, Note_on_c, 0, 43, 0
5, 8640, Note_on_c, 0, 41, 72
5, 8664, Note_on_c, 0, 41, 0
5, 8664, Note_on_c, 0, 45, 72
5, 8688, Note_on_c, 0, 45, 0
5, 8688, Note_on_c, 0, 46, 72
5, 8712, Note_on_c, 0, 46, 0
5, 8712, Note_on_c, 0, 48, 72
5, 8736, Note_on_c, 0, 48, 0
5, 8736, Note_on_c, 0, 50, 72
5, 8832, Note_on_c, 0, 50, 0
5, 8856, Note_on_c, 0, 36, 72
5, 8880, Note_on_c, 0, 36, 0
5, 8880, Note_on_c, 0, 48, 72
5, 8904, Note_on_c, 0, 48, 0
5, 8904, Note_on_c, 0, 46, 72
5, 8928, Note_on_c, 0, 46, 0
5, 8928, Note_on_c, 0, 45, 72
5, 8952, Note_on_c, 0, 45, 0
5, 8952, Note_on_c, 0, 43, 72
5, 8976, Note_on_c, 0, 43, 0
5, 8976, Note_on_c, 0, 41, 72
5, 9000, Note_on_c, 0, 41, 0
5, 9000, Note_on_c, 0, 40, 72
5, 9024, Note_on_c, 0, 40, 0
5, 9024, Note_on_c, 0, 41, 72
5, 9048, Note_on_c, 0, 41, 0
5, 9048, Note_on_c, 0, 48, 72
5, 9072, Note_on_c, 0, 48, 0
5, 9072, Note_on_c, 0, 53, 72
5, 9096, Note_on_c, 0, 53, 0
5, 9096, Note_on_c, 0, 52, 72
5, 9120, Note_on_c, 0, 52, 0
5, 9120, Note_on_c, 0, 50, 72
5, 9216, Note_on_c, 0, 50, 0
5, 9216, Note_on_c, 0, 50, 72
5, 9240, Note_on_c, 0, 50, 0
5, 9240, Note_on_c, 0, 50, 72
5, 9264, Note_on_c, 0, 50, 0
5, 9264, Note_on_c, 0, 48, 72
5, 9288, Note_on_c, 0, 48, 0
5, 9288, Note_on_c, 0, 46, 72
5, 9312, Note_on_c, 0, 46, 0
5, 9312, Note_on_c, 0, 45, 72
5, 9384, Note_on_c, 0, 45, 0
5, 9384, Note_on_c, 0, 45, 72
5, 9408, Note_on_c, 0, 45, 0
5, 9408, Note_on_c, 0, 46, 72
5, 9480, Note_on_c, 0, 46, 0
5, 9480, Note_on_c, 0, 47, 72
5, 9504, Note_on_c, 0, 47, 0
5, 9504, Note_on_c, 0, 48, 72
5, 9576, Note_on_c, 0, 48, 0
5, 9576, Note_on_c, 0, 49, 72
5, 9600, Note_on_c, 0, 49, 0
5, 9600, Note_on_c, 0, 50, 72
5, 9672, Note_on_c, 0, 50, 0
5, 9672, Note_on_c, 0, 52, 72
5, 9696, Note_on_c, 0, 52, 0
5, 9696, Note_on_c, 0, 53, 72
5, 9768, Note_on_c, 0, 53, 0
5, 9768, Note_on_c, 0, 55, 72
5, 9792, Note_on_c, 0, 55, 0
5, 9792, Note_on_c, 0, 57, 72
5, 9864, Note_on_c, 0, 57, 0
5, 9864, Note_on_c, 0, 58, 72
5, 9888, Note_on_c, 0, 58, 0
5, 9888, Note_on_c, 0, 60, 72
5, 9960, Note_on_c, 0, 60, 0
5, 9960, Note_on_c, 0, 62, 72
5, 9984, Note_on_c, 0, 62, 0
5, 9984, Note_on_c, 0, 55, 72
5, 10080, Note_on_c, 0, 55, 0
5, 10368, Note_on_c, 0, 50, 88
5, 10464, Note_on_c, 0, 50, 0
5, 10464, Note_on_c, 0, 57, 88
5, 10536, Note_on_c, 0, 57, 0
5, 10536, Note_on_c, 0, 55, 88
5, 10560, Note_on_c, 0, 55, 0
5, 10560, Note_on_c, 0, 53, 88
5, 10632, Note_on_c, 0, 53, 0
5, 10632, Note_on_c, 0, 52, 88
5, 10656, Note_on_c, 0, 52, 0
5, 10656, Note_on_c, 0, 50, 88
5, 10752, Note_on_c, 0, 50, 0
5, 10752, Note_on_c, 0, 49, 88
5, 10848, Note_on_c, 0, 49, 0
5, 10848, Note_on_c, 0, 50, 88
5, 10920, Note_on_c, 0, 50, 0
5, 10920, Note_on_c, 0, 52, 88
5, 10944, Note_on_c, 0, 52, 0
5, 10944, Note_on_c, 0, 53, 88
5, 11040, Note_on_c, 0, 53, 0
5, 11040, Note_on_c, 0, 53, 88
5, 11064, Note_on_c, 0, 53, 0
5, 11064, Note_on_c, 0, 55, 88
5, 11088, Note_on_c, 0, 55, 0
5, 11088, Note_on_c, 0, 53, 88
5, 11112, Note_on_c, 0, 53, 0
5, 11112, Note_on_c, 0, 52, 88
5, 11136, Note_on_c, 0, 52, 0
5, 11136, Note_on_c, 0, 50, 88
5, 11232, Note_on_c, 0, 50, 0
5, 11280, Note_on_c, 0, 55, 72
5, 11376, Note_on_c, 0, 55, 0
5, 11376, Note_on_c, 0, 53, 72
5, 11472, Note_on_c, 0, 53, 0
5, 11472, Note_on_c, 0, 52, 72
5, 11520, Note_on_c, 0, 52, 0
5, 11520, Note_on_c, 0, 52, 72
5, 11568, Note_on_c, 0, 52, 0
5, 11568, Note_on_c, 0, 50, 72
5, 11592, Note_on_c, 0, 50, 0
5, 11592, Note_on_c, 0, 48, 72
5, 11616, Note_on_c, 0, 48, 0
5, 11616, Note_on_c, 0, 47, 72
5, 11688, Note_on_c, 0, 47, 0
5, 11688, Note_on_c, 0, 49, 72
5, 11712, Note_on_c, 0, 49, 0
5, 11712, Note_on_c, 0, 50, 72
5, 11760, Note_on_c, 0, 50, 0
5, 11760, Note_on_c, 0, 46, 72
5, 11808, Note_on_c, 0, 46, 0
5, 11808, Note_on_c, 0, 43, 72
5, 11856, Note_on_c, 0, 43, 0
5, 11856, Note_on_c, 0, 45, 72
5, 11904, Note_on_c, 0, 45, 0
5, 11904, Note_on_c, 0, 50, 72
5, 11952, Note_on_c, 0, 50, 0
5, 11952, Note_on_c, 0, 52, 72
5, 12000, Note_on_c, 0, 52, 0
5, 12000, Note_on_c, 0, 53, 72
5, 12096, Note_on_c, 0, 53, 0
5, 12096, Note_on_c, 0, 53, 72
5, 12120, Note_on_c, 0, 53, 0
5, 12120, Note_on_c, 0, 57, 72
5, 12144, Note_on_c, 0, 57, 0
5, 12144, Note_on_c, 0, 55, 72
5, 12168, Note_on_c, 0, 55, 0
5, 12168, Note_on_c, 0, 53, 72
5, 12192, Note_on_c, 0, 53, 0
5, 12192, Note_on_c, 0, 52, 72
5, 12240, Note_on_c, 0, 52, 0
5, 12240, Note_on_c, 0, 57, 72
5, 12288, Note_on_c, 0, 57, 0
5, 12288, Note_on_c, 0, 50, 72
5, 12336, Note_on_c, 0, 50, 0
5, 12384, Note_on_c, 0, 55, 72
5, 12432, Note_on_c, 0, 55, 0
5, 12480, Note_on_c, 0, 48, 72
5, 12528, Note_on_c, 0, 48, 0
5, 12576, Note_on_c, 0, 53, 72
5, 12624, Note_on_c, 0, 53, 0
5, 12672, Note_on_c, 0, 46, 72
5, 12720, Note_on_c, 0, 46, 0
5, 12720, Note_on_c, 0, 58, 72
5, 12792, Note_on_c, 0, 58, 0
5, 12792, Note_on_c, 0, 57, 72
5, 12816, Note_on_c, 0, 57, 0
5, 12816, Note_on_c, 0, 55, 72
5, 12840, Note_on_c, 0, 55, 0
5, 12840, Note_on_c, 0, 54, 72
5, 12864, Note_on_c, 0, 54, 0
5, 12864, Note_on_c, 0, 55, 72
5, 12912, Note_on_c, 0, 55, 0
5, 12912, Note_on_c, 0, 57, 72
5, 12960, Note_on_c, 0, 57, 0
5, 12960, Note_on_c, 0, 58, 72
5, 13008, Note_on_c, 0, 58, 0
5, 13008, Note_on_c, 0, 55, 72
5, 13056, Note_on_c, 0, 55, 0
5, 13056, Note_on_c, 0, 57, 72
5, 13152, Note_on_c, 0, 57, 0
5, 13152, Note_on_c, 0, 57, 72
5, 13176, Note_on_c, 0, 57, 0
5, 13176, Note_on_c, 0, 58, 72
5, 13200, Note_on_c, 0, 58, 0
5, 13200, Note_on_c, 0, 57, 72
5, 13224, Note_on_c, 0, 57, 0
5, 13224, Note_on_c, 0, 55, 72
5, 13248, Note_on_c, 0, 55, 0
5, 13248, Note_on_c, 0, 53, 72
5, 13320, Note_on_c, 0, 53, 0
5, 13320, Note_on_c, 0, 55, 72
5, 13344, Note_on_c, 0, 55, 0
5, 13344, Note_on_c, 0, 57, 72
5, 13392, Note_on_c, 0, 57, 0
5, 13464, Note_on_c, 0, 46, 72
5, 13488, Note_on_c, 0, 46, 0
5, 13488, Note_on_c, 0, 45, 72
5, 13512, Note_on_c, 0, 45, 0
5, 13512, Note_on_c, 0, 43, 72
5, 13536, Note_on_c, 0, 43, 0
5, 13536, Note_on_c, 0, 41, 72
5, 13560, Note_on_c, 0, 41, 0
5, 13560, Note_on_c, 0, 40, 72
5, 13584, Note_on_c, 0, 40, 0
5, 13584, Note_on_c, 0, 38, 72
5, 13608, Note_on_c, 0, 38, 0
5, 13608, Note_on_c, 0, 37, 72
5, 13632, Note_on_c, 0, 37, 0
5, 13632, Note_on_c, 0, 38, 72
5, 13728, Note_on_c, 0, 38, 0
5, 13752, Note_on_c, 0, 55, 72
5, 13776, Note_on_c, 0, 55, 0
5, 13776, Note_on_c, 0, 53, 72
5, 13800, Note_on_c, 0, 53, 0
5, 13800, Note_on_c, 0, 52, 72
5, 13824, Note_on_c, 0, 52, 0
5, 13824, Note_on_c, 0, 50, 72
5, 13848, Note_on_c, 0, 50, 0
5, 13848, Note_on_c, 0, 49, 72
5, 13872, Note_on_c, 0, 49, 0
5, 13872, Note_on_c, 0, 50, 72
5, 13896, Note_on_c, 0, 50, 0
5, 13896, Note_on_c, 0, 52, 72
5, 13920, Note_on_c, 0, 52, 0
5, 13920, Note_on_c, 0, 53, 72
5, 14016, Note_on_c, 0, 53, 0
5, 14040, Note_on_c, 0, 41, 72
5, 14064, Note_on_c, 0, 41, 0
5, 14064, Note_on_c, 0, 43, 72
5, 14088, Note_on_c, 0, 43, 0
5, 14088, Note_on_c, 0, 45, 72
5, 14112, Note_on_c, 0, 45, 0
5, 14112, Note_on_c, 0, 46, 72
5, 14160, Note_on_c, 0, 46, 0
5, 14160, Note_on_c, 0, 43, 72
5, 14208, Note_on_c, 0, 43, 0
5, 14208, Note_on_c, 0, 50, 72
5, 14232, Note_on_c, 0, 50, 0
5, 14232, Note_on_c, 0, 38, 72
5, 14256, Note_on_c, 0, 38, 0
5, 14256, Note_on_c, 0, 50, 72
5, 14280, Note_on_c, 0, 50, 0
5, 14280, Note_on_c, 0, 52, 72
5, 14304, Note_on_c, 0, 52, 0
5, 14304, Note_on_c, 0, 53, 72
5, 14328, Note_on_c, 0, 53, 0
5, 14328, Note_on_c, 0, 57, 72
5, 14352, Note_on_c, 0, 57, 0
5, 14352, Note_on_c, 0, 55, 72
5, 14376, Note_on_c, 0, 55, 0
5, 14376, Note_on_c, 0, 53, 72
5, 14400, Note_on_c, 0, 53, 0
5, 14400, Note_on_c, 0, 52, 72
5, 14424, Note_on_c, 0, 52, 0
5, 14424, Note_on_c, 0, 50, 72
5, 14448, Note_on_c, 0, 50, 0
5, 14448, Note_on_c, 0, 52, 72
5, 14472, Note_on_c, 0, 52, 0
5, 14472, Note_on_c, 0, 53, 72
5, 14496, Note_on_c, 0, 53, 0
5, 14496, Note_on_c, 0, 52, 72
5, 14520, Note_on_c, 0, 52, 0
5, 14520, Note_on_c, 0, 53, 72
5, 14544, Note_on_c, 0, 53, 0
5, 14544, Note_on_c, 0, 50, 72
5, 14568, Note_on_c, 0, 50, 0
5, 14568, Note_on_c, 0, 52, 72
5, 14592, Note_on_c, 0, 52, 0
5, 14592, Note_on_c, 0, 53, 72
5, 14616, Note_on_c, 0, 53, 0
5, 14616, Note_on_c, 0, 52, 72
5, 14640, Note_on_c, 0, 52, 0
5, 14640, Note_on_c, 0, 53, 72
5, 14664, Note_on_c, 0, 53, 0
5, 14664, Note_on_c, 0, 55, 72
5, 14688, Note_on_c, 0, 55, 0
5, 14688, Note_on_c, 0, 53, 72
5, 14712, Note_on_c, 0, 53, 0
5, 14712, Note_on_c, 0, 52, 72
5, 14736, Note_on_c, 0, 52, 0
5, 14736, Note_on_c, 0, 50, 72
5, 14760, Note_on_c, 0, 50, 0
5, 14760, Note_on_c, 0, 49, 72
5, 14784, Note_on_c, 0, 49, 0
5, 14784, Note_on_c, 0, 50, 72
5, 14808, Note_on_c, 0, 50, 0
5, 14808, Note_on_c, 0, 48, 72
5, 14832, Note_on_c, 0, 48, 0
5, 14832, Note_on_c, 0, 46, 72
5, 14856, Note_on_c, 0, 46, 0
5, 14856, Note_on_c, 0, 45, 72
5, 14880, Note_on_c, 0, 45, 0
5, 14880, Note_on_c, 0, 43, 72
5, 14904, Note_on_c, 0, 43, 0
5, 14904, Note_on_c, 0, 45, 72
5, 14928, Note_on_c, 0, 45, 0
5, 14928, Note_on_c, 0, 46, 72
5, 14952, Note_on_c, 0, 46, 0
5, 14952, Note_on_c, 0, 43, 72
5, 14976, Note_on_c, 0, 43, 0
5, 14976, Note_on_c, 0, 45, 72
5, 15000, Note_on_c, 0, 45, 0
5, 15000, Note_on_c, 0, 43, 72
5, 15024, Note_on_c, 0, 43, 0
5, 15024, Note_on_c, 0, 45, 72
5, 15048, Note_on_c, 0, 45, 0
5, 15048, Note_on_c, 0, 46, 72
5, 15072, Note_on_c, 0, 46, 0
5, 15072, Note_on_c, 0, 45, 72
5, 15096, Note_on_c, 0, 45, 0
5, 15096, Note_on_c, 0, 57, 72
5, 15120, Note_on_c, 0, 57, 0
5, 15120, Note_on_c, 0, 55, 72
5, 15144, Note_on_c, 0, 55, 0
5, 15144, Note_on_c, 0, 57, 72
5, 15168, Note_on_c, 0, 57, 0
5, 15168, Note_on_c, 0, 53, 72
5, 15192, Note_on_c, 0, 53, 0
5, 15192, Note_on_c, 0, 57, 72
5, 15216, Note_on_c, 0, 57, 0
5, 15216, Note_on_c, 0, 62, 72
5, 15240, Note_on_c, 0, 62, 0
5, 15240, Note_on_c, 0, 60, 72
5, 15264, Note_on_c, 0, 60, 0
5, 15264, Note_on_c, 0, 58, 72
5, 15288, Note_on_c, 0, 58, 0
5, 15288, Note_on_c, 0, 57, 72
5, 15312, Note_on_c, 0, 57, 0
5, 15312, Note_on_c, 0, 55, 72
5, 15336, Note_on_c, 0, 55, 0
5, 15336, Note_on_c, 0, 58, 72
5, 15360, Note_on_c, 0, 58, 0
5, 15360, Note_on_c, 0, 57, 72
5, 15384, Note_on_c, 0, 57, 0
5, 15384, Note_on_c, 0, 55, 72
5, 15408, Note_on_c, 0, 55, 0
5, 15408, Note_on_c, 0, 53, 72
5, 15432, Note_on_c, 0, 53, 0
5, 15432, Note_on_c, 0, 52, 72
5, 15456, Note_on_c, 0, 52, 0
5, 15456, Note_on_c, 0, 50, 72
5, 15480, Note_on_c, 0, 50, 0
5, 15480, Note_on_c, 0, 48, 72
5, 15504, Note_on_c, 0, 48, 0
5, 15504, Note_on_c, 0, 46, 72
5, 15528, Note_on_c, 0, 46, 0
5, 15528, Note_on_c, 0, 45, 72
5, 15552, Note_on_c, 0, 45, 0
5, 15552, Note_on_c, 0, 46, 72
5, 15648, Note_on_c, 0, 46, 0
5, 15648, Note_on_c, 0, 45, 72
5, 15744, Note_on_c, 0, 45, 0
5, 15744, Note_on_c, 0, 45, 72
5, 15840, Note_on_c, 0, 45, 0
5, 16152, Note_on_c, 0, 58, 72
5, 16176, Note_on_c, 0, 58, 0
5, 16176, Note_on_c, 0, 57, 72
5, 16200, Note_on_c, 0, 57, 0
5, 16200, Note_on_c, 0, 55, 72
5, 16224, Note_on_c, 0, 55, 0
5, 16224, Note_on_c, 0, 53, 72
5, 16248, Note_on_c, 0, 53, 0
5, 16248, Note_on_c, 0, 52, 72
5, 16272, Note_on_c, 0, 52, 0
5, 16272, Note_on_c, 0, 50, 72
5, 16320, Note_on_c, 0, 50, 0
5, 16536, Note_on_c, 0, 55, 72
5, 16560, Note_on_c, 0, 55, 0
5, 16560, Note_on_c, 0, 57, 72
5, 16584, Note_on_c, 0, 57, 0
5, 16584, Note_on_c, 0, 58, 72
5, 16608, Note_on_c, 0, 58, 0
5, 16608, Note_on_c, 0, 60, 72
5, 16656, Note_on_c, 0, 60, 0
5, 16656, Note_on_c, 0, 48, 72
5, 16704, Note_on_c, 0, 48, 0
5, 16704, Note_on_c, 0, 53, 72
5, 16752, Note_on_c, 0, 53, 0
5, 16752, Note_on_c, 0, 55, 72
5, 16800, Note_on_c, 0, 55, 0
5, 16800, Note_on_c, 0, 57, 72
5, 16848, Note_on_c, 0, 57, 0
5, 16848, Note_on_c, 0, 55, 72
5, 16896, Note_on_c, 0, 55, 0
5, 16896, Note_on_c, 0, 54, 72
5, 16992, Note_on_c, 0, 54, 0
5, 17016, Note_on_c, 0, 50, 72
5, 17040, Note_on_c, 0, 50, 0
5, 17040, Note_on_c, 0, 52, 72
5, 17064, Note_on_c, 0, 52, 0
5, 17064, Note_on_c, 0, 54, 72
5, 17088, Note_on_c, 0, 54, 0
5, 17088, Note_on_c, 0, 55, 72
5, 17112, Note_on_c, 0, 55, 0
5, 17112, Note_on_c, 0, 50, 72
5, 17136, Note_on_c, 0, 50, 0
5, 17136, Note_on_c, 0, 55, 72
5, 17160, Note_on_c, 0, 55, 0
5, 17160, Note_on_c, 0, 53, 72
5, 17184, Note_on_c, 0, 53, 0
5, 17184, Note_on_c, 0, 51, 72
5, 17208, Note_on_c, 0, 51, 0
5, 17208, Note_on_c, 0, 50, 72
5, 17232, Note_on_c, 0, 50, 0
5, 17232, Note_on_c, 0, 48, 72
5, 17256, Note_on_c, 0, 48, 0
5, 17256, Note_on_c, 0, 46, 72
5, 17280, Note_on_c, 0, 46, 0
5, 17280, Note_on_c, 0, 48, 72
5, 17304, Note_on_c, 0, 48, 0
5, 17304, Note_on_c, 0, 51, 72
5, 17328, Note_on_c, 0, 51, 0
5, 17328, Note_on_c, 0, 50, 72
5, 17352, Note_on_c, 0, 50, 0
5, 17352, Note_on_c, 0, 48, 72
5, 17376, Note_on_c, 0, 48, 0
5, 17376, Note_on_c, 0, 46, 72
5, 17400, Note_on_c, 0, 46, 0
5, 17400, Note_on_c, 0, 45, 72
5, 17424, Note_on_c, 0, 45, 0
5, 17424, Note_on_c, 0, 43, 72
5, 17448, Note_on_c, 0, 43, 0
5, 17448, Note_on_c, 0, 42, 72
5, 17472, Note_on_c, 0, 42, 0
5, 17472, Note_on_c, 0, 43, 72
5, 17496, Note_on_c, 0, 43, 0
5, 17496, Note_on_c, 0, 50, 72
5, 17520, Note_on_c, 0, 50, 0
5, 17520, Note_on_c, 0, 55, 72
5, 17592, Note_on_c, 0, 55, 0
5, 17592, Note_on_c, 0, 54, 72
5, 17616, Note_on_c, 0, 54, 0
5, 17616, Note_on_c, 0, 55, 72
5, 17640, Note_on_c, 0, 55, 0
5, 17640, Note_on_c, 0, 57, 72
5, 17664, Note_on_c, 0, 57, 0
5, 17664, Note_on_c, 0, 58, 72
5, 17688, Note_on_c, 0, 58, 0
5, 17688, Note_on_c, 0, 55, 72
5, 17712, Note_on_c, 0, 55, 0
5, 17712, Note_on_c, 0, 57, 72
5, 17736, Note_on_c, 0, 57, 0
5, 17736, Note_on_c, 0, 58, 72
5, 17760, Note_on_c, 0, 58, 0
5, 17760, Note_on_c, 0, 60, 72
5, 17808, Note_on_c, 0, 60, 0
5, 17808, Note_on_c, 0, 48, 72
5, 17856, Note_on_c, 0, 48, 0
5, 17856, Note_on_c, 0, 55, 72
5, 17952, Note_on_c, 0, 55, 0
5, 18000, Note_on_c, 0, 43, 88
5, 18048, Note_on_c, 0, 43, 0
5, 18048, Note_on_c, 0, 48, 88
5, 18120, Note_on_c, 0, 48, 0
5, 18120, Note_on_c, 0, 46, 88
5, 18144, Note_on_c, 0, 46, 0
5, 18144, Note_on_c, 0, 45, 88
5, 18216, Note_on_c, 0, 45, 0
5, 18216, Note_on_c, 0, 43, 88
5, 18240, Note_on_c, 0, 43, 0
5, 18240, Note_on_c, 0, 41, 88
5, 18336, Note_on_c, 0, 41, 0
5, 18336, Note_on_c, 0, 40, 88
5, 18432, Note_on_c, 0, 40, 0
5, 18432, Note_on_c, 0, 41, 88
5, 18504, Note_on_c, 0, 41, 0
5, 18504, Note_on_c, 0, 43, 88
5, 18528, Note_on_c, 0, 43, 0
5, 18528, Note_on_c, 0, 45, 88
5, 18624, Note_on_c, 0, 45, 0
5, 18624, Note_on_c, 0, 45, 88
5, 18648, Note_on_c, 0, 45, 0
5, 18648, Note_on_c, 0, 46, 88
5, 18672, Note_on_c, 0, 46, 0
5, 18672, Note_on_c, 0, 45, 88
5, 18696, Note_on_c, 0, 45, 0
5, 18696, Note_on_c, 0, 43, 88
5, 18720, Note_on_c, 0, 43, 0
5, 18720, Note_on_c, 0, 41, 88
5, 18744, Note_on_c, 0, 41, 0
5, 18744, Note_on_c, 0, 51, 72
5, 18768, Note_on_c, 0, 51, 0
5, 18768, Note_on_c, 0, 50, 72
5, 18792, Note_on_c, 0, 50, 0
5, 18792, Note_on_c, 0, 48, 72
5, 18816, Note_on_c, 0, 48, 0
5, 18816, Note_on_c, 0, 46, 72
5, 18912, Note_on_c, 0, 46, 0
5, 18936, Note_on_c, 0, 58, 72
5, 18960, Note_on_c, 0, 58, 0
5, 18960, Note_on_c, 0, 57, 72
5, 18984, Note_on_c, 0, 57, 0
5, 18984, Note_on_c, 0, 55, 72
5, 19008, Note_on_c, 0, 55, 0
5, 19008, Note_on_c, 0, 54, 72
5, 19056, Note_on_c, 0, 54, 0
5, 19056, Note_on_c, 0, 50, 72
5, 19104, Note_on_c, 0, 50, 0
5, 19104, Note_on_c, 0, 55, 72
5, 19200, Note_on_c, 0, 55, 0
5, 19200, Note_on_c, 0, 55, 72
5, 19224, Note_on_c, 0, 55, 0
5, 19224, Note_on_c, 0, 55, 72
5, 19248, Note_on_c, 0, 55, 0
5, 19248, Note_on_c, 0, 53, 72
5, 19272, Note_on_c, 0, 53, 0
5, 19272, Note_on_c, 0, 52, 72
5, 19296, Note_on_c, 0, 52, 0
5, 19296, Note_on_c, 0, 53, 72
5, 19368, Note_on_c, 0, 53, 0
5, 19368, Note_on_c, 0, 50, 72
5, 19392, Note_on_c, 0, 50, 0
5, 19392, Note_on_c, 0, 57, 72
5, 19488, Note_on_c, 0, 57, 0
5, 19512, Note_on_c, 0, 45, 72
5, 19536, Note_on_c, 0, 45, 0
5, 19536, Note_on_c, 0, 47, 72
5, 19560, Note_on_c, 0, 47, 0
5, 19560, Note_on_c, 0, 49, 72
5, 19584, Note_on_c, 0, 49, 0
5, 19584, Note_on_c, 0, 50, 72
5, 19680, Note_on_c, 0, 50, 0
5, 19704, Note_on_c, 0, 52, 72
5, 19728, Note_on_c, 0, 52, 0
5, 19728, Note_on_c, 0, 53, 72
5, 19752, Note_on_c, 0, 53, 0
5, 19752, Note_on_c, 0, 55, 72
5, 19776, Note_on_c, 0, 55, 0
5, 19776, Note_on_c, 0, 57, 72
5, 19968, Note_on_c, 0, 57, 0
5, 19992, Note_on_c, 0, 58, 72
5, 20016, Note_on_c, 0, 58, 0
5, 20016, Note_on_c, 0, 57, 72
5, 20040, Note_on_c, 0, 57, 0
5, 20040, Note_on_c, 0, 55, 72
5, 20064, Note_on_c, 0, 55, 0
5, 20064, Note_on_c, 0, 53, 72
5, 20088, Note_on_c, 0, 53, 0
5, 20088, Note_on_c, 0, 52, 72
5, 20112, Note_on_c, 0, 52, 0
5, 20112, Note_on_c, 0, 50, 72
5, 20136, Note_on_c, 0, 50, 0
5, 20136, Note_on_c, 0, 53, 72
5, 20160, Note_on_c, 0, 53, 0
5, 20160, Note_on_c, 0, 46, 72
5, 20352, Note_on_c, 0, 46, 0
5, 20352, Note_on_c, 0, 45, 72
5, 20448, Note_on_c, 0, 45, 0
5, 20472, Note_on_c, 0, 57, 72
5, 20496, Note_on_c, 0, 57, 0
5, 20496, Note_on_c, 0, 55, 72
5, 20520, Note_on_c, 0, 55, 0
5, 20520, Note_on_c, 0, 53, 72
5, 20544, Note_on_c, 0, 53, 0
5, 20544, Note_on_c, 0, 52, 72
5, 20568, Note_on_c, 0, 52, 0
5, 20568, Note_on_c, 0, 50, 72
5, 20592, Note_on_c, 0, 50, 0
5, 20592, Note_on_c, 0, 52, 72
5, 20616, Note_on_c, 0, 52, 0
5, 20616, Note_on_c, 0, 53, 72
5, 20640, Note_on_c, 0, 53, 0
5, 20640, Note_on_c, 0, 55, 72
5, 20664, Note_on_c, 0, 55, 0
5, 20664, Note_on_c, 0, 58, 72
5, 20688, Note_on_c, 0, 58, 0
5, 20688, Note_on_c, 0, 57, 72
5, 20712, Note_on_c, 0, 57, 0
5, 20712, Note_on_c, 0, 55, 72
5, 20736, Note_on_c, 0, 55, 0
5, 20736, Note_on_c, 0, 53, 72
5, 20760, Note_on_c, 0, 53, 0
5, 20760, Note_on_c, 0, 55, 72
5, 20784, Note_on_c, 0, 55, 0
5, 20784, Note_on_c, 0, 53, 72
5, 20808, Note_on_c, 0, 53, 0
5, 20808, Note_on_c, 0, 52, 72
5, 20832, Note_on_c, 0, 52, 0
5, 20832, Note_on_c, 0, 50, 72
5, 20856, Note_on_c, 0, 50, 0
5, 20856, Note_on_c, 0, 52, 72
5, 20880, Note_on_c, 0, 52, 0
5, 20880, Note_on_c, 0, 53, 72
5, 20952, Note_on_c, 0, 53, 0
5, 20952, Note_on_c, 0, 57, 72
5, 20976, Note_on_c, 0, 57, 0
5, 20976, Note_on_c, 0, 55, 72
5, 21000, Note_on_c, 0, 55, 0
5, 21000, Note_on_c, 0, 53, 72
5, 21024, Note_on_c, 0, 53, 0
5, 21024, Note_on_c, 0, 52, 72
5, 21048, Note_on_c, 0, 52, 0
5, 21048, Note_on_c, 0, 57, 72
5, 21072, Note_on_c, 0, 57, 0
5, 21072, Note_on_c, 0, 55, 72
5, 21096, Note_on_c, 0, 55, 0
5, 21096, Note_on_c, 0, 57, 72
5, 21120, Note_on_c, 0, 57, 0
5, 21120, Note_on_c, 0, 50, 72
5, 21216, Note_on_c, 0, 50, 0
5, 21216, Program_c, 0, 5
5, 21216, Note_on_c, 0, 69, 72
5, 21312, Note_on_c, 0, 69, 0
5, 21312, Note_on_c, 0, 69, 72
5, 21336, Note_on_c, 0, 69, 0
5, 21336, Note_on_c, 0, 70, 72
5, 21360, Note_on_c, 0, 70, 0
5, 21360, Note_on_c, 0, 69, 72
5, 21384, Note_on_c, 0, 69, 0
5, 21384, Note_on_c, 0, 67, 72
5, 21408, Note_on_c, 0, 67, 0
5, 21408, Note_on_c, 0, 65, 72
5, 21456, Note_on_c, 0, 65, 0
5, 21456, Note_on_c, 0, 67, 72
5, 21480, Note_on_c, 0, 67, 0
5, 21480, Note_on_c, 0, 69, 72
5, 21504, Note_on_c, 0, 69, 0
5, 21504, Note_on_c, 0, 70, 72
5, 21528, Note_on_c, 0, 70, 0
5, 21528, Program_c, 0, 0
5, 21528, Note_on_c, 0, 57, 72
5, 21552, Note_on_c, 0, 57, 0
5, 21552, Note_on_c, 0, 55, 72
5, 21576, Note_on_c, 0, 55, 0
5, 21576, Note_on_c, 0, 53, 72
5, 21600, Note_on_c, 0, 53, 0
5, 21600, Note_on_c, 0, 52, 72
5, 21624, Note_on_c, 0, 52, 0
5, 21624, Note_on_c, 0, 50, 72
5, 21648, Note_on_c, 0, 50, 0
5, 21648, Note_on_c, 0, 49, 72
5, 21672, Note_on_c, 0, 49, 0
5, 21672, Note_on_c, 0, 52, 72
5, 21696, Note_on_c, 0, 52, 0
5, 21696, Note_on_c, 0, 45, 72
5, 21888, Note_on_c, 0, 45, 0
5, 21888, Note_on_c, 0, 45, 72
5, 21912, Note_on_c, 0, 45, 0
5, 21912, Note_on_c, 0, 55, 72
5, 21936, Note_on_c, 0, 55, 0
5, 21936, Note_on_c, 0, 53, 72
5, 21960, Note_on_c, 0, 53, 0
5, 21960, Note_on_c, 0, 52, 72
5, 21984, Note_on_c, 0, 52, 0
5, 21984, Note_on_c, 0, 50, 72
5, 22008, Note_on_c, 0, 50, 0
5, 22008, Note_on_c, 0, 48, 72
5, 22032, Note_on_c, 0, 48, 0
5, 22032, Note_on_c, 0, 46, 72
5, 22056, Note_on_c, 0, 46, 0
5, 22056, Note_on_c, 0, 50, 72
5, 22080, Note_on_c, 0, 50, 0
5, 22080, Note_on_c, 0, 44, 72
5, 22128, Note_on_c, 0, 44, 0
5, 22560, Note_on_c, 0, 46, 88
5, 22656, Note_on_c, 0, 46, 0
5, 22656, Note_on_c, 0, 45, 88
5, 22848, Note_on_c, 0, 45, 0
5, 22848, Note_on_c, 0, 45, 88
5, 22896, Note_on_c, 0, 45, 0
5, 22896, Note_on_c, 0, 45, 88
5, 23040, Note_on_c, 0, 45, 0
5, 23040, Note_on_c, 0, 50, 88
5, 23424, Note_on_c, 0, 50, 0
5, 23424, Note_on_c, 0, 50, 88
5, 23616, Note_on_c, 0, 50, 0
5, 23616, Note_on_c, 0, 50, 88
5, 23664, Note_on_c, 0, 50, 0
5, 23664, Note_on_c, 0, 50, 88
5, 23808, Note_on_c, 0, 50, 0
5, 23808, Note_on_c, 0, 50, 88
5, 24000, Note_on_c, 0, 50, 0
5, 24000, Note_on_c, 0, 50, 88
5, 24048, Note_on_c, 0, 50, 0
5, 24048, Note_on_c, 0, 50, 88
5, 24144, Note_on_c, 0, 50, 0
5, 24144, Note_on_c, 0, 50, 88
5, 24192, Note_on_c, 0, 50, 0
5, 24192, Note_on_c, 0, 38, 88
5, 24576, Note_on_c, 0, 38, 0
5, 24576, End_track
0, 0, End_of_file
