0, 0, Header, 1, 3, 120
1, 0, Start_track
1, 0, Time_signature, 1, 3, 12, 8
1, 0, Key_signature, -2, "major"
1, 0, Tempo, 428571
1, 60, Time_signature, 3, 2, 24, 8
1, 42662, Tempo, 441176
1, 42902, Tempo, 500000
1, 42913, Tempo, 582524
1, 43021, Tempo, 689655
1, 43138, Tempo, 1071428
1, 43140, Tempo, 1428571
1, 43140, End_track
2, 0, Start_track
2, 0, MIDI_port, 0
2, 0, Program_c, 0, 0
2, 0, Control_c, 0, 7, 110
2, 0, Control_c, 0, 10, 55
2, 120, Program_c, 0, 0
2, 129, Note_on_c, 0, 70, 100
2, 165, Note_on_c, 0, 70, 0
2, 180, Note_on_c, 0, 70, 100
2, 215, Note_on_c, 0, 70, 0
2, 219, Note_on_c, 0, 74, 100
2, 255, Note_on_c, 0, 74, 0
2, 259, Note_on_c, 0, 69, 100
2, 294, Note_on_c, 0, 69, 0
2, 300, Note_on_c, 0, 70, 100
2, 335, Note_on_c, 0, 70, 0
2, 339, Note_on_c, 0, 65, 100
2, 375, Note_on_c, 0, 65, 0
2, 379, Note_on_c, 0, 70, 100
2, 414, Note_on_c, 0, 70, 0
2, 420, Note_on_c, 0, 74, 100
2, 455, Note_on_c, 0, 74, 0
2, 459, Note_on_c, 0, 77, 100
2, 495, Note_on_c, 0, 77, 0
2, 499, Note_on_c, 0, 69, 100
2, 534, Note_on_c, 0, 69, 0
2, 540, Note_on_c, 0, 70, 100
2, 575, Note_on_c, 0, 70, 0
2, 579, Note_on_c, 0, 74, 100
2, 615, Note_on_c, 0, 74, 0
2, 619, Note_on_c, 0, 69, 100
2, 654, Note_on_c, 0, 69, 0
2, 660, Note_on_c, 0, 70, 100
2, 695, Note_on_c, 0, 70, 0
2, 699, Note_on_c, 0, 67, 100
2, 735, Note_on_c, 0, 67, 0
2, 739, Note_on_c, 0, 70, 100
2, 774, Note_on_c, 0, 70, 0
2, 780, Note_on_c, 0, 75, 100
2, 815, Note_on_c, 0, 75, 0
2, 819, Note_on_c, 0, 79, 100
2, 855, Note_on_c, 0, 79, 0
2, 859, Note_on_c, 0, 69, 100
2, 894, Note_on_c, 0, 69, 0
2, 900, Note_on_c, 0, 70, 100
2, 935, Note_on_c, 0, 70, 0
2, 939, Note_on_c, 0, 77, 100
2, 975, Note_on_c, 0, 77, 0
2, 979, Note_on_c, 0, 72, 100
2, 1014, Note_on_c, 0, 72, 0
2, 1020, Note_on_c, 0, 74, 100
2, 1055, Note_on_c, 0, 74, 0
2, 1059, Note_on_c, 0, 70, 100
2, 1095, Note_on_c, 0, 70, 0
2, 1099, Note_on_c, 0, 74, 100
2, 1134, Note_on_c, 0, 74, 0
2, 1140, Note_on_c, 0, 77, 100
2, 1175, Note_on_c, 0, 77, 0
2, 1179, Note_on_c, 0, 82, 100
2, 1215, Note_on_c, 0, 82, 0
2, 1219, Note_on_c, 0, 74, 100
2, 1254, Note_on_c, 0, 74, 0
2, 1260, Note_on_c, 0, 79, 100
2, 1295, Note_on_c, 0, 79, 0
2, 1299, Note_on_c, 0, 69, 100
2, 1335, Note_on_c, 0, 69, 0
2, 1339, Note_on_c, 0, 72, 100
2, 1374, Note_on_c, 0, 72, 0
2, 1380, Note_on_c, 0, 77, 100
2, 1415, Note_on_c, 0, 77, 0
2, 1419, Note_on_c, 0, 67, 100
2, 1455, Note_on_c, 0, 67, 0
2, 1459, Note_on_c, 0, 70, 100
2, 1494, Note_on_c, 0, 70, 0
2, 1500, Note_on_c, 0, 75, 100
2, 1535, Note_on_c, 0, 75, 0
2, 1539, Note_on_c, 0, 65, 100
2, 1575, Note_on_c, 0, 65, 0
2, 1579, Note_on_c, 0, 69, 100
2, 1614, Note_on_c, 0, 69, 0
2, 1620, Note_on_c, 0, 74, 100
2, 1775, Note_on_c, 0, 74, 0
2, 1779, Note_on_c, 0, 70, 100
2, 1815, Note_on_c, 0, 70, 0
2, 1819, Note_on_c, 0, 74, 100
2, 1854, Note_on_c, 0, 74, 0
2, 1860, Note_on_c, 0, 77, 100
2, 1895, Note_on_c, 0, 77, 0
2, 1899, Note_on_c, 0, 74, 100
2, 1935, Note_on_c, 0, 74, 0
2, 1939, Note_on_c, 0, 72, 100
2, 1974, Note_on_c, 0, 72, 0
2, 1980, Note_on_c, 0, 70, 100
2, 2015, Note_on_c, 0, 70, 0
2, 2019, Note_on_c, 0, 74, 100
2, 2055, Note_on_c, 0, 74, 0
2, 2059, Note_on_c, 0, 69, 100
2, 2094, Note_on_c, 0, 69, 0
2, 2100, Note_on_c, 0, 70, 100
2, 2135, Note_on_c, 0, 70, 0
2, 2139, Note_on_c, 0, 67, 100
2, 2175, Note_on_c, 0, 67, 0
2, 2179, Note_on_c, 0, 70, 100
2, 2214, Note_on_c, 0, 70, 0
2, 2220, Note_on_c, 0, 74, 100
2, 2255, Note_on_c, 0, 74, 0
2, 2259, Note_on_c, 0, 79, 100
2, 2295, Note_on_c, 0, 79, 0
2, 2299, Note_on_c, 0, 82, 100
2, 2334, Note_on_c, 0, 82, 0
2, 2340, Note_on_c, 0, 76, 100
2, 2495, Note_on_c, 0, 76, 0
2, 2499, Note_on_c, 0, 72, 100
2, 2535, Note_on_c, 0, 72, 0
2, 2539, Note_on_c, 0, 76, 100
2, 2574, Note_on_c, 0, 76, 0
2, 2580, Note_on_c, 0, 79, 100
2, 2615, Note_on_c, 0, 79, 0
2, 2619, Note_on_c, 0, 76, 100
2, 2655, Note_on_c, 0, 76, 0
2, 2659, Note_on_c, 0, 74, 100
2, 2694, Note_on_c, 0, 74, 0
2, 2700, Note_on_c, 0, 72, 100
2, 2735, Note_on_c, 0, 72, 0
2, 2739, Note_on_c, 0, 76, 100
2, 2775, Note_on_c, 0, 76, 0
2, 2779, Note_on_c, 0, 71, 100
2, 2814, Note_on_c, 0, 71, 0
2, 2820, Note_on_c, 0, 72, 100
2, 2855, Note_on_c, 0, 72, 0
2, 2859, Note_on_c, 0, 69, 100
2, 2895, Note_on_c, 0, 69, 0
2, 2899, Note_on_c, 0, 72, 100
2, 2934, Note_on_c, 0, 72, 0
2, 2940, Note_on_c, 0, 76, 100
2, 2975, Note_on_c, 0, 76, 0
2, 2979, Note_on_c, 0, 81, 100
2, 3015, Note_on_c, 0, 81, 0
2, 3019, Note_on_c, 0, 84, 100
2, 3054, Note_on_c, 0, 84, 0
2, 3060, Note_on_c, 0, 77, 100
2, 3215, Note_on_c, 0, 77, 0
2, 3219, Note_on_c, 0, 74, 100
2, 3255, Note_on_c, 0, 74, 0
2, 3259, Note_on_c, 0, 77, 100
2, 3294, Note_on_c, 0, 77, 0
2, 3300, Note_on_c, 0, 81, 100
2, 3455, Note_on_c, 0, 81, 0
2, 3459, Note_on_c, 0, 74, 100
2, 3495, Note_on_c, 0, 74, 0
2, 3499, Note_on_c, 0, 72, 100
2, 3534, Note_on_c, 0, 72, 0
2, 3540, Note_on_c, 0, 70, 100
2, 3575, Note_on_c, 0, 70, 0
2, 3579, Note_on_c, 0, 74, 100
2, 3615, Note_on_c, 0, 74, 0
2, 3619, Note_on_c, 0, 79, 100
2, 3654, Note_on_c, 0, 79, 0
2, 3660, Note_on_c, 0, 72, 100
2, 3695, Note_on_c, 0, 72, 0
2, 3699, Note_on_c, 0, 70, 100
2, 3735, Note_on_c, 0, 70, 0
2, 3739, Note_on_c, 0, 69, 100
2, 3815, Note_on_c, 0, 69, 0
2, 3819, Note_on_c, 0, 70, 100
2, 3855, Note_on_c, 0, 70, 0
2, 3859, Note_on_c, 0, 69, 100
2, 3894, Note_on_c, 0, 69, 0
2, 3900, Note_on_c, 0, 67, 100
2, 3935, Note_on_c, 0, 67, 0
2, 3939, Note_on_c, 0, 70, 100
2, 3975, Note_on_c, 0, 70, 0
2, 3979, Note_on_c, 0, 76, 100
2, 4014, Note_on_c, 0, 76, 0
2, 4020, Note_on_c, 0, 69, 100
2, 4055, Note_on_c, 0, 69, 0
2, 4059, Note_on_c, 0, 67, 100
2, 4095, Note_on_c, 0, 67, 0
2, 4099, Note_on_c, 0, 65, 100
2, 4175, Note_on_c, 0, 65, 0
2, 4179, Note_on_c, 0, 67, 100
2, 4215, Note_on_c, 0, 67, 0
2, 4219, Note_on_c, 0, 65, 100
2, 4254, Note_on_c, 0, 65, 0
2, 4260, Note_on_c, 0, 64, 100
2, 4295, Note_on_c, 0, 64, 0
2, 4299, Note_on_c, 0, 67, 100
2, 4335, Note_on_c, 0, 67, 0
2, 4339, Note_on_c, 0, 72, 100
2, 4374, Note_on_c, 0, 72, 0
2, 4380, Note_on_c, 0, 65, 100
2, 4415, Note_on_c, 0, 65, 0
2, 4419, Note_on_c, 0, 64, 100
2, 4455, Note_on_c, 0, 64, 0
2, 4459, Note_on_c, 0, 62, 100
2, 4494, Note_on_c, 0, 62, 0
2, 4500, Note_on_c, 0, 64, 100
2, 4665, Note_on_c, 0, 64, 0
2, 4710, Note_on_c, 0, 76, 100
2, 4736, Note_on_c, 0, 76, 0
2, 4740, Note_on_c, 0, 76, 100
2, 4761, Note_on_c, 0, 76, 0
2, 4762, Note_on_c, 0, 77, 100
2, 4769, Note_on_c, 0, 77, 0
2, 4770, Note_on_c, 0, 76, 100
2, 4776, Note_on_c, 0, 76, 0
2, 4777, Note_on_c, 0, 77, 100
2, 4784, Note_on_c, 0, 77, 0
2, 4785, Note_on_c, 0, 76, 100
2, 4791, Note_on_c, 0, 76, 0
2, 4792, Note_on_c, 0, 77, 100
2, 4799, Note_on_c, 0, 77, 0
2, 4800, Note_on_c, 0, 76, 100
2, 4806, Note_on_c, 0, 76, 0
2, 4807, Note_on_c, 0, 77, 100
2, 4814, Note_on_c, 0, 77, 0
2, 4815, Note_on_c, 0, 76, 100
2, 4821, Note_on_c, 0, 76, 0
2, 4822, Note_on_c, 0, 77, 100
2, 4829, Note_on_c, 0, 77, 0
2, 4830, Note_on_c, 0, 74, 100
2, 4843, Note_on_c, 0, 74, 0
2, 4845, Note_on_c, 0, 76, 100
2, 4858, Note_on_c, 0, 76, 0
2, 4860, Note_on_c, 0, 77, 100
2, 4895, Note_on_c, 0, 77, 0
2, 4899, Note_on_c, 0, 72, 100
2, 4935, Note_on_c, 0, 72, 0
2, 4939, Note_on_c, 0, 69, 100
2, 4974, Note_on_c, 0, 69, 0
2, 4980, Note_on_c, 0, 65, 100
2, 5058, Note_on_c, 0, 65, 0
2, 5070, Note_on_c, 0, 77, 100
2, 5096, Note_on_c, 0, 77, 0
2, 5100, Note_on_c, 0, 77, 100
2, 5113, Note_on_c, 0, 77, 0
2, 5115, Note_on_c, 0, 79, 100
2, 5128, Note_on_c, 0, 79, 0
2, 5130, Note_on_c, 0, 77, 100
2, 5143, Note_on_c, 0, 77, 0
2, 5145, Note_on_c, 0, 79, 100
2, 5158, Note_on_c, 0, 79, 0
2, 5160, Note_on_c, 0, 77, 100
2, 5173, Note_on_c, 0, 77, 0
2, 5175, Note_on_c, 0, 79, 100
2, 5188, Note_on_c, 0, 79, 0
2, 5190, Note_on_c, 0, 76, 100
2, 5203, Note_on_c, 0, 76, 0
2, 5205, Note_on_c, 0, 77, 100
2, 5218, Note_on_c, 0, 77, 0
2, 5220, Note_on_c, 0, 79, 100
2, 5255, Note_on_c, 0, 79, 0
2, 5259, Note_on_c, 0, 76, 100
2, 5295, Note_on_c, 0, 76, 0
2, 5299, Note_on_c, 0, 70, 100
2, 5334, Note_on_c, 0, 70, 0
2, 5340, Note_on_c, 0, 67, 100
2, 5418, Note_on_c, 0, 67, 0
2, 5430, Note_on_c, 0, 79, 100
2, 5456, Note_on_c, 0, 79, 0
2, 5460, Note_on_c, 0, 79, 100
2, 5473, Note_on_c, 0, 79, 0
2, 5475, Note_on_c, 0, 81, 100
2, 5488, Note_on_c, 0, 81, 0
2, 5490, Note_on_c, 0, 79, 100
2, 5503, Note_on_c, 0, 79, 0
2, 5505, Note_on_c, 0, 81, 100
2, 5518, Note_on_c, 0, 81, 0
2, 5520, Note_on_c, 0, 79, 100
2, 5533, Note_on_c, 0, 79, 0
2, 5535, Note_on_c, 0, 81, 100
2, 5548, Note_on_c, 0, 81, 0
2, 5550, Note_on_c, 0, 77, 100
2, 5563, Note_on_c, 0, 77, 0
2, 5565, Note_on_c, 0, 79, 100
2, 5578, Note_on_c, 0, 79, 0
2, 5580, Note_on_c, 0, 80, 100
2, 5615, Note_on_c, 0, 80, 0
2, 5619, Note_on_c, 0, 76, 100
2, 5655, Note_on_c, 0, 76, 0
2, 5659, Note_on_c, 0, 77, 100
2, 5694, Note_on_c, 0, 77, 0
2, 5700, Note_on_c, 0, 74, 100
2, 5735, Note_on_c, 0, 74, 0
2, 5739, Note_on_c, 0, 77, 100
2, 5775, Note_on_c, 0, 77, 0
2, 5779, Note_on_c, 0, 80, 100
2, 5814, Note_on_c, 0, 80, 0
2, 5820, Note_on_c, 0, 83, 100
2, 5855, Note_on_c, 0, 83, 0
2, 5859, Note_on_c, 0, 84, 100
2, 5895, Note_on_c, 0, 84, 0
2, 5899, Note_on_c, 0, 77, 100
2, 5934, Note_on_c, 0, 77, 0
2, 5940, Note_on_c, 0, 76, 100
2, 5975, Note_on_c, 0, 76, 0
2, 5979, Note_on_c, 0, 74, 100
2, 6015, Note_on_c, 0, 74, 0
2, 6019, Note_on_c, 0, 72, 100
2, 6054, Note_on_c, 0, 72, 0
2, 6060, Note_on_c, 0, 79, 100
2, 6095, Note_on_c, 0, 79, 0
2, 6099, Note_on_c, 0, 76, 100
2, 6135, Note_on_c, 0, 76, 0
2, 6139, Note_on_c, 0, 72, 100
2, 6174, Note_on_c, 0, 72, 0
2, 6180, Note_on_c, 0, 70, 100
2, 6215, Note_on_c, 0, 70, 0
2, 6219, Note_on_c, 0, 69, 100
2, 6255, Note_on_c, 0, 69, 0
2, 6259, Note_on_c, 0, 67, 100
2, 6294, Note_on_c, 0, 67, 0
2, 6300, Note_on_c, 0, 69, 100
2, 6335, Note_on_c, 0, 69, 0
2, 6339, Note_on_c, 0, 72, 100
2, 6375, Note_on_c, 0, 72, 0
2, 6379, Note_on_c, 0, 67, 100
2, 6414, Note_on_c, 0, 67, 0
2, 6420, Note_on_c, 0, 69, 100
2, 6455, Note_on_c, 0, 69, 0
2, 6459, Note_on_c, 0, 65, 100
2, 6495, Note_on_c, 0, 65, 0
2, 6499, Note_on_c, 0, 69, 100
2, 6534, Note_on_c, 0, 69, 0
2, 6540, Note_on_c, 0, 72, 100
2, 6575, Note_on_c, 0, 72, 0
2, 6579, Note_on_c, 0, 77, 100
2, 6615, Note_on_c, 0, 77, 0
2, 6619, Note_on_c, 0, 67, 100
2, 6654, Note_on_c, 0, 67, 0
2, 6660, Note_on_c, 0, 65, 100
2, 6695, Note_on_c, 0, 65, 0
2, 6699, Note_on_c, 0, 69, 100
2, 6735, Note_on_c, 0, 69, 0
2, 6739, Note_on_c, 0, 64, 100
2, 6774, Note_on_c, 0, 64, 0
2, 6780, Note_on_c, 0, 65, 100
2, 6815, Note_on_c, 0, 65, 0
2, 6819, Note_on_c, 0, 62, 100
2, 6855, Note_on_c, 0, 62, 0
2, 6859, Note_on_c, 0, 65, 100
2, 6894, Note_on_c, 0, 65, 0
2, 6900, Note_on_c, 0, 69, 100
2, 6935, Note_on_c, 0, 69, 0
2, 6939, Note_on_c, 0, 74, 100
2, 6975, Note_on_c, 0, 74, 0
2, 6979, Note_on_c, 0, 64, 100
2, 7014, Note_on_c, 0, 64, 0
2, 7020, Note_on_c, 0, 62, 100
2, 7055, Note_on_c, 0, 62, 0
2, 7059, Note_on_c, 0, 65, 100
2, 7095, Note_on_c, 0, 65, 0
2, 7099, Note_on_c, 0, 60, 100
2, 7134, Note_on_c, 0, 60, 0
2, 7140, Note_on_c, 0, 62, 100
2, 7175, Note_on_c, 0, 62, 0
2, 7179, Note_on_c, 0, 58, 100
2, 7215, Note_on_c, 0, 58, 0
2, 7219, Note_on_c, 0, 62, 100
2, 7254, Note_on_c, 0, 62, 0
2, 7260, Note_on_c, 0, 65, 100
2, 7295, Note_on_c, 0, 65, 0
2, 7299, Note_on_c, 0, 70, 100
2, 7335, Note_on_c, 0, 70, 0
2, 7339, Note_on_c, 0, 60, 100
2, 7374, Note_on_c, 0, 60, 0
2, 7380, Note_on_c, 0, 58, 100
2, 7578, Note_on_c, 0, 58, 0
2, 7590, Note_on_c, 0, 67, 100
2, 7616, Note_on_c, 0, 67, 0
2, 7620, Note_on_c, 0, 58, 100
2, 7698, Note_on_c, 0, 58, 0
2, 7710, Note_on_c, 0, 67, 100
2, 7736, Note_on_c, 0, 67, 0
2, 7740, Note_on_c, 0, 58, 100
2, 7753, Note_on_c, 0, 58, 0
2, 7755, Note_on_c, 0, 60, 100
2, 7768, Note_on_c, 0, 60, 0
2, 7770, Note_on_c, 0, 58, 100
2, 7783, Note_on_c, 0, 58, 0
2, 7785, Note_on_c, 0, 60, 100
2, 7798, Note_on_c, 0, 60, 0
2, 7800, Note_on_c, 0, 58, 100
2, 7813, Note_on_c, 0, 58, 0
2, 7815, Note_on_c, 0, 60, 100
2, 7828, Note_on_c, 0, 60, 0
2, 7830, Note_on_c, 0, 58, 100
2, 7843, Note_on_c, 0, 58, 0
2, 7845, Note_on_c, 0, 60, 100
2, 7858, Note_on_c, 0, 60, 0
2, 7860, Note_on_c, 0, 58, 100
2, 7938, Note_on_c, 0, 58, 0
2, 7950, Note_on_c, 0, 58, 100
2, 7976, Note_on_c, 0, 58, 0
2, 7980, Note_on_c, 0, 67, 100
2, 8015, Note_on_c, 0, 67, 0
2, 8019, Note_on_c, 0, 57, 100
2, 8055, Note_on_c, 0, 57, 0
2, 8059, Note_on_c, 0, 58, 100
2, 8094, Note_on_c, 0, 58, 0
2, 8100, Note_on_c, 0, 57, 100
2, 8135, Note_on_c, 0, 57, 0
2, 8139, Note_on_c, 0, 60, 100
2, 8175, Note_on_c, 0, 60, 0
2, 8179, Note_on_c, 0, 58, 100
2, 8214, Note_on_c, 0, 58, 0
2, 8220, Note_on_c, 0, 60, 100
2, 8255, Note_on_c, 0, 60, 0
2, 8259, Note_on_c, 0, 65, 100
2, 8295, Note_on_c, 0, 65, 0
2, 8299, Note_on_c, 0, 64, 100
2, 8334, Note_on_c, 0, 64, 0
2, 8340, Note_on_c, 0, 70, 100
2, 8375, Note_on_c, 0, 70, 0
2, 8379, Note_on_c, 0, 69, 100
2, 8415, Note_on_c, 0, 69, 0
2, 8419, Note_on_c, 0, 67, 100
2, 8454, Note_on_c, 0, 67, 0
2, 8460, Note_on_c, 0, 65, 100
2, 8495, Note_on_c, 0, 65, 0
2, 8499, Note_on_c, 0, 69, 100
2, 8535, Note_on_c, 0, 69, 0
2, 8539, Note_on_c, 0, 64, 100
2, 8574, Note_on_c, 0, 64, 0
2, 8580, Note_on_c, 0, 65, 100
2, 8615, Note_on_c, 0, 65, 0
2, 8619, Note_on_c, 0, 60, 100
2, 8655, Note_on_c, 0, 60, 0
2, 8659, Note_on_c, 0, 65, 100
2, 8694, Note_on_c, 0, 65, 0
2, 8700, Note_on_c, 0, 69, 100
2, 8735, Note_on_c, 0, 69, 0
2, 8739, Note_on_c, 0, 72, 100
2, 8775, Note_on_c, 0, 72, 0
2, 8779, Note_on_c, 0, 64, 100
2, 8814, Note_on_c, 0, 64, 0
2, 8820, Note_on_c, 0, 65, 100
2, 8855, Note_on_c, 0, 65, 0
2, 8859, Note_on_c, 0, 69, 100
2, 8895, Note_on_c, 0, 69, 0
2, 8899, Note_on_c, 0, 64, 100
2, 8934, Note_on_c, 0, 64, 0
2, 8940, Note_on_c, 0, 65, 100
2, 8975, Note_on_c, 0, 65, 0
2, 8979, Note_on_c, 0, 60, 100
2, 9015, Note_on_c, 0, 60, 0
2, 9019, Note_on_c, 0, 65, 100
2, 9054, Note_on_c, 0, 65, 0
2, 9060, Note_on_c, 0, 69, 100
2, 9095, Note_on_c, 0, 69, 0
2, 9099, Note_on_c, 0, 72, 100
2, 9135, Note_on_c, 0, 72, 0
2, 9139, Note_on_c, 0, 64, 100
2, 9174, Note_on_c, 0, 64, 0
2, 9180, Note_on_c, 0, 65, 100
2, 9215, Note_on_c, 0, 65, 0
2, 9219, Note_on_c, 0, 69, 100
2, 9255, Note_on_c, 0, 69, 0
2, 9259, Note_on_c, 0, 64, 100
2, 9294, Note_on_c, 0, 64, 0
2, 9300, Note_on_c, 0, 65, 100
2, 9335, Note_on_c, 0, 65, 0
2, 9339, Note_on_c, 0, 60, 100
2, 9375, Note_on_c, 0, 60, 0
2, 9379, Note_on_c, 0, 65, 100
2, 9414, Note_on_c, 0, 65, 0
2, 9420, Note_on_c, 0, 69, 100
2, 9455, Note_on_c, 0, 69, 0
2, 9459, Note_on_c, 0, 72, 100
2, 9495, Note_on_c, 0, 72, 0
2, 9499, Note_on_c, 0, 64, 100
2, 9534, Note_on_c, 0, 64, 0
2, 9540, Note_on_c, 0, 62, 100
2, 9575, Note_on_c, 0, 62, 0
2, 9579, Note_on_c, 0, 70, 100
2, 9615, Note_on_c, 0, 70, 0
2, 9619, Note_on_c, 0, 67, 100
2, 9654, Note_on_c, 0, 67, 0
2, 9660, Note_on_c, 0, 64, 100
2, 9686, Note_on_c, 0, 64, 0
2, 9690, Note_on_c, 0, 65, 100
2, 9703, Note_on_c, 0, 65, 0
2, 9705, Note_on_c, 0, 64, 100
2, 9718, Note_on_c, 0, 64, 0
2, 9720, Note_on_c, 0, 65, 100
2, 9733, Note_on_c, 0, 65, 0
2, 9735, Note_on_c, 0, 64, 100
2, 9748, Note_on_c, 0, 64, 0
2, 9750, Note_on_c, 0, 65, 100
2, 9763, Note_on_c, 0, 65, 0
2, 9765, Note_on_c, 0, 64, 100
2, 9778, Note_on_c, 0, 64, 0
2, 9780, Note_on_c, 0, 65, 100
2, 9793, Note_on_c, 0, 65, 0
2, 9795, Note_on_c, 0, 64, 100
2, 9808, Note_on_c, 0, 64, 0
2, 9840, Note_on_c, 0, 65, 100
2, 9892, Note_on_c, 0, 65, 0
2, 9900, Note_on_c, 0, 57, 100
2, 9900, Note_on_c, 0, 60, 100
2, 9900, Note_on_c, 0, 65, 100
2, 10125, Note_on_c, 0, 65, 0
2, 10125, Note_on_c, 0, 60, 0
2, 10125, Note_on_c, 0, 57, 0
2, 10200, Program_c, 0, 3
2, 10211, Note_on_c, 0, 70, 100
2, 10251, Note_on_c, 0, 70, 0
2, 10260, Note_on_c, 0, 70, 100
2, 10295, Note_on_c, 0, 70, 0
2, 10299, Note_on_c, 0, 74, 100
2, 10335, Note_on_c, 0, 74, 0
2, 10339, Note_on_c, 0, 69, 100
2, 10374, Note_on_c, 0, 69, 0
2, 10380, Note_on_c, 0, 70, 100
2, 10415, Note_on_c, 0, 70, 0
2, 10419, Note_on_c, 0, 65, 100
2, 10455, Note_on_c, 0, 65, 0
2, 10459, Note_on_c, 0, 70, 100
2, 10494, Note_on_c, 0, 70, 0
2, 10500, Note_on_c, 0, 74, 100
2, 10535, Note_on_c, 0, 74, 0
2, 10539, Note_on_c, 0, 77, 100
2, 10575, Note_on_c, 0, 77, 0
2, 10579, Note_on_c, 0, 69, 100
2, 10614, Note_on_c, 0, 69, 0
2, 10620, Note_on_c, 0, 70, 100
2, 10655, Note_on_c, 0, 70, 0
2, 10659, Note_on_c, 0, 74, 100
2, 10695, Note_on_c, 0, 74, 0
2, 10699, Note_on_c, 0, 69, 100
2, 10734, Note_on_c, 0, 69, 0
2, 10740, Note_on_c, 0, 70, 100
2, 10775, Note_on_c, 0, 70, 0
2, 10779, Note_on_c, 0, 67, 100
2, 10815, Note_on_c, 0, 67, 0
2, 10819, Note_on_c, 0, 70, 100
2, 10854, Note_on_c, 0, 70, 0
2, 10860, Note_on_c, 0, 75, 100
2, 10895, Note_on_c, 0, 75, 0
2, 10899, Note_on_c, 0, 79, 100
2, 10935, Note_on_c, 0, 79, 0
2, 10939, Note_on_c, 0, 69, 100
2, 10974, Note_on_c, 0, 69, 0
2, 10980, Note_on_c, 0, 70, 100
2, 11015, Note_on_c, 0, 70, 0
2, 11019, Note_on_c, 0, 77, 100
2, 11055, Note_on_c, 0, 77, 0
2, 11059, Note_on_c, 0, 72, 100
2, 11094, Note_on_c, 0, 72, 0
2, 11100, Note_on_c, 0, 74, 100
2, 11135, Note_on_c, 0, 74, 0
2, 11139, Note_on_c, 0, 70, 100
2, 11175, Note_on_c, 0, 70, 0
2, 11179, Note_on_c, 0, 74, 100
2, 11214, Note_on_c, 0, 74, 0
2, 11220, Note_on_c, 0, 77, 100
2, 11255, Note_on_c, 0, 77, 0
2, 11259, Note_on_c, 0, 82, 100
2, 11295, Note_on_c, 0, 82, 0
2, 11299, Note_on_c, 0, 74, 100
2, 11334, Note_on_c, 0, 74, 0
2, 11340, Note_on_c, 0, 79, 100
2, 11375, Note_on_c, 0, 79, 0
2, 11379, Note_on_c, 0, 69, 100
2, 11415, Note_on_c, 0, 69, 0
2, 11419, Note_on_c, 0, 72, 100
2, 11454, Note_on_c, 0, 72, 0
2, 11460, Note_on_c, 0, 77, 100
2, 11495, Note_on_c, 0, 77, 0
2, 11499, Note_on_c, 0, 67, 100
2, 11535, Note_on_c, 0, 67, 0
2, 11539, Note_on_c, 0, 70, 100
2, 11574, Note_on_c, 0, 70, 0
2, 11580, Note_on_c, 0, 75, 100
2, 11615, Note_on_c, 0, 75, 0
2, 11619, Note_on_c, 0, 65, 100
2, 11655, Note_on_c, 0, 65, 0
2, 11659, Note_on_c, 0, 69, 100
2, 11694, Note_on_c, 0, 69, 0
2, 11700, Note_on_c, 0, 74, 100
2, 11855, Note_on_c, 0, 74, 0
2, 11859, Note_on_c, 0, 70, 100
2, 11895, Note_on_c, 0, 70, 0
2, 11899, Note_on_c, 0, 74, 100
2, 11934, Note_on_c, 0, 74, 0
2, 11940, Note_on_c, 0, 77, 100
2, 11975, Note_on_c, 0, 77, 0
2, 11979, Note_on_c, 0, 74, 100
2, 12015, Note_on_c, 0, 74, 0
2, 12019, Note_on_c, 0, 72, 100
2, 12054, Note_on_c, 0, 72, 0
2, 12060, Note_on_c, 0, 70, 100
2, 12095, Note_on_c, 0, 70, 0
2, 12099, Note_on_c, 0, 74, 100
2, 12135, Note_on_c, 0, 74, 0
2, 12139, Note_on_c, 0, 69, 100
2, 12174, Note_on_c, 0, 69, 0
2, 12180, Note_on_c, 0, 70, 100
2, 12215, Note_on_c, 0, 70, 0
2, 12219, Note_on_c, 0, 67, 100
2, 12255, Note_on_c, 0, 67, 0
2, 12259, Note_on_c, 0, 70, 100
2, 12294, Note_on_c, 0, 70, 0
2, 12300, Note_on_c, 0, 74, 100
2, 12335, Note_on_c, 0, 74, 0
2, 12339, Note_on_c, 0, 79, 100
2, 12375, Note_on_c, 0, 79, 0
2, 12379, Note_on_c, 0, 82, 100
2, 12414, Note_on_c, 0, 82, 0
2, 12420, Note_on_c, 0, 76, 100
2, 12575, Note_on_c, 0, 76, 0
2, 12579, Note_on_c, 0, 72, 100
2, 12615, Note_on_c, 0, 72, 0
2, 12619, Note_on_c, 0, 76, 100
2, 12654, Note_on_c, 0, 76, 0
2, 12660, Note_on_c, 0, 79, 100
2, 12695, Note_on_c, 0, 79, 0
2, 12699, Note_on_c, 0, 76, 100
2, 12735, Note_on_c, 0, 76, 0
2, 12739, Note_on_c, 0, 74, 100
2, 12774, Note_on_c, 0, 74, 0
2, 12780, Note_on_c, 0, 72, 100
2, 12815, Note_on_c, 0, 72, 0
2, 12819, Note_on_c, 0, 76, 100
2, 12855, Note_on_c, 0, 76, 0
2, 12859, Note_on_c, 0, 71, 100
2, 12894, Note_on_c, 0, 71, 0
2, 12900, Note_on_c, 0, 72, 100
2, 12935, Note_on_c, 0, 72, 0
2, 12939, Note_on_c, 0, 69, 100
2, 12975, Note_on_c, 0, 69, 0
2, 12979, Note_on_c, 0, 72, 100
2, 13014, Note_on_c, 0, 72, 0
2, 13020, Note_on_c, 0, 76, 100
2, 13055, Note_on_c, 0, 76, 0
2, 13059, Note_on_c, 0, 81, 100
2, 13095, Note_on_c, 0, 81, 0
2, 13099, Note_on_c, 0, 84, 100
2, 13134, Note_on_c, 0, 84, 0
2, 13140, Note_on_c, 0, 77, 100
2, 13295, Note_on_c, 0, 77, 0
2, 13299, Note_on_c, 0, 74, 100
2, 13335, Note_on_c, 0, 74, 0
2, 13339, Note_on_c, 0, 77, 100
2, 13374, Note_on_c, 0, 77, 0
2, 13380, Note_on_c, 0, 81, 100
2, 13535, Note_on_c, 0, 81, 0
2, 13539, Note_on_c, 0, 74, 100
2, 13575, Note_on_c, 0, 74, 0
2, 13579, Note_on_c, 0, 72, 100
2, 13614, Note_on_c, 0, 72, 0
2, 13620, Note_on_c, 0, 70, 100
2, 13655, Note_on_c, 0, 70, 0
2, 13659, Note_on_c, 0, 74, 100
2, 13695, Note_on_c, 0, 74, 0
2, 13699, Note_on_c, 0, 79, 100
2, 13734, Note_on_c, 0, 79, 0
2, 13740, Note_on_c, 0, 72, 100
2, 13775, Note_on_c, 0, 72, 0
2, 13779, Note_on_c, 0, 70, 100
2, 13815, Note_on_c, 0, 70, 0
2, 13819, Note_on_c, 0, 69, 100
2, 13895, Note_on_c, 0, 69, 0
2, 13899, Note_on_c, 0, 70, 100
2, 13935, Note_on_c, 0, 70, 0
2, 13939, Note_on_c, 0, 69, 100
2, 13974, Note_on_c, 0, 69, 0
2, 13980, Note_on_c, 0, 67, 100
2, 14015, Note_on_c, 0, 67, 0
2, 14019, Note_on_c, 0, 70, 100
2, 14055, Note_on_c, 0, 70, 0
2, 14059, Note_on_c, 0, 76, 100
2, 14094, Note_on_c, 0, 76, 0
2, 14100, Note_on_c, 0, 69, 100
2, 14135, Note_on_c, 0, 69, 0
2, 14139, Note_on_c, 0, 67, 100
2, 14175, Note_on_c, 0, 67, 0
2, 14179, Note_on_c, 0, 65, 100
2, 14255, Note_on_c, 0, 65, 0
2, 14259, Note_on_c, 0, 67, 100
2, 14295, Note_on_c, 0, 67, 0
2, 14299, Note_on_c, 0, 65, 100
2, 14334, Note_on_c, 0, 65, 0
2, 14340, Note_on_c, 0, 64, 100
2, 14375, Note_on_c, 0, 64, 0
2, 14379, Note_on_c, 0, 67, 100
2, 14415, Note_on_c, 0, 67, 0
2, 14419, Note_on_c, 0, 72, 100
2, 14454, Note_on_c, 0, 72, 0
2, 14460, Note_on_c, 0, 65, 100
2, 14495, Note_on_c, 0, 65, 0
2, 14499, Note_on_c, 0, 64, 100
2, 14535, Note_on_c, 0, 64, 0
2, 14539, Note_on_c, 0, 62, 100
2, 14574, Note_on_c, 0, 62, 0
2, 14580, Note_on_c, 0, 64, 100
2, 14745, Note_on_c, 0, 64, 0
2, 14790, Note_on_c, 0, 76, 100
2, 14816, Note_on_c, 0, 76, 0
2, 14820, Note_on_c, 0, 76, 100
2, 14841, Note_on_c, 0, 76, 0
2, 14842, Note_on_c, 0, 77, 100
2, 14849, Note_on_c, 0, 77, 0
2, 14850, Note_on_c, 0, 76, 100
2, 14856, Note_on_c, 0, 76, 0
2, 14857, Note_on_c, 0, 77, 100
2, 14864, Note_on_c, 0, 77, 0
2, 14865, Note_on_c, 0, 76, 100
2, 14871, Note_on_c, 0, 76, 0
2, 14872, Note_on_c, 0, 77, 100
2, 14879, Note_on_c, 0, 77, 0
2, 14880, Note_on_c, 0, 76, 100
2, 14886, Note_on_c, 0, 76, 0
2, 14887, Note_on_c, 0, 77, 100
2, 14894, Note_on_c, 0, 77, 0
2, 14895, Note_on_c, 0, 76, 100
2, 14901, Note_on_c, 0, 76, 0
2, 14902, Note_on_c, 0, 77, 100
2, 14909, Note_on_c, 0, 77, 0
2, 14910, Note_on_c, 0, 74, 100
2, 14923, Note_on_c, 0, 74, 0
2, 14925, Note_on_c, 0, 76, 100
2, 14938, Note_on_c, 0, 76, 0
2, 14940, Note_on_c, 0, 77, 100
2, 14975, Note_on_c, 0, 77, 0
2, 14979, Note_on_c, 0, 72, 100
2, 15015, Note_on_c, 0, 72, 0
2, 15019, Note_on_c, 0, 69, 100
2, 15054, Note_on_c, 0, 69, 0
2, 15060, Note_on_c, 0, 65, 100
2, 15138, Note_on_c, 0, 65, 0
2, 15150, Note_on_c, 0, 77, 100
2, 15176, Note_on_c, 0, 77, 0
2, 15180, Note_on_c, 0, 77, 100
2, 15193, Note_on_c, 0, 77, 0
2, 15195, Note_on_c, 0, 79, 100
2, 15208, Note_on_c, 0, 79, 0
2, 15210, Note_on_c, 0, 77, 100
2, 15223, Note_on_c, 0, 77, 0
2, 15225, Note_on_c, 0, 79, 100
2, 15238, Note_on_c, 0, 79, 0
2, 15240, Note_on_c, 0, 77, 100
2, 15253, Note_on_c, 0, 77, 0
2, 15255, Note_on_c, 0, 79, 100
2, 15268, Note_on_c, 0, 79, 0
2, 15270, Note_on_c, 0, 76, 100
2, 15283, Note_on_c, 0, 76, 0
2, 15285, Note_on_c, 0, 77, 100
2, 15298, Note_on_c, 0, 77, 0
2, 15300, Note_on_c, 0, 79, 100
2, 15335, Note_on_c, 0, 79, 0
2, 15339, Note_on_c, 0, 76, 100
2, 15375, Note_on_c, 0, 76, 0
2, 15379, Note_on_c, 0, 70, 100
2, 15414, Note_on_c, 0, 70, 0
2, 15420, Note_on_c, 0, 67, 100
2, 15498, Note_on_c, 0, 67, 0
2, 15510, Note_on_c, 0, 79, 100
2, 15536, Note_on_c, 0, 79, 0
2, 15540, Note_on_c, 0, 79, 100
2, 15553, Note_on_c, 0, 79, 0
2, 15555, Note_on_c, 0, 81, 100
2, 15568, Note_on_c, 0, 81, 0
2, 15570, Note_on_c, 0, 79, 100
2, 15583, Note_on_c, 0, 79, 0
2, 15585, Note_on_c, 0, 81, 100
2, 15598, Note_on_c, 0, 81, 0
2, 15600, Note_on_c, 0, 79, 100
2, 15613, Note_on_c, 0, 79, 0
2, 15615, Note_on_c, 0, 81, 100
2, 15628, Note_on_c, 0, 81, 0
2, 15630, Note_on_c, 0, 77, 100
2, 15643, Note_on_c, 0, 77, 0
2, 15645, Note_on_c, 0, 79, 100
2, 15658, Note_on_c, 0, 79, 0
2, 15660, Note_on_c, 0, 80, 100
2, 15695, Note_on_c, 0, 80, 0
2, 15699, Note_on_c, 0, 76, 100
2, 15735, Note_on_c, 0, 76, 0
2, 15739, Note_on_c, 0, 77, 100
2, 15774, Note_on_c, 0, 77, 0
2, 15780, Note_on_c, 0, 74, 100
2, 15815, Note_on_c, 0, 74, 0
2, 15819, Note_on_c, 0, 77, 100
2, 15855, Note_on_c, 0, 77, 0
2, 15859, Note_on_c, 0, 80, 100
2, 15894, Note_on_c, 0, 80, 0
2, 15900, Note_on_c, 0, 83, 100
2, 15935, Note_on_c, 0, 83, 0
2, 15939, Note_on_c, 0, 84, 100
2, 15975, Note_on_c, 0, 84, 0
2, 15979, Note_on_c, 0, 77, 100
2, 16014, Note_on_c, 0, 77, 0
2, 16020, Note_on_c, 0, 76, 100
2, 16055, Note_on_c, 0, 76, 0
2, 16059, Note_on_c, 0, 74, 100
2, 16095, Note_on_c, 0, 74, 0
2, 16099, Note_on_c, 0, 72, 100
2, 16134, Note_on_c, 0, 72, 0
2, 16140, Note_on_c, 0, 79, 100
2, 16175, Note_on_c, 0, 79, 0
2, 16179, Note_on_c, 0, 76, 100
2, 16215, Note_on_c, 0, 76, 0
2, 16219, Note_on_c, 0, 72, 100
2, 16254, Note_on_c, 0, 72, 0
2, 16260, Note_on_c, 0, 70, 100
2, 16295, Note_on_c, 0, 70, 0
2, 16299, Note_on_c, 0, 69, 100
2, 16335, Note_on_c, 0, 69, 0
2, 16339, Note_on_c, 0, 67, 100
2, 16374, Note_on_c, 0, 67, 0
2, 16380, Note_on_c, 0, 69, 100
2, 16415, Note_on_c, 0, 69, 0
2, 16419, Note_on_c, 0, 72, 100
2, 16455, Note_on_c, 0, 72, 0
2, 16459, Note_on_c, 0, 67, 100
2, 16494, Note_on_c, 0, 67, 0
2, 16500, Note_on_c, 0, 69, 100
2, 16535, Note_on_c, 0, 69, 0
2, 16539, Note_on_c, 0, 65, 100
2, 16575, Note_on_c, 0, 65, 0
2, 16579, Note_on_c, 0, 69, 100
2, 16614, Note_on_c, 0, 69, 0
2, 16620, Note_on_c, 0, 72, 100
2, 16655, Note_on_c, 0, 72, 0
2, 16659, Note_on_c, 0, 77, 100
2, 16695, Note_on_c, 0, 77, 0
2, 16699, Note_on_c, 0, 67, 100
2, 16734, Note_on_c, 0, 67, 0
2, 16740, Note_on_c, 0, 65, 100
2, 16775, Note_on_c, 0, 65, 0
2, 16779, Note_on_c, 0, 69, 100
2, 16815, Note_on_c, 0, 69, 0
2, 16819, Note_on_c, 0, 64, 100
2, 16854, Note_on_c, 0, 64, 0
2, 16860, Note_on_c, 0, 65, 100
2, 16895, Note_on_c, 0, 65, 0
2, 16899, Note_on_c, 0, 62, 100
2, 16935, Note_on_c, 0, 62, 0
2, 16939, Note_on_c, 0, 65, 100
2, 16974, Note_on_c, 0, 65, 0
2, 16980, Note_on_c, 0, 69, 100
2, 17015, Note_on_c, 0, 69, 0
2, 17019, Note_on_c, 0, 74, 100
2, 17055, Note_on_c, 0, 74, 0
2, 17059, Note_on_c, 0, 64, 100
2, 17094, Note_on_c, 0, 64, 0
2, 17100, Note_on_c, 0, 62, 100
2, 17135, Note_on_c, 0, 62, 0
2, 17139, Note_on_c, 0, 65, 100
2, 17175, Note_on_c, 0, 65, 0
2, 17179, Note_on_c, 0, 60, 100
2, 17214, Note_on_c, 0, 60, 0
2, 17220, Note_on_c, 0, 62, 100
2, 17255, Note_on_c, 0, 62, 0
2, 17259, Note_on_c, 0, 58, 100
2, 17295, Note_on_c, 0, 58, 0
2, 17299, Note_on_c, 0, 62, 100
2, 17334, Note_on_c, 0, 62, 0
2, 17340, Note_on_c, 0, 65, 100
2, 17375, Note_on_c, 0, 65, 0
2, 17379, Note_on_c, 0, 70, 100
2, 17415, Note_on_c, 0, 70, 0
2, 17419, Note_on_c, 0, 60, 100
2, 17454, Note_on_c, 0, 60, 0
2, 17460, Note_on_c, 0, 58, 100
2, 17658, Note_on_c, 0, 58, 0
2, 17670, Note_on_c, 0, 67, 100
2, 17696, Note_on_c, 0, 67, 0
2, 17700, Note_on_c, 0, 58, 100
2, 17778, Note_on_c, 0, 58, 0
2, 17790, Note_on_c, 0, 67, 100
2, 17816, Note_on_c, 0, 67, 0
2, 17820, Note_on_c, 0, 58, 100
2, 17833, Note_on_c, 0, 58, 0
2, 17835, Note_on_c, 0, 60, 100
2, 17848, Note_on_c, 0, 60, 0
2, 17850, Note_on_c, 0, 58, 100
2, 17863, Note_on_c, 0, 58, 0
2, 17865, Note_on_c, 0, 60, 100
2, 17878, Note_on_c, 0, 60, 0
2, 17880, Note_on_c, 0, 58, 100
2, 17893, Note_on_c, 0, 58, 0
2, 17895, Note_on_c, 0, 60, 100
2, 17908, Note_on_c, 0, 60, 0
2, 17910, Note_on_c, 0, 58, 100
2, 17923, Note_on_c, 0, 58, 0
2, 17925, Note_on_c, 0, 60, 100
2, 17938, Note_on_c, 0, 60, 0
2, 17940, Note_on_c, 0, 58, 100
2, 18018, Note_on_c, 0, 58, 0
2, 18030, Note_on_c, 0, 58, 100
2, 18056, Note_on_c, 0, 58, 0
2, 18060, Note_on_c, 0, 67, 100
2, 18095, Note_on_c, 0, 67, 0
2, 18099, Note_on_c, 0, 57, 100
2, 18135, Note_on_c, 0, 57, 0
2, 18139, Note_on_c, 0, 58, 100
2, 18174, Note_on_c, 0, 58, 0
2, 18180, Note_on_c, 0, 57, 100
2, 18215, Note_on_c, 0, 57, 0
2, 18219, Note_on_c, 0, 60, 100
2, 18255, Note_on_c, 0, 60, 0
2, 18259, Note_on_c, 0, 58, 100
2, 18294, Note_on_c, 0, 58, 0
2, 18300, Note_on_c, 0, 60, 100
2, 18335, Note_on_c, 0, 60, 0
2, 18339, Note_on_c, 0, 65, 100
2, 18375, Note_on_c, 0, 65, 0
2, 18379, Note_on_c, 0, 64, 100
2, 18414, Note_on_c, 0, 64, 0
2, 18420, Note_on_c, 0, 70, 100
2, 18455, Note_on_c, 0, 70, 0
2, 18459, Note_on_c, 0, 69, 100
2, 18495, Note_on_c, 0, 69, 0
2, 18499, Note_on_c, 0, 67, 100
2, 18534, Note_on_c, 0, 67, 0
2, 18540, Note_on_c, 0, 65, 100
2, 18575, Note_on_c, 0, 65, 0
2, 18579, Note_on_c, 0, 69, 100
2, 18615, Note_on_c, 0, 69, 0
2, 18619, Note_on_c, 0, 64, 100
2, 18654, Note_on_c, 0, 64, 0
2, 18660, Note_on_c, 0, 65, 100
2, 18695, Note_on_c, 0, 65, 0
2, 18699, Note_on_c, 0, 60, 100
2, 18735, Note_on_c, 0, 60, 0
2, 18739, Note_on_c, 0, 65, 100
2, 18774, Note_on_c, 0, 65, 0
2, 18780, Note_on_c, 0, 69, 100
2, 18815, Note_on_c, 0, 69, 0
2, 18819, Note_on_c, 0, 72, 100
2, 18855, Note_on_c, 0, 72, 0
2, 18859, Note_on_c, 0, 64, 100
2, 18894, Note_on_c, 0, 64, 0
2, 18900, Note_on_c, 0, 65, 100
2, 18935, Note_on_c, 0, 65, 0
2, 18939, Note_on_c, 0, 69, 100
2, 18975, Note_on_c, 0, 69, 0
2, 18979, Note_on_c, 0, 64, 100
2, 19014, Note_on_c, 0, 64, 0
2, 19020, Note_on_c, 0, 65, 100
2, 19055, Note_on_c, 0, 65, 0
2, 19059, Note_on_c, 0, 60, 100
2, 19095, Note_on_c, 0, 60, 0
2, 19099, Note_on_c, 0, 65, 100
2, 19134, Note_on_c, 0, 65, 0
2, 19140, Note_on_c, 0, 69, 100
2, 19175, Note_on_c, 0, 69, 0
2, 19179, Note_on_c, 0, 72, 100
2, 19215, Note_on_c, 0, 72, 0
2, 19219, Note_on_c, 0, 64, 100
2, 19254, Note_on_c, 0, 64, 0
2, 19260, Note_on_c, 0, 65, 100
2, 19295, Note_on_c, 0, 65, 0
2, 19299, Note_on_c, 0, 69, 100
2, 19335, Note_on_c, 0, 69, 0
2, 19339, Note_on_c, 0, 64, 100
2, 19374, Note_on_c, 0, 64, 0
2, 19380, Note_on_c, 0, 65, 100
2, 19415, Note_on_c, 0, 65, 0
2, 19419, Note_on_c, 0, 60, 100
2, 19455, Note_on_c, 0, 60, 0
2, 19459, Note_on_c, 0, 65, 100
2, 19494, Note_on_c, 0, 65, 0
2, 19500, Note_on_c, 0, 69, 100
2, 19535, Note_on_c, 0, 69, 0
2, 19539, Note_on_c, 0, 72, 100
2, 19575, Note_on_c, 0, 72, 0
2, 19579, Note_on_c, 0, 64, 100
2, 19614, Note_on_c, 0, 64, 0
2, 19620, Note_on_c, 0, 62, 100
2, 19655, Note_on_c, 0, 62, 0
2, 19659, Note_on_c, 0, 70, 100
2, 19695, Note_on_c, 0, 70, 0
2, 19699, Note_on_c, 0, 67, 100
2, 19734, Note_on_c, 0, 67, 0
2, 19740, Note_on_c, 0, 64, 100
2, 19766, Note_on_c, 0, 64, 0
2, 19770, Note_on_c, 0, 65, 100
2, 19783, Note_on_c, 0, 65, 0
2, 19785, Note_on_c, 0, 64, 100
2, 19798, Note_on_c, 0, 64, 0
2, 19800, Note_on_c, 0, 65, 100
2, 19813, Note_on_c, 0, 65, 0
2, 19815, Note_on_c, 0, 64, 100
2, 19828, Note_on_c, 0, 64, 0
2, 19830, Note_on_c, 0, 65, 100
2, 19843, Note_on_c, 0, 65, 0
2, 19845, Note_on_c, 0, 64, 100
2, 19858, Note_on_c, 0, 64, 0
2, 19860, Note_on_c, 0, 65, 100
2, 19873, Note_on_c, 0, 65, 0
2, 19875, Note_on_c, 0, 64, 100
2, 19888, Note_on_c, 0, 64, 0
2, 19920, Note_on_c, 0, 65, 100
2, 19972, Note_on_c, 0, 65, 0
2, 19980, Note_on_c, 0, 57, 100
2, 19980, Note_on_c, 0, 60, 100
2, 19980, Note_on_c, 0, 65, 100
2, 20205, Note_on_c, 0, 65, 0
2, 20205, Note_on_c, 0, 60, 0
2, 20205, Note_on_c, 0, 57, 0
2, 20220, Program_c, 0, 0
2, 20280, Note_on_c, 0, 65, 100
2, 20332, Note_on_c, 0, 65, 0
2, 20340, Note_on_c, 0, 65, 100
2, 20375, Note_on_c, 0, 65, 0
2, 20379, Note_on_c, 0, 69, 100
2, 20415, Note_on_c, 0, 69, 0
2, 20419, Note_on_c, 0, 64, 100
2, 20454, Note_on_c, 0, 64, 0
2, 20460, Note_on_c, 0, 65, 100
2, 20495, Note_on_c, 0, 65, 0
2, 20499, Note_on_c, 0, 60, 100
2, 20535, Note_on_c, 0, 60, 0
2, 20539, Note_on_c, 0, 65, 100
2, 20574, Note_on_c, 0, 65, 0
2, 20580, Note_on_c, 0, 69, 100
2, 20615, Note_on_c, 0, 69, 0
2, 20619, Note_on_c, 0, 72, 100
2, 20655, Note_on_c, 0, 72, 0
2, 20659, Note_on_c, 0, 67, 100
2, 20694, Note_on_c, 0, 67, 0
2, 20700, Note_on_c, 0, 69, 100
2, 20735, Note_on_c, 0, 69, 0
2, 20739, Note_on_c, 0, 72, 100
2, 20775, Note_on_c, 0, 72, 0
2, 20779, Note_on_c, 0, 67, 100
2, 20814, Note_on_c, 0, 67, 0
2, 20820, Note_on_c, 0, 69, 100
2, 20855, Note_on_c, 0, 69, 0
2, 20859, Note_on_c, 0, 66, 100
2, 20895, Note_on_c, 0, 66, 0
2, 20899, Note_on_c, 0, 69, 100
2, 20934, Note_on_c, 0, 69, 0
2, 20940, Note_on_c, 0, 72, 100
2, 20975, Note_on_c, 0, 72, 0
2, 20979, Note_on_c, 0, 75, 100
2, 21015, Note_on_c, 0, 75, 0
2, 21019, Note_on_c, 0, 70, 100
2, 21054, Note_on_c, 0, 70, 0
2, 21060, Note_on_c, 0, 72, 100
2, 21095, Note_on_c, 0, 72, 0
2, 21099, Note_on_c, 0, 75, 100
2, 21135, Note_on_c, 0, 75, 0
2, 21139, Note_on_c, 0, 70, 100
2, 21174, Note_on_c, 0, 70, 0
2, 21180, Note_on_c, 0, 72, 100
2, 21215, Note_on_c, 0, 72, 0
2, 21219, Note_on_c, 0, 69, 100
2, 21255, Note_on_c, 0, 69, 0
2, 21259, Note_on_c, 0, 72, 100
2, 21294, Note_on_c, 0, 72, 0
2, 21300, Note_on_c, 0, 78, 100
2, 21335, Note_on_c, 0, 78, 0
2, 21339, Note_on_c, 0, 81, 100
2, 21375, Note_on_c, 0, 81, 0
2, 21379, Note_on_c, 0, 74, 100
2, 21414, Note_on_c, 0, 74, 0
2, 21420, Note_on_c, 0, 82, 100
2, 21455, Note_on_c, 0, 82, 0
2, 21459, Note_on_c, 0, 84, 100
2, 21495, Note_on_c, 0, 84, 0
2, 21499, Note_on_c, 0, 75, 100
2, 21534, Note_on_c, 0, 75, 0
2, 21540, Note_on_c, 0, 81, 100
2, 21575, Note_on_c, 0, 81, 0
2, 21579, Note_on_c, 0, 82, 100
2, 21615, Note_on_c, 0, 82, 0
2, 21619, Note_on_c, 0, 74, 100
2, 21654, Note_on_c, 0, 74, 0
2, 21660, Note_on_c, 0, 79, 100
2, 21695, Note_on_c, 0, 79, 0
2, 21699, Note_on_c, 0, 81, 100
2, 21735, Note_on_c, 0, 81, 0
2, 21739, Note_on_c, 0, 72, 100
2, 21774, Note_on_c, 0, 72, 0
2, 21780, Note_on_c, 0, 78, 100
2, 21793, Note_on_c, 0, 78, 0
2, 21795, Note_on_c, 0, 79, 100
2, 21808, Note_on_c, 0, 79, 0
2, 21810, Note_on_c, 0, 78, 100
2, 21823, Note_on_c, 0, 78, 0
2, 21825, Note_on_c, 0, 79, 100
2, 21838, Note_on_c, 0, 79, 0
2, 21840, Note_on_c, 0, 78, 100
2, 21853, Note_on_c, 0, 78, 0
2, 21855, Note_on_c, 0, 79, 100
2, 21868, Note_on_c, 0, 79, 0
2, 21870, Note_on_c, 0, 78, 100
2, 21883, Note_on_c, 0, 78, 0
2, 21885, Note_on_c, 0, 79, 100
2, 21898, Note_on_c, 0, 79, 0
2, 21900, Note_on_c, 0, 78, 100
2, 21935, Note_on_c, 0, 78, 0
2, 21939, Note_on_c, 0, 74, 100
2, 21975, Note_on_c, 0, 74, 0
2, 21979, Note_on_c, 0, 78, 100
2, 22014, Note_on_c, 0, 78, 0
2, 22020, Note_on_c, 0, 81, 100
2, 22055, Note_on_c, 0, 81, 0
2, 22059, Note_on_c, 0, 74, 100
2, 22095, Note_on_c, 0, 74, 0
2, 22099, Note_on_c, 0, 72, 100
2, 22134, Note_on_c, 0, 72, 0
2, 22140, Note_on_c, 0, 70, 100
2, 22175, Note_on_c, 0, 70, 0
2, 22179, Note_on_c, 0, 74, 100
2, 22215, Note_on_c, 0, 74, 0
2, 22219, Note_on_c, 0, 69, 100
2, 22254, Note_on_c, 0, 69, 0
2, 22260, Note_on_c, 0, 70, 100
2, 22295, Note_on_c, 0, 70, 0
2, 22299, Note_on_c, 0, 67, 100
2, 22335, Note_on_c, 0, 67, 0
2, 22339, Note_on_c, 0, 70, 100
2, 22374, Note_on_c, 0, 70, 0
2, 22380, Note_on_c, 0, 74, 100
2, 22415, Note_on_c, 0, 74, 0
2, 22419, Note_on_c, 0, 79, 100
2, 22455, Note_on_c, 0, 79, 0
2, 22459, Note_on_c, 0, 82, 100
2, 22494, Note_on_c, 0, 82, 0
2, 22500, Note_on_c, 0, 75, 100
2, 22655, Note_on_c, 0, 75, 0
2, 22659, Note_on_c, 0, 72, 100
2, 22695, Note_on_c, 0, 72, 0
2, 22699, Note_on_c, 0, 75, 100
2, 22734, Note_on_c, 0, 75, 0
2, 22740, Note_on_c, 0, 79, 100
2, 22775, Note_on_c, 0, 79, 0
2, 22779, Note_on_c, 0, 72, 100
2, 22815, Note_on_c, 0, 72, 0
2, 22819, Note_on_c, 0, 70, 100
2, 22854, Note_on_c, 0, 70, 0
2, 22860, Note_on_c, 0, 69, 100
2, 22895, Note_on_c, 0, 69, 0
2, 22899, Note_on_c, 0, 72, 100
2, 22935, Note_on_c, 0, 72, 0
2, 22939, Note_on_c, 0, 67, 100
2, 22974, Note_on_c, 0, 67, 0
2, 22980, Note_on_c, 0, 69, 100
2, 23015, Note_on_c, 0, 69, 0
2, 23019, Note_on_c, 0, 65, 100
2, 23055, Note_on_c, 0, 65, 0
2, 23059, Note_on_c, 0, 69, 100
2, 23094, Note_on_c, 0, 69, 0
2, 23100, Note_on_c, 0, 72, 100
2, 23135, Note_on_c, 0, 72, 0
2, 23139, Note_on_c, 0, 77, 100
2, 23175, Note_on_c, 0, 77, 0
2, 23179, Note_on_c, 0, 81, 100
2, 23214, Note_on_c, 0, 81, 0
2, 23220, Note_on_c, 0, 74, 100
2, 23375, Note_on_c, 0, 74, 0
2, 23379, Note_on_c, 0, 70, 100
2, 23415, Note_on_c, 0, 70, 0
2, 23419, Note_on_c, 0, 74, 100
2, 23454, Note_on_c, 0, 74, 0
2, 23460, Note_on_c, 0, 77, 100
2, 23495, Note_on_c, 0, 77, 0
2, 23499, Note_on_c, 0, 70, 100
2, 23535, Note_on_c, 0, 70, 0
2, 23539, Note_on_c, 0, 68, 100
2, 23574, Note_on_c, 0, 68, 0
2, 23580, Note_on_c, 0, 67, 100
2, 23658, Note_on_c, 0, 67, 0
2, 23670, Note_on_c, 0, 77, 100
2, 23696, Note_on_c, 0, 77, 0
2, 23700, Note_on_c, 0, 75, 100
2, 23778, Note_on_c, 0, 75, 0
2, 23790, Note_on_c, 0, 82, 100
2, 23816, Note_on_c, 0, 82, 0
2, 23820, Note_on_c, 0, 80, 100
2, 23898, Note_on_c, 0, 80, 0
2, 23910, Note_on_c, 0, 74, 100
2, 23936, Note_on_c, 0, 74, 0
2, 23940, Note_on_c, 0, 63, 100
2, 24018, Note_on_c, 0, 63, 0
2, 24030, Note_on_c, 0, 74, 100
2, 24056, Note_on_c, 0, 74, 0
2, 24060, Note_on_c, 0, 72, 100
2, 24138, Note_on_c, 0, 72, 0
2, 24150, Note_on_c, 0, 79, 100
2, 24176, Note_on_c, 0, 79, 0
2, 24180, Note_on_c, 0, 77, 100
2, 24258, Note_on_c, 0, 77, 0
2, 24270, Note_on_c, 0, 71, 100
2, 24296, Note_on_c, 0, 71, 0
2, 24300, Note_on_c, 0, 60, 100
2, 24378, Note_on_c, 0, 60, 0
2, 24390, Note_on_c, 0, 70, 100
2, 24416, Note_on_c, 0, 70, 0
2, 24420, Note_on_c, 0, 69, 100
2, 24498, Note_on_c, 0, 69, 0
2, 24510, Note_on_c, 0, 75, 100
2, 24536, Note_on_c, 0, 75, 0
2, 24540, Note_on_c, 0, 74, 100
2, 24618, Note_on_c, 0, 74, 0
2, 24630, Note_on_c, 0, 67, 100
2, 24656, Note_on_c, 0, 67, 0
2, 24660, Note_on_c, 0, 66, 100
2, 24695, Note_on_c, 0, 66, 0
2, 24699, Note_on_c, 0, 69, 100
2, 24735, Note_on_c, 0, 69, 0
2, 24739, Note_on_c, 0, 72, 100
2, 24774, Note_on_c, 0, 72, 0
2, 24780, Note_on_c, 0, 75, 100
2, 24815, Note_on_c, 0, 75, 0
2, 24819, Note_on_c, 0, 74, 100
2, 24855, Note_on_c, 0, 74, 0
2, 24859, Note_on_c, 0, 72, 100
2, 24894, Note_on_c, 0, 72, 0
2, 24900, Note_on_c, 0, 81, 100
2, 24952, Note_on_c, 0, 81, 0
2, 25020, Note_on_c, 0, 62, 100
2, 25055, Note_on_c, 0, 62, 0
2, 25059, Note_on_c, 0, 67, 100
2, 25095, Note_on_c, 0, 67, 0
2, 25099, Note_on_c, 0, 70, 100
2, 25134, Note_on_c, 0, 70, 0
2, 25140, Note_on_c, 0, 74, 100
2, 25175, Note_on_c, 0, 74, 0
2, 25179, Note_on_c, 0, 72, 100
2, 25215, Note_on_c, 0, 72, 0
2, 25219, Note_on_c, 0, 70, 100
2, 25254, Note_on_c, 0, 70, 0
2, 25260, Note_on_c, 0, 82, 100
2, 25312, Note_on_c, 0, 82, 0
2, 25380, Note_on_c, 0, 61, 100
2, 25415, Note_on_c, 0, 61, 0
2, 25419, Note_on_c, 0, 64, 100
2, 25455, Note_on_c, 0, 64, 0
2, 25459, Note_on_c, 0, 67, 100
2, 25494, Note_on_c, 0, 67, 0
2, 25500, Note_on_c, 0, 70, 100
2, 25535, Note_on_c, 0, 70, 0
2, 25539, Note_on_c, 0, 69, 100
2, 25575, Note_on_c, 0, 69, 0
2, 25579, Note_on_c, 0, 67, 100
2, 25614, Note_on_c, 0, 67, 0
2, 25620, Note_on_c, 0, 76, 100
2, 25698, Note_on_c, 0, 76, 0
2, 25710, Note_on_c, 0, 67, 100
2, 25736, Note_on_c, 0, 67, 0
2, 25740, Note_on_c, 0, 66, 100
2, 25775, Note_on_c, 0, 66, 0
2, 25779, Note_on_c, 0, 67, 100
2, 25815, Note_on_c, 0, 67, 0
2, 25819, Note_on_c, 0, 69, 100
2, 25854, Note_on_c, 0, 69, 0
2, 25860, Note_on_c, 0, 62, 100
2, 25895, Note_on_c, 0, 62, 0
2, 25899, Note_on_c, 0, 66, 100
2, 25935, Note_on_c, 0, 66, 0
2, 25939, Note_on_c, 0, 69, 100
2, 25974, Note_on_c, 0, 69, 0
2, 25980, Note_on_c, 0, 72, 100
2, 26015, Note_on_c, 0, 72, 0
2, 26019, Note_on_c, 0, 70, 100
2, 26055, Note_on_c, 0, 70, 0
2, 26059, Note_on_c, 0, 69, 100
2, 26094, Note_on_c, 0, 69, 0
2, 26100, Note_on_c, 0, 79, 100
2, 26135, Note_on_c, 0, 79, 0
2, 26139, Note_on_c, 0, 77, 100
2, 26175, Note_on_c, 0, 77, 0
2, 26179, Note_on_c, 0, 75, 100
2, 26214, Note_on_c, 0, 75, 0
2, 26220, Note_on_c, 0, 74, 100
2, 26255, Note_on_c, 0, 74, 0
2, 26259, Note_on_c, 0, 72, 100
2, 26295, Note_on_c, 0, 72, 0
2, 26299, Note_on_c, 0, 70, 100
2, 26334, Note_on_c, 0, 70, 0
2, 26340, Note_on_c, 0, 69, 100
2, 26375, Note_on_c, 0, 69, 0
2, 26379, Note_on_c, 0, 72, 100
2, 26415, Note_on_c, 0, 72, 0
2, 26419, Note_on_c, 0, 66, 100
2, 26454, Note_on_c, 0, 66, 0
2, 26460, Note_on_c, 0, 67, 100
2, 26625, Note_on_c, 0, 67, 0
2, 26670, Note_on_c, 0, 70, 100
2, 26696, Note_on_c, 0, 70, 0
2, 26700, Note_on_c, 0, 62, 100
2, 26778, Note_on_c, 0, 62, 0
2, 26790, Note_on_c, 0, 63, 100
2, 26816, Note_on_c, 0, 63, 0
2, 26820, Note_on_c, 0, 65, 100
2, 26855, Note_on_c, 0, 65, 0
2, 26859, Note_on_c, 0, 68, 100
2, 26895, Note_on_c, 0, 68, 0
2, 26899, Note_on_c, 0, 63, 100
2, 26934, Note_on_c, 0, 63, 0
2, 26940, Note_on_c, 0, 65, 100
2, 26975, Note_on_c, 0, 65, 0
2, 26979, Note_on_c, 0, 68, 100
2, 27015, Note_on_c, 0, 68, 0
2, 27019, Note_on_c, 0, 74, 100
2, 27054, Note_on_c, 0, 74, 0
2, 27060, Note_on_c, 0, 77, 100
2, 27138, Note_on_c, 0, 77, 0
2, 27150, Note_on_c, 0, 68, 100
2, 27176, Note_on_c, 0, 68, 0
2, 27180, Note_on_c, 0, 67, 100
2, 27215, Note_on_c, 0, 67, 0
2, 27219, Note_on_c, 0, 70, 100
2, 27255, Note_on_c, 0, 70, 0
2, 27259, Note_on_c, 0, 65, 100
2, 27294, Note_on_c, 0, 65, 0
2, 27300, Note_on_c, 0, 67, 100
2, 27335, Note_on_c, 0, 67, 0
2, 27339, Note_on_c, 0, 70, 100
2, 27375, Note_on_c, 0, 70, 0
2, 27379, Note_on_c, 0, 75, 100
2, 27414, Note_on_c, 0, 75, 0
2, 27420, Note_on_c, 0, 79, 100
2, 27575, Note_on_c, 0, 79, 0
2, 27579, Note_on_c, 0, 77, 100
2, 27615, Note_on_c, 0, 77, 0
2, 27619, Note_on_c, 0, 75, 100
2, 27654, Note_on_c, 0, 75, 0
2, 27660, Note_on_c, 0, 74, 100
2, 27695, Note_on_c, 0, 74, 0
2, 27699, Note_on_c, 0, 75, 100
2, 27735, Note_on_c, 0, 75, 0
2, 27739, Note_on_c, 0, 77, 100
2, 27774, Note_on_c, 0, 77, 0
2, 27780, Note_on_c, 0, 67, 100
2, 27815, Note_on_c, 0, 67, 0
2, 27819, Note_on_c, 0, 69, 100
2, 27855, Note_on_c, 0, 69, 0
2, 27859, Note_on_c, 0, 70, 100
2, 27894, Note_on_c, 0, 70, 0
2, 27900, Note_on_c, 0, 70, 100
2, 27926, Note_on_c, 0, 70, 0
2, 27930, Note_on_c, 0, 69, 100
2, 27943, Note_on_c, 0, 69, 0
2, 27945, Note_on_c, 0, 70, 100
2, 27958, Note_on_c, 0, 70, 0
2, 27960, Note_on_c, 0, 69, 100
2, 27973, Note_on_c, 0, 69, 0
2, 27975, Note_on_c, 0, 70, 100
2, 27988, Note_on_c, 0, 70, 0
2, 27990, Note_on_c, 0, 69, 100
2, 28003, Note_on_c, 0, 69, 0
2, 28005, Note_on_c, 0, 70, 100
2, 28018, Note_on_c, 0, 70, 0
2, 28020, Note_on_c, 0, 69, 100
2, 28033, Note_on_c, 0, 69, 0
2, 28035, Note_on_c, 0, 70, 100
2, 28048, Note_on_c, 0, 70, 0
2, 28050, Note_on_c, 0, 69, 100
2, 28076, Note_on_c, 0, 69, 0
2, 28110, Note_on_c, 0, 69, 100
2, 28136, Note_on_c, 0, 69, 0
2, 28140, Note_on_c, 0, 69, 100
2, 28153, Note_on_c, 0, 69, 0
2, 28155, Note_on_c, 0, 70, 100
2, 28168, Note_on_c, 0, 70, 0
2, 28170, Note_on_c, 0, 69, 100
2, 28183, Note_on_c, 0, 69, 0
2, 28185, Note_on_c, 0, 70, 100
2, 28198, Note_on_c, 0, 70, 0
2, 28200, Note_on_c, 0, 69, 100
2, 28213, Note_on_c, 0, 69, 0
2, 28215, Note_on_c, 0, 70, 100
2, 28228, Note_on_c, 0, 70, 0
2, 28230, Note_on_c, 0, 67, 100
2, 28243, Note_on_c, 0, 67, 0
2, 28245, Note_on_c, 0, 69, 100
2, 28258, Note_on_c, 0, 69, 0
2, 28260, Note_on_c, 0, 70, 100
2, 28295, Note_on_c, 0, 70, 0
2, 28299, Note_on_c, 0, 65, 100
2, 28335, Note_on_c, 0, 65, 0
2, 28339, Note_on_c, 0, 62, 100
2, 28374, Note_on_c, 0, 62, 0
2, 28380, Note_on_c, 0, 58, 100
2, 28458, Note_on_c, 0, 58, 0
2, 28470, Note_on_c, 0, 70, 100
2, 28496, Note_on_c, 0, 70, 0
2, 28500, Note_on_c, 0, 70, 100
2, 28513, Note_on_c, 0, 70, 0
2, 28515, Note_on_c, 0, 72, 100
2, 28528, Note_on_c, 0, 72, 0
2, 28530, Note_on_c, 0, 70, 100
2, 28543, Note_on_c, 0, 70, 0
2, 28545, Note_on_c, 0, 72, 100
2, 28558, Note_on_c, 0, 72, 0
2, 28560, Note_on_c, 0, 70, 100
2, 28573, Note_on_c, 0, 70, 0
2, 28575, Note_on_c, 0, 72, 100
2, 28588, Note_on_c, 0, 72, 0
2, 28590, Note_on_c, 0, 69, 100
2, 28603, Note_on_c, 0, 69, 0
2, 28605, Note_on_c, 0, 70, 100
2, 28618, Note_on_c, 0, 70, 0
2, 28620, Note_on_c, 0, 72, 100
2, 28655, Note_on_c, 0, 72, 0
2, 28659, Note_on_c, 0, 69, 100
2, 28695, Note_on_c, 0, 69, 0
2, 28699, Note_on_c, 0, 63, 100
2, 28734, Note_on_c, 0, 63, 0
2, 28740, Note_on_c, 0, 60, 100
2, 28818, Note_on_c, 0, 60, 0
2, 28830, Note_on_c, 0, 72, 100
2, 28856, Note_on_c, 0, 72, 0
2, 28860, Note_on_c, 0, 72, 100
2, 28873, Note_on_c, 0, 72, 0
2, 28875, Note_on_c, 0, 74, 100
2, 28888, Note_on_c, 0, 74, 0
2, 28890, Note_on_c, 0, 72, 100
2, 28903, Note_on_c, 0, 72, 0
2, 28905, Note_on_c, 0, 74, 100
2, 28918, Note_on_c, 0, 74, 0
2, 28920, Note_on_c, 0, 72, 100
2, 28933, Note_on_c, 0, 72, 0
2, 28935, Note_on_c, 0, 74, 100
2, 28948, Note_on_c, 0, 74, 0
2, 28950, Note_on_c, 0, 70, 100
2, 28963, Note_on_c, 0, 70, 0
2, 28965, Note_on_c, 0, 72, 100
2, 28978, Note_on_c, 0, 72, 0
2, 28980, Note_on_c, 0, 73, 100
2, 29015, Note_on_c, 0, 73, 0
2, 29019, Note_on_c, 0, 69, 100
2, 29055, Note_on_c, 0, 69, 0
2, 29059, Note_on_c, 0, 70, 100
2, 29094, Note_on_c, 0, 70, 0
2, 29100, Note_on_c, 0, 67, 100
2, 29135, Note_on_c, 0, 67, 0
2, 29139, Note_on_c, 0, 70, 100
2, 29175, Note_on_c, 0, 70, 0
2, 29179, Note_on_c, 0, 73, 100
2, 29214, Note_on_c, 0, 73, 0
2, 29220, Note_on_c, 0, 76, 100
2, 29255, Note_on_c, 0, 76, 0
2, 29259, Note_on_c, 0, 77, 100
2, 29295, Note_on_c, 0, 77, 0
2, 29299, Note_on_c, 0, 70, 100
2, 29334, Note_on_c, 0, 70, 0
2, 29340, Note_on_c, 0, 69, 100
2, 29348, Note_on_c, 0, 69, 0
2, 29349, Note_on_c, 0, 70, 100
2, 29358, Note_on_c, 0, 70, 0
2, 29359, Note_on_c, 0, 69, 100
2, 29368, Note_on_c, 0, 69, 0
2, 29369, Note_on_c, 0, 70, 100
2, 29378, Note_on_c, 0, 70, 0
2, 29379, Note_on_c, 0, 67, 100
2, 29414, Note_on_c, 0, 67, 0
2, 29419, Note_on_c, 0, 65, 100
2, 29454, Note_on_c, 0, 65, 0
2, 29460, Note_on_c, 0, 75, 100
2, 29615, Note_on_c, 0, 75, 0
2, 29619, Note_on_c, 0, 74, 100
2, 29655, Note_on_c, 0, 74, 0
2, 29659, Note_on_c, 0, 72, 100
2, 29694, Note_on_c, 0, 72, 0
2, 29700, Note_on_c, 0, 73, 100
2, 29735, Note_on_c, 0, 73, 0
2, 29739, Note_on_c, 0, 79, 100
2, 29775, Note_on_c, 0, 79, 0
2, 29779, Note_on_c, 0, 72, 100
2, 29814, Note_on_c, 0, 72, 0
2, 29820, Note_on_c, 0, 73, 100
2, 29855, Note_on_c, 0, 73, 0
2, 29859, Note_on_c, 0, 69, 100
2, 29895, Note_on_c, 0, 69, 0
2, 29899, Note_on_c, 0, 70, 100
2, 29934, Note_on_c, 0, 70, 0
2, 29940, Note_on_c, 0, 63, 100
2, 29948, Note_on_c, 0, 63, 0
2, 29949, Note_on_c, 0, 65, 100
2, 29958, Note_on_c, 0, 65, 0
2, 29959, Note_on_c, 0, 63, 100
2, 29968, Note_on_c, 0, 63, 0
2, 29969, Note_on_c, 0, 65, 100
2, 29978, Note_on_c, 0, 65, 0
2, 29979, Note_on_c, 0, 62, 100
2, 30014, Note_on_c, 0, 62, 0
2, 30019, Note_on_c, 0, 63, 100
2, 30054, Note_on_c, 0, 63, 0
2, 30060, Note_on_c, 0, 62, 100
2, 30095, Note_on_c, 0, 62, 0
2, 30099, Note_on_c, 0, 65, 100
2, 30135, Note_on_c, 0, 65, 0
2, 30139, Note_on_c, 0, 60, 100
2, 30174, Note_on_c, 0, 60, 0
2, 30180, Note_on_c, 0, 62, 100
2, 30215, Note_on_c, 0, 62, 0
2, 30219, Note_on_c, 0, 58, 100
2, 30255, Note_on_c, 0, 58, 0
2, 30259, Note_on_c, 0, 62, 100
2, 30294, Note_on_c, 0, 62, 0
2, 30300, Note_on_c, 0, 65, 100
2, 30335, Note_on_c, 0, 65, 0
2, 30339, Note_on_c, 0, 70, 100
2, 30375, Note_on_c, 0, 70, 0
2, 30379, Note_on_c, 0, 63, 100
2, 30414, Note_on_c, 0, 63, 0
2, 30420, Note_on_c, 0, 65, 100
2, 30455, Note_on_c, 0, 65, 0
2, 30459, Note_on_c, 0, 70, 100
2, 30495, Note_on_c, 0, 70, 0
2, 30499, Note_on_c, 0, 63, 100
2, 30534, Note_on_c, 0, 63, 0
2, 30540, Note_on_c, 0, 65, 100
2, 30575, Note_on_c, 0, 65, 0
2, 30579, Note_on_c, 0, 62, 100
2, 30615, Note_on_c, 0, 62, 0
2, 30619, Note_on_c, 0, 65, 100
2, 30654, Note_on_c, 0, 65, 0
2, 30660, Note_on_c, 0, 70, 100
2, 30695, Note_on_c, 0, 70, 0
2, 30699, Note_on_c, 0, 74, 100
2, 30735, Note_on_c, 0, 74, 0
2, 30739, Note_on_c, 0, 69, 100
2, 30774, Note_on_c, 0, 69, 0
2, 30780, Note_on_c, 0, 70, 100
2, 30815, Note_on_c, 0, 70, 0
2, 30819, Note_on_c, 0, 74, 100
2, 30855, Note_on_c, 0, 74, 0
2, 30859, Note_on_c, 0, 69, 100
2, 30894, Note_on_c, 0, 69, 0
2, 30900, Note_on_c, 0, 70, 100
2, 30935, Note_on_c, 0, 70, 0
2, 30939, Note_on_c, 0, 65, 100
2, 30975, Note_on_c, 0, 65, 0
2, 30979, Note_on_c, 0, 70, 100
2, 31014, Note_on_c, 0, 70, 0
2, 31020, Note_on_c, 0, 74, 100
2, 31055, Note_on_c, 0, 74, 0
2, 31059, Note_on_c, 0, 77, 100
2, 31095, Note_on_c, 0, 77, 0
2, 31099, Note_on_c, 0, 68, 100
2, 31134, Note_on_c, 0, 68, 0
2, 31140, Note_on_c, 0, 67, 100
2, 31175, Note_on_c, 0, 67, 0
2, 31179, Note_on_c, 0, 75, 100
2, 31215, Note_on_c, 0, 75, 0
2, 31219, Note_on_c, 0, 72, 100
2, 31254, Note_on_c, 0, 72, 0
2, 31260, Note_on_c, 0, 69, 100
2, 31286, Note_on_c, 0, 69, 0
2, 31290, Note_on_c, 0, 70, 100
2, 31303, Note_on_c, 0, 70, 0
2, 31305, Note_on_c, 0, 69, 100
2, 31318, Note_on_c, 0, 69, 0
2, 31320, Note_on_c, 0, 70, 100
2, 31333, Note_on_c, 0, 70, 0
2, 31335, Note_on_c, 0, 69, 100
2, 31348, Note_on_c, 0, 69, 0
2, 31350, Note_on_c, 0, 70, 100
2, 31363, Note_on_c, 0, 70, 0
2, 31365, Note_on_c, 0, 69, 100
2, 31378, Note_on_c, 0, 69, 0
2, 31380, Note_on_c, 0, 70, 100
2, 31393, Note_on_c, 0, 70, 0
2, 31395, Note_on_c, 0, 69, 100
2, 31408, Note_on_c, 0, 69, 0
2, 31440, Note_on_c, 0, 70, 100
2, 31492, Note_on_c, 0, 70, 0
2, 31500, Note_on_c, 0, 62, 100
2, 31500, Note_on_c, 0, 65, 100
2, 31500, Note_on_c, 0, 70, 100
2, 31725, Note_on_c, 0, 70, 0
2, 31725, Note_on_c, 0, 65, 0
2, 31725, Note_on_c, 0, 62, 0
2, 31790, Program_c, 0, 3
2, 31810, Note_on_c, 0, 65, 100
2, 31851, Note_on_c, 0, 65, 0
2, 31860, Note_on_c, 0, 65, 100
2, 31895, Note_on_c, 0, 65, 0
2, 31899, Note_on_c, 0, 69, 100
2, 31935, Note_on_c, 0, 69, 0
2, 31939, Note_on_c, 0, 64, 100
2, 31974, Note_on_c, 0, 64, 0
2, 31980, Note_on_c, 0, 65, 100
2, 32015, Note_on_c, 0, 65, 0
2, 32019, Note_on_c, 0, 60, 100
2, 32055, Note_on_c, 0, 60, 0
2, 32059, Note_on_c, 0, 65, 100
2, 32094, Note_on_c, 0, 65, 0
2, 32100, Note_on_c, 0, 69, 100
2, 32135, Note_on_c, 0, 69, 0
2, 32139, Note_on_c, 0, 72, 100
2, 32175, Note_on_c, 0, 72, 0
2, 32179, Note_on_c, 0, 67, 100
2, 32214, Note_on_c, 0, 67, 0
2, 32220, Note_on_c, 0, 69, 100
2, 32255, Note_on_c, 0, 69, 0
2, 32259, Note_on_c, 0, 72, 100
2, 32295, Note_on_c, 0, 72, 0
2, 32299, Note_on_c, 0, 67, 100
2, 32334, Note_on_c, 0, 67, 0
2, 32340, Note_on_c, 0, 69, 100
2, 32375, Note_on_c, 0, 69, 0
2, 32379, Note_on_c, 0, 66, 100
2, 32415, Note_on_c, 0, 66, 0
2, 32419, Note_on_c, 0, 69, 100
2, 32454, Note_on_c, 0, 69, 0
2, 32460, Note_on_c, 0, 72, 100
2, 32495, Note_on_c, 0, 72, 0
2, 32499, Note_on_c, 0, 75, 100
2, 32535, Note_on_c, 0, 75, 0
2, 32539, Note_on_c, 0, 70, 100
2, 32574, Note_on_c, 0, 70, 0
2, 32580, Note_on_c, 0, 72, 100
2, 32615, Note_on_c, 0, 72, 0
2, 32619, Note_on_c, 0, 75, 100
2, 32655, Note_on_c, 0, 75, 0
2, 32659, Note_on_c, 0, 70, 100
2, 32694, Note_on_c, 0, 70, 0
2, 32700, Note_on_c, 0, 72, 100
2, 32735, Note_on_c, 0, 72, 0
2, 32739, Note_on_c, 0, 69, 100
2, 32775, Note_on_c, 0, 69, 0
2, 32779, Note_on_c, 0, 72, 100
2, 32814, Note_on_c, 0, 72, 0
2, 32820, Note_on_c, 0, 78, 100
2, 32855, Note_on_c, 0, 78, 0
2, 32859, Note_on_c, 0, 81, 100
2, 32895, Note_on_c, 0, 81, 0
2, 32899, Note_on_c, 0, 74, 100
2, 32934, Note_on_c, 0, 74, 0
2, 32940, Note_on_c, 0, 82, 100
2, 32975, Note_on_c, 0, 82, 0
2, 32979, Note_on_c, 0, 84, 100
2, 33015, Note_on_c, 0, 84, 0
2, 33019, Note_on_c, 0, 75, 100
2, 33054, Note_on_c, 0, 75, 0
2, 33060, Note_on_c, 0, 81, 100
2, 33095, Note_on_c, 0, 81, 0
2, 33099, Note_on_c, 0, 82, 100
2, 33135, Note_on_c, 0, 82, 0
2, 33139, Note_on_c, 0, 74, 100
2, 33174, Note_on_c, 0, 74, 0
2, 33180, Note_on_c, 0, 79, 100
2, 33215, Note_on_c, 0, 79, 0
2, 33219, Note_on_c, 0, 81, 100
2, 33255, Note_on_c, 0, 81, 0
2, 33259, Note_on_c, 0, 72, 100
2, 33294, Note_on_c, 0, 72, 0
2, 33300, Note_on_c, 0, 78, 100
2, 33313, Note_on_c, 0, 78, 0
2, 33315, Note_on_c, 0, 79, 100
2, 33328, Note_on_c, 0, 79, 0
2, 33330, Note_on_c, 0, 78, 100
2, 33343, Note_on_c, 0, 78, 0
2, 33345, Note_on_c, 0, 79, 100
2, 33358, Note_on_c, 0, 79, 0
2, 33360, Note_on_c, 0, 78, 100
2, 33373, Note_on_c, 0, 78, 0
2, 33375, Note_on_c, 0, 79, 100
2, 33388, Note_on_c, 0, 79, 0
2, 33390, Note_on_c, 0, 78, 100
2, 33403, Note_on_c, 0, 78, 0
2, 33405, Note_on_c, 0, 79, 100
2, 33418, Note_on_c, 0, 79, 0
2, 33420, Note_on_c, 0, 78, 100
2, 33455, Note_on_c, 0, 78, 0
2, 33459, Note_on_c, 0, 74, 100
2, 33495, Note_on_c, 0, 74, 0
2, 33499, Note_on_c, 0, 78, 100
2, 33534, Note_on_c, 0, 78, 0
2, 33540, Note_on_c, 0, 81, 100
2, 33575, Note_on_c, 0, 81, 0
2, 33579, Note_on_c, 0, 74, 100
2, 33615, Note_on_c, 0, 74, 0
2, 33619, Note_on_c, 0, 72, 100
2, 33654, Note_on_c, 0, 72, 0
2, 33660, Note_on_c, 0, 70, 100
2, 33695, Note_on_c, 0, 70, 0
2, 33699, Note_on_c, 0, 74, 100
2, 33735, Note_on_c, 0, 74, 0
2, 33739, Note_on_c, 0, 69, 100
2, 33774, Note_on_c, 0, 69, 0
2, 33780, Note_on_c, 0, 70, 100
2, 33815, Note_on_c, 0, 70, 0
2, 33819, Note_on_c, 0, 67, 100
2, 33855, Note_on_c, 0, 67, 0
2, 33859, Note_on_c, 0, 70, 100
2, 33894, Note_on_c, 0, 70, 0
2, 33900, Note_on_c, 0, 74, 100
2, 33935, Note_on_c, 0, 74, 0
2, 33939, Note_on_c, 0, 79, 100
2, 33975, Note_on_c, 0, 79, 0
2, 33979, Note_on_c, 0, 82, 100
2, 34014, Note_on_c, 0, 82, 0
2, 34020, Note_on_c, 0, 75, 100
2, 34175, Note_on_c, 0, 75, 0
2, 34179, Note_on_c, 0, 72, 100
2, 34215, Note_on_c, 0, 72, 0
2, 34219, Note_on_c, 0, 75, 100
2, 34254, Note_on_c, 0, 75, 0
2, 34260, Note_on_c, 0, 79, 100
2, 34295, Note_on_c, 0, 79, 0
2, 34299, Note_on_c, 0, 72, 100
2, 34335, Note_on_c, 0, 72, 0
2, 34339, Note_on_c, 0, 70, 100
2, 34374, Note_on_c, 0, 70, 0
2, 34380, Note_on_c, 0, 69, 100
2, 34415, Note_on_c, 0, 69, 0
2, 34419, Note_on_c, 0, 72, 100
2, 34455, Note_on_c, 0, 72, 0
2, 34459, Note_on_c, 0, 67, 100
2, 34494, Note_on_c, 0, 67, 0
2, 34500, Note_on_c, 0, 69, 100
2, 34535, Note_on_c, 0, 69, 0
2, 34539, Note_on_c, 0, 65, 100
2, 34575, Note_on_c, 0, 65, 0
2, 34579, Note_on_c, 0, 69, 100
2, 34614, Note_on_c, 0, 69, 0
2, 34620, Note_on_c, 0, 72, 100
2, 34655, Note_on_c, 0, 72, 0
2, 34659, Note_on_c, 0, 77, 100
2, 34695, Note_on_c, 0, 77, 0
2, 34699, Note_on_c, 0, 81, 100
2, 34734, Note_on_c, 0, 81, 0
2, 34740, Note_on_c, 0, 74, 100
2, 34895, Note_on_c, 0, 74, 0
2, 34899, Note_on_c, 0, 70, 100
2, 34935, Note_on_c, 0, 70, 0
2, 34939, Note_on_c, 0, 74, 100
2, 34974, Note_on_c, 0, 74, 0
2, 34980, Note_on_c, 0, 77, 100
2, 35015, Note_on_c, 0, 77, 0
2, 35019, Note_on_c, 0, 70, 100
2, 35055, Note_on_c, 0, 70, 0
2, 35059, Note_on_c, 0, 68, 100
2, 35094, Note_on_c, 0, 68, 0
2, 35100, Note_on_c, 0, 67, 100
2, 35178, Note_on_c, 0, 67, 0
2, 35190, Note_on_c, 0, 77, 100
2, 35216, Note_on_c, 0, 77, 0
2, 35220, Note_on_c, 0, 75, 100
2, 35298, Note_on_c, 0, 75, 0
2, 35310, Note_on_c, 0, 82, 100
2, 35336, Note_on_c, 0, 82, 0
2, 35340, Note_on_c, 0, 80, 100
2, 35418, Note_on_c, 0, 80, 0
2, 35430, Note_on_c, 0, 74, 100
2, 35456, Note_on_c, 0, 74, 0
2, 35460, Note_on_c, 0, 63, 100
2, 35538, Note_on_c, 0, 63, 0
2, 35550, Note_on_c, 0, 74, 100
2, 35576, Note_on_c, 0, 74, 0
2, 35580, Note_on_c, 0, 72, 100
2, 35658, Note_on_c, 0, 72, 0
2, 35670, Note_on_c, 0, 79, 100
2, 35696, Note_on_c, 0, 79, 0
2, 35700, Note_on_c, 0, 77, 100
2, 35778, Note_on_c, 0, 77, 0
2, 35790, Note_on_c, 0, 71, 100
2, 35816, Note_on_c, 0, 71, 0
2, 35820, Note_on_c, 0, 60, 100
2, 35898, Note_on_c, 0, 60, 0
2, 35910, Note_on_c, 0, 70, 100
2, 35936, Note_on_c, 0, 70, 0
2, 35940, Note_on_c, 0, 69, 100
2, 36018, Note_on_c, 0, 69, 0
2, 36030, Note_on_c, 0, 75, 100
2, 36056, Note_on_c, 0, 75, 0
2, 36060, Note_on_c, 0, 74, 100
2, 36138, Note_on_c, 0, 74, 0
2, 36150, Note_on_c, 0, 67, 100
2, 36176, Note_on_c, 0, 67, 0
2, 36180, Note_on_c, 0, 66, 100
2, 36215, Note_on_c, 0, 66, 0
2, 36219, Note_on_c, 0, 69, 100
2, 36255, Note_on_c, 0, 69, 0
2, 36259, Note_on_c, 0, 72, 100
2, 36294, Note_on_c, 0, 72, 0
2, 36300, Note_on_c, 0, 75, 100
2, 36335, Note_on_c, 0, 75, 0
2, 36339, Note_on_c, 0, 74, 100
2, 36375, Note_on_c, 0, 74, 0
2, 36379, Note_on_c, 0, 72, 100
2, 36414, Note_on_c, 0, 72, 0
2, 36420, Note_on_c, 0, 81, 100
2, 36472, Note_on_c, 0, 81, 0
2, 36540, Note_on_c, 0, 62, 100
2, 36575, Note_on_c, 0, 62, 0
2, 36579, Note_on_c, 0, 67, 100
2, 36615, Note_on_c, 0, 67, 0
2, 36619, Note_on_c, 0, 70, 100
2, 36654, Note_on_c, 0, 70, 0
2, 36660, Note_on_c, 0, 74, 100
2, 36695, Note_on_c, 0, 74, 0
2, 36699, Note_on_c, 0, 72, 100
2, 36735, Note_on_c, 0, 72, 0
2, 36739, Note_on_c, 0, 70, 100
2, 36774, Note_on_c, 0, 70, 0
2, 36780, Note_on_c, 0, 82, 100
2, 36832, Note_on_c, 0, 82, 0
2, 36900, Note_on_c, 0, 61, 100
2, 36935, Note_on_c, 0, 61, 0
2, 36939, Note_on_c, 0, 64, 100
2, 36975, Note_on_c, 0, 64, 0
2, 36979, Note_on_c, 0, 67, 100
2, 37014, Note_on_c, 0, 67, 0
2, 37020, Note_on_c, 0, 70, 100
2, 37055, Note_on_c, 0, 70, 0
2, 37059, Note_on_c, 0, 69, 100
2, 37095, Note_on_c, 0, 69, 0
2, 37099, Note_on_c, 0, 67, 100
2, 37134, Note_on_c, 0, 67, 0
2, 37140, Note_on_c, 0, 76, 100
2, 37218, Note_on_c, 0, 76, 0
2, 37230, Note_on_c, 0, 67, 100
2, 37256, Note_on_c, 0, 67, 0
2, 37260, Note_on_c, 0, 66, 100
2, 37295, Note_on_c, 0, 66, 0
2, 37299, Note_on_c, 0, 67, 100
2, 37335, Note_on_c, 0, 67, 0
2, 37339, Note_on_c, 0, 69, 100
2, 37374, Note_on_c, 0, 69, 0
2, 37380, Note_on_c, 0, 62, 100
2, 37415, Note_on_c, 0, 62, 0
2, 37419, Note_on_c, 0, 66, 100
2, 37455, Note_on_c, 0, 66, 0
2, 37459, Note_on_c, 0, 69, 100
2, 37494, Note_on_c, 0, 69, 0
2, 37500, Note_on_c, 0, 72, 100
2, 37535, Note_on_c, 0, 72, 0
2, 37539, Note_on_c, 0, 70, 100
2, 37575, Note_on_c, 0, 70, 0
2, 37579, Note_on_c, 0, 69, 100
2, 37614, Note_on_c, 0, 69, 0
2, 37620, Note_on_c, 0, 79, 100
2, 37655, Note_on_c, 0, 79, 0
2, 37659, Note_on_c, 0, 77, 100
2, 37695, Note_on_c, 0, 77, 0
2, 37699, Note_on_c, 0, 75, 100
2, 37734, Note_on_c, 0, 75, 0
2, 37740, Note_on_c, 0, 74, 100
2, 37775, Note_on_c, 0, 74, 0
2, 37779, Note_on_c, 0, 72, 100
2, 37815, Note_on_c, 0, 72, 0
2, 37819, Note_on_c, 0, 70, 100
2, 37854, Note_on_c, 0, 70, 0
2, 37860, Note_on_c, 0, 69, 100
2, 37895, Note_on_c, 0, 69, 0
2, 37899, Note_on_c, 0, 72, 100
2, 37935, Note_on_c, 0, 72, 0
2, 37939, Note_on_c, 0, 66, 100
2, 37974, Note_on_c, 0, 66, 0
2, 37980, Note_on_c, 0, 67, 100
2, 38145, Note_on_c, 0, 67, 0
2, 38190, Note_on_c, 0, 70, 100
2, 38216, Note_on_c, 0, 70, 0
2, 38220, Note_on_c, 0, 62, 100
2, 38298, Note_on_c, 0, 62, 0
2, 38310, Note_on_c, 0, 63, 100
2, 38336, Note_on_c, 0, 63, 0
2, 38340, Note_on_c, 0, 65, 100
2, 38375, Note_on_c, 0, 65, 0
2, 38379, Note_on_c, 0, 68, 100
2, 38415, Note_on_c, 0, 68, 0
2, 38419, Note_on_c, 0, 63, 100
2, 38454, Note_on_c, 0, 63, 0
2, 38460, Note_on_c, 0, 65, 100
2, 38495, Note_on_c, 0, 65, 0
2, 38499, Note_on_c, 0, 68, 100
2, 38535, Note_on_c, 0, 68, 0
2, 38539, Note_on_c, 0, 74, 100
2, 38574, Note_on_c, 0, 74, 0
2, 38580, Note_on_c, 0, 77, 100
2, 38658, Note_on_c, 0, 77, 0
2, 38670, Note_on_c, 0, 68, 100
2, 38696, Note_on_c, 0, 68, 0
2, 38700, Note_on_c, 0, 67, 100
2, 38735, Note_on_c, 0, 67, 0
2, 38739, Note_on_c, 0, 70, 100
2, 38775, Note_on_c, 0, 70, 0
2, 38779, Note_on_c, 0, 65, 100
2, 38814, Note_on_c, 0, 65, 0
2, 38820, Note_on_c, 0, 67, 100
2, 38855, Note_on_c, 0, 67, 0
2, 38859, Note_on_c, 0, 70, 100
2, 38895, Note_on_c, 0, 70, 0
2, 38899, Note_on_c, 0, 75, 100
2, 38934, Note_on_c, 0, 75, 0
2, 38940, Note_on_c, 0, 79, 100
2, 39095, Note_on_c, 0, 79, 0
2, 39099, Note_on_c, 0, 77, 100
2, 39135, Note_on_c, 0, 77, 0
2, 39139, Note_on_c, 0, 75, 100
2, 39174, Note_on_c, 0, 75, 0
2, 39180, Note_on_c, 0, 74, 100
2, 39215, Note_on_c, 0, 74, 0
2, 39219, Note_on_c, 0, 75, 100
2, 39255, Note_on_c, 0, 75, 0
2, 39259, Note_on_c, 0, 77, 100
2, 39294, Note_on_c, 0, 77, 0
2, 39300, Note_on_c, 0, 67, 100
2, 39335, Note_on_c, 0, 67, 0
2, 39339, Note_on_c, 0, 69, 100
2, 39375, Note_on_c, 0, 69, 0
2, 39379, Note_on_c, 0, 70, 100
2, 39414, Note_on_c, 0, 70, 0
2, 39420, Note_on_c, 0, 70, 100
2, 39446, Note_on_c, 0, 70, 0
2, 39450, Note_on_c, 0, 69, 100
2, 39463, Note_on_c, 0, 69, 0
2, 39465, Note_on_c, 0, 70, 100
2, 39478, Note_on_c, 0, 70, 0
2, 39480, Note_on_c, 0, 69, 100
2, 39493, Note_on_c, 0, 69, 0
2, 39495, Note_on_c, 0, 70, 100
2, 39508, Note_on_c, 0, 70, 0
2, 39510, Note_on_c, 0, 69, 100
2, 39523, Note_on_c, 0, 69, 0
2, 39525, Note_on_c, 0, 70, 100
2, 39538, Note_on_c, 0, 70, 0
2, 39540, Note_on_c, 0, 69, 100
2, 39553, Note_on_c, 0, 69, 0
2, 39555, Note_on_c, 0, 70, 100
2, 39568, Note_on_c, 0, 70, 0
2, 39570, Note_on_c, 0, 69, 100
2, 39596, Note_on_c, 0, 69, 0
2, 39630, Note_on_c, 0, 69, 100
2, 39656, Note_on_c, 0, 69, 0
2, 39660, Note_on_c, 0, 69, 100
2, 39673, Note_on_c, 0, 69, 0
2, 39675, Note_on_c, 0, 70, 100
2, 39688, Note_on_c, 0, 70, 0
2, 39690, Note_on_c, 0, 69, 100
2, 39703, Note_on_c, 0, 69, 0
2, 39705, Note_on_c, 0, 70, 100
2, 39718, Note_on_c, 0, 70, 0
2, 39720, Note_on_c, 0, 69, 100
2, 39733, Note_on_c, 0, 69, 0
2, 39735, Note_on_c, 0, 70, 100
2, 39748, Note_on_c, 0, 70, 0
2, 39750, Note_on_c, 0, 67, 100
2, 39763, Note_on_c, 0, 67, 0
2, 39765, Note_on_c, 0, 69, 100
2, 39778, Note_on_c, 0, 69, 0
2, 39780, Note_on_c, 0, 70, 100
2, 39815, Note_on_c, 0, 70, 0
2, 39819, Note_on_c, 0, 65, 100
2, 39855, Note_on_c, 0, 65, 0
2, 39859, Note_on_c, 0, 62, 100
2, 39894, Note_on_c, 0, 62, 0
2, 39900, Note_on_c, 0, 58, 100
2, 39978, Note_on_c, 0, 58, 0
2, 39990, Note_on_c, 0, 70, 100
2, 40016, Note_on_c, 0, 70, 0
2, 40020, Note_on_c, 0, 70, 100
2, 40033, Note_on_c, 0, 70, 0
2, 40035, Note_on_c, 0, 72, 100
2, 40048, Note_on_c, 0, 72, 0
2, 40050, Note_on_c, 0, 70, 100
2, 40063, Note_on_c, 0, 70, 0
2, 40065, Note_on_c, 0, 72, 100
2, 40078, Note_on_c, 0, 72, 0
2, 40080, Note_on_c, 0, 70, 100
2, 40093, Note_on_c, 0, 70, 0
2, 40095, Note_on_c, 0, 72, 100
2, 40108, Note_on_c, 0, 72, 0
2, 40110, Note_on_c, 0, 69, 100
2, 40123, Note_on_c, 0, 69, 0
2, 40125, Note_on_c, 0, 70, 100
2, 40138, Note_on_c, 0, 70, 0
2, 40140, Note_on_c, 0, 72, 100
2, 40175, Note_on_c, 0, 72, 0
2, 40179, Note_on_c, 0, 69, 100
2, 40215, Note_on_c, 0, 69, 0
2, 40219, Note_on_c, 0, 63, 100
2, 40254, Note_on_c, 0, 63, 0
2, 40260, Note_on_c, 0, 60, 100
2, 40338, Note_on_c, 0, 60, 0
2, 40350, Note_on_c, 0, 72, 100
2, 40376, Note_on_c, 0, 72, 0
2, 40380, Note_on_c, 0, 72, 100
2, 40393, Note_on_c, 0, 72, 0
2, 40395, Note_on_c, 0, 74, 100
2, 40408, Note_on_c, 0, 74, 0
2, 40410, Note_on_c, 0, 72, 100
2, 40423, Note_on_c, 0, 72, 0
2, 40425, Note_on_c, 0, 74, 100
2, 40438, Note_on_c, 0, 74, 0
2, 40440, Note_on_c, 0, 72, 100
2, 40453, Note_on_c, 0, 72, 0
2, 40455, Note_on_c, 0, 74, 100
2, 40468, Note_on_c, 0, 74, 0
2, 40470, Note_on_c, 0, 70, 100
2, 40483, Note_on_c, 0, 70, 0
2, 40485, Note_on_c, 0, 72, 100
2, 40498, Note_on_c, 0, 72, 0
2, 40500, Note_on_c, 0, 73, 100
2, 40535, Note_on_c, 0, 73, 0
2, 40539, Note_on_c, 0, 69, 100
2, 40575, Note_on_c, 0, 69, 0
2, 40579, Note_on_c, 0, 70, 100
2, 40614, Note_on_c, 0, 70, 0
2, 40620, Note_on_c, 0, 67, 100
2, 40655, Note_on_c, 0, 67, 0
2, 40659, Note_on_c, 0, 70, 100
2, 40695, Note_on_c, 0, 70, 0
2, 40699, Note_on_c, 0, 73, 100
2, 40734, Note_on_c, 0, 73, 0
2, 40740, Note_on_c, 0, 76, 100
2, 40775, Note_on_c, 0, 76, 0
2, 40779, Note_on_c, 0, 77, 100
2, 40815, Note_on_c, 0, 77, 0
2, 40819, Note_on_c, 0, 70, 100
2, 40854, Note_on_c, 0, 70, 0
2, 40860, Note_on_c, 0, 69, 100
2, 40868, Note_on_c, 0, 69, 0
2, 40869, Note_on_c, 0, 70, 100
2, 40878, Note_on_c, 0, 70, 0
2, 40879, Note_on_c, 0, 69, 100
2, 40888, Note_on_c, 0, 69, 0
2, 40889, Note_on_c, 0, 70, 100
2, 40898, Note_on_c, 0, 70, 0
2, 40899, Note_on_c, 0, 67, 100
2, 40934, Note_on_c, 0, 67, 0
2, 40939, Note_on_c, 0, 65, 100
2, 40974, Note_on_c, 0, 65, 0
2, 40980, Note_on_c, 0, 75, 100
2, 41135, Note_on_c, 0, 75, 0
2, 41139, Note_on_c, 0, 74, 100
2, 41175, Note_on_c, 0, 74, 0
2, 41179, Note_on_c, 0, 72, 100
2, 41214, Note_on_c, 0, 72, 0
2, 41220, Note_on_c, 0, 73, 100
2, 41255, Note_on_c, 0, 73, 0
2, 41259, Note_on_c, 0, 79, 100
2, 41295, Note_on_c, 0, 79, 0
2, 41299, Note_on_c, 0, 72, 100
2, 41334, Note_on_c, 0, 72, 0
2, 41340, Note_on_c, 0, 73, 100
2, 41375, Note_on_c, 0, 73, 0
2, 41379, Note_on_c, 0, 69, 100
2, 41415, Note_on_c, 0, 69, 0
2, 41419, Note_on_c, 0, 70, 100
2, 41454, Note_on_c, 0, 70, 0
2, 41460, Note_on_c, 0, 63, 100
2, 41468, Note_on_c, 0, 63, 0
2, 41469, Note_on_c, 0, 65, 100
2, 41478, Note_on_c, 0, 65, 0
2, 41479, Note_on_c, 0, 63, 100
2, 41488, Note_on_c, 0, 63, 0
2, 41489, Note_on_c, 0, 65, 100
2, 41498, Note_on_c, 0, 65, 0
2, 41499, Note_on_c, 0, 62, 100
2, 41534, Note_on_c, 0, 62, 0
2, 41539, Note_on_c, 0, 63, 100
2, 41574, Note_on_c, 0, 63, 0
2, 41580, Note_on_c, 0, 62, 100
2, 41615, Note_on_c, 0, 62, 0
2, 41619, Note_on_c, 0, 65, 100
2, 41655, Note_on_c, 0, 65, 0
2, 41659, Note_on_c, 0, 60, 100
2, 41694, Note_on_c, 0, 60, 0
2, 41700, Note_on_c, 0, 62, 100
2, 41735, Note_on_c, 0, 62, 0
2, 41739, Note_on_c, 0, 58, 100
2, 41775, Note_on_c, 0, 58, 0
2, 41779, Note_on_c, 0, 62, 100
2, 41814, Note_on_c, 0, 62, 0
2, 41820, Note_on_c, 0, 65, 100
2, 41855, Note_on_c, 0, 65, 0
2, 41859, Note_on_c, 0, 70, 100
2, 41895, Note_on_c, 0, 70, 0
2, 41899, Note_on_c, 0, 63, 100
2, 41934, Note_on_c, 0, 63, 0
2, 41940, Note_on_c, 0, 65, 100
2, 41975, Note_on_c, 0, 65, 0
2, 41979, Note_on_c, 0, 70, 100
2, 42015, Note_on_c, 0, 70, 0
2, 42019, Note_on_c, 0, 63, 100
2, 42054, Note_on_c, 0, 63, 0
2, 42060, Note_on_c, 0, 65, 100
2, 42095, Note_on_c, 0, 65, 0
2, 42099, Note_on_c, 0, 62, 100
2, 42135, Note_on_c, 0, 62, 0
2, 42139, Note_on_c, 0, 65, 100
2, 42174, Note_on_c, 0, 65, 0
2, 42180, Note_on_c, 0, 70, 100
2, 42215, Note_on_c, 0, 70, 0
2, 42219, Note_on_c, 0, 74, 100
2, 42255, Note_on_c, 0, 74, 0
2, 42259, Note_on_c, 0, 69, 100
2, 42294, Note_on_c, 0, 69, 0
2, 42300, Note_on_c, 0, 70, 100
2, 42335, Note_on_c, 0, 70, 0
2, 42339, Note_on_c, 0, 74, 100
2, 42375, Note_on_c, 0, 74, 0
2, 42379, Note_on_c, 0, 69, 100
2, 42414, Note_on_c, 0, 69, 0
2, 42420, Note_on_c, 0, 70, 100
2, 42455, Note_on_c, 0, 70, 0
2, 42459, Note_on_c, 0, 65, 100
2, 42495, Note_on_c, 0, 65, 0
2, 42499, Note_on_c, 0, 70, 100
2, 42534, Note_on_c, 0, 70, 0
2, 42540, Note_on_c, 0, 74, 100
2, 42575, Note_on_c, 0, 74, 0
2, 42579, Note_on_c, 0, 77, 100
2, 42615, Note_on_c, 0, 77, 0
2, 42619, Note_on_c, 0, 68, 100
2, 42654, Note_on_c, 0, 68, 0
2, 42660, Note_on_c, 0, 67, 100
2, 42695, Note_on_c, 0, 67, 0
2, 42699, Note_on_c, 0, 75, 100
2, 42735, Note_on_c, 0, 75, 0
2, 42739, Note_on_c, 0, 72, 100
2, 42774, Note_on_c, 0, 72, 0
2, 42780, Note_on_c, 0, 69, 100
2, 42806, Note_on_c, 0, 69, 0
2, 42810, Note_on_c, 0, 70, 100
2, 42823, Note_on_c, 0, 70, 0
2, 42825, Note_on_c, 0, 69, 100
2, 42838, Note_on_c, 0, 69, 0
2, 42840, Note_on_c, 0, 70, 100
2, 42853, Note_on_c, 0, 70, 0
2, 42855, Note_on_c, 0, 69, 100
2, 42868, Note_on_c, 0, 69, 0
2, 42870, Note_on_c, 0, 70, 100
2, 42883, Note_on_c, 0, 70, 0
2, 42885, Note_on_c, 0, 69, 100
2, 42898, Note_on_c, 0, 69, 0
2, 42900, Note_on_c, 0, 70, 100
2, 42913, Note_on_c, 0, 70, 0
2, 42915, Note_on_c, 0, 69, 100
2, 42928, Note_on_c, 0, 69, 0
2, 42960, Note_on_c, 0, 70, 100
2, 43012, Note_on_c, 0, 70, 0
2, 43020, Note_on_c, 0, 62, 100
2, 43020, Note_on_c, 0, 65, 100
2, 43020, Note_on_c, 0, 70, 100
2, 43245, Note_on_c, 0, 70, 0
2, 43245, Note_on_c, 0, 65, 0
2, 43245, Note_on_c, 0, 62, 0
2, 43245, End_track
3, 0, Start_track
3, 0, MIDI_port, 0
3, 0, Program_c, 1, 3
3, 0, Control_c, 1, 7, 110
3, 0, Control_c, 1, 10, 75
3, 60, Program_c, 1, 3
3, 390, Note_on_c, 1, 62, 80
3, 416, Note_on_c, 1, 62, 0
3, 420, Note_on_c, 1, 58, 80
3, 498, Note_on_c, 1, 58, 0
3, 510, Note_on_c, 1, 62, 80
3, 536, Note_on_c, 1, 62, 0
3, 540, Note_on_c, 1, 55, 80
3, 705, Note_on_c, 1, 55, 0
3, 750, Note_on_c, 1, 63, 80
3, 776, Note_on_c, 1, 63, 0
3, 780, Note_on_c, 1, 58, 80
3, 858, Note_on_c, 1, 58, 0
3, 870, Note_on_c, 1, 63, 80
3, 896, Note_on_c, 1, 63, 0
3, 900, Note_on_c, 1, 50, 80
3, 1065, Note_on_c, 1, 50, 0
3, 1110, Note_on_c, 1, 65, 80
3, 1136, Note_on_c, 1, 65, 0
3, 1140, Note_on_c, 1, 62, 80
3, 1218, Note_on_c, 1, 62, 0
3, 1230, Note_on_c, 1, 65, 80
3, 1256, Note_on_c, 1, 65, 0
3, 1260, Note_on_c, 1, 63, 80
3, 1338, Note_on_c, 1, 63, 0
3, 1350, Note_on_c, 1, 51, 80
3, 1376, Note_on_c, 1, 51, 0
3, 1380, Note_on_c, 1, 50, 80
3, 1458, Note_on_c, 1, 50, 0
3, 1470, Note_on_c, 1, 62, 80
3, 1496, Note_on_c, 1, 62, 0
3, 1500, Note_on_c, 1, 60, 80
3, 1578, Note_on_c, 1, 60, 0
3, 1590, Note_on_c, 1, 48, 80
3, 1616, Note_on_c, 1, 48, 0
3, 1620, Note_on_c, 1, 46, 80
3, 1655, Note_on_c, 1, 46, 0
3, 1659, Note_on_c, 1, 50, 80
3, 1695, Note_on_c, 1, 50, 0
3, 1699, Note_on_c, 1, 45, 80
3, 1734, Note_on_c, 1, 45, 0
3, 1740, Note_on_c, 1, 46, 80
3, 1775, Note_on_c, 1, 46, 0
3, 1779, Note_on_c, 1, 41, 80
3, 1815, Note_on_c, 1, 41, 0
3, 1819, Note_on_c, 1, 46, 80
3, 1854, Note_on_c, 1, 46, 0
3, 1860, Note_on_c, 1, 50, 80
3, 1895, Note_on_c, 1, 50, 0
3, 1899, Note_on_c, 1, 53, 80
3, 1935, Note_on_c, 1, 53, 0
3, 1939, Note_on_c, 1, 45, 80
3, 1974, Note_on_c, 1, 45, 0
3, 1980, Note_on_c, 1, 43, 80
3, 2178, Note_on_c, 1, 43, 0
3, 2190, Note_on_c, 1, 50, 80
3, 2216, Note_on_c, 1, 50, 0
3, 2220, Note_on_c, 1, 46, 80
3, 2298, Note_on_c, 1, 46, 0
3, 2310, Note_on_c, 1, 43, 80
3, 2336, Note_on_c, 1, 43, 0
3, 2340, Note_on_c, 1, 48, 80
3, 2375, Note_on_c, 1, 48, 0
3, 2379, Note_on_c, 1, 52, 80
3, 2415, Note_on_c, 1, 52, 0
3, 2419, Note_on_c, 1, 47, 80
3, 2454, Note_on_c, 1, 47, 0
3, 2460, Note_on_c, 1, 48, 80
3, 2495, Note_on_c, 1, 48, 0
3, 2499, Note_on_c, 1, 43, 80
3, 2535, Note_on_c, 1, 43, 0
3, 2539, Note_on_c, 1, 48, 80
3, 2574, Note_on_c, 1, 48, 0
3, 2580, Note_on_c, 1, 52, 80
3, 2615, Note_on_c, 1, 52, 0
3, 2619, Note_on_c, 1, 55, 80
3, 2655, Note_on_c, 1, 55, 0
3, 2659, Note_on_c, 1, 46, 80
3, 2694, Note_on_c, 1, 46, 0
3, 2700, Note_on_c, 1, 45, 80
3, 2898, Note_on_c, 1, 45, 0
3, 2910, Note_on_c, 1, 52, 80
3, 2936, Note_on_c, 1, 52, 0
3, 2940, Note_on_c, 1, 48, 80
3, 3018, Note_on_c, 1, 48, 0
3, 3030, Note_on_c, 1, 45, 80
3, 3056, Note_on_c, 1, 45, 0
3, 3060, Note_on_c, 1, 50, 80
3, 3095, Note_on_c, 1, 50, 0
3, 3099, Note_on_c, 1, 53, 80
3, 3135, Note_on_c, 1, 53, 0
3, 3139, Note_on_c, 1, 48, 80
3, 3174, Note_on_c, 1, 48, 0
3, 3180, Note_on_c, 1, 50, 80
3, 3215, Note_on_c, 1, 50, 0
3, 3219, Note_on_c, 1, 45, 80
3, 3255, Note_on_c, 1, 45, 0
3, 3259, Note_on_c, 1, 50, 80
3, 3294, Note_on_c, 1, 50, 0
3, 3300, Note_on_c, 1, 53, 80
3, 3335, Note_on_c, 1, 53, 0
3, 3339, Note_on_c, 1, 57, 80
3, 3375, Note_on_c, 1, 57, 0
3, 3379, Note_on_c, 1, 48, 80
3, 3414, Note_on_c, 1, 48, 0
3, 3420, Note_on_c, 1, 46, 80
3, 3498, Note_on_c, 1, 46, 0
3, 3510, Note_on_c, 1, 57, 80
3, 3536, Note_on_c, 1, 57, 0
3, 3540, Note_on_c, 1, 55, 80
3, 3618, Note_on_c, 1, 55, 0
3, 3630, Note_on_c, 1, 46, 80
3, 3656, Note_on_c, 1, 46, 0
3, 3660, Note_on_c, 1, 45, 80
3, 3738, Note_on_c, 1, 45, 0
3, 3750, Note_on_c, 1, 53, 80
3, 3776, Note_on_c, 1, 53, 0
3, 3780, Note_on_c, 1, 43, 80
3, 3858, Note_on_c, 1, 43, 0
3, 3870, Note_on_c, 1, 53, 80
3, 3896, Note_on_c, 1, 53, 0
3, 3900, Note_on_c, 1, 52, 80
3, 3978, Note_on_c, 1, 52, 0
3, 3990, Note_on_c, 1, 43, 80
3, 4016, Note_on_c, 1, 43, 0
3, 4020, Note_on_c, 1, 41, 80
3, 4098, Note_on_c, 1, 41, 0
3, 4110, Note_on_c, 1, 50, 80
3, 4136, Note_on_c, 1, 50, 0
3, 4140, Note_on_c, 1, 40, 80
3, 4218, Note_on_c, 1, 40, 0
3, 4230, Note_on_c, 1, 50, 80
3, 4256, Note_on_c, 1, 50, 0
3, 4260, Note_on_c, 1, 48, 80
3, 4338, Note_on_c, 1, 48, 0
3, 4350, Note_on_c, 1, 40, 80
3, 4376, Note_on_c, 1, 40, 0
3, 4380, Note_on_c, 1, 38, 80
3, 4458, Note_on_c, 1, 38, 0
3, 4470, Note_on_c, 1, 47, 80
3, 4496, Note_on_c, 1, 47, 0
3, 4500, Note_on_c, 1, 36, 80
3, 4535, Note_on_c, 1, 36, 0
3, 4539, Note_on_c, 1, 40, 80
3, 4575, Note_on_c, 1, 40, 0
3, 4579, Note_on_c, 1, 43, 80
3, 4614, Note_on_c, 1, 43, 0
3, 4620, Note_on_c, 1, 48, 80
3, 4655, Note_on_c, 1, 48, 0
3, 4659, Note_on_c, 1, 52, 80
3, 4695, Note_on_c, 1, 52, 0
3, 4699, Note_on_c, 1, 55, 80
3, 4734, Note_on_c, 1, 55, 0
3, 4740, Note_on_c, 1, 46, 80
3, 4775, Note_on_c, 1, 46, 0
3, 4779, Note_on_c, 1, 45, 80
3, 4815, Note_on_c, 1, 45, 0
3, 4819, Note_on_c, 1, 43, 80
3, 4854, Note_on_c, 1, 43, 0
3, 4860, Note_on_c, 1, 36, 80
3, 4895, Note_on_c, 1, 36, 0
3, 4899, Note_on_c, 1, 41, 80
3, 4935, Note_on_c, 1, 41, 0
3, 4939, Note_on_c, 1, 45, 80
3, 4974, Note_on_c, 1, 45, 0
3, 4980, Note_on_c, 1, 48, 80
3, 5015, Note_on_c, 1, 48, 0
3, 5019, Note_on_c, 1, 53, 80
3, 5055, Note_on_c, 1, 53, 0
3, 5059, Note_on_c, 1, 57, 80
3, 5094, Note_on_c, 1, 57, 0
3, 5100, Note_on_c, 1, 48, 80
3, 5135, Note_on_c, 1, 48, 0
3, 5139, Note_on_c, 1, 46, 80
3, 5175, Note_on_c, 1, 46, 0
3, 5179, Note_on_c, 1, 45, 80
3, 5214, Note_on_c, 1, 45, 0
3, 5220, Note_on_c, 1, 36, 80
3, 5255, Note_on_c, 1, 36, 0
3, 5259, Note_on_c, 1, 43, 80
3, 5295, Note_on_c, 1, 43, 0
3, 5299, Note_on_c, 1, 48, 80
3, 5334, Note_on_c, 1, 48, 0
3, 5340, Note_on_c, 1, 52, 80
3, 5375, Note_on_c, 1, 52, 0
3, 5379, Note_on_c, 1, 55, 80
3, 5415, Note_on_c, 1, 55, 0
3, 5419, Note_on_c, 1, 58, 80
3, 5454, Note_on_c, 1, 58, 0
3, 5460, Note_on_c, 1, 52, 80
3, 5495, Note_on_c, 1, 52, 0
3, 5499, Note_on_c, 1, 50, 80
3, 5535, Note_on_c, 1, 50, 0
3, 5539, Note_on_c, 1, 48, 80
3, 5574, Note_on_c, 1, 48, 0
3, 5580, Note_on_c, 1, 36, 80
3, 5580, Note_on_c, 1, 47, 80
3, 5685, Note_on_c, 1, 47, 0
3, 5685, Note_on_c, 1, 36, 0
3, 5940, Note_on_c, 1, 36, 80
3, 5940, Note_on_c, 1, 48, 80
3, 6045, Note_on_c, 1, 48, 0
3, 6045, Note_on_c, 1, 36, 0
3, 6150, Note_on_c, 1, 48, 80
3, 6176, Note_on_c, 1, 48, 0
3, 6180, Note_on_c, 1, 50, 80
3, 6258, Note_on_c, 1, 50, 0
3, 6270, Note_on_c, 1, 52, 80
3, 6296, Note_on_c, 1, 52, 0
3, 6300, Note_on_c, 1, 53, 80
3, 6335, Note_on_c, 1, 53, 0
3, 6339, Note_on_c, 1, 57, 80
3, 6375, Note_on_c, 1, 57, 0
3, 6379, Note_on_c, 1, 60, 80
3, 6414, Note_on_c, 1, 60, 0
3, 6420, Note_on_c, 1, 53, 80
3, 6455, Note_on_c, 1, 53, 0
3, 6459, Note_on_c, 1, 57, 80
3, 6495, Note_on_c, 1, 57, 0
3, 6499, Note_on_c, 1, 60, 80
3, 6534, Note_on_c, 1, 60, 0
3, 6540, Note_on_c, 1, 52, 80
3, 6575, Note_on_c, 1, 52, 0
3, 6579, Note_on_c, 1, 57, 80
3, 6615, Note_on_c, 1, 57, 0
3, 6619, Note_on_c, 1, 60, 80
3, 6654, Note_on_c, 1, 60, 0
3, 6660, Note_on_c, 1, 50, 80
3, 6695, Note_on_c, 1, 50, 0
3, 6699, Note_on_c, 1, 53, 80
3, 6735, Note_on_c, 1, 53, 0
3, 6739, Note_on_c, 1, 57, 80
3, 6774, Note_on_c, 1, 57, 0
3, 6780, Note_on_c, 1, 50, 80
3, 6815, Note_on_c, 1, 50, 0
3, 6819, Note_on_c, 1, 53, 80
3, 6855, Note_on_c, 1, 53, 0
3, 6859, Note_on_c, 1, 57, 80
3, 6894, Note_on_c, 1, 57, 0
3, 6900, Note_on_c, 1, 48, 80
3, 6935, Note_on_c, 1, 48, 0
3, 6939, Note_on_c, 1, 53, 80
3, 6975, Note_on_c, 1, 53, 0
3, 6979, Note_on_c, 1, 57, 80
3, 7014, Note_on_c, 1, 57, 0
3, 7020, Note_on_c, 1, 46, 80
3, 7055, Note_on_c, 1, 46, 0
3, 7059, Note_on_c, 1, 50, 80
3, 7095, Note_on_c, 1, 50, 0
3, 7099, Note_on_c, 1, 53, 80
3, 7134, Note_on_c, 1, 53, 0
3, 7140, Note_on_c, 1, 46, 80
3, 7175, Note_on_c, 1, 46, 0
3, 7179, Note_on_c, 1, 50, 80
3, 7215, Note_on_c, 1, 50, 0
3, 7219, Note_on_c, 1, 53, 80
3, 7254, Note_on_c, 1, 53, 0
3, 7260, Note_on_c, 1, 45, 80
3, 7295, Note_on_c, 1, 45, 0
3, 7299, Note_on_c, 1, 50, 80
3, 7335, Note_on_c, 1, 50, 0
3, 7339, Note_on_c, 1, 53, 80
3, 7374, Note_on_c, 1, 53, 0
3, 7380, Note_on_c, 1, 43, 80
3, 7415, Note_on_c, 1, 43, 0
3, 7419, Note_on_c, 1, 46, 80
3, 7455, Note_on_c, 1, 46, 0
3, 7459, Note_on_c, 1, 50, 80
3, 7494, Note_on_c, 1, 50, 0
3, 7500, Note_on_c, 1, 43, 80
3, 7535, Note_on_c, 1, 43, 0
3, 7539, Note_on_c, 1, 46, 80
3, 7575, Note_on_c, 1, 46, 0
3, 7579, Note_on_c, 1, 50, 80
3, 7614, Note_on_c, 1, 50, 0
3, 7620, Note_on_c, 1, 41, 80
3, 7655, Note_on_c, 1, 41, 0
3, 7659, Note_on_c, 1, 46, 80
3, 7695, Note_on_c, 1, 46, 0
3, 7699, Note_on_c, 1, 50, 80
3, 7734, Note_on_c, 1, 50, 0
3, 7740, Note_on_c, 1, 40, 80
3, 7775, Note_on_c, 1, 40, 0
3, 7779, Note_on_c, 1, 43, 80
3, 7815, Note_on_c, 1, 43, 0
3, 7819, Note_on_c, 1, 48, 80
3, 7854, Note_on_c, 1, 48, 0
3, 7860, Note_on_c, 1, 52, 80
3, 7895, Note_on_c, 1, 52, 0
3, 7899, Note_on_c, 1, 55, 80
3, 7935, Note_on_c, 1, 55, 0
3, 7939, Note_on_c, 1, 53, 80
3, 7974, Note_on_c, 1, 53, 0
3, 7980, Note_on_c, 1, 52, 80
3, 8015, Note_on_c, 1, 52, 0
3, 8019, Note_on_c, 1, 50, 80
3, 8055, Note_on_c, 1, 50, 0
3, 8059, Note_on_c, 1, 48, 80
3, 8094, Note_on_c, 1, 48, 0
3, 8100, Note_on_c, 1, 53, 80
3, 8178, Note_on_c, 1, 53, 0
3, 8190, Note_on_c, 1, 50, 80
3, 8216, Note_on_c, 1, 50, 0
3, 8220, Note_on_c, 1, 45, 80
3, 8298, Note_on_c, 1, 45, 0
3, 8310, Note_on_c, 1, 46, 80
3, 8336, Note_on_c, 1, 46, 0
3, 8340, Note_on_c, 1, 48, 80
3, 8418, Note_on_c, 1, 48, 0
3, 8430, Note_on_c, 1, 36, 80
3, 8456, Note_on_c, 1, 36, 0
3, 8460, Note_on_c, 1, 41, 80
3, 8538, Note_on_c, 1, 41, 0
3, 8550, Note_on_c, 1, 48, 80
3, 8576, Note_on_c, 1, 48, 0
3, 8580, Note_on_c, 1, 45, 80
3, 8658, Note_on_c, 1, 45, 0
3, 8670, Note_on_c, 1, 48, 80
3, 8696, Note_on_c, 1, 48, 0
3, 8700, Note_on_c, 1, 41, 80
3, 8778, Note_on_c, 1, 41, 0
3, 8790, Note_on_c, 1, 45, 80
3, 8816, Note_on_c, 1, 45, 0
3, 8820, Note_on_c, 1, 38, 80
3, 8898, Note_on_c, 1, 38, 0
3, 8910, Note_on_c, 1, 48, 80
3, 8936, Note_on_c, 1, 48, 0
3, 8940, Note_on_c, 1, 45, 80
3, 9018, Note_on_c, 1, 45, 0
3, 9030, Note_on_c, 1, 48, 80
3, 9056, Note_on_c, 1, 48, 0
3, 9060, Note_on_c, 1, 41, 80
3, 9138, Note_on_c, 1, 41, 0
3, 9150, Note_on_c, 1, 45, 80
3, 9176, Note_on_c, 1, 45, 0
3, 9180, Note_on_c, 1, 33, 80
3, 9258, Note_on_c, 1, 33, 0
3, 9270, Note_on_c, 1, 48, 80
3, 9296, Note_on_c, 1, 48, 0
3, 9300, Note_on_c, 1, 45, 80
3, 9378, Note_on_c, 1, 45, 0
3, 9390, Note_on_c, 1, 48, 80
3, 9416, Note_on_c, 1, 48, 0
3, 9420, Note_on_c, 1, 41, 80
3, 9498, Note_on_c, 1, 41, 0
3, 9510, Note_on_c, 1, 45, 80
3, 9536, Note_on_c, 1, 45, 0
3, 9540, Note_on_c, 1, 34, 80
3, 9618, Note_on_c, 1, 34, 0
3, 9630, Note_on_c, 1, 46, 80
3, 9656, Note_on_c, 1, 46, 0
3, 9660, Note_on_c, 1, 48, 80
3, 9765, Note_on_c, 1, 48, 0
3, 9780, Note_on_c, 1, 36, 80
3, 9885, Note_on_c, 1, 36, 0
3, 9900, Note_on_c, 1, 41, 80
3, 10125, Note_on_c, 1, 41, 0
3, 10140, Program_c, 1, 81
3, 10260, Note_on_c, 1, 58, 80
3, 10425, Note_on_c, 1, 58, 0
3, 10470, Note_on_c, 1, 62, 80
3, 10496, Note_on_c, 1, 62, 0
3, 10500, Note_on_c, 1, 58, 80
3, 10578, Note_on_c, 1, 58, 0
3, 10590, Note_on_c, 1, 62, 80
3, 10616, Note_on_c, 1, 62, 0
3, 10620, Note_on_c, 1, 55, 80
3, 10785, Note_on_c, 1, 55, 0
3, 10830, Note_on_c, 1, 63, 80
3, 10856, Note_on_c, 1, 63, 0
3, 10860, Note_on_c, 1, 58, 80
3, 10938, Note_on_c, 1, 58, 0
3, 10950, Note_on_c, 1, 63, 80
3, 10976, Note_on_c, 1, 63, 0
3, 10980, Note_on_c, 1, 50, 80
3, 11145, Note_on_c, 1, 50, 0
3, 11190, Note_on_c, 1, 65, 80
3, 11216, Note_on_c, 1, 65, 0
3, 11220, Note_on_c, 1, 62, 80
3, 11298, Note_on_c, 1, 62, 0
3, 11310, Note_on_c, 1, 65, 80
3, 11336, Note_on_c, 1, 65, 0
3, 11340, Note_on_c, 1, 63, 80
3, 11418, Note_on_c, 1, 63, 0
3, 11430, Note_on_c, 1, 51, 80
3, 11456, Note_on_c, 1, 51, 0
3, 11460, Note_on_c, 1, 50, 80
3, 11538, Note_on_c, 1, 50, 0
3, 11550, Note_on_c, 1, 62, 80
3, 11576, Note_on_c, 1, 62, 0
3, 11580, Note_on_c, 1, 60, 80
3, 11658, Note_on_c, 1, 60, 0
3, 11670, Note_on_c, 1, 48, 80
3, 11696, Note_on_c, 1, 48, 0
3, 11700, Note_on_c, 1, 46, 80
3, 11735, Note_on_c, 1, 46, 0
3, 11739, Note_on_c, 1, 50, 80
3, 11775, Note_on_c, 1, 50, 0
3, 11779, Note_on_c, 1, 45, 80
3, 11814, Note_on_c, 1, 45, 0
3, 11820, Note_on_c, 1, 46, 80
3, 11855, Note_on_c, 1, 46, 0
3, 11859, Note_on_c, 1, 41, 80
3, 11895, Note_on_c, 1, 41, 0
3, 11899, Note_on_c, 1, 46, 80
3, 11934, Note_on_c, 1, 46, 0
3, 11940, Note_on_c, 1, 50, 80
3, 11975, Note_on_c, 1, 50, 0
3, 11979, Note_on_c, 1, 53, 80
3, 12015, Note_on_c, 1, 53, 0
3, 12019, Note_on_c, 1, 45, 80
3, 12054, Note_on_c, 1, 45, 0
3, 12060, Note_on_c, 1, 43, 80
3, 12258, Note_on_c, 1, 43, 0
3, 12270, Note_on_c, 1, 50, 80
3, 12296, Note_on_c, 1, 50, 0
3, 12300, Note_on_c, 1, 46, 80
3, 12378, Note_on_c, 1, 46, 0
3, 12390, Note_on_c, 1, 43, 80
3, 12416, Note_on_c, 1, 43, 0
3, 12420, Note_on_c, 1, 48, 80
3, 12455, Note_on_c, 1, 48, 0
3, 12459, Note_on_c, 1, 52, 80
3, 12495, Note_on_c, 1, 52, 0
3, 12499, Note_on_c, 1, 47, 80
3, 12534, Note_on_c, 1, 47, 0
3, 12540, Note_on_c, 1, 48, 80
3, 12575, Note_on_c, 1, 48, 0
3, 12579, Note_on_c, 1, 43, 80
3, 12615, Note_on_c, 1, 43, 0
3, 12619, Note_on_c, 1, 48, 80
3, 12654, Note_on_c, 1, 48, 0
3, 12660, Note_on_c, 1, 52, 80
3, 12695, Note_on_c, 1, 52, 0
3, 12699, Note_on_c, 1, 55, 80
3, 12735, Note_on_c, 1, 55, 0
3, 12739, Note_on_c, 1, 46, 80
3, 12774, Note_on_c, 1, 46, 0
3, 12780, Note_on_c, 1, 45, 80
3, 12978, Note_on_c, 1, 45, 0
3, 12990, Note_on_c, 1, 52, 80
3, 13016, Note_on_c, 1, 52, 0
3, 13020, Note_on_c, 1, 48, 80
3, 13098, Note_on_c, 1, 48, 0
3, 13110, Note_on_c, 1, 45, 80
3, 13136, Note_on_c, 1, 45, 0
3, 13140, Note_on_c, 1, 50, 80
3, 13175, Note_on_c, 1, 50, 0
3, 13179, Note_on_c, 1, 53, 80
3, 13215, Note_on_c, 1, 53, 0
3, 13219, Note_on_c, 1, 48, 80
3, 13254, Note_on_c, 1, 48, 0
3, 13260, Note_on_c, 1, 50, 80
3, 13295, Note_on_c, 1, 50, 0
3, 13299, Note_on_c, 1, 45, 80
3, 13335, Note_on_c, 1, 45, 0
3, 13339, Note_on_c, 1, 50, 80
3, 13374, Note_on_c, 1, 50, 0
3, 13380, Note_on_c, 1, 53, 80
3, 13415, Note_on_c, 1, 53, 0
3, 13419, Note_on_c, 1, 57, 80
3, 13455, Note_on_c, 1, 57, 0
3, 13459, Note_on_c, 1, 48, 80
3, 13494, Note_on_c, 1, 48, 0
3, 13500, Note_on_c, 1, 46, 80
3, 13578, Note_on_c, 1, 46, 0
3, 13590, Note_on_c, 1, 57, 80
3, 13616, Note_on_c, 1, 57, 0
3, 13620, Note_on_c, 1, 55, 80
3, 13698, Note_on_c, 1, 55, 0
3, 13710, Note_on_c, 1, 46, 80
3, 13736, Note_on_c, 1, 46, 0
3, 13740, Note_on_c, 1, 45, 80
3, 13818, Note_on_c, 1, 45, 0
3, 13830, Note_on_c, 1, 53, 80
3, 13856, Note_on_c, 1, 53, 0
3, 13860, Note_on_c, 1, 43, 80
3, 13938, Note_on_c, 1, 43, 0
3, 13950, Note_on_c, 1, 53, 80
3, 13976, Note_on_c, 1, 53, 0
3, 13980, Note_on_c, 1, 52, 80
3, 14058, Note_on_c, 1, 52, 0
3, 14070, Note_on_c, 1, 43, 80
3, 14096, Note_on_c, 1, 43, 0
3, 14100, Note_on_c, 1, 41, 80
3, 14178, Note_on_c, 1, 41, 0
3, 14190, Note_on_c, 1, 50, 80
3, 14216, Note_on_c, 1, 50, 0
3, 14220, Note_on_c, 1, 40, 80
3, 14298, Note_on_c, 1, 40, 0
3, 14310, Note_on_c, 1, 50, 80
3, 14336, Note_on_c, 1, 50, 0
3, 14340, Note_on_c, 1, 48, 80
3, 14418, Note_on_c, 1, 48, 0
3, 14430, Note_on_c, 1, 40, 80
3, 14456, Note_on_c, 1, 40, 0
3, 14460, Note_on_c, 1, 38, 80
3, 14538, Note_on_c, 1, 38, 0
3, 14550, Note_on_c, 1, 47, 80
3, 14576, Note_on_c, 1, 47, 0
3, 14580, Note_on_c, 1, 36, 80
3, 14615, Note_on_c, 1, 36, 0
3, 14619, Note_on_c, 1, 40, 80
3, 14655, Note_on_c, 1, 40, 0
3, 14659, Note_on_c, 1, 43, 80
3, 14694, Note_on_c, 1, 43, 0
3, 14700, Note_on_c, 1, 48, 80
3, 14735, Note_on_c, 1, 48, 0
3, 14739, Note_on_c, 1, 52, 80
3, 14775, Note_on_c, 1, 52, 0
3, 14779, Note_on_c, 1, 55, 80
3, 14814, Note_on_c, 1, 55, 0
3, 14820, Note_on_c, 1, 46, 80
3, 14855, Note_on_c, 1, 46, 0
3, 14859, Note_on_c, 1, 45, 80
3, 14895, Note_on_c, 1, 45, 0
3, 14899, Note_on_c, 1, 43, 80
3, 14934, Note_on_c, 1, 43, 0
3, 14940, Note_on_c, 1, 36, 80
3, 14975, Note_on_c, 1, 36, 0
3, 14979, Note_on_c, 1, 41, 80
3, 15015, Note_on_c, 1, 41, 0
3, 15019, Note_on_c, 1, 45, 80
3, 15054, Note_on_c, 1, 45, 0
3, 15060, Note_on_c, 1, 48, 80
3, 15095, Note_on_c, 1, 48, 0
3, 15099, Note_on_c, 1, 53, 80
3, 15135, Note_on_c, 1, 53, 0
3, 15139, Note_on_c, 1, 57, 80
3, 15174, Note_on_c, 1, 57, 0
3, 15180, Note_on_c, 1, 48, 80
3, 15215, Note_on_c, 1, 48, 0
3, 15219, Note_on_c, 1, 46, 80
3, 15255, Note_on_c, 1, 46, 0
3, 15259, Note_on_c, 1, 45, 80
3, 15294, Note_on_c, 1, 45, 0
3, 15300, Note_on_c, 1, 36, 80
3, 15335, Note_on_c, 1, 36, 0
3, 15339, Note_on_c, 1, 43, 80
3, 15375, Note_on_c, 1, 43, 0
3, 15379, Note_on_c, 1, 48, 80
3, 15414, Note_on_c, 1, 48, 0
3, 15420, Note_on_c, 1, 52, 80
3, 15455, Note_on_c, 1, 52, 0
3, 15459, Note_on_c, 1, 55, 80
3, 15495, Note_on_c, 1, 55, 0
3, 15499, Note_on_c, 1, 58, 80
3, 15534, Note_on_c, 1, 58, 0
3, 15540, Note_on_c, 1, 52, 80
3, 15575, Note_on_c, 1, 52, 0
3, 15579, Note_on_c, 1, 50, 80
3, 15615, Note_on_c, 1, 50, 0
3, 15619, Note_on_c, 1, 48, 80
3, 15654, Note_on_c, 1, 48, 0
3, 15660, Note_on_c, 1, 36, 80
3, 15660, Note_on_c, 1, 47, 80
3, 15765, Note_on_c, 1, 47, 0
3, 15765, Note_on_c, 1, 36, 0
3, 16020, Note_on_c, 1, 36, 80
3, 16020, Note_on_c, 1, 48, 80
3, 16125, Note_on_c, 1, 48, 0
3, 16125, Note_on_c, 1, 36, 0
3, 16230, Note_on_c, 1, 48, 80
3, 16256, Note_on_c, 1, 48, 0
3, 16260, Note_on_c, 1, 50, 80
3, 16338, Note_on_c, 1, 50, 0
3, 16350, Note_on_c, 1, 52, 80
3, 16376, Note_on_c, 1, 52, 0
3, 16380, Note_on_c, 1, 53, 80
3, 16415, Note_on_c, 1, 53, 0
3, 16419, Note_on_c, 1, 57, 80
3, 16455, Note_on_c, 1, 57, 0
3, 16459, Note_on_c, 1, 60, 80
3, 16494, Note_on_c, 1, 60, 0
3, 16500, Note_on_c, 1, 53, 80
3, 16535, Note_on_c, 1, 53, 0
3, 16539, Note_on_c, 1, 57, 80
3, 16575, Note_on_c, 1, 57, 0
3, 16579, Note_on_c, 1, 60, 80
3, 16614, Note_on_c, 1, 60, 0
3, 16620, Note_on_c, 1, 52, 80
3, 16655, Note_on_c, 1, 52, 0
3, 16659, Note_on_c, 1, 57, 80
3, 16695, Note_on_c, 1, 57, 0
3, 16699, Note_on_c, 1, 60, 80
3, 16734, Note_on_c, 1, 60, 0
3, 16740, Note_on_c, 1, 50, 80
3, 16775, Note_on_c, 1, 50, 0
3, 16779, Note_on_c, 1, 53, 80
3, 16815, Note_on_c, 1, 53, 0
3, 16819, Note_on_c, 1, 57, 80
3, 16854, Note_on_c, 1, 57, 0
3, 16860, Note_on_c, 1, 50, 80
3, 16895, Note_on_c, 1, 50, 0
3, 16899, Note_on_c, 1, 53, 80
3, 16935, Note_on_c, 1, 53, 0
3, 16939, Note_on_c, 1, 57, 80
3, 16974, Note_on_c, 1, 57, 0
3, 16980, Note_on_c, 1, 48, 80
3, 17015, Note_on_c, 1, 48, 0
3, 17019, Note_on_c, 1, 53, 80
3, 17055, Note_on_c, 1, 53, 0
3, 17059, Note_on_c, 1, 57, 80
3, 17094, Note_on_c, 1, 57, 0
3, 17100, Note_on_c, 1, 46, 80
3, 17135, Note_on_c, 1, 46, 0
3, 17139, Note_on_c, 1, 50, 80
3, 17175, Note_on_c, 1, 50, 0
3, 17179, Note_on_c, 1, 53, 80
3, 17214, Note_on_c, 1, 53, 0
3, 17220, Note_on_c, 1, 46, 80
3, 17255, Note_on_c, 1, 46, 0
3, 17259, Note_on_c, 1, 50, 80
3, 17295, Note_on_c, 1, 50, 0
3, 17299, Note_on_c, 1, 53, 80
3, 17334, Note_on_c, 1, 53, 0
3, 17340, Note_on_c, 1, 45, 80
3, 17375, Note_on_c, 1, 45, 0
3, 17379, Note_on_c, 1, 50, 80
3, 17415, Note_on_c, 1, 50, 0
3, 17419, Note_on_c, 1, 53, 80
3, 17454, Note_on_c, 1, 53, 0
3, 17460, Note_on_c, 1, 43, 80
3, 17495, Note_on_c, 1, 43, 0
3, 17499, Note_on_c, 1, 46, 80
3, 17535, Note_on_c, 1, 46, 0
3, 17539, Note_on_c, 1, 50, 80
3, 17574, Note_on_c, 1, 50, 0
3, 17580, Note_on_c, 1, 43, 80
3, 17615, Note_on_c, 1, 43, 0
3, 17619, Note_on_c, 1, 46, 80
3, 17655, Note_on_c, 1, 46, 0
3, 17659, Note_on_c, 1, 50, 80
3, 17694, Note_on_c, 1, 50, 0
3, 17700, Note_on_c, 1, 41, 80
3, 17735, Note_on_c, 1, 41, 0
3, 17739, Note_on_c, 1, 46, 80
3, 17775, Note_on_c, 1, 46, 0
3, 17779, Note_on_c, 1, 50, 80
3, 17814, Note_on_c, 1, 50, 0
3, 17820, Note_on_c, 1, 40, 80
3, 17855, Note_on_c, 1, 40, 0
3, 17859, Note_on_c, 1, 43, 80
3, 17895, Note_on_c, 1, 43, 0
3, 17899, Note_on_c, 1, 48, 80
3, 17934, Note_on_c, 1, 48, 0
3, 17940, Note_on_c, 1, 52, 80
3, 17975, Note_on_c, 1, 52, 0
3, 17979, Note_on_c, 1, 55, 80
3, 18015, Note_on_c, 1, 55, 0
3, 18019, Note_on_c, 1, 53, 80
3, 18054, Note_on_c, 1, 53, 0
3, 18060, Note_on_c, 1, 52, 80
3, 18095, Note_on_c, 1, 52, 0
3, 18099, Note_on_c, 1, 50, 80
3, 18135, Note_on_c, 1, 50, 0
3, 18139, Note_on_c, 1, 48, 80
3, 18174, Note_on_c, 1, 48, 0
3, 18180, Note_on_c, 1, 53, 80
3, 18258, Note_on_c, 1, 53, 0
3, 18270, Note_on_c, 1, 50, 80
3, 18296, Note_on_c, 1, 50, 0
3, 18300, Note_on_c, 1, 45, 80
3, 18378, Note_on_c, 1, 45, 0
3, 18390, Note_on_c, 1, 46, 80
3, 18416, Note_on_c, 1, 46, 0
3, 18420, Note_on_c, 1, 48, 80
3, 18498, Note_on_c, 1, 48, 0
3, 18510, Note_on_c, 1, 36, 80
3, 18536, Note_on_c, 1, 36, 0
3, 18540, Note_on_c, 1, 41, 80
3, 18618, Note_on_c, 1, 41, 0
3, 18630, Note_on_c, 1, 48, 80
3, 18656, Note_on_c, 1, 48, 0
3, 18660, Note_on_c, 1, 45, 80
3, 18738, Note_on_c, 1, 45, 0
3, 18750, Note_on_c, 1, 48, 80
3, 18776, Note_on_c, 1, 48, 0
3, 18780, Note_on_c, 1, 41, 80
3, 18858, Note_on_c, 1, 41, 0
3, 18870, Note_on_c, 1, 45, 80
3, 18896, Note_on_c, 1, 45, 0
3, 18900, Note_on_c, 1, 38, 80
3, 18978, Note_on_c, 1, 38, 0
3, 18990, Note_on_c, 1, 48, 80
3, 19016, Note_on_c, 1, 48, 0
3, 19020, Note_on_c, 1, 45, 80
3, 19098, Note_on_c, 1, 45, 0
3, 19110, Note_on_c, 1, 48, 80
3, 19136, Note_on_c, 1, 48, 0
3, 19140, Note_on_c, 1, 41, 80
3, 19218, Note_on_c, 1, 41, 0
3, 19230, Note_on_c, 1, 45, 80
3, 19256, Note_on_c, 1, 45, 0
3, 19260, Note_on_c, 1, 33, 80
3, 19338, Note_on_c, 1, 33, 0
3, 19350, Note_on_c, 1, 48, 80
3, 19376, Note_on_c, 1, 48, 0
3, 19380, Note_on_c, 1, 45, 80
3, 19458, Note_on_c, 1, 45, 0
3, 19470, Note_on_c, 1, 48, 80
3, 19496, Note_on_c, 1, 48, 0
3, 19500, Note_on_c, 1, 41, 80
3, 19578, Note_on_c, 1, 41, 0
3, 19590, Note_on_c, 1, 45, 80
3, 19616, Note_on_c, 1, 45, 0
3, 19620, Note_on_c, 1, 34, 80
3, 19698, Note_on_c, 1, 34, 0
3, 19710, Note_on_c, 1, 46, 80
3, 19736, Note_on_c, 1, 46, 0
3, 19740, Note_on_c, 1, 48, 80
3, 19845, Note_on_c, 1, 48, 0
3, 19860, Note_on_c, 1, 36, 80
3, 19965, Note_on_c, 1, 36, 0
3, 19980, Note_on_c, 1, 41, 80
3, 20205, Note_on_c, 1, 41, 0
3, 20220, Program_c, 1, 3
3, 20340, Note_on_c, 1, 53, 80
3, 20505, Note_on_c, 1, 53, 0
3, 20550, Note_on_c, 1, 57, 80
3, 20576, Note_on_c, 1, 57, 0
3, 20580, Note_on_c, 1, 60, 80
3, 20658, Note_on_c, 1, 60, 0
3, 20670, Note_on_c, 1, 63, 80
3, 20696, Note_on_c, 1, 63, 0
3, 20700, Note_on_c, 1, 51, 80
3, 20865, Note_on_c, 1, 51, 0
3, 20910, Note_on_c, 1, 54, 80
3, 20936, Note_on_c, 1, 54, 0
3, 20940, Note_on_c, 1, 57, 80
3, 21018, Note_on_c, 1, 57, 0
3, 21030, Note_on_c, 1, 60, 80
3, 21056, Note_on_c, 1, 60, 0
3, 21060, Note_on_c, 1, 50, 80
3, 21225, Note_on_c, 1, 50, 0
3, 21270, Note_on_c, 1, 57, 80
3, 21296, Note_on_c, 1, 57, 0
3, 21300, Note_on_c, 1, 62, 80
3, 21378, Note_on_c, 1, 62, 0
3, 21390, Note_on_c, 1, 66, 80
3, 21416, Note_on_c, 1, 66, 0
3, 21420, Note_on_c, 1, 67, 80
3, 21498, Note_on_c, 1, 67, 0
3, 21510, Note_on_c, 1, 55, 80
3, 21536, Note_on_c, 1, 55, 0
3, 21540, Note_on_c, 1, 53, 80
3, 21618, Note_on_c, 1, 53, 0
3, 21630, Note_on_c, 1, 65, 80
3, 21656, Note_on_c, 1, 65, 0
3, 21660, Note_on_c, 1, 63, 80
3, 21738, Note_on_c, 1, 63, 0
3, 21750, Note_on_c, 1, 51, 80
3, 21776, Note_on_c, 1, 51, 0
3, 21780, Note_on_c, 1, 50, 80
3, 21815, Note_on_c, 1, 50, 0
3, 21819, Note_on_c, 1, 54, 80
3, 21855, Note_on_c, 1, 54, 0
3, 21859, Note_on_c, 1, 57, 80
3, 21894, Note_on_c, 1, 57, 0
3, 21900, Note_on_c, 1, 62, 80
3, 21935, Note_on_c, 1, 62, 0
3, 21939, Note_on_c, 1, 66, 80
3, 21975, Note_on_c, 1, 66, 0
3, 21979, Note_on_c, 1, 69, 80
3, 22014, Note_on_c, 1, 69, 0
3, 22020, Note_on_c, 1, 72, 80
3, 22072, Note_on_c, 1, 72, 0
3, 22140, Note_on_c, 1, 43, 80
3, 22175, Note_on_c, 1, 43, 0
3, 22179, Note_on_c, 1, 46, 80
3, 22215, Note_on_c, 1, 46, 0
3, 22219, Note_on_c, 1, 50, 80
3, 22254, Note_on_c, 1, 50, 0
3, 22260, Note_on_c, 1, 55, 80
3, 22295, Note_on_c, 1, 55, 0
3, 22299, Note_on_c, 1, 58, 80
3, 22335, Note_on_c, 1, 58, 0
3, 22339, Note_on_c, 1, 62, 80
3, 22374, Note_on_c, 1, 62, 0
3, 22380, Note_on_c, 1, 65, 80
3, 22432, Note_on_c, 1, 65, 0
3, 22500, Note_on_c, 1, 48, 80
3, 22535, Note_on_c, 1, 48, 0
3, 22539, Note_on_c, 1, 51, 80
3, 22575, Note_on_c, 1, 51, 0
3, 22579, Note_on_c, 1, 55, 80
3, 22614, Note_on_c, 1, 55, 0
3, 22620, Note_on_c, 1, 60, 80
3, 22655, Note_on_c, 1, 60, 0
3, 22659, Note_on_c, 1, 63, 80
3, 22695, Note_on_c, 1, 63, 0
3, 22699, Note_on_c, 1, 67, 80
3, 22734, Note_on_c, 1, 67, 0
3, 22740, Note_on_c, 1, 70, 80
3, 22792, Note_on_c, 1, 70, 0
3, 22860, Note_on_c, 1, 41, 80
3, 22895, Note_on_c, 1, 41, 0
3, 22899, Note_on_c, 1, 45, 80
3, 22935, Note_on_c, 1, 45, 0
3, 22939, Note_on_c, 1, 48, 80
3, 22974, Note_on_c, 1, 48, 0
3, 22980, Note_on_c, 1, 53, 80
3, 23015, Note_on_c, 1, 53, 0
3, 23019, Note_on_c, 1, 57, 80
3, 23055, Note_on_c, 1, 57, 0
3, 23059, Note_on_c, 1, 60, 80
3, 23094, Note_on_c, 1, 60, 0
3, 23100, Note_on_c, 1, 63, 80
3, 23152, Note_on_c, 1, 63, 0
3, 23220, Note_on_c, 1, 46, 80
3, 23255, Note_on_c, 1, 46, 0
3, 23259, Note_on_c, 1, 50, 80
3, 23295, Note_on_c, 1, 50, 0
3, 23299, Note_on_c, 1, 53, 80
3, 23334, Note_on_c, 1, 53, 0
3, 23340, Note_on_c, 1, 58, 80
3, 23375, Note_on_c, 1, 58, 0
3, 23379, Note_on_c, 1, 62, 80
3, 23415, Note_on_c, 1, 62, 0
3, 23419, Note_on_c, 1, 65, 80
3, 23454, Note_on_c, 1, 65, 0
3, 23460, Note_on_c, 1, 68, 80
3, 23512, Note_on_c, 1, 68, 0
3, 23619, Note_on_c, 1, 63, 80
3, 23655, Note_on_c, 1, 63, 0
3, 23659, Note_on_c, 1, 62, 80
3, 23694, Note_on_c, 1, 62, 0
3, 23700, Note_on_c, 1, 60, 80
3, 23735, Note_on_c, 1, 60, 0
3, 23739, Note_on_c, 1, 63, 80
3, 23775, Note_on_c, 1, 63, 0
3, 23779, Note_on_c, 1, 67, 80
3, 23814, Note_on_c, 1, 67, 0
3, 23820, Note_on_c, 1, 65, 80
3, 23855, Note_on_c, 1, 65, 0
3, 23859, Note_on_c, 1, 62, 80
3, 23895, Note_on_c, 1, 62, 0
3, 23899, Note_on_c, 1, 58, 80
3, 23975, Note_on_c, 1, 58, 0
3, 23979, Note_on_c, 1, 60, 80
3, 24015, Note_on_c, 1, 60, 0
3, 24019, Note_on_c, 1, 58, 80
3, 24054, Note_on_c, 1, 58, 0
3, 24060, Note_on_c, 1, 56, 80
3, 24095, Note_on_c, 1, 56, 0
3, 24099, Note_on_c, 1, 60, 80
3, 24135, Note_on_c, 1, 60, 0
3, 24139, Note_on_c, 1, 63, 80
3, 24174, Note_on_c, 1, 63, 0
3, 24180, Note_on_c, 1, 62, 80
3, 24215, Note_on_c, 1, 62, 0
3, 24219, Note_on_c, 1, 59, 80
3, 24255, Note_on_c, 1, 59, 0
3, 24259, Note_on_c, 1, 55, 80
3, 24335, Note_on_c, 1, 55, 0
3, 24339, Note_on_c, 1, 57, 80
3, 24375, Note_on_c, 1, 57, 0
3, 24379, Note_on_c, 1, 55, 80
3, 24414, Note_on_c, 1, 55, 0
3, 24420, Note_on_c, 1, 54, 80
3, 24455, Note_on_c, 1, 54, 0
3, 24459, Note_on_c, 1, 57, 80
3, 24495, Note_on_c, 1, 57, 0
3, 24499, Note_on_c, 1, 60, 80
3, 24534, Note_on_c, 1, 60, 0
3, 24540, Note_on_c, 1, 58, 80
3, 24575, Note_on_c, 1, 58, 0
3, 24579, Note_on_c, 1, 55, 80
3, 24615, Note_on_c, 1, 55, 0
3, 24619, Note_on_c, 1, 51, 80
3, 24695, Note_on_c, 1, 51, 0
3, 24699, Note_on_c, 1, 60, 80
3, 24735, Note_on_c, 1, 60, 0
3, 24739, Note_on_c, 1, 57, 80
3, 24774, Note_on_c, 1, 57, 0
3, 24780, Note_on_c, 1, 54, 80
3, 24815, Note_on_c, 1, 54, 0
3, 24819, Note_on_c, 1, 55, 80
3, 24855, Note_on_c, 1, 55, 0
3, 24859, Note_on_c, 1, 57, 80
3, 24894, Note_on_c, 1, 57, 0
3, 24900, Note_on_c, 1, 51, 80
3, 24935, Note_on_c, 1, 51, 0
3, 24939, Note_on_c, 1, 50, 80
3, 24975, Note_on_c, 1, 50, 0
3, 24979, Note_on_c, 1, 48, 80
3, 25014, Note_on_c, 1, 48, 0
3, 25020, Note_on_c, 1, 46, 80
3, 25055, Note_on_c, 1, 46, 0
3, 25059, Note_on_c, 1, 55, 80
3, 25095, Note_on_c, 1, 55, 0
3, 25099, Note_on_c, 1, 50, 80
3, 25134, Note_on_c, 1, 50, 0
3, 25140, Note_on_c, 1, 46, 80
3, 25175, Note_on_c, 1, 46, 0
3, 25179, Note_on_c, 1, 48, 80
3, 25215, Note_on_c, 1, 48, 0
3, 25219, Note_on_c, 1, 50, 80
3, 25254, Note_on_c, 1, 50, 0
3, 25260, Note_on_c, 1, 43, 80
3, 25295, Note_on_c, 1, 43, 0
3, 25299, Note_on_c, 1, 42, 80
3, 25335, Note_on_c, 1, 42, 0
3, 25339, Note_on_c, 1, 40, 80
3, 25374, Note_on_c, 1, 40, 0
3, 25380, Note_on_c, 1, 38, 80
3, 25458, Note_on_c, 1, 38, 0
3, 25470, Note_on_c, 1, 49, 88
3, 25496, Note_on_c, 1, 49, 0
3, 25500, Note_on_c, 1, 38, 88
3, 25578, Note_on_c, 1, 38, 0
3, 25590, Note_on_c, 1, 49, 88
3, 25616, Note_on_c, 1, 49, 0
3, 25620, Note_on_c, 1, 38, 86
3, 25698, Note_on_c, 1, 38, 0
3, 25710, Note_on_c, 1, 49, 90
3, 25736, Note_on_c, 1, 49, 0
3, 25740, Note_on_c, 1, 38, 90
3, 25905, Note_on_c, 1, 38, 0
3, 25950, Note_on_c, 1, 51, 80
3, 25976, Note_on_c, 1, 51, 0
3, 25980, Note_on_c, 1, 50, 80
3, 26058, Note_on_c, 1, 50, 0
3, 26070, Note_on_c, 1, 48, 80
3, 26096, Note_on_c, 1, 48, 0
3, 26100, Note_on_c, 1, 46, 80
3, 26178, Note_on_c, 1, 46, 0
3, 26190, Note_on_c, 1, 54, 80
3, 26216, Note_on_c, 1, 54, 0
3, 26220, Note_on_c, 1, 55, 80
3, 26298, Note_on_c, 1, 55, 0
3, 26310, Note_on_c, 1, 48, 80
3, 26336, Note_on_c, 1, 48, 0
3, 26340, Note_on_c, 1, 50, 80
3, 26418, Note_on_c, 1, 50, 0
3, 26430, Note_on_c, 1, 38, 80
3, 26456, Note_on_c, 1, 38, 0
3, 26460, Note_on_c, 1, 43, 80
3, 26495, Note_on_c, 1, 43, 0
3, 26499, Note_on_c, 1, 46, 80
3, 26535, Note_on_c, 1, 46, 0
3, 26539, Note_on_c, 1, 42, 80
3, 26574, Note_on_c, 1, 42, 0
3, 26580, Note_on_c, 1, 43, 80
3, 26615, Note_on_c, 1, 43, 0
3, 26619, Note_on_c, 1, 38, 80
3, 26655, Note_on_c, 1, 38, 0
3, 26659, Note_on_c, 1, 43, 80
3, 26694, Note_on_c, 1, 43, 0
3, 26700, Note_on_c, 1, 46, 80
3, 26735, Note_on_c, 1, 46, 0
3, 26739, Note_on_c, 1, 50, 80
3, 26775, Note_on_c, 1, 50, 0
3, 26779, Note_on_c, 1, 43, 80
3, 26814, Note_on_c, 1, 43, 0
3, 26820, Note_on_c, 1, 38, 80
3, 26925, Note_on_c, 1, 38, 0
3, 27030, Note_on_c, 1, 46, 80
3, 27056, Note_on_c, 1, 46, 0
3, 27060, Note_on_c, 1, 50, 80
3, 27095, Note_on_c, 1, 50, 0
3, 27099, Note_on_c, 1, 53, 80
3, 27135, Note_on_c, 1, 53, 0
3, 27139, Note_on_c, 1, 46, 80
3, 27174, Note_on_c, 1, 46, 0
3, 27180, Note_on_c, 1, 51, 80
3, 27335, Note_on_c, 1, 51, 0
3, 27339, Note_on_c, 1, 55, 80
3, 27375, Note_on_c, 1, 55, 0
3, 27379, Note_on_c, 1, 51, 80
3, 27414, Note_on_c, 1, 51, 0
3, 27420, Note_on_c, 1, 48, 80
3, 27455, Note_on_c, 1, 48, 0
3, 27459, Note_on_c, 1, 51, 80
3, 27495, Note_on_c, 1, 51, 0
3, 27499, Note_on_c, 1, 43, 80
3, 27534, Note_on_c, 1, 43, 0
3, 27540, Note_on_c, 1, 45, 80
3, 27618, Note_on_c, 1, 45, 0
3, 27630, Note_on_c, 1, 53, 80
3, 27656, Note_on_c, 1, 53, 0
3, 27660, Note_on_c, 1, 58, 80
3, 27738, Note_on_c, 1, 58, 0
3, 27750, Note_on_c, 1, 50, 80
3, 27776, Note_on_c, 1, 50, 0
3, 27780, Note_on_c, 1, 51, 80
3, 27858, Note_on_c, 1, 51, 0
3, 27870, Note_on_c, 1, 48, 80
3, 27896, Note_on_c, 1, 48, 0
3, 27900, Note_on_c, 1, 41, 80
3, 27935, Note_on_c, 1, 41, 0
3, 27939, Note_on_c, 1, 45, 80
3, 27975, Note_on_c, 1, 45, 0
3, 27979, Note_on_c, 1, 48, 80
3, 28014, Note_on_c, 1, 48, 0
3, 28020, Note_on_c, 1, 53, 80
3, 28055, Note_on_c, 1, 53, 0
3, 28059, Note_on_c, 1, 57, 80
3, 28095, Note_on_c, 1, 57, 0
3, 28099, Note_on_c, 1, 60, 80
3, 28134, Note_on_c, 1, 60, 0
3, 28140, Note_on_c, 1, 51, 80
3, 28175, Note_on_c, 1, 51, 0
3, 28179, Note_on_c, 1, 50, 80
3, 28215, Note_on_c, 1, 50, 0
3, 28219, Note_on_c, 1, 48, 80
3, 28254, Note_on_c, 1, 48, 0
3, 28260, Note_on_c, 1, 41, 80
3, 28295, Note_on_c, 1, 41, 0
3, 28299, Note_on_c, 1, 46, 80
3, 28335, Note_on_c, 1, 46, 0
3, 28339, Note_on_c, 1, 50, 80
3, 28374, Note_on_c, 1, 50, 0
3, 28380, Note_on_c, 1, 53, 80
3, 28415, Note_on_c, 1, 53, 0
3, 28419, Note_on_c, 1, 58, 80
3, 28455, Note_on_c, 1, 58, 0
3, 28459, Note_on_c, 1, 62, 80
3, 28494, Note_on_c, 1, 62, 0
3, 28500, Note_on_c, 1, 53, 80
3, 28535, Note_on_c, 1, 53, 0
3, 28539, Note_on_c, 1, 51, 80
3, 28575, Note_on_c, 1, 51, 0
3, 28579, Note_on_c, 1, 50, 80
3, 28614, Note_on_c, 1, 50, 0
3, 28620, Note_on_c, 1, 41, 80
3, 28655, Note_on_c, 1, 41, 0
3, 28659, Note_on_c, 1, 48, 80
3, 28695, Note_on_c, 1, 48, 0
3, 28699, Note_on_c, 1, 53, 80
3, 28734, Note_on_c, 1, 53, 0
3, 28740, Note_on_c, 1, 57, 80
3, 28775, Note_on_c, 1, 57, 0
3, 28779, Note_on_c, 1, 60, 80
3, 28815, Note_on_c, 1, 60, 0
3, 28819, Note_on_c, 1, 63, 80
3, 28854, Note_on_c, 1, 63, 0
3, 28860, Note_on_c, 1, 57, 80
3, 28895, Note_on_c, 1, 57, 0
3, 28899, Note_on_c, 1, 55, 80
3, 28935, Note_on_c, 1, 55, 0
3, 28939, Note_on_c, 1, 53, 80
3, 28974, Note_on_c, 1, 53, 0
3, 28980, Note_on_c, 1, 41, 80
3, 28980, Note_on_c, 1, 52, 80
3, 29085, Note_on_c, 1, 52, 0
3, 29085, Note_on_c, 1, 41, 0
3, 29340, Note_on_c, 1, 41, 80
3, 29340, Note_on_c, 1, 53, 80
3, 29445, Note_on_c, 1, 53, 0
3, 29495, Note_on_c, 1, 41, 0
3, 29499, Note_on_c, 1, 45, 80
3, 29535, Note_on_c, 1, 45, 0
3, 29539, Note_on_c, 1, 48, 80
3, 29574, Note_on_c, 1, 48, 0
3, 29580, Note_on_c, 1, 53, 80
3, 29615, Note_on_c, 1, 53, 0
3, 29619, Note_on_c, 1, 55, 80
3, 29655, Note_on_c, 1, 55, 0
3, 29659, Note_on_c, 1, 57, 80
3, 29694, Note_on_c, 1, 57, 0
3, 29700, Note_on_c, 1, 58, 80
3, 29778, Note_on_c, 1, 58, 0
3, 29790, Note_on_c, 1, 57, 80
3, 29816, Note_on_c, 1, 57, 0
3, 29820, Note_on_c, 1, 58, 80
3, 29898, Note_on_c, 1, 58, 0
3, 29910, Note_on_c, 1, 52, 80
3, 29936, Note_on_c, 1, 52, 0
3, 29940, Note_on_c, 1, 53, 80
3, 30018, Note_on_c, 1, 53, 0
3, 30030, Note_on_c, 1, 41, 80
3, 30056, Note_on_c, 1, 41, 0
3, 30060, Note_on_c, 1, 46, 80
3, 30095, Note_on_c, 1, 46, 0
3, 30099, Note_on_c, 1, 50, 80
3, 30135, Note_on_c, 1, 50, 0
3, 30139, Note_on_c, 1, 51, 80
3, 30174, Note_on_c, 1, 51, 0
3, 30180, Note_on_c, 1, 53, 80
3, 30215, Note_on_c, 1, 53, 0
3, 30219, Note_on_c, 1, 50, 80
3, 30255, Note_on_c, 1, 50, 0
3, 30259, Note_on_c, 1, 48, 80
3, 30294, Note_on_c, 1, 48, 0
3, 30300, Note_on_c, 1, 46, 80
3, 30335, Note_on_c, 1, 46, 0
3, 30339, Note_on_c, 1, 50, 80
3, 30375, Note_on_c, 1, 50, 0
3, 30379, Note_on_c, 1, 55, 80
3, 30414, Note_on_c, 1, 55, 0
3, 30420, Note_on_c, 1, 43, 80
3, 30525, Note_on_c, 1, 43, 0
3, 30780, Note_on_c, 1, 38, 80
3, 30815, Note_on_c, 1, 38, 0
3, 30819, Note_on_c, 1, 46, 80
3, 30855, Note_on_c, 1, 46, 0
3, 30859, Note_on_c, 1, 48, 80
3, 30894, Note_on_c, 1, 48, 0
3, 30900, Note_on_c, 1, 50, 80
3, 30935, Note_on_c, 1, 50, 0
3, 30939, Note_on_c, 1, 48, 80
3, 30975, Note_on_c, 1, 48, 0
3, 30979, Note_on_c, 1, 46, 80
3, 31014, Note_on_c, 1, 46, 0
3, 31020, Note_on_c, 1, 53, 80
3, 31055, Note_on_c, 1, 53, 0
3, 31059, Note_on_c, 1, 50, 80
3, 31095, Note_on_c, 1, 50, 0
3, 31099, Note_on_c, 1, 46, 80
3, 31134, Note_on_c, 1, 46, 0
3, 31140, Note_on_c, 1, 39, 80
3, 31218, Note_on_c, 1, 39, 0
3, 31230, Note_on_c, 1, 51, 80
3, 31256, Note_on_c, 1, 51, 0
3, 31260, Note_on_c, 1, 53, 80
3, 31365, Note_on_c, 1, 53, 0
3, 31380, Note_on_c, 1, 41, 80
3, 31485, Note_on_c, 1, 41, 0
3, 31500, Note_on_c, 1, 46, 80
3, 31725, Note_on_c, 1, 46, 0
3, 31740, Program_c, 1, 81
3, 31860, Note_on_c, 1, 53, 80
3, 32025, Note_on_c, 1, 53, 0
3, 32070, Note_on_c, 1, 57, 80
3, 32096, Note_on_c, 1, 57, 0
3, 32100, Note_on_c, 1, 60, 80
3, 32178, Note_on_c, 1, 60, 0
3, 32190, Note_on_c, 1, 63, 80
3, 32216, Note_on_c, 1, 63, 0
3, 32220, Note_on_c, 1, 51, 80
3, 32385, Note_on_c, 1, 51, 0
3, 32430, Note_on_c, 1, 54, 80
3, 32456, Note_on_c, 1, 54, 0
3, 32460, Note_on_c, 1, 57, 80
3, 32538, Note_on_c, 1, 57, 0
3, 32550, Note_on_c, 1, 60, 80
3, 32576, Note_on_c, 1, 60, 0
3, 32580, Note_on_c, 1, 50, 80
3, 32745, Note_on_c, 1, 50, 0
3, 32790, Note_on_c, 1, 57, 80
3, 32816, Note_on_c, 1, 57, 0
3, 32820, Note_on_c, 1, 62, 80
3, 32898, Note_on_c, 1, 62, 0
3, 32910, Note_on_c, 1, 66, 80
3, 32936, Note_on_c, 1, 66, 0
3, 32940, Note_on_c, 1, 67, 80
3, 33018, Note_on_c, 1, 67, 0
3, 33030, Note_on_c, 1, 55, 80
3, 33056, Note_on_c, 1, 55, 0
3, 33060, Note_on_c, 1, 53, 80
3, 33138, Note_on_c, 1, 53, 0
3, 33150, Note_on_c, 1, 65, 80
3, 33176, Note_on_c, 1, 65, 0
3, 33180, Note_on_c, 1, 63, 80
3, 33258, Note_on_c, 1, 63, 0
3, 33270, Note_on_c, 1, 51, 80
3, 33296, Note_on_c, 1, 51, 0
3, 33300, Note_on_c, 1, 50, 80
3, 33335, Note_on_c, 1, 50, 0
3, 33339, Note_on_c, 1, 54, 80
3, 33375, Note_on_c, 1, 54, 0
3, 33379, Note_on_c, 1, 57, 80
3, 33414, Note_on_c, 1, 57, 0
3, 33420, Note_on_c, 1, 62, 80
3, 33455, Note_on_c, 1, 62, 0
3, 33459, Note_on_c, 1, 66, 80
3, 33495, Note_on_c, 1, 66, 0
3, 33499, Note_on_c, 1, 69, 80
3, 33534, Note_on_c, 1, 69, 0
3, 33540, Note_on_c, 1, 72, 80
3, 33592, Note_on_c, 1, 72, 0
3, 33660, Note_on_c, 1, 43, 80
3, 33695, Note_on_c, 1, 43, 0
3, 33699, Note_on_c, 1, 46, 80
3, 33735, Note_on_c, 1, 46, 0
3, 33739, Note_on_c, 1, 50, 80
3, 33774, Note_on_c, 1, 50, 0
3, 33780, Note_on_c, 1, 55, 80
3, 33815, Note_on_c, 1, 55, 0
3, 33819, Note_on_c, 1, 58, 80
3, 33855, Note_on_c, 1, 58, 0
3, 33859, Note_on_c, 1, 62, 80
3, 33894, Note_on_c, 1, 62, 0
3, 33900, Note_on_c, 1, 65, 80
3, 33952, Note_on_c, 1, 65, 0
3, 34020, Note_on_c, 1, 48, 80
3, 34055, Note_on_c, 1, 48, 0
3, 34059, Note_on_c, 1, 51, 80
3, 34095, Note_on_c, 1, 51, 0
3, 34099, Note_on_c, 1, 55, 80
3, 34134, Note_on_c, 1, 55, 0
3, 34140, Note_on_c, 1, 60, 80
3, 34175, Note_on_c, 1, 60, 0
3, 34179, Note_on_c, 1, 63, 80
3, 34215, Note_on_c, 1, 63, 0
3, 34219, Note_on_c, 1, 67, 80
3, 34254, Note_on_c, 1, 67, 0
3, 34260, Note_on_c, 1, 70, 80
3, 34312, Note_on_c, 1, 70, 0
3, 34380, Note_on_c, 1, 41, 80
3, 34415, Note_on_c, 1, 41, 0
3, 34419, Note_on_c, 1, 45, 80
3, 34455, Note_on_c, 1, 45, 0
3, 34459, Note_on_c, 1, 48, 80
3, 34494, Note_on_c, 1, 48, 0
3, 34500, Note_on_c, 1, 53, 80
3, 34535, Note_on_c, 1, 53, 0
3, 34539, Note_on_c, 1, 57, 80
3, 34575, Note_on_c, 1, 57, 0
3, 34579, Note_on_c, 1, 60, 80
3, 34614, Note_on_c, 1, 60, 0
3, 34620, Note_on_c, 1, 63, 80
3, 34672, Note_on_c, 1, 63, 0
3, 34740, Note_on_c, 1, 46, 80
3, 34775, Note_on_c, 1, 46, 0
3, 34779, Note_on_c, 1, 50, 80
3, 34815, Note_on_c, 1, 50, 0
3, 34819, Note_on_c, 1, 53, 80
3, 34854, Note_on_c, 1, 53, 0
3, 34860, Note_on_c, 1, 58, 80
3, 34895, Note_on_c, 1, 58, 0
3, 34899, Note_on_c, 1, 62, 80
3, 34935, Note_on_c, 1, 62, 0
3, 34939, Note_on_c, 1, 65, 80
3, 34974, Note_on_c, 1, 65, 0
3, 34980, Note_on_c, 1, 68, 80
3, 35032, Note_on_c, 1, 68, 0
3, 35139, Note_on_c, 1, 63, 80
3, 35175, Note_on_c, 1, 63, 0
3, 35179, Note_on_c, 1, 62, 80
3, 35214, Note_on_c, 1, 62, 0
3, 35220, Note_on_c, 1, 60, 80
3, 35255, Note_on_c, 1, 60, 0
3, 35259, Note_on_c, 1, 63, 80
3, 35295, Note_on_c, 1, 63, 0
3, 35299, Note_on_c, 1, 67, 80
3, 35334, Note_on_c, 1, 67, 0
3, 35340, Note_on_c, 1, 65, 80
3, 35375, Note_on_c, 1, 65, 0
3, 35379, Note_on_c, 1, 62, 80
3, 35415, Note_on_c, 1, 62, 0
3, 35419, Note_on_c, 1, 58, 80
3, 35495, Note_on_c, 1, 58, 0
3, 35499, Note_on_c, 1, 60, 80
3, 35535, Note_on_c, 1, 60, 0
3, 35539, Note_on_c, 1, 58, 80
3, 35574, Note_on_c, 1, 58, 0
3, 35580, Note_on_c, 1, 56, 80
3, 35615, Note_on_c, 1, 56, 0
3, 35619, Note_on_c, 1, 60, 80
3, 35655, Note_on_c, 1, 60, 0
3, 35659, Note_on_c, 1, 63, 80
3, 35694, Note_on_c, 1, 63, 0
3, 35700, Note_on_c, 1, 62, 80
3, 35735, Note_on_c, 1, 62, 0
3, 35739, Note_on_c, 1, 59, 80
3, 35775, Note_on_c, 1, 59, 0
3, 35779, Note_on_c, 1, 55, 80
3, 35855, Note_on_c, 1, 55, 0
3, 35859, Note_on_c, 1, 57, 80
3, 35895, Note_on_c, 1, 57, 0
3, 35899, Note_on_c, 1, 55, 80
3, 35934, Note_on_c, 1, 55, 0
3, 35940, Note_on_c, 1, 54, 80
3, 35975, Note_on_c, 1, 54, 0
3, 35979, Note_on_c, 1, 57, 80
3, 36015, Note_on_c, 1, 57, 0
3, 36019, Note_on_c, 1, 60, 80
3, 36054, Note_on_c, 1, 60, 0
3, 36060, Note_on_c, 1, 58, 80
3, 36095, Note_on_c, 1, 58, 0
3, 36099, Note_on_c, 1, 55, 80
3, 36135, Note_on_c, 1, 55, 0
3, 36139, Note_on_c, 1, 51, 80
3, 36215, Note_on_c, 1, 51, 0
3, 36219, Note_on_c, 1, 60, 80
3, 36255, Note_on_c, 1, 60, 0
3, 36259, Note_on_c, 1, 57, 80
3, 36294, Note_on_c, 1, 57, 0
3, 36300, Note_on_c, 1, 54, 80
3, 36335, Note_on_c, 1, 54, 0
3, 36339, Note_on_c, 1, 55, 80
3, 36375, Note_on_c, 1, 55, 0
3, 36379, Note_on_c, 1, 57, 80
3, 36414, Note_on_c, 1, 57, 0
3, 36420, Note_on_c, 1, 51, 80
3, 36455, Note_on_c, 1, 51, 0
3, 36459, Note_on_c, 1, 50, 80
3, 36495, Note_on_c, 1, 50, 0
3, 36499, Note_on_c, 1, 48, 80
3, 36534, Note_on_c, 1, 48, 0
3, 36540, Note_on_c, 1, 46, 80
3, 36575, Note_on_c, 1, 46, 0
3, 36579, Note_on_c, 1, 55, 80
3, 36615, Note_on_c, 1, 55, 0
3, 36619, Note_on_c, 1, 50, 80
3, 36654, Note_on_c, 1, 50, 0
3, 36660, Note_on_c, 1, 46, 80
3, 36695, Note_on_c, 1, 46, 0
3, 36699, Note_on_c, 1, 48, 80
3, 36735, Note_on_c, 1, 48, 0
3, 36739, Note_on_c, 1, 50, 80
3, 36774, Note_on_c, 1, 50, 0
3, 36780, Note_on_c, 1, 43, 80
3, 36815, Note_on_c, 1, 43, 0
3, 36819, Note_on_c, 1, 42, 80
3, 36855, Note_on_c, 1, 42, 0
3, 36859, Note_on_c, 1, 40, 80
3, 36894, Note_on_c, 1, 40, 0
3, 36900, Note_on_c, 1, 38, 80
3, 36978, Note_on_c, 1, 38, 0
3, 36990, Note_on_c, 1, 49, 90
3, 37016, Note_on_c, 1, 49, 0
3, 37020, Note_on_c, 1, 38, 90
3, 37098, Note_on_c, 1, 38, 0
3, 37110, Note_on_c, 1, 49, 90
3, 37136, Note_on_c, 1, 49, 0
3, 37140, Note_on_c, 1, 38, 88
3, 37218, Note_on_c, 1, 38, 0
3, 37230, Note_on_c, 1, 49, 88
3, 37256, Note_on_c, 1, 49, 0
3, 37260, Note_on_c, 1, 38, 88
3, 37425, Note_on_c, 1, 38, 0
3, 37470, Note_on_c, 1, 51, 80
3, 37496, Note_on_c, 1, 51, 0
3, 37500, Note_on_c, 1, 50, 80
3, 37578, Note_on_c, 1, 50, 0
3, 37590, Note_on_c, 1, 48, 80
3, 37616, Note_on_c, 1, 48, 0
3, 37620, Note_on_c, 1, 46, 80
3, 37698, Note_on_c, 1, 46, 0
3, 37710, Note_on_c, 1, 54, 80
3, 37736, Note_on_c, 1, 54, 0
3, 37740, Note_on_c, 1, 55, 80
3, 37818, Note_on_c, 1, 55, 0
3, 37830, Note_on_c, 1, 48, 80
3, 37856, Note_on_c, 1, 48, 0
3, 37860, Note_on_c, 1, 50, 80
3, 37938, Note_on_c, 1, 50, 0
3, 37950, Note_on_c, 1, 38, 80
3, 37976, Note_on_c, 1, 38, 0
3, 37980, Note_on_c, 1, 43, 80
3, 38015, Note_on_c, 1, 43, 0
3, 38019, Note_on_c, 1, 46, 80
3, 38055, Note_on_c, 1, 46, 0
3, 38059, Note_on_c, 1, 42, 80
3, 38094, Note_on_c, 1, 42, 0
3, 38100, Note_on_c, 1, 43, 80
3, 38135, Note_on_c, 1, 43, 0
3, 38139, Note_on_c, 1, 38, 80
3, 38175, Note_on_c, 1, 38, 0
3, 38179, Note_on_c, 1, 43, 80
3, 38214, Note_on_c, 1, 43, 0
3, 38220, Note_on_c, 1, 46, 80
3, 38255, Note_on_c, 1, 46, 0
3, 38259, Note_on_c, 1, 50, 80
3, 38295, Note_on_c, 1, 50, 0
3, 38299, Note_on_c, 1, 43, 80
3, 38334, Note_on_c, 1, 43, 0
3, 38340, Note_on_c, 1, 38, 80
3, 38445, Note_on_c, 1, 38, 0
3, 38550, Note_on_c, 1, 46, 80
3, 38576, Note_on_c, 1, 46, 0
3, 38580, Note_on_c, 1, 50, 80
3, 38615, Note_on_c, 1, 50, 0
3, 38619, Note_on_c, 1, 53, 80
3, 38655, Note_on_c, 1, 53, 0
3, 38659, Note_on_c, 1, 46, 80
3, 38694, Note_on_c, 1, 46, 0
3, 38700, Note_on_c, 1, 51, 80
3, 38855, Note_on_c, 1, 51, 0
3, 38859, Note_on_c, 1, 55, 80
3, 38895, Note_on_c, 1, 55, 0
3, 38899, Note_on_c, 1, 51, 80
3, 38934, Note_on_c, 1, 51, 0
3, 38940, Note_on_c, 1, 48, 80
3, 38975, Note_on_c, 1, 48, 0
3, 38979, Note_on_c, 1, 51, 80
3, 39015, Note_on_c, 1, 51, 0
3, 39019, Note_on_c, 1, 43, 80
3, 39054, Note_on_c, 1, 43, 0
3, 39060, Note_on_c, 1, 45, 80
3, 39138, Note_on_c, 1, 45, 0
3, 39150, Note_on_c, 1, 53, 80
3, 39176, Note_on_c, 1, 53, 0
3, 39180, Note_on_c, 1, 58, 80
3, 39258, Note_on_c, 1, 58, 0
3, 39270, Note_on_c, 1, 50, 80
3, 39296, Note_on_c, 1, 50, 0
3, 39300, Note_on_c, 1, 51, 80
3, 39378, Note_on_c, 1, 51, 0
3, 39390, Note_on_c, 1, 48, 80
3, 39416, Note_on_c, 1, 48, 0
3, 39420, Note_on_c, 1, 41, 80
3, 39455, Note_on_c, 1, 41, 0
3, 39459, Note_on_c, 1, 45, 80
3, 39495, Note_on_c, 1, 45, 0
3, 39499, Note_on_c, 1, 48, 80
3, 39534, Note_on_c, 1, 48, 0
3, 39540, Note_on_c, 1, 53, 80
3, 39575, Note_on_c, 1, 53, 0
3, 39579, Note_on_c, 1, 57, 80
3, 39615, Note_on_c, 1, 57, 0
3, 39619, Note_on_c, 1, 60, 80
3, 39654, Note_on_c, 1, 60, 0
3, 39660, Note_on_c, 1, 51, 80
3, 39695, Note_on_c, 1, 51, 0
3, 39699, Note_on_c, 1, 50, 80
3, 39735, Note_on_c, 1, 50, 0
3, 39739, Note_on_c, 1, 48, 80
3, 39774, Note_on_c, 1, 48, 0
3, 39780, Note_on_c, 1, 41, 80
3, 39815, Note_on_c, 1, 41, 0
3, 39819, Note_on_c, 1, 46, 80
3, 39855, Note_on_c, 1, 46, 0
3, 39859, Note_on_c, 1, 50, 80
3, 39894, Note_on_c, 1, 50, 0
3, 39900, Note_on_c, 1, 53, 80
3, 39935, Note_on_c, 1, 53, 0
3, 39939, Note_on_c, 1, 58, 80
3, 39975, Note_on_c, 1, 58, 0
3, 39979, Note_on_c, 1, 62, 80
3, 40014, Note_on_c, 1, 62, 0
3, 40020, Note_on_c, 1, 53, 80
3, 40055, Note_on_c, 1, 53, 0
3, 40059, Note_on_c, 1, 51, 80
3, 40095, Note_on_c, 1, 51, 0
3, 40099, Note_on_c, 1, 50, 80
3, 40134, Note_on_c, 1, 50, 0
3, 40140, Note_on_c, 1, 41, 80
3, 40175, Note_on_c, 1, 41, 0
3, 40179, Note_on_c, 1, 48, 80
3, 40215, Note_on_c, 1, 48, 0
3, 40219, Note_on_c, 1, 53, 80
3, 40254, Note_on_c, 1, 53, 0
3, 40260, Note_on_c, 1, 57, 80
3, 40295, Note_on_c, 1, 57, 0
3, 40299, Note_on_c, 1, 60, 80
3, 40335, Note_on_c, 1, 60, 0
3, 40339, Note_on_c, 1, 63, 80
3, 40374, Note_on_c, 1, 63, 0
3, 40380, Note_on_c, 1, 57, 80
3, 40415, Note_on_c, 1, 57, 0
3, 40419, Note_on_c, 1, 55, 80
3, 40455, Note_on_c, 1, 55, 0
3, 40459, Note_on_c, 1, 53, 80
3, 40494, Note_on_c, 1, 53, 0
3, 40500, Note_on_c, 1, 41, 80
3, 40500, Note_on_c, 1, 52, 80
3, 40605, Note_on_c, 1, 52, 0
3, 40605, Note_on_c, 1, 41, 0
3, 40860, Note_on_c, 1, 41, 80
3, 40860, Note_on_c, 1, 53, 80
3, 40965, Note_on_c, 1, 53, 0
3, 41015, Note_on_c, 1, 41, 0
3, 41019, Note_on_c, 1, 45, 80
3, 41055, Note_on_c, 1, 45, 0
3, 41059, Note_on_c, 1, 48, 80
3, 41094, Note_on_c, 1, 48, 0
3, 41100, Note_on_c, 1, 53, 80
3, 41135, Note_on_c, 1, 53, 0
3, 41139, Note_on_c, 1, 55, 80
3, 41175, Note_on_c, 1, 55, 0
3, 41179, Note_on_c, 1, 57, 80
3, 41214, Note_on_c, 1, 57, 0
3, 41220, Note_on_c, 1, 58, 80
3, 41298, Note_on_c, 1, 58, 0
3, 41310, Note_on_c, 1, 57, 80
3, 41336, Note_on_c, 1, 57, 0
3, 41340, Note_on_c, 1, 58, 80
3, 41418, Note_on_c, 1, 58, 0
3, 41430, Note_on_c, 1, 52, 80
3, 41456, Note_on_c, 1, 52, 0
3, 41460, Note_on_c, 1, 53, 80
3, 41538, Note_on_c, 1, 53, 0
3, 41550, Note_on_c, 1, 41, 80
3, 41576, Note_on_c, 1, 41, 0
3, 41580, Note_on_c, 1, 46, 80
3, 41615, Note_on_c, 1, 46, 0
3, 41619, Note_on_c, 1, 50, 80
3, 41655, Note_on_c, 1, 50, 0
3, 41659, Note_on_c, 1, 51, 80
3, 41694, Note_on_c, 1, 51, 0
3, 41700, Note_on_c, 1, 53, 80
3, 41735, Note_on_c, 1, 53, 0
3, 41739, Note_on_c, 1, 50, 80
3, 41775, Note_on_c, 1, 50, 0
3, 41779, Note_on_c, 1, 48, 80
3, 41814, Note_on_c, 1, 48, 0
3, 41820, Note_on_c, 1, 46, 80
3, 41855, Note_on_c, 1, 46, 0
3, 41859, Note_on_c, 1, 50, 80
3, 41895, Note_on_c, 1, 50, 0
3, 41899, Note_on_c, 1, 55, 80
3, 41934, Note_on_c, 1, 55, 0
3, 41940, Note_on_c, 1, 43, 80
3, 42045, Note_on_c, 1, 43, 0
3, 42300, Note_on_c, 1, 38, 80
3, 42335, Note_on_c, 1, 38, 0
3, 42339, Note_on_c, 1, 46, 80
3, 42375, Note_on_c, 1, 46, 0
3, 42379, Note_on_c, 1, 48, 80
3, 42414, Note_on_c, 1, 48, 0
3, 42420, Note_on_c, 1, 50, 80
3, 42455, Note_on_c, 1, 50, 0
3, 42459, Note_on_c, 1, 48, 80
3, 42495, Note_on_c, 1, 48, 0
3, 42499, Note_on_c, 1, 46, 80
3, 42534, Note_on_c, 1, 46, 0
3, 42540, Note_on_c, 1, 53, 80
3, 42575, Note_on_c, 1, 53, 0
3, 42579, Note_on_c, 1, 50, 80
3, 42615, Note_on_c, 1, 50, 0
3, 42619, Note_on_c, 1, 46, 80
3, 42654, Note_on_c, 1, 46, 0
3, 42660, Note_on_c, 1, 39, 80
3, 42738, Note_on_c, 1, 39, 0
3, 42750, Note_on_c, 1, 51, 80
3, 42776, Note_on_c, 1, 51, 0
3, 42780, Note_on_c, 1, 53, 80
3, 42885, Note_on_c, 1, 53, 0
3, 42900, Note_on_c, 1, 41, 80
3, 43005, Note_on_c, 1, 41, 0
3, 43020, Note_on_c, 1, 46, 80
3, 43245, Note_on_c, 1, 46, 0
3, 43245, End_track
0, 0, End_of_file
