0, 0, Header, 1, 6, 120
1, 0, Start_track
1, 0, Time_signature, 1, 3, 12, 8
1, 0, Key_signature, -3, "major"
1, 0, Tempo, 521739
1, 60, Time_signature, 3, 1, 48, 8
1, 8220, Tempo, 571428
1, 8703, Tempo, 521739
1, 16863, Tempo, 588235
1, 16990, Tempo, 652173
1, 17343, Tempo, 517241
1, 25503, Tempo, 588235
1, 25673, Tempo, 681818
1, 25980, Tempo, 517241
1, 34020, Tempo, 588235
1, 34263, Tempo, 923076
1, 34266, Tempo, 769230
1, 34270, Tempo, 909090
1, 34380, Tempo, 1428571
1, 34380, End_track
2, 0, Start_track
2, 0, MIDI_port, 0
2, 0, Program_c, 0, 80
2, 0, Control_c, 0, 7, 119
2, 0, Control_c, 0, 10, 20
2, 80, Control_c, 0, 7, 120
2, 82, Control_c, 0, 10, 20
2, 84, Program_c, 0, 80
2, 120, Note_on_c, 0, 72, 100
2, 172, Note_on_c, 0, 72, 0
2, 180, Note_on_c, 0, 72, 100
2, 326, Note_on_c, 0, 72, 0
2, 330, Note_on_c, 0, 67, 100
2, 356, Note_on_c, 0, 67, 0
2, 360, Note_on_c, 0, 69, 100
2, 386, Note_on_c, 0, 69, 0
2, 390, Note_on_c, 0, 71, 100
2, 416, Note_on_c, 0, 71, 0
2, 420, Note_on_c, 0, 72, 100
2, 472, Note_on_c, 0, 72, 0
2, 480, Note_on_c, 0, 74, 100
2, 532, Note_on_c, 0, 74, 0
2, 540, Note_on_c, 0, 75, 100
2, 592, Note_on_c, 0, 75, 0
2, 600, Note_on_c, 0, 72, 100
2, 652, Note_on_c, 0, 72, 0
2, 660, Note_on_c, 0, 80, 100
2, 825, Note_on_c, 0, 80, 0
2, 840, Note_on_c, 0, 80, 100
2, 892, Note_on_c, 0, 80, 0
2, 900, Note_on_c, 0, 79, 100
2, 1485, Note_on_c, 0, 79, 0
2, 1500, Note_on_c, 0, 77, 100
2, 1646, Note_on_c, 0, 77, 0
2, 1650, Note_on_c, 0, 80, 100
2, 1676, Note_on_c, 0, 80, 0
2, 1680, Note_on_c, 0, 79, 100
2, 1706, Note_on_c, 0, 79, 0
2, 1710, Note_on_c, 0, 77, 100
2, 1736, Note_on_c, 0, 77, 0
2, 1740, Note_on_c, 0, 79, 100
2, 1792, Note_on_c, 0, 79, 0
2, 1800, Note_on_c, 0, 74, 100
2, 1852, Note_on_c, 0, 74, 0
2, 1860, Note_on_c, 0, 75, 100
2, 2152, Note_on_c, 0, 75, 0
2, 2160, Note_on_c, 0, 75, 100
2, 2212, Note_on_c, 0, 75, 0
2, 2220, Note_on_c, 0, 74, 100
2, 2272, Note_on_c, 0, 74, 0
2, 2280, Note_on_c, 0, 72, 100
2, 2332, Note_on_c, 0, 72, 0
2, 2340, Note_on_c, 0, 71, 100
2, 2353, Note_on_c, 0, 71, 0
2, 2355, Note_on_c, 0, 72, 100
2, 2368, Note_on_c, 0, 72, 0
2, 2370, Note_on_c, 0, 71, 100
2, 2383, Note_on_c, 0, 71, 0
2, 2385, Note_on_c, 0, 72, 100
2, 2398, Note_on_c, 0, 72, 0
2, 2400, Note_on_c, 0, 71, 100
2, 2505, Note_on_c, 0, 71, 0
2, 2520, Note_on_c, 0, 72, 100
2, 2572, Note_on_c, 0, 72, 0
2, 2580, Note_on_c, 0, 74, 100
2, 2872, Note_on_c, 0, 74, 0
2, 2880, Note_on_c, 0, 72, 100
2, 2932, Note_on_c, 0, 72, 0
2, 2940, Note_on_c, 0, 75, 100
2, 2992, Note_on_c, 0, 75, 0
2, 3000, Note_on_c, 0, 79, 100
2, 3052, Note_on_c, 0, 79, 0
2, 3060, Note_on_c, 0, 84, 100
2, 3086, Note_on_c, 0, 84, 0
2, 3090, Note_on_c, 0, 82, 100
2, 3116, Note_on_c, 0, 82, 0
2, 3120, Note_on_c, 0, 80, 100
2, 3146, Note_on_c, 0, 80, 0
2, 3150, Note_on_c, 0, 79, 100
2, 3176, Note_on_c, 0, 79, 0
2, 3180, Note_on_c, 0, 80, 100
2, 3232, Note_on_c, 0, 80, 0
2, 3240, Note_on_c, 0, 77, 100
2, 3292, Note_on_c, 0, 77, 0
2, 3300, Note_on_c, 0, 79, 100
2, 3592, Note_on_c, 0, 79, 0
2, 3600, Note_on_c, 0, 80, 100
2, 3652, Note_on_c, 0, 80, 0
2, 3660, Note_on_c, 0, 79, 100
2, 3712, Note_on_c, 0, 79, 0
2, 3720, Note_on_c, 0, 77, 100
2, 3772, Note_on_c, 0, 77, 0
2, 3780, Note_on_c, 0, 75, 100
2, 3793, Note_on_c, 0, 75, 0
2, 3795, Note_on_c, 0, 77, 100
2, 3808, Note_on_c, 0, 77, 0
2, 3810, Note_on_c, 0, 75, 100
2, 3823, Note_on_c, 0, 75, 0
2, 3825, Note_on_c, 0, 77, 100
2, 3838, Note_on_c, 0, 77, 0
2, 3840, Note_on_c, 0, 75, 100
2, 3926, Note_on_c, 0, 75, 0
2, 3930, Note_on_c, 0, 74, 100
2, 3956, Note_on_c, 0, 74, 0
2, 3960, Note_on_c, 0, 72, 100
2, 3986, Note_on_c, 0, 72, 0
2, 3990, Note_on_c, 0, 71, 100
2, 4016, Note_on_c, 0, 71, 0
2, 4020, Note_on_c, 0, 72, 100
2, 4072, Note_on_c, 0, 72, 0
2, 4080, Note_on_c, 0, 74, 100
2, 4132, Note_on_c, 0, 74, 0
2, 4140, Note_on_c, 0, 75, 100
2, 4192, Note_on_c, 0, 75, 0
2, 4200, Note_on_c, 0, 77, 100
2, 4252, Note_on_c, 0, 77, 0
2, 4260, Note_on_c, 0, 79, 100
2, 4312, Note_on_c, 0, 79, 0
2, 4320, Note_on_c, 0, 77, 100
2, 4346, Note_on_c, 0, 77, 0
2, 4350, Note_on_c, 0, 75, 100
2, 4376, Note_on_c, 0, 75, 0
2, 4380, Note_on_c, 0, 82, 100
2, 4458, Note_on_c, 0, 82, 0
2, 4470, Note_on_c, 0, 82, 100
2, 4496, Note_on_c, 0, 82, 0
2, 4500, Note_on_c, 0, 82, 100
2, 4646, Note_on_c, 0, 82, 0
2, 4650, Note_on_c, 0, 80, 100
2, 4676, Note_on_c, 0, 80, 0
2, 4680, Note_on_c, 0, 79, 100
2, 4706, Note_on_c, 0, 79, 0
2, 4710, Note_on_c, 0, 77, 100
2, 4736, Note_on_c, 0, 77, 0
2, 4740, Note_on_c, 0, 79, 100
2, 5032, Note_on_c, 0, 79, 0
2, 5040, Note_on_c, 0, 79, 100
2, 5092, Note_on_c, 0, 79, 0
2, 5100, Note_on_c, 0, 77, 100
2, 5152, Note_on_c, 0, 77, 0
2, 5160, Note_on_c, 0, 75, 100
2, 5212, Note_on_c, 0, 75, 0
2, 5220, Note_on_c, 0, 74, 100
2, 5625, Note_on_c, 0, 74, 0
2, 5640, Note_on_c, 0, 74, 100
2, 5752, Note_on_c, 0, 74, 0
2, 5760, Note_on_c, 0, 70, 100
2, 5812, Note_on_c, 0, 70, 0
2, 5820, Note_on_c, 0, 72, 100
2, 5966, Note_on_c, 0, 72, 0
2, 5970, Note_on_c, 0, 75, 100
2, 5996, Note_on_c, 0, 75, 0
2, 6000, Note_on_c, 0, 74, 100
2, 6026, Note_on_c, 0, 74, 0
2, 6030, Note_on_c, 0, 72, 100
2, 6056, Note_on_c, 0, 72, 0
2, 6060, Note_on_c, 0, 74, 100
2, 6112, Note_on_c, 0, 74, 0
2, 6120, Note_on_c, 0, 69, 100
2, 6172, Note_on_c, 0, 69, 0
2, 6180, Note_on_c, 0, 70, 100
2, 6232, Note_on_c, 0, 70, 0
2, 6240, Note_on_c, 0, 74, 100
2, 6292, Note_on_c, 0, 74, 0
2, 6300, Note_on_c, 0, 79, 100
2, 6352, Note_on_c, 0, 79, 0
2, 6360, Note_on_c, 0, 82, 100
2, 6472, Note_on_c, 0, 82, 0
2, 6480, Note_on_c, 0, 82, 100
2, 6532, Note_on_c, 0, 82, 0
2, 6540, Note_on_c, 0, 81, 100
2, 6592, Note_on_c, 0, 81, 0
2, 6600, Note_on_c, 0, 79, 100
2, 6652, Note_on_c, 0, 79, 0
2, 6660, Note_on_c, 0, 78, 100
2, 6673, Note_on_c, 0, 78, 0
2, 6675, Note_on_c, 0, 79, 100
2, 6688, Note_on_c, 0, 79, 0
2, 6690, Note_on_c, 0, 78, 100
2, 6703, Note_on_c, 0, 78, 0
2, 6705, Note_on_c, 0, 79, 100
2, 6718, Note_on_c, 0, 79, 0
2, 6720, Note_on_c, 0, 78, 100
2, 6733, Note_on_c, 0, 78, 0
2, 6735, Note_on_c, 0, 79, 100
2, 6748, Note_on_c, 0, 79, 0
2, 6750, Note_on_c, 0, 78, 100
2, 6832, Note_on_c, 0, 78, 0
2, 6840, Note_on_c, 0, 79, 100
2, 6892, Note_on_c, 0, 79, 0
2, 6900, Note_on_c, 0, 81, 100
2, 7166, Note_on_c, 0, 81, 0
2, 7170, Note_on_c, 0, 79, 100
2, 7196, Note_on_c, 0, 79, 0
2, 7200, Note_on_c, 0, 77, 100
2, 7226, Note_on_c, 0, 77, 0
2, 7230, Note_on_c, 0, 75, 100
2, 7256, Note_on_c, 0, 75, 0
2, 7260, Note_on_c, 0, 77, 100
2, 7312, Note_on_c, 0, 77, 0
2, 7320, Note_on_c, 0, 74, 100
2, 7372, Note_on_c, 0, 74, 0
2, 7380, Note_on_c, 0, 75, 100
2, 7406, Note_on_c, 0, 75, 0
2, 7410, Note_on_c, 0, 74, 100
2, 7436, Note_on_c, 0, 74, 0
2, 7440, Note_on_c, 0, 72, 100
2, 7466, Note_on_c, 0, 72, 0
2, 7470, Note_on_c, 0, 71, 100
2, 7496, Note_on_c, 0, 71, 0
2, 7500, Note_on_c, 0, 72, 100
2, 7552, Note_on_c, 0, 72, 0
2, 7560, Note_on_c, 0, 78, 100
2, 7612, Note_on_c, 0, 78, 0
2, 7620, Note_on_c, 0, 79, 100
2, 7672, Note_on_c, 0, 79, 0
2, 7680, Note_on_c, 0, 67, 100
2, 7732, Note_on_c, 0, 67, 0
2, 7740, Note_on_c, 0, 72, 100
2, 7766, Note_on_c, 0, 72, 0
2, 7770, Note_on_c, 0, 70, 100
2, 7796, Note_on_c, 0, 70, 0
2, 7800, Note_on_c, 0, 69, 100
2, 7852, Note_on_c, 0, 69, 0
2, 7860, Note_on_c, 0, 69, 100
2, 7873, Note_on_c, 0, 69, 0
2, 7875, Note_on_c, 0, 70, 100
2, 7888, Note_on_c, 0, 70, 0
2, 7890, Note_on_c, 0, 69, 100
2, 7903, Note_on_c, 0, 69, 0
2, 7905, Note_on_c, 0, 70, 100
2, 7918, Note_on_c, 0, 70, 0
2, 7920, Note_on_c, 0, 69, 100
2, 7933, Note_on_c, 0, 69, 0
2, 7935, Note_on_c, 0, 70, 100
2, 7948, Note_on_c, 0, 70, 0
2, 7950, Note_on_c, 0, 69, 100
2, 7963, Note_on_c, 0, 69, 0
2, 7965, Note_on_c, 0, 70, 100
2, 7978, Note_on_c, 0, 70, 0
2, 7980, Note_on_c, 0, 69, 100
2, 8032, Note_on_c, 0, 69, 0
2, 8040, Note_on_c, 0, 67, 100
2, 8092, Note_on_c, 0, 67, 0
2, 8100, Note_on_c, 0, 67, 100
2, 8445, Note_on_c, 0, 67, 0
2, 8460, Note_on_c, 0, 67, 100
2, 8685, Note_on_c, 0, 67, 0
2, 8700, Control_c, 0, 7, 120
2, 8710, Control_c, 0, 10, 100
2, 8720, Program_c, 0, 1
2, 8760, Note_on_c, 0, 72, 100
2, 8812, Note_on_c, 0, 72, 0
2, 8820, Note_on_c, 0, 72, 100
2, 8966, Note_on_c, 0, 72, 0
2, 8970, Note_on_c, 0, 67, 100
2, 8996, Note_on_c, 0, 67, 0
2, 9000, Note_on_c, 0, 69, 100
2, 9026, Note_on_c, 0, 69, 0
2, 9030, Note_on_c, 0, 71, 100
2, 9056, Note_on_c, 0, 71, 0
2, 9060, Note_on_c, 0, 72, 100
2, 9112, Note_on_c, 0, 72, 0
2, 9120, Note_on_c, 0, 74, 100
2, 9172, Note_on_c, 0, 74, 0
2, 9180, Note_on_c, 0, 75, 100
2, 9232, Note_on_c, 0, 75, 0
2, 9240, Note_on_c, 0, 72, 100
2, 9292, Note_on_c, 0, 72, 0
2, 9300, Note_on_c, 0, 80, 100
2, 9465, Note_on_c, 0, 80, 0
2, 9480, Note_on_c, 0, 80, 100
2, 9532, Note_on_c, 0, 80, 0
2, 9540, Note_on_c, 0, 79, 100
2, 10125, Note_on_c, 0, 79, 0
2, 10140, Note_on_c, 0, 77, 100
2, 10286, Note_on_c, 0, 77, 0
2, 10290, Note_on_c, 0, 80, 100
2, 10316, Note_on_c, 0, 80, 0
2, 10320, Note_on_c, 0, 79, 100
2, 10346, Note_on_c, 0, 79, 0
2, 10350, Note_on_c, 0, 77, 100
2, 10376, Note_on_c, 0, 77, 0
2, 10380, Note_on_c, 0, 79, 100
2, 10432, Note_on_c, 0, 79, 0
2, 10440, Note_on_c, 0, 74, 100
2, 10492, Note_on_c, 0, 74, 0
2, 10500, Note_on_c, 0, 75, 100
2, 10792, Note_on_c, 0, 75, 0
2, 10800, Note_on_c, 0, 75, 100
2, 10852, Note_on_c, 0, 75, 0
2, 10860, Note_on_c, 0, 74, 100
2, 10912, Note_on_c, 0, 74, 0
2, 10920, Note_on_c, 0, 72, 100
2, 10972, Note_on_c, 0, 72, 0
2, 10980, Note_on_c, 0, 71, 100
2, 10993, Note_on_c, 0, 71, 0
2, 10995, Note_on_c, 0, 72, 100
2, 11008, Note_on_c, 0, 72, 0
2, 11010, Note_on_c, 0, 71, 100
2, 11023, Note_on_c, 0, 71, 0
2, 11025, Note_on_c, 0, 72, 100
2, 11038, Note_on_c, 0, 72, 0
2, 11040, Note_on_c, 0, 71, 100
2, 11145, Note_on_c, 0, 71, 0
2, 11160, Note_on_c, 0, 72, 100
2, 11212, Note_on_c, 0, 72, 0
2, 11220, Note_on_c, 0, 74, 100
2, 11512, Note_on_c, 0, 74, 0
2, 11520, Note_on_c, 0, 72, 100
2, 11572, Note_on_c, 0, 72, 0
2, 11580, Note_on_c, 0, 75, 100
2, 11632, Note_on_c, 0, 75, 0
2, 11640, Note_on_c, 0, 79, 100
2, 11692, Note_on_c, 0, 79, 0
2, 11700, Note_on_c, 0, 84, 100
2, 11726, Note_on_c, 0, 84, 0
2, 11730, Note_on_c, 0, 82, 100
2, 11756, Note_on_c, 0, 82, 0
2, 11760, Note_on_c, 0, 80, 100
2, 11786, Note_on_c, 0, 80, 0
2, 11790, Note_on_c, 0, 79, 100
2, 11816, Note_on_c, 0, 79, 0
2, 11820, Note_on_c, 0, 80, 100
2, 11872, Note_on_c, 0, 80, 0
2, 11880, Note_on_c, 0, 77, 100
2, 11932, Note_on_c, 0, 77, 0
2, 11940, Note_on_c, 0, 79, 100
2, 12232, Note_on_c, 0, 79, 0
2, 12240, Note_on_c, 0, 80, 100
2, 12292, Note_on_c, 0, 80, 0
2, 12300, Note_on_c, 0, 79, 100
2, 12352, Note_on_c, 0, 79, 0
2, 12360, Note_on_c, 0, 77, 100
2, 12412, Note_on_c, 0, 77, 0
2, 12420, Note_on_c, 0, 75, 100
2, 12433, Note_on_c, 0, 75, 0
2, 12435, Note_on_c, 0, 77, 100
2, 12448, Note_on_c, 0, 77, 0
2, 12450, Note_on_c, 0, 75, 100
2, 12463, Note_on_c, 0, 75, 0
2, 12465, Note_on_c, 0, 77, 100
2, 12478, Note_on_c, 0, 77, 0
2, 12480, Note_on_c, 0, 75, 100
2, 12566, Note_on_c, 0, 75, 0
2, 12570, Note_on_c, 0, 74, 100
2, 12596, Note_on_c, 0, 74, 0
2, 12600, Note_on_c, 0, 72, 100
2, 12626, Note_on_c, 0, 72, 0
2, 12630, Note_on_c, 0, 71, 100
2, 12656, Note_on_c, 0, 71, 0
2, 12660, Note_on_c, 0, 72, 100
2, 12712, Note_on_c, 0, 72, 0
2, 12720, Note_on_c, 0, 74, 100
2, 12772, Note_on_c, 0, 74, 0
2, 12780, Note_on_c, 0, 75, 100
2, 12832, Note_on_c, 0, 75, 0
2, 12840, Note_on_c, 0, 77, 100
2, 12892, Note_on_c, 0, 77, 0
2, 12900, Note_on_c, 0, 79, 100
2, 12952, Note_on_c, 0, 79, 0
2, 12960, Note_on_c, 0, 77, 100
2, 12986, Note_on_c, 0, 77, 0
2, 12990, Note_on_c, 0, 75, 100
2, 13016, Note_on_c, 0, 75, 0
2, 13020, Note_on_c, 0, 82, 100
2, 13098, Note_on_c, 0, 82, 0
2, 13110, Note_on_c, 0, 82, 100
2, 13136, Note_on_c, 0, 82, 0
2, 13140, Note_on_c, 0, 82, 100
2, 13286, Note_on_c, 0, 82, 0
2, 13290, Note_on_c, 0, 80, 100
2, 13316, Note_on_c, 0, 80, 0
2, 13320, Note_on_c, 0, 79, 100
2, 13346, Note_on_c, 0, 79, 0
2, 13350, Note_on_c, 0, 77, 100
2, 13376, Note_on_c, 0, 77, 0
2, 13380, Note_on_c, 0, 79, 100
2, 13672, Note_on_c, 0, 79, 0
2, 13680, Note_on_c, 0, 79, 100
2, 13732, Note_on_c, 0, 79, 0
2, 13740, Note_on_c, 0, 77, 100
2, 13792, Note_on_c, 0, 77, 0
2, 13800, Note_on_c, 0, 75, 100
2, 13852, Note_on_c, 0, 75, 0
2, 13860, Note_on_c, 0, 74, 100
2, 14265, Note_on_c, 0, 74, 0
2, 14280, Note_on_c, 0, 74, 100
2, 14392, Note_on_c, 0, 74, 0
2, 14400, Note_on_c, 0, 70, 100
2, 14452, Note_on_c, 0, 70, 0
2, 14460, Note_on_c, 0, 72, 100
2, 14606, Note_on_c, 0, 72, 0
2, 14610, Note_on_c, 0, 75, 100
2, 14636, Note_on_c, 0, 75, 0
2, 14640, Note_on_c, 0, 74, 100
2, 14666, Note_on_c, 0, 74, 0
2, 14670, Note_on_c, 0, 72, 100
2, 14696, Note_on_c, 0, 72, 0
2, 14700, Note_on_c, 0, 74, 100
2, 14752, Note_on_c, 0, 74, 0
2, 14760, Note_on_c, 0, 69, 100
2, 14812, Note_on_c, 0, 69, 0
2, 14820, Note_on_c, 0, 70, 100
2, 14872, Note_on_c, 0, 70, 0
2, 14880, Note_on_c, 0, 74, 100
2, 14932, Note_on_c, 0, 74, 0
2, 14940, Note_on_c, 0, 79, 100
2, 14992, Note_on_c, 0, 79, 0
2, 15000, Note_on_c, 0, 82, 100
2, 15112, Note_on_c, 0, 82, 0
2, 15120, Note_on_c, 0, 82, 100
2, 15172, Note_on_c, 0, 82, 0
2, 15180, Note_on_c, 0, 81, 100
2, 15232, Note_on_c, 0, 81, 0
2, 15240, Note_on_c, 0, 79, 100
2, 15292, Note_on_c, 0, 79, 0
2, 15300, Note_on_c, 0, 78, 93
2, 15313, Note_on_c, 0, 78, 0
2, 15315, Note_on_c, 0, 79, 94
2, 15328, Note_on_c, 0, 79, 0
2, 15330, Note_on_c, 0, 78, 94
2, 15343, Note_on_c, 0, 78, 0
2, 15345, Note_on_c, 0, 79, 94
2, 15358, Note_on_c, 0, 79, 0
2, 15360, Note_on_c, 0, 78, 95
2, 15373, Note_on_c, 0, 78, 0
2, 15375, Note_on_c, 0, 79, 95
2, 15388, Note_on_c, 0, 79, 0
2, 15390, Note_on_c, 0, 78, 100
2, 15472, Note_on_c, 0, 78, 0
2, 15480, Note_on_c, 0, 79, 100
2, 15532, Note_on_c, 0, 79, 0
2, 15540, Note_on_c, 0, 81, 100
2, 15806, Note_on_c, 0, 81, 0
2, 15810, Note_on_c, 0, 79, 100
2, 15836, Note_on_c, 0, 79, 0
2, 15840, Note_on_c, 0, 77, 100
2, 15866, Note_on_c, 0, 77, 0
2, 15870, Note_on_c, 0, 75, 100
2, 15896, Note_on_c, 0, 75, 0
2, 15900, Note_on_c, 0, 77, 100
2, 15952, Note_on_c, 0, 77, 0
2, 15960, Note_on_c, 0, 74, 100
2, 16012, Note_on_c, 0, 74, 0
2, 16020, Note_on_c, 0, 75, 100
2, 16046, Note_on_c, 0, 75, 0
2, 16050, Note_on_c, 0, 74, 100
2, 16076, Note_on_c, 0, 74, 0
2, 16080, Note_on_c, 0, 72, 100
2, 16106, Note_on_c, 0, 72, 0
2, 16110, Note_on_c, 0, 71, 100
2, 16136, Note_on_c, 0, 71, 0
2, 16140, Note_on_c, 0, 72, 100
2, 16192, Note_on_c, 0, 72, 0
2, 16200, Note_on_c, 0, 78, 100
2, 16252, Note_on_c, 0, 78, 0
2, 16260, Note_on_c, 0, 79, 100
2, 16312, Note_on_c, 0, 79, 0
2, 16320, Note_on_c, 0, 67, 100
2, 16372, Note_on_c, 0, 67, 0
2, 16380, Note_on_c, 0, 72, 100
2, 16406, Note_on_c, 0, 72, 0
2, 16410, Note_on_c, 0, 70, 100
2, 16436, Note_on_c, 0, 70, 0
2, 16440, Note_on_c, 0, 69, 100
2, 16492, Note_on_c, 0, 69, 0
2, 16500, Note_on_c, 0, 69, 100
2, 16513, Note_on_c, 0, 69, 0
2, 16515, Note_on_c, 0, 70, 92
2, 16528, Note_on_c, 0, 70, 0
2, 16530, Note_on_c, 0, 69, 93
2, 16543, Note_on_c, 0, 69, 0
2, 16545, Note_on_c, 0, 70, 94
2, 16558, Note_on_c, 0, 70, 0
2, 16560, Note_on_c, 0, 69, 94
2, 16573, Note_on_c, 0, 69, 0
2, 16575, Note_on_c, 0, 70, 94
2, 16588, Note_on_c, 0, 70, 0
2, 16590, Note_on_c, 0, 69, 94
2, 16603, Note_on_c, 0, 69, 0
2, 16605, Note_on_c, 0, 70, 94
2, 16618, Note_on_c, 0, 70, 0
2, 16620, Note_on_c, 0, 69, 100
2, 16672, Note_on_c, 0, 69, 0
2, 16680, Note_on_c, 0, 67, 100
2, 16732, Note_on_c, 0, 67, 0
2, 16740, Note_on_c, 0, 67, 100
2, 17085, Note_on_c, 0, 67, 0
2, 17100, Note_on_c, 0, 67, 100
2, 17325, Note_on_c, 0, 67, 0
2, 17340, Control_c, 0, 7, 120
2, 17350, Control_c, 0, 10, 20
2, 17360, Program_c, 0, 80
2, 17400, Note_on_c, 0, 74, 100
2, 17452, Note_on_c, 0, 74, 0
2, 17460, Note_on_c, 0, 74, 100
2, 17606, Note_on_c, 0, 74, 0
2, 17610, Note_on_c, 0, 79, 100
2, 17636, Note_on_c, 0, 79, 0
2, 17640, Note_on_c, 0, 77, 100
2, 17666, Note_on_c, 0, 77, 0
2, 17670, Note_on_c, 0, 75, 100
2, 17696, Note_on_c, 0, 75, 0
2, 17700, Note_on_c, 0, 74, 100
2, 17752, Note_on_c, 0, 74, 0
2, 17760, Note_on_c, 0, 72, 100
2, 17812, Note_on_c, 0, 72, 0
2, 17820, Note_on_c, 0, 71, 100
2, 17872, Note_on_c, 0, 71, 0
2, 17880, Note_on_c, 0, 72, 100
2, 17906, Note_on_c, 0, 72, 0
2, 17910, Note_on_c, 0, 74, 100
2, 17936, Note_on_c, 0, 74, 0
2, 17940, Note_on_c, 0, 67, 100
2, 17966, Note_on_c, 0, 67, 0
2, 17970, Note_on_c, 0, 68, 100
2, 17983, Note_on_c, 0, 68, 0
2, 17985, Note_on_c, 0, 67, 100
2, 17998, Note_on_c, 0, 67, 0
2, 18000, Note_on_c, 0, 68, 100
2, 18013, Note_on_c, 0, 68, 0
2, 18015, Note_on_c, 0, 67, 100
2, 18112, Note_on_c, 0, 67, 0
2, 18120, Note_on_c, 0, 67, 100
2, 18172, Note_on_c, 0, 67, 0
2, 18180, Note_on_c, 0, 67, 100
2, 18180, Note_on_c, 0, 77, 100
2, 18405, Note_on_c, 0, 67, 0
2, 18472, Note_on_c, 0, 77, 0
2, 18480, Note_on_c, 0, 80, 100
2, 18532, Note_on_c, 0, 80, 0
2, 18540, Note_on_c, 0, 79, 100
2, 18592, Note_on_c, 0, 79, 0
2, 18600, Note_on_c, 0, 77, 100
2, 18652, Note_on_c, 0, 77, 0
2, 18660, Note_on_c, 0, 75, 100
2, 18712, Note_on_c, 0, 75, 0
2, 18720, Note_on_c, 0, 74, 100
2, 18772, Note_on_c, 0, 74, 0
2, 18780, Note_on_c, 0, 72, 100
2, 18832, Note_on_c, 0, 72, 0
2, 18840, Note_on_c, 0, 71, 100
2, 18892, Note_on_c, 0, 71, 0
2, 18930, Note_on_c, 0, 75, 100
2, 18956, Note_on_c, 0, 75, 0
2, 18960, Note_on_c, 0, 77, 100
2, 18986, Note_on_c, 0, 77, 0
2, 18990, Note_on_c, 0, 79, 100
2, 19016, Note_on_c, 0, 79, 0
2, 19020, Note_on_c, 0, 80, 100
2, 19125, Note_on_c, 0, 80, 0
2, 19140, Note_on_c, 0, 79, 100
2, 19365, Note_on_c, 0, 79, 0
2, 19440, Note_on_c, 0, 74, 100
2, 19492, Note_on_c, 0, 74, 0
2, 19500, Note_on_c, 0, 77, 100
2, 19552, Note_on_c, 0, 77, 0
2, 19560, Note_on_c, 0, 79, 100
2, 19612, Note_on_c, 0, 79, 0
2, 19620, Note_on_c, 0, 77, 100
2, 19672, Note_on_c, 0, 77, 0
2, 19680, Note_on_c, 0, 75, 100
2, 19732, Note_on_c, 0, 75, 0
2, 19740, Note_on_c, 0, 74, 100
2, 19792, Note_on_c, 0, 74, 0
2, 19800, Note_on_c, 0, 72, 100
2, 19852, Note_on_c, 0, 72, 0
2, 19860, Note_on_c, 0, 75, 100
2, 19877, Note_on_c, 0, 75, 0
2, 19879, Note_on_c, 0, 77, 100
2, 19897, Note_on_c, 0, 77, 0
2, 19899, Note_on_c, 0, 75, 100
2, 20025, Note_on_c, 0, 75, 0
2, 20040, Note_on_c, 0, 75, 100
2, 20092, Note_on_c, 0, 75, 0
2, 20100, Note_on_c, 0, 67, 100
2, 20265, Note_on_c, 0, 67, 0
2, 20280, Note_on_c, 0, 68, 100
2, 20332, Note_on_c, 0, 68, 0
2, 20340, Note_on_c, 0, 70, 100
2, 20606, Note_on_c, 0, 70, 0
2, 20610, Note_on_c, 0, 73, 100
2, 20636, Note_on_c, 0, 73, 0
2, 20640, Note_on_c, 0, 72, 100
2, 20666, Note_on_c, 0, 72, 0
2, 20670, Note_on_c, 0, 70, 100
2, 20696, Note_on_c, 0, 70, 0
2, 20700, Note_on_c, 0, 76, 100
2, 20752, Note_on_c, 0, 76, 0
2, 20760, Note_on_c, 0, 77, 100
2, 20812, Note_on_c, 0, 77, 0
2, 20820, Note_on_c, 0, 79, 100
2, 20985, Note_on_c, 0, 79, 0
2, 21000, Note_on_c, 0, 79, 100
2, 21086, Note_on_c, 0, 79, 0
2, 21090, Note_on_c, 0, 79, 100
2, 21116, Note_on_c, 0, 79, 0
2, 21120, Note_on_c, 0, 77, 100
2, 21146, Note_on_c, 0, 77, 0
2, 21150, Note_on_c, 0, 76, 100
2, 21176, Note_on_c, 0, 76, 0
2, 21180, Note_on_c, 0, 77, 100
2, 21206, Note_on_c, 0, 77, 0
2, 21210, Note_on_c, 0, 79, 100
2, 21236, Note_on_c, 0, 79, 0
2, 21240, Note_on_c, 0, 80, 100
2, 21266, Note_on_c, 0, 80, 0
2, 21270, Note_on_c, 0, 77, 100
2, 21296, Note_on_c, 0, 77, 0
2, 21300, Note_on_c, 0, 82, 100
2, 21465, Note_on_c, 0, 82, 0
2, 21480, Note_on_c, 0, 80, 100
2, 21532, Note_on_c, 0, 80, 0
2, 21540, Note_on_c, 0, 79, 100
2, 21705, Note_on_c, 0, 79, 0
2, 21720, Note_on_c, 0, 84, 100
2, 21772, Note_on_c, 0, 84, 0
2, 21780, Note_on_c, 0, 82, 100
2, 21832, Note_on_c, 0, 82, 0
2, 21840, Note_on_c, 0, 80, 100
2, 21892, Note_on_c, 0, 80, 0
2, 21900, Note_on_c, 0, 79, 100
2, 21952, Note_on_c, 0, 79, 0
2, 21960, Note_on_c, 0, 77, 100
2, 22012, Note_on_c, 0, 77, 0
2, 22020, Note_on_c, 0, 75, 100
2, 22125, Note_on_c, 0, 75, 0
2, 22140, Note_on_c, 0, 74, 100
2, 22153, Note_on_c, 0, 74, 0
2, 22155, Note_on_c, 0, 75, 100
2, 22168, Note_on_c, 0, 75, 0
2, 22170, Note_on_c, 0, 74, 100
2, 22183, Note_on_c, 0, 74, 0
2, 22185, Note_on_c, 0, 75, 100
2, 22198, Note_on_c, 0, 75, 0
2, 22200, Note_on_c, 0, 74, 100
2, 22226, Note_on_c, 0, 74, 0
2, 22230, Note_on_c, 0, 75, 100
2, 22256, Note_on_c, 0, 75, 0
2, 22260, Note_on_c, 0, 77, 100
2, 22526, Note_on_c, 0, 77, 0
2, 22530, Note_on_c, 0, 70, 100
2, 22556, Note_on_c, 0, 70, 0
2, 22560, Note_on_c, 0, 72, 100
2, 22586, Note_on_c, 0, 72, 0
2, 22590, Note_on_c, 0, 74, 100
2, 22616, Note_on_c, 0, 74, 0
2, 22620, Note_on_c, 0, 75, 100
2, 22766, Note_on_c, 0, 75, 0
2, 22770, Note_on_c, 0, 74, 100
2, 22796, Note_on_c, 0, 74, 0
2, 22800, Note_on_c, 0, 75, 100
2, 22826, Note_on_c, 0, 75, 0
2, 22830, Note_on_c, 0, 77, 100
2, 22856, Note_on_c, 0, 77, 0
2, 22860, Note_on_c, 0, 79, 100
2, 23085, Note_on_c, 0, 79, 0
2, 23100, Note_on_c, 0, 77, 100
2, 23246, Note_on_c, 0, 77, 0
2, 23250, Note_on_c, 0, 80, 100
2, 23276, Note_on_c, 0, 80, 0
2, 23280, Note_on_c, 0, 79, 100
2, 23306, Note_on_c, 0, 79, 0
2, 23310, Note_on_c, 0, 77, 100
2, 23336, Note_on_c, 0, 77, 0
2, 23340, Note_on_c, 0, 79, 100
2, 23392, Note_on_c, 0, 79, 0
2, 23400, Note_on_c, 0, 74, 100
2, 23452, Note_on_c, 0, 74, 0
2, 23460, Note_on_c, 0, 75, 100
2, 23512, Note_on_c, 0, 75, 0
2, 23520, Note_on_c, 0, 77, 100
2, 23546, Note_on_c, 0, 77, 0
2, 23550, Note_on_c, 0, 79, 100
2, 23576, Note_on_c, 0, 79, 0
2, 23580, Note_on_c, 0, 72, 100
2, 23632, Note_on_c, 0, 72, 0
2, 23640, Note_on_c, 0, 75, 100
2, 23752, Note_on_c, 0, 75, 0
2, 23760, Note_on_c, 0, 75, 100
2, 23812, Note_on_c, 0, 75, 0
2, 23820, Note_on_c, 0, 74, 100
2, 23872, Note_on_c, 0, 74, 0
2, 23880, Note_on_c, 0, 72, 100
2, 23932, Note_on_c, 0, 72, 0
2, 23940, Note_on_c, 0, 71, 100
2, 23953, Note_on_c, 0, 71, 0
2, 23955, Note_on_c, 0, 72, 100
2, 23968, Note_on_c, 0, 72, 0
2, 23970, Note_on_c, 0, 71, 100
2, 23983, Note_on_c, 0, 71, 0
2, 23985, Note_on_c, 0, 72, 100
2, 23998, Note_on_c, 0, 72, 0
2, 24000, Note_on_c, 0, 71, 100
2, 24013, Note_on_c, 0, 71, 0
2, 24015, Note_on_c, 0, 72, 100
2, 24028, Note_on_c, 0, 72, 0
2, 24030, Note_on_c, 0, 71, 100
2, 24112, Note_on_c, 0, 71, 0
2, 24120, Note_on_c, 0, 72, 100
2, 24172, Note_on_c, 0, 72, 0
2, 24180, Note_on_c, 0, 74, 100
2, 24446, Note_on_c, 0, 74, 0
2, 24450, Note_on_c, 0, 72, 100
2, 24476, Note_on_c, 0, 72, 0
2, 24480, Note_on_c, 0, 70, 100
2, 24506, Note_on_c, 0, 70, 0
2, 24510, Note_on_c, 0, 68, 100
2, 24536, Note_on_c, 0, 68, 0
2, 24540, Note_on_c, 0, 70, 100
2, 24592, Note_on_c, 0, 70, 0
2, 24600, Note_on_c, 0, 67, 100
2, 24652, Note_on_c, 0, 67, 0
2, 24660, Note_on_c, 0, 68, 100
2, 24686, Note_on_c, 0, 68, 0
2, 24690, Note_on_c, 0, 67, 100
2, 24716, Note_on_c, 0, 67, 0
2, 24720, Note_on_c, 0, 65, 100
2, 24746, Note_on_c, 0, 65, 0
2, 24750, Note_on_c, 0, 64, 100
2, 24776, Note_on_c, 0, 64, 0
2, 24780, Note_on_c, 0, 65, 100
2, 24832, Note_on_c, 0, 65, 0
2, 24840, Note_on_c, 0, 71, 100
2, 24892, Note_on_c, 0, 71, 0
2, 24900, Note_on_c, 0, 72, 100
2, 24952, Note_on_c, 0, 72, 0
2, 24960, Note_on_c, 0, 67, 100
2, 25012, Note_on_c, 0, 67, 0
2, 25020, Note_on_c, 0, 77, 100
2, 25046, Note_on_c, 0, 77, 0
2, 25050, Note_on_c, 0, 75, 100
2, 25076, Note_on_c, 0, 75, 0
2, 25080, Note_on_c, 0, 74, 100
2, 25132, Note_on_c, 0, 74, 0
2, 25140, Note_on_c, 0, 74, 100
2, 25153, Note_on_c, 0, 74, 0
2, 25155, Note_on_c, 0, 75, 100
2, 25168, Note_on_c, 0, 75, 0
2, 25170, Note_on_c, 0, 74, 100
2, 25183, Note_on_c, 0, 74, 0
2, 25185, Note_on_c, 0, 75, 100
2, 25198, Note_on_c, 0, 75, 0
2, 25200, Note_on_c, 0, 74, 100
2, 25213, Note_on_c, 0, 74, 0
2, 25215, Note_on_c, 0, 75, 100
2, 25228, Note_on_c, 0, 75, 0
2, 25230, Note_on_c, 0, 74, 100
2, 25312, Note_on_c, 0, 74, 0
2, 25320, Note_on_c, 0, 72, 100
2, 25372, Note_on_c, 0, 72, 0
2, 25380, Note_on_c, 0, 72, 100
2, 25725, Note_on_c, 0, 72, 0
2, 25740, Note_on_c, 0, 72, 100
2, 25965, Note_on_c, 0, 72, 0
2, 25980, Control_c, 0, 7, 127
2, 25990, Control_c, 0, 10, 100
2, 26000, Program_c, 0, 1
2, 26040, Note_on_c, 0, 74, 100
2, 26092, Note_on_c, 0, 74, 0
2, 26100, Note_on_c, 0, 74, 100
2, 26246, Note_on_c, 0, 74, 0
2, 26250, Note_on_c, 0, 79, 100
2, 26276, Note_on_c, 0, 79, 0
2, 26280, Note_on_c, 0, 77, 100
2, 26306, Note_on_c, 0, 77, 0
2, 26310, Note_on_c, 0, 75, 100
2, 26336, Note_on_c, 0, 75, 0
2, 26340, Note_on_c, 0, 74, 100
2, 26392, Note_on_c, 0, 74, 0
2, 26400, Note_on_c, 0, 72, 100
2, 26452, Note_on_c, 0, 72, 0
2, 26460, Note_on_c, 0, 71, 100
2, 26512, Note_on_c, 0, 71, 0
2, 26520, Note_on_c, 0, 72, 100
2, 26546, Note_on_c, 0, 72, 0
2, 26550, Note_on_c, 0, 74, 100
2, 26576, Note_on_c, 0, 74, 0
2, 26580, Note_on_c, 0, 67, 100
2, 26606, Note_on_c, 0, 67, 0
2, 26610, Note_on_c, 0, 68, 100
2, 26623, Note_on_c, 0, 68, 0
2, 26625, Note_on_c, 0, 67, 100
2, 26638, Note_on_c, 0, 67, 0
2, 26640, Note_on_c, 0, 68, 100
2, 26653, Note_on_c, 0, 68, 0
2, 26655, Note_on_c, 0, 67, 100
2, 26752, Note_on_c, 0, 67, 0
2, 26760, Note_on_c, 0, 67, 100
2, 26812, Note_on_c, 0, 67, 0
2, 26820, Note_on_c, 0, 67, 100
2, 26820, Note_on_c, 0, 77, 100
2, 27045, Note_on_c, 0, 67, 0
2, 27112, Note_on_c, 0, 77, 0
2, 27120, Note_on_c, 0, 80, 100
2, 27172, Note_on_c, 0, 80, 0
2, 27180, Note_on_c, 0, 79, 100
2, 27232, Note_on_c, 0, 79, 0
2, 27240, Note_on_c, 0, 77, 100
2, 27292, Note_on_c, 0, 77, 0
2, 27300, Note_on_c, 0, 75, 100
2, 27352, Note_on_c, 0, 75, 0
2, 27360, Note_on_c, 0, 74, 100
2, 27412, Note_on_c, 0, 74, 0
2, 27420, Note_on_c, 0, 72, 100
2, 27472, Note_on_c, 0, 72, 0
2, 27480, Note_on_c, 0, 71, 100
2, 27532, Note_on_c, 0, 71, 0
2, 27570, Note_on_c, 0, 75, 100
2, 27596, Note_on_c, 0, 75, 0
2, 27600, Note_on_c, 0, 77, 100
2, 27626, Note_on_c, 0, 77, 0
2, 27630, Note_on_c, 0, 79, 100
2, 27656, Note_on_c, 0, 79, 0
2, 27660, Note_on_c, 0, 80, 100
2, 27765, Note_on_c, 0, 80, 0
2, 27780, Note_on_c, 0, 79, 100
2, 28005, Note_on_c, 0, 79, 0
2, 28080, Note_on_c, 0, 74, 100
2, 28132, Note_on_c, 0, 74, 0
2, 28140, Note_on_c, 0, 77, 100
2, 28192, Note_on_c, 0, 77, 0
2, 28200, Note_on_c, 0, 79, 100
2, 28252, Note_on_c, 0, 79, 0
2, 28260, Note_on_c, 0, 77, 100
2, 28312, Note_on_c, 0, 77, 0
2, 28320, Note_on_c, 0, 75, 100
2, 28372, Note_on_c, 0, 75, 0
2, 28380, Note_on_c, 0, 74, 100
2, 28432, Note_on_c, 0, 74, 0
2, 28440, Note_on_c, 0, 72, 100
2, 28492, Note_on_c, 0, 72, 0
2, 28500, Note_on_c, 0, 75, 100
2, 28517, Note_on_c, 0, 75, 0
2, 28519, Note_on_c, 0, 77, 100
2, 28537, Note_on_c, 0, 77, 0
2, 28539, Note_on_c, 0, 75, 100
2, 28665, Note_on_c, 0, 75, 0
2, 28680, Note_on_c, 0, 75, 100
2, 28732, Note_on_c, 0, 75, 0
2, 28740, Note_on_c, 0, 67, 100
2, 28905, Note_on_c, 0, 67, 0
2, 28920, Note_on_c, 0, 68, 100
2, 28972, Note_on_c, 0, 68, 0
2, 28980, Note_on_c, 0, 70, 100
2, 29246, Note_on_c, 0, 70, 0
2, 29250, Note_on_c, 0, 73, 100
2, 29276, Note_on_c, 0, 73, 0
2, 29280, Note_on_c, 0, 72, 100
2, 29306, Note_on_c, 0, 72, 0
2, 29310, Note_on_c, 0, 70, 100
2, 29336, Note_on_c, 0, 70, 0
2, 29340, Note_on_c, 0, 76, 100
2, 29392, Note_on_c, 0, 76, 0
2, 29400, Note_on_c, 0, 77, 100
2, 29452, Note_on_c, 0, 77, 0
2, 29460, Note_on_c, 0, 79, 100
2, 29625, Note_on_c, 0, 79, 0
2, 29640, Note_on_c, 0, 79, 100
2, 29726, Note_on_c, 0, 79, 0
2, 29730, Note_on_c, 0, 79, 100
2, 29756, Note_on_c, 0, 79, 0
2, 29760, Note_on_c, 0, 77, 100
2, 29786, Note_on_c, 0, 77, 0
2, 29790, Note_on_c, 0, 76, 100
2, 29816, Note_on_c, 0, 76, 0
2, 29820, Note_on_c, 0, 77, 100
2, 29846, Note_on_c, 0, 77, 0
2, 29850, Note_on_c, 0, 79, 100
2, 29876, Note_on_c, 0, 79, 0
2, 29880, Note_on_c, 0, 80, 100
2, 29906, Note_on_c, 0, 80, 0
2, 29910, Note_on_c, 0, 77, 100
2, 29936, Note_on_c, 0, 77, 0
2, 29940, Note_on_c, 0, 82, 100
2, 30105, Note_on_c, 0, 82, 0
2, 30120, Note_on_c, 0, 80, 100
2, 30172, Note_on_c, 0, 80, 0
2, 30180, Note_on_c, 0, 79, 100
2, 30345, Note_on_c, 0, 79, 0
2, 30360, Note_on_c, 0, 84, 100
2, 30412, Note_on_c, 0, 84, 0
2, 30420, Note_on_c, 0, 82, 100
2, 30472, Note_on_c, 0, 82, 0
2, 30480, Note_on_c, 0, 80, 100
2, 30532, Note_on_c, 0, 80, 0
2, 30540, Note_on_c, 0, 79, 100
2, 30592, Note_on_c, 0, 79, 0
2, 30600, Note_on_c, 0, 77, 100
2, 30652, Note_on_c, 0, 77, 0
2, 30660, Note_on_c, 0, 75, 100
2, 30765, Note_on_c, 0, 75, 0
2, 30780, Note_on_c, 0, 74, 100
2, 30793, Note_on_c, 0, 74, 0
2, 30795, Note_on_c, 0, 75, 100
2, 30808, Note_on_c, 0, 75, 0
2, 30810, Note_on_c, 0, 74, 100
2, 30823, Note_on_c, 0, 74, 0
2, 30825, Note_on_c, 0, 75, 100
2, 30838, Note_on_c, 0, 75, 0
2, 30840, Note_on_c, 0, 74, 100
2, 30866, Note_on_c, 0, 74, 0
2, 30870, Note_on_c, 0, 75, 100
2, 30896, Note_on_c, 0, 75, 0
2, 30900, Note_on_c, 0, 77, 100
2, 31166, Note_on_c, 0, 77, 0
2, 31170, Note_on_c, 0, 70, 100
2, 31196, Note_on_c, 0, 70, 0
2, 31200, Note_on_c, 0, 72, 100
2, 31226, Note_on_c, 0, 72, 0
2, 31230, Note_on_c, 0, 74, 100
2, 31256, Note_on_c, 0, 74, 0
2, 31260, Note_on_c, 0, 75, 100
2, 31406, Note_on_c, 0, 75, 0
2, 31410, Note_on_c, 0, 74, 100
2, 31436, Note_on_c, 0, 74, 0
2, 31440, Note_on_c, 0, 75, 100
2, 31466, Note_on_c, 0, 75, 0
2, 31470, Note_on_c, 0, 77, 100
2, 31496, Note_on_c, 0, 77, 0
2, 31500, Note_on_c, 0, 79, 100
2, 31725, Note_on_c, 0, 79, 0
2, 31740, Note_on_c, 0, 77, 100
2, 31886, Note_on_c, 0, 77, 0
2, 31890, Note_on_c, 0, 80, 100
2, 31916, Note_on_c, 0, 80, 0
2, 31920, Note_on_c, 0, 79, 100
2, 31946, Note_on_c, 0, 79, 0
2, 31950, Note_on_c, 0, 77, 100
2, 31976, Note_on_c, 0, 77, 0
2, 31980, Note_on_c, 0, 79, 100
2, 32032, Note_on_c, 0, 79, 0
2, 32040, Note_on_c, 0, 74, 100
2, 32092, Note_on_c, 0, 74, 0
2, 32100, Note_on_c, 0, 75, 100
2, 32152, Note_on_c, 0, 75, 0
2, 32160, Note_on_c, 0, 77, 100
2, 32186, Note_on_c, 0, 77, 0
2, 32190, Note_on_c, 0, 79, 100
2, 32216, Note_on_c, 0, 79, 0
2, 32220, Note_on_c, 0, 72, 100
2, 32272, Note_on_c, 0, 72, 0
2, 32280, Note_on_c, 0, 75, 100
2, 32392, Note_on_c, 0, 75, 0
2, 32400, Note_on_c, 0, 75, 100
2, 32452, Note_on_c, 0, 75, 0
2, 32460, Note_on_c, 0, 74, 100
2, 32512, Note_on_c, 0, 74, 0
2, 32520, Note_on_c, 0, 72, 100
2, 32572, Note_on_c, 0, 72, 0
2, 32580, Note_on_c, 0, 71, 93
2, 32593, Note_on_c, 0, 71, 0
2, 32595, Note_on_c, 0, 72, 94
2, 32608, Note_on_c, 0, 72, 0
2, 32610, Note_on_c, 0, 71, 94
2, 32623, Note_on_c, 0, 71, 0
2, 32625, Note_on_c, 0, 72, 94
2, 32638, Note_on_c, 0, 72, 0
2, 32640, Note_on_c, 0, 71, 94
2, 32653, Note_on_c, 0, 71, 0
2, 32655, Note_on_c, 0, 72, 93
2, 32668, Note_on_c, 0, 72, 0
2, 32670, Note_on_c, 0, 71, 100
2, 32752, Note_on_c, 0, 71, 0
2, 32760, Note_on_c, 0, 72, 100
2, 32812, Note_on_c, 0, 72, 0
2, 32820, Note_on_c, 0, 74, 100
2, 33086, Note_on_c, 0, 74, 0
2, 33090, Note_on_c, 0, 72, 100
2, 33116, Note_on_c, 0, 72, 0
2, 33120, Note_on_c, 0, 70, 100
2, 33146, Note_on_c, 0, 70, 0
2, 33150, Note_on_c, 0, 68, 100
2, 33176, Note_on_c, 0, 68, 0
2, 33180, Note_on_c, 0, 70, 100
2, 33232, Note_on_c, 0, 70, 0
2, 33240, Note_on_c, 0, 67, 100
2, 33292, Note_on_c, 0, 67, 0
2, 33300, Note_on_c, 0, 68, 100
2, 33326, Note_on_c, 0, 68, 0
2, 33330, Note_on_c, 0, 67, 100
2, 33356, Note_on_c, 0, 67, 0
2, 33360, Note_on_c, 0, 65, 100
2, 33386, Note_on_c, 0, 65, 0
2, 33390, Note_on_c, 0, 64, 100
2, 33416, Note_on_c, 0, 64, 0
2, 33420, Note_on_c, 0, 65, 100
2, 33472, Note_on_c, 0, 65, 0
2, 33480, Note_on_c, 0, 71, 100
2, 33532, Note_on_c, 0, 71, 0
2, 33540, Note_on_c, 0, 72, 100
2, 33592, Note_on_c, 0, 72, 0
2, 33600, Note_on_c, 0, 67, 100
2, 33652, Note_on_c, 0, 67, 0
2, 33660, Note_on_c, 0, 77, 100
2, 33686, Note_on_c, 0, 77, 0
2, 33690, Note_on_c, 0, 75, 100
2, 33716, Note_on_c, 0, 75, 0
2, 33720, Note_on_c, 0, 74, 100
2, 33772, Note_on_c, 0, 74, 0
2, 33780, Note_on_c, 0, 74, 92
2, 33793, Note_on_c, 0, 74, 0
2, 33795, Note_on_c, 0, 75, 93
2, 33808, Note_on_c, 0, 75, 0
2, 33810, Note_on_c, 0, 74, 93
2, 33823, Note_on_c, 0, 74, 0
2, 33825, Note_on_c, 0, 75, 93
2, 33838, Note_on_c, 0, 75, 0
2, 33840, Note_on_c, 0, 74, 93
2, 33853, Note_on_c, 0, 74, 0
2, 33855, Note_on_c, 0, 75, 93
2, 33868, Note_on_c, 0, 75, 0
2, 33870, Note_on_c, 0, 74, 100
2, 33952, Note_on_c, 0, 74, 0
2, 33960, Note_on_c, 0, 72, 100
2, 34012, Note_on_c, 0, 72, 0
2, 34020, Note_on_c, 0, 72, 100
2, 34365, Note_on_c, 0, 72, 0
2, 34380, Note_on_c, 0, 72, 100
2, 34605, Note_on_c, 0, 72, 0
2, 34605, End_track
3, 0, Start_track
3, 0, MIDI_port, 0
3, 0, Program_c, 1, 81
3, 0, Control_c, 1, 7, 115
3, 0, Control_c, 1, 10, 80
3, 60, Control_c, 1, 7, 115
3, 70, Control_c, 1, 10, 80
3, 80, Program_c, 1, 81
3, 180, Note_on_c, 1, 67, 100
3, 285, Note_on_c, 1, 67, 0
3, 720, Note_on_c, 1, 77, 100
3, 952, Note_on_c, 1, 77, 0
3, 960, Note_on_c, 1, 77, 100
3, 1012, Note_on_c, 1, 77, 0
3, 1020, Note_on_c, 1, 75, 100
3, 1072, Note_on_c, 1, 75, 0
3, 1080, Note_on_c, 1, 74, 100
3, 1132, Note_on_c, 1, 74, 0
3, 1140, Note_on_c, 1, 75, 100
3, 1245, Note_on_c, 1, 75, 0
3, 1260, Note_on_c, 1, 72, 100
3, 1432, Note_on_c, 1, 72, 0
3, 1440, Note_on_c, 1, 72, 100
3, 1545, Note_on_c, 1, 72, 0
3, 1560, Note_on_c, 1, 74, 100
3, 1612, Note_on_c, 1, 74, 0
3, 1620, Note_on_c, 1, 71, 100
3, 1912, Note_on_c, 1, 71, 0
3, 1920, Note_on_c, 1, 71, 100
3, 1972, Note_on_c, 1, 71, 0
3, 1980, Note_on_c, 1, 72, 100
3, 2085, Note_on_c, 1, 72, 0
3, 2220, Note_on_c, 1, 69, 100
3, 2325, Note_on_c, 1, 69, 0
3, 2370, Note_on_c, 1, 67, 100
3, 2396, Note_on_c, 1, 67, 0
3, 2400, Note_on_c, 1, 65, 100
3, 2426, Note_on_c, 1, 65, 0
3, 2430, Note_on_c, 1, 63, 100
3, 2456, Note_on_c, 1, 63, 0
3, 2460, Note_on_c, 1, 65, 100
3, 2512, Note_on_c, 1, 65, 0
3, 2520, Note_on_c, 1, 62, 100
3, 2572, Note_on_c, 1, 62, 0
3, 2640, Note_on_c, 1, 67, 100
3, 2692, Note_on_c, 1, 67, 0
3, 2700, Note_on_c, 1, 62, 100
3, 2752, Note_on_c, 1, 62, 0
3, 2760, Note_on_c, 1, 65, 100
3, 2812, Note_on_c, 1, 65, 0
3, 2820, Note_on_c, 1, 63, 100
3, 2925, Note_on_c, 1, 63, 0
3, 2940, Note_on_c, 1, 67, 100
3, 3112, Note_on_c, 1, 67, 0
3, 3360, Note_on_c, 1, 74, 100
3, 3412, Note_on_c, 1, 74, 0
3, 3420, Note_on_c, 1, 75, 100
3, 3472, Note_on_c, 1, 75, 0
3, 3480, Note_on_c, 1, 72, 100
3, 3532, Note_on_c, 1, 72, 0
3, 3540, Note_on_c, 1, 71, 100
3, 3765, Note_on_c, 1, 71, 0
3, 3780, Note_on_c, 1, 72, 100
3, 4005, Note_on_c, 1, 72, 0
3, 4530, Note_on_c, 1, 79, 100
3, 4545, Note_on_c, 1, 75, 100
3, 4612, Note_on_c, 1, 75, 0
3, 4612, Note_on_c, 1, 79, 0
3, 4770, Note_on_c, 1, 77, 100
3, 4796, Note_on_c, 1, 77, 0
3, 4800, Note_on_c, 1, 75, 100
3, 4826, Note_on_c, 1, 75, 0
3, 4830, Note_on_c, 1, 74, 100
3, 4856, Note_on_c, 1, 74, 0
3, 4860, Note_on_c, 1, 75, 100
3, 4912, Note_on_c, 1, 75, 0
3, 4920, Note_on_c, 1, 70, 100
3, 4972, Note_on_c, 1, 70, 0
3, 4980, Note_on_c, 1, 72, 100
3, 5246, Note_on_c, 1, 72, 0
3, 5250, Note_on_c, 1, 72, 100
3, 5276, Note_on_c, 1, 72, 0
3, 5280, Note_on_c, 1, 70, 100
3, 5306, Note_on_c, 1, 70, 0
3, 5310, Note_on_c, 1, 69, 100
3, 5336, Note_on_c, 1, 69, 0
3, 5340, Note_on_c, 1, 70, 100
3, 5392, Note_on_c, 1, 70, 0
3, 5400, Note_on_c, 1, 65, 100
3, 5452, Note_on_c, 1, 65, 0
3, 5460, Note_on_c, 1, 62, 100
3, 5512, Note_on_c, 1, 62, 0
3, 5520, Note_on_c, 1, 65, 100
3, 5572, Note_on_c, 1, 65, 0
3, 5580, Note_on_c, 1, 70, 100
3, 5685, Note_on_c, 1, 70, 0
3, 5700, Note_on_c, 1, 67, 100
3, 5865, Note_on_c, 1, 67, 0
3, 5880, Note_on_c, 1, 69, 100
3, 5932, Note_on_c, 1, 69, 0
3, 5940, Note_on_c, 1, 66, 100
3, 6165, Note_on_c, 1, 66, 0
3, 6180, Note_on_c, 1, 67, 100
3, 6285, Note_on_c, 1, 67, 0
3, 6420, Note_on_c, 1, 73, 100
3, 6645, Note_on_c, 1, 73, 0
3, 6660, Note_on_c, 1, 74, 100
3, 7245, Note_on_c, 1, 74, 0
3, 7860, Note_on_c, 1, 66, 100
3, 8085, Note_on_c, 1, 66, 0
3, 8250, Note_on_c, 1, 65, 100
3, 8276, Note_on_c, 1, 65, 0
3, 8280, Note_on_c, 1, 63, 100
3, 8306, Note_on_c, 1, 63, 0
3, 8310, Note_on_c, 1, 62, 100
3, 8336, Note_on_c, 1, 62, 0
3, 8340, Note_on_c, 1, 63, 100
3, 8392, Note_on_c, 1, 63, 0
3, 8400, Note_on_c, 1, 60, 100
3, 8452, Note_on_c, 1, 60, 0
3, 8460, Note_on_c, 1, 59, 100
3, 8460, Note_on_c, 1, 62, 100
3, 8685, Note_on_c, 1, 62, 0
3, 8685, Note_on_c, 1, 59, 0
3, 8701, Control_c, 1, 7, 120
3, 8711, Control_c, 1, 10, 45
3, 8721, Program_c, 1, 0
3, 8820, Note_on_c, 1, 67, 100
3, 8925, Note_on_c, 1, 67, 0
3, 9360, Note_on_c, 1, 77, 100
3, 9592, Note_on_c, 1, 77, 0
3, 9600, Note_on_c, 1, 77, 100
3, 9652, Note_on_c, 1, 77, 0
3, 9660, Note_on_c, 1, 75, 100
3, 9712, Note_on_c, 1, 75, 0
3, 9720, Note_on_c, 1, 74, 100
3, 9772, Note_on_c, 1, 74, 0
3, 9780, Note_on_c, 1, 75, 100
3, 9885, Note_on_c, 1, 75, 0
3, 9900, Note_on_c, 1, 72, 100
3, 10072, Note_on_c, 1, 72, 0
3, 10080, Note_on_c, 1, 72, 100
3, 10185, Note_on_c, 1, 72, 0
3, 10200, Note_on_c, 1, 74, 100
3, 10252, Note_on_c, 1, 74, 0
3, 10260, Note_on_c, 1, 71, 100
3, 10552, Note_on_c, 1, 71, 0
3, 10560, Note_on_c, 1, 71, 100
3, 10612, Note_on_c, 1, 71, 0
3, 10620, Note_on_c, 1, 72, 100
3, 10725, Note_on_c, 1, 72, 0
3, 10860, Note_on_c, 1, 69, 100
3, 10965, Note_on_c, 1, 69, 0
3, 11010, Note_on_c, 1, 67, 100
3, 11036, Note_on_c, 1, 67, 0
3, 11040, Note_on_c, 1, 65, 100
3, 11066, Note_on_c, 1, 65, 0
3, 11070, Note_on_c, 1, 63, 100
3, 11096, Note_on_c, 1, 63, 0
3, 11100, Note_on_c, 1, 65, 100
3, 11152, Note_on_c, 1, 65, 0
3, 11160, Note_on_c, 1, 62, 100
3, 11212, Note_on_c, 1, 62, 0
3, 11280, Note_on_c, 1, 67, 100
3, 11332, Note_on_c, 1, 67, 0
3, 11340, Note_on_c, 1, 62, 100
3, 11392, Note_on_c, 1, 62, 0
3, 11400, Note_on_c, 1, 65, 100
3, 11452, Note_on_c, 1, 65, 0
3, 11460, Note_on_c, 1, 63, 100
3, 11565, Note_on_c, 1, 63, 0
3, 11580, Note_on_c, 1, 67, 100
3, 11752, Note_on_c, 1, 67, 0
3, 12000, Note_on_c, 1, 74, 100
3, 12052, Note_on_c, 1, 74, 0
3, 12060, Note_on_c, 1, 75, 100
3, 12112, Note_on_c, 1, 75, 0
3, 12120, Note_on_c, 1, 72, 100
3, 12172, Note_on_c, 1, 72, 0
3, 12180, Note_on_c, 1, 71, 100
3, 12405, Note_on_c, 1, 71, 0
3, 12420, Note_on_c, 1, 72, 100
3, 12645, Note_on_c, 1, 72, 0
3, 13170, Note_on_c, 1, 79, 100
3, 13185, Note_on_c, 1, 75, 100
3, 13252, Note_on_c, 1, 75, 0
3, 13252, Note_on_c, 1, 79, 0
3, 13410, Note_on_c, 1, 77, 100
3, 13436, Note_on_c, 1, 77, 0
3, 13440, Note_on_c, 1, 75, 100
3, 13466, Note_on_c, 1, 75, 0
3, 13470, Note_on_c, 1, 74, 100
3, 13496, Note_on_c, 1, 74, 0
3, 13500, Note_on_c, 1, 75, 100
3, 13552, Note_on_c, 1, 75, 0
3, 13560, Note_on_c, 1, 70, 100
3, 13612, Note_on_c, 1, 70, 0
3, 13620, Note_on_c, 1, 72, 100
3, 13886, Note_on_c, 1, 72, 0
3, 13890, Note_on_c, 1, 72, 100
3, 13916, Note_on_c, 1, 72, 0
3, 13920, Note_on_c, 1, 70, 100
3, 13946, Note_on_c, 1, 70, 0
3, 13950, Note_on_c, 1, 69, 100
3, 13976, Note_on_c, 1, 69, 0
3, 13980, Note_on_c, 1, 70, 100
3, 14032, Note_on_c, 1, 70, 0
3, 14040, Note_on_c, 1, 65, 100
3, 14092, Note_on_c, 1, 65, 0
3, 14100, Note_on_c, 1, 62, 100
3, 14152, Note_on_c, 1, 62, 0
3, 14160, Note_on_c, 1, 65, 100
3, 14212, Note_on_c, 1, 65, 0
3, 14220, Note_on_c, 1, 70, 100
3, 14325, Note_on_c, 1, 70, 0
3, 14340, Note_on_c, 1, 67, 100
3, 14505, Note_on_c, 1, 67, 0
3, 14520, Note_on_c, 1, 69, 100
3, 14572, Note_on_c, 1, 69, 0
3, 14580, Note_on_c, 1, 66, 100
3, 14805, Note_on_c, 1, 66, 0
3, 14820, Note_on_c, 1, 67, 100
3, 14925, Note_on_c, 1, 67, 0
3, 15060, Note_on_c, 1, 73, 100
3, 15285, Note_on_c, 1, 73, 0
3, 15300, Note_on_c, 1, 74, 100
3, 15885, Note_on_c, 1, 74, 0
3, 16500, Note_on_c, 1, 66, 100
3, 16725, Note_on_c, 1, 66, 0
3, 16890, Note_on_c, 1, 65, 100
3, 16916, Note_on_c, 1, 65, 0
3, 16920, Note_on_c, 1, 63, 100
3, 16946, Note_on_c, 1, 63, 0
3, 16950, Note_on_c, 1, 62, 100
3, 16976, Note_on_c, 1, 62, 0
3, 16980, Note_on_c, 1, 63, 100
3, 17032, Note_on_c, 1, 63, 0
3, 17040, Note_on_c, 1, 60, 100
3, 17092, Note_on_c, 1, 60, 0
3, 17100, Note_on_c, 1, 59, 100
3, 17100, Note_on_c, 1, 62, 100
3, 17325, Note_on_c, 1, 62, 0
3, 17325, Note_on_c, 1, 59, 0
3, 17342, Control_c, 1, 7, 115
3, 17352, Control_c, 1, 10, 80
3, 17362, Program_c, 1, 81
3, 17460, Note_on_c, 1, 71, 100
3, 17685, Note_on_c, 1, 71, 0
3, 18180, Note_on_c, 1, 74, 100
3, 18405, Note_on_c, 1, 74, 0
3, 18900, Note_on_c, 1, 72, 100
3, 19065, Note_on_c, 1, 72, 0
3, 19080, Note_on_c, 1, 77, 100
3, 19192, Note_on_c, 1, 77, 0
3, 19200, Note_on_c, 1, 77, 100
3, 19226, Note_on_c, 1, 77, 0
3, 19230, Note_on_c, 1, 75, 100
3, 19256, Note_on_c, 1, 75, 0
3, 19260, Note_on_c, 1, 74, 100
3, 19286, Note_on_c, 1, 74, 0
3, 19290, Note_on_c, 1, 75, 100
3, 19316, Note_on_c, 1, 75, 0
3, 19320, Note_on_c, 1, 77, 100
3, 19372, Note_on_c, 1, 77, 0
3, 19380, Note_on_c, 1, 71, 100
3, 19605, Note_on_c, 1, 71, 0
3, 19620, Note_on_c, 1, 72, 100
3, 19725, Note_on_c, 1, 72, 0
3, 20880, Note_on_c, 1, 70, 100
3, 20932, Note_on_c, 1, 70, 0
3, 20940, Note_on_c, 1, 76, 100
3, 21045, Note_on_c, 1, 76, 0
3, 21060, Note_on_c, 1, 72, 100
3, 21285, Note_on_c, 1, 72, 0
3, 21360, Note_on_c, 1, 76, 100
3, 21412, Note_on_c, 1, 76, 0
3, 21420, Note_on_c, 1, 77, 100
3, 21592, Note_on_c, 1, 77, 0
3, 21600, Note_on_c, 1, 77, 100
3, 21652, Note_on_c, 1, 77, 0
3, 21660, Note_on_c, 1, 76, 100
3, 21765, Note_on_c, 1, 76, 0
3, 21780, Note_on_c, 1, 77, 100
3, 21885, Note_on_c, 1, 77, 0
3, 22890, Note_on_c, 1, 77, 100
3, 22916, Note_on_c, 1, 77, 0
3, 22920, Note_on_c, 1, 75, 100
3, 22946, Note_on_c, 1, 75, 0
3, 22950, Note_on_c, 1, 74, 100
3, 22976, Note_on_c, 1, 74, 0
3, 22980, Note_on_c, 1, 75, 100
3, 23032, Note_on_c, 1, 75, 0
3, 23040, Note_on_c, 1, 72, 100
3, 23145, Note_on_c, 1, 72, 0
3, 23160, Note_on_c, 1, 74, 100
3, 23212, Note_on_c, 1, 74, 0
3, 23220, Note_on_c, 1, 71, 100
3, 23445, Note_on_c, 1, 71, 0
3, 23940, Note_on_c, 1, 67, 100
3, 24165, Note_on_c, 1, 67, 0
3, 24240, Note_on_c, 1, 67, 100
3, 24292, Note_on_c, 1, 67, 0
3, 24300, Note_on_c, 1, 62, 100
3, 24352, Note_on_c, 1, 62, 0
3, 24360, Note_on_c, 1, 65, 100
3, 24412, Note_on_c, 1, 65, 0
3, 24420, Note_on_c, 1, 63, 100
3, 24712, Note_on_c, 1, 63, 0
3, 24720, Note_on_c, 1, 56, 100
3, 24772, Note_on_c, 1, 56, 0
3, 24780, Note_on_c, 1, 62, 100
3, 24885, Note_on_c, 1, 62, 0
3, 24960, Note_on_c, 1, 60, 100
3, 25125, Note_on_c, 1, 60, 0
3, 25740, Note_on_c, 1, 63, 100
3, 25965, Note_on_c, 1, 63, 0
3, 25982, Control_c, 1, 7, 120
3, 25992, Control_c, 1, 10, 45
3, 26002, Program_c, 1, 0
3, 26100, Note_on_c, 1, 71, 100
3, 26325, Note_on_c, 1, 71, 0
3, 26820, Note_on_c, 1, 74, 100
3, 27045, Note_on_c, 1, 74, 0
3, 27540, Note_on_c, 1, 72, 100
3, 27705, Note_on_c, 1, 72, 0
3, 27720, Note_on_c, 1, 77, 100
3, 27832, Note_on_c, 1, 77, 0
3, 27840, Note_on_c, 1, 77, 100
3, 27866, Note_on_c, 1, 77, 0
3, 27870, Note_on_c, 1, 75, 100
3, 27896, Note_on_c, 1, 75, 0
3, 27900, Note_on_c, 1, 74, 100
3, 27926, Note_on_c, 1, 74, 0
3, 27930, Note_on_c, 1, 75, 100
3, 27956, Note_on_c, 1, 75, 0
3, 27960, Note_on_c, 1, 77, 100
3, 28012, Note_on_c, 1, 77, 0
3, 28020, Note_on_c, 1, 71, 100
3, 28245, Note_on_c, 1, 71, 0
3, 28260, Note_on_c, 1, 72, 100
3, 28365, Note_on_c, 1, 72, 0
3, 29520, Note_on_c, 1, 70, 100
3, 29572, Note_on_c, 1, 70, 0
3, 29580, Note_on_c, 1, 76, 100
3, 29685, Note_on_c, 1, 76, 0
3, 29700, Note_on_c, 1, 72, 100
3, 29925, Note_on_c, 1, 72, 0
3, 30000, Note_on_c, 1, 76, 100
3, 30052, Note_on_c, 1, 76, 0
3, 30060, Note_on_c, 1, 77, 100
3, 30232, Note_on_c, 1, 77, 0
3, 30240, Note_on_c, 1, 77, 100
3, 30292, Note_on_c, 1, 77, 0
3, 30300, Note_on_c, 1, 76, 100
3, 30405, Note_on_c, 1, 76, 0
3, 30420, Note_on_c, 1, 77, 100
3, 30525, Note_on_c, 1, 77, 0
3, 31530, Note_on_c, 1, 77, 100
3, 31556, Note_on_c, 1, 77, 0
3, 31560, Note_on_c, 1, 75, 100
3, 31586, Note_on_c, 1, 75, 0
3, 31590, Note_on_c, 1, 74, 100
3, 31616, Note_on_c, 1, 74, 0
3, 31620, Note_on_c, 1, 75, 100
3, 31672, Note_on_c, 1, 75, 0
3, 31680, Note_on_c, 1, 72, 100
3, 31785, Note_on_c, 1, 72, 0
3, 31800, Note_on_c, 1, 74, 100
3, 31852, Note_on_c, 1, 74, 0
3, 31860, Note_on_c, 1, 71, 100
3, 32085, Note_on_c, 1, 71, 0
3, 32580, Note_on_c, 1, 67, 100
3, 32805, Note_on_c, 1, 67, 0
3, 32880, Note_on_c, 1, 67, 100
3, 32932, Note_on_c, 1, 67, 0
3, 32940, Note_on_c, 1, 62, 100
3, 32992, Note_on_c, 1, 62, 0
3, 33000, Note_on_c, 1, 65, 100
3, 33052, Note_on_c, 1, 65, 0
3, 33060, Note_on_c, 1, 63, 100
3, 33352, Note_on_c, 1, 63, 0
3, 33360, Note_on_c, 1, 56, 100
3, 33412, Note_on_c, 1, 56, 0
3, 33420, Note_on_c, 1, 62, 100
3, 33525, Note_on_c, 1, 62, 0
3, 33600, Note_on_c, 1, 60, 100
3, 33765, Note_on_c, 1, 60, 0
3, 34380, Note_on_c, 1, 63, 100
3, 34605, Note_on_c, 1, 63, 0
3, 34605, End_track
4, 0, Start_track
4, 0, MIDI_port, 0
4, 0, Program_c, 2, 84
4, 0, Control_c, 2, 7, 100
4, 0, Control_c, 2, 10, 45
4, 60, Control_c, 2, 7, 90
4, 70, Control_c, 2, 10, 45
4, 80, Program_c, 2, 84
4, 180, Note_on_c, 2, 63, 100
4, 285, Note_on_c, 2, 63, 0
4, 780, Note_on_c, 2, 74, 100
4, 885, Note_on_c, 2, 74, 0
4, 1380, Note_on_c, 2, 68, 100
4, 1545, Note_on_c, 2, 68, 0
4, 1560, Note_on_c, 2, 68, 100
4, 1612, Note_on_c, 2, 68, 0
4, 1620, Note_on_c, 2, 67, 100
4, 2032, Note_on_c, 2, 67, 0
4, 2040, Note_on_c, 2, 68, 100
4, 2092, Note_on_c, 2, 68, 0
4, 2100, Note_on_c, 2, 66, 100
4, 2325, Note_on_c, 2, 66, 0
4, 4560, Note_on_c, 2, 70, 100
4, 4616, Note_on_c, 2, 70, 0
4, 8340, Note_on_c, 2, 54, 100
4, 8445, Note_on_c, 2, 54, 0
4, 8460, Note_on_c, 2, 55, 100
4, 8685, Note_on_c, 2, 55, 0
4, 8702, Control_c, 2, 7, 120
4, 8712, Control_c, 2, 10, 80
4, 8722, Program_c, 2, 2
4, 8820, Note_on_c, 2, 63, 100
4, 8925, Note_on_c, 2, 63, 0
4, 9420, Note_on_c, 2, 74, 100
4, 9525, Note_on_c, 2, 74, 0
4, 10020, Note_on_c, 2, 68, 100
4, 10185, Note_on_c, 2, 68, 0
4, 10200, Note_on_c, 2, 68, 100
4, 10252, Note_on_c, 2, 68, 0
4, 10260, Note_on_c, 2, 67, 100
4, 10672, Note_on_c, 2, 67, 0
4, 10680, Note_on_c, 2, 68, 100
4, 10732, Note_on_c, 2, 68, 0
4, 10740, Note_on_c, 2, 66, 100
4, 10965, Note_on_c, 2, 66, 0
4, 13200, Note_on_c, 2, 70, 100
4, 13256, Note_on_c, 2, 70, 0
4, 16980, Note_on_c, 2, 54, 100
4, 17085, Note_on_c, 2, 54, 0
4, 17100, Note_on_c, 2, 55, 100
4, 17325, Note_on_c, 2, 55, 0
4, 17344, Control_c, 2, 7, 90
4, 17354, Control_c, 2, 10, 45
4, 17364, Program_c, 2, 84
4, 17460, Note_on_c, 2, 67, 100
4, 17625, Note_on_c, 2, 67, 0
4, 17640, Note_on_c, 2, 57, 100
4, 17692, Note_on_c, 2, 57, 0
4, 17700, Note_on_c, 2, 59, 100
4, 17752, Note_on_c, 2, 59, 0
4, 17760, Note_on_c, 2, 60, 100
4, 17812, Note_on_c, 2, 60, 0
4, 17820, Note_on_c, 2, 62, 100
4, 17872, Note_on_c, 2, 62, 0
4, 17880, Note_on_c, 2, 63, 100
4, 17932, Note_on_c, 2, 63, 0
4, 17940, Note_on_c, 2, 65, 100
4, 17992, Note_on_c, 2, 65, 0
4, 18000, Note_on_c, 2, 62, 100
4, 18052, Note_on_c, 2, 62, 0
4, 18060, Note_on_c, 2, 63, 100
4, 18112, Note_on_c, 2, 63, 0
4, 18120, Note_on_c, 2, 65, 100
4, 18172, Note_on_c, 2, 65, 0
4, 18180, Note_on_c, 2, 59, 100
4, 18193, Note_on_c, 2, 59, 0
4, 18195, Note_on_c, 2, 60, 100
4, 18208, Note_on_c, 2, 60, 0
4, 18210, Note_on_c, 2, 59, 100
4, 18223, Note_on_c, 2, 59, 0
4, 18225, Note_on_c, 2, 60, 100
4, 18238, Note_on_c, 2, 60, 0
4, 18240, Note_on_c, 2, 59, 100
4, 18292, Note_on_c, 2, 59, 0
4, 20160, Note_on_c, 2, 60, 100
4, 20212, Note_on_c, 2, 60, 0
4, 20220, Note_on_c, 2, 61, 100
4, 20366, Note_on_c, 2, 61, 0
4, 20370, Note_on_c, 2, 61, 100
4, 20396, Note_on_c, 2, 61, 0
4, 20400, Note_on_c, 2, 60, 100
4, 20426, Note_on_c, 2, 60, 0
4, 20430, Note_on_c, 2, 58, 100
4, 20456, Note_on_c, 2, 58, 0
4, 20460, Note_on_c, 2, 64, 100
4, 20512, Note_on_c, 2, 64, 0
4, 20520, Note_on_c, 2, 65, 100
4, 20572, Note_on_c, 2, 65, 0
4, 20580, Note_on_c, 2, 67, 100
4, 20805, Note_on_c, 2, 67, 0
4, 22290, Note_on_c, 2, 70, 100
4, 22316, Note_on_c, 2, 70, 0
4, 22320, Note_on_c, 2, 68, 100
4, 22346, Note_on_c, 2, 68, 0
4, 22350, Note_on_c, 2, 67, 100
4, 22376, Note_on_c, 2, 67, 0
4, 22380, Note_on_c, 2, 68, 100
4, 22432, Note_on_c, 2, 68, 0
4, 22440, Note_on_c, 2, 65, 100
4, 22492, Note_on_c, 2, 65, 0
4, 22500, Note_on_c, 2, 67, 100
4, 22845, Note_on_c, 2, 67, 0
4, 23460, Note_on_c, 2, 72, 100
4, 23565, Note_on_c, 2, 72, 0
4, 23580, Note_on_c, 2, 69, 100
4, 23685, Note_on_c, 2, 69, 0
4, 23700, Note_on_c, 2, 66, 100
4, 23925, Note_on_c, 2, 66, 0
4, 23940, Note_on_c, 2, 62, 100
4, 24165, Note_on_c, 2, 62, 0
4, 25140, Note_on_c, 2, 71, 100
4, 25365, Note_on_c, 2, 71, 0
4, 25530, Note_on_c, 2, 70, 100
4, 25556, Note_on_c, 2, 70, 0
4, 25560, Note_on_c, 2, 68, 100
4, 25586, Note_on_c, 2, 68, 0
4, 25590, Note_on_c, 2, 67, 100
4, 25616, Note_on_c, 2, 67, 0
4, 25620, Note_on_c, 2, 68, 100
4, 25672, Note_on_c, 2, 68, 0
4, 25680, Note_on_c, 2, 65, 100
4, 25732, Note_on_c, 2, 65, 0
4, 25740, Note_on_c, 2, 67, 100
4, 25965, Note_on_c, 2, 67, 0
4, 25984, Control_c, 2, 7, 127
4, 25994, Control_c, 2, 10, 80
4, 26004, Program_c, 2, 2
4, 26100, Note_on_c, 2, 67, 100
4, 26265, Note_on_c, 2, 67, 0
4, 26280, Note_on_c, 2, 57, 100
4, 26332, Note_on_c, 2, 57, 0
4, 26340, Note_on_c, 2, 59, 100
4, 26392, Note_on_c, 2, 59, 0
4, 26400, Note_on_c, 2, 60, 100
4, 26452, Note_on_c, 2, 60, 0
4, 26460, Note_on_c, 2, 62, 100
4, 26512, Note_on_c, 2, 62, 0
4, 26520, Note_on_c, 2, 63, 100
4, 26572, Note_on_c, 2, 63, 0
4, 26580, Note_on_c, 2, 65, 100
4, 26632, Note_on_c, 2, 65, 0
4, 26640, Note_on_c, 2, 62, 100
4, 26692, Note_on_c, 2, 62, 0
4, 26700, Note_on_c, 2, 63, 100
4, 26752, Note_on_c, 2, 63, 0
4, 26760, Note_on_c, 2, 65, 100
4, 26812, Note_on_c, 2, 65, 0
4, 26820, Note_on_c, 2, 59, 100
4, 26833, Note_on_c, 2, 59, 0
4, 26835, Note_on_c, 2, 60, 100
4, 26848, Note_on_c, 2, 60, 0
4, 26850, Note_on_c, 2, 59, 100
4, 26863, Note_on_c, 2, 59, 0
4, 26865, Note_on_c, 2, 60, 100
4, 26878, Note_on_c, 2, 60, 0
4, 26880, Note_on_c, 2, 59, 100
4, 26932, Note_on_c, 2, 59, 0
4, 28800, Note_on_c, 2, 60, 100
4, 28852, Note_on_c, 2, 60, 0
4, 28860, Note_on_c, 2, 61, 100
4, 29006, Note_on_c, 2, 61, 0
4, 29010, Note_on_c, 2, 61, 100
4, 29036, Note_on_c, 2, 61, 0
4, 29040, Note_on_c, 2, 60, 100
4, 29066, Note_on_c, 2, 60, 0
4, 29070, Note_on_c, 2, 58, 100
4, 29096, Note_on_c, 2, 58, 0
4, 29100, Note_on_c, 2, 64, 100
4, 29152, Note_on_c, 2, 64, 0
4, 29160, Note_on_c, 2, 65, 100
4, 29212, Note_on_c, 2, 65, 0
4, 29220, Note_on_c, 2, 67, 100
4, 29445, Note_on_c, 2, 67, 0
4, 30930, Note_on_c, 2, 70, 100
4, 30956, Note_on_c, 2, 70, 0
4, 30960, Note_on_c, 2, 68, 100
4, 30986, Note_on_c, 2, 68, 0
4, 30990, Note_on_c, 2, 67, 100
4, 31016, Note_on_c, 2, 67, 0
4, 31020, Note_on_c, 2, 68, 100
4, 31072, Note_on_c, 2, 68, 0
4, 31080, Note_on_c, 2, 65, 100
4, 31132, Note_on_c, 2, 65, 0
4, 31140, Note_on_c, 2, 67, 100
4, 31485, Note_on_c, 2, 67, 0
4, 32100, Note_on_c, 2, 72, 100
4, 32205, Note_on_c, 2, 72, 0
4, 32220, Note_on_c, 2, 69, 100
4, 32325, Note_on_c, 2, 69, 0
4, 32340, Note_on_c, 2, 66, 100
4, 32565, Note_on_c, 2, 66, 0
4, 32580, Note_on_c, 2, 62, 100
4, 32805, Note_on_c, 2, 62, 0
4, 33780, Note_on_c, 2, 71, 100
4, 34005, Note_on_c, 2, 71, 0
4, 34170, Note_on_c, 2, 70, 100
4, 34196, Note_on_c, 2, 70, 0
4, 34200, Note_on_c, 2, 68, 100
4, 34226, Note_on_c, 2, 68, 0
4, 34230, Note_on_c, 2, 67, 100
4, 34256, Note_on_c, 2, 67, 0
4, 34260, Note_on_c, 2, 68, 100
4, 34312, Note_on_c, 2, 68, 0
4, 34320, Note_on_c, 2, 65, 100
4, 34372, Note_on_c, 2, 65, 0
4, 34380, Note_on_c, 2, 67, 100
4, 34605, Note_on_c, 2, 67, 0
4, 34605, End_track
5, 0, Start_track
5, 0, MIDI_port, 0
5, 0, Program_c, 3, 82
5, 0, Control_c, 3, 7, 100
5, 0, Control_c, 3, 10, 100
5, 60, Control_c, 3, 7, 90
5, 70, Control_c, 3, 10, 100
5, 80, Program_c, 3, 82
5, 180, Note_on_c, 3, 60, 100
5, 405, Note_on_c, 3, 60, 0
5, 420, Note_on_c, 3, 51, 100
5, 525, Note_on_c, 3, 51, 0
5, 540, Note_on_c, 3, 55, 100
5, 645, Note_on_c, 3, 55, 0
5, 660, Note_on_c, 3, 60, 100
5, 765, Note_on_c, 3, 60, 0
5, 780, Note_on_c, 3, 59, 100
5, 885, Note_on_c, 3, 59, 0
5, 900, Note_on_c, 3, 60, 100
5, 1046, Note_on_c, 3, 60, 0
5, 1050, Note_on_c, 3, 55, 100
5, 1076, Note_on_c, 3, 55, 0
5, 1080, Note_on_c, 3, 57, 100
5, 1106, Note_on_c, 3, 57, 0
5, 1110, Note_on_c, 3, 59, 100
5, 1136, Note_on_c, 3, 59, 0
5, 1140, Note_on_c, 3, 60, 100
5, 1192, Note_on_c, 3, 60, 0
5, 1200, Note_on_c, 3, 62, 100
5, 1252, Note_on_c, 3, 62, 0
5, 1260, Note_on_c, 3, 63, 100
5, 1312, Note_on_c, 3, 63, 0
5, 1320, Note_on_c, 3, 60, 100
5, 1372, Note_on_c, 3, 60, 0
5, 3120, Note_on_c, 3, 60, 100
5, 3225, Note_on_c, 3, 60, 0
5, 3240, Note_on_c, 3, 59, 100
5, 3292, Note_on_c, 3, 59, 0
5, 3360, Note_on_c, 3, 55, 100
5, 3412, Note_on_c, 3, 55, 0
5, 3420, Note_on_c, 3, 60, 100
5, 3525, Note_on_c, 3, 60, 0
5, 3540, Note_on_c, 3, 55, 100
5, 3885, Note_on_c, 3, 55, 0
5, 3900, Note_on_c, 3, 51, 100
5, 4005, Note_on_c, 3, 51, 0
5, 4020, Note_on_c, 3, 55, 100
5, 4125, Note_on_c, 3, 55, 0
5, 4620, Note_on_c, 3, 58, 100
5, 4725, Note_on_c, 3, 58, 0
5, 4740, Note_on_c, 3, 63, 100
5, 5085, Note_on_c, 3, 63, 0
5, 5100, Note_on_c, 3, 57, 100
5, 5205, Note_on_c, 3, 57, 0
5, 5220, Note_on_c, 3, 58, 100
5, 5366, Note_on_c, 3, 58, 0
5, 6060, Note_on_c, 3, 57, 100
5, 6165, Note_on_c, 3, 57, 0
5, 6180, Note_on_c, 3, 62, 100
5, 6285, Note_on_c, 3, 62, 0
5, 6300, Note_on_c, 3, 58, 100
5, 6405, Note_on_c, 3, 58, 0
5, 6420, Note_on_c, 3, 55, 100
5, 6525, Note_on_c, 3, 55, 0
5, 6540, Note_on_c, 3, 52, 100
5, 6645, Note_on_c, 3, 52, 0
5, 6660, Note_on_c, 3, 50, 100
5, 6686, Note_on_c, 3, 50, 0
5, 6690, Note_on_c, 3, 62, 100
5, 6716, Note_on_c, 3, 62, 0
5, 6720, Note_on_c, 3, 60, 100
5, 6746, Note_on_c, 3, 60, 0
5, 6750, Note_on_c, 3, 58, 100
5, 6776, Note_on_c, 3, 58, 0
5, 6780, Note_on_c, 3, 60, 100
5, 6832, Note_on_c, 3, 60, 0
5, 6840, Note_on_c, 3, 57, 100
5, 6892, Note_on_c, 3, 57, 0
5, 6960, Note_on_c, 3, 62, 100
5, 7012, Note_on_c, 3, 62, 0
5, 7020, Note_on_c, 3, 57, 100
5, 7072, Note_on_c, 3, 57, 0
5, 7080, Note_on_c, 3, 60, 100
5, 7132, Note_on_c, 3, 60, 0
5, 7140, Note_on_c, 3, 58, 100
5, 7432, Note_on_c, 3, 58, 0
5, 7440, Note_on_c, 3, 57, 100
5, 7605, Note_on_c, 3, 57, 0
5, 7860, Note_on_c, 3, 50, 100
5, 8085, Note_on_c, 3, 50, 0
5, 8220, Note_on_c, 3, 50, 100
5, 8685, Note_on_c, 3, 50, 0
5, 8704, Control_c, 3, 7, 120
5, 8714, Control_c, 3, 10, 20
5, 8724, Program_c, 3, 3
5, 8820, Note_on_c, 3, 60, 100
5, 9045, Note_on_c, 3, 60, 0
5, 9060, Note_on_c, 3, 51, 100
5, 9165, Note_on_c, 3, 51, 0
5, 9180, Note_on_c, 3, 55, 100
5, 9285, Note_on_c, 3, 55, 0
5, 9300, Note_on_c, 3, 60, 100
5, 9405, Note_on_c, 3, 60, 0
5, 9420, Note_on_c, 3, 59, 100
5, 9525, Note_on_c, 3, 59, 0
5, 9540, Note_on_c, 3, 60, 100
5, 9686, Note_on_c, 3, 60, 0
5, 9690, Note_on_c, 3, 55, 100
5, 9716, Note_on_c, 3, 55, 0
5, 9720, Note_on_c, 3, 57, 100
5, 9746, Note_on_c, 3, 57, 0
5, 9750, Note_on_c, 3, 59, 100
5, 9776, Note_on_c, 3, 59, 0
5, 9780, Note_on_c, 3, 60, 100
5, 9832, Note_on_c, 3, 60, 0
5, 9840, Note_on_c, 3, 62, 100
5, 9892, Note_on_c, 3, 62, 0
5, 9900, Note_on_c, 3, 63, 100
5, 9952, Note_on_c, 3, 63, 0
5, 9960, Note_on_c, 3, 60, 100
5, 10012, Note_on_c, 3, 60, 0
5, 11760, Note_on_c, 3, 60, 100
5, 11865, Note_on_c, 3, 60, 0
5, 11880, Note_on_c, 3, 59, 100
5, 11932, Note_on_c, 3, 59, 0
5, 12000, Note_on_c, 3, 55, 100
5, 12052, Note_on_c, 3, 55, 0
5, 12060, Note_on_c, 3, 60, 100
5, 12165, Note_on_c, 3, 60, 0
5, 12180, Note_on_c, 3, 55, 100
5, 12525, Note_on_c, 3, 55, 0
5, 12540, Note_on_c, 3, 51, 100
5, 12645, Note_on_c, 3, 51, 0
5, 12660, Note_on_c, 3, 55, 100
5, 12765, Note_on_c, 3, 55, 0
5, 13260, Note_on_c, 3, 58, 100
5, 13365, Note_on_c, 3, 58, 0
5, 13380, Note_on_c, 3, 63, 100
5, 13725, Note_on_c, 3, 63, 0
5, 13740, Note_on_c, 3, 57, 100
5, 13845, Note_on_c, 3, 57, 0
5, 13860, Note_on_c, 3, 58, 100
5, 14006, Note_on_c, 3, 58, 0
5, 14700, Note_on_c, 3, 57, 100
5, 14805, Note_on_c, 3, 57, 0
5, 14820, Note_on_c, 3, 62, 100
5, 14925, Note_on_c, 3, 62, 0
5, 14940, Note_on_c, 3, 58, 100
5, 15045, Note_on_c, 3, 58, 0
5, 15060, Note_on_c, 3, 55, 100
5, 15165, Note_on_c, 3, 55, 0
5, 15180, Note_on_c, 3, 52, 100
5, 15285, Note_on_c, 3, 52, 0
5, 15300, Note_on_c, 3, 50, 100
5, 15326, Note_on_c, 3, 50, 0
5, 15330, Note_on_c, 3, 62, 100
5, 15356, Note_on_c, 3, 62, 0
5, 15360, Note_on_c, 3, 60, 100
5, 15386, Note_on_c, 3, 60, 0
5, 15390, Note_on_c, 3, 58, 100
5, 15416, Note_on_c, 3, 58, 0
5, 15420, Note_on_c, 3, 60, 100
5, 15472, Note_on_c, 3, 60, 0
5, 15480, Note_on_c, 3, 57, 100
5, 15532, Note_on_c, 3, 57, 0
5, 15600, Note_on_c, 3, 62, 100
5, 15652, Note_on_c, 3, 62, 0
5, 15660, Note_on_c, 3, 57, 100
5, 15712, Note_on_c, 3, 57, 0
5, 15720, Note_on_c, 3, 60, 100
5, 15772, Note_on_c, 3, 60, 0
5, 15780, Note_on_c, 3, 58, 100
5, 16072, Note_on_c, 3, 58, 0
5, 16080, Note_on_c, 3, 57, 100
5, 16245, Note_on_c, 3, 57, 0
5, 16500, Note_on_c, 3, 50, 100
5, 16725, Note_on_c, 3, 50, 0
5, 16860, Note_on_c, 3, 50, 100
5, 17325, Note_on_c, 3, 50, 0
5, 17346, Control_c, 3, 7, 90
5, 17356, Control_c, 3, 10, 100
5, 17366, Program_c, 3, 82
5, 19380, Note_on_c, 3, 55, 100
5, 19605, Note_on_c, 3, 55, 0
5, 19620, Note_on_c, 3, 55, 100
5, 19725, Note_on_c, 3, 55, 0
5, 20520, Note_on_c, 3, 53, 100
5, 20572, Note_on_c, 3, 53, 0
5, 20580, Note_on_c, 3, 52, 100
5, 20632, Note_on_c, 3, 52, 0
5, 20640, Note_on_c, 3, 53, 100
5, 20692, Note_on_c, 3, 53, 0
5, 20700, Note_on_c, 3, 55, 100
5, 20752, Note_on_c, 3, 55, 0
5, 20760, Note_on_c, 3, 56, 100
5, 20812, Note_on_c, 3, 56, 0
5, 20820, Note_on_c, 3, 58, 100
5, 20872, Note_on_c, 3, 58, 0
5, 20880, Note_on_c, 3, 61, 100
5, 20932, Note_on_c, 3, 61, 0
5, 20940, Note_on_c, 3, 60, 100
5, 20992, Note_on_c, 3, 60, 0
5, 21000, Note_on_c, 3, 58, 100
5, 21052, Note_on_c, 3, 58, 0
5, 21060, Note_on_c, 3, 56, 100
5, 21112, Note_on_c, 3, 56, 0
5, 21120, Note_on_c, 3, 60, 100
5, 21172, Note_on_c, 3, 60, 0
5, 21180, Note_on_c, 3, 56, 100
5, 21232, Note_on_c, 3, 56, 0
5, 21240, Note_on_c, 3, 53, 100
5, 21292, Note_on_c, 3, 53, 0
5, 21300, Note_on_c, 3, 49, 100
5, 21405, Note_on_c, 3, 49, 0
5, 21420, Note_on_c, 3, 46, 100
5, 21525, Note_on_c, 3, 46, 0
5, 21540, Note_on_c, 3, 48, 100
5, 21645, Note_on_c, 3, 48, 0
5, 21660, Note_on_c, 3, 36, 100
5, 21765, Note_on_c, 3, 36, 0
5, 21780, Note_on_c, 3, 41, 100
5, 22046, Note_on_c, 3, 41, 0
5, 22050, Note_on_c, 3, 58, 100
5, 22076, Note_on_c, 3, 58, 0
5, 22080, Note_on_c, 3, 56, 100
5, 22106, Note_on_c, 3, 56, 0
5, 22110, Note_on_c, 3, 55, 100
5, 22136, Note_on_c, 3, 55, 0
5, 22140, Note_on_c, 3, 53, 100
5, 22192, Note_on_c, 3, 53, 0
5, 22200, Note_on_c, 3, 51, 100
5, 22252, Note_on_c, 3, 51, 0
5, 22260, Note_on_c, 3, 50, 100
5, 22365, Note_on_c, 3, 50, 0
5, 22380, Note_on_c, 3, 46, 100
5, 22485, Note_on_c, 3, 46, 0
5, 22500, Note_on_c, 3, 51, 100
5, 22646, Note_on_c, 3, 51, 0
5, 23340, Note_on_c, 3, 62, 100
5, 23445, Note_on_c, 3, 62, 0
5, 23460, Note_on_c, 3, 67, 100
5, 23565, Note_on_c, 3, 67, 0
5, 23580, Note_on_c, 3, 63, 100
5, 23685, Note_on_c, 3, 63, 0
5, 23700, Note_on_c, 3, 60, 100
5, 23805, Note_on_c, 3, 60, 0
5, 23820, Note_on_c, 3, 57, 100
5, 23925, Note_on_c, 3, 57, 0
5, 24300, Note_on_c, 3, 55, 100
5, 24525, Note_on_c, 3, 55, 0
5, 24540, Note_on_c, 3, 60, 100
5, 24765, Note_on_c, 3, 60, 0
5, 24780, Note_on_c, 3, 56, 100
5, 24885, Note_on_c, 3, 56, 0
5, 24900, Note_on_c, 3, 55, 100
5, 25005, Note_on_c, 3, 55, 0
5, 25020, Note_on_c, 3, 56, 100
5, 25125, Note_on_c, 3, 56, 0
5, 25140, Note_on_c, 3, 55, 100
5, 25365, Note_on_c, 3, 55, 0
5, 25500, Note_on_c, 3, 43, 100
5, 25620, Note_on_c, 3, 47, 100
5, 25725, Note_on_c, 3, 47, 0
5, 25740, Note_on_c, 3, 48, 100
5, 25965, Note_on_c, 3, 48, 0
5, 25965, Note_on_c, 3, 43, 0
5, 25986, Control_c, 3, 7, 127
5, 25996, Control_c, 3, 10, 20
5, 26006, Program_c, 3, 3
5, 28020, Note_on_c, 3, 55, 100
5, 28245, Note_on_c, 3, 55, 0
5, 28260, Note_on_c, 3, 55, 100
5, 28365, Note_on_c, 3, 55, 0
5, 29160, Note_on_c, 3, 53, 100
5, 29212, Note_on_c, 3, 53, 0
5, 29220, Note_on_c, 3, 52, 100
5, 29272, Note_on_c, 3, 52, 0
5, 29280, Note_on_c, 3, 53, 100
5, 29332, Note_on_c, 3, 53, 0
5, 29340, Note_on_c, 3, 55, 100
5, 29392, Note_on_c, 3, 55, 0
5, 29400, Note_on_c, 3, 56, 100
5, 29452, Note_on_c, 3, 56, 0
5, 29460, Note_on_c, 3, 58, 100
5, 29512, Note_on_c, 3, 58, 0
5, 29520, Note_on_c, 3, 61, 100
5, 29572, Note_on_c, 3, 61, 0
5, 29580, Note_on_c, 3, 60, 100
5, 29632, Note_on_c, 3, 60, 0
5, 29640, Note_on_c, 3, 58, 100
5, 29692, Note_on_c, 3, 58, 0
5, 29700, Note_on_c, 3, 56, 100
5, 29752, Note_on_c, 3, 56, 0
5, 29760, Note_on_c, 3, 60, 100
5, 29812, Note_on_c, 3, 60, 0
5, 29820, Note_on_c, 3, 56, 100
5, 29872, Note_on_c, 3, 56, 0
5, 29880, Note_on_c, 3, 53, 100
5, 29932, Note_on_c, 3, 53, 0
5, 29940, Note_on_c, 3, 49, 100
5, 30045, Note_on_c, 3, 49, 0
5, 30060, Note_on_c, 3, 46, 100
5, 30165, Note_on_c, 3, 46, 0
5, 30180, Note_on_c, 3, 48, 100
5, 30285, Note_on_c, 3, 48, 0
5, 30300, Note_on_c, 3, 36, 100
5, 30405, Note_on_c, 3, 36, 0
5, 30420, Note_on_c, 3, 41, 100
5, 30686, Note_on_c, 3, 41, 0
5, 30690, Note_on_c, 3, 58, 100
5, 30716, Note_on_c, 3, 58, 0
5, 30720, Note_on_c, 3, 56, 100
5, 30746, Note_on_c, 3, 56, 0
5, 30750, Note_on_c, 3, 55, 100
5, 30776, Note_on_c, 3, 55, 0
5, 30780, Note_on_c, 3, 53, 100
5, 30832, Note_on_c, 3, 53, 0
5, 30840, Note_on_c, 3, 51, 100
5, 30892, Note_on_c, 3, 51, 0
5, 30900, Note_on_c, 3, 50, 100
5, 31005, Note_on_c, 3, 50, 0
5, 31020, Note_on_c, 3, 46, 100
5, 31125, Note_on_c, 3, 46, 0
5, 31140, Note_on_c, 3, 51, 100
5, 31286, Note_on_c, 3, 51, 0
5, 31980, Note_on_c, 3, 62, 100
5, 32085, Note_on_c, 3, 62, 0
5, 32100, Note_on_c, 3, 67, 100
5, 32205, Note_on_c, 3, 67, 0
5, 32220, Note_on_c, 3, 63, 100
5, 32325, Note_on_c, 3, 63, 0
5, 32340, Note_on_c, 3, 60, 100
5, 32445, Note_on_c, 3, 60, 0
5, 32460, Note_on_c, 3, 57, 100
5, 32565, Note_on_c, 3, 57, 0
5, 32940, Note_on_c, 3, 55, 100
5, 33165, Note_on_c, 3, 55, 0
5, 33180, Note_on_c, 3, 60, 100
5, 33405, Note_on_c, 3, 60, 0
5, 33420, Note_on_c, 3, 56, 100
5, 33525, Note_on_c, 3, 56, 0
5, 33540, Note_on_c, 3, 55, 100
5, 33645, Note_on_c, 3, 55, 0
5, 33660, Note_on_c, 3, 56, 100
5, 33765, Note_on_c, 3, 56, 0
5, 33780, Note_on_c, 3, 55, 100
5, 34005, Note_on_c, 3, 55, 0
5, 34140, Note_on_c, 3, 43, 100
5, 34260, Note_on_c, 3, 47, 100
5, 34365, Note_on_c, 3, 47, 0
5, 34380, Note_on_c, 3, 48, 100
5, 34605, Note_on_c, 3, 48, 0
5, 34605, Note_on_c, 3, 43, 0
5, 34605, End_track
6, 0, Start_track
6, 0, MIDI_port, 0
6, 0, Program_c, 4, 87
6, 0, Control_c, 4, 7, 100
6, 0, Control_c, 4, 10, 50
6, 60, Control_c, 4, 7, 90
6, 71, Control_c, 4, 10, 50
6, 73, Program_c, 4, 87
6, 300, Note_on_c, 4, 48, 100
6, 885, Note_on_c, 4, 48, 0
6, 900, Note_on_c, 4, 48, 100
6, 1005, Note_on_c, 4, 48, 0
6, 2580, Note_on_c, 4, 59, 100
6, 2805, Note_on_c, 4, 59, 0
6, 2820, Note_on_c, 4, 60, 100
6, 2925, Note_on_c, 4, 60, 0
6, 2940, Note_on_c, 4, 58, 100
6, 3045, Note_on_c, 4, 58, 0
6, 3060, Note_on_c, 4, 56, 100
6, 3165, Note_on_c, 4, 56, 0
6, 3180, Note_on_c, 4, 50, 100
6, 3285, Note_on_c, 4, 50, 0
6, 3300, Note_on_c, 4, 51, 100
6, 3465, Note_on_c, 4, 51, 0
6, 3480, Note_on_c, 4, 53, 100
6, 3532, Note_on_c, 4, 53, 0
6, 3540, Note_on_c, 4, 55, 100
6, 3645, Note_on_c, 4, 55, 0
6, 3660, Note_on_c, 4, 43, 100
6, 3765, Note_on_c, 4, 43, 0
6, 3780, Note_on_c, 4, 48, 100
6, 4125, Note_on_c, 4, 48, 0
6, 4140, Note_on_c, 4, 60, 100
6, 4245, Note_on_c, 4, 60, 0
6, 4260, Note_on_c, 4, 58, 100
6, 4273, Note_on_c, 4, 58, 0
6, 4275, Note_on_c, 4, 60, 100
6, 4288, Note_on_c, 4, 60, 0
6, 4290, Note_on_c, 4, 58, 100
6, 4372, Note_on_c, 4, 58, 0
6, 4380, Note_on_c, 4, 56, 100
6, 4485, Note_on_c, 4, 56, 0
6, 4500, Note_on_c, 4, 55, 100
6, 4845, Note_on_c, 4, 55, 0
6, 4860, Note_on_c, 4, 55, 100
6, 4965, Note_on_c, 4, 55, 0
6, 4980, Note_on_c, 4, 57, 100
6, 5085, Note_on_c, 4, 57, 0
6, 5100, Note_on_c, 4, 53, 100
6, 5205, Note_on_c, 4, 53, 0
6, 5220, Note_on_c, 4, 58, 100
6, 5366, Note_on_c, 4, 58, 0
6, 5370, Note_on_c, 4, 41, 100
6, 5396, Note_on_c, 4, 41, 0
6, 5400, Note_on_c, 4, 43, 100
6, 5426, Note_on_c, 4, 43, 0
6, 5430, Note_on_c, 4, 45, 100
6, 5456, Note_on_c, 4, 45, 0
6, 5460, Note_on_c, 4, 46, 100
6, 5512, Note_on_c, 4, 46, 0
6, 5520, Note_on_c, 4, 48, 100
6, 5572, Note_on_c, 4, 48, 0
6, 5580, Note_on_c, 4, 50, 100
6, 5632, Note_on_c, 4, 50, 0
6, 5640, Note_on_c, 4, 46, 100
6, 5692, Note_on_c, 4, 46, 0
6, 5700, Note_on_c, 4, 51, 100
6, 5865, Note_on_c, 4, 51, 0
6, 5880, Note_on_c, 4, 51, 100
6, 5932, Note_on_c, 4, 51, 0
6, 5940, Note_on_c, 4, 50, 100
6, 6645, Note_on_c, 4, 50, 0
6, 6900, Note_on_c, 4, 54, 100
6, 7125, Note_on_c, 4, 54, 0
6, 7260, Note_on_c, 4, 55, 100
6, 7365, Note_on_c, 4, 55, 0
6, 7380, Note_on_c, 4, 48, 100
6, 7485, Note_on_c, 4, 48, 0
6, 7500, Note_on_c, 4, 51, 100
6, 7552, Note_on_c, 4, 51, 0
6, 7560, Note_on_c, 4, 50, 100
6, 7612, Note_on_c, 4, 50, 0
6, 7620, Note_on_c, 4, 48, 100
6, 7672, Note_on_c, 4, 48, 0
6, 7680, Note_on_c, 4, 46, 100
6, 7732, Note_on_c, 4, 46, 0
6, 7740, Note_on_c, 4, 51, 100
6, 7792, Note_on_c, 4, 51, 0
6, 7800, Note_on_c, 4, 48, 100
6, 7852, Note_on_c, 4, 48, 0
6, 7860, Note_on_c, 4, 50, 100
6, 7965, Note_on_c, 4, 50, 0
6, 7980, Note_on_c, 4, 38, 100
6, 8085, Note_on_c, 4, 38, 0
6, 8100, Note_on_c, 4, 43, 100
6, 8685, Note_on_c, 4, 43, 0
6, 8705, Control_c, 4, 7, 120
6, 8715, Control_c, 4, 10, 50
6, 8725, Program_c, 4, 32
6, 8940, Note_on_c, 4, 48, 100
6, 9525, Note_on_c, 4, 48, 0
6, 9540, Note_on_c, 4, 48, 100
6, 9645, Note_on_c, 4, 48, 0
6, 11220, Note_on_c, 4, 59, 100
6, 11445, Note_on_c, 4, 59, 0
6, 11460, Note_on_c, 4, 60, 100
6, 11565, Note_on_c, 4, 60, 0
6, 11580, Note_on_c, 4, 58, 100
6, 11685, Note_on_c, 4, 58, 0
6, 11700, Note_on_c, 4, 56, 100
6, 11805, Note_on_c, 4, 56, 0
6, 11820, Note_on_c, 4, 50, 100
6, 11925, Note_on_c, 4, 50, 0
6, 11940, Note_on_c, 4, 51, 100
6, 12105, Note_on_c, 4, 51, 0
6, 12120, Note_on_c, 4, 53, 100
6, 12172, Note_on_c, 4, 53, 0
6, 12180, Note_on_c, 4, 55, 100
6, 12285, Note_on_c, 4, 55, 0
6, 12300, Note_on_c, 4, 43, 100
6, 12405, Note_on_c, 4, 43, 0
6, 12420, Note_on_c, 4, 48, 100
6, 12765, Note_on_c, 4, 48, 0
6, 12780, Note_on_c, 4, 60, 100
6, 12885, Note_on_c, 4, 60, 0
6, 12900, Note_on_c, 4, 58, 100
6, 12913, Note_on_c, 4, 58, 0
6, 12915, Note_on_c, 4, 60, 100
6, 12928, Note_on_c, 4, 60, 0
6, 12930, Note_on_c, 4, 58, 100
6, 13012, Note_on_c, 4, 58, 0
6, 13020, Note_on_c, 4, 56, 100
6, 13125, Note_on_c, 4, 56, 0
6, 13140, Note_on_c, 4, 55, 100
6, 13485, Note_on_c, 4, 55, 0
6, 13500, Note_on_c, 4, 55, 100
6, 13605, Note_on_c, 4, 55, 0
6, 13620, Note_on_c, 4, 57, 100
6, 13725, Note_on_c, 4, 57, 0
6, 13740, Note_on_c, 4, 53, 100
6, 13845, Note_on_c, 4, 53, 0
6, 13860, Note_on_c, 4, 58, 100
6, 14006, Note_on_c, 4, 58, 0
6, 14010, Note_on_c, 4, 41, 100
6, 14036, Note_on_c, 4, 41, 0
6, 14040, Note_on_c, 4, 43, 100
6, 14066, Note_on_c, 4, 43, 0
6, 14070, Note_on_c, 4, 45, 100
6, 14096, Note_on_c, 4, 45, 0
6, 14100, Note_on_c, 4, 46, 100
6, 14152, Note_on_c, 4, 46, 0
6, 14160, Note_on_c, 4, 48, 100
6, 14212, Note_on_c, 4, 48, 0
6, 14220, Note_on_c, 4, 50, 100
6, 14272, Note_on_c, 4, 50, 0
6, 14280, Note_on_c, 4, 46, 100
6, 14332, Note_on_c, 4, 46, 0
6, 14340, Note_on_c, 4, 51, 100
6, 14505, Note_on_c, 4, 51, 0
6, 14520, Note_on_c, 4, 51, 100
6, 14572, Note_on_c, 4, 51, 0
6, 14580, Note_on_c, 4, 50, 100
6, 15285, Note_on_c, 4, 50, 0
6, 15540, Note_on_c, 4, 54, 100
6, 15765, Note_on_c, 4, 54, 0
6, 15900, Note_on_c, 4, 55, 100
6, 16005, Note_on_c, 4, 55, 0
6, 16020, Note_on_c, 4, 48, 100
6, 16125, Note_on_c, 4, 48, 0
6, 16140, Note_on_c, 4, 51, 100
6, 16192, Note_on_c, 4, 51, 0
6, 16200, Note_on_c, 4, 50, 100
6, 16252, Note_on_c, 4, 50, 0
6, 16260, Note_on_c, 4, 48, 100
6, 16312, Note_on_c, 4, 48, 0
6, 16320, Note_on_c, 4, 46, 100
6, 16372, Note_on_c, 4, 46, 0
6, 16380, Note_on_c, 4, 51, 100
6, 16432, Note_on_c, 4, 51, 0
6, 16440, Note_on_c, 4, 48, 100
6, 16492, Note_on_c, 4, 48, 0
6, 16500, Note_on_c, 4, 50, 100
6, 16605, Note_on_c, 4, 50, 0
6, 16620, Note_on_c, 4, 38, 100
6, 16725, Note_on_c, 4, 38, 0
6, 16740, Note_on_c, 4, 43, 100
6, 17325, Note_on_c, 4, 43, 0
6, 17347, Control_c, 4, 7, 90
6, 17357, Control_c, 4, 10, 50
6, 17367, Program_c, 4, 87
6, 17580, Note_on_c, 4, 55, 100
6, 18165, Note_on_c, 4, 55, 0
6, 18180, Note_on_c, 4, 55, 100
6, 18326, Note_on_c, 4, 55, 0
6, 18330, Note_on_c, 4, 67, 100
6, 18356, Note_on_c, 4, 67, 0
6, 18360, Note_on_c, 4, 65, 100
6, 18386, Note_on_c, 4, 65, 0
6, 18390, Note_on_c, 4, 63, 100
6, 18416, Note_on_c, 4, 63, 0
6, 18420, Note_on_c, 4, 62, 100
6, 18472, Note_on_c, 4, 62, 0
6, 18480, Note_on_c, 4, 60, 100
6, 18532, Note_on_c, 4, 60, 0
6, 18540, Note_on_c, 4, 59, 100
6, 18592, Note_on_c, 4, 59, 0
6, 18600, Note_on_c, 4, 60, 100
6, 18626, Note_on_c, 4, 60, 0
6, 18630, Note_on_c, 4, 62, 100
6, 18656, Note_on_c, 4, 62, 0
6, 18660, Note_on_c, 4, 55, 100
6, 18686, Note_on_c, 4, 55, 0
6, 18690, Note_on_c, 4, 56, 100
6, 18703, Note_on_c, 4, 56, 0
6, 18705, Note_on_c, 4, 55, 100
6, 18718, Note_on_c, 4, 55, 0
6, 18720, Note_on_c, 4, 56, 100
6, 18733, Note_on_c, 4, 56, 0
6, 18735, Note_on_c, 4, 55, 100
6, 18832, Note_on_c, 4, 55, 0
6, 18840, Note_on_c, 4, 55, 100
6, 18892, Note_on_c, 4, 55, 0
6, 18900, Note_on_c, 4, 56, 100
6, 19005, Note_on_c, 4, 56, 0
6, 19020, Note_on_c, 4, 50, 100
6, 19125, Note_on_c, 4, 50, 0
6, 19140, Note_on_c, 4, 51, 100
6, 19245, Note_on_c, 4, 51, 0
6, 19260, Note_on_c, 4, 53, 100
6, 19365, Note_on_c, 4, 53, 0
6, 19380, Note_on_c, 4, 55, 100
6, 19485, Note_on_c, 4, 55, 0
6, 19500, Note_on_c, 4, 43, 100
6, 19605, Note_on_c, 4, 43, 0
6, 19620, Note_on_c, 4, 48, 100
6, 19766, Note_on_c, 4, 48, 0
6, 19770, Note_on_c, 4, 43, 100
6, 19796, Note_on_c, 4, 43, 0
6, 19800, Note_on_c, 4, 45, 100
6, 19826, Note_on_c, 4, 45, 0
6, 19830, Note_on_c, 4, 47, 100
6, 19856, Note_on_c, 4, 47, 0
6, 19860, Note_on_c, 4, 48, 100
6, 19912, Note_on_c, 4, 48, 0
6, 19920, Note_on_c, 4, 50, 100
6, 19972, Note_on_c, 4, 50, 0
6, 19980, Note_on_c, 4, 51, 100
6, 20032, Note_on_c, 4, 51, 0
6, 20040, Note_on_c, 4, 48, 100
6, 20092, Note_on_c, 4, 48, 0
6, 20100, Note_on_c, 4, 58, 100
6, 20265, Note_on_c, 4, 58, 0
6, 20280, Note_on_c, 4, 56, 100
6, 20332, Note_on_c, 4, 56, 0
6, 20340, Note_on_c, 4, 55, 100
6, 20505, Note_on_c, 4, 55, 0
6, 22650, Note_on_c, 4, 43, 100
6, 22676, Note_on_c, 4, 43, 0
6, 22680, Note_on_c, 4, 45, 100
6, 22706, Note_on_c, 4, 45, 0
6, 22710, Note_on_c, 4, 47, 100
6, 22736, Note_on_c, 4, 47, 0
6, 22740, Note_on_c, 4, 48, 100
6, 22792, Note_on_c, 4, 48, 0
6, 22800, Note_on_c, 4, 50, 100
6, 22852, Note_on_c, 4, 50, 0
6, 22860, Note_on_c, 4, 51, 100
6, 22912, Note_on_c, 4, 51, 0
6, 22920, Note_on_c, 4, 48, 100
6, 22972, Note_on_c, 4, 48, 0
6, 22980, Note_on_c, 4, 56, 100
6, 23145, Note_on_c, 4, 56, 0
6, 23160, Note_on_c, 4, 56, 100
6, 23212, Note_on_c, 4, 56, 0
6, 23220, Note_on_c, 4, 55, 100
6, 23966, Note_on_c, 4, 55, 0
6, 23970, Note_on_c, 4, 55, 100
6, 23996, Note_on_c, 4, 55, 0
6, 24000, Note_on_c, 4, 53, 100
6, 24026, Note_on_c, 4, 53, 0
6, 24030, Note_on_c, 4, 51, 100
6, 24056, Note_on_c, 4, 51, 0
6, 24060, Note_on_c, 4, 53, 100
6, 24112, Note_on_c, 4, 53, 0
6, 24120, Note_on_c, 4, 50, 100
6, 24172, Note_on_c, 4, 50, 0
6, 24180, Note_on_c, 4, 47, 100
6, 24405, Note_on_c, 4, 47, 0
6, 24420, Note_on_c, 4, 48, 100
6, 24645, Note_on_c, 4, 48, 0
6, 24660, Note_on_c, 4, 53, 100
6, 24825, Note_on_c, 4, 53, 0
6, 24840, Note_on_c, 4, 50, 100
6, 24892, Note_on_c, 4, 50, 0
6, 24900, Note_on_c, 4, 51, 100
6, 25005, Note_on_c, 4, 51, 0
6, 25020, Note_on_c, 4, 56, 100
6, 25072, Note_on_c, 4, 56, 0
6, 25080, Note_on_c, 4, 53, 100
6, 25132, Note_on_c, 4, 53, 0
6, 25140, Note_on_c, 4, 55, 100
6, 25245, Note_on_c, 4, 55, 0
6, 25260, Note_on_c, 4, 43, 100
6, 25365, Note_on_c, 4, 43, 0
6, 25380, Note_on_c, 4, 36, 100
6, 25965, Note_on_c, 4, 36, 0
6, 25988, Control_c, 4, 7, 127
6, 25998, Control_c, 4, 10, 50
6, 26008, Program_c, 4, 32
6, 26220, Note_on_c, 4, 55, 100
6, 26805, Note_on_c, 4, 55, 0
6, 26820, Note_on_c, 4, 55, 100
6, 26966, Note_on_c, 4, 55, 0
6, 26970, Note_on_c, 4, 67, 100
6, 26996, Note_on_c, 4, 67, 0
6, 27000, Note_on_c, 4, 65, 100
6, 27026, Note_on_c, 4, 65, 0
6, 27030, Note_on_c, 4, 63, 100
6, 27056, Note_on_c, 4, 63, 0
6, 27060, Note_on_c, 4, 62, 100
6, 27112, Note_on_c, 4, 62, 0
6, 27120, Note_on_c, 4, 60, 100
6, 27172, Note_on_c, 4, 60, 0
6, 27180, Note_on_c, 4, 59, 100
6, 27232, Note_on_c, 4, 59, 0
6, 27240, Note_on_c, 4, 60, 100
6, 27266, Note_on_c, 4, 60, 0
6, 27270, Note_on_c, 4, 62, 100
6, 27296, Note_on_c, 4, 62, 0
6, 27300, Note_on_c, 4, 55, 100
6, 27326, Note_on_c, 4, 55, 0
6, 27330, Note_on_c, 4, 56, 100
6, 27343, Note_on_c, 4, 56, 0
6, 27345, Note_on_c, 4, 55, 100
6, 27358, Note_on_c, 4, 55, 0
6, 27360, Note_on_c, 4, 56, 100
6, 27373, Note_on_c, 4, 56, 0
6, 27375, Note_on_c, 4, 55, 100
6, 27472, Note_on_c, 4, 55, 0
6, 27480, Note_on_c, 4, 55, 100
6, 27532, Note_on_c, 4, 55, 0
6, 27540, Note_on_c, 4, 56, 100
6, 27645, Note_on_c, 4, 56, 0
6, 27660, Note_on_c, 4, 50, 100
6, 27765, Note_on_c, 4, 50, 0
6, 27780, Note_on_c, 4, 51, 100
6, 27885, Note_on_c, 4, 51, 0
6, 27900, Note_on_c, 4, 53, 100
6, 28005, Note_on_c, 4, 53, 0
6, 28020, Note_on_c, 4, 55, 100
6, 28125, Note_on_c, 4, 55, 0
6, 28140, Note_on_c, 4, 43, 100
6, 28245, Note_on_c, 4, 43, 0
6, 28260, Note_on_c, 4, 48, 100
6, 28406, Note_on_c, 4, 48, 0
6, 28410, Note_on_c, 4, 43, 100
6, 28436, Note_on_c, 4, 43, 0
6, 28440, Note_on_c, 4, 45, 100
6, 28466, Note_on_c, 4, 45, 0
6, 28470, Note_on_c, 4, 47, 100
6, 28496, Note_on_c, 4, 47, 0
6, 28500, Note_on_c, 4, 48, 100
6, 28552, Note_on_c, 4, 48, 0
6, 28560, Note_on_c, 4, 50, 100
6, 28612, Note_on_c, 4, 50, 0
6, 28620, Note_on_c, 4, 51, 100
6, 28672, Note_on_c, 4, 51, 0
6, 28680, Note_on_c, 4, 48, 100
6, 28732, Note_on_c, 4, 48, 0
6, 28740, Note_on_c, 4, 58, 100
6, 28905, Note_on_c, 4, 58, 0
6, 28920, Note_on_c, 4, 56, 100
6, 28972, Note_on_c, 4, 56, 0
6, 28980, Note_on_c, 4, 55, 100
6, 29145, Note_on_c, 4, 55, 0
6, 31290, Note_on_c, 4, 43, 100
6, 31316, Note_on_c, 4, 43, 0
6, 31320, Note_on_c, 4, 45, 100
6, 31346, Note_on_c, 4, 45, 0
6, 31350, Note_on_c, 4, 47, 100
6, 31376, Note_on_c, 4, 47, 0
6, 31380, Note_on_c, 4, 48, 100
6, 31432, Note_on_c, 4, 48, 0
6, 31440, Note_on_c, 4, 50, 100
6, 31492, Note_on_c, 4, 50, 0
6, 31500, Note_on_c, 4, 51, 100
6, 31552, Note_on_c, 4, 51, 0
6, 31560, Note_on_c, 4, 48, 100
6, 31612, Note_on_c, 4, 48, 0
6, 31620, Note_on_c, 4, 56, 100
6, 31785, Note_on_c, 4, 56, 0
6, 31800, Note_on_c, 4, 56, 100
6, 31852, Note_on_c, 4, 56, 0
6, 31860, Note_on_c, 4, 55, 100
6, 32606, Note_on_c, 4, 55, 0
6, 32610, Note_on_c, 4, 55, 100
6, 32636, Note_on_c, 4, 55, 0
6, 32640, Note_on_c, 4, 53, 100
6, 32666, Note_on_c, 4, 53, 0
6, 32670, Note_on_c, 4, 51, 100
6, 32696, Note_on_c, 4, 51, 0
6, 32700, Note_on_c, 4, 53, 100
6, 32752, Note_on_c, 4, 53, 0
6, 32760, Note_on_c, 4, 50, 100
6, 32812, Note_on_c, 4, 50, 0
6, 32820, Note_on_c, 4, 47, 100
6, 33045, Note_on_c, 4, 47, 0
6, 33060, Note_on_c, 4, 48, 100
6, 33285, Note_on_c, 4, 48, 0
6, 33300, Note_on_c, 4, 53, 100
6, 33465, Note_on_c, 4, 53, 0
6, 33480, Note_on_c, 4, 50, 100
6, 33532, Note_on_c, 4, 50, 0
6, 33540, Note_on_c, 4, 51, 100
6, 33645, Note_on_c, 4, 51, 0
6, 33660, Note_on_c, 4, 56, 100
6, 33712, Note_on_c, 4, 56, 0
6, 33720, Note_on_c, 4, 53, 100
6, 33772, Note_on_c, 4, 53, 0
6, 33780, Note_on_c, 4, 55, 100
6, 33885, Note_on_c, 4, 55, 0
6, 33900, Note_on_c, 4, 43, 100
6, 34005, Note_on_c, 4, 43, 0
6, 34020, Note_on_c, 4, 36, 100
6, 34605, Note_on_c, 4, 36, 0
6, 34605, End_track
0, 0, End_of_file
