0, 0, Header, 1, 5, 96
1, 0, Start_track
1, 0, Key_signature, -1, "major"
1, 0, Time_signature, 4, 2, 24, 8
1, 0, Tempo, 399802
1, 48912, Tempo, 468519
1, 49152, Tempo, 535450
1, 49296, Tempo, 599704
1, 49488, Tempo, 999506
1, 49920, End_track
2, 0, Start_track
2, 2784, Note_on_c, 0, 69, 88
2, 2832, Note_on_c, 0, 69, 0
2, 2880, Note_on_c, 0, 81, 88
2, 3072, Note_on_c, 0, 81, 0
2, 3072, Note_on_c, 0, 81, 88
2, 3168, Note_on_c, 0, 81, 0
2, 3168, Note_on_c, 0, 80, 88
2, 3216, Note_on_c, 0, 80, 0
2, 3216, Note_on_c, 0, 78, 88
2, 3264, Note_on_c, 0, 78, 0
2, 3264, Note_on_c, 0, 76, 88
2, 3312, Note_on_c, 0, 76, 0
2, 3312, Note_on_c, 0, 74, 88
2, 3360, Note_on_c, 0, 74, 0
2, 3360, Note_on_c, 0, 72, 88
2, 3408, Note_on_c, 0, 72, 0
2, 3408, Note_on_c, 0, 71, 88
2, 3456, Note_on_c, 0, 71, 0
2, 3456, Note_on_c, 0, 69, 88
2, 3504, Note_on_c, 0, 69, 0
2, 3504, Note_on_c, 0, 68, 88
2, 3552, Note_on_c, 0, 68, 0
2, 3552, Note_on_c, 0, 69, 88
2, 3600, Note_on_c, 0, 69, 0
2, 3600, Note_on_c, 0, 71, 88
2, 3648, Note_on_c, 0, 71, 0
2, 3648, Note_on_c, 0, 72, 88
2, 3696, Note_on_c, 0, 72, 0
2, 3696, Note_on_c, 0, 69, 88
2, 3744, Note_on_c, 0, 69, 0
2, 3744, Note_on_c, 0, 71, 88
2, 3792, Note_on_c, 0, 71, 0
2, 3792, Note_on_c, 0, 72, 88
2, 3840, Note_on_c, 0, 72, 0
2, 3840, Note_on_c, 0, 74, 88
2, 3888, Note_on_c, 0, 74, 0
2, 3888, Note_on_c, 0, 73, 88
2, 3936, Note_on_c, 0, 73, 0
2, 3936, Note_on_c, 0, 74, 88
2, 3984, Note_on_c, 0, 74, 0
2, 3984, Note_on_c, 0, 76, 88
2, 4032, Note_on_c, 0, 76, 0
2, 4032, Note_on_c, 0, 77, 88
2, 4080, Note_on_c, 0, 77, 0
2, 4080, Note_on_c, 0, 74, 88
2, 4128, Note_on_c, 0, 74, 0
2, 4128, Note_on_c, 0, 76, 88
2, 4176, Note_on_c, 0, 76, 0
2, 4176, Note_on_c, 0, 77, 88
2, 4224, Note_on_c, 0, 77, 0
2, 4224, Note_on_c, 0, 79, 88
2, 4248, Note_on_c, 0, 79, 0
2, 4248, Note_on_c, 0, 77, 88
2, 4272, Note_on_c, 0, 77, 0
2, 4272, Note_on_c, 0, 79, 88
2, 4296, Note_on_c, 0, 79, 0
2, 4296, Note_on_c, 0, 77, 88
2, 4320, Note_on_c, 0, 77, 0
2, 4320, Note_on_c, 0, 76, 88
2, 4416, Note_on_c, 0, 76, 0
2, 4464, Note_on_c, 0, 76, 88
2, 4512, Note_on_c, 0, 76, 0
2, 4512, Note_on_c, 0, 74, 88
2, 4560, Note_on_c, 0, 74, 0
2, 4560, Note_on_c, 0, 76, 88
2, 4608, Note_on_c, 0, 76, 0
2, 4608, Note_on_c, 0, 77, 88
2, 4656, Note_on_c, 0, 77, 0
2, 4656, Note_on_c, 0, 81, 88
2, 4704, Note_on_c, 0, 81, 0
2, 4704, Note_on_c, 0, 79, 88
2, 4752, Note_on_c, 0, 79, 0
2, 4752, Note_on_c, 0, 77, 88
2, 4800, Note_on_c, 0, 77, 0
2, 4800, Note_on_c, 0, 79, 88
2, 4848, Note_on_c, 0, 79, 0
2, 4848, Note_on_c, 0, 77, 88
2, 4896, Note_on_c, 0, 77, 0
2, 4896, Note_on_c, 0, 76, 88
2, 4944, Note_on_c, 0, 76, 0
2, 4944, Note_on_c, 0, 74, 88
2, 4992, Note_on_c, 0, 74, 0
2, 4992, Note_on_c, 0, 72, 88
2, 5040, Note_on_c, 0, 72, 0
2, 5040, Note_on_c, 0, 77, 88
2, 5088, Note_on_c, 0, 77, 0
2, 5088, Note_on_c, 0, 76, 88
2, 5136, Note_on_c, 0, 76, 0
2, 5136, Note_on_c, 0, 74, 88
2, 5184, Note_on_c, 0, 74, 0
2, 5184, Note_on_c, 0, 76, 88
2, 5232, Note_on_c, 0, 76, 0
2, 5232, Note_on_c, 0, 74, 88
2, 5280, Note_on_c, 0, 74, 0
2, 5280, Note_on_c, 0, 72, 88
2, 5328, Note_on_c, 0, 72, 0
2, 5328, Note_on_c, 0, 70, 88
2, 5376, Note_on_c, 0, 70, 0
2, 5376, Note_on_c, 0, 69, 88
2, 5424, Note_on_c, 0, 69, 0
2, 5424, Note_on_c, 0, 74, 88
2, 5472, Note_on_c, 0, 74, 0
2, 5472, Note_on_c, 0, 72, 88
2, 5520, Note_on_c, 0, 72, 0
2, 5520, Note_on_c, 0, 70, 88
2, 5568, Note_on_c, 0, 70, 0
2, 5568, Note_on_c, 0, 72, 88
2, 5616, Note_on_c, 0, 72, 0
2, 5616, Note_on_c, 0, 70, 72
2, 5664, Note_on_c, 0, 70, 0
2, 5664, Note_on_c, 0, 69, 72
2, 5712, Note_on_c, 0, 69, 0
2, 5712, Note_on_c, 0, 68, 72
2, 5760, Note_on_c, 0, 68, 0
2, 5760, Note_on_c, 0, 69, 72
2, 5856, Note_on_c, 0, 69, 0
2, 5856, Note_on_c, 0, 76, 72
2, 5952, Note_on_c, 0, 76, 0
2, 5952, Note_on_c, 0, 73, 72
2, 6144, Note_on_c, 0, 73, 0
2, 6144, Note_on_c, 0, 74, 72
2, 6336, Note_on_c, 0, 74, 0
2, 6432, Note_on_c, 0, 72, 72
2, 6528, Note_on_c, 0, 72, 0
2, 6528, Note_on_c, 0, 72, 72
2, 6624, Note_on_c, 0, 72, 0
2, 6624, Note_on_c, 0, 70, 72
2, 6672, Note_on_c, 0, 70, 0
2, 6672, Note_on_c, 0, 74, 72
2, 6720, Note_on_c, 0, 74, 0
2, 6720, Note_on_c, 0, 79, 72
2, 6816, Note_on_c, 0, 79, 0
2, 6816, Note_on_c, 0, 72, 72
2, 6912, Note_on_c, 0, 72, 0
2, 6912, Note_on_c, 0, 73, 72
2, 7104, Note_on_c, 0, 73, 0
2, 7200, Note_on_c, 0, 73, 72
2, 7296, Note_on_c, 0, 73, 0
2, 7296, Note_on_c, 0, 74, 72
2, 7392, Note_on_c, 0, 74, 0
2, 7392, Note_on_c, 0, 77, 72
2, 7488, Note_on_c, 0, 77, 0
2, 7488, Note_on_c, 0, 76, 72
2, 7512, Note_on_c, 0, 76, 0
2, 7512, Note_on_c, 0, 77, 72
2, 7536, Note_on_c, 0, 77, 0
2, 7536, Note_on_c, 0, 79, 72
2, 7584, Note_on_c, 0, 79, 0
2, 7584, Note_on_c, 0, 70, 72
2, 7680, Note_on_c, 0, 70, 0
2, 7680, Note_on_c, 0, 69, 72
2, 7776, Note_on_c, 0, 69, 0
2, 7776, Note_on_c, 0, 74, 72
2, 7872, Note_on_c, 0, 74, 0
2, 7872, Note_on_c, 0, 73, 72
2, 7896, Note_on_c, 0, 73, 0
2, 7896, Note_on_c, 0, 74, 72
2, 7920, Note_on_c, 0, 74, 0
2, 7920, Note_on_c, 0, 76, 72
2, 7968, Note_on_c, 0, 76, 0
2, 7968, Note_on_c, 0, 67, 72
2, 8064, Note_on_c, 0, 67, 0
2, 8064, Note_on_c, 0, 65, 72
2, 8256, Note_on_c, 0, 65, 0
2, 8352, Note_on_c, 0, 72, 72
2, 8448, Note_on_c, 0, 72, 0
2, 8448, Note_on_c, 0, 71, 72
2, 8640, Note_on_c, 0, 71, 0
2, 8736, Note_on_c, 0, 68, 72
2, 8832, Note_on_c, 0, 68, 0
2, 8832, Note_on_c, 0, 69, 72
2, 9216, Note_on_c, 0, 69, 0
2, 9216, Note_on_c, 0, 69, 72
2, 9600, Note_on_c, 0, 69, 0
2, 9600, Note_on_c, 0, 71, 72
2, 9648, Note_on_c, 0, 71, 0
2, 9648, Note_on_c, 0, 72, 72
2, 9696, Note_on_c, 0, 72, 0
2, 9696, Note_on_c, 0, 74, 72
2, 9744, Note_on_c, 0, 74, 0
2, 9744, Note_on_c, 0, 71, 72
2, 9792, Note_on_c, 0, 71, 0
2, 9792, Note_on_c, 0, 72, 72
2, 9984, Note_on_c, 0, 72, 0
2, 9984, Note_on_c, 0, 72, 72
2, 10176, Note_on_c, 0, 72, 0
2, 10176, Note_on_c, 0, 70, 72
2, 10368, Note_on_c, 0, 70, 0
2, 10368, Note_on_c, 0, 69, 72
2, 10560, Note_on_c, 0, 69, 0
2, 10560, Note_on_c, 0, 67, 72
2, 10752, Note_on_c, 0, 67, 0
2, 10752, Note_on_c, 0, 65, 72
2, 10800, Note_on_c, 0, 65, 0
2, 10800, Note_on_c, 0, 69, 72
2, 10848, Note_on_c, 0, 69, 0
2, 10848, Note_on_c, 0, 67, 72
2, 10896, Note_on_c, 0, 67, 0
2, 10896, Note_on_c, 0, 65, 72
2, 10944, Note_on_c, 0, 65, 0
2, 10944, Note_on_c, 0, 67, 72
2, 10992, Note_on_c, 0, 67, 0
2, 10992, Note_on_c, 0, 65, 72
2, 11040, Note_on_c, 0, 65, 0
2, 11040, Note_on_c, 0, 64, 72
2, 11088, Note_on_c, 0, 64, 0
2, 11088, Note_on_c, 0, 62, 72
2, 11136, Note_on_c, 0, 62, 0
2, 11136, Note_on_c, 0, 67, 72
2, 11184, Note_on_c, 0, 67, 0
2, 11184, Note_on_c, 0, 70, 72
2, 11232, Note_on_c, 0, 70, 0
2, 11232, Note_on_c, 0, 69, 72
2, 11280, Note_on_c, 0, 69, 0
2, 11280, Note_on_c, 0, 67, 72
2, 11328, Note_on_c, 0, 67, 0
2, 11328, Note_on_c, 0, 69, 72
2, 11376, Note_on_c, 0, 69, 0
2, 11376, Note_on_c, 0, 67, 72
2, 11424, Note_on_c, 0, 67, 0
2, 11424, Note_on_c, 0, 65, 72
2, 11472, Note_on_c, 0, 65, 0
2, 11472, Note_on_c, 0, 64, 72
2, 11520, Note_on_c, 0, 64, 0
2, 11520, Note_on_c, 0, 69, 72
2, 11616, Note_on_c, 0, 69, 0
2, 11616, Note_on_c, 0, 72, 72
2, 11712, Note_on_c, 0, 72, 0
2, 11712, Note_on_c, 0, 77, 72
2, 11904, Note_on_c, 0, 77, 0
2, 11904, Note_on_c, 0, 77, 72
2, 12096, Note_on_c, 0, 77, 0
2, 12096, Note_on_c, 0, 76, 72
2, 12288, Note_on_c, 0, 76, 0
2, 12288, Note_on_c, 0, 76, 72
2, 12480, Note_on_c, 0, 76, 0
2, 12480, Note_on_c, 0, 74, 72
2, 12672, Note_on_c, 0, 74, 0
2, 12672, Note_on_c, 0, 74, 72
2, 12864, Note_on_c, 0, 74, 0
2, 12864, Note_on_c, 0, 73, 72
2, 13056, Note_on_c, 0, 73, 0
2, 13056, Note_on_c, 0, 74, 88
2, 13440, Note_on_c, 0, 74, 0
2, 13440, Note_on_c, 0, 81, 88
2, 13824, Note_on_c, 0, 81, 0
2, 13824, Note_on_c, 0, 77, 88
2, 14208, Note_on_c, 0, 77, 0
2, 14208, Note_on_c, 0, 74, 88
2, 14592, Note_on_c, 0, 74, 0
2, 14592, Note_on_c, 0, 73, 88
2, 14976, Note_on_c, 0, 73, 0
2, 14976, Note_on_c, 0, 74, 88
2, 15168, Note_on_c, 0, 74, 0
2, 15168, Note_on_c, 0, 76, 88
2, 15360, Note_on_c, 0, 76, 0
2, 15360, Note_on_c, 0, 77, 88
2, 15744, Note_on_c, 0, 77, 0
2, 15744, Note_on_c, 0, 77, 88
2, 15840, Note_on_c, 0, 77, 0
2, 15840, Note_on_c, 0, 79, 88
2, 15936, Note_on_c, 0, 79, 0
2, 15936, Note_on_c, 0, 77, 88
2, 16032, Note_on_c, 0, 77, 0
2, 16032, Note_on_c, 0, 76, 88
2, 16128, Note_on_c, 0, 76, 0
2, 16128, Note_on_c, 0, 74, 88
2, 16512, Note_on_c, 0, 74, 0
2, 16512, Note_on_c, 0, 74, 72
2, 16560, Note_on_c, 0, 74, 0
2, 16560, Note_on_c, 0, 74, 72
2, 16608, Note_on_c, 0, 74, 0
2, 16608, Note_on_c, 0, 72, 72
2, 16656, Note_on_c, 0, 72, 0
2, 16656, Note_on_c, 0, 70, 72
2, 16704, Note_on_c, 0, 70, 0
2, 16704, Note_on_c, 0, 72, 72
2, 16752, Note_on_c, 0, 72, 0
2, 16752, Note_on_c, 0, 70, 72
2, 16800, Note_on_c, 0, 70, 0
2, 16800, Note_on_c, 0, 69, 72
2, 16848, Note_on_c, 0, 69, 0
2, 16848, Note_on_c, 0, 67, 72
2, 16896, Note_on_c, 0, 67, 0
2, 16896, Note_on_c, 0, 69, 72
2, 16944, Note_on_c, 0, 69, 0
2, 16944, Note_on_c, 0, 84, 72
2, 16992, Note_on_c, 0, 84, 0
2, 16992, Note_on_c, 0, 82, 72
2, 17040, Note_on_c, 0, 82, 0
2, 17040, Note_on_c, 0, 81, 72
2, 17088, Note_on_c, 0, 81, 0
2, 17088, Note_on_c, 0, 82, 72
2, 17136, Note_on_c, 0, 82, 0
2, 17136, Note_on_c, 0, 81, 72
2, 17184, Note_on_c, 0, 81, 0
2, 17184, Note_on_c, 0, 79, 72
2, 17232, Note_on_c, 0, 79, 0
2, 17232, Note_on_c, 0, 77, 72
2, 17280, Note_on_c, 0, 77, 0
2, 17280, Note_on_c, 0, 76, 72
2, 17328, Note_on_c, 0, 76, 0
2, 17328, Note_on_c, 0, 77, 72
2, 17376, Note_on_c, 0, 77, 0
2, 17376, Note_on_c, 0, 79, 72
2, 17472, Note_on_c, 0, 79, 0
2, 17568, Note_on_c, 0, 79, 72
2, 17664, Note_on_c, 0, 79, 0
2, 17664, Note_on_c, 0, 79, 72
2, 17760, Note_on_c, 0, 79, 0
2, 17760, Note_on_c, 0, 77, 72
2, 17856, Note_on_c, 0, 77, 0
2, 17904, Note_on_c, 0, 72, 72
2, 17952, Note_on_c, 0, 72, 0
2, 17952, Note_on_c, 0, 70, 72
2, 18000, Note_on_c, 0, 70, 0
2, 18000, Note_on_c, 0, 72, 72
2, 18048, Note_on_c, 0, 72, 0
2, 18048, Note_on_c, 0, 69, 72
2, 18144, Note_on_c, 0, 69, 0
2, 18144, Note_on_c, 0, 74, 72
2, 18240, Note_on_c, 0, 74, 0
2, 18240, Note_on_c, 0, 72, 72
2, 18336, Note_on_c, 0, 72, 0
2, 18336, Note_on_c, 0, 71, 72
2, 18432, Note_on_c, 0, 71, 0
2, 18432, Note_on_c, 0, 72, 72
2, 18528, Note_on_c, 0, 72, 0
2, 18528, Note_on_c, 0, 70, 72
2, 18576, Note_on_c, 0, 70, 0
2, 18576, Note_on_c, 0, 69, 72
2, 18624, Note_on_c, 0, 69, 0
2, 18624, Note_on_c, 0, 70, 72
2, 18816, Note_on_c, 0, 70, 0
2, 18816, Note_on_c, 0, 69, 72
2, 18912, Note_on_c, 0, 69, 0
2, 18912, Note_on_c, 0, 77, 72
2, 19008, Note_on_c, 0, 77, 0
2, 19008, Note_on_c, 0, 74, 72
2, 19200, Note_on_c, 0, 74, 0
2, 19200, Note_on_c, 0, 74, 72
2, 19248, Note_on_c, 0, 74, 0
2, 19248, Note_on_c, 0, 72, 72
2, 19296, Note_on_c, 0, 72, 0
2, 19296, Note_on_c, 0, 70, 72
2, 19344, Note_on_c, 0, 70, 0
2, 19344, Note_on_c, 0, 69, 72
2, 19392, Note_on_c, 0, 69, 0
2, 19392, Note_on_c, 0, 70, 72
2, 19440, Note_on_c, 0, 70, 0
2, 19440, Note_on_c, 0, 69, 72
2, 19488, Note_on_c, 0, 69, 0
2, 19488, Note_on_c, 0, 67, 72
2, 19536, Note_on_c, 0, 67, 0
2, 19536, Note_on_c, 0, 65, 72
2, 19584, Note_on_c, 0, 65, 0
2, 19584, Note_on_c, 0, 64, 72
2, 19632, Note_on_c, 0, 64, 0
2, 19632, Note_on_c, 0, 65, 72
2, 19680, Note_on_c, 0, 65, 0
2, 19680, Note_on_c, 0, 67, 72
2, 19728, Note_on_c, 0, 67, 0
2, 19728, Note_on_c, 0, 69, 72
2, 19776, Note_on_c, 0, 69, 0
2, 19776, Note_on_c, 0, 70, 72
2, 19968, Note_on_c, 0, 70, 0
2, 19968, Note_on_c, 0, 70, 72
2, 20016, Note_on_c, 0, 70, 0
2, 20016, Note_on_c, 0, 69, 72
2, 20064, Note_on_c, 0, 69, 0
2, 20064, Note_on_c, 0, 71, 72
2, 20112, Note_on_c, 0, 71, 0
2, 20112, Note_on_c, 0, 72, 72
2, 20160, Note_on_c, 0, 72, 0
2, 20160, Note_on_c, 0, 74, 72
2, 20352, Note_on_c, 0, 74, 0
2, 20352, Note_on_c, 0, 74, 72
2, 20400, Note_on_c, 0, 74, 0
2, 20400, Note_on_c, 0, 72, 72
2, 20448, Note_on_c, 0, 72, 0
2, 20448, Note_on_c, 0, 74, 72
2, 20496, Note_on_c, 0, 74, 0
2, 20496, Note_on_c, 0, 76, 72
2, 20544, Note_on_c, 0, 76, 0
2, 20544, Note_on_c, 0, 77, 72
2, 20736, Note_on_c, 0, 77, 0
2, 20736, Note_on_c, 0, 77, 72
2, 20784, Note_on_c, 0, 77, 0
2, 20784, Note_on_c, 0, 77, 72
2, 20832, Note_on_c, 0, 77, 0
2, 20832, Note_on_c, 0, 76, 72
2, 20880, Note_on_c, 0, 76, 0
2, 20880, Note_on_c, 0, 74, 72
2, 20928, Note_on_c, 0, 74, 0
2, 20928, Note_on_c, 0, 76, 72
2, 20976, Note_on_c, 0, 76, 0
2, 20976, Note_on_c, 0, 74, 72
2, 21024, Note_on_c, 0, 74, 0
2, 21024, Note_on_c, 0, 72, 72
2, 21072, Note_on_c, 0, 72, 0
2, 21072, Note_on_c, 0, 71, 72
2, 21120, Note_on_c, 0, 71, 0
2, 21120, Note_on_c, 0, 72, 72
2, 21168, Note_on_c, 0, 72, 0
2, 21168, Note_on_c, 0, 74, 72
2, 21216, Note_on_c, 0, 74, 0
2, 21216, Note_on_c, 0, 72, 72
2, 21264, Note_on_c, 0, 72, 0
2, 21264, Note_on_c, 0, 70, 72
2, 21312, Note_on_c, 0, 70, 0
2, 21312, Note_on_c, 0, 72, 72
2, 21360, Note_on_c, 0, 72, 0
2, 21360, Note_on_c, 0, 70, 72
2, 21408, Note_on_c, 0, 70, 0
2, 21408, Note_on_c, 0, 69, 72
2, 21456, Note_on_c, 0, 69, 0
2, 21456, Note_on_c, 0, 67, 72
2, 21504, Note_on_c, 0, 67, 0
2, 21504, Note_on_c, 0, 69, 72
2, 21600, Note_on_c, 0, 69, 0
2, 21600, Note_on_c, 0, 73, 72
2, 21696, Note_on_c, 0, 73, 0
2, 21696, Note_on_c, 0, 74, 72
2, 21792, Note_on_c, 0, 74, 0
2, 21792, Note_on_c, 0, 76, 72
2, 21888, Note_on_c, 0, 76, 0
2, 21888, Note_on_c, 0, 69, 72
2, 21936, Note_on_c, 0, 69, 0
2, 21936, Note_on_c, 0, 70, 72
2, 21984, Note_on_c, 0, 70, 0
2, 21984, Note_on_c, 0, 69, 72
2, 22032, Note_on_c, 0, 69, 0
2, 22032, Note_on_c, 0, 67, 72
2, 22080, Note_on_c, 0, 67, 0
2, 22080, Note_on_c, 0, 69, 72
2, 22128, Note_on_c, 0, 69, 0
2, 22128, Note_on_c, 0, 67, 72
2, 22176, Note_on_c, 0, 67, 0
2, 22176, Note_on_c, 0, 65, 72
2, 22224, Note_on_c, 0, 65, 0
2, 22224, Note_on_c, 0, 64, 72
2, 22272, Note_on_c, 0, 64, 0
2, 22272, Note_on_c, 0, 65, 72
2, 22320, Note_on_c, 0, 65, 0
2, 22320, Note_on_c, 0, 72, 72
2, 22368, Note_on_c, 0, 72, 0
2, 22368, Note_on_c, 0, 70, 72
2, 22416, Note_on_c, 0, 70, 0
2, 22416, Note_on_c, 0, 69, 72
2, 22464, Note_on_c, 0, 69, 0
2, 22464, Note_on_c, 0, 70, 72
2, 22512, Note_on_c, 0, 70, 0
2, 22512, Note_on_c, 0, 69, 72
2, 22560, Note_on_c, 0, 69, 0
2, 22560, Note_on_c, 0, 67, 72
2, 22608, Note_on_c, 0, 67, 0
2, 22608, Note_on_c, 0, 65, 72
2, 22656, Note_on_c, 0, 65, 0
2, 22656, Note_on_c, 0, 64, 72
2, 22752, Note_on_c, 0, 64, 0
2, 22752, Note_on_c, 0, 76, 72
2, 22848, Note_on_c, 0, 76, 0
2, 22896, Note_on_c, 0, 76, 72
2, 22944, Note_on_c, 0, 76, 0
2, 22944, Note_on_c, 0, 74, 72
2, 22992, Note_on_c, 0, 74, 0
2, 22992, Note_on_c, 0, 73, 72
2, 23040, Note_on_c, 0, 73, 0
2, 23040, Note_on_c, 0, 74, 72
2, 23136, Note_on_c, 0, 74, 0
2, 23136, Note_on_c, 0, 69, 72
2, 23232, Note_on_c, 0, 69, 0
2, 23232, Note_on_c, 0, 74, 72
2, 23328, Note_on_c, 0, 74, 0
2, 23328, Note_on_c, 0, 72, 72
2, 23424, Note_on_c, 0, 72, 0
2, 23424, Note_on_c, 0, 70, 72
2, 23520, Note_on_c, 0, 70, 0
2, 23520, Note_on_c, 0, 69, 72
2, 23616, Note_on_c, 0, 69, 0
2, 23616, Note_on_c, 0, 67, 72
2, 23712, Note_on_c, 0, 67, 0
2, 23712, Note_on_c, 0, 65, 72
2, 23808, Note_on_c, 0, 65, 0
2, 23808, Note_on_c, 0, 64, 72
2, 23856, Note_on_c, 0, 64, 0
2, 23856, Note_on_c, 0, 62, 72
2, 23904, Note_on_c, 0, 62, 0
2, 23904, Note_on_c, 0, 64, 72
2, 23952, Note_on_c, 0, 64, 0
2, 23952, Note_on_c, 0, 65, 72
2, 24000, Note_on_c, 0, 65, 0
2, 24000, Note_on_c, 0, 67, 72
2, 24048, Note_on_c, 0, 67, 0
2, 24048, Note_on_c, 0, 64, 72
2, 24096, Note_on_c, 0, 64, 0
2, 24096, Note_on_c, 0, 69, 72
2, 24192, Note_on_c, 0, 69, 0
2, 24192, Note_on_c, 0, 69, 72
2, 24240, Note_on_c, 0, 69, 0
2, 24240, Note_on_c, 0, 65, 72
2, 24288, Note_on_c, 0, 65, 0
2, 24288, Note_on_c, 0, 70, 72
2, 24432, Note_on_c, 0, 70, 0
2, 24432, Note_on_c, 0, 67, 72
2, 24480, Note_on_c, 0, 67, 0
2, 24480, Note_on_c, 0, 72, 72
2, 24528, Note_on_c, 0, 72, 0
2, 24528, Note_on_c, 0, 70, 72
2, 24576, Note_on_c, 0, 70, 0
2, 24576, Note_on_c, 0, 69, 72
2, 24624, Note_on_c, 0, 69, 0
2, 24624, Note_on_c, 0, 74, 72
2, 24672, Note_on_c, 0, 74, 0
2, 24672, Note_on_c, 0, 72, 72
2, 24720, Note_on_c, 0, 72, 0
2, 24720, Note_on_c, 0, 70, 72
2, 24768, Note_on_c, 0, 70, 0
2, 24768, Note_on_c, 0, 72, 72
2, 24816, Note_on_c, 0, 72, 0
2, 24816, Note_on_c, 0, 69, 72
2, 24864, Note_on_c, 0, 69, 0
2, 24864, Note_on_c, 0, 72, 72
2, 24960, Note_on_c, 0, 72, 0
2, 24960, Note_on_c, 0, 72, 72
2, 25008, Note_on_c, 0, 72, 0
2, 25008, Note_on_c, 0, 74, 72
2, 25056, Note_on_c, 0, 74, 0
2, 25056, Note_on_c, 0, 72, 72
2, 25104, Note_on_c, 0, 72, 0
2, 25104, Note_on_c, 0, 70, 72
2, 25152, Note_on_c, 0, 70, 0
2, 25152, Note_on_c, 0, 72, 72
2, 25200, Note_on_c, 0, 72, 0
2, 25200, Note_on_c, 0, 70, 72
2, 25248, Note_on_c, 0, 70, 0
2, 25248, Note_on_c, 0, 69, 72
2, 25296, Note_on_c, 0, 69, 0
2, 25296, Note_on_c, 0, 67, 72
2, 25344, Note_on_c, 0, 67, 0
2, 25344, Note_on_c, 0, 65, 72
2, 25728, Note_on_c, 0, 65, 0
2, 25728, Note_on_c, 0, 65, 72
2, 25776, Note_on_c, 0, 65, 0
2, 25776, Note_on_c, 0, 69, 72
2, 25824, Note_on_c, 0, 69, 0
2, 25824, Note_on_c, 0, 67, 72
2, 25872, Note_on_c, 0, 67, 0
2, 25872, Note_on_c, 0, 65, 72
2, 25920, Note_on_c, 0, 65, 0
2, 25920, Note_on_c, 0, 67, 72
2, 25968, Note_on_c, 0, 67, 0
2, 25968, Note_on_c, 0, 65, 72
2, 26016, Note_on_c, 0, 65, 0
2, 26016, Note_on_c, 0, 64, 72
2, 26064, Note_on_c, 0, 64, 0
2, 26064, Note_on_c, 0, 62, 72
2, 26112, Note_on_c, 0, 62, 0
2, 26112, Note_on_c, 0, 64, 72
2, 26496, Note_on_c, 0, 64, 0
2, 26496, Note_on_c, 0, 64, 72
2, 26544, Note_on_c, 0, 64, 0
2, 26544, Note_on_c, 0, 79, 72
2, 26592, Note_on_c, 0, 79, 0
2, 26592, Note_on_c, 0, 77, 72
2, 26640, Note_on_c, 0, 77, 0
2, 26640, Note_on_c, 0, 76, 72
2, 26688, Note_on_c, 0, 76, 0
2, 26688, Note_on_c, 0, 77, 72
2, 26736, Note_on_c, 0, 77, 0
2, 26736, Note_on_c, 0, 76, 72
2, 26784, Note_on_c, 0, 76, 0
2, 26784, Note_on_c, 0, 74, 72
2, 26832, Note_on_c, 0, 74, 0
2, 26832, Note_on_c, 0, 72, 72
2, 26880, Note_on_c, 0, 72, 0
2, 26880, Note_on_c, 0, 74, 72
2, 27264, Note_on_c, 0, 74, 0
2, 27264, Note_on_c, 0, 74, 72
2, 27312, Note_on_c, 0, 74, 0
2, 27312, Note_on_c, 0, 77, 72
2, 27360, Note_on_c, 0, 77, 0
2, 27360, Note_on_c, 0, 76, 72
2, 27408, Note_on_c, 0, 76, 0
2, 27408, Note_on_c, 0, 74, 72
2, 27456, Note_on_c, 0, 74, 0
2, 27456, Note_on_c, 0, 76, 72
2, 27504, Note_on_c, 0, 76, 0
2, 27504, Note_on_c, 0, 74, 72
2, 27552, Note_on_c, 0, 74, 0
2, 27552, Note_on_c, 0, 72, 72
2, 27600, Note_on_c, 0, 72, 0
2, 27600, Note_on_c, 0, 71, 72
2, 27648, Note_on_c, 0, 71, 0
2, 27648, Note_on_c, 0, 72, 72
2, 27696, Note_on_c, 0, 72, 0
2, 27696, Note_on_c, 0, 76, 72
2, 27744, Note_on_c, 0, 76, 0
2, 27744, Note_on_c, 0, 74, 72
2, 27792, Note_on_c, 0, 74, 0
2, 27792, Note_on_c, 0, 72, 72
2, 27840, Note_on_c, 0, 72, 0
2, 27840, Note_on_c, 0, 74, 72
2, 27888, Note_on_c, 0, 74, 0
2, 27888, Note_on_c, 0, 72, 72
2, 27936, Note_on_c, 0, 72, 0
2, 27936, Note_on_c, 0, 71, 72
2, 27984, Note_on_c, 0, 71, 0
2, 27984, Note_on_c, 0, 69, 72
2, 28032, Note_on_c, 0, 69, 0
2, 28032, Note_on_c, 0, 71, 72
2, 28128, Note_on_c, 0, 71, 0
2, 28512, Note_on_c, 0, 64, 72
2, 28560, Note_on_c, 0, 64, 0
2, 28608, Note_on_c, 0, 76, 72
2, 28800, Note_on_c, 0, 76, 0
2, 28800, Note_on_c, 0, 76, 72
2, 28896, Note_on_c, 0, 76, 0
2, 28896, Note_on_c, 0, 75, 72
2, 28992, Note_on_c, 0, 75, 0
2, 29088, Note_on_c, 0, 75, 72
2, 29184, Note_on_c, 0, 75, 0
2, 29184, Note_on_c, 0, 76, 72
2, 29232, Note_on_c, 0, 76, 0
2, 29232, Note_on_c, 0, 77, 72
2, 29280, Note_on_c, 0, 77, 0
2, 29280, Note_on_c, 0, 76, 72
2, 29328, Note_on_c, 0, 76, 0
2, 29328, Note_on_c, 0, 74, 72
2, 29376, Note_on_c, 0, 74, 0
2, 29376, Note_on_c, 0, 76, 72
2, 29424, Note_on_c, 0, 76, 0
2, 29424, Note_on_c, 0, 74, 72
2, 29472, Note_on_c, 0, 74, 0
2, 29472, Note_on_c, 0, 72, 72
2, 29520, Note_on_c, 0, 72, 0
2, 29520, Note_on_c, 0, 71, 72
2, 29568, Note_on_c, 0, 71, 0
2, 29568, Note_on_c, 0, 69, 72
2, 29664, Note_on_c, 0, 69, 0
2, 29664, Note_on_c, 0, 81, 72
2, 29760, Note_on_c, 0, 81, 0
2, 29760, Note_on_c, 0, 74, 72
2, 29856, Note_on_c, 0, 74, 0
2, 29856, Note_on_c, 0, 77, 72
2, 29952, Note_on_c, 0, 77, 0
2, 29952, Note_on_c, 0, 77, 72
2, 30000, Note_on_c, 0, 77, 0
2, 30000, Note_on_c, 0, 76, 72
2, 30048, Note_on_c, 0, 76, 0
2, 30048, Note_on_c, 0, 74, 72
2, 30096, Note_on_c, 0, 74, 0
2, 30096, Note_on_c, 0, 72, 72
2, 30144, Note_on_c, 0, 72, 0
2, 30144, Note_on_c, 0, 74, 72
2, 30192, Note_on_c, 0, 74, 0
2, 30192, Note_on_c, 0, 72, 72
2, 30240, Note_on_c, 0, 72, 0
2, 30240, Note_on_c, 0, 71, 72
2, 30288, Note_on_c, 0, 71, 0
2, 30288, Note_on_c, 0, 69, 72
2, 30336, Note_on_c, 0, 69, 0
2, 30336, Note_on_c, 0, 68, 72
2, 30528, Note_on_c, 0, 68, 0
2, 30528, Note_on_c, 0, 69, 72
2, 30624, Note_on_c, 0, 69, 0
2, 30624, Note_on_c, 0, 71, 72
2, 30720, Note_on_c, 0, 71, 0
2, 30720, Note_on_c, 0, 72, 72
2, 31104, Note_on_c, 0, 72, 0
2, 31104, Note_on_c, 0, 72, 72
2, 31200, Note_on_c, 0, 72, 0
2, 31200, Note_on_c, 0, 69, 72
2, 31296, Note_on_c, 0, 69, 0
2, 31296, Note_on_c, 0, 74, 72
2, 31392, Note_on_c, 0, 74, 0
2, 31392, Note_on_c, 0, 72, 72
2, 31488, Note_on_c, 0, 72, 0
2, 31488, Note_on_c, 0, 71, 72
2, 31872, Note_on_c, 0, 71, 0
2, 31872, Note_on_c, 0, 71, 72
2, 31968, Note_on_c, 0, 71, 0
2, 31968, Note_on_c, 0, 67, 72
2, 32064, Note_on_c, 0, 67, 0
2, 32064, Note_on_c, 0, 72, 72
2, 32160, Note_on_c, 0, 72, 0
2, 32160, Note_on_c, 0, 70, 72
2, 32256, Note_on_c, 0, 70, 0
2, 32256, Note_on_c, 0, 69, 72
2, 32640, Note_on_c, 0, 69, 0
2, 32640, Note_on_c, 0, 76, 72
2, 33024, Note_on_c, 0, 76, 0
2, 33024, Note_on_c, 0, 72, 72
2, 33072, Note_on_c, 0, 72, 0
2, 33072, Note_on_c, 0, 81, 72
2, 33120, Note_on_c, 0, 81, 0
2, 33120, Note_on_c, 0, 79, 72
2, 33168, Note_on_c, 0, 79, 0
2, 33168, Note_on_c, 0, 77, 72
2, 33216, Note_on_c, 0, 77, 0
2, 33216, Note_on_c, 0, 79, 72
2, 33264, Note_on_c, 0, 79, 0
2, 33264, Note_on_c, 0, 77, 72
2, 33312, Note_on_c, 0, 77, 0
2, 33312, Note_on_c, 0, 76, 72
2, 33360, Note_on_c, 0, 76, 0
2, 33360, Note_on_c, 0, 74, 72
2, 33408, Note_on_c, 0, 74, 0
2, 33408, Note_on_c, 0, 73, 72
2, 33456, Note_on_c, 0, 73, 0
2, 33456, Note_on_c, 0, 76, 72
2, 33504, Note_on_c, 0, 76, 0
2, 33504, Note_on_c, 0, 74, 72
2, 33552, Note_on_c, 0, 74, 0
2, 33552, Note_on_c, 0, 73, 72
2, 33600, Note_on_c, 0, 73, 0
2, 33600, Note_on_c, 0, 74, 72
2, 33648, Note_on_c, 0, 74, 0
2, 33648, Note_on_c, 0, 73, 72
2, 33696, Note_on_c, 0, 73, 0
2, 33696, Note_on_c, 0, 71, 72
2, 33744, Note_on_c, 0, 71, 0
2, 33744, Note_on_c, 0, 69, 72
2, 33792, Note_on_c, 0, 69, 0
2, 33792, Note_on_c, 0, 74, 72
2, 33888, Note_on_c, 0, 74, 0
2, 33888, Note_on_c, 0, 69, 88
2, 33936, Note_on_c, 0, 69, 0
2, 33984, Note_on_c, 0, 81, 88
2, 34176, Note_on_c, 0, 81, 0
2, 34176, Note_on_c, 0, 81, 88
2, 34272, Note_on_c, 0, 81, 0
2, 34272, Note_on_c, 0, 79, 88
2, 34320, Note_on_c, 0, 79, 0
2, 34320, Note_on_c, 0, 77, 88
2, 34368, Note_on_c, 0, 77, 0
2, 34368, Note_on_c, 0, 76, 88
2, 34416, Note_on_c, 0, 76, 0
2, 34416, Note_on_c, 0, 74, 88
2, 34464, Note_on_c, 0, 74, 0
2, 34464, Note_on_c, 0, 73, 88
2, 34512, Note_on_c, 0, 73, 0
2, 34512, Note_on_c, 0, 71, 88
2, 34560, Note_on_c, 0, 71, 0
2, 34560, Note_on_c, 0, 69, 88
2, 34608, Note_on_c, 0, 69, 0
2, 34608, Note_on_c, 0, 67, 88
2, 34656, Note_on_c, 0, 67, 0
2, 34656, Note_on_c, 0, 69, 88
2, 34704, Note_on_c, 0, 69, 0
2, 34704, Note_on_c, 0, 71, 88
2, 34752, Note_on_c, 0, 71, 0
2, 34752, Note_on_c, 0, 72, 88
2, 34800, Note_on_c, 0, 72, 0
2, 34800, Note_on_c, 0, 69, 88
2, 34848, Note_on_c, 0, 69, 0
2, 34848, Note_on_c, 0, 71, 88
2, 34896, Note_on_c, 0, 71, 0
2, 34896, Note_on_c, 0, 73, 88
2, 34944, Note_on_c, 0, 73, 0
2, 34944, Note_on_c, 0, 74, 88
2, 34992, Note_on_c, 0, 74, 0
2, 34992, Note_on_c, 0, 73, 88
2, 35040, Note_on_c, 0, 73, 0
2, 35040, Note_on_c, 0, 74, 88
2, 35088, Note_on_c, 0, 74, 0
2, 35088, Note_on_c, 0, 76, 88
2, 35136, Note_on_c, 0, 76, 0
2, 35136, Note_on_c, 0, 77, 88
2, 35184, Note_on_c, 0, 77, 0
2, 35184, Note_on_c, 0, 74, 88
2, 35232, Note_on_c, 0, 74, 0
2, 35232, Note_on_c, 0, 76, 88
2, 35280, Note_on_c, 0, 76, 0
2, 35280, Note_on_c, 0, 77, 88
2, 35328, Note_on_c, 0, 77, 0
2, 35328, Note_on_c, 0, 79, 88
2, 35352, Note_on_c, 0, 79, 0
2, 35352, Note_on_c, 0, 77, 88
2, 35376, Note_on_c, 0, 77, 0
2, 35376, Note_on_c, 0, 79, 88
2, 35400, Note_on_c, 0, 79, 0
2, 35400, Note_on_c, 0, 77, 88
2, 35424, Note_on_c, 0, 77, 0
2, 35424, Note_on_c, 0, 76, 88
2, 35520, Note_on_c, 0, 76, 0
2, 35568, Note_on_c, 0, 76, 88
2, 35616, Note_on_c, 0, 76, 0
2, 35616, Note_on_c, 0, 74, 88
2, 35664, Note_on_c, 0, 74, 0
2, 35664, Note_on_c, 0, 76, 88
2, 35712, Note_on_c, 0, 76, 0
2, 35712, Note_on_c, 0, 77, 88
2, 35760, Note_on_c, 0, 77, 0
2, 35760, Note_on_c, 0, 81, 88
2, 35808, Note_on_c, 0, 81, 0
2, 35808, Note_on_c, 0, 79, 88
2, 35856, Note_on_c, 0, 79, 0
2, 35856, Note_on_c, 0, 77, 88
2, 35904, Note_on_c, 0, 77, 0
2, 35904, Note_on_c, 0, 79, 88
2, 35952, Note_on_c, 0, 79, 0
2, 35952, Note_on_c, 0, 77, 88
2, 36000, Note_on_c, 0, 77, 0
2, 36000, Note_on_c, 0, 76, 88
2, 36048, Note_on_c, 0, 76, 0
2, 36048, Note_on_c, 0, 74, 88
2, 36096, Note_on_c, 0, 74, 0
2, 36096, Note_on_c, 0, 72, 88
2, 36144, Note_on_c, 0, 72, 0
2, 36144, Note_on_c, 0, 77, 88
2, 36192, Note_on_c, 0, 77, 0
2, 36192, Note_on_c, 0, 76, 88
2, 36240, Note_on_c, 0, 76, 0
2, 36240, Note_on_c, 0, 74, 88
2, 36288, Note_on_c, 0, 74, 0
2, 36288, Note_on_c, 0, 76, 88
2, 36336, Note_on_c, 0, 76, 0
2, 36336, Note_on_c, 0, 74, 88
2, 36384, Note_on_c, 0, 74, 0
2, 36384, Note_on_c, 0, 72, 88
2, 36432, Note_on_c, 0, 72, 0
2, 36432, Note_on_c, 0, 70, 88
2, 36480, Note_on_c, 0, 70, 0
2, 36480, Note_on_c, 0, 69, 88
2, 36528, Note_on_c, 0, 69, 0
2, 36528, Note_on_c, 0, 74, 88
2, 36576, Note_on_c, 0, 74, 0
2, 36576, Note_on_c, 0, 72, 88
2, 36624, Note_on_c, 0, 72, 0
2, 36624, Note_on_c, 0, 70, 88
2, 36672, Note_on_c, 0, 70, 0
2, 36672, Note_on_c, 0, 72, 88
2, 36720, Note_on_c, 0, 72, 0
2, 36720, Note_on_c, 0, 70, 88
2, 36768, Note_on_c, 0, 70, 0
2, 36768, Note_on_c, 0, 69, 88
2, 36816, Note_on_c, 0, 69, 0
2, 36816, Note_on_c, 0, 67, 72
2, 36864, Note_on_c, 0, 67, 0
2, 36864, Note_on_c, 0, 65, 72
2, 36912, Note_on_c, 0, 65, 0
2, 36912, Note_on_c, 0, 70, 72
2, 36960, Note_on_c, 0, 70, 0
2, 36960, Note_on_c, 0, 69, 72
2, 37008, Note_on_c, 0, 69, 0
2, 37008, Note_on_c, 0, 67, 72
2, 37056, Note_on_c, 0, 67, 0
2, 37056, Note_on_c, 0, 69, 72
2, 37104, Note_on_c, 0, 69, 0
2, 37104, Note_on_c, 0, 67, 72
2, 37152, Note_on_c, 0, 67, 0
2, 37152, Note_on_c, 0, 65, 72
2, 37200, Note_on_c, 0, 65, 0
2, 37200, Note_on_c, 0, 64, 72
2, 37248, Note_on_c, 0, 64, 0
2, 37248, Note_on_c, 0, 62, 72
2, 37632, Note_on_c, 0, 62, 0
2, 37632, Note_on_c, 0, 62, 72
2, 37680, Note_on_c, 0, 62, 0
2, 37680, Note_on_c, 0, 74, 72
2, 37728, Note_on_c, 0, 74, 0
2, 37728, Note_on_c, 0, 72, 72
2, 37776, Note_on_c, 0, 72, 0
2, 37776, Note_on_c, 0, 70, 72
2, 37824, Note_on_c, 0, 70, 0
2, 37824, Note_on_c, 0, 72, 72
2, 37872, Note_on_c, 0, 72, 0
2, 37872, Note_on_c, 0, 70, 72
2, 37920, Note_on_c, 0, 70, 0
2, 37920, Note_on_c, 0, 69, 72
2, 37968, Note_on_c, 0, 69, 0
2, 37968, Note_on_c, 0, 67, 72
2, 38016, Note_on_c, 0, 67, 0
2, 38016, Note_on_c, 0, 69, 72
2, 38112, Note_on_c, 0, 69, 0
2, 38592, Note_on_c, 0, 70, 72
2, 38784, Note_on_c, 0, 70, 0
2, 38784, Note_on_c, 0, 70, 72
2, 38880, Note_on_c, 0, 70, 0
2, 38880, Note_on_c, 0, 71, 72
2, 38976, Note_on_c, 0, 71, 0
2, 38976, Note_on_c, 0, 72, 72
2, 39072, Note_on_c, 0, 72, 0
2, 39072, Note_on_c, 0, 73, 72
2, 39168, Note_on_c, 0, 73, 0
2, 39216, Note_on_c, 0, 74, 72
2, 39264, Note_on_c, 0, 74, 0
2, 39264, Note_on_c, 0, 72, 72
2, 39312, Note_on_c, 0, 72, 0
2, 39312, Note_on_c, 0, 70, 72
2, 39360, Note_on_c, 0, 70, 0
2, 39360, Note_on_c, 0, 72, 72
2, 39456, Note_on_c, 0, 72, 0
2, 39456, Note_on_c, 0, 74, 72
2, 39552, Note_on_c, 0, 74, 0
2, 39552, Note_on_c, 0, 70, 72
2, 39648, Note_on_c, 0, 70, 0
2, 39648, Note_on_c, 0, 79, 72
2, 39840, Note_on_c, 0, 79, 0
2, 39840, Note_on_c, 0, 77, 72
2, 39888, Note_on_c, 0, 77, 0
2, 39888, Note_on_c, 0, 75, 72
2, 39936, Note_on_c, 0, 75, 0
2, 39936, Note_on_c, 0, 74, 72
2, 40032, Note_on_c, 0, 74, 0
2, 40032, Note_on_c, 0, 75, 72
2, 40128, Note_on_c, 0, 75, 0
2, 40128, Note_on_c, 0, 77, 72
2, 40224, Note_on_c, 0, 77, 0
2, 42672, Note_on_c, 0, 62, 72
2, 42720, Note_on_c, 0, 62, 0
2, 42720, Note_on_c, 0, 64, 72
2, 42768, Note_on_c, 0, 64, 0
2, 42768, Note_on_c, 0, 66, 72
2, 42816, Note_on_c, 0, 66, 0
2, 42816, Note_on_c, 0, 67, 72
2, 42864, Note_on_c, 0, 67, 0
2, 42864, Note_on_c, 0, 66, 72
2, 42912, Note_on_c, 0, 66, 0
2, 42912, Note_on_c, 0, 67, 72
2, 42960, Note_on_c, 0, 67, 0
2, 42960, Note_on_c, 0, 69, 72
2, 43008, Note_on_c, 0, 69, 0
2, 43008, Note_on_c, 0, 70, 72
2, 43056, Note_on_c, 0, 70, 0
2, 43056, Note_on_c, 0, 67, 72
2, 43104, Note_on_c, 0, 67, 0
2, 43104, Note_on_c, 0, 69, 72
2, 43152, Note_on_c, 0, 69, 0
2, 43152, Note_on_c, 0, 71, 72
2, 43200, Note_on_c, 0, 71, 0
2, 43200, Note_on_c, 0, 72, 72
2, 43248, Note_on_c, 0, 72, 0
2, 43248, Note_on_c, 0, 71, 72
2, 43296, Note_on_c, 0, 71, 0
2, 43296, Note_on_c, 0, 72, 72
2, 43344, Note_on_c, 0, 72, 0
2, 43344, Note_on_c, 0, 74, 72
2, 43392, Note_on_c, 0, 74, 0
2, 43392, Note_on_c, 0, 75, 72
2, 43488, Note_on_c, 0, 75, 0
2, 43488, Note_on_c, 0, 74, 72
2, 43584, Note_on_c, 0, 74, 0
2, 43584, Note_on_c, 0, 72, 72
2, 43680, Note_on_c, 0, 72, 0
2, 43680, Note_on_c, 0, 70, 72
2, 43776, Note_on_c, 0, 70, 0
2, 43776, Note_on_c, 0, 69, 72
2, 43824, Note_on_c, 0, 69, 0
2, 43824, Note_on_c, 0, 67, 72
2, 43872, Note_on_c, 0, 67, 0
2, 43872, Note_on_c, 0, 69, 72
2, 43920, Note_on_c, 0, 69, 0
2, 43920, Note_on_c, 0, 70, 72
2, 43968, Note_on_c, 0, 70, 0
2, 43968, Note_on_c, 0, 72, 72
2, 44016, Note_on_c, 0, 72, 0
2, 44016, Note_on_c, 0, 69, 72
2, 44064, Note_on_c, 0, 69, 0
2, 44064, Note_on_c, 0, 71, 72
2, 44112, Note_on_c, 0, 71, 0
2, 44112, Note_on_c, 0, 73, 72
2, 44160, Note_on_c, 0, 73, 0
2, 44160, Note_on_c, 0, 74, 72
2, 44256, Note_on_c, 0, 74, 0
2, 44256, Note_on_c, 0, 67, 72
2, 44448, Note_on_c, 0, 67, 0
2, 44448, Note_on_c, 0, 65, 72
2, 44544, Note_on_c, 0, 65, 0
2, 44544, Note_on_c, 0, 65, 72
2, 44592, Note_on_c, 0, 65, 0
2, 44592, Note_on_c, 0, 64, 72
2, 44640, Note_on_c, 0, 64, 0
2, 44640, Note_on_c, 0, 62, 72
2, 44832, Note_on_c, 0, 62, 0
2, 44832, Note_on_c, 0, 67, 72
2, 44928, Note_on_c, 0, 67, 0
2, 44928, Note_on_c, 0, 67, 72
2, 44976, Note_on_c, 0, 67, 0
2, 44976, Note_on_c, 0, 70, 72
2, 45024, Note_on_c, 0, 70, 0
2, 45024, Note_on_c, 0, 69, 72
2, 45072, Note_on_c, 0, 69, 0
2, 45072, Note_on_c, 0, 67, 72
2, 45120, Note_on_c, 0, 67, 0
2, 45120, Note_on_c, 0, 69, 72
2, 45168, Note_on_c, 0, 69, 0
2, 45168, Note_on_c, 0, 67, 72
2, 45216, Note_on_c, 0, 67, 0
2, 45216, Note_on_c, 0, 65, 72
2, 45264, Note_on_c, 0, 65, 0
2, 45264, Note_on_c, 0, 64, 72
2, 45312, Note_on_c, 0, 64, 0
2, 45312, Note_on_c, 0, 65, 72
2, 45360, Note_on_c, 0, 65, 0
2, 45360, Note_on_c, 0, 64, 72
2, 45408, Note_on_c, 0, 64, 0
2, 45408, Note_on_c, 0, 65, 72
2, 45456, Note_on_c, 0, 65, 0
2, 45456, Note_on_c, 0, 69, 72
2, 45504, Note_on_c, 0, 69, 0
2, 45504, Note_on_c, 0, 67, 72
2, 45552, Note_on_c, 0, 67, 0
2, 45552, Note_on_c, 0, 65, 72
2, 45600, Note_on_c, 0, 65, 0
2, 45600, Note_on_c, 0, 64, 72
2, 45648, Note_on_c, 0, 64, 0
2, 45648, Note_on_c, 0, 62, 72
2, 45696, Note_on_c, 0, 62, 0
2, 45696, Note_on_c, 0, 64, 72
2, 45888, Note_on_c, 0, 64, 0
2, 45984, Note_on_c, 0, 73, 72
2, 46080, Note_on_c, 0, 73, 0
2, 46080, Note_on_c, 0, 74, 72
2, 46272, Note_on_c, 0, 74, 0
2, 46272, Note_on_c, 0, 74, 72
2, 46320, Note_on_c, 0, 74, 0
2, 46320, Note_on_c, 0, 72, 72
2, 46368, Note_on_c, 0, 72, 0
2, 46368, Note_on_c, 0, 70, 72
2, 46416, Note_on_c, 0, 70, 0
2, 46416, Note_on_c, 0, 69, 72
2, 46464, Note_on_c, 0, 69, 0
2, 46464, Note_on_c, 0, 67, 72
2, 46848, Note_on_c, 0, 67, 0
2, 46848, Note_on_c, 0, 67, 72
2, 47232, Note_on_c, 0, 67, 0
2, 47232, Note_on_c, 0, 65, 72
2, 47424, Note_on_c, 0, 65, 0
2, 47520, Note_on_c, 0, 70, 72
2, 47616, Note_on_c, 0, 70, 0
2, 47616, Note_on_c, 0, 69, 72
2, 47808, Note_on_c, 0, 69, 0
2, 47904, Note_on_c, 0, 73, 72
2, 48000, Note_on_c, 0, 73, 0
2, 48000, Note_on_c, 0, 74, 88
2, 48048, Note_on_c, 0, 74, 0
2, 48048, Note_on_c, 0, 72, 88
2, 48096, Note_on_c, 0, 72, 0
2, 48096, Note_on_c, 0, 70, 88
2, 48144, Note_on_c, 0, 70, 0
2, 48144, Note_on_c, 0, 69, 88
2, 48192, Note_on_c, 0, 69, 0
2, 48192, Note_on_c, 0, 70, 88
2, 48240, Note_on_c, 0, 70, 0
2, 48240, Note_on_c, 0, 69, 88
2, 48288, Note_on_c, 0, 69, 0
2, 48288, Note_on_c, 0, 67, 88
2, 48336, Note_on_c, 0, 67, 0
2, 48336, Note_on_c, 0, 66, 88
2, 48384, Note_on_c, 0, 66, 0
2, 48384, Note_on_c, 0, 67, 88
2, 48768, Note_on_c, 0, 67, 0
2, 48768, Note_on_c, 0, 67, 88
2, 48816, Note_on_c, 0, 67, 0
2, 48816, Note_on_c, 0, 70, 88
2, 48864, Note_on_c, 0, 70, 0
2, 48864, Note_on_c, 0, 69, 88
2, 48912, Note_on_c, 0, 69, 0
2, 48912, Note_on_c, 0, 67, 88
2, 48960, Note_on_c, 0, 67, 0
2, 48960, Note_on_c, 0, 69, 88
2, 49008, Note_on_c, 0, 69, 0
2, 49008, Note_on_c, 0, 67, 88
2, 49056, Note_on_c, 0, 67, 0
2, 49056, Note_on_c, 0, 65, 88
2, 49104, Note_on_c, 0, 65, 0
2, 49104, Note_on_c, 0, 64, 88
2, 49152, Note_on_c, 0, 64, 0
2, 49152, Note_on_c, 0, 65, 88
2, 49296, Note_on_c, 0, 65, 0
2, 49296, Note_on_c, 0, 67, 88
2, 49344, Note_on_c, 0, 67, 0
2, 49344, Note_on_c, 0, 64, 88
2, 49488, Note_on_c, 0, 64, 0
2, 49488, Note_on_c, 0, 62, 88
2, 49536, Note_on_c, 0, 62, 0
2, 49536, Note_on_c, 0, 62, 88
2, 49920, Note_on_c, 0, 62, 0
2, 49920, End_track
3, 0, Start_track
3, 96, Note_on_c, 0, 62, 88
3, 144, Note_on_c, 0, 62, 0
3, 192, Note_on_c, 0, 74, 88
3, 384, Note_on_c, 0, 74, 0
3, 384, Note_on_c, 0, 74, 88
3, 480, Note_on_c, 0, 74, 0
3, 480, Note_on_c, 0, 73, 88
3, 528, Note_on_c, 0, 73, 0
3, 528, Note_on_c, 0, 71, 88
3, 576, Note_on_c, 0, 71, 0
3, 576, Note_on_c, 0, 69, 88
3, 624, Note_on_c, 0, 69, 0
3, 624, Note_on_c, 0, 67, 88
3, 672, Note_on_c, 0, 67, 0
3, 672, Note_on_c, 0, 65, 88
3, 720, Note_on_c, 0, 65, 0
3, 720, Note_on_c, 0, 64, 88
3, 768, Note_on_c, 0, 64, 0
3, 768, Note_on_c, 0, 62, 88
3, 816, Note_on_c, 0, 62, 0
3, 816, Note_on_c, 0, 61, 88
3, 864, Note_on_c, 0, 61, 0
3, 864, Note_on_c, 0, 62, 88
3, 912, Note_on_c, 0, 62, 0
3, 912, Note_on_c, 0, 64, 88
3, 960, Note_on_c, 0, 64, 0
3, 960, Note_on_c, 0, 65, 88
3, 1008, Note_on_c, 0, 65, 0
3, 1008, Note_on_c, 0, 62, 88
3, 1056, Note_on_c, 0, 62, 0
3, 1056, Note_on_c, 0, 64, 88
3, 1104, Note_on_c, 0, 64, 0
3, 1104, Note_on_c, 0, 65, 88
3, 1152, Note_on_c, 0, 65, 0
3, 1152, Note_on_c, 0, 67, 88
3, 1200, Note_on_c, 0, 67, 0
3, 1200, Note_on_c, 0, 66, 88
3, 1248, Note_on_c, 0, 66, 0
3, 1248, Note_on_c, 0, 67, 88
3, 1296, Note_on_c, 0, 67, 0
3, 1296, Note_on_c, 0, 69, 88
3, 1344, Note_on_c, 0, 69, 0
3, 1344, Note_on_c, 0, 70, 88
3, 1392, Note_on_c, 0, 70, 0
3, 1392, Note_on_c, 0, 67, 88
3, 1440, Note_on_c, 0, 67, 0
3, 1440, Note_on_c, 0, 69, 88
3, 1488, Note_on_c, 0, 69, 0
3, 1488, Note_on_c, 0, 70, 88
3, 1536, Note_on_c, 0, 70, 0
3, 1536, Note_on_c, 0, 72, 88
3, 1560, Note_on_c, 0, 72, 0
3, 1560, Note_on_c, 0, 70, 88
3, 1584, Note_on_c, 0, 70, 0
3, 1584, Note_on_c, 0, 72, 88
3, 1608, Note_on_c, 0, 72, 0
3, 1608, Note_on_c, 0, 70, 88
3, 1632, Note_on_c, 0, 70, 0
3, 1632, Note_on_c, 0, 69, 88
3, 1728, Note_on_c, 0, 69, 0
3, 1776, Note_on_c, 0, 69, 88
3, 1824, Note_on_c, 0, 69, 0
3, 1824, Note_on_c, 0, 67, 88
3, 1872, Note_on_c, 0, 67, 0
3, 1872, Note_on_c, 0, 69, 88
3, 1920, Note_on_c, 0, 69, 0
3, 1920, Note_on_c, 0, 70, 88
3, 1968, Note_on_c, 0, 70, 0
3, 1968, Note_on_c, 0, 74, 88
3, 2016, Note_on_c, 0, 74, 0
3, 2016, Note_on_c, 0, 72, 88
3, 2064, Note_on_c, 0, 72, 0
3, 2064, Note_on_c, 0, 70, 88
3, 2112, Note_on_c, 0, 70, 0
3, 2112, Note_on_c, 0, 72, 88
3, 2160, Note_on_c, 0, 72, 0
3, 2160, Note_on_c, 0, 70, 88
3, 2208, Note_on_c, 0, 70, 0
3, 2208, Note_on_c, 0, 69, 88
3, 2256, Note_on_c, 0, 69, 0
3, 2256, Note_on_c, 0, 67, 88
3, 2304, Note_on_c, 0, 67, 0
3, 2304, Note_on_c, 0, 65, 88
3, 2352, Note_on_c, 0, 65, 0
3, 2352, Note_on_c, 0, 70, 88
3, 2400, Note_on_c, 0, 70, 0
3, 2400, Note_on_c, 0, 69, 88
3, 2448, Note_on_c, 0, 69, 0
3, 2448, Note_on_c, 0, 67, 88
3, 2496, Note_on_c, 0, 67, 0
3, 2496, Note_on_c, 0, 69, 88
3, 2544, Note_on_c, 0, 69, 0
3, 2544, Note_on_c, 0, 67, 88
3, 2592, Note_on_c, 0, 67, 0
3, 2592, Note_on_c, 0, 65, 88
3, 2640, Note_on_c, 0, 65, 0
3, 2640, Note_on_c, 0, 64, 88
3, 2688, Note_on_c, 0, 64, 0
3, 2688, Note_on_c, 0, 62, 88
3, 2736, Note_on_c, 0, 62, 0
3, 2736, Note_on_c, 0, 67, 88
3, 2784, Note_on_c, 0, 67, 0
3, 2784, Note_on_c, 0, 65, 88
3, 2832, Note_on_c, 0, 65, 0
3, 2832, Note_on_c, 0, 64, 88
3, 2880, Note_on_c, 0, 64, 0
3, 2880, Note_on_c, 0, 65, 88
3, 2928, Note_on_c, 0, 65, 0
3, 2928, Note_on_c, 0, 64, 88
3, 2976, Note_on_c, 0, 64, 0
3, 2976, Note_on_c, 0, 62, 88
3, 3024, Note_on_c, 0, 62, 0
3, 3024, Note_on_c, 0, 60, 72
3, 3072, Note_on_c, 0, 60, 0
3, 3072, Note_on_c, 0, 59, 72
3, 3168, Note_on_c, 0, 59, 0
3, 3168, Note_on_c, 0, 64, 72
3, 3264, Note_on_c, 0, 64, 0
3, 3264, Note_on_c, 0, 68, 72
3, 3360, Note_on_c, 0, 68, 0
3, 3360, Note_on_c, 0, 64, 72
3, 3456, Note_on_c, 0, 64, 0
3, 3456, Note_on_c, 0, 60, 72
3, 3504, Note_on_c, 0, 60, 0
3, 3504, Note_on_c, 0, 62, 72
3, 3552, Note_on_c, 0, 62, 0
3, 3552, Note_on_c, 0, 60, 72
3, 3600, Note_on_c, 0, 60, 0
3, 3600, Note_on_c, 0, 59, 72
3, 3648, Note_on_c, 0, 59, 0
3, 3648, Note_on_c, 0, 57, 72
3, 3744, Note_on_c, 0, 57, 0
3, 3744, Note_on_c, 0, 67, 72
3, 3840, Note_on_c, 0, 67, 0
3, 3840, Note_on_c, 0, 65, 72
3, 3888, Note_on_c, 0, 65, 0
3, 3888, Note_on_c, 0, 67, 72
3, 3936, Note_on_c, 0, 67, 0
3, 3936, Note_on_c, 0, 65, 72
3, 3984, Note_on_c, 0, 65, 0
3, 3984, Note_on_c, 0, 64, 72
3, 4032, Note_on_c, 0, 64, 0
3, 4032, Note_on_c, 0, 62, 72
3, 4128, Note_on_c, 0, 62, 0
3, 4128, Note_on_c, 0, 74, 72
3, 4224, Note_on_c, 0, 74, 0
3, 4224, Note_on_c, 0, 68, 72
3, 4320, Note_on_c, 0, 68, 0
3, 4320, Note_on_c, 0, 69, 72
3, 4368, Note_on_c, 0, 69, 0
3, 4368, Note_on_c, 0, 71, 72
3, 4416, Note_on_c, 0, 71, 0
3, 4416, Note_on_c, 0, 72, 72
3, 4512, Note_on_c, 0, 72, 0
3, 4512, Note_on_c, 0, 71, 72
3, 4608, Note_on_c, 0, 71, 0
3, 4608, Note_on_c, 0, 69, 72
3, 4800, Note_on_c, 0, 69, 0
3, 4896, Note_on_c, 0, 68, 72
3, 4992, Note_on_c, 0, 68, 0
3, 4992, Note_on_c, 0, 69, 72
3, 5184, Note_on_c, 0, 69, 0
3, 5280, Note_on_c, 0, 64, 72
3, 5376, Note_on_c, 0, 64, 0
3, 5376, Note_on_c, 0, 65, 72
3, 5568, Note_on_c, 0, 65, 0
3, 5664, Note_on_c, 0, 65, 72
3, 5760, Note_on_c, 0, 65, 0
3, 5760, Note_on_c, 0, 64, 72
3, 5952, Note_on_c, 0, 64, 0
3, 6048, Note_on_c, 0, 67, 72
3, 6144, Note_on_c, 0, 67, 0
3, 6144, Note_on_c, 0, 67, 72
3, 6240, Note_on_c, 0, 67, 0
3, 6240, Note_on_c, 0, 65, 72
3, 6288, Note_on_c, 0, 65, 0
3, 6288, Note_on_c, 0, 67, 72
3, 6336, Note_on_c, 0, 67, 0
3, 6336, Note_on_c, 0, 69, 72
3, 6528, Note_on_c, 0, 69, 0
3, 6528, Note_on_c, 0, 62, 72
3, 6720, Note_on_c, 0, 62, 0
3, 6816, Note_on_c, 0, 67, 72
3, 6912, Note_on_c, 0, 67, 0
3, 6912, Note_on_c, 0, 64, 72
3, 7008, Note_on_c, 0, 64, 0
3, 7008, Note_on_c, 0, 65, 72
3, 7056, Note_on_c, 0, 65, 0
3, 7056, Note_on_c, 0, 67, 72
3, 7104, Note_on_c, 0, 67, 0
3, 7104, Note_on_c, 0, 65, 72
3, 7200, Note_on_c, 0, 65, 0
3, 7200, Note_on_c, 0, 64, 72
3, 7296, Note_on_c, 0, 64, 0
3, 7296, Note_on_c, 0, 62, 72
3, 7392, Note_on_c, 0, 62, 0
3, 7584, Note_on_c, 0, 64, 72
3, 7680, Note_on_c, 0, 64, 0
3, 7680, Note_on_c, 0, 65, 72
3, 7776, Note_on_c, 0, 65, 0
3, 7968, Note_on_c, 0, 61, 72
3, 8064, Note_on_c, 0, 61, 0
3, 8064, Note_on_c, 0, 62, 72
3, 8256, Note_on_c, 0, 62, 0
3, 8352, Note_on_c, 0, 64, 72
3, 8448, Note_on_c, 0, 64, 0
3, 8448, Note_on_c, 0, 65, 72
3, 8544, Note_on_c, 0, 65, 0
3, 8544, Note_on_c, 0, 62, 72
3, 8640, Note_on_c, 0, 62, 0
3, 8688, Note_on_c, 0, 65, 72
3, 8736, Note_on_c, 0, 65, 0
3, 8736, Note_on_c, 0, 64, 72
3, 8784, Note_on_c, 0, 64, 0
3, 8784, Note_on_c, 0, 62, 72
3, 8832, Note_on_c, 0, 62, 0
3, 8832, Note_on_c, 0, 60, 72
3, 8880, Note_on_c, 0, 60, 0
3, 8880, Note_on_c, 0, 59, 72
3, 8928, Note_on_c, 0, 59, 0
3, 8928, Note_on_c, 0, 60, 72
3, 8976, Note_on_c, 0, 60, 0
3, 8976, Note_on_c, 0, 62, 72
3, 9024, Note_on_c, 0, 62, 0
3, 9024, Note_on_c, 0, 64, 72
3, 9072, Note_on_c, 0, 64, 0
3, 9072, Note_on_c, 0, 60, 72
3, 9120, Note_on_c, 0, 60, 0
3, 9120, Note_on_c, 0, 62, 72
3, 9168, Note_on_c, 0, 62, 0
3, 9168, Note_on_c, 0, 64, 72
3, 9216, Note_on_c, 0, 64, 0
3, 9216, Note_on_c, 0, 65, 72
3, 9312, Note_on_c, 0, 65, 0
3, 11808, Note_on_c, 0, 69, 72
3, 11904, Note_on_c, 0, 69, 0
3, 11904, Note_on_c, 0, 70, 72
3, 11952, Note_on_c, 0, 70, 0
3, 11952, Note_on_c, 0, 74, 72
3, 12000, Note_on_c, 0, 74, 0
3, 12000, Note_on_c, 0, 72, 72
3, 12048, Note_on_c, 0, 72, 0
3, 12048, Note_on_c, 0, 70, 72
3, 12096, Note_on_c, 0, 70, 0
3, 12096, Note_on_c, 0, 72, 72
3, 12144, Note_on_c, 0, 72, 0
3, 12144, Note_on_c, 0, 70, 72
3, 12192, Note_on_c, 0, 70, 0
3, 12192, Note_on_c, 0, 69, 72
3, 12240, Note_on_c, 0, 69, 0
3, 12240, Note_on_c, 0, 67, 72
3, 12288, Note_on_c, 0, 67, 0
3, 12288, Note_on_c, 0, 65, 72
3, 12336, Note_on_c, 0, 65, 0
3, 12336, Note_on_c, 0, 69, 72
3, 12384, Note_on_c, 0, 69, 0
3, 12384, Note_on_c, 0, 67, 72
3, 12432, Note_on_c, 0, 67, 0
3, 12432, Note_on_c, 0, 65, 72
3, 12480, Note_on_c, 0, 65, 0
3, 12480, Note_on_c, 0, 67, 72
3, 12528, Note_on_c, 0, 67, 0
3, 12528, Note_on_c, 0, 65, 72
3, 12576, Note_on_c, 0, 65, 0
3, 12576, Note_on_c, 0, 64, 72
3, 12624, Note_on_c, 0, 64, 0
3, 12624, Note_on_c, 0, 62, 72
3, 12672, Note_on_c, 0, 62, 0
3, 12672, Note_on_c, 0, 64, 72
3, 12720, Note_on_c, 0, 64, 0
3, 12720, Note_on_c, 0, 70, 72
3, 12768, Note_on_c, 0, 70, 0
3, 12768, Note_on_c, 0, 69, 72
3, 12816, Note_on_c, 0, 69, 0
3, 12816, Note_on_c, 0, 67, 72
3, 12864, Note_on_c, 0, 67, 0
3, 12864, Note_on_c, 0, 69, 72
3, 12912, Note_on_c, 0, 69, 0
3, 12912, Note_on_c, 0, 67, 72
3, 12960, Note_on_c, 0, 67, 0
3, 12960, Note_on_c, 0, 65, 72
3, 13008, Note_on_c, 0, 65, 0
3, 13008, Note_on_c, 0, 64, 72
3, 13056, Note_on_c, 0, 64, 0
3, 13056, Note_on_c, 0, 62, 72
3, 13104, Note_on_c, 0, 62, 0
3, 13104, Note_on_c, 0, 72, 72
3, 13152, Note_on_c, 0, 72, 0
3, 13152, Note_on_c, 0, 70, 72
3, 13200, Note_on_c, 0, 70, 0
3, 13200, Note_on_c, 0, 69, 72
3, 13248, Note_on_c, 0, 69, 0
3, 13248, Note_on_c, 0, 67, 72
3, 13296, Note_on_c, 0, 67, 0
3, 13296, Note_on_c, 0, 65, 72
3, 13344, Note_on_c, 0, 65, 0
3, 13344, Note_on_c, 0, 64, 72
3, 13392, Note_on_c, 0, 64, 0
3, 13392, Note_on_c, 0, 67, 72
3, 13440, Note_on_c, 0, 67, 0
3, 13440, Note_on_c, 0, 65, 72
3, 13536, Note_on_c, 0, 65, 0
3, 13536, Note_on_c, 0, 64, 72
3, 13632, Note_on_c, 0, 64, 0
3, 13728, Note_on_c, 0, 73, 72
3, 13824, Note_on_c, 0, 73, 0
3, 13824, Note_on_c, 0, 74, 72
3, 13920, Note_on_c, 0, 74, 0
3, 13920, Note_on_c, 0, 69, 72
3, 14016, Note_on_c, 0, 69, 0
3, 14016, Note_on_c, 0, 74, 72
3, 14112, Note_on_c, 0, 74, 0
3, 14112, Note_on_c, 0, 72, 72
3, 14208, Note_on_c, 0, 72, 0
3, 14208, Note_on_c, 0, 72, 72
3, 14304, Note_on_c, 0, 72, 0
3, 14304, Note_on_c, 0, 70, 72
3, 14352, Note_on_c, 0, 70, 0
3, 14352, Note_on_c, 0, 69, 72
3, 14400, Note_on_c, 0, 69, 0
3, 14400, Note_on_c, 0, 67, 72
3, 14496, Note_on_c, 0, 67, 0
3, 14496, Note_on_c, 0, 65, 72
3, 14592, Note_on_c, 0, 65, 0
3, 14592, Note_on_c, 0, 64, 72
3, 14688, Note_on_c, 0, 64, 0
3, 14688, Note_on_c, 0, 65, 72
3, 14736, Note_on_c, 0, 65, 0
3, 14736, Note_on_c, 0, 67, 72
3, 14784, Note_on_c, 0, 67, 0
3, 14784, Note_on_c, 0, 65, 72
3, 14880, Note_on_c, 0, 65, 0
3, 14880, Note_on_c, 0, 64, 72
3, 14976, Note_on_c, 0, 64, 0
3, 14976, Note_on_c, 0, 62, 72
3, 15072, Note_on_c, 0, 62, 0
3, 15072, Note_on_c, 0, 67, 72
3, 15264, Note_on_c, 0, 67, 0
3, 15264, Note_on_c, 0, 70, 72
3, 15360, Note_on_c, 0, 70, 0
3, 15360, Note_on_c, 0, 69, 72
3, 15456, Note_on_c, 0, 69, 0
3, 15456, Note_on_c, 0, 72, 72
3, 15552, Note_on_c, 0, 72, 0
3, 15552, Note_on_c, 0, 65, 72
3, 15648, Note_on_c, 0, 65, 0
3, 15648, Note_on_c, 0, 69, 72
3, 15696, Note_on_c, 0, 69, 0
3, 15696, Note_on_c, 0, 67, 72
3, 15744, Note_on_c, 0, 67, 0
3, 15744, Note_on_c, 0, 69, 72
3, 15792, Note_on_c, 0, 69, 0
3, 15792, Note_on_c, 0, 76, 72
3, 15840, Note_on_c, 0, 76, 0
3, 15840, Note_on_c, 0, 74, 72
3, 15888, Note_on_c, 0, 74, 0
3, 15888, Note_on_c, 0, 73, 72
3, 15936, Note_on_c, 0, 73, 0
3, 15936, Note_on_c, 0, 74, 72
3, 15984, Note_on_c, 0, 74, 0
3, 15984, Note_on_c, 0, 72, 72
3, 16032, Note_on_c, 0, 72, 0
3, 16032, Note_on_c, 0, 70, 72
3, 16080, Note_on_c, 0, 70, 0
3, 16080, Note_on_c, 0, 69, 72
3, 16128, Note_on_c, 0, 69, 0
3, 16128, Note_on_c, 0, 70, 72
3, 16224, Note_on_c, 0, 70, 0
3, 16224, Note_on_c, 0, 72, 72
3, 16320, Note_on_c, 0, 72, 0
3, 16320, Note_on_c, 0, 70, 72
3, 16416, Note_on_c, 0, 70, 0
3, 16416, Note_on_c, 0, 69, 72
3, 16512, Note_on_c, 0, 69, 0
3, 16512, Note_on_c, 0, 67, 72
3, 16704, Note_on_c, 0, 67, 0
3, 16992, Note_on_c, 0, 60, 88
3, 17040, Note_on_c, 0, 60, 0
3, 17088, Note_on_c, 0, 72, 88
3, 17280, Note_on_c, 0, 72, 0
3, 17280, Note_on_c, 0, 72, 88
3, 17376, Note_on_c, 0, 72, 0
3, 17376, Note_on_c, 0, 70, 88
3, 17424, Note_on_c, 0, 70, 0
3, 17424, Note_on_c, 0, 69, 88
3, 17472, Note_on_c, 0, 69, 0
3, 17472, Note_on_c, 0, 67, 88
3, 17520, Note_on_c, 0, 67, 0
3, 17520, Note_on_c, 0, 65, 88
3, 17568, Note_on_c, 0, 65, 0
3, 17568, Note_on_c, 0, 64, 88
3, 17616, Note_on_c, 0, 64, 0
3, 17616, Note_on_c, 0, 62, 88
3, 17664, Note_on_c, 0, 62, 0
3, 17664, Note_on_c, 0, 60, 88
3, 17712, Note_on_c, 0, 60, 0
3, 17712, Note_on_c, 0, 58, 88
3, 17760, Note_on_c, 0, 58, 0
3, 17760, Note_on_c, 0, 60, 88
3, 17808, Note_on_c, 0, 60, 0
3, 17808, Note_on_c, 0, 62, 88
3, 17856, Note_on_c, 0, 62, 0
3, 17856, Note_on_c, 0, 64, 88
3, 17904, Note_on_c, 0, 64, 0
3, 17904, Note_on_c, 0, 60, 88
3, 17952, Note_on_c, 0, 60, 0
3, 17952, Note_on_c, 0, 62, 88
3, 18000, Note_on_c, 0, 62, 0
3, 18000, Note_on_c, 0, 64, 88
3, 18048, Note_on_c, 0, 64, 0
3, 18048, Note_on_c, 0, 65, 88
3, 18096, Note_on_c, 0, 65, 0
3, 18096, Note_on_c, 0, 64, 88
3, 18144, Note_on_c, 0, 64, 0
3, 18144, Note_on_c, 0, 65, 88
3, 18192, Note_on_c, 0, 65, 0
3, 18192, Note_on_c, 0, 67, 88
3, 18240, Note_on_c, 0, 67, 0
3, 18240, Note_on_c, 0, 69, 88
3, 18288, Note_on_c, 0, 69, 0
3, 18288, Note_on_c, 0, 65, 88
3, 18336, Note_on_c, 0, 65, 0
3, 18336, Note_on_c, 0, 67, 88
3, 18384, Note_on_c, 0, 67, 0
3, 18384, Note_on_c, 0, 69, 88
3, 18432, Note_on_c, 0, 69, 0
3, 18432, Note_on_c, 0, 70, 88
3, 18456, Note_on_c, 0, 70, 0
3, 18456, Note_on_c, 0, 69, 88
3, 18480, Note_on_c, 0, 69, 0
3, 18480, Note_on_c, 0, 70, 88
3, 18504, Note_on_c, 0, 70, 0
3, 18504, Note_on_c, 0, 69, 88
3, 18528, Note_on_c, 0, 69, 0
3, 18528, Note_on_c, 0, 67, 88
3, 18624, Note_on_c, 0, 67, 0
3, 18672, Note_on_c, 0, 67, 88
3, 18720, Note_on_c, 0, 67, 0
3, 18720, Note_on_c, 0, 65, 88
3, 18768, Note_on_c, 0, 65, 0
3, 18768, Note_on_c, 0, 67, 88
3, 18816, Note_on_c, 0, 67, 0
3, 18816, Note_on_c, 0, 69, 88
3, 18864, Note_on_c, 0, 69, 0
3, 18864, Note_on_c, 0, 72, 88
3, 18912, Note_on_c, 0, 72, 0
3, 18912, Note_on_c, 0, 70, 88
3, 18960, Note_on_c, 0, 70, 0
3, 18960, Note_on_c, 0, 69, 88
3, 19008, Note_on_c, 0, 69, 0
3, 19008, Note_on_c, 0, 70, 88
3, 19056, Note_on_c, 0, 70, 0
3, 19056, Note_on_c, 0, 69, 88
3, 19104, Note_on_c, 0, 69, 0
3, 19104, Note_on_c, 0, 67, 88
3, 19152, Note_on_c, 0, 67, 0
3, 19152, Note_on_c, 0, 65, 88
3, 19200, Note_on_c, 0, 65, 0
3, 19200, Note_on_c, 0, 64, 88
3, 19248, Note_on_c, 0, 64, 0
3, 19248, Note_on_c, 0, 69, 88
3, 19296, Note_on_c, 0, 69, 0
3, 19296, Note_on_c, 0, 67, 88
3, 19344, Note_on_c, 0, 67, 0
3, 19344, Note_on_c, 0, 65, 88
3, 19392, Note_on_c, 0, 65, 0
3, 19392, Note_on_c, 0, 67, 88
3, 19440, Note_on_c, 0, 67, 0
3, 19440, Note_on_c, 0, 65, 88
3, 19488, Note_on_c, 0, 65, 0
3, 19488, Note_on_c, 0, 64, 88
3, 19536, Note_on_c, 0, 64, 0
3, 19536, Note_on_c, 0, 62, 88
3, 19584, Note_on_c, 0, 62, 0
3, 19584, Note_on_c, 0, 60, 88
3, 19776, Note_on_c, 0, 60, 0
3, 19824, Note_on_c, 0, 60, 72
3, 19872, Note_on_c, 0, 60, 0
3, 19872, Note_on_c, 0, 62, 72
3, 19920, Note_on_c, 0, 62, 0
3, 19920, Note_on_c, 0, 64, 72
3, 19968, Note_on_c, 0, 64, 0
3, 19968, Note_on_c, 0, 65, 72
3, 20160, Note_on_c, 0, 65, 0
3, 20160, Note_on_c, 0, 65, 72
3, 20208, Note_on_c, 0, 65, 0
3, 20208, Note_on_c, 0, 64, 72
3, 20256, Note_on_c, 0, 64, 0
3, 20256, Note_on_c, 0, 66, 72
3, 20304, Note_on_c, 0, 66, 0
3, 20304, Note_on_c, 0, 68, 72
3, 20352, Note_on_c, 0, 68, 0
3, 20352, Note_on_c, 0, 69, 72
3, 20544, Note_on_c, 0, 69, 0
3, 20544, Note_on_c, 0, 69, 72
3, 20592, Note_on_c, 0, 69, 0
3, 20592, Note_on_c, 0, 67, 72
3, 20640, Note_on_c, 0, 67, 0
3, 20640, Note_on_c, 0, 69, 72
3, 20688, Note_on_c, 0, 69, 0
3, 20688, Note_on_c, 0, 71, 72
3, 20736, Note_on_c, 0, 71, 0
3, 20736, Note_on_c, 0, 72, 72
3, 20832, Note_on_c, 0, 72, 0
3, 20832, Note_on_c, 0, 64, 72
3, 20928, Note_on_c, 0, 64, 0
3, 20928, Note_on_c, 0, 66, 72
3, 21024, Note_on_c, 0, 66, 0
3, 21024, Note_on_c, 0, 68, 72
3, 21120, Note_on_c, 0, 68, 0
3, 21120, Note_on_c, 0, 69, 72
3, 21216, Note_on_c, 0, 69, 0
3, 21216, Note_on_c, 0, 60, 72
3, 21312, Note_on_c, 0, 60, 0
3, 21312, Note_on_c, 0, 62, 72
3, 21408, Note_on_c, 0, 62, 0
3, 21408, Note_on_c, 0, 64, 72
3, 21504, Note_on_c, 0, 64, 0
3, 21504, Note_on_c, 0, 65, 72
3, 21600, Note_on_c, 0, 65, 0
3, 21600, Note_on_c, 0, 67, 72
3, 21696, Note_on_c, 0, 67, 0
3, 21696, Note_on_c, 0, 65, 72
3, 21792, Note_on_c, 0, 65, 0
3, 21792, Note_on_c, 0, 61, 72
3, 21888, Note_on_c, 0, 61, 0
3, 21888, Note_on_c, 0, 61, 72
3, 21984, Note_on_c, 0, 61, 0
3, 21984, Note_on_c, 0, 62, 72
3, 22080, Note_on_c, 0, 62, 0
3, 22272, Note_on_c, 0, 62, 88
3, 22656, Note_on_c, 0, 62, 0
3, 22656, Note_on_c, 0, 69, 88
3, 23040, Note_on_c, 0, 69, 0
3, 23040, Note_on_c, 0, 65, 88
3, 23424, Note_on_c, 0, 65, 0
3, 23424, Note_on_c, 0, 62, 88
3, 23808, Note_on_c, 0, 62, 0
3, 23808, Note_on_c, 0, 61, 88
3, 24192, Note_on_c, 0, 61, 0
3, 24192, Note_on_c, 0, 62, 88
3, 24384, Note_on_c, 0, 62, 0
3, 24384, Note_on_c, 0, 64, 88
3, 24576, Note_on_c, 0, 64, 0
3, 24576, Note_on_c, 0, 65, 88
3, 24960, Note_on_c, 0, 65, 0
3, 24960, Note_on_c, 0, 65, 88
3, 25056, Note_on_c, 0, 65, 0
3, 25056, Note_on_c, 0, 67, 88
3, 25152, Note_on_c, 0, 67, 0
3, 25152, Note_on_c, 0, 65, 88
3, 25248, Note_on_c, 0, 65, 0
3, 25248, Note_on_c, 0, 64, 88
3, 25344, Note_on_c, 0, 64, 0
3, 25344, Note_on_c, 0, 62, 88
3, 25392, Note_on_c, 0, 62, 0
3, 25392, Note_on_c, 0, 64, 72
3, 25440, Note_on_c, 0, 64, 0
3, 25440, Note_on_c, 0, 62, 72
3, 25488, Note_on_c, 0, 62, 0
3, 25488, Note_on_c, 0, 61, 72
3, 25536, Note_on_c, 0, 61, 0
3, 25536, Note_on_c, 0, 62, 72
3, 25584, Note_on_c, 0, 62, 0
3, 25584, Note_on_c, 0, 60, 72
3, 25632, Note_on_c, 0, 60, 0
3, 25632, Note_on_c, 0, 59, 72
3, 25680, Note_on_c, 0, 59, 0
3, 25680, Note_on_c, 0, 57, 72
3, 25728, Note_on_c, 0, 57, 0
3, 25728, Note_on_c, 0, 59, 72
3, 26112, Note_on_c, 0, 59, 0
3, 26112, Note_on_c, 0, 59, 72
3, 26160, Note_on_c, 0, 59, 0
3, 26160, Note_on_c, 0, 62, 72
3, 26208, Note_on_c, 0, 62, 0
3, 26208, Note_on_c, 0, 60, 72
3, 26256, Note_on_c, 0, 60, 0
3, 26256, Note_on_c, 0, 59, 72
3, 26304, Note_on_c, 0, 59, 0
3, 26304, Note_on_c, 0, 60, 72
3, 26352, Note_on_c, 0, 60, 0
3, 26352, Note_on_c, 0, 59, 72
3, 26400, Note_on_c, 0, 59, 0
3, 26400, Note_on_c, 0, 57, 72
3, 26448, Note_on_c, 0, 57, 0
3, 26448, Note_on_c, 0, 56, 72
3, 26496, Note_on_c, 0, 56, 0
3, 26496, Note_on_c, 0, 57, 72
3, 26592, Note_on_c, 0, 57, 0
3, 26928, Note_on_c, 0, 72, 72
3, 26976, Note_on_c, 0, 72, 0
3, 26976, Note_on_c, 0, 71, 72
3, 27024, Note_on_c, 0, 71, 0
3, 27024, Note_on_c, 0, 69, 72
3, 27072, Note_on_c, 0, 69, 0
3, 27072, Note_on_c, 0, 71, 72
3, 27120, Note_on_c, 0, 71, 0
3, 27120, Note_on_c, 0, 69, 72
3, 27168, Note_on_c, 0, 69, 0
3, 27168, Note_on_c, 0, 68, 72
3, 27216, Note_on_c, 0, 68, 0
3, 27216, Note_on_c, 0, 66, 72
3, 27264, Note_on_c, 0, 66, 0
3, 27264, Note_on_c, 0, 68, 72
3, 27360, Note_on_c, 0, 68, 0
3, 27744, Note_on_c, 0, 64, 88
3, 27792, Note_on_c, 0, 64, 0
3, 27840, Note_on_c, 0, 76, 88
3, 28032, Note_on_c, 0, 76, 0
3, 28032, Note_on_c, 0, 76, 88
3, 28128, Note_on_c, 0, 76, 0
3, 28128, Note_on_c, 0, 74, 88
3, 28176, Note_on_c, 0, 74, 0
3, 28176, Note_on_c, 0, 72, 88
3, 28224, Note_on_c, 0, 72, 0
3, 28224, Note_on_c, 0, 71, 88
3, 28272, Note_on_c, 0, 71, 0
3, 28272, Note_on_c, 0, 69, 88
3, 28320, Note_on_c, 0, 69, 0
3, 28320, Note_on_c, 0, 68, 88
3, 28368, Note_on_c, 0, 68, 0
3, 28368, Note_on_c, 0, 66, 88
3, 28416, Note_on_c, 0, 66, 0
3, 28416, Note_on_c, 0, 64, 88
3, 28464, Note_on_c, 0, 64, 0
3, 28464, Note_on_c, 0, 62, 88
3, 28512, Note_on_c, 0, 62, 0
3, 28512, Note_on_c, 0, 64, 88
3, 28560, Note_on_c, 0, 64, 0
3, 28560, Note_on_c, 0, 66, 88
3, 28608, Note_on_c, 0, 66, 0
3, 28608, Note_on_c, 0, 68, 88
3, 28656, Note_on_c, 0, 68, 0
3, 28656, Note_on_c, 0, 64, 88
3, 28704, Note_on_c, 0, 64, 0
3, 28704, Note_on_c, 0, 66, 88
3, 28752, Note_on_c, 0, 66, 0
3, 28752, Note_on_c, 0, 68, 88
3, 28800, Note_on_c, 0, 68, 0
3, 28800, Note_on_c, 0, 69, 88
3, 28848, Note_on_c, 0, 69, 0
3, 28848, Note_on_c, 0, 68, 88
3, 28896, Note_on_c, 0, 68, 0
3, 28896, Note_on_c, 0, 69, 88
3, 28944, Note_on_c, 0, 69, 0
3, 28944, Note_on_c, 0, 71, 88
3, 28992, Note_on_c, 0, 71, 0
3, 28992, Note_on_c, 0, 72, 88
3, 29040, Note_on_c, 0, 72, 0
3, 29040, Note_on_c, 0, 69, 88
3, 29088, Note_on_c, 0, 69, 0
3, 29088, Note_on_c, 0, 71, 88
3, 29136, Note_on_c, 0, 71, 0
3, 29136, Note_on_c, 0, 72, 88
3, 29184, Note_on_c, 0, 72, 0
3, 29184, Note_on_c, 0, 74, 88
3, 29208, Note_on_c, 0, 74, 0
3, 29208, Note_on_c, 0, 72, 88
3, 29232, Note_on_c, 0, 72, 0
3, 29232, Note_on_c, 0, 74, 88
3, 29256, Note_on_c, 0, 74, 0
3, 29256, Note_on_c, 0, 72, 88
3, 29280, Note_on_c, 0, 72, 0
3, 29280, Note_on_c, 0, 71, 88
3, 29376, Note_on_c, 0, 71, 0
3, 29424, Note_on_c, 0, 71, 88
3, 29472, Note_on_c, 0, 71, 0
3, 29472, Note_on_c, 0, 69, 88
3, 29520, Note_on_c, 0, 69, 0
3, 29520, Note_on_c, 0, 71, 88
3, 29568, Note_on_c, 0, 71, 0
3, 29568, Note_on_c, 0, 72, 88
3, 29616, Note_on_c, 0, 72, 0
3, 29616, Note_on_c, 0, 76, 88
3, 29664, Note_on_c, 0, 76, 0
3, 29664, Note_on_c, 0, 74, 88
3, 29712, Note_on_c, 0, 74, 0
3, 29712, Note_on_c, 0, 72, 88
3, 29760, Note_on_c, 0, 72, 0
3, 29760, Note_on_c, 0, 74, 88
3, 29808, Note_on_c, 0, 74, 0
3, 29808, Note_on_c, 0, 72, 88
3, 29856, Note_on_c, 0, 72, 0
3, 29856, Note_on_c, 0, 71, 88
3, 29904, Note_on_c, 0, 71, 0
3, 29904, Note_on_c, 0, 69, 88
3, 29952, Note_on_c, 0, 69, 0
3, 29952, Note_on_c, 0, 67, 88
3, 30000, Note_on_c, 0, 67, 0
3, 30000, Note_on_c, 0, 72, 88
3, 30048, Note_on_c, 0, 72, 0
3, 30048, Note_on_c, 0, 71, 88
3, 30096, Note_on_c, 0, 71, 0
3, 30096, Note_on_c, 0, 69, 88
3, 30144, Note_on_c, 0, 69, 0
3, 30144, Note_on_c, 0, 71, 88
3, 30192, Note_on_c, 0, 71, 0
3, 30192, Note_on_c, 0, 69, 88
3, 30240, Note_on_c, 0, 69, 0
3, 30240, Note_on_c, 0, 68, 88
3, 30288, Note_on_c, 0, 68, 0
3, 30288, Note_on_c, 0, 66, 88
3, 30336, Note_on_c, 0, 66, 0
3, 30336, Note_on_c, 0, 64, 88
3, 30432, Note_on_c, 0, 64, 0
3, 30432, Note_on_c, 0, 65, 88
3, 30528, Note_on_c, 0, 65, 0
3, 30528, Note_on_c, 0, 64, 88
3, 30720, Note_on_c, 0, 64, 0
3, 30720, Note_on_c, 0, 64, 88
3, 30816, Note_on_c, 0, 64, 0
3, 30816, Note_on_c, 0, 64, 72
3, 30912, Note_on_c, 0, 64, 0
3, 30912, Note_on_c, 0, 69, 72
3, 31008, Note_on_c, 0, 69, 0
3, 31008, Note_on_c, 0, 67, 72
3, 31104, Note_on_c, 0, 67, 0
3, 31104, Note_on_c, 0, 66, 72
3, 31200, Note_on_c, 0, 66, 0
3, 31584, Note_on_c, 0, 62, 72
3, 31680, Note_on_c, 0, 62, 0
3, 31680, Note_on_c, 0, 67, 72
3, 31776, Note_on_c, 0, 67, 0
3, 31776, Note_on_c, 0, 65, 72
3, 31872, Note_on_c, 0, 65, 0
3, 31872, Note_on_c, 0, 64, 72
3, 31968, Note_on_c, 0, 64, 0
3, 32304, Note_on_c, 0, 76, 72
3, 32352, Note_on_c, 0, 76, 0
3, 32352, Note_on_c, 0, 74, 72
3, 32400, Note_on_c, 0, 74, 0
3, 32400, Note_on_c, 0, 72, 72
3, 32448, Note_on_c, 0, 72, 0
3, 32448, Note_on_c, 0, 74, 72
3, 32496, Note_on_c, 0, 74, 0
3, 32496, Note_on_c, 0, 72, 72
3, 32544, Note_on_c, 0, 72, 0
3, 32544, Note_on_c, 0, 71, 72
3, 32592, Note_on_c, 0, 71, 0
3, 32592, Note_on_c, 0, 69, 72
3, 32640, Note_on_c, 0, 69, 0
3, 32640, Note_on_c, 0, 71, 72
3, 32688, Note_on_c, 0, 71, 0
3, 32688, Note_on_c, 0, 72, 72
3, 32736, Note_on_c, 0, 72, 0
3, 32736, Note_on_c, 0, 71, 72
3, 32784, Note_on_c, 0, 71, 0
3, 32784, Note_on_c, 0, 69, 72
3, 32832, Note_on_c, 0, 69, 0
3, 32832, Note_on_c, 0, 71, 72
3, 32880, Note_on_c, 0, 71, 0
3, 32880, Note_on_c, 0, 69, 72
3, 32928, Note_on_c, 0, 69, 0
3, 32928, Note_on_c, 0, 68, 72
3, 32976, Note_on_c, 0, 68, 0
3, 32976, Note_on_c, 0, 66, 72
3, 33024, Note_on_c, 0, 66, 0
3, 33024, Note_on_c, 0, 64, 72
3, 33408, Note_on_c, 0, 64, 0
3, 33408, Note_on_c, 0, 69, 72
3, 33792, Note_on_c, 0, 69, 0
3, 33792, Note_on_c, 0, 69, 72
3, 33888, Note_on_c, 0, 69, 0
3, 33888, Note_on_c, 0, 74, 72
3, 33936, Note_on_c, 0, 74, 0
3, 33936, Note_on_c, 0, 76, 72
3, 33984, Note_on_c, 0, 76, 0
3, 33984, Note_on_c, 0, 77, 72
3, 34080, Note_on_c, 0, 77, 0
3, 34080, Note_on_c, 0, 76, 72
3, 34128, Note_on_c, 0, 76, 0
3, 34128, Note_on_c, 0, 74, 72
3, 34176, Note_on_c, 0, 74, 0
3, 34176, Note_on_c, 0, 76, 72
3, 34272, Note_on_c, 0, 76, 0
3, 34800, Note_on_c, 0, 60, 72
3, 34848, Note_on_c, 0, 60, 0
3, 34848, Note_on_c, 0, 62, 72
3, 34896, Note_on_c, 0, 62, 0
3, 34896, Note_on_c, 0, 64, 72
3, 34944, Note_on_c, 0, 64, 0
3, 34944, Note_on_c, 0, 65, 72
3, 35040, Note_on_c, 0, 65, 0
3, 35184, Note_on_c, 0, 65, 72
3, 35232, Note_on_c, 0, 65, 0
3, 35232, Note_on_c, 0, 67, 72
3, 35280, Note_on_c, 0, 67, 0
3, 35280, Note_on_c, 0, 69, 72
3, 35328, Note_on_c, 0, 69, 0
3, 35328, Note_on_c, 0, 70, 72
3, 35376, Note_on_c, 0, 70, 0
3, 35376, Note_on_c, 0, 69, 72
3, 35424, Note_on_c, 0, 69, 0
3, 35424, Note_on_c, 0, 67, 72
3, 35472, Note_on_c, 0, 67, 0
3, 35472, Note_on_c, 0, 70, 72
3, 35520, Note_on_c, 0, 70, 0
3, 35520, Note_on_c, 0, 69, 72
3, 35712, Note_on_c, 0, 69, 0
3, 35712, Note_on_c, 0, 69, 72
3, 35808, Note_on_c, 0, 69, 0
3, 35808, Note_on_c, 0, 70, 72
3, 36000, Note_on_c, 0, 70, 0
3, 36000, Note_on_c, 0, 72, 72
3, 36048, Note_on_c, 0, 72, 0
3, 36048, Note_on_c, 0, 70, 72
3, 36096, Note_on_c, 0, 70, 0
3, 36096, Note_on_c, 0, 69, 72
3, 36192, Note_on_c, 0, 69, 0
3, 36192, Note_on_c, 0, 65, 72
3, 36288, Note_on_c, 0, 65, 0
3, 36288, Note_on_c, 0, 67, 72
3, 36384, Note_on_c, 0, 67, 0
3, 36384, Note_on_c, 0, 64, 72
3, 36480, Note_on_c, 0, 64, 0
3, 36480, Note_on_c, 0, 65, 72
3, 36576, Note_on_c, 0, 65, 0
3, 36768, Note_on_c, 0, 61, 72
3, 36864, Note_on_c, 0, 61, 0
3, 36864, Note_on_c, 0, 62, 72
3, 36960, Note_on_c, 0, 62, 0
3, 37728, Note_on_c, 0, 62, 88
3, 37776, Note_on_c, 0, 62, 0
3, 37824, Note_on_c, 0, 74, 88
3, 38016, Note_on_c, 0, 74, 0
3, 38016, Note_on_c, 0, 74, 88
3, 38112, Note_on_c, 0, 74, 0
3, 38112, Note_on_c, 0, 72, 88
3, 38160, Note_on_c, 0, 72, 0
3, 38160, Note_on_c, 0, 70, 88
3, 38208, Note_on_c, 0, 70, 0
3, 38208, Note_on_c, 0, 69, 88
3, 38256, Note_on_c, 0, 69, 0
3, 38256, Note_on_c, 0, 67, 88
3, 38304, Note_on_c, 0, 67, 0
3, 38304, Note_on_c, 0, 66, 88
3, 38352, Note_on_c, 0, 66, 0
3, 38352, Note_on_c, 0, 64, 88
3, 38400, Note_on_c, 0, 64, 0
3, 38400, Note_on_c, 0, 62, 88
3, 38448, Note_on_c, 0, 62, 0
3, 38448, Note_on_c, 0, 61, 88
3, 38496, Note_on_c, 0, 61, 0
3, 38496, Note_on_c, 0, 62, 88
3, 38544, Note_on_c, 0, 62, 0
3, 38544, Note_on_c, 0, 64, 88
3, 38592, Note_on_c, 0, 64, 0
3, 38592, Note_on_c, 0, 66, 88
3, 38640, Note_on_c, 0, 66, 0
3, 38640, Note_on_c, 0, 62, 88
3, 38688, Note_on_c, 0, 62, 0
3, 38688, Note_on_c, 0, 64, 88
3, 38736, Note_on_c, 0, 64, 0
3, 38736, Note_on_c, 0, 66, 88
3, 38784, Note_on_c, 0, 66, 0
3, 38784, Note_on_c, 0, 67, 88
3, 38832, Note_on_c, 0, 67, 0
3, 38832, Note_on_c, 0, 66, 88
3, 38880, Note_on_c, 0, 66, 0
3, 38880, Note_on_c, 0, 67, 88
3, 38928, Note_on_c, 0, 67, 0
3, 38928, Note_on_c, 0, 69, 88
3, 38976, Note_on_c, 0, 69, 0
3, 38976, Note_on_c, 0, 70, 88
3, 39024, Note_on_c, 0, 70, 0
3, 39024, Note_on_c, 0, 67, 88
3, 39072, Note_on_c, 0, 67, 0
3, 39072, Note_on_c, 0, 69, 88
3, 39120, Note_on_c, 0, 69, 0
3, 39120, Note_on_c, 0, 70, 88
3, 39168, Note_on_c, 0, 70, 0
3, 39168, Note_on_c, 0, 72, 88
3, 39192, Note_on_c, 0, 72, 0
3, 39192, Note_on_c, 0, 70, 88
3, 39216, Note_on_c, 0, 70, 0
3, 39216, Note_on_c, 0, 72, 88
3, 39240, Note_on_c, 0, 72, 0
3, 39240, Note_on_c, 0, 70, 88
3, 39264, Note_on_c, 0, 70, 0
3, 39264, Note_on_c, 0, 69, 88
3, 39360, Note_on_c, 0, 69, 0
3, 39408, Note_on_c, 0, 69, 88
3, 39456, Note_on_c, 0, 69, 0
3, 39456, Note_on_c, 0, 67, 88
3, 39504, Note_on_c, 0, 67, 0
3, 39504, Note_on_c, 0, 69, 88
3, 39552, Note_on_c, 0, 69, 0
3, 39552, Note_on_c, 0, 70, 88
3, 39600, Note_on_c, 0, 70, 0
3, 39600, Note_on_c, 0, 74, 88
3, 39648, Note_on_c, 0, 74, 0
3, 39648, Note_on_c, 0, 72, 88
3, 39696, Note_on_c, 0, 72, 0
3, 39696, Note_on_c, 0, 70, 88
3, 39744, Note_on_c, 0, 70, 0
3, 39744, Note_on_c, 0, 72, 88
3, 39792, Note_on_c, 0, 72, 0
3, 39792, Note_on_c, 0, 70, 88
3, 39840, Note_on_c, 0, 70, 0
3, 39840, Note_on_c, 0, 69, 88
3, 39888, Note_on_c, 0, 69, 0
3, 39888, Note_on_c, 0, 67, 88
3, 39936, Note_on_c, 0, 67, 0
3, 39936, Note_on_c, 0, 65, 88
3, 39984, Note_on_c, 0, 65, 0
3, 39984, Note_on_c, 0, 70, 88
3, 40032, Note_on_c, 0, 70, 0
3, 40032, Note_on_c, 0, 68, 88
3, 40080, Note_on_c, 0, 68, 0
3, 40080, Note_on_c, 0, 67, 88
3, 40128, Note_on_c, 0, 67, 0
3, 40128, Note_on_c, 0, 68, 88
3, 40176, Note_on_c, 0, 68, 0
3, 40176, Note_on_c, 0, 67, 88
3, 40224, Note_on_c, 0, 67, 0
3, 40224, Note_on_c, 0, 65, 88
3, 40272, Note_on_c, 0, 65, 0
3, 40272, Note_on_c, 0, 63, 88
3, 40320, Note_on_c, 0, 63, 0
3, 40320, Note_on_c, 0, 62, 88
3, 40512, Note_on_c, 0, 62, 0
3, 40512, Note_on_c, 0, 63, 72
3, 40608, Note_on_c, 0, 63, 0
3, 40608, Note_on_c, 0, 65, 72
3, 40704, Note_on_c, 0, 65, 0
3, 40704, Note_on_c, 0, 58, 72
3, 40800, Note_on_c, 0, 58, 0
3, 40800, Note_on_c, 0, 59, 72
3, 40896, Note_on_c, 0, 59, 0
3, 40896, Note_on_c, 0, 60, 72
3, 40992, Note_on_c, 0, 60, 0
3, 40992, Note_on_c, 0, 62, 72
3, 41088, Note_on_c, 0, 62, 0
3, 41088, Note_on_c, 0, 63, 72
3, 41472, Note_on_c, 0, 63, 0
3, 41472, Note_on_c, 0, 63, 72
3, 41520, Note_on_c, 0, 63, 0
3, 41520, Note_on_c, 0, 67, 72
3, 41568, Note_on_c, 0, 67, 0
3, 41568, Note_on_c, 0, 65, 72
3, 41616, Note_on_c, 0, 65, 0
3, 41616, Note_on_c, 0, 63, 72
3, 41664, Note_on_c, 0, 63, 0
3, 41664, Note_on_c, 0, 65, 72
3, 41712, Note_on_c, 0, 65, 0
3, 41712, Note_on_c, 0, 63, 72
3, 41760, Note_on_c, 0, 63, 0
3, 41760, Note_on_c, 0, 62, 72
3, 41808, Note_on_c, 0, 62, 0
3, 41808, Note_on_c, 0, 60, 72
3, 41856, Note_on_c, 0, 60, 0
3, 41856, Note_on_c, 0, 69, 72
3, 42240, Note_on_c, 0, 69, 0
3, 42240, Note_on_c, 0, 69, 72
3, 42288, Note_on_c, 0, 69, 0
3, 42288, Note_on_c, 0, 70, 72
3, 42336, Note_on_c, 0, 70, 0
3, 42336, Note_on_c, 0, 69, 72
3, 42384, Note_on_c, 0, 69, 0
3, 42384, Note_on_c, 0, 67, 72
3, 42432, Note_on_c, 0, 67, 0
3, 42432, Note_on_c, 0, 70, 72
3, 42480, Note_on_c, 0, 70, 0
3, 42480, Note_on_c, 0, 69, 72
3, 42528, Note_on_c, 0, 69, 0
3, 42528, Note_on_c, 0, 67, 72
3, 42576, Note_on_c, 0, 67, 0
3, 42576, Note_on_c, 0, 66, 72
3, 42624, Note_on_c, 0, 66, 0
3, 42624, Note_on_c, 0, 67, 72
3, 42720, Note_on_c, 0, 67, 0
3, 43440, Note_on_c, 0, 59, 72
3, 43488, Note_on_c, 0, 59, 0
3, 43488, Note_on_c, 0, 60, 72
3, 43536, Note_on_c, 0, 60, 0
3, 43536, Note_on_c, 0, 62, 72
3, 43584, Note_on_c, 0, 62, 0
3, 43584, Note_on_c, 0, 63, 72
3, 43632, Note_on_c, 0, 63, 0
3, 43632, Note_on_c, 0, 60, 72
3, 43680, Note_on_c, 0, 60, 0
3, 43680, Note_on_c, 0, 62, 72
3, 43728, Note_on_c, 0, 62, 0
3, 43728, Note_on_c, 0, 64, 72
3, 43776, Note_on_c, 0, 64, 0
3, 43776, Note_on_c, 0, 65, 72
3, 44160, Note_on_c, 0, 65, 0
3, 44160, Note_on_c, 0, 65, 72
3, 44352, Note_on_c, 0, 65, 0
3, 44352, Note_on_c, 0, 64, 72
3, 44544, Note_on_c, 0, 64, 0
3, 44544, Note_on_c, 0, 62, 72
3, 44688, Note_on_c, 0, 62, 0
3, 44688, Note_on_c, 0, 60, 72
3, 44736, Note_on_c, 0, 60, 0
3, 44736, Note_on_c, 0, 58, 72
3, 44928, Note_on_c, 0, 58, 0
3, 44928, Note_on_c, 0, 57, 72
3, 45024, Note_on_c, 0, 57, 0
3, 45312, Note_on_c, 0, 62, 88
3, 45696, Note_on_c, 0, 62, 0
3, 45696, Note_on_c, 0, 69, 88
3, 46080, Note_on_c, 0, 69, 0
3, 46080, Note_on_c, 0, 65, 88
3, 46464, Note_on_c, 0, 65, 0
3, 46464, Note_on_c, 0, 62, 88
3, 46848, Note_on_c, 0, 62, 0
3, 46848, Note_on_c, 0, 61, 88
3, 47232, Note_on_c, 0, 61, 0
3, 47232, Note_on_c, 0, 62, 88
3, 47424, Note_on_c, 0, 62, 0
3, 47424, Note_on_c, 0, 64, 88
3, 47616, Note_on_c, 0, 64, 0
3, 47616, Note_on_c, 0, 65, 88
3, 48000, Note_on_c, 0, 65, 0
3, 48000, Note_on_c, 0, 65, 88
3, 48096, Note_on_c, 0, 65, 0
3, 48096, Note_on_c, 0, 67, 88
3, 48192, Note_on_c, 0, 67, 0
3, 48192, Note_on_c, 0, 65, 88
3, 48288, Note_on_c, 0, 65, 0
3, 48288, Note_on_c, 0, 63, 88
3, 48384, Note_on_c, 0, 63, 0
3, 48384, Note_on_c, 0, 62, 88
3, 48576, Note_on_c, 0, 62, 0
3, 48672, Note_on_c, 0, 62, 88
3, 48768, Note_on_c, 0, 62, 0
3, 48768, Note_on_c, 0, 64, 88
3, 48864, Note_on_c, 0, 64, 0
3, 48864, Note_on_c, 0, 61, 88
3, 48912, Note_on_c, 0, 61, 0
3, 48912, Note_on_c, 0, 61, 88
3, 48960, Note_on_c, 0, 61, 0
3, 48960, Note_on_c, 0, 62, 88
3, 49152, Note_on_c, 0, 62, 0
3, 49152, Note_on_c, 0, 62, 88
3, 49296, Note_on_c, 0, 62, 0
3, 49296, Note_on_c, 0, 62, 88
3, 49344, Note_on_c, 0, 62, 0
3, 49344, Note_on_c, 0, 61, 88
3, 49488, Note_on_c, 0, 61, 0
3, 49488, Note_on_c, 0, 61, 88
3, 49536, Note_on_c, 0, 61, 0
3, 49536, Note_on_c, 0, 57, 88
3, 49920, Note_on_c, 0, 57, 0
3, 49920, End_track
4, 0, Start_track
4, 8160, Note_on_c, 0, 57, 88
4, 8208, Note_on_c, 0, 57, 0
4, 8256, Note_on_c, 0, 69, 88
4, 8448, Note_on_c, 0, 69, 0
4, 8448, Note_on_c, 0, 69, 88
4, 8544, Note_on_c, 0, 69, 0
4, 8544, Note_on_c, 0, 68, 88
4, 8592, Note_on_c, 0, 68, 0
4, 8592, Note_on_c, 0, 66, 88
4, 8640, Note_on_c, 0, 66, 0
4, 8640, Note_on_c, 0, 64, 88
4, 8688, Note_on_c, 0, 64, 0
4, 8688, Note_on_c, 0, 62, 88
4, 8736, Note_on_c, 0, 62, 0
4, 8736, Note_on_c, 0, 60, 88
4, 8784, Note_on_c, 0, 60, 0
4, 8784, Note_on_c, 0, 59, 88
4, 8832, Note_on_c, 0, 59, 0
4, 8832, Note_on_c, 0, 57, 88
4, 8880, Note_on_c, 0, 57, 0
4, 8880, Note_on_c, 0, 56, 88
4, 8928, Note_on_c, 0, 56, 0
4, 8928, Note_on_c, 0, 57, 88
4, 8976, Note_on_c, 0, 57, 0
4, 8976, Note_on_c, 0, 59, 88
4, 9024, Note_on_c, 0, 59, 0
4, 9024, Note_on_c, 0, 60, 88
4, 9072, Note_on_c, 0, 60, 0
4, 9072, Note_on_c, 0, 57, 88
4, 9120, Note_on_c, 0, 57, 0
4, 9120, Note_on_c, 0, 59, 88
4, 9168, Note_on_c, 0, 59, 0
4, 9168, Note_on_c, 0, 60, 88
4, 9216, Note_on_c, 0, 60, 0
4, 9216, Note_on_c, 0, 62, 88
4, 9264, Note_on_c, 0, 62, 0
4, 9264, Note_on_c, 0, 61, 88
4, 9312, Note_on_c, 0, 61, 0
4, 9312, Note_on_c, 0, 62, 88
4, 9360, Note_on_c, 0, 62, 0
4, 9360, Note_on_c, 0, 64, 88
4, 9408, Note_on_c, 0, 64, 0
4, 9408, Note_on_c, 0, 65, 88
4, 9456, Note_on_c, 0, 65, 0
4, 9456, Note_on_c, 0, 62, 88
4, 9504, Note_on_c, 0, 62, 0
4, 9504, Note_on_c, 0, 64, 88
4, 9552, Note_on_c, 0, 64, 0
4, 9552, Note_on_c, 0, 65, 88
4, 9600, Note_on_c, 0, 65, 0
4, 9600, Note_on_c, 0, 65, 88
4, 9696, Note_on_c, 0, 65, 0
4, 9696, Note_on_c, 0, 64, 88
4, 9792, Note_on_c, 0, 64, 0
4, 9840, Note_on_c, 0, 64, 88
4, 9888, Note_on_c, 0, 64, 0
4, 9888, Note_on_c, 0, 62, 88
4, 9936, Note_on_c, 0, 62, 0
4, 9936, Note_on_c, 0, 64, 88
4, 9984, Note_on_c, 0, 64, 0
4, 9984, Note_on_c, 0, 65, 88
4, 10032, Note_on_c, 0, 65, 0
4, 10032, Note_on_c, 0, 69, 88
4, 10080, Note_on_c, 0, 69, 0
4, 10080, Note_on_c, 0, 67, 88
4, 10128, Note_on_c, 0, 67, 0
4, 10128, Note_on_c, 0, 65, 88
4, 10176, Note_on_c, 0, 65, 0
4, 10176, Note_on_c, 0, 67, 88
4, 10224, Note_on_c, 0, 67, 0
4, 10224, Note_on_c, 0, 65, 88
4, 10272, Note_on_c, 0, 65, 0
4, 10272, Note_on_c, 0, 64, 88
4, 10320, Note_on_c, 0, 64, 0
4, 10320, Note_on_c, 0, 62, 88
4, 10368, Note_on_c, 0, 62, 0
4, 10368, Note_on_c, 0, 60, 88
4, 10416, Note_on_c, 0, 60, 0
4, 10416, Note_on_c, 0, 65, 88
4, 10464, Note_on_c, 0, 65, 0
4, 10464, Note_on_c, 0, 64, 88
4, 10512, Note_on_c, 0, 64, 0
4, 10512, Note_on_c, 0, 62, 88
4, 10560, Note_on_c, 0, 62, 0
4, 10560, Note_on_c, 0, 64, 88
4, 10608, Note_on_c, 0, 64, 0
4, 10608, Note_on_c, 0, 62, 88
4, 10656, Note_on_c, 0, 62, 0
4, 10656, Note_on_c, 0, 61, 88
4, 10704, Note_on_c, 0, 61, 0
4, 10704, Note_on_c, 0, 59, 88
4, 10752, Note_on_c, 0, 59, 0
4, 10752, Note_on_c, 0, 57, 88
4, 10848, Note_on_c, 0, 57, 0
4, 10848, Note_on_c, 0, 58, 72
4, 10896, Note_on_c, 0, 58, 0
4, 10896, Note_on_c, 0, 57, 72
4, 10944, Note_on_c, 0, 57, 0
4, 10944, Note_on_c, 0, 58, 72
4, 11136, Note_on_c, 0, 58, 0
4, 11136, Note_on_c, 0, 58, 72
4, 11232, Note_on_c, 0, 58, 0
4, 11232, Note_on_c, 0, 60, 72
4, 11280, Note_on_c, 0, 60, 0
4, 11280, Note_on_c, 0, 58, 72
4, 11328, Note_on_c, 0, 58, 0
4, 11328, Note_on_c, 0, 60, 72
4, 11520, Note_on_c, 0, 60, 0
4, 11520, Note_on_c, 0, 60, 72
4, 11616, Note_on_c, 0, 60, 0
4, 13152, Note_on_c, 0, 50, 88
4, 13248, Note_on_c, 0, 50, 0
4, 13248, Note_on_c, 0, 62, 88
4, 13440, Note_on_c, 0, 62, 0
4, 13440, Note_on_c, 0, 62, 88
4, 13536, Note_on_c, 0, 62, 0
4, 13536, Note_on_c, 0, 61, 88
4, 13584, Note_on_c, 0, 61, 0
4, 13584, Note_on_c, 0, 59, 88
4, 13632, Note_on_c, 0, 59, 0
4, 13632, Note_on_c, 0, 57, 88
4, 13680, Note_on_c, 0, 57, 0
4, 13680, Note_on_c, 0, 55, 88
4, 13728, Note_on_c, 0, 55, 0
4, 13728, Note_on_c, 0, 53, 88
4, 13776, Note_on_c, 0, 53, 0
4, 13776, Note_on_c, 0, 52, 88
4, 13824, Note_on_c, 0, 52, 0
4, 13824, Note_on_c, 0, 50, 88
4, 13872, Note_on_c, 0, 50, 0
4, 13872, Note_on_c, 0, 49, 88
4, 13920, Note_on_c, 0, 49, 0
4, 13920, Note_on_c, 0, 50, 88
4, 13968, Note_on_c, 0, 50, 0
4, 13968, Note_on_c, 0, 52, 88
4, 14016, Note_on_c, 0, 52, 0
4, 14016, Note_on_c, 0, 53, 88
4, 14064, Note_on_c, 0, 53, 0
4, 14064, Note_on_c, 0, 50, 88
4, 14112, Note_on_c, 0, 50, 0
4, 14112, Note_on_c, 0, 52, 88
4, 14160, Note_on_c, 0, 52, 0
4, 14160, Note_on_c, 0, 53, 88
4, 14208, Note_on_c, 0, 53, 0
4, 14208, Note_on_c, 0, 55, 88
4, 14256, Note_on_c, 0, 55, 0
4, 14256, Note_on_c, 0, 54, 88
4, 14304, Note_on_c, 0, 54, 0
4, 14304, Note_on_c, 0, 55, 88
4, 14352, Note_on_c, 0, 55, 0
4, 14352, Note_on_c, 0, 57, 88
4, 14400, Note_on_c, 0, 57, 0
4, 14400, Note_on_c, 0, 58, 88
4, 14448, Note_on_c, 0, 58, 0
4, 14448, Note_on_c, 0, 55, 88
4, 14496, Note_on_c, 0, 55, 0
4, 14496, Note_on_c, 0, 57, 88
4, 14544, Note_on_c, 0, 57, 0
4, 14544, Note_on_c, 0, 58, 88
4, 14592, Note_on_c, 0, 58, 0
4, 14592, Note_on_c, 0, 60, 88
4, 14616, Note_on_c, 0, 60, 0
4, 14616, Note_on_c, 0, 58, 88
4, 14640, Note_on_c, 0, 58, 0
4, 14640, Note_on_c, 0, 60, 88
4, 14664, Note_on_c, 0, 60, 0
4, 14664, Note_on_c, 0, 58, 88
4, 14688, Note_on_c, 0, 58, 0
4, 14688, Note_on_c, 0, 57, 88
4, 14784, Note_on_c, 0, 57, 0
4, 14832, Note_on_c, 0, 57, 88
4, 14880, Note_on_c, 0, 57, 0
4, 14880, Note_on_c, 0, 55, 88
4, 14928, Note_on_c, 0, 55, 0
4, 14928, Note_on_c, 0, 57, 88
4, 14976, Note_on_c, 0, 57, 0
4, 14976, Note_on_c, 0, 58, 88
4, 15024, Note_on_c, 0, 58, 0
4, 15024, Note_on_c, 0, 62, 88
4, 15072, Note_on_c, 0, 62, 0
4, 15072, Note_on_c, 0, 60, 88
4, 15120, Note_on_c, 0, 60, 0
4, 15120, Note_on_c, 0, 58, 88
4, 15168, Note_on_c, 0, 58, 0
4, 15168, Note_on_c, 0, 60, 88
4, 15216, Note_on_c, 0, 60, 0
4, 15216, Note_on_c, 0, 58, 88
4, 15264, Note_on_c, 0, 58, 0
4, 15264, Note_on_c, 0, 57, 88
4, 15312, Note_on_c, 0, 57, 0
4, 15312, Note_on_c, 0, 55, 88
4, 15360, Note_on_c, 0, 55, 0
4, 15360, Note_on_c, 0, 53, 88
4, 15408, Note_on_c, 0, 53, 0
4, 15408, Note_on_c, 0, 58, 88
4, 15456, Note_on_c, 0, 58, 0
4, 15456, Note_on_c, 0, 57, 88
4, 15504, Note_on_c, 0, 57, 0
4, 15504, Note_on_c, 0, 55, 88
4, 15552, Note_on_c, 0, 55, 0
4, 15552, Note_on_c, 0, 57, 88
4, 15600, Note_on_c, 0, 57, 0
4, 15600, Note_on_c, 0, 55, 88
4, 15648, Note_on_c, 0, 55, 0
4, 15648, Note_on_c, 0, 53, 88
4, 15696, Note_on_c, 0, 53, 0
4, 15696, Note_on_c, 0, 52, 88
4, 15744, Note_on_c, 0, 52, 0
4, 15744, Note_on_c, 0, 50, 88
4, 15936, Note_on_c, 0, 50, 0
4, 15984, Note_on_c, 0, 50, 72
4, 16032, Note_on_c, 0, 50, 0
4, 16032, Note_on_c, 0, 52, 72
4, 16080, Note_on_c, 0, 52, 0
4, 16080, Note_on_c, 0, 53, 72
4, 16128, Note_on_c, 0, 53, 0
4, 16128, Note_on_c, 0, 55, 72
4, 16176, Note_on_c, 0, 55, 0
4, 16176, Note_on_c, 0, 57, 72
4, 16224, Note_on_c, 0, 57, 0
4, 16224, Note_on_c, 0, 55, 72
4, 16272, Note_on_c, 0, 55, 0
4, 16272, Note_on_c, 0, 53, 72
4, 16320, Note_on_c, 0, 53, 0
4, 16320, Note_on_c, 0, 55, 72
4, 16368, Note_on_c, 0, 55, 0
4, 16368, Note_on_c, 0, 53, 72
4, 16416, Note_on_c, 0, 53, 0
4, 16416, Note_on_c, 0, 52, 72
4, 16464, Note_on_c, 0, 52, 0
4, 16464, Note_on_c, 0, 50, 72
4, 16512, Note_on_c, 0, 50, 0
4, 16512, Note_on_c, 0, 52, 72
4, 16560, Note_on_c, 0, 52, 0
4, 16560, Note_on_c, 0, 53, 72
4, 16608, Note_on_c, 0, 53, 0
4, 16608, Note_on_c, 0, 52, 72
4, 16656, Note_on_c, 0, 52, 0
4, 16656, Note_on_c, 0, 50, 72
4, 16704, Note_on_c, 0, 50, 0
4, 16704, Note_on_c, 0, 52, 72
4, 16752, Note_on_c, 0, 52, 0
4, 16752, Note_on_c, 0, 48, 72
4, 16800, Note_on_c, 0, 48, 0
4, 16800, Note_on_c, 0, 50, 72
4, 16848, Note_on_c, 0, 50, 0
4, 16848, Note_on_c, 0, 52, 72
4, 16896, Note_on_c, 0, 52, 0
4, 16896, Note_on_c, 0, 53, 88
4, 17280, Note_on_c, 0, 53, 0
4, 17280, Note_on_c, 0, 60, 88
4, 17664, Note_on_c, 0, 60, 0
4, 17664, Note_on_c, 0, 57, 88
4, 18048, Note_on_c, 0, 57, 0
4, 18048, Note_on_c, 0, 53, 88
4, 18432, Note_on_c, 0, 53, 0
4, 18432, Note_on_c, 0, 52, 88
4, 18816, Note_on_c, 0, 52, 0
4, 18816, Note_on_c, 0, 53, 88
4, 19008, Note_on_c, 0, 53, 0
4, 19008, Note_on_c, 0, 55, 88
4, 19200, Note_on_c, 0, 55, 0
4, 19200, Note_on_c, 0, 57, 88
4, 19584, Note_on_c, 0, 57, 0
4, 19584, Note_on_c, 0, 57, 88
4, 19680, Note_on_c, 0, 57, 0
4, 19680, Note_on_c, 0, 58, 88
4, 19776, Note_on_c, 0, 58, 0
4, 19776, Note_on_c, 0, 57, 88
4, 19872, Note_on_c, 0, 57, 0
4, 19872, Note_on_c, 0, 55, 88
4, 19968, Note_on_c, 0, 55, 0
4, 19968, Note_on_c, 0, 53, 88
4, 20064, Note_on_c, 0, 53, 0
4, 20064, Note_on_c, 0, 62, 72
4, 20160, Note_on_c, 0, 62, 0
4, 20160, Note_on_c, 0, 60, 72
4, 20256, Note_on_c, 0, 60, 0
4, 20256, Note_on_c, 0, 59, 72
4, 20352, Note_on_c, 0, 59, 0
4, 20352, Note_on_c, 0, 57, 72
4, 20448, Note_on_c, 0, 57, 0
4, 20448, Note_on_c, 0, 65, 72
4, 20544, Note_on_c, 0, 65, 0
4, 20544, Note_on_c, 0, 64, 72
4, 20640, Note_on_c, 0, 64, 0
4, 20640, Note_on_c, 0, 62, 72
4, 20736, Note_on_c, 0, 62, 0
4, 20736, Note_on_c, 0, 60, 72
4, 20928, Note_on_c, 0, 60, 0
4, 20928, Note_on_c, 0, 59, 72
4, 21120, Note_on_c, 0, 59, 0
4, 21120, Note_on_c, 0, 57, 72
4, 21312, Note_on_c, 0, 57, 0
4, 21312, Note_on_c, 0, 55, 72
4, 21504, Note_on_c, 0, 55, 0
4, 21504, Note_on_c, 0, 53, 72
4, 21552, Note_on_c, 0, 53, 0
4, 21552, Note_on_c, 0, 58, 72
4, 21600, Note_on_c, 0, 58, 0
4, 21600, Note_on_c, 0, 57, 72
4, 21648, Note_on_c, 0, 57, 0
4, 21648, Note_on_c, 0, 55, 72
4, 21696, Note_on_c, 0, 55, 0
4, 21696, Note_on_c, 0, 57, 72
4, 21744, Note_on_c, 0, 57, 0
4, 21744, Note_on_c, 0, 55, 72
4, 21792, Note_on_c, 0, 55, 0
4, 21792, Note_on_c, 0, 53, 72
4, 21840, Note_on_c, 0, 53, 0
4, 21840, Note_on_c, 0, 52, 72
4, 21888, Note_on_c, 0, 52, 0
4, 21888, Note_on_c, 0, 53, 72
4, 21936, Note_on_c, 0, 53, 0
4, 21936, Note_on_c, 0, 55, 72
4, 21984, Note_on_c, 0, 55, 0
4, 21984, Note_on_c, 0, 53, 72
4, 22032, Note_on_c, 0, 53, 0
4, 22032, Note_on_c, 0, 52, 72
4, 22080, Note_on_c, 0, 52, 0
4, 22080, Note_on_c, 0, 53, 72
4, 22128, Note_on_c, 0, 53, 0
4, 22128, Note_on_c, 0, 52, 72
4, 22176, Note_on_c, 0, 52, 0
4, 22176, Note_on_c, 0, 50, 72
4, 22224, Note_on_c, 0, 50, 0
4, 22224, Note_on_c, 0, 49, 72
4, 22272, Note_on_c, 0, 49, 0
4, 22272, Note_on_c, 0, 50, 72
4, 22464, Note_on_c, 0, 50, 0
4, 27648, Note_on_c, 0, 57, 88
4, 28032, Note_on_c, 0, 57, 0
4, 28032, Note_on_c, 0, 64, 88
4, 28416, Note_on_c, 0, 64, 0
4, 28416, Note_on_c, 0, 60, 88
4, 28800, Note_on_c, 0, 60, 0
4, 28800, Note_on_c, 0, 57, 88
4, 29184, Note_on_c, 0, 57, 0
4, 29184, Note_on_c, 0, 56, 88
4, 29568, Note_on_c, 0, 56, 0
4, 29568, Note_on_c, 0, 57, 88
4, 29760, Note_on_c, 0, 57, 0
4, 29760, Note_on_c, 0, 59, 88
4, 29952, Note_on_c, 0, 59, 0
4, 29952, Note_on_c, 0, 60, 88
4, 30336, Note_on_c, 0, 60, 0
4, 30336, Note_on_c, 0, 60, 88
4, 30432, Note_on_c, 0, 60, 0
4, 30432, Note_on_c, 0, 62, 88
4, 30528, Note_on_c, 0, 62, 0
4, 30528, Note_on_c, 0, 60, 88
4, 30624, Note_on_c, 0, 60, 0
4, 30624, Note_on_c, 0, 59, 88
4, 30720, Note_on_c, 0, 59, 0
4, 30720, Note_on_c, 0, 57, 88
4, 30768, Note_on_c, 0, 57, 0
4, 30768, Note_on_c, 0, 56, 72
4, 30816, Note_on_c, 0, 56, 0
4, 30816, Note_on_c, 0, 57, 72
4, 30864, Note_on_c, 0, 57, 0
4, 30864, Note_on_c, 0, 59, 72
4, 30912, Note_on_c, 0, 59, 0
4, 30912, Note_on_c, 0, 60, 72
4, 30960, Note_on_c, 0, 60, 0
4, 30960, Note_on_c, 0, 57, 72
4, 31008, Note_on_c, 0, 57, 0
4, 31008, Note_on_c, 0, 59, 72
4, 31056, Note_on_c, 0, 59, 0
4, 31056, Note_on_c, 0, 60, 72
4, 31104, Note_on_c, 0, 60, 0
4, 31104, Note_on_c, 0, 62, 72
4, 31152, Note_on_c, 0, 62, 0
4, 31152, Note_on_c, 0, 61, 72
4, 31200, Note_on_c, 0, 61, 0
4, 31200, Note_on_c, 0, 62, 72
4, 31248, Note_on_c, 0, 62, 0
4, 31248, Note_on_c, 0, 64, 72
4, 31296, Note_on_c, 0, 64, 0
4, 31296, Note_on_c, 0, 66, 72
4, 31344, Note_on_c, 0, 66, 0
4, 31344, Note_on_c, 0, 62, 72
4, 31392, Note_on_c, 0, 62, 0
4, 31392, Note_on_c, 0, 64, 72
4, 31440, Note_on_c, 0, 64, 0
4, 31440, Note_on_c, 0, 66, 72
4, 31488, Note_on_c, 0, 66, 0
4, 31488, Note_on_c, 0, 55, 72
4, 31536, Note_on_c, 0, 55, 0
4, 31536, Note_on_c, 0, 54, 72
4, 31584, Note_on_c, 0, 54, 0
4, 31584, Note_on_c, 0, 55, 72
4, 31632, Note_on_c, 0, 55, 0
4, 31632, Note_on_c, 0, 57, 72
4, 31680, Note_on_c, 0, 57, 0
4, 31680, Note_on_c, 0, 59, 72
4, 31728, Note_on_c, 0, 59, 0
4, 31728, Note_on_c, 0, 55, 72
4, 31776, Note_on_c, 0, 55, 0
4, 31776, Note_on_c, 0, 57, 72
4, 31824, Note_on_c, 0, 57, 0
4, 31824, Note_on_c, 0, 59, 72
4, 31872, Note_on_c, 0, 59, 0
4, 31872, Note_on_c, 0, 60, 72
4, 31920, Note_on_c, 0, 60, 0
4, 31920, Note_on_c, 0, 59, 72
4, 31968, Note_on_c, 0, 59, 0
4, 31968, Note_on_c, 0, 60, 72
4, 32016, Note_on_c, 0, 60, 0
4, 32016, Note_on_c, 0, 62, 72
4, 32064, Note_on_c, 0, 62, 0
4, 32064, Note_on_c, 0, 64, 72
4, 32112, Note_on_c, 0, 64, 0
4, 32112, Note_on_c, 0, 60, 72
4, 32160, Note_on_c, 0, 60, 0
4, 32160, Note_on_c, 0, 62, 72
4, 32208, Note_on_c, 0, 62, 0
4, 32208, Note_on_c, 0, 64, 72
4, 32256, Note_on_c, 0, 64, 0
4, 32256, Note_on_c, 0, 53, 72
4, 32352, Note_on_c, 0, 53, 0
4, 32352, Note_on_c, 0, 52, 72
4, 32448, Note_on_c, 0, 52, 0
4, 32448, Note_on_c, 0, 54, 72
4, 32544, Note_on_c, 0, 54, 0
4, 32544, Note_on_c, 0, 50, 72
4, 32640, Note_on_c, 0, 50, 0
4, 32640, Note_on_c, 0, 55, 72
4, 32736, Note_on_c, 0, 55, 0
4, 32736, Note_on_c, 0, 54, 72
4, 32832, Note_on_c, 0, 54, 0
4, 32832, Note_on_c, 0, 56, 72
4, 32928, Note_on_c, 0, 56, 0
4, 32928, Note_on_c, 0, 52, 72
4, 33024, Note_on_c, 0, 52, 0
4, 33024, Note_on_c, 0, 57, 72
4, 33120, Note_on_c, 0, 57, 0
4, 33120, Note_on_c, 0, 58, 72
4, 33168, Note_on_c, 0, 58, 0
4, 33168, Note_on_c, 0, 57, 72
4, 33216, Note_on_c, 0, 57, 0
4, 33216, Note_on_c, 0, 58, 72
4, 33312, Note_on_c, 0, 58, 0
4, 33312, Note_on_c, 0, 55, 72
4, 33408, Note_on_c, 0, 55, 0
4, 33408, Note_on_c, 0, 55, 72
4, 33456, Note_on_c, 0, 55, 0
4, 33456, Note_on_c, 0, 67, 72
4, 33504, Note_on_c, 0, 67, 0
4, 33504, Note_on_c, 0, 65, 72
4, 33552, Note_on_c, 0, 65, 0
4, 33552, Note_on_c, 0, 64, 72
4, 33600, Note_on_c, 0, 64, 0
4, 33600, Note_on_c, 0, 65, 72
4, 33648, Note_on_c, 0, 65, 0
4, 33648, Note_on_c, 0, 64, 72
4, 33696, Note_on_c, 0, 64, 0
4, 33696, Note_on_c, 0, 62, 72
4, 33744, Note_on_c, 0, 62, 0
4, 33744, Note_on_c, 0, 61, 72
4, 33792, Note_on_c, 0, 61, 0
4, 33792, Note_on_c, 0, 65, 72
4, 33840, Note_on_c, 0, 65, 0
4, 33840, Note_on_c, 0, 52, 72
4, 33888, Note_on_c, 0, 52, 0
4, 33888, Note_on_c, 0, 53, 72
4, 33936, Note_on_c, 0, 53, 0
4, 33936, Note_on_c, 0, 55, 72
4, 33984, Note_on_c, 0, 55, 0
4, 33984, Note_on_c, 0, 57, 72
4, 34032, Note_on_c, 0, 57, 0
4, 34032, Note_on_c, 0, 55, 72
4, 34080, Note_on_c, 0, 55, 0
4, 34080, Note_on_c, 0, 57, 72
4, 34128, Note_on_c, 0, 57, 0
4, 34128, Note_on_c, 0, 59, 72
4, 34176, Note_on_c, 0, 59, 0
4, 34176, Note_on_c, 0, 61, 72
4, 34224, Note_on_c, 0, 61, 0
4, 34224, Note_on_c, 0, 59, 72
4, 34272, Note_on_c, 0, 59, 0
4, 34272, Note_on_c, 0, 61, 72
4, 34320, Note_on_c, 0, 61, 0
4, 34320, Note_on_c, 0, 62, 72
4, 34368, Note_on_c, 0, 62, 0
4, 34368, Note_on_c, 0, 61, 72
4, 34416, Note_on_c, 0, 61, 0
4, 34416, Note_on_c, 0, 62, 72
4, 34464, Note_on_c, 0, 62, 0
4, 34464, Note_on_c, 0, 64, 72
4, 34560, Note_on_c, 0, 64, 0
4, 34560, Note_on_c, 0, 64, 72
4, 34656, Note_on_c, 0, 64, 0
4, 34656, Note_on_c, 0, 62, 72
4, 34752, Note_on_c, 0, 62, 0
4, 34752, Note_on_c, 0, 57, 72
4, 34944, Note_on_c, 0, 57, 0
4, 34944, Note_on_c, 0, 57, 72
4, 35040, Note_on_c, 0, 57, 0
4, 35040, Note_on_c, 0, 53, 72
4, 35136, Note_on_c, 0, 53, 0
4, 35136, Note_on_c, 0, 58, 72
4, 35232, Note_on_c, 0, 58, 0
4, 35232, Note_on_c, 0, 62, 72
4, 35328, Note_on_c, 0, 62, 0
4, 35328, Note_on_c, 0, 55, 72
4, 35424, Note_on_c, 0, 55, 0
4, 35424, Note_on_c, 0, 58, 72
4, 35520, Note_on_c, 0, 58, 0
4, 35520, Note_on_c, 0, 52, 72
4, 35568, Note_on_c, 0, 52, 0
4, 35568, Note_on_c, 0, 55, 72
4, 35616, Note_on_c, 0, 55, 0
4, 35616, Note_on_c, 0, 53, 72
4, 35664, Note_on_c, 0, 53, 0
4, 35664, Note_on_c, 0, 52, 72
4, 35712, Note_on_c, 0, 52, 0
4, 35712, Note_on_c, 0, 50, 72
4, 35808, Note_on_c, 0, 50, 0
4, 36192, Note_on_c, 0, 57, 72
4, 36288, Note_on_c, 0, 57, 0
4, 36288, Note_on_c, 0, 58, 72
4, 36480, Note_on_c, 0, 58, 0
4, 36480, Note_on_c, 0, 60, 72
4, 36576, Note_on_c, 0, 60, 0
4, 36768, Note_on_c, 0, 55, 72
4, 36864, Note_on_c, 0, 55, 0
4, 36864, Note_on_c, 0, 57, 72
4, 36960, Note_on_c, 0, 57, 0
4, 36960, Note_on_c, 0, 52, 72
4, 37056, Note_on_c, 0, 52, 0
4, 37056, Note_on_c, 0, 53, 72
4, 37152, Note_on_c, 0, 53, 0
4, 37152, Note_on_c, 0, 57, 72
4, 37248, Note_on_c, 0, 57, 0
4, 37248, Note_on_c, 0, 58, 72
4, 37296, Note_on_c, 0, 58, 0
4, 37296, Note_on_c, 0, 60, 72
4, 37344, Note_on_c, 0, 60, 0
4, 37344, Note_on_c, 0, 58, 72
4, 37392, Note_on_c, 0, 58, 0
4, 37392, Note_on_c, 0, 57, 72
4, 37440, Note_on_c, 0, 57, 0
4, 37440, Note_on_c, 0, 58, 72
4, 37488, Note_on_c, 0, 58, 0
4, 37488, Note_on_c, 0, 57, 72
4, 37536, Note_on_c, 0, 57, 0
4, 37536, Note_on_c, 0, 55, 72
4, 37584, Note_on_c, 0, 55, 0
4, 37584, Note_on_c, 0, 54, 72
4, 37632, Note_on_c, 0, 54, 0
4, 37632, Note_on_c, 0, 55, 88
4, 38016, Note_on_c, 0, 55, 0
4, 38016, Note_on_c, 0, 62, 88
4, 38400, Note_on_c, 0, 62, 0
4, 38400, Note_on_c, 0, 58, 88
4, 38784, Note_on_c, 0, 58, 0
4, 38784, Note_on_c, 0, 55, 88
4, 39168, Note_on_c, 0, 55, 0
4, 39168, Note_on_c, 0, 54, 88
4, 39552, Note_on_c, 0, 54, 0
4, 39552, Note_on_c, 0, 55, 88
4, 39744, Note_on_c, 0, 55, 0
4, 39744, Note_on_c, 0, 57, 88
4, 39936, Note_on_c, 0, 57, 0
4, 39936, Note_on_c, 0, 58, 88
4, 40320, Note_on_c, 0, 58, 0
4, 40320, Note_on_c, 0, 58, 88
4, 40416, Note_on_c, 0, 58, 0
4, 40416, Note_on_c, 0, 60, 88
4, 40512, Note_on_c, 0, 60, 0
4, 40512, Note_on_c, 0, 58, 88
4, 40608, Note_on_c, 0, 58, 0
4, 40608, Note_on_c, 0, 56, 88
4, 40704, Note_on_c, 0, 56, 0
4, 40704, Note_on_c, 0, 55, 88
4, 41088, Note_on_c, 0, 55, 0
4, 41088, Note_on_c, 0, 55, 72
4, 41184, Note_on_c, 0, 55, 0
4, 41184, Note_on_c, 0, 55, 72
4, 41280, Note_on_c, 0, 55, 0
4, 41280, Note_on_c, 0, 57, 72
4, 41376, Note_on_c, 0, 57, 0
4, 41376, Note_on_c, 0, 58, 72
4, 41472, Note_on_c, 0, 58, 0
4, 41472, Note_on_c, 0, 60, 72
4, 41856, Note_on_c, 0, 60, 0
4, 41856, Note_on_c, 0, 60, 72
4, 41904, Note_on_c, 0, 60, 0
4, 41904, Note_on_c, 0, 63, 72
4, 41952, Note_on_c, 0, 63, 0
4, 41952, Note_on_c, 0, 62, 72
4, 42000, Note_on_c, 0, 62, 0
4, 42000, Note_on_c, 0, 60, 72
4, 42048, Note_on_c, 0, 60, 0
4, 42048, Note_on_c, 0, 62, 72
4, 42096, Note_on_c, 0, 62, 0
4, 42096, Note_on_c, 0, 60, 72
4, 42144, Note_on_c, 0, 60, 0
4, 42144, Note_on_c, 0, 58, 72
4, 42192, Note_on_c, 0, 58, 0
4, 42192, Note_on_c, 0, 57, 72
4, 42240, Note_on_c, 0, 57, 0
4, 42240, Note_on_c, 0, 58, 72
4, 42432, Note_on_c, 0, 58, 0
4, 42432, Note_on_c, 0, 60, 72
4, 42528, Note_on_c, 0, 60, 0
4, 42528, Note_on_c, 0, 57, 72
4, 42624, Note_on_c, 0, 57, 0
4, 42624, Note_on_c, 0, 58, 72
4, 42720, Note_on_c, 0, 58, 0
4, 42720, Note_on_c, 0, 60, 72
4, 42816, Note_on_c, 0, 60, 0
4, 42816, Note_on_c, 0, 58, 72
4, 42912, Note_on_c, 0, 58, 0
4, 42912, Note_on_c, 0, 57, 72
4, 43008, Note_on_c, 0, 57, 0
4, 43008, Note_on_c, 0, 55, 72
4, 43200, Note_on_c, 0, 55, 0
4, 43200, Note_on_c, 0, 57, 72
4, 43296, Note_on_c, 0, 57, 0
4, 43296, Note_on_c, 0, 59, 72
4, 43392, Note_on_c, 0, 59, 0
4, 43392, Note_on_c, 0, 60, 72
4, 43488, Note_on_c, 0, 60, 0
4, 44208, Note_on_c, 0, 60, 72
4, 44256, Note_on_c, 0, 60, 0
4, 44256, Note_on_c, 0, 58, 72
4, 44304, Note_on_c, 0, 58, 0
4, 44304, Note_on_c, 0, 57, 72
4, 44352, Note_on_c, 0, 57, 0
4, 44352, Note_on_c, 0, 55, 72
4, 44400, Note_on_c, 0, 55, 0
4, 44400, Note_on_c, 0, 58, 72
4, 44448, Note_on_c, 0, 58, 0
4, 44448, Note_on_c, 0, 57, 72
4, 44496, Note_on_c, 0, 57, 0
4, 44496, Note_on_c, 0, 55, 72
4, 44544, Note_on_c, 0, 55, 0
4, 44544, Note_on_c, 0, 53, 72
4, 44640, Note_on_c, 0, 53, 0
4, 45408, Note_on_c, 0, 50, 88
4, 45456, Note_on_c, 0, 50, 0
4, 45504, Note_on_c, 0, 62, 88
4, 45696, Note_on_c, 0, 62, 0
4, 45696, Note_on_c, 0, 62, 88
4, 45792, Note_on_c, 0, 62, 0
4, 45792, Note_on_c, 0, 61, 88
4, 45840, Note_on_c, 0, 61, 0
4, 45840, Note_on_c, 0, 59, 88
4, 45888, Note_on_c, 0, 59, 0
4, 45888, Note_on_c, 0, 57, 88
4, 45936, Note_on_c, 0, 57, 0
4, 45936, Note_on_c, 0, 55, 88
4, 45984, Note_on_c, 0, 55, 0
4, 45984, Note_on_c, 0, 53, 88
4, 46032, Note_on_c, 0, 53, 0
4, 46032, Note_on_c, 0, 52, 88
4, 46080, Note_on_c, 0, 52, 0
4, 46080, Note_on_c, 0, 50, 88
4, 46128, Note_on_c, 0, 50, 0
4, 46128, Note_on_c, 0, 49, 88
4, 46176, Note_on_c, 0, 49, 0
4, 46176, Note_on_c, 0, 50, 88
4, 46224, Note_on_c, 0, 50, 0
4, 46224, Note_on_c, 0, 52, 88
4, 46272, Note_on_c, 0, 52, 0
4, 46272, Note_on_c, 0, 53, 88
4, 46320, Note_on_c, 0, 53, 0
4, 46320, Note_on_c, 0, 50, 88
4, 46368, Note_on_c, 0, 50, 0
4, 46368, Note_on_c, 0, 52, 88
4, 46416, Note_on_c, 0, 52, 0
4, 46416, Note_on_c, 0, 53, 88
4, 46464, Note_on_c, 0, 53, 0
4, 46464, Note_on_c, 0, 55, 88
4, 46512, Note_on_c, 0, 55, 0
4, 46512, Note_on_c, 0, 54, 88
4, 46560, Note_on_c, 0, 54, 0
4, 46560, Note_on_c, 0, 55, 88
4, 46608, Note_on_c, 0, 55, 0
4, 46608, Note_on_c, 0, 57, 88
4, 46656, Note_on_c, 0, 57, 0
4, 46656, Note_on_c, 0, 58, 88
4, 46704, Note_on_c, 0, 58, 0
4, 46704, Note_on_c, 0, 55, 88
4, 46752, Note_on_c, 0, 55, 0
4, 46752, Note_on_c, 0, 57, 88
4, 46800, Note_on_c, 0, 57, 0
4, 46800, Note_on_c, 0, 58, 88
4, 46848, Note_on_c, 0, 58, 0
4, 46848, Note_on_c, 0, 60, 88
4, 46872, Note_on_c, 0, 60, 0
4, 46872, Note_on_c, 0, 58, 88
4, 46896, Note_on_c, 0, 58, 0
4, 46896, Note_on_c, 0, 60, 88
4, 46920, Note_on_c, 0, 60, 0
4, 46920, Note_on_c, 0, 58, 88
4, 46944, Note_on_c, 0, 58, 0
4, 46944, Note_on_c, 0, 57, 88
4, 47040, Note_on_c, 0, 57, 0
4, 47088, Note_on_c, 0, 57, 88
4, 47136, Note_on_c, 0, 57, 0
4, 47136, Note_on_c, 0, 55, 88
4, 47184, Note_on_c, 0, 55, 0
4, 47184, Note_on_c, 0, 57, 88
4, 47232, Note_on_c, 0, 57, 0
4, 47232, Note_on_c, 0, 58, 88
4, 47280, Note_on_c, 0, 58, 0
4, 47280, Note_on_c, 0, 62, 88
4, 47328, Note_on_c, 0, 62, 0
4, 47328, Note_on_c, 0, 60, 88
4, 47376, Note_on_c, 0, 60, 0
4, 47376, Note_on_c, 0, 58, 88
4, 47424, Note_on_c, 0, 58, 0
4, 47424, Note_on_c, 0, 60, 88
4, 47472, Note_on_c, 0, 60, 0
4, 47472, Note_on_c, 0, 58, 88
4, 47520, Note_on_c, 0, 58, 0
4, 47520, Note_on_c, 0, 57, 88
4, 47568, Note_on_c, 0, 57, 0
4, 47568, Note_on_c, 0, 55, 88
4, 47616, Note_on_c, 0, 55, 0
4, 47616, Note_on_c, 0, 53, 88
4, 47664, Note_on_c, 0, 53, 0
4, 47664, Note_on_c, 0, 58, 88
4, 47712, Note_on_c, 0, 58, 0
4, 47712, Note_on_c, 0, 57, 88
4, 47760, Note_on_c, 0, 57, 0
4, 47760, Note_on_c, 0, 55, 88
4, 47808, Note_on_c, 0, 55, 0
4, 47808, Note_on_c, 0, 57, 88
4, 47856, Note_on_c, 0, 57, 0
4, 47856, Note_on_c, 0, 55, 88
4, 47904, Note_on_c, 0, 55, 0
4, 47904, Note_on_c, 0, 53, 88
4, 47952, Note_on_c, 0, 53, 0
4, 47952, Note_on_c, 0, 52, 88
4, 48000, Note_on_c, 0, 52, 0
4, 48000, Note_on_c, 0, 50, 88
4, 48192, Note_on_c, 0, 50, 0
4, 48288, Note_on_c, 0, 57, 88
4, 48384, Note_on_c, 0, 57, 0
4, 48384, Note_on_c, 0, 58, 88
4, 48576, Note_on_c, 0, 58, 0
4, 48672, Note_on_c, 0, 58, 88
4, 48768, Note_on_c, 0, 58, 0
4, 48768, Note_on_c, 0, 49, 88
4, 48864, Note_on_c, 0, 49, 0
4, 48864, Note_on_c, 0, 55, 88
4, 48912, Note_on_c, 0, 55, 0
4, 48912, Note_on_c, 0, 55, 88
4, 48960, Note_on_c, 0, 55, 0
4, 48960, Note_on_c, 0, 53, 88
4, 49056, Note_on_c, 0, 53, 0
4, 49056, Note_on_c, 0, 58, 88
4, 49152, Note_on_c, 0, 58, 0
4, 49152, Note_on_c, 0, 57, 88
4, 49296, Note_on_c, 0, 57, 0
4, 49296, Note_on_c, 0, 57, 88
4, 49440, Note_on_c, 0, 57, 0
4, 49440, Note_on_c, 0, 55, 88
4, 49488, Note_on_c, 0, 55, 0
4, 49488, Note_on_c, 0, 55, 88
4, 49536, Note_on_c, 0, 55, 0
4, 49536, Note_on_c, 0, 54, 88
4, 49920, Note_on_c, 0, 54, 0
4, 49920, End_track
5, 0, Start_track
5, 5472, Note_on_c, 0, 50, 88
5, 5520, Note_on_c, 0, 50, 0
5, 5568, Note_on_c, 0, 62, 88
5, 5760, Note_on_c, 0, 62, 0
5, 5760, Note_on_c, 0, 62, 88
5, 5856, Note_on_c, 0, 62, 0
5, 5856, Note_on_c, 0, 61, 88
5, 5904, Note_on_c, 0, 61, 0
5, 5904, Note_on_c, 0, 59, 88
5, 5952, Note_on_c, 0, 59, 0
5, 5952, Note_on_c, 0, 57, 88
5, 6000, Note_on_c, 0, 57, 0
5, 6000, Note_on_c, 0, 55, 88
5, 6048, Note_on_c, 0, 55, 0
5, 6048, Note_on_c, 0, 53, 88
5, 6096, Note_on_c, 0, 53, 0
5, 6096, Note_on_c, 0, 52, 88
5, 6144, Note_on_c, 0, 52, 0
5, 6144, Note_on_c, 0, 50, 88
5, 6192, Note_on_c, 0, 50, 0
5, 6192, Note_on_c, 0, 49, 88
5, 6240, Note_on_c, 0, 49, 0
5, 6240, Note_on_c, 0, 50, 88
5, 6288, Note_on_c, 0, 50, 0
5, 6288, Note_on_c, 0, 52, 88
5, 6336, Note_on_c, 0, 52, 0
5, 6336, Note_on_c, 0, 53, 88
5, 6384, Note_on_c, 0, 53, 0
5, 6384, Note_on_c, 0, 50, 88
5, 6432, Note_on_c, 0, 50, 0
5, 6432, Note_on_c, 0, 52, 88
5, 6480, Note_on_c, 0, 52, 0
5, 6480, Note_on_c, 0, 53, 88
5, 6528, Note_on_c, 0, 53, 0
5, 6528, Note_on_c, 0, 55, 88
5, 6576, Note_on_c, 0, 55, 0
5, 6576, Note_on_c, 0, 54, 88
5, 6624, Note_on_c, 0, 54, 0
5, 6624, Note_on_c, 0, 55, 88
5, 6672, Note_on_c, 0, 55, 0
5, 6672, Note_on_c, 0, 57, 88
5, 6720, Note_on_c, 0, 57, 0
5, 6720, Note_on_c, 0, 58, 88
5, 6768, Note_on_c, 0, 58, 0
5, 6768, Note_on_c, 0, 55, 88
5, 6816, Note_on_c, 0, 55, 0
5, 6816, Note_on_c, 0, 57, 88
5, 6864, Note_on_c, 0, 57, 0
5, 6864, Note_on_c, 0, 58, 88
5, 6912, Note_on_c, 0, 58, 0
5, 6912, Note_on_c, 0, 60, 88
5, 6936, Note_on_c, 0, 60, 0
5, 6936, Note_on_c, 0, 58, 88
5, 6960, Note_on_c, 0, 58, 0
5, 6960, Note_on_c, 0, 60, 88
5, 6984, Note_on_c, 0, 60, 0
5, 6984, Note_on_c, 0, 58, 88
5, 7008, Note_on_c, 0, 58, 0
5, 7008, Note_on_c, 0, 57, 88
5, 7104, Note_on_c, 0, 57, 0
5, 7152, Note_on_c, 0, 57, 88
5, 7200, Note_on_c, 0, 57, 0
5, 7200, Note_on_c, 0, 55, 88
5, 7248, Note_on_c, 0, 55, 0
5, 7248, Note_on_c, 0, 57, 88
5, 7296, Note_on_c, 0, 57, 0
5, 7296, Note_on_c, 0, 58, 88
5, 7344, Note_on_c, 0, 58, 0
5, 7344, Note_on_c, 0, 62, 88
5, 7392, Note_on_c, 0, 62, 0
5, 7392, Note_on_c, 0, 60, 88
5, 7440, Note_on_c, 0, 60, 0
5, 7440, Note_on_c, 0, 58, 88
5, 7488, Note_on_c, 0, 58, 0
5, 7488, Note_on_c, 0, 60, 88
5, 7536, Note_on_c, 0, 60, 0
5, 7536, Note_on_c, 0, 58, 88
5, 7584, Note_on_c, 0, 58, 0
5, 7584, Note_on_c, 0, 57, 88
5, 7632, Note_on_c, 0, 57, 0
5, 7632, Note_on_c, 0, 55, 88
5, 7680, Note_on_c, 0, 55, 0
5, 7680, Note_on_c, 0, 53, 88
5, 7728, Note_on_c, 0, 53, 0
5, 7728, Note_on_c, 0, 58, 88
5, 7776, Note_on_c, 0, 58, 0
5, 7776, Note_on_c, 0, 57, 88
5, 7824, Note_on_c, 0, 57, 0
5, 7824, Note_on_c, 0, 55, 88
5, 7872, Note_on_c, 0, 55, 0
5, 7872, Note_on_c, 0, 57, 88
5, 7920, Note_on_c, 0, 57, 0
5, 7920, Note_on_c, 0, 55, 88
5, 7968, Note_on_c, 0, 55, 0
5, 7968, Note_on_c, 0, 53, 88
5, 8016, Note_on_c, 0, 53, 0
5, 8016, Note_on_c, 0, 52, 88
5, 8064, Note_on_c, 0, 52, 0
5, 8064, Note_on_c, 0, 50, 88
5, 8112, Note_on_c, 0, 50, 0
5, 8112, Note_on_c, 0, 55, 88
5, 8160, Note_on_c, 0, 55, 0
5, 8160, Note_on_c, 0, 53, 88
5, 8208, Note_on_c, 0, 53, 0
5, 8208, Note_on_c, 0, 52, 88
5, 8256, Note_on_c, 0, 52, 0
5, 8256, Note_on_c, 0, 53, 88
5, 8304, Note_on_c, 0, 53, 0
5, 8304, Note_on_c, 0, 52, 88
5, 8352, Note_on_c, 0, 52, 0
5, 8352, Note_on_c, 0, 50, 88
5, 8400, Note_on_c, 0, 50, 0
5, 8400, Note_on_c, 0, 48, 72
5, 8448, Note_on_c, 0, 48, 0
5, 8448, Note_on_c, 0, 50, 72
5, 8544, Note_on_c, 0, 50, 0
5, 8544, Note_on_c, 0, 47, 72
5, 8640, Note_on_c, 0, 47, 0
5, 8640, Note_on_c, 0, 52, 72
5, 8832, Note_on_c, 0, 52, 0
5, 8832, Note_on_c, 0, 45, 72
5, 9024, Note_on_c, 0, 45, 0
5, 9264, Note_on_c, 0, 55, 72
5, 9312, Note_on_c, 0, 55, 0
5, 9312, Note_on_c, 0, 53, 72
5, 9360, Note_on_c, 0, 53, 0
5, 9360, Note_on_c, 0, 52, 72
5, 9408, Note_on_c, 0, 52, 0
5, 9408, Note_on_c, 0, 50, 72
5, 9456, Note_on_c, 0, 50, 0
5, 9456, Note_on_c, 0, 48, 72
5, 9504, Note_on_c, 0, 48, 0
5, 9504, Note_on_c, 0, 47, 72
5, 9552, Note_on_c, 0, 47, 0
5, 9552, Note_on_c, 0, 45, 72
5, 9600, Note_on_c, 0, 45, 0
5, 9600, Note_on_c, 0, 45, 72
5, 9624, Note_on_c, 0, 45, 0
5, 9624, Note_on_c, 0, 44, 72
5, 9648, Note_on_c, 0, 44, 0
5, 9648, Note_on_c, 0, 45, 72
5, 9672, Note_on_c, 0, 45, 0
5, 9672, Note_on_c, 0, 44, 72
5, 9696, Note_on_c, 0, 44, 0
5, 9696, Note_on_c, 0, 45, 72
5, 9720, Note_on_c, 0, 45, 0
5, 9720, Note_on_c, 0, 44, 72
5, 9744, Note_on_c, 0, 44, 0
5, 9744, Note_on_c, 0, 42, 72
5, 9768, Note_on_c, 0, 42, 0
5, 9768, Note_on_c, 0, 44, 72
5, 9792, Note_on_c, 0, 44, 0
5, 9792, Note_on_c, 0, 45, 72
5, 9840, Note_on_c, 0, 45, 0
5, 9840, Note_on_c, 0, 43, 72
5, 9888, Note_on_c, 0, 43, 0
5, 9888, Note_on_c, 0, 41, 72
5, 9936, Note_on_c, 0, 41, 0
5, 9936, Note_on_c, 0, 40, 72
5, 9984, Note_on_c, 0, 40, 0
5, 9984, Note_on_c, 0, 38, 72
5, 10080, Note_on_c, 0, 38, 0
5, 10080, Note_on_c, 0, 50, 72
5, 10176, Note_on_c, 0, 50, 0
5, 10176, Note_on_c, 0, 52, 72
5, 10272, Note_on_c, 0, 52, 0
5, 10272, Note_on_c, 0, 48, 72
5, 10368, Note_on_c, 0, 48, 0
5, 10368, Note_on_c, 0, 53, 72
5, 10464, Note_on_c, 0, 53, 0
5, 10464, Note_on_c, 0, 47, 72
5, 10560, Note_on_c, 0, 47, 0
5, 10560, Note_on_c, 0, 49, 72
5, 10656, Note_on_c, 0, 49, 0
5, 10656, Note_on_c, 0, 45, 72
5, 10752, Note_on_c, 0, 45, 0
5, 10752, Note_on_c, 0, 50, 72
5, 10944, Note_on_c, 0, 50, 0
5, 11040, Note_on_c, 0, 50, 72
5, 11136, Note_on_c, 0, 50, 0
5, 11136, Note_on_c, 0, 52, 72
5, 11328, Note_on_c, 0, 52, 0
5, 11424, Note_on_c, 0, 48, 72
5, 11520, Note_on_c, 0, 48, 0
5, 11520, Note_on_c, 0, 53, 72
5, 11568, Note_on_c, 0, 53, 0
5, 11568, Note_on_c, 0, 57, 72
5, 11616, Note_on_c, 0, 57, 0
5, 11616, Note_on_c, 0, 55, 72
5, 11664, Note_on_c, 0, 55, 0
5, 11664, Note_on_c, 0, 53, 72
5, 11712, Note_on_c, 0, 53, 0
5, 11712, Note_on_c, 0, 55, 72
5, 11760, Note_on_c, 0, 55, 0
5, 11760, Note_on_c, 0, 53, 72
5, 11808, Note_on_c, 0, 53, 0
5, 11808, Note_on_c, 0, 52, 72
5, 11856, Note_on_c, 0, 52, 0
5, 11856, Note_on_c, 0, 50, 72
5, 11904, Note_on_c, 0, 50, 0
5, 11904, Note_on_c, 0, 55, 72
5, 11952, Note_on_c, 0, 55, 0
5, 11952, Note_on_c, 0, 58, 72
5, 12000, Note_on_c, 0, 58, 0
5, 12000, Note_on_c, 0, 57, 72
5, 12048, Note_on_c, 0, 57, 0
5, 12048, Note_on_c, 0, 55, 72
5, 12096, Note_on_c, 0, 55, 0
5, 12096, Note_on_c, 0, 57, 72
5, 12144, Note_on_c, 0, 57, 0
5, 12144, Note_on_c, 0, 55, 72
5, 12192, Note_on_c, 0, 55, 0
5, 12192, Note_on_c, 0, 53, 72
5, 12240, Note_on_c, 0, 53, 0
5, 12240, Note_on_c, 0, 52, 72
5, 12288, Note_on_c, 0, 52, 0
5, 12288, Note_on_c, 0, 57, 72
5, 12480, Note_on_c, 0, 57, 0
5, 12576, Note_on_c, 0, 58, 72
5, 12672, Note_on_c, 0, 58, 0
5, 12672, Note_on_c, 0, 55, 72
5, 12768, Note_on_c, 0, 55, 0
5, 12768, Note_on_c, 0, 52, 72
5, 12864, Note_on_c, 0, 52, 0
5, 12864, Note_on_c, 0, 57, 72
5, 12960, Note_on_c, 0, 57, 0
5, 12960, Note_on_c, 0, 45, 72
5, 13056, Note_on_c, 0, 45, 0
5, 13056, Note_on_c, 0, 46, 72
5, 13152, Note_on_c, 0, 46, 0
5, 13152, Note_on_c, 0, 53, 72
5, 13248, Note_on_c, 0, 53, 0
5, 13248, Note_on_c, 0, 58, 72
5, 13440, Note_on_c, 0, 58, 0
5, 13440, Note_on_c, 0, 57, 72
5, 13632, Note_on_c, 0, 57, 0
5, 22368, Note_on_c, 0, 38, 88
5, 22416, Note_on_c, 0, 38, 0
5, 22464, Note_on_c, 0, 50, 88
5, 22656, Note_on_c, 0, 50, 0
5, 22656, Note_on_c, 0, 50, 88
5, 22752, Note_on_c, 0, 50, 0
5, 22752, Note_on_c, 0, 49, 88
5, 22800, Note_on_c, 0, 49, 0
5, 22800, Note_on_c, 0, 47, 88
5, 22848, Note_on_c, 0, 47, 0
5, 22848, Note_on_c, 0, 45, 88
5, 22896, Note_on_c, 0, 45, 0
5, 22896, Note_on_c, 0, 43, 88
5, 22944, Note_on_c, 0, 43, 0
5, 22944, Note_on_c, 0, 41, 88
5, 22992, Note_on_c, 0, 41, 0
5, 22992, Note_on_c, 0, 40, 88
5, 23040, Note_on_c, 0, 40, 0
5, 23040, Note_on_c, 0, 38, 88
5, 23088, Note_on_c, 0, 38, 0
5, 23088, Note_on_c, 0, 37, 88
5, 23136, Note_on_c, 0, 37, 0
5, 23136, Note_on_c, 0, 38, 88
5, 23184, Note_on_c, 0, 38, 0
5, 23184, Note_on_c, 0, 40, 88
5, 23232, Note_on_c, 0, 40, 0
5, 23232, Note_on_c, 0, 41, 88
5, 23280, Note_on_c, 0, 41, 0
5, 23280, Note_on_c, 0, 38, 88
5, 23328, Note_on_c, 0, 38, 0
5, 23328, Note_on_c, 0, 40, 88
5, 23376, Note_on_c, 0, 40, 0
5, 23376, Note_on_c, 0, 41, 88
5, 23424, Note_on_c, 0, 41, 0
5, 23424, Note_on_c, 0, 43, 88
5, 23472, Note_on_c, 0, 43, 0
5, 23472, Note_on_c, 0, 42, 88
5, 23520, Note_on_c, 0, 42, 0
5, 23520, Note_on_c, 0, 43, 88
5, 23568, Note_on_c, 0, 43, 0
5, 23568, Note_on_c, 0, 45, 88
5, 23616, Note_on_c, 0, 45, 0
5, 23616, Note_on_c, 0, 46, 88
5, 23664, Note_on_c, 0, 46, 0
5, 23664, Note_on_c, 0, 43, 88
5, 23712, Note_on_c, 0, 43, 0
5, 23712, Note_on_c, 0, 45, 88
5, 23760, Note_on_c, 0, 45, 0
5, 23760, Note_on_c, 0, 46, 88
5, 23808, Note_on_c, 0, 46, 0
5, 23808, Note_on_c, 0, 48, 88
5, 23832, Note_on_c, 0, 48, 0
5, 23832, Note_on_c, 0, 46, 88
5, 23856, Note_on_c, 0, 46, 0
5, 23856, Note_on_c, 0, 48, 88
5, 23880, Note_on_c, 0, 48, 0
5, 23880, Note_on_c, 0, 46, 88
5, 23904, Note_on_c, 0, 46, 0
5, 23904, Note_on_c, 0, 45, 88
5, 24000, Note_on_c, 0, 45, 0
5, 24048, Note_on_c, 0, 45, 88
5, 24096, Note_on_c, 0, 45, 0
5, 24096, Note_on_c, 0, 43, 88
5, 24144, Note_on_c, 0, 43, 0
5, 24144, Note_on_c, 0, 45, 88
5, 24192, Note_on_c, 0, 45, 0
5, 24192, Note_on_c, 0, 46, 88
5, 24240, Note_on_c, 0, 46, 0
5, 24240, Note_on_c, 0, 50, 88
5, 24288, Note_on_c, 0, 50, 0
5, 24288, Note_on_c, 0, 48, 88
5, 24336, Note_on_c, 0, 48, 0
5, 24336, Note_on_c, 0, 46, 88
5, 24384, Note_on_c, 0, 46, 0
5, 24384, Note_on_c, 0, 48, 88
5, 24432, Note_on_c, 0, 48, 0
5, 24432, Note_on_c, 0, 46, 88
5, 24480, Note_on_c, 0, 46, 0
5, 24480, Note_on_c, 0, 45, 88
5, 24528, Note_on_c, 0, 45, 0
5, 24528, Note_on_c, 0, 43, 88
5, 24576, Note_on_c, 0, 43, 0
5, 24576, Note_on_c, 0, 41, 88
5, 24624, Note_on_c, 0, 41, 0
5, 24624, Note_on_c, 0, 46, 88
5, 24672, Note_on_c, 0, 46, 0
5, 24672, Note_on_c, 0, 45, 88
5, 24720, Note_on_c, 0, 45, 0
5, 24720, Note_on_c, 0, 43, 88
5, 24768, Note_on_c, 0, 43, 0
5, 24768, Note_on_c, 0, 45, 88
5, 24816, Note_on_c, 0, 45, 0
5, 24816, Note_on_c, 0, 43, 88
5, 24864, Note_on_c, 0, 43, 0
5, 24864, Note_on_c, 0, 41, 88
5, 24912, Note_on_c, 0, 41, 0
5, 24912, Note_on_c, 0, 40, 88
5, 24960, Note_on_c, 0, 40, 0
5, 24960, Note_on_c, 0, 38, 88
5, 25152, Note_on_c, 0, 38, 0
5, 25440, Note_on_c, 0, 38, 72
5, 25536, Note_on_c, 0, 38, 0
5, 25536, Note_on_c, 0, 40, 72
5, 25632, Note_on_c, 0, 40, 0
5, 25632, Note_on_c, 0, 41, 72
5, 25728, Note_on_c, 0, 41, 0
5, 25728, Note_on_c, 0, 43, 72
5, 25824, Note_on_c, 0, 43, 0
5, 25824, Note_on_c, 0, 55, 72
5, 25920, Note_on_c, 0, 55, 0
5, 25920, Note_on_c, 0, 52, 72
5, 26016, Note_on_c, 0, 52, 0
5, 26016, Note_on_c, 0, 55, 72
5, 26112, Note_on_c, 0, 55, 0
5, 26112, Note_on_c, 0, 48, 72
5, 26208, Note_on_c, 0, 48, 0
5, 26208, Note_on_c, 0, 36, 72
5, 26304, Note_on_c, 0, 36, 0
5, 26304, Note_on_c, 0, 38, 72
5, 26400, Note_on_c, 0, 38, 0
5, 26400, Note_on_c, 0, 40, 72
5, 26496, Note_on_c, 0, 40, 0
5, 26496, Note_on_c, 0, 41, 72
5, 26592, Note_on_c, 0, 41, 0
5, 26592, Note_on_c, 0, 57, 72
5, 26688, Note_on_c, 0, 57, 0
5, 26688, Note_on_c, 0, 50, 72
5, 26784, Note_on_c, 0, 50, 0
5, 26784, Note_on_c, 0, 53, 72
5, 26880, Note_on_c, 0, 53, 0
5, 26880, Note_on_c, 0, 47, 72
5, 26976, Note_on_c, 0, 47, 0
5, 26976, Note_on_c, 0, 50, 72
5, 27072, Note_on_c, 0, 50, 0
5, 27072, Note_on_c, 0, 44, 72
5, 27168, Note_on_c, 0, 44, 0
5, 27168, Note_on_c, 0, 47, 72
5, 27264, Note_on_c, 0, 47, 0
5, 27264, Note_on_c, 0, 40, 72
5, 27360, Note_on_c, 0, 40, 0
5, 27360, Note_on_c, 0, 52, 72
5, 27456, Note_on_c, 0, 52, 0
5, 27456, Note_on_c, 0, 54, 72
5, 27552, Note_on_c, 0, 54, 0
5, 27552, Note_on_c, 0, 56, 72
5, 27648, Note_on_c, 0, 56, 0
5, 27648, Note_on_c, 0, 57, 72
5, 28032, Note_on_c, 0, 57, 0
5, 28032, Note_on_c, 0, 57, 72
5, 28080, Note_on_c, 0, 57, 0
5, 28080, Note_on_c, 0, 56, 72
5, 28128, Note_on_c, 0, 56, 0
5, 28128, Note_on_c, 0, 57, 72
5, 28176, Note_on_c, 0, 57, 0
5, 28176, Note_on_c, 0, 54, 72
5, 28224, Note_on_c, 0, 54, 0
5, 28224, Note_on_c, 0, 56, 72
5, 28320, Note_on_c, 0, 56, 0
5, 28320, Note_on_c, 0, 59, 72
5, 28416, Note_on_c, 0, 59, 0
5, 28416, Note_on_c, 0, 59, 72
5, 28512, Note_on_c, 0, 59, 0
5, 28512, Note_on_c, 0, 57, 72
5, 28608, Note_on_c, 0, 57, 0
5, 28704, Note_on_c, 0, 52, 72
5, 28800, Note_on_c, 0, 52, 0
5, 28800, Note_on_c, 0, 53, 72
5, 29184, Note_on_c, 0, 53, 0
5, 29184, Note_on_c, 0, 52, 72
5, 29568, Note_on_c, 0, 52, 0
5, 30384, Note_on_c, 0, 50, 72
5, 30432, Note_on_c, 0, 50, 0
5, 30432, Note_on_c, 0, 48, 72
5, 30480, Note_on_c, 0, 48, 0
5, 30480, Note_on_c, 0, 47, 72
5, 30528, Note_on_c, 0, 47, 0
5, 30528, Note_on_c, 0, 48, 72
5, 30576, Note_on_c, 0, 48, 0
5, 30576, Note_on_c, 0, 47, 72
5, 30624, Note_on_c, 0, 47, 0
5, 30624, Note_on_c, 0, 45, 72
5, 30672, Note_on_c, 0, 45, 0
5, 30672, Note_on_c, 0, 44, 72
5, 30720, Note_on_c, 0, 44, 0
5, 30720, Note_on_c, 0, 45, 72
5, 30816, Note_on_c, 0, 45, 0
5, 33792, Note_on_c, 0, 50, 88
5, 34176, Note_on_c, 0, 50, 0
5, 34176, Note_on_c, 0, 57, 88
5, 34560, Note_on_c, 0, 57, 0
5, 34560, Note_on_c, 0, 53, 88
5, 34944, Note_on_c, 0, 53, 0
5, 34944, Note_on_c, 0, 50, 88
5, 35328, Note_on_c, 0, 50, 0
5, 35328, Note_on_c, 0, 49, 88
5, 35712, Note_on_c, 0, 49, 0
5, 35712, Note_on_c, 0, 50, 88
5, 35904, Note_on_c, 0, 50, 0
5, 35904, Note_on_c, 0, 52, 88
5, 36096, Note_on_c, 0, 52, 0
5, 36096, Note_on_c, 0, 53, 88
5, 36480, Note_on_c, 0, 53, 0
5, 36480, Note_on_c, 0, 53, 88
5, 36576, Note_on_c, 0, 53, 0
5, 36576, Note_on_c, 0, 55, 88
5, 36672, Note_on_c, 0, 55, 0
5, 36672, Note_on_c, 0, 53, 88
5, 36768, Note_on_c, 0, 53, 0
5, 36768, Note_on_c, 0, 52, 88
5, 36864, Note_on_c, 0, 52, 0
5, 36864, Note_on_c, 0, 50, 88
5, 37248, Note_on_c, 0, 50, 0
5, 37248, Note_on_c, 0, 50, 72
5, 37296, Note_on_c, 0, 50, 0
5, 37296, Note_on_c, 0, 51, 72
5, 37344, Note_on_c, 0, 51, 0
5, 37344, Note_on_c, 0, 50, 72
5, 37392, Note_on_c, 0, 50, 0
5, 37392, Note_on_c, 0, 48, 72
5, 37440, Note_on_c, 0, 48, 0
5, 37440, Note_on_c, 0, 50, 72
5, 37488, Note_on_c, 0, 50, 0
5, 37488, Note_on_c, 0, 48, 72
5, 37536, Note_on_c, 0, 48, 0
5, 37536, Note_on_c, 0, 46, 72
5, 37584, Note_on_c, 0, 46, 0
5, 37584, Note_on_c, 0, 45, 72
5, 37632, Note_on_c, 0, 45, 0
5, 37632, Note_on_c, 0, 46, 72
5, 37824, Note_on_c, 0, 46, 0
5, 37920, Note_on_c, 0, 58, 72
5, 38016, Note_on_c, 0, 58, 0
5, 38016, Note_on_c, 0, 54, 72
5, 38112, Note_on_c, 0, 54, 0
5, 38112, Note_on_c, 0, 57, 72
5, 38208, Note_on_c, 0, 57, 0
5, 38208, Note_on_c, 0, 54, 72
5, 38304, Note_on_c, 0, 54, 0
5, 38304, Note_on_c, 0, 50, 72
5, 38400, Note_on_c, 0, 50, 0
5, 38400, Note_on_c, 0, 55, 72
5, 38592, Note_on_c, 0, 55, 0
5, 38592, Note_on_c, 0, 50, 72
5, 38784, Note_on_c, 0, 50, 0
5, 38784, Note_on_c, 0, 51, 72
5, 38880, Note_on_c, 0, 51, 0
5, 38880, Note_on_c, 0, 53, 72
5, 38976, Note_on_c, 0, 53, 0
5, 38976, Note_on_c, 0, 52, 72
5, 39072, Note_on_c, 0, 52, 0
5, 39072, Note_on_c, 0, 51, 72
5, 39168, Note_on_c, 0, 51, 0
5, 39168, Note_on_c, 0, 50, 72
5, 39360, Note_on_c, 0, 50, 0
5, 39408, Note_on_c, 0, 48, 72
5, 39456, Note_on_c, 0, 48, 0
5, 39456, Note_on_c, 0, 46, 72
5, 39504, Note_on_c, 0, 46, 0
5, 39504, Note_on_c, 0, 45, 72
5, 39552, Note_on_c, 0, 45, 0
5, 39552, Note_on_c, 0, 43, 72
5, 39648, Note_on_c, 0, 43, 0
5, 40032, Note_on_c, 0, 51, 72
5, 40128, Note_on_c, 0, 51, 0
5, 40128, Note_on_c, 0, 50, 72
5, 40224, Note_on_c, 0, 50, 0
5, 40224, Note_on_c, 0, 55, 72
5, 40320, Note_on_c, 0, 55, 0
5, 40320, Note_on_c, 0, 53, 72
5, 40368, Note_on_c, 0, 53, 0
5, 40368, Note_on_c, 0, 56, 72
5, 40416, Note_on_c, 0, 56, 0
5, 40416, Note_on_c, 0, 55, 72
5, 40464, Note_on_c, 0, 55, 0
5, 40464, Note_on_c, 0, 53, 72
5, 40512, Note_on_c, 0, 53, 0
5, 40512, Note_on_c, 0, 55, 72
5, 40560, Note_on_c, 0, 55, 0
5, 40560, Note_on_c, 0, 53, 72
5, 40608, Note_on_c, 0, 53, 0
5, 40608, Note_on_c, 0, 51, 72
5, 40656, Note_on_c, 0, 51, 0
5, 40656, Note_on_c, 0, 50, 72
5, 40704, Note_on_c, 0, 50, 0
5, 40704, Note_on_c, 0, 51, 72
5, 40752, Note_on_c, 0, 51, 0
5, 40752, Note_on_c, 0, 53, 72
5, 40800, Note_on_c, 0, 53, 0
5, 40800, Note_on_c, 0, 51, 72
5, 40848, Note_on_c, 0, 51, 0
5, 40848, Note_on_c, 0, 50, 72
5, 40896, Note_on_c, 0, 50, 0
5, 40896, Note_on_c, 0, 51, 72
5, 40944, Note_on_c, 0, 51, 0
5, 40944, Note_on_c, 0, 50, 72
5, 40992, Note_on_c, 0, 50, 0
5, 40992, Note_on_c, 0, 48, 72
5, 41040, Note_on_c, 0, 48, 0
5, 41040, Note_on_c, 0, 47, 72
5, 41088, Note_on_c, 0, 47, 0
5, 41088, Note_on_c, 0, 48, 72
5, 41136, Note_on_c, 0, 48, 0
5, 41136, Note_on_c, 0, 50, 72
5, 41184, Note_on_c, 0, 50, 0
5, 41184, Note_on_c, 0, 48, 72
5, 41232, Note_on_c, 0, 48, 0
5, 41232, Note_on_c, 0, 46, 72
5, 41280, Note_on_c, 0, 46, 0
5, 41280, Note_on_c, 0, 48, 72
5, 41328, Note_on_c, 0, 48, 0
5, 41328, Note_on_c, 0, 46, 72
5, 41376, Note_on_c, 0, 46, 0
5, 41376, Note_on_c, 0, 45, 72
5, 41424, Note_on_c, 0, 45, 0
5, 41424, Note_on_c, 0, 43, 72
5, 41472, Note_on_c, 0, 43, 0
5, 41472, Note_on_c, 0, 45, 72
5, 41520, Note_on_c, 0, 45, 0
5, 41520, Note_on_c, 0, 46, 72
5, 41568, Note_on_c, 0, 46, 0
5, 41568, Note_on_c, 0, 45, 72
5, 41616, Note_on_c, 0, 45, 0
5, 41616, Note_on_c, 0, 43, 72
5, 41664, Note_on_c, 0, 43, 0
5, 41664, Note_on_c, 0, 45, 72
5, 41712, Note_on_c, 0, 45, 0
5, 41712, Note_on_c, 0, 43, 72
5, 41760, Note_on_c, 0, 43, 0
5, 41760, Note_on_c, 0, 42, 72
5, 41808, Note_on_c, 0, 42, 0
5, 41808, Note_on_c, 0, 40, 72
5, 41856, Note_on_c, 0, 40, 0
5, 41856, Note_on_c, 0, 42, 72
5, 42048, Note_on_c, 0, 42, 0
5, 42144, Note_on_c, 0, 54, 72
5, 42240, Note_on_c, 0, 54, 0
5, 42240, Note_on_c, 0, 55, 72
5, 42336, Note_on_c, 0, 55, 0
5, 42336, Note_on_c, 0, 51, 72
5, 42432, Note_on_c, 0, 51, 0
5, 42432, Note_on_c, 0, 48, 72
5, 42528, Note_on_c, 0, 48, 0
5, 42528, Note_on_c, 0, 50, 72
5, 42624, Note_on_c, 0, 50, 0
5, 42624, Note_on_c, 0, 43, 72
5, 42720, Note_on_c, 0, 43, 0
5, 43104, Note_on_c, 0, 53, 72
5, 43200, Note_on_c, 0, 53, 0
5, 43200, Note_on_c, 0, 51, 72
5, 43296, Note_on_c, 0, 51, 0
5, 43296, Note_on_c, 0, 50, 72
5, 43392, Note_on_c, 0, 50, 0
5, 43392, Note_on_c, 0, 48, 72
5, 43488, Note_on_c, 0, 48, 0
5, 43824, Note_on_c, 0, 52, 72
5, 43872, Note_on_c, 0, 52, 0
5, 43872, Note_on_c, 0, 53, 72
5, 43920, Note_on_c, 0, 53, 0
5, 43920, Note_on_c, 0, 55, 72
5, 43968, Note_on_c, 0, 55, 0
5, 43968, Note_on_c, 0, 57, 72
5, 44016, Note_on_c, 0, 57, 0
5, 44016, Note_on_c, 0, 53, 72
5, 44064, Note_on_c, 0, 53, 0
5, 44064, Note_on_c, 0, 55, 72
5, 44112, Note_on_c, 0, 55, 0
5, 44112, Note_on_c, 0, 57, 72
5, 44160, Note_on_c, 0, 57, 0
5, 44160, Note_on_c, 0, 58, 72
5, 44256, Note_on_c, 0, 58, 0
5, 44592, Note_on_c, 0, 55, 72
5, 44640, Note_on_c, 0, 55, 0
5, 44640, Note_on_c, 0, 53, 72
5, 44688, Note_on_c, 0, 53, 0
5, 44688, Note_on_c, 0, 52, 72
5, 44736, Note_on_c, 0, 52, 0
5, 44736, Note_on_c, 0, 50, 72
5, 44784, Note_on_c, 0, 50, 0
5, 44784, Note_on_c, 0, 53, 72
5, 44832, Note_on_c, 0, 53, 0
5, 44832, Note_on_c, 0, 52, 72
5, 44880, Note_on_c, 0, 52, 0
5, 44880, Note_on_c, 0, 50, 72
5, 44928, Note_on_c, 0, 50, 0
5, 44928, Note_on_c, 0, 49, 72
5, 45024, Note_on_c, 0, 49, 0
5, 45024, Note_on_c, 0, 52, 72
5, 45120, Note_on_c, 0, 52, 0
5, 45120, Note_on_c, 0, 49, 72
5, 45216, Note_on_c, 0, 49, 0
5, 45216, Note_on_c, 0, 45, 72
5, 45312, Note_on_c, 0, 45, 0
5, 45312, Note_on_c, 0, 50, 72
5, 45408, Note_on_c, 0, 50, 0
5, 45408, Note_on_c, 0, 48, 72
5, 45504, Note_on_c, 0, 48, 0
5, 45504, Note_on_c, 0, 46, 72
5, 45696, Note_on_c, 0, 46, 0
5, 45696, Note_on_c, 0, 45, 72
5, 45888, Note_on_c, 0, 45, 0
5, 45984, Note_on_c, 0, 45, 72
5, 46080, Note_on_c, 0, 45, 0
5, 46080, Note_on_c, 0, 46, 88
5, 46464, Note_on_c, 0, 46, 0
5, 46464, Note_on_c, 0, 46, 88
5, 46656, Note_on_c, 0, 46, 0
5, 46704, Note_on_c, 0, 52, 88
5, 46752, Note_on_c, 0, 52, 0
5, 46752, Note_on_c, 0, 53, 88
5, 46800, Note_on_c, 0, 53, 0
5, 46800, Note_on_c, 0, 55, 88
5, 46848, Note_on_c, 0, 55, 0
5, 46848, Note_on_c, 0, 45, 88
5, 46896, Note_on_c, 0, 45, 0
5, 46896, Note_on_c, 0, 52, 88
5, 46944, Note_on_c, 0, 52, 0
5, 46944, Note_on_c, 0, 57, 88
5, 46992, Note_on_c, 0, 57, 0
5, 46992, Note_on_c, 0, 55, 88
5, 47040, Note_on_c, 0, 55, 0
5, 47040, Note_on_c, 0, 53, 88
5, 47136, Note_on_c, 0, 53, 0
5, 47136, Note_on_c, 0, 52, 88
5, 47232, Note_on_c, 0, 52, 0
5, 47232, Note_on_c, 0, 50, 88
5, 47424, Note_on_c, 0, 50, 0
5, 47520, Note_on_c, 0, 49, 88
5, 47616, Note_on_c, 0, 49, 0
5, 47616, Note_on_c, 0, 50, 88
5, 47808, Note_on_c, 0, 50, 0
5, 47904, Note_on_c, 0, 45, 88
5, 48000, Note_on_c, 0, 45, 0
5, 48000, Note_on_c, 0, 46, 88
5, 48192, Note_on_c, 0, 46, 0
5, 48288, Note_on_c, 0, 48, 88
5, 48384, Note_on_c, 0, 48, 0
5, 48384, Note_on_c, 0, 46, 88
5, 48432, Note_on_c, 0, 46, 0
5, 48432, Note_on_c, 0, 48, 88
5, 48480, Note_on_c, 0, 48, 0
5, 48480, Note_on_c, 0, 46, 88
5, 48528, Note_on_c, 0, 46, 0
5, 48528, Note_on_c, 0, 45, 88
5, 48576, Note_on_c, 0, 45, 0
5, 48576, Note_on_c, 0, 46, 88
5, 48624, Note_on_c, 0, 46, 0
5, 48624, Note_on_c, 0, 45, 88
5, 48672, Note_on_c, 0, 45, 0
5, 48672, Note_on_c, 0, 43, 88
5, 48720, Note_on_c, 0, 43, 0
5, 48720, Note_on_c, 0, 41, 88
5, 48768, Note_on_c, 0, 41, 0
5, 48768, Note_on_c, 0, 40, 88
5, 48864, Note_on_c, 0, 40, 0
5, 48864, Note_on_c, 0, 52, 88
5, 48912, Note_on_c, 0, 52, 0
5, 48912, Note_on_c, 0, 52, 88
5, 48960, Note_on_c, 0, 52, 0
5, 48960, Note_on_c, 0, 53, 88
5, 49056, Note_on_c, 0, 53, 0
5, 49056, Note_on_c, 0, 55, 88
5, 49152, Note_on_c, 0, 55, 0
5, 49152, Note_on_c, 0, 57, 88
5, 49248, Note_on_c, 0, 57, 0
5, 49248, Note_on_c, 0, 55, 88
5, 49296, Note_on_c, 0, 55, 0
5, 49296, Note_on_c, 0, 55, 88
5, 49344, Note_on_c, 0, 55, 0
5, 49344, Note_on_c, 0, 57, 88
5, 49440, Note_on_c, 0, 57, 0
5, 49440, Note_on_c, 0, 45, 88
5, 49488, Note_on_c, 0, 45, 0
5, 49488, Note_on_c, 0, 45, 88
5, 49536, Note_on_c, 0, 45, 0
5, 49536, Note_on_c, 0, 38, 88
5, 49920, Note_on_c, 0, 38, 0
5, 49920, End_track
0, 0, End_of_file
