0, 0, Header, 1, 5, 96
1, 0, Start_track
1, 0, Key_signature, -1, "major"
1, 0, Time_signature, 4, 2, 24, 8
1, 0, Tempo, 468519
1, 44928, Tempo, 535450
1, 45072, Tempo, 599704
1, 45456, Tempo, 666337
1, 45696, Tempo, 799605
1, 46080, End_track
2, 0, Start_track
2, 2976, Note_on_c, 0, 72, 88
2, 3072, Note_on_c, 0, 72, 0
2, 3072, Note_on_c, 0, 71, 88
2, 3168, Note_on_c, 0, 71, 0
2, 3168, Note_on_c, 0, 76, 88
2, 3264, Note_on_c, 0, 76, 0
2, 3360, Note_on_c, 0, 68, 88
2, 3456, Note_on_c, 0, 68, 0
2, 3456, Note_on_c, 0, 69, 88
2, 3552, Note_on_c, 0, 69, 0
2, 3552, Note_on_c, 0, 64, 88
2, 3648, Note_on_c, 0, 64, 0
2, 3648, Note_on_c, 0, 69, 88
2, 3696, Note_on_c, 0, 69, 0
2, 3696, Note_on_c, 0, 67, 88
2, 3744, Note_on_c, 0, 67, 0
2, 3744, Note_on_c, 0, 65, 88
2, 3792, Note_on_c, 0, 65, 0
2, 3792, Note_on_c, 0, 64, 88
2, 3840, Note_on_c, 0, 64, 0
2, 3840, Note_on_c, 0, 62, 88
2, 3888, Note_on_c, 0, 62, 0
2, 3888, Note_on_c, 0, 60, 88
2, 3936, Note_on_c, 0, 60, 0
2, 3936, Note_on_c, 0, 59, 88
2, 4080, Note_on_c, 0, 59, 0
2, 4080, Note_on_c, 0, 61, 88
2, 4128, Note_on_c, 0, 61, 0
2, 4128, Note_on_c, 0, 62, 88
2, 4176, Note_on_c, 0, 62, 0
2, 4176, Note_on_c, 0, 64, 88
2, 4224, Note_on_c, 0, 64, 0
2, 4224, Note_on_c, 0, 65, 88
2, 4272, Note_on_c, 0, 65, 0
2, 4272, Note_on_c, 0, 64, 72
2, 4320, Note_on_c, 0, 64, 0
2, 4320, Note_on_c, 0, 65, 72
2, 4368, Note_on_c, 0, 65, 0
2, 4368, Note_on_c, 0, 62, 72
2, 4416, Note_on_c, 0, 62, 0
2, 4416, Note_on_c, 0, 64, 72
2, 4464, Note_on_c, 0, 64, 0
2, 4464, Note_on_c, 0, 66, 72
2, 4512, Note_on_c, 0, 66, 0
2, 4512, Note_on_c, 0, 67, 72
2, 4560, Note_on_c, 0, 67, 0
2, 4560, Note_on_c, 0, 69, 72
2, 4608, Note_on_c, 0, 69, 0
2, 4608, Note_on_c, 0, 70, 72
2, 4656, Note_on_c, 0, 70, 0
2, 4656, Note_on_c, 0, 69, 72
2, 4704, Note_on_c, 0, 69, 0
2, 4704, Note_on_c, 0, 70, 72
2, 4752, Note_on_c, 0, 70, 0
2, 4752, Note_on_c, 0, 67, 72
2, 4800, Note_on_c, 0, 67, 0
2, 4800, Note_on_c, 0, 69, 72
2, 4896, Note_on_c, 0, 69, 0
2, 4896, Note_on_c, 0, 74, 72
2, 4992, Note_on_c, 0, 74, 0
2, 4992, Note_on_c, 0, 74, 72
2, 5040, Note_on_c, 0, 74, 0
2, 5040, Note_on_c, 0, 72, 72
2, 5088, Note_on_c, 0, 72, 0
2, 5088, Note_on_c, 0, 74, 72
2, 5136, Note_on_c, 0, 74, 0
2, 5136, Note_on_c, 0, 71, 72
2, 5184, Note_on_c, 0, 71, 0
2, 5184, Note_on_c, 0, 72, 72
2, 5280, Note_on_c, 0, 72, 0
2, 5280, Note_on_c, 0, 73, 72
2, 5376, Note_on_c, 0, 73, 0
2, 5376, Note_on_c, 0, 74, 72
2, 5472, Note_on_c, 0, 74, 0
2, 5472, Note_on_c, 0, 67, 72
2, 5568, Note_on_c, 0, 67, 0
2, 5568, Note_on_c, 0, 65, 72
2, 5664, Note_on_c, 0, 65, 0
2, 5664, Note_on_c, 0, 69, 72
2, 5760, Note_on_c, 0, 69, 0
2, 5760, Note_on_c, 0, 74, 72
2, 5904, Note_on_c, 0, 74, 0
2, 5904, Note_on_c, 0, 76, 72
2, 5952, Note_on_c, 0, 76, 0
2, 5952, Note_on_c, 0, 77, 72
2, 6000, Note_on_c, 0, 77, 0
2, 6000, Note_on_c, 0, 79, 72
2, 6048, Note_on_c, 0, 79, 0
2, 6048, Note_on_c, 0, 81, 72
2, 6144, Note_on_c, 0, 81, 0
2, 6144, Note_on_c, 0, 81, 72
2, 6240, Note_on_c, 0, 81, 0
2, 6240, Note_on_c, 0, 82, 72
2, 6288, Note_on_c, 0, 82, 0
2, 6288, Note_on_c, 0, 81, 72
2, 6336, Note_on_c, 0, 81, 0
2, 6336, Note_on_c, 0, 79, 72
2, 6384, Note_on_c, 0, 79, 0
2, 6384, Note_on_c, 0, 77, 72
2, 6432, Note_on_c, 0, 77, 0
2, 6432, Note_on_c, 0, 79, 72
2, 6528, Note_on_c, 0, 79, 0
2, 6528, Note_on_c, 0, 72, 72
2, 6912, Note_on_c, 0, 72, 0
2, 6912, Note_on_c, 0, 72, 72
2, 6960, Note_on_c, 0, 72, 0
2, 6960, Note_on_c, 0, 66, 72
2, 7008, Note_on_c, 0, 66, 0
2, 7008, Note_on_c, 0, 67, 72
2, 7056, Note_on_c, 0, 67, 0
2, 7056, Note_on_c, 0, 69, 72
2, 7104, Note_on_c, 0, 69, 0
2, 7104, Note_on_c, 0, 70, 72
2, 7296, Note_on_c, 0, 70, 0
2, 7296, Note_on_c, 0, 70, 72
2, 7488, Note_on_c, 0, 70, 0
2, 7488, Note_on_c, 0, 69, 72
2, 7680, Note_on_c, 0, 69, 0
2, 7680, Note_on_c, 0, 69, 72
2, 7728, Note_on_c, 0, 69, 0
2, 7728, Note_on_c, 0, 74, 72
2, 7824, Note_on_c, 0, 74, 0
2, 7824, Note_on_c, 0, 73, 72
2, 7872, Note_on_c, 0, 73, 0
2, 7872, Note_on_c, 0, 74, 72
2, 8064, Note_on_c, 0, 74, 0
2, 8064, Note_on_c, 0, 74, 72
2, 8160, Note_on_c, 0, 74, 0
2, 8160, Note_on_c, 0, 73, 72
2, 8256, Note_on_c, 0, 73, 0
2, 8448, Note_on_c, 0, 81, 88
2, 8640, Note_on_c, 0, 81, 0
2, 8640, Note_on_c, 0, 74, 88
2, 8784, Note_on_c, 0, 74, 0
2, 8784, Note_on_c, 0, 76, 88
2, 8832, Note_on_c, 0, 76, 0
2, 8832, Note_on_c, 0, 77, 88
2, 8976, Note_on_c, 0, 77, 0
2, 8976, Note_on_c, 0, 79, 88
2, 9024, Note_on_c, 0, 79, 0
2, 9024, Note_on_c, 0, 81, 88
2, 9216, Note_on_c, 0, 81, 0
2, 9216, Note_on_c, 0, 82, 88
2, 9408, Note_on_c, 0, 82, 0
2, 9408, Note_on_c, 0, 81, 88
2, 9552, Note_on_c, 0, 81, 0
2, 9552, Note_on_c, 0, 79, 88
2, 9600, Note_on_c, 0, 79, 0
2, 9600, Note_on_c, 0, 77, 88
2, 9792, Note_on_c, 0, 77, 0
2, 9792, Note_on_c, 0, 77, 88
2, 9840, Note_on_c, 0, 77, 0
2, 9840, Note_on_c, 0, 76, 88
2, 9888, Note_on_c, 0, 76, 0
2, 9888, Note_on_c, 0, 78, 88
2, 9936, Note_on_c, 0, 78, 0
2, 9936, Note_on_c, 0, 80, 88
2, 9984, Note_on_c, 0, 80, 0
2, 9984, Note_on_c, 0, 81, 88
2, 10032, Note_on_c, 0, 81, 0
2, 10032, Note_on_c, 0, 79, 88
2, 10056, Note_on_c, 0, 79, 0
2, 10056, Note_on_c, 0, 77, 88
2, 10080, Note_on_c, 0, 77, 0
2, 10080, Note_on_c, 0, 76, 88
2, 10224, Note_on_c, 0, 76, 0
2, 10224, Note_on_c, 0, 74, 56
2, 10272, Note_on_c, 0, 74, 0
2, 10272, Note_on_c, 0, 72, 56
2, 10320, Note_on_c, 0, 72, 0
2, 10320, Note_on_c, 0, 71, 56
2, 10368, Note_on_c, 0, 71, 0
2, 10368, Note_on_c, 0, 69, 56
2, 10416, Note_on_c, 0, 69, 0
2, 10416, Note_on_c, 0, 68, 56
2, 10464, Note_on_c, 0, 68, 0
2, 10464, Note_on_c, 0, 69, 56
2, 10512, Note_on_c, 0, 69, 0
2, 10512, Note_on_c, 0, 71, 56
2, 10560, Note_on_c, 0, 71, 0
2, 10560, Note_on_c, 0, 73, 56
2, 10608, Note_on_c, 0, 73, 0
2, 10608, Note_on_c, 0, 74, 56
2, 10656, Note_on_c, 0, 74, 0
2, 10656, Note_on_c, 0, 76, 56
2, 10704, Note_on_c, 0, 76, 0
2, 10704, Note_on_c, 0, 77, 56
2, 10752, Note_on_c, 0, 77, 0
2, 10752, Note_on_c, 0, 79, 56
2, 10800, Note_on_c, 0, 79, 0
2, 10800, Note_on_c, 0, 81, 56
2, 10848, Note_on_c, 0, 81, 0
2, 10848, Note_on_c, 0, 82, 56
2, 10896, Note_on_c, 0, 82, 0
2, 10896, Note_on_c, 0, 79, 56
2, 10944, Note_on_c, 0, 79, 0
2, 10944, Note_on_c, 0, 76, 56
2, 10992, Note_on_c, 0, 76, 0
2, 10992, Note_on_c, 0, 81, 56
2, 11040, Note_on_c, 0, 81, 0
2, 11040, Note_on_c, 0, 79, 56
2, 11088, Note_on_c, 0, 79, 0
2, 11088, Note_on_c, 0, 81, 56
2, 11136, Note_on_c, 0, 81, 0
2, 11136, Note_on_c, 0, 77, 56
2, 11184, Note_on_c, 0, 77, 0
2, 11184, Note_on_c, 0, 79, 56
2, 11232, Note_on_c, 0, 79, 0
2, 11232, Note_on_c, 0, 81, 56
2, 11280, Note_on_c, 0, 81, 0
2, 11280, Note_on_c, 0, 77, 56
2, 11328, Note_on_c, 0, 77, 0
2, 11328, Note_on_c, 0, 74, 56
2, 11376, Note_on_c, 0, 74, 0
2, 11376, Note_on_c, 0, 79, 56
2, 11424, Note_on_c, 0, 79, 0
2, 11424, Note_on_c, 0, 77, 56
2, 11472, Note_on_c, 0, 77, 0
2, 11472, Note_on_c, 0, 79, 56
2, 11520, Note_on_c, 0, 79, 0
2, 11520, Note_on_c, 0, 76, 56
2, 11568, Note_on_c, 0, 76, 0
2, 11568, Note_on_c, 0, 77, 56
2, 11616, Note_on_c, 0, 77, 0
2, 11616, Note_on_c, 0, 79, 56
2, 11664, Note_on_c, 0, 79, 0
2, 11664, Note_on_c, 0, 76, 56
2, 11712, Note_on_c, 0, 76, 0
2, 11712, Note_on_c, 0, 77, 56
2, 11856, Note_on_c, 0, 77, 0
2, 11856, Note_on_c, 0, 79, 56
2, 11904, Note_on_c, 0, 79, 0
2, 11904, Note_on_c, 0, 81, 56
2, 12048, Note_on_c, 0, 81, 0
2, 12048, Note_on_c, 0, 79, 56
2, 12096, Note_on_c, 0, 79, 0
2, 12096, Note_on_c, 0, 77, 56
2, 12144, Note_on_c, 0, 77, 0
2, 12144, Note_on_c, 0, 76, 56
2, 12192, Note_on_c, 0, 76, 0
2, 12192, Note_on_c, 0, 74, 56
2, 12240, Note_on_c, 0, 74, 0
2, 12240, Note_on_c, 0, 73, 56
2, 12288, Note_on_c, 0, 73, 0
2, 12288, Note_on_c, 0, 74, 56
2, 12480, Note_on_c, 0, 74, 0
2, 12480, Note_on_c, 0, 74, 56
2, 12528, Note_on_c, 0, 74, 0
2, 12528, Note_on_c, 0, 71, 56
2, 12576, Note_on_c, 0, 71, 0
2, 12576, Note_on_c, 0, 73, 56
2, 12672, Note_on_c, 0, 73, 0
2, 12672, Note_on_c, 0, 74, 56
2, 12720, Note_on_c, 0, 74, 0
2, 12720, Note_on_c, 0, 70, 56
2, 12768, Note_on_c, 0, 70, 0
2, 12768, Note_on_c, 0, 69, 56
2, 12816, Note_on_c, 0, 69, 0
2, 12816, Note_on_c, 0, 67, 56
2, 12864, Note_on_c, 0, 67, 0
2, 12864, Note_on_c, 0, 65, 56
2, 12960, Note_on_c, 0, 65, 0
2, 12960, Note_on_c, 0, 77, 56
2, 13056, Note_on_c, 0, 77, 0
2, 13056, Note_on_c, 0, 77, 56
2, 13104, Note_on_c, 0, 77, 0
2, 13104, Note_on_c, 0, 76, 56
2, 13152, Note_on_c, 0, 76, 0
2, 13152, Note_on_c, 0, 78, 56
2, 13200, Note_on_c, 0, 78, 0
2, 13200, Note_on_c, 0, 80, 56
2, 13248, Note_on_c, 0, 80, 0
2, 13248, Note_on_c, 0, 81, 56
2, 13440, Note_on_c, 0, 81, 0
2, 13440, Note_on_c, 0, 81, 56
2, 13632, Note_on_c, 0, 81, 0
2, 13632, Note_on_c, 0, 81, 56
2, 13680, Note_on_c, 0, 81, 0
2, 13680, Note_on_c, 0, 81, 56
2, 13728, Note_on_c, 0, 81, 0
2, 13728, Note_on_c, 0, 79, 56
2, 13776, Note_on_c, 0, 79, 0
2, 13776, Note_on_c, 0, 77, 56
2, 13824, Note_on_c, 0, 77, 0
2, 13824, Note_on_c, 0, 76, 56
2, 13920, Note_on_c, 0, 76, 0
2, 13920, Note_on_c, 0, 81, 56
2, 14112, Note_on_c, 0, 81, 0
2, 14112, Note_on_c, 0, 79, 56
2, 14208, Note_on_c, 0, 79, 0
2, 14208, Note_on_c, 0, 77, 56
2, 14400, Note_on_c, 0, 77, 0
2, 14400, Note_on_c, 0, 76, 56
2, 14592, Note_on_c, 0, 76, 0
2, 14592, Note_on_c, 0, 76, 56
2, 14688, Note_on_c, 0, 76, 0
2, 14688, Note_on_c, 0, 78, 56
2, 14736, Note_on_c, 0, 78, 0
2, 14736, Note_on_c, 0, 79, 56
2, 14784, Note_on_c, 0, 79, 0
2, 14784, Note_on_c, 0, 81, 56
2, 14880, Note_on_c, 0, 81, 0
2, 14880, Note_on_c, 0, 74, 56
2, 14976, Note_on_c, 0, 74, 0
2, 14976, Note_on_c, 0, 74, 56
2, 15072, Note_on_c, 0, 74, 0
2, 15072, Note_on_c, 0, 76, 56
2, 15120, Note_on_c, 0, 76, 0
2, 15120, Note_on_c, 0, 77, 56
2, 15168, Note_on_c, 0, 77, 0
2, 15168, Note_on_c, 0, 79, 56
2, 15264, Note_on_c, 0, 79, 0
2, 15264, Note_on_c, 0, 72, 56
2, 15360, Note_on_c, 0, 72, 0
2, 15360, Note_on_c, 0, 72, 56
2, 15408, Note_on_c, 0, 72, 0
2, 15408, Note_on_c, 0, 71, 56
2, 15456, Note_on_c, 0, 71, 0
2, 15456, Note_on_c, 0, 73, 56
2, 15504, Note_on_c, 0, 73, 0
2, 15504, Note_on_c, 0, 74, 56
2, 15552, Note_on_c, 0, 74, 0
2, 15552, Note_on_c, 0, 76, 56
2, 15648, Note_on_c, 0, 76, 0
2, 15648, Note_on_c, 0, 69, 56
2, 15744, Note_on_c, 0, 69, 0
2, 15744, Note_on_c, 0, 69, 56
2, 15792, Note_on_c, 0, 69, 0
2, 15792, Note_on_c, 0, 69, 56
2, 15840, Note_on_c, 0, 69, 0
2, 15840, Note_on_c, 0, 74, 56
2, 15888, Note_on_c, 0, 74, 0
2, 15888, Note_on_c, 0, 73, 56
2, 15936, Note_on_c, 0, 73, 0
2, 15936, Note_on_c, 0, 74, 56
2, 16128, Note_on_c, 0, 74, 0
2, 16128, Note_on_c, 0, 74, 56
2, 16224, Note_on_c, 0, 74, 0
2, 16224, Note_on_c, 0, 74, 56
2, 16320, Note_on_c, 0, 74, 0
2, 16320, Note_on_c, 0, 73, 56
2, 16512, Note_on_c, 0, 73, 0
2, 16512, Note_on_c, 0, 74, 56
2, 16560, Note_on_c, 0, 74, 0
2, 16560, Note_on_c, 0, 70, 56
2, 16608, Note_on_c, 0, 70, 0
2, 16608, Note_on_c, 0, 72, 56
2, 16752, Note_on_c, 0, 72, 0
2, 16752, Note_on_c, 0, 69, 56
2, 16800, Note_on_c, 0, 69, 0
2, 16800, Note_on_c, 0, 70, 56
2, 16896, Note_on_c, 0, 70, 0
2, 16896, Note_on_c, 0, 70, 56
2, 16944, Note_on_c, 0, 70, 0
2, 16944, Note_on_c, 0, 69, 56
2, 16992, Note_on_c, 0, 69, 0
2, 16992, Note_on_c, 0, 74, 56
2, 17136, Note_on_c, 0, 74, 0
2, 17136, Note_on_c, 0, 73, 56
2, 17184, Note_on_c, 0, 73, 0
2, 17184, Note_on_c, 0, 74, 56
2, 17280, Note_on_c, 0, 74, 0
2, 17280, Note_on_c, 0, 74, 56
2, 17328, Note_on_c, 0, 74, 0
2, 17328, Note_on_c, 0, 73, 56
2, 17376, Note_on_c, 0, 73, 0
2, 17376, Note_on_c, 0, 74, 56
2, 17424, Note_on_c, 0, 74, 0
2, 17424, Note_on_c, 0, 76, 56
2, 17472, Note_on_c, 0, 76, 0
2, 17472, Note_on_c, 0, 77, 56
2, 17616, Note_on_c, 0, 77, 0
2, 17616, Note_on_c, 0, 76, 56
2, 17664, Note_on_c, 0, 76, 0
2, 17664, Note_on_c, 0, 74, 56
2, 17856, Note_on_c, 0, 74, 0
2, 17856, Note_on_c, 0, 74, 56
2, 17904, Note_on_c, 0, 74, 0
2, 17904, Note_on_c, 0, 73, 56
2, 17952, Note_on_c, 0, 73, 0
2, 17952, Note_on_c, 0, 74, 56
2, 18000, Note_on_c, 0, 74, 0
2, 18000, Note_on_c, 0, 76, 56
2, 18048, Note_on_c, 0, 76, 0
2, 18048, Note_on_c, 0, 73, 56
2, 18144, Note_on_c, 0, 73, 0
2, 18912, Note_on_c, 0, 74, 56
2, 18960, Note_on_c, 0, 74, 0
2, 18960, Note_on_c, 0, 76, 56
2, 19008, Note_on_c, 0, 76, 0
2, 19008, Note_on_c, 0, 77, 56
2, 19056, Note_on_c, 0, 77, 0
2, 19056, Note_on_c, 0, 79, 56
2, 19104, Note_on_c, 0, 79, 0
2, 19104, Note_on_c, 0, 81, 56
2, 19152, Note_on_c, 0, 81, 0
2, 19152, Note_on_c, 0, 77, 56
2, 19200, Note_on_c, 0, 77, 0
2, 19200, Note_on_c, 0, 79, 56
2, 19248, Note_on_c, 0, 79, 0
2, 19248, Note_on_c, 0, 81, 56
2, 19296, Note_on_c, 0, 81, 0
2, 19296, Note_on_c, 0, 82, 56
2, 19344, Note_on_c, 0, 82, 0
2, 19344, Note_on_c, 0, 79, 56
2, 19392, Note_on_c, 0, 79, 0
2, 19392, Note_on_c, 0, 76, 56
2, 19440, Note_on_c, 0, 76, 0
2, 19440, Note_on_c, 0, 81, 56
2, 19488, Note_on_c, 0, 81, 0
2, 19488, Note_on_c, 0, 79, 56
2, 19536, Note_on_c, 0, 79, 0
2, 19536, Note_on_c, 0, 81, 56
2, 19584, Note_on_c, 0, 81, 0
2, 19584, Note_on_c, 0, 77, 56
2, 19632, Note_on_c, 0, 77, 0
2, 19632, Note_on_c, 0, 76, 56
2, 19680, Note_on_c, 0, 76, 0
2, 19680, Note_on_c, 0, 74, 56
2, 19824, Note_on_c, 0, 74, 0
2, 19824, Note_on_c, 0, 71, 56
2, 19872, Note_on_c, 0, 71, 0
2, 19872, Note_on_c, 0, 72, 56
2, 19920, Note_on_c, 0, 72, 0
2, 19920, Note_on_c, 0, 74, 56
2, 19968, Note_on_c, 0, 74, 0
2, 19968, Note_on_c, 0, 76, 56
2, 20016, Note_on_c, 0, 76, 0
2, 20016, Note_on_c, 0, 74, 56
2, 20064, Note_on_c, 0, 74, 0
2, 20064, Note_on_c, 0, 72, 56
2, 20208, Note_on_c, 0, 72, 0
2, 20208, Note_on_c, 0, 71, 56
2, 20256, Note_on_c, 0, 71, 0
2, 20256, Note_on_c, 0, 76, 56
2, 20352, Note_on_c, 0, 76, 0
2, 20352, Note_on_c, 0, 76, 56
2, 20448, Note_on_c, 0, 76, 0
2, 20448, Note_on_c, 0, 74, 56
2, 20544, Note_on_c, 0, 74, 0
2, 20544, Note_on_c, 0, 72, 56
2, 20640, Note_on_c, 0, 72, 0
2, 20640, Note_on_c, 0, 71, 56
2, 20736, Note_on_c, 0, 71, 0
2, 20736, Note_on_c, 0, 69, 56
2, 20928, Note_on_c, 0, 69, 0
2, 21984, Note_on_c, 0, 69, 72
2, 22032, Note_on_c, 0, 69, 0
2, 22032, Note_on_c, 0, 71, 72
2, 22080, Note_on_c, 0, 71, 0
2, 22080, Note_on_c, 0, 73, 72
2, 22128, Note_on_c, 0, 73, 0
2, 22128, Note_on_c, 0, 74, 72
2, 22176, Note_on_c, 0, 74, 0
2, 22176, Note_on_c, 0, 76, 72
2, 22224, Note_on_c, 0, 76, 0
2, 22224, Note_on_c, 0, 77, 72
2, 22272, Note_on_c, 0, 77, 0
2, 22272, Note_on_c, 0, 79, 72
2, 22320, Note_on_c, 0, 79, 0
2, 22320, Note_on_c, 0, 81, 72
2, 22368, Note_on_c, 0, 81, 0
2, 22368, Note_on_c, 0, 82, 72
2, 22416, Note_on_c, 0, 82, 0
2, 22416, Note_on_c, 0, 79, 72
2, 22464, Note_on_c, 0, 79, 0
2, 22464, Note_on_c, 0, 76, 72
2, 22512, Note_on_c, 0, 76, 0
2, 22512, Note_on_c, 0, 81, 72
2, 22560, Note_on_c, 0, 81, 0
2, 22560, Note_on_c, 0, 79, 72
2, 22608, Note_on_c, 0, 79, 0
2, 22608, Note_on_c, 0, 81, 72
2, 22656, Note_on_c, 0, 81, 0
2, 22656, Note_on_c, 0, 77, 72
2, 22704, Note_on_c, 0, 77, 0
2, 22704, Note_on_c, 0, 79, 72
2, 22752, Note_on_c, 0, 79, 0
2, 22752, Note_on_c, 0, 77, 72
2, 22800, Note_on_c, 0, 77, 0
2, 22800, Note_on_c, 0, 76, 72
2, 22848, Note_on_c, 0, 76, 0
2, 22848, Note_on_c, 0, 74, 72
2, 22896, Note_on_c, 0, 74, 0
2, 22896, Note_on_c, 0, 76, 72
2, 22944, Note_on_c, 0, 76, 0
2, 22944, Note_on_c, 0, 77, 72
2, 22992, Note_on_c, 0, 77, 0
2, 22992, Note_on_c, 0, 74, 72
2, 23040, Note_on_c, 0, 74, 0
2, 23040, Note_on_c, 0, 76, 56
2, 23088, Note_on_c, 0, 76, 0
2, 23088, Note_on_c, 0, 78, 56
2, 23136, Note_on_c, 0, 78, 0
2, 23136, Note_on_c, 0, 79, 56
2, 23328, Note_on_c, 0, 79, 0
2, 23328, Note_on_c, 0, 78, 56
2, 23424, Note_on_c, 0, 78, 0
2, 23424, Note_on_c, 0, 79, 56
2, 23520, Note_on_c, 0, 79, 0
2, 23520, Note_on_c, 0, 74, 56
2, 23616, Note_on_c, 0, 74, 0
2, 23616, Note_on_c, 0, 79, 56
2, 23808, Note_on_c, 0, 79, 0
2, 23808, Note_on_c, 0, 79, 56
2, 23904, Note_on_c, 0, 79, 0
2, 23904, Note_on_c, 0, 77, 56
2, 23952, Note_on_c, 0, 77, 0
2, 23952, Note_on_c, 0, 76, 56
2, 24000, Note_on_c, 0, 76, 0
2, 24000, Note_on_c, 0, 77, 56
2, 24096, Note_on_c, 0, 77, 0
2, 24096, Note_on_c, 0, 74, 56
2, 24192, Note_on_c, 0, 74, 0
2, 24192, Note_on_c, 0, 72, 56
2, 24480, Note_on_c, 0, 72, 0
2, 24480, Note_on_c, 0, 72, 56
2, 24576, Note_on_c, 0, 72, 0
2, 24576, Note_on_c, 0, 77, 56
2, 24768, Note_on_c, 0, 77, 0
2, 24768, Note_on_c, 0, 77, 56
2, 24816, Note_on_c, 0, 77, 0
2, 24816, Note_on_c, 0, 79, 56
2, 24864, Note_on_c, 0, 79, 0
2, 24864, Note_on_c, 0, 77, 56
2, 24912, Note_on_c, 0, 77, 0
2, 24912, Note_on_c, 0, 79, 56
2, 24960, Note_on_c, 0, 79, 0
2, 24960, Note_on_c, 0, 76, 56
2, 25056, Note_on_c, 0, 76, 0
2, 25056, Note_on_c, 0, 69, 88
2, 25152, Note_on_c, 0, 69, 0
2, 25152, Note_on_c, 0, 70, 88
2, 25248, Note_on_c, 0, 70, 0
2, 25248, Note_on_c, 0, 65, 88
2, 25344, Note_on_c, 0, 65, 0
2, 25440, Note_on_c, 0, 74, 88
2, 25536, Note_on_c, 0, 74, 0
2, 25536, Note_on_c, 0, 72, 88
2, 25632, Note_on_c, 0, 72, 0
2, 25632, Note_on_c, 0, 77, 88
2, 25728, Note_on_c, 0, 77, 0
2, 25728, Note_on_c, 0, 70, 88
2, 25776, Note_on_c, 0, 70, 0
2, 25776, Note_on_c, 0, 72, 88
2, 25824, Note_on_c, 0, 72, 0
2, 25824, Note_on_c, 0, 74, 88
2, 25872, Note_on_c, 0, 74, 0
2, 25872, Note_on_c, 0, 76, 88
2, 25920, Note_on_c, 0, 76, 0
2, 25920, Note_on_c, 0, 77, 88
2, 25968, Note_on_c, 0, 77, 0
2, 25968, Note_on_c, 0, 79, 88
2, 26016, Note_on_c, 0, 79, 0
2, 26016, Note_on_c, 0, 81, 88
2, 26112, Note_on_c, 0, 81, 0
2, 26112, Note_on_c, 0, 81, 88
2, 26160, Note_on_c, 0, 81, 0
2, 26160, Note_on_c, 0, 79, 88
2, 26208, Note_on_c, 0, 79, 0
2, 26208, Note_on_c, 0, 77, 88
2, 26256, Note_on_c, 0, 77, 0
2, 26256, Note_on_c, 0, 76, 88
2, 26304, Note_on_c, 0, 76, 0
2, 26304, Note_on_c, 0, 74, 88
2, 26496, Note_on_c, 0, 74, 0
2, 26496, Note_on_c, 0, 72, 72
2, 26688, Note_on_c, 0, 72, 0
2, 26688, Note_on_c, 0, 72, 72
2, 26736, Note_on_c, 0, 72, 0
2, 26736, Note_on_c, 0, 72, 72
2, 26784, Note_on_c, 0, 72, 0
2, 26784, Note_on_c, 0, 74, 72
2, 26832, Note_on_c, 0, 74, 0
2, 26832, Note_on_c, 0, 76, 72
2, 26880, Note_on_c, 0, 76, 0
2, 26880, Note_on_c, 0, 77, 72
2, 27072, Note_on_c, 0, 77, 0
2, 27072, Note_on_c, 0, 77, 72
2, 27120, Note_on_c, 0, 77, 0
2, 27120, Note_on_c, 0, 78, 72
2, 27168, Note_on_c, 0, 78, 0
2, 27168, Note_on_c, 0, 79, 72
2, 27216, Note_on_c, 0, 79, 0
2, 27216, Note_on_c, 0, 81, 72
2, 27264, Note_on_c, 0, 81, 0
2, 27264, Note_on_c, 0, 82, 72
2, 27456, Note_on_c, 0, 82, 0
2, 27504, Note_on_c, 0, 74, 72
2, 27552, Note_on_c, 0, 74, 0
2, 27552, Note_on_c, 0, 76, 72
2, 27600, Note_on_c, 0, 76, 0
2, 27600, Note_on_c, 0, 77, 72
2, 27648, Note_on_c, 0, 77, 0
2, 27648, Note_on_c, 0, 79, 72
2, 27840, Note_on_c, 0, 79, 0
2, 27840, Note_on_c, 0, 79, 72
2, 27888, Note_on_c, 0, 79, 0
2, 27888, Note_on_c, 0, 80, 72
2, 27936, Note_on_c, 0, 80, 0
2, 27936, Note_on_c, 0, 81, 72
2, 27984, Note_on_c, 0, 81, 0
2, 27984, Note_on_c, 0, 83, 72
2, 28032, Note_on_c, 0, 83, 0
2, 28032, Note_on_c, 0, 84, 72
2, 28224, Note_on_c, 0, 84, 0
2, 28272, Note_on_c, 0, 76, 72
2, 28320, Note_on_c, 0, 76, 0
2, 28320, Note_on_c, 0, 77, 72
2, 28368, Note_on_c, 0, 77, 0
2, 28368, Note_on_c, 0, 79, 72
2, 28416, Note_on_c, 0, 79, 0
2, 28416, Note_on_c, 0, 81, 88
2, 28608, Note_on_c, 0, 81, 0
2, 28608, Note_on_c, 0, 74, 88
2, 28752, Note_on_c, 0, 74, 0
2, 28752, Note_on_c, 0, 76, 88
2, 28800, Note_on_c, 0, 76, 0
2, 28800, Note_on_c, 0, 77, 88
2, 28944, Note_on_c, 0, 77, 0
2, 28944, Note_on_c, 0, 79, 88
2, 28992, Note_on_c, 0, 79, 0
2, 28992, Note_on_c, 0, 81, 88
2, 29184, Note_on_c, 0, 81, 0
2, 29184, Note_on_c, 0, 82, 88
2, 29376, Note_on_c, 0, 82, 0
2, 29376, Note_on_c, 0, 81, 88
2, 29520, Note_on_c, 0, 81, 0
2, 29520, Note_on_c, 0, 79, 88
2, 29568, Note_on_c, 0, 79, 0
2, 29568, Note_on_c, 0, 77, 88
2, 29760, Note_on_c, 0, 77, 0
2, 29760, Note_on_c, 0, 77, 88
2, 29808, Note_on_c, 0, 77, 0
2, 29808, Note_on_c, 0, 76, 88
2, 29856, Note_on_c, 0, 76, 0
2, 29856, Note_on_c, 0, 77, 88
2, 29904, Note_on_c, 0, 77, 0
2, 29904, Note_on_c, 0, 79, 88
2, 29952, Note_on_c, 0, 79, 0
2, 29952, Note_on_c, 0, 81, 88
2, 30000, Note_on_c, 0, 81, 0
2, 30000, Note_on_c, 0, 77, 72
2, 30048, Note_on_c, 0, 77, 0
2, 30048, Note_on_c, 0, 79, 72
2, 30192, Note_on_c, 0, 79, 0
2, 30192, Note_on_c, 0, 74, 72
2, 30240, Note_on_c, 0, 74, 0
2, 30240, Note_on_c, 0, 76, 72
2, 30288, Note_on_c, 0, 76, 0
2, 30288, Note_on_c, 0, 79, 72
2, 30336, Note_on_c, 0, 79, 0
2, 30336, Note_on_c, 0, 72, 72
2, 30528, Note_on_c, 0, 72, 0
2, 30528, Note_on_c, 0, 70, 72
2, 30720, Note_on_c, 0, 70, 0
2, 30720, Note_on_c, 0, 70, 72
2, 30768, Note_on_c, 0, 70, 0
2, 30768, Note_on_c, 0, 67, 72
2, 30816, Note_on_c, 0, 67, 0
2, 30816, Note_on_c, 0, 69, 72
2, 30864, Note_on_c, 0, 69, 0
2, 30864, Note_on_c, 0, 72, 72
2, 30912, Note_on_c, 0, 72, 0
2, 30912, Note_on_c, 0, 77, 72
2, 31104, Note_on_c, 0, 77, 0
2, 31104, Note_on_c, 0, 77, 72
2, 31200, Note_on_c, 0, 77, 0
2, 31200, Note_on_c, 0, 71, 72
2, 31296, Note_on_c, 0, 71, 0
2, 31296, Note_on_c, 0, 76, 72
2, 31488, Note_on_c, 0, 76, 0
2, 31488, Note_on_c, 0, 76, 72
2, 31584, Note_on_c, 0, 76, 0
2, 31584, Note_on_c, 0, 74, 72
2, 31680, Note_on_c, 0, 74, 0
2, 31728, Note_on_c, 0, 76, 72
2, 31776, Note_on_c, 0, 76, 0
2, 31776, Note_on_c, 0, 77, 72
2, 31824, Note_on_c, 0, 77, 0
2, 31824, Note_on_c, 0, 81, 72
2, 31872, Note_on_c, 0, 81, 0
2, 31872, Note_on_c, 0, 74, 72
2, 32064, Note_on_c, 0, 74, 0
2, 32064, Note_on_c, 0, 72, 72
2, 32256, Note_on_c, 0, 72, 0
2, 32256, Note_on_c, 0, 72, 72
2, 32304, Note_on_c, 0, 72, 0
2, 32304, Note_on_c, 0, 69, 72
2, 32352, Note_on_c, 0, 69, 0
2, 32352, Note_on_c, 0, 71, 72
2, 32400, Note_on_c, 0, 71, 0
2, 32400, Note_on_c, 0, 73, 72
2, 32448, Note_on_c, 0, 73, 0
2, 32448, Note_on_c, 0, 74, 88
2, 32544, Note_on_c, 0, 74, 0
2, 32544, Note_on_c, 0, 69, 88
2, 32640, Note_on_c, 0, 69, 0
2, 32736, Note_on_c, 0, 77, 88
2, 32832, Note_on_c, 0, 77, 0
2, 32832, Note_on_c, 0, 76, 88
2, 32928, Note_on_c, 0, 76, 0
2, 32928, Note_on_c, 0, 81, 88
2, 33024, Note_on_c, 0, 81, 0
2, 33024, Note_on_c, 0, 74, 88
2, 33072, Note_on_c, 0, 74, 0
2, 33072, Note_on_c, 0, 76, 88
2, 33120, Note_on_c, 0, 76, 0
2, 33120, Note_on_c, 0, 77, 88
2, 33168, Note_on_c, 0, 77, 0
2, 33168, Note_on_c, 0, 79, 88
2, 33216, Note_on_c, 0, 79, 0
2, 33216, Note_on_c, 0, 81, 88
2, 33264, Note_on_c, 0, 81, 0
2, 33264, Note_on_c, 0, 82, 88
2, 33312, Note_on_c, 0, 82, 0
2, 33312, Note_on_c, 0, 84, 88
2, 33408, Note_on_c, 0, 84, 0
2, 33408, Note_on_c, 0, 84, 88
2, 33456, Note_on_c, 0, 84, 0
2, 33456, Note_on_c, 0, 82, 88
2, 33504, Note_on_c, 0, 82, 0
2, 33504, Note_on_c, 0, 81, 88
2, 33552, Note_on_c, 0, 81, 0
2, 33552, Note_on_c, 0, 79, 88
2, 33600, Note_on_c, 0, 79, 0
2, 33600, Note_on_c, 0, 77, 88
2, 33792, Note_on_c, 0, 77, 0
2, 33792, Note_on_c, 0, 76, 88
2, 33984, Note_on_c, 0, 76, 0
2, 34416, Note_on_c, 0, 72, 56
2, 34464, Note_on_c, 0, 72, 0
2, 34464, Note_on_c, 0, 74, 56
2, 34512, Note_on_c, 0, 74, 0
2, 34512, Note_on_c, 0, 72, 56
2, 34560, Note_on_c, 0, 72, 0
2, 34560, Note_on_c, 0, 70, 56
2, 34752, Note_on_c, 0, 70, 0
2, 34992, Note_on_c, 0, 77, 56
2, 35040, Note_on_c, 0, 77, 0
2, 35040, Note_on_c, 0, 79, 56
2, 35088, Note_on_c, 0, 79, 0
2, 35088, Note_on_c, 0, 77, 56
2, 35136, Note_on_c, 0, 77, 0
2, 35136, Note_on_c, 0, 76, 56
2, 35232, Note_on_c, 0, 76, 0
2, 35232, Note_on_c, 0, 81, 56
2, 35328, Note_on_c, 0, 81, 0
2, 35328, Note_on_c, 0, 77, 56
2, 35376, Note_on_c, 0, 77, 0
2, 35376, Note_on_c, 0, 81, 56
2, 35424, Note_on_c, 0, 81, 0
2, 35424, Note_on_c, 0, 82, 56
2, 35472, Note_on_c, 0, 82, 0
2, 35472, Note_on_c, 0, 81, 56
2, 35520, Note_on_c, 0, 81, 0
2, 35520, Note_on_c, 0, 79, 56
2, 35616, Note_on_c, 0, 79, 0
2, 35616, Note_on_c, 0, 84, 56
2, 35712, Note_on_c, 0, 84, 0
2, 35712, Note_on_c, 0, 77, 56
2, 35808, Note_on_c, 0, 77, 0
2, 35808, Note_on_c, 0, 82, 56
2, 35904, Note_on_c, 0, 82, 0
2, 36000, Note_on_c, 0, 77, 56
2, 36096, Note_on_c, 0, 77, 0
2, 36096, Note_on_c, 0, 77, 56
2, 36192, Note_on_c, 0, 77, 0
2, 36192, Note_on_c, 0, 75, 56
2, 36384, Note_on_c, 0, 75, 0
2, 36384, Note_on_c, 0, 74, 56
2, 36480, Note_on_c, 0, 74, 0
2, 36480, Note_on_c, 0, 74, 56
2, 36576, Note_on_c, 0, 74, 0
2, 36576, Note_on_c, 0, 72, 56
2, 36768, Note_on_c, 0, 72, 0
2, 36768, Note_on_c, 0, 70, 56
2, 36864, Note_on_c, 0, 70, 0
2, 36864, Note_on_c, 0, 70, 56
2, 36960, Note_on_c, 0, 70, 0
2, 36960, Note_on_c, 0, 69, 56
2, 37104, Note_on_c, 0, 69, 0
2, 37104, Note_on_c, 0, 67, 56
2, 37152, Note_on_c, 0, 67, 0
2, 37152, Note_on_c, 0, 79, 56
2, 37248, Note_on_c, 0, 79, 0
2, 37248, Note_on_c, 0, 79, 56
2, 37296, Note_on_c, 0, 79, 0
2, 37296, Note_on_c, 0, 76, 56
2, 37344, Note_on_c, 0, 76, 0
2, 37344, Note_on_c, 0, 78, 56
2, 37440, Note_on_c, 0, 78, 0
2, 37440, Note_on_c, 0, 77, 56
2, 37632, Note_on_c, 0, 77, 0
2, 37632, Note_on_c, 0, 77, 56
2, 37728, Note_on_c, 0, 77, 0
2, 37728, Note_on_c, 0, 75, 56
2, 37776, Note_on_c, 0, 75, 0
2, 37776, Note_on_c, 0, 74, 56
2, 37824, Note_on_c, 0, 74, 0
2, 37824, Note_on_c, 0, 75, 56
2, 38016, Note_on_c, 0, 75, 0
2, 38016, Note_on_c, 0, 75, 56
2, 38112, Note_on_c, 0, 75, 0
2, 38112, Note_on_c, 0, 74, 56
2, 38160, Note_on_c, 0, 74, 0
2, 38160, Note_on_c, 0, 72, 56
2, 38208, Note_on_c, 0, 72, 0
2, 38208, Note_on_c, 0, 74, 56
2, 38256, Note_on_c, 0, 74, 0
2, 38256, Note_on_c, 0, 75, 56
2, 38304, Note_on_c, 0, 75, 0
2, 38304, Note_on_c, 0, 77, 56
2, 38400, Note_on_c, 0, 77, 0
2, 38400, Note_on_c, 0, 77, 56
2, 38448, Note_on_c, 0, 77, 0
2, 38448, Note_on_c, 0, 74, 56
2, 38496, Note_on_c, 0, 74, 0
2, 38496, Note_on_c, 0, 76, 56
2, 38544, Note_on_c, 0, 76, 0
2, 38544, Note_on_c, 0, 77, 56
2, 38592, Note_on_c, 0, 77, 0
2, 38592, Note_on_c, 0, 79, 56
2, 38688, Note_on_c, 0, 79, 0
2, 38688, Note_on_c, 0, 70, 56
2, 38784, Note_on_c, 0, 70, 0
2, 38784, Note_on_c, 0, 70, 56
2, 38832, Note_on_c, 0, 70, 0
2, 38832, Note_on_c, 0, 67, 56
2, 38880, Note_on_c, 0, 67, 0
2, 38880, Note_on_c, 0, 69, 56
2, 38928, Note_on_c, 0, 69, 0
2, 38928, Note_on_c, 0, 70, 56
2, 38976, Note_on_c, 0, 70, 0
2, 38976, Note_on_c, 0, 72, 56
2, 39024, Note_on_c, 0, 72, 0
2, 39024, Note_on_c, 0, 74, 56
2, 39072, Note_on_c, 0, 74, 0
2, 39072, Note_on_c, 0, 75, 56
2, 39120, Note_on_c, 0, 75, 0
2, 39120, Note_on_c, 0, 72, 56
2, 39168, Note_on_c, 0, 72, 0
2, 39168, Note_on_c, 0, 74, 56
2, 39264, Note_on_c, 0, 74, 0
2, 39264, Note_on_c, 0, 77, 88
2, 39360, Note_on_c, 0, 77, 0
2, 39360, Note_on_c, 0, 70, 88
2, 39504, Note_on_c, 0, 70, 0
2, 39504, Note_on_c, 0, 72, 88
2, 39552, Note_on_c, 0, 72, 0
2, 39552, Note_on_c, 0, 74, 88
2, 39696, Note_on_c, 0, 74, 0
2, 39696, Note_on_c, 0, 76, 88
2, 39744, Note_on_c, 0, 76, 0
2, 39744, Note_on_c, 0, 77, 88
2, 39936, Note_on_c, 0, 77, 0
2, 39936, Note_on_c, 0, 79, 88
2, 40128, Note_on_c, 0, 79, 0
2, 40128, Note_on_c, 0, 77, 88
2, 40272, Note_on_c, 0, 77, 0
2, 40272, Note_on_c, 0, 75, 88
2, 40320, Note_on_c, 0, 75, 0
2, 40320, Note_on_c, 0, 74, 88
2, 40512, Note_on_c, 0, 74, 0
2, 40512, Note_on_c, 0, 74, 88
2, 40560, Note_on_c, 0, 74, 0
2, 40560, Note_on_c, 0, 72, 88
2, 40608, Note_on_c, 0, 72, 0
2, 40608, Note_on_c, 0, 74, 88
2, 40656, Note_on_c, 0, 74, 0
2, 40656, Note_on_c, 0, 76, 88
2, 40704, Note_on_c, 0, 76, 0
2, 40704, Note_on_c, 0, 77, 88
2, 40800, Note_on_c, 0, 77, 0
2, 40800, Note_on_c, 0, 65, 72
2, 40848, Note_on_c, 0, 65, 0
2, 40848, Note_on_c, 0, 67, 72
2, 40896, Note_on_c, 0, 67, 0
2, 40896, Note_on_c, 0, 69, 72
2, 40944, Note_on_c, 0, 69, 0
2, 40944, Note_on_c, 0, 70, 72
2, 40992, Note_on_c, 0, 70, 0
2, 40992, Note_on_c, 0, 72, 72
2, 41040, Note_on_c, 0, 72, 0
2, 41040, Note_on_c, 0, 74, 72
2, 41088, Note_on_c, 0, 74, 0
2, 41088, Note_on_c, 0, 75, 72
2, 41136, Note_on_c, 0, 75, 0
2, 41136, Note_on_c, 0, 77, 72
2, 41184, Note_on_c, 0, 77, 0
2, 41184, Note_on_c, 0, 79, 72
2, 41232, Note_on_c, 0, 79, 0
2, 41232, Note_on_c, 0, 75, 72
2, 41280, Note_on_c, 0, 75, 0
2, 41280, Note_on_c, 0, 72, 72
2, 41328, Note_on_c, 0, 72, 0
2, 41328, Note_on_c, 0, 77, 72
2, 41376, Note_on_c, 0, 77, 0
2, 41376, Note_on_c, 0, 75, 72
2, 41424, Note_on_c, 0, 75, 0
2, 41424, Note_on_c, 0, 77, 72
2, 41472, Note_on_c, 0, 77, 0
2, 41472, Note_on_c, 0, 74, 72
2, 41520, Note_on_c, 0, 74, 0
2, 41520, Note_on_c, 0, 75, 72
2, 41568, Note_on_c, 0, 75, 0
2, 41568, Note_on_c, 0, 77, 72
2, 41616, Note_on_c, 0, 77, 0
2, 41616, Note_on_c, 0, 74, 72
2, 41664, Note_on_c, 0, 74, 0
2, 41664, Note_on_c, 0, 70, 72
2, 41712, Note_on_c, 0, 70, 0
2, 41712, Note_on_c, 0, 67, 72
2, 41760, Note_on_c, 0, 67, 0
2, 41760, Note_on_c, 0, 79, 72
2, 41856, Note_on_c, 0, 79, 0
2, 41856, Note_on_c, 0, 79, 72
2, 41952, Note_on_c, 0, 79, 0
2, 41952, Note_on_c, 0, 79, 72
2, 42144, Note_on_c, 0, 79, 0
2, 42144, Note_on_c, 0, 78, 72
2, 42240, Note_on_c, 0, 78, 0
2, 42240, Note_on_c, 0, 79, 72
2, 42288, Note_on_c, 0, 79, 0
2, 42288, Note_on_c, 0, 77, 72
2, 42336, Note_on_c, 0, 77, 0
2, 42336, Note_on_c, 0, 75, 72
2, 42384, Note_on_c, 0, 75, 0
2, 42384, Note_on_c, 0, 74, 72
2, 42432, Note_on_c, 0, 74, 0
2, 42432, Note_on_c, 0, 73, 72
2, 42528, Note_on_c, 0, 73, 0
2, 42528, Note_on_c, 0, 74, 72
2, 42624, Note_on_c, 0, 74, 0
2, 42624, Note_on_c, 0, 76, 72
2, 42816, Note_on_c, 0, 76, 0
2, 42816, Note_on_c, 0, 76, 72
2, 42864, Note_on_c, 0, 76, 0
2, 42864, Note_on_c, 0, 69, 72
2, 42912, Note_on_c, 0, 69, 0
2, 42912, Note_on_c, 0, 74, 72
2, 42960, Note_on_c, 0, 74, 0
2, 42960, Note_on_c, 0, 72, 72
2, 43008, Note_on_c, 0, 72, 0
2, 43008, Note_on_c, 0, 70, 72
2, 43392, Note_on_c, 0, 70, 0
2, 43392, Note_on_c, 0, 70, 72
2, 43440, Note_on_c, 0, 70, 0
2, 43440, Note_on_c, 0, 70, 72
2, 43488, Note_on_c, 0, 70, 0
2, 43488, Note_on_c, 0, 69, 72
2, 43536, Note_on_c, 0, 69, 0
2, 43536, Note_on_c, 0, 67, 72
2, 43584, Note_on_c, 0, 67, 0
2, 43584, Note_on_c, 0, 65, 72
2, 43728, Note_on_c, 0, 65, 0
2, 43728, Note_on_c, 0, 65, 72
2, 43776, Note_on_c, 0, 65, 0
2, 43776, Note_on_c, 0, 64, 72
2, 43824, Note_on_c, 0, 64, 0
2, 43824, Note_on_c, 0, 69, 72
2, 43920, Note_on_c, 0, 69, 0
2, 43920, Note_on_c, 0, 67, 72
2, 43968, Note_on_c, 0, 67, 0
2, 43968, Note_on_c, 0, 65, 72
2, 44016, Note_on_c, 0, 65, 0
2, 44016, Note_on_c, 0, 64, 72
2, 44064, Note_on_c, 0, 64, 0
2, 44064, Note_on_c, 0, 65, 72
2, 44112, Note_on_c, 0, 65, 0
2, 44112, Note_on_c, 0, 67, 72
2, 44160, Note_on_c, 0, 67, 0
2, 44160, Note_on_c, 0, 69, 72
2, 44208, Note_on_c, 0, 69, 0
2, 44208, Note_on_c, 0, 67, 72
2, 44256, Note_on_c, 0, 67, 0
2, 44256, Note_on_c, 0, 69, 72
2, 44304, Note_on_c, 0, 69, 0
2, 44304, Note_on_c, 0, 70, 72
2, 44352, Note_on_c, 0, 70, 0
2, 44352, Note_on_c, 0, 72, 72
2, 44400, Note_on_c, 0, 72, 0
2, 44400, Note_on_c, 0, 74, 72
2, 44448, Note_on_c, 0, 74, 0
2, 44448, Note_on_c, 0, 75, 72
2, 44496, Note_on_c, 0, 75, 0
2, 44496, Note_on_c, 0, 72, 72
2, 44544, Note_on_c, 0, 72, 0
2, 44544, Note_on_c, 0, 74, 72
2, 44736, Note_on_c, 0, 74, 0
2, 44736, Note_on_c, 0, 72, 88
2, 44832, Note_on_c, 0, 72, 0
2, 44832, Note_on_c, 0, 77, 88
2, 44880, Note_on_c, 0, 77, 0
2, 44880, Note_on_c, 0, 76, 88
2, 44928, Note_on_c, 0, 76, 0
2, 44928, Note_on_c, 0, 77, 88
2, 45072, Note_on_c, 0, 77, 0
2, 45072, Note_on_c, 0, 73, 88
2, 45120, Note_on_c, 0, 73, 0
2, 45120, Note_on_c, 0, 74, 88
2, 45312, Note_on_c, 0, 74, 0
2, 45312, Note_on_c, 0, 74, 88
2, 45456, Note_on_c, 0, 74, 0
2, 45456, Note_on_c, 0, 74, 88
2, 45600, Note_on_c, 0, 74, 0
2, 45600, Note_on_c, 0, 73, 88
2, 45696, Note_on_c, 0, 73, 0
2, 45696, Note_on_c, 0, 74, 88
2, 45984, Note_on_c, 0, 74, 0
2, 46080, End_track
3, 0, Start_track
3, 96, Note_on_c, 0, 61, 88
3, 192, Note_on_c, 0, 61, 0
3, 192, Note_on_c, 0, 62, 88
3, 288, Note_on_c, 0, 62, 0
3, 288, Note_on_c, 0, 57, 88
3, 384, Note_on_c, 0, 57, 0
3, 480, Note_on_c, 0, 65, 88
3, 576, Note_on_c, 0, 65, 0
3, 576, Note_on_c, 0, 64, 88
3, 672, Note_on_c, 0, 64, 0
3, 672, Note_on_c, 0, 69, 88
3, 768, Note_on_c, 0, 69, 0
3, 768, Note_on_c, 0, 62, 88
3, 816, Note_on_c, 0, 62, 0
3, 816, Note_on_c, 0, 64, 88
3, 864, Note_on_c, 0, 64, 0
3, 864, Note_on_c, 0, 65, 88
3, 912, Note_on_c, 0, 65, 0
3, 912, Note_on_c, 0, 67, 88
3, 960, Note_on_c, 0, 67, 0
3, 960, Note_on_c, 0, 69, 88
3, 1008, Note_on_c, 0, 69, 0
3, 1008, Note_on_c, 0, 70, 88
3, 1056, Note_on_c, 0, 70, 0
3, 1056, Note_on_c, 0, 72, 88
3, 1152, Note_on_c, 0, 72, 0
3, 1152, Note_on_c, 0, 72, 88
3, 1200, Note_on_c, 0, 72, 0
3, 1200, Note_on_c, 0, 70, 88
3, 1248, Note_on_c, 0, 70, 0
3, 1248, Note_on_c, 0, 69, 88
3, 1296, Note_on_c, 0, 69, 0
3, 1296, Note_on_c, 0, 67, 88
3, 1344, Note_on_c, 0, 67, 0
3, 1344, Note_on_c, 0, 66, 72
3, 1392, Note_on_c, 0, 66, 0
3, 1392, Note_on_c, 0, 62, 72
3, 1440, Note_on_c, 0, 62, 0
3, 1440, Note_on_c, 0, 67, 72
3, 1536, Note_on_c, 0, 67, 0
3, 1536, Note_on_c, 0, 67, 72
3, 1584, Note_on_c, 0, 67, 0
3, 1584, Note_on_c, 0, 64, 72
3, 1632, Note_on_c, 0, 64, 0
3, 1632, Note_on_c, 0, 66, 72
3, 1680, Note_on_c, 0, 66, 0
3, 1680, Note_on_c, 0, 69, 72
3, 1728, Note_on_c, 0, 69, 0
3, 1728, Note_on_c, 0, 70, 72
3, 1920, Note_on_c, 0, 70, 0
3, 1920, Note_on_c, 0, 70, 72
3, 1968, Note_on_c, 0, 70, 0
3, 1968, Note_on_c, 0, 67, 72
3, 2016, Note_on_c, 0, 67, 0
3, 2016, Note_on_c, 0, 69, 72
3, 2064, Note_on_c, 0, 69, 0
3, 2064, Note_on_c, 0, 73, 72
3, 2112, Note_on_c, 0, 73, 0
3, 2112, Note_on_c, 0, 74, 72
3, 2304, Note_on_c, 0, 74, 0
3, 2304, Note_on_c, 0, 74, 72
3, 2352, Note_on_c, 0, 74, 0
3, 2352, Note_on_c, 0, 72, 72
3, 2400, Note_on_c, 0, 72, 0
3, 2400, Note_on_c, 0, 70, 72
3, 2448, Note_on_c, 0, 70, 0
3, 2448, Note_on_c, 0, 69, 72
3, 2496, Note_on_c, 0, 69, 0
3, 2496, Note_on_c, 0, 67, 72
3, 2544, Note_on_c, 0, 67, 0
3, 2544, Note_on_c, 0, 65, 72
3, 2592, Note_on_c, 0, 65, 0
3, 2592, Note_on_c, 0, 64, 72
3, 2688, Note_on_c, 0, 64, 0
3, 2688, Note_on_c, 0, 69, 72
3, 2832, Note_on_c, 0, 69, 0
3, 2832, Note_on_c, 0, 67, 72
3, 2880, Note_on_c, 0, 67, 0
3, 2880, Note_on_c, 0, 65, 72
3, 2976, Note_on_c, 0, 65, 0
3, 2976, Note_on_c, 0, 64, 72
3, 3024, Note_on_c, 0, 64, 0
3, 3024, Note_on_c, 0, 66, 72
3, 3072, Note_on_c, 0, 66, 0
3, 3072, Note_on_c, 0, 68, 72
3, 3168, Note_on_c, 0, 68, 0
3, 3168, Note_on_c, 0, 69, 72
3, 3216, Note_on_c, 0, 69, 0
3, 3216, Note_on_c, 0, 71, 72
3, 3264, Note_on_c, 0, 71, 0
3, 3264, Note_on_c, 0, 72, 72
3, 3360, Note_on_c, 0, 72, 0
3, 3360, Note_on_c, 0, 71, 72
3, 3456, Note_on_c, 0, 71, 0
3, 3456, Note_on_c, 0, 69, 72
3, 3648, Note_on_c, 0, 69, 0
3, 5088, Note_on_c, 0, 68, 88
3, 5184, Note_on_c, 0, 68, 0
3, 5184, Note_on_c, 0, 69, 88
3, 5280, Note_on_c, 0, 69, 0
3, 5280, Note_on_c, 0, 64, 88
3, 5376, Note_on_c, 0, 64, 0
3, 5472, Note_on_c, 0, 70, 88
3, 5568, Note_on_c, 0, 70, 0
3, 5568, Note_on_c, 0, 69, 88
3, 5664, Note_on_c, 0, 69, 0
3, 5664, Note_on_c, 0, 74, 88
3, 5760, Note_on_c, 0, 74, 0
3, 5760, Note_on_c, 0, 67, 88
3, 5808, Note_on_c, 0, 67, 0
3, 5808, Note_on_c, 0, 69, 88
3, 5856, Note_on_c, 0, 69, 0
3, 5856, Note_on_c, 0, 71, 88
3, 5904, Note_on_c, 0, 71, 0
3, 5904, Note_on_c, 0, 73, 88
3, 5952, Note_on_c, 0, 73, 0
3, 5952, Note_on_c, 0, 74, 88
3, 6000, Note_on_c, 0, 74, 0
3, 6000, Note_on_c, 0, 76, 88
3, 6048, Note_on_c, 0, 76, 0
3, 6048, Note_on_c, 0, 77, 88
3, 6144, Note_on_c, 0, 77, 0
3, 6144, Note_on_c, 0, 77, 88
3, 6192, Note_on_c, 0, 77, 0
3, 6192, Note_on_c, 0, 76, 88
3, 6240, Note_on_c, 0, 76, 0
3, 6240, Note_on_c, 0, 74, 88
3, 6288, Note_on_c, 0, 74, 0
3, 6288, Note_on_c, 0, 72, 88
3, 6336, Note_on_c, 0, 72, 0
3, 6336, Note_on_c, 0, 70, 72
3, 6384, Note_on_c, 0, 70, 0
3, 6384, Note_on_c, 0, 69, 72
3, 6432, Note_on_c, 0, 69, 0
3, 6432, Note_on_c, 0, 70, 72
3, 6528, Note_on_c, 0, 70, 0
3, 6528, Note_on_c, 0, 70, 72
3, 6624, Note_on_c, 0, 70, 0
3, 6624, Note_on_c, 0, 69, 72
3, 6672, Note_on_c, 0, 69, 0
3, 6672, Note_on_c, 0, 67, 72
3, 6720, Note_on_c, 0, 67, 0
3, 6720, Note_on_c, 0, 65, 72
3, 6768, Note_on_c, 0, 65, 0
3, 6768, Note_on_c, 0, 67, 72
3, 6816, Note_on_c, 0, 67, 0
3, 6816, Note_on_c, 0, 65, 72
3, 6864, Note_on_c, 0, 65, 0
3, 6864, Note_on_c, 0, 63, 72
3, 6912, Note_on_c, 0, 63, 0
3, 6912, Note_on_c, 0, 62, 72
3, 7200, Note_on_c, 0, 62, 0
3, 7200, Note_on_c, 0, 64, 72
3, 7248, Note_on_c, 0, 64, 0
3, 7248, Note_on_c, 0, 65, 72
3, 7296, Note_on_c, 0, 65, 0
3, 7296, Note_on_c, 0, 67, 72
3, 7344, Note_on_c, 0, 67, 0
3, 7344, Note_on_c, 0, 65, 72
3, 7392, Note_on_c, 0, 65, 0
3, 7392, Note_on_c, 0, 64, 72
3, 7440, Note_on_c, 0, 64, 0
3, 7440, Note_on_c, 0, 62, 72
3, 7488, Note_on_c, 0, 62, 0
3, 7488, Note_on_c, 0, 60, 72
3, 7584, Note_on_c, 0, 60, 0
3, 7584, Note_on_c, 0, 65, 72
3, 7680, Note_on_c, 0, 65, 0
3, 7680, Note_on_c, 0, 65, 72
3, 7872, Note_on_c, 0, 65, 0
3, 7872, Note_on_c, 0, 65, 72
3, 7920, Note_on_c, 0, 65, 0
3, 7920, Note_on_c, 0, 66, 72
3, 7968, Note_on_c, 0, 66, 0
3, 7968, Note_on_c, 0, 67, 72
3, 8016, Note_on_c, 0, 67, 0
3, 8016, Note_on_c, 0, 68, 72
3, 8064, Note_on_c, 0, 68, 0
3, 8064, Note_on_c, 0, 69, 72
3, 8256, Note_on_c, 0, 69, 0
3, 8832, Note_on_c, 0, 74, 72
3, 9024, Note_on_c, 0, 74, 0
3, 9024, Note_on_c, 0, 69, 72
3, 9168, Note_on_c, 0, 69, 0
3, 9168, Note_on_c, 0, 71, 72
3, 9216, Note_on_c, 0, 71, 0
3, 9216, Note_on_c, 0, 73, 72
3, 9360, Note_on_c, 0, 73, 0
3, 9360, Note_on_c, 0, 74, 72
3, 9408, Note_on_c, 0, 74, 0
3, 9408, Note_on_c, 0, 76, 72
3, 9600, Note_on_c, 0, 76, 0
3, 9600, Note_on_c, 0, 69, 72
3, 9792, Note_on_c, 0, 69, 0
3, 12672, Note_on_c, 0, 74, 88
3, 12864, Note_on_c, 0, 74, 0
3, 12864, Note_on_c, 0, 69, 88
3, 13008, Note_on_c, 0, 69, 0
3, 13008, Note_on_c, 0, 71, 88
3, 13056, Note_on_c, 0, 71, 0
3, 13056, Note_on_c, 0, 72, 88
3, 13200, Note_on_c, 0, 72, 0
3, 13200, Note_on_c, 0, 74, 88
3, 13248, Note_on_c, 0, 74, 0
3, 13248, Note_on_c, 0, 76, 88
3, 13440, Note_on_c, 0, 76, 0
3, 13440, Note_on_c, 0, 77, 88
3, 13632, Note_on_c, 0, 77, 0
3, 13632, Note_on_c, 0, 76, 88
3, 13776, Note_on_c, 0, 76, 0
3, 13776, Note_on_c, 0, 74, 88
3, 13824, Note_on_c, 0, 74, 0
3, 13824, Note_on_c, 0, 73, 88
3, 14016, Note_on_c, 0, 73, 0
3, 14016, Note_on_c, 0, 73, 88
3, 14064, Note_on_c, 0, 73, 0
3, 14064, Note_on_c, 0, 69, 88
3, 14112, Note_on_c, 0, 69, 0
3, 14112, Note_on_c, 0, 71, 88
3, 14160, Note_on_c, 0, 71, 0
3, 14160, Note_on_c, 0, 73, 88
3, 14208, Note_on_c, 0, 73, 0
3, 14208, Note_on_c, 0, 74, 88
3, 14400, Note_on_c, 0, 74, 0
3, 14400, Note_on_c, 0, 74, 88
3, 14448, Note_on_c, 0, 74, 0
3, 14448, Note_on_c, 0, 74, 72
3, 14496, Note_on_c, 0, 74, 0
3, 14496, Note_on_c, 0, 72, 72
3, 14544, Note_on_c, 0, 72, 0
3, 14544, Note_on_c, 0, 71, 72
3, 14592, Note_on_c, 0, 71, 0
3, 14592, Note_on_c, 0, 72, 72
3, 14784, Note_on_c, 0, 72, 0
3, 14784, Note_on_c, 0, 72, 72
3, 14832, Note_on_c, 0, 72, 0
3, 14832, Note_on_c, 0, 72, 72
3, 14880, Note_on_c, 0, 72, 0
3, 14880, Note_on_c, 0, 70, 72
3, 14928, Note_on_c, 0, 70, 0
3, 14928, Note_on_c, 0, 69, 72
3, 14976, Note_on_c, 0, 69, 0
3, 14976, Note_on_c, 0, 70, 72
3, 15168, Note_on_c, 0, 70, 0
3, 15168, Note_on_c, 0, 70, 72
3, 15216, Note_on_c, 0, 70, 0
3, 15216, Note_on_c, 0, 70, 72
3, 15264, Note_on_c, 0, 70, 0
3, 15264, Note_on_c, 0, 69, 72
3, 15312, Note_on_c, 0, 69, 0
3, 15312, Note_on_c, 0, 67, 72
3, 15360, Note_on_c, 0, 67, 0
3, 15360, Note_on_c, 0, 69, 72
3, 15552, Note_on_c, 0, 69, 0
3, 15552, Note_on_c, 0, 69, 72
3, 15600, Note_on_c, 0, 69, 0
3, 15600, Note_on_c, 0, 67, 72
3, 15648, Note_on_c, 0, 67, 0
3, 15648, Note_on_c, 0, 65, 72
3, 15696, Note_on_c, 0, 65, 0
3, 15696, Note_on_c, 0, 64, 72
3, 15744, Note_on_c, 0, 64, 0
3, 15744, Note_on_c, 0, 65, 72
3, 16032, Note_on_c, 0, 65, 0
3, 16032, Note_on_c, 0, 65, 72
3, 16128, Note_on_c, 0, 65, 0
3, 16128, Note_on_c, 0, 64, 72
3, 16416, Note_on_c, 0, 64, 0
3, 16416, Note_on_c, 0, 64, 72
3, 16512, Note_on_c, 0, 64, 0
3, 16512, Note_on_c, 0, 69, 88
3, 16704, Note_on_c, 0, 69, 0
3, 16704, Note_on_c, 0, 62, 88
3, 16848, Note_on_c, 0, 62, 0
3, 16848, Note_on_c, 0, 64, 88
3, 16896, Note_on_c, 0, 64, 0
3, 16896, Note_on_c, 0, 65, 88
3, 17040, Note_on_c, 0, 65, 0
3, 17040, Note_on_c, 0, 67, 88
3, 17088, Note_on_c, 0, 67, 0
3, 17088, Note_on_c, 0, 69, 88
3, 17280, Note_on_c, 0, 69, 0
3, 17280, Note_on_c, 0, 70, 88
3, 17472, Note_on_c, 0, 70, 0
3, 17472, Note_on_c, 0, 69, 88
3, 17616, Note_on_c, 0, 69, 0
3, 17616, Note_on_c, 0, 67, 88
3, 17664, Note_on_c, 0, 67, 0
3, 17664, Note_on_c, 0, 65, 88
3, 17856, Note_on_c, 0, 65, 0
3, 17856, Note_on_c, 0, 65, 88
3, 17904, Note_on_c, 0, 65, 0
3, 17904, Note_on_c, 0, 64, 88
3, 17952, Note_on_c, 0, 64, 0
3, 17952, Note_on_c, 0, 65, 88
3, 18000, Note_on_c, 0, 65, 0
3, 18000, Note_on_c, 0, 67, 88
3, 18048, Note_on_c, 0, 67, 0
3, 18048, Note_on_c, 0, 69, 88
3, 18144, Note_on_c, 0, 69, 0
3, 18144, Note_on_c, 0, 74, 72
3, 18288, Note_on_c, 0, 74, 0
3, 18288, Note_on_c, 0, 72, 72
3, 18336, Note_on_c, 0, 72, 0
3, 18336, Note_on_c, 0, 70, 72
3, 18384, Note_on_c, 0, 70, 0
3, 18384, Note_on_c, 0, 69, 72
3, 18432, Note_on_c, 0, 69, 0
3, 18432, Note_on_c, 0, 67, 72
3, 18528, Note_on_c, 0, 67, 0
3, 18528, Note_on_c, 0, 72, 72
3, 18672, Note_on_c, 0, 72, 0
3, 18672, Note_on_c, 0, 70, 72
3, 18720, Note_on_c, 0, 70, 0
3, 18720, Note_on_c, 0, 69, 72
3, 18768, Note_on_c, 0, 69, 0
3, 18768, Note_on_c, 0, 67, 72
3, 18816, Note_on_c, 0, 67, 0
3, 18816, Note_on_c, 0, 65, 72
3, 18912, Note_on_c, 0, 65, 0
3, 18912, Note_on_c, 0, 70, 72
3, 19104, Note_on_c, 0, 70, 0
3, 19104, Note_on_c, 0, 69, 72
3, 19200, Note_on_c, 0, 69, 0
3, 19200, Note_on_c, 0, 76, 72
3, 19296, Note_on_c, 0, 76, 0
3, 19680, Note_on_c, 0, 62, 88
3, 19776, Note_on_c, 0, 62, 0
3, 19776, Note_on_c, 0, 65, 88
3, 19872, Note_on_c, 0, 65, 0
3, 19872, Note_on_c, 0, 60, 88
3, 19968, Note_on_c, 0, 60, 0
3, 20064, Note_on_c, 0, 69, 88
3, 20160, Note_on_c, 0, 69, 0
3, 20160, Note_on_c, 0, 67, 88
3, 20256, Note_on_c, 0, 67, 0
3, 20256, Note_on_c, 0, 72, 88
3, 20352, Note_on_c, 0, 72, 0
3, 20352, Note_on_c, 0, 65, 88
3, 20400, Note_on_c, 0, 65, 0
3, 20400, Note_on_c, 0, 67, 88
3, 20448, Note_on_c, 0, 67, 0
3, 20448, Note_on_c, 0, 69, 88
3, 20496, Note_on_c, 0, 69, 0
3, 20496, Note_on_c, 0, 71, 88
3, 20544, Note_on_c, 0, 71, 0
3, 20544, Note_on_c, 0, 72, 88
3, 20592, Note_on_c, 0, 72, 0
3, 20592, Note_on_c, 0, 74, 88
3, 20640, Note_on_c, 0, 74, 0
3, 20640, Note_on_c, 0, 76, 88
3, 20736, Note_on_c, 0, 76, 0
3, 20736, Note_on_c, 0, 76, 88
3, 20784, Note_on_c, 0, 76, 0
3, 20784, Note_on_c, 0, 74, 88
3, 20832, Note_on_c, 0, 74, 0
3, 20832, Note_on_c, 0, 72, 88
3, 20880, Note_on_c, 0, 72, 0
3, 20880, Note_on_c, 0, 71, 88
3, 20928, Note_on_c, 0, 71, 0
3, 20928, Note_on_c, 0, 69, 88
3, 21120, Note_on_c, 0, 69, 0
3, 21120, Note_on_c, 0, 69, 72
3, 21168, Note_on_c, 0, 69, 0
3, 21168, Note_on_c, 0, 66, 72
3, 21216, Note_on_c, 0, 66, 0
3, 21216, Note_on_c, 0, 68, 72
3, 21312, Note_on_c, 0, 68, 0
3, 22752, Note_on_c, 0, 62, 88
3, 22800, Note_on_c, 0, 62, 0
3, 22800, Note_on_c, 0, 64, 88
3, 22848, Note_on_c, 0, 64, 0
3, 22848, Note_on_c, 0, 65, 88
3, 22896, Note_on_c, 0, 65, 0
3, 22896, Note_on_c, 0, 67, 88
3, 22944, Note_on_c, 0, 67, 0
3, 22944, Note_on_c, 0, 69, 88
3, 22992, Note_on_c, 0, 69, 0
3, 22992, Note_on_c, 0, 71, 88
3, 23040, Note_on_c, 0, 71, 0
3, 23040, Note_on_c, 0, 72, 88
3, 23088, Note_on_c, 0, 72, 0
3, 23088, Note_on_c, 0, 74, 88
3, 23136, Note_on_c, 0, 74, 0
3, 23136, Note_on_c, 0, 75, 88
3, 23184, Note_on_c, 0, 75, 0
3, 23184, Note_on_c, 0, 72, 88
3, 23232, Note_on_c, 0, 72, 0
3, 23232, Note_on_c, 0, 69, 88
3, 23280, Note_on_c, 0, 69, 0
3, 23280, Note_on_c, 0, 74, 88
3, 23328, Note_on_c, 0, 74, 0
3, 23328, Note_on_c, 0, 72, 88
3, 23376, Note_on_c, 0, 72, 0
3, 23376, Note_on_c, 0, 74, 88
3, 23424, Note_on_c, 0, 74, 0
3, 23424, Note_on_c, 0, 70, 88
3, 23472, Note_on_c, 0, 70, 0
3, 23472, Note_on_c, 0, 72, 88
3, 23520, Note_on_c, 0, 72, 0
3, 23520, Note_on_c, 0, 70, 88
3, 23568, Note_on_c, 0, 70, 0
3, 23568, Note_on_c, 0, 69, 88
3, 23616, Note_on_c, 0, 69, 0
3, 23616, Note_on_c, 0, 67, 88
3, 23664, Note_on_c, 0, 67, 0
3, 23664, Note_on_c, 0, 69, 88
3, 23712, Note_on_c, 0, 69, 0
3, 23712, Note_on_c, 0, 70, 88
3, 23760, Note_on_c, 0, 70, 0
3, 23760, Note_on_c, 0, 67, 88
3, 23808, Note_on_c, 0, 67, 0
3, 23808, Note_on_c, 0, 69, 88
3, 23856, Note_on_c, 0, 69, 0
3, 23856, Note_on_c, 0, 71, 88
3, 23904, Note_on_c, 0, 71, 0
3, 23904, Note_on_c, 0, 72, 72
3, 24096, Note_on_c, 0, 72, 0
3, 24096, Note_on_c, 0, 70, 72
3, 24192, Note_on_c, 0, 70, 0
3, 24192, Note_on_c, 0, 70, 72
3, 24288, Note_on_c, 0, 70, 0
3, 24288, Note_on_c, 0, 64, 72
3, 24384, Note_on_c, 0, 64, 0
3, 24384, Note_on_c, 0, 69, 72
3, 24576, Note_on_c, 0, 69, 0
3, 24576, Note_on_c, 0, 69, 72
3, 24672, Note_on_c, 0, 69, 0
3, 24672, Note_on_c, 0, 74, 72
3, 24768, Note_on_c, 0, 74, 0
3, 24768, Note_on_c, 0, 67, 72
3, 24960, Note_on_c, 0, 67, 0
3, 24960, Note_on_c, 0, 67, 72
3, 25008, Note_on_c, 0, 67, 0
3, 25008, Note_on_c, 0, 67, 72
3, 25056, Note_on_c, 0, 67, 0
3, 25056, Note_on_c, 0, 65, 72
3, 25104, Note_on_c, 0, 65, 0
3, 25104, Note_on_c, 0, 64, 72
3, 25152, Note_on_c, 0, 64, 0
3, 25152, Note_on_c, 0, 65, 72
3, 25200, Note_on_c, 0, 65, 0
3, 25200, Note_on_c, 0, 64, 72
3, 25248, Note_on_c, 0, 64, 0
3, 25248, Note_on_c, 0, 62, 72
3, 25296, Note_on_c, 0, 62, 0
3, 25296, Note_on_c, 0, 61, 72
3, 25344, Note_on_c, 0, 61, 0
3, 25344, Note_on_c, 0, 62, 72
3, 25392, Note_on_c, 0, 62, 0
3, 25392, Note_on_c, 0, 64, 72
3, 25440, Note_on_c, 0, 64, 0
3, 25440, Note_on_c, 0, 65, 72
3, 25584, Note_on_c, 0, 65, 0
3, 25584, Note_on_c, 0, 64, 72
3, 25632, Note_on_c, 0, 64, 0
3, 25632, Note_on_c, 0, 62, 72
3, 25728, Note_on_c, 0, 62, 0
3, 25728, Note_on_c, 0, 62, 72
3, 25824, Note_on_c, 0, 62, 0
3, 25824, Note_on_c, 0, 74, 72
3, 25872, Note_on_c, 0, 74, 0
3, 25872, Note_on_c, 0, 73, 72
3, 25920, Note_on_c, 0, 73, 0
3, 25920, Note_on_c, 0, 74, 72
3, 25968, Note_on_c, 0, 74, 0
3, 25968, Note_on_c, 0, 76, 72
3, 26016, Note_on_c, 0, 76, 0
3, 26016, Note_on_c, 0, 77, 72
3, 26112, Note_on_c, 0, 77, 0
3, 26112, Note_on_c, 0, 77, 72
3, 26208, Note_on_c, 0, 77, 0
3, 26208, Note_on_c, 0, 69, 72
3, 26304, Note_on_c, 0, 69, 0
3, 26304, Note_on_c, 0, 70, 72
3, 26400, Note_on_c, 0, 70, 0
3, 26400, Note_on_c, 0, 62, 72
3, 26448, Note_on_c, 0, 62, 0
3, 26448, Note_on_c, 0, 64, 72
3, 26496, Note_on_c, 0, 64, 0
3, 26496, Note_on_c, 0, 65, 72
3, 26544, Note_on_c, 0, 65, 0
3, 26544, Note_on_c, 0, 64, 72
3, 26592, Note_on_c, 0, 64, 0
3, 26592, Note_on_c, 0, 65, 72
3, 26640, Note_on_c, 0, 65, 0
3, 26640, Note_on_c, 0, 67, 72
3, 26688, Note_on_c, 0, 67, 0
3, 26688, Note_on_c, 0, 69, 72
3, 26832, Note_on_c, 0, 69, 0
3, 26832, Note_on_c, 0, 67, 72
3, 26880, Note_on_c, 0, 67, 0
3, 26880, Note_on_c, 0, 65, 72
3, 26928, Note_on_c, 0, 65, 0
3, 26928, Note_on_c, 0, 69, 72
3, 26976, Note_on_c, 0, 69, 0
3, 26976, Note_on_c, 0, 70, 72
3, 27024, Note_on_c, 0, 70, 0
3, 27024, Note_on_c, 0, 72, 72
3, 27072, Note_on_c, 0, 72, 0
3, 27072, Note_on_c, 0, 74, 72
3, 27264, Note_on_c, 0, 74, 0
3, 27264, Note_on_c, 0, 74, 72
3, 27408, Note_on_c, 0, 74, 0
3, 27408, Note_on_c, 0, 72, 72
3, 27456, Note_on_c, 0, 72, 0
3, 27456, Note_on_c, 0, 70, 72
3, 27600, Note_on_c, 0, 70, 0
3, 27600, Note_on_c, 0, 69, 72
3, 27648, Note_on_c, 0, 69, 0
3, 27648, Note_on_c, 0, 67, 72
3, 27696, Note_on_c, 0, 67, 0
3, 27696, Note_on_c, 0, 71, 72
3, 27744, Note_on_c, 0, 71, 0
3, 27744, Note_on_c, 0, 72, 72
3, 27792, Note_on_c, 0, 72, 0
3, 27792, Note_on_c, 0, 74, 72
3, 27840, Note_on_c, 0, 74, 0
3, 27840, Note_on_c, 0, 76, 72
3, 28032, Note_on_c, 0, 76, 0
3, 28032, Note_on_c, 0, 76, 72
3, 28176, Note_on_c, 0, 76, 0
3, 28176, Note_on_c, 0, 74, 72
3, 28224, Note_on_c, 0, 74, 0
3, 28224, Note_on_c, 0, 72, 72
3, 28368, Note_on_c, 0, 72, 0
3, 28368, Note_on_c, 0, 70, 72
3, 28416, Note_on_c, 0, 70, 0
3, 28416, Note_on_c, 0, 72, 88
3, 28608, Note_on_c, 0, 72, 0
3, 28608, Note_on_c, 0, 65, 88
3, 28752, Note_on_c, 0, 65, 0
3, 28752, Note_on_c, 0, 67, 88
3, 28800, Note_on_c, 0, 67, 0
3, 28800, Note_on_c, 0, 69, 88
3, 28944, Note_on_c, 0, 69, 0
3, 28944, Note_on_c, 0, 70, 88
3, 28992, Note_on_c, 0, 70, 0
3, 28992, Note_on_c, 0, 72, 88
3, 29184, Note_on_c, 0, 72, 0
3, 29184, Note_on_c, 0, 74, 88
3, 29376, Note_on_c, 0, 74, 0
3, 29376, Note_on_c, 0, 72, 88
3, 29520, Note_on_c, 0, 72, 0
3, 29520, Note_on_c, 0, 70, 88
3, 29568, Note_on_c, 0, 70, 0
3, 29568, Note_on_c, 0, 69, 88
3, 29760, Note_on_c, 0, 69, 0
3, 29760, Note_on_c, 0, 69, 88
3, 29808, Note_on_c, 0, 69, 0
3, 29808, Note_on_c, 0, 67, 88
3, 29856, Note_on_c, 0, 67, 0
3, 29856, Note_on_c, 0, 69, 88
3, 29904, Note_on_c, 0, 69, 0
3, 29904, Note_on_c, 0, 70, 88
3, 29952, Note_on_c, 0, 70, 0
3, 29952, Note_on_c, 0, 72, 88
3, 30144, Note_on_c, 0, 72, 0
3, 30384, Note_on_c, 0, 64, 72
3, 30432, Note_on_c, 0, 64, 0
3, 30432, Note_on_c, 0, 65, 72
3, 30480, Note_on_c, 0, 65, 0
3, 30480, Note_on_c, 0, 69, 72
3, 30528, Note_on_c, 0, 69, 0
3, 30528, Note_on_c, 0, 62, 72
3, 30624, Note_on_c, 0, 62, 0
3, 30624, Note_on_c, 0, 64, 72
3, 30720, Note_on_c, 0, 64, 0
3, 30720, Note_on_c, 0, 65, 72
3, 30864, Note_on_c, 0, 65, 0
3, 30864, Note_on_c, 0, 64, 72
3, 30912, Note_on_c, 0, 64, 0
3, 30912, Note_on_c, 0, 62, 72
3, 30960, Note_on_c, 0, 62, 0
3, 30960, Note_on_c, 0, 57, 72
3, 31008, Note_on_c, 0, 57, 0
3, 31008, Note_on_c, 0, 58, 72
3, 31056, Note_on_c, 0, 58, 0
3, 31056, Note_on_c, 0, 62, 72
3, 31104, Note_on_c, 0, 62, 0
3, 31104, Note_on_c, 0, 67, 72
3, 31296, Note_on_c, 0, 67, 0
3, 31296, Note_on_c, 0, 67, 72
3, 31344, Note_on_c, 0, 67, 0
3, 31344, Note_on_c, 0, 70, 72
3, 31392, Note_on_c, 0, 70, 0
3, 31392, Note_on_c, 0, 69, 72
3, 31440, Note_on_c, 0, 69, 0
3, 31440, Note_on_c, 0, 64, 72
3, 31488, Note_on_c, 0, 64, 0
3, 31488, Note_on_c, 0, 65, 72
3, 31680, Note_on_c, 0, 65, 0
3, 31920, Note_on_c, 0, 66, 72
3, 31968, Note_on_c, 0, 66, 0
3, 31968, Note_on_c, 0, 67, 72
3, 32016, Note_on_c, 0, 67, 0
3, 32016, Note_on_c, 0, 70, 72
3, 32064, Note_on_c, 0, 70, 0
3, 32064, Note_on_c, 0, 64, 72
3, 32160, Note_on_c, 0, 64, 0
3, 32160, Note_on_c, 0, 66, 72
3, 32256, Note_on_c, 0, 66, 0
3, 32256, Note_on_c, 0, 67, 72
3, 32304, Note_on_c, 0, 67, 0
3, 32304, Note_on_c, 0, 66, 72
3, 32352, Note_on_c, 0, 66, 0
3, 32352, Note_on_c, 0, 67, 72
3, 32448, Note_on_c, 0, 67, 0
3, 32448, Note_on_c, 0, 70, 88
3, 32544, Note_on_c, 0, 70, 0
3, 32544, Note_on_c, 0, 65, 88
3, 32640, Note_on_c, 0, 65, 0
3, 32736, Note_on_c, 0, 74, 88
3, 32832, Note_on_c, 0, 74, 0
3, 32832, Note_on_c, 0, 72, 88
3, 32928, Note_on_c, 0, 72, 0
3, 32928, Note_on_c, 0, 77, 88
3, 33024, Note_on_c, 0, 77, 0
3, 33024, Note_on_c, 0, 70, 88
3, 33072, Note_on_c, 0, 70, 0
3, 33072, Note_on_c, 0, 72, 88
3, 33120, Note_on_c, 0, 72, 0
3, 33120, Note_on_c, 0, 74, 88
3, 33168, Note_on_c, 0, 74, 0
3, 33168, Note_on_c, 0, 76, 88
3, 33216, Note_on_c, 0, 76, 0
3, 33216, Note_on_c, 0, 77, 88
3, 33264, Note_on_c, 0, 77, 0
3, 33264, Note_on_c, 0, 79, 88
3, 33312, Note_on_c, 0, 79, 0
3, 33312, Note_on_c, 0, 81, 88
3, 33408, Note_on_c, 0, 81, 0
3, 33408, Note_on_c, 0, 81, 88
3, 33456, Note_on_c, 0, 81, 0
3, 33456, Note_on_c, 0, 79, 88
3, 33504, Note_on_c, 0, 79, 0
3, 33504, Note_on_c, 0, 77, 88
3, 33552, Note_on_c, 0, 77, 0
3, 33552, Note_on_c, 0, 76, 88
3, 33600, Note_on_c, 0, 76, 0
3, 33600, Note_on_c, 0, 74, 88
3, 33792, Note_on_c, 0, 74, 0
3, 33792, Note_on_c, 0, 73, 88
3, 33984, Note_on_c, 0, 73, 0
3, 34224, Note_on_c, 0, 67, 72
3, 34272, Note_on_c, 0, 67, 0
3, 34272, Note_on_c, 0, 69, 72
3, 34320, Note_on_c, 0, 69, 0
3, 34320, Note_on_c, 0, 67, 72
3, 34368, Note_on_c, 0, 67, 0
3, 34368, Note_on_c, 0, 66, 72
3, 34464, Note_on_c, 0, 66, 0
3, 34464, Note_on_c, 0, 69, 72
3, 34560, Note_on_c, 0, 69, 0
3, 34608, Note_on_c, 0, 67, 72
3, 34656, Note_on_c, 0, 67, 0
3, 34656, Note_on_c, 0, 65, 72
3, 34704, Note_on_c, 0, 65, 0
3, 34704, Note_on_c, 0, 67, 72
3, 34752, Note_on_c, 0, 67, 0
3, 34752, Note_on_c, 0, 69, 72
3, 34848, Note_on_c, 0, 69, 0
3, 34848, Note_on_c, 0, 64, 72
3, 34944, Note_on_c, 0, 64, 0
3, 34944, Note_on_c, 0, 65, 72
3, 35040, Note_on_c, 0, 65, 0
3, 35040, Note_on_c, 0, 72, 72
3, 35136, Note_on_c, 0, 72, 0
3, 35136, Note_on_c, 0, 67, 72
3, 35232, Note_on_c, 0, 67, 0
3, 35232, Note_on_c, 0, 76, 72
3, 35328, Note_on_c, 0, 76, 0
3, 35328, Note_on_c, 0, 69, 72
3, 35424, Note_on_c, 0, 69, 0
3, 35568, Note_on_c, 0, 74, 72
3, 35616, Note_on_c, 0, 74, 0
3, 35616, Note_on_c, 0, 75, 72
3, 35664, Note_on_c, 0, 75, 0
3, 35664, Note_on_c, 0, 74, 72
3, 35712, Note_on_c, 0, 74, 0
3, 35712, Note_on_c, 0, 72, 72
3, 35808, Note_on_c, 0, 72, 0
3, 35808, Note_on_c, 0, 77, 72
3, 35904, Note_on_c, 0, 77, 0
3, 35904, Note_on_c, 0, 70, 72
3, 36000, Note_on_c, 0, 70, 0
3, 36000, Note_on_c, 0, 72, 72
3, 36096, Note_on_c, 0, 72, 0
3, 36144, Note_on_c, 0, 67, 72
3, 36192, Note_on_c, 0, 67, 0
3, 36192, Note_on_c, 0, 69, 72
3, 36240, Note_on_c, 0, 69, 0
3, 36240, Note_on_c, 0, 67, 72
3, 36288, Note_on_c, 0, 67, 0
3, 36288, Note_on_c, 0, 65, 72
3, 36384, Note_on_c, 0, 65, 0
3, 36384, Note_on_c, 0, 70, 72
3, 36480, Note_on_c, 0, 70, 0
3, 36528, Note_on_c, 0, 63, 72
3, 36576, Note_on_c, 0, 63, 0
3, 36576, Note_on_c, 0, 65, 72
3, 36624, Note_on_c, 0, 65, 0
3, 36624, Note_on_c, 0, 63, 72
3, 36672, Note_on_c, 0, 63, 0
3, 36672, Note_on_c, 0, 62, 72
3, 36768, Note_on_c, 0, 62, 0
3, 36768, Note_on_c, 0, 67, 72
3, 36864, Note_on_c, 0, 67, 0
3, 36912, Note_on_c, 0, 60, 72
3, 36960, Note_on_c, 0, 60, 0
3, 36960, Note_on_c, 0, 62, 72
3, 37008, Note_on_c, 0, 62, 0
3, 37008, Note_on_c, 0, 60, 72
3, 37056, Note_on_c, 0, 60, 0
3, 37056, Note_on_c, 0, 58, 72
3, 37152, Note_on_c, 0, 58, 0
3, 37152, Note_on_c, 0, 70, 72
3, 37248, Note_on_c, 0, 70, 0
3, 37248, Note_on_c, 0, 70, 72
3, 37296, Note_on_c, 0, 70, 0
3, 37296, Note_on_c, 0, 67, 72
3, 37344, Note_on_c, 0, 67, 0
3, 37344, Note_on_c, 0, 69, 72
3, 37488, Note_on_c, 0, 69, 0
3, 37488, Note_on_c, 0, 67, 72
3, 37536, Note_on_c, 0, 67, 0
3, 37536, Note_on_c, 0, 65, 72
3, 37584, Note_on_c, 0, 65, 0
3, 37584, Note_on_c, 0, 63, 72
3, 37632, Note_on_c, 0, 63, 0
3, 37632, Note_on_c, 0, 62, 72
3, 37728, Note_on_c, 0, 62, 0
3, 37728, Note_on_c, 0, 67, 72
3, 37872, Note_on_c, 0, 67, 0
3, 37872, Note_on_c, 0, 65, 72
3, 37920, Note_on_c, 0, 65, 0
3, 37920, Note_on_c, 0, 63, 72
3, 37968, Note_on_c, 0, 63, 0
3, 37968, Note_on_c, 0, 62, 72
3, 38016, Note_on_c, 0, 62, 0
3, 38016, Note_on_c, 0, 60, 72
3, 38112, Note_on_c, 0, 60, 0
3, 38112, Note_on_c, 0, 65, 72
3, 38256, Note_on_c, 0, 65, 0
3, 38256, Note_on_c, 0, 63, 72
3, 38304, Note_on_c, 0, 63, 0
3, 38304, Note_on_c, 0, 62, 72
3, 38352, Note_on_c, 0, 62, 0
3, 38352, Note_on_c, 0, 60, 72
3, 38400, Note_on_c, 0, 60, 0
3, 38400, Note_on_c, 0, 58, 72
3, 38544, Note_on_c, 0, 58, 0
3, 38544, Note_on_c, 0, 57, 72
3, 38592, Note_on_c, 0, 57, 0
3, 38592, Note_on_c, 0, 58, 72
3, 38640, Note_on_c, 0, 58, 0
3, 38640, Note_on_c, 0, 60, 72
3, 38688, Note_on_c, 0, 60, 0
3, 38688, Note_on_c, 0, 62, 72
3, 38736, Note_on_c, 0, 62, 0
3, 38736, Note_on_c, 0, 64, 72
3, 38784, Note_on_c, 0, 64, 0
3, 38784, Note_on_c, 0, 65, 72
3, 38880, Note_on_c, 0, 65, 0
3, 38880, Note_on_c, 0, 60, 72
3, 38976, Note_on_c, 0, 60, 0
3, 39216, Note_on_c, 0, 72, 72
3, 39264, Note_on_c, 0, 72, 0
3, 39264, Note_on_c, 0, 70, 72
3, 39312, Note_on_c, 0, 70, 0
3, 39312, Note_on_c, 0, 69, 72
3, 39360, Note_on_c, 0, 69, 0
3, 39360, Note_on_c, 0, 67, 72
3, 39408, Note_on_c, 0, 67, 0
3, 39408, Note_on_c, 0, 66, 72
3, 39456, Note_on_c, 0, 66, 0
3, 39456, Note_on_c, 0, 67, 72
3, 39504, Note_on_c, 0, 67, 0
3, 39504, Note_on_c, 0, 69, 72
3, 39552, Note_on_c, 0, 69, 0
3, 39552, Note_on_c, 0, 70, 72
3, 39600, Note_on_c, 0, 70, 0
3, 39600, Note_on_c, 0, 69, 72
3, 39648, Note_on_c, 0, 69, 0
3, 39648, Note_on_c, 0, 70, 72
3, 39696, Note_on_c, 0, 70, 0
3, 39696, Note_on_c, 0, 67, 72
3, 39744, Note_on_c, 0, 67, 0
3, 39744, Note_on_c, 0, 72, 72
3, 39792, Note_on_c, 0, 72, 0
3, 39792, Note_on_c, 0, 75, 72
3, 39840, Note_on_c, 0, 75, 0
3, 39840, Note_on_c, 0, 74, 72
3, 39888, Note_on_c, 0, 74, 0
3, 39888, Note_on_c, 0, 72, 72
3, 39936, Note_on_c, 0, 72, 0
3, 39936, Note_on_c, 0, 70, 72
3, 40032, Note_on_c, 0, 70, 0
3, 40032, Note_on_c, 0, 75, 72
3, 40128, Note_on_c, 0, 75, 0
3, 40176, Note_on_c, 0, 75, 72
3, 40224, Note_on_c, 0, 75, 0
3, 40224, Note_on_c, 0, 74, 72
3, 40272, Note_on_c, 0, 74, 0
3, 40272, Note_on_c, 0, 72, 72
3, 40320, Note_on_c, 0, 72, 0
3, 40320, Note_on_c, 0, 70, 72
3, 40368, Note_on_c, 0, 70, 0
3, 40368, Note_on_c, 0, 69, 72
3, 40416, Note_on_c, 0, 69, 0
3, 40416, Note_on_c, 0, 67, 72
3, 40464, Note_on_c, 0, 67, 0
3, 40464, Note_on_c, 0, 69, 72
3, 40512, Note_on_c, 0, 69, 0
3, 40512, Note_on_c, 0, 70, 72
3, 40560, Note_on_c, 0, 70, 0
3, 40560, Note_on_c, 0, 69, 72
3, 40608, Note_on_c, 0, 69, 0
3, 40608, Note_on_c, 0, 70, 72
3, 40656, Note_on_c, 0, 70, 0
3, 40656, Note_on_c, 0, 67, 72
3, 40704, Note_on_c, 0, 67, 0
3, 40704, Note_on_c, 0, 72, 72
3, 40800, Note_on_c, 0, 72, 0
3, 40992, Note_on_c, 0, 65, 72
3, 41088, Note_on_c, 0, 65, 0
3, 41088, Note_on_c, 0, 67, 72
3, 41136, Note_on_c, 0, 67, 0
3, 41136, Note_on_c, 0, 69, 72
3, 41184, Note_on_c, 0, 69, 0
3, 41184, Note_on_c, 0, 70, 72
3, 41376, Note_on_c, 0, 70, 0
3, 41376, Note_on_c, 0, 69, 72
3, 41472, Note_on_c, 0, 69, 0
3, 41472, Note_on_c, 0, 69, 72
3, 41568, Note_on_c, 0, 69, 0
3, 41568, Note_on_c, 0, 62, 72
3, 41664, Note_on_c, 0, 62, 0
3, 41712, Note_on_c, 0, 67, 72
3, 41760, Note_on_c, 0, 67, 0
3, 41760, Note_on_c, 0, 69, 72
3, 41808, Note_on_c, 0, 69, 0
3, 41808, Note_on_c, 0, 70, 72
3, 41856, Note_on_c, 0, 70, 0
3, 41856, Note_on_c, 0, 72, 72
3, 41904, Note_on_c, 0, 72, 0
3, 41904, Note_on_c, 0, 74, 72
3, 41952, Note_on_c, 0, 74, 0
3, 41952, Note_on_c, 0, 75, 72
3, 42000, Note_on_c, 0, 75, 0
3, 42000, Note_on_c, 0, 72, 72
3, 42048, Note_on_c, 0, 72, 0
3, 42048, Note_on_c, 0, 69, 72
3, 42096, Note_on_c, 0, 69, 0
3, 42096, Note_on_c, 0, 74, 72
3, 42144, Note_on_c, 0, 74, 0
3, 42144, Note_on_c, 0, 72, 72
3, 42192, Note_on_c, 0, 72, 0
3, 42192, Note_on_c, 0, 74, 72
3, 42240, Note_on_c, 0, 74, 0
3, 42240, Note_on_c, 0, 70, 72
3, 42432, Note_on_c, 0, 70, 0
3, 42432, Note_on_c, 0, 69, 72
3, 42528, Note_on_c, 0, 69, 0
3, 42528, Note_on_c, 0, 70, 72
3, 42624, Note_on_c, 0, 70, 0
3, 42624, Note_on_c, 0, 70, 72
3, 42672, Note_on_c, 0, 70, 0
3, 42672, Note_on_c, 0, 69, 72
3, 42720, Note_on_c, 0, 69, 0
3, 42720, Note_on_c, 0, 67, 72
3, 42768, Note_on_c, 0, 67, 0
3, 42768, Note_on_c, 0, 69, 72
3, 42816, Note_on_c, 0, 69, 0
3, 42816, Note_on_c, 0, 65, 72
3, 43008, Note_on_c, 0, 65, 0
3, 43008, Note_on_c, 0, 65, 72
3, 43056, Note_on_c, 0, 65, 0
3, 43056, Note_on_c, 0, 69, 72
3, 43104, Note_on_c, 0, 69, 0
3, 43104, Note_on_c, 0, 67, 72
3, 43152, Note_on_c, 0, 67, 0
3, 43152, Note_on_c, 0, 65, 72
3, 43200, Note_on_c, 0, 65, 0
3, 43200, Note_on_c, 0, 64, 72
3, 43296, Note_on_c, 0, 64, 0
3, 43296, Note_on_c, 0, 62, 72
3, 43392, Note_on_c, 0, 62, 0
3, 43392, Note_on_c, 0, 61, 72
3, 43440, Note_on_c, 0, 61, 0
3, 43440, Note_on_c, 0, 62, 72
3, 43488, Note_on_c, 0, 62, 0
3, 43488, Note_on_c, 0, 64, 72
3, 43632, Note_on_c, 0, 64, 0
3, 43632, Note_on_c, 0, 64, 72
3, 43680, Note_on_c, 0, 64, 0
3, 43680, Note_on_c, 0, 62, 72
3, 43776, Note_on_c, 0, 62, 0
3, 43776, Note_on_c, 0, 62, 72
3, 43872, Note_on_c, 0, 62, 0
3, 43872, Note_on_c, 0, 61, 88
3, 43968, Note_on_c, 0, 61, 0
3, 43968, Note_on_c, 0, 62, 88
3, 44064, Note_on_c, 0, 62, 0
3, 44064, Note_on_c, 0, 57, 88
3, 44160, Note_on_c, 0, 57, 0
3, 44256, Note_on_c, 0, 65, 88
3, 44352, Note_on_c, 0, 65, 0
3, 44352, Note_on_c, 0, 64, 88
3, 44448, Note_on_c, 0, 64, 0
3, 44448, Note_on_c, 0, 69, 88
3, 44544, Note_on_c, 0, 69, 0
3, 44544, Note_on_c, 0, 62, 88
3, 44592, Note_on_c, 0, 62, 0
3, 44592, Note_on_c, 0, 64, 88
3, 44640, Note_on_c, 0, 64, 0
3, 44640, Note_on_c, 0, 65, 88
3, 44688, Note_on_c, 0, 65, 0
3, 44688, Note_on_c, 0, 67, 88
3, 44736, Note_on_c, 0, 67, 0
3, 44736, Note_on_c, 0, 69, 88
3, 44784, Note_on_c, 0, 69, 0
3, 44784, Note_on_c, 0, 70, 88
3, 44832, Note_on_c, 0, 70, 0
3, 44832, Note_on_c, 0, 72, 88
3, 44928, Note_on_c, 0, 72, 0
3, 44928, Note_on_c, 0, 72, 88
3, 44976, Note_on_c, 0, 72, 0
3, 44976, Note_on_c, 0, 70, 88
3, 45024, Note_on_c, 0, 70, 0
3, 45024, Note_on_c, 0, 69, 88
3, 45072, Note_on_c, 0, 69, 0
3, 45072, Note_on_c, 0, 67, 88
3, 45120, Note_on_c, 0, 67, 0
3, 45120, Note_on_c, 0, 65, 88
3, 45168, Note_on_c, 0, 65, 0
3, 45168, Note_on_c, 0, 67, 88
3, 45216, Note_on_c, 0, 67, 0
3, 45216, Note_on_c, 0, 69, 88
3, 45312, Note_on_c, 0, 69, 0
3, 45312, Note_on_c, 0, 69, 88
3, 45696, Note_on_c, 0, 69, 0
3, 45696, Note_on_c, 0, 69, 88
3, 45984, Note_on_c, 0, 69, 0
3, 46080, End_track
4, 0, Start_track
4, 1056, Note_on_c, 0, 54, 88
4, 1152, Note_on_c, 0, 54, 0
4, 1152, Note_on_c, 0, 55, 88
4, 1248, Note_on_c, 0, 55, 0
4, 1248, Note_on_c, 0, 50, 88
4, 1344, Note_on_c, 0, 50, 0
4, 1440, Note_on_c, 0, 58, 88
4, 1536, Note_on_c, 0, 58, 0
4, 1536, Note_on_c, 0, 57, 88
4, 1632, Note_on_c, 0, 57, 0
4, 1632, Note_on_c, 0, 62, 88
4, 1728, Note_on_c, 0, 62, 0
4, 1728, Note_on_c, 0, 55, 88
4, 1776, Note_on_c, 0, 55, 0
4, 1776, Note_on_c, 0, 57, 88
4, 1824, Note_on_c, 0, 57, 0
4, 1824, Note_on_c, 0, 58, 88
4, 1872, Note_on_c, 0, 58, 0
4, 1872, Note_on_c, 0, 60, 88
4, 1920, Note_on_c, 0, 60, 0
4, 1920, Note_on_c, 0, 62, 88
4, 1968, Note_on_c, 0, 62, 0
4, 1968, Note_on_c, 0, 64, 88
4, 2016, Note_on_c, 0, 64, 0
4, 2016, Note_on_c, 0, 65, 88
4, 2160, Note_on_c, 0, 65, 0
4, 2160, Note_on_c, 0, 64, 88
4, 2208, Note_on_c, 0, 64, 0
4, 2208, Note_on_c, 0, 62, 88
4, 2256, Note_on_c, 0, 62, 0
4, 2256, Note_on_c, 0, 60, 88
4, 2304, Note_on_c, 0, 60, 0
4, 2304, Note_on_c, 0, 58, 88
4, 2352, Note_on_c, 0, 58, 0
4, 2352, Note_on_c, 0, 57, 72
4, 2400, Note_on_c, 0, 57, 0
4, 2400, Note_on_c, 0, 62, 72
4, 2592, Note_on_c, 0, 62, 0
4, 2592, Note_on_c, 0, 61, 72
4, 2640, Note_on_c, 0, 61, 0
4, 2640, Note_on_c, 0, 59, 72
4, 2688, Note_on_c, 0, 59, 0
4, 2688, Note_on_c, 0, 60, 72
4, 2736, Note_on_c, 0, 60, 0
4, 2736, Note_on_c, 0, 62, 72
4, 2784, Note_on_c, 0, 62, 0
4, 2784, Note_on_c, 0, 64, 72
4, 2928, Note_on_c, 0, 64, 0
4, 2928, Note_on_c, 0, 62, 72
4, 2976, Note_on_c, 0, 62, 0
4, 2976, Note_on_c, 0, 64, 72
4, 3072, Note_on_c, 0, 64, 0
4, 3072, Note_on_c, 0, 64, 72
4, 3360, Note_on_c, 0, 64, 0
4, 3360, Note_on_c, 0, 62, 72
4, 3456, Note_on_c, 0, 62, 0
4, 3456, Note_on_c, 0, 60, 72
4, 3648, Note_on_c, 0, 60, 0
4, 3696, Note_on_c, 0, 52, 72
4, 3744, Note_on_c, 0, 52, 0
4, 3744, Note_on_c, 0, 57, 72
4, 3840, Note_on_c, 0, 57, 0
4, 3840, Note_on_c, 0, 57, 72
4, 3936, Note_on_c, 0, 57, 0
4, 3936, Note_on_c, 0, 55, 72
4, 3984, Note_on_c, 0, 55, 0
4, 3984, Note_on_c, 0, 54, 72
4, 4032, Note_on_c, 0, 54, 0
4, 4032, Note_on_c, 0, 55, 72
4, 4224, Note_on_c, 0, 55, 0
4, 4224, Note_on_c, 0, 53, 72
4, 4272, Note_on_c, 0, 53, 0
4, 4272, Note_on_c, 0, 55, 72
4, 4320, Note_on_c, 0, 55, 0
4, 4320, Note_on_c, 0, 57, 72
4, 4368, Note_on_c, 0, 57, 0
4, 4368, Note_on_c, 0, 59, 72
4, 4416, Note_on_c, 0, 59, 0
4, 4416, Note_on_c, 0, 60, 72
4, 4608, Note_on_c, 0, 60, 0
4, 4608, Note_on_c, 0, 58, 72
4, 4656, Note_on_c, 0, 58, 0
4, 4656, Note_on_c, 0, 60, 72
4, 4704, Note_on_c, 0, 60, 0
4, 4704, Note_on_c, 0, 62, 72
4, 4752, Note_on_c, 0, 62, 0
4, 4752, Note_on_c, 0, 64, 72
4, 4800, Note_on_c, 0, 64, 0
4, 4800, Note_on_c, 0, 65, 72
4, 4992, Note_on_c, 0, 65, 0
4, 4992, Note_on_c, 0, 64, 72
4, 5088, Note_on_c, 0, 64, 0
4, 5088, Note_on_c, 0, 65, 72
4, 5136, Note_on_c, 0, 65, 0
4, 5136, Note_on_c, 0, 62, 72
4, 5184, Note_on_c, 0, 62, 0
4, 5184, Note_on_c, 0, 64, 72
4, 5232, Note_on_c, 0, 64, 0
4, 5232, Note_on_c, 0, 57, 72
4, 5280, Note_on_c, 0, 57, 0
4, 5280, Note_on_c, 0, 58, 88
4, 5376, Note_on_c, 0, 58, 0
4, 5376, Note_on_c, 0, 57, 88
4, 5472, Note_on_c, 0, 57, 0
4, 5472, Note_on_c, 0, 62, 88
4, 5568, Note_on_c, 0, 62, 0
4, 5664, Note_on_c, 0, 54, 88
4, 5760, Note_on_c, 0, 54, 0
4, 5760, Note_on_c, 0, 55, 88
4, 5856, Note_on_c, 0, 55, 0
4, 5856, Note_on_c, 0, 50, 88
4, 5952, Note_on_c, 0, 50, 0
4, 5952, Note_on_c, 0, 57, 88
4, 6000, Note_on_c, 0, 57, 0
4, 6000, Note_on_c, 0, 55, 88
4, 6048, Note_on_c, 0, 55, 0
4, 6048, Note_on_c, 0, 53, 88
4, 6096, Note_on_c, 0, 53, 0
4, 6096, Note_on_c, 0, 52, 88
4, 6144, Note_on_c, 0, 52, 0
4, 6144, Note_on_c, 0, 50, 88
4, 6192, Note_on_c, 0, 50, 0
4, 6192, Note_on_c, 0, 48, 88
4, 6240, Note_on_c, 0, 48, 0
4, 6240, Note_on_c, 0, 46, 88
4, 6384, Note_on_c, 0, 46, 0
4, 6384, Note_on_c, 0, 48, 88
4, 6432, Note_on_c, 0, 48, 0
4, 6432, Note_on_c, 0, 50, 88
4, 6480, Note_on_c, 0, 50, 0
4, 6480, Note_on_c, 0, 52, 88
4, 6528, Note_on_c, 0, 52, 0
4, 6528, Note_on_c, 0, 53, 88
4, 6576, Note_on_c, 0, 53, 0
4, 6576, Note_on_c, 0, 55, 72
4, 6624, Note_on_c, 0, 55, 0
4, 6624, Note_on_c, 0, 53, 72
4, 6816, Note_on_c, 0, 53, 0
4, 6816, Note_on_c, 0, 55, 72
4, 6864, Note_on_c, 0, 55, 0
4, 6864, Note_on_c, 0, 57, 72
4, 6912, Note_on_c, 0, 57, 0
4, 6912, Note_on_c, 0, 58, 72
4, 7104, Note_on_c, 0, 58, 0
4, 7104, Note_on_c, 0, 58, 72
4, 7152, Note_on_c, 0, 58, 0
4, 7152, Note_on_c, 0, 57, 72
4, 7200, Note_on_c, 0, 57, 0
4, 7200, Note_on_c, 0, 55, 72
4, 7248, Note_on_c, 0, 55, 0
4, 7248, Note_on_c, 0, 53, 72
4, 7296, Note_on_c, 0, 53, 0
4, 7296, Note_on_c, 0, 52, 72
4, 7392, Note_on_c, 0, 52, 0
4, 7392, Note_on_c, 0, 53, 72
4, 7440, Note_on_c, 0, 53, 0
4, 7440, Note_on_c, 0, 55, 72
4, 7488, Note_on_c, 0, 55, 0
4, 7488, Note_on_c, 0, 57, 72
4, 7584, Note_on_c, 0, 57, 0
4, 7584, Note_on_c, 0, 62, 72
4, 7680, Note_on_c, 0, 62, 0
4, 7680, Note_on_c, 0, 50, 72
4, 7776, Note_on_c, 0, 50, 0
4, 7968, Note_on_c, 0, 62, 72
4, 8064, Note_on_c, 0, 62, 0
4, 8064, Note_on_c, 0, 64, 72
4, 8256, Note_on_c, 0, 64, 0
4, 9600, Note_on_c, 0, 62, 88
4, 9792, Note_on_c, 0, 62, 0
4, 9792, Note_on_c, 0, 57, 88
4, 9936, Note_on_c, 0, 57, 0
4, 9936, Note_on_c, 0, 59, 88
4, 9984, Note_on_c, 0, 59, 0
4, 9984, Note_on_c, 0, 60, 88
4, 10128, Note_on_c, 0, 60, 0
4, 10128, Note_on_c, 0, 62, 88
4, 10176, Note_on_c, 0, 62, 0
4, 10176, Note_on_c, 0, 64, 88
4, 10368, Note_on_c, 0, 64, 0
4, 10368, Note_on_c, 0, 65, 88
4, 10560, Note_on_c, 0, 65, 0
4, 10560, Note_on_c, 0, 64, 88
4, 10704, Note_on_c, 0, 64, 0
4, 10704, Note_on_c, 0, 62, 88
4, 10752, Note_on_c, 0, 62, 0
4, 10752, Note_on_c, 0, 61, 88
4, 10944, Note_on_c, 0, 61, 0
4, 10944, Note_on_c, 0, 61, 88
4, 10992, Note_on_c, 0, 61, 0
4, 10992, Note_on_c, 0, 57, 88
4, 11040, Note_on_c, 0, 57, 0
4, 11040, Note_on_c, 0, 59, 88
4, 11088, Note_on_c, 0, 59, 0
4, 11088, Note_on_c, 0, 61, 88
4, 11136, Note_on_c, 0, 61, 0
4, 11136, Note_on_c, 0, 62, 88
4, 11184, Note_on_c, 0, 62, 0
4, 11184, Note_on_c, 0, 64, 72
4, 11232, Note_on_c, 0, 64, 0
4, 11232, Note_on_c, 0, 65, 72
4, 11376, Note_on_c, 0, 65, 0
4, 11376, Note_on_c, 0, 64, 72
4, 11424, Note_on_c, 0, 64, 0
4, 11424, Note_on_c, 0, 62, 72
4, 11472, Note_on_c, 0, 62, 0
4, 11472, Note_on_c, 0, 64, 72
4, 11520, Note_on_c, 0, 64, 0
4, 11520, Note_on_c, 0, 61, 72
4, 11568, Note_on_c, 0, 61, 0
4, 11568, Note_on_c, 0, 62, 72
4, 11616, Note_on_c, 0, 62, 0
4, 11616, Note_on_c, 0, 64, 72
4, 11760, Note_on_c, 0, 64, 0
4, 11760, Note_on_c, 0, 57, 72
4, 11808, Note_on_c, 0, 57, 0
4, 11808, Note_on_c, 0, 62, 72
4, 11904, Note_on_c, 0, 62, 0
4, 11904, Note_on_c, 0, 62, 72
4, 11952, Note_on_c, 0, 62, 0
4, 11952, Note_on_c, 0, 64, 72
4, 12000, Note_on_c, 0, 64, 0
4, 12000, Note_on_c, 0, 65, 72
4, 12144, Note_on_c, 0, 65, 0
4, 12144, Note_on_c, 0, 67, 72
4, 12192, Note_on_c, 0, 67, 0
4, 12192, Note_on_c, 0, 69, 72
4, 12288, Note_on_c, 0, 69, 0
4, 12288, Note_on_c, 0, 69, 72
4, 12336, Note_on_c, 0, 69, 0
4, 12336, Note_on_c, 0, 67, 72
4, 12384, Note_on_c, 0, 67, 0
4, 12384, Note_on_c, 0, 65, 72
4, 12432, Note_on_c, 0, 65, 0
4, 12432, Note_on_c, 0, 64, 72
4, 12480, Note_on_c, 0, 64, 0
4, 12480, Note_on_c, 0, 65, 72
4, 12576, Note_on_c, 0, 65, 0
4, 12576, Note_on_c, 0, 64, 72
4, 12672, Note_on_c, 0, 64, 0
4, 12672, Note_on_c, 0, 57, 72
4, 12768, Note_on_c, 0, 57, 0
4, 12768, Note_on_c, 0, 59, 72
4, 12816, Note_on_c, 0, 59, 0
4, 12816, Note_on_c, 0, 61, 72
4, 12864, Note_on_c, 0, 61, 0
4, 12864, Note_on_c, 0, 62, 72
4, 13056, Note_on_c, 0, 62, 0
4, 13056, Note_on_c, 0, 60, 72
4, 13200, Note_on_c, 0, 60, 0
4, 13200, Note_on_c, 0, 59, 72
4, 13248, Note_on_c, 0, 59, 0
4, 13248, Note_on_c, 0, 60, 72
4, 13440, Note_on_c, 0, 60, 0
4, 13440, Note_on_c, 0, 60, 72
4, 13488, Note_on_c, 0, 60, 0
4, 13488, Note_on_c, 0, 60, 72
4, 13536, Note_on_c, 0, 60, 0
4, 13536, Note_on_c, 0, 58, 72
4, 13584, Note_on_c, 0, 58, 0
4, 13584, Note_on_c, 0, 57, 72
4, 13632, Note_on_c, 0, 57, 0
4, 13632, Note_on_c, 0, 58, 72
4, 13776, Note_on_c, 0, 58, 0
4, 13776, Note_on_c, 0, 62, 72
4, 13824, Note_on_c, 0, 62, 0
4, 13824, Note_on_c, 0, 69, 72
4, 14016, Note_on_c, 0, 69, 0
4, 16608, Note_on_c, 0, 54, 88
4, 16704, Note_on_c, 0, 54, 0
4, 16704, Note_on_c, 0, 55, 88
4, 16800, Note_on_c, 0, 55, 0
4, 16800, Note_on_c, 0, 50, 88
4, 16896, Note_on_c, 0, 50, 0
4, 16992, Note_on_c, 0, 58, 88
4, 17088, Note_on_c, 0, 58, 0
4, 17088, Note_on_c, 0, 57, 88
4, 17184, Note_on_c, 0, 57, 0
4, 17184, Note_on_c, 0, 62, 88
4, 17280, Note_on_c, 0, 62, 0
4, 17280, Note_on_c, 0, 55, 88
4, 17328, Note_on_c, 0, 55, 0
4, 17328, Note_on_c, 0, 57, 88
4, 17376, Note_on_c, 0, 57, 0
4, 17376, Note_on_c, 0, 58, 88
4, 17424, Note_on_c, 0, 58, 0
4, 17424, Note_on_c, 0, 60, 88
4, 17472, Note_on_c, 0, 60, 0
4, 17472, Note_on_c, 0, 62, 88
4, 17520, Note_on_c, 0, 62, 0
4, 17520, Note_on_c, 0, 64, 88
4, 17568, Note_on_c, 0, 64, 0
4, 17568, Note_on_c, 0, 65, 88
4, 17664, Note_on_c, 0, 65, 0
4, 17664, Note_on_c, 0, 65, 88
4, 17712, Note_on_c, 0, 65, 0
4, 17712, Note_on_c, 0, 64, 88
4, 17760, Note_on_c, 0, 64, 0
4, 17760, Note_on_c, 0, 62, 88
4, 17808, Note_on_c, 0, 62, 0
4, 17808, Note_on_c, 0, 60, 88
4, 17880, Note_on_c, 0, 60, 0
4, 17880, Note_on_c, 0, 58, 88
4, 17904, Note_on_c, 0, 58, 0
4, 17904, Note_on_c, 0, 60, 88
4, 17928, Note_on_c, 0, 60, 0
4, 17928, Note_on_c, 0, 58, 88
4, 17952, Note_on_c, 0, 58, 0
4, 17952, Note_on_c, 0, 60, 88
4, 17976, Note_on_c, 0, 60, 0
4, 17976, Note_on_c, 0, 58, 88
4, 18000, Note_on_c, 0, 58, 0
4, 18000, Note_on_c, 0, 60, 88
4, 18024, Note_on_c, 0, 60, 0
4, 18024, Note_on_c, 0, 58, 88
4, 18048, Note_on_c, 0, 58, 0
4, 18048, Note_on_c, 0, 57, 88
4, 18336, Note_on_c, 0, 57, 0
4, 18336, Note_on_c, 0, 62, 72
4, 18384, Note_on_c, 0, 62, 0
4, 18384, Note_on_c, 0, 60, 72
4, 18432, Note_on_c, 0, 60, 0
4, 18432, Note_on_c, 0, 58, 72
4, 18480, Note_on_c, 0, 58, 0
4, 18480, Note_on_c, 0, 57, 72
4, 18528, Note_on_c, 0, 57, 0
4, 18528, Note_on_c, 0, 55, 72
4, 18720, Note_on_c, 0, 55, 0
4, 18720, Note_on_c, 0, 60, 72
4, 18768, Note_on_c, 0, 60, 0
4, 18768, Note_on_c, 0, 58, 72
4, 18816, Note_on_c, 0, 58, 0
4, 18816, Note_on_c, 0, 57, 72
4, 18864, Note_on_c, 0, 57, 0
4, 18864, Note_on_c, 0, 55, 72
4, 18912, Note_on_c, 0, 55, 0
4, 18912, Note_on_c, 0, 53, 72
4, 19056, Note_on_c, 0, 53, 0
4, 19056, Note_on_c, 0, 52, 72
4, 19104, Note_on_c, 0, 52, 0
4, 19104, Note_on_c, 0, 53, 72
4, 19200, Note_on_c, 0, 53, 0
4, 19200, Note_on_c, 0, 58, 72
4, 19296, Note_on_c, 0, 58, 0
4, 19296, Note_on_c, 0, 52, 72
4, 19392, Note_on_c, 0, 52, 0
4, 19392, Note_on_c, 0, 57, 72
4, 19584, Note_on_c, 0, 57, 0
4, 19584, Note_on_c, 0, 57, 72
4, 19632, Note_on_c, 0, 57, 0
4, 19632, Note_on_c, 0, 55, 72
4, 19680, Note_on_c, 0, 55, 0
4, 19680, Note_on_c, 0, 53, 72
4, 19728, Note_on_c, 0, 53, 0
4, 19728, Note_on_c, 0, 55, 72
4, 19776, Note_on_c, 0, 55, 0
4, 19776, Note_on_c, 0, 57, 72
4, 19872, Note_on_c, 0, 57, 0
4, 19872, Note_on_c, 0, 52, 72
4, 19968, Note_on_c, 0, 52, 0
4, 19968, Note_on_c, 0, 57, 72
4, 20112, Note_on_c, 0, 57, 0
4, 20112, Note_on_c, 0, 59, 72
4, 20160, Note_on_c, 0, 59, 0
4, 20160, Note_on_c, 0, 60, 72
4, 20208, Note_on_c, 0, 60, 0
4, 20208, Note_on_c, 0, 62, 72
4, 20256, Note_on_c, 0, 62, 0
4, 20256, Note_on_c, 0, 60, 72
4, 20304, Note_on_c, 0, 60, 0
4, 20304, Note_on_c, 0, 59, 72
4, 20352, Note_on_c, 0, 59, 0
4, 20352, Note_on_c, 0, 57, 72
4, 20640, Note_on_c, 0, 57, 0
4, 20640, Note_on_c, 0, 56, 72
4, 20736, Note_on_c, 0, 56, 0
4, 20736, Note_on_c, 0, 57, 72
4, 20832, Note_on_c, 0, 57, 0
4, 20832, Note_on_c, 0, 52, 72
4, 20928, Note_on_c, 0, 52, 0
4, 20928, Note_on_c, 0, 64, 72
4, 21024, Note_on_c, 0, 64, 0
4, 21024, Note_on_c, 0, 62, 72
4, 21072, Note_on_c, 0, 62, 0
4, 21072, Note_on_c, 0, 60, 72
4, 21120, Note_on_c, 0, 60, 0
4, 21120, Note_on_c, 0, 59, 72
4, 21216, Note_on_c, 0, 59, 0
4, 21216, Note_on_c, 0, 52, 88
4, 21264, Note_on_c, 0, 52, 0
4, 21264, Note_on_c, 0, 54, 88
4, 21312, Note_on_c, 0, 54, 0
4, 21312, Note_on_c, 0, 56, 88
4, 21360, Note_on_c, 0, 56, 0
4, 21360, Note_on_c, 0, 57, 88
4, 21408, Note_on_c, 0, 57, 0
4, 21408, Note_on_c, 0, 59, 88
4, 21456, Note_on_c, 0, 59, 0
4, 21456, Note_on_c, 0, 60, 88
4, 21504, Note_on_c, 0, 60, 0
4, 21504, Note_on_c, 0, 62, 88
4, 21552, Note_on_c, 0, 62, 0
4, 21552, Note_on_c, 0, 64, 88
4, 21600, Note_on_c, 0, 64, 0
4, 21600, Note_on_c, 0, 65, 88
4, 21648, Note_on_c, 0, 65, 0
4, 21648, Note_on_c, 0, 62, 88
4, 21696, Note_on_c, 0, 62, 0
4, 21696, Note_on_c, 0, 59, 88
4, 21744, Note_on_c, 0, 59, 0
4, 21744, Note_on_c, 0, 64, 88
4, 21792, Note_on_c, 0, 64, 0
4, 21792, Note_on_c, 0, 62, 88
4, 21840, Note_on_c, 0, 62, 0
4, 21840, Note_on_c, 0, 64, 88
4, 21888, Note_on_c, 0, 64, 0
4, 21888, Note_on_c, 0, 61, 88
4, 21936, Note_on_c, 0, 61, 0
4, 21936, Note_on_c, 0, 57, 88
4, 21984, Note_on_c, 0, 57, 0
4, 21984, Note_on_c, 0, 62, 88
4, 22080, Note_on_c, 0, 62, 0
4, 22080, Note_on_c, 0, 55, 88
4, 22176, Note_on_c, 0, 55, 0
4, 22176, Note_on_c, 0, 58, 88
4, 22272, Note_on_c, 0, 58, 0
4, 22272, Note_on_c, 0, 52, 88
4, 22368, Note_on_c, 0, 52, 0
4, 22368, Note_on_c, 0, 50, 88
4, 22560, Note_on_c, 0, 50, 0
4, 22560, Note_on_c, 0, 49, 88
4, 22656, Note_on_c, 0, 49, 0
4, 22656, Note_on_c, 0, 50, 88
4, 22752, Note_on_c, 0, 50, 0
4, 24960, Note_on_c, 0, 57, 88
4, 25152, Note_on_c, 0, 57, 0
4, 25152, Note_on_c, 0, 50, 88
4, 25296, Note_on_c, 0, 50, 0
4, 25296, Note_on_c, 0, 52, 88
4, 25344, Note_on_c, 0, 52, 0
4, 25344, Note_on_c, 0, 53, 88
4, 25488, Note_on_c, 0, 53, 0
4, 25488, Note_on_c, 0, 55, 88
4, 25536, Note_on_c, 0, 55, 0
4, 25536, Note_on_c, 0, 57, 88
4, 25728, Note_on_c, 0, 57, 0
4, 25728, Note_on_c, 0, 58, 88
4, 25920, Note_on_c, 0, 58, 0
4, 25920, Note_on_c, 0, 57, 88
4, 26064, Note_on_c, 0, 57, 0
4, 26064, Note_on_c, 0, 55, 88
4, 26112, Note_on_c, 0, 55, 0
4, 26112, Note_on_c, 0, 53, 88
4, 26304, Note_on_c, 0, 53, 0
4, 26304, Note_on_c, 0, 53, 88
4, 26352, Note_on_c, 0, 53, 0
4, 26352, Note_on_c, 0, 52, 88
4, 26400, Note_on_c, 0, 52, 0
4, 26400, Note_on_c, 0, 53, 88
4, 26448, Note_on_c, 0, 53, 0
4, 26448, Note_on_c, 0, 55, 88
4, 26496, Note_on_c, 0, 55, 0
4, 26496, Note_on_c, 0, 57, 88
4, 26544, Note_on_c, 0, 57, 0
4, 26544, Note_on_c, 0, 60, 72
4, 26592, Note_on_c, 0, 60, 0
4, 26592, Note_on_c, 0, 62, 72
4, 26640, Note_on_c, 0, 62, 0
4, 26640, Note_on_c, 0, 64, 72
4, 26688, Note_on_c, 0, 64, 0
4, 26688, Note_on_c, 0, 65, 72
4, 26832, Note_on_c, 0, 65, 0
4, 26832, Note_on_c, 0, 64, 72
4, 26880, Note_on_c, 0, 64, 0
4, 26880, Note_on_c, 0, 62, 72
4, 27024, Note_on_c, 0, 62, 0
4, 27024, Note_on_c, 0, 60, 72
4, 27072, Note_on_c, 0, 60, 0
4, 27072, Note_on_c, 0, 58, 72
4, 27216, Note_on_c, 0, 58, 0
4, 27216, Note_on_c, 0, 57, 72
4, 27264, Note_on_c, 0, 57, 0
4, 27264, Note_on_c, 0, 55, 72
4, 27312, Note_on_c, 0, 55, 0
4, 27312, Note_on_c, 0, 62, 72
4, 27360, Note_on_c, 0, 62, 0
4, 27360, Note_on_c, 0, 64, 72
4, 27408, Note_on_c, 0, 64, 0
4, 27408, Note_on_c, 0, 66, 72
4, 27456, Note_on_c, 0, 66, 0
4, 27456, Note_on_c, 0, 67, 72
4, 27600, Note_on_c, 0, 67, 0
4, 27600, Note_on_c, 0, 65, 72
4, 27648, Note_on_c, 0, 65, 0
4, 27648, Note_on_c, 0, 64, 72
4, 27792, Note_on_c, 0, 64, 0
4, 27792, Note_on_c, 0, 62, 72
4, 27840, Note_on_c, 0, 62, 0
4, 27840, Note_on_c, 0, 60, 72
4, 27984, Note_on_c, 0, 60, 0
4, 27984, Note_on_c, 0, 59, 72
4, 28032, Note_on_c, 0, 59, 0
4, 28032, Note_on_c, 0, 57, 72
4, 28080, Note_on_c, 0, 57, 0
4, 28080, Note_on_c, 0, 64, 72
4, 28128, Note_on_c, 0, 64, 0
4, 28128, Note_on_c, 0, 66, 72
4, 28176, Note_on_c, 0, 66, 0
4, 28176, Note_on_c, 0, 68, 72
4, 28224, Note_on_c, 0, 68, 0
4, 28224, Note_on_c, 0, 69, 72
4, 28368, Note_on_c, 0, 69, 0
4, 28368, Note_on_c, 0, 67, 72
4, 28416, Note_on_c, 0, 67, 0
4, 28416, Note_on_c, 0, 65, 72
4, 28464, Note_on_c, 0, 65, 0
4, 28464, Note_on_c, 0, 64, 72
4, 28512, Note_on_c, 0, 64, 0
4, 28512, Note_on_c, 0, 65, 72
4, 28560, Note_on_c, 0, 65, 0
4, 28560, Note_on_c, 0, 60, 72
4, 28608, Note_on_c, 0, 60, 0
4, 28608, Note_on_c, 0, 62, 72
4, 28656, Note_on_c, 0, 62, 0
4, 28656, Note_on_c, 0, 60, 72
4, 28704, Note_on_c, 0, 60, 0
4, 28704, Note_on_c, 0, 62, 72
4, 28752, Note_on_c, 0, 62, 0
4, 28752, Note_on_c, 0, 58, 72
4, 28800, Note_on_c, 0, 58, 0
4, 28800, Note_on_c, 0, 57, 72
4, 28848, Note_on_c, 0, 57, 0
4, 28848, Note_on_c, 0, 55, 72
4, 28896, Note_on_c, 0, 55, 0
4, 28896, Note_on_c, 0, 53, 72
4, 29040, Note_on_c, 0, 53, 0
4, 29040, Note_on_c, 0, 52, 72
4, 29088, Note_on_c, 0, 52, 0
4, 29088, Note_on_c, 0, 53, 72
4, 29136, Note_on_c, 0, 53, 0
4, 29136, Note_on_c, 0, 57, 72
4, 29184, Note_on_c, 0, 57, 0
4, 29184, Note_on_c, 0, 57, 72
4, 29232, Note_on_c, 0, 57, 0
4, 29232, Note_on_c, 0, 55, 72
4, 29280, Note_on_c, 0, 55, 0
4, 29280, Note_on_c, 0, 53, 72
4, 29328, Note_on_c, 0, 53, 0
4, 29328, Note_on_c, 0, 55, 72
4, 29376, Note_on_c, 0, 55, 0
4, 29376, Note_on_c, 0, 57, 72
4, 29520, Note_on_c, 0, 57, 0
4, 29520, Note_on_c, 0, 58, 72
4, 29568, Note_on_c, 0, 58, 0
4, 29568, Note_on_c, 0, 60, 72
4, 29856, Note_on_c, 0, 60, 0
4, 29856, Note_on_c, 0, 53, 72
4, 29952, Note_on_c, 0, 53, 0
4, 29952, Note_on_c, 0, 53, 72
4, 30000, Note_on_c, 0, 53, 0
4, 30000, Note_on_c, 0, 50, 72
4, 30048, Note_on_c, 0, 50, 0
4, 30048, Note_on_c, 0, 52, 72
4, 30096, Note_on_c, 0, 52, 0
4, 30096, Note_on_c, 0, 55, 72
4, 30144, Note_on_c, 0, 55, 0
4, 30144, Note_on_c, 0, 60, 72
4, 30288, Note_on_c, 0, 60, 0
4, 30288, Note_on_c, 0, 58, 72
4, 30336, Note_on_c, 0, 58, 0
4, 30336, Note_on_c, 0, 57, 72
4, 30528, Note_on_c, 0, 57, 0
4, 30528, Note_on_c, 0, 57, 72
4, 30576, Note_on_c, 0, 57, 0
4, 30576, Note_on_c, 0, 53, 72
4, 30624, Note_on_c, 0, 53, 0
4, 30624, Note_on_c, 0, 55, 72
4, 30672, Note_on_c, 0, 55, 0
4, 30672, Note_on_c, 0, 60, 72
4, 30720, Note_on_c, 0, 60, 0
4, 30720, Note_on_c, 0, 53, 72
4, 30912, Note_on_c, 0, 53, 0
4, 31008, Note_on_c, 0, 58, 72
4, 31104, Note_on_c, 0, 58, 0
4, 31104, Note_on_c, 0, 58, 72
4, 31152, Note_on_c, 0, 58, 0
4, 31152, Note_on_c, 0, 50, 72
4, 31200, Note_on_c, 0, 50, 0
4, 31200, Note_on_c, 0, 52, 72
4, 31248, Note_on_c, 0, 52, 0
4, 31248, Note_on_c, 0, 55, 72
4, 31296, Note_on_c, 0, 55, 0
4, 31296, Note_on_c, 0, 49, 72
4, 31440, Note_on_c, 0, 49, 0
4, 31440, Note_on_c, 0, 49, 72
4, 31488, Note_on_c, 0, 49, 0
4, 31488, Note_on_c, 0, 50, 72
4, 31536, Note_on_c, 0, 50, 0
4, 31536, Note_on_c, 0, 52, 72
4, 31584, Note_on_c, 0, 52, 0
4, 31584, Note_on_c, 0, 53, 72
4, 31632, Note_on_c, 0, 53, 0
4, 31632, Note_on_c, 0, 57, 72
4, 31680, Note_on_c, 0, 57, 0
4, 31680, Note_on_c, 0, 62, 72
4, 31824, Note_on_c, 0, 62, 0
4, 31824, Note_on_c, 0, 60, 72
4, 31872, Note_on_c, 0, 60, 0
4, 31872, Note_on_c, 0, 58, 72
4, 32064, Note_on_c, 0, 58, 0
4, 32064, Note_on_c, 0, 58, 72
4, 32112, Note_on_c, 0, 58, 0
4, 32112, Note_on_c, 0, 55, 72
4, 32160, Note_on_c, 0, 55, 0
4, 32160, Note_on_c, 0, 57, 72
4, 32208, Note_on_c, 0, 57, 0
4, 32208, Note_on_c, 0, 62, 72
4, 32256, Note_on_c, 0, 62, 0
4, 32256, Note_on_c, 0, 55, 72
4, 32352, Note_on_c, 0, 55, 0
4, 32352, Note_on_c, 0, 62, 72
4, 32400, Note_on_c, 0, 62, 0
4, 32400, Note_on_c, 0, 64, 72
4, 32448, Note_on_c, 0, 64, 0
4, 32448, Note_on_c, 0, 66, 72
4, 32496, Note_on_c, 0, 66, 0
4, 32496, Note_on_c, 0, 64, 72
4, 32544, Note_on_c, 0, 64, 0
4, 32544, Note_on_c, 0, 62, 72
4, 32592, Note_on_c, 0, 62, 0
4, 32592, Note_on_c, 0, 61, 72
4, 32640, Note_on_c, 0, 61, 0
4, 32640, Note_on_c, 0, 62, 72
4, 32688, Note_on_c, 0, 62, 0
4, 32688, Note_on_c, 0, 57, 72
4, 32736, Note_on_c, 0, 57, 0
4, 32736, Note_on_c, 0, 69, 72
4, 32880, Note_on_c, 0, 69, 0
4, 32880, Note_on_c, 0, 64, 72
4, 32928, Note_on_c, 0, 64, 0
4, 32928, Note_on_c, 0, 62, 72
4, 32976, Note_on_c, 0, 62, 0
4, 32976, Note_on_c, 0, 61, 72
4, 33024, Note_on_c, 0, 61, 0
4, 33024, Note_on_c, 0, 67, 72
4, 33120, Note_on_c, 0, 67, 0
4, 33120, Note_on_c, 0, 62, 72
4, 33216, Note_on_c, 0, 62, 0
4, 33264, Note_on_c, 0, 62, 72
4, 33312, Note_on_c, 0, 62, 0
4, 33312, Note_on_c, 0, 60, 72
4, 33360, Note_on_c, 0, 60, 0
4, 33360, Note_on_c, 0, 58, 72
4, 33408, Note_on_c, 0, 58, 0
4, 33408, Note_on_c, 0, 57, 72
4, 33552, Note_on_c, 0, 57, 0
4, 33552, Note_on_c, 0, 61, 72
4, 33600, Note_on_c, 0, 61, 0
4, 33600, Note_on_c, 0, 62, 72
4, 33696, Note_on_c, 0, 62, 0
4, 33696, Note_on_c, 0, 57, 72
4, 33792, Note_on_c, 0, 57, 0
4, 33792, Note_on_c, 0, 69, 72
4, 33840, Note_on_c, 0, 69, 0
4, 33840, Note_on_c, 0, 64, 72
4, 33888, Note_on_c, 0, 64, 0
4, 33888, Note_on_c, 0, 62, 72
4, 33936, Note_on_c, 0, 62, 0
4, 33936, Note_on_c, 0, 64, 72
4, 33984, Note_on_c, 0, 64, 0
4, 33984, Note_on_c, 0, 65, 72
4, 34080, Note_on_c, 0, 65, 0
4, 34080, Note_on_c, 0, 61, 72
4, 34176, Note_on_c, 0, 61, 0
4, 34176, Note_on_c, 0, 62, 72
4, 34272, Note_on_c, 0, 62, 0
4, 34272, Note_on_c, 0, 57, 72
4, 34368, Note_on_c, 0, 57, 0
4, 34368, Note_on_c, 0, 60, 72
4, 34464, Note_on_c, 0, 60, 0
4, 34464, Note_on_c, 0, 54, 72
4, 34560, Note_on_c, 0, 54, 0
4, 34560, Note_on_c, 0, 55, 72
4, 34656, Note_on_c, 0, 55, 0
4, 34656, Note_on_c, 0, 60, 72
4, 34752, Note_on_c, 0, 60, 0
4, 34800, Note_on_c, 0, 60, 72
4, 34848, Note_on_c, 0, 60, 0
4, 34848, Note_on_c, 0, 58, 72
4, 34896, Note_on_c, 0, 58, 0
4, 34896, Note_on_c, 0, 60, 72
4, 34944, Note_on_c, 0, 60, 0
4, 34944, Note_on_c, 0, 62, 72
4, 35040, Note_on_c, 0, 62, 0
4, 35040, Note_on_c, 0, 57, 72
4, 35136, Note_on_c, 0, 57, 0
4, 35136, Note_on_c, 0, 60, 72
4, 35232, Note_on_c, 0, 60, 0
4, 35232, Note_on_c, 0, 61, 72
4, 35328, Note_on_c, 0, 61, 0
4, 35328, Note_on_c, 0, 62, 72
4, 35424, Note_on_c, 0, 62, 0
4, 35424, Note_on_c, 0, 60, 72
4, 35520, Note_on_c, 0, 60, 0
4, 35520, Note_on_c, 0, 58, 72
4, 35616, Note_on_c, 0, 58, 0
4, 35616, Note_on_c, 0, 55, 72
4, 35712, Note_on_c, 0, 55, 0
4, 35712, Note_on_c, 0, 57, 72
4, 35760, Note_on_c, 0, 57, 0
4, 35760, Note_on_c, 0, 60, 72
4, 35808, Note_on_c, 0, 60, 0
4, 35808, Note_on_c, 0, 58, 72
4, 35856, Note_on_c, 0, 58, 0
4, 35856, Note_on_c, 0, 60, 72
4, 35904, Note_on_c, 0, 60, 0
4, 35904, Note_on_c, 0, 62, 72
4, 36000, Note_on_c, 0, 62, 0
4, 36000, Note_on_c, 0, 57, 72
4, 36096, Note_on_c, 0, 57, 0
4, 36096, Note_on_c, 0, 58, 72
4, 36192, Note_on_c, 0, 58, 0
4, 36192, Note_on_c, 0, 60, 72
4, 36336, Note_on_c, 0, 60, 0
4, 36336, Note_on_c, 0, 57, 72
4, 36384, Note_on_c, 0, 57, 0
4, 36384, Note_on_c, 0, 58, 72
4, 36432, Note_on_c, 0, 58, 0
4, 36432, Note_on_c, 0, 57, 72
4, 36480, Note_on_c, 0, 57, 0
4, 36480, Note_on_c, 0, 55, 72
4, 36576, Note_on_c, 0, 55, 0
4, 36576, Note_on_c, 0, 60, 72
4, 36672, Note_on_c, 0, 60, 0
4, 36720, Note_on_c, 0, 53, 72
4, 36768, Note_on_c, 0, 53, 0
4, 36768, Note_on_c, 0, 55, 72
4, 36816, Note_on_c, 0, 55, 0
4, 36816, Note_on_c, 0, 53, 72
4, 36864, Note_on_c, 0, 53, 0
4, 36864, Note_on_c, 0, 51, 72
4, 36960, Note_on_c, 0, 51, 0
4, 36960, Note_on_c, 0, 57, 72
4, 37056, Note_on_c, 0, 57, 0
4, 37104, Note_on_c, 0, 50, 72
4, 37152, Note_on_c, 0, 50, 0
4, 37152, Note_on_c, 0, 51, 72
4, 37200, Note_on_c, 0, 51, 0
4, 37200, Note_on_c, 0, 49, 72
4, 37248, Note_on_c, 0, 49, 0
4, 37248, Note_on_c, 0, 50, 72
4, 37344, Note_on_c, 0, 50, 0
4, 37440, Note_on_c, 0, 62, 72
4, 37584, Note_on_c, 0, 62, 0
4, 37584, Note_on_c, 0, 60, 72
4, 37632, Note_on_c, 0, 60, 0
4, 37632, Note_on_c, 0, 59, 72
4, 37680, Note_on_c, 0, 59, 0
4, 37680, Note_on_c, 0, 57, 72
4, 37728, Note_on_c, 0, 57, 0
4, 37728, Note_on_c, 0, 55, 72
4, 37824, Note_on_c, 0, 55, 0
4, 37824, Note_on_c, 0, 60, 72
4, 37968, Note_on_c, 0, 60, 0
4, 37968, Note_on_c, 0, 58, 72
4, 38016, Note_on_c, 0, 58, 0
4, 38016, Note_on_c, 0, 57, 72
4, 38064, Note_on_c, 0, 57, 0
4, 38064, Note_on_c, 0, 55, 72
4, 38112, Note_on_c, 0, 55, 0
4, 38112, Note_on_c, 0, 53, 72
4, 38208, Note_on_c, 0, 53, 0
4, 38208, Note_on_c, 0, 58, 72
4, 38352, Note_on_c, 0, 58, 0
4, 38352, Note_on_c, 0, 57, 72
4, 38400, Note_on_c, 0, 57, 0
4, 38400, Note_on_c, 0, 55, 72
4, 38784, Note_on_c, 0, 55, 0
4, 38784, Note_on_c, 0, 53, 72
4, 38928, Note_on_c, 0, 53, 0
4, 38928, Note_on_c, 0, 55, 72
4, 38976, Note_on_c, 0, 55, 0
4, 38976, Note_on_c, 0, 57, 72
4, 39024, Note_on_c, 0, 57, 0
4, 39024, Note_on_c, 0, 58, 72
4, 39072, Note_on_c, 0, 58, 0
4, 39072, Note_on_c, 0, 60, 72
4, 39120, Note_on_c, 0, 60, 0
4, 39120, Note_on_c, 0, 57, 72
4, 39168, Note_on_c, 0, 57, 0
4, 39168, Note_on_c, 0, 58, 72
4, 39264, Note_on_c, 0, 58, 0
4, 39264, Note_on_c, 0, 53, 88
4, 39360, Note_on_c, 0, 53, 0
4, 39360, Note_on_c, 0, 55, 88
4, 39456, Note_on_c, 0, 55, 0
4, 39456, Note_on_c, 0, 50, 88
4, 39552, Note_on_c, 0, 50, 0
4, 39648, Note_on_c, 0, 58, 88
4, 39744, Note_on_c, 0, 58, 0
4, 39744, Note_on_c, 0, 57, 88
4, 39840, Note_on_c, 0, 57, 0
4, 39840, Note_on_c, 0, 62, 88
4, 39936, Note_on_c, 0, 62, 0
4, 39936, Note_on_c, 0, 55, 88
4, 39984, Note_on_c, 0, 55, 0
4, 39984, Note_on_c, 0, 57, 88
4, 40032, Note_on_c, 0, 57, 0
4, 40032, Note_on_c, 0, 58, 88
4, 40080, Note_on_c, 0, 58, 0
4, 40080, Note_on_c, 0, 60, 88
4, 40128, Note_on_c, 0, 60, 0
4, 40128, Note_on_c, 0, 62, 88
4, 40176, Note_on_c, 0, 62, 0
4, 40176, Note_on_c, 0, 63, 88
4, 40224, Note_on_c, 0, 63, 0
4, 40224, Note_on_c, 0, 65, 88
4, 40320, Note_on_c, 0, 65, 0
4, 40320, Note_on_c, 0, 65, 88
4, 40368, Note_on_c, 0, 65, 0
4, 40368, Note_on_c, 0, 63, 88
4, 40416, Note_on_c, 0, 63, 0
4, 40416, Note_on_c, 0, 62, 88
4, 40464, Note_on_c, 0, 62, 0
4, 40464, Note_on_c, 0, 60, 88
4, 40512, Note_on_c, 0, 60, 0
4, 40512, Note_on_c, 0, 58, 88
4, 40704, Note_on_c, 0, 58, 0
4, 40704, Note_on_c, 0, 57, 72
4, 40800, Note_on_c, 0, 57, 0
4, 40800, Note_on_c, 0, 65, 72
4, 40896, Note_on_c, 0, 65, 0
4, 40896, Note_on_c, 0, 63, 72
4, 40992, Note_on_c, 0, 63, 0
4, 40992, Note_on_c, 0, 62, 72
4, 41088, Note_on_c, 0, 62, 0
4, 41088, Note_on_c, 0, 60, 72
4, 41280, Note_on_c, 0, 60, 0
4, 41280, Note_on_c, 0, 65, 72
4, 41472, Note_on_c, 0, 65, 0
4, 41472, Note_on_c, 0, 58, 72
4, 41520, Note_on_c, 0, 58, 0
4, 41520, Note_on_c, 0, 60, 72
4, 41568, Note_on_c, 0, 60, 0
4, 41568, Note_on_c, 0, 62, 72
4, 41616, Note_on_c, 0, 62, 0
4, 41616, Note_on_c, 0, 58, 72
4, 41664, Note_on_c, 0, 58, 0
4, 41664, Note_on_c, 0, 63, 72
4, 41712, Note_on_c, 0, 63, 0
4, 41712, Note_on_c, 0, 62, 72
4, 41760, Note_on_c, 0, 62, 0
4, 41760, Note_on_c, 0, 60, 72
4, 41808, Note_on_c, 0, 60, 0
4, 41808, Note_on_c, 0, 58, 72
4, 41856, Note_on_c, 0, 58, 0
4, 41856, Note_on_c, 0, 57, 72
4, 41904, Note_on_c, 0, 57, 0
4, 41904, Note_on_c, 0, 58, 72
4, 41952, Note_on_c, 0, 58, 0
4, 41952, Note_on_c, 0, 60, 72
4, 42000, Note_on_c, 0, 60, 0
4, 42000, Note_on_c, 0, 57, 72
4, 42048, Note_on_c, 0, 57, 0
4, 42048, Note_on_c, 0, 62, 72
4, 42144, Note_on_c, 0, 62, 0
4, 42144, Note_on_c, 0, 50, 72
4, 42240, Note_on_c, 0, 50, 0
4, 42240, Note_on_c, 0, 55, 72
4, 42336, Note_on_c, 0, 55, 0
4, 42336, Note_on_c, 0, 67, 72
4, 42480, Note_on_c, 0, 67, 0
4, 42480, Note_on_c, 0, 65, 72
4, 42528, Note_on_c, 0, 65, 0
4, 42528, Note_on_c, 0, 64, 72
4, 42576, Note_on_c, 0, 64, 0
4, 42576, Note_on_c, 0, 62, 72
4, 42624, Note_on_c, 0, 62, 0
4, 42624, Note_on_c, 0, 61, 72
4, 42672, Note_on_c, 0, 61, 0
4, 42672, Note_on_c, 0, 62, 72
4, 42720, Note_on_c, 0, 62, 0
4, 42720, Note_on_c, 0, 64, 72
4, 42768, Note_on_c, 0, 64, 0
4, 42768, Note_on_c, 0, 61, 72
4, 42816, Note_on_c, 0, 61, 0
4, 42816, Note_on_c, 0, 62, 72
4, 42864, Note_on_c, 0, 62, 0
4, 42864, Note_on_c, 0, 60, 72
4, 42912, Note_on_c, 0, 60, 0
4, 42912, Note_on_c, 0, 58, 72
4, 42960, Note_on_c, 0, 58, 0
4, 42960, Note_on_c, 0, 57, 72
4, 43008, Note_on_c, 0, 57, 0
4, 43008, Note_on_c, 0, 55, 72
4, 43056, Note_on_c, 0, 55, 0
4, 43056, Note_on_c, 0, 50, 72
4, 43104, Note_on_c, 0, 50, 0
4, 43104, Note_on_c, 0, 52, 72
4, 43152, Note_on_c, 0, 52, 0
4, 43152, Note_on_c, 0, 53, 72
4, 43200, Note_on_c, 0, 53, 0
4, 43200, Note_on_c, 0, 55, 72
4, 43248, Note_on_c, 0, 55, 0
4, 43248, Note_on_c, 0, 57, 72
4, 43296, Note_on_c, 0, 57, 0
4, 43296, Note_on_c, 0, 58, 72
4, 43344, Note_on_c, 0, 58, 0
4, 43344, Note_on_c, 0, 55, 72
4, 43392, Note_on_c, 0, 55, 0
4, 43392, Note_on_c, 0, 57, 72
4, 43776, Note_on_c, 0, 57, 0
4, 43872, Note_on_c, 0, 57, 88
4, 43968, Note_on_c, 0, 57, 0
4, 43968, Note_on_c, 0, 58, 88
4, 44064, Note_on_c, 0, 58, 0
4, 44064, Note_on_c, 0, 53, 88
4, 44160, Note_on_c, 0, 53, 0
4, 44256, Note_on_c, 0, 62, 88
4, 44352, Note_on_c, 0, 62, 0
4, 44352, Note_on_c, 0, 60, 88
4, 44448, Note_on_c, 0, 60, 0
4, 44448, Note_on_c, 0, 65, 88
4, 44544, Note_on_c, 0, 65, 0
4, 44544, Note_on_c, 0, 58, 88
4, 44592, Note_on_c, 0, 58, 0
4, 44592, Note_on_c, 0, 60, 88
4, 44640, Note_on_c, 0, 60, 0
4, 44640, Note_on_c, 0, 62, 88
4, 44688, Note_on_c, 0, 62, 0
4, 44688, Note_on_c, 0, 64, 88
4, 44736, Note_on_c, 0, 64, 0
4, 44736, Note_on_c, 0, 65, 88
4, 44784, Note_on_c, 0, 65, 0
4, 44784, Note_on_c, 0, 67, 88
4, 44832, Note_on_c, 0, 67, 0
4, 44832, Note_on_c, 0, 69, 88
4, 44928, Note_on_c, 0, 69, 0
4, 44928, Note_on_c, 0, 69, 88
4, 44976, Note_on_c, 0, 69, 0
4, 44976, Note_on_c, 0, 67, 88
4, 45024, Note_on_c, 0, 67, 0
4, 45024, Note_on_c, 0, 65, 88
4, 45072, Note_on_c, 0, 65, 0
4, 45072, Note_on_c, 0, 64, 88
4, 45120, Note_on_c, 0, 64, 0
4, 45120, Note_on_c, 0, 62, 88
4, 45264, Note_on_c, 0, 62, 0
4, 45264, Note_on_c, 0, 64, 88
4, 45312, Note_on_c, 0, 64, 0
4, 45312, Note_on_c, 0, 65, 88
4, 45408, Note_on_c, 0, 65, 0
4, 45408, Note_on_c, 0, 64, 88
4, 45456, Note_on_c, 0, 64, 0
4, 45456, Note_on_c, 0, 62, 88
4, 45504, Note_on_c, 0, 62, 0
4, 45504, Note_on_c, 0, 64, 88
4, 45552, Note_on_c, 0, 64, 0
4, 45552, Note_on_c, 0, 65, 88
4, 45600, Note_on_c, 0, 65, 0
4, 45600, Note_on_c, 0, 67, 88
4, 45696, Note_on_c, 0, 67, 0
4, 45696, Note_on_c, 0, 67, 88
4, 45792, Note_on_c, 0, 67, 0
4, 45792, Note_on_c, 0, 66, 88
4, 45984, Note_on_c, 0, 66, 0
4, 46080, End_track
5, 0, Start_track
5, 2400, Note_on_c, 0, 53, 88
5, 2496, Note_on_c, 0, 53, 0
5, 2496, Note_on_c, 0, 52, 88
5, 2592, Note_on_c, 0, 52, 0
5, 2592, Note_on_c, 0, 57, 88
5, 2688, Note_on_c, 0, 57, 0
5, 2784, Note_on_c, 0, 49, 88
5, 2880, Note_on_c, 0, 49, 0
5, 2880, Note_on_c, 0, 50, 88
5, 2976, Note_on_c, 0, 50, 0
5, 2976, Note_on_c, 0, 45, 88
5, 3072, Note_on_c, 0, 45, 0
5, 3072, Note_on_c, 0, 52, 88
5, 3120, Note_on_c, 0, 52, 0
5, 3120, Note_on_c, 0, 50, 88
5, 3168, Note_on_c, 0, 50, 0
5, 3168, Note_on_c, 0, 48, 88
5, 3216, Note_on_c, 0, 48, 0
5, 3216, Note_on_c, 0, 47, 88
5, 3264, Note_on_c, 0, 47, 0
5, 3264, Note_on_c, 0, 45, 88
5, 3312, Note_on_c, 0, 45, 0
5, 3312, Note_on_c, 0, 43, 88
5, 3360, Note_on_c, 0, 43, 0
5, 3360, Note_on_c, 0, 41, 88
5, 3456, Note_on_c, 0, 41, 0
5, 3456, Note_on_c, 0, 41, 88
5, 3504, Note_on_c, 0, 41, 0
5, 3504, Note_on_c, 0, 43, 88
5, 3552, Note_on_c, 0, 43, 0
5, 3552, Note_on_c, 0, 45, 88
5, 3600, Note_on_c, 0, 45, 0
5, 3600, Note_on_c, 0, 47, 88
5, 3648, Note_on_c, 0, 47, 0
5, 3648, Note_on_c, 0, 48, 72
5, 3744, Note_on_c, 0, 48, 0
5, 3744, Note_on_c, 0, 45, 72
5, 3840, Note_on_c, 0, 45, 0
5, 3840, Note_on_c, 0, 47, 72
5, 3936, Note_on_c, 0, 47, 0
5, 3936, Note_on_c, 0, 52, 72
5, 4080, Note_on_c, 0, 52, 0
5, 4080, Note_on_c, 0, 45, 72
5, 4128, Note_on_c, 0, 45, 0
5, 4128, Note_on_c, 0, 47, 72
5, 4176, Note_on_c, 0, 47, 0
5, 4176, Note_on_c, 0, 49, 72
5, 4224, Note_on_c, 0, 49, 0
5, 4224, Note_on_c, 0, 50, 72
5, 4416, Note_on_c, 0, 50, 0
5, 4416, Note_on_c, 0, 48, 72
5, 4464, Note_on_c, 0, 48, 0
5, 4464, Note_on_c, 0, 50, 72
5, 4512, Note_on_c, 0, 50, 0
5, 4512, Note_on_c, 0, 52, 72
5, 4560, Note_on_c, 0, 52, 0
5, 4560, Note_on_c, 0, 54, 72
5, 4608, Note_on_c, 0, 54, 0
5, 4608, Note_on_c, 0, 55, 72
5, 4800, Note_on_c, 0, 55, 0
5, 4800, Note_on_c, 0, 50, 72
5, 4848, Note_on_c, 0, 50, 0
5, 4848, Note_on_c, 0, 52, 72
5, 4896, Note_on_c, 0, 52, 0
5, 4896, Note_on_c, 0, 53, 72
5, 4944, Note_on_c, 0, 53, 0
5, 4944, Note_on_c, 0, 55, 72
5, 4992, Note_on_c, 0, 55, 0
5, 4992, Note_on_c, 0, 57, 72
5, 5184, Note_on_c, 0, 57, 0
5, 5184, Note_on_c, 0, 57, 72
5, 5232, Note_on_c, 0, 57, 0
5, 5232, Note_on_c, 0, 53, 72
5, 5280, Note_on_c, 0, 53, 0
5, 5280, Note_on_c, 0, 55, 72
5, 5328, Note_on_c, 0, 55, 0
5, 5328, Note_on_c, 0, 52, 72
5, 5376, Note_on_c, 0, 52, 0
5, 5376, Note_on_c, 0, 53, 72
5, 5424, Note_on_c, 0, 53, 0
5, 5424, Note_on_c, 0, 52, 72
5, 5472, Note_on_c, 0, 52, 0
5, 5472, Note_on_c, 0, 50, 72
5, 5520, Note_on_c, 0, 50, 0
5, 5520, Note_on_c, 0, 49, 72
5, 5568, Note_on_c, 0, 49, 0
5, 5568, Note_on_c, 0, 50, 72
5, 5616, Note_on_c, 0, 50, 0
5, 5616, Note_on_c, 0, 46, 72
5, 5664, Note_on_c, 0, 46, 0
5, 5664, Note_on_c, 0, 48, 72
5, 5712, Note_on_c, 0, 48, 0
5, 5712, Note_on_c, 0, 45, 72
5, 5760, Note_on_c, 0, 45, 0
5, 5760, Note_on_c, 0, 47, 72
5, 5808, Note_on_c, 0, 47, 0
5, 5808, Note_on_c, 0, 49, 72
5, 5856, Note_on_c, 0, 49, 0
5, 5856, Note_on_c, 0, 50, 72
5, 6048, Note_on_c, 0, 50, 0
5, 6048, Note_on_c, 0, 41, 72
5, 6144, Note_on_c, 0, 41, 0
5, 6144, Note_on_c, 0, 43, 72
5, 6432, Note_on_c, 0, 43, 0
5, 6432, Note_on_c, 0, 41, 72
5, 6480, Note_on_c, 0, 41, 0
5, 6480, Note_on_c, 0, 43, 72
5, 6528, Note_on_c, 0, 43, 0
5, 6528, Note_on_c, 0, 45, 72
5, 6816, Note_on_c, 0, 45, 0
5, 6816, Note_on_c, 0, 46, 72
5, 6864, Note_on_c, 0, 46, 0
5, 6864, Note_on_c, 0, 48, 72
5, 6912, Note_on_c, 0, 48, 0
5, 6912, Note_on_c, 0, 50, 72
5, 7008, Note_on_c, 0, 50, 0
5, 7008, Note_on_c, 0, 52, 72
5, 7056, Note_on_c, 0, 52, 0
5, 7056, Note_on_c, 0, 54, 72
5, 7104, Note_on_c, 0, 54, 0
5, 7104, Note_on_c, 0, 55, 72
5, 7152, Note_on_c, 0, 55, 0
5, 7152, Note_on_c, 0, 53, 72
5, 7200, Note_on_c, 0, 53, 0
5, 7200, Note_on_c, 0, 52, 72
5, 7248, Note_on_c, 0, 52, 0
5, 7248, Note_on_c, 0, 50, 72
5, 7296, Note_on_c, 0, 50, 0
5, 7296, Note_on_c, 0, 48, 72
5, 7392, Note_on_c, 0, 48, 0
5, 7392, Note_on_c, 0, 50, 72
5, 7440, Note_on_c, 0, 50, 0
5, 7440, Note_on_c, 0, 52, 72
5, 7488, Note_on_c, 0, 52, 0
5, 7488, Note_on_c, 0, 53, 72
5, 7536, Note_on_c, 0, 53, 0
5, 7536, Note_on_c, 0, 52, 72
5, 7584, Note_on_c, 0, 52, 0
5, 7584, Note_on_c, 0, 50, 72
5, 7632, Note_on_c, 0, 50, 0
5, 7632, Note_on_c, 0, 48, 72
5, 7680, Note_on_c, 0, 48, 0
5, 7680, Note_on_c, 0, 46, 72
5, 7776, Note_on_c, 0, 46, 0
5, 7776, Note_on_c, 0, 58, 72
5, 7824, Note_on_c, 0, 58, 0
5, 7824, Note_on_c, 0, 57, 72
5, 7872, Note_on_c, 0, 57, 0
5, 7872, Note_on_c, 0, 58, 72
5, 7968, Note_on_c, 0, 58, 0
5, 7968, Note_on_c, 0, 46, 72
5, 8064, Note_on_c, 0, 46, 0
5, 8064, Note_on_c, 0, 45, 72
5, 8160, Note_on_c, 0, 45, 0
5, 8160, Note_on_c, 0, 57, 72
5, 8208, Note_on_c, 0, 57, 0
5, 8208, Note_on_c, 0, 58, 72
5, 8256, Note_on_c, 0, 58, 0
5, 8256, Note_on_c, 0, 57, 72
5, 8304, Note_on_c, 0, 57, 0
5, 8304, Note_on_c, 0, 55, 72
5, 8352, Note_on_c, 0, 55, 0
5, 8352, Note_on_c, 0, 53, 72
5, 8400, Note_on_c, 0, 53, 0
5, 8400, Note_on_c, 0, 52, 72
5, 8448, Note_on_c, 0, 52, 0
5, 8448, Note_on_c, 0, 53, 72
5, 8496, Note_on_c, 0, 53, 0
5, 8496, Note_on_c, 0, 52, 72
5, 8544, Note_on_c, 0, 52, 0
5, 8544, Note_on_c, 0, 53, 72
5, 8592, Note_on_c, 0, 53, 0
5, 8592, Note_on_c, 0, 55, 72
5, 8640, Note_on_c, 0, 55, 0
5, 8640, Note_on_c, 0, 53, 72
5, 8688, Note_on_c, 0, 53, 0
5, 8688, Note_on_c, 0, 52, 72
5, 8736, Note_on_c, 0, 52, 0
5, 8736, Note_on_c, 0, 50, 72
5, 8784, Note_on_c, 0, 50, 0
5, 8784, Note_on_c, 0, 49, 72
5, 8832, Note_on_c, 0, 49, 0
5, 8832, Note_on_c, 0, 50, 72
5, 8880, Note_on_c, 0, 50, 0
5, 8880, Note_on_c, 0, 38, 72
5, 8928, Note_on_c, 0, 38, 0
5, 8928, Note_on_c, 0, 50, 72
5, 8976, Note_on_c, 0, 50, 0
5, 8976, Note_on_c, 0, 52, 72
5, 9024, Note_on_c, 0, 52, 0
5, 9024, Note_on_c, 0, 53, 72
5, 9072, Note_on_c, 0, 53, 0
5, 9072, Note_on_c, 0, 57, 72
5, 9120, Note_on_c, 0, 57, 0
5, 9120, Note_on_c, 0, 62, 72
5, 9168, Note_on_c, 0, 62, 0
5, 9168, Note_on_c, 0, 65, 72
5, 9216, Note_on_c, 0, 65, 0
5, 9216, Note_on_c, 0, 64, 72
5, 9264, Note_on_c, 0, 64, 0
5, 9264, Note_on_c, 0, 65, 72
5, 9312, Note_on_c, 0, 65, 0
5, 9312, Note_on_c, 0, 67, 72
5, 9360, Note_on_c, 0, 67, 0
5, 9360, Note_on_c, 0, 64, 72
5, 9408, Note_on_c, 0, 64, 0
5, 9408, Note_on_c, 0, 61, 72
5, 9456, Note_on_c, 0, 61, 0
5, 9456, Note_on_c, 0, 62, 72
5, 9504, Note_on_c, 0, 62, 0
5, 9504, Note_on_c, 0, 64, 72
5, 9552, Note_on_c, 0, 64, 0
5, 9552, Note_on_c, 0, 61, 72
5, 9600, Note_on_c, 0, 61, 0
5, 9600, Note_on_c, 0, 62, 72
5, 9696, Note_on_c, 0, 62, 0
5, 9696, Note_on_c, 0, 50, 72
5, 9792, Note_on_c, 0, 50, 0
5, 11520, Note_on_c, 0, 57, 88
5, 11712, Note_on_c, 0, 57, 0
5, 11712, Note_on_c, 0, 50, 88
5, 11856, Note_on_c, 0, 50, 0
5, 11856, Note_on_c, 0, 52, 88
5, 11904, Note_on_c, 0, 52, 0
5, 11904, Note_on_c, 0, 53, 88
5, 12048, Note_on_c, 0, 53, 0
5, 12048, Note_on_c, 0, 55, 88
5, 12096, Note_on_c, 0, 55, 0
5, 12096, Note_on_c, 0, 57, 88
5, 12288, Note_on_c, 0, 57, 0
5, 12288, Note_on_c, 0, 58, 88
5, 12480, Note_on_c, 0, 58, 0
5, 12480, Note_on_c, 0, 57, 88
5, 12624, Note_on_c, 0, 57, 0
5, 12624, Note_on_c, 0, 55, 88
5, 12672, Note_on_c, 0, 55, 0
5, 12672, Note_on_c, 0, 53, 88
5, 12864, Note_on_c, 0, 53, 0
5, 12864, Note_on_c, 0, 53, 88
5, 12912, Note_on_c, 0, 53, 0
5, 12912, Note_on_c, 0, 52, 88
5, 12960, Note_on_c, 0, 52, 0
5, 12960, Note_on_c, 0, 53, 88
5, 13008, Note_on_c, 0, 53, 0
5, 13008, Note_on_c, 0, 55, 88
5, 13056, Note_on_c, 0, 55, 0
5, 13056, Note_on_c, 0, 57, 88
5, 13248, Note_on_c, 0, 57, 0
5, 13248, Note_on_c, 0, 57, 88
5, 13296, Note_on_c, 0, 57, 0
5, 13296, Note_on_c, 0, 55, 72
5, 13344, Note_on_c, 0, 55, 0
5, 13344, Note_on_c, 0, 53, 72
5, 13392, Note_on_c, 0, 53, 0
5, 13392, Note_on_c, 0, 52, 72
5, 13440, Note_on_c, 0, 52, 0
5, 13440, Note_on_c, 0, 50, 72
5, 13632, Note_on_c, 0, 50, 0
5, 13632, Note_on_c, 0, 55, 72
5, 13824, Note_on_c, 0, 55, 0
5, 13824, Note_on_c, 0, 55, 72
5, 13872, Note_on_c, 0, 55, 0
5, 13872, Note_on_c, 0, 55, 72
5, 13920, Note_on_c, 0, 55, 0
5, 13920, Note_on_c, 0, 53, 72
5, 13968, Note_on_c, 0, 53, 0
5, 13968, Note_on_c, 0, 52, 72
5, 14016, Note_on_c, 0, 52, 0
5, 14016, Note_on_c, 0, 53, 72
5, 14208, Note_on_c, 0, 53, 0
5, 14208, Note_on_c, 0, 53, 72
5, 14256, Note_on_c, 0, 53, 0
5, 14256, Note_on_c, 0, 52, 72
5, 14304, Note_on_c, 0, 52, 0
5, 14304, Note_on_c, 0, 53, 72
5, 14352, Note_on_c, 0, 53, 0
5, 14352, Note_on_c, 0, 55, 72
5, 14400, Note_on_c, 0, 55, 0
5, 14400, Note_on_c, 0, 57, 72
5, 14592, Note_on_c, 0, 57, 0
5, 14592, Note_on_c, 0, 57, 72
5, 14640, Note_on_c, 0, 57, 0
5, 14640, Note_on_c, 0, 58, 72
5, 14688, Note_on_c, 0, 58, 0
5, 14688, Note_on_c, 0, 57, 72
5, 14736, Note_on_c, 0, 57, 0
5, 14736, Note_on_c, 0, 55, 72
5, 14808, Note_on_c, 0, 55, 0
5, 14808, Note_on_c, 0, 54, 72
5, 14832, Note_on_c, 0, 54, 0
5, 14832, Note_on_c, 0, 55, 72
5, 14856, Note_on_c, 0, 55, 0
5, 14856, Note_on_c, 0, 54, 72
5, 14880, Note_on_c, 0, 54, 0
5, 14880, Note_on_c, 0, 55, 72
5, 14904, Note_on_c, 0, 55, 0
5, 14904, Note_on_c, 0, 54, 72
5, 14928, Note_on_c, 0, 54, 0
5, 14928, Note_on_c, 0, 52, 72
5, 14952, Note_on_c, 0, 52, 0
5, 14952, Note_on_c, 0, 54, 72
5, 14976, Note_on_c, 0, 54, 0
5, 14976, Note_on_c, 0, 55, 72
5, 15024, Note_on_c, 0, 55, 0
5, 15024, Note_on_c, 0, 57, 72
5, 15072, Note_on_c, 0, 57, 0
5, 15072, Note_on_c, 0, 55, 72
5, 15120, Note_on_c, 0, 55, 0
5, 15120, Note_on_c, 0, 53, 72
5, 15192, Note_on_c, 0, 53, 0
5, 15192, Note_on_c, 0, 52, 72
5, 15216, Note_on_c, 0, 52, 0
5, 15216, Note_on_c, 0, 53, 72
5, 15240, Note_on_c, 0, 53, 0
5, 15240, Note_on_c, 0, 52, 72
5, 15264, Note_on_c, 0, 52, 0
5, 15264, Note_on_c, 0, 53, 72
5, 15288, Note_on_c, 0, 53, 0
5, 15288, Note_on_c, 0, 52, 72
5, 15312, Note_on_c, 0, 52, 0
5, 15312, Note_on_c, 0, 50, 72
5, 15336, Note_on_c, 0, 50, 0
5, 15336, Note_on_c, 0, 52, 72
5, 15360, Note_on_c, 0, 52, 0
5, 15360, Note_on_c, 0, 53, 72
5, 15456, Note_on_c, 0, 53, 0
5, 15456, Note_on_c, 0, 52, 72
5, 15504, Note_on_c, 0, 52, 0
5, 15504, Note_on_c, 0, 50, 72
5, 15576, Note_on_c, 0, 50, 0
5, 15576, Note_on_c, 0, 49, 72
5, 15600, Note_on_c, 0, 49, 0
5, 15600, Note_on_c, 0, 50, 72
5, 15624, Note_on_c, 0, 50, 0
5, 15624, Note_on_c, 0, 49, 72
5, 15648, Note_on_c, 0, 49, 0
5, 15648, Note_on_c, 0, 50, 72
5, 15672, Note_on_c, 0, 50, 0
5, 15672, Note_on_c, 0, 49, 72
5, 15696, Note_on_c, 0, 49, 0
5, 15696, Note_on_c, 0, 47, 72
5, 15720, Note_on_c, 0, 47, 0
5, 15720, Note_on_c, 0, 49, 72
5, 15744, Note_on_c, 0, 49, 0
5, 15744, Note_on_c, 0, 50, 72
5, 15936, Note_on_c, 0, 50, 0
5, 15936, Note_on_c, 0, 50, 72
5, 15984, Note_on_c, 0, 50, 0
5, 15984, Note_on_c, 0, 41, 72
5, 16032, Note_on_c, 0, 41, 0
5, 16032, Note_on_c, 0, 46, 72
5, 16080, Note_on_c, 0, 46, 0
5, 16080, Note_on_c, 0, 45, 72
5, 16128, Note_on_c, 0, 45, 0
5, 16128, Note_on_c, 0, 43, 72
5, 16176, Note_on_c, 0, 43, 0
5, 16176, Note_on_c, 0, 45, 72
5, 16224, Note_on_c, 0, 45, 0
5, 16224, Note_on_c, 0, 46, 72
5, 16272, Note_on_c, 0, 46, 0
5, 16272, Note_on_c, 0, 43, 72
5, 16320, Note_on_c, 0, 43, 0
5, 16320, Note_on_c, 0, 40, 72
5, 16368, Note_on_c, 0, 40, 0
5, 16368, Note_on_c, 0, 45, 72
5, 16416, Note_on_c, 0, 45, 0
5, 16416, Note_on_c, 0, 43, 72
5, 16464, Note_on_c, 0, 43, 0
5, 16464, Note_on_c, 0, 45, 72
5, 16512, Note_on_c, 0, 45, 0
5, 16512, Note_on_c, 0, 41, 72
5, 16560, Note_on_c, 0, 41, 0
5, 16560, Note_on_c, 0, 43, 72
5, 16608, Note_on_c, 0, 43, 0
5, 16608, Note_on_c, 0, 45, 72
5, 16656, Note_on_c, 0, 45, 0
5, 16656, Note_on_c, 0, 42, 72
5, 16704, Note_on_c, 0, 42, 0
5, 16704, Note_on_c, 0, 46, 72
5, 16800, Note_on_c, 0, 46, 0
5, 16800, Note_on_c, 0, 43, 72
5, 16896, Note_on_c, 0, 43, 0
5, 16896, Note_on_c, 0, 50, 72
5, 17040, Note_on_c, 0, 50, 0
5, 17040, Note_on_c, 0, 52, 72
5, 17088, Note_on_c, 0, 52, 0
5, 17088, Note_on_c, 0, 53, 72
5, 17232, Note_on_c, 0, 53, 0
5, 17232, Note_on_c, 0, 54, 72
5, 17280, Note_on_c, 0, 54, 0
5, 17280, Note_on_c, 0, 55, 72
5, 17472, Note_on_c, 0, 55, 0
5, 17472, Note_on_c, 0, 53, 72
5, 17520, Note_on_c, 0, 53, 0
5, 17520, Note_on_c, 0, 55, 72
5, 17568, Note_on_c, 0, 55, 0
5, 17568, Note_on_c, 0, 57, 72
5, 17664, Note_on_c, 0, 57, 0
5, 17664, Note_on_c, 0, 58, 72
5, 17760, Note_on_c, 0, 58, 0
5, 17760, Note_on_c, 0, 57, 72
5, 17952, Note_on_c, 0, 57, 0
5, 17952, Note_on_c, 0, 55, 72
5, 18048, Note_on_c, 0, 55, 0
5, 18048, Note_on_c, 0, 55, 72
5, 18096, Note_on_c, 0, 55, 0
5, 18096, Note_on_c, 0, 55, 72
5, 18144, Note_on_c, 0, 55, 0
5, 18144, Note_on_c, 0, 53, 72
5, 18192, Note_on_c, 0, 53, 0
5, 18192, Note_on_c, 0, 52, 72
5, 18240, Note_on_c, 0, 52, 0
5, 18240, Note_on_c, 0, 53, 72
5, 18432, Note_on_c, 0, 53, 0
5, 18432, Note_on_c, 0, 53, 72
5, 18528, Note_on_c, 0, 53, 0
5, 18528, Note_on_c, 0, 52, 72
5, 18576, Note_on_c, 0, 52, 0
5, 18576, Note_on_c, 0, 50, 72
5, 18624, Note_on_c, 0, 50, 0
5, 18624, Note_on_c, 0, 52, 72
5, 18816, Note_on_c, 0, 52, 0
5, 18816, Note_on_c, 0, 52, 72
5, 18912, Note_on_c, 0, 52, 0
5, 18912, Note_on_c, 0, 50, 72
5, 18960, Note_on_c, 0, 50, 0
5, 18960, Note_on_c, 0, 49, 72
5, 19008, Note_on_c, 0, 49, 0
5, 19008, Note_on_c, 0, 50, 72
5, 19200, Note_on_c, 0, 50, 0
5, 19200, Note_on_c, 0, 50, 72
5, 19392, Note_on_c, 0, 50, 0
5, 19392, Note_on_c, 0, 49, 72
5, 19584, Note_on_c, 0, 49, 0
5, 19584, Note_on_c, 0, 50, 88
5, 19776, Note_on_c, 0, 50, 0
5, 19776, Note_on_c, 0, 45, 88
5, 19920, Note_on_c, 0, 45, 0
5, 19920, Note_on_c, 0, 47, 88
5, 19968, Note_on_c, 0, 47, 0
5, 19968, Note_on_c, 0, 48, 88
5, 20112, Note_on_c, 0, 48, 0
5, 20112, Note_on_c, 0, 50, 88
5, 20160, Note_on_c, 0, 50, 0
5, 20160, Note_on_c, 0, 52, 88
5, 20352, Note_on_c, 0, 52, 0
5, 20352, Note_on_c, 0, 53, 88
5, 20544, Note_on_c, 0, 53, 0
5, 20544, Note_on_c, 0, 52, 88
5, 20688, Note_on_c, 0, 52, 0
5, 20688, Note_on_c, 0, 50, 88
5, 20736, Note_on_c, 0, 50, 0
5, 20736, Note_on_c, 0, 48, 88
5, 20928, Note_on_c, 0, 48, 0
5, 20928, Note_on_c, 0, 48, 88
5, 20976, Note_on_c, 0, 48, 0
5, 20976, Note_on_c, 0, 47, 72
5, 21024, Note_on_c, 0, 47, 0
5, 21024, Note_on_c, 0, 48, 72
5, 21072, Note_on_c, 0, 48, 0
5, 21072, Note_on_c, 0, 50, 72
5, 21120, Note_on_c, 0, 50, 0
5, 21120, Note_on_c, 0, 52, 72
5, 21168, Note_on_c, 0, 52, 0
5, 21168, Note_on_c, 0, 51, 72
5, 21216, Note_on_c, 0, 51, 0
5, 21216, Note_on_c, 0, 52, 72
5, 21312, Note_on_c, 0, 52, 0
5, 21408, Note_on_c, 0, 52, 72
5, 21504, Note_on_c, 0, 52, 0
5, 21504, Note_on_c, 0, 54, 72
5, 21552, Note_on_c, 0, 54, 0
5, 21552, Note_on_c, 0, 56, 72
5, 21600, Note_on_c, 0, 56, 0
5, 21600, Note_on_c, 0, 57, 72
5, 21792, Note_on_c, 0, 57, 0
5, 21792, Note_on_c, 0, 56, 72
5, 21840, Note_on_c, 0, 56, 0
5, 21840, Note_on_c, 0, 54, 72
5, 21888, Note_on_c, 0, 54, 0
5, 21888, Note_on_c, 0, 55, 88
5, 21984, Note_on_c, 0, 55, 0
5, 21984, Note_on_c, 0, 53, 88
5, 22080, Note_on_c, 0, 53, 0
5, 22080, Note_on_c, 0, 52, 88
5, 22176, Note_on_c, 0, 52, 0
5, 22176, Note_on_c, 0, 50, 88
5, 22272, Note_on_c, 0, 50, 0
5, 22272, Note_on_c, 0, 49, 88
5, 22368, Note_on_c, 0, 49, 0
5, 22368, Note_on_c, 0, 50, 88
5, 22416, Note_on_c, 0, 50, 0
5, 22416, Note_on_c, 0, 46, 88
5, 22464, Note_on_c, 0, 46, 0
5, 22464, Note_on_c, 0, 43, 88
5, 22560, Note_on_c, 0, 43, 0
5, 22560, Note_on_c, 0, 45, 88
5, 22656, Note_on_c, 0, 45, 0
5, 22656, Note_on_c, 0, 38, 88
5, 22752, Note_on_c, 0, 38, 0
5, 23520, Note_on_c, 0, 43, 88
5, 23568, Note_on_c, 0, 43, 0
5, 23568, Note_on_c, 0, 45, 88
5, 23616, Note_on_c, 0, 45, 0
5, 23616, Note_on_c, 0, 46, 88
5, 23664, Note_on_c, 0, 46, 0
5, 23664, Note_on_c, 0, 48, 88
5, 23712, Note_on_c, 0, 48, 0
5, 23712, Note_on_c, 0, 50, 88
5, 23760, Note_on_c, 0, 50, 0
5, 23760, Note_on_c, 0, 52, 88
5, 23808, Note_on_c, 0, 52, 0
5, 23808, Note_on_c, 0, 53, 88
5, 23856, Note_on_c, 0, 53, 0
5, 23856, Note_on_c, 0, 55, 88
5, 23904, Note_on_c, 0, 55, 0
5, 23904, Note_on_c, 0, 57, 88
5, 23952, Note_on_c, 0, 57, 0
5, 23952, Note_on_c, 0, 53, 88
5, 24000, Note_on_c, 0, 53, 0
5, 24000, Note_on_c, 0, 50, 88
5, 24048, Note_on_c, 0, 50, 0
5, 24048, Note_on_c, 0, 55, 72
5, 24096, Note_on_c, 0, 55, 0
5, 24096, Note_on_c, 0, 53, 72
5, 24144, Note_on_c, 0, 53, 0
5, 24144, Note_on_c, 0, 55, 72
5, 24192, Note_on_c, 0, 55, 0
5, 24192, Note_on_c, 0, 52, 72
5, 24240, Note_on_c, 0, 52, 0
5, 24240, Note_on_c, 0, 53, 72
5, 24288, Note_on_c, 0, 53, 0
5, 24288, Note_on_c, 0, 55, 72
5, 24336, Note_on_c, 0, 55, 0
5, 24336, Note_on_c, 0, 52, 72
5, 24384, Note_on_c, 0, 52, 0
5, 24384, Note_on_c, 0, 48, 72
5, 24432, Note_on_c, 0, 48, 0
5, 24432, Note_on_c, 0, 53, 72
5, 24480, Note_on_c, 0, 53, 0
5, 24480, Note_on_c, 0, 52, 72
5, 24528, Note_on_c, 0, 52, 0
5, 24528, Note_on_c, 0, 53, 72
5, 24576, Note_on_c, 0, 53, 0
5, 24576, Note_on_c, 0, 50, 72
5, 24624, Note_on_c, 0, 50, 0
5, 24624, Note_on_c, 0, 52, 72
5, 24672, Note_on_c, 0, 52, 0
5, 24672, Note_on_c, 0, 53, 72
5, 24720, Note_on_c, 0, 53, 0
5, 24720, Note_on_c, 0, 50, 72
5, 24768, Note_on_c, 0, 50, 0
5, 24768, Note_on_c, 0, 47, 72
5, 24816, Note_on_c, 0, 47, 0
5, 24816, Note_on_c, 0, 52, 72
5, 24864, Note_on_c, 0, 52, 0
5, 24864, Note_on_c, 0, 50, 72
5, 24912, Note_on_c, 0, 50, 0
5, 24912, Note_on_c, 0, 52, 72
5, 24960, Note_on_c, 0, 52, 0
5, 24960, Note_on_c, 0, 49, 72
5, 25152, Note_on_c, 0, 49, 0
5, 25152, Note_on_c, 0, 50, 72
5, 25344, Note_on_c, 0, 50, 0
5, 25344, Note_on_c, 0, 50, 72
5, 25440, Note_on_c, 0, 50, 0
5, 25440, Note_on_c, 0, 46, 72
5, 25536, Note_on_c, 0, 46, 0
5, 25536, Note_on_c, 0, 53, 72
5, 25680, Note_on_c, 0, 53, 0
5, 25680, Note_on_c, 0, 50, 72
5, 25728, Note_on_c, 0, 50, 0
5, 25728, Note_on_c, 0, 55, 72
5, 25872, Note_on_c, 0, 55, 0
5, 25872, Note_on_c, 0, 55, 72
5, 25920, Note_on_c, 0, 55, 0
5, 25920, Note_on_c, 0, 53, 72
5, 26064, Note_on_c, 0, 53, 0
5, 26064, Note_on_c, 0, 52, 72
5, 26112, Note_on_c, 0, 52, 0
5, 26112, Note_on_c, 0, 50, 72
5, 26256, Note_on_c, 0, 50, 0
5, 26256, Note_on_c, 0, 48, 72
5, 26304, Note_on_c, 0, 48, 0
5, 26304, Note_on_c, 0, 46, 72
5, 26496, Note_on_c, 0, 46, 0
5, 26496, Note_on_c, 0, 53, 72
5, 26688, Note_on_c, 0, 53, 0
5, 27120, Note_on_c, 0, 50, 72
5, 27168, Note_on_c, 0, 50, 0
5, 27168, Note_on_c, 0, 52, 72
5, 27216, Note_on_c, 0, 52, 0
5, 27216, Note_on_c, 0, 54, 72
5, 27264, Note_on_c, 0, 54, 0
5, 27264, Note_on_c, 0, 55, 72
5, 27456, Note_on_c, 0, 55, 0
5, 27888, Note_on_c, 0, 52, 72
5, 27936, Note_on_c, 0, 52, 0
5, 27936, Note_on_c, 0, 54, 72
5, 27984, Note_on_c, 0, 54, 0
5, 27984, Note_on_c, 0, 56, 72
5, 28032, Note_on_c, 0, 56, 0
5, 28032, Note_on_c, 0, 57, 72
5, 28224, Note_on_c, 0, 57, 0
5, 28512, Note_on_c, 0, 57, 88
5, 28608, Note_on_c, 0, 57, 0
5, 28608, Note_on_c, 0, 58, 88
5, 28704, Note_on_c, 0, 58, 0
5, 28704, Note_on_c, 0, 53, 88
5, 28800, Note_on_c, 0, 53, 0
5, 28896, Note_on_c, 0, 50, 88
5, 28992, Note_on_c, 0, 50, 0
5, 28992, Note_on_c, 0, 48, 88
5, 29088, Note_on_c, 0, 48, 0
5, 29088, Note_on_c, 0, 53, 88
5, 29184, Note_on_c, 0, 53, 0
5, 29184, Note_on_c, 0, 46, 88
5, 29232, Note_on_c, 0, 46, 0
5, 29232, Note_on_c, 0, 48, 88
5, 29280, Note_on_c, 0, 48, 0
5, 29280, Note_on_c, 0, 50, 88
5, 29328, Note_on_c, 0, 50, 0
5, 29328, Note_on_c, 0, 52, 88
5, 29376, Note_on_c, 0, 52, 0
5, 29376, Note_on_c, 0, 53, 88
5, 29424, Note_on_c, 0, 53, 0
5, 29424, Note_on_c, 0, 55, 88
5, 29472, Note_on_c, 0, 55, 0
5, 29472, Note_on_c, 0, 57, 88
5, 29568, Note_on_c, 0, 57, 0
5, 29568, Note_on_c, 0, 57, 88
5, 29616, Note_on_c, 0, 57, 0
5, 29616, Note_on_c, 0, 55, 88
5, 29664, Note_on_c, 0, 55, 0
5, 29664, Note_on_c, 0, 53, 88
5, 29712, Note_on_c, 0, 53, 0
5, 29712, Note_on_c, 0, 52, 88
5, 29760, Note_on_c, 0, 52, 0
5, 29760, Note_on_c, 0, 50, 88
5, 29952, Note_on_c, 0, 50, 0
5, 29952, Note_on_c, 0, 48, 72
5, 30144, Note_on_c, 0, 48, 0
5, 32256, Note_on_c, 0, 55, 88
5, 32448, Note_on_c, 0, 55, 0
5, 32448, Note_on_c, 0, 50, 88
5, 32592, Note_on_c, 0, 50, 0
5, 32592, Note_on_c, 0, 52, 88
5, 32640, Note_on_c, 0, 52, 0
5, 32640, Note_on_c, 0, 53, 88
5, 32784, Note_on_c, 0, 53, 0
5, 32784, Note_on_c, 0, 55, 88
5, 32832, Note_on_c, 0, 55, 0
5, 32832, Note_on_c, 0, 57, 88
5, 33024, Note_on_c, 0, 57, 0
5, 33024, Note_on_c, 0, 58, 88
5, 33216, Note_on_c, 0, 58, 0
5, 33216, Note_on_c, 0, 57, 88
5, 33360, Note_on_c, 0, 57, 0
5, 33360, Note_on_c, 0, 55, 88
5, 33408, Note_on_c, 0, 55, 0
5, 33408, Note_on_c, 0, 53, 88
5, 33600, Note_on_c, 0, 53, 0
5, 33600, Note_on_c, 0, 53, 88
5, 33648, Note_on_c, 0, 53, 0
5, 33648, Note_on_c, 0, 52, 88
5, 33696, Note_on_c, 0, 52, 0
5, 33696, Note_on_c, 0, 53, 88
5, 33744, Note_on_c, 0, 53, 0
5, 33744, Note_on_c, 0, 55, 88
5, 33792, Note_on_c, 0, 55, 0
5, 33792, Note_on_c, 0, 57, 88
5, 33984, Note_on_c, 0, 57, 0
5, 34032, Note_on_c, 0, 57, 72
5, 34080, Note_on_c, 0, 57, 0
5, 34080, Note_on_c, 0, 55, 72
5, 34128, Note_on_c, 0, 55, 0
5, 34128, Note_on_c, 0, 57, 72
5, 34176, Note_on_c, 0, 57, 0
5, 34176, Note_on_c, 0, 58, 72
5, 34272, Note_on_c, 0, 58, 0
5, 34272, Note_on_c, 0, 54, 72
5, 34368, Note_on_c, 0, 54, 0
5, 34368, Note_on_c, 0, 57, 72
5, 34464, Note_on_c, 0, 57, 0
5, 34464, Note_on_c, 0, 50, 72
5, 34560, Note_on_c, 0, 50, 0
5, 34560, Note_on_c, 0, 51, 72
5, 34656, Note_on_c, 0, 51, 0
5, 34656, Note_on_c, 0, 52, 72
5, 34752, Note_on_c, 0, 52, 0
5, 34752, Note_on_c, 0, 53, 72
5, 34848, Note_on_c, 0, 53, 0
5, 35184, Note_on_c, 0, 52, 72
5, 35232, Note_on_c, 0, 52, 0
5, 35232, Note_on_c, 0, 53, 72
5, 35280, Note_on_c, 0, 53, 0
5, 35280, Note_on_c, 0, 52, 72
5, 35328, Note_on_c, 0, 52, 0
5, 35328, Note_on_c, 0, 50, 72
5, 35424, Note_on_c, 0, 50, 0
5, 35424, Note_on_c, 0, 53, 72
5, 35616, Note_on_c, 0, 53, 0
5, 35616, Note_on_c, 0, 51, 72
5, 35712, Note_on_c, 0, 51, 0
5, 35712, Note_on_c, 0, 51, 72
5, 35808, Note_on_c, 0, 51, 0
5, 35808, Note_on_c, 0, 50, 72
5, 35904, Note_on_c, 0, 50, 0
5, 35952, Note_on_c, 0, 53, 72
5, 36000, Note_on_c, 0, 53, 0
5, 36000, Note_on_c, 0, 51, 72
5, 36048, Note_on_c, 0, 51, 0
5, 36048, Note_on_c, 0, 53, 72
5, 36096, Note_on_c, 0, 53, 0
5, 36096, Note_on_c, 0, 55, 72
5, 36192, Note_on_c, 0, 55, 0
5, 36192, Note_on_c, 0, 48, 72
5, 36288, Note_on_c, 0, 48, 0
5, 36288, Note_on_c, 0, 50, 72
5, 36480, Note_on_c, 0, 50, 0
5, 36480, Note_on_c, 0, 51, 72
5, 36576, Note_on_c, 0, 51, 0
5, 36576, Note_on_c, 0, 45, 72
5, 36672, Note_on_c, 0, 45, 0
5, 36672, Note_on_c, 0, 46, 72
5, 36864, Note_on_c, 0, 46, 0
5, 36864, Note_on_c, 0, 48, 72
5, 36960, Note_on_c, 0, 48, 0
5, 36960, Note_on_c, 0, 42, 72
5, 37056, Note_on_c, 0, 42, 0
5, 37056, Note_on_c, 0, 43, 72
5, 37248, Note_on_c, 0, 43, 0
5, 37248, Note_on_c, 0, 38, 72
5, 37440, Note_on_c, 0, 38, 0
5, 39264, Note_on_c, 0, 50, 88
5, 39360, Note_on_c, 0, 50, 0
5, 39360, Note_on_c, 0, 51, 88
5, 39456, Note_on_c, 0, 51, 0
5, 39456, Note_on_c, 0, 46, 88
5, 39552, Note_on_c, 0, 46, 0
5, 39648, Note_on_c, 0, 55, 88
5, 39744, Note_on_c, 0, 55, 0
5, 39744, Note_on_c, 0, 53, 88
5, 39840, Note_on_c, 0, 53, 0
5, 39840, Note_on_c, 0, 58, 88
5, 39936, Note_on_c, 0, 58, 0
5, 39936, Note_on_c, 0, 51, 88
5, 39984, Note_on_c, 0, 51, 0
5, 39984, Note_on_c, 0, 53, 88
5, 40032, Note_on_c, 0, 53, 0
5, 40032, Note_on_c, 0, 55, 88
5, 40080, Note_on_c, 0, 55, 0
5, 40080, Note_on_c, 0, 57, 88
5, 40128, Note_on_c, 0, 57, 0
5, 40128, Note_on_c, 0, 58, 88
5, 40176, Note_on_c, 0, 58, 0
5, 40176, Note_on_c, 0, 60, 88
5, 40224, Note_on_c, 0, 60, 0
5, 40224, Note_on_c, 0, 62, 88
5, 40320, Note_on_c, 0, 62, 0
5, 40320, Note_on_c, 0, 62, 88
5, 40368, Note_on_c, 0, 62, 0
5, 40368, Note_on_c, 0, 60, 88
5, 40416, Note_on_c, 0, 60, 0
5, 40416, Note_on_c, 0, 58, 88
5, 40464, Note_on_c, 0, 58, 0
5, 40464, Note_on_c, 0, 57, 88
5, 40512, Note_on_c, 0, 57, 0
5, 40512, Note_on_c, 0, 55, 88
5, 40704, Note_on_c, 0, 55, 0
5, 40704, Note_on_c, 0, 53, 88
5, 40896, Note_on_c, 0, 53, 0
5, 43776, Note_on_c, 0, 57, 88
5, 43968, Note_on_c, 0, 57, 0
5, 43968, Note_on_c, 0, 50, 88
5, 44112, Note_on_c, 0, 50, 0
5, 44112, Note_on_c, 0, 52, 88
5, 44160, Note_on_c, 0, 52, 0
5, 44160, Note_on_c, 0, 53, 88
5, 44304, Note_on_c, 0, 53, 0
5, 44304, Note_on_c, 0, 55, 88
5, 44352, Note_on_c, 0, 55, 0
5, 44352, Note_on_c, 0, 57, 88
5, 44544, Note_on_c, 0, 57, 0
5, 44544, Note_on_c, 0, 58, 88
5, 44736, Note_on_c, 0, 58, 0
5, 44736, Note_on_c, 0, 57, 88
5, 44880, Note_on_c, 0, 57, 0
5, 44880, Note_on_c, 0, 55, 88
5, 44928, Note_on_c, 0, 55, 0
5, 44928, Note_on_c, 0, 53, 88
5, 45120, Note_on_c, 0, 53, 0
5, 45120, Note_on_c, 0, 53, 88
5, 45168, Note_on_c, 0, 53, 0
5, 45168, Note_on_c, 0, 52, 88
5, 45216, Note_on_c, 0, 52, 0
5, 45216, Note_on_c, 0, 53, 88
5, 45264, Note_on_c, 0, 53, 0
5, 45264, Note_on_c, 0, 55, 88
5, 45312, Note_on_c, 0, 55, 0
5, 45312, Note_on_c, 0, 57, 88
5, 45696, Note_on_c, 0, 57, 0
5, 45696, Note_on_c, 0, 50, 88
5, 45984, Note_on_c, 0, 50, 0
5, 46080, End_track
0, 0, End_of_file
