0, 0, Header, 1, 5, 480
1, 0, Start_track
1, 0, SMPTE_offset, 96, 0, 0, 0, 0
1, 0, Tempo, 526352
1, 0, Time_signature, 4, 2, 24, 8
1, 78720, End_track
2, 0, Start_track
2, 0, Program_c, 1, 0
2, 0, Note_on_c, 1, 48, 88
2, 251, Note_on_c, 1, 48, 0
2, 266, Note_on_c, 1, 50, 88
2, 488, Note_on_c, 1, 50, 0
2, 500, Note_on_c, 1, 51, 88
2, 727, Note_on_c, 1, 51, 0
2, 740, Note_on_c, 1, 53, 88
2, 966, Note_on_c, 1, 53, 0
2, 978, Note_on_c, 1, 55, 88
2, 1205, Note_on_c, 1, 55, 0
2, 1217, Note_on_c, 1, 56, 88
2, 1445, Note_on_c, 1, 56, 0
2, 1457, Note_on_c, 1, 55, 88
2, 1685, Note_on_c, 1, 55, 0
2, 1697, Note_on_c, 1, 53, 88
2, 1924, Note_on_c, 1, 53, 0
2, 1936, Note_on_c, 1, 51, 88
2, 2163, Note_on_c, 1, 51, 0
2, 2175, Note_on_c, 1, 50, 88
2, 2403, Note_on_c, 1, 50, 0
2, 2414, Note_on_c, 1, 51, 88
2, 2643, Note_on_c, 1, 51, 0
2, 2655, Note_on_c, 1, 53, 88
2, 2881, Note_on_c, 1, 53, 0
2, 2892, Note_on_c, 1, 51, 88
2, 3132, Note_on_c, 1, 51, 0
2, 3144, Note_on_c, 1, 50, 88
2, 3372, Note_on_c, 1, 50, 0
2, 3385, Note_on_c, 1, 48, 88
2, 3611, Note_on_c, 1, 48, 0
2, 3624, Note_on_c, 1, 60, 88
2, 3851, Note_on_c, 1, 60, 0
2, 3863, Note_on_c, 1, 59, 88
2, 4090, Note_on_c, 1, 59, 0
2, 4102, Note_on_c, 1, 60, 88
2, 4330, Note_on_c, 1, 60, 0
2, 4342, Note_on_c, 1, 56, 88
2, 4569, Note_on_c, 1, 56, 0
2, 4581, Note_on_c, 1, 55, 88
2, 4808, Note_on_c, 1, 55, 0
2, 4820, Note_on_c, 1, 53, 88
2, 5048, Note_on_c, 1, 53, 0
2, 5060, Note_on_c, 1, 60, 88
2, 5287, Note_on_c, 1, 60, 0
2, 5299, Note_on_c, 1, 59, 88
2, 5527, Note_on_c, 1, 59, 0
2, 5539, Note_on_c, 1, 60, 88
2, 5766, Note_on_c, 1, 60, 0
2, 5778, Note_on_c, 1, 55, 88
2, 6005, Note_on_c, 1, 55, 0
2, 6018, Note_on_c, 1, 53, 88
2, 6245, Note_on_c, 1, 53, 0
2, 6256, Note_on_c, 1, 51, 88
2, 6484, Note_on_c, 1, 51, 0
2, 6496, Note_on_c, 1, 60, 88
2, 6724, Note_on_c, 1, 60, 0
2, 6736, Note_on_c, 1, 59, 88
2, 6963, Note_on_c, 1, 59, 0
2, 6975, Note_on_c, 1, 60, 88
2, 7202, Note_on_c, 1, 60, 0
2, 7214, Note_on_c, 1, 53, 88
2, 7442, Note_on_c, 1, 53, 0
2, 7454, Note_on_c, 1, 55, 88
2, 7681, Note_on_c, 1, 55, 0
2, 7692, Note_on_c, 1, 56, 88
2, 7932, Note_on_c, 1, 56, 0
2, 7945, Note_on_c, 1, 50, 88
2, 8172, Note_on_c, 1, 50, 0
2, 8184, Note_on_c, 1, 55, 88
2, 8412, Note_on_c, 1, 55, 0
2, 8423, Note_on_c, 1, 53, 88
2, 8650, Note_on_c, 1, 53, 0
2, 8663, Note_on_c, 1, 51, 88
2, 9847, Note_on_c, 1, 51, 0
2, 9859, Note_on_c, 1, 45, 88
2, 10087, Note_on_c, 1, 45, 0
2, 10099, Note_on_c, 1, 46, 88
2, 10565, Note_on_c, 1, 46, 0
2, 10577, Note_on_c, 1, 48, 88
2, 10804, Note_on_c, 1, 48, 0
2, 10816, Note_on_c, 1, 50, 88
2, 11283, Note_on_c, 1, 50, 0
2, 11296, Note_on_c, 1, 38, 88
2, 11524, Note_on_c, 1, 38, 0
2, 11536, Note_on_c, 1, 43, 88
2, 12480, Note_on_c, 1, 43, 0
2, 12492, Note_on_c, 1, 45, 88
2, 12732, Note_on_c, 1, 45, 0
2, 12745, Note_on_c, 1, 46, 88
2, 12971, Note_on_c, 1, 46, 0
2, 12984, Note_on_c, 1, 48, 88
2, 13930, Note_on_c, 1, 48, 0
2, 13941, Note_on_c, 1, 46, 88
2, 14168, Note_on_c, 1, 46, 0
2, 14181, Note_on_c, 1, 45, 88
2, 14407, Note_on_c, 1, 45, 0
2, 14419, Note_on_c, 1, 46, 88
2, 15365, Note_on_c, 1, 46, 0
2, 15377, Note_on_c, 1, 45, 88
2, 15605, Note_on_c, 1, 45, 0
2, 15617, Note_on_c, 1, 43, 88
2, 15844, Note_on_c, 1, 43, 0
2, 15856, Note_on_c, 1, 51, 88
2, 16323, Note_on_c, 1, 51, 0
2, 16336, Note_on_c, 1, 48, 88
2, 16562, Note_on_c, 1, 48, 0
2, 16574, Note_on_c, 1, 50, 88
2, 17041, Note_on_c, 1, 50, 0
2, 17052, Note_on_c, 1, 38, 88
2, 17293, Note_on_c, 1, 38, 0
2, 17304, Note_on_c, 1, 43, 88
2, 17531, Note_on_c, 1, 43, 0
2, 17545, Note_on_c, 1, 45, 88
2, 17771, Note_on_c, 1, 45, 0
2, 17783, Note_on_c, 1, 46, 88
2, 18010, Note_on_c, 1, 46, 0
2, 18023, Note_on_c, 1, 48, 88
2, 18250, Note_on_c, 1, 48, 0
2, 18262, Note_on_c, 1, 50, 88
2, 18489, Note_on_c, 1, 50, 0
2, 18501, Note_on_c, 1, 51, 88
2, 18729, Note_on_c, 1, 51, 0
2, 18741, Note_on_c, 1, 53, 88
2, 18969, Note_on_c, 1, 53, 0
2, 18981, Note_on_c, 1, 55, 88
2, 19208, Note_on_c, 1, 55, 0
2, 19220, Note_on_c, 1, 56, 88
2, 19447, Note_on_c, 1, 56, 0
2, 19459, Note_on_c, 1, 58, 88
2, 19686, Note_on_c, 1, 58, 0
2, 19699, Note_on_c, 1, 60, 88
2, 19926, Note_on_c, 1, 60, 0
2, 19938, Note_on_c, 1, 62, 88
2, 20165, Note_on_c, 1, 62, 0
2, 20177, Note_on_c, 1, 63, 88
2, 20405, Note_on_c, 1, 63, 0
2, 20416, Note_on_c, 1, 65, 88
2, 20644, Note_on_c, 1, 65, 0
2, 20655, Note_on_c, 1, 67, 88
2, 20883, Note_on_c, 1, 67, 0
2, 20895, Note_on_c, 1, 68, 88
2, 22092, Note_on_c, 1, 68, 0
2, 22104, Note_on_c, 1, 65, 88
2, 22331, Note_on_c, 1, 65, 0
2, 22343, Note_on_c, 1, 67, 88
2, 22811, Note_on_c, 1, 67, 0
2, 22823, Note_on_c, 1, 55, 88
2, 23050, Note_on_c, 1, 55, 0
2, 23062, Note_on_c, 1, 60, 88
2, 23528, Note_on_c, 1, 60, 0
2, 23540, Note_on_c, 1, 58, 88
2, 23768, Note_on_c, 1, 58, 0
2, 23781, Note_on_c, 1, 56, 88
2, 24246, Note_on_c, 1, 56, 0
2, 24258, Note_on_c, 1, 53, 88
2, 24487, Note_on_c, 1, 53, 0
2, 24498, Note_on_c, 1, 58, 88
2, 24965, Note_on_c, 1, 58, 0
2, 24977, Note_on_c, 1, 56, 88
2, 25205, Note_on_c, 1, 56, 0
2, 25217, Note_on_c, 1, 55, 88
2, 25684, Note_on_c, 1, 55, 0
2, 25696, Note_on_c, 1, 51, 88
2, 25923, Note_on_c, 1, 51, 0
2, 25935, Note_on_c, 1, 56, 88
2, 26162, Note_on_c, 1, 56, 0
2, 26175, Note_on_c, 1, 58, 88
2, 26400, Note_on_c, 1, 58, 0
2, 26414, Note_on_c, 1, 60, 88
2, 26641, Note_on_c, 1, 60, 0
2, 26652, Note_on_c, 1, 53, 88
2, 26891, Note_on_c, 1, 53, 0
2, 26904, Note_on_c, 1, 58, 88
2, 27132, Note_on_c, 1, 58, 0
2, 27143, Note_on_c, 1, 56, 88
2, 27371, Note_on_c, 1, 56, 0
2, 27383, Note_on_c, 1, 55, 88
2, 27850, Note_on_c, 1, 55, 0
2, 27863, Note_on_c, 1, 56, 88
2, 28089, Note_on_c, 1, 56, 0
2, 28102, Note_on_c, 1, 58, 88
2, 28569, Note_on_c, 1, 58, 0
2, 28580, Note_on_c, 1, 46, 88
2, 28807, Note_on_c, 1, 46, 0
2, 28819, Note_on_c, 1, 51, 88
2, 29046, Note_on_c, 1, 51, 0
2, 29058, Note_on_c, 1, 53, 88
2, 29285, Note_on_c, 1, 53, 0
2, 29298, Note_on_c, 1, 55, 88
2, 29525, Note_on_c, 1, 55, 0
2, 29537, Note_on_c, 1, 56, 88
2, 29765, Note_on_c, 1, 56, 0
2, 29777, Note_on_c, 1, 58, 88
2, 30005, Note_on_c, 1, 58, 0
2, 30016, Note_on_c, 1, 60, 88
2, 30243, Note_on_c, 1, 60, 0
2, 30255, Note_on_c, 1, 58, 88
2, 30483, Note_on_c, 1, 58, 0
2, 30495, Note_on_c, 1, 56, 88
2, 30723, Note_on_c, 1, 56, 0
2, 30735, Note_on_c, 1, 55, 88
2, 30963, Note_on_c, 1, 55, 0
2, 30974, Note_on_c, 1, 53, 88
2, 31200, Note_on_c, 1, 53, 0
2, 31213, Note_on_c, 1, 55, 88
2, 31452, Note_on_c, 1, 55, 0
2, 31466, Note_on_c, 1, 56, 88
2, 31691, Note_on_c, 1, 56, 0
2, 31705, Note_on_c, 1, 55, 88
2, 32650, Note_on_c, 1, 55, 0
2, 32662, Note_on_c, 1, 53, 88
2, 32889, Note_on_c, 1, 53, 0
2, 32901, Note_on_c, 1, 51, 88
2, 33129, Note_on_c, 1, 51, 0
2, 33141, Note_on_c, 1, 50, 88
2, 33606, Note_on_c, 1, 50, 0
2, 33619, Note_on_c, 1, 51, 88
2, 33846, Note_on_c, 1, 51, 0
2, 33859, Note_on_c, 1, 44, 88
2, 34324, Note_on_c, 1, 44, 0
2, 34336, Note_on_c, 1, 46, 88
2, 34564, Note_on_c, 1, 46, 0
2, 34576, Note_on_c, 1, 39, 88
2, 35283, Note_on_c, 1, 39, 0
2, 35295, Note_on_c, 1, 51, 88
2, 35762, Note_on_c, 1, 51, 0
2, 35774, Note_on_c, 1, 45, 88
2, 36000, Note_on_c, 1, 45, 0
2, 36013, Note_on_c, 1, 46, 88
2, 36491, Note_on_c, 1, 46, 0
2, 36505, Note_on_c, 1, 48, 88
2, 36731, Note_on_c, 1, 48, 0
2, 36743, Note_on_c, 1, 50, 88
2, 37209, Note_on_c, 1, 50, 0
2, 37221, Note_on_c, 1, 38, 88
2, 37449, Note_on_c, 1, 38, 0
2, 37461, Note_on_c, 1, 43, 88
2, 38407, Note_on_c, 1, 43, 0
2, 38419, Note_on_c, 1, 45, 88
2, 38646, Note_on_c, 1, 45, 0
2, 38659, Note_on_c, 1, 46, 88
2, 38885, Note_on_c, 1, 46, 0
2, 38898, Note_on_c, 1, 45, 88
2, 39364, Note_on_c, 1, 45, 0
2, 39376, Note_on_c, 1, 46, 88
2, 39603, Note_on_c, 1, 46, 0
2, 39615, Note_on_c, 1, 51, 88
2, 40083, Note_on_c, 1, 51, 0
2, 40094, Note_on_c, 1, 53, 88
2, 40323, Note_on_c, 1, 53, 0
2, 40334, Note_on_c, 1, 46, 88
2, 40562, Note_on_c, 1, 46, 0
2, 40574, Note_on_c, 1, 48, 88
2, 40813, Note_on_c, 1, 48, 0
2, 40824, Note_on_c, 1, 50, 88
2, 41053, Note_on_c, 1, 50, 0
2, 41064, Note_on_c, 1, 51, 88
2, 41292, Note_on_c, 1, 51, 0
2, 41304, Note_on_c, 1, 53, 88
2, 41531, Note_on_c, 1, 53, 0
2, 41544, Note_on_c, 1, 55, 88
2, 41770, Note_on_c, 1, 55, 0
2, 41783, Note_on_c, 1, 53, 88
2, 42009, Note_on_c, 1, 53, 0
2, 42021, Note_on_c, 1, 51, 88
2, 42249, Note_on_c, 1, 51, 0
2, 42261, Note_on_c, 1, 50, 88
2, 42489, Note_on_c, 1, 50, 0
2, 42501, Note_on_c, 1, 48, 88
2, 42728, Note_on_c, 1, 48, 0
2, 42740, Note_on_c, 1, 50, 88
2, 42967, Note_on_c, 1, 50, 0
2, 42979, Note_on_c, 1, 51, 88
2, 43207, Note_on_c, 1, 51, 0
2, 43218, Note_on_c, 1, 50, 88
2, 43446, Note_on_c, 1, 50, 0
2, 43458, Note_on_c, 1, 48, 88
2, 43685, Note_on_c, 1, 48, 0
2, 43697, Note_on_c, 1, 46, 88
2, 43926, Note_on_c, 1, 46, 0
2, 43938, Note_on_c, 1, 51, 88
2, 44165, Note_on_c, 1, 51, 0
2, 44177, Note_on_c, 1, 53, 88
2, 44404, Note_on_c, 1, 53, 0
2, 44416, Note_on_c, 1, 55, 88
2, 44644, Note_on_c, 1, 55, 0
2, 44655, Note_on_c, 1, 56, 88
2, 44883, Note_on_c, 1, 56, 0
2, 44896, Note_on_c, 1, 58, 88
2, 45121, Note_on_c, 1, 58, 0
2, 45134, Note_on_c, 1, 60, 88
2, 45361, Note_on_c, 1, 60, 0
2, 45373, Note_on_c, 1, 50, 88
2, 45612, Note_on_c, 1, 50, 0
2, 45624, Note_on_c, 1, 52, 88
2, 45851, Note_on_c, 1, 52, 0
2, 45863, Note_on_c, 1, 53, 88
2, 46091, Note_on_c, 1, 53, 0
2, 46103, Note_on_c, 1, 55, 88
2, 46330, Note_on_c, 1, 55, 0
2, 46342, Note_on_c, 1, 56, 88
2, 46570, Note_on_c, 1, 56, 0
2, 46582, Note_on_c, 1, 58, 88
2, 46810, Note_on_c, 1, 58, 0
2, 46821, Note_on_c, 1, 48, 88
2, 47050, Note_on_c, 1, 48, 0
2, 47061, Note_on_c, 1, 50, 88
2, 47288, Note_on_c, 1, 50, 0
2, 47301, Note_on_c, 1, 52, 88
2, 47528, Note_on_c, 1, 52, 0
2, 47541, Note_on_c, 1, 53, 88
2, 47767, Note_on_c, 1, 53, 0
2, 47780, Note_on_c, 1, 56, 88
2, 48006, Note_on_c, 1, 56, 0
2, 48018, Note_on_c, 1, 61, 88
2, 48245, Note_on_c, 1, 61, 0
2, 48257, Note_on_c, 1, 58, 88
2, 48485, Note_on_c, 1, 58, 0
2, 48497, Note_on_c, 1, 55, 88
2, 48724, Note_on_c, 1, 55, 0
2, 48736, Note_on_c, 1, 60, 88
2, 48964, Note_on_c, 1, 60, 0
2, 48976, Note_on_c, 1, 49, 88
2, 50161, Note_on_c, 1, 49, 0
2, 50173, Note_on_c, 1, 43, 88
2, 50413, Note_on_c, 1, 43, 0
2, 50425, Note_on_c, 1, 44, 88
2, 50890, Note_on_c, 1, 44, 0
2, 50903, Note_on_c, 1, 46, 88
2, 51130, Note_on_c, 1, 46, 0
2, 51143, Note_on_c, 1, 48, 88
2, 51609, Note_on_c, 1, 48, 0
2, 51621, Note_on_c, 1, 36, 88
2, 51848, Note_on_c, 1, 36, 0
2, 51860, Note_on_c, 1, 41, 88
2, 52567, Note_on_c, 1, 41, 0
2, 52578, Note_on_c, 1, 53, 88
2, 52806, Note_on_c, 1, 53, 0
2, 52819, Note_on_c, 1, 55, 88
2, 53045, Note_on_c, 1, 55, 0
2, 53058, Note_on_c, 1, 56, 88
2, 53284, Note_on_c, 1, 56, 0
2, 53296, Note_on_c, 1, 58, 88
2, 54242, Note_on_c, 1, 58, 0
2, 54254, Note_on_c, 1, 56, 88
2, 54483, Note_on_c, 1, 56, 0
2, 54494, Note_on_c, 1, 55, 88
2, 54721, Note_on_c, 1, 55, 0
2, 54733, Note_on_c, 1, 56, 88
2, 55690, Note_on_c, 1, 56, 0
2, 55703, Note_on_c, 1, 55, 88
2, 55929, Note_on_c, 1, 55, 0
2, 55942, Note_on_c, 1, 53, 88
2, 56169, Note_on_c, 1, 53, 0
2, 56182, Note_on_c, 1, 55, 88
2, 56648, Note_on_c, 1, 55, 0
2, 56660, Note_on_c, 1, 53, 88
2, 56887, Note_on_c, 1, 53, 0
2, 56899, Note_on_c, 1, 52, 88
2, 57366, Note_on_c, 1, 52, 0
2, 57378, Note_on_c, 1, 48, 88
2, 57605, Note_on_c, 1, 48, 0
2, 57617, Note_on_c, 1, 53, 88
2, 58083, Note_on_c, 1, 53, 0
2, 58095, Note_on_c, 1, 51, 88
2, 58325, Note_on_c, 1, 51, 0
2, 58336, Note_on_c, 1, 50, 88
2, 58803, Note_on_c, 1, 50, 0
2, 58816, Note_on_c, 1, 46, 88
2, 59042, Note_on_c, 1, 46, 0
2, 59055, Note_on_c, 1, 51, 88
2, 59521, Note_on_c, 1, 51, 0
2, 59533, Note_on_c, 1, 50, 88
2, 59772, Note_on_c, 1, 50, 0
2, 59784, Note_on_c, 1, 48, 88
2, 60251, Note_on_c, 1, 48, 0
2, 60263, Note_on_c, 1, 51, 88
2, 60490, Note_on_c, 1, 51, 0
2, 60502, Note_on_c, 1, 50, 88
2, 60969, Note_on_c, 1, 50, 0
2, 60981, Note_on_c, 1, 48, 88
2, 61210, Note_on_c, 1, 48, 0
2, 61220, Note_on_c, 1, 47, 88
2, 61688, Note_on_c, 1, 47, 0
2, 61701, Note_on_c, 1, 43, 88
2, 61927, Note_on_c, 1, 43, 0
2, 61939, Note_on_c, 1, 48, 88
2, 62166, Note_on_c, 1, 48, 0
2, 62178, Note_on_c, 1, 50, 88
2, 62406, Note_on_c, 1, 50, 0
2, 62418, Note_on_c, 1, 51, 88
2, 62645, Note_on_c, 1, 51, 0
2, 62657, Note_on_c, 1, 53, 88
2, 62884, Note_on_c, 1, 53, 0
2, 62896, Note_on_c, 1, 55, 88
2, 63123, Note_on_c, 1, 55, 0
2, 63135, Note_on_c, 1, 56, 88
2, 63363, Note_on_c, 1, 56, 0
2, 63375, Note_on_c, 1, 55, 88
2, 63603, Note_on_c, 1, 55, 0
2, 63615, Note_on_c, 1, 53, 88
2, 63844, Note_on_c, 1, 53, 0
2, 63854, Note_on_c, 1, 51, 88
2, 64083, Note_on_c, 1, 51, 0
2, 64094, Note_on_c, 1, 50, 88
2, 64334, Note_on_c, 1, 50, 0
2, 64345, Note_on_c, 1, 51, 88
2, 64572, Note_on_c, 1, 51, 0
2, 64585, Note_on_c, 1, 53, 88
2, 64811, Note_on_c, 1, 53, 0
2, 64823, Note_on_c, 1, 51, 88
2, 65051, Note_on_c, 1, 51, 0
2, 65064, Note_on_c, 1, 50, 88
2, 65290, Note_on_c, 1, 50, 0
2, 65302, Note_on_c, 1, 48, 88
2, 65530, Note_on_c, 1, 48, 0
2, 65541, Note_on_c, 1, 60, 88
2, 65769, Note_on_c, 1, 60, 0
2, 65780, Note_on_c, 1, 59, 88
2, 66009, Note_on_c, 1, 59, 0
2, 66021, Note_on_c, 1, 60, 88
2, 66248, Note_on_c, 1, 60, 0
2, 66260, Note_on_c, 1, 56, 88
2, 66489, Note_on_c, 1, 56, 0
2, 66500, Note_on_c, 1, 55, 88
2, 66728, Note_on_c, 1, 55, 0
2, 66739, Note_on_c, 1, 53, 88
2, 66966, Note_on_c, 1, 53, 0
2, 66979, Note_on_c, 1, 60, 88
2, 67205, Note_on_c, 1, 60, 0
2, 67217, Note_on_c, 1, 59, 88
2, 67445, Note_on_c, 1, 59, 0
2, 67457, Note_on_c, 1, 60, 88
2, 67684, Note_on_c, 1, 60, 0
2, 67696, Note_on_c, 1, 55, 88
2, 67924, Note_on_c, 1, 55, 0
2, 67936, Note_on_c, 1, 53, 88
2, 68164, Note_on_c, 1, 53, 0
2, 68175, Note_on_c, 1, 51, 88
2, 68402, Note_on_c, 1, 51, 0
2, 68414, Note_on_c, 1, 60, 88
2, 68643, Note_on_c, 1, 60, 0
2, 68654, Note_on_c, 1, 59, 88
2, 68881, Note_on_c, 1, 59, 0
2, 68893, Note_on_c, 1, 60, 88
2, 69131, Note_on_c, 1, 60, 0
2, 69144, Note_on_c, 1, 53, 88
2, 69371, Note_on_c, 1, 53, 0
2, 69383, Note_on_c, 1, 55, 88
2, 69610, Note_on_c, 1, 55, 0
2, 69623, Note_on_c, 1, 56, 88
2, 69852, Note_on_c, 1, 56, 0
2, 69863, Note_on_c, 1, 50, 88
2, 70092, Note_on_c, 1, 50, 0
2, 70102, Note_on_c, 1, 55, 88
2, 70330, Note_on_c, 1, 55, 0
2, 70342, Note_on_c, 1, 53, 88
2, 70569, Note_on_c, 1, 53, 0
2, 70581, Note_on_c, 1, 51, 88
2, 70688, Note_on_c, 1, 51, 0
2, 70701, Note_on_c, 1, 55, 88
2, 70808, Note_on_c, 1, 55, 0
2, 70820, Note_on_c, 1, 60, 88
2, 70928, Note_on_c, 1, 60, 0
2, 70940, Note_on_c, 1, 55, 88
2, 71048, Note_on_c, 1, 55, 0
2, 71060, Note_on_c, 1, 51, 88
2, 71167, Note_on_c, 1, 51, 0
2, 71179, Note_on_c, 1, 55, 88
2, 71287, Note_on_c, 1, 55, 0
2, 71299, Note_on_c, 1, 53, 88
2, 71765, Note_on_c, 1, 53, 0
2, 71777, Note_on_c, 1, 51, 88
2, 72004, Note_on_c, 1, 51, 0
2, 72016, Note_on_c, 1, 50, 88
2, 72125, Note_on_c, 1, 50, 0
2, 72137, Note_on_c, 1, 53, 88
2, 72246, Note_on_c, 1, 53, 0
2, 72257, Note_on_c, 1, 56, 88
2, 72366, Note_on_c, 1, 56, 0
2, 72377, Note_on_c, 1, 53, 88
2, 72485, Note_on_c, 1, 53, 0
2, 72496, Note_on_c, 1, 50, 88
2, 72604, Note_on_c, 1, 50, 0
2, 72617, Note_on_c, 1, 53, 88
2, 72724, Note_on_c, 1, 53, 0
2, 72735, Note_on_c, 1, 47, 88
2, 73202, Note_on_c, 1, 47, 0
2, 73214, Note_on_c, 1, 55, 88
2, 73441, Note_on_c, 1, 55, 0
2, 73454, Note_on_c, 1, 51, 88
2, 73681, Note_on_c, 1, 51, 0
2, 73693, Note_on_c, 1, 56, 88
2, 73932, Note_on_c, 1, 56, 0
2, 73945, Note_on_c, 1, 53, 88
2, 74171, Note_on_c, 1, 53, 0
2, 74184, Note_on_c, 1, 55, 88
2, 74649, Note_on_c, 1, 55, 0
2, 74662, Note_on_c, 1, 43, 88
2, 74889, Note_on_c, 1, 43, 0
2, 74902, Note_on_c, 1, 36, 88
2, 77763, Note_on_c, 1, 36, 0
2, 78720, End_track
3, 0, Start_track
3, 0, Program_c, 2, 0
3, 0, Note_on_c, 2, 48, 88
3, 251, Note_on_c, 2, 48, 0
3, 267, Note_on_c, 2, 50, 88
3, 489, Note_on_c, 2, 50, 0
3, 501, Note_on_c, 2, 51, 88
3, 728, Note_on_c, 2, 51, 0
3, 740, Note_on_c, 2, 53, 88
3, 967, Note_on_c, 2, 53, 0
3, 978, Note_on_c, 2, 55, 88
3, 1206, Note_on_c, 2, 55, 0
3, 1217, Note_on_c, 2, 56, 88
3, 1445, Note_on_c, 2, 56, 0
3, 1457, Note_on_c, 2, 55, 88
3, 1686, Note_on_c, 2, 55, 0
3, 1698, Note_on_c, 2, 53, 88
3, 1925, Note_on_c, 2, 53, 0
3, 1937, Note_on_c, 2, 51, 88
3, 2164, Note_on_c, 2, 51, 0
3, 2176, Note_on_c, 2, 50, 88
3, 2403, Note_on_c, 2, 50, 0
3, 2415, Note_on_c, 2, 51, 88
3, 2643, Note_on_c, 2, 51, 0
3, 2655, Note_on_c, 2, 53, 88
3, 2882, Note_on_c, 2, 53, 0
3, 2893, Note_on_c, 2, 51, 88
3, 3133, Note_on_c, 2, 51, 0
3, 3145, Note_on_c, 2, 50, 88
3, 3372, Note_on_c, 2, 50, 0
3, 3385, Note_on_c, 2, 48, 88
3, 3612, Note_on_c, 2, 48, 0
3, 3625, Note_on_c, 2, 60, 88
3, 3851, Note_on_c, 2, 60, 0
3, 3863, Note_on_c, 2, 59, 88
3, 4091, Note_on_c, 2, 59, 0
3, 4103, Note_on_c, 2, 60, 88
3, 4331, Note_on_c, 2, 60, 0
3, 4343, Note_on_c, 2, 56, 88
3, 4570, Note_on_c, 2, 56, 0
3, 4582, Note_on_c, 2, 55, 88
3, 4809, Note_on_c, 2, 55, 0
3, 4821, Note_on_c, 2, 53, 88
3, 5048, Note_on_c, 2, 53, 0
3, 5060, Note_on_c, 2, 60, 88
3, 5288, Note_on_c, 2, 60, 0
3, 5300, Note_on_c, 2, 59, 88
3, 5528, Note_on_c, 2, 59, 0
3, 5540, Note_on_c, 2, 60, 88
3, 5766, Note_on_c, 2, 60, 0
3, 5779, Note_on_c, 2, 55, 88
3, 6006, Note_on_c, 2, 55, 0
3, 6018, Note_on_c, 2, 53, 88
3, 6245, Note_on_c, 2, 53, 0
3, 6257, Note_on_c, 2, 51, 88
3, 6484, Note_on_c, 2, 51, 0
3, 6496, Note_on_c, 2, 60, 88
3, 6725, Note_on_c, 2, 60, 0
3, 6737, Note_on_c, 2, 59, 88
3, 6964, Note_on_c, 2, 59, 0
3, 6976, Note_on_c, 2, 60, 88
3, 7203, Note_on_c, 2, 60, 0
3, 7215, Note_on_c, 2, 53, 88
3, 7442, Note_on_c, 2, 53, 0
3, 7454, Note_on_c, 2, 55, 88
3, 7681, Note_on_c, 2, 55, 0
3, 7692, Note_on_c, 2, 56, 88
3, 7933, Note_on_c, 2, 56, 0
3, 7946, Note_on_c, 2, 50, 88
3, 8173, Note_on_c, 2, 50, 0
3, 8185, Note_on_c, 2, 55, 88
3, 8412, Note_on_c, 2, 55, 0
3, 8424, Note_on_c, 2, 53, 88
3, 8650, Note_on_c, 2, 53, 0
3, 8663, Note_on_c, 2, 51, 88
3, 9848, Note_on_c, 2, 51, 0
3, 9860, Note_on_c, 2, 45, 88
3, 10087, Note_on_c, 2, 45, 0
3, 10099, Note_on_c, 2, 46, 88
3, 10566, Note_on_c, 2, 46, 0
3, 10578, Note_on_c, 2, 48, 88
3, 10805, Note_on_c, 2, 48, 0
3, 10817, Note_on_c, 2, 50, 88
3, 11283, Note_on_c, 2, 50, 0
3, 11296, Note_on_c, 2, 38, 88
3, 11524, Note_on_c, 2, 38, 0
3, 11536, Note_on_c, 2, 43, 88
3, 12481, Note_on_c, 2, 43, 0
3, 12493, Note_on_c, 2, 45, 88
3, 12732, Note_on_c, 2, 45, 0
3, 12745, Note_on_c, 2, 46, 88
3, 12972, Note_on_c, 2, 46, 0
3, 12985, Note_on_c, 2, 48, 88
3, 13930, Note_on_c, 2, 48, 0
3, 13941, Note_on_c, 2, 46, 88
3, 14169, Note_on_c, 2, 46, 0
3, 14182, Note_on_c, 2, 45, 88
3, 14408, Note_on_c, 2, 45, 0
3, 14420, Note_on_c, 2, 46, 88
3, 15366, Note_on_c, 2, 46, 0
3, 15378, Note_on_c, 2, 45, 88
3, 15606, Note_on_c, 2, 45, 0
3, 15618, Note_on_c, 2, 43, 88
3, 15845, Note_on_c, 2, 43, 0
3, 15857, Note_on_c, 2, 51, 88
3, 16324, Note_on_c, 2, 51, 0
3, 16336, Note_on_c, 2, 48, 88
3, 16563, Note_on_c, 2, 48, 0
3, 16575, Note_on_c, 2, 50, 88
3, 17041, Note_on_c, 2, 50, 0
3, 17053, Note_on_c, 2, 38, 88
3, 17293, Note_on_c, 2, 38, 0
3, 17305, Note_on_c, 2, 43, 88
3, 17532, Note_on_c, 2, 43, 0
3, 17545, Note_on_c, 2, 45, 88
3, 17772, Note_on_c, 2, 45, 0
3, 17784, Note_on_c, 2, 46, 88
3, 18011, Note_on_c, 2, 46, 0
3, 18024, Note_on_c, 2, 48, 88
3, 18251, Note_on_c, 2, 48, 0
3, 18262, Note_on_c, 2, 50, 88
3, 18490, Note_on_c, 2, 50, 0
3, 18502, Note_on_c, 2, 51, 88
3, 18729, Note_on_c, 2, 51, 0
3, 18741, Note_on_c, 2, 53, 88
3, 18969, Note_on_c, 2, 53, 0
3, 18981, Note_on_c, 2, 55, 88
3, 19209, Note_on_c, 2, 55, 0
3, 19221, Note_on_c, 2, 56, 88
3, 19448, Note_on_c, 2, 56, 0
3, 19460, Note_on_c, 2, 58, 88
3, 19686, Note_on_c, 2, 58, 0
3, 19699, Note_on_c, 2, 60, 88
3, 19926, Note_on_c, 2, 60, 0
3, 19938, Note_on_c, 2, 62, 88
3, 20166, Note_on_c, 2, 62, 0
3, 20178, Note_on_c, 2, 63, 88
3, 20406, Note_on_c, 2, 63, 0
3, 20417, Note_on_c, 2, 65, 88
3, 20644, Note_on_c, 2, 65, 0
3, 20656, Note_on_c, 2, 67, 88
3, 20884, Note_on_c, 2, 67, 0
3, 20895, Note_on_c, 2, 68, 88
3, 22093, Note_on_c, 2, 68, 0
3, 22105, Note_on_c, 2, 65, 88
3, 22332, Note_on_c, 2, 65, 0
3, 22344, Note_on_c, 2, 67, 88
3, 22811, Note_on_c, 2, 67, 0
3, 22823, Note_on_c, 2, 55, 88
3, 23051, Note_on_c, 2, 55, 0
3, 23063, Note_on_c, 2, 60, 88
3, 23529, Note_on_c, 2, 60, 0
3, 23541, Note_on_c, 2, 58, 88
3, 23768, Note_on_c, 2, 58, 0
3, 23781, Note_on_c, 2, 56, 88
3, 24247, Note_on_c, 2, 56, 0
3, 24259, Note_on_c, 2, 53, 88
3, 24487, Note_on_c, 2, 53, 0
3, 24499, Note_on_c, 2, 58, 88
3, 24966, Note_on_c, 2, 58, 0
3, 24977, Note_on_c, 2, 56, 88
3, 25205, Note_on_c, 2, 56, 0
3, 25217, Note_on_c, 2, 55, 88
3, 25685, Note_on_c, 2, 55, 0
3, 25697, Note_on_c, 2, 51, 88
3, 25923, Note_on_c, 2, 51, 0
3, 25936, Note_on_c, 2, 56, 88
3, 26162, Note_on_c, 2, 56, 0
3, 26175, Note_on_c, 2, 58, 88
3, 26403, Note_on_c, 2, 58, 0
3, 26414, Note_on_c, 2, 60, 88
3, 26641, Note_on_c, 2, 60, 0
3, 26653, Note_on_c, 2, 53, 88
3, 26892, Note_on_c, 2, 53, 0
3, 26905, Note_on_c, 2, 58, 88
3, 27133, Note_on_c, 2, 58, 0
3, 27144, Note_on_c, 2, 56, 88
3, 27371, Note_on_c, 2, 56, 0
3, 27383, Note_on_c, 2, 55, 88
3, 27850, Note_on_c, 2, 55, 0
3, 27863, Note_on_c, 2, 56, 88
3, 28090, Note_on_c, 2, 56, 0
3, 28103, Note_on_c, 2, 58, 88
3, 28569, Note_on_c, 2, 58, 0
3, 28581, Note_on_c, 2, 46, 88
3, 28807, Note_on_c, 2, 46, 0
3, 28819, Note_on_c, 2, 51, 88
3, 29047, Note_on_c, 2, 51, 0
3, 29059, Note_on_c, 2, 53, 88
3, 29286, Note_on_c, 2, 53, 0
3, 29299, Note_on_c, 2, 55, 88
3, 29526, Note_on_c, 2, 55, 0
3, 29538, Note_on_c, 2, 56, 88
3, 29765, Note_on_c, 2, 56, 0
3, 29777, Note_on_c, 2, 58, 88
3, 30005, Note_on_c, 2, 58, 0
3, 30017, Note_on_c, 2, 60, 88
3, 30244, Note_on_c, 2, 60, 0
3, 30255, Note_on_c, 2, 58, 88
3, 30484, Note_on_c, 2, 58, 0
3, 30496, Note_on_c, 2, 56, 88
3, 30723, Note_on_c, 2, 56, 0
3, 30736, Note_on_c, 2, 55, 88
3, 30963, Note_on_c, 2, 55, 0
3, 30975, Note_on_c, 2, 53, 88
3, 31202, Note_on_c, 2, 53, 0
3, 31213, Note_on_c, 2, 55, 88
3, 31453, Note_on_c, 2, 55, 0
3, 31466, Note_on_c, 2, 56, 88
3, 31692, Note_on_c, 2, 56, 0
3, 31706, Note_on_c, 2, 55, 88
3, 32650, Note_on_c, 2, 55, 0
3, 32662, Note_on_c, 2, 53, 88
3, 32890, Note_on_c, 2, 53, 0
3, 32902, Note_on_c, 2, 51, 88
3, 33130, Note_on_c, 2, 51, 0
3, 33142, Note_on_c, 2, 50, 88
3, 33607, Note_on_c, 2, 50, 0
3, 33620, Note_on_c, 2, 51, 88
3, 33846, Note_on_c, 2, 51, 0
3, 33859, Note_on_c, 2, 44, 88
3, 34325, Note_on_c, 2, 44, 0
3, 34337, Note_on_c, 2, 46, 88
3, 34565, Note_on_c, 2, 46, 0
3, 34577, Note_on_c, 2, 39, 88
3, 35283, Note_on_c, 2, 39, 0
3, 35295, Note_on_c, 2, 51, 88
3, 35763, Note_on_c, 2, 51, 0
3, 35775, Note_on_c, 2, 45, 88
3, 36002, Note_on_c, 2, 45, 0
3, 36014, Note_on_c, 2, 46, 88
3, 36492, Note_on_c, 2, 46, 0
3, 36505, Note_on_c, 2, 48, 88
3, 36732, Note_on_c, 2, 48, 0
3, 36744, Note_on_c, 2, 50, 88
3, 37210, Note_on_c, 2, 50, 0
3, 37222, Note_on_c, 2, 38, 88
3, 37449, Note_on_c, 2, 38, 0
3, 37461, Note_on_c, 2, 43, 88
3, 38408, Note_on_c, 2, 43, 0
3, 38420, Note_on_c, 2, 45, 88
3, 38646, Note_on_c, 2, 45, 0
3, 38659, Note_on_c, 2, 46, 88
3, 38886, Note_on_c, 2, 46, 0
3, 38898, Note_on_c, 2, 45, 88
3, 39365, Note_on_c, 2, 45, 0
3, 39377, Note_on_c, 2, 46, 88
3, 39604, Note_on_c, 2, 46, 0
3, 39616, Note_on_c, 2, 51, 88
3, 40083, Note_on_c, 2, 51, 0
3, 40095, Note_on_c, 2, 53, 88
3, 40323, Note_on_c, 2, 53, 0
3, 40335, Note_on_c, 2, 46, 88
3, 40563, Note_on_c, 2, 46, 0
3, 40575, Note_on_c, 2, 48, 88
3, 40814, Note_on_c, 2, 48, 0
3, 40825, Note_on_c, 2, 50, 88
3, 41053, Note_on_c, 2, 50, 0
3, 41065, Note_on_c, 2, 51, 88
3, 41292, Note_on_c, 2, 51, 0
3, 41304, Note_on_c, 2, 53, 88
3, 41532, Note_on_c, 2, 53, 0
3, 41544, Note_on_c, 2, 55, 88
3, 41771, Note_on_c, 2, 55, 0
3, 41784, Note_on_c, 2, 53, 88
3, 42010, Note_on_c, 2, 53, 0
3, 42022, Note_on_c, 2, 51, 88
3, 42249, Note_on_c, 2, 51, 0
3, 42261, Note_on_c, 2, 50, 88
3, 42489, Note_on_c, 2, 50, 0
3, 42501, Note_on_c, 2, 48, 88
3, 42729, Note_on_c, 2, 48, 0
3, 42741, Note_on_c, 2, 50, 88
3, 42968, Note_on_c, 2, 50, 0
3, 42980, Note_on_c, 2, 51, 88
3, 43207, Note_on_c, 2, 51, 0
3, 43219, Note_on_c, 2, 50, 88
3, 43446, Note_on_c, 2, 50, 0
3, 43458, Note_on_c, 2, 48, 88
3, 43686, Note_on_c, 2, 48, 0
3, 43697, Note_on_c, 2, 46, 88
3, 43926, Note_on_c, 2, 46, 0
3, 43938, Note_on_c, 2, 51, 88
3, 44166, Note_on_c, 2, 51, 0
3, 44178, Note_on_c, 2, 53, 88
3, 44405, Note_on_c, 2, 53, 0
3, 44417, Note_on_c, 2, 55, 88
3, 44644, Note_on_c, 2, 55, 0
3, 44656, Note_on_c, 2, 56, 88
3, 44883, Note_on_c, 2, 56, 0
3, 44896, Note_on_c, 2, 58, 88
3, 45124, Note_on_c, 2, 58, 0
3, 45135, Note_on_c, 2, 60, 88
3, 45362, Note_on_c, 2, 60, 0
3, 45374, Note_on_c, 2, 50, 88
3, 45613, Note_on_c, 2, 50, 0
3, 45625, Note_on_c, 2, 52, 88
3, 45852, Note_on_c, 2, 52, 0
3, 45864, Note_on_c, 2, 53, 88
3, 46091, Note_on_c, 2, 53, 0
3, 46103, Note_on_c, 2, 55, 88
3, 46331, Note_on_c, 2, 55, 0
3, 46343, Note_on_c, 2, 56, 88
3, 46570, Note_on_c, 2, 56, 0
3, 46582, Note_on_c, 2, 58, 88
3, 46811, Note_on_c, 2, 58, 0
3, 46822, Note_on_c, 2, 48, 88
3, 47051, Note_on_c, 2, 48, 0
3, 47062, Note_on_c, 2, 50, 88
3, 47289, Note_on_c, 2, 50, 0
3, 47302, Note_on_c, 2, 52, 88
3, 47528, Note_on_c, 2, 52, 0
3, 47541, Note_on_c, 2, 53, 88
3, 47768, Note_on_c, 2, 53, 0
3, 47780, Note_on_c, 2, 56, 88
3, 48007, Note_on_c, 2, 56, 0
3, 48019, Note_on_c, 2, 61, 88
3, 48246, Note_on_c, 2, 61, 0
3, 48258, Note_on_c, 2, 58, 88
3, 48485, Note_on_c, 2, 58, 0
3, 48497, Note_on_c, 2, 55, 88
3, 48725, Note_on_c, 2, 55, 0
3, 48736, Note_on_c, 2, 60, 88
3, 48965, Note_on_c, 2, 60, 0
3, 48977, Note_on_c, 2, 49, 88
3, 50161, Note_on_c, 2, 49, 0
3, 50173, Note_on_c, 2, 43, 88
3, 50413, Note_on_c, 2, 43, 0
3, 50425, Note_on_c, 2, 44, 88
3, 50891, Note_on_c, 2, 44, 0
3, 50904, Note_on_c, 2, 46, 88
3, 51130, Note_on_c, 2, 46, 0
3, 51143, Note_on_c, 2, 48, 88
3, 51610, Note_on_c, 2, 48, 0
3, 51622, Note_on_c, 2, 36, 88
3, 51849, Note_on_c, 2, 36, 0
3, 51861, Note_on_c, 2, 41, 88
3, 52567, Note_on_c, 2, 41, 0
3, 52579, Note_on_c, 2, 53, 88
3, 52807, Note_on_c, 2, 53, 0
3, 52819, Note_on_c, 2, 55, 88
3, 53046, Note_on_c, 2, 55, 0
3, 53059, Note_on_c, 2, 56, 88
3, 53285, Note_on_c, 2, 56, 0
3, 53297, Note_on_c, 2, 58, 88
3, 54243, Note_on_c, 2, 58, 0
3, 54255, Note_on_c, 2, 56, 88
3, 54483, Note_on_c, 2, 56, 0
3, 54495, Note_on_c, 2, 55, 88
3, 54722, Note_on_c, 2, 55, 0
3, 54733, Note_on_c, 2, 56, 88
3, 55691, Note_on_c, 2, 56, 0
3, 55704, Note_on_c, 2, 55, 88
3, 55930, Note_on_c, 2, 55, 0
3, 55943, Note_on_c, 2, 53, 88
3, 56169, Note_on_c, 2, 53, 0
3, 56182, Note_on_c, 2, 55, 88
3, 56649, Note_on_c, 2, 55, 0
3, 56661, Note_on_c, 2, 53, 88
3, 56888, Note_on_c, 2, 53, 0
3, 56900, Note_on_c, 2, 52, 88
3, 57366, Note_on_c, 2, 52, 0
3, 57378, Note_on_c, 2, 48, 88
3, 57606, Note_on_c, 2, 48, 0
3, 57618, Note_on_c, 2, 53, 88
3, 58084, Note_on_c, 2, 53, 0
3, 58096, Note_on_c, 2, 51, 88
3, 58325, Note_on_c, 2, 51, 0
3, 58337, Note_on_c, 2, 50, 88
3, 58804, Note_on_c, 2, 50, 0
3, 58816, Note_on_c, 2, 46, 88
3, 59043, Note_on_c, 2, 46, 0
3, 59056, Note_on_c, 2, 51, 88
3, 59521, Note_on_c, 2, 51, 0
3, 59534, Note_on_c, 2, 50, 88
3, 59773, Note_on_c, 2, 50, 0
3, 59785, Note_on_c, 2, 48, 88
3, 60252, Note_on_c, 2, 48, 0
3, 60264, Note_on_c, 2, 51, 88
3, 60491, Note_on_c, 2, 51, 0
3, 60503, Note_on_c, 2, 50, 88
3, 60970, Note_on_c, 2, 50, 0
3, 60981, Note_on_c, 2, 48, 88
3, 61210, Note_on_c, 2, 48, 0
3, 61221, Note_on_c, 2, 47, 88
3, 61689, Note_on_c, 2, 47, 0
3, 61701, Note_on_c, 2, 43, 88
3, 61928, Note_on_c, 2, 43, 0
3, 61940, Note_on_c, 2, 48, 88
3, 62167, Note_on_c, 2, 48, 0
3, 62179, Note_on_c, 2, 50, 88
3, 62406, Note_on_c, 2, 50, 0
3, 62418, Note_on_c, 2, 51, 88
3, 62645, Note_on_c, 2, 51, 0
3, 62657, Note_on_c, 2, 53, 88
3, 62885, Note_on_c, 2, 53, 0
3, 62897, Note_on_c, 2, 55, 88
3, 63124, Note_on_c, 2, 55, 0
3, 63136, Note_on_c, 2, 56, 88
3, 63364, Note_on_c, 2, 56, 0
3, 63376, Note_on_c, 2, 55, 88
3, 63603, Note_on_c, 2, 55, 0
3, 63615, Note_on_c, 2, 53, 88
3, 63844, Note_on_c, 2, 53, 0
3, 63855, Note_on_c, 2, 51, 88
3, 64083, Note_on_c, 2, 51, 0
3, 64095, Note_on_c, 2, 50, 88
3, 64334, Note_on_c, 2, 50, 0
3, 64345, Note_on_c, 2, 51, 88
3, 64573, Note_on_c, 2, 51, 0
3, 64586, Note_on_c, 2, 53, 88
3, 64812, Note_on_c, 2, 53, 0
3, 64824, Note_on_c, 2, 51, 88
3, 65051, Note_on_c, 2, 51, 0
3, 65064, Note_on_c, 2, 50, 88
3, 65291, Note_on_c, 2, 50, 0
3, 65303, Note_on_c, 2, 48, 88
3, 65531, Note_on_c, 2, 48, 0
3, 65542, Note_on_c, 2, 60, 88
3, 65770, Note_on_c, 2, 60, 0
3, 65781, Note_on_c, 2, 59, 88
3, 66009, Note_on_c, 2, 59, 0
3, 66021, Note_on_c, 2, 60, 88
3, 66248, Note_on_c, 2, 60, 0
3, 66260, Note_on_c, 2, 56, 88
3, 66489, Note_on_c, 2, 56, 0
3, 66501, Note_on_c, 2, 55, 88
3, 66729, Note_on_c, 2, 55, 0
3, 66740, Note_on_c, 2, 53, 88
3, 66967, Note_on_c, 2, 53, 0
3, 66979, Note_on_c, 2, 60, 88
3, 67206, Note_on_c, 2, 60, 0
3, 67217, Note_on_c, 2, 59, 88
3, 67445, Note_on_c, 2, 59, 0
3, 67457, Note_on_c, 2, 60, 88
3, 67685, Note_on_c, 2, 60, 0
3, 67697, Note_on_c, 2, 55, 88
3, 67925, Note_on_c, 2, 55, 0
3, 67937, Note_on_c, 2, 53, 88
3, 68164, Note_on_c, 2, 53, 0
3, 68176, Note_on_c, 2, 51, 88
3, 68403, Note_on_c, 2, 51, 0
3, 68415, Note_on_c, 2, 60, 88
3, 68643, Note_on_c, 2, 60, 0
3, 68654, Note_on_c, 2, 59, 88
3, 68882, Note_on_c, 2, 59, 0
3, 68894, Note_on_c, 2, 60, 88
3, 69132, Note_on_c, 2, 60, 0
3, 69145, Note_on_c, 2, 53, 88
3, 69372, Note_on_c, 2, 53, 0
3, 69384, Note_on_c, 2, 55, 88
3, 69611, Note_on_c, 2, 55, 0
3, 69624, Note_on_c, 2, 56, 88
3, 69852, Note_on_c, 2, 56, 0
3, 69863, Note_on_c, 2, 50, 88
3, 70092, Note_on_c, 2, 50, 0
3, 70103, Note_on_c, 2, 55, 88
3, 70331, Note_on_c, 2, 55, 0
3, 70342, Note_on_c, 2, 53, 88
3, 70570, Note_on_c, 2, 53, 0
3, 70582, Note_on_c, 2, 51, 88
3, 70689, Note_on_c, 2, 51, 0
3, 70701, Note_on_c, 2, 55, 88
3, 70809, Note_on_c, 2, 55, 0
3, 70820, Note_on_c, 2, 60, 88
3, 70928, Note_on_c, 2, 60, 0
3, 70940, Note_on_c, 2, 55, 88
3, 71048, Note_on_c, 2, 55, 0
3, 71060, Note_on_c, 2, 51, 88
3, 71167, Note_on_c, 2, 51, 0
3, 71179, Note_on_c, 2, 55, 88
3, 71288, Note_on_c, 2, 55, 0
3, 71300, Note_on_c, 2, 53, 88
3, 71766, Note_on_c, 2, 53, 0
3, 71778, Note_on_c, 2, 51, 88
3, 72005, Note_on_c, 2, 51, 0
3, 72017, Note_on_c, 2, 50, 88
3, 72125, Note_on_c, 2, 50, 0
3, 72137, Note_on_c, 2, 53, 88
3, 72246, Note_on_c, 2, 53, 0
3, 72257, Note_on_c, 2, 56, 88
3, 72366, Note_on_c, 2, 56, 0
3, 72377, Note_on_c, 2, 53, 88
3, 72485, Note_on_c, 2, 53, 0
3, 72497, Note_on_c, 2, 50, 88
3, 72604, Note_on_c, 2, 50, 0
3, 72617, Note_on_c, 2, 53, 88
3, 72724, Note_on_c, 2, 53, 0
3, 72736, Note_on_c, 2, 47, 88
3, 73203, Note_on_c, 2, 47, 0
3, 73214, Note_on_c, 2, 55, 88
3, 73443, Note_on_c, 2, 55, 0
3, 73454, Note_on_c, 2, 51, 88
3, 73681, Note_on_c, 2, 51, 0
3, 73693, Note_on_c, 2, 56, 88
3, 73932, Note_on_c, 2, 56, 0
3, 73945, Note_on_c, 2, 53, 88
3, 74172, Note_on_c, 2, 53, 0
3, 74185, Note_on_c, 2, 55, 88
3, 74650, Note_on_c, 2, 55, 0
3, 74663, Note_on_c, 2, 43, 88
3, 74889, Note_on_c, 2, 43, 0
3, 74902, Note_on_c, 2, 36, 88
3, 77763, Note_on_c, 2, 36, 0
3, 78720, End_track
4, 0, Start_track
4, 0, Program_c, 3, 0
4, 8651, Note_on_c, 3, 67, 88
4, 8891, Note_on_c, 3, 67, 0
4, 8903, Note_on_c, 3, 69, 88
4, 9129, Note_on_c, 3, 69, 0
4, 9142, Note_on_c, 3, 70, 88
4, 9369, Note_on_c, 3, 70, 0
4, 9381, Note_on_c, 3, 72, 88
4, 9608, Note_on_c, 3, 72, 0
4, 9620, Note_on_c, 3, 74, 88
4, 9849, Note_on_c, 3, 74, 0
4, 9860, Note_on_c, 3, 75, 88
4, 10088, Note_on_c, 3, 75, 0
4, 10100, Note_on_c, 3, 74, 88
4, 10326, Note_on_c, 3, 74, 0
4, 10338, Note_on_c, 3, 72, 88
4, 10567, Note_on_c, 3, 72, 0
4, 10579, Note_on_c, 3, 70, 88
4, 10806, Note_on_c, 3, 70, 0
4, 10818, Note_on_c, 3, 69, 88
4, 11043, Note_on_c, 3, 69, 0
4, 11055, Note_on_c, 3, 70, 88
4, 11284, Note_on_c, 3, 70, 0
4, 11297, Note_on_c, 3, 72, 88
4, 11524, Note_on_c, 3, 72, 0
4, 11537, Note_on_c, 3, 70, 88
4, 11763, Note_on_c, 3, 70, 0
4, 11775, Note_on_c, 3, 69, 88
4, 12003, Note_on_c, 3, 69, 0
4, 12014, Note_on_c, 3, 67, 88
4, 12241, Note_on_c, 3, 67, 0
4, 12253, Note_on_c, 3, 79, 88
4, 12482, Note_on_c, 3, 79, 0
4, 12494, Note_on_c, 3, 78, 88
4, 12733, Note_on_c, 3, 78, 0
4, 12746, Note_on_c, 3, 79, 88
4, 12972, Note_on_c, 3, 79, 0
4, 12985, Note_on_c, 3, 75, 88
4, 13210, Note_on_c, 3, 75, 0
4, 13223, Note_on_c, 3, 74, 88
4, 13450, Note_on_c, 3, 74, 0
4, 13462, Note_on_c, 3, 72, 88
4, 13690, Note_on_c, 3, 72, 0
4, 13702, Note_on_c, 3, 79, 88
4, 13931, Note_on_c, 3, 79, 0
4, 13942, Note_on_c, 3, 78, 88
4, 14170, Note_on_c, 3, 78, 0
4, 14182, Note_on_c, 3, 79, 88
4, 14409, Note_on_c, 3, 79, 0
4, 14420, Note_on_c, 3, 74, 88
4, 14646, Note_on_c, 3, 74, 0
4, 14660, Note_on_c, 3, 72, 88
4, 14886, Note_on_c, 3, 72, 0
4, 14898, Note_on_c, 3, 70, 88
4, 15126, Note_on_c, 3, 70, 0
4, 15138, Note_on_c, 3, 79, 88
4, 15366, Note_on_c, 3, 79, 0
4, 15378, Note_on_c, 3, 78, 88
4, 15606, Note_on_c, 3, 78, 0
4, 15618, Note_on_c, 3, 79, 88
4, 15846, Note_on_c, 3, 79, 0
4, 15858, Note_on_c, 3, 72, 88
4, 16083, Note_on_c, 3, 72, 0
4, 16095, Note_on_c, 3, 74, 88
4, 16324, Note_on_c, 3, 74, 0
4, 16337, Note_on_c, 3, 75, 88
4, 16563, Note_on_c, 3, 75, 0
4, 16575, Note_on_c, 3, 69, 88
4, 16802, Note_on_c, 3, 69, 0
4, 16814, Note_on_c, 3, 74, 88
4, 17042, Note_on_c, 3, 74, 0
4, 17054, Note_on_c, 3, 72, 88
4, 17294, Note_on_c, 3, 72, 0
4, 17306, Note_on_c, 3, 70, 88
4, 17412, Note_on_c, 3, 70, 0
4, 17425, Note_on_c, 3, 74, 88
4, 17532, Note_on_c, 3, 74, 0
4, 17546, Note_on_c, 3, 72, 88
4, 17651, Note_on_c, 3, 72, 0
4, 17664, Note_on_c, 3, 75, 88
4, 17772, Note_on_c, 3, 75, 0
4, 17784, Note_on_c, 3, 74, 88
4, 17891, Note_on_c, 3, 74, 0
4, 17905, Note_on_c, 3, 77, 88
4, 18011, Note_on_c, 3, 77, 0
4, 18024, Note_on_c, 3, 75, 88
4, 18970, Note_on_c, 3, 75, 0
4, 18982, Note_on_c, 3, 74, 88
4, 19209, Note_on_c, 3, 74, 0
4, 19221, Note_on_c, 3, 72, 88
4, 19449, Note_on_c, 3, 72, 0
4, 19460, Note_on_c, 3, 74, 88
4, 20406, Note_on_c, 3, 74, 0
4, 20418, Note_on_c, 3, 72, 88
4, 20645, Note_on_c, 3, 72, 0
4, 20657, Note_on_c, 3, 71, 88
4, 20884, Note_on_c, 3, 71, 0
4, 20896, Note_on_c, 3, 72, 88
4, 21124, Note_on_c, 3, 72, 0
4, 21135, Note_on_c, 3, 74, 88
4, 21363, Note_on_c, 3, 74, 0
4, 21375, Note_on_c, 3, 75, 88
4, 21602, Note_on_c, 3, 75, 0
4, 21614, Note_on_c, 3, 77, 88
4, 21841, Note_on_c, 3, 77, 0
4, 21853, Note_on_c, 3, 79, 88
4, 22093, Note_on_c, 3, 79, 0
4, 22106, Note_on_c, 3, 80, 88
4, 22333, Note_on_c, 3, 80, 0
4, 22345, Note_on_c, 3, 74, 88
4, 22572, Note_on_c, 3, 74, 0
4, 22583, Note_on_c, 3, 79, 88
4, 22812, Note_on_c, 3, 79, 0
4, 22824, Note_on_c, 3, 77, 88
4, 23051, Note_on_c, 3, 77, 0
4, 23063, Note_on_c, 3, 75, 88
4, 23289, Note_on_c, 3, 75, 0
4, 23301, Note_on_c, 3, 77, 88
4, 23530, Note_on_c, 3, 77, 0
4, 23542, Note_on_c, 3, 79, 88
4, 23769, Note_on_c, 3, 79, 0
4, 23782, Note_on_c, 3, 68, 88
4, 24007, Note_on_c, 3, 68, 0
4, 24019, Note_on_c, 3, 77, 88
4, 24248, Note_on_c, 3, 77, 0
4, 24260, Note_on_c, 3, 75, 88
4, 24488, Note_on_c, 3, 75, 0
4, 24500, Note_on_c, 3, 74, 88
4, 24726, Note_on_c, 3, 74, 0
4, 24738, Note_on_c, 3, 75, 88
4, 24967, Note_on_c, 3, 75, 0
4, 24978, Note_on_c, 3, 77, 88
4, 25206, Note_on_c, 3, 77, 0
4, 25218, Note_on_c, 3, 70, 88
4, 25444, Note_on_c, 3, 70, 0
4, 25456, Note_on_c, 3, 75, 88
4, 25685, Note_on_c, 3, 75, 0
4, 25697, Note_on_c, 3, 73, 88
4, 25924, Note_on_c, 3, 73, 0
4, 25937, Note_on_c, 3, 72, 88
4, 26642, Note_on_c, 3, 72, 0
4, 26653, Note_on_c, 3, 74, 88
4, 27372, Note_on_c, 3, 74, 0
4, 27384, Note_on_c, 3, 75, 88
4, 27611, Note_on_c, 3, 75, 0
4, 27623, Note_on_c, 3, 74, 88
4, 27850, Note_on_c, 3, 74, 0
4, 27863, Note_on_c, 3, 72, 88
4, 28090, Note_on_c, 3, 72, 0
4, 28103, Note_on_c, 3, 70, 88
4, 28328, Note_on_c, 3, 70, 0
4, 28340, Note_on_c, 3, 72, 88
4, 28570, Note_on_c, 3, 72, 0
4, 28582, Note_on_c, 3, 68, 88
4, 28808, Note_on_c, 3, 68, 0
4, 28820, Note_on_c, 3, 67, 88
4, 29287, Note_on_c, 3, 67, 0
4, 31692, Note_on_c, 3, 63, 88
4, 31930, Note_on_c, 3, 63, 0
4, 31944, Note_on_c, 3, 65, 88
4, 32170, Note_on_c, 3, 65, 0
4, 32183, Note_on_c, 3, 67, 88
4, 32409, Note_on_c, 3, 67, 0
4, 32422, Note_on_c, 3, 68, 88
4, 32651, Note_on_c, 3, 68, 0
4, 32663, Note_on_c, 3, 70, 88
4, 32890, Note_on_c, 3, 70, 0
4, 32902, Note_on_c, 3, 72, 88
4, 33131, Note_on_c, 3, 72, 0
4, 33143, Note_on_c, 3, 70, 88
4, 33367, Note_on_c, 3, 70, 0
4, 33379, Note_on_c, 3, 68, 88
4, 33608, Note_on_c, 3, 68, 0
4, 33620, Note_on_c, 3, 67, 88
4, 33847, Note_on_c, 3, 67, 0
4, 33860, Note_on_c, 3, 65, 88
4, 34085, Note_on_c, 3, 65, 0
4, 34097, Note_on_c, 3, 67, 88
4, 34326, Note_on_c, 3, 67, 0
4, 34338, Note_on_c, 3, 68, 88
4, 34566, Note_on_c, 3, 68, 0
4, 34578, Note_on_c, 3, 67, 88
4, 34804, Note_on_c, 3, 67, 0
4, 34816, Note_on_c, 3, 69, 88
4, 35043, Note_on_c, 3, 69, 0
4, 35055, Note_on_c, 3, 70, 88
4, 35284, Note_on_c, 3, 70, 0
4, 35295, Note_on_c, 3, 72, 88
4, 35522, Note_on_c, 3, 72, 0
4, 35534, Note_on_c, 3, 74, 88
4, 35763, Note_on_c, 3, 74, 0
4, 35775, Note_on_c, 3, 75, 88
4, 36002, Note_on_c, 3, 75, 0
4, 36015, Note_on_c, 3, 74, 88
4, 36253, Note_on_c, 3, 74, 0
4, 36264, Note_on_c, 3, 72, 88
4, 36492, Note_on_c, 3, 72, 0
4, 36506, Note_on_c, 3, 70, 88
4, 36732, Note_on_c, 3, 70, 0
4, 36744, Note_on_c, 3, 69, 88
4, 36970, Note_on_c, 3, 69, 0
4, 36983, Note_on_c, 3, 70, 88
4, 37211, Note_on_c, 3, 70, 0
4, 37223, Note_on_c, 3, 72, 88
4, 37449, Note_on_c, 3, 72, 0
4, 37462, Note_on_c, 3, 70, 88
4, 37689, Note_on_c, 3, 70, 0
4, 37701, Note_on_c, 3, 72, 88
4, 37928, Note_on_c, 3, 72, 0
4, 37940, Note_on_c, 3, 74, 88
4, 38168, Note_on_c, 3, 74, 0
4, 38180, Note_on_c, 3, 75, 88
4, 38409, Note_on_c, 3, 75, 0
4, 38420, Note_on_c, 3, 77, 88
4, 38647, Note_on_c, 3, 77, 0
4, 38660, Note_on_c, 3, 79, 88
4, 38886, Note_on_c, 3, 79, 0
4, 38899, Note_on_c, 3, 77, 88
4, 39125, Note_on_c, 3, 77, 0
4, 39138, Note_on_c, 3, 75, 88
4, 39366, Note_on_c, 3, 75, 0
4, 39378, Note_on_c, 3, 74, 88
4, 39605, Note_on_c, 3, 74, 0
4, 39617, Note_on_c, 3, 72, 88
4, 39843, Note_on_c, 3, 72, 0
4, 39855, Note_on_c, 3, 74, 88
4, 40083, Note_on_c, 3, 74, 0
4, 40095, Note_on_c, 3, 75, 88
4, 40324, Note_on_c, 3, 75, 0
4, 40335, Note_on_c, 3, 74, 88
4, 40442, Note_on_c, 3, 74, 0
4, 40454, Note_on_c, 3, 77, 88
4, 40563, Note_on_c, 3, 77, 0
4, 40575, Note_on_c, 3, 75, 88
4, 40681, Note_on_c, 3, 75, 0
4, 40693, Note_on_c, 3, 79, 88
4, 40815, Note_on_c, 3, 79, 0
4, 40826, Note_on_c, 3, 77, 88
4, 40933, Note_on_c, 3, 77, 0
4, 40944, Note_on_c, 3, 80, 88
4, 41054, Note_on_c, 3, 80, 0
4, 41066, Note_on_c, 3, 79, 88
4, 41532, Note_on_c, 3, 79, 0
4, 41545, Note_on_c, 3, 70, 88
4, 41772, Note_on_c, 3, 70, 0
4, 41784, Note_on_c, 3, 68, 88
4, 42011, Note_on_c, 3, 68, 0
4, 42023, Note_on_c, 3, 67, 88
4, 42250, Note_on_c, 3, 67, 0
4, 42262, Note_on_c, 3, 68, 88
4, 42489, Note_on_c, 3, 68, 0
4, 42501, Note_on_c, 3, 68, 88
4, 42729, Note_on_c, 3, 68, 0
4, 42741, Note_on_c, 3, 77, 88
4, 42969, Note_on_c, 3, 77, 0
4, 42980, Note_on_c, 3, 67, 88
4, 43208, Note_on_c, 3, 67, 0
4, 43220, Note_on_c, 3, 68, 88
4, 43927, Note_on_c, 3, 68, 0
4, 43938, Note_on_c, 3, 67, 88
4, 44045, Note_on_c, 3, 67, 0
4, 44057, Note_on_c, 3, 70, 88
4, 44166, Note_on_c, 3, 70, 0
4, 44178, Note_on_c, 3, 68, 88
4, 44285, Note_on_c, 3, 68, 0
4, 44297, Note_on_c, 3, 72, 88
4, 44406, Note_on_c, 3, 72, 0
4, 44418, Note_on_c, 3, 70, 88
4, 44523, Note_on_c, 3, 70, 0
4, 44536, Note_on_c, 3, 73, 88
4, 44645, Note_on_c, 3, 73, 0
4, 44657, Note_on_c, 3, 72, 88
4, 44763, Note_on_c, 3, 72, 0
4, 44776, Note_on_c, 3, 70, 88
4, 44884, Note_on_c, 3, 70, 0
4, 44897, Note_on_c, 3, 68, 88
4, 45002, Note_on_c, 3, 68, 0
4, 45015, Note_on_c, 3, 67, 88
4, 45124, Note_on_c, 3, 67, 0
4, 45135, Note_on_c, 3, 65, 88
4, 45241, Note_on_c, 3, 65, 0
4, 45253, Note_on_c, 3, 64, 88
4, 45363, Note_on_c, 3, 64, 0
4, 45375, Note_on_c, 3, 65, 88
4, 45493, Note_on_c, 3, 65, 0
4, 45505, Note_on_c, 3, 68, 88
4, 45614, Note_on_c, 3, 68, 0
4, 45626, Note_on_c, 3, 67, 88
4, 45732, Note_on_c, 3, 67, 0
4, 45743, Note_on_c, 3, 70, 88
4, 45853, Note_on_c, 3, 70, 0
4, 45865, Note_on_c, 3, 68, 88
4, 45972, Note_on_c, 3, 68, 0
4, 45983, Note_on_c, 3, 72, 88
4, 46092, Note_on_c, 3, 72, 0
4, 46104, Note_on_c, 3, 70, 88
4, 46211, Note_on_c, 3, 70, 0
4, 46223, Note_on_c, 3, 68, 88
4, 46331, Note_on_c, 3, 68, 0
4, 46343, Note_on_c, 3, 67, 88
4, 46450, Note_on_c, 3, 67, 0
4, 46463, Note_on_c, 3, 65, 88
4, 46571, Note_on_c, 3, 65, 0
4, 46583, Note_on_c, 3, 64, 88
4, 46690, Note_on_c, 3, 64, 0
4, 46702, Note_on_c, 3, 62, 88
4, 46811, Note_on_c, 3, 62, 0
4, 46822, Note_on_c, 3, 64, 88
4, 46929, Note_on_c, 3, 64, 0
4, 46941, Note_on_c, 3, 67, 88
4, 47052, Note_on_c, 3, 67, 0
4, 47063, Note_on_c, 3, 65, 88
4, 47169, Note_on_c, 3, 65, 0
4, 47181, Note_on_c, 3, 68, 88
4, 47290, Note_on_c, 3, 68, 0
4, 47303, Note_on_c, 3, 67, 88
4, 47407, Note_on_c, 3, 67, 0
4, 47419, Note_on_c, 3, 70, 88
4, 47529, Note_on_c, 3, 70, 0
4, 47542, Note_on_c, 3, 68, 88
4, 47647, Note_on_c, 3, 68, 0
4, 47660, Note_on_c, 3, 72, 88
4, 47768, Note_on_c, 3, 72, 0
4, 47781, Note_on_c, 3, 77, 88
4, 47886, Note_on_c, 3, 77, 0
4, 47898, Note_on_c, 3, 72, 88
4, 48007, Note_on_c, 3, 72, 0
4, 48019, Note_on_c, 3, 70, 88
4, 48126, Note_on_c, 3, 70, 0
4, 48138, Note_on_c, 3, 68, 88
4, 48247, Note_on_c, 3, 68, 0
4, 48259, Note_on_c, 3, 67, 88
4, 48366, Note_on_c, 3, 67, 0
4, 48378, Note_on_c, 3, 70, 88
4, 48486, Note_on_c, 3, 70, 0
4, 48498, Note_on_c, 3, 76, 88
4, 48605, Note_on_c, 3, 76, 0
4, 48617, Note_on_c, 3, 70, 88
4, 48725, Note_on_c, 3, 70, 0
4, 48737, Note_on_c, 3, 68, 88
4, 48844, Note_on_c, 3, 68, 0
4, 48856, Note_on_c, 3, 67, 88
4, 48965, Note_on_c, 3, 67, 0
4, 48977, Note_on_c, 3, 65, 88
4, 49203, Note_on_c, 3, 65, 0
4, 49215, Note_on_c, 3, 67, 88
4, 49443, Note_on_c, 3, 67, 0
4, 49455, Note_on_c, 3, 68, 88
4, 49683, Note_on_c, 3, 68, 0
4, 49695, Note_on_c, 3, 70, 88
4, 49923, Note_on_c, 3, 70, 0
4, 49934, Note_on_c, 3, 72, 88
4, 50162, Note_on_c, 3, 72, 0
4, 50174, Note_on_c, 3, 73, 88
4, 50414, Note_on_c, 3, 73, 0
4, 50426, Note_on_c, 3, 72, 88
4, 50651, Note_on_c, 3, 72, 0
4, 50665, Note_on_c, 3, 70, 88
4, 50892, Note_on_c, 3, 70, 0
4, 50905, Note_on_c, 3, 68, 88
4, 51131, Note_on_c, 3, 68, 0
4, 51144, Note_on_c, 3, 67, 88
4, 51370, Note_on_c, 3, 67, 0
4, 51382, Note_on_c, 3, 68, 88
4, 51610, Note_on_c, 3, 68, 0
4, 51622, Note_on_c, 3, 70, 88
4, 51850, Note_on_c, 3, 70, 0
4, 51861, Note_on_c, 3, 68, 88
4, 52087, Note_on_c, 3, 68, 0
4, 52099, Note_on_c, 3, 67, 88
4, 52329, Note_on_c, 3, 67, 0
4, 52340, Note_on_c, 3, 65, 88
4, 52567, Note_on_c, 3, 65, 0
4, 52579, Note_on_c, 3, 77, 88
4, 52807, Note_on_c, 3, 77, 0
4, 52819, Note_on_c, 3, 76, 88
4, 53047, Note_on_c, 3, 76, 0
4, 53059, Note_on_c, 3, 77, 88
4, 53286, Note_on_c, 3, 77, 0
4, 53298, Note_on_c, 3, 73, 88
4, 53524, Note_on_c, 3, 73, 0
4, 53536, Note_on_c, 3, 72, 88
4, 53763, Note_on_c, 3, 72, 0
4, 53775, Note_on_c, 3, 70, 88
4, 54002, Note_on_c, 3, 70, 0
4, 54014, Note_on_c, 3, 77, 88
4, 54244, Note_on_c, 3, 77, 0
4, 54256, Note_on_c, 3, 76, 88
4, 54484, Note_on_c, 3, 76, 0
4, 54496, Note_on_c, 3, 77, 88
4, 54723, Note_on_c, 3, 77, 0
4, 54734, Note_on_c, 3, 72, 88
4, 54974, Note_on_c, 3, 72, 0
4, 54984, Note_on_c, 3, 70, 88
4, 55213, Note_on_c, 3, 70, 0
4, 55224, Note_on_c, 3, 68, 88
4, 55451, Note_on_c, 3, 68, 0
4, 55465, Note_on_c, 3, 77, 88
4, 55692, Note_on_c, 3, 77, 0
4, 55705, Note_on_c, 3, 76, 88
4, 55931, Note_on_c, 3, 76, 0
4, 55944, Note_on_c, 3, 77, 88
4, 56170, Note_on_c, 3, 77, 0
4, 56183, Note_on_c, 3, 70, 88
4, 56408, Note_on_c, 3, 70, 0
4, 56421, Note_on_c, 3, 72, 88
4, 56650, Note_on_c, 3, 72, 0
4, 56662, Note_on_c, 3, 73, 88
4, 56888, Note_on_c, 3, 73, 0
4, 56900, Note_on_c, 3, 67, 88
4, 57126, Note_on_c, 3, 67, 0
4, 57138, Note_on_c, 3, 72, 88
4, 57367, Note_on_c, 3, 72, 0
4, 57379, Note_on_c, 3, 70, 88
4, 57606, Note_on_c, 3, 70, 0
4, 57618, Note_on_c, 3, 68, 88
4, 57725, Note_on_c, 3, 68, 0
4, 57737, Note_on_c, 3, 67, 88
4, 57845, Note_on_c, 3, 67, 0
4, 57856, Note_on_c, 3, 68, 88
4, 57964, Note_on_c, 3, 68, 0
4, 57976, Note_on_c, 3, 72, 88
4, 58085, Note_on_c, 3, 72, 0
4, 58097, Note_on_c, 3, 74, 88
4, 58205, Note_on_c, 3, 74, 0
4, 58217, Note_on_c, 3, 75, 88
4, 58326, Note_on_c, 3, 75, 0
4, 58338, Note_on_c, 3, 77, 88
4, 58445, Note_on_c, 3, 77, 0
4, 58456, Note_on_c, 3, 68, 88
4, 58564, Note_on_c, 3, 68, 0
4, 58577, Note_on_c, 3, 77, 88
4, 58683, Note_on_c, 3, 77, 0
4, 58695, Note_on_c, 3, 68, 88
4, 58804, Note_on_c, 3, 68, 0
4, 58816, Note_on_c, 3, 77, 88
4, 58922, Note_on_c, 3, 77, 0
4, 58935, Note_on_c, 3, 68, 88
4, 59044, Note_on_c, 3, 68, 0
4, 59056, Note_on_c, 3, 67, 88
4, 59161, Note_on_c, 3, 67, 0
4, 59173, Note_on_c, 3, 65, 88
4, 59281, Note_on_c, 3, 65, 0
4, 59293, Note_on_c, 3, 67, 88
4, 59401, Note_on_c, 3, 67, 0
4, 59413, Note_on_c, 3, 70, 88
4, 59524, Note_on_c, 3, 70, 0
4, 59535, Note_on_c, 3, 72, 88
4, 59652, Note_on_c, 3, 72, 0
4, 59664, Note_on_c, 3, 74, 88
4, 59774, Note_on_c, 3, 74, 0
4, 59786, Note_on_c, 3, 75, 88
4, 59892, Note_on_c, 3, 75, 0
4, 59903, Note_on_c, 3, 74, 88
4, 60011, Note_on_c, 3, 74, 0
4, 60024, Note_on_c, 3, 72, 88
4, 60132, Note_on_c, 3, 72, 0
4, 60143, Note_on_c, 3, 70, 88
4, 60252, Note_on_c, 3, 70, 0
4, 60264, Note_on_c, 3, 68, 88
4, 60371, Note_on_c, 3, 68, 0
4, 60382, Note_on_c, 3, 67, 88
4, 60491, Note_on_c, 3, 67, 0
4, 60503, Note_on_c, 3, 65, 88
4, 60610, Note_on_c, 3, 65, 0
4, 60622, Note_on_c, 3, 63, 88
4, 60729, Note_on_c, 3, 63, 0
4, 60742, Note_on_c, 3, 65, 88
4, 60849, Note_on_c, 3, 65, 0
4, 60862, Note_on_c, 3, 69, 88
4, 60971, Note_on_c, 3, 69, 0
4, 60982, Note_on_c, 3, 71, 88
4, 61090, Note_on_c, 3, 71, 0
4, 61101, Note_on_c, 3, 72, 88
4, 61210, Note_on_c, 3, 72, 0
4, 61222, Note_on_c, 3, 74, 88
4, 61330, Note_on_c, 3, 74, 0
4, 61341, Note_on_c, 3, 71, 88
4, 61449, Note_on_c, 3, 71, 0
4, 61461, Note_on_c, 3, 65, 88
4, 61568, Note_on_c, 3, 65, 0
4, 61581, Note_on_c, 3, 74, 88
4, 61689, Note_on_c, 3, 74, 0
4, 61702, Note_on_c, 3, 71, 88
4, 61807, Note_on_c, 3, 71, 0
4, 61819, Note_on_c, 3, 65, 88
4, 61928, Note_on_c, 3, 65, 0
4, 61940, Note_on_c, 3, 63, 88
4, 62407, Note_on_c, 3, 63, 0
4, 62419, Note_on_c, 3, 72, 88
4, 62646, Note_on_c, 3, 72, 0
4, 62658, Note_on_c, 3, 68, 88
4, 63125, Note_on_c, 3, 68, 0
4, 63137, Note_on_c, 3, 77, 88
4, 63365, Note_on_c, 3, 77, 0
4, 63377, Note_on_c, 3, 71, 88
4, 63844, Note_on_c, 3, 71, 0
4, 63855, Note_on_c, 3, 72, 88
4, 64335, Note_on_c, 3, 72, 0
4, 64346, Note_on_c, 3, 71, 88
4, 64454, Note_on_c, 3, 71, 0
4, 64465, Note_on_c, 3, 69, 88
4, 64574, Note_on_c, 3, 69, 0
4, 64586, Note_on_c, 3, 71, 88
4, 64813, Note_on_c, 3, 71, 0
4, 64825, Note_on_c, 3, 72, 88
4, 65649, Note_on_c, 3, 72, 0
4, 65661, Note_on_c, 3, 75, 88
4, 65770, Note_on_c, 3, 75, 0
4, 65782, Note_on_c, 3, 74, 88
4, 65888, Note_on_c, 3, 74, 0
4, 65900, Note_on_c, 3, 77, 88
4, 66010, Note_on_c, 3, 77, 0
4, 66022, Note_on_c, 3, 75, 88
4, 66128, Note_on_c, 3, 75, 0
4, 66140, Note_on_c, 3, 74, 88
4, 66249, Note_on_c, 3, 74, 0
4, 66261, Note_on_c, 3, 65, 88
4, 67086, Note_on_c, 3, 65, 0
4, 67099, Note_on_c, 3, 75, 88
4, 67207, Note_on_c, 3, 75, 0
4, 67218, Note_on_c, 3, 74, 88
4, 67326, Note_on_c, 3, 74, 0
4, 67339, Note_on_c, 3, 77, 88
4, 67446, Note_on_c, 3, 77, 0
4, 67457, Note_on_c, 3, 75, 88
4, 67565, Note_on_c, 3, 75, 0
4, 67577, Note_on_c, 3, 72, 88
4, 67685, Note_on_c, 3, 72, 0
4, 67697, Note_on_c, 3, 63, 88
4, 68522, Note_on_c, 3, 63, 0
4, 68534, Note_on_c, 3, 75, 88
4, 68643, Note_on_c, 3, 75, 0
4, 68655, Note_on_c, 3, 74, 88
4, 68761, Note_on_c, 3, 74, 0
4, 68773, Note_on_c, 3, 77, 88
4, 68882, Note_on_c, 3, 77, 0
4, 68894, Note_on_c, 3, 75, 88
4, 69000, Note_on_c, 3, 75, 0
4, 69011, Note_on_c, 3, 72, 88
4, 69133, Note_on_c, 3, 72, 0
4, 69146, Note_on_c, 3, 80, 88
4, 69251, Note_on_c, 3, 80, 0
4, 69264, Note_on_c, 3, 79, 88
4, 69373, Note_on_c, 3, 79, 0
4, 69385, Note_on_c, 3, 77, 88
4, 69491, Note_on_c, 3, 77, 0
4, 69503, Note_on_c, 3, 75, 88
4, 69612, Note_on_c, 3, 75, 0
4, 69625, Note_on_c, 3, 74, 88
4, 69733, Note_on_c, 3, 74, 0
4, 69743, Note_on_c, 3, 72, 88
4, 69852, Note_on_c, 3, 72, 0
4, 69864, Note_on_c, 3, 71, 88
4, 69970, Note_on_c, 3, 71, 0
4, 69983, Note_on_c, 3, 74, 88
4, 70092, Note_on_c, 3, 74, 0
4, 70103, Note_on_c, 3, 75, 88
4, 70210, Note_on_c, 3, 75, 0
4, 70223, Note_on_c, 3, 77, 88
4, 70331, Note_on_c, 3, 77, 0
4, 70343, Note_on_c, 3, 75, 88
4, 70449, Note_on_c, 3, 75, 0
4, 70461, Note_on_c, 3, 74, 88
4, 70570, Note_on_c, 3, 74, 0
4, 70582, Note_on_c, 3, 79, 88
4, 70690, Note_on_c, 3, 79, 0
4, 70702, Note_on_c, 3, 77, 88
4, 70810, Note_on_c, 3, 77, 0
4, 70821, Note_on_c, 3, 75, 88
4, 70929, Note_on_c, 3, 75, 0
4, 70940, Note_on_c, 3, 74, 88
4, 71049, Note_on_c, 3, 74, 0
4, 71061, Note_on_c, 3, 72, 88
4, 71168, Note_on_c, 3, 72, 0
4, 71179, Note_on_c, 3, 70, 88
4, 71288, Note_on_c, 3, 70, 0
4, 71300, Note_on_c, 3, 68, 88
4, 71407, Note_on_c, 3, 68, 0
4, 71419, Note_on_c, 3, 72, 88
4, 71526, Note_on_c, 3, 72, 0
4, 71538, Note_on_c, 3, 74, 88
4, 71646, Note_on_c, 3, 74, 0
4, 71658, Note_on_c, 3, 75, 88
4, 71767, Note_on_c, 3, 75, 0
4, 71779, Note_on_c, 3, 74, 88
4, 71885, Note_on_c, 3, 74, 0
4, 71897, Note_on_c, 3, 72, 88
4, 72006, Note_on_c, 3, 72, 0
4, 72018, Note_on_c, 3, 77, 88
4, 72843, Note_on_c, 3, 77, 0
4, 72856, Note_on_c, 3, 80, 88
4, 72963, Note_on_c, 3, 80, 0
4, 72976, Note_on_c, 3, 79, 88
4, 73082, Note_on_c, 3, 79, 0
4, 73094, Note_on_c, 3, 77, 88
4, 73204, Note_on_c, 3, 77, 0
4, 73215, Note_on_c, 3, 75, 88
4, 73321, Note_on_c, 3, 75, 0
4, 73333, Note_on_c, 3, 74, 88
4, 73443, Note_on_c, 3, 74, 0
4, 73454, Note_on_c, 3, 79, 88
4, 73682, Note_on_c, 3, 79, 0
4, 73694, Note_on_c, 3, 77, 88
4, 73812, Note_on_c, 3, 77, 0
4, 73825, Note_on_c, 3, 75, 88
4, 73933, Note_on_c, 3, 75, 0
4, 73946, Note_on_c, 3, 74, 88
4, 74052, Note_on_c, 3, 74, 0
4, 74064, Note_on_c, 3, 72, 88
4, 74172, Note_on_c, 3, 72, 0
4, 74185, Note_on_c, 3, 67, 88
4, 74410, Note_on_c, 3, 67, 0
4, 74423, Note_on_c, 3, 72, 88
4, 74651, Note_on_c, 3, 72, 0
4, 74664, Note_on_c, 3, 71, 88
4, 74890, Note_on_c, 3, 71, 0
4, 74903, Note_on_c, 3, 72, 88
4, 77764, Note_on_c, 3, 72, 0
4, 78720, End_track
5, 0, Start_track
5, 0, Program_c, 4, 0
5, 8651, Note_on_c, 4, 67, 88
5, 8891, Note_on_c, 4, 67, 0
5, 8904, Note_on_c, 4, 69, 88
5, 9130, Note_on_c, 4, 69, 0
5, 9143, Note_on_c, 4, 70, 88
5, 9370, Note_on_c, 4, 70, 0
5, 9382, Note_on_c, 4, 72, 88
5, 9609, Note_on_c, 4, 72, 0
5, 9621, Note_on_c, 4, 74, 88
5, 9850, Note_on_c, 4, 74, 0
5, 9860, Note_on_c, 4, 75, 88
5, 10089, Note_on_c, 4, 75, 0
5, 10100, Note_on_c, 4, 74, 88
5, 10327, Note_on_c, 4, 74, 0
5, 10339, Note_on_c, 4, 72, 88
5, 10567, Note_on_c, 4, 72, 0
5, 10579, Note_on_c, 4, 70, 88
5, 10806, Note_on_c, 4, 70, 0
5, 10818, Note_on_c, 4, 69, 88
5, 11044, Note_on_c, 4, 69, 0
5, 11056, Note_on_c, 4, 70, 88
5, 11284, Note_on_c, 4, 70, 0
5, 11297, Note_on_c, 4, 72, 88
5, 11524, Note_on_c, 4, 72, 0
5, 11537, Note_on_c, 4, 70, 88
5, 11764, Note_on_c, 4, 70, 0
5, 11776, Note_on_c, 4, 69, 88
5, 12003, Note_on_c, 4, 69, 0
5, 12015, Note_on_c, 4, 67, 88
5, 12242, Note_on_c, 4, 67, 0
5, 12254, Note_on_c, 4, 79, 88
5, 12482, Note_on_c, 4, 79, 0
5, 12495, Note_on_c, 4, 78, 88
5, 12734, Note_on_c, 4, 78, 0
5, 12746, Note_on_c, 4, 79, 88
5, 12973, Note_on_c, 4, 79, 0
5, 12986, Note_on_c, 4, 75, 88
5, 13211, Note_on_c, 4, 75, 0
5, 13224, Note_on_c, 4, 74, 88
5, 13451, Note_on_c, 4, 74, 0
5, 13463, Note_on_c, 4, 72, 88
5, 13690, Note_on_c, 4, 72, 0
5, 13702, Note_on_c, 4, 79, 88
5, 13931, Note_on_c, 4, 79, 0
5, 13942, Note_on_c, 4, 78, 88
5, 14170, Note_on_c, 4, 78, 0
5, 14182, Note_on_c, 4, 79, 88
5, 14409, Note_on_c, 4, 79, 0
5, 14422, Note_on_c, 4, 74, 88
5, 14647, Note_on_c, 4, 74, 0
5, 14661, Note_on_c, 4, 72, 88
5, 14887, Note_on_c, 4, 72, 0
5, 14899, Note_on_c, 4, 70, 88
5, 15126, Note_on_c, 4, 70, 0
5, 15138, Note_on_c, 4, 79, 88
5, 15367, Note_on_c, 4, 79, 0
5, 15378, Note_on_c, 4, 78, 88
5, 15607, Note_on_c, 4, 78, 0
5, 15619, Note_on_c, 4, 79, 88
5, 15846, Note_on_c, 4, 79, 0
5, 15858, Note_on_c, 4, 72, 88
5, 16084, Note_on_c, 4, 72, 0
5, 16096, Note_on_c, 4, 74, 88
5, 16324, Note_on_c, 4, 74, 0
5, 16338, Note_on_c, 4, 75, 88
5, 16563, Note_on_c, 4, 75, 0
5, 16575, Note_on_c, 4, 69, 88
5, 16802, Note_on_c, 4, 69, 0
5, 16815, Note_on_c, 4, 74, 88
5, 17042, Note_on_c, 4, 74, 0
5, 17054, Note_on_c, 4, 72, 88
5, 17294, Note_on_c, 4, 72, 0
5, 17306, Note_on_c, 4, 70, 88
5, 17412, Note_on_c, 4, 70, 0
5, 17425, Note_on_c, 4, 74, 88
5, 17532, Note_on_c, 4, 74, 0
5, 17546, Note_on_c, 4, 72, 88
5, 17652, Note_on_c, 4, 72, 0
5, 17664, Note_on_c, 4, 75, 88
5, 17772, Note_on_c, 4, 75, 0
5, 17784, Note_on_c, 4, 74, 88
5, 17892, Note_on_c, 4, 74, 0
5, 17905, Note_on_c, 4, 77, 88
5, 18013, Note_on_c, 4, 77, 0
5, 18024, Note_on_c, 4, 75, 88
5, 18971, Note_on_c, 4, 75, 0
5, 18982, Note_on_c, 4, 74, 88
5, 19210, Note_on_c, 4, 74, 0
5, 19222, Note_on_c, 4, 72, 88
5, 19449, Note_on_c, 4, 72, 0
5, 19462, Note_on_c, 4, 74, 88
5, 20406, Note_on_c, 4, 74, 0
5, 20418, Note_on_c, 4, 72, 88
5, 20645, Note_on_c, 4, 72, 0
5, 20657, Note_on_c, 4, 71, 88
5, 20884, Note_on_c, 4, 71, 0
5, 20896, Note_on_c, 4, 72, 88
5, 21124, Note_on_c, 4, 72, 0
5, 21136, Note_on_c, 4, 74, 88
5, 21363, Note_on_c, 4, 74, 0
5, 21375, Note_on_c, 4, 75, 88
5, 21603, Note_on_c, 4, 75, 0
5, 21615, Note_on_c, 4, 77, 88
5, 21842, Note_on_c, 4, 77, 0
5, 21854, Note_on_c, 4, 79, 88
5, 22096, Note_on_c, 4, 79, 0
5, 22107, Note_on_c, 4, 80, 88
5, 22334, Note_on_c, 4, 80, 0
5, 22346, Note_on_c, 4, 74, 88
5, 22572, Note_on_c, 4, 74, 0
5, 22583, Note_on_c, 4, 79, 88
5, 22813, Note_on_c, 4, 79, 0
5, 22825, Note_on_c, 4, 77, 88
5, 23053, Note_on_c, 4, 77, 0
5, 23064, Note_on_c, 4, 75, 88
5, 23290, Note_on_c, 4, 75, 0
5, 23302, Note_on_c, 4, 77, 88
5, 23530, Note_on_c, 4, 77, 0
5, 23542, Note_on_c, 4, 79, 88
5, 23769, Note_on_c, 4, 79, 0
5, 23782, Note_on_c, 4, 68, 88
5, 24008, Note_on_c, 4, 68, 0
5, 24020, Note_on_c, 4, 77, 88
5, 24248, Note_on_c, 4, 77, 0
5, 24260, Note_on_c, 4, 75, 88
5, 24488, Note_on_c, 4, 75, 0
5, 24500, Note_on_c, 4, 74, 88
5, 24727, Note_on_c, 4, 74, 0
5, 24739, Note_on_c, 4, 75, 88
5, 24968, Note_on_c, 4, 75, 0
5, 24978, Note_on_c, 4, 77, 88
5, 25207, Note_on_c, 4, 77, 0
5, 25218, Note_on_c, 4, 70, 88
5, 25445, Note_on_c, 4, 70, 0
5, 25457, Note_on_c, 4, 75, 88
5, 25686, Note_on_c, 4, 75, 0
5, 25698, Note_on_c, 4, 73, 88
5, 25924, Note_on_c, 4, 73, 0
5, 25937, Note_on_c, 4, 72, 88
5, 26642, Note_on_c, 4, 72, 0
5, 26653, Note_on_c, 4, 74, 88
5, 27372, Note_on_c, 4, 74, 0
5, 27384, Note_on_c, 4, 75, 88
5, 27611, Note_on_c, 4, 75, 0
5, 27623, Note_on_c, 4, 74, 88
5, 27850, Note_on_c, 4, 74, 0
5, 27863, Note_on_c, 4, 72, 88
5, 28090, Note_on_c, 4, 72, 0
5, 28103, Note_on_c, 4, 70, 88
5, 28329, Note_on_c, 4, 70, 0
5, 28341, Note_on_c, 4, 72, 88
5, 28571, Note_on_c, 4, 72, 0
5, 28582, Note_on_c, 4, 68, 88
5, 28809, Note_on_c, 4, 68, 0
5, 28820, Note_on_c, 4, 67, 88
5, 29287, Note_on_c, 4, 67, 0
5, 31694, Note_on_c, 4, 63, 88
5, 31931, Note_on_c, 4, 63, 0
5, 31944, Note_on_c, 4, 65, 88
5, 32170, Note_on_c, 4, 65, 0
5, 32184, Note_on_c, 4, 67, 88
5, 32409, Note_on_c, 4, 67, 0
5, 32423, Note_on_c, 4, 68, 88
5, 32651, Note_on_c, 4, 68, 0
5, 32663, Note_on_c, 4, 70, 88
5, 32891, Note_on_c, 4, 70, 0
5, 32903, Note_on_c, 4, 72, 88
5, 33131, Note_on_c, 4, 72, 0
5, 33143, Note_on_c, 4, 70, 88
5, 33368, Note_on_c, 4, 70, 0
5, 33380, Note_on_c, 4, 68, 88
5, 33608, Note_on_c, 4, 68, 0
5, 33622, Note_on_c, 4, 67, 88
5, 33847, Note_on_c, 4, 67, 0
5, 33860, Note_on_c, 4, 65, 88
5, 34086, Note_on_c, 4, 65, 0
5, 34098, Note_on_c, 4, 67, 88
5, 34326, Note_on_c, 4, 67, 0
5, 34338, Note_on_c, 4, 68, 88
5, 34566, Note_on_c, 4, 68, 0
5, 34578, Note_on_c, 4, 67, 88
5, 34804, Note_on_c, 4, 67, 0
5, 34816, Note_on_c, 4, 69, 88
5, 35044, Note_on_c, 4, 69, 0
5, 35056, Note_on_c, 4, 70, 88
5, 35284, Note_on_c, 4, 70, 0
5, 35295, Note_on_c, 4, 72, 88
5, 35523, Note_on_c, 4, 72, 0
5, 35535, Note_on_c, 4, 74, 88
5, 35764, Note_on_c, 4, 74, 0
5, 35775, Note_on_c, 4, 75, 88
5, 36003, Note_on_c, 4, 75, 0
5, 36015, Note_on_c, 4, 74, 88
5, 36253, Note_on_c, 4, 74, 0
5, 36265, Note_on_c, 4, 72, 88
5, 36493, Note_on_c, 4, 72, 0
5, 36507, Note_on_c, 4, 70, 88
5, 36732, Note_on_c, 4, 70, 0
5, 36745, Note_on_c, 4, 69, 88
5, 36971, Note_on_c, 4, 69, 0
5, 36984, Note_on_c, 4, 70, 88
5, 37211, Note_on_c, 4, 70, 0
5, 37223, Note_on_c, 4, 72, 88
5, 37452, Note_on_c, 4, 72, 0
5, 37462, Note_on_c, 4, 70, 88
5, 37689, Note_on_c, 4, 70, 0
5, 37701, Note_on_c, 4, 72, 88
5, 37929, Note_on_c, 4, 72, 0
5, 37941, Note_on_c, 4, 74, 88
5, 38169, Note_on_c, 4, 74, 0
5, 38181, Note_on_c, 4, 75, 88
5, 38409, Note_on_c, 4, 75, 0
5, 38422, Note_on_c, 4, 77, 88
5, 38648, Note_on_c, 4, 77, 0
5, 38660, Note_on_c, 4, 79, 88
5, 38886, Note_on_c, 4, 79, 0
5, 38900, Note_on_c, 4, 77, 88
5, 39126, Note_on_c, 4, 77, 0
5, 39138, Note_on_c, 4, 75, 88
5, 39366, Note_on_c, 4, 75, 0
5, 39378, Note_on_c, 4, 74, 88
5, 39605, Note_on_c, 4, 74, 0
5, 39617, Note_on_c, 4, 72, 88
5, 39843, Note_on_c, 4, 72, 0
5, 39855, Note_on_c, 4, 74, 88
5, 40083, Note_on_c, 4, 74, 0
5, 40095, Note_on_c, 4, 75, 88
5, 40324, Note_on_c, 4, 75, 0
5, 40335, Note_on_c, 4, 74, 88
5, 40443, Note_on_c, 4, 74, 0
5, 40455, Note_on_c, 4, 77, 88
5, 40564, Note_on_c, 4, 77, 0
5, 40575, Note_on_c, 4, 75, 88
5, 40682, Note_on_c, 4, 75, 0
5, 40694, Note_on_c, 4, 79, 88
5, 40815, Note_on_c, 4, 79, 0
5, 40826, Note_on_c, 4, 77, 88
5, 40934, Note_on_c, 4, 77, 0
5, 40945, Note_on_c, 4, 80, 88
5, 41055, Note_on_c, 4, 80, 0
5, 41067, Note_on_c, 4, 79, 88
5, 41533, Note_on_c, 4, 79, 0
5, 41546, Note_on_c, 4, 70, 88
5, 41772, Note_on_c, 4, 70, 0
5, 41786, Note_on_c, 4, 68, 88
5, 42011, Note_on_c, 4, 68, 0
5, 42023, Note_on_c, 4, 67, 88
5, 42250, Note_on_c, 4, 67, 0
5, 42262, Note_on_c, 4, 68, 88
5, 42492, Note_on_c, 4, 68, 0
5, 42503, Note_on_c, 4, 68, 88
5, 42729, Note_on_c, 4, 68, 0
5, 42741, Note_on_c, 4, 77, 88
5, 42969, Note_on_c, 4, 77, 0
5, 42982, Note_on_c, 4, 67, 88
5, 43208, Note_on_c, 4, 67, 0
5, 43220, Note_on_c, 4, 68, 88
5, 43927, Note_on_c, 4, 68, 0
5, 43938, Note_on_c, 4, 67, 88
5, 44046, Note_on_c, 4, 67, 0
5, 44058, Note_on_c, 4, 70, 88
5, 44167, Note_on_c, 4, 70, 0
5, 44178, Note_on_c, 4, 68, 88
5, 44286, Note_on_c, 4, 68, 0
5, 44298, Note_on_c, 4, 72, 88
5, 44406, Note_on_c, 4, 72, 0
5, 44418, Note_on_c, 4, 70, 88
5, 44524, Note_on_c, 4, 70, 0
5, 44537, Note_on_c, 4, 73, 88
5, 44646, Note_on_c, 4, 73, 0
5, 44658, Note_on_c, 4, 72, 88
5, 44763, Note_on_c, 4, 72, 0
5, 44776, Note_on_c, 4, 70, 88
5, 44885, Note_on_c, 4, 70, 0
5, 44898, Note_on_c, 4, 68, 88
5, 45003, Note_on_c, 4, 68, 0
5, 45015, Note_on_c, 4, 67, 88
5, 45124, Note_on_c, 4, 67, 0
5, 45136, Note_on_c, 4, 65, 88
5, 45242, Note_on_c, 4, 65, 0
5, 45254, Note_on_c, 4, 64, 88
5, 45363, Note_on_c, 4, 64, 0
5, 45375, Note_on_c, 4, 65, 88
5, 45494, Note_on_c, 4, 65, 0
5, 45506, Note_on_c, 4, 68, 88
5, 45615, Note_on_c, 4, 68, 0
5, 45627, Note_on_c, 4, 67, 88
5, 45733, Note_on_c, 4, 67, 0
5, 45744, Note_on_c, 4, 70, 88
5, 45853, Note_on_c, 4, 70, 0
5, 45865, Note_on_c, 4, 68, 88
5, 45972, Note_on_c, 4, 68, 0
5, 45983, Note_on_c, 4, 72, 88
5, 46092, Note_on_c, 4, 72, 0
5, 46104, Note_on_c, 4, 70, 88
5, 46212, Note_on_c, 4, 70, 0
5, 46223, Note_on_c, 4, 68, 88
5, 46331, Note_on_c, 4, 68, 0
5, 46343, Note_on_c, 4, 67, 88
5, 46451, Note_on_c, 4, 67, 0
5, 46463, Note_on_c, 4, 65, 88
5, 46571, Note_on_c, 4, 65, 0
5, 46583, Note_on_c, 4, 64, 88
5, 46690, Note_on_c, 4, 64, 0
5, 46703, Note_on_c, 4, 62, 88
5, 46811, Note_on_c, 4, 62, 0
5, 46822, Note_on_c, 4, 64, 88
5, 46930, Note_on_c, 4, 64, 0
5, 46942, Note_on_c, 4, 67, 88
5, 47052, Note_on_c, 4, 67, 0
5, 47063, Note_on_c, 4, 65, 88
5, 47170, Note_on_c, 4, 65, 0
5, 47182, Note_on_c, 4, 68, 88
5, 47291, Note_on_c, 4, 68, 0
5, 47303, Note_on_c, 4, 67, 88
5, 47408, Note_on_c, 4, 67, 0
5, 47420, Note_on_c, 4, 70, 88
5, 47529, Note_on_c, 4, 70, 0
5, 47543, Note_on_c, 4, 68, 88
5, 47647, Note_on_c, 4, 68, 0
5, 47660, Note_on_c, 4, 72, 88
5, 47769, Note_on_c, 4, 72, 0
5, 47782, Note_on_c, 4, 77, 88
5, 47887, Note_on_c, 4, 77, 0
5, 47899, Note_on_c, 4, 72, 88
5, 48008, Note_on_c, 4, 72, 0
5, 48020, Note_on_c, 4, 70, 88
5, 48127, Note_on_c, 4, 70, 0
5, 48139, Note_on_c, 4, 68, 88
5, 48247, Note_on_c, 4, 68, 0
5, 48259, Note_on_c, 4, 67, 88
5, 48366, Note_on_c, 4, 67, 0
5, 48378, Note_on_c, 4, 70, 88
5, 48486, Note_on_c, 4, 70, 0
5, 48498, Note_on_c, 4, 76, 88
5, 48605, Note_on_c, 4, 76, 0
5, 48617, Note_on_c, 4, 70, 88
5, 48725, Note_on_c, 4, 70, 0
5, 48737, Note_on_c, 4, 68, 88
5, 48844, Note_on_c, 4, 68, 0
5, 48856, Note_on_c, 4, 67, 88
5, 48965, Note_on_c, 4, 67, 0
5, 48977, Note_on_c, 4, 65, 88
5, 49204, Note_on_c, 4, 65, 0
5, 49216, Note_on_c, 4, 67, 88
5, 49444, Note_on_c, 4, 67, 0
5, 49456, Note_on_c, 4, 68, 88
5, 49684, Note_on_c, 4, 68, 0
5, 49696, Note_on_c, 4, 70, 88
5, 49923, Note_on_c, 4, 70, 0
5, 49935, Note_on_c, 4, 72, 88
5, 50163, Note_on_c, 4, 72, 0
5, 50174, Note_on_c, 4, 73, 88
5, 50415, Note_on_c, 4, 73, 0
5, 50427, Note_on_c, 4, 72, 88
5, 50652, Note_on_c, 4, 72, 0
5, 50666, Note_on_c, 4, 70, 88
5, 50893, Note_on_c, 4, 70, 0
5, 50906, Note_on_c, 4, 68, 88
5, 51132, Note_on_c, 4, 68, 0
5, 51145, Note_on_c, 4, 67, 88
5, 51370, Note_on_c, 4, 67, 0
5, 51382, Note_on_c, 4, 68, 88
5, 51610, Note_on_c, 4, 68, 0
5, 51622, Note_on_c, 4, 70, 88
5, 51850, Note_on_c, 4, 70, 0
5, 51861, Note_on_c, 4, 68, 88
5, 52088, Note_on_c, 4, 68, 0
5, 52100, Note_on_c, 4, 67, 88
5, 52329, Note_on_c, 4, 67, 0
5, 52340, Note_on_c, 4, 65, 88
5, 52568, Note_on_c, 4, 65, 0
5, 52579, Note_on_c, 4, 77, 88
5, 52808, Note_on_c, 4, 77, 0
5, 52819, Note_on_c, 4, 76, 88
5, 53047, Note_on_c, 4, 76, 0
5, 53059, Note_on_c, 4, 77, 88
5, 53287, Note_on_c, 4, 77, 0
5, 53299, Note_on_c, 4, 73, 88
5, 53524, Note_on_c, 4, 73, 0
5, 53536, Note_on_c, 4, 72, 88
5, 53763, Note_on_c, 4, 72, 0
5, 53775, Note_on_c, 4, 70, 88
5, 54003, Note_on_c, 4, 70, 0
5, 54015, Note_on_c, 4, 77, 88
5, 54244, Note_on_c, 4, 77, 0
5, 54256, Note_on_c, 4, 76, 88
5, 54484, Note_on_c, 4, 76, 0
5, 54496, Note_on_c, 4, 77, 88
5, 54723, Note_on_c, 4, 77, 0
5, 54734, Note_on_c, 4, 72, 88
5, 54974, Note_on_c, 4, 72, 0
5, 54985, Note_on_c, 4, 70, 88
5, 55213, Note_on_c, 4, 70, 0
5, 55224, Note_on_c, 4, 68, 88
5, 55452, Note_on_c, 4, 68, 0
5, 55466, Note_on_c, 4, 77, 88
5, 55693, Note_on_c, 4, 77, 0
5, 55706, Note_on_c, 4, 76, 88
5, 55932, Note_on_c, 4, 76, 0
5, 55944, Note_on_c, 4, 77, 88
5, 56171, Note_on_c, 4, 77, 0
5, 56184, Note_on_c, 4, 70, 88
5, 56409, Note_on_c, 4, 70, 0
5, 56422, Note_on_c, 4, 72, 88
5, 56650, Note_on_c, 4, 72, 0
5, 56662, Note_on_c, 4, 73, 88
5, 56891, Note_on_c, 4, 73, 0
5, 56903, Note_on_c, 4, 67, 88
5, 57127, Note_on_c, 4, 67, 0
5, 57139, Note_on_c, 4, 72, 88
5, 57367, Note_on_c, 4, 72, 0
5, 57380, Note_on_c, 4, 70, 88
5, 57606, Note_on_c, 4, 70, 0
5, 57618, Note_on_c, 4, 68, 88
5, 57726, Note_on_c, 4, 68, 0
5, 57738, Note_on_c, 4, 67, 88
5, 57845, Note_on_c, 4, 67, 0
5, 57857, Note_on_c, 4, 68, 88
5, 57965, Note_on_c, 4, 68, 0
5, 57977, Note_on_c, 4, 72, 88
5, 58085, Note_on_c, 4, 72, 0
5, 58097, Note_on_c, 4, 74, 88
5, 58205, Note_on_c, 4, 74, 0
5, 58217, Note_on_c, 4, 75, 88
5, 58326, Note_on_c, 4, 75, 0
5, 58338, Note_on_c, 4, 77, 88
5, 58445, Note_on_c, 4, 77, 0
5, 58457, Note_on_c, 4, 68, 88
5, 58564, Note_on_c, 4, 68, 0
5, 58577, Note_on_c, 4, 77, 88
5, 58683, Note_on_c, 4, 77, 0
5, 58695, Note_on_c, 4, 68, 88
5, 58805, Note_on_c, 4, 68, 0
5, 58816, Note_on_c, 4, 77, 88
5, 58923, Note_on_c, 4, 77, 0
5, 58935, Note_on_c, 4, 68, 88
5, 59044, Note_on_c, 4, 68, 0
5, 59056, Note_on_c, 4, 67, 88
5, 59162, Note_on_c, 4, 67, 0
5, 59174, Note_on_c, 4, 65, 88
5, 59282, Note_on_c, 4, 65, 0
5, 59294, Note_on_c, 4, 67, 88
5, 59402, Note_on_c, 4, 67, 0
5, 59414, Note_on_c, 4, 70, 88
5, 59524, Note_on_c, 4, 70, 0
5, 59535, Note_on_c, 4, 72, 88
5, 59653, Note_on_c, 4, 72, 0
5, 59665, Note_on_c, 4, 74, 88
5, 59775, Note_on_c, 4, 74, 0
5, 59787, Note_on_c, 4, 75, 88
5, 59893, Note_on_c, 4, 75, 0
5, 59904, Note_on_c, 4, 74, 88
5, 60012, Note_on_c, 4, 74, 0
5, 60025, Note_on_c, 4, 72, 88
5, 60132, Note_on_c, 4, 72, 0
5, 60143, Note_on_c, 4, 70, 88
5, 60252, Note_on_c, 4, 70, 0
5, 60264, Note_on_c, 4, 68, 88
5, 60372, Note_on_c, 4, 68, 0
5, 60383, Note_on_c, 4, 67, 88
5, 60491, Note_on_c, 4, 67, 0
5, 60503, Note_on_c, 4, 65, 88
5, 60611, Note_on_c, 4, 65, 0
5, 60623, Note_on_c, 4, 63, 88
5, 60730, Note_on_c, 4, 63, 0
5, 60743, Note_on_c, 4, 65, 88
5, 60850, Note_on_c, 4, 65, 0
5, 60863, Note_on_c, 4, 69, 88
5, 60971, Note_on_c, 4, 69, 0
5, 60982, Note_on_c, 4, 71, 88
5, 61090, Note_on_c, 4, 71, 0
5, 61102, Note_on_c, 4, 72, 88
5, 61210, Note_on_c, 4, 72, 0
5, 61222, Note_on_c, 4, 74, 88
5, 61330, Note_on_c, 4, 74, 0
5, 61342, Note_on_c, 4, 71, 88
5, 61449, Note_on_c, 4, 71, 0
5, 61461, Note_on_c, 4, 65, 88
5, 61569, Note_on_c, 4, 65, 0
5, 61581, Note_on_c, 4, 74, 88
5, 61690, Note_on_c, 4, 74, 0
5, 61702, Note_on_c, 4, 71, 88
5, 61808, Note_on_c, 4, 71, 0
5, 61820, Note_on_c, 4, 65, 88
5, 61930, Note_on_c, 4, 65, 0
5, 61940, Note_on_c, 4, 63, 88
5, 62408, Note_on_c, 4, 63, 0
5, 62420, Note_on_c, 4, 72, 88
5, 62646, Note_on_c, 4, 72, 0
5, 62659, Note_on_c, 4, 68, 88
5, 63125, Note_on_c, 4, 68, 0
5, 63137, Note_on_c, 4, 77, 88
5, 63365, Note_on_c, 4, 77, 0
5, 63378, Note_on_c, 4, 71, 88
5, 63844, Note_on_c, 4, 71, 0
5, 63855, Note_on_c, 4, 72, 88
5, 64335, Note_on_c, 4, 72, 0
5, 64346, Note_on_c, 4, 71, 88
5, 64454, Note_on_c, 4, 71, 0
5, 64466, Note_on_c, 4, 69, 88
5, 64574, Note_on_c, 4, 69, 0
5, 64586, Note_on_c, 4, 71, 88
5, 64813, Note_on_c, 4, 71, 0
5, 64826, Note_on_c, 4, 72, 88
5, 65650, Note_on_c, 4, 72, 0
5, 65662, Note_on_c, 4, 75, 88
5, 65773, Note_on_c, 4, 75, 0
5, 65783, Note_on_c, 4, 74, 88
5, 65889, Note_on_c, 4, 74, 0
5, 65901, Note_on_c, 4, 77, 88
5, 66010, Note_on_c, 4, 77, 0
5, 66022, Note_on_c, 4, 75, 88
5, 66128, Note_on_c, 4, 75, 0
5, 66140, Note_on_c, 4, 74, 88
5, 66249, Note_on_c, 4, 74, 0
5, 66261, Note_on_c, 4, 65, 88
5, 67087, Note_on_c, 4, 65, 0
5, 67100, Note_on_c, 4, 75, 88
5, 67207, Note_on_c, 4, 75, 0
5, 67218, Note_on_c, 4, 74, 88
5, 67326, Note_on_c, 4, 74, 0
5, 67339, Note_on_c, 4, 77, 88
5, 67447, Note_on_c, 4, 77, 0
5, 67457, Note_on_c, 4, 75, 88
5, 67566, Note_on_c, 4, 75, 0
5, 67578, Note_on_c, 4, 72, 88
5, 67686, Note_on_c, 4, 72, 0
5, 67697, Note_on_c, 4, 63, 88
5, 68522, Note_on_c, 4, 63, 0
5, 68534, Note_on_c, 4, 75, 88
5, 68643, Note_on_c, 4, 75, 0
5, 68656, Note_on_c, 4, 74, 88
5, 68762, Note_on_c, 4, 74, 0
5, 68774, Note_on_c, 4, 77, 88
5, 68882, Note_on_c, 4, 77, 0
5, 68894, Note_on_c, 4, 75, 88
5, 69000, Note_on_c, 4, 75, 0
5, 69012, Note_on_c, 4, 72, 88
5, 69133, Note_on_c, 4, 72, 0
5, 69146, Note_on_c, 4, 80, 88
5, 69252, Note_on_c, 4, 80, 0
5, 69265, Note_on_c, 4, 79, 88
5, 69373, Note_on_c, 4, 79, 0
5, 69385, Note_on_c, 4, 77, 88
5, 69492, Note_on_c, 4, 77, 0
5, 69504, Note_on_c, 4, 75, 88
5, 69612, Note_on_c, 4, 75, 0
5, 69625, Note_on_c, 4, 74, 88
5, 69733, Note_on_c, 4, 74, 0
5, 69743, Note_on_c, 4, 72, 88
5, 69852, Note_on_c, 4, 72, 0
5, 69864, Note_on_c, 4, 71, 88
5, 69971, Note_on_c, 4, 71, 0
5, 69983, Note_on_c, 4, 74, 88
5, 70092, Note_on_c, 4, 74, 0
5, 70103, Note_on_c, 4, 75, 88
5, 70210, Note_on_c, 4, 75, 0
5, 70223, Note_on_c, 4, 77, 88
5, 70331, Note_on_c, 4, 77, 0
5, 70343, Note_on_c, 4, 75, 88
5, 70450, Note_on_c, 4, 75, 0
5, 70462, Note_on_c, 4, 74, 88
5, 70570, Note_on_c, 4, 74, 0
5, 70583, Note_on_c, 4, 79, 88
5, 70690, Note_on_c, 4, 79, 0
5, 70702, Note_on_c, 4, 77, 88
5, 70811, Note_on_c, 4, 77, 0
5, 70823, Note_on_c, 4, 75, 88
5, 70930, Note_on_c, 4, 75, 0
5, 70941, Note_on_c, 4, 74, 88
5, 71050, Note_on_c, 4, 74, 0
5, 71061, Note_on_c, 4, 72, 88
5, 71169, Note_on_c, 4, 72, 0
5, 71179, Note_on_c, 4, 70, 88
5, 71289, Note_on_c, 4, 70, 0
5, 71302, Note_on_c, 4, 68, 88
5, 71408, Note_on_c, 4, 68, 0
5, 71420, Note_on_c, 4, 72, 88
5, 71527, Note_on_c, 4, 72, 0
5, 71539, Note_on_c, 4, 74, 88
5, 71647, Note_on_c, 4, 74, 0
5, 71659, Note_on_c, 4, 75, 88
5, 71767, Note_on_c, 4, 75, 0
5, 71779, Note_on_c, 4, 74, 88
5, 71886, Note_on_c, 4, 74, 0
5, 71898, Note_on_c, 4, 72, 88
5, 72006, Note_on_c, 4, 72, 0
5, 72019, Note_on_c, 4, 77, 88
5, 72844, Note_on_c, 4, 77, 0
5, 72856, Note_on_c, 4, 80, 88
5, 72964, Note_on_c, 4, 80, 0
5, 72977, Note_on_c, 4, 79, 88
5, 73083, Note_on_c, 4, 79, 0
5, 73095, Note_on_c, 4, 77, 88
5, 73205, Note_on_c, 4, 77, 0
5, 73215, Note_on_c, 4, 75, 88
5, 73322, Note_on_c, 4, 75, 0
5, 73334, Note_on_c, 4, 74, 88
5, 73444, Note_on_c, 4, 74, 0
5, 73455, Note_on_c, 4, 79, 88
5, 73683, Note_on_c, 4, 79, 0
5, 73695, Note_on_c, 4, 77, 88
5, 73812, Note_on_c, 4, 77, 0
5, 73825, Note_on_c, 4, 75, 88
5, 73934, Note_on_c, 4, 75, 0
5, 73947, Note_on_c, 4, 74, 88
5, 74053, Note_on_c, 4, 74, 0
5, 74065, Note_on_c, 4, 72, 88
5, 74173, Note_on_c, 4, 72, 0
5, 74186, Note_on_c, 4, 67, 88
5, 74411, Note_on_c, 4, 67, 0
5, 74424, Note_on_c, 4, 72, 88
5, 74651, Note_on_c, 4, 72, 0
5, 74664, Note_on_c, 4, 71, 88
5, 74890, Note_on_c, 4, 71, 0
5, 74903, Note_on_c, 4, 72, 88
5, 77764, Note_on_c, 4, 72, 0
5, 78720, End_track
0, 0, End_of_file
