0, 0, Header, 1, 5, 480
1, 0, Start_track
1, 0, SMPTE_offset, 96, 0, 0, 0, 0
1, 0, Tempo, 526352
1, 0, Time_signature, 4, 2, 24, 8
1, 222720, End_track
2, 0, Start_track
2, 0, Program_c, 1, 0
2, 0, Program_c, 1, 0
2, 729, Note_on_c, 1, 74, 72
2, 968, Note_on_c, 1, 74, 0
2, 978, Note_on_c, 1, 70, 72
2, 1087, Note_on_c, 1, 70, 0
2, 1097, Note_on_c, 1, 72, 72
2, 1207, Note_on_c, 1, 72, 0
2, 1217, Note_on_c, 1, 69, 72
2, 1328, Note_on_c, 1, 69, 0
2, 1338, Note_on_c, 1, 70, 72
2, 1447, Note_on_c, 1, 70, 0
2, 1457, Note_on_c, 1, 67, 72
2, 1686, Note_on_c, 1, 67, 0
2, 1697, Note_on_c, 1, 79, 72
2, 1925, Note_on_c, 1, 79, 0
2, 1935, Note_on_c, 1, 78, 72
2, 2045, Note_on_c, 1, 78, 0
2, 2055, Note_on_c, 1, 79, 72
2, 2165, Note_on_c, 1, 79, 0
2, 2175, Note_on_c, 1, 76, 72
2, 2285, Note_on_c, 1, 76, 0
2, 2295, Note_on_c, 1, 78, 72
2, 2405, Note_on_c, 1, 78, 0
2, 2415, Note_on_c, 1, 74, 72
2, 2643, Note_on_c, 1, 74, 0
2, 2653, Note_on_c, 1, 79, 72
2, 2763, Note_on_c, 1, 79, 0
2, 2773, Note_on_c, 1, 74, 72
2, 2883, Note_on_c, 1, 74, 0
2, 2893, Note_on_c, 1, 75, 72
2, 3122, Note_on_c, 1, 75, 0
2, 3132, Note_on_c, 1, 72, 72
2, 3363, Note_on_c, 1, 72, 0
2, 3372, Note_on_c, 1, 65, 72
2, 3601, Note_on_c, 1, 65, 0
2, 3611, Note_on_c, 1, 77, 72
2, 3841, Note_on_c, 1, 77, 0
2, 3851, Note_on_c, 1, 74, 72
2, 3970, Note_on_c, 1, 74, 0
2, 3980, Note_on_c, 1, 75, 72
2, 4090, Note_on_c, 1, 75, 0
2, 4101, Note_on_c, 1, 72, 72
2, 4210, Note_on_c, 1, 72, 0
2, 4220, Note_on_c, 1, 74, 72
2, 4329, Note_on_c, 1, 74, 0
2, 4339, Note_on_c, 1, 70, 72
2, 4569, Note_on_c, 1, 70, 0
2, 4579, Note_on_c, 1, 75, 72
2, 4688, Note_on_c, 1, 75, 0
2, 4698, Note_on_c, 1, 70, 72
2, 4808, Note_on_c, 1, 70, 0
2, 4819, Note_on_c, 1, 72, 72
2, 5048, Note_on_c, 1, 72, 0
2, 5058, Note_on_c, 1, 69, 72
2, 5287, Note_on_c, 1, 69, 0
2, 5297, Note_on_c, 1, 62, 72
2, 5527, Note_on_c, 1, 62, 0
2, 5537, Note_on_c, 1, 74, 72
2, 5766, Note_on_c, 1, 74, 0
2, 5776, Note_on_c, 1, 70, 72
2, 5885, Note_on_c, 1, 70, 0
2, 5895, Note_on_c, 1, 72, 72
2, 6005, Note_on_c, 1, 72, 0
2, 6015, Note_on_c, 1, 69, 72
2, 6124, Note_on_c, 1, 69, 0
2, 6134, Note_on_c, 1, 70, 72
2, 6245, Note_on_c, 1, 70, 0
2, 6255, Note_on_c, 1, 67, 72
2, 6364, Note_on_c, 1, 67, 0
2, 6374, Note_on_c, 1, 69, 72
2, 6484, Note_on_c, 1, 69, 0
2, 6494, Note_on_c, 1, 70, 40
2, 6604, Note_on_c, 1, 70, 0
2, 6615, Note_on_c, 1, 72, 40
2, 6724, Note_on_c, 1, 72, 0
2, 6734, Note_on_c, 1, 74, 40
2, 6962, Note_on_c, 1, 74, 0
2, 6972, Note_on_c, 1, 76, 40
2, 7202, Note_on_c, 1, 76, 0
2, 7212, Note_on_c, 1, 77, 40
2, 7322, Note_on_c, 1, 77, 0
2, 7332, Note_on_c, 1, 79, 40
2, 7442, Note_on_c, 1, 79, 0
2, 7451, Note_on_c, 1, 77, 40
2, 7562, Note_on_c, 1, 77, 0
2, 7572, Note_on_c, 1, 79, 40
2, 7680, Note_on_c, 1, 79, 0
2, 7690, Note_on_c, 1, 81, 40
2, 7930, Note_on_c, 1, 81, 0
2, 7941, Note_on_c, 1, 76, 40
2, 8169, Note_on_c, 1, 76, 0
2, 8179, Note_on_c, 1, 77, 40
2, 9127, Note_on_c, 1, 77, 0
2, 9137, Note_on_c, 1, 76, 40
2, 10084, Note_on_c, 1, 76, 0
2, 10095, Note_on_c, 1, 74, 40
2, 11042, Note_on_c, 1, 74, 0
2, 11051, Note_on_c, 1, 73, 40
2, 11522, Note_on_c, 1, 73, 0
2, 11532, Note_on_c, 1, 74, 40
2, 12010, Note_on_c, 1, 74, 0
2, 12250, Note_on_c, 1, 74, 40
2, 12489, Note_on_c, 1, 74, 0
2, 12499, Note_on_c, 1, 72, 40
2, 12610, Note_on_c, 1, 72, 0
2, 12620, Note_on_c, 1, 74, 40
2, 12728, Note_on_c, 1, 74, 0
2, 12737, Note_on_c, 1, 70, 40
2, 12847, Note_on_c, 1, 70, 0
2, 12857, Note_on_c, 1, 72, 40
2, 12967, Note_on_c, 1, 72, 0
2, 12978, Note_on_c, 1, 69, 40
2, 13087, Note_on_c, 1, 69, 0
2, 13097, Note_on_c, 1, 70, 40
2, 13207, Note_on_c, 1, 70, 0
2, 13217, Note_on_c, 1, 72, 40
2, 13327, Note_on_c, 1, 72, 0
2, 13337, Note_on_c, 1, 74, 40
2, 13446, Note_on_c, 1, 74, 0
2, 13456, Note_on_c, 1, 70, 40
2, 13565, Note_on_c, 1, 70, 0
2, 13575, Note_on_c, 1, 72, 40
2, 13684, Note_on_c, 1, 72, 0
2, 13694, Note_on_c, 1, 69, 40
2, 13805, Note_on_c, 1, 69, 0
2, 13815, Note_on_c, 1, 70, 40
2, 13925, Note_on_c, 1, 70, 0
2, 13936, Note_on_c, 1, 67, 40
2, 14045, Note_on_c, 1, 67, 0
2, 14055, Note_on_c, 1, 69, 40
2, 14164, Note_on_c, 1, 69, 0
2, 14174, Note_on_c, 1, 70, 40
2, 14284, Note_on_c, 1, 70, 0
2, 14295, Note_on_c, 1, 72, 40
2, 14404, Note_on_c, 1, 72, 0
2, 14414, Note_on_c, 1, 69, 40
2, 14524, Note_on_c, 1, 69, 0
2, 14534, Note_on_c, 1, 70, 40
2, 14643, Note_on_c, 1, 70, 0
2, 14654, Note_on_c, 1, 67, 40
2, 14763, Note_on_c, 1, 67, 0
2, 14773, Note_on_c, 1, 69, 40
2, 14882, Note_on_c, 1, 69, 0
2, 14892, Note_on_c, 1, 66, 40
2, 15002, Note_on_c, 1, 66, 0
2, 15012, Note_on_c, 1, 69, 40
2, 15121, Note_on_c, 1, 69, 0
2, 15131, Note_on_c, 1, 67, 40
2, 15241, Note_on_c, 1, 67, 0
2, 15251, Note_on_c, 1, 70, 40
2, 15362, Note_on_c, 1, 70, 0
2, 15371, Note_on_c, 1, 69, 40
2, 15481, Note_on_c, 1, 69, 0
2, 15491, Note_on_c, 1, 72, 40
2, 15600, Note_on_c, 1, 72, 0
2, 15610, Note_on_c, 1, 70, 40
2, 15721, Note_on_c, 1, 70, 0
2, 15731, Note_on_c, 1, 74, 40
2, 15850, Note_on_c, 1, 74, 0
2, 15860, Note_on_c, 1, 72, 40
2, 15970, Note_on_c, 1, 72, 0
2, 15980, Note_on_c, 1, 75, 40
2, 16089, Note_on_c, 1, 75, 0
2, 16100, Note_on_c, 1, 74, 40
2, 16209, Note_on_c, 1, 74, 0
2, 16218, Note_on_c, 1, 77, 40
2, 16328, Note_on_c, 1, 77, 0
2, 16338, Note_on_c, 1, 76, 40
2, 16449, Note_on_c, 1, 76, 0
2, 16459, Note_on_c, 1, 78, 40
2, 16568, Note_on_c, 1, 78, 0
2, 16578, Note_on_c, 1, 79, 40
2, 16926, Note_on_c, 1, 79, 0
2, 16936, Note_on_c, 1, 79, 40
2, 17046, Note_on_c, 1, 79, 0
2, 17056, Note_on_c, 1, 78, 40
2, 17286, Note_on_c, 1, 78, 0
2, 17296, Note_on_c, 1, 79, 40
2, 17765, Note_on_c, 1, 79, 0
2, 18004, Note_on_c, 1, 82, 40
2, 18244, Note_on_c, 1, 82, 0
2, 18254, Note_on_c, 1, 81, 40
2, 18484, Note_on_c, 1, 81, 0
2, 18494, Note_on_c, 1, 79, 40
2, 18723, Note_on_c, 1, 79, 0
2, 18733, Note_on_c, 1, 78, 40
2, 18963, Note_on_c, 1, 78, 0
2, 18972, Note_on_c, 1, 79, 40
2, 19201, Note_on_c, 1, 79, 0
2, 19211, Note_on_c, 1, 72, 40
2, 19321, Note_on_c, 1, 72, 0
2, 19331, Note_on_c, 1, 74, 40
2, 19441, Note_on_c, 1, 74, 0
2, 19450, Note_on_c, 1, 75, 40
2, 19810, Note_on_c, 1, 75, 0
2, 19820, Note_on_c, 1, 75, 40
2, 19930, Note_on_c, 1, 75, 0
2, 19940, Note_on_c, 1, 74, 40
2, 20050, Note_on_c, 1, 74, 0
2, 20060, Note_on_c, 1, 72, 40
2, 20170, Note_on_c, 1, 72, 0
2, 20180, Note_on_c, 1, 70, 40
2, 20290, Note_on_c, 1, 70, 0
2, 20300, Note_on_c, 1, 72, 40
2, 20408, Note_on_c, 1, 72, 0
2, 20418, Note_on_c, 1, 74, 40
2, 20768, Note_on_c, 1, 74, 0
2, 20778, Note_on_c, 1, 74, 40
2, 20888, Note_on_c, 1, 74, 0
2, 20898, Note_on_c, 1, 72, 40
2, 21008, Note_on_c, 1, 72, 0
2, 21018, Note_on_c, 1, 70, 40
2, 21127, Note_on_c, 1, 70, 0
2, 21137, Note_on_c, 1, 69, 40
2, 21247, Note_on_c, 1, 69, 0
2, 21257, Note_on_c, 1, 70, 40
2, 21366, Note_on_c, 1, 70, 0
2, 21376, Note_on_c, 1, 72, 40
2, 21726, Note_on_c, 1, 72, 0
2, 21735, Note_on_c, 1, 72, 40
2, 21845, Note_on_c, 1, 72, 0
2, 21855, Note_on_c, 1, 70, 40
2, 21965, Note_on_c, 1, 70, 0
2, 21975, Note_on_c, 1, 69, 40
2, 22084, Note_on_c, 1, 69, 0
2, 22094, Note_on_c, 1, 67, 40
2, 22324, Note_on_c, 1, 67, 0
2, 22334, Note_on_c, 1, 74, 40
2, 22564, Note_on_c, 1, 74, 0
2, 22574, Note_on_c, 1, 79, 40
2, 23282, Note_on_c, 1, 79, 0
2, 23292, Note_on_c, 1, 77, 40
2, 23521, Note_on_c, 1, 77, 0
2, 23531, Note_on_c, 1, 82, 40
2, 24249, Note_on_c, 1, 82, 0
2, 24259, Note_on_c, 1, 81, 40
2, 24728, Note_on_c, 1, 81, 0
2, 24738, Note_on_c, 1, 79, 40
2, 25207, Note_on_c, 1, 79, 0
2, 25218, Note_on_c, 1, 79, 40
2, 25446, Note_on_c, 1, 79, 0
2, 25456, Note_on_c, 1, 78, 40
2, 25925, Note_on_c, 1, 78, 0
2, 25935, Note_on_c, 1, 79, 40
2, 26403, Note_on_c, 1, 79, 0
2, 26643, Note_on_c, 1, 74, 40
2, 26763, Note_on_c, 1, 74, 0
2, 26773, Note_on_c, 1, 76, 40
2, 26883, Note_on_c, 1, 76, 0
2, 26893, Note_on_c, 1, 77, 40
2, 27121, Note_on_c, 1, 77, 0
2, 27131, Note_on_c, 1, 79, 40
2, 27361, Note_on_c, 1, 79, 0
2, 27371, Note_on_c, 1, 81, 40
2, 27611, Note_on_c, 1, 81, 0
2, 27621, Note_on_c, 1, 82, 40
2, 27850, Note_on_c, 1, 82, 0
2, 27860, Note_on_c, 1, 81, 40
2, 28448, Note_on_c, 1, 81, 0
2, 28458, Note_on_c, 1, 79, 40
2, 28568, Note_on_c, 1, 79, 0
2, 28578, Note_on_c, 1, 77, 40
2, 28689, Note_on_c, 1, 77, 0
2, 28699, Note_on_c, 1, 76, 40
2, 28808, Note_on_c, 1, 76, 0
2, 28818, Note_on_c, 1, 74, 40
2, 29286, Note_on_c, 1, 74, 0
2, 29526, Note_on_c, 1, 76, 40
2, 29764, Note_on_c, 1, 76, 0
2, 29774, Note_on_c, 1, 77, 40
2, 30364, Note_on_c, 1, 77, 0
2, 30374, Note_on_c, 1, 77, 40
2, 30483, Note_on_c, 1, 77, 0
2, 30493, Note_on_c, 1, 79, 40
2, 30603, Note_on_c, 1, 79, 0
2, 30613, Note_on_c, 1, 81, 40
2, 30723, Note_on_c, 1, 81, 0
2, 30733, Note_on_c, 1, 82, 40
2, 30842, Note_on_c, 1, 82, 0
2, 30852, Note_on_c, 1, 81, 40
2, 30962, Note_on_c, 1, 81, 0
2, 30972, Note_on_c, 1, 79, 40
2, 31082, Note_on_c, 1, 79, 0
2, 31093, Note_on_c, 1, 77, 40
2, 31202, Note_on_c, 1, 77, 0
2, 31211, Note_on_c, 1, 76, 40
2, 31570, Note_on_c, 1, 76, 0
2, 31580, Note_on_c, 1, 74, 40
2, 31690, Note_on_c, 1, 74, 0
2, 31700, Note_on_c, 1, 74, 40
2, 32169, Note_on_c, 1, 74, 0
2, 32288, Note_on_c, 1, 74, 72
2, 32408, Note_on_c, 1, 74, 0
2, 32418, Note_on_c, 1, 72, 72
2, 32528, Note_on_c, 1, 72, 0
2, 32538, Note_on_c, 1, 74, 72
2, 32647, Note_on_c, 1, 74, 0
2, 32657, Note_on_c, 1, 70, 72
2, 32768, Note_on_c, 1, 70, 0
2, 32778, Note_on_c, 1, 72, 72
2, 32888, Note_on_c, 1, 72, 0
2, 32898, Note_on_c, 1, 69, 72
2, 33007, Note_on_c, 1, 69, 0
2, 33017, Note_on_c, 1, 70, 72
2, 33127, Note_on_c, 1, 70, 0
2, 33138, Note_on_c, 1, 67, 72
2, 33365, Note_on_c, 1, 67, 0
2, 33375, Note_on_c, 1, 70, 72
2, 33604, Note_on_c, 1, 70, 0
2, 33614, Note_on_c, 1, 72, 72
2, 34084, Note_on_c, 1, 72, 0
2, 34203, Note_on_c, 1, 72, 72
2, 34323, Note_on_c, 1, 72, 0
2, 34333, Note_on_c, 1, 70, 72
2, 34443, Note_on_c, 1, 70, 0
2, 34453, Note_on_c, 1, 72, 72
2, 34562, Note_on_c, 1, 72, 0
2, 34572, Note_on_c, 1, 69, 72
2, 34682, Note_on_c, 1, 69, 0
2, 34692, Note_on_c, 1, 70, 72
2, 34803, Note_on_c, 1, 70, 0
2, 34813, Note_on_c, 1, 67, 72
2, 34922, Note_on_c, 1, 67, 0
2, 34932, Note_on_c, 1, 69, 72
2, 35042, Note_on_c, 1, 69, 0
2, 35051, Note_on_c, 1, 65, 72
2, 35280, Note_on_c, 1, 65, 0
2, 35290, Note_on_c, 1, 69, 72
2, 35531, Note_on_c, 1, 69, 0
2, 35541, Note_on_c, 1, 70, 72
2, 36008, Note_on_c, 1, 70, 0
2, 36128, Note_on_c, 1, 70, 72
2, 36248, Note_on_c, 1, 70, 0
2, 36258, Note_on_c, 1, 69, 72
2, 36368, Note_on_c, 1, 69, 0
2, 36378, Note_on_c, 1, 70, 72
2, 36488, Note_on_c, 1, 70, 0
2, 36498, Note_on_c, 1, 67, 72
2, 37086, Note_on_c, 1, 67, 0
2, 37096, Note_on_c, 1, 70, 72
2, 37206, Note_on_c, 1, 70, 0
2, 37216, Note_on_c, 1, 69, 72
2, 37326, Note_on_c, 1, 69, 0
2, 37336, Note_on_c, 1, 70, 72
2, 37445, Note_on_c, 1, 70, 0
2, 37455, Note_on_c, 1, 72, 72
2, 38043, Note_on_c, 1, 72, 0
2, 38053, Note_on_c, 1, 70, 72
2, 38163, Note_on_c, 1, 70, 0
2, 38173, Note_on_c, 1, 72, 72
2, 38284, Note_on_c, 1, 72, 0
2, 38294, Note_on_c, 1, 69, 72
2, 38403, Note_on_c, 1, 69, 0
2, 38413, Note_on_c, 1, 70, 72
2, 38522, Note_on_c, 1, 70, 0
2, 38532, Note_on_c, 1, 74, 72
2, 38642, Note_on_c, 1, 74, 0
2, 38652, Note_on_c, 1, 67, 72
2, 38761, Note_on_c, 1, 67, 0
2, 38771, Note_on_c, 1, 70, 72
2, 38882, Note_on_c, 1, 70, 0
2, 38891, Note_on_c, 1, 69, 72
2, 39001, Note_on_c, 1, 69, 0
2, 39011, Note_on_c, 1, 72, 72
2, 39121, Note_on_c, 1, 72, 0
2, 39131, Note_on_c, 1, 66, 72
2, 39241, Note_on_c, 1, 66, 0
2, 39251, Note_on_c, 1, 69, 72
2, 39360, Note_on_c, 1, 69, 0
2, 39370, Note_on_c, 1, 67, 72
2, 39610, Note_on_c, 1, 67, 0
2, 39620, Note_on_c, 1, 70, 72
2, 39849, Note_on_c, 1, 70, 0
2, 39859, Note_on_c, 1, 60, 72
2, 40089, Note_on_c, 1, 60, 0
2, 40099, Note_on_c, 1, 69, 72
2, 40328, Note_on_c, 1, 69, 0
2, 40337, Note_on_c, 1, 58, 72
2, 40567, Note_on_c, 1, 58, 0
2, 40577, Note_on_c, 1, 60, 72
2, 40806, Note_on_c, 1, 60, 0
2, 40816, Note_on_c, 1, 62, 72
2, 40926, Note_on_c, 1, 62, 0
2, 40936, Note_on_c, 1, 74, 72
2, 41046, Note_on_c, 1, 74, 0
2, 41056, Note_on_c, 1, 72, 72
2, 41166, Note_on_c, 1, 72, 0
2, 41176, Note_on_c, 1, 75, 72
2, 41286, Note_on_c, 1, 75, 0
2, 41296, Note_on_c, 1, 69, 72
2, 41524, Note_on_c, 1, 69, 0
2, 41534, Note_on_c, 1, 66, 72
2, 41765, Note_on_c, 1, 66, 0
2, 41775, Note_on_c, 1, 67, 72
2, 42722, Note_on_c, 1, 67, 0
2, 42961, Note_on_c, 1, 69, 72
2, 43200, Note_on_c, 1, 69, 0
2, 43211, Note_on_c, 1, 70, 72
2, 43690, Note_on_c, 1, 70, 0
2, 45845, Note_on_c, 1, 67, 88
2, 46084, Note_on_c, 1, 67, 0
2, 46094, Note_on_c, 1, 65, 88
2, 46203, Note_on_c, 1, 65, 0
2, 46213, Note_on_c, 1, 67, 88
2, 46323, Note_on_c, 1, 67, 0
2, 46333, Note_on_c, 1, 64, 88
2, 46443, Note_on_c, 1, 64, 0
2, 46453, Note_on_c, 1, 65, 88
2, 46563, Note_on_c, 1, 65, 0
2, 46573, Note_on_c, 1, 62, 88
2, 46802, Note_on_c, 1, 62, 0
2, 46812, Note_on_c, 1, 74, 88
2, 47041, Note_on_c, 1, 74, 0
2, 47051, Note_on_c, 1, 73, 88
2, 47161, Note_on_c, 1, 73, 0
2, 47171, Note_on_c, 1, 74, 88
2, 47281, Note_on_c, 1, 74, 0
2, 47291, Note_on_c, 1, 71, 88
2, 47410, Note_on_c, 1, 71, 0
2, 47420, Note_on_c, 1, 73, 88
2, 47530, Note_on_c, 1, 73, 0
2, 47540, Note_on_c, 1, 69, 88
2, 47769, Note_on_c, 1, 69, 0
2, 47780, Note_on_c, 1, 74, 88
2, 47889, Note_on_c, 1, 74, 0
2, 47899, Note_on_c, 1, 69, 88
2, 48009, Note_on_c, 1, 69, 0
2, 48018, Note_on_c, 1, 70, 88
2, 48248, Note_on_c, 1, 70, 0
2, 48258, Note_on_c, 1, 67, 88
2, 48487, Note_on_c, 1, 67, 0
2, 48498, Note_on_c, 1, 60, 88
2, 48727, Note_on_c, 1, 60, 0
2, 48736, Note_on_c, 1, 72, 88
2, 48966, Note_on_c, 1, 72, 0
2, 48976, Note_on_c, 1, 69, 88
2, 49086, Note_on_c, 1, 69, 0
2, 49096, Note_on_c, 1, 70, 88
2, 49206, Note_on_c, 1, 70, 0
2, 49216, Note_on_c, 1, 67, 88
2, 49326, Note_on_c, 1, 67, 0
2, 49336, Note_on_c, 1, 69, 88
2, 49445, Note_on_c, 1, 69, 0
2, 49454, Note_on_c, 1, 65, 88
2, 49684, Note_on_c, 1, 65, 0
2, 49694, Note_on_c, 1, 70, 88
2, 49805, Note_on_c, 1, 70, 0
2, 49814, Note_on_c, 1, 65, 88
2, 49924, Note_on_c, 1, 65, 0
2, 49934, Note_on_c, 1, 67, 88
2, 50164, Note_on_c, 1, 67, 0
2, 50173, Note_on_c, 1, 64, 88
2, 50402, Note_on_c, 1, 64, 0
2, 50412, Note_on_c, 1, 57, 88
2, 50642, Note_on_c, 1, 57, 0
2, 50652, Note_on_c, 1, 69, 88
2, 50883, Note_on_c, 1, 69, 0
2, 50891, Note_on_c, 1, 65, 88
2, 51001, Note_on_c, 1, 65, 0
2, 51011, Note_on_c, 1, 67, 88
2, 51121, Note_on_c, 1, 67, 0
2, 51131, Note_on_c, 1, 64, 88
2, 51240, Note_on_c, 1, 64, 0
2, 51250, Note_on_c, 1, 65, 88
2, 51370, Note_on_c, 1, 65, 0
2, 51380, Note_on_c, 1, 62, 88
2, 51490, Note_on_c, 1, 62, 0
2, 51500, Note_on_c, 1, 64, 88
2, 51610, Note_on_c, 1, 64, 0
2, 51620, Note_on_c, 1, 65, 88
2, 51729, Note_on_c, 1, 65, 0
2, 51739, Note_on_c, 1, 67, 88
2, 51850, Note_on_c, 1, 67, 0
2, 51859, Note_on_c, 1, 63, 88
2, 51969, Note_on_c, 1, 63, 0
2, 51979, Note_on_c, 1, 65, 88
2, 52088, Note_on_c, 1, 65, 0
2, 52098, Note_on_c, 1, 62, 88
2, 52208, Note_on_c, 1, 62, 0
2, 52217, Note_on_c, 1, 63, 88
2, 52328, Note_on_c, 1, 63, 0
2, 52338, Note_on_c, 1, 60, 88
2, 52447, Note_on_c, 1, 60, 0
2, 52457, Note_on_c, 1, 62, 88
2, 52568, Note_on_c, 1, 62, 0
2, 52577, Note_on_c, 1, 63, 88
2, 52688, Note_on_c, 1, 63, 0
2, 52698, Note_on_c, 1, 65, 88
2, 52807, Note_on_c, 1, 65, 0
2, 52817, Note_on_c, 1, 62, 88
2, 52926, Note_on_c, 1, 62, 0
2, 52935, Note_on_c, 1, 63, 88
2, 53046, Note_on_c, 1, 63, 0
2, 53056, Note_on_c, 1, 60, 88
2, 53165, Note_on_c, 1, 60, 0
2, 53175, Note_on_c, 1, 62, 88
2, 53286, Note_on_c, 1, 62, 0
2, 53295, Note_on_c, 1, 58, 88
2, 53404, Note_on_c, 1, 58, 0
2, 53414, Note_on_c, 1, 60, 88
2, 53525, Note_on_c, 1, 60, 0
2, 53535, Note_on_c, 1, 62, 88
2, 53644, Note_on_c, 1, 62, 0
2, 53654, Note_on_c, 1, 63, 88
2, 53763, Note_on_c, 1, 63, 0
2, 53773, Note_on_c, 1, 60, 88
2, 53883, Note_on_c, 1, 60, 0
2, 53893, Note_on_c, 1, 62, 88
2, 54003, Note_on_c, 1, 62, 0
2, 54013, Note_on_c, 1, 58, 88
2, 54123, Note_on_c, 1, 58, 0
2, 54133, Note_on_c, 1, 60, 88
2, 54243, Note_on_c, 1, 60, 0
2, 54482, Note_on_c, 1, 50, 88
2, 54722, Note_on_c, 1, 50, 0
2, 54732, Note_on_c, 1, 46, 88
2, 54841, Note_on_c, 1, 46, 0
2, 54851, Note_on_c, 1, 48, 88
2, 54961, Note_on_c, 1, 48, 0
2, 54971, Note_on_c, 1, 45, 88
2, 55081, Note_on_c, 1, 45, 0
2, 55091, Note_on_c, 1, 46, 88
2, 55200, Note_on_c, 1, 46, 0
2, 55210, Note_on_c, 1, 43, 88
2, 55451, Note_on_c, 1, 43, 0
2, 55461, Note_on_c, 1, 55, 88
2, 55688, Note_on_c, 1, 55, 0
2, 55698, Note_on_c, 1, 54, 88
2, 55808, Note_on_c, 1, 54, 0
2, 55818, Note_on_c, 1, 55, 88
2, 55928, Note_on_c, 1, 55, 0
2, 55938, Note_on_c, 1, 52, 88
2, 56048, Note_on_c, 1, 52, 0
2, 56058, Note_on_c, 1, 54, 88
2, 56169, Note_on_c, 1, 54, 0
2, 56179, Note_on_c, 1, 50, 88
2, 56408, Note_on_c, 1, 50, 0
2, 56418, Note_on_c, 1, 55, 88
2, 56527, Note_on_c, 1, 55, 0
2, 56537, Note_on_c, 1, 50, 88
2, 56647, Note_on_c, 1, 50, 0
2, 56656, Note_on_c, 1, 51, 88
2, 56886, Note_on_c, 1, 51, 0
2, 56896, Note_on_c, 1, 48, 88
2, 57126, Note_on_c, 1, 48, 0
2, 57136, Note_on_c, 1, 41, 88
2, 57366, Note_on_c, 1, 41, 0
2, 57375, Note_on_c, 1, 53, 88
2, 57604, Note_on_c, 1, 53, 0
2, 57614, Note_on_c, 1, 50, 88
2, 57723, Note_on_c, 1, 50, 0
2, 57733, Note_on_c, 1, 51, 88
2, 57843, Note_on_c, 1, 51, 0
2, 57853, Note_on_c, 1, 48, 88
2, 57963, Note_on_c, 1, 48, 0
2, 57973, Note_on_c, 1, 50, 88
2, 58083, Note_on_c, 1, 50, 0
2, 58093, Note_on_c, 1, 46, 88
2, 58323, Note_on_c, 1, 46, 0
2, 58333, Note_on_c, 1, 51, 88
2, 58442, Note_on_c, 1, 51, 0
2, 58452, Note_on_c, 1, 46, 88
2, 58562, Note_on_c, 1, 46, 0
2, 58572, Note_on_c, 1, 48, 88
2, 58801, Note_on_c, 1, 48, 0
2, 58811, Note_on_c, 1, 45, 88
2, 59041, Note_on_c, 1, 45, 0
2, 59051, Note_on_c, 1, 38, 88
2, 59290, Note_on_c, 1, 38, 0
2, 59300, Note_on_c, 1, 50, 88
2, 59530, Note_on_c, 1, 50, 0
2, 59540, Note_on_c, 1, 46, 88
2, 59649, Note_on_c, 1, 46, 0
2, 59658, Note_on_c, 1, 48, 88
2, 59768, Note_on_c, 1, 48, 0
2, 59779, Note_on_c, 1, 45, 88
2, 59888, Note_on_c, 1, 45, 0
2, 59898, Note_on_c, 1, 46, 88
2, 60008, Note_on_c, 1, 46, 0
2, 60018, Note_on_c, 1, 43, 88
2, 60248, Note_on_c, 1, 43, 0
2, 60258, Note_on_c, 1, 55, 88
2, 60487, Note_on_c, 1, 55, 0
2, 60497, Note_on_c, 1, 53, 88
2, 60607, Note_on_c, 1, 53, 0
2, 60617, Note_on_c, 1, 55, 88
2, 60726, Note_on_c, 1, 55, 0
2, 60737, Note_on_c, 1, 51, 88
2, 60846, Note_on_c, 1, 51, 0
2, 60857, Note_on_c, 1, 53, 88
2, 60966, Note_on_c, 1, 53, 0
2, 60976, Note_on_c, 1, 50, 88
2, 61204, Note_on_c, 1, 50, 0
2, 61215, Note_on_c, 1, 58, 88
2, 61444, Note_on_c, 1, 58, 0
2, 61455, Note_on_c, 1, 57, 88
2, 61564, Note_on_c, 1, 57, 0
2, 61574, Note_on_c, 1, 58, 88
2, 61684, Note_on_c, 1, 58, 0
2, 61694, Note_on_c, 1, 55, 88
2, 61803, Note_on_c, 1, 55, 0
2, 61815, Note_on_c, 1, 57, 88
2, 61923, Note_on_c, 1, 57, 0
2, 61933, Note_on_c, 1, 53, 88
2, 62043, Note_on_c, 1, 53, 0
2, 62053, Note_on_c, 1, 55, 88
2, 62163, Note_on_c, 1, 55, 0
2, 62173, Note_on_c, 1, 51, 88
2, 62283, Note_on_c, 1, 51, 0
2, 62293, Note_on_c, 1, 53, 88
2, 62402, Note_on_c, 1, 53, 0
2, 62412, Note_on_c, 1, 50, 88
2, 62522, Note_on_c, 1, 50, 0
2, 62532, Note_on_c, 1, 51, 88
2, 62642, Note_on_c, 1, 51, 0
2, 62652, Note_on_c, 1, 48, 88
2, 62761, Note_on_c, 1, 48, 0
2, 62771, Note_on_c, 1, 50, 88
2, 62882, Note_on_c, 1, 50, 0
2, 62892, Note_on_c, 1, 46, 88
2, 63001, Note_on_c, 1, 46, 0
2, 63010, Note_on_c, 1, 58, 88
2, 63130, Note_on_c, 1, 58, 0
2, 63141, Note_on_c, 1, 57, 88
2, 63250, Note_on_c, 1, 57, 0
2, 63260, Note_on_c, 1, 58, 88
2, 63370, Note_on_c, 1, 58, 0
2, 63380, Note_on_c, 1, 55, 88
2, 63490, Note_on_c, 1, 55, 0
2, 63500, Note_on_c, 1, 57, 88
2, 63610, Note_on_c, 1, 57, 0
2, 63620, Note_on_c, 1, 53, 88
2, 63728, Note_on_c, 1, 53, 0
2, 63738, Note_on_c, 1, 55, 88
2, 63849, Note_on_c, 1, 55, 0
2, 63859, Note_on_c, 1, 51, 88
2, 63968, Note_on_c, 1, 51, 0
2, 63978, Note_on_c, 1, 53, 88
2, 64088, Note_on_c, 1, 53, 0
2, 64098, Note_on_c, 1, 50, 88
2, 64208, Note_on_c, 1, 50, 0
2, 64218, Note_on_c, 1, 51, 88
2, 64328, Note_on_c, 1, 51, 0
2, 64338, Note_on_c, 1, 48, 88
2, 64447, Note_on_c, 1, 48, 0
2, 64457, Note_on_c, 1, 50, 88
2, 64567, Note_on_c, 1, 50, 0
2, 64577, Note_on_c, 1, 46, 88
2, 64687, Note_on_c, 1, 46, 0
2, 64697, Note_on_c, 1, 48, 88
2, 64806, Note_on_c, 1, 48, 0
2, 64817, Note_on_c, 1, 45, 88
2, 64927, Note_on_c, 1, 45, 0
2, 64937, Note_on_c, 1, 57, 88
2, 65045, Note_on_c, 1, 57, 0
2, 65055, Note_on_c, 1, 55, 88
2, 65165, Note_on_c, 1, 55, 0
2, 65176, Note_on_c, 1, 57, 88
2, 65285, Note_on_c, 1, 57, 0
2, 65295, Note_on_c, 1, 53, 88
2, 65405, Note_on_c, 1, 53, 0
2, 65415, Note_on_c, 1, 55, 88
2, 65524, Note_on_c, 1, 55, 0
2, 65535, Note_on_c, 1, 51, 88
2, 65645, Note_on_c, 1, 51, 0
2, 65655, Note_on_c, 1, 53, 88
2, 65763, Note_on_c, 1, 53, 0
2, 65773, Note_on_c, 1, 50, 88
2, 65883, Note_on_c, 1, 50, 0
2, 65894, Note_on_c, 1, 51, 88
2, 66003, Note_on_c, 1, 51, 0
2, 66013, Note_on_c, 1, 48, 88
2, 66123, Note_on_c, 1, 48, 0
2, 66133, Note_on_c, 1, 50, 88
2, 66243, Note_on_c, 1, 50, 0
2, 66253, Note_on_c, 1, 46, 88
2, 66363, Note_on_c, 1, 46, 0
2, 66373, Note_on_c, 1, 48, 88
2, 66482, Note_on_c, 1, 48, 0
2, 66492, Note_on_c, 1, 45, 88
2, 66601, Note_on_c, 1, 45, 0
2, 66612, Note_on_c, 1, 46, 88
2, 66721, Note_on_c, 1, 46, 0
2, 66731, Note_on_c, 1, 43, 88
2, 66841, Note_on_c, 1, 43, 0
2, 66851, Note_on_c, 1, 48, 88
2, 66961, Note_on_c, 1, 48, 0
2, 66971, Note_on_c, 1, 46, 88
2, 67091, Note_on_c, 1, 46, 0
2, 67101, Note_on_c, 1, 48, 88
2, 67210, Note_on_c, 1, 48, 0
2, 67220, Note_on_c, 1, 41, 88
2, 67450, Note_on_c, 1, 41, 0
2, 67460, Note_on_c, 1, 53, 88
2, 67690, Note_on_c, 1, 53, 0
2, 67700, Note_on_c, 1, 55, 88
2, 67928, Note_on_c, 1, 55, 0
2, 67938, Note_on_c, 1, 57, 88
2, 68168, Note_on_c, 1, 57, 0
2, 68178, Note_on_c, 1, 58, 88
2, 68408, Note_on_c, 1, 58, 0
2, 68418, Note_on_c, 1, 51, 88
2, 68647, Note_on_c, 1, 51, 0
2, 68657, Note_on_c, 1, 53, 88
2, 68886, Note_on_c, 1, 53, 0
2, 68896, Note_on_c, 1, 41, 88
2, 69126, Note_on_c, 1, 41, 0
2, 69136, Note_on_c, 1, 46, 88
2, 69604, Note_on_c, 1, 46, 0
2, 72965, Program_c, 1, 0
2, 74163, Note_on_c, 1, 65, 88
2, 74403, Note_on_c, 1, 65, 0
2, 74412, Note_on_c, 1, 70, 88
2, 74641, Note_on_c, 1, 70, 0
2, 74651, Note_on_c, 1, 70, 88
2, 74880, Note_on_c, 1, 70, 0
2, 74890, Note_on_c, 1, 69, 88
2, 75369, Note_on_c, 1, 69, 0
2, 75379, Note_on_c, 1, 70, 88
2, 75609, Note_on_c, 1, 70, 0
2, 75619, Note_on_c, 1, 71, 88
2, 75848, Note_on_c, 1, 71, 0
2, 75858, Note_on_c, 1, 72, 88
2, 76087, Note_on_c, 1, 72, 0
2, 76097, Note_on_c, 1, 67, 88
2, 76327, Note_on_c, 1, 67, 0
2, 76337, Note_on_c, 1, 72, 88
2, 76566, Note_on_c, 1, 72, 0
2, 76577, Note_on_c, 1, 72, 88
2, 76805, Note_on_c, 1, 72, 0
2, 76815, Note_on_c, 1, 70, 88
2, 77045, Note_on_c, 1, 70, 0
2, 77055, Note_on_c, 1, 71, 88
2, 77284, Note_on_c, 1, 71, 0
2, 77295, Note_on_c, 1, 72, 88
2, 77524, Note_on_c, 1, 72, 0
2, 77534, Note_on_c, 1, 73, 88
2, 77764, Note_on_c, 1, 73, 0
2, 77773, Note_on_c, 1, 74, 88
2, 78002, Note_on_c, 1, 74, 0
2, 78013, Note_on_c, 1, 69, 88
2, 78242, Note_on_c, 1, 69, 0
2, 78252, Note_on_c, 1, 74, 88
2, 78481, Note_on_c, 1, 74, 0
2, 78491, Note_on_c, 1, 74, 88
2, 78721, Note_on_c, 1, 74, 0
2, 78722, Program_c, 1, 0
2, 78724, Note_on_c, 1, 73, 88
2, 79210, Note_on_c, 1, 73, 0
2, 79220, Note_on_c, 1, 74, 88
2, 80167, Note_on_c, 1, 74, 0
2, 80177, Note_on_c, 1, 73, 88
2, 80646, Note_on_c, 1, 73, 0
2, 80656, Note_on_c, 1, 74, 56
2, 80887, Note_on_c, 1, 74, 0
2, 80895, Note_on_c, 1, 77, 56
2, 81124, Note_on_c, 1, 77, 0
2, 81134, Note_on_c, 1, 67, 56
2, 81364, Note_on_c, 1, 67, 0
2, 81374, Note_on_c, 1, 76, 56
2, 81604, Note_on_c, 1, 76, 0
2, 81614, Note_on_c, 1, 65, 56
2, 81724, Note_on_c, 1, 65, 0
2, 81734, Note_on_c, 1, 69, 56
2, 81844, Note_on_c, 1, 69, 0
2, 81854, Note_on_c, 1, 74, 24
2, 82082, Note_on_c, 1, 74, 0
2, 82092, Note_on_c, 1, 73, 24
2, 82203, Note_on_c, 1, 73, 0
2, 82212, Note_on_c, 1, 76, 24
2, 82322, Note_on_c, 1, 76, 0
2, 82332, Note_on_c, 1, 81, 24
2, 82562, Note_on_c, 1, 81, 0
2, 82571, Note_on_c, 1, 77, 24
2, 82681, Note_on_c, 1, 77, 0
2, 82691, Note_on_c, 1, 79, 24
2, 82800, Note_on_c, 1, 79, 0
2, 82811, Note_on_c, 1, 76, 24
2, 82930, Note_on_c, 1, 76, 0
2, 82940, Note_on_c, 1, 77, 24
2, 83050, Note_on_c, 1, 77, 0
2, 83060, Note_on_c, 1, 74, 24
2, 83170, Note_on_c, 1, 74, 0
2, 83180, Note_on_c, 1, 77, 24
2, 83289, Note_on_c, 1, 77, 0
2, 83299, Note_on_c, 1, 76, 24
2, 83409, Note_on_c, 1, 76, 0
2, 83419, Note_on_c, 1, 74, 24
2, 83529, Note_on_c, 1, 74, 0
2, 83538, Note_on_c, 1, 73, 24
2, 83648, Note_on_c, 1, 73, 0
2, 83658, Note_on_c, 1, 74, 24
2, 83769, Note_on_c, 1, 74, 0
2, 83779, Note_on_c, 1, 71, 24
2, 83889, Note_on_c, 1, 71, 0
2, 83899, Note_on_c, 1, 73, 24
2, 84008, Note_on_c, 1, 73, 0
2, 84018, Note_on_c, 1, 69, 24
2, 84248, Note_on_c, 1, 69, 0
2, 84257, Note_on_c, 1, 74, 24
2, 84367, Note_on_c, 1, 74, 0
2, 84377, Note_on_c, 1, 69, 24
2, 84487, Note_on_c, 1, 69, 0
2, 84497, Note_on_c, 1, 70, 24
2, 84726, Note_on_c, 1, 70, 0
2, 84736, Note_on_c, 1, 67, 24
2, 84964, Note_on_c, 1, 67, 0
2, 84974, Note_on_c, 1, 60, 24
2, 85205, Note_on_c, 1, 60, 0
2, 85215, Note_on_c, 1, 72, 24
2, 85444, Note_on_c, 1, 72, 0
2, 85454, Note_on_c, 1, 69, 24
2, 85564, Note_on_c, 1, 69, 0
2, 85574, Note_on_c, 1, 70, 24
2, 85683, Note_on_c, 1, 70, 0
2, 85693, Note_on_c, 1, 67, 24
2, 85803, Note_on_c, 1, 67, 0
2, 85813, Note_on_c, 1, 69, 24
2, 85923, Note_on_c, 1, 69, 0
2, 85933, Note_on_c, 1, 65, 24
2, 86162, Note_on_c, 1, 65, 0
2, 86172, Note_on_c, 1, 70, 24
2, 86282, Note_on_c, 1, 70, 0
2, 86291, Note_on_c, 1, 65, 24
2, 86402, Note_on_c, 1, 65, 0
2, 86412, Note_on_c, 1, 67, 24
2, 86642, Note_on_c, 1, 67, 0
2, 86651, Note_on_c, 1, 64, 24
2, 86891, Note_on_c, 1, 64, 0
2, 86900, Note_on_c, 1, 57, 24
2, 87130, Note_on_c, 1, 57, 0
2, 87140, Note_on_c, 1, 69, 24
2, 87369, Note_on_c, 1, 69, 0
2, 87379, Note_on_c, 1, 65, 24
2, 87489, Note_on_c, 1, 65, 0
2, 87499, Note_on_c, 1, 67, 24
2, 87609, Note_on_c, 1, 67, 0
2, 87618, Note_on_c, 1, 64, 24
2, 87728, Note_on_c, 1, 64, 0
2, 87738, Note_on_c, 1, 65, 24
2, 87847, Note_on_c, 1, 65, 0
2, 87857, Note_on_c, 1, 62, 24
2, 87968, Note_on_c, 1, 62, 0
2, 87978, Note_on_c, 1, 65, 24
2, 88087, Note_on_c, 1, 65, 0
2, 88097, Note_on_c, 1, 69, 24
2, 88207, Note_on_c, 1, 69, 0
2, 88217, Note_on_c, 1, 74, 24
2, 88327, Note_on_c, 1, 74, 0
2, 88337, Note_on_c, 1, 73, 24
2, 88447, Note_on_c, 1, 73, 0
2, 88457, Note_on_c, 1, 74, 24
2, 88567, Note_on_c, 1, 74, 0
2, 88577, Note_on_c, 1, 71, 24
2, 88687, Note_on_c, 1, 71, 0
2, 88696, Note_on_c, 1, 73, 24
2, 88805, Note_on_c, 1, 73, 0
2, 88815, Note_on_c, 1, 69, 24
2, 88925, Note_on_c, 1, 69, 0
2, 88935, Note_on_c, 1, 73, 24
2, 89044, Note_on_c, 1, 73, 0
2, 89053, Note_on_c, 1, 76, 24
2, 89165, Note_on_c, 1, 76, 0
2, 89175, Note_on_c, 1, 79, 24
2, 89285, Note_on_c, 1, 79, 0
2, 89295, Note_on_c, 1, 77, 24
2, 89405, Note_on_c, 1, 77, 0
2, 89414, Note_on_c, 1, 79, 24
2, 89523, Note_on_c, 1, 79, 0
2, 89533, Note_on_c, 1, 76, 24
2, 89643, Note_on_c, 1, 76, 0
2, 89653, Note_on_c, 1, 77, 24
2, 89763, Note_on_c, 1, 77, 0
2, 89773, Note_on_c, 1, 74, 24
2, 89882, Note_on_c, 1, 74, 0
2, 89892, Note_on_c, 1, 77, 24
2, 90003, Note_on_c, 1, 77, 0
2, 90013, Note_on_c, 1, 81, 24
2, 90123, Note_on_c, 1, 81, 0
2, 90132, Note_on_c, 1, 84, 24
2, 90242, Note_on_c, 1, 84, 0
2, 90252, Note_on_c, 1, 82, 24
2, 90361, Note_on_c, 1, 82, 0
2, 90371, Note_on_c, 1, 84, 24
2, 90481, Note_on_c, 1, 84, 0
2, 90491, Note_on_c, 1, 81, 24
2, 90601, Note_on_c, 1, 81, 0
2, 90611, Note_on_c, 1, 82, 24
2, 90721, Note_on_c, 1, 82, 0
2, 90731, Note_on_c, 1, 79, 24
2, 90850, Note_on_c, 1, 79, 0
2, 90860, Note_on_c, 1, 81, 24
2, 90970, Note_on_c, 1, 81, 0
2, 90980, Note_on_c, 1, 77, 24
2, 91090, Note_on_c, 1, 77, 0
2, 91101, Note_on_c, 1, 79, 24
2, 91209, Note_on_c, 1, 79, 0
2, 91219, Note_on_c, 1, 76, 24
2, 91329, Note_on_c, 1, 76, 0
2, 91339, Note_on_c, 1, 77, 24
2, 91449, Note_on_c, 1, 77, 0
2, 91459, Note_on_c, 1, 74, 24
2, 91568, Note_on_c, 1, 74, 0
2, 91578, Note_on_c, 1, 76, 24
2, 91688, Note_on_c, 1, 76, 0
2, 91698, Note_on_c, 1, 72, 24
2, 91808, Note_on_c, 1, 72, 0
2, 91818, Note_on_c, 1, 76, 24
2, 91928, Note_on_c, 1, 76, 0
2, 91938, Note_on_c, 1, 79, 24
2, 92047, Note_on_c, 1, 79, 0
2, 92057, Note_on_c, 1, 82, 24
2, 92167, Note_on_c, 1, 82, 0
2, 92176, Note_on_c, 1, 81, 24
2, 92286, Note_on_c, 1, 81, 0
2, 92296, Note_on_c, 1, 82, 24
2, 92406, Note_on_c, 1, 82, 0
2, 92416, Note_on_c, 1, 79, 24
2, 92527, Note_on_c, 1, 79, 0
2, 92537, Note_on_c, 1, 81, 24
2, 92646, Note_on_c, 1, 81, 0
2, 92656, Note_on_c, 1, 77, 24
2, 92766, Note_on_c, 1, 77, 0
2, 92776, Note_on_c, 1, 79, 24
2, 92885, Note_on_c, 1, 79, 0
2, 92895, Note_on_c, 1, 76, 24
2, 93004, Note_on_c, 1, 76, 0
2, 93014, Note_on_c, 1, 77, 24
2, 93124, Note_on_c, 1, 77, 0
2, 93134, Note_on_c, 1, 74, 24
2, 93244, Note_on_c, 1, 74, 0
2, 93254, Note_on_c, 1, 76, 24
2, 93364, Note_on_c, 1, 76, 0
2, 93374, Note_on_c, 1, 72, 24
2, 93484, Note_on_c, 1, 72, 0
2, 93494, Note_on_c, 1, 74, 24
2, 93603, Note_on_c, 1, 74, 0
2, 93613, Note_on_c, 1, 70, 24
2, 93723, Note_on_c, 1, 70, 0
2, 93733, Note_on_c, 1, 74, 24
2, 93842, Note_on_c, 1, 74, 0
2, 93852, Note_on_c, 1, 77, 24
2, 93962, Note_on_c, 1, 77, 0
2, 93972, Note_on_c, 1, 81, 24
2, 94082, Note_on_c, 1, 81, 0
2, 94092, Note_on_c, 1, 79, 24
2, 94202, Note_on_c, 1, 79, 0
2, 94212, Note_on_c, 1, 81, 24
2, 94321, Note_on_c, 1, 81, 0
2, 94331, Note_on_c, 1, 77, 24
2, 94441, Note_on_c, 1, 77, 0
2, 94451, Note_on_c, 1, 79, 24
2, 94561, Note_on_c, 1, 79, 0
2, 94572, Note_on_c, 1, 76, 24
2, 94691, Note_on_c, 1, 76, 0
2, 94701, Note_on_c, 1, 77, 24
2, 94810, Note_on_c, 1, 77, 0
2, 94819, Note_on_c, 1, 74, 24
2, 94930, Note_on_c, 1, 74, 0
2, 94940, Note_on_c, 1, 76, 24
2, 95049, Note_on_c, 1, 76, 0
2, 95059, Note_on_c, 1, 73, 24
2, 95169, Note_on_c, 1, 73, 0
2, 95180, Note_on_c, 1, 74, 24
2, 95290, Note_on_c, 1, 74, 0
2, 95300, Note_on_c, 1, 71, 24
2, 95409, Note_on_c, 1, 71, 0
2, 95419, Note_on_c, 1, 73, 24
2, 95529, Note_on_c, 1, 73, 0
2, 95539, Note_on_c, 1, 69, 24
2, 95647, Note_on_c, 1, 69, 0
2, 95657, Note_on_c, 1, 73, 24
2, 95767, Note_on_c, 1, 73, 0
2, 95777, Note_on_c, 1, 76, 24
2, 95887, Note_on_c, 1, 76, 0
2, 95897, Note_on_c, 1, 81, 24
2, 96007, Note_on_c, 1, 81, 0
2, 96017, Note_on_c, 1, 74, 24
2, 96127, Note_on_c, 1, 74, 0
2, 96137, Note_on_c, 1, 77, 24
2, 96247, Note_on_c, 1, 77, 0
2, 96256, Note_on_c, 1, 69, 24
2, 96367, Note_on_c, 1, 69, 0
2, 96377, Note_on_c, 1, 74, 24
2, 96485, Note_on_c, 1, 74, 0
2, 96495, Note_on_c, 1, 65, 24
2, 96606, Note_on_c, 1, 65, 0
2, 96616, Note_on_c, 1, 69, 24
2, 96725, Note_on_c, 1, 69, 0
2, 96735, Note_on_c, 1, 62, 24
2, 96845, Note_on_c, 1, 62, 0
2, 96855, Note_on_c, 1, 74, 24
2, 96965, Note_on_c, 1, 74, 0
2, 96975, Note_on_c, 1, 69, 24
2, 97084, Note_on_c, 1, 69, 0
2, 97094, Note_on_c, 1, 73, 24
2, 97204, Note_on_c, 1, 73, 0
2, 97214, Note_on_c, 1, 76, 24
2, 97324, Note_on_c, 1, 76, 0
2, 97334, Note_on_c, 1, 79, 24
2, 97443, Note_on_c, 1, 79, 0
2, 97453, Note_on_c, 1, 77, 24
2, 97563, Note_on_c, 1, 77, 0
2, 97573, Note_on_c, 1, 81, 24
2, 97683, Note_on_c, 1, 81, 0
2, 97693, Note_on_c, 1, 74, 24
2, 97802, Note_on_c, 1, 74, 0
2, 97812, Note_on_c, 1, 77, 24
2, 97923, Note_on_c, 1, 77, 0
2, 97932, Note_on_c, 1, 67, 24
2, 98042, Note_on_c, 1, 67, 0
2, 98052, Note_on_c, 1, 70, 24
2, 98161, Note_on_c, 1, 70, 0
2, 98171, Note_on_c, 1, 74, 24
2, 98281, Note_on_c, 1, 74, 0
2, 98291, Note_on_c, 1, 77, 24
2, 98402, Note_on_c, 1, 77, 0
2, 98411, Note_on_c, 1, 76, 24
2, 98520, Note_on_c, 1, 76, 0
2, 98530, Note_on_c, 1, 79, 24
2, 98651, Note_on_c, 1, 79, 0
2, 98661, Note_on_c, 1, 72, 24
2, 98771, Note_on_c, 1, 72, 0
2, 98781, Note_on_c, 1, 76, 24
2, 98890, Note_on_c, 1, 76, 0
2, 98900, Note_on_c, 1, 65, 24
2, 99009, Note_on_c, 1, 65, 0
2, 99018, Note_on_c, 1, 69, 24
2, 99129, Note_on_c, 1, 69, 0
2, 99139, Note_on_c, 1, 72, 24
2, 99248, Note_on_c, 1, 72, 0
2, 99258, Note_on_c, 1, 76, 24
2, 99369, Note_on_c, 1, 76, 0
2, 99378, Note_on_c, 1, 74, 24
2, 99489, Note_on_c, 1, 74, 0
2, 99499, Note_on_c, 1, 77, 24
2, 99608, Note_on_c, 1, 77, 0
2, 99618, Note_on_c, 1, 70, 24
2, 99727, Note_on_c, 1, 70, 0
2, 99738, Note_on_c, 1, 74, 24
2, 99847, Note_on_c, 1, 74, 0
2, 99857, Note_on_c, 1, 64, 24
2, 99967, Note_on_c, 1, 64, 0
2, 99977, Note_on_c, 1, 67, 24
2, 100086, Note_on_c, 1, 67, 0
2, 100096, Note_on_c, 1, 70, 24
2, 100206, Note_on_c, 1, 70, 0
2, 100216, Note_on_c, 1, 74, 24
2, 100326, Note_on_c, 1, 74, 0
2, 100336, Note_on_c, 1, 73, 24
2, 100446, Note_on_c, 1, 73, 0
2, 100456, Note_on_c, 1, 76, 24
2, 100565, Note_on_c, 1, 76, 0
2, 100575, Note_on_c, 1, 69, 24
2, 100686, Note_on_c, 1, 69, 0
2, 100696, Note_on_c, 1, 73, 24
2, 100805, Note_on_c, 1, 73, 0
2, 100815, Note_on_c, 1, 74, 24
2, 100924, Note_on_c, 1, 74, 0
2, 100934, Note_on_c, 1, 77, 24
2, 101044, Note_on_c, 1, 77, 0
2, 101054, Note_on_c, 1, 69, 24
2, 101163, Note_on_c, 1, 69, 0
2, 101173, Note_on_c, 1, 74, 24
2, 101283, Note_on_c, 1, 74, 0
2, 101293, Note_on_c, 1, 65, 24
2, 101404, Note_on_c, 1, 65, 0
2, 101414, Note_on_c, 1, 69, 24
2, 101523, Note_on_c, 1, 69, 0
2, 101533, Note_on_c, 1, 62, 24
2, 101642, Note_on_c, 1, 62, 0
2, 101652, Note_on_c, 1, 69, 24
2, 101763, Note_on_c, 1, 69, 0
2, 101773, Note_on_c, 1, 70, 24
2, 101881, Note_on_c, 1, 70, 0
2, 101891, Note_on_c, 1, 72, 24
2, 102001, Note_on_c, 1, 72, 0
2, 102011, Note_on_c, 1, 69, 24
2, 102122, Note_on_c, 1, 69, 0
2, 102132, Note_on_c, 1, 70, 24
2, 102241, Note_on_c, 1, 70, 0
2, 102251, Note_on_c, 1, 67, 24
2, 102480, Note_on_c, 1, 67, 0
2, 102490, Note_on_c, 1, 70, 24
2, 102730, Note_on_c, 1, 70, 0
2, 102740, Note_on_c, 1, 72, 24
2, 102850, Note_on_c, 1, 72, 0
2, 102860, Note_on_c, 1, 76, 24
2, 102970, Note_on_c, 1, 76, 0
2, 102980, Note_on_c, 1, 67, 24
2, 103090, Note_on_c, 1, 67, 0
2, 103100, Note_on_c, 1, 72, 24
2, 103209, Note_on_c, 1, 72, 0
2, 103219, Note_on_c, 1, 64, 24
2, 103329, Note_on_c, 1, 64, 0
2, 103339, Note_on_c, 1, 67, 24
2, 103449, Note_on_c, 1, 67, 0
2, 103459, Note_on_c, 1, 60, 24
2, 103569, Note_on_c, 1, 60, 0
2, 103579, Note_on_c, 1, 67, 24
2, 103688, Note_on_c, 1, 67, 0
2, 103698, Note_on_c, 1, 69, 24
2, 103927, Note_on_c, 1, 69, 0
2, 103937, Note_on_c, 1, 70, 24
2, 104167, Note_on_c, 1, 70, 0
2, 104176, Note_on_c, 1, 72, 24
2, 104406, Note_on_c, 1, 72, 0
2, 104416, Note_on_c, 1, 74, 24
2, 104645, Note_on_c, 1, 74, 0
2, 104655, Note_on_c, 1, 67, 24
2, 104885, Note_on_c, 1, 67, 0
2, 104895, Note_on_c, 1, 79, 24
2, 105244, Note_on_c, 1, 79, 0
2, 105254, Note_on_c, 1, 76, 24
2, 105363, Note_on_c, 1, 76, 0
2, 105373, Note_on_c, 1, 74, 24
2, 105484, Note_on_c, 1, 74, 0
2, 105494, Note_on_c, 1, 72, 24
2, 105603, Note_on_c, 1, 72, 0
2, 105614, Note_on_c, 1, 82, 24
2, 105723, Note_on_c, 1, 82, 0
2, 105733, Note_on_c, 1, 72, 24
2, 105843, Note_on_c, 1, 72, 0
2, 105852, Note_on_c, 1, 74, 24
2, 106202, Note_on_c, 1, 74, 0
2, 106211, Note_on_c, 1, 74, 24
2, 106321, Note_on_c, 1, 74, 0
2, 106331, Note_on_c, 1, 72, 24
2, 106441, Note_on_c, 1, 72, 0
2, 106451, Note_on_c, 1, 70, 24
2, 106570, Note_on_c, 1, 70, 0
2, 106581, Note_on_c, 1, 81, 24
2, 106690, Note_on_c, 1, 81, 0
2, 106700, Note_on_c, 1, 70, 24
2, 106810, Note_on_c, 1, 70, 0
2, 106820, Note_on_c, 1, 72, 24
2, 107169, Note_on_c, 1, 72, 0
2, 107178, Note_on_c, 1, 72, 24
2, 107289, Note_on_c, 1, 72, 0
2, 107299, Note_on_c, 1, 70, 24
2, 107408, Note_on_c, 1, 70, 0
2, 107418, Note_on_c, 1, 69, 24
2, 107529, Note_on_c, 1, 69, 0
2, 107538, Note_on_c, 1, 79, 24
2, 107649, Note_on_c, 1, 79, 0
2, 107659, Note_on_c, 1, 69, 24
2, 107768, Note_on_c, 1, 69, 0
2, 107778, Note_on_c, 1, 70, 24
2, 108126, Note_on_c, 1, 70, 0
2, 108136, Note_on_c, 1, 70, 24
2, 108247, Note_on_c, 1, 70, 0
2, 108256, Note_on_c, 1, 69, 24
2, 108367, Note_on_c, 1, 69, 0
2, 108377, Note_on_c, 1, 67, 24
2, 108487, Note_on_c, 1, 67, 0
2, 108496, Note_on_c, 1, 65, 24
2, 108964, Note_on_c, 1, 65, 0
2, 123607, Note_on_c, 1, 62, 88
2, 123846, Note_on_c, 1, 62, 0
2, 123856, Note_on_c, 1, 58, 88
2, 123966, Note_on_c, 1, 58, 0
2, 123976, Note_on_c, 1, 60, 88
2, 124085, Note_on_c, 1, 60, 0
2, 124095, Note_on_c, 1, 57, 88
2, 124206, Note_on_c, 1, 57, 0
2, 124216, Note_on_c, 1, 58, 88
2, 124325, Note_on_c, 1, 58, 0
2, 124335, Note_on_c, 1, 55, 88
2, 124565, Note_on_c, 1, 55, 0
2, 124576, Note_on_c, 1, 67, 88
2, 124805, Note_on_c, 1, 67, 0
2, 124813, Note_on_c, 1, 66, 88
2, 124923, Note_on_c, 1, 66, 0
2, 124934, Note_on_c, 1, 67, 88
2, 125043, Note_on_c, 1, 67, 0
2, 125053, Note_on_c, 1, 64, 88
2, 125163, Note_on_c, 1, 64, 0
2, 125173, Note_on_c, 1, 66, 88
2, 125283, Note_on_c, 1, 66, 0
2, 125293, Note_on_c, 1, 62, 88
2, 125521, Note_on_c, 1, 62, 0
2, 125531, Note_on_c, 1, 67, 88
2, 125641, Note_on_c, 1, 67, 0
2, 125652, Note_on_c, 1, 62, 88
2, 125762, Note_on_c, 1, 62, 0
2, 125771, Note_on_c, 1, 63, 88
2, 126001, Note_on_c, 1, 63, 0
2, 126011, Note_on_c, 1, 60, 88
2, 126240, Note_on_c, 1, 60, 0
2, 126250, Note_on_c, 1, 53, 88
2, 126490, Note_on_c, 1, 53, 0
2, 126500, Note_on_c, 1, 65, 88
2, 126730, Note_on_c, 1, 65, 0
2, 126739, Note_on_c, 1, 62, 88
2, 126848, Note_on_c, 1, 62, 0
2, 126858, Note_on_c, 1, 63, 88
2, 126969, Note_on_c, 1, 63, 0
2, 126979, Note_on_c, 1, 60, 88
2, 127088, Note_on_c, 1, 60, 0
2, 127098, Note_on_c, 1, 62, 88
2, 127208, Note_on_c, 1, 62, 0
2, 127218, Note_on_c, 1, 58, 88
2, 127448, Note_on_c, 1, 58, 0
2, 127457, Note_on_c, 1, 63, 88
2, 127566, Note_on_c, 1, 63, 0
2, 127576, Note_on_c, 1, 58, 88
2, 127687, Note_on_c, 1, 58, 0
2, 127697, Note_on_c, 1, 60, 88
2, 127926, Note_on_c, 1, 60, 0
2, 127936, Note_on_c, 1, 57, 88
2, 128166, Note_on_c, 1, 57, 0
2, 128175, Note_on_c, 1, 50, 88
2, 128405, Note_on_c, 1, 50, 0
2, 128415, Note_on_c, 1, 62, 56
2, 128644, Note_on_c, 1, 62, 0
2, 128654, Note_on_c, 1, 58, 56
2, 128764, Note_on_c, 1, 58, 0
2, 128774, Note_on_c, 1, 60, 56
2, 128885, Note_on_c, 1, 60, 0
2, 128894, Note_on_c, 1, 57, 56
2, 129003, Note_on_c, 1, 57, 0
2, 129013, Note_on_c, 1, 58, 56
2, 129123, Note_on_c, 1, 58, 0
2, 129133, Note_on_c, 1, 55, 56
2, 129243, Note_on_c, 1, 55, 0
2, 129253, Note_on_c, 1, 58, 56
2, 129363, Note_on_c, 1, 58, 0
2, 129373, Note_on_c, 1, 57, 56
2, 129483, Note_on_c, 1, 57, 0
2, 129493, Note_on_c, 1, 60, 56
2, 129603, Note_on_c, 1, 60, 0
2, 129612, Note_on_c, 1, 58, 56
2, 129721, Note_on_c, 1, 58, 0
2, 129731, Note_on_c, 1, 60, 56
2, 129841, Note_on_c, 1, 60, 0
2, 129851, Note_on_c, 1, 57, 56
2, 129961, Note_on_c, 1, 57, 0
2, 129971, Note_on_c, 1, 58, 56
2, 130080, Note_on_c, 1, 58, 0
2, 130091, Note_on_c, 1, 55, 56
2, 130211, Note_on_c, 1, 55, 0
2, 130221, Note_on_c, 1, 58, 56
2, 130330, Note_on_c, 1, 58, 0
2, 130340, Note_on_c, 1, 57, 56
2, 130450, Note_on_c, 1, 57, 0
2, 130461, Note_on_c, 1, 60, 56
2, 130569, Note_on_c, 1, 60, 0
2, 130579, Note_on_c, 1, 58, 56
2, 130689, Note_on_c, 1, 58, 0
2, 130699, Note_on_c, 1, 60, 56
2, 130809, Note_on_c, 1, 60, 0
2, 130819, Note_on_c, 1, 57, 56
2, 130929, Note_on_c, 1, 57, 0
2, 130938, Note_on_c, 1, 58, 56
2, 131048, Note_on_c, 1, 58, 0
2, 131058, Note_on_c, 1, 55, 56
2, 131169, Note_on_c, 1, 55, 0
2, 131179, Note_on_c, 1, 58, 56
2, 131288, Note_on_c, 1, 58, 0
2, 131298, Note_on_c, 1, 57, 56
2, 131408, Note_on_c, 1, 57, 0
2, 131418, Note_on_c, 1, 60, 56
2, 131528, Note_on_c, 1, 60, 0
2, 131538, Note_on_c, 1, 58, 56
2, 131646, Note_on_c, 1, 58, 0
2, 131656, Note_on_c, 1, 62, 56
2, 131766, Note_on_c, 1, 62, 0
2, 131777, Note_on_c, 1, 60, 56
2, 131886, Note_on_c, 1, 60, 0
2, 131896, Note_on_c, 1, 63, 56
2, 132006, Note_on_c, 1, 63, 0
2, 132016, Note_on_c, 1, 62, 56
2, 132126, Note_on_c, 1, 62, 0
2, 132136, Note_on_c, 1, 66, 56
2, 132247, Note_on_c, 1, 66, 0
2, 132257, Note_on_c, 1, 63, 56
2, 132365, Note_on_c, 1, 63, 0
2, 132375, Note_on_c, 1, 62, 56
2, 132484, Note_on_c, 1, 62, 0
2, 132494, Note_on_c, 1, 60, 56
2, 132603, Note_on_c, 1, 60, 0
2, 132613, Note_on_c, 1, 62, 56
2, 132724, Note_on_c, 1, 62, 0
2, 132734, Note_on_c, 1, 59, 56
2, 132844, Note_on_c, 1, 59, 0
2, 132854, Note_on_c, 1, 62, 56
2, 132964, Note_on_c, 1, 62, 0
2, 132974, Note_on_c, 1, 60, 56
2, 133083, Note_on_c, 1, 60, 0
2, 133093, Note_on_c, 1, 63, 56
2, 133204, Note_on_c, 1, 63, 0
2, 133214, Note_on_c, 1, 62, 56
2, 133322, Note_on_c, 1, 62, 0
2, 133332, Note_on_c, 1, 65, 56
2, 133442, Note_on_c, 1, 65, 0
2, 133452, Note_on_c, 1, 63, 56
2, 133562, Note_on_c, 1, 63, 0
2, 133573, Note_on_c, 1, 65, 56
2, 133682, Note_on_c, 1, 65, 0
2, 133692, Note_on_c, 1, 62, 56
2, 133801, Note_on_c, 1, 62, 0
2, 133811, Note_on_c, 1, 63, 56
2, 133921, Note_on_c, 1, 63, 0
2, 133932, Note_on_c, 1, 60, 56
2, 134041, Note_on_c, 1, 60, 0
2, 134051, Note_on_c, 1, 63, 56
2, 134170, Note_on_c, 1, 63, 0
2, 134181, Note_on_c, 1, 62, 56
2, 134291, Note_on_c, 1, 62, 0
2, 134301, Note_on_c, 1, 65, 56
2, 134409, Note_on_c, 1, 65, 0
2, 134419, Note_on_c, 1, 63, 56
2, 134529, Note_on_c, 1, 63, 0
2, 134539, Note_on_c, 1, 65, 56
2, 134649, Note_on_c, 1, 65, 0
2, 134659, Note_on_c, 1, 62, 56
2, 134769, Note_on_c, 1, 62, 0
2, 134779, Note_on_c, 1, 63, 56
2, 134889, Note_on_c, 1, 63, 0
2, 134899, Note_on_c, 1, 60, 56
2, 135009, Note_on_c, 1, 60, 0
2, 135019, Note_on_c, 1, 63, 56
2, 135127, Note_on_c, 1, 63, 0
2, 135137, Note_on_c, 1, 62, 56
2, 135248, Note_on_c, 1, 62, 0
2, 135258, Note_on_c, 1, 65, 56
2, 135368, Note_on_c, 1, 65, 0
2, 135378, Note_on_c, 1, 63, 56
2, 135487, Note_on_c, 1, 63, 0
2, 135497, Note_on_c, 1, 62, 56
2, 135607, Note_on_c, 1, 62, 0
2, 135617, Note_on_c, 1, 63, 56
2, 135728, Note_on_c, 1, 63, 0
2, 135737, Note_on_c, 1, 67, 56
2, 135846, Note_on_c, 1, 67, 0
2, 135856, Note_on_c, 1, 68, 56
2, 135966, Note_on_c, 1, 68, 0
2, 135976, Note_on_c, 1, 67, 56
2, 136085, Note_on_c, 1, 67, 0
2, 136095, Note_on_c, 1, 65, 56
2, 136205, Note_on_c, 1, 65, 0
2, 136215, Note_on_c, 1, 63, 56
2, 136326, Note_on_c, 1, 63, 0
2, 136336, Note_on_c, 1, 62, 56
2, 136445, Note_on_c, 1, 62, 0
2, 136454, Note_on_c, 1, 60, 56
2, 136564, Note_on_c, 1, 60, 0
2, 136574, Note_on_c, 1, 62, 56
2, 136684, Note_on_c, 1, 62, 0
2, 136694, Note_on_c, 1, 63, 56
2, 136803, Note_on_c, 1, 63, 0
2, 136813, Note_on_c, 1, 65, 56
2, 136923, Note_on_c, 1, 65, 0
2, 136933, Note_on_c, 1, 62, 56
2, 137043, Note_on_c, 1, 62, 0
2, 137054, Note_on_c, 1, 67, 56
2, 137881, Note_on_c, 1, 67, 0
2, 137890, Note_on_c, 1, 67, 56
2, 138001, Note_on_c, 1, 67, 0
2, 138011, Note_on_c, 1, 65, 56
2, 138131, Note_on_c, 1, 65, 0
2, 138140, Note_on_c, 1, 63, 56
2, 138250, Note_on_c, 1, 63, 0
2, 138260, Note_on_c, 1, 62, 56
2, 138369, Note_on_c, 1, 62, 0
2, 138379, Note_on_c, 1, 63, 56
2, 138489, Note_on_c, 1, 63, 0
2, 138499, Note_on_c, 1, 60, 56
2, 138608, Note_on_c, 1, 60, 0
2, 138618, Note_on_c, 1, 62, 56
2, 138728, Note_on_c, 1, 62, 0
2, 138738, Note_on_c, 1, 63, 56
2, 139686, Note_on_c, 1, 63, 0
2, 139696, Note_on_c, 1, 62, 56
2, 140643, Note_on_c, 1, 62, 0
2, 140653, Note_on_c, 1, 60, 56
2, 141602, Note_on_c, 1, 60, 0
2, 141613, Note_on_c, 1, 59, 56
2, 142090, Note_on_c, 1, 59, 0
2, 142100, Note_on_c, 1, 60, 56
2, 142569, Note_on_c, 1, 60, 0
2, 142689, Note_on_c, 1, 67, 56
2, 142808, Note_on_c, 1, 67, 0
2, 142818, Note_on_c, 1, 65, 56
2, 142928, Note_on_c, 1, 65, 0
2, 142938, Note_on_c, 1, 63, 56
2, 143047, Note_on_c, 1, 63, 0
2, 143057, Note_on_c, 1, 62, 56
2, 143646, Note_on_c, 1, 62, 0
2, 143657, Note_on_c, 1, 68, 56
2, 143766, Note_on_c, 1, 68, 0
2, 143776, Note_on_c, 1, 67, 56
2, 143885, Note_on_c, 1, 67, 0
2, 143895, Note_on_c, 1, 65, 56
2, 144005, Note_on_c, 1, 65, 0
2, 144016, Note_on_c, 1, 63, 56
2, 144125, Note_on_c, 1, 63, 0
2, 144135, Note_on_c, 1, 65, 56
2, 144245, Note_on_c, 1, 65, 0
2, 144255, Note_on_c, 1, 62, 56
2, 144365, Note_on_c, 1, 62, 0
2, 144376, Note_on_c, 1, 63, 56
2, 144484, Note_on_c, 1, 63, 0
2, 144494, Note_on_c, 1, 60, 56
2, 144603, Note_on_c, 1, 60, 0
2, 144613, Note_on_c, 1, 63, 56
2, 144723, Note_on_c, 1, 63, 0
2, 144734, Note_on_c, 1, 62, 56
2, 144843, Note_on_c, 1, 62, 0
2, 144853, Note_on_c, 1, 60, 56
2, 144963, Note_on_c, 1, 60, 0
2, 144973, Note_on_c, 1, 59, 56
2, 145083, Note_on_c, 1, 59, 0
2, 145092, Note_on_c, 1, 60, 56
2, 145202, Note_on_c, 1, 60, 0
2, 145212, Note_on_c, 1, 57, 56
2, 145322, Note_on_c, 1, 57, 0
2, 145332, Note_on_c, 1, 59, 56
2, 145442, Note_on_c, 1, 59, 0
2, 145451, Note_on_c, 1, 55, 56
2, 145561, Note_on_c, 1, 55, 0
2, 145571, Note_on_c, 1, 59, 56
2, 145681, Note_on_c, 1, 59, 0
2, 145691, Note_on_c, 1, 57, 56
2, 145801, Note_on_c, 1, 57, 0
2, 145811, Note_on_c, 1, 59, 56
2, 145920, Note_on_c, 1, 59, 0
2, 145930, Note_on_c, 1, 60, 56
2, 146050, Note_on_c, 1, 60, 0
2, 146061, Note_on_c, 1, 55, 56
2, 146170, Note_on_c, 1, 55, 0
2, 146180, Note_on_c, 1, 62, 56
2, 146290, Note_on_c, 1, 62, 0
2, 146300, Note_on_c, 1, 55, 56
2, 146409, Note_on_c, 1, 55, 0
2, 146419, Note_on_c, 1, 63, 56
2, 146529, Note_on_c, 1, 63, 0
2, 146539, Note_on_c, 1, 55, 56
2, 146648, Note_on_c, 1, 55, 0
2, 146658, Note_on_c, 1, 65, 56
2, 146768, Note_on_c, 1, 65, 0
2, 146778, Note_on_c, 1, 55, 56
2, 146888, Note_on_c, 1, 55, 0
2, 146898, Note_on_c, 1, 67, 56
2, 147008, Note_on_c, 1, 67, 0
2, 147018, Note_on_c, 1, 55, 56
2, 147128, Note_on_c, 1, 55, 0
2, 147137, Note_on_c, 1, 69, 56
2, 147247, Note_on_c, 1, 69, 0
2, 147257, Note_on_c, 1, 55, 56
2, 147367, Note_on_c, 1, 55, 0
2, 147377, Note_on_c, 1, 71, 56
2, 147487, Note_on_c, 1, 71, 0
2, 147496, Note_on_c, 1, 67, 56
2, 147606, Note_on_c, 1, 67, 0
2, 147616, Note_on_c, 1, 69, 56
2, 147726, Note_on_c, 1, 69, 0
2, 147736, Note_on_c, 1, 71, 56
2, 147846, Note_on_c, 1, 71, 0
2, 147856, Note_on_c, 1, 72, 56
2, 148444, Note_on_c, 1, 72, 0
2, 148455, Note_on_c, 1, 65, 56
2, 148563, Note_on_c, 1, 65, 0
2, 148573, Note_on_c, 1, 67, 56
2, 148683, Note_on_c, 1, 67, 0
2, 148693, Note_on_c, 1, 68, 56
2, 148803, Note_on_c, 1, 68, 0
2, 148814, Note_on_c, 1, 70, 56
2, 149402, Note_on_c, 1, 70, 0
2, 149412, Note_on_c, 1, 63, 56
2, 149521, Note_on_c, 1, 63, 0
2, 149531, Note_on_c, 1, 65, 56
2, 149641, Note_on_c, 1, 65, 0
2, 149651, Note_on_c, 1, 67, 56
2, 149761, Note_on_c, 1, 67, 0
2, 149771, Note_on_c, 1, 68, 56
2, 150848, Note_on_c, 1, 68, 0
2, 150859, Note_on_c, 1, 72, 56
2, 150968, Note_on_c, 1, 72, 0
2, 150978, Note_on_c, 1, 70, 56
2, 151088, Note_on_c, 1, 70, 0
2, 151098, Note_on_c, 1, 68, 56
2, 151208, Note_on_c, 1, 68, 0
2, 151217, Note_on_c, 1, 67, 56
2, 151327, Note_on_c, 1, 67, 0
2, 151337, Note_on_c, 1, 68, 56
2, 151447, Note_on_c, 1, 68, 0
2, 151457, Note_on_c, 1, 65, 56
2, 151566, Note_on_c, 1, 65, 0
2, 151576, Note_on_c, 1, 67, 56
2, 151685, Note_on_c, 1, 67, 0
2, 151695, Note_on_c, 1, 63, 56
2, 151806, Note_on_c, 1, 63, 0
2, 151816, Note_on_c, 1, 65, 56
2, 151926, Note_on_c, 1, 65, 0
2, 151936, Note_on_c, 1, 62, 56
2, 152045, Note_on_c, 1, 62, 0
2, 152055, Note_on_c, 1, 63, 56
2, 152165, Note_on_c, 1, 63, 0
2, 152175, Note_on_c, 1, 60, 56
2, 152404, Note_on_c, 1, 60, 0
2, 152414, Note_on_c, 1, 65, 56
2, 152643, Note_on_c, 1, 65, 0
2, 152653, Note_on_c, 1, 58, 56
2, 152763, Note_on_c, 1, 58, 0
2, 152773, Note_on_c, 1, 60, 56
2, 152883, Note_on_c, 1, 60, 0
2, 152893, Note_on_c, 1, 56, 56
2, 153003, Note_on_c, 1, 56, 0
2, 153013, Note_on_c, 1, 58, 56
2, 153123, Note_on_c, 1, 58, 0
2, 153133, Note_on_c, 1, 55, 56
2, 154090, Note_on_c, 1, 55, 0
2, 154100, Note_on_c, 1, 53, 56
2, 155048, Note_on_c, 1, 53, 0
2, 155058, Note_on_c, 1, 51, 56
2, 156005, Note_on_c, 1, 51, 0
2, 156015, Note_on_c, 1, 50, 56
2, 156483, Note_on_c, 1, 50, 0
2, 156493, Note_on_c, 1, 51, 56
2, 156724, Note_on_c, 1, 51, 0
2, 156734, Note_on_c, 1, 53, 56
2, 156962, Note_on_c, 1, 53, 0
2, 156972, Note_on_c, 1, 55, 56
2, 157202, Note_on_c, 1, 55, 0
2, 157212, Note_on_c, 1, 58, 56
2, 157441, Note_on_c, 1, 58, 0
2, 157452, Note_on_c, 1, 58, 56
2, 157681, Note_on_c, 1, 58, 0
2, 158648, Note_on_c, 1, 62, 56
2, 158888, Note_on_c, 1, 62, 0
2, 158898, Note_on_c, 1, 58, 56
2, 159128, Note_on_c, 1, 58, 0
2, 159138, Note_on_c, 1, 58, 56
2, 159367, Note_on_c, 1, 58, 0
2, 159377, Note_on_c, 1, 58, 56
2, 159605, Note_on_c, 1, 58, 0
2, 159615, Note_on_c, 1, 63, 56
2, 159845, Note_on_c, 1, 63, 0
2, 159855, Note_on_c, 1, 62, 56
2, 160085, Note_on_c, 1, 62, 0
2, 160095, Note_on_c, 1, 65, 56
2, 160323, Note_on_c, 1, 65, 0
2, 160333, Note_on_c, 1, 65, 56
2, 160564, Note_on_c, 1, 65, 0
2, 161520, Program_c, 1, 0
2, 161521, Note_on_c, 1, 53, 104
2, 161760, Note_on_c, 1, 53, 0
2, 161770, Note_on_c, 1, 58, 104
2, 162010, Note_on_c, 1, 58, 0
2, 162020, Note_on_c, 1, 57, 104
2, 162249, Note_on_c, 1, 57, 0
2, 162259, Note_on_c, 1, 58, 104
2, 162489, Note_on_c, 1, 58, 0
2, 162499, Note_on_c, 1, 57, 104
2, 162729, Note_on_c, 1, 57, 0
2, 162739, Note_on_c, 1, 62, 104
2, 162967, Note_on_c, 1, 62, 0
2, 162977, Note_on_c, 1, 65, 104
2, 163207, Note_on_c, 1, 65, 0
2, 163207, Program_c, 1, 0
2, 163210, Note_on_c, 1, 58, 72
2, 163686, Note_on_c, 1, 58, 0
2, 163925, Note_on_c, 1, 60, 72
2, 164164, Note_on_c, 1, 60, 0
2, 164174, Note_on_c, 1, 65, 72
2, 164403, Note_on_c, 1, 65, 0
2, 164413, Note_on_c, 1, 67, 72
2, 164643, Note_on_c, 1, 67, 0
2, 164653, Note_on_c, 1, 68, 72
2, 164883, Note_on_c, 1, 68, 0
2, 164893, Note_on_c, 1, 65, 72
2, 165122, Note_on_c, 1, 65, 0
2, 165132, Note_on_c, 1, 70, 72
2, 165242, Note_on_c, 1, 70, 0
2, 165252, Note_on_c, 1, 72, 72
2, 165362, Note_on_c, 1, 72, 0
2, 165371, Note_on_c, 1, 68, 72
2, 165480, Note_on_c, 1, 68, 0
2, 165491, Note_on_c, 1, 70, 72
2, 165601, Note_on_c, 1, 70, 0
2, 165611, Note_on_c, 1, 67, 72
2, 165730, Note_on_c, 1, 67, 0
2, 165740, Note_on_c, 1, 68, 72
2, 165850, Note_on_c, 1, 68, 0
2, 165860, Note_on_c, 1, 65, 72
2, 165970, Note_on_c, 1, 65, 0
2, 165980, Note_on_c, 1, 67, 72
2, 166089, Note_on_c, 1, 67, 0
2, 166100, Note_on_c, 1, 63, 72
2, 166329, Note_on_c, 1, 63, 0
2, 166339, Note_on_c, 1, 65, 72
2, 166568, Note_on_c, 1, 65, 0
2, 166578, Note_on_c, 1, 67, 72
2, 166807, Note_on_c, 1, 67, 0
2, 166818, Note_on_c, 1, 63, 72
2, 167047, Note_on_c, 1, 63, 0
2, 167057, Note_on_c, 1, 68, 72
2, 167167, Note_on_c, 1, 68, 0
2, 167177, Note_on_c, 1, 70, 72
2, 167286, Note_on_c, 1, 70, 0
2, 167296, Note_on_c, 1, 67, 72
2, 167406, Note_on_c, 1, 67, 0
2, 167415, Note_on_c, 1, 68, 72
2, 167525, Note_on_c, 1, 68, 0
2, 167535, Note_on_c, 1, 65, 72
2, 167646, Note_on_c, 1, 65, 0
2, 167656, Note_on_c, 1, 67, 72
2, 167766, Note_on_c, 1, 67, 0
2, 167775, Note_on_c, 1, 63, 72
2, 167885, Note_on_c, 1, 63, 0
2, 167895, Note_on_c, 1, 65, 72
2, 168005, Note_on_c, 1, 65, 0
2, 168015, Note_on_c, 1, 61, 72
2, 168244, Note_on_c, 1, 61, 0
2, 168254, Note_on_c, 1, 63, 72
2, 168484, Note_on_c, 1, 63, 0
2, 168493, Note_on_c, 1, 65, 72
2, 168723, Note_on_c, 1, 65, 0
2, 168733, Note_on_c, 1, 61, 72
2, 168962, Note_on_c, 1, 61, 0
2, 168972, Note_on_c, 1, 67, 72
2, 169202, Note_on_c, 1, 67, 0
2, 169212, Note_on_c, 1, 62, 72
2, 169442, Note_on_c, 1, 62, 0
2, 169452, Note_on_c, 1, 63, 72
2, 169691, Note_on_c, 1, 63, 0
2, 169701, Note_on_c, 1, 59, 72
2, 169930, Note_on_c, 1, 59, 0
2, 169940, Note_on_c, 1, 60, 72
2, 170170, Note_on_c, 1, 60, 0
2, 170179, Note_on_c, 1, 55, 72
2, 170409, Note_on_c, 1, 55, 0
2, 170419, Note_on_c, 1, 60, 72
2, 170648, Note_on_c, 1, 60, 0
2, 170658, Note_on_c, 1, 59, 72
2, 170888, Note_on_c, 1, 59, 0
2, 170897, Note_on_c, 1, 60, 72
2, 171366, Note_on_c, 1, 60, 0
2, 171605, Note_on_c, 1, 67, 72
2, 171845, Note_on_c, 1, 67, 0
2, 171855, Note_on_c, 1, 67, 72
2, 172085, Note_on_c, 1, 67, 0
2, 172095, Note_on_c, 1, 65, 72
2, 172323, Note_on_c, 1, 65, 0
2, 172334, Note_on_c, 1, 63, 72
2, 172563, Note_on_c, 1, 63, 0
2, 172573, Note_on_c, 1, 55, 72
2, 172802, Note_on_c, 1, 55, 0
2, 172812, Note_on_c, 1, 60, 72
2, 173282, Note_on_c, 1, 60, 0
2, 173521, Note_on_c, 1, 57, 72
2, 173771, Note_on_c, 1, 57, 0
2, 173781, Note_on_c, 1, 55, 72
2, 174010, Note_on_c, 1, 55, 0
2, 174020, Note_on_c, 1, 62, 72
2, 174249, Note_on_c, 1, 62, 0
2, 174258, Note_on_c, 1, 67, 72
2, 174488, Note_on_c, 1, 67, 0
2, 174498, Note_on_c, 1, 66, 72
2, 174728, Note_on_c, 1, 66, 0
2, 174738, Note_on_c, 1, 67, 72
2, 175207, Note_on_c, 1, 67, 0
2, 175446, Note_on_c, 1, 74, 72
2, 175686, Note_on_c, 1, 74, 0
2, 175695, Note_on_c, 1, 74, 72
2, 175925, Note_on_c, 1, 74, 0
2, 175935, Note_on_c, 1, 72, 72
2, 176164, Note_on_c, 1, 72, 0
2, 176175, Note_on_c, 1, 70, 72
2, 176404, Note_on_c, 1, 70, 0
2, 176413, Note_on_c, 1, 62, 72
2, 176643, Note_on_c, 1, 62, 0
2, 176653, Note_on_c, 1, 67, 72
2, 177122, Note_on_c, 1, 67, 0
2, 177361, Note_on_c, 1, 72, 72
2, 177481, Note_on_c, 1, 72, 0
2, 177491, Note_on_c, 1, 70, 72
2, 177612, Note_on_c, 1, 70, 0
2, 177622, Note_on_c, 1, 69, 72
2, 177730, Note_on_c, 1, 69, 0
2, 177740, Note_on_c, 1, 67, 72
2, 177849, Note_on_c, 1, 67, 0
2, 177860, Note_on_c, 1, 66, 72
2, 177969, Note_on_c, 1, 66, 0
2, 177979, Note_on_c, 1, 64, 72
2, 178089, Note_on_c, 1, 64, 0
2, 178099, Note_on_c, 1, 62, 72
2, 178209, Note_on_c, 1, 62, 0
2, 178220, Note_on_c, 1, 60, 72
2, 178329, Note_on_c, 1, 60, 0
2, 178339, Note_on_c, 1, 58, 72
2, 178448, Note_on_c, 1, 58, 0
2, 178458, Note_on_c, 1, 57, 72
2, 178570, Note_on_c, 1, 57, 0
2, 178579, Note_on_c, 1, 55, 72
2, 178687, Note_on_c, 1, 55, 0
2, 178697, Note_on_c, 1, 53, 72
2, 178807, Note_on_c, 1, 53, 0
2, 178817, Note_on_c, 1, 51, 72
2, 178927, Note_on_c, 1, 51, 0
2, 178937, Note_on_c, 1, 50, 72
2, 179046, Note_on_c, 1, 50, 0
2, 179056, Note_on_c, 1, 48, 72
2, 179166, Note_on_c, 1, 48, 0
2, 179176, Note_on_c, 1, 46, 72
2, 179286, Note_on_c, 1, 46, 0
2, 179296, Note_on_c, 1, 45, 72
2, 179405, Note_on_c, 1, 45, 0
2, 179415, Note_on_c, 1, 43, 72
2, 179526, Note_on_c, 1, 43, 0
2, 179536, Note_on_c, 1, 50, 72
2, 179764, Note_on_c, 1, 50, 0
2, 179774, Note_on_c, 1, 38, 72
2, 180004, Note_on_c, 1, 38, 0
2, 180124, Program_c, 1, 0
2, 180124, Note_on_c, 1, 55, 88
2, 180243, Note_on_c, 1, 55, 0
2, 180253, Note_on_c, 1, 57, 88
2, 180364, Note_on_c, 1, 57, 0
2, 180373, Note_on_c, 1, 58, 88
2, 180483, Note_on_c, 1, 58, 0
2, 180493, Note_on_c, 1, 48, 88
2, 180603, Note_on_c, 1, 48, 0
2, 180613, Note_on_c, 1, 51, 88
2, 180722, Note_on_c, 1, 51, 0
2, 180732, Note_on_c, 1, 55, 88
2, 180842, Note_on_c, 1, 55, 0
2, 180852, Note_on_c, 1, 58, 88
2, 180962, Note_on_c, 1, 58, 0
2, 180972, Note_on_c, 1, 57, 88
2, 181082, Note_on_c, 1, 57, 0
2, 181092, Note_on_c, 1, 60, 88
2, 181201, Note_on_c, 1, 60, 0
2, 181211, Note_on_c, 1, 53, 88
2, 181321, Note_on_c, 1, 53, 0
2, 181331, Note_on_c, 1, 57, 88
2, 181441, Note_on_c, 1, 57, 0
2, 181451, Note_on_c, 1, 46, 88
2, 181570, Note_on_c, 1, 46, 0
2, 181580, Note_on_c, 1, 50, 88
2, 181690, Note_on_c, 1, 50, 0
2, 181700, Note_on_c, 1, 53, 88
2, 181810, Note_on_c, 1, 53, 0
2, 181820, Note_on_c, 1, 57, 88
2, 181929, Note_on_c, 1, 57, 0
2, 181940, Note_on_c, 1, 55, 88
2, 182049, Note_on_c, 1, 55, 0
2, 182059, Note_on_c, 1, 58, 88
2, 182169, Note_on_c, 1, 58, 0
2, 182179, Note_on_c, 1, 51, 88
2, 182288, Note_on_c, 1, 51, 0
2, 182299, Note_on_c, 1, 55, 88
2, 182409, Note_on_c, 1, 55, 0
2, 182419, Note_on_c, 1, 45, 88
2, 182527, Note_on_c, 1, 45, 0
2, 182537, Note_on_c, 1, 48, 88
2, 182648, Note_on_c, 1, 48, 0
2, 182658, Note_on_c, 1, 51, 88
2, 182767, Note_on_c, 1, 51, 0
2, 182777, Note_on_c, 1, 55, 88
2, 182887, Note_on_c, 1, 55, 0
2, 182897, Note_on_c, 1, 54, 88
2, 183007, Note_on_c, 1, 54, 0
2, 183017, Note_on_c, 1, 57, 88
2, 183127, Note_on_c, 1, 57, 0
2, 183136, Note_on_c, 1, 50, 88
2, 183246, Note_on_c, 1, 50, 0
2, 183256, Note_on_c, 1, 54, 88
2, 183365, Note_on_c, 1, 54, 0
2, 183376, Note_on_c, 1, 43, 88
2, 183605, Note_on_c, 1, 43, 0
2, 183615, Note_on_c, 1, 45, 88
2, 183845, Note_on_c, 1, 45, 0
2, 183854, Note_on_c, 1, 46, 88
2, 184083, Note_on_c, 1, 46, 0
2, 184093, Note_on_c, 1, 43, 88
2, 184323, Note_on_c, 1, 43, 0
2, 184333, Note_on_c, 1, 50, 88
2, 184563, Note_on_c, 1, 50, 0
2, 184572, Note_on_c, 1, 52, 88
2, 184802, Note_on_c, 1, 52, 0
2, 184812, Note_on_c, 1, 54, 88
2, 185041, Note_on_c, 1, 54, 0
2, 185051, Note_on_c, 1, 50, 88
2, 185282, Note_on_c, 1, 50, 0
2, 185290, Note_on_c, 1, 55, 88
2, 185530, Note_on_c, 1, 55, 0
2, 185540, Note_on_c, 1, 57, 88
2, 185770, Note_on_c, 1, 57, 0
2, 185780, Note_on_c, 1, 58, 88
2, 186009, Note_on_c, 1, 58, 0
2, 186019, Note_on_c, 1, 55, 88
2, 186249, Note_on_c, 1, 55, 0
2, 186259, Note_on_c, 1, 60, 88
2, 186488, Note_on_c, 1, 60, 0
2, 186499, Note_on_c, 1, 62, 88
2, 186727, Note_on_c, 1, 62, 0
2, 186737, Note_on_c, 1, 63, 88
2, 186967, Note_on_c, 1, 63, 0
2, 186977, Note_on_c, 1, 60, 88
2, 187206, Note_on_c, 1, 60, 0
2, 187217, Note_on_c, 1, 53, 88
2, 187445, Note_on_c, 1, 53, 0
2, 187455, Note_on_c, 1, 55, 88
2, 187685, Note_on_c, 1, 55, 0
2, 187695, Note_on_c, 1, 57, 88
2, 187924, Note_on_c, 1, 57, 0
2, 187935, Note_on_c, 1, 53, 88
2, 188164, Note_on_c, 1, 53, 0
2, 188174, Note_on_c, 1, 58, 88
2, 188404, Note_on_c, 1, 58, 0
2, 188414, Note_on_c, 1, 60, 88
2, 188642, Note_on_c, 1, 60, 0
2, 188653, Note_on_c, 1, 62, 88
2, 188882, Note_on_c, 1, 62, 0
2, 188892, Note_on_c, 1, 58, 88
2, 189122, Note_on_c, 1, 58, 0
2, 189131, Note_on_c, 1, 63, 88
2, 189241, Note_on_c, 1, 63, 0
2, 189251, Note_on_c, 1, 65, 88
2, 189361, Note_on_c, 1, 65, 0
2, 189371, Note_on_c, 1, 62, 88
2, 189490, Note_on_c, 1, 62, 0
2, 189500, Note_on_c, 1, 63, 88
2, 189610, Note_on_c, 1, 63, 0
2, 189620, Note_on_c, 1, 60, 88
2, 189730, Note_on_c, 1, 60, 0
2, 189740, Note_on_c, 1, 62, 88
2, 189849, Note_on_c, 1, 62, 0
2, 189859, Note_on_c, 1, 58, 88
2, 189969, Note_on_c, 1, 58, 0
2, 189979, Note_on_c, 1, 60, 88
2, 190089, Note_on_c, 1, 60, 0
2, 190098, Note_on_c, 1, 57, 88
2, 190209, Note_on_c, 1, 57, 0
2, 190219, Note_on_c, 1, 58, 88
2, 190329, Note_on_c, 1, 58, 0
2, 190339, Note_on_c, 1, 55, 88
2, 190449, Note_on_c, 1, 55, 0
2, 190458, Note_on_c, 1, 57, 88
2, 190568, Note_on_c, 1, 57, 0
2, 190578, Note_on_c, 1, 54, 88
2, 190687, Note_on_c, 1, 54, 0
2, 190698, Note_on_c, 1, 55, 88
2, 190807, Note_on_c, 1, 55, 0
2, 190816, Note_on_c, 1, 52, 88
2, 190927, Note_on_c, 1, 52, 0
2, 190937, Note_on_c, 1, 54, 88
2, 191047, Note_on_c, 1, 54, 0
2, 191057, Note_on_c, 1, 50, 88
2, 191167, Note_on_c, 1, 50, 0
2, 191176, Note_on_c, 1, 51, 88
2, 191286, Note_on_c, 1, 51, 0
2, 191296, Note_on_c, 1, 48, 88
2, 191406, Note_on_c, 1, 48, 0
2, 191416, Note_on_c, 1, 50, 88
2, 191525, Note_on_c, 1, 50, 0
2, 191535, Note_on_c, 1, 46, 88
2, 191645, Note_on_c, 1, 46, 0
2, 191655, Note_on_c, 1, 48, 88
2, 191764, Note_on_c, 1, 48, 0
2, 191774, Note_on_c, 1, 45, 88
2, 191884, Note_on_c, 1, 45, 0
2, 191894, Note_on_c, 1, 48, 88
2, 192004, Note_on_c, 1, 48, 0
2, 192015, Note_on_c, 1, 46, 88
2, 192123, Note_on_c, 1, 46, 0
2, 192132, Note_on_c, 1, 48, 88
2, 192244, Note_on_c, 1, 48, 0
2, 192254, Note_on_c, 1, 45, 88
2, 192364, Note_on_c, 1, 45, 0
2, 192374, Note_on_c, 1, 46, 88
2, 192483, Note_on_c, 1, 46, 0
2, 192492, Note_on_c, 1, 43, 88
2, 192722, Note_on_c, 1, 43, 0
2, 192733, Note_on_c, 1, 55, 88
2, 192962, Note_on_c, 1, 55, 0
2, 192972, Note_on_c, 1, 54, 88
2, 193082, Note_on_c, 1, 54, 0
2, 193092, Note_on_c, 1, 55, 88
2, 193202, Note_on_c, 1, 55, 0
2, 193211, Note_on_c, 1, 52, 88
2, 193321, Note_on_c, 1, 52, 0
2, 193331, Note_on_c, 1, 54, 88
2, 193451, Note_on_c, 1, 54, 0
2, 193461, Note_on_c, 1, 50, 88
2, 193689, Note_on_c, 1, 50, 0
2, 193699, Note_on_c, 1, 55, 88
2, 193810, Note_on_c, 1, 55, 0
2, 193820, Note_on_c, 1, 50, 88
2, 193929, Note_on_c, 1, 50, 0
2, 193939, Note_on_c, 1, 51, 88
2, 194169, Note_on_c, 1, 51, 0
2, 194178, Note_on_c, 1, 48, 88
2, 194409, Note_on_c, 1, 48, 0
2, 194419, Note_on_c, 1, 41, 88
2, 194647, Note_on_c, 1, 41, 0
2, 194657, Note_on_c, 1, 53, 88
2, 194886, Note_on_c, 1, 53, 0
2, 194896, Note_on_c, 1, 50, 88
2, 195007, Note_on_c, 1, 50, 0
2, 195017, Note_on_c, 1, 51, 88
2, 195127, Note_on_c, 1, 51, 0
2, 195137, Note_on_c, 1, 48, 88
2, 195246, Note_on_c, 1, 48, 0
2, 195256, Note_on_c, 1, 50, 88
2, 195365, Note_on_c, 1, 50, 0
2, 195375, Note_on_c, 1, 46, 88
2, 195604, Note_on_c, 1, 46, 0
2, 195614, Note_on_c, 1, 51, 88
2, 195725, Note_on_c, 1, 51, 0
2, 195735, Note_on_c, 1, 46, 88
2, 195845, Note_on_c, 1, 46, 0
2, 195855, Note_on_c, 1, 48, 88
2, 196084, Note_on_c, 1, 48, 0
2, 196094, Note_on_c, 1, 45, 88
2, 196323, Note_on_c, 1, 45, 0
2, 196333, Note_on_c, 1, 38, 88
2, 196563, Note_on_c, 1, 38, 0
2, 196573, Note_on_c, 1, 50, 88
2, 196803, Note_on_c, 1, 50, 0
2, 196812, Note_on_c, 1, 55, 88
2, 197041, Note_on_c, 1, 55, 0
2, 197051, Note_on_c, 1, 53, 88
2, 197281, Note_on_c, 1, 53, 0
2, 197291, Note_on_c, 1, 51, 88
2, 197770, Note_on_c, 1, 51, 0
2, 197780, Note_on_c, 1, 50, 88
2, 198248, Note_on_c, 1, 50, 0
2, 198258, Note_on_c, 1, 58, 88
2, 199206, Note_on_c, 1, 58, 0
2, 199216, Note_on_c, 1, 57, 88
2, 200163, Note_on_c, 1, 57, 0
2, 200173, Note_on_c, 1, 55, 88
2, 201121, Note_on_c, 1, 55, 0
2, 201131, Note_on_c, 1, 54, 88
2, 201609, Note_on_c, 1, 54, 0
2, 201619, Note_on_c, 1, 55, 88
2, 202088, Note_on_c, 1, 55, 0
2, 203166, Note_on_c, 1, 62, 56
2, 203285, Note_on_c, 1, 62, 0
2, 203295, Note_on_c, 1, 60, 56
2, 203405, Note_on_c, 1, 60, 0
2, 203415, Note_on_c, 1, 62, 56
2, 203525, Note_on_c, 1, 62, 0
2, 203535, Note_on_c, 1, 58, 56
2, 203644, Note_on_c, 1, 58, 0
2, 203654, Note_on_c, 1, 60, 56
2, 203764, Note_on_c, 1, 60, 0
2, 203774, Note_on_c, 1, 57, 56
2, 203882, Note_on_c, 1, 57, 0
2, 203892, Note_on_c, 1, 58, 56
2, 204003, Note_on_c, 1, 58, 0
2, 204013, Note_on_c, 1, 55, 56
2, 204123, Note_on_c, 1, 55, 0
2, 204133, Note_on_c, 1, 57, 56
2, 204243, Note_on_c, 1, 57, 0
2, 204252, Note_on_c, 1, 53, 56
2, 204362, Note_on_c, 1, 53, 0
2, 204372, Note_on_c, 1, 55, 56
2, 204482, Note_on_c, 1, 55, 0
2, 204492, Note_on_c, 1, 51, 56
2, 204602, Note_on_c, 1, 51, 0
2, 204612, Note_on_c, 1, 53, 56
2, 204721, Note_on_c, 1, 53, 0
2, 204731, Note_on_c, 1, 50, 56
2, 204841, Note_on_c, 1, 50, 0
2, 204851, Note_on_c, 1, 51, 56
2, 204961, Note_on_c, 1, 51, 0
2, 204970, Note_on_c, 1, 48, 56
2, 205080, Note_on_c, 1, 48, 0
2, 205090, Note_on_c, 1, 60, 56
2, 205211, Note_on_c, 1, 60, 0
2, 205220, Note_on_c, 1, 58, 56
2, 205330, Note_on_c, 1, 58, 0
2, 205340, Note_on_c, 1, 60, 56
2, 205450, Note_on_c, 1, 60, 0
2, 205460, Note_on_c, 1, 57, 56
2, 205570, Note_on_c, 1, 57, 0
2, 205580, Note_on_c, 1, 58, 56
2, 205688, Note_on_c, 1, 58, 0
2, 205698, Note_on_c, 1, 55, 56
2, 205808, Note_on_c, 1, 55, 0
2, 205818, Note_on_c, 1, 57, 56
2, 205929, Note_on_c, 1, 57, 0
2, 205939, Note_on_c, 1, 53, 56
2, 206048, Note_on_c, 1, 53, 0
2, 206058, Note_on_c, 1, 55, 56
2, 206168, Note_on_c, 1, 55, 0
2, 206178, Note_on_c, 1, 51, 56
2, 206289, Note_on_c, 1, 51, 0
2, 206298, Note_on_c, 1, 53, 56
2, 206406, Note_on_c, 1, 53, 0
2, 206416, Note_on_c, 1, 50, 56
2, 206526, Note_on_c, 1, 50, 0
2, 206536, Note_on_c, 1, 51, 56
2, 206646, Note_on_c, 1, 51, 0
2, 206656, Note_on_c, 1, 48, 56
2, 206766, Note_on_c, 1, 48, 0
2, 206776, Note_on_c, 1, 50, 56
2, 206886, Note_on_c, 1, 50, 0
2, 206896, Note_on_c, 1, 46, 56
2, 207007, Note_on_c, 1, 46, 0
2, 207016, Note_on_c, 1, 58, 56
2, 207125, Note_on_c, 1, 58, 0
2, 207135, Note_on_c, 1, 57, 56
2, 207245, Note_on_c, 1, 57, 0
2, 207255, Note_on_c, 1, 58, 56
2, 207365, Note_on_c, 1, 58, 0
2, 207375, Note_on_c, 1, 55, 56
2, 207484, Note_on_c, 1, 55, 0
2, 207494, Note_on_c, 1, 57, 56
2, 207604, Note_on_c, 1, 57, 0
2, 207614, Note_on_c, 1, 54, 56
2, 207724, Note_on_c, 1, 54, 0
2, 207734, Note_on_c, 1, 55, 56
2, 207843, Note_on_c, 1, 55, 0
2, 207853, Note_on_c, 1, 52, 56
2, 208082, Note_on_c, 1, 52, 0
2, 208092, Note_on_c, 1, 57, 56
2, 208322, Note_on_c, 1, 57, 0
2, 208333, Note_on_c, 1, 50, 56
2, 208801, Note_on_c, 1, 50, 0
2, 208811, Note_on_c, 1, 52, 56
2, 209040, Note_on_c, 1, 52, 0
2, 209050, Note_on_c, 1, 54, 56
2, 209290, Note_on_c, 1, 54, 0
2, 209300, Note_on_c, 1, 55, 56
2, 209529, Note_on_c, 1, 55, 0
2, 209539, Note_on_c, 1, 48, 56
2, 209768, Note_on_c, 1, 48, 0
2, 209778, Note_on_c, 1, 50, 56
2, 210248, Note_on_c, 1, 50, 0
2, 210257, Note_on_c, 1, 50, 56
2, 210487, Note_on_c, 1, 50, 0
2, 210966, Program_c, 1, 0
2, 210966, Note_on_c, 1, 75, 88
2, 211205, Note_on_c, 1, 75, 0
2, 211215, Note_on_c, 1, 74, 88
2, 211685, Note_on_c, 1, 74, 0
2, 211924, Note_on_c, 1, 74, 88
2, 212163, Note_on_c, 1, 74, 0
2, 212173, Note_on_c, 1, 79, 88
2, 212283, Note_on_c, 1, 79, 0
2, 212293, Note_on_c, 1, 77, 88
2, 212403, Note_on_c, 1, 77, 0
2, 212413, Note_on_c, 1, 75, 88
2, 212522, Note_on_c, 1, 75, 0
2, 212532, Note_on_c, 1, 74, 88
2, 212643, Note_on_c, 1, 74, 0
2, 212652, Note_on_c, 1, 72, 88
2, 212881, Note_on_c, 1, 72, 0
2, 212891, Note_on_c, 1, 74, 88
2, 213001, Note_on_c, 1, 74, 0
2, 213011, Note_on_c, 1, 75, 88
2, 213131, Note_on_c, 1, 75, 0
2, 213141, Note_on_c, 1, 77, 88
2, 213250, Note_on_c, 1, 77, 0
2, 213260, Note_on_c, 1, 79, 88
2, 213370, Note_on_c, 1, 79, 0
2, 213380, Note_on_c, 1, 75, 88
2, 213490, Note_on_c, 1, 75, 0
2, 213500, Note_on_c, 1, 77, 88
2, 213608, Note_on_c, 1, 77, 0
2, 213618, Note_on_c, 1, 74, 88
2, 213849, Note_on_c, 1, 74, 0
2, 213859, Note_on_c, 1, 70, 88
2, 214089, Note_on_c, 1, 70, 0
2, 214098, Note_on_c, 1, 75, 88
2, 214208, Note_on_c, 1, 75, 0
2, 214218, Note_on_c, 1, 74, 88
2, 214328, Note_on_c, 1, 74, 0
2, 214338, Note_on_c, 1, 72, 88
2, 214448, Note_on_c, 1, 72, 0
2, 214458, Note_on_c, 1, 70, 88
2, 214566, Note_on_c, 1, 70, 0
2, 214576, Note_on_c, 1, 69, 88
2, 214807, Note_on_c, 1, 69, 0
2, 214817, Note_on_c, 1, 70, 88
2, 214926, Note_on_c, 1, 70, 0
2, 214936, Note_on_c, 1, 72, 88
2, 215046, Note_on_c, 1, 72, 0
2, 215056, Note_on_c, 1, 74, 88
2, 215165, Note_on_c, 1, 74, 0
2, 215176, Note_on_c, 1, 75, 88
2, 215285, Note_on_c, 1, 75, 0
2, 215295, Note_on_c, 1, 72, 88
2, 215405, Note_on_c, 1, 72, 0
2, 215415, Note_on_c, 1, 74, 88
2, 215524, Note_on_c, 1, 74, 0
2, 215534, Note_on_c, 1, 70, 88
2, 215764, Note_on_c, 1, 70, 0
2, 215774, Note_on_c, 1, 78, 88
2, 216002, Note_on_c, 1, 78, 0
2, 216012, Note_on_c, 1, 79, 88
2, 216243, Note_on_c, 1, 79, 0
2, 216253, Note_on_c, 1, 72, 88
2, 216482, Note_on_c, 1, 72, 0
2, 216492, Note_on_c, 1, 70, 88
2, 216721, Note_on_c, 1, 70, 0
2, 216731, Note_on_c, 1, 78, 88
2, 216961, Note_on_c, 1, 78, 0
2, 216971, Note_on_c, 1, 79, 88
2, 217209, Note_on_c, 1, 79, 0
2, 217220, Note_on_c, 1, 72, 88
2, 217449, Note_on_c, 1, 72, 0
2, 217459, Note_on_c, 1, 70, 88
2, 217689, Note_on_c, 1, 70, 0
2, 217699, Note_on_c, 1, 78, 88
2, 217928, Note_on_c, 1, 78, 0
2, 217938, Note_on_c, 1, 79, 88
2, 218170, Note_on_c, 1, 79, 0
2, 218179, Note_on_c, 1, 81, 88
2, 218402, Note_on_c, 1, 81, 0
2, 218411, Note_on_c, 1, 74, 88
2, 218644, Note_on_c, 1, 74, 0
2, 218654, Note_on_c, 1, 78, 88
2, 218881, Note_on_c, 1, 78, 0
2, 218882, Program_c, 1, 0
2, 222720, End_track
3, 0, Start_track
3, 0, Program_c, 2, 0
3, 0, Program_c, 2, 0
3, 6485, Note_on_c, 2, 67, 72
3, 6725, Note_on_c, 2, 67, 0
3, 6734, Note_on_c, 2, 65, 72
3, 6842, Note_on_c, 2, 65, 0
3, 6852, Note_on_c, 2, 67, 72
3, 6963, Note_on_c, 2, 67, 0
3, 6973, Note_on_c, 2, 64, 72
3, 7082, Note_on_c, 2, 64, 0
3, 7092, Note_on_c, 2, 65, 72
3, 7202, Note_on_c, 2, 65, 0
3, 7212, Note_on_c, 2, 62, 72
3, 7442, Note_on_c, 2, 62, 0
3, 7452, Note_on_c, 2, 74, 72
3, 7681, Note_on_c, 2, 74, 0
3, 7691, Note_on_c, 2, 73, 72
3, 7801, Note_on_c, 2, 73, 0
3, 7811, Note_on_c, 2, 74, 72
3, 7931, Note_on_c, 2, 74, 0
3, 7941, Note_on_c, 2, 71, 72
3, 8051, Note_on_c, 2, 71, 0
3, 8061, Note_on_c, 2, 73, 72
3, 8170, Note_on_c, 2, 73, 0
3, 8180, Note_on_c, 2, 69, 72
3, 8409, Note_on_c, 2, 69, 0
3, 8419, Note_on_c, 2, 74, 72
3, 8529, Note_on_c, 2, 74, 0
3, 8539, Note_on_c, 2, 69, 72
3, 8648, Note_on_c, 2, 69, 0
3, 8659, Note_on_c, 2, 70, 72
3, 8887, Note_on_c, 2, 70, 0
3, 8897, Note_on_c, 2, 67, 72
3, 9128, Note_on_c, 2, 67, 0
3, 9138, Note_on_c, 2, 60, 72
3, 9366, Note_on_c, 2, 60, 0
3, 9377, Note_on_c, 2, 72, 72
3, 9606, Note_on_c, 2, 72, 0
3, 9616, Note_on_c, 2, 69, 72
3, 9726, Note_on_c, 2, 69, 0
3, 9736, Note_on_c, 2, 70, 72
3, 9845, Note_on_c, 2, 70, 0
3, 9855, Note_on_c, 2, 67, 72
3, 9965, Note_on_c, 2, 67, 0
3, 9975, Note_on_c, 2, 69, 72
3, 10085, Note_on_c, 2, 69, 0
3, 10096, Note_on_c, 2, 65, 72
3, 10324, Note_on_c, 2, 65, 0
3, 10334, Note_on_c, 2, 70, 72
3, 10444, Note_on_c, 2, 70, 0
3, 10454, Note_on_c, 2, 65, 72
3, 10564, Note_on_c, 2, 65, 0
3, 10574, Note_on_c, 2, 67, 72
3, 10803, Note_on_c, 2, 67, 0
3, 10813, Note_on_c, 2, 64, 72
3, 11042, Note_on_c, 2, 64, 0
3, 11052, Note_on_c, 2, 57, 72
3, 11281, Note_on_c, 2, 57, 0
3, 11291, Note_on_c, 2, 69, 72
3, 11522, Note_on_c, 2, 69, 0
3, 11532, Note_on_c, 2, 65, 72
3, 11641, Note_on_c, 2, 65, 0
3, 11651, Note_on_c, 2, 67, 72
3, 11761, Note_on_c, 2, 67, 0
3, 11771, Note_on_c, 2, 64, 72
3, 11891, Note_on_c, 2, 64, 0
3, 11901, Note_on_c, 2, 65, 72
3, 12010, Note_on_c, 2, 65, 0
3, 12019, Note_on_c, 2, 62, 72
3, 12129, Note_on_c, 2, 62, 0
3, 12139, Note_on_c, 2, 64, 72
3, 12251, Note_on_c, 2, 64, 0
3, 12260, Note_on_c, 2, 65, 72
3, 12369, Note_on_c, 2, 65, 0
3, 12379, Note_on_c, 2, 67, 72
3, 12489, Note_on_c, 2, 67, 0
3, 12499, Note_on_c, 2, 69, 72
3, 12728, Note_on_c, 2, 69, 0
3, 12738, Note_on_c, 2, 67, 72
3, 12968, Note_on_c, 2, 67, 0
3, 12979, Note_on_c, 2, 66, 72
3, 13207, Note_on_c, 2, 66, 0
3, 13217, Note_on_c, 2, 62, 72
3, 13447, Note_on_c, 2, 62, 0
3, 13457, Note_on_c, 2, 67, 72
3, 13685, Note_on_c, 2, 67, 0
3, 13694, Note_on_c, 2, 65, 72
3, 13926, Note_on_c, 2, 65, 0
3, 13936, Note_on_c, 2, 63, 72
3, 14165, Note_on_c, 2, 63, 0
3, 14175, Note_on_c, 2, 62, 72
3, 14405, Note_on_c, 2, 62, 0
3, 14414, Note_on_c, 2, 60, 72
3, 14644, Note_on_c, 2, 60, 0
3, 14654, Note_on_c, 2, 63, 72
3, 14883, Note_on_c, 2, 63, 0
3, 14893, Note_on_c, 2, 62, 72
3, 15122, Note_on_c, 2, 62, 0
3, 15131, Note_on_c, 2, 64, 72
3, 15362, Note_on_c, 2, 64, 0
3, 15371, Note_on_c, 2, 66, 72
3, 15601, Note_on_c, 2, 66, 0
3, 15611, Note_on_c, 2, 67, 72
3, 15851, Note_on_c, 2, 67, 0
3, 15860, Note_on_c, 2, 69, 72
3, 16090, Note_on_c, 2, 69, 0
3, 16100, Note_on_c, 2, 70, 72
3, 16329, Note_on_c, 2, 70, 0
3, 16339, Note_on_c, 2, 72, 72
3, 16688, Note_on_c, 2, 72, 0
3, 16698, Note_on_c, 2, 70, 72
3, 16808, Note_on_c, 2, 70, 0
3, 16819, Note_on_c, 2, 69, 72
3, 17166, Note_on_c, 2, 69, 0
3, 17176, Note_on_c, 2, 69, 72
3, 17286, Note_on_c, 2, 69, 0
3, 17296, Note_on_c, 2, 67, 40
3, 17526, Note_on_c, 2, 67, 0
3, 17537, Note_on_c, 2, 69, 40
3, 17766, Note_on_c, 2, 69, 0
3, 17775, Note_on_c, 2, 70, 40
3, 17884, Note_on_c, 2, 70, 0
3, 17894, Note_on_c, 2, 72, 40
3, 18005, Note_on_c, 2, 72, 0
3, 18014, Note_on_c, 2, 70, 40
3, 18124, Note_on_c, 2, 70, 0
3, 18134, Note_on_c, 2, 72, 40
3, 18245, Note_on_c, 2, 72, 0
3, 18254, Note_on_c, 2, 74, 40
3, 18484, Note_on_c, 2, 74, 0
3, 18494, Note_on_c, 2, 69, 40
3, 18724, Note_on_c, 2, 69, 0
3, 18734, Note_on_c, 2, 70, 40
3, 19681, Note_on_c, 2, 70, 0
3, 19691, Note_on_c, 2, 69, 40
3, 20649, Note_on_c, 2, 69, 0
3, 20659, Note_on_c, 2, 67, 40
3, 21606, Note_on_c, 2, 67, 0
3, 21617, Note_on_c, 2, 66, 40
3, 22085, Note_on_c, 2, 66, 0
3, 22094, Note_on_c, 2, 67, 40
3, 22564, Note_on_c, 2, 67, 0
3, 22804, Note_on_c, 2, 74, 40
3, 23042, Note_on_c, 2, 74, 0
3, 23052, Note_on_c, 2, 69, 40
3, 23523, Note_on_c, 2, 69, 0
3, 23770, Note_on_c, 2, 77, 40
3, 24009, Note_on_c, 2, 77, 0
3, 24019, Note_on_c, 2, 72, 40
3, 24489, Note_on_c, 2, 72, 0
3, 24500, Note_on_c, 2, 70, 40
3, 24967, Note_on_c, 2, 70, 0
3, 24977, Note_on_c, 2, 69, 40
3, 25685, Note_on_c, 2, 69, 0
3, 25695, Note_on_c, 2, 69, 40
3, 25926, Note_on_c, 2, 69, 0
3, 25936, Note_on_c, 2, 67, 40
3, 26164, Note_on_c, 2, 67, 0
3, 26174, Note_on_c, 2, 69, 40
3, 26404, Note_on_c, 2, 69, 0
3, 26413, Note_on_c, 2, 70, 40
3, 26884, Note_on_c, 2, 70, 0
3, 26894, Note_on_c, 2, 69, 40
3, 27122, Note_on_c, 2, 69, 0
3, 27132, Note_on_c, 2, 73, 40
3, 27362, Note_on_c, 2, 73, 0
3, 27371, Note_on_c, 2, 74, 40
3, 27612, Note_on_c, 2, 74, 0
3, 27621, Note_on_c, 2, 77, 40
3, 27851, Note_on_c, 2, 77, 0
3, 27861, Note_on_c, 2, 76, 40
3, 28089, Note_on_c, 2, 76, 0
3, 28099, Note_on_c, 2, 74, 40
3, 28329, Note_on_c, 2, 74, 0
3, 28338, Note_on_c, 2, 73, 40
3, 28569, Note_on_c, 2, 73, 0
3, 28579, Note_on_c, 2, 74, 40
3, 28808, Note_on_c, 2, 74, 0
3, 28818, Note_on_c, 2, 67, 40
3, 28927, Note_on_c, 2, 67, 0
3, 28938, Note_on_c, 2, 69, 40
3, 29046, Note_on_c, 2, 69, 0
3, 29056, Note_on_c, 2, 70, 40
3, 29406, Note_on_c, 2, 70, 0
3, 29416, Note_on_c, 2, 70, 40
3, 29526, Note_on_c, 2, 70, 0
3, 29536, Note_on_c, 2, 69, 40
3, 29646, Note_on_c, 2, 69, 0
3, 29657, Note_on_c, 2, 67, 40
3, 29765, Note_on_c, 2, 67, 0
3, 29775, Note_on_c, 2, 65, 40
3, 29884, Note_on_c, 2, 65, 0
3, 29894, Note_on_c, 2, 67, 40
3, 30004, Note_on_c, 2, 67, 0
3, 30015, Note_on_c, 2, 69, 40
3, 30364, Note_on_c, 2, 69, 0
3, 30374, Note_on_c, 2, 69, 40
3, 30484, Note_on_c, 2, 69, 0
3, 30494, Note_on_c, 2, 67, 40
3, 30604, Note_on_c, 2, 67, 0
3, 30614, Note_on_c, 2, 65, 40
3, 30723, Note_on_c, 2, 65, 0
3, 30733, Note_on_c, 2, 64, 40
3, 30842, Note_on_c, 2, 64, 0
3, 30852, Note_on_c, 2, 65, 40
3, 30963, Note_on_c, 2, 65, 0
3, 30973, Note_on_c, 2, 67, 40
3, 31321, Note_on_c, 2, 67, 0
3, 31331, Note_on_c, 2, 67, 40
3, 31441, Note_on_c, 2, 67, 0
3, 31451, Note_on_c, 2, 65, 40
3, 31570, Note_on_c, 2, 65, 0
3, 31580, Note_on_c, 2, 64, 40
3, 31691, Note_on_c, 2, 64, 0
3, 31701, Note_on_c, 2, 69, 40
3, 32169, Note_on_c, 2, 69, 0
3, 32288, Note_on_c, 2, 65, 72
3, 32408, Note_on_c, 2, 65, 0
3, 32418, Note_on_c, 2, 63, 72
3, 32529, Note_on_c, 2, 63, 0
3, 32539, Note_on_c, 2, 65, 72
3, 32648, Note_on_c, 2, 65, 0
3, 32658, Note_on_c, 2, 62, 72
3, 32768, Note_on_c, 2, 62, 0
3, 32778, Note_on_c, 2, 63, 72
3, 32888, Note_on_c, 2, 63, 0
3, 32898, Note_on_c, 2, 60, 72
3, 33008, Note_on_c, 2, 60, 0
3, 33018, Note_on_c, 2, 62, 72
3, 33128, Note_on_c, 2, 62, 0
3, 33138, Note_on_c, 2, 58, 72
3, 33366, Note_on_c, 2, 58, 0
3, 33376, Note_on_c, 2, 62, 72
3, 33604, Note_on_c, 2, 62, 0
3, 33614, Note_on_c, 2, 55, 72
3, 34085, Note_on_c, 2, 55, 0
3, 34203, Note_on_c, 2, 63, 72
3, 34323, Note_on_c, 2, 63, 0
3, 34333, Note_on_c, 2, 62, 72
3, 34443, Note_on_c, 2, 62, 0
3, 34453, Note_on_c, 2, 63, 72
3, 34563, Note_on_c, 2, 63, 0
3, 34573, Note_on_c, 2, 60, 72
3, 34683, Note_on_c, 2, 60, 0
3, 34693, Note_on_c, 2, 62, 72
3, 34803, Note_on_c, 2, 62, 0
3, 34813, Note_on_c, 2, 58, 72
3, 34922, Note_on_c, 2, 58, 0
3, 34932, Note_on_c, 2, 60, 72
3, 35042, Note_on_c, 2, 60, 0
3, 35052, Note_on_c, 2, 57, 72
3, 35281, Note_on_c, 2, 57, 0
3, 35291, Note_on_c, 2, 60, 72
3, 35531, Note_on_c, 2, 60, 0
3, 35541, Note_on_c, 2, 53, 72
3, 36009, Note_on_c, 2, 53, 0
3, 36129, Note_on_c, 2, 62, 72
3, 36248, Note_on_c, 2, 62, 0
3, 36258, Note_on_c, 2, 60, 72
3, 36368, Note_on_c, 2, 60, 0
3, 36378, Note_on_c, 2, 62, 72
3, 36488, Note_on_c, 2, 62, 0
3, 36498, Note_on_c, 2, 58, 72
3, 36608, Note_on_c, 2, 58, 0
3, 36618, Note_on_c, 2, 62, 72
3, 36726, Note_on_c, 2, 62, 0
3, 36736, Note_on_c, 2, 60, 72
3, 36846, Note_on_c, 2, 60, 0
3, 36856, Note_on_c, 2, 62, 72
3, 36967, Note_on_c, 2, 62, 0
3, 36976, Note_on_c, 2, 63, 72
3, 37566, Note_on_c, 2, 63, 0
3, 37576, Note_on_c, 2, 67, 72
3, 37684, Note_on_c, 2, 67, 0
3, 37694, Note_on_c, 2, 66, 72
3, 37804, Note_on_c, 2, 66, 0
3, 37814, Note_on_c, 2, 67, 72
3, 37924, Note_on_c, 2, 67, 0
3, 37935, Note_on_c, 2, 69, 72
3, 38044, Note_on_c, 2, 69, 0
3, 38054, Note_on_c, 2, 67, 72
3, 38164, Note_on_c, 2, 67, 0
3, 38174, Note_on_c, 2, 69, 72
3, 38284, Note_on_c, 2, 69, 0
3, 38294, Note_on_c, 2, 66, 72
3, 38403, Note_on_c, 2, 66, 0
3, 38413, Note_on_c, 2, 67, 72
3, 38643, Note_on_c, 2, 67, 0
3, 38653, Note_on_c, 2, 62, 72
3, 38882, Note_on_c, 2, 62, 0
3, 38892, Note_on_c, 2, 60, 72
3, 39001, Note_on_c, 2, 60, 0
3, 39011, Note_on_c, 2, 63, 72
3, 39121, Note_on_c, 2, 63, 0
3, 39131, Note_on_c, 2, 57, 72
3, 39241, Note_on_c, 2, 57, 0
3, 39251, Note_on_c, 2, 60, 72
3, 39360, Note_on_c, 2, 60, 0
3, 39371, Note_on_c, 2, 58, 72
3, 39490, Note_on_c, 2, 58, 0
3, 39500, Note_on_c, 2, 62, 72
3, 39610, Note_on_c, 2, 62, 0
3, 39620, Note_on_c, 2, 55, 72
3, 39730, Note_on_c, 2, 55, 0
3, 39740, Note_on_c, 2, 58, 72
3, 39850, Note_on_c, 2, 58, 0
3, 39860, Note_on_c, 2, 57, 72
3, 39969, Note_on_c, 2, 57, 0
3, 39979, Note_on_c, 2, 60, 72
3, 40090, Note_on_c, 2, 60, 0
3, 40100, Note_on_c, 2, 54, 72
3, 40208, Note_on_c, 2, 54, 0
3, 40218, Note_on_c, 2, 57, 72
3, 40328, Note_on_c, 2, 57, 0
3, 40338, Note_on_c, 2, 55, 72
3, 41047, Note_on_c, 2, 55, 0
3, 41057, Note_on_c, 2, 63, 72
3, 41286, Note_on_c, 2, 63, 0
3, 41296, Note_on_c, 2, 62, 72
3, 41525, Note_on_c, 2, 62, 0
3, 41535, Note_on_c, 2, 60, 72
3, 41765, Note_on_c, 2, 60, 0
3, 41775, Note_on_c, 2, 58, 72
3, 42004, Note_on_c, 2, 58, 0
3, 42014, Note_on_c, 2, 55, 72
3, 42243, Note_on_c, 2, 55, 0
3, 42253, Note_on_c, 2, 60, 72
3, 42363, Note_on_c, 2, 60, 0
3, 42373, Note_on_c, 2, 62, 72
3, 42483, Note_on_c, 2, 62, 0
3, 42493, Note_on_c, 2, 63, 72
3, 42842, Note_on_c, 2, 63, 0
3, 42851, Note_on_c, 2, 63, 72
3, 42962, Note_on_c, 2, 63, 0
3, 42971, Note_on_c, 2, 62, 72
3, 43081, Note_on_c, 2, 62, 0
3, 43091, Note_on_c, 2, 60, 72
3, 43202, Note_on_c, 2, 60, 0
3, 43211, Note_on_c, 2, 58, 72
3, 43321, Note_on_c, 2, 58, 0
3, 43331, Note_on_c, 2, 60, 72
3, 43450, Note_on_c, 2, 60, 0
3, 43460, Note_on_c, 2, 62, 72
3, 43810, Note_on_c, 2, 62, 0
3, 43820, Note_on_c, 2, 62, 72
3, 43929, Note_on_c, 2, 62, 0
3, 43939, Note_on_c, 2, 60, 72
3, 44049, Note_on_c, 2, 60, 0
3, 44059, Note_on_c, 2, 58, 72
3, 44168, Note_on_c, 2, 58, 0
3, 44178, Note_on_c, 2, 57, 72
3, 44288, Note_on_c, 2, 57, 0
3, 44298, Note_on_c, 2, 58, 72
3, 44408, Note_on_c, 2, 58, 0
3, 44418, Note_on_c, 2, 60, 72
3, 44767, Note_on_c, 2, 60, 0
3, 44777, Note_on_c, 2, 60, 72
3, 44887, Note_on_c, 2, 60, 0
3, 44896, Note_on_c, 2, 58, 72
3, 45006, Note_on_c, 2, 58, 0
3, 45016, Note_on_c, 2, 57, 72
3, 45126, Note_on_c, 2, 57, 0
3, 45136, Note_on_c, 2, 55, 72
3, 45366, Note_on_c, 2, 55, 0
3, 45376, Note_on_c, 2, 57, 72
3, 45605, Note_on_c, 2, 57, 0
3, 45615, Note_on_c, 2, 58, 72
3, 45845, Note_on_c, 2, 58, 0
3, 45855, Note_on_c, 2, 57, 72
3, 45963, Note_on_c, 2, 57, 0
3, 45974, Note_on_c, 2, 55, 72
3, 46085, Note_on_c, 2, 55, 0
3, 46095, Note_on_c, 2, 57, 72
3, 46803, Note_on_c, 2, 57, 0
3, 46813, Note_on_c, 2, 50, 72
3, 47041, Note_on_c, 2, 50, 0
3, 47052, Note_on_c, 2, 52, 72
3, 47281, Note_on_c, 2, 52, 0
3, 47291, Note_on_c, 2, 57, 72
3, 47531, Note_on_c, 2, 57, 0
3, 47541, Note_on_c, 2, 50, 72
3, 47770, Note_on_c, 2, 50, 0
3, 47780, Note_on_c, 2, 53, 72
3, 48010, Note_on_c, 2, 53, 0
3, 48019, Note_on_c, 2, 55, 72
3, 48129, Note_on_c, 2, 55, 0
3, 48139, Note_on_c, 2, 57, 72
3, 48249, Note_on_c, 2, 57, 0
3, 48259, Note_on_c, 2, 58, 72
3, 48607, Note_on_c, 2, 58, 0
3, 48617, Note_on_c, 2, 58, 72
3, 48728, Note_on_c, 2, 58, 0
3, 48737, Note_on_c, 2, 57, 72
3, 48846, Note_on_c, 2, 57, 0
3, 48857, Note_on_c, 2, 55, 72
3, 48967, Note_on_c, 2, 55, 0
3, 48977, Note_on_c, 2, 53, 72
3, 49087, Note_on_c, 2, 53, 0
3, 49096, Note_on_c, 2, 55, 72
3, 49206, Note_on_c, 2, 55, 0
3, 49216, Note_on_c, 2, 57, 72
3, 49565, Note_on_c, 2, 57, 0
3, 49575, Note_on_c, 2, 57, 72
3, 49685, Note_on_c, 2, 57, 0
3, 49695, Note_on_c, 2, 55, 72
3, 49805, Note_on_c, 2, 55, 0
3, 49815, Note_on_c, 2, 53, 72
3, 49924, Note_on_c, 2, 53, 0
3, 49934, Note_on_c, 2, 52, 72
3, 50044, Note_on_c, 2, 52, 0
3, 50054, Note_on_c, 2, 53, 72
3, 50164, Note_on_c, 2, 53, 0
3, 50174, Note_on_c, 2, 55, 72
3, 50523, Note_on_c, 2, 55, 0
3, 50533, Note_on_c, 2, 55, 72
3, 50642, Note_on_c, 2, 55, 0
3, 50652, Note_on_c, 2, 53, 72
3, 50762, Note_on_c, 2, 53, 0
3, 50772, Note_on_c, 2, 52, 72
3, 50883, Note_on_c, 2, 52, 0
3, 50892, Note_on_c, 2, 50, 72
3, 51122, Note_on_c, 2, 50, 0
3, 51132, Note_on_c, 2, 53, 72
3, 51370, Note_on_c, 2, 53, 0
3, 51380, Note_on_c, 2, 58, 72
3, 52328, Note_on_c, 2, 58, 0
3, 52339, Note_on_c, 2, 57, 72
3, 53286, Note_on_c, 2, 57, 0
3, 53296, Note_on_c, 2, 55, 72
3, 54243, Note_on_c, 2, 55, 0
3, 54253, Note_on_c, 2, 54, 72
3, 54722, Note_on_c, 2, 54, 0
3, 54732, Note_on_c, 2, 55, 72
3, 55201, Note_on_c, 2, 55, 0
3, 68886, Note_on_c, 2, 53, 88
3, 69126, Note_on_c, 2, 53, 0
3, 69136, Note_on_c, 2, 50, 88
3, 69244, Note_on_c, 2, 50, 0
3, 69254, Note_on_c, 2, 51, 88
3, 69365, Note_on_c, 2, 51, 0
3, 69375, Note_on_c, 2, 48, 88
3, 69484, Note_on_c, 2, 48, 0
3, 69494, Note_on_c, 2, 50, 88
3, 69605, Note_on_c, 2, 50, 0
3, 69614, Note_on_c, 2, 46, 88
3, 69844, Note_on_c, 2, 46, 0
3, 69853, Note_on_c, 2, 58, 88
3, 70082, Note_on_c, 2, 58, 0
3, 70092, Note_on_c, 2, 57, 88
3, 70202, Note_on_c, 2, 57, 0
3, 70212, Note_on_c, 2, 58, 88
3, 70322, Note_on_c, 2, 58, 0
3, 70332, Note_on_c, 2, 55, 88
3, 70442, Note_on_c, 2, 55, 0
3, 70452, Note_on_c, 2, 57, 88
3, 70562, Note_on_c, 2, 57, 0
3, 70571, Note_on_c, 2, 53, 88
3, 70801, Note_on_c, 2, 53, 0
3, 70811, Note_on_c, 2, 58, 88
3, 70921, Note_on_c, 2, 58, 0
3, 70931, Note_on_c, 2, 53, 88
3, 71051, Note_on_c, 2, 53, 0
3, 71061, Note_on_c, 2, 55, 88
3, 71289, Note_on_c, 2, 55, 0
3, 71299, Note_on_c, 2, 51, 88
3, 71529, Note_on_c, 2, 51, 0
3, 71539, Note_on_c, 2, 45, 88
3, 71770, Note_on_c, 2, 45, 0
3, 71780, Note_on_c, 2, 57, 88
3, 72007, Note_on_c, 2, 57, 0
3, 72017, Note_on_c, 2, 53, 88
3, 72128, Note_on_c, 2, 53, 0
3, 72138, Note_on_c, 2, 55, 88
3, 72247, Note_on_c, 2, 55, 0
3, 72257, Note_on_c, 2, 51, 88
3, 72367, Note_on_c, 2, 51, 0
3, 72377, Note_on_c, 2, 53, 88
3, 72487, Note_on_c, 2, 53, 0
3, 72498, Note_on_c, 2, 50, 88
3, 72726, Note_on_c, 2, 50, 0
3, 72736, Note_on_c, 2, 55, 88
3, 72845, Note_on_c, 2, 55, 0
3, 72855, Note_on_c, 2, 50, 88
3, 72965, Note_on_c, 2, 50, 0
3, 72975, Note_on_c, 2, 51, 88
3, 73204, Note_on_c, 2, 51, 0
3, 73214, Note_on_c, 2, 48, 88
3, 73445, Note_on_c, 2, 48, 0
3, 73455, Note_on_c, 2, 41, 88
3, 73683, Note_on_c, 2, 41, 0
3, 73693, Note_on_c, 2, 53, 72
3, 73923, Note_on_c, 2, 53, 0
3, 73933, Note_on_c, 2, 50, 72
3, 74042, Note_on_c, 2, 50, 0
3, 74052, Note_on_c, 2, 51, 72
3, 74163, Note_on_c, 2, 51, 0
3, 74173, Note_on_c, 2, 48, 72
3, 74282, Note_on_c, 2, 48, 0
3, 74292, Note_on_c, 2, 50, 72
3, 74403, Note_on_c, 2, 50, 0
3, 74413, Note_on_c, 2, 46, 72
3, 74521, Note_on_c, 2, 46, 0
3, 74532, Note_on_c, 2, 48, 72
3, 74642, Note_on_c, 2, 48, 0
3, 74651, Note_on_c, 2, 50, 72
3, 74760, Note_on_c, 2, 50, 0
3, 74770, Note_on_c, 2, 51, 72
3, 74882, Note_on_c, 2, 51, 0
3, 74891, Note_on_c, 2, 53, 72
3, 75010, Note_on_c, 2, 53, 0
3, 75020, Note_on_c, 2, 55, 72
3, 75130, Note_on_c, 2, 55, 0
3, 75140, Note_on_c, 2, 51, 72
3, 75251, Note_on_c, 2, 51, 0
3, 75261, Note_on_c, 2, 53, 72
3, 75370, Note_on_c, 2, 53, 0
3, 75380, Note_on_c, 2, 50, 72
3, 75489, Note_on_c, 2, 50, 0
3, 75499, Note_on_c, 2, 51, 72
3, 75610, Note_on_c, 2, 51, 0
3, 75619, Note_on_c, 2, 53, 72
3, 75728, Note_on_c, 2, 53, 0
3, 75738, Note_on_c, 2, 55, 72
3, 75849, Note_on_c, 2, 55, 0
3, 75859, Note_on_c, 2, 48, 72
3, 75969, Note_on_c, 2, 48, 0
3, 75979, Note_on_c, 2, 50, 72
3, 76088, Note_on_c, 2, 50, 0
3, 76098, Note_on_c, 2, 46, 72
3, 76208, Note_on_c, 2, 46, 0
3, 76218, Note_on_c, 2, 48, 72
3, 76327, Note_on_c, 2, 48, 0
3, 76337, Note_on_c, 2, 45, 72
3, 76446, Note_on_c, 2, 45, 0
3, 76456, Note_on_c, 2, 46, 72
3, 76567, Note_on_c, 2, 46, 0
3, 76577, Note_on_c, 2, 48, 72
3, 76686, Note_on_c, 2, 48, 0
3, 76696, Note_on_c, 2, 50, 72
3, 76806, Note_on_c, 2, 50, 0
3, 76816, Note_on_c, 2, 43, 72
3, 76925, Note_on_c, 2, 43, 0
3, 76935, Note_on_c, 2, 45, 72
3, 77046, Note_on_c, 2, 45, 0
3, 77055, Note_on_c, 2, 41, 72
3, 77165, Note_on_c, 2, 41, 0
3, 77175, Note_on_c, 2, 43, 72
3, 77285, Note_on_c, 2, 43, 0
3, 77295, Note_on_c, 2, 40, 72
3, 77405, Note_on_c, 2, 40, 0
3, 77415, Note_on_c, 2, 41, 72
3, 77524, Note_on_c, 2, 41, 0
3, 77534, Note_on_c, 2, 43, 72
3, 77644, Note_on_c, 2, 43, 0
3, 77654, Note_on_c, 2, 45, 72
3, 77764, Note_on_c, 2, 45, 0
3, 77774, Note_on_c, 2, 38, 72
3, 77883, Note_on_c, 2, 38, 0
3, 77893, Note_on_c, 2, 50, 72
3, 78003, Note_on_c, 2, 50, 0
3, 78014, Note_on_c, 2, 48, 72
3, 78123, Note_on_c, 2, 48, 0
3, 78133, Note_on_c, 2, 50, 72
3, 78242, Note_on_c, 2, 50, 0
3, 78252, Note_on_c, 2, 47, 72
3, 78362, Note_on_c, 2, 47, 0
3, 78372, Note_on_c, 2, 48, 72
3, 78482, Note_on_c, 2, 48, 0
3, 78492, Note_on_c, 2, 50, 72
3, 78601, Note_on_c, 2, 50, 0
3, 78611, Note_on_c, 2, 52, 72
3, 78722, Note_on_c, 2, 52, 0
3, 78731, Note_on_c, 2, 45, 72
3, 78970, Note_on_c, 2, 45, 0
3, 78980, Note_on_c, 2, 57, 72
3, 79210, Note_on_c, 2, 57, 0
3, 79220, Note_on_c, 2, 58, 72
3, 79449, Note_on_c, 2, 58, 0
3, 79459, Note_on_c, 2, 50, 72
3, 79689, Note_on_c, 2, 50, 0
3, 79699, Note_on_c, 2, 52, 72
3, 79928, Note_on_c, 2, 52, 0
3, 79938, Note_on_c, 2, 55, 72
3, 80168, Note_on_c, 2, 55, 0
3, 80178, Note_on_c, 2, 57, 72
3, 80407, Note_on_c, 2, 57, 0
3, 80417, Note_on_c, 2, 45, 72
3, 80647, Note_on_c, 2, 45, 0
3, 80657, Note_on_c, 2, 50, 56
3, 80887, Note_on_c, 2, 50, 0
3, 80896, Note_on_c, 2, 62, 56
3, 81005, Note_on_c, 2, 62, 0
3, 81015, Note_on_c, 2, 65, 56
3, 81125, Note_on_c, 2, 65, 0
3, 81134, Note_on_c, 2, 64, 56
3, 81244, Note_on_c, 2, 64, 0
3, 81254, Note_on_c, 2, 67, 56
3, 81365, Note_on_c, 2, 67, 0
3, 81375, Note_on_c, 2, 61, 56
3, 81484, Note_on_c, 2, 61, 0
3, 81494, Note_on_c, 2, 64, 56
3, 81604, Note_on_c, 2, 64, 0
3, 81614, Note_on_c, 2, 62, 56
3, 81724, Note_on_c, 2, 62, 0
3, 81734, Note_on_c, 2, 65, 56
3, 81844, Note_on_c, 2, 65, 0
3, 81854, Note_on_c, 2, 57, 40
3, 81963, Note_on_c, 2, 57, 0
3, 81973, Note_on_c, 2, 62, 40
3, 82083, Note_on_c, 2, 62, 0
3, 82093, Note_on_c, 2, 64, 40
3, 82204, Note_on_c, 2, 64, 0
3, 82213, Note_on_c, 2, 67, 40
3, 82322, Note_on_c, 2, 67, 0
3, 82332, Note_on_c, 2, 57, 40
3, 82442, Note_on_c, 2, 57, 0
3, 82452, Note_on_c, 2, 61, 40
3, 82562, Note_on_c, 2, 61, 0
3, 82572, Note_on_c, 2, 62, 40
3, 82682, Note_on_c, 2, 62, 0
3, 82692, Note_on_c, 2, 65, 40
3, 82801, Note_on_c, 2, 65, 0
3, 82812, Note_on_c, 2, 57, 40
3, 82931, Note_on_c, 2, 57, 0
3, 82941, Note_on_c, 2, 62, 40
3, 83050, Note_on_c, 2, 62, 0
3, 83060, Note_on_c, 2, 53, 40
3, 83170, Note_on_c, 2, 53, 0
3, 83181, Note_on_c, 2, 57, 40
3, 83290, Note_on_c, 2, 57, 0
3, 83300, Note_on_c, 2, 50, 40
3, 83410, Note_on_c, 2, 50, 0
3, 83420, Note_on_c, 2, 53, 40
3, 83530, Note_on_c, 2, 53, 0
3, 83539, Note_on_c, 2, 45, 40
3, 83649, Note_on_c, 2, 45, 0
3, 83659, Note_on_c, 2, 49, 40
3, 83769, Note_on_c, 2, 49, 0
3, 83779, Note_on_c, 2, 52, 40
3, 83889, Note_on_c, 2, 52, 0
3, 83899, Note_on_c, 2, 55, 40
3, 84009, Note_on_c, 2, 55, 0
3, 84019, Note_on_c, 2, 53, 40
3, 84127, Note_on_c, 2, 53, 0
3, 84137, Note_on_c, 2, 57, 40
3, 84248, Note_on_c, 2, 57, 0
3, 84258, Note_on_c, 2, 50, 40
3, 84367, Note_on_c, 2, 50, 0
3, 84377, Note_on_c, 2, 53, 40
3, 84487, Note_on_c, 2, 53, 0
3, 84497, Note_on_c, 2, 43, 40
3, 84607, Note_on_c, 2, 43, 0
3, 84617, Note_on_c, 2, 46, 40
3, 84727, Note_on_c, 2, 46, 0
3, 84737, Note_on_c, 2, 50, 40
3, 84845, Note_on_c, 2, 50, 0
3, 84855, Note_on_c, 2, 53, 40
3, 84965, Note_on_c, 2, 53, 0
3, 84974, Note_on_c, 2, 52, 40
3, 85085, Note_on_c, 2, 52, 0
3, 85095, Note_on_c, 2, 55, 40
3, 85205, Note_on_c, 2, 55, 0
3, 85215, Note_on_c, 2, 48, 40
3, 85325, Note_on_c, 2, 48, 0
3, 85334, Note_on_c, 2, 52, 40
3, 85445, Note_on_c, 2, 52, 0
3, 85455, Note_on_c, 2, 41, 40
3, 85565, Note_on_c, 2, 41, 0
3, 85575, Note_on_c, 2, 45, 40
3, 85684, Note_on_c, 2, 45, 0
3, 85694, Note_on_c, 2, 48, 40
3, 85804, Note_on_c, 2, 48, 0
3, 85814, Note_on_c, 2, 52, 40
3, 85924, Note_on_c, 2, 52, 0
3, 85934, Note_on_c, 2, 50, 40
3, 86042, Note_on_c, 2, 50, 0
3, 86052, Note_on_c, 2, 53, 40
3, 86163, Note_on_c, 2, 53, 0
3, 86173, Note_on_c, 2, 46, 40
3, 86282, Note_on_c, 2, 46, 0
3, 86292, Note_on_c, 2, 50, 40
3, 86402, Note_on_c, 2, 50, 0
3, 86412, Note_on_c, 2, 40, 40
3, 86522, Note_on_c, 2, 40, 0
3, 86532, Note_on_c, 2, 43, 40
3, 86642, Note_on_c, 2, 43, 0
3, 86652, Note_on_c, 2, 46, 40
3, 86761, Note_on_c, 2, 46, 0
3, 86771, Note_on_c, 2, 50, 40
3, 86892, Note_on_c, 2, 50, 0
3, 86901, Note_on_c, 2, 49, 40
3, 87009, Note_on_c, 2, 49, 0
3, 87019, Note_on_c, 2, 52, 40
3, 87130, Note_on_c, 2, 52, 0
3, 87140, Note_on_c, 2, 45, 40
3, 87250, Note_on_c, 2, 45, 0
3, 87260, Note_on_c, 2, 49, 40
3, 87370, Note_on_c, 2, 49, 0
3, 87380, Note_on_c, 2, 38, 40
3, 87610, Note_on_c, 2, 38, 0
3, 87619, Note_on_c, 2, 40, 40
3, 87848, Note_on_c, 2, 40, 0
3, 87858, Note_on_c, 2, 41, 40
3, 88087, Note_on_c, 2, 41, 0
3, 88097, Note_on_c, 2, 38, 40
3, 88328, Note_on_c, 2, 38, 0
3, 88338, Note_on_c, 2, 45, 40
3, 88567, Note_on_c, 2, 45, 0
3, 88577, Note_on_c, 2, 47, 40
3, 88806, Note_on_c, 2, 47, 0
3, 88816, Note_on_c, 2, 49, 40
3, 89045, Note_on_c, 2, 49, 0
3, 89054, Note_on_c, 2, 45, 40
3, 89285, Note_on_c, 2, 45, 0
3, 89295, Note_on_c, 2, 50, 40
3, 89524, Note_on_c, 2, 50, 0
3, 89534, Note_on_c, 2, 52, 40
3, 89764, Note_on_c, 2, 52, 0
3, 89774, Note_on_c, 2, 53, 40
3, 90003, Note_on_c, 2, 53, 0
3, 90013, Note_on_c, 2, 50, 40
3, 90243, Note_on_c, 2, 50, 0
3, 90253, Note_on_c, 2, 55, 40
3, 90481, Note_on_c, 2, 55, 0
3, 90491, Note_on_c, 2, 57, 40
3, 90722, Note_on_c, 2, 57, 0
3, 90732, Note_on_c, 2, 58, 40
3, 90971, Note_on_c, 2, 58, 0
3, 90981, Note_on_c, 2, 55, 40
3, 91209, Note_on_c, 2, 55, 0
3, 91219, Note_on_c, 2, 60, 40
3, 91450, Note_on_c, 2, 60, 0
3, 91460, Note_on_c, 2, 62, 40
3, 91689, Note_on_c, 2, 62, 0
3, 91699, Note_on_c, 2, 64, 40
3, 91928, Note_on_c, 2, 64, 0
3, 91938, Note_on_c, 2, 60, 40
3, 92167, Note_on_c, 2, 60, 0
3, 92177, Note_on_c, 2, 65, 40
3, 92407, Note_on_c, 2, 65, 0
3, 92417, Note_on_c, 2, 67, 40
3, 92646, Note_on_c, 2, 67, 0
3, 92656, Note_on_c, 2, 69, 40
3, 92886, Note_on_c, 2, 69, 0
3, 92896, Note_on_c, 2, 65, 40
3, 93125, Note_on_c, 2, 65, 0
3, 93135, Note_on_c, 2, 70, 40
3, 93244, Note_on_c, 2, 70, 0
3, 93254, Note_on_c, 2, 72, 40
3, 93364, Note_on_c, 2, 72, 0
3, 93374, Note_on_c, 2, 69, 40
3, 93485, Note_on_c, 2, 69, 0
3, 93495, Note_on_c, 2, 70, 40
3, 93604, Note_on_c, 2, 70, 0
3, 93614, Note_on_c, 2, 67, 40
3, 93724, Note_on_c, 2, 67, 0
3, 93734, Note_on_c, 2, 69, 40
3, 93843, Note_on_c, 2, 69, 0
3, 93852, Note_on_c, 2, 65, 40
3, 93962, Note_on_c, 2, 65, 0
3, 93972, Note_on_c, 2, 67, 40
3, 94082, Note_on_c, 2, 67, 0
3, 94092, Note_on_c, 2, 64, 40
3, 94202, Note_on_c, 2, 64, 0
3, 94212, Note_on_c, 2, 65, 40
3, 94322, Note_on_c, 2, 65, 0
3, 94332, Note_on_c, 2, 62, 40
3, 94442, Note_on_c, 2, 62, 0
3, 94452, Note_on_c, 2, 64, 40
3, 94563, Note_on_c, 2, 64, 0
3, 94572, Note_on_c, 2, 61, 40
3, 94691, Note_on_c, 2, 61, 0
3, 94701, Note_on_c, 2, 62, 40
3, 94811, Note_on_c, 2, 62, 0
3, 94820, Note_on_c, 2, 59, 40
3, 94931, Note_on_c, 2, 59, 0
3, 94941, Note_on_c, 2, 61, 40
3, 95050, Note_on_c, 2, 61, 0
3, 95060, Note_on_c, 2, 57, 40
3, 95170, Note_on_c, 2, 57, 0
3, 95180, Note_on_c, 2, 58, 40
3, 95290, Note_on_c, 2, 58, 0
3, 95300, Note_on_c, 2, 55, 40
3, 95409, Note_on_c, 2, 55, 0
3, 95419, Note_on_c, 2, 57, 40
3, 95530, Note_on_c, 2, 57, 0
3, 95540, Note_on_c, 2, 53, 40
3, 95648, Note_on_c, 2, 53, 0
3, 95658, Note_on_c, 2, 55, 40
3, 95768, Note_on_c, 2, 55, 0
3, 95778, Note_on_c, 2, 52, 40
3, 95888, Note_on_c, 2, 52, 0
3, 95898, Note_on_c, 2, 55, 40
3, 96007, Note_on_c, 2, 55, 0
3, 96017, Note_on_c, 2, 53, 40
3, 96127, Note_on_c, 2, 53, 0
3, 96137, Note_on_c, 2, 55, 40
3, 96247, Note_on_c, 2, 55, 0
3, 96257, Note_on_c, 2, 52, 40
3, 96368, Note_on_c, 2, 52, 0
3, 96378, Note_on_c, 2, 53, 40
3, 96486, Note_on_c, 2, 53, 0
3, 96496, Note_on_c, 2, 50, 40
3, 96725, Note_on_c, 2, 50, 0
3, 96735, Note_on_c, 2, 62, 40
3, 96965, Note_on_c, 2, 62, 0
3, 96976, Note_on_c, 2, 61, 40
3, 97085, Note_on_c, 2, 61, 0
3, 97095, Note_on_c, 2, 62, 40
3, 97205, Note_on_c, 2, 62, 0
3, 97215, Note_on_c, 2, 59, 40
3, 97324, Note_on_c, 2, 59, 0
3, 97334, Note_on_c, 2, 61, 40
3, 97443, Note_on_c, 2, 61, 0
3, 97453, Note_on_c, 2, 57, 40
3, 97684, Note_on_c, 2, 57, 0
3, 97694, Note_on_c, 2, 62, 40
3, 97803, Note_on_c, 2, 62, 0
3, 97813, Note_on_c, 2, 57, 40
3, 97923, Note_on_c, 2, 57, 0
3, 97933, Note_on_c, 2, 58, 40
3, 98161, Note_on_c, 2, 58, 0
3, 98171, Note_on_c, 2, 55, 40
3, 98402, Note_on_c, 2, 55, 0
3, 98411, Note_on_c, 2, 48, 40
3, 98651, Note_on_c, 2, 48, 0
3, 98661, Note_on_c, 2, 60, 40
3, 98891, Note_on_c, 2, 60, 0
3, 98901, Note_on_c, 2, 57, 40
3, 99010, Note_on_c, 2, 57, 0
3, 99019, Note_on_c, 2, 58, 40
3, 99130, Note_on_c, 2, 58, 0
3, 99140, Note_on_c, 2, 55, 40
3, 99249, Note_on_c, 2, 55, 0
3, 99259, Note_on_c, 2, 57, 40
3, 99369, Note_on_c, 2, 57, 0
3, 99379, Note_on_c, 2, 53, 40
3, 99609, Note_on_c, 2, 53, 0
3, 99619, Note_on_c, 2, 58, 40
3, 99728, Note_on_c, 2, 58, 0
3, 99739, Note_on_c, 2, 53, 40
3, 99848, Note_on_c, 2, 53, 0
3, 99858, Note_on_c, 2, 55, 40
3, 100086, Note_on_c, 2, 55, 0
3, 100096, Note_on_c, 2, 52, 40
3, 100326, Note_on_c, 2, 52, 0
3, 100336, Note_on_c, 2, 45, 40
3, 100566, Note_on_c, 2, 45, 0
3, 100576, Note_on_c, 2, 57, 40
3, 100806, Note_on_c, 2, 57, 0
3, 100816, Note_on_c, 2, 53, 40
3, 100925, Note_on_c, 2, 53, 0
3, 100935, Note_on_c, 2, 55, 40
3, 101045, Note_on_c, 2, 55, 0
3, 101054, Note_on_c, 2, 52, 40
3, 101164, Note_on_c, 2, 52, 0
3, 101174, Note_on_c, 2, 53, 40
3, 101284, Note_on_c, 2, 53, 0
3, 101294, Note_on_c, 2, 50, 40
3, 101523, Note_on_c, 2, 50, 0
3, 101533, Note_on_c, 2, 53, 40
3, 101764, Note_on_c, 2, 53, 0
3, 101773, Note_on_c, 2, 55, 40
3, 101882, Note_on_c, 2, 55, 0
3, 101892, Note_on_c, 2, 58, 40
3, 102002, Note_on_c, 2, 58, 0
3, 102012, Note_on_c, 2, 50, 40
3, 102122, Note_on_c, 2, 50, 0
3, 102132, Note_on_c, 2, 55, 40
3, 102241, Note_on_c, 2, 55, 0
3, 102251, Note_on_c, 2, 46, 40
3, 102361, Note_on_c, 2, 46, 0
3, 102371, Note_on_c, 2, 50, 40
3, 102481, Note_on_c, 2, 50, 0
3, 102490, Note_on_c, 2, 43, 40
3, 102610, Note_on_c, 2, 43, 0
3, 102621, Note_on_c, 2, 50, 40
3, 102731, Note_on_c, 2, 50, 0
3, 102740, Note_on_c, 2, 52, 40
3, 102850, Note_on_c, 2, 52, 0
3, 102860, Note_on_c, 2, 53, 40
3, 102970, Note_on_c, 2, 53, 0
3, 102980, Note_on_c, 2, 50, 40
3, 103090, Note_on_c, 2, 50, 0
3, 103100, Note_on_c, 2, 52, 40
3, 103209, Note_on_c, 2, 52, 0
3, 103220, Note_on_c, 2, 48, 40
3, 103449, Note_on_c, 2, 48, 0
3, 103459, Note_on_c, 2, 52, 40
3, 103689, Note_on_c, 2, 52, 0
3, 103699, Note_on_c, 2, 53, 40
3, 103928, Note_on_c, 2, 53, 0
3, 103938, Note_on_c, 2, 55, 40
3, 104167, Note_on_c, 2, 55, 0
3, 104177, Note_on_c, 2, 57, 40
3, 104287, Note_on_c, 2, 57, 0
3, 104297, Note_on_c, 2, 58, 40
3, 104407, Note_on_c, 2, 58, 0
3, 104417, Note_on_c, 2, 57, 40
3, 104526, Note_on_c, 2, 57, 0
3, 104536, Note_on_c, 2, 58, 40
3, 104646, Note_on_c, 2, 58, 0
3, 104656, Note_on_c, 2, 60, 40
3, 104765, Note_on_c, 2, 60, 0
3, 104775, Note_on_c, 2, 62, 40
3, 104885, Note_on_c, 2, 62, 0
3, 104895, Note_on_c, 2, 58, 40
3, 105004, Note_on_c, 2, 58, 0
3, 105014, Note_on_c, 2, 60, 40
3, 105125, Note_on_c, 2, 60, 0
3, 105135, Note_on_c, 2, 57, 40
3, 105364, Note_on_c, 2, 57, 0
3, 105374, Note_on_c, 2, 69, 40
3, 106082, Note_on_c, 2, 69, 0
3, 106092, Note_on_c, 2, 67, 40
3, 107050, Note_on_c, 2, 67, 0
3, 107060, Note_on_c, 2, 65, 40
3, 108007, Note_on_c, 2, 65, 0
3, 108017, Note_on_c, 2, 64, 40
3, 108486, Note_on_c, 2, 64, 0
3, 108487, Program_c, 2, 0
3, 108727, Note_on_c, 2, 60, 88
3, 108965, Note_on_c, 2, 60, 0
3, 108974, Note_on_c, 2, 65, 88
3, 109204, Note_on_c, 2, 65, 0
3, 109214, Note_on_c, 2, 64, 88
3, 109443, Note_on_c, 2, 64, 0
3, 109453, Note_on_c, 2, 65, 88
3, 109922, Note_on_c, 2, 65, 0
3, 110161, Note_on_c, 2, 58, 88
3, 110401, Note_on_c, 2, 58, 0
3, 110412, Note_on_c, 2, 60, 88
3, 110650, Note_on_c, 2, 60, 0
3, 110659, Note_on_c, 2, 55, 88
3, 110769, Note_on_c, 2, 55, 0
3, 110779, Note_on_c, 2, 67, 88
3, 110889, Note_on_c, 2, 67, 0
3, 110899, Note_on_c, 2, 55, 88
3, 111009, Note_on_c, 2, 55, 0
3, 111019, Note_on_c, 2, 67, 88
3, 111130, Note_on_c, 2, 67, 0
3, 111140, Note_on_c, 2, 55, 88
3, 111249, Note_on_c, 2, 55, 0
3, 111259, Note_on_c, 2, 67, 88
3, 111369, Note_on_c, 2, 67, 0
3, 111379, Note_on_c, 2, 55, 88
3, 111608, Note_on_c, 2, 55, 0
3, 111618, Note_on_c, 2, 67, 88
3, 111847, Note_on_c, 2, 67, 0
3, 111858, Note_on_c, 2, 72, 88
3, 112087, Note_on_c, 2, 72, 0
3, 112097, Note_on_c, 2, 71, 88
3, 112326, Note_on_c, 2, 71, 0
3, 112336, Note_on_c, 2, 72, 88
3, 112805, Note_on_c, 2, 72, 0
3, 113044, Note_on_c, 2, 65, 88
3, 113283, Note_on_c, 2, 65, 0
3, 113293, Note_on_c, 2, 67, 88
3, 113523, Note_on_c, 2, 67, 0
3, 113533, Note_on_c, 2, 62, 88
3, 113643, Note_on_c, 2, 62, 0
3, 113653, Note_on_c, 2, 74, 88
3, 113763, Note_on_c, 2, 74, 0
3, 113773, Note_on_c, 2, 62, 88
3, 113882, Note_on_c, 2, 62, 0
3, 113893, Note_on_c, 2, 74, 88
3, 114001, Note_on_c, 2, 74, 0
3, 114011, Note_on_c, 2, 62, 88
3, 114121, Note_on_c, 2, 62, 0
3, 114131, Note_on_c, 2, 74, 88
3, 114240, Note_on_c, 2, 74, 0
3, 114251, Note_on_c, 2, 62, 88
3, 114490, Note_on_c, 2, 62, 0
3, 114500, Note_on_c, 2, 66, 88
3, 114730, Note_on_c, 2, 66, 0
3, 114740, Note_on_c, 2, 70, 88
3, 114969, Note_on_c, 2, 70, 0
3, 114979, Note_on_c, 2, 72, 88
3, 115208, Note_on_c, 2, 72, 0
3, 115218, Note_on_c, 2, 74, 88
3, 115448, Note_on_c, 2, 74, 0
3, 115449, Program_c, 2, 0
3, 115451, Note_on_c, 2, 72, 56
3, 115568, Note_on_c, 2, 72, 0
3, 115578, Note_on_c, 2, 75, 56
3, 115688, Note_on_c, 2, 75, 0
3, 115698, Note_on_c, 2, 74, 56
3, 115807, Note_on_c, 2, 74, 0
3, 115817, Note_on_c, 2, 75, 56
3, 115926, Note_on_c, 2, 75, 0
3, 115936, Note_on_c, 2, 72, 56
3, 116047, Note_on_c, 2, 72, 0
3, 116057, Note_on_c, 2, 74, 56
3, 116166, Note_on_c, 2, 74, 0
3, 116176, Note_on_c, 2, 70, 56
3, 116286, Note_on_c, 2, 70, 0
3, 116296, Note_on_c, 2, 72, 56
3, 116406, Note_on_c, 2, 72, 0
3, 116416, Note_on_c, 2, 69, 56
3, 116526, Note_on_c, 2, 69, 0
3, 116536, Note_on_c, 2, 72, 56
3, 116645, Note_on_c, 2, 72, 0
3, 116656, Note_on_c, 2, 70, 56
3, 116764, Note_on_c, 2, 70, 0
3, 116774, Note_on_c, 2, 72, 56
3, 116884, Note_on_c, 2, 72, 0
3, 116894, Note_on_c, 2, 69, 56
3, 117004, Note_on_c, 2, 69, 0
3, 117014, Note_on_c, 2, 70, 56
3, 117124, Note_on_c, 2, 70, 0
3, 117134, Note_on_c, 2, 67, 56
3, 117243, Note_on_c, 2, 67, 0
3, 117253, Note_on_c, 2, 69, 56
3, 117363, Note_on_c, 2, 69, 0
3, 117373, Note_on_c, 2, 65, 56
3, 117483, Note_on_c, 2, 65, 0
3, 117493, Note_on_c, 2, 69, 56
3, 117602, Note_on_c, 2, 69, 0
3, 117611, Note_on_c, 2, 67, 56
3, 117721, Note_on_c, 2, 67, 0
3, 117731, Note_on_c, 2, 69, 56
3, 117841, Note_on_c, 2, 69, 0
3, 117851, Note_on_c, 2, 65, 56
3, 117961, Note_on_c, 2, 65, 0
3, 117971, Note_on_c, 2, 67, 56
3, 118081, Note_on_c, 2, 67, 0
3, 118091, Note_on_c, 2, 63, 56
3, 118201, Note_on_c, 2, 63, 0
3, 118211, Note_on_c, 2, 65, 56
3, 118321, Note_on_c, 2, 65, 0
3, 118331, Note_on_c, 2, 62, 56
3, 118450, Note_on_c, 2, 62, 0
3, 118460, Note_on_c, 2, 65, 56
3, 118570, Note_on_c, 2, 65, 0
3, 118579, Note_on_c, 2, 63, 56
3, 118689, Note_on_c, 2, 63, 0
3, 118700, Note_on_c, 2, 65, 56
3, 118809, Note_on_c, 2, 65, 0
3, 118819, Note_on_c, 2, 62, 56
3, 118929, Note_on_c, 2, 62, 0
3, 118939, Note_on_c, 2, 63, 56
3, 119049, Note_on_c, 2, 63, 0
3, 119059, Note_on_c, 2, 60, 56
3, 119169, Note_on_c, 2, 60, 0
3, 119179, Note_on_c, 2, 62, 56
3, 119288, Note_on_c, 2, 62, 0
3, 119298, Note_on_c, 2, 58, 56
3, 119407, Note_on_c, 2, 58, 0
3, 119417, Note_on_c, 2, 60, 56
3, 119527, Note_on_c, 2, 60, 0
3, 119537, Note_on_c, 2, 57, 56
3, 119646, Note_on_c, 2, 57, 0
3, 119656, Note_on_c, 2, 60, 56
3, 119767, Note_on_c, 2, 60, 0
3, 119777, Note_on_c, 2, 54, 56
3, 119886, Note_on_c, 2, 54, 0
3, 119896, Note_on_c, 2, 57, 56
3, 120006, Note_on_c, 2, 57, 0
3, 120016, Note_on_c, 2, 55, 56
3, 120127, Note_on_c, 2, 55, 0
3, 120137, Note_on_c, 2, 58, 56
3, 120245, Note_on_c, 2, 58, 0
3, 120255, Note_on_c, 2, 50, 56
3, 120365, Note_on_c, 2, 50, 0
3, 120375, Note_on_c, 2, 55, 56
3, 120485, Note_on_c, 2, 55, 0
3, 120496, Note_on_c, 2, 46, 56
3, 120605, Note_on_c, 2, 46, 0
3, 120615, Note_on_c, 2, 50, 56
3, 120724, Note_on_c, 2, 50, 0
3, 120734, Note_on_c, 2, 43, 56
3, 120843, Note_on_c, 2, 43, 0
3, 120853, Note_on_c, 2, 48, 56
3, 120964, Note_on_c, 2, 48, 0
3, 120974, Note_on_c, 2, 50, 56
3, 121083, Note_on_c, 2, 50, 0
3, 121093, Note_on_c, 2, 45, 56
3, 121203, Note_on_c, 2, 45, 0
3, 121213, Note_on_c, 2, 52, 56
3, 121323, Note_on_c, 2, 52, 0
3, 121332, Note_on_c, 2, 45, 56
3, 121442, Note_on_c, 2, 45, 0
3, 121452, Note_on_c, 2, 54, 56
3, 121562, Note_on_c, 2, 54, 0
3, 121572, Note_on_c, 2, 55, 56
3, 121682, Note_on_c, 2, 55, 0
3, 121691, Note_on_c, 2, 52, 56
3, 121802, Note_on_c, 2, 52, 0
3, 121812, Note_on_c, 2, 54, 56
3, 121921, Note_on_c, 2, 54, 0
3, 121931, Note_on_c, 2, 55, 56
3, 122040, Note_on_c, 2, 55, 0
3, 122050, Note_on_c, 2, 50, 56
3, 122160, Note_on_c, 2, 50, 0
3, 122171, Note_on_c, 2, 57, 56
3, 122280, Note_on_c, 2, 57, 0
3, 122290, Note_on_c, 2, 50, 56
3, 122410, Note_on_c, 2, 50, 0
3, 122420, Note_on_c, 2, 58, 56
3, 122530, Note_on_c, 2, 58, 0
3, 122540, Note_on_c, 2, 50, 56
3, 122649, Note_on_c, 2, 50, 0
3, 122659, Note_on_c, 2, 60, 56
3, 122769, Note_on_c, 2, 60, 0
3, 122780, Note_on_c, 2, 50, 56
3, 122889, Note_on_c, 2, 50, 0
3, 122899, Note_on_c, 2, 62, 56
3, 123248, Note_on_c, 2, 62, 0
3, 123258, Note_on_c, 2, 64, 56
3, 123368, Note_on_c, 2, 64, 0
3, 123377, Note_on_c, 2, 66, 56
3, 123846, Note_on_c, 2, 66, 0
3, 123857, Note_on_c, 2, 67, 56
3, 124206, Note_on_c, 2, 67, 0
3, 124216, Note_on_c, 2, 69, 56
3, 124326, Note_on_c, 2, 69, 0
3, 124335, Note_on_c, 2, 70, 56
3, 124685, Note_on_c, 2, 70, 0
3, 124695, Note_on_c, 2, 61, 56
3, 124805, Note_on_c, 2, 61, 0
3, 124814, Note_on_c, 2, 69, 56
3, 125283, Note_on_c, 2, 69, 0
3, 125522, Note_on_c, 2, 74, 56
3, 125762, Note_on_c, 2, 74, 0
3, 125771, Note_on_c, 2, 79, 56
3, 125881, Note_on_c, 2, 79, 0
3, 125891, Note_on_c, 2, 77, 56
3, 126001, Note_on_c, 2, 77, 0
3, 126011, Note_on_c, 2, 75, 56
3, 126120, Note_on_c, 2, 75, 0
3, 126130, Note_on_c, 2, 74, 56
3, 126242, Note_on_c, 2, 74, 0
3, 126251, Note_on_c, 2, 72, 56
3, 126370, Note_on_c, 2, 72, 0
3, 126380, Note_on_c, 2, 75, 56
3, 126490, Note_on_c, 2, 75, 0
3, 126500, Note_on_c, 2, 74, 56
3, 126610, Note_on_c, 2, 74, 0
3, 126620, Note_on_c, 2, 72, 56
3, 126730, Note_on_c, 2, 72, 0
3, 126740, Note_on_c, 2, 70, 56
3, 127208, Note_on_c, 2, 70, 0
3, 127448, Note_on_c, 2, 70, 56
3, 127688, Note_on_c, 2, 70, 0
3, 127698, Note_on_c, 2, 75, 56
3, 127806, Note_on_c, 2, 75, 0
3, 127816, Note_on_c, 2, 74, 56
3, 127926, Note_on_c, 2, 74, 0
3, 127936, Note_on_c, 2, 72, 56
3, 128046, Note_on_c, 2, 72, 0
3, 128056, Note_on_c, 2, 70, 56
3, 128166, Note_on_c, 2, 70, 0
3, 128176, Note_on_c, 2, 69, 56
3, 128285, Note_on_c, 2, 69, 0
3, 128295, Note_on_c, 2, 72, 56
3, 128406, Note_on_c, 2, 72, 0
3, 128416, Note_on_c, 2, 70, 56
3, 128525, Note_on_c, 2, 70, 0
3, 128535, Note_on_c, 2, 69, 56
3, 128645, Note_on_c, 2, 69, 0
3, 128655, Note_on_c, 2, 67, 56
3, 129124, Note_on_c, 2, 67, 0
3, 129842, Note_on_c, 2, 62, 88
3, 130082, Note_on_c, 2, 62, 0
3, 130091, Note_on_c, 2, 67, 88
3, 130331, Note_on_c, 2, 67, 0
3, 130341, Note_on_c, 2, 66, 88
3, 130570, Note_on_c, 2, 66, 0
3, 130579, Note_on_c, 2, 67, 88
3, 130809, Note_on_c, 2, 67, 0
3, 130820, Note_on_c, 2, 66, 88
3, 131049, Note_on_c, 2, 66, 0
3, 131059, Note_on_c, 2, 70, 88
3, 131170, Note_on_c, 2, 70, 0
3, 131180, Note_on_c, 2, 67, 88
3, 131288, Note_on_c, 2, 67, 0
3, 131298, Note_on_c, 2, 69, 88
3, 131409, Note_on_c, 2, 69, 0
3, 131419, Note_on_c, 2, 62, 88
3, 131528, Note_on_c, 2, 62, 0
3, 131538, Note_on_c, 2, 67, 88
3, 132006, Note_on_c, 2, 67, 0
3, 132016, Note_on_c, 2, 67, 88
3, 132247, Note_on_c, 2, 67, 0
3, 132257, Note_on_c, 2, 71, 88
3, 132485, Note_on_c, 2, 71, 0
3, 132495, Note_on_c, 2, 67, 88
3, 132964, Note_on_c, 2, 67, 0
3, 133683, Note_on_c, 2, 67, 104
3, 133923, Note_on_c, 2, 67, 0
3, 133933, Note_on_c, 2, 72, 104
3, 134171, Note_on_c, 2, 72, 0
3, 134182, Note_on_c, 2, 71, 104
3, 134410, Note_on_c, 2, 71, 0
3, 134420, Note_on_c, 2, 72, 104
3, 134650, Note_on_c, 2, 72, 0
3, 134659, Note_on_c, 2, 71, 72
3, 134889, Note_on_c, 2, 71, 0
3, 134899, Note_on_c, 2, 75, 72
3, 135009, Note_on_c, 2, 75, 0
3, 135019, Note_on_c, 2, 72, 72
3, 135128, Note_on_c, 2, 72, 0
3, 135138, Note_on_c, 2, 74, 72
3, 135248, Note_on_c, 2, 74, 0
3, 135258, Note_on_c, 2, 67, 72
3, 135369, Note_on_c, 2, 67, 0
3, 135378, Note_on_c, 2, 72, 72
3, 135488, Note_on_c, 2, 72, 0
3, 135498, Note_on_c, 2, 71, 72
3, 135608, Note_on_c, 2, 71, 0
3, 135618, Note_on_c, 2, 72, 72
3, 135729, Note_on_c, 2, 72, 0
3, 135738, Note_on_c, 2, 75, 72
3, 135847, Note_on_c, 2, 75, 0
3, 135857, Note_on_c, 2, 74, 72
3, 135966, Note_on_c, 2, 74, 0
3, 135977, Note_on_c, 2, 75, 72
3, 136086, Note_on_c, 2, 75, 0
3, 136095, Note_on_c, 2, 74, 72
3, 136206, Note_on_c, 2, 74, 0
3, 136216, Note_on_c, 2, 72, 72
3, 136326, Note_on_c, 2, 72, 0
3, 136336, Note_on_c, 2, 71, 72
3, 136446, Note_on_c, 2, 71, 0
3, 136455, Note_on_c, 2, 69, 72
3, 136565, Note_on_c, 2, 69, 0
3, 136575, Note_on_c, 2, 71, 72
3, 136685, Note_on_c, 2, 71, 0
3, 136695, Note_on_c, 2, 72, 72
3, 136804, Note_on_c, 2, 72, 0
3, 136813, Note_on_c, 2, 74, 72
3, 136923, Note_on_c, 2, 74, 0
3, 136933, Note_on_c, 2, 72, 72
3, 137044, Note_on_c, 2, 72, 0
3, 137054, Note_on_c, 2, 74, 72
3, 137163, Note_on_c, 2, 74, 0
3, 137173, Note_on_c, 2, 71, 72
3, 137283, Note_on_c, 2, 71, 0
3, 137293, Note_on_c, 2, 72, 72
3, 137522, Note_on_c, 2, 72, 0
3, 137532, Note_on_c, 2, 71, 72
3, 137762, Note_on_c, 2, 71, 0
3, 137772, Note_on_c, 2, 72, 72
3, 138001, Note_on_c, 2, 72, 0
3, 138011, Note_on_c, 2, 79, 72
3, 138251, Note_on_c, 2, 79, 0
3, 138261, Note_on_c, 2, 79, 72
3, 138490, Note_on_c, 2, 79, 0
3, 145562, Note_on_c, 2, 55, 72
3, 145681, Note_on_c, 2, 55, 0
3, 145691, Note_on_c, 2, 53, 72
3, 145801, Note_on_c, 2, 53, 0
3, 145811, Note_on_c, 2, 55, 72
3, 145922, Note_on_c, 2, 55, 0
3, 145931, Note_on_c, 2, 51, 72
3, 146051, Note_on_c, 2, 51, 0
3, 146061, Note_on_c, 2, 53, 72
3, 146170, Note_on_c, 2, 53, 0
3, 146180, Note_on_c, 2, 50, 72
3, 146290, Note_on_c, 2, 50, 0
3, 146300, Note_on_c, 2, 51, 72
3, 146410, Note_on_c, 2, 51, 0
3, 146420, Note_on_c, 2, 48, 72
3, 146530, Note_on_c, 2, 48, 0
3, 146540, Note_on_c, 2, 51, 72
3, 146649, Note_on_c, 2, 51, 0
3, 146659, Note_on_c, 2, 50, 72
3, 146769, Note_on_c, 2, 50, 0
3, 146779, Note_on_c, 2, 48, 72
3, 146888, Note_on_c, 2, 48, 0
3, 146898, Note_on_c, 2, 47, 72
3, 147008, Note_on_c, 2, 47, 0
3, 147018, Note_on_c, 2, 48, 72
3, 147128, Note_on_c, 2, 48, 0
3, 147138, Note_on_c, 2, 45, 72
3, 147248, Note_on_c, 2, 45, 0
3, 147258, Note_on_c, 2, 47, 72
3, 147368, Note_on_c, 2, 47, 0
3, 147378, Note_on_c, 2, 43, 72
3, 147607, Note_on_c, 2, 43, 0
3, 147617, Note_on_c, 2, 55, 72
3, 147846, Note_on_c, 2, 55, 0
3, 147856, Note_on_c, 2, 51, 72
3, 148085, Note_on_c, 2, 51, 0
3, 148096, Note_on_c, 2, 48, 72
3, 148325, Note_on_c, 2, 48, 0
3, 148335, Note_on_c, 2, 53, 72
3, 148564, Note_on_c, 2, 53, 0
3, 148574, Note_on_c, 2, 51, 72
3, 148804, Note_on_c, 2, 51, 0
3, 148814, Note_on_c, 2, 50, 72
3, 149043, Note_on_c, 2, 50, 0
3, 149053, Note_on_c, 2, 46, 72
3, 149282, Note_on_c, 2, 46, 0
3, 149292, Note_on_c, 2, 51, 72
3, 149522, Note_on_c, 2, 51, 0
3, 149532, Note_on_c, 2, 50, 72
3, 149761, Note_on_c, 2, 50, 0
3, 149771, Note_on_c, 2, 48, 72
3, 150010, Note_on_c, 2, 48, 0
3, 150020, Note_on_c, 2, 46, 72
3, 150250, Note_on_c, 2, 46, 0
3, 150260, Note_on_c, 2, 48, 72
3, 150489, Note_on_c, 2, 48, 0
3, 150499, Note_on_c, 2, 44, 72
3, 150728, Note_on_c, 2, 44, 0
3, 150738, Note_on_c, 2, 46, 72
3, 151208, Note_on_c, 2, 46, 0
3, 151448, Note_on_c, 2, 46, 72
3, 151686, Note_on_c, 2, 46, 0
3, 151696, Note_on_c, 2, 39, 72
3, 152166, Note_on_c, 2, 39, 0
3, 156723, Program_c, 2, 0
3, 156725, Note_on_c, 2, 46, 104
3, 156963, Note_on_c, 2, 46, 0
3, 156973, Note_on_c, 2, 51, 104
3, 157202, Note_on_c, 2, 51, 0
3, 157212, Note_on_c, 2, 50, 104
3, 157442, Note_on_c, 2, 50, 0
3, 157453, Note_on_c, 2, 51, 104
3, 157930, Note_on_c, 2, 51, 0
3, 158649, Note_on_c, 2, 46, 104
3, 158889, Note_on_c, 2, 46, 0
3, 158899, Note_on_c, 2, 51, 104
3, 159128, Note_on_c, 2, 51, 0
3, 159138, Note_on_c, 2, 50, 104
3, 159368, Note_on_c, 2, 50, 0
3, 159378, Note_on_c, 2, 51, 104
3, 159606, Note_on_c, 2, 51, 0
3, 159616, Note_on_c, 2, 53, 104
3, 159845, Note_on_c, 2, 53, 0
3, 159855, Note_on_c, 2, 55, 104
3, 160085, Note_on_c, 2, 55, 0
3, 160095, Note_on_c, 2, 57, 104
3, 160324, Note_on_c, 2, 57, 0
3, 160334, Note_on_c, 2, 58, 104
3, 160563, Note_on_c, 2, 58, 0
3, 160564, Program_c, 2, 0
3, 160566, Note_on_c, 2, 77, 72
3, 160803, Note_on_c, 2, 77, 0
3, 160813, Note_on_c, 2, 82, 72
3, 161042, Note_on_c, 2, 82, 0
3, 161052, Note_on_c, 2, 81, 72
3, 161282, Note_on_c, 2, 81, 0
3, 161292, Note_on_c, 2, 82, 72
3, 161522, Note_on_c, 2, 82, 0
3, 162489, Program_c, 2, 0
3, 164165, Note_on_c, 2, 84, 56
3, 165602, Note_on_c, 2, 84, 0
3, 165612, Note_on_c, 2, 82, 56
3, 165851, Note_on_c, 2, 82, 0
3, 165861, Note_on_c, 2, 80, 56
3, 166090, Note_on_c, 2, 80, 0
3, 166100, Note_on_c, 2, 79, 56
3, 166330, Note_on_c, 2, 79, 0
3, 166339, Note_on_c, 2, 80, 56
3, 166569, Note_on_c, 2, 80, 0
3, 166579, Note_on_c, 2, 82, 56
3, 167526, Note_on_c, 2, 82, 0
3, 167536, Note_on_c, 2, 80, 56
3, 167766, Note_on_c, 2, 80, 0
3, 167776, Note_on_c, 2, 79, 56
3, 168005, Note_on_c, 2, 79, 0
3, 168015, Note_on_c, 2, 77, 56
3, 168245, Note_on_c, 2, 77, 0
3, 168255, Note_on_c, 2, 79, 56
3, 168484, Note_on_c, 2, 79, 0
3, 168494, Note_on_c, 2, 80, 56
3, 169442, Note_on_c, 2, 80, 0
3, 169452, Note_on_c, 2, 79, 56
3, 169692, Note_on_c, 2, 79, 0
3, 169702, Note_on_c, 2, 77, 56
3, 169930, Note_on_c, 2, 77, 0
3, 169941, Note_on_c, 2, 75, 56
3, 170050, Note_on_c, 2, 75, 0
3, 170060, Note_on_c, 2, 77, 56
3, 170170, Note_on_c, 2, 77, 0
3, 170180, Note_on_c, 2, 74, 56
3, 170289, Note_on_c, 2, 74, 0
3, 170299, Note_on_c, 2, 75, 56
3, 170410, Note_on_c, 2, 75, 0
3, 170420, Note_on_c, 2, 72, 56
3, 170529, Note_on_c, 2, 72, 0
3, 170539, Note_on_c, 2, 75, 56
3, 170648, Note_on_c, 2, 75, 0
3, 170659, Note_on_c, 2, 74, 56
3, 170767, Note_on_c, 2, 74, 0
3, 170777, Note_on_c, 2, 77, 56
3, 170888, Note_on_c, 2, 77, 0
3, 170898, Note_on_c, 2, 75, 56
3, 171008, Note_on_c, 2, 75, 0
3, 171018, Note_on_c, 2, 77, 56
3, 171127, Note_on_c, 2, 77, 0
3, 171137, Note_on_c, 2, 74, 56
3, 171247, Note_on_c, 2, 74, 0
3, 171257, Note_on_c, 2, 75, 56
3, 171367, Note_on_c, 2, 75, 0
3, 171377, Note_on_c, 2, 72, 56
3, 171487, Note_on_c, 2, 72, 0
3, 171497, Note_on_c, 2, 75, 56
3, 171606, Note_on_c, 2, 75, 0
3, 171615, Note_on_c, 2, 74, 56
3, 171726, Note_on_c, 2, 74, 0
3, 171736, Note_on_c, 2, 77, 56
3, 171846, Note_on_c, 2, 77, 0
3, 171855, Note_on_c, 2, 75, 56
3, 171965, Note_on_c, 2, 75, 0
3, 171975, Note_on_c, 2, 77, 56
3, 172085, Note_on_c, 2, 77, 0
3, 172095, Note_on_c, 2, 74, 56
3, 172205, Note_on_c, 2, 74, 0
3, 172215, Note_on_c, 2, 75, 56
3, 172324, Note_on_c, 2, 75, 0
3, 172335, Note_on_c, 2, 72, 56
3, 172444, Note_on_c, 2, 72, 0
3, 172454, Note_on_c, 2, 75, 56
3, 172564, Note_on_c, 2, 75, 0
3, 172573, Note_on_c, 2, 74, 56
3, 172683, Note_on_c, 2, 74, 0
3, 172693, Note_on_c, 2, 77, 56
3, 172803, Note_on_c, 2, 77, 0
3, 172813, Note_on_c, 2, 76, 56
3, 172923, Note_on_c, 2, 76, 0
3, 172933, Note_on_c, 2, 79, 56
3, 173042, Note_on_c, 2, 79, 0
3, 173052, Note_on_c, 2, 78, 56
3, 173162, Note_on_c, 2, 78, 0
3, 173172, Note_on_c, 2, 81, 56
3, 173282, Note_on_c, 2, 81, 0
3, 173291, Note_on_c, 2, 79, 56
3, 173401, Note_on_c, 2, 79, 0
3, 173412, Note_on_c, 2, 82, 56
3, 173521, Note_on_c, 2, 82, 0
3, 173531, Note_on_c, 2, 81, 56
3, 173650, Note_on_c, 2, 81, 0
3, 173661, Note_on_c, 2, 84, 56
3, 173772, Note_on_c, 2, 84, 0
3, 173782, Note_on_c, 2, 82, 56
3, 173890, Note_on_c, 2, 82, 0
3, 173900, Note_on_c, 2, 84, 56
3, 174010, Note_on_c, 2, 84, 0
3, 174021, Note_on_c, 2, 81, 56
3, 174130, Note_on_c, 2, 81, 0
3, 174140, Note_on_c, 2, 82, 56
3, 174249, Note_on_c, 2, 82, 0
3, 174259, Note_on_c, 2, 79, 56
3, 174368, Note_on_c, 2, 79, 0
3, 174379, Note_on_c, 2, 82, 56
3, 174489, Note_on_c, 2, 82, 0
3, 174499, Note_on_c, 2, 81, 56
3, 174608, Note_on_c, 2, 81, 0
3, 174618, Note_on_c, 2, 84, 56
3, 174728, Note_on_c, 2, 84, 0
3, 174739, Note_on_c, 2, 82, 56
3, 174848, Note_on_c, 2, 82, 0
3, 174858, Note_on_c, 2, 84, 56
3, 174968, Note_on_c, 2, 84, 0
3, 174978, Note_on_c, 2, 81, 56
3, 175086, Note_on_c, 2, 81, 0
3, 175096, Note_on_c, 2, 82, 56
3, 175208, Note_on_c, 2, 82, 0
3, 175217, Note_on_c, 2, 79, 56
3, 175326, Note_on_c, 2, 79, 0
3, 175336, Note_on_c, 2, 82, 56
3, 175447, Note_on_c, 2, 82, 0
3, 175457, Note_on_c, 2, 81, 56
3, 175567, Note_on_c, 2, 81, 0
3, 175577, Note_on_c, 2, 84, 56
3, 175687, Note_on_c, 2, 84, 0
3, 175696, Note_on_c, 2, 82, 56
3, 175805, Note_on_c, 2, 82, 0
3, 175816, Note_on_c, 2, 84, 56
3, 175926, Note_on_c, 2, 84, 0
3, 175936, Note_on_c, 2, 81, 56
3, 176044, Note_on_c, 2, 81, 0
3, 176054, Note_on_c, 2, 82, 56
3, 176165, Note_on_c, 2, 82, 0
3, 176175, Note_on_c, 2, 79, 56
3, 176284, Note_on_c, 2, 79, 0
3, 176294, Note_on_c, 2, 82, 56
3, 176404, Note_on_c, 2, 82, 0
3, 176414, Note_on_c, 2, 81, 56
3, 176523, Note_on_c, 2, 81, 0
3, 176534, Note_on_c, 2, 84, 56
3, 176644, Note_on_c, 2, 84, 0
3, 176654, Note_on_c, 2, 82, 56
3, 176762, Note_on_c, 2, 82, 0
3, 176772, Note_on_c, 2, 84, 56
3, 176882, Note_on_c, 2, 84, 0
3, 176892, Note_on_c, 2, 82, 56
3, 177002, Note_on_c, 2, 82, 0
3, 177012, Note_on_c, 2, 81, 56
3, 177122, Note_on_c, 2, 81, 0
3, 177131, Note_on_c, 2, 79, 56
3, 177241, Note_on_c, 2, 79, 0
3, 177251, Note_on_c, 2, 82, 56
3, 177362, Note_on_c, 2, 82, 0
3, 177371, Note_on_c, 2, 81, 56
3, 177482, Note_on_c, 2, 81, 0
3, 177492, Note_on_c, 2, 79, 56
3, 177612, Note_on_c, 2, 79, 0
3, 177622, Note_on_c, 2, 78, 56
3, 177850, Note_on_c, 2, 78, 0
3, 177861, Note_on_c, 2, 74, 56
3, 178089, Note_on_c, 2, 74, 0
3, 178328, Program_c, 2, 0
3, 178329, Note_on_c, 2, 74, 88
3, 178570, Note_on_c, 2, 74, 0
3, 178580, Note_on_c, 2, 70, 88
3, 178688, Note_on_c, 2, 70, 0
3, 178697, Note_on_c, 2, 72, 88
3, 178807, Note_on_c, 2, 72, 0
3, 178818, Note_on_c, 2, 69, 88
3, 178927, Note_on_c, 2, 69, 0
3, 178937, Note_on_c, 2, 70, 88
3, 179047, Note_on_c, 2, 70, 0
3, 179057, Note_on_c, 2, 67, 88
3, 179287, Note_on_c, 2, 67, 0
3, 179297, Note_on_c, 2, 79, 88
3, 179526, Note_on_c, 2, 79, 0
3, 179537, Note_on_c, 2, 78, 88
3, 179645, Note_on_c, 2, 78, 0
3, 179655, Note_on_c, 2, 79, 88
3, 179765, Note_on_c, 2, 79, 0
3, 179775, Note_on_c, 2, 76, 88
3, 179885, Note_on_c, 2, 76, 0
3, 179895, Note_on_c, 2, 78, 88
3, 180005, Note_on_c, 2, 78, 0
3, 180014, Note_on_c, 2, 74, 88
3, 180243, Note_on_c, 2, 74, 0
3, 180253, Note_on_c, 2, 79, 88
3, 180364, Note_on_c, 2, 79, 0
3, 180374, Note_on_c, 2, 74, 88
3, 180484, Note_on_c, 2, 74, 0
3, 180494, Note_on_c, 2, 75, 88
3, 180723, Note_on_c, 2, 75, 0
3, 180733, Note_on_c, 2, 72, 88
3, 180962, Note_on_c, 2, 72, 0
3, 180972, Note_on_c, 2, 65, 88
3, 181202, Note_on_c, 2, 65, 0
3, 181212, Note_on_c, 2, 77, 88
3, 181442, Note_on_c, 2, 77, 0
3, 181451, Note_on_c, 2, 74, 88
3, 181570, Note_on_c, 2, 74, 0
3, 181581, Note_on_c, 2, 75, 88
3, 181691, Note_on_c, 2, 75, 0
3, 181701, Note_on_c, 2, 72, 88
3, 181810, Note_on_c, 2, 72, 0
3, 181820, Note_on_c, 2, 74, 88
3, 181930, Note_on_c, 2, 74, 0
3, 181940, Note_on_c, 2, 70, 88
3, 182169, Note_on_c, 2, 70, 0
3, 182179, Note_on_c, 2, 75, 88
3, 182289, Note_on_c, 2, 75, 0
3, 182299, Note_on_c, 2, 70, 88
3, 182409, Note_on_c, 2, 70, 0
3, 182419, Note_on_c, 2, 72, 88
3, 182649, Note_on_c, 2, 72, 0
3, 182659, Note_on_c, 2, 69, 88
3, 182887, Note_on_c, 2, 69, 0
3, 182897, Note_on_c, 2, 62, 88
3, 183127, Note_on_c, 2, 62, 0
3, 183137, Note_on_c, 2, 74, 72
3, 183366, Note_on_c, 2, 74, 0
3, 183377, Note_on_c, 2, 70, 72
3, 183486, Note_on_c, 2, 70, 0
3, 183495, Note_on_c, 2, 72, 72
3, 183605, Note_on_c, 2, 72, 0
3, 183615, Note_on_c, 2, 69, 72
3, 183725, Note_on_c, 2, 69, 0
3, 183735, Note_on_c, 2, 70, 72
3, 183845, Note_on_c, 2, 70, 0
3, 183855, Note_on_c, 2, 67, 72
3, 183964, Note_on_c, 2, 67, 0
3, 183974, Note_on_c, 2, 70, 72
3, 184084, Note_on_c, 2, 70, 0
3, 184094, Note_on_c, 2, 69, 72
3, 184204, Note_on_c, 2, 69, 0
3, 184214, Note_on_c, 2, 67, 72
3, 184324, Note_on_c, 2, 67, 0
3, 184334, Note_on_c, 2, 66, 72
3, 184443, Note_on_c, 2, 66, 0
3, 184453, Note_on_c, 2, 67, 72
3, 184564, Note_on_c, 2, 67, 0
3, 184573, Note_on_c, 2, 64, 72
3, 184682, Note_on_c, 2, 64, 0
3, 184692, Note_on_c, 2, 66, 72
3, 184803, Note_on_c, 2, 66, 0
3, 184813, Note_on_c, 2, 62, 72
3, 184922, Note_on_c, 2, 62, 0
3, 184932, Note_on_c, 2, 66, 72
3, 185042, Note_on_c, 2, 66, 0
3, 185052, Note_on_c, 2, 69, 72
3, 185162, Note_on_c, 2, 69, 0
3, 185172, Note_on_c, 2, 72, 72
3, 185282, Note_on_c, 2, 72, 0
3, 185291, Note_on_c, 2, 70, 72
3, 185400, Note_on_c, 2, 70, 0
3, 185410, Note_on_c, 2, 72, 72
3, 185531, Note_on_c, 2, 72, 0
3, 185541, Note_on_c, 2, 69, 72
3, 185650, Note_on_c, 2, 69, 0
3, 185660, Note_on_c, 2, 70, 72
3, 185770, Note_on_c, 2, 70, 0
3, 185780, Note_on_c, 2, 67, 72
3, 185890, Note_on_c, 2, 67, 0
3, 185900, Note_on_c, 2, 70, 72
3, 186010, Note_on_c, 2, 70, 0
3, 186020, Note_on_c, 2, 74, 72
3, 186129, Note_on_c, 2, 74, 0
3, 186139, Note_on_c, 2, 77, 72
3, 186250, Note_on_c, 2, 77, 0
3, 186259, Note_on_c, 2, 75, 72
3, 186368, Note_on_c, 2, 75, 0
3, 186378, Note_on_c, 2, 77, 72
3, 186489, Note_on_c, 2, 77, 0
3, 186499, Note_on_c, 2, 74, 72
3, 186608, Note_on_c, 2, 74, 0
3, 186618, Note_on_c, 2, 75, 72
3, 186728, Note_on_c, 2, 75, 0
3, 186738, Note_on_c, 2, 72, 72
3, 186847, Note_on_c, 2, 72, 0
3, 186857, Note_on_c, 2, 74, 72
3, 186968, Note_on_c, 2, 74, 0
3, 186977, Note_on_c, 2, 70, 72
3, 187086, Note_on_c, 2, 70, 0
3, 187096, Note_on_c, 2, 72, 72
3, 187207, Note_on_c, 2, 72, 0
3, 187217, Note_on_c, 2, 69, 72
3, 187326, Note_on_c, 2, 69, 0
3, 187336, Note_on_c, 2, 70, 72
3, 187446, Note_on_c, 2, 70, 0
3, 187456, Note_on_c, 2, 67, 72
3, 187565, Note_on_c, 2, 67, 0
3, 187575, Note_on_c, 2, 69, 72
3, 187686, Note_on_c, 2, 69, 0
3, 187695, Note_on_c, 2, 65, 72
3, 187805, Note_on_c, 2, 65, 0
3, 187815, Note_on_c, 2, 69, 72
3, 187925, Note_on_c, 2, 69, 0
3, 187935, Note_on_c, 2, 72, 72
3, 188045, Note_on_c, 2, 72, 0
3, 188055, Note_on_c, 2, 75, 72
3, 188164, Note_on_c, 2, 75, 0
3, 188174, Note_on_c, 2, 74, 72
3, 188284, Note_on_c, 2, 74, 0
3, 188294, Note_on_c, 2, 75, 72
3, 188404, Note_on_c, 2, 75, 0
3, 188414, Note_on_c, 2, 72, 72
3, 188523, Note_on_c, 2, 72, 0
3, 188533, Note_on_c, 2, 74, 72
3, 188643, Note_on_c, 2, 74, 0
3, 188653, Note_on_c, 2, 70, 72
3, 188763, Note_on_c, 2, 70, 0
3, 188773, Note_on_c, 2, 72, 72
3, 188882, Note_on_c, 2, 72, 0
3, 188892, Note_on_c, 2, 69, 72
3, 189002, Note_on_c, 2, 69, 0
3, 189012, Note_on_c, 2, 70, 72
3, 189122, Note_on_c, 2, 70, 0
3, 189132, Note_on_c, 2, 67, 72
3, 189242, Note_on_c, 2, 67, 0
3, 189252, Note_on_c, 2, 69, 72
3, 189362, Note_on_c, 2, 69, 0
3, 189372, Note_on_c, 2, 65, 72
3, 189491, Note_on_c, 2, 65, 0
3, 189501, Note_on_c, 2, 67, 72
3, 189611, Note_on_c, 2, 67, 0
3, 189621, Note_on_c, 2, 63, 72
3, 189731, Note_on_c, 2, 63, 0
3, 189740, Note_on_c, 2, 67, 72
3, 189849, Note_on_c, 2, 67, 0
3, 189859, Note_on_c, 2, 70, 72
3, 189970, Note_on_c, 2, 70, 0
3, 189980, Note_on_c, 2, 74, 72
3, 190089, Note_on_c, 2, 74, 0
3, 190099, Note_on_c, 2, 72, 72
3, 190209, Note_on_c, 2, 72, 0
3, 190219, Note_on_c, 2, 74, 72
3, 190329, Note_on_c, 2, 74, 0
3, 190340, Note_on_c, 2, 70, 72
3, 190449, Note_on_c, 2, 70, 0
3, 190459, Note_on_c, 2, 72, 72
3, 190569, Note_on_c, 2, 72, 0
3, 190579, Note_on_c, 2, 69, 72
3, 190688, Note_on_c, 2, 69, 0
3, 190699, Note_on_c, 2, 70, 72
3, 190807, Note_on_c, 2, 70, 0
3, 190817, Note_on_c, 2, 67, 72
3, 190927, Note_on_c, 2, 67, 0
3, 190937, Note_on_c, 2, 69, 72
3, 191047, Note_on_c, 2, 69, 0
3, 191058, Note_on_c, 2, 66, 72
3, 191167, Note_on_c, 2, 66, 0
3, 191177, Note_on_c, 2, 67, 72
3, 191287, Note_on_c, 2, 67, 0
3, 191297, Note_on_c, 2, 64, 72
3, 191407, Note_on_c, 2, 64, 0
3, 191417, Note_on_c, 2, 66, 72
3, 191526, Note_on_c, 2, 66, 0
3, 191536, Note_on_c, 2, 62, 72
3, 191646, Note_on_c, 2, 62, 0
3, 191656, Note_on_c, 2, 66, 72
3, 191765, Note_on_c, 2, 66, 0
3, 191774, Note_on_c, 2, 69, 72
3, 191884, Note_on_c, 2, 69, 0
3, 191894, Note_on_c, 2, 74, 72
3, 192005, Note_on_c, 2, 74, 0
3, 192015, Note_on_c, 2, 67, 72
3, 192123, Note_on_c, 2, 67, 0
3, 192133, Note_on_c, 2, 70, 72
3, 192244, Note_on_c, 2, 70, 0
3, 192254, Note_on_c, 2, 74, 72
3, 192364, Note_on_c, 2, 74, 0
3, 192374, Note_on_c, 2, 79, 72
3, 192483, Note_on_c, 2, 79, 0
3, 192493, Note_on_c, 2, 70, 72
3, 192603, Note_on_c, 2, 70, 0
3, 192613, Note_on_c, 2, 74, 72
3, 192723, Note_on_c, 2, 74, 0
3, 192734, Note_on_c, 2, 67, 72
3, 192842, Note_on_c, 2, 67, 0
3, 192852, Note_on_c, 2, 70, 72
3, 192962, Note_on_c, 2, 70, 0
3, 192972, Note_on_c, 2, 62, 72
3, 193082, Note_on_c, 2, 62, 0
3, 193093, Note_on_c, 2, 66, 72
3, 193202, Note_on_c, 2, 66, 0
3, 193212, Note_on_c, 2, 69, 72
3, 193322, Note_on_c, 2, 69, 0
3, 193332, Note_on_c, 2, 72, 72
3, 193452, Note_on_c, 2, 72, 0
3, 193461, Note_on_c, 2, 70, 72
3, 193569, Note_on_c, 2, 70, 0
3, 193579, Note_on_c, 2, 74, 72
3, 193690, Note_on_c, 2, 74, 0
3, 193700, Note_on_c, 2, 67, 72
3, 193811, Note_on_c, 2, 67, 0
3, 193820, Note_on_c, 2, 70, 72
3, 193930, Note_on_c, 2, 70, 0
3, 193940, Note_on_c, 2, 60, 72
3, 194049, Note_on_c, 2, 60, 0
3, 194060, Note_on_c, 2, 63, 72
3, 194169, Note_on_c, 2, 63, 0
3, 194179, Note_on_c, 2, 67, 72
3, 194289, Note_on_c, 2, 67, 0
3, 194299, Note_on_c, 2, 70, 72
3, 194409, Note_on_c, 2, 70, 0
3, 194419, Note_on_c, 2, 69, 72
3, 194528, Note_on_c, 2, 69, 0
3, 194537, Note_on_c, 2, 72, 72
3, 194648, Note_on_c, 2, 72, 0
3, 194658, Note_on_c, 2, 65, 72
3, 194767, Note_on_c, 2, 65, 0
3, 194778, Note_on_c, 2, 69, 72
3, 194887, Note_on_c, 2, 69, 0
3, 194897, Note_on_c, 2, 58, 72
3, 195007, Note_on_c, 2, 58, 0
3, 195017, Note_on_c, 2, 62, 72
3, 195127, Note_on_c, 2, 62, 0
3, 195138, Note_on_c, 2, 65, 72
3, 195247, Note_on_c, 2, 65, 0
3, 195257, Note_on_c, 2, 69, 72
3, 195366, Note_on_c, 2, 69, 0
3, 195376, Note_on_c, 2, 67, 72
3, 195486, Note_on_c, 2, 67, 0
3, 195496, Note_on_c, 2, 70, 72
3, 195605, Note_on_c, 2, 70, 0
3, 195615, Note_on_c, 2, 63, 72
3, 195725, Note_on_c, 2, 63, 0
3, 195735, Note_on_c, 2, 67, 72
3, 195845, Note_on_c, 2, 67, 0
3, 195855, Note_on_c, 2, 57, 72
3, 195964, Note_on_c, 2, 57, 0
3, 195974, Note_on_c, 2, 60, 72
3, 196085, Note_on_c, 2, 60, 0
3, 196095, Note_on_c, 2, 63, 72
3, 196203, Note_on_c, 2, 63, 0
3, 196213, Note_on_c, 2, 67, 72
3, 196323, Note_on_c, 2, 67, 0
3, 196333, Note_on_c, 2, 66, 72
3, 196443, Note_on_c, 2, 66, 0
3, 196453, Note_on_c, 2, 69, 72
3, 196563, Note_on_c, 2, 69, 0
3, 196574, Note_on_c, 2, 62, 72
3, 196682, Note_on_c, 2, 62, 0
3, 196692, Note_on_c, 2, 66, 72
3, 196803, Note_on_c, 2, 66, 0
3, 196813, Note_on_c, 2, 67, 72
3, 197041, Note_on_c, 2, 67, 0
3, 197051, Note_on_c, 2, 69, 72
3, 197281, Note_on_c, 2, 69, 0
3, 197291, Note_on_c, 2, 70, 72
3, 197410, Note_on_c, 2, 70, 0
3, 197420, Note_on_c, 2, 72, 72
3, 197530, Note_on_c, 2, 72, 0
3, 197541, Note_on_c, 2, 70, 72
3, 197649, Note_on_c, 2, 70, 0
3, 197659, Note_on_c, 2, 72, 72
3, 197770, Note_on_c, 2, 72, 0
3, 197780, Note_on_c, 2, 74, 72
3, 198249, Note_on_c, 2, 74, 0
3, 198487, Note_on_c, 2, 74, 72
3, 198726, Note_on_c, 2, 74, 0
3, 198736, Note_on_c, 2, 72, 72
3, 198846, Note_on_c, 2, 72, 0
3, 198856, Note_on_c, 2, 74, 72
3, 198967, Note_on_c, 2, 74, 0
3, 198977, Note_on_c, 2, 75, 72
3, 199327, Note_on_c, 2, 75, 0
3, 199337, Note_on_c, 2, 75, 72
3, 199445, Note_on_c, 2, 75, 0
3, 199455, Note_on_c, 2, 74, 72
3, 199565, Note_on_c, 2, 74, 0
3, 199575, Note_on_c, 2, 72, 72
3, 199684, Note_on_c, 2, 72, 0
3, 199695, Note_on_c, 2, 70, 72
3, 199804, Note_on_c, 2, 70, 0
3, 199814, Note_on_c, 2, 72, 72
3, 199924, Note_on_c, 2, 72, 0
3, 199934, Note_on_c, 2, 74, 72
3, 200283, Note_on_c, 2, 74, 0
3, 200293, Note_on_c, 2, 74, 72
3, 200402, Note_on_c, 2, 74, 0
3, 200412, Note_on_c, 2, 72, 72
3, 200521, Note_on_c, 2, 72, 0
3, 200531, Note_on_c, 2, 70, 72
3, 200642, Note_on_c, 2, 70, 0
3, 200652, Note_on_c, 2, 69, 72
3, 200761, Note_on_c, 2, 69, 0
3, 200771, Note_on_c, 2, 70, 72
3, 200881, Note_on_c, 2, 70, 0
3, 200891, Note_on_c, 2, 72, 72
3, 201250, Note_on_c, 2, 72, 0
3, 201261, Note_on_c, 2, 72, 72
3, 201370, Note_on_c, 2, 72, 0
3, 201381, Note_on_c, 2, 70, 72
3, 201490, Note_on_c, 2, 70, 0
3, 201499, Note_on_c, 2, 69, 72
3, 201610, Note_on_c, 2, 69, 0
3, 201620, Note_on_c, 2, 67, 72
3, 201849, Note_on_c, 2, 67, 0
3, 201859, Note_on_c, 2, 69, 72
3, 202089, Note_on_c, 2, 69, 0
3, 202099, Note_on_c, 2, 70, 72
3, 202327, Note_on_c, 2, 70, 0
3, 202337, Note_on_c, 2, 72, 72
3, 202567, Note_on_c, 2, 72, 0
3, 202577, Note_on_c, 2, 74, 72
3, 203645, Note_on_c, 2, 74, 0
3, 203655, Note_on_c, 2, 75, 72
3, 203765, Note_on_c, 2, 75, 0
3, 203775, Note_on_c, 2, 72, 72
3, 203883, Note_on_c, 2, 72, 0
3, 203892, Note_on_c, 2, 74, 72
3, 204003, Note_on_c, 2, 74, 0
3, 204013, Note_on_c, 2, 70, 72
3, 204124, Note_on_c, 2, 70, 0
3, 204134, Note_on_c, 2, 72, 72
3, 204243, Note_on_c, 2, 72, 0
3, 204253, Note_on_c, 2, 74, 72
3, 204363, Note_on_c, 2, 74, 0
3, 204373, Note_on_c, 2, 75, 72
3, 204483, Note_on_c, 2, 75, 0
3, 204493, Note_on_c, 2, 72, 72
3, 205571, Note_on_c, 2, 72, 0
3, 205580, Note_on_c, 2, 74, 72
3, 205689, Note_on_c, 2, 74, 0
3, 205699, Note_on_c, 2, 70, 72
3, 205809, Note_on_c, 2, 70, 0
3, 205819, Note_on_c, 2, 72, 72
3, 205929, Note_on_c, 2, 72, 0
3, 205939, Note_on_c, 2, 69, 72
3, 206048, Note_on_c, 2, 69, 0
3, 206058, Note_on_c, 2, 70, 72
3, 206169, Note_on_c, 2, 70, 0
3, 206179, Note_on_c, 2, 72, 72
3, 206289, Note_on_c, 2, 72, 0
3, 206299, Note_on_c, 2, 74, 72
3, 206407, Note_on_c, 2, 74, 0
3, 206417, Note_on_c, 2, 70, 72
3, 207485, Note_on_c, 2, 70, 0
3, 207495, Note_on_c, 2, 72, 72
3, 207605, Note_on_c, 2, 72, 0
3, 207615, Note_on_c, 2, 69, 72
3, 207725, Note_on_c, 2, 69, 0
3, 207735, Note_on_c, 2, 70, 72
3, 207844, Note_on_c, 2, 70, 0
3, 207854, Note_on_c, 2, 67, 72
3, 207964, Note_on_c, 2, 67, 0
3, 207974, Note_on_c, 2, 70, 72
3, 208082, Note_on_c, 2, 70, 0
3, 208092, Note_on_c, 2, 69, 72
3, 208202, Note_on_c, 2, 69, 0
3, 208212, Note_on_c, 2, 67, 72
3, 208323, Note_on_c, 2, 67, 0
3, 208333, Note_on_c, 2, 66, 72
3, 208441, Note_on_c, 2, 66, 0
3, 208451, Note_on_c, 2, 67, 72
3, 208561, Note_on_c, 2, 67, 0
3, 208571, Note_on_c, 2, 63, 72
3, 208681, Note_on_c, 2, 63, 0
3, 208691, Note_on_c, 2, 66, 72
3, 208801, Note_on_c, 2, 66, 0
3, 208811, Note_on_c, 2, 67, 72
3, 208921, Note_on_c, 2, 67, 0
3, 208931, Note_on_c, 2, 70, 72
3, 209041, Note_on_c, 2, 70, 0
3, 209050, Note_on_c, 2, 69, 72
3, 209170, Note_on_c, 2, 69, 0
3, 209180, Note_on_c, 2, 72, 72
3, 209291, Note_on_c, 2, 72, 0
3, 209301, Note_on_c, 2, 70, 72
3, 209410, Note_on_c, 2, 70, 0
3, 209420, Note_on_c, 2, 69, 72
3, 209530, Note_on_c, 2, 69, 0
3, 209540, Note_on_c, 2, 67, 72
3, 209649, Note_on_c, 2, 67, 0
3, 209660, Note_on_c, 2, 69, 72
3, 209769, Note_on_c, 2, 69, 0
3, 209779, Note_on_c, 2, 66, 72
3, 209809, Note_on_c, 2, 66, 0
3, 209818, Note_on_c, 2, 67, 72
3, 209848, Note_on_c, 2, 67, 0
3, 209858, Note_on_c, 2, 66, 72
3, 209888, Note_on_c, 2, 66, 0
3, 209898, Note_on_c, 2, 67, 72
3, 209928, Note_on_c, 2, 67, 0
3, 209938, Note_on_c, 2, 66, 72
3, 209968, Note_on_c, 2, 66, 0
3, 209978, Note_on_c, 2, 67, 72
3, 210008, Note_on_c, 2, 67, 0
3, 210018, Note_on_c, 2, 66, 72
3, 210048, Note_on_c, 2, 66, 0
3, 210058, Note_on_c, 2, 67, 72
3, 210088, Note_on_c, 2, 67, 0
3, 210098, Note_on_c, 2, 66, 72
3, 210128, Note_on_c, 2, 66, 0
3, 210128, Program_c, 2, 0
3, 210129, Note_on_c, 2, 67, 72
3, 210247, Note_on_c, 2, 67, 0
3, 210248, Program_c, 2, 0
3, 210250, Note_on_c, 2, 67, 72
3, 210488, Note_on_c, 2, 67, 0
3, 210966, Program_c, 2, 0
3, 210966, Note_on_c, 2, 70, 88
3, 211206, Note_on_c, 2, 70, 0
3, 211216, Note_on_c, 2, 69, 88
3, 211685, Note_on_c, 2, 69, 0
3, 211925, Note_on_c, 2, 70, 88
3, 212163, Note_on_c, 2, 70, 0
3, 212173, Note_on_c, 2, 70, 88
3, 212761, Note_on_c, 2, 70, 0
3, 212771, Note_on_c, 2, 70, 88
3, 212881, Note_on_c, 2, 70, 0
3, 212891, Note_on_c, 2, 69, 88
3, 213001, Note_on_c, 2, 69, 0
3, 213011, Note_on_c, 2, 67, 88
3, 213132, Note_on_c, 2, 67, 0
3, 213142, Note_on_c, 2, 69, 88
3, 213608, Note_on_c, 2, 69, 0
3, 213618, Note_on_c, 2, 69, 88
3, 213729, Note_on_c, 2, 69, 0
3, 213739, Note_on_c, 2, 69, 88
3, 213850, Note_on_c, 2, 69, 0
3, 213860, Note_on_c, 2, 67, 88
3, 213968, Note_on_c, 2, 67, 0
3, 213978, Note_on_c, 2, 66, 88
3, 214089, Note_on_c, 2, 66, 0
3, 214099, Note_on_c, 2, 67, 88
3, 214567, Note_on_c, 2, 67, 0
3, 214577, Note_on_c, 2, 67, 88
3, 214686, Note_on_c, 2, 67, 0
3, 214696, Note_on_c, 2, 67, 88
3, 214807, Note_on_c, 2, 67, 0
3, 214817, Note_on_c, 2, 66, 88
3, 214926, Note_on_c, 2, 66, 0
3, 214936, Note_on_c, 2, 64, 88
3, 215046, Note_on_c, 2, 64, 0
3, 215056, Note_on_c, 2, 62, 88
3, 215286, Note_on_c, 2, 62, 0
3, 215296, Note_on_c, 2, 66, 88
3, 215525, Note_on_c, 2, 66, 0
3, 215534, Note_on_c, 2, 67, 88
3, 215764, Note_on_c, 2, 67, 0
3, 215774, Note_on_c, 2, 63, 88
3, 216003, Note_on_c, 2, 63, 0
3, 216013, Note_on_c, 2, 62, 88
3, 216243, Note_on_c, 2, 62, 0
3, 216253, Note_on_c, 2, 66, 88
3, 216483, Note_on_c, 2, 66, 0
3, 216492, Note_on_c, 2, 67, 88
3, 216722, Note_on_c, 2, 67, 0
3, 216732, Note_on_c, 2, 63, 88
3, 216961, Note_on_c, 2, 63, 0
3, 216971, Note_on_c, 2, 62, 88
3, 217210, Note_on_c, 2, 62, 0
3, 217221, Note_on_c, 2, 66, 88
3, 217450, Note_on_c, 2, 66, 0
3, 217459, Note_on_c, 2, 67, 88
3, 217689, Note_on_c, 2, 67, 0
3, 217699, Note_on_c, 2, 63, 88
3, 217929, Note_on_c, 2, 63, 0
3, 217939, Note_on_c, 2, 62, 88
3, 218170, Note_on_c, 2, 62, 0
3, 218179, Note_on_c, 2, 63, 88
3, 218402, Note_on_c, 2, 63, 0
3, 218411, Note_on_c, 2, 58, 88
3, 218645, Note_on_c, 2, 58, 0
3, 218655, Note_on_c, 2, 62, 88
3, 218882, Note_on_c, 2, 62, 0
3, 218885, Note_on_c, 2, 71, 88
3, 220802, Note_on_c, 2, 71, 0
3, 222720, End_track
4, 0, Start_track
4, 0, Program_c, 3, 0
4, 0, Program_c, 3, 0
4, 17047, Note_on_c, 3, 62, 72
4, 17287, Note_on_c, 3, 62, 0
4, 17297, Note_on_c, 3, 58, 72
4, 17406, Note_on_c, 3, 58, 0
4, 17416, Note_on_c, 3, 60, 72
4, 17527, Note_on_c, 3, 60, 0
4, 17537, Note_on_c, 3, 57, 72
4, 17646, Note_on_c, 3, 57, 0
4, 17655, Note_on_c, 3, 58, 72
4, 17767, Note_on_c, 3, 58, 0
4, 17776, Note_on_c, 3, 55, 72
4, 18005, Note_on_c, 3, 55, 0
4, 18015, Note_on_c, 3, 67, 72
4, 18245, Note_on_c, 3, 67, 0
4, 18255, Note_on_c, 3, 66, 72
4, 18363, Note_on_c, 3, 66, 0
4, 18373, Note_on_c, 3, 67, 72
4, 18485, Note_on_c, 3, 67, 0
4, 18495, Note_on_c, 3, 64, 72
4, 18603, Note_on_c, 3, 64, 0
4, 18613, Note_on_c, 3, 66, 72
4, 18724, Note_on_c, 3, 66, 0
4, 18734, Note_on_c, 3, 62, 72
4, 18964, Note_on_c, 3, 62, 0
4, 18973, Note_on_c, 3, 67, 72
4, 19081, Note_on_c, 3, 67, 0
4, 19091, Note_on_c, 3, 62, 72
4, 19202, Note_on_c, 3, 62, 0
4, 19212, Note_on_c, 3, 63, 72
4, 19441, Note_on_c, 3, 63, 0
4, 19451, Note_on_c, 3, 60, 72
4, 19682, Note_on_c, 3, 60, 0
4, 19691, Note_on_c, 3, 53, 72
4, 19931, Note_on_c, 3, 53, 0
4, 19940, Note_on_c, 3, 65, 72
4, 20170, Note_on_c, 3, 65, 0
4, 20180, Note_on_c, 3, 62, 72
4, 20290, Note_on_c, 3, 62, 0
4, 20300, Note_on_c, 3, 63, 72
4, 20409, Note_on_c, 3, 63, 0
4, 20419, Note_on_c, 3, 60, 72
4, 20529, Note_on_c, 3, 60, 0
4, 20539, Note_on_c, 3, 62, 72
4, 20650, Note_on_c, 3, 62, 0
4, 20660, Note_on_c, 3, 58, 72
4, 20889, Note_on_c, 3, 58, 0
4, 20899, Note_on_c, 3, 63, 72
4, 21009, Note_on_c, 3, 63, 0
4, 21019, Note_on_c, 3, 58, 72
4, 21128, Note_on_c, 3, 58, 0
4, 21138, Note_on_c, 3, 60, 72
4, 21366, Note_on_c, 3, 60, 0
4, 21376, Note_on_c, 3, 57, 72
4, 21607, Note_on_c, 3, 57, 0
4, 21617, Note_on_c, 3, 50, 72
4, 21846, Note_on_c, 3, 50, 0
4, 21856, Note_on_c, 3, 62, 72
4, 22086, Note_on_c, 3, 62, 0
4, 22095, Note_on_c, 3, 58, 72
4, 22204, Note_on_c, 3, 58, 0
4, 22214, Note_on_c, 3, 60, 72
4, 22325, Note_on_c, 3, 60, 0
4, 22335, Note_on_c, 3, 57, 72
4, 22444, Note_on_c, 3, 57, 0
4, 22454, Note_on_c, 3, 58, 72
4, 22565, Note_on_c, 3, 58, 0
4, 22574, Note_on_c, 3, 55, 72
4, 22684, Note_on_c, 3, 55, 0
4, 22694, Note_on_c, 3, 57, 72
4, 22804, Note_on_c, 3, 57, 0
4, 22814, Note_on_c, 3, 58, 72
4, 22922, Note_on_c, 3, 58, 0
4, 22932, Note_on_c, 3, 60, 72
4, 23043, Note_on_c, 3, 60, 0
4, 23053, Note_on_c, 3, 62, 72
4, 23162, Note_on_c, 3, 62, 0
4, 23172, Note_on_c, 3, 63, 72
4, 23282, Note_on_c, 3, 63, 0
4, 23292, Note_on_c, 3, 60, 72
4, 23402, Note_on_c, 3, 60, 0
4, 23412, Note_on_c, 3, 62, 72
4, 23523, Note_on_c, 3, 62, 0
4, 23532, Note_on_c, 3, 58, 72
4, 23651, Note_on_c, 3, 58, 0
4, 23661, Note_on_c, 3, 60, 72
4, 23771, Note_on_c, 3, 60, 0
4, 23780, Note_on_c, 3, 62, 72
4, 23889, Note_on_c, 3, 62, 0
4, 23899, Note_on_c, 3, 63, 72
4, 24010, Note_on_c, 3, 63, 0
4, 24020, Note_on_c, 3, 65, 72
4, 24130, Note_on_c, 3, 65, 0
4, 24140, Note_on_c, 3, 67, 72
4, 24249, Note_on_c, 3, 67, 0
4, 24259, Note_on_c, 3, 63, 72
4, 24369, Note_on_c, 3, 63, 0
4, 24379, Note_on_c, 3, 65, 72
4, 24490, Note_on_c, 3, 65, 0
4, 24500, Note_on_c, 3, 62, 72
4, 24608, Note_on_c, 3, 62, 0
4, 24618, Note_on_c, 3, 65, 72
4, 24728, Note_on_c, 3, 65, 0
4, 24738, Note_on_c, 3, 63, 72
4, 24848, Note_on_c, 3, 63, 0
4, 24859, Note_on_c, 3, 62, 72
4, 24968, Note_on_c, 3, 62, 0
4, 24978, Note_on_c, 3, 60, 72
4, 25087, Note_on_c, 3, 60, 0
4, 25097, Note_on_c, 3, 62, 72
4, 25208, Note_on_c, 3, 62, 0
4, 25218, Note_on_c, 3, 58, 72
4, 25326, Note_on_c, 3, 58, 0
4, 25336, Note_on_c, 3, 60, 72
4, 25446, Note_on_c, 3, 60, 0
4, 25456, Note_on_c, 3, 57, 72
4, 25566, Note_on_c, 3, 57, 0
4, 25576, Note_on_c, 3, 58, 72
4, 25686, Note_on_c, 3, 58, 0
4, 25696, Note_on_c, 3, 60, 72
4, 25805, Note_on_c, 3, 60, 0
4, 25815, Note_on_c, 3, 62, 72
4, 25927, Note_on_c, 3, 62, 0
4, 25937, Note_on_c, 3, 58, 72
4, 26045, Note_on_c, 3, 58, 0
4, 26055, Note_on_c, 3, 60, 72
4, 26164, Note_on_c, 3, 60, 0
4, 26174, Note_on_c, 3, 57, 72
4, 26283, Note_on_c, 3, 57, 0
4, 26293, Note_on_c, 3, 58, 72
4, 26404, Note_on_c, 3, 58, 0
4, 26414, Note_on_c, 3, 55, 72
4, 26523, Note_on_c, 3, 55, 0
4, 26533, Note_on_c, 3, 57, 72
4, 26644, Note_on_c, 3, 57, 0
4, 26653, Note_on_c, 3, 58, 40
4, 26763, Note_on_c, 3, 58, 0
4, 26773, Note_on_c, 3, 60, 40
4, 26884, Note_on_c, 3, 60, 0
4, 26894, Note_on_c, 3, 62, 40
4, 27123, Note_on_c, 3, 62, 0
4, 27133, Note_on_c, 3, 64, 40
4, 27362, Note_on_c, 3, 64, 0
4, 27372, Note_on_c, 3, 65, 40
4, 27481, Note_on_c, 3, 65, 0
4, 27491, Note_on_c, 3, 67, 40
4, 27612, Note_on_c, 3, 67, 0
4, 27622, Note_on_c, 3, 65, 40
4, 27730, Note_on_c, 3, 65, 0
4, 27740, Note_on_c, 3, 67, 40
4, 27852, Note_on_c, 3, 67, 0
4, 27862, Note_on_c, 3, 69, 40
4, 28089, Note_on_c, 3, 69, 0
4, 28099, Note_on_c, 3, 64, 40
4, 28329, Note_on_c, 3, 64, 0
4, 28339, Note_on_c, 3, 65, 40
4, 29287, Note_on_c, 3, 65, 0
4, 29297, Note_on_c, 3, 64, 40
4, 30244, Note_on_c, 3, 64, 0
4, 30254, Note_on_c, 3, 62, 40
4, 31202, Note_on_c, 3, 62, 0
4, 31212, Note_on_c, 3, 61, 40
4, 31691, Note_on_c, 3, 61, 0
4, 31701, Note_on_c, 3, 62, 40
4, 32170, Note_on_c, 3, 62, 0
4, 40091, Note_on_c, 3, 74, 88
4, 40329, Note_on_c, 3, 74, 0
4, 40338, Note_on_c, 3, 70, 88
4, 40448, Note_on_c, 3, 70, 0
4, 40458, Note_on_c, 3, 72, 88
4, 40568, Note_on_c, 3, 72, 0
4, 40578, Note_on_c, 3, 69, 88
4, 40687, Note_on_c, 3, 69, 0
4, 40697, Note_on_c, 3, 70, 88
4, 40807, Note_on_c, 3, 70, 0
4, 40817, Note_on_c, 3, 67, 88
4, 41048, Note_on_c, 3, 67, 0
4, 41058, Note_on_c, 3, 79, 88
4, 41287, Note_on_c, 3, 79, 0
4, 41297, Note_on_c, 3, 78, 88
4, 41405, Note_on_c, 3, 78, 0
4, 41415, Note_on_c, 3, 79, 88
4, 41525, Note_on_c, 3, 79, 0
4, 41535, Note_on_c, 3, 76, 88
4, 41645, Note_on_c, 3, 76, 0
4, 41655, Note_on_c, 3, 78, 88
4, 41765, Note_on_c, 3, 78, 0
4, 41776, Note_on_c, 3, 74, 88
4, 42005, Note_on_c, 3, 74, 0
4, 42015, Note_on_c, 3, 79, 88
4, 42123, Note_on_c, 3, 79, 0
4, 42134, Note_on_c, 3, 74, 88
4, 42244, Note_on_c, 3, 74, 0
4, 42254, Note_on_c, 3, 75, 88
4, 42483, Note_on_c, 3, 75, 0
4, 42493, Note_on_c, 3, 72, 88
4, 42723, Note_on_c, 3, 72, 0
4, 42732, Note_on_c, 3, 65, 88
4, 42963, Note_on_c, 3, 65, 0
4, 42972, Note_on_c, 3, 77, 88
4, 43202, Note_on_c, 3, 77, 0
4, 43212, Note_on_c, 3, 74, 88
4, 43321, Note_on_c, 3, 74, 0
4, 43331, Note_on_c, 3, 75, 88
4, 43451, Note_on_c, 3, 75, 0
4, 43461, Note_on_c, 3, 72, 88
4, 43570, Note_on_c, 3, 72, 0
4, 43580, Note_on_c, 3, 74, 88
4, 43690, Note_on_c, 3, 74, 0
4, 43700, Note_on_c, 3, 70, 88
4, 43930, Note_on_c, 3, 70, 0
4, 43940, Note_on_c, 3, 75, 88
4, 44050, Note_on_c, 3, 75, 0
4, 44060, Note_on_c, 3, 70, 88
4, 44169, Note_on_c, 3, 70, 0
4, 44179, Note_on_c, 3, 72, 88
4, 44408, Note_on_c, 3, 72, 0
4, 44418, Note_on_c, 3, 69, 88
4, 44647, Note_on_c, 3, 69, 0
4, 44657, Note_on_c, 3, 62, 88
4, 44888, Note_on_c, 3, 62, 0
4, 44897, Note_on_c, 3, 74, 88
4, 45127, Note_on_c, 3, 74, 0
4, 45137, Note_on_c, 3, 70, 88
4, 45245, Note_on_c, 3, 70, 0
4, 45256, Note_on_c, 3, 72, 88
4, 45366, Note_on_c, 3, 72, 0
4, 45376, Note_on_c, 3, 69, 88
4, 45485, Note_on_c, 3, 69, 0
4, 45495, Note_on_c, 3, 70, 88
4, 45605, Note_on_c, 3, 70, 0
4, 45616, Note_on_c, 3, 67, 88
4, 45725, Note_on_c, 3, 67, 0
4, 45735, Note_on_c, 3, 69, 88
4, 45846, Note_on_c, 3, 69, 0
4, 45855, Note_on_c, 3, 71, 88
4, 45964, Note_on_c, 3, 71, 0
4, 45975, Note_on_c, 3, 73, 88
4, 46085, Note_on_c, 3, 73, 0
4, 46095, Note_on_c, 3, 74, 88
4, 46323, Note_on_c, 3, 74, 0
4, 46334, Note_on_c, 3, 76, 88
4, 46563, Note_on_c, 3, 76, 0
4, 46573, Note_on_c, 3, 77, 88
4, 46681, Note_on_c, 3, 77, 0
4, 46693, Note_on_c, 3, 79, 88
4, 46803, Note_on_c, 3, 79, 0
4, 46813, Note_on_c, 3, 77, 88
4, 46921, Note_on_c, 3, 77, 0
4, 46931, Note_on_c, 3, 79, 88
4, 47042, Note_on_c, 3, 79, 0
4, 47053, Note_on_c, 3, 81, 88
4, 47282, Note_on_c, 3, 81, 0
4, 47291, Note_on_c, 3, 76, 88
4, 47531, Note_on_c, 3, 76, 0
4, 47541, Note_on_c, 3, 77, 88
4, 48488, Note_on_c, 3, 77, 0
4, 48498, Note_on_c, 3, 76, 88
4, 49445, Note_on_c, 3, 76, 0
4, 49455, Note_on_c, 3, 74, 88
4, 50403, Note_on_c, 3, 74, 0
4, 50413, Note_on_c, 3, 73, 88
4, 50883, Note_on_c, 3, 73, 0
4, 50893, Note_on_c, 3, 74, 88
4, 51371, Note_on_c, 3, 74, 0
4, 51610, Note_on_c, 3, 74, 88
4, 51850, Note_on_c, 3, 74, 0
4, 51860, Note_on_c, 3, 72, 88
4, 52329, Note_on_c, 3, 72, 0
4, 52339, Note_on_c, 3, 77, 88
4, 52808, Note_on_c, 3, 77, 0
4, 52818, Note_on_c, 3, 70, 88
4, 53286, Note_on_c, 3, 70, 0
4, 53404, Note_on_c, 3, 79, 88
4, 53526, Note_on_c, 3, 79, 0
4, 53536, Note_on_c, 3, 78, 88
4, 53645, Note_on_c, 3, 78, 0
4, 53655, Note_on_c, 3, 79, 88
4, 53764, Note_on_c, 3, 79, 0
4, 53774, Note_on_c, 3, 69, 88
4, 54003, Note_on_c, 3, 69, 0
4, 54013, Note_on_c, 3, 75, 88
4, 54244, Note_on_c, 3, 75, 0
4, 54253, Note_on_c, 3, 74, 88
4, 54363, Note_on_c, 3, 74, 0
4, 54373, Note_on_c, 3, 72, 88
4, 54483, Note_on_c, 3, 72, 0
4, 54492, Note_on_c, 3, 70, 56
4, 54603, Note_on_c, 3, 70, 0
4, 54613, Note_on_c, 3, 69, 56
4, 54722, Note_on_c, 3, 69, 0
4, 54733, Note_on_c, 3, 67, 56
4, 54962, Note_on_c, 3, 67, 0
4, 54971, Note_on_c, 3, 69, 56
4, 55202, Note_on_c, 3, 69, 0
4, 55211, Note_on_c, 3, 70, 56
4, 55331, Note_on_c, 3, 70, 0
4, 55341, Note_on_c, 3, 72, 56
4, 55451, Note_on_c, 3, 72, 0
4, 55461, Note_on_c, 3, 70, 56
4, 55569, Note_on_c, 3, 70, 0
4, 55579, Note_on_c, 3, 72, 56
4, 55689, Note_on_c, 3, 72, 0
4, 55699, Note_on_c, 3, 74, 56
4, 56169, Note_on_c, 3, 74, 0
4, 56288, Note_on_c, 3, 74, 56
4, 56408, Note_on_c, 3, 74, 0
4, 56419, Note_on_c, 3, 75, 56
4, 56528, Note_on_c, 3, 75, 0
4, 56538, Note_on_c, 3, 74, 56
4, 56647, Note_on_c, 3, 74, 0
4, 56657, Note_on_c, 3, 72, 56
4, 56766, Note_on_c, 3, 72, 0
4, 56777, Note_on_c, 3, 74, 56
4, 56887, Note_on_c, 3, 74, 0
4, 56897, Note_on_c, 3, 75, 56
4, 57245, Note_on_c, 3, 75, 0
4, 57255, Note_on_c, 3, 75, 56
4, 57366, Note_on_c, 3, 75, 0
4, 57376, Note_on_c, 3, 74, 56
4, 57484, Note_on_c, 3, 74, 0
4, 57495, Note_on_c, 3, 72, 56
4, 57605, Note_on_c, 3, 72, 0
4, 57615, Note_on_c, 3, 70, 56
4, 57724, Note_on_c, 3, 70, 0
4, 57734, Note_on_c, 3, 72, 56
4, 57844, Note_on_c, 3, 72, 0
4, 57854, Note_on_c, 3, 74, 56
4, 58203, Note_on_c, 3, 74, 0
4, 58213, Note_on_c, 3, 74, 56
4, 58323, Note_on_c, 3, 74, 0
4, 58333, Note_on_c, 3, 72, 56
4, 58442, Note_on_c, 3, 72, 0
4, 58452, Note_on_c, 3, 70, 56
4, 58563, Note_on_c, 3, 70, 0
4, 58573, Note_on_c, 3, 69, 56
4, 58682, Note_on_c, 3, 69, 0
4, 58692, Note_on_c, 3, 70, 56
4, 58802, Note_on_c, 3, 70, 0
4, 58812, Note_on_c, 3, 72, 56
4, 59171, Note_on_c, 3, 72, 0
4, 59180, Note_on_c, 3, 72, 56
4, 59291, Note_on_c, 3, 72, 0
4, 59300, Note_on_c, 3, 70, 56
4, 59409, Note_on_c, 3, 70, 0
4, 59419, Note_on_c, 3, 69, 56
4, 59530, Note_on_c, 3, 69, 0
4, 59540, Note_on_c, 3, 70, 56
4, 59769, Note_on_c, 3, 70, 0
4, 59780, Note_on_c, 3, 72, 56
4, 60008, Note_on_c, 3, 72, 0
4, 60018, Note_on_c, 3, 74, 56
4, 60128, Note_on_c, 3, 74, 0
4, 60138, Note_on_c, 3, 76, 56
4, 60248, Note_on_c, 3, 76, 0
4, 60258, Note_on_c, 3, 74, 56
4, 60367, Note_on_c, 3, 74, 0
4, 60377, Note_on_c, 3, 76, 56
4, 60487, Note_on_c, 3, 76, 0
4, 60498, Note_on_c, 3, 77, 56
4, 60527, Note_on_c, 3, 79, 56
4, 60537, Note_on_c, 3, 77, 0
4, 60567, Note_on_c, 3, 77, 56
4, 60577, Note_on_c, 3, 79, 0
4, 60608, Note_on_c, 3, 79, 56
4, 60617, Note_on_c, 3, 77, 0
4, 60647, Note_on_c, 3, 77, 56
4, 60657, Note_on_c, 3, 79, 0
4, 60686, Note_on_c, 3, 79, 56
4, 60697, Note_on_c, 3, 77, 0
4, 60727, Note_on_c, 3, 77, 56
4, 60736, Note_on_c, 3, 79, 0
4, 60767, Note_on_c, 3, 79, 56
4, 60776, Note_on_c, 3, 77, 0
4, 60807, Note_on_c, 3, 77, 56
4, 60817, Note_on_c, 3, 79, 0
4, 60847, Note_on_c, 3, 79, 56
4, 60857, Note_on_c, 3, 77, 0
4, 60886, Note_on_c, 3, 77, 56
4, 60896, Note_on_c, 3, 79, 0
4, 60926, Note_on_c, 3, 79, 56
4, 60935, Note_on_c, 3, 77, 0
4, 60967, Note_on_c, 3, 77, 56
4, 60975, Note_on_c, 3, 79, 0
4, 61006, Note_on_c, 3, 79, 56
4, 61016, Note_on_c, 3, 77, 0
4, 61045, Note_on_c, 3, 77, 56
4, 61056, Note_on_c, 3, 79, 0
4, 61085, Note_on_c, 3, 79, 56
4, 61095, Note_on_c, 3, 77, 0
4, 61126, Note_on_c, 3, 77, 56
4, 61135, Note_on_c, 3, 79, 0
4, 61165, Note_on_c, 3, 79, 56
4, 61175, Note_on_c, 3, 77, 0
4, 61205, Note_on_c, 3, 77, 56
4, 61214, Note_on_c, 3, 79, 0
4, 61245, Note_on_c, 3, 79, 56
4, 61255, Note_on_c, 3, 77, 0
4, 61285, Note_on_c, 3, 77, 56
4, 61295, Note_on_c, 3, 79, 0
4, 61325, Note_on_c, 3, 79, 56
4, 61335, Note_on_c, 3, 77, 0
4, 61365, Note_on_c, 3, 77, 56
4, 61375, Note_on_c, 3, 79, 0
4, 61405, Note_on_c, 3, 79, 56
4, 61415, Note_on_c, 3, 77, 0
4, 61445, Note_on_c, 3, 77, 56
4, 61454, Note_on_c, 3, 79, 0
4, 61485, Note_on_c, 3, 79, 56
4, 61494, Note_on_c, 3, 77, 0
4, 61525, Note_on_c, 3, 77, 56
4, 61534, Note_on_c, 3, 79, 0
4, 61564, Note_on_c, 3, 79, 56
4, 61574, Note_on_c, 3, 77, 0
4, 61604, Note_on_c, 3, 77, 56
4, 61615, Note_on_c, 3, 79, 0
4, 61644, Note_on_c, 3, 79, 56
4, 61654, Note_on_c, 3, 77, 0
4, 61684, Note_on_c, 3, 77, 56
4, 61693, Note_on_c, 3, 79, 0
4, 61724, Note_on_c, 3, 79, 56
4, 61733, Note_on_c, 3, 77, 0
4, 61764, Note_on_c, 3, 77, 56
4, 61774, Note_on_c, 3, 79, 0
4, 61804, Note_on_c, 3, 79, 56
4, 61814, Note_on_c, 3, 77, 0
4, 61843, Note_on_c, 3, 77, 56
4, 61853, Note_on_c, 3, 79, 0
4, 61884, Note_on_c, 3, 79, 56
4, 61893, Note_on_c, 3, 77, 0
4, 61924, Note_on_c, 3, 77, 56
4, 61933, Note_on_c, 3, 79, 0
4, 61963, Note_on_c, 3, 79, 56
4, 61973, Note_on_c, 3, 77, 0
4, 62003, Note_on_c, 3, 77, 56
4, 62013, Note_on_c, 3, 79, 0
4, 62043, Note_on_c, 3, 79, 56
4, 62053, Note_on_c, 3, 77, 0
4, 62083, Note_on_c, 3, 77, 56
4, 62093, Note_on_c, 3, 79, 0
4, 62123, Note_on_c, 3, 79, 56
4, 62133, Note_on_c, 3, 77, 0
4, 62163, Note_on_c, 3, 77, 56
4, 62173, Note_on_c, 3, 79, 0
4, 62202, Note_on_c, 3, 79, 56
4, 62212, Note_on_c, 3, 77, 0
4, 62243, Note_on_c, 3, 77, 56
4, 62252, Note_on_c, 3, 79, 0
4, 62283, Note_on_c, 3, 79, 56
4, 62292, Note_on_c, 3, 77, 0
4, 62323, Note_on_c, 3, 77, 56
4, 62333, Note_on_c, 3, 79, 0
4, 62362, Note_on_c, 3, 79, 56
4, 62373, Note_on_c, 3, 77, 0
4, 62403, Note_on_c, 3, 79, 0
4, 62413, Note_on_c, 3, 77, 56
4, 62523, Note_on_c, 3, 77, 0
4, 62533, Note_on_c, 3, 79, 56
4, 62643, Note_on_c, 3, 79, 0
4, 62652, Note_on_c, 3, 75, 56
4, 62762, Note_on_c, 3, 75, 0
4, 62772, Note_on_c, 3, 77, 56
4, 62882, Note_on_c, 3, 77, 0
4, 62892, Note_on_c, 3, 74, 56
4, 63002, Note_on_c, 3, 74, 0
4, 63011, Note_on_c, 3, 75, 56
4, 63131, Note_on_c, 3, 75, 0
4, 63142, Note_on_c, 3, 77, 56
4, 63251, Note_on_c, 3, 77, 0
4, 63260, Note_on_c, 3, 79, 56
4, 63370, Note_on_c, 3, 79, 0
4, 63380, Note_on_c, 3, 75, 56
4, 64448, Note_on_c, 3, 75, 0
4, 64458, Note_on_c, 3, 77, 56
4, 64568, Note_on_c, 3, 77, 0
4, 64578, Note_on_c, 3, 74, 56
4, 64687, Note_on_c, 3, 74, 0
4, 64697, Note_on_c, 3, 75, 56
4, 64807, Note_on_c, 3, 75, 0
4, 64817, Note_on_c, 3, 72, 56
4, 64927, Note_on_c, 3, 72, 0
4, 64937, Note_on_c, 3, 74, 56
4, 65046, Note_on_c, 3, 74, 0
4, 65056, Note_on_c, 3, 75, 56
4, 65166, Note_on_c, 3, 75, 0
4, 65177, Note_on_c, 3, 77, 56
4, 65286, Note_on_c, 3, 77, 0
4, 65295, Note_on_c, 3, 74, 56
4, 66363, Note_on_c, 3, 74, 0
4, 66373, Note_on_c, 3, 75, 56
4, 66483, Note_on_c, 3, 75, 0
4, 66493, Note_on_c, 3, 72, 56
4, 66602, Note_on_c, 3, 72, 0
4, 66613, Note_on_c, 3, 74, 56
4, 66722, Note_on_c, 3, 74, 0
4, 66731, Note_on_c, 3, 70, 56
4, 66841, Note_on_c, 3, 70, 0
4, 66851, Note_on_c, 3, 69, 56
4, 66961, Note_on_c, 3, 69, 0
4, 66972, Note_on_c, 3, 67, 56
4, 67091, Note_on_c, 3, 67, 0
4, 67101, Note_on_c, 3, 70, 56
4, 67211, Note_on_c, 3, 70, 0
4, 67221, Note_on_c, 3, 69, 56
4, 67330, Note_on_c, 3, 69, 0
4, 67340, Note_on_c, 3, 70, 56
4, 67450, Note_on_c, 3, 70, 0
4, 67460, Note_on_c, 3, 67, 56
4, 67569, Note_on_c, 3, 67, 0
4, 67579, Note_on_c, 3, 69, 56
4, 67690, Note_on_c, 3, 69, 0
4, 67700, Note_on_c, 3, 70, 56
4, 67809, Note_on_c, 3, 70, 0
4, 67819, Note_on_c, 3, 74, 56
4, 67929, Note_on_c, 3, 74, 0
4, 67939, Note_on_c, 3, 72, 56
4, 68048, Note_on_c, 3, 72, 0
4, 68058, Note_on_c, 3, 75, 56
4, 68168, Note_on_c, 3, 75, 0
4, 68178, Note_on_c, 3, 74, 56
4, 68288, Note_on_c, 3, 74, 0
4, 68298, Note_on_c, 3, 72, 56
4, 68408, Note_on_c, 3, 72, 0
4, 68418, Note_on_c, 3, 70, 56
4, 68526, Note_on_c, 3, 70, 0
4, 68536, Note_on_c, 3, 72, 56
4, 68647, Note_on_c, 3, 72, 0
4, 68658, Note_on_c, 3, 69, 56
4, 68686, Note_on_c, 3, 70, 56
4, 68696, Note_on_c, 3, 69, 0
4, 68726, Note_on_c, 3, 69, 56
4, 68735, Note_on_c, 3, 70, 0
4, 69006, Note_on_c, 3, 69, 0
4, 69016, Note_on_c, 3, 70, 56
4, 69127, Note_on_c, 3, 70, 0
4, 69136, Note_on_c, 3, 70, 56
4, 69365, Note_on_c, 3, 70, 0
4, 69376, Note_on_c, 3, 72, 56
4, 69605, Note_on_c, 3, 72, 0
4, 69615, Note_on_c, 3, 74, 56
4, 69724, Note_on_c, 3, 74, 0
4, 69734, Note_on_c, 3, 77, 56
4, 69845, Note_on_c, 3, 77, 0
4, 69854, Note_on_c, 3, 75, 56
4, 69963, Note_on_c, 3, 75, 0
4, 69973, Note_on_c, 3, 74, 56
4, 70083, Note_on_c, 3, 74, 0
4, 70093, Note_on_c, 3, 72, 56
4, 70202, Note_on_c, 3, 72, 0
4, 70212, Note_on_c, 3, 74, 56
4, 70323, Note_on_c, 3, 74, 0
4, 70333, Note_on_c, 3, 70, 56
4, 70442, Note_on_c, 3, 70, 0
4, 70452, Note_on_c, 3, 72, 56
4, 70562, Note_on_c, 3, 72, 0
4, 70572, Note_on_c, 3, 69, 56
4, 70802, Note_on_c, 3, 69, 0
4, 70812, Note_on_c, 3, 74, 56
4, 71529, Note_on_c, 3, 74, 0
4, 71539, Note_on_c, 3, 72, 56
4, 72488, Note_on_c, 3, 72, 0
4, 72498, Note_on_c, 3, 70, 56
4, 73445, Note_on_c, 3, 70, 0
4, 73456, Note_on_c, 3, 69, 56
4, 73924, Note_on_c, 3, 69, 0
4, 109683, Note_on_c, 3, 72, 88
4, 109923, Note_on_c, 3, 72, 0
4, 109932, Note_on_c, 3, 77, 88
4, 110162, Note_on_c, 3, 77, 0
4, 110171, Note_on_c, 3, 76, 88
4, 110401, Note_on_c, 3, 76, 0
4, 110412, Note_on_c, 3, 77, 88
4, 110530, Note_on_c, 3, 77, 0
4, 110541, Note_on_c, 3, 75, 88
4, 110650, Note_on_c, 3, 75, 0
4, 110660, Note_on_c, 3, 74, 88
4, 110770, Note_on_c, 3, 74, 0
4, 110780, Note_on_c, 3, 77, 88
4, 110890, Note_on_c, 3, 77, 0
4, 110900, Note_on_c, 3, 75, 88
4, 111010, Note_on_c, 3, 75, 0
4, 111019, Note_on_c, 3, 72, 88
4, 111130, Note_on_c, 3, 72, 0
4, 111140, Note_on_c, 3, 71, 88
4, 111249, Note_on_c, 3, 71, 0
4, 111259, Note_on_c, 3, 74, 88
4, 111369, Note_on_c, 3, 74, 0
4, 111379, Note_on_c, 3, 72, 88
4, 111608, Note_on_c, 3, 72, 0
4, 112566, Note_on_c, 3, 79, 88
4, 112806, Note_on_c, 3, 79, 0
4, 112815, Note_on_c, 3, 84, 88
4, 113044, Note_on_c, 3, 84, 0
4, 113054, Note_on_c, 3, 83, 88
4, 113284, Note_on_c, 3, 83, 0
4, 113294, Note_on_c, 3, 84, 88
4, 113403, Note_on_c, 3, 84, 0
4, 113413, Note_on_c, 3, 82, 88
4, 113523, Note_on_c, 3, 82, 0
4, 113533, Note_on_c, 3, 81, 88
4, 113643, Note_on_c, 3, 81, 0
4, 113653, Note_on_c, 3, 84, 88
4, 113763, Note_on_c, 3, 84, 0
4, 113773, Note_on_c, 3, 82, 88
4, 113883, Note_on_c, 3, 82, 0
4, 113894, Note_on_c, 3, 79, 88
4, 114001, Note_on_c, 3, 79, 0
4, 114011, Note_on_c, 3, 78, 88
4, 114122, Note_on_c, 3, 78, 0
4, 114132, Note_on_c, 3, 81, 88
4, 114242, Note_on_c, 3, 81, 0
4, 114252, Note_on_c, 3, 79, 88
4, 114491, Note_on_c, 3, 79, 0
4, 114500, Note_on_c, 3, 74, 88
4, 114731, Note_on_c, 3, 74, 0
4, 114741, Note_on_c, 3, 79, 88
4, 114970, Note_on_c, 3, 79, 0
4, 114980, Note_on_c, 3, 78, 88
4, 115209, Note_on_c, 3, 78, 0
4, 115219, Note_on_c, 3, 79, 88
4, 115449, Note_on_c, 3, 79, 0
4, 115458, Note_on_c, 3, 78, 56
4, 115568, Note_on_c, 3, 78, 0
4, 115578, Note_on_c, 3, 81, 56
4, 115688, Note_on_c, 3, 81, 0
4, 115698, Note_on_c, 3, 79, 56
4, 115807, Note_on_c, 3, 79, 0
4, 115817, Note_on_c, 3, 81, 56
4, 115927, Note_on_c, 3, 81, 0
4, 115937, Note_on_c, 3, 77, 56
4, 116048, Note_on_c, 3, 77, 0
4, 116058, Note_on_c, 3, 79, 56
4, 116167, Note_on_c, 3, 79, 0
4, 116176, Note_on_c, 3, 75, 56
4, 116286, Note_on_c, 3, 75, 0
4, 116297, Note_on_c, 3, 77, 56
4, 116406, Note_on_c, 3, 77, 0
4, 116416, Note_on_c, 3, 74, 56
4, 116526, Note_on_c, 3, 74, 0
4, 116536, Note_on_c, 3, 77, 56
4, 116646, Note_on_c, 3, 77, 0
4, 116657, Note_on_c, 3, 75, 56
4, 116765, Note_on_c, 3, 75, 0
4, 116775, Note_on_c, 3, 77, 56
4, 116884, Note_on_c, 3, 77, 0
4, 116894, Note_on_c, 3, 74, 56
4, 117004, Note_on_c, 3, 74, 0
4, 117015, Note_on_c, 3, 75, 56
4, 117124, Note_on_c, 3, 75, 0
4, 117134, Note_on_c, 3, 72, 56
4, 117244, Note_on_c, 3, 72, 0
4, 117254, Note_on_c, 3, 74, 56
4, 117364, Note_on_c, 3, 74, 0
4, 117374, Note_on_c, 3, 70, 56
4, 117484, Note_on_c, 3, 70, 0
4, 117494, Note_on_c, 3, 74, 56
4, 117602, Note_on_c, 3, 74, 0
4, 117612, Note_on_c, 3, 72, 56
4, 117722, Note_on_c, 3, 72, 0
4, 117732, Note_on_c, 3, 74, 56
4, 117842, Note_on_c, 3, 74, 0
4, 117852, Note_on_c, 3, 70, 56
4, 117962, Note_on_c, 3, 70, 0
4, 117972, Note_on_c, 3, 72, 56
4, 118081, Note_on_c, 3, 72, 0
4, 118091, Note_on_c, 3, 69, 56
4, 118202, Note_on_c, 3, 69, 0
4, 118212, Note_on_c, 3, 70, 56
4, 118321, Note_on_c, 3, 70, 0
4, 118331, Note_on_c, 3, 67, 56
4, 118450, Note_on_c, 3, 67, 0
4, 118460, Note_on_c, 3, 70, 56
4, 118570, Note_on_c, 3, 70, 0
4, 118580, Note_on_c, 3, 69, 56
4, 118690, Note_on_c, 3, 69, 0
4, 118701, Note_on_c, 3, 70, 56
4, 118810, Note_on_c, 3, 70, 0
4, 118820, Note_on_c, 3, 67, 56
4, 118929, Note_on_c, 3, 67, 0
4, 118939, Note_on_c, 3, 69, 56
4, 119049, Note_on_c, 3, 69, 0
4, 119060, Note_on_c, 3, 66, 56
4, 119169, Note_on_c, 3, 66, 0
4, 119179, Note_on_c, 3, 67, 56
4, 119289, Note_on_c, 3, 67, 0
4, 119299, Note_on_c, 3, 64, 56
4, 119408, Note_on_c, 3, 64, 0
4, 119418, Note_on_c, 3, 66, 56
4, 119528, Note_on_c, 3, 66, 0
4, 119538, Note_on_c, 3, 62, 56
4, 119768, Note_on_c, 3, 62, 0
4, 119778, Note_on_c, 3, 74, 56
4, 120007, Note_on_c, 3, 74, 0
4, 120017, Note_on_c, 3, 70, 56
4, 120127, Note_on_c, 3, 70, 0
4, 120137, Note_on_c, 3, 72, 56
4, 120246, Note_on_c, 3, 72, 0
4, 120255, Note_on_c, 3, 69, 56
4, 120365, Note_on_c, 3, 69, 0
4, 120375, Note_on_c, 3, 70, 56
4, 120486, Note_on_c, 3, 70, 0
4, 120496, Note_on_c, 3, 67, 56
4, 120725, Note_on_c, 3, 67, 0
4, 120735, Note_on_c, 3, 79, 56
4, 120965, Note_on_c, 3, 79, 0
4, 120974, Note_on_c, 3, 78, 56
4, 121083, Note_on_c, 3, 78, 0
4, 121093, Note_on_c, 3, 79, 56
4, 121203, Note_on_c, 3, 79, 0
4, 121213, Note_on_c, 3, 76, 56
4, 121323, Note_on_c, 3, 76, 0
4, 121333, Note_on_c, 3, 78, 56
4, 121443, Note_on_c, 3, 78, 0
4, 121453, Note_on_c, 3, 74, 56
4, 121563, Note_on_c, 3, 74, 0
4, 121573, Note_on_c, 3, 82, 56
4, 121682, Note_on_c, 3, 82, 0
4, 121692, Note_on_c, 3, 72, 56
4, 121802, Note_on_c, 3, 72, 0
4, 121813, Note_on_c, 3, 81, 56
4, 121922, Note_on_c, 3, 81, 0
4, 121932, Note_on_c, 3, 70, 56
4, 122041, Note_on_c, 3, 70, 0
4, 122051, Note_on_c, 3, 72, 56
4, 122161, Note_on_c, 3, 72, 0
4, 122171, Note_on_c, 3, 69, 56
4, 122281, Note_on_c, 3, 69, 0
4, 122291, Note_on_c, 3, 70, 56
4, 122410, Note_on_c, 3, 70, 0
4, 122421, Note_on_c, 3, 67, 56
4, 122530, Note_on_c, 3, 67, 0
4, 122540, Note_on_c, 3, 70, 56
4, 122650, Note_on_c, 3, 70, 0
4, 122660, Note_on_c, 3, 75, 56
4, 122770, Note_on_c, 3, 75, 0
4, 122781, Note_on_c, 3, 67, 56
4, 122890, Note_on_c, 3, 67, 0
4, 122900, Note_on_c, 3, 66, 56
4, 123008, Note_on_c, 3, 66, 0
4, 123018, Note_on_c, 3, 69, 56
4, 123128, Note_on_c, 3, 69, 0
4, 123138, Note_on_c, 3, 74, 56
4, 123487, Note_on_c, 3, 74, 0
4, 123497, Note_on_c, 3, 72, 56
4, 123608, Note_on_c, 3, 72, 0
4, 123617, Note_on_c, 3, 70, 56
4, 123726, Note_on_c, 3, 70, 0
4, 123736, Note_on_c, 3, 69, 56
4, 123847, Note_on_c, 3, 69, 0
4, 123858, Note_on_c, 3, 70, 56
4, 123967, Note_on_c, 3, 70, 0
4, 123976, Note_on_c, 3, 74, 56
4, 124086, Note_on_c, 3, 74, 0
4, 124096, Note_on_c, 3, 79, 56
4, 124445, Note_on_c, 3, 79, 0
4, 124455, Note_on_c, 3, 73, 56
4, 124566, Note_on_c, 3, 73, 0
4, 124576, Note_on_c, 3, 76, 56
4, 124807, Note_on_c, 3, 76, 0
4, 124815, Note_on_c, 3, 74, 56
4, 125284, Note_on_c, 3, 74, 0
4, 125293, Note_on_c, 3, 82, 56
4, 126242, Note_on_c, 3, 82, 0
4, 126251, Note_on_c, 3, 81, 56
4, 127208, Note_on_c, 3, 81, 0
4, 127218, Note_on_c, 3, 79, 56
4, 128166, Note_on_c, 3, 79, 0
4, 128176, Note_on_c, 3, 78, 56
4, 128645, Note_on_c, 3, 78, 0
4, 128655, Note_on_c, 3, 79, 56
4, 128885, Note_on_c, 3, 79, 0
4, 128895, Note_on_c, 3, 74, 88
4, 129124, Note_on_c, 3, 74, 0
4, 129134, Note_on_c, 3, 79, 88
4, 129364, Note_on_c, 3, 79, 0
4, 129374, Note_on_c, 3, 78, 88
4, 129604, Note_on_c, 3, 78, 0
4, 129613, Note_on_c, 3, 79, 88
4, 129843, Note_on_c, 3, 79, 0
4, 129852, Note_on_c, 3, 74, 88
4, 130082, Note_on_c, 3, 74, 0
4, 130092, Note_on_c, 3, 70, 88
4, 130331, Note_on_c, 3, 70, 0
4, 130341, Note_on_c, 3, 72, 88
4, 130570, Note_on_c, 3, 72, 0
4, 130580, Note_on_c, 3, 74, 88
4, 130810, Note_on_c, 3, 74, 0
4, 130820, Note_on_c, 3, 74, 88
4, 131049, Note_on_c, 3, 74, 0
4, 131059, Note_on_c, 3, 74, 88
4, 131289, Note_on_c, 3, 74, 0
4, 131299, Note_on_c, 3, 74, 88
4, 131529, Note_on_c, 3, 74, 0
4, 131538, Note_on_c, 3, 74, 88
4, 131767, Note_on_c, 3, 74, 0
4, 131778, Note_on_c, 3, 75, 88
4, 132007, Note_on_c, 3, 75, 0
4, 132017, Note_on_c, 3, 77, 88
4, 132248, Note_on_c, 3, 77, 0
4, 132257, Note_on_c, 3, 79, 88
4, 132486, Note_on_c, 3, 79, 0
4, 132496, Note_on_c, 3, 75, 88
4, 132724, Note_on_c, 3, 75, 0
4, 132734, Note_on_c, 3, 79, 104
4, 132965, Note_on_c, 3, 79, 0
4, 132974, Note_on_c, 3, 84, 104
4, 133204, Note_on_c, 3, 84, 0
4, 133214, Note_on_c, 3, 83, 104
4, 133443, Note_on_c, 3, 83, 0
4, 133453, Note_on_c, 3, 84, 104
4, 133683, Note_on_c, 3, 84, 0
4, 133692, Note_on_c, 3, 79, 72
4, 133923, Note_on_c, 3, 79, 0
4, 133934, Note_on_c, 3, 75, 72
4, 134171, Note_on_c, 3, 75, 0
4, 134182, Note_on_c, 3, 77, 72
4, 134411, Note_on_c, 3, 77, 0
4, 134420, Note_on_c, 3, 79, 72
4, 134651, Note_on_c, 3, 79, 0
4, 134660, Note_on_c, 3, 79, 72
4, 134890, Note_on_c, 3, 79, 0
4, 134900, Note_on_c, 3, 79, 72
4, 135128, Note_on_c, 3, 79, 0
4, 135138, Note_on_c, 3, 79, 72
4, 135369, Note_on_c, 3, 79, 0
4, 135379, Note_on_c, 3, 79, 72
4, 135848, Note_on_c, 3, 79, 0
4, 136328, Note_on_c, 3, 55, 72
4, 136566, Note_on_c, 3, 55, 0
4, 136576, Note_on_c, 3, 50, 72
4, 136804, Note_on_c, 3, 50, 0
4, 136814, Note_on_c, 3, 47, 72
4, 137044, Note_on_c, 3, 47, 0
4, 137055, Note_on_c, 3, 43, 72
4, 137283, Note_on_c, 3, 43, 0
4, 137293, Note_on_c, 3, 48, 72
4, 137522, Note_on_c, 3, 48, 0
4, 137532, Note_on_c, 3, 43, 72
4, 137762, Note_on_c, 3, 43, 0
4, 137773, Note_on_c, 3, 39, 72
4, 138002, Note_on_c, 3, 39, 0
4, 138012, Note_on_c, 3, 36, 72
4, 138251, Note_on_c, 3, 36, 0
4, 138261, Note_on_c, 3, 43, 72
4, 138490, Note_on_c, 3, 43, 0
4, 138499, Note_on_c, 3, 55, 72
4, 138729, Note_on_c, 3, 55, 0
4, 138739, Note_on_c, 3, 48, 72
4, 138968, Note_on_c, 3, 48, 0
4, 138978, Note_on_c, 3, 51, 72
4, 139209, Note_on_c, 3, 51, 0
4, 139219, Note_on_c, 3, 53, 72
4, 139328, Note_on_c, 3, 53, 0
4, 139338, Note_on_c, 3, 48, 72
4, 139447, Note_on_c, 3, 48, 0
4, 139457, Note_on_c, 3, 56, 72
4, 139687, Note_on_c, 3, 56, 0
4, 139697, Note_on_c, 3, 56, 72
4, 139806, Note_on_c, 3, 56, 0
4, 139817, Note_on_c, 3, 46, 72
4, 139925, Note_on_c, 3, 46, 0
4, 139935, Note_on_c, 3, 50, 72
4, 140046, Note_on_c, 3, 50, 0
4, 140056, Note_on_c, 3, 46, 72
4, 140166, Note_on_c, 3, 46, 0
4, 140176, Note_on_c, 3, 51, 72
4, 140284, Note_on_c, 3, 51, 0
4, 140294, Note_on_c, 3, 46, 72
4, 140404, Note_on_c, 3, 46, 0
4, 140414, Note_on_c, 3, 55, 72
4, 140763, Note_on_c, 3, 55, 0
4, 140773, Note_on_c, 3, 44, 72
4, 140883, Note_on_c, 3, 44, 0
4, 140893, Note_on_c, 3, 48, 72
4, 141003, Note_on_c, 3, 48, 0
4, 141013, Note_on_c, 3, 44, 72
4, 141122, Note_on_c, 3, 44, 0
4, 141132, Note_on_c, 3, 50, 72
4, 141243, Note_on_c, 3, 50, 0
4, 141253, Note_on_c, 3, 44, 72
4, 141362, Note_on_c, 3, 44, 0
4, 141372, Note_on_c, 3, 53, 72
4, 141721, Note_on_c, 3, 53, 0
4, 141731, Note_on_c, 3, 43, 72
4, 141841, Note_on_c, 3, 43, 0
4, 141851, Note_on_c, 3, 47, 72
4, 141960, Note_on_c, 3, 47, 0
4, 141971, Note_on_c, 3, 43, 72
4, 142090, Note_on_c, 3, 43, 0
4, 142100, Note_on_c, 3, 48, 72
4, 142210, Note_on_c, 3, 48, 0
4, 142220, Note_on_c, 3, 43, 72
4, 142330, Note_on_c, 3, 43, 0
4, 142339, Note_on_c, 3, 50, 72
4, 142449, Note_on_c, 3, 50, 0
4, 142459, Note_on_c, 3, 43, 72
4, 142570, Note_on_c, 3, 43, 0
4, 142580, Note_on_c, 3, 51, 72
4, 142690, Note_on_c, 3, 51, 0
4, 142698, Note_on_c, 3, 43, 72
4, 142809, Note_on_c, 3, 43, 0
4, 142819, Note_on_c, 3, 53, 72
4, 142928, Note_on_c, 3, 53, 0
4, 142938, Note_on_c, 3, 43, 72
4, 143048, Note_on_c, 3, 43, 0
4, 143058, Note_on_c, 3, 55, 72
4, 143167, Note_on_c, 3, 55, 0
4, 143177, Note_on_c, 3, 43, 72
4, 143287, Note_on_c, 3, 43, 0
4, 143297, Note_on_c, 3, 57, 72
4, 143407, Note_on_c, 3, 57, 0
4, 143417, Note_on_c, 3, 43, 72
4, 143527, Note_on_c, 3, 43, 0
4, 143537, Note_on_c, 3, 59, 72
4, 143647, Note_on_c, 3, 59, 0
4, 143657, Note_on_c, 3, 43, 72
4, 143766, Note_on_c, 3, 43, 0
4, 143776, Note_on_c, 3, 55, 72
4, 143886, Note_on_c, 3, 55, 0
4, 143896, Note_on_c, 3, 43, 72
4, 144006, Note_on_c, 3, 43, 0
4, 144016, Note_on_c, 3, 60, 72
4, 144485, Note_on_c, 3, 60, 0
4, 151448, Note_on_c, 3, 70, 72
4, 151687, Note_on_c, 3, 70, 0
4, 151697, Note_on_c, 3, 67, 72
4, 151806, Note_on_c, 3, 67, 0
4, 151816, Note_on_c, 3, 68, 72
4, 151926, Note_on_c, 3, 68, 0
4, 151937, Note_on_c, 3, 65, 72
4, 152046, Note_on_c, 3, 65, 0
4, 152056, Note_on_c, 3, 67, 72
4, 152166, Note_on_c, 3, 67, 0
4, 152176, Note_on_c, 3, 63, 72
4, 152404, Note_on_c, 3, 63, 0
4, 152414, Note_on_c, 3, 75, 72
4, 152643, Note_on_c, 3, 75, 0
4, 152653, Note_on_c, 3, 74, 72
4, 152764, Note_on_c, 3, 74, 0
4, 152774, Note_on_c, 3, 75, 72
4, 152884, Note_on_c, 3, 75, 0
4, 152894, Note_on_c, 3, 72, 72
4, 153003, Note_on_c, 3, 72, 0
4, 153013, Note_on_c, 3, 74, 72
4, 153123, Note_on_c, 3, 74, 0
4, 153133, Note_on_c, 3, 70, 72
4, 153361, Note_on_c, 3, 70, 0
4, 153371, Note_on_c, 3, 75, 72
4, 153481, Note_on_c, 3, 75, 0
4, 153491, Note_on_c, 3, 70, 72
4, 153601, Note_on_c, 3, 70, 0
4, 153611, Note_on_c, 3, 72, 72
4, 153841, Note_on_c, 3, 72, 0
4, 153851, Note_on_c, 3, 68, 72
4, 154091, Note_on_c, 3, 68, 0
4, 154101, Note_on_c, 3, 62, 72
4, 154330, Note_on_c, 3, 62, 0
4, 154340, Note_on_c, 3, 74, 72
4, 154569, Note_on_c, 3, 74, 0
4, 154579, Note_on_c, 3, 70, 72
4, 154689, Note_on_c, 3, 70, 0
4, 154700, Note_on_c, 3, 72, 72
4, 154808, Note_on_c, 3, 72, 0
4, 154818, Note_on_c, 3, 68, 72
4, 154927, Note_on_c, 3, 68, 0
4, 154937, Note_on_c, 3, 70, 72
4, 155048, Note_on_c, 3, 70, 0
4, 155058, Note_on_c, 3, 67, 72
4, 155287, Note_on_c, 3, 67, 0
4, 155297, Note_on_c, 3, 72, 72
4, 155406, Note_on_c, 3, 72, 0
4, 155418, Note_on_c, 3, 67, 72
4, 155526, Note_on_c, 3, 67, 0
4, 155536, Note_on_c, 3, 68, 72
4, 155766, Note_on_c, 3, 68, 0
4, 155776, Note_on_c, 3, 65, 72
4, 156005, Note_on_c, 3, 65, 0
4, 156015, Note_on_c, 3, 58, 72
4, 156244, Note_on_c, 3, 58, 0
4, 156254, Note_on_c, 3, 68, 40
4, 156483, Note_on_c, 3, 68, 0
4, 156493, Note_on_c, 3, 67, 40
4, 156604, Note_on_c, 3, 67, 0
4, 156614, Note_on_c, 3, 68, 40
4, 156725, Note_on_c, 3, 68, 0
4, 156734, Note_on_c, 3, 65, 40
4, 156842, Note_on_c, 3, 65, 0
4, 156853, Note_on_c, 3, 67, 40
4, 156964, Note_on_c, 3, 67, 0
4, 156974, Note_on_c, 3, 63, 40
4, 157083, Note_on_c, 3, 63, 0
4, 157093, Note_on_c, 3, 67, 40
4, 157202, Note_on_c, 3, 67, 0
4, 157213, Note_on_c, 3, 65, 40
4, 157322, Note_on_c, 3, 65, 0
4, 157332, Note_on_c, 3, 68, 40
4, 157443, Note_on_c, 3, 68, 0
4, 157453, Note_on_c, 3, 67, 40
4, 157561, Note_on_c, 3, 67, 0
4, 157571, Note_on_c, 3, 68, 40
4, 157682, Note_on_c, 3, 68, 0
4, 157691, Note_on_c, 3, 65, 40
4, 157800, Note_on_c, 3, 65, 0
4, 157810, Note_on_c, 3, 67, 40
4, 157930, Note_on_c, 3, 67, 0
4, 157940, Note_on_c, 3, 63, 40
4, 158050, Note_on_c, 3, 63, 0
4, 158060, Note_on_c, 3, 67, 40
4, 158169, Note_on_c, 3, 67, 0
4, 158179, Note_on_c, 3, 65, 40
4, 158289, Note_on_c, 3, 65, 0
4, 158299, Note_on_c, 3, 68, 40
4, 158410, Note_on_c, 3, 68, 0
4, 158420, Note_on_c, 3, 67, 40
4, 158529, Note_on_c, 3, 67, 0
4, 158539, Note_on_c, 3, 68, 40
4, 158649, Note_on_c, 3, 68, 0
4, 158658, Note_on_c, 3, 65, 40
4, 158768, Note_on_c, 3, 65, 0
4, 158778, Note_on_c, 3, 67, 40
4, 158889, Note_on_c, 3, 67, 0
4, 158899, Note_on_c, 3, 63, 40
4, 159007, Note_on_c, 3, 63, 0
4, 159017, Note_on_c, 3, 67, 40
4, 159128, Note_on_c, 3, 67, 0
4, 159139, Note_on_c, 3, 65, 40
4, 159248, Note_on_c, 3, 65, 0
4, 159258, Note_on_c, 3, 68, 40
4, 159368, Note_on_c, 3, 68, 0
4, 159378, Note_on_c, 3, 67, 40
4, 159486, Note_on_c, 3, 67, 0
4, 159497, Note_on_c, 3, 70, 40
4, 159607, Note_on_c, 3, 70, 0
4, 159617, Note_on_c, 3, 69, 40
4, 159725, Note_on_c, 3, 69, 0
4, 159735, Note_on_c, 3, 72, 40
4, 159846, Note_on_c, 3, 72, 0
4, 159856, Note_on_c, 3, 70, 40
4, 159966, Note_on_c, 3, 70, 0
4, 159976, Note_on_c, 3, 74, 40
4, 160086, Note_on_c, 3, 74, 0
4, 160095, Note_on_c, 3, 72, 40
4, 160204, Note_on_c, 3, 72, 0
4, 160215, Note_on_c, 3, 75, 40
4, 160324, Note_on_c, 3, 75, 0
4, 160334, Note_on_c, 3, 74, 40
4, 160444, Note_on_c, 3, 74, 0
4, 160454, Note_on_c, 3, 75, 40
4, 160564, Note_on_c, 3, 75, 0
4, 160574, Note_on_c, 3, 72, 40
4, 160683, Note_on_c, 3, 72, 0
4, 160693, Note_on_c, 3, 74, 40
4, 160804, Note_on_c, 3, 74, 0
4, 160814, Note_on_c, 3, 70, 40
4, 160923, Note_on_c, 3, 70, 0
4, 160934, Note_on_c, 3, 74, 40
4, 161043, Note_on_c, 3, 74, 0
4, 161053, Note_on_c, 3, 72, 40
4, 161162, Note_on_c, 3, 72, 0
4, 161172, Note_on_c, 3, 75, 40
4, 161282, Note_on_c, 3, 75, 0
4, 161292, Note_on_c, 3, 74, 40
4, 161401, Note_on_c, 3, 74, 0
4, 161411, Note_on_c, 3, 75, 40
4, 161522, Note_on_c, 3, 75, 0
4, 161531, Note_on_c, 3, 72, 40
4, 161641, Note_on_c, 3, 72, 0
4, 161650, Note_on_c, 3, 74, 40
4, 161761, Note_on_c, 3, 74, 0
4, 161771, Note_on_c, 3, 70, 40
4, 161890, Note_on_c, 3, 70, 0
4, 161900, Note_on_c, 3, 74, 40
4, 162010, Note_on_c, 3, 74, 0
4, 162020, Note_on_c, 3, 72, 40
4, 162130, Note_on_c, 3, 72, 0
4, 162140, Note_on_c, 3, 75, 40
4, 162250, Note_on_c, 3, 75, 0
4, 162259, Note_on_c, 3, 74, 40
4, 162369, Note_on_c, 3, 74, 0
4, 162379, Note_on_c, 3, 75, 40
4, 162490, Note_on_c, 3, 75, 0
4, 162499, Note_on_c, 3, 72, 40
4, 162609, Note_on_c, 3, 72, 0
4, 162619, Note_on_c, 3, 74, 40
4, 162730, Note_on_c, 3, 74, 0
4, 162740, Note_on_c, 3, 70, 40
4, 162848, Note_on_c, 3, 70, 0
4, 162858, Note_on_c, 3, 74, 40
4, 162967, Note_on_c, 3, 74, 0
4, 162978, Note_on_c, 3, 72, 40
4, 163087, Note_on_c, 3, 72, 0
4, 163097, Note_on_c, 3, 75, 40
4, 163207, Note_on_c, 3, 75, 0
4, 163217, Note_on_c, 3, 74, 40
4, 163327, Note_on_c, 3, 74, 0
4, 163337, Note_on_c, 3, 77, 40
4, 163447, Note_on_c, 3, 77, 0
4, 163457, Note_on_c, 3, 76, 40
4, 163566, Note_on_c, 3, 76, 0
4, 163576, Note_on_c, 3, 79, 40
4, 163686, Note_on_c, 3, 79, 0
4, 163696, Note_on_c, 3, 77, 40
4, 163805, Note_on_c, 3, 77, 0
4, 163815, Note_on_c, 3, 80, 40
4, 163925, Note_on_c, 3, 80, 0
4, 163935, Note_on_c, 3, 79, 40
4, 164044, Note_on_c, 3, 79, 0
4, 164055, Note_on_c, 3, 82, 40
4, 164165, Note_on_c, 3, 82, 0
4, 164175, Note_on_c, 3, 80, 40
4, 164284, Note_on_c, 3, 80, 0
4, 164294, Note_on_c, 3, 82, 40
4, 164404, Note_on_c, 3, 82, 0
4, 164414, Note_on_c, 3, 79, 40
4, 164523, Note_on_c, 3, 79, 0
4, 164533, Note_on_c, 3, 80, 40
4, 164644, Note_on_c, 3, 80, 0
4, 164653, Note_on_c, 3, 77, 40
4, 164763, Note_on_c, 3, 77, 0
4, 164773, Note_on_c, 3, 79, 40
4, 164883, Note_on_c, 3, 79, 0
4, 164893, Note_on_c, 3, 75, 40
4, 165002, Note_on_c, 3, 75, 0
4, 165012, Note_on_c, 3, 77, 40
4, 165122, Note_on_c, 3, 77, 0
4, 165133, Note_on_c, 3, 73, 40
4, 166090, Note_on_c, 3, 73, 0
4, 166101, Note_on_c, 3, 79, 40
4, 166209, Note_on_c, 3, 79, 0
4, 166219, Note_on_c, 3, 80, 40
4, 166330, Note_on_c, 3, 80, 0
4, 166340, Note_on_c, 3, 77, 40
4, 166448, Note_on_c, 3, 77, 0
4, 166458, Note_on_c, 3, 79, 40
4, 166570, Note_on_c, 3, 79, 0
4, 166580, Note_on_c, 3, 75, 40
4, 166688, Note_on_c, 3, 75, 0
4, 166698, Note_on_c, 3, 77, 40
4, 166808, Note_on_c, 3, 77, 0
4, 166818, Note_on_c, 3, 73, 40
4, 166928, Note_on_c, 3, 73, 0
4, 166938, Note_on_c, 3, 75, 40
4, 167048, Note_on_c, 3, 75, 0
4, 167057, Note_on_c, 3, 72, 40
4, 168006, Note_on_c, 3, 72, 0
4, 168016, Note_on_c, 3, 77, 40
4, 168125, Note_on_c, 3, 77, 0
4, 168135, Note_on_c, 3, 79, 40
4, 168245, Note_on_c, 3, 79, 0
4, 168255, Note_on_c, 3, 75, 40
4, 168364, Note_on_c, 3, 75, 0
4, 168374, Note_on_c, 3, 77, 40
4, 168485, Note_on_c, 3, 77, 0
4, 168495, Note_on_c, 3, 73, 40
4, 168602, Note_on_c, 3, 73, 0
4, 168612, Note_on_c, 3, 75, 40
4, 168724, Note_on_c, 3, 75, 0
4, 168734, Note_on_c, 3, 72, 40
4, 168843, Note_on_c, 3, 72, 0
4, 168853, Note_on_c, 3, 73, 40
4, 168962, Note_on_c, 3, 73, 0
4, 168972, Note_on_c, 3, 71, 40
4, 169443, Note_on_c, 3, 71, 0
4, 169452, Note_on_c, 3, 72, 40
4, 169692, Note_on_c, 3, 72, 0
4, 169702, Note_on_c, 3, 74, 40
4, 169931, Note_on_c, 3, 74, 0
4, 169942, Note_on_c, 3, 67, 40
4, 170410, Note_on_c, 3, 67, 0
4, 170649, Note_on_c, 3, 67, 56
4, 170888, Note_on_c, 3, 67, 0
4, 170898, Note_on_c, 3, 67, 56
4, 171128, Note_on_c, 3, 67, 0
4, 171138, Note_on_c, 3, 67, 56
4, 171367, Note_on_c, 3, 67, 0
4, 171377, Note_on_c, 3, 72, 56
4, 171607, Note_on_c, 3, 72, 0
4, 171616, Note_on_c, 3, 71, 56
4, 171847, Note_on_c, 3, 71, 0
4, 171856, Note_on_c, 3, 72, 56
4, 172086, Note_on_c, 3, 72, 0
4, 172096, Note_on_c, 3, 71, 56
4, 172325, Note_on_c, 3, 71, 0
4, 172335, Note_on_c, 3, 67, 56
4, 172564, Note_on_c, 3, 67, 0
4, 172574, Note_on_c, 3, 67, 56
4, 172804, Note_on_c, 3, 67, 0
4, 172814, Note_on_c, 3, 67, 56
4, 173282, Note_on_c, 3, 67, 0
4, 173522, Note_on_c, 3, 62, 56
4, 173772, Note_on_c, 3, 62, 0
4, 173782, Note_on_c, 3, 62, 56
4, 174011, Note_on_c, 3, 62, 0
4, 174489, Note_on_c, 3, 74, 56
4, 174729, Note_on_c, 3, 74, 0
4, 174739, Note_on_c, 3, 74, 56
4, 174968, Note_on_c, 3, 74, 0
4, 174978, Note_on_c, 3, 74, 56
4, 175208, Note_on_c, 3, 74, 0
4, 175218, Note_on_c, 3, 79, 56
4, 175447, Note_on_c, 3, 79, 0
4, 175457, Note_on_c, 3, 78, 56
4, 175687, Note_on_c, 3, 78, 0
4, 175697, Note_on_c, 3, 79, 56
4, 175927, Note_on_c, 3, 79, 0
4, 175937, Note_on_c, 3, 78, 56
4, 176165, Note_on_c, 3, 78, 0
4, 176176, Note_on_c, 3, 74, 56
4, 176405, Note_on_c, 3, 74, 0
4, 176415, Note_on_c, 3, 74, 56
4, 176645, Note_on_c, 3, 74, 0
4, 176655, Note_on_c, 3, 74, 56
4, 177122, Note_on_c, 3, 74, 0
4, 177362, Note_on_c, 3, 75, 56
4, 177613, Note_on_c, 3, 75, 0
4, 177622, Note_on_c, 3, 74, 56
4, 177850, Note_on_c, 3, 74, 0
4, 177861, Note_on_c, 3, 69, 56
4, 178090, Note_on_c, 3, 69, 0
4, 196564, Note_on_c, 3, 62, 104
4, 196803, Note_on_c, 3, 62, 0
4, 196813, Note_on_c, 3, 58, 104
4, 196922, Note_on_c, 3, 58, 0
4, 196932, Note_on_c, 3, 60, 104
4, 197042, Note_on_c, 3, 60, 0
4, 197052, Note_on_c, 3, 57, 104
4, 197161, Note_on_c, 3, 57, 0
4, 197171, Note_on_c, 3, 58, 104
4, 197282, Note_on_c, 3, 58, 0
4, 197291, Note_on_c, 3, 55, 104
4, 197531, Note_on_c, 3, 55, 0
4, 197542, Note_on_c, 3, 67, 104
4, 197771, Note_on_c, 3, 67, 0
4, 197781, Note_on_c, 3, 66, 104
4, 197889, Note_on_c, 3, 66, 0
4, 197899, Note_on_c, 3, 67, 104
4, 198008, Note_on_c, 3, 67, 0
4, 198018, Note_on_c, 3, 64, 104
4, 198128, Note_on_c, 3, 64, 0
4, 198138, Note_on_c, 3, 66, 104
4, 198249, Note_on_c, 3, 66, 0
4, 198258, Note_on_c, 3, 62, 104
4, 198488, Note_on_c, 3, 62, 0
4, 198497, Note_on_c, 3, 67, 104
4, 198608, Note_on_c, 3, 67, 0
4, 198618, Note_on_c, 3, 62, 104
4, 198726, Note_on_c, 3, 62, 0
4, 198736, Note_on_c, 3, 63, 104
4, 198967, Note_on_c, 3, 63, 0
4, 198977, Note_on_c, 3, 60, 104
4, 199206, Note_on_c, 3, 60, 0
4, 199216, Note_on_c, 3, 53, 104
4, 199446, Note_on_c, 3, 53, 0
4, 199456, Note_on_c, 3, 65, 104
4, 199685, Note_on_c, 3, 65, 0
4, 199695, Note_on_c, 3, 62, 104
4, 199804, Note_on_c, 3, 62, 0
4, 199814, Note_on_c, 3, 63, 104
4, 199924, Note_on_c, 3, 63, 0
4, 199934, Note_on_c, 3, 60, 104
4, 200044, Note_on_c, 3, 60, 0
4, 200054, Note_on_c, 3, 62, 104
4, 200164, Note_on_c, 3, 62, 0
4, 200174, Note_on_c, 3, 58, 104
4, 200403, Note_on_c, 3, 58, 0
4, 200412, Note_on_c, 3, 63, 104
4, 200522, Note_on_c, 3, 63, 0
4, 200532, Note_on_c, 3, 58, 104
4, 200642, Note_on_c, 3, 58, 0
4, 200652, Note_on_c, 3, 60, 104
4, 200882, Note_on_c, 3, 60, 0
4, 200892, Note_on_c, 3, 57, 104
4, 201122, Note_on_c, 3, 57, 0
4, 201132, Note_on_c, 3, 50, 104
4, 201371, Note_on_c, 3, 50, 0
4, 201381, Note_on_c, 3, 62, 72
4, 201490, Note_on_c, 3, 62, 0
4, 201500, Note_on_c, 3, 60, 72
4, 201611, Note_on_c, 3, 60, 0
4, 201620, Note_on_c, 3, 58, 72
4, 201729, Note_on_c, 3, 58, 0
4, 201740, Note_on_c, 3, 60, 72
4, 201849, Note_on_c, 3, 60, 0
4, 201859, Note_on_c, 3, 57, 72
4, 201969, Note_on_c, 3, 57, 0
4, 201979, Note_on_c, 3, 58, 72
4, 202089, Note_on_c, 3, 58, 0
4, 202099, Note_on_c, 3, 55, 72
4, 202207, Note_on_c, 3, 55, 0
4, 202217, Note_on_c, 3, 58, 72
4, 202328, Note_on_c, 3, 58, 0
4, 202338, Note_on_c, 3, 57, 72
4, 202447, Note_on_c, 3, 57, 0
4, 202458, Note_on_c, 3, 55, 72
4, 202567, Note_on_c, 3, 55, 0
4, 202577, Note_on_c, 3, 54, 72
4, 202687, Note_on_c, 3, 54, 0
4, 202697, Note_on_c, 3, 55, 72
4, 202807, Note_on_c, 3, 55, 0
4, 202817, Note_on_c, 3, 52, 72
4, 202926, Note_on_c, 3, 52, 0
4, 202936, Note_on_c, 3, 54, 72
4, 203045, Note_on_c, 3, 54, 0
4, 203055, Note_on_c, 3, 50, 72
4, 203285, Note_on_c, 3, 50, 0
4, 203295, Note_on_c, 3, 66, 72
4, 203526, Note_on_c, 3, 66, 0
4, 203536, Note_on_c, 3, 67, 72
4, 204602, Note_on_c, 3, 67, 0
4, 204612, Note_on_c, 3, 69, 72
4, 204721, Note_on_c, 3, 69, 0
4, 204731, Note_on_c, 3, 65, 72
4, 204841, Note_on_c, 3, 65, 0
4, 204851, Note_on_c, 3, 67, 72
4, 204961, Note_on_c, 3, 67, 0
4, 204971, Note_on_c, 3, 63, 72
4, 205081, Note_on_c, 3, 63, 0
4, 205091, Note_on_c, 3, 65, 72
4, 205212, Note_on_c, 3, 65, 0
4, 205221, Note_on_c, 3, 67, 72
4, 205331, Note_on_c, 3, 67, 0
4, 205341, Note_on_c, 3, 69, 72
4, 205450, Note_on_c, 3, 69, 0
4, 205460, Note_on_c, 3, 65, 72
4, 206527, Note_on_c, 3, 65, 0
4, 206537, Note_on_c, 3, 67, 72
4, 206646, Note_on_c, 3, 67, 0
4, 206656, Note_on_c, 3, 63, 72
4, 206766, Note_on_c, 3, 63, 0
4, 206776, Note_on_c, 3, 65, 72
4, 206886, Note_on_c, 3, 65, 0
4, 206896, Note_on_c, 3, 62, 72
4, 207007, Note_on_c, 3, 62, 0
4, 207017, Note_on_c, 3, 64, 72
4, 207126, Note_on_c, 3, 64, 0
4, 207136, Note_on_c, 3, 66, 72
4, 207245, Note_on_c, 3, 66, 0
4, 207255, Note_on_c, 3, 67, 72
4, 207365, Note_on_c, 3, 67, 0
4, 207375, Note_on_c, 3, 61, 72
4, 208323, Note_on_c, 3, 61, 0
4, 208333, Note_on_c, 3, 62, 72
4, 208562, Note_on_c, 3, 62, 0
4, 208572, Note_on_c, 3, 60, 72
4, 208802, Note_on_c, 3, 60, 0
4, 208812, Note_on_c, 3, 58, 72
4, 209041, Note_on_c, 3, 58, 0
4, 209051, Note_on_c, 3, 62, 72
4, 209410, Note_on_c, 3, 62, 0
4, 209420, Note_on_c, 3, 60, 72
4, 209530, Note_on_c, 3, 60, 0
4, 209540, Note_on_c, 3, 58, 72
4, 209650, Note_on_c, 3, 58, 0
4, 209660, Note_on_c, 3, 60, 72
4, 209770, Note_on_c, 3, 60, 0
4, 209779, Note_on_c, 3, 57, 72
4, 210129, Note_on_c, 3, 57, 0
4, 210138, Note_on_c, 3, 55, 72
4, 210248, Note_on_c, 3, 55, 0
4, 210258, Note_on_c, 3, 55, 72
4, 210489, Note_on_c, 3, 55, 0
4, 210969, Note_on_c, 3, 67, 88
4, 211206, Note_on_c, 3, 67, 0
4, 211216, Note_on_c, 3, 62, 88
4, 211686, Note_on_c, 3, 62, 0
4, 211925, Note_on_c, 3, 70, 88
4, 212164, Note_on_c, 3, 70, 0
4, 212174, Note_on_c, 3, 70, 88
4, 212762, Note_on_c, 3, 70, 0
4, 212771, Note_on_c, 3, 70, 88
4, 212882, Note_on_c, 3, 70, 0
4, 212892, Note_on_c, 3, 69, 88
4, 213002, Note_on_c, 3, 69, 0
4, 213012, Note_on_c, 3, 67, 88
4, 213132, Note_on_c, 3, 67, 0
4, 213142, Note_on_c, 3, 69, 88
4, 213729, Note_on_c, 3, 69, 0
4, 213740, Note_on_c, 3, 69, 88
4, 213850, Note_on_c, 3, 69, 0
4, 213860, Note_on_c, 3, 67, 88
4, 213969, Note_on_c, 3, 67, 0
4, 213979, Note_on_c, 3, 66, 88
4, 214090, Note_on_c, 3, 66, 0
4, 214099, Note_on_c, 3, 67, 88
4, 214687, Note_on_c, 3, 67, 0
4, 214697, Note_on_c, 3, 67, 88
4, 214807, Note_on_c, 3, 67, 0
4, 214818, Note_on_c, 3, 66, 88
4, 214927, Note_on_c, 3, 66, 0
4, 214937, Note_on_c, 3, 64, 88
4, 215047, Note_on_c, 3, 64, 0
4, 215056, Note_on_c, 3, 58, 88
4, 215287, Note_on_c, 3, 58, 0
4, 215297, Note_on_c, 3, 60, 88
4, 215525, Note_on_c, 3, 60, 0
4, 215535, Note_on_c, 3, 62, 88
4, 215765, Note_on_c, 3, 62, 0
4, 215774, Note_on_c, 3, 60, 88
4, 216003, Note_on_c, 3, 60, 0
4, 216013, Note_on_c, 3, 55, 88
4, 216244, Note_on_c, 3, 55, 0
4, 216254, Note_on_c, 3, 57, 88
4, 216483, Note_on_c, 3, 57, 0
4, 216493, Note_on_c, 3, 62, 88
4, 216723, Note_on_c, 3, 62, 0
4, 216733, Note_on_c, 3, 60, 88
4, 216962, Note_on_c, 3, 60, 0
4, 216972, Note_on_c, 3, 55, 88
4, 217211, Note_on_c, 3, 55, 0
4, 217221, Note_on_c, 3, 57, 88
4, 217451, Note_on_c, 3, 57, 0
4, 217460, Note_on_c, 3, 62, 88
4, 217690, Note_on_c, 3, 62, 0
4, 217699, Note_on_c, 3, 60, 88
4, 217929, Note_on_c, 3, 60, 0
4, 217939, Note_on_c, 3, 55, 88
4, 218169, Note_on_c, 3, 55, 0
4, 218169, Program_c, 3, 0
4, 218172, Note_on_c, 3, 60, 88
4, 218403, Note_on_c, 3, 60, 0
4, 218411, Note_on_c, 3, 62, 88
4, 218646, Note_on_c, 3, 62, 0
4, 218655, Note_on_c, 3, 57, 88
4, 218882, Note_on_c, 3, 57, 0
4, 218886, Note_on_c, 3, 67, 88
4, 220803, Note_on_c, 3, 67, 0
4, 222720, End_track
5, 0, Start_track
5, 0, Program_c, 4, 0
5, 0, Program_c, 4, 0
5, 26644, Note_on_c, 4, 55, 72
5, 26885, Note_on_c, 4, 55, 0
5, 26895, Note_on_c, 4, 53, 72
5, 27002, Note_on_c, 4, 53, 0
5, 27012, Note_on_c, 4, 55, 72
5, 27123, Note_on_c, 4, 55, 0
5, 27133, Note_on_c, 4, 52, 72
5, 27241, Note_on_c, 4, 52, 0
5, 27251, Note_on_c, 4, 53, 72
5, 27362, Note_on_c, 4, 53, 0
5, 27372, Note_on_c, 4, 50, 72
5, 27612, Note_on_c, 4, 50, 0
5, 27623, Note_on_c, 4, 62, 72
5, 27852, Note_on_c, 4, 62, 0
5, 27862, Note_on_c, 4, 61, 72
5, 27971, Note_on_c, 4, 61, 0
5, 27981, Note_on_c, 4, 62, 72
5, 28090, Note_on_c, 4, 62, 0
5, 28100, Note_on_c, 4, 59, 72
5, 28209, Note_on_c, 4, 59, 0
5, 28219, Note_on_c, 4, 61, 72
5, 28329, Note_on_c, 4, 61, 0
5, 28339, Note_on_c, 4, 57, 72
5, 28569, Note_on_c, 4, 57, 0
5, 28579, Note_on_c, 4, 62, 72
5, 28689, Note_on_c, 4, 62, 0
5, 28699, Note_on_c, 4, 57, 72
5, 28809, Note_on_c, 4, 57, 0
5, 28819, Note_on_c, 4, 58, 72
5, 29047, Note_on_c, 4, 58, 0
5, 29057, Note_on_c, 4, 55, 72
5, 29288, Note_on_c, 4, 55, 0
5, 29298, Note_on_c, 4, 48, 72
5, 29527, Note_on_c, 4, 48, 0
5, 29536, Note_on_c, 4, 60, 72
5, 29765, Note_on_c, 4, 60, 0
5, 29775, Note_on_c, 4, 57, 72
5, 29885, Note_on_c, 4, 57, 0
5, 29895, Note_on_c, 4, 58, 72
5, 30005, Note_on_c, 4, 58, 0
5, 30016, Note_on_c, 4, 55, 72
5, 30124, Note_on_c, 4, 55, 0
5, 30134, Note_on_c, 4, 57, 72
5, 30244, Note_on_c, 4, 57, 0
5, 30254, Note_on_c, 4, 53, 72
5, 30484, Note_on_c, 4, 53, 0
5, 30494, Note_on_c, 4, 58, 72
5, 30604, Note_on_c, 4, 58, 0
5, 30614, Note_on_c, 4, 53, 72
5, 30724, Note_on_c, 4, 53, 0
5, 30734, Note_on_c, 4, 55, 72
5, 30963, Note_on_c, 4, 55, 0
5, 30973, Note_on_c, 4, 52, 72
5, 31203, Note_on_c, 4, 52, 0
5, 31213, Note_on_c, 4, 45, 72
5, 31441, Note_on_c, 4, 45, 0
5, 31452, Note_on_c, 4, 57, 72
5, 31692, Note_on_c, 4, 57, 0
5, 31701, Note_on_c, 4, 53, 72
5, 31811, Note_on_c, 4, 53, 0
5, 31821, Note_on_c, 4, 55, 72
5, 31929, Note_on_c, 4, 55, 0
5, 31939, Note_on_c, 4, 52, 72
5, 32049, Note_on_c, 4, 52, 0
5, 32060, Note_on_c, 4, 53, 72
5, 32170, Note_on_c, 4, 53, 0
5, 32179, Note_on_c, 4, 50, 72
5, 32409, Note_on_c, 4, 50, 0
5, 32418, Note_on_c, 4, 53, 72
5, 32648, Note_on_c, 4, 53, 0
5, 32658, Note_on_c, 4, 55, 72
5, 33128, Note_on_c, 4, 55, 0
5, 33246, Note_on_c, 4, 55, 72
5, 33367, Note_on_c, 4, 55, 0
5, 33376, Note_on_c, 4, 53, 72
5, 33486, Note_on_c, 4, 53, 0
5, 33496, Note_on_c, 4, 55, 72
5, 33605, Note_on_c, 4, 55, 0
5, 33615, Note_on_c, 4, 51, 72
5, 33725, Note_on_c, 4, 51, 0
5, 33735, Note_on_c, 4, 53, 72
5, 33845, Note_on_c, 4, 53, 0
5, 33856, Note_on_c, 4, 50, 72
5, 33964, Note_on_c, 4, 50, 0
5, 33974, Note_on_c, 4, 51, 72
5, 34086, Note_on_c, 4, 51, 0
5, 34094, Note_on_c, 4, 48, 72
5, 34323, Note_on_c, 4, 48, 0
5, 34334, Note_on_c, 4, 51, 72
5, 34563, Note_on_c, 4, 51, 0
5, 34573, Note_on_c, 4, 53, 72
5, 35042, Note_on_c, 4, 53, 0
5, 35161, Note_on_c, 4, 53, 72
5, 35281, Note_on_c, 4, 53, 0
5, 35291, Note_on_c, 4, 51, 72
5, 35400, Note_on_c, 4, 51, 0
5, 35410, Note_on_c, 4, 53, 72
5, 35531, Note_on_c, 4, 53, 0
5, 35541, Note_on_c, 4, 50, 72
5, 35650, Note_on_c, 4, 50, 0
5, 35660, Note_on_c, 4, 51, 72
5, 35770, Note_on_c, 4, 51, 0
5, 35780, Note_on_c, 4, 48, 72
5, 35890, Note_on_c, 4, 48, 0
5, 35900, Note_on_c, 4, 50, 72
5, 36010, Note_on_c, 4, 50, 0
5, 36018, Note_on_c, 4, 46, 72
5, 36249, Note_on_c, 4, 46, 0
5, 36259, Note_on_c, 4, 50, 72
5, 36489, Note_on_c, 4, 50, 0
5, 36499, Note_on_c, 4, 51, 72
5, 36727, Note_on_c, 4, 51, 0
5, 36737, Note_on_c, 4, 50, 72
5, 36967, Note_on_c, 4, 50, 0
5, 36977, Note_on_c, 4, 48, 72
5, 37206, Note_on_c, 4, 48, 0
5, 37216, Note_on_c, 4, 46, 72
5, 37446, Note_on_c, 4, 46, 0
5, 37456, Note_on_c, 4, 45, 72
5, 37684, Note_on_c, 4, 45, 0
5, 37694, Note_on_c, 4, 43, 72
5, 37925, Note_on_c, 4, 43, 0
5, 37935, Note_on_c, 4, 42, 72
5, 38165, Note_on_c, 4, 42, 0
5, 38175, Note_on_c, 4, 38, 72
5, 38404, Note_on_c, 4, 38, 0
5, 38414, Note_on_c, 4, 43, 72
5, 38643, Note_on_c, 4, 43, 0
5, 38653, Note_on_c, 4, 46, 72
5, 38883, Note_on_c, 4, 46, 0
5, 38893, Note_on_c, 4, 48, 72
5, 39122, Note_on_c, 4, 48, 0
5, 39132, Note_on_c, 4, 50, 72
5, 39362, Note_on_c, 4, 50, 0
5, 39371, Note_on_c, 4, 43, 72
5, 39850, Note_on_c, 4, 43, 0
5, 40091, Note_on_c, 4, 38, 72
5, 40329, Note_on_c, 4, 38, 0
5, 40338, Note_on_c, 4, 43, 72
5, 40568, Note_on_c, 4, 43, 0
5, 40578, Note_on_c, 4, 45, 72
5, 40808, Note_on_c, 4, 45, 0
5, 40818, Note_on_c, 4, 46, 72
5, 41048, Note_on_c, 4, 46, 0
5, 41058, Note_on_c, 4, 48, 72
5, 41288, Note_on_c, 4, 48, 0
5, 41298, Note_on_c, 4, 50, 72
5, 41525, Note_on_c, 4, 50, 0
5, 41535, Note_on_c, 4, 45, 72
5, 41765, Note_on_c, 4, 45, 0
5, 41776, Note_on_c, 4, 46, 72
5, 42723, Note_on_c, 4, 46, 0
5, 42733, Note_on_c, 4, 45, 72
5, 43691, Note_on_c, 4, 45, 0
5, 43700, Note_on_c, 4, 43, 72
5, 44648, Note_on_c, 4, 43, 0
5, 44658, Note_on_c, 4, 42, 72
5, 45128, Note_on_c, 4, 42, 0
5, 45138, Note_on_c, 4, 43, 72
5, 45367, Note_on_c, 4, 43, 0
5, 45377, Note_on_c, 4, 41, 72
5, 45606, Note_on_c, 4, 41, 0
5, 45616, Note_on_c, 4, 40, 72
5, 45846, Note_on_c, 4, 40, 0
5, 45856, Note_on_c, 4, 52, 72
5, 46085, Note_on_c, 4, 52, 0
5, 46096, Note_on_c, 4, 50, 72
5, 46324, Note_on_c, 4, 50, 0
5, 46335, Note_on_c, 4, 48, 72
5, 46564, Note_on_c, 4, 48, 0
5, 46573, Note_on_c, 4, 46, 72
5, 47042, Note_on_c, 4, 46, 0
5, 47053, Note_on_c, 4, 45, 72
5, 47532, Note_on_c, 4, 45, 0
5, 54245, Note_on_c, 4, 57, 72
5, 54483, Note_on_c, 4, 57, 0
5, 54493, Note_on_c, 4, 62, 72
5, 54842, Note_on_c, 4, 62, 0
5, 54852, Note_on_c, 4, 63, 72
5, 54962, Note_on_c, 4, 63, 0
5, 54972, Note_on_c, 4, 60, 72
5, 55081, Note_on_c, 4, 60, 0
5, 55092, Note_on_c, 4, 62, 72
5, 55202, Note_on_c, 4, 62, 0
5, 55212, Note_on_c, 4, 58, 72
5, 55331, Note_on_c, 4, 58, 0
5, 55341, Note_on_c, 4, 63, 72
5, 55451, Note_on_c, 4, 63, 0
5, 55462, Note_on_c, 4, 62, 72
5, 55570, Note_on_c, 4, 62, 0
5, 55580, Note_on_c, 4, 63, 72
5, 55690, Note_on_c, 4, 63, 0
5, 55700, Note_on_c, 4, 57, 72
5, 55809, Note_on_c, 4, 57, 0
5, 55819, Note_on_c, 4, 58, 72
5, 55929, Note_on_c, 4, 58, 0
5, 55938, Note_on_c, 4, 55, 72
5, 56048, Note_on_c, 4, 55, 0
5, 56058, Note_on_c, 4, 57, 72
5, 56170, Note_on_c, 4, 57, 0
5, 56179, Note_on_c, 4, 58, 72
5, 57126, Note_on_c, 4, 58, 0
5, 57137, Note_on_c, 4, 57, 72
5, 58083, Note_on_c, 4, 57, 0
5, 58093, Note_on_c, 4, 55, 72
5, 59042, Note_on_c, 4, 55, 0
5, 59051, Note_on_c, 4, 54, 72
5, 59531, Note_on_c, 4, 54, 0
5, 59541, Note_on_c, 4, 55, 72
5, 59770, Note_on_c, 4, 55, 0
5, 59780, Note_on_c, 4, 57, 72
5, 60009, Note_on_c, 4, 57, 0
5, 60019, Note_on_c, 4, 58, 72
5, 60128, Note_on_c, 4, 58, 0
5, 60138, Note_on_c, 4, 60, 72
5, 60249, Note_on_c, 4, 60, 0
5, 60258, Note_on_c, 4, 58, 72
5, 60368, Note_on_c, 4, 58, 0
5, 60378, Note_on_c, 4, 60, 72
5, 60488, Note_on_c, 4, 60, 0
5, 60498, Note_on_c, 4, 57, 72
5, 60608, Note_on_c, 4, 57, 0
5, 60618, Note_on_c, 4, 58, 72
5, 60727, Note_on_c, 4, 58, 0
5, 60737, Note_on_c, 4, 55, 72
5, 60847, Note_on_c, 4, 55, 0
5, 60858, Note_on_c, 4, 57, 72
5, 60967, Note_on_c, 4, 57, 0
5, 60977, Note_on_c, 4, 58, 72
5, 61086, Note_on_c, 4, 58, 0
5, 61096, Note_on_c, 4, 60, 72
5, 61206, Note_on_c, 4, 60, 0
5, 61215, Note_on_c, 4, 62, 72
5, 61326, Note_on_c, 4, 62, 0
5, 61335, Note_on_c, 4, 63, 72
5, 61445, Note_on_c, 4, 63, 0
5, 61455, Note_on_c, 4, 60, 72
5, 61565, Note_on_c, 4, 60, 0
5, 61574, Note_on_c, 4, 62, 72
5, 61685, Note_on_c, 4, 62, 0
5, 61695, Note_on_c, 4, 58, 72
5, 61805, Note_on_c, 4, 58, 0
5, 61815, Note_on_c, 4, 60, 72
5, 61925, Note_on_c, 4, 60, 0
5, 61934, Note_on_c, 4, 57, 72
5, 62044, Note_on_c, 4, 57, 0
5, 62054, Note_on_c, 4, 58, 72
5, 62164, Note_on_c, 4, 58, 0
5, 62174, Note_on_c, 4, 60, 72
5, 62284, Note_on_c, 4, 60, 0
5, 62293, Note_on_c, 4, 62, 72
5, 62403, Note_on_c, 4, 62, 0
5, 62413, Note_on_c, 4, 58, 72
5, 63490, Note_on_c, 4, 58, 0
5, 63500, Note_on_c, 4, 60, 72
5, 63610, Note_on_c, 4, 60, 0
5, 63620, Note_on_c, 4, 57, 72
5, 63729, Note_on_c, 4, 57, 0
5, 63739, Note_on_c, 4, 58, 72
5, 63850, Note_on_c, 4, 58, 0
5, 63860, Note_on_c, 4, 55, 72
5, 63969, Note_on_c, 4, 55, 0
5, 63978, Note_on_c, 4, 57, 72
5, 64088, Note_on_c, 4, 57, 0
5, 64098, Note_on_c, 4, 58, 72
5, 64208, Note_on_c, 4, 58, 0
5, 64218, Note_on_c, 4, 60, 72
5, 64328, Note_on_c, 4, 60, 0
5, 64338, Note_on_c, 4, 57, 72
5, 65405, Note_on_c, 4, 57, 0
5, 65415, Note_on_c, 4, 58, 72
5, 65525, Note_on_c, 4, 58, 0
5, 65535, Note_on_c, 4, 55, 72
5, 65645, Note_on_c, 4, 55, 0
5, 65655, Note_on_c, 4, 57, 72
5, 65764, Note_on_c, 4, 57, 0
5, 65774, Note_on_c, 4, 53, 72
5, 65884, Note_on_c, 4, 53, 0
5, 65895, Note_on_c, 4, 55, 72
5, 66004, Note_on_c, 4, 55, 0
5, 66013, Note_on_c, 4, 57, 72
5, 66123, Note_on_c, 4, 57, 0
5, 66133, Note_on_c, 4, 53, 72
5, 66243, Note_on_c, 4, 53, 0
5, 66253, Note_on_c, 4, 58, 72
5, 66483, Note_on_c, 4, 58, 0
5, 66493, Note_on_c, 4, 60, 72
5, 66722, Note_on_c, 4, 60, 0
5, 66732, Note_on_c, 4, 62, 72
5, 66962, Note_on_c, 4, 62, 0
5, 66973, Note_on_c, 4, 64, 72
5, 67212, Note_on_c, 4, 64, 0
5, 67222, Note_on_c, 4, 65, 72
5, 68288, Note_on_c, 4, 65, 0
5, 68298, Note_on_c, 4, 63, 72
5, 68409, Note_on_c, 4, 63, 0
5, 68418, Note_on_c, 4, 62, 72
5, 68527, Note_on_c, 4, 62, 0
5, 68537, Note_on_c, 4, 63, 72
5, 68648, Note_on_c, 4, 63, 0
5, 68658, Note_on_c, 4, 60, 72
5, 69006, Note_on_c, 4, 60, 0
5, 69017, Note_on_c, 4, 62, 72
5, 69127, Note_on_c, 4, 62, 0
5, 69136, Note_on_c, 4, 62, 72
5, 69366, Note_on_c, 4, 62, 0
5, 69376, Note_on_c, 4, 63, 72
5, 69605, Note_on_c, 4, 63, 0
5, 69615, Note_on_c, 4, 65, 72
5, 70563, Note_on_c, 4, 65, 0
5, 70803, Note_on_c, 4, 65, 72
5, 71051, Note_on_c, 4, 65, 0
5, 71061, Note_on_c, 4, 63, 72
5, 71170, Note_on_c, 4, 63, 0
5, 71180, Note_on_c, 4, 65, 72
5, 71290, Note_on_c, 4, 65, 0
5, 71300, Note_on_c, 4, 67, 72
5, 71649, Note_on_c, 4, 67, 0
5, 71659, Note_on_c, 4, 67, 72
5, 71770, Note_on_c, 4, 67, 0
5, 71780, Note_on_c, 4, 65, 72
5, 71889, Note_on_c, 4, 65, 0
5, 71899, Note_on_c, 4, 63, 72
5, 72008, Note_on_c, 4, 63, 0
5, 72018, Note_on_c, 4, 62, 72
5, 72129, Note_on_c, 4, 62, 0
5, 72139, Note_on_c, 4, 63, 72
5, 72247, Note_on_c, 4, 63, 0
5, 72257, Note_on_c, 4, 65, 72
5, 72606, Note_on_c, 4, 65, 0
5, 72617, Note_on_c, 4, 65, 72
5, 72727, Note_on_c, 4, 65, 0
5, 72737, Note_on_c, 4, 63, 72
5, 72846, Note_on_c, 4, 63, 0
5, 72856, Note_on_c, 4, 62, 72
5, 72966, Note_on_c, 4, 62, 0
5, 72975, Note_on_c, 4, 60, 72
5, 73085, Note_on_c, 4, 60, 0
5, 73095, Note_on_c, 4, 62, 72
5, 73204, Note_on_c, 4, 62, 0
5, 73214, Note_on_c, 4, 63, 72
5, 73564, Note_on_c, 4, 63, 0
5, 73574, Note_on_c, 4, 63, 72
5, 73684, Note_on_c, 4, 63, 0
5, 73694, Note_on_c, 4, 62, 72
5, 73803, Note_on_c, 4, 62, 0
5, 73814, Note_on_c, 4, 60, 72
5, 73924, Note_on_c, 4, 60, 0
5, 73934, Note_on_c, 4, 58, 72
5, 74403, Note_on_c, 4, 58, 0
5, 75130, Note_on_c, 4, 60, 88
5, 75370, Note_on_c, 4, 60, 0
5, 75380, Note_on_c, 4, 65, 88
5, 75610, Note_on_c, 4, 65, 0
5, 75620, Note_on_c, 4, 65, 88
5, 75849, Note_on_c, 4, 65, 0
5, 75859, Note_on_c, 4, 63, 88
5, 76089, Note_on_c, 4, 63, 0
5, 76099, Note_on_c, 4, 64, 88
5, 76328, Note_on_c, 4, 64, 0
5, 76338, Note_on_c, 4, 65, 88
5, 76567, Note_on_c, 4, 65, 0
5, 76578, Note_on_c, 4, 66, 88
5, 76807, Note_on_c, 4, 66, 0
5, 76817, Note_on_c, 4, 67, 88
5, 77046, Note_on_c, 4, 67, 0
5, 77056, Note_on_c, 4, 62, 88
5, 77285, Note_on_c, 4, 62, 0
5, 77296, Note_on_c, 4, 67, 88
5, 77525, Note_on_c, 4, 67, 0
5, 77535, Note_on_c, 4, 67, 88
5, 77764, Note_on_c, 4, 67, 0
5, 77774, Note_on_c, 4, 65, 88
5, 78004, Note_on_c, 4, 65, 0
5, 78014, Note_on_c, 4, 66, 88
5, 78243, Note_on_c, 4, 66, 0
5, 78253, Note_on_c, 4, 67, 88
5, 78482, Note_on_c, 4, 67, 0
5, 78492, Note_on_c, 4, 68, 88
5, 78722, Note_on_c, 4, 68, 0
5, 78732, Note_on_c, 4, 69, 88
5, 78840, Note_on_c, 4, 69, 0
5, 78851, Note_on_c, 4, 70, 88
5, 78971, Note_on_c, 4, 70, 0
5, 78981, Note_on_c, 4, 67, 88
5, 79090, Note_on_c, 4, 67, 0
5, 79100, Note_on_c, 4, 69, 88
5, 79211, Note_on_c, 4, 69, 0
5, 79221, Note_on_c, 4, 65, 88
5, 79329, Note_on_c, 4, 65, 0
5, 79340, Note_on_c, 4, 67, 88
5, 79450, Note_on_c, 4, 67, 0
5, 79460, Note_on_c, 4, 69, 88
5, 79569, Note_on_c, 4, 69, 0
5, 79579, Note_on_c, 4, 70, 88
5, 79689, Note_on_c, 4, 70, 0
5, 79700, Note_on_c, 4, 67, 88
5, 79809, Note_on_c, 4, 67, 0
5, 79819, Note_on_c, 4, 69, 88
5, 79929, Note_on_c, 4, 69, 0
5, 79939, Note_on_c, 4, 65, 88
5, 80048, Note_on_c, 4, 65, 0
5, 80058, Note_on_c, 4, 67, 88
5, 80169, Note_on_c, 4, 67, 0
5, 80179, Note_on_c, 4, 64, 88
5, 80287, Note_on_c, 4, 64, 0
5, 80297, Note_on_c, 4, 65, 88
5, 80407, Note_on_c, 4, 65, 0
5, 80418, Note_on_c, 4, 67, 88
5, 80526, Note_on_c, 4, 67, 0
5, 80537, Note_on_c, 4, 69, 88
5, 80647, Note_on_c, 4, 69, 0
5, 80657, Note_on_c, 4, 65, 88
5, 80766, Note_on_c, 4, 65, 0
5, 80776, Note_on_c, 4, 69, 88
5, 80885, Note_on_c, 4, 69, 0
5, 80886, Program_c, 4, 0
5, 103449, Note_on_c, 4, 48, 104
5, 103689, Note_on_c, 4, 48, 0
5, 103699, Note_on_c, 4, 45, 104
5, 103808, Note_on_c, 4, 45, 0
5, 103818, Note_on_c, 4, 46, 104
5, 103929, Note_on_c, 4, 46, 0
5, 103939, Note_on_c, 4, 43, 104
5, 104047, Note_on_c, 4, 43, 0
5, 104057, Note_on_c, 4, 45, 104
5, 104168, Note_on_c, 4, 45, 0
5, 104177, Note_on_c, 4, 41, 104
5, 104407, Note_on_c, 4, 41, 0
5, 104417, Note_on_c, 4, 53, 104
5, 104647, Note_on_c, 4, 53, 0
5, 104657, Note_on_c, 4, 52, 104
5, 104766, Note_on_c, 4, 52, 0
5, 104776, Note_on_c, 4, 53, 104
5, 104886, Note_on_c, 4, 53, 0
5, 104896, Note_on_c, 4, 50, 104
5, 105004, Note_on_c, 4, 50, 0
5, 105014, Note_on_c, 4, 52, 104
5, 105125, Note_on_c, 4, 52, 0
5, 105135, Note_on_c, 4, 48, 104
5, 105364, Note_on_c, 4, 48, 0
5, 105374, Note_on_c, 4, 53, 104
5, 105484, Note_on_c, 4, 53, 0
5, 105494, Note_on_c, 4, 48, 104
5, 105604, Note_on_c, 4, 48, 0
5, 105614, Note_on_c, 4, 50, 104
5, 105844, Note_on_c, 4, 50, 0
5, 105853, Note_on_c, 4, 46, 104
5, 106083, Note_on_c, 4, 46, 0
5, 106093, Note_on_c, 4, 40, 104
5, 106321, Note_on_c, 4, 40, 0
5, 106331, Note_on_c, 4, 52, 104
5, 106571, Note_on_c, 4, 52, 0
5, 106582, Note_on_c, 4, 48, 104
5, 106691, Note_on_c, 4, 48, 0
5, 106701, Note_on_c, 4, 50, 104
5, 106811, Note_on_c, 4, 50, 0
5, 106820, Note_on_c, 4, 46, 104
5, 106930, Note_on_c, 4, 46, 0
5, 106940, Note_on_c, 4, 48, 104
5, 107050, Note_on_c, 4, 48, 0
5, 107060, Note_on_c, 4, 45, 104
5, 107290, Note_on_c, 4, 45, 0
5, 107300, Note_on_c, 4, 50, 104
5, 107409, Note_on_c, 4, 50, 0
5, 107419, Note_on_c, 4, 45, 104
5, 107529, Note_on_c, 4, 45, 0
5, 107539, Note_on_c, 4, 46, 104
5, 107769, Note_on_c, 4, 46, 0
5, 107779, Note_on_c, 4, 43, 104
5, 108007, Note_on_c, 4, 43, 0
5, 108018, Note_on_c, 4, 36, 104
5, 108247, Note_on_c, 4, 36, 0
5, 108257, Note_on_c, 4, 48, 72
5, 108487, Note_on_c, 4, 48, 0
5, 108497, Note_on_c, 4, 45, 72
5, 108606, Note_on_c, 4, 45, 0
5, 108616, Note_on_c, 4, 46, 72
5, 108725, Note_on_c, 4, 46, 0
5, 108726, Program_c, 4, 0
5, 108727, Note_on_c, 4, 43, 72
5, 108844, Note_on_c, 4, 43, 0
5, 108854, Note_on_c, 4, 45, 72
5, 108965, Note_on_c, 4, 45, 0
5, 108974, Note_on_c, 4, 41, 72
5, 109084, Note_on_c, 4, 41, 0
5, 109094, Note_on_c, 4, 45, 72
5, 109204, Note_on_c, 4, 45, 0
5, 109214, Note_on_c, 4, 43, 72
5, 109324, Note_on_c, 4, 43, 0
5, 109334, Note_on_c, 4, 46, 72
5, 109444, Note_on_c, 4, 46, 0
5, 109454, Note_on_c, 4, 45, 72
5, 109564, Note_on_c, 4, 45, 0
5, 109574, Note_on_c, 4, 46, 72
5, 109683, Note_on_c, 4, 46, 0
5, 109693, Note_on_c, 4, 43, 72
5, 109802, Note_on_c, 4, 43, 0
5, 109813, Note_on_c, 4, 45, 72
5, 109923, Note_on_c, 4, 45, 0
5, 109933, Note_on_c, 4, 41, 72
5, 110042, Note_on_c, 4, 41, 0
5, 110052, Note_on_c, 4, 45, 72
5, 110163, Note_on_c, 4, 45, 0
5, 110172, Note_on_c, 4, 43, 72
5, 110282, Note_on_c, 4, 43, 0
5, 110292, Note_on_c, 4, 46, 72
5, 110403, Note_on_c, 4, 46, 0
5, 110413, Note_on_c, 4, 45, 72
5, 110531, Note_on_c, 4, 45, 0
5, 110542, Note_on_c, 4, 48, 72
5, 110651, Note_on_c, 4, 48, 0
5, 110661, Note_on_c, 4, 47, 72
5, 110771, Note_on_c, 4, 47, 0
5, 110780, Note_on_c, 4, 50, 72
5, 110891, Note_on_c, 4, 50, 0
5, 110900, Note_on_c, 4, 48, 72
5, 111010, Note_on_c, 4, 48, 0
5, 111020, Note_on_c, 4, 51, 72
5, 111131, Note_on_c, 4, 51, 0
5, 111141, Note_on_c, 4, 50, 72
5, 111250, Note_on_c, 4, 50, 0
5, 111260, Note_on_c, 4, 53, 72
5, 111370, Note_on_c, 4, 53, 0
5, 111380, Note_on_c, 4, 51, 72
5, 111488, Note_on_c, 4, 51, 0
5, 111498, Note_on_c, 4, 53, 72
5, 111609, Note_on_c, 4, 53, 0
5, 111618, Note_on_c, 4, 50, 72
5, 111728, Note_on_c, 4, 50, 0
5, 111738, Note_on_c, 4, 51, 72
5, 111848, Note_on_c, 4, 51, 0
5, 111859, Note_on_c, 4, 48, 72
5, 111967, Note_on_c, 4, 48, 0
5, 111977, Note_on_c, 4, 51, 72
5, 112087, Note_on_c, 4, 51, 0
5, 112097, Note_on_c, 4, 50, 72
5, 112207, Note_on_c, 4, 50, 0
5, 112217, Note_on_c, 4, 53, 72
5, 112326, Note_on_c, 4, 53, 0
5, 112336, Note_on_c, 4, 51, 72
5, 112446, Note_on_c, 4, 51, 0
5, 112456, Note_on_c, 4, 53, 72
5, 112567, Note_on_c, 4, 53, 0
5, 112576, Note_on_c, 4, 50, 72
5, 112685, Note_on_c, 4, 50, 0
5, 112695, Note_on_c, 4, 51, 72
5, 112806, Note_on_c, 4, 51, 0
5, 112815, Note_on_c, 4, 48, 72
5, 112923, Note_on_c, 4, 48, 0
5, 112933, Note_on_c, 4, 51, 72
5, 113045, Note_on_c, 4, 51, 0
5, 113054, Note_on_c, 4, 50, 72
5, 113163, Note_on_c, 4, 50, 0
5, 113174, Note_on_c, 4, 53, 72
5, 113284, Note_on_c, 4, 53, 0
5, 113294, Note_on_c, 4, 52, 72
5, 113404, Note_on_c, 4, 52, 0
5, 113414, Note_on_c, 4, 55, 72
5, 113524, Note_on_c, 4, 55, 0
5, 113534, Note_on_c, 4, 54, 72
5, 113644, Note_on_c, 4, 54, 0
5, 113654, Note_on_c, 4, 57, 72
5, 113764, Note_on_c, 4, 57, 0
5, 113773, Note_on_c, 4, 55, 72
5, 113884, Note_on_c, 4, 55, 0
5, 113894, Note_on_c, 4, 58, 72
5, 114002, Note_on_c, 4, 58, 0
5, 114012, Note_on_c, 4, 57, 72
5, 114122, Note_on_c, 4, 57, 0
5, 114132, Note_on_c, 4, 60, 72
5, 114242, Note_on_c, 4, 60, 0
5, 114252, Note_on_c, 4, 58, 72
5, 114361, Note_on_c, 4, 58, 0
5, 114371, Note_on_c, 4, 60, 72
5, 114491, Note_on_c, 4, 60, 0
5, 114500, Note_on_c, 4, 57, 72
5, 114611, Note_on_c, 4, 57, 0
5, 114621, Note_on_c, 4, 58, 72
5, 114731, Note_on_c, 4, 58, 0
5, 114741, Note_on_c, 4, 55, 72
5, 114850, Note_on_c, 4, 55, 0
5, 114860, Note_on_c, 4, 58, 72
5, 114971, Note_on_c, 4, 58, 0
5, 114980, Note_on_c, 4, 57, 72
5, 115089, Note_on_c, 4, 57, 0
5, 115099, Note_on_c, 4, 60, 72
5, 115209, Note_on_c, 4, 60, 0
5, 115219, Note_on_c, 4, 58, 72
5, 115328, Note_on_c, 4, 58, 0
5, 115338, Note_on_c, 4, 60, 72
5, 115449, Note_on_c, 4, 60, 0
5, 115459, Note_on_c, 4, 57, 56
5, 115569, Note_on_c, 4, 57, 0
5, 115579, Note_on_c, 4, 60, 56
5, 115689, Note_on_c, 4, 60, 0
5, 115699, Note_on_c, 4, 58, 56
5, 115808, Note_on_c, 4, 58, 0
5, 115817, Note_on_c, 4, 60, 56
5, 115928, Note_on_c, 4, 60, 0
5, 115938, Note_on_c, 4, 57, 56
5, 116048, Note_on_c, 4, 57, 0
5, 116058, Note_on_c, 4, 58, 56
5, 116168, Note_on_c, 4, 58, 0
5, 116177, Note_on_c, 4, 55, 56
5, 116287, Note_on_c, 4, 55, 0
5, 116297, Note_on_c, 4, 57, 56
5, 116407, Note_on_c, 4, 57, 0
5, 116417, Note_on_c, 4, 54, 56
5, 116526, Note_on_c, 4, 54, 0
5, 116536, Note_on_c, 4, 57, 56
5, 116647, Note_on_c, 4, 57, 0
5, 116657, Note_on_c, 4, 55, 56
5, 116765, Note_on_c, 4, 55, 0
5, 116775, Note_on_c, 4, 57, 56
5, 116885, Note_on_c, 4, 57, 0
5, 116895, Note_on_c, 4, 53, 56
5, 117005, Note_on_c, 4, 53, 0
5, 117015, Note_on_c, 4, 55, 56
5, 117125, Note_on_c, 4, 55, 0
5, 117135, Note_on_c, 4, 51, 56
5, 117244, Note_on_c, 4, 51, 0
5, 117254, Note_on_c, 4, 53, 56
5, 117364, Note_on_c, 4, 53, 0
5, 117374, Note_on_c, 4, 50, 56
5, 117484, Note_on_c, 4, 50, 0
5, 117494, Note_on_c, 4, 53, 56
5, 117603, Note_on_c, 4, 53, 0
5, 117613, Note_on_c, 4, 51, 56
5, 117723, Note_on_c, 4, 51, 0
5, 117733, Note_on_c, 4, 53, 56
5, 117843, Note_on_c, 4, 53, 0
5, 117852, Note_on_c, 4, 50, 56
5, 117962, Note_on_c, 4, 50, 0
5, 117972, Note_on_c, 4, 51, 56
5, 118082, Note_on_c, 4, 51, 0
5, 118092, Note_on_c, 4, 48, 56
5, 118202, Note_on_c, 4, 48, 0
5, 118212, Note_on_c, 4, 50, 56
5, 118322, Note_on_c, 4, 50, 0
5, 118332, Note_on_c, 4, 46, 56
5, 118451, Note_on_c, 4, 46, 0
5, 118461, Note_on_c, 4, 50, 56
5, 118570, Note_on_c, 4, 50, 0
5, 118580, Note_on_c, 4, 48, 56
5, 118691, Note_on_c, 4, 48, 0
5, 118701, Note_on_c, 4, 50, 56
5, 118810, Note_on_c, 4, 50, 0
5, 118820, Note_on_c, 4, 46, 56
5, 118930, Note_on_c, 4, 46, 0
5, 118940, Note_on_c, 4, 48, 56
5, 119049, Note_on_c, 4, 48, 0
5, 119060, Note_on_c, 4, 45, 56
5, 119170, Note_on_c, 4, 45, 0
5, 119179, Note_on_c, 4, 46, 56
5, 119289, Note_on_c, 4, 46, 0
5, 119299, Note_on_c, 4, 43, 56
5, 119408, Note_on_c, 4, 43, 0
5, 119418, Note_on_c, 4, 45, 56
5, 119528, Note_on_c, 4, 45, 0
5, 119538, Note_on_c, 4, 42, 56
5, 119769, Note_on_c, 4, 42, 0
5, 119779, Note_on_c, 4, 38, 56
5, 120007, Note_on_c, 4, 38, 0
5, 120017, Note_on_c, 4, 43, 56
5, 120246, Note_on_c, 4, 43, 0
5, 120256, Note_on_c, 4, 41, 56
5, 120486, Note_on_c, 4, 41, 0
5, 120497, Note_on_c, 4, 39, 56
5, 120966, Note_on_c, 4, 39, 0
5, 120975, Note_on_c, 4, 38, 56
5, 124803, Note_on_c, 4, 38, 0
5, 124804, Program_c, 4, 0
5, 124807, Note_on_c, 4, 38, 72
5, 125044, Note_on_c, 4, 38, 0
5, 125053, Note_on_c, 4, 42, 72
5, 125285, Note_on_c, 4, 42, 0
5, 125294, Note_on_c, 4, 43, 72
5, 125523, Note_on_c, 4, 43, 0
5, 125532, Note_on_c, 4, 46, 72
5, 125762, Note_on_c, 4, 46, 0
5, 125772, Note_on_c, 4, 48, 72
5, 126002, Note_on_c, 4, 48, 0
5, 126011, Note_on_c, 4, 51, 72
5, 126242, Note_on_c, 4, 51, 0
5, 126252, Note_on_c, 4, 53, 72
5, 126491, Note_on_c, 4, 53, 0
5, 126501, Note_on_c, 4, 45, 72
5, 126730, Note_on_c, 4, 45, 0
5, 126740, Note_on_c, 4, 46, 72
5, 126970, Note_on_c, 4, 46, 0
5, 126980, Note_on_c, 4, 50, 72
5, 127211, Note_on_c, 4, 50, 0
5, 127219, Note_on_c, 4, 51, 72
5, 127448, Note_on_c, 4, 51, 0
5, 127458, Note_on_c, 4, 43, 72
5, 127688, Note_on_c, 4, 43, 0
5, 127698, Note_on_c, 4, 45, 72
5, 127927, Note_on_c, 4, 45, 0
5, 127937, Note_on_c, 4, 48, 72
5, 128166, Note_on_c, 4, 48, 0
5, 128176, Note_on_c, 4, 50, 72
5, 128406, Note_on_c, 4, 50, 0
5, 128416, Note_on_c, 4, 38, 72
5, 128645, Note_on_c, 4, 38, 0
5, 128656, Note_on_c, 4, 43, 72
5, 129125, Note_on_c, 4, 43, 0
5, 129364, Note_on_c, 4, 38, 72
5, 129604, Note_on_c, 4, 38, 0
5, 129614, Note_on_c, 4, 43, 72
5, 130082, Note_on_c, 4, 43, 0
5, 130331, Note_on_c, 4, 38, 72
5, 130570, Note_on_c, 4, 38, 0
5, 130580, Note_on_c, 4, 43, 72
5, 130811, Note_on_c, 4, 43, 0
5, 130820, Note_on_c, 4, 50, 72
5, 131049, Note_on_c, 4, 50, 0
5, 131060, Note_on_c, 4, 55, 72
5, 131289, Note_on_c, 4, 55, 0
5, 131299, Note_on_c, 4, 54, 72
5, 131529, Note_on_c, 4, 54, 0
5, 131538, Note_on_c, 4, 55, 72
5, 131768, Note_on_c, 4, 55, 0
5, 131778, Note_on_c, 4, 51, 72
5, 132007, Note_on_c, 4, 51, 0
5, 132017, Note_on_c, 4, 47, 72
5, 132248, Note_on_c, 4, 47, 0
5, 132258, Note_on_c, 4, 43, 72
5, 132486, Note_on_c, 4, 43, 0
5, 132496, Note_on_c, 4, 48, 72
5, 132965, Note_on_c, 4, 48, 0
5, 133205, Note_on_c, 4, 55, 72
5, 133443, Note_on_c, 4, 55, 0
5, 133453, Note_on_c, 4, 48, 72
5, 133924, Note_on_c, 4, 48, 0
5, 134172, Note_on_c, 4, 43, 72
5, 134411, Note_on_c, 4, 43, 0
5, 134422, Note_on_c, 4, 48, 72
5, 134651, Note_on_c, 4, 48, 0
5, 134660, Note_on_c, 4, 55, 72
5, 134891, Note_on_c, 4, 55, 0
5, 134900, Note_on_c, 4, 60, 72
5, 135128, Note_on_c, 4, 60, 0
5, 135138, Note_on_c, 4, 59, 72
5, 135369, Note_on_c, 4, 59, 0
5, 135379, Note_on_c, 4, 60, 72
5, 135608, Note_on_c, 4, 60, 0
5, 135618, Note_on_c, 4, 56, 72
5, 135848, Note_on_c, 4, 56, 0
5, 135857, Note_on_c, 4, 53, 72
5, 136086, Note_on_c, 4, 53, 0
5, 136096, Note_on_c, 4, 50, 72
5, 136325, Note_on_c, 4, 50, 0
5, 136326, Program_c, 4, 0
5, 137045, Note_on_c, 4, 79, 88
5, 137284, Note_on_c, 4, 79, 0
5, 137294, Note_on_c, 4, 75, 88
5, 137403, Note_on_c, 4, 75, 0
5, 137413, Note_on_c, 4, 77, 88
5, 137522, Note_on_c, 4, 77, 0
5, 137532, Note_on_c, 4, 74, 88
5, 137641, Note_on_c, 4, 74, 0
5, 137651, Note_on_c, 4, 75, 88
5, 137763, Note_on_c, 4, 75, 0
5, 137773, Note_on_c, 4, 72, 88
5, 138002, Note_on_c, 4, 72, 0
5, 138013, Note_on_c, 4, 84, 88
5, 138251, Note_on_c, 4, 84, 0
5, 138261, Note_on_c, 4, 83, 88
5, 138370, Note_on_c, 4, 83, 0
5, 138380, Note_on_c, 4, 84, 88
5, 138490, Note_on_c, 4, 84, 0
5, 138500, Note_on_c, 4, 81, 88
5, 138609, Note_on_c, 4, 81, 0
5, 138619, Note_on_c, 4, 83, 88
5, 138730, Note_on_c, 4, 83, 0
5, 138740, Note_on_c, 4, 79, 88
5, 138968, Note_on_c, 4, 79, 0
5, 138978, Note_on_c, 4, 84, 88
5, 139088, Note_on_c, 4, 84, 0
5, 139098, Note_on_c, 4, 79, 88
5, 139209, Note_on_c, 4, 79, 0
5, 139219, Note_on_c, 4, 80, 88
5, 139447, Note_on_c, 4, 80, 0
5, 139458, Note_on_c, 4, 77, 88
5, 139687, Note_on_c, 4, 77, 0
5, 139697, Note_on_c, 4, 70, 88
5, 139926, Note_on_c, 4, 70, 0
5, 139936, Note_on_c, 4, 82, 88
5, 140166, Note_on_c, 4, 82, 0
5, 140177, Note_on_c, 4, 79, 88
5, 140285, Note_on_c, 4, 79, 0
5, 140295, Note_on_c, 4, 80, 88
5, 140405, Note_on_c, 4, 80, 0
5, 140415, Note_on_c, 4, 77, 88
5, 140524, Note_on_c, 4, 77, 0
5, 140534, Note_on_c, 4, 79, 88
5, 140644, Note_on_c, 4, 79, 0
5, 140654, Note_on_c, 4, 75, 88
5, 140884, Note_on_c, 4, 75, 0
5, 140894, Note_on_c, 4, 80, 88
5, 141003, Note_on_c, 4, 80, 0
5, 141013, Note_on_c, 4, 75, 88
5, 141123, Note_on_c, 4, 75, 0
5, 141133, Note_on_c, 4, 77, 88
5, 141362, Note_on_c, 4, 77, 0
5, 141372, Note_on_c, 4, 74, 88
5, 141603, Note_on_c, 4, 74, 0
5, 141613, Note_on_c, 4, 67, 88
5, 141842, Note_on_c, 4, 67, 0
5, 141852, Note_on_c, 4, 79, 72
5, 142091, Note_on_c, 4, 79, 0
5, 142101, Note_on_c, 4, 75, 72
5, 142210, Note_on_c, 4, 75, 0
5, 142221, Note_on_c, 4, 77, 72
5, 142330, Note_on_c, 4, 77, 0
5, 142340, Note_on_c, 4, 74, 72
5, 142450, Note_on_c, 4, 74, 0
5, 142460, Note_on_c, 4, 75, 72
5, 142571, Note_on_c, 4, 75, 0
5, 142581, Note_on_c, 4, 72, 72
5, 142690, Note_on_c, 4, 72, 0
5, 142699, Note_on_c, 4, 75, 72
5, 142810, Note_on_c, 4, 75, 0
5, 142820, Note_on_c, 4, 74, 72
5, 142929, Note_on_c, 4, 74, 0
5, 142939, Note_on_c, 4, 72, 72
5, 143048, Note_on_c, 4, 72, 0
5, 143058, Note_on_c, 4, 71, 72
5, 143168, Note_on_c, 4, 71, 0
5, 143178, Note_on_c, 4, 72, 72
5, 143288, Note_on_c, 4, 72, 0
5, 143298, Note_on_c, 4, 69, 72
5, 143407, Note_on_c, 4, 69, 0
5, 143417, Note_on_c, 4, 71, 72
5, 143527, Note_on_c, 4, 71, 0
5, 143537, Note_on_c, 4, 67, 72
5, 143647, Note_on_c, 4, 67, 0
5, 143657, Note_on_c, 4, 77, 56
5, 143767, Note_on_c, 4, 77, 0
5, 143777, Note_on_c, 4, 75, 56
5, 143886, Note_on_c, 4, 75, 0
5, 143896, Note_on_c, 4, 74, 56
5, 144006, Note_on_c, 4, 74, 0
5, 144016, Note_on_c, 4, 72, 56
5, 144125, Note_on_c, 4, 72, 0
5, 144135, Note_on_c, 4, 67, 56
5, 144245, Note_on_c, 4, 67, 0
5, 144255, Note_on_c, 4, 74, 56
5, 144366, Note_on_c, 4, 74, 0
5, 144376, Note_on_c, 4, 67, 56
5, 144485, Note_on_c, 4, 67, 0
5, 144495, Note_on_c, 4, 75, 56
5, 144604, Note_on_c, 4, 75, 0
5, 144614, Note_on_c, 4, 67, 56
5, 144724, Note_on_c, 4, 67, 0
5, 144734, Note_on_c, 4, 77, 56
5, 144843, Note_on_c, 4, 77, 0
5, 144853, Note_on_c, 4, 67, 56
5, 144963, Note_on_c, 4, 67, 0
5, 144973, Note_on_c, 4, 79, 56
5, 145083, Note_on_c, 4, 79, 0
5, 145093, Note_on_c, 4, 67, 56
5, 145203, Note_on_c, 4, 67, 0
5, 145213, Note_on_c, 4, 81, 56
5, 145323, Note_on_c, 4, 81, 0
5, 145333, Note_on_c, 4, 67, 56
5, 145442, Note_on_c, 4, 67, 0
5, 145452, Note_on_c, 4, 83, 56
5, 145682, Note_on_c, 4, 83, 0
5, 145692, Note_on_c, 4, 79, 56
5, 145922, Note_on_c, 4, 79, 0
5, 145931, Note_on_c, 4, 79, 40
5, 145961, Note_on_c, 4, 79, 0
5, 145971, Note_on_c, 4, 80, 40
5, 146011, Note_on_c, 4, 80, 0
5, 146021, Note_on_c, 4, 79, 40
5, 146051, Note_on_c, 4, 79, 0
5, 146061, Note_on_c, 4, 80, 40
5, 146090, Note_on_c, 4, 80, 0
5, 146100, Note_on_c, 4, 79, 40
5, 146130, Note_on_c, 4, 79, 0
5, 146140, Note_on_c, 4, 80, 40
5, 146171, Note_on_c, 4, 80, 0
5, 146181, Note_on_c, 4, 79, 40
5, 146210, Note_on_c, 4, 79, 0
5, 146220, Note_on_c, 4, 80, 40
5, 146250, Note_on_c, 4, 80, 0
5, 146260, Note_on_c, 4, 79, 40
5, 146291, Note_on_c, 4, 79, 0
5, 146301, Note_on_c, 4, 80, 40
5, 146330, Note_on_c, 4, 80, 0
5, 146340, Note_on_c, 4, 79, 40
5, 146369, Note_on_c, 4, 79, 0
5, 146380, Note_on_c, 4, 80, 40
5, 146410, Note_on_c, 4, 80, 0
5, 146420, Note_on_c, 4, 79, 40
5, 146449, Note_on_c, 4, 79, 0
5, 146459, Note_on_c, 4, 80, 40
5, 146489, Note_on_c, 4, 80, 0
5, 146499, Note_on_c, 4, 79, 40
5, 146530, Note_on_c, 4, 79, 0
5, 146540, Note_on_c, 4, 80, 40
5, 146570, Note_on_c, 4, 80, 0
5, 146580, Note_on_c, 4, 79, 40
5, 146609, Note_on_c, 4, 79, 0
5, 146619, Note_on_c, 4, 80, 40
5, 146650, Note_on_c, 4, 80, 0
5, 146660, Note_on_c, 4, 79, 40
5, 146688, Note_on_c, 4, 79, 0
5, 146698, Note_on_c, 4, 80, 40
5, 146728, Note_on_c, 4, 80, 0
5, 146739, Note_on_c, 4, 79, 40
5, 146769, Note_on_c, 4, 79, 0
5, 146780, Note_on_c, 4, 80, 40
5, 146808, Note_on_c, 4, 80, 0
5, 146818, Note_on_c, 4, 79, 40
5, 146848, Note_on_c, 4, 79, 0
5, 146858, Note_on_c, 4, 80, 40
5, 146889, Note_on_c, 4, 80, 0
5, 146899, Note_on_c, 4, 79, 40
5, 146928, Note_on_c, 4, 79, 0
5, 146938, Note_on_c, 4, 80, 40
5, 146968, Note_on_c, 4, 80, 0
5, 146978, Note_on_c, 4, 79, 40
5, 147009, Note_on_c, 4, 79, 0
5, 147019, Note_on_c, 4, 80, 40
5, 147048, Note_on_c, 4, 80, 0
5, 147058, Note_on_c, 4, 79, 40
5, 147088, Note_on_c, 4, 79, 0
5, 147098, Note_on_c, 4, 80, 40
5, 147128, Note_on_c, 4, 80, 0
5, 147138, Note_on_c, 4, 79, 40
5, 147167, Note_on_c, 4, 79, 0
5, 147178, Note_on_c, 4, 80, 40
5, 147207, Note_on_c, 4, 80, 0
5, 147217, Note_on_c, 4, 79, 40
5, 147248, Note_on_c, 4, 79, 0
5, 147258, Note_on_c, 4, 80, 40
5, 147288, Note_on_c, 4, 80, 0
5, 147298, Note_on_c, 4, 79, 40
5, 147327, Note_on_c, 4, 79, 0
5, 147338, Note_on_c, 4, 80, 40
5, 147368, Note_on_c, 4, 80, 0
5, 147378, Note_on_c, 4, 79, 40
5, 147406, Note_on_c, 4, 79, 0
5, 147416, Note_on_c, 4, 80, 40
5, 147446, Note_on_c, 4, 80, 0
5, 147456, Note_on_c, 4, 79, 40
5, 147487, Note_on_c, 4, 79, 0
5, 147497, Note_on_c, 4, 80, 40
5, 147526, Note_on_c, 4, 80, 0
5, 147537, Note_on_c, 4, 79, 40
5, 147566, Note_on_c, 4, 79, 0
5, 147576, Note_on_c, 4, 80, 40
5, 147608, Note_on_c, 4, 80, 0
5, 147618, Note_on_c, 4, 79, 40
5, 147646, Note_on_c, 4, 79, 0
5, 147656, Note_on_c, 4, 80, 40
5, 147686, Note_on_c, 4, 80, 0
5, 147696, Note_on_c, 4, 79, 40
5, 147726, Note_on_c, 4, 79, 0
5, 147736, Note_on_c, 4, 80, 40
5, 147766, Note_on_c, 4, 80, 0
5, 147776, Note_on_c, 4, 79, 40
5, 147806, Note_on_c, 4, 79, 0
5, 147816, Note_on_c, 4, 80, 40
5, 147846, Note_on_c, 4, 80, 0
5, 147857, Note_on_c, 4, 79, 40
5, 147965, Note_on_c, 4, 79, 0
5, 147975, Note_on_c, 4, 75, 40
5, 148086, Note_on_c, 4, 75, 0
5, 148096, Note_on_c, 4, 77, 40
5, 148205, Note_on_c, 4, 77, 0
5, 148215, Note_on_c, 4, 79, 40
5, 148325, Note_on_c, 4, 79, 0
5, 148335, Note_on_c, 4, 80, 40
5, 148923, Note_on_c, 4, 80, 0
5, 148933, Note_on_c, 4, 74, 40
5, 149043, Note_on_c, 4, 74, 0
5, 149053, Note_on_c, 4, 75, 40
5, 149163, Note_on_c, 4, 75, 0
5, 149173, Note_on_c, 4, 77, 40
5, 149283, Note_on_c, 4, 77, 0
5, 149293, Note_on_c, 4, 79, 40
5, 149881, Note_on_c, 4, 79, 0
5, 149891, Note_on_c, 4, 82, 40
5, 150011, Note_on_c, 4, 82, 0
5, 150021, Note_on_c, 4, 80, 40
5, 150130, Note_on_c, 4, 80, 0
5, 150140, Note_on_c, 4, 79, 40
5, 150251, Note_on_c, 4, 79, 0
5, 150260, Note_on_c, 4, 77, 40
5, 150370, Note_on_c, 4, 77, 0
5, 150380, Note_on_c, 4, 75, 40
5, 150490, Note_on_c, 4, 75, 0
5, 150500, Note_on_c, 4, 74, 40
5, 150609, Note_on_c, 4, 74, 0
5, 150620, Note_on_c, 4, 75, 40
5, 150729, Note_on_c, 4, 75, 0
5, 150739, Note_on_c, 4, 74, 40
5, 150968, Note_on_c, 4, 74, 0
5, 150978, Note_on_c, 4, 77, 40
5, 151208, Note_on_c, 4, 77, 0
5, 151218, Note_on_c, 4, 70, 40
5, 151449, Note_on_c, 4, 70, 0
5, 151458, Note_on_c, 4, 74, 40
5, 151687, Note_on_c, 4, 74, 0
5, 151697, Note_on_c, 4, 75, 40
5, 152285, Note_on_c, 4, 75, 0
5, 152295, Note_on_c, 4, 77, 40
5, 152405, Note_on_c, 4, 77, 0
5, 152415, Note_on_c, 4, 79, 40
5, 152524, Note_on_c, 4, 79, 0
5, 152534, Note_on_c, 4, 81, 40
5, 152644, Note_on_c, 4, 81, 0
5, 152654, Note_on_c, 4, 82, 40
5, 153602, Note_on_c, 4, 82, 0
5, 153721, Note_on_c, 4, 75, 40
5, 153841, Note_on_c, 4, 75, 0
5, 153851, Note_on_c, 4, 77, 40
5, 153971, Note_on_c, 4, 77, 0
5, 153981, Note_on_c, 4, 79, 40
5, 154091, Note_on_c, 4, 79, 0
5, 154101, Note_on_c, 4, 80, 40
5, 154209, Note_on_c, 4, 80, 0
5, 154219, Note_on_c, 4, 79, 40
5, 154330, Note_on_c, 4, 79, 0
5, 154340, Note_on_c, 4, 77, 40
5, 154449, Note_on_c, 4, 77, 0
5, 154459, Note_on_c, 4, 80, 40
5, 154570, Note_on_c, 4, 80, 0
5, 154580, Note_on_c, 4, 79, 40
5, 155527, Note_on_c, 4, 79, 0
5, 155646, Note_on_c, 4, 72, 40
5, 155766, Note_on_c, 4, 72, 0
5, 155776, Note_on_c, 4, 74, 40
5, 155885, Note_on_c, 4, 74, 0
5, 155895, Note_on_c, 4, 75, 40
5, 156006, Note_on_c, 4, 75, 0
5, 156015, Note_on_c, 4, 77, 40
5, 156125, Note_on_c, 4, 77, 0
5, 156136, Note_on_c, 4, 75, 40
5, 156245, Note_on_c, 4, 75, 0
5, 156255, Note_on_c, 4, 74, 40
5, 156365, Note_on_c, 4, 74, 0
5, 156375, Note_on_c, 4, 77, 40
5, 156484, Note_on_c, 4, 77, 0
5, 156494, Note_on_c, 4, 70, 40
5, 156725, Note_on_c, 4, 70, 0
5, 156735, Note_on_c, 4, 74, 40
5, 156964, Note_on_c, 4, 74, 0
5, 156974, Note_on_c, 4, 75, 40
5, 157205, Note_on_c, 4, 75, 0
5, 157683, Note_on_c, 4, 70, 88
5, 157931, Note_on_c, 4, 70, 0
5, 157940, Note_on_c, 4, 75, 88
5, 158170, Note_on_c, 4, 75, 0
5, 158180, Note_on_c, 4, 74, 88
5, 158410, Note_on_c, 4, 74, 0
5, 158421, Note_on_c, 4, 75, 88
5, 158650, Note_on_c, 4, 75, 0
5, 158659, Note_on_c, 4, 77, 88
5, 158889, Note_on_c, 4, 77, 0
5, 158900, Note_on_c, 4, 79, 88
5, 159128, Note_on_c, 4, 79, 0
5, 162489, Program_c, 4, 0
5, 162490, Note_on_c, 4, 41, 88
5, 162730, Note_on_c, 4, 41, 0
5, 162740, Note_on_c, 4, 46, 88
5, 162968, Note_on_c, 4, 46, 0
5, 162979, Note_on_c, 4, 45, 88
5, 163207, Note_on_c, 4, 45, 0
5, 163217, Note_on_c, 4, 46, 88
5, 163448, Note_on_c, 4, 46, 0
5, 163458, Note_on_c, 4, 48, 88
5, 163687, Note_on_c, 4, 48, 0
5, 163697, Note_on_c, 4, 50, 88
5, 163926, Note_on_c, 4, 50, 0
5, 163935, Note_on_c, 4, 52, 88
5, 164166, Note_on_c, 4, 52, 0
5, 164175, Note_on_c, 4, 53, 88
5, 164645, Note_on_c, 4, 53, 0
5, 165123, Note_on_c, 4, 46, 88
5, 165362, Note_on_c, 4, 46, 0
5, 165372, Note_on_c, 4, 48, 88
5, 165602, Note_on_c, 4, 48, 0
5, 165612, Note_on_c, 4, 49, 88
5, 165852, Note_on_c, 4, 49, 0
5, 165862, Note_on_c, 4, 46, 88
5, 166090, Note_on_c, 4, 46, 0
5, 166102, Note_on_c, 4, 51, 88
5, 166570, Note_on_c, 4, 51, 0
5, 167047, Program_c, 4, 0
5, 167048, Note_on_c, 4, 44, 72
5, 167287, Note_on_c, 4, 44, 0
5, 167297, Note_on_c, 4, 46, 72
5, 167526, Note_on_c, 4, 46, 0
5, 167536, Note_on_c, 4, 48, 72
5, 167766, Note_on_c, 4, 48, 0
5, 167776, Note_on_c, 4, 44, 72
5, 168007, Note_on_c, 4, 44, 0
5, 168017, Note_on_c, 4, 49, 72
5, 168485, Note_on_c, 4, 49, 0
5, 168963, Note_on_c, 4, 55, 72
5, 169082, Note_on_c, 4, 55, 0
5, 169092, Note_on_c, 4, 56, 72
5, 169202, Note_on_c, 4, 56, 0
5, 169213, Note_on_c, 4, 53, 72
5, 169322, Note_on_c, 4, 53, 0
5, 169332, Note_on_c, 4, 55, 72
5, 169443, Note_on_c, 4, 55, 0
5, 169452, Note_on_c, 4, 51, 72
5, 169560, Note_on_c, 4, 51, 0
5, 169571, Note_on_c, 4, 53, 72
5, 169693, Note_on_c, 4, 53, 0
5, 169703, Note_on_c, 4, 50, 72
5, 169810, Note_on_c, 4, 50, 0
5, 169820, Note_on_c, 4, 51, 72
5, 169931, Note_on_c, 4, 51, 0
5, 169942, Note_on_c, 4, 48, 72
5, 170411, Note_on_c, 4, 48, 0
5, 170649, Note_on_c, 4, 43, 72
5, 170888, Note_on_c, 4, 43, 0
5, 170898, Note_on_c, 4, 48, 72
5, 171367, Note_on_c, 4, 48, 0
5, 171607, Note_on_c, 4, 43, 72
5, 171847, Note_on_c, 4, 43, 0
5, 171856, Note_on_c, 4, 36, 72
5, 172087, Note_on_c, 4, 36, 0
5, 172097, Note_on_c, 4, 43, 72
5, 172325, Note_on_c, 4, 43, 0
5, 172337, Note_on_c, 4, 48, 72
5, 172565, Note_on_c, 4, 48, 0
5, 172574, Note_on_c, 4, 47, 72
5, 172804, Note_on_c, 4, 47, 0
5, 172814, Note_on_c, 4, 48, 72
5, 173043, Note_on_c, 4, 48, 0
5, 173053, Note_on_c, 4, 50, 72
5, 173282, Note_on_c, 4, 50, 0
5, 173291, Note_on_c, 4, 52, 72
5, 173522, Note_on_c, 4, 52, 0
5, 173531, Note_on_c, 4, 54, 72
5, 173773, Note_on_c, 4, 54, 0
5, 173783, Note_on_c, 4, 55, 72
5, 174249, Note_on_c, 4, 55, 0
5, 174490, Note_on_c, 4, 50, 72
5, 174729, Note_on_c, 4, 50, 0
5, 174741, Note_on_c, 4, 55, 72
5, 175209, Note_on_c, 4, 55, 0
5, 175447, Note_on_c, 4, 50, 72
5, 175687, Note_on_c, 4, 50, 0
5, 175697, Note_on_c, 4, 43, 72
5, 175927, Note_on_c, 4, 43, 0
5, 175937, Note_on_c, 4, 50, 72
5, 176165, Note_on_c, 4, 50, 0
5, 176177, Note_on_c, 4, 55, 72
5, 176405, Note_on_c, 4, 55, 0
5, 176415, Note_on_c, 4, 54, 72
5, 176645, Note_on_c, 4, 54, 0
5, 176655, Note_on_c, 4, 55, 72
5, 176882, Note_on_c, 4, 55, 0
5, 176892, Note_on_c, 4, 57, 72
5, 177122, Note_on_c, 4, 57, 0
5, 177132, Note_on_c, 4, 58, 72
5, 177363, Note_on_c, 4, 58, 0
5, 177372, Note_on_c, 4, 60, 72
5, 177613, Note_on_c, 4, 60, 0
5, 177622, Note_on_c, 4, 62, 72
5, 177852, Note_on_c, 4, 62, 0
5, 177862, Note_on_c, 4, 50, 72
5, 178090, Note_on_c, 4, 50, 0
5, 178569, Program_c, 4, 0
5, 210008, Note_on_c, 4, 50, 104
5, 210250, Note_on_c, 4, 50, 0
5, 210258, Note_on_c, 4, 46, 104
5, 210368, Note_on_c, 4, 46, 0
5, 210379, Note_on_c, 4, 48, 104
5, 210489, Note_on_c, 4, 48, 0
5, 210497, Note_on_c, 4, 45, 104
5, 210607, Note_on_c, 4, 45, 0
5, 210617, Note_on_c, 4, 46, 104
5, 210727, Note_on_c, 4, 46, 0
5, 210737, Note_on_c, 4, 43, 104
5, 210969, Note_on_c, 4, 43, 0
5, 210976, Note_on_c, 4, 55, 104
5, 211206, Note_on_c, 4, 55, 0
5, 211217, Note_on_c, 4, 54, 104
5, 211325, Note_on_c, 4, 54, 0
5, 211335, Note_on_c, 4, 55, 104
5, 211445, Note_on_c, 4, 55, 0
5, 211456, Note_on_c, 4, 52, 104
5, 211565, Note_on_c, 4, 52, 0
5, 211575, Note_on_c, 4, 54, 104
5, 211686, Note_on_c, 4, 54, 0
5, 211695, Note_on_c, 4, 50, 104
5, 211926, Note_on_c, 4, 50, 0
5, 211934, Note_on_c, 4, 55, 104
5, 212044, Note_on_c, 4, 55, 0
5, 212054, Note_on_c, 4, 50, 104
5, 212164, Note_on_c, 4, 50, 0
5, 212174, Note_on_c, 4, 51, 104
5, 212403, Note_on_c, 4, 51, 0
5, 212414, Note_on_c, 4, 48, 104
5, 212643, Note_on_c, 4, 48, 0
5, 212653, Note_on_c, 4, 41, 104
5, 212882, Note_on_c, 4, 41, 0
5, 212893, Note_on_c, 4, 53, 104
5, 213132, Note_on_c, 4, 53, 0
5, 213142, Note_on_c, 4, 50, 104
5, 213251, Note_on_c, 4, 50, 0
5, 213261, Note_on_c, 4, 51, 104
5, 213371, Note_on_c, 4, 51, 0
5, 213380, Note_on_c, 4, 48, 104
5, 213491, Note_on_c, 4, 48, 0
5, 213501, Note_on_c, 4, 50, 104
5, 213609, Note_on_c, 4, 50, 0
5, 213619, Note_on_c, 4, 46, 104
5, 213850, Note_on_c, 4, 46, 0
5, 213862, Note_on_c, 4, 51, 104
5, 213969, Note_on_c, 4, 51, 0
5, 213979, Note_on_c, 4, 46, 104
5, 214090, Note_on_c, 4, 46, 0
5, 214099, Note_on_c, 4, 48, 104
5, 214329, Note_on_c, 4, 48, 0
5, 214339, Note_on_c, 4, 45, 104
5, 214568, Note_on_c, 4, 45, 0
5, 214578, Note_on_c, 4, 38, 104
5, 214807, Note_on_c, 4, 38, 0
5, 214818, Note_on_c, 4, 50, 104
5, 215048, Note_on_c, 4, 50, 0
5, 215056, Note_on_c, 4, 46, 104
5, 215166, Note_on_c, 4, 46, 0
5, 215177, Note_on_c, 4, 48, 104
5, 215287, Note_on_c, 4, 48, 0
5, 215297, Note_on_c, 4, 45, 104
5, 215406, Note_on_c, 4, 45, 0
5, 215416, Note_on_c, 4, 46, 104
5, 215526, Note_on_c, 4, 46, 0
5, 215535, Note_on_c, 4, 43, 104
5, 215644, Note_on_c, 4, 43, 0
5, 215654, Note_on_c, 4, 46, 104
5, 215766, Note_on_c, 4, 46, 0
5, 215774, Note_on_c, 4, 45, 104
5, 215882, Note_on_c, 4, 45, 0
5, 215893, Note_on_c, 4, 48, 104
5, 216004, Note_on_c, 4, 48, 0
5, 216014, Note_on_c, 4, 46, 104
5, 216124, Note_on_c, 4, 46, 0
5, 216134, Note_on_c, 4, 48, 104
5, 216244, Note_on_c, 4, 48, 0
5, 216254, Note_on_c, 4, 45, 104
5, 216362, Note_on_c, 4, 45, 0
5, 216372, Note_on_c, 4, 46, 104
5, 216483, Note_on_c, 4, 46, 0
5, 216493, Note_on_c, 4, 43, 104
5, 216601, Note_on_c, 4, 43, 0
5, 216612, Note_on_c, 4, 46, 104
5, 216723, Note_on_c, 4, 46, 0
5, 216733, Note_on_c, 4, 45, 104
5, 216842, Note_on_c, 4, 45, 0
5, 216852, Note_on_c, 4, 48, 104
5, 216962, Note_on_c, 4, 48, 0
5, 216973, Note_on_c, 4, 46, 104
5, 217091, Note_on_c, 4, 46, 0
5, 217101, Note_on_c, 4, 48, 104
5, 217211, Note_on_c, 4, 48, 0
5, 217221, Note_on_c, 4, 45, 104
5, 217329, Note_on_c, 4, 45, 0
5, 217339, Note_on_c, 4, 46, 104
5, 217451, Note_on_c, 4, 46, 0
5, 217460, Note_on_c, 4, 43, 104
5, 217569, Note_on_c, 4, 43, 0
5, 217579, Note_on_c, 4, 46, 104
5, 217691, Note_on_c, 4, 46, 0
5, 217699, Note_on_c, 4, 45, 104
5, 217808, Note_on_c, 4, 45, 0
5, 217819, Note_on_c, 4, 48, 104
5, 217930, Note_on_c, 4, 48, 0
5, 217940, Note_on_c, 4, 46, 104
5, 218048, Note_on_c, 4, 46, 0
5, 218058, Note_on_c, 4, 50, 104
5, 218172, Note_on_c, 4, 50, 0
5, 218180, Note_on_c, 4, 48, 104
5, 218283, Note_on_c, 4, 48, 0
5, 218293, Note_on_c, 4, 51, 104
5, 218403, Note_on_c, 4, 51, 0
5, 218411, Note_on_c, 4, 50, 104
5, 218646, Note_on_c, 4, 50, 0
5, 218655, Note_on_c, 4, 38, 104
5, 218882, Note_on_c, 4, 38, 0
5, 218886, Note_on_c, 4, 43, 104
5, 220803, Note_on_c, 4, 43, 0
5, 222720, End_track
0, 0, End_of_file
