0, 0, Header, 1, 6, 120
1, 0, Start_track
1, 0, Time_signature, 4, 2, 24, 8
1, 0, Key_signature, -2, "major"
1, 0, Tempo, 375000
1, 0, End_track
2, 0, Start_track
2, 0, MIDI_port, 0
2, 0, Program_c, 0, 2
2, 0, Control_c, 0, 7, 110
2, 0, Control_c, 0, 10, 20
2, 5, Control_c, 0, 7, 110
2, 10, Program_c, 0, 2
2, 15, Control_c, 0, 10, 20
2, 120, Note_on_c, 0, 77, 80
2, 225, Note_on_c, 0, 77, 0
2, 480, Note_on_c, 0, 77, 80
2, 585, Note_on_c, 0, 77, 0
2, 600, Note_on_c, 0, 79, 80
2, 705, Note_on_c, 0, 79, 0
2, 960, Note_on_c, 0, 79, 80
2, 1065, Note_on_c, 0, 79, 0
2, 1080, Note_on_c, 0, 72, 80
2, 1185, Note_on_c, 0, 72, 0
2, 1440, Note_on_c, 0, 72, 80
2, 1545, Note_on_c, 0, 72, 0
2, 1560, Note_on_c, 0, 74, 80
2, 1665, Note_on_c, 0, 74, 0
2, 1920, Note_on_c, 0, 74, 80
2, 2025, Note_on_c, 0, 74, 0
2, 2040, Note_on_c, 0, 79, 80
2, 2145, Note_on_c, 0, 79, 0
2, 2880, Note_on_c, 0, 76, 80
2, 2985, Note_on_c, 0, 76, 0
2, 3000, Note_on_c, 0, 77, 80
2, 3105, Note_on_c, 0, 77, 0
2, 3840, Note_on_c, 0, 74, 80
2, 3945, Note_on_c, 0, 74, 0
2, 3960, Note_on_c, 0, 76, 80
2, 4065, Note_on_c, 0, 76, 0
2, 4320, Note_on_c, 0, 76, 80
2, 4425, Note_on_c, 0, 76, 0
2, 4440, Note_on_c, 0, 77, 80
2, 4545, Note_on_c, 0, 77, 0
2, 4800, Note_on_c, 0, 77, 80
2, 4905, Note_on_c, 0, 77, 0
2, 4920, Note_on_c, 0, 79, 80
2, 5025, Note_on_c, 0, 79, 0
2, 5280, Note_on_c, 0, 79, 80
2, 5385, Note_on_c, 0, 79, 0
2, 5400, Note_on_c, 0, 80, 80
2, 5505, Note_on_c, 0, 80, 0
2, 5760, Note_on_c, 0, 80, 80
2, 5865, Note_on_c, 0, 80, 0
2, 5880, Note_on_c, 0, 71, 80
2, 5985, Note_on_c, 0, 71, 0
2, 6240, Note_on_c, 0, 71, 80
2, 6345, Note_on_c, 0, 71, 0
2, 6360, Note_on_c, 0, 72, 80
2, 6465, Note_on_c, 0, 72, 0
2, 6720, Note_on_c, 0, 70, 80
2, 6825, Note_on_c, 0, 70, 0
2, 6840, Note_on_c, 0, 68, 80
2, 6945, Note_on_c, 0, 68, 0
2, 7440, Note_on_c, 0, 65, 80
2, 7545, Note_on_c, 0, 65, 0
2, 7575, Note_on_c, 0, 77, 80
2, 7780, Program_c, 0, 11
2, 7785, Note_on_c, 0, 77, 0
2, 7795, Control_c, 0, 10, 100
2, 7800, Note_on_c, 0, 77, 80
2, 7905, Note_on_c, 0, 77, 0
2, 8160, Note_on_c, 0, 77, 80
2, 8265, Note_on_c, 0, 77, 0
2, 8280, Note_on_c, 0, 79, 80
2, 8385, Note_on_c, 0, 79, 0
2, 8640, Note_on_c, 0, 79, 80
2, 8745, Note_on_c, 0, 79, 0
2, 8760, Note_on_c, 0, 72, 80
2, 8865, Note_on_c, 0, 72, 0
2, 9120, Note_on_c, 0, 72, 80
2, 9225, Note_on_c, 0, 72, 0
2, 9240, Note_on_c, 0, 74, 80
2, 9345, Note_on_c, 0, 74, 0
2, 9600, Note_on_c, 0, 74, 80
2, 9705, Note_on_c, 0, 74, 0
2, 9720, Note_on_c, 0, 79, 80
2, 9825, Note_on_c, 0, 79, 0
2, 10560, Note_on_c, 0, 76, 80
2, 10665, Note_on_c, 0, 76, 0
2, 10680, Note_on_c, 0, 77, 80
2, 10785, Note_on_c, 0, 77, 0
2, 11520, Note_on_c, 0, 74, 80
2, 11625, Note_on_c, 0, 74, 0
2, 11640, Note_on_c, 0, 76, 80
2, 11745, Note_on_c, 0, 76, 0
2, 12000, Note_on_c, 0, 76, 80
2, 12105, Note_on_c, 0, 76, 0
2, 12120, Note_on_c, 0, 77, 80
2, 12225, Note_on_c, 0, 77, 0
2, 12480, Note_on_c, 0, 77, 80
2, 12585, Note_on_c, 0, 77, 0
2, 12600, Note_on_c, 0, 79, 80
2, 12705, Note_on_c, 0, 79, 0
2, 12960, Note_on_c, 0, 79, 80
2, 13065, Note_on_c, 0, 79, 0
2, 13080, Note_on_c, 0, 80, 80
2, 13185, Note_on_c, 0, 80, 0
2, 13440, Note_on_c, 0, 80, 80
2, 13545, Note_on_c, 0, 80, 0
2, 13560, Note_on_c, 0, 71, 80
2, 13665, Note_on_c, 0, 71, 0
2, 13920, Note_on_c, 0, 71, 80
2, 14025, Note_on_c, 0, 71, 0
2, 14040, Note_on_c, 0, 72, 80
2, 14145, Note_on_c, 0, 72, 0
2, 14400, Note_on_c, 0, 70, 80
2, 14505, Note_on_c, 0, 70, 0
2, 14520, Note_on_c, 0, 68, 80
2, 14625, Note_on_c, 0, 68, 0
2, 15120, Note_on_c, 0, 65, 80
2, 15225, Note_on_c, 0, 65, 0
2, 15255, Note_on_c, 0, 77, 80
2, 15465, Note_on_c, 0, 77, 0
2, 15480, Note_on_c, 0, 81, 80
2, 15585, Note_on_c, 0, 81, 0
2, 15820, Program_c, 0, 2
2, 15830, Control_c, 0, 10, 20
2, 15840, Note_on_c, 0, 81, 80
2, 15945, Note_on_c, 0, 81, 0
2, 15960, Note_on_c, 0, 82, 80
2, 16065, Note_on_c, 0, 82, 0
2, 16320, Note_on_c, 0, 82, 80
2, 16425, Note_on_c, 0, 82, 0
2, 16440, Note_on_c, 0, 79, 80
2, 16545, Note_on_c, 0, 79, 0
2, 16800, Note_on_c, 0, 79, 80
2, 16905, Note_on_c, 0, 79, 0
2, 16920, Note_on_c, 0, 78, 80
2, 17025, Note_on_c, 0, 78, 0
2, 17280, Note_on_c, 0, 78, 80
2, 17385, Note_on_c, 0, 78, 0
2, 17400, Note_on_c, 0, 79, 80
2, 17505, Note_on_c, 0, 79, 0
2, 17760, Note_on_c, 0, 79, 80
2, 17865, Note_on_c, 0, 79, 0
2, 17880, Note_on_c, 0, 81, 80
2, 17985, Note_on_c, 0, 81, 0
2, 18240, Note_on_c, 0, 81, 80
2, 18345, Note_on_c, 0, 81, 0
2, 18360, Note_on_c, 0, 82, 80
2, 18465, Note_on_c, 0, 82, 0
2, 18720, Note_on_c, 0, 82, 80
2, 18825, Note_on_c, 0, 82, 0
2, 18840, Note_on_c, 0, 84, 80
2, 18945, Note_on_c, 0, 84, 0
2, 19200, Note_on_c, 0, 84, 80
2, 19305, Note_on_c, 0, 84, 0
2, 19320, Note_on_c, 0, 82, 80
2, 19425, Note_on_c, 0, 82, 0
2, 19440, Note_on_c, 0, 78, 80
2, 19545, Note_on_c, 0, 78, 0
2, 19560, Note_on_c, 0, 79, 80
2, 19665, Note_on_c, 0, 79, 0
2, 19680, Note_on_c, 0, 73, 80
2, 19785, Note_on_c, 0, 73, 0
2, 19800, Note_on_c, 0, 74, 80
2, 19905, Note_on_c, 0, 74, 0
2, 21480, Note_on_c, 0, 70, 80
2, 21585, Note_on_c, 0, 70, 0
2, 21600, Note_on_c, 0, 74, 80
2, 21705, Note_on_c, 0, 74, 0
2, 21840, Note_on_c, 0, 70, 80
2, 21945, Note_on_c, 0, 70, 0
2, 21960, Note_on_c, 0, 79, 80
2, 22065, Note_on_c, 0, 79, 0
2, 22560, Note_on_c, 0, 76, 80
2, 22665, Note_on_c, 0, 76, 0
2, 22680, Note_on_c, 0, 77, 80
2, 22785, Note_on_c, 0, 77, 0
2, 22920, Note_on_c, 0, 77, 80
2, 23025, Note_on_c, 0, 77, 0
2, 23160, Note_on_c, 0, 75, 80
2, 23265, Note_on_c, 0, 75, 0
2, 23400, Note_on_c, 0, 75, 80
2, 23505, Note_on_c, 0, 75, 0
2, 23640, Note_on_c, 0, 74, 80
2, 23745, Note_on_c, 0, 74, 0
2, 23880, Note_on_c, 0, 74, 80
2, 23985, Note_on_c, 0, 74, 0
2, 24120, Note_on_c, 0, 73, 80
2, 24225, Note_on_c, 0, 73, 0
2, 24360, Note_on_c, 0, 73, 80
2, 24465, Note_on_c, 0, 73, 0
2, 24600, Note_on_c, 0, 72, 80
2, 24705, Note_on_c, 0, 72, 0
2, 24840, Note_on_c, 0, 72, 80
2, 24945, Note_on_c, 0, 72, 0
2, 25080, Note_on_c, 0, 71, 80
2, 25185, Note_on_c, 0, 71, 0
2, 25320, Note_on_c, 0, 71, 80
2, 25425, Note_on_c, 0, 71, 0
2, 25560, Note_on_c, 0, 70, 80
2, 25665, Note_on_c, 0, 70, 0
2, 25800, Note_on_c, 0, 70, 80
2, 25905, Note_on_c, 0, 70, 0
2, 26040, Note_on_c, 0, 69, 80
2, 26145, Note_on_c, 0, 69, 0
2, 26280, Note_on_c, 0, 69, 80
2, 26385, Note_on_c, 0, 69, 0
2, 26520, Note_on_c, 0, 67, 80
2, 26625, Note_on_c, 0, 67, 0
2, 26760, Note_on_c, 0, 67, 80
2, 26865, Note_on_c, 0, 67, 0
2, 27000, Note_on_c, 0, 69, 80
2, 27105, Note_on_c, 0, 69, 0
2, 27360, Note_on_c, 0, 69, 80
2, 27465, Note_on_c, 0, 69, 0
2, 27480, Note_on_c, 0, 70, 80
2, 27585, Note_on_c, 0, 70, 0
2, 27840, Note_on_c, 0, 70, 80
2, 27945, Note_on_c, 0, 70, 0
2, 27960, Note_on_c, 0, 72, 80
2, 28065, Note_on_c, 0, 72, 0
2, 28320, Note_on_c, 0, 72, 80
2, 28425, Note_on_c, 0, 72, 0
2, 28440, Note_on_c, 0, 73, 80
2, 28545, Note_on_c, 0, 73, 0
2, 28800, Note_on_c, 0, 73, 80
2, 28905, Note_on_c, 0, 73, 0
2, 28920, Note_on_c, 0, 76, 80
2, 29025, Note_on_c, 0, 76, 0
2, 29280, Note_on_c, 0, 76, 80
2, 29385, Note_on_c, 0, 76, 0
2, 29400, Note_on_c, 0, 77, 80
2, 29505, Note_on_c, 0, 77, 0
2, 29760, Note_on_c, 0, 75, 80
2, 29865, Note_on_c, 0, 75, 0
2, 29880, Note_on_c, 0, 73, 80
2, 29985, Note_on_c, 0, 73, 0
2, 30480, Note_on_c, 0, 70, 80
2, 30585, Note_on_c, 0, 70, 0
2, 30615, Note_on_c, 0, 82, 80
2, 30820, Program_c, 0, 11
2, 30825, Note_on_c, 0, 82, 0
2, 30830, Control_c, 0, 10, 100
2, 30840, Note_on_c, 0, 81, 80
2, 30945, Note_on_c, 0, 81, 0
2, 31200, Note_on_c, 0, 81, 80
2, 31305, Note_on_c, 0, 81, 0
2, 31320, Note_on_c, 0, 82, 80
2, 31425, Note_on_c, 0, 82, 0
2, 31680, Note_on_c, 0, 82, 80
2, 31785, Note_on_c, 0, 82, 0
2, 31800, Note_on_c, 0, 79, 80
2, 31905, Note_on_c, 0, 79, 0
2, 32160, Note_on_c, 0, 79, 80
2, 32265, Note_on_c, 0, 79, 0
2, 32280, Note_on_c, 0, 78, 80
2, 32385, Note_on_c, 0, 78, 0
2, 32640, Note_on_c, 0, 78, 80
2, 32745, Note_on_c, 0, 78, 0
2, 32760, Note_on_c, 0, 79, 80
2, 32865, Note_on_c, 0, 79, 0
2, 33120, Note_on_c, 0, 79, 80
2, 33225, Note_on_c, 0, 79, 0
2, 33240, Note_on_c, 0, 81, 80
2, 33345, Note_on_c, 0, 81, 0
2, 33600, Note_on_c, 0, 81, 80
2, 33705, Note_on_c, 0, 81, 0
2, 33720, Note_on_c, 0, 82, 80
2, 33825, Note_on_c, 0, 82, 0
2, 34080, Note_on_c, 0, 82, 80
2, 34185, Note_on_c, 0, 82, 0
2, 34200, Note_on_c, 0, 84, 80
2, 34305, Note_on_c, 0, 84, 0
2, 34560, Note_on_c, 0, 84, 80
2, 34665, Note_on_c, 0, 84, 0
2, 34680, Note_on_c, 0, 82, 80
2, 34785, Note_on_c, 0, 82, 0
2, 34800, Note_on_c, 0, 78, 80
2, 34905, Note_on_c, 0, 78, 0
2, 34920, Note_on_c, 0, 79, 80
2, 35025, Note_on_c, 0, 79, 0
2, 35040, Note_on_c, 0, 73, 80
2, 35145, Note_on_c, 0, 73, 0
2, 35160, Note_on_c, 0, 74, 80
2, 35265, Note_on_c, 0, 74, 0
2, 36840, Note_on_c, 0, 70, 80
2, 36945, Note_on_c, 0, 70, 0
2, 36960, Note_on_c, 0, 74, 80
2, 37065, Note_on_c, 0, 74, 0
2, 37200, Note_on_c, 0, 70, 80
2, 37305, Note_on_c, 0, 70, 0
2, 37320, Note_on_c, 0, 79, 80
2, 37425, Note_on_c, 0, 79, 0
2, 37920, Note_on_c, 0, 76, 80
2, 38025, Note_on_c, 0, 76, 0
2, 38040, Note_on_c, 0, 77, 80
2, 38145, Note_on_c, 0, 77, 0
2, 38280, Note_on_c, 0, 77, 80
2, 38385, Note_on_c, 0, 77, 0
2, 38520, Note_on_c, 0, 75, 80
2, 38625, Note_on_c, 0, 75, 0
2, 38760, Note_on_c, 0, 75, 80
2, 38865, Note_on_c, 0, 75, 0
2, 39000, Note_on_c, 0, 74, 80
2, 39105, Note_on_c, 0, 74, 0
2, 39240, Note_on_c, 0, 74, 80
2, 39345, Note_on_c, 0, 74, 0
2, 39480, Note_on_c, 0, 73, 80
2, 39585, Note_on_c, 0, 73, 0
2, 39720, Note_on_c, 0, 73, 80
2, 39825, Note_on_c, 0, 73, 0
2, 39960, Note_on_c, 0, 72, 80
2, 40065, Note_on_c, 0, 72, 0
2, 40200, Note_on_c, 0, 72, 80
2, 40305, Note_on_c, 0, 72, 0
2, 40440, Note_on_c, 0, 71, 80
2, 40545, Note_on_c, 0, 71, 0
2, 40680, Note_on_c, 0, 71, 80
2, 40785, Note_on_c, 0, 71, 0
2, 40920, Note_on_c, 0, 70, 80
2, 41025, Note_on_c, 0, 70, 0
2, 41160, Note_on_c, 0, 70, 80
2, 41265, Note_on_c, 0, 70, 0
2, 41400, Note_on_c, 0, 69, 80
2, 41505, Note_on_c, 0, 69, 0
2, 41640, Note_on_c, 0, 69, 80
2, 41745, Note_on_c, 0, 69, 0
2, 41880, Note_on_c, 0, 67, 80
2, 41985, Note_on_c, 0, 67, 0
2, 42120, Note_on_c, 0, 67, 80
2, 42225, Note_on_c, 0, 67, 0
2, 42360, Note_on_c, 0, 69, 80
2, 42465, Note_on_c, 0, 69, 0
2, 42720, Note_on_c, 0, 69, 80
2, 42825, Note_on_c, 0, 69, 0
2, 42840, Note_on_c, 0, 70, 80
2, 42945, Note_on_c, 0, 70, 0
2, 43200, Note_on_c, 0, 70, 80
2, 43305, Note_on_c, 0, 70, 0
2, 43320, Note_on_c, 0, 72, 80
2, 43425, Note_on_c, 0, 72, 0
2, 43680, Note_on_c, 0, 72, 80
2, 43785, Note_on_c, 0, 72, 0
2, 43800, Note_on_c, 0, 73, 80
2, 43905, Note_on_c, 0, 73, 0
2, 44160, Note_on_c, 0, 73, 80
2, 44265, Note_on_c, 0, 73, 0
2, 44280, Note_on_c, 0, 76, 80
2, 44385, Note_on_c, 0, 76, 0
2, 44640, Note_on_c, 0, 76, 80
2, 44745, Note_on_c, 0, 76, 0
2, 44760, Note_on_c, 0, 77, 80
2, 44865, Note_on_c, 0, 77, 0
2, 45120, Note_on_c, 0, 75, 80
2, 45225, Note_on_c, 0, 75, 0
2, 45240, Note_on_c, 0, 73, 80
2, 45345, Note_on_c, 0, 73, 0
2, 45840, Note_on_c, 0, 70, 80
2, 45945, Note_on_c, 0, 70, 0
2, 45975, Note_on_c, 0, 82, 80
2, 46185, Note_on_c, 0, 82, 0
2, 46185, End_track
3, 0, Start_track
3, 0, MIDI_port, 0
3, 0, Program_c, 1, 1
3, 0, Control_c, 1, 7, 100
3, 0, Control_c, 1, 10, 100
3, 30, Control_c, 1, 10, 100
3, 40, Control_c, 1, 7, 100
3, 50, Program_c, 1, 1
3, 240, Note_on_c, 1, 58, 80
3, 345, Note_on_c, 1, 58, 0
3, 360, Note_on_c, 1, 46, 80
3, 465, Note_on_c, 1, 46, 0
3, 720, Note_on_c, 1, 68, 80
3, 825, Note_on_c, 1, 68, 0
3, 840, Note_on_c, 1, 67, 80
3, 945, Note_on_c, 1, 67, 0
3, 1200, Note_on_c, 1, 66, 80
3, 1305, Note_on_c, 1, 66, 0
3, 1320, Note_on_c, 1, 65, 80
3, 1425, Note_on_c, 1, 65, 0
3, 1680, Note_on_c, 1, 58, 80
3, 1785, Note_on_c, 1, 58, 0
3, 1800, Note_on_c, 1, 46, 80
3, 1905, Note_on_c, 1, 46, 0
3, 2160, Note_on_c, 1, 69, 80
3, 2265, Note_on_c, 1, 69, 0
3, 2280, Note_on_c, 1, 67, 80
3, 2293, Note_on_c, 1, 67, 0
3, 2295, Note_on_c, 1, 69, 80
3, 2308, Note_on_c, 1, 69, 0
3, 2310, Note_on_c, 1, 67, 80
3, 2323, Note_on_c, 1, 67, 0
3, 2325, Note_on_c, 1, 69, 80
3, 2338, Note_on_c, 1, 69, 0
3, 2340, Note_on_c, 1, 67, 80
3, 2392, Note_on_c, 1, 67, 0
3, 2400, Note_on_c, 1, 65, 80
3, 2505, Note_on_c, 1, 65, 0
3, 2520, Note_on_c, 1, 64, 80
3, 2625, Note_on_c, 1, 64, 0
3, 2640, Note_on_c, 1, 67, 80
3, 2745, Note_on_c, 1, 67, 0
3, 2760, Note_on_c, 1, 60, 80
3, 2865, Note_on_c, 1, 60, 0
3, 3120, Note_on_c, 1, 67, 80
3, 3225, Note_on_c, 1, 67, 0
3, 3240, Note_on_c, 1, 65, 80
3, 3253, Note_on_c, 1, 65, 0
3, 3255, Note_on_c, 1, 67, 80
3, 3268, Note_on_c, 1, 67, 0
3, 3270, Note_on_c, 1, 65, 80
3, 3283, Note_on_c, 1, 65, 0
3, 3285, Note_on_c, 1, 67, 80
3, 3298, Note_on_c, 1, 67, 0
3, 3300, Note_on_c, 1, 65, 80
3, 3352, Note_on_c, 1, 65, 0
3, 3360, Note_on_c, 1, 64, 80
3, 3465, Note_on_c, 1, 64, 0
3, 3480, Note_on_c, 1, 62, 80
3, 3585, Note_on_c, 1, 62, 0
3, 3600, Note_on_c, 1, 65, 80
3, 3705, Note_on_c, 1, 65, 0
3, 3720, Note_on_c, 1, 58, 80
3, 3825, Note_on_c, 1, 58, 0
3, 4080, Note_on_c, 1, 61, 80
3, 4185, Note_on_c, 1, 61, 0
3, 4200, Note_on_c, 1, 60, 99
3, 4305, Note_on_c, 1, 60, 0
3, 4560, Note_on_c, 1, 61, 80
3, 4665, Note_on_c, 1, 61, 0
3, 4680, Note_on_c, 1, 60, 101
3, 4785, Note_on_c, 1, 60, 0
3, 5040, Note_on_c, 1, 61, 80
3, 5145, Note_on_c, 1, 61, 0
3, 5160, Note_on_c, 1, 60, 99
3, 5265, Note_on_c, 1, 60, 0
3, 5520, Note_on_c, 1, 61, 80
3, 5625, Note_on_c, 1, 61, 0
3, 5640, Note_on_c, 1, 60, 99
3, 5745, Note_on_c, 1, 60, 0
3, 6000, Note_on_c, 1, 56, 80
3, 6105, Note_on_c, 1, 56, 0
3, 6120, Note_on_c, 1, 55, 100
3, 6225, Note_on_c, 1, 55, 0
3, 6480, Note_on_c, 1, 49, 80
3, 6585, Note_on_c, 1, 49, 0
3, 6600, Note_on_c, 1, 48, 99
3, 6705, Note_on_c, 1, 48, 0
3, 6960, Note_on_c, 1, 59, 80
3, 7065, Note_on_c, 1, 59, 0
3, 7080, Note_on_c, 1, 60, 80
3, 7185, Note_on_c, 1, 60, 0
3, 7200, Note_on_c, 1, 48, 80
3, 7305, Note_on_c, 1, 48, 0
3, 7320, Note_on_c, 1, 41, 80
3, 7425, Note_on_c, 1, 41, 0
3, 7900, Program_c, 1, 11
3, 7903, Control_c, 1, 10, 20
3, 7920, Note_on_c, 1, 58, 80
3, 8025, Note_on_c, 1, 58, 0
3, 8040, Note_on_c, 1, 46, 80
3, 8145, Note_on_c, 1, 46, 0
3, 8400, Note_on_c, 1, 68, 80
3, 8505, Note_on_c, 1, 68, 0
3, 8520, Note_on_c, 1, 67, 80
3, 8625, Note_on_c, 1, 67, 0
3, 8880, Note_on_c, 1, 66, 80
3, 8985, Note_on_c, 1, 66, 0
3, 9000, Note_on_c, 1, 65, 80
3, 9105, Note_on_c, 1, 65, 0
3, 9360, Note_on_c, 1, 58, 80
3, 9465, Note_on_c, 1, 58, 0
3, 9480, Note_on_c, 1, 46, 80
3, 9585, Note_on_c, 1, 46, 0
3, 9840, Note_on_c, 1, 69, 80
3, 9945, Note_on_c, 1, 69, 0
3, 9960, Note_on_c, 1, 67, 80
3, 9973, Note_on_c, 1, 67, 0
3, 9975, Note_on_c, 1, 69, 80
3, 9988, Note_on_c, 1, 69, 0
3, 9990, Note_on_c, 1, 67, 80
3, 10003, Note_on_c, 1, 67, 0
3, 10005, Note_on_c, 1, 69, 80
3, 10018, Note_on_c, 1, 69, 0
3, 10020, Note_on_c, 1, 67, 80
3, 10072, Note_on_c, 1, 67, 0
3, 10080, Note_on_c, 1, 65, 80
3, 10185, Note_on_c, 1, 65, 0
3, 10200, Note_on_c, 1, 64, 80
3, 10305, Note_on_c, 1, 64, 0
3, 10320, Note_on_c, 1, 67, 80
3, 10425, Note_on_c, 1, 67, 0
3, 10440, Note_on_c, 1, 60, 80
3, 10545, Note_on_c, 1, 60, 0
3, 10800, Note_on_c, 1, 67, 80
3, 10905, Note_on_c, 1, 67, 0
3, 10920, Note_on_c, 1, 65, 80
3, 10933, Note_on_c, 1, 65, 0
3, 10935, Note_on_c, 1, 67, 80
3, 10948, Note_on_c, 1, 67, 0
3, 10950, Note_on_c, 1, 65, 80
3, 10963, Note_on_c, 1, 65, 0
3, 10965, Note_on_c, 1, 67, 80
3, 10978, Note_on_c, 1, 67, 0
3, 10980, Note_on_c, 1, 65, 80
3, 11032, Note_on_c, 1, 65, 0
3, 11040, Note_on_c, 1, 64, 80
3, 11145, Note_on_c, 1, 64, 0
3, 11160, Note_on_c, 1, 62, 80
3, 11265, Note_on_c, 1, 62, 0
3, 11280, Note_on_c, 1, 65, 80
3, 11385, Note_on_c, 1, 65, 0
3, 11400, Note_on_c, 1, 58, 80
3, 11505, Note_on_c, 1, 58, 0
3, 11760, Note_on_c, 1, 61, 80
3, 11865, Note_on_c, 1, 61, 0
3, 11880, Note_on_c, 1, 60, 99
3, 11985, Note_on_c, 1, 60, 0
3, 12240, Note_on_c, 1, 61, 80
3, 12345, Note_on_c, 1, 61, 0
3, 12360, Note_on_c, 1, 60, 101
3, 12465, Note_on_c, 1, 60, 0
3, 12720, Note_on_c, 1, 61, 80
3, 12825, Note_on_c, 1, 61, 0
3, 12840, Note_on_c, 1, 60, 101
3, 12945, Note_on_c, 1, 60, 0
3, 13200, Note_on_c, 1, 61, 80
3, 13305, Note_on_c, 1, 61, 0
3, 13320, Note_on_c, 1, 60, 100
3, 13425, Note_on_c, 1, 60, 0
3, 13680, Note_on_c, 1, 56, 80
3, 13785, Note_on_c, 1, 56, 0
3, 13800, Note_on_c, 1, 55, 100
3, 13905, Note_on_c, 1, 55, 0
3, 14160, Note_on_c, 1, 49, 80
3, 14265, Note_on_c, 1, 49, 0
3, 14280, Note_on_c, 1, 48, 100
3, 14385, Note_on_c, 1, 48, 0
3, 14640, Note_on_c, 1, 59, 80
3, 14745, Note_on_c, 1, 59, 0
3, 14760, Note_on_c, 1, 60, 80
3, 14865, Note_on_c, 1, 60, 0
3, 14880, Note_on_c, 1, 48, 80
3, 14985, Note_on_c, 1, 48, 0
3, 15000, Note_on_c, 1, 41, 80
3, 15105, Note_on_c, 1, 41, 0
3, 15580, Program_c, 1, 1
3, 15590, Control_c, 1, 10, 100
3, 15600, Note_on_c, 1, 63, 80
3, 15705, Note_on_c, 1, 63, 0
3, 15720, Note_on_c, 1, 53, 80
3, 15825, Note_on_c, 1, 53, 0
3, 16080, Note_on_c, 1, 68, 80
3, 16185, Note_on_c, 1, 68, 0
3, 16200, Note_on_c, 1, 58, 80
3, 16305, Note_on_c, 1, 58, 0
3, 16560, Note_on_c, 1, 70, 80
3, 16665, Note_on_c, 1, 70, 0
3, 16680, Note_on_c, 1, 69, 80
3, 16785, Note_on_c, 1, 69, 0
3, 17040, Note_on_c, 1, 67, 80
3, 17145, Note_on_c, 1, 67, 0
3, 17160, Note_on_c, 1, 69, 80
3, 17265, Note_on_c, 1, 69, 0
3, 17520, Note_on_c, 1, 63, 80
3, 17625, Note_on_c, 1, 63, 0
3, 17640, Note_on_c, 1, 62, 99
3, 17745, Note_on_c, 1, 62, 0
3, 18000, Note_on_c, 1, 63, 80
3, 18105, Note_on_c, 1, 63, 0
3, 18120, Note_on_c, 1, 62, 99
3, 18225, Note_on_c, 1, 62, 0
3, 18480, Note_on_c, 1, 63, 80
3, 18585, Note_on_c, 1, 63, 0
3, 18600, Note_on_c, 1, 62, 100
3, 18705, Note_on_c, 1, 62, 0
3, 18960, Note_on_c, 1, 63, 80
3, 19065, Note_on_c, 1, 63, 0
3, 19080, Note_on_c, 1, 62, 99
3, 19185, Note_on_c, 1, 62, 0
3, 19920, Note_on_c, 1, 67, 80
3, 20025, Note_on_c, 1, 67, 0
3, 20040, Note_on_c, 1, 66, 80
3, 20145, Note_on_c, 1, 66, 0
3, 20160, Note_on_c, 1, 63, 80
3, 20265, Note_on_c, 1, 63, 0
3, 20280, Note_on_c, 1, 62, 80
3, 20385, Note_on_c, 1, 62, 0
3, 20400, Note_on_c, 1, 61, 80
3, 20505, Note_on_c, 1, 61, 0
3, 20520, Note_on_c, 1, 62, 80
3, 20625, Note_on_c, 1, 62, 0
3, 20640, Note_on_c, 1, 50, 80
3, 20745, Note_on_c, 1, 50, 0
3, 20760, Note_on_c, 1, 43, 80
3, 20865, Note_on_c, 1, 43, 0
3, 20880, Note_on_c, 1, 50, 80
3, 20985, Note_on_c, 1, 50, 0
3, 21000, Note_on_c, 1, 55, 80
3, 21105, Note_on_c, 1, 55, 0
3, 21120, Note_on_c, 1, 58, 80
3, 21225, Note_on_c, 1, 58, 0
3, 21240, Note_on_c, 1, 62, 80
3, 21345, Note_on_c, 1, 62, 0
3, 21360, Note_on_c, 1, 65, 80
3, 21465, Note_on_c, 1, 65, 0
3, 21720, Note_on_c, 1, 63, 80
3, 21825, Note_on_c, 1, 63, 0
3, 22080, Note_on_c, 1, 62, 80
3, 22185, Note_on_c, 1, 62, 0
3, 22200, Note_on_c, 1, 60, 80
3, 22305, Note_on_c, 1, 60, 0
3, 22320, Note_on_c, 1, 65, 80
3, 22425, Note_on_c, 1, 65, 0
3, 22440, Note_on_c, 1, 58, 80
3, 22545, Note_on_c, 1, 58, 0
3, 22800, Note_on_c, 1, 65, 80
3, 22905, Note_on_c, 1, 65, 0
3, 23040, Note_on_c, 1, 65, 80
3, 23145, Note_on_c, 1, 65, 0
3, 23280, Note_on_c, 1, 65, 80
3, 23385, Note_on_c, 1, 65, 0
3, 23520, Note_on_c, 1, 65, 80
3, 23625, Note_on_c, 1, 65, 0
3, 23760, Note_on_c, 1, 65, 80
3, 23865, Note_on_c, 1, 65, 0
3, 24000, Note_on_c, 1, 65, 80
3, 24105, Note_on_c, 1, 65, 0
3, 24240, Note_on_c, 1, 64, 80
3, 24345, Note_on_c, 1, 64, 0
3, 24480, Note_on_c, 1, 64, 80
3, 24585, Note_on_c, 1, 64, 0
3, 24720, Note_on_c, 1, 63, 80
3, 24825, Note_on_c, 1, 63, 0
3, 24960, Note_on_c, 1, 63, 80
3, 25065, Note_on_c, 1, 63, 0
3, 25200, Note_on_c, 1, 62, 80
3, 25305, Note_on_c, 1, 62, 0
3, 25440, Note_on_c, 1, 62, 80
3, 25545, Note_on_c, 1, 62, 0
3, 25680, Note_on_c, 1, 61, 80
3, 25785, Note_on_c, 1, 61, 0
3, 25920, Note_on_c, 1, 61, 80
3, 26025, Note_on_c, 1, 61, 0
3, 26160, Note_on_c, 1, 60, 80
3, 26265, Note_on_c, 1, 60, 0
3, 26400, Note_on_c, 1, 60, 80
3, 26505, Note_on_c, 1, 60, 0
3, 26640, Note_on_c, 1, 58, 80
3, 26745, Note_on_c, 1, 58, 0
3, 26880, Note_on_c, 1, 58, 80
3, 26985, Note_on_c, 1, 58, 0
3, 27120, Note_on_c, 1, 54, 80
3, 27225, Note_on_c, 1, 54, 0
3, 27240, Note_on_c, 1, 53, 102
3, 27345, Note_on_c, 1, 53, 0
3, 27600, Note_on_c, 1, 54, 80
3, 27705, Note_on_c, 1, 54, 0
3, 27720, Note_on_c, 1, 53, 99
3, 27825, Note_on_c, 1, 53, 0
3, 28080, Note_on_c, 1, 54, 80
3, 28185, Note_on_c, 1, 54, 0
3, 28200, Note_on_c, 1, 53, 101
3, 28305, Note_on_c, 1, 53, 0
3, 28560, Note_on_c, 1, 54, 80
3, 28665, Note_on_c, 1, 54, 0
3, 28680, Note_on_c, 1, 53, 99
3, 28785, Note_on_c, 1, 53, 0
3, 29040, Note_on_c, 1, 49, 80
3, 29145, Note_on_c, 1, 49, 0
3, 29160, Note_on_c, 1, 48, 99
3, 29265, Note_on_c, 1, 48, 0
3, 29520, Note_on_c, 1, 42, 80
3, 29625, Note_on_c, 1, 42, 0
3, 29640, Note_on_c, 1, 41, 100
3, 29745, Note_on_c, 1, 41, 0
3, 30000, Note_on_c, 1, 52, 80
3, 30105, Note_on_c, 1, 52, 0
3, 30120, Note_on_c, 1, 53, 80
3, 30225, Note_on_c, 1, 53, 0
3, 30240, Note_on_c, 1, 41, 80
3, 30345, Note_on_c, 1, 41, 0
3, 30360, Note_on_c, 1, 46, 80
3, 30465, Note_on_c, 1, 46, 0
3, 30940, Program_c, 1, 11
3, 30950, Control_c, 1, 10, 20
3, 30960, Note_on_c, 1, 63, 80
3, 31065, Note_on_c, 1, 63, 0
3, 31080, Note_on_c, 1, 53, 80
3, 31185, Note_on_c, 1, 53, 0
3, 31440, Note_on_c, 1, 68, 80
3, 31545, Note_on_c, 1, 68, 0
3, 31560, Note_on_c, 1, 58, 80
3, 31665, Note_on_c, 1, 58, 0
3, 31920, Note_on_c, 1, 70, 80
3, 32025, Note_on_c, 1, 70, 0
3, 32040, Note_on_c, 1, 69, 80
3, 32145, Note_on_c, 1, 69, 0
3, 32400, Note_on_c, 1, 67, 80
3, 32505, Note_on_c, 1, 67, 0
3, 32520, Note_on_c, 1, 69, 80
3, 32625, Note_on_c, 1, 69, 0
3, 32880, Note_on_c, 1, 63, 80
3, 32985, Note_on_c, 1, 63, 0
3, 33000, Note_on_c, 1, 62, 99
3, 33105, Note_on_c, 1, 62, 0
3, 33360, Note_on_c, 1, 63, 80
3, 33465, Note_on_c, 1, 63, 0
3, 33480, Note_on_c, 1, 62, 99
3, 33585, Note_on_c, 1, 62, 0
3, 33840, Note_on_c, 1, 63, 80
3, 33945, Note_on_c, 1, 63, 0
3, 33960, Note_on_c, 1, 62, 100
3, 34065, Note_on_c, 1, 62, 0
3, 34320, Note_on_c, 1, 63, 80
3, 34425, Note_on_c, 1, 63, 0
3, 34440, Note_on_c, 1, 62, 100
3, 34545, Note_on_c, 1, 62, 0
3, 35280, Note_on_c, 1, 67, 80
3, 35385, Note_on_c, 1, 67, 0
3, 35400, Note_on_c, 1, 66, 80
3, 35505, Note_on_c, 1, 66, 0
3, 35520, Note_on_c, 1, 63, 80
3, 35625, Note_on_c, 1, 63, 0
3, 35640, Note_on_c, 1, 62, 80
3, 35745, Note_on_c, 1, 62, 0
3, 35760, Note_on_c, 1, 61, 80
3, 35865, Note_on_c, 1, 61, 0
3, 35880, Note_on_c, 1, 62, 80
3, 35985, Note_on_c, 1, 62, 0
3, 36000, Note_on_c, 1, 50, 80
3, 36105, Note_on_c, 1, 50, 0
3, 36120, Note_on_c, 1, 43, 80
3, 36225, Note_on_c, 1, 43, 0
3, 36240, Note_on_c, 1, 50, 80
3, 36345, Note_on_c, 1, 50, 0
3, 36360, Note_on_c, 1, 55, 80
3, 36465, Note_on_c, 1, 55, 0
3, 36480, Note_on_c, 1, 58, 80
3, 36585, Note_on_c, 1, 58, 0
3, 36600, Note_on_c, 1, 62, 80
3, 36705, Note_on_c, 1, 62, 0
3, 36720, Note_on_c, 1, 65, 80
3, 36825, Note_on_c, 1, 65, 0
3, 37080, Note_on_c, 1, 63, 80
3, 37185, Note_on_c, 1, 63, 0
3, 37440, Note_on_c, 1, 62, 80
3, 37545, Note_on_c, 1, 62, 0
3, 37560, Note_on_c, 1, 60, 80
3, 37665, Note_on_c, 1, 60, 0
3, 37680, Note_on_c, 1, 65, 80
3, 37785, Note_on_c, 1, 65, 0
3, 37800, Note_on_c, 1, 58, 80
3, 37905, Note_on_c, 1, 58, 0
3, 38160, Note_on_c, 1, 65, 80
3, 38265, Note_on_c, 1, 65, 0
3, 38400, Note_on_c, 1, 65, 80
3, 38505, Note_on_c, 1, 65, 0
3, 38640, Note_on_c, 1, 65, 80
3, 38745, Note_on_c, 1, 65, 0
3, 38880, Note_on_c, 1, 65, 80
3, 38985, Note_on_c, 1, 65, 0
3, 39120, Note_on_c, 1, 65, 80
3, 39225, Note_on_c, 1, 65, 0
3, 39360, Note_on_c, 1, 65, 80
3, 39465, Note_on_c, 1, 65, 0
3, 39600, Note_on_c, 1, 64, 80
3, 39705, Note_on_c, 1, 64, 0
3, 39840, Note_on_c, 1, 64, 80
3, 39945, Note_on_c, 1, 64, 0
3, 40080, Note_on_c, 1, 63, 80
3, 40185, Note_on_c, 1, 63, 0
3, 40320, Note_on_c, 1, 63, 80
3, 40425, Note_on_c, 1, 63, 0
3, 40560, Note_on_c, 1, 62, 80
3, 40665, Note_on_c, 1, 62, 0
3, 40800, Note_on_c, 1, 62, 80
3, 40905, Note_on_c, 1, 62, 0
3, 41040, Note_on_c, 1, 61, 80
3, 41145, Note_on_c, 1, 61, 0
3, 41280, Note_on_c, 1, 61, 80
3, 41385, Note_on_c, 1, 61, 0
3, 41520, Note_on_c, 1, 60, 80
3, 41625, Note_on_c, 1, 60, 0
3, 41760, Note_on_c, 1, 60, 80
3, 41865, Note_on_c, 1, 60, 0
3, 42000, Note_on_c, 1, 58, 80
3, 42105, Note_on_c, 1, 58, 0
3, 42240, Note_on_c, 1, 58, 80
3, 42345, Note_on_c, 1, 58, 0
3, 42480, Note_on_c, 1, 54, 80
3, 42585, Note_on_c, 1, 54, 0
3, 42600, Note_on_c, 1, 53, 99
3, 42705, Note_on_c, 1, 53, 0
3, 42960, Note_on_c, 1, 54, 80
3, 43065, Note_on_c, 1, 54, 0
3, 43080, Note_on_c, 1, 53, 99
3, 43185, Note_on_c, 1, 53, 0
3, 43440, Note_on_c, 1, 54, 80
3, 43545, Note_on_c, 1, 54, 0
3, 43560, Note_on_c, 1, 53, 101
3, 43665, Note_on_c, 1, 53, 0
3, 43920, Note_on_c, 1, 54, 80
3, 44025, Note_on_c, 1, 54, 0
3, 44040, Note_on_c, 1, 53, 100
3, 44145, Note_on_c, 1, 53, 0
3, 44400, Note_on_c, 1, 49, 80
3, 44505, Note_on_c, 1, 49, 0
3, 44520, Note_on_c, 1, 48, 98
3, 44625, Note_on_c, 1, 48, 0
3, 44880, Note_on_c, 1, 42, 80
3, 44985, Note_on_c, 1, 42, 0
3, 45000, Note_on_c, 1, 41, 99
3, 45105, Note_on_c, 1, 41, 0
3, 45360, Note_on_c, 1, 52, 80
3, 45465, Note_on_c, 1, 52, 0
3, 45480, Note_on_c, 1, 53, 80
3, 45585, Note_on_c, 1, 53, 0
3, 45600, Note_on_c, 1, 41, 80
3, 45705, Note_on_c, 1, 41, 0
3, 45720, Note_on_c, 1, 46, 80
3, 45825, Note_on_c, 1, 46, 0
3, 45825, End_track
4, 0, Start_track
4, 0, MIDI_port, 0
4, 0, Program_c, 2, 0
4, 0, Control_c, 2, 7, 100
4, 0, Control_c, 2, 10, 64
4, 130, Control_c, 2, 10, 64
4, 140, Control_c, 2, 7, 100
4, 150, Program_c, 2, 0
4, 159, Note_on_c, 2, 62, 80
4, 195, Note_on_c, 2, 62, 0
4, 199, Note_on_c, 2, 70, 80
4, 234, Note_on_c, 2, 70, 0
4, 279, Note_on_c, 2, 62, 80
4, 315, Note_on_c, 2, 62, 0
4, 319, Note_on_c, 2, 70, 80
4, 354, Note_on_c, 2, 70, 0
4, 399, Note_on_c, 2, 62, 80
4, 435, Note_on_c, 2, 62, 0
4, 439, Note_on_c, 2, 70, 80
4, 474, Note_on_c, 2, 70, 0
4, 519, Note_on_c, 2, 62, 80
4, 555, Note_on_c, 2, 62, 0
4, 559, Note_on_c, 2, 70, 80
4, 594, Note_on_c, 2, 70, 0
4, 639, Note_on_c, 2, 63, 80
4, 675, Note_on_c, 2, 63, 0
4, 679, Note_on_c, 2, 70, 80
4, 714, Note_on_c, 2, 70, 0
4, 759, Note_on_c, 2, 63, 80
4, 795, Note_on_c, 2, 63, 0
4, 799, Note_on_c, 2, 70, 80
4, 834, Note_on_c, 2, 70, 0
4, 879, Note_on_c, 2, 63, 80
4, 915, Note_on_c, 2, 63, 0
4, 919, Note_on_c, 2, 70, 80
4, 954, Note_on_c, 2, 70, 0
4, 999, Note_on_c, 2, 63, 80
4, 1035, Note_on_c, 2, 63, 0
4, 1039, Note_on_c, 2, 70, 80
4, 1074, Note_on_c, 2, 70, 0
4, 1119, Note_on_c, 2, 63, 80
4, 1155, Note_on_c, 2, 63, 0
4, 1159, Note_on_c, 2, 69, 80
4, 1194, Note_on_c, 2, 69, 0
4, 1239, Note_on_c, 2, 63, 80
4, 1275, Note_on_c, 2, 63, 0
4, 1279, Note_on_c, 2, 69, 80
4, 1314, Note_on_c, 2, 69, 0
4, 1359, Note_on_c, 2, 63, 80
4, 1395, Note_on_c, 2, 63, 0
4, 1399, Note_on_c, 2, 69, 80
4, 1434, Note_on_c, 2, 69, 0
4, 1479, Note_on_c, 2, 63, 80
4, 1515, Note_on_c, 2, 63, 0
4, 1519, Note_on_c, 2, 69, 80
4, 1554, Note_on_c, 2, 69, 0
4, 1599, Note_on_c, 2, 65, 80
4, 1635, Note_on_c, 2, 65, 0
4, 1639, Note_on_c, 2, 70, 80
4, 1674, Note_on_c, 2, 70, 0
4, 1719, Note_on_c, 2, 65, 80
4, 1755, Note_on_c, 2, 65, 0
4, 1759, Note_on_c, 2, 70, 80
4, 1794, Note_on_c, 2, 70, 0
4, 1839, Note_on_c, 2, 65, 80
4, 1875, Note_on_c, 2, 65, 0
4, 1879, Note_on_c, 2, 70, 80
4, 1914, Note_on_c, 2, 70, 0
4, 1959, Note_on_c, 2, 65, 80
4, 1995, Note_on_c, 2, 65, 0
4, 1999, Note_on_c, 2, 70, 80
4, 2034, Note_on_c, 2, 70, 0
4, 2079, Note_on_c, 2, 70, 80
4, 2115, Note_on_c, 2, 70, 0
4, 2119, Note_on_c, 2, 74, 80
4, 2154, Note_on_c, 2, 74, 0
4, 2199, Note_on_c, 2, 70, 80
4, 2235, Note_on_c, 2, 70, 0
4, 2239, Note_on_c, 2, 74, 80
4, 2274, Note_on_c, 2, 74, 0
4, 2319, Note_on_c, 2, 70, 80
4, 2355, Note_on_c, 2, 70, 0
4, 2359, Note_on_c, 2, 74, 80
4, 2394, Note_on_c, 2, 74, 0
4, 2439, Note_on_c, 2, 70, 80
4, 2475, Note_on_c, 2, 70, 0
4, 2479, Note_on_c, 2, 74, 80
4, 2514, Note_on_c, 2, 74, 0
4, 2559, Note_on_c, 2, 70, 80
4, 2595, Note_on_c, 2, 70, 0
4, 2599, Note_on_c, 2, 72, 80
4, 2634, Note_on_c, 2, 72, 0
4, 2679, Note_on_c, 2, 70, 80
4, 2715, Note_on_c, 2, 70, 0
4, 2719, Note_on_c, 2, 72, 80
4, 2754, Note_on_c, 2, 72, 0
4, 2799, Note_on_c, 2, 70, 80
4, 2835, Note_on_c, 2, 70, 0
4, 2839, Note_on_c, 2, 72, 80
4, 2874, Note_on_c, 2, 72, 0
4, 2919, Note_on_c, 2, 70, 80
4, 2955, Note_on_c, 2, 70, 0
4, 2959, Note_on_c, 2, 72, 80
4, 2994, Note_on_c, 2, 72, 0
4, 3039, Note_on_c, 2, 69, 80
4, 3075, Note_on_c, 2, 69, 0
4, 3079, Note_on_c, 2, 72, 80
4, 3114, Note_on_c, 2, 72, 0
4, 3159, Note_on_c, 2, 69, 80
4, 3195, Note_on_c, 2, 69, 0
4, 3199, Note_on_c, 2, 72, 80
4, 3234, Note_on_c, 2, 72, 0
4, 3279, Note_on_c, 2, 69, 80
4, 3315, Note_on_c, 2, 69, 0
4, 3319, Note_on_c, 2, 72, 80
4, 3354, Note_on_c, 2, 72, 0
4, 3399, Note_on_c, 2, 69, 80
4, 3435, Note_on_c, 2, 69, 0
4, 3439, Note_on_c, 2, 72, 80
4, 3474, Note_on_c, 2, 72, 0
4, 3519, Note_on_c, 2, 69, 80
4, 3555, Note_on_c, 2, 69, 0
4, 3559, Note_on_c, 2, 70, 80
4, 3594, Note_on_c, 2, 70, 0
4, 3639, Note_on_c, 2, 69, 80
4, 3675, Note_on_c, 2, 69, 0
4, 3679, Note_on_c, 2, 70, 80
4, 3714, Note_on_c, 2, 70, 0
4, 3759, Note_on_c, 2, 69, 80
4, 3795, Note_on_c, 2, 69, 0
4, 3799, Note_on_c, 2, 70, 80
4, 3834, Note_on_c, 2, 70, 0
4, 3879, Note_on_c, 2, 69, 80
4, 3915, Note_on_c, 2, 69, 0
4, 3919, Note_on_c, 2, 70, 80
4, 3954, Note_on_c, 2, 70, 0
4, 3999, Note_on_c, 2, 67, 80
4, 4035, Note_on_c, 2, 67, 0
4, 4039, Note_on_c, 2, 70, 80
4, 4074, Note_on_c, 2, 70, 0
4, 4119, Note_on_c, 2, 67, 80
4, 4155, Note_on_c, 2, 67, 0
4, 4159, Note_on_c, 2, 70, 80
4, 4194, Note_on_c, 2, 70, 0
4, 4239, Note_on_c, 2, 67, 80
4, 4275, Note_on_c, 2, 67, 0
4, 4279, Note_on_c, 2, 70, 80
4, 4314, Note_on_c, 2, 70, 0
4, 4359, Note_on_c, 2, 67, 80
4, 4395, Note_on_c, 2, 67, 0
4, 4399, Note_on_c, 2, 70, 80
4, 4434, Note_on_c, 2, 70, 0
4, 4479, Note_on_c, 2, 65, 80
4, 4515, Note_on_c, 2, 65, 0
4, 4519, Note_on_c, 2, 68, 80
4, 4554, Note_on_c, 2, 68, 0
4, 4599, Note_on_c, 2, 65, 80
4, 4635, Note_on_c, 2, 65, 0
4, 4639, Note_on_c, 2, 68, 80
4, 4674, Note_on_c, 2, 68, 0
4, 4719, Note_on_c, 2, 65, 80
4, 4755, Note_on_c, 2, 65, 0
4, 4759, Note_on_c, 2, 68, 80
4, 4794, Note_on_c, 2, 68, 0
4, 4839, Note_on_c, 2, 65, 80
4, 4875, Note_on_c, 2, 65, 0
4, 4879, Note_on_c, 2, 68, 80
4, 4914, Note_on_c, 2, 68, 0
4, 4959, Note_on_c, 2, 64, 80
4, 4995, Note_on_c, 2, 64, 0
4, 4999, Note_on_c, 2, 67, 80
4, 5034, Note_on_c, 2, 67, 0
4, 5079, Note_on_c, 2, 64, 80
4, 5115, Note_on_c, 2, 64, 0
4, 5119, Note_on_c, 2, 67, 80
4, 5154, Note_on_c, 2, 67, 0
4, 5199, Note_on_c, 2, 64, 80
4, 5235, Note_on_c, 2, 64, 0
4, 5239, Note_on_c, 2, 67, 80
4, 5274, Note_on_c, 2, 67, 0
4, 5319, Note_on_c, 2, 64, 80
4, 5355, Note_on_c, 2, 64, 0
4, 5359, Note_on_c, 2, 67, 80
4, 5394, Note_on_c, 2, 67, 0
4, 5439, Note_on_c, 2, 64, 80
4, 5475, Note_on_c, 2, 64, 0
4, 5479, Note_on_c, 2, 65, 80
4, 5514, Note_on_c, 2, 65, 0
4, 5559, Note_on_c, 2, 64, 80
4, 5595, Note_on_c, 2, 64, 0
4, 5599, Note_on_c, 2, 65, 80
4, 5634, Note_on_c, 2, 65, 0
4, 5679, Note_on_c, 2, 64, 80
4, 5715, Note_on_c, 2, 64, 0
4, 5719, Note_on_c, 2, 65, 80
4, 5754, Note_on_c, 2, 65, 0
4, 5799, Note_on_c, 2, 64, 80
4, 5835, Note_on_c, 2, 64, 0
4, 5839, Note_on_c, 2, 65, 80
4, 5874, Note_on_c, 2, 65, 0
4, 5919, Note_on_c, 2, 62, 80
4, 5955, Note_on_c, 2, 62, 0
4, 5959, Note_on_c, 2, 65, 80
4, 5994, Note_on_c, 2, 65, 0
4, 6039, Note_on_c, 2, 62, 80
4, 6075, Note_on_c, 2, 62, 0
4, 6079, Note_on_c, 2, 65, 80
4, 6114, Note_on_c, 2, 65, 0
4, 6159, Note_on_c, 2, 62, 80
4, 6195, Note_on_c, 2, 62, 0
4, 6199, Note_on_c, 2, 65, 80
4, 6234, Note_on_c, 2, 65, 0
4, 6279, Note_on_c, 2, 62, 80
4, 6315, Note_on_c, 2, 62, 0
4, 6319, Note_on_c, 2, 65, 80
4, 6354, Note_on_c, 2, 65, 0
4, 6399, Note_on_c, 2, 64, 80
4, 6435, Note_on_c, 2, 64, 0
4, 6439, Note_on_c, 2, 67, 80
4, 6474, Note_on_c, 2, 67, 0
4, 6519, Note_on_c, 2, 64, 80
4, 6555, Note_on_c, 2, 64, 0
4, 6559, Note_on_c, 2, 67, 80
4, 6594, Note_on_c, 2, 67, 0
4, 6639, Note_on_c, 2, 64, 80
4, 6675, Note_on_c, 2, 64, 0
4, 6679, Note_on_c, 2, 67, 80
4, 6714, Note_on_c, 2, 67, 0
4, 6759, Note_on_c, 2, 64, 80
4, 6795, Note_on_c, 2, 64, 0
4, 6799, Note_on_c, 2, 67, 80
4, 6834, Note_on_c, 2, 67, 0
4, 6879, Note_on_c, 2, 64, 80
4, 6915, Note_on_c, 2, 64, 0
4, 6919, Note_on_c, 2, 65, 80
4, 6954, Note_on_c, 2, 65, 0
4, 6999, Note_on_c, 2, 64, 80
4, 7035, Note_on_c, 2, 64, 0
4, 7039, Note_on_c, 2, 65, 80
4, 7074, Note_on_c, 2, 65, 0
4, 7119, Note_on_c, 2, 64, 80
4, 7155, Note_on_c, 2, 64, 0
4, 7159, Note_on_c, 2, 65, 80
4, 7194, Note_on_c, 2, 65, 0
4, 7239, Note_on_c, 2, 64, 80
4, 7275, Note_on_c, 2, 64, 0
4, 7279, Note_on_c, 2, 65, 80
4, 7314, Note_on_c, 2, 65, 0
4, 7359, Note_on_c, 2, 57, 80
4, 7395, Note_on_c, 2, 57, 0
4, 7399, Note_on_c, 2, 60, 80
4, 7434, Note_on_c, 2, 60, 0
4, 7479, Note_on_c, 2, 69, 80
4, 7515, Note_on_c, 2, 69, 0
4, 7519, Note_on_c, 2, 72, 80
4, 7554, Note_on_c, 2, 72, 0
4, 7839, Note_on_c, 2, 62, 80
4, 7875, Note_on_c, 2, 62, 0
4, 7879, Note_on_c, 2, 70, 80
4, 7914, Note_on_c, 2, 70, 0
4, 7950, Program_c, 2, 2
4, 7959, Note_on_c, 2, 62, 80
4, 7995, Note_on_c, 2, 62, 0
4, 7999, Note_on_c, 2, 70, 80
4, 8034, Note_on_c, 2, 70, 0
4, 8079, Note_on_c, 2, 62, 80
4, 8115, Note_on_c, 2, 62, 0
4, 8119, Note_on_c, 2, 70, 80
4, 8154, Note_on_c, 2, 70, 0
4, 8199, Note_on_c, 2, 62, 80
4, 8235, Note_on_c, 2, 62, 0
4, 8239, Note_on_c, 2, 70, 80
4, 8274, Note_on_c, 2, 70, 0
4, 8319, Note_on_c, 2, 63, 80
4, 8355, Note_on_c, 2, 63, 0
4, 8359, Note_on_c, 2, 70, 80
4, 8394, Note_on_c, 2, 70, 0
4, 8439, Note_on_c, 2, 63, 80
4, 8475, Note_on_c, 2, 63, 0
4, 8479, Note_on_c, 2, 70, 80
4, 8514, Note_on_c, 2, 70, 0
4, 8559, Note_on_c, 2, 63, 80
4, 8595, Note_on_c, 2, 63, 0
4, 8599, Note_on_c, 2, 70, 80
4, 8634, Note_on_c, 2, 70, 0
4, 8679, Note_on_c, 2, 63, 80
4, 8715, Note_on_c, 2, 63, 0
4, 8719, Note_on_c, 2, 70, 80
4, 8754, Note_on_c, 2, 70, 0
4, 8799, Note_on_c, 2, 63, 80
4, 8835, Note_on_c, 2, 63, 0
4, 8839, Note_on_c, 2, 69, 80
4, 8874, Note_on_c, 2, 69, 0
4, 8919, Note_on_c, 2, 63, 80
4, 8955, Note_on_c, 2, 63, 0
4, 8959, Note_on_c, 2, 69, 80
4, 8994, Note_on_c, 2, 69, 0
4, 9039, Note_on_c, 2, 63, 80
4, 9075, Note_on_c, 2, 63, 0
4, 9079, Note_on_c, 2, 69, 80
4, 9114, Note_on_c, 2, 69, 0
4, 9159, Note_on_c, 2, 63, 80
4, 9195, Note_on_c, 2, 63, 0
4, 9199, Note_on_c, 2, 69, 80
4, 9234, Note_on_c, 2, 69, 0
4, 9279, Note_on_c, 2, 65, 80
4, 9315, Note_on_c, 2, 65, 0
4, 9319, Note_on_c, 2, 70, 80
4, 9354, Note_on_c, 2, 70, 0
4, 9399, Note_on_c, 2, 65, 80
4, 9435, Note_on_c, 2, 65, 0
4, 9439, Note_on_c, 2, 70, 80
4, 9474, Note_on_c, 2, 70, 0
4, 9519, Note_on_c, 2, 65, 80
4, 9555, Note_on_c, 2, 65, 0
4, 9559, Note_on_c, 2, 70, 80
4, 9594, Note_on_c, 2, 70, 0
4, 9639, Note_on_c, 2, 65, 80
4, 9675, Note_on_c, 2, 65, 0
4, 9679, Note_on_c, 2, 70, 80
4, 9714, Note_on_c, 2, 70, 0
4, 9759, Note_on_c, 2, 70, 80
4, 9795, Note_on_c, 2, 70, 0
4, 9799, Note_on_c, 2, 74, 80
4, 9834, Note_on_c, 2, 74, 0
4, 9879, Note_on_c, 2, 70, 80
4, 9915, Note_on_c, 2, 70, 0
4, 9919, Note_on_c, 2, 74, 80
4, 9954, Note_on_c, 2, 74, 0
4, 9999, Note_on_c, 2, 70, 80
4, 10035, Note_on_c, 2, 70, 0
4, 10039, Note_on_c, 2, 74, 80
4, 10074, Note_on_c, 2, 74, 0
4, 10119, Note_on_c, 2, 70, 80
4, 10155, Note_on_c, 2, 70, 0
4, 10159, Note_on_c, 2, 74, 80
4, 10194, Note_on_c, 2, 74, 0
4, 10239, Note_on_c, 2, 70, 80
4, 10275, Note_on_c, 2, 70, 0
4, 10279, Note_on_c, 2, 72, 80
4, 10314, Note_on_c, 2, 72, 0
4, 10359, Note_on_c, 2, 70, 80
4, 10395, Note_on_c, 2, 70, 0
4, 10399, Note_on_c, 2, 72, 80
4, 10434, Note_on_c, 2, 72, 0
4, 10479, Note_on_c, 2, 70, 80
4, 10515, Note_on_c, 2, 70, 0
4, 10519, Note_on_c, 2, 72, 80
4, 10554, Note_on_c, 2, 72, 0
4, 10599, Note_on_c, 2, 70, 80
4, 10635, Note_on_c, 2, 70, 0
4, 10639, Note_on_c, 2, 72, 80
4, 10674, Note_on_c, 2, 72, 0
4, 10719, Note_on_c, 2, 69, 80
4, 10755, Note_on_c, 2, 69, 0
4, 10759, Note_on_c, 2, 72, 80
4, 10794, Note_on_c, 2, 72, 0
4, 10839, Note_on_c, 2, 69, 80
4, 10875, Note_on_c, 2, 69, 0
4, 10879, Note_on_c, 2, 72, 80
4, 10914, Note_on_c, 2, 72, 0
4, 10959, Note_on_c, 2, 69, 80
4, 10995, Note_on_c, 2, 69, 0
4, 10999, Note_on_c, 2, 72, 80
4, 11034, Note_on_c, 2, 72, 0
4, 11079, Note_on_c, 2, 69, 80
4, 11115, Note_on_c, 2, 69, 0
4, 11119, Note_on_c, 2, 72, 80
4, 11154, Note_on_c, 2, 72, 0
4, 11199, Note_on_c, 2, 69, 80
4, 11235, Note_on_c, 2, 69, 0
4, 11239, Note_on_c, 2, 70, 80
4, 11274, Note_on_c, 2, 70, 0
4, 11319, Note_on_c, 2, 69, 80
4, 11355, Note_on_c, 2, 69, 0
4, 11359, Note_on_c, 2, 70, 80
4, 11394, Note_on_c, 2, 70, 0
4, 11439, Note_on_c, 2, 69, 80
4, 11475, Note_on_c, 2, 69, 0
4, 11479, Note_on_c, 2, 70, 80
4, 11514, Note_on_c, 2, 70, 0
4, 11559, Note_on_c, 2, 69, 80
4, 11595, Note_on_c, 2, 69, 0
4, 11599, Note_on_c, 2, 70, 80
4, 11634, Note_on_c, 2, 70, 0
4, 11679, Note_on_c, 2, 67, 80
4, 11715, Note_on_c, 2, 67, 0
4, 11719, Note_on_c, 2, 70, 80
4, 11754, Note_on_c, 2, 70, 0
4, 11799, Note_on_c, 2, 67, 80
4, 11835, Note_on_c, 2, 67, 0
4, 11839, Note_on_c, 2, 70, 80
4, 11874, Note_on_c, 2, 70, 0
4, 11919, Note_on_c, 2, 67, 80
4, 11955, Note_on_c, 2, 67, 0
4, 11959, Note_on_c, 2, 70, 80
4, 11994, Note_on_c, 2, 70, 0
4, 12039, Note_on_c, 2, 67, 80
4, 12075, Note_on_c, 2, 67, 0
4, 12079, Note_on_c, 2, 70, 80
4, 12114, Note_on_c, 2, 70, 0
4, 12159, Note_on_c, 2, 65, 80
4, 12195, Note_on_c, 2, 65, 0
4, 12199, Note_on_c, 2, 68, 80
4, 12234, Note_on_c, 2, 68, 0
4, 12279, Note_on_c, 2, 65, 80
4, 12315, Note_on_c, 2, 65, 0
4, 12319, Note_on_c, 2, 68, 80
4, 12354, Note_on_c, 2, 68, 0
4, 12399, Note_on_c, 2, 65, 80
4, 12435, Note_on_c, 2, 65, 0
4, 12439, Note_on_c, 2, 68, 80
4, 12474, Note_on_c, 2, 68, 0
4, 12519, Note_on_c, 2, 65, 80
4, 12555, Note_on_c, 2, 65, 0
4, 12559, Note_on_c, 2, 68, 80
4, 12594, Note_on_c, 2, 68, 0
4, 12639, Note_on_c, 2, 64, 80
4, 12675, Note_on_c, 2, 64, 0
4, 12679, Note_on_c, 2, 67, 80
4, 12714, Note_on_c, 2, 67, 0
4, 12759, Note_on_c, 2, 64, 80
4, 12795, Note_on_c, 2, 64, 0
4, 12799, Note_on_c, 2, 67, 80
4, 12834, Note_on_c, 2, 67, 0
4, 12879, Note_on_c, 2, 64, 80
4, 12915, Note_on_c, 2, 64, 0
4, 12919, Note_on_c, 2, 67, 80
4, 12954, Note_on_c, 2, 67, 0
4, 12999, Note_on_c, 2, 64, 80
4, 13035, Note_on_c, 2, 64, 0
4, 13039, Note_on_c, 2, 67, 80
4, 13074, Note_on_c, 2, 67, 0
4, 13119, Note_on_c, 2, 64, 80
4, 13155, Note_on_c, 2, 64, 0
4, 13159, Note_on_c, 2, 65, 80
4, 13194, Note_on_c, 2, 65, 0
4, 13239, Note_on_c, 2, 64, 80
4, 13275, Note_on_c, 2, 64, 0
4, 13279, Note_on_c, 2, 65, 80
4, 13314, Note_on_c, 2, 65, 0
4, 13359, Note_on_c, 2, 64, 80
4, 13395, Note_on_c, 2, 64, 0
4, 13399, Note_on_c, 2, 65, 80
4, 13434, Note_on_c, 2, 65, 0
4, 13479, Note_on_c, 2, 64, 80
4, 13515, Note_on_c, 2, 64, 0
4, 13519, Note_on_c, 2, 65, 80
4, 13554, Note_on_c, 2, 65, 0
4, 13599, Note_on_c, 2, 62, 80
4, 13635, Note_on_c, 2, 62, 0
4, 13639, Note_on_c, 2, 65, 80
4, 13674, Note_on_c, 2, 65, 0
4, 13719, Note_on_c, 2, 62, 80
4, 13755, Note_on_c, 2, 62, 0
4, 13759, Note_on_c, 2, 65, 80
4, 13794, Note_on_c, 2, 65, 0
4, 13839, Note_on_c, 2, 62, 80
4, 13875, Note_on_c, 2, 62, 0
4, 13879, Note_on_c, 2, 65, 80
4, 13914, Note_on_c, 2, 65, 0
4, 13959, Note_on_c, 2, 62, 80
4, 13995, Note_on_c, 2, 62, 0
4, 13999, Note_on_c, 2, 65, 80
4, 14034, Note_on_c, 2, 65, 0
4, 14079, Note_on_c, 2, 64, 80
4, 14115, Note_on_c, 2, 64, 0
4, 14119, Note_on_c, 2, 67, 80
4, 14154, Note_on_c, 2, 67, 0
4, 14199, Note_on_c, 2, 64, 80
4, 14235, Note_on_c, 2, 64, 0
4, 14239, Note_on_c, 2, 67, 80
4, 14274, Note_on_c, 2, 67, 0
4, 14319, Note_on_c, 2, 64, 80
4, 14355, Note_on_c, 2, 64, 0
4, 14359, Note_on_c, 2, 67, 80
4, 14394, Note_on_c, 2, 67, 0
4, 14439, Note_on_c, 2, 64, 80
4, 14475, Note_on_c, 2, 64, 0
4, 14479, Note_on_c, 2, 67, 80
4, 14514, Note_on_c, 2, 67, 0
4, 14559, Note_on_c, 2, 64, 80
4, 14595, Note_on_c, 2, 64, 0
4, 14599, Note_on_c, 2, 65, 80
4, 14634, Note_on_c, 2, 65, 0
4, 14679, Note_on_c, 2, 64, 80
4, 14715, Note_on_c, 2, 64, 0
4, 14719, Note_on_c, 2, 65, 80
4, 14754, Note_on_c, 2, 65, 0
4, 14799, Note_on_c, 2, 64, 80
4, 14835, Note_on_c, 2, 64, 0
4, 14839, Note_on_c, 2, 65, 80
4, 14874, Note_on_c, 2, 65, 0
4, 14919, Note_on_c, 2, 64, 80
4, 14955, Note_on_c, 2, 64, 0
4, 14959, Note_on_c, 2, 65, 80
4, 14994, Note_on_c, 2, 65, 0
4, 15039, Note_on_c, 2, 57, 80
4, 15075, Note_on_c, 2, 57, 0
4, 15079, Note_on_c, 2, 60, 80
4, 15114, Note_on_c, 2, 60, 0
4, 15159, Note_on_c, 2, 69, 80
4, 15195, Note_on_c, 2, 69, 0
4, 15199, Note_on_c, 2, 72, 80
4, 15234, Note_on_c, 2, 72, 0
4, 15510, Program_c, 2, 0
4, 15519, Note_on_c, 2, 65, 80
4, 15555, Note_on_c, 2, 65, 0
4, 15559, Note_on_c, 2, 72, 80
4, 15594, Note_on_c, 2, 72, 0
4, 15639, Note_on_c, 2, 65, 80
4, 15675, Note_on_c, 2, 65, 0
4, 15679, Note_on_c, 2, 72, 80
4, 15714, Note_on_c, 2, 72, 0
4, 15759, Note_on_c, 2, 65, 80
4, 15795, Note_on_c, 2, 65, 0
4, 15799, Note_on_c, 2, 72, 80
4, 15834, Note_on_c, 2, 72, 0
4, 15879, Note_on_c, 2, 65, 80
4, 15915, Note_on_c, 2, 65, 0
4, 15919, Note_on_c, 2, 72, 80
4, 15954, Note_on_c, 2, 72, 0
4, 15999, Note_on_c, 2, 65, 80
4, 16035, Note_on_c, 2, 65, 0
4, 16039, Note_on_c, 2, 74, 80
4, 16074, Note_on_c, 2, 74, 0
4, 16119, Note_on_c, 2, 65, 80
4, 16155, Note_on_c, 2, 65, 0
4, 16159, Note_on_c, 2, 74, 80
4, 16194, Note_on_c, 2, 74, 0
4, 16239, Note_on_c, 2, 65, 80
4, 16275, Note_on_c, 2, 65, 0
4, 16279, Note_on_c, 2, 74, 80
4, 16314, Note_on_c, 2, 74, 0
4, 16359, Note_on_c, 2, 65, 80
4, 16395, Note_on_c, 2, 65, 0
4, 16399, Note_on_c, 2, 74, 80
4, 16434, Note_on_c, 2, 74, 0
4, 16479, Note_on_c, 2, 63, 80
4, 16515, Note_on_c, 2, 63, 0
4, 16519, Note_on_c, 2, 74, 80
4, 16554, Note_on_c, 2, 74, 0
4, 16599, Note_on_c, 2, 63, 80
4, 16635, Note_on_c, 2, 63, 0
4, 16639, Note_on_c, 2, 74, 80
4, 16674, Note_on_c, 2, 74, 0
4, 16719, Note_on_c, 2, 63, 80
4, 16755, Note_on_c, 2, 63, 0
4, 16759, Note_on_c, 2, 72, 80
4, 16794, Note_on_c, 2, 72, 0
4, 16839, Note_on_c, 2, 63, 80
4, 16875, Note_on_c, 2, 63, 0
4, 16879, Note_on_c, 2, 72, 80
4, 16914, Note_on_c, 2, 72, 0
4, 16959, Note_on_c, 2, 62, 80
4, 16995, Note_on_c, 2, 62, 0
4, 16999, Note_on_c, 2, 72, 80
4, 17034, Note_on_c, 2, 72, 0
4, 17079, Note_on_c, 2, 64, 80
4, 17115, Note_on_c, 2, 64, 0
4, 17119, Note_on_c, 2, 72, 80
4, 17154, Note_on_c, 2, 72, 0
4, 17199, Note_on_c, 2, 66, 80
4, 17235, Note_on_c, 2, 66, 0
4, 17239, Note_on_c, 2, 72, 80
4, 17274, Note_on_c, 2, 72, 0
4, 17319, Note_on_c, 2, 69, 80
4, 17355, Note_on_c, 2, 69, 0
4, 17359, Note_on_c, 2, 72, 80
4, 17394, Note_on_c, 2, 72, 0
4, 17439, Note_on_c, 2, 67, 80
4, 17475, Note_on_c, 2, 67, 0
4, 17479, Note_on_c, 2, 70, 80
4, 17514, Note_on_c, 2, 70, 0
4, 17559, Note_on_c, 2, 67, 80
4, 17595, Note_on_c, 2, 67, 0
4, 17599, Note_on_c, 2, 70, 80
4, 17634, Note_on_c, 2, 70, 0
4, 17679, Note_on_c, 2, 67, 80
4, 17715, Note_on_c, 2, 67, 0
4, 17719, Note_on_c, 2, 70, 80
4, 17754, Note_on_c, 2, 70, 0
4, 17799, Note_on_c, 2, 67, 80
4, 17835, Note_on_c, 2, 67, 0
4, 17839, Note_on_c, 2, 70, 80
4, 17874, Note_on_c, 2, 70, 0
4, 17919, Note_on_c, 2, 66, 80
4, 17955, Note_on_c, 2, 66, 0
4, 17959, Note_on_c, 2, 69, 80
4, 17994, Note_on_c, 2, 69, 0
4, 18039, Note_on_c, 2, 66, 80
4, 18075, Note_on_c, 2, 66, 0
4, 18079, Note_on_c, 2, 69, 80
4, 18114, Note_on_c, 2, 69, 0
4, 18159, Note_on_c, 2, 66, 80
4, 18195, Note_on_c, 2, 66, 0
4, 18199, Note_on_c, 2, 69, 80
4, 18234, Note_on_c, 2, 69, 0
4, 18279, Note_on_c, 2, 66, 80
4, 18315, Note_on_c, 2, 66, 0
4, 18319, Note_on_c, 2, 69, 80
4, 18354, Note_on_c, 2, 69, 0
4, 18399, Note_on_c, 2, 66, 80
4, 18435, Note_on_c, 2, 66, 0
4, 18439, Note_on_c, 2, 67, 80
4, 18474, Note_on_c, 2, 67, 0
4, 18519, Note_on_c, 2, 66, 80
4, 18555, Note_on_c, 2, 66, 0
4, 18559, Note_on_c, 2, 67, 80
4, 18594, Note_on_c, 2, 67, 0
4, 18639, Note_on_c, 2, 66, 80
4, 18675, Note_on_c, 2, 66, 0
4, 18679, Note_on_c, 2, 67, 80
4, 18714, Note_on_c, 2, 67, 0
4, 18759, Note_on_c, 2, 66, 80
4, 18795, Note_on_c, 2, 66, 0
4, 18799, Note_on_c, 2, 67, 80
4, 18834, Note_on_c, 2, 67, 0
4, 18879, Note_on_c, 2, 66, 80
4, 18915, Note_on_c, 2, 66, 0
4, 18919, Note_on_c, 2, 69, 80
4, 18954, Note_on_c, 2, 69, 0
4, 18999, Note_on_c, 2, 66, 80
4, 19035, Note_on_c, 2, 66, 0
4, 19039, Note_on_c, 2, 69, 80
4, 19074, Note_on_c, 2, 69, 0
4, 19119, Note_on_c, 2, 66, 80
4, 19155, Note_on_c, 2, 66, 0
4, 19159, Note_on_c, 2, 69, 80
4, 19194, Note_on_c, 2, 69, 0
4, 19239, Note_on_c, 2, 66, 80
4, 19275, Note_on_c, 2, 66, 0
4, 19279, Note_on_c, 2, 69, 80
4, 19314, Note_on_c, 2, 69, 0
4, 19359, Note_on_c, 2, 67, 80
4, 19395, Note_on_c, 2, 67, 0
4, 19399, Note_on_c, 2, 70, 80
4, 19434, Note_on_c, 2, 70, 0
4, 19479, Note_on_c, 2, 69, 80
4, 19515, Note_on_c, 2, 69, 0
4, 19519, Note_on_c, 2, 72, 80
4, 19554, Note_on_c, 2, 72, 0
4, 19599, Note_on_c, 2, 70, 80
4, 19635, Note_on_c, 2, 70, 0
4, 19639, Note_on_c, 2, 74, 80
4, 19674, Note_on_c, 2, 74, 0
4, 19719, Note_on_c, 2, 67, 80
4, 19755, Note_on_c, 2, 67, 0
4, 19759, Note_on_c, 2, 76, 80
4, 19794, Note_on_c, 2, 76, 0
4, 19839, Note_on_c, 2, 69, 80
4, 19875, Note_on_c, 2, 69, 0
4, 19879, Note_on_c, 2, 78, 80
4, 19914, Note_on_c, 2, 78, 0
4, 19959, Note_on_c, 2, 70, 80
4, 19995, Note_on_c, 2, 70, 0
4, 19999, Note_on_c, 2, 79, 80
4, 20034, Note_on_c, 2, 79, 0
4, 20079, Note_on_c, 2, 72, 80
4, 20115, Note_on_c, 2, 72, 0
4, 20119, Note_on_c, 2, 81, 80
4, 20154, Note_on_c, 2, 81, 0
4, 20199, Note_on_c, 2, 72, 80
4, 20235, Note_on_c, 2, 72, 0
4, 20239, Note_on_c, 2, 78, 80
4, 20274, Note_on_c, 2, 78, 0
4, 20319, Note_on_c, 2, 71, 80
4, 20355, Note_on_c, 2, 71, 0
4, 20359, Note_on_c, 2, 79, 80
4, 20394, Note_on_c, 2, 79, 0
4, 20439, Note_on_c, 2, 70, 80
4, 20475, Note_on_c, 2, 70, 0
4, 20479, Note_on_c, 2, 76, 80
4, 20514, Note_on_c, 2, 76, 0
4, 20559, Note_on_c, 2, 69, 80
4, 20595, Note_on_c, 2, 69, 0
4, 20599, Note_on_c, 2, 78, 80
4, 20634, Note_on_c, 2, 78, 0
4, 20679, Note_on_c, 2, 72, 80
4, 20715, Note_on_c, 2, 72, 0
4, 20719, Note_on_c, 2, 78, 80
4, 20754, Note_on_c, 2, 78, 0
4, 20799, Note_on_c, 2, 70, 80
4, 20835, Note_on_c, 2, 70, 0
4, 20839, Note_on_c, 2, 79, 80
4, 20874, Note_on_c, 2, 79, 0
4, 20919, Note_on_c, 2, 70, 80
4, 20955, Note_on_c, 2, 70, 0
4, 20959, Note_on_c, 2, 79, 80
4, 20994, Note_on_c, 2, 79, 0
4, 21039, Note_on_c, 2, 70, 80
4, 21075, Note_on_c, 2, 70, 0
4, 21079, Note_on_c, 2, 79, 80
4, 21114, Note_on_c, 2, 79, 0
4, 21159, Note_on_c, 2, 70, 80
4, 21195, Note_on_c, 2, 70, 0
4, 21199, Note_on_c, 2, 79, 80
4, 21234, Note_on_c, 2, 79, 0
4, 21279, Note_on_c, 2, 68, 80
4, 21315, Note_on_c, 2, 68, 0
4, 21319, Note_on_c, 2, 77, 80
4, 21354, Note_on_c, 2, 77, 0
4, 21399, Note_on_c, 2, 68, 80
4, 21435, Note_on_c, 2, 68, 0
4, 21439, Note_on_c, 2, 77, 80
4, 21474, Note_on_c, 2, 77, 0
4, 21519, Note_on_c, 2, 68, 80
4, 21555, Note_on_c, 2, 68, 0
4, 21559, Note_on_c, 2, 77, 80
4, 21594, Note_on_c, 2, 77, 0
4, 21639, Note_on_c, 2, 68, 80
4, 21675, Note_on_c, 2, 68, 0
4, 21679, Note_on_c, 2, 77, 80
4, 21714, Note_on_c, 2, 77, 0
4, 21759, Note_on_c, 2, 67, 80
4, 21795, Note_on_c, 2, 67, 0
4, 21799, Note_on_c, 2, 75, 80
4, 21834, Note_on_c, 2, 75, 0
4, 21879, Note_on_c, 2, 67, 80
4, 21915, Note_on_c, 2, 67, 0
4, 21919, Note_on_c, 2, 75, 80
4, 21954, Note_on_c, 2, 75, 0
4, 21999, Note_on_c, 2, 67, 80
4, 22035, Note_on_c, 2, 67, 0
4, 22039, Note_on_c, 2, 75, 80
4, 22074, Note_on_c, 2, 75, 0
4, 22119, Note_on_c, 2, 67, 80
4, 22155, Note_on_c, 2, 67, 0
4, 22159, Note_on_c, 2, 75, 80
4, 22194, Note_on_c, 2, 75, 0
4, 22239, Note_on_c, 2, 69, 80
4, 22275, Note_on_c, 2, 69, 0
4, 22279, Note_on_c, 2, 75, 80
4, 22314, Note_on_c, 2, 75, 0
4, 22359, Note_on_c, 2, 69, 80
4, 22395, Note_on_c, 2, 69, 0
4, 22399, Note_on_c, 2, 75, 80
4, 22434, Note_on_c, 2, 75, 0
4, 22479, Note_on_c, 2, 70, 80
4, 22515, Note_on_c, 2, 70, 0
4, 22519, Note_on_c, 2, 74, 80
4, 22554, Note_on_c, 2, 74, 0
4, 22599, Note_on_c, 2, 70, 80
4, 22635, Note_on_c, 2, 70, 0
4, 22639, Note_on_c, 2, 73, 80
4, 22674, Note_on_c, 2, 73, 0
4, 22719, Note_on_c, 2, 69, 80
4, 22755, Note_on_c, 2, 69, 0
4, 22759, Note_on_c, 2, 72, 80
4, 22794, Note_on_c, 2, 72, 0
4, 22839, Note_on_c, 2, 69, 80
4, 22875, Note_on_c, 2, 69, 0
4, 22879, Note_on_c, 2, 72, 80
4, 22914, Note_on_c, 2, 72, 0
4, 22959, Note_on_c, 2, 69, 80
4, 22995, Note_on_c, 2, 69, 0
4, 22999, Note_on_c, 2, 72, 80
4, 23034, Note_on_c, 2, 72, 0
4, 23079, Note_on_c, 2, 69, 80
4, 23115, Note_on_c, 2, 69, 0
4, 23119, Note_on_c, 2, 72, 80
4, 23154, Note_on_c, 2, 72, 0
4, 23199, Note_on_c, 2, 69, 80
4, 23235, Note_on_c, 2, 69, 0
4, 23239, Note_on_c, 2, 72, 80
4, 23274, Note_on_c, 2, 72, 0
4, 23319, Note_on_c, 2, 69, 80
4, 23355, Note_on_c, 2, 69, 0
4, 23359, Note_on_c, 2, 72, 80
4, 23394, Note_on_c, 2, 72, 0
4, 23439, Note_on_c, 2, 69, 80
4, 23475, Note_on_c, 2, 69, 0
4, 23479, Note_on_c, 2, 72, 80
4, 23514, Note_on_c, 2, 72, 0
4, 23559, Note_on_c, 2, 69, 80
4, 23595, Note_on_c, 2, 69, 0
4, 23599, Note_on_c, 2, 72, 80
4, 23634, Note_on_c, 2, 72, 0
4, 23679, Note_on_c, 2, 68, 80
4, 23715, Note_on_c, 2, 68, 0
4, 23719, Note_on_c, 2, 71, 80
4, 23754, Note_on_c, 2, 71, 0
4, 23799, Note_on_c, 2, 68, 80
4, 23835, Note_on_c, 2, 68, 0
4, 23839, Note_on_c, 2, 71, 80
4, 23874, Note_on_c, 2, 71, 0
4, 23919, Note_on_c, 2, 68, 80
4, 23955, Note_on_c, 2, 68, 0
4, 23959, Note_on_c, 2, 71, 80
4, 23994, Note_on_c, 2, 71, 0
4, 24039, Note_on_c, 2, 68, 80
4, 24075, Note_on_c, 2, 68, 0
4, 24079, Note_on_c, 2, 71, 80
4, 24114, Note_on_c, 2, 71, 0
4, 24159, Note_on_c, 2, 67, 80
4, 24195, Note_on_c, 2, 67, 0
4, 24199, Note_on_c, 2, 70, 80
4, 24234, Note_on_c, 2, 70, 0
4, 24279, Note_on_c, 2, 67, 80
4, 24315, Note_on_c, 2, 67, 0
4, 24319, Note_on_c, 2, 70, 80
4, 24354, Note_on_c, 2, 70, 0
4, 24399, Note_on_c, 2, 67, 80
4, 24435, Note_on_c, 2, 67, 0
4, 24439, Note_on_c, 2, 70, 80
4, 24474, Note_on_c, 2, 70, 0
4, 24519, Note_on_c, 2, 67, 80
4, 24555, Note_on_c, 2, 67, 0
4, 24559, Note_on_c, 2, 70, 80
4, 24594, Note_on_c, 2, 70, 0
4, 24639, Note_on_c, 2, 66, 80
4, 24675, Note_on_c, 2, 66, 0
4, 24679, Note_on_c, 2, 69, 80
4, 24714, Note_on_c, 2, 69, 0
4, 24759, Note_on_c, 2, 66, 80
4, 24795, Note_on_c, 2, 66, 0
4, 24799, Note_on_c, 2, 69, 80
4, 24834, Note_on_c, 2, 69, 0
4, 24879, Note_on_c, 2, 66, 80
4, 24915, Note_on_c, 2, 66, 0
4, 24919, Note_on_c, 2, 69, 80
4, 24954, Note_on_c, 2, 69, 0
4, 24999, Note_on_c, 2, 66, 80
4, 25035, Note_on_c, 2, 66, 0
4, 25039, Note_on_c, 2, 69, 80
4, 25074, Note_on_c, 2, 69, 0
4, 25119, Note_on_c, 2, 65, 80
4, 25155, Note_on_c, 2, 65, 0
4, 25159, Note_on_c, 2, 68, 80
4, 25194, Note_on_c, 2, 68, 0
4, 25239, Note_on_c, 2, 65, 80
4, 25275, Note_on_c, 2, 65, 0
4, 25279, Note_on_c, 2, 68, 80
4, 25314, Note_on_c, 2, 68, 0
4, 25359, Note_on_c, 2, 65, 80
4, 25395, Note_on_c, 2, 65, 0
4, 25399, Note_on_c, 2, 68, 80
4, 25434, Note_on_c, 2, 68, 0
4, 25479, Note_on_c, 2, 65, 80
4, 25515, Note_on_c, 2, 65, 0
4, 25519, Note_on_c, 2, 68, 80
4, 25554, Note_on_c, 2, 68, 0
4, 25599, Note_on_c, 2, 64, 80
4, 25635, Note_on_c, 2, 64, 0
4, 25639, Note_on_c, 2, 67, 80
4, 25674, Note_on_c, 2, 67, 0
4, 25719, Note_on_c, 2, 64, 80
4, 25755, Note_on_c, 2, 64, 0
4, 25759, Note_on_c, 2, 67, 80
4, 25794, Note_on_c, 2, 67, 0
4, 25839, Note_on_c, 2, 64, 80
4, 25875, Note_on_c, 2, 64, 0
4, 25879, Note_on_c, 2, 67, 80
4, 25914, Note_on_c, 2, 67, 0
4, 25959, Note_on_c, 2, 64, 80
4, 25995, Note_on_c, 2, 64, 0
4, 25999, Note_on_c, 2, 67, 80
4, 26034, Note_on_c, 2, 67, 0
4, 26079, Note_on_c, 2, 63, 80
4, 26115, Note_on_c, 2, 63, 0
4, 26119, Note_on_c, 2, 66, 80
4, 26154, Note_on_c, 2, 66, 0
4, 26199, Note_on_c, 2, 63, 80
4, 26235, Note_on_c, 2, 63, 0
4, 26239, Note_on_c, 2, 66, 80
4, 26274, Note_on_c, 2, 66, 0
4, 26319, Note_on_c, 2, 63, 80
4, 26355, Note_on_c, 2, 63, 0
4, 26359, Note_on_c, 2, 66, 80
4, 26394, Note_on_c, 2, 66, 0
4, 26439, Note_on_c, 2, 63, 80
4, 26475, Note_on_c, 2, 63, 0
4, 26479, Note_on_c, 2, 66, 80
4, 26514, Note_on_c, 2, 66, 0
4, 26559, Note_on_c, 2, 61, 80
4, 26595, Note_on_c, 2, 61, 0
4, 26599, Note_on_c, 2, 64, 80
4, 26634, Note_on_c, 2, 64, 0
4, 26679, Note_on_c, 2, 61, 80
4, 26715, Note_on_c, 2, 61, 0
4, 26719, Note_on_c, 2, 64, 80
4, 26754, Note_on_c, 2, 64, 0
4, 26799, Note_on_c, 2, 61, 80
4, 26835, Note_on_c, 2, 61, 0
4, 26839, Note_on_c, 2, 64, 80
4, 26874, Note_on_c, 2, 64, 0
4, 26919, Note_on_c, 2, 61, 80
4, 26955, Note_on_c, 2, 61, 0
4, 26959, Note_on_c, 2, 64, 80
4, 26994, Note_on_c, 2, 64, 0
4, 27039, Note_on_c, 2, 60, 80
4, 27075, Note_on_c, 2, 60, 0
4, 27079, Note_on_c, 2, 63, 80
4, 27114, Note_on_c, 2, 63, 0
4, 27159, Note_on_c, 2, 60, 80
4, 27195, Note_on_c, 2, 60, 0
4, 27199, Note_on_c, 2, 63, 80
4, 27234, Note_on_c, 2, 63, 0
4, 27279, Note_on_c, 2, 60, 80
4, 27315, Note_on_c, 2, 60, 0
4, 27319, Note_on_c, 2, 63, 80
4, 27354, Note_on_c, 2, 63, 0
4, 27399, Note_on_c, 2, 60, 80
4, 27435, Note_on_c, 2, 60, 0
4, 27439, Note_on_c, 2, 63, 80
4, 27474, Note_on_c, 2, 63, 0
4, 27519, Note_on_c, 2, 58, 80
4, 27555, Note_on_c, 2, 58, 0
4, 27559, Note_on_c, 2, 61, 80
4, 27594, Note_on_c, 2, 61, 0
4, 27639, Note_on_c, 2, 58, 80
4, 27675, Note_on_c, 2, 58, 0
4, 27679, Note_on_c, 2, 61, 80
4, 27714, Note_on_c, 2, 61, 0
4, 27759, Note_on_c, 2, 58, 80
4, 27795, Note_on_c, 2, 58, 0
4, 27799, Note_on_c, 2, 61, 80
4, 27834, Note_on_c, 2, 61, 0
4, 27879, Note_on_c, 2, 58, 80
4, 27915, Note_on_c, 2, 58, 0
4, 27919, Note_on_c, 2, 61, 80
4, 27954, Note_on_c, 2, 61, 0
4, 27999, Note_on_c, 2, 57, 80
4, 28035, Note_on_c, 2, 57, 0
4, 28039, Note_on_c, 2, 60, 80
4, 28074, Note_on_c, 2, 60, 0
4, 28119, Note_on_c, 2, 57, 80
4, 28155, Note_on_c, 2, 57, 0
4, 28159, Note_on_c, 2, 60, 80
4, 28194, Note_on_c, 2, 60, 0
4, 28239, Note_on_c, 2, 57, 80
4, 28275, Note_on_c, 2, 57, 0
4, 28279, Note_on_c, 2, 60, 80
4, 28314, Note_on_c, 2, 60, 0
4, 28359, Note_on_c, 2, 57, 80
4, 28395, Note_on_c, 2, 57, 0
4, 28399, Note_on_c, 2, 60, 80
4, 28434, Note_on_c, 2, 60, 0
4, 28479, Note_on_c, 2, 57, 80
4, 28515, Note_on_c, 2, 57, 0
4, 28519, Note_on_c, 2, 58, 80
4, 28554, Note_on_c, 2, 58, 0
4, 28599, Note_on_c, 2, 57, 80
4, 28635, Note_on_c, 2, 57, 0
4, 28639, Note_on_c, 2, 58, 80
4, 28674, Note_on_c, 2, 58, 0
4, 28719, Note_on_c, 2, 57, 80
4, 28755, Note_on_c, 2, 57, 0
4, 28759, Note_on_c, 2, 58, 80
4, 28794, Note_on_c, 2, 58, 0
4, 28839, Note_on_c, 2, 57, 80
4, 28875, Note_on_c, 2, 57, 0
4, 28879, Note_on_c, 2, 58, 80
4, 28914, Note_on_c, 2, 58, 0
4, 28959, Note_on_c, 2, 55, 80
4, 28995, Note_on_c, 2, 55, 0
4, 28999, Note_on_c, 2, 58, 80
4, 29034, Note_on_c, 2, 58, 0
4, 29079, Note_on_c, 2, 55, 80
4, 29115, Note_on_c, 2, 55, 0
4, 29119, Note_on_c, 2, 58, 80
4, 29154, Note_on_c, 2, 58, 0
4, 29199, Note_on_c, 2, 55, 80
4, 29235, Note_on_c, 2, 55, 0
4, 29239, Note_on_c, 2, 58, 80
4, 29274, Note_on_c, 2, 58, 0
4, 29319, Note_on_c, 2, 55, 80
4, 29355, Note_on_c, 2, 55, 0
4, 29359, Note_on_c, 2, 58, 80
4, 29394, Note_on_c, 2, 58, 0
4, 29439, Note_on_c, 2, 57, 80
4, 29475, Note_on_c, 2, 57, 0
4, 29479, Note_on_c, 2, 60, 80
4, 29514, Note_on_c, 2, 60, 0
4, 29559, Note_on_c, 2, 57, 80
4, 29595, Note_on_c, 2, 57, 0
4, 29599, Note_on_c, 2, 60, 80
4, 29634, Note_on_c, 2, 60, 0
4, 29679, Note_on_c, 2, 57, 80
4, 29715, Note_on_c, 2, 57, 0
4, 29719, Note_on_c, 2, 60, 80
4, 29754, Note_on_c, 2, 60, 0
4, 29799, Note_on_c, 2, 57, 80
4, 29835, Note_on_c, 2, 57, 0
4, 29839, Note_on_c, 2, 60, 80
4, 29874, Note_on_c, 2, 60, 0
4, 29919, Note_on_c, 2, 57, 80
4, 29955, Note_on_c, 2, 57, 0
4, 29959, Note_on_c, 2, 58, 80
4, 29994, Note_on_c, 2, 58, 0
4, 30039, Note_on_c, 2, 57, 80
4, 30075, Note_on_c, 2, 57, 0
4, 30079, Note_on_c, 2, 58, 80
4, 30114, Note_on_c, 2, 58, 0
4, 30159, Note_on_c, 2, 57, 80
4, 30195, Note_on_c, 2, 57, 0
4, 30199, Note_on_c, 2, 58, 80
4, 30234, Note_on_c, 2, 58, 0
4, 30279, Note_on_c, 2, 57, 80
4, 30315, Note_on_c, 2, 57, 0
4, 30319, Note_on_c, 2, 58, 80
4, 30354, Note_on_c, 2, 58, 0
4, 30399, Note_on_c, 2, 62, 80
4, 30435, Note_on_c, 2, 62, 0
4, 30439, Note_on_c, 2, 65, 80
4, 30474, Note_on_c, 2, 65, 0
4, 30519, Note_on_c, 2, 74, 80
4, 30555, Note_on_c, 2, 74, 0
4, 30559, Note_on_c, 2, 77, 80
4, 30594, Note_on_c, 2, 77, 0
4, 30879, Note_on_c, 2, 65, 80
4, 30915, Note_on_c, 2, 65, 0
4, 30919, Note_on_c, 2, 72, 80
4, 30954, Note_on_c, 2, 72, 0
4, 30996, Program_c, 2, 2
4, 30999, Note_on_c, 2, 65, 80
4, 31035, Note_on_c, 2, 65, 0
4, 31039, Note_on_c, 2, 72, 80
4, 31074, Note_on_c, 2, 72, 0
4, 31119, Note_on_c, 2, 65, 80
4, 31155, Note_on_c, 2, 65, 0
4, 31159, Note_on_c, 2, 72, 80
4, 31194, Note_on_c, 2, 72, 0
4, 31239, Note_on_c, 2, 65, 80
4, 31275, Note_on_c, 2, 65, 0
4, 31279, Note_on_c, 2, 72, 80
4, 31314, Note_on_c, 2, 72, 0
4, 31359, Note_on_c, 2, 65, 80
4, 31395, Note_on_c, 2, 65, 0
4, 31399, Note_on_c, 2, 74, 80
4, 31434, Note_on_c, 2, 74, 0
4, 31479, Note_on_c, 2, 65, 80
4, 31515, Note_on_c, 2, 65, 0
4, 31519, Note_on_c, 2, 74, 80
4, 31554, Note_on_c, 2, 74, 0
4, 31599, Note_on_c, 2, 65, 80
4, 31635, Note_on_c, 2, 65, 0
4, 31639, Note_on_c, 2, 74, 80
4, 31674, Note_on_c, 2, 74, 0
4, 31719, Note_on_c, 2, 65, 80
4, 31755, Note_on_c, 2, 65, 0
4, 31759, Note_on_c, 2, 74, 80
4, 31794, Note_on_c, 2, 74, 0
4, 31839, Note_on_c, 2, 63, 80
4, 31875, Note_on_c, 2, 63, 0
4, 31879, Note_on_c, 2, 74, 80
4, 31914, Note_on_c, 2, 74, 0
4, 31959, Note_on_c, 2, 63, 80
4, 31995, Note_on_c, 2, 63, 0
4, 31999, Note_on_c, 2, 74, 80
4, 32034, Note_on_c, 2, 74, 0
4, 32079, Note_on_c, 2, 63, 80
4, 32115, Note_on_c, 2, 63, 0
4, 32119, Note_on_c, 2, 72, 80
4, 32154, Note_on_c, 2, 72, 0
4, 32199, Note_on_c, 2, 63, 80
4, 32235, Note_on_c, 2, 63, 0
4, 32239, Note_on_c, 2, 72, 80
4, 32274, Note_on_c, 2, 72, 0
4, 32319, Note_on_c, 2, 62, 80
4, 32355, Note_on_c, 2, 62, 0
4, 32359, Note_on_c, 2, 72, 80
4, 32394, Note_on_c, 2, 72, 0
4, 32439, Note_on_c, 2, 64, 80
4, 32475, Note_on_c, 2, 64, 0
4, 32479, Note_on_c, 2, 72, 80
4, 32514, Note_on_c, 2, 72, 0
4, 32559, Note_on_c, 2, 66, 80
4, 32595, Note_on_c, 2, 66, 0
4, 32599, Note_on_c, 2, 72, 80
4, 32634, Note_on_c, 2, 72, 0
4, 32679, Note_on_c, 2, 69, 80
4, 32715, Note_on_c, 2, 69, 0
4, 32719, Note_on_c, 2, 72, 80
4, 32754, Note_on_c, 2, 72, 0
4, 32799, Note_on_c, 2, 67, 80
4, 32835, Note_on_c, 2, 67, 0
4, 32839, Note_on_c, 2, 70, 80
4, 32874, Note_on_c, 2, 70, 0
4, 32919, Note_on_c, 2, 67, 80
4, 32955, Note_on_c, 2, 67, 0
4, 32959, Note_on_c, 2, 70, 80
4, 32994, Note_on_c, 2, 70, 0
4, 33039, Note_on_c, 2, 67, 80
4, 33075, Note_on_c, 2, 67, 0
4, 33079, Note_on_c, 2, 70, 80
4, 33114, Note_on_c, 2, 70, 0
4, 33159, Note_on_c, 2, 67, 80
4, 33195, Note_on_c, 2, 67, 0
4, 33199, Note_on_c, 2, 70, 80
4, 33234, Note_on_c, 2, 70, 0
4, 33279, Note_on_c, 2, 66, 80
4, 33315, Note_on_c, 2, 66, 0
4, 33319, Note_on_c, 2, 69, 80
4, 33354, Note_on_c, 2, 69, 0
4, 33399, Note_on_c, 2, 66, 80
4, 33435, Note_on_c, 2, 66, 0
4, 33439, Note_on_c, 2, 69, 80
4, 33474, Note_on_c, 2, 69, 0
4, 33519, Note_on_c, 2, 66, 80
4, 33555, Note_on_c, 2, 66, 0
4, 33559, Note_on_c, 2, 69, 80
4, 33594, Note_on_c, 2, 69, 0
4, 33639, Note_on_c, 2, 66, 80
4, 33675, Note_on_c, 2, 66, 0
4, 33679, Note_on_c, 2, 69, 80
4, 33714, Note_on_c, 2, 69, 0
4, 33759, Note_on_c, 2, 66, 80
4, 33795, Note_on_c, 2, 66, 0
4, 33799, Note_on_c, 2, 67, 80
4, 33834, Note_on_c, 2, 67, 0
4, 33879, Note_on_c, 2, 66, 80
4, 33915, Note_on_c, 2, 66, 0
4, 33919, Note_on_c, 2, 67, 80
4, 33954, Note_on_c, 2, 67, 0
4, 33999, Note_on_c, 2, 66, 80
4, 34035, Note_on_c, 2, 66, 0
4, 34039, Note_on_c, 2, 67, 80
4, 34074, Note_on_c, 2, 67, 0
4, 34119, Note_on_c, 2, 66, 80
4, 34155, Note_on_c, 2, 66, 0
4, 34159, Note_on_c, 2, 67, 80
4, 34194, Note_on_c, 2, 67, 0
4, 34239, Note_on_c, 2, 66, 80
4, 34275, Note_on_c, 2, 66, 0
4, 34279, Note_on_c, 2, 69, 80
4, 34314, Note_on_c, 2, 69, 0
4, 34359, Note_on_c, 2, 66, 80
4, 34395, Note_on_c, 2, 66, 0
4, 34399, Note_on_c, 2, 69, 80
4, 34434, Note_on_c, 2, 69, 0
4, 34479, Note_on_c, 2, 66, 80
4, 34515, Note_on_c, 2, 66, 0
4, 34519, Note_on_c, 2, 69, 80
4, 34554, Note_on_c, 2, 69, 0
4, 34599, Note_on_c, 2, 66, 80
4, 34635, Note_on_c, 2, 66, 0
4, 34639, Note_on_c, 2, 69, 80
4, 34674, Note_on_c, 2, 69, 0
4, 34719, Note_on_c, 2, 67, 80
4, 34755, Note_on_c, 2, 67, 0
4, 34759, Note_on_c, 2, 70, 80
4, 34794, Note_on_c, 2, 70, 0
4, 34839, Note_on_c, 2, 69, 80
4, 34875, Note_on_c, 2, 69, 0
4, 34879, Note_on_c, 2, 72, 80
4, 34914, Note_on_c, 2, 72, 0
4, 34959, Note_on_c, 2, 70, 80
4, 34995, Note_on_c, 2, 70, 0
4, 34999, Note_on_c, 2, 74, 80
4, 35034, Note_on_c, 2, 74, 0
4, 35079, Note_on_c, 2, 67, 80
4, 35115, Note_on_c, 2, 67, 0
4, 35119, Note_on_c, 2, 76, 80
4, 35154, Note_on_c, 2, 76, 0
4, 35199, Note_on_c, 2, 69, 80
4, 35235, Note_on_c, 2, 69, 0
4, 35239, Note_on_c, 2, 78, 80
4, 35274, Note_on_c, 2, 78, 0
4, 35319, Note_on_c, 2, 70, 80
4, 35355, Note_on_c, 2, 70, 0
4, 35359, Note_on_c, 2, 79, 80
4, 35394, Note_on_c, 2, 79, 0
4, 35439, Note_on_c, 2, 72, 80
4, 35475, Note_on_c, 2, 72, 0
4, 35479, Note_on_c, 2, 81, 80
4, 35514, Note_on_c, 2, 81, 0
4, 35559, Note_on_c, 2, 72, 80
4, 35595, Note_on_c, 2, 72, 0
4, 35599, Note_on_c, 2, 78, 80
4, 35634, Note_on_c, 2, 78, 0
4, 35679, Note_on_c, 2, 71, 80
4, 35715, Note_on_c, 2, 71, 0
4, 35719, Note_on_c, 2, 79, 80
4, 35754, Note_on_c, 2, 79, 0
4, 35799, Note_on_c, 2, 70, 80
4, 35835, Note_on_c, 2, 70, 0
4, 35839, Note_on_c, 2, 76, 80
4, 35874, Note_on_c, 2, 76, 0
4, 35919, Note_on_c, 2, 69, 80
4, 35955, Note_on_c, 2, 69, 0
4, 35959, Note_on_c, 2, 78, 80
4, 35994, Note_on_c, 2, 78, 0
4, 36039, Note_on_c, 2, 72, 80
4, 36075, Note_on_c, 2, 72, 0
4, 36079, Note_on_c, 2, 78, 80
4, 36114, Note_on_c, 2, 78, 0
4, 36159, Note_on_c, 2, 70, 80
4, 36195, Note_on_c, 2, 70, 0
4, 36199, Note_on_c, 2, 79, 80
4, 36234, Note_on_c, 2, 79, 0
4, 36279, Note_on_c, 2, 70, 80
4, 36315, Note_on_c, 2, 70, 0
4, 36319, Note_on_c, 2, 79, 80
4, 36354, Note_on_c, 2, 79, 0
4, 36399, Note_on_c, 2, 70, 80
4, 36435, Note_on_c, 2, 70, 0
4, 36439, Note_on_c, 2, 79, 80
4, 36474, Note_on_c, 2, 79, 0
4, 36519, Note_on_c, 2, 70, 80
4, 36555, Note_on_c, 2, 70, 0
4, 36559, Note_on_c, 2, 79, 80
4, 36594, Note_on_c, 2, 79, 0
4, 36639, Note_on_c, 2, 68, 80
4, 36675, Note_on_c, 2, 68, 0
4, 36679, Note_on_c, 2, 77, 80
4, 36714, Note_on_c, 2, 77, 0
4, 36759, Note_on_c, 2, 68, 80
4, 36795, Note_on_c, 2, 68, 0
4, 36799, Note_on_c, 2, 77, 80
4, 36834, Note_on_c, 2, 77, 0
4, 36879, Note_on_c, 2, 68, 80
4, 36915, Note_on_c, 2, 68, 0
4, 36919, Note_on_c, 2, 77, 80
4, 36954, Note_on_c, 2, 77, 0
4, 36999, Note_on_c, 2, 68, 80
4, 37035, Note_on_c, 2, 68, 0
4, 37039, Note_on_c, 2, 77, 80
4, 37074, Note_on_c, 2, 77, 0
4, 37119, Note_on_c, 2, 67, 80
4, 37155, Note_on_c, 2, 67, 0
4, 37159, Note_on_c, 2, 75, 80
4, 37194, Note_on_c, 2, 75, 0
4, 37239, Note_on_c, 2, 67, 80
4, 37275, Note_on_c, 2, 67, 0
4, 37279, Note_on_c, 2, 75, 80
4, 37314, Note_on_c, 2, 75, 0
4, 37359, Note_on_c, 2, 67, 80
4, 37395, Note_on_c, 2, 67, 0
4, 37399, Note_on_c, 2, 75, 80
4, 37434, Note_on_c, 2, 75, 0
4, 37479, Note_on_c, 2, 67, 80
4, 37515, Note_on_c, 2, 67, 0
4, 37519, Note_on_c, 2, 75, 80
4, 37554, Note_on_c, 2, 75, 0
4, 37599, Note_on_c, 2, 69, 80
4, 37635, Note_on_c, 2, 69, 0
4, 37639, Note_on_c, 2, 75, 80
4, 37674, Note_on_c, 2, 75, 0
4, 37719, Note_on_c, 2, 69, 80
4, 37755, Note_on_c, 2, 69, 0
4, 37759, Note_on_c, 2, 75, 80
4, 37794, Note_on_c, 2, 75, 0
4, 37839, Note_on_c, 2, 70, 80
4, 37875, Note_on_c, 2, 70, 0
4, 37879, Note_on_c, 2, 74, 80
4, 37914, Note_on_c, 2, 74, 0
4, 37959, Note_on_c, 2, 70, 80
4, 37995, Note_on_c, 2, 70, 0
4, 37999, Note_on_c, 2, 73, 80
4, 38034, Note_on_c, 2, 73, 0
4, 38079, Note_on_c, 2, 69, 80
4, 38115, Note_on_c, 2, 69, 0
4, 38119, Note_on_c, 2, 72, 80
4, 38154, Note_on_c, 2, 72, 0
4, 38199, Note_on_c, 2, 69, 80
4, 38235, Note_on_c, 2, 69, 0
4, 38239, Note_on_c, 2, 72, 80
4, 38274, Note_on_c, 2, 72, 0
4, 38319, Note_on_c, 2, 69, 80
4, 38355, Note_on_c, 2, 69, 0
4, 38359, Note_on_c, 2, 72, 80
4, 38394, Note_on_c, 2, 72, 0
4, 38439, Note_on_c, 2, 69, 80
4, 38475, Note_on_c, 2, 69, 0
4, 38479, Note_on_c, 2, 72, 80
4, 38514, Note_on_c, 2, 72, 0
4, 38559, Note_on_c, 2, 69, 80
4, 38595, Note_on_c, 2, 69, 0
4, 38599, Note_on_c, 2, 72, 80
4, 38634, Note_on_c, 2, 72, 0
4, 38679, Note_on_c, 2, 69, 80
4, 38715, Note_on_c, 2, 69, 0
4, 38719, Note_on_c, 2, 72, 80
4, 38754, Note_on_c, 2, 72, 0
4, 38799, Note_on_c, 2, 69, 80
4, 38835, Note_on_c, 2, 69, 0
4, 38839, Note_on_c, 2, 72, 80
4, 38874, Note_on_c, 2, 72, 0
4, 38919, Note_on_c, 2, 69, 80
4, 38955, Note_on_c, 2, 69, 0
4, 38959, Note_on_c, 2, 72, 80
4, 38994, Note_on_c, 2, 72, 0
4, 39039, Note_on_c, 2, 68, 80
4, 39075, Note_on_c, 2, 68, 0
4, 39079, Note_on_c, 2, 71, 80
4, 39114, Note_on_c, 2, 71, 0
4, 39159, Note_on_c, 2, 68, 80
4, 39195, Note_on_c, 2, 68, 0
4, 39199, Note_on_c, 2, 71, 80
4, 39234, Note_on_c, 2, 71, 0
4, 39279, Note_on_c, 2, 68, 80
4, 39315, Note_on_c, 2, 68, 0
4, 39319, Note_on_c, 2, 71, 80
4, 39354, Note_on_c, 2, 71, 0
4, 39399, Note_on_c, 2, 68, 80
4, 39435, Note_on_c, 2, 68, 0
4, 39439, Note_on_c, 2, 71, 80
4, 39474, Note_on_c, 2, 71, 0
4, 39519, Note_on_c, 2, 67, 80
4, 39555, Note_on_c, 2, 67, 0
4, 39559, Note_on_c, 2, 70, 80
4, 39594, Note_on_c, 2, 70, 0
4, 39639, Note_on_c, 2, 67, 80
4, 39675, Note_on_c, 2, 67, 0
4, 39679, Note_on_c, 2, 70, 80
4, 39714, Note_on_c, 2, 70, 0
4, 39759, Note_on_c, 2, 67, 80
4, 39795, Note_on_c, 2, 67, 0
4, 39799, Note_on_c, 2, 70, 80
4, 39834, Note_on_c, 2, 70, 0
4, 39879, Note_on_c, 2, 67, 80
4, 39915, Note_on_c, 2, 67, 0
4, 39919, Note_on_c, 2, 70, 80
4, 39954, Note_on_c, 2, 70, 0
4, 39999, Note_on_c, 2, 66, 80
4, 40035, Note_on_c, 2, 66, 0
4, 40039, Note_on_c, 2, 69, 80
4, 40074, Note_on_c, 2, 69, 0
4, 40119, Note_on_c, 2, 66, 80
4, 40155, Note_on_c, 2, 66, 0
4, 40159, Note_on_c, 2, 69, 80
4, 40194, Note_on_c, 2, 69, 0
4, 40239, Note_on_c, 2, 66, 80
4, 40275, Note_on_c, 2, 66, 0
4, 40279, Note_on_c, 2, 69, 80
4, 40314, Note_on_c, 2, 69, 0
4, 40359, Note_on_c, 2, 66, 80
4, 40395, Note_on_c, 2, 66, 0
4, 40399, Note_on_c, 2, 69, 80
4, 40434, Note_on_c, 2, 69, 0
4, 40479, Note_on_c, 2, 65, 80
4, 40515, Note_on_c, 2, 65, 0
4, 40519, Note_on_c, 2, 68, 80
4, 40554, Note_on_c, 2, 68, 0
4, 40599, Note_on_c, 2, 65, 80
4, 40635, Note_on_c, 2, 65, 0
4, 40639, Note_on_c, 2, 68, 80
4, 40674, Note_on_c, 2, 68, 0
4, 40719, Note_on_c, 2, 65, 80
4, 40755, Note_on_c, 2, 65, 0
4, 40759, Note_on_c, 2, 68, 80
4, 40794, Note_on_c, 2, 68, 0
4, 40839, Note_on_c, 2, 65, 80
4, 40875, Note_on_c, 2, 65, 0
4, 40879, Note_on_c, 2, 68, 80
4, 40914, Note_on_c, 2, 68, 0
4, 40959, Note_on_c, 2, 64, 80
4, 40995, Note_on_c, 2, 64, 0
4, 40999, Note_on_c, 2, 67, 80
4, 41034, Note_on_c, 2, 67, 0
4, 41079, Note_on_c, 2, 64, 80
4, 41115, Note_on_c, 2, 64, 0
4, 41119, Note_on_c, 2, 67, 80
4, 41154, Note_on_c, 2, 67, 0
4, 41199, Note_on_c, 2, 64, 80
4, 41235, Note_on_c, 2, 64, 0
4, 41239, Note_on_c, 2, 67, 80
4, 41274, Note_on_c, 2, 67, 0
4, 41319, Note_on_c, 2, 64, 80
4, 41355, Note_on_c, 2, 64, 0
4, 41359, Note_on_c, 2, 67, 80
4, 41394, Note_on_c, 2, 67, 0
4, 41439, Note_on_c, 2, 63, 80
4, 41475, Note_on_c, 2, 63, 0
4, 41479, Note_on_c, 2, 66, 80
4, 41514, Note_on_c, 2, 66, 0
4, 41559, Note_on_c, 2, 63, 80
4, 41595, Note_on_c, 2, 63, 0
4, 41599, Note_on_c, 2, 66, 80
4, 41634, Note_on_c, 2, 66, 0
4, 41679, Note_on_c, 2, 63, 80
4, 41715, Note_on_c, 2, 63, 0
4, 41719, Note_on_c, 2, 66, 80
4, 41754, Note_on_c, 2, 66, 0
4, 41799, Note_on_c, 2, 63, 80
4, 41835, Note_on_c, 2, 63, 0
4, 41839, Note_on_c, 2, 66, 80
4, 41874, Note_on_c, 2, 66, 0
4, 41919, Note_on_c, 2, 61, 80
4, 41955, Note_on_c, 2, 61, 0
4, 41959, Note_on_c, 2, 64, 80
4, 41994, Note_on_c, 2, 64, 0
4, 42039, Note_on_c, 2, 61, 80
4, 42075, Note_on_c, 2, 61, 0
4, 42079, Note_on_c, 2, 64, 80
4, 42114, Note_on_c, 2, 64, 0
4, 42159, Note_on_c, 2, 61, 80
4, 42195, Note_on_c, 2, 61, 0
4, 42199, Note_on_c, 2, 64, 80
4, 42234, Note_on_c, 2, 64, 0
4, 42279, Note_on_c, 2, 61, 80
4, 42315, Note_on_c, 2, 61, 0
4, 42319, Note_on_c, 2, 64, 80
4, 42354, Note_on_c, 2, 64, 0
4, 42399, Note_on_c, 2, 60, 80
4, 42435, Note_on_c, 2, 60, 0
4, 42439, Note_on_c, 2, 63, 80
4, 42474, Note_on_c, 2, 63, 0
4, 42519, Note_on_c, 2, 60, 80
4, 42555, Note_on_c, 2, 60, 0
4, 42559, Note_on_c, 2, 63, 80
4, 42594, Note_on_c, 2, 63, 0
4, 42639, Note_on_c, 2, 60, 80
4, 42675, Note_on_c, 2, 60, 0
4, 42679, Note_on_c, 2, 63, 80
4, 42714, Note_on_c, 2, 63, 0
4, 42759, Note_on_c, 2, 60, 80
4, 42795, Note_on_c, 2, 60, 0
4, 42799, Note_on_c, 2, 63, 80
4, 42834, Note_on_c, 2, 63, 0
4, 42879, Note_on_c, 2, 58, 80
4, 42915, Note_on_c, 2, 58, 0
4, 42919, Note_on_c, 2, 61, 80
4, 42954, Note_on_c, 2, 61, 0
4, 42999, Note_on_c, 2, 58, 80
4, 43035, Note_on_c, 2, 58, 0
4, 43039, Note_on_c, 2, 61, 80
4, 43074, Note_on_c, 2, 61, 0
4, 43119, Note_on_c, 2, 58, 80
4, 43155, Note_on_c, 2, 58, 0
4, 43159, Note_on_c, 2, 61, 80
4, 43194, Note_on_c, 2, 61, 0
4, 43239, Note_on_c, 2, 58, 80
4, 43275, Note_on_c, 2, 58, 0
4, 43279, Note_on_c, 2, 61, 80
4, 43314, Note_on_c, 2, 61, 0
4, 43359, Note_on_c, 2, 57, 80
4, 43395, Note_on_c, 2, 57, 0
4, 43399, Note_on_c, 2, 60, 80
4, 43434, Note_on_c, 2, 60, 0
4, 43479, Note_on_c, 2, 57, 80
4, 43515, Note_on_c, 2, 57, 0
4, 43519, Note_on_c, 2, 60, 80
4, 43554, Note_on_c, 2, 60, 0
4, 43599, Note_on_c, 2, 57, 80
4, 43635, Note_on_c, 2, 57, 0
4, 43639, Note_on_c, 2, 60, 80
4, 43674, Note_on_c, 2, 60, 0
4, 43719, Note_on_c, 2, 57, 80
4, 43755, Note_on_c, 2, 57, 0
4, 43759, Note_on_c, 2, 60, 80
4, 43794, Note_on_c, 2, 60, 0
4, 43839, Note_on_c, 2, 57, 80
4, 43875, Note_on_c, 2, 57, 0
4, 43879, Note_on_c, 2, 58, 80
4, 43914, Note_on_c, 2, 58, 0
4, 43959, Note_on_c, 2, 57, 80
4, 43995, Note_on_c, 2, 57, 0
4, 43999, Note_on_c, 2, 58, 80
4, 44034, Note_on_c, 2, 58, 0
4, 44079, Note_on_c, 2, 57, 80
4, 44115, Note_on_c, 2, 57, 0
4, 44119, Note_on_c, 2, 58, 80
4, 44154, Note_on_c, 2, 58, 0
4, 44199, Note_on_c, 2, 57, 80
4, 44235, Note_on_c, 2, 57, 0
4, 44239, Note_on_c, 2, 58, 80
4, 44274, Note_on_c, 2, 58, 0
4, 44319, Note_on_c, 2, 55, 80
4, 44355, Note_on_c, 2, 55, 0
4, 44359, Note_on_c, 2, 58, 80
4, 44394, Note_on_c, 2, 58, 0
4, 44439, Note_on_c, 2, 55, 80
4, 44475, Note_on_c, 2, 55, 0
4, 44479, Note_on_c, 2, 58, 80
4, 44514, Note_on_c, 2, 58, 0
4, 44559, Note_on_c, 2, 55, 80
4, 44595, Note_on_c, 2, 55, 0
4, 44599, Note_on_c, 2, 58, 80
4, 44634, Note_on_c, 2, 58, 0
4, 44679, Note_on_c, 2, 55, 80
4, 44715, Note_on_c, 2, 55, 0
4, 44719, Note_on_c, 2, 58, 80
4, 44754, Note_on_c, 2, 58, 0
4, 44799, Note_on_c, 2, 57, 80
4, 44835, Note_on_c, 2, 57, 0
4, 44839, Note_on_c, 2, 60, 80
4, 44874, Note_on_c, 2, 60, 0
4, 44919, Note_on_c, 2, 57, 80
4, 44955, Note_on_c, 2, 57, 0
4, 44959, Note_on_c, 2, 60, 80
4, 44994, Note_on_c, 2, 60, 0
4, 45039, Note_on_c, 2, 57, 80
4, 45075, Note_on_c, 2, 57, 0
4, 45079, Note_on_c, 2, 60, 80
4, 45114, Note_on_c, 2, 60, 0
4, 45159, Note_on_c, 2, 57, 80
4, 45195, Note_on_c, 2, 57, 0
4, 45199, Note_on_c, 2, 60, 80
4, 45234, Note_on_c, 2, 60, 0
4, 45279, Note_on_c, 2, 57, 80
4, 45315, Note_on_c, 2, 57, 0
4, 45319, Note_on_c, 2, 58, 80
4, 45354, Note_on_c, 2, 58, 0
4, 45399, Note_on_c, 2, 57, 80
4, 45435, Note_on_c, 2, 57, 0
4, 45439, Note_on_c, 2, 58, 80
4, 45474, Note_on_c, 2, 58, 0
4, 45519, Note_on_c, 2, 57, 80
4, 45555, Note_on_c, 2, 57, 0
4, 45559, Note_on_c, 2, 58, 80
4, 45594, Note_on_c, 2, 58, 0
4, 45639, Note_on_c, 2, 57, 80
4, 45675, Note_on_c, 2, 57, 0
4, 45679, Note_on_c, 2, 58, 80
4, 45714, Note_on_c, 2, 58, 0
4, 45759, Note_on_c, 2, 62, 80
4, 45795, Note_on_c, 2, 62, 0
4, 45799, Note_on_c, 2, 65, 80
4, 45834, Note_on_c, 2, 65, 0
4, 45879, Note_on_c, 2, 74, 80
4, 45915, Note_on_c, 2, 74, 0
4, 45919, Note_on_c, 2, 77, 80
4, 45954, Note_on_c, 2, 77, 0
4, 45954, End_track
5, 0, Start_track
5, 0, MIDI_port, 0
5, 0, Program_c, 2, 0
5, 0, Control_c, 2, 7, 100
5, 0, Control_c, 2, 10, 64
5, 120, Note_on_c, 2, 77, 80
5, 225, Note_on_c, 2, 77, 0
5, 480, Note_on_c, 2, 77, 80
5, 585, Note_on_c, 2, 77, 0
5, 600, Note_on_c, 2, 79, 80
5, 705, Note_on_c, 2, 79, 0
5, 960, Note_on_c, 2, 79, 80
5, 1065, Note_on_c, 2, 79, 0
5, 1080, Note_on_c, 2, 72, 80
5, 1185, Note_on_c, 2, 72, 0
5, 1440, Note_on_c, 2, 72, 80
5, 1545, Note_on_c, 2, 72, 0
5, 1560, Note_on_c, 2, 74, 80
5, 1665, Note_on_c, 2, 74, 0
5, 1920, Note_on_c, 2, 74, 80
5, 2025, Note_on_c, 2, 74, 0
5, 2040, Note_on_c, 2, 79, 80
5, 2145, Note_on_c, 2, 79, 0
5, 2880, Note_on_c, 2, 76, 80
5, 2985, Note_on_c, 2, 76, 0
5, 3000, Note_on_c, 2, 77, 80
5, 3105, Note_on_c, 2, 77, 0
5, 3840, Note_on_c, 2, 74, 80
5, 3945, Note_on_c, 2, 74, 0
5, 3960, Note_on_c, 2, 76, 80
5, 4065, Note_on_c, 2, 76, 0
5, 4320, Note_on_c, 2, 76, 80
5, 4425, Note_on_c, 2, 76, 0
5, 4440, Note_on_c, 2, 77, 80
5, 4545, Note_on_c, 2, 77, 0
5, 4800, Note_on_c, 2, 77, 80
5, 4905, Note_on_c, 2, 77, 0
5, 4920, Note_on_c, 2, 79, 80
5, 5025, Note_on_c, 2, 79, 0
5, 5280, Note_on_c, 2, 79, 80
5, 5385, Note_on_c, 2, 79, 0
5, 5400, Note_on_c, 2, 80, 80
5, 5505, Note_on_c, 2, 80, 0
5, 5760, Note_on_c, 2, 80, 80
5, 5865, Note_on_c, 2, 80, 0
5, 5880, Note_on_c, 2, 71, 80
5, 5985, Note_on_c, 2, 71, 0
5, 6240, Note_on_c, 2, 71, 80
5, 6345, Note_on_c, 2, 71, 0
5, 6360, Note_on_c, 2, 72, 80
5, 6465, Note_on_c, 2, 72, 0
5, 6720, Note_on_c, 2, 70, 80
5, 6825, Note_on_c, 2, 70, 0
5, 6840, Note_on_c, 2, 68, 80
5, 6945, Note_on_c, 2, 68, 0
5, 7440, Note_on_c, 2, 65, 80
5, 7545, Note_on_c, 2, 65, 0
5, 7575, Note_on_c, 2, 77, 80
5, 7785, Note_on_c, 2, 77, 0
5, 7800, Note_on_c, 2, 77, 80
5, 7905, Note_on_c, 2, 77, 0
5, 8160, Note_on_c, 2, 77, 80
5, 8265, Note_on_c, 2, 77, 0
5, 8280, Note_on_c, 2, 79, 80
5, 8385, Note_on_c, 2, 79, 0
5, 8640, Note_on_c, 2, 79, 80
5, 8745, Note_on_c, 2, 79, 0
5, 8760, Note_on_c, 2, 72, 80
5, 8865, Note_on_c, 2, 72, 0
5, 9120, Note_on_c, 2, 72, 80
5, 9225, Note_on_c, 2, 72, 0
5, 9240, Note_on_c, 2, 74, 80
5, 9345, Note_on_c, 2, 74, 0
5, 9600, Note_on_c, 2, 74, 80
5, 9705, Note_on_c, 2, 74, 0
5, 9720, Note_on_c, 2, 79, 80
5, 9825, Note_on_c, 2, 79, 0
5, 10560, Note_on_c, 2, 76, 80
5, 10665, Note_on_c, 2, 76, 0
5, 10680, Note_on_c, 2, 77, 80
5, 10785, Note_on_c, 2, 77, 0
5, 11520, Note_on_c, 2, 74, 80
5, 11625, Note_on_c, 2, 74, 0
5, 11640, Note_on_c, 2, 76, 80
5, 11745, Note_on_c, 2, 76, 0
5, 12000, Note_on_c, 2, 76, 80
5, 12105, Note_on_c, 2, 76, 0
5, 12120, Note_on_c, 2, 77, 80
5, 12225, Note_on_c, 2, 77, 0
5, 12480, Note_on_c, 2, 77, 80
5, 12585, Note_on_c, 2, 77, 0
5, 12600, Note_on_c, 2, 79, 80
5, 12705, Note_on_c, 2, 79, 0
5, 12960, Note_on_c, 2, 79, 80
5, 13065, Note_on_c, 2, 79, 0
5, 13080, Note_on_c, 2, 80, 80
5, 13185, Note_on_c, 2, 80, 0
5, 13440, Note_on_c, 2, 80, 80
5, 13545, Note_on_c, 2, 80, 0
5, 13560, Note_on_c, 2, 71, 80
5, 13665, Note_on_c, 2, 71, 0
5, 13920, Note_on_c, 2, 71, 80
5, 14025, Note_on_c, 2, 71, 0
5, 14040, Note_on_c, 2, 72, 80
5, 14145, Note_on_c, 2, 72, 0
5, 14400, Note_on_c, 2, 70, 80
5, 14505, Note_on_c, 2, 70, 0
5, 14520, Note_on_c, 2, 68, 80
5, 14625, Note_on_c, 2, 68, 0
5, 15120, Note_on_c, 2, 65, 80
5, 15225, Note_on_c, 2, 65, 0
5, 15255, Note_on_c, 2, 77, 80
5, 15465, Note_on_c, 2, 77, 0
5, 15480, Note_on_c, 2, 81, 80
5, 15585, Note_on_c, 2, 81, 0
5, 15840, Note_on_c, 2, 81, 80
5, 15945, Note_on_c, 2, 81, 0
5, 15960, Note_on_c, 2, 82, 80
5, 16065, Note_on_c, 2, 82, 0
5, 16320, Note_on_c, 2, 82, 80
5, 16425, Note_on_c, 2, 82, 0
5, 16440, Note_on_c, 2, 79, 80
5, 16545, Note_on_c, 2, 79, 0
5, 16800, Note_on_c, 2, 79, 80
5, 16905, Note_on_c, 2, 79, 0
5, 16920, Note_on_c, 2, 78, 80
5, 17025, Note_on_c, 2, 78, 0
5, 17280, Note_on_c, 2, 78, 80
5, 17385, Note_on_c, 2, 78, 0
5, 17400, Note_on_c, 2, 79, 80
5, 17505, Note_on_c, 2, 79, 0
5, 17760, Note_on_c, 2, 79, 80
5, 17865, Note_on_c, 2, 79, 0
5, 17880, Note_on_c, 2, 81, 80
5, 17985, Note_on_c, 2, 81, 0
5, 18240, Note_on_c, 2, 81, 80
5, 18345, Note_on_c, 2, 81, 0
5, 18360, Note_on_c, 2, 82, 80
5, 18465, Note_on_c, 2, 82, 0
5, 18720, Note_on_c, 2, 82, 80
5, 18825, Note_on_c, 2, 82, 0
5, 18840, Note_on_c, 2, 84, 80
5, 18945, Note_on_c, 2, 84, 0
5, 19200, Note_on_c, 2, 84, 80
5, 19305, Note_on_c, 2, 84, 0
5, 19320, Note_on_c, 2, 82, 80
5, 19425, Note_on_c, 2, 82, 0
5, 19440, Note_on_c, 2, 78, 80
5, 19545, Note_on_c, 2, 78, 0
5, 19560, Note_on_c, 2, 79, 80
5, 19665, Note_on_c, 2, 79, 0
5, 19680, Note_on_c, 2, 73, 80
5, 19785, Note_on_c, 2, 73, 0
5, 19800, Note_on_c, 2, 74, 80
5, 19905, Note_on_c, 2, 74, 0
5, 21480, Note_on_c, 2, 70, 80
5, 21585, Note_on_c, 2, 70, 0
5, 21600, Note_on_c, 2, 74, 80
5, 21705, Note_on_c, 2, 74, 0
5, 21840, Note_on_c, 2, 70, 80
5, 21945, Note_on_c, 2, 70, 0
5, 21960, Note_on_c, 2, 79, 80
5, 22065, Note_on_c, 2, 79, 0
5, 22560, Note_on_c, 2, 76, 80
5, 22665, Note_on_c, 2, 76, 0
5, 22680, Note_on_c, 2, 77, 80
5, 22785, Note_on_c, 2, 77, 0
5, 22920, Note_on_c, 2, 77, 80
5, 23025, Note_on_c, 2, 77, 0
5, 23160, Note_on_c, 2, 75, 80
5, 23265, Note_on_c, 2, 75, 0
5, 23400, Note_on_c, 2, 75, 80
5, 23505, Note_on_c, 2, 75, 0
5, 23640, Note_on_c, 2, 74, 80
5, 23745, Note_on_c, 2, 74, 0
5, 23880, Note_on_c, 2, 74, 80
5, 23985, Note_on_c, 2, 74, 0
5, 24120, Note_on_c, 2, 73, 80
5, 24225, Note_on_c, 2, 73, 0
5, 24360, Note_on_c, 2, 73, 80
5, 24465, Note_on_c, 2, 73, 0
5, 24600, Note_on_c, 2, 72, 80
5, 24705, Note_on_c, 2, 72, 0
5, 24840, Note_on_c, 2, 72, 80
5, 24945, Note_on_c, 2, 72, 0
5, 25080, Note_on_c, 2, 71, 80
5, 25185, Note_on_c, 2, 71, 0
5, 25320, Note_on_c, 2, 71, 80
5, 25425, Note_on_c, 2, 71, 0
5, 25560, Note_on_c, 2, 70, 80
5, 25665, Note_on_c, 2, 70, 0
5, 25800, Note_on_c, 2, 70, 80
5, 25905, Note_on_c, 2, 70, 0
5, 26040, Note_on_c, 2, 69, 80
5, 26145, Note_on_c, 2, 69, 0
5, 26280, Note_on_c, 2, 69, 80
5, 26385, Note_on_c, 2, 69, 0
5, 26520, Note_on_c, 2, 67, 80
5, 26625, Note_on_c, 2, 67, 0
5, 26760, Note_on_c, 2, 67, 80
5, 26865, Note_on_c, 2, 67, 0
5, 27000, Note_on_c, 2, 69, 80
5, 27105, Note_on_c, 2, 69, 0
5, 27360, Note_on_c, 2, 69, 80
5, 27465, Note_on_c, 2, 69, 0
5, 27480, Note_on_c, 2, 70, 80
5, 27585, Note_on_c, 2, 70, 0
5, 27840, Note_on_c, 2, 70, 80
5, 27945, Note_on_c, 2, 70, 0
5, 27960, Note_on_c, 2, 72, 80
5, 28065, Note_on_c, 2, 72, 0
5, 28320, Note_on_c, 2, 72, 80
5, 28425, Note_on_c, 2, 72, 0
5, 28440, Note_on_c, 2, 73, 80
5, 28545, Note_on_c, 2, 73, 0
5, 28800, Note_on_c, 2, 73, 80
5, 28905, Note_on_c, 2, 73, 0
5, 28920, Note_on_c, 2, 76, 80
5, 29025, Note_on_c, 2, 76, 0
5, 29280, Note_on_c, 2, 76, 80
5, 29385, Note_on_c, 2, 76, 0
5, 29400, Note_on_c, 2, 77, 80
5, 29505, Note_on_c, 2, 77, 0
5, 29760, Note_on_c, 2, 75, 80
5, 29865, Note_on_c, 2, 75, 0
5, 29880, Note_on_c, 2, 73, 80
5, 29985, Note_on_c, 2, 73, 0
5, 30480, Note_on_c, 2, 70, 80
5, 30585, Note_on_c, 2, 70, 0
5, 30615, Note_on_c, 2, 82, 80
5, 30825, Note_on_c, 2, 82, 0
5, 30840, Note_on_c, 2, 81, 80
5, 30945, Note_on_c, 2, 81, 0
5, 31200, Note_on_c, 2, 81, 80
5, 31305, Note_on_c, 2, 81, 0
5, 31320, Note_on_c, 2, 82, 80
5, 31425, Note_on_c, 2, 82, 0
5, 31680, Note_on_c, 2, 82, 80
5, 31785, Note_on_c, 2, 82, 0
5, 31800, Note_on_c, 2, 79, 80
5, 31905, Note_on_c, 2, 79, 0
5, 32160, Note_on_c, 2, 79, 80
5, 32265, Note_on_c, 2, 79, 0
5, 32280, Note_on_c, 2, 78, 80
5, 32385, Note_on_c, 2, 78, 0
5, 32640, Note_on_c, 2, 78, 80
5, 32745, Note_on_c, 2, 78, 0
5, 32760, Note_on_c, 2, 79, 80
5, 32865, Note_on_c, 2, 79, 0
5, 33120, Note_on_c, 2, 79, 80
5, 33225, Note_on_c, 2, 79, 0
5, 33240, Note_on_c, 2, 81, 80
5, 33345, Note_on_c, 2, 81, 0
5, 33600, Note_on_c, 2, 81, 80
5, 33705, Note_on_c, 2, 81, 0
5, 33720, Note_on_c, 2, 82, 80
5, 33825, Note_on_c, 2, 82, 0
5, 34080, Note_on_c, 2, 82, 80
5, 34185, Note_on_c, 2, 82, 0
5, 34200, Note_on_c, 2, 84, 80
5, 34305, Note_on_c, 2, 84, 0
5, 34560, Note_on_c, 2, 84, 80
5, 34665, Note_on_c, 2, 84, 0
5, 34680, Note_on_c, 2, 82, 80
5, 34785, Note_on_c, 2, 82, 0
5, 34800, Note_on_c, 2, 78, 80
5, 34905, Note_on_c, 2, 78, 0
5, 34920, Note_on_c, 2, 79, 80
5, 35025, Note_on_c, 2, 79, 0
5, 35040, Note_on_c, 2, 73, 80
5, 35145, Note_on_c, 2, 73, 0
5, 35160, Note_on_c, 2, 74, 80
5, 35265, Note_on_c, 2, 74, 0
5, 36840, Note_on_c, 2, 70, 80
5, 36945, Note_on_c, 2, 70, 0
5, 36960, Note_on_c, 2, 74, 80
5, 37065, Note_on_c, 2, 74, 0
5, 37200, Note_on_c, 2, 70, 80
5, 37305, Note_on_c, 2, 70, 0
5, 37320, Note_on_c, 2, 79, 80
5, 37425, Note_on_c, 2, 79, 0
5, 37920, Note_on_c, 2, 76, 80
5, 38025, Note_on_c, 2, 76, 0
5, 38040, Note_on_c, 2, 77, 80
5, 38145, Note_on_c, 2, 77, 0
5, 38280, Note_on_c, 2, 77, 80
5, 38385, Note_on_c, 2, 77, 0
5, 38520, Note_on_c, 2, 75, 80
5, 38625, Note_on_c, 2, 75, 0
5, 38760, Note_on_c, 2, 75, 80
5, 38865, Note_on_c, 2, 75, 0
5, 39000, Note_on_c, 2, 74, 80
5, 39105, Note_on_c, 2, 74, 0
5, 39240, Note_on_c, 2, 74, 80
5, 39345, Note_on_c, 2, 74, 0
5, 39480, Note_on_c, 2, 73, 80
5, 39585, Note_on_c, 2, 73, 0
5, 39720, Note_on_c, 2, 73, 80
5, 39825, Note_on_c, 2, 73, 0
5, 39960, Note_on_c, 2, 72, 80
5, 40065, Note_on_c, 2, 72, 0
5, 40200, Note_on_c, 2, 72, 80
5, 40305, Note_on_c, 2, 72, 0
5, 40440, Note_on_c, 2, 71, 80
5, 40545, Note_on_c, 2, 71, 0
5, 40680, Note_on_c, 2, 71, 80
5, 40785, Note_on_c, 2, 71, 0
5, 40920, Note_on_c, 2, 70, 80
5, 41025, Note_on_c, 2, 70, 0
5, 41160, Note_on_c, 2, 70, 80
5, 41265, Note_on_c, 2, 70, 0
5, 41400, Note_on_c, 2, 69, 80
5, 41505, Note_on_c, 2, 69, 0
5, 41640, Note_on_c, 2, 69, 80
5, 41745, Note_on_c, 2, 69, 0
5, 41880, Note_on_c, 2, 67, 80
5, 41985, Note_on_c, 2, 67, 0
5, 42120, Note_on_c, 2, 67, 80
5, 42225, Note_on_c, 2, 67, 0
5, 42360, Note_on_c, 2, 69, 80
5, 42465, Note_on_c, 2, 69, 0
5, 42720, Note_on_c, 2, 69, 80
5, 42825, Note_on_c, 2, 69, 0
5, 42840, Note_on_c, 2, 70, 80
5, 42945, Note_on_c, 2, 70, 0
5, 43200, Note_on_c, 2, 70, 80
5, 43305, Note_on_c, 2, 70, 0
5, 43320, Note_on_c, 2, 72, 80
5, 43425, Note_on_c, 2, 72, 0
5, 43680, Note_on_c, 2, 72, 80
5, 43785, Note_on_c, 2, 72, 0
5, 43800, Note_on_c, 2, 73, 80
5, 43905, Note_on_c, 2, 73, 0
5, 44160, Note_on_c, 2, 73, 80
5, 44265, Note_on_c, 2, 73, 0
5, 44280, Note_on_c, 2, 76, 80
5, 44385, Note_on_c, 2, 76, 0
5, 44640, Note_on_c, 2, 76, 80
5, 44745, Note_on_c, 2, 76, 0
5, 44760, Note_on_c, 2, 77, 80
5, 44865, Note_on_c, 2, 77, 0
5, 45120, Note_on_c, 2, 75, 80
5, 45225, Note_on_c, 2, 75, 0
5, 45240, Note_on_c, 2, 73, 80
5, 45345, Note_on_c, 2, 73, 0
5, 45840, Note_on_c, 2, 70, 80
5, 45945, Note_on_c, 2, 70, 0
5, 45975, Note_on_c, 2, 82, 80
5, 46185, Note_on_c, 2, 82, 0
5, 46185, End_track
6, 0, Start_track
6, 0, MIDI_port, 0
6, 0, Program_c, 2, 0
6, 0, Control_c, 2, 7, 100
6, 0, Control_c, 2, 10, 64
6, 240, Note_on_c, 2, 58, 80
6, 345, Note_on_c, 2, 58, 0
6, 360, Note_on_c, 2, 46, 80
6, 465, Note_on_c, 2, 46, 0
6, 720, Note_on_c, 2, 68, 80
6, 825, Note_on_c, 2, 68, 0
6, 840, Note_on_c, 2, 67, 80
6, 945, Note_on_c, 2, 67, 0
6, 1200, Note_on_c, 2, 66, 80
6, 1305, Note_on_c, 2, 66, 0
6, 1320, Note_on_c, 2, 65, 80
6, 1425, Note_on_c, 2, 65, 0
6, 1680, Note_on_c, 2, 58, 80
6, 1785, Note_on_c, 2, 58, 0
6, 1800, Note_on_c, 2, 46, 80
6, 1905, Note_on_c, 2, 46, 0
6, 2160, Note_on_c, 2, 69, 80
6, 2265, Note_on_c, 2, 69, 0
6, 2280, Note_on_c, 2, 67, 80
6, 2293, Note_on_c, 2, 67, 0
6, 2295, Note_on_c, 2, 69, 80
6, 2308, Note_on_c, 2, 69, 0
6, 2310, Note_on_c, 2, 67, 80
6, 2323, Note_on_c, 2, 67, 0
6, 2325, Note_on_c, 2, 69, 80
6, 2338, Note_on_c, 2, 69, 0
6, 2340, Note_on_c, 2, 67, 80
6, 2392, Note_on_c, 2, 67, 0
6, 2400, Note_on_c, 2, 65, 80
6, 2505, Note_on_c, 2, 65, 0
6, 2520, Note_on_c, 2, 64, 80
6, 2625, Note_on_c, 2, 64, 0
6, 2640, Note_on_c, 2, 67, 80
6, 2745, Note_on_c, 2, 67, 0
6, 2760, Note_on_c, 2, 60, 80
6, 2865, Note_on_c, 2, 60, 0
6, 3120, Note_on_c, 2, 67, 80
6, 3225, Note_on_c, 2, 67, 0
6, 3240, Note_on_c, 2, 65, 80
6, 3253, Note_on_c, 2, 65, 0
6, 3255, Note_on_c, 2, 67, 80
6, 3268, Note_on_c, 2, 67, 0
6, 3270, Note_on_c, 2, 65, 80
6, 3283, Note_on_c, 2, 65, 0
6, 3285, Note_on_c, 2, 67, 80
6, 3298, Note_on_c, 2, 67, 0
6, 3300, Note_on_c, 2, 65, 80
6, 3352, Note_on_c, 2, 65, 0
6, 3360, Note_on_c, 2, 64, 80
6, 3465, Note_on_c, 2, 64, 0
6, 3480, Note_on_c, 2, 62, 80
6, 3585, Note_on_c, 2, 62, 0
6, 3600, Note_on_c, 2, 65, 80
6, 3705, Note_on_c, 2, 65, 0
6, 3720, Note_on_c, 2, 58, 80
6, 3825, Note_on_c, 2, 58, 0
6, 4080, Note_on_c, 2, 61, 80
6, 4185, Note_on_c, 2, 61, 0
6, 4200, Note_on_c, 2, 60, 80
6, 4305, Note_on_c, 2, 60, 0
6, 4560, Note_on_c, 2, 61, 80
6, 4665, Note_on_c, 2, 61, 0
6, 4680, Note_on_c, 2, 60, 80
6, 4785, Note_on_c, 2, 60, 0
6, 5040, Note_on_c, 2, 61, 80
6, 5145, Note_on_c, 2, 61, 0
6, 5160, Note_on_c, 2, 60, 80
6, 5265, Note_on_c, 2, 60, 0
6, 5520, Note_on_c, 2, 61, 80
6, 5625, Note_on_c, 2, 61, 0
6, 5640, Note_on_c, 2, 60, 80
6, 5745, Note_on_c, 2, 60, 0
6, 6000, Note_on_c, 2, 56, 80
6, 6105, Note_on_c, 2, 56, 0
6, 6120, Note_on_c, 2, 55, 80
6, 6225, Note_on_c, 2, 55, 0
6, 6480, Note_on_c, 2, 49, 80
6, 6585, Note_on_c, 2, 49, 0
6, 6600, Note_on_c, 2, 48, 80
6, 6705, Note_on_c, 2, 48, 0
6, 6960, Note_on_c, 2, 59, 80
6, 7065, Note_on_c, 2, 59, 0
6, 7080, Note_on_c, 2, 60, 80
6, 7185, Note_on_c, 2, 60, 0
6, 7200, Note_on_c, 2, 48, 80
6, 7305, Note_on_c, 2, 48, 0
6, 7320, Note_on_c, 2, 41, 80
6, 7425, Note_on_c, 2, 41, 0
6, 7920, Note_on_c, 2, 58, 80
6, 8025, Note_on_c, 2, 58, 0
6, 8040, Note_on_c, 2, 46, 80
6, 8145, Note_on_c, 2, 46, 0
6, 8400, Note_on_c, 2, 68, 80
6, 8505, Note_on_c, 2, 68, 0
6, 8520, Note_on_c, 2, 67, 80
6, 8625, Note_on_c, 2, 67, 0
6, 8880, Note_on_c, 2, 66, 80
6, 8985, Note_on_c, 2, 66, 0
6, 9000, Note_on_c, 2, 65, 80
6, 9105, Note_on_c, 2, 65, 0
6, 9360, Note_on_c, 2, 58, 80
6, 9465, Note_on_c, 2, 58, 0
6, 9480, Note_on_c, 2, 46, 80
6, 9585, Note_on_c, 2, 46, 0
6, 9840, Note_on_c, 2, 69, 80
6, 9945, Note_on_c, 2, 69, 0
6, 9960, Note_on_c, 2, 67, 80
6, 9973, Note_on_c, 2, 67, 0
6, 9975, Note_on_c, 2, 69, 80
6, 9988, Note_on_c, 2, 69, 0
6, 9990, Note_on_c, 2, 67, 80
6, 10003, Note_on_c, 2, 67, 0
6, 10005, Note_on_c, 2, 69, 80
6, 10018, Note_on_c, 2, 69, 0
6, 10020, Note_on_c, 2, 67, 80
6, 10072, Note_on_c, 2, 67, 0
6, 10080, Note_on_c, 2, 65, 80
6, 10185, Note_on_c, 2, 65, 0
6, 10200, Note_on_c, 2, 64, 80
6, 10305, Note_on_c, 2, 64, 0
6, 10320, Note_on_c, 2, 67, 80
6, 10425, Note_on_c, 2, 67, 0
6, 10440, Note_on_c, 2, 60, 80
6, 10545, Note_on_c, 2, 60, 0
6, 10800, Note_on_c, 2, 67, 80
6, 10905, Note_on_c, 2, 67, 0
6, 10920, Note_on_c, 2, 65, 80
6, 10933, Note_on_c, 2, 65, 0
6, 10935, Note_on_c, 2, 67, 80
6, 10948, Note_on_c, 2, 67, 0
6, 10950, Note_on_c, 2, 65, 80
6, 10963, Note_on_c, 2, 65, 0
6, 10965, Note_on_c, 2, 67, 80
6, 10978, Note_on_c, 2, 67, 0
6, 10980, Note_on_c, 2, 65, 80
6, 11032, Note_on_c, 2, 65, 0
6, 11040, Note_on_c, 2, 64, 80
6, 11145, Note_on_c, 2, 64, 0
6, 11160, Note_on_c, 2, 62, 80
6, 11265, Note_on_c, 2, 62, 0
6, 11280, Note_on_c, 2, 65, 80
6, 11385, Note_on_c, 2, 65, 0
6, 11400, Note_on_c, 2, 58, 80
6, 11505, Note_on_c, 2, 58, 0
6, 11760, Note_on_c, 2, 61, 80
6, 11865, Note_on_c, 2, 61, 0
6, 11880, Note_on_c, 2, 60, 80
6, 11985, Note_on_c, 2, 60, 0
6, 12240, Note_on_c, 2, 61, 80
6, 12345, Note_on_c, 2, 61, 0
6, 12360, Note_on_c, 2, 60, 80
6, 12465, Note_on_c, 2, 60, 0
6, 12720, Note_on_c, 2, 61, 80
6, 12825, Note_on_c, 2, 61, 0
6, 12840, Note_on_c, 2, 60, 80
6, 12945, Note_on_c, 2, 60, 0
6, 13200, Note_on_c, 2, 61, 80
6, 13305, Note_on_c, 2, 61, 0
6, 13320, Note_on_c, 2, 60, 80
6, 13425, Note_on_c, 2, 60, 0
6, 13680, Note_on_c, 2, 56, 80
6, 13785, Note_on_c, 2, 56, 0
6, 13800, Note_on_c, 2, 55, 80
6, 13905, Note_on_c, 2, 55, 0
6, 14160, Note_on_c, 2, 49, 80
6, 14265, Note_on_c, 2, 49, 0
6, 14280, Note_on_c, 2, 48, 80
6, 14385, Note_on_c, 2, 48, 0
6, 14640, Note_on_c, 2, 59, 80
6, 14745, Note_on_c, 2, 59, 0
6, 14760, Note_on_c, 2, 60, 80
6, 14865, Note_on_c, 2, 60, 0
6, 14880, Note_on_c, 2, 48, 80
6, 14985, Note_on_c, 2, 48, 0
6, 15000, Note_on_c, 2, 41, 80
6, 15105, Note_on_c, 2, 41, 0
6, 15600, Note_on_c, 2, 63, 80
6, 15705, Note_on_c, 2, 63, 0
6, 15720, Note_on_c, 2, 53, 80
6, 15825, Note_on_c, 2, 53, 0
6, 16080, Note_on_c, 2, 68, 80
6, 16185, Note_on_c, 2, 68, 0
6, 16200, Note_on_c, 2, 58, 80
6, 16305, Note_on_c, 2, 58, 0
6, 16560, Note_on_c, 2, 70, 80
6, 16665, Note_on_c, 2, 70, 0
6, 16680, Note_on_c, 2, 69, 80
6, 16785, Note_on_c, 2, 69, 0
6, 17040, Note_on_c, 2, 67, 80
6, 17145, Note_on_c, 2, 67, 0
6, 17160, Note_on_c, 2, 69, 80
6, 17265, Note_on_c, 2, 69, 0
6, 17520, Note_on_c, 2, 63, 80
6, 17625, Note_on_c, 2, 63, 0
6, 17640, Note_on_c, 2, 62, 80
6, 17745, Note_on_c, 2, 62, 0
6, 18000, Note_on_c, 2, 63, 80
6, 18105, Note_on_c, 2, 63, 0
6, 18120, Note_on_c, 2, 62, 80
6, 18225, Note_on_c, 2, 62, 0
6, 18480, Note_on_c, 2, 63, 80
6, 18585, Note_on_c, 2, 63, 0
6, 18600, Note_on_c, 2, 62, 80
6, 18705, Note_on_c, 2, 62, 0
6, 18960, Note_on_c, 2, 63, 80
6, 19065, Note_on_c, 2, 63, 0
6, 19080, Note_on_c, 2, 62, 80
6, 19185, Note_on_c, 2, 62, 0
6, 19920, Note_on_c, 2, 67, 80
6, 20025, Note_on_c, 2, 67, 0
6, 20040, Note_on_c, 2, 66, 80
6, 20145, Note_on_c, 2, 66, 0
6, 20160, Note_on_c, 2, 63, 80
6, 20265, Note_on_c, 2, 63, 0
6, 20280, Note_on_c, 2, 62, 80
6, 20385, Note_on_c, 2, 62, 0
6, 20400, Note_on_c, 2, 61, 80
6, 20505, Note_on_c, 2, 61, 0
6, 20520, Note_on_c, 2, 62, 80
6, 20625, Note_on_c, 2, 62, 0
6, 20640, Note_on_c, 2, 50, 80
6, 20745, Note_on_c, 2, 50, 0
6, 20760, Note_on_c, 2, 43, 80
6, 20865, Note_on_c, 2, 43, 0
6, 20880, Note_on_c, 2, 50, 80
6, 20985, Note_on_c, 2, 50, 0
6, 21000, Note_on_c, 2, 55, 80
6, 21105, Note_on_c, 2, 55, 0
6, 21120, Note_on_c, 2, 58, 80
6, 21225, Note_on_c, 2, 58, 0
6, 21240, Note_on_c, 2, 62, 80
6, 21345, Note_on_c, 2, 62, 0
6, 21360, Note_on_c, 2, 65, 80
6, 21465, Note_on_c, 2, 65, 0
6, 21720, Note_on_c, 2, 63, 80
6, 21825, Note_on_c, 2, 63, 0
6, 22080, Note_on_c, 2, 62, 80
6, 22185, Note_on_c, 2, 62, 0
6, 22200, Note_on_c, 2, 60, 80
6, 22305, Note_on_c, 2, 60, 0
6, 22320, Note_on_c, 2, 65, 80
6, 22425, Note_on_c, 2, 65, 0
6, 22440, Note_on_c, 2, 58, 80
6, 22545, Note_on_c, 2, 58, 0
6, 22800, Note_on_c, 2, 65, 80
6, 22905, Note_on_c, 2, 65, 0
6, 23040, Note_on_c, 2, 65, 80
6, 23145, Note_on_c, 2, 65, 0
6, 23280, Note_on_c, 2, 65, 80
6, 23385, Note_on_c, 2, 65, 0
6, 23520, Note_on_c, 2, 65, 80
6, 23625, Note_on_c, 2, 65, 0
6, 23760, Note_on_c, 2, 65, 80
6, 23865, Note_on_c, 2, 65, 0
6, 24000, Note_on_c, 2, 65, 80
6, 24105, Note_on_c, 2, 65, 0
6, 24240, Note_on_c, 2, 64, 80
6, 24345, Note_on_c, 2, 64, 0
6, 24480, Note_on_c, 2, 64, 80
6, 24585, Note_on_c, 2, 64, 0
6, 24720, Note_on_c, 2, 63, 80
6, 24825, Note_on_c, 2, 63, 0
6, 24960, Note_on_c, 2, 63, 80
6, 25065, Note_on_c, 2, 63, 0
6, 25200, Note_on_c, 2, 62, 80
6, 25305, Note_on_c, 2, 62, 0
6, 25440, Note_on_c, 2, 62, 80
6, 25545, Note_on_c, 2, 62, 0
6, 25680, Note_on_c, 2, 61, 80
6, 25785, Note_on_c, 2, 61, 0
6, 25920, Note_on_c, 2, 61, 80
6, 26025, Note_on_c, 2, 61, 0
6, 26160, Note_on_c, 2, 60, 80
6, 26265, Note_on_c, 2, 60, 0
6, 26400, Note_on_c, 2, 60, 80
6, 26505, Note_on_c, 2, 60, 0
6, 26640, Note_on_c, 2, 58, 80
6, 26745, Note_on_c, 2, 58, 0
6, 26880, Note_on_c, 2, 58, 80
6, 26985, Note_on_c, 2, 58, 0
6, 27120, Note_on_c, 2, 54, 80
6, 27225, Note_on_c, 2, 54, 0
6, 27240, Note_on_c, 2, 53, 80
6, 27345, Note_on_c, 2, 53, 0
6, 27600, Note_on_c, 2, 54, 80
6, 27705, Note_on_c, 2, 54, 0
6, 27720, Note_on_c, 2, 53, 80
6, 27825, Note_on_c, 2, 53, 0
6, 28080, Note_on_c, 2, 54, 80
6, 28185, Note_on_c, 2, 54, 0
6, 28200, Note_on_c, 2, 53, 80
6, 28305, Note_on_c, 2, 53, 0
6, 28560, Note_on_c, 2, 54, 80
6, 28665, Note_on_c, 2, 54, 0
6, 28680, Note_on_c, 2, 53, 80
6, 28785, Note_on_c, 2, 53, 0
6, 29040, Note_on_c, 2, 49, 80
6, 29145, Note_on_c, 2, 49, 0
6, 29160, Note_on_c, 2, 48, 80
6, 29265, Note_on_c, 2, 48, 0
6, 29520, Note_on_c, 2, 42, 80
6, 29625, Note_on_c, 2, 42, 0
6, 29640, Note_on_c, 2, 41, 80
6, 29745, Note_on_c, 2, 41, 0
6, 30000, Note_on_c, 2, 52, 80
6, 30105, Note_on_c, 2, 52, 0
6, 30120, Note_on_c, 2, 53, 80
6, 30225, Note_on_c, 2, 53, 0
6, 30240, Note_on_c, 2, 41, 80
6, 30345, Note_on_c, 2, 41, 0
6, 30360, Note_on_c, 2, 46, 80
6, 30465, Note_on_c, 2, 46, 0
6, 30960, Note_on_c, 2, 63, 80
6, 31065, Note_on_c, 2, 63, 0
6, 31080, Note_on_c, 2, 53, 80
6, 31185, Note_on_c, 2, 53, 0
6, 31440, Note_on_c, 2, 68, 80
6, 31545, Note_on_c, 2, 68, 0
6, 31560, Note_on_c, 2, 58, 80
6, 31665, Note_on_c, 2, 58, 0
6, 31920, Note_on_c, 2, 70, 80
6, 32025, Note_on_c, 2, 70, 0
6, 32040, Note_on_c, 2, 69, 80
6, 32145, Note_on_c, 2, 69, 0
6, 32400, Note_on_c, 2, 67, 80
6, 32505, Note_on_c, 2, 67, 0
6, 32520, Note_on_c, 2, 69, 80
6, 32625, Note_on_c, 2, 69, 0
6, 32880, Note_on_c, 2, 63, 80
6, 32985, Note_on_c, 2, 63, 0
6, 33000, Note_on_c, 2, 62, 80
6, 33105, Note_on_c, 2, 62, 0
6, 33360, Note_on_c, 2, 63, 80
6, 33465, Note_on_c, 2, 63, 0
6, 33480, Note_on_c, 2, 62, 80
6, 33585, Note_on_c, 2, 62, 0
6, 33840, Note_on_c, 2, 63, 80
6, 33945, Note_on_c, 2, 63, 0
6, 33960, Note_on_c, 2, 62, 80
6, 34065, Note_on_c, 2, 62, 0
6, 34320, Note_on_c, 2, 63, 80
6, 34425, Note_on_c, 2, 63, 0
6, 34440, Note_on_c, 2, 62, 80
6, 34545, Note_on_c, 2, 62, 0
6, 35280, Note_on_c, 2, 67, 80
6, 35385, Note_on_c, 2, 67, 0
6, 35400, Note_on_c, 2, 66, 80
6, 35505, Note_on_c, 2, 66, 0
6, 35520, Note_on_c, 2, 63, 80
6, 35625, Note_on_c, 2, 63, 0
6, 35640, Note_on_c, 2, 62, 80
6, 35745, Note_on_c, 2, 62, 0
6, 35760, Note_on_c, 2, 61, 80
6, 35865, Note_on_c, 2, 61, 0
6, 35880, Note_on_c, 2, 62, 80
6, 35985, Note_on_c, 2, 62, 0
6, 36000, Note_on_c, 2, 50, 80
6, 36105, Note_on_c, 2, 50, 0
6, 36120, Note_on_c, 2, 43, 80
6, 36225, Note_on_c, 2, 43, 0
6, 36240, Note_on_c, 2, 50, 80
6, 36345, Note_on_c, 2, 50, 0
6, 36360, Note_on_c, 2, 55, 80
6, 36465, Note_on_c, 2, 55, 0
6, 36480, Note_on_c, 2, 58, 80
6, 36585, Note_on_c, 2, 58, 0
6, 36600, Note_on_c, 2, 62, 80
6, 36705, Note_on_c, 2, 62, 0
6, 36720, Note_on_c, 2, 65, 80
6, 36825, Note_on_c, 2, 65, 0
6, 37080, Note_on_c, 2, 63, 80
6, 37185, Note_on_c, 2, 63, 0
6, 37440, Note_on_c, 2, 62, 80
6, 37545, Note_on_c, 2, 62, 0
6, 37560, Note_on_c, 2, 60, 80
6, 37665, Note_on_c, 2, 60, 0
6, 37680, Note_on_c, 2, 65, 80
6, 37785, Note_on_c, 2, 65, 0
6, 37800, Note_on_c, 2, 58, 80
6, 37905, Note_on_c, 2, 58, 0
6, 38160, Note_on_c, 2, 65, 80
6, 38265, Note_on_c, 2, 65, 0
6, 38400, Note_on_c, 2, 65, 80
6, 38505, Note_on_c, 2, 65, 0
6, 38640, Note_on_c, 2, 65, 80
6, 38745, Note_on_c, 2, 65, 0
6, 38880, Note_on_c, 2, 65, 80
6, 38985, Note_on_c, 2, 65, 0
6, 39120, Note_on_c, 2, 65, 80
6, 39225, Note_on_c, 2, 65, 0
6, 39360, Note_on_c, 2, 65, 80
6, 39465, Note_on_c, 2, 65, 0
6, 39600, Note_on_c, 2, 64, 80
6, 39705, Note_on_c, 2, 64, 0
6, 39840, Note_on_c, 2, 64, 80
6, 39945, Note_on_c, 2, 64, 0
6, 40080, Note_on_c, 2, 63, 80
6, 40185, Note_on_c, 2, 63, 0
6, 40320, Note_on_c, 2, 63, 80
6, 40425, Note_on_c, 2, 63, 0
6, 40560, Note_on_c, 2, 62, 80
6, 40665, Note_on_c, 2, 62, 0
6, 40800, Note_on_c, 2, 62, 80
6, 40905, Note_on_c, 2, 62, 0
6, 41040, Note_on_c, 2, 61, 80
6, 41145, Note_on_c, 2, 61, 0
6, 41280, Note_on_c, 2, 61, 80
6, 41385, Note_on_c, 2, 61, 0
6, 41520, Note_on_c, 2, 60, 80
6, 41625, Note_on_c, 2, 60, 0
6, 41760, Note_on_c, 2, 60, 80
6, 41865, Note_on_c, 2, 60, 0
6, 42000, Note_on_c, 2, 58, 80
6, 42105, Note_on_c, 2, 58, 0
6, 42240, Note_on_c, 2, 58, 80
6, 42345, Note_on_c, 2, 58, 0
6, 42480, Note_on_c, 2, 54, 80
6, 42585, Note_on_c, 2, 54, 0
6, 42600, Note_on_c, 2, 53, 80
6, 42705, Note_on_c, 2, 53, 0
6, 42960, Note_on_c, 2, 54, 80
6, 43065, Note_on_c, 2, 54, 0
6, 43080, Note_on_c, 2, 53, 80
6, 43185, Note_on_c, 2, 53, 0
6, 43440, Note_on_c, 2, 54, 80
6, 43545, Note_on_c, 2, 54, 0
6, 43560, Note_on_c, 2, 53, 80
6, 43665, Note_on_c, 2, 53, 0
6, 43920, Note_on_c, 2, 54, 80
6, 44025, Note_on_c, 2, 54, 0
6, 44040, Note_on_c, 2, 53, 80
6, 44145, Note_on_c, 2, 53, 0
6, 44400, Note_on_c, 2, 49, 80
6, 44505, Note_on_c, 2, 49, 0
6, 44520, Note_on_c, 2, 48, 80
6, 44625, Note_on_c, 2, 48, 0
6, 44880, Note_on_c, 2, 42, 80
6, 44985, Note_on_c, 2, 42, 0
6, 45000, Note_on_c, 2, 41, 80
6, 45105, Note_on_c, 2, 41, 0
6, 45360, Note_on_c, 2, 52, 80
6, 45465, Note_on_c, 2, 52, 0
6, 45480, Note_on_c, 2, 53, 80
6, 45585, Note_on_c, 2, 53, 0
6, 45600, Note_on_c, 2, 41, 80
6, 45705, Note_on_c, 2, 41, 0
6, 45720, Note_on_c, 2, 46, 80
6, 45825, Note_on_c, 2, 46, 0
6, 45825, End_track
0, 0, End_of_file
