0, 0, Header, 1, 5, 480
1, 0, Start_track
1, 0, SMPTE_offset, 96, 0, 0, 0, 0
1, 0, Tempo, 1200000
1, 0, Time_signature, 3, 2, 24, 8
1, 22828, Tempo, 1224489
1, 22832, Tempo, 1250000
1, 22856, Tempo, 1276595
1, 22892, Tempo, 1304347
1, 22928, Tempo, 1333333
1, 22936, Tempo, 1363636
1, 22988, Tempo, 1395348
1, 23036, Tempo, 1153846
1, 23044, Tempo, 1200000
1, 33640, Tempo, 1200000
1, 33672, Tempo, 1224489
1, 33676, Tempo, 1250000
1, 33688, Tempo, 1276595
1, 33696, Tempo, 1304347
1, 33720, Tempo, 1363636
1, 33740, Tempo, 1395348
1, 33768, Tempo, 1428571
1, 33836, Tempo, 1463414
1, 33848, Tempo, 1500000
1, 33916, Tempo, 1463414
1, 33924, Tempo, 1428571
1, 33932, Tempo, 1395348
1, 33944, Tempo, 1363636
1, 33960, Tempo, 1304347
1, 33976, Tempo, 1276595
1, 33992, Tempo, 1250000
1, 34012, Tempo, 1224489
1, 34024, Tempo, 1200000
1, 45372, Tempo, 1224489
1, 45384, Tempo, 1250000
1, 45404, Tempo, 1276595
1, 45432, Tempo, 1304347
1, 45436, Tempo, 1333333
1, 45480, Tempo, 1363636
1, 45512, Tempo, 1395348
1, 45588, Tempo, 1428571
1, 45592, Tempo, 1463414
1, 45624, Tempo, 1500000
1, 45648, Tempo, 1538461
1, 45688, Tempo, 1621621
1, 45720, Tempo, 1666666
1, 45784, Tempo, 1714285
1, 45812, Tempo, 1764705
1, 45824, Tempo, 1818181
1, 45856, Tempo, 1875000
1, 45872, Tempo, 1935483
1, 45900, Tempo, 2000000
1, 45916, Tempo, 2068965
1, 45936, Tempo, 2142857
1, 45964, Tempo, 2222222
1, 45996, Tempo, 2400000
1, 46012, Tempo, 2500000
1, 46028, Tempo, 2608695
1, 46084, Tempo, 517241
1, 91700, Tempo, 4000000
1, 92160, Tempo, 666666
1, 153600, Tempo, 666666
1, 248640, Tempo, 800000
1, 293944, Tempo, 810810
1, 293960, Tempo, 845070
1, 293976, Tempo, 857142
1, 293988, Tempo, 882352
1, 294028, Tempo, 909090
1, 294044, Tempo, 952380
1, 294056, Tempo, 967741
1, 294064, Tempo, 1000000
1, 294072, Tempo, 1016949
1, 294076, Tempo, 1034482
1, 294348, Tempo, 1016949
1, 294356, Tempo, 1034482
1, 294368, Tempo, 1071428
1, 294380, Tempo, 1090909
1, 294396, Tempo, 1111111
1, 294404, Tempo, 6000000
1, 294416, Tempo, 5000000
1, 294720, Tempo, 545454
1, 365280, Tempo, 500000
1, 412080, Tempo, 750000
1, 458160, Tempo, 600000
1, 505680, Tempo, 666666
1, 551760, Tempo, 428571
1, 676560, Tempo, 571428
1, 724080, Tempo, 705882
1, 817680, Tempo, 750000
1, 953040, Tempo, 631578
1, 1000560, Tempo, 2142857
1, 1061668, Tempo, 2222222
1, 1061684, Tempo, 2307692
1, 1061696, Tempo, 2400000
1, 1061700, Tempo, 2500000
1, 1061720, Tempo, 2608695
1, 1061732, Tempo, 2727272
1, 1061752, Tempo, 2857142
1, 1061760, Tempo, 3000000
1, 1061780, Tempo, 3157894
1, 1061784, Tempo, 3333333
1, 1061812, Tempo, 3750000
1, 1061824, Tempo, 4000000
1, 1061836, Tempo, 4285714
1, 1061848, Tempo, 4615384
1, 1061856, Tempo, 5000000
1, 1061864, Tempo, 5454545
1, 1061876, Tempo, 6000000
1, 1061904, Tempo, 6000000
1, 1061912, Tempo, 6000000
1, 1061924, Tempo, 6000000
1, 1061960, Tempo, 6000000
1, 1061984, Tempo, 6000000
1, 1062000, Tempo, 779220
1, 1168800, Tempo, 545454
1, 1216320, Tempo, 400000
1, 1341120, Tempo, 857142
1, 1375680, Tempo, 571428
1, 1423200, Tempo, 1500000
1, 1469280, Tempo, 352941
1, 1532640, Tempo, 521739
1, 1580160, Tempo, 500000
1, 1651440, Tempo, 2727272
1, 1722000, Tempo, 666666
1, 1768080, Tempo, 600000
1, 1814160, Tempo, 705882
1, 1861680, Tempo, 666666
1, 1907760, Tempo, 857142
1, 1966852, Tempo, 857142
1, 1966932, Tempo, 882352
1, 1966944, Tempo, 895522
1, 1966964, Tempo, 909090
1, 1966980, Tempo, 923076
1, 1966984, Tempo, 937500
1, 1966996, Tempo, 952380
1, 1967012, Tempo, 967741
1, 1967032, Tempo, 1000000
1, 1967044, Tempo, 1016949
1, 1967056, Tempo, 1034482
1, 1967076, Tempo, 1016949
1, 1967088, Tempo, 1034482
1, 1970324, Tempo, 1016949
1, 1970328, Tempo, 1034482
1, 1970364, Tempo, 1052631
1, 1970384, Tempo, 1071428
1, 1970408, Tempo, 1111111
1, 1970416, Tempo, 1132075
1, 1970424, Tempo, 1153846
1, 1970440, Tempo, 1176470
1, 1970448, Tempo, 1200000
1, 1970456, Tempo, 1224489
1, 1970464, Tempo, 1250000
1, 1970472, Tempo, 1304347
1, 1970488, Tempo, 1333333
1, 1970504, Tempo, 1363636
1, 1970520, Tempo, 1395348
1, 1970532, Tempo, 1428571
1, 1970536, Tempo, 1463414
1, 1973040, Tempo, 1200000
1, 1995868, Tempo, 1224489
1, 1995872, Tempo, 1250000
1, 1995896, Tempo, 1276595
1, 1995932, Tempo, 1304347
1, 1995968, Tempo, 1333333
1, 1995976, Tempo, 1363636
1, 1996028, Tempo, 1395348
1, 1996076, Tempo, 1153846
1, 1996084, Tempo, 1200000
1, 2006680, Tempo, 1200000
1, 2006712, Tempo, 1224489
1, 2006716, Tempo, 1250000
1, 2006728, Tempo, 1276595
1, 2006736, Tempo, 1304347
1, 2006760, Tempo, 1363636
1, 2006780, Tempo, 1395348
1, 2006808, Tempo, 1428571
1, 2006876, Tempo, 1463414
1, 2006888, Tempo, 1500000
1, 2006956, Tempo, 1463414
1, 2006964, Tempo, 1428571
1, 2006972, Tempo, 1395348
1, 2006984, Tempo, 1363636
1, 2007000, Tempo, 1304347
1, 2007016, Tempo, 1276595
1, 2007032, Tempo, 1250000
1, 2007052, Tempo, 1224489
1, 2007064, Tempo, 1200000
1, 2017964, Tempo, 1200000
1, 2018012, Tempo, 1224489
1, 2018020, Tempo, 1250000
1, 2018068, Tempo, 1276595
1, 2018176, Tempo, 1304347
1, 2018388, Tempo, 1333333
1, 2018404, Tempo, 1363636
1, 2018420, Tempo, 1395348
1, 2018468, Tempo, 1428571
1, 2018516, Tempo, 1463414
1, 2018524, Tempo, 1500000
1, 2018544, Tempo, 1538461
1, 2018556, Tempo, 1578947
1, 2018576, Tempo, 1666666
1, 2018588, Tempo, 1714285
1, 2018596, Tempo, 1764705
1, 2018616, Tempo, 1818181
1, 2018620, Tempo, 1875000
1, 2018628, Tempo, 1935483
1, 2018644, Tempo, 2000000
1, 2018660, Tempo, 2142857
1, 2018676, Tempo, 2222222
1, 2018692, Tempo, 2307692
1, 2018716, Tempo, 2400000
1, 2018724, Tempo, 2500000
1, 2018880, End_track
2, 0, Start_track
2, 0, Title_t, "goldberg.mid"
2, 0, Program_c, 0, 0
2, 0, Note_on_c, 0, 79, 93
2, 476, Note_off_c, 0, 79, 64
2, 480, Note_on_c, 0, 79, 85
2, 956, Note_off_c, 0, 79, 64
2, 960, Note_on_c, 0, 81, 82
2, 1016, Note_off_c, 0, 81, 64
2, 1020, Note_on_c, 0, 79, 85
2, 1076, Note_off_c, 0, 79, 64
2, 1080, Note_on_c, 0, 81, 80
2, 1316, Note_off_c, 0, 81, 64
2, 1320, Note_on_c, 0, 83, 92
2, 1436, Note_off_c, 0, 83, 64
2, 1440, Note_on_c, 0, 81, 88
2, 1676, Note_off_c, 0, 81, 64
2, 1680, Note_on_c, 0, 79, 86
2, 1796, Note_off_c, 0, 79, 64
2, 1800, Note_on_c, 0, 78, 76
2, 1916, Note_off_c, 0, 78, 64
2, 1920, Note_on_c, 0, 76, 82
2, 2156, Note_off_c, 0, 76, 64
2, 2160, Note_on_c, 0, 74, 75
2, 2880, Note_off_c, 0, 74, 64
2, 2880, Note_on_c, 0, 67, 88
2, 2940, Note_off_c, 0, 67, 64
2, 2940, Note_on_c, 0, 66, 88
2, 3000, Note_off_c, 0, 66, 64
2, 3000, Note_on_c, 0, 67, 88
2, 3360, Note_off_c, 0, 67, 64
2, 3360, Note_on_c, 0, 69, 88
2, 3420, Note_off_c, 0, 69, 64
2, 3420, Note_on_c, 0, 67, 88
2, 3480, Note_off_c, 0, 67, 64
2, 3480, Note_on_c, 0, 66, 88
2, 3540, Note_off_c, 0, 66, 64
2, 3540, Note_on_c, 0, 67, 88
2, 3600, Note_off_c, 0, 67, 64
2, 3600, Note_on_c, 0, 69, 88
2, 3660, Note_off_c, 0, 69, 64
2, 3660, Note_on_c, 0, 67, 88
2, 3720, Note_off_c, 0, 67, 64
2, 3720, Note_on_c, 0, 69, 88
2, 3780, Note_off_c, 0, 69, 64
2, 3780, Note_on_c, 0, 67, 88
2, 3840, Note_off_c, 0, 67, 64
2, 3840, Note_on_c, 0, 69, 88
2, 3900, Note_off_c, 0, 69, 64
2, 3900, Note_on_c, 0, 67, 88
2, 3960, Note_off_c, 0, 67, 64
2, 3960, Note_on_c, 0, 69, 88
2, 4020, Note_off_c, 0, 69, 64
2, 4020, Note_on_c, 0, 67, 88
2, 4080, Note_off_c, 0, 67, 64
2, 4080, Note_on_c, 0, 66, 88
2, 4200, Note_off_c, 0, 66, 64
2, 4200, Note_on_c, 0, 67, 88
2, 4320, Note_off_c, 0, 67, 64
2, 4320, Note_on_c, 0, 69, 69
2, 4376, Note_off_c, 0, 69, 64
2, 4380, Note_on_c, 0, 67, 71
2, 4436, Note_off_c, 0, 67, 64
2, 4440, Note_on_c, 0, 66, 62
2, 4556, Note_off_c, 0, 66, 64
2, 4560, Note_on_c, 0, 67, 80
2, 4616, Note_off_c, 0, 67, 64
2, 4620, Note_on_c, 0, 66, 81
2, 4680, Note_off_c, 0, 66, 64
2, 4680, Note_on_c, 0, 64, 72
2, 4800, Note_off_c, 0, 64, 64
2, 4800, Note_on_c, 0, 64, 84
2, 5036, Note_off_c, 0, 64, 64
2, 5040, Note_on_c, 0, 62, 75
2, 5756, Note_off_c, 0, 62, 64
2, 5760, Note_on_c, 0, 74, 92
2, 6236, Note_off_c, 0, 74, 64
2, 6240, Note_on_c, 0, 74, 88
2, 6716, Note_off_c, 0, 74, 64
2, 6720, Note_on_c, 0, 76, 83
2, 6776, Note_off_c, 0, 76, 64
2, 6780, Note_on_c, 0, 74, 73
2, 6836, Note_off_c, 0, 74, 64
2, 6840, Note_on_c, 0, 76, 74
2, 7076, Note_off_c, 0, 76, 64
2, 7080, Note_on_c, 0, 77, 85
2, 7196, Note_off_c, 0, 77, 64
2, 7200, Note_on_c, 0, 76, 69
2, 7436, Note_off_c, 0, 76, 64
2, 7440, Note_on_c, 0, 74, 74
2, 7556, Note_off_c, 0, 74, 64
2, 7560, Note_on_c, 0, 72, 81
2, 7676, Note_off_c, 0, 72, 64
2, 7680, Note_on_c, 0, 71, 73
2, 7916, Note_off_c, 0, 71, 64
2, 7920, Note_on_c, 0, 69, 64
2, 8400, Note_off_c, 0, 69, 64
2, 8400, Note_on_c, 0, 79, 98
2, 8456, Note_off_c, 0, 79, 64
2, 8460, Note_on_c, 0, 78, 90
2, 8516, Note_off_c, 0, 78, 64
2, 8520, Note_on_c, 0, 76, 85
2, 8576, Note_off_c, 0, 76, 64
2, 8580, Note_on_c, 0, 78, 81
2, 8636, Note_off_c, 0, 78, 64
2, 8640, Note_on_c, 0, 79, 97
2, 8696, Note_off_c, 0, 79, 64
2, 8700, Note_on_c, 0, 78, 102
2, 8876, Note_off_c, 0, 78, 64
2, 8880, Note_on_c, 0, 81, 96
2, 8936, Note_off_c, 0, 81, 64
2, 8940, Note_on_c, 0, 79, 96
2, 9116, Note_off_c, 0, 79, 64
2, 9120, Note_on_c, 0, 78, 101
2, 9176, Note_off_c, 0, 78, 64
2, 9180, Note_on_c, 0, 76, 82
2, 9360, Note_off_c, 0, 76, 64
2, 9360, Note_on_c, 0, 74, 72
2, 9416, Note_off_c, 0, 74, 64
2, 9420, Note_on_c, 0, 72, 92
2, 9600, Note_off_c, 0, 72, 64
2, 9600, Note_on_c, 0, 72, 86
2, 9720, Note_off_c, 0, 72, 64
2, 9720, Note_on_c, 0, 81, 90
2, 9956, Note_off_c, 0, 81, 64
2, 9960, Note_on_c, 0, 72, 83
2, 10076, Note_off_c, 0, 72, 64
2, 10080, Note_on_c, 0, 71, 68
2, 10136, Note_off_c, 0, 71, 64
2, 10140, Note_on_c, 0, 67, 71
2, 10320, Note_off_c, 0, 67, 64
2, 10320, Note_on_c, 0, 66, 84
2, 10560, Note_off_c, 0, 66, 64
2, 10560, Note_on_c, 0, 66, 90
2, 10800, Note_off_c, 0, 66, 64
2, 10800, Note_on_c, 0, 67, 73
2, 11516, Note_off_c, 0, 67, 64
2, 11520, Note_on_c, 0, 71, 82
2, 11996, Note_off_c, 0, 71, 64
2, 12000, Note_on_c, 0, 71, 88
2, 12476, Note_off_c, 0, 71, 64
2, 12480, Note_on_c, 0, 73, 77
2, 12536, Note_off_c, 0, 73, 64
2, 12540, Note_on_c, 0, 71, 74
2, 12596, Note_off_c, 0, 71, 64
2, 12600, Note_on_c, 0, 73, 82
2, 12836, Note_off_c, 0, 73, 64
2, 12840, Note_on_c, 0, 74, 89
2, 12956, Note_off_c, 0, 74, 64
2, 12960, Note_on_c, 0, 74, 95
2, 13076, Note_off_c, 0, 74, 64
2, 13080, Note_on_c, 0, 73, 92
2, 13196, Note_off_c, 0, 73, 64
2, 13200, Note_on_c, 0, 71, 91
2, 13316, Note_off_c, 0, 71, 64
2, 13320, Note_on_c, 0, 69, 75
2, 14280, Note_off_c, 0, 69, 64
2, 14400, Note_on_c, 0, 67, 93
2, 14460, Note_on_c, 0, 71, 93
2, 14520, Note_on_c, 0, 76, 93
2, 14580, Note_on_c, 0, 79, 93
2, 14700, Note_off_c, 0, 71, 64
2, 14760, Note_off_c, 0, 76, 64
2, 14820, Note_off_c, 0, 79, 64
2, 14880, Note_off_c, 0, 67, 64
2, 14880, Note_on_c, 0, 81, 117
2, 14940, Note_off_c, 0, 81, 64
2, 14940, Note_on_c, 0, 79, 90
2, 14996, Note_off_c, 0, 79, 64
2, 15000, Note_on_c, 0, 78, 70
2, 15060, Note_off_c, 0, 78, 64
2, 15060, Note_on_c, 0, 79, 86
2, 15116, Note_off_c, 0, 79, 64
2, 15120, Note_on_c, 0, 81, 83
2, 15176, Note_off_c, 0, 81, 64
2, 15180, Note_on_c, 0, 79, 81
2, 15236, Note_off_c, 0, 79, 64
2, 15240, Note_on_c, 0, 81, 77
2, 15296, Note_off_c, 0, 81, 64
2, 15300, Note_on_c, 0, 79, 85
2, 15356, Note_off_c, 0, 79, 64
2, 15360, Note_on_c, 0, 81, 81
2, 15416, Note_off_c, 0, 81, 64
2, 15420, Note_on_c, 0, 79, 90
2, 15476, Note_off_c, 0, 79, 64
2, 15480, Note_on_c, 0, 81, 80
2, 15536, Note_off_c, 0, 81, 64
2, 15540, Note_on_c, 0, 79, 79
2, 15600, Note_off_c, 0, 79, 64
2, 15600, Note_on_c, 0, 78, 85
2, 15720, Note_off_c, 0, 78, 64
2, 15720, Note_on_c, 0, 79, 85
2, 15840, Note_off_c, 0, 79, 64
2, 15840, Note_on_c, 0, 79, 93
2, 16076, Note_off_c, 0, 79, 64
2, 16080, Note_on_c, 0, 78, 80
2, 16196, Note_off_c, 0, 78, 64
2, 16200, Note_on_c, 0, 76, 73
2, 16320, Note_off_c, 0, 76, 64
2, 16320, Note_on_c, 0, 74, 80
2, 16556, Note_off_c, 0, 74, 64
2, 16560, Note_on_c, 0, 73, 85
2, 17036, Note_off_c, 0, 73, 64
2, 17040, Note_on_c, 0, 76, 90
2, 17280, Note_off_c, 0, 76, 64
2, 17280, Note_on_c, 0, 81, 93
2, 17396, Note_off_c, 0, 81, 64
2, 17400, Note_on_c, 0, 79, 88
2, 17520, Note_off_c, 0, 79, 64
2, 17520, Note_on_c, 0, 78, 88
2, 17636, Note_off_c, 0, 78, 64
2, 17640, Note_on_c, 0, 76, 86
2, 17756, Note_off_c, 0, 76, 64
2, 17760, Note_on_c, 0, 74, 80
2, 17996, Note_off_c, 0, 74, 64
2, 18000, Note_on_c, 0, 69, 81
2, 18536, Note_off_c, 0, 69, 64
2, 18540, Note_on_c, 0, 71, 78
2, 18596, Note_off_c, 0, 71, 64
2, 18600, Note_on_c, 0, 72, 90
2, 18720, Note_off_c, 0, 72, 64
2, 18720, Note_on_c, 0, 71, 86
2, 18836, Note_off_c, 0, 71, 64
2, 18840, Note_on_c, 0, 69, 65
2, 18956, Note_off_c, 0, 69, 64
2, 18960, Note_on_c, 0, 67, 70
2, 19076, Note_off_c, 0, 67, 64
2, 19080, Note_on_c, 0, 66, 80
2, 19196, Note_off_c, 0, 66, 64
2, 19200, Note_on_c, 0, 64, 89
2, 19440, Note_off_c, 0, 64, 64
2, 19440, Note_on_c, 0, 74, 85
2, 19556, Note_off_c, 0, 74, 64
2, 19560, Note_on_c, 0, 73, 80
2, 19976, Note_off_c, 0, 73, 64
2, 19980, Note_on_c, 0, 74, 78
2, 20036, Note_off_c, 0, 74, 64
2, 20040, Note_on_c, 0, 76, 77
2, 20156, Note_off_c, 0, 76, 64
2, 20160, Note_on_c, 0, 74, 83
2, 20276, Note_off_c, 0, 74, 64
2, 20280, Note_on_c, 0, 73, 89
2, 20396, Note_off_c, 0, 73, 64
2, 20400, Note_on_c, 0, 71, 84
2, 20516, Note_off_c, 0, 71, 64
2, 20520, Note_on_c, 0, 69, 80
2, 20636, Note_off_c, 0, 69, 64
2, 20640, Note_on_c, 0, 79, 97
2, 20876, Note_off_c, 0, 79, 64
2, 20880, Note_on_c, 0, 71, 86
2, 21360, Note_off_c, 0, 71, 64
2, 21360, Note_on_c, 0, 73, 85
2, 21596, Note_off_c, 0, 73, 64
2, 21600, Note_on_c, 0, 73, 88
2, 21720, Note_off_c, 0, 73, 64
2, 21720, Note_on_c, 0, 74, 85
2, 21900, Note_off_c, 0, 74, 64
2, 21900, Note_on_c, 0, 76, 78
2, 21956, Note_off_c, 0, 76, 64
2, 21960, Note_on_c, 0, 74, 83
2, 22016, Note_off_c, 0, 74, 64
2, 22020, Note_on_c, 0, 73, 80
2, 22080, Note_off_c, 0, 73, 64
2, 22080, Note_on_c, 0, 73, 84
2, 22316, Note_off_c, 0, 73, 64
2, 22320, Note_on_c, 0, 74, 75
2, 23040, Note_off_c, 0, 74, 64
2, 23040, Note_on_c, 0, 69, 113
2, 23100, Note_off_c, 0, 69, 64
2, 23100, Note_on_c, 0, 67, 113
2, 23160, Note_off_c, 0, 67, 64
2, 23160, Note_on_c, 0, 69, 113
2, 23520, Note_off_c, 0, 69, 64
2, 23520, Note_on_c, 0, 71, 75
2, 23580, Note_off_c, 0, 71, 64
2, 23580, Note_on_c, 0, 69, 75
2, 23640, Note_off_c, 0, 69, 64
2, 23640, Note_on_c, 0, 67, 75
2, 23700, Note_off_c, 0, 67, 64
2, 23700, Note_on_c, 0, 69, 75
2, 23760, Note_off_c, 0, 69, 64
2, 23760, Note_on_c, 0, 71, 75
2, 23820, Note_off_c, 0, 71, 64
2, 23820, Note_on_c, 0, 69, 75
2, 23880, Note_off_c, 0, 69, 64
2, 23880, Note_on_c, 0, 71, 75
2, 23940, Note_off_c, 0, 71, 64
2, 23940, Note_on_c, 0, 69, 75
2, 24000, Note_off_c, 0, 69, 64
2, 24000, Note_on_c, 0, 71, 75
2, 24060, Note_off_c, 0, 71, 64
2, 24060, Note_on_c, 0, 69, 75
2, 24180, Note_off_c, 0, 69, 64
2, 24180, Note_on_c, 0, 71, 75
2, 24240, Note_off_c, 0, 71, 64
2, 24240, Note_on_c, 0, 72, 75
2, 24300, Note_off_c, 0, 72, 64
2, 24300, Note_on_c, 0, 74, 75
2, 24360, Note_off_c, 0, 74, 64
2, 24360, Note_on_c, 0, 76, 75
2, 24480, Note_off_c, 0, 76, 64
2, 24480, Note_on_c, 0, 76, 113
2, 24596, Note_off_c, 0, 76, 64
2, 24600, Note_on_c, 0, 74, 85
2, 24716, Note_off_c, 0, 74, 64
2, 24720, Note_on_c, 0, 72, 96
2, 24836, Note_off_c, 0, 72, 64
2, 24840, Note_on_c, 0, 71, 75
2, 24956, Note_off_c, 0, 71, 64
2, 24960, Note_on_c, 0, 69, 73
2, 25196, Note_off_c, 0, 69, 64
2, 25200, Note_on_c, 0, 67, 85
2, 25680, Note_off_c, 0, 67, 64
2, 25680, Note_on_c, 0, 79, 102
2, 25916, Note_off_c, 0, 79, 64
2, 25920, Note_on_c, 0, 78, 101
2, 26036, Note_off_c, 0, 78, 64
2, 26040, Note_on_c, 0, 76, 102
2, 26280, Note_off_c, 0, 76, 64
2, 26280, Note_on_c, 0, 78, 86
2, 26340, Note_off_c, 0, 78, 64
2, 26340, Note_on_c, 0, 75, 92
2, 26400, Note_off_c, 0, 75, 64
2, 26400, Note_on_c, 0, 75, 93
2, 26636, Note_off_c, 0, 75, 64
2, 26640, Note_on_c, 0, 76, 92
2, 27116, Note_off_c, 0, 76, 64
2, 27120, Note_on_c, 0, 81, 101
2, 27176, Note_off_c, 0, 81, 64
2, 27180, Note_on_c, 0, 83, 109
2, 27236, Note_off_c, 0, 83, 64
2, 27240, Note_on_c, 0, 81, 97
2, 27296, Note_off_c, 0, 81, 64
2, 27300, Note_on_c, 0, 79, 92
2, 27356, Note_off_c, 0, 79, 64
2, 27360, Note_on_c, 0, 81, 111
2, 27716, Note_off_c, 0, 81, 64
2, 27720, Note_on_c, 0, 78, 96
2, 27836, Note_off_c, 0, 78, 64
2, 27840, Note_on_c, 0, 76, 93
2, 28076, Note_off_c, 0, 76, 64
2, 28080, Note_on_c, 0, 75, 101
2, 28556, Note_off_c, 0, 75, 64
2, 28560, Note_on_c, 0, 71, 101
2, 28800, Note_off_c, 0, 71, 64
2, 28800, Note_on_c, 0, 76, 90
2, 28860, Note_off_c, 0, 76, 64
2, 28860, Note_on_c, 0, 78, 90
2, 28920, Note_off_c, 0, 78, 64
2, 28920, Note_on_c, 0, 79, 101
2, 29160, Note_off_c, 0, 79, 64
2, 29160, Note_on_c, 0, 78, 102
2, 29276, Note_off_c, 0, 78, 64
2, 29280, Note_on_c, 0, 78, 106
2, 29516, Note_off_c, 0, 78, 64
2, 29520, Note_on_c, 0, 76, 97
2, 29876, Note_off_c, 0, 76, 64
2, 29880, Note_on_c, 0, 71, 85
2, 29996, Note_off_c, 0, 71, 64
2, 30000, Note_on_c, 0, 72, 95
2, 30056, Note_off_c, 0, 72, 64
2, 30060, Note_on_c, 0, 71, 88
2, 30116, Note_off_c, 0, 71, 64
2, 30120, Note_on_c, 0, 69, 84
2, 30176, Note_off_c, 0, 69, 64
2, 30180, Note_on_c, 0, 71, 80
2, 30236, Note_off_c, 0, 71, 64
2, 30240, Note_on_c, 0, 79, 109
2, 30296, Note_off_c, 0, 79, 64
2, 30300, Note_on_c, 0, 76, 90
2, 30476, Note_off_c, 0, 76, 64
2, 30480, Note_on_c, 0, 78, 99
2, 30536, Note_off_c, 0, 78, 64
2, 30540, Note_on_c, 0, 75, 101
2, 30656, Note_off_c, 0, 75, 64
2, 30720, Note_on_c, 0, 75, 117
2, 30956, Note_off_c, 0, 75, 64
2, 30960, Note_on_c, 0, 76, 102
2, 31316, Note_off_c, 0, 76, 64
2, 31320, Note_on_c, 0, 67, 92
2, 31436, Note_off_c, 0, 67, 64
2, 31440, Note_on_c, 0, 66, 86
2, 31556, Note_off_c, 0, 66, 64
2, 31560, Note_on_c, 0, 64, 80
2, 31676, Note_off_c, 0, 64, 64
2, 31680, Note_on_c, 0, 66, 97
2, 32040, Note_off_c, 0, 66, 64
2, 32040, Note_on_c, 0, 76, 121
2, 32160, Note_off_c, 0, 76, 64
2, 32160, Note_on_c, 0, 75, 117
2, 32220, Note_off_c, 0, 75, 64
2, 32220, Note_on_c, 0, 76, 75
2, 32280, Note_off_c, 0, 76, 64
2, 32280, Note_on_c, 0, 78, 75
2, 32340, Note_off_c, 0, 78, 64
2, 32340, Note_on_c, 0, 79, 85
2, 32396, Note_off_c, 0, 79, 64
2, 32400, Note_on_c, 0, 81, 117
2, 32636, Note_off_c, 0, 81, 64
2, 32640, Note_on_c, 0, 79, 109
2, 32876, Note_off_c, 0, 79, 64
2, 32880, Note_on_c, 0, 78, 117
2, 33116, Note_off_c, 0, 78, 64
2, 33120, Note_on_c, 0, 78, 102
2, 33236, Note_off_c, 0, 78, 64
2, 33240, Note_on_c, 0, 76, 117
2, 33480, Note_off_c, 0, 76, 64
2, 33480, Note_on_c, 0, 78, 89
2, 33536, Note_off_c, 0, 78, 64
2, 33540, Note_on_c, 0, 75, 99
2, 33596, Note_off_c, 0, 75, 64
2, 33600, Note_on_c, 0, 75, 88
2, 33836, Note_off_c, 0, 75, 64
2, 33840, Note_on_c, 0, 76, 91
2, 34556, Note_off_c, 0, 76, 64
2, 34560, Note_on_c, 0, 76, 91
2, 34796, Note_off_c, 0, 76, 64
2, 34800, Note_on_c, 0, 74, 78
2, 34916, Note_off_c, 0, 74, 64
2, 34920, Note_on_c, 0, 72, 72
2, 35036, Note_off_c, 0, 72, 64
2, 35040, Note_on_c, 0, 71, 72
2, 35276, Note_off_c, 0, 71, 64
2, 35280, Note_on_c, 0, 69, 59
2, 35756, Note_off_c, 0, 69, 64
2, 35760, Note_on_c, 0, 71, 69
2, 35876, Note_off_c, 0, 71, 64
2, 35880, Note_on_c, 0, 72, 75
2, 35996, Note_off_c, 0, 72, 64
2, 36000, Note_on_c, 0, 74, 74
2, 36056, Note_off_c, 0, 74, 64
2, 36060, Note_on_c, 0, 72, 74
2, 36116, Note_off_c, 0, 72, 64
2, 36120, Note_on_c, 0, 71, 65
2, 36236, Note_off_c, 0, 71, 64
2, 36240, Note_on_c, 0, 72, 71
2, 36296, Note_off_c, 0, 72, 64
2, 36300, Note_on_c, 0, 71, 78
2, 36356, Note_off_c, 0, 71, 64
2, 36360, Note_on_c, 0, 69, 67
2, 36416, Note_off_c, 0, 69, 64
2, 36480, Note_on_c, 0, 69, 68
2, 36716, Note_off_c, 0, 69, 64
2, 36720, Note_on_c, 0, 67, 72
2, 37196, Note_off_c, 0, 67, 64
2, 37200, Note_on_c, 0, 69, 68
2, 37316, Note_off_c, 0, 69, 64
2, 37320, Note_on_c, 0, 71, 62
2, 37436, Note_off_c, 0, 71, 64
2, 37440, Note_on_c, 0, 72, 73
2, 37556, Note_off_c, 0, 72, 64
2, 37560, Note_on_c, 0, 74, 73
2, 37676, Note_off_c, 0, 74, 64
2, 37680, Note_on_c, 0, 72, 82
2, 37796, Note_off_c, 0, 72, 64
2, 37800, Note_on_c, 0, 71, 82
2, 37916, Note_off_c, 0, 71, 64
2, 37920, Note_on_c, 0, 72, 74
2, 38036, Note_off_c, 0, 72, 64
2, 38040, Note_on_c, 0, 69, 76
2, 38156, Note_off_c, 0, 69, 64
2, 38160, Note_on_c, 0, 64, 76
2, 38276, Note_off_c, 0, 64, 64
2, 38280, Note_on_c, 0, 69, 69
2, 38396, Note_off_c, 0, 69, 64
2, 38400, Note_on_c, 0, 72, 83
2, 38876, Note_off_c, 0, 72, 64
2, 39000, Note_on_c, 0, 74, 81
2, 39116, Note_off_c, 0, 74, 64
2, 39120, Note_on_c, 0, 72, 83
2, 39236, Note_off_c, 0, 72, 64
2, 39240, Note_on_c, 0, 71, 71
2, 39356, Note_off_c, 0, 71, 64
2, 39360, Note_on_c, 0, 72, 72
2, 39476, Note_off_c, 0, 72, 64
2, 39480, Note_on_c, 0, 69, 68
2, 39596, Note_off_c, 0, 69, 64
2, 39600, Note_on_c, 0, 66, 72
2, 39716, Note_off_c, 0, 66, 64
2, 39720, Note_on_c, 0, 69, 88
2, 39836, Note_off_c, 0, 69, 64
2, 39840, Note_on_c, 0, 72, 90
2, 39956, Note_off_c, 0, 72, 64
2, 39960, Note_on_c, 0, 76, 86
2, 40076, Note_off_c, 0, 76, 64
2, 40080, Note_on_c, 0, 74, 84
2, 40196, Note_off_c, 0, 74, 64
2, 40200, Note_on_c, 0, 72, 83
2, 40316, Note_off_c, 0, 72, 64
2, 40320, Note_on_c, 0, 71, 78
2, 40436, Note_off_c, 0, 71, 64
2, 40440, Note_on_c, 0, 72, 77
2, 40556, Note_off_c, 0, 72, 64
2, 40560, Note_on_c, 0, 71, 72
2, 40676, Note_off_c, 0, 71, 64
2, 40680, Note_on_c, 0, 69, 71
2, 40796, Note_off_c, 0, 69, 64
2, 40800, Note_on_c, 0, 71, 77
2, 40916, Note_off_c, 0, 71, 64
2, 40920, Note_on_c, 0, 67, 81
2, 41036, Note_off_c, 0, 67, 64
2, 41040, Note_on_c, 0, 62, 72
2, 41156, Note_off_c, 0, 62, 64
2, 41160, Note_on_c, 0, 67, 80
2, 41276, Note_off_c, 0, 67, 64
2, 41280, Note_on_c, 0, 71, 81
2, 41396, Note_off_c, 0, 71, 64
2, 41400, Note_on_c, 0, 67, 72
2, 41516, Note_off_c, 0, 67, 64
2, 41520, Note_on_c, 0, 72, 88
2, 41636, Note_off_c, 0, 72, 64
2, 41640, Note_on_c, 0, 74, 88
2, 41756, Note_off_c, 0, 74, 64
2, 41760, Note_on_c, 0, 76, 88
2, 41876, Note_off_c, 0, 76, 64
2, 41880, Note_on_c, 0, 77, 84
2, 41996, Note_off_c, 0, 77, 64
2, 42000, Note_on_c, 0, 76, 86
2, 42116, Note_off_c, 0, 76, 64
2, 42120, Note_on_c, 0, 74, 78
2, 42236, Note_off_c, 0, 74, 64
2, 42240, Note_on_c, 0, 76, 85
2, 42356, Note_off_c, 0, 76, 64
2, 42360, Note_on_c, 0, 72, 75
2, 42476, Note_off_c, 0, 72, 64
2, 42480, Note_on_c, 0, 67, 73
2, 42600, Note_off_c, 0, 67, 64
2, 42600, Note_on_c, 0, 72, 88
2, 42716, Note_off_c, 0, 72, 64
2, 42720, Note_on_c, 0, 76, 93
2, 42836, Note_off_c, 0, 76, 64
2, 42840, Note_on_c, 0, 72, 77
2, 42956, Note_off_c, 0, 72, 64
2, 42960, Note_on_c, 0, 78, 76
2, 43076, Note_off_c, 0, 78, 64
2, 43080, Note_on_c, 0, 79, 91
2, 43196, Note_off_c, 0, 79, 64
2, 43200, Note_on_c, 0, 81, 98
2, 43316, Note_off_c, 0, 81, 64
2, 43320, Note_on_c, 0, 72, 81
2, 43436, Note_off_c, 0, 72, 64
2, 43440, Note_on_c, 0, 71, 80
2, 43556, Note_off_c, 0, 71, 64
2, 43560, Note_on_c, 0, 69, 71
2, 43676, Note_off_c, 0, 69, 64
2, 43680, Note_on_c, 0, 71, 76
2, 43796, Note_off_c, 0, 71, 64
2, 43800, Note_on_c, 0, 72, 80
2, 43916, Note_off_c, 0, 72, 64
2, 43920, Note_on_c, 0, 74, 84
2, 44036, Note_off_c, 0, 74, 64
2, 44040, Note_on_c, 0, 67, 76
2, 44156, Note_off_c, 0, 67, 64
2, 44160, Note_on_c, 0, 71, 88
2, 44276, Note_off_c, 0, 71, 64
2, 44280, Note_on_c, 0, 69, 75
2, 44396, Note_off_c, 0, 69, 64
2, 44400, Note_on_c, 0, 67, 82
2, 44516, Note_off_c, 0, 67, 64
2, 44520, Note_on_c, 0, 66, 86
2, 44636, Note_off_c, 0, 66, 64
2, 44640, Note_on_c, 0, 67, 90
2, 45236, Note_off_c, 0, 67, 64
2, 45240, Note_on_c, 0, 62, 76
2, 45360, Note_off_c, 0, 62, 64
2, 45360, Note_on_c, 0, 67, 97
2, 45476, Note_off_c, 0, 67, 64
2, 45480, Note_on_c, 0, 66, 94
2, 45596, Note_off_c, 0, 66, 64
2, 45600, Note_on_c, 0, 66, 92
2, 45720, Note_off_c, 0, 66, 64
2, 45720, Note_on_c, 0, 67, 92
2, 46080, Note_off_c, 0, 67, 64
2, 46080, Note_on_c, 0, 67, 111
2, 46196, Note_off_c, 0, 67, 64
2, 46200, Note_on_c, 0, 66, 123
2, 46316, Note_off_c, 0, 66, 64
2, 46320, Note_on_c, 0, 67, 115
2, 46676, Note_off_c, 0, 67, 64
2, 46680, Note_on_c, 0, 62, 97
2, 46796, Note_off_c, 0, 62, 64
2, 46800, Note_on_c, 0, 64, 106
2, 46916, Note_off_c, 0, 64, 64
2, 46920, Note_on_c, 0, 66, 101
2, 47036, Note_off_c, 0, 66, 64
2, 47040, Note_on_c, 0, 67, 97
2, 47156, Note_off_c, 0, 67, 64
2, 47160, Note_on_c, 0, 69, 100
2, 47276, Note_off_c, 0, 69, 64
2, 47280, Note_on_c, 0, 71, 99
2, 47396, Note_off_c, 0, 71, 64
2, 47400, Note_on_c, 0, 73, 92
2, 47516, Note_off_c, 0, 73, 64
2, 47520, Note_on_c, 0, 74, 102
2, 47636, Note_off_c, 0, 74, 64
2, 47640, Note_on_c, 0, 73, 92
2, 47756, Note_off_c, 0, 73, 64
2, 47760, Note_on_c, 0, 74, 111
2, 48116, Note_off_c, 0, 74, 64
2, 48120, Note_on_c, 0, 69, 83
2, 48236, Note_off_c, 0, 69, 64
2, 48240, Note_on_c, 0, 71, 98
2, 48356, Note_off_c, 0, 71, 64
2, 48360, Note_on_c, 0, 73, 104
2, 48476, Note_off_c, 0, 73, 64
2, 48480, Note_on_c, 0, 74, 96
2, 48596, Note_off_c, 0, 74, 64
2, 48600, Note_on_c, 0, 76, 107
2, 48716, Note_off_c, 0, 76, 64
2, 48720, Note_on_c, 0, 78, 102
2, 48836, Note_off_c, 0, 78, 64
2, 48840, Note_on_c, 0, 74, 100
2, 48956, Note_off_c, 0, 74, 64
2, 48960, Note_on_c, 0, 79, 109
2, 49080, Note_off_c, 0, 79, 64
2, 49080, Note_on_c, 0, 78, 104
2, 49200, Note_off_c, 0, 78, 64
2, 49200, Note_on_c, 0, 79, 111
2, 49560, Note_off_c, 0, 79, 64
2, 49560, Note_on_c, 0, 78, 106
2, 49676, Note_off_c, 0, 78, 64
2, 49680, Note_on_c, 0, 76, 104
2, 49796, Note_off_c, 0, 76, 64
2, 49800, Note_on_c, 0, 74, 84
2, 49916, Note_off_c, 0, 74, 64
2, 49920, Note_on_c, 0, 73, 108
2, 50036, Note_off_c, 0, 73, 64
2, 50040, Note_on_c, 0, 76, 95
2, 50156, Note_off_c, 0, 76, 64
2, 50160, Note_on_c, 0, 69, 85
2, 50276, Note_off_c, 0, 69, 64
2, 50280, Note_on_c, 0, 67, 93
2, 50396, Note_off_c, 0, 67, 64
2, 50400, Note_on_c, 0, 66, 110
2, 50516, Note_off_c, 0, 66, 64
2, 50520, Note_on_c, 0, 64, 98
2, 50636, Note_off_c, 0, 64, 64
2, 50640, Note_on_c, 0, 62, 100
2, 50756, Note_off_c, 0, 62, 64
2, 50760, Note_on_c, 0, 61, 106
2, 50876, Note_off_c, 0, 61, 64
2, 50880, Note_on_c, 0, 62, 90
2, 50996, Note_off_c, 0, 62, 64
2, 51000, Note_on_c, 0, 66, 104
2, 51116, Note_off_c, 0, 66, 64
2, 51120, Note_on_c, 0, 57, 96
2, 51236, Note_off_c, 0, 57, 64
2, 51240, Note_on_c, 0, 55, 95
2, 51356, Note_off_c, 0, 55, 64
2, 51360, Note_on_c, 0, 54, 110
2, 51476, Note_off_c, 0, 54, 64
2, 51480, Note_on_c, 0, 57, 101
2, 51596, Note_off_c, 0, 57, 64
2, 51600, Note_on_c, 0, 50, 98
2, 51836, Note_off_c, 0, 50, 64
2, 52080, Note_on_c, 0, 74, 93
2, 52196, Note_off_c, 0, 74, 64
2, 52200, Note_on_c, 0, 72, 85
2, 52316, Note_off_c, 0, 72, 64
2, 52320, Note_on_c, 0, 74, 101
2, 52436, Note_off_c, 0, 74, 64
2, 52560, Note_on_c, 0, 67, 97
2, 52676, Note_off_c, 0, 67, 64
2, 52800, Note_on_c, 0, 59, 88
2, 52916, Note_off_c, 0, 59, 64
2, 53040, Note_on_c, 0, 74, 101
2, 53156, Note_off_c, 0, 74, 64
2, 53520, Note_on_c, 0, 76, 115
2, 53636, Note_off_c, 0, 76, 64
2, 53640, Note_on_c, 0, 74, 85
2, 53756, Note_off_c, 0, 74, 64
2, 53760, Note_on_c, 0, 76, 107
2, 53876, Note_off_c, 0, 76, 64
2, 54000, Note_on_c, 0, 69, 91
2, 54116, Note_off_c, 0, 69, 64
2, 54240, Note_on_c, 0, 60, 74
2, 54356, Note_off_c, 0, 60, 64
2, 54480, Note_on_c, 0, 76, 119
2, 54596, Note_off_c, 0, 76, 64
2, 54960, Note_on_c, 0, 78, 125
2, 55076, Note_off_c, 0, 78, 64
2, 55080, Note_on_c, 0, 76, 95
2, 55196, Note_off_c, 0, 76, 64
2, 55200, Note_on_c, 0, 78, 99
2, 55316, Note_off_c, 0, 78, 64
2, 55440, Note_on_c, 0, 74, 95
2, 55556, Note_off_c, 0, 74, 64
2, 55680, Note_on_c, 0, 81, 107
2, 55796, Note_off_c, 0, 81, 64
2, 55920, Note_on_c, 0, 72, 111
2, 56396, Note_off_c, 0, 72, 64
2, 56400, Note_on_c, 0, 71, 109
2, 56756, Note_off_c, 0, 71, 64
2, 56760, Note_on_c, 0, 67, 96
2, 56876, Note_off_c, 0, 67, 64
2, 56880, Note_on_c, 0, 71, 98
2, 56996, Note_off_c, 0, 71, 64
2, 57000, Note_on_c, 0, 74, 97
2, 57116, Note_off_c, 0, 74, 64
2, 57120, Note_on_c, 0, 79, 107
2, 57236, Note_off_c, 0, 79, 64
2, 57240, Note_on_c, 0, 74, 90
2, 57356, Note_off_c, 0, 74, 64
2, 57360, Note_on_c, 0, 79, 66
2, 57476, Note_off_c, 0, 79, 64
2, 57480, Note_on_c, 0, 81, 104
2, 57596, Note_off_c, 0, 81, 64
2, 57600, Note_on_c, 0, 83, 119
2, 57716, Note_off_c, 0, 83, 64
2, 57720, Note_on_c, 0, 79, 88
2, 57836, Note_off_c, 0, 79, 64
2, 57840, Note_on_c, 0, 74, 86
2, 57956, Note_off_c, 0, 74, 64
2, 57960, Note_on_c, 0, 71, 71
2, 58076, Note_off_c, 0, 71, 64
2, 58080, Note_on_c, 0, 67, 91
2, 58196, Note_off_c, 0, 67, 64
2, 58200, Note_on_c, 0, 71, 75
2, 58316, Note_off_c, 0, 71, 64
2, 58320, Note_on_c, 0, 74, 75
2, 58436, Note_off_c, 0, 74, 64
2, 58440, Note_on_c, 0, 79, 46
2, 58556, Note_off_c, 0, 79, 64
2, 58560, Note_on_c, 0, 83, 107
2, 58676, Note_off_c, 0, 83, 64
2, 58680, Note_on_c, 0, 79, 89
2, 58796, Note_off_c, 0, 79, 64
2, 58800, Note_on_c, 0, 78, 97
2, 58916, Note_off_c, 0, 78, 64
2, 58920, Note_on_c, 0, 76, 88
2, 59036, Note_off_c, 0, 76, 64
2, 59040, Note_on_c, 0, 81, 107
2, 59160, Note_off_c, 0, 81, 64
2, 59160, Note_on_c, 0, 76, 96
2, 59280, Note_off_c, 0, 76, 64
2, 59280, Note_on_c, 0, 73, 90
2, 59400, Note_off_c, 0, 73, 64
2, 59400, Note_on_c, 0, 69, 77
2, 59520, Note_off_c, 0, 69, 64
2, 59520, Note_on_c, 0, 66, 104
2, 59640, Note_off_c, 0, 66, 64
2, 59640, Note_on_c, 0, 69, 63
2, 59760, Note_off_c, 0, 69, 64
2, 59760, Note_on_c, 0, 73, 49
2, 59876, Note_off_c, 0, 73, 64
2, 59880, Note_on_c, 0, 76, 72
2, 59996, Note_off_c, 0, 76, 64
2, 60000, Note_on_c, 0, 81, 93
2, 60116, Note_off_c, 0, 81, 64
2, 60120, Note_on_c, 0, 78, 77
2, 60236, Note_off_c, 0, 78, 64
2, 60240, Note_on_c, 0, 76, 91
2, 60356, Note_off_c, 0, 76, 64
2, 60360, Note_on_c, 0, 74, 93
2, 60476, Note_off_c, 0, 74, 64
2, 60480, Note_on_c, 0, 79, 102
2, 60596, Note_off_c, 0, 79, 64
2, 60600, Note_on_c, 0, 74, 86
2, 60716, Note_off_c, 0, 74, 64
2, 60720, Note_on_c, 0, 71, 90
2, 60836, Note_off_c, 0, 71, 64
2, 60840, Note_on_c, 0, 67, 91
2, 60956, Note_off_c, 0, 67, 64
2, 60960, Note_on_c, 0, 64, 88
2, 61076, Note_off_c, 0, 64, 64
2, 61080, Note_on_c, 0, 67, 73
2, 61196, Note_off_c, 0, 67, 64
2, 61200, Note_on_c, 0, 71, 92
2, 61316, Note_off_c, 0, 71, 64
2, 61320, Note_on_c, 0, 74, 95
2, 61436, Note_off_c, 0, 74, 64
2, 61440, Note_on_c, 0, 79, 102
2, 61556, Note_off_c, 0, 79, 64
2, 61560, Note_on_c, 0, 78, 108
2, 61676, Note_off_c, 0, 78, 64
2, 61680, Note_on_c, 0, 76, 77
2, 61796, Note_off_c, 0, 76, 64
2, 61800, Note_on_c, 0, 74, 67
2, 61916, Note_off_c, 0, 74, 64
2, 61920, Note_on_c, 0, 73, 99
2, 62036, Note_off_c, 0, 73, 64
2, 62040, Note_on_c, 0, 67, 92
2, 62156, Note_off_c, 0, 67, 64
2, 62160, Note_on_c, 0, 64, 95
2, 62276, Note_off_c, 0, 64, 64
2, 62280, Note_on_c, 0, 61, 119
2, 62396, Note_off_c, 0, 61, 64
2, 62400, Note_on_c, 0, 57, 66
2, 62516, Note_off_c, 0, 57, 64
2, 62520, Note_on_c, 0, 61, 119
2, 62636, Note_off_c, 0, 61, 64
2, 62640, Note_on_c, 0, 64, 78
2, 62756, Note_off_c, 0, 64, 64
2, 62760, Note_on_c, 0, 67, 104
2, 62876, Note_off_c, 0, 67, 64
2, 62880, Note_on_c, 0, 73, 104
2, 62996, Note_off_c, 0, 73, 64
2, 63000, Note_on_c, 0, 76, 109
2, 63116, Note_off_c, 0, 76, 64
2, 63120, Note_on_c, 0, 74, 97
2, 63236, Note_off_c, 0, 74, 64
2, 63240, Note_on_c, 0, 73, 110
2, 63356, Note_off_c, 0, 73, 64
2, 63360, Note_on_c, 0, 74, 113
2, 63600, Note_off_c, 0, 74, 64
2, 63600, Note_on_c, 0, 54, 115
2, 63840, Note_off_c, 0, 54, 64
2, 63840, Note_on_c, 0, 54, 115
2, 64080, Note_off_c, 0, 54, 64
2, 64080, Note_on_c, 0, 69, 100
2, 64316, Note_off_c, 0, 69, 64
2, 64320, Note_on_c, 0, 74, 109
2, 64556, Note_off_c, 0, 74, 64
2, 64560, Note_on_c, 0, 78, 115
2, 64800, Note_off_c, 0, 78, 64
2, 64800, Note_on_c, 0, 71, 115
2, 65040, Note_off_c, 0, 71, 64
2, 65040, Note_on_c, 0, 55, 115
2, 65280, Note_off_c, 0, 55, 64
2, 65280, Note_on_c, 0, 55, 115
2, 65520, Note_off_c, 0, 55, 64
2, 65520, Note_on_c, 0, 71, 115
2, 65760, Note_off_c, 0, 71, 64
2, 65760, Note_on_c, 0, 76, 115
2, 66000, Note_off_c, 0, 76, 64
2, 66000, Note_on_c, 0, 79, 115
2, 66240, Note_off_c, 0, 79, 64
2, 66240, Note_on_c, 0, 73, 127
2, 66360, Note_on_c, 0, 76, 96
2, 66368, Note_off_c, 0, 73, 64
2, 66460, Note_off_c, 0, 76, 64
2, 66480, Note_on_c, 0, 69, 92
2, 66600, Note_on_c, 0, 67, 90
2, 66604, Note_off_c, 0, 69, 64
2, 66720, Note_on_c, 0, 66, 104
2, 66732, Note_off_c, 0, 67, 64
2, 66824, Note_off_c, 0, 66, 64
2, 66840, Note_on_c, 0, 69, 96
2, 66960, Note_off_c, 0, 69, 64
2, 66960, Note_on_c, 0, 74, 95
2, 67080, Note_off_c, 0, 74, 64
2, 67080, Note_on_c, 0, 78, 94
2, 67196, Note_off_c, 0, 78, 64
2, 67200, Note_on_c, 0, 79, 104
2, 67320, Note_on_c, 0, 76, 98
2, 67340, Note_off_c, 0, 79, 64
2, 67440, Note_on_c, 0, 74, 93
2, 67448, Note_off_c, 0, 76, 64
2, 67560, Note_on_c, 0, 73, 90
2, 67572, Note_off_c, 0, 74, 64
2, 67680, Note_on_c, 0, 78, 92
2, 67692, Note_off_c, 0, 73, 64
2, 67800, Note_on_c, 0, 74, 67
2, 67804, Note_off_c, 0, 78, 64
2, 67920, Note_on_c, 0, 73, 90
2, 67928, Note_off_c, 0, 74, 64
2, 68040, Note_on_c, 0, 71, 80
2, 68060, Note_off_c, 0, 73, 64
2, 68160, Note_on_c, 0, 69, 83
2, 68164, Note_off_c, 0, 71, 64
2, 68280, Note_on_c, 0, 67, 89
2, 68288, Note_off_c, 0, 69, 64
2, 68400, Note_on_c, 0, 66, 106
2, 68436, Note_off_c, 0, 67, 64
2, 68520, Note_off_c, 0, 66, 64
2, 68520, Note_on_c, 0, 64, 89
2, 68640, Note_off_c, 0, 64, 64
2, 68640, Note_on_c, 0, 62, 107
2, 69116, Note_off_c, 0, 62, 64
2, 69120, Note_on_c, 0, 78, 102
2, 69240, Note_off_c, 0, 78, 64
2, 69240, Note_on_c, 0, 79, 82
2, 69360, Note_off_c, 0, 79, 64
2, 69360, Note_on_c, 0, 81, 102
2, 69732, Note_off_c, 0, 81, 64
2, 69732, Note_on_c, 0, 83, 107
2, 69848, Note_on_c, 0, 81, 84
2, 69884, Note_off_c, 0, 83, 64
2, 69960, Note_on_c, 0, 79, 92
2, 69988, Note_off_c, 0, 81, 64
2, 70080, Note_on_c, 0, 78, 112
2, 70096, Note_off_c, 0, 79, 64
2, 70200, Note_off_c, 0, 78, 64
2, 70200, Note_on_c, 0, 76, 80
2, 70320, Note_off_c, 0, 76, 64
2, 70320, Note_on_c, 0, 74, 78
2, 70440, Note_off_c, 0, 74, 64
2, 70440, Note_on_c, 0, 72, 85
2, 70560, Note_off_c, 0, 72, 64
2, 70560, Note_on_c, 0, 71, 83
2, 70680, Note_off_c, 0, 71, 64
2, 70680, Note_on_c, 0, 72, 86
2, 70800, Note_off_c, 0, 72, 64
2, 70800, Note_on_c, 0, 74, 91
2, 71148, Note_on_c, 0, 76, 91
2, 71160, Note_off_c, 0, 74, 64
2, 71272, Note_on_c, 0, 74, 89
2, 71300, Note_off_c, 0, 76, 64
2, 71388, Note_on_c, 0, 72, 89
2, 71416, Note_off_c, 0, 74, 64
2, 71500, Note_off_c, 0, 72, 64
2, 71520, Note_on_c, 0, 71, 80
2, 71640, Note_off_c, 0, 71, 64
2, 71640, Note_on_c, 0, 69, 84
2, 71760, Note_off_c, 0, 69, 64
2, 71760, Note_on_c, 0, 67, 71
2, 71880, Note_off_c, 0, 67, 64
2, 71880, Note_on_c, 0, 66, 102
2, 72000, Note_off_c, 0, 66, 64
2, 72000, Note_on_c, 0, 64, 88
2, 72120, Note_on_c, 0, 68, 88
2, 72144, Note_off_c, 0, 64, 64
2, 72240, Note_off_c, 0, 68, 64
2, 72240, Note_on_c, 0, 69, 82
2, 72360, Note_on_c, 0, 71, 92
2, 72384, Note_off_c, 0, 69, 64
2, 72480, Note_on_c, 0, 69, 71
2, 72512, Note_off_c, 0, 71, 64
2, 72584, Note_off_c, 0, 69, 64
2, 72600, Note_on_c, 0, 64, 75
2, 72720, Note_on_c, 0, 69, 81
2, 72748, Note_off_c, 0, 64, 64
2, 72840, Note_off_c, 0, 69, 64
2, 72840, Note_on_c, 0, 71, 78
2, 72960, Note_on_c, 0, 72, 78
2, 72976, Note_off_c, 0, 71, 64
2, 73068, Note_off_c, 0, 72, 64
2, 73080, Note_on_c, 0, 69, 84
2, 73200, Note_off_c, 0, 69, 64
2, 73200, Note_on_c, 0, 75, 63
2, 73320, Note_off_c, 0, 75, 64
2, 73320, Note_on_c, 0, 76, 66
2, 73428, Note_on_c, 0, 78, 101
2, 73444, Note_off_c, 0, 76, 64
2, 73540, Note_on_c, 0, 76, 84
2, 73544, Note_off_c, 0, 78, 64
2, 73668, Note_on_c, 0, 75, 89
2, 73696, Note_off_c, 0, 76, 64
2, 73792, Note_on_c, 0, 73, 93
2, 73812, Note_off_c, 0, 75, 64
2, 73920, Note_on_c, 0, 71, 88
2, 73924, Note_off_c, 0, 73, 64
2, 74932, Note_off_c, 0, 71, 64
2, 75000, Note_on_c, 0, 75, 88
2, 75072, Note_off_c, 0, 75, 64
2, 75120, Note_on_c, 0, 76, 88
2, 75476, Note_on_c, 0, 63, 90
2, 75532, Note_off_c, 0, 76, 64
2, 75584, Note_off_c, 0, 63, 64
2, 75600, Note_on_c, 0, 64, 95
2, 75940, Note_off_c, 0, 64, 64
2, 75976, Note_on_c, 0, 51, 106
2, 76064, Note_off_c, 0, 51, 64
2, 76088, Note_on_c, 0, 52, 95
2, 76316, Note_off_c, 0, 52, 64
2, 76440, Note_on_c, 0, 80, 104
2, 76560, Note_off_c, 0, 80, 64
2, 76560, Note_on_c, 0, 81, 97
2, 76896, Note_off_c, 0, 81, 64
2, 76920, Note_on_c, 0, 68, 94
2, 77004, Note_off_c, 0, 68, 64
2, 77040, Note_on_c, 0, 69, 95
2, 77400, Note_off_c, 0, 69, 64
2, 77400, Note_on_c, 0, 56, 121
2, 77492, Note_off_c, 0, 56, 64
2, 77520, Note_on_c, 0, 57, 117
2, 77880, Note_on_c, 0, 59, 117
2, 77936, Note_off_c, 0, 57, 64
2, 78000, Note_off_c, 0, 59, 64
2, 78000, Note_on_c, 0, 60, 117
2, 78120, Note_off_c, 0, 60, 64
2, 78120, Note_on_c, 0, 66, 117
2, 78240, Note_off_c, 0, 66, 64
2, 78240, Note_on_c, 0, 59, 117
2, 78360, Note_off_c, 0, 59, 64
2, 78360, Note_on_c, 0, 63, 117
2, 78480, Note_off_c, 0, 63, 64
2, 78480, Note_on_c, 0, 64, 117
2, 78600, Note_off_c, 0, 64, 64
2, 78600, Note_on_c, 0, 67, 117
2, 78720, Note_off_c, 0, 67, 64
2, 78720, Note_on_c, 0, 66, 117
2, 78840, Note_off_c, 0, 66, 64
2, 78840, Note_on_c, 0, 64, 117
2, 78960, Note_off_c, 0, 64, 64
2, 78960, Note_on_c, 0, 63, 117
2, 79080, Note_off_c, 0, 63, 64
2, 79080, Note_on_c, 0, 69, 117
2, 79200, Note_off_c, 0, 69, 64
2, 79200, Note_on_c, 0, 67, 117
2, 79320, Note_off_c, 0, 67, 64
2, 79320, Note_on_c, 0, 66, 117
2, 79440, Note_off_c, 0, 66, 64
2, 79440, Note_on_c, 0, 64, 117
2, 79560, Note_off_c, 0, 64, 64
2, 79560, Note_on_c, 0, 63, 117
2, 79680, Note_off_c, 0, 63, 64
2, 79680, Note_on_c, 0, 64, 117
2, 79800, Note_off_c, 0, 64, 64
2, 79800, Note_on_c, 0, 67, 117
2, 79920, Note_off_c, 0, 67, 64
2, 79920, Note_on_c, 0, 59, 117
2, 80040, Note_off_c, 0, 59, 64
2, 80040, Note_on_c, 0, 57, 117
2, 80160, Note_off_c, 0, 57, 64
2, 80160, Note_on_c, 0, 55, 117
2, 80280, Note_off_c, 0, 55, 64
2, 80280, Note_on_c, 0, 59, 117
2, 80400, Note_off_c, 0, 59, 64
2, 80400, Note_on_c, 0, 52, 117
2, 80640, Note_off_c, 0, 52, 64
2, 80880, Note_on_c, 0, 76, 117
2, 81120, Note_off_c, 0, 76, 64
2, 81120, Note_on_c, 0, 72, 117
2, 81360, Note_off_c, 0, 72, 64
2, 81360, Note_on_c, 0, 76, 117
2, 81600, Note_off_c, 0, 76, 64
2, 81600, Note_on_c, 0, 81, 117
2, 81840, Note_off_c, 0, 81, 64
2, 81840, Note_on_c, 0, 69, 117
2, 82080, Note_off_c, 0, 69, 64
2, 82320, Note_on_c, 0, 74, 117
2, 82560, Note_off_c, 0, 74, 64
2, 82560, Note_on_c, 0, 71, 117
2, 82800, Note_off_c, 0, 71, 64
2, 82800, Note_on_c, 0, 74, 117
2, 83040, Note_off_c, 0, 74, 64
2, 83040, Note_on_c, 0, 79, 117
2, 83280, Note_off_c, 0, 79, 64
2, 83280, Note_on_c, 0, 67, 117
2, 83520, Note_off_c, 0, 67, 64
2, 83520, Note_on_c, 0, 72, 117
2, 83640, Note_off_c, 0, 72, 64
2, 83640, Note_on_c, 0, 69, 117
2, 83760, Note_off_c, 0, 69, 64
2, 83760, Note_on_c, 0, 64, 117
2, 83880, Note_off_c, 0, 64, 64
2, 83880, Note_on_c, 0, 60, 117
2, 84000, Note_off_c, 0, 60, 64
2, 84000, Note_on_c, 0, 57, 117
2, 84120, Note_off_c, 0, 57, 64
2, 84120, Note_on_c, 0, 60, 117
2, 84240, Note_off_c, 0, 60, 64
2, 84240, Note_on_c, 0, 64, 117
2, 84360, Note_off_c, 0, 64, 64
2, 84360, Note_on_c, 0, 69, 117
2, 84480, Note_off_c, 0, 69, 64
2, 84480, Note_on_c, 0, 72, 117
2, 84600, Note_off_c, 0, 72, 64
2, 84600, Note_on_c, 0, 69, 117
2, 84720, Note_off_c, 0, 69, 64
2, 84720, Note_on_c, 0, 72, 117
2, 84840, Note_off_c, 0, 72, 64
2, 84840, Note_on_c, 0, 76, 117
2, 84960, Note_off_c, 0, 76, 64
2, 84960, Note_on_c, 0, 78, 117
2, 85080, Note_off_c, 0, 78, 64
2, 85080, Note_on_c, 0, 72, 117
2, 85200, Note_off_c, 0, 72, 64
2, 85200, Note_on_c, 0, 69, 117
2, 85320, Note_off_c, 0, 69, 64
2, 85320, Note_on_c, 0, 66, 117
2, 85440, Note_off_c, 0, 66, 64
2, 85440, Note_on_c, 0, 62, 117
2, 85560, Note_off_c, 0, 62, 64
2, 85560, Note_on_c, 0, 66, 117
2, 85680, Note_off_c, 0, 66, 64
2, 85680, Note_on_c, 0, 69, 117
2, 85800, Note_off_c, 0, 69, 64
2, 85800, Note_on_c, 0, 72, 117
2, 85920, Note_off_c, 0, 72, 64
2, 85920, Note_on_c, 0, 78, 117
2, 86040, Note_off_c, 0, 78, 64
2, 86040, Note_on_c, 0, 72, 117
2, 86160, Note_off_c, 0, 72, 64
2, 86160, Note_on_c, 0, 78, 117
2, 86280, Note_off_c, 0, 78, 64
2, 86280, Note_on_c, 0, 81, 117
2, 86400, Note_off_c, 0, 81, 64
2, 86400, Note_on_c, 0, 83, 117
2, 86520, Note_off_c, 0, 83, 64
2, 86520, Note_on_c, 0, 79, 117
2, 86640, Note_off_c, 0, 79, 64
2, 86640, Note_on_c, 0, 74, 117
2, 86760, Note_off_c, 0, 74, 64
2, 86760, Note_on_c, 0, 71, 117
2, 86880, Note_off_c, 0, 71, 64
2, 86880, Note_on_c, 0, 67, 117
2, 87000, Note_off_c, 0, 67, 64
2, 87000, Note_on_c, 0, 71, 117
2, 87120, Note_off_c, 0, 71, 64
2, 87120, Note_on_c, 0, 74, 117
2, 87240, Note_off_c, 0, 74, 64
2, 87240, Note_on_c, 0, 79, 117
2, 87360, Note_off_c, 0, 79, 64
2, 87360, Note_on_c, 0, 83, 117
2, 87480, Note_off_c, 0, 83, 64
2, 87480, Note_on_c, 0, 77, 117
2, 87600, Note_off_c, 0, 77, 64
2, 87600, Note_on_c, 0, 83, 117
2, 87720, Note_off_c, 0, 83, 64
2, 87720, Note_on_c, 0, 86, 117
2, 87840, Note_off_c, 0, 86, 64
2, 87840, Note_on_c, 0, 76, 117
2, 87960, Note_off_c, 0, 76, 64
2, 87960, Note_on_c, 0, 86, 117
2, 88080, Note_off_c, 0, 86, 64
2, 88080, Note_on_c, 0, 84, 117
2, 88200, Note_off_c, 0, 84, 64
2, 88200, Note_on_c, 0, 76, 117
2, 88320, Note_off_c, 0, 76, 64
2, 88320, Note_on_c, 0, 74, 117
2, 88440, Note_off_c, 0, 74, 64
2, 88440, Note_on_c, 0, 84, 117
2, 88560, Note_off_c, 0, 84, 64
2, 88560, Note_on_c, 0, 83, 117
2, 88680, Note_off_c, 0, 83, 64
2, 88680, Note_on_c, 0, 74, 117
2, 88800, Note_off_c, 0, 74, 64
2, 88800, Note_on_c, 0, 72, 117
2, 88920, Note_off_c, 0, 72, 64
2, 88920, Note_on_c, 0, 76, 117
2, 89040, Note_off_c, 0, 76, 64
2, 89040, Note_on_c, 0, 78, 117
2, 89160, Note_off_c, 0, 78, 64
2, 89160, Note_on_c, 0, 79, 117
2, 89280, Note_off_c, 0, 79, 64
2, 89280, Note_on_c, 0, 81, 117
2, 89400, Note_off_c, 0, 81, 64
2, 89400, Note_on_c, 0, 72, 117
2, 89520, Note_off_c, 0, 72, 64
2, 89520, Note_on_c, 0, 71, 117
2, 89640, Note_off_c, 0, 71, 64
2, 89640, Note_on_c, 0, 69, 117
2, 89760, Note_off_c, 0, 69, 64
2, 89760, Note_on_c, 0, 71, 117
2, 89880, Note_off_c, 0, 71, 64
2, 89880, Note_on_c, 0, 74, 117
2, 90000, Note_off_c, 0, 74, 64
2, 90000, Note_on_c, 0, 71, 117
2, 90120, Note_off_c, 0, 71, 64
2, 90120, Note_on_c, 0, 67, 117
2, 90240, Note_off_c, 0, 67, 64
2, 90240, Note_on_c, 0, 72, 117
2, 90360, Note_off_c, 0, 72, 64
2, 90360, Note_on_c, 0, 69, 117
2, 90480, Note_off_c, 0, 69, 64
2, 90480, Note_on_c, 0, 67, 117
2, 90600, Note_off_c, 0, 67, 64
2, 90600, Note_on_c, 0, 66, 117
2, 90720, Note_off_c, 0, 66, 64
2, 90720, Note_on_c, 0, 71, 117
2, 90840, Note_off_c, 0, 71, 64
2, 90840, Note_on_c, 0, 67, 117
2, 90960, Note_off_c, 0, 67, 64
2, 90960, Note_on_c, 0, 66, 117
2, 91080, Note_off_c, 0, 66, 64
2, 91080, Note_on_c, 0, 64, 117
2, 91200, Note_off_c, 0, 64, 64
2, 91200, Note_on_c, 0, 62, 117
2, 91320, Note_off_c, 0, 62, 64
2, 91320, Note_on_c, 0, 60, 117
2, 91440, Note_off_c, 0, 60, 64
2, 91440, Note_on_c, 0, 59, 117
2, 91560, Note_off_c, 0, 59, 64
2, 91560, Note_on_c, 0, 57, 117
2, 91680, Note_off_c, 0, 57, 64
2, 91680, Note_on_c, 0, 55, 117
2, 92160, Note_off_c, 0, 55, 64
2, 94080, Note_on_c, 0, 79, 121
2, 94548, Note_on_c, 0, 84, 106
2, 94552, Note_off_c, 0, 79, 64
2, 94584, Note_on_c, 0, 83, 106
2, 94588, Note_off_c, 0, 84, 64
2, 94632, Note_off_c, 0, 83, 64
2, 94632, Note_on_c, 0, 84, 81
2, 95288, Note_on_c, 0, 83, 96
2, 95296, Note_off_c, 0, 84, 64
2, 95408, Note_on_c, 0, 81, 83
2, 95416, Note_off_c, 0, 83, 64
2, 95524, Note_on_c, 0, 83, 83
2, 95532, Note_off_c, 0, 81, 64
2, 95636, Note_on_c, 0, 81, 78
2, 95648, Note_off_c, 0, 83, 64
2, 95760, Note_off_c, 0, 81, 64
2, 95760, Note_on_c, 0, 79, 72
2, 95880, Note_on_c, 0, 78, 96
2, 95900, Note_off_c, 0, 79, 64
2, 96004, Note_off_c, 0, 78, 64
2, 96004, Note_on_c, 0, 79, 85
2, 96600, Note_off_c, 0, 79, 64
2, 96600, Note_on_c, 0, 77, 77
2, 96720, Note_on_c, 0, 76, 72
2, 96724, Note_off_c, 0, 77, 64
2, 96836, Note_off_c, 0, 76, 64
2, 96840, Note_on_c, 0, 74, 56
2, 96968, Note_on_c, 0, 76, 83
2, 96972, Note_off_c, 0, 74, 64
2, 97560, Note_on_c, 0, 74, 73
2, 97564, Note_off_c, 0, 76, 64
2, 97672, Note_on_c, 0, 72, 71
2, 97688, Note_off_c, 0, 74, 64
2, 97788, Note_on_c, 0, 71, 66
2, 97792, Note_off_c, 0, 72, 64
2, 97920, Note_on_c, 0, 69, 64
2, 97944, Note_off_c, 0, 71, 64
2, 98516, Note_on_c, 0, 72, 86
2, 98532, Note_off_c, 0, 69, 64
2, 98640, Note_on_c, 0, 71, 70
2, 98652, Note_off_c, 0, 72, 64
2, 98756, Note_off_c, 0, 71, 64
2, 98756, Note_on_c, 0, 69, 66
2, 98880, Note_off_c, 0, 69, 64
2, 98884, Note_on_c, 0, 71, 72
2, 99004, Note_on_c, 0, 79, 84
2, 99008, Note_off_c, 0, 71, 64
2, 99116, Note_on_c, 0, 78, 88
2, 99120, Note_off_c, 0, 79, 64
2, 99228, Note_off_c, 0, 78, 64
2, 99236, Note_on_c, 0, 81, 91
2, 99364, Note_on_c, 0, 79, 80
2, 99372, Note_off_c, 0, 81, 64
2, 99472, Note_on_c, 0, 78, 74
2, 99488, Note_off_c, 0, 79, 64
2, 99592, Note_on_c, 0, 76, 75
2, 99596, Note_off_c, 0, 78, 64
2, 99704, Note_on_c, 0, 74, 74
2, 99712, Note_off_c, 0, 76, 64
2, 99840, Note_on_c, 0, 84, 92
2, 99868, Note_off_c, 0, 74, 64
2, 100076, Note_on_c, 0, 83, 85
2, 100088, Note_off_c, 0, 84, 64
2, 100788, Note_off_c, 0, 83, 64
2, 101772, Note_on_c, 0, 71, 75
2, 101880, Note_on_c, 0, 75, 79
2, 101904, Note_off_c, 0, 71, 64
2, 101996, Note_on_c, 0, 76, 91
2, 102016, Note_off_c, 0, 75, 64
2, 102112, Note_on_c, 0, 79, 86
2, 102132, Note_off_c, 0, 76, 64
2, 102240, Note_on_c, 0, 83, 95
2, 102252, Note_off_c, 0, 79, 64
2, 102836, Note_on_c, 0, 81, 80
2, 102848, Note_off_c, 0, 83, 64
2, 102952, Note_off_c, 0, 81, 64
2, 102952, Note_on_c, 0, 79, 68
2, 103068, Note_off_c, 0, 79, 64
2, 103068, Note_on_c, 0, 83, 91
2, 103196, Note_on_c, 0, 81, 83
2, 103208, Note_off_c, 0, 83, 64
2, 103308, Note_on_c, 0, 79, 70
2, 103312, Note_off_c, 0, 81, 64
2, 103436, Note_on_c, 0, 78, 56
2, 103452, Note_off_c, 0, 79, 64
2, 103544, Note_on_c, 0, 76, 73
2, 103548, Note_off_c, 0, 78, 64
2, 103672, Note_on_c, 0, 74, 84
2, 103692, Note_off_c, 0, 76, 64
2, 104276, Note_off_c, 0, 74, 64
2, 104276, Note_on_c, 0, 72, 75
2, 104392, Note_on_c, 0, 71, 66
2, 104404, Note_off_c, 0, 72, 64
2, 104504, Note_on_c, 0, 69, 61
2, 104508, Note_off_c, 0, 71, 64
2, 104624, Note_on_c, 0, 71, 80
2, 104632, Note_off_c, 0, 69, 64
2, 105240, Note_on_c, 0, 69, 71
2, 105256, Note_off_c, 0, 71, 64
2, 105356, Note_on_c, 0, 67, 74
2, 105364, Note_off_c, 0, 69, 64
2, 105476, Note_on_c, 0, 66, 81
2, 105492, Note_off_c, 0, 67, 64
2, 105600, Note_off_c, 0, 66, 64
2, 105600, Note_on_c, 0, 64, 63
2, 106196, Note_on_c, 0, 67, 73
2, 106208, Note_off_c, 0, 64, 64
2, 106316, Note_on_c, 0, 66, 67
2, 106332, Note_off_c, 0, 67, 64
2, 106428, Note_on_c, 0, 64, 74
2, 106444, Note_off_c, 0, 66, 64
2, 106556, Note_on_c, 0, 62, 82
2, 106560, Note_off_c, 0, 64, 64
2, 107220, Note_off_c, 0, 62, 64
2, 109432, Note_on_c, 0, 79, 86
2, 109920, Note_on_c, 0, 84, 89
2, 109936, Note_off_c, 0, 79, 64
2, 109952, Note_on_c, 0, 83, 93
2, 109960, Note_off_c, 0, 84, 64
2, 110000, Note_on_c, 0, 84, 85
2, 110004, Note_off_c, 0, 83, 64
2, 110648, Note_on_c, 0, 83, 89
2, 110664, Note_off_c, 0, 84, 64
2, 110764, Note_on_c, 0, 81, 75
2, 110784, Note_off_c, 0, 83, 64
2, 110884, Note_on_c, 0, 83, 81
2, 110904, Note_off_c, 0, 81, 64
2, 110996, Note_on_c, 0, 81, 76
2, 111020, Note_off_c, 0, 83, 64
2, 111112, Note_off_c, 0, 81, 64
2, 111112, Note_on_c, 0, 79, 76
2, 111228, Note_on_c, 0, 78, 76
2, 111240, Note_off_c, 0, 79, 64
2, 111356, Note_on_c, 0, 79, 82
2, 111364, Note_off_c, 0, 78, 64
2, 111964, Note_on_c, 0, 77, 75
2, 111976, Note_off_c, 0, 79, 64
2, 112088, Note_on_c, 0, 76, 67
2, 112104, Note_off_c, 0, 77, 64
2, 112200, Note_off_c, 0, 76, 64
2, 112200, Note_on_c, 0, 74, 67
2, 112320, Note_on_c, 0, 76, 84
2, 112328, Note_off_c, 0, 74, 64
2, 112932, Note_on_c, 0, 74, 90
2, 112940, Note_off_c, 0, 76, 64
2, 113056, Note_on_c, 0, 72, 80
2, 113072, Note_off_c, 0, 74, 64
2, 113172, Note_on_c, 0, 71, 70
2, 113188, Note_off_c, 0, 72, 64
2, 113296, Note_on_c, 0, 69, 60
2, 113312, Note_off_c, 0, 71, 64
2, 113880, Note_on_c, 0, 72, 80
2, 113908, Note_off_c, 0, 69, 64
2, 113996, Note_on_c, 0, 71, 73
2, 114012, Note_off_c, 0, 72, 64
2, 114124, Note_on_c, 0, 69, 68
2, 114132, Note_off_c, 0, 71, 64
2, 114248, Note_on_c, 0, 71, 83
2, 114280, Note_off_c, 0, 69, 64
2, 114364, Note_off_c, 0, 71, 64
2, 114364, Note_on_c, 0, 79, 85
2, 114480, Note_on_c, 0, 78, 85
2, 114496, Note_off_c, 0, 79, 64
2, 114596, Note_on_c, 0, 81, 81
2, 114600, Note_off_c, 0, 78, 64
2, 114724, Note_on_c, 0, 79, 84
2, 114732, Note_off_c, 0, 81, 64
2, 114840, Note_on_c, 0, 78, 81
2, 114848, Note_off_c, 0, 79, 64
2, 114960, Note_off_c, 0, 78, 64
2, 114960, Note_on_c, 0, 76, 71
2, 115080, Note_off_c, 0, 76, 64
2, 115080, Note_on_c, 0, 74, 77
2, 115208, Note_on_c, 0, 84, 80
2, 115212, Note_off_c, 0, 74, 64
2, 115436, Note_on_c, 0, 83, 89
2, 115456, Note_off_c, 0, 84, 64
2, 116016, Note_off_c, 0, 83, 64
2, 117120, Note_on_c, 0, 71, 73
2, 117228, Note_on_c, 0, 75, 73
2, 117256, Note_off_c, 0, 71, 64
2, 117348, Note_on_c, 0, 76, 90
2, 117356, Note_off_c, 0, 75, 64
2, 117464, Note_on_c, 0, 79, 90
2, 117480, Note_off_c, 0, 76, 64
2, 117596, Note_off_c, 0, 79, 64
2, 117596, Note_on_c, 0, 83, 97
2, 118196, Note_on_c, 0, 81, 83
2, 118212, Note_off_c, 0, 83, 64
2, 118316, Note_on_c, 0, 79, 62
2, 118320, Note_off_c, 0, 81, 64
2, 118444, Note_on_c, 0, 83, 90
2, 118448, Note_off_c, 0, 79, 64
2, 118556, Note_on_c, 0, 81, 86
2, 118568, Note_off_c, 0, 83, 64
2, 118664, Note_on_c, 0, 79, 78
2, 118672, Note_off_c, 0, 81, 64
2, 118796, Note_on_c, 0, 78, 74
2, 118812, Note_off_c, 0, 79, 64
2, 118904, Note_on_c, 0, 76, 80
2, 118908, Note_off_c, 0, 78, 64
2, 119036, Note_on_c, 0, 74, 88
2, 119048, Note_off_c, 0, 76, 64
2, 119632, Note_on_c, 0, 72, 81
2, 119648, Note_off_c, 0, 74, 64
2, 119748, Note_on_c, 0, 71, 68
2, 119768, Note_off_c, 0, 72, 64
2, 119864, Note_on_c, 0, 69, 58
2, 119880, Note_off_c, 0, 71, 64
2, 119992, Note_on_c, 0, 71, 78
2, 120008, Note_off_c, 0, 69, 64
2, 120596, Note_on_c, 0, 69, 77
2, 120612, Note_off_c, 0, 71, 64
2, 120708, Note_on_c, 0, 67, 77
2, 120724, Note_off_c, 0, 69, 64
2, 120820, Note_on_c, 0, 66, 76
2, 120836, Note_off_c, 0, 67, 64
2, 120944, Note_on_c, 0, 64, 82
2, 120956, Note_off_c, 0, 66, 64
2, 121556, Note_on_c, 0, 67, 71
2, 121580, Note_off_c, 0, 64, 64
2, 121684, Note_on_c, 0, 66, 74
2, 121696, Note_off_c, 0, 67, 64
2, 121800, Note_on_c, 0, 64, 78
2, 121804, Note_off_c, 0, 66, 64
2, 121928, Note_on_c, 0, 62, 81
2, 121932, Note_off_c, 0, 64, 64
2, 122548, Note_off_c, 0, 62, 64
2, 122880, Note_on_c, 0, 69, 88
2, 123356, Note_off_c, 0, 69, 64
2, 123356, Note_on_c, 0, 81, 113
2, 123960, Note_on_c, 0, 79, 93
2, 123968, Note_off_c, 0, 81, 64
2, 124076, Note_on_c, 0, 78, 90
2, 124088, Note_off_c, 0, 79, 64
2, 124192, Note_on_c, 0, 81, 89
2, 124200, Note_off_c, 0, 78, 64
2, 124312, Note_on_c, 0, 79, 78
2, 124324, Note_off_c, 0, 81, 64
2, 124432, Note_on_c, 0, 78, 81
2, 124452, Note_off_c, 0, 79, 64
2, 124556, Note_on_c, 0, 76, 69
2, 124564, Note_off_c, 0, 78, 64
2, 124672, Note_on_c, 0, 75, 90
2, 124688, Note_off_c, 0, 76, 64
2, 124804, Note_off_c, 0, 75, 64
2, 124804, Note_on_c, 0, 76, 84
2, 125516, Note_on_c, 0, 78, 79
2, 125520, Note_off_c, 0, 76, 64
2, 125752, Note_on_c, 0, 75, 70
2, 125764, Note_off_c, 0, 78, 64
2, 125996, Note_off_c, 0, 75, 64
2, 125996, Note_on_c, 0, 71, 83
2, 126428, Note_off_c, 0, 71, 64
2, 126712, Note_on_c, 0, 76, 98
2, 127320, Note_on_c, 0, 74, 81
2, 127332, Note_off_c, 0, 76, 64
2, 127440, Note_on_c, 0, 72, 72
2, 127460, Note_off_c, 0, 74, 64
2, 127552, Note_on_c, 0, 71, 68
2, 127560, Note_off_c, 0, 72, 64
2, 127672, Note_on_c, 0, 72, 81
2, 127692, Note_off_c, 0, 71, 64
2, 128276, Note_on_c, 0, 71, 81
2, 128284, Note_off_c, 0, 72, 64
2, 128396, Note_on_c, 0, 69, 68
2, 128416, Note_off_c, 0, 71, 64
2, 128508, Note_off_c, 0, 69, 64
2, 128508, Note_on_c, 0, 67, 73
2, 128640, Note_on_c, 0, 66, 84
2, 128652, Note_off_c, 0, 67, 64
2, 129232, Note_on_c, 0, 69, 78
2, 129256, Note_off_c, 0, 66, 64
2, 129352, Note_on_c, 0, 67, 73
2, 129368, Note_off_c, 0, 69, 64
2, 129456, Note_on_c, 0, 66, 81
2, 129472, Note_off_c, 0, 67, 64
2, 129580, Note_on_c, 0, 67, 86
2, 129596, Note_off_c, 0, 66, 64
2, 130160, Note_off_c, 0, 67, 64
2, 130560, Note_on_c, 0, 64, 109
2, 131040, Note_on_c, 0, 69, 88
2, 131056, Note_off_c, 0, 64, 64
2, 131632, Note_on_c, 0, 67, 89
2, 131652, Note_off_c, 0, 69, 64
2, 131748, Note_on_c, 0, 66, 75
2, 131760, Note_off_c, 0, 67, 64
2, 131864, Note_on_c, 0, 69, 81
2, 131876, Note_off_c, 0, 66, 64
2, 131988, Note_on_c, 0, 67, 85
2, 132004, Note_off_c, 0, 69, 64
2, 132100, Note_on_c, 0, 66, 84
2, 132120, Note_off_c, 0, 67, 64
2, 132224, Note_on_c, 0, 64, 89
2, 132228, Note_off_c, 0, 66, 64
2, 132352, Note_on_c, 0, 62, 91
2, 132360, Note_off_c, 0, 64, 64
2, 132480, Note_on_c, 0, 60, 83
2, 132488, Note_off_c, 0, 62, 64
2, 132960, Note_on_c, 0, 72, 111
2, 132964, Note_off_c, 0, 60, 64
2, 133552, Note_on_c, 0, 71, 90
2, 133572, Note_off_c, 0, 72, 64
2, 133676, Note_on_c, 0, 69, 64
2, 133692, Note_off_c, 0, 71, 64
2, 133780, Note_on_c, 0, 72, 77
2, 133792, Note_off_c, 0, 69, 64
2, 133900, Note_on_c, 0, 71, 67
2, 133912, Note_off_c, 0, 72, 64
2, 134024, Note_on_c, 0, 69, 54
2, 134040, Note_off_c, 0, 71, 64
2, 134156, Note_off_c, 0, 69, 64
2, 134156, Note_on_c, 0, 67, 55
2, 134276, Note_on_c, 0, 66, 65
2, 134288, Note_off_c, 0, 67, 64
2, 134400, Note_off_c, 0, 66, 64
2, 134400, Note_on_c, 0, 71, 83
2, 134640, Note_off_c, 0, 71, 64
2, 134640, Note_on_c, 0, 67, 83
2, 134880, Note_off_c, 0, 67, 64
2, 134880, Note_on_c, 0, 71, 78
2, 135100, Note_off_c, 0, 71, 64
2, 135120, Note_on_c, 0, 74, 95
2, 135368, Note_on_c, 0, 79, 104
2, 135372, Note_off_c, 0, 74, 64
2, 135832, Note_off_c, 0, 79, 64
2, 135836, Note_on_c, 0, 84, 80
2, 136428, Note_on_c, 0, 83, 73
2, 136448, Note_off_c, 0, 84, 64
2, 136540, Note_on_c, 0, 81, 78
2, 136544, Note_off_c, 0, 83, 64
2, 136660, Note_on_c, 0, 84, 84
2, 136676, Note_off_c, 0, 81, 64
2, 136780, Note_on_c, 0, 83, 85
2, 136800, Note_off_c, 0, 84, 64
2, 136900, Note_on_c, 0, 81, 90
2, 136912, Note_off_c, 0, 83, 64
2, 137020, Note_off_c, 0, 81, 64
2, 137020, Note_on_c, 0, 79, 74
2, 137144, Note_on_c, 0, 78, 88
2, 137160, Note_off_c, 0, 79, 64
2, 137272, Note_on_c, 0, 79, 77
2, 137280, Note_off_c, 0, 78, 64
2, 137760, Note_off_c, 0, 79, 64
2, 138240, Note_on_c, 0, 69, 91
2, 138720, Note_on_c, 0, 81, 91
2, 138724, Note_off_c, 0, 69, 64
2, 139320, Note_on_c, 0, 79, 54
2, 139336, Note_off_c, 0, 81, 64
2, 139432, Note_on_c, 0, 78, 72
2, 139440, Note_off_c, 0, 79, 64
2, 139548, Note_on_c, 0, 81, 86
2, 139564, Note_off_c, 0, 78, 64
2, 139672, Note_on_c, 0, 79, 69
2, 139696, Note_off_c, 0, 81, 64
2, 139788, Note_on_c, 0, 78, 71
2, 139812, Note_off_c, 0, 79, 64
2, 139908, Note_on_c, 0, 76, 46
2, 139924, Note_off_c, 0, 78, 64
2, 140032, Note_on_c, 0, 75, 61
2, 140048, Note_off_c, 0, 76, 64
2, 140164, Note_on_c, 0, 76, 72
2, 140172, Note_off_c, 0, 75, 64
2, 140872, Note_on_c, 0, 78, 77
2, 140876, Note_off_c, 0, 76, 64
2, 141116, Note_on_c, 0, 75, 74
2, 141128, Note_off_c, 0, 78, 64
2, 141360, Note_on_c, 0, 71, 83
2, 141364, Note_off_c, 0, 75, 64
2, 141876, Note_off_c, 0, 71, 64
2, 142072, Note_on_c, 0, 76, 93
2, 142680, Note_on_c, 0, 74, 78
2, 142688, Note_off_c, 0, 76, 64
2, 142800, Note_on_c, 0, 72, 77
2, 142816, Note_off_c, 0, 74, 64
2, 142912, Note_on_c, 0, 71, 75
2, 142924, Note_off_c, 0, 72, 64
2, 143036, Note_on_c, 0, 72, 82
2, 143048, Note_off_c, 0, 71, 64
2, 143640, Note_on_c, 0, 71, 66
2, 143660, Note_off_c, 0, 72, 64
2, 143760, Note_on_c, 0, 69, 68
2, 143780, Note_off_c, 0, 71, 64
2, 143876, Note_on_c, 0, 67, 64
2, 143880, Note_off_c, 0, 69, 64
2, 144000, Note_off_c, 0, 67, 64
2, 144000, Note_on_c, 0, 66, 79
2, 144608, Note_on_c, 0, 69, 76
2, 144624, Note_off_c, 0, 66, 64
2, 144732, Note_on_c, 0, 67, 72
2, 144748, Note_off_c, 0, 69, 64
2, 144840, Note_on_c, 0, 66, 71
2, 144856, Note_off_c, 0, 67, 64
2, 144960, Note_on_c, 0, 67, 81
2, 144972, Note_off_c, 0, 66, 64
2, 145488, Note_off_c, 0, 67, 64
2, 145916, Note_on_c, 0, 64, 100
2, 146388, Note_on_c, 0, 69, 91
2, 146412, Note_off_c, 0, 64, 64
2, 147000, Note_on_c, 0, 67, 75
2, 147024, Note_off_c, 0, 69, 64
2, 147120, Note_off_c, 0, 67, 64
2, 147120, Note_on_c, 0, 66, 76
2, 147240, Note_off_c, 0, 66, 64
2, 147240, Note_on_c, 0, 69, 72
2, 147360, Note_off_c, 0, 69, 64
2, 147360, Note_on_c, 0, 67, 91
2, 147480, Note_off_c, 0, 67, 64
2, 147480, Note_on_c, 0, 66, 69
2, 147600, Note_off_c, 0, 66, 64
2, 147600, Note_on_c, 0, 64, 85
2, 147720, Note_off_c, 0, 64, 64
2, 147720, Note_on_c, 0, 62, 90
2, 147840, Note_off_c, 0, 62, 64
2, 147852, Note_on_c, 0, 60, 93
2, 148312, Note_on_c, 0, 72, 119
2, 148320, Note_off_c, 0, 60, 64
2, 148916, Note_on_c, 0, 71, 78
2, 148936, Note_off_c, 0, 72, 64
2, 149036, Note_on_c, 0, 69, 62
2, 149056, Note_off_c, 0, 71, 64
2, 149140, Note_on_c, 0, 72, 86
2, 149148, Note_off_c, 0, 69, 64
2, 149260, Note_on_c, 0, 71, 83
2, 149280, Note_off_c, 0, 72, 64
2, 149380, Note_on_c, 0, 69, 69
2, 149400, Note_off_c, 0, 71, 64
2, 149512, Note_off_c, 0, 69, 64
2, 149512, Note_on_c, 0, 67, 82
2, 149628, Note_on_c, 0, 66, 86
2, 149636, Note_off_c, 0, 67, 64
2, 149760, Note_off_c, 0, 66, 64
2, 149760, Note_on_c, 0, 71, 88
2, 150000, Note_off_c, 0, 71, 64
2, 150000, Note_on_c, 0, 67, 88
2, 150240, Note_off_c, 0, 67, 64
2, 150248, Note_on_c, 0, 71, 102
2, 150488, Note_on_c, 0, 74, 89
2, 150508, Note_off_c, 0, 71, 64
2, 150716, Note_off_c, 0, 74, 64
2, 150724, Note_on_c, 0, 79, 111
2, 151188, Note_off_c, 0, 79, 64
2, 151196, Note_on_c, 0, 84, 104
2, 151800, Note_on_c, 0, 83, 65
2, 151820, Note_off_c, 0, 84, 64
2, 151916, Note_off_c, 0, 83, 64
2, 151920, Note_on_c, 0, 81, 88
2, 152044, Note_on_c, 0, 84, 83
2, 152052, Note_off_c, 0, 81, 64
2, 152156, Note_on_c, 0, 83, 85
2, 152180, Note_off_c, 0, 84, 64
2, 152272, Note_on_c, 0, 81, 75
2, 152284, Note_off_c, 0, 83, 64
2, 152388, Note_on_c, 0, 79, 77
2, 152392, Note_off_c, 0, 81, 64
2, 152508, Note_on_c, 0, 78, 88
2, 152524, Note_off_c, 0, 79, 64
2, 152640, Note_off_c, 0, 78, 64
2, 152648, Note_on_c, 0, 79, 71
2, 153196, Note_off_c, 0, 79, 64
2, 156472, Note_on_c, 0, 67, 101
2, 157192, Note_on_c, 0, 79, 102
2, 157208, Note_off_c, 0, 67, 64
2, 158168, Note_on_c, 0, 81, 100
2, 158196, Note_off_c, 0, 79, 64
2, 158284, Note_on_c, 0, 79, 86
2, 158308, Note_off_c, 0, 81, 64
2, 158408, Note_on_c, 0, 78, 90
2, 158416, Note_off_c, 0, 79, 64
2, 158524, Note_on_c, 0, 79, 88
2, 158544, Note_off_c, 0, 78, 64
2, 158640, Note_on_c, 0, 81, 97
2, 158656, Note_off_c, 0, 79, 64
2, 158880, Note_off_c, 0, 81, 64
2, 159592, Note_on_c, 0, 74, 96
2, 159720, Note_on_c, 0, 72, 90
2, 159728, Note_off_c, 0, 74, 64
2, 159840, Note_on_c, 0, 71, 75
2, 159852, Note_off_c, 0, 72, 64
2, 159944, Note_off_c, 0, 71, 64
2, 159948, Note_on_c, 0, 69, 58
2, 160080, Note_on_c, 0, 71, 81
2, 160088, Note_off_c, 0, 69, 64
2, 160320, Note_on_c, 0, 72, 86
2, 160332, Note_off_c, 0, 71, 64
2, 160440, Note_on_c, 0, 71, 97
2, 160456, Note_off_c, 0, 72, 64
2, 160564, Note_on_c, 0, 69, 78
2, 160584, Note_off_c, 0, 71, 64
2, 160680, Note_on_c, 0, 71, 73
2, 160692, Note_off_c, 0, 69, 64
2, 160800, Note_on_c, 0, 67, 90
2, 160808, Note_off_c, 0, 71, 64
2, 161040, Note_off_c, 0, 67, 64
2, 161040, Note_on_c, 0, 76, 90
2, 161280, Note_off_c, 0, 76, 64
2, 161280, Note_on_c, 0, 74, 90
2, 161520, Note_off_c, 0, 74, 64
2, 161520, Note_on_c, 0, 72, 90
2, 161760, Note_off_c, 0, 72, 64
2, 161760, Note_on_c, 0, 78, 88
2, 162000, Note_off_c, 0, 78, 64
2, 162000, Note_on_c, 0, 81, 88
2, 162240, Note_off_c, 0, 81, 64
2, 162240, Note_on_c, 0, 71, 102
2, 162720, Note_off_c, 0, 71, 64
2, 162720, Note_on_c, 0, 79, 91
2, 162960, Note_off_c, 0, 79, 64
2, 162960, Note_on_c, 0, 79, 101
2, 163420, Note_off_c, 0, 79, 64
2, 163440, Note_on_c, 0, 78, 85
2, 163680, Note_off_c, 0, 78, 64
2, 164168, Note_on_c, 0, 83, 101
2, 164388, Note_on_c, 0, 81, 100
2, 164404, Note_off_c, 0, 83, 64
2, 164880, Note_on_c, 0, 74, 100
2, 164888, Note_off_c, 0, 81, 64
2, 165240, Note_on_c, 0, 76, 88
2, 165248, Note_off_c, 0, 74, 64
2, 165364, Note_on_c, 0, 74, 77
2, 165368, Note_off_c, 0, 76, 64
2, 165472, Note_on_c, 0, 72, 77
2, 165484, Note_off_c, 0, 74, 64
2, 165592, Note_off_c, 0, 72, 64
2, 165592, Note_on_c, 0, 71, 86
2, 165828, Note_on_c, 0, 76, 92
2, 165848, Note_off_c, 0, 71, 64
2, 166084, Note_off_c, 0, 76, 64
2, 166088, Note_on_c, 0, 71, 84
2, 166320, Note_on_c, 0, 74, 91
2, 166344, Note_off_c, 0, 71, 64
2, 166560, Note_on_c, 0, 73, 90
2, 166576, Note_off_c, 0, 74, 64
2, 166812, Note_on_c, 0, 74, 93
2, 166816, Note_off_c, 0, 73, 64
2, 167040, Note_off_c, 0, 74, 64
2, 167040, Note_on_c, 0, 76, 95
2, 167520, Note_on_c, 0, 73, 92
2, 167536, Note_off_c, 0, 76, 64
2, 167760, Note_off_c, 0, 73, 64
2, 167760, Note_on_c, 0, 69, 81
2, 168000, Note_off_c, 0, 69, 64
2, 168480, Note_on_c, 0, 74, 96
2, 168720, Note_off_c, 0, 74, 64
2, 168720, Note_on_c, 0, 67, 96
2, 169440, Note_off_c, 0, 67, 64
2, 169680, Note_on_c, 0, 66, 88
2, 169920, Note_off_c, 0, 66, 64
2, 169920, Note_on_c, 0, 67, 88
2, 170160, Note_off_c, 0, 67, 64
2, 170160, Note_on_c, 0, 64, 85
2, 170400, Note_on_c, 0, 69, 76
2, 170444, Note_off_c, 0, 64, 64
2, 170520, Note_off_c, 0, 69, 64
2, 170520, Note_on_c, 0, 67, 84
2, 170640, Note_off_c, 0, 67, 64
2, 170640, Note_on_c, 0, 66, 63
2, 170760, Note_off_c, 0, 66, 64
2, 170760, Note_on_c, 0, 64, 61
2, 170880, Note_off_c, 0, 64, 64
2, 170880, Note_on_c, 0, 62, 61
2, 171120, Note_off_c, 0, 62, 64
2, 171120, Note_on_c, 0, 64, 61
2, 171240, Note_off_c, 0, 64, 64
2, 171240, Note_on_c, 0, 66, 61
2, 171360, Note_off_c, 0, 66, 64
2, 171360, Note_on_c, 0, 67, 61
2, 171480, Note_off_c, 0, 67, 64
2, 171480, Note_on_c, 0, 69, 61
2, 171600, Note_off_c, 0, 69, 64
2, 171600, Note_on_c, 0, 71, 61
2, 171840, Note_off_c, 0, 71, 64
2, 171840, Note_on_c, 0, 74, 61
2, 172080, Note_off_c, 0, 74, 64
2, 172080, Note_on_c, 0, 73, 61
2, 172320, Note_off_c, 0, 73, 64
2, 172320, Note_on_c, 0, 74, 95
2, 173040, Note_off_c, 0, 74, 64
2, 173280, Note_on_c, 0, 73, 67
2, 173520, Note_off_c, 0, 73, 64
2, 173760, Note_on_c, 0, 74, 84
2, 174480, Note_off_c, 0, 74, 64
2, 174600, Note_on_c, 0, 69, 84
2, 174720, Note_off_c, 0, 69, 64
2, 174720, Note_on_c, 0, 67, 84
2, 174840, Note_off_c, 0, 67, 64
2, 174840, Note_on_c, 0, 66, 84
2, 174960, Note_off_c, 0, 66, 64
2, 174960, Note_on_c, 0, 67, 84
2, 175080, Note_off_c, 0, 67, 64
2, 175080, Note_on_c, 0, 64, 84
2, 175200, Note_off_c, 0, 64, 64
2, 175200, Note_on_c, 0, 66, 84
2, 176640, Note_off_c, 0, 66, 64
2, 179512, Note_on_c, 0, 67, 101
2, 180232, Note_on_c, 0, 79, 102
2, 180248, Note_off_c, 0, 67, 64
2, 181208, Note_on_c, 0, 81, 100
2, 181236, Note_off_c, 0, 79, 64
2, 181324, Note_on_c, 0, 79, 86
2, 181348, Note_off_c, 0, 81, 64
2, 181448, Note_on_c, 0, 78, 90
2, 181456, Note_off_c, 0, 79, 64
2, 181564, Note_on_c, 0, 79, 88
2, 181584, Note_off_c, 0, 78, 64
2, 181680, Note_on_c, 0, 81, 97
2, 181696, Note_off_c, 0, 79, 64
2, 181920, Note_off_c, 0, 81, 64
2, 182632, Note_on_c, 0, 74, 96
2, 182760, Note_on_c, 0, 72, 90
2, 182768, Note_off_c, 0, 74, 64
2, 182880, Note_on_c, 0, 71, 75
2, 182892, Note_off_c, 0, 72, 64
2, 182984, Note_off_c, 0, 71, 64
2, 182988, Note_on_c, 0, 69, 58
2, 183120, Note_on_c, 0, 71, 81
2, 183128, Note_off_c, 0, 69, 64
2, 183360, Note_on_c, 0, 72, 86
2, 183372, Note_off_c, 0, 71, 64
2, 183480, Note_on_c, 0, 71, 97
2, 183496, Note_off_c, 0, 72, 64
2, 183604, Note_on_c, 0, 69, 78
2, 183624, Note_off_c, 0, 71, 64
2, 183720, Note_on_c, 0, 71, 73
2, 183732, Note_off_c, 0, 69, 64
2, 183840, Note_on_c, 0, 67, 90
2, 183848, Note_off_c, 0, 71, 64
2, 184080, Note_off_c, 0, 67, 64
2, 184080, Note_on_c, 0, 76, 90
2, 184320, Note_off_c, 0, 76, 64
2, 184320, Note_on_c, 0, 74, 90
2, 184560, Note_off_c, 0, 74, 64
2, 184560, Note_on_c, 0, 72, 90
2, 184800, Note_off_c, 0, 72, 64
2, 184800, Note_on_c, 0, 78, 88
2, 185040, Note_off_c, 0, 78, 64
2, 185040, Note_on_c, 0, 81, 102
2, 185280, Note_off_c, 0, 81, 64
2, 185760, Note_on_c, 0, 79, 91
2, 186000, Note_off_c, 0, 79, 64
2, 186000, Note_on_c, 0, 79, 101
2, 186460, Note_off_c, 0, 79, 64
2, 186480, Note_on_c, 0, 78, 85
2, 186720, Note_off_c, 0, 78, 64
2, 187208, Note_on_c, 0, 83, 101
2, 187428, Note_on_c, 0, 81, 100
2, 187444, Note_off_c, 0, 83, 64
2, 187920, Note_on_c, 0, 74, 100
2, 187928, Note_off_c, 0, 81, 64
2, 188280, Note_on_c, 0, 76, 88
2, 188288, Note_off_c, 0, 74, 64
2, 188404, Note_on_c, 0, 74, 77
2, 188408, Note_off_c, 0, 76, 64
2, 188512, Note_on_c, 0, 72, 77
2, 188524, Note_off_c, 0, 74, 64
2, 188632, Note_off_c, 0, 72, 64
2, 188632, Note_on_c, 0, 71, 86
2, 188868, Note_on_c, 0, 76, 92
2, 188888, Note_off_c, 0, 71, 64
2, 189124, Note_off_c, 0, 76, 64
2, 189128, Note_on_c, 0, 71, 84
2, 189360, Note_on_c, 0, 74, 91
2, 189384, Note_off_c, 0, 71, 64
2, 189600, Note_on_c, 0, 73, 90
2, 189616, Note_off_c, 0, 74, 64
2, 189852, Note_on_c, 0, 74, 93
2, 189856, Note_off_c, 0, 73, 64
2, 190080, Note_off_c, 0, 74, 64
2, 190080, Note_on_c, 0, 76, 95
2, 190560, Note_on_c, 0, 73, 92
2, 190576, Note_off_c, 0, 76, 64
2, 190800, Note_off_c, 0, 73, 64
2, 190800, Note_on_c, 0, 69, 81
2, 191040, Note_off_c, 0, 69, 64
2, 191520, Note_on_c, 0, 74, 96
2, 191760, Note_off_c, 0, 74, 64
2, 191760, Note_on_c, 0, 67, 96
2, 192720, Note_off_c, 0, 67, 64
2, 192720, Note_on_c, 0, 66, 88
2, 192960, Note_off_c, 0, 66, 64
2, 192960, Note_on_c, 0, 67, 88
2, 193200, Note_off_c, 0, 67, 64
2, 193200, Note_on_c, 0, 64, 85
2, 193440, Note_on_c, 0, 69, 76
2, 193484, Note_off_c, 0, 64, 64
2, 193560, Note_off_c, 0, 69, 64
2, 193560, Note_on_c, 0, 67, 84
2, 193680, Note_off_c, 0, 67, 64
2, 193680, Note_on_c, 0, 66, 63
2, 193800, Note_off_c, 0, 66, 64
2, 193800, Note_on_c, 0, 64, 61
2, 193920, Note_off_c, 0, 64, 64
2, 193920, Note_on_c, 0, 62, 61
2, 194160, Note_off_c, 0, 62, 64
2, 194160, Note_on_c, 0, 64, 61
2, 194280, Note_off_c, 0, 64, 64
2, 194280, Note_on_c, 0, 66, 61
2, 194400, Note_off_c, 0, 66, 64
2, 194400, Note_on_c, 0, 67, 61
2, 194520, Note_off_c, 0, 67, 64
2, 194520, Note_on_c, 0, 69, 61
2, 194640, Note_off_c, 0, 69, 64
2, 194640, Note_on_c, 0, 71, 61
2, 194880, Note_off_c, 0, 71, 64
2, 194880, Note_on_c, 0, 74, 61
2, 195120, Note_off_c, 0, 74, 64
2, 195120, Note_on_c, 0, 73, 61
2, 195360, Note_off_c, 0, 73, 64
2, 195360, Note_on_c, 0, 74, 95
2, 196320, Note_off_c, 0, 74, 64
2, 196320, Note_on_c, 0, 73, 67
2, 196560, Note_off_c, 0, 73, 64
2, 196800, Note_on_c, 0, 74, 84
2, 197520, Note_off_c, 0, 74, 64
2, 197640, Note_on_c, 0, 69, 84
2, 197760, Note_off_c, 0, 69, 64
2, 197760, Note_on_c, 0, 67, 84
2, 197880, Note_off_c, 0, 67, 64
2, 197880, Note_on_c, 0, 66, 84
2, 198000, Note_off_c, 0, 66, 64
2, 198000, Note_on_c, 0, 67, 84
2, 198120, Note_off_c, 0, 67, 64
2, 198120, Note_on_c, 0, 64, 84
2, 198240, Note_off_c, 0, 64, 64
2, 198240, Note_on_c, 0, 66, 84
2, 199680, Note_off_c, 0, 66, 64
2, 200404, Note_on_c, 0, 81, 115
2, 201240, Note_on_c, 0, 83, 102
2, 201244, Note_off_c, 0, 81, 64
2, 201360, Note_on_c, 0, 84, 93
2, 201372, Note_off_c, 0, 83, 64
2, 201480, Note_on_c, 0, 81, 93
2, 201496, Note_off_c, 0, 84, 64
2, 201604, Note_on_c, 0, 83, 92
2, 201608, Note_off_c, 0, 81, 64
2, 201712, Note_on_c, 0, 84, 84
2, 201728, Note_off_c, 0, 83, 64
2, 201844, Note_on_c, 0, 83, 101
2, 201872, Note_off_c, 0, 84, 64
2, 201964, Note_on_c, 0, 81, 92
2, 201984, Note_off_c, 0, 83, 64
2, 202080, Note_off_c, 0, 81, 64
2, 202084, Note_on_c, 0, 79, 76
2, 202188, Note_off_c, 0, 79, 64
2, 202192, Note_on_c, 0, 78, 101
2, 202320, Note_off_c, 0, 78, 64
2, 202320, Note_on_c, 0, 76, 88
2, 202440, Note_on_c, 0, 75, 85
2, 202452, Note_off_c, 0, 76, 64
2, 202564, Note_on_c, 0, 76, 89
2, 202568, Note_off_c, 0, 75, 64
2, 202804, Note_on_c, 0, 78, 86
2, 202824, Note_off_c, 0, 76, 64
2, 203028, Note_off_c, 0, 78, 64
2, 203028, Note_on_c, 0, 79, 91
2, 203528, Note_on_c, 0, 78, 93
2, 203552, Note_off_c, 0, 79, 64
2, 203760, Note_off_c, 0, 78, 64
2, 203760, Note_on_c, 0, 76, 98
2, 204000, Note_on_c, 0, 75, 99
2, 204008, Note_off_c, 0, 76, 64
2, 204976, Note_off_c, 0, 75, 64
2, 206164, Note_on_c, 0, 69, 106
2, 207120, Note_off_c, 0, 69, 64
2, 207120, Note_on_c, 0, 71, 92
2, 207240, Note_off_c, 0, 71, 64
2, 207240, Note_on_c, 0, 69, 83
2, 207360, Note_off_c, 0, 69, 64
2, 207360, Note_on_c, 0, 67, 85
2, 207480, Note_off_c, 0, 67, 64
2, 207480, Note_on_c, 0, 66, 81
2, 207600, Note_off_c, 0, 66, 64
2, 207600, Note_on_c, 0, 67, 81
2, 207720, Note_off_c, 0, 67, 64
2, 207720, Note_on_c, 0, 69, 80
2, 207840, Note_off_c, 0, 69, 64
2, 207840, Note_on_c, 0, 71, 90
2, 207960, Note_off_c, 0, 71, 64
2, 207960, Note_on_c, 0, 67, 81
2, 208080, Note_off_c, 0, 67, 64
2, 208080, Note_on_c, 0, 69, 86
2, 208200, Note_off_c, 0, 69, 64
2, 208200, Note_on_c, 0, 71, 92
2, 208320, Note_off_c, 0, 71, 64
2, 208328, Note_on_c, 0, 64, 92
2, 208560, Note_on_c, 0, 66, 92
2, 208564, Note_off_c, 0, 64, 64
2, 208672, Note_off_c, 0, 66, 64
2, 208680, Note_on_c, 0, 67, 80
2, 208800, Note_off_c, 0, 67, 64
2, 208808, Note_on_c, 0, 69, 78
2, 208920, Note_on_c, 0, 71, 82
2, 208932, Note_off_c, 0, 69, 64
2, 209040, Note_off_c, 0, 71, 64
2, 209048, Note_on_c, 0, 72, 98
2, 209280, Note_off_c, 0, 72, 64
2, 209292, Note_on_c, 0, 64, 100
2, 209520, Note_on_c, 0, 63, 97
2, 209536, Note_off_c, 0, 64, 64
2, 209760, Note_off_c, 0, 63, 64
2, 209760, Note_on_c, 0, 64, 98
2, 210480, Note_off_c, 0, 64, 64
2, 211208, Note_on_c, 0, 76, 104
2, 212028, Note_on_c, 0, 78, 82
2, 212032, Note_off_c, 0, 76, 64
2, 212148, Note_on_c, 0, 79, 88
2, 212164, Note_off_c, 0, 78, 64
2, 212268, Note_off_c, 0, 79, 64
2, 212272, Note_on_c, 0, 76, 77
2, 212392, Note_on_c, 0, 78, 77
2, 212412, Note_off_c, 0, 76, 64
2, 212512, Note_on_c, 0, 79, 89
2, 212528, Note_off_c, 0, 78, 64
2, 212632, Note_off_c, 0, 79, 64
2, 212640, Note_on_c, 0, 72, 84
2, 212760, Note_on_c, 0, 74, 85
2, 212768, Note_off_c, 0, 72, 64
2, 212880, Note_on_c, 0, 76, 81
2, 212892, Note_off_c, 0, 74, 64
2, 212992, Note_on_c, 0, 72, 82
2, 213004, Note_off_c, 0, 76, 64
2, 213112, Note_on_c, 0, 74, 78
2, 213120, Note_off_c, 0, 72, 64
2, 213240, Note_on_c, 0, 76, 77
2, 213264, Note_off_c, 0, 74, 64
2, 213348, Note_off_c, 0, 76, 64
2, 213360, Note_on_c, 0, 69, 81
2, 213480, Note_on_c, 0, 71, 77
2, 213492, Note_off_c, 0, 69, 64
2, 213600, Note_on_c, 0, 72, 80
2, 213624, Note_off_c, 0, 71, 64
2, 213712, Note_off_c, 0, 72, 64
2, 213720, Note_on_c, 0, 69, 64
2, 213840, Note_on_c, 0, 71, 76
2, 213864, Note_off_c, 0, 69, 64
2, 213964, Note_on_c, 0, 72, 78
2, 213984, Note_off_c, 0, 71, 64
2, 214092, Note_on_c, 0, 71, 74
2, 214116, Note_off_c, 0, 72, 64
2, 214200, Note_on_c, 0, 72, 69
2, 214212, Note_off_c, 0, 71, 64
2, 214320, Note_off_c, 0, 72, 64
2, 214320, Note_on_c, 0, 74, 71
2, 214440, Note_on_c, 0, 71, 68
2, 214444, Note_off_c, 0, 74, 64
2, 214548, Note_on_c, 0, 72, 83
2, 214560, Note_off_c, 0, 71, 64
2, 214664, Note_on_c, 0, 74, 70
2, 214680, Note_off_c, 0, 72, 64
2, 214784, Note_off_c, 0, 74, 64
2, 214792, Note_on_c, 0, 67, 85
2, 215760, Note_off_c, 0, 67, 64
2, 215760, Note_on_c, 0, 79, 117
2, 216480, Note_on_c, 0, 78, 96
2, 216488, Note_off_c, 0, 79, 64
2, 216720, Note_on_c, 0, 81, 104
2, 216728, Note_off_c, 0, 78, 64
2, 217212, Note_off_c, 0, 81, 64
2, 217216, Note_on_c, 0, 79, 83
2, 217440, Note_on_c, 0, 77, 104
2, 217452, Note_off_c, 0, 79, 64
2, 217680, Note_off_c, 0, 77, 64
2, 217680, Note_on_c, 0, 76, 83
2, 217800, Note_off_c, 0, 76, 64
2, 217800, Note_on_c, 0, 74, 75
2, 217920, Note_off_c, 0, 74, 64
2, 217920, Note_on_c, 0, 72, 85
2, 218040, Note_off_c, 0, 72, 64
2, 218040, Note_on_c, 0, 76, 83
2, 218160, Note_off_c, 0, 76, 64
2, 218160, Note_on_c, 0, 74, 75
2, 218280, Note_off_c, 0, 74, 64
2, 218280, Note_on_c, 0, 72, 78
2, 218400, Note_off_c, 0, 72, 64
2, 218400, Note_on_c, 0, 71, 97
2, 218880, Note_off_c, 0, 71, 64
2, 218880, Note_on_c, 0, 83, 115
2, 219120, Note_off_c, 0, 83, 64
2, 219120, Note_on_c, 0, 81, 102
2, 219600, Note_off_c, 0, 81, 64
2, 219600, Note_on_c, 0, 84, 102
2, 219840, Note_off_c, 0, 84, 64
2, 219840, Note_on_c, 0, 83, 104
2, 220308, Note_off_c, 0, 83, 64
2, 220328, Note_on_c, 0, 86, 100
2, 220552, Note_on_c, 0, 79, 91
2, 220560, Note_off_c, 0, 86, 64
2, 220792, Note_off_c, 0, 79, 64
2, 220792, Note_on_c, 0, 81, 95
2, 221032, Note_on_c, 0, 78, 84
2, 221048, Note_off_c, 0, 81, 64
2, 221280, Note_on_c, 0, 79, 90
2, 221292, Note_off_c, 0, 78, 64
2, 222720, Note_off_c, 0, 79, 64
2, 223444, Note_on_c, 0, 81, 115
2, 224280, Note_on_c, 0, 83, 102
2, 224284, Note_off_c, 0, 81, 64
2, 224400, Note_on_c, 0, 84, 93
2, 224412, Note_off_c, 0, 83, 64
2, 224520, Note_on_c, 0, 81, 93
2, 224536, Note_off_c, 0, 84, 64
2, 224644, Note_on_c, 0, 83, 92
2, 224648, Note_off_c, 0, 81, 64
2, 224752, Note_on_c, 0, 84, 84
2, 224768, Note_off_c, 0, 83, 64
2, 224884, Note_on_c, 0, 83, 101
2, 224912, Note_off_c, 0, 84, 64
2, 225004, Note_on_c, 0, 81, 92
2, 225024, Note_off_c, 0, 83, 64
2, 225120, Note_off_c, 0, 81, 64
2, 225124, Note_on_c, 0, 79, 76
2, 225228, Note_off_c, 0, 79, 64
2, 225232, Note_on_c, 0, 78, 101
2, 225360, Note_off_c, 0, 78, 64
2, 225360, Note_on_c, 0, 76, 88
2, 225480, Note_on_c, 0, 75, 85
2, 225492, Note_off_c, 0, 76, 64
2, 225604, Note_on_c, 0, 76, 89
2, 225608, Note_off_c, 0, 75, 64
2, 225844, Note_on_c, 0, 78, 86
2, 225864, Note_off_c, 0, 76, 64
2, 226068, Note_off_c, 0, 78, 64
2, 226068, Note_on_c, 0, 79, 91
2, 226568, Note_on_c, 0, 78, 93
2, 226592, Note_off_c, 0, 79, 64
2, 226800, Note_off_c, 0, 78, 64
2, 226800, Note_on_c, 0, 76, 98
2, 227040, Note_on_c, 0, 75, 99
2, 227048, Note_off_c, 0, 76, 64
2, 228016, Note_off_c, 0, 75, 64
2, 229204, Note_on_c, 0, 69, 106
2, 230160, Note_off_c, 0, 69, 64
2, 230160, Note_on_c, 0, 71, 92
2, 230280, Note_off_c, 0, 71, 64
2, 230280, Note_on_c, 0, 69, 83
2, 230400, Note_off_c, 0, 69, 64
2, 230400, Note_on_c, 0, 67, 85
2, 230520, Note_off_c, 0, 67, 64
2, 230520, Note_on_c, 0, 66, 81
2, 230640, Note_off_c, 0, 66, 64
2, 230640, Note_on_c, 0, 67, 81
2, 230760, Note_off_c, 0, 67, 64
2, 230760, Note_on_c, 0, 69, 80
2, 230880, Note_off_c, 0, 69, 64
2, 230880, Note_on_c, 0, 71, 90
2, 231000, Note_off_c, 0, 71, 64
2, 231000, Note_on_c, 0, 67, 81
2, 231120, Note_off_c, 0, 67, 64
2, 231120, Note_on_c, 0, 69, 86
2, 231240, Note_off_c, 0, 69, 64
2, 231240, Note_on_c, 0, 71, 92
2, 231360, Note_off_c, 0, 71, 64
2, 231368, Note_on_c, 0, 64, 92
2, 231600, Note_on_c, 0, 66, 92
2, 231604, Note_off_c, 0, 64, 64
2, 231712, Note_off_c, 0, 66, 64
2, 231720, Note_on_c, 0, 67, 80
2, 231840, Note_off_c, 0, 67, 64
2, 231848, Note_on_c, 0, 69, 78
2, 231960, Note_on_c, 0, 71, 82
2, 231972, Note_off_c, 0, 69, 64
2, 232080, Note_off_c, 0, 71, 64
2, 232088, Note_on_c, 0, 72, 98
2, 232320, Note_off_c, 0, 72, 64
2, 232332, Note_on_c, 0, 64, 100
2, 232560, Note_on_c, 0, 63, 97
2, 232576, Note_off_c, 0, 64, 64
2, 232800, Note_off_c, 0, 63, 64
2, 232800, Note_on_c, 0, 64, 98
2, 233520, Note_off_c, 0, 64, 64
2, 234248, Note_on_c, 0, 76, 104
2, 235068, Note_on_c, 0, 78, 82
2, 235072, Note_off_c, 0, 76, 64
2, 235188, Note_on_c, 0, 79, 88
2, 235204, Note_off_c, 0, 78, 64
2, 235308, Note_off_c, 0, 79, 64
2, 235312, Note_on_c, 0, 76, 77
2, 235432, Note_on_c, 0, 78, 77
2, 235452, Note_off_c, 0, 76, 64
2, 235552, Note_on_c, 0, 79, 89
2, 235568, Note_off_c, 0, 78, 64
2, 235672, Note_off_c, 0, 79, 64
2, 235680, Note_on_c, 0, 72, 84
2, 235800, Note_on_c, 0, 74, 85
2, 235808, Note_off_c, 0, 72, 64
2, 235920, Note_on_c, 0, 76, 81
2, 235932, Note_off_c, 0, 74, 64
2, 236032, Note_on_c, 0, 72, 82
2, 236044, Note_off_c, 0, 76, 64
2, 236152, Note_on_c, 0, 74, 78
2, 236160, Note_off_c, 0, 72, 64
2, 236280, Note_on_c, 0, 76, 77
2, 236304, Note_off_c, 0, 74, 64
2, 236388, Note_off_c, 0, 76, 64
2, 236400, Note_on_c, 0, 69, 81
2, 236520, Note_on_c, 0, 71, 77
2, 236532, Note_off_c, 0, 69, 64
2, 236640, Note_on_c, 0, 72, 80
2, 236664, Note_off_c, 0, 71, 64
2, 236752, Note_off_c, 0, 72, 64
2, 236760, Note_on_c, 0, 69, 64
2, 236880, Note_on_c, 0, 71, 76
2, 236904, Note_off_c, 0, 69, 64
2, 237004, Note_on_c, 0, 72, 78
2, 237024, Note_off_c, 0, 71, 64
2, 237132, Note_on_c, 0, 71, 74
2, 237156, Note_off_c, 0, 72, 64
2, 237240, Note_on_c, 0, 72, 69
2, 237252, Note_off_c, 0, 71, 64
2, 237360, Note_off_c, 0, 72, 64
2, 237360, Note_on_c, 0, 74, 71
2, 237480, Note_on_c, 0, 71, 68
2, 237484, Note_off_c, 0, 74, 64
2, 237588, Note_on_c, 0, 72, 83
2, 237600, Note_off_c, 0, 71, 64
2, 237704, Note_on_c, 0, 74, 70
2, 237720, Note_off_c, 0, 72, 64
2, 237824, Note_off_c, 0, 74, 64
2, 237832, Note_on_c, 0, 67, 85
2, 238800, Note_off_c, 0, 67, 64
2, 238800, Note_on_c, 0, 79, 117
2, 239520, Note_on_c, 0, 78, 96
2, 239528, Note_off_c, 0, 79, 64
2, 239760, Note_on_c, 0, 81, 104
2, 239768, Note_off_c, 0, 78, 64
2, 240252, Note_off_c, 0, 81, 64
2, 240256, Note_on_c, 0, 79, 83
2, 240480, Note_on_c, 0, 77, 104
2, 240492, Note_off_c, 0, 79, 64
2, 240720, Note_off_c, 0, 77, 64
2, 240720, Note_on_c, 0, 76, 83
2, 240840, Note_off_c, 0, 76, 64
2, 240840, Note_on_c, 0, 74, 75
2, 240960, Note_off_c, 0, 74, 64
2, 240960, Note_on_c, 0, 72, 85
2, 241080, Note_off_c, 0, 72, 64
2, 241080, Note_on_c, 0, 76, 83
2, 241200, Note_off_c, 0, 76, 64
2, 241200, Note_on_c, 0, 74, 75
2, 241320, Note_off_c, 0, 74, 64
2, 241320, Note_on_c, 0, 72, 78
2, 241440, Note_off_c, 0, 72, 64
2, 241440, Note_on_c, 0, 71, 97
2, 241920, Note_off_c, 0, 71, 64
2, 241920, Note_on_c, 0, 83, 115
2, 242160, Note_off_c, 0, 83, 64
2, 242160, Note_on_c, 0, 81, 102
2, 242640, Note_off_c, 0, 81, 64
2, 242640, Note_on_c, 0, 84, 102
2, 242880, Note_off_c, 0, 84, 64
2, 242880, Note_on_c, 0, 83, 104
2, 243348, Note_off_c, 0, 83, 64
2, 243368, Note_on_c, 0, 86, 100
2, 243592, Note_on_c, 0, 79, 91
2, 243600, Note_off_c, 0, 86, 64
2, 243832, Note_off_c, 0, 79, 64
2, 243832, Note_on_c, 0, 81, 95
2, 244072, Note_on_c, 0, 78, 84
2, 244088, Note_off_c, 0, 81, 64
2, 244320, Note_on_c, 0, 79, 90
2, 244332, Note_off_c, 0, 78, 64
2, 245760, Note_off_c, 0, 79, 64
2, 248880, Note_on_c, 0, 71, 113
2, 249116, Note_off_c, 0, 71, 64
2, 249120, Note_on_c, 0, 67, 111
2, 249356, Note_off_c, 0, 67, 64
2, 249360, Note_on_c, 0, 74, 101
2, 249596, Note_off_c, 0, 74, 64
2, 249600, Note_on_c, 0, 69, 104
2, 249836, Note_off_c, 0, 69, 64
2, 249840, Note_on_c, 0, 74, 101
2, 250076, Note_off_c, 0, 74, 64
2, 250080, Note_on_c, 0, 79, 121
2, 251036, Note_off_c, 0, 79, 64
2, 251040, Note_on_c, 0, 78, 102
2, 251276, Note_off_c, 0, 78, 64
2, 253200, Note_on_c, 0, 69, 104
2, 253436, Note_off_c, 0, 69, 64
2, 253440, Note_on_c, 0, 72, 117
2, 253796, Note_off_c, 0, 72, 64
2, 253800, Note_on_c, 0, 69, 102
2, 253916, Note_off_c, 0, 69, 64
2, 253920, Note_on_c, 0, 71, 106
2, 254396, Note_off_c, 0, 71, 64
2, 254640, Note_on_c, 0, 76, 117
2, 254876, Note_off_c, 0, 76, 64
2, 254880, Note_on_c, 0, 79, 107
2, 255116, Note_off_c, 0, 79, 64
2, 255120, Note_on_c, 0, 73, 121
2, 255356, Note_off_c, 0, 73, 64
2, 255360, Note_on_c, 0, 81, 126
2, 255836, Note_off_c, 0, 81, 64
2, 255840, Note_on_c, 0, 74, 107
2, 256076, Note_off_c, 0, 74, 64
2, 256080, Note_on_c, 0, 79, 115
2, 256796, Note_off_c, 0, 79, 64
2, 256800, Note_on_c, 0, 78, 108
2, 257036, Note_off_c, 0, 78, 64
2, 257040, Note_on_c, 0, 76, 117
2, 257516, Note_off_c, 0, 76, 64
2, 257520, Note_on_c, 0, 74, 106
2, 257756, Note_off_c, 0, 74, 64
2, 257760, Note_on_c, 0, 72, 111
2, 258236, Note_off_c, 0, 72, 64
2, 258240, Note_on_c, 0, 71, 115
2, 258716, Note_off_c, 0, 71, 64
2, 258720, Note_on_c, 0, 69, 101
2, 258956, Note_off_c, 0, 69, 64
2, 258960, Note_on_c, 0, 74, 97
2, 259196, Note_off_c, 0, 74, 64
2, 259200, Note_on_c, 0, 73, 125
2, 259676, Note_off_c, 0, 73, 64
2, 259680, Note_on_c, 0, 74, 119
2, 260036, Note_off_c, 0, 74, 64
2, 260400, Note_on_c, 0, 71, 115
2, 260636, Note_off_c, 0, 71, 64
2, 260640, Note_on_c, 0, 67, 101
2, 260876, Note_off_c, 0, 67, 64
2, 260880, Note_on_c, 0, 74, 111
2, 261116, Note_off_c, 0, 74, 64
2, 261120, Note_on_c, 0, 69, 96
2, 261356, Note_off_c, 0, 69, 64
2, 261360, Note_on_c, 0, 74, 104
2, 261596, Note_off_c, 0, 74, 64
2, 261600, Note_on_c, 0, 79, 123
2, 262556, Note_off_c, 0, 79, 64
2, 262560, Note_on_c, 0, 78, 127
2, 262916, Note_off_c, 0, 78, 64
2, 264720, Note_on_c, 0, 69, 107
2, 264956, Note_off_c, 0, 69, 64
2, 264960, Note_on_c, 0, 72, 126
2, 265316, Note_off_c, 0, 72, 64
2, 265320, Note_on_c, 0, 69, 100
2, 265436, Note_off_c, 0, 69, 64
2, 265440, Note_on_c, 0, 71, 106
2, 265916, Note_off_c, 0, 71, 64
2, 266160, Note_on_c, 0, 76, 115
2, 266396, Note_off_c, 0, 76, 64
2, 266400, Note_on_c, 0, 79, 115
2, 266636, Note_off_c, 0, 79, 64
2, 266640, Note_on_c, 0, 73, 117
2, 266876, Note_off_c, 0, 73, 64
2, 266880, Note_on_c, 0, 81, 126
2, 267356, Note_off_c, 0, 81, 64
2, 267360, Note_on_c, 0, 74, 106
2, 267596, Note_off_c, 0, 74, 64
2, 267600, Note_on_c, 0, 79, 119
2, 268316, Note_off_c, 0, 79, 64
2, 268320, Note_on_c, 0, 78, 112
2, 268556, Note_off_c, 0, 78, 64
2, 268560, Note_on_c, 0, 76, 113
2, 269040, Note_off_c, 0, 76, 64
2, 269040, Note_on_c, 0, 74, 107
2, 269276, Note_off_c, 0, 74, 64
2, 269280, Note_on_c, 0, 72, 113
2, 269760, Note_off_c, 0, 72, 64
2, 269760, Note_on_c, 0, 71, 117
2, 270236, Note_off_c, 0, 71, 64
2, 270240, Note_on_c, 0, 69, 107
2, 270476, Note_off_c, 0, 69, 64
2, 270480, Note_on_c, 0, 74, 115
2, 270716, Note_off_c, 0, 74, 64
2, 270720, Note_on_c, 0, 73, 115
2, 271196, Note_off_c, 0, 73, 64
2, 271200, Note_on_c, 0, 74, 119
2, 271556, Note_off_c, 0, 74, 64
2, 271920, Note_on_c, 0, 78, 125
2, 272156, Note_off_c, 0, 78, 64
2, 272160, Note_on_c, 0, 74, 102
2, 272396, Note_off_c, 0, 74, 64
2, 272400, Note_on_c, 0, 79, 117
2, 272636, Note_off_c, 0, 79, 64
2, 272640, Note_on_c, 0, 83, 126
2, 273356, Note_off_c, 0, 83, 64
2, 273360, Note_on_c, 0, 81, 111
2, 273476, Note_off_c, 0, 81, 64
2, 273480, Note_on_c, 0, 79, 104
2, 273596, Note_off_c, 0, 79, 64
2, 273600, Note_on_c, 0, 78, 110
2, 273716, Note_off_c, 0, 78, 64
2, 273720, Note_on_c, 0, 76, 92
2, 273836, Note_off_c, 0, 76, 64
2, 273840, Note_on_c, 0, 75, 99
2, 273956, Note_off_c, 0, 75, 64
2, 273960, Note_on_c, 0, 76, 95
2, 274076, Note_off_c, 0, 76, 64
2, 274080, Note_on_c, 0, 78, 119
2, 274796, Note_off_c, 0, 78, 64
2, 274800, Note_on_c, 0, 76, 115
2, 275036, Note_off_c, 0, 76, 64
2, 275040, Note_on_c, 0, 79, 101
2, 275276, Note_off_c, 0, 79, 64
2, 275280, Note_on_c, 0, 73, 117
2, 275520, Note_off_c, 0, 73, 64
2, 275520, Note_on_c, 0, 75, 112
2, 275760, Note_off_c, 0, 75, 64
2, 275760, Note_on_c, 0, 76, 115
2, 276232, Note_on_c, 0, 75, 123
2, 276240, Note_off_c, 0, 76, 64
2, 276340, Note_off_c, 0, 75, 64
2, 276344, Note_on_c, 0, 73, 123
2, 276460, Note_off_c, 0, 73, 64
2, 276460, Note_on_c, 0, 71, 104
2, 276568, Note_on_c, 0, 69, 100
2, 276628, Note_off_c, 0, 71, 64
2, 276652, Note_off_c, 0, 69, 64
2, 276656, Note_on_c, 0, 67, 109
2, 276688, Note_off_c, 0, 67, 64
2, 276688, Note_on_c, 0, 69, 98
2, 276728, Note_on_c, 0, 67, 107
2, 276736, Note_off_c, 0, 69, 64
2, 276816, Note_off_c, 0, 67, 64
2, 276828, Note_on_c, 0, 66, 106
2, 276940, Note_off_c, 0, 66, 64
2, 276948, Note_on_c, 0, 64, 123
2, 277376, Note_off_c, 0, 64, 64
2, 277680, Note_on_c, 0, 72, 106
2, 277916, Note_off_c, 0, 72, 64
2, 277920, Note_on_c, 0, 76, 104
2, 278156, Note_off_c, 0, 76, 64
2, 278160, Note_on_c, 0, 69, 107
2, 278396, Note_off_c, 0, 69, 64
2, 278400, Note_on_c, 0, 71, 98
2, 278636, Note_off_c, 0, 71, 64
2, 278640, Note_on_c, 0, 74, 104
2, 278876, Note_off_c, 0, 74, 64
2, 278880, Note_on_c, 0, 67, 109
2, 279116, Note_off_c, 0, 67, 64
2, 279120, Note_on_c, 0, 72, 113
2, 279836, Note_off_c, 0, 72, 64
2, 279840, Note_on_c, 0, 74, 111
2, 280076, Note_off_c, 0, 74, 64
2, 280080, Note_on_c, 0, 72, 104
2, 280316, Note_off_c, 0, 72, 64
2, 280320, Note_on_c, 0, 71, 104
2, 280436, Note_off_c, 0, 71, 64
2, 280440, Note_on_c, 0, 72, 104
2, 280556, Note_off_c, 0, 72, 64
2, 280560, Note_on_c, 0, 74, 106
2, 281156, Note_off_c, 0, 74, 64
2, 281160, Note_on_c, 0, 72, 102
2, 281276, Note_off_c, 0, 72, 64
2, 281280, Note_on_c, 0, 74, 95
2, 281396, Note_off_c, 0, 74, 64
2, 281400, Note_on_c, 0, 72, 104
2, 281516, Note_off_c, 0, 72, 64
2, 281520, Note_on_c, 0, 71, 83
2, 281636, Note_off_c, 0, 71, 64
2, 281640, Note_on_c, 0, 69, 76
2, 281756, Note_off_c, 0, 69, 64
2, 281760, Note_on_c, 0, 74, 102
2, 282000, Note_off_c, 0, 74, 64
2, 282000, Note_on_c, 0, 67, 106
2, 282236, Note_off_c, 0, 67, 64
2, 282240, Note_on_c, 0, 66, 108
2, 282716, Note_off_c, 0, 66, 64
2, 282720, Note_on_c, 0, 67, 109
2, 282960, Note_off_c, 0, 67, 64
2, 283440, Note_on_c, 0, 78, 115
2, 283676, Note_off_c, 0, 78, 64
2, 283680, Note_on_c, 0, 74, 101
2, 283916, Note_off_c, 0, 74, 64
2, 283920, Note_on_c, 0, 79, 109
2, 284156, Note_off_c, 0, 79, 64
2, 284160, Note_on_c, 0, 83, 124
2, 284876, Note_off_c, 0, 83, 64
2, 284880, Note_on_c, 0, 81, 106
2, 284996, Note_off_c, 0, 81, 64
2, 285000, Note_on_c, 0, 79, 104
2, 285116, Note_off_c, 0, 79, 64
2, 285120, Note_on_c, 0, 78, 110
2, 285236, Note_off_c, 0, 78, 64
2, 285240, Note_on_c, 0, 76, 95
2, 285356, Note_off_c, 0, 76, 64
2, 285360, Note_on_c, 0, 75, 108
2, 285476, Note_off_c, 0, 75, 64
2, 285480, Note_on_c, 0, 76, 92
2, 285596, Note_off_c, 0, 76, 64
2, 285600, Note_on_c, 0, 78, 108
2, 286316, Note_off_c, 0, 78, 64
2, 286320, Note_on_c, 0, 76, 111
2, 286556, Note_off_c, 0, 76, 64
2, 286560, Note_on_c, 0, 79, 102
2, 286796, Note_off_c, 0, 79, 64
2, 286800, Note_on_c, 0, 73, 112
2, 287036, Note_off_c, 0, 73, 64
2, 287040, Note_on_c, 0, 75, 115
2, 287276, Note_off_c, 0, 75, 64
2, 287280, Note_on_c, 0, 76, 109
2, 287756, Note_off_c, 0, 76, 64
2, 287764, Note_on_c, 0, 75, 117
2, 287880, Note_off_c, 0, 75, 64
2, 287880, Note_on_c, 0, 73, 121
2, 287988, Note_off_c, 0, 73, 64
2, 287988, Note_on_c, 0, 71, 102
2, 288100, Note_on_c, 0, 69, 95
2, 288108, Note_off_c, 0, 71, 64
2, 288192, Note_off_c, 0, 69, 64
2, 288192, Note_on_c, 0, 67, 104
2, 288228, Note_off_c, 0, 67, 64
2, 288228, Note_on_c, 0, 69, 106
2, 288264, Note_on_c, 0, 67, 97
2, 288272, Note_off_c, 0, 69, 64
2, 288348, Note_off_c, 0, 67, 64
2, 288364, Note_on_c, 0, 66, 110
2, 288484, Note_off_c, 0, 66, 64
2, 288488, Note_on_c, 0, 64, 121
2, 288920, Note_off_c, 0, 64, 64
2, 289200, Note_on_c, 0, 72, 109
2, 289436, Note_off_c, 0, 72, 64
2, 289440, Note_on_c, 0, 76, 102
2, 289676, Note_off_c, 0, 76, 64
2, 289680, Note_on_c, 0, 69, 101
2, 289916, Note_off_c, 0, 69, 64
2, 289920, Note_on_c, 0, 71, 98
2, 290156, Note_off_c, 0, 71, 64
2, 290160, Note_on_c, 0, 74, 98
2, 290396, Note_off_c, 0, 74, 64
2, 290400, Note_on_c, 0, 67, 100
2, 290636, Note_off_c, 0, 67, 64
2, 290640, Note_on_c, 0, 72, 109
2, 291356, Note_off_c, 0, 72, 64
2, 291360, Note_on_c, 0, 74, 111
2, 291596, Note_off_c, 0, 74, 64
2, 291600, Note_on_c, 0, 72, 109
2, 291836, Note_off_c, 0, 72, 64
2, 291840, Note_on_c, 0, 71, 106
2, 291956, Note_off_c, 0, 71, 64
2, 291960, Note_on_c, 0, 72, 101
2, 292076, Note_off_c, 0, 72, 64
2, 292080, Note_on_c, 0, 74, 102
2, 292676, Note_off_c, 0, 74, 64
2, 292680, Note_on_c, 0, 72, 96
2, 292796, Note_off_c, 0, 72, 64
2, 292800, Note_on_c, 0, 74, 104
2, 292916, Note_off_c, 0, 74, 64
2, 292920, Note_on_c, 0, 72, 96
2, 293036, Note_off_c, 0, 72, 64
2, 293040, Note_on_c, 0, 71, 97
2, 293156, Note_off_c, 0, 71, 64
2, 293160, Note_on_c, 0, 69, 102
2, 293276, Note_off_c, 0, 69, 64
2, 293280, Note_on_c, 0, 74, 109
2, 293516, Note_off_c, 0, 74, 64
2, 293520, Note_on_c, 0, 67, 111
2, 293756, Note_off_c, 0, 67, 64
2, 293760, Note_on_c, 0, 66, 117
2, 294236, Note_off_c, 0, 66, 64
2, 294240, Note_on_c, 0, 67, 98
2, 294476, Note_off_c, 0, 67, 64
2, 294840, Note_on_c, 0, 62, 97
2, 294956, Note_off_c, 0, 62, 64
2, 294960, Note_on_c, 0, 64, 97
2, 295076, Note_off_c, 0, 64, 64
2, 295080, Note_on_c, 0, 66, 80
2, 295196, Note_off_c, 0, 66, 64
2, 295200, Note_on_c, 0, 67, 89
2, 295316, Note_off_c, 0, 67, 64
2, 295320, Note_on_c, 0, 66, 108
2, 295436, Note_off_c, 0, 66, 64
2, 295440, Note_on_c, 0, 67, 83
2, 295556, Note_off_c, 0, 67, 64
2, 295560, Note_on_c, 0, 69, 93
2, 295676, Note_off_c, 0, 69, 64
2, 295680, Note_on_c, 0, 71, 97
2, 295796, Note_off_c, 0, 71, 64
2, 295800, Note_on_c, 0, 69, 85
2, 295916, Note_off_c, 0, 69, 64
2, 295920, Note_on_c, 0, 67, 84
2, 296036, Note_off_c, 0, 67, 64
2, 296040, Note_on_c, 0, 71, 89
2, 296156, Note_off_c, 0, 71, 64
2, 296160, Note_on_c, 0, 69, 90
2, 296276, Note_off_c, 0, 69, 64
2, 296280, Note_on_c, 0, 67, 81
2, 296396, Note_off_c, 0, 67, 64
2, 296400, Note_on_c, 0, 66, 99
2, 296516, Note_off_c, 0, 66, 64
2, 296520, Note_on_c, 0, 64, 91
2, 296636, Note_off_c, 0, 64, 64
2, 296640, Note_on_c, 0, 62, 82
2, 296756, Note_off_c, 0, 62, 64
2, 296760, Note_on_c, 0, 64, 97
2, 296876, Note_off_c, 0, 64, 64
2, 296880, Note_on_c, 0, 66, 82
2, 296996, Note_off_c, 0, 66, 64
2, 297000, Note_on_c, 0, 67, 92
2, 297116, Note_off_c, 0, 67, 64
2, 297120, Note_on_c, 0, 69, 88
2, 297236, Note_off_c, 0, 69, 64
2, 297240, Note_on_c, 0, 66, 108
2, 297356, Note_off_c, 0, 66, 64
2, 297360, Note_on_c, 0, 64, 92
2, 297476, Note_off_c, 0, 64, 64
2, 297480, Note_on_c, 0, 62, 81
2, 297596, Note_off_c, 0, 62, 64
2, 297600, Note_on_c, 0, 67, 95
2, 297716, Note_off_c, 0, 67, 64
2, 297720, Note_on_c, 0, 66, 92
2, 297836, Note_off_c, 0, 66, 64
2, 297840, Note_on_c, 0, 64, 92
2, 297956, Note_off_c, 0, 64, 64
2, 297960, Note_on_c, 0, 62, 81
2, 298076, Note_off_c, 0, 62, 64
2, 298080, Note_on_c, 0, 61, 94
2, 298196, Note_off_c, 0, 61, 64
2, 298200, Note_on_c, 0, 62, 93
2, 298316, Note_off_c, 0, 62, 64
2, 298320, Note_on_c, 0, 64, 93
2, 298436, Note_off_c, 0, 64, 64
2, 298440, Note_on_c, 0, 66, 88
2, 298556, Note_off_c, 0, 66, 64
2, 298560, Note_on_c, 0, 67, 89
2, 298676, Note_off_c, 0, 67, 64
2, 298680, Note_on_c, 0, 71, 89
2, 298796, Note_off_c, 0, 71, 64
2, 298800, Note_on_c, 0, 69, 81
2, 298916, Note_off_c, 0, 69, 64
2, 298920, Note_on_c, 0, 67, 92
2, 299036, Note_off_c, 0, 67, 64
2, 299040, Note_on_c, 0, 66, 93
2, 299156, Note_off_c, 0, 66, 64
2, 299160, Note_on_c, 0, 64, 85
2, 299276, Note_off_c, 0, 64, 64
2, 299280, Note_on_c, 0, 62, 72
2, 299396, Note_off_c, 0, 62, 64
2, 299400, Note_on_c, 0, 61, 81
2, 299516, Note_off_c, 0, 61, 64
2, 299520, Note_on_c, 0, 62, 85
2, 299636, Note_off_c, 0, 62, 64
2, 299640, Note_on_c, 0, 57, 75
2, 299756, Note_off_c, 0, 57, 64
2, 299760, Note_on_c, 0, 62, 86
2, 299876, Note_off_c, 0, 62, 64
2, 299880, Note_on_c, 0, 64, 86
2, 299996, Note_off_c, 0, 64, 64
2, 300000, Note_on_c, 0, 66, 68
2, 300116, Note_off_c, 0, 66, 64
2, 300120, Note_on_c, 0, 62, 63
2, 300236, Note_off_c, 0, 62, 64
2, 300240, Note_on_c, 0, 66, 89
2, 300356, Note_off_c, 0, 66, 64
2, 300360, Note_on_c, 0, 69, 74
2, 300476, Note_off_c, 0, 69, 64
2, 300480, Note_on_c, 0, 74, 98
2, 300596, Note_off_c, 0, 74, 64
2, 300600, Note_on_c, 0, 71, 98
2, 300716, Note_off_c, 0, 71, 64
2, 300720, Note_on_c, 0, 69, 85
2, 300836, Note_off_c, 0, 69, 64
2, 300840, Note_on_c, 0, 71, 82
2, 300956, Note_off_c, 0, 71, 64
2, 300960, Note_on_c, 0, 67, 82
2, 301076, Note_off_c, 0, 67, 64
2, 301080, Note_on_c, 0, 71, 78
2, 301196, Note_off_c, 0, 71, 64
2, 301200, Note_on_c, 0, 69, 58
2, 301316, Note_off_c, 0, 69, 64
2, 301320, Note_on_c, 0, 71, 61
2, 301436, Note_off_c, 0, 71, 64
2, 301440, Note_on_c, 0, 62, 76
2, 301556, Note_off_c, 0, 62, 64
2, 301560, Note_on_c, 0, 67, 29
2, 301676, Note_off_c, 0, 67, 64
2, 301680, Note_on_c, 0, 66, 79
2, 301796, Note_off_c, 0, 66, 64
2, 301800, Note_on_c, 0, 67, 73
2, 301916, Note_off_c, 0, 67, 64
2, 301920, Note_on_c, 0, 64, 85
2, 302036, Note_off_c, 0, 64, 64
2, 302040, Note_on_c, 0, 67, 76
2, 302156, Note_off_c, 0, 67, 64
2, 302160, Note_on_c, 0, 62, 55
2, 302276, Note_off_c, 0, 62, 64
2, 302280, Note_on_c, 0, 67, 72
2, 302396, Note_off_c, 0, 67, 64
2, 302400, Note_on_c, 0, 60, 80
2, 302516, Note_off_c, 0, 60, 64
2, 302520, Note_on_c, 0, 67, 81
2, 302636, Note_off_c, 0, 67, 64
2, 302640, Note_on_c, 0, 59, 72
2, 302756, Note_off_c, 0, 59, 64
2, 302760, Note_on_c, 0, 67, 77
2, 302876, Note_off_c, 0, 67, 64
2, 302880, Note_on_c, 0, 57, 68
2, 302996, Note_off_c, 0, 57, 64
2, 303000, Note_on_c, 0, 67, 89
2, 303116, Note_off_c, 0, 67, 64
2, 303120, Note_on_c, 0, 59, 75
2, 303236, Note_off_c, 0, 59, 64
2, 303240, Note_on_c, 0, 67, 85
2, 303356, Note_off_c, 0, 67, 64
2, 303360, Note_on_c, 0, 60, 76
2, 303476, Note_off_c, 0, 60, 64
2, 303480, Note_on_c, 0, 67, 91
2, 303596, Note_off_c, 0, 67, 64
2, 303600, Note_on_c, 0, 59, 83
2, 303716, Note_off_c, 0, 59, 64
2, 303720, Note_on_c, 0, 67, 88
2, 303836, Note_off_c, 0, 67, 64
2, 303840, Note_on_c, 0, 60, 83
2, 303956, Note_off_c, 0, 60, 64
2, 303960, Note_on_c, 0, 66, 93
2, 304076, Note_off_c, 0, 66, 64
2, 304080, Note_on_c, 0, 64, 104
2, 304196, Note_off_c, 0, 64, 64
2, 304200, Note_on_c, 0, 66, 93
2, 304316, Note_off_c, 0, 66, 64
2, 304320, Note_on_c, 0, 62, 96
2, 304436, Note_off_c, 0, 62, 64
2, 304440, Note_on_c, 0, 66, 94
2, 304556, Note_off_c, 0, 66, 64
2, 304560, Note_on_c, 0, 60, 93
2, 304676, Note_off_c, 0, 60, 64
2, 304680, Note_on_c, 0, 66, 84
2, 304796, Note_off_c, 0, 66, 64
2, 304800, Note_on_c, 0, 59, 90
2, 304916, Note_off_c, 0, 59, 64
2, 304920, Note_on_c, 0, 67, 95
2, 305036, Note_off_c, 0, 67, 64
2, 305040, Note_on_c, 0, 66, 82
2, 305156, Note_off_c, 0, 66, 64
2, 305160, Note_on_c, 0, 64, 95
2, 305276, Note_off_c, 0, 64, 64
2, 305280, Note_on_c, 0, 62, 81
2, 305396, Note_off_c, 0, 62, 64
2, 305400, Note_on_c, 0, 60, 77
2, 305516, Note_off_c, 0, 60, 64
2, 305520, Note_on_c, 0, 59, 78
2, 305636, Note_off_c, 0, 59, 64
2, 305640, Note_on_c, 0, 57, 74
2, 305756, Note_off_c, 0, 57, 64
2, 305760, Note_on_c, 0, 55, 92
2, 306000, Note_off_c, 0, 55, 64
2, 306240, Note_on_c, 0, 83, 104
2, 306480, Note_off_c, 0, 83, 64
2, 306720, Note_on_c, 0, 67, 93
2, 306960, Note_off_c, 0, 67, 64
2, 307200, Note_on_c, 0, 83, 101
2, 307680, Note_off_c, 0, 83, 64
2, 307680, Note_on_c, 0, 81, 111
2, 307920, Note_off_c, 0, 81, 64
2, 308160, Note_on_c, 0, 66, 112
2, 308400, Note_off_c, 0, 66, 64
2, 308640, Note_on_c, 0, 81, 117
2, 309120, Note_off_c, 0, 81, 64
2, 309120, Note_on_c, 0, 79, 121
2, 309236, Note_off_c, 0, 79, 64
2, 309240, Note_on_c, 0, 78, 96
2, 309356, Note_off_c, 0, 78, 64
2, 309360, Note_on_c, 0, 76, 52
2, 309476, Note_off_c, 0, 76, 64
2, 309480, Note_on_c, 0, 75, 90
2, 309596, Note_off_c, 0, 75, 64
2, 309600, Note_on_c, 0, 76, 90
2, 309716, Note_off_c, 0, 76, 64
2, 309720, Note_on_c, 0, 79, 93
2, 309836, Note_off_c, 0, 79, 64
2, 309840, Note_on_c, 0, 74, 82
2, 309956, Note_off_c, 0, 74, 64
2, 309960, Note_on_c, 0, 79, 90
2, 310076, Note_off_c, 0, 79, 64
2, 310080, Note_on_c, 0, 73, 102
2, 310196, Note_off_c, 0, 73, 64
2, 310200, Note_on_c, 0, 79, 92
2, 310316, Note_off_c, 0, 79, 64
2, 310320, Note_on_c, 0, 71, 93
2, 310440, Note_off_c, 0, 71, 64
2, 310440, Note_on_c, 0, 79, 85
2, 310556, Note_off_c, 0, 79, 64
2, 310560, Note_on_c, 0, 73, 102
2, 310676, Note_off_c, 0, 73, 64
2, 310680, Note_on_c, 0, 79, 97
2, 310796, Note_off_c, 0, 79, 64
2, 310800, Note_on_c, 0, 76, 91
2, 310916, Note_off_c, 0, 76, 64
2, 310920, Note_on_c, 0, 79, 101
2, 311036, Note_off_c, 0, 79, 64
2, 311040, Note_on_c, 0, 69, 113
2, 311284, Note_off_c, 0, 69, 64
2, 311288, Note_on_c, 0, 79, 117
2, 311524, Note_off_c, 0, 79, 64
2, 311532, Note_on_c, 0, 78, 106
2, 311784, Note_on_c, 0, 81, 107
2, 311792, Note_off_c, 0, 78, 64
2, 311844, Note_on_c, 0, 79, 97
2, 311856, Note_off_c, 0, 81, 64
2, 311900, Note_on_c, 0, 78, 99
2, 311904, Note_off_c, 0, 79, 64
2, 311956, Note_on_c, 0, 79, 104
2, 311968, Note_off_c, 0, 78, 64
2, 312000, Note_on_c, 0, 81, 113
2, 312004, Note_off_c, 0, 79, 64
2, 312236, Note_off_c, 0, 81, 64
2, 312240, Note_on_c, 0, 64, 124
2, 312476, Note_off_c, 0, 64, 64
2, 312480, Note_on_c, 0, 66, 125
2, 312716, Note_off_c, 0, 66, 64
2, 312720, Note_on_c, 0, 78, 108
2, 312956, Note_off_c, 0, 78, 64
2, 312960, Note_on_c, 0, 79, 109
2, 313196, Note_off_c, 0, 79, 64
2, 313200, Note_on_c, 0, 81, 109
2, 313436, Note_off_c, 0, 81, 64
2, 313440, Note_on_c, 0, 83, 109
2, 313676, Note_off_c, 0, 83, 64
2, 313680, Note_on_c, 0, 66, 127
2, 313916, Note_off_c, 0, 66, 64
2, 313920, Note_on_c, 0, 64, 127
2, 314156, Note_off_c, 0, 64, 64
2, 314160, Note_on_c, 0, 79, 115
2, 314396, Note_off_c, 0, 79, 64
2, 314400, Note_on_c, 0, 81, 117
2, 314636, Note_off_c, 0, 81, 64
2, 314640, Note_on_c, 0, 83, 123
2, 314876, Note_off_c, 0, 83, 64
2, 314880, Note_on_c, 0, 76, 117
2, 315116, Note_off_c, 0, 76, 64
2, 315120, Note_on_c, 0, 67, 93
2, 315360, Note_off_c, 0, 67, 64
2, 315360, Note_on_c, 0, 57, 127
2, 315596, Note_off_c, 0, 57, 64
2, 315600, Note_on_c, 0, 64, 127
2, 315836, Note_off_c, 0, 64, 64
2, 315840, Note_on_c, 0, 61, 119
2, 316076, Note_off_c, 0, 61, 64
2, 316080, Note_on_c, 0, 57, 109
2, 316316, Note_off_c, 0, 57, 64
2, 316320, Note_on_c, 0, 50, 127
2, 316556, Note_off_c, 0, 50, 64
2, 316560, Note_on_c, 0, 62, 108
2, 316796, Note_off_c, 0, 62, 64
2, 316800, Note_on_c, 0, 66, 108
2, 317040, Note_off_c, 0, 66, 64
2, 317040, Note_on_c, 0, 69, 90
2, 317280, Note_off_c, 0, 69, 64
2, 317280, Note_on_c, 0, 74, 119
2, 317760, Note_off_c, 0, 74, 64
2, 317880, Note_on_c, 0, 62, 97
2, 317996, Note_off_c, 0, 62, 64
2, 318000, Note_on_c, 0, 64, 97
2, 318116, Note_off_c, 0, 64, 64
2, 318120, Note_on_c, 0, 66, 80
2, 318236, Note_off_c, 0, 66, 64
2, 318240, Note_on_c, 0, 67, 89
2, 318356, Note_off_c, 0, 67, 64
2, 318360, Note_on_c, 0, 66, 108
2, 318476, Note_off_c, 0, 66, 64
2, 318480, Note_on_c, 0, 67, 83
2, 318596, Note_off_c, 0, 67, 64
2, 318600, Note_on_c, 0, 69, 93
2, 318716, Note_off_c, 0, 69, 64
2, 318720, Note_on_c, 0, 71, 97
2, 318836, Note_off_c, 0, 71, 64
2, 318840, Note_on_c, 0, 69, 85
2, 318956, Note_off_c, 0, 69, 64
2, 318960, Note_on_c, 0, 67, 84
2, 319076, Note_off_c, 0, 67, 64
2, 319080, Note_on_c, 0, 71, 89
2, 319196, Note_off_c, 0, 71, 64
2, 319200, Note_on_c, 0, 69, 90
2, 319316, Note_off_c, 0, 69, 64
2, 319320, Note_on_c, 0, 67, 81
2, 319436, Note_off_c, 0, 67, 64
2, 319440, Note_on_c, 0, 66, 99
2, 319556, Note_off_c, 0, 66, 64
2, 319560, Note_on_c, 0, 64, 91
2, 319676, Note_off_c, 0, 64, 64
2, 319680, Note_on_c, 0, 62, 82
2, 319796, Note_off_c, 0, 62, 64
2, 319800, Note_on_c, 0, 64, 97
2, 319916, Note_off_c, 0, 64, 64
2, 319920, Note_on_c, 0, 66, 82
2, 320036, Note_off_c, 0, 66, 64
2, 320040, Note_on_c, 0, 67, 92
2, 320156, Note_off_c, 0, 67, 64
2, 320160, Note_on_c, 0, 69, 88
2, 320276, Note_off_c, 0, 69, 64
2, 320280, Note_on_c, 0, 66, 108
2, 320396, Note_off_c, 0, 66, 64
2, 320400, Note_on_c, 0, 64, 92
2, 320516, Note_off_c, 0, 64, 64
2, 320520, Note_on_c, 0, 62, 81
2, 320636, Note_off_c, 0, 62, 64
2, 320640, Note_on_c, 0, 67, 95
2, 320756, Note_off_c, 0, 67, 64
2, 320760, Note_on_c, 0, 66, 92
2, 320876, Note_off_c, 0, 66, 64
2, 320880, Note_on_c, 0, 64, 92
2, 320996, Note_off_c, 0, 64, 64
2, 321000, Note_on_c, 0, 62, 81
2, 321116, Note_off_c, 0, 62, 64
2, 321120, Note_on_c, 0, 61, 94
2, 321236, Note_off_c, 0, 61, 64
2, 321240, Note_on_c, 0, 62, 93
2, 321356, Note_off_c, 0, 62, 64
2, 321360, Note_on_c, 0, 64, 93
2, 321476, Note_off_c, 0, 64, 64
2, 321480, Note_on_c, 0, 66, 88
2, 321596, Note_off_c, 0, 66, 64
2, 321600, Note_on_c, 0, 67, 89
2, 321716, Note_off_c, 0, 67, 64
2, 321720, Note_on_c, 0, 71, 89
2, 321836, Note_off_c, 0, 71, 64
2, 321840, Note_on_c, 0, 69, 81
2, 321956, Note_off_c, 0, 69, 64
2, 321960, Note_on_c, 0, 67, 92
2, 322076, Note_off_c, 0, 67, 64
2, 322080, Note_on_c, 0, 66, 93
2, 322196, Note_off_c, 0, 66, 64
2, 322200, Note_on_c, 0, 64, 85
2, 322316, Note_off_c, 0, 64, 64
2, 322320, Note_on_c, 0, 62, 72
2, 322436, Note_off_c, 0, 62, 64
2, 322440, Note_on_c, 0, 61, 81
2, 322556, Note_off_c, 0, 61, 64
2, 322560, Note_on_c, 0, 62, 85
2, 322676, Note_off_c, 0, 62, 64
2, 322680, Note_on_c, 0, 57, 75
2, 322796, Note_off_c, 0, 57, 64
2, 322800, Note_on_c, 0, 62, 86
2, 322916, Note_off_c, 0, 62, 64
2, 322920, Note_on_c, 0, 64, 86
2, 323036, Note_off_c, 0, 64, 64
2, 323040, Note_on_c, 0, 66, 68
2, 323156, Note_off_c, 0, 66, 64
2, 323160, Note_on_c, 0, 62, 63
2, 323276, Note_off_c, 0, 62, 64
2, 323280, Note_on_c, 0, 66, 89
2, 323396, Note_off_c, 0, 66, 64
2, 323400, Note_on_c, 0, 69, 74
2, 323516, Note_off_c, 0, 69, 64
2, 323520, Note_on_c, 0, 74, 98
2, 323636, Note_off_c, 0, 74, 64
2, 323640, Note_on_c, 0, 71, 98
2, 323756, Note_off_c, 0, 71, 64
2, 323760, Note_on_c, 0, 69, 85
2, 323876, Note_off_c, 0, 69, 64
2, 323880, Note_on_c, 0, 71, 82
2, 323996, Note_off_c, 0, 71, 64
2, 324000, Note_on_c, 0, 67, 82
2, 324116, Note_off_c, 0, 67, 64
2, 324120, Note_on_c, 0, 71, 78
2, 324236, Note_off_c, 0, 71, 64
2, 324240, Note_on_c, 0, 69, 58
2, 324356, Note_off_c, 0, 69, 64
2, 324360, Note_on_c, 0, 71, 61
2, 324476, Note_off_c, 0, 71, 64
2, 324480, Note_on_c, 0, 62, 76
2, 324596, Note_off_c, 0, 62, 64
2, 324600, Note_on_c, 0, 67, 29
2, 324716, Note_off_c, 0, 67, 64
2, 324720, Note_on_c, 0, 66, 79
2, 324836, Note_off_c, 0, 66, 64
2, 324840, Note_on_c, 0, 67, 73
2, 324956, Note_off_c, 0, 67, 64
2, 324960, Note_on_c, 0, 64, 85
2, 325076, Note_off_c, 0, 64, 64
2, 325080, Note_on_c, 0, 67, 76
2, 325196, Note_off_c, 0, 67, 64
2, 325200, Note_on_c, 0, 62, 55
2, 325316, Note_off_c, 0, 62, 64
2, 325320, Note_on_c, 0, 67, 72
2, 325436, Note_off_c, 0, 67, 64
2, 325440, Note_on_c, 0, 60, 80
2, 325556, Note_off_c, 0, 60, 64
2, 325560, Note_on_c, 0, 67, 81
2, 325676, Note_off_c, 0, 67, 64
2, 325680, Note_on_c, 0, 59, 72
2, 325796, Note_off_c, 0, 59, 64
2, 325800, Note_on_c, 0, 67, 77
2, 325916, Note_off_c, 0, 67, 64
2, 325920, Note_on_c, 0, 57, 68
2, 326036, Note_off_c, 0, 57, 64
2, 326040, Note_on_c, 0, 67, 89
2, 326156, Note_off_c, 0, 67, 64
2, 326160, Note_on_c, 0, 59, 75
2, 326276, Note_off_c, 0, 59, 64
2, 326280, Note_on_c, 0, 67, 85
2, 326396, Note_off_c, 0, 67, 64
2, 326400, Note_on_c, 0, 60, 76
2, 326516, Note_off_c, 0, 60, 64
2, 326520, Note_on_c, 0, 67, 91
2, 326636, Note_off_c, 0, 67, 64
2, 326640, Note_on_c, 0, 59, 83
2, 326756, Note_off_c, 0, 59, 64
2, 326760, Note_on_c, 0, 67, 88
2, 326876, Note_off_c, 0, 67, 64
2, 326880, Note_on_c, 0, 60, 83
2, 326996, Note_off_c, 0, 60, 64
2, 327000, Note_on_c, 0, 66, 93
2, 327116, Note_off_c, 0, 66, 64
2, 327120, Note_on_c, 0, 64, 104
2, 327236, Note_off_c, 0, 64, 64
2, 327240, Note_on_c, 0, 66, 93
2, 327356, Note_off_c, 0, 66, 64
2, 327360, Note_on_c, 0, 62, 96
2, 327476, Note_off_c, 0, 62, 64
2, 327480, Note_on_c, 0, 66, 94
2, 327596, Note_off_c, 0, 66, 64
2, 327600, Note_on_c, 0, 60, 93
2, 327716, Note_off_c, 0, 60, 64
2, 327720, Note_on_c, 0, 66, 84
2, 327836, Note_off_c, 0, 66, 64
2, 327840, Note_on_c, 0, 59, 90
2, 327956, Note_off_c, 0, 59, 64
2, 327960, Note_on_c, 0, 67, 95
2, 328076, Note_off_c, 0, 67, 64
2, 328080, Note_on_c, 0, 66, 82
2, 328196, Note_off_c, 0, 66, 64
2, 328200, Note_on_c, 0, 64, 95
2, 328316, Note_off_c, 0, 64, 64
2, 328320, Note_on_c, 0, 62, 81
2, 328436, Note_off_c, 0, 62, 64
2, 328440, Note_on_c, 0, 60, 77
2, 328556, Note_off_c, 0, 60, 64
2, 328560, Note_on_c, 0, 59, 78
2, 328676, Note_off_c, 0, 59, 64
2, 328680, Note_on_c, 0, 57, 74
2, 328796, Note_off_c, 0, 57, 64
2, 328800, Note_on_c, 0, 55, 92
2, 329040, Note_off_c, 0, 55, 64
2, 329280, Note_on_c, 0, 83, 104
2, 329520, Note_off_c, 0, 83, 64
2, 329760, Note_on_c, 0, 67, 93
2, 330000, Note_off_c, 0, 67, 64
2, 330240, Note_on_c, 0, 83, 101
2, 330720, Note_off_c, 0, 83, 64
2, 330720, Note_on_c, 0, 81, 111
2, 330960, Note_off_c, 0, 81, 64
2, 331200, Note_on_c, 0, 66, 112
2, 331440, Note_off_c, 0, 66, 64
2, 331680, Note_on_c, 0, 81, 117
2, 332160, Note_off_c, 0, 81, 64
2, 332160, Note_on_c, 0, 79, 121
2, 332276, Note_off_c, 0, 79, 64
2, 332280, Note_on_c, 0, 78, 96
2, 332396, Note_off_c, 0, 78, 64
2, 332400, Note_on_c, 0, 76, 52
2, 332516, Note_off_c, 0, 76, 64
2, 332520, Note_on_c, 0, 75, 90
2, 332636, Note_off_c, 0, 75, 64
2, 332640, Note_on_c, 0, 76, 90
2, 332756, Note_off_c, 0, 76, 64
2, 332760, Note_on_c, 0, 79, 93
2, 332876, Note_off_c, 0, 79, 64
2, 332880, Note_on_c, 0, 74, 82
2, 332996, Note_off_c, 0, 74, 64
2, 333000, Note_on_c, 0, 79, 90
2, 333116, Note_off_c, 0, 79, 64
2, 333120, Note_on_c, 0, 73, 102
2, 333236, Note_off_c, 0, 73, 64
2, 333240, Note_on_c, 0, 79, 92
2, 333356, Note_off_c, 0, 79, 64
2, 333360, Note_on_c, 0, 71, 93
2, 333480, Note_off_c, 0, 71, 64
2, 333480, Note_on_c, 0, 79, 85
2, 333596, Note_off_c, 0, 79, 64
2, 333600, Note_on_c, 0, 73, 102
2, 333716, Note_off_c, 0, 73, 64
2, 333720, Note_on_c, 0, 79, 97
2, 333836, Note_off_c, 0, 79, 64
2, 333840, Note_on_c, 0, 76, 91
2, 333956, Note_off_c, 0, 76, 64
2, 333960, Note_on_c, 0, 79, 101
2, 334076, Note_off_c, 0, 79, 64
2, 334080, Note_on_c, 0, 69, 113
2, 334324, Note_off_c, 0, 69, 64
2, 334328, Note_on_c, 0, 79, 117
2, 334564, Note_off_c, 0, 79, 64
2, 334572, Note_on_c, 0, 78, 106
2, 334824, Note_on_c, 0, 81, 107
2, 334832, Note_off_c, 0, 78, 64
2, 334884, Note_on_c, 0, 79, 97
2, 334896, Note_off_c, 0, 81, 64
2, 334940, Note_on_c, 0, 78, 99
2, 334944, Note_off_c, 0, 79, 64
2, 334996, Note_on_c, 0, 79, 104
2, 335008, Note_off_c, 0, 78, 64
2, 335040, Note_on_c, 0, 81, 113
2, 335044, Note_off_c, 0, 79, 64
2, 335276, Note_off_c, 0, 81, 64
2, 335280, Note_on_c, 0, 64, 124
2, 335516, Note_off_c, 0, 64, 64
2, 335520, Note_on_c, 0, 66, 125
2, 335756, Note_off_c, 0, 66, 64
2, 335760, Note_on_c, 0, 78, 108
2, 335996, Note_off_c, 0, 78, 64
2, 336000, Note_on_c, 0, 79, 109
2, 336236, Note_off_c, 0, 79, 64
2, 336240, Note_on_c, 0, 81, 109
2, 336476, Note_off_c, 0, 81, 64
2, 336480, Note_on_c, 0, 83, 109
2, 336716, Note_off_c, 0, 83, 64
2, 336720, Note_on_c, 0, 66, 127
2, 336956, Note_off_c, 0, 66, 64
2, 336960, Note_on_c, 0, 64, 127
2, 337196, Note_off_c, 0, 64, 64
2, 337200, Note_on_c, 0, 79, 115
2, 337436, Note_off_c, 0, 79, 64
2, 337440, Note_on_c, 0, 81, 117
2, 337676, Note_off_c, 0, 81, 64
2, 337680, Note_on_c, 0, 83, 123
2, 337916, Note_off_c, 0, 83, 64
2, 337920, Note_on_c, 0, 76, 117
2, 338156, Note_off_c, 0, 76, 64
2, 338160, Note_on_c, 0, 67, 93
2, 338400, Note_off_c, 0, 67, 64
2, 338400, Note_on_c, 0, 57, 127
2, 338636, Note_off_c, 0, 57, 64
2, 338640, Note_on_c, 0, 64, 127
2, 338876, Note_off_c, 0, 64, 64
2, 338880, Note_on_c, 0, 61, 119
2, 339116, Note_off_c, 0, 61, 64
2, 339120, Note_on_c, 0, 57, 109
2, 339356, Note_off_c, 0, 57, 64
2, 339360, Note_on_c, 0, 50, 127
2, 339596, Note_off_c, 0, 50, 64
2, 339600, Note_on_c, 0, 62, 108
2, 339836, Note_off_c, 0, 62, 64
2, 339840, Note_on_c, 0, 66, 108
2, 340080, Note_off_c, 0, 66, 64
2, 340080, Note_on_c, 0, 69, 90
2, 340320, Note_off_c, 0, 69, 64
2, 340320, Note_on_c, 0, 74, 119
2, 340800, Note_off_c, 0, 74, 64
2, 340800, Note_on_c, 0, 78, 127
2, 341040, Note_off_c, 0, 78, 64
2, 341280, Note_on_c, 0, 62, 119
2, 341520, Note_off_c, 0, 62, 64
2, 341744, Note_on_c, 0, 78, 112
2, 341772, Note_on_c, 0, 79, 107
2, 341776, Note_off_c, 0, 78, 64
2, 341804, Note_on_c, 0, 78, 85
2, 341820, Note_off_c, 0, 79, 64
2, 341832, Note_on_c, 0, 76, 97
2, 341840, Note_off_c, 0, 78, 64
2, 341876, Note_on_c, 0, 78, 112
2, 341888, Note_off_c, 0, 76, 64
2, 342220, Note_off_c, 0, 78, 64
2, 342236, Note_on_c, 0, 79, 117
2, 342480, Note_off_c, 0, 79, 64
2, 342484, Note_on_c, 0, 74, 96
2, 342604, Note_on_c, 0, 79, 113
2, 342608, Note_off_c, 0, 74, 64
2, 342716, Note_on_c, 0, 81, 113
2, 342720, Note_off_c, 0, 79, 64
2, 342948, Note_off_c, 0, 81, 64
2, 342952, Note_on_c, 0, 74, 93
2, 343072, Note_on_c, 0, 81, 115
2, 343080, Note_off_c, 0, 74, 64
2, 343196, Note_on_c, 0, 83, 119
2, 343208, Note_off_c, 0, 81, 64
2, 343428, Note_on_c, 0, 79, 102
2, 343436, Note_off_c, 0, 83, 64
2, 343680, Note_on_c, 0, 76, 104
2, 343692, Note_off_c, 0, 79, 64
2, 343916, Note_off_c, 0, 76, 64
2, 343916, Note_on_c, 0, 72, 101
2, 344164, Note_off_c, 0, 72, 64
2, 344164, Note_on_c, 0, 69, 102
2, 344400, Note_on_c, 0, 79, 106
2, 344408, Note_off_c, 0, 69, 64
2, 344640, Note_on_c, 0, 78, 115
2, 344656, Note_off_c, 0, 79, 64
2, 344700, Note_off_c, 0, 78, 64
2, 344700, Note_on_c, 0, 76, 80
2, 344760, Note_off_c, 0, 76, 64
2, 344760, Note_on_c, 0, 75, 93
2, 344880, Note_off_c, 0, 75, 64
2, 344880, Note_on_c, 0, 76, 98
2, 345308, Note_on_c, 0, 75, 88
2, 345328, Note_off_c, 0, 75, 64
2, 345340, Note_on_c, 0, 76, 100
2, 345360, Note_off_c, 0, 76, 64
2, 345360, Note_off_c, 0, 76, 64
2, 345360, Note_on_c, 0, 75, 92
2, 345640, Note_off_c, 0, 75, 64
2, 345840, Note_on_c, 0, 57, 107
2, 346036, Note_off_c, 0, 57, 64
2, 346040, Note_on_c, 0, 55, 85
2, 346064, Note_off_c, 0, 55, 64
2, 346072, Note_on_c, 0, 57, 93
2, 346092, Note_on_c, 0, 55, 97
2, 346108, Note_off_c, 0, 57, 64
2, 346320, Note_on_c, 0, 54, 106
2, 346332, Note_off_c, 0, 55, 64
2, 346556, Note_off_c, 0, 54, 64
2, 346556, Note_on_c, 0, 52, 113
2, 346736, Note_off_c, 0, 52, 64
2, 347040, Note_on_c, 0, 79, 117
2, 347240, Note_off_c, 0, 79, 64
2, 347508, Note_on_c, 0, 50, 111
2, 347600, Note_on_c, 0, 52, 92
2, 347608, Note_off_c, 0, 50, 64
2, 347648, Note_off_c, 0, 52, 64
2, 347648, Note_on_c, 0, 50, 80
2, 347680, Note_off_c, 0, 50, 64
2, 347680, Note_on_c, 0, 52, 91
2, 347708, Note_on_c, 0, 50, 88
2, 347712, Note_off_c, 0, 52, 64
2, 347736, Note_off_c, 0, 50, 64
2, 347736, Note_on_c, 0, 52, 90
2, 347764, Note_off_c, 0, 52, 64
2, 347764, Note_on_c, 0, 50, 90
2, 347792, Note_off_c, 0, 50, 64
2, 347792, Note_on_c, 0, 52, 91
2, 347816, Note_on_c, 0, 50, 86
2, 347824, Note_off_c, 0, 52, 64
2, 347848, Note_off_c, 0, 50, 64
2, 347848, Note_on_c, 0, 52, 93
2, 347884, Note_on_c, 0, 50, 92
2, 347892, Note_off_c, 0, 52, 64
2, 347920, Note_on_c, 0, 48, 89
2, 347924, Note_off_c, 0, 50, 64
2, 347952, Note_on_c, 0, 50, 98
2, 347960, Note_off_c, 0, 48, 64
2, 347996, Note_off_c, 0, 50, 64
2, 348000, Note_on_c, 0, 48, 121
2, 348208, Note_off_c, 0, 48, 64
2, 348468, Note_on_c, 0, 76, 123
2, 348624, Note_off_c, 0, 76, 64
2, 348944, Note_on_c, 0, 45, 113
2, 348980, Note_on_c, 0, 47, 84
2, 348984, Note_off_c, 0, 45, 64
2, 349020, Note_on_c, 0, 45, 77
2, 349024, Note_off_c, 0, 47, 64
2, 349056, Note_on_c, 0, 47, 80
2, 349060, Note_off_c, 0, 45, 64
2, 349088, Note_off_c, 0, 47, 64
2, 349088, Note_on_c, 0, 45, 82
2, 349120, Note_off_c, 0, 45, 64
2, 349120, Note_on_c, 0, 47, 77
2, 349144, Note_on_c, 0, 45, 82
2, 349152, Note_off_c, 0, 47, 64
2, 349184, Note_off_c, 0, 45, 64
2, 349184, Note_on_c, 0, 47, 98
2, 349212, Note_on_c, 0, 45, 85
2, 349216, Note_off_c, 0, 47, 64
2, 349248, Note_off_c, 0, 45, 64
2, 349248, Note_on_c, 0, 47, 97
2, 349276, Note_on_c, 0, 45, 88
2, 349288, Note_off_c, 0, 47, 64
2, 349312, Note_on_c, 0, 43, 88
2, 349316, Note_off_c, 0, 45, 64
2, 349352, Note_on_c, 0, 45, 95
2, 349360, Note_off_c, 0, 43, 64
2, 349404, Note_off_c, 0, 45, 64
2, 349440, Note_on_c, 0, 47, 127
2, 349680, Note_off_c, 0, 47, 64
2, 349920, Note_on_c, 0, 79, 117
2, 350156, Note_on_c, 0, 78, 102
2, 350160, Note_off_c, 0, 79, 64
2, 350396, Note_off_c, 0, 78, 64
2, 350400, Note_on_c, 0, 76, 106
2, 350628, Note_on_c, 0, 75, 102
2, 350644, Note_off_c, 0, 76, 64
2, 350880, Note_on_c, 0, 76, 98
2, 350884, Note_off_c, 0, 75, 64
2, 351120, Note_off_c, 0, 76, 64
2, 351364, Note_on_c, 0, 52, 119
2, 351952, Note_off_c, 0, 52, 64
2, 351952, Note_on_c, 0, 50, 104
2, 352072, Note_on_c, 0, 48, 100
2, 352084, Note_off_c, 0, 50, 64
2, 352184, Note_on_c, 0, 47, 101
2, 352188, Note_off_c, 0, 48, 64
2, 352308, Note_off_c, 0, 47, 64
2, 352320, Note_on_c, 0, 48, 100
2, 352440, Note_off_c, 0, 48, 64
2, 352440, Note_on_c, 0, 52, 109
2, 352560, Note_off_c, 0, 52, 64
2, 352560, Note_on_c, 0, 50, 111
2, 352680, Note_off_c, 0, 50, 64
2, 352680, Note_on_c, 0, 52, 98
2, 352800, Note_off_c, 0, 52, 64
2, 352800, Note_on_c, 0, 57, 121
2, 352920, Note_off_c, 0, 57, 64
2, 352920, Note_on_c, 0, 52, 101
2, 353040, Note_off_c, 0, 52, 64
2, 353040, Note_on_c, 0, 50, 90
2, 353160, Note_off_c, 0, 50, 64
2, 353160, Note_on_c, 0, 52, 109
2, 353280, Note_off_c, 0, 52, 64
2, 353280, Note_on_c, 0, 60, 91
2, 353400, Note_off_c, 0, 60, 64
2, 353400, Note_on_c, 0, 57, 98
2, 353520, Note_off_c, 0, 57, 64
2, 353520, Note_on_c, 0, 55, 95
2, 353640, Note_off_c, 0, 55, 64
2, 353640, Note_on_c, 0, 57, 96
2, 353760, Note_off_c, 0, 57, 64
2, 353760, Note_on_c, 0, 66, 102
2, 353880, Note_off_c, 0, 66, 64
2, 353880, Note_on_c, 0, 57, 101
2, 354000, Note_off_c, 0, 57, 64
2, 354000, Note_on_c, 0, 55, 91
2, 354120, Note_off_c, 0, 55, 64
2, 354120, Note_on_c, 0, 57, 101
2, 354240, Note_off_c, 0, 57, 64
2, 354240, Note_on_c, 0, 67, 117
2, 354360, Note_off_c, 0, 67, 64
2, 354360, Note_on_c, 0, 62, 74
2, 354480, Note_off_c, 0, 62, 64
2, 354480, Note_on_c, 0, 60, 89
2, 354600, Note_off_c, 0, 60, 64
2, 354600, Note_on_c, 0, 62, 97
2, 354720, Note_off_c, 0, 62, 64
2, 354720, Note_on_c, 0, 71, 117
2, 354840, Note_off_c, 0, 71, 64
2, 354840, Note_on_c, 0, 67, 102
2, 354960, Note_off_c, 0, 67, 64
2, 354960, Note_on_c, 0, 66, 99
2, 355080, Note_off_c, 0, 66, 64
2, 355080, Note_on_c, 0, 67, 109
2, 355200, Note_off_c, 0, 67, 64
2, 355200, Note_on_c, 0, 76, 107
2, 355320, Note_off_c, 0, 76, 64
2, 355320, Note_on_c, 0, 74, 84
2, 355440, Note_off_c, 0, 74, 64
2, 355440, Note_on_c, 0, 72, 111
2, 355560, Note_off_c, 0, 72, 64
2, 355560, Note_on_c, 0, 74, 107
2, 355680, Note_off_c, 0, 74, 64
2, 355680, Note_on_c, 0, 78, 115
2, 355800, Note_off_c, 0, 78, 64
2, 355800, Note_on_c, 0, 74, 98
2, 355920, Note_off_c, 0, 74, 64
2, 355920, Note_on_c, 0, 72, 100
2, 356040, Note_off_c, 0, 72, 64
2, 356040, Note_on_c, 0, 74, 96
2, 356160, Note_off_c, 0, 74, 64
2, 356160, Note_on_c, 0, 79, 101
2, 356280, Note_off_c, 0, 79, 64
2, 356280, Note_on_c, 0, 74, 91
2, 356400, Note_off_c, 0, 74, 64
2, 356400, Note_on_c, 0, 72, 102
2, 356520, Note_off_c, 0, 72, 64
2, 356520, Note_on_c, 0, 74, 93
2, 356640, Note_off_c, 0, 74, 64
2, 356640, Note_on_c, 0, 81, 113
2, 356760, Note_off_c, 0, 81, 64
2, 356760, Note_on_c, 0, 74, 89
2, 356880, Note_off_c, 0, 74, 64
2, 356880, Note_on_c, 0, 72, 98
2, 357000, Note_off_c, 0, 72, 64
2, 357000, Note_on_c, 0, 71, 97
2, 357120, Note_off_c, 0, 71, 64
2, 357120, Note_on_c, 0, 72, 102
2, 357240, Note_off_c, 0, 72, 64
2, 357240, Note_on_c, 0, 71, 98
2, 357360, Note_off_c, 0, 71, 64
2, 357360, Note_on_c, 0, 69, 89
2, 357480, Note_off_c, 0, 69, 64
2, 357480, Note_on_c, 0, 67, 95
2, 357600, Note_off_c, 0, 67, 64
2, 357600, Note_on_c, 0, 66, 81
2, 357720, Note_off_c, 0, 66, 64
2, 357720, Note_on_c, 0, 81, 126
2, 357840, Note_off_c, 0, 81, 64
2, 357840, Note_on_c, 0, 79, 104
2, 357960, Note_off_c, 0, 79, 64
2, 357960, Note_on_c, 0, 78, 119
2, 358080, Note_off_c, 0, 78, 64
2, 358080, Note_on_c, 0, 79, 115
2, 358320, Note_off_c, 0, 79, 64
2, 358320, Note_on_c, 0, 71, 109
2, 358560, Note_off_c, 0, 71, 64
2, 358800, Note_on_c, 0, 53, 106
2, 359040, Note_off_c, 0, 53, 64
2, 359040, Note_on_c, 0, 52, 107
2, 359280, Note_off_c, 0, 52, 64
2, 359280, Note_on_c, 0, 50, 95
2, 359520, Note_off_c, 0, 50, 64
2, 359520, Note_on_c, 0, 48, 109
2, 359640, Note_off_c, 0, 48, 64
2, 359640, Note_on_c, 0, 60, 106
2, 359760, Note_off_c, 0, 60, 64
2, 359760, Note_on_c, 0, 59, 90
2, 359880, Note_off_c, 0, 59, 64
2, 359880, Note_on_c, 0, 60, 100
2, 360000, Note_off_c, 0, 60, 64
2, 360000, Note_on_c, 0, 62, 104
2, 360120, Note_off_c, 0, 62, 64
2, 360120, Note_on_c, 0, 60, 96
2, 360240, Note_off_c, 0, 60, 64
2, 360240, Note_on_c, 0, 64, 100
2, 360360, Note_off_c, 0, 64, 64
2, 360360, Note_on_c, 0, 60, 91
2, 360480, Note_off_c, 0, 60, 64
2, 360480, Note_on_c, 0, 66, 108
2, 360600, Note_off_c, 0, 66, 64
2, 360600, Note_on_c, 0, 60, 89
2, 360720, Note_off_c, 0, 60, 64
2, 360720, Note_on_c, 0, 67, 93
2, 360840, Note_off_c, 0, 67, 64
2, 360840, Note_on_c, 0, 60, 86
2, 360960, Note_off_c, 0, 60, 64
2, 360960, Note_on_c, 0, 69, 104
2, 361080, Note_off_c, 0, 69, 64
2, 361080, Note_on_c, 0, 60, 100
2, 361200, Note_off_c, 0, 60, 64
2, 361200, Note_on_c, 0, 59, 101
2, 361320, Note_off_c, 0, 59, 64
2, 361320, Note_on_c, 0, 57, 84
2, 361440, Note_off_c, 0, 57, 64
2, 361440, Note_on_c, 0, 59, 102
2, 361680, Note_off_c, 0, 59, 64
2, 361680, Note_on_c, 0, 74, 113
2, 361920, Note_off_c, 0, 74, 64
2, 361920, Note_on_c, 0, 50, 113
2, 362160, Note_off_c, 0, 50, 64
2, 362160, Note_on_c, 0, 72, 106
2, 362400, Note_off_c, 0, 72, 64
2, 362400, Note_on_c, 0, 71, 86
2, 362520, Note_off_c, 0, 71, 64
2, 362520, Note_on_c, 0, 67, 62
2, 362640, Note_off_c, 0, 67, 64
2, 362640, Note_on_c, 0, 62, 97
2, 362760, Note_off_c, 0, 62, 64
2, 362760, Note_on_c, 0, 67, 97
2, 362880, Note_off_c, 0, 67, 64
2, 362880, Note_on_c, 0, 71, 88
2, 363000, Note_off_c, 0, 71, 64
2, 363000, Note_on_c, 0, 67, 97
2, 363120, Note_off_c, 0, 67, 64
2, 363120, Note_on_c, 0, 74, 109
2, 363240, Note_off_c, 0, 74, 64
2, 363240, Note_on_c, 0, 71, 100
2, 363360, Note_off_c, 0, 71, 64
2, 363360, Note_on_c, 0, 79, 113
2, 363840, Note_off_c, 0, 79, 64
2, 366000, Note_on_c, 0, 81, 111
2, 366956, Note_off_c, 0, 81, 64
2, 366960, Note_on_c, 0, 79, 107
2, 367076, Note_off_c, 0, 79, 64
2, 367080, Note_on_c, 0, 78, 112
2, 367196, Note_off_c, 0, 78, 64
2, 367200, Note_on_c, 0, 76, 102
2, 367316, Note_off_c, 0, 76, 64
2, 367320, Note_on_c, 0, 74, 97
2, 367436, Note_off_c, 0, 74, 64
2, 367440, Note_on_c, 0, 72, 109
2, 368396, Note_off_c, 0, 72, 64
2, 368400, Note_on_c, 0, 71, 119
2, 368516, Note_off_c, 0, 71, 64
2, 368520, Note_on_c, 0, 69, 104
2, 368636, Note_off_c, 0, 69, 64
2, 368640, Note_on_c, 0, 67, 100
2, 368756, Note_off_c, 0, 67, 64
2, 368760, Note_on_c, 0, 66, 110
2, 368876, Note_off_c, 0, 66, 64
2, 368880, Note_on_c, 0, 64, 109
2, 369836, Note_off_c, 0, 64, 64
2, 369840, Note_on_c, 0, 62, 107
2, 369956, Note_off_c, 0, 62, 64
2, 369960, Note_on_c, 0, 60, 104
2, 370076, Note_off_c, 0, 60, 64
2, 370080, Note_on_c, 0, 59, 101
2, 370196, Note_off_c, 0, 59, 64
2, 370200, Note_on_c, 0, 57, 107
2, 370316, Note_off_c, 0, 57, 64
2, 370320, Note_on_c, 0, 59, 121
2, 371156, Note_off_c, 0, 59, 64
2, 371160, Note_on_c, 0, 57, 102
2, 371276, Note_off_c, 0, 57, 64
2, 371280, Note_on_c, 0, 60, 102
2, 371396, Note_off_c, 0, 60, 64
2, 371400, Note_on_c, 0, 59, 107
2, 371516, Note_off_c, 0, 59, 64
2, 371520, Note_on_c, 0, 57, 101
2, 371636, Note_off_c, 0, 57, 64
2, 371640, Note_on_c, 0, 55, 97
2, 371756, Note_off_c, 0, 55, 64
2, 371760, Note_on_c, 0, 57, 115
2, 371996, Note_off_c, 0, 57, 64
2, 372000, Note_on_c, 0, 69, 124
2, 372716, Note_off_c, 0, 69, 64
2, 372720, Note_on_c, 0, 67, 106
2, 372836, Note_off_c, 0, 67, 64
2, 372840, Note_on_c, 0, 66, 100
2, 372960, Note_off_c, 0, 66, 64
2, 372960, Note_on_c, 0, 64, 100
2, 373080, Note_off_c, 0, 64, 64
2, 373080, Note_on_c, 0, 62, 111
2, 373196, Note_off_c, 0, 62, 64
2, 373200, Note_on_c, 0, 61, 112
2, 373316, Note_off_c, 0, 61, 64
2, 373320, Note_on_c, 0, 64, 111
2, 373436, Note_off_c, 0, 64, 64
2, 373440, Note_on_c, 0, 69, 89
2, 373556, Note_off_c, 0, 69, 64
2, 373560, Note_on_c, 0, 71, 111
2, 373676, Note_off_c, 0, 71, 64
2, 373680, Note_on_c, 0, 72, 113
2, 374156, Note_off_c, 0, 72, 64
2, 374160, Note_on_c, 0, 71, 97
2, 374276, Note_off_c, 0, 71, 64
2, 374280, Note_on_c, 0, 69, 102
2, 374396, Note_off_c, 0, 69, 64
2, 374400, Note_on_c, 0, 67, 104
2, 374516, Note_off_c, 0, 67, 64
2, 374520, Note_on_c, 0, 66, 110
2, 374636, Note_off_c, 0, 66, 64
2, 374640, Note_on_c, 0, 64, 111
2, 375476, Note_off_c, 0, 64, 64
2, 375480, Note_on_c, 0, 62, 100
2, 375596, Note_off_c, 0, 62, 64
2, 375600, Note_on_c, 0, 61, 104
2, 375716, Note_off_c, 0, 61, 64
2, 375720, Note_on_c, 0, 64, 101
2, 375836, Note_off_c, 0, 64, 64
2, 375840, Note_on_c, 0, 62, 98
2, 375956, Note_off_c, 0, 62, 64
2, 375960, Note_on_c, 0, 61, 106
2, 376076, Note_off_c, 0, 61, 64
2, 376080, Note_on_c, 0, 62, 109
2, 376196, Note_off_c, 0, 62, 64
2, 376200, Note_on_c, 0, 60, 101
2, 376316, Note_off_c, 0, 60, 64
2, 376320, Note_on_c, 0, 59, 85
2, 376436, Note_off_c, 0, 59, 64
2, 376440, Note_on_c, 0, 57, 98
2, 376556, Note_off_c, 0, 57, 64
2, 376560, Note_on_c, 0, 55, 90
2, 376676, Note_off_c, 0, 55, 64
2, 376680, Note_on_c, 0, 54, 99
2, 376796, Note_off_c, 0, 54, 64
2, 376800, Note_on_c, 0, 55, 97
2, 377036, Note_off_c, 0, 55, 64
2, 377520, Note_on_c, 0, 81, 111
2, 378476, Note_off_c, 0, 81, 64
2, 378480, Note_on_c, 0, 79, 107
2, 378596, Note_off_c, 0, 79, 64
2, 378600, Note_on_c, 0, 78, 112
2, 378716, Note_off_c, 0, 78, 64
2, 378720, Note_on_c, 0, 76, 102
2, 378836, Note_off_c, 0, 76, 64
2, 378840, Note_on_c, 0, 74, 97
2, 378956, Note_off_c, 0, 74, 64
2, 378960, Note_on_c, 0, 72, 109
2, 379916, Note_off_c, 0, 72, 64
2, 379920, Note_on_c, 0, 71, 119
2, 380036, Note_off_c, 0, 71, 64
2, 380040, Note_on_c, 0, 69, 104
2, 380156, Note_off_c, 0, 69, 64
2, 380160, Note_on_c, 0, 67, 100
2, 380276, Note_off_c, 0, 67, 64
2, 380280, Note_on_c, 0, 66, 110
2, 380396, Note_off_c, 0, 66, 64
2, 380400, Note_on_c, 0, 64, 109
2, 381356, Note_off_c, 0, 64, 64
2, 381360, Note_on_c, 0, 62, 107
2, 381476, Note_off_c, 0, 62, 64
2, 381480, Note_on_c, 0, 60, 104
2, 381596, Note_off_c, 0, 60, 64
2, 381600, Note_on_c, 0, 59, 101
2, 381716, Note_off_c, 0, 59, 64
2, 381720, Note_on_c, 0, 57, 107
2, 381836, Note_off_c, 0, 57, 64
2, 381840, Note_on_c, 0, 59, 121
2, 382676, Note_off_c, 0, 59, 64
2, 382680, Note_on_c, 0, 57, 102
2, 382796, Note_off_c, 0, 57, 64
2, 382800, Note_on_c, 0, 60, 102
2, 382916, Note_off_c, 0, 60, 64
2, 382920, Note_on_c, 0, 59, 107
2, 383036, Note_off_c, 0, 59, 64
2, 383040, Note_on_c, 0, 57, 101
2, 383156, Note_off_c, 0, 57, 64
2, 383160, Note_on_c, 0, 55, 97
2, 383276, Note_off_c, 0, 55, 64
2, 383280, Note_on_c, 0, 57, 115
2, 383516, Note_off_c, 0, 57, 64
2, 383520, Note_on_c, 0, 69, 124
2, 384236, Note_off_c, 0, 69, 64
2, 384240, Note_on_c, 0, 67, 106
2, 384356, Note_off_c, 0, 67, 64
2, 384360, Note_on_c, 0, 66, 100
2, 384480, Note_off_c, 0, 66, 64
2, 384480, Note_on_c, 0, 64, 100
2, 384600, Note_off_c, 0, 64, 64
2, 384600, Note_on_c, 0, 62, 111
2, 384716, Note_off_c, 0, 62, 64
2, 384720, Note_on_c, 0, 61, 112
2, 384836, Note_off_c, 0, 61, 64
2, 384840, Note_on_c, 0, 64, 111
2, 384956, Note_off_c, 0, 64, 64
2, 384960, Note_on_c, 0, 69, 89
2, 385076, Note_off_c, 0, 69, 64
2, 385080, Note_on_c, 0, 71, 111
2, 385196, Note_off_c, 0, 71, 64
2, 385200, Note_on_c, 0, 72, 113
2, 385676, Note_off_c, 0, 72, 64
2, 385680, Note_on_c, 0, 71, 97
2, 385796, Note_off_c, 0, 71, 64
2, 385800, Note_on_c, 0, 69, 102
2, 385916, Note_off_c, 0, 69, 64
2, 385920, Note_on_c, 0, 67, 104
2, 386036, Note_off_c, 0, 67, 64
2, 386040, Note_on_c, 0, 66, 110
2, 386156, Note_off_c, 0, 66, 64
2, 386160, Note_on_c, 0, 64, 111
2, 386996, Note_off_c, 0, 64, 64
2, 387000, Note_on_c, 0, 62, 100
2, 387116, Note_off_c, 0, 62, 64
2, 387120, Note_on_c, 0, 61, 104
2, 387236, Note_off_c, 0, 61, 64
2, 387240, Note_on_c, 0, 64, 101
2, 387356, Note_off_c, 0, 64, 64
2, 387360, Note_on_c, 0, 62, 98
2, 387476, Note_off_c, 0, 62, 64
2, 387480, Note_on_c, 0, 61, 106
2, 387596, Note_off_c, 0, 61, 64
2, 387600, Note_on_c, 0, 62, 109
2, 388320, Note_off_c, 0, 62, 64
2, 389040, Note_on_c, 0, 83, 115
2, 389996, Note_off_c, 0, 83, 64
2, 390000, Note_on_c, 0, 81, 111
2, 390116, Note_off_c, 0, 81, 64
2, 390120, Note_on_c, 0, 79, 93
2, 390236, Note_off_c, 0, 79, 64
2, 390240, Note_on_c, 0, 78, 110
2, 390356, Note_off_c, 0, 78, 64
2, 390360, Note_on_c, 0, 76, 107
2, 390476, Note_off_c, 0, 76, 64
2, 390480, Note_on_c, 0, 75, 119
2, 390716, Note_off_c, 0, 75, 64
2, 390720, Note_on_c, 0, 74, 104
2, 391436, Note_off_c, 0, 74, 64
2, 391440, Note_on_c, 0, 72, 106
2, 391556, Note_off_c, 0, 72, 64
2, 391560, Note_on_c, 0, 71, 100
2, 391676, Note_off_c, 0, 71, 64
2, 391680, Note_on_c, 0, 69, 93
2, 391796, Note_off_c, 0, 69, 64
2, 391800, Note_on_c, 0, 67, 100
2, 391916, Note_off_c, 0, 67, 64
2, 391920, Note_on_c, 0, 66, 123
2, 392756, Note_off_c, 0, 66, 64
2, 392760, Note_on_c, 0, 64, 107
2, 392880, Note_off_c, 0, 64, 64
2, 392880, Note_on_c, 0, 63, 100
2, 393000, Note_off_c, 0, 63, 64
2, 393000, Note_on_c, 0, 66, 106
2, 393120, Note_off_c, 0, 66, 64
2, 393120, Note_on_c, 0, 64, 102
2, 393240, Note_off_c, 0, 64, 64
2, 393240, Note_on_c, 0, 63, 102
2, 393356, Note_off_c, 0, 63, 64
2, 393360, Note_on_c, 0, 64, 113
2, 393476, Note_off_c, 0, 64, 64
2, 393480, Note_on_c, 0, 62, 104
2, 393596, Note_off_c, 0, 62, 64
2, 393600, Note_on_c, 0, 60, 104
2, 393716, Note_off_c, 0, 60, 64
2, 393720, Note_on_c, 0, 59, 96
2, 393836, Note_off_c, 0, 59, 64
2, 393840, Note_on_c, 0, 57, 102
2, 393956, Note_off_c, 0, 57, 64
2, 393960, Note_on_c, 0, 56, 97
2, 394076, Note_off_c, 0, 56, 64
2, 394080, Note_on_c, 0, 57, 104
2, 394556, Note_off_c, 0, 57, 64
2, 394800, Note_on_c, 0, 62, 89
2, 395520, Note_off_c, 0, 62, 64
2, 395640, Note_on_c, 0, 59, 71
2, 395756, Note_off_c, 0, 59, 64
2, 395760, Note_on_c, 0, 60, 93
2, 395876, Note_off_c, 0, 60, 64
2, 395880, Note_on_c, 0, 57, 54
2, 396000, Note_off_c, 0, 57, 64
2, 396000, Note_on_c, 0, 60, 104
2, 396120, Note_off_c, 0, 60, 64
2, 396120, Note_on_c, 0, 64, 111
2, 396240, Note_off_c, 0, 64, 64
2, 396240, Note_on_c, 0, 66, 108
2, 397076, Note_off_c, 0, 66, 64
2, 397080, Note_on_c, 0, 63, 108
2, 397196, Note_off_c, 0, 63, 64
2, 397200, Note_on_c, 0, 64, 109
2, 397316, Note_off_c, 0, 64, 64
2, 397320, Note_on_c, 0, 60, 95
2, 397436, Note_off_c, 0, 60, 64
2, 397440, Note_on_c, 0, 64, 109
2, 397556, Note_off_c, 0, 64, 64
2, 397560, Note_on_c, 0, 67, 104
2, 397676, Note_off_c, 0, 67, 64
2, 397680, Note_on_c, 0, 69, 117
2, 398516, Note_off_c, 0, 69, 64
2, 398520, Note_on_c, 0, 67, 98
2, 398636, Note_off_c, 0, 67, 64
2, 398640, Note_on_c, 0, 66, 94
2, 398756, Note_off_c, 0, 66, 64
2, 398760, Note_on_c, 0, 69, 96
2, 398876, Note_off_c, 0, 69, 64
2, 398880, Note_on_c, 0, 67, 95
2, 398996, Note_off_c, 0, 67, 64
2, 399000, Note_on_c, 0, 66, 97
2, 399116, Note_off_c, 0, 66, 64
2, 399120, Note_on_c, 0, 67, 101
2, 399236, Note_off_c, 0, 67, 64
2, 399240, Note_on_c, 0, 66, 101
2, 399356, Note_off_c, 0, 66, 64
2, 399360, Note_on_c, 0, 64, 96
2, 399476, Note_off_c, 0, 64, 64
2, 399480, Note_on_c, 0, 62, 91
2, 399596, Note_off_c, 0, 62, 64
2, 399600, Note_on_c, 0, 60, 100
2, 399716, Note_off_c, 0, 60, 64
2, 399720, Note_on_c, 0, 59, 95
2, 399836, Note_off_c, 0, 59, 64
2, 399840, Note_on_c, 0, 57, 101
2, 400076, Note_off_c, 0, 57, 64
2, 400560, Note_on_c, 0, 83, 115
2, 401516, Note_off_c, 0, 83, 64
2, 401520, Note_on_c, 0, 81, 111
2, 401636, Note_off_c, 0, 81, 64
2, 401640, Note_on_c, 0, 79, 93
2, 401756, Note_off_c, 0, 79, 64
2, 401760, Note_on_c, 0, 78, 110
2, 401876, Note_off_c, 0, 78, 64
2, 401880, Note_on_c, 0, 76, 107
2, 401996, Note_off_c, 0, 76, 64
2, 402000, Note_on_c, 0, 75, 119
2, 402236, Note_off_c, 0, 75, 64
2, 402240, Note_on_c, 0, 74, 104
2, 402956, Note_off_c, 0, 74, 64
2, 402960, Note_on_c, 0, 72, 106
2, 403076, Note_off_c, 0, 72, 64
2, 403080, Note_on_c, 0, 71, 100
2, 403196, Note_off_c, 0, 71, 64
2, 403200, Note_on_c, 0, 69, 93
2, 403316, Note_off_c, 0, 69, 64
2, 403320, Note_on_c, 0, 67, 100
2, 403436, Note_off_c, 0, 67, 64
2, 403440, Note_on_c, 0, 66, 123
2, 404276, Note_off_c, 0, 66, 64
2, 404280, Note_on_c, 0, 64, 107
2, 404400, Note_off_c, 0, 64, 64
2, 404400, Note_on_c, 0, 63, 100
2, 404520, Note_off_c, 0, 63, 64
2, 404520, Note_on_c, 0, 66, 106
2, 404640, Note_off_c, 0, 66, 64
2, 404640, Note_on_c, 0, 64, 102
2, 404760, Note_off_c, 0, 64, 64
2, 404760, Note_on_c, 0, 63, 102
2, 404876, Note_off_c, 0, 63, 64
2, 404880, Note_on_c, 0, 64, 113
2, 404996, Note_off_c, 0, 64, 64
2, 405000, Note_on_c, 0, 62, 104
2, 405116, Note_off_c, 0, 62, 64
2, 405120, Note_on_c, 0, 60, 104
2, 405236, Note_off_c, 0, 60, 64
2, 405240, Note_on_c, 0, 59, 96
2, 405356, Note_off_c, 0, 59, 64
2, 405360, Note_on_c, 0, 57, 102
2, 405476, Note_off_c, 0, 57, 64
2, 405480, Note_on_c, 0, 56, 97
2, 405596, Note_off_c, 0, 56, 64
2, 405600, Note_on_c, 0, 57, 104
2, 406076, Note_off_c, 0, 57, 64
2, 406320, Note_on_c, 0, 62, 89
2, 407040, Note_off_c, 0, 62, 64
2, 407160, Note_on_c, 0, 59, 71
2, 407276, Note_off_c, 0, 59, 64
2, 407280, Note_on_c, 0, 60, 93
2, 407396, Note_off_c, 0, 60, 64
2, 407400, Note_on_c, 0, 57, 54
2, 407520, Note_off_c, 0, 57, 64
2, 407520, Note_on_c, 0, 60, 104
2, 407640, Note_off_c, 0, 60, 64
2, 407640, Note_on_c, 0, 64, 111
2, 407760, Note_off_c, 0, 64, 64
2, 407760, Note_on_c, 0, 66, 108
2, 408596, Note_off_c, 0, 66, 64
2, 408600, Note_on_c, 0, 63, 108
2, 408716, Note_off_c, 0, 63, 64
2, 408720, Note_on_c, 0, 64, 109
2, 408836, Note_off_c, 0, 64, 64
2, 408840, Note_on_c, 0, 60, 95
2, 408956, Note_off_c, 0, 60, 64
2, 408960, Note_on_c, 0, 64, 109
2, 409076, Note_off_c, 0, 64, 64
2, 409080, Note_on_c, 0, 67, 104
2, 409196, Note_off_c, 0, 67, 64
2, 409200, Note_on_c, 0, 69, 117
2, 410036, Note_off_c, 0, 69, 64
2, 410040, Note_on_c, 0, 67, 98
2, 410156, Note_off_c, 0, 67, 64
2, 410160, Note_on_c, 0, 66, 94
2, 410276, Note_off_c, 0, 66, 64
2, 410280, Note_on_c, 0, 69, 96
2, 410396, Note_off_c, 0, 69, 64
2, 410400, Note_on_c, 0, 67, 95
2, 410516, Note_off_c, 0, 67, 64
2, 410520, Note_on_c, 0, 66, 97
2, 410636, Note_off_c, 0, 66, 64
2, 410640, Note_on_c, 0, 67, 101
2, 411360, Note_off_c, 0, 67, 64
2, 412080, Note_on_c, 0, 71, 101
2, 412444, Note_on_c, 0, 69, 89
2, 412456, Note_off_c, 0, 71, 64
2, 412548, Note_off_c, 0, 69, 64
2, 412560, Note_on_c, 0, 71, 104
2, 412800, Note_off_c, 0, 71, 64
2, 412800, Note_on_c, 0, 62, 91
2, 413148, Note_on_c, 0, 67, 95
2, 413208, Note_off_c, 0, 62, 64
2, 413272, Note_on_c, 0, 71, 102
2, 413280, Note_off_c, 0, 67, 64
2, 413440, Note_off_c, 0, 71, 64
2, 413448, Note_on_c, 0, 69, 84
2, 413480, Note_off_c, 0, 69, 64
2, 413496, Note_on_c, 0, 71, 97
2, 413524, Note_on_c, 0, 69, 84
2, 413548, Note_off_c, 0, 71, 64
2, 413872, Note_on_c, 0, 67, 104
2, 413892, Note_off_c, 0, 69, 64
2, 413988, Note_on_c, 0, 69, 88
2, 413992, Note_off_c, 0, 67, 64
2, 414208, Note_off_c, 0, 69, 64
2, 414216, Note_on_c, 0, 74, 100
2, 414920, Note_on_c, 0, 79, 100
2, 414924, Note_off_c, 0, 74, 64
2, 414952, Note_off_c, 0, 79, 64
2, 414960, Note_on_c, 0, 78, 106
2, 415000, Note_off_c, 0, 78, 64
2, 415000, Note_on_c, 0, 79, 91
2, 415328, Note_on_c, 0, 78, 96
2, 415336, Note_off_c, 0, 79, 64
2, 415424, Note_off_c, 0, 78, 64
2, 415440, Note_on_c, 0, 79, 93
2, 415664, Note_off_c, 0, 79, 64
2, 415684, Note_on_c, 0, 69, 80
2, 416032, Note_off_c, 0, 69, 64
2, 416040, Note_on_c, 0, 76, 92
2, 416160, Note_off_c, 0, 76, 64
2, 416160, Note_on_c, 0, 79, 100
2, 416312, Note_off_c, 0, 79, 64
2, 416316, Note_on_c, 0, 78, 88
2, 416356, Note_off_c, 0, 78, 64
2, 416368, Note_on_c, 0, 79, 101
2, 416400, Note_on_c, 0, 78, 90
2, 416424, Note_off_c, 0, 79, 64
2, 416744, Note_on_c, 0, 76, 90
2, 416764, Note_off_c, 0, 78, 64
2, 416844, Note_off_c, 0, 76, 64
2, 416848, Note_on_c, 0, 78, 101
2, 417096, Note_off_c, 0, 78, 64
2, 417096, Note_on_c, 0, 74, 100
2, 418288, Note_off_c, 0, 74, 64
2, 418308, Note_on_c, 0, 76, 97
2, 418360, Note_on_c, 0, 78, 93
2, 418396, Note_off_c, 0, 76, 64
2, 418424, Note_on_c, 0, 79, 88
2, 418432, Note_off_c, 0, 78, 64
2, 418488, Note_on_c, 0, 81, 102
2, 418500, Note_off_c, 0, 79, 64
2, 418548, Note_on_c, 0, 83, 121
2, 418568, Note_off_c, 0, 81, 64
2, 418904, Note_on_c, 0, 79, 97
2, 418928, Note_off_c, 0, 83, 64
2, 419028, Note_off_c, 0, 79, 64
2, 419032, Note_on_c, 0, 74, 92
2, 419256, Note_off_c, 0, 74, 64
2, 419268, Note_on_c, 0, 76, 113
2, 419748, Note_off_c, 0, 76, 64
2, 419760, Note_on_c, 0, 78, 101
2, 419820, Note_off_c, 0, 78, 64
2, 419820, Note_on_c, 0, 79, 85
2, 419880, Note_off_c, 0, 79, 64
2, 419880, Note_on_c, 0, 81, 95
2, 419940, Note_off_c, 0, 81, 64
2, 419940, Note_on_c, 0, 83, 97
2, 419992, Note_on_c, 0, 84, 115
2, 420000, Note_off_c, 0, 83, 64
2, 420352, Note_off_c, 0, 84, 64
2, 420360, Note_on_c, 0, 81, 101
2, 420456, Note_on_c, 0, 76, 97
2, 420480, Note_off_c, 0, 81, 64
2, 420708, Note_on_c, 0, 78, 99
2, 420720, Note_off_c, 0, 76, 64
2, 421080, Note_on_c, 0, 74, 88
2, 421084, Note_off_c, 0, 78, 64
2, 421188, Note_off_c, 0, 74, 64
2, 421188, Note_on_c, 0, 79, 106
2, 421404, Note_off_c, 0, 79, 64
2, 421440, Note_on_c, 0, 69, 101
2, 421788, Note_on_c, 0, 71, 92
2, 421844, Note_off_c, 0, 69, 64
2, 421908, Note_on_c, 0, 72, 102
2, 421912, Note_off_c, 0, 71, 64
2, 422092, Note_off_c, 0, 72, 64
2, 422160, Note_on_c, 0, 72, 109
2, 422408, Note_on_c, 0, 71, 100
2, 422412, Note_off_c, 0, 72, 64
2, 423220, Note_on_c, 0, 69, 88
2, 423244, Note_off_c, 0, 71, 64
2, 423348, Note_off_c, 0, 69, 64
2, 423348, Note_on_c, 0, 67, 77
2, 423464, Note_on_c, 0, 66, 99
2, 423484, Note_off_c, 0, 67, 64
2, 423564, Note_off_c, 0, 66, 64
2, 423584, Note_on_c, 0, 67, 101
2, 424056, Note_off_c, 0, 67, 64
2, 424060, Note_on_c, 0, 74, 109
2, 424260, Note_off_c, 0, 74, 64
2, 424288, Note_on_c, 0, 79, 109
2, 424336, Note_off_c, 0, 79, 64
2, 424336, Note_on_c, 0, 78, 112
2, 424384, Note_on_c, 0, 79, 104
2, 424400, Note_off_c, 0, 78, 64
2, 425260, Note_on_c, 0, 81, 97
2, 425280, Note_off_c, 0, 79, 64
2, 425376, Note_on_c, 0, 79, 86
2, 425392, Note_off_c, 0, 81, 64
2, 425484, Note_on_c, 0, 78, 89
2, 425508, Note_off_c, 0, 79, 64
2, 425592, Note_on_c, 0, 76, 96
2, 425620, Note_off_c, 0, 78, 64
2, 425704, Note_off_c, 0, 76, 64
2, 425704, Note_on_c, 0, 78, 88
2, 425752, Note_on_c, 0, 76, 92
2, 425760, Note_off_c, 0, 78, 64
2, 425800, Note_on_c, 0, 78, 97
2, 425816, Note_off_c, 0, 76, 64
2, 426844, Note_off_c, 0, 78, 64
2, 426844, Note_on_c, 0, 79, 89
2, 426960, Note_on_c, 0, 78, 99
2, 426976, Note_off_c, 0, 79, 64
2, 427168, Note_off_c, 0, 78, 64
2, 427176, Note_on_c, 0, 76, 109
2, 427540, Note_on_c, 0, 73, 93
2, 427560, Note_off_c, 0, 76, 64
2, 427656, Note_off_c, 0, 73, 64
2, 427656, Note_on_c, 0, 74, 92
2, 427804, Note_on_c, 0, 73, 104
2, 427808, Note_off_c, 0, 74, 64
2, 427848, Note_off_c, 0, 73, 64
2, 427852, Note_on_c, 0, 74, 89
2, 427900, Note_on_c, 0, 73, 102
2, 427924, Note_off_c, 0, 74, 64
2, 428256, Note_on_c, 0, 74, 98
2, 428264, Note_off_c, 0, 73, 64
2, 428368, Note_off_c, 0, 74, 64
2, 428376, Note_on_c, 0, 76, 98
2, 428616, Note_off_c, 0, 76, 64
2, 428620, Note_on_c, 0, 69, 95
2, 429804, Note_off_c, 0, 69, 64
2, 429840, Note_on_c, 0, 71, 82
2, 429900, Note_off_c, 0, 71, 64
2, 429900, Note_on_c, 0, 73, 85
2, 429960, Note_off_c, 0, 73, 64
2, 429960, Note_on_c, 0, 74, 84
2, 430020, Note_off_c, 0, 74, 64
2, 430020, Note_on_c, 0, 76, 86
2, 430080, Note_off_c, 0, 76, 64
2, 430080, Note_on_c, 0, 78, 119
2, 430440, Note_off_c, 0, 78, 64
2, 430440, Note_on_c, 0, 74, 102
2, 430560, Note_on_c, 0, 69, 92
2, 430576, Note_off_c, 0, 74, 64
2, 430800, Note_on_c, 0, 71, 117
2, 430808, Note_off_c, 0, 69, 64
2, 431236, Note_off_c, 0, 71, 64
2, 431272, Note_on_c, 0, 73, 101
2, 431316, Note_off_c, 0, 73, 64
2, 431332, Note_on_c, 0, 74, 78
2, 431392, Note_on_c, 0, 76, 96
2, 431424, Note_off_c, 0, 74, 64
2, 431448, Note_on_c, 0, 78, 79
2, 431452, Note_off_c, 0, 76, 64
2, 431508, Note_on_c, 0, 79, 106
2, 431512, Note_off_c, 0, 78, 64
2, 431860, Note_on_c, 0, 76, 100
2, 431864, Note_off_c, 0, 79, 64
2, 431984, Note_off_c, 0, 76, 64
2, 431992, Note_on_c, 0, 71, 90
2, 432224, Note_on_c, 0, 73, 92
2, 432248, Note_off_c, 0, 71, 64
2, 432580, Note_on_c, 0, 69, 81
2, 432588, Note_off_c, 0, 73, 64
2, 432700, Note_on_c, 0, 81, 104
2, 432708, Note_off_c, 0, 69, 64
2, 432944, Note_off_c, 0, 81, 64
2, 432944, Note_on_c, 0, 74, 97
2, 433308, Note_on_c, 0, 76, 91
2, 433312, Note_off_c, 0, 74, 64
2, 433440, Note_on_c, 0, 73, 92
2, 433452, Note_off_c, 0, 76, 64
2, 433644, Note_off_c, 0, 73, 64
2, 433672, Note_on_c, 0, 73, 92
2, 433912, Note_on_c, 0, 74, 75
2, 433932, Note_off_c, 0, 73, 64
2, 434896, Note_off_c, 0, 74, 64
2, 435104, Note_on_c, 0, 78, 86
2, 435464, Note_on_c, 0, 76, 92
2, 435480, Note_off_c, 0, 78, 64
2, 435584, Note_off_c, 0, 76, 64
2, 435608, Note_on_c, 0, 78, 73
2, 435820, Note_off_c, 0, 78, 64
2, 435820, Note_on_c, 0, 69, 81
2, 436188, Note_off_c, 0, 69, 64
2, 436200, Note_on_c, 0, 74, 82
2, 436296, Note_on_c, 0, 78, 94
2, 436328, Note_off_c, 0, 74, 64
2, 436536, Note_off_c, 0, 78, 64
2, 436540, Note_on_c, 0, 79, 93
2, 436896, Note_on_c, 0, 78, 94
2, 436920, Note_off_c, 0, 79, 64
2, 437024, Note_on_c, 0, 79, 93
2, 437032, Note_off_c, 0, 78, 64
2, 437256, Note_off_c, 0, 79, 64
2, 437256, Note_on_c, 0, 83, 104
2, 438000, Note_on_c, 0, 76, 97
2, 438016, Note_off_c, 0, 83, 64
2, 438468, Note_off_c, 0, 76, 64
2, 438480, Note_on_c, 0, 78, 104
2, 438540, Note_off_c, 0, 78, 64
2, 438540, Note_on_c, 0, 79, 90
2, 438600, Note_off_c, 0, 79, 64
2, 438600, Note_on_c, 0, 81, 96
2, 438660, Note_off_c, 0, 81, 64
2, 438660, Note_on_c, 0, 83, 91
2, 438720, Note_off_c, 0, 83, 64
2, 438720, Note_on_c, 0, 84, 96
2, 438840, Note_off_c, 0, 84, 64
2, 438840, Note_on_c, 0, 83, 97
2, 438960, Note_off_c, 0, 83, 64
2, 438960, Note_on_c, 0, 81, 98
2, 439080, Note_off_c, 0, 81, 64
2, 439080, Note_on_c, 0, 79, 92
2, 439200, Note_off_c, 0, 79, 64
2, 439200, Note_on_c, 0, 78, 93
2, 439320, Note_off_c, 0, 78, 64
2, 439320, Note_on_c, 0, 76, 85
2, 439440, Note_off_c, 0, 76, 64
2, 439456, Note_on_c, 0, 75, 99
2, 439512, Note_off_c, 0, 75, 64
2, 439512, Note_on_c, 0, 76, 97
2, 439568, Note_on_c, 0, 75, 89
2, 439584, Note_off_c, 0, 76, 64
2, 439792, Note_on_c, 0, 73, 80
2, 439800, Note_off_c, 0, 75, 64
2, 439900, Note_off_c, 0, 73, 64
2, 439912, Note_on_c, 0, 75, 101
2, 440148, Note_off_c, 0, 75, 64
2, 440160, Note_on_c, 0, 71, 91
2, 441120, Note_off_c, 0, 71, 64
2, 441240, Note_on_c, 0, 83, 93
2, 441360, Note_off_c, 0, 83, 64
2, 441360, Note_on_c, 0, 78, 93
2, 441600, Note_off_c, 0, 78, 64
2, 441600, Note_on_c, 0, 79, 93
2, 441948, Note_off_c, 0, 79, 64
2, 441948, Note_on_c, 0, 75, 84
2, 442068, Note_off_c, 0, 75, 64
2, 442068, Note_on_c, 0, 76, 97
2, 442304, Note_off_c, 0, 76, 64
2, 442320, Note_on_c, 0, 72, 104
2, 442680, Note_off_c, 0, 72, 64
2, 442680, Note_on_c, 0, 76, 91
2, 442800, Note_on_c, 0, 80, 112
2, 442804, Note_off_c, 0, 76, 64
2, 443032, Note_off_c, 0, 80, 64
2, 443068, Note_on_c, 0, 81, 107
2, 443504, Note_off_c, 0, 81, 64
2, 443520, Note_on_c, 0, 83, 93
2, 443580, Note_off_c, 0, 83, 64
2, 443580, Note_on_c, 0, 81, 74
2, 443640, Note_off_c, 0, 81, 64
2, 443640, Note_on_c, 0, 79, 65
2, 443700, Note_off_c, 0, 79, 64
2, 443700, Note_on_c, 0, 78, 75
2, 443736, Note_on_c, 0, 79, 90
2, 443760, Note_off_c, 0, 78, 64
2, 444112, Note_off_c, 0, 79, 64
2, 444120, Note_on_c, 0, 81, 84
2, 444240, Note_off_c, 0, 81, 64
2, 444240, Note_on_c, 0, 83, 86
2, 444480, Note_off_c, 0, 83, 64
2, 444480, Note_on_c, 0, 76, 86
2, 444824, Note_on_c, 0, 78, 96
2, 444848, Note_off_c, 0, 76, 64
2, 444948, Note_off_c, 0, 78, 64
2, 444952, Note_on_c, 0, 75, 102
2, 445192, Note_on_c, 0, 76, 90
2, 445204, Note_off_c, 0, 75, 64
2, 445548, Note_on_c, 0, 71, 76
2, 445564, Note_off_c, 0, 76, 64
2, 445680, Note_on_c, 0, 67, 50
2, 445688, Note_off_c, 0, 71, 64
2, 445924, Note_on_c, 0, 64, 88
2, 445928, Note_off_c, 0, 67, 64
2, 446400, Note_on_c, 0, 71, 91
2, 446412, Note_off_c, 0, 64, 64
2, 446584, Note_off_c, 0, 71, 64
2, 446624, Note_on_c, 0, 71, 93
2, 446960, Note_off_c, 0, 71, 64
2, 447000, Note_on_c, 0, 68, 84
2, 447120, Note_on_c, 0, 69, 88
2, 447136, Note_off_c, 0, 68, 64
2, 447356, Note_off_c, 0, 69, 64
2, 447360, Note_on_c, 0, 74, 88
2, 447600, Note_off_c, 0, 74, 64
2, 447600, Note_on_c, 0, 76, 91
2, 447720, Note_on_c, 0, 74, 82
2, 447744, Note_off_c, 0, 76, 64
2, 447840, Note_on_c, 0, 72, 84
2, 447852, Note_off_c, 0, 74, 64
2, 447948, Note_off_c, 0, 72, 64
2, 447960, Note_on_c, 0, 71, 67
2, 448080, Note_on_c, 0, 72, 86
2, 448108, Note_off_c, 0, 71, 64
2, 448376, Note_off_c, 0, 72, 64
2, 448420, Note_on_c, 0, 76, 91
2, 448536, Note_off_c, 0, 76, 64
2, 448544, Note_on_c, 0, 74, 85
2, 448760, Note_off_c, 0, 74, 64
2, 448780, Note_on_c, 0, 76, 86
2, 449128, Note_off_c, 0, 76, 64
2, 449152, Note_on_c, 0, 79, 100
2, 449272, Note_off_c, 0, 79, 64
2, 449280, Note_on_c, 0, 78, 93
2, 449504, Note_off_c, 0, 78, 64
2, 449504, Note_on_c, 0, 79, 98
2, 449740, Note_off_c, 0, 79, 64
2, 449740, Note_on_c, 0, 81, 78
2, 449856, Note_on_c, 0, 79, 85
2, 449872, Note_off_c, 0, 81, 64
2, 449980, Note_on_c, 0, 78, 97
2, 450000, Note_off_c, 0, 79, 64
2, 450096, Note_off_c, 0, 78, 64
2, 450120, Note_on_c, 0, 76, 66
2, 450220, Note_on_c, 0, 81, 85
2, 450256, Note_off_c, 0, 76, 64
2, 450576, Note_on_c, 0, 83, 92
2, 450584, Note_off_c, 0, 81, 64
2, 450696, Note_on_c, 0, 79, 81
2, 450708, Note_off_c, 0, 83, 64
2, 450848, Note_off_c, 0, 79, 64
2, 450852, Note_on_c, 0, 78, 75
2, 450892, Note_off_c, 0, 78, 64
2, 450892, Note_on_c, 0, 79, 85
2, 450940, Note_on_c, 0, 78, 80
2, 450952, Note_off_c, 0, 79, 64
2, 451288, Note_on_c, 0, 76, 67
2, 451300, Note_off_c, 0, 78, 64
2, 451416, Note_on_c, 0, 78, 86
2, 451424, Note_off_c, 0, 76, 64
2, 451660, Note_on_c, 0, 74, 84
2, 451664, Note_off_c, 0, 78, 64
2, 452856, Note_off_c, 0, 74, 64
2, 452880, Note_on_c, 0, 76, 91
2, 452940, Note_off_c, 0, 76, 64
2, 452940, Note_on_c, 0, 78, 79
2, 453000, Note_off_c, 0, 78, 64
2, 453000, Note_on_c, 0, 79, 73
2, 453060, Note_off_c, 0, 79, 64
2, 453060, Note_on_c, 0, 81, 89
2, 453120, Note_off_c, 0, 81, 64
2, 453120, Note_on_c, 0, 83, 113
2, 453468, Note_on_c, 0, 79, 91
2, 453480, Note_off_c, 0, 83, 64
2, 453584, Note_off_c, 0, 79, 64
2, 453588, Note_on_c, 0, 74, 93
2, 453820, Note_off_c, 0, 74, 64
2, 453820, Note_on_c, 0, 76, 98
2, 454312, Note_on_c, 0, 78, 93
2, 454332, Note_off_c, 0, 76, 64
2, 454368, Note_off_c, 0, 78, 64
2, 454380, Note_on_c, 0, 79, 69
2, 454440, Note_on_c, 0, 81, 89
2, 454464, Note_off_c, 0, 79, 64
2, 454496, Note_on_c, 0, 83, 91
2, 454504, Note_off_c, 0, 81, 64
2, 454560, Note_off_c, 0, 83, 64
2, 454560, Note_on_c, 0, 84, 97
2, 454920, Note_on_c, 0, 81, 86
2, 454936, Note_off_c, 0, 84, 64
2, 455028, Note_off_c, 0, 81, 64
2, 455032, Note_on_c, 0, 76, 88
2, 455268, Note_off_c, 0, 76, 64
2, 455280, Note_on_c, 0, 78, 110
2, 455616, Note_off_c, 0, 78, 64
2, 455632, Note_on_c, 0, 74, 91
2, 455760, Note_on_c, 0, 86, 93
2, 455768, Note_off_c, 0, 74, 64
2, 455980, Note_off_c, 0, 86, 64
2, 455988, Note_on_c, 0, 79, 90
2, 456360, Note_on_c, 0, 81, 92
2, 456372, Note_off_c, 0, 79, 64
2, 456472, Note_on_c, 0, 78, 94
2, 456488, Note_off_c, 0, 81, 64
2, 456720, Note_off_c, 0, 78, 64
2, 456720, Note_on_c, 0, 79, 88
2, 458160, Note_off_c, 0, 79, 64
2, 458160, Note_on_c, 0, 62, 89
2, 458276, Note_off_c, 0, 62, 64
2, 458280, Note_on_c, 0, 67, 91
2, 458396, Note_off_c, 0, 67, 64
2, 458400, Note_on_c, 0, 71, 100
2, 458516, Note_off_c, 0, 71, 64
2, 458520, Note_on_c, 0, 69, 89
2, 458636, Note_off_c, 0, 69, 64
2, 458640, Note_on_c, 0, 67, 85
2, 458756, Note_off_c, 0, 67, 64
2, 458760, Note_on_c, 0, 71, 90
2, 458876, Note_off_c, 0, 71, 64
2, 458880, Note_on_c, 0, 74, 91
2, 458996, Note_off_c, 0, 74, 64
2, 459000, Note_on_c, 0, 72, 88
2, 459116, Note_off_c, 0, 72, 64
2, 459120, Note_on_c, 0, 71, 77
2, 459236, Note_off_c, 0, 71, 64
2, 459240, Note_on_c, 0, 74, 85
2, 459356, Note_off_c, 0, 74, 64
2, 459360, Note_on_c, 0, 79, 89
2, 459536, Note_off_c, 0, 79, 64
2, 459600, Note_on_c, 0, 62, 61
2, 459716, Note_off_c, 0, 62, 64
2, 459720, Note_on_c, 0, 66, 82
2, 459836, Note_off_c, 0, 66, 64
2, 459840, Note_on_c, 0, 69, 85
2, 459956, Note_off_c, 0, 69, 64
2, 459960, Note_on_c, 0, 67, 82
2, 460076, Note_off_c, 0, 67, 64
2, 460080, Note_on_c, 0, 66, 84
2, 460196, Note_off_c, 0, 66, 64
2, 460200, Note_on_c, 0, 69, 61
2, 460316, Note_off_c, 0, 69, 64
2, 460320, Note_on_c, 0, 72, 86
2, 460440, Note_off_c, 0, 72, 64
2, 460440, Note_on_c, 0, 71, 88
2, 460556, Note_off_c, 0, 71, 64
2, 460560, Note_on_c, 0, 69, 91
2, 460676, Note_off_c, 0, 69, 64
2, 460680, Note_on_c, 0, 74, 89
2, 460796, Note_off_c, 0, 74, 64
2, 460800, Note_on_c, 0, 78, 108
2, 460976, Note_off_c, 0, 78, 64
2, 461040, Note_on_c, 0, 59, 76
2, 461156, Note_off_c, 0, 59, 64
2, 461160, Note_on_c, 0, 62, 89
2, 461276, Note_off_c, 0, 62, 64
2, 461280, Note_on_c, 0, 67, 77
2, 461396, Note_off_c, 0, 67, 64
2, 461400, Note_on_c, 0, 66, 93
2, 461516, Note_off_c, 0, 66, 64
2, 461520, Note_on_c, 0, 64, 92
2, 461636, Note_off_c, 0, 64, 64
2, 461640, Note_on_c, 0, 67, 82
2, 461756, Note_off_c, 0, 67, 64
2, 461760, Note_on_c, 0, 71, 86
2, 461876, Note_off_c, 0, 71, 64
2, 461880, Note_on_c, 0, 69, 95
2, 461996, Note_off_c, 0, 69, 64
2, 462000, Note_on_c, 0, 67, 90
2, 462116, Note_off_c, 0, 67, 64
2, 462120, Note_on_c, 0, 73, 88
2, 462236, Note_off_c, 0, 73, 64
2, 462240, Note_on_c, 0, 76, 100
2, 462356, Note_off_c, 0, 76, 64
2, 462480, Note_on_c, 0, 57, 40
2, 462596, Note_off_c, 0, 57, 64
2, 462600, Note_on_c, 0, 62, 88
2, 462716, Note_off_c, 0, 62, 64
2, 462720, Note_on_c, 0, 66, 93
2, 462840, Note_off_c, 0, 66, 64
2, 462840, Note_on_c, 0, 64, 92
2, 462960, Note_off_c, 0, 64, 64
2, 462960, Note_on_c, 0, 62, 89
2, 463080, Note_off_c, 0, 62, 64
2, 463080, Note_on_c, 0, 66, 71
2, 463196, Note_off_c, 0, 66, 64
2, 463200, Note_on_c, 0, 69, 76
2, 463316, Note_off_c, 0, 69, 64
2, 463320, Note_on_c, 0, 67, 86
2, 463436, Note_off_c, 0, 67, 64
2, 463440, Note_on_c, 0, 66, 92
2, 463556, Note_off_c, 0, 66, 64
2, 463560, Note_on_c, 0, 69, 84
2, 463676, Note_off_c, 0, 69, 64
2, 463680, Note_on_c, 0, 74, 92
2, 464040, Note_off_c, 0, 74, 64
2, 464040, Note_on_c, 0, 71, 88
2, 464156, Note_off_c, 0, 71, 64
2, 464160, Note_on_c, 0, 67, 72
2, 464276, Note_off_c, 0, 67, 64
2, 464280, Note_on_c, 0, 69, 84
2, 464396, Note_off_c, 0, 69, 64
2, 464400, Note_on_c, 0, 71, 72
2, 464516, Note_off_c, 0, 71, 64
2, 464520, Note_on_c, 0, 67, 78
2, 464636, Note_off_c, 0, 67, 64
2, 464640, Note_on_c, 0, 62, 76
2, 464756, Note_off_c, 0, 62, 64
2, 464760, Note_on_c, 0, 64, 85
2, 464876, Note_off_c, 0, 64, 64
2, 464880, Note_on_c, 0, 65, 92
2, 464996, Note_off_c, 0, 65, 64
2, 465000, Note_on_c, 0, 62, 89
2, 465116, Note_off_c, 0, 62, 64
2, 465120, Note_on_c, 0, 59, 90
2, 465240, Note_off_c, 0, 59, 64
2, 465360, Note_on_c, 0, 76, 93
2, 465476, Note_off_c, 0, 76, 64
2, 465480, Note_on_c, 0, 72, 72
2, 465596, Note_off_c, 0, 72, 64
2, 465600, Note_on_c, 0, 69, 57
2, 465716, Note_off_c, 0, 69, 64
2, 465720, Note_on_c, 0, 71, 86
2, 465836, Note_off_c, 0, 71, 64
2, 465840, Note_on_c, 0, 72, 92
2, 465956, Note_off_c, 0, 72, 64
2, 465960, Note_on_c, 0, 69, 82
2, 466076, Note_off_c, 0, 69, 64
2, 466080, Note_on_c, 0, 64, 89
2, 466196, Note_off_c, 0, 64, 64
2, 466200, Note_on_c, 0, 66, 75
2, 466320, Note_off_c, 0, 66, 64
2, 466320, Note_on_c, 0, 67, 74
2, 466440, Note_off_c, 0, 67, 64
2, 466440, Note_on_c, 0, 64, 89
2, 466556, Note_off_c, 0, 64, 64
2, 466560, Note_on_c, 0, 60, 91
2, 466680, Note_off_c, 0, 60, 64
2, 466800, Note_on_c, 0, 81, 119
2, 466916, Note_off_c, 0, 81, 64
2, 466920, Note_on_c, 0, 78, 89
2, 467036, Note_off_c, 0, 78, 64
2, 467040, Note_on_c, 0, 74, 85
2, 467160, Note_off_c, 0, 74, 64
2, 467160, Note_on_c, 0, 76, 95
2, 467276, Note_off_c, 0, 76, 64
2, 467280, Note_on_c, 0, 78, 85
2, 467396, Note_off_c, 0, 78, 64
2, 467400, Note_on_c, 0, 74, 82
2, 467516, Note_off_c, 0, 74, 64
2, 467520, Note_on_c, 0, 69, 61
2, 467636, Note_off_c, 0, 69, 64
2, 467640, Note_on_c, 0, 71, 80
2, 467756, Note_off_c, 0, 71, 64
2, 467760, Note_on_c, 0, 72, 86
2, 467876, Note_off_c, 0, 72, 64
2, 467880, Note_on_c, 0, 69, 86
2, 467996, Note_off_c, 0, 69, 64
2, 468000, Note_on_c, 0, 66, 92
2, 468116, Note_off_c, 0, 66, 64
2, 468120, Note_on_c, 0, 72, 76
2, 468236, Note_off_c, 0, 72, 64
2, 468240, Note_on_c, 0, 71, 63
2, 468356, Note_off_c, 0, 71, 64
2, 468360, Note_on_c, 0, 67, 51
2, 468476, Note_off_c, 0, 67, 64
2, 468480, Note_on_c, 0, 62, 66
2, 468596, Note_off_c, 0, 62, 64
2, 468600, Note_on_c, 0, 66, 106
2, 468716, Note_off_c, 0, 66, 64
2, 468720, Note_on_c, 0, 67, 90
2, 468836, Note_off_c, 0, 67, 64
2, 468840, Note_on_c, 0, 62, 70
2, 468956, Note_off_c, 0, 62, 64
2, 468960, Note_on_c, 0, 59, 75
2, 469076, Note_off_c, 0, 59, 64
2, 469080, Note_on_c, 0, 60, 93
2, 469196, Note_off_c, 0, 60, 64
2, 469200, Note_on_c, 0, 62, 86
2, 469316, Note_off_c, 0, 62, 64
2, 469320, Note_on_c, 0, 59, 86
2, 469436, Note_off_c, 0, 59, 64
2, 469440, Note_on_c, 0, 55, 76
2, 469556, Note_off_c, 0, 55, 64
2, 469560, Note_on_c, 0, 57, 85
2, 469676, Note_off_c, 0, 57, 64
2, 469680, Note_on_c, 0, 59, 72
2, 469920, Note_off_c, 0, 59, 64
2, 469920, Note_on_c, 0, 83, 119
2, 470036, Note_off_c, 0, 83, 64
2, 470040, Note_on_c, 0, 81, 97
2, 470156, Note_off_c, 0, 81, 64
2, 470160, Note_on_c, 0, 79, 97
2, 470276, Note_off_c, 0, 79, 64
2, 470280, Note_on_c, 0, 78, 97
2, 470396, Note_off_c, 0, 78, 64
2, 470400, Note_on_c, 0, 76, 102
2, 470516, Note_off_c, 0, 76, 64
2, 470520, Note_on_c, 0, 74, 100
2, 470636, Note_off_c, 0, 74, 64
2, 470640, Note_on_c, 0, 73, 101
2, 470756, Note_off_c, 0, 73, 64
2, 470760, Note_on_c, 0, 76, 89
2, 470876, Note_off_c, 0, 76, 64
2, 470880, Note_on_c, 0, 74, 89
2, 470996, Note_off_c, 0, 74, 64
2, 471000, Note_on_c, 0, 76, 82
2, 471116, Note_off_c, 0, 76, 64
2, 471120, Note_on_c, 0, 69, 86
2, 471356, Note_off_c, 0, 69, 64
2, 471360, Note_on_c, 0, 81, 107
2, 471476, Note_off_c, 0, 81, 64
2, 471480, Note_on_c, 0, 79, 82
2, 471596, Note_off_c, 0, 79, 64
2, 471600, Note_on_c, 0, 78, 60
2, 471716, Note_off_c, 0, 78, 64
2, 471720, Note_on_c, 0, 76, 78
2, 471836, Note_off_c, 0, 76, 64
2, 471840, Note_on_c, 0, 74, 70
2, 471956, Note_off_c, 0, 74, 64
2, 471960, Note_on_c, 0, 73, 80
2, 472076, Note_off_c, 0, 73, 64
2, 472080, Note_on_c, 0, 71, 48
2, 472196, Note_off_c, 0, 71, 64
2, 472200, Note_on_c, 0, 74, 67
2, 472316, Note_off_c, 0, 74, 64
2, 472320, Note_on_c, 0, 73, 69
2, 472436, Note_off_c, 0, 73, 64
2, 472440, Note_on_c, 0, 74, 77
2, 472556, Note_off_c, 0, 74, 64
2, 472560, Note_on_c, 0, 67, 45
2, 472796, Note_off_c, 0, 67, 64
2, 472800, Note_on_c, 0, 79, 91
2, 472916, Note_off_c, 0, 79, 64
2, 472920, Note_on_c, 0, 78, 93
2, 473036, Note_off_c, 0, 78, 64
2, 473040, Note_on_c, 0, 76, 88
2, 473156, Note_off_c, 0, 76, 64
2, 473160, Note_on_c, 0, 74, 51
2, 473276, Note_off_c, 0, 74, 64
2, 473280, Note_on_c, 0, 73, 79
2, 473396, Note_off_c, 0, 73, 64
2, 473400, Note_on_c, 0, 71, 70
2, 473516, Note_off_c, 0, 71, 64
2, 473520, Note_on_c, 0, 69, 61
2, 473636, Note_off_c, 0, 69, 64
2, 473640, Note_on_c, 0, 73, 63
2, 473756, Note_off_c, 0, 73, 64
2, 473760, Note_on_c, 0, 71, 64
2, 473876, Note_off_c, 0, 71, 64
2, 473880, Note_on_c, 0, 74, 61
2, 473996, Note_off_c, 0, 74, 64
2, 474000, Note_on_c, 0, 73, 92
2, 474116, Note_off_c, 0, 73, 64
2, 474120, Note_on_c, 0, 76, 98
2, 474236, Note_off_c, 0, 76, 64
2, 474240, Note_on_c, 0, 69, 90
2, 474356, Note_off_c, 0, 69, 64
2, 474360, Note_on_c, 0, 71, 90
2, 474476, Note_off_c, 0, 71, 64
2, 474480, Note_on_c, 0, 73, 117
2, 474600, Note_off_c, 0, 73, 64
2, 474600, Note_on_c, 0, 69, 85
2, 474716, Note_off_c, 0, 69, 64
2, 474720, Note_on_c, 0, 64, 61
2, 474836, Note_off_c, 0, 64, 64
2, 474840, Note_on_c, 0, 66, 85
2, 474956, Note_off_c, 0, 66, 64
2, 474960, Note_on_c, 0, 67, 98
2, 475076, Note_off_c, 0, 67, 64
2, 475080, Note_on_c, 0, 64, 69
2, 475196, Note_off_c, 0, 64, 64
2, 475200, Note_on_c, 0, 61, 88
2, 475316, Note_off_c, 0, 61, 64
2, 475320, Note_on_c, 0, 64, 91
2, 475436, Note_off_c, 0, 64, 64
2, 475440, Note_on_c, 0, 62, 73
2, 475676, Note_off_c, 0, 62, 64
2, 475680, Note_on_c, 0, 66, 64
2, 475916, Note_off_c, 0, 66, 64
2, 475920, Note_on_c, 0, 69, 67
2, 476156, Note_off_c, 0, 69, 64
2, 476160, Note_on_c, 0, 74, 57
2, 476396, Note_off_c, 0, 74, 64
2, 476520, Note_on_c, 0, 72, 76
2, 476636, Note_off_c, 0, 72, 64
2, 476640, Note_on_c, 0, 69, 71
2, 476756, Note_off_c, 0, 69, 64
2, 476760, Note_on_c, 0, 66, 79
2, 476876, Note_off_c, 0, 66, 64
2, 476880, Note_on_c, 0, 67, 83
2, 477116, Note_off_c, 0, 67, 64
2, 477120, Note_on_c, 0, 71, 83
2, 477356, Note_off_c, 0, 71, 64
2, 477360, Note_on_c, 0, 74, 91
2, 477596, Note_off_c, 0, 74, 64
2, 477600, Note_on_c, 0, 79, 86
2, 477896, Note_off_c, 0, 79, 64
2, 477960, Note_on_c, 0, 79, 88
2, 478076, Note_off_c, 0, 79, 64
2, 478080, Note_on_c, 0, 78, 89
2, 478196, Note_off_c, 0, 78, 64
2, 478200, Note_on_c, 0, 79, 89
2, 478316, Note_off_c, 0, 79, 64
2, 478320, Note_on_c, 0, 69, 65
2, 478556, Note_off_c, 0, 69, 64
2, 478560, Note_on_c, 0, 73, 70
2, 478796, Note_off_c, 0, 73, 64
2, 478800, Note_on_c, 0, 76, 76
2, 479036, Note_off_c, 0, 76, 64
2, 479040, Note_on_c, 0, 79, 44
2, 479336, Note_off_c, 0, 79, 64
2, 479400, Note_on_c, 0, 79, 85
2, 479516, Note_off_c, 0, 79, 64
2, 479520, Note_on_c, 0, 81, 92
2, 479636, Note_off_c, 0, 81, 64
2, 479640, Note_on_c, 0, 73, 77
2, 479756, Note_off_c, 0, 73, 64
2, 479760, Note_on_c, 0, 74, 101
2, 479876, Note_off_c, 0, 74, 64
2, 479880, Note_on_c, 0, 78, 73
2, 479996, Note_off_c, 0, 78, 64
2, 480000, Note_on_c, 0, 81, 84
2, 480116, Note_off_c, 0, 81, 64
2, 480120, Note_on_c, 0, 85, 25
2, 480176, Note_off_c, 0, 85, 64
2, 480240, Note_on_c, 0, 86, 106
2, 480356, Note_off_c, 0, 86, 64
2, 480360, Note_on_c, 0, 85, 80
2, 480416, Note_off_c, 0, 85, 64
2, 480420, Note_on_c, 0, 83, 89
2, 480476, Note_off_c, 0, 83, 64
2, 480480, Note_on_c, 0, 81, 85
2, 480536, Note_off_c, 0, 81, 64
2, 480540, Note_on_c, 0, 79, 69
2, 480596, Note_off_c, 0, 79, 64
2, 480600, Note_on_c, 0, 78, 99
2, 480656, Note_off_c, 0, 78, 64
2, 480660, Note_on_c, 0, 76, 73
2, 480716, Note_off_c, 0, 76, 64
2, 480720, Note_on_c, 0, 74, 84
2, 481196, Note_off_c, 0, 74, 64
2, 481200, Note_on_c, 0, 69, 102
2, 481316, Note_off_c, 0, 69, 64
2, 481320, Note_on_c, 0, 74, 97
2, 481436, Note_off_c, 0, 74, 64
2, 481440, Note_on_c, 0, 78, 104
2, 481556, Note_off_c, 0, 78, 64
2, 481560, Note_on_c, 0, 76, 109
2, 481676, Note_off_c, 0, 76, 64
2, 481680, Note_on_c, 0, 74, 111
2, 481796, Note_off_c, 0, 74, 64
2, 481800, Note_on_c, 0, 78, 96
2, 481916, Note_off_c, 0, 78, 64
2, 481920, Note_on_c, 0, 81, 107
2, 482036, Note_off_c, 0, 81, 64
2, 482040, Note_on_c, 0, 79, 81
2, 482156, Note_off_c, 0, 79, 64
2, 482160, Note_on_c, 0, 78, 101
2, 482276, Note_off_c, 0, 78, 64
2, 482280, Note_on_c, 0, 81, 107
2, 482396, Note_off_c, 0, 81, 64
2, 482400, Note_on_c, 0, 84, 117
2, 482516, Note_off_c, 0, 84, 64
2, 482640, Note_on_c, 0, 62, 98
2, 482756, Note_off_c, 0, 62, 64
2, 482760, Note_on_c, 0, 67, 98
2, 482876, Note_off_c, 0, 67, 64
2, 482880, Note_on_c, 0, 71, 90
2, 482996, Note_off_c, 0, 71, 64
2, 483000, Note_on_c, 0, 69, 93
2, 483116, Note_off_c, 0, 69, 64
2, 483120, Note_on_c, 0, 67, 97
2, 483236, Note_off_c, 0, 67, 64
2, 483240, Note_on_c, 0, 71, 93
2, 483356, Note_off_c, 0, 71, 64
2, 483360, Note_on_c, 0, 74, 90
2, 483476, Note_off_c, 0, 74, 64
2, 483480, Note_on_c, 0, 72, 100
2, 483596, Note_off_c, 0, 72, 64
2, 483600, Note_on_c, 0, 71, 100
2, 483716, Note_off_c, 0, 71, 64
2, 483720, Note_on_c, 0, 74, 95
2, 483836, Note_off_c, 0, 74, 64
2, 483840, Note_on_c, 0, 77, 113
2, 483956, Note_off_c, 0, 77, 64
2, 484080, Note_on_c, 0, 76, 98
2, 484196, Note_off_c, 0, 76, 64
2, 484200, Note_on_c, 0, 72, 93
2, 484316, Note_off_c, 0, 72, 64
2, 484320, Note_on_c, 0, 69, 86
2, 484436, Note_off_c, 0, 69, 64
2, 484440, Note_on_c, 0, 71, 95
2, 484556, Note_off_c, 0, 71, 64
2, 484560, Note_on_c, 0, 72, 104
2, 484676, Note_off_c, 0, 72, 64
2, 484680, Note_on_c, 0, 69, 95
2, 484796, Note_off_c, 0, 69, 64
2, 484800, Note_on_c, 0, 66, 85
2, 484916, Note_off_c, 0, 66, 64
2, 484920, Note_on_c, 0, 67, 89
2, 485036, Note_off_c, 0, 67, 64
2, 485040, Note_on_c, 0, 69, 89
2, 485156, Note_off_c, 0, 69, 64
2, 485160, Note_on_c, 0, 66, 104
2, 485276, Note_off_c, 0, 66, 64
2, 485280, Note_on_c, 0, 63, 93
2, 485396, Note_off_c, 0, 63, 64
2, 485400, Note_on_c, 0, 64, 89
2, 485520, Note_off_c, 0, 64, 64
2, 485520, Note_on_c, 0, 66, 112
2, 485636, Note_off_c, 0, 66, 64
2, 485640, Note_on_c, 0, 63, 112
2, 485756, Note_off_c, 0, 63, 64
2, 485760, Note_on_c, 0, 59, 112
2, 485876, Note_off_c, 0, 59, 64
2, 485880, Note_on_c, 0, 61, 108
2, 485996, Note_off_c, 0, 61, 64
2, 486000, Note_on_c, 0, 63, 85
2, 486120, Note_on_c, 0, 59, 94
2, 486148, Note_off_c, 0, 63, 64
2, 486236, Note_off_c, 0, 59, 64
2, 486240, Note_on_c, 0, 54, 108
2, 486356, Note_off_c, 0, 54, 64
2, 486360, Note_on_c, 0, 55, 97
2, 486476, Note_off_c, 0, 55, 64
2, 486480, Note_on_c, 0, 57, 100
2, 486596, Note_off_c, 0, 57, 64
2, 486600, Note_on_c, 0, 54, 93
2, 486716, Note_off_c, 0, 54, 64
2, 486720, Note_on_c, 0, 51, 92
2, 486836, Note_off_c, 0, 51, 64
2, 486840, Note_on_c, 0, 54, 99
2, 486956, Note_off_c, 0, 54, 64
2, 486960, Note_on_c, 0, 55, 100
2, 487076, Note_off_c, 0, 55, 64
2, 487080, Note_on_c, 0, 59, 102
2, 487196, Note_off_c, 0, 59, 64
2, 487200, Note_on_c, 0, 64, 88
2, 487320, Note_on_c, 0, 63, 94
2, 487340, Note_off_c, 0, 64, 64
2, 487436, Note_off_c, 0, 63, 64
2, 487440, Note_on_c, 0, 64, 96
2, 487556, Note_off_c, 0, 64, 64
2, 487560, Note_on_c, 0, 67, 95
2, 487680, Note_off_c, 0, 67, 64
2, 487680, Note_on_c, 0, 71, 92
2, 487796, Note_off_c, 0, 71, 64
2, 487800, Note_on_c, 0, 69, 84
2, 487916, Note_off_c, 0, 69, 64
2, 487920, Note_on_c, 0, 67, 100
2, 488036, Note_off_c, 0, 67, 64
2, 488040, Note_on_c, 0, 71, 86
2, 488156, Note_off_c, 0, 71, 64
2, 488160, Note_on_c, 0, 76, 98
2, 488276, Note_off_c, 0, 76, 64
2, 488400, Note_on_c, 0, 64, 89
2, 488516, Note_off_c, 0, 64, 64
2, 488520, Note_on_c, 0, 67, 81
2, 488636, Note_off_c, 0, 67, 64
2, 488640, Note_on_c, 0, 72, 97
2, 488756, Note_off_c, 0, 72, 64
2, 488760, Note_on_c, 0, 71, 83
2, 488876, Note_off_c, 0, 71, 64
2, 488880, Note_on_c, 0, 69, 83
2, 488996, Note_off_c, 0, 69, 64
2, 489000, Note_on_c, 0, 72, 93
2, 489116, Note_off_c, 0, 72, 64
2, 489120, Note_on_c, 0, 76, 60
2, 489236, Note_off_c, 0, 76, 64
2, 489240, Note_on_c, 0, 74, 93
2, 489356, Note_off_c, 0, 74, 64
2, 489360, Note_on_c, 0, 72, 93
2, 489476, Note_off_c, 0, 72, 64
2, 489480, Note_on_c, 0, 76, 91
2, 489596, Note_off_c, 0, 76, 64
2, 489600, Note_on_c, 0, 81, 111
2, 489716, Note_off_c, 0, 81, 64
2, 489960, Note_on_c, 0, 72, 106
2, 490076, Note_off_c, 0, 72, 64
2, 490080, Note_on_c, 0, 71, 101
2, 490196, Note_off_c, 0, 71, 64
2, 490200, Note_on_c, 0, 78, 86
2, 490316, Note_off_c, 0, 78, 64
2, 490320, Note_on_c, 0, 79, 100
2, 490436, Note_off_c, 0, 79, 64
2, 490440, Note_on_c, 0, 75, 112
2, 490556, Note_off_c, 0, 75, 64
2, 490560, Note_on_c, 0, 76, 107
2, 490676, Note_off_c, 0, 76, 64
2, 490680, Note_on_c, 0, 67, 101
2, 490796, Note_off_c, 0, 67, 64
2, 490800, Note_on_c, 0, 66, 94
2, 490916, Note_off_c, 0, 66, 64
2, 490920, Note_on_c, 0, 76, 89
2, 491036, Note_off_c, 0, 76, 64
2, 491040, Note_on_c, 0, 75, 110
2, 491156, Note_off_c, 0, 75, 64
2, 491160, Note_on_c, 0, 81, 100
2, 491276, Note_off_c, 0, 81, 64
2, 491280, Note_on_c, 0, 79, 90
2, 491340, Note_off_c, 0, 79, 64
2, 491340, Note_on_c, 0, 81, 76
2, 491400, Note_off_c, 0, 81, 64
2, 491400, Note_on_c, 0, 79, 102
2, 491460, Note_off_c, 0, 79, 64
2, 491460, Note_on_c, 0, 78, 95
2, 491520, Note_off_c, 0, 78, 64
2, 491520, Note_on_c, 0, 76, 101
2, 491760, Note_off_c, 0, 76, 64
2, 491880, Note_on_c, 0, 69, 101
2, 491996, Note_off_c, 0, 69, 64
2, 492000, Note_on_c, 0, 67, 95
2, 492116, Note_off_c, 0, 67, 64
2, 492120, Note_on_c, 0, 66, 97
2, 492236, Note_off_c, 0, 66, 64
2, 492240, Note_on_c, 0, 66, 119
2, 492476, Note_off_c, 0, 66, 64
2, 492480, Note_on_c, 0, 64, 111
2, 492956, Note_off_c, 0, 64, 64
2, 492960, Note_on_c, 0, 76, 121
2, 493076, Note_off_c, 0, 76, 64
2, 493080, Note_on_c, 0, 74, 101
2, 493196, Note_off_c, 0, 74, 64
2, 493200, Note_on_c, 0, 73, 106
2, 493316, Note_off_c, 0, 73, 64
2, 493320, Note_on_c, 0, 71, 96
2, 493436, Note_off_c, 0, 71, 64
2, 493440, Note_on_c, 0, 69, 80
2, 493556, Note_off_c, 0, 69, 64
2, 493560, Note_on_c, 0, 67, 91
2, 493676, Note_off_c, 0, 67, 64
2, 493680, Note_on_c, 0, 66, 97
2, 493796, Note_off_c, 0, 66, 64
2, 493800, Note_on_c, 0, 70, 94
2, 493916, Note_off_c, 0, 70, 64
2, 493920, Note_on_c, 0, 73, 86
2, 494036, Note_off_c, 0, 73, 64
2, 494040, Note_on_c, 0, 76, 98
2, 494156, Note_off_c, 0, 76, 64
2, 494160, Note_on_c, 0, 74, 74
2, 494276, Note_off_c, 0, 74, 64
2, 494280, Note_on_c, 0, 66, 61
2, 494396, Note_off_c, 0, 66, 64
2, 494400, Note_on_c, 0, 74, 91
2, 494516, Note_off_c, 0, 74, 64
2, 494520, Note_on_c, 0, 72, 101
2, 494636, Note_off_c, 0, 72, 64
2, 494640, Note_on_c, 0, 71, 93
2, 494756, Note_off_c, 0, 71, 64
2, 494760, Note_on_c, 0, 69, 91
2, 494876, Note_off_c, 0, 69, 64
2, 494880, Note_on_c, 0, 68, 92
2, 494996, Note_off_c, 0, 68, 64
2, 495000, Note_on_c, 0, 66, 71
2, 495116, Note_off_c, 0, 66, 64
2, 495120, Note_on_c, 0, 64, 90
2, 495236, Note_off_c, 0, 64, 64
2, 495240, Note_on_c, 0, 68, 92
2, 495356, Note_off_c, 0, 68, 64
2, 495360, Note_on_c, 0, 71, 75
2, 495476, Note_off_c, 0, 71, 64
2, 495480, Note_on_c, 0, 74, 96
2, 495596, Note_off_c, 0, 74, 64
2, 495600, Note_on_c, 0, 72, 85
2, 495716, Note_off_c, 0, 72, 64
2, 495720, Note_on_c, 0, 64, 54
2, 495836, Note_off_c, 0, 64, 64
2, 495840, Note_on_c, 0, 72, 82
2, 495956, Note_off_c, 0, 72, 64
2, 495960, Note_on_c, 0, 71, 88
2, 496076, Note_off_c, 0, 71, 64
2, 496080, Note_on_c, 0, 69, 89
2, 496196, Note_off_c, 0, 69, 64
2, 496200, Note_on_c, 0, 72, 93
2, 496316, Note_off_c, 0, 72, 64
2, 496320, Note_on_c, 0, 76, 92
2, 496436, Note_off_c, 0, 76, 64
2, 496440, Note_on_c, 0, 74, 98
2, 496556, Note_off_c, 0, 74, 64
2, 496560, Note_on_c, 0, 72, 98
2, 496676, Note_off_c, 0, 72, 64
2, 496680, Note_on_c, 0, 76, 91
2, 496796, Note_off_c, 0, 76, 64
2, 496800, Note_on_c, 0, 81, 98
2, 496916, Note_off_c, 0, 81, 64
2, 496920, Note_on_c, 0, 79, 91
2, 497036, Note_off_c, 0, 79, 64
2, 497040, Note_on_c, 0, 78, 85
2, 497156, Note_off_c, 0, 78, 64
2, 497160, Note_on_c, 0, 81, 92
2, 497276, Note_off_c, 0, 81, 64
2, 497280, Note_on_c, 0, 84, 97
2, 497396, Note_off_c, 0, 84, 64
2, 497400, Note_on_c, 0, 83, 81
2, 497516, Note_off_c, 0, 83, 64
2, 497520, Note_on_c, 0, 81, 104
2, 497636, Note_off_c, 0, 81, 64
2, 497640, Note_on_c, 0, 79, 85
2, 497756, Note_off_c, 0, 79, 64
2, 497760, Note_on_c, 0, 78, 85
2, 497876, Note_off_c, 0, 78, 64
2, 497880, Note_on_c, 0, 76, 92
2, 497996, Note_off_c, 0, 76, 64
2, 498000, Note_on_c, 0, 74, 107
2, 498116, Note_off_c, 0, 74, 64
2, 498120, Note_on_c, 0, 78, 90
2, 498236, Note_off_c, 0, 78, 64
2, 498240, Note_on_c, 0, 81, 100
2, 498356, Note_off_c, 0, 81, 64
2, 498360, Note_on_c, 0, 84, 95
2, 498476, Note_off_c, 0, 84, 64
2, 498480, Note_on_c, 0, 83, 101
2, 498596, Note_off_c, 0, 83, 64
2, 498600, Note_on_c, 0, 86, 84
2, 498716, Note_off_c, 0, 86, 64
2, 498720, Note_on_c, 0, 79, 93
2, 498836, Note_off_c, 0, 79, 64
2, 498840, Note_on_c, 0, 81, 89
2, 498956, Note_off_c, 0, 81, 64
2, 498960, Note_on_c, 0, 83, 95
2, 499076, Note_off_c, 0, 83, 64
2, 499080, Note_on_c, 0, 79, 88
2, 499196, Note_off_c, 0, 79, 64
2, 499200, Note_on_c, 0, 74, 90
2, 499316, Note_off_c, 0, 74, 64
2, 499320, Note_on_c, 0, 76, 90
2, 499436, Note_off_c, 0, 76, 64
2, 499440, Note_on_c, 0, 77, 93
2, 499556, Note_off_c, 0, 77, 64
2, 499560, Note_on_c, 0, 74, 89
2, 499676, Note_off_c, 0, 74, 64
2, 499680, Note_on_c, 0, 71, 72
2, 499796, Note_off_c, 0, 71, 64
2, 499800, Note_on_c, 0, 74, 83
2, 499916, Note_off_c, 0, 74, 64
2, 499920, Note_on_c, 0, 76, 92
2, 500036, Note_off_c, 0, 76, 64
2, 500040, Note_on_c, 0, 79, 96
2, 500156, Note_off_c, 0, 79, 64
2, 500160, Note_on_c, 0, 72, 78
2, 500276, Note_off_c, 0, 72, 64
2, 500280, Note_on_c, 0, 74, 88
2, 500396, Note_off_c, 0, 74, 64
2, 500400, Note_on_c, 0, 76, 91
2, 500516, Note_off_c, 0, 76, 64
2, 500520, Note_on_c, 0, 72, 90
2, 500636, Note_off_c, 0, 72, 64
2, 500640, Note_on_c, 0, 69, 84
2, 500756, Note_off_c, 0, 69, 64
2, 500760, Note_on_c, 0, 71, 85
2, 500876, Note_off_c, 0, 71, 64
2, 500880, Note_on_c, 0, 72, 72
2, 500996, Note_off_c, 0, 72, 64
2, 501000, Note_on_c, 0, 69, 82
2, 501116, Note_off_c, 0, 69, 64
2, 501120, Note_on_c, 0, 64, 85
2, 501236, Note_off_c, 0, 64, 64
2, 501240, Note_on_c, 0, 67, 88
2, 501356, Note_off_c, 0, 67, 64
2, 501360, Note_on_c, 0, 66, 86
2, 501476, Note_off_c, 0, 66, 64
2, 501480, Note_on_c, 0, 69, 80
2, 501596, Note_off_c, 0, 69, 64
2, 501600, Note_on_c, 0, 62, 80
2, 501716, Note_off_c, 0, 62, 64
2, 501720, Note_on_c, 0, 64, 92
2, 501836, Note_off_c, 0, 64, 64
2, 501840, Note_on_c, 0, 66, 96
2, 501956, Note_off_c, 0, 66, 64
2, 501960, Note_on_c, 0, 62, 89
2, 502076, Note_off_c, 0, 62, 64
2, 502080, Note_on_c, 0, 57, 111
2, 502200, Note_off_c, 0, 57, 64
2, 502200, Note_on_c, 0, 59, 111
2, 502320, Note_off_c, 0, 59, 64
2, 502320, Note_on_c, 0, 60, 111
2, 502440, Note_off_c, 0, 60, 64
2, 502440, Note_on_c, 0, 57, 101
2, 502552, Note_off_c, 0, 57, 64
2, 502560, Note_on_c, 0, 54, 98
2, 502672, Note_off_c, 0, 54, 64
2, 502680, Note_on_c, 0, 57, 92
2, 502800, Note_off_c, 0, 57, 64
2, 502800, Note_on_c, 0, 59, 119
2, 502916, Note_off_c, 0, 59, 64
2, 502920, Note_on_c, 0, 62, 93
2, 503036, Note_off_c, 0, 62, 64
2, 503040, Note_on_c, 0, 55, 91
2, 503156, Note_off_c, 0, 55, 64
2, 503160, Note_on_c, 0, 57, 95
2, 503276, Note_off_c, 0, 57, 64
2, 503280, Note_on_c, 0, 59, 102
2, 503396, Note_off_c, 0, 59, 64
2, 503400, Note_on_c, 0, 55, 84
2, 503516, Note_off_c, 0, 55, 64
2, 503520, Note_on_c, 0, 59, 89
2, 503636, Note_off_c, 0, 59, 64
2, 503640, Note_on_c, 0, 62, 76
2, 503756, Note_off_c, 0, 62, 64
2, 503760, Note_on_c, 0, 67, 76
2, 504236, Note_off_c, 0, 67, 64
2, 505680, Note_on_c, 0, 71, 98
2, 505916, Note_off_c, 0, 71, 64
2, 505920, Note_on_c, 0, 69, 104
2, 506156, Note_off_c, 0, 69, 64
2, 506160, Note_on_c, 0, 71, 104
2, 506396, Note_off_c, 0, 71, 64
2, 506400, Note_on_c, 0, 72, 106
2, 506636, Note_off_c, 0, 72, 64
2, 506640, Note_on_c, 0, 74, 98
2, 506876, Note_off_c, 0, 74, 64
2, 506880, Note_on_c, 0, 69, 84
2, 507116, Note_off_c, 0, 69, 64
2, 507120, Note_on_c, 0, 74, 85
2, 507356, Note_off_c, 0, 74, 64
2, 507360, Note_on_c, 0, 72, 90
2, 507596, Note_off_c, 0, 72, 64
2, 507600, Note_on_c, 0, 71, 93
2, 507836, Note_off_c, 0, 71, 64
2, 507840, Note_on_c, 0, 74, 86
2, 508076, Note_off_c, 0, 74, 64
2, 508080, Note_on_c, 0, 79, 101
2, 508796, Note_off_c, 0, 79, 64
2, 508800, Note_on_c, 0, 81, 80
2, 508916, Note_off_c, 0, 81, 64
2, 508920, Note_on_c, 0, 79, 91
2, 509036, Note_off_c, 0, 79, 64
2, 509040, Note_on_c, 0, 78, 92
2, 509516, Note_off_c, 0, 78, 64
2, 509520, Note_on_c, 0, 79, 92
2, 509756, Note_off_c, 0, 79, 64
2, 509760, Note_on_c, 0, 78, 92
2, 509996, Note_off_c, 0, 78, 64
2, 510000, Note_on_c, 0, 79, 95
2, 510236, Note_off_c, 0, 79, 64
2, 510240, Note_on_c, 0, 81, 92
2, 510476, Note_off_c, 0, 81, 64
2, 510480, Note_on_c, 0, 83, 97
2, 510716, Note_off_c, 0, 83, 64
2, 510720, Note_on_c, 0, 78, 88
2, 510956, Note_off_c, 0, 78, 64
2, 510960, Note_on_c, 0, 83, 102
2, 511200, Note_off_c, 0, 83, 64
2, 511200, Note_on_c, 0, 81, 90
2, 511436, Note_off_c, 0, 81, 64
2, 511440, Note_on_c, 0, 79, 92
2, 511676, Note_off_c, 0, 79, 64
2, 511680, Note_on_c, 0, 81, 100
2, 511796, Note_off_c, 0, 81, 64
2, 511800, Note_on_c, 0, 83, 97
2, 511916, Note_off_c, 0, 83, 64
2, 511920, Note_on_c, 0, 84, 102
2, 512636, Note_off_c, 0, 84, 64
2, 512640, Note_on_c, 0, 83, 90
2, 512756, Note_off_c, 0, 83, 64
2, 512760, Note_on_c, 0, 81, 88
2, 512876, Note_off_c, 0, 81, 64
2, 512880, Note_on_c, 0, 83, 102
2, 513116, Note_off_c, 0, 83, 64
2, 513120, Note_on_c, 0, 71, 96
2, 513356, Note_off_c, 0, 71, 64
2, 513360, Note_on_c, 0, 73, 104
2, 513600, Note_off_c, 0, 73, 64
2, 513600, Note_on_c, 0, 71, 95
2, 513836, Note_off_c, 0, 71, 64
2, 513840, Note_on_c, 0, 73, 101
2, 514076, Note_off_c, 0, 73, 64
2, 514080, Note_on_c, 0, 75, 96
2, 514316, Note_off_c, 0, 75, 64
2, 514320, Note_on_c, 0, 76, 98
2, 514556, Note_off_c, 0, 76, 64
2, 514560, Note_on_c, 0, 71, 81
2, 514796, Note_off_c, 0, 71, 64
2, 514800, Note_on_c, 0, 76, 96
2, 515036, Note_off_c, 0, 76, 64
2, 515040, Note_on_c, 0, 74, 101
2, 515276, Note_off_c, 0, 74, 64
2, 515280, Note_on_c, 0, 72, 110
2, 515516, Note_off_c, 0, 72, 64
2, 515520, Note_on_c, 0, 74, 101
2, 515636, Note_off_c, 0, 74, 64
2, 515640, Note_on_c, 0, 76, 104
2, 515756, Note_off_c, 0, 76, 64
2, 515760, Note_on_c, 0, 77, 107
2, 516476, Note_off_c, 0, 77, 64
2, 516480, Note_on_c, 0, 76, 97
2, 516596, Note_off_c, 0, 76, 64
2, 516600, Note_on_c, 0, 74, 85
2, 516716, Note_off_c, 0, 74, 64
2, 516720, Note_on_c, 0, 76, 97
2, 516836, Note_off_c, 0, 76, 64
2, 516840, Note_on_c, 0, 78, 89
2, 516956, Note_off_c, 0, 78, 64
2, 516960, Note_on_c, 0, 79, 104
2, 517436, Note_off_c, 0, 79, 64
2, 517440, Note_on_c, 0, 78, 112
2, 517916, Note_off_c, 0, 78, 64
2, 517920, Note_on_c, 0, 76, 100
2, 518156, Note_off_c, 0, 76, 64
2, 518160, Note_on_c, 0, 78, 96
2, 518396, Note_off_c, 0, 78, 64
2, 518400, Note_on_c, 0, 79, 97
2, 518636, Note_off_c, 0, 79, 64
2, 518640, Note_on_c, 0, 81, 96
2, 518876, Note_off_c, 0, 81, 64
2, 518880, Note_on_c, 0, 79, 85
2, 519116, Note_off_c, 0, 79, 64
2, 519120, Note_on_c, 0, 78, 82
2, 519596, Note_off_c, 0, 78, 64
2, 519600, Note_on_c, 0, 76, 98
2, 520080, Note_off_c, 0, 76, 64
2, 520080, Note_on_c, 0, 74, 89
2, 521040, Note_off_c, 0, 74, 64
2, 521040, Note_on_c, 0, 71, 63
2, 521276, Note_off_c, 0, 71, 64
2, 521280, Note_on_c, 0, 69, 41
2, 521516, Note_off_c, 0, 69, 64
2, 521520, Note_on_c, 0, 71, 65
2, 521756, Note_off_c, 0, 71, 64
2, 521760, Note_on_c, 0, 72, 80
2, 521996, Note_off_c, 0, 72, 64
2, 522000, Note_on_c, 0, 74, 65
2, 522236, Note_off_c, 0, 74, 64
2, 522240, Note_on_c, 0, 69, 40
2, 522476, Note_off_c, 0, 69, 64
2, 522480, Note_on_c, 0, 74, 73
2, 522716, Note_off_c, 0, 74, 64
2, 522720, Note_on_c, 0, 72, 84
2, 522956, Note_off_c, 0, 72, 64
2, 522960, Note_on_c, 0, 71, 72
2, 523196, Note_off_c, 0, 71, 64
2, 523200, Note_on_c, 0, 74, 77
2, 523436, Note_off_c, 0, 74, 64
2, 523440, Note_on_c, 0, 79, 78
2, 524156, Note_off_c, 0, 79, 64
2, 524160, Note_on_c, 0, 81, 46
2, 524276, Note_off_c, 0, 81, 64
2, 524280, Note_on_c, 0, 79, 64
2, 524396, Note_off_c, 0, 79, 64
2, 524400, Note_on_c, 0, 78, 74
2, 524876, Note_off_c, 0, 78, 64
2, 524880, Note_on_c, 0, 79, 61
2, 525116, Note_off_c, 0, 79, 64
2, 525120, Note_on_c, 0, 78, 73
2, 525356, Note_off_c, 0, 78, 64
2, 525360, Note_on_c, 0, 79, 66
2, 525596, Note_off_c, 0, 79, 64
2, 525600, Note_on_c, 0, 81, 78
2, 525836, Note_off_c, 0, 81, 64
2, 525840, Note_on_c, 0, 83, 77
2, 526076, Note_off_c, 0, 83, 64
2, 526080, Note_on_c, 0, 78, 80
2, 526316, Note_off_c, 0, 78, 64
2, 526320, Note_on_c, 0, 83, 84
2, 526556, Note_off_c, 0, 83, 64
2, 526560, Note_on_c, 0, 81, 80
2, 526796, Note_off_c, 0, 81, 64
2, 526800, Note_on_c, 0, 79, 76
2, 527036, Note_off_c, 0, 79, 64
2, 527040, Note_on_c, 0, 81, 77
2, 527156, Note_off_c, 0, 81, 64
2, 527160, Note_on_c, 0, 83, 77
2, 527276, Note_off_c, 0, 83, 64
2, 527280, Note_on_c, 0, 84, 77
2, 527996, Note_off_c, 0, 84, 64
2, 528000, Note_on_c, 0, 83, 63
2, 528116, Note_off_c, 0, 83, 64
2, 528120, Note_on_c, 0, 81, 74
2, 528236, Note_off_c, 0, 81, 64
2, 528240, Note_on_c, 0, 83, 92
2, 528476, Note_off_c, 0, 83, 64
2, 528480, Note_on_c, 0, 71, 72
2, 528716, Note_off_c, 0, 71, 64
2, 528720, Note_on_c, 0, 73, 77
2, 528956, Note_off_c, 0, 73, 64
2, 528960, Note_on_c, 0, 71, 75
2, 529196, Note_off_c, 0, 71, 64
2, 529200, Note_on_c, 0, 73, 79
2, 529436, Note_off_c, 0, 73, 64
2, 529440, Note_on_c, 0, 75, 85
2, 529676, Note_off_c, 0, 75, 64
2, 529680, Note_on_c, 0, 76, 85
2, 529916, Note_off_c, 0, 76, 64
2, 529920, Note_on_c, 0, 71, 76
2, 530156, Note_off_c, 0, 71, 64
2, 530160, Note_on_c, 0, 76, 84
2, 530396, Note_off_c, 0, 76, 64
2, 530400, Note_on_c, 0, 74, 75
2, 530636, Note_off_c, 0, 74, 64
2, 530640, Note_on_c, 0, 72, 90
2, 530876, Note_off_c, 0, 72, 64
2, 530880, Note_on_c, 0, 74, 86
2, 530996, Note_off_c, 0, 74, 64
2, 531000, Note_on_c, 0, 76, 88
2, 531116, Note_off_c, 0, 76, 64
2, 531120, Note_on_c, 0, 77, 89
2, 531836, Note_off_c, 0, 77, 64
2, 531840, Note_on_c, 0, 76, 72
2, 531956, Note_off_c, 0, 76, 64
2, 531960, Note_on_c, 0, 74, 69
2, 532076, Note_off_c, 0, 74, 64
2, 532080, Note_on_c, 0, 76, 76
2, 532196, Note_off_c, 0, 76, 64
2, 532200, Note_on_c, 0, 78, 75
2, 532316, Note_off_c, 0, 78, 64
2, 532320, Note_on_c, 0, 79, 89
2, 532796, Note_off_c, 0, 79, 64
2, 532800, Note_on_c, 0, 78, 74
2, 533276, Note_off_c, 0, 78, 64
2, 533280, Note_on_c, 0, 76, 90
2, 533516, Note_off_c, 0, 76, 64
2, 533520, Note_on_c, 0, 78, 82
2, 533756, Note_off_c, 0, 78, 64
2, 533760, Note_on_c, 0, 79, 83
2, 533996, Note_off_c, 0, 79, 64
2, 534000, Note_on_c, 0, 81, 90
2, 534236, Note_off_c, 0, 81, 64
2, 534240, Note_on_c, 0, 79, 77
2, 534476, Note_off_c, 0, 79, 64
2, 534480, Note_on_c, 0, 78, 76
2, 534956, Note_off_c, 0, 78, 64
2, 534960, Note_on_c, 0, 76, 92
2, 535436, Note_off_c, 0, 76, 64
2, 535440, Note_on_c, 0, 74, 93
2, 536396, Note_off_c, 0, 74, 64
2, 536400, Note_on_c, 0, 78, 88
2, 536636, Note_off_c, 0, 78, 64
2, 536640, Note_on_c, 0, 74, 77
2, 536876, Note_off_c, 0, 74, 64
2, 536880, Note_on_c, 0, 76, 88
2, 537116, Note_off_c, 0, 76, 64
2, 537120, Note_on_c, 0, 78, 85
2, 537356, Note_off_c, 0, 78, 64
2, 537360, Note_on_c, 0, 79, 85
2, 537596, Note_off_c, 0, 79, 64
2, 537600, Note_on_c, 0, 74, 71
2, 537836, Note_off_c, 0, 74, 64
2, 537840, Note_on_c, 0, 79, 83
2, 538076, Note_off_c, 0, 79, 64
2, 538080, Note_on_c, 0, 81, 81
2, 538316, Note_off_c, 0, 81, 64
2, 538320, Note_on_c, 0, 83, 100
2, 538556, Note_off_c, 0, 83, 64
2, 538560, Note_on_c, 0, 76, 82
2, 538796, Note_off_c, 0, 76, 64
2, 538800, Note_on_c, 0, 81, 86
2, 539516, Note_off_c, 0, 81, 64
2, 539520, Note_on_c, 0, 79, 90
2, 539636, Note_off_c, 0, 79, 64
2, 539640, Note_on_c, 0, 78, 75
2, 539756, Note_off_c, 0, 78, 64
2, 539760, Note_on_c, 0, 79, 91
2, 540236, Note_off_c, 0, 79, 64
2, 540480, Note_on_c, 0, 76, 100
2, 540956, Note_off_c, 0, 76, 64
2, 540960, Note_on_c, 0, 74, 82
2, 541076, Note_off_c, 0, 74, 64
2, 541080, Note_on_c, 0, 72, 66
2, 541196, Note_off_c, 0, 72, 64
2, 541200, Note_on_c, 0, 71, 80
2, 541316, Note_off_c, 0, 71, 64
2, 541320, Note_on_c, 0, 69, 68
2, 541436, Note_off_c, 0, 69, 64
2, 541440, Note_on_c, 0, 67, 81
2, 541556, Note_off_c, 0, 67, 64
2, 541560, Note_on_c, 0, 66, 82
2, 541676, Note_off_c, 0, 66, 64
2, 541680, Note_on_c, 0, 67, 89
2, 541796, Note_off_c, 0, 67, 64
2, 541800, Note_on_c, 0, 69, 72
2, 541916, Note_off_c, 0, 69, 64
2, 541920, Note_on_c, 0, 71, 88
2, 542036, Note_off_c, 0, 71, 64
2, 542040, Note_on_c, 0, 67, 101
2, 542156, Note_off_c, 0, 67, 64
2, 542160, Note_on_c, 0, 66, 102
2, 542276, Note_off_c, 0, 66, 64
2, 542280, Note_on_c, 0, 64, 104
2, 542516, Note_off_c, 0, 64, 64
2, 542520, Note_on_c, 0, 66, 104
2, 542636, Note_off_c, 0, 66, 64
2, 542640, Note_on_c, 0, 63, 90
2, 543116, Note_off_c, 0, 63, 64
2, 543120, Note_on_c, 0, 64, 90
2, 543356, Note_off_c, 0, 64, 64
2, 543600, Note_on_c, 0, 71, 100
2, 544316, Note_off_c, 0, 71, 64
2, 544320, Note_on_c, 0, 69, 100
2, 544796, Note_off_c, 0, 69, 64
2, 544800, Note_on_c, 0, 68, 100
2, 545036, Note_off_c, 0, 68, 64
2, 545040, Note_on_c, 0, 69, 100
2, 545276, Note_off_c, 0, 69, 64
2, 545280, Note_on_c, 0, 72, 100
2, 545396, Note_off_c, 0, 72, 64
2, 545400, Note_on_c, 0, 71, 100
2, 545516, Note_off_c, 0, 71, 64
2, 545520, Note_on_c, 0, 72, 100
2, 545636, Note_off_c, 0, 72, 64
2, 545640, Note_on_c, 0, 76, 100
2, 545756, Note_off_c, 0, 76, 64
2, 545760, Note_on_c, 0, 74, 100
2, 545876, Note_off_c, 0, 74, 64
2, 545880, Note_on_c, 0, 72, 100
2, 545996, Note_off_c, 0, 72, 64
2, 546000, Note_on_c, 0, 71, 117
2, 546476, Note_off_c, 0, 71, 64
2, 546480, Note_on_c, 0, 73, 92
2, 546956, Note_off_c, 0, 73, 64
2, 546960, Note_on_c, 0, 74, 98
2, 548156, Note_off_c, 0, 74, 64
2, 548160, Note_on_c, 0, 79, 97
2, 548396, Note_off_c, 0, 79, 64
2, 548400, Note_on_c, 0, 78, 108
2, 548636, Note_off_c, 0, 78, 64
2, 548640, Note_on_c, 0, 76, 104
2, 548876, Note_off_c, 0, 76, 64
2, 548880, Note_on_c, 0, 74, 95
2, 549116, Note_off_c, 0, 74, 64
2, 549120, Note_on_c, 0, 79, 97
2, 549236, Note_off_c, 0, 79, 64
2, 549240, Note_on_c, 0, 78, 99
2, 549356, Note_off_c, 0, 78, 64
2, 549360, Note_on_c, 0, 79, 100
2, 549476, Note_off_c, 0, 79, 64
2, 549480, Note_on_c, 0, 81, 91
2, 549596, Note_off_c, 0, 81, 64
2, 549600, Note_on_c, 0, 83, 104
2, 549836, Note_off_c, 0, 83, 64
2, 549840, Note_on_c, 0, 76, 99
2, 550060, Note_on_c, 0, 81, 100
2, 550084, Note_off_c, 0, 76, 64
2, 550252, Note_on_c, 0, 78, 73
2, 550256, Note_off_c, 0, 81, 64
2, 550284, Note_on_c, 0, 79, 101
2, 550288, Note_off_c, 0, 78, 64
2, 550320, Note_on_c, 0, 78, 102
2, 550332, Note_off_c, 0, 79, 64
2, 550660, Note_on_c, 0, 79, 100
2, 550668, Note_off_c, 0, 78, 64
2, 550728, Note_off_c, 0, 79, 64
2, 550800, Note_on_c, 0, 79, 107
2, 551760, Note_off_c, 0, 79, 64
2, 567120, Note_on_c, 0, 79, 107
2, 567180, Note_on_c, 0, 78, 119
2, 567184, Note_off_c, 0, 79, 64
2, 567240, Note_on_c, 0, 79, 96
2, 567256, Note_off_c, 0, 78, 64
2, 567968, Note_off_c, 0, 79, 64
2, 568080, Note_on_c, 0, 81, 121
2, 568140, Note_off_c, 0, 81, 64
2, 568140, Note_on_c, 0, 79, 98
2, 568200, Note_off_c, 0, 79, 64
2, 568200, Note_on_c, 0, 81, 81
2, 568252, Note_off_c, 0, 81, 64
2, 568260, Note_on_c, 0, 79, 93
2, 568304, Note_off_c, 0, 79, 64
2, 568320, Note_on_c, 0, 81, 83
2, 568364, Note_off_c, 0, 81, 64
2, 568380, Note_on_c, 0, 79, 93
2, 568424, Note_off_c, 0, 79, 64
2, 568440, Note_on_c, 0, 81, 86
2, 568484, Note_off_c, 0, 81, 64
2, 568500, Note_on_c, 0, 79, 92
2, 568536, Note_off_c, 0, 79, 64
2, 568560, Note_on_c, 0, 81, 91
2, 568616, Note_off_c, 0, 81, 64
2, 568620, Note_on_c, 0, 79, 93
2, 568668, Note_off_c, 0, 79, 64
2, 568680, Note_on_c, 0, 81, 80
2, 568740, Note_on_c, 0, 79, 70
2, 568760, Note_off_c, 0, 81, 64
2, 568800, Note_off_c, 0, 79, 64
2, 568800, Note_on_c, 0, 78, 79
2, 568896, Note_off_c, 0, 78, 64
2, 568920, Note_on_c, 0, 79, 100
2, 569036, Note_off_c, 0, 79, 64
2, 569040, Note_on_c, 0, 81, 123
2, 569520, Note_off_c, 0, 81, 64
2, 569520, Note_on_c, 0, 78, 102
2, 570000, Note_off_c, 0, 78, 64
2, 570000, Note_on_c, 0, 74, 115
2, 570480, Note_off_c, 0, 74, 64
2, 570480, Note_on_c, 0, 78, 121
2, 570960, Note_off_c, 0, 78, 64
2, 570960, Note_on_c, 0, 71, 101
2, 571440, Note_off_c, 0, 71, 64
2, 571452, Note_on_c, 0, 76, 121
2, 571904, Note_off_c, 0, 76, 64
2, 571920, Note_on_c, 0, 64, 121
2, 572400, Note_off_c, 0, 64, 64
2, 572400, Note_on_c, 0, 74, 98
2, 572880, Note_on_c, 0, 73, 110
2, 572884, Note_off_c, 0, 74, 64
2, 572940, Note_off_c, 0, 73, 64
2, 572940, Note_on_c, 0, 74, 101
2, 573000, Note_off_c, 0, 74, 64
2, 573000, Note_on_c, 0, 73, 110
2, 573360, Note_off_c, 0, 73, 64
2, 573360, Note_on_c, 0, 71, 110
2, 573600, Note_off_c, 0, 71, 64
2, 573600, Note_on_c, 0, 73, 110
2, 573840, Note_off_c, 0, 73, 64
2, 573840, Note_on_c, 0, 69, 98
2, 574080, Note_off_c, 0, 69, 64
2, 574080, Note_on_c, 0, 71, 111
2, 574320, Note_off_c, 0, 71, 64
2, 574320, Note_on_c, 0, 73, 115
2, 574560, Note_off_c, 0, 73, 64
2, 574560, Note_on_c, 0, 69, 107
2, 574800, Note_off_c, 0, 69, 64
2, 574800, Note_on_c, 0, 74, 123
2, 575280, Note_off_c, 0, 74, 64
2, 575280, Note_on_c, 0, 62, 123
2, 575760, Note_off_c, 0, 62, 64
2, 575760, Note_on_c, 0, 74, 121
2, 577200, Note_off_c, 0, 74, 64
2, 577200, Note_on_c, 0, 62, 123
2, 577680, Note_off_c, 0, 62, 64
2, 577680, Note_on_c, 0, 74, 123
2, 579584, Note_on_c, 0, 73, 127
2, 579600, Note_off_c, 0, 74, 64
2, 580560, Note_on_c, 0, 74, 115
2, 580584, Note_off_c, 0, 73, 64
2, 582480, Note_off_c, 0, 74, 64
2, 597840, Note_on_c, 0, 79, 109
2, 597900, Note_off_c, 0, 79, 64
2, 597900, Note_on_c, 0, 78, 110
2, 597960, Note_off_c, 0, 78, 64
2, 597960, Note_on_c, 0, 79, 101
2, 598680, Note_off_c, 0, 79, 64
2, 598800, Note_on_c, 0, 81, 126
2, 598860, Note_on_c, 0, 79, 98
2, 598864, Note_off_c, 0, 81, 64
2, 598916, Note_off_c, 0, 79, 64
2, 598920, Note_on_c, 0, 81, 96
2, 598972, Note_off_c, 0, 81, 64
2, 598980, Note_on_c, 0, 79, 85
2, 599024, Note_off_c, 0, 79, 64
2, 599040, Note_on_c, 0, 81, 82
2, 599084, Note_off_c, 0, 81, 64
2, 599100, Note_on_c, 0, 79, 77
2, 599144, Note_off_c, 0, 79, 64
2, 599160, Note_on_c, 0, 81, 84
2, 599212, Note_off_c, 0, 81, 64
2, 599220, Note_on_c, 0, 79, 78
2, 599264, Note_off_c, 0, 79, 64
2, 599280, Note_on_c, 0, 81, 90
2, 599336, Note_off_c, 0, 81, 64
2, 599340, Note_on_c, 0, 79, 84
2, 599400, Note_on_c, 0, 81, 98
2, 599404, Note_off_c, 0, 79, 64
2, 599460, Note_on_c, 0, 79, 96
2, 599484, Note_off_c, 0, 81, 64
2, 599520, Note_off_c, 0, 79, 64
2, 599520, Note_on_c, 0, 78, 99
2, 599640, Note_off_c, 0, 78, 64
2, 599656, Note_on_c, 0, 79, 100
2, 599760, Note_on_c, 0, 81, 113
2, 599764, Note_off_c, 0, 79, 64
2, 600220, Note_on_c, 0, 78, 104
2, 600240, Note_off_c, 0, 81, 64
2, 600692, Note_off_c, 0, 78, 64
2, 600700, Note_on_c, 0, 74, 106
2, 601184, Note_off_c, 0, 74, 64
2, 601184, Note_on_c, 0, 78, 125
2, 601696, Note_off_c, 0, 78, 64
2, 601704, Note_on_c, 0, 71, 113
2, 602160, Note_on_c, 0, 76, 119
2, 602164, Note_off_c, 0, 71, 64
2, 602612, Note_off_c, 0, 76, 64
2, 602640, Note_on_c, 0, 64, 113
2, 603120, Note_off_c, 0, 64, 64
2, 603132, Note_on_c, 0, 74, 119
2, 603584, Note_off_c, 0, 74, 64
2, 603592, Note_on_c, 0, 73, 117
2, 603644, Note_off_c, 0, 73, 64
2, 603664, Note_on_c, 0, 74, 111
2, 603712, Note_on_c, 0, 73, 102
2, 603740, Note_off_c, 0, 74, 64
2, 604060, Note_on_c, 0, 71, 106
2, 604084, Note_off_c, 0, 73, 64
2, 604308, Note_on_c, 0, 73, 104
2, 604328, Note_off_c, 0, 71, 64
2, 604552, Note_off_c, 0, 73, 64
2, 604552, Note_on_c, 0, 69, 92
2, 604796, Note_on_c, 0, 71, 109
2, 604828, Note_off_c, 0, 69, 64
2, 605024, Note_on_c, 0, 73, 106
2, 605040, Note_off_c, 0, 71, 64
2, 605268, Note_on_c, 0, 69, 95
2, 605276, Note_off_c, 0, 73, 64
2, 605512, Note_off_c, 0, 69, 64
2, 605520, Note_on_c, 0, 74, 117
2, 606000, Note_off_c, 0, 74, 64
2, 606000, Note_on_c, 0, 62, 117
2, 606480, Note_off_c, 0, 62, 64
2, 606480, Note_on_c, 0, 74, 121
2, 607920, Note_off_c, 0, 74, 64
2, 607920, Note_on_c, 0, 62, 117
2, 608400, Note_off_c, 0, 62, 64
2, 608400, Note_on_c, 0, 74, 117
2, 610320, Note_off_c, 0, 74, 64
2, 610320, Note_on_c, 0, 73, 123
2, 611280, Note_off_c, 0, 73, 64
2, 611280, Note_on_c, 0, 74, 111
2, 613200, Note_off_c, 0, 74, 64
2, 613200, Note_on_c, 0, 78, 123
2, 613260, Note_on_c, 0, 76, 96
2, 613280, Note_off_c, 0, 78, 64
2, 613328, Note_on_c, 0, 78, 108
2, 613356, Note_off_c, 0, 76, 64
2, 614056, Note_off_c, 0, 78, 64
2, 614172, Note_on_c, 0, 79, 123
2, 614220, Note_on_c, 0, 78, 99
2, 614240, Note_off_c, 0, 79, 64
2, 614280, Note_off_c, 0, 78, 64
2, 614280, Note_on_c, 0, 79, 95
2, 614340, Note_on_c, 0, 78, 96
2, 614356, Note_off_c, 0, 79, 64
2, 614400, Note_on_c, 0, 79, 90
2, 614412, Note_off_c, 0, 78, 64
2, 614460, Note_on_c, 0, 78, 93
2, 614472, Note_off_c, 0, 79, 64
2, 614520, Note_on_c, 0, 79, 92
2, 614532, Note_off_c, 0, 78, 64
2, 614580, Note_on_c, 0, 78, 96
2, 614592, Note_off_c, 0, 79, 64
2, 614636, Note_off_c, 0, 78, 64
2, 614640, Note_on_c, 0, 79, 90
2, 614700, Note_on_c, 0, 78, 94
2, 614704, Note_off_c, 0, 79, 64
2, 614752, Note_off_c, 0, 78, 64
2, 614760, Note_on_c, 0, 79, 92
2, 614820, Note_on_c, 0, 78, 84
2, 614828, Note_off_c, 0, 79, 64
2, 614880, Note_off_c, 0, 78, 64
2, 614880, Note_on_c, 0, 79, 84
2, 614940, Note_off_c, 0, 79, 64
2, 614940, Note_on_c, 0, 78, 84
2, 614972, Note_on_c, 0, 76, 85
2, 615000, Note_off_c, 0, 78, 64
2, 615060, Note_on_c, 0, 78, 102
2, 615068, Note_off_c, 0, 76, 64
2, 615120, Note_off_c, 0, 78, 64
2, 615120, Note_on_c, 0, 79, 119
2, 615580, Note_off_c, 0, 79, 64
2, 615604, Note_on_c, 0, 74, 102
2, 616092, Note_on_c, 0, 71, 96
2, 616116, Note_off_c, 0, 74, 64
2, 616560, Note_on_c, 0, 74, 96
2, 616572, Note_off_c, 0, 71, 64
2, 617040, Note_off_c, 0, 74, 64
2, 617040, Note_on_c, 0, 72, 109
2, 617520, Note_off_c, 0, 72, 64
2, 617520, Note_on_c, 0, 77, 113
2, 618000, Note_off_c, 0, 77, 64
2, 618004, Note_on_c, 0, 65, 111
2, 618492, Note_off_c, 0, 65, 64
2, 618496, Note_on_c, 0, 76, 124
2, 618960, Note_on_c, 0, 75, 108
2, 618984, Note_off_c, 0, 76, 64
2, 619020, Note_off_c, 0, 75, 64
2, 619020, Note_on_c, 0, 76, 91
2, 619080, Note_on_c, 0, 75, 102
2, 619100, Note_off_c, 0, 76, 64
2, 619440, Note_off_c, 0, 75, 64
2, 619440, Note_on_c, 0, 73, 121
2, 619680, Note_off_c, 0, 73, 64
2, 619680, Note_on_c, 0, 75, 101
2, 619920, Note_off_c, 0, 75, 64
2, 619920, Note_on_c, 0, 71, 83
2, 620160, Note_off_c, 0, 71, 64
2, 620180, Note_on_c, 0, 73, 112
2, 620412, Note_on_c, 0, 75, 108
2, 620424, Note_off_c, 0, 73, 64
2, 620640, Note_on_c, 0, 71, 102
2, 620648, Note_off_c, 0, 75, 64
2, 620880, Note_off_c, 0, 71, 64
2, 620880, Note_on_c, 0, 76, 115
2, 621360, Note_off_c, 0, 76, 64
2, 621360, Note_on_c, 0, 64, 115
2, 621840, Note_off_c, 0, 64, 64
2, 621840, Note_on_c, 0, 76, 121
2, 623280, Note_off_c, 0, 76, 64
2, 623280, Note_on_c, 0, 64, 115
2, 623760, Note_off_c, 0, 64, 64
2, 623764, Note_on_c, 0, 76, 123
2, 625672, Note_on_c, 0, 75, 117
2, 625696, Note_off_c, 0, 76, 64
2, 626640, Note_on_c, 0, 76, 107
2, 626644, Note_off_c, 0, 75, 64
2, 627600, Note_off_c, 0, 76, 64
2, 627840, Note_on_c, 0, 74, 107
2, 628080, Note_off_c, 0, 74, 64
2, 628080, Note_on_c, 0, 73, 112
2, 628308, Note_on_c, 0, 71, 100
2, 628320, Note_off_c, 0, 73, 64
2, 628564, Note_off_c, 0, 71, 64
2, 628564, Note_on_c, 0, 69, 107
2, 629064, Note_off_c, 0, 69, 64
2, 629064, Note_on_c, 0, 79, 124
2, 629980, Note_off_c, 0, 79, 64
2, 629992, Note_on_c, 0, 77, 115
2, 630236, Note_on_c, 0, 76, 115
2, 630248, Note_off_c, 0, 77, 64
2, 630472, Note_off_c, 0, 76, 64
2, 630480, Note_on_c, 0, 77, 117
2, 631920, Note_off_c, 0, 77, 64
2, 631920, Note_on_c, 0, 76, 123
2, 632160, Note_off_c, 0, 76, 64
2, 632160, Note_on_c, 0, 74, 104
2, 632400, Note_off_c, 0, 74, 64
2, 632416, Note_on_c, 0, 76, 113
2, 633856, Note_on_c, 0, 78, 101
2, 633864, Note_off_c, 0, 76, 64
2, 634076, Note_on_c, 0, 79, 106
2, 634080, Note_off_c, 0, 78, 64
2, 634312, Note_on_c, 0, 81, 92
2, 634332, Note_off_c, 0, 79, 64
2, 634548, Note_on_c, 0, 83, 104
2, 634560, Note_off_c, 0, 81, 64
2, 634804, Note_on_c, 0, 79, 95
2, 634832, Note_off_c, 0, 83, 64
2, 635036, Note_on_c, 0, 81, 93
2, 635060, Note_off_c, 0, 79, 64
2, 635292, Note_off_c, 0, 81, 64
2, 635296, Note_on_c, 0, 78, 92
2, 635760, Note_on_c, 0, 81, 115
2, 635784, Note_off_c, 0, 78, 64
2, 636720, Note_off_c, 0, 81, 64
2, 636736, Note_on_c, 0, 79, 115
2, 636968, Note_on_c, 0, 78, 108
2, 636992, Note_off_c, 0, 79, 64
2, 637212, Note_on_c, 0, 79, 111
2, 637224, Note_off_c, 0, 78, 64
2, 637696, Note_off_c, 0, 79, 64
2, 637704, Note_on_c, 0, 71, 119
2, 638640, Note_on_c, 0, 69, 100
2, 638664, Note_off_c, 0, 71, 64
2, 638880, Note_on_c, 0, 71, 102
2, 638896, Note_off_c, 0, 69, 64
2, 639120, Note_off_c, 0, 71, 64
2, 639120, Note_on_c, 0, 72, 101
2, 640560, Note_off_c, 0, 72, 64
2, 640560, Note_on_c, 0, 71, 109
2, 641040, Note_off_c, 0, 71, 64
2, 641040, Note_on_c, 0, 69, 109
2, 642000, Note_off_c, 0, 69, 64
2, 642000, Note_on_c, 0, 67, 98
2, 643920, Note_off_c, 0, 67, 64
2, 643920, Note_on_c, 0, 78, 110
2, 643980, Note_off_c, 0, 78, 64
2, 643980, Note_on_c, 0, 76, 100
2, 644040, Note_off_c, 0, 76, 64
2, 644040, Note_on_c, 0, 78, 102
2, 644760, Note_off_c, 0, 78, 64
2, 644864, Note_on_c, 0, 79, 115
2, 644936, Note_on_c, 0, 78, 90
2, 644944, Note_off_c, 0, 79, 64
2, 645000, Note_off_c, 0, 78, 64
2, 645012, Note_on_c, 0, 79, 91
2, 645072, Note_on_c, 0, 78, 92
2, 645076, Note_off_c, 0, 79, 64
2, 645136, Note_off_c, 0, 78, 64
2, 645140, Note_on_c, 0, 79, 80
2, 645200, Note_on_c, 0, 78, 89
2, 645204, Note_off_c, 0, 79, 64
2, 645240, Note_on_c, 0, 79, 86
2, 645256, Note_off_c, 0, 78, 64
2, 645300, Note_off_c, 0, 79, 64
2, 645300, Note_on_c, 0, 78, 81
2, 645360, Note_off_c, 0, 78, 64
2, 645360, Note_on_c, 0, 79, 96
2, 645420, Note_off_c, 0, 79, 64
2, 645420, Note_on_c, 0, 78, 92
2, 645480, Note_off_c, 0, 78, 64
2, 645480, Note_on_c, 0, 79, 77
2, 645540, Note_off_c, 0, 79, 64
2, 645540, Note_on_c, 0, 78, 95
2, 645600, Note_off_c, 0, 78, 64
2, 645600, Note_on_c, 0, 79, 77
2, 645660, Note_off_c, 0, 79, 64
2, 645660, Note_on_c, 0, 78, 97
2, 645720, Note_off_c, 0, 78, 64
2, 645720, Note_on_c, 0, 76, 97
2, 645780, Note_off_c, 0, 76, 64
2, 645780, Note_on_c, 0, 78, 97
2, 645840, Note_off_c, 0, 78, 64
2, 645840, Note_on_c, 0, 79, 117
2, 646296, Note_off_c, 0, 79, 64
2, 646312, Note_on_c, 0, 74, 100
2, 646800, Note_on_c, 0, 71, 104
2, 646812, Note_off_c, 0, 74, 64
2, 647280, Note_off_c, 0, 71, 64
2, 647280, Note_on_c, 0, 74, 104
2, 647760, Note_off_c, 0, 74, 64
2, 647764, Note_on_c, 0, 72, 115
2, 648244, Note_off_c, 0, 72, 64
2, 648244, Note_on_c, 0, 77, 113
2, 648704, Note_off_c, 0, 77, 64
2, 648720, Note_on_c, 0, 65, 106
2, 649212, Note_on_c, 0, 76, 113
2, 649216, Note_off_c, 0, 65, 64
2, 649680, Note_on_c, 0, 75, 94
2, 649684, Note_off_c, 0, 76, 64
2, 649732, Note_off_c, 0, 75, 64
2, 649740, Note_on_c, 0, 76, 100
2, 649800, Note_on_c, 0, 75, 89
2, 649824, Note_off_c, 0, 76, 64
2, 650160, Note_on_c, 0, 73, 96
2, 650176, Note_off_c, 0, 75, 64
2, 650400, Note_on_c, 0, 75, 85
2, 650428, Note_off_c, 0, 73, 64
2, 650640, Note_on_c, 0, 71, 89
2, 650652, Note_off_c, 0, 75, 64
2, 650880, Note_off_c, 0, 71, 64
2, 650880, Note_on_c, 0, 73, 94
2, 651112, Note_on_c, 0, 75, 101
2, 651136, Note_off_c, 0, 73, 64
2, 651348, Note_on_c, 0, 71, 100
2, 651360, Note_off_c, 0, 75, 64
2, 651612, Note_off_c, 0, 71, 64
2, 651616, Note_on_c, 0, 76, 106
2, 652084, Note_off_c, 0, 76, 64
2, 652092, Note_on_c, 0, 64, 117
2, 652564, Note_off_c, 0, 64, 64
2, 652564, Note_on_c, 0, 76, 123
2, 653980, Note_off_c, 0, 76, 64
2, 653992, Note_on_c, 0, 64, 119
2, 654480, Note_on_c, 0, 76, 121
2, 654496, Note_off_c, 0, 64, 64
2, 656400, Note_off_c, 0, 76, 64
2, 656400, Note_on_c, 0, 75, 115
2, 657360, Note_off_c, 0, 75, 64
2, 657376, Note_on_c, 0, 76, 106
2, 658560, Note_on_c, 0, 74, 107
2, 658588, Note_off_c, 0, 76, 64
2, 658792, Note_on_c, 0, 73, 101
2, 658800, Note_off_c, 0, 74, 64
2, 659028, Note_on_c, 0, 71, 93
2, 659056, Note_off_c, 0, 73, 64
2, 659280, Note_on_c, 0, 69, 104
2, 659292, Note_off_c, 0, 71, 64
2, 659764, Note_off_c, 0, 69, 64
2, 659764, Note_on_c, 0, 79, 123
2, 660724, Note_on_c, 0, 77, 109
2, 660744, Note_off_c, 0, 79, 64
2, 660956, Note_on_c, 0, 76, 98
2, 660968, Note_off_c, 0, 77, 64
2, 661200, Note_off_c, 0, 76, 64
2, 661200, Note_on_c, 0, 77, 100
2, 662640, Note_off_c, 0, 77, 64
2, 662640, Note_on_c, 0, 76, 109
2, 662880, Note_on_c, 0, 74, 97
2, 662888, Note_off_c, 0, 76, 64
2, 663124, Note_off_c, 0, 74, 64
2, 663132, Note_on_c, 0, 76, 98
2, 664576, Note_on_c, 0, 78, 102
2, 664584, Note_off_c, 0, 76, 64
2, 664796, Note_on_c, 0, 79, 100
2, 664800, Note_off_c, 0, 78, 64
2, 665024, Note_on_c, 0, 81, 101
2, 665044, Note_off_c, 0, 79, 64
2, 665268, Note_off_c, 0, 81, 64
2, 665268, Note_on_c, 0, 83, 101
2, 665504, Note_on_c, 0, 79, 96
2, 665532, Note_off_c, 0, 83, 64
2, 665748, Note_on_c, 0, 81, 95
2, 665780, Note_off_c, 0, 79, 64
2, 665992, Note_on_c, 0, 78, 94
2, 666004, Note_off_c, 0, 81, 64
2, 666480, Note_on_c, 0, 81, 111
2, 666504, Note_off_c, 0, 78, 64
2, 667440, Note_off_c, 0, 81, 64
2, 667440, Note_on_c, 0, 79, 97
2, 667680, Note_off_c, 0, 79, 64
2, 667680, Note_on_c, 0, 78, 108
2, 667920, Note_off_c, 0, 78, 64
2, 667920, Note_on_c, 0, 79, 104
2, 668392, Note_off_c, 0, 79, 64
2, 668400, Note_on_c, 0, 71, 107
2, 669360, Note_off_c, 0, 71, 64
2, 669364, Note_on_c, 0, 69, 98
2, 669608, Note_on_c, 0, 71, 104
2, 669632, Note_off_c, 0, 69, 64
2, 669840, Note_on_c, 0, 72, 109
2, 669852, Note_off_c, 0, 71, 64
2, 671280, Note_off_c, 0, 72, 64
2, 671280, Note_on_c, 0, 71, 113
2, 671760, Note_off_c, 0, 71, 64
2, 671760, Note_on_c, 0, 69, 96
2, 672720, Note_off_c, 0, 69, 64
2, 672720, Note_on_c, 0, 67, 107
2, 674640, Note_off_c, 0, 67, 64
2, 676560, Note_on_c, 0, 71, 106
2, 676676, Note_off_c, 0, 71, 64
2, 676680, Note_on_c, 0, 69, 97
2, 676796, Note_off_c, 0, 69, 64
2, 676800, Note_on_c, 0, 67, 98
2, 676916, Note_off_c, 0, 67, 64
2, 676920, Note_on_c, 0, 66, 108
2, 677036, Note_off_c, 0, 66, 64
2, 677040, Note_on_c, 0, 64, 113
2, 677156, Note_off_c, 0, 64, 64
2, 677160, Note_on_c, 0, 62, 100
2, 677276, Note_off_c, 0, 62, 64
2, 677280, Note_on_c, 0, 61, 115
2, 677876, Note_off_c, 0, 61, 64
2, 677880, Note_on_c, 0, 64, 104
2, 677996, Note_off_c, 0, 64, 64
2, 678000, Note_on_c, 0, 69, 106
2, 678116, Note_off_c, 0, 69, 64
2, 678120, Note_on_c, 0, 67, 96
2, 678236, Note_off_c, 0, 67, 64
2, 678240, Note_on_c, 0, 66, 102
2, 678356, Note_off_c, 0, 66, 64
2, 678360, Note_on_c, 0, 64, 104
2, 678476, Note_off_c, 0, 64, 64
2, 678480, Note_on_c, 0, 62, 88
2, 678596, Note_off_c, 0, 62, 64
2, 678600, Note_on_c, 0, 61, 96
2, 678716, Note_off_c, 0, 61, 64
2, 678720, Note_on_c, 0, 59, 93
2, 679316, Note_off_c, 0, 59, 64
2, 679320, Note_on_c, 0, 69, 100
2, 679436, Note_off_c, 0, 69, 64
2, 679440, Note_on_c, 0, 67, 93
2, 679556, Note_off_c, 0, 67, 64
2, 679560, Note_on_c, 0, 66, 90
2, 679676, Note_off_c, 0, 66, 64
2, 679680, Note_on_c, 0, 64, 96
2, 679796, Note_off_c, 0, 64, 64
2, 679800, Note_on_c, 0, 62, 88
2, 679916, Note_off_c, 0, 62, 64
2, 679920, Note_on_c, 0, 61, 99
2, 680036, Note_off_c, 0, 61, 64
2, 680040, Note_on_c, 0, 59, 93
2, 680156, Note_off_c, 0, 59, 64
2, 680160, Note_on_c, 0, 57, 101
2, 680396, Note_off_c, 0, 57, 64
2, 680400, Note_on_c, 0, 61, 99
2, 680516, Note_off_c, 0, 61, 64
2, 680520, Note_on_c, 0, 64, 109
2, 680756, Note_off_c, 0, 64, 64
2, 680760, Note_on_c, 0, 67, 102
2, 680876, Note_off_c, 0, 67, 64
2, 680880, Note_on_c, 0, 66, 89
2, 680996, Note_off_c, 0, 66, 64
2, 681000, Note_on_c, 0, 64, 98
2, 681116, Note_off_c, 0, 64, 64
2, 681120, Note_on_c, 0, 62, 92
2, 681236, Note_off_c, 0, 62, 64
2, 681240, Note_on_c, 0, 61, 97
2, 681356, Note_off_c, 0, 61, 64
2, 681360, Note_on_c, 0, 59, 82
2, 681476, Note_off_c, 0, 59, 64
2, 681480, Note_on_c, 0, 57, 81
2, 681596, Note_off_c, 0, 57, 64
2, 681600, Note_on_c, 0, 55, 86
2, 681716, Note_off_c, 0, 55, 64
2, 681720, Note_on_c, 0, 54, 90
2, 681836, Note_off_c, 0, 54, 64
2, 681840, Note_on_c, 0, 52, 86
2, 681956, Note_off_c, 0, 52, 64
2, 681960, Note_on_c, 0, 50, 81
2, 682076, Note_off_c, 0, 50, 64
2, 682080, Note_on_c, 0, 52, 95
2, 682196, Note_off_c, 0, 52, 64
2, 682200, Note_on_c, 0, 48, 80
2, 682316, Note_off_c, 0, 48, 64
2, 682320, Note_on_c, 0, 47, 75
2, 682436, Note_off_c, 0, 47, 64
2, 682440, Note_on_c, 0, 50, 89
2, 682556, Note_off_c, 0, 50, 64
2, 682560, Note_on_c, 0, 55, 65
2, 682676, Note_off_c, 0, 55, 64
2, 682680, Note_on_c, 0, 59, 101
2, 682796, Note_off_c, 0, 59, 64
2, 682800, Note_on_c, 0, 62, 101
2, 682916, Note_off_c, 0, 62, 64
2, 682920, Note_on_c, 0, 67, 89
2, 683036, Note_off_c, 0, 67, 64
2, 683040, Note_on_c, 0, 62, 97
2, 683156, Note_off_c, 0, 62, 64
2, 683160, Note_on_c, 0, 59, 80
2, 683276, Note_off_c, 0, 59, 64
2, 683280, Note_on_c, 0, 55, 88
2, 683396, Note_off_c, 0, 55, 64
2, 683400, Note_on_c, 0, 53, 107
2, 683516, Note_off_c, 0, 53, 64
2, 683520, Note_on_c, 0, 52, 96
2, 683636, Note_off_c, 0, 52, 64
2, 683640, Note_on_c, 0, 50, 73
2, 683756, Note_off_c, 0, 50, 64
2, 683760, Note_on_c, 0, 49, 102
2, 683876, Note_off_c, 0, 49, 64
2, 683880, Note_on_c, 0, 52, 91
2, 683996, Note_off_c, 0, 52, 64
2, 684000, Note_on_c, 0, 55, 81
2, 684116, Note_off_c, 0, 55, 64
2, 684120, Note_on_c, 0, 58, 102
2, 684236, Note_off_c, 0, 58, 64
2, 684240, Note_on_c, 0, 64, 66
2, 684356, Note_off_c, 0, 64, 64
2, 684360, Note_on_c, 0, 67, 92
2, 684476, Note_off_c, 0, 67, 64
2, 684480, Note_on_c, 0, 64, 109
2, 684596, Note_off_c, 0, 64, 64
2, 684600, Note_on_c, 0, 58, 109
2, 684716, Note_off_c, 0, 58, 64
2, 684720, Note_on_c, 0, 57, 109
2, 684836, Note_off_c, 0, 57, 64
2, 684840, Note_on_c, 0, 55, 81
2, 684956, Note_off_c, 0, 55, 64
2, 684960, Note_on_c, 0, 54, 89
2, 685076, Note_off_c, 0, 54, 64
2, 685080, Note_on_c, 0, 52, 91
2, 685196, Note_off_c, 0, 52, 64
2, 685200, Note_on_c, 0, 50, 72
2, 685316, Note_off_c, 0, 50, 64
2, 685320, Note_on_c, 0, 55, 92
2, 685436, Note_off_c, 0, 55, 64
2, 685440, Note_on_c, 0, 59, 96
2, 685556, Note_off_c, 0, 59, 64
2, 685560, Note_on_c, 0, 62, 102
2, 685676, Note_off_c, 0, 62, 64
2, 685680, Note_on_c, 0, 67, 104
2, 685796, Note_off_c, 0, 67, 64
2, 685800, Note_on_c, 0, 71, 106
2, 685916, Note_off_c, 0, 71, 64
2, 685920, Note_on_c, 0, 69, 93
2, 686036, Note_off_c, 0, 69, 64
2, 686040, Note_on_c, 0, 66, 90
2, 686156, Note_off_c, 0, 66, 64
2, 686160, Note_on_c, 0, 62, 88
2, 686276, Note_off_c, 0, 62, 64
2, 686280, Note_on_c, 0, 60, 91
2, 686396, Note_off_c, 0, 60, 64
2, 686400, Note_on_c, 0, 59, 86
2, 686516, Note_off_c, 0, 59, 64
2, 686520, Note_on_c, 0, 57, 90
2, 686636, Note_off_c, 0, 57, 64
2, 686640, Note_on_c, 0, 55, 83
2, 686756, Note_off_c, 0, 55, 64
2, 686760, Note_on_c, 0, 59, 80
2, 686876, Note_off_c, 0, 59, 64
2, 686880, Note_on_c, 0, 62, 97
2, 686996, Note_off_c, 0, 62, 64
2, 687000, Note_on_c, 0, 67, 81
2, 687116, Note_off_c, 0, 67, 64
2, 687120, Note_on_c, 0, 71, 98
2, 687236, Note_off_c, 0, 71, 64
2, 687240, Note_on_c, 0, 74, 95
2, 687356, Note_off_c, 0, 74, 64
2, 687360, Note_on_c, 0, 79, 117
2, 687600, Note_off_c, 0, 79, 64
2, 687600, Note_on_c, 0, 74, 81
2, 687720, Note_off_c, 0, 74, 64
2, 687720, Note_on_c, 0, 71, 100
2, 687960, Note_off_c, 0, 71, 64
2, 687960, Note_on_c, 0, 66, 96
2, 688076, Note_off_c, 0, 66, 64
2, 688080, Note_on_c, 0, 67, 101
2, 688676, Note_off_c, 0, 67, 64
2, 688680, Note_on_c, 0, 71, 93
2, 688796, Note_off_c, 0, 71, 64
2, 688800, Note_on_c, 0, 76, 98
2, 688916, Note_off_c, 0, 76, 64
2, 688920, Note_on_c, 0, 74, 85
2, 689036, Note_off_c, 0, 74, 64
2, 689040, Note_on_c, 0, 73, 89
2, 689156, Note_off_c, 0, 73, 64
2, 689160, Note_on_c, 0, 71, 96
2, 689276, Note_off_c, 0, 71, 64
2, 689280, Note_on_c, 0, 69, 81
2, 689396, Note_off_c, 0, 69, 64
2, 689400, Note_on_c, 0, 67, 88
2, 689516, Note_off_c, 0, 67, 64
2, 689520, Note_on_c, 0, 66, 115
2, 690116, Note_off_c, 0, 66, 64
2, 690120, Note_on_c, 0, 76, 117
2, 690236, Note_off_c, 0, 76, 64
2, 690240, Note_on_c, 0, 74, 100
2, 690356, Note_off_c, 0, 74, 64
2, 690360, Note_on_c, 0, 73, 85
2, 690476, Note_off_c, 0, 73, 64
2, 690480, Note_on_c, 0, 71, 89
2, 690596, Note_off_c, 0, 71, 64
2, 690600, Note_on_c, 0, 69, 81
2, 690716, Note_off_c, 0, 69, 64
2, 690720, Note_on_c, 0, 67, 83
2, 690836, Note_off_c, 0, 67, 64
2, 690840, Note_on_c, 0, 66, 97
2, 690956, Note_off_c, 0, 66, 64
2, 690960, Note_on_c, 0, 64, 106
2, 691436, Note_off_c, 0, 64, 64
2, 691440, Note_on_c, 0, 66, 101
2, 691556, Note_off_c, 0, 66, 64
2, 691560, Note_on_c, 0, 67, 98
2, 691676, Note_off_c, 0, 67, 64
2, 691680, Note_on_c, 0, 61, 81
2, 691796, Note_off_c, 0, 61, 64
2, 691800, Note_on_c, 0, 71, 85
2, 691916, Note_off_c, 0, 71, 64
2, 691920, Note_on_c, 0, 69, 84
2, 692036, Note_off_c, 0, 69, 64
2, 692040, Note_on_c, 0, 67, 100
2, 692156, Note_off_c, 0, 67, 64
2, 692160, Note_on_c, 0, 69, 86
2, 692276, Note_off_c, 0, 69, 64
2, 692280, Note_on_c, 0, 71, 92
2, 692396, Note_off_c, 0, 71, 64
2, 692400, Note_on_c, 0, 64, 101
2, 692516, Note_off_c, 0, 64, 64
2, 692520, Note_on_c, 0, 74, 68
2, 692636, Note_off_c, 0, 74, 64
2, 692640, Note_on_c, 0, 73, 101
2, 692756, Note_off_c, 0, 73, 64
2, 692760, Note_on_c, 0, 71, 98
2, 692876, Note_off_c, 0, 71, 64
2, 692880, Note_on_c, 0, 73, 90
2, 692996, Note_off_c, 0, 73, 64
2, 693000, Note_on_c, 0, 74, 96
2, 693116, Note_off_c, 0, 74, 64
2, 693120, Note_on_c, 0, 73, 88
2, 693236, Note_off_c, 0, 73, 64
2, 693240, Note_on_c, 0, 76, 95
2, 693360, Note_off_c, 0, 76, 64
2, 693360, Note_on_c, 0, 78, 88
2, 693476, Note_off_c, 0, 78, 64
2, 693480, Note_on_c, 0, 79, 100
2, 693596, Note_off_c, 0, 79, 64
2, 693600, Note_on_c, 0, 78, 94
2, 693716, Note_off_c, 0, 78, 64
2, 693720, Note_on_c, 0, 76, 95
2, 693836, Note_off_c, 0, 76, 64
2, 693840, Note_on_c, 0, 76, 102
2, 693900, Note_off_c, 0, 76, 64
2, 693900, Note_on_c, 0, 74, 102
2, 693960, Note_off_c, 0, 74, 64
2, 693960, Note_on_c, 0, 73, 91
2, 694020, Note_off_c, 0, 73, 64
2, 694020, Note_on_c, 0, 74, 71
2, 694080, Note_off_c, 0, 74, 64
2, 694080, Note_on_c, 0, 76, 101
2, 694140, Note_off_c, 0, 76, 64
2, 694140, Note_on_c, 0, 74, 80
2, 694200, Note_off_c, 0, 74, 64
2, 694200, Note_on_c, 0, 76, 101
2, 694260, Note_off_c, 0, 76, 64
2, 694260, Note_on_c, 0, 74, 101
2, 694320, Note_off_c, 0, 74, 64
2, 694320, Note_on_c, 0, 76, 98
2, 694380, Note_off_c, 0, 76, 64
2, 694380, Note_on_c, 0, 74, 90
2, 694440, Note_off_c, 0, 74, 64
2, 694440, Note_on_c, 0, 76, 92
2, 694500, Note_off_c, 0, 76, 64
2, 694500, Note_on_c, 0, 74, 92
2, 694560, Note_off_c, 0, 74, 64
2, 694560, Note_on_c, 0, 76, 92
2, 694680, Note_off_c, 0, 76, 64
2, 694680, Note_on_c, 0, 74, 92
2, 694800, Note_off_c, 0, 74, 64
2, 694800, Note_on_c, 0, 66, 90
2, 694920, Note_off_c, 0, 66, 64
2, 694920, Note_on_c, 0, 69, 92
2, 695156, Note_off_c, 0, 69, 64
2, 695160, Note_on_c, 0, 74, 106
2, 695276, Note_off_c, 0, 74, 64
2, 695280, Note_on_c, 0, 73, 102
2, 695340, Note_off_c, 0, 73, 64
2, 695340, Note_on_c, 0, 74, 102
2, 695400, Note_off_c, 0, 74, 64
2, 695400, Note_on_c, 0, 76, 91
2, 695460, Note_off_c, 0, 76, 64
2, 695460, Note_on_c, 0, 74, 71
2, 695520, Note_off_c, 0, 74, 64
2, 695520, Note_on_c, 0, 76, 101
2, 695580, Note_off_c, 0, 76, 64
2, 695580, Note_on_c, 0, 74, 80
2, 695640, Note_off_c, 0, 74, 64
2, 695640, Note_on_c, 0, 76, 101
2, 695700, Note_off_c, 0, 76, 64
2, 695700, Note_on_c, 0, 74, 101
2, 695760, Note_off_c, 0, 74, 64
2, 695760, Note_on_c, 0, 76, 98
2, 695820, Note_off_c, 0, 76, 64
2, 695820, Note_on_c, 0, 74, 90
2, 695880, Note_off_c, 0, 74, 64
2, 695880, Note_on_c, 0, 76, 92
2, 695940, Note_off_c, 0, 76, 64
2, 695940, Note_on_c, 0, 74, 92
2, 696000, Note_off_c, 0, 74, 64
2, 696000, Note_on_c, 0, 76, 92
2, 696120, Note_off_c, 0, 76, 64
2, 696120, Note_on_c, 0, 74, 92
2, 696240, Note_off_c, 0, 74, 64
2, 696240, Note_on_c, 0, 68, 90
2, 696360, Note_off_c, 0, 68, 64
2, 696360, Note_on_c, 0, 71, 92
2, 696596, Note_off_c, 0, 71, 64
2, 696600, Note_on_c, 0, 74, 106
2, 696716, Note_off_c, 0, 74, 64
2, 696720, Note_on_c, 0, 73, 102
2, 696780, Note_off_c, 0, 73, 64
2, 696780, Note_on_c, 0, 74, 102
2, 696840, Note_off_c, 0, 74, 64
2, 696840, Note_on_c, 0, 76, 91
2, 696900, Note_off_c, 0, 76, 64
2, 696900, Note_on_c, 0, 74, 71
2, 696960, Note_off_c, 0, 74, 64
2, 696960, Note_on_c, 0, 76, 101
2, 697020, Note_off_c, 0, 76, 64
2, 697020, Note_on_c, 0, 74, 80
2, 697080, Note_off_c, 0, 74, 64
2, 697080, Note_on_c, 0, 76, 101
2, 697140, Note_off_c, 0, 76, 64
2, 697140, Note_on_c, 0, 74, 101
2, 697200, Note_off_c, 0, 74, 64
2, 697200, Note_on_c, 0, 76, 98
2, 697260, Note_off_c, 0, 76, 64
2, 697260, Note_on_c, 0, 74, 90
2, 697320, Note_off_c, 0, 74, 64
2, 697320, Note_on_c, 0, 76, 92
2, 697380, Note_off_c, 0, 76, 64
2, 697380, Note_on_c, 0, 74, 92
2, 697560, Note_off_c, 0, 74, 64
2, 697560, Note_on_c, 0, 76, 92
2, 697680, Note_off_c, 0, 76, 64
2, 697680, Note_on_c, 0, 79, 90
2, 697800, Note_off_c, 0, 79, 64
2, 697800, Note_on_c, 0, 73, 92
2, 697920, Note_off_c, 0, 73, 64
2, 697920, Note_on_c, 0, 76, 92
2, 698040, Note_off_c, 0, 76, 64
2, 698040, Note_on_c, 0, 79, 106
2, 698156, Note_off_c, 0, 79, 64
2, 698160, Note_on_c, 0, 78, 127
2, 698636, Note_off_c, 0, 78, 64
2, 698640, Note_on_c, 0, 74, 101
2, 698756, Note_off_c, 0, 74, 64
2, 698760, Note_on_c, 0, 69, 91
2, 698876, Note_off_c, 0, 69, 64
2, 698880, Note_on_c, 0, 66, 89
2, 698996, Note_off_c, 0, 66, 64
2, 699000, Note_on_c, 0, 62, 80
2, 699116, Note_off_c, 0, 62, 64
2, 699120, Note_on_c, 0, 66, 92
2, 699236, Note_off_c, 0, 66, 64
2, 699240, Note_on_c, 0, 69, 89
2, 699356, Note_off_c, 0, 69, 64
2, 699360, Note_on_c, 0, 73, 84
2, 699476, Note_off_c, 0, 73, 64
2, 699480, Note_on_c, 0, 74, 102
2, 699596, Note_off_c, 0, 74, 64
2, 700320, Note_on_c, 0, 81, 121
2, 700436, Note_off_c, 0, 81, 64
2, 700440, Note_on_c, 0, 79, 100
2, 700556, Note_off_c, 0, 79, 64
2, 700560, Note_on_c, 0, 78, 99
2, 700676, Note_off_c, 0, 78, 64
2, 700680, Note_on_c, 0, 76, 104
2, 700796, Note_off_c, 0, 76, 64
2, 700800, Note_on_c, 0, 74, 90
2, 700916, Note_off_c, 0, 74, 64
2, 700920, Note_on_c, 0, 72, 97
2, 701036, Note_off_c, 0, 72, 64
2, 701040, Note_on_c, 0, 71, 93
2, 701156, Note_off_c, 0, 71, 64
2, 701160, Note_on_c, 0, 69, 82
2, 701276, Note_off_c, 0, 69, 64
2, 701280, Note_on_c, 0, 67, 100
2, 701400, Note_off_c, 0, 67, 64
2, 701760, Note_on_c, 0, 86, 115
2, 701876, Note_off_c, 0, 86, 64
2, 701880, Note_on_c, 0, 84, 95
2, 701996, Note_off_c, 0, 84, 64
2, 702000, Note_on_c, 0, 83, 101
2, 702116, Note_off_c, 0, 83, 64
2, 702120, Note_on_c, 0, 81, 90
2, 702236, Note_off_c, 0, 81, 64
2, 702240, Note_on_c, 0, 79, 86
2, 702356, Note_off_c, 0, 79, 64
2, 702360, Note_on_c, 0, 77, 91
2, 702476, Note_off_c, 0, 77, 64
2, 702480, Note_on_c, 0, 76, 111
2, 702596, Note_off_c, 0, 76, 64
2, 702600, Note_on_c, 0, 74, 92
2, 702716, Note_off_c, 0, 74, 64
2, 702720, Note_on_c, 0, 72, 104
2, 702840, Note_off_c, 0, 72, 64
2, 702840, Note_on_c, 0, 71, 98
2, 702956, Note_off_c, 0, 71, 64
2, 702960, Note_on_c, 0, 69, 81
2, 703076, Note_off_c, 0, 69, 64
2, 703080, Note_on_c, 0, 67, 85
2, 703196, Note_off_c, 0, 67, 64
2, 703200, Note_on_c, 0, 66, 102
2, 703436, Note_off_c, 0, 66, 64
2, 703440, Note_on_c, 0, 75, 108
2, 703556, Note_off_c, 0, 75, 64
2, 703560, Note_on_c, 0, 76, 119
2, 703796, Note_off_c, 0, 76, 64
2, 703800, Note_on_c, 0, 70, 110
2, 703916, Note_off_c, 0, 70, 64
2, 703920, Note_on_c, 0, 71, 113
2, 704156, Note_off_c, 0, 71, 64
2, 704160, Note_on_c, 0, 63, 115
2, 704276, Note_off_c, 0, 63, 64
2, 704280, Note_on_c, 0, 66, 119
2, 704516, Note_off_c, 0, 66, 64
2, 704520, Note_on_c, 0, 69, 109
2, 704636, Note_off_c, 0, 69, 64
2, 704640, Note_on_c, 0, 72, 102
2, 704756, Note_off_c, 0, 72, 64
2, 704760, Note_on_c, 0, 71, 89
2, 704876, Note_off_c, 0, 71, 64
2, 704880, Note_on_c, 0, 69, 95
2, 704996, Note_off_c, 0, 69, 64
2, 705000, Note_on_c, 0, 67, 90
2, 705116, Note_off_c, 0, 67, 64
2, 705120, Note_on_c, 0, 69, 85
2, 705236, Note_off_c, 0, 69, 64
2, 705240, Note_on_c, 0, 66, 97
2, 705356, Note_off_c, 0, 66, 64
2, 705360, Note_on_c, 0, 64, 106
2, 705476, Note_off_c, 0, 64, 64
2, 705480, Note_on_c, 0, 67, 95
2, 705596, Note_off_c, 0, 67, 64
2, 705600, Note_on_c, 0, 71, 100
2, 705716, Note_off_c, 0, 71, 64
2, 705720, Note_on_c, 0, 76, 98
2, 705836, Note_off_c, 0, 76, 64
2, 705840, Note_on_c, 0, 79, 97
2, 705956, Note_off_c, 0, 79, 64
2, 705960, Note_on_c, 0, 83, 107
2, 706076, Note_off_c, 0, 83, 64
2, 706080, Note_on_c, 0, 79, 102
2, 706196, Note_off_c, 0, 79, 64
2, 706200, Note_on_c, 0, 76, 109
2, 706316, Note_off_c, 0, 76, 64
2, 706320, Note_on_c, 0, 71, 88
2, 706436, Note_off_c, 0, 71, 64
2, 706440, Note_on_c, 0, 67, 90
2, 706556, Note_off_c, 0, 67, 64
2, 706560, Note_on_c, 0, 66, 71
2, 706676, Note_off_c, 0, 66, 64
2, 706680, Note_on_c, 0, 64, 82
2, 706796, Note_off_c, 0, 64, 64
2, 706800, Note_on_c, 0, 65, 100
2, 706916, Note_off_c, 0, 65, 64
2, 706920, Note_on_c, 0, 69, 76
2, 707036, Note_off_c, 0, 69, 64
2, 707040, Note_on_c, 0, 72, 95
2, 707156, Note_off_c, 0, 72, 64
2, 707160, Note_on_c, 0, 77, 98
2, 707276, Note_off_c, 0, 77, 64
2, 707280, Note_on_c, 0, 81, 86
2, 707396, Note_off_c, 0, 81, 64
2, 707400, Note_on_c, 0, 84, 109
2, 707516, Note_off_c, 0, 84, 64
2, 707520, Note_on_c, 0, 81, 104
2, 707636, Note_off_c, 0, 81, 64
2, 707640, Note_on_c, 0, 77, 77
2, 707756, Note_off_c, 0, 77, 64
2, 707760, Note_on_c, 0, 72, 98
2, 707876, Note_off_c, 0, 72, 64
2, 707880, Note_on_c, 0, 69, 80
2, 707996, Note_off_c, 0, 69, 64
2, 708000, Note_on_c, 0, 67, 69
2, 708116, Note_off_c, 0, 67, 64
2, 708120, Note_on_c, 0, 66, 104
2, 708236, Note_off_c, 0, 66, 64
2, 708240, Note_on_c, 0, 67, 95
2, 708356, Note_off_c, 0, 67, 64
2, 708360, Note_on_c, 0, 71, 83
2, 708476, Note_off_c, 0, 71, 64
2, 708480, Note_on_c, 0, 76, 100
2, 708596, Note_off_c, 0, 76, 64
2, 708600, Note_on_c, 0, 79, 93
2, 708716, Note_off_c, 0, 79, 64
2, 708720, Note_on_c, 0, 76, 90
2, 708836, Note_off_c, 0, 76, 64
2, 708840, Note_on_c, 0, 84, 109
2, 708956, Note_off_c, 0, 84, 64
2, 708960, Note_on_c, 0, 83, 104
2, 709076, Note_off_c, 0, 83, 64
2, 709080, Note_on_c, 0, 81, 104
2, 709196, Note_off_c, 0, 81, 64
2, 709200, Note_on_c, 0, 79, 95
2, 709316, Note_off_c, 0, 79, 64
2, 709320, Note_on_c, 0, 78, 104
2, 709436, Note_off_c, 0, 78, 64
2, 709440, Note_on_c, 0, 76, 93
2, 709556, Note_off_c, 0, 76, 64
2, 709560, Note_on_c, 0, 75, 108
2, 709676, Note_off_c, 0, 75, 64
2, 709680, Note_on_c, 0, 76, 101
2, 709796, Note_off_c, 0, 76, 64
2, 709800, Note_on_c, 0, 79, 96
2, 709916, Note_off_c, 0, 79, 64
2, 709920, Note_on_c, 0, 76, 96
2, 710036, Note_off_c, 0, 76, 64
2, 710040, Note_on_c, 0, 71, 93
2, 710156, Note_off_c, 0, 71, 64
2, 710160, Note_on_c, 0, 67, 61
2, 710276, Note_off_c, 0, 67, 64
2, 710280, Note_on_c, 0, 66, 97
2, 710396, Note_off_c, 0, 66, 64
2, 710400, Note_on_c, 0, 67, 102
2, 710516, Note_off_c, 0, 67, 64
2, 710520, Note_on_c, 0, 64, 86
2, 710636, Note_off_c, 0, 64, 64
2, 710640, Note_on_c, 0, 67, 83
2, 710756, Note_off_c, 0, 67, 64
2, 710760, Note_on_c, 0, 71, 91
2, 710876, Note_off_c, 0, 71, 64
2, 710880, Note_on_c, 0, 76, 92
2, 710996, Note_off_c, 0, 76, 64
2, 711000, Note_on_c, 0, 75, 82
2, 711116, Note_off_c, 0, 75, 64
2, 711120, Note_on_c, 0, 76, 96
2, 711236, Note_off_c, 0, 76, 64
2, 711240, Note_on_c, 0, 74, 95
2, 711356, Note_off_c, 0, 74, 64
2, 711360, Note_on_c, 0, 72, 86
2, 711476, Note_off_c, 0, 72, 64
2, 711480, Note_on_c, 0, 71, 81
2, 711596, Note_off_c, 0, 71, 64
2, 711600, Note_on_c, 0, 69, 75
2, 711716, Note_off_c, 0, 69, 64
2, 711720, Note_on_c, 0, 67, 80
2, 711836, Note_off_c, 0, 67, 64
2, 711840, Note_on_c, 0, 66, 102
2, 712436, Note_off_c, 0, 66, 64
2, 712440, Note_on_c, 0, 69, 93
2, 712556, Note_off_c, 0, 69, 64
2, 712560, Note_on_c, 0, 74, 100
2, 712680, Note_off_c, 0, 74, 64
2, 712680, Note_on_c, 0, 72, 100
2, 712800, Note_off_c, 0, 72, 64
2, 712800, Note_on_c, 0, 71, 100
2, 712920, Note_off_c, 0, 71, 64
2, 712920, Note_on_c, 0, 69, 100
2, 713040, Note_off_c, 0, 69, 64
2, 713040, Note_on_c, 0, 67, 101
2, 713156, Note_off_c, 0, 67, 64
2, 713160, Note_on_c, 0, 66, 106
2, 713276, Note_off_c, 0, 66, 64
2, 713280, Note_on_c, 0, 64, 102
2, 713876, Note_off_c, 0, 64, 64
2, 713880, Note_on_c, 0, 74, 113
2, 713996, Note_off_c, 0, 74, 64
2, 714000, Note_on_c, 0, 72, 101
2, 714116, Note_off_c, 0, 72, 64
2, 714120, Note_on_c, 0, 71, 86
2, 714236, Note_off_c, 0, 71, 64
2, 714240, Note_on_c, 0, 69, 67
2, 714356, Note_off_c, 0, 69, 64
2, 714360, Note_on_c, 0, 67, 74
2, 714476, Note_off_c, 0, 67, 64
2, 714480, Note_on_c, 0, 66, 82
2, 714596, Note_off_c, 0, 66, 64
2, 714600, Note_on_c, 0, 64, 77
2, 714716, Note_off_c, 0, 64, 64
2, 714720, Note_on_c, 0, 66, 92
2, 714836, Note_off_c, 0, 66, 64
2, 714840, Note_on_c, 0, 64, 83
2, 714956, Note_off_c, 0, 64, 64
2, 714960, Note_on_c, 0, 62, 90
2, 715076, Note_off_c, 0, 62, 64
2, 715080, Note_on_c, 0, 61, 99
2, 715196, Note_off_c, 0, 61, 64
2, 715200, Note_on_c, 0, 62, 100
2, 715316, Note_off_c, 0, 62, 64
2, 715320, Note_on_c, 0, 64, 101
2, 715436, Note_off_c, 0, 64, 64
2, 715440, Note_on_c, 0, 66, 99
2, 715556, Note_off_c, 0, 66, 64
2, 715560, Note_on_c, 0, 64, 93
2, 715676, Note_off_c, 0, 64, 64
2, 715680, Note_on_c, 0, 62, 83
2, 715796, Note_off_c, 0, 62, 64
2, 715800, Note_on_c, 0, 60, 93
2, 715916, Note_off_c, 0, 60, 64
2, 715920, Note_on_c, 0, 59, 85
2, 716036, Note_off_c, 0, 59, 64
2, 716040, Note_on_c, 0, 57, 84
2, 716156, Note_off_c, 0, 57, 64
2, 716160, Note_on_c, 0, 59, 106
2, 716276, Note_off_c, 0, 59, 64
2, 716280, Note_on_c, 0, 57, 89
2, 716396, Note_off_c, 0, 57, 64
2, 716400, Note_on_c, 0, 55, 75
2, 716516, Note_off_c, 0, 55, 64
2, 716520, Note_on_c, 0, 54, 102
2, 716636, Note_off_c, 0, 54, 64
2, 716640, Note_on_c, 0, 55, 96
2, 716756, Note_off_c, 0, 55, 64
2, 716760, Note_on_c, 0, 57, 97
2, 716876, Note_off_c, 0, 57, 64
2, 716880, Note_on_c, 0, 59, 111
2, 716996, Note_off_c, 0, 59, 64
2, 717000, Note_on_c, 0, 57, 92
2, 717116, Note_off_c, 0, 57, 64
2, 717120, Note_on_c, 0, 55, 92
2, 717236, Note_off_c, 0, 55, 64
2, 717240, Note_on_c, 0, 53, 101
2, 717356, Note_off_c, 0, 53, 64
2, 717360, Note_on_c, 0, 52, 91
2, 717476, Note_off_c, 0, 52, 64
2, 717480, Note_on_c, 0, 50, 83
2, 717596, Note_off_c, 0, 50, 64
2, 717600, Note_on_c, 0, 52, 107
2, 717716, Note_off_c, 0, 52, 64
2, 717720, Note_on_c, 0, 50, 88
2, 717836, Note_off_c, 0, 50, 64
2, 717840, Note_on_c, 0, 48, 88
2, 717956, Note_off_c, 0, 48, 64
2, 717960, Note_on_c, 0, 47, 90
2, 718076, Note_off_c, 0, 47, 64
2, 718080, Note_on_c, 0, 48, 93
2, 718196, Note_off_c, 0, 48, 64
2, 718200, Note_on_c, 0, 50, 93
2, 718316, Note_off_c, 0, 50, 64
2, 718320, Note_on_c, 0, 52, 100
2, 718436, Note_off_c, 0, 52, 64
2, 718440, Note_on_c, 0, 48, 84
2, 718556, Note_off_c, 0, 48, 64
2, 718560, Note_on_c, 0, 52, 75
2, 718676, Note_off_c, 0, 52, 64
2, 718680, Note_on_c, 0, 57, 91
2, 718796, Note_off_c, 0, 57, 64
2, 718800, Note_on_c, 0, 60, 102
2, 718916, Note_off_c, 0, 60, 64
2, 718920, Note_on_c, 0, 64, 104
2, 719036, Note_off_c, 0, 64, 64
2, 719040, Note_on_c, 0, 60, 96
2, 719156, Note_off_c, 0, 60, 64
2, 719160, Note_on_c, 0, 57, 82
2, 719276, Note_off_c, 0, 57, 64
2, 719280, Note_on_c, 0, 60, 92
2, 719396, Note_off_c, 0, 60, 64
2, 719400, Note_on_c, 0, 64, 97
2, 719516, Note_off_c, 0, 64, 64
2, 719520, Note_on_c, 0, 69, 104
2, 719636, Note_off_c, 0, 69, 64
2, 719640, Note_on_c, 0, 72, 109
2, 719756, Note_off_c, 0, 72, 64
2, 719760, Note_on_c, 0, 66, 106
2, 719876, Note_off_c, 0, 66, 64
2, 719880, Note_on_c, 0, 62, 88
2, 719996, Note_off_c, 0, 62, 64
2, 720000, Note_on_c, 0, 66, 92
2, 720120, Note_off_c, 0, 66, 64
2, 720120, Note_on_c, 0, 69, 92
2, 720240, Note_off_c, 0, 69, 64
2, 720240, Note_on_c, 0, 74, 102
2, 720356, Note_off_c, 0, 74, 64
2, 720360, Note_on_c, 0, 78, 59
2, 720476, Note_off_c, 0, 78, 64
2, 720480, Note_on_c, 0, 74, 96
2, 720596, Note_off_c, 0, 74, 64
2, 720600, Note_on_c, 0, 69, 80
2, 720716, Note_off_c, 0, 69, 64
2, 720720, Note_on_c, 0, 74, 95
2, 720836, Note_off_c, 0, 74, 64
2, 720840, Note_on_c, 0, 78, 86
2, 720956, Note_off_c, 0, 78, 64
2, 720960, Note_on_c, 0, 81, 92
2, 721076, Note_off_c, 0, 81, 64
2, 721080, Note_on_c, 0, 84, 101
2, 721196, Note_off_c, 0, 84, 64
2, 721200, Note_on_c, 0, 83, 102
2, 721316, Note_off_c, 0, 83, 64
2, 721320, Note_on_c, 0, 79, 86
2, 721436, Note_off_c, 0, 79, 64
2, 721440, Note_on_c, 0, 74, 81
2, 721556, Note_off_c, 0, 74, 64
2, 721560, Note_on_c, 0, 71, 96
2, 721676, Note_off_c, 0, 71, 64
2, 721680, Note_on_c, 0, 67, 91
2, 721796, Note_off_c, 0, 67, 64
2, 721800, Note_on_c, 0, 66, 97
2, 721916, Note_off_c, 0, 66, 64
2, 721920, Note_on_c, 0, 67, 100
2, 722036, Note_off_c, 0, 67, 64
2, 722040, Note_on_c, 0, 71, 97
2, 722156, Note_off_c, 0, 71, 64
2, 722160, Note_on_c, 0, 74, 104
2, 722276, Note_off_c, 0, 74, 64
2, 722280, Note_on_c, 0, 79, 115
2, 722636, Note_off_c, 0, 79, 64
2, 724320, Note_on_c, 0, 67, 107
2, 724436, Note_off_c, 0, 67, 64
2, 724440, Note_on_c, 0, 66, 106
2, 724556, Note_off_c, 0, 66, 64
2, 724560, Note_on_c, 0, 67, 111
2, 724796, Note_off_c, 0, 67, 64
2, 724800, Note_on_c, 0, 69, 98
2, 724916, Note_off_c, 0, 69, 64
2, 724920, Note_on_c, 0, 71, 109
2, 725036, Note_off_c, 0, 71, 64
2, 725040, Note_on_c, 0, 72, 106
2, 725156, Note_off_c, 0, 72, 64
2, 725160, Note_on_c, 0, 71, 104
2, 725276, Note_off_c, 0, 71, 64
2, 725280, Note_on_c, 0, 69, 96
2, 725396, Note_off_c, 0, 69, 64
2, 725400, Note_on_c, 0, 67, 91
2, 725516, Note_off_c, 0, 67, 64
2, 725520, Note_on_c, 0, 74, 97
2, 725636, Note_off_c, 0, 74, 64
2, 725640, Note_on_c, 0, 69, 88
2, 725756, Note_off_c, 0, 69, 64
2, 725760, Note_on_c, 0, 71, 91
2, 725876, Note_off_c, 0, 71, 64
2, 725880, Note_on_c, 0, 73, 108
2, 725996, Note_off_c, 0, 73, 64
2, 726000, Note_on_c, 0, 74, 101
2, 726116, Note_off_c, 0, 74, 64
2, 726120, Note_on_c, 0, 76, 106
2, 726236, Note_off_c, 0, 76, 64
2, 726240, Note_on_c, 0, 78, 104
2, 726356, Note_off_c, 0, 78, 64
2, 726360, Note_on_c, 0, 79, 115
2, 726476, Note_off_c, 0, 79, 64
2, 726480, Note_on_c, 0, 81, 109
2, 726720, Note_off_c, 0, 81, 64
2, 727200, Note_on_c, 0, 79, 101
2, 727316, Note_off_c, 0, 79, 64
2, 727320, Note_on_c, 0, 78, 82
2, 727436, Note_off_c, 0, 78, 64
2, 727440, Note_on_c, 0, 76, 100
2, 727556, Note_off_c, 0, 76, 64
2, 727560, Note_on_c, 0, 74, 95
2, 727676, Note_off_c, 0, 74, 64
2, 727680, Note_on_c, 0, 73, 92
2, 727796, Note_off_c, 0, 73, 64
2, 727800, Note_on_c, 0, 71, 95
2, 727916, Note_off_c, 0, 71, 64
2, 727920, Note_on_c, 0, 69, 93
2, 728036, Note_off_c, 0, 69, 64
2, 728040, Note_on_c, 0, 67, 101
2, 728156, Note_off_c, 0, 67, 64
2, 728160, Note_on_c, 0, 66, 108
2, 728276, Note_off_c, 0, 66, 64
2, 728280, Note_on_c, 0, 67, 96
2, 728396, Note_off_c, 0, 67, 64
2, 728400, Note_on_c, 0, 67, 89
2, 728460, Note_off_c, 0, 67, 64
2, 728460, Note_on_c, 0, 66, 89
2, 728520, Note_off_c, 0, 66, 64
2, 728520, Note_on_c, 0, 64, 71
2, 728580, Note_off_c, 0, 64, 64
2, 728580, Note_on_c, 0, 66, 93
2, 728640, Note_off_c, 0, 66, 64
2, 728640, Note_on_c, 0, 62, 109
2, 728880, Note_off_c, 0, 62, 64
2, 730080, Note_on_c, 0, 74, 115
2, 730440, Note_off_c, 0, 74, 64
2, 730440, Note_on_c, 0, 71, 101
2, 730556, Note_off_c, 0, 71, 64
2, 730560, Note_on_c, 0, 69, 90
2, 730676, Note_off_c, 0, 69, 64
2, 730680, Note_on_c, 0, 67, 88
2, 730796, Note_off_c, 0, 67, 64
2, 730800, Note_on_c, 0, 65, 97
2, 730916, Note_off_c, 0, 65, 64
2, 730920, Note_on_c, 0, 64, 90
2, 731036, Note_off_c, 0, 64, 64
2, 731040, Note_on_c, 0, 62, 93
2, 731156, Note_off_c, 0, 62, 64
2, 731160, Note_on_c, 0, 65, 91
2, 731276, Note_off_c, 0, 65, 64
2, 731280, Note_on_c, 0, 64, 102
2, 731396, Note_off_c, 0, 64, 64
2, 731400, Note_on_c, 0, 67, 101
2, 731516, Note_off_c, 0, 67, 64
2, 731520, Note_on_c, 0, 72, 95
2, 731636, Note_off_c, 0, 72, 64
2, 731640, Note_on_c, 0, 74, 104
2, 731756, Note_off_c, 0, 74, 64
2, 731760, Note_on_c, 0, 76, 107
2, 731996, Note_off_c, 0, 76, 64
2, 732000, Note_on_c, 0, 69, 107
2, 732476, Note_off_c, 0, 69, 64
2, 732480, Note_on_c, 0, 69, 83
2, 732836, Note_off_c, 0, 69, 64
2, 732840, Note_on_c, 0, 71, 83
2, 732956, Note_off_c, 0, 71, 64
2, 732960, Note_on_c, 0, 66, 68
2, 733076, Note_off_c, 0, 66, 64
2, 733080, Note_on_c, 0, 67, 72
2, 733196, Note_off_c, 0, 67, 64
2, 733200, Note_on_c, 0, 69, 73
2, 733316, Note_off_c, 0, 69, 64
2, 733320, Note_on_c, 0, 67, 69
2, 733436, Note_off_c, 0, 67, 64
2, 733440, Note_on_c, 0, 66, 84
2, 733556, Note_off_c, 0, 66, 64
2, 733560, Note_on_c, 0, 76, 109
2, 733676, Note_off_c, 0, 76, 64
2, 733680, Note_on_c, 0, 74, 109
2, 733796, Note_off_c, 0, 74, 64
2, 733800, Note_on_c, 0, 72, 109
2, 733916, Note_off_c, 0, 72, 64
2, 733920, Note_on_c, 0, 71, 88
2, 734036, Note_off_c, 0, 71, 64
2, 734040, Note_on_c, 0, 69, 83
2, 734156, Note_off_c, 0, 69, 64
2, 734160, Note_on_c, 0, 67, 98
2, 734640, Note_off_c, 0, 67, 64
2, 735720, Note_on_c, 0, 66, 121
2, 735836, Note_off_c, 0, 66, 64
2, 735840, Note_on_c, 0, 67, 104
2, 735956, Note_off_c, 0, 67, 64
2, 735960, Note_on_c, 0, 69, 101
2, 736076, Note_off_c, 0, 69, 64
2, 736080, Note_on_c, 0, 71, 101
2, 736196, Note_off_c, 0, 71, 64
2, 736200, Note_on_c, 0, 73, 101
2, 736316, Note_off_c, 0, 73, 64
2, 736320, Note_on_c, 0, 74, 97
2, 736436, Note_off_c, 0, 74, 64
2, 736440, Note_on_c, 0, 78, 110
2, 736556, Note_off_c, 0, 78, 64
2, 736560, Note_on_c, 0, 76, 113
2, 736676, Note_off_c, 0, 76, 64
2, 736680, Note_on_c, 0, 74, 102
2, 736796, Note_off_c, 0, 74, 64
2, 736800, Note_on_c, 0, 73, 94
2, 736916, Note_off_c, 0, 73, 64
2, 736920, Note_on_c, 0, 71, 106
2, 737036, Note_off_c, 0, 71, 64
2, 737040, Note_on_c, 0, 69, 111
2, 737156, Note_off_c, 0, 69, 64
2, 737160, Note_on_c, 0, 67, 89
2, 737276, Note_off_c, 0, 67, 64
2, 737280, Note_on_c, 0, 66, 101
2, 737396, Note_off_c, 0, 66, 64
2, 737400, Note_on_c, 0, 64, 96
2, 737516, Note_off_c, 0, 64, 64
2, 737520, Note_on_c, 0, 62, 107
2, 737760, Note_off_c, 0, 62, 64
2, 738720, Note_on_c, 0, 73, 127
2, 739076, Note_off_c, 0, 73, 64
2, 739080, Note_on_c, 0, 71, 104
2, 739196, Note_off_c, 0, 71, 64
2, 739200, Note_on_c, 0, 69, 102
2, 739316, Note_off_c, 0, 69, 64
2, 739320, Note_on_c, 0, 71, 113
2, 739436, Note_off_c, 0, 71, 64
2, 739440, Note_on_c, 0, 73, 119
2, 739556, Note_off_c, 0, 73, 64
2, 739560, Note_on_c, 0, 74, 98
2, 739676, Note_off_c, 0, 74, 64
2, 739680, Note_on_c, 0, 76, 111
2, 739796, Note_off_c, 0, 76, 64
2, 739800, Note_on_c, 0, 78, 99
2, 739916, Note_off_c, 0, 78, 64
2, 739920, Note_on_c, 0, 79, 117
2, 740156, Note_off_c, 0, 79, 64
2, 740160, Note_on_c, 0, 67, 106
2, 740276, Note_off_c, 0, 67, 64
2, 740280, Note_on_c, 0, 66, 106
2, 740396, Note_off_c, 0, 66, 64
2, 740400, Note_on_c, 0, 67, 113
2, 740996, Note_off_c, 0, 67, 64
2, 741000, Note_on_c, 0, 71, 123
2, 741116, Note_off_c, 0, 71, 64
2, 741120, Note_on_c, 0, 69, 102
2, 741236, Note_off_c, 0, 69, 64
2, 741240, Note_on_c, 0, 67, 96
2, 741356, Note_off_c, 0, 67, 64
2, 741360, Note_on_c, 0, 66, 110
2, 741476, Note_off_c, 0, 66, 64
2, 741480, Note_on_c, 0, 64, 104
2, 741596, Note_off_c, 0, 64, 64
2, 741600, Note_on_c, 0, 66, 106
2, 741716, Note_off_c, 0, 66, 64
2, 741720, Note_on_c, 0, 67, 91
2, 741836, Note_off_c, 0, 67, 64
2, 741840, Note_on_c, 0, 66, 104
2, 741956, Note_off_c, 0, 66, 64
2, 741960, Note_on_c, 0, 69, 92
2, 742076, Note_off_c, 0, 69, 64
2, 742080, Note_on_c, 0, 67, 99
2, 742196, Note_off_c, 0, 67, 64
2, 742200, Note_on_c, 0, 66, 88
2, 742316, Note_off_c, 0, 66, 64
2, 742320, Note_on_c, 0, 64, 117
2, 743036, Note_off_c, 0, 64, 64
2, 743040, Note_on_c, 0, 74, 117
2, 743276, Note_off_c, 0, 74, 64
2, 743280, Note_on_c, 0, 73, 115
2, 743516, Note_off_c, 0, 73, 64
2, 743520, Note_on_c, 0, 71, 109
2, 743756, Note_off_c, 0, 71, 64
2, 743760, Note_on_c, 0, 69, 109
2, 743996, Note_off_c, 0, 69, 64
2, 744000, Note_on_c, 0, 78, 123
2, 744236, Note_off_c, 0, 78, 64
2, 744240, Note_on_c, 0, 67, 117
2, 744956, Note_off_c, 0, 67, 64
2, 744960, Note_on_c, 0, 66, 104
2, 745196, Note_off_c, 0, 66, 64
2, 745200, Note_on_c, 0, 64, 106
2, 745316, Note_off_c, 0, 64, 64
2, 745320, Note_on_c, 0, 69, 100
2, 745436, Note_off_c, 0, 69, 64
2, 745440, Note_on_c, 0, 67, 117
2, 745920, Note_off_c, 0, 67, 64
2, 745920, Note_on_c, 0, 66, 101
2, 746036, Note_off_c, 0, 66, 64
2, 746040, Note_on_c, 0, 64, 102
2, 746156, Note_off_c, 0, 64, 64
2, 746160, Note_on_c, 0, 66, 108
2, 746280, Note_off_c, 0, 66, 64
2, 746280, Note_on_c, 0, 74, 123
2, 746520, Note_off_c, 0, 74, 64
2, 746520, Note_on_c, 0, 73, 108
2, 746636, Note_off_c, 0, 73, 64
2, 746640, Note_on_c, 0, 74, 123
2, 746880, Note_off_c, 0, 74, 64
2, 747360, Note_on_c, 0, 67, 107
2, 747476, Note_off_c, 0, 67, 64
2, 747480, Note_on_c, 0, 66, 106
2, 747596, Note_off_c, 0, 66, 64
2, 747600, Note_on_c, 0, 67, 111
2, 747836, Note_off_c, 0, 67, 64
2, 747840, Note_on_c, 0, 69, 98
2, 747956, Note_off_c, 0, 69, 64
2, 747960, Note_on_c, 0, 71, 109
2, 748076, Note_off_c, 0, 71, 64
2, 748080, Note_on_c, 0, 72, 106
2, 748196, Note_off_c, 0, 72, 64
2, 748200, Note_on_c, 0, 71, 104
2, 748316, Note_off_c, 0, 71, 64
2, 748320, Note_on_c, 0, 69, 96
2, 748436, Note_off_c, 0, 69, 64
2, 748440, Note_on_c, 0, 67, 91
2, 748556, Note_off_c, 0, 67, 64
2, 748560, Note_on_c, 0, 74, 97
2, 748676, Note_off_c, 0, 74, 64
2, 748680, Note_on_c, 0, 69, 88
2, 748796, Note_off_c, 0, 69, 64
2, 748800, Note_on_c, 0, 71, 91
2, 748916, Note_off_c, 0, 71, 64
2, 748920, Note_on_c, 0, 73, 108
2, 749036, Note_off_c, 0, 73, 64
2, 749040, Note_on_c, 0, 74, 101
2, 749156, Note_off_c, 0, 74, 64
2, 749160, Note_on_c, 0, 76, 106
2, 749276, Note_off_c, 0, 76, 64
2, 749280, Note_on_c, 0, 78, 104
2, 749396, Note_off_c, 0, 78, 64
2, 749400, Note_on_c, 0, 79, 115
2, 749516, Note_off_c, 0, 79, 64
2, 749520, Note_on_c, 0, 81, 109
2, 749760, Note_off_c, 0, 81, 64
2, 750240, Note_on_c, 0, 79, 101
2, 750356, Note_off_c, 0, 79, 64
2, 750360, Note_on_c, 0, 78, 82
2, 750476, Note_off_c, 0, 78, 64
2, 750480, Note_on_c, 0, 76, 100
2, 750596, Note_off_c, 0, 76, 64
2, 750600, Note_on_c, 0, 74, 95
2, 750716, Note_off_c, 0, 74, 64
2, 750720, Note_on_c, 0, 73, 92
2, 750836, Note_off_c, 0, 73, 64
2, 750840, Note_on_c, 0, 71, 95
2, 750956, Note_off_c, 0, 71, 64
2, 750960, Note_on_c, 0, 69, 93
2, 751076, Note_off_c, 0, 69, 64
2, 751080, Note_on_c, 0, 67, 101
2, 751196, Note_off_c, 0, 67, 64
2, 751200, Note_on_c, 0, 66, 108
2, 751316, Note_off_c, 0, 66, 64
2, 751320, Note_on_c, 0, 67, 96
2, 751436, Note_off_c, 0, 67, 64
2, 751440, Note_on_c, 0, 67, 89
2, 751500, Note_off_c, 0, 67, 64
2, 751500, Note_on_c, 0, 66, 89
2, 751560, Note_off_c, 0, 66, 64
2, 751560, Note_on_c, 0, 64, 71
2, 751620, Note_off_c, 0, 64, 64
2, 751620, Note_on_c, 0, 66, 93
2, 751680, Note_off_c, 0, 66, 64
2, 751680, Note_on_c, 0, 62, 109
2, 751920, Note_off_c, 0, 62, 64
2, 753120, Note_on_c, 0, 74, 115
2, 753480, Note_off_c, 0, 74, 64
2, 753480, Note_on_c, 0, 71, 101
2, 753596, Note_off_c, 0, 71, 64
2, 753600, Note_on_c, 0, 69, 90
2, 753716, Note_off_c, 0, 69, 64
2, 753720, Note_on_c, 0, 67, 88
2, 753836, Note_off_c, 0, 67, 64
2, 753840, Note_on_c, 0, 65, 97
2, 753956, Note_off_c, 0, 65, 64
2, 753960, Note_on_c, 0, 64, 90
2, 754076, Note_off_c, 0, 64, 64
2, 754080, Note_on_c, 0, 62, 93
2, 754196, Note_off_c, 0, 62, 64
2, 754200, Note_on_c, 0, 65, 91
2, 754316, Note_off_c, 0, 65, 64
2, 754320, Note_on_c, 0, 64, 102
2, 754436, Note_off_c, 0, 64, 64
2, 754440, Note_on_c, 0, 67, 101
2, 754556, Note_off_c, 0, 67, 64
2, 754560, Note_on_c, 0, 72, 95
2, 754676, Note_off_c, 0, 72, 64
2, 754680, Note_on_c, 0, 74, 104
2, 754796, Note_off_c, 0, 74, 64
2, 754800, Note_on_c, 0, 76, 107
2, 755036, Note_off_c, 0, 76, 64
2, 755040, Note_on_c, 0, 69, 107
2, 755516, Note_off_c, 0, 69, 64
2, 755520, Note_on_c, 0, 69, 83
2, 755876, Note_off_c, 0, 69, 64
2, 755880, Note_on_c, 0, 71, 83
2, 755996, Note_off_c, 0, 71, 64
2, 756000, Note_on_c, 0, 66, 68
2, 756116, Note_off_c, 0, 66, 64
2, 756120, Note_on_c, 0, 67, 72
2, 756236, Note_off_c, 0, 67, 64
2, 756240, Note_on_c, 0, 69, 73
2, 756356, Note_off_c, 0, 69, 64
2, 756360, Note_on_c, 0, 67, 69
2, 756476, Note_off_c, 0, 67, 64
2, 756480, Note_on_c, 0, 66, 84
2, 756596, Note_off_c, 0, 66, 64
2, 756600, Note_on_c, 0, 76, 109
2, 756716, Note_off_c, 0, 76, 64
2, 756720, Note_on_c, 0, 74, 109
2, 756836, Note_off_c, 0, 74, 64
2, 756840, Note_on_c, 0, 72, 109
2, 756956, Note_off_c, 0, 72, 64
2, 756960, Note_on_c, 0, 71, 88
2, 757076, Note_off_c, 0, 71, 64
2, 757080, Note_on_c, 0, 69, 83
2, 757196, Note_off_c, 0, 69, 64
2, 757200, Note_on_c, 0, 67, 98
2, 757680, Note_off_c, 0, 67, 64
2, 758760, Note_on_c, 0, 66, 121
2, 758876, Note_off_c, 0, 66, 64
2, 758880, Note_on_c, 0, 67, 104
2, 758996, Note_off_c, 0, 67, 64
2, 759000, Note_on_c, 0, 69, 101
2, 759116, Note_off_c, 0, 69, 64
2, 759120, Note_on_c, 0, 71, 101
2, 759236, Note_off_c, 0, 71, 64
2, 759240, Note_on_c, 0, 73, 101
2, 759356, Note_off_c, 0, 73, 64
2, 759360, Note_on_c, 0, 74, 97
2, 759476, Note_off_c, 0, 74, 64
2, 759480, Note_on_c, 0, 78, 110
2, 759596, Note_off_c, 0, 78, 64
2, 759600, Note_on_c, 0, 76, 113
2, 759716, Note_off_c, 0, 76, 64
2, 759720, Note_on_c, 0, 74, 102
2, 759836, Note_off_c, 0, 74, 64
2, 759840, Note_on_c, 0, 73, 94
2, 759956, Note_off_c, 0, 73, 64
2, 759960, Note_on_c, 0, 71, 106
2, 760076, Note_off_c, 0, 71, 64
2, 760080, Note_on_c, 0, 69, 111
2, 760196, Note_off_c, 0, 69, 64
2, 760200, Note_on_c, 0, 67, 89
2, 760316, Note_off_c, 0, 67, 64
2, 760320, Note_on_c, 0, 66, 101
2, 760436, Note_off_c, 0, 66, 64
2, 760440, Note_on_c, 0, 64, 96
2, 760556, Note_off_c, 0, 64, 64
2, 760560, Note_on_c, 0, 62, 107
2, 760800, Note_off_c, 0, 62, 64
2, 761760, Note_on_c, 0, 73, 127
2, 762116, Note_off_c, 0, 73, 64
2, 762120, Note_on_c, 0, 71, 104
2, 762236, Note_off_c, 0, 71, 64
2, 762240, Note_on_c, 0, 69, 102
2, 762356, Note_off_c, 0, 69, 64
2, 762360, Note_on_c, 0, 71, 113
2, 762476, Note_off_c, 0, 71, 64
2, 762480, Note_on_c, 0, 73, 119
2, 762596, Note_off_c, 0, 73, 64
2, 762600, Note_on_c, 0, 74, 98
2, 762716, Note_off_c, 0, 74, 64
2, 762720, Note_on_c, 0, 76, 111
2, 762836, Note_off_c, 0, 76, 64
2, 762840, Note_on_c, 0, 78, 99
2, 762956, Note_off_c, 0, 78, 64
2, 762960, Note_on_c, 0, 79, 117
2, 763196, Note_off_c, 0, 79, 64
2, 763200, Note_on_c, 0, 67, 106
2, 763316, Note_off_c, 0, 67, 64
2, 763320, Note_on_c, 0, 66, 106
2, 763436, Note_off_c, 0, 66, 64
2, 763440, Note_on_c, 0, 67, 113
2, 764036, Note_off_c, 0, 67, 64
2, 764040, Note_on_c, 0, 71, 123
2, 764156, Note_off_c, 0, 71, 64
2, 764160, Note_on_c, 0, 69, 102
2, 764276, Note_off_c, 0, 69, 64
2, 764280, Note_on_c, 0, 67, 96
2, 764396, Note_off_c, 0, 67, 64
2, 764400, Note_on_c, 0, 66, 110
2, 764516, Note_off_c, 0, 66, 64
2, 764520, Note_on_c, 0, 64, 104
2, 764636, Note_off_c, 0, 64, 64
2, 764640, Note_on_c, 0, 66, 106
2, 764756, Note_off_c, 0, 66, 64
2, 764760, Note_on_c, 0, 67, 91
2, 764876, Note_off_c, 0, 67, 64
2, 764880, Note_on_c, 0, 66, 104
2, 764996, Note_off_c, 0, 66, 64
2, 765000, Note_on_c, 0, 69, 92
2, 765116, Note_off_c, 0, 69, 64
2, 765120, Note_on_c, 0, 67, 99
2, 765236, Note_off_c, 0, 67, 64
2, 765240, Note_on_c, 0, 66, 88
2, 765356, Note_off_c, 0, 66, 64
2, 765360, Note_on_c, 0, 64, 117
2, 766076, Note_off_c, 0, 64, 64
2, 766080, Note_on_c, 0, 74, 117
2, 766316, Note_off_c, 0, 74, 64
2, 766320, Note_on_c, 0, 73, 115
2, 766556, Note_off_c, 0, 73, 64
2, 766560, Note_on_c, 0, 71, 109
2, 766796, Note_off_c, 0, 71, 64
2, 766800, Note_on_c, 0, 69, 109
2, 767036, Note_off_c, 0, 69, 64
2, 767040, Note_on_c, 0, 78, 123
2, 767276, Note_off_c, 0, 78, 64
2, 767280, Note_on_c, 0, 67, 117
2, 767996, Note_off_c, 0, 67, 64
2, 768000, Note_on_c, 0, 66, 104
2, 768236, Note_off_c, 0, 66, 64
2, 768240, Note_on_c, 0, 64, 106
2, 768356, Note_off_c, 0, 64, 64
2, 768360, Note_on_c, 0, 69, 100
2, 768476, Note_off_c, 0, 69, 64
2, 768480, Note_on_c, 0, 67, 117
2, 768960, Note_off_c, 0, 67, 64
2, 768960, Note_on_c, 0, 66, 101
2, 769076, Note_off_c, 0, 66, 64
2, 769080, Note_on_c, 0, 64, 102
2, 769196, Note_off_c, 0, 64, 64
2, 769200, Note_on_c, 0, 66, 108
2, 769320, Note_off_c, 0, 66, 64
2, 769320, Note_on_c, 0, 74, 123
2, 769560, Note_off_c, 0, 74, 64
2, 769560, Note_on_c, 0, 73, 108
2, 769676, Note_off_c, 0, 73, 64
2, 769680, Note_on_c, 0, 74, 123
2, 769920, Note_off_c, 0, 74, 64
2, 771840, Note_on_c, 0, 67, 100
2, 771956, Note_off_c, 0, 67, 64
2, 771960, Note_on_c, 0, 66, 100
2, 772076, Note_off_c, 0, 66, 64
2, 772080, Note_on_c, 0, 67, 97
2, 772316, Note_off_c, 0, 67, 64
2, 772320, Note_on_c, 0, 69, 82
2, 772436, Note_off_c, 0, 69, 64
2, 772440, Note_on_c, 0, 71, 106
2, 772556, Note_off_c, 0, 71, 64
2, 772560, Note_on_c, 0, 72, 98
2, 772676, Note_off_c, 0, 72, 64
2, 772680, Note_on_c, 0, 71, 81
2, 772796, Note_off_c, 0, 71, 64
2, 772800, Note_on_c, 0, 69, 69
2, 772916, Note_off_c, 0, 69, 64
2, 772920, Note_on_c, 0, 67, 96
2, 773036, Note_off_c, 0, 67, 64
2, 773040, Note_on_c, 0, 79, 91
2, 773636, Note_off_c, 0, 79, 64
2, 773640, Note_on_c, 0, 78, 97
2, 773756, Note_off_c, 0, 78, 64
2, 773760, Note_on_c, 0, 81, 106
2, 773876, Note_off_c, 0, 81, 64
2, 773880, Note_on_c, 0, 79, 98
2, 773996, Note_off_c, 0, 79, 64
2, 774000, Note_on_c, 0, 78, 86
2, 774116, Note_off_c, 0, 78, 64
2, 774120, Note_on_c, 0, 79, 92
2, 774236, Note_off_c, 0, 79, 64
2, 774240, Note_on_c, 0, 76, 106
2, 774480, Note_off_c, 0, 76, 64
2, 774480, Note_on_c, 0, 76, 101
2, 774600, Note_off_c, 0, 76, 64
2, 774600, Note_on_c, 0, 78, 101
2, 774780, Note_off_c, 0, 78, 64
2, 774780, Note_on_c, 0, 77, 101
2, 774840, Note_off_c, 0, 77, 64
2, 774840, Note_on_c, 0, 78, 101
2, 774900, Note_off_c, 0, 78, 64
2, 774900, Note_on_c, 0, 79, 101
2, 774960, Note_off_c, 0, 79, 64
2, 774960, Note_on_c, 0, 78, 84
2, 775196, Note_off_c, 0, 78, 64
2, 775200, Note_on_c, 0, 69, 86
2, 775436, Note_off_c, 0, 69, 64
2, 775680, Note_on_c, 0, 78, 81
2, 775916, Note_off_c, 0, 78, 64
2, 775920, Note_on_c, 0, 79, 89
2, 776040, Note_off_c, 0, 79, 64
2, 776040, Note_on_c, 0, 78, 90
2, 776156, Note_off_c, 0, 78, 64
2, 776160, Note_on_c, 0, 79, 89
2, 776276, Note_off_c, 0, 79, 64
2, 776280, Note_on_c, 0, 81, 82
2, 776396, Note_off_c, 0, 81, 64
2, 776400, Note_on_c, 0, 79, 98
2, 776516, Note_off_c, 0, 79, 64
2, 776520, Note_on_c, 0, 78, 90
2, 776636, Note_off_c, 0, 78, 64
2, 776640, Note_on_c, 0, 76, 93
2, 776756, Note_off_c, 0, 76, 64
2, 776760, Note_on_c, 0, 74, 73
2, 776876, Note_off_c, 0, 74, 64
2, 776880, Note_on_c, 0, 72, 98
2, 776996, Note_off_c, 0, 72, 64
2, 777000, Note_on_c, 0, 71, 83
2, 777116, Note_off_c, 0, 71, 64
2, 777120, Note_on_c, 0, 69, 88
2, 777236, Note_off_c, 0, 69, 64
2, 777240, Note_on_c, 0, 67, 89
2, 777356, Note_off_c, 0, 67, 64
2, 777360, Note_on_c, 0, 66, 127
2, 778916, Note_off_c, 0, 66, 64
2, 779040, Note_on_c, 0, 66, 108
2, 779156, Note_off_c, 0, 66, 64
2, 779160, Note_on_c, 0, 67, 101
2, 779276, Note_off_c, 0, 67, 64
2, 779280, Note_on_c, 0, 66, 108
2, 779520, Note_off_c, 0, 66, 64
2, 779520, Note_on_c, 0, 66, 108
2, 779760, Note_off_c, 0, 66, 64
2, 779760, Note_on_c, 0, 66, 108
2, 779996, Note_off_c, 0, 66, 64
2, 780000, Note_on_c, 0, 67, 85
2, 780116, Note_off_c, 0, 67, 64
2, 780120, Note_on_c, 0, 69, 71
2, 780240, Note_off_c, 0, 69, 64
2, 780240, Note_on_c, 0, 67, 109
2, 780720, Note_off_c, 0, 67, 64
2, 781200, Note_on_c, 0, 64, 104
2, 781796, Note_off_c, 0, 64, 64
2, 781800, Note_on_c, 0, 66, 94
2, 781916, Note_off_c, 0, 66, 64
2, 781920, Note_on_c, 0, 67, 86
2, 782036, Note_off_c, 0, 67, 64
2, 782040, Note_on_c, 0, 64, 90
2, 782156, Note_off_c, 0, 64, 64
2, 782160, Note_on_c, 0, 66, 88
2, 782276, Note_off_c, 0, 66, 64
2, 782280, Note_on_c, 0, 67, 91
2, 782396, Note_off_c, 0, 67, 64
2, 782400, Note_on_c, 0, 68, 94
2, 782516, Note_off_c, 0, 68, 64
2, 782520, Note_on_c, 0, 69, 83
2, 782636, Note_off_c, 0, 69, 64
2, 782640, Note_on_c, 0, 71, 98
2, 782756, Note_off_c, 0, 71, 64
2, 782760, Note_on_c, 0, 72, 92
2, 782876, Note_off_c, 0, 72, 64
2, 782880, Note_on_c, 0, 74, 86
2, 782996, Note_off_c, 0, 74, 64
2, 783000, Note_on_c, 0, 76, 109
2, 783116, Note_off_c, 0, 76, 64
2, 783120, Note_on_c, 0, 74, 113
2, 783360, Note_off_c, 0, 74, 64
2, 784680, Note_on_c, 0, 60, 101
2, 784796, Note_off_c, 0, 60, 64
2, 784800, Note_on_c, 0, 62, 98
2, 784916, Note_off_c, 0, 62, 64
2, 784920, Note_on_c, 0, 64, 104
2, 785036, Note_off_c, 0, 64, 64
2, 785040, Note_on_c, 0, 62, 98
2, 785156, Note_off_c, 0, 62, 64
2, 785160, Note_on_c, 0, 63, 99
2, 785276, Note_off_c, 0, 63, 64
2, 785280, Note_on_c, 0, 66, 93
2, 785396, Note_off_c, 0, 66, 64
2, 785400, Note_on_c, 0, 67, 97
2, 785516, Note_off_c, 0, 67, 64
2, 785520, Note_on_c, 0, 66, 96
2, 785636, Note_off_c, 0, 66, 64
2, 785640, Note_on_c, 0, 67, 86
2, 785756, Note_off_c, 0, 67, 64
2, 785760, Note_on_c, 0, 69, 82
2, 785876, Note_off_c, 0, 69, 64
2, 785880, Note_on_c, 0, 71, 92
2, 785996, Note_off_c, 0, 71, 64
2, 786000, Note_on_c, 0, 69, 102
2, 787676, Note_off_c, 0, 69, 64
2, 787680, Note_on_c, 0, 62, 98
2, 787916, Note_off_c, 0, 62, 64
2, 787920, Note_on_c, 0, 64, 101
2, 788156, Note_off_c, 0, 64, 64
2, 788160, Note_on_c, 0, 66, 93
2, 788396, Note_off_c, 0, 66, 64
2, 788400, Note_on_c, 0, 67, 95
2, 788516, Note_off_c, 0, 67, 64
2, 788520, Note_on_c, 0, 71, 91
2, 788636, Note_off_c, 0, 71, 64
2, 788640, Note_on_c, 0, 69, 83
2, 788756, Note_off_c, 0, 69, 64
2, 788760, Note_on_c, 0, 72, 89
2, 788876, Note_off_c, 0, 72, 64
2, 788880, Note_on_c, 0, 71, 104
2, 789116, Note_off_c, 0, 71, 64
2, 789120, Note_on_c, 0, 69, 86
2, 789356, Note_off_c, 0, 69, 64
2, 789360, Note_on_c, 0, 71, 93
2, 789596, Note_off_c, 0, 71, 64
2, 789600, Note_on_c, 0, 72, 100
2, 789836, Note_off_c, 0, 72, 64
2, 789840, Note_on_c, 0, 74, 73
2, 789900, Note_off_c, 0, 74, 64
2, 789900, Note_on_c, 0, 72, 101
2, 789960, Note_off_c, 0, 72, 64
2, 789960, Note_on_c, 0, 74, 96
2, 790200, Note_off_c, 0, 74, 64
2, 790200, Note_on_c, 0, 76, 95
2, 790316, Note_off_c, 0, 76, 64
2, 790320, Note_on_c, 0, 74, 111
2, 790916, Note_off_c, 0, 74, 64
2, 790920, Note_on_c, 0, 71, 93
2, 791036, Note_off_c, 0, 71, 64
2, 791040, Note_on_c, 0, 72, 100
2, 791156, Note_off_c, 0, 72, 64
2, 791160, Note_on_c, 0, 74, 92
2, 791276, Note_off_c, 0, 74, 64
2, 791280, Note_on_c, 0, 76, 104
2, 791400, Note_off_c, 0, 76, 64
2, 791400, Note_on_c, 0, 78, 98
2, 791516, Note_off_c, 0, 78, 64
2, 791520, Note_on_c, 0, 79, 100
2, 791636, Note_off_c, 0, 79, 64
2, 791640, Note_on_c, 0, 81, 89
2, 791756, Note_off_c, 0, 81, 64
2, 791760, Note_on_c, 0, 83, 83
2, 791876, Note_off_c, 0, 83, 64
2, 791880, Note_on_c, 0, 79, 77
2, 791996, Note_off_c, 0, 79, 64
2, 792000, Note_on_c, 0, 74, 73
2, 792116, Note_off_c, 0, 74, 64
2, 792120, Note_on_c, 0, 71, 86
2, 792236, Note_off_c, 0, 71, 64
2, 792240, Note_on_c, 0, 67, 115
2, 792480, Note_off_c, 0, 67, 64
2, 794880, Note_on_c, 0, 67, 100
2, 794996, Note_off_c, 0, 67, 64
2, 795000, Note_on_c, 0, 66, 100
2, 795116, Note_off_c, 0, 66, 64
2, 795120, Note_on_c, 0, 67, 97
2, 795356, Note_off_c, 0, 67, 64
2, 795360, Note_on_c, 0, 69, 82
2, 795476, Note_off_c, 0, 69, 64
2, 795480, Note_on_c, 0, 71, 106
2, 795596, Note_off_c, 0, 71, 64
2, 795600, Note_on_c, 0, 72, 98
2, 795716, Note_off_c, 0, 72, 64
2, 795720, Note_on_c, 0, 71, 81
2, 795836, Note_off_c, 0, 71, 64
2, 795840, Note_on_c, 0, 69, 69
2, 795956, Note_off_c, 0, 69, 64
2, 795960, Note_on_c, 0, 67, 96
2, 796076, Note_off_c, 0, 67, 64
2, 796080, Note_on_c, 0, 79, 91
2, 796676, Note_off_c, 0, 79, 64
2, 796680, Note_on_c, 0, 78, 97
2, 796796, Note_off_c, 0, 78, 64
2, 796800, Note_on_c, 0, 81, 106
2, 796916, Note_off_c, 0, 81, 64
2, 796920, Note_on_c, 0, 79, 98
2, 797036, Note_off_c, 0, 79, 64
2, 797040, Note_on_c, 0, 78, 86
2, 797156, Note_off_c, 0, 78, 64
2, 797160, Note_on_c, 0, 79, 92
2, 797276, Note_off_c, 0, 79, 64
2, 797280, Note_on_c, 0, 76, 106
2, 797520, Note_off_c, 0, 76, 64
2, 797520, Note_on_c, 0, 76, 101
2, 797640, Note_off_c, 0, 76, 64
2, 797640, Note_on_c, 0, 78, 101
2, 797820, Note_off_c, 0, 78, 64
2, 797820, Note_on_c, 0, 77, 101
2, 797880, Note_off_c, 0, 77, 64
2, 797880, Note_on_c, 0, 78, 101
2, 797940, Note_off_c, 0, 78, 64
2, 797940, Note_on_c, 0, 79, 101
2, 798000, Note_off_c, 0, 79, 64
2, 798000, Note_on_c, 0, 78, 84
2, 798236, Note_off_c, 0, 78, 64
2, 798240, Note_on_c, 0, 69, 86
2, 798476, Note_off_c, 0, 69, 64
2, 798720, Note_on_c, 0, 78, 81
2, 798956, Note_off_c, 0, 78, 64
2, 798960, Note_on_c, 0, 79, 89
2, 799080, Note_off_c, 0, 79, 64
2, 799080, Note_on_c, 0, 78, 90
2, 799196, Note_off_c, 0, 78, 64
2, 799200, Note_on_c, 0, 79, 89
2, 799316, Note_off_c, 0, 79, 64
2, 799320, Note_on_c, 0, 81, 82
2, 799436, Note_off_c, 0, 81, 64
2, 799440, Note_on_c, 0, 79, 98
2, 799556, Note_off_c, 0, 79, 64
2, 799560, Note_on_c, 0, 78, 90
2, 799676, Note_off_c, 0, 78, 64
2, 799680, Note_on_c, 0, 76, 93
2, 799796, Note_off_c, 0, 76, 64
2, 799800, Note_on_c, 0, 74, 73
2, 799916, Note_off_c, 0, 74, 64
2, 799920, Note_on_c, 0, 72, 98
2, 800036, Note_off_c, 0, 72, 64
2, 800040, Note_on_c, 0, 71, 83
2, 800156, Note_off_c, 0, 71, 64
2, 800160, Note_on_c, 0, 69, 88
2, 800276, Note_off_c, 0, 69, 64
2, 800280, Note_on_c, 0, 67, 89
2, 800396, Note_off_c, 0, 67, 64
2, 800400, Note_on_c, 0, 66, 127
2, 801956, Note_off_c, 0, 66, 64
2, 802080, Note_on_c, 0, 66, 108
2, 802196, Note_off_c, 0, 66, 64
2, 802200, Note_on_c, 0, 67, 101
2, 802316, Note_off_c, 0, 67, 64
2, 802320, Note_on_c, 0, 66, 108
2, 802560, Note_off_c, 0, 66, 64
2, 802560, Note_on_c, 0, 66, 108
2, 802800, Note_off_c, 0, 66, 64
2, 802800, Note_on_c, 0, 66, 108
2, 803036, Note_off_c, 0, 66, 64
2, 803040, Note_on_c, 0, 67, 85
2, 803156, Note_off_c, 0, 67, 64
2, 803160, Note_on_c, 0, 69, 71
2, 803280, Note_off_c, 0, 69, 64
2, 803280, Note_on_c, 0, 67, 109
2, 803760, Note_off_c, 0, 67, 64
2, 804240, Note_on_c, 0, 64, 104
2, 804836, Note_off_c, 0, 64, 64
2, 804840, Note_on_c, 0, 66, 94
2, 804956, Note_off_c, 0, 66, 64
2, 804960, Note_on_c, 0, 67, 86
2, 805076, Note_off_c, 0, 67, 64
2, 805080, Note_on_c, 0, 64, 90
2, 805196, Note_off_c, 0, 64, 64
2, 805200, Note_on_c, 0, 66, 88
2, 805316, Note_off_c, 0, 66, 64
2, 805320, Note_on_c, 0, 67, 91
2, 805436, Note_off_c, 0, 67, 64
2, 805440, Note_on_c, 0, 68, 94
2, 805556, Note_off_c, 0, 68, 64
2, 805560, Note_on_c, 0, 69, 83
2, 805676, Note_off_c, 0, 69, 64
2, 805680, Note_on_c, 0, 71, 98
2, 805796, Note_off_c, 0, 71, 64
2, 805800, Note_on_c, 0, 72, 92
2, 805916, Note_off_c, 0, 72, 64
2, 805920, Note_on_c, 0, 74, 86
2, 806036, Note_off_c, 0, 74, 64
2, 806040, Note_on_c, 0, 76, 109
2, 806156, Note_off_c, 0, 76, 64
2, 806160, Note_on_c, 0, 74, 113
2, 806400, Note_off_c, 0, 74, 64
2, 807720, Note_on_c, 0, 60, 101
2, 807836, Note_off_c, 0, 60, 64
2, 807840, Note_on_c, 0, 62, 98
2, 807956, Note_off_c, 0, 62, 64
2, 807960, Note_on_c, 0, 64, 104
2, 808076, Note_off_c, 0, 64, 64
2, 808080, Note_on_c, 0, 62, 98
2, 808196, Note_off_c, 0, 62, 64
2, 808200, Note_on_c, 0, 63, 99
2, 808316, Note_off_c, 0, 63, 64
2, 808320, Note_on_c, 0, 66, 93
2, 808436, Note_off_c, 0, 66, 64
2, 808440, Note_on_c, 0, 67, 97
2, 808556, Note_off_c, 0, 67, 64
2, 808560, Note_on_c, 0, 66, 96
2, 808676, Note_off_c, 0, 66, 64
2, 808680, Note_on_c, 0, 67, 86
2, 808796, Note_off_c, 0, 67, 64
2, 808800, Note_on_c, 0, 69, 82
2, 808916, Note_off_c, 0, 69, 64
2, 808920, Note_on_c, 0, 71, 92
2, 809036, Note_off_c, 0, 71, 64
2, 809040, Note_on_c, 0, 69, 102
2, 810716, Note_off_c, 0, 69, 64
2, 810720, Note_on_c, 0, 62, 98
2, 810956, Note_off_c, 0, 62, 64
2, 810960, Note_on_c, 0, 64, 101
2, 811196, Note_off_c, 0, 64, 64
2, 811200, Note_on_c, 0, 66, 93
2, 811436, Note_off_c, 0, 66, 64
2, 811440, Note_on_c, 0, 67, 95
2, 811556, Note_off_c, 0, 67, 64
2, 811560, Note_on_c, 0, 71, 91
2, 811676, Note_off_c, 0, 71, 64
2, 811680, Note_on_c, 0, 69, 83
2, 811796, Note_off_c, 0, 69, 64
2, 811800, Note_on_c, 0, 72, 89
2, 811916, Note_off_c, 0, 72, 64
2, 811920, Note_on_c, 0, 71, 104
2, 812156, Note_off_c, 0, 71, 64
2, 812160, Note_on_c, 0, 69, 86
2, 812396, Note_off_c, 0, 69, 64
2, 812400, Note_on_c, 0, 71, 93
2, 812636, Note_off_c, 0, 71, 64
2, 812640, Note_on_c, 0, 72, 100
2, 812876, Note_off_c, 0, 72, 64
2, 812880, Note_on_c, 0, 74, 73
2, 812940, Note_off_c, 0, 74, 64
2, 812940, Note_on_c, 0, 72, 101
2, 813000, Note_off_c, 0, 72, 64
2, 813000, Note_on_c, 0, 74, 96
2, 813240, Note_off_c, 0, 74, 64
2, 813240, Note_on_c, 0, 76, 95
2, 813356, Note_off_c, 0, 76, 64
2, 813360, Note_on_c, 0, 74, 111
2, 813956, Note_off_c, 0, 74, 64
2, 813960, Note_on_c, 0, 71, 93
2, 814076, Note_off_c, 0, 71, 64
2, 814080, Note_on_c, 0, 72, 100
2, 814196, Note_off_c, 0, 72, 64
2, 814200, Note_on_c, 0, 74, 92
2, 814316, Note_off_c, 0, 74, 64
2, 814320, Note_on_c, 0, 76, 104
2, 814440, Note_off_c, 0, 76, 64
2, 814440, Note_on_c, 0, 78, 98
2, 814556, Note_off_c, 0, 78, 64
2, 814560, Note_on_c, 0, 79, 100
2, 814676, Note_off_c, 0, 79, 64
2, 814680, Note_on_c, 0, 81, 89
2, 814796, Note_off_c, 0, 81, 64
2, 814800, Note_on_c, 0, 83, 83
2, 814916, Note_off_c, 0, 83, 64
2, 814920, Note_on_c, 0, 79, 77
2, 815036, Note_off_c, 0, 79, 64
2, 815040, Note_on_c, 0, 74, 73
2, 815156, Note_off_c, 0, 74, 64
2, 815160, Note_on_c, 0, 71, 86
2, 815276, Note_off_c, 0, 71, 64
2, 815280, Note_on_c, 0, 67, 115
2, 815520, Note_off_c, 0, 67, 64
2, 817680, Note_on_c, 0, 71, 86
2, 817796, Note_off_c, 0, 71, 64
2, 817800, Note_on_c, 0, 72, 100
2, 817916, Note_off_c, 0, 72, 64
2, 817920, Note_on_c, 0, 71, 88
2, 818036, Note_off_c, 0, 71, 64
2, 818040, Note_on_c, 0, 69, 80
2, 818156, Note_off_c, 0, 69, 64
2, 818160, Note_on_c, 0, 71, 95
2, 818756, Note_off_c, 0, 71, 64
2, 818760, Note_on_c, 0, 66, 82
2, 818876, Note_off_c, 0, 66, 64
2, 818880, Note_on_c, 0, 67, 81
2, 818996, Note_off_c, 0, 67, 64
2, 819000, Note_on_c, 0, 69, 86
2, 819116, Note_off_c, 0, 69, 64
2, 819120, Note_on_c, 0, 71, 93
2, 819356, Note_off_c, 0, 71, 64
2, 819360, Note_on_c, 0, 72, 91
2, 819596, Note_off_c, 0, 72, 64
2, 819600, Note_on_c, 0, 74, 90
2, 819716, Note_off_c, 0, 74, 64
2, 819720, Note_on_c, 0, 72, 85
2, 819836, Note_off_c, 0, 72, 64
2, 819840, Note_on_c, 0, 71, 88
2, 820076, Note_off_c, 0, 71, 64
2, 820080, Note_on_c, 0, 69, 88
2, 820316, Note_off_c, 0, 69, 64
2, 820320, Note_on_c, 0, 67, 88
2, 820556, Note_off_c, 0, 67, 64
2, 820560, Note_on_c, 0, 74, 97
2, 820676, Note_off_c, 0, 74, 64
2, 820680, Note_on_c, 0, 76, 93
2, 820796, Note_off_c, 0, 76, 64
2, 820800, Note_on_c, 0, 74, 91
2, 820916, Note_off_c, 0, 74, 64
2, 820920, Note_on_c, 0, 73, 89
2, 821036, Note_off_c, 0, 73, 64
2, 821040, Note_on_c, 0, 74, 96
2, 821636, Note_off_c, 0, 74, 64
2, 821640, Note_on_c, 0, 73, 92
2, 821756, Note_off_c, 0, 73, 64
2, 821760, Note_on_c, 0, 74, 90
2, 821876, Note_off_c, 0, 74, 64
2, 821880, Note_on_c, 0, 76, 86
2, 821996, Note_off_c, 0, 76, 64
2, 822000, Note_on_c, 0, 78, 85
2, 822236, Note_off_c, 0, 78, 64
2, 822240, Note_on_c, 0, 79, 98
2, 822476, Note_off_c, 0, 79, 64
2, 822480, Note_on_c, 0, 81, 78
2, 822596, Note_off_c, 0, 81, 64
2, 822600, Note_on_c, 0, 79, 75
2, 822716, Note_off_c, 0, 79, 64
2, 822720, Note_on_c, 0, 78, 82
2, 822956, Note_off_c, 0, 78, 64
2, 822960, Note_on_c, 0, 76, 86
2, 823196, Note_off_c, 0, 76, 64
2, 823200, Note_on_c, 0, 74, 89
2, 823436, Note_off_c, 0, 74, 64
2, 823440, Note_on_c, 0, 79, 97
2, 823556, Note_off_c, 0, 79, 64
2, 823560, Note_on_c, 0, 81, 96
2, 823676, Note_off_c, 0, 81, 64
2, 823680, Note_on_c, 0, 79, 93
2, 823796, Note_off_c, 0, 79, 64
2, 823800, Note_on_c, 0, 78, 93
2, 823916, Note_off_c, 0, 78, 64
2, 823920, Note_on_c, 0, 79, 102
2, 824516, Note_off_c, 0, 79, 64
2, 824520, Note_on_c, 0, 78, 97
2, 824636, Note_off_c, 0, 78, 64
2, 824640, Note_on_c, 0, 76, 89
2, 824756, Note_off_c, 0, 76, 64
2, 824760, Note_on_c, 0, 78, 89
2, 824876, Note_off_c, 0, 78, 64
2, 824880, Note_on_c, 0, 79, 92
2, 825116, Note_off_c, 0, 79, 64
2, 825120, Note_on_c, 0, 76, 89
2, 825356, Note_off_c, 0, 76, 64
2, 825360, Note_on_c, 0, 69, 85
2, 825596, Note_off_c, 0, 69, 64
2, 825600, Note_on_c, 0, 83, 100
2, 825836, Note_off_c, 0, 83, 64
2, 825840, Note_on_c, 0, 81, 90
2, 826076, Note_off_c, 0, 81, 64
2, 826080, Note_on_c, 0, 79, 89
2, 826316, Note_off_c, 0, 79, 64
2, 826320, Note_on_c, 0, 79, 89
2, 826380, Note_off_c, 0, 79, 64
2, 826380, Note_on_c, 0, 78, 79
2, 826440, Note_off_c, 0, 78, 64
2, 826440, Note_on_c, 0, 76, 86
2, 826556, Note_off_c, 0, 76, 64
2, 826560, Note_on_c, 0, 78, 94
2, 826676, Note_off_c, 0, 78, 64
2, 826680, Note_on_c, 0, 76, 80
2, 826796, Note_off_c, 0, 76, 64
2, 826800, Note_on_c, 0, 74, 86
2, 827396, Note_off_c, 0, 74, 64
2, 827400, Note_on_c, 0, 73, 96
2, 827516, Note_off_c, 0, 73, 64
2, 827520, Note_on_c, 0, 74, 85
2, 827636, Note_off_c, 0, 74, 64
2, 827640, Note_on_c, 0, 76, 95
2, 827756, Note_off_c, 0, 76, 64
2, 827760, Note_on_c, 0, 78, 89
2, 827996, Note_off_c, 0, 78, 64
2, 828000, Note_on_c, 0, 79, 88
2, 828236, Note_off_c, 0, 79, 64
2, 828240, Note_on_c, 0, 81, 92
2, 828476, Note_off_c, 0, 81, 64
2, 828480, Note_on_c, 0, 83, 84
2, 828596, Note_off_c, 0, 83, 64
2, 828600, Note_on_c, 0, 84, 80
2, 828716, Note_off_c, 0, 84, 64
2, 828720, Note_on_c, 0, 83, 95
2, 828956, Note_off_c, 0, 83, 64
2, 828960, Note_on_c, 0, 81, 93
2, 829196, Note_off_c, 0, 81, 64
2, 829200, Note_on_c, 0, 79, 82
2, 829316, Note_off_c, 0, 79, 64
2, 829320, Note_on_c, 0, 77, 91
2, 829436, Note_off_c, 0, 77, 64
2, 829440, Note_on_c, 0, 76, 88
2, 829680, Note_off_c, 0, 76, 64
2, 829680, Note_on_c, 0, 77, 89
2, 829740, Note_off_c, 0, 77, 64
2, 829740, Note_on_c, 0, 76, 89
2, 829800, Note_off_c, 0, 76, 64
2, 829800, Note_on_c, 0, 77, 89
2, 830160, Note_off_c, 0, 77, 64
2, 830280, Note_on_c, 0, 74, 78
2, 830396, Note_off_c, 0, 74, 64
2, 830400, Note_on_c, 0, 79, 86
2, 830516, Note_off_c, 0, 79, 64
2, 830520, Note_on_c, 0, 81, 83
2, 830636, Note_off_c, 0, 81, 64
2, 830640, Note_on_c, 0, 83, 86
2, 830756, Note_off_c, 0, 83, 64
2, 830760, Note_on_c, 0, 84, 88
2, 830876, Note_off_c, 0, 84, 64
2, 830880, Note_on_c, 0, 86, 66
2, 831116, Note_off_c, 0, 86, 64
2, 831120, Note_on_c, 0, 84, 92
2, 831356, Note_off_c, 0, 84, 64
2, 831360, Note_on_c, 0, 83, 86
2, 831596, Note_off_c, 0, 83, 64
2, 831600, Note_on_c, 0, 81, 90
2, 831836, Note_off_c, 0, 81, 64
2, 831840, Note_on_c, 0, 79, 83
2, 832076, Note_off_c, 0, 79, 64
2, 832080, Note_on_c, 0, 77, 85
2, 832196, Note_off_c, 0, 77, 64
2, 832200, Note_on_c, 0, 76, 76
2, 832316, Note_off_c, 0, 76, 64
2, 832320, Note_on_c, 0, 74, 75
2, 832556, Note_off_c, 0, 74, 64
2, 832560, Note_on_c, 0, 76, 100
2, 833156, Note_off_c, 0, 76, 64
2, 833160, Note_on_c, 0, 74, 90
2, 833276, Note_off_c, 0, 74, 64
2, 833280, Note_on_c, 0, 72, 77
2, 833396, Note_off_c, 0, 72, 64
2, 833400, Note_on_c, 0, 71, 84
2, 833516, Note_off_c, 0, 71, 64
2, 833520, Note_on_c, 0, 72, 88
2, 833636, Note_off_c, 0, 72, 64
2, 833640, Note_on_c, 0, 74, 76
2, 833756, Note_off_c, 0, 74, 64
2, 833760, Note_on_c, 0, 76, 92
2, 833996, Note_off_c, 0, 76, 64
2, 834000, Note_on_c, 0, 74, 86
2, 834236, Note_off_c, 0, 74, 64
2, 834240, Note_on_c, 0, 79, 93
2, 834476, Note_off_c, 0, 79, 64
2, 834480, Note_on_c, 0, 76, 89
2, 834716, Note_off_c, 0, 76, 64
2, 834720, Note_on_c, 0, 72, 92
2, 834956, Note_off_c, 0, 72, 64
2, 834960, Note_on_c, 0, 71, 83
2, 835076, Note_off_c, 0, 71, 64
2, 835080, Note_on_c, 0, 69, 72
2, 835196, Note_off_c, 0, 69, 64
2, 835200, Note_on_c, 0, 67, 66
2, 835436, Note_off_c, 0, 67, 64
2, 835440, Note_on_c, 0, 69, 66
2, 836036, Note_off_c, 0, 69, 64
2, 836040, Note_on_c, 0, 67, 86
2, 836156, Note_off_c, 0, 67, 64
2, 836160, Note_on_c, 0, 69, 78
2, 836276, Note_off_c, 0, 69, 64
2, 836280, Note_on_c, 0, 71, 80
2, 836396, Note_off_c, 0, 71, 64
2, 836400, Note_on_c, 0, 72, 96
2, 836516, Note_off_c, 0, 72, 64
2, 836520, Note_on_c, 0, 66, 79
2, 836636, Note_off_c, 0, 66, 64
2, 836640, Note_on_c, 0, 67, 85
2, 836756, Note_off_c, 0, 67, 64
2, 836760, Note_on_c, 0, 69, 69
2, 836876, Note_off_c, 0, 69, 64
2, 836880, Note_on_c, 0, 62, 73
2, 836996, Note_off_c, 0, 62, 64
2, 837000, Note_on_c, 0, 66, 80
2, 837116, Note_off_c, 0, 66, 64
2, 837120, Note_on_c, 0, 64, 81
2, 837236, Note_off_c, 0, 64, 64
2, 837240, Note_on_c, 0, 62, 78
2, 837356, Note_off_c, 0, 62, 64
2, 837360, Note_on_c, 0, 69, 85
2, 837476, Note_off_c, 0, 69, 64
2, 837480, Note_on_c, 0, 67, 83
2, 837596, Note_off_c, 0, 67, 64
2, 837600, Note_on_c, 0, 66, 75
2, 837716, Note_off_c, 0, 66, 64
2, 837720, Note_on_c, 0, 72, 93
2, 837836, Note_off_c, 0, 72, 64
2, 837840, Note_on_c, 0, 72, 102
2, 837956, Note_off_c, 0, 72, 64
2, 837960, Note_on_c, 0, 71, 88
2, 838076, Note_off_c, 0, 71, 64
2, 838080, Note_on_c, 0, 69, 83
2, 838316, Note_off_c, 0, 69, 64
2, 838320, Note_on_c, 0, 71, 83
2, 838916, Note_off_c, 0, 71, 64
2, 838920, Note_on_c, 0, 69, 78
2, 839036, Note_off_c, 0, 69, 64
2, 839040, Note_on_c, 0, 67, 64
2, 839156, Note_off_c, 0, 67, 64
2, 839160, Note_on_c, 0, 66, 92
2, 839276, Note_off_c, 0, 66, 64
2, 839280, Note_on_c, 0, 67, 82
2, 839396, Note_off_c, 0, 67, 64
2, 839400, Note_on_c, 0, 71, 92
2, 839516, Note_off_c, 0, 71, 64
2, 839520, Note_on_c, 0, 74, 92
2, 839636, Note_off_c, 0, 74, 64
2, 839640, Note_on_c, 0, 78, 79
2, 839756, Note_off_c, 0, 78, 64
2, 839760, Note_on_c, 0, 79, 89
2, 839876, Note_off_c, 0, 79, 64
2, 839880, Note_on_c, 0, 78, 84
2, 839996, Note_off_c, 0, 78, 64
2, 840000, Note_on_c, 0, 76, 83
2, 840116, Note_off_c, 0, 76, 64
2, 840120, Note_on_c, 0, 74, 90
2, 840236, Note_off_c, 0, 74, 64
2, 840240, Note_on_c, 0, 78, 85
2, 840356, Note_off_c, 0, 78, 64
2, 840360, Note_on_c, 0, 81, 86
2, 840476, Note_off_c, 0, 81, 64
2, 840480, Note_on_c, 0, 83, 86
2, 840596, Note_off_c, 0, 83, 64
2, 840600, Note_on_c, 0, 84, 88
2, 840716, Note_off_c, 0, 84, 64
2, 840720, Note_on_c, 0, 83, 88
2, 840836, Note_off_c, 0, 83, 64
2, 840840, Note_on_c, 0, 81, 82
2, 840956, Note_off_c, 0, 81, 64
2, 840960, Note_on_c, 0, 79, 81
2, 841316, Note_off_c, 0, 79, 64
2, 841320, Note_on_c, 0, 78, 88
2, 841436, Note_off_c, 0, 78, 64
2, 841440, Note_on_c, 0, 76, 97
2, 841796, Note_off_c, 0, 76, 64
2, 841800, Note_on_c, 0, 75, 84
2, 841916, Note_off_c, 0, 75, 64
2, 841920, Note_on_c, 0, 76, 95
2, 842276, Note_off_c, 0, 76, 64
2, 842280, Note_on_c, 0, 78, 79
2, 842396, Note_off_c, 0, 78, 64
2, 842400, Note_on_c, 0, 79, 89
2, 842756, Note_off_c, 0, 79, 64
2, 842760, Note_on_c, 0, 81, 89
2, 842876, Note_off_c, 0, 81, 64
2, 842880, Note_on_c, 0, 83, 100
2, 843236, Note_off_c, 0, 83, 64
2, 843240, Note_on_c, 0, 79, 92
2, 843356, Note_off_c, 0, 79, 64
2, 843360, Note_on_c, 0, 78, 86
2, 843476, Note_off_c, 0, 78, 64
2, 843480, Note_on_c, 0, 76, 89
2, 843596, Note_off_c, 0, 76, 64
2, 843600, Note_on_c, 0, 81, 91
2, 843716, Note_off_c, 0, 81, 64
2, 843720, Note_on_c, 0, 79, 92
2, 843836, Note_off_c, 0, 79, 64
2, 843840, Note_on_c, 0, 78, 86
2, 844196, Note_off_c, 0, 78, 64
2, 844200, Note_on_c, 0, 76, 82
2, 844316, Note_off_c, 0, 76, 64
2, 844320, Note_on_c, 0, 74, 83
2, 844676, Note_off_c, 0, 74, 64
2, 844680, Note_on_c, 0, 73, 77
2, 844796, Note_off_c, 0, 73, 64
2, 844800, Note_on_c, 0, 74, 92
2, 845156, Note_off_c, 0, 74, 64
2, 845160, Note_on_c, 0, 76, 90
2, 845276, Note_off_c, 0, 76, 64
2, 845280, Note_on_c, 0, 78, 86
2, 845636, Note_off_c, 0, 78, 64
2, 845640, Note_on_c, 0, 79, 90
2, 845756, Note_off_c, 0, 79, 64
2, 845760, Note_on_c, 0, 81, 101
2, 846116, Note_off_c, 0, 81, 64
2, 846120, Note_on_c, 0, 78, 89
2, 846236, Note_off_c, 0, 78, 64
2, 846240, Note_on_c, 0, 76, 81
2, 846356, Note_off_c, 0, 76, 64
2, 846360, Note_on_c, 0, 74, 81
2, 846476, Note_off_c, 0, 74, 64
2, 846480, Note_on_c, 0, 79, 85
2, 846596, Note_off_c, 0, 79, 64
2, 846600, Note_on_c, 0, 81, 82
2, 846716, Note_off_c, 0, 81, 64
2, 846720, Note_on_c, 0, 83, 91
2, 846836, Note_off_c, 0, 83, 64
2, 846840, Note_on_c, 0, 81, 76
2, 846956, Note_off_c, 0, 81, 64
2, 846960, Note_on_c, 0, 79, 84
2, 847076, Note_off_c, 0, 79, 64
2, 847200, Note_on_c, 0, 78, 79
2, 847316, Note_off_c, 0, 78, 64
2, 847440, Note_on_c, 0, 76, 76
2, 847556, Note_off_c, 0, 76, 64
2, 847560, Note_on_c, 0, 78, 73
2, 847676, Note_off_c, 0, 78, 64
2, 847680, Note_on_c, 0, 79, 76
2, 847796, Note_off_c, 0, 79, 64
2, 847800, Note_on_c, 0, 78, 68
2, 847916, Note_off_c, 0, 78, 64
2, 847920, Note_on_c, 0, 76, 66
2, 848036, Note_off_c, 0, 76, 64
2, 848160, Note_on_c, 0, 74, 66
2, 848276, Note_off_c, 0, 74, 64
2, 848400, Note_on_c, 0, 73, 67
2, 848516, Note_off_c, 0, 73, 64
2, 848520, Note_on_c, 0, 74, 70
2, 848636, Note_off_c, 0, 74, 64
2, 848640, Note_on_c, 0, 76, 69
2, 848756, Note_off_c, 0, 76, 64
2, 848760, Note_on_c, 0, 74, 69
2, 848876, Note_off_c, 0, 74, 64
2, 848880, Note_on_c, 0, 73, 71
2, 848996, Note_off_c, 0, 73, 64
2, 849120, Note_on_c, 0, 71, 76
2, 849236, Note_off_c, 0, 71, 64
2, 849360, Note_on_c, 0, 71, 89
2, 849480, Note_off_c, 0, 71, 64
2, 849480, Note_on_c, 0, 69, 66
2, 849540, Note_off_c, 0, 69, 64
2, 849540, Note_on_c, 0, 71, 66
2, 849600, Note_off_c, 0, 71, 64
2, 849600, Note_on_c, 0, 69, 76
2, 850560, Note_off_c, 0, 69, 64
2, 850920, Note_on_c, 0, 73, 80
2, 851036, Note_off_c, 0, 73, 64
2, 851040, Note_on_c, 0, 71, 75
2, 851156, Note_off_c, 0, 71, 64
2, 851160, Note_on_c, 0, 69, 74
2, 851276, Note_off_c, 0, 69, 64
2, 851280, Note_on_c, 0, 71, 78
2, 851396, Note_off_c, 0, 71, 64
2, 851400, Note_on_c, 0, 73, 69
2, 851516, Note_off_c, 0, 73, 64
2, 851520, Note_on_c, 0, 74, 62
2, 851636, Note_off_c, 0, 74, 64
2, 851640, Note_on_c, 0, 76, 82
2, 851756, Note_off_c, 0, 76, 64
2, 851760, Note_on_c, 0, 78, 75
2, 851876, Note_off_c, 0, 78, 64
2, 851880, Note_on_c, 0, 79, 78
2, 851996, Note_off_c, 0, 79, 64
2, 852000, Note_on_c, 0, 81, 92
2, 852060, Note_off_c, 0, 81, 64
2, 852060, Note_on_c, 0, 79, 80
2, 852120, Note_off_c, 0, 79, 64
2, 852120, Note_on_c, 0, 78, 76
2, 852180, Note_off_c, 0, 78, 64
2, 852180, Note_on_c, 0, 79, 78
2, 852240, Note_off_c, 0, 79, 64
2, 852240, Note_on_c, 0, 81, 97
2, 852356, Note_off_c, 0, 81, 64
2, 852360, Note_on_c, 0, 74, 71
2, 852476, Note_off_c, 0, 74, 64
2, 852480, Note_on_c, 0, 73, 53
2, 852596, Note_off_c, 0, 73, 64
2, 852600, Note_on_c, 0, 74, 65
2, 852716, Note_off_c, 0, 74, 64
2, 852720, Note_on_c, 0, 76, 83
2, 852836, Note_off_c, 0, 76, 64
2, 852840, Note_on_c, 0, 74, 73
2, 852956, Note_off_c, 0, 74, 64
2, 852960, Note_on_c, 0, 73, 86
2, 853076, Note_off_c, 0, 73, 64
2, 853080, Note_on_c, 0, 74, 86
2, 853196, Note_off_c, 0, 74, 64
2, 853196, Note_on_c, 0, 69, 82
2, 853312, Note_on_c, 0, 74, 78
2, 853324, Note_off_c, 0, 69, 64
2, 853424, Note_off_c, 0, 74, 64
2, 853428, Note_on_c, 0, 67, 82
2, 853540, Note_on_c, 0, 74, 85
2, 853552, Note_off_c, 0, 67, 64
2, 853660, Note_on_c, 0, 66, 84
2, 853672, Note_off_c, 0, 74, 64
2, 853788, Note_on_c, 0, 74, 90
2, 853796, Note_off_c, 0, 66, 64
2, 853900, Note_off_c, 0, 74, 64
2, 853908, Note_on_c, 0, 64, 83
2, 854024, Note_on_c, 0, 74, 89
2, 854040, Note_off_c, 0, 64, 64
2, 854144, Note_on_c, 0, 66, 85
2, 854148, Note_off_c, 0, 74, 64
2, 854268, Note_on_c, 0, 74, 88
2, 854272, Note_off_c, 0, 66, 64
2, 854384, Note_on_c, 0, 69, 86
2, 854396, Note_off_c, 0, 74, 64
2, 854504, Note_on_c, 0, 74, 93
2, 854512, Note_off_c, 0, 69, 64
2, 854632, Note_on_c, 0, 66, 89
2, 854636, Note_off_c, 0, 74, 64
2, 854752, Note_on_c, 0, 74, 92
2, 854772, Note_off_c, 0, 66, 64
2, 854868, Note_off_c, 0, 74, 64
2, 854872, Note_on_c, 0, 62, 84
2, 854992, Note_on_c, 0, 72, 93
2, 855004, Note_off_c, 0, 62, 64
2, 855120, Note_on_c, 0, 71, 95
2, 855128, Note_off_c, 0, 72, 64
2, 855236, Note_off_c, 0, 71, 64
2, 855240, Note_on_c, 0, 74, 90
2, 855356, Note_off_c, 0, 74, 64
2, 855360, Note_on_c, 0, 73, 82
2, 855476, Note_off_c, 0, 73, 64
2, 855480, Note_on_c, 0, 74, 88
2, 855596, Note_off_c, 0, 74, 64
2, 855600, Note_on_c, 0, 76, 86
2, 855716, Note_off_c, 0, 76, 64
2, 855720, Note_on_c, 0, 74, 74
2, 855836, Note_off_c, 0, 74, 64
2, 855840, Note_on_c, 0, 73, 75
2, 855956, Note_off_c, 0, 73, 64
2, 855960, Note_on_c, 0, 74, 78
2, 856076, Note_off_c, 0, 74, 64
2, 856080, Note_on_c, 0, 71, 85
2, 856196, Note_off_c, 0, 71, 64
2, 856200, Note_on_c, 0, 74, 82
2, 856316, Note_off_c, 0, 74, 64
2, 856320, Note_on_c, 0, 69, 64
2, 856436, Note_off_c, 0, 69, 64
2, 856440, Note_on_c, 0, 74, 80
2, 856556, Note_off_c, 0, 74, 64
2, 856560, Note_on_c, 0, 67, 71
2, 856676, Note_off_c, 0, 67, 64
2, 856680, Note_on_c, 0, 74, 76
2, 856796, Note_off_c, 0, 74, 64
2, 856800, Note_on_c, 0, 66, 84
2, 856916, Note_off_c, 0, 66, 64
2, 856920, Note_on_c, 0, 74, 80
2, 857036, Note_off_c, 0, 74, 64
2, 857040, Note_on_c, 0, 67, 78
2, 857156, Note_off_c, 0, 67, 64
2, 857160, Note_on_c, 0, 74, 72
2, 857276, Note_off_c, 0, 74, 64
2, 857280, Note_on_c, 0, 71, 80
2, 857396, Note_off_c, 0, 71, 64
2, 857400, Note_on_c, 0, 74, 78
2, 857516, Note_off_c, 0, 74, 64
2, 857520, Note_on_c, 0, 67, 72
2, 857636, Note_off_c, 0, 67, 64
2, 857640, Note_on_c, 0, 74, 82
2, 857756, Note_off_c, 0, 74, 64
2, 857760, Note_on_c, 0, 64, 62
2, 857876, Note_off_c, 0, 64, 64
2, 857880, Note_on_c, 0, 74, 68
2, 857996, Note_off_c, 0, 74, 64
2, 858000, Note_on_c, 0, 73, 84
2, 858060, Note_off_c, 0, 73, 64
2, 858120, Note_on_c, 0, 67, 85
2, 858236, Note_off_c, 0, 67, 64
2, 858240, Note_on_c, 0, 66, 83
2, 858356, Note_off_c, 0, 66, 64
2, 858360, Note_on_c, 0, 67, 82
2, 858476, Note_off_c, 0, 67, 64
2, 858480, Note_on_c, 0, 69, 81
2, 858596, Note_off_c, 0, 69, 64
2, 858600, Note_on_c, 0, 67, 75
2, 858716, Note_off_c, 0, 67, 64
2, 858720, Note_on_c, 0, 66, 88
2, 858840, Note_off_c, 0, 66, 64
2, 858840, Note_on_c, 0, 67, 88
2, 858960, Note_off_c, 0, 67, 64
2, 858960, Note_on_c, 0, 76, 88
2, 859076, Note_off_c, 0, 76, 64
2, 859080, Note_on_c, 0, 73, 89
2, 859196, Note_off_c, 0, 73, 64
2, 859200, Note_on_c, 0, 71, 59
2, 859316, Note_off_c, 0, 71, 64
2, 859320, Note_on_c, 0, 73, 64
2, 859436, Note_off_c, 0, 73, 64
2, 859440, Note_on_c, 0, 74, 92
2, 859556, Note_off_c, 0, 74, 64
2, 859560, Note_on_c, 0, 73, 76
2, 859676, Note_off_c, 0, 73, 64
2, 859680, Note_on_c, 0, 71, 92
2, 859796, Note_off_c, 0, 71, 64
2, 859800, Note_on_c, 0, 73, 77
2, 859916, Note_off_c, 0, 73, 64
2, 859920, Note_on_c, 0, 79, 93
2, 859980, Note_off_c, 0, 79, 64
2, 860040, Note_on_c, 0, 76, 95
2, 860156, Note_off_c, 0, 76, 64
2, 860160, Note_on_c, 0, 74, 75
2, 860276, Note_off_c, 0, 74, 64
2, 860280, Note_on_c, 0, 76, 84
2, 860396, Note_off_c, 0, 76, 64
2, 860400, Note_on_c, 0, 81, 86
2, 860520, Note_off_c, 0, 81, 64
2, 860520, Note_on_c, 0, 79, 86
2, 860640, Note_off_c, 0, 79, 64
2, 860640, Note_on_c, 0, 78, 74
2, 860756, Note_off_c, 0, 78, 64
2, 860760, Note_on_c, 0, 76, 74
2, 860876, Note_off_c, 0, 76, 64
2, 860880, Note_on_c, 0, 78, 85
2, 861116, Note_off_c, 0, 78, 64
2, 861120, Note_on_c, 0, 73, 75
2, 861356, Note_off_c, 0, 73, 64
2, 861360, Note_on_c, 0, 73, 86
2, 861596, Note_off_c, 0, 73, 64
2, 861600, Note_on_c, 0, 74, 67
2, 861836, Note_off_c, 0, 74, 64
2, 861840, Note_on_c, 0, 74, 98
2, 862076, Note_off_c, 0, 74, 64
2, 862080, Note_on_c, 0, 67, 79
2, 862316, Note_off_c, 0, 67, 64
2, 862320, Note_on_c, 0, 67, 79
2, 862556, Note_off_c, 0, 67, 64
2, 862560, Note_on_c, 0, 66, 79
2, 862796, Note_off_c, 0, 66, 64
2, 862800, Note_on_c, 0, 66, 84
2, 863760, Note_off_c, 0, 66, 64
2, 863760, Note_on_c, 0, 71, 86
2, 863876, Note_off_c, 0, 71, 64
2, 863880, Note_on_c, 0, 72, 100
2, 863996, Note_off_c, 0, 72, 64
2, 864000, Note_on_c, 0, 71, 88
2, 864116, Note_off_c, 0, 71, 64
2, 864120, Note_on_c, 0, 69, 80
2, 864236, Note_off_c, 0, 69, 64
2, 864240, Note_on_c, 0, 71, 95
2, 864836, Note_off_c, 0, 71, 64
2, 864840, Note_on_c, 0, 66, 82
2, 864956, Note_off_c, 0, 66, 64
2, 864960, Note_on_c, 0, 67, 81
2, 865076, Note_off_c, 0, 67, 64
2, 865080, Note_on_c, 0, 69, 86
2, 865196, Note_off_c, 0, 69, 64
2, 865200, Note_on_c, 0, 71, 93
2, 865436, Note_off_c, 0, 71, 64
2, 865440, Note_on_c, 0, 72, 91
2, 865676, Note_off_c, 0, 72, 64
2, 865680, Note_on_c, 0, 74, 90
2, 865796, Note_off_c, 0, 74, 64
2, 865800, Note_on_c, 0, 72, 85
2, 865916, Note_off_c, 0, 72, 64
2, 865920, Note_on_c, 0, 71, 88
2, 866156, Note_off_c, 0, 71, 64
2, 866160, Note_on_c, 0, 69, 88
2, 866396, Note_off_c, 0, 69, 64
2, 866400, Note_on_c, 0, 67, 88
2, 866636, Note_off_c, 0, 67, 64
2, 866640, Note_on_c, 0, 74, 97
2, 866756, Note_off_c, 0, 74, 64
2, 866760, Note_on_c, 0, 76, 93
2, 866876, Note_off_c, 0, 76, 64
2, 866880, Note_on_c, 0, 74, 91
2, 866996, Note_off_c, 0, 74, 64
2, 867000, Note_on_c, 0, 73, 89
2, 867116, Note_off_c, 0, 73, 64
2, 867120, Note_on_c, 0, 74, 96
2, 867716, Note_off_c, 0, 74, 64
2, 867720, Note_on_c, 0, 73, 92
2, 867836, Note_off_c, 0, 73, 64
2, 867840, Note_on_c, 0, 74, 90
2, 867956, Note_off_c, 0, 74, 64
2, 867960, Note_on_c, 0, 76, 86
2, 868076, Note_off_c, 0, 76, 64
2, 868080, Note_on_c, 0, 78, 85
2, 868316, Note_off_c, 0, 78, 64
2, 868320, Note_on_c, 0, 79, 98
2, 868556, Note_off_c, 0, 79, 64
2, 868560, Note_on_c, 0, 81, 78
2, 868676, Note_off_c, 0, 81, 64
2, 868680, Note_on_c, 0, 79, 75
2, 868796, Note_off_c, 0, 79, 64
2, 868800, Note_on_c, 0, 78, 82
2, 869036, Note_off_c, 0, 78, 64
2, 869040, Note_on_c, 0, 76, 86
2, 869276, Note_off_c, 0, 76, 64
2, 869280, Note_on_c, 0, 74, 89
2, 869516, Note_off_c, 0, 74, 64
2, 869520, Note_on_c, 0, 79, 97
2, 869636, Note_off_c, 0, 79, 64
2, 869640, Note_on_c, 0, 81, 96
2, 869756, Note_off_c, 0, 81, 64
2, 869760, Note_on_c, 0, 79, 93
2, 869876, Note_off_c, 0, 79, 64
2, 869880, Note_on_c, 0, 78, 93
2, 869996, Note_off_c, 0, 78, 64
2, 870000, Note_on_c, 0, 79, 102
2, 870596, Note_off_c, 0, 79, 64
2, 870600, Note_on_c, 0, 78, 97
2, 870716, Note_off_c, 0, 78, 64
2, 870720, Note_on_c, 0, 76, 89
2, 870836, Note_off_c, 0, 76, 64
2, 870840, Note_on_c, 0, 78, 89
2, 870956, Note_off_c, 0, 78, 64
2, 870960, Note_on_c, 0, 79, 92
2, 871196, Note_off_c, 0, 79, 64
2, 871200, Note_on_c, 0, 76, 89
2, 871436, Note_off_c, 0, 76, 64
2, 871440, Note_on_c, 0, 69, 85
2, 871676, Note_off_c, 0, 69, 64
2, 871680, Note_on_c, 0, 83, 100
2, 871916, Note_off_c, 0, 83, 64
2, 871920, Note_on_c, 0, 81, 90
2, 872156, Note_off_c, 0, 81, 64
2, 872160, Note_on_c, 0, 79, 89
2, 872396, Note_off_c, 0, 79, 64
2, 872400, Note_on_c, 0, 79, 89
2, 872460, Note_off_c, 0, 79, 64
2, 872460, Note_on_c, 0, 78, 79
2, 872520, Note_off_c, 0, 78, 64
2, 872520, Note_on_c, 0, 76, 86
2, 872636, Note_off_c, 0, 76, 64
2, 872640, Note_on_c, 0, 78, 94
2, 872756, Note_off_c, 0, 78, 64
2, 872760, Note_on_c, 0, 76, 80
2, 872876, Note_off_c, 0, 76, 64
2, 872880, Note_on_c, 0, 74, 86
2, 873476, Note_off_c, 0, 74, 64
2, 873480, Note_on_c, 0, 73, 96
2, 873596, Note_off_c, 0, 73, 64
2, 873600, Note_on_c, 0, 74, 85
2, 873716, Note_off_c, 0, 74, 64
2, 873720, Note_on_c, 0, 76, 95
2, 873836, Note_off_c, 0, 76, 64
2, 873840, Note_on_c, 0, 78, 89
2, 874076, Note_off_c, 0, 78, 64
2, 874080, Note_on_c, 0, 79, 88
2, 874316, Note_off_c, 0, 79, 64
2, 874320, Note_on_c, 0, 81, 92
2, 874556, Note_off_c, 0, 81, 64
2, 874560, Note_on_c, 0, 83, 84
2, 874676, Note_off_c, 0, 83, 64
2, 874680, Note_on_c, 0, 84, 80
2, 874796, Note_off_c, 0, 84, 64
2, 874800, Note_on_c, 0, 83, 95
2, 875036, Note_off_c, 0, 83, 64
2, 875040, Note_on_c, 0, 81, 93
2, 875276, Note_off_c, 0, 81, 64
2, 875280, Note_on_c, 0, 79, 82
2, 875396, Note_off_c, 0, 79, 64
2, 875400, Note_on_c, 0, 77, 91
2, 875516, Note_off_c, 0, 77, 64
2, 875520, Note_on_c, 0, 76, 88
2, 875760, Note_off_c, 0, 76, 64
2, 875760, Note_on_c, 0, 77, 89
2, 875820, Note_off_c, 0, 77, 64
2, 875820, Note_on_c, 0, 76, 89
2, 875880, Note_off_c, 0, 76, 64
2, 875880, Note_on_c, 0, 77, 89
2, 876240, Note_off_c, 0, 77, 64
2, 876360, Note_on_c, 0, 74, 78
2, 876476, Note_off_c, 0, 74, 64
2, 876480, Note_on_c, 0, 79, 86
2, 876596, Note_off_c, 0, 79, 64
2, 876600, Note_on_c, 0, 81, 83
2, 876716, Note_off_c, 0, 81, 64
2, 876720, Note_on_c, 0, 83, 86
2, 876836, Note_off_c, 0, 83, 64
2, 876840, Note_on_c, 0, 84, 88
2, 876956, Note_off_c, 0, 84, 64
2, 876960, Note_on_c, 0, 86, 66
2, 877196, Note_off_c, 0, 86, 64
2, 877200, Note_on_c, 0, 84, 92
2, 877436, Note_off_c, 0, 84, 64
2, 877440, Note_on_c, 0, 83, 86
2, 877676, Note_off_c, 0, 83, 64
2, 877680, Note_on_c, 0, 81, 90
2, 877916, Note_off_c, 0, 81, 64
2, 877920, Note_on_c, 0, 79, 83
2, 878156, Note_off_c, 0, 79, 64
2, 878160, Note_on_c, 0, 77, 85
2, 878276, Note_off_c, 0, 77, 64
2, 878280, Note_on_c, 0, 76, 76
2, 878396, Note_off_c, 0, 76, 64
2, 878400, Note_on_c, 0, 74, 75
2, 878636, Note_off_c, 0, 74, 64
2, 878640, Note_on_c, 0, 76, 100
2, 879236, Note_off_c, 0, 76, 64
2, 879240, Note_on_c, 0, 74, 90
2, 879356, Note_off_c, 0, 74, 64
2, 879360, Note_on_c, 0, 72, 77
2, 879476, Note_off_c, 0, 72, 64
2, 879480, Note_on_c, 0, 71, 84
2, 879596, Note_off_c, 0, 71, 64
2, 879600, Note_on_c, 0, 72, 88
2, 879716, Note_off_c, 0, 72, 64
2, 879720, Note_on_c, 0, 74, 76
2, 879836, Note_off_c, 0, 74, 64
2, 879840, Note_on_c, 0, 76, 92
2, 880076, Note_off_c, 0, 76, 64
2, 880080, Note_on_c, 0, 74, 86
2, 880316, Note_off_c, 0, 74, 64
2, 880320, Note_on_c, 0, 79, 93
2, 880556, Note_off_c, 0, 79, 64
2, 880560, Note_on_c, 0, 76, 89
2, 880796, Note_off_c, 0, 76, 64
2, 880800, Note_on_c, 0, 72, 92
2, 881036, Note_off_c, 0, 72, 64
2, 881040, Note_on_c, 0, 71, 83
2, 881156, Note_off_c, 0, 71, 64
2, 881160, Note_on_c, 0, 69, 72
2, 881276, Note_off_c, 0, 69, 64
2, 881280, Note_on_c, 0, 67, 66
2, 881516, Note_off_c, 0, 67, 64
2, 881520, Note_on_c, 0, 69, 66
2, 882116, Note_off_c, 0, 69, 64
2, 882120, Note_on_c, 0, 67, 86
2, 882236, Note_off_c, 0, 67, 64
2, 882240, Note_on_c, 0, 69, 78
2, 882356, Note_off_c, 0, 69, 64
2, 882360, Note_on_c, 0, 71, 80
2, 882476, Note_off_c, 0, 71, 64
2, 882480, Note_on_c, 0, 72, 96
2, 882596, Note_off_c, 0, 72, 64
2, 882600, Note_on_c, 0, 66, 79
2, 882716, Note_off_c, 0, 66, 64
2, 882720, Note_on_c, 0, 67, 85
2, 882836, Note_off_c, 0, 67, 64
2, 882840, Note_on_c, 0, 69, 69
2, 882956, Note_off_c, 0, 69, 64
2, 882960, Note_on_c, 0, 62, 73
2, 883076, Note_off_c, 0, 62, 64
2, 883080, Note_on_c, 0, 66, 80
2, 883196, Note_off_c, 0, 66, 64
2, 883200, Note_on_c, 0, 64, 81
2, 883316, Note_off_c, 0, 64, 64
2, 883320, Note_on_c, 0, 62, 78
2, 883436, Note_off_c, 0, 62, 64
2, 883440, Note_on_c, 0, 69, 85
2, 883556, Note_off_c, 0, 69, 64
2, 883560, Note_on_c, 0, 67, 83
2, 883676, Note_off_c, 0, 67, 64
2, 883680, Note_on_c, 0, 66, 75
2, 883796, Note_off_c, 0, 66, 64
2, 883800, Note_on_c, 0, 72, 93
2, 883916, Note_off_c, 0, 72, 64
2, 883920, Note_on_c, 0, 72, 102
2, 884036, Note_off_c, 0, 72, 64
2, 884040, Note_on_c, 0, 71, 88
2, 884156, Note_off_c, 0, 71, 64
2, 884160, Note_on_c, 0, 69, 83
2, 884396, Note_off_c, 0, 69, 64
2, 884400, Note_on_c, 0, 71, 83
2, 884996, Note_off_c, 0, 71, 64
2, 885000, Note_on_c, 0, 69, 78
2, 885116, Note_off_c, 0, 69, 64
2, 885120, Note_on_c, 0, 67, 64
2, 885236, Note_off_c, 0, 67, 64
2, 885240, Note_on_c, 0, 66, 92
2, 885356, Note_off_c, 0, 66, 64
2, 885360, Note_on_c, 0, 67, 82
2, 885476, Note_off_c, 0, 67, 64
2, 885480, Note_on_c, 0, 71, 92
2, 885596, Note_off_c, 0, 71, 64
2, 885600, Note_on_c, 0, 74, 92
2, 885716, Note_off_c, 0, 74, 64
2, 885720, Note_on_c, 0, 78, 79
2, 885836, Note_off_c, 0, 78, 64
2, 885840, Note_on_c, 0, 79, 89
2, 885956, Note_off_c, 0, 79, 64
2, 885960, Note_on_c, 0, 78, 84
2, 886076, Note_off_c, 0, 78, 64
2, 886080, Note_on_c, 0, 76, 83
2, 886196, Note_off_c, 0, 76, 64
2, 886200, Note_on_c, 0, 74, 90
2, 886316, Note_off_c, 0, 74, 64
2, 886320, Note_on_c, 0, 78, 85
2, 886436, Note_off_c, 0, 78, 64
2, 886440, Note_on_c, 0, 81, 86
2, 886556, Note_off_c, 0, 81, 64
2, 886560, Note_on_c, 0, 83, 86
2, 886676, Note_off_c, 0, 83, 64
2, 886680, Note_on_c, 0, 84, 88
2, 886796, Note_off_c, 0, 84, 64
2, 886800, Note_on_c, 0, 83, 88
2, 886916, Note_off_c, 0, 83, 64
2, 886920, Note_on_c, 0, 81, 82
2, 887036, Note_off_c, 0, 81, 64
2, 887040, Note_on_c, 0, 79, 81
2, 887396, Note_off_c, 0, 79, 64
2, 887400, Note_on_c, 0, 78, 88
2, 887516, Note_off_c, 0, 78, 64
2, 887520, Note_on_c, 0, 76, 97
2, 887876, Note_off_c, 0, 76, 64
2, 887880, Note_on_c, 0, 75, 84
2, 887996, Note_off_c, 0, 75, 64
2, 888000, Note_on_c, 0, 76, 95
2, 888356, Note_off_c, 0, 76, 64
2, 888360, Note_on_c, 0, 78, 79
2, 888476, Note_off_c, 0, 78, 64
2, 888480, Note_on_c, 0, 79, 89
2, 888836, Note_off_c, 0, 79, 64
2, 888840, Note_on_c, 0, 81, 89
2, 888956, Note_off_c, 0, 81, 64
2, 888960, Note_on_c, 0, 83, 100
2, 889316, Note_off_c, 0, 83, 64
2, 889320, Note_on_c, 0, 79, 92
2, 889436, Note_off_c, 0, 79, 64
2, 889440, Note_on_c, 0, 78, 86
2, 889556, Note_off_c, 0, 78, 64
2, 889560, Note_on_c, 0, 76, 89
2, 889676, Note_off_c, 0, 76, 64
2, 889680, Note_on_c, 0, 81, 91
2, 889796, Note_off_c, 0, 81, 64
2, 889800, Note_on_c, 0, 79, 92
2, 889916, Note_off_c, 0, 79, 64
2, 889920, Note_on_c, 0, 78, 86
2, 890276, Note_off_c, 0, 78, 64
2, 890280, Note_on_c, 0, 76, 82
2, 890396, Note_off_c, 0, 76, 64
2, 890400, Note_on_c, 0, 74, 83
2, 890756, Note_off_c, 0, 74, 64
2, 890760, Note_on_c, 0, 73, 77
2, 890876, Note_off_c, 0, 73, 64
2, 890880, Note_on_c, 0, 74, 92
2, 891236, Note_off_c, 0, 74, 64
2, 891240, Note_on_c, 0, 76, 90
2, 891356, Note_off_c, 0, 76, 64
2, 891360, Note_on_c, 0, 78, 86
2, 891716, Note_off_c, 0, 78, 64
2, 891720, Note_on_c, 0, 79, 90
2, 891836, Note_off_c, 0, 79, 64
2, 891840, Note_on_c, 0, 81, 101
2, 892196, Note_off_c, 0, 81, 64
2, 892200, Note_on_c, 0, 78, 89
2, 892316, Note_off_c, 0, 78, 64
2, 892320, Note_on_c, 0, 76, 81
2, 892436, Note_off_c, 0, 76, 64
2, 892440, Note_on_c, 0, 74, 81
2, 892556, Note_off_c, 0, 74, 64
2, 892560, Note_on_c, 0, 79, 85
2, 892676, Note_off_c, 0, 79, 64
2, 892680, Note_on_c, 0, 81, 82
2, 892796, Note_off_c, 0, 81, 64
2, 892800, Note_on_c, 0, 83, 91
2, 892916, Note_off_c, 0, 83, 64
2, 892920, Note_on_c, 0, 81, 76
2, 893036, Note_off_c, 0, 81, 64
2, 893040, Note_on_c, 0, 79, 84
2, 893156, Note_off_c, 0, 79, 64
2, 893280, Note_on_c, 0, 78, 79
2, 893396, Note_off_c, 0, 78, 64
2, 893520, Note_on_c, 0, 76, 76
2, 893636, Note_off_c, 0, 76, 64
2, 893640, Note_on_c, 0, 78, 73
2, 893756, Note_off_c, 0, 78, 64
2, 893760, Note_on_c, 0, 79, 76
2, 893876, Note_off_c, 0, 79, 64
2, 893880, Note_on_c, 0, 78, 68
2, 893996, Note_off_c, 0, 78, 64
2, 894000, Note_on_c, 0, 76, 66
2, 894116, Note_off_c, 0, 76, 64
2, 894240, Note_on_c, 0, 74, 66
2, 894356, Note_off_c, 0, 74, 64
2, 894480, Note_on_c, 0, 73, 67
2, 894596, Note_off_c, 0, 73, 64
2, 894600, Note_on_c, 0, 74, 70
2, 894716, Note_off_c, 0, 74, 64
2, 894720, Note_on_c, 0, 76, 69
2, 894836, Note_off_c, 0, 76, 64
2, 894840, Note_on_c, 0, 74, 69
2, 894956, Note_off_c, 0, 74, 64
2, 894960, Note_on_c, 0, 73, 71
2, 895076, Note_off_c, 0, 73, 64
2, 895200, Note_on_c, 0, 71, 76
2, 895316, Note_off_c, 0, 71, 64
2, 895440, Note_on_c, 0, 71, 89
2, 895560, Note_off_c, 0, 71, 64
2, 895560, Note_on_c, 0, 69, 66
2, 895620, Note_off_c, 0, 69, 64
2, 895620, Note_on_c, 0, 71, 66
2, 895680, Note_off_c, 0, 71, 64
2, 895680, Note_on_c, 0, 69, 76
2, 896640, Note_off_c, 0, 69, 64
2, 897000, Note_on_c, 0, 73, 80
2, 897116, Note_off_c, 0, 73, 64
2, 897120, Note_on_c, 0, 71, 75
2, 897236, Note_off_c, 0, 71, 64
2, 897240, Note_on_c, 0, 69, 74
2, 897356, Note_off_c, 0, 69, 64
2, 897360, Note_on_c, 0, 71, 78
2, 897476, Note_off_c, 0, 71, 64
2, 897480, Note_on_c, 0, 73, 69
2, 897596, Note_off_c, 0, 73, 64
2, 897600, Note_on_c, 0, 74, 62
2, 897716, Note_off_c, 0, 74, 64
2, 897720, Note_on_c, 0, 76, 82
2, 897836, Note_off_c, 0, 76, 64
2, 897840, Note_on_c, 0, 78, 75
2, 897956, Note_off_c, 0, 78, 64
2, 897960, Note_on_c, 0, 79, 78
2, 898076, Note_off_c, 0, 79, 64
2, 898080, Note_on_c, 0, 81, 92
2, 898140, Note_off_c, 0, 81, 64
2, 898140, Note_on_c, 0, 79, 80
2, 898200, Note_off_c, 0, 79, 64
2, 898200, Note_on_c, 0, 78, 76
2, 898260, Note_off_c, 0, 78, 64
2, 898260, Note_on_c, 0, 79, 78
2, 898320, Note_off_c, 0, 79, 64
2, 898320, Note_on_c, 0, 81, 97
2, 898436, Note_off_c, 0, 81, 64
2, 898440, Note_on_c, 0, 74, 71
2, 898556, Note_off_c, 0, 74, 64
2, 898560, Note_on_c, 0, 73, 53
2, 898676, Note_off_c, 0, 73, 64
2, 898680, Note_on_c, 0, 74, 65
2, 898796, Note_off_c, 0, 74, 64
2, 898800, Note_on_c, 0, 76, 83
2, 898916, Note_off_c, 0, 76, 64
2, 898920, Note_on_c, 0, 74, 73
2, 899036, Note_off_c, 0, 74, 64
2, 899040, Note_on_c, 0, 73, 86
2, 899156, Note_off_c, 0, 73, 64
2, 899160, Note_on_c, 0, 74, 86
2, 899276, Note_off_c, 0, 74, 64
2, 899276, Note_on_c, 0, 69, 82
2, 899392, Note_on_c, 0, 74, 78
2, 899404, Note_off_c, 0, 69, 64
2, 899504, Note_off_c, 0, 74, 64
2, 899508, Note_on_c, 0, 67, 82
2, 899620, Note_on_c, 0, 74, 85
2, 899632, Note_off_c, 0, 67, 64
2, 899740, Note_on_c, 0, 66, 84
2, 899752, Note_off_c, 0, 74, 64
2, 899868, Note_on_c, 0, 74, 90
2, 899876, Note_off_c, 0, 66, 64
2, 899980, Note_off_c, 0, 74, 64
2, 899988, Note_on_c, 0, 64, 83
2, 900104, Note_on_c, 0, 74, 89
2, 900120, Note_off_c, 0, 64, 64
2, 900224, Note_on_c, 0, 66, 85
2, 900228, Note_off_c, 0, 74, 64
2, 900348, Note_on_c, 0, 74, 88
2, 900352, Note_off_c, 0, 66, 64
2, 900464, Note_on_c, 0, 69, 86
2, 900476, Note_off_c, 0, 74, 64
2, 900584, Note_on_c, 0, 74, 93
2, 900592, Note_off_c, 0, 69, 64
2, 900712, Note_on_c, 0, 66, 89
2, 900716, Note_off_c, 0, 74, 64
2, 900832, Note_on_c, 0, 74, 92
2, 900852, Note_off_c, 0, 66, 64
2, 900948, Note_off_c, 0, 74, 64
2, 900952, Note_on_c, 0, 62, 84
2, 901072, Note_on_c, 0, 72, 93
2, 901084, Note_off_c, 0, 62, 64
2, 901200, Note_on_c, 0, 71, 95
2, 901208, Note_off_c, 0, 72, 64
2, 901316, Note_off_c, 0, 71, 64
2, 901320, Note_on_c, 0, 74, 90
2, 901436, Note_off_c, 0, 74, 64
2, 901440, Note_on_c, 0, 73, 82
2, 901556, Note_off_c, 0, 73, 64
2, 901560, Note_on_c, 0, 74, 88
2, 901676, Note_off_c, 0, 74, 64
2, 901680, Note_on_c, 0, 76, 86
2, 901796, Note_off_c, 0, 76, 64
2, 901800, Note_on_c, 0, 74, 74
2, 901916, Note_off_c, 0, 74, 64
2, 901920, Note_on_c, 0, 73, 75
2, 902036, Note_off_c, 0, 73, 64
2, 902040, Note_on_c, 0, 74, 78
2, 902156, Note_off_c, 0, 74, 64
2, 902160, Note_on_c, 0, 71, 85
2, 902276, Note_off_c, 0, 71, 64
2, 902280, Note_on_c, 0, 74, 82
2, 902396, Note_off_c, 0, 74, 64
2, 902400, Note_on_c, 0, 69, 64
2, 902516, Note_off_c, 0, 69, 64
2, 902520, Note_on_c, 0, 74, 80
2, 902636, Note_off_c, 0, 74, 64
2, 902640, Note_on_c, 0, 67, 71
2, 902756, Note_off_c, 0, 67, 64
2, 902760, Note_on_c, 0, 74, 76
2, 902876, Note_off_c, 0, 74, 64
2, 902880, Note_on_c, 0, 66, 84
2, 902996, Note_off_c, 0, 66, 64
2, 903000, Note_on_c, 0, 74, 80
2, 903116, Note_off_c, 0, 74, 64
2, 903120, Note_on_c, 0, 67, 78
2, 903236, Note_off_c, 0, 67, 64
2, 903240, Note_on_c, 0, 74, 72
2, 903356, Note_off_c, 0, 74, 64
2, 903360, Note_on_c, 0, 71, 80
2, 903476, Note_off_c, 0, 71, 64
2, 903480, Note_on_c, 0, 74, 78
2, 903596, Note_off_c, 0, 74, 64
2, 903600, Note_on_c, 0, 67, 72
2, 903716, Note_off_c, 0, 67, 64
2, 903720, Note_on_c, 0, 74, 82
2, 903836, Note_off_c, 0, 74, 64
2, 903840, Note_on_c, 0, 64, 62
2, 903956, Note_off_c, 0, 64, 64
2, 903960, Note_on_c, 0, 74, 68
2, 904076, Note_off_c, 0, 74, 64
2, 904080, Note_on_c, 0, 73, 84
2, 904140, Note_off_c, 0, 73, 64
2, 904200, Note_on_c, 0, 67, 85
2, 904316, Note_off_c, 0, 67, 64
2, 904320, Note_on_c, 0, 66, 83
2, 904436, Note_off_c, 0, 66, 64
2, 904440, Note_on_c, 0, 67, 82
2, 904556, Note_off_c, 0, 67, 64
2, 904560, Note_on_c, 0, 69, 81
2, 904676, Note_off_c, 0, 69, 64
2, 904680, Note_on_c, 0, 67, 75
2, 904796, Note_off_c, 0, 67, 64
2, 904800, Note_on_c, 0, 66, 88
2, 904920, Note_off_c, 0, 66, 64
2, 904920, Note_on_c, 0, 67, 88
2, 905040, Note_off_c, 0, 67, 64
2, 905040, Note_on_c, 0, 76, 88
2, 905156, Note_off_c, 0, 76, 64
2, 905160, Note_on_c, 0, 73, 89
2, 905276, Note_off_c, 0, 73, 64
2, 905280, Note_on_c, 0, 71, 59
2, 905396, Note_off_c, 0, 71, 64
2, 905400, Note_on_c, 0, 73, 64
2, 905516, Note_off_c, 0, 73, 64
2, 905520, Note_on_c, 0, 74, 92
2, 905636, Note_off_c, 0, 74, 64
2, 905640, Note_on_c, 0, 73, 76
2, 905756, Note_off_c, 0, 73, 64
2, 905760, Note_on_c, 0, 71, 92
2, 905876, Note_off_c, 0, 71, 64
2, 905880, Note_on_c, 0, 73, 77
2, 905996, Note_off_c, 0, 73, 64
2, 906000, Note_on_c, 0, 79, 93
2, 906060, Note_off_c, 0, 79, 64
2, 906120, Note_on_c, 0, 76, 95
2, 906236, Note_off_c, 0, 76, 64
2, 906240, Note_on_c, 0, 74, 75
2, 906356, Note_off_c, 0, 74, 64
2, 906360, Note_on_c, 0, 76, 84
2, 906476, Note_off_c, 0, 76, 64
2, 906480, Note_on_c, 0, 81, 86
2, 906600, Note_off_c, 0, 81, 64
2, 906600, Note_on_c, 0, 79, 86
2, 906720, Note_off_c, 0, 79, 64
2, 906720, Note_on_c, 0, 78, 74
2, 906836, Note_off_c, 0, 78, 64
2, 906840, Note_on_c, 0, 76, 74
2, 906956, Note_off_c, 0, 76, 64
2, 906960, Note_on_c, 0, 78, 85
2, 907196, Note_off_c, 0, 78, 64
2, 907200, Note_on_c, 0, 73, 75
2, 907436, Note_off_c, 0, 73, 64
2, 907440, Note_on_c, 0, 73, 86
2, 907676, Note_off_c, 0, 73, 64
2, 907680, Note_on_c, 0, 74, 67
2, 907916, Note_off_c, 0, 74, 64
2, 907920, Note_on_c, 0, 74, 98
2, 908156, Note_off_c, 0, 74, 64
2, 908160, Note_on_c, 0, 67, 79
2, 908396, Note_off_c, 0, 67, 64
2, 908400, Note_on_c, 0, 67, 79
2, 908636, Note_off_c, 0, 67, 64
2, 908640, Note_on_c, 0, 66, 79
2, 908876, Note_off_c, 0, 66, 64
2, 908880, Note_on_c, 0, 66, 84
2, 909840, Note_off_c, 0, 66, 64
2, 909840, Note_on_c, 0, 79, 106
2, 909956, Note_off_c, 0, 79, 64
2, 909960, Note_on_c, 0, 81, 93
2, 910076, Note_off_c, 0, 81, 64
2, 910080, Note_on_c, 0, 79, 73
2, 910196, Note_off_c, 0, 79, 64
2, 910200, Note_on_c, 0, 78, 88
2, 910316, Note_off_c, 0, 78, 64
2, 910320, Note_on_c, 0, 79, 95
2, 910796, Note_off_c, 0, 79, 64
2, 910920, Note_on_c, 0, 66, 96
2, 911036, Note_off_c, 0, 66, 64
2, 911040, Note_on_c, 0, 67, 85
2, 911156, Note_off_c, 0, 67, 64
2, 911160, Note_on_c, 0, 69, 82
2, 911276, Note_off_c, 0, 69, 64
2, 911280, Note_on_c, 0, 71, 91
2, 911516, Note_off_c, 0, 71, 64
2, 911520, Note_on_c, 0, 72, 92
2, 911756, Note_off_c, 0, 72, 64
2, 911760, Note_on_c, 0, 74, 85
2, 911876, Note_off_c, 0, 74, 64
2, 911880, Note_on_c, 0, 72, 81
2, 911996, Note_off_c, 0, 72, 64
2, 912000, Note_on_c, 0, 71, 78
2, 912236, Note_off_c, 0, 71, 64
2, 912240, Note_on_c, 0, 69, 77
2, 912476, Note_off_c, 0, 69, 64
2, 912480, Note_on_c, 0, 67, 95
2, 912716, Note_off_c, 0, 67, 64
2, 912720, Note_on_c, 0, 76, 88
2, 912836, Note_off_c, 0, 76, 64
2, 912840, Note_on_c, 0, 78, 85
2, 912956, Note_off_c, 0, 78, 64
2, 912960, Note_on_c, 0, 76, 86
2, 913076, Note_off_c, 0, 76, 64
2, 913080, Note_on_c, 0, 75, 89
2, 913196, Note_off_c, 0, 75, 64
2, 913200, Note_on_c, 0, 76, 91
2, 913916, Note_off_c, 0, 76, 64
2, 913920, Note_on_c, 0, 80, 92
2, 914156, Note_off_c, 0, 80, 64
2, 914160, Note_on_c, 0, 80, 93
2, 914396, Note_off_c, 0, 80, 64
2, 914400, Note_on_c, 0, 81, 95
2, 914636, Note_off_c, 0, 81, 64
2, 914640, Note_on_c, 0, 81, 86
2, 914876, Note_off_c, 0, 81, 64
2, 914880, Note_on_c, 0, 83, 89
2, 915120, Note_off_c, 0, 83, 64
2, 915120, Note_on_c, 0, 83, 91
2, 915356, Note_off_c, 0, 83, 64
2, 915360, Note_on_c, 0, 84, 85
2, 915596, Note_off_c, 0, 84, 64
2, 915600, Note_on_c, 0, 76, 102
2, 915720, Note_off_c, 0, 76, 64
2, 915720, Note_on_c, 0, 75, 68
2, 915840, Note_off_c, 0, 75, 64
2, 915840, Note_on_c, 0, 73, 99
2, 915944, Note_on_c, 0, 75, 75
2, 915960, Note_off_c, 0, 73, 64
2, 915992, Note_off_c, 0, 75, 64
2, 915992, Note_on_c, 0, 73, 97
2, 916056, Note_on_c, 0, 75, 104
2, 916060, Note_off_c, 0, 73, 64
2, 917076, Note_off_c, 0, 75, 64
2, 917160, Note_on_c, 0, 75, 84
2, 917280, Note_off_c, 0, 75, 64
2, 917280, Note_on_c, 0, 76, 57
2, 917400, Note_off_c, 0, 76, 64
2, 917400, Note_on_c, 0, 78, 65
2, 917520, Note_off_c, 0, 78, 64
2, 917520, Note_on_c, 0, 76, 77
2, 917640, Note_off_c, 0, 76, 64
2, 917640, Note_on_c, 0, 75, 62
2, 917760, Note_off_c, 0, 75, 64
2, 917760, Note_on_c, 0, 73, 47
2, 917880, Note_off_c, 0, 73, 64
2, 917880, Note_on_c, 0, 71, 49
2, 918000, Note_off_c, 0, 71, 64
2, 918000, Note_on_c, 0, 69, 47
2, 918120, Note_off_c, 0, 69, 64
2, 918120, Note_on_c, 0, 67, 71
2, 918240, Note_off_c, 0, 67, 64
2, 918240, Note_on_c, 0, 69, 71
2, 918360, Note_off_c, 0, 69, 64
2, 918360, Note_on_c, 0, 78, 71
2, 918480, Note_off_c, 0, 78, 64
2, 918480, Note_on_c, 0, 67, 80
2, 918540, Note_off_c, 0, 67, 64
2, 918600, Note_on_c, 0, 76, 101
2, 918716, Note_off_c, 0, 76, 64
2, 918720, Note_on_c, 0, 75, 78
2, 918836, Note_off_c, 0, 75, 64
2, 918840, Note_on_c, 0, 76, 88
2, 918956, Note_off_c, 0, 76, 64
2, 918960, Note_on_c, 0, 77, 93
2, 919080, Note_off_c, 0, 77, 64
2, 919080, Note_on_c, 0, 76, 91
2, 919196, Note_off_c, 0, 76, 64
2, 919200, Note_on_c, 0, 75, 85
2, 919316, Note_off_c, 0, 75, 64
2, 919320, Note_on_c, 0, 76, 85
2, 919436, Note_off_c, 0, 76, 64
2, 919440, Note_on_c, 0, 78, 102
2, 919556, Note_off_c, 0, 78, 64
2, 919560, Note_on_c, 0, 76, 76
2, 919676, Note_off_c, 0, 76, 64
2, 919680, Note_on_c, 0, 79, 88
2, 919796, Note_off_c, 0, 79, 64
2, 919800, Note_on_c, 0, 76, 84
2, 919916, Note_off_c, 0, 76, 64
2, 919920, Note_on_c, 0, 81, 93
2, 920036, Note_off_c, 0, 81, 64
2, 920040, Note_on_c, 0, 76, 78
2, 920156, Note_off_c, 0, 76, 64
2, 920160, Note_on_c, 0, 83, 97
2, 920276, Note_off_c, 0, 83, 64
2, 920280, Note_on_c, 0, 76, 84
2, 920396, Note_off_c, 0, 76, 64
2, 920400, Note_on_c, 0, 84, 73
2, 920516, Note_off_c, 0, 84, 64
2, 920520, Note_on_c, 0, 76, 83
2, 920636, Note_off_c, 0, 76, 64
2, 920640, Note_on_c, 0, 86, 89
2, 920756, Note_off_c, 0, 86, 64
2, 920760, Note_on_c, 0, 76, 75
2, 920876, Note_off_c, 0, 76, 64
2, 920880, Note_on_c, 0, 84, 91
2, 920996, Note_off_c, 0, 84, 64
2, 921000, Note_on_c, 0, 76, 72
2, 921116, Note_off_c, 0, 76, 64
2, 921120, Note_on_c, 0, 83, 95
2, 921236, Note_off_c, 0, 83, 64
2, 921240, Note_on_c, 0, 76, 82
2, 921356, Note_off_c, 0, 76, 64
2, 921360, Note_on_c, 0, 84, 102
2, 921420, Note_off_c, 0, 84, 64
2, 921480, Note_on_c, 0, 76, 93
2, 921596, Note_off_c, 0, 76, 64
2, 921600, Note_on_c, 0, 75, 84
2, 921716, Note_off_c, 0, 75, 64
2, 921720, Note_on_c, 0, 76, 85
2, 921836, Note_off_c, 0, 76, 64
2, 921840, Note_on_c, 0, 77, 93
2, 921956, Note_off_c, 0, 77, 64
2, 921960, Note_on_c, 0, 76, 81
2, 922076, Note_off_c, 0, 76, 64
2, 922080, Note_on_c, 0, 75, 92
2, 922196, Note_off_c, 0, 75, 64
2, 922200, Note_on_c, 0, 76, 95
2, 922316, Note_off_c, 0, 76, 64
2, 922320, Note_on_c, 0, 84, 97
2, 922436, Note_off_c, 0, 84, 64
2, 922440, Note_on_c, 0, 76, 78
2, 922556, Note_off_c, 0, 76, 64
2, 922560, Note_on_c, 0, 83, 92
2, 922676, Note_off_c, 0, 83, 64
2, 922680, Note_on_c, 0, 76, 74
2, 922796, Note_off_c, 0, 76, 64
2, 922800, Note_on_c, 0, 81, 95
2, 922916, Note_off_c, 0, 81, 64
2, 922920, Note_on_c, 0, 76, 80
2, 923036, Note_off_c, 0, 76, 64
2, 923040, Note_on_c, 0, 79, 86
2, 923156, Note_off_c, 0, 79, 64
2, 923160, Note_on_c, 0, 76, 72
2, 923276, Note_off_c, 0, 76, 64
2, 923280, Note_on_c, 0, 78, 89
2, 923396, Note_off_c, 0, 78, 64
2, 923400, Note_on_c, 0, 76, 74
2, 923516, Note_off_c, 0, 76, 64
2, 923520, Note_on_c, 0, 79, 81
2, 923636, Note_off_c, 0, 79, 64
2, 923640, Note_on_c, 0, 76, 80
2, 923756, Note_off_c, 0, 76, 64
2, 923760, Note_on_c, 0, 81, 92
2, 923876, Note_off_c, 0, 81, 64
2, 923880, Note_on_c, 0, 76, 80
2, 923996, Note_off_c, 0, 76, 64
2, 924000, Note_on_c, 0, 75, 90
2, 924116, Note_off_c, 0, 75, 64
2, 924120, Note_on_c, 0, 73, 90
2, 924236, Note_off_c, 0, 73, 64
2, 924240, Note_on_c, 0, 75, 94
2, 924300, Note_off_c, 0, 75, 64
2, 924360, Note_on_c, 0, 81, 92
2, 924476, Note_off_c, 0, 81, 64
2, 924480, Note_on_c, 0, 79, 94
2, 924596, Note_off_c, 0, 79, 64
2, 924600, Note_on_c, 0, 81, 88
2, 924716, Note_off_c, 0, 81, 64
2, 924720, Note_on_c, 0, 83, 100
2, 924836, Note_off_c, 0, 83, 64
2, 924840, Note_on_c, 0, 81, 95
2, 924956, Note_off_c, 0, 81, 64
2, 924960, Note_on_c, 0, 79, 91
2, 925076, Note_off_c, 0, 79, 64
2, 925080, Note_on_c, 0, 81, 98
2, 925196, Note_off_c, 0, 81, 64
2, 925200, Note_on_c, 0, 71, 65
2, 925260, Note_off_c, 0, 71, 64
2, 925320, Note_on_c, 0, 79, 90
2, 925436, Note_off_c, 0, 79, 64
2, 925440, Note_on_c, 0, 78, 77
2, 925556, Note_off_c, 0, 78, 64
2, 925560, Note_on_c, 0, 79, 82
2, 925676, Note_off_c, 0, 79, 64
2, 925680, Note_on_c, 0, 81, 91
2, 925796, Note_off_c, 0, 81, 64
2, 925800, Note_on_c, 0, 79, 85
2, 925916, Note_off_c, 0, 79, 64
2, 925920, Note_on_c, 0, 78, 64
2, 926036, Note_off_c, 0, 78, 64
2, 926040, Note_on_c, 0, 79, 91
2, 926156, Note_off_c, 0, 79, 64
2, 926160, Note_on_c, 0, 69, 90
2, 926220, Note_off_c, 0, 69, 64
2, 926280, Note_on_c, 0, 78, 97
2, 926396, Note_off_c, 0, 78, 64
2, 926400, Note_on_c, 0, 76, 95
2, 926516, Note_off_c, 0, 76, 64
2, 926520, Note_on_c, 0, 78, 84
2, 926636, Note_off_c, 0, 78, 64
2, 926640, Note_on_c, 0, 79, 88
2, 926756, Note_off_c, 0, 79, 64
2, 926760, Note_on_c, 0, 81, 93
2, 926876, Note_off_c, 0, 81, 64
2, 926880, Note_on_c, 0, 79, 83
2, 926996, Note_off_c, 0, 79, 64
2, 927000, Note_on_c, 0, 78, 85
2, 927116, Note_off_c, 0, 78, 64
2, 927120, Note_on_c, 0, 79, 96
2, 927356, Note_off_c, 0, 79, 64
2, 927360, Note_on_c, 0, 75, 94
2, 927596, Note_off_c, 0, 75, 64
2, 927600, Note_on_c, 0, 75, 81
2, 927836, Note_off_c, 0, 75, 64
2, 927840, Note_on_c, 0, 76, 93
2, 928076, Note_off_c, 0, 76, 64
2, 928080, Note_on_c, 0, 76, 89
2, 928316, Note_off_c, 0, 76, 64
2, 928320, Note_on_c, 0, 69, 85
2, 928556, Note_off_c, 0, 69, 64
2, 928560, Note_on_c, 0, 69, 92
2, 928796, Note_off_c, 0, 69, 64
2, 928800, Note_on_c, 0, 67, 84
2, 929036, Note_off_c, 0, 67, 64
2, 929040, Note_on_c, 0, 67, 100
2, 929636, Note_off_c, 0, 67, 64
2, 929640, Note_on_c, 0, 71, 101
2, 929756, Note_off_c, 0, 71, 64
2, 929760, Note_on_c, 0, 72, 93
2, 929876, Note_off_c, 0, 72, 64
2, 929880, Note_on_c, 0, 74, 93
2, 929996, Note_off_c, 0, 74, 64
2, 930000, Note_on_c, 0, 76, 70
2, 930116, Note_off_c, 0, 76, 64
2, 930120, Note_on_c, 0, 77, 92
2, 930236, Note_off_c, 0, 77, 64
2, 930240, Note_on_c, 0, 76, 91
2, 930356, Note_off_c, 0, 76, 64
2, 930360, Note_on_c, 0, 75, 91
2, 930476, Note_off_c, 0, 75, 64
2, 930480, Note_on_c, 0, 76, 100
2, 930960, Note_off_c, 0, 76, 64
2, 931200, Note_on_c, 0, 69, 98
2, 931436, Note_off_c, 0, 69, 64
2, 931440, Note_on_c, 0, 71, 78
2, 931560, Note_off_c, 0, 71, 64
2, 931560, Note_on_c, 0, 69, 78
2, 931680, Note_off_c, 0, 69, 64
2, 931680, Note_on_c, 0, 67, 93
2, 931920, Note_off_c, 0, 67, 64
2, 931920, Note_on_c, 0, 69, 81
2, 932040, Note_off_c, 0, 69, 64
2, 932040, Note_on_c, 0, 67, 75
2, 932156, Note_off_c, 0, 67, 64
2, 932160, Note_on_c, 0, 66, 75
2, 932400, Note_off_c, 0, 66, 64
2, 932400, Note_on_c, 0, 66, 102
2, 932636, Note_off_c, 0, 66, 64
2, 932640, Note_on_c, 0, 76, 119
2, 932876, Note_off_c, 0, 76, 64
2, 932880, Note_on_c, 0, 74, 101
2, 932996, Note_off_c, 0, 74, 64
2, 933000, Note_on_c, 0, 76, 78
2, 933116, Note_off_c, 0, 76, 64
2, 933120, Note_on_c, 0, 74, 83
2, 933236, Note_off_c, 0, 74, 64
2, 933240, Note_on_c, 0, 73, 94
2, 933356, Note_off_c, 0, 73, 64
2, 933360, Note_on_c, 0, 74, 85
2, 933956, Note_off_c, 0, 74, 64
2, 934080, Note_on_c, 0, 67, 98
2, 934316, Note_off_c, 0, 67, 64
2, 934320, Note_on_c, 0, 69, 68
2, 934436, Note_off_c, 0, 69, 64
2, 934440, Note_on_c, 0, 67, 83
2, 934556, Note_off_c, 0, 67, 64
2, 934560, Note_on_c, 0, 65, 90
2, 934796, Note_off_c, 0, 65, 64
2, 934800, Note_on_c, 0, 67, 84
2, 934916, Note_off_c, 0, 67, 64
2, 934920, Note_on_c, 0, 65, 61
2, 935036, Note_off_c, 0, 65, 64
2, 935040, Note_on_c, 0, 64, 93
2, 935276, Note_off_c, 0, 64, 64
2, 935280, Note_on_c, 0, 64, 92
2, 935516, Note_off_c, 0, 64, 64
2, 935520, Note_on_c, 0, 74, 97
2, 935756, Note_off_c, 0, 74, 64
2, 935760, Note_on_c, 0, 72, 91
2, 935820, Note_off_c, 0, 72, 64
2, 935880, Note_on_c, 0, 71, 57
2, 935940, Note_off_c, 0, 71, 64
2, 936000, Note_on_c, 0, 69, 73
2, 936356, Note_off_c, 0, 69, 64
2, 936360, Note_on_c, 0, 67, 74
2, 936476, Note_off_c, 0, 67, 64
2, 936480, Note_on_c, 0, 66, 70
2, 936836, Note_off_c, 0, 66, 64
2, 936840, Note_on_c, 0, 64, 73
2, 936956, Note_off_c, 0, 64, 64
2, 936960, Note_on_c, 0, 62, 78
2, 937316, Note_off_c, 0, 62, 64
2, 937320, Note_on_c, 0, 64, 82
2, 937436, Note_off_c, 0, 64, 64
2, 937440, Note_on_c, 0, 66, 77
2, 937796, Note_off_c, 0, 66, 64
2, 937800, Note_on_c, 0, 67, 80
2, 937916, Note_off_c, 0, 67, 64
2, 937920, Note_on_c, 0, 69, 80
2, 938276, Note_off_c, 0, 69, 64
2, 938280, Note_on_c, 0, 71, 89
2, 938396, Note_off_c, 0, 71, 64
2, 938400, Note_on_c, 0, 72, 91
2, 938756, Note_off_c, 0, 72, 64
2, 938760, Note_on_c, 0, 74, 85
2, 938876, Note_off_c, 0, 74, 64
2, 938880, Note_on_c, 0, 72, 81
2, 938996, Note_off_c, 0, 72, 64
2, 939000, Note_on_c, 0, 71, 77
2, 939116, Note_off_c, 0, 71, 64
2, 939120, Note_on_c, 0, 72, 81
2, 939236, Note_off_c, 0, 72, 64
2, 939240, Note_on_c, 0, 79, 13
2, 939356, Note_off_c, 0, 79, 64
2, 939360, Note_on_c, 0, 78, 84
2, 939476, Note_off_c, 0, 78, 64
2, 939480, Note_on_c, 0, 76, 65
2, 939596, Note_off_c, 0, 76, 64
2, 939600, Note_on_c, 0, 78, 68
2, 939716, Note_off_c, 0, 78, 64
2, 939720, Note_on_c, 0, 83, 93
2, 939836, Note_off_c, 0, 83, 64
2, 939840, Note_on_c, 0, 81, 92
2, 939956, Note_off_c, 0, 81, 64
2, 939960, Note_on_c, 0, 79, 81
2, 940076, Note_off_c, 0, 79, 64
2, 940080, Note_on_c, 0, 81, 84
2, 940196, Note_off_c, 0, 81, 64
2, 940200, Note_on_c, 0, 86, 93
2, 940316, Note_off_c, 0, 86, 64
2, 940320, Note_on_c, 0, 84, 82
2, 940436, Note_off_c, 0, 84, 64
2, 940440, Note_on_c, 0, 83, 90
2, 940556, Note_off_c, 0, 83, 64
2, 940560, Note_on_c, 0, 84, 92
2, 940676, Note_off_c, 0, 84, 64
2, 940680, Note_on_c, 0, 83, 95
2, 940796, Note_off_c, 0, 83, 64
2, 940800, Note_on_c, 0, 81, 93
2, 940916, Note_off_c, 0, 81, 64
2, 940920, Note_on_c, 0, 79, 70
2, 941036, Note_off_c, 0, 79, 64
2, 941040, Note_on_c, 0, 78, 93
2, 941156, Note_off_c, 0, 78, 64
2, 941160, Note_on_c, 0, 76, 88
2, 941276, Note_off_c, 0, 76, 64
2, 941280, Note_on_c, 0, 74, 58
2, 941396, Note_off_c, 0, 74, 64
2, 941400, Note_on_c, 0, 72, 66
2, 941516, Note_off_c, 0, 72, 64
2, 941520, Note_on_c, 0, 71, 81
2, 941580, Note_off_c, 0, 71, 64
2, 941640, Note_on_c, 0, 79, 93
2, 941756, Note_off_c, 0, 79, 64
2, 941760, Note_on_c, 0, 78, 99
2, 941876, Note_off_c, 0, 78, 64
2, 941880, Note_on_c, 0, 79, 100
2, 941996, Note_off_c, 0, 79, 64
2, 942000, Note_on_c, 0, 81, 104
2, 942116, Note_off_c, 0, 81, 64
2, 942120, Note_on_c, 0, 79, 96
2, 942236, Note_off_c, 0, 79, 64
2, 942240, Note_on_c, 0, 78, 94
2, 942356, Note_off_c, 0, 78, 64
2, 942360, Note_on_c, 0, 79, 90
2, 942476, Note_off_c, 0, 79, 64
2, 942480, Note_on_c, 0, 72, 91
2, 942540, Note_off_c, 0, 72, 64
2, 942600, Note_on_c, 0, 78, 88
2, 942716, Note_off_c, 0, 78, 64
2, 942720, Note_on_c, 0, 76, 91
2, 942836, Note_off_c, 0, 76, 64
2, 942840, Note_on_c, 0, 78, 79
2, 942956, Note_off_c, 0, 78, 64
2, 942960, Note_on_c, 0, 79, 91
2, 943076, Note_off_c, 0, 79, 64
2, 943080, Note_on_c, 0, 78, 77
2, 943196, Note_off_c, 0, 78, 64
2, 943200, Note_on_c, 0, 76, 54
2, 943316, Note_off_c, 0, 76, 64
2, 943320, Note_on_c, 0, 78, 69
2, 943436, Note_off_c, 0, 78, 64
2, 943440, Note_on_c, 0, 74, 81
2, 943500, Note_off_c, 0, 74, 64
2, 943560, Note_on_c, 0, 77, 91
2, 943676, Note_off_c, 0, 77, 64
2, 943680, Note_on_c, 0, 76, 86
2, 943796, Note_off_c, 0, 76, 64
2, 943800, Note_on_c, 0, 77, 86
2, 943916, Note_off_c, 0, 77, 64
2, 943920, Note_on_c, 0, 79, 89
2, 944036, Note_off_c, 0, 79, 64
2, 944040, Note_on_c, 0, 77, 91
2, 944156, Note_off_c, 0, 77, 64
2, 944160, Note_on_c, 0, 76, 80
2, 944276, Note_off_c, 0, 76, 64
2, 944280, Note_on_c, 0, 74, 64
2, 944396, Note_off_c, 0, 74, 64
2, 944400, Note_on_c, 0, 76, 71
2, 944460, Note_off_c, 0, 76, 64
2, 944520, Note_on_c, 0, 72, 82
2, 944636, Note_off_c, 0, 72, 64
2, 944640, Note_on_c, 0, 71, 80
2, 944756, Note_off_c, 0, 71, 64
2, 944760, Note_on_c, 0, 72, 88
2, 944876, Note_off_c, 0, 72, 64
2, 944880, Note_on_c, 0, 74, 81
2, 944996, Note_off_c, 0, 74, 64
2, 945000, Note_on_c, 0, 72, 68
2, 945116, Note_off_c, 0, 72, 64
2, 945120, Note_on_c, 0, 71, 59
2, 945236, Note_off_c, 0, 71, 64
2, 945240, Note_on_c, 0, 72, 80
2, 945356, Note_off_c, 0, 72, 64
2, 945360, Note_on_c, 0, 74, 86
2, 945476, Note_off_c, 0, 74, 64
2, 945480, Note_on_c, 0, 71, 75
2, 945596, Note_off_c, 0, 71, 64
2, 945600, Note_on_c, 0, 69, 53
2, 945716, Note_off_c, 0, 69, 64
2, 945720, Note_on_c, 0, 71, 60
2, 945836, Note_off_c, 0, 71, 64
2, 945840, Note_on_c, 0, 72, 78
2, 945956, Note_off_c, 0, 72, 64
2, 945960, Note_on_c, 0, 71, 63
2, 946076, Note_off_c, 0, 71, 64
2, 946080, Note_on_c, 0, 69, 30
2, 946196, Note_off_c, 0, 69, 64
2, 946200, Note_on_c, 0, 71, 57
2, 946316, Note_off_c, 0, 71, 64
2, 946320, Note_on_c, 0, 73, 101
2, 946380, Note_off_c, 0, 73, 64
2, 946440, Note_on_c, 0, 70, 66
2, 946556, Note_off_c, 0, 70, 64
2, 946560, Note_on_c, 0, 69, 57
2, 946676, Note_off_c, 0, 69, 64
2, 946680, Note_on_c, 0, 70, 63
2, 946796, Note_off_c, 0, 70, 64
2, 946800, Note_on_c, 0, 72, 83
2, 946916, Note_off_c, 0, 72, 64
2, 946920, Note_on_c, 0, 70, 67
2, 947036, Note_off_c, 0, 70, 64
2, 947040, Note_on_c, 0, 69, 70
2, 947156, Note_off_c, 0, 69, 64
2, 947160, Note_on_c, 0, 67, 57
2, 947276, Note_off_c, 0, 67, 64
2, 947280, Note_on_c, 0, 66, 81
2, 947340, Note_off_c, 0, 66, 64
2, 947400, Note_on_c, 0, 72, 63
2, 947516, Note_off_c, 0, 72, 64
2, 947520, Note_on_c, 0, 71, 77
2, 947636, Note_off_c, 0, 71, 64
2, 947640, Note_on_c, 0, 72, 91
2, 947756, Note_off_c, 0, 72, 64
2, 947760, Note_on_c, 0, 74, 93
2, 947876, Note_off_c, 0, 74, 64
2, 947880, Note_on_c, 0, 72, 86
2, 947996, Note_off_c, 0, 72, 64
2, 948000, Note_on_c, 0, 71, 80
2, 948116, Note_off_c, 0, 71, 64
2, 948120, Note_on_c, 0, 72, 102
2, 948236, Note_off_c, 0, 72, 64
2, 948240, Note_on_c, 0, 78, 106
2, 948300, Note_off_c, 0, 78, 64
2, 948360, Note_on_c, 0, 72, 68
2, 948476, Note_off_c, 0, 72, 64
2, 948480, Note_on_c, 0, 71, 83
2, 948596, Note_off_c, 0, 71, 64
2, 948600, Note_on_c, 0, 72, 77
2, 948716, Note_off_c, 0, 72, 64
2, 948720, Note_on_c, 0, 74, 77
2, 948836, Note_off_c, 0, 74, 64
2, 948840, Note_on_c, 0, 72, 50
2, 948956, Note_off_c, 0, 72, 64
2, 948960, Note_on_c, 0, 71, 71
2, 949076, Note_off_c, 0, 71, 64
2, 949080, Note_on_c, 0, 72, 68
2, 949196, Note_off_c, 0, 72, 64
2, 949200, Note_on_c, 0, 81, 77
2, 949260, Note_off_c, 0, 81, 64
2, 949320, Note_on_c, 0, 72, 77
2, 949440, Note_off_c, 0, 72, 64
2, 949440, Note_on_c, 0, 71, 77
2, 949560, Note_off_c, 0, 71, 64
2, 949560, Note_on_c, 0, 72, 77
2, 949680, Note_off_c, 0, 72, 64
2, 949680, Note_on_c, 0, 74, 77
2, 949800, Note_off_c, 0, 74, 64
2, 949800, Note_on_c, 0, 72, 77
2, 949920, Note_off_c, 0, 72, 64
2, 949920, Note_on_c, 0, 71, 77
2, 950040, Note_off_c, 0, 71, 64
2, 950040, Note_on_c, 0, 69, 77
2, 950160, Note_off_c, 0, 69, 64
2, 950160, Note_on_c, 0, 71, 100
2, 950400, Note_off_c, 0, 71, 64
2, 950400, Note_on_c, 0, 66, 84
2, 950640, Note_off_c, 0, 66, 64
2, 950640, Note_on_c, 0, 66, 69
2, 950876, Note_off_c, 0, 66, 64
2, 950880, Note_on_c, 0, 67, 82
2, 951120, Note_off_c, 0, 67, 64
2, 951120, Note_on_c, 0, 67, 91
2, 951360, Note_off_c, 0, 67, 64
2, 951360, Note_on_c, 0, 60, 77
2, 951600, Note_off_c, 0, 60, 64
2, 951600, Note_on_c, 0, 60, 71
2, 951836, Note_off_c, 0, 60, 64
2, 951840, Note_on_c, 0, 59, 68
2, 952076, Note_off_c, 0, 59, 64
2, 952080, Note_on_c, 0, 59, 85
2, 953040, Note_off_c, 0, 59, 64
2, 953040, Note_on_c, 0, 43, 113
2, 953100, Note_off_c, 0, 43, 64
2, 953100, Note_on_c, 0, 42, 108
2, 953160, Note_off_c, 0, 42, 64
2, 953160, Note_on_c, 0, 43, 98
2, 953280, Note_off_c, 0, 43, 64
2, 953520, Note_on_c, 0, 81, 97
2, 953576, Note_off_c, 0, 81, 64
2, 953580, Note_on_c, 0, 79, 80
2, 953636, Note_off_c, 0, 79, 64
2, 953640, Note_on_c, 0, 78, 85
2, 953696, Note_off_c, 0, 78, 64
2, 953700, Note_on_c, 0, 79, 81
2, 953756, Note_off_c, 0, 79, 64
2, 953760, Note_on_c, 0, 81, 80
2, 953816, Note_off_c, 0, 81, 64
2, 953820, Note_on_c, 0, 79, 80
2, 953876, Note_off_c, 0, 79, 64
2, 953880, Note_on_c, 0, 81, 84
2, 953936, Note_off_c, 0, 81, 64
2, 953940, Note_on_c, 0, 79, 90
2, 953996, Note_off_c, 0, 79, 64
2, 954000, Note_on_c, 0, 81, 93
2, 954056, Note_off_c, 0, 81, 64
2, 954060, Note_on_c, 0, 79, 90
2, 954116, Note_off_c, 0, 79, 64
2, 954120, Note_on_c, 0, 81, 82
2, 954176, Note_off_c, 0, 81, 64
2, 954180, Note_on_c, 0, 79, 77
2, 954236, Note_off_c, 0, 79, 64
2, 954240, Note_on_c, 0, 81, 86
2, 954296, Note_off_c, 0, 81, 64
2, 954300, Note_on_c, 0, 79, 92
2, 954356, Note_off_c, 0, 79, 64
2, 954360, Note_on_c, 0, 78, 96
2, 954416, Note_off_c, 0, 78, 64
2, 954420, Note_on_c, 0, 79, 91
2, 954476, Note_off_c, 0, 79, 64
2, 954480, Note_on_c, 0, 81, 121
2, 954720, Note_off_c, 0, 81, 64
2, 954960, Note_on_c, 0, 54, 119
2, 955016, Note_off_c, 0, 54, 64
2, 955020, Note_on_c, 0, 52, 119
2, 955076, Note_off_c, 0, 52, 64
2, 955080, Note_on_c, 0, 54, 119
2, 955440, Note_off_c, 0, 54, 64
2, 955560, Note_on_c, 0, 57, 104
2, 955676, Note_off_c, 0, 57, 64
2, 955680, Note_on_c, 0, 55, 95
2, 955796, Note_off_c, 0, 55, 64
2, 955800, Note_on_c, 0, 54, 104
2, 955916, Note_off_c, 0, 54, 64
2, 955920, Note_on_c, 0, 52, 121
2, 956036, Note_off_c, 0, 52, 64
2, 956400, Note_on_c, 0, 76, 127
2, 956636, Note_off_c, 0, 76, 64
2, 956640, Note_on_c, 0, 74, 119
2, 956876, Note_off_c, 0, 74, 64
2, 956880, Note_on_c, 0, 73, 119
2, 957116, Note_off_c, 0, 73, 64
2, 957120, Note_on_c, 0, 74, 102
2, 957240, Note_off_c, 0, 74, 64
2, 957240, Note_on_c, 0, 76, 104
2, 957360, Note_off_c, 0, 76, 64
2, 957360, Note_on_c, 0, 66, 121
2, 957476, Note_off_c, 0, 66, 64
2, 957840, Note_on_c, 0, 50, 119
2, 957900, Note_off_c, 0, 50, 64
2, 957900, Note_on_c, 0, 48, 59
2, 957956, Note_off_c, 0, 48, 64
2, 957960, Note_on_c, 0, 50, 86
2, 958016, Note_off_c, 0, 50, 64
2, 958020, Note_on_c, 0, 48, 86
2, 958076, Note_off_c, 0, 48, 64
2, 958080, Note_on_c, 0, 48, 82
2, 958136, Note_off_c, 0, 48, 64
2, 958140, Note_on_c, 0, 50, 80
2, 958196, Note_off_c, 0, 50, 64
2, 958200, Note_on_c, 0, 48, 78
2, 958256, Note_off_c, 0, 48, 64
2, 958260, Note_on_c, 0, 50, 86
2, 958316, Note_off_c, 0, 50, 64
2, 958320, Note_on_c, 0, 48, 88
2, 958376, Note_off_c, 0, 48, 64
2, 958380, Note_on_c, 0, 50, 84
2, 958436, Note_off_c, 0, 50, 64
2, 958440, Note_on_c, 0, 48, 84
2, 958496, Note_off_c, 0, 48, 64
2, 958500, Note_on_c, 0, 48, 82
2, 958556, Note_off_c, 0, 48, 64
2, 958560, Note_on_c, 0, 50, 81
2, 958616, Note_off_c, 0, 50, 64
2, 958620, Note_on_c, 0, 48, 88
2, 958676, Note_off_c, 0, 48, 64
2, 958680, Note_on_c, 0, 47, 96
2, 958736, Note_off_c, 0, 47, 64
2, 958740, Note_on_c, 0, 48, 96
2, 958796, Note_off_c, 0, 48, 64
2, 958800, Note_on_c, 0, 47, 123
2, 959036, Note_off_c, 0, 47, 64
2, 959040, Note_on_c, 0, 43, 101
2, 959276, Note_off_c, 0, 43, 64
2, 959280, Note_on_c, 0, 47, 123
2, 959516, Note_off_c, 0, 47, 64
2, 959520, Note_on_c, 0, 50, 119
2, 959756, Note_off_c, 0, 50, 64
2, 959760, Note_on_c, 0, 55, 113
2, 959996, Note_off_c, 0, 55, 64
2, 960000, Note_on_c, 0, 47, 107
2, 960236, Note_off_c, 0, 47, 64
2, 960240, Note_on_c, 0, 48, 115
2, 960476, Note_off_c, 0, 48, 64
2, 960480, Note_on_c, 0, 52, 113
2, 960716, Note_off_c, 0, 52, 64
2, 960720, Note_on_c, 0, 55, 98
2, 960956, Note_off_c, 0, 55, 64
2, 960960, Note_on_c, 0, 60, 109
2, 961196, Note_off_c, 0, 60, 64
2, 961200, Note_on_c, 0, 52, 102
2, 961436, Note_off_c, 0, 52, 64
2, 961440, Note_on_c, 0, 55, 100
2, 961676, Note_off_c, 0, 55, 64
2, 961680, Note_on_c, 0, 54, 110
2, 961916, Note_off_c, 0, 54, 64
2, 961920, Note_on_c, 0, 57, 104
2, 962156, Note_off_c, 0, 57, 64
2, 962160, Note_on_c, 0, 50, 109
2, 962396, Note_off_c, 0, 50, 64
2, 962400, Note_on_c, 0, 54, 119
2, 962636, Note_off_c, 0, 54, 64
2, 962640, Note_on_c, 0, 57, 107
2, 962876, Note_off_c, 0, 57, 64
2, 962880, Note_on_c, 0, 62, 111
2, 963116, Note_off_c, 0, 62, 64
2, 963120, Note_on_c, 0, 59, 102
2, 963356, Note_off_c, 0, 59, 64
2, 963360, Note_on_c, 0, 55, 102
2, 963600, Note_off_c, 0, 55, 64
2, 963600, Note_on_c, 0, 59, 102
2, 963840, Note_off_c, 0, 59, 64
2, 963840, Note_on_c, 0, 62, 111
2, 964076, Note_off_c, 0, 62, 64
2, 964080, Note_on_c, 0, 67, 121
2, 964320, Note_off_c, 0, 67, 64
2, 964680, Note_on_c, 0, 83, 119
2, 964736, Note_off_c, 0, 83, 64
2, 964740, Note_on_c, 0, 81, 94
2, 964796, Note_off_c, 0, 81, 64
2, 964800, Note_on_c, 0, 83, 115
2, 964856, Note_off_c, 0, 83, 64
2, 965160, Note_on_c, 0, 76, 123
2, 965216, Note_off_c, 0, 76, 64
2, 965220, Note_on_c, 0, 74, 80
2, 965276, Note_off_c, 0, 74, 64
2, 965280, Note_on_c, 0, 76, 98
2, 965336, Note_off_c, 0, 76, 64
2, 965640, Note_on_c, 0, 69, 106
2, 965696, Note_off_c, 0, 69, 64
2, 965700, Note_on_c, 0, 67, 106
2, 965756, Note_off_c, 0, 67, 64
2, 965760, Note_on_c, 0, 69, 101
2, 965876, Note_off_c, 0, 69, 64
2, 966120, Note_on_c, 0, 81, 117
2, 966176, Note_off_c, 0, 81, 64
2, 966180, Note_on_c, 0, 79, 100
2, 966236, Note_off_c, 0, 79, 64
2, 966240, Note_on_c, 0, 81, 111
2, 966300, Note_off_c, 0, 81, 64
2, 966600, Note_on_c, 0, 74, 127
2, 966660, Note_off_c, 0, 74, 64
2, 966660, Note_on_c, 0, 73, 93
2, 966716, Note_off_c, 0, 73, 64
2, 966720, Note_on_c, 0, 74, 101
2, 966780, Note_off_c, 0, 74, 64
2, 967080, Note_on_c, 0, 67, 100
2, 967140, Note_off_c, 0, 67, 64
2, 967140, Note_on_c, 0, 66, 100
2, 967200, Note_off_c, 0, 66, 64
2, 967200, Note_on_c, 0, 67, 100
2, 967260, Note_off_c, 0, 67, 64
2, 967560, Note_on_c, 0, 79, 100
2, 967620, Note_off_c, 0, 79, 64
2, 967620, Note_on_c, 0, 78, 100
2, 967680, Note_off_c, 0, 78, 64
2, 967680, Note_on_c, 0, 79, 100
2, 967740, Note_off_c, 0, 79, 64
2, 968040, Note_on_c, 0, 71, 100
2, 968100, Note_off_c, 0, 71, 64
2, 968100, Note_on_c, 0, 69, 100
2, 968160, Note_off_c, 0, 69, 64
2, 968160, Note_on_c, 0, 71, 100
2, 968220, Note_off_c, 0, 71, 64
2, 968520, Note_on_c, 0, 64, 100
2, 968580, Note_off_c, 0, 64, 64
2, 968580, Note_on_c, 0, 62, 100
2, 968640, Note_off_c, 0, 62, 64
2, 968640, Note_on_c, 0, 64, 100
2, 968700, Note_off_c, 0, 64, 64
2, 969000, Note_on_c, 0, 55, 100
2, 969060, Note_off_c, 0, 55, 64
2, 969060, Note_on_c, 0, 54, 100
2, 969120, Note_off_c, 0, 54, 64
2, 969120, Note_on_c, 0, 55, 100
2, 969180, Note_off_c, 0, 55, 64
2, 969480, Note_on_c, 0, 49, 100
2, 969540, Note_off_c, 0, 49, 64
2, 969540, Note_on_c, 0, 47, 100
2, 969600, Note_off_c, 0, 47, 64
2, 969600, Note_on_c, 0, 49, 100
2, 969660, Note_off_c, 0, 49, 64
2, 969960, Note_on_c, 0, 43, 100
2, 970020, Note_off_c, 0, 43, 64
2, 970020, Note_on_c, 0, 42, 100
2, 970080, Note_off_c, 0, 42, 64
2, 970080, Note_on_c, 0, 43, 100
2, 970140, Note_off_c, 0, 43, 64
2, 970380, Note_on_c, 0, 62, 97
2, 970436, Note_off_c, 0, 62, 64
2, 970440, Note_on_c, 0, 64, 104
2, 970496, Note_off_c, 0, 64, 64
2, 970500, Note_on_c, 0, 66, 92
2, 970556, Note_off_c, 0, 66, 64
2, 970560, Note_on_c, 0, 69, 97
2, 970616, Note_off_c, 0, 69, 64
2, 970620, Note_on_c, 0, 66, 110
2, 970676, Note_off_c, 0, 66, 64
2, 970680, Note_on_c, 0, 64, 98
2, 970736, Note_off_c, 0, 64, 64
2, 970740, Note_on_c, 0, 62, 102
2, 970796, Note_off_c, 0, 62, 64
2, 970860, Note_on_c, 0, 62, 100
2, 970916, Note_off_c, 0, 62, 64
2, 970920, Note_on_c, 0, 64, 101
2, 970976, Note_off_c, 0, 64, 64
2, 970980, Note_on_c, 0, 66, 97
2, 971036, Note_off_c, 0, 66, 64
2, 971040, Note_on_c, 0, 69, 97
2, 971096, Note_off_c, 0, 69, 64
2, 971100, Note_on_c, 0, 66, 102
2, 971156, Note_off_c, 0, 66, 64
2, 971160, Note_on_c, 0, 64, 100
2, 971216, Note_off_c, 0, 64, 64
2, 971220, Note_on_c, 0, 62, 100
2, 971276, Note_off_c, 0, 62, 64
2, 971340, Note_on_c, 0, 62, 98
2, 971396, Note_off_c, 0, 62, 64
2, 971400, Note_on_c, 0, 64, 100
2, 971456, Note_off_c, 0, 64, 64
2, 971460, Note_on_c, 0, 66, 97
2, 971516, Note_off_c, 0, 66, 64
2, 971520, Note_on_c, 0, 69, 96
2, 971576, Note_off_c, 0, 69, 64
2, 971580, Note_on_c, 0, 66, 102
2, 971636, Note_off_c, 0, 66, 64
2, 971640, Note_on_c, 0, 64, 95
2, 971696, Note_off_c, 0, 64, 64
2, 971700, Note_on_c, 0, 62, 93
2, 971756, Note_off_c, 0, 62, 64
2, 971760, Note_on_c, 0, 71, 123
2, 971880, Note_off_c, 0, 71, 64
2, 972240, Note_on_c, 0, 53, 126
2, 972356, Note_off_c, 0, 53, 64
2, 972720, Note_on_c, 0, 52, 121
2, 972840, Note_off_c, 0, 52, 64
2, 973320, Note_on_c, 0, 64, 109
2, 973376, Note_off_c, 0, 64, 64
2, 973380, Note_on_c, 0, 62, 86
2, 973440, Note_off_c, 0, 62, 64
2, 973440, Note_on_c, 0, 64, 104
2, 973496, Note_off_c, 0, 64, 64
2, 973560, Note_on_c, 0, 69, 106
2, 973616, Note_off_c, 0, 69, 64
2, 973620, Note_on_c, 0, 67, 100
2, 973676, Note_off_c, 0, 67, 64
2, 973680, Note_on_c, 0, 69, 104
2, 973736, Note_off_c, 0, 69, 64
2, 973800, Note_on_c, 0, 62, 104
2, 973856, Note_off_c, 0, 62, 64
2, 973860, Note_on_c, 0, 61, 104
2, 973916, Note_off_c, 0, 61, 64
2, 973920, Note_on_c, 0, 62, 86
2, 973976, Note_off_c, 0, 62, 64
2, 974040, Note_on_c, 0, 67, 107
2, 974096, Note_off_c, 0, 67, 64
2, 974100, Note_on_c, 0, 66, 106
2, 974156, Note_off_c, 0, 66, 64
2, 974160, Note_on_c, 0, 67, 106
2, 974216, Note_off_c, 0, 67, 64
2, 974280, Note_on_c, 0, 61, 100
2, 974336, Note_off_c, 0, 61, 64
2, 974340, Note_on_c, 0, 59, 102
2, 974396, Note_off_c, 0, 59, 64
2, 974400, Note_on_c, 0, 61, 97
2, 974460, Note_off_c, 0, 61, 64
2, 974520, Note_on_c, 0, 66, 123
2, 974576, Note_off_c, 0, 66, 64
2, 974580, Note_on_c, 0, 64, 97
2, 974636, Note_off_c, 0, 64, 64
2, 974640, Note_on_c, 0, 66, 110
2, 974700, Note_off_c, 0, 66, 64
2, 974760, Note_on_c, 0, 62, 89
2, 974876, Note_off_c, 0, 62, 64
2, 974880, Note_on_c, 0, 61, 90
2, 974996, Note_off_c, 0, 61, 64
2, 975000, Note_on_c, 0, 62, 95
2, 975120, Note_off_c, 0, 62, 64
2, 975120, Note_on_c, 0, 66, 112
2, 975176, Note_off_c, 0, 66, 64
2, 975180, Note_on_c, 0, 64, 100
2, 975236, Note_off_c, 0, 64, 64
2, 975240, Note_on_c, 0, 62, 98
2, 975360, Note_off_c, 0, 62, 64
2, 975360, Note_on_c, 0, 69, 86
2, 975416, Note_off_c, 0, 69, 64
2, 975420, Note_on_c, 0, 67, 104
2, 975476, Note_off_c, 0, 67, 64
2, 975480, Note_on_c, 0, 66, 97
2, 975596, Note_off_c, 0, 66, 64
2, 975600, Note_on_c, 0, 74, 127
2, 975840, Note_off_c, 0, 74, 64
2, 976080, Note_on_c, 0, 78, 95
2, 976196, Note_off_c, 0, 78, 64
2, 976200, Note_on_c, 0, 81, 84
2, 976316, Note_off_c, 0, 81, 64
2, 976320, Note_on_c, 0, 86, 68
2, 976436, Note_off_c, 0, 86, 64
2, 976440, Note_on_c, 0, 81, 83
2, 976556, Note_off_c, 0, 81, 64
2, 976560, Note_on_c, 0, 78, 96
2, 976676, Note_off_c, 0, 78, 64
2, 976680, Note_on_c, 0, 81, 77
2, 976796, Note_off_c, 0, 81, 64
2, 976800, Note_on_c, 0, 74, 85
2, 976916, Note_off_c, 0, 74, 64
2, 976920, Note_on_c, 0, 78, 84
2, 977040, Note_off_c, 0, 78, 64
2, 977040, Note_on_c, 0, 81, 58
2, 977160, Note_off_c, 0, 81, 64
2, 977160, Note_on_c, 0, 78, 88
2, 977280, Note_off_c, 0, 78, 64
2, 977280, Note_on_c, 0, 79, 83
2, 977400, Note_off_c, 0, 79, 64
2, 977400, Note_on_c, 0, 81, 75
2, 977520, Note_off_c, 0, 81, 64
2, 977520, Note_on_c, 0, 74, 111
2, 977636, Note_off_c, 0, 74, 64
2, 977640, Note_on_c, 0, 79, 111
2, 977756, Note_off_c, 0, 79, 64
2, 977760, Note_on_c, 0, 83, 80
2, 977876, Note_off_c, 0, 83, 64
2, 977880, Note_on_c, 0, 79, 80
2, 977996, Note_off_c, 0, 79, 64
2, 978000, Note_on_c, 0, 74, 91
2, 978116, Note_off_c, 0, 74, 64
2, 978120, Note_on_c, 0, 79, 81
2, 978236, Note_off_c, 0, 79, 64
2, 978240, Note_on_c, 0, 71, 76
2, 978360, Note_off_c, 0, 71, 64
2, 978360, Note_on_c, 0, 74, 86
2, 978476, Note_off_c, 0, 74, 64
2, 978480, Note_on_c, 0, 79, 95
2, 978600, Note_off_c, 0, 79, 64
2, 978600, Note_on_c, 0, 71, 97
2, 978716, Note_off_c, 0, 71, 64
2, 978720, Note_on_c, 0, 72, 102
2, 978836, Note_off_c, 0, 72, 64
2, 978840, Note_on_c, 0, 74, 83
2, 978956, Note_off_c, 0, 74, 64
2, 978960, Note_on_c, 0, 67, 89
2, 979076, Note_off_c, 0, 67, 64
2, 979080, Note_on_c, 0, 72, 78
2, 979196, Note_off_c, 0, 72, 64
2, 979200, Note_on_c, 0, 76, 78
2, 979316, Note_off_c, 0, 76, 64
2, 979320, Note_on_c, 0, 72, 75
2, 979436, Note_off_c, 0, 72, 64
2, 979440, Note_on_c, 0, 69, 85
2, 979556, Note_off_c, 0, 69, 64
2, 979560, Note_on_c, 0, 72, 82
2, 979676, Note_off_c, 0, 72, 64
2, 979680, Note_on_c, 0, 66, 90
2, 979796, Note_off_c, 0, 66, 64
2, 979800, Note_on_c, 0, 69, 80
2, 979916, Note_off_c, 0, 69, 64
2, 979920, Note_on_c, 0, 72, 88
2, 980036, Note_off_c, 0, 72, 64
2, 980040, Note_on_c, 0, 66, 90
2, 980160, Note_off_c, 0, 66, 64
2, 980160, Note_on_c, 0, 67, 72
2, 980276, Note_off_c, 0, 67, 64
2, 980280, Note_on_c, 0, 69, 83
2, 980396, Note_off_c, 0, 69, 64
2, 980400, Note_on_c, 0, 63, 95
2, 980516, Note_off_c, 0, 63, 64
2, 980520, Note_on_c, 0, 66, 78
2, 980636, Note_off_c, 0, 66, 64
2, 980640, Note_on_c, 0, 71, 81
2, 980756, Note_off_c, 0, 71, 64
2, 980760, Note_on_c, 0, 66, 77
2, 980876, Note_off_c, 0, 66, 64
2, 980880, Note_on_c, 0, 63, 80
2, 980996, Note_off_c, 0, 63, 64
2, 981000, Note_on_c, 0, 66, 76
2, 981116, Note_off_c, 0, 66, 64
2, 981120, Note_on_c, 0, 59, 96
2, 981236, Note_off_c, 0, 59, 64
2, 981240, Note_on_c, 0, 63, 85
2, 981356, Note_off_c, 0, 63, 64
2, 981360, Note_on_c, 0, 66, 77
2, 981476, Note_off_c, 0, 66, 64
2, 981480, Note_on_c, 0, 63, 85
2, 981596, Note_off_c, 0, 63, 64
2, 981600, Note_on_c, 0, 64, 88
2, 981716, Note_off_c, 0, 64, 64
2, 981720, Note_on_c, 0, 66, 80
2, 981836, Note_off_c, 0, 66, 64
2, 981840, Note_on_c, 0, 59, 84
2, 981956, Note_off_c, 0, 59, 64
2, 981960, Note_on_c, 0, 64, 83
2, 982076, Note_off_c, 0, 64, 64
2, 982080, Note_on_c, 0, 67, 61
2, 982200, Note_off_c, 0, 67, 64
2, 982200, Note_on_c, 0, 64, 83
2, 982316, Note_off_c, 0, 64, 64
2, 982320, Note_on_c, 0, 59, 83
2, 982436, Note_off_c, 0, 59, 64
2, 982440, Note_on_c, 0, 64, 83
2, 982556, Note_off_c, 0, 64, 64
2, 982560, Note_on_c, 0, 55, 82
2, 982680, Note_off_c, 0, 55, 64
2, 982680, Note_on_c, 0, 59, 77
2, 982796, Note_off_c, 0, 59, 64
2, 982800, Note_on_c, 0, 64, 78
2, 982916, Note_off_c, 0, 64, 64
2, 982920, Note_on_c, 0, 63, 89
2, 983036, Note_off_c, 0, 63, 64
2, 983040, Note_on_c, 0, 64, 92
2, 983156, Note_off_c, 0, 64, 64
2, 983160, Note_on_c, 0, 67, 78
2, 983276, Note_off_c, 0, 67, 64
2, 983280, Note_on_c, 0, 60, 91
2, 983396, Note_off_c, 0, 60, 64
2, 983400, Note_on_c, 0, 65, 82
2, 983516, Note_off_c, 0, 65, 64
2, 983520, Note_on_c, 0, 69, 70
2, 983636, Note_off_c, 0, 69, 64
2, 983640, Note_on_c, 0, 65, 83
2, 983756, Note_off_c, 0, 65, 64
2, 983760, Note_on_c, 0, 60, 83
2, 983876, Note_off_c, 0, 60, 64
2, 983880, Note_on_c, 0, 65, 83
2, 983996, Note_off_c, 0, 65, 64
2, 984000, Note_on_c, 0, 57, 84
2, 984116, Note_off_c, 0, 57, 64
2, 984120, Note_on_c, 0, 60, 76
2, 984236, Note_off_c, 0, 60, 64
2, 984240, Note_on_c, 0, 65, 85
2, 984356, Note_off_c, 0, 65, 64
2, 984360, Note_on_c, 0, 64, 83
2, 984476, Note_off_c, 0, 64, 64
2, 984480, Note_on_c, 0, 65, 80
2, 984596, Note_off_c, 0, 65, 64
2, 984600, Note_on_c, 0, 69, 68
2, 984716, Note_off_c, 0, 69, 64
2, 984720, Note_on_c, 0, 63, 63
2, 984836, Note_off_c, 0, 63, 64
2, 984840, Note_on_c, 0, 66, 75
2, 984956, Note_off_c, 0, 66, 64
2, 984960, Note_on_c, 0, 69, 45
2, 985076, Note_off_c, 0, 69, 64
2, 985080, Note_on_c, 0, 66, 53
2, 985200, Note_off_c, 0, 66, 64
2, 985200, Note_on_c, 0, 63, 89
2, 985316, Note_off_c, 0, 63, 64
2, 985320, Note_on_c, 0, 66, 89
2, 985436, Note_off_c, 0, 66, 64
2, 985440, Note_on_c, 0, 59, 84
2, 985556, Note_off_c, 0, 59, 64
2, 985560, Note_on_c, 0, 63, 74
2, 985676, Note_off_c, 0, 63, 64
2, 985680, Note_on_c, 0, 54, 75
2, 985796, Note_off_c, 0, 54, 64
2, 985800, Note_on_c, 0, 57, 86
2, 985916, Note_off_c, 0, 57, 64
2, 985920, Note_on_c, 0, 55, 85
2, 986036, Note_off_c, 0, 55, 64
2, 986040, Note_on_c, 0, 54, 89
2, 986156, Note_off_c, 0, 54, 64
2, 986160, Note_on_c, 0, 55, 90
2, 986276, Note_off_c, 0, 55, 64
2, 986280, Note_on_c, 0, 59, 66
2, 986396, Note_off_c, 0, 59, 64
2, 986400, Note_on_c, 0, 64, 77
2, 986516, Note_off_c, 0, 64, 64
2, 986520, Note_on_c, 0, 59, 82
2, 986636, Note_off_c, 0, 59, 64
2, 986640, Note_on_c, 0, 55, 93
2, 986756, Note_off_c, 0, 55, 64
2, 986760, Note_on_c, 0, 59, 83
2, 986876, Note_off_c, 0, 59, 64
2, 986880, Note_on_c, 0, 52, 83
2, 986996, Note_off_c, 0, 52, 64
2, 987000, Note_on_c, 0, 54, 83
2, 987120, Note_off_c, 0, 54, 64
2, 987120, Note_on_c, 0, 55, 97
2, 987236, Note_off_c, 0, 55, 64
2, 987240, Note_on_c, 0, 52, 97
2, 987356, Note_off_c, 0, 52, 64
2, 987360, Note_on_c, 0, 55, 85
2, 987476, Note_off_c, 0, 55, 64
2, 987480, Note_on_c, 0, 59, 77
2, 987596, Note_off_c, 0, 59, 64
2, 987600, Note_on_c, 0, 64, 98
2, 987836, Note_off_c, 0, 64, 64
2, 987960, Note_on_c, 0, 52, 109
2, 988016, Note_off_c, 0, 52, 64
2, 988020, Note_on_c, 0, 50, 101
2, 988076, Note_off_c, 0, 50, 64
2, 988080, Note_on_c, 0, 52, 115
2, 988140, Note_off_c, 0, 52, 64
2, 988440, Note_on_c, 0, 60, 108
2, 988496, Note_off_c, 0, 60, 64
2, 988500, Note_on_c, 0, 59, 111
2, 988556, Note_off_c, 0, 59, 64
2, 988560, Note_on_c, 0, 60, 108
2, 988620, Note_off_c, 0, 60, 64
2, 988920, Note_on_c, 0, 69, 102
2, 988976, Note_off_c, 0, 69, 64
2, 988980, Note_on_c, 0, 67, 96
2, 989036, Note_off_c, 0, 67, 64
2, 989040, Note_on_c, 0, 69, 119
2, 989100, Note_off_c, 0, 69, 64
2, 989400, Note_on_c, 0, 50, 92
2, 989456, Note_off_c, 0, 50, 64
2, 989460, Note_on_c, 0, 48, 95
2, 989516, Note_off_c, 0, 48, 64
2, 989520, Note_on_c, 0, 50, 104
2, 989580, Note_off_c, 0, 50, 64
2, 989880, Note_on_c, 0, 59, 92
2, 989936, Note_off_c, 0, 59, 64
2, 989940, Note_on_c, 0, 57, 65
2, 989996, Note_off_c, 0, 57, 64
2, 990000, Note_on_c, 0, 59, 111
2, 990060, Note_off_c, 0, 59, 64
2, 990360, Note_on_c, 0, 67, 104
2, 990416, Note_off_c, 0, 67, 64
2, 990420, Note_on_c, 0, 66, 68
2, 990476, Note_off_c, 0, 66, 64
2, 990480, Note_on_c, 0, 67, 104
2, 990540, Note_off_c, 0, 67, 64
2, 990840, Note_on_c, 0, 48, 113
2, 990896, Note_off_c, 0, 48, 64
2, 990900, Note_on_c, 0, 47, 98
2, 990956, Note_off_c, 0, 47, 64
2, 990960, Note_on_c, 0, 48, 115
2, 991020, Note_off_c, 0, 48, 64
2, 991320, Note_on_c, 0, 57, 96
2, 991376, Note_off_c, 0, 57, 64
2, 991380, Note_on_c, 0, 55, 86
2, 991436, Note_off_c, 0, 55, 64
2, 991440, Note_on_c, 0, 57, 117
2, 991556, Note_off_c, 0, 57, 64
2, 991800, Note_on_c, 0, 66, 117
2, 991856, Note_off_c, 0, 66, 64
2, 991860, Note_on_c, 0, 64, 80
2, 991916, Note_off_c, 0, 64, 64
2, 991920, Note_on_c, 0, 66, 121
2, 991980, Note_off_c, 0, 66, 64
2, 992280, Note_on_c, 0, 74, 107
2, 992336, Note_off_c, 0, 74, 64
2, 992340, Note_on_c, 0, 72, 101
2, 992396, Note_off_c, 0, 72, 64
2, 992400, Note_on_c, 0, 74, 115
2, 992456, Note_off_c, 0, 74, 64
2, 992760, Note_on_c, 0, 79, 111
2, 992816, Note_off_c, 0, 79, 64
2, 992820, Note_on_c, 0, 78, 102
2, 992876, Note_off_c, 0, 78, 64
2, 992880, Note_on_c, 0, 79, 113
2, 992996, Note_off_c, 0, 79, 64
2, 993240, Note_on_c, 0, 83, 108
2, 993296, Note_off_c, 0, 83, 64
2, 993300, Note_on_c, 0, 81, 91
2, 993356, Note_off_c, 0, 81, 64
2, 993360, Note_on_c, 0, 83, 119
2, 993480, Note_off_c, 0, 83, 64
2, 993840, Note_on_c, 0, 62, 102
2, 993960, Note_off_c, 0, 62, 64
2, 994320, Note_on_c, 0, 65, 126
2, 994440, Note_off_c, 0, 65, 64
2, 994860, Note_on_c, 0, 64, 84
2, 994920, Note_off_c, 0, 64, 64
2, 994920, Note_on_c, 0, 65, 85
2, 994976, Note_off_c, 0, 65, 64
2, 994980, Note_on_c, 0, 67, 95
2, 995040, Note_off_c, 0, 67, 64
2, 995040, Note_on_c, 0, 72, 107
2, 995100, Note_off_c, 0, 72, 64
2, 995100, Note_on_c, 0, 67, 107
2, 995160, Note_off_c, 0, 67, 64
2, 995160, Note_on_c, 0, 65, 107
2, 995220, Note_off_c, 0, 65, 64
2, 995220, Note_on_c, 0, 64, 107
2, 995280, Note_off_c, 0, 64, 64
2, 995340, Note_on_c, 0, 66, 88
2, 995400, Note_off_c, 0, 66, 64
2, 995400, Note_on_c, 0, 67, 66
2, 995456, Note_off_c, 0, 67, 64
2, 995460, Note_on_c, 0, 69, 92
2, 995516, Note_off_c, 0, 69, 64
2, 995520, Note_on_c, 0, 72, 107
2, 995580, Note_off_c, 0, 72, 64
2, 995580, Note_on_c, 0, 69, 88
2, 995640, Note_off_c, 0, 69, 64
2, 995640, Note_on_c, 0, 67, 88
2, 995700, Note_off_c, 0, 67, 64
2, 995700, Note_on_c, 0, 66, 88
2, 995760, Note_off_c, 0, 66, 64
2, 995820, Note_on_c, 0, 67, 88
2, 995880, Note_off_c, 0, 67, 64
2, 995880, Note_on_c, 0, 69, 88
2, 995940, Note_off_c, 0, 69, 64
2, 995940, Note_on_c, 0, 70, 88
2, 996000, Note_off_c, 0, 70, 64
2, 996000, Note_on_c, 0, 73, 107
2, 996060, Note_off_c, 0, 73, 64
2, 996060, Note_on_c, 0, 70, 88
2, 996120, Note_off_c, 0, 70, 64
2, 996120, Note_on_c, 0, 69, 88
2, 996180, Note_off_c, 0, 69, 64
2, 996180, Note_on_c, 0, 67, 88
2, 996240, Note_off_c, 0, 67, 64
2, 996240, Note_on_c, 0, 74, 88
2, 996360, Note_off_c, 0, 74, 64
2, 996360, Note_on_c, 0, 72, 88
2, 996420, Note_off_c, 0, 72, 64
2, 996420, Note_on_c, 0, 71, 88
2, 996480, Note_off_c, 0, 71, 64
2, 996480, Note_on_c, 0, 72, 88
2, 996540, Note_off_c, 0, 72, 64
2, 996600, Note_on_c, 0, 71, 88
2, 996660, Note_off_c, 0, 71, 64
2, 996660, Note_on_c, 0, 69, 88
2, 996720, Note_off_c, 0, 69, 64
2, 996720, Note_on_c, 0, 71, 88
2, 996780, Note_off_c, 0, 71, 64
2, 996840, Note_on_c, 0, 70, 88
2, 996900, Note_off_c, 0, 70, 64
2, 996900, Note_on_c, 0, 69, 88
2, 996960, Note_off_c, 0, 69, 64
2, 996960, Note_on_c, 0, 70, 88
2, 997020, Note_off_c, 0, 70, 64
2, 997080, Note_on_c, 0, 69, 88
2, 997140, Note_off_c, 0, 69, 64
2, 997140, Note_on_c, 0, 67, 88
2, 997200, Note_off_c, 0, 67, 64
2, 997200, Note_on_c, 0, 69, 88
2, 997260, Note_off_c, 0, 69, 64
2, 997320, Note_on_c, 0, 74, 88
2, 997380, Note_off_c, 0, 74, 64
2, 997380, Note_on_c, 0, 72, 88
2, 997440, Note_off_c, 0, 72, 64
2, 997440, Note_on_c, 0, 74, 88
2, 997500, Note_off_c, 0, 74, 64
2, 997560, Note_on_c, 0, 67, 88
2, 997620, Note_off_c, 0, 67, 64
2, 997620, Note_on_c, 0, 66, 88
2, 997680, Note_off_c, 0, 66, 64
2, 997680, Note_on_c, 0, 67, 88
2, 997740, Note_off_c, 0, 67, 64
2, 997740, Note_on_c, 0, 69, 88
2, 997800, Note_off_c, 0, 69, 64
2, 997800, Note_on_c, 0, 71, 88
2, 997860, Note_off_c, 0, 71, 64
2, 997860, Note_on_c, 0, 72, 88
2, 997920, Note_off_c, 0, 72, 64
2, 997920, Note_on_c, 0, 74, 88
2, 997980, Note_off_c, 0, 74, 64
2, 997980, Note_on_c, 0, 72, 88
2, 998040, Note_off_c, 0, 72, 64
2, 998040, Note_on_c, 0, 71, 88
2, 998100, Note_off_c, 0, 71, 64
2, 998100, Note_on_c, 0, 69, 88
2, 998160, Note_off_c, 0, 69, 64
2, 998160, Note_on_c, 0, 67, 88
2, 998280, Note_off_c, 0, 67, 64
2, 998280, Note_on_c, 0, 71, 88
2, 998400, Note_off_c, 0, 71, 64
2, 998400, Note_on_c, 0, 62, 88
2, 998520, Note_off_c, 0, 62, 64
2, 998520, Note_on_c, 0, 67, 88
2, 998640, Note_off_c, 0, 67, 64
2, 998640, Note_on_c, 0, 55, 88
2, 998880, Note_off_c, 0, 55, 64
2, 1001640, Note_on_c, 0, 74, 93
2, 1001756, Note_off_c, 0, 74, 64
2, 1001760, Note_on_c, 0, 74, 96
2, 1001876, Note_off_c, 0, 74, 64
2, 1001880, Note_on_c, 0, 76, 97
2, 1001996, Note_off_c, 0, 76, 64
2, 1002000, Note_on_c, 0, 76, 100
2, 1002116, Note_off_c, 0, 76, 64
2, 1002120, Note_on_c, 0, 78, 92
2, 1002236, Note_off_c, 0, 78, 64
2, 1002240, Note_on_c, 0, 78, 99
2, 1002356, Note_off_c, 0, 78, 64
2, 1002360, Note_on_c, 0, 79, 98
2, 1002480, Note_off_c, 0, 79, 64
2, 1002480, Note_on_c, 0, 79, 98
2, 1003076, Note_off_c, 0, 79, 64
2, 1003080, Note_on_c, 0, 81, 109
2, 1003196, Note_off_c, 0, 81, 64
2, 1003200, Note_on_c, 0, 82, 97
2, 1003316, Note_off_c, 0, 82, 64
2, 1003320, Note_on_c, 0, 84, 81
2, 1003440, Note_off_c, 0, 84, 64
2, 1003440, Note_on_c, 0, 86, 93
2, 1003556, Note_off_c, 0, 86, 64
2, 1003560, Note_on_c, 0, 81, 102
2, 1003680, Note_off_c, 0, 81, 64
2, 1003680, Note_on_c, 0, 81, 101
2, 1003736, Note_off_c, 0, 81, 64
2, 1003740, Note_on_c, 0, 80, 97
2, 1003796, Note_off_c, 0, 80, 64
2, 1003800, Note_on_c, 0, 81, 102
2, 1003916, Note_off_c, 0, 81, 64
2, 1003920, Note_on_c, 0, 74, 93
2, 1004636, Note_off_c, 0, 74, 64
2, 1004640, Note_on_c, 0, 75, 106
2, 1004760, Note_off_c, 0, 75, 64
2, 1004760, Note_on_c, 0, 77, 91
2, 1004880, Note_off_c, 0, 77, 64
2, 1004880, Note_on_c, 0, 75, 96
2, 1004996, Note_off_c, 0, 75, 64
2, 1005000, Note_on_c, 0, 74, 96
2, 1005060, Note_off_c, 0, 74, 64
2, 1005120, Note_on_c, 0, 74, 86
2, 1005240, Note_off_c, 0, 74, 64
2, 1005240, Note_on_c, 0, 72, 102
2, 1005360, Note_off_c, 0, 72, 64
2, 1005360, Note_on_c, 0, 70, 121
2, 1005600, Note_off_c, 0, 70, 64
2, 1006080, Note_on_c, 0, 72, 113
2, 1006316, Note_off_c, 0, 72, 64
2, 1006320, Note_on_c, 0, 79, 106
2, 1006376, Note_off_c, 0, 79, 64
2, 1006380, Note_on_c, 0, 81, 98
2, 1006436, Note_off_c, 0, 81, 64
2, 1006440, Note_on_c, 0, 78, 108
2, 1006556, Note_off_c, 0, 78, 64
2, 1006560, Note_on_c, 0, 79, 107
2, 1006676, Note_off_c, 0, 79, 64
2, 1006680, Note_on_c, 0, 81, 96
2, 1006796, Note_off_c, 0, 81, 64
2, 1006800, Note_on_c, 0, 82, 117
2, 1006916, Note_off_c, 0, 82, 64
2, 1006920, Note_on_c, 0, 84, 106
2, 1007036, Note_off_c, 0, 84, 64
2, 1007040, Note_on_c, 0, 86, 91
2, 1007156, Note_off_c, 0, 86, 64
2, 1007160, Note_on_c, 0, 84, 91
2, 1007276, Note_off_c, 0, 84, 64
2, 1007280, Note_on_c, 0, 82, 108
2, 1007396, Note_off_c, 0, 82, 64
2, 1007400, Note_on_c, 0, 81, 100
2, 1007456, Note_off_c, 0, 81, 64
2, 1007460, Note_on_c, 0, 79, 88
2, 1007516, Note_off_c, 0, 79, 64
2, 1007520, Note_on_c, 0, 74, 108
2, 1008000, Note_off_c, 0, 74, 64
2, 1008000, Note_on_c, 0, 75, 115
2, 1008236, Note_off_c, 0, 75, 64
2, 1008240, Note_on_c, 0, 74, 104
2, 1008480, Note_off_c, 0, 74, 64
2, 1008840, Note_on_c, 0, 75, 108
2, 1008956, Note_off_c, 0, 75, 64
2, 1008960, Note_on_c, 0, 74, 101
2, 1009076, Note_off_c, 0, 74, 64
2, 1009080, Note_on_c, 0, 72, 92
2, 1009196, Note_off_c, 0, 72, 64
2, 1009200, Note_on_c, 0, 70, 96
2, 1009316, Note_off_c, 0, 70, 64
2, 1009320, Note_on_c, 0, 72, 101
2, 1009376, Note_off_c, 0, 72, 64
2, 1009440, Note_on_c, 0, 72, 111
2, 1009556, Note_off_c, 0, 72, 64
2, 1009560, Note_on_c, 0, 74, 100
2, 1009676, Note_off_c, 0, 74, 64
2, 1009680, Note_on_c, 0, 74, 104
2, 1009796, Note_off_c, 0, 74, 64
2, 1009800, Note_on_c, 0, 75, 104
2, 1009920, Note_off_c, 0, 75, 64
2, 1009920, Note_on_c, 0, 75, 106
2, 1010036, Note_off_c, 0, 75, 64
2, 1010040, Note_on_c, 0, 74, 101
2, 1010156, Note_off_c, 0, 74, 64
2, 1010160, Note_on_c, 0, 74, 104
2, 1010400, Note_off_c, 0, 74, 64
2, 1010880, Note_on_c, 0, 81, 117
2, 1011116, Note_off_c, 0, 81, 64
2, 1011120, Note_on_c, 0, 82, 110
2, 1011360, Note_off_c, 0, 82, 64
2, 1011360, Note_on_c, 0, 74, 101
2, 1011476, Note_off_c, 0, 74, 64
2, 1011480, Note_on_c, 0, 76, 117
2, 1011716, Note_off_c, 0, 76, 64
2, 1011720, Note_on_c, 0, 77, 115
2, 1011956, Note_off_c, 0, 77, 64
2, 1011960, Note_on_c, 0, 79, 104
2, 1012076, Note_off_c, 0, 79, 64
2, 1012080, Note_on_c, 0, 81, 121
2, 1012316, Note_off_c, 0, 81, 64
2, 1012320, Note_on_c, 0, 70, 115
2, 1012556, Note_off_c, 0, 70, 64
2, 1012560, Note_on_c, 0, 72, 104
2, 1012796, Note_off_c, 0, 72, 64
2, 1012800, Note_on_c, 0, 81, 102
2, 1013036, Note_off_c, 0, 81, 64
2, 1013280, Note_on_c, 0, 79, 115
2, 1013336, Note_off_c, 0, 79, 64
2, 1013340, Note_on_c, 0, 81, 101
2, 1013396, Note_off_c, 0, 81, 64
2, 1013400, Note_on_c, 0, 79, 106
2, 1013636, Note_off_c, 0, 79, 64
2, 1013640, Note_on_c, 0, 79, 111
2, 1013876, Note_off_c, 0, 79, 64
2, 1013880, Note_on_c, 0, 79, 104
2, 1014116, Note_off_c, 0, 79, 64
2, 1014120, Note_on_c, 0, 77, 106
2, 1014176, Note_off_c, 0, 77, 64
2, 1014180, Note_on_c, 0, 79, 102
2, 1014236, Note_off_c, 0, 79, 64
2, 1014240, Note_on_c, 0, 81, 106
2, 1014356, Note_off_c, 0, 81, 64
2, 1014360, Note_on_c, 0, 82, 106
2, 1014476, Note_off_c, 0, 82, 64
2, 1014480, Note_on_c, 0, 81, 111
2, 1014596, Note_off_c, 0, 81, 64
2, 1014600, Note_on_c, 0, 77, 115
2, 1014716, Note_off_c, 0, 77, 64
2, 1014720, Note_on_c, 0, 73, 112
2, 1014956, Note_off_c, 0, 73, 64
2, 1015200, Note_on_c, 0, 79, 98
2, 1015556, Note_off_c, 0, 79, 64
2, 1015560, Note_on_c, 0, 78, 117
2, 1015616, Note_off_c, 0, 78, 64
2, 1015620, Note_on_c, 0, 76, 102
2, 1015676, Note_off_c, 0, 76, 64
2, 1015680, Note_on_c, 0, 78, 99
2, 1015920, Note_off_c, 0, 78, 64
2, 1017000, Note_on_c, 0, 74, 93
2, 1017116, Note_off_c, 0, 74, 64
2, 1017120, Note_on_c, 0, 74, 96
2, 1017236, Note_off_c, 0, 74, 64
2, 1017240, Note_on_c, 0, 76, 97
2, 1017356, Note_off_c, 0, 76, 64
2, 1017360, Note_on_c, 0, 76, 100
2, 1017476, Note_off_c, 0, 76, 64
2, 1017480, Note_on_c, 0, 78, 92
2, 1017596, Note_off_c, 0, 78, 64
2, 1017600, Note_on_c, 0, 78, 99
2, 1017716, Note_off_c, 0, 78, 64
2, 1017720, Note_on_c, 0, 79, 98
2, 1017840, Note_off_c, 0, 79, 64
2, 1017840, Note_on_c, 0, 79, 98
2, 1018436, Note_off_c, 0, 79, 64
2, 1018440, Note_on_c, 0, 81, 109
2, 1018556, Note_off_c, 0, 81, 64
2, 1018560, Note_on_c, 0, 82, 97
2, 1018676, Note_off_c, 0, 82, 64
2, 1018680, Note_on_c, 0, 84, 81
2, 1018800, Note_off_c, 0, 84, 64
2, 1018800, Note_on_c, 0, 86, 93
2, 1018916, Note_off_c, 0, 86, 64
2, 1018920, Note_on_c, 0, 81, 102
2, 1019040, Note_off_c, 0, 81, 64
2, 1019040, Note_on_c, 0, 81, 101
2, 1019096, Note_off_c, 0, 81, 64
2, 1019100, Note_on_c, 0, 80, 97
2, 1019156, Note_off_c, 0, 80, 64
2, 1019160, Note_on_c, 0, 81, 102
2, 1019276, Note_off_c, 0, 81, 64
2, 1019280, Note_on_c, 0, 74, 93
2, 1019996, Note_off_c, 0, 74, 64
2, 1020000, Note_on_c, 0, 75, 106
2, 1020060, Note_off_c, 0, 75, 64
2, 1020060, Note_on_c, 0, 77, 91
2, 1020116, Note_off_c, 0, 77, 64
2, 1020120, Note_on_c, 0, 75, 106
2, 1020240, Note_off_c, 0, 75, 64
2, 1020240, Note_on_c, 0, 75, 96
2, 1020356, Note_off_c, 0, 75, 64
2, 1020360, Note_on_c, 0, 74, 96
2, 1020420, Note_off_c, 0, 74, 64
2, 1020480, Note_on_c, 0, 74, 86
2, 1020600, Note_off_c, 0, 74, 64
2, 1020600, Note_on_c, 0, 72, 102
2, 1020720, Note_off_c, 0, 72, 64
2, 1020720, Note_on_c, 0, 70, 121
2, 1020960, Note_off_c, 0, 70, 64
2, 1021440, Note_on_c, 0, 72, 113
2, 1021676, Note_off_c, 0, 72, 64
2, 1021680, Note_on_c, 0, 79, 106
2, 1021736, Note_off_c, 0, 79, 64
2, 1021740, Note_on_c, 0, 81, 98
2, 1021796, Note_off_c, 0, 81, 64
2, 1021800, Note_on_c, 0, 78, 108
2, 1021916, Note_off_c, 0, 78, 64
2, 1021920, Note_on_c, 0, 79, 107
2, 1022036, Note_off_c, 0, 79, 64
2, 1022040, Note_on_c, 0, 81, 96
2, 1022156, Note_off_c, 0, 81, 64
2, 1022160, Note_on_c, 0, 82, 117
2, 1022276, Note_off_c, 0, 82, 64
2, 1022280, Note_on_c, 0, 84, 106
2, 1022396, Note_off_c, 0, 84, 64
2, 1022400, Note_on_c, 0, 86, 91
2, 1022516, Note_off_c, 0, 86, 64
2, 1022520, Note_on_c, 0, 84, 91
2, 1022636, Note_off_c, 0, 84, 64
2, 1022640, Note_on_c, 0, 82, 108
2, 1022756, Note_off_c, 0, 82, 64
2, 1022760, Note_on_c, 0, 81, 100
2, 1022816, Note_off_c, 0, 81, 64
2, 1022820, Note_on_c, 0, 79, 88
2, 1022876, Note_off_c, 0, 79, 64
2, 1022880, Note_on_c, 0, 74, 108
2, 1023360, Note_off_c, 0, 74, 64
2, 1023360, Note_on_c, 0, 75, 115
2, 1023596, Note_off_c, 0, 75, 64
2, 1023600, Note_on_c, 0, 74, 104
2, 1023840, Note_off_c, 0, 74, 64
2, 1024200, Note_on_c, 0, 75, 108
2, 1024316, Note_off_c, 0, 75, 64
2, 1024320, Note_on_c, 0, 74, 101
2, 1024436, Note_off_c, 0, 74, 64
2, 1024440, Note_on_c, 0, 72, 92
2, 1024556, Note_off_c, 0, 72, 64
2, 1024560, Note_on_c, 0, 70, 96
2, 1024676, Note_off_c, 0, 70, 64
2, 1024680, Note_on_c, 0, 72, 101
2, 1024736, Note_off_c, 0, 72, 64
2, 1024800, Note_on_c, 0, 72, 111
2, 1024916, Note_off_c, 0, 72, 64
2, 1024920, Note_on_c, 0, 74, 100
2, 1025036, Note_off_c, 0, 74, 64
2, 1025040, Note_on_c, 0, 74, 104
2, 1025156, Note_off_c, 0, 74, 64
2, 1025160, Note_on_c, 0, 75, 104
2, 1025280, Note_off_c, 0, 75, 64
2, 1025280, Note_on_c, 0, 75, 106
2, 1025396, Note_off_c, 0, 75, 64
2, 1025400, Note_on_c, 0, 74, 101
2, 1025516, Note_off_c, 0, 74, 64
2, 1025520, Note_on_c, 0, 74, 104
2, 1025760, Note_off_c, 0, 74, 64
2, 1026240, Note_on_c, 0, 81, 117
2, 1026476, Note_off_c, 0, 81, 64
2, 1026480, Note_on_c, 0, 82, 110
2, 1026720, Note_off_c, 0, 82, 64
2, 1026720, Note_on_c, 0, 74, 101
2, 1026836, Note_off_c, 0, 74, 64
2, 1026840, Note_on_c, 0, 76, 117
2, 1027076, Note_off_c, 0, 76, 64
2, 1027080, Note_on_c, 0, 77, 115
2, 1027316, Note_off_c, 0, 77, 64
2, 1027320, Note_on_c, 0, 79, 104
2, 1027436, Note_off_c, 0, 79, 64
2, 1027440, Note_on_c, 0, 81, 121
2, 1027676, Note_off_c, 0, 81, 64
2, 1027680, Note_on_c, 0, 70, 115
2, 1027916, Note_off_c, 0, 70, 64
2, 1027920, Note_on_c, 0, 72, 104
2, 1028156, Note_off_c, 0, 72, 64
2, 1028160, Note_on_c, 0, 81, 102
2, 1028396, Note_off_c, 0, 81, 64
2, 1028640, Note_on_c, 0, 79, 115
2, 1028696, Note_off_c, 0, 79, 64
2, 1028700, Note_on_c, 0, 81, 101
2, 1028756, Note_off_c, 0, 81, 64
2, 1028760, Note_on_c, 0, 79, 106
2, 1028996, Note_off_c, 0, 79, 64
2, 1029000, Note_on_c, 0, 79, 111
2, 1029236, Note_off_c, 0, 79, 64
2, 1029240, Note_on_c, 0, 79, 104
2, 1029476, Note_off_c, 0, 79, 64
2, 1029480, Note_on_c, 0, 77, 106
2, 1029536, Note_off_c, 0, 77, 64
2, 1029540, Note_on_c, 0, 79, 102
2, 1029596, Note_off_c, 0, 79, 64
2, 1029600, Note_on_c, 0, 81, 106
2, 1029716, Note_off_c, 0, 81, 64
2, 1029720, Note_on_c, 0, 82, 106
2, 1029836, Note_off_c, 0, 82, 64
2, 1029840, Note_on_c, 0, 81, 111
2, 1029956, Note_off_c, 0, 81, 64
2, 1029960, Note_on_c, 0, 77, 115
2, 1030076, Note_off_c, 0, 77, 64
2, 1030080, Note_on_c, 0, 73, 112
2, 1030316, Note_off_c, 0, 73, 64
2, 1030560, Note_on_c, 0, 79, 98
2, 1030916, Note_off_c, 0, 79, 64
2, 1030920, Note_on_c, 0, 78, 117
2, 1030976, Note_off_c, 0, 78, 64
2, 1030980, Note_on_c, 0, 76, 102
2, 1031036, Note_off_c, 0, 76, 64
2, 1031040, Note_on_c, 0, 78, 99
2, 1031280, Note_off_c, 0, 78, 64
2, 1032480, Note_on_c, 0, 75, 104
2, 1032716, Note_off_c, 0, 75, 64
2, 1032720, Note_on_c, 0, 74, 89
2, 1032956, Note_off_c, 0, 74, 64
2, 1032960, Note_on_c, 0, 72, 96
2, 1033196, Note_off_c, 0, 72, 64
2, 1033200, Note_on_c, 0, 79, 101
2, 1033316, Note_off_c, 0, 79, 64
2, 1033320, Note_on_c, 0, 67, 95
2, 1033556, Note_off_c, 0, 67, 64
2, 1033560, Note_on_c, 0, 68, 97
2, 1033796, Note_off_c, 0, 68, 64
2, 1033800, Note_on_c, 0, 70, 101
2, 1034036, Note_off_c, 0, 70, 64
2, 1034040, Note_on_c, 0, 72, 102
2, 1034156, Note_off_c, 0, 72, 64
2, 1034160, Note_on_c, 0, 70, 93
2, 1034396, Note_off_c, 0, 70, 64
2, 1034400, Note_on_c, 0, 77, 104
2, 1034636, Note_off_c, 0, 77, 64
2, 1034640, Note_on_c, 0, 79, 106
2, 1034876, Note_off_c, 0, 79, 64
2, 1034880, Note_on_c, 0, 74, 93
2, 1035116, Note_off_c, 0, 74, 64
2, 1035120, Note_on_c, 0, 75, 97
2, 1035236, Note_off_c, 0, 75, 64
2, 1035240, Note_on_c, 0, 74, 98
2, 1035356, Note_off_c, 0, 74, 64
2, 1035360, Note_on_c, 0, 72, 92
2, 1035596, Note_off_c, 0, 72, 64
2, 1035720, Note_on_c, 0, 70, 96
2, 1035956, Note_off_c, 0, 70, 64
2, 1035960, Note_on_c, 0, 72, 96
2, 1036076, Note_off_c, 0, 72, 64
2, 1036080, Note_on_c, 0, 74, 88
2, 1036196, Note_off_c, 0, 74, 64
2, 1036200, Note_on_c, 0, 70, 92
2, 1036316, Note_off_c, 0, 70, 64
2, 1036320, Note_on_c, 0, 65, 92
2, 1036436, Note_off_c, 0, 65, 64
2, 1036440, Note_on_c, 0, 62, 91
2, 1036556, Note_off_c, 0, 62, 64
2, 1036560, Note_on_c, 0, 63, 106
2, 1036676, Note_off_c, 0, 63, 64
2, 1036680, Note_on_c, 0, 65, 100
2, 1036796, Note_off_c, 0, 65, 64
2, 1036800, Note_on_c, 0, 67, 92
2, 1036916, Note_off_c, 0, 67, 64
2, 1036920, Note_on_c, 0, 68, 97
2, 1037036, Note_off_c, 0, 68, 64
2, 1037040, Note_on_c, 0, 70, 92
2, 1038116, Note_off_c, 0, 70, 64
2, 1038120, Note_on_c, 0, 72, 96
2, 1038176, Note_off_c, 0, 72, 64
2, 1038180, Note_on_c, 0, 74, 89
2, 1038236, Note_off_c, 0, 74, 64
2, 1038240, Note_on_c, 0, 75, 94
2, 1038296, Note_off_c, 0, 75, 64
2, 1038300, Note_on_c, 0, 74, 73
2, 1038356, Note_off_c, 0, 74, 64
2, 1038360, Note_on_c, 0, 72, 106
2, 1038476, Note_off_c, 0, 72, 64
2, 1038480, Note_on_c, 0, 74, 97
2, 1038596, Note_off_c, 0, 74, 64
2, 1038600, Note_on_c, 0, 75, 99
2, 1038656, Note_off_c, 0, 75, 64
2, 1038660, Note_on_c, 0, 77, 82
2, 1038716, Note_off_c, 0, 77, 64
2, 1038720, Note_on_c, 0, 75, 85
2, 1038776, Note_off_c, 0, 75, 64
2, 1038780, Note_on_c, 0, 77, 86
2, 1038836, Note_off_c, 0, 77, 64
2, 1038840, Note_on_c, 0, 79, 96
2, 1038956, Note_off_c, 0, 79, 64
2, 1038960, Note_on_c, 0, 77, 102
2, 1039200, Note_off_c, 0, 77, 64
2, 1040040, Note_on_c, 0, 72, 95
2, 1040096, Note_off_c, 0, 72, 64
2, 1040160, Note_on_c, 0, 72, 98
2, 1040276, Note_off_c, 0, 72, 64
2, 1040280, Note_on_c, 0, 74, 90
2, 1040400, Note_off_c, 0, 74, 64
2, 1040400, Note_on_c, 0, 75, 73
2, 1040520, Note_off_c, 0, 75, 64
2, 1040520, Note_on_c, 0, 76, 86
2, 1040636, Note_off_c, 0, 76, 64
2, 1040640, Note_on_c, 0, 67, 84
2, 1040756, Note_off_c, 0, 67, 64
2, 1040760, Note_on_c, 0, 76, 91
2, 1040876, Note_off_c, 0, 76, 64
2, 1040880, Note_on_c, 0, 78, 85
2, 1041476, Note_off_c, 0, 78, 64
2, 1041480, Note_on_c, 0, 79, 85
2, 1041596, Note_off_c, 0, 79, 64
2, 1041600, Note_on_c, 0, 81, 91
2, 1041716, Note_off_c, 0, 81, 64
2, 1041720, Note_on_c, 0, 82, 81
2, 1041836, Note_off_c, 0, 82, 64
2, 1041840, Note_on_c, 0, 84, 81
2, 1041956, Note_off_c, 0, 84, 64
2, 1041960, Note_on_c, 0, 82, 81
2, 1042076, Note_off_c, 0, 82, 64
2, 1042080, Note_on_c, 0, 81, 82
2, 1042196, Note_off_c, 0, 81, 64
2, 1042200, Note_on_c, 0, 79, 82
2, 1042316, Note_off_c, 0, 79, 64
2, 1042320, Note_on_c, 0, 78, 85
2, 1042436, Note_off_c, 0, 78, 64
2, 1042440, Note_on_c, 0, 79, 86
2, 1042556, Note_off_c, 0, 79, 64
2, 1042560, Note_on_c, 0, 78, 88
2, 1042916, Note_off_c, 0, 78, 64
2, 1042920, Note_on_c, 0, 81, 96
2, 1043036, Note_off_c, 0, 81, 64
2, 1043040, Note_on_c, 0, 79, 95
2, 1043276, Note_off_c, 0, 79, 64
2, 1043520, Note_on_c, 0, 72, 107
2, 1043756, Note_off_c, 0, 72, 64
2, 1043760, Note_on_c, 0, 67, 98
2, 1044116, Note_off_c, 0, 67, 64
2, 1044120, Note_on_c, 0, 69, 96
2, 1044236, Note_off_c, 0, 69, 64
2, 1044240, Note_on_c, 0, 70, 90
2, 1044356, Note_off_c, 0, 70, 64
2, 1044360, Note_on_c, 0, 72, 97
2, 1044476, Note_off_c, 0, 72, 64
2, 1044480, Note_on_c, 0, 74, 92
2, 1044596, Note_off_c, 0, 74, 64
2, 1044600, Note_on_c, 0, 76, 98
2, 1044716, Note_off_c, 0, 76, 64
2, 1044720, Note_on_c, 0, 78, 101
2, 1044836, Note_off_c, 0, 78, 64
2, 1044840, Note_on_c, 0, 79, 97
2, 1044956, Note_off_c, 0, 79, 64
2, 1044960, Note_on_c, 0, 81, 91
2, 1045076, Note_off_c, 0, 81, 64
2, 1045080, Note_on_c, 0, 78, 82
2, 1045196, Note_off_c, 0, 78, 64
2, 1045200, Note_on_c, 0, 79, 90
2, 1045316, Note_off_c, 0, 79, 64
2, 1045320, Note_on_c, 0, 78, 84
2, 1045436, Note_off_c, 0, 78, 64
2, 1045440, Note_on_c, 0, 76, 89
2, 1045496, Note_off_c, 0, 76, 64
2, 1045500, Note_on_c, 0, 74, 80
2, 1045556, Note_off_c, 0, 74, 64
2, 1045560, Note_on_c, 0, 84, 98
2, 1045796, Note_off_c, 0, 84, 64
2, 1045800, Note_on_c, 0, 78, 90
2, 1045916, Note_off_c, 0, 78, 64
2, 1045920, Note_on_c, 0, 79, 83
2, 1046036, Note_off_c, 0, 79, 64
2, 1046040, Note_on_c, 0, 81, 92
2, 1046156, Note_off_c, 0, 81, 64
2, 1046160, Note_on_c, 0, 82, 89
2, 1046276, Note_off_c, 0, 82, 64
2, 1046280, Note_on_c, 0, 84, 72
2, 1046396, Note_off_c, 0, 84, 64
2, 1046400, Note_on_c, 0, 86, 72
2, 1046640, Note_off_c, 0, 86, 64
2, 1047840, Note_on_c, 0, 75, 104
2, 1048076, Note_off_c, 0, 75, 64
2, 1048080, Note_on_c, 0, 74, 89
2, 1048316, Note_off_c, 0, 74, 64
2, 1048320, Note_on_c, 0, 72, 96
2, 1048556, Note_off_c, 0, 72, 64
2, 1048560, Note_on_c, 0, 79, 101
2, 1048676, Note_off_c, 0, 79, 64
2, 1048680, Note_on_c, 0, 67, 95
2, 1048916, Note_off_c, 0, 67, 64
2, 1048920, Note_on_c, 0, 68, 97
2, 1049156, Note_off_c, 0, 68, 64
2, 1049160, Note_on_c, 0, 70, 101
2, 1049396, Note_off_c, 0, 70, 64
2, 1049400, Note_on_c, 0, 72, 102
2, 1049516, Note_off_c, 0, 72, 64
2, 1049520, Note_on_c, 0, 70, 93
2, 1049756, Note_off_c, 0, 70, 64
2, 1049760, Note_on_c, 0, 77, 104
2, 1049996, Note_off_c, 0, 77, 64
2, 1050000, Note_on_c, 0, 79, 106
2, 1050236, Note_off_c, 0, 79, 64
2, 1050240, Note_on_c, 0, 74, 93
2, 1050476, Note_off_c, 0, 74, 64
2, 1050480, Note_on_c, 0, 75, 97
2, 1050596, Note_off_c, 0, 75, 64
2, 1050600, Note_on_c, 0, 74, 98
2, 1050716, Note_off_c, 0, 74, 64
2, 1050720, Note_on_c, 0, 72, 92
2, 1050956, Note_off_c, 0, 72, 64
2, 1051080, Note_on_c, 0, 70, 96
2, 1051316, Note_off_c, 0, 70, 64
2, 1051320, Note_on_c, 0, 72, 96
2, 1051436, Note_off_c, 0, 72, 64
2, 1051440, Note_on_c, 0, 74, 88
2, 1051556, Note_off_c, 0, 74, 64
2, 1051560, Note_on_c, 0, 70, 92
2, 1051676, Note_off_c, 0, 70, 64
2, 1051680, Note_on_c, 0, 65, 92
2, 1051796, Note_off_c, 0, 65, 64
2, 1051800, Note_on_c, 0, 62, 91
2, 1051916, Note_off_c, 0, 62, 64
2, 1051920, Note_on_c, 0, 63, 106
2, 1052036, Note_off_c, 0, 63, 64
2, 1052040, Note_on_c, 0, 65, 100
2, 1052156, Note_off_c, 0, 65, 64
2, 1052160, Note_on_c, 0, 67, 92
2, 1052276, Note_off_c, 0, 67, 64
2, 1052280, Note_on_c, 0, 68, 97
2, 1052396, Note_off_c, 0, 68, 64
2, 1052400, Note_on_c, 0, 70, 92
2, 1053476, Note_off_c, 0, 70, 64
2, 1053480, Note_on_c, 0, 72, 96
2, 1053536, Note_off_c, 0, 72, 64
2, 1053540, Note_on_c, 0, 74, 89
2, 1053596, Note_off_c, 0, 74, 64
2, 1053600, Note_on_c, 0, 75, 94
2, 1053656, Note_off_c, 0, 75, 64
2, 1053660, Note_on_c, 0, 74, 73
2, 1053716, Note_off_c, 0, 74, 64
2, 1053720, Note_on_c, 0, 72, 106
2, 1053836, Note_off_c, 0, 72, 64
2, 1053840, Note_on_c, 0, 74, 97
2, 1053956, Note_off_c, 0, 74, 64
2, 1053960, Note_on_c, 0, 75, 99
2, 1054016, Note_off_c, 0, 75, 64
2, 1054020, Note_on_c, 0, 77, 82
2, 1054076, Note_off_c, 0, 77, 64
2, 1054080, Note_on_c, 0, 75, 85
2, 1054136, Note_off_c, 0, 75, 64
2, 1054140, Note_on_c, 0, 77, 86
2, 1054196, Note_off_c, 0, 77, 64
2, 1054200, Note_on_c, 0, 79, 96
2, 1054316, Note_off_c, 0, 79, 64
2, 1054320, Note_on_c, 0, 77, 102
2, 1054560, Note_off_c, 0, 77, 64
2, 1055400, Note_on_c, 0, 72, 95
2, 1055456, Note_off_c, 0, 72, 64
2, 1055520, Note_on_c, 0, 72, 98
2, 1055636, Note_off_c, 0, 72, 64
2, 1055640, Note_on_c, 0, 74, 90
2, 1055760, Note_off_c, 0, 74, 64
2, 1055760, Note_on_c, 0, 75, 73
2, 1055880, Note_off_c, 0, 75, 64
2, 1055880, Note_on_c, 0, 76, 86
2, 1055996, Note_off_c, 0, 76, 64
2, 1056000, Note_on_c, 0, 67, 84
2, 1056116, Note_off_c, 0, 67, 64
2, 1056120, Note_on_c, 0, 76, 91
2, 1056236, Note_off_c, 0, 76, 64
2, 1056240, Note_on_c, 0, 78, 85
2, 1056836, Note_off_c, 0, 78, 64
2, 1056840, Note_on_c, 0, 79, 85
2, 1056956, Note_off_c, 0, 79, 64
2, 1056960, Note_on_c, 0, 81, 91
2, 1057076, Note_off_c, 0, 81, 64
2, 1057080, Note_on_c, 0, 82, 81
2, 1057196, Note_off_c, 0, 82, 64
2, 1057200, Note_on_c, 0, 84, 81
2, 1057316, Note_off_c, 0, 84, 64
2, 1057320, Note_on_c, 0, 82, 81
2, 1057436, Note_off_c, 0, 82, 64
2, 1057440, Note_on_c, 0, 81, 82
2, 1057556, Note_off_c, 0, 81, 64
2, 1057560, Note_on_c, 0, 79, 82
2, 1057676, Note_off_c, 0, 79, 64
2, 1057680, Note_on_c, 0, 78, 85
2, 1057796, Note_off_c, 0, 78, 64
2, 1057800, Note_on_c, 0, 79, 86
2, 1057916, Note_off_c, 0, 79, 64
2, 1057920, Note_on_c, 0, 78, 88
2, 1058276, Note_off_c, 0, 78, 64
2, 1058280, Note_on_c, 0, 81, 96
2, 1058396, Note_off_c, 0, 81, 64
2, 1058400, Note_on_c, 0, 79, 95
2, 1058636, Note_off_c, 0, 79, 64
2, 1058880, Note_on_c, 0, 72, 107
2, 1059116, Note_off_c, 0, 72, 64
2, 1059120, Note_on_c, 0, 67, 98
2, 1059476, Note_off_c, 0, 67, 64
2, 1059480, Note_on_c, 0, 69, 96
2, 1059596, Note_off_c, 0, 69, 64
2, 1059600, Note_on_c, 0, 70, 90
2, 1059716, Note_off_c, 0, 70, 64
2, 1059720, Note_on_c, 0, 72, 97
2, 1059836, Note_off_c, 0, 72, 64
2, 1059840, Note_on_c, 0, 74, 92
2, 1059956, Note_off_c, 0, 74, 64
2, 1059960, Note_on_c, 0, 76, 98
2, 1060076, Note_off_c, 0, 76, 64
2, 1060080, Note_on_c, 0, 78, 101
2, 1060196, Note_off_c, 0, 78, 64
2, 1060200, Note_on_c, 0, 79, 97
2, 1060316, Note_off_c, 0, 79, 64
2, 1060320, Note_on_c, 0, 81, 91
2, 1060436, Note_off_c, 0, 81, 64
2, 1060440, Note_on_c, 0, 78, 82
2, 1060556, Note_off_c, 0, 78, 64
2, 1060560, Note_on_c, 0, 79, 90
2, 1060676, Note_off_c, 0, 79, 64
2, 1060680, Note_on_c, 0, 78, 84
2, 1060796, Note_off_c, 0, 78, 64
2, 1060800, Note_on_c, 0, 76, 89
2, 1060856, Note_off_c, 0, 76, 64
2, 1060860, Note_on_c, 0, 74, 80
2, 1060916, Note_off_c, 0, 74, 64
2, 1060920, Note_on_c, 0, 84, 98
2, 1061156, Note_off_c, 0, 84, 64
2, 1061160, Note_on_c, 0, 78, 90
2, 1061276, Note_off_c, 0, 78, 64
2, 1061280, Note_on_c, 0, 79, 83
2, 1061396, Note_off_c, 0, 79, 64
2, 1061400, Note_on_c, 0, 81, 92
2, 1061516, Note_off_c, 0, 81, 64
2, 1061520, Note_on_c, 0, 82, 89
2, 1061636, Note_off_c, 0, 82, 64
2, 1061640, Note_on_c, 0, 84, 72
2, 1061756, Note_off_c, 0, 84, 64
2, 1061760, Note_on_c, 0, 86, 72
2, 1062000, Note_off_c, 0, 86, 64
2, 1062000, Note_on_c, 0, 55, 111
2, 1062960, Note_off_c, 0, 55, 64
2, 1067760, Note_on_c, 0, 74, 102
2, 1068236, Note_off_c, 0, 74, 64
2, 1070760, Note_on_c, 0, 76, 102
2, 1070876, Note_off_c, 0, 76, 64
2, 1070880, Note_on_c, 0, 77, 102
2, 1071356, Note_off_c, 0, 77, 64
2, 1071360, Note_on_c, 0, 79, 104
2, 1071596, Note_off_c, 0, 79, 64
2, 1071600, Note_on_c, 0, 77, 98
2, 1071716, Note_off_c, 0, 77, 64
2, 1071720, Note_on_c, 0, 76, 100
2, 1071900, Note_off_c, 0, 76, 64
2, 1071900, Note_on_c, 0, 74, 91
2, 1071956, Note_off_c, 0, 74, 64
2, 1071960, Note_on_c, 0, 72, 84
2, 1072016, Note_off_c, 0, 72, 64
2, 1072020, Note_on_c, 0, 71, 85
2, 1072076, Note_off_c, 0, 71, 64
2, 1072080, Note_on_c, 0, 72, 102
2, 1072376, Note_off_c, 0, 72, 64
2, 1072380, Note_on_c, 0, 71, 106
2, 1072436, Note_off_c, 0, 71, 64
2, 1072440, Note_on_c, 0, 69, 75
2, 1072496, Note_off_c, 0, 69, 64
2, 1072500, Note_on_c, 0, 67, 95
2, 1072556, Note_off_c, 0, 67, 64
2, 1072560, Note_on_c, 0, 69, 109
2, 1072916, Note_off_c, 0, 69, 64
2, 1072920, Note_on_c, 0, 69, 96
2, 1073036, Note_off_c, 0, 69, 64
2, 1073040, Note_on_c, 0, 79, 106
2, 1073096, Note_off_c, 0, 79, 64
2, 1073100, Note_on_c, 0, 78, 106
2, 1073156, Note_off_c, 0, 78, 64
2, 1073160, Note_on_c, 0, 79, 107
2, 1073396, Note_off_c, 0, 79, 64
2, 1073400, Note_on_c, 0, 79, 111
2, 1073516, Note_off_c, 0, 79, 64
2, 1073580, Note_on_c, 0, 74, 93
2, 1073640, Note_on_c, 0, 79, 107
2, 1073820, Note_off_c, 0, 74, 64
2, 1073880, Note_off_c, 0, 79, 64
2, 1074060, Note_on_c, 0, 83, 84
2, 1074120, Note_off_c, 0, 83, 64
2, 1074120, Note_on_c, 0, 81, 96
2, 1074180, Note_off_c, 0, 81, 64
2, 1074180, Note_on_c, 0, 79, 100
2, 1074240, Note_off_c, 0, 79, 64
2, 1074240, Note_on_c, 0, 78, 106
2, 1074296, Note_off_c, 0, 78, 64
2, 1074300, Note_on_c, 0, 76, 88
2, 1074360, Note_off_c, 0, 76, 64
2, 1074360, Note_on_c, 0, 74, 88
2, 1074420, Note_off_c, 0, 74, 64
2, 1074420, Note_on_c, 0, 72, 75
2, 1074480, Note_off_c, 0, 72, 64
2, 1074480, Note_on_c, 0, 81, 107
2, 1074836, Note_off_c, 0, 81, 64
2, 1074840, Note_on_c, 0, 72, 109
2, 1074960, Note_off_c, 0, 72, 64
2, 1074960, Note_on_c, 0, 81, 104
2, 1075316, Note_off_c, 0, 81, 64
2, 1075320, Note_on_c, 0, 72, 109
2, 1075440, Note_off_c, 0, 72, 64
2, 1075440, Note_on_c, 0, 72, 113
2, 1075800, Note_off_c, 0, 72, 64
2, 1075800, Note_on_c, 0, 71, 102
2, 1075860, Note_off_c, 0, 71, 64
2, 1075860, Note_on_c, 0, 72, 95
2, 1075920, Note_off_c, 0, 72, 64
2, 1075920, Note_on_c, 0, 71, 106
2, 1076216, Note_off_c, 0, 71, 64
2, 1076220, Note_on_c, 0, 69, 96
2, 1076276, Note_off_c, 0, 69, 64
2, 1076280, Note_on_c, 0, 67, 74
2, 1076336, Note_off_c, 0, 67, 64
2, 1076340, Note_on_c, 0, 66, 90
2, 1076396, Note_off_c, 0, 66, 64
2, 1076400, Note_on_c, 0, 67, 75
2, 1076460, Note_off_c, 0, 67, 64
2, 1076520, Note_on_c, 0, 74, 95
2, 1076576, Note_off_c, 0, 74, 64
2, 1076640, Note_on_c, 0, 76, 97
2, 1076696, Note_off_c, 0, 76, 64
2, 1076760, Note_on_c, 0, 78, 96
2, 1076816, Note_off_c, 0, 78, 64
2, 1076880, Note_on_c, 0, 79, 97
2, 1076936, Note_off_c, 0, 79, 64
2, 1077000, Note_on_c, 0, 78, 96
2, 1077056, Note_off_c, 0, 78, 64
2, 1077120, Note_on_c, 0, 79, 96
2, 1077176, Note_off_c, 0, 79, 64
2, 1077240, Note_on_c, 0, 81, 98
2, 1077296, Note_off_c, 0, 81, 64
2, 1077360, Note_on_c, 0, 83, 109
2, 1077656, Note_off_c, 0, 83, 64
2, 1077660, Note_on_c, 0, 81, 62
2, 1077716, Note_off_c, 0, 81, 64
2, 1077720, Note_on_c, 0, 79, 66
2, 1077776, Note_off_c, 0, 79, 64
2, 1077780, Note_on_c, 0, 78, 71
2, 1077836, Note_off_c, 0, 78, 64
2, 1077840, Note_on_c, 0, 79, 74
2, 1078136, Note_off_c, 0, 79, 64
2, 1078140, Note_on_c, 0, 78, 85
2, 1078196, Note_off_c, 0, 78, 64
2, 1078200, Note_on_c, 0, 76, 43
2, 1078256, Note_off_c, 0, 76, 64
2, 1078260, Note_on_c, 0, 75, 45
2, 1078316, Note_off_c, 0, 75, 64
2, 1078320, Note_on_c, 0, 76, 89
2, 1078676, Note_off_c, 0, 76, 64
2, 1078680, Note_on_c, 0, 71, 80
2, 1078800, Note_off_c, 0, 71, 64
2, 1078800, Note_on_c, 0, 73, 101
2, 1078856, Note_off_c, 0, 73, 64
2, 1078860, Note_on_c, 0, 71, 101
2, 1078916, Note_off_c, 0, 71, 64
2, 1078920, Note_on_c, 0, 73, 92
2, 1079156, Note_off_c, 0, 73, 64
2, 1079160, Note_on_c, 0, 74, 85
2, 1079280, Note_off_c, 0, 74, 64
2, 1079280, Note_on_c, 0, 74, 106
2, 1079400, Note_off_c, 0, 74, 64
2, 1079400, Note_on_c, 0, 73, 97
2, 1079572, Note_off_c, 0, 73, 64
2, 1079580, Note_on_c, 0, 76, 80
2, 1079636, Note_off_c, 0, 76, 64
2, 1079640, Note_on_c, 0, 78, 86
2, 1079696, Note_off_c, 0, 78, 64
2, 1079700, Note_on_c, 0, 79, 86
2, 1079756, Note_off_c, 0, 79, 64
2, 1079760, Note_on_c, 0, 81, 69
2, 1080056, Note_off_c, 0, 81, 64
2, 1080120, Note_on_c, 0, 81, 98
2, 1080236, Note_off_c, 0, 81, 64
2, 1080240, Note_on_c, 0, 81, 111
2, 1080956, Note_off_c, 0, 81, 64
2, 1081020, Note_on_c, 0, 81, 93
2, 1081076, Note_off_c, 0, 81, 64
2, 1081080, Note_on_c, 0, 79, 83
2, 1081136, Note_off_c, 0, 79, 64
2, 1081140, Note_on_c, 0, 78, 94
2, 1081196, Note_off_c, 0, 78, 64
2, 1081200, Note_on_c, 0, 79, 113
2, 1081440, Note_off_c, 0, 79, 64
2, 1081500, Note_on_c, 0, 78, 97
2, 1081556, Note_off_c, 0, 78, 64
2, 1081560, Note_on_c, 0, 76, 76
2, 1081616, Note_off_c, 0, 76, 64
2, 1081620, Note_on_c, 0, 75, 76
2, 1081676, Note_off_c, 0, 75, 64
2, 1081680, Note_on_c, 0, 76, 101
2, 1082036, Note_off_c, 0, 76, 64
2, 1082040, Note_on_c, 0, 83, 115
2, 1082160, Note_off_c, 0, 83, 64
2, 1082160, Note_on_c, 0, 76, 102
2, 1082520, Note_off_c, 0, 76, 64
2, 1082520, Note_on_c, 0, 74, 102
2, 1082580, Note_off_c, 0, 74, 64
2, 1082580, Note_on_c, 0, 76, 102
2, 1082640, Note_off_c, 0, 76, 64
2, 1082640, Note_on_c, 0, 74, 102
2, 1082880, Note_off_c, 0, 74, 64
2, 1082880, Note_on_c, 0, 73, 95
2, 1082996, Note_off_c, 0, 73, 64
2, 1083000, Note_on_c, 0, 71, 95
2, 1083116, Note_off_c, 0, 71, 64
2, 1083120, Note_on_c, 0, 73, 106
2, 1083416, Note_off_c, 0, 73, 64
2, 1083420, Note_on_c, 0, 74, 88
2, 1083472, Note_on_c, 0, 73, 80
2, 1083480, Note_off_c, 0, 74, 64
2, 1083536, Note_on_c, 0, 74, 77
2, 1083552, Note_off_c, 0, 73, 64
2, 1083556, Note_off_c, 0, 74, 64
2, 1083600, Note_on_c, 0, 76, 91
2, 1083660, Note_on_c, 0, 74, 76
2, 1083688, Note_off_c, 0, 76, 64
2, 1083720, Note_on_c, 0, 76, 74
2, 1083724, Note_off_c, 0, 74, 64
2, 1083764, Note_off_c, 0, 76, 64
2, 1083780, Note_on_c, 0, 74, 86
2, 1083840, Note_off_c, 0, 74, 64
2, 1083840, Note_on_c, 0, 76, 72
2, 1083884, Note_off_c, 0, 76, 64
2, 1083920, Note_on_c, 0, 74, 76
2, 1083972, Note_on_c, 0, 73, 89
2, 1083984, Note_off_c, 0, 74, 64
2, 1084028, Note_on_c, 0, 74, 95
2, 1084040, Note_off_c, 0, 73, 64
2, 1084088, Note_on_c, 0, 76, 117
2, 1084096, Note_off_c, 0, 74, 64
2, 1084620, Note_on_c, 0, 74, 96
2, 1084636, Note_off_c, 0, 76, 64
2, 1084672, Note_on_c, 0, 73, 101
2, 1084688, Note_off_c, 0, 74, 64
2, 1084732, Note_on_c, 0, 71, 89
2, 1084744, Note_off_c, 0, 73, 64
2, 1084784, Note_off_c, 0, 71, 64
2, 1084788, Note_on_c, 0, 69, 80
2, 1084848, Note_on_c, 0, 67, 88
2, 1084852, Note_off_c, 0, 69, 64
2, 1084912, Note_on_c, 0, 66, 102
2, 1084928, Note_off_c, 0, 67, 64
2, 1084960, Note_off_c, 0, 66, 64
2, 1084964, Note_on_c, 0, 64, 95
2, 1085024, Note_on_c, 0, 62, 111
2, 1085028, Note_off_c, 0, 64, 64
2, 1085384, Note_on_c, 0, 66, 102
2, 1085392, Note_off_c, 0, 62, 64
2, 1085508, Note_off_c, 0, 66, 64
2, 1085512, Note_on_c, 0, 69, 106
2, 1085568, Note_on_c, 0, 67, 97
2, 1085572, Note_off_c, 0, 69, 64
2, 1085632, Note_on_c, 0, 69, 100
2, 1085644, Note_off_c, 0, 67, 64
2, 1085880, Note_on_c, 0, 71, 104
2, 1085888, Note_off_c, 0, 69, 64
2, 1086000, Note_on_c, 0, 69, 101
2, 1086000, Note_on_c, 0, 72, 101
2, 1086008, Note_off_c, 0, 71, 64
2, 1086480, Note_off_c, 0, 69, 64
2, 1086740, Note_off_c, 0, 72, 64
2, 1086788, Note_on_c, 0, 72, 104
2, 1086848, Note_on_c, 0, 71, 92
2, 1086868, Note_off_c, 0, 72, 64
2, 1086908, Note_on_c, 0, 69, 91
2, 1086920, Note_off_c, 0, 71, 64
2, 1086968, Note_on_c, 0, 71, 109
2, 1086976, Note_off_c, 0, 69, 64
2, 1087256, Note_off_c, 0, 71, 64
2, 1087260, Note_on_c, 0, 73, 86
2, 1087320, Note_on_c, 0, 74, 84
2, 1087348, Note_off_c, 0, 73, 64
2, 1087380, Note_on_c, 0, 76, 98
2, 1087384, Note_off_c, 0, 74, 64
2, 1087440, Note_off_c, 0, 76, 64
2, 1087440, Note_on_c, 0, 78, 77
2, 1087500, Note_off_c, 0, 78, 64
2, 1087500, Note_on_c, 0, 76, 95
2, 1087560, Note_off_c, 0, 76, 64
2, 1087560, Note_on_c, 0, 74, 86
2, 1087620, Note_off_c, 0, 74, 64
2, 1087620, Note_on_c, 0, 73, 86
2, 1087680, Note_off_c, 0, 73, 64
2, 1087680, Note_on_c, 0, 74, 86
2, 1087736, Note_on_c, 0, 73, 90
2, 1087740, Note_off_c, 0, 74, 64
2, 1087800, Note_on_c, 0, 74, 95
2, 1087808, Note_off_c, 0, 73, 64
2, 1087860, Note_off_c, 0, 74, 64
2, 1087860, Note_on_c, 0, 76, 91
2, 1087920, Note_off_c, 0, 76, 64
2, 1087920, Note_on_c, 0, 69, 72
2, 1088168, Note_off_c, 0, 69, 64
2, 1088224, Note_on_c, 0, 76, 102
2, 1088276, Note_off_c, 0, 76, 64
2, 1088284, Note_on_c, 0, 78, 97
2, 1088340, Note_on_c, 0, 79, 100
2, 1088348, Note_off_c, 0, 78, 64
2, 1088384, Note_off_c, 0, 79, 64
2, 1088404, Note_on_c, 0, 81, 117
2, 1088760, Note_on_c, 0, 73, 106
2, 1088772, Note_off_c, 0, 81, 64
2, 1088880, Note_off_c, 0, 73, 64
2, 1088880, Note_on_c, 0, 74, 109
2, 1089120, Note_off_c, 0, 74, 64
2, 1089180, Note_on_c, 0, 76, 92
2, 1089240, Note_on_c, 0, 74, 92
2, 1089256, Note_off_c, 0, 76, 64
2, 1089296, Note_off_c, 0, 74, 64
2, 1089300, Note_on_c, 0, 73, 93
2, 1089360, Note_on_c, 0, 74, 92
2, 1089368, Note_off_c, 0, 73, 64
2, 1089600, Note_off_c, 0, 74, 64
2, 1089600, Note_on_c, 0, 76, 102
2, 1089840, Note_off_c, 0, 76, 64
2, 1089840, Note_on_c, 0, 78, 96
2, 1089900, Note_off_c, 0, 78, 64
2, 1089900, Note_on_c, 0, 76, 89
2, 1089960, Note_off_c, 0, 76, 64
2, 1089960, Note_on_c, 0, 78, 84
2, 1090020, Note_off_c, 0, 78, 64
2, 1090020, Note_on_c, 0, 76, 101
2, 1090080, Note_off_c, 0, 76, 64
2, 1090080, Note_on_c, 0, 78, 104
2, 1090140, Note_off_c, 0, 78, 64
2, 1090140, Note_on_c, 0, 76, 82
2, 1090200, Note_off_c, 0, 76, 64
2, 1090200, Note_on_c, 0, 78, 104
2, 1090260, Note_off_c, 0, 78, 64
2, 1090260, Note_on_c, 0, 76, 104
2, 1090320, Note_off_c, 0, 76, 64
2, 1090320, Note_on_c, 0, 78, 98
2, 1090380, Note_off_c, 0, 78, 64
2, 1090380, Note_on_c, 0, 76, 98
2, 1090440, Note_off_c, 0, 76, 64
2, 1090440, Note_on_c, 0, 78, 98
2, 1090500, Note_off_c, 0, 78, 64
2, 1090500, Note_on_c, 0, 76, 98
2, 1090560, Note_off_c, 0, 76, 64
2, 1090560, Note_on_c, 0, 74, 98
2, 1090800, Note_off_c, 0, 74, 64
2, 1090800, Note_on_c, 0, 74, 98
2, 1092720, Note_off_c, 0, 74, 64
2, 1092720, Note_on_c, 0, 55, 111
2, 1093680, Note_off_c, 0, 55, 64
2, 1098480, Note_on_c, 0, 74, 102
2, 1098956, Note_off_c, 0, 74, 64
2, 1101480, Note_on_c, 0, 76, 102
2, 1101596, Note_off_c, 0, 76, 64
2, 1101600, Note_on_c, 0, 77, 102
2, 1102076, Note_off_c, 0, 77, 64
2, 1102080, Note_on_c, 0, 79, 104
2, 1102316, Note_off_c, 0, 79, 64
2, 1102320, Note_on_c, 0, 77, 98
2, 1102436, Note_off_c, 0, 77, 64
2, 1102440, Note_on_c, 0, 76, 100
2, 1102620, Note_off_c, 0, 76, 64
2, 1102620, Note_on_c, 0, 74, 91
2, 1102676, Note_off_c, 0, 74, 64
2, 1102680, Note_on_c, 0, 72, 84
2, 1102736, Note_off_c, 0, 72, 64
2, 1102740, Note_on_c, 0, 71, 85
2, 1102796, Note_off_c, 0, 71, 64
2, 1102800, Note_on_c, 0, 72, 102
2, 1103096, Note_off_c, 0, 72, 64
2, 1103100, Note_on_c, 0, 71, 106
2, 1103156, Note_off_c, 0, 71, 64
2, 1103160, Note_on_c, 0, 69, 75
2, 1103216, Note_off_c, 0, 69, 64
2, 1103220, Note_on_c, 0, 67, 95
2, 1103276, Note_off_c, 0, 67, 64
2, 1103280, Note_on_c, 0, 69, 109
2, 1103636, Note_off_c, 0, 69, 64
2, 1103640, Note_on_c, 0, 69, 96
2, 1103756, Note_off_c, 0, 69, 64
2, 1103760, Note_on_c, 0, 79, 106
2, 1103816, Note_off_c, 0, 79, 64
2, 1103820, Note_on_c, 0, 78, 106
2, 1103876, Note_off_c, 0, 78, 64
2, 1103880, Note_on_c, 0, 79, 107
2, 1104116, Note_off_c, 0, 79, 64
2, 1104120, Note_on_c, 0, 79, 111
2, 1104236, Note_off_c, 0, 79, 64
2, 1104300, Note_on_c, 0, 74, 93
2, 1104360, Note_on_c, 0, 79, 107
2, 1104540, Note_off_c, 0, 74, 64
2, 1104600, Note_off_c, 0, 79, 64
2, 1104780, Note_on_c, 0, 83, 84
2, 1104840, Note_off_c, 0, 83, 64
2, 1104840, Note_on_c, 0, 81, 96
2, 1104900, Note_off_c, 0, 81, 64
2, 1104900, Note_on_c, 0, 79, 100
2, 1104960, Note_off_c, 0, 79, 64
2, 1104960, Note_on_c, 0, 78, 106
2, 1105016, Note_off_c, 0, 78, 64
2, 1105020, Note_on_c, 0, 76, 88
2, 1105080, Note_off_c, 0, 76, 64
2, 1105080, Note_on_c, 0, 74, 88
2, 1105140, Note_off_c, 0, 74, 64
2, 1105140, Note_on_c, 0, 72, 75
2, 1105200, Note_off_c, 0, 72, 64
2, 1105200, Note_on_c, 0, 81, 107
2, 1105556, Note_off_c, 0, 81, 64
2, 1105560, Note_on_c, 0, 72, 109
2, 1105680, Note_off_c, 0, 72, 64
2, 1105680, Note_on_c, 0, 81, 104
2, 1106036, Note_off_c, 0, 81, 64
2, 1106040, Note_on_c, 0, 72, 109
2, 1106160, Note_off_c, 0, 72, 64
2, 1106160, Note_on_c, 0, 72, 113
2, 1106520, Note_off_c, 0, 72, 64
2, 1106520, Note_on_c, 0, 71, 102
2, 1106580, Note_off_c, 0, 71, 64
2, 1106580, Note_on_c, 0, 72, 95
2, 1106640, Note_off_c, 0, 72, 64
2, 1106640, Note_on_c, 0, 71, 106
2, 1106936, Note_off_c, 0, 71, 64
2, 1106940, Note_on_c, 0, 69, 96
2, 1106996, Note_off_c, 0, 69, 64
2, 1107000, Note_on_c, 0, 67, 74
2, 1107056, Note_off_c, 0, 67, 64
2, 1107060, Note_on_c, 0, 66, 90
2, 1107116, Note_off_c, 0, 66, 64
2, 1107120, Note_on_c, 0, 67, 75
2, 1107180, Note_off_c, 0, 67, 64
2, 1107240, Note_on_c, 0, 74, 95
2, 1107296, Note_off_c, 0, 74, 64
2, 1107360, Note_on_c, 0, 76, 97
2, 1107416, Note_off_c, 0, 76, 64
2, 1107480, Note_on_c, 0, 78, 96
2, 1107536, Note_off_c, 0, 78, 64
2, 1107600, Note_on_c, 0, 79, 97
2, 1107656, Note_off_c, 0, 79, 64
2, 1107720, Note_on_c, 0, 78, 96
2, 1107776, Note_off_c, 0, 78, 64
2, 1107840, Note_on_c, 0, 79, 96
2, 1107896, Note_off_c, 0, 79, 64
2, 1107960, Note_on_c, 0, 81, 98
2, 1108016, Note_off_c, 0, 81, 64
2, 1108080, Note_on_c, 0, 83, 109
2, 1108376, Note_off_c, 0, 83, 64
2, 1108380, Note_on_c, 0, 81, 62
2, 1108436, Note_off_c, 0, 81, 64
2, 1108440, Note_on_c, 0, 79, 66
2, 1108496, Note_off_c, 0, 79, 64
2, 1108500, Note_on_c, 0, 78, 71
2, 1108556, Note_off_c, 0, 78, 64
2, 1108560, Note_on_c, 0, 79, 74
2, 1108856, Note_off_c, 0, 79, 64
2, 1108860, Note_on_c, 0, 78, 85
2, 1108916, Note_off_c, 0, 78, 64
2, 1108920, Note_on_c, 0, 76, 43
2, 1108976, Note_off_c, 0, 76, 64
2, 1108980, Note_on_c, 0, 75, 45
2, 1109036, Note_off_c, 0, 75, 64
2, 1109040, Note_on_c, 0, 76, 89
2, 1109396, Note_off_c, 0, 76, 64
2, 1109400, Note_on_c, 0, 71, 80
2, 1109520, Note_off_c, 0, 71, 64
2, 1109520, Note_on_c, 0, 73, 101
2, 1109576, Note_off_c, 0, 73, 64
2, 1109580, Note_on_c, 0, 71, 101
2, 1109636, Note_off_c, 0, 71, 64
2, 1109640, Note_on_c, 0, 73, 92
2, 1109876, Note_off_c, 0, 73, 64
2, 1109880, Note_on_c, 0, 74, 85
2, 1110000, Note_off_c, 0, 74, 64
2, 1110000, Note_on_c, 0, 74, 106
2, 1110120, Note_off_c, 0, 74, 64
2, 1110120, Note_on_c, 0, 73, 97
2, 1110292, Note_off_c, 0, 73, 64
2, 1110300, Note_on_c, 0, 76, 80
2, 1110356, Note_off_c, 0, 76, 64
2, 1110360, Note_on_c, 0, 78, 86
2, 1110416, Note_off_c, 0, 78, 64
2, 1110420, Note_on_c, 0, 79, 86
2, 1110476, Note_off_c, 0, 79, 64
2, 1110480, Note_on_c, 0, 81, 69
2, 1110776, Note_off_c, 0, 81, 64
2, 1110840, Note_on_c, 0, 81, 98
2, 1110956, Note_off_c, 0, 81, 64
2, 1110960, Note_on_c, 0, 81, 111
2, 1111676, Note_off_c, 0, 81, 64
2, 1111740, Note_on_c, 0, 81, 93
2, 1111796, Note_off_c, 0, 81, 64
2, 1111800, Note_on_c, 0, 79, 83
2, 1111856, Note_off_c, 0, 79, 64
2, 1111860, Note_on_c, 0, 78, 94
2, 1111916, Note_off_c, 0, 78, 64
2, 1111920, Note_on_c, 0, 79, 113
2, 1112160, Note_off_c, 0, 79, 64
2, 1112220, Note_on_c, 0, 78, 97
2, 1112276, Note_off_c, 0, 78, 64
2, 1112280, Note_on_c, 0, 76, 76
2, 1112336, Note_off_c, 0, 76, 64
2, 1112340, Note_on_c, 0, 75, 76
2, 1112396, Note_off_c, 0, 75, 64
2, 1112400, Note_on_c, 0, 76, 101
2, 1112756, Note_off_c, 0, 76, 64
2, 1112760, Note_on_c, 0, 83, 115
2, 1112880, Note_off_c, 0, 83, 64
2, 1112880, Note_on_c, 0, 76, 102
2, 1113240, Note_off_c, 0, 76, 64
2, 1113240, Note_on_c, 0, 74, 102
2, 1113300, Note_off_c, 0, 74, 64
2, 1113300, Note_on_c, 0, 76, 102
2, 1113360, Note_off_c, 0, 76, 64
2, 1113360, Note_on_c, 0, 74, 102
2, 1113600, Note_off_c, 0, 74, 64
2, 1113600, Note_on_c, 0, 73, 95
2, 1113716, Note_off_c, 0, 73, 64
2, 1113720, Note_on_c, 0, 71, 95
2, 1113836, Note_off_c, 0, 71, 64
2, 1113840, Note_on_c, 0, 73, 106
2, 1114136, Note_off_c, 0, 73, 64
2, 1114140, Note_on_c, 0, 74, 88
2, 1114192, Note_on_c, 0, 73, 80
2, 1114200, Note_off_c, 0, 74, 64
2, 1114256, Note_on_c, 0, 74, 77
2, 1114272, Note_off_c, 0, 73, 64
2, 1114276, Note_off_c, 0, 74, 64
2, 1114320, Note_on_c, 0, 76, 91
2, 1114380, Note_on_c, 0, 74, 76
2, 1114408, Note_off_c, 0, 76, 64
2, 1114440, Note_on_c, 0, 76, 74
2, 1114444, Note_off_c, 0, 74, 64
2, 1114484, Note_off_c, 0, 76, 64
2, 1114500, Note_on_c, 0, 74, 86
2, 1114560, Note_off_c, 0, 74, 64
2, 1114560, Note_on_c, 0, 76, 72
2, 1114604, Note_off_c, 0, 76, 64
2, 1114640, Note_on_c, 0, 74, 76
2, 1114692, Note_on_c, 0, 73, 89
2, 1114704, Note_off_c, 0, 74, 64
2, 1114748, Note_on_c, 0, 74, 95
2, 1114760, Note_off_c, 0, 73, 64
2, 1114808, Note_on_c, 0, 76, 117
2, 1114816, Note_off_c, 0, 74, 64
2, 1115340, Note_on_c, 0, 74, 96
2, 1115356, Note_off_c, 0, 76, 64
2, 1115392, Note_on_c, 0, 73, 101
2, 1115408, Note_off_c, 0, 74, 64
2, 1115452, Note_on_c, 0, 71, 89
2, 1115464, Note_off_c, 0, 73, 64
2, 1115504, Note_off_c, 0, 71, 64
2, 1115508, Note_on_c, 0, 69, 80
2, 1115568, Note_on_c, 0, 67, 88
2, 1115572, Note_off_c, 0, 69, 64
2, 1115632, Note_on_c, 0, 66, 102
2, 1115648, Note_off_c, 0, 67, 64
2, 1115680, Note_off_c, 0, 66, 64
2, 1115684, Note_on_c, 0, 64, 95
2, 1115744, Note_on_c, 0, 62, 111
2, 1115748, Note_off_c, 0, 64, 64
2, 1116104, Note_on_c, 0, 66, 102
2, 1116112, Note_off_c, 0, 62, 64
2, 1116228, Note_off_c, 0, 66, 64
2, 1116232, Note_on_c, 0, 69, 106
2, 1116288, Note_on_c, 0, 67, 97
2, 1116292, Note_off_c, 0, 69, 64
2, 1116352, Note_on_c, 0, 69, 100
2, 1116364, Note_off_c, 0, 67, 64
2, 1116600, Note_on_c, 0, 71, 104
2, 1116608, Note_off_c, 0, 69, 64
2, 1116720, Note_on_c, 0, 69, 101
2, 1116720, Note_on_c, 0, 72, 101
2, 1116728, Note_off_c, 0, 71, 64
2, 1117200, Note_off_c, 0, 69, 64
2, 1117460, Note_off_c, 0, 72, 64
2, 1117508, Note_on_c, 0, 72, 104
2, 1117568, Note_on_c, 0, 71, 92
2, 1117588, Note_off_c, 0, 72, 64
2, 1117628, Note_on_c, 0, 69, 91
2, 1117640, Note_off_c, 0, 71, 64
2, 1117688, Note_on_c, 0, 71, 109
2, 1117696, Note_off_c, 0, 69, 64
2, 1117976, Note_off_c, 0, 71, 64
2, 1117980, Note_on_c, 0, 73, 86
2, 1118040, Note_on_c, 0, 74, 84
2, 1118068, Note_off_c, 0, 73, 64
2, 1118100, Note_on_c, 0, 76, 98
2, 1118104, Note_off_c, 0, 74, 64
2, 1118160, Note_off_c, 0, 76, 64
2, 1118160, Note_on_c, 0, 78, 77
2, 1118220, Note_off_c, 0, 78, 64
2, 1118220, Note_on_c, 0, 76, 95
2, 1118280, Note_off_c, 0, 76, 64
2, 1118280, Note_on_c, 0, 74, 86
2, 1118340, Note_off_c, 0, 74, 64
2, 1118340, Note_on_c, 0, 73, 86
2, 1118400, Note_off_c, 0, 73, 64
2, 1118400, Note_on_c, 0, 74, 86
2, 1118456, Note_on_c, 0, 73, 90
2, 1118460, Note_off_c, 0, 74, 64
2, 1118520, Note_on_c, 0, 74, 95
2, 1118528, Note_off_c, 0, 73, 64
2, 1118580, Note_off_c, 0, 74, 64
2, 1118580, Note_on_c, 0, 76, 91
2, 1118640, Note_off_c, 0, 76, 64
2, 1118640, Note_on_c, 0, 69, 72
2, 1118888, Note_off_c, 0, 69, 64
2, 1118944, Note_on_c, 0, 76, 102
2, 1118996, Note_off_c, 0, 76, 64
2, 1119004, Note_on_c, 0, 78, 97
2, 1119060, Note_on_c, 0, 79, 100
2, 1119068, Note_off_c, 0, 78, 64
2, 1119104, Note_off_c, 0, 79, 64
2, 1119124, Note_on_c, 0, 81, 117
2, 1119480, Note_on_c, 0, 73, 106
2, 1119492, Note_off_c, 0, 81, 64
2, 1119600, Note_off_c, 0, 73, 64
2, 1119600, Note_on_c, 0, 74, 109
2, 1119840, Note_off_c, 0, 74, 64
2, 1119900, Note_on_c, 0, 76, 92
2, 1119960, Note_on_c, 0, 74, 92
2, 1119976, Note_off_c, 0, 76, 64
2, 1120016, Note_off_c, 0, 74, 64
2, 1120020, Note_on_c, 0, 73, 93
2, 1120080, Note_on_c, 0, 74, 92
2, 1120088, Note_off_c, 0, 73, 64
2, 1120320, Note_off_c, 0, 74, 64
2, 1120320, Note_on_c, 0, 76, 102
2, 1120560, Note_off_c, 0, 76, 64
2, 1120560, Note_on_c, 0, 78, 96
2, 1120620, Note_off_c, 0, 78, 64
2, 1120620, Note_on_c, 0, 76, 89
2, 1120680, Note_off_c, 0, 76, 64
2, 1120680, Note_on_c, 0, 78, 84
2, 1120740, Note_off_c, 0, 78, 64
2, 1120740, Note_on_c, 0, 76, 101
2, 1120800, Note_off_c, 0, 76, 64
2, 1120800, Note_on_c, 0, 78, 104
2, 1120860, Note_off_c, 0, 78, 64
2, 1120860, Note_on_c, 0, 76, 82
2, 1120920, Note_off_c, 0, 76, 64
2, 1120920, Note_on_c, 0, 78, 104
2, 1120980, Note_off_c, 0, 78, 64
2, 1120980, Note_on_c, 0, 76, 104
2, 1121040, Note_off_c, 0, 76, 64
2, 1121040, Note_on_c, 0, 78, 98
2, 1121100, Note_off_c, 0, 78, 64
2, 1121100, Note_on_c, 0, 76, 98
2, 1121160, Note_off_c, 0, 76, 64
2, 1121160, Note_on_c, 0, 78, 98
2, 1121220, Note_off_c, 0, 78, 64
2, 1121220, Note_on_c, 0, 76, 98
2, 1121280, Note_off_c, 0, 76, 64
2, 1121280, Note_on_c, 0, 74, 98
2, 1121520, Note_off_c, 0, 74, 64
2, 1121520, Note_on_c, 0, 74, 98
2, 1121760, Note_off_c, 0, 74, 64
2, 1121760, Note_on_c, 0, 81, 98
2, 1121880, Note_off_c, 0, 81, 64
2, 1121880, Note_on_c, 0, 79, 98
2, 1122000, Note_off_c, 0, 79, 64
2, 1122000, Note_on_c, 0, 78, 98
2, 1122120, Note_off_c, 0, 78, 64
2, 1122120, Note_on_c, 0, 76, 98
2, 1122240, Note_off_c, 0, 76, 64
2, 1122240, Note_on_c, 0, 78, 104
2, 1122476, Note_off_c, 0, 78, 64
2, 1122480, Note_on_c, 0, 81, 111
2, 1122540, Note_off_c, 0, 81, 64
2, 1122540, Note_on_c, 0, 79, 96
2, 1122600, Note_off_c, 0, 79, 64
2, 1122600, Note_on_c, 0, 78, 88
2, 1122660, Note_off_c, 0, 78, 64
2, 1122660, Note_on_c, 0, 79, 99
2, 1122720, Note_off_c, 0, 79, 64
2, 1122720, Note_on_c, 0, 81, 107
2, 1122956, Note_off_c, 0, 81, 64
2, 1122960, Note_on_c, 0, 74, 93
2, 1123076, Note_off_c, 0, 74, 64
2, 1123080, Note_on_c, 0, 78, 94
2, 1123196, Note_off_c, 0, 78, 64
2, 1123200, Note_on_c, 0, 76, 95
2, 1123316, Note_off_c, 0, 76, 64
2, 1123320, Note_on_c, 0, 79, 97
2, 1123436, Note_off_c, 0, 79, 64
2, 1123440, Note_on_c, 0, 78, 93
2, 1123556, Note_off_c, 0, 78, 64
2, 1123560, Note_on_c, 0, 81, 107
2, 1123676, Note_off_c, 0, 81, 64
2, 1123680, Note_on_c, 0, 79, 100
2, 1123916, Note_off_c, 0, 79, 64
2, 1123920, Note_on_c, 0, 78, 97
2, 1124156, Note_off_c, 0, 78, 64
2, 1124160, Note_on_c, 0, 79, 92
2, 1124396, Note_off_c, 0, 79, 64
2, 1124400, Note_on_c, 0, 76, 104
2, 1124636, Note_off_c, 0, 76, 64
2, 1124640, Note_on_c, 0, 75, 97
2, 1124876, Note_off_c, 0, 75, 64
2, 1124880, Note_on_c, 0, 76, 90
2, 1125116, Note_off_c, 0, 76, 64
2, 1125120, Note_on_c, 0, 81, 107
2, 1126076, Note_off_c, 0, 81, 64
2, 1126080, Note_on_c, 0, 79, 90
2, 1126196, Note_off_c, 0, 79, 64
2, 1126200, Note_on_c, 0, 76, 93
2, 1126316, Note_off_c, 0, 76, 64
2, 1126320, Note_on_c, 0, 78, 94
2, 1126436, Note_off_c, 0, 78, 64
2, 1126440, Note_on_c, 0, 75, 85
2, 1126556, Note_off_c, 0, 75, 64
2, 1126560, Note_on_c, 0, 83, 111
2, 1127396, Note_off_c, 0, 83, 64
2, 1127400, Note_on_c, 0, 84, 98
2, 1127516, Note_off_c, 0, 84, 64
2, 1127520, Note_on_c, 0, 83, 90
2, 1127636, Note_off_c, 0, 83, 64
2, 1127640, Note_on_c, 0, 81, 97
2, 1127756, Note_off_c, 0, 81, 64
2, 1127760, Note_on_c, 0, 79, 80
2, 1127876, Note_off_c, 0, 79, 64
2, 1127880, Note_on_c, 0, 78, 84
2, 1127996, Note_off_c, 0, 78, 64
2, 1128000, Note_on_c, 0, 79, 90
2, 1128116, Note_off_c, 0, 79, 64
2, 1128120, Note_on_c, 0, 76, 82
2, 1128236, Note_off_c, 0, 76, 64
2, 1128240, Note_on_c, 0, 81, 85
2, 1128356, Note_off_c, 0, 81, 64
2, 1128360, Note_on_c, 0, 76, 83
2, 1128476, Note_off_c, 0, 76, 64
2, 1128480, Note_on_c, 0, 83, 92
2, 1128596, Note_off_c, 0, 83, 64
2, 1128600, Note_on_c, 0, 76, 74
2, 1128716, Note_off_c, 0, 76, 64
2, 1128720, Note_on_c, 0, 84, 85
2, 1128836, Note_off_c, 0, 84, 64
2, 1128840, Note_on_c, 0, 83, 90
2, 1128956, Note_off_c, 0, 83, 64
2, 1128960, Note_on_c, 0, 81, 90
2, 1129076, Note_off_c, 0, 81, 64
2, 1129080, Note_on_c, 0, 79, 80
2, 1129196, Note_off_c, 0, 79, 64
2, 1129200, Note_on_c, 0, 78, 82
2, 1129316, Note_off_c, 0, 78, 64
2, 1129320, Note_on_c, 0, 76, 82
2, 1129436, Note_off_c, 0, 76, 64
2, 1129440, Note_on_c, 0, 74, 81
2, 1129556, Note_off_c, 0, 74, 64
2, 1129560, Note_on_c, 0, 78, 81
2, 1129676, Note_off_c, 0, 78, 64
2, 1129680, Note_on_c, 0, 76, 84
2, 1129796, Note_off_c, 0, 76, 64
2, 1129800, Note_on_c, 0, 79, 86
2, 1129916, Note_off_c, 0, 79, 64
2, 1129920, Note_on_c, 0, 78, 79
2, 1130036, Note_off_c, 0, 78, 64
2, 1130040, Note_on_c, 0, 81, 93
2, 1130156, Note_off_c, 0, 81, 64
2, 1130160, Note_on_c, 0, 79, 83
2, 1130276, Note_off_c, 0, 79, 64
2, 1130280, Note_on_c, 0, 81, 97
2, 1130396, Note_off_c, 0, 81, 64
2, 1130400, Note_on_c, 0, 83, 91
2, 1130460, Note_off_c, 0, 83, 64
2, 1130460, Note_on_c, 0, 81, 88
2, 1130520, Note_off_c, 0, 81, 64
2, 1130520, Note_on_c, 0, 83, 81
2, 1130580, Note_off_c, 0, 83, 64
2, 1130580, Note_on_c, 0, 81, 90
2, 1130640, Note_off_c, 0, 81, 64
2, 1130640, Note_on_c, 0, 83, 90
2, 1130700, Note_off_c, 0, 83, 64
2, 1130700, Note_on_c, 0, 81, 90
2, 1130760, Note_off_c, 0, 81, 64
2, 1130760, Note_on_c, 0, 79, 100
2, 1130820, Note_off_c, 0, 79, 64
2, 1130820, Note_on_c, 0, 81, 72
2, 1130880, Note_off_c, 0, 81, 64
2, 1130880, Note_on_c, 0, 83, 72
2, 1131360, Note_off_c, 0, 83, 64
2, 1131360, Note_on_c, 0, 79, 90
2, 1131596, Note_off_c, 0, 79, 64
2, 1131600, Note_on_c, 0, 76, 91
2, 1131836, Note_off_c, 0, 76, 64
2, 1131840, Note_on_c, 0, 78, 81
2, 1132076, Note_off_c, 0, 78, 64
2, 1132080, Note_on_c, 0, 75, 86
2, 1132316, Note_off_c, 0, 75, 64
2, 1132320, Note_on_c, 0, 76, 97
2, 1132796, Note_off_c, 0, 76, 64
2, 1133280, Note_on_c, 0, 76, 89
2, 1133396, Note_off_c, 0, 76, 64
2, 1133400, Note_on_c, 0, 74, 91
2, 1133516, Note_off_c, 0, 74, 64
2, 1133520, Note_on_c, 0, 72, 92
2, 1133636, Note_off_c, 0, 72, 64
2, 1133640, Note_on_c, 0, 71, 84
2, 1133756, Note_off_c, 0, 71, 64
2, 1133760, Note_on_c, 0, 72, 91
2, 1133996, Note_off_c, 0, 72, 64
2, 1134000, Note_on_c, 0, 74, 86
2, 1134236, Note_off_c, 0, 74, 64
2, 1134240, Note_on_c, 0, 76, 100
2, 1134476, Note_off_c, 0, 76, 64
2, 1134480, Note_on_c, 0, 69, 73
2, 1134596, Note_off_c, 0, 69, 64
2, 1134600, Note_on_c, 0, 72, 83
2, 1134716, Note_off_c, 0, 72, 64
2, 1134720, Note_on_c, 0, 71, 83
2, 1134836, Note_off_c, 0, 71, 64
2, 1134840, Note_on_c, 0, 74, 82
2, 1134956, Note_off_c, 0, 74, 64
2, 1134960, Note_on_c, 0, 73, 84
2, 1135076, Note_off_c, 0, 73, 64
2, 1135080, Note_on_c, 0, 76, 95
2, 1135196, Note_off_c, 0, 76, 64
2, 1135200, Note_on_c, 0, 74, 53
2, 1135260, Note_off_c, 0, 74, 64
2, 1135260, Note_on_c, 0, 76, 86
2, 1135320, Note_off_c, 0, 76, 64
2, 1135320, Note_on_c, 0, 78, 92
2, 1135436, Note_off_c, 0, 78, 64
2, 1135440, Note_on_c, 0, 79, 84
2, 1135500, Note_off_c, 0, 79, 64
2, 1135500, Note_on_c, 0, 78, 93
2, 1135560, Note_off_c, 0, 78, 64
2, 1135560, Note_on_c, 0, 79, 89
2, 1135620, Note_off_c, 0, 79, 64
2, 1135620, Note_on_c, 0, 78, 89
2, 1135680, Note_off_c, 0, 78, 64
2, 1135680, Note_on_c, 0, 79, 89
2, 1135740, Note_off_c, 0, 79, 64
2, 1135740, Note_on_c, 0, 78, 89
2, 1135800, Note_off_c, 0, 78, 64
2, 1135800, Note_on_c, 0, 76, 104
2, 1135860, Note_off_c, 0, 76, 64
2, 1135860, Note_on_c, 0, 78, 104
2, 1135920, Note_off_c, 0, 78, 64
2, 1135920, Note_on_c, 0, 79, 104
2, 1136160, Note_off_c, 0, 79, 64
2, 1136160, Note_on_c, 0, 78, 99
2, 1136276, Note_off_c, 0, 78, 64
2, 1136280, Note_on_c, 0, 76, 93
2, 1136396, Note_off_c, 0, 76, 64
2, 1136400, Note_on_c, 0, 74, 84
2, 1136516, Note_off_c, 0, 74, 64
2, 1136520, Note_on_c, 0, 72, 95
2, 1136636, Note_off_c, 0, 72, 64
2, 1136640, Note_on_c, 0, 71, 89
2, 1136756, Note_off_c, 0, 71, 64
2, 1136760, Note_on_c, 0, 74, 83
2, 1136876, Note_off_c, 0, 74, 64
2, 1136880, Note_on_c, 0, 72, 88
2, 1136996, Note_off_c, 0, 72, 64
2, 1137000, Note_on_c, 0, 76, 89
2, 1137116, Note_off_c, 0, 76, 64
2, 1137120, Note_on_c, 0, 74, 80
2, 1137236, Note_off_c, 0, 74, 64
2, 1137240, Note_on_c, 0, 77, 86
2, 1137356, Note_off_c, 0, 77, 64
2, 1137360, Note_on_c, 0, 76, 106
2, 1138196, Note_off_c, 0, 76, 64
2, 1138200, Note_on_c, 0, 74, 88
2, 1138316, Note_off_c, 0, 74, 64
2, 1138320, Note_on_c, 0, 72, 93
2, 1138436, Note_off_c, 0, 72, 64
2, 1138440, Note_on_c, 0, 71, 75
2, 1138556, Note_off_c, 0, 71, 64
2, 1138560, Note_on_c, 0, 72, 97
2, 1138676, Note_off_c, 0, 72, 64
2, 1138680, Note_on_c, 0, 78, 89
2, 1138796, Note_off_c, 0, 78, 64
2, 1138800, Note_on_c, 0, 81, 102
2, 1138916, Note_off_c, 0, 81, 64
2, 1138920, Note_on_c, 0, 74, 60
2, 1139036, Note_off_c, 0, 74, 64
2, 1139040, Note_on_c, 0, 72, 78
2, 1139156, Note_off_c, 0, 72, 64
2, 1139160, Note_on_c, 0, 71, 75
2, 1139276, Note_off_c, 0, 71, 64
2, 1139280, Note_on_c, 0, 72, 84
2, 1139396, Note_off_c, 0, 72, 64
2, 1139400, Note_on_c, 0, 69, 75
2, 1139516, Note_off_c, 0, 69, 64
2, 1139520, Note_on_c, 0, 71, 89
2, 1139636, Note_off_c, 0, 71, 64
2, 1139640, Note_on_c, 0, 76, 95
2, 1139756, Note_off_c, 0, 76, 64
2, 1139760, Note_on_c, 0, 74, 84
2, 1139876, Note_off_c, 0, 74, 64
2, 1139880, Note_on_c, 0, 72, 84
2, 1139996, Note_off_c, 0, 72, 64
2, 1140000, Note_on_c, 0, 74, 89
2, 1140116, Note_off_c, 0, 74, 64
2, 1140120, Note_on_c, 0, 80, 90
2, 1140236, Note_off_c, 0, 80, 64
2, 1140240, Note_on_c, 0, 83, 92
2, 1140356, Note_off_c, 0, 83, 64
2, 1140360, Note_on_c, 0, 76, 69
2, 1140476, Note_off_c, 0, 76, 64
2, 1140480, Note_on_c, 0, 74, 78
2, 1140596, Note_off_c, 0, 74, 64
2, 1140600, Note_on_c, 0, 72, 83
2, 1140716, Note_off_c, 0, 72, 64
2, 1140720, Note_on_c, 0, 74, 73
2, 1140836, Note_off_c, 0, 74, 64
2, 1140840, Note_on_c, 0, 71, 78
2, 1140956, Note_off_c, 0, 71, 64
2, 1140960, Note_on_c, 0, 72, 92
2, 1141796, Note_off_c, 0, 72, 64
2, 1141800, Note_on_c, 0, 71, 92
2, 1141916, Note_off_c, 0, 71, 64
2, 1141920, Note_on_c, 0, 69, 77
2, 1142036, Note_off_c, 0, 69, 64
2, 1142040, Note_on_c, 0, 71, 77
2, 1142156, Note_off_c, 0, 71, 64
2, 1142160, Note_on_c, 0, 72, 82
2, 1142276, Note_off_c, 0, 72, 64
2, 1142280, Note_on_c, 0, 69, 85
2, 1142396, Note_off_c, 0, 69, 64
2, 1142400, Note_on_c, 0, 74, 96
2, 1142876, Note_off_c, 0, 74, 64
2, 1142880, Note_on_c, 0, 71, 95
2, 1143116, Note_off_c, 0, 71, 64
2, 1143120, Note_on_c, 0, 67, 64
2, 1143356, Note_off_c, 0, 67, 64
2, 1143360, Note_on_c, 0, 69, 83
2, 1143596, Note_off_c, 0, 69, 64
2, 1143600, Note_on_c, 0, 66, 85
2, 1143836, Note_off_c, 0, 66, 64
2, 1143840, Note_on_c, 0, 67, 81
2, 1144320, Note_off_c, 0, 67, 64
2, 1144800, Note_on_c, 0, 81, 81
2, 1144920, Note_off_c, 0, 81, 64
2, 1144920, Note_on_c, 0, 79, 81
2, 1145040, Note_off_c, 0, 79, 64
2, 1145040, Note_on_c, 0, 78, 81
2, 1145160, Note_off_c, 0, 78, 64
2, 1145160, Note_on_c, 0, 76, 81
2, 1145280, Note_off_c, 0, 76, 64
2, 1145280, Note_on_c, 0, 78, 104
2, 1145516, Note_off_c, 0, 78, 64
2, 1145520, Note_on_c, 0, 81, 111
2, 1145580, Note_off_c, 0, 81, 64
2, 1145580, Note_on_c, 0, 79, 96
2, 1145640, Note_off_c, 0, 79, 64
2, 1145640, Note_on_c, 0, 78, 88
2, 1145700, Note_off_c, 0, 78, 64
2, 1145700, Note_on_c, 0, 79, 99
2, 1145760, Note_off_c, 0, 79, 64
2, 1145760, Note_on_c, 0, 81, 107
2, 1145996, Note_off_c, 0, 81, 64
2, 1146000, Note_on_c, 0, 74, 93
2, 1146116, Note_off_c, 0, 74, 64
2, 1146120, Note_on_c, 0, 78, 94
2, 1146236, Note_off_c, 0, 78, 64
2, 1146240, Note_on_c, 0, 76, 95
2, 1146356, Note_off_c, 0, 76, 64
2, 1146360, Note_on_c, 0, 79, 97
2, 1146476, Note_off_c, 0, 79, 64
2, 1146480, Note_on_c, 0, 78, 93
2, 1146596, Note_off_c, 0, 78, 64
2, 1146600, Note_on_c, 0, 81, 107
2, 1146716, Note_off_c, 0, 81, 64
2, 1146720, Note_on_c, 0, 79, 100
2, 1146956, Note_off_c, 0, 79, 64
2, 1146960, Note_on_c, 0, 78, 97
2, 1147196, Note_off_c, 0, 78, 64
2, 1147200, Note_on_c, 0, 79, 92
2, 1147436, Note_off_c, 0, 79, 64
2, 1147440, Note_on_c, 0, 76, 104
2, 1147676, Note_off_c, 0, 76, 64
2, 1147680, Note_on_c, 0, 75, 97
2, 1147916, Note_off_c, 0, 75, 64
2, 1147920, Note_on_c, 0, 76, 90
2, 1148156, Note_off_c, 0, 76, 64
2, 1148160, Note_on_c, 0, 81, 107
2, 1149116, Note_off_c, 0, 81, 64
2, 1149120, Note_on_c, 0, 79, 90
2, 1149236, Note_off_c, 0, 79, 64
2, 1149240, Note_on_c, 0, 76, 93
2, 1149356, Note_off_c, 0, 76, 64
2, 1149360, Note_on_c, 0, 78, 94
2, 1149476, Note_off_c, 0, 78, 64
2, 1149480, Note_on_c, 0, 75, 85
2, 1149596, Note_off_c, 0, 75, 64
2, 1149600, Note_on_c, 0, 83, 111
2, 1150436, Note_off_c, 0, 83, 64
2, 1150440, Note_on_c, 0, 84, 98
2, 1150556, Note_off_c, 0, 84, 64
2, 1150560, Note_on_c, 0, 83, 90
2, 1150676, Note_off_c, 0, 83, 64
2, 1150680, Note_on_c, 0, 81, 97
2, 1150796, Note_off_c, 0, 81, 64
2, 1150800, Note_on_c, 0, 79, 80
2, 1150916, Note_off_c, 0, 79, 64
2, 1150920, Note_on_c, 0, 78, 84
2, 1151036, Note_off_c, 0, 78, 64
2, 1151040, Note_on_c, 0, 79, 90
2, 1151156, Note_off_c, 0, 79, 64
2, 1151160, Note_on_c, 0, 76, 82
2, 1151276, Note_off_c, 0, 76, 64
2, 1151280, Note_on_c, 0, 81, 85
2, 1151396, Note_off_c, 0, 81, 64
2, 1151400, Note_on_c, 0, 76, 83
2, 1151516, Note_off_c, 0, 76, 64
2, 1151520, Note_on_c, 0, 83, 92
2, 1151636, Note_off_c, 0, 83, 64
2, 1151640, Note_on_c, 0, 76, 74
2, 1151756, Note_off_c, 0, 76, 64
2, 1151760, Note_on_c, 0, 84, 85
2, 1151876, Note_off_c, 0, 84, 64
2, 1151880, Note_on_c, 0, 83, 90
2, 1151996, Note_off_c, 0, 83, 64
2, 1152000, Note_on_c, 0, 81, 90
2, 1152116, Note_off_c, 0, 81, 64
2, 1152120, Note_on_c, 0, 79, 80
2, 1152236, Note_off_c, 0, 79, 64
2, 1152240, Note_on_c, 0, 78, 82
2, 1152356, Note_off_c, 0, 78, 64
2, 1152360, Note_on_c, 0, 76, 82
2, 1152476, Note_off_c, 0, 76, 64
2, 1152480, Note_on_c, 0, 74, 81
2, 1152596, Note_off_c, 0, 74, 64
2, 1152600, Note_on_c, 0, 78, 81
2, 1152716, Note_off_c, 0, 78, 64
2, 1152720, Note_on_c, 0, 76, 84
2, 1152836, Note_off_c, 0, 76, 64
2, 1152840, Note_on_c, 0, 79, 86
2, 1152956, Note_off_c, 0, 79, 64
2, 1152960, Note_on_c, 0, 78, 79
2, 1153076, Note_off_c, 0, 78, 64
2, 1153080, Note_on_c, 0, 81, 93
2, 1153196, Note_off_c, 0, 81, 64
2, 1153200, Note_on_c, 0, 79, 83
2, 1153316, Note_off_c, 0, 79, 64
2, 1153320, Note_on_c, 0, 81, 97
2, 1153436, Note_off_c, 0, 81, 64
2, 1153440, Note_on_c, 0, 83, 91
2, 1153500, Note_off_c, 0, 83, 64
2, 1153500, Note_on_c, 0, 81, 88
2, 1153560, Note_off_c, 0, 81, 64
2, 1153560, Note_on_c, 0, 83, 81
2, 1153620, Note_off_c, 0, 83, 64
2, 1153620, Note_on_c, 0, 81, 90
2, 1153680, Note_off_c, 0, 81, 64
2, 1153680, Note_on_c, 0, 83, 90
2, 1153740, Note_off_c, 0, 83, 64
2, 1153740, Note_on_c, 0, 81, 90
2, 1153800, Note_off_c, 0, 81, 64
2, 1153800, Note_on_c, 0, 79, 100
2, 1153860, Note_off_c, 0, 79, 64
2, 1153860, Note_on_c, 0, 81, 72
2, 1153920, Note_off_c, 0, 81, 64
2, 1153920, Note_on_c, 0, 83, 72
2, 1154400, Note_off_c, 0, 83, 64
2, 1154400, Note_on_c, 0, 79, 90
2, 1154636, Note_off_c, 0, 79, 64
2, 1154640, Note_on_c, 0, 76, 91
2, 1154876, Note_off_c, 0, 76, 64
2, 1154880, Note_on_c, 0, 78, 81
2, 1155116, Note_off_c, 0, 78, 64
2, 1155120, Note_on_c, 0, 75, 86
2, 1155356, Note_off_c, 0, 75, 64
2, 1155360, Note_on_c, 0, 76, 97
2, 1155836, Note_off_c, 0, 76, 64
2, 1156320, Note_on_c, 0, 76, 89
2, 1156436, Note_off_c, 0, 76, 64
2, 1156440, Note_on_c, 0, 74, 91
2, 1156556, Note_off_c, 0, 74, 64
2, 1156560, Note_on_c, 0, 72, 92
2, 1156676, Note_off_c, 0, 72, 64
2, 1156680, Note_on_c, 0, 71, 84
2, 1156796, Note_off_c, 0, 71, 64
2, 1156800, Note_on_c, 0, 72, 91
2, 1157036, Note_off_c, 0, 72, 64
2, 1157040, Note_on_c, 0, 74, 86
2, 1157276, Note_off_c, 0, 74, 64
2, 1157280, Note_on_c, 0, 76, 100
2, 1157516, Note_off_c, 0, 76, 64
2, 1157520, Note_on_c, 0, 69, 73
2, 1157636, Note_off_c, 0, 69, 64
2, 1157640, Note_on_c, 0, 72, 83
2, 1157756, Note_off_c, 0, 72, 64
2, 1157760, Note_on_c, 0, 71, 83
2, 1157876, Note_off_c, 0, 71, 64
2, 1157880, Note_on_c, 0, 74, 82
2, 1157996, Note_off_c, 0, 74, 64
2, 1158000, Note_on_c, 0, 73, 84
2, 1158116, Note_off_c, 0, 73, 64
2, 1158120, Note_on_c, 0, 76, 95
2, 1158236, Note_off_c, 0, 76, 64
2, 1158240, Note_on_c, 0, 74, 53
2, 1158300, Note_off_c, 0, 74, 64
2, 1158300, Note_on_c, 0, 76, 86
2, 1158360, Note_off_c, 0, 76, 64
2, 1158360, Note_on_c, 0, 78, 92
2, 1158476, Note_off_c, 0, 78, 64
2, 1158480, Note_on_c, 0, 79, 84
2, 1158540, Note_off_c, 0, 79, 64
2, 1158540, Note_on_c, 0, 78, 93
2, 1158600, Note_off_c, 0, 78, 64
2, 1158600, Note_on_c, 0, 79, 89
2, 1158660, Note_off_c, 0, 79, 64
2, 1158660, Note_on_c, 0, 78, 89
2, 1158720, Note_off_c, 0, 78, 64
2, 1158720, Note_on_c, 0, 79, 89
2, 1158780, Note_off_c, 0, 79, 64
2, 1158780, Note_on_c, 0, 78, 89
2, 1158840, Note_off_c, 0, 78, 64
2, 1158840, Note_on_c, 0, 76, 104
2, 1158900, Note_off_c, 0, 76, 64
2, 1158900, Note_on_c, 0, 78, 104
2, 1158960, Note_off_c, 0, 78, 64
2, 1158960, Note_on_c, 0, 79, 104
2, 1159200, Note_off_c, 0, 79, 64
2, 1159200, Note_on_c, 0, 78, 99
2, 1159316, Note_off_c, 0, 78, 64
2, 1159320, Note_on_c, 0, 76, 93
2, 1159436, Note_off_c, 0, 76, 64
2, 1159440, Note_on_c, 0, 74, 84
2, 1159556, Note_off_c, 0, 74, 64
2, 1159560, Note_on_c, 0, 72, 95
2, 1159676, Note_off_c, 0, 72, 64
2, 1159680, Note_on_c, 0, 71, 89
2, 1159796, Note_off_c, 0, 71, 64
2, 1159800, Note_on_c, 0, 74, 83
2, 1159916, Note_off_c, 0, 74, 64
2, 1159920, Note_on_c, 0, 72, 88
2, 1160036, Note_off_c, 0, 72, 64
2, 1160040, Note_on_c, 0, 76, 89
2, 1160156, Note_off_c, 0, 76, 64
2, 1160160, Note_on_c, 0, 74, 80
2, 1160276, Note_off_c, 0, 74, 64
2, 1160280, Note_on_c, 0, 77, 86
2, 1160396, Note_off_c, 0, 77, 64
2, 1160400, Note_on_c, 0, 76, 106
2, 1161236, Note_off_c, 0, 76, 64
2, 1161240, Note_on_c, 0, 74, 88
2, 1161356, Note_off_c, 0, 74, 64
2, 1161360, Note_on_c, 0, 72, 93
2, 1161476, Note_off_c, 0, 72, 64
2, 1161480, Note_on_c, 0, 71, 75
2, 1161596, Note_off_c, 0, 71, 64
2, 1161600, Note_on_c, 0, 72, 97
2, 1161716, Note_off_c, 0, 72, 64
2, 1161720, Note_on_c, 0, 78, 89
2, 1161836, Note_off_c, 0, 78, 64
2, 1161840, Note_on_c, 0, 81, 102
2, 1161956, Note_off_c, 0, 81, 64
2, 1161960, Note_on_c, 0, 74, 60
2, 1162076, Note_off_c, 0, 74, 64
2, 1162080, Note_on_c, 0, 72, 78
2, 1162196, Note_off_c, 0, 72, 64
2, 1162200, Note_on_c, 0, 71, 75
2, 1162316, Note_off_c, 0, 71, 64
2, 1162320, Note_on_c, 0, 72, 84
2, 1162436, Note_off_c, 0, 72, 64
2, 1162440, Note_on_c, 0, 69, 75
2, 1162556, Note_off_c, 0, 69, 64
2, 1162560, Note_on_c, 0, 71, 89
2, 1162676, Note_off_c, 0, 71, 64
2, 1162680, Note_on_c, 0, 76, 95
2, 1162796, Note_off_c, 0, 76, 64
2, 1162800, Note_on_c, 0, 74, 84
2, 1162916, Note_off_c, 0, 74, 64
2, 1162920, Note_on_c, 0, 72, 84
2, 1163036, Note_off_c, 0, 72, 64
2, 1163040, Note_on_c, 0, 74, 89
2, 1163156, Note_off_c, 0, 74, 64
2, 1163160, Note_on_c, 0, 80, 90
2, 1163276, Note_off_c, 0, 80, 64
2, 1163280, Note_on_c, 0, 83, 92
2, 1163396, Note_off_c, 0, 83, 64
2, 1163400, Note_on_c, 0, 76, 69
2, 1163516, Note_off_c, 0, 76, 64
2, 1163520, Note_on_c, 0, 74, 78
2, 1163636, Note_off_c, 0, 74, 64
2, 1163640, Note_on_c, 0, 72, 83
2, 1163756, Note_off_c, 0, 72, 64
2, 1163760, Note_on_c, 0, 74, 73
2, 1163876, Note_off_c, 0, 74, 64
2, 1163880, Note_on_c, 0, 71, 78
2, 1163996, Note_off_c, 0, 71, 64
2, 1164000, Note_on_c, 0, 72, 92
2, 1164836, Note_off_c, 0, 72, 64
2, 1164840, Note_on_c, 0, 71, 92
2, 1164956, Note_off_c, 0, 71, 64
2, 1164960, Note_on_c, 0, 69, 77
2, 1165076, Note_off_c, 0, 69, 64
2, 1165080, Note_on_c, 0, 71, 77
2, 1165196, Note_off_c, 0, 71, 64
2, 1165200, Note_on_c, 0, 72, 82
2, 1165316, Note_off_c, 0, 72, 64
2, 1165320, Note_on_c, 0, 69, 85
2, 1165436, Note_off_c, 0, 69, 64
2, 1165440, Note_on_c, 0, 74, 96
2, 1165916, Note_off_c, 0, 74, 64
2, 1165920, Note_on_c, 0, 71, 95
2, 1166156, Note_off_c, 0, 71, 64
2, 1166160, Note_on_c, 0, 67, 64
2, 1166396, Note_off_c, 0, 67, 64
2, 1166400, Note_on_c, 0, 69, 83
2, 1166636, Note_off_c, 0, 69, 64
2, 1166880, Note_on_c, 0, 67, 85
2, 1168800, Note_off_c, 0, 67, 64
2, 1168800, Note_on_c, 0, 71, 109
2, 1168916, Note_off_c, 0, 71, 64
2, 1168920, Note_on_c, 0, 74, 104
2, 1169036, Note_off_c, 0, 74, 64
2, 1169040, Note_on_c, 0, 78, 96
2, 1169156, Note_off_c, 0, 78, 64
2, 1169160, Note_on_c, 0, 81, 102
2, 1169276, Note_off_c, 0, 81, 64
2, 1169280, Note_on_c, 0, 79, 102
2, 1169640, Note_off_c, 0, 79, 64
2, 1169640, Note_on_c, 0, 72, 72
2, 1169756, Note_off_c, 0, 72, 64
2, 1169760, Note_on_c, 0, 71, 96
2, 1169876, Note_off_c, 0, 71, 64
2, 1169880, Note_on_c, 0, 69, 95
2, 1169996, Note_off_c, 0, 69, 64
2, 1170000, Note_on_c, 0, 67, 93
2, 1170116, Note_off_c, 0, 67, 64
2, 1170120, Note_on_c, 0, 71, 91
2, 1170236, Note_off_c, 0, 71, 64
2, 1170240, Note_on_c, 0, 69, 104
2, 1170356, Note_off_c, 0, 69, 64
2, 1170360, Note_on_c, 0, 73, 90
2, 1170476, Note_off_c, 0, 73, 64
2, 1170480, Note_on_c, 0, 76, 95
2, 1170596, Note_off_c, 0, 76, 64
2, 1170600, Note_on_c, 0, 79, 98
2, 1170716, Note_off_c, 0, 79, 64
2, 1170720, Note_on_c, 0, 78, 123
2, 1171076, Note_off_c, 0, 78, 64
2, 1171080, Note_on_c, 0, 71, 111
2, 1171196, Note_off_c, 0, 71, 64
2, 1171200, Note_on_c, 0, 69, 101
2, 1171316, Note_off_c, 0, 69, 64
2, 1171320, Note_on_c, 0, 67, 96
2, 1171436, Note_off_c, 0, 67, 64
2, 1171440, Note_on_c, 0, 66, 104
2, 1171556, Note_off_c, 0, 66, 64
2, 1171560, Note_on_c, 0, 69, 93
2, 1171676, Note_off_c, 0, 69, 64
2, 1171680, Note_on_c, 0, 67, 101
2, 1171796, Note_off_c, 0, 67, 64
2, 1171800, Note_on_c, 0, 71, 101
2, 1171916, Note_off_c, 0, 71, 64
2, 1171920, Note_on_c, 0, 74, 91
2, 1172036, Note_off_c, 0, 74, 64
2, 1172040, Note_on_c, 0, 78, 94
2, 1172156, Note_off_c, 0, 78, 64
2, 1172160, Note_on_c, 0, 76, 98
2, 1172516, Note_off_c, 0, 76, 64
2, 1172520, Note_on_c, 0, 69, 98
2, 1172636, Note_off_c, 0, 69, 64
2, 1172640, Note_on_c, 0, 67, 102
2, 1172756, Note_off_c, 0, 67, 64
2, 1172760, Note_on_c, 0, 66, 104
2, 1172876, Note_off_c, 0, 66, 64
2, 1172880, Note_on_c, 0, 64, 102
2, 1172996, Note_off_c, 0, 64, 64
2, 1173000, Note_on_c, 0, 67, 102
2, 1173116, Note_off_c, 0, 67, 64
2, 1173120, Note_on_c, 0, 66, 104
2, 1173236, Note_off_c, 0, 66, 64
2, 1173240, Note_on_c, 0, 64, 101
2, 1173356, Note_off_c, 0, 64, 64
2, 1173360, Note_on_c, 0, 66, 93
2, 1173476, Note_off_c, 0, 66, 64
2, 1173480, Note_on_c, 0, 64, 93
2, 1173596, Note_off_c, 0, 64, 64
2, 1173600, Note_on_c, 0, 66, 102
2, 1173716, Note_off_c, 0, 66, 64
2, 1173720, Note_on_c, 0, 69, 93
2, 1173836, Note_off_c, 0, 69, 64
2, 1173840, Note_on_c, 0, 74, 91
2, 1173956, Note_off_c, 0, 74, 64
2, 1173960, Note_on_c, 0, 73, 94
2, 1174076, Note_off_c, 0, 73, 64
2, 1174080, Note_on_c, 0, 74, 104
2, 1174196, Note_off_c, 0, 74, 64
2, 1174200, Note_on_c, 0, 78, 94
2, 1174316, Note_off_c, 0, 78, 64
2, 1174320, Note_on_c, 0, 81, 107
2, 1174436, Note_off_c, 0, 81, 64
2, 1174440, Note_on_c, 0, 72, 101
2, 1174556, Note_off_c, 0, 72, 64
2, 1174560, Note_on_c, 0, 71, 95
2, 1174676, Note_off_c, 0, 71, 64
2, 1174680, Note_on_c, 0, 79, 104
2, 1174796, Note_off_c, 0, 79, 64
2, 1174800, Note_on_c, 0, 69, 86
2, 1174916, Note_off_c, 0, 69, 64
2, 1174920, Note_on_c, 0, 78, 94
2, 1175036, Note_off_c, 0, 78, 64
2, 1175040, Note_on_c, 0, 67, 82
2, 1175156, Note_off_c, 0, 67, 64
2, 1175160, Note_on_c, 0, 76, 102
2, 1175276, Note_off_c, 0, 76, 64
2, 1175280, Note_on_c, 0, 65, 100
2, 1175396, Note_off_c, 0, 65, 64
2, 1175400, Note_on_c, 0, 74, 104
2, 1175516, Note_off_c, 0, 74, 64
2, 1175520, Note_on_c, 0, 64, 100
2, 1175636, Note_off_c, 0, 64, 64
2, 1175640, Note_on_c, 0, 72, 107
2, 1175756, Note_off_c, 0, 72, 64
2, 1175760, Note_on_c, 0, 62, 88
2, 1175880, Note_off_c, 0, 62, 64
2, 1175880, Note_on_c, 0, 71, 95
2, 1175996, Note_off_c, 0, 71, 64
2, 1176000, Note_on_c, 0, 72, 119
2, 1176116, Note_off_c, 0, 72, 64
2, 1176120, Note_on_c, 0, 64, 96
2, 1176236, Note_off_c, 0, 64, 64
2, 1176240, Note_on_c, 0, 71, 106
2, 1176356, Note_off_c, 0, 71, 64
2, 1176360, Note_on_c, 0, 62, 88
2, 1176476, Note_off_c, 0, 62, 64
2, 1176480, Note_on_c, 0, 69, 104
2, 1176596, Note_off_c, 0, 69, 64
2, 1176600, Note_on_c, 0, 60, 95
2, 1176716, Note_off_c, 0, 60, 64
2, 1176720, Note_on_c, 0, 67, 104
2, 1176836, Note_off_c, 0, 67, 64
2, 1176840, Note_on_c, 0, 59, 98
2, 1176956, Note_off_c, 0, 59, 64
2, 1176960, Note_on_c, 0, 66, 108
2, 1177076, Note_off_c, 0, 66, 64
2, 1177080, Note_on_c, 0, 57, 71
2, 1177196, Note_off_c, 0, 57, 64
2, 1177200, Note_on_c, 0, 64, 85
2, 1177316, Note_off_c, 0, 64, 64
2, 1177320, Note_on_c, 0, 55, 91
2, 1177436, Note_off_c, 0, 55, 64
2, 1177440, Note_on_c, 0, 57, 96
2, 1177556, Note_off_c, 0, 57, 64
2, 1177560, Note_on_c, 0, 66, 108
2, 1177676, Note_off_c, 0, 66, 64
2, 1177680, Note_on_c, 0, 55, 95
2, 1177796, Note_off_c, 0, 55, 64
2, 1177800, Note_on_c, 0, 64, 100
2, 1177916, Note_off_c, 0, 64, 64
2, 1177920, Note_on_c, 0, 54, 104
2, 1178036, Note_off_c, 0, 54, 64
2, 1178040, Note_on_c, 0, 62, 102
2, 1178156, Note_off_c, 0, 62, 64
2, 1178160, Note_on_c, 0, 52, 86
2, 1178276, Note_off_c, 0, 52, 64
2, 1178280, Note_on_c, 0, 60, 96
2, 1178396, Note_off_c, 0, 60, 64
2, 1178400, Note_on_c, 0, 50, 90
2, 1178516, Note_off_c, 0, 50, 64
2, 1178520, Note_on_c, 0, 59, 90
2, 1178636, Note_off_c, 0, 59, 64
2, 1178640, Note_on_c, 0, 48, 81
2, 1178756, Note_off_c, 0, 48, 64
2, 1178760, Note_on_c, 0, 57, 85
2, 1178876, Note_off_c, 0, 57, 64
2, 1178880, Note_on_c, 0, 47, 37
2, 1178996, Note_off_c, 0, 47, 64
2, 1179000, Note_on_c, 0, 45, 77
2, 1179116, Note_off_c, 0, 45, 64
2, 1179120, Note_on_c, 0, 47, 107
2, 1179236, Note_off_c, 0, 47, 64
2, 1179240, Note_on_c, 0, 45, 96
2, 1179356, Note_off_c, 0, 45, 64
2, 1179360, Note_on_c, 0, 47, 106
2, 1179476, Note_off_c, 0, 47, 64
2, 1179480, Note_on_c, 0, 50, 98
2, 1179596, Note_off_c, 0, 50, 64
2, 1179600, Note_on_c, 0, 55, 100
2, 1179716, Note_off_c, 0, 55, 64
2, 1179720, Note_on_c, 0, 54, 102
2, 1179836, Note_off_c, 0, 54, 64
2, 1179840, Note_on_c, 0, 55, 104
2, 1180076, Note_off_c, 0, 55, 64
2, 1180320, Note_on_c, 0, 74, 109
2, 1180436, Note_off_c, 0, 74, 64
2, 1180440, Note_on_c, 0, 83, 109
2, 1180556, Note_off_c, 0, 83, 64
2, 1180560, Note_on_c, 0, 72, 86
2, 1180676, Note_off_c, 0, 72, 64
2, 1180680, Note_on_c, 0, 81, 104
2, 1180796, Note_off_c, 0, 81, 64
2, 1180800, Note_on_c, 0, 71, 93
2, 1180916, Note_off_c, 0, 71, 64
2, 1180920, Note_on_c, 0, 79, 90
2, 1181036, Note_off_c, 0, 79, 64
2, 1181040, Note_on_c, 0, 69, 82
2, 1181156, Note_off_c, 0, 69, 64
2, 1181160, Note_on_c, 0, 78, 94
2, 1181276, Note_off_c, 0, 78, 64
2, 1181280, Note_on_c, 0, 67, 91
2, 1181396, Note_off_c, 0, 67, 64
2, 1181400, Note_on_c, 0, 76, 100
2, 1181516, Note_off_c, 0, 76, 64
2, 1181520, Note_on_c, 0, 66, 94
2, 1181636, Note_off_c, 0, 66, 64
2, 1181640, Note_on_c, 0, 74, 97
2, 1181756, Note_off_c, 0, 74, 64
2, 1181760, Note_on_c, 0, 64, 93
2, 1181876, Note_off_c, 0, 64, 64
2, 1181880, Note_on_c, 0, 74, 106
2, 1181996, Note_off_c, 0, 74, 64
2, 1182000, Note_on_c, 0, 73, 104
2, 1182116, Note_off_c, 0, 73, 64
2, 1182120, Note_on_c, 0, 71, 96
2, 1182236, Note_off_c, 0, 71, 64
2, 1182240, Note_on_c, 0, 73, 92
2, 1182300, Note_off_c, 0, 73, 64
2, 1182360, Note_on_c, 0, 76, 102
2, 1182420, Note_off_c, 0, 76, 64
2, 1182480, Note_on_c, 0, 81, 93
2, 1182720, Note_off_c, 0, 81, 64
2, 1182720, Note_on_c, 0, 81, 102
2, 1182780, Note_off_c, 0, 81, 64
2, 1182780, Note_on_c, 0, 79, 102
2, 1182840, Note_off_c, 0, 79, 64
2, 1182840, Note_on_c, 0, 81, 111
2, 1183196, Note_off_c, 0, 81, 64
2, 1183200, Note_on_c, 0, 71, 93
2, 1183316, Note_off_c, 0, 71, 64
2, 1183320, Note_on_c, 0, 79, 107
2, 1183436, Note_off_c, 0, 79, 64
2, 1183440, Note_on_c, 0, 69, 82
2, 1183556, Note_off_c, 0, 69, 64
2, 1183560, Note_on_c, 0, 78, 104
2, 1183676, Note_off_c, 0, 78, 64
2, 1183680, Note_on_c, 0, 67, 95
2, 1183796, Note_off_c, 0, 67, 64
2, 1183800, Note_on_c, 0, 76, 109
2, 1183916, Note_off_c, 0, 76, 64
2, 1183920, Note_on_c, 0, 66, 84
2, 1184036, Note_off_c, 0, 66, 64
2, 1184040, Note_on_c, 0, 74, 102
2, 1184156, Note_off_c, 0, 74, 64
2, 1184160, Note_on_c, 0, 64, 102
2, 1184276, Note_off_c, 0, 64, 64
2, 1184280, Note_on_c, 0, 73, 102
2, 1184396, Note_off_c, 0, 73, 64
2, 1184400, Note_on_c, 0, 62, 100
2, 1184516, Note_off_c, 0, 62, 64
2, 1184520, Note_on_c, 0, 71, 97
2, 1184636, Note_off_c, 0, 71, 64
2, 1184640, Note_on_c, 0, 61, 97
2, 1184756, Note_off_c, 0, 61, 64
2, 1184760, Note_on_c, 0, 71, 98
2, 1184876, Note_off_c, 0, 71, 64
2, 1184880, Note_on_c, 0, 69, 91
2, 1184996, Note_off_c, 0, 69, 64
2, 1185000, Note_on_c, 0, 68, 97
2, 1185116, Note_off_c, 0, 68, 64
2, 1185120, Note_on_c, 0, 69, 75
2, 1185236, Note_off_c, 0, 69, 64
2, 1185240, Note_on_c, 0, 73, 89
2, 1185356, Note_off_c, 0, 73, 64
2, 1185360, Note_on_c, 0, 76, 111
2, 1185596, Note_off_c, 0, 76, 64
2, 1185600, Note_on_c, 0, 76, 113
2, 1185660, Note_off_c, 0, 76, 64
2, 1185660, Note_on_c, 0, 74, 100
2, 1185720, Note_off_c, 0, 74, 64
2, 1185720, Note_on_c, 0, 76, 111
2, 1186196, Note_off_c, 0, 76, 64
2, 1186200, Note_on_c, 0, 74, 104
2, 1186316, Note_off_c, 0, 74, 64
2, 1186320, Note_on_c, 0, 76, 93
2, 1186436, Note_off_c, 0, 76, 64
2, 1186440, Note_on_c, 0, 73, 89
2, 1186556, Note_off_c, 0, 73, 64
2, 1186560, Note_on_c, 0, 74, 100
2, 1186676, Note_off_c, 0, 74, 64
2, 1186680, Note_on_c, 0, 71, 92
2, 1186796, Note_off_c, 0, 71, 64
2, 1186800, Note_on_c, 0, 72, 101
2, 1186916, Note_off_c, 0, 72, 64
2, 1186920, Note_on_c, 0, 69, 91
2, 1187036, Note_off_c, 0, 69, 64
2, 1187040, Note_on_c, 0, 71, 92
2, 1187156, Note_off_c, 0, 71, 64
2, 1187160, Note_on_c, 0, 67, 86
2, 1187276, Note_off_c, 0, 67, 64
2, 1187280, Note_on_c, 0, 69, 95
2, 1187396, Note_off_c, 0, 69, 64
2, 1187400, Note_on_c, 0, 66, 86
2, 1187516, Note_off_c, 0, 66, 64
2, 1187520, Note_on_c, 0, 67, 102
2, 1187636, Note_off_c, 0, 67, 64
2, 1187640, Note_on_c, 0, 76, 102
2, 1187756, Note_off_c, 0, 76, 64
2, 1187760, Note_on_c, 0, 66, 94
2, 1187876, Note_off_c, 0, 66, 64
2, 1187880, Note_on_c, 0, 74, 100
2, 1187996, Note_off_c, 0, 74, 64
2, 1188000, Note_on_c, 0, 64, 98
2, 1188116, Note_off_c, 0, 64, 64
2, 1188120, Note_on_c, 0, 73, 108
2, 1188236, Note_off_c, 0, 73, 64
2, 1188240, Note_on_c, 0, 74, 109
2, 1188300, Note_off_c, 0, 74, 64
2, 1188300, Note_on_c, 0, 73, 109
2, 1188360, Note_off_c, 0, 73, 64
2, 1188360, Note_on_c, 0, 71, 97
2, 1188476, Note_off_c, 0, 71, 64
2, 1188480, Note_on_c, 0, 73, 107
2, 1188540, Note_off_c, 0, 73, 64
2, 1188540, Note_on_c, 0, 71, 107
2, 1188600, Note_off_c, 0, 71, 64
2, 1188600, Note_on_c, 0, 69, 92
2, 1188716, Note_off_c, 0, 69, 64
2, 1188720, Note_on_c, 0, 71, 97
2, 1188836, Note_off_c, 0, 71, 64
2, 1188840, Note_on_c, 0, 79, 107
2, 1188956, Note_off_c, 0, 79, 64
2, 1188960, Note_on_c, 0, 79, 117
2, 1189320, Note_off_c, 0, 79, 64
2, 1189320, Note_on_c, 0, 78, 110
2, 1189380, Note_off_c, 0, 78, 64
2, 1189380, Note_on_c, 0, 76, 91
2, 1189440, Note_off_c, 0, 76, 64
2, 1189440, Note_on_c, 0, 78, 112
2, 1189556, Note_off_c, 0, 78, 64
2, 1189560, Note_on_c, 0, 74, 95
2, 1189676, Note_off_c, 0, 74, 64
2, 1189680, Note_on_c, 0, 71, 115
2, 1189796, Note_off_c, 0, 71, 64
2, 1189800, Note_on_c, 0, 67, 98
2, 1189916, Note_off_c, 0, 67, 64
2, 1189920, Note_on_c, 0, 69, 95
2, 1190036, Note_off_c, 0, 69, 64
2, 1190040, Note_on_c, 0, 66, 89
2, 1190156, Note_off_c, 0, 66, 64
2, 1190160, Note_on_c, 0, 67, 78
2, 1190276, Note_off_c, 0, 67, 64
2, 1190280, Note_on_c, 0, 76, 107
2, 1190396, Note_off_c, 0, 76, 64
2, 1190400, Note_on_c, 0, 66, 104
2, 1190516, Note_off_c, 0, 66, 64
2, 1190520, Note_on_c, 0, 64, 96
2, 1190636, Note_off_c, 0, 64, 64
2, 1190640, Note_on_c, 0, 66, 101
2, 1190756, Note_off_c, 0, 66, 64
2, 1190760, Note_on_c, 0, 64, 84
2, 1190876, Note_off_c, 0, 64, 64
2, 1190880, Note_on_c, 0, 66, 108
2, 1190996, Note_off_c, 0, 66, 64
2, 1191000, Note_on_c, 0, 69, 100
2, 1191116, Note_off_c, 0, 69, 64
2, 1191120, Note_on_c, 0, 74, 100
2, 1191236, Note_off_c, 0, 74, 64
2, 1191240, Note_on_c, 0, 73, 106
2, 1191356, Note_off_c, 0, 73, 64
2, 1191360, Note_on_c, 0, 74, 117
2, 1191596, Note_off_c, 0, 74, 64
2, 1191840, Note_on_c, 0, 81, 113
2, 1191956, Note_off_c, 0, 81, 64
2, 1191960, Note_on_c, 0, 78, 90
2, 1192076, Note_off_c, 0, 78, 64
2, 1192080, Note_on_c, 0, 79, 97
2, 1192196, Note_off_c, 0, 79, 64
2, 1192200, Note_on_c, 0, 76, 76
2, 1192316, Note_off_c, 0, 76, 64
2, 1192320, Note_on_c, 0, 78, 101
2, 1192436, Note_off_c, 0, 78, 64
2, 1192440, Note_on_c, 0, 74, 90
2, 1192556, Note_off_c, 0, 74, 64
2, 1192560, Note_on_c, 0, 76, 96
2, 1192676, Note_off_c, 0, 76, 64
2, 1192680, Note_on_c, 0, 72, 98
2, 1192796, Note_off_c, 0, 72, 64
2, 1192800, Note_on_c, 0, 74, 95
2, 1192916, Note_off_c, 0, 74, 64
2, 1192920, Note_on_c, 0, 71, 92
2, 1193036, Note_off_c, 0, 71, 64
2, 1193040, Note_on_c, 0, 72, 90
2, 1193156, Note_off_c, 0, 72, 64
2, 1193160, Note_on_c, 0, 69, 88
2, 1193276, Note_off_c, 0, 69, 64
2, 1193280, Note_on_c, 0, 71, 89
2, 1193396, Note_off_c, 0, 71, 64
2, 1193400, Note_on_c, 0, 67, 96
2, 1193516, Note_off_c, 0, 67, 64
2, 1193520, Note_on_c, 0, 69, 89
2, 1193636, Note_off_c, 0, 69, 64
2, 1193640, Note_on_c, 0, 66, 94
2, 1193756, Note_off_c, 0, 66, 64
2, 1193760, Note_on_c, 0, 67, 109
2, 1193876, Note_off_c, 0, 67, 64
2, 1193880, Note_on_c, 0, 64, 91
2, 1193996, Note_off_c, 0, 64, 64
2, 1194000, Note_on_c, 0, 66, 104
2, 1194116, Note_off_c, 0, 66, 64
2, 1194120, Note_on_c, 0, 63, 104
2, 1194236, Note_off_c, 0, 63, 64
2, 1194240, Note_on_c, 0, 64, 107
2, 1194356, Note_off_c, 0, 64, 64
2, 1194360, Note_on_c, 0, 60, 102
2, 1194476, Note_off_c, 0, 60, 64
2, 1194480, Note_on_c, 0, 62, 107
2, 1194596, Note_off_c, 0, 62, 64
2, 1194600, Note_on_c, 0, 59, 96
2, 1194716, Note_off_c, 0, 59, 64
2, 1194720, Note_on_c, 0, 60, 107
2, 1194836, Note_off_c, 0, 60, 64
2, 1194840, Note_on_c, 0, 57, 98
2, 1194956, Note_off_c, 0, 57, 64
2, 1194960, Note_on_c, 0, 59, 97
2, 1195076, Note_off_c, 0, 59, 64
2, 1195080, Note_on_c, 0, 56, 94
2, 1195196, Note_off_c, 0, 56, 64
2, 1195200, Note_on_c, 0, 57, 111
2, 1195316, Note_off_c, 0, 57, 64
2, 1195320, Note_on_c, 0, 54, 97
2, 1195436, Note_off_c, 0, 54, 64
2, 1195440, Note_on_c, 0, 55, 96
2, 1195556, Note_off_c, 0, 55, 64
2, 1195560, Note_on_c, 0, 52, 92
2, 1195676, Note_off_c, 0, 52, 64
2, 1195680, Note_on_c, 0, 53, 109
2, 1195796, Note_off_c, 0, 53, 64
2, 1195800, Note_on_c, 0, 51, 102
2, 1195916, Note_off_c, 0, 51, 64
2, 1195920, Note_on_c, 0, 52, 107
2, 1196036, Note_off_c, 0, 52, 64
2, 1196040, Note_on_c, 0, 49, 102
2, 1196156, Note_off_c, 0, 49, 64
2, 1196160, Note_on_c, 0, 51, 110
2, 1196276, Note_off_c, 0, 51, 64
2, 1196280, Note_on_c, 0, 49, 108
2, 1196396, Note_off_c, 0, 49, 64
2, 1196400, Note_on_c, 0, 51, 106
2, 1196516, Note_off_c, 0, 51, 64
2, 1196520, Note_on_c, 0, 49, 108
2, 1196636, Note_off_c, 0, 49, 64
2, 1196640, Note_on_c, 0, 51, 121
2, 1197236, Note_off_c, 0, 51, 64
2, 1197240, Note_on_c, 0, 54, 104
2, 1197356, Note_off_c, 0, 54, 64
2, 1197360, Note_on_c, 0, 59, 113
2, 1197476, Note_off_c, 0, 59, 64
2, 1197480, Note_on_c, 0, 57, 104
2, 1197596, Note_off_c, 0, 57, 64
2, 1197600, Note_on_c, 0, 55, 93
2, 1197716, Note_off_c, 0, 55, 64
2, 1197720, Note_on_c, 0, 59, 101
2, 1197836, Note_off_c, 0, 59, 64
2, 1197840, Note_on_c, 0, 57, 89
2, 1197956, Note_off_c, 0, 57, 64
2, 1197960, Note_on_c, 0, 60, 96
2, 1198076, Note_off_c, 0, 60, 64
2, 1198080, Note_on_c, 0, 59, 97
2, 1198196, Note_off_c, 0, 59, 64
2, 1198200, Note_on_c, 0, 63, 102
2, 1198316, Note_off_c, 0, 63, 64
2, 1198320, Note_on_c, 0, 61, 104
2, 1198436, Note_off_c, 0, 61, 64
2, 1198440, Note_on_c, 0, 64, 101
2, 1198556, Note_off_c, 0, 64, 64
2, 1198560, Note_on_c, 0, 63, 92
2, 1198676, Note_off_c, 0, 63, 64
2, 1198680, Note_on_c, 0, 66, 97
2, 1198796, Note_off_c, 0, 66, 64
2, 1198800, Note_on_c, 0, 64, 95
2, 1198916, Note_off_c, 0, 64, 64
2, 1198920, Note_on_c, 0, 67, 86
2, 1199036, Note_off_c, 0, 67, 64
2, 1199040, Note_on_c, 0, 66, 104
2, 1199156, Note_off_c, 0, 66, 64
2, 1199160, Note_on_c, 0, 69, 89
2, 1199276, Note_off_c, 0, 69, 64
2, 1199280, Note_on_c, 0, 67, 101
2, 1199396, Note_off_c, 0, 67, 64
2, 1199400, Note_on_c, 0, 71, 100
2, 1199516, Note_off_c, 0, 71, 64
2, 1199520, Note_on_c, 0, 69, 86
2, 1199636, Note_off_c, 0, 69, 64
2, 1199640, Note_on_c, 0, 72, 98
2, 1199756, Note_off_c, 0, 72, 64
2, 1199760, Note_on_c, 0, 71, 98
2, 1199876, Note_off_c, 0, 71, 64
2, 1199880, Note_on_c, 0, 74, 89
2, 1199996, Note_off_c, 0, 74, 64
2, 1200000, Note_on_c, 0, 72, 95
2, 1200116, Note_off_c, 0, 72, 64
2, 1200120, Note_on_c, 0, 76, 101
2, 1200236, Note_off_c, 0, 76, 64
2, 1200240, Note_on_c, 0, 75, 96
2, 1200356, Note_off_c, 0, 75, 64
2, 1200360, Note_on_c, 0, 78, 99
2, 1200476, Note_off_c, 0, 78, 64
2, 1200480, Note_on_c, 0, 76, 101
2, 1200596, Note_off_c, 0, 76, 64
2, 1200600, Note_on_c, 0, 79, 95
2, 1200716, Note_off_c, 0, 79, 64
2, 1200720, Note_on_c, 0, 78, 81
2, 1200836, Note_off_c, 0, 78, 64
2, 1200840, Note_on_c, 0, 81, 109
2, 1200956, Note_off_c, 0, 81, 64
2, 1200960, Note_on_c, 0, 79, 95
2, 1201076, Note_off_c, 0, 79, 64
2, 1201080, Note_on_c, 0, 83, 104
2, 1201196, Note_off_c, 0, 83, 64
2, 1201200, Note_on_c, 0, 81, 98
2, 1201316, Note_off_c, 0, 81, 64
2, 1201320, Note_on_c, 0, 84, 98
2, 1201436, Note_off_c, 0, 84, 64
2, 1201440, Note_on_c, 0, 83, 115
2, 1201556, Note_off_c, 0, 83, 64
2, 1201560, Note_on_c, 0, 79, 95
2, 1201676, Note_off_c, 0, 79, 64
2, 1201680, Note_on_c, 0, 81, 98
2, 1201796, Note_off_c, 0, 81, 64
2, 1201800, Note_on_c, 0, 78, 97
2, 1201916, Note_off_c, 0, 78, 64
2, 1201920, Note_on_c, 0, 79, 97
2, 1202036, Note_off_c, 0, 79, 64
2, 1202040, Note_on_c, 0, 76, 89
2, 1202156, Note_off_c, 0, 76, 64
2, 1202160, Note_on_c, 0, 78, 93
2, 1202276, Note_off_c, 0, 78, 64
2, 1202280, Note_on_c, 0, 75, 102
2, 1202396, Note_off_c, 0, 75, 64
2, 1202400, Note_on_c, 0, 76, 104
2, 1202516, Note_off_c, 0, 76, 64
2, 1202520, Note_on_c, 0, 72, 106
2, 1202636, Note_off_c, 0, 72, 64
2, 1202640, Note_on_c, 0, 71, 96
2, 1202756, Note_off_c, 0, 71, 64
2, 1202760, Note_on_c, 0, 69, 101
2, 1202876, Note_off_c, 0, 69, 64
2, 1202880, Note_on_c, 0, 67, 101
2, 1202996, Note_off_c, 0, 67, 64
2, 1203000, Note_on_c, 0, 66, 112
2, 1203116, Note_off_c, 0, 66, 64
2, 1203120, Note_on_c, 0, 64, 107
2, 1203476, Note_off_c, 0, 64, 64
2, 1203480, Note_on_c, 0, 76, 117
2, 1203600, Note_off_c, 0, 76, 64
2, 1203600, Note_on_c, 0, 71, 82
2, 1203716, Note_off_c, 0, 71, 64
2, 1203720, Note_on_c, 0, 74, 111
2, 1203836, Note_off_c, 0, 74, 64
2, 1203840, Note_on_c, 0, 72, 113
2, 1203956, Note_off_c, 0, 72, 64
2, 1203960, Note_on_c, 0, 71, 107
2, 1204076, Note_off_c, 0, 71, 64
2, 1204080, Note_on_c, 0, 69, 98
2, 1204196, Note_off_c, 0, 69, 64
2, 1204200, Note_on_c, 0, 72, 107
2, 1204316, Note_off_c, 0, 72, 64
2, 1204320, Note_on_c, 0, 71, 95
2, 1204436, Note_off_c, 0, 71, 64
2, 1204440, Note_on_c, 0, 74, 96
2, 1204556, Note_off_c, 0, 74, 64
2, 1204560, Note_on_c, 0, 72, 95
2, 1204676, Note_off_c, 0, 72, 64
2, 1204680, Note_on_c, 0, 76, 97
2, 1204796, Note_off_c, 0, 76, 64
2, 1204800, Note_on_c, 0, 74, 107
2, 1204916, Note_off_c, 0, 74, 64
2, 1204920, Note_on_c, 0, 71, 93
2, 1205036, Note_off_c, 0, 71, 64
2, 1205040, Note_on_c, 0, 69, 85
2, 1205156, Note_off_c, 0, 69, 64
2, 1205160, Note_on_c, 0, 72, 93
2, 1205276, Note_off_c, 0, 72, 64
2, 1205280, Note_on_c, 0, 71, 96
2, 1205396, Note_off_c, 0, 71, 64
2, 1205400, Note_on_c, 0, 69, 88
2, 1205516, Note_off_c, 0, 69, 64
2, 1205520, Note_on_c, 0, 68, 89
2, 1205636, Note_off_c, 0, 68, 64
2, 1205640, Note_on_c, 0, 71, 100
2, 1205756, Note_off_c, 0, 71, 64
2, 1205760, Note_on_c, 0, 69, 93
2, 1205876, Note_off_c, 0, 69, 64
2, 1205880, Note_on_c, 0, 72, 101
2, 1205996, Note_off_c, 0, 72, 64
2, 1206000, Note_on_c, 0, 71, 85
2, 1206116, Note_off_c, 0, 71, 64
2, 1206120, Note_on_c, 0, 74, 85
2, 1206236, Note_off_c, 0, 74, 64
2, 1206240, Note_on_c, 0, 72, 92
2, 1206356, Note_off_c, 0, 72, 64
2, 1206360, Note_on_c, 0, 69, 81
2, 1206476, Note_off_c, 0, 69, 64
2, 1206480, Note_on_c, 0, 67, 90
2, 1206596, Note_off_c, 0, 67, 64
2, 1206600, Note_on_c, 0, 71, 89
2, 1206716, Note_off_c, 0, 71, 64
2, 1206720, Note_on_c, 0, 69, 91
2, 1206836, Note_off_c, 0, 69, 64
2, 1206840, Note_on_c, 0, 78, 82
2, 1206956, Note_off_c, 0, 78, 64
2, 1206960, Note_on_c, 0, 79, 91
2, 1207076, Note_off_c, 0, 79, 64
2, 1207080, Note_on_c, 0, 76, 94
2, 1207196, Note_off_c, 0, 76, 64
2, 1207200, Note_on_c, 0, 78, 88
2, 1207316, Note_off_c, 0, 78, 64
2, 1207320, Note_on_c, 0, 74, 89
2, 1207436, Note_off_c, 0, 74, 64
2, 1207440, Note_on_c, 0, 76, 84
2, 1207556, Note_off_c, 0, 76, 64
2, 1207560, Note_on_c, 0, 84, 91
2, 1207676, Note_off_c, 0, 84, 64
2, 1207680, Note_on_c, 0, 84, 119
2, 1207920, Note_off_c, 0, 84, 64
2, 1207980, Note_on_c, 0, 83, 92
2, 1208040, Note_off_c, 0, 83, 64
2, 1208040, Note_on_c, 0, 81, 121
2, 1208100, Note_off_c, 0, 81, 64
2, 1208100, Note_on_c, 0, 79, 98
2, 1208160, Note_off_c, 0, 79, 64
2, 1208160, Note_on_c, 0, 78, 101
2, 1208276, Note_off_c, 0, 78, 64
2, 1208280, Note_on_c, 0, 79, 88
2, 1208396, Note_off_c, 0, 79, 64
2, 1208400, Note_on_c, 0, 81, 88
2, 1208516, Note_off_c, 0, 81, 64
2, 1208520, Note_on_c, 0, 78, 90
2, 1208636, Note_off_c, 0, 78, 64
2, 1208640, Note_on_c, 0, 76, 90
2, 1208756, Note_off_c, 0, 76, 64
2, 1208760, Note_on_c, 0, 74, 101
2, 1209236, Note_off_c, 0, 74, 64
2, 1209240, Note_on_c, 0, 71, 97
2, 1209356, Note_off_c, 0, 71, 64
2, 1209360, Note_on_c, 0, 72, 93
2, 1209476, Note_off_c, 0, 72, 64
2, 1209480, Note_on_c, 0, 69, 82
2, 1209596, Note_off_c, 0, 69, 64
2, 1209600, Note_on_c, 0, 71, 93
2, 1209716, Note_off_c, 0, 71, 64
2, 1209720, Note_on_c, 0, 79, 113
2, 1209836, Note_off_c, 0, 79, 64
2, 1209840, Note_on_c, 0, 69, 81
2, 1209956, Note_off_c, 0, 69, 64
2, 1209960, Note_on_c, 0, 77, 113
2, 1210076, Note_off_c, 0, 77, 64
2, 1210080, Note_on_c, 0, 67, 91
2, 1210196, Note_off_c, 0, 67, 64
2, 1210200, Note_on_c, 0, 76, 109
2, 1210316, Note_off_c, 0, 76, 64
2, 1210320, Note_on_c, 0, 65, 81
2, 1210436, Note_off_c, 0, 65, 64
2, 1210440, Note_on_c, 0, 74, 101
2, 1210556, Note_off_c, 0, 74, 64
2, 1210560, Note_on_c, 0, 64, 102
2, 1210800, Note_off_c, 0, 64, 64
2, 1210860, Note_on_c, 0, 67, 91
2, 1210920, Note_off_c, 0, 67, 64
2, 1210920, Note_on_c, 0, 69, 91
2, 1210980, Note_off_c, 0, 69, 64
2, 1210980, Note_on_c, 0, 71, 91
2, 1211040, Note_off_c, 0, 71, 64
2, 1211040, Note_on_c, 0, 72, 109
2, 1211156, Note_off_c, 0, 72, 64
2, 1211160, Note_on_c, 0, 69, 76
2, 1211276, Note_off_c, 0, 69, 64
2, 1211280, Note_on_c, 0, 71, 90
2, 1211396, Note_off_c, 0, 71, 64
2, 1211400, Note_on_c, 0, 67, 86
2, 1211516, Note_off_c, 0, 67, 64
2, 1211520, Note_on_c, 0, 69, 81
2, 1211636, Note_off_c, 0, 69, 64
2, 1211640, Note_on_c, 0, 66, 93
2, 1211756, Note_off_c, 0, 66, 64
2, 1211760, Note_on_c, 0, 67, 95
2, 1211876, Note_off_c, 0, 67, 64
2, 1211880, Note_on_c, 0, 64, 92
2, 1211996, Note_off_c, 0, 64, 64
2, 1212000, Note_on_c, 0, 66, 86
2, 1212116, Note_off_c, 0, 66, 64
2, 1212120, Note_on_c, 0, 76, 106
2, 1212236, Note_off_c, 0, 76, 64
2, 1212240, Note_on_c, 0, 74, 101
2, 1212480, Note_off_c, 0, 74, 64
2, 1212540, Note_on_c, 0, 76, 93
2, 1212600, Note_off_c, 0, 76, 64
2, 1212600, Note_on_c, 0, 78, 106
2, 1212660, Note_off_c, 0, 78, 64
2, 1212660, Note_on_c, 0, 79, 107
2, 1212720, Note_off_c, 0, 79, 64
2, 1212720, Note_on_c, 0, 78, 99
2, 1212780, Note_off_c, 0, 78, 64
2, 1212780, Note_on_c, 0, 76, 102
2, 1212840, Note_off_c, 0, 76, 64
2, 1212840, Note_on_c, 0, 74, 89
2, 1212900, Note_off_c, 0, 74, 64
2, 1212900, Note_on_c, 0, 72, 81
2, 1212960, Note_off_c, 0, 72, 64
2, 1212960, Note_on_c, 0, 71, 88
2, 1213076, Note_off_c, 0, 71, 64
2, 1213080, Note_on_c, 0, 79, 106
2, 1213196, Note_off_c, 0, 79, 64
2, 1213200, Note_on_c, 0, 69, 96
2, 1213316, Note_off_c, 0, 69, 64
2, 1213320, Note_on_c, 0, 78, 93
2, 1213436, Note_off_c, 0, 78, 64
2, 1213440, Note_on_c, 0, 67, 93
2, 1213556, Note_off_c, 0, 67, 64
2, 1213560, Note_on_c, 0, 66, 90
2, 1213676, Note_off_c, 0, 66, 64
2, 1213680, Note_on_c, 0, 67, 91
2, 1213796, Note_off_c, 0, 67, 64
2, 1213800, Note_on_c, 0, 66, 92
2, 1213916, Note_off_c, 0, 66, 64
2, 1213920, Note_on_c, 0, 67, 96
2, 1214036, Note_off_c, 0, 67, 64
2, 1214040, Note_on_c, 0, 71, 92
2, 1214156, Note_off_c, 0, 71, 64
2, 1214160, Note_on_c, 0, 74, 97
2, 1214276, Note_off_c, 0, 74, 64
2, 1214280, Note_on_c, 0, 78, 102
2, 1214396, Note_off_c, 0, 78, 64
2, 1214400, Note_on_c, 0, 79, 106
2, 1214640, Note_off_c, 0, 79, 64
2, 1217280, Note_on_c, 0, 79, 113
2, 1219196, Note_off_c, 0, 79, 64
2, 1219200, Note_on_c, 0, 78, 117
2, 1220636, Note_off_c, 0, 78, 64
2, 1220640, Note_on_c, 0, 79, 107
2, 1220876, Note_off_c, 0, 79, 64
2, 1220880, Note_on_c, 0, 78, 115
2, 1221116, Note_off_c, 0, 78, 64
2, 1221120, Note_on_c, 0, 76, 111
2, 1222556, Note_off_c, 0, 76, 64
2, 1222560, Note_on_c, 0, 74, 100
2, 1222796, Note_off_c, 0, 74, 64
2, 1222800, Note_on_c, 0, 73, 110
2, 1223036, Note_off_c, 0, 73, 64
2, 1223040, Note_on_c, 0, 74, 92
2, 1223996, Note_off_c, 0, 74, 64
2, 1224960, Note_on_c, 0, 76, 111
2, 1226396, Note_off_c, 0, 76, 64
2, 1226400, Note_on_c, 0, 74, 97
2, 1226636, Note_off_c, 0, 74, 64
2, 1226640, Note_on_c, 0, 76, 104
2, 1226876, Note_off_c, 0, 76, 64
2, 1226880, Note_on_c, 0, 78, 108
2, 1228316, Note_off_c, 0, 78, 64
2, 1228320, Note_on_c, 0, 81, 104
2, 1228556, Note_off_c, 0, 81, 64
2, 1228560, Note_on_c, 0, 79, 102
2, 1228796, Note_off_c, 0, 79, 64
2, 1228800, Note_on_c, 0, 81, 107
2, 1229996, Note_off_c, 0, 81, 64
2, 1230000, Note_on_c, 0, 79, 96
2, 1230236, Note_off_c, 0, 79, 64
2, 1230240, Note_on_c, 0, 81, 109
2, 1230476, Note_off_c, 0, 81, 64
2, 1230480, Note_on_c, 0, 78, 101
2, 1230716, Note_off_c, 0, 78, 64
2, 1230720, Note_on_c, 0, 79, 102
2, 1232156, Note_off_c, 0, 79, 64
2, 1232640, Note_on_c, 0, 76, 117
2, 1234556, Note_off_c, 0, 76, 64
2, 1234560, Note_on_c, 0, 74, 104
2, 1235996, Note_off_c, 0, 74, 64
2, 1236000, Note_on_c, 0, 76, 113
2, 1236236, Note_off_c, 0, 76, 64
2, 1236240, Note_on_c, 0, 78, 101
2, 1236476, Note_off_c, 0, 78, 64
2, 1236480, Note_on_c, 0, 79, 107
2, 1237676, Note_off_c, 0, 79, 64
2, 1237680, Note_on_c, 0, 78, 110
2, 1237916, Note_off_c, 0, 78, 64
2, 1237920, Note_on_c, 0, 79, 93
2, 1238156, Note_off_c, 0, 79, 64
2, 1238160, Note_on_c, 0, 76, 104
2, 1238396, Note_off_c, 0, 76, 64
2, 1238400, Note_on_c, 0, 78, 102
2, 1239836, Note_off_c, 0, 78, 64
2, 1239840, Note_on_c, 0, 78, 117
2, 1240316, Note_off_c, 0, 78, 64
2, 1240320, Note_on_c, 0, 76, 104
2, 1241760, Note_off_c, 0, 76, 64
2, 1241760, Note_on_c, 0, 76, 117
2, 1242236, Note_off_c, 0, 76, 64
2, 1242240, Note_on_c, 0, 74, 107
2, 1243680, Note_off_c, 0, 74, 64
2, 1243680, Note_on_c, 0, 79, 100
2, 1244160, Note_off_c, 0, 79, 64
2, 1244160, Note_on_c, 0, 73, 90
2, 1244396, Note_off_c, 0, 73, 64
2, 1244400, Note_on_c, 0, 74, 90
2, 1244636, Note_off_c, 0, 74, 64
2, 1244640, Note_on_c, 0, 76, 102
2, 1246080, Note_off_c, 0, 76, 64
2, 1246080, Note_on_c, 0, 74, 95
2, 1247040, Note_off_c, 0, 74, 64
2, 1248000, Note_on_c, 0, 79, 113
2, 1249916, Note_off_c, 0, 79, 64
2, 1249920, Note_on_c, 0, 78, 117
2, 1251356, Note_off_c, 0, 78, 64
2, 1251360, Note_on_c, 0, 79, 107
2, 1251596, Note_off_c, 0, 79, 64
2, 1251600, Note_on_c, 0, 78, 115
2, 1251836, Note_off_c, 0, 78, 64
2, 1251840, Note_on_c, 0, 76, 111
2, 1253276, Note_off_c, 0, 76, 64
2, 1253280, Note_on_c, 0, 74, 100
2, 1253516, Note_off_c, 0, 74, 64
2, 1253520, Note_on_c, 0, 73, 110
2, 1253756, Note_off_c, 0, 73, 64
2, 1253760, Note_on_c, 0, 74, 92
2, 1254716, Note_off_c, 0, 74, 64
2, 1255680, Note_on_c, 0, 76, 111
2, 1257116, Note_off_c, 0, 76, 64
2, 1257120, Note_on_c, 0, 74, 97
2, 1257356, Note_off_c, 0, 74, 64
2, 1257360, Note_on_c, 0, 76, 104
2, 1257596, Note_off_c, 0, 76, 64
2, 1257600, Note_on_c, 0, 78, 108
2, 1259036, Note_off_c, 0, 78, 64
2, 1259040, Note_on_c, 0, 81, 104
2, 1259276, Note_off_c, 0, 81, 64
2, 1259280, Note_on_c, 0, 79, 102
2, 1259516, Note_off_c, 0, 79, 64
2, 1259520, Note_on_c, 0, 81, 107
2, 1260716, Note_off_c, 0, 81, 64
2, 1260720, Note_on_c, 0, 79, 96
2, 1260956, Note_off_c, 0, 79, 64
2, 1260960, Note_on_c, 0, 81, 109
2, 1261196, Note_off_c, 0, 81, 64
2, 1261200, Note_on_c, 0, 78, 101
2, 1261436, Note_off_c, 0, 78, 64
2, 1261440, Note_on_c, 0, 79, 102
2, 1262876, Note_off_c, 0, 79, 64
2, 1263360, Note_on_c, 0, 76, 117
2, 1265276, Note_off_c, 0, 76, 64
2, 1265280, Note_on_c, 0, 74, 104
2, 1266716, Note_off_c, 0, 74, 64
2, 1266720, Note_on_c, 0, 76, 113
2, 1266956, Note_off_c, 0, 76, 64
2, 1266960, Note_on_c, 0, 78, 101
2, 1267196, Note_off_c, 0, 78, 64
2, 1267200, Note_on_c, 0, 79, 107
2, 1268396, Note_off_c, 0, 79, 64
2, 1268400, Note_on_c, 0, 78, 110
2, 1268636, Note_off_c, 0, 78, 64
2, 1268640, Note_on_c, 0, 79, 93
2, 1268876, Note_off_c, 0, 79, 64
2, 1268880, Note_on_c, 0, 76, 104
2, 1269116, Note_off_c, 0, 76, 64
2, 1269120, Note_on_c, 0, 78, 102
2, 1270556, Note_off_c, 0, 78, 64
2, 1270560, Note_on_c, 0, 78, 117
2, 1271036, Note_off_c, 0, 78, 64
2, 1271040, Note_on_c, 0, 76, 104
2, 1272480, Note_off_c, 0, 76, 64
2, 1272480, Note_on_c, 0, 76, 117
2, 1272956, Note_off_c, 0, 76, 64
2, 1272960, Note_on_c, 0, 74, 107
2, 1274400, Note_off_c, 0, 74, 64
2, 1274400, Note_on_c, 0, 79, 100
2, 1274880, Note_off_c, 0, 79, 64
2, 1274880, Note_on_c, 0, 73, 90
2, 1275116, Note_off_c, 0, 73, 64
2, 1275120, Note_on_c, 0, 74, 90
2, 1275356, Note_off_c, 0, 74, 64
2, 1275360, Note_on_c, 0, 76, 102
2, 1276800, Note_off_c, 0, 76, 64
2, 1276800, Note_on_c, 0, 74, 95
2, 1277760, Note_off_c, 0, 74, 64
2, 1278720, Note_on_c, 0, 81, 101
2, 1280636, Note_off_c, 0, 81, 64
2, 1280640, Note_on_c, 0, 79, 85
2, 1282076, Note_off_c, 0, 79, 64
2, 1282080, Note_on_c, 0, 81, 90
2, 1282316, Note_off_c, 0, 81, 64
2, 1282320, Note_on_c, 0, 83, 92
2, 1282556, Note_off_c, 0, 83, 64
2, 1282560, Note_on_c, 0, 84, 88
2, 1283756, Note_off_c, 0, 84, 64
2, 1283760, Note_on_c, 0, 83, 84
2, 1283996, Note_off_c, 0, 83, 64
2, 1284000, Note_on_c, 0, 84, 86
2, 1284476, Note_off_c, 0, 84, 64
2, 1284480, Note_on_c, 0, 83, 100
2, 1285440, Note_off_c, 0, 83, 64
2, 1286400, Note_on_c, 0, 76, 104
2, 1288316, Note_off_c, 0, 76, 64
2, 1288320, Note_on_c, 0, 75, 96
2, 1288796, Note_off_c, 0, 75, 64
2, 1288800, Note_on_c, 0, 76, 97
2, 1289276, Note_off_c, 0, 76, 64
2, 1289280, Note_on_c, 0, 78, 92
2, 1290716, Note_off_c, 0, 78, 64
2, 1290720, Note_on_c, 0, 76, 77
2, 1290956, Note_off_c, 0, 76, 64
2, 1290960, Note_on_c, 0, 78, 89
2, 1291196, Note_off_c, 0, 78, 64
2, 1291200, Note_on_c, 0, 79, 106
2, 1292396, Note_off_c, 0, 79, 64
2, 1292400, Note_on_c, 0, 78, 99
2, 1292636, Note_off_c, 0, 78, 64
2, 1292640, Note_on_c, 0, 76, 93
2, 1292876, Note_off_c, 0, 76, 64
2, 1292880, Note_on_c, 0, 74, 91
2, 1293116, Note_off_c, 0, 74, 64
2, 1293120, Note_on_c, 0, 72, 100
2, 1293600, Note_off_c, 0, 72, 64
2, 1294080, Note_on_c, 0, 81, 111
2, 1295996, Note_off_c, 0, 81, 64
2, 1296000, Note_on_c, 0, 79, 92
2, 1297436, Note_off_c, 0, 79, 64
2, 1297440, Note_on_c, 0, 81, 101
2, 1297676, Note_off_c, 0, 81, 64
2, 1297680, Note_on_c, 0, 83, 92
2, 1297916, Note_off_c, 0, 83, 64
2, 1297920, Note_on_c, 0, 84, 93
2, 1299116, Note_off_c, 0, 84, 64
2, 1299120, Note_on_c, 0, 83, 97
2, 1299356, Note_off_c, 0, 83, 64
2, 1299360, Note_on_c, 0, 84, 97
2, 1299596, Note_off_c, 0, 84, 64
2, 1299600, Note_on_c, 0, 81, 92
2, 1299836, Note_off_c, 0, 81, 64
2, 1299840, Note_on_c, 0, 83, 100
2, 1301276, Note_off_c, 0, 83, 64
2, 1301280, Note_on_c, 0, 83, 100
2, 1301756, Note_off_c, 0, 83, 64
2, 1301760, Note_on_c, 0, 81, 104
2, 1303200, Note_off_c, 0, 81, 64
2, 1303200, Note_on_c, 0, 81, 96
2, 1303676, Note_off_c, 0, 81, 64
2, 1303680, Note_on_c, 0, 79, 98
2, 1305116, Note_off_c, 0, 79, 64
2, 1305120, Note_on_c, 0, 84, 102
2, 1305596, Note_off_c, 0, 84, 64
2, 1305600, Note_on_c, 0, 78, 94
2, 1305836, Note_off_c, 0, 78, 64
2, 1305840, Note_on_c, 0, 79, 92
2, 1306076, Note_off_c, 0, 79, 64
2, 1306080, Note_on_c, 0, 81, 102
2, 1307520, Note_off_c, 0, 81, 64
2, 1307520, Note_on_c, 0, 79, 100
2, 1308476, Note_off_c, 0, 79, 64
2, 1309440, Note_on_c, 0, 81, 101
2, 1311356, Note_off_c, 0, 81, 64
2, 1311360, Note_on_c, 0, 79, 85
2, 1312796, Note_off_c, 0, 79, 64
2, 1312800, Note_on_c, 0, 81, 90
2, 1313036, Note_off_c, 0, 81, 64
2, 1313040, Note_on_c, 0, 83, 92
2, 1313276, Note_off_c, 0, 83, 64
2, 1313280, Note_on_c, 0, 84, 88
2, 1314476, Note_off_c, 0, 84, 64
2, 1314480, Note_on_c, 0, 83, 84
2, 1314716, Note_off_c, 0, 83, 64
2, 1314720, Note_on_c, 0, 84, 86
2, 1315196, Note_off_c, 0, 84, 64
2, 1315200, Note_on_c, 0, 83, 100
2, 1316160, Note_off_c, 0, 83, 64
2, 1317120, Note_on_c, 0, 76, 104
2, 1319036, Note_off_c, 0, 76, 64
2, 1319040, Note_on_c, 0, 75, 96
2, 1319516, Note_off_c, 0, 75, 64
2, 1319520, Note_on_c, 0, 76, 97
2, 1319996, Note_off_c, 0, 76, 64
2, 1320000, Note_on_c, 0, 78, 92
2, 1321436, Note_off_c, 0, 78, 64
2, 1321440, Note_on_c, 0, 76, 77
2, 1321676, Note_off_c, 0, 76, 64
2, 1321680, Note_on_c, 0, 78, 89
2, 1321916, Note_off_c, 0, 78, 64
2, 1321920, Note_on_c, 0, 79, 106
2, 1323116, Note_off_c, 0, 79, 64
2, 1323120, Note_on_c, 0, 78, 99
2, 1323356, Note_off_c, 0, 78, 64
2, 1323360, Note_on_c, 0, 76, 93
2, 1323596, Note_off_c, 0, 76, 64
2, 1323600, Note_on_c, 0, 74, 91
2, 1323836, Note_off_c, 0, 74, 64
2, 1323840, Note_on_c, 0, 72, 100
2, 1324320, Note_off_c, 0, 72, 64
2, 1324800, Note_on_c, 0, 81, 111
2, 1326716, Note_off_c, 0, 81, 64
2, 1326720, Note_on_c, 0, 79, 92
2, 1328156, Note_off_c, 0, 79, 64
2, 1328160, Note_on_c, 0, 81, 101
2, 1328396, Note_off_c, 0, 81, 64
2, 1328400, Note_on_c, 0, 83, 92
2, 1328636, Note_off_c, 0, 83, 64
2, 1328640, Note_on_c, 0, 84, 93
2, 1329836, Note_off_c, 0, 84, 64
2, 1329840, Note_on_c, 0, 83, 97
2, 1330076, Note_off_c, 0, 83, 64
2, 1330080, Note_on_c, 0, 84, 97
2, 1330316, Note_off_c, 0, 84, 64
2, 1330320, Note_on_c, 0, 81, 92
2, 1330556, Note_off_c, 0, 81, 64
2, 1330560, Note_on_c, 0, 83, 100
2, 1331996, Note_off_c, 0, 83, 64
2, 1332000, Note_on_c, 0, 83, 100
2, 1332476, Note_off_c, 0, 83, 64
2, 1332480, Note_on_c, 0, 81, 104
2, 1333920, Note_off_c, 0, 81, 64
2, 1333920, Note_on_c, 0, 81, 96
2, 1334396, Note_off_c, 0, 81, 64
2, 1334400, Note_on_c, 0, 79, 98
2, 1335836, Note_off_c, 0, 79, 64
2, 1335840, Note_on_c, 0, 84, 102
2, 1336316, Note_off_c, 0, 84, 64
2, 1336320, Note_on_c, 0, 78, 94
2, 1336556, Note_off_c, 0, 78, 64
2, 1336560, Note_on_c, 0, 79, 92
2, 1336796, Note_off_c, 0, 79, 64
2, 1336800, Note_on_c, 0, 81, 102
2, 1338240, Note_off_c, 0, 81, 64
2, 1338240, Note_on_c, 0, 79, 100
2, 1339196, Note_off_c, 0, 79, 64
2, 1341120, Note_on_c, 0, 74, 100
2, 1341236, Note_off_c, 0, 74, 64
2, 1341360, Note_on_c, 0, 74, 101
2, 1342076, Note_off_c, 0, 74, 64
2, 1342080, Note_on_c, 0, 74, 100
2, 1342796, Note_off_c, 0, 74, 64
2, 1342800, Note_on_c, 0, 74, 98
2, 1343036, Note_off_c, 0, 74, 64
2, 1343040, Note_on_c, 0, 73, 99
2, 1343276, Note_off_c, 0, 73, 64
2, 1343280, Note_on_c, 0, 74, 96
2, 1343996, Note_off_c, 0, 74, 64
2, 1344000, Note_on_c, 0, 79, 106
2, 1344116, Note_off_c, 0, 79, 64
2, 1344120, Note_on_c, 0, 78, 90
2, 1344236, Note_off_c, 0, 78, 64
2, 1344240, Note_on_c, 0, 79, 98
2, 1344356, Note_off_c, 0, 79, 64
2, 1344360, Note_on_c, 0, 74, 97
2, 1344476, Note_off_c, 0, 74, 64
2, 1344480, Note_on_c, 0, 71, 97
2, 1344596, Note_off_c, 0, 71, 64
2, 1344600, Note_on_c, 0, 74, 83
2, 1344716, Note_off_c, 0, 74, 64
2, 1344720, Note_on_c, 0, 76, 97
2, 1344836, Note_off_c, 0, 76, 64
2, 1344840, Note_on_c, 0, 74, 97
2, 1344956, Note_off_c, 0, 74, 64
2, 1344960, Note_on_c, 0, 76, 101
2, 1345076, Note_off_c, 0, 76, 64
2, 1345080, Note_on_c, 0, 72, 96
2, 1345196, Note_off_c, 0, 72, 64
2, 1345200, Note_on_c, 0, 69, 75
2, 1345316, Note_off_c, 0, 69, 64
2, 1345320, Note_on_c, 0, 72, 96
2, 1345436, Note_off_c, 0, 72, 64
2, 1345440, Note_on_c, 0, 74, 92
2, 1345556, Note_off_c, 0, 74, 64
2, 1345560, Note_on_c, 0, 72, 88
2, 1345676, Note_off_c, 0, 72, 64
2, 1345680, Note_on_c, 0, 74, 93
2, 1345796, Note_off_c, 0, 74, 64
2, 1345800, Note_on_c, 0, 76, 95
2, 1345916, Note_off_c, 0, 76, 64
2, 1345920, Note_on_c, 0, 74, 91
2, 1346036, Note_off_c, 0, 74, 64
2, 1346040, Note_on_c, 0, 72, 92
2, 1346156, Note_off_c, 0, 72, 64
2, 1346160, Note_on_c, 0, 71, 83
2, 1346276, Note_off_c, 0, 71, 64
2, 1346280, Note_on_c, 0, 69, 82
2, 1346396, Note_off_c, 0, 69, 64
2, 1346400, Note_on_c, 0, 71, 97
2, 1346516, Note_off_c, 0, 71, 64
2, 1346520, Note_on_c, 0, 72, 90
2, 1346636, Note_off_c, 0, 72, 64
2, 1346640, Note_on_c, 0, 71, 95
2, 1346756, Note_off_c, 0, 71, 64
2, 1346760, Note_on_c, 0, 69, 82
2, 1346876, Note_off_c, 0, 69, 64
2, 1346880, Note_on_c, 0, 67, 101
2, 1347116, Note_off_c, 0, 67, 64
2, 1347120, Note_on_c, 0, 79, 109
2, 1347836, Note_off_c, 0, 79, 64
2, 1347840, Note_on_c, 0, 78, 96
2, 1348556, Note_off_c, 0, 78, 64
2, 1348560, Note_on_c, 0, 76, 90
2, 1348796, Note_off_c, 0, 76, 64
2, 1348800, Note_on_c, 0, 74, 98
2, 1349036, Note_off_c, 0, 74, 64
2, 1349040, Note_on_c, 0, 73, 92
2, 1349156, Note_off_c, 0, 73, 64
2, 1349160, Note_on_c, 0, 74, 86
2, 1349276, Note_off_c, 0, 74, 64
2, 1349280, Note_on_c, 0, 76, 95
2, 1349996, Note_off_c, 0, 76, 64
2, 1350000, Note_on_c, 0, 74, 95
2, 1350236, Note_off_c, 0, 74, 64
2, 1350240, Note_on_c, 0, 72, 98
2, 1350716, Note_off_c, 0, 72, 64
2, 1350720, Note_on_c, 0, 71, 109
2, 1350956, Note_off_c, 0, 71, 64
2, 1350960, Note_on_c, 0, 79, 98
2, 1351316, Note_off_c, 0, 79, 64
2, 1351320, Note_on_c, 0, 76, 98
2, 1351436, Note_off_c, 0, 76, 64
2, 1351440, Note_on_c, 0, 78, 94
2, 1351556, Note_off_c, 0, 78, 64
2, 1351560, Note_on_c, 0, 74, 74
2, 1351676, Note_off_c, 0, 74, 64
2, 1351680, Note_on_c, 0, 76, 98
2, 1351796, Note_off_c, 0, 76, 64
2, 1351800, Note_on_c, 0, 73, 89
2, 1351916, Note_off_c, 0, 73, 64
2, 1351920, Note_on_c, 0, 74, 97
2, 1352636, Note_off_c, 0, 74, 64
2, 1352640, Note_on_c, 0, 74, 100
2, 1352756, Note_off_c, 0, 74, 64
2, 1352880, Note_on_c, 0, 74, 101
2, 1353596, Note_off_c, 0, 74, 64
2, 1353600, Note_on_c, 0, 74, 100
2, 1354316, Note_off_c, 0, 74, 64
2, 1354320, Note_on_c, 0, 74, 98
2, 1354556, Note_off_c, 0, 74, 64
2, 1354560, Note_on_c, 0, 73, 99
2, 1354796, Note_off_c, 0, 73, 64
2, 1354800, Note_on_c, 0, 74, 96
2, 1355516, Note_off_c, 0, 74, 64
2, 1355520, Note_on_c, 0, 79, 106
2, 1355636, Note_off_c, 0, 79, 64
2, 1355640, Note_on_c, 0, 78, 90
2, 1355756, Note_off_c, 0, 78, 64
2, 1355760, Note_on_c, 0, 79, 98
2, 1355876, Note_off_c, 0, 79, 64
2, 1355880, Note_on_c, 0, 74, 97
2, 1355996, Note_off_c, 0, 74, 64
2, 1356000, Note_on_c, 0, 71, 97
2, 1356116, Note_off_c, 0, 71, 64
2, 1356120, Note_on_c, 0, 74, 83
2, 1356236, Note_off_c, 0, 74, 64
2, 1356240, Note_on_c, 0, 76, 97
2, 1356356, Note_off_c, 0, 76, 64
2, 1356360, Note_on_c, 0, 74, 97
2, 1356476, Note_off_c, 0, 74, 64
2, 1356480, Note_on_c, 0, 76, 101
2, 1356596, Note_off_c, 0, 76, 64
2, 1356600, Note_on_c, 0, 72, 96
2, 1356716, Note_off_c, 0, 72, 64
2, 1356720, Note_on_c, 0, 69, 75
2, 1356836, Note_off_c, 0, 69, 64
2, 1356840, Note_on_c, 0, 72, 96
2, 1356956, Note_off_c, 0, 72, 64
2, 1356960, Note_on_c, 0, 74, 92
2, 1357076, Note_off_c, 0, 74, 64
2, 1357080, Note_on_c, 0, 72, 88
2, 1357196, Note_off_c, 0, 72, 64
2, 1357200, Note_on_c, 0, 74, 93
2, 1357316, Note_off_c, 0, 74, 64
2, 1357320, Note_on_c, 0, 76, 95
2, 1357436, Note_off_c, 0, 76, 64
2, 1357440, Note_on_c, 0, 74, 91
2, 1357556, Note_off_c, 0, 74, 64
2, 1357560, Note_on_c, 0, 72, 92
2, 1357676, Note_off_c, 0, 72, 64
2, 1357680, Note_on_c, 0, 71, 83
2, 1357796, Note_off_c, 0, 71, 64
2, 1357800, Note_on_c, 0, 69, 82
2, 1357916, Note_off_c, 0, 69, 64
2, 1357920, Note_on_c, 0, 71, 97
2, 1358036, Note_off_c, 0, 71, 64
2, 1358040, Note_on_c, 0, 72, 90
2, 1358156, Note_off_c, 0, 72, 64
2, 1358160, Note_on_c, 0, 71, 95
2, 1358276, Note_off_c, 0, 71, 64
2, 1358280, Note_on_c, 0, 69, 82
2, 1358396, Note_off_c, 0, 69, 64
2, 1358400, Note_on_c, 0, 67, 101
2, 1358636, Note_off_c, 0, 67, 64
2, 1358640, Note_on_c, 0, 79, 109
2, 1359356, Note_off_c, 0, 79, 64
2, 1359360, Note_on_c, 0, 78, 96
2, 1360076, Note_off_c, 0, 78, 64
2, 1360080, Note_on_c, 0, 76, 90
2, 1360316, Note_off_c, 0, 76, 64
2, 1360320, Note_on_c, 0, 74, 98
2, 1360556, Note_off_c, 0, 74, 64
2, 1360560, Note_on_c, 0, 73, 92
2, 1360676, Note_off_c, 0, 73, 64
2, 1360680, Note_on_c, 0, 74, 86
2, 1360796, Note_off_c, 0, 74, 64
2, 1360800, Note_on_c, 0, 76, 95
2, 1361516, Note_off_c, 0, 76, 64
2, 1361520, Note_on_c, 0, 74, 95
2, 1361756, Note_off_c, 0, 74, 64
2, 1361760, Note_on_c, 0, 72, 98
2, 1362236, Note_off_c, 0, 72, 64
2, 1362240, Note_on_c, 0, 71, 109
2, 1362476, Note_off_c, 0, 71, 64
2, 1362480, Note_on_c, 0, 79, 98
2, 1362836, Note_off_c, 0, 79, 64
2, 1362840, Note_on_c, 0, 76, 98
2, 1362956, Note_off_c, 0, 76, 64
2, 1362960, Note_on_c, 0, 78, 94
2, 1363076, Note_off_c, 0, 78, 64
2, 1363080, Note_on_c, 0, 74, 74
2, 1363196, Note_off_c, 0, 74, 64
2, 1363200, Note_on_c, 0, 76, 98
2, 1363316, Note_off_c, 0, 76, 64
2, 1363320, Note_on_c, 0, 73, 89
2, 1363436, Note_off_c, 0, 73, 64
2, 1363440, Note_on_c, 0, 74, 97
2, 1364156, Note_off_c, 0, 74, 64
2, 1364160, Note_on_c, 0, 78, 101
2, 1364276, Note_off_c, 0, 78, 64
2, 1364280, Note_on_c, 0, 76, 98
2, 1364396, Note_off_c, 0, 76, 64
2, 1364400, Note_on_c, 0, 78, 81
2, 1364516, Note_off_c, 0, 78, 64
2, 1364520, Note_on_c, 0, 74, 92
2, 1364636, Note_off_c, 0, 74, 64
2, 1364640, Note_on_c, 0, 69, 67
2, 1364756, Note_off_c, 0, 69, 64
2, 1364760, Note_on_c, 0, 74, 84
2, 1364876, Note_off_c, 0, 74, 64
2, 1364880, Note_on_c, 0, 79, 86
2, 1364996, Note_off_c, 0, 79, 64
2, 1365000, Note_on_c, 0, 78, 84
2, 1365116, Note_off_c, 0, 78, 64
2, 1365120, Note_on_c, 0, 79, 91
2, 1365236, Note_off_c, 0, 79, 64
2, 1365240, Note_on_c, 0, 74, 90
2, 1365356, Note_off_c, 0, 74, 64
2, 1365360, Note_on_c, 0, 71, 86
2, 1365476, Note_off_c, 0, 71, 64
2, 1365480, Note_on_c, 0, 74, 84
2, 1365596, Note_off_c, 0, 74, 64
2, 1365600, Note_on_c, 0, 76, 91
2, 1365716, Note_off_c, 0, 76, 64
2, 1365720, Note_on_c, 0, 75, 84
2, 1365836, Note_off_c, 0, 75, 64
2, 1365840, Note_on_c, 0, 76, 93
2, 1365956, Note_off_c, 0, 76, 64
2, 1365960, Note_on_c, 0, 79, 97
2, 1366076, Note_off_c, 0, 79, 64
2, 1366080, Note_on_c, 0, 78, 90
2, 1366196, Note_off_c, 0, 78, 64
2, 1366200, Note_on_c, 0, 76, 90
2, 1366316, Note_off_c, 0, 76, 64
2, 1366320, Note_on_c, 0, 75, 85
2, 1366436, Note_off_c, 0, 75, 64
2, 1366440, Note_on_c, 0, 76, 91
2, 1366556, Note_off_c, 0, 76, 64
2, 1366560, Note_on_c, 0, 78, 86
2, 1366676, Note_off_c, 0, 78, 64
2, 1366680, Note_on_c, 0, 75, 88
2, 1366796, Note_off_c, 0, 75, 64
2, 1366800, Note_on_c, 0, 71, 85
2, 1366916, Note_off_c, 0, 71, 64
2, 1366920, Note_on_c, 0, 75, 85
2, 1367036, Note_off_c, 0, 75, 64
2, 1367040, Note_on_c, 0, 76, 93
2, 1367156, Note_off_c, 0, 76, 64
2, 1367280, Note_on_c, 0, 76, 101
2, 1367996, Note_off_c, 0, 76, 64
2, 1368000, Note_on_c, 0, 76, 89
2, 1368716, Note_off_c, 0, 76, 64
2, 1368720, Note_on_c, 0, 76, 91
2, 1368956, Note_off_c, 0, 76, 64
2, 1368960, Note_on_c, 0, 75, 82
2, 1369196, Note_off_c, 0, 75, 64
2, 1369200, Note_on_c, 0, 76, 82
2, 1369676, Note_off_c, 0, 76, 64
2, 1370160, Note_on_c, 0, 76, 95
2, 1370276, Note_off_c, 0, 76, 64
2, 1370280, Note_on_c, 0, 72, 90
2, 1370396, Note_off_c, 0, 72, 64
2, 1370400, Note_on_c, 0, 69, 76
2, 1370516, Note_off_c, 0, 69, 64
2, 1370520, Note_on_c, 0, 72, 92
2, 1370636, Note_off_c, 0, 72, 64
2, 1370640, Note_on_c, 0, 74, 98
2, 1371596, Note_off_c, 0, 74, 64
2, 1371600, Note_on_c, 0, 72, 93
2, 1371720, Note_off_c, 0, 72, 64
2, 1371720, Note_on_c, 0, 71, 93
2, 1371836, Note_off_c, 0, 71, 64
2, 1371840, Note_on_c, 0, 72, 97
2, 1372076, Note_off_c, 0, 72, 64
2, 1372080, Note_on_c, 0, 71, 92
2, 1372316, Note_off_c, 0, 71, 64
2, 1372320, Note_on_c, 0, 74, 93
2, 1372436, Note_off_c, 0, 74, 64
2, 1372440, Note_on_c, 0, 72, 86
2, 1372556, Note_off_c, 0, 72, 64
2, 1372560, Note_on_c, 0, 71, 88
2, 1372676, Note_off_c, 0, 71, 64
2, 1372680, Note_on_c, 0, 69, 84
2, 1372796, Note_off_c, 0, 69, 64
2, 1372800, Note_on_c, 0, 74, 88
2, 1372916, Note_off_c, 0, 74, 64
2, 1372920, Note_on_c, 0, 72, 93
2, 1373036, Note_off_c, 0, 72, 64
2, 1373040, Note_on_c, 0, 74, 92
2, 1373156, Note_off_c, 0, 74, 64
2, 1373160, Note_on_c, 0, 71, 88
2, 1373276, Note_off_c, 0, 71, 64
2, 1373280, Note_on_c, 0, 67, 84
2, 1373396, Note_off_c, 0, 67, 64
2, 1373400, Note_on_c, 0, 71, 93
2, 1373516, Note_off_c, 0, 71, 64
2, 1373520, Note_on_c, 0, 76, 98
2, 1373636, Note_off_c, 0, 76, 64
2, 1373640, Note_on_c, 0, 74, 92
2, 1373756, Note_off_c, 0, 74, 64
2, 1373760, Note_on_c, 0, 76, 97
2, 1373876, Note_off_c, 0, 76, 64
2, 1373880, Note_on_c, 0, 72, 86
2, 1373996, Note_off_c, 0, 72, 64
2, 1374000, Note_on_c, 0, 69, 91
2, 1374116, Note_off_c, 0, 69, 64
2, 1374120, Note_on_c, 0, 72, 72
2, 1374236, Note_off_c, 0, 72, 64
2, 1374240, Note_on_c, 0, 78, 97
2, 1374356, Note_off_c, 0, 78, 64
2, 1374360, Note_on_c, 0, 76, 96
2, 1374476, Note_off_c, 0, 76, 64
2, 1374480, Note_on_c, 0, 78, 76
2, 1374596, Note_off_c, 0, 78, 64
2, 1374600, Note_on_c, 0, 81, 89
2, 1374716, Note_off_c, 0, 81, 64
2, 1374720, Note_on_c, 0, 74, 88
2, 1374836, Note_off_c, 0, 74, 64
2, 1374840, Note_on_c, 0, 78, 89
2, 1374956, Note_off_c, 0, 78, 64
2, 1374960, Note_on_c, 0, 79, 91
2, 1375076, Note_off_c, 0, 79, 64
2, 1375080, Note_on_c, 0, 78, 85
2, 1375196, Note_off_c, 0, 78, 64
2, 1375200, Note_on_c, 0, 79, 96
2, 1375316, Note_off_c, 0, 79, 64
2, 1375320, Note_on_c, 0, 74, 92
2, 1375436, Note_off_c, 0, 74, 64
2, 1375440, Note_on_c, 0, 71, 92
2, 1375556, Note_off_c, 0, 71, 64
2, 1375560, Note_on_c, 0, 67, 83
2, 1375676, Note_off_c, 0, 67, 64
2, 1375800, Note_on_c, 0, 71, 106
2, 1375916, Note_off_c, 0, 71, 64
2, 1376040, Note_on_c, 0, 67, 97
2, 1376156, Note_off_c, 0, 67, 64
2, 1376280, Note_on_c, 0, 62, 100
2, 1376396, Note_off_c, 0, 62, 64
2, 1376520, Note_on_c, 0, 59, 101
2, 1376636, Note_off_c, 0, 59, 64
2, 1376760, Note_on_c, 0, 55, 95
2, 1376876, Note_off_c, 0, 55, 64
2, 1376880, Note_on_c, 0, 54, 93
2, 1376996, Note_off_c, 0, 54, 64
2, 1377000, Note_on_c, 0, 52, 85
2, 1377116, Note_off_c, 0, 52, 64
2, 1377120, Note_on_c, 0, 54, 102
2, 1377360, Note_off_c, 0, 54, 64
2, 1377360, Note_on_c, 0, 57, 100
2, 1377600, Note_off_c, 0, 57, 64
2, 1377600, Note_on_c, 0, 62, 97
2, 1377836, Note_off_c, 0, 62, 64
2, 1377840, Note_on_c, 0, 66, 94
2, 1378076, Note_off_c, 0, 66, 64
2, 1378080, Note_on_c, 0, 69, 95
2, 1378316, Note_off_c, 0, 69, 64
2, 1378320, Note_on_c, 0, 74, 115
2, 1378556, Note_off_c, 0, 74, 64
2, 1378680, Note_on_c, 0, 67, 92
2, 1378796, Note_off_c, 0, 67, 64
2, 1378920, Note_on_c, 0, 64, 101
2, 1379036, Note_off_c, 0, 64, 64
2, 1379160, Note_on_c, 0, 61, 104
2, 1379276, Note_off_c, 0, 61, 64
2, 1379400, Note_on_c, 0, 57, 101
2, 1379516, Note_off_c, 0, 57, 64
2, 1379640, Note_on_c, 0, 55, 92
2, 1379756, Note_off_c, 0, 55, 64
2, 1379760, Note_on_c, 0, 54, 86
2, 1379876, Note_off_c, 0, 54, 64
2, 1379880, Note_on_c, 0, 52, 88
2, 1379996, Note_off_c, 0, 52, 64
2, 1380000, Note_on_c, 0, 50, 78
2, 1380240, Note_off_c, 0, 50, 64
2, 1380240, Note_on_c, 0, 54, 96
2, 1380476, Note_off_c, 0, 54, 64
2, 1380480, Note_on_c, 0, 57, 97
2, 1380716, Note_off_c, 0, 57, 64
2, 1380720, Note_on_c, 0, 62, 102
2, 1380956, Note_off_c, 0, 62, 64
2, 1380960, Note_on_c, 0, 66, 94
2, 1381196, Note_off_c, 0, 66, 64
2, 1381200, Note_on_c, 0, 69, 90
2, 1381436, Note_off_c, 0, 69, 64
2, 1381560, Note_on_c, 0, 67, 83
2, 1381676, Note_off_c, 0, 67, 64
2, 1381800, Note_on_c, 0, 62, 95
2, 1381916, Note_off_c, 0, 62, 64
2, 1382040, Note_on_c, 0, 59, 90
2, 1382156, Note_off_c, 0, 59, 64
2, 1382280, Note_on_c, 0, 55, 92
2, 1382396, Note_off_c, 0, 55, 64
2, 1382520, Note_on_c, 0, 53, 92
2, 1382636, Note_off_c, 0, 53, 64
2, 1382640, Note_on_c, 0, 52, 83
2, 1382756, Note_off_c, 0, 52, 64
2, 1382760, Note_on_c, 0, 50, 82
2, 1382876, Note_off_c, 0, 50, 64
2, 1382880, Note_on_c, 0, 48, 92
2, 1383116, Note_off_c, 0, 48, 64
2, 1383120, Note_on_c, 0, 52, 100
2, 1383356, Note_off_c, 0, 52, 64
2, 1383360, Note_on_c, 0, 55, 93
2, 1383596, Note_off_c, 0, 55, 64
2, 1383600, Note_on_c, 0, 60, 93
2, 1383836, Note_off_c, 0, 60, 64
2, 1383840, Note_on_c, 0, 64, 98
2, 1384076, Note_off_c, 0, 64, 64
2, 1384080, Note_on_c, 0, 67, 100
2, 1384316, Note_off_c, 0, 67, 64
2, 1384440, Note_on_c, 0, 66, 99
2, 1384556, Note_off_c, 0, 66, 64
2, 1384680, Note_on_c, 0, 62, 98
2, 1384796, Note_off_c, 0, 62, 64
2, 1384920, Note_on_c, 0, 57, 98
2, 1385036, Note_off_c, 0, 57, 64
2, 1385160, Note_on_c, 0, 54, 106
2, 1385276, Note_off_c, 0, 54, 64
2, 1385400, Note_on_c, 0, 50, 102
2, 1385516, Note_off_c, 0, 50, 64
2, 1385520, Note_on_c, 0, 48, 104
2, 1385636, Note_off_c, 0, 48, 64
2, 1385640, Note_on_c, 0, 50, 92
2, 1385756, Note_off_c, 0, 50, 64
2, 1385760, Note_on_c, 0, 43, 72
2, 1385996, Note_off_c, 0, 43, 64
2, 1386000, Note_on_c, 0, 47, 95
2, 1386236, Note_off_c, 0, 47, 64
2, 1386240, Note_on_c, 0, 50, 86
2, 1386476, Note_off_c, 0, 50, 64
2, 1386480, Note_on_c, 0, 55, 98
2, 1386716, Note_off_c, 0, 55, 64
2, 1386720, Note_on_c, 0, 54, 108
2, 1386956, Note_off_c, 0, 54, 64
2, 1386960, Note_on_c, 0, 60, 96
2, 1387196, Note_off_c, 0, 60, 64
2, 1387200, Note_on_c, 0, 59, 96
2, 1387280, Note_off_c, 0, 59, 64
2, 1387280, Note_on_c, 0, 57, 96
2, 1387360, Note_off_c, 0, 57, 64
2, 1387360, Note_on_c, 0, 59, 96
2, 1387436, Note_on_c, 0, 60, 96
2, 1387440, Note_off_c, 0, 59, 64
2, 1387516, Note_off_c, 0, 60, 64
2, 1387516, Note_on_c, 0, 59, 96
2, 1387596, Note_off_c, 0, 59, 64
2, 1387596, Note_on_c, 0, 60, 96
2, 1387676, Note_off_c, 0, 60, 64
2, 1387676, Note_on_c, 0, 62, 96
2, 1387756, Note_off_c, 0, 62, 64
2, 1387756, Note_on_c, 0, 60, 96
2, 1387832, Note_on_c, 0, 62, 96
2, 1387836, Note_off_c, 0, 60, 64
2, 1387912, Note_off_c, 0, 62, 64
2, 1387912, Note_on_c, 0, 64, 96
2, 1387992, Note_off_c, 0, 64, 64
2, 1387992, Note_on_c, 0, 62, 96
2, 1388072, Note_off_c, 0, 62, 64
2, 1388072, Note_on_c, 0, 64, 96
2, 1388152, Note_off_c, 0, 64, 64
2, 1388152, Note_on_c, 0, 66, 96
2, 1388228, Note_on_c, 0, 64, 96
2, 1388232, Note_off_c, 0, 66, 64
2, 1388308, Note_off_c, 0, 64, 64
2, 1388308, Note_on_c, 0, 66, 96
2, 1388388, Note_off_c, 0, 66, 64
2, 1388388, Note_on_c, 0, 67, 96
2, 1388468, Note_off_c, 0, 67, 64
2, 1388468, Note_on_c, 0, 66, 96
2, 1388548, Note_off_c, 0, 66, 64
2, 1388548, Note_on_c, 0, 67, 96
2, 1388624, Note_on_c, 0, 69, 96
2, 1388628, Note_off_c, 0, 67, 64
2, 1388704, Note_off_c, 0, 69, 64
2, 1388704, Note_on_c, 0, 67, 96
2, 1388784, Note_off_c, 0, 67, 64
2, 1388784, Note_on_c, 0, 69, 96
2, 1388864, Note_off_c, 0, 69, 64
2, 1388864, Note_on_c, 0, 71, 96
2, 1388944, Note_off_c, 0, 71, 64
2, 1388944, Note_on_c, 0, 69, 96
2, 1389020, Note_on_c, 0, 71, 96
2, 1389024, Note_off_c, 0, 69, 64
2, 1389100, Note_off_c, 0, 71, 64
2, 1389100, Note_on_c, 0, 73, 96
2, 1389180, Note_off_c, 0, 73, 64
2, 1389180, Note_on_c, 0, 71, 96
2, 1389260, Note_off_c, 0, 71, 64
2, 1389260, Note_on_c, 0, 73, 96
2, 1389340, Note_off_c, 0, 73, 64
2, 1389340, Note_on_c, 0, 74, 96
2, 1389416, Note_on_c, 0, 73, 96
2, 1389420, Note_off_c, 0, 74, 64
2, 1389496, Note_off_c, 0, 73, 64
2, 1389496, Note_on_c, 0, 74, 96
2, 1389576, Note_off_c, 0, 74, 64
2, 1389576, Note_on_c, 0, 76, 96
2, 1389656, Note_off_c, 0, 76, 64
2, 1389656, Note_on_c, 0, 74, 96
2, 1389736, Note_off_c, 0, 74, 64
2, 1389736, Note_on_c, 0, 76, 96
2, 1389812, Note_on_c, 0, 78, 96
2, 1389816, Note_off_c, 0, 76, 64
2, 1389892, Note_off_c, 0, 78, 64
2, 1389892, Note_on_c, 0, 76, 96
2, 1389972, Note_off_c, 0, 76, 64
2, 1389972, Note_on_c, 0, 78, 96
2, 1390052, Note_off_c, 0, 78, 64
2, 1390080, Note_on_c, 0, 79, 96
2, 1390316, Note_off_c, 0, 79, 64
2, 1390556, Note_on_c, 0, 52, 96
2, 1390636, Note_off_c, 0, 52, 64
2, 1390636, Note_on_c, 0, 50, 96
2, 1390712, Note_on_c, 0, 52, 96
2, 1390716, Note_off_c, 0, 50, 64
2, 1391028, Note_off_c, 0, 52, 64
2, 1391280, Note_on_c, 0, 71, 96
2, 1391516, Note_off_c, 0, 71, 64
2, 1391520, Note_on_c, 0, 79, 96
2, 1391756, Note_off_c, 0, 79, 64
2, 1391996, Note_on_c, 0, 49, 96
2, 1392076, Note_off_c, 0, 49, 64
2, 1392076, Note_on_c, 0, 47, 96
2, 1392152, Note_on_c, 0, 49, 96
2, 1392156, Note_off_c, 0, 47, 64
2, 1392468, Note_off_c, 0, 49, 64
2, 1392708, Note_on_c, 0, 79, 96
2, 1392944, Note_off_c, 0, 79, 64
2, 1392960, Note_on_c, 0, 78, 96
2, 1393040, Note_off_c, 0, 78, 64
2, 1393040, Note_on_c, 0, 81, 96
2, 1393120, Note_off_c, 0, 81, 64
2, 1393120, Note_on_c, 0, 74, 96
2, 1393196, Note_on_c, 0, 76, 96
2, 1393200, Note_off_c, 0, 74, 64
2, 1393276, Note_off_c, 0, 76, 64
2, 1393276, Note_on_c, 0, 79, 96
2, 1393356, Note_off_c, 0, 79, 64
2, 1393356, Note_on_c, 0, 73, 96
2, 1393436, Note_off_c, 0, 73, 64
2, 1393436, Note_on_c, 0, 74, 96
2, 1393516, Note_off_c, 0, 74, 64
2, 1393516, Note_on_c, 0, 78, 96
2, 1393592, Note_on_c, 0, 71, 96
2, 1393596, Note_off_c, 0, 78, 64
2, 1393672, Note_off_c, 0, 71, 64
2, 1393672, Note_on_c, 0, 72, 96
2, 1393752, Note_off_c, 0, 72, 64
2, 1393752, Note_on_c, 0, 76, 96
2, 1393832, Note_off_c, 0, 76, 64
2, 1393832, Note_on_c, 0, 69, 96
2, 1393912, Note_off_c, 0, 69, 64
2, 1393912, Note_on_c, 0, 71, 96
2, 1393988, Note_on_c, 0, 74, 96
2, 1393992, Note_off_c, 0, 71, 64
2, 1394068, Note_off_c, 0, 74, 64
2, 1394068, Note_on_c, 0, 67, 96
2, 1394148, Note_off_c, 0, 67, 64
2, 1394148, Note_on_c, 0, 69, 96
2, 1394228, Note_off_c, 0, 69, 64
2, 1394228, Note_on_c, 0, 72, 96
2, 1394308, Note_off_c, 0, 72, 64
2, 1394308, Note_on_c, 0, 66, 96
2, 1394388, Note_off_c, 0, 66, 64
2, 1394400, Note_on_c, 0, 67, 96
2, 1394640, Note_off_c, 0, 67, 64
2, 1394640, Note_on_c, 0, 55, 96
2, 1394880, Note_off_c, 0, 55, 64
2, 1394880, Note_on_c, 0, 54, 96
2, 1395120, Note_off_c, 0, 54, 64
2, 1395120, Note_on_c, 0, 57, 96
2, 1395360, Note_off_c, 0, 57, 64
2, 1395360, Note_on_c, 0, 50, 96
2, 1395600, Note_off_c, 0, 50, 64
2, 1395600, Note_on_c, 0, 62, 96
2, 1395840, Note_off_c, 0, 62, 64
2, 1395840, Note_on_c, 0, 61, 96
2, 1395920, Note_off_c, 0, 61, 64
2, 1395920, Note_on_c, 0, 57, 96
2, 1396000, Note_off_c, 0, 57, 64
2, 1396000, Note_on_c, 0, 59, 96
2, 1396076, Note_on_c, 0, 61, 96
2, 1396080, Note_off_c, 0, 59, 64
2, 1396156, Note_off_c, 0, 61, 64
2, 1396156, Note_on_c, 0, 62, 96
2, 1396236, Note_off_c, 0, 62, 64
2, 1396236, Note_on_c, 0, 64, 96
2, 1396316, Note_off_c, 0, 64, 64
2, 1396316, Note_on_c, 0, 66, 96
2, 1396632, Note_off_c, 0, 66, 64
2, 1396632, Note_on_c, 0, 64, 96
2, 1396712, Note_off_c, 0, 64, 64
2, 1396712, Note_on_c, 0, 62, 96
2, 1396792, Note_off_c, 0, 62, 64
2, 1396792, Note_on_c, 0, 71, 96
2, 1397028, Note_off_c, 0, 71, 64
2, 1397028, Note_on_c, 0, 73, 96
2, 1397068, Note_off_c, 0, 73, 64
2, 1397068, Note_on_c, 0, 74, 96
2, 1397108, Note_off_c, 0, 74, 64
2, 1397108, Note_on_c, 0, 73, 96
2, 1397148, Note_off_c, 0, 73, 64
2, 1397148, Note_on_c, 0, 71, 96
2, 1397188, Note_off_c, 0, 71, 64
2, 1397188, Note_on_c, 0, 73, 96
2, 1397264, Note_on_c, 0, 74, 96
2, 1397268, Note_off_c, 0, 73, 64
2, 1397344, Note_off_c, 0, 74, 64
2, 1397344, Note_on_c, 0, 69, 96
2, 1397424, Note_off_c, 0, 69, 64
2, 1397424, Note_on_c, 0, 66, 96
2, 1397504, Note_off_c, 0, 66, 64
2, 1397504, Note_on_c, 0, 62, 96
2, 1397584, Note_off_c, 0, 62, 64
2, 1397584, Note_on_c, 0, 57, 96
2, 1397660, Note_on_c, 0, 54, 96
2, 1397664, Note_off_c, 0, 57, 64
2, 1397740, Note_off_c, 0, 54, 64
2, 1397740, Note_on_c, 0, 50, 96
2, 1397976, Note_off_c, 0, 50, 64
2, 1398832, Note_on_c, 0, 81, 100
2, 1398880, Note_off_c, 0, 81, 64
2, 1399064, Note_on_c, 0, 78, 86
2, 1399108, Note_off_c, 0, 78, 64
2, 1399312, Note_on_c, 0, 74, 91
2, 1399364, Note_off_c, 0, 74, 64
2, 1399548, Note_on_c, 0, 69, 88
2, 1399600, Note_off_c, 0, 69, 64
2, 1399792, Note_on_c, 0, 66, 102
2, 1399840, Note_off_c, 0, 66, 64
2, 1400032, Note_on_c, 0, 62, 93
2, 1400084, Note_off_c, 0, 62, 64
2, 1400280, Note_on_c, 0, 59, 95
2, 1400332, Note_off_c, 0, 59, 64
2, 1400512, Note_on_c, 0, 55, 85
2, 1400560, Note_off_c, 0, 55, 64
2, 1400744, Note_on_c, 0, 50, 90
2, 1400792, Note_off_c, 0, 50, 64
2, 1400988, Note_on_c, 0, 47, 92
2, 1401036, Note_off_c, 0, 47, 64
2, 1401232, Note_on_c, 0, 43, 76
2, 1401344, Note_on_c, 0, 45, 86
2, 1401352, Note_off_c, 0, 43, 64
2, 1401456, Note_on_c, 0, 47, 91
2, 1401460, Note_off_c, 0, 45, 64
2, 1401564, Note_off_c, 0, 47, 64
2, 1401576, Note_on_c, 0, 48, 82
2, 1401784, Note_off_c, 0, 48, 64
2, 1401792, Note_on_c, 0, 52, 93
2, 1402040, Note_off_c, 0, 52, 64
2, 1402040, Note_on_c, 0, 60, 98
2, 1402288, Note_off_c, 0, 60, 64
2, 1402296, Note_on_c, 0, 64, 104
2, 1402544, Note_off_c, 0, 64, 64
2, 1402552, Note_on_c, 0, 57, 96
2, 1402788, Note_off_c, 0, 57, 64
2, 1402812, Note_on_c, 0, 72, 121
2, 1403116, Note_on_c, 0, 71, 104
2, 1403128, Note_off_c, 0, 72, 64
2, 1403188, Note_off_c, 0, 71, 64
2, 1403192, Note_on_c, 0, 70, 90
2, 1403252, Note_off_c, 0, 70, 64
2, 1403264, Note_on_c, 0, 71, 100
2, 1403348, Note_on_c, 0, 73, 96
2, 1403368, Note_off_c, 0, 71, 64
2, 1403416, Note_off_c, 0, 73, 64
2, 1403420, Note_on_c, 0, 75, 93
2, 1403500, Note_on_c, 0, 76, 97
2, 1403508, Note_off_c, 0, 75, 64
2, 1403580, Note_on_c, 0, 75, 80
2, 1403596, Note_off_c, 0, 76, 64
2, 1403652, Note_on_c, 0, 73, 102
2, 1403664, Note_off_c, 0, 75, 64
2, 1403740, Note_on_c, 0, 75, 96
2, 1403748, Note_off_c, 0, 73, 64
2, 1403804, Note_off_c, 0, 75, 64
2, 1403812, Note_on_c, 0, 76, 93
2, 1403892, Note_on_c, 0, 78, 90
2, 1403908, Note_off_c, 0, 76, 64
2, 1403988, Note_on_c, 0, 79, 91
2, 1403992, Note_off_c, 0, 78, 64
2, 1404068, Note_on_c, 0, 78, 102
2, 1404084, Note_off_c, 0, 79, 64
2, 1404152, Note_on_c, 0, 76, 101
2, 1404168, Note_off_c, 0, 78, 64
2, 1404232, Note_on_c, 0, 78, 101
2, 1404240, Note_off_c, 0, 76, 64
2, 1404292, Note_off_c, 0, 78, 64
2, 1404304, Note_on_c, 0, 79, 88
2, 1404380, Note_off_c, 0, 79, 64
2, 1404384, Note_on_c, 0, 81, 104
2, 1404476, Note_on_c, 0, 83, 102
2, 1404488, Note_off_c, 0, 81, 64
2, 1404564, Note_on_c, 0, 81, 92
2, 1404572, Note_off_c, 0, 83, 64
2, 1404640, Note_on_c, 0, 79, 102
2, 1404644, Note_off_c, 0, 81, 64
2, 1404720, Note_on_c, 0, 81, 102
2, 1404736, Note_off_c, 0, 79, 64
2, 1404800, Note_off_c, 0, 81, 64
2, 1404800, Note_on_c, 0, 83, 104
2, 1404880, Note_off_c, 0, 83, 64
2, 1404880, Note_on_c, 0, 84, 95
2, 1404960, Note_off_c, 0, 84, 64
2, 1404960, Note_on_c, 0, 75, 104
2, 1405200, Note_off_c, 0, 75, 64
2, 1405200, Note_on_c, 0, 84, 100
2, 1405440, Note_off_c, 0, 84, 64
2, 1405440, Note_on_c, 0, 83, 111
2, 1405680, Note_off_c, 0, 83, 64
2, 1405680, Note_on_c, 0, 74, 102
2, 1405956, Note_on_c, 0, 73, 101
2, 1405980, Note_off_c, 0, 74, 64
2, 1406032, Note_on_c, 0, 75, 88
2, 1406036, Note_off_c, 0, 73, 64
2, 1406112, Note_off_c, 0, 75, 64
2, 1406116, Note_on_c, 0, 76, 97
2, 1406176, Note_off_c, 0, 76, 64
2, 1406188, Note_on_c, 0, 78, 102
2, 1406272, Note_off_c, 0, 78, 64
2, 1406272, Note_on_c, 0, 79, 100
2, 1406360, Note_off_c, 0, 79, 64
2, 1406400, Note_on_c, 0, 70, 115
2, 1406640, Note_off_c, 0, 70, 64
2, 1406640, Note_on_c, 0, 79, 94
2, 1406880, Note_off_c, 0, 79, 64
2, 1406880, Note_on_c, 0, 78, 106
2, 1407120, Note_off_c, 0, 78, 64
2, 1407120, Note_on_c, 0, 69, 92
2, 1407360, Note_on_c, 0, 67, 101
2, 1407364, Note_off_c, 0, 69, 64
2, 1407596, Note_off_c, 0, 67, 64
2, 1407600, Note_on_c, 0, 63, 106
2, 1407840, Note_off_c, 0, 63, 64
2, 1407840, Note_on_c, 0, 64, 104
2, 1408080, Note_off_c, 0, 64, 64
2, 1408080, Note_on_c, 0, 60, 113
2, 1408320, Note_off_c, 0, 60, 64
2, 1408320, Note_on_c, 0, 51, 113
2, 1408560, Note_off_c, 0, 51, 64
2, 1408560, Note_on_c, 0, 75, 113
2, 1408800, Note_off_c, 0, 75, 64
2, 1408800, Note_on_c, 0, 76, 113
2, 1409040, Note_off_c, 0, 76, 64
2, 1409040, Note_on_c, 0, 64, 113
2, 1409280, Note_off_c, 0, 64, 64
2, 1409360, Note_on_c, 0, 67, 91
2, 1409436, Note_off_c, 0, 67, 64
2, 1409440, Note_on_c, 0, 71, 90
2, 1409516, Note_off_c, 0, 71, 64
2, 1409520, Note_on_c, 0, 76, 86
2, 1409596, Note_off_c, 0, 76, 64
2, 1409600, Note_on_c, 0, 79, 92
2, 1409676, Note_off_c, 0, 79, 64
2, 1409680, Note_on_c, 0, 75, 84
2, 1409756, Note_off_c, 0, 75, 64
2, 1409760, Note_on_c, 0, 76, 92
2, 1409836, Note_off_c, 0, 76, 64
2, 1409840, Note_on_c, 0, 71, 91
2, 1409916, Note_off_c, 0, 71, 64
2, 1409920, Note_on_c, 0, 67, 93
2, 1409996, Note_off_c, 0, 67, 64
2, 1410080, Note_on_c, 0, 68, 92
2, 1410156, Note_off_c, 0, 68, 64
2, 1410160, Note_on_c, 0, 77, 111
2, 1410236, Note_off_c, 0, 77, 64
2, 1410240, Note_on_c, 0, 76, 92
2, 1410316, Note_off_c, 0, 76, 64
2, 1410320, Note_on_c, 0, 72, 95
2, 1410396, Note_off_c, 0, 72, 64
2, 1410400, Note_on_c, 0, 69, 71
2, 1410476, Note_off_c, 0, 69, 64
2, 1410560, Note_on_c, 0, 62, 81
2, 1410636, Note_off_c, 0, 62, 64
2, 1410640, Note_on_c, 0, 71, 106
2, 1410716, Note_off_c, 0, 71, 64
2, 1410800, Note_on_c, 0, 60, 95
2, 1410876, Note_off_c, 0, 60, 64
2, 1410880, Note_on_c, 0, 69, 102
2, 1410956, Note_off_c, 0, 69, 64
2, 1411040, Note_on_c, 0, 59, 98
2, 1411116, Note_off_c, 0, 59, 64
2, 1411120, Note_on_c, 0, 67, 113
2, 1411196, Note_off_c, 0, 67, 64
2, 1411280, Note_on_c, 0, 60, 83
2, 1411356, Note_off_c, 0, 60, 64
2, 1411360, Note_on_c, 0, 69, 111
2, 1411436, Note_off_c, 0, 69, 64
2, 1411520, Note_on_c, 0, 66, 88
2, 1411596, Note_off_c, 0, 66, 64
2, 1411600, Note_on_c, 0, 75, 101
2, 1411676, Note_off_c, 0, 75, 64
2, 1411680, Note_on_c, 0, 74, 89
2, 1411756, Note_off_c, 0, 74, 64
2, 1411760, Note_on_c, 0, 71, 100
2, 1411836, Note_off_c, 0, 71, 64
2, 1411840, Note_on_c, 0, 67, 86
2, 1411916, Note_off_c, 0, 67, 64
2, 1412000, Note_on_c, 0, 60, 93
2, 1412076, Note_off_c, 0, 60, 64
2, 1412080, Note_on_c, 0, 69, 107
2, 1412156, Note_off_c, 0, 69, 64
2, 1412240, Note_on_c, 0, 59, 100
2, 1412316, Note_off_c, 0, 59, 64
2, 1412320, Note_on_c, 0, 67, 109
2, 1412396, Note_off_c, 0, 67, 64
2, 1412480, Note_on_c, 0, 57, 83
2, 1412556, Note_off_c, 0, 57, 64
2, 1412560, Note_on_c, 0, 66, 101
2, 1412636, Note_off_c, 0, 66, 64
2, 1412720, Note_on_c, 0, 59, 95
2, 1412796, Note_off_c, 0, 59, 64
2, 1412800, Note_on_c, 0, 67, 107
2, 1412876, Note_off_c, 0, 67, 64
2, 1412960, Note_on_c, 0, 64, 93
2, 1413036, Note_off_c, 0, 64, 64
2, 1413040, Note_on_c, 0, 74, 109
2, 1413116, Note_off_c, 0, 74, 64
2, 1413120, Note_on_c, 0, 72, 104
2, 1413196, Note_off_c, 0, 72, 64
2, 1413200, Note_on_c, 0, 69, 92
2, 1413276, Note_off_c, 0, 69, 64
2, 1413280, Note_on_c, 0, 64, 97
2, 1413356, Note_off_c, 0, 64, 64
2, 1413360, Note_on_c, 0, 60, 113
2, 1413476, Note_off_c, 0, 60, 64
2, 1413600, Note_on_c, 0, 60, 113
2, 1413716, Note_off_c, 0, 60, 64
2, 1413840, Note_on_c, 0, 60, 113
2, 1413956, Note_off_c, 0, 60, 64
2, 1414080, Note_on_c, 0, 60, 113
2, 1414196, Note_off_c, 0, 60, 64
2, 1414320, Note_on_c, 0, 72, 113
2, 1414436, Note_off_c, 0, 72, 64
2, 1414560, Note_on_c, 0, 72, 111
2, 1414636, Note_off_c, 0, 72, 64
2, 1414640, Note_on_c, 0, 69, 97
2, 1414716, Note_off_c, 0, 69, 64
2, 1414720, Note_on_c, 0, 66, 112
2, 1414796, Note_off_c, 0, 66, 64
2, 1414800, Note_on_c, 0, 62, 113
2, 1414916, Note_off_c, 0, 62, 64
2, 1415040, Note_on_c, 0, 62, 113
2, 1415156, Note_off_c, 0, 62, 64
2, 1415280, Note_on_c, 0, 62, 113
2, 1415396, Note_off_c, 0, 62, 64
2, 1415520, Note_on_c, 0, 62, 113
2, 1415636, Note_off_c, 0, 62, 64
2, 1415760, Note_on_c, 0, 72, 113
2, 1415876, Note_off_c, 0, 72, 64
2, 1416000, Note_on_c, 0, 71, 91
2, 1416076, Note_off_c, 0, 71, 64
2, 1416080, Note_on_c, 0, 67, 90
2, 1416156, Note_off_c, 0, 67, 64
2, 1416160, Note_on_c, 0, 74, 97
2, 1416236, Note_off_c, 0, 74, 64
2, 1416240, Note_on_c, 0, 72, 96
2, 1416316, Note_off_c, 0, 72, 64
2, 1416320, Note_on_c, 0, 69, 95
2, 1416396, Note_off_c, 0, 69, 64
2, 1416400, Note_on_c, 0, 76, 107
2, 1416476, Note_off_c, 0, 76, 64
2, 1416480, Note_on_c, 0, 74, 113
2, 1416720, Note_off_c, 0, 74, 64
2, 1416720, Note_on_c, 0, 59, 113
2, 1416960, Note_off_c, 0, 59, 64
2, 1416960, Note_on_c, 0, 55, 113
2, 1417200, Note_off_c, 0, 55, 64
2, 1417200, Note_on_c, 0, 77, 113
2, 1417440, Note_off_c, 0, 77, 64
2, 1417440, Note_on_c, 0, 76, 97
2, 1417516, Note_off_c, 0, 76, 64
2, 1417520, Note_on_c, 0, 79, 104
2, 1417596, Note_off_c, 0, 79, 64
2, 1417600, Note_on_c, 0, 72, 92
2, 1417676, Note_off_c, 0, 72, 64
2, 1417680, Note_on_c, 0, 74, 69
2, 1417756, Note_off_c, 0, 74, 64
2, 1417760, Note_on_c, 0, 77, 101
2, 1417836, Note_off_c, 0, 77, 64
2, 1417840, Note_on_c, 0, 71, 86
2, 1417916, Note_off_c, 0, 71, 64
2, 1417920, Note_on_c, 0, 72, 85
2, 1417996, Note_off_c, 0, 72, 64
2, 1418000, Note_on_c, 0, 76, 93
2, 1418076, Note_off_c, 0, 76, 64
2, 1418080, Note_on_c, 0, 69, 81
2, 1418156, Note_off_c, 0, 69, 64
2, 1418160, Note_on_c, 0, 71, 88
2, 1418236, Note_off_c, 0, 71, 64
2, 1418240, Note_on_c, 0, 74, 96
2, 1418316, Note_off_c, 0, 74, 64
2, 1418320, Note_on_c, 0, 67, 84
2, 1418396, Note_off_c, 0, 67, 64
2, 1418400, Note_on_c, 0, 69, 88
2, 1418476, Note_off_c, 0, 69, 64
2, 1418480, Note_on_c, 0, 72, 102
2, 1418556, Note_off_c, 0, 72, 64
2, 1418560, Note_on_c, 0, 66, 92
2, 1418636, Note_off_c, 0, 66, 64
2, 1418640, Note_on_c, 0, 67, 92
2, 1418716, Note_off_c, 0, 67, 64
2, 1418720, Note_on_c, 0, 71, 100
2, 1418796, Note_off_c, 0, 71, 64
2, 1418800, Note_on_c, 0, 64, 91
2, 1418876, Note_off_c, 0, 64, 64
2, 1418880, Note_on_c, 0, 66, 86
2, 1418956, Note_off_c, 0, 66, 64
2, 1418960, Note_on_c, 0, 62, 84
2, 1419036, Note_off_c, 0, 62, 64
2, 1419040, Note_on_c, 0, 64, 89
2, 1419116, Note_off_c, 0, 64, 64
2, 1419120, Note_on_c, 0, 66, 82
2, 1419196, Note_off_c, 0, 66, 64
2, 1419200, Note_on_c, 0, 67, 91
2, 1419276, Note_off_c, 0, 67, 64
2, 1419280, Note_on_c, 0, 69, 101
2, 1419356, Note_off_c, 0, 69, 64
2, 1419360, Note_on_c, 0, 59, 98
2, 1419596, Note_off_c, 0, 59, 64
2, 1419680, Note_on_c, 0, 57, 98
2, 1419756, Note_off_c, 0, 57, 64
2, 1419760, Note_on_c, 0, 55, 92
2, 1419836, Note_off_c, 0, 55, 64
2, 1419840, Note_on_c, 0, 64, 98
2, 1420020, Note_off_c, 0, 64, 64
2, 1420020, Note_on_c, 0, 66, 98
2, 1420080, Note_off_c, 0, 66, 64
2, 1420080, Note_on_c, 0, 67, 98
2, 1420140, Note_off_c, 0, 67, 64
2, 1420140, Note_on_c, 0, 66, 98
2, 1420200, Note_off_c, 0, 66, 64
2, 1420200, Note_on_c, 0, 64, 98
2, 1420260, Note_off_c, 0, 64, 64
2, 1420260, Note_on_c, 0, 66, 98
2, 1420320, Note_off_c, 0, 66, 64
2, 1420320, Note_on_c, 0, 67, 101
2, 1420396, Note_off_c, 0, 67, 64
2, 1420400, Note_on_c, 0, 62, 95
2, 1420476, Note_off_c, 0, 62, 64
2, 1420480, Note_on_c, 0, 59, 100
2, 1420556, Note_off_c, 0, 59, 64
2, 1420560, Note_on_c, 0, 55, 96
2, 1420636, Note_off_c, 0, 55, 64
2, 1420640, Note_on_c, 0, 50, 95
2, 1420716, Note_off_c, 0, 50, 64
2, 1420720, Note_on_c, 0, 47, 92
2, 1420796, Note_off_c, 0, 47, 64
2, 1420800, Note_on_c, 0, 43, 97
2, 1421036, Note_off_c, 0, 43, 64
2, 1424280, Note_on_c, 0, 69, 102
2, 1424396, Note_off_c, 0, 69, 64
2, 1424400, Note_on_c, 0, 70, 104
2, 1424516, Note_off_c, 0, 70, 64
2, 1424520, Note_on_c, 0, 72, 109
2, 1424636, Note_off_c, 0, 72, 64
2, 1424640, Note_on_c, 0, 74, 98
2, 1424756, Note_off_c, 0, 74, 64
2, 1424760, Note_on_c, 0, 72, 107
2, 1424876, Note_off_c, 0, 72, 64
2, 1424880, Note_on_c, 0, 70, 112
2, 1424996, Note_off_c, 0, 70, 64
2, 1425000, Note_on_c, 0, 69, 100
2, 1425116, Note_off_c, 0, 69, 64
2, 1425120, Note_on_c, 0, 67, 101
2, 1425356, Note_off_c, 0, 67, 64
2, 1425360, Note_on_c, 0, 74, 111
2, 1425596, Note_off_c, 0, 74, 64
2, 1425600, Note_on_c, 0, 67, 100
2, 1425836, Note_off_c, 0, 67, 64
2, 1425840, Note_on_c, 0, 72, 107
2, 1426196, Note_off_c, 0, 72, 64
2, 1426200, Note_on_c, 0, 66, 97
2, 1426316, Note_off_c, 0, 66, 64
2, 1426320, Note_on_c, 0, 67, 88
2, 1426436, Note_off_c, 0, 67, 64
2, 1426440, Note_on_c, 0, 69, 93
2, 1426556, Note_off_c, 0, 69, 64
2, 1426560, Note_on_c, 0, 70, 82
2, 1426676, Note_off_c, 0, 70, 64
2, 1426680, Note_on_c, 0, 69, 67
2, 1426796, Note_off_c, 0, 69, 64
2, 1426800, Note_on_c, 0, 67, 70
2, 1426916, Note_off_c, 0, 67, 64
2, 1426920, Note_on_c, 0, 66, 77
2, 1427036, Note_off_c, 0, 66, 64
2, 1427040, Note_on_c, 0, 67, 66
2, 1427276, Note_off_c, 0, 67, 64
2, 1427760, Note_on_c, 0, 67, 97
2, 1427996, Note_off_c, 0, 67, 64
2, 1428000, Note_on_c, 0, 68, 94
2, 1428236, Note_off_c, 0, 68, 64
2, 1428240, Note_on_c, 0, 67, 90
2, 1428476, Note_off_c, 0, 67, 64
2, 1428480, Note_on_c, 0, 68, 99
2, 1428716, Note_off_c, 0, 68, 64
2, 1428720, Note_on_c, 0, 69, 97
2, 1428956, Note_off_c, 0, 69, 64
2, 1428960, Note_on_c, 0, 70, 104
2, 1429076, Note_off_c, 0, 70, 64
2, 1429080, Note_on_c, 0, 72, 101
2, 1429196, Note_off_c, 0, 72, 64
2, 1429200, Note_on_c, 0, 74, 101
2, 1429316, Note_off_c, 0, 74, 64
2, 1429320, Note_on_c, 0, 72, 96
2, 1429436, Note_off_c, 0, 72, 64
2, 1429440, Note_on_c, 0, 70, 88
2, 1429556, Note_off_c, 0, 70, 64
2, 1429560, Note_on_c, 0, 69, 85
2, 1429676, Note_off_c, 0, 69, 64
2, 1429680, Note_on_c, 0, 67, 91
2, 1429796, Note_off_c, 0, 67, 64
2, 1429800, Note_on_c, 0, 66, 96
2, 1429916, Note_off_c, 0, 66, 64
2, 1429920, Note_on_c, 0, 75, 110
2, 1430156, Note_off_c, 0, 75, 64
2, 1430640, Note_on_c, 0, 72, 106
2, 1430996, Note_off_c, 0, 72, 64
2, 1431000, Note_on_c, 0, 72, 95
2, 1431116, Note_off_c, 0, 72, 64
2, 1431120, Note_on_c, 0, 70, 82
2, 1431236, Note_off_c, 0, 70, 64
2, 1431240, Note_on_c, 0, 69, 89
2, 1431356, Note_off_c, 0, 69, 64
2, 1431360, Note_on_c, 0, 70, 97
2, 1431476, Note_off_c, 0, 70, 64
2, 1431480, Note_on_c, 0, 72, 101
2, 1431596, Note_off_c, 0, 72, 64
2, 1431600, Note_on_c, 0, 74, 100
2, 1431716, Note_off_c, 0, 74, 64
2, 1431720, Note_on_c, 0, 76, 104
2, 1431836, Note_off_c, 0, 76, 64
2, 1431840, Note_on_c, 0, 77, 101
2, 1432076, Note_off_c, 0, 77, 64
2, 1432080, Note_on_c, 0, 76, 106
2, 1432316, Note_off_c, 0, 76, 64
2, 1432320, Note_on_c, 0, 77, 97
2, 1432436, Note_off_c, 0, 77, 64
2, 1432440, Note_on_c, 0, 79, 97
2, 1432556, Note_off_c, 0, 79, 64
2, 1432560, Note_on_c, 0, 81, 104
2, 1432912, Note_on_c, 0, 79, 97
2, 1432916, Note_off_c, 0, 81, 64
2, 1433024, Note_on_c, 0, 77, 97
2, 1433036, Note_off_c, 0, 79, 64
2, 1433152, Note_on_c, 0, 81, 101
2, 1433156, Note_off_c, 0, 77, 64
2, 1433272, Note_off_c, 0, 81, 64
2, 1433272, Note_on_c, 0, 79, 96
2, 1433396, Note_on_c, 0, 77, 97
2, 1433408, Note_off_c, 0, 79, 64
2, 1433512, Note_off_c, 0, 77, 64
2, 1433512, Note_on_c, 0, 76, 93
2, 1433632, Note_off_c, 0, 76, 64
2, 1433632, Note_on_c, 0, 74, 100
2, 1433724, Note_off_c, 0, 74, 64
2, 1433744, Note_on_c, 0, 74, 89
2, 1433828, Note_off_c, 0, 74, 64
2, 1433828, Note_on_c, 0, 73, 101
2, 1433848, Note_off_c, 0, 73, 64
2, 1433852, Note_on_c, 0, 74, 100
2, 1433876, Note_on_c, 0, 73, 101
2, 1433884, Note_off_c, 0, 74, 64
2, 1434128, Note_on_c, 0, 71, 98
2, 1434136, Note_off_c, 0, 73, 64
2, 1434240, Note_on_c, 0, 73, 106
2, 1434248, Note_off_c, 0, 71, 64
2, 1434360, Note_on_c, 0, 74, 109
2, 1434368, Note_off_c, 0, 73, 64
2, 1434476, Note_on_c, 0, 76, 106
2, 1434480, Note_off_c, 0, 74, 64
2, 1434716, Note_on_c, 0, 74, 104
2, 1434720, Note_off_c, 0, 76, 64
2, 1434976, Note_off_c, 0, 74, 64
2, 1435440, Note_on_c, 0, 74, 104
2, 1435676, Note_off_c, 0, 74, 64
2, 1435680, Note_on_c, 0, 75, 101
2, 1435916, Note_off_c, 0, 75, 64
2, 1435920, Note_on_c, 0, 74, 101
2, 1436156, Note_off_c, 0, 74, 64
2, 1436160, Note_on_c, 0, 75, 104
2, 1436396, Note_off_c, 0, 75, 64
2, 1436400, Note_on_c, 0, 76, 106
2, 1436636, Note_off_c, 0, 76, 64
2, 1436640, Note_on_c, 0, 77, 100
2, 1436876, Note_off_c, 0, 77, 64
2, 1436880, Note_on_c, 0, 79, 104
2, 1437116, Note_off_c, 0, 79, 64
2, 1437120, Note_on_c, 0, 81, 104
2, 1437356, Note_off_c, 0, 81, 64
2, 1437360, Note_on_c, 0, 79, 101
2, 1437840, Note_off_c, 0, 79, 64
2, 1437840, Note_on_c, 0, 78, 63
2, 1437956, Note_off_c, 0, 78, 64
2, 1437960, Note_on_c, 0, 76, 95
2, 1438076, Note_off_c, 0, 76, 64
2, 1438080, Note_on_c, 0, 74, 95
2, 1438196, Note_off_c, 0, 74, 64
2, 1438200, Note_on_c, 0, 73, 101
2, 1438316, Note_off_c, 0, 73, 64
2, 1438320, Note_on_c, 0, 74, 97
2, 1438556, Note_off_c, 0, 74, 64
2, 1439640, Note_on_c, 0, 69, 102
2, 1439756, Note_off_c, 0, 69, 64
2, 1439760, Note_on_c, 0, 70, 104
2, 1439876, Note_off_c, 0, 70, 64
2, 1439880, Note_on_c, 0, 72, 109
2, 1439996, Note_off_c, 0, 72, 64
2, 1440000, Note_on_c, 0, 74, 98
2, 1440116, Note_off_c, 0, 74, 64
2, 1440120, Note_on_c, 0, 72, 107
2, 1440236, Note_off_c, 0, 72, 64
2, 1440240, Note_on_c, 0, 70, 112
2, 1440356, Note_off_c, 0, 70, 64
2, 1440360, Note_on_c, 0, 69, 100
2, 1440476, Note_off_c, 0, 69, 64
2, 1440480, Note_on_c, 0, 67, 101
2, 1440716, Note_off_c, 0, 67, 64
2, 1440720, Note_on_c, 0, 74, 111
2, 1440956, Note_off_c, 0, 74, 64
2, 1440960, Note_on_c, 0, 67, 100
2, 1441196, Note_off_c, 0, 67, 64
2, 1441200, Note_on_c, 0, 72, 107
2, 1441556, Note_off_c, 0, 72, 64
2, 1441560, Note_on_c, 0, 66, 97
2, 1441676, Note_off_c, 0, 66, 64
2, 1441680, Note_on_c, 0, 67, 88
2, 1441796, Note_off_c, 0, 67, 64
2, 1441800, Note_on_c, 0, 69, 93
2, 1441916, Note_off_c, 0, 69, 64
2, 1441920, Note_on_c, 0, 70, 82
2, 1442036, Note_off_c, 0, 70, 64
2, 1442040, Note_on_c, 0, 69, 67
2, 1442156, Note_off_c, 0, 69, 64
2, 1442160, Note_on_c, 0, 67, 70
2, 1442276, Note_off_c, 0, 67, 64
2, 1442280, Note_on_c, 0, 66, 77
2, 1442396, Note_off_c, 0, 66, 64
2, 1442400, Note_on_c, 0, 67, 66
2, 1442636, Note_off_c, 0, 67, 64
2, 1443120, Note_on_c, 0, 67, 97
2, 1443356, Note_off_c, 0, 67, 64
2, 1443360, Note_on_c, 0, 68, 94
2, 1443596, Note_off_c, 0, 68, 64
2, 1443600, Note_on_c, 0, 67, 90
2, 1443836, Note_off_c, 0, 67, 64
2, 1443840, Note_on_c, 0, 68, 99
2, 1444076, Note_off_c, 0, 68, 64
2, 1444080, Note_on_c, 0, 69, 97
2, 1444316, Note_off_c, 0, 69, 64
2, 1444320, Note_on_c, 0, 70, 104
2, 1444436, Note_off_c, 0, 70, 64
2, 1444440, Note_on_c, 0, 72, 101
2, 1444556, Note_off_c, 0, 72, 64
2, 1444560, Note_on_c, 0, 74, 101
2, 1444676, Note_off_c, 0, 74, 64
2, 1444680, Note_on_c, 0, 72, 96
2, 1444796, Note_off_c, 0, 72, 64
2, 1444800, Note_on_c, 0, 70, 88
2, 1444916, Note_off_c, 0, 70, 64
2, 1444920, Note_on_c, 0, 69, 85
2, 1445036, Note_off_c, 0, 69, 64
2, 1445040, Note_on_c, 0, 67, 91
2, 1445156, Note_off_c, 0, 67, 64
2, 1445160, Note_on_c, 0, 66, 96
2, 1445276, Note_off_c, 0, 66, 64
2, 1445280, Note_on_c, 0, 75, 110
2, 1445516, Note_off_c, 0, 75, 64
2, 1446000, Note_on_c, 0, 72, 106
2, 1446356, Note_off_c, 0, 72, 64
2, 1446360, Note_on_c, 0, 72, 95
2, 1446476, Note_off_c, 0, 72, 64
2, 1446480, Note_on_c, 0, 70, 82
2, 1446596, Note_off_c, 0, 70, 64
2, 1446600, Note_on_c, 0, 69, 89
2, 1446716, Note_off_c, 0, 69, 64
2, 1446720, Note_on_c, 0, 70, 97
2, 1446836, Note_off_c, 0, 70, 64
2, 1446840, Note_on_c, 0, 72, 101
2, 1446956, Note_off_c, 0, 72, 64
2, 1446960, Note_on_c, 0, 74, 100
2, 1447076, Note_off_c, 0, 74, 64
2, 1447080, Note_on_c, 0, 76, 104
2, 1447196, Note_off_c, 0, 76, 64
2, 1447200, Note_on_c, 0, 77, 101
2, 1447436, Note_off_c, 0, 77, 64
2, 1447440, Note_on_c, 0, 76, 106
2, 1447676, Note_off_c, 0, 76, 64
2, 1447680, Note_on_c, 0, 77, 97
2, 1447796, Note_off_c, 0, 77, 64
2, 1447800, Note_on_c, 0, 79, 97
2, 1447916, Note_off_c, 0, 79, 64
2, 1447920, Note_on_c, 0, 81, 104
2, 1448272, Note_on_c, 0, 79, 97
2, 1448276, Note_off_c, 0, 81, 64
2, 1448384, Note_on_c, 0, 77, 97
2, 1448396, Note_off_c, 0, 79, 64
2, 1448512, Note_on_c, 0, 81, 101
2, 1448516, Note_off_c, 0, 77, 64
2, 1448632, Note_off_c, 0, 81, 64
2, 1448632, Note_on_c, 0, 79, 96
2, 1448756, Note_on_c, 0, 77, 97
2, 1448768, Note_off_c, 0, 79, 64
2, 1448872, Note_off_c, 0, 77, 64
2, 1448872, Note_on_c, 0, 76, 93
2, 1448992, Note_off_c, 0, 76, 64
2, 1448992, Note_on_c, 0, 74, 100
2, 1449084, Note_off_c, 0, 74, 64
2, 1449104, Note_on_c, 0, 74, 89
2, 1449188, Note_off_c, 0, 74, 64
2, 1449188, Note_on_c, 0, 73, 101
2, 1449208, Note_off_c, 0, 73, 64
2, 1449212, Note_on_c, 0, 74, 100
2, 1449236, Note_on_c, 0, 73, 101
2, 1449244, Note_off_c, 0, 74, 64
2, 1449488, Note_on_c, 0, 71, 98
2, 1449496, Note_off_c, 0, 73, 64
2, 1449600, Note_on_c, 0, 73, 106
2, 1449608, Note_off_c, 0, 71, 64
2, 1449720, Note_on_c, 0, 74, 109
2, 1449728, Note_off_c, 0, 73, 64
2, 1449836, Note_on_c, 0, 76, 106
2, 1449840, Note_off_c, 0, 74, 64
2, 1450076, Note_on_c, 0, 74, 104
2, 1450080, Note_off_c, 0, 76, 64
2, 1450336, Note_off_c, 0, 74, 64
2, 1450800, Note_on_c, 0, 74, 104
2, 1451036, Note_off_c, 0, 74, 64
2, 1451040, Note_on_c, 0, 75, 101
2, 1451276, Note_off_c, 0, 75, 64
2, 1451280, Note_on_c, 0, 74, 101
2, 1451516, Note_off_c, 0, 74, 64
2, 1451520, Note_on_c, 0, 75, 104
2, 1451756, Note_off_c, 0, 75, 64
2, 1451760, Note_on_c, 0, 76, 106
2, 1451996, Note_off_c, 0, 76, 64
2, 1452000, Note_on_c, 0, 77, 100
2, 1452236, Note_off_c, 0, 77, 64
2, 1452240, Note_on_c, 0, 79, 104
2, 1452476, Note_off_c, 0, 79, 64
2, 1452480, Note_on_c, 0, 81, 104
2, 1452716, Note_off_c, 0, 81, 64
2, 1452720, Note_on_c, 0, 79, 101
2, 1453200, Note_off_c, 0, 79, 64
2, 1453200, Note_on_c, 0, 78, 63
2, 1453316, Note_off_c, 0, 78, 64
2, 1453320, Note_on_c, 0, 76, 95
2, 1453436, Note_off_c, 0, 76, 64
2, 1453440, Note_on_c, 0, 74, 95
2, 1453556, Note_off_c, 0, 74, 64
2, 1453560, Note_on_c, 0, 73, 101
2, 1453676, Note_off_c, 0, 73, 64
2, 1453680, Note_on_c, 0, 74, 97
2, 1453916, Note_off_c, 0, 74, 64
2, 1455000, Note_on_c, 0, 80, 106
2, 1455116, Note_off_c, 0, 80, 64
2, 1455120, Note_on_c, 0, 79, 98
2, 1455236, Note_off_c, 0, 79, 64
2, 1455240, Note_on_c, 0, 77, 91
2, 1455356, Note_off_c, 0, 77, 64
2, 1455360, Note_on_c, 0, 76, 100
2, 1455476, Note_off_c, 0, 76, 64
2, 1455480, Note_on_c, 0, 77, 96
2, 1455596, Note_off_c, 0, 77, 64
2, 1455600, Note_on_c, 0, 79, 90
2, 1455716, Note_off_c, 0, 79, 64
2, 1455720, Note_on_c, 0, 76, 97
2, 1455836, Note_off_c, 0, 76, 64
2, 1455840, Note_on_c, 0, 72, 107
2, 1456076, Note_off_c, 0, 72, 64
2, 1456080, Note_on_c, 0, 74, 98
2, 1456196, Note_off_c, 0, 74, 64
2, 1456200, Note_on_c, 0, 75, 96
2, 1456316, Note_off_c, 0, 75, 64
2, 1456320, Note_on_c, 0, 77, 95
2, 1456556, Note_off_c, 0, 77, 64
2, 1456560, Note_on_c, 0, 70, 110
2, 1456916, Note_off_c, 0, 70, 64
2, 1456920, Note_on_c, 0, 77, 84
2, 1457036, Note_off_c, 0, 77, 64
2, 1457040, Note_on_c, 0, 75, 95
2, 1457156, Note_off_c, 0, 75, 64
2, 1457160, Note_on_c, 0, 74, 95
2, 1457276, Note_off_c, 0, 74, 64
2, 1457280, Note_on_c, 0, 72, 98
2, 1457396, Note_off_c, 0, 72, 64
2, 1457400, Note_on_c, 0, 75, 110
2, 1457516, Note_off_c, 0, 75, 64
2, 1457520, Note_on_c, 0, 74, 97
2, 1457636, Note_off_c, 0, 74, 64
2, 1457640, Note_on_c, 0, 77, 97
2, 1457756, Note_off_c, 0, 77, 64
2, 1457760, Note_on_c, 0, 75, 99
2, 1457996, Note_off_c, 0, 75, 64
2, 1458000, Note_on_c, 0, 77, 107
2, 1458236, Note_off_c, 0, 77, 64
2, 1458240, Note_on_c, 0, 79, 104
2, 1458836, Note_off_c, 0, 79, 64
2, 1458840, Note_on_c, 0, 77, 97
2, 1458956, Note_off_c, 0, 77, 64
2, 1458960, Note_on_c, 0, 79, 100
2, 1459076, Note_off_c, 0, 79, 64
2, 1459080, Note_on_c, 0, 80, 101
2, 1459196, Note_off_c, 0, 80, 64
2, 1459200, Note_on_c, 0, 74, 97
2, 1459316, Note_off_c, 0, 74, 64
2, 1459320, Note_on_c, 0, 72, 91
2, 1459436, Note_off_c, 0, 72, 64
2, 1459440, Note_on_c, 0, 74, 98
2, 1459556, Note_off_c, 0, 74, 64
2, 1459560, Note_on_c, 0, 77, 92
2, 1459676, Note_off_c, 0, 77, 64
2, 1459680, Note_on_c, 0, 70, 93
2, 1459796, Note_off_c, 0, 70, 64
2, 1459800, Note_on_c, 0, 72, 104
2, 1459916, Note_off_c, 0, 72, 64
2, 1459920, Note_on_c, 0, 74, 90
2, 1460036, Note_off_c, 0, 74, 64
2, 1460040, Note_on_c, 0, 70, 101
2, 1460156, Note_off_c, 0, 70, 64
2, 1460160, Note_on_c, 0, 75, 104
2, 1460396, Note_off_c, 0, 75, 64
2, 1460400, Note_on_c, 0, 68, 106
2, 1460876, Note_off_c, 0, 68, 64
2, 1460880, Note_on_c, 0, 67, 101
2, 1460996, Note_off_c, 0, 67, 64
2, 1461000, Note_on_c, 0, 65, 96
2, 1461116, Note_off_c, 0, 65, 64
2, 1461120, Note_on_c, 0, 67, 104
2, 1461356, Note_off_c, 0, 67, 64
2, 1461360, Note_on_c, 0, 75, 112
2, 1461836, Note_off_c, 0, 75, 64
2, 1461840, Note_on_c, 0, 74, 107
2, 1461956, Note_off_c, 0, 74, 64
2, 1461960, Note_on_c, 0, 72, 102
2, 1462076, Note_off_c, 0, 72, 64
2, 1462080, Note_on_c, 0, 74, 106
2, 1462316, Note_off_c, 0, 74, 64
2, 1462680, Note_on_c, 0, 64, 111
2, 1462796, Note_off_c, 0, 64, 64
2, 1462800, Note_on_c, 0, 65, 101
2, 1462916, Note_off_c, 0, 65, 64
2, 1462920, Note_on_c, 0, 67, 97
2, 1463036, Note_off_c, 0, 67, 64
2, 1463040, Note_on_c, 0, 65, 101
2, 1463156, Note_off_c, 0, 65, 64
2, 1463160, Note_on_c, 0, 64, 98
2, 1463276, Note_off_c, 0, 64, 64
2, 1463280, Note_on_c, 0, 62, 89
2, 1463396, Note_off_c, 0, 62, 64
2, 1463400, Note_on_c, 0, 60, 95
2, 1463516, Note_off_c, 0, 60, 64
2, 1463520, Note_on_c, 0, 72, 123
2, 1463636, Note_off_c, 0, 72, 64
2, 1463640, Note_on_c, 0, 70, 117
2, 1463756, Note_off_c, 0, 70, 64
2, 1463760, Note_on_c, 0, 72, 107
2, 1463996, Note_off_c, 0, 72, 64
2, 1464000, Note_on_c, 0, 66, 110
2, 1464356, Note_off_c, 0, 66, 64
2, 1464720, Note_on_c, 0, 74, 102
2, 1464836, Note_off_c, 0, 74, 64
2, 1464840, Note_on_c, 0, 72, 97
2, 1464956, Note_off_c, 0, 72, 64
2, 1464960, Note_on_c, 0, 70, 94
2, 1465080, Note_off_c, 0, 70, 64
2, 1465080, Note_on_c, 0, 69, 93
2, 1465196, Note_off_c, 0, 69, 64
2, 1465200, Note_on_c, 0, 67, 88
2, 1465316, Note_off_c, 0, 67, 64
2, 1465320, Note_on_c, 0, 65, 92
2, 1465436, Note_off_c, 0, 65, 64
2, 1465440, Note_on_c, 0, 63, 104
2, 1465676, Note_off_c, 0, 63, 64
2, 1466160, Note_on_c, 0, 72, 115
2, 1466636, Note_off_c, 0, 72, 64
2, 1466640, Note_on_c, 0, 70, 99
2, 1466876, Note_off_c, 0, 70, 64
2, 1466880, Note_on_c, 0, 69, 90
2, 1467116, Note_off_c, 0, 69, 64
2, 1467120, Note_on_c, 0, 70, 94
2, 1467236, Note_off_c, 0, 70, 64
2, 1467240, Note_on_c, 0, 72, 109
2, 1467356, Note_off_c, 0, 72, 64
2, 1467360, Note_on_c, 0, 74, 101
2, 1467596, Note_off_c, 0, 74, 64
2, 1467600, Note_on_c, 0, 65, 101
2, 1467840, Note_off_c, 0, 65, 64
2, 1467840, Note_on_c, 0, 63, 101
2, 1468080, Note_off_c, 0, 63, 64
2, 1468080, Note_on_c, 0, 72, 117
2, 1468436, Note_off_c, 0, 72, 64
2, 1468440, Note_on_c, 0, 70, 90
2, 1468500, Note_off_c, 0, 70, 64
2, 1468500, Note_on_c, 0, 69, 89
2, 1468560, Note_off_c, 0, 69, 64
2, 1468560, Note_on_c, 0, 67, 68
2, 1468620, Note_off_c, 0, 67, 64
2, 1468620, Note_on_c, 0, 69, 86
2, 1468680, Note_off_c, 0, 69, 64
2, 1468680, Note_on_c, 0, 66, 110
2, 1468796, Note_off_c, 0, 66, 64
2, 1468800, Note_on_c, 0, 67, 107
2, 1469280, Note_off_c, 0, 67, 64
2, 1477920, Note_on_c, 0, 74, 117
2, 1479356, Note_off_c, 0, 74, 64
2, 1479360, Note_on_c, 0, 72, 119
2, 1479596, Note_off_c, 0, 72, 64
2, 1479600, Note_on_c, 0, 71, 111
2, 1479836, Note_off_c, 0, 71, 64
2, 1479840, Note_on_c, 0, 72, 117
2, 1480316, Note_off_c, 0, 72, 64
2, 1480320, Note_on_c, 0, 76, 109
2, 1480796, Note_off_c, 0, 76, 64
2, 1480800, Note_on_c, 0, 69, 107
2, 1481276, Note_off_c, 0, 69, 64
2, 1481280, Note_on_c, 0, 74, 119
2, 1482236, Note_off_c, 0, 74, 64
2, 1482240, Note_on_c, 0, 72, 117
2, 1483200, Note_on_c, 0, 71, 111
2, 1483436, Note_off_c, 0, 72, 64
2, 1483436, Note_off_c, 0, 71, 64
2, 1483440, Note_on_c, 0, 69, 104
2, 1483676, Note_off_c, 0, 69, 64
2, 1483680, Note_on_c, 0, 71, 117
2, 1484876, Note_off_c, 0, 71, 64
2, 1485120, Note_on_c, 0, 71, 109
2, 1485356, Note_off_c, 0, 71, 64
2, 1485360, Note_on_c, 0, 69, 100
2, 1485596, Note_off_c, 0, 69, 64
2, 1485600, Note_on_c, 0, 71, 113
2, 1486076, Note_off_c, 0, 71, 64
2, 1486080, Note_on_c, 0, 76, 107
2, 1486556, Note_off_c, 0, 76, 64
2, 1486560, Note_on_c, 0, 73, 104
2, 1487036, Note_off_c, 0, 73, 64
2, 1487040, Note_on_c, 0, 81, 124
2, 1487996, Note_off_c, 0, 81, 64
2, 1488000, Note_on_c, 0, 79, 111
2, 1488236, Note_off_c, 0, 79, 64
2, 1488240, Note_on_c, 0, 78, 108
2, 1488476, Note_off_c, 0, 78, 64
2, 1488480, Note_on_c, 0, 81, 123
2, 1488600, Note_off_c, 0, 81, 64
2, 1488600, Note_on_c, 0, 79, 100
2, 1488720, Note_off_c, 0, 79, 64
2, 1488720, Note_on_c, 0, 81, 100
2, 1488840, Note_off_c, 0, 81, 64
2, 1488840, Note_on_c, 0, 79, 100
2, 1488960, Note_off_c, 0, 79, 64
2, 1488960, Note_on_c, 0, 81, 97
2, 1489080, Note_off_c, 0, 81, 64
2, 1489080, Note_on_c, 0, 79, 96
2, 1489200, Note_off_c, 0, 79, 64
2, 1489200, Note_on_c, 0, 81, 100
2, 1489320, Note_off_c, 0, 81, 64
2, 1489320, Note_on_c, 0, 79, 88
2, 1489440, Note_off_c, 0, 79, 64
2, 1489440, Note_on_c, 0, 81, 106
2, 1489560, Note_off_c, 0, 81, 64
2, 1489560, Note_on_c, 0, 79, 92
2, 1489680, Note_off_c, 0, 79, 64
2, 1489680, Note_on_c, 0, 81, 102
2, 1489800, Note_off_c, 0, 81, 64
2, 1489800, Note_on_c, 0, 79, 83
2, 1489920, Note_off_c, 0, 79, 64
2, 1489920, Note_on_c, 0, 81, 100
2, 1490040, Note_off_c, 0, 81, 64
2, 1490040, Note_on_c, 0, 79, 86
2, 1490160, Note_off_c, 0, 79, 64
2, 1490160, Note_on_c, 0, 81, 97
2, 1490280, Note_off_c, 0, 81, 64
2, 1490280, Note_on_c, 0, 79, 93
2, 1490400, Note_off_c, 0, 79, 64
2, 1490400, Note_on_c, 0, 81, 100
2, 1490520, Note_off_c, 0, 81, 64
2, 1490520, Note_on_c, 0, 79, 82
2, 1490640, Note_off_c, 0, 79, 64
2, 1490640, Note_on_c, 0, 81, 97
2, 1490760, Note_off_c, 0, 81, 64
2, 1490760, Note_on_c, 0, 79, 92
2, 1490880, Note_off_c, 0, 79, 64
2, 1490880, Note_on_c, 0, 81, 93
2, 1491000, Note_off_c, 0, 81, 64
2, 1491000, Note_on_c, 0, 79, 93
2, 1491120, Note_off_c, 0, 79, 64
2, 1491120, Note_on_c, 0, 81, 93
2, 1491240, Note_off_c, 0, 81, 64
2, 1491240, Note_on_c, 0, 79, 89
2, 1491360, Note_off_c, 0, 79, 64
2, 1491360, Note_on_c, 0, 81, 97
2, 1491480, Note_off_c, 0, 81, 64
2, 1491480, Note_on_c, 0, 79, 92
2, 1491600, Note_off_c, 0, 79, 64
2, 1491600, Note_on_c, 0, 81, 88
2, 1491720, Note_off_c, 0, 81, 64
2, 1491720, Note_on_c, 0, 79, 92
2, 1491840, Note_off_c, 0, 79, 64
2, 1491840, Note_on_c, 0, 81, 90
2, 1491960, Note_off_c, 0, 81, 64
2, 1491960, Note_on_c, 0, 79, 97
2, 1492080, Note_off_c, 0, 79, 64
2, 1492080, Note_on_c, 0, 78, 92
2, 1492200, Note_off_c, 0, 78, 64
2, 1492200, Note_on_c, 0, 79, 92
2, 1492320, Note_off_c, 0, 79, 64
2, 1492320, Note_on_c, 0, 81, 93
2, 1492560, Note_off_c, 0, 81, 64
2, 1492560, Note_on_c, 0, 79, 93
2, 1492800, Note_off_c, 0, 79, 64
2, 1492800, Note_on_c, 0, 78, 106
2, 1493036, Note_off_c, 0, 78, 64
2, 1493040, Note_on_c, 0, 76, 47
2, 1493276, Note_off_c, 0, 76, 64
2, 1493280, Note_on_c, 0, 78, 117
2, 1493756, Note_off_c, 0, 78, 64
2, 1493760, Note_on_c, 0, 81, 111
2, 1494236, Note_off_c, 0, 81, 64
2, 1494240, Note_on_c, 0, 74, 107
2, 1495196, Note_off_c, 0, 74, 64
2, 1495200, Note_on_c, 0, 79, 117
2, 1496636, Note_off_c, 0, 79, 64
2, 1496640, Note_on_c, 0, 78, 117
2, 1497116, Note_off_c, 0, 78, 64
2, 1497120, Note_on_c, 0, 76, 113
2, 1498076, Note_off_c, 0, 76, 64
2, 1498080, Note_on_c, 0, 74, 113
2, 1500000, Note_off_c, 0, 74, 64
2, 1500960, Note_on_c, 0, 81, 121
2, 1502396, Note_off_c, 0, 81, 64
2, 1502400, Note_on_c, 0, 79, 104
2, 1502636, Note_off_c, 0, 79, 64
2, 1502640, Note_on_c, 0, 78, 101
2, 1502876, Note_off_c, 0, 78, 64
2, 1502880, Note_on_c, 0, 79, 113
2, 1503356, Note_off_c, 0, 79, 64
2, 1503360, Note_on_c, 0, 83, 119
2, 1503836, Note_off_c, 0, 83, 64
2, 1503840, Note_on_c, 0, 76, 115
2, 1506236, Note_off_c, 0, 76, 64
2, 1506240, Note_on_c, 0, 75, 123
2, 1506476, Note_off_c, 0, 75, 64
2, 1506480, Note_on_c, 0, 73, 115
2, 1506716, Note_off_c, 0, 73, 64
2, 1506720, Note_on_c, 0, 75, 106
2, 1507196, Note_off_c, 0, 75, 64
2, 1507200, Note_on_c, 0, 78, 102
2, 1507676, Note_off_c, 0, 78, 64
2, 1507680, Note_on_c, 0, 83, 126
2, 1508156, Note_off_c, 0, 83, 64
2, 1508160, Note_on_c, 0, 71, 119
2, 1508636, Note_off_c, 0, 71, 64
2, 1508640, Note_on_c, 0, 83, 126
2, 1510076, Note_off_c, 0, 83, 64
2, 1510080, Note_on_c, 0, 81, 102
2, 1510316, Note_off_c, 0, 81, 64
2, 1510320, Note_on_c, 0, 79, 100
2, 1510556, Note_off_c, 0, 79, 64
2, 1510560, Note_on_c, 0, 81, 101
2, 1511036, Note_off_c, 0, 81, 64
2, 1511040, Note_on_c, 0, 84, 98
2, 1511516, Note_off_c, 0, 84, 64
2, 1511520, Note_on_c, 0, 78, 99
2, 1511996, Note_off_c, 0, 78, 64
2, 1512000, Note_on_c, 0, 79, 102
2, 1512476, Note_off_c, 0, 79, 64
2, 1512480, Note_on_c, 0, 81, 117
2, 1513916, Note_off_c, 0, 81, 64
2, 1513920, Note_on_c, 0, 79, 107
2, 1514156, Note_off_c, 0, 79, 64
2, 1514160, Note_on_c, 0, 78, 106
2, 1514396, Note_off_c, 0, 78, 64
2, 1514400, Note_on_c, 0, 79, 100
2, 1514876, Note_off_c, 0, 79, 64
2, 1514880, Note_on_c, 0, 83, 95
2, 1515356, Note_off_c, 0, 83, 64
2, 1515360, Note_on_c, 0, 76, 109
2, 1517276, Note_off_c, 0, 76, 64
2, 1517280, Note_on_c, 0, 74, 102
2, 1519196, Note_off_c, 0, 74, 64
2, 1519200, Note_on_c, 0, 72, 115
2, 1521116, Note_off_c, 0, 72, 64
2, 1522080, Note_on_c, 0, 74, 119
2, 1523516, Note_off_c, 0, 74, 64
2, 1523520, Note_on_c, 0, 72, 113
2, 1523756, Note_off_c, 0, 72, 64
2, 1523760, Note_on_c, 0, 71, 111
2, 1524000, Note_off_c, 0, 71, 64
2, 1524000, Note_on_c, 0, 72, 106
2, 1524476, Note_off_c, 0, 72, 64
2, 1524480, Note_on_c, 0, 76, 100
2, 1524956, Note_off_c, 0, 76, 64
2, 1524960, Note_on_c, 0, 69, 111
2, 1526156, Note_off_c, 0, 69, 64
2, 1526160, Note_on_c, 0, 76, 115
2, 1526396, Note_off_c, 0, 76, 64
2, 1526400, Note_on_c, 0, 74, 101
2, 1526636, Note_off_c, 0, 74, 64
2, 1526640, Note_on_c, 0, 76, 113
2, 1526876, Note_off_c, 0, 76, 64
2, 1526880, Note_on_c, 0, 69, 109
2, 1527356, Note_off_c, 0, 69, 64
2, 1527360, Note_on_c, 0, 74, 117
2, 1528316, Note_off_c, 0, 74, 64
2, 1528320, Note_on_c, 0, 72, 115
2, 1529276, Note_off_c, 0, 72, 64
2, 1529280, Note_on_c, 0, 71, 117
2, 1529516, Note_off_c, 0, 71, 64
2, 1529520, Note_on_c, 0, 69, 109
2, 1529756, Note_off_c, 0, 69, 64
2, 1529760, Note_on_c, 0, 71, 107
2, 1530716, Note_off_c, 0, 71, 64
2, 1532880, Note_on_c, 0, 67, 104
2, 1533120, Note_off_c, 0, 67, 64
2, 1533120, Note_on_c, 0, 83, 106
2, 1533236, Note_off_c, 0, 83, 64
2, 1533240, Note_on_c, 0, 81, 91
2, 1533356, Note_off_c, 0, 81, 64
2, 1533360, Note_on_c, 0, 79, 96
2, 1533476, Note_off_c, 0, 79, 64
2, 1533480, Note_on_c, 0, 78, 97
2, 1533596, Note_off_c, 0, 78, 64
2, 1533600, Note_on_c, 0, 76, 96
2, 1533716, Note_off_c, 0, 76, 64
2, 1533720, Note_on_c, 0, 74, 98
2, 1533836, Note_off_c, 0, 74, 64
2, 1533840, Note_on_c, 0, 73, 102
2, 1533956, Note_off_c, 0, 73, 64
2, 1533960, Note_on_c, 0, 71, 96
2, 1534076, Note_off_c, 0, 71, 64
2, 1534080, Note_on_c, 0, 69, 95
2, 1534196, Note_off_c, 0, 69, 64
2, 1534200, Note_on_c, 0, 67, 100
2, 1534316, Note_off_c, 0, 67, 64
2, 1534320, Note_on_c, 0, 66, 115
2, 1534560, Note_off_c, 0, 66, 64
2, 1534560, Note_on_c, 0, 81, 106
2, 1534676, Note_off_c, 0, 81, 64
2, 1534680, Note_on_c, 0, 79, 97
2, 1534796, Note_off_c, 0, 79, 64
2, 1534800, Note_on_c, 0, 78, 92
2, 1534916, Note_off_c, 0, 78, 64
2, 1534920, Note_on_c, 0, 76, 93
2, 1535036, Note_off_c, 0, 76, 64
2, 1535040, Note_on_c, 0, 74, 89
2, 1535156, Note_off_c, 0, 74, 64
2, 1535160, Note_on_c, 0, 73, 102
2, 1535276, Note_off_c, 0, 73, 64
2, 1535280, Note_on_c, 0, 71, 98
2, 1535396, Note_off_c, 0, 71, 64
2, 1535400, Note_on_c, 0, 69, 84
2, 1535516, Note_off_c, 0, 69, 64
2, 1535520, Note_on_c, 0, 67, 102
2, 1535636, Note_off_c, 0, 67, 64
2, 1535640, Note_on_c, 0, 66, 104
2, 1535756, Note_off_c, 0, 66, 64
2, 1535760, Note_on_c, 0, 64, 115
2, 1535876, Note_off_c, 0, 64, 64
2, 1536000, Note_on_c, 0, 79, 100
2, 1536116, Note_off_c, 0, 79, 64
2, 1536120, Note_on_c, 0, 78, 92
2, 1536236, Note_off_c, 0, 78, 64
2, 1536240, Note_on_c, 0, 76, 104
2, 1536356, Note_off_c, 0, 76, 64
2, 1536360, Note_on_c, 0, 74, 98
2, 1536476, Note_off_c, 0, 74, 64
2, 1536480, Note_on_c, 0, 73, 104
2, 1536596, Note_off_c, 0, 73, 64
2, 1536600, Note_on_c, 0, 71, 97
2, 1536716, Note_off_c, 0, 71, 64
2, 1536720, Note_on_c, 0, 69, 90
2, 1536836, Note_off_c, 0, 69, 64
2, 1536840, Note_on_c, 0, 67, 86
2, 1536956, Note_off_c, 0, 67, 64
2, 1536960, Note_on_c, 0, 66, 106
2, 1537076, Note_off_c, 0, 66, 64
2, 1537080, Note_on_c, 0, 64, 98
2, 1537196, Note_off_c, 0, 64, 64
2, 1537200, Note_on_c, 0, 62, 106
2, 1537440, Note_off_c, 0, 62, 64
2, 1537800, Note_on_c, 0, 64, 100
2, 1537856, Note_off_c, 0, 64, 64
2, 1537860, Note_on_c, 0, 66, 102
2, 1537916, Note_off_c, 0, 66, 64
2, 1537920, Note_on_c, 0, 67, 98
2, 1537976, Note_off_c, 0, 67, 64
2, 1537980, Note_on_c, 0, 69, 100
2, 1538036, Note_off_c, 0, 69, 64
2, 1538040, Note_on_c, 0, 71, 95
2, 1538096, Note_off_c, 0, 71, 64
2, 1538100, Note_on_c, 0, 73, 88
2, 1538156, Note_off_c, 0, 73, 64
2, 1538160, Note_on_c, 0, 74, 115
2, 1538640, Note_off_c, 0, 74, 64
2, 1538640, Note_on_c, 0, 59, 101
2, 1538756, Note_off_c, 0, 59, 64
2, 1538760, Note_on_c, 0, 60, 101
2, 1538876, Note_off_c, 0, 60, 64
2, 1538880, Note_on_c, 0, 62, 96
2, 1538996, Note_off_c, 0, 62, 64
2, 1539000, Note_on_c, 0, 64, 97
2, 1539116, Note_off_c, 0, 64, 64
2, 1539120, Note_on_c, 0, 66, 101
2, 1539236, Note_off_c, 0, 66, 64
2, 1539240, Note_on_c, 0, 67, 88
2, 1539360, Note_off_c, 0, 67, 64
2, 1539360, Note_on_c, 0, 69, 98
2, 1539476, Note_off_c, 0, 69, 64
2, 1539480, Note_on_c, 0, 71, 97
2, 1539596, Note_off_c, 0, 71, 64
2, 1539600, Note_on_c, 0, 72, 101
2, 1539716, Note_off_c, 0, 72, 64
2, 1539720, Note_on_c, 0, 74, 100
2, 1539836, Note_off_c, 0, 74, 64
2, 1539840, Note_on_c, 0, 76, 109
2, 1540080, Note_off_c, 0, 76, 64
2, 1540080, Note_on_c, 0, 60, 102
2, 1540196, Note_off_c, 0, 60, 64
2, 1540200, Note_on_c, 0, 62, 97
2, 1540316, Note_off_c, 0, 62, 64
2, 1540320, Note_on_c, 0, 64, 96
2, 1540436, Note_off_c, 0, 64, 64
2, 1540440, Note_on_c, 0, 66, 93
2, 1540556, Note_off_c, 0, 66, 64
2, 1540560, Note_on_c, 0, 67, 96
2, 1540676, Note_off_c, 0, 67, 64
2, 1540680, Note_on_c, 0, 69, 100
2, 1540796, Note_off_c, 0, 69, 64
2, 1540800, Note_on_c, 0, 71, 98
2, 1540916, Note_off_c, 0, 71, 64
2, 1540920, Note_on_c, 0, 72, 97
2, 1541036, Note_off_c, 0, 72, 64
2, 1541040, Note_on_c, 0, 74, 96
2, 1541156, Note_off_c, 0, 74, 64
2, 1541160, Note_on_c, 0, 76, 106
2, 1541276, Note_off_c, 0, 76, 64
2, 1541280, Note_on_c, 0, 78, 99
2, 1541520, Note_off_c, 0, 78, 64
2, 1541520, Note_on_c, 0, 62, 107
2, 1541636, Note_off_c, 0, 62, 64
2, 1541640, Note_on_c, 0, 64, 102
2, 1541756, Note_off_c, 0, 64, 64
2, 1541760, Note_on_c, 0, 66, 94
2, 1541876, Note_off_c, 0, 66, 64
2, 1541880, Note_on_c, 0, 67, 96
2, 1541996, Note_off_c, 0, 67, 64
2, 1542000, Note_on_c, 0, 69, 98
2, 1542116, Note_off_c, 0, 69, 64
2, 1542120, Note_on_c, 0, 71, 96
2, 1542236, Note_off_c, 0, 71, 64
2, 1542240, Note_on_c, 0, 72, 100
2, 1542356, Note_off_c, 0, 72, 64
2, 1542360, Note_on_c, 0, 74, 96
2, 1542476, Note_off_c, 0, 74, 64
2, 1542480, Note_on_c, 0, 76, 102
2, 1542596, Note_off_c, 0, 76, 64
2, 1542600, Note_on_c, 0, 78, 97
2, 1542716, Note_off_c, 0, 78, 64
2, 1542720, Note_on_c, 0, 79, 109
2, 1542960, Note_off_c, 0, 79, 64
2, 1543320, Note_on_c, 0, 78, 96
2, 1543376, Note_off_c, 0, 78, 64
2, 1543380, Note_on_c, 0, 76, 97
2, 1543436, Note_off_c, 0, 76, 64
2, 1543440, Note_on_c, 0, 74, 76
2, 1543496, Note_off_c, 0, 74, 64
2, 1543500, Note_on_c, 0, 72, 94
2, 1543560, Note_off_c, 0, 72, 64
2, 1543560, Note_on_c, 0, 71, 86
2, 1543616, Note_off_c, 0, 71, 64
2, 1543620, Note_on_c, 0, 69, 88
2, 1543676, Note_off_c, 0, 69, 64
2, 1543680, Note_on_c, 0, 67, 109
2, 1543800, Note_off_c, 0, 67, 64
2, 1544280, Note_on_c, 0, 83, 113
2, 1544400, Note_off_c, 0, 83, 64
2, 1544400, Note_on_c, 0, 83, 115
2, 1544520, Note_off_c, 0, 83, 64
2, 1544700, Note_on_c, 0, 79, 93
2, 1544756, Note_off_c, 0, 79, 64
2, 1544760, Note_on_c, 0, 78, 104
2, 1544816, Note_off_c, 0, 78, 64
2, 1544820, Note_on_c, 0, 76, 68
2, 1544876, Note_off_c, 0, 76, 64
2, 1544880, Note_on_c, 0, 74, 77
2, 1545000, Note_off_c, 0, 74, 64
2, 1545180, Note_on_c, 0, 72, 96
2, 1545240, Note_off_c, 0, 72, 64
2, 1545240, Note_on_c, 0, 71, 96
2, 1545300, Note_off_c, 0, 71, 64
2, 1545300, Note_on_c, 0, 69, 90
2, 1545360, Note_off_c, 0, 69, 64
2, 1545360, Note_on_c, 0, 67, 90
2, 1545480, Note_off_c, 0, 67, 64
2, 1545720, Note_on_c, 0, 81, 106
2, 1545840, Note_off_c, 0, 81, 64
2, 1545840, Note_on_c, 0, 81, 113
2, 1545960, Note_off_c, 0, 81, 64
2, 1546140, Note_on_c, 0, 74, 102
2, 1546196, Note_off_c, 0, 74, 64
2, 1546200, Note_on_c, 0, 73, 84
2, 1546256, Note_off_c, 0, 73, 64
2, 1546260, Note_on_c, 0, 71, 84
2, 1546316, Note_off_c, 0, 71, 64
2, 1546320, Note_on_c, 0, 69, 95
2, 1546440, Note_off_c, 0, 69, 64
2, 1546620, Note_on_c, 0, 67, 100
2, 1546676, Note_off_c, 0, 67, 64
2, 1546680, Note_on_c, 0, 66, 96
2, 1546736, Note_off_c, 0, 66, 64
2, 1546740, Note_on_c, 0, 64, 88
2, 1546796, Note_off_c, 0, 64, 64
2, 1546800, Note_on_c, 0, 62, 109
2, 1546916, Note_off_c, 0, 62, 64
2, 1547160, Note_on_c, 0, 79, 107
2, 1547280, Note_off_c, 0, 79, 64
2, 1547280, Note_on_c, 0, 79, 104
2, 1547400, Note_off_c, 0, 79, 64
2, 1547580, Note_on_c, 0, 72, 113
2, 1547636, Note_off_c, 0, 72, 64
2, 1547640, Note_on_c, 0, 71, 91
2, 1547696, Note_off_c, 0, 71, 64
2, 1547700, Note_on_c, 0, 69, 83
2, 1547756, Note_off_c, 0, 69, 64
2, 1547760, Note_on_c, 0, 67, 98
2, 1547876, Note_off_c, 0, 67, 64
2, 1548060, Note_on_c, 0, 69, 106
2, 1548116, Note_off_c, 0, 69, 64
2, 1548120, Note_on_c, 0, 67, 91
2, 1548176, Note_off_c, 0, 67, 64
2, 1548180, Note_on_c, 0, 66, 94
2, 1548236, Note_off_c, 0, 66, 64
2, 1548240, Note_on_c, 0, 64, 111
2, 1548356, Note_off_c, 0, 64, 64
2, 1548600, Note_on_c, 0, 79, 107
2, 1548720, Note_off_c, 0, 79, 64
2, 1548720, Note_on_c, 0, 79, 111
2, 1548840, Note_off_c, 0, 79, 64
2, 1549020, Note_on_c, 0, 66, 106
2, 1549076, Note_off_c, 0, 66, 64
2, 1549080, Note_on_c, 0, 64, 100
2, 1549136, Note_off_c, 0, 64, 64
2, 1549140, Note_on_c, 0, 62, 91
2, 1549196, Note_off_c, 0, 62, 64
2, 1549200, Note_on_c, 0, 61, 106
2, 1549316, Note_off_c, 0, 61, 64
2, 1549500, Note_on_c, 0, 62, 104
2, 1549556, Note_off_c, 0, 62, 64
2, 1549560, Note_on_c, 0, 61, 101
2, 1549616, Note_off_c, 0, 61, 64
2, 1549620, Note_on_c, 0, 59, 93
2, 1549676, Note_off_c, 0, 59, 64
2, 1549680, Note_on_c, 0, 57, 107
2, 1549736, Note_off_c, 0, 57, 64
2, 1550040, Note_on_c, 0, 69, 101
2, 1550156, Note_off_c, 0, 69, 64
2, 1550160, Note_on_c, 0, 81, 113
2, 1550276, Note_off_c, 0, 81, 64
2, 1550280, Note_on_c, 0, 79, 101
2, 1550396, Note_off_c, 0, 79, 64
2, 1550400, Note_on_c, 0, 78, 99
2, 1550516, Note_off_c, 0, 78, 64
2, 1550520, Note_on_c, 0, 76, 95
2, 1550636, Note_off_c, 0, 76, 64
2, 1550640, Note_on_c, 0, 74, 92
2, 1550756, Note_off_c, 0, 74, 64
2, 1550760, Note_on_c, 0, 72, 95
2, 1550876, Note_off_c, 0, 72, 64
2, 1550880, Note_on_c, 0, 71, 101
2, 1550996, Note_off_c, 0, 71, 64
2, 1551000, Note_on_c, 0, 69, 84
2, 1551116, Note_off_c, 0, 69, 64
2, 1551120, Note_on_c, 0, 67, 93
2, 1551236, Note_off_c, 0, 67, 64
2, 1551240, Note_on_c, 0, 66, 110
2, 1551356, Note_off_c, 0, 66, 64
2, 1551360, Note_on_c, 0, 71, 107
2, 1551476, Note_off_c, 0, 71, 64
2, 1551480, Note_on_c, 0, 67, 96
2, 1551596, Note_off_c, 0, 67, 64
2, 1551600, Note_on_c, 0, 66, 93
2, 1551716, Note_off_c, 0, 66, 64
2, 1551720, Note_on_c, 0, 64, 96
2, 1551836, Note_off_c, 0, 64, 64
2, 1551840, Note_on_c, 0, 62, 98
2, 1551956, Note_off_c, 0, 62, 64
2, 1551960, Note_on_c, 0, 60, 104
2, 1552076, Note_off_c, 0, 60, 64
2, 1552080, Note_on_c, 0, 59, 96
2, 1552196, Note_off_c, 0, 59, 64
2, 1552200, Note_on_c, 0, 57, 97
2, 1552316, Note_off_c, 0, 57, 64
2, 1552320, Note_on_c, 0, 55, 85
2, 1552436, Note_off_c, 0, 55, 64
2, 1552440, Note_on_c, 0, 59, 98
2, 1552556, Note_off_c, 0, 59, 64
2, 1552560, Note_on_c, 0, 64, 101
2, 1552676, Note_off_c, 0, 64, 64
2, 1552680, Note_on_c, 0, 62, 100
2, 1552796, Note_off_c, 0, 62, 64
2, 1552800, Note_on_c, 0, 61, 104
2, 1552916, Note_off_c, 0, 61, 64
2, 1552920, Note_on_c, 0, 59, 97
2, 1553036, Note_off_c, 0, 59, 64
2, 1553040, Note_on_c, 0, 57, 98
2, 1553156, Note_off_c, 0, 57, 64
2, 1553160, Note_on_c, 0, 59, 107
2, 1553276, Note_off_c, 0, 59, 64
2, 1553280, Note_on_c, 0, 61, 108
2, 1553396, Note_off_c, 0, 61, 64
2, 1553400, Note_on_c, 0, 62, 101
2, 1553516, Note_off_c, 0, 62, 64
2, 1553520, Note_on_c, 0, 64, 101
2, 1553636, Note_off_c, 0, 64, 64
2, 1553640, Note_on_c, 0, 66, 92
2, 1553756, Note_off_c, 0, 66, 64
2, 1553760, Note_on_c, 0, 67, 101
2, 1553876, Note_off_c, 0, 67, 64
2, 1553880, Note_on_c, 0, 69, 101
2, 1553996, Note_off_c, 0, 69, 64
2, 1554000, Note_on_c, 0, 71, 109
2, 1554116, Note_off_c, 0, 71, 64
2, 1554120, Note_on_c, 0, 73, 104
2, 1554236, Note_off_c, 0, 73, 64
2, 1554240, Note_on_c, 0, 74, 109
2, 1554356, Note_off_c, 0, 74, 64
2, 1554360, Note_on_c, 0, 73, 88
2, 1554416, Note_off_c, 0, 73, 64
2, 1554420, Note_on_c, 0, 71, 98
2, 1554476, Note_off_c, 0, 71, 64
2, 1554480, Note_on_c, 0, 69, 92
2, 1554536, Note_off_c, 0, 69, 64
2, 1554540, Note_on_c, 0, 67, 89
2, 1554596, Note_off_c, 0, 67, 64
2, 1554600, Note_on_c, 0, 66, 99
2, 1554656, Note_off_c, 0, 66, 64
2, 1554660, Note_on_c, 0, 64, 86
2, 1554716, Note_off_c, 0, 64, 64
2, 1554720, Note_on_c, 0, 62, 98
2, 1554960, Note_off_c, 0, 62, 64
2, 1555680, Note_on_c, 0, 81, 96
2, 1555736, Note_off_c, 0, 81, 64
2, 1555740, Note_on_c, 0, 79, 80
2, 1555796, Note_off_c, 0, 79, 64
2, 1555800, Note_on_c, 0, 81, 95
2, 1555916, Note_off_c, 0, 81, 64
2, 1556040, Note_on_c, 0, 79, 100
2, 1556156, Note_off_c, 0, 79, 64
2, 1556160, Note_on_c, 0, 79, 97
2, 1556276, Note_off_c, 0, 79, 64
2, 1556280, Note_on_c, 0, 78, 97
2, 1556516, Note_off_c, 0, 78, 64
2, 1556520, Note_on_c, 0, 76, 80
2, 1556636, Note_off_c, 0, 76, 64
2, 1556640, Note_on_c, 0, 76, 80
2, 1556756, Note_off_c, 0, 76, 64
2, 1556760, Note_on_c, 0, 74, 96
2, 1556996, Note_off_c, 0, 74, 64
2, 1557000, Note_on_c, 0, 72, 89
2, 1557120, Note_off_c, 0, 72, 64
2, 1557120, Note_on_c, 0, 71, 89
2, 1557180, Note_off_c, 0, 71, 64
2, 1557180, Note_on_c, 0, 69, 68
2, 1557240, Note_off_c, 0, 69, 64
2, 1557240, Note_on_c, 0, 71, 68
2, 1557360, Note_off_c, 0, 71, 64
2, 1557480, Note_on_c, 0, 69, 83
2, 1557600, Note_off_c, 0, 69, 64
2, 1557600, Note_on_c, 0, 69, 78
2, 1557720, Note_off_c, 0, 69, 64
2, 1557720, Note_on_c, 0, 67, 78
2, 1557956, Note_off_c, 0, 67, 64
2, 1557960, Note_on_c, 0, 66, 92
2, 1558080, Note_off_c, 0, 66, 64
2, 1558080, Note_on_c, 0, 66, 92
2, 1558200, Note_off_c, 0, 66, 64
2, 1558200, Note_on_c, 0, 64, 88
2, 1558436, Note_off_c, 0, 64, 64
2, 1558440, Note_on_c, 0, 62, 85
2, 1558560, Note_off_c, 0, 62, 64
2, 1558560, Note_on_c, 0, 60, 89
2, 1558796, Note_off_c, 0, 60, 64
2, 1558920, Note_on_c, 0, 59, 90
2, 1559040, Note_off_c, 0, 59, 64
2, 1559040, Note_on_c, 0, 59, 93
2, 1559160, Note_off_c, 0, 59, 64
2, 1559160, Note_on_c, 0, 57, 92
2, 1559400, Note_off_c, 0, 57, 64
2, 1559400, Note_on_c, 0, 55, 88
2, 1559520, Note_off_c, 0, 55, 64
2, 1559520, Note_on_c, 0, 55, 85
2, 1559640, Note_off_c, 0, 55, 64
2, 1559640, Note_on_c, 0, 54, 90
2, 1559880, Note_off_c, 0, 54, 64
2, 1559880, Note_on_c, 0, 52, 89
2, 1560000, Note_off_c, 0, 52, 64
2, 1560000, Note_on_c, 0, 52, 96
2, 1560120, Note_off_c, 0, 52, 64
2, 1560120, Note_on_c, 0, 51, 90
2, 1560356, Note_off_c, 0, 51, 64
2, 1560360, Note_on_c, 0, 54, 97
2, 1560476, Note_off_c, 0, 54, 64
2, 1560480, Note_on_c, 0, 57, 109
2, 1560720, Note_off_c, 0, 57, 64
2, 1560840, Note_on_c, 0, 60, 97
2, 1560956, Note_off_c, 0, 60, 64
2, 1560960, Note_on_c, 0, 59, 106
2, 1561020, Note_off_c, 0, 59, 64
2, 1561020, Note_on_c, 0, 57, 97
2, 1561080, Note_off_c, 0, 57, 64
2, 1561080, Note_on_c, 0, 59, 97
2, 1561320, Note_off_c, 0, 59, 64
2, 1561320, Note_on_c, 0, 57, 83
2, 1561436, Note_off_c, 0, 57, 64
2, 1561440, Note_on_c, 0, 55, 89
2, 1561680, Note_off_c, 0, 55, 64
2, 1562040, Note_on_c, 0, 75, 80
2, 1562156, Note_off_c, 0, 75, 64
2, 1562160, Note_on_c, 0, 76, 80
2, 1562276, Note_off_c, 0, 76, 64
2, 1562280, Note_on_c, 0, 78, 106
2, 1562396, Note_off_c, 0, 78, 64
2, 1562400, Note_on_c, 0, 79, 100
2, 1562516, Note_off_c, 0, 79, 64
2, 1562520, Note_on_c, 0, 80, 98
2, 1562636, Note_off_c, 0, 80, 64
2, 1562640, Note_on_c, 0, 81, 78
2, 1562756, Note_off_c, 0, 81, 64
2, 1562760, Note_on_c, 0, 83, 81
2, 1562876, Note_off_c, 0, 83, 64
2, 1562880, Note_on_c, 0, 84, 92
2, 1562996, Note_off_c, 0, 84, 64
2, 1563000, Note_on_c, 0, 81, 89
2, 1563116, Note_off_c, 0, 81, 64
2, 1563120, Note_on_c, 0, 79, 85
2, 1563240, Note_off_c, 0, 79, 64
2, 1563240, Note_on_c, 0, 78, 85
2, 1563356, Note_off_c, 0, 78, 64
2, 1563360, Note_on_c, 0, 76, 108
2, 1563480, Note_off_c, 0, 76, 64
2, 1563480, Note_on_c, 0, 74, 113
2, 1563600, Note_off_c, 0, 74, 64
2, 1563600, Note_on_c, 0, 72, 97
2, 1563720, Note_off_c, 0, 72, 64
2, 1563720, Note_on_c, 0, 71, 97
2, 1563840, Note_off_c, 0, 71, 64
2, 1563840, Note_on_c, 0, 69, 97
2, 1563960, Note_off_c, 0, 69, 64
2, 1563960, Note_on_c, 0, 67, 97
2, 1564080, Note_off_c, 0, 67, 64
2, 1564080, Note_on_c, 0, 66, 90
2, 1564200, Note_off_c, 0, 66, 64
2, 1564200, Note_on_c, 0, 64, 89
2, 1564320, Note_off_c, 0, 64, 64
2, 1564320, Note_on_c, 0, 63, 115
2, 1564440, Note_off_c, 0, 63, 64
2, 1564440, Note_on_c, 0, 72, 115
2, 1564560, Note_off_c, 0, 72, 64
2, 1564560, Note_on_c, 0, 71, 85
2, 1564800, Note_off_c, 0, 71, 64
2, 1564860, Note_on_c, 0, 71, 97
2, 1564920, Note_off_c, 0, 71, 64
2, 1564920, Note_on_c, 0, 73, 97
2, 1564980, Note_off_c, 0, 73, 64
2, 1564980, Note_on_c, 0, 75, 97
2, 1565040, Note_off_c, 0, 75, 64
2, 1565040, Note_on_c, 0, 76, 101
2, 1565100, Note_off_c, 0, 76, 64
2, 1565100, Note_on_c, 0, 78, 93
2, 1565160, Note_off_c, 0, 78, 64
2, 1565160, Note_on_c, 0, 79, 93
2, 1565400, Note_off_c, 0, 79, 64
2, 1565400, Note_on_c, 0, 78, 106
2, 1565520, Note_off_c, 0, 78, 64
2, 1565520, Note_on_c, 0, 78, 85
2, 1565580, Note_off_c, 0, 78, 64
2, 1565580, Note_on_c, 0, 76, 85
2, 1565640, Note_off_c, 0, 76, 64
2, 1565640, Note_on_c, 0, 75, 85
2, 1565760, Note_off_c, 0, 75, 64
2, 1565760, Note_on_c, 0, 76, 107
2, 1565816, Note_off_c, 0, 76, 64
2, 1565820, Note_on_c, 0, 72, 75
2, 1565876, Note_off_c, 0, 72, 64
2, 1565880, Note_on_c, 0, 71, 66
2, 1565936, Note_off_c, 0, 71, 64
2, 1565940, Note_on_c, 0, 69, 92
2, 1565996, Note_off_c, 0, 69, 64
2, 1566000, Note_on_c, 0, 71, 88
2, 1566056, Note_off_c, 0, 71, 64
2, 1566300, Note_on_c, 0, 66, 88
2, 1566356, Note_off_c, 0, 66, 64
2, 1566360, Note_on_c, 0, 64, 88
2, 1566416, Note_off_c, 0, 64, 64
2, 1566420, Note_on_c, 0, 63, 88
2, 1566476, Note_off_c, 0, 63, 64
2, 1566480, Note_on_c, 0, 64, 88
2, 1566536, Note_off_c, 0, 64, 64
2, 1566780, Note_on_c, 0, 57, 88
2, 1566836, Note_off_c, 0, 57, 64
2, 1566840, Note_on_c, 0, 55, 88
2, 1566896, Note_off_c, 0, 55, 64
2, 1566900, Note_on_c, 0, 54, 88
2, 1566956, Note_off_c, 0, 54, 64
2, 1566960, Note_on_c, 0, 55, 88
2, 1567016, Note_off_c, 0, 55, 64
2, 1567320, Note_on_c, 0, 64, 88
2, 1567440, Note_off_c, 0, 64, 64
2, 1567440, Note_on_c, 0, 66, 88
2, 1567560, Note_off_c, 0, 66, 64
2, 1567560, Note_on_c, 0, 67, 88
2, 1567680, Note_off_c, 0, 67, 64
2, 1567680, Note_on_c, 0, 69, 88
2, 1567800, Note_off_c, 0, 69, 64
2, 1567800, Note_on_c, 0, 71, 88
2, 1567920, Note_off_c, 0, 71, 64
2, 1567920, Note_on_c, 0, 72, 88
2, 1568040, Note_off_c, 0, 72, 64
2, 1568040, Note_on_c, 0, 74, 88
2, 1568160, Note_off_c, 0, 74, 64
2, 1568160, Note_on_c, 0, 76, 88
2, 1568400, Note_off_c, 0, 76, 64
2, 1568760, Note_on_c, 0, 74, 88
2, 1568880, Note_off_c, 0, 74, 64
2, 1568880, Note_on_c, 0, 72, 88
2, 1569000, Note_off_c, 0, 72, 64
2, 1569000, Note_on_c, 0, 71, 88
2, 1569120, Note_off_c, 0, 71, 64
2, 1569120, Note_on_c, 0, 69, 88
2, 1569240, Note_off_c, 0, 69, 64
2, 1569240, Note_on_c, 0, 67, 88
2, 1569360, Note_off_c, 0, 67, 64
2, 1569360, Note_on_c, 0, 66, 88
2, 1569480, Note_off_c, 0, 66, 64
2, 1569480, Note_on_c, 0, 64, 88
2, 1569600, Note_off_c, 0, 64, 64
2, 1569600, Note_on_c, 0, 62, 88
2, 1569840, Note_off_c, 0, 62, 64
2, 1570200, Note_on_c, 0, 62, 86
2, 1570316, Note_off_c, 0, 62, 64
2, 1570440, Note_on_c, 0, 59, 90
2, 1570556, Note_off_c, 0, 59, 64
2, 1570680, Note_on_c, 0, 62, 92
2, 1570796, Note_off_c, 0, 62, 64
2, 1570920, Note_on_c, 0, 59, 91
2, 1571036, Note_off_c, 0, 59, 64
2, 1571160, Note_on_c, 0, 59, 98
2, 1571276, Note_off_c, 0, 59, 64
2, 1571400, Note_on_c, 0, 55, 91
2, 1571516, Note_off_c, 0, 55, 64
2, 1571640, Note_on_c, 0, 55, 96
2, 1571756, Note_off_c, 0, 55, 64
2, 1571880, Note_on_c, 0, 52, 93
2, 1571996, Note_off_c, 0, 52, 64
2, 1572120, Note_on_c, 0, 55, 85
2, 1572236, Note_off_c, 0, 55, 64
2, 1572360, Note_on_c, 0, 52, 97
2, 1572476, Note_off_c, 0, 52, 64
2, 1572600, Note_on_c, 0, 52, 93
2, 1572716, Note_off_c, 0, 52, 64
2, 1572840, Note_on_c, 0, 48, 95
2, 1572956, Note_off_c, 0, 48, 64
2, 1573080, Note_on_c, 0, 48, 93
2, 1573196, Note_off_c, 0, 48, 64
2, 1573320, Note_on_c, 0, 45, 84
2, 1573436, Note_off_c, 0, 45, 64
2, 1573560, Note_on_c, 0, 48, 98
2, 1573676, Note_off_c, 0, 48, 64
2, 1573800, Note_on_c, 0, 52, 96
2, 1573916, Note_off_c, 0, 52, 64
2, 1574040, Note_on_c, 0, 55, 95
2, 1574156, Note_off_c, 0, 55, 64
2, 1574280, Note_on_c, 0, 59, 93
2, 1574396, Note_off_c, 0, 59, 64
2, 1574520, Note_on_c, 0, 62, 101
2, 1574636, Note_off_c, 0, 62, 64
2, 1574760, Note_on_c, 0, 59, 92
2, 1574876, Note_off_c, 0, 59, 64
2, 1575000, Note_on_c, 0, 62, 98
2, 1575116, Note_off_c, 0, 62, 64
2, 1575240, Note_on_c, 0, 66, 110
2, 1575356, Note_off_c, 0, 66, 64
2, 1575480, Note_on_c, 0, 69, 96
2, 1575596, Note_off_c, 0, 69, 64
2, 1575720, Note_on_c, 0, 72, 107
2, 1575836, Note_off_c, 0, 72, 64
2, 1575960, Note_on_c, 0, 73, 82
2, 1576076, Note_off_c, 0, 73, 64
2, 1576080, Note_on_c, 0, 74, 92
2, 1576196, Note_off_c, 0, 74, 64
2, 1576200, Note_on_c, 0, 76, 91
2, 1576316, Note_off_c, 0, 76, 64
2, 1576320, Note_on_c, 0, 78, 73
2, 1576436, Note_off_c, 0, 78, 64
2, 1576440, Note_on_c, 0, 79, 83
2, 1576556, Note_off_c, 0, 79, 64
2, 1576560, Note_on_c, 0, 81, 93
2, 1576676, Note_off_c, 0, 81, 64
2, 1576680, Note_on_c, 0, 83, 100
2, 1576796, Note_off_c, 0, 83, 64
2, 1576800, Note_on_c, 0, 84, 97
2, 1577036, Note_off_c, 0, 84, 64
2, 1577400, Note_on_c, 0, 83, 96
2, 1577516, Note_off_c, 0, 83, 64
2, 1577520, Note_on_c, 0, 81, 92
2, 1577636, Note_off_c, 0, 81, 64
2, 1577640, Note_on_c, 0, 79, 67
2, 1577756, Note_off_c, 0, 79, 64
2, 1577760, Note_on_c, 0, 78, 85
2, 1577876, Note_off_c, 0, 78, 64
2, 1577880, Note_on_c, 0, 76, 80
2, 1577996, Note_off_c, 0, 76, 64
2, 1578000, Note_on_c, 0, 74, 74
2, 1578116, Note_off_c, 0, 74, 64
2, 1578120, Note_on_c, 0, 72, 93
2, 1578236, Note_off_c, 0, 72, 64
2, 1578240, Note_on_c, 0, 71, 97
2, 1578476, Note_off_c, 0, 71, 64
2, 1580160, Note_on_c, 0, 67, 98
2, 1580636, Note_off_c, 0, 67, 64
2, 1580640, Note_on_c, 0, 66, 88
2, 1580876, Note_off_c, 0, 66, 64
2, 1580880, Note_on_c, 0, 67, 93
2, 1581356, Note_off_c, 0, 67, 64
2, 1581360, Note_on_c, 0, 69, 90
2, 1581596, Note_off_c, 0, 69, 64
2, 1581600, Note_on_c, 0, 71, 81
2, 1581836, Note_off_c, 0, 71, 64
2, 1581840, Note_on_c, 0, 74, 85
2, 1582076, Note_off_c, 0, 74, 64
2, 1582080, Note_on_c, 0, 73, 88
2, 1582316, Note_off_c, 0, 73, 64
2, 1582320, Note_on_c, 0, 74, 102
2, 1582796, Note_off_c, 0, 74, 64
2, 1582800, Note_on_c, 0, 69, 91
2, 1583036, Note_off_c, 0, 69, 64
2, 1583040, Note_on_c, 0, 74, 98
2, 1583516, Note_off_c, 0, 74, 64
2, 1583520, Note_on_c, 0, 76, 73
2, 1583636, Note_off_c, 0, 76, 64
2, 1583640, Note_on_c, 0, 76, 83
2, 1583756, Note_off_c, 0, 76, 64
2, 1583760, Note_on_c, 0, 78, 93
2, 1583876, Note_off_c, 0, 78, 64
2, 1583880, Note_on_c, 0, 79, 89
2, 1583996, Note_off_c, 0, 79, 64
2, 1584000, Note_on_c, 0, 78, 88
2, 1584116, Note_off_c, 0, 78, 64
2, 1584120, Note_on_c, 0, 76, 85
2, 1584236, Note_off_c, 0, 76, 64
2, 1584240, Note_on_c, 0, 74, 92
2, 1584476, Note_off_c, 0, 74, 64
2, 1584480, Note_on_c, 0, 79, 96
2, 1584716, Note_off_c, 0, 79, 64
2, 1584720, Note_on_c, 0, 83, 95
2, 1584956, Note_off_c, 0, 83, 64
2, 1584960, Note_on_c, 0, 81, 98
2, 1585196, Note_off_c, 0, 81, 64
2, 1585200, Note_on_c, 0, 83, 84
2, 1585436, Note_off_c, 0, 83, 64
2, 1585440, Note_on_c, 0, 79, 77
2, 1585676, Note_off_c, 0, 79, 64
2, 1585680, Note_on_c, 0, 78, 63
2, 1585920, Note_off_c, 0, 78, 64
2, 1585920, Note_on_c, 0, 79, 102
2, 1586876, Note_off_c, 0, 79, 64
2, 1586880, Note_on_c, 0, 78, 101
2, 1587116, Note_off_c, 0, 78, 64
2, 1587120, Note_on_c, 0, 76, 97
2, 1587356, Note_off_c, 0, 76, 64
2, 1587360, Note_on_c, 0, 78, 90
2, 1587596, Note_off_c, 0, 78, 64
2, 1587600, Note_on_c, 0, 79, 95
2, 1587836, Note_off_c, 0, 79, 64
2, 1587840, Note_on_c, 0, 81, 98
2, 1588076, Note_off_c, 0, 81, 64
2, 1588080, Note_on_c, 0, 74, 92
2, 1589036, Note_off_c, 0, 74, 64
2, 1589040, Note_on_c, 0, 79, 82
2, 1589276, Note_off_c, 0, 79, 64
2, 1589280, Note_on_c, 0, 78, 80
2, 1589516, Note_off_c, 0, 78, 64
2, 1589520, Note_on_c, 0, 79, 85
2, 1589756, Note_off_c, 0, 79, 64
2, 1589760, Note_on_c, 0, 83, 92
2, 1589996, Note_off_c, 0, 83, 64
2, 1590000, Note_on_c, 0, 81, 98
2, 1590236, Note_off_c, 0, 81, 64
2, 1590240, Note_on_c, 0, 83, 96
2, 1590476, Note_off_c, 0, 83, 64
2, 1590480, Note_on_c, 0, 86, 86
2, 1590596, Note_off_c, 0, 86, 64
2, 1590600, Note_on_c, 0, 84, 81
2, 1590716, Note_off_c, 0, 84, 64
2, 1590720, Note_on_c, 0, 83, 83
2, 1590836, Note_off_c, 0, 83, 64
2, 1590840, Note_on_c, 0, 81, 77
2, 1590956, Note_off_c, 0, 81, 64
2, 1590960, Note_on_c, 0, 83, 95
2, 1591196, Note_off_c, 0, 83, 64
2, 1591200, Note_on_c, 0, 84, 84
2, 1591316, Note_off_c, 0, 84, 64
2, 1591320, Note_on_c, 0, 83, 88
2, 1591436, Note_off_c, 0, 83, 64
2, 1591440, Note_on_c, 0, 81, 73
2, 1591556, Note_off_c, 0, 81, 64
2, 1591560, Note_on_c, 0, 79, 67
2, 1591676, Note_off_c, 0, 79, 64
2, 1591680, Note_on_c, 0, 81, 96
2, 1591916, Note_off_c, 0, 81, 64
2, 1591920, Note_on_c, 0, 83, 90
2, 1592036, Note_off_c, 0, 83, 64
2, 1592040, Note_on_c, 0, 81, 78
2, 1592156, Note_off_c, 0, 81, 64
2, 1592160, Note_on_c, 0, 79, 71
2, 1592276, Note_off_c, 0, 79, 64
2, 1592280, Note_on_c, 0, 78, 97
2, 1592396, Note_off_c, 0, 78, 64
2, 1592400, Note_on_c, 0, 79, 75
2, 1592636, Note_off_c, 0, 79, 64
2, 1592640, Note_on_c, 0, 81, 86
2, 1592756, Note_off_c, 0, 81, 64
2, 1592760, Note_on_c, 0, 79, 83
2, 1592876, Note_off_c, 0, 79, 64
2, 1592880, Note_on_c, 0, 78, 94
2, 1592996, Note_off_c, 0, 78, 64
2, 1593000, Note_on_c, 0, 76, 81
2, 1593120, Note_off_c, 0, 76, 64
2, 1593120, Note_on_c, 0, 74, 102
2, 1593360, Note_off_c, 0, 74, 64
2, 1593840, Note_on_c, 0, 79, 101
2, 1594080, Note_off_c, 0, 79, 64
2, 1594560, Note_on_c, 0, 78, 97
2, 1594800, Note_off_c, 0, 78, 64
2, 1595280, Note_on_c, 0, 79, 100
2, 1595520, Note_off_c, 0, 79, 64
2, 1596000, Note_on_c, 0, 72, 100
2, 1596240, Note_off_c, 0, 72, 64
2, 1596720, Note_on_c, 0, 71, 93
2, 1596960, Note_off_c, 0, 71, 64
2, 1602000, Note_on_c, 0, 83, 113
2, 1602236, Note_off_c, 0, 83, 64
2, 1602240, Note_on_c, 0, 81, 98
2, 1602476, Note_off_c, 0, 81, 64
2, 1602480, Note_on_c, 0, 79, 86
2, 1602716, Note_off_c, 0, 79, 64
2, 1602720, Note_on_c, 0, 81, 98
2, 1602960, Note_off_c, 0, 81, 64
2, 1602960, Note_on_c, 0, 78, 90
2, 1603196, Note_off_c, 0, 78, 64
2, 1603200, Note_on_c, 0, 76, 73
2, 1603320, Note_off_c, 0, 76, 64
2, 1603320, Note_on_c, 0, 74, 96
2, 1603440, Note_off_c, 0, 74, 64
2, 1603440, Note_on_c, 0, 73, 104
2, 1603676, Note_off_c, 0, 73, 64
2, 1603680, Note_on_c, 0, 74, 93
2, 1603920, Note_off_c, 0, 74, 64
2, 1603920, Note_on_c, 0, 74, 93
2, 1604160, Note_off_c, 0, 74, 64
2, 1604160, Note_on_c, 0, 73, 96
2, 1604880, Note_off_c, 0, 73, 64
2, 1604880, Note_on_c, 0, 74, 86
2, 1605116, Note_off_c, 0, 74, 64
2, 1605120, Note_on_c, 0, 76, 84
2, 1605356, Note_off_c, 0, 76, 64
2, 1605360, Note_on_c, 0, 69, 73
2, 1605596, Note_off_c, 0, 69, 64
2, 1605600, Note_on_c, 0, 71, 85
2, 1605836, Note_off_c, 0, 71, 64
2, 1605840, Note_on_c, 0, 73, 89
2, 1606076, Note_off_c, 0, 73, 64
2, 1606080, Note_on_c, 0, 74, 98
2, 1606556, Note_off_c, 0, 74, 64
2, 1606560, Note_on_c, 0, 78, 90
2, 1606796, Note_off_c, 0, 78, 64
2, 1606800, Note_on_c, 0, 79, 102
2, 1607276, Note_off_c, 0, 79, 64
2, 1607280, Note_on_c, 0, 81, 101
2, 1607516, Note_off_c, 0, 81, 64
2, 1607520, Note_on_c, 0, 71, 88
2, 1608476, Note_off_c, 0, 71, 64
2, 1608480, Note_on_c, 0, 69, 92
2, 1608716, Note_off_c, 0, 69, 64
2, 1608720, Note_on_c, 0, 67, 95
2, 1608956, Note_off_c, 0, 67, 64
2, 1608960, Note_on_c, 0, 69, 102
2, 1610640, Note_on_c, 0, 74, 98
2, 1610756, Note_off_c, 0, 69, 64
2, 1610876, Note_off_c, 0, 74, 64
2, 1610880, Note_on_c, 0, 73, 97
2, 1611116, Note_off_c, 0, 73, 64
2, 1611120, Note_on_c, 0, 74, 95
2, 1611236, Note_off_c, 0, 74, 64
2, 1611240, Note_on_c, 0, 76, 98
2, 1611356, Note_off_c, 0, 76, 64
2, 1611360, Note_on_c, 0, 78, 93
2, 1611596, Note_off_c, 0, 78, 64
2, 1611600, Note_on_c, 0, 76, 95
2, 1611836, Note_off_c, 0, 76, 64
2, 1611840, Note_on_c, 0, 78, 93
2, 1612076, Note_off_c, 0, 78, 64
2, 1612080, Note_on_c, 0, 81, 96
2, 1612196, Note_off_c, 0, 81, 64
2, 1612200, Note_on_c, 0, 79, 89
2, 1612316, Note_off_c, 0, 79, 64
2, 1612320, Note_on_c, 0, 78, 74
2, 1612436, Note_off_c, 0, 78, 64
2, 1612440, Note_on_c, 0, 76, 74
2, 1612556, Note_off_c, 0, 76, 64
2, 1612560, Note_on_c, 0, 78, 94
2, 1612796, Note_off_c, 0, 78, 64
2, 1612800, Note_on_c, 0, 79, 90
2, 1612916, Note_off_c, 0, 79, 64
2, 1612920, Note_on_c, 0, 78, 81
2, 1613036, Note_off_c, 0, 78, 64
2, 1613040, Note_on_c, 0, 76, 65
2, 1613156, Note_off_c, 0, 76, 64
2, 1613160, Note_on_c, 0, 74, 80
2, 1613276, Note_off_c, 0, 74, 64
2, 1613280, Note_on_c, 0, 76, 101
2, 1613516, Note_off_c, 0, 76, 64
2, 1613520, Note_on_c, 0, 78, 94
2, 1613636, Note_off_c, 0, 78, 64
2, 1613640, Note_on_c, 0, 76, 82
2, 1613756, Note_off_c, 0, 76, 64
2, 1613760, Note_on_c, 0, 74, 86
2, 1613876, Note_off_c, 0, 74, 64
2, 1613880, Note_on_c, 0, 73, 101
2, 1613996, Note_off_c, 0, 73, 64
2, 1614000, Note_on_c, 0, 74, 95
2, 1614720, Note_off_c, 0, 74, 64
2, 1614720, Note_on_c, 0, 71, 106
2, 1614840, Note_off_c, 0, 71, 64
2, 1614840, Note_on_c, 0, 69, 106
2, 1614960, Note_off_c, 0, 69, 64
2, 1614960, Note_on_c, 0, 67, 106
2, 1615080, Note_off_c, 0, 67, 64
2, 1615080, Note_on_c, 0, 69, 106
2, 1615200, Note_off_c, 0, 69, 64
2, 1615200, Note_on_c, 0, 71, 106
2, 1615320, Note_off_c, 0, 71, 64
2, 1615320, Note_on_c, 0, 69, 106
2, 1615440, Note_off_c, 0, 69, 64
2, 1615440, Note_on_c, 0, 71, 106
2, 1615500, Note_off_c, 0, 71, 64
2, 1615500, Note_on_c, 0, 69, 106
2, 1615560, Note_off_c, 0, 69, 64
2, 1615560, Note_on_c, 0, 71, 106
2, 1615620, Note_off_c, 0, 71, 64
2, 1615620, Note_on_c, 0, 69, 106
2, 1615680, Note_off_c, 0, 69, 64
2, 1615680, Note_on_c, 0, 71, 106
2, 1615740, Note_off_c, 0, 71, 64
2, 1615740, Note_on_c, 0, 69, 106
2, 1615800, Note_off_c, 0, 69, 64
2, 1615800, Note_on_c, 0, 71, 106
2, 1615860, Note_off_c, 0, 71, 64
2, 1615860, Note_on_c, 0, 69, 106
2, 1615920, Note_off_c, 0, 69, 64
2, 1615920, Note_on_c, 0, 71, 106
2, 1615980, Note_off_c, 0, 71, 64
2, 1615980, Note_on_c, 0, 69, 106
2, 1616040, Note_off_c, 0, 69, 64
2, 1616040, Note_on_c, 0, 71, 106
2, 1616100, Note_off_c, 0, 71, 64
2, 1616100, Note_on_c, 0, 69, 106
2, 1616160, Note_off_c, 0, 69, 64
2, 1616160, Note_on_c, 0, 71, 106
2, 1616220, Note_off_c, 0, 71, 64
2, 1616220, Note_on_c, 0, 69, 106
2, 1616280, Note_off_c, 0, 69, 64
2, 1616280, Note_on_c, 0, 71, 106
2, 1616340, Note_off_c, 0, 71, 64
2, 1616340, Note_on_c, 0, 69, 106
2, 1616400, Note_off_c, 0, 69, 64
2, 1616400, Note_on_c, 0, 71, 106
2, 1616460, Note_off_c, 0, 71, 64
2, 1616460, Note_on_c, 0, 69, 106
2, 1616520, Note_off_c, 0, 69, 64
2, 1616520, Note_on_c, 0, 71, 106
2, 1616580, Note_off_c, 0, 71, 64
2, 1616580, Note_on_c, 0, 69, 106
2, 1616640, Note_off_c, 0, 69, 64
2, 1616640, Note_on_c, 0, 71, 106
2, 1616700, Note_off_c, 0, 71, 64
2, 1616700, Note_on_c, 0, 69, 106
2, 1616760, Note_off_c, 0, 69, 64
2, 1616760, Note_on_c, 0, 71, 106
2, 1616820, Note_off_c, 0, 71, 64
2, 1616820, Note_on_c, 0, 69, 106
2, 1616880, Note_off_c, 0, 69, 64
2, 1616880, Note_on_c, 0, 71, 106
2, 1617000, Note_off_c, 0, 71, 64
2, 1617000, Note_on_c, 0, 69, 106
2, 1617120, Note_off_c, 0, 69, 64
2, 1617120, Note_on_c, 0, 67, 95
2, 1617356, Note_off_c, 0, 67, 64
2, 1617360, Note_on_c, 0, 66, 93
2, 1617596, Note_off_c, 0, 66, 64
2, 1617600, Note_on_c, 0, 67, 96
2, 1617836, Note_off_c, 0, 67, 64
2, 1617840, Note_on_c, 0, 71, 96
2, 1618076, Note_off_c, 0, 71, 64
2, 1618080, Note_on_c, 0, 69, 93
2, 1618316, Note_off_c, 0, 69, 64
2, 1618320, Note_on_c, 0, 71, 93
2, 1619036, Note_off_c, 0, 71, 64
2, 1619040, Note_on_c, 0, 83, 119
2, 1619160, Note_off_c, 0, 83, 64
2, 1619160, Note_on_c, 0, 81, 119
2, 1619280, Note_off_c, 0, 81, 64
2, 1619280, Note_on_c, 0, 79, 119
2, 1619400, Note_off_c, 0, 79, 64
2, 1619400, Note_on_c, 0, 81, 119
2, 1619520, Note_off_c, 0, 81, 64
2, 1619520, Note_on_c, 0, 83, 119
2, 1619580, Note_off_c, 0, 83, 64
2, 1619580, Note_on_c, 0, 81, 119
2, 1619640, Note_off_c, 0, 81, 64
2, 1619640, Note_on_c, 0, 83, 119
2, 1619700, Note_off_c, 0, 83, 64
2, 1619700, Note_on_c, 0, 81, 119
2, 1619760, Note_off_c, 0, 81, 64
2, 1619760, Note_on_c, 0, 83, 119
2, 1619820, Note_off_c, 0, 83, 64
2, 1619820, Note_on_c, 0, 81, 119
2, 1619880, Note_off_c, 0, 81, 64
2, 1619880, Note_on_c, 0, 83, 119
2, 1619940, Note_off_c, 0, 83, 64
2, 1619940, Note_on_c, 0, 81, 119
2, 1620000, Note_off_c, 0, 81, 64
2, 1620000, Note_on_c, 0, 83, 119
2, 1620060, Note_off_c, 0, 83, 64
2, 1620060, Note_on_c, 0, 81, 119
2, 1620120, Note_off_c, 0, 81, 64
2, 1620120, Note_on_c, 0, 83, 119
2, 1620180, Note_off_c, 0, 83, 64
2, 1620180, Note_on_c, 0, 81, 119
2, 1620240, Note_off_c, 0, 81, 64
2, 1620240, Note_on_c, 0, 83, 119
2, 1620300, Note_off_c, 0, 83, 64
2, 1620300, Note_on_c, 0, 81, 119
2, 1620360, Note_off_c, 0, 81, 64
2, 1620360, Note_on_c, 0, 83, 119
2, 1620420, Note_off_c, 0, 83, 64
2, 1620420, Note_on_c, 0, 81, 119
2, 1620480, Note_off_c, 0, 81, 64
2, 1620480, Note_on_c, 0, 83, 119
2, 1620540, Note_off_c, 0, 83, 64
2, 1620540, Note_on_c, 0, 81, 119
2, 1620600, Note_off_c, 0, 81, 64
2, 1620600, Note_on_c, 0, 83, 119
2, 1620660, Note_off_c, 0, 83, 64
2, 1620660, Note_on_c, 0, 81, 119
2, 1620720, Note_off_c, 0, 81, 64
2, 1620720, Note_on_c, 0, 83, 119
2, 1620780, Note_off_c, 0, 83, 64
2, 1620780, Note_on_c, 0, 81, 119
2, 1620840, Note_off_c, 0, 81, 64
2, 1620840, Note_on_c, 0, 83, 119
2, 1620900, Note_off_c, 0, 83, 64
2, 1620900, Note_on_c, 0, 81, 119
2, 1620960, Note_off_c, 0, 81, 64
2, 1620960, Note_on_c, 0, 83, 119
2, 1621020, Note_off_c, 0, 83, 64
2, 1621020, Note_on_c, 0, 81, 119
2, 1621080, Note_off_c, 0, 81, 64
2, 1621080, Note_on_c, 0, 83, 119
2, 1621140, Note_off_c, 0, 83, 64
2, 1621140, Note_on_c, 0, 81, 119
2, 1621200, Note_off_c, 0, 81, 64
2, 1621200, Note_on_c, 0, 83, 119
2, 1621320, Note_off_c, 0, 83, 64
2, 1621320, Note_on_c, 0, 81, 119
2, 1621440, Note_off_c, 0, 81, 64
2, 1621440, Note_on_c, 0, 79, 102
2, 1621676, Note_off_c, 0, 79, 64
2, 1621680, Note_on_c, 0, 78, 101
2, 1621916, Note_off_c, 0, 78, 64
2, 1621920, Note_on_c, 0, 79, 95
2, 1622156, Note_off_c, 0, 79, 64
2, 1622160, Note_on_c, 0, 83, 101
2, 1622396, Note_off_c, 0, 83, 64
2, 1622400, Note_on_c, 0, 81, 102
2, 1622636, Note_off_c, 0, 81, 64
2, 1622640, Note_on_c, 0, 83, 102
2, 1623116, Note_off_c, 0, 83, 64
2, 1623120, Note_on_c, 0, 75, 102
2, 1623356, Note_off_c, 0, 75, 64
2, 1623360, Note_on_c, 0, 76, 96
2, 1623596, Note_off_c, 0, 76, 64
2, 1623600, Note_on_c, 0, 79, 97
2, 1623716, Note_off_c, 0, 79, 64
2, 1623720, Note_on_c, 0, 78, 88
2, 1623836, Note_off_c, 0, 78, 64
2, 1623840, Note_on_c, 0, 76, 83
2, 1623956, Note_off_c, 0, 76, 64
2, 1623960, Note_on_c, 0, 74, 82
2, 1624080, Note_off_c, 0, 74, 64
2, 1624080, Note_on_c, 0, 72, 106
2, 1624316, Note_off_c, 0, 72, 64
2, 1624320, Note_on_c, 0, 76, 91
2, 1624436, Note_off_c, 0, 76, 64
2, 1624440, Note_on_c, 0, 74, 90
2, 1624556, Note_off_c, 0, 74, 64
2, 1624560, Note_on_c, 0, 72, 97
2, 1624676, Note_off_c, 0, 72, 64
2, 1624680, Note_on_c, 0, 71, 85
2, 1624796, Note_off_c, 0, 71, 64
2, 1624800, Note_on_c, 0, 69, 89
2, 1625036, Note_off_c, 0, 69, 64
2, 1625040, Note_on_c, 0, 72, 104
2, 1625156, Note_off_c, 0, 72, 64
2, 1625160, Note_on_c, 0, 71, 90
2, 1625276, Note_off_c, 0, 71, 64
2, 1625280, Note_on_c, 0, 69, 75
2, 1625396, Note_off_c, 0, 69, 64
2, 1625400, Note_on_c, 0, 67, 80
2, 1625516, Note_off_c, 0, 67, 64
2, 1625520, Note_on_c, 0, 66, 93
2, 1625996, Note_off_c, 0, 66, 64
2, 1626000, Note_on_c, 0, 76, 106
2, 1626236, Note_off_c, 0, 76, 64
2, 1626240, Note_on_c, 0, 75, 77
2, 1626476, Note_off_c, 0, 75, 64
2, 1626480, Note_on_c, 0, 78, 82
2, 1626540, Note_off_c, 0, 78, 64
2, 1626540, Note_on_c, 0, 76, 86
2, 1626600, Note_off_c, 0, 76, 64
2, 1626600, Note_on_c, 0, 75, 58
2, 1626660, Note_off_c, 0, 75, 64
2, 1626660, Note_on_c, 0, 76, 84
2, 1626720, Note_off_c, 0, 76, 64
2, 1626720, Note_on_c, 0, 78, 97
2, 1626956, Note_off_c, 0, 78, 64
2, 1626960, Note_on_c, 0, 71, 117
2, 1627916, Note_off_c, 0, 71, 64
2, 1627920, Note_on_c, 0, 75, 110
2, 1628156, Note_off_c, 0, 75, 64
2, 1628160, Note_on_c, 0, 76, 100
2, 1628520, Note_off_c, 0, 76, 64
2, 1628520, Note_on_c, 0, 74, 97
2, 1628636, Note_off_c, 0, 74, 64
2, 1628640, Note_on_c, 0, 72, 92
2, 1628756, Note_off_c, 0, 72, 64
2, 1628760, Note_on_c, 0, 71, 93
2, 1628880, Note_off_c, 0, 71, 64
2, 1628880, Note_on_c, 0, 72, 106
2, 1629240, Note_off_c, 0, 72, 64
2, 1629240, Note_on_c, 0, 71, 88
2, 1629356, Note_off_c, 0, 71, 64
2, 1629360, Note_on_c, 0, 69, 86
2, 1629476, Note_off_c, 0, 69, 64
2, 1629480, Note_on_c, 0, 67, 102
2, 1629600, Note_off_c, 0, 67, 64
2, 1629600, Note_on_c, 0, 69, 97
2, 1630080, Note_off_c, 0, 69, 64
2, 1630080, Note_on_c, 0, 66, 101
2, 1630320, Note_off_c, 0, 66, 64
2, 1630320, Note_on_c, 0, 67, 101
2, 1630560, Note_off_c, 0, 67, 64
2, 1630560, Note_on_c, 0, 71, 95
2, 1630680, Note_off_c, 0, 71, 64
2, 1630680, Note_on_c, 0, 69, 95
2, 1630800, Note_off_c, 0, 69, 64
2, 1630800, Note_on_c, 0, 71, 95
2, 1631520, Note_off_c, 0, 71, 64
2, 1631520, Note_on_c, 0, 72, 117
2, 1631756, Note_off_c, 0, 72, 64
2, 1631760, Note_on_c, 0, 74, 104
2, 1631996, Note_off_c, 0, 74, 64
2, 1632000, Note_on_c, 0, 76, 91
2, 1632236, Note_off_c, 0, 76, 64
2, 1632240, Note_on_c, 0, 68, 99
2, 1632476, Note_off_c, 0, 68, 64
2, 1632480, Note_on_c, 0, 71, 104
2, 1632716, Note_off_c, 0, 71, 64
2, 1632720, Note_on_c, 0, 69, 104
2, 1633676, Note_off_c, 0, 69, 64
2, 1633680, Note_on_c, 0, 71, 101
2, 1633916, Note_off_c, 0, 71, 64
2, 1633920, Note_on_c, 0, 72, 100
2, 1634156, Note_off_c, 0, 72, 64
2, 1634160, Note_on_c, 0, 74, 97
2, 1634396, Note_off_c, 0, 74, 64
2, 1634400, Note_on_c, 0, 66, 104
2, 1634636, Note_off_c, 0, 66, 64
2, 1634640, Note_on_c, 0, 69, 97
2, 1634876, Note_off_c, 0, 69, 64
2, 1634880, Note_on_c, 0, 62, 101
2, 1635360, Note_off_c, 0, 62, 64
2, 1635360, Note_on_c, 0, 66, 93
2, 1635600, Note_off_c, 0, 66, 64
2, 1635600, Note_on_c, 0, 74, 97
2, 1636796, Note_off_c, 0, 74, 64
2, 1636800, Note_on_c, 0, 63, 110
2, 1637036, Note_off_c, 0, 63, 64
2, 1637040, Note_on_c, 0, 64, 93
2, 1637276, Note_off_c, 0, 64, 64
2, 1637280, Note_on_c, 0, 66, 94
2, 1637516, Note_off_c, 0, 66, 64
2, 1637520, Note_on_c, 0, 67, 93
2, 1637756, Note_off_c, 0, 67, 64
2, 1637760, Note_on_c, 0, 66, 112
2, 1637996, Note_off_c, 0, 66, 64
2, 1638000, Note_on_c, 0, 67, 95
2, 1638236, Note_off_c, 0, 67, 64
2, 1638240, Note_on_c, 0, 69, 90
2, 1638476, Note_off_c, 0, 69, 64
2, 1638480, Note_on_c, 0, 62, 104
2, 1639200, Note_off_c, 0, 62, 64
2, 1639200, Note_on_c, 0, 62, 104
2, 1639920, Note_off_c, 0, 62, 64
2, 1639920, Note_on_c, 0, 62, 109
2, 1640876, Note_off_c, 0, 62, 64
2, 1640880, Note_on_c, 0, 67, 101
2, 1641116, Note_off_c, 0, 67, 64
2, 1641120, Note_on_c, 0, 66, 101
2, 1641356, Note_off_c, 0, 66, 64
2, 1641360, Note_on_c, 0, 67, 96
2, 1641596, Note_off_c, 0, 67, 64
2, 1641600, Note_on_c, 0, 69, 93
2, 1641836, Note_off_c, 0, 69, 64
2, 1641840, Note_on_c, 0, 71, 102
2, 1642076, Note_off_c, 0, 71, 64
2, 1642080, Note_on_c, 0, 72, 101
2, 1642316, Note_off_c, 0, 72, 64
2, 1642320, Note_on_c, 0, 74, 91
2, 1642436, Note_off_c, 0, 74, 64
2, 1642440, Note_on_c, 0, 72, 93
2, 1642556, Note_off_c, 0, 72, 64
2, 1642560, Note_on_c, 0, 71, 97
2, 1642676, Note_off_c, 0, 71, 64
2, 1642680, Note_on_c, 0, 69, 83
2, 1642796, Note_off_c, 0, 69, 64
2, 1642800, Note_on_c, 0, 71, 93
2, 1643036, Note_off_c, 0, 71, 64
2, 1643040, Note_on_c, 0, 72, 97
2, 1643156, Note_off_c, 0, 72, 64
2, 1643160, Note_on_c, 0, 71, 98
2, 1643276, Note_off_c, 0, 71, 64
2, 1643280, Note_on_c, 0, 69, 82
2, 1643396, Note_off_c, 0, 69, 64
2, 1643400, Note_on_c, 0, 67, 89
2, 1643516, Note_off_c, 0, 67, 64
2, 1643520, Note_on_c, 0, 69, 97
2, 1643756, Note_off_c, 0, 69, 64
2, 1643760, Note_on_c, 0, 71, 92
2, 1643876, Note_off_c, 0, 71, 64
2, 1643880, Note_on_c, 0, 69, 83
2, 1643996, Note_off_c, 0, 69, 64
2, 1644000, Note_on_c, 0, 67, 82
2, 1644116, Note_off_c, 0, 67, 64
2, 1644120, Note_on_c, 0, 66, 51
2, 1644236, Note_off_c, 0, 66, 64
2, 1644240, Note_on_c, 0, 67, 98
2, 1644476, Note_off_c, 0, 67, 64
2, 1644480, Note_on_c, 0, 71, 96
2, 1644596, Note_off_c, 0, 71, 64
2, 1644600, Note_on_c, 0, 69, 80
2, 1644716, Note_off_c, 0, 69, 64
2, 1644720, Note_on_c, 0, 67, 89
2, 1644836, Note_off_c, 0, 67, 64
2, 1644840, Note_on_c, 0, 66, 96
2, 1644956, Note_off_c, 0, 66, 64
2, 1644960, Note_on_c, 0, 67, 101
2, 1645200, Note_off_c, 0, 67, 64
2, 1645680, Note_on_c, 0, 62, 86
2, 1645920, Note_off_c, 0, 62, 64
2, 1646400, Note_on_c, 0, 66, 93
2, 1646640, Note_off_c, 0, 66, 64
2, 1647120, Note_on_c, 0, 67, 102
2, 1647360, Note_off_c, 0, 67, 64
2, 1647840, Note_on_c, 0, 60, 97
2, 1648080, Note_off_c, 0, 60, 64
2, 1648560, Note_on_c, 0, 59, 100
2, 1649280, Note_off_c, 0, 59, 64
2, 1651560, Note_on_c, 0, 74, 91
2, 1651676, Note_off_c, 0, 74, 64
2, 1651680, Note_on_c, 0, 74, 68
2, 1651736, Note_off_c, 0, 74, 64
2, 1651740, Note_on_c, 0, 73, 68
2, 1651796, Note_off_c, 0, 73, 64
2, 1651800, Note_on_c, 0, 74, 86
2, 1651916, Note_off_c, 0, 74, 64
2, 1651920, Note_on_c, 0, 74, 91
2, 1652036, Note_off_c, 0, 74, 64
2, 1652040, Note_on_c, 0, 82, 92
2, 1652216, Note_off_c, 0, 82, 64
2, 1652220, Note_on_c, 0, 81, 96
2, 1652276, Note_off_c, 0, 81, 64
2, 1652280, Note_on_c, 0, 79, 71
2, 1652336, Note_off_c, 0, 79, 64
2, 1652340, Note_on_c, 0, 77, 71
2, 1652396, Note_off_c, 0, 77, 64
2, 1652400, Note_on_c, 0, 75, 97
2, 1652516, Note_off_c, 0, 75, 64
2, 1652520, Note_on_c, 0, 74, 91
2, 1652756, Note_off_c, 0, 74, 64
2, 1652760, Note_on_c, 0, 73, 115
2, 1652996, Note_off_c, 0, 73, 64
2, 1653000, Note_on_c, 0, 72, 95
2, 1653116, Note_off_c, 0, 72, 64
2, 1653120, Note_on_c, 0, 72, 95
2, 1653176, Note_off_c, 0, 72, 64
2, 1653180, Note_on_c, 0, 71, 95
2, 1653236, Note_off_c, 0, 71, 64
2, 1653240, Note_on_c, 0, 72, 95
2, 1653356, Note_off_c, 0, 72, 64
2, 1653360, Note_on_c, 0, 72, 95
2, 1653476, Note_off_c, 0, 72, 64
2, 1653480, Note_on_c, 0, 80, 102
2, 1653656, Note_off_c, 0, 80, 64
2, 1653660, Note_on_c, 0, 79, 89
2, 1653716, Note_off_c, 0, 79, 64
2, 1653720, Note_on_c, 0, 77, 101
2, 1653776, Note_off_c, 0, 77, 64
2, 1653780, Note_on_c, 0, 75, 92
2, 1653836, Note_off_c, 0, 75, 64
2, 1653840, Note_on_c, 0, 73, 66
2, 1653956, Note_off_c, 0, 73, 64
2, 1653960, Note_on_c, 0, 72, 66
2, 1654196, Note_off_c, 0, 72, 64
2, 1654200, Note_on_c, 0, 71, 66
2, 1654440, Note_off_c, 0, 71, 64
2, 1654440, Note_on_c, 0, 70, 66
2, 1654556, Note_off_c, 0, 70, 64
2, 1654560, Note_on_c, 0, 70, 66
2, 1654620, Note_off_c, 0, 70, 64
2, 1654620, Note_on_c, 0, 69, 66
2, 1654680, Note_off_c, 0, 69, 64
2, 1654680, Note_on_c, 0, 70, 66
2, 1654796, Note_off_c, 0, 70, 64
2, 1654800, Note_on_c, 0, 78, 66
2, 1654916, Note_off_c, 0, 78, 64
2, 1654920, Note_on_c, 0, 79, 66
2, 1655160, Note_off_c, 0, 79, 64
2, 1655160, Note_on_c, 0, 73, 66
2, 1655400, Note_off_c, 0, 73, 64
2, 1655400, Note_on_c, 0, 74, 66
2, 1655640, Note_off_c, 0, 74, 64
2, 1655640, Note_on_c, 0, 67, 66
2, 1655760, Note_off_c, 0, 67, 64
2, 1655760, Note_on_c, 0, 67, 66
2, 1655880, Note_off_c, 0, 67, 64
2, 1655880, Note_on_c, 0, 69, 66
2, 1655940, Note_off_c, 0, 69, 64
2, 1655940, Note_on_c, 0, 70, 66
2, 1656000, Note_off_c, 0, 70, 64
2, 1656000, Note_on_c, 0, 69, 66
2, 1656240, Note_off_c, 0, 69, 64
2, 1657320, Note_on_c, 0, 62, 98
2, 1657420, Note_off_c, 0, 62, 64
2, 1657428, Note_on_c, 0, 63, 90
2, 1657444, Note_off_c, 0, 63, 64
2, 1657444, Note_on_c, 0, 62, 88
2, 1657496, Note_on_c, 0, 61, 102
2, 1657504, Note_off_c, 0, 62, 64
2, 1657544, Note_off_c, 0, 61, 64
2, 1657552, Note_on_c, 0, 62, 111
2, 1657652, Note_off_c, 0, 62, 64
2, 1657672, Note_on_c, 0, 62, 82
2, 1657788, Note_off_c, 0, 62, 64
2, 1657788, Note_on_c, 0, 74, 90
2, 1657972, Note_off_c, 0, 74, 64
2, 1657980, Note_on_c, 0, 72, 78
2, 1658040, Note_on_c, 0, 70, 71
2, 1658044, Note_off_c, 0, 72, 64
2, 1658100, Note_on_c, 0, 69, 91
2, 1658104, Note_off_c, 0, 70, 64
2, 1658160, Note_on_c, 0, 67, 85
2, 1658164, Note_off_c, 0, 69, 64
2, 1658220, Note_off_c, 0, 67, 64
2, 1658220, Note_on_c, 0, 65, 76
2, 1658280, Note_on_c, 0, 68, 106
2, 1658284, Note_off_c, 0, 65, 64
2, 1658452, Note_on_c, 0, 62, 95
2, 1658456, Note_off_c, 0, 68, 64
2, 1658512, Note_off_c, 0, 62, 64
2, 1658512, Note_on_c, 0, 65, 100
2, 1658756, Note_off_c, 0, 65, 64
2, 1658756, Note_on_c, 0, 63, 108
2, 1658852, Note_off_c, 0, 63, 64
2, 1658860, Note_on_c, 0, 65, 82
2, 1658876, Note_on_c, 0, 63, 57
2, 1658916, Note_off_c, 0, 65, 64
2, 1658936, Note_on_c, 0, 62, 83
2, 1658944, Note_off_c, 0, 63, 64
2, 1658992, Note_on_c, 0, 63, 102
2, 1659000, Note_off_c, 0, 62, 64
2, 1659092, Note_off_c, 0, 63, 64
2, 1659108, Note_on_c, 0, 63, 106
2, 1659224, Note_off_c, 0, 63, 64
2, 1659240, Note_on_c, 0, 75, 99
2, 1659408, Note_on_c, 0, 74, 95
2, 1659420, Note_off_c, 0, 75, 64
2, 1659464, Note_on_c, 0, 72, 104
2, 1659476, Note_off_c, 0, 74, 64
2, 1659524, Note_on_c, 0, 70, 102
2, 1659532, Note_off_c, 0, 72, 64
2, 1659584, Note_off_c, 0, 70, 64
2, 1659584, Note_on_c, 0, 69, 84
2, 1659644, Note_on_c, 0, 67, 83
2, 1659652, Note_off_c, 0, 69, 64
2, 1659704, Note_off_c, 0, 67, 64
2, 1659704, Note_on_c, 0, 70, 110
2, 1659896, Note_off_c, 0, 70, 64
2, 1659896, Note_on_c, 0, 64, 97
2, 1659952, Note_off_c, 0, 64, 64
2, 1659956, Note_on_c, 0, 67, 109
2, 1660204, Note_on_c, 0, 66, 108
2, 1660212, Note_off_c, 0, 67, 64
2, 1660288, Note_off_c, 0, 66, 64
2, 1660296, Note_on_c, 0, 67, 91
2, 1660308, Note_on_c, 0, 66, 96
2, 1660316, Note_off_c, 0, 67, 64
2, 1660376, Note_on_c, 0, 64, 101
2, 1660384, Note_off_c, 0, 66, 64
2, 1660436, Note_off_c, 0, 64, 64
2, 1660440, Note_on_c, 0, 66, 104
2, 1660560, Note_off_c, 0, 66, 64
2, 1660560, Note_on_c, 0, 71, 107
2, 1660636, Note_off_c, 0, 71, 64
2, 1660640, Note_on_c, 0, 72, 111
2, 1660716, Note_off_c, 0, 72, 64
2, 1660720, Note_on_c, 0, 75, 110
2, 1660796, Note_off_c, 0, 75, 64
2, 1660800, Note_on_c, 0, 73, 108
2, 1660880, Note_off_c, 0, 73, 64
2, 1660884, Note_on_c, 0, 74, 100
2, 1660956, Note_off_c, 0, 74, 64
2, 1660956, Note_on_c, 0, 66, 97
2, 1661032, Note_on_c, 0, 70, 108
2, 1661036, Note_off_c, 0, 66, 64
2, 1661108, Note_off_c, 0, 70, 64
2, 1661112, Note_on_c, 0, 69, 88
2, 1661184, Note_off_c, 0, 69, 64
2, 1661192, Note_on_c, 0, 62, 78
2, 1661276, Note_on_c, 0, 63, 119
2, 1661280, Note_off_c, 0, 62, 64
2, 1661356, Note_off_c, 0, 63, 64
2, 1661360, Note_on_c, 0, 59, 91
2, 1661436, Note_on_c, 0, 60, 101
2, 1661440, Note_off_c, 0, 59, 64
2, 1661636, Note_on_c, 0, 58, 108
2, 1661648, Note_off_c, 0, 60, 64
2, 1661696, Note_on_c, 0, 57, 102
2, 1661704, Note_off_c, 0, 58, 64
2, 1661756, Note_on_c, 0, 58, 106
2, 1661760, Note_off_c, 0, 57, 64
2, 1662024, Note_off_c, 0, 58, 64
2, 1663020, Note_on_c, 0, 62, 98
2, 1663080, Note_on_c, 0, 64, 102
2, 1663096, Note_off_c, 0, 62, 64
2, 1663140, Note_off_c, 0, 64, 64
2, 1663140, Note_on_c, 0, 66, 94
2, 1663196, Note_off_c, 0, 66, 64
2, 1663200, Note_on_c, 0, 67, 89
2, 1663260, Note_off_c, 0, 67, 64
2, 1663260, Note_on_c, 0, 70, 85
2, 1663320, Note_on_c, 0, 69, 102
2, 1663324, Note_off_c, 0, 70, 64
2, 1663560, Note_off_c, 0, 69, 64
2, 1663560, Note_on_c, 0, 70, 101
2, 1663796, Note_on_c, 0, 71, 104
2, 1663808, Note_off_c, 0, 70, 64
2, 1663916, Note_on_c, 0, 72, 104
2, 1663920, Note_off_c, 0, 71, 64
2, 1664036, Note_on_c, 0, 73, 110
2, 1664040, Note_off_c, 0, 72, 64
2, 1664276, Note_off_c, 0, 73, 64
2, 1664280, Note_on_c, 0, 74, 107
2, 1664400, Note_on_c, 0, 75, 99
2, 1664404, Note_off_c, 0, 74, 64
2, 1664516, Note_off_c, 0, 75, 64
2, 1664516, Note_on_c, 0, 76, 106
2, 1664696, Note_off_c, 0, 76, 64
2, 1664696, Note_on_c, 0, 82, 115
2, 1664760, Note_off_c, 0, 82, 64
2, 1664760, Note_on_c, 0, 81, 127
2, 1664816, Note_on_c, 0, 79, 106
2, 1664820, Note_off_c, 0, 81, 64
2, 1664880, Note_on_c, 0, 78, 106
2, 1664884, Note_off_c, 0, 79, 64
2, 1664936, Note_off_c, 0, 78, 64
2, 1664936, Note_on_c, 0, 76, 104
2, 1665000, Note_on_c, 0, 74, 106
2, 1665004, Note_off_c, 0, 76, 64
2, 1665240, Note_off_c, 0, 74, 64
2, 1665240, Note_on_c, 0, 74, 96
2, 1665360, Note_off_c, 0, 74, 64
2, 1665360, Note_on_c, 0, 86, 100
2, 1665480, Note_off_c, 0, 86, 64
2, 1665480, Note_on_c, 0, 85, 94
2, 1665720, Note_off_c, 0, 85, 64
2, 1665720, Note_on_c, 0, 84, 102
2, 1665836, Note_off_c, 0, 84, 64
2, 1665840, Note_on_c, 0, 83, 101
2, 1665960, Note_off_c, 0, 83, 64
2, 1665960, Note_on_c, 0, 82, 95
2, 1666140, Note_off_c, 0, 82, 64
2, 1666140, Note_on_c, 0, 81, 102
2, 1666200, Note_off_c, 0, 81, 64
2, 1666200, Note_on_c, 0, 80, 102
2, 1666440, Note_off_c, 0, 80, 64
2, 1666440, Note_on_c, 0, 81, 98
2, 1666620, Note_off_c, 0, 81, 64
2, 1666620, Note_on_c, 0, 74, 96
2, 1666680, Note_off_c, 0, 74, 64
2, 1666680, Note_on_c, 0, 72, 95
2, 1666740, Note_off_c, 0, 72, 64
2, 1666740, Note_on_c, 0, 70, 91
2, 1666800, Note_on_c, 0, 72, 86
2, 1666804, Note_off_c, 0, 70, 64
2, 1666860, Note_on_c, 0, 69, 80
2, 1666872, Note_off_c, 0, 72, 64
2, 1666920, Note_off_c, 0, 69, 64
2, 1666920, Note_on_c, 0, 70, 82
2, 1666980, Note_off_c, 0, 70, 64
2, 1666980, Note_on_c, 0, 67, 89
2, 1667040, Note_on_c, 0, 65, 95
2, 1667044, Note_off_c, 0, 67, 64
2, 1667100, Note_off_c, 0, 65, 64
2, 1667100, Note_on_c, 0, 64, 95
2, 1667160, Note_off_c, 0, 64, 64
2, 1667160, Note_on_c, 0, 65, 109
2, 1667220, Note_off_c, 0, 65, 64
2, 1667220, Note_on_c, 0, 74, 109
2, 1667280, Note_off_c, 0, 74, 64
2, 1667280, Note_on_c, 0, 65, 90
2, 1667340, Note_off_c, 0, 65, 64
2, 1667340, Note_on_c, 0, 64, 84
2, 1667400, Note_off_c, 0, 64, 64
2, 1667400, Note_on_c, 0, 65, 97
2, 1667520, Note_off_c, 0, 65, 64
2, 1667520, Note_on_c, 0, 64, 97
2, 1667760, Note_off_c, 0, 64, 64
2, 1667820, Note_on_c, 0, 62, 94
2, 1667876, Note_off_c, 0, 62, 64
2, 1667880, Note_on_c, 0, 61, 82
2, 1667936, Note_off_c, 0, 61, 64
2, 1667940, Note_on_c, 0, 62, 72
2, 1668000, Note_on_c, 0, 64, 81
2, 1668012, Note_off_c, 0, 62, 64
2, 1668060, Note_off_c, 0, 64, 64
2, 1668060, Note_on_c, 0, 65, 88
2, 1668120, Note_on_c, 0, 67, 97
2, 1668124, Note_off_c, 0, 65, 64
2, 1668180, Note_off_c, 0, 67, 64
2, 1668180, Note_on_c, 0, 69, 97
2, 1668240, Note_off_c, 0, 69, 64
2, 1668240, Note_on_c, 0, 70, 93
2, 1668300, Note_on_c, 0, 69, 93
2, 1668316, Note_off_c, 0, 70, 64
2, 1668360, Note_on_c, 0, 74, 97
2, 1668376, Note_off_c, 0, 69, 64
2, 1668540, Note_off_c, 0, 74, 64
2, 1668540, Note_on_c, 0, 73, 89
2, 1668600, Note_on_c, 0, 76, 109
2, 1668608, Note_off_c, 0, 73, 64
2, 1668832, Note_off_c, 0, 76, 64
2, 1668840, Note_on_c, 0, 69, 106
2, 1668952, Note_off_c, 0, 69, 64
2, 1668960, Note_on_c, 0, 70, 117
2, 1669012, Note_off_c, 0, 70, 64
2, 1669020, Note_on_c, 0, 69, 84
2, 1669072, Note_off_c, 0, 69, 64
2, 1669080, Note_on_c, 0, 68, 100
2, 1669108, Note_off_c, 0, 68, 64
2, 1669140, Note_on_c, 0, 69, 55
2, 1669192, Note_off_c, 0, 69, 64
2, 1669200, Note_on_c, 0, 69, 97
2, 1669312, Note_on_c, 0, 81, 111
2, 1669316, Note_off_c, 0, 69, 64
2, 1669496, Note_on_c, 0, 82, 104
2, 1669500, Note_off_c, 0, 81, 64
2, 1669544, Note_off_c, 0, 82, 64
2, 1669552, Note_on_c, 0, 81, 100
2, 1669608, Note_off_c, 0, 81, 64
2, 1669608, Note_on_c, 0, 80, 106
2, 1669672, Note_off_c, 0, 80, 64
2, 1669672, Note_on_c, 0, 81, 104
2, 1669728, Note_off_c, 0, 81, 64
2, 1669728, Note_on_c, 0, 74, 96
2, 1669784, Note_on_c, 0, 72, 96
2, 1669792, Note_off_c, 0, 74, 64
2, 1669844, Note_on_c, 0, 70, 102
2, 1669852, Note_off_c, 0, 72, 64
2, 1669912, Note_on_c, 0, 72, 97
2, 1669916, Note_off_c, 0, 70, 64
2, 1669924, Note_off_c, 0, 72, 64
2, 1669968, Note_on_c, 0, 72, 111
2, 1670024, Note_on_c, 0, 70, 84
2, 1670036, Note_off_c, 0, 72, 64
2, 1670088, Note_off_c, 0, 70, 64
2, 1670088, Note_on_c, 0, 69, 88
2, 1670144, Note_off_c, 0, 69, 64
2, 1670156, Note_on_c, 0, 69, 90
2, 1670276, Note_on_c, 0, 70, 106
2, 1670288, Note_off_c, 0, 69, 64
2, 1670364, Note_off_c, 0, 70, 64
2, 1670372, Note_on_c, 0, 72, 86
2, 1670384, Note_on_c, 0, 70, 89
2, 1670400, Note_off_c, 0, 72, 64
2, 1670452, Note_off_c, 0, 70, 64
2, 1670452, Note_on_c, 0, 69, 97
2, 1670508, Note_on_c, 0, 70, 86
2, 1670516, Note_off_c, 0, 69, 64
2, 1670600, Note_off_c, 0, 70, 64
2, 1670616, Note_on_c, 0, 70, 108
2, 1670736, Note_off_c, 0, 70, 64
2, 1670740, Note_on_c, 0, 82, 117
2, 1670936, Note_on_c, 0, 75, 112
2, 1670952, Note_off_c, 0, 82, 64
2, 1670996, Note_off_c, 0, 75, 64
2, 1670996, Note_on_c, 0, 74, 101
2, 1671056, Note_on_c, 0, 73, 97
2, 1671060, Note_off_c, 0, 74, 64
2, 1671120, Note_off_c, 0, 73, 64
2, 1671120, Note_on_c, 0, 74, 100
2, 1671176, Note_on_c, 0, 84, 96
2, 1671180, Note_off_c, 0, 74, 64
2, 1671236, Note_on_c, 0, 83, 109
2, 1671248, Note_off_c, 0, 84, 64
2, 1671472, Note_off_c, 0, 83, 64
2, 1671480, Note_on_c, 0, 74, 77
2, 1671600, Note_off_c, 0, 74, 64
2, 1671600, Note_on_c, 0, 73, 77
2, 1671720, Note_off_c, 0, 73, 64
2, 1671720, Note_on_c, 0, 70, 99
2, 1671960, Note_off_c, 0, 70, 64
2, 1671960, Note_on_c, 0, 69, 95
2, 1672060, Note_off_c, 0, 69, 64
2, 1672080, Note_on_c, 0, 75, 77
2, 1672200, Note_off_c, 0, 75, 64
2, 1672200, Note_on_c, 0, 74, 89
2, 1672380, Note_off_c, 0, 74, 64
2, 1672380, Note_on_c, 0, 73, 89
2, 1672440, Note_off_c, 0, 73, 64
2, 1672440, Note_on_c, 0, 76, 89
2, 1672500, Note_off_c, 0, 76, 64
2, 1672500, Note_on_c, 0, 79, 85
2, 1672560, Note_off_c, 0, 79, 64
2, 1672560, Note_on_c, 0, 82, 104
2, 1672680, Note_off_c, 0, 82, 64
2, 1672680, Note_on_c, 0, 81, 113
2, 1672860, Note_off_c, 0, 81, 64
2, 1672860, Note_on_c, 0, 79, 115
2, 1672920, Note_off_c, 0, 79, 64
2, 1672920, Note_on_c, 0, 77, 115
2, 1672980, Note_off_c, 0, 77, 64
2, 1672980, Note_on_c, 0, 76, 115
2, 1673040, Note_off_c, 0, 76, 64
2, 1673040, Note_on_c, 0, 73, 115
2, 1673280, Note_off_c, 0, 73, 64
2, 1673280, Note_on_c, 0, 74, 104
2, 1673520, Note_off_c, 0, 74, 64
2, 1674600, Note_on_c, 0, 74, 91
2, 1674716, Note_off_c, 0, 74, 64
2, 1674720, Note_on_c, 0, 74, 68
2, 1674776, Note_off_c, 0, 74, 64
2, 1674780, Note_on_c, 0, 73, 68
2, 1674836, Note_off_c, 0, 73, 64
2, 1674840, Note_on_c, 0, 74, 86
2, 1674956, Note_off_c, 0, 74, 64
2, 1674960, Note_on_c, 0, 74, 91
2, 1675076, Note_off_c, 0, 74, 64
2, 1675080, Note_on_c, 0, 82, 92
2, 1675256, Note_off_c, 0, 82, 64
2, 1675260, Note_on_c, 0, 81, 96
2, 1675316, Note_off_c, 0, 81, 64
2, 1675320, Note_on_c, 0, 79, 71
2, 1675376, Note_off_c, 0, 79, 64
2, 1675380, Note_on_c, 0, 77, 71
2, 1675436, Note_off_c, 0, 77, 64
2, 1675440, Note_on_c, 0, 75, 97
2, 1675556, Note_off_c, 0, 75, 64
2, 1675560, Note_on_c, 0, 74, 91
2, 1675796, Note_off_c, 0, 74, 64
2, 1675800, Note_on_c, 0, 73, 115
2, 1676036, Note_off_c, 0, 73, 64
2, 1676040, Note_on_c, 0, 72, 95
2, 1676156, Note_off_c, 0, 72, 64
2, 1676160, Note_on_c, 0, 72, 95
2, 1676216, Note_off_c, 0, 72, 64
2, 1676220, Note_on_c, 0, 71, 95
2, 1676276, Note_off_c, 0, 71, 64
2, 1676280, Note_on_c, 0, 72, 95
2, 1676396, Note_off_c, 0, 72, 64
2, 1676400, Note_on_c, 0, 72, 95
2, 1676516, Note_off_c, 0, 72, 64
2, 1676520, Note_on_c, 0, 80, 102
2, 1676696, Note_off_c, 0, 80, 64
2, 1676700, Note_on_c, 0, 79, 89
2, 1676756, Note_off_c, 0, 79, 64
2, 1676760, Note_on_c, 0, 77, 101
2, 1676816, Note_off_c, 0, 77, 64
2, 1676820, Note_on_c, 0, 75, 92
2, 1676876, Note_off_c, 0, 75, 64
2, 1676880, Note_on_c, 0, 73, 66
2, 1676996, Note_off_c, 0, 73, 64
2, 1677000, Note_on_c, 0, 72, 66
2, 1677236, Note_off_c, 0, 72, 64
2, 1677240, Note_on_c, 0, 71, 66
2, 1677480, Note_off_c, 0, 71, 64
2, 1677480, Note_on_c, 0, 70, 66
2, 1677596, Note_off_c, 0, 70, 64
2, 1677600, Note_on_c, 0, 70, 66
2, 1677660, Note_off_c, 0, 70, 64
2, 1677660, Note_on_c, 0, 69, 66
2, 1677720, Note_off_c, 0, 69, 64
2, 1677720, Note_on_c, 0, 70, 66
2, 1677836, Note_off_c, 0, 70, 64
2, 1677840, Note_on_c, 0, 78, 66
2, 1677956, Note_off_c, 0, 78, 64
2, 1677960, Note_on_c, 0, 79, 66
2, 1678200, Note_off_c, 0, 79, 64
2, 1678200, Note_on_c, 0, 73, 66
2, 1678440, Note_off_c, 0, 73, 64
2, 1678440, Note_on_c, 0, 74, 66
2, 1678680, Note_off_c, 0, 74, 64
2, 1678680, Note_on_c, 0, 67, 66
2, 1678800, Note_off_c, 0, 67, 64
2, 1678800, Note_on_c, 0, 67, 66
2, 1678920, Note_off_c, 0, 67, 64
2, 1678920, Note_on_c, 0, 69, 66
2, 1678980, Note_off_c, 0, 69, 64
2, 1678980, Note_on_c, 0, 70, 66
2, 1679040, Note_off_c, 0, 70, 64
2, 1679040, Note_on_c, 0, 69, 66
2, 1679280, Note_off_c, 0, 69, 64
2, 1680360, Note_on_c, 0, 62, 98
2, 1680460, Note_off_c, 0, 62, 64
2, 1680468, Note_on_c, 0, 63, 90
2, 1680484, Note_off_c, 0, 63, 64
2, 1680484, Note_on_c, 0, 62, 88
2, 1680536, Note_on_c, 0, 61, 102
2, 1680544, Note_off_c, 0, 62, 64
2, 1680584, Note_off_c, 0, 61, 64
2, 1680592, Note_on_c, 0, 62, 111
2, 1680692, Note_off_c, 0, 62, 64
2, 1680712, Note_on_c, 0, 62, 82
2, 1680828, Note_off_c, 0, 62, 64
2, 1680828, Note_on_c, 0, 74, 90
2, 1681012, Note_off_c, 0, 74, 64
2, 1681020, Note_on_c, 0, 72, 78
2, 1681080, Note_on_c, 0, 70, 71
2, 1681084, Note_off_c, 0, 72, 64
2, 1681140, Note_on_c, 0, 69, 91
2, 1681144, Note_off_c, 0, 70, 64
2, 1681200, Note_on_c, 0, 67, 85
2, 1681204, Note_off_c, 0, 69, 64
2, 1681260, Note_off_c, 0, 67, 64
2, 1681260, Note_on_c, 0, 65, 76
2, 1681320, Note_on_c, 0, 68, 106
2, 1681324, Note_off_c, 0, 65, 64
2, 1681492, Note_on_c, 0, 62, 95
2, 1681496, Note_off_c, 0, 68, 64
2, 1681552, Note_off_c, 0, 62, 64
2, 1681552, Note_on_c, 0, 65, 100
2, 1681796, Note_off_c, 0, 65, 64
2, 1681796, Note_on_c, 0, 63, 108
2, 1681892, Note_off_c, 0, 63, 64
2, 1681900, Note_on_c, 0, 65, 82
2, 1681916, Note_on_c, 0, 63, 57
2, 1681956, Note_off_c, 0, 65, 64
2, 1681976, Note_on_c, 0, 62, 83
2, 1681984, Note_off_c, 0, 63, 64
2, 1682032, Note_on_c, 0, 63, 102
2, 1682040, Note_off_c, 0, 62, 64
2, 1682132, Note_off_c, 0, 63, 64
2, 1682148, Note_on_c, 0, 63, 106
2, 1682264, Note_off_c, 0, 63, 64
2, 1682280, Note_on_c, 0, 75, 99
2, 1682448, Note_on_c, 0, 74, 95
2, 1682460, Note_off_c, 0, 75, 64
2, 1682504, Note_on_c, 0, 72, 104
2, 1682516, Note_off_c, 0, 74, 64
2, 1682564, Note_on_c, 0, 70, 102
2, 1682572, Note_off_c, 0, 72, 64
2, 1682624, Note_off_c, 0, 70, 64
2, 1682624, Note_on_c, 0, 69, 84
2, 1682684, Note_on_c, 0, 67, 83
2, 1682692, Note_off_c, 0, 69, 64
2, 1682744, Note_off_c, 0, 67, 64
2, 1682744, Note_on_c, 0, 70, 110
2, 1682936, Note_off_c, 0, 70, 64
2, 1682936, Note_on_c, 0, 64, 97
2, 1682992, Note_off_c, 0, 64, 64
2, 1682996, Note_on_c, 0, 67, 109
2, 1683244, Note_on_c, 0, 66, 108
2, 1683252, Note_off_c, 0, 67, 64
2, 1683328, Note_off_c, 0, 66, 64
2, 1683336, Note_on_c, 0, 67, 91
2, 1683348, Note_on_c, 0, 66, 96
2, 1683356, Note_off_c, 0, 67, 64
2, 1683416, Note_on_c, 0, 64, 101
2, 1683424, Note_off_c, 0, 66, 64
2, 1683476, Note_off_c, 0, 64, 64
2, 1683480, Note_on_c, 0, 66, 104
2, 1683600, Note_off_c, 0, 66, 64
2, 1683600, Note_on_c, 0, 71, 107
2, 1683676, Note_off_c, 0, 71, 64
2, 1683680, Note_on_c, 0, 72, 111
2, 1683756, Note_off_c, 0, 72, 64
2, 1683760, Note_on_c, 0, 75, 110
2, 1683836, Note_off_c, 0, 75, 64
2, 1683840, Note_on_c, 0, 73, 108
2, 1683920, Note_off_c, 0, 73, 64
2, 1683924, Note_on_c, 0, 74, 100
2, 1683996, Note_off_c, 0, 74, 64
2, 1683996, Note_on_c, 0, 66, 97
2, 1684072, Note_on_c, 0, 70, 108
2, 1684076, Note_off_c, 0, 66, 64
2, 1684148, Note_off_c, 0, 70, 64
2, 1684152, Note_on_c, 0, 69, 88
2, 1684224, Note_off_c, 0, 69, 64
2, 1684232, Note_on_c, 0, 62, 78
2, 1684316, Note_on_c, 0, 63, 119
2, 1684320, Note_off_c, 0, 62, 64
2, 1684396, Note_off_c, 0, 63, 64
2, 1684400, Note_on_c, 0, 59, 91
2, 1684476, Note_on_c, 0, 60, 101
2, 1684480, Note_off_c, 0, 59, 64
2, 1684676, Note_on_c, 0, 58, 108
2, 1684688, Note_off_c, 0, 60, 64
2, 1684736, Note_on_c, 0, 57, 102
2, 1684744, Note_off_c, 0, 58, 64
2, 1684796, Note_on_c, 0, 58, 106
2, 1684800, Note_off_c, 0, 57, 64
2, 1685064, Note_off_c, 0, 58, 64
2, 1686060, Note_on_c, 0, 62, 98
2, 1686120, Note_on_c, 0, 64, 102
2, 1686136, Note_off_c, 0, 62, 64
2, 1686180, Note_off_c, 0, 64, 64
2, 1686180, Note_on_c, 0, 66, 94
2, 1686236, Note_off_c, 0, 66, 64
2, 1686240, Note_on_c, 0, 67, 89
2, 1686300, Note_off_c, 0, 67, 64
2, 1686300, Note_on_c, 0, 70, 85
2, 1686360, Note_on_c, 0, 69, 102
2, 1686364, Note_off_c, 0, 70, 64
2, 1686600, Note_off_c, 0, 69, 64
2, 1686600, Note_on_c, 0, 70, 101
2, 1686836, Note_on_c, 0, 71, 104
2, 1686848, Note_off_c, 0, 70, 64
2, 1686956, Note_on_c, 0, 72, 104
2, 1686960, Note_off_c, 0, 71, 64
2, 1687076, Note_on_c, 0, 73, 110
2, 1687080, Note_off_c, 0, 72, 64
2, 1687316, Note_off_c, 0, 73, 64
2, 1687320, Note_on_c, 0, 74, 107
2, 1687440, Note_on_c, 0, 75, 99
2, 1687444, Note_off_c, 0, 74, 64
2, 1687556, Note_off_c, 0, 75, 64
2, 1687556, Note_on_c, 0, 76, 106
2, 1687736, Note_off_c, 0, 76, 64
2, 1687736, Note_on_c, 0, 82, 115
2, 1687800, Note_off_c, 0, 82, 64
2, 1687800, Note_on_c, 0, 81, 127
2, 1687856, Note_on_c, 0, 79, 106
2, 1687860, Note_off_c, 0, 81, 64
2, 1687920, Note_on_c, 0, 78, 106
2, 1687924, Note_off_c, 0, 79, 64
2, 1687976, Note_off_c, 0, 78, 64
2, 1687976, Note_on_c, 0, 76, 104
2, 1688040, Note_on_c, 0, 74, 106
2, 1688044, Note_off_c, 0, 76, 64
2, 1688280, Note_off_c, 0, 74, 64
2, 1688280, Note_on_c, 0, 74, 96
2, 1688400, Note_off_c, 0, 74, 64
2, 1688400, Note_on_c, 0, 86, 100
2, 1688520, Note_off_c, 0, 86, 64
2, 1688520, Note_on_c, 0, 85, 94
2, 1688760, Note_off_c, 0, 85, 64
2, 1688760, Note_on_c, 0, 84, 102
2, 1688876, Note_off_c, 0, 84, 64
2, 1688880, Note_on_c, 0, 83, 101
2, 1689000, Note_off_c, 0, 83, 64
2, 1689000, Note_on_c, 0, 82, 95
2, 1689180, Note_off_c, 0, 82, 64
2, 1689180, Note_on_c, 0, 81, 102
2, 1689240, Note_off_c, 0, 81, 64
2, 1689240, Note_on_c, 0, 80, 102
2, 1689480, Note_off_c, 0, 80, 64
2, 1689480, Note_on_c, 0, 81, 98
2, 1689660, Note_off_c, 0, 81, 64
2, 1689660, Note_on_c, 0, 74, 96
2, 1689720, Note_off_c, 0, 74, 64
2, 1689720, Note_on_c, 0, 72, 95
2, 1689780, Note_off_c, 0, 72, 64
2, 1689780, Note_on_c, 0, 70, 91
2, 1689840, Note_on_c, 0, 72, 86
2, 1689844, Note_off_c, 0, 70, 64
2, 1689900, Note_on_c, 0, 69, 80
2, 1689912, Note_off_c, 0, 72, 64
2, 1689960, Note_off_c, 0, 69, 64
2, 1689960, Note_on_c, 0, 70, 82
2, 1690020, Note_off_c, 0, 70, 64
2, 1690020, Note_on_c, 0, 67, 89
2, 1690080, Note_on_c, 0, 65, 95
2, 1690084, Note_off_c, 0, 67, 64
2, 1690140, Note_off_c, 0, 65, 64
2, 1690140, Note_on_c, 0, 64, 95
2, 1690200, Note_off_c, 0, 64, 64
2, 1690200, Note_on_c, 0, 65, 109
2, 1690260, Note_off_c, 0, 65, 64
2, 1690260, Note_on_c, 0, 74, 109
2, 1690320, Note_off_c, 0, 74, 64
2, 1690320, Note_on_c, 0, 65, 90
2, 1690380, Note_off_c, 0, 65, 64
2, 1690380, Note_on_c, 0, 64, 84
2, 1690440, Note_off_c, 0, 64, 64
2, 1690440, Note_on_c, 0, 65, 97
2, 1690560, Note_off_c, 0, 65, 64
2, 1690560, Note_on_c, 0, 64, 97
2, 1690800, Note_off_c, 0, 64, 64
2, 1690860, Note_on_c, 0, 62, 94
2, 1690916, Note_off_c, 0, 62, 64
2, 1690920, Note_on_c, 0, 61, 82
2, 1690976, Note_off_c, 0, 61, 64
2, 1690980, Note_on_c, 0, 62, 72
2, 1691040, Note_on_c, 0, 64, 81
2, 1691052, Note_off_c, 0, 62, 64
2, 1691100, Note_off_c, 0, 64, 64
2, 1691100, Note_on_c, 0, 65, 88
2, 1691160, Note_on_c, 0, 67, 97
2, 1691164, Note_off_c, 0, 65, 64
2, 1691220, Note_off_c, 0, 67, 64
2, 1691220, Note_on_c, 0, 69, 97
2, 1691280, Note_off_c, 0, 69, 64
2, 1691280, Note_on_c, 0, 70, 93
2, 1691340, Note_on_c, 0, 69, 93
2, 1691356, Note_off_c, 0, 70, 64
2, 1691400, Note_on_c, 0, 74, 97
2, 1691416, Note_off_c, 0, 69, 64
2, 1691580, Note_off_c, 0, 74, 64
2, 1691580, Note_on_c, 0, 73, 89
2, 1691640, Note_on_c, 0, 76, 109
2, 1691648, Note_off_c, 0, 73, 64
2, 1691872, Note_off_c, 0, 76, 64
2, 1691880, Note_on_c, 0, 69, 106
2, 1691992, Note_off_c, 0, 69, 64
2, 1692000, Note_on_c, 0, 70, 117
2, 1692052, Note_off_c, 0, 70, 64
2, 1692060, Note_on_c, 0, 69, 84
2, 1692112, Note_off_c, 0, 69, 64
2, 1692120, Note_on_c, 0, 68, 100
2, 1692148, Note_off_c, 0, 68, 64
2, 1692180, Note_on_c, 0, 69, 55
2, 1692232, Note_off_c, 0, 69, 64
2, 1692240, Note_on_c, 0, 69, 97
2, 1692352, Note_on_c, 0, 81, 111
2, 1692356, Note_off_c, 0, 69, 64
2, 1692536, Note_on_c, 0, 82, 104
2, 1692540, Note_off_c, 0, 81, 64
2, 1692584, Note_off_c, 0, 82, 64
2, 1692592, Note_on_c, 0, 81, 100
2, 1692648, Note_off_c, 0, 81, 64
2, 1692648, Note_on_c, 0, 80, 106
2, 1692712, Note_off_c, 0, 80, 64
2, 1692712, Note_on_c, 0, 81, 104
2, 1692768, Note_off_c, 0, 81, 64
2, 1692768, Note_on_c, 0, 74, 96
2, 1692824, Note_on_c, 0, 72, 96
2, 1692832, Note_off_c, 0, 74, 64
2, 1692884, Note_on_c, 0, 70, 102
2, 1692892, Note_off_c, 0, 72, 64
2, 1692952, Note_on_c, 0, 72, 97
2, 1692956, Note_off_c, 0, 70, 64
2, 1692964, Note_off_c, 0, 72, 64
2, 1693008, Note_on_c, 0, 72, 111
2, 1693064, Note_on_c, 0, 70, 84
2, 1693076, Note_off_c, 0, 72, 64
2, 1693128, Note_off_c, 0, 70, 64
2, 1693128, Note_on_c, 0, 69, 88
2, 1693184, Note_off_c, 0, 69, 64
2, 1693196, Note_on_c, 0, 69, 90
2, 1693316, Note_on_c, 0, 70, 106
2, 1693328, Note_off_c, 0, 69, 64
2, 1693404, Note_off_c, 0, 70, 64
2, 1693412, Note_on_c, 0, 72, 86
2, 1693424, Note_on_c, 0, 70, 89
2, 1693440, Note_off_c, 0, 72, 64
2, 1693492, Note_off_c, 0, 70, 64
2, 1693492, Note_on_c, 0, 69, 97
2, 1693548, Note_on_c, 0, 70, 86
2, 1693556, Note_off_c, 0, 69, 64
2, 1693640, Note_off_c, 0, 70, 64
2, 1693656, Note_on_c, 0, 70, 108
2, 1693776, Note_off_c, 0, 70, 64
2, 1693780, Note_on_c, 0, 82, 117
2, 1693976, Note_on_c, 0, 75, 112
2, 1693992, Note_off_c, 0, 82, 64
2, 1694036, Note_off_c, 0, 75, 64
2, 1694036, Note_on_c, 0, 74, 101
2, 1694096, Note_on_c, 0, 73, 97
2, 1694100, Note_off_c, 0, 74, 64
2, 1694160, Note_off_c, 0, 73, 64
2, 1694160, Note_on_c, 0, 74, 100
2, 1694216, Note_on_c, 0, 84, 96
2, 1694220, Note_off_c, 0, 74, 64
2, 1694276, Note_on_c, 0, 83, 109
2, 1694288, Note_off_c, 0, 84, 64
2, 1694512, Note_off_c, 0, 83, 64
2, 1694520, Note_on_c, 0, 74, 77
2, 1694640, Note_off_c, 0, 74, 64
2, 1694640, Note_on_c, 0, 73, 77
2, 1694760, Note_off_c, 0, 73, 64
2, 1694760, Note_on_c, 0, 70, 99
2, 1695000, Note_off_c, 0, 70, 64
2, 1695000, Note_on_c, 0, 69, 95
2, 1695100, Note_off_c, 0, 69, 64
2, 1695120, Note_on_c, 0, 75, 77
2, 1695240, Note_off_c, 0, 75, 64
2, 1695240, Note_on_c, 0, 74, 89
2, 1695420, Note_off_c, 0, 74, 64
2, 1695420, Note_on_c, 0, 73, 89
2, 1695480, Note_off_c, 0, 73, 64
2, 1695480, Note_on_c, 0, 76, 89
2, 1695540, Note_off_c, 0, 76, 64
2, 1695540, Note_on_c, 0, 79, 85
2, 1695600, Note_off_c, 0, 79, 64
2, 1695600, Note_on_c, 0, 82, 104
2, 1695720, Note_off_c, 0, 82, 64
2, 1695720, Note_on_c, 0, 81, 113
2, 1695900, Note_off_c, 0, 81, 64
2, 1695900, Note_on_c, 0, 79, 115
2, 1695960, Note_off_c, 0, 79, 64
2, 1695960, Note_on_c, 0, 77, 115
2, 1696020, Note_off_c, 0, 77, 64
2, 1696020, Note_on_c, 0, 76, 115
2, 1696080, Note_off_c, 0, 76, 64
2, 1696080, Note_on_c, 0, 73, 115
2, 1696320, Note_off_c, 0, 73, 64
2, 1696320, Note_on_c, 0, 74, 104
2, 1696560, Note_off_c, 0, 74, 64
2, 1697640, Note_on_c, 0, 81, 109
2, 1697732, Note_off_c, 0, 81, 64
2, 1697756, Note_on_c, 0, 82, 96
2, 1697768, Note_on_c, 0, 81, 100
2, 1697776, Note_off_c, 0, 82, 64
2, 1697820, Note_on_c, 0, 80, 96
2, 1697824, Note_off_c, 0, 81, 64
2, 1697872, Note_off_c, 0, 80, 64
2, 1697876, Note_on_c, 0, 81, 97
2, 1697984, Note_off_c, 0, 81, 64
2, 1697988, Note_on_c, 0, 75, 108
2, 1698104, Note_off_c, 0, 75, 64
2, 1698108, Note_on_c, 0, 74, 115
2, 1698296, Note_off_c, 0, 74, 64
2, 1698300, Note_on_c, 0, 76, 106
2, 1698352, Note_on_c, 0, 78, 99
2, 1698356, Note_off_c, 0, 76, 64
2, 1698412, Note_on_c, 0, 79, 102
2, 1698420, Note_off_c, 0, 78, 64
2, 1698476, Note_on_c, 0, 81, 106
2, 1698480, Note_off_c, 0, 79, 64
2, 1698528, Note_off_c, 0, 81, 64
2, 1698532, Note_on_c, 0, 72, 101
2, 1698596, Note_off_c, 0, 72, 64
2, 1698596, Note_on_c, 0, 75, 117
2, 1698844, Note_off_c, 0, 75, 64
2, 1698844, Note_on_c, 0, 74, 104
2, 1699080, Note_on_c, 0, 77, 119
2, 1699084, Note_off_c, 0, 74, 64
2, 1699180, Note_off_c, 0, 77, 64
2, 1699200, Note_on_c, 0, 77, 86
2, 1699260, Note_on_c, 0, 75, 99
2, 1699268, Note_off_c, 0, 77, 64
2, 1699320, Note_off_c, 0, 75, 64
2, 1699320, Note_on_c, 0, 77, 104
2, 1699428, Note_off_c, 0, 77, 64
2, 1699440, Note_on_c, 0, 68, 112
2, 1699560, Note_off_c, 0, 68, 64
2, 1699560, Note_on_c, 0, 67, 96
2, 1699740, Note_off_c, 0, 67, 64
2, 1699740, Note_on_c, 0, 69, 93
2, 1699796, Note_off_c, 0, 69, 64
2, 1699800, Note_on_c, 0, 71, 84
2, 1699848, Note_off_c, 0, 71, 64
2, 1699860, Note_on_c, 0, 72, 90
2, 1699916, Note_off_c, 0, 72, 64
2, 1699920, Note_on_c, 0, 74, 89
2, 1699972, Note_off_c, 0, 74, 64
2, 1699980, Note_on_c, 0, 65, 69
2, 1700036, Note_off_c, 0, 65, 64
2, 1700040, Note_on_c, 0, 68, 119
2, 1700276, Note_off_c, 0, 68, 64
2, 1700280, Note_on_c, 0, 67, 115
2, 1700520, Note_off_c, 0, 67, 64
2, 1700520, Note_on_c, 0, 72, 102
2, 1700760, Note_off_c, 0, 72, 64
2, 1700760, Note_on_c, 0, 72, 101
2, 1700876, Note_off_c, 0, 72, 64
2, 1700880, Note_on_c, 0, 72, 113
2, 1700940, Note_on_c, 0, 75, 94
2, 1700948, Note_off_c, 0, 72, 64
2, 1701000, Note_off_c, 0, 75, 64
2, 1701000, Note_on_c, 0, 73, 113
2, 1701240, Note_off_c, 0, 73, 64
2, 1701240, Note_on_c, 0, 72, 113
2, 1701360, Note_off_c, 0, 72, 64
2, 1701360, Note_on_c, 0, 72, 113
2, 1701412, Note_on_c, 0, 77, 101
2, 1701420, Note_off_c, 0, 72, 64
2, 1701472, Note_on_c, 0, 75, 110
2, 1701480, Note_off_c, 0, 77, 64
2, 1701660, Note_on_c, 0, 77, 106
2, 1701668, Note_off_c, 0, 75, 64
2, 1701720, Note_on_c, 0, 75, 104
2, 1701728, Note_off_c, 0, 77, 64
2, 1701776, Note_on_c, 0, 74, 106
2, 1701784, Note_off_c, 0, 75, 64
2, 1701840, Note_on_c, 0, 75, 96
2, 1701852, Note_off_c, 0, 74, 64
2, 1701896, Note_off_c, 0, 75, 64
2, 1701900, Note_on_c, 0, 81, 96
2, 1701944, Note_off_c, 0, 81, 64
2, 1701960, Note_on_c, 0, 82, 98
2, 1702080, Note_off_c, 0, 82, 64
2, 1702080, Note_on_c, 0, 75, 85
2, 1702200, Note_off_c, 0, 75, 64
2, 1702200, Note_on_c, 0, 74, 113
2, 1702320, Note_off_c, 0, 74, 64
2, 1703400, Note_on_c, 0, 70, 115
2, 1703488, Note_off_c, 0, 70, 64
2, 1703504, Note_on_c, 0, 72, 95
2, 1703512, Note_on_c, 0, 70, 85
2, 1703524, Note_off_c, 0, 72, 64
2, 1703568, Note_on_c, 0, 69, 81
2, 1703584, Note_off_c, 0, 70, 64
2, 1703628, Note_off_c, 0, 69, 64
2, 1703640, Note_on_c, 0, 70, 96
2, 1703760, Note_off_c, 0, 70, 64
2, 1703760, Note_on_c, 0, 70, 99
2, 1703864, Note_off_c, 0, 70, 64
2, 1703880, Note_on_c, 0, 82, 115
2, 1704060, Note_off_c, 0, 82, 64
2, 1704060, Note_on_c, 0, 83, 100
2, 1704112, Note_off_c, 0, 83, 64
2, 1704120, Note_on_c, 0, 82, 90
2, 1704180, Note_on_c, 0, 80, 97
2, 1704184, Note_off_c, 0, 82, 64
2, 1704240, Note_on_c, 0, 82, 82
2, 1704244, Note_off_c, 0, 80, 64
2, 1704360, Note_off_c, 0, 82, 64
2, 1704360, Note_on_c, 0, 73, 80
2, 1704540, Note_off_c, 0, 73, 64
2, 1704540, Note_on_c, 0, 71, 99
2, 1704600, Note_off_c, 0, 71, 64
2, 1704600, Note_on_c, 0, 70, 99
2, 1704840, Note_off_c, 0, 70, 64
2, 1704840, Note_on_c, 0, 71, 106
2, 1704960, Note_off_c, 0, 71, 64
2, 1704960, Note_on_c, 0, 71, 93
2, 1705020, Note_off_c, 0, 71, 64
2, 1705020, Note_on_c, 0, 70, 93
2, 1705080, Note_off_c, 0, 70, 64
2, 1705080, Note_on_c, 0, 71, 93
2, 1705200, Note_off_c, 0, 71, 64
2, 1705200, Note_on_c, 0, 71, 93
2, 1705320, Note_off_c, 0, 71, 64
2, 1705320, Note_on_c, 0, 83, 93
2, 1705500, Note_off_c, 0, 83, 64
2, 1705500, Note_on_c, 0, 76, 93
2, 1705560, Note_off_c, 0, 76, 64
2, 1705560, Note_on_c, 0, 75, 93
2, 1705620, Note_off_c, 0, 75, 64
2, 1705620, Note_on_c, 0, 74, 93
2, 1705680, Note_off_c, 0, 74, 64
2, 1705680, Note_on_c, 0, 75, 93
2, 1705740, Note_off_c, 0, 75, 64
2, 1705740, Note_on_c, 0, 85, 93
2, 1705800, Note_off_c, 0, 85, 64
2, 1705800, Note_on_c, 0, 84, 93
2, 1706040, Note_off_c, 0, 84, 64
2, 1706040, Note_on_c, 0, 75, 93
2, 1706160, Note_off_c, 0, 75, 64
2, 1706160, Note_on_c, 0, 74, 93
2, 1706280, Note_off_c, 0, 74, 64
2, 1706280, Note_on_c, 0, 71, 93
2, 1706520, Note_off_c, 0, 71, 64
2, 1706520, Note_on_c, 0, 70, 93
2, 1706640, Note_off_c, 0, 70, 64
2, 1706640, Note_on_c, 0, 76, 93
2, 1706760, Note_off_c, 0, 76, 64
2, 1706760, Note_on_c, 0, 75, 93
2, 1706940, Note_off_c, 0, 75, 64
2, 1706940, Note_on_c, 0, 74, 93
2, 1707000, Note_off_c, 0, 74, 64
2, 1707000, Note_on_c, 0, 77, 93
2, 1707060, Note_off_c, 0, 77, 64
2, 1707060, Note_on_c, 0, 80, 93
2, 1707120, Note_off_c, 0, 80, 64
2, 1707120, Note_on_c, 0, 83, 93
2, 1707240, Note_off_c, 0, 83, 64
2, 1707240, Note_on_c, 0, 82, 93
2, 1707420, Note_off_c, 0, 82, 64
2, 1707420, Note_on_c, 0, 80, 93
2, 1707480, Note_off_c, 0, 80, 64
2, 1707480, Note_on_c, 0, 78, 93
2, 1707540, Note_off_c, 0, 78, 64
2, 1707540, Note_on_c, 0, 77, 93
2, 1707600, Note_off_c, 0, 77, 64
2, 1707600, Note_on_c, 0, 74, 93
2, 1707840, Note_off_c, 0, 74, 64
2, 1707840, Note_on_c, 0, 75, 93
2, 1708080, Note_off_c, 0, 75, 64
2, 1709160, Note_on_c, 0, 67, 93
2, 1709280, Note_off_c, 0, 67, 64
2, 1709280, Note_on_c, 0, 67, 93
2, 1709340, Note_off_c, 0, 67, 64
2, 1709340, Note_on_c, 0, 66, 93
2, 1709400, Note_off_c, 0, 66, 64
2, 1709400, Note_on_c, 0, 67, 93
2, 1709520, Note_off_c, 0, 67, 64
2, 1709520, Note_on_c, 0, 67, 93
2, 1709640, Note_off_c, 0, 67, 64
2, 1709640, Note_on_c, 0, 75, 93
2, 1709820, Note_off_c, 0, 75, 64
2, 1709820, Note_on_c, 0, 74, 93
2, 1709880, Note_off_c, 0, 74, 64
2, 1709880, Note_on_c, 0, 72, 93
2, 1709940, Note_off_c, 0, 72, 64
2, 1709940, Note_on_c, 0, 70, 93
2, 1710000, Note_off_c, 0, 70, 64
2, 1710000, Note_on_c, 0, 68, 93
2, 1710120, Note_off_c, 0, 68, 64
2, 1710120, Note_on_c, 0, 67, 93
2, 1710360, Note_off_c, 0, 67, 64
2, 1710360, Note_on_c, 0, 66, 93
2, 1710600, Note_off_c, 0, 66, 64
2, 1710600, Note_on_c, 0, 65, 93
2, 1710720, Note_off_c, 0, 65, 64
2, 1710720, Note_on_c, 0, 65, 93
2, 1710780, Note_off_c, 0, 65, 64
2, 1710780, Note_on_c, 0, 64, 93
2, 1710840, Note_off_c, 0, 64, 64
2, 1710840, Note_on_c, 0, 65, 93
2, 1710960, Note_off_c, 0, 65, 64
2, 1710960, Note_on_c, 0, 73, 93
2, 1711200, Note_off_c, 0, 73, 64
2, 1711260, Note_on_c, 0, 72, 93
2, 1711320, Note_off_c, 0, 72, 64
2, 1711320, Note_on_c, 0, 70, 93
2, 1711380, Note_off_c, 0, 70, 64
2, 1711380, Note_on_c, 0, 68, 93
2, 1711440, Note_off_c, 0, 68, 64
2, 1711440, Note_on_c, 0, 66, 93
2, 1711560, Note_off_c, 0, 66, 64
2, 1711560, Note_on_c, 0, 65, 93
2, 1711800, Note_off_c, 0, 65, 64
2, 1711800, Note_on_c, 0, 63, 93
2, 1712040, Note_off_c, 0, 63, 64
2, 1712040, Note_on_c, 0, 63, 93
2, 1712160, Note_off_c, 0, 63, 64
2, 1712160, Note_on_c, 0, 63, 93
2, 1712220, Note_off_c, 0, 63, 64
2, 1712220, Note_on_c, 0, 62, 93
2, 1712280, Note_off_c, 0, 62, 64
2, 1712280, Note_on_c, 0, 63, 93
2, 1712400, Note_off_c, 0, 63, 64
2, 1712400, Note_on_c, 0, 72, 93
2, 1712640, Note_off_c, 0, 72, 64
2, 1712700, Note_on_c, 0, 70, 93
2, 1712760, Note_off_c, 0, 70, 64
2, 1712760, Note_on_c, 0, 68, 93
2, 1712820, Note_off_c, 0, 68, 64
2, 1712820, Note_on_c, 0, 67, 93
2, 1712880, Note_off_c, 0, 67, 64
2, 1712880, Note_on_c, 0, 66, 93
2, 1713000, Note_off_c, 0, 66, 64
2, 1713000, Note_on_c, 0, 75, 93
2, 1713180, Note_off_c, 0, 75, 64
2, 1713180, Note_on_c, 0, 74, 93
2, 1713240, Note_off_c, 0, 74, 64
2, 1713240, Note_on_c, 0, 73, 93
2, 1713360, Note_off_c, 0, 73, 64
2, 1713360, Note_on_c, 0, 73, 93
2, 1713480, Note_off_c, 0, 73, 64
2, 1713480, Note_on_c, 0, 74, 93
2, 1713600, Note_off_c, 0, 74, 64
2, 1713600, Note_on_c, 0, 63, 93
2, 1713720, Note_off_c, 0, 63, 64
2, 1713720, Note_on_c, 0, 62, 93
2, 1713840, Note_off_c, 0, 62, 64
2, 1713900, Note_on_c, 0, 64, 93
2, 1713960, Note_off_c, 0, 64, 64
2, 1713960, Note_on_c, 0, 66, 93
2, 1714020, Note_off_c, 0, 66, 64
2, 1714020, Note_on_c, 0, 67, 93
2, 1714080, Note_off_c, 0, 67, 64
2, 1714080, Note_on_c, 0, 69, 93
2, 1714140, Note_off_c, 0, 69, 64
2, 1714140, Note_on_c, 0, 70, 93
2, 1714200, Note_off_c, 0, 70, 64
2, 1714200, Note_on_c, 0, 72, 93
2, 1714260, Note_off_c, 0, 72, 64
2, 1714260, Note_on_c, 0, 74, 93
2, 1714320, Note_off_c, 0, 74, 64
2, 1714320, Note_on_c, 0, 75, 93
2, 1714380, Note_off_c, 0, 75, 64
2, 1714380, Note_on_c, 0, 74, 93
2, 1714440, Note_off_c, 0, 74, 64
2, 1714440, Note_on_c, 0, 79, 93
2, 1714620, Note_off_c, 0, 79, 64
2, 1714620, Note_on_c, 0, 78, 93
2, 1714680, Note_off_c, 0, 78, 64
2, 1714680, Note_on_c, 0, 81, 93
2, 1714920, Note_off_c, 0, 81, 64
2, 1714920, Note_on_c, 0, 74, 93
2, 1715040, Note_off_c, 0, 74, 64
2, 1715040, Note_on_c, 0, 74, 93
2, 1715100, Note_off_c, 0, 74, 64
2, 1715100, Note_on_c, 0, 73, 93
2, 1715160, Note_off_c, 0, 73, 64
2, 1715160, Note_on_c, 0, 74, 93
2, 1715280, Note_off_c, 0, 74, 64
2, 1715280, Note_on_c, 0, 86, 93
2, 1715520, Note_off_c, 0, 86, 64
2, 1715580, Note_on_c, 0, 84, 93
2, 1715640, Note_off_c, 0, 84, 64
2, 1715640, Note_on_c, 0, 82, 93
2, 1715700, Note_off_c, 0, 82, 64
2, 1715700, Note_on_c, 0, 81, 93
2, 1715760, Note_off_c, 0, 81, 64
2, 1715760, Note_on_c, 0, 79, 93
2, 1715820, Note_off_c, 0, 79, 64
2, 1715820, Note_on_c, 0, 86, 93
2, 1715880, Note_off_c, 0, 86, 64
2, 1715880, Note_on_c, 0, 77, 93
2, 1716060, Note_off_c, 0, 77, 64
2, 1716060, Note_on_c, 0, 75, 93
2, 1716120, Note_off_c, 0, 75, 64
2, 1716120, Note_on_c, 0, 74, 93
2, 1716180, Note_off_c, 0, 74, 64
2, 1716180, Note_on_c, 0, 72, 93
2, 1716240, Note_off_c, 0, 72, 64
2, 1716240, Note_on_c, 0, 74, 93
2, 1716300, Note_off_c, 0, 74, 64
2, 1716300, Note_on_c, 0, 80, 93
2, 1716360, Note_off_c, 0, 80, 64
2, 1716360, Note_on_c, 0, 79, 93
2, 1716420, Note_off_c, 0, 79, 64
2, 1716420, Note_on_c, 0, 77, 93
2, 1716480, Note_off_c, 0, 77, 64
2, 1716480, Note_on_c, 0, 75, 93
2, 1716540, Note_off_c, 0, 75, 64
2, 1716540, Note_on_c, 0, 74, 93
2, 1716600, Note_off_c, 0, 74, 64
2, 1716600, Note_on_c, 0, 72, 93
2, 1716660, Note_off_c, 0, 72, 64
2, 1716660, Note_on_c, 0, 71, 93
2, 1716720, Note_off_c, 0, 71, 64
2, 1716720, Note_on_c, 0, 72, 93
2, 1716780, Note_off_c, 0, 72, 64
2, 1716780, Note_on_c, 0, 77, 93
2, 1716840, Note_off_c, 0, 77, 64
2, 1716840, Note_on_c, 0, 75, 93
2, 1716900, Note_off_c, 0, 75, 64
2, 1716900, Note_on_c, 0, 74, 93
2, 1716960, Note_off_c, 0, 74, 64
2, 1716960, Note_on_c, 0, 72, 93
2, 1717020, Note_off_c, 0, 72, 64
2, 1717020, Note_on_c, 0, 70, 93
2, 1717080, Note_off_c, 0, 70, 64
2, 1717080, Note_on_c, 0, 69, 93
2, 1717140, Note_off_c, 0, 69, 64
2, 1717140, Note_on_c, 0, 67, 93
2, 1717200, Note_off_c, 0, 67, 64
2, 1717200, Note_on_c, 0, 69, 93
2, 1717260, Note_off_c, 0, 69, 64
2, 1717260, Note_on_c, 0, 74, 93
2, 1717320, Note_off_c, 0, 74, 64
2, 1717320, Note_on_c, 0, 72, 93
2, 1717380, Note_off_c, 0, 72, 64
2, 1717380, Note_on_c, 0, 70, 93
2, 1717440, Note_off_c, 0, 70, 64
2, 1717440, Note_on_c, 0, 69, 93
2, 1717500, Note_off_c, 0, 69, 64
2, 1717500, Note_on_c, 0, 67, 93
2, 1717560, Note_off_c, 0, 67, 64
2, 1717560, Note_on_c, 0, 66, 93
2, 1717620, Note_off_c, 0, 66, 64
2, 1717620, Note_on_c, 0, 64, 93
2, 1717680, Note_off_c, 0, 64, 64
2, 1717680, Note_on_c, 0, 66, 93
2, 1717740, Note_off_c, 0, 66, 64
2, 1717740, Note_on_c, 0, 70, 93
2, 1717800, Note_off_c, 0, 70, 64
2, 1717800, Note_on_c, 0, 69, 93
2, 1717860, Note_off_c, 0, 69, 64
2, 1717860, Note_on_c, 0, 67, 93
2, 1717920, Note_off_c, 0, 67, 64
2, 1717920, Note_on_c, 0, 66, 93
2, 1717980, Note_off_c, 0, 66, 64
2, 1717980, Note_on_c, 0, 64, 93
2, 1718040, Note_off_c, 0, 64, 64
2, 1718040, Note_on_c, 0, 62, 93
2, 1718100, Note_off_c, 0, 62, 64
2, 1718100, Note_on_c, 0, 61, 93
2, 1718160, Note_off_c, 0, 61, 64
2, 1718160, Note_on_c, 0, 62, 93
2, 1718220, Note_off_c, 0, 62, 64
2, 1718220, Note_on_c, 0, 67, 93
2, 1718280, Note_off_c, 0, 67, 64
2, 1718280, Note_on_c, 0, 66, 93
2, 1718340, Note_off_c, 0, 66, 64
2, 1718340, Note_on_c, 0, 64, 93
2, 1718400, Note_off_c, 0, 64, 64
2, 1718400, Note_on_c, 0, 62, 93
2, 1718460, Note_off_c, 0, 62, 64
2, 1718460, Note_on_c, 0, 60, 93
2, 1718520, Note_off_c, 0, 60, 64
2, 1718520, Note_on_c, 0, 58, 93
2, 1718580, Note_off_c, 0, 58, 64
2, 1718580, Note_on_c, 0, 57, 93
2, 1718640, Note_off_c, 0, 57, 64
2, 1718640, Note_on_c, 0, 58, 93
2, 1718700, Note_off_c, 0, 58, 64
2, 1718700, Note_on_c, 0, 63, 93
2, 1718760, Note_off_c, 0, 63, 64
2, 1718760, Note_on_c, 0, 62, 93
2, 1718820, Note_off_c, 0, 62, 64
2, 1718820, Note_on_c, 0, 60, 93
2, 1718880, Note_off_c, 0, 60, 64
2, 1718880, Note_on_c, 0, 58, 93
2, 1718940, Note_off_c, 0, 58, 64
2, 1718940, Note_on_c, 0, 57, 93
2, 1719000, Note_off_c, 0, 57, 64
2, 1719000, Note_on_c, 0, 55, 93
2, 1719060, Note_off_c, 0, 55, 64
2, 1719060, Note_on_c, 0, 54, 93
2, 1719120, Note_off_c, 0, 54, 64
2, 1719120, Note_on_c, 0, 54, 93
2, 1719360, Note_off_c, 0, 54, 64
2, 1719360, Note_on_c, 0, 55, 93
2, 1719840, Note_off_c, 0, 55, 64
2, 1722000, Note_on_c, 0, 71, 119
2, 1722476, Note_off_c, 0, 71, 64
2, 1722480, Note_on_c, 0, 71, 119
2, 1722956, Note_off_c, 0, 71, 64
2, 1723200, Note_on_c, 0, 71, 119
2, 1723436, Note_off_c, 0, 71, 64
2, 1723440, Note_on_c, 0, 69, 111
2, 1723916, Note_off_c, 0, 69, 64
2, 1723920, Note_on_c, 0, 69, 121
2, 1724396, Note_off_c, 0, 69, 64
2, 1724640, Note_on_c, 0, 74, 121
2, 1724876, Note_off_c, 0, 74, 64
2, 1724880, Note_on_c, 0, 74, 119
2, 1725356, Note_off_c, 0, 74, 64
2, 1725360, Note_on_c, 0, 73, 125
2, 1725836, Note_off_c, 0, 73, 64
2, 1726080, Note_on_c, 0, 67, 123
2, 1726316, Note_off_c, 0, 67, 64
2, 1726320, Note_on_c, 0, 67, 119
2, 1726676, Note_off_c, 0, 67, 64
2, 1726680, Note_on_c, 0, 64, 124
2, 1726796, Note_off_c, 0, 64, 64
2, 1726800, Note_on_c, 0, 66, 127
2, 1727276, Note_off_c, 0, 66, 64
2, 1727520, Note_on_c, 0, 69, 123
2, 1727756, Note_off_c, 0, 69, 64
2, 1727760, Note_on_c, 0, 62, 124
2, 1728116, Note_off_c, 0, 62, 64
2, 1728120, Note_on_c, 0, 64, 127
2, 1728236, Note_off_c, 0, 64, 64
2, 1728240, Note_on_c, 0, 65, 126
2, 1728716, Note_off_c, 0, 65, 64
2, 1728960, Note_on_c, 0, 67, 119
2, 1729196, Note_off_c, 0, 67, 64
2, 1729200, Note_on_c, 0, 67, 119
2, 1729552, Note_off_c, 0, 67, 64
2, 1729560, Note_on_c, 0, 64, 119
2, 1729680, Note_off_c, 0, 64, 64
2, 1729680, Note_on_c, 0, 62, 119
2, 1729800, Note_off_c, 0, 62, 64
2, 1729800, Note_on_c, 0, 60, 119
2, 1730160, Note_off_c, 0, 60, 64
2, 1730400, Note_on_c, 0, 64, 119
2, 1730640, Note_off_c, 0, 64, 64
2, 1730640, Note_on_c, 0, 57, 119
2, 1731000, Note_off_c, 0, 57, 64
2, 1731000, Note_on_c, 0, 59, 119
2, 1731120, Note_off_c, 0, 59, 64
2, 1731120, Note_on_c, 0, 60, 119
2, 1731600, Note_off_c, 0, 60, 64
2, 1731840, Note_on_c, 0, 62, 119
2, 1732080, Note_off_c, 0, 62, 64
2, 1732080, Note_on_c, 0, 62, 119
2, 1732440, Note_off_c, 0, 62, 64
2, 1732440, Note_on_c, 0, 59, 119
2, 1732560, Note_off_c, 0, 59, 64
2, 1732560, Note_on_c, 0, 55, 119
2, 1733040, Note_off_c, 0, 55, 64
2, 1733520, Note_on_c, 0, 79, 119
2, 1733880, Note_off_c, 0, 79, 64
2, 1733880, Note_on_c, 0, 78, 119
2, 1733940, Note_off_c, 0, 78, 64
2, 1733940, Note_on_c, 0, 76, 119
2, 1734000, Note_off_c, 0, 76, 64
2, 1734000, Note_on_c, 0, 74, 119
2, 1734480, Note_off_c, 0, 74, 64
2, 1734720, Note_on_c, 0, 83, 119
2, 1734960, Note_off_c, 0, 83, 64
2, 1734960, Note_on_c, 0, 81, 119
2, 1735440, Note_off_c, 0, 81, 64
2, 1735440, Note_on_c, 0, 81, 119
2, 1735920, Note_off_c, 0, 81, 64
2, 1736160, Note_on_c, 0, 81, 119
2, 1736400, Note_off_c, 0, 81, 64
2, 1736400, Note_on_c, 0, 81, 119
2, 1736880, Note_off_c, 0, 81, 64
2, 1736880, Note_on_c, 0, 79, 119
2, 1737360, Note_off_c, 0, 79, 64
2, 1737600, Note_on_c, 0, 79, 119
2, 1737840, Note_off_c, 0, 79, 64
2, 1737840, Note_on_c, 0, 79, 119
2, 1738200, Note_off_c, 0, 79, 64
2, 1738200, Note_on_c, 0, 76, 119
2, 1738320, Note_off_c, 0, 76, 64
2, 1738320, Note_on_c, 0, 71, 119
2, 1738440, Note_off_c, 0, 71, 64
2, 1738440, Note_on_c, 0, 69, 119
2, 1738800, Note_off_c, 0, 69, 64
2, 1739040, Note_on_c, 0, 79, 119
2, 1739280, Note_off_c, 0, 79, 64
2, 1739280, Note_on_c, 0, 79, 119
2, 1739640, Note_off_c, 0, 79, 64
2, 1739640, Note_on_c, 0, 76, 119
2, 1739760, Note_off_c, 0, 76, 64
2, 1739760, Note_on_c, 0, 76, 119
2, 1739880, Note_off_c, 0, 76, 64
2, 1739880, Note_on_c, 0, 78, 119
2, 1740240, Note_off_c, 0, 78, 64
2, 1740480, Note_on_c, 0, 81, 119
2, 1740720, Note_off_c, 0, 81, 64
2, 1740720, Note_on_c, 0, 83, 119
2, 1741080, Note_off_c, 0, 83, 64
2, 1741080, Note_on_c, 0, 78, 119
2, 1741200, Note_off_c, 0, 78, 64
2, 1741200, Note_on_c, 0, 78, 119
2, 1741320, Note_off_c, 0, 78, 64
2, 1741320, Note_on_c, 0, 79, 119
2, 1741680, Note_off_c, 0, 79, 64
2, 1741920, Note_on_c, 0, 79, 119
2, 1742160, Note_off_c, 0, 79, 64
2, 1742160, Note_on_c, 0, 79, 119
2, 1742640, Note_off_c, 0, 79, 64
2, 1742640, Note_on_c, 0, 73, 119
2, 1743120, Note_off_c, 0, 73, 64
2, 1743360, Note_on_c, 0, 69, 119
2, 1743600, Note_off_c, 0, 69, 64
2, 1743600, Note_on_c, 0, 69, 119
2, 1743960, Note_off_c, 0, 69, 64
2, 1743960, Note_on_c, 0, 64, 119
2, 1744080, Note_off_c, 0, 64, 64
2, 1744080, Note_on_c, 0, 64, 119
2, 1744200, Note_off_c, 0, 64, 64
2, 1744200, Note_on_c, 0, 66, 119
2, 1744560, Note_off_c, 0, 66, 64
2, 1745040, Note_on_c, 0, 66, 123
2, 1745396, Note_off_c, 0, 66, 64
2, 1745400, Note_on_c, 0, 64, 106
2, 1745516, Note_off_c, 0, 64, 64
2, 1745520, Note_on_c, 0, 66, 106
2, 1746000, Note_off_c, 0, 66, 64
2, 1746240, Note_on_c, 0, 62, 104
2, 1746476, Note_off_c, 0, 62, 64
2, 1746480, Note_on_c, 0, 67, 109
2, 1746836, Note_off_c, 0, 67, 64
2, 1746840, Note_on_c, 0, 69, 97
2, 1746956, Note_off_c, 0, 69, 64
2, 1746960, Note_on_c, 0, 69, 106
2, 1747076, Note_off_c, 0, 69, 64
2, 1747080, Note_on_c, 0, 71, 102
2, 1747440, Note_off_c, 0, 71, 64
2, 1747680, Note_on_c, 0, 79, 104
2, 1747916, Note_off_c, 0, 79, 64
2, 1747920, Note_on_c, 0, 76, 104
2, 1748280, Note_off_c, 0, 76, 64
2, 1748280, Note_on_c, 0, 83, 113
2, 1748400, Note_off_c, 0, 83, 64
2, 1748400, Note_on_c, 0, 81, 106
2, 1748880, Note_off_c, 0, 81, 64
2, 1749120, Note_on_c, 0, 81, 109
2, 1749360, Note_off_c, 0, 81, 64
2, 1749360, Note_on_c, 0, 81, 119
2, 1749716, Note_off_c, 0, 81, 64
2, 1749720, Note_on_c, 0, 78, 109
2, 1749836, Note_off_c, 0, 78, 64
2, 1749840, Note_on_c, 0, 75, 108
2, 1750320, Note_off_c, 0, 75, 64
2, 1750560, Note_on_c, 0, 78, 112
2, 1750796, Note_off_c, 0, 78, 64
2, 1750800, Note_on_c, 0, 79, 119
2, 1751156, Note_off_c, 0, 79, 64
2, 1751160, Note_on_c, 0, 78, 117
2, 1751276, Note_off_c, 0, 78, 64
2, 1751280, Note_on_c, 0, 76, 124
2, 1751996, Note_off_c, 0, 76, 64
2, 1752000, Note_on_c, 0, 79, 104
2, 1752240, Note_off_c, 0, 79, 64
2, 1752240, Note_on_c, 0, 79, 104
2, 1752720, Note_off_c, 0, 79, 64
2, 1752720, Note_on_c, 0, 77, 104
2, 1753200, Note_off_c, 0, 77, 64
2, 1753440, Note_on_c, 0, 81, 104
2, 1753680, Note_off_c, 0, 81, 64
2, 1753680, Note_on_c, 0, 81, 104
2, 1754040, Note_off_c, 0, 81, 64
2, 1754040, Note_on_c, 0, 78, 104
2, 1754160, Note_off_c, 0, 78, 64
2, 1754160, Note_on_c, 0, 75, 104
2, 1754640, Note_off_c, 0, 75, 64
2, 1754880, Note_on_c, 0, 78, 104
2, 1755120, Note_off_c, 0, 78, 64
2, 1755120, Note_on_c, 0, 78, 104
2, 1755480, Note_off_c, 0, 78, 64
2, 1755480, Note_on_c, 0, 75, 104
2, 1755600, Note_off_c, 0, 75, 64
2, 1755600, Note_on_c, 0, 76, 104
2, 1755660, Note_off_c, 0, 76, 64
2, 1755660, Note_on_c, 0, 75, 104
2, 1755720, Note_off_c, 0, 75, 64
2, 1755720, Note_on_c, 0, 76, 104
2, 1756080, Note_off_c, 0, 76, 64
2, 1756160, Note_on_c, 0, 52, 92
2, 1756236, Note_off_c, 0, 52, 64
2, 1756240, Note_on_c, 0, 54, 90
2, 1756316, Note_off_c, 0, 54, 64
2, 1756320, Note_on_c, 0, 55, 101
2, 1756396, Note_off_c, 0, 55, 64
2, 1756400, Note_on_c, 0, 57, 104
2, 1756476, Note_off_c, 0, 57, 64
2, 1756480, Note_on_c, 0, 59, 117
2, 1756556, Note_off_c, 0, 59, 64
2, 1756560, Note_on_c, 0, 64, 104
2, 1756800, Note_off_c, 0, 64, 64
2, 1756920, Note_on_c, 0, 68, 104
2, 1757040, Note_off_c, 0, 68, 64
2, 1757040, Note_on_c, 0, 69, 104
2, 1757400, Note_off_c, 0, 69, 64
2, 1757400, Note_on_c, 0, 71, 104
2, 1757520, Note_off_c, 0, 71, 64
2, 1757520, Note_on_c, 0, 72, 104
2, 1758240, Note_off_c, 0, 72, 64
2, 1758360, Note_on_c, 0, 66, 104
2, 1758480, Note_off_c, 0, 66, 64
2, 1758480, Note_on_c, 0, 67, 104
2, 1758840, Note_off_c, 0, 67, 64
2, 1758840, Note_on_c, 0, 69, 104
2, 1758960, Note_off_c, 0, 69, 64
2, 1758960, Note_on_c, 0, 71, 104
2, 1759680, Note_off_c, 0, 71, 64
2, 1759800, Note_on_c, 0, 64, 104
2, 1759920, Note_off_c, 0, 64, 64
2, 1759920, Note_on_c, 0, 66, 104
2, 1760280, Note_off_c, 0, 66, 64
2, 1760280, Note_on_c, 0, 67, 104
2, 1760400, Note_off_c, 0, 67, 64
2, 1760400, Note_on_c, 0, 69, 104
2, 1760760, Note_off_c, 0, 69, 64
2, 1760760, Note_on_c, 0, 67, 104
2, 1760880, Note_off_c, 0, 67, 64
2, 1760880, Note_on_c, 0, 66, 104
2, 1760956, Note_off_c, 0, 66, 64
2, 1760960, Note_on_c, 0, 67, 90
2, 1761036, Note_off_c, 0, 67, 64
2, 1761040, Note_on_c, 0, 66, 102
2, 1761116, Note_off_c, 0, 66, 64
2, 1761120, Note_on_c, 0, 61, 104
2, 1761196, Note_off_c, 0, 61, 64
2, 1761200, Note_on_c, 0, 62, 84
2, 1761276, Note_off_c, 0, 62, 64
2, 1761280, Note_on_c, 0, 64, 104
2, 1761356, Note_off_c, 0, 64, 64
2, 1761360, Note_on_c, 0, 66, 94
2, 1761436, Note_off_c, 0, 66, 64
2, 1761440, Note_on_c, 0, 64, 93
2, 1761516, Note_off_c, 0, 64, 64
2, 1761520, Note_on_c, 0, 66, 90
2, 1761596, Note_off_c, 0, 66, 64
2, 1761600, Note_on_c, 0, 67, 104
2, 1761676, Note_off_c, 0, 67, 64
2, 1761680, Note_on_c, 0, 66, 93
2, 1761756, Note_off_c, 0, 66, 64
2, 1761760, Note_on_c, 0, 67, 104
2, 1761836, Note_off_c, 0, 67, 64
2, 1761840, Note_on_c, 0, 69, 98
2, 1761916, Note_off_c, 0, 69, 64
2, 1761920, Note_on_c, 0, 67, 85
2, 1761996, Note_off_c, 0, 67, 64
2, 1762000, Note_on_c, 0, 69, 88
2, 1762076, Note_off_c, 0, 69, 64
2, 1762080, Note_on_c, 0, 71, 91
2, 1762156, Note_off_c, 0, 71, 64
2, 1762160, Note_on_c, 0, 67, 95
2, 1762236, Note_off_c, 0, 67, 64
2, 1762240, Note_on_c, 0, 69, 93
2, 1762316, Note_off_c, 0, 69, 64
2, 1762320, Note_on_c, 0, 71, 93
2, 1762396, Note_off_c, 0, 71, 64
2, 1762400, Note_on_c, 0, 72, 98
2, 1762476, Note_off_c, 0, 72, 64
2, 1762480, Note_on_c, 0, 71, 88
2, 1762556, Note_off_c, 0, 71, 64
2, 1762560, Note_on_c, 0, 66, 90
2, 1762636, Note_off_c, 0, 66, 64
2, 1762640, Note_on_c, 0, 67, 92
2, 1762716, Note_off_c, 0, 67, 64
2, 1762720, Note_on_c, 0, 69, 88
2, 1762796, Note_off_c, 0, 69, 64
2, 1762800, Note_on_c, 0, 71, 104
2, 1762876, Note_off_c, 0, 71, 64
2, 1762880, Note_on_c, 0, 69, 92
2, 1762956, Note_off_c, 0, 69, 64
2, 1762960, Note_on_c, 0, 71, 96
2, 1763036, Note_off_c, 0, 71, 64
2, 1763040, Note_on_c, 0, 72, 100
2, 1763116, Note_off_c, 0, 72, 64
2, 1763120, Note_on_c, 0, 71, 106
2, 1763196, Note_off_c, 0, 71, 64
2, 1763200, Note_on_c, 0, 72, 107
2, 1763276, Note_off_c, 0, 72, 64
2, 1763280, Note_on_c, 0, 74, 96
2, 1763356, Note_off_c, 0, 74, 64
2, 1763360, Note_on_c, 0, 72, 90
2, 1763436, Note_off_c, 0, 72, 64
2, 1763440, Note_on_c, 0, 74, 90
2, 1763516, Note_off_c, 0, 74, 64
2, 1763520, Note_on_c, 0, 76, 100
2, 1763596, Note_off_c, 0, 76, 64
2, 1763600, Note_on_c, 0, 72, 104
2, 1763676, Note_off_c, 0, 72, 64
2, 1763680, Note_on_c, 0, 74, 101
2, 1763756, Note_off_c, 0, 74, 64
2, 1763760, Note_on_c, 0, 76, 104
2, 1763836, Note_off_c, 0, 76, 64
2, 1763840, Note_on_c, 0, 77, 102
2, 1763916, Note_off_c, 0, 77, 64
2, 1763920, Note_on_c, 0, 76, 106
2, 1763996, Note_off_c, 0, 76, 64
2, 1764000, Note_on_c, 0, 71, 100
2, 1764076, Note_off_c, 0, 71, 64
2, 1764080, Note_on_c, 0, 72, 102
2, 1764156, Note_off_c, 0, 72, 64
2, 1764160, Note_on_c, 0, 74, 92
2, 1764236, Note_off_c, 0, 74, 64
2, 1764240, Note_on_c, 0, 76, 98
2, 1764316, Note_off_c, 0, 76, 64
2, 1764320, Note_on_c, 0, 74, 100
2, 1764396, Note_off_c, 0, 74, 64
2, 1764400, Note_on_c, 0, 76, 107
2, 1764476, Note_off_c, 0, 76, 64
2, 1764480, Note_on_c, 0, 78, 99
2, 1764556, Note_off_c, 0, 78, 64
2, 1764560, Note_on_c, 0, 76, 96
2, 1764636, Note_off_c, 0, 76, 64
2, 1764640, Note_on_c, 0, 78, 101
2, 1764716, Note_off_c, 0, 78, 64
2, 1764720, Note_on_c, 0, 79, 101
2, 1764796, Note_off_c, 0, 79, 64
2, 1764800, Note_on_c, 0, 78, 93
2, 1764876, Note_off_c, 0, 78, 64
2, 1764880, Note_on_c, 0, 79, 98
2, 1764956, Note_off_c, 0, 79, 64
2, 1764960, Note_on_c, 0, 81, 104
2, 1765036, Note_off_c, 0, 81, 64
2, 1765040, Note_on_c, 0, 78, 93
2, 1765116, Note_off_c, 0, 78, 64
2, 1765120, Note_on_c, 0, 79, 102
2, 1765196, Note_off_c, 0, 79, 64
2, 1765200, Note_on_c, 0, 81, 102
2, 1765276, Note_off_c, 0, 81, 64
2, 1765280, Note_on_c, 0, 83, 106
2, 1765356, Note_off_c, 0, 83, 64
2, 1765360, Note_on_c, 0, 81, 100
2, 1765436, Note_off_c, 0, 81, 64
2, 1765440, Note_on_c, 0, 78, 96
2, 1765516, Note_off_c, 0, 78, 64
2, 1765520, Note_on_c, 0, 79, 97
2, 1765596, Note_off_c, 0, 79, 64
2, 1765600, Note_on_c, 0, 81, 90
2, 1765676, Note_off_c, 0, 81, 64
2, 1765680, Note_on_c, 0, 83, 107
2, 1765756, Note_off_c, 0, 83, 64
2, 1765760, Note_on_c, 0, 81, 90
2, 1765836, Note_off_c, 0, 81, 64
2, 1765840, Note_on_c, 0, 83, 107
2, 1765916, Note_off_c, 0, 83, 64
2, 1765920, Note_on_c, 0, 86, 100
2, 1765996, Note_off_c, 0, 86, 64
2, 1766000, Note_on_c, 0, 84, 86
2, 1766076, Note_off_c, 0, 84, 64
2, 1766080, Note_on_c, 0, 83, 102
2, 1766156, Note_off_c, 0, 83, 64
2, 1766160, Note_on_c, 0, 81, 98
2, 1766236, Note_off_c, 0, 81, 64
2, 1766240, Note_on_c, 0, 79, 85
2, 1766316, Note_off_c, 0, 79, 64
2, 1766320, Note_on_c, 0, 78, 93
2, 1766396, Note_off_c, 0, 78, 64
2, 1766400, Note_on_c, 0, 76, 85
2, 1766476, Note_off_c, 0, 76, 64
2, 1766480, Note_on_c, 0, 74, 85
2, 1766556, Note_off_c, 0, 74, 64
2, 1766560, Note_on_c, 0, 72, 93
2, 1766636, Note_off_c, 0, 72, 64
2, 1766640, Note_on_c, 0, 71, 97
2, 1766716, Note_off_c, 0, 71, 64
2, 1766720, Note_on_c, 0, 69, 84
2, 1766796, Note_off_c, 0, 69, 64
2, 1766800, Note_on_c, 0, 67, 98
2, 1766876, Note_off_c, 0, 67, 64
2, 1766880, Note_on_c, 0, 66, 94
2, 1766956, Note_off_c, 0, 66, 64
2, 1766960, Note_on_c, 0, 67, 97
2, 1767036, Note_off_c, 0, 67, 64
2, 1767040, Note_on_c, 0, 62, 97
2, 1767116, Note_off_c, 0, 62, 64
2, 1767120, Note_on_c, 0, 59, 121
2, 1767356, Note_off_c, 0, 59, 64
2, 1769520, Note_on_c, 0, 69, 106
2, 1769756, Note_off_c, 0, 69, 64
2, 1769760, Note_on_c, 0, 71, 102
2, 1769876, Note_off_c, 0, 71, 64
2, 1769880, Note_on_c, 0, 73, 89
2, 1769996, Note_off_c, 0, 73, 64
2, 1770000, Note_on_c, 0, 74, 95
2, 1770116, Note_off_c, 0, 74, 64
2, 1770120, Note_on_c, 0, 76, 97
2, 1770236, Note_off_c, 0, 76, 64
2, 1770240, Note_on_c, 0, 78, 97
2, 1770356, Note_off_c, 0, 78, 64
2, 1770360, Note_on_c, 0, 76, 100
2, 1770476, Note_off_c, 0, 76, 64
2, 1770480, Note_on_c, 0, 74, 101
2, 1770596, Note_off_c, 0, 74, 64
2, 1770600, Note_on_c, 0, 76, 97
2, 1770716, Note_off_c, 0, 76, 64
2, 1770720, Note_on_c, 0, 78, 110
2, 1770956, Note_off_c, 0, 78, 64
2, 1770960, Note_on_c, 0, 67, 109
2, 1771200, Note_off_c, 0, 67, 64
2, 1771680, Note_on_c, 0, 76, 109
2, 1771916, Note_off_c, 0, 76, 64
2, 1772400, Note_on_c, 0, 66, 110
2, 1772636, Note_off_c, 0, 66, 64
2, 1772640, Note_on_c, 0, 67, 95
2, 1772756, Note_off_c, 0, 67, 64
2, 1772760, Note_on_c, 0, 69, 100
2, 1772876, Note_off_c, 0, 69, 64
2, 1772880, Note_on_c, 0, 71, 97
2, 1772996, Note_off_c, 0, 71, 64
2, 1773000, Note_on_c, 0, 72, 92
2, 1773116, Note_off_c, 0, 72, 64
2, 1773120, Note_on_c, 0, 74, 92
2, 1773236, Note_off_c, 0, 74, 64
2, 1773240, Note_on_c, 0, 76, 96
2, 1773356, Note_off_c, 0, 76, 64
2, 1773360, Note_on_c, 0, 74, 100
2, 1773476, Note_off_c, 0, 74, 64
2, 1773480, Note_on_c, 0, 72, 91
2, 1773596, Note_off_c, 0, 72, 64
2, 1773600, Note_on_c, 0, 74, 101
2, 1773836, Note_off_c, 0, 74, 64
2, 1773840, Note_on_c, 0, 74, 109
2, 1774080, Note_off_c, 0, 74, 64
2, 1774560, Note_on_c, 0, 67, 109
2, 1774796, Note_off_c, 0, 67, 64
2, 1775280, Note_on_c, 0, 72, 113
2, 1775396, Note_off_c, 0, 72, 64
2, 1775400, Note_on_c, 0, 74, 89
2, 1775516, Note_off_c, 0, 74, 64
2, 1775520, Note_on_c, 0, 72, 102
2, 1775636, Note_off_c, 0, 72, 64
2, 1775640, Note_on_c, 0, 71, 96
2, 1775756, Note_off_c, 0, 71, 64
2, 1775760, Note_on_c, 0, 69, 90
2, 1775876, Note_off_c, 0, 69, 64
2, 1775880, Note_on_c, 0, 67, 95
2, 1775996, Note_off_c, 0, 67, 64
2, 1776000, Note_on_c, 0, 66, 93
2, 1776116, Note_off_c, 0, 66, 64
2, 1776120, Note_on_c, 0, 69, 88
2, 1776236, Note_off_c, 0, 69, 64
2, 1776240, Note_on_c, 0, 72, 101
2, 1776356, Note_off_c, 0, 72, 64
2, 1776360, Note_on_c, 0, 76, 93
2, 1776476, Note_off_c, 0, 76, 64
2, 1776480, Note_on_c, 0, 74, 91
2, 1776596, Note_off_c, 0, 74, 64
2, 1776600, Note_on_c, 0, 72, 90
2, 1776716, Note_off_c, 0, 72, 64
2, 1776720, Note_on_c, 0, 71, 91
2, 1776836, Note_off_c, 0, 71, 64
2, 1776840, Note_on_c, 0, 72, 97
2, 1776956, Note_off_c, 0, 72, 64
2, 1776960, Note_on_c, 0, 71, 91
2, 1777076, Note_off_c, 0, 71, 64
2, 1777080, Note_on_c, 0, 69, 92
2, 1777196, Note_off_c, 0, 69, 64
2, 1777200, Note_on_c, 0, 67, 97
2, 1777316, Note_off_c, 0, 67, 64
2, 1777320, Note_on_c, 0, 66, 92
2, 1777436, Note_off_c, 0, 66, 64
2, 1777440, Note_on_c, 0, 64, 102
2, 1777556, Note_off_c, 0, 64, 64
2, 1777560, Note_on_c, 0, 67, 101
2, 1777676, Note_off_c, 0, 67, 64
2, 1777680, Note_on_c, 0, 71, 91
2, 1777796, Note_off_c, 0, 71, 64
2, 1777800, Note_on_c, 0, 74, 100
2, 1777916, Note_off_c, 0, 74, 64
2, 1777920, Note_on_c, 0, 72, 97
2, 1778036, Note_off_c, 0, 72, 64
2, 1778040, Note_on_c, 0, 71, 102
2, 1778156, Note_off_c, 0, 71, 64
2, 1778160, Note_on_c, 0, 69, 98
2, 1778396, Note_off_c, 0, 69, 64
2, 1778400, Note_on_c, 0, 72, 107
2, 1778460, Note_off_c, 0, 72, 64
2, 1778460, Note_on_c, 0, 71, 92
2, 1778520, Note_off_c, 0, 71, 64
2, 1778520, Note_on_c, 0, 69, 88
2, 1778580, Note_off_c, 0, 69, 64
2, 1778580, Note_on_c, 0, 71, 95
2, 1778640, Note_off_c, 0, 71, 64
2, 1778640, Note_on_c, 0, 72, 104
2, 1778876, Note_off_c, 0, 72, 64
2, 1778880, Note_on_c, 0, 62, 101
2, 1779116, Note_off_c, 0, 62, 64
2, 1779120, Note_on_c, 0, 74, 113
2, 1779716, Note_off_c, 0, 74, 64
2, 1779720, Note_on_c, 0, 78, 115
2, 1779836, Note_off_c, 0, 78, 64
2, 1779840, Note_on_c, 0, 76, 107
2, 1779956, Note_off_c, 0, 76, 64
2, 1779960, Note_on_c, 0, 74, 86
2, 1780076, Note_off_c, 0, 74, 64
2, 1780080, Note_on_c, 0, 73, 106
2, 1780196, Note_off_c, 0, 73, 64
2, 1780200, Note_on_c, 0, 71, 96
2, 1780316, Note_off_c, 0, 71, 64
2, 1780320, Note_on_c, 0, 73, 99
2, 1780436, Note_off_c, 0, 73, 64
2, 1780440, Note_on_c, 0, 74, 98
2, 1780556, Note_off_c, 0, 74, 64
2, 1780560, Note_on_c, 0, 76, 93
2, 1780676, Note_off_c, 0, 76, 64
2, 1780680, Note_on_c, 0, 73, 92
2, 1780796, Note_off_c, 0, 73, 64
2, 1780800, Note_on_c, 0, 74, 102
2, 1780916, Note_off_c, 0, 74, 64
2, 1780920, Note_on_c, 0, 76, 100
2, 1781036, Note_off_c, 0, 76, 64
2, 1781040, Note_on_c, 0, 71, 113
2, 1781100, Note_off_c, 0, 71, 64
2, 1781100, Note_on_c, 0, 69, 78
2, 1781160, Note_off_c, 0, 69, 64
2, 1781160, Note_on_c, 0, 71, 85
2, 1781220, Note_off_c, 0, 71, 64
2, 1781220, Note_on_c, 0, 69, 95
2, 1781280, Note_off_c, 0, 69, 64
2, 1781280, Note_on_c, 0, 71, 81
2, 1781340, Note_off_c, 0, 71, 64
2, 1781340, Note_on_c, 0, 69, 81
2, 1781400, Note_off_c, 0, 69, 64
2, 1781400, Note_on_c, 0, 71, 74
2, 1781460, Note_off_c, 0, 71, 64
2, 1781460, Note_on_c, 0, 69, 80
2, 1781520, Note_off_c, 0, 69, 64
2, 1781520, Note_on_c, 0, 71, 84
2, 1781580, Note_off_c, 0, 71, 64
2, 1781580, Note_on_c, 0, 69, 73
2, 1781640, Note_off_c, 0, 69, 64
2, 1781640, Note_on_c, 0, 71, 78
2, 1781700, Note_off_c, 0, 71, 64
2, 1781700, Note_on_c, 0, 69, 76
2, 1781760, Note_off_c, 0, 69, 64
2, 1781760, Note_on_c, 0, 71, 86
2, 1781820, Note_off_c, 0, 71, 64
2, 1781820, Note_on_c, 0, 69, 77
2, 1781880, Note_off_c, 0, 69, 64
2, 1781880, Note_on_c, 0, 71, 84
2, 1781940, Note_off_c, 0, 71, 64
2, 1781940, Note_on_c, 0, 69, 77
2, 1782000, Note_off_c, 0, 69, 64
2, 1782000, Note_on_c, 0, 71, 84
2, 1782060, Note_off_c, 0, 71, 64
2, 1782060, Note_on_c, 0, 69, 70
2, 1782120, Note_off_c, 0, 69, 64
2, 1782120, Note_on_c, 0, 71, 81
2, 1782180, Note_off_c, 0, 71, 64
2, 1782180, Note_on_c, 0, 69, 74
2, 1782240, Note_off_c, 0, 69, 64
2, 1782240, Note_on_c, 0, 71, 82
2, 1782300, Note_off_c, 0, 71, 64
2, 1782300, Note_on_c, 0, 69, 72
2, 1782360, Note_off_c, 0, 69, 64
2, 1782360, Note_on_c, 0, 67, 85
2, 1782420, Note_off_c, 0, 67, 64
2, 1782420, Note_on_c, 0, 69, 77
2, 1782480, Note_off_c, 0, 69, 64
2, 1782480, Note_on_c, 0, 71, 97
2, 1782540, Note_off_c, 0, 71, 64
2, 1782540, Note_on_c, 0, 69, 97
2, 1782600, Note_off_c, 0, 69, 64
2, 1782600, Note_on_c, 0, 69, 93
2, 1782716, Note_off_c, 0, 69, 64
2, 1782720, Note_on_c, 0, 67, 88
2, 1782836, Note_off_c, 0, 67, 64
2, 1782840, Note_on_c, 0, 66, 96
2, 1782956, Note_off_c, 0, 66, 64
2, 1782960, Note_on_c, 0, 64, 93
2, 1783076, Note_off_c, 0, 64, 64
2, 1783080, Note_on_c, 0, 62, 89
2, 1783196, Note_off_c, 0, 62, 64
2, 1783200, Note_on_c, 0, 61, 94
2, 1783316, Note_off_c, 0, 61, 64
2, 1783320, Note_on_c, 0, 62, 91
2, 1783436, Note_off_c, 0, 62, 64
2, 1783440, Note_on_c, 0, 64, 90
2, 1783556, Note_off_c, 0, 64, 64
2, 1783560, Note_on_c, 0, 62, 95
2, 1783676, Note_off_c, 0, 62, 64
2, 1783680, Note_on_c, 0, 64, 92
2, 1783796, Note_off_c, 0, 64, 64
2, 1783800, Note_on_c, 0, 61, 88
2, 1783916, Note_off_c, 0, 61, 64
2, 1783920, Note_on_c, 0, 66, 117
2, 1784160, Note_off_c, 0, 66, 64
2, 1784640, Note_on_c, 0, 59, 119
2, 1784876, Note_off_c, 0, 59, 64
2, 1785360, Note_on_c, 0, 71, 115
2, 1785476, Note_off_c, 0, 71, 64
2, 1785480, Note_on_c, 0, 72, 101
2, 1785596, Note_off_c, 0, 72, 64
2, 1785600, Note_on_c, 0, 71, 95
2, 1785716, Note_off_c, 0, 71, 64
2, 1785720, Note_on_c, 0, 69, 98
2, 1785836, Note_off_c, 0, 69, 64
2, 1785840, Note_on_c, 0, 67, 88
2, 1785956, Note_off_c, 0, 67, 64
2, 1785960, Note_on_c, 0, 66, 94
2, 1786076, Note_off_c, 0, 66, 64
2, 1786080, Note_on_c, 0, 64, 78
2, 1786196, Note_off_c, 0, 64, 64
2, 1786200, Note_on_c, 0, 67, 80
2, 1786316, Note_off_c, 0, 67, 64
2, 1786320, Note_on_c, 0, 71, 86
2, 1786436, Note_off_c, 0, 71, 64
2, 1786440, Note_on_c, 0, 74, 96
2, 1786556, Note_off_c, 0, 74, 64
2, 1786560, Note_on_c, 0, 73, 88
2, 1786676, Note_off_c, 0, 73, 64
2, 1786680, Note_on_c, 0, 71, 101
2, 1786796, Note_off_c, 0, 71, 64
2, 1786800, Note_on_c, 0, 69, 95
2, 1786916, Note_off_c, 0, 69, 64
2, 1786920, Note_on_c, 0, 71, 80
2, 1787036, Note_off_c, 0, 71, 64
2, 1787040, Note_on_c, 0, 69, 92
2, 1787156, Note_off_c, 0, 69, 64
2, 1787160, Note_on_c, 0, 67, 88
2, 1787276, Note_off_c, 0, 67, 64
2, 1787280, Note_on_c, 0, 66, 97
2, 1787396, Note_off_c, 0, 66, 64
2, 1787400, Note_on_c, 0, 64, 85
2, 1787516, Note_off_c, 0, 64, 64
2, 1787520, Note_on_c, 0, 63, 94
2, 1787636, Note_off_c, 0, 63, 64
2, 1787640, Note_on_c, 0, 66, 85
2, 1787756, Note_off_c, 0, 66, 64
2, 1787760, Note_on_c, 0, 69, 88
2, 1787876, Note_off_c, 0, 69, 64
2, 1787880, Note_on_c, 0, 72, 95
2, 1787996, Note_off_c, 0, 72, 64
2, 1788000, Note_on_c, 0, 71, 95
2, 1788116, Note_off_c, 0, 71, 64
2, 1788120, Note_on_c, 0, 69, 92
2, 1788236, Note_off_c, 0, 69, 64
2, 1788240, Note_on_c, 0, 67, 100
2, 1788476, Note_off_c, 0, 67, 64
2, 1788480, Note_on_c, 0, 71, 104
2, 1788540, Note_off_c, 0, 71, 64
2, 1788540, Note_on_c, 0, 69, 91
2, 1788600, Note_off_c, 0, 69, 64
2, 1788600, Note_on_c, 0, 67, 99
2, 1788660, Note_off_c, 0, 67, 64
2, 1788660, Note_on_c, 0, 69, 85
2, 1788720, Note_off_c, 0, 69, 64
2, 1788720, Note_on_c, 0, 71, 66
2, 1789200, Note_off_c, 0, 71, 64
2, 1789200, Note_on_c, 0, 69, 106
2, 1789436, Note_off_c, 0, 69, 64
2, 1789440, Note_on_c, 0, 67, 104
2, 1789796, Note_off_c, 0, 67, 64
2, 1789800, Note_on_c, 0, 66, 97
2, 1789916, Note_off_c, 0, 66, 64
2, 1789920, Note_on_c, 0, 64, 104
2, 1790036, Note_off_c, 0, 64, 64
2, 1790040, Note_on_c, 0, 62, 97
2, 1790156, Note_off_c, 0, 62, 64
2, 1790160, Note_on_c, 0, 64, 98
2, 1790276, Note_off_c, 0, 64, 64
2, 1790280, Note_on_c, 0, 61, 97
2, 1790396, Note_off_c, 0, 61, 64
2, 1790400, Note_on_c, 0, 62, 107
2, 1790876, Note_off_c, 0, 62, 64
2, 1791120, Note_on_c, 0, 81, 92
2, 1791360, Note_off_c, 0, 81, 64
2, 1791360, Note_on_c, 0, 79, 96
2, 1791476, Note_off_c, 0, 79, 64
2, 1791480, Note_on_c, 0, 78, 99
2, 1791596, Note_off_c, 0, 78, 64
2, 1791600, Note_on_c, 0, 76, 104
2, 1791716, Note_off_c, 0, 76, 64
2, 1791720, Note_on_c, 0, 74, 93
2, 1791836, Note_off_c, 0, 74, 64
2, 1791840, Note_on_c, 0, 72, 104
2, 1791956, Note_off_c, 0, 72, 64
2, 1791960, Note_on_c, 0, 74, 97
2, 1792076, Note_off_c, 0, 74, 64
2, 1792080, Note_on_c, 0, 76, 90
2, 1792196, Note_off_c, 0, 76, 64
2, 1792200, Note_on_c, 0, 74, 88
2, 1792316, Note_off_c, 0, 74, 64
2, 1792320, Note_on_c, 0, 72, 93
2, 1792436, Note_off_c, 0, 72, 64
2, 1792440, Note_on_c, 0, 81, 98
2, 1792556, Note_off_c, 0, 81, 64
2, 1792560, Note_on_c, 0, 71, 111
2, 1792800, Note_off_c, 0, 71, 64
2, 1793280, Note_on_c, 0, 79, 113
2, 1793520, Note_off_c, 0, 79, 64
2, 1794000, Note_on_c, 0, 84, 97
2, 1794116, Note_off_c, 0, 84, 64
2, 1794120, Note_on_c, 0, 86, 91
2, 1794236, Note_off_c, 0, 86, 64
2, 1794240, Note_on_c, 0, 84, 90
2, 1794356, Note_off_c, 0, 84, 64
2, 1794360, Note_on_c, 0, 83, 100
2, 1794476, Note_off_c, 0, 83, 64
2, 1794480, Note_on_c, 0, 81, 100
2, 1794596, Note_off_c, 0, 81, 64
2, 1794600, Note_on_c, 0, 79, 92
2, 1794716, Note_off_c, 0, 79, 64
2, 1794720, Note_on_c, 0, 81, 102
2, 1794836, Note_off_c, 0, 81, 64
2, 1794840, Note_on_c, 0, 83, 102
2, 1794956, Note_off_c, 0, 83, 64
2, 1794960, Note_on_c, 0, 81, 97
2, 1795076, Note_off_c, 0, 81, 64
2, 1795080, Note_on_c, 0, 79, 95
2, 1795196, Note_off_c, 0, 79, 64
2, 1795200, Note_on_c, 0, 78, 99
2, 1795316, Note_off_c, 0, 78, 64
2, 1795320, Note_on_c, 0, 76, 93
2, 1795436, Note_off_c, 0, 76, 64
2, 1795440, Note_on_c, 0, 75, 104
2, 1795676, Note_off_c, 0, 75, 64
2, 1795680, Note_on_c, 0, 78, 97
2, 1795740, Note_off_c, 0, 78, 64
2, 1795740, Note_on_c, 0, 76, 78
2, 1795800, Note_off_c, 0, 76, 64
2, 1795800, Note_on_c, 0, 75, 96
2, 1795860, Note_off_c, 0, 75, 64
2, 1795860, Note_on_c, 0, 76, 80
2, 1795920, Note_off_c, 0, 76, 64
2, 1795920, Note_on_c, 0, 78, 99
2, 1796156, Note_off_c, 0, 78, 64
2, 1796160, Note_on_c, 0, 71, 106
2, 1796880, Note_off_c, 0, 71, 64
2, 1797000, Note_on_c, 0, 69, 97
2, 1797116, Note_off_c, 0, 69, 64
2, 1797120, Note_on_c, 0, 71, 90
2, 1797236, Note_off_c, 0, 71, 64
2, 1797240, Note_on_c, 0, 74, 95
2, 1797356, Note_off_c, 0, 74, 64
2, 1797360, Note_on_c, 0, 72, 95
2, 1797476, Note_off_c, 0, 72, 64
2, 1797480, Note_on_c, 0, 71, 76
2, 1797596, Note_off_c, 0, 71, 64
2, 1797600, Note_on_c, 0, 72, 97
2, 1797716, Note_off_c, 0, 72, 64
2, 1797720, Note_on_c, 0, 77, 100
2, 1797836, Note_off_c, 0, 77, 64
2, 1797840, Note_on_c, 0, 72, 91
2, 1797956, Note_off_c, 0, 72, 64
2, 1797960, Note_on_c, 0, 69, 88
2, 1798076, Note_off_c, 0, 69, 64
2, 1798080, Note_on_c, 0, 65, 70
2, 1798196, Note_off_c, 0, 65, 64
2, 1798200, Note_on_c, 0, 69, 90
2, 1798316, Note_off_c, 0, 69, 64
2, 1798320, Note_on_c, 0, 63, 92
2, 1798436, Note_off_c, 0, 63, 64
2, 1798440, Note_on_c, 0, 64, 101
2, 1798556, Note_off_c, 0, 64, 64
2, 1798560, Note_on_c, 0, 66, 94
2, 1798676, Note_off_c, 0, 66, 64
2, 1798680, Note_on_c, 0, 69, 95
2, 1798796, Note_off_c, 0, 69, 64
2, 1798800, Note_on_c, 0, 67, 98
2, 1798916, Note_off_c, 0, 67, 64
2, 1798920, Note_on_c, 0, 66, 90
2, 1799036, Note_off_c, 0, 66, 64
2, 1799040, Note_on_c, 0, 67, 115
2, 1799276, Note_off_c, 0, 67, 64
2, 1799280, Note_on_c, 0, 69, 92
2, 1799340, Note_off_c, 0, 69, 64
2, 1799340, Note_on_c, 0, 67, 98
2, 1799400, Note_off_c, 0, 67, 64
2, 1799400, Note_on_c, 0, 69, 93
2, 1799460, Note_off_c, 0, 69, 64
2, 1799460, Note_on_c, 0, 67, 86
2, 1799640, Note_off_c, 0, 67, 64
2, 1799640, Note_on_c, 0, 66, 97
2, 1799700, Note_off_c, 0, 66, 64
2, 1799700, Note_on_c, 0, 67, 97
2, 1799760, Note_off_c, 0, 67, 64
2, 1799760, Note_on_c, 0, 69, 104
2, 1799876, Note_off_c, 0, 69, 64
2, 1799880, Note_on_c, 0, 71, 102
2, 1799996, Note_off_c, 0, 71, 64
2, 1800000, Note_on_c, 0, 72, 95
2, 1800116, Note_off_c, 0, 72, 64
2, 1800120, Note_on_c, 0, 71, 95
2, 1800236, Note_off_c, 0, 71, 64
2, 1800240, Note_on_c, 0, 69, 104
2, 1800476, Note_off_c, 0, 69, 64
2, 1800480, Note_on_c, 0, 71, 100
2, 1800540, Note_off_c, 0, 71, 64
2, 1800540, Note_on_c, 0, 69, 83
2, 1800600, Note_off_c, 0, 69, 64
2, 1800600, Note_on_c, 0, 67, 88
2, 1800660, Note_off_c, 0, 67, 64
2, 1800660, Note_on_c, 0, 69, 101
2, 1801320, Note_on_c, 0, 66, 85
2, 1801436, Note_off_c, 0, 66, 64
2, 1801440, Note_on_c, 0, 67, 95
2, 1801556, Note_off_c, 0, 67, 64
2, 1801560, Note_on_c, 0, 69, 97
2, 1801620, Note_off_c, 0, 69, 64
2, 1801620, Note_off_c, 0, 69, 64
2, 1801680, Note_on_c, 0, 71, 93
2, 1801796, Note_off_c, 0, 71, 64
2, 1801800, Note_on_c, 0, 72, 93
2, 1801916, Note_off_c, 0, 72, 64
2, 1801920, Note_on_c, 0, 74, 101
2, 1802036, Note_off_c, 0, 74, 64
2, 1802040, Note_on_c, 0, 72, 91
2, 1802156, Note_off_c, 0, 72, 64
2, 1802160, Note_on_c, 0, 71, 95
2, 1802280, Note_off_c, 0, 71, 64
2, 1802280, Note_on_c, 0, 69, 75
2, 1802396, Note_off_c, 0, 69, 64
2, 1802400, Note_on_c, 0, 68, 75
2, 1802516, Note_off_c, 0, 68, 64
2, 1802520, Note_on_c, 0, 66, 75
2, 1802636, Note_off_c, 0, 66, 64
2, 1802640, Note_on_c, 0, 64, 106
2, 1802756, Note_off_c, 0, 64, 64
2, 1802760, Note_on_c, 0, 68, 93
2, 1802876, Note_off_c, 0, 68, 64
2, 1802880, Note_on_c, 0, 69, 93
2, 1802996, Note_off_c, 0, 69, 64
2, 1803000, Note_on_c, 0, 71, 93
2, 1803116, Note_off_c, 0, 71, 64
2, 1803120, Note_on_c, 0, 72, 106
2, 1803236, Note_off_c, 0, 72, 64
2, 1803240, Note_on_c, 0, 74, 97
2, 1803356, Note_off_c, 0, 74, 64
2, 1803360, Note_on_c, 0, 76, 101
2, 1803476, Note_off_c, 0, 76, 64
2, 1803480, Note_on_c, 0, 74, 98
2, 1803596, Note_off_c, 0, 74, 64
2, 1803600, Note_on_c, 0, 72, 102
2, 1803716, Note_off_c, 0, 72, 64
2, 1803720, Note_on_c, 0, 74, 92
2, 1803836, Note_off_c, 0, 74, 64
2, 1803840, Note_on_c, 0, 76, 104
2, 1804076, Note_off_c, 0, 76, 64
2, 1804080, Note_on_c, 0, 69, 109
2, 1804320, Note_off_c, 0, 69, 64
2, 1804800, Note_on_c, 0, 78, 125
2, 1805040, Note_off_c, 0, 78, 64
2, 1805520, Note_on_c, 0, 71, 113
2, 1805756, Note_off_c, 0, 71, 64
2, 1805760, Note_on_c, 0, 72, 100
2, 1805876, Note_off_c, 0, 72, 64
2, 1805880, Note_on_c, 0, 74, 97
2, 1805996, Note_off_c, 0, 74, 64
2, 1806000, Note_on_c, 0, 76, 102
2, 1806116, Note_off_c, 0, 76, 64
2, 1806120, Note_on_c, 0, 78, 94
2, 1806236, Note_off_c, 0, 78, 64
2, 1806240, Note_on_c, 0, 79, 98
2, 1806356, Note_off_c, 0, 79, 64
2, 1806360, Note_on_c, 0, 81, 104
2, 1806476, Note_off_c, 0, 81, 64
2, 1806480, Note_on_c, 0, 79, 97
2, 1806596, Note_off_c, 0, 79, 64
2, 1806600, Note_on_c, 0, 78, 104
2, 1806716, Note_off_c, 0, 78, 64
2, 1806720, Note_on_c, 0, 79, 96
2, 1806836, Note_off_c, 0, 79, 64
2, 1806840, Note_on_c, 0, 76, 97
2, 1806956, Note_off_c, 0, 76, 64
2, 1806960, Note_on_c, 0, 84, 101
2, 1807076, Note_off_c, 0, 84, 64
2, 1807080, Note_on_c, 0, 83, 98
2, 1807196, Note_off_c, 0, 83, 64
2, 1807200, Note_on_c, 0, 81, 98
2, 1807316, Note_off_c, 0, 81, 64
2, 1807320, Note_on_c, 0, 79, 91
2, 1807436, Note_off_c, 0, 79, 64
2, 1807440, Note_on_c, 0, 78, 93
2, 1807556, Note_off_c, 0, 78, 64
2, 1807560, Note_on_c, 0, 76, 101
2, 1807676, Note_off_c, 0, 76, 64
2, 1807680, Note_on_c, 0, 74, 111
2, 1808516, Note_off_c, 0, 74, 64
2, 1808520, Note_on_c, 0, 72, 97
2, 1808636, Note_off_c, 0, 72, 64
2, 1808640, Note_on_c, 0, 74, 72
2, 1808756, Note_off_c, 0, 74, 64
2, 1808760, Note_on_c, 0, 76, 101
2, 1808876, Note_off_c, 0, 76, 64
2, 1808880, Note_on_c, 0, 78, 92
2, 1808996, Note_off_c, 0, 78, 64
2, 1809000, Note_on_c, 0, 79, 95
2, 1809116, Note_off_c, 0, 79, 64
2, 1809120, Note_on_c, 0, 81, 107
2, 1809236, Note_off_c, 0, 81, 64
2, 1809240, Note_on_c, 0, 76, 95
2, 1809356, Note_off_c, 0, 76, 64
2, 1809360, Note_on_c, 0, 72, 89
2, 1809476, Note_off_c, 0, 72, 64
2, 1809480, Note_on_c, 0, 69, 96
2, 1809596, Note_off_c, 0, 69, 64
2, 1809600, Note_on_c, 0, 71, 93
2, 1809716, Note_off_c, 0, 71, 64
2, 1809720, Note_on_c, 0, 72, 107
2, 1809836, Note_off_c, 0, 72, 64
2, 1809840, Note_on_c, 0, 66, 93
2, 1809956, Note_off_c, 0, 66, 64
2, 1809960, Note_on_c, 0, 67, 80
2, 1810076, Note_off_c, 0, 67, 64
2, 1810080, Note_on_c, 0, 69, 88
2, 1810196, Note_off_c, 0, 69, 64
2, 1810200, Note_on_c, 0, 71, 95
2, 1810316, Note_off_c, 0, 71, 64
2, 1810320, Note_on_c, 0, 72, 93
2, 1810436, Note_off_c, 0, 72, 64
2, 1810440, Note_on_c, 0, 69, 84
2, 1810556, Note_off_c, 0, 69, 64
2, 1810560, Note_on_c, 0, 71, 93
2, 1810676, Note_off_c, 0, 71, 64
2, 1810680, Note_on_c, 0, 74, 82
2, 1810796, Note_off_c, 0, 74, 64
2, 1810800, Note_on_c, 0, 79, 111
2, 1811276, Note_off_c, 0, 79, 64
2, 1811520, Note_on_c, 0, 76, 115
2, 1811756, Note_off_c, 0, 76, 64
2, 1811760, Note_on_c, 0, 74, 101
2, 1811996, Note_off_c, 0, 74, 64
2, 1812000, Note_on_c, 0, 72, 100
2, 1812236, Note_off_c, 0, 72, 64
2, 1812240, Note_on_c, 0, 74, 98
2, 1812356, Note_off_c, 0, 74, 64
2, 1812360, Note_on_c, 0, 72, 100
2, 1812476, Note_off_c, 0, 72, 64
2, 1812480, Note_on_c, 0, 71, 97
2, 1812596, Note_off_c, 0, 71, 64
2, 1812600, Note_on_c, 0, 69, 90
2, 1812716, Note_off_c, 0, 69, 64
2, 1812720, Note_on_c, 0, 71, 107
2, 1812836, Note_off_c, 0, 71, 64
2, 1812840, Note_on_c, 0, 74, 78
2, 1812956, Note_off_c, 0, 74, 64
2, 1812960, Note_on_c, 0, 71, 95
2, 1813076, Note_off_c, 0, 71, 64
2, 1813080, Note_on_c, 0, 67, 85
2, 1813196, Note_off_c, 0, 67, 64
2, 1813200, Note_on_c, 0, 69, 81
2, 1813316, Note_off_c, 0, 69, 64
2, 1813320, Note_on_c, 0, 66, 89
2, 1813436, Note_off_c, 0, 66, 64
2, 1813440, Note_on_c, 0, 67, 107
2, 1814160, Note_off_c, 0, 67, 64
2, 1814160, Note_on_c, 0, 83, 109
2, 1814276, Note_off_c, 0, 83, 64
2, 1814640, Note_on_c, 0, 86, 97
2, 1814756, Note_off_c, 0, 86, 64
2, 1815120, Note_on_c, 0, 79, 97
2, 1815236, Note_off_c, 0, 79, 64
2, 1815600, Note_on_c, 0, 81, 100
2, 1815716, Note_off_c, 0, 81, 64
2, 1816080, Note_on_c, 0, 86, 90
2, 1816196, Note_off_c, 0, 86, 64
2, 1816560, Note_on_c, 0, 78, 88
2, 1816676, Note_off_c, 0, 78, 64
2, 1817040, Note_on_c, 0, 79, 92
2, 1817156, Note_off_c, 0, 79, 64
2, 1817520, Note_on_c, 0, 83, 98
2, 1817636, Note_off_c, 0, 83, 64
2, 1818000, Note_on_c, 0, 81, 96
2, 1818116, Note_off_c, 0, 81, 64
2, 1818480, Note_on_c, 0, 78, 89
2, 1818596, Note_off_c, 0, 78, 64
2, 1818960, Note_on_c, 0, 85, 89
2, 1819076, Note_off_c, 0, 85, 64
2, 1819440, Note_on_c, 0, 86, 95
2, 1819556, Note_off_c, 0, 86, 64
2, 1819920, Note_on_c, 0, 79, 90
2, 1820160, Note_off_c, 0, 79, 64
2, 1820160, Note_on_c, 0, 55, 90
2, 1820400, Note_off_c, 0, 55, 64
2, 1820400, Note_on_c, 0, 57, 90
2, 1820640, Note_off_c, 0, 57, 64
2, 1820640, Note_on_c, 0, 76, 90
2, 1820880, Note_off_c, 0, 76, 64
2, 1820880, Note_on_c, 0, 77, 90
2, 1821120, Note_off_c, 0, 77, 64
2, 1821120, Note_on_c, 0, 74, 90
2, 1821360, Note_off_c, 0, 74, 64
2, 1821360, Note_on_c, 0, 76, 90
2, 1821600, Note_off_c, 0, 76, 64
2, 1821600, Note_on_c, 0, 57, 90
2, 1821840, Note_off_c, 0, 57, 64
2, 1821840, Note_on_c, 0, 59, 90
2, 1822080, Note_off_c, 0, 59, 64
2, 1822080, Note_on_c, 0, 78, 90
2, 1822320, Note_off_c, 0, 78, 64
2, 1822560, Note_on_c, 0, 81, 90
2, 1822800, Note_off_c, 0, 81, 64
2, 1822800, Note_on_c, 0, 83, 90
2, 1823040, Note_off_c, 0, 83, 64
2, 1823040, Note_on_c, 0, 78, 90
2, 1823280, Note_off_c, 0, 78, 64
2, 1823280, Note_on_c, 0, 57, 90
2, 1823520, Note_off_c, 0, 57, 64
2, 1823520, Note_on_c, 0, 52, 90
2, 1823760, Note_off_c, 0, 52, 64
2, 1823760, Note_on_c, 0, 54, 90
2, 1824000, Note_off_c, 0, 54, 64
2, 1824480, Note_on_c, 0, 84, 90
2, 1824720, Note_off_c, 0, 84, 64
2, 1824720, Note_on_c, 0, 83, 90
2, 1824960, Note_off_c, 0, 83, 64
2, 1824960, Note_on_c, 0, 81, 90
2, 1825200, Note_off_c, 0, 81, 64
2, 1825200, Note_on_c, 0, 79, 90
2, 1825440, Note_off_c, 0, 79, 64
2, 1825440, Note_on_c, 0, 78, 90
2, 1825680, Note_off_c, 0, 78, 64
2, 1825680, Note_on_c, 0, 83, 90
2, 1825796, Note_off_c, 0, 83, 64
2, 1825800, Note_on_c, 0, 79, 90
2, 1825916, Note_off_c, 0, 79, 64
2, 1825920, Note_on_c, 0, 78, 90
2, 1826036, Note_off_c, 0, 78, 64
2, 1826040, Note_on_c, 0, 79, 90
2, 1826156, Note_off_c, 0, 79, 64
2, 1826160, Note_on_c, 0, 76, 104
2, 1826276, Note_off_c, 0, 76, 64
2, 1826280, Note_on_c, 0, 71, 90
2, 1826396, Note_off_c, 0, 71, 64
2, 1826400, Note_on_c, 0, 69, 74
2, 1826516, Note_off_c, 0, 69, 64
2, 1826520, Note_on_c, 0, 71, 88
2, 1826636, Note_off_c, 0, 71, 64
2, 1826640, Note_on_c, 0, 67, 90
2, 1826756, Note_off_c, 0, 67, 64
2, 1826760, Note_on_c, 0, 71, 91
2, 1826876, Note_off_c, 0, 71, 64
2, 1826880, Note_on_c, 0, 76, 89
2, 1826996, Note_off_c, 0, 76, 64
2, 1827000, Note_on_c, 0, 79, 80
2, 1827116, Note_off_c, 0, 79, 64
2, 1827120, Note_on_c, 0, 81, 97
2, 1827236, Note_off_c, 0, 81, 64
2, 1827240, Note_on_c, 0, 78, 86
2, 1827356, Note_off_c, 0, 78, 64
2, 1827360, Note_on_c, 0, 76, 78
2, 1827476, Note_off_c, 0, 76, 64
2, 1827480, Note_on_c, 0, 78, 84
2, 1827596, Note_off_c, 0, 78, 64
2, 1827600, Note_on_c, 0, 74, 83
2, 1827716, Note_off_c, 0, 74, 64
2, 1827720, Note_on_c, 0, 69, 71
2, 1827836, Note_off_c, 0, 69, 64
2, 1827840, Note_on_c, 0, 67, 82
2, 1827956, Note_off_c, 0, 67, 64
2, 1827960, Note_on_c, 0, 69, 73
2, 1828076, Note_off_c, 0, 69, 64
2, 1828080, Note_on_c, 0, 66, 90
2, 1828196, Note_off_c, 0, 66, 64
2, 1828200, Note_on_c, 0, 69, 96
2, 1828316, Note_off_c, 0, 69, 64
2, 1828320, Note_on_c, 0, 74, 81
2, 1828436, Note_off_c, 0, 74, 64
2, 1828440, Note_on_c, 0, 78, 74
2, 1828556, Note_off_c, 0, 78, 64
2, 1828560, Note_on_c, 0, 79, 72
2, 1828676, Note_off_c, 0, 79, 64
2, 1828680, Note_on_c, 0, 76, 89
2, 1828796, Note_off_c, 0, 76, 64
2, 1828800, Note_on_c, 0, 75, 92
2, 1828916, Note_off_c, 0, 75, 64
2, 1828920, Note_on_c, 0, 76, 91
2, 1829036, Note_off_c, 0, 76, 64
2, 1829040, Note_on_c, 0, 71, 92
2, 1829156, Note_off_c, 0, 71, 64
2, 1829160, Note_on_c, 0, 67, 77
2, 1829276, Note_off_c, 0, 67, 64
2, 1829280, Note_on_c, 0, 66, 84
2, 1829396, Note_off_c, 0, 66, 64
2, 1829400, Note_on_c, 0, 67, 90
2, 1829516, Note_off_c, 0, 67, 64
2, 1829520, Note_on_c, 0, 64, 89
2, 1829636, Note_off_c, 0, 64, 64
2, 1829640, Note_on_c, 0, 67, 89
2, 1829756, Note_off_c, 0, 67, 64
2, 1829760, Note_on_c, 0, 71, 93
2, 1829876, Note_off_c, 0, 71, 64
2, 1829880, Note_on_c, 0, 74, 96
2, 1829996, Note_off_c, 0, 74, 64
2, 1830000, Note_on_c, 0, 73, 84
2, 1830116, Note_off_c, 0, 73, 64
2, 1830120, Note_on_c, 0, 67, 74
2, 1830236, Note_off_c, 0, 67, 64
2, 1830240, Note_on_c, 0, 66, 86
2, 1830356, Note_off_c, 0, 66, 64
2, 1830360, Note_on_c, 0, 67, 86
2, 1830476, Note_off_c, 0, 67, 64
2, 1830480, Note_on_c, 0, 64, 92
2, 1830596, Note_off_c, 0, 64, 64
2, 1830600, Note_on_c, 0, 61, 86
2, 1830716, Note_off_c, 0, 61, 64
2, 1830720, Note_on_c, 0, 59, 84
2, 1830836, Note_off_c, 0, 59, 64
2, 1830840, Note_on_c, 0, 61, 89
2, 1830956, Note_off_c, 0, 61, 64
2, 1830960, Note_on_c, 0, 57, 89
2, 1831076, Note_off_c, 0, 57, 64
2, 1831080, Note_on_c, 0, 61, 92
2, 1831196, Note_off_c, 0, 61, 64
2, 1831200, Note_on_c, 0, 64, 89
2, 1831316, Note_off_c, 0, 64, 64
2, 1831320, Note_on_c, 0, 67, 96
2, 1831436, Note_off_c, 0, 67, 64
2, 1831440, Note_on_c, 0, 66, 101
2, 1831556, Note_off_c, 0, 66, 64
2, 1831920, Note_on_c, 0, 67, 96
2, 1832036, Note_off_c, 0, 67, 64
2, 1832400, Note_on_c, 0, 69, 95
2, 1832516, Note_off_c, 0, 69, 64
2, 1832880, Note_on_c, 0, 71, 95
2, 1832996, Note_off_c, 0, 71, 64
2, 1833360, Note_on_c, 0, 69, 92
2, 1833476, Note_off_c, 0, 69, 64
2, 1833840, Note_on_c, 0, 67, 95
2, 1833956, Note_off_c, 0, 67, 64
2, 1834320, Note_on_c, 0, 69, 90
2, 1834436, Note_off_c, 0, 69, 64
2, 1834800, Note_on_c, 0, 71, 95
2, 1834916, Note_off_c, 0, 71, 64
2, 1835280, Note_on_c, 0, 69, 95
2, 1835396, Note_off_c, 0, 69, 64
2, 1835760, Note_on_c, 0, 66, 97
2, 1835876, Note_off_c, 0, 66, 64
2, 1835880, Note_on_c, 0, 62, 93
2, 1835996, Note_off_c, 0, 62, 64
2, 1836000, Note_on_c, 0, 61, 93
2, 1836116, Note_off_c, 0, 61, 64
2, 1836120, Note_on_c, 0, 62, 96
2, 1836236, Note_off_c, 0, 62, 64
2, 1836240, Note_on_c, 0, 57, 81
2, 1836356, Note_off_c, 0, 57, 64
2, 1836360, Note_on_c, 0, 54, 99
2, 1836476, Note_off_c, 0, 54, 64
2, 1836480, Note_on_c, 0, 52, 96
2, 1836596, Note_off_c, 0, 52, 64
2, 1836600, Note_on_c, 0, 54, 99
2, 1836716, Note_off_c, 0, 54, 64
2, 1836720, Note_on_c, 0, 50, 101
2, 1836956, Note_off_c, 0, 50, 64
2, 1837200, Note_on_c, 0, 66, 81
2, 1837316, Note_off_c, 0, 66, 64
2, 1837320, Note_on_c, 0, 69, 90
2, 1837436, Note_off_c, 0, 69, 64
2, 1837440, Note_on_c, 0, 67, 93
2, 1837556, Note_off_c, 0, 67, 64
2, 1837560, Note_on_c, 0, 69, 90
2, 1837676, Note_off_c, 0, 69, 64
2, 1837680, Note_on_c, 0, 74, 100
2, 1837796, Note_off_c, 0, 74, 64
2, 1837800, Note_on_c, 0, 78, 102
2, 1837916, Note_off_c, 0, 78, 64
2, 1837920, Note_on_c, 0, 76, 97
2, 1838036, Note_off_c, 0, 76, 64
2, 1838040, Note_on_c, 0, 78, 88
2, 1838156, Note_off_c, 0, 78, 64
2, 1838160, Note_on_c, 0, 81, 109
2, 1838276, Note_off_c, 0, 81, 64
2, 1838280, Note_on_c, 0, 78, 92
2, 1838396, Note_off_c, 0, 78, 64
2, 1838400, Note_on_c, 0, 72, 90
2, 1838516, Note_off_c, 0, 72, 64
2, 1838520, Note_on_c, 0, 69, 83
2, 1838636, Note_off_c, 0, 69, 64
2, 1838640, Note_on_c, 0, 71, 85
2, 1838756, Note_off_c, 0, 71, 64
2, 1838760, Note_on_c, 0, 74, 84
2, 1838876, Note_off_c, 0, 74, 64
2, 1838880, Note_on_c, 0, 72, 91
2, 1838996, Note_off_c, 0, 72, 64
2, 1839000, Note_on_c, 0, 74, 96
2, 1839116, Note_off_c, 0, 74, 64
2, 1839120, Note_on_c, 0, 79, 92
2, 1839236, Note_off_c, 0, 79, 64
2, 1839240, Note_on_c, 0, 83, 100
2, 1839356, Note_off_c, 0, 83, 64
2, 1839360, Note_on_c, 0, 81, 92
2, 1839476, Note_off_c, 0, 81, 64
2, 1839480, Note_on_c, 0, 83, 95
2, 1839596, Note_off_c, 0, 83, 64
2, 1839600, Note_on_c, 0, 86, 88
2, 1839720, Note_off_c, 0, 86, 64
2, 1839720, Note_on_c, 0, 83, 36
2, 1839836, Note_off_c, 0, 83, 64
2, 1839840, Note_on_c, 0, 77, 88
2, 1839956, Note_off_c, 0, 77, 64
2, 1839960, Note_on_c, 0, 74, 75
2, 1840076, Note_off_c, 0, 74, 64
2, 1840080, Note_on_c, 0, 76, 89
2, 1840316, Note_off_c, 0, 76, 64
2, 1840320, Note_on_c, 0, 71, 93
2, 1840556, Note_off_c, 0, 71, 64
2, 1840560, Note_on_c, 0, 72, 89
2, 1840796, Note_off_c, 0, 72, 64
2, 1840800, Note_on_c, 0, 63, 96
2, 1841036, Note_off_c, 0, 63, 64
2, 1841040, Note_on_c, 0, 64, 86
2, 1841276, Note_off_c, 0, 64, 64
2, 1841280, Note_on_c, 0, 55, 88
2, 1841516, Note_off_c, 0, 55, 64
2, 1841520, Note_on_c, 0, 54, 91
2, 1841760, Note_off_c, 0, 54, 64
2, 1841760, Note_on_c, 0, 76, 93
2, 1841996, Note_off_c, 0, 76, 64
2, 1842000, Note_on_c, 0, 75, 76
2, 1842116, Note_off_c, 0, 75, 64
2, 1842120, Note_on_c, 0, 78, 85
2, 1842236, Note_off_c, 0, 78, 64
2, 1842240, Note_on_c, 0, 76, 91
2, 1842356, Note_off_c, 0, 76, 64
2, 1842360, Note_on_c, 0, 78, 88
2, 1842476, Note_off_c, 0, 78, 64
2, 1842480, Note_on_c, 0, 81, 82
2, 1842596, Note_off_c, 0, 81, 64
2, 1842600, Note_on_c, 0, 78, 86
2, 1842716, Note_off_c, 0, 78, 64
2, 1842720, Note_on_c, 0, 75, 78
2, 1842836, Note_off_c, 0, 75, 64
2, 1842840, Note_on_c, 0, 78, 92
2, 1842956, Note_off_c, 0, 78, 64
2, 1842960, Note_on_c, 0, 71, 92
2, 1843076, Note_off_c, 0, 71, 64
2, 1843440, Note_on_c, 0, 73, 92
2, 1843556, Note_off_c, 0, 73, 64
2, 1843920, Note_on_c, 0, 75, 92
2, 1844036, Note_off_c, 0, 75, 64
2, 1844400, Note_on_c, 0, 76, 92
2, 1844516, Note_off_c, 0, 76, 64
2, 1844880, Note_on_c, 0, 75, 92
2, 1844996, Note_off_c, 0, 75, 64
2, 1845360, Note_on_c, 0, 76, 92
2, 1845476, Note_off_c, 0, 76, 64
2, 1845840, Note_on_c, 0, 73, 92
2, 1845956, Note_off_c, 0, 73, 64
2, 1846320, Note_on_c, 0, 71, 92
2, 1846436, Note_off_c, 0, 71, 64
2, 1846800, Note_on_c, 0, 69, 92
2, 1846916, Note_off_c, 0, 69, 64
2, 1847280, Note_on_c, 0, 76, 111
2, 1847396, Note_off_c, 0, 76, 64
2, 1847400, Note_on_c, 0, 67, 101
2, 1847516, Note_off_c, 0, 67, 64
2, 1847520, Note_on_c, 0, 66, 93
2, 1847636, Note_off_c, 0, 66, 64
2, 1847640, Note_on_c, 0, 67, 113
2, 1847756, Note_off_c, 0, 67, 64
2, 1847760, Note_on_c, 0, 71, 101
2, 1847876, Note_off_c, 0, 71, 64
2, 1847880, Note_on_c, 0, 76, 106
2, 1847996, Note_off_c, 0, 76, 64
2, 1848000, Note_on_c, 0, 75, 88
2, 1848116, Note_off_c, 0, 75, 64
2, 1848120, Note_on_c, 0, 76, 92
2, 1848236, Note_off_c, 0, 76, 64
2, 1848240, Note_on_c, 0, 79, 102
2, 1848296, Note_off_c, 0, 79, 64
2, 1848300, Note_on_c, 0, 77, 104
2, 1848356, Note_off_c, 0, 77, 64
2, 1848360, Note_on_c, 0, 76, 113
2, 1848476, Note_off_c, 0, 76, 64
2, 1848480, Note_on_c, 0, 77, 102
2, 1848536, Note_off_c, 0, 77, 64
2, 1848540, Note_on_c, 0, 76, 113
2, 1848596, Note_off_c, 0, 76, 64
2, 1848600, Note_on_c, 0, 74, 111
2, 1848716, Note_off_c, 0, 74, 64
2, 1848720, Note_on_c, 0, 76, 106
2, 1848956, Note_off_c, 0, 76, 64
2, 1848960, Note_on_c, 0, 64, 107
2, 1849196, Note_off_c, 0, 64, 64
2, 1849200, Note_on_c, 0, 63, 101
2, 1849436, Note_off_c, 0, 63, 64
2, 1849440, Note_on_c, 0, 62, 107
2, 1849676, Note_off_c, 0, 62, 64
2, 1849680, Note_on_c, 0, 61, 119
2, 1849916, Note_off_c, 0, 61, 64
2, 1849920, Note_on_c, 0, 76, 119
2, 1850156, Note_off_c, 0, 76, 64
2, 1850160, Note_on_c, 0, 74, 97
2, 1850396, Note_off_c, 0, 74, 64
2, 1850400, Note_on_c, 0, 62, 88
2, 1850636, Note_off_c, 0, 62, 64
2, 1850640, Note_on_c, 0, 61, 102
2, 1850876, Note_off_c, 0, 61, 64
2, 1850880, Note_on_c, 0, 60, 102
2, 1851116, Note_off_c, 0, 60, 64
2, 1851120, Note_on_c, 0, 59, 95
2, 1851356, Note_off_c, 0, 59, 64
2, 1851360, Note_on_c, 0, 74, 106
2, 1851596, Note_off_c, 0, 74, 64
2, 1851600, Note_on_c, 0, 64, 123
2, 1851716, Note_off_c, 0, 64, 64
2, 1852080, Note_on_c, 0, 62, 123
2, 1852196, Note_off_c, 0, 62, 64
2, 1852560, Note_on_c, 0, 64, 123
2, 1852676, Note_off_c, 0, 64, 64
2, 1853040, Note_on_c, 0, 66, 123
2, 1853156, Note_off_c, 0, 66, 64
2, 1853520, Note_on_c, 0, 64, 123
2, 1853636, Note_off_c, 0, 64, 64
2, 1854000, Note_on_c, 0, 66, 123
2, 1854116, Note_off_c, 0, 66, 64
2, 1854480, Note_on_c, 0, 71, 123
2, 1854596, Note_off_c, 0, 71, 64
2, 1854960, Note_on_c, 0, 72, 123
2, 1855076, Note_off_c, 0, 72, 64
2, 1855440, Note_on_c, 0, 74, 123
2, 1855556, Note_off_c, 0, 74, 64
2, 1855920, Note_on_c, 0, 64, 119
2, 1856156, Note_off_c, 0, 64, 64
2, 1856160, Note_on_c, 0, 76, 115
2, 1856396, Note_off_c, 0, 76, 64
2, 1856400, Note_on_c, 0, 77, 107
2, 1856636, Note_off_c, 0, 77, 64
2, 1856640, Note_on_c, 0, 78, 94
2, 1856876, Note_off_c, 0, 78, 64
2, 1856880, Note_on_c, 0, 79, 97
2, 1857116, Note_off_c, 0, 79, 64
2, 1857120, Note_on_c, 0, 80, 97
2, 1857356, Note_off_c, 0, 80, 64
2, 1857360, Note_on_c, 0, 81, 119
2, 1857476, Note_off_c, 0, 81, 64
2, 1857480, Note_on_c, 0, 66, 104
2, 1857596, Note_off_c, 0, 66, 64
2, 1857600, Note_on_c, 0, 64, 101
2, 1857716, Note_off_c, 0, 64, 64
2, 1857720, Note_on_c, 0, 66, 93
2, 1857836, Note_off_c, 0, 66, 64
2, 1857840, Note_on_c, 0, 67, 100
2, 1857956, Note_off_c, 0, 67, 64
2, 1857960, Note_on_c, 0, 71, 97
2, 1858076, Note_off_c, 0, 71, 64
2, 1858080, Note_on_c, 0, 69, 96
2, 1858196, Note_off_c, 0, 69, 64
2, 1858200, Note_on_c, 0, 71, 96
2, 1858316, Note_off_c, 0, 71, 64
2, 1858320, Note_on_c, 0, 72, 100
2, 1858436, Note_off_c, 0, 72, 64
2, 1858440, Note_on_c, 0, 69, 90
2, 1858556, Note_off_c, 0, 69, 64
2, 1858560, Note_on_c, 0, 66, 102
2, 1858676, Note_off_c, 0, 66, 64
2, 1858680, Note_on_c, 0, 62, 83
2, 1858796, Note_off_c, 0, 62, 64
2, 1858800, Note_on_c, 0, 67, 102
2, 1858916, Note_off_c, 0, 67, 64
2, 1858920, Note_on_c, 0, 71, 102
2, 1859036, Note_off_c, 0, 71, 64
2, 1859040, Note_on_c, 0, 69, 102
2, 1859156, Note_off_c, 0, 69, 64
2, 1859160, Note_on_c, 0, 71, 102
2, 1859276, Note_off_c, 0, 71, 64
2, 1859280, Note_on_c, 0, 74, 102
2, 1859396, Note_off_c, 0, 74, 64
2, 1859400, Note_on_c, 0, 79, 102
2, 1859516, Note_off_c, 0, 79, 64
2, 1859520, Note_on_c, 0, 78, 102
2, 1859636, Note_off_c, 0, 78, 64
2, 1859640, Note_on_c, 0, 79, 102
2, 1859756, Note_off_c, 0, 79, 64
2, 1859760, Note_on_c, 0, 83, 102
2, 1860240, Note_off_c, 0, 83, 64
2, 1862040, Note_on_c, 0, 59, 100
2, 1862040, Note_on_c, 0, 67, 117
2, 1862040, Note_on_c, 0, 62, 107
2, 1862156, Note_off_c, 0, 59, 64
2, 1862156, Note_off_c, 0, 67, 64
2, 1862156, Note_off_c, 0, 62, 64
2, 1862280, Note_on_c, 0, 62, 111
2, 1862280, Note_on_c, 0, 59, 107
2, 1862280, Note_on_c, 0, 67, 117
2, 1862396, Note_off_c, 0, 62, 64
2, 1862396, Note_off_c, 0, 59, 64
2, 1862396, Note_off_c, 0, 67, 64
2, 1862520, Note_on_c, 0, 59, 101
2, 1862520, Note_on_c, 0, 62, 109
2, 1862520, Note_on_c, 0, 67, 113
2, 1862636, Note_off_c, 0, 59, 64
2, 1862636, Note_off_c, 0, 62, 64
2, 1862636, Note_off_c, 0, 67, 64
2, 1862760, Note_on_c, 0, 62, 109
2, 1862760, Note_on_c, 0, 59, 106
2, 1862760, Note_on_c, 0, 67, 113
2, 1862876, Note_off_c, 0, 62, 64
2, 1862876, Note_off_c, 0, 59, 64
2, 1862876, Note_off_c, 0, 67, 64
2, 1863000, Note_on_c, 0, 67, 121
2, 1863000, Note_on_c, 0, 62, 117
2, 1863000, Note_on_c, 0, 59, 115
2, 1863116, Note_off_c, 0, 67, 64
2, 1863116, Note_off_c, 0, 62, 64
2, 1863116, Note_off_c, 0, 59, 64
2, 1863480, Note_on_c, 0, 66, 99
2, 1863480, Note_on_c, 0, 69, 111
2, 1863480, Note_on_c, 0, 74, 119
2, 1863596, Note_off_c, 0, 66, 64
2, 1863596, Note_off_c, 0, 69, 64
2, 1863596, Note_off_c, 0, 74, 64
2, 1863720, Note_on_c, 0, 69, 106
2, 1863720, Note_on_c, 0, 66, 94
2, 1863720, Note_on_c, 0, 74, 117
2, 1863836, Note_off_c, 0, 69, 64
2, 1863836, Note_off_c, 0, 66, 64
2, 1863836, Note_off_c, 0, 74, 64
2, 1863960, Note_on_c, 0, 69, 109
2, 1863960, Note_on_c, 0, 66, 104
2, 1863960, Note_on_c, 0, 74, 113
2, 1864076, Note_off_c, 0, 69, 64
2, 1864076, Note_off_c, 0, 66, 64
2, 1864076, Note_off_c, 0, 74, 64
2, 1864200, Note_on_c, 0, 66, 104
2, 1864200, Note_on_c, 0, 69, 111
2, 1864200, Note_on_c, 0, 74, 119
2, 1864316, Note_off_c, 0, 66, 64
2, 1864316, Note_off_c, 0, 69, 64
2, 1864316, Note_off_c, 0, 74, 64
2, 1864440, Note_on_c, 0, 66, 102
2, 1864440, Note_on_c, 0, 74, 113
2, 1864440, Note_on_c, 0, 69, 106
2, 1864556, Note_off_c, 0, 66, 64
2, 1864556, Note_off_c, 0, 74, 64
2, 1864556, Note_off_c, 0, 69, 64
2, 1864920, Note_on_c, 0, 76, 113
2, 1864920, Note_on_c, 0, 71, 100
2, 1864920, Note_on_c, 0, 79, 113
2, 1865036, Note_off_c, 0, 76, 64
2, 1865036, Note_off_c, 0, 71, 64
2, 1865036, Note_off_c, 0, 79, 64
2, 1865160, Note_on_c, 0, 79, 109
2, 1865160, Note_on_c, 0, 76, 111
2, 1865160, Note_on_c, 0, 71, 106
2, 1865276, Note_off_c, 0, 79, 64
2, 1865276, Note_off_c, 0, 76, 64
2, 1865276, Note_off_c, 0, 71, 64
2, 1865400, Note_on_c, 0, 79, 109
2, 1865400, Note_on_c, 0, 76, 113
2, 1865400, Note_on_c, 0, 71, 102
2, 1865516, Note_off_c, 0, 79, 64
2, 1865516, Note_off_c, 0, 76, 64
2, 1865516, Note_off_c, 0, 71, 64
2, 1865640, Note_on_c, 0, 79, 113
2, 1865640, Note_on_c, 0, 76, 111
2, 1865640, Note_on_c, 0, 71, 107
2, 1865756, Note_off_c, 0, 79, 64
2, 1865756, Note_off_c, 0, 76, 64
2, 1865756, Note_off_c, 0, 71, 64
2, 1865880, Note_on_c, 0, 73, 115
2, 1865880, Note_on_c, 0, 76, 119
2, 1865880, Note_on_c, 0, 79, 119
2, 1865996, Note_off_c, 0, 73, 64
2, 1865996, Note_off_c, 0, 76, 64
2, 1865996, Note_off_c, 0, 79, 64
2, 1866000, Note_on_c, 0, 74, 102
2, 1866000, Note_on_c, 0, 69, 82
2, 1866000, Note_on_c, 0, 78, 112
2, 1866116, Note_off_c, 0, 74, 64
2, 1866116, Note_off_c, 0, 69, 64
2, 1866116, Note_off_c, 0, 78, 64
2, 1866560, Note_on_c, 0, 84, 95
2, 1866636, Note_off_c, 0, 84, 64
2, 1866640, Note_on_c, 0, 83, 109
2, 1866716, Note_off_c, 0, 83, 64
2, 1866720, Note_on_c, 0, 72, 104
2, 1866796, Note_off_c, 0, 72, 64
2, 1866800, Note_on_c, 0, 83, 107
2, 1866876, Note_off_c, 0, 83, 64
2, 1866880, Note_on_c, 0, 81, 97
2, 1866956, Note_off_c, 0, 81, 64
2, 1866960, Note_on_c, 0, 71, 84
2, 1867036, Note_off_c, 0, 71, 64
2, 1867040, Note_on_c, 0, 81, 106
2, 1867116, Note_off_c, 0, 81, 64
2, 1867120, Note_on_c, 0, 79, 95
2, 1867196, Note_off_c, 0, 79, 64
2, 1867200, Note_on_c, 0, 69, 93
2, 1867276, Note_off_c, 0, 69, 64
2, 1867280, Note_on_c, 0, 79, 107
2, 1867356, Note_off_c, 0, 79, 64
2, 1867360, Note_on_c, 0, 78, 102
2, 1867436, Note_off_c, 0, 78, 64
2, 1867440, Note_on_c, 0, 74, 113
2, 1867440, Note_on_c, 0, 79, 113
2, 1867440, Note_on_c, 0, 71, 107
2, 1867676, Note_off_c, 0, 74, 64
2, 1867676, Note_off_c, 0, 79, 64
2, 1867676, Note_off_c, 0, 71, 64
2, 1867800, Note_on_c, 0, 71, 104
2, 1867800, Note_on_c, 0, 74, 106
2, 1867800, Note_on_c, 0, 79, 107
2, 1867916, Note_off_c, 0, 71, 64
2, 1867916, Note_off_c, 0, 74, 64
2, 1867916, Note_off_c, 0, 79, 64
2, 1868040, Note_on_c, 0, 71, 96
2, 1868040, Note_on_c, 0, 79, 109
2, 1868040, Note_on_c, 0, 74, 106
2, 1868156, Note_off_c, 0, 71, 64
2, 1868156, Note_off_c, 0, 79, 64
2, 1868156, Note_off_c, 0, 74, 64
2, 1868280, Note_on_c, 0, 74, 102
2, 1868280, Note_on_c, 0, 71, 98
2, 1868280, Note_on_c, 0, 79, 102
2, 1868396, Note_off_c, 0, 74, 64
2, 1868396, Note_off_c, 0, 71, 64
2, 1868396, Note_off_c, 0, 79, 64
2, 1868520, Note_on_c, 0, 79, 106
2, 1868520, Note_on_c, 0, 71, 100
2, 1868520, Note_on_c, 0, 74, 104
2, 1868636, Note_off_c, 0, 79, 64
2, 1868636, Note_off_c, 0, 71, 64
2, 1868636, Note_off_c, 0, 74, 64
2, 1868760, Note_on_c, 0, 74, 109
2, 1868760, Note_on_c, 0, 71, 109
2, 1868760, Note_on_c, 0, 77, 111
2, 1868876, Note_off_c, 0, 74, 64
2, 1868876, Note_off_c, 0, 71, 64
2, 1868876, Note_off_c, 0, 77, 64
2, 1869240, Note_on_c, 0, 72, 102
2, 1869240, Note_on_c, 0, 67, 104
2, 1869240, Note_on_c, 0, 76, 117
2, 1869356, Note_off_c, 0, 72, 64
2, 1869356, Note_off_c, 0, 67, 64
2, 1869356, Note_off_c, 0, 76, 64
2, 1869480, Note_on_c, 0, 72, 102
2, 1869480, Note_on_c, 0, 67, 97
2, 1869480, Note_on_c, 0, 76, 109
2, 1869596, Note_off_c, 0, 72, 64
2, 1869596, Note_off_c, 0, 67, 64
2, 1869596, Note_off_c, 0, 76, 64
2, 1869720, Note_on_c, 0, 72, 101
2, 1869720, Note_on_c, 0, 76, 102
2, 1869720, Note_on_c, 0, 67, 97
2, 1869836, Note_off_c, 0, 72, 64
2, 1869836, Note_off_c, 0, 76, 64
2, 1869836, Note_off_c, 0, 67, 64
2, 1869960, Note_on_c, 0, 72, 111
2, 1869960, Note_on_c, 0, 67, 101
2, 1869960, Note_on_c, 0, 76, 104
2, 1870076, Note_off_c, 0, 72, 64
2, 1870076, Note_off_c, 0, 67, 64
2, 1870076, Note_off_c, 0, 76, 64
2, 1870200, Note_on_c, 0, 72, 107
2, 1870200, Note_on_c, 0, 76, 111
2, 1870200, Note_on_c, 0, 67, 104
2, 1870316, Note_off_c, 0, 72, 64
2, 1870316, Note_off_c, 0, 76, 64
2, 1870316, Note_off_c, 0, 67, 64
2, 1870680, Note_on_c, 0, 66, 115
2, 1870680, Note_on_c, 0, 69, 107
2, 1870680, Note_on_c, 0, 74, 104
2, 1870796, Note_off_c, 0, 66, 64
2, 1870796, Note_off_c, 0, 69, 64
2, 1870796, Note_off_c, 0, 74, 64
2, 1870920, Note_on_c, 0, 66, 108
2, 1870920, Note_on_c, 0, 74, 104
2, 1870920, Note_on_c, 0, 69, 106
2, 1871036, Note_off_c, 0, 66, 64
2, 1871036, Note_off_c, 0, 74, 64
2, 1871036, Note_off_c, 0, 69, 64
2, 1871160, Note_on_c, 0, 74, 96
2, 1871160, Note_on_c, 0, 66, 108
2, 1871160, Note_on_c, 0, 69, 102
2, 1871276, Note_off_c, 0, 74, 64
2, 1871276, Note_off_c, 0, 66, 64
2, 1871276, Note_off_c, 0, 69, 64
2, 1871400, Note_on_c, 0, 66, 117
2, 1871400, Note_on_c, 0, 74, 95
2, 1871400, Note_on_c, 0, 69, 109
2, 1871516, Note_off_c, 0, 66, 64
2, 1871516, Note_off_c, 0, 74, 64
2, 1871516, Note_off_c, 0, 69, 64
2, 1871640, Note_on_c, 0, 69, 106
2, 1871640, Note_on_c, 0, 66, 110
2, 1871640, Note_on_c, 0, 72, 111
2, 1871756, Note_off_c, 0, 69, 64
2, 1871756, Note_off_c, 0, 66, 64
2, 1871756, Note_off_c, 0, 72, 64
2, 1871760, Note_on_c, 0, 67, 101
2, 1871760, Note_on_c, 0, 71, 107
2, 1871760, Note_on_c, 0, 62, 106
2, 1871876, Note_off_c, 0, 67, 64
2, 1871876, Note_off_c, 0, 71, 64
2, 1871876, Note_off_c, 0, 62, 64
2, 1872320, Note_on_c, 0, 69, 101
2, 1872396, Note_off_c, 0, 69, 64
2, 1872400, Note_on_c, 0, 71, 111
2, 1872476, Note_off_c, 0, 71, 64
2, 1872480, Note_on_c, 0, 72, 102
2, 1872556, Note_off_c, 0, 72, 64
2, 1872560, Note_on_c, 0, 71, 100
2, 1872636, Note_off_c, 0, 71, 64
2, 1872640, Note_on_c, 0, 69, 98
2, 1872716, Note_off_c, 0, 69, 64
2, 1872720, Note_on_c, 0, 71, 106
2, 1872796, Note_off_c, 0, 71, 64
2, 1872800, Note_on_c, 0, 69, 97
2, 1872876, Note_off_c, 0, 69, 64
2, 1872880, Note_on_c, 0, 67, 95
2, 1872956, Note_off_c, 0, 67, 64
2, 1872960, Note_on_c, 0, 76, 109
2, 1873036, Note_off_c, 0, 76, 64
2, 1873040, Note_on_c, 0, 74, 100
2, 1873116, Note_off_c, 0, 74, 64
2, 1873120, Note_on_c, 0, 72, 117
2, 1873196, Note_off_c, 0, 72, 64
2, 1873200, Note_on_c, 0, 74, 106
2, 1873276, Note_off_c, 0, 74, 64
2, 1873360, Note_on_c, 0, 67, 96
2, 1873436, Note_off_c, 0, 67, 64
2, 1873440, Note_on_c, 0, 66, 106
2, 1873516, Note_off_c, 0, 66, 64
2, 1873520, Note_on_c, 0, 60, 111
2, 1873596, Note_off_c, 0, 60, 64
2, 1873840, Note_on_c, 0, 67, 117
2, 1873916, Note_off_c, 0, 67, 64
2, 1873920, Note_on_c, 0, 69, 113
2, 1873996, Note_off_c, 0, 69, 64
2, 1874000, Note_on_c, 0, 66, 101
2, 1874076, Note_off_c, 0, 66, 64
2, 1874320, Note_on_c, 0, 71, 113
2, 1874396, Note_off_c, 0, 71, 64
2, 1874400, Note_on_c, 0, 73, 119
2, 1874476, Note_off_c, 0, 73, 64
2, 1874480, Note_on_c, 0, 69, 109
2, 1874556, Note_off_c, 0, 69, 64
2, 1874800, Note_on_c, 0, 74, 117
2, 1874876, Note_off_c, 0, 74, 64
2, 1874880, Note_on_c, 0, 73, 115
2, 1874956, Note_off_c, 0, 73, 64
2, 1874960, Note_on_c, 0, 67, 104
2, 1875036, Note_off_c, 0, 67, 64
2, 1875280, Note_on_c, 0, 74, 107
2, 1875356, Note_off_c, 0, 74, 64
2, 1875360, Note_on_c, 0, 76, 107
2, 1875436, Note_off_c, 0, 76, 64
2, 1875440, Note_on_c, 0, 73, 115
2, 1875516, Note_off_c, 0, 73, 64
2, 1875760, Note_on_c, 0, 78, 108
2, 1875836, Note_off_c, 0, 78, 64
2, 1875840, Note_on_c, 0, 74, 104
2, 1875916, Note_off_c, 0, 74, 64
2, 1875920, Note_on_c, 0, 71, 107
2, 1875996, Note_off_c, 0, 71, 64
2, 1876240, Note_on_c, 0, 72, 109
2, 1876316, Note_off_c, 0, 72, 64
2, 1876320, Note_on_c, 0, 71, 107
2, 1876396, Note_off_c, 0, 71, 64
2, 1876400, Note_on_c, 0, 67, 102
2, 1876476, Note_off_c, 0, 67, 64
2, 1876720, Note_on_c, 0, 69, 111
2, 1876796, Note_off_c, 0, 69, 64
2, 1876800, Note_on_c, 0, 67, 102
2, 1876876, Note_off_c, 0, 67, 64
2, 1876880, Note_on_c, 0, 64, 111
2, 1876956, Note_off_c, 0, 64, 64
2, 1877200, Note_on_c, 0, 66, 110
2, 1877276, Note_off_c, 0, 66, 64
2, 1877280, Note_on_c, 0, 64, 109
2, 1877356, Note_off_c, 0, 64, 64
2, 1877360, Note_on_c, 0, 61, 121
2, 1877436, Note_off_c, 0, 61, 64
2, 1877680, Note_on_c, 0, 66, 115
2, 1877756, Note_off_c, 0, 66, 64
2, 1877760, Note_on_c, 0, 64, 109
2, 1877836, Note_off_c, 0, 64, 64
2, 1877840, Note_on_c, 0, 61, 119
2, 1877916, Note_off_c, 0, 61, 64
2, 1878160, Note_on_c, 0, 62, 117
2, 1878236, Note_off_c, 0, 62, 64
2, 1878240, Note_on_c, 0, 61, 110
2, 1878316, Note_off_c, 0, 61, 64
2, 1878320, Note_on_c, 0, 57, 109
2, 1878396, Note_off_c, 0, 57, 64
2, 1878640, Note_on_c, 0, 59, 104
2, 1878716, Note_off_c, 0, 59, 64
2, 1878720, Note_on_c, 0, 57, 100
2, 1878796, Note_off_c, 0, 57, 64
2, 1878800, Note_on_c, 0, 54, 117
2, 1878876, Note_off_c, 0, 54, 64
2, 1879120, Note_on_c, 0, 59, 115
2, 1879196, Note_off_c, 0, 59, 64
2, 1879200, Note_on_c, 0, 57, 106
2, 1879276, Note_off_c, 0, 57, 64
2, 1879280, Note_on_c, 0, 54, 117
2, 1879356, Note_off_c, 0, 54, 64
2, 1879600, Note_on_c, 0, 55, 90
2, 1879676, Note_off_c, 0, 55, 64
2, 1879680, Note_on_c, 0, 54, 101
2, 1879756, Note_off_c, 0, 54, 64
2, 1879760, Note_on_c, 0, 50, 100
2, 1879836, Note_off_c, 0, 50, 64
2, 1880080, Note_on_c, 0, 52, 113
2, 1880156, Note_off_c, 0, 52, 64
2, 1880160, Note_on_c, 0, 50, 101
2, 1880236, Note_off_c, 0, 50, 64
2, 1880240, Note_on_c, 0, 47, 115
2, 1880316, Note_off_c, 0, 47, 64
2, 1880560, Note_on_c, 0, 52, 107
2, 1880636, Note_off_c, 0, 52, 64
2, 1880640, Note_on_c, 0, 50, 102
2, 1880716, Note_off_c, 0, 50, 64
2, 1880720, Note_on_c, 0, 47, 104
2, 1880796, Note_off_c, 0, 47, 64
2, 1881040, Note_on_c, 0, 48, 113
2, 1881116, Note_off_c, 0, 48, 64
2, 1881120, Note_on_c, 0, 47, 106
2, 1881196, Note_off_c, 0, 47, 64
2, 1881200, Note_on_c, 0, 43, 100
2, 1881276, Note_off_c, 0, 43, 64
2, 1881520, Note_on_c, 0, 45, 100
2, 1881596, Note_off_c, 0, 45, 64
2, 1881600, Note_on_c, 0, 43, 98
2, 1881676, Note_off_c, 0, 43, 64
2, 1881680, Note_on_c, 0, 40, 101
2, 1881756, Note_off_c, 0, 40, 64
2, 1881920, Note_on_c, 0, 55, 113
2, 1881996, Note_off_c, 0, 55, 64
2, 1882000, Note_on_c, 0, 57, 104
2, 1882076, Note_off_c, 0, 57, 64
2, 1882080, Note_on_c, 0, 64, 121
2, 1882156, Note_off_c, 0, 64, 64
2, 1882160, Note_on_c, 0, 57, 102
2, 1882236, Note_off_c, 0, 57, 64
2, 1882240, Note_on_c, 0, 55, 111
2, 1882316, Note_off_c, 0, 55, 64
2, 1882400, Note_on_c, 0, 54, 110
2, 1882476, Note_off_c, 0, 54, 64
2, 1882480, Note_on_c, 0, 57, 111
2, 1882556, Note_off_c, 0, 57, 64
2, 1882560, Note_on_c, 0, 62, 113
2, 1882636, Note_off_c, 0, 62, 64
2, 1882640, Note_on_c, 0, 57, 102
2, 1882716, Note_off_c, 0, 57, 64
2, 1882720, Note_on_c, 0, 54, 119
2, 1882796, Note_off_c, 0, 54, 64
2, 1882880, Note_on_c, 0, 52, 102
2, 1882956, Note_off_c, 0, 52, 64
2, 1882960, Note_on_c, 0, 55, 107
2, 1883036, Note_off_c, 0, 55, 64
2, 1883040, Note_on_c, 0, 61, 106
2, 1883116, Note_off_c, 0, 61, 64
2, 1883120, Note_on_c, 0, 55, 100
2, 1883196, Note_off_c, 0, 55, 64
2, 1883200, Note_on_c, 0, 52, 111
2, 1883276, Note_off_c, 0, 52, 64
2, 1883640, Note_on_c, 0, 62, 106
2, 1883640, Note_on_c, 0, 54, 115
2, 1883640, Note_on_c, 0, 57, 107
2, 1883756, Note_off_c, 0, 62, 64
2, 1883756, Note_off_c, 0, 54, 64
2, 1883756, Note_off_c, 0, 57, 64
2, 1883880, Note_on_c, 0, 54, 115
2, 1883880, Note_on_c, 0, 62, 111
2, 1883880, Note_on_c, 0, 57, 111
2, 1883996, Note_off_c, 0, 54, 64
2, 1883996, Note_off_c, 0, 62, 64
2, 1883996, Note_off_c, 0, 57, 64
2, 1884120, Note_on_c, 0, 62, 106
2, 1884120, Note_on_c, 0, 54, 112
2, 1884120, Note_on_c, 0, 57, 113
2, 1884236, Note_off_c, 0, 62, 64
2, 1884236, Note_off_c, 0, 54, 64
2, 1884236, Note_off_c, 0, 57, 64
2, 1884880, Note_on_c, 0, 83, 111
2, 1884956, Note_off_c, 0, 83, 64
2, 1884960, Note_on_c, 0, 81, 98
2, 1885036, Note_off_c, 0, 81, 64
2, 1885040, Note_on_c, 0, 78, 102
2, 1885116, Note_off_c, 0, 78, 64
2, 1885360, Note_on_c, 0, 79, 100
2, 1885436, Note_off_c, 0, 79, 64
2, 1885440, Note_on_c, 0, 78, 97
2, 1885516, Note_off_c, 0, 78, 64
2, 1885520, Note_on_c, 0, 74, 100
2, 1885596, Note_off_c, 0, 74, 64
2, 1885840, Note_on_c, 0, 76, 97
2, 1885916, Note_off_c, 0, 76, 64
2, 1885920, Note_on_c, 0, 74, 97
2, 1885996, Note_off_c, 0, 74, 64
2, 1886000, Note_on_c, 0, 71, 98
2, 1886076, Note_off_c, 0, 71, 64
2, 1886320, Note_on_c, 0, 76, 97
2, 1886396, Note_off_c, 0, 76, 64
2, 1886400, Note_on_c, 0, 74, 93
2, 1886476, Note_off_c, 0, 74, 64
2, 1886480, Note_on_c, 0, 71, 107
2, 1886556, Note_off_c, 0, 71, 64
2, 1886800, Note_on_c, 0, 72, 100
2, 1886876, Note_off_c, 0, 72, 64
2, 1886880, Note_on_c, 0, 71, 95
2, 1886956, Note_off_c, 0, 71, 64
2, 1886960, Note_on_c, 0, 67, 102
2, 1887036, Note_off_c, 0, 67, 64
2, 1887280, Note_on_c, 0, 69, 96
2, 1887356, Note_off_c, 0, 69, 64
2, 1887360, Note_on_c, 0, 67, 96
2, 1887436, Note_off_c, 0, 67, 64
2, 1887440, Note_on_c, 0, 64, 89
2, 1887516, Note_off_c, 0, 64, 64
2, 1887760, Note_on_c, 0, 65, 93
2, 1887836, Note_off_c, 0, 65, 64
2, 1887840, Note_on_c, 0, 64, 102
2, 1887916, Note_off_c, 0, 64, 64
2, 1887920, Note_on_c, 0, 60, 102
2, 1887996, Note_off_c, 0, 60, 64
2, 1888240, Note_on_c, 0, 62, 96
2, 1888316, Note_off_c, 0, 62, 64
2, 1888320, Note_on_c, 0, 60, 102
2, 1888396, Note_off_c, 0, 60, 64
2, 1888400, Note_on_c, 0, 57, 106
2, 1888476, Note_off_c, 0, 57, 64
2, 1888720, Note_on_c, 0, 59, 101
2, 1888796, Note_off_c, 0, 59, 64
2, 1888800, Note_on_c, 0, 57, 97
2, 1888876, Note_off_c, 0, 57, 64
2, 1888880, Note_on_c, 0, 54, 112
2, 1888956, Note_off_c, 0, 54, 64
2, 1889200, Note_on_c, 0, 55, 97
2, 1889276, Note_off_c, 0, 55, 64
2, 1889280, Note_on_c, 0, 54, 110
2, 1889356, Note_off_c, 0, 54, 64
2, 1889360, Note_on_c, 0, 51, 117
2, 1889436, Note_off_c, 0, 51, 64
2, 1889680, Note_on_c, 0, 52, 104
2, 1889756, Note_off_c, 0, 52, 64
2, 1889760, Note_on_c, 0, 51, 108
2, 1889836, Note_off_c, 0, 51, 64
2, 1889840, Note_on_c, 0, 47, 121
2, 1889916, Note_off_c, 0, 47, 64
2, 1890160, Note_on_c, 0, 48, 113
2, 1890236, Note_off_c, 0, 48, 64
2, 1890240, Note_on_c, 0, 47, 109
2, 1890316, Note_off_c, 0, 47, 64
2, 1890320, Note_on_c, 0, 43, 113
2, 1890396, Note_off_c, 0, 43, 64
2, 1890840, Note_on_c, 0, 71, 102
2, 1890840, Note_on_c, 0, 67, 101
2, 1890840, Note_on_c, 0, 76, 109
2, 1890956, Note_off_c, 0, 71, 64
2, 1890956, Note_off_c, 0, 67, 64
2, 1890956, Note_off_c, 0, 76, 64
2, 1891080, Note_on_c, 0, 71, 102
2, 1891080, Note_on_c, 0, 67, 95
2, 1891080, Note_on_c, 0, 76, 102
2, 1891196, Note_off_c, 0, 71, 64
2, 1891196, Note_off_c, 0, 67, 64
2, 1891196, Note_off_c, 0, 76, 64
2, 1891320, Note_on_c, 0, 67, 100
2, 1891320, Note_on_c, 0, 71, 106
2, 1891320, Note_on_c, 0, 76, 97
2, 1891436, Note_off_c, 0, 67, 64
2, 1891436, Note_off_c, 0, 71, 64
2, 1891436, Note_off_c, 0, 76, 64
2, 1891560, Note_on_c, 0, 71, 104
2, 1891560, Note_on_c, 0, 76, 101
2, 1891560, Note_on_c, 0, 67, 97
2, 1891676, Note_off_c, 0, 71, 64
2, 1891676, Note_off_c, 0, 76, 64
2, 1891676, Note_off_c, 0, 67, 64
2, 1891800, Note_on_c, 0, 71, 111
2, 1891800, Note_on_c, 0, 67, 101
2, 1891800, Note_on_c, 0, 76, 107
2, 1891916, Note_off_c, 0, 71, 64
2, 1891916, Note_off_c, 0, 67, 64
2, 1891916, Note_off_c, 0, 76, 64
2, 1892280, Note_on_c, 0, 71, 104
2, 1892280, Note_on_c, 0, 76, 98
2, 1892280, Note_on_c, 0, 67, 90
2, 1892396, Note_off_c, 0, 71, 64
2, 1892396, Note_off_c, 0, 76, 64
2, 1892396, Note_off_c, 0, 67, 64
2, 1892520, Note_on_c, 0, 76, 90
2, 1892520, Note_on_c, 0, 67, 96
2, 1892520, Note_on_c, 0, 71, 102
2, 1892636, Note_off_c, 0, 76, 64
2, 1892636, Note_off_c, 0, 67, 64
2, 1892636, Note_off_c, 0, 71, 64
2, 1892760, Note_on_c, 0, 71, 101
2, 1892760, Note_on_c, 0, 76, 93
2, 1892760, Note_on_c, 0, 67, 98
2, 1892876, Note_off_c, 0, 71, 64
2, 1892876, Note_off_c, 0, 76, 64
2, 1892876, Note_off_c, 0, 67, 64
2, 1893000, Note_on_c, 0, 71, 102
2, 1893000, Note_on_c, 0, 76, 106
2, 1893000, Note_on_c, 0, 67, 100
2, 1893116, Note_off_c, 0, 71, 64
2, 1893116, Note_off_c, 0, 76, 64
2, 1893116, Note_off_c, 0, 67, 64
2, 1893240, Note_on_c, 0, 67, 102
2, 1893240, Note_on_c, 0, 71, 107
2, 1893240, Note_on_c, 0, 76, 111
2, 1893356, Note_off_c, 0, 67, 64
2, 1893356, Note_off_c, 0, 71, 64
2, 1893356, Note_off_c, 0, 76, 64
2, 1893440, Note_on_c, 0, 78, 101
2, 1893516, Note_off_c, 0, 78, 64
2, 1893520, Note_on_c, 0, 79, 104
2, 1893596, Note_off_c, 0, 79, 64
2, 1893600, Note_on_c, 0, 81, 106
2, 1893676, Note_off_c, 0, 81, 64
2, 1893680, Note_on_c, 0, 83, 117
2, 1893756, Note_off_c, 0, 83, 64
2, 1893760, Note_on_c, 0, 84, 102
2, 1893916, Note_off_c, 0, 84, 64
2, 1893920, Note_on_c, 0, 83, 111
2, 1893996, Note_off_c, 0, 83, 64
2, 1894000, Note_on_c, 0, 81, 104
2, 1894076, Note_off_c, 0, 81, 64
2, 1894080, Note_on_c, 0, 79, 102
2, 1894156, Note_off_c, 0, 79, 64
2, 1894160, Note_on_c, 0, 78, 106
2, 1894236, Note_off_c, 0, 78, 64
2, 1894240, Note_on_c, 0, 76, 111
2, 1894316, Note_off_c, 0, 76, 64
2, 1894320, Note_on_c, 0, 75, 104
2, 1894396, Note_off_c, 0, 75, 64
2, 1894400, Note_on_c, 0, 72, 113
2, 1894476, Note_off_c, 0, 72, 64
2, 1894480, Note_on_c, 0, 71, 104
2, 1894556, Note_off_c, 0, 71, 64
2, 1894560, Note_on_c, 0, 69, 101
2, 1894636, Note_off_c, 0, 69, 64
2, 1894640, Note_on_c, 0, 67, 111
2, 1894716, Note_off_c, 0, 67, 64
2, 1894720, Note_on_c, 0, 66, 108
2, 1894796, Note_off_c, 0, 66, 64
2, 1894800, Note_on_c, 0, 64, 119
2, 1894916, Note_off_c, 0, 64, 64
2, 1894920, Note_on_c, 0, 67, 102
2, 1894920, Note_on_c, 0, 71, 109
2, 1894920, Note_on_c, 0, 76, 117
2, 1895036, Note_off_c, 0, 67, 64
2, 1895036, Note_off_c, 0, 71, 64
2, 1895036, Note_off_c, 0, 76, 64
2, 1895160, Note_on_c, 0, 71, 91
2, 1895160, Note_on_c, 0, 67, 93
2, 1895160, Note_on_c, 0, 76, 100
2, 1895276, Note_off_c, 0, 71, 64
2, 1895276, Note_off_c, 0, 67, 64
2, 1895276, Note_off_c, 0, 76, 64
2, 1895400, Note_on_c, 0, 72, 104
2, 1895400, Note_on_c, 0, 67, 106
2, 1895400, Note_on_c, 0, 64, 104
2, 1895516, Note_off_c, 0, 72, 64
2, 1895516, Note_off_c, 0, 67, 64
2, 1895516, Note_off_c, 0, 64, 64
2, 1895640, Note_on_c, 0, 72, 107
2, 1895640, Note_on_c, 0, 67, 102
2, 1895640, Note_on_c, 0, 64, 106
2, 1895756, Note_off_c, 0, 72, 64
2, 1895756, Note_off_c, 0, 67, 64
2, 1895756, Note_off_c, 0, 64, 64
2, 1895880, Note_on_c, 0, 64, 115
2, 1895880, Note_on_c, 0, 59, 113
2, 1895880, Note_on_c, 0, 67, 111
2, 1895996, Note_off_c, 0, 64, 64
2, 1895996, Note_off_c, 0, 59, 64
2, 1895996, Note_off_c, 0, 67, 64
2, 1896120, Note_on_c, 0, 64, 107
2, 1896120, Note_on_c, 0, 59, 107
2, 1896120, Note_on_c, 0, 67, 104
2, 1896236, Note_off_c, 0, 64, 64
2, 1896236, Note_off_c, 0, 59, 64
2, 1896236, Note_off_c, 0, 67, 64
2, 1896320, Note_on_c, 0, 52, 119
2, 1896396, Note_off_c, 0, 52, 64
2, 1896400, Note_on_c, 0, 53, 113
2, 1896476, Note_off_c, 0, 53, 64
2, 1896480, Note_on_c, 0, 54, 112
2, 1896556, Note_off_c, 0, 54, 64
2, 1896560, Note_on_c, 0, 55, 113
2, 1896636, Note_off_c, 0, 55, 64
2, 1896640, Note_on_c, 0, 56, 115
2, 1896716, Note_off_c, 0, 56, 64
2, 1896800, Note_on_c, 0, 59, 104
2, 1896876, Note_off_c, 0, 59, 64
2, 1896880, Note_on_c, 0, 60, 111
2, 1896956, Note_off_c, 0, 60, 64
2, 1896960, Note_on_c, 0, 62, 111
2, 1897036, Note_off_c, 0, 62, 64
2, 1897040, Note_on_c, 0, 60, 115
2, 1897116, Note_off_c, 0, 60, 64
2, 1897120, Note_on_c, 0, 59, 113
2, 1897196, Note_off_c, 0, 59, 64
2, 1897200, Note_on_c, 0, 60, 117
2, 1897276, Note_off_c, 0, 60, 64
2, 1897280, Note_on_c, 0, 62, 107
2, 1897356, Note_off_c, 0, 62, 64
2, 1897360, Note_on_c, 0, 64, 115
2, 1897436, Note_off_c, 0, 64, 64
2, 1897440, Note_on_c, 0, 66, 108
2, 1897516, Note_off_c, 0, 66, 64
2, 1897520, Note_on_c, 0, 67, 107
2, 1897596, Note_off_c, 0, 67, 64
2, 1897600, Note_on_c, 0, 69, 109
2, 1897676, Note_off_c, 0, 69, 64
2, 1897760, Note_on_c, 0, 50, 117
2, 1897836, Note_off_c, 0, 50, 64
2, 1897840, Note_on_c, 0, 51, 115
2, 1897916, Note_off_c, 0, 51, 64
2, 1897920, Note_on_c, 0, 52, 113
2, 1897996, Note_off_c, 0, 52, 64
2, 1898000, Note_on_c, 0, 53, 107
2, 1898076, Note_off_c, 0, 53, 64
2, 1898080, Note_on_c, 0, 54, 121
2, 1898156, Note_off_c, 0, 54, 64
2, 1898240, Note_on_c, 0, 57, 107
2, 1898316, Note_off_c, 0, 57, 64
2, 1898320, Note_on_c, 0, 59, 115
2, 1898396, Note_off_c, 0, 59, 64
2, 1898400, Note_on_c, 0, 60, 119
2, 1898476, Note_off_c, 0, 60, 64
2, 1898480, Note_on_c, 0, 59, 113
2, 1898556, Note_off_c, 0, 59, 64
2, 1898560, Note_on_c, 0, 57, 107
2, 1898636, Note_off_c, 0, 57, 64
2, 1898640, Note_on_c, 0, 59, 121
2, 1898716, Note_off_c, 0, 59, 64
2, 1898720, Note_on_c, 0, 60, 106
2, 1898796, Note_off_c, 0, 60, 64
2, 1898800, Note_on_c, 0, 62, 117
2, 1898876, Note_off_c, 0, 62, 64
2, 1898880, Note_on_c, 0, 64, 113
2, 1898956, Note_off_c, 0, 64, 64
2, 1898960, Note_on_c, 0, 66, 110
2, 1899036, Note_off_c, 0, 66, 64
2, 1899040, Note_on_c, 0, 67, 113
2, 1899116, Note_off_c, 0, 67, 64
2, 1899120, Note_on_c, 0, 60, 115
2, 1899196, Note_off_c, 0, 60, 64
2, 1899280, Note_on_c, 0, 65, 90
2, 1899356, Note_off_c, 0, 65, 64
2, 1899360, Note_on_c, 0, 64, 104
2, 1899436, Note_off_c, 0, 64, 64
2, 1899440, Note_on_c, 0, 60, 101
2, 1899516, Note_off_c, 0, 60, 64
2, 1899760, Note_on_c, 0, 62, 104
2, 1899836, Note_off_c, 0, 62, 64
2, 1899840, Note_on_c, 0, 60, 101
2, 1899916, Note_off_c, 0, 60, 64
2, 1899920, Note_on_c, 0, 57, 101
2, 1899996, Note_off_c, 0, 57, 64
2, 1900240, Note_on_c, 0, 59, 98
2, 1900316, Note_off_c, 0, 59, 64
2, 1900320, Note_on_c, 0, 57, 107
2, 1900396, Note_off_c, 0, 57, 64
2, 1900400, Note_on_c, 0, 54, 117
2, 1900476, Note_off_c, 0, 54, 64
2, 1900720, Note_on_c, 0, 71, 101
2, 1900796, Note_off_c, 0, 71, 64
2, 1900800, Note_on_c, 0, 69, 93
2, 1900876, Note_off_c, 0, 69, 64
2, 1900880, Note_on_c, 0, 66, 106
2, 1900956, Note_off_c, 0, 66, 64
2, 1901200, Note_on_c, 0, 67, 98
2, 1901276, Note_off_c, 0, 67, 64
2, 1901280, Note_on_c, 0, 66, 97
2, 1901356, Note_off_c, 0, 66, 64
2, 1901360, Note_on_c, 0, 62, 102
2, 1901436, Note_off_c, 0, 62, 64
2, 1901680, Note_on_c, 0, 64, 107
2, 1901756, Note_off_c, 0, 64, 64
2, 1901760, Note_on_c, 0, 62, 106
2, 1901836, Note_off_c, 0, 62, 64
2, 1901840, Note_on_c, 0, 59, 104
2, 1901916, Note_off_c, 0, 59, 64
2, 1902160, Note_on_c, 0, 76, 115
2, 1902236, Note_off_c, 0, 76, 64
2, 1902240, Note_on_c, 0, 74, 101
2, 1902316, Note_off_c, 0, 74, 64
2, 1902320, Note_on_c, 0, 71, 109
2, 1902396, Note_off_c, 0, 71, 64
2, 1902640, Note_on_c, 0, 72, 102
2, 1902716, Note_off_c, 0, 72, 64
2, 1902720, Note_on_c, 0, 71, 104
2, 1902796, Note_off_c, 0, 71, 64
2, 1902800, Note_on_c, 0, 67, 111
2, 1902876, Note_off_c, 0, 67, 64
2, 1903120, Note_on_c, 0, 69, 113
2, 1903196, Note_off_c, 0, 69, 64
2, 1903200, Note_on_c, 0, 67, 102
2, 1903276, Note_off_c, 0, 67, 64
2, 1903280, Note_on_c, 0, 64, 109
2, 1903356, Note_off_c, 0, 64, 64
2, 1903600, Note_on_c, 0, 81, 119
2, 1903676, Note_off_c, 0, 81, 64
2, 1903680, Note_on_c, 0, 79, 104
2, 1903756, Note_off_c, 0, 79, 64
2, 1903760, Note_on_c, 0, 76, 117
2, 1903836, Note_off_c, 0, 76, 64
2, 1904080, Note_on_c, 0, 77, 106
2, 1904156, Note_off_c, 0, 77, 64
2, 1904160, Note_on_c, 0, 76, 109
2, 1904236, Note_off_c, 0, 76, 64
2, 1904240, Note_on_c, 0, 72, 109
2, 1904316, Note_off_c, 0, 72, 64
2, 1904560, Note_on_c, 0, 74, 106
2, 1904636, Note_off_c, 0, 74, 64
2, 1904640, Note_on_c, 0, 72, 107
2, 1904716, Note_off_c, 0, 72, 64
2, 1904720, Note_on_c, 0, 69, 107
2, 1904796, Note_off_c, 0, 69, 64
2, 1904960, Note_on_c, 0, 69, 109
2, 1905036, Note_off_c, 0, 69, 64
2, 1905040, Note_on_c, 0, 71, 102
2, 1905116, Note_off_c, 0, 71, 64
2, 1905120, Note_on_c, 0, 72, 113
2, 1905196, Note_off_c, 0, 72, 64
2, 1905200, Note_on_c, 0, 74, 115
2, 1905276, Note_off_c, 0, 74, 64
2, 1905280, Note_on_c, 0, 76, 124
2, 1905436, Note_off_c, 0, 76, 64
2, 1905440, Note_on_c, 0, 74, 101
2, 1905516, Note_off_c, 0, 74, 64
2, 1905520, Note_on_c, 0, 72, 100
2, 1905596, Note_off_c, 0, 72, 64
2, 1905600, Note_on_c, 0, 71, 102
2, 1905676, Note_off_c, 0, 71, 64
2, 1905680, Note_on_c, 0, 69, 113
2, 1905756, Note_off_c, 0, 69, 64
2, 1905760, Note_on_c, 0, 67, 123
2, 1905916, Note_off_c, 0, 67, 64
2, 1905920, Note_on_c, 0, 66, 108
2, 1905996, Note_off_c, 0, 66, 64
2, 1906000, Note_on_c, 0, 67, 100
2, 1906076, Note_off_c, 0, 67, 64
2, 1906080, Note_on_c, 0, 69, 107
2, 1906156, Note_off_c, 0, 69, 64
2, 1906160, Note_on_c, 0, 71, 113
2, 1906236, Note_off_c, 0, 71, 64
2, 1906240, Note_on_c, 0, 72, 113
2, 1906316, Note_off_c, 0, 72, 64
2, 1906320, Note_on_c, 0, 71, 106
2, 1906556, Note_off_c, 0, 71, 64
2, 1906680, Note_on_c, 0, 71, 102
2, 1906680, Note_on_c, 0, 74, 106
2, 1906680, Note_on_c, 0, 79, 113
2, 1906796, Note_off_c, 0, 71, 64
2, 1906796, Note_off_c, 0, 74, 64
2, 1906796, Note_off_c, 0, 79, 64
2, 1906920, Note_on_c, 0, 71, 102
2, 1906920, Note_on_c, 0, 74, 102
2, 1906920, Note_on_c, 0, 79, 100
2, 1907036, Note_off_c, 0, 71, 64
2, 1907036, Note_off_c, 0, 74, 64
2, 1907036, Note_off_c, 0, 79, 64
2, 1907160, Note_on_c, 0, 74, 104
2, 1907160, Note_on_c, 0, 71, 106
2, 1907160, Note_on_c, 0, 79, 102
2, 1907276, Note_off_c, 0, 74, 64
2, 1907276, Note_off_c, 0, 71, 64
2, 1907276, Note_off_c, 0, 79, 64
2, 1911372, Note_on_c, 0, 62, 111
2, 1911604, Note_on_c, 0, 67, 115
2, 1911608, Note_off_c, 0, 62, 64
2, 1911848, Note_on_c, 0, 69, 115
2, 1911856, Note_off_c, 0, 67, 64
2, 1912064, Note_off_c, 0, 69, 64
2, 1912076, Note_on_c, 0, 71, 106
2, 1912316, Note_on_c, 0, 72, 117
2, 1912324, Note_off_c, 0, 71, 64
2, 1912556, Note_off_c, 0, 72, 64
2, 1912556, Note_on_c, 0, 74, 117
2, 1912804, Note_on_c, 0, 72, 117
2, 1912812, Note_off_c, 0, 74, 64
2, 1912912, Note_on_c, 0, 71, 111
2, 1912924, Note_off_c, 0, 72, 64
2, 1913036, Note_off_c, 0, 71, 64
2, 1913040, Note_on_c, 0, 69, 119
2, 1913280, Note_off_c, 0, 69, 64
2, 1913520, Note_on_c, 0, 74, 115
2, 1913996, Note_on_c, 0, 74, 109
2, 1914000, Note_off_c, 0, 74, 64
2, 1914000, Note_off_c, 0, 74, 64
2, 1914480, Note_on_c, 0, 76, 123
2, 1914960, Note_off_c, 0, 76, 64
2, 1914960, Note_on_c, 0, 76, 119
2, 1915444, Note_on_c, 0, 74, 113
2, 1915448, Note_off_c, 0, 76, 64
2, 1915680, Note_on_c, 0, 76, 115
2, 1915684, Note_off_c, 0, 74, 64
2, 1915908, Note_on_c, 0, 74, 111
2, 1915916, Note_off_c, 0, 76, 64
2, 1916144, Note_off_c, 0, 74, 64
2, 1916144, Note_on_c, 0, 72, 109
2, 1916384, Note_off_c, 0, 72, 64
2, 1916400, Note_on_c, 0, 71, 111
2, 1916460, Note_off_c, 0, 71, 64
2, 1916460, Note_on_c, 0, 72, 96
2, 1916520, Note_off_c, 0, 72, 64
2, 1916520, Note_on_c, 0, 71, 84
2, 1916636, Note_on_c, 0, 69, 104
2, 1916640, Note_off_c, 0, 71, 64
2, 1916756, Note_off_c, 0, 69, 64
2, 1916756, Note_on_c, 0, 71, 107
2, 1916880, Note_on_c, 0, 67, 102
2, 1916888, Note_off_c, 0, 71, 64
2, 1917360, Note_off_c, 0, 67, 64
2, 1917360, Note_on_c, 0, 67, 111
2, 1917624, Note_on_c, 0, 69, 107
2, 1917636, Note_off_c, 0, 67, 64
2, 1917848, Note_off_c, 0, 69, 64
2, 1917848, Note_on_c, 0, 71, 102
2, 1918076, Note_on_c, 0, 72, 113
2, 1918088, Note_off_c, 0, 71, 64
2, 1918328, Note_on_c, 0, 74, 104
2, 1918332, Note_off_c, 0, 72, 64
2, 1918584, Note_on_c, 0, 72, 106
2, 1918596, Note_off_c, 0, 74, 64
2, 1918688, Note_on_c, 0, 71, 101
2, 1918704, Note_off_c, 0, 72, 64
2, 1918800, Note_off_c, 0, 71, 64
2, 1918808, Note_on_c, 0, 69, 102
2, 1919048, Note_off_c, 0, 69, 64
2, 1919048, Note_on_c, 0, 74, 111
2, 1919284, Note_off_c, 0, 74, 64
2, 1919284, Note_on_c, 0, 79, 121
2, 1919524, Note_on_c, 0, 78, 110
2, 1919536, Note_off_c, 0, 79, 64
2, 1919748, Note_on_c, 0, 76, 115
2, 1919760, Note_off_c, 0, 78, 64
2, 1920012, Note_off_c, 0, 76, 64
2, 1920012, Note_on_c, 0, 74, 109
2, 1920240, Note_off_c, 0, 74, 64
2, 1920240, Note_on_c, 0, 73, 100
2, 1920288, Note_off_c, 0, 73, 64
2, 1920300, Note_on_c, 0, 74, 115
2, 1920332, Note_off_c, 0, 74, 64
2, 1920360, Note_on_c, 0, 73, 106
2, 1920480, Note_off_c, 0, 73, 64
2, 1920484, Note_on_c, 0, 71, 106
2, 1920596, Note_on_c, 0, 73, 112
2, 1920608, Note_off_c, 0, 71, 64
2, 1920720, Note_off_c, 0, 73, 64
2, 1920720, Note_on_c, 0, 69, 115
2, 1920960, Note_off_c, 0, 69, 64
2, 1921200, Note_on_c, 0, 81, 127
2, 1921676, Note_off_c, 0, 81, 64
2, 1921680, Note_on_c, 0, 81, 121
2, 1922156, Note_off_c, 0, 81, 64
2, 1922160, Note_on_c, 0, 83, 126
2, 1922636, Note_off_c, 0, 83, 64
2, 1922640, Note_on_c, 0, 83, 102
2, 1923116, Note_off_c, 0, 83, 64
2, 1923120, Note_on_c, 0, 81, 117
2, 1923356, Note_off_c, 0, 81, 64
2, 1923360, Note_on_c, 0, 83, 109
2, 1923596, Note_off_c, 0, 83, 64
2, 1923600, Note_on_c, 0, 81, 107
2, 1923836, Note_off_c, 0, 81, 64
2, 1923840, Note_on_c, 0, 79, 115
2, 1924076, Note_off_c, 0, 79, 64
2, 1924080, Note_on_c, 0, 78, 121
2, 1924316, Note_off_c, 0, 78, 64
2, 1924320, Note_on_c, 0, 76, 102
2, 1924556, Note_off_c, 0, 76, 64
2, 1924560, Note_on_c, 0, 74, 111
2, 1924796, Note_off_c, 0, 74, 64
2, 1926720, Note_on_c, 0, 62, 117
2, 1926956, Note_off_c, 0, 62, 64
2, 1926968, Note_on_c, 0, 67, 117
2, 1927212, Note_on_c, 0, 69, 113
2, 1927224, Note_off_c, 0, 67, 64
2, 1927436, Note_off_c, 0, 69, 64
2, 1927444, Note_on_c, 0, 71, 106
2, 1927676, Note_on_c, 0, 72, 119
2, 1927688, Note_off_c, 0, 71, 64
2, 1927908, Note_on_c, 0, 74, 117
2, 1927912, Note_off_c, 0, 72, 64
2, 1928152, Note_on_c, 0, 72, 109
2, 1928160, Note_off_c, 0, 74, 64
2, 1928256, Note_on_c, 0, 71, 115
2, 1928268, Note_off_c, 0, 72, 64
2, 1928380, Note_off_c, 0, 71, 64
2, 1928400, Note_on_c, 0, 69, 115
2, 1928640, Note_off_c, 0, 69, 64
2, 1928880, Note_on_c, 0, 74, 111
2, 1929360, Note_off_c, 0, 74, 64
2, 1929360, Note_on_c, 0, 74, 115
2, 1929840, Note_off_c, 0, 74, 64
2, 1929840, Note_on_c, 0, 76, 117
2, 1930320, Note_off_c, 0, 76, 64
2, 1930320, Note_on_c, 0, 76, 117
2, 1930808, Note_on_c, 0, 74, 111
2, 1930820, Note_off_c, 0, 76, 64
2, 1931028, Note_on_c, 0, 76, 106
2, 1931044, Note_off_c, 0, 74, 64
2, 1931260, Note_on_c, 0, 74, 106
2, 1931276, Note_off_c, 0, 76, 64
2, 1931508, Note_off_c, 0, 74, 64
2, 1931512, Note_on_c, 0, 72, 117
2, 1931740, Note_off_c, 0, 72, 64
2, 1931740, Note_on_c, 0, 71, 109
2, 1931772, Note_on_c, 0, 72, 101
2, 1931776, Note_off_c, 0, 71, 64
2, 1931808, Note_on_c, 0, 71, 102
2, 1931816, Note_off_c, 0, 72, 64
2, 1931984, Note_on_c, 0, 69, 106
2, 1931992, Note_off_c, 0, 71, 64
2, 1932100, Note_on_c, 0, 71, 109
2, 1932108, Note_off_c, 0, 69, 64
2, 1932224, Note_off_c, 0, 71, 64
2, 1932240, Note_on_c, 0, 67, 117
2, 1932712, Note_on_c, 0, 67, 109
2, 1932720, Note_off_c, 0, 67, 64
2, 1932720, Note_off_c, 0, 67, 64
2, 1932964, Note_on_c, 0, 69, 101
2, 1933192, Note_on_c, 0, 71, 113
2, 1933200, Note_off_c, 0, 69, 64
2, 1933420, Note_off_c, 0, 71, 64
2, 1933428, Note_on_c, 0, 72, 107
2, 1933672, Note_off_c, 0, 72, 64
2, 1933676, Note_on_c, 0, 74, 121
2, 1933916, Note_on_c, 0, 72, 115
2, 1933924, Note_off_c, 0, 74, 64
2, 1934020, Note_on_c, 0, 71, 107
2, 1934036, Note_off_c, 0, 72, 64
2, 1934144, Note_off_c, 0, 71, 64
2, 1934144, Note_on_c, 0, 69, 107
2, 1934388, Note_off_c, 0, 69, 64
2, 1934392, Note_on_c, 0, 74, 117
2, 1934636, Note_off_c, 0, 74, 64
2, 1934636, Note_on_c, 0, 79, 119
2, 1934860, Note_off_c, 0, 79, 64
2, 1934880, Note_on_c, 0, 78, 121
2, 1935096, Note_off_c, 0, 78, 64
2, 1935108, Note_on_c, 0, 76, 119
2, 1935352, Note_off_c, 0, 76, 64
2, 1935356, Note_on_c, 0, 74, 113
2, 1935596, Note_on_c, 0, 73, 119
2, 1935604, Note_off_c, 0, 74, 64
2, 1935620, Note_off_c, 0, 73, 64
2, 1935628, Note_on_c, 0, 74, 111
2, 1935660, Note_on_c, 0, 73, 121
2, 1935676, Note_off_c, 0, 74, 64
2, 1935828, Note_on_c, 0, 71, 121
2, 1935848, Note_off_c, 0, 73, 64
2, 1935944, Note_on_c, 0, 73, 117
2, 1935956, Note_off_c, 0, 71, 64
2, 1936064, Note_off_c, 0, 73, 64
2, 1936080, Note_on_c, 0, 69, 119
2, 1936320, Note_off_c, 0, 69, 64
2, 1936560, Note_on_c, 0, 81, 123
2, 1937040, Note_off_c, 0, 81, 64
2, 1937044, Note_on_c, 0, 81, 124
2, 1937500, Note_off_c, 0, 81, 64
2, 1937520, Note_on_c, 0, 83, 123
2, 1938000, Note_off_c, 0, 83, 64
2, 1938004, Note_on_c, 0, 83, 121
2, 1938480, Note_on_c, 0, 81, 119
2, 1938488, Note_off_c, 0, 83, 64
2, 1938716, Note_off_c, 0, 81, 64
2, 1938720, Note_on_c, 0, 83, 117
2, 1938956, Note_off_c, 0, 83, 64
2, 1938960, Note_on_c, 0, 81, 121
2, 1939196, Note_off_c, 0, 81, 64
2, 1939200, Note_on_c, 0, 79, 107
2, 1939436, Note_off_c, 0, 79, 64
2, 1939440, Note_on_c, 0, 78, 117
2, 1939676, Note_off_c, 0, 78, 64
2, 1939680, Note_on_c, 0, 76, 119
2, 1939916, Note_off_c, 0, 76, 64
2, 1939920, Note_on_c, 0, 74, 115
2, 1940156, Note_off_c, 0, 74, 64
2, 1940160, Note_on_c, 0, 81, 119
2, 1940396, Note_off_c, 0, 81, 64
2, 1940400, Note_on_c, 0, 78, 115
2, 1940636, Note_off_c, 0, 78, 64
2, 1940640, Note_on_c, 0, 81, 111
2, 1940876, Note_off_c, 0, 81, 64
2, 1940880, Note_on_c, 0, 78, 112
2, 1941116, Note_off_c, 0, 78, 64
2, 1941120, Note_on_c, 0, 81, 106
2, 1941356, Note_off_c, 0, 81, 64
2, 1941360, Note_on_c, 0, 74, 121
2, 1941596, Note_off_c, 0, 74, 64
2, 1941600, Note_on_c, 0, 76, 117
2, 1941716, Note_off_c, 0, 76, 64
2, 1941720, Note_on_c, 0, 78, 108
2, 1941836, Note_off_c, 0, 78, 64
2, 1941840, Note_on_c, 0, 79, 115
2, 1942076, Note_off_c, 0, 79, 64
2, 1942080, Note_on_c, 0, 76, 111
2, 1942316, Note_off_c, 0, 76, 64
2, 1942320, Note_on_c, 0, 81, 113
2, 1942556, Note_off_c, 0, 81, 64
2, 1942564, Note_on_c, 0, 79, 111
2, 1942804, Note_on_c, 0, 78, 121
2, 1942812, Note_off_c, 0, 79, 64
2, 1943024, Note_off_c, 0, 78, 64
2, 1943028, Note_on_c, 0, 76, 111
2, 1943260, Note_on_c, 0, 75, 106
2, 1943272, Note_off_c, 0, 76, 64
2, 1943288, Note_off_c, 0, 75, 64
2, 1943288, Note_on_c, 0, 76, 104
2, 1943320, Note_on_c, 0, 75, 110
2, 1943332, Note_off_c, 0, 76, 64
2, 1943508, Note_on_c, 0, 73, 117
2, 1943512, Note_off_c, 0, 75, 64
2, 1943620, Note_on_c, 0, 75, 112
2, 1943628, Note_off_c, 0, 73, 64
2, 1943740, Note_off_c, 0, 75, 64
2, 1943744, Note_on_c, 0, 71, 113
2, 1943980, Note_off_c, 0, 71, 64
2, 1943984, Note_on_c, 0, 83, 126
2, 1944240, Note_on_c, 0, 76, 106
2, 1944244, Note_off_c, 0, 83, 64
2, 1944472, Note_on_c, 0, 83, 121
2, 1944492, Note_off_c, 0, 76, 64
2, 1944708, Note_off_c, 0, 83, 64
2, 1944712, Note_on_c, 0, 76, 107
2, 1944960, Note_off_c, 0, 76, 64
2, 1944960, Note_on_c, 0, 83, 102
2, 1945188, Note_on_c, 0, 75, 110
2, 1945208, Note_off_c, 0, 83, 64
2, 1945304, Note_off_c, 0, 75, 64
2, 1945308, Note_on_c, 0, 76, 111
2, 1945428, Note_on_c, 0, 78, 97
2, 1945440, Note_off_c, 0, 76, 64
2, 1945540, Note_on_c, 0, 79, 106
2, 1945548, Note_off_c, 0, 78, 64
2, 1945668, Note_on_c, 0, 81, 107
2, 1945680, Note_off_c, 0, 79, 64
2, 1945916, Note_on_c, 0, 79, 109
2, 1945928, Note_off_c, 0, 81, 64
2, 1946028, Note_on_c, 0, 78, 119
2, 1946040, Note_off_c, 0, 79, 64
2, 1946148, Note_on_c, 0, 79, 111
2, 1946156, Note_off_c, 0, 78, 64
2, 1946392, Note_on_c, 0, 78, 119
2, 1946408, Note_off_c, 0, 79, 64
2, 1946508, Note_on_c, 0, 76, 104
2, 1946516, Note_off_c, 0, 78, 64
2, 1946636, Note_on_c, 0, 75, 93
2, 1946656, Note_off_c, 0, 76, 64
2, 1946752, Note_off_c, 0, 75, 64
2, 1946752, Note_on_c, 0, 76, 97
2, 1946864, Note_on_c, 0, 78, 110
2, 1946884, Note_off_c, 0, 76, 64
2, 1946972, Note_on_c, 0, 75, 104
2, 1946976, Note_off_c, 0, 78, 64
2, 1947096, Note_on_c, 0, 76, 107
2, 1947100, Note_off_c, 0, 75, 64
2, 1948180, Note_on_c, 0, 75, 99
2, 1948184, Note_off_c, 0, 76, 64
2, 1948300, Note_on_c, 0, 78, 106
2, 1948316, Note_off_c, 0, 75, 64
2, 1948420, Note_on_c, 0, 76, 101
2, 1948436, Note_off_c, 0, 78, 64
2, 1948532, Note_off_c, 0, 76, 64
2, 1948544, Note_on_c, 0, 79, 102
2, 1948660, Note_on_c, 0, 78, 96
2, 1948668, Note_off_c, 0, 79, 64
2, 1948788, Note_off_c, 0, 78, 64
2, 1948792, Note_on_c, 0, 81, 119
2, 1949008, Note_off_c, 0, 81, 64
2, 1949016, Note_on_c, 0, 74, 109
2, 1949772, Note_on_c, 0, 72, 115
2, 1949788, Note_off_c, 0, 74, 64
2, 1949884, Note_on_c, 0, 74, 102
2, 1949888, Note_off_c, 0, 72, 64
2, 1950008, Note_off_c, 0, 74, 64
2, 1950012, Note_on_c, 0, 76, 104
2, 1950248, Note_on_c, 0, 78, 108
2, 1950260, Note_off_c, 0, 76, 64
2, 1950352, Note_on_c, 0, 79, 102
2, 1950364, Note_off_c, 0, 78, 64
2, 1950468, Note_on_c, 0, 81, 109
2, 1950480, Note_off_c, 0, 79, 64
2, 1950728, Note_on_c, 0, 79, 104
2, 1950744, Note_off_c, 0, 81, 64
2, 1950948, Note_off_c, 0, 79, 64
2, 1950960, Note_on_c, 0, 79, 97
2, 1951020, Note_off_c, 0, 79, 64
2, 1951020, Note_on_c, 0, 78, 108
2, 1951060, Note_off_c, 0, 78, 64
2, 1951080, Note_on_c, 0, 76, 80
2, 1951140, Note_off_c, 0, 76, 64
2, 1951140, Note_on_c, 0, 78, 80
2, 1951200, Note_off_c, 0, 78, 64
2, 1951200, Note_on_c, 0, 74, 98
2, 1951440, Note_off_c, 0, 74, 64
2, 1951904, Note_on_c, 0, 83, 123
2, 1952152, Note_off_c, 0, 83, 64
2, 1952156, Note_on_c, 0, 84, 117
2, 1952404, Note_on_c, 0, 86, 98
2, 1952412, Note_off_c, 0, 84, 64
2, 1952636, Note_on_c, 0, 83, 113
2, 1952652, Note_off_c, 0, 86, 64
2, 1952868, Note_off_c, 0, 83, 64
2, 1952868, Note_on_c, 0, 84, 111
2, 1953100, Note_off_c, 0, 84, 64
2, 1953100, Note_on_c, 0, 83, 115
2, 1953336, Note_on_c, 0, 81, 113
2, 1953344, Note_off_c, 0, 83, 64
2, 1953576, Note_off_c, 0, 81, 64
2, 1953576, Note_on_c, 0, 79, 111
2, 1953824, Note_on_c, 0, 78, 123
2, 1953848, Note_off_c, 0, 79, 64
2, 1954064, Note_on_c, 0, 79, 113
2, 1954072, Note_off_c, 0, 78, 64
2, 1954304, Note_on_c, 0, 81, 107
2, 1954312, Note_off_c, 0, 79, 64
2, 1954540, Note_on_c, 0, 78, 115
2, 1954560, Note_off_c, 0, 81, 64
2, 1954792, Note_on_c, 0, 79, 115
2, 1954808, Note_off_c, 0, 78, 64
2, 1955264, Note_off_c, 0, 79, 64
2, 1955280, Note_on_c, 0, 79, 102
2, 1955520, Note_off_c, 0, 79, 64
2, 1955520, Note_on_c, 0, 81, 102
2, 1955760, Note_off_c, 0, 81, 64
2, 1955760, Note_on_c, 0, 78, 115
2, 1955996, Note_off_c, 0, 78, 64
2, 1956000, Note_on_c, 0, 81, 111
2, 1956236, Note_off_c, 0, 81, 64
2, 1956240, Note_on_c, 0, 78, 112
2, 1956476, Note_off_c, 0, 78, 64
2, 1956480, Note_on_c, 0, 81, 106
2, 1956716, Note_off_c, 0, 81, 64
2, 1956720, Note_on_c, 0, 74, 121
2, 1956956, Note_off_c, 0, 74, 64
2, 1956960, Note_on_c, 0, 76, 117
2, 1957076, Note_off_c, 0, 76, 64
2, 1957080, Note_on_c, 0, 78, 108
2, 1957196, Note_off_c, 0, 78, 64
2, 1957200, Note_on_c, 0, 79, 115
2, 1957436, Note_off_c, 0, 79, 64
2, 1957440, Note_on_c, 0, 76, 111
2, 1957676, Note_off_c, 0, 76, 64
2, 1957680, Note_on_c, 0, 81, 113
2, 1957916, Note_off_c, 0, 81, 64
2, 1957924, Note_on_c, 0, 79, 111
2, 1958164, Note_on_c, 0, 78, 121
2, 1958172, Note_off_c, 0, 79, 64
2, 1958384, Note_off_c, 0, 78, 64
2, 1958388, Note_on_c, 0, 76, 111
2, 1958620, Note_on_c, 0, 75, 106
2, 1958632, Note_off_c, 0, 76, 64
2, 1958648, Note_off_c, 0, 75, 64
2, 1958648, Note_on_c, 0, 76, 104
2, 1958680, Note_on_c, 0, 75, 110
2, 1958692, Note_off_c, 0, 76, 64
2, 1958868, Note_on_c, 0, 73, 117
2, 1958872, Note_off_c, 0, 75, 64
2, 1958980, Note_on_c, 0, 75, 112
2, 1958988, Note_off_c, 0, 73, 64
2, 1959100, Note_off_c, 0, 75, 64
2, 1959104, Note_on_c, 0, 71, 113
2, 1959340, Note_off_c, 0, 71, 64
2, 1959344, Note_on_c, 0, 83, 126
2, 1959600, Note_on_c, 0, 76, 106
2, 1959604, Note_off_c, 0, 83, 64
2, 1959832, Note_on_c, 0, 83, 121
2, 1959852, Note_off_c, 0, 76, 64
2, 1960068, Note_off_c, 0, 83, 64
2, 1960072, Note_on_c, 0, 76, 107
2, 1960320, Note_off_c, 0, 76, 64
2, 1960320, Note_on_c, 0, 83, 102
2, 1960548, Note_on_c, 0, 75, 110
2, 1960568, Note_off_c, 0, 83, 64
2, 1960664, Note_off_c, 0, 75, 64
2, 1960668, Note_on_c, 0, 76, 111
2, 1960788, Note_on_c, 0, 78, 97
2, 1960800, Note_off_c, 0, 76, 64
2, 1960900, Note_on_c, 0, 79, 106
2, 1960908, Note_off_c, 0, 78, 64
2, 1961028, Note_on_c, 0, 81, 107
2, 1961040, Note_off_c, 0, 79, 64
2, 1961276, Note_on_c, 0, 79, 109
2, 1961288, Note_off_c, 0, 81, 64
2, 1961388, Note_on_c, 0, 78, 119
2, 1961400, Note_off_c, 0, 79, 64
2, 1961508, Note_on_c, 0, 79, 111
2, 1961516, Note_off_c, 0, 78, 64
2, 1961752, Note_on_c, 0, 78, 119
2, 1961768, Note_off_c, 0, 79, 64
2, 1961868, Note_on_c, 0, 76, 104
2, 1961876, Note_off_c, 0, 78, 64
2, 1961996, Note_on_c, 0, 75, 93
2, 1962016, Note_off_c, 0, 76, 64
2, 1962112, Note_off_c, 0, 75, 64
2, 1962112, Note_on_c, 0, 76, 97
2, 1962224, Note_on_c, 0, 78, 110
2, 1962244, Note_off_c, 0, 76, 64
2, 1962332, Note_on_c, 0, 75, 104
2, 1962336, Note_off_c, 0, 78, 64
2, 1962456, Note_on_c, 0, 76, 107
2, 1962460, Note_off_c, 0, 75, 64
2, 1963540, Note_on_c, 0, 75, 99
2, 1963544, Note_off_c, 0, 76, 64
2, 1963660, Note_on_c, 0, 78, 106
2, 1963676, Note_off_c, 0, 75, 64
2, 1963780, Note_on_c, 0, 76, 101
2, 1963796, Note_off_c, 0, 78, 64
2, 1963892, Note_off_c, 0, 76, 64
2, 1963904, Note_on_c, 0, 79, 102
2, 1964020, Note_on_c, 0, 78, 96
2, 1964028, Note_off_c, 0, 79, 64
2, 1964148, Note_off_c, 0, 78, 64
2, 1964152, Note_on_c, 0, 81, 119
2, 1964368, Note_off_c, 0, 81, 64
2, 1964376, Note_on_c, 0, 74, 109
2, 1965132, Note_on_c, 0, 72, 115
2, 1965148, Note_off_c, 0, 74, 64
2, 1965244, Note_on_c, 0, 74, 102
2, 1965248, Note_off_c, 0, 72, 64
2, 1965368, Note_off_c, 0, 74, 64
2, 1965372, Note_on_c, 0, 76, 104
2, 1965608, Note_on_c, 0, 78, 108
2, 1965620, Note_off_c, 0, 76, 64
2, 1965712, Note_on_c, 0, 79, 102
2, 1965724, Note_off_c, 0, 78, 64
2, 1965828, Note_on_c, 0, 81, 109
2, 1965840, Note_off_c, 0, 79, 64
2, 1966088, Note_on_c, 0, 79, 104
2, 1966104, Note_off_c, 0, 81, 64
2, 1966308, Note_off_c, 0, 79, 64
2, 1966320, Note_on_c, 0, 79, 97
2, 1966380, Note_off_c, 0, 79, 64
2, 1966380, Note_on_c, 0, 78, 108
2, 1966420, Note_off_c, 0, 78, 64
2, 1966440, Note_on_c, 0, 76, 80
2, 1966500, Note_off_c, 0, 76, 64
2, 1966500, Note_on_c, 0, 78, 80
2, 1966560, Note_off_c, 0, 78, 64
2, 1966560, Note_on_c, 0, 74, 98
2, 1966800, Note_off_c, 0, 74, 64
2, 1967264, Note_on_c, 0, 83, 123
2, 1967512, Note_off_c, 0, 83, 64
2, 1967516, Note_on_c, 0, 84, 117
2, 1967764, Note_on_c, 0, 86, 98
2, 1967772, Note_off_c, 0, 84, 64
2, 1967996, Note_on_c, 0, 83, 113
2, 1968012, Note_off_c, 0, 86, 64
2, 1968228, Note_off_c, 0, 83, 64
2, 1968228, Note_on_c, 0, 84, 111
2, 1968460, Note_off_c, 0, 84, 64
2, 1968460, Note_on_c, 0, 83, 115
2, 1968696, Note_on_c, 0, 81, 113
2, 1968704, Note_off_c, 0, 83, 64
2, 1968936, Note_off_c, 0, 81, 64
2, 1968936, Note_on_c, 0, 79, 111
2, 1969184, Note_on_c, 0, 78, 123
2, 1969208, Note_off_c, 0, 79, 64
2, 1969424, Note_on_c, 0, 79, 113
2, 1969432, Note_off_c, 0, 78, 64
2, 1969664, Note_on_c, 0, 81, 107
2, 1969672, Note_off_c, 0, 79, 64
2, 1969900, Note_on_c, 0, 78, 115
2, 1969920, Note_off_c, 0, 81, 64
2, 1970152, Note_on_c, 0, 79, 115
2, 1970168, Note_off_c, 0, 78, 64
2, 1970624, Note_off_c, 0, 79, 64
2, 1970640, Note_on_c, 0, 79, 102
2, 1971600, Note_off_c, 0, 79, 64
2, 1973040, Note_on_c, 0, 79, 93
2, 1973516, Note_off_c, 0, 79, 64
2, 1973520, Note_on_c, 0, 79, 85
2, 1973996, Note_off_c, 0, 79, 64
2, 1974000, Note_on_c, 0, 81, 82
2, 1974056, Note_off_c, 0, 81, 64
2, 1974060, Note_on_c, 0, 79, 85
2, 1974116, Note_off_c, 0, 79, 64
2, 1974120, Note_on_c, 0, 81, 80
2, 1974356, Note_off_c, 0, 81, 64
2, 1974360, Note_on_c, 0, 83, 92
2, 1974476, Note_off_c, 0, 83, 64
2, 1974480, Note_on_c, 0, 81, 88
2, 1974716, Note_off_c, 0, 81, 64
2, 1974720, Note_on_c, 0, 79, 86
2, 1974836, Note_off_c, 0, 79, 64
2, 1974840, Note_on_c, 0, 78, 76
2, 1974956, Note_off_c, 0, 78, 64
2, 1974960, Note_on_c, 0, 76, 82
2, 1975196, Note_off_c, 0, 76, 64
2, 1975200, Note_on_c, 0, 74, 75
2, 1975920, Note_off_c, 0, 74, 64
2, 1975920, Note_on_c, 0, 67, 88
2, 1975980, Note_off_c, 0, 67, 64
2, 1975980, Note_on_c, 0, 66, 88
2, 1976040, Note_off_c, 0, 66, 64
2, 1976040, Note_on_c, 0, 67, 88
2, 1976400, Note_off_c, 0, 67, 64
2, 1976400, Note_on_c, 0, 69, 88
2, 1976460, Note_off_c, 0, 69, 64
2, 1976460, Note_on_c, 0, 67, 88
2, 1976520, Note_off_c, 0, 67, 64
2, 1976520, Note_on_c, 0, 66, 88
2, 1976580, Note_off_c, 0, 66, 64
2, 1976580, Note_on_c, 0, 67, 88
2, 1976640, Note_off_c, 0, 67, 64
2, 1976640, Note_on_c, 0, 69, 88
2, 1976700, Note_off_c, 0, 69, 64
2, 1976700, Note_on_c, 0, 67, 88
2, 1976760, Note_off_c, 0, 67, 64
2, 1976760, Note_on_c, 0, 69, 88
2, 1976820, Note_off_c, 0, 69, 64
2, 1976820, Note_on_c, 0, 67, 88
2, 1976880, Note_off_c, 0, 67, 64
2, 1976880, Note_on_c, 0, 69, 88
2, 1976940, Note_off_c, 0, 69, 64
2, 1976940, Note_on_c, 0, 67, 88
2, 1977000, Note_off_c, 0, 67, 64
2, 1977000, Note_on_c, 0, 69, 88
2, 1977060, Note_off_c, 0, 69, 64
2, 1977060, Note_on_c, 0, 67, 88
2, 1977120, Note_off_c, 0, 67, 64
2, 1977120, Note_on_c, 0, 66, 88
2, 1977240, Note_off_c, 0, 66, 64
2, 1977240, Note_on_c, 0, 67, 88
2, 1977360, Note_off_c, 0, 67, 64
2, 1977360, Note_on_c, 0, 69, 69
2, 1977416, Note_off_c, 0, 69, 64
2, 1977420, Note_on_c, 0, 67, 71
2, 1977476, Note_off_c, 0, 67, 64
2, 1977480, Note_on_c, 0, 66, 62
2, 1977596, Note_off_c, 0, 66, 64
2, 1977600, Note_on_c, 0, 67, 80
2, 1977656, Note_off_c, 0, 67, 64
2, 1977660, Note_on_c, 0, 66, 81
2, 1977720, Note_off_c, 0, 66, 64
2, 1977720, Note_on_c, 0, 64, 72
2, 1977840, Note_off_c, 0, 64, 64
2, 1977840, Note_on_c, 0, 64, 84
2, 1978076, Note_off_c, 0, 64, 64
2, 1978080, Note_on_c, 0, 62, 75
2, 1978796, Note_off_c, 0, 62, 64
2, 1978800, Note_on_c, 0, 74, 92
2, 1979276, Note_off_c, 0, 74, 64
2, 1979280, Note_on_c, 0, 74, 88
2, 1979756, Note_off_c, 0, 74, 64
2, 1979760, Note_on_c, 0, 76, 83
2, 1979816, Note_off_c, 0, 76, 64
2, 1979820, Note_on_c, 0, 74, 73
2, 1979876, Note_off_c, 0, 74, 64
2, 1979880, Note_on_c, 0, 76, 74
2, 1980116, Note_off_c, 0, 76, 64
2, 1980120, Note_on_c, 0, 77, 85
2, 1980236, Note_off_c, 0, 77, 64
2, 1980240, Note_on_c, 0, 76, 69
2, 1980476, Note_off_c, 0, 76, 64
2, 1980480, Note_on_c, 0, 74, 74
2, 1980596, Note_off_c, 0, 74, 64
2, 1980600, Note_on_c, 0, 72, 81
2, 1980716, Note_off_c, 0, 72, 64
2, 1980720, Note_on_c, 0, 71, 73
2, 1980956, Note_off_c, 0, 71, 64
2, 1980960, Note_on_c, 0, 69, 64
2, 1981440, Note_off_c, 0, 69, 64
2, 1981440, Note_on_c, 0, 79, 98
2, 1981496, Note_off_c, 0, 79, 64
2, 1981500, Note_on_c, 0, 78, 90
2, 1981556, Note_off_c, 0, 78, 64
2, 1981560, Note_on_c, 0, 76, 85
2, 1981616, Note_off_c, 0, 76, 64
2, 1981620, Note_on_c, 0, 78, 81
2, 1981676, Note_off_c, 0, 78, 64
2, 1981680, Note_on_c, 0, 79, 97
2, 1981736, Note_off_c, 0, 79, 64
2, 1981740, Note_on_c, 0, 78, 102
2, 1981916, Note_off_c, 0, 78, 64
2, 1981920, Note_on_c, 0, 81, 96
2, 1981976, Note_off_c, 0, 81, 64
2, 1981980, Note_on_c, 0, 79, 96
2, 1982156, Note_off_c, 0, 79, 64
2, 1982160, Note_on_c, 0, 78, 101
2, 1982216, Note_off_c, 0, 78, 64
2, 1982220, Note_on_c, 0, 76, 82
2, 1982400, Note_off_c, 0, 76, 64
2, 1982400, Note_on_c, 0, 74, 72
2, 1982456, Note_off_c, 0, 74, 64
2, 1982460, Note_on_c, 0, 72, 92
2, 1982640, Note_off_c, 0, 72, 64
2, 1982640, Note_on_c, 0, 72, 86
2, 1982760, Note_off_c, 0, 72, 64
2, 1982760, Note_on_c, 0, 81, 90
2, 1982996, Note_off_c, 0, 81, 64
2, 1983000, Note_on_c, 0, 72, 83
2, 1983116, Note_off_c, 0, 72, 64
2, 1983120, Note_on_c, 0, 71, 68
2, 1983176, Note_off_c, 0, 71, 64
2, 1983180, Note_on_c, 0, 67, 71
2, 1983360, Note_off_c, 0, 67, 64
2, 1983360, Note_on_c, 0, 66, 84
2, 1983600, Note_off_c, 0, 66, 64
2, 1983600, Note_on_c, 0, 66, 90
2, 1983840, Note_off_c, 0, 66, 64
2, 1983840, Note_on_c, 0, 67, 73
2, 1984556, Note_off_c, 0, 67, 64
2, 1984560, Note_on_c, 0, 71, 82
2, 1985036, Note_off_c, 0, 71, 64
2, 1985040, Note_on_c, 0, 71, 88
2, 1985516, Note_off_c, 0, 71, 64
2, 1985520, Note_on_c, 0, 73, 77
2, 1985576, Note_off_c, 0, 73, 64
2, 1985580, Note_on_c, 0, 71, 74
2, 1985636, Note_off_c, 0, 71, 64
2, 1985640, Note_on_c, 0, 73, 82
2, 1985876, Note_off_c, 0, 73, 64
2, 1985880, Note_on_c, 0, 74, 89
2, 1985996, Note_off_c, 0, 74, 64
2, 1986000, Note_on_c, 0, 74, 95
2, 1986116, Note_off_c, 0, 74, 64
2, 1986120, Note_on_c, 0, 73, 92
2, 1986236, Note_off_c, 0, 73, 64
2, 1986240, Note_on_c, 0, 71, 91
2, 1986356, Note_off_c, 0, 71, 64
2, 1986360, Note_on_c, 0, 69, 75
2, 1987320, Note_off_c, 0, 69, 64
2, 1987440, Note_on_c, 0, 67, 93
2, 1987500, Note_on_c, 0, 71, 93
2, 1987560, Note_on_c, 0, 76, 93
2, 1987620, Note_on_c, 0, 79, 93
2, 1987740, Note_off_c, 0, 71, 64
2, 1987800, Note_off_c, 0, 76, 64
2, 1987860, Note_off_c, 0, 79, 64
2, 1987920, Note_off_c, 0, 67, 64
2, 1987920, Note_on_c, 0, 81, 117
2, 1987980, Note_off_c, 0, 81, 64
2, 1987980, Note_on_c, 0, 79, 90
2, 1988036, Note_off_c, 0, 79, 64
2, 1988040, Note_on_c, 0, 78, 70
2, 1988100, Note_off_c, 0, 78, 64
2, 1988100, Note_on_c, 0, 79, 86
2, 1988156, Note_off_c, 0, 79, 64
2, 1988160, Note_on_c, 0, 81, 83
2, 1988216, Note_off_c, 0, 81, 64
2, 1988220, Note_on_c, 0, 79, 81
2, 1988276, Note_off_c, 0, 79, 64
2, 1988280, Note_on_c, 0, 81, 77
2, 1988336, Note_off_c, 0, 81, 64
2, 1988340, Note_on_c, 0, 79, 85
2, 1988396, Note_off_c, 0, 79, 64
2, 1988400, Note_on_c, 0, 81, 81
2, 1988456, Note_off_c, 0, 81, 64
2, 1988460, Note_on_c, 0, 79, 90
2, 1988516, Note_off_c, 0, 79, 64
2, 1988520, Note_on_c, 0, 81, 80
2, 1988576, Note_off_c, 0, 81, 64
2, 1988580, Note_on_c, 0, 79, 79
2, 1988640, Note_off_c, 0, 79, 64
2, 1988640, Note_on_c, 0, 78, 85
2, 1988760, Note_off_c, 0, 78, 64
2, 1988760, Note_on_c, 0, 79, 85
2, 1988880, Note_off_c, 0, 79, 64
2, 1988880, Note_on_c, 0, 79, 93
2, 1989116, Note_off_c, 0, 79, 64
2, 1989120, Note_on_c, 0, 78, 80
2, 1989236, Note_off_c, 0, 78, 64
2, 1989240, Note_on_c, 0, 76, 73
2, 1989360, Note_off_c, 0, 76, 64
2, 1989360, Note_on_c, 0, 74, 80
2, 1989596, Note_off_c, 0, 74, 64
2, 1989600, Note_on_c, 0, 73, 85
2, 1990076, Note_off_c, 0, 73, 64
2, 1990080, Note_on_c, 0, 76, 90
2, 1990320, Note_off_c, 0, 76, 64
2, 1990320, Note_on_c, 0, 81, 93
2, 1990436, Note_off_c, 0, 81, 64
2, 1990440, Note_on_c, 0, 79, 88
2, 1990560, Note_off_c, 0, 79, 64
2, 1990560, Note_on_c, 0, 78, 88
2, 1990676, Note_off_c, 0, 78, 64
2, 1990680, Note_on_c, 0, 76, 86
2, 1990796, Note_off_c, 0, 76, 64
2, 1990800, Note_on_c, 0, 74, 80
2, 1991036, Note_off_c, 0, 74, 64
2, 1991040, Note_on_c, 0, 69, 81
2, 1991576, Note_off_c, 0, 69, 64
2, 1991580, Note_on_c, 0, 71, 78
2, 1991636, Note_off_c, 0, 71, 64
2, 1991640, Note_on_c, 0, 72, 90
2, 1991760, Note_off_c, 0, 72, 64
2, 1991760, Note_on_c, 0, 71, 86
2, 1991876, Note_off_c, 0, 71, 64
2, 1991880, Note_on_c, 0, 69, 65
2, 1991996, Note_off_c, 0, 69, 64
2, 1992000, Note_on_c, 0, 67, 70
2, 1992116, Note_off_c, 0, 67, 64
2, 1992120, Note_on_c, 0, 66, 80
2, 1992236, Note_off_c, 0, 66, 64
2, 1992240, Note_on_c, 0, 64, 89
2, 1992480, Note_off_c, 0, 64, 64
2, 1992480, Note_on_c, 0, 74, 85
2, 1992596, Note_off_c, 0, 74, 64
2, 1992600, Note_on_c, 0, 73, 80
2, 1993016, Note_off_c, 0, 73, 64
2, 1993020, Note_on_c, 0, 74, 78
2, 1993076, Note_off_c, 0, 74, 64
2, 1993080, Note_on_c, 0, 76, 77
2, 1993196, Note_off_c, 0, 76, 64
2, 1993200, Note_on_c, 0, 74, 83
2, 1993316, Note_off_c, 0, 74, 64
2, 1993320, Note_on_c, 0, 73, 89
2, 1993436, Note_off_c, 0, 73, 64
2, 1993440, Note_on_c, 0, 71, 84
2, 1993556, Note_off_c, 0, 71, 64
2, 1993560, Note_on_c, 0, 69, 80
2, 1993676, Note_off_c, 0, 69, 64
2, 1993680, Note_on_c, 0, 79, 97
2, 1993916, Note_off_c, 0, 79, 64
2, 1993920, Note_on_c, 0, 71, 86
2, 1994400, Note_off_c, 0, 71, 64
2, 1994400, Note_on_c, 0, 73, 85
2, 1994636, Note_off_c, 0, 73, 64
2, 1994640, Note_on_c, 0, 73, 88
2, 1994760, Note_off_c, 0, 73, 64
2, 1994760, Note_on_c, 0, 74, 85
2, 1994940, Note_off_c, 0, 74, 64
2, 1994940, Note_on_c, 0, 76, 78
2, 1994996, Note_off_c, 0, 76, 64
2, 1995000, Note_on_c, 0, 74, 83
2, 1995056, Note_off_c, 0, 74, 64
2, 1995060, Note_on_c, 0, 73, 80
2, 1995120, Note_off_c, 0, 73, 64
2, 1995120, Note_on_c, 0, 73, 84
2, 1995356, Note_off_c, 0, 73, 64
2, 1995360, Note_on_c, 0, 74, 75
2, 1996080, Note_off_c, 0, 74, 64
2, 1996080, Note_on_c, 0, 69, 113
2, 1996140, Note_off_c, 0, 69, 64
2, 1996140, Note_on_c, 0, 67, 113
2, 1996200, Note_off_c, 0, 67, 64
2, 1996200, Note_on_c, 0, 69, 113
2, 1996560, Note_off_c, 0, 69, 64
2, 1996560, Note_on_c, 0, 71, 75
2, 1996620, Note_off_c, 0, 71, 64
2, 1996620, Note_on_c, 0, 69, 75
2, 1996680, Note_off_c, 0, 69, 64
2, 1996680, Note_on_c, 0, 67, 75
2, 1996740, Note_off_c, 0, 67, 64
2, 1996740, Note_on_c, 0, 69, 75
2, 1996800, Note_off_c, 0, 69, 64
2, 1996800, Note_on_c, 0, 71, 75
2, 1996860, Note_off_c, 0, 71, 64
2, 1996860, Note_on_c, 0, 69, 75
2, 1996920, Note_off_c, 0, 69, 64
2, 1996920, Note_on_c, 0, 71, 75
2, 1996980, Note_off_c, 0, 71, 64
2, 1996980, Note_on_c, 0, 69, 75
2, 1997040, Note_off_c, 0, 69, 64
2, 1997040, Note_on_c, 0, 71, 75
2, 1997100, Note_off_c, 0, 71, 64
2, 1997100, Note_on_c, 0, 69, 75
2, 1997220, Note_off_c, 0, 69, 64
2, 1997220, Note_on_c, 0, 71, 75
2, 1997280, Note_off_c, 0, 71, 64
2, 1997280, Note_on_c, 0, 72, 75
2, 1997340, Note_off_c, 0, 72, 64
2, 1997340, Note_on_c, 0, 74, 75
2, 1997400, Note_off_c, 0, 74, 64
2, 1997400, Note_on_c, 0, 76, 75
2, 1997520, Note_off_c, 0, 76, 64
2, 1997520, Note_on_c, 0, 76, 113
2, 1997636, Note_off_c, 0, 76, 64
2, 1997640, Note_on_c, 0, 74, 85
2, 1997756, Note_off_c, 0, 74, 64
2, 1997760, Note_on_c, 0, 72, 96
2, 1997876, Note_off_c, 0, 72, 64
2, 1997880, Note_on_c, 0, 71, 75
2, 1997996, Note_off_c, 0, 71, 64
2, 1998000, Note_on_c, 0, 69, 73
2, 1998236, Note_off_c, 0, 69, 64
2, 1998240, Note_on_c, 0, 67, 85
2, 1998720, Note_off_c, 0, 67, 64
2, 1998720, Note_on_c, 0, 79, 102
2, 1998956, Note_off_c, 0, 79, 64
2, 1998960, Note_on_c, 0, 78, 101
2, 1999076, Note_off_c, 0, 78, 64
2, 1999080, Note_on_c, 0, 76, 102
2, 1999320, Note_off_c, 0, 76, 64
2, 1999320, Note_on_c, 0, 78, 86
2, 1999380, Note_off_c, 0, 78, 64
2, 1999380, Note_on_c, 0, 75, 92
2, 1999440, Note_off_c, 0, 75, 64
2, 1999440, Note_on_c, 0, 75, 93
2, 1999676, Note_off_c, 0, 75, 64
2, 1999680, Note_on_c, 0, 76, 92
2, 2000156, Note_off_c, 0, 76, 64
2, 2000160, Note_on_c, 0, 81, 101
2, 2000216, Note_off_c, 0, 81, 64
2, 2000220, Note_on_c, 0, 83, 109
2, 2000276, Note_off_c, 0, 83, 64
2, 2000280, Note_on_c, 0, 81, 97
2, 2000336, Note_off_c, 0, 81, 64
2, 2000340, Note_on_c, 0, 79, 92
2, 2000396, Note_off_c, 0, 79, 64
2, 2000400, Note_on_c, 0, 81, 111
2, 2000756, Note_off_c, 0, 81, 64
2, 2000760, Note_on_c, 0, 78, 96
2, 2000876, Note_off_c, 0, 78, 64
2, 2000880, Note_on_c, 0, 76, 93
2, 2001116, Note_off_c, 0, 76, 64
2, 2001120, Note_on_c, 0, 75, 101
2, 2001596, Note_off_c, 0, 75, 64
2, 2001600, Note_on_c, 0, 71, 101
2, 2001840, Note_off_c, 0, 71, 64
2, 2001840, Note_on_c, 0, 76, 90
2, 2001900, Note_off_c, 0, 76, 64
2, 2001900, Note_on_c, 0, 78, 90
2, 2001960, Note_off_c, 0, 78, 64
2, 2001960, Note_on_c, 0, 79, 101
2, 2002200, Note_off_c, 0, 79, 64
2, 2002200, Note_on_c, 0, 78, 102
2, 2002316, Note_off_c, 0, 78, 64
2, 2002320, Note_on_c, 0, 78, 106
2, 2002556, Note_off_c, 0, 78, 64
2, 2002560, Note_on_c, 0, 76, 97
2, 2002916, Note_off_c, 0, 76, 64
2, 2002920, Note_on_c, 0, 71, 85
2, 2003036, Note_off_c, 0, 71, 64
2, 2003040, Note_on_c, 0, 72, 95
2, 2003096, Note_off_c, 0, 72, 64
2, 2003100, Note_on_c, 0, 71, 88
2, 2003156, Note_off_c, 0, 71, 64
2, 2003160, Note_on_c, 0, 69, 84
2, 2003216, Note_off_c, 0, 69, 64
2, 2003220, Note_on_c, 0, 71, 80
2, 2003276, Note_off_c, 0, 71, 64
2, 2003280, Note_on_c, 0, 79, 109
2, 2003336, Note_off_c, 0, 79, 64
2, 2003340, Note_on_c, 0, 76, 90
2, 2003516, Note_off_c, 0, 76, 64
2, 2003520, Note_on_c, 0, 78, 99
2, 2003576, Note_off_c, 0, 78, 64
2, 2003580, Note_on_c, 0, 75, 101
2, 2003696, Note_off_c, 0, 75, 64
2, 2003760, Note_on_c, 0, 75, 117
2, 2003996, Note_off_c, 0, 75, 64
2, 2004000, Note_on_c, 0, 76, 102
2, 2004356, Note_off_c, 0, 76, 64
2, 2004360, Note_on_c, 0, 67, 92
2, 2004476, Note_off_c, 0, 67, 64
2, 2004480, Note_on_c, 0, 66, 86
2, 2004596, Note_off_c, 0, 66, 64
2, 2004600, Note_on_c, 0, 64, 80
2, 2004716, Note_off_c, 0, 64, 64
2, 2004720, Note_on_c, 0, 66, 97
2, 2005080, Note_off_c, 0, 66, 64
2, 2005080, Note_on_c, 0, 76, 121
2, 2005200, Note_off_c, 0, 76, 64
2, 2005200, Note_on_c, 0, 75, 117
2, 2005260, Note_off_c, 0, 75, 64
2, 2005260, Note_on_c, 0, 76, 75
2, 2005320, Note_off_c, 0, 76, 64
2, 2005320, Note_on_c, 0, 78, 75
2, 2005380, Note_off_c, 0, 78, 64
2, 2005380, Note_on_c, 0, 79, 85
2, 2005436, Note_off_c, 0, 79, 64
2, 2005440, Note_on_c, 0, 81, 117
2, 2005676, Note_off_c, 0, 81, 64
2, 2005680, Note_on_c, 0, 79, 109
2, 2005916, Note_off_c, 0, 79, 64
2, 2005920, Note_on_c, 0, 78, 117
2, 2006156, Note_off_c, 0, 78, 64
2, 2006160, Note_on_c, 0, 78, 102
2, 2006276, Note_off_c, 0, 78, 64
2, 2006280, Note_on_c, 0, 76, 117
2, 2006520, Note_off_c, 0, 76, 64
2, 2006520, Note_on_c, 0, 78, 89
2, 2006576, Note_off_c, 0, 78, 64
2, 2006580, Note_on_c, 0, 75, 99
2, 2006636, Note_off_c, 0, 75, 64
2, 2006640, Note_on_c, 0, 75, 88
2, 2006876, Note_off_c, 0, 75, 64
2, 2006880, Note_on_c, 0, 76, 91
2, 2007596, Note_off_c, 0, 76, 64
2, 2007600, Note_on_c, 0, 76, 91
2, 2007836, Note_off_c, 0, 76, 64
2, 2007840, Note_on_c, 0, 74, 78
2, 2007956, Note_off_c, 0, 74, 64
2, 2007960, Note_on_c, 0, 72, 72
2, 2008076, Note_off_c, 0, 72, 64
2, 2008080, Note_on_c, 0, 71, 72
2, 2008316, Note_off_c, 0, 71, 64
2, 2008320, Note_on_c, 0, 69, 59
2, 2008796, Note_off_c, 0, 69, 64
2, 2008800, Note_on_c, 0, 71, 69
2, 2008916, Note_off_c, 0, 71, 64
2, 2008920, Note_on_c, 0, 72, 75
2, 2009036, Note_off_c, 0, 72, 64
2, 2009040, Note_on_c, 0, 74, 74
2, 2009096, Note_off_c, 0, 74, 64
2, 2009100, Note_on_c, 0, 72, 74
2, 2009156, Note_off_c, 0, 72, 64
2, 2009160, Note_on_c, 0, 71, 65
2, 2009276, Note_off_c, 0, 71, 64
2, 2009280, Note_on_c, 0, 72, 71
2, 2009336, Note_off_c, 0, 72, 64
2, 2009340, Note_on_c, 0, 71, 78
2, 2009396, Note_off_c, 0, 71, 64
2, 2009400, Note_on_c, 0, 69, 67
2, 2009456, Note_off_c, 0, 69, 64
2, 2009520, Note_on_c, 0, 69, 68
2, 2009756, Note_off_c, 0, 69, 64
2, 2009760, Note_on_c, 0, 67, 72
2, 2010236, Note_off_c, 0, 67, 64
2, 2010240, Note_on_c, 0, 69, 68
2, 2010356, Note_off_c, 0, 69, 64
2, 2010360, Note_on_c, 0, 71, 62
2, 2010476, Note_off_c, 0, 71, 64
2, 2010480, Note_on_c, 0, 72, 73
2, 2010596, Note_off_c, 0, 72, 64
2, 2010600, Note_on_c, 0, 74, 73
2, 2010716, Note_off_c, 0, 74, 64
2, 2010720, Note_on_c, 0, 72, 82
2, 2010836, Note_off_c, 0, 72, 64
2, 2010840, Note_on_c, 0, 71, 82
2, 2010956, Note_off_c, 0, 71, 64
2, 2010960, Note_on_c, 0, 72, 74
2, 2011076, Note_off_c, 0, 72, 64
2, 2011080, Note_on_c, 0, 69, 76
2, 2011196, Note_off_c, 0, 69, 64
2, 2011200, Note_on_c, 0, 64, 76
2, 2011316, Note_off_c, 0, 64, 64
2, 2011320, Note_on_c, 0, 69, 69
2, 2011436, Note_off_c, 0, 69, 64
2, 2011440, Note_on_c, 0, 72, 83
2, 2011916, Note_off_c, 0, 72, 64
2, 2012040, Note_on_c, 0, 74, 81
2, 2012156, Note_off_c, 0, 74, 64
2, 2012160, Note_on_c, 0, 72, 83
2, 2012276, Note_off_c, 0, 72, 64
2, 2012280, Note_on_c, 0, 71, 71
2, 2012396, Note_off_c, 0, 71, 64
2, 2012400, Note_on_c, 0, 72, 72
2, 2012516, Note_off_c, 0, 72, 64
2, 2012520, Note_on_c, 0, 69, 68
2, 2012636, Note_off_c, 0, 69, 64
2, 2012640, Note_on_c, 0, 66, 72
2, 2012756, Note_off_c, 0, 66, 64
2, 2012760, Note_on_c, 0, 69, 88
2, 2012876, Note_off_c, 0, 69, 64
2, 2012880, Note_on_c, 0, 72, 90
2, 2012996, Note_off_c, 0, 72, 64
2, 2013000, Note_on_c, 0, 76, 86
2, 2013116, Note_off_c, 0, 76, 64
2, 2013120, Note_on_c, 0, 74, 84
2, 2013236, Note_off_c, 0, 74, 64
2, 2013240, Note_on_c, 0, 72, 83
2, 2013356, Note_off_c, 0, 72, 64
2, 2013360, Note_on_c, 0, 71, 78
2, 2013476, Note_off_c, 0, 71, 64
2, 2013480, Note_on_c, 0, 72, 77
2, 2013596, Note_off_c, 0, 72, 64
2, 2013600, Note_on_c, 0, 71, 72
2, 2013716, Note_off_c, 0, 71, 64
2, 2013720, Note_on_c, 0, 69, 71
2, 2013836, Note_off_c, 0, 69, 64
2, 2013840, Note_on_c, 0, 71, 77
2, 2013956, Note_off_c, 0, 71, 64
2, 2013960, Note_on_c, 0, 67, 81
2, 2014076, Note_off_c, 0, 67, 64
2, 2014080, Note_on_c, 0, 62, 72
2, 2014196, Note_off_c, 0, 62, 64
2, 2014200, Note_on_c, 0, 67, 80
2, 2014316, Note_off_c, 0, 67, 64
2, 2014320, Note_on_c, 0, 71, 81
2, 2014436, Note_off_c, 0, 71, 64
2, 2014440, Note_on_c, 0, 67, 72
2, 2014556, Note_off_c, 0, 67, 64
2, 2014560, Note_on_c, 0, 72, 88
2, 2014676, Note_off_c, 0, 72, 64
2, 2014680, Note_on_c, 0, 74, 88
2, 2014796, Note_off_c, 0, 74, 64
2, 2014800, Note_on_c, 0, 76, 88
2, 2014916, Note_off_c, 0, 76, 64
2, 2014920, Note_on_c, 0, 77, 84
2, 2015036, Note_off_c, 0, 77, 64
2, 2015040, Note_on_c, 0, 76, 86
2, 2015156, Note_off_c, 0, 76, 64
2, 2015160, Note_on_c, 0, 74, 78
2, 2015276, Note_off_c, 0, 74, 64
2, 2015280, Note_on_c, 0, 76, 85
2, 2015396, Note_off_c, 0, 76, 64
2, 2015400, Note_on_c, 0, 72, 75
2, 2015516, Note_off_c, 0, 72, 64
2, 2015520, Note_on_c, 0, 67, 73
2, 2015640, Note_off_c, 0, 67, 64
2, 2015640, Note_on_c, 0, 72, 88
2, 2015756, Note_off_c, 0, 72, 64
2, 2015760, Note_on_c, 0, 76, 93
2, 2015876, Note_off_c, 0, 76, 64
2, 2015880, Note_on_c, 0, 72, 77
2, 2015996, Note_off_c, 0, 72, 64
2, 2016000, Note_on_c, 0, 78, 76
2, 2016116, Note_off_c, 0, 78, 64
2, 2016120, Note_on_c, 0, 79, 91
2, 2016236, Note_off_c, 0, 79, 64
2, 2016240, Note_on_c, 0, 81, 98
2, 2016356, Note_off_c, 0, 81, 64
2, 2016360, Note_on_c, 0, 72, 81
2, 2016476, Note_off_c, 0, 72, 64
2, 2016480, Note_on_c, 0, 71, 80
2, 2016596, Note_off_c, 0, 71, 64
2, 2016600, Note_on_c, 0, 69, 71
2, 2016716, Note_off_c, 0, 69, 64
2, 2016720, Note_on_c, 0, 71, 76
2, 2016836, Note_off_c, 0, 71, 64
2, 2016840, Note_on_c, 0, 72, 80
2, 2016956, Note_off_c, 0, 72, 64
2, 2016960, Note_on_c, 0, 74, 84
2, 2017076, Note_off_c, 0, 74, 64
2, 2017080, Note_on_c, 0, 67, 76
2, 2017196, Note_off_c, 0, 67, 64
2, 2017200, Note_on_c, 0, 71, 88
2, 2017316, Note_off_c, 0, 71, 64
2, 2017320, Note_on_c, 0, 69, 75
2, 2017436, Note_off_c, 0, 69, 64
2, 2017440, Note_on_c, 0, 67, 82
2, 2017556, Note_off_c, 0, 67, 64
2, 2017560, Note_on_c, 0, 66, 86
2, 2017676, Note_off_c, 0, 66, 64
2, 2017680, Note_on_c, 0, 67, 90
2, 2018276, Note_off_c, 0, 67, 64
2, 2018280, Note_on_c, 0, 62, 76
2, 2018400, Note_off_c, 0, 62, 64
2, 2018400, Note_on_c, 0, 67, 97
2, 2018516, Note_off_c, 0, 67, 64
2, 2018520, Note_on_c, 0, 66, 94
2, 2018636, Note_off_c, 0, 66, 64
2, 2018640, Note_on_c, 0, 66, 92
2, 2018760, Note_off_c, 0, 66, 64
2, 2018760, Note_on_c, 0, 67, 92
2, 2018880, Note_off_c, 0, 67, 64
2, 2018880, End_track
3, 0, Start_track
3, 0, Title_t, "goldberg.mid"
3, 0, Program_c, 1, 0
3, 960, Note_on_c, 1, 62, 106
3, 1436, Note_off_c, 1, 62, 64
3, 2400, Note_on_c, 1, 62, 97
3, 2876, Note_off_c, 1, 62, 64
3, 3840, Note_on_c, 1, 61, 92
3, 4316, Note_off_c, 1, 61, 64
3, 5280, Note_on_c, 1, 57, 97
3, 5756, Note_off_c, 1, 57, 64
3, 6720, Note_on_c, 1, 55, 98
3, 7196, Note_off_c, 1, 55, 64
3, 8160, Note_on_c, 1, 57, 102
3, 8636, Note_off_c, 1, 57, 64
3, 12480, Note_on_c, 1, 64, 101
3, 12956, Note_off_c, 1, 64, 64
3, 13440, Note_on_c, 1, 74, 101
3, 14400, Note_off_c, 1, 74, 64
3, 18240, Note_on_c, 1, 62, 98
3, 18716, Note_off_c, 1, 62, 64
3, 19680, Note_on_c, 1, 64, 101
3, 20156, Note_off_c, 1, 64, 64
3, 20160, Note_on_c, 1, 66, 104
3, 20636, Note_off_c, 1, 66, 64
3, 20640, Note_on_c, 1, 64, 107
3, 21000, Note_off_c, 1, 64, 64
3, 21000, Note_on_c, 1, 66, 104
3, 21120, Note_off_c, 1, 66, 64
3, 21120, Note_on_c, 1, 67, 104
3, 22076, Note_off_c, 1, 67, 64
3, 22080, Note_on_c, 1, 66, 94
3, 23036, Note_off_c, 1, 66, 64
3, 31680, Note_on_c, 1, 66, 83
3, 32160, Note_off_c, 1, 66, 64
3, 32400, Note_on_c, 1, 72, 83
3, 32640, Note_off_c, 1, 72, 64
3, 32640, Note_on_c, 1, 71, 83
3, 32880, Note_off_c, 1, 71, 64
3, 32880, Note_on_c, 1, 69, 83
3, 33600, Note_off_c, 1, 69, 64
3, 33600, Note_on_c, 1, 67, 83
3, 34560, Note_off_c, 1, 67, 64
3, 35520, Note_on_c, 1, 57, 83
3, 36240, Note_off_c, 1, 57, 64
3, 38160, Note_on_c, 1, 64, 83
3, 38520, Note_off_c, 1, 64, 64
3, 38520, Note_on_c, 1, 71, 83
3, 38640, Note_off_c, 1, 71, 64
3, 38640, Note_on_c, 1, 69, 83
3, 38760, Note_off_c, 1, 69, 64
3, 38760, Note_on_c, 1, 67, 83
3, 38880, Note_off_c, 1, 67, 64
3, 38880, Note_on_c, 1, 66, 83
3, 39360, Note_off_c, 1, 66, 64
3, 39600, Note_on_c, 1, 66, 83
3, 40320, Note_off_c, 1, 66, 64
3, 40320, Note_on_c, 1, 67, 83
3, 40560, Note_off_c, 1, 67, 64
3, 41040, Note_on_c, 1, 62, 83
3, 41400, Note_off_c, 1, 62, 64
3, 41400, Note_on_c, 1, 67, 83
3, 42360, Note_off_c, 1, 67, 64
3, 42480, Note_on_c, 1, 67, 83
3, 42840, Note_off_c, 1, 67, 64
3, 42840, Note_on_c, 1, 72, 83
3, 43200, Note_off_c, 1, 72, 64
3, 92160, Note_on_c, 1, 71, 124
3, 92640, Note_off_c, 1, 71, 64
3, 92640, Note_on_c, 1, 76, 124
3, 92676, Note_on_c, 1, 74, 107
3, 92692, Note_off_c, 1, 76, 64
3, 92736, Note_on_c, 1, 76, 101
3, 92748, Note_off_c, 1, 74, 64
3, 93364, Note_off_c, 1, 76, 64
3, 93364, Note_on_c, 1, 74, 92
3, 93472, Note_on_c, 1, 72, 101
3, 93496, Note_off_c, 1, 74, 64
3, 93588, Note_on_c, 1, 74, 97
3, 93608, Note_off_c, 1, 72, 64
3, 93700, Note_on_c, 1, 72, 102
3, 93724, Note_off_c, 1, 74, 64
3, 93824, Note_on_c, 1, 71, 96
3, 93828, Note_off_c, 1, 72, 64
3, 93940, Note_on_c, 1, 69, 88
3, 93948, Note_off_c, 1, 71, 64
3, 94068, Note_off_c, 1, 69, 64
3, 94080, Note_on_c, 1, 67, 91
3, 94560, Note_off_c, 1, 67, 64
3, 94800, Note_on_c, 1, 81, 75
3, 95032, Note_off_c, 1, 81, 64
3, 95048, Note_on_c, 1, 78, 75
3, 95280, Note_off_c, 1, 78, 64
3, 95280, Note_on_c, 1, 74, 106
3, 95520, Note_off_c, 1, 74, 64
3, 96128, Note_on_c, 1, 74, 101
3, 96232, Note_on_c, 1, 72, 93
3, 96252, Note_off_c, 1, 74, 64
3, 96352, Note_on_c, 1, 76, 109
3, 96360, Note_off_c, 1, 72, 64
3, 96472, Note_on_c, 1, 74, 109
3, 96488, Note_off_c, 1, 76, 64
3, 96708, Note_off_c, 1, 74, 64
3, 96720, Note_on_c, 1, 71, 119
3, 97080, Note_off_c, 1, 71, 64
3, 97080, Note_on_c, 1, 69, 96
3, 97192, Note_on_c, 1, 67, 98
3, 97212, Note_off_c, 1, 69, 64
3, 97308, Note_on_c, 1, 71, 104
3, 97320, Note_off_c, 1, 67, 64
3, 97428, Note_on_c, 1, 69, 107
3, 97444, Note_off_c, 1, 71, 64
3, 97664, Note_off_c, 1, 69, 64
3, 97664, Note_on_c, 1, 67, 115
3, 98032, Note_on_c, 1, 66, 106
3, 98064, Note_off_c, 1, 67, 64
3, 98148, Note_on_c, 1, 64, 92
3, 98168, Note_off_c, 1, 66, 64
3, 98268, Note_off_c, 1, 64, 64
3, 98268, Note_on_c, 1, 67, 106
3, 98388, Note_off_c, 1, 67, 64
3, 98392, Note_on_c, 1, 66, 119
3, 98880, Note_off_c, 1, 66, 64
3, 98880, Note_on_c, 1, 67, 96
3, 99120, Note_off_c, 1, 67, 64
3, 99832, Note_on_c, 1, 67, 107
3, 99948, Note_on_c, 1, 69, 100
3, 99964, Note_off_c, 1, 67, 64
3, 100068, Note_on_c, 1, 71, 95
3, 100080, Note_off_c, 1, 69, 64
3, 100180, Note_on_c, 1, 74, 82
3, 100188, Note_off_c, 1, 71, 64
3, 100300, Note_off_c, 1, 74, 64
3, 100312, Note_on_c, 1, 76, 117
3, 100912, Note_off_c, 1, 76, 64
3, 100924, Note_on_c, 1, 74, 95
3, 101044, Note_off_c, 1, 74, 64
3, 101044, Note_on_c, 1, 73, 90
3, 101152, Note_off_c, 1, 73, 64
3, 101160, Note_on_c, 1, 76, 104
3, 101280, Note_on_c, 1, 74, 93
3, 101296, Note_off_c, 1, 76, 64
3, 101400, Note_on_c, 1, 73, 104
3, 101416, Note_off_c, 1, 74, 64
3, 101512, Note_on_c, 1, 71, 92
3, 101532, Note_off_c, 1, 73, 64
3, 101632, Note_off_c, 1, 71, 64
3, 101632, Note_on_c, 1, 69, 91
3, 101752, Note_on_c, 1, 67, 98
3, 101764, Note_off_c, 1, 69, 64
3, 102472, Note_off_c, 1, 67, 64
3, 102484, Note_on_c, 1, 79, 117
3, 102720, Note_off_c, 1, 79, 64
3, 102728, Note_on_c, 1, 76, 119
3, 102952, Note_off_c, 1, 76, 64
3, 102960, Note_on_c, 1, 73, 110
3, 103200, Note_off_c, 1, 73, 64
3, 103792, Note_on_c, 1, 69, 97
3, 103908, Note_on_c, 1, 67, 98
3, 103928, Note_off_c, 1, 69, 64
3, 104020, Note_on_c, 1, 71, 95
3, 104024, Note_off_c, 1, 67, 64
3, 104140, Note_off_c, 1, 71, 64
3, 104144, Note_on_c, 1, 69, 101
3, 104392, Note_on_c, 1, 66, 99
3, 104408, Note_off_c, 1, 69, 64
3, 104764, Note_on_c, 1, 64, 91
3, 104772, Note_off_c, 1, 66, 64
3, 104872, Note_off_c, 1, 64, 64
3, 104880, Note_on_c, 1, 62, 91
3, 104992, Note_off_c, 1, 62, 64
3, 104992, Note_on_c, 1, 66, 81
3, 105112, Note_on_c, 1, 64, 93
3, 105120, Note_off_c, 1, 66, 64
3, 105364, Note_on_c, 1, 62, 91
3, 105372, Note_off_c, 1, 64, 64
3, 105720, Note_on_c, 1, 61, 99
3, 105736, Note_off_c, 1, 62, 64
3, 105840, Note_on_c, 1, 59, 72
3, 105856, Note_off_c, 1, 61, 64
3, 105948, Note_off_c, 1, 59, 64
3, 105948, Note_on_c, 1, 62, 84
3, 106068, Note_on_c, 1, 61, 86
3, 106080, Note_off_c, 1, 62, 64
3, 106560, Note_on_c, 1, 62, 83
3, 106584, Note_off_c, 1, 61, 64
3, 106800, Note_off_c, 1, 62, 64
3, 107520, Note_on_c, 1, 71, 126
3, 107992, Note_off_c, 1, 71, 64
3, 107992, Note_on_c, 1, 76, 117
3, 108040, Note_on_c, 1, 74, 107
3, 108048, Note_off_c, 1, 76, 64
3, 108100, Note_on_c, 1, 76, 106
3, 108104, Note_off_c, 1, 74, 64
3, 108708, Note_off_c, 1, 76, 64
3, 108728, Note_on_c, 1, 74, 100
3, 108828, Note_on_c, 1, 72, 96
3, 108852, Note_off_c, 1, 74, 64
3, 108952, Note_on_c, 1, 74, 100
3, 108968, Note_off_c, 1, 72, 64
3, 109068, Note_on_c, 1, 72, 104
3, 109088, Note_off_c, 1, 74, 64
3, 109184, Note_on_c, 1, 71, 93
3, 109188, Note_off_c, 1, 72, 64
3, 109308, Note_on_c, 1, 69, 84
3, 109320, Note_off_c, 1, 71, 64
3, 109432, Note_off_c, 1, 69, 64
3, 109432, Note_on_c, 1, 67, 97
3, 110128, Note_off_c, 1, 67, 64
3, 110152, Note_on_c, 1, 81, 121
3, 110388, Note_off_c, 1, 81, 64
3, 110388, Note_on_c, 1, 78, 92
3, 110628, Note_off_c, 1, 78, 64
3, 110640, Note_on_c, 1, 74, 106
3, 110880, Note_off_c, 1, 74, 64
3, 111484, Note_on_c, 1, 74, 93
3, 111588, Note_off_c, 1, 74, 64
3, 111604, Note_on_c, 1, 72, 90
3, 111724, Note_off_c, 1, 72, 64
3, 111724, Note_on_c, 1, 76, 83
3, 111844, Note_on_c, 1, 74, 84
3, 111864, Note_off_c, 1, 76, 64
3, 112088, Note_on_c, 1, 71, 83
3, 112092, Note_off_c, 1, 74, 64
3, 112440, Note_on_c, 1, 69, 83
3, 112464, Note_off_c, 1, 71, 64
3, 112560, Note_on_c, 1, 67, 83
3, 112580, Note_off_c, 1, 69, 64
3, 112680, Note_on_c, 1, 71, 84
3, 112700, Note_off_c, 1, 67, 64
3, 112792, Note_off_c, 1, 71, 64
3, 112800, Note_on_c, 1, 69, 98
3, 113040, Note_off_c, 1, 69, 64
3, 113040, Note_on_c, 1, 67, 104
3, 113400, Note_off_c, 1, 67, 64
3, 113400, Note_on_c, 1, 66, 98
3, 113520, Note_on_c, 1, 64, 94
3, 113536, Note_off_c, 1, 66, 64
3, 113636, Note_off_c, 1, 64, 64
3, 113640, Note_on_c, 1, 67, 94
3, 113756, Note_off_c, 1, 67, 64
3, 113760, Note_on_c, 1, 66, 95
3, 114240, Note_off_c, 1, 66, 64
3, 114240, Note_on_c, 1, 67, 98
3, 114480, Note_off_c, 1, 67, 64
3, 115204, Note_on_c, 1, 67, 95
3, 115324, Note_on_c, 1, 69, 86
3, 115352, Note_off_c, 1, 67, 64
3, 115444, Note_on_c, 1, 71, 89
3, 115464, Note_off_c, 1, 69, 64
3, 115552, Note_on_c, 1, 74, 83
3, 115564, Note_off_c, 1, 71, 64
3, 115668, Note_off_c, 1, 74, 64
3, 115688, Note_on_c, 1, 76, 113
3, 116284, Note_on_c, 1, 74, 74
3, 116292, Note_off_c, 1, 76, 64
3, 116400, Note_on_c, 1, 73, 82
3, 116404, Note_off_c, 1, 74, 64
3, 116520, Note_on_c, 1, 76, 92
3, 116524, Note_off_c, 1, 73, 64
3, 116644, Note_on_c, 1, 74, 91
3, 116656, Note_off_c, 1, 76, 64
3, 116760, Note_on_c, 1, 73, 94
3, 116784, Note_off_c, 1, 74, 64
3, 116880, Note_on_c, 1, 71, 89
3, 116892, Note_off_c, 1, 73, 64
3, 116988, Note_on_c, 1, 69, 80
3, 117000, Note_off_c, 1, 71, 64
3, 117120, Note_on_c, 1, 67, 83
3, 117128, Note_off_c, 1, 69, 64
3, 117600, Note_off_c, 1, 67, 64
3, 117832, Note_on_c, 1, 79, 109
3, 118072, Note_on_c, 1, 76, 85
3, 118104, Note_off_c, 1, 79, 64
3, 118320, Note_on_c, 1, 73, 99
3, 118324, Note_off_c, 1, 76, 64
3, 118560, Note_off_c, 1, 73, 64
3, 119160, Note_on_c, 1, 69, 89
3, 119272, Note_off_c, 1, 69, 64
3, 119272, Note_on_c, 1, 67, 77
3, 119388, Note_on_c, 1, 71, 90
3, 119408, Note_off_c, 1, 67, 64
3, 119512, Note_on_c, 1, 69, 96
3, 119520, Note_off_c, 1, 71, 64
3, 119744, Note_off_c, 1, 69, 64
3, 119744, Note_on_c, 1, 66, 93
3, 120120, Note_on_c, 1, 64, 95
3, 120132, Note_off_c, 1, 66, 64
3, 120232, Note_off_c, 1, 64, 64
3, 120240, Note_on_c, 1, 62, 88
3, 120348, Note_on_c, 1, 66, 92
3, 120360, Note_off_c, 1, 62, 64
3, 120472, Note_on_c, 1, 64, 98
3, 120480, Note_off_c, 1, 66, 64
3, 120708, Note_on_c, 1, 62, 101
3, 120720, Note_off_c, 1, 64, 64
3, 121072, Note_on_c, 1, 61, 99
3, 121104, Note_off_c, 1, 62, 64
3, 121188, Note_on_c, 1, 59, 85
3, 121212, Note_off_c, 1, 61, 64
3, 121308, Note_off_c, 1, 59, 64
3, 121308, Note_on_c, 1, 62, 98
3, 121440, Note_off_c, 1, 62, 64
3, 121440, Note_on_c, 1, 61, 104
3, 121920, Note_off_c, 1, 61, 64
3, 121920, Note_on_c, 1, 62, 96
3, 122400, Note_off_c, 1, 62, 64
3, 123000, Note_on_c, 1, 78, 96
3, 123116, Note_off_c, 1, 78, 64
3, 123120, Note_on_c, 1, 76, 84
3, 123236, Note_off_c, 1, 76, 64
3, 123240, Note_on_c, 1, 79, 90
3, 123356, Note_off_c, 1, 79, 64
3, 123360, Note_on_c, 1, 78, 96
3, 123476, Note_off_c, 1, 78, 64
3, 123480, Note_on_c, 1, 76, 84
3, 123596, Note_off_c, 1, 76, 64
3, 123600, Note_on_c, 1, 74, 82
3, 123716, Note_off_c, 1, 74, 64
3, 123720, Note_on_c, 1, 73, 90
3, 123836, Note_off_c, 1, 73, 64
3, 123840, Note_on_c, 1, 74, 86
3, 124556, Note_off_c, 1, 74, 64
3, 124560, Note_on_c, 1, 71, 82
3, 124796, Note_off_c, 1, 71, 64
3, 124800, Note_on_c, 1, 67, 85
3, 125036, Note_off_c, 1, 67, 64
3, 125040, Note_on_c, 1, 64, 97
3, 125276, Note_off_c, 1, 64, 64
3, 125280, Note_on_c, 1, 69, 89
3, 125876, Note_off_c, 1, 69, 64
3, 125880, Note_on_c, 1, 67, 89
3, 125996, Note_off_c, 1, 67, 64
3, 126000, Note_on_c, 1, 66, 94
3, 126116, Note_off_c, 1, 66, 64
3, 126120, Note_on_c, 1, 69, 102
3, 126236, Note_off_c, 1, 69, 64
3, 126240, Note_on_c, 1, 67, 96
3, 126356, Note_off_c, 1, 67, 64
3, 126360, Note_on_c, 1, 66, 93
3, 126476, Note_off_c, 1, 66, 64
3, 126480, Note_on_c, 1, 64, 97
3, 126596, Note_off_c, 1, 64, 64
3, 126600, Note_on_c, 1, 63, 101
3, 126716, Note_off_c, 1, 63, 64
3, 126720, Note_on_c, 1, 64, 109
3, 126836, Note_off_c, 1, 64, 64
3, 126840, Note_on_c, 1, 71, 111
3, 126956, Note_off_c, 1, 71, 64
3, 126960, Note_on_c, 1, 69, 101
3, 127076, Note_off_c, 1, 69, 64
3, 127080, Note_on_c, 1, 72, 104
3, 127196, Note_off_c, 1, 72, 64
3, 127200, Note_on_c, 1, 71, 100
3, 127436, Note_off_c, 1, 71, 64
3, 127440, Note_on_c, 1, 67, 95
3, 127796, Note_off_c, 1, 67, 64
3, 127800, Note_on_c, 1, 66, 99
3, 127916, Note_off_c, 1, 66, 64
3, 127920, Note_on_c, 1, 64, 104
3, 128036, Note_off_c, 1, 64, 64
3, 128040, Note_on_c, 1, 67, 96
3, 128156, Note_off_c, 1, 67, 64
3, 128160, Note_on_c, 1, 66, 104
3, 128396, Note_off_c, 1, 66, 64
3, 128400, Note_on_c, 1, 64, 111
3, 128756, Note_off_c, 1, 64, 64
3, 128760, Note_on_c, 1, 63, 106
3, 128876, Note_off_c, 1, 63, 64
3, 128880, Note_on_c, 1, 61, 106
3, 128996, Note_off_c, 1, 61, 64
3, 129000, Note_on_c, 1, 64, 101
3, 129116, Note_off_c, 1, 64, 64
3, 129120, Note_on_c, 1, 63, 106
3, 129596, Note_off_c, 1, 63, 64
3, 129600, Note_on_c, 1, 64, 121
3, 130076, Note_off_c, 1, 64, 64
3, 130080, Note_on_c, 1, 71, 121
3, 130676, Note_off_c, 1, 71, 64
3, 130680, Note_on_c, 1, 69, 97
3, 130796, Note_off_c, 1, 69, 64
3, 130800, Note_on_c, 1, 67, 97
3, 130916, Note_off_c, 1, 67, 64
3, 130920, Note_on_c, 1, 71, 100
3, 131036, Note_off_c, 1, 71, 64
3, 131040, Note_on_c, 1, 69, 107
3, 131156, Note_off_c, 1, 69, 64
3, 131160, Note_on_c, 1, 67, 81
3, 131276, Note_off_c, 1, 67, 64
3, 131280, Note_on_c, 1, 66, 121
3, 131396, Note_off_c, 1, 66, 64
3, 131400, Note_on_c, 1, 64, 106
3, 131516, Note_off_c, 1, 64, 64
3, 131520, Note_on_c, 1, 62, 113
3, 131996, Note_off_c, 1, 62, 64
3, 132000, Note_on_c, 1, 67, 106
3, 132596, Note_off_c, 1, 67, 64
3, 132600, Note_on_c, 1, 66, 106
3, 132716, Note_off_c, 1, 66, 64
3, 132720, Note_on_c, 1, 64, 96
3, 132836, Note_off_c, 1, 64, 64
3, 132840, Note_on_c, 1, 67, 104
3, 132956, Note_off_c, 1, 67, 64
3, 132960, Note_on_c, 1, 66, 106
3, 133076, Note_off_c, 1, 66, 64
3, 133080, Note_on_c, 1, 64, 97
3, 133196, Note_off_c, 1, 64, 64
3, 133200, Note_on_c, 1, 62, 97
3, 133316, Note_off_c, 1, 62, 64
3, 133320, Note_on_c, 1, 60, 107
3, 133436, Note_off_c, 1, 60, 64
3, 133440, Note_on_c, 1, 62, 107
3, 134396, Note_off_c, 1, 62, 64
3, 134400, Note_on_c, 1, 74, 93
3, 134876, Note_off_c, 1, 74, 64
3, 134880, Note_on_c, 1, 77, 107
3, 135476, Note_off_c, 1, 77, 64
3, 135480, Note_on_c, 1, 76, 113
3, 135596, Note_off_c, 1, 76, 64
3, 135600, Note_on_c, 1, 74, 100
3, 135716, Note_off_c, 1, 74, 64
3, 135720, Note_on_c, 1, 77, 98
3, 135836, Note_off_c, 1, 77, 64
3, 135840, Note_on_c, 1, 76, 100
3, 135956, Note_off_c, 1, 76, 64
3, 135960, Note_on_c, 1, 79, 104
3, 136076, Note_off_c, 1, 79, 64
3, 136080, Note_on_c, 1, 78, 108
3, 136196, Note_off_c, 1, 78, 64
3, 136200, Note_on_c, 1, 79, 104
3, 136316, Note_off_c, 1, 79, 64
3, 136320, Note_on_c, 1, 81, 106
3, 136556, Note_off_c, 1, 81, 64
3, 136560, Note_on_c, 1, 74, 102
3, 136796, Note_off_c, 1, 74, 64
3, 136800, Note_on_c, 1, 74, 95
3, 136916, Note_off_c, 1, 74, 64
3, 136920, Note_on_c, 1, 72, 109
3, 137036, Note_off_c, 1, 72, 64
3, 137040, Note_on_c, 1, 71, 95
3, 137156, Note_off_c, 1, 71, 64
3, 137160, Note_on_c, 1, 69, 83
3, 137276, Note_off_c, 1, 69, 64
3, 137280, Note_on_c, 1, 71, 98
3, 137760, Note_off_c, 1, 71, 64
3, 138360, Note_on_c, 1, 78, 97
3, 138476, Note_off_c, 1, 78, 64
3, 138480, Note_on_c, 1, 76, 84
3, 138596, Note_off_c, 1, 76, 64
3, 138600, Note_on_c, 1, 79, 91
3, 138716, Note_off_c, 1, 79, 64
3, 138720, Note_on_c, 1, 78, 93
3, 138836, Note_off_c, 1, 78, 64
3, 138840, Note_on_c, 1, 76, 88
3, 138956, Note_off_c, 1, 76, 64
3, 138960, Note_on_c, 1, 74, 90
3, 139076, Note_off_c, 1, 74, 64
3, 139080, Note_on_c, 1, 73, 92
3, 139196, Note_off_c, 1, 73, 64
3, 139200, Note_on_c, 1, 74, 97
3, 139676, Note_off_c, 1, 74, 64
3, 139920, Note_on_c, 1, 71, 109
3, 140156, Note_off_c, 1, 71, 64
3, 140160, Note_on_c, 1, 67, 106
3, 140396, Note_off_c, 1, 67, 64
3, 140400, Note_on_c, 1, 64, 100
3, 140636, Note_off_c, 1, 64, 64
3, 140640, Note_on_c, 1, 69, 97
3, 141236, Note_off_c, 1, 69, 64
3, 141240, Note_on_c, 1, 67, 97
3, 141356, Note_off_c, 1, 67, 64
3, 141360, Note_on_c, 1, 66, 92
3, 141476, Note_off_c, 1, 66, 64
3, 141480, Note_on_c, 1, 69, 91
3, 141596, Note_off_c, 1, 69, 64
3, 141600, Note_on_c, 1, 67, 97
3, 141716, Note_off_c, 1, 67, 64
3, 141720, Note_on_c, 1, 66, 90
3, 141836, Note_off_c, 1, 66, 64
3, 141840, Note_on_c, 1, 64, 97
3, 141956, Note_off_c, 1, 64, 64
3, 141960, Note_on_c, 1, 63, 101
3, 142076, Note_off_c, 1, 63, 64
3, 142080, Note_on_c, 1, 64, 111
3, 142196, Note_off_c, 1, 64, 64
3, 142200, Note_on_c, 1, 71, 97
3, 142316, Note_off_c, 1, 71, 64
3, 142320, Note_on_c, 1, 69, 98
3, 142436, Note_off_c, 1, 69, 64
3, 142440, Note_on_c, 1, 72, 101
3, 142556, Note_off_c, 1, 72, 64
3, 142560, Note_on_c, 1, 71, 97
3, 142800, Note_off_c, 1, 71, 64
3, 142800, Note_on_c, 1, 67, 92
3, 143160, Note_off_c, 1, 67, 64
3, 143160, Note_on_c, 1, 66, 93
3, 143280, Note_off_c, 1, 66, 64
3, 143280, Note_on_c, 1, 64, 63
3, 143400, Note_off_c, 1, 64, 64
3, 143400, Note_on_c, 1, 67, 89
3, 143520, Note_off_c, 1, 67, 64
3, 143520, Note_on_c, 1, 66, 77
3, 143756, Note_off_c, 1, 66, 64
3, 143760, Note_on_c, 1, 64, 104
3, 144116, Note_off_c, 1, 64, 64
3, 144120, Note_on_c, 1, 63, 101
3, 144236, Note_off_c, 1, 63, 64
3, 144240, Note_on_c, 1, 61, 108
3, 144356, Note_off_c, 1, 61, 64
3, 144360, Note_on_c, 1, 64, 98
3, 144476, Note_off_c, 1, 64, 64
3, 144480, Note_on_c, 1, 63, 106
3, 144956, Note_off_c, 1, 63, 64
3, 144960, Note_on_c, 1, 64, 123
3, 145436, Note_off_c, 1, 64, 64
3, 145440, Note_on_c, 1, 71, 124
3, 146036, Note_off_c, 1, 71, 64
3, 146040, Note_on_c, 1, 69, 98
3, 146156, Note_off_c, 1, 69, 64
3, 146160, Note_on_c, 1, 67, 97
3, 146276, Note_off_c, 1, 67, 64
3, 146280, Note_on_c, 1, 71, 95
3, 146396, Note_off_c, 1, 71, 64
3, 146400, Note_on_c, 1, 69, 92
3, 146516, Note_off_c, 1, 69, 64
3, 146520, Note_on_c, 1, 67, 81
3, 146636, Note_off_c, 1, 67, 64
3, 146640, Note_on_c, 1, 66, 96
3, 146756, Note_off_c, 1, 66, 64
3, 146760, Note_on_c, 1, 64, 93
3, 146876, Note_off_c, 1, 64, 64
3, 146880, Note_on_c, 1, 62, 104
3, 147356, Note_off_c, 1, 62, 64
3, 147360, Note_on_c, 1, 67, 101
3, 147956, Note_off_c, 1, 67, 64
3, 147960, Note_on_c, 1, 66, 110
3, 148076, Note_off_c, 1, 66, 64
3, 148080, Note_on_c, 1, 64, 96
3, 148196, Note_off_c, 1, 64, 64
3, 148200, Note_on_c, 1, 67, 95
3, 148316, Note_off_c, 1, 67, 64
3, 148320, Note_on_c, 1, 66, 106
3, 148436, Note_off_c, 1, 66, 64
3, 148440, Note_on_c, 1, 64, 98
3, 148556, Note_off_c, 1, 64, 64
3, 148560, Note_on_c, 1, 62, 91
3, 148676, Note_off_c, 1, 62, 64
3, 148680, Note_on_c, 1, 60, 102
3, 148796, Note_off_c, 1, 60, 64
3, 148800, Note_on_c, 1, 62, 106
3, 149516, Note_off_c, 1, 62, 64
3, 149760, Note_on_c, 1, 74, 106
3, 150236, Note_off_c, 1, 74, 64
3, 150240, Note_on_c, 1, 77, 113
3, 150836, Note_off_c, 1, 77, 64
3, 150840, Note_on_c, 1, 76, 109
3, 150956, Note_off_c, 1, 76, 64
3, 150960, Note_on_c, 1, 74, 97
3, 151076, Note_off_c, 1, 74, 64
3, 151080, Note_on_c, 1, 77, 96
3, 151196, Note_off_c, 1, 77, 64
3, 151200, Note_on_c, 1, 76, 97
3, 151316, Note_off_c, 1, 76, 64
3, 151320, Note_on_c, 1, 79, 100
3, 151436, Note_off_c, 1, 79, 64
3, 151440, Note_on_c, 1, 78, 92
3, 151556, Note_off_c, 1, 78, 64
3, 151560, Note_on_c, 1, 79, 102
3, 151676, Note_off_c, 1, 79, 64
3, 151680, Note_on_c, 1, 81, 119
3, 151916, Note_off_c, 1, 81, 64
3, 151920, Note_on_c, 1, 74, 107
3, 152156, Note_off_c, 1, 74, 64
3, 152160, Note_on_c, 1, 74, 111
3, 152276, Note_off_c, 1, 74, 64
3, 152280, Note_on_c, 1, 72, 109
3, 152396, Note_off_c, 1, 72, 64
3, 152400, Note_on_c, 1, 71, 100
3, 152516, Note_off_c, 1, 71, 64
3, 152520, Note_on_c, 1, 69, 88
3, 152636, Note_off_c, 1, 69, 64
3, 152640, Note_on_c, 1, 71, 80
3, 153120, Note_off_c, 1, 71, 64
3, 153600, Note_on_c, 1, 71, 121
3, 154432, Note_on_c, 1, 72, 88
3, 154436, Note_off_c, 1, 71, 64
3, 154552, Note_on_c, 1, 74, 81
3, 154576, Note_off_c, 1, 72, 64
3, 154668, Note_on_c, 1, 72, 89
3, 154680, Note_off_c, 1, 74, 64
3, 154784, Note_on_c, 1, 74, 83
3, 154804, Note_off_c, 1, 72, 64
3, 154908, Note_on_c, 1, 76, 92
3, 154924, Note_off_c, 1, 74, 64
3, 155040, Note_off_c, 1, 76, 64
3, 155040, Note_on_c, 1, 69, 93
3, 155872, Note_on_c, 1, 71, 92
3, 155880, Note_off_c, 1, 69, 64
3, 155992, Note_on_c, 1, 72, 97
3, 156016, Note_off_c, 1, 71, 64
3, 156120, Note_on_c, 1, 71, 96
3, 156124, Note_off_c, 1, 72, 64
3, 156232, Note_on_c, 1, 72, 96
3, 156248, Note_off_c, 1, 71, 64
3, 156352, Note_off_c, 1, 72, 64
3, 156360, Note_on_c, 1, 74, 97
3, 156480, Note_off_c, 1, 74, 64
3, 156480, Note_on_c, 1, 71, 121
3, 157316, Note_off_c, 1, 71, 64
3, 157320, Note_on_c, 1, 72, 100
3, 157436, Note_off_c, 1, 72, 64
3, 157440, Note_on_c, 1, 74, 93
3, 157556, Note_off_c, 1, 74, 64
3, 157560, Note_on_c, 1, 72, 101
3, 157676, Note_off_c, 1, 72, 64
3, 157680, Note_on_c, 1, 74, 96
3, 157796, Note_off_c, 1, 74, 64
3, 157800, Note_on_c, 1, 76, 98
3, 157916, Note_off_c, 1, 76, 64
3, 157920, Note_on_c, 1, 69, 111
3, 158756, Note_off_c, 1, 69, 64
3, 158760, Note_on_c, 1, 71, 107
3, 158876, Note_off_c, 1, 71, 64
3, 158880, Note_on_c, 1, 72, 93
3, 158996, Note_off_c, 1, 72, 64
3, 159000, Note_on_c, 1, 71, 88
3, 159116, Note_off_c, 1, 71, 64
3, 159120, Note_on_c, 1, 72, 98
3, 159236, Note_off_c, 1, 72, 64
3, 159240, Note_on_c, 1, 74, 95
3, 159356, Note_off_c, 1, 74, 64
3, 159360, Note_on_c, 1, 67, 107
3, 160076, Note_off_c, 1, 67, 64
3, 160080, Note_on_c, 1, 79, 123
3, 161036, Note_off_c, 1, 79, 64
3, 161040, Note_on_c, 1, 81, 101
3, 161156, Note_off_c, 1, 81, 64
3, 161160, Note_on_c, 1, 79, 95
3, 161276, Note_off_c, 1, 79, 64
3, 161280, Note_on_c, 1, 78, 99
3, 161396, Note_off_c, 1, 78, 64
3, 161400, Note_on_c, 1, 79, 104
3, 161516, Note_off_c, 1, 79, 64
3, 161520, Note_on_c, 1, 81, 107
3, 162236, Note_off_c, 1, 81, 64
3, 162480, Note_on_c, 1, 74, 106
3, 162596, Note_off_c, 1, 74, 64
3, 162600, Note_on_c, 1, 72, 107
3, 162716, Note_off_c, 1, 72, 64
3, 162720, Note_on_c, 1, 71, 95
3, 162836, Note_off_c, 1, 71, 64
3, 162840, Note_on_c, 1, 69, 89
3, 162956, Note_off_c, 1, 69, 64
3, 162960, Note_on_c, 1, 71, 109
3, 163196, Note_off_c, 1, 71, 64
3, 163200, Note_on_c, 1, 72, 107
3, 163316, Note_off_c, 1, 72, 64
3, 163320, Note_on_c, 1, 71, 98
3, 163436, Note_off_c, 1, 71, 64
3, 163440, Note_on_c, 1, 69, 86
3, 163556, Note_off_c, 1, 69, 64
3, 163560, Note_on_c, 1, 71, 91
3, 163676, Note_off_c, 1, 71, 64
3, 163680, Note_on_c, 1, 67, 107
3, 163916, Note_off_c, 1, 67, 64
3, 163920, Note_on_c, 1, 76, 121
3, 164156, Note_off_c, 1, 76, 64
3, 164160, Note_on_c, 1, 74, 92
3, 164396, Note_off_c, 1, 74, 64
3, 164400, Note_on_c, 1, 72, 119
3, 164636, Note_off_c, 1, 72, 64
3, 164640, Note_on_c, 1, 78, 115
3, 164876, Note_off_c, 1, 78, 64
3, 164880, Note_on_c, 1, 81, 121
3, 165116, Note_off_c, 1, 81, 64
3, 165120, Note_on_c, 1, 71, 84
3, 165596, Note_off_c, 1, 71, 64
3, 165600, Note_on_c, 1, 79, 119
3, 165836, Note_off_c, 1, 79, 64
3, 165840, Note_on_c, 1, 79, 77
3, 166316, Note_off_c, 1, 79, 64
3, 166320, Note_on_c, 1, 78, 85
3, 166556, Note_off_c, 1, 78, 64
3, 167040, Note_on_c, 1, 83, 124
3, 167276, Note_off_c, 1, 83, 64
3, 167280, Note_on_c, 1, 81, 117
3, 167756, Note_off_c, 1, 81, 64
3, 167760, Note_on_c, 1, 74, 100
3, 168116, Note_off_c, 1, 74, 64
3, 168120, Note_on_c, 1, 76, 107
3, 168236, Note_off_c, 1, 76, 64
3, 168240, Note_on_c, 1, 74, 98
3, 168356, Note_off_c, 1, 74, 64
3, 168360, Note_on_c, 1, 72, 72
3, 168476, Note_off_c, 1, 72, 64
3, 168480, Note_on_c, 1, 71, 109
3, 168716, Note_off_c, 1, 71, 64
3, 168720, Note_on_c, 1, 76, 111
3, 168956, Note_off_c, 1, 76, 64
3, 168960, Note_on_c, 1, 71, 107
3, 169196, Note_off_c, 1, 71, 64
3, 169200, Note_on_c, 1, 74, 111
3, 169436, Note_off_c, 1, 74, 64
3, 169440, Note_on_c, 1, 73, 108
3, 169676, Note_off_c, 1, 73, 64
3, 169680, Note_on_c, 1, 74, 109
3, 169916, Note_off_c, 1, 74, 64
3, 169920, Note_on_c, 1, 76, 104
3, 170396, Note_off_c, 1, 76, 64
3, 170400, Note_on_c, 1, 73, 102
3, 170636, Note_off_c, 1, 73, 64
3, 170640, Note_on_c, 1, 69, 117
3, 170876, Note_off_c, 1, 69, 64
3, 171360, Note_on_c, 1, 74, 96
3, 171596, Note_off_c, 1, 74, 64
3, 171600, Note_on_c, 1, 67, 96
3, 172556, Note_off_c, 1, 67, 64
3, 172560, Note_on_c, 1, 66, 96
3, 172796, Note_off_c, 1, 66, 64
3, 172800, Note_on_c, 1, 67, 96
3, 173036, Note_off_c, 1, 67, 64
3, 173040, Note_on_c, 1, 64, 107
3, 173276, Note_off_c, 1, 64, 64
3, 173280, Note_on_c, 1, 69, 100
3, 173396, Note_off_c, 1, 69, 64
3, 173400, Note_on_c, 1, 67, 106
3, 173516, Note_off_c, 1, 67, 64
3, 173520, Note_on_c, 1, 66, 97
3, 173636, Note_off_c, 1, 66, 64
3, 173640, Note_on_c, 1, 64, 97
3, 173756, Note_off_c, 1, 64, 64
3, 173760, Note_on_c, 1, 62, 109
3, 173996, Note_off_c, 1, 62, 64
3, 174000, Note_on_c, 1, 64, 115
3, 174116, Note_off_c, 1, 64, 64
3, 174120, Note_on_c, 1, 66, 92
3, 174236, Note_off_c, 1, 66, 64
3, 174240, Note_on_c, 1, 67, 101
3, 174356, Note_off_c, 1, 67, 64
3, 174360, Note_on_c, 1, 69, 91
3, 174476, Note_off_c, 1, 69, 64
3, 174480, Note_on_c, 1, 71, 107
3, 174716, Note_off_c, 1, 71, 64
3, 174720, Note_on_c, 1, 74, 101
3, 174956, Note_off_c, 1, 74, 64
3, 174960, Note_on_c, 1, 73, 97
3, 175196, Note_off_c, 1, 73, 64
3, 175200, Note_on_c, 1, 74, 115
3, 176636, Note_off_c, 1, 74, 64
3, 176644, Note_on_c, 1, 71, 107
3, 177468, Note_on_c, 1, 72, 92
3, 177472, Note_off_c, 1, 71, 64
3, 177588, Note_on_c, 1, 74, 92
3, 177616, Note_off_c, 1, 72, 64
3, 177704, Note_on_c, 1, 72, 97
3, 177724, Note_off_c, 1, 74, 64
3, 177828, Note_on_c, 1, 74, 89
3, 177852, Note_off_c, 1, 72, 64
3, 177948, Note_on_c, 1, 76, 101
3, 177972, Note_off_c, 1, 74, 64
3, 178080, Note_on_c, 1, 69, 104
3, 178084, Note_off_c, 1, 76, 64
3, 178912, Note_on_c, 1, 71, 98
3, 178928, Note_off_c, 1, 69, 64
3, 179032, Note_on_c, 1, 72, 92
3, 179052, Note_off_c, 1, 71, 64
3, 179144, Note_on_c, 1, 71, 93
3, 179172, Note_off_c, 1, 72, 64
3, 179268, Note_on_c, 1, 72, 97
3, 179288, Note_off_c, 1, 71, 64
3, 179380, Note_on_c, 1, 74, 98
3, 179392, Note_off_c, 1, 72, 64
3, 179520, Note_on_c, 1, 71, 121
3, 179528, Note_off_c, 1, 74, 64
3, 180356, Note_off_c, 1, 71, 64
3, 180360, Note_on_c, 1, 72, 100
3, 180476, Note_off_c, 1, 72, 64
3, 180480, Note_on_c, 1, 74, 93
3, 180596, Note_off_c, 1, 74, 64
3, 180600, Note_on_c, 1, 72, 101
3, 180716, Note_off_c, 1, 72, 64
3, 180720, Note_on_c, 1, 74, 96
3, 180836, Note_off_c, 1, 74, 64
3, 180840, Note_on_c, 1, 76, 98
3, 180956, Note_off_c, 1, 76, 64
3, 180960, Note_on_c, 1, 69, 111
3, 181796, Note_off_c, 1, 69, 64
3, 181800, Note_on_c, 1, 71, 107
3, 181916, Note_off_c, 1, 71, 64
3, 181920, Note_on_c, 1, 72, 93
3, 182036, Note_off_c, 1, 72, 64
3, 182040, Note_on_c, 1, 71, 88
3, 182156, Note_off_c, 1, 71, 64
3, 182160, Note_on_c, 1, 72, 98
3, 182276, Note_off_c, 1, 72, 64
3, 182280, Note_on_c, 1, 74, 95
3, 182396, Note_off_c, 1, 74, 64
3, 182400, Note_on_c, 1, 67, 107
3, 183116, Note_off_c, 1, 67, 64
3, 183120, Note_on_c, 1, 79, 123
3, 184076, Note_off_c, 1, 79, 64
3, 184080, Note_on_c, 1, 81, 101
3, 184196, Note_off_c, 1, 81, 64
3, 184200, Note_on_c, 1, 79, 95
3, 184316, Note_off_c, 1, 79, 64
3, 184320, Note_on_c, 1, 78, 99
3, 184436, Note_off_c, 1, 78, 64
3, 184440, Note_on_c, 1, 79, 104
3, 184556, Note_off_c, 1, 79, 64
3, 184560, Note_on_c, 1, 81, 107
3, 185276, Note_off_c, 1, 81, 64
3, 185520, Note_on_c, 1, 74, 106
3, 185636, Note_off_c, 1, 74, 64
3, 185640, Note_on_c, 1, 72, 107
3, 185756, Note_off_c, 1, 72, 64
3, 185760, Note_on_c, 1, 71, 95
3, 185876, Note_off_c, 1, 71, 64
3, 185880, Note_on_c, 1, 69, 89
3, 185996, Note_off_c, 1, 69, 64
3, 186000, Note_on_c, 1, 71, 109
3, 186236, Note_off_c, 1, 71, 64
3, 186240, Note_on_c, 1, 72, 107
3, 186356, Note_off_c, 1, 72, 64
3, 186360, Note_on_c, 1, 71, 98
3, 186476, Note_off_c, 1, 71, 64
3, 186480, Note_on_c, 1, 69, 86
3, 186596, Note_off_c, 1, 69, 64
3, 186600, Note_on_c, 1, 71, 91
3, 186716, Note_off_c, 1, 71, 64
3, 186720, Note_on_c, 1, 67, 107
3, 186956, Note_off_c, 1, 67, 64
3, 186960, Note_on_c, 1, 76, 121
3, 187196, Note_off_c, 1, 76, 64
3, 187200, Note_on_c, 1, 74, 92
3, 187436, Note_off_c, 1, 74, 64
3, 187440, Note_on_c, 1, 72, 119
3, 187676, Note_off_c, 1, 72, 64
3, 187680, Note_on_c, 1, 78, 115
3, 187916, Note_off_c, 1, 78, 64
3, 187920, Note_on_c, 1, 81, 121
3, 188156, Note_off_c, 1, 81, 64
3, 188160, Note_on_c, 1, 71, 84
3, 188636, Note_off_c, 1, 71, 64
3, 188640, Note_on_c, 1, 79, 119
3, 188876, Note_off_c, 1, 79, 64
3, 188880, Note_on_c, 1, 79, 77
3, 189356, Note_off_c, 1, 79, 64
3, 189360, Note_on_c, 1, 78, 85
3, 189596, Note_off_c, 1, 78, 64
3, 190080, Note_on_c, 1, 83, 124
3, 190316, Note_off_c, 1, 83, 64
3, 190320, Note_on_c, 1, 81, 117
3, 190796, Note_off_c, 1, 81, 64
3, 190800, Note_on_c, 1, 74, 100
3, 191156, Note_off_c, 1, 74, 64
3, 191160, Note_on_c, 1, 76, 107
3, 191276, Note_off_c, 1, 76, 64
3, 191280, Note_on_c, 1, 74, 98
3, 191396, Note_off_c, 1, 74, 64
3, 191400, Note_on_c, 1, 72, 72
3, 191516, Note_off_c, 1, 72, 64
3, 191520, Note_on_c, 1, 71, 109
3, 191756, Note_off_c, 1, 71, 64
3, 191760, Note_on_c, 1, 76, 111
3, 191996, Note_off_c, 1, 76, 64
3, 192000, Note_on_c, 1, 71, 107
3, 192236, Note_off_c, 1, 71, 64
3, 192240, Note_on_c, 1, 74, 111
3, 192476, Note_off_c, 1, 74, 64
3, 192480, Note_on_c, 1, 73, 108
3, 192716, Note_off_c, 1, 73, 64
3, 192720, Note_on_c, 1, 74, 109
3, 192956, Note_off_c, 1, 74, 64
3, 192960, Note_on_c, 1, 76, 104
3, 193436, Note_off_c, 1, 76, 64
3, 193440, Note_on_c, 1, 73, 102
3, 193676, Note_off_c, 1, 73, 64
3, 193680, Note_on_c, 1, 69, 117
3, 193916, Note_off_c, 1, 69, 64
3, 194400, Note_on_c, 1, 74, 96
3, 194636, Note_off_c, 1, 74, 64
3, 194640, Note_on_c, 1, 67, 96
3, 195596, Note_off_c, 1, 67, 64
3, 195600, Note_on_c, 1, 66, 96
3, 195836, Note_off_c, 1, 66, 64
3, 195840, Note_on_c, 1, 67, 96
3, 196076, Note_off_c, 1, 67, 64
3, 196080, Note_on_c, 1, 64, 107
3, 196316, Note_off_c, 1, 64, 64
3, 196320, Note_on_c, 1, 69, 100
3, 196436, Note_off_c, 1, 69, 64
3, 196440, Note_on_c, 1, 67, 106
3, 196556, Note_off_c, 1, 67, 64
3, 196560, Note_on_c, 1, 66, 97
3, 196676, Note_off_c, 1, 66, 64
3, 196680, Note_on_c, 1, 64, 97
3, 196796, Note_off_c, 1, 64, 64
3, 196800, Note_on_c, 1, 62, 109
3, 197036, Note_off_c, 1, 62, 64
3, 197040, Note_on_c, 1, 64, 115
3, 197156, Note_off_c, 1, 64, 64
3, 197160, Note_on_c, 1, 66, 92
3, 197276, Note_off_c, 1, 66, 64
3, 197280, Note_on_c, 1, 67, 101
3, 197396, Note_off_c, 1, 67, 64
3, 197400, Note_on_c, 1, 69, 91
3, 197516, Note_off_c, 1, 69, 64
3, 197520, Note_on_c, 1, 71, 107
3, 197756, Note_off_c, 1, 71, 64
3, 197760, Note_on_c, 1, 74, 101
3, 197996, Note_off_c, 1, 74, 64
3, 198000, Note_on_c, 1, 73, 97
3, 198236, Note_off_c, 1, 73, 64
3, 198240, Note_on_c, 1, 74, 115
3, 199676, Note_off_c, 1, 74, 64
3, 203280, Note_on_c, 1, 81, 115
3, 204116, Note_off_c, 1, 81, 64
3, 204120, Note_on_c, 1, 83, 101
3, 204236, Note_off_c, 1, 83, 64
3, 204240, Note_on_c, 1, 84, 96
3, 204356, Note_off_c, 1, 84, 64
3, 204360, Note_on_c, 1, 81, 102
3, 204476, Note_off_c, 1, 81, 64
3, 204480, Note_on_c, 1, 83, 97
3, 204596, Note_off_c, 1, 83, 64
3, 204600, Note_on_c, 1, 84, 109
3, 204716, Note_off_c, 1, 84, 64
3, 204720, Note_on_c, 1, 83, 96
3, 204836, Note_off_c, 1, 83, 64
3, 204840, Note_on_c, 1, 81, 107
3, 204956, Note_off_c, 1, 81, 64
3, 204960, Note_on_c, 1, 79, 96
3, 205076, Note_off_c, 1, 79, 64
3, 205080, Note_on_c, 1, 78, 96
3, 205196, Note_off_c, 1, 78, 64
3, 205200, Note_on_c, 1, 76, 78
3, 205316, Note_off_c, 1, 76, 64
3, 205320, Note_on_c, 1, 75, 84
3, 205436, Note_off_c, 1, 75, 64
3, 205440, Note_on_c, 1, 76, 84
3, 205676, Note_off_c, 1, 76, 64
3, 205680, Note_on_c, 1, 78, 102
3, 205916, Note_off_c, 1, 78, 64
3, 205920, Note_on_c, 1, 79, 104
3, 206396, Note_off_c, 1, 79, 64
3, 206400, Note_on_c, 1, 78, 112
3, 206636, Note_off_c, 1, 78, 64
3, 206640, Note_on_c, 1, 76, 102
3, 206876, Note_off_c, 1, 76, 64
3, 206880, Note_on_c, 1, 75, 112
3, 207956, Note_off_c, 1, 75, 64
3, 209040, Note_on_c, 1, 69, 109
3, 209760, Note_off_c, 1, 69, 64
3, 210000, Note_on_c, 1, 71, 101
3, 210116, Note_off_c, 1, 71, 64
3, 210120, Note_on_c, 1, 69, 97
3, 210236, Note_off_c, 1, 69, 64
3, 210240, Note_on_c, 1, 67, 86
3, 210356, Note_off_c, 1, 67, 64
3, 210360, Note_on_c, 1, 66, 82
3, 210480, Note_off_c, 1, 66, 64
3, 210480, Note_on_c, 1, 67, 81
3, 210596, Note_off_c, 1, 67, 64
3, 210600, Note_on_c, 1, 69, 96
3, 210716, Note_off_c, 1, 69, 64
3, 210720, Note_on_c, 1, 71, 100
3, 210836, Note_off_c, 1, 71, 64
3, 210840, Note_on_c, 1, 67, 90
3, 210956, Note_off_c, 1, 67, 64
3, 210960, Note_on_c, 1, 69, 85
3, 211076, Note_off_c, 1, 69, 64
3, 211080, Note_on_c, 1, 71, 96
3, 211200, Note_off_c, 1, 71, 64
3, 211200, Note_on_c, 1, 64, 96
3, 211440, Note_off_c, 1, 64, 64
3, 211440, Note_on_c, 1, 66, 77
3, 211556, Note_off_c, 1, 66, 64
3, 211560, Note_on_c, 1, 67, 86
3, 211676, Note_off_c, 1, 67, 64
3, 211680, Note_on_c, 1, 69, 88
3, 211796, Note_off_c, 1, 69, 64
3, 211800, Note_on_c, 1, 71, 90
3, 211916, Note_off_c, 1, 71, 64
3, 211920, Note_on_c, 1, 72, 111
3, 212156, Note_off_c, 1, 72, 64
3, 212160, Note_on_c, 1, 64, 91
3, 212396, Note_off_c, 1, 64, 64
3, 212400, Note_on_c, 1, 63, 115
3, 212636, Note_off_c, 1, 63, 64
3, 212640, Note_on_c, 1, 64, 111
3, 213360, Note_off_c, 1, 64, 64
3, 214080, Note_on_c, 1, 76, 117
3, 214916, Note_off_c, 1, 76, 64
3, 214920, Note_on_c, 1, 78, 112
3, 215036, Note_off_c, 1, 78, 64
3, 215040, Note_on_c, 1, 79, 100
3, 215156, Note_off_c, 1, 79, 64
3, 215160, Note_on_c, 1, 76, 85
3, 215276, Note_off_c, 1, 76, 64
3, 215280, Note_on_c, 1, 78, 101
3, 215396, Note_off_c, 1, 78, 64
3, 215400, Note_on_c, 1, 79, 93
3, 215516, Note_off_c, 1, 79, 64
3, 215520, Note_on_c, 1, 72, 101
3, 215640, Note_on_c, 1, 74, 86
3, 215756, Note_off_c, 1, 72, 64
3, 215756, Note_off_c, 1, 74, 64
3, 215760, Note_on_c, 1, 76, 96
3, 215876, Note_off_c, 1, 76, 64
3, 215880, Note_on_c, 1, 72, 96
3, 215996, Note_off_c, 1, 72, 64
3, 216000, Note_on_c, 1, 74, 89
3, 216116, Note_off_c, 1, 74, 64
3, 216120, Note_on_c, 1, 76, 95
3, 216236, Note_off_c, 1, 76, 64
3, 216240, Note_on_c, 1, 69, 82
3, 216356, Note_off_c, 1, 69, 64
3, 216360, Note_on_c, 1, 71, 95
3, 216476, Note_off_c, 1, 71, 64
3, 216480, Note_on_c, 1, 72, 95
3, 216596, Note_off_c, 1, 72, 64
3, 216600, Note_on_c, 1, 69, 91
3, 216716, Note_off_c, 1, 69, 64
3, 216720, Note_on_c, 1, 71, 89
3, 216836, Note_off_c, 1, 71, 64
3, 216840, Note_on_c, 1, 72, 96
3, 216956, Note_off_c, 1, 72, 64
3, 216960, Note_on_c, 1, 71, 85
3, 217076, Note_off_c, 1, 71, 64
3, 217080, Note_on_c, 1, 72, 90
3, 217196, Note_off_c, 1, 72, 64
3, 217200, Note_on_c, 1, 74, 85
3, 217316, Note_off_c, 1, 74, 64
3, 217320, Note_on_c, 1, 71, 96
3, 217436, Note_off_c, 1, 71, 64
3, 217440, Note_on_c, 1, 72, 95
3, 217556, Note_off_c, 1, 72, 64
3, 217560, Note_on_c, 1, 74, 89
3, 217676, Note_off_c, 1, 74, 64
3, 217680, Note_on_c, 1, 67, 113
3, 218516, Note_off_c, 1, 67, 64
3, 218640, Note_on_c, 1, 79, 88
3, 219356, Note_off_c, 1, 79, 64
3, 219360, Note_on_c, 1, 78, 96
3, 219596, Note_off_c, 1, 78, 64
3, 219600, Note_on_c, 1, 81, 113
3, 220076, Note_off_c, 1, 81, 64
3, 220080, Note_on_c, 1, 79, 104
3, 220316, Note_off_c, 1, 79, 64
3, 220320, Note_on_c, 1, 77, 113
3, 220556, Note_off_c, 1, 77, 64
3, 220560, Note_on_c, 1, 76, 97
3, 220676, Note_off_c, 1, 76, 64
3, 220680, Note_on_c, 1, 74, 89
3, 220796, Note_off_c, 1, 74, 64
3, 220800, Note_on_c, 1, 72, 104
3, 220916, Note_off_c, 1, 72, 64
3, 220920, Note_on_c, 1, 76, 82
3, 221036, Note_off_c, 1, 76, 64
3, 221040, Note_on_c, 1, 74, 97
3, 221156, Note_off_c, 1, 74, 64
3, 221160, Note_on_c, 1, 72, 97
3, 221276, Note_off_c, 1, 72, 64
3, 221280, Note_on_c, 1, 71, 121
3, 222720, Note_off_c, 1, 71, 64
3, 226320, Note_on_c, 1, 81, 115
3, 227156, Note_off_c, 1, 81, 64
3, 227160, Note_on_c, 1, 83, 101
3, 227276, Note_off_c, 1, 83, 64
3, 227280, Note_on_c, 1, 84, 96
3, 227396, Note_off_c, 1, 84, 64
3, 227400, Note_on_c, 1, 81, 102
3, 227516, Note_off_c, 1, 81, 64
3, 227520, Note_on_c, 1, 83, 97
3, 227636, Note_off_c, 1, 83, 64
3, 227640, Note_on_c, 1, 84, 109
3, 227756, Note_off_c, 1, 84, 64
3, 227760, Note_on_c, 1, 83, 96
3, 227876, Note_off_c, 1, 83, 64
3, 227880, Note_on_c, 1, 81, 107
3, 227996, Note_off_c, 1, 81, 64
3, 228000, Note_on_c, 1, 79, 96
3, 228116, Note_off_c, 1, 79, 64
3, 228120, Note_on_c, 1, 78, 96
3, 228236, Note_off_c, 1, 78, 64
3, 228240, Note_on_c, 1, 76, 78
3, 228356, Note_off_c, 1, 76, 64
3, 228360, Note_on_c, 1, 75, 84
3, 228476, Note_off_c, 1, 75, 64
3, 228480, Note_on_c, 1, 76, 84
3, 228716, Note_off_c, 1, 76, 64
3, 228720, Note_on_c, 1, 78, 102
3, 228956, Note_off_c, 1, 78, 64
3, 228960, Note_on_c, 1, 79, 104
3, 229436, Note_off_c, 1, 79, 64
3, 229440, Note_on_c, 1, 78, 112
3, 229676, Note_off_c, 1, 78, 64
3, 229680, Note_on_c, 1, 76, 102
3, 229916, Note_off_c, 1, 76, 64
3, 229920, Note_on_c, 1, 75, 112
3, 230996, Note_off_c, 1, 75, 64
3, 232080, Note_on_c, 1, 69, 109
3, 232800, Note_off_c, 1, 69, 64
3, 233040, Note_on_c, 1, 71, 101
3, 233156, Note_off_c, 1, 71, 64
3, 233160, Note_on_c, 1, 69, 97
3, 233276, Note_off_c, 1, 69, 64
3, 233280, Note_on_c, 1, 67, 86
3, 233396, Note_off_c, 1, 67, 64
3, 233400, Note_on_c, 1, 66, 82
3, 233520, Note_off_c, 1, 66, 64
3, 233520, Note_on_c, 1, 67, 81
3, 233636, Note_off_c, 1, 67, 64
3, 233640, Note_on_c, 1, 69, 96
3, 233756, Note_off_c, 1, 69, 64
3, 233760, Note_on_c, 1, 71, 100
3, 233876, Note_off_c, 1, 71, 64
3, 233880, Note_on_c, 1, 67, 90
3, 233996, Note_off_c, 1, 67, 64
3, 234000, Note_on_c, 1, 69, 85
3, 234116, Note_off_c, 1, 69, 64
3, 234120, Note_on_c, 1, 71, 96
3, 234240, Note_off_c, 1, 71, 64
3, 234240, Note_on_c, 1, 64, 96
3, 234480, Note_off_c, 1, 64, 64
3, 234480, Note_on_c, 1, 66, 77
3, 234596, Note_off_c, 1, 66, 64
3, 234600, Note_on_c, 1, 67, 86
3, 234716, Note_off_c, 1, 67, 64
3, 234720, Note_on_c, 1, 69, 88
3, 234836, Note_off_c, 1, 69, 64
3, 234840, Note_on_c, 1, 71, 90
3, 234956, Note_off_c, 1, 71, 64
3, 234960, Note_on_c, 1, 72, 111
3, 235196, Note_off_c, 1, 72, 64
3, 235200, Note_on_c, 1, 64, 91
3, 235436, Note_off_c, 1, 64, 64
3, 235440, Note_on_c, 1, 63, 115
3, 235676, Note_off_c, 1, 63, 64
3, 235680, Note_on_c, 1, 64, 111
3, 236400, Note_off_c, 1, 64, 64
3, 237120, Note_on_c, 1, 76, 117
3, 237956, Note_off_c, 1, 76, 64
3, 237960, Note_on_c, 1, 78, 112
3, 238076, Note_off_c, 1, 78, 64
3, 238080, Note_on_c, 1, 79, 100
3, 238196, Note_off_c, 1, 79, 64
3, 238200, Note_on_c, 1, 76, 85
3, 238316, Note_off_c, 1, 76, 64
3, 238320, Note_on_c, 1, 78, 101
3, 238436, Note_off_c, 1, 78, 64
3, 238440, Note_on_c, 1, 79, 93
3, 238556, Note_off_c, 1, 79, 64
3, 238560, Note_on_c, 1, 72, 101
3, 238680, Note_on_c, 1, 74, 86
3, 238796, Note_off_c, 1, 72, 64
3, 238796, Note_off_c, 1, 74, 64
3, 238800, Note_on_c, 1, 76, 96
3, 238916, Note_off_c, 1, 76, 64
3, 238920, Note_on_c, 1, 72, 96
3, 239036, Note_off_c, 1, 72, 64
3, 239040, Note_on_c, 1, 74, 89
3, 239156, Note_off_c, 1, 74, 64
3, 239160, Note_on_c, 1, 76, 95
3, 239276, Note_off_c, 1, 76, 64
3, 239280, Note_on_c, 1, 69, 82
3, 239396, Note_off_c, 1, 69, 64
3, 239400, Note_on_c, 1, 71, 95
3, 239516, Note_off_c, 1, 71, 64
3, 239520, Note_on_c, 1, 72, 95
3, 239636, Note_off_c, 1, 72, 64
3, 239640, Note_on_c, 1, 69, 91
3, 239756, Note_off_c, 1, 69, 64
3, 239760, Note_on_c, 1, 71, 89
3, 239876, Note_off_c, 1, 71, 64
3, 239880, Note_on_c, 1, 72, 96
3, 239996, Note_off_c, 1, 72, 64
3, 240000, Note_on_c, 1, 71, 85
3, 240116, Note_off_c, 1, 71, 64
3, 240120, Note_on_c, 1, 72, 90
3, 240236, Note_off_c, 1, 72, 64
3, 240240, Note_on_c, 1, 74, 85
3, 240356, Note_off_c, 1, 74, 64
3, 240360, Note_on_c, 1, 71, 96
3, 240476, Note_off_c, 1, 71, 64
3, 240480, Note_on_c, 1, 72, 95
3, 240596, Note_off_c, 1, 72, 64
3, 240600, Note_on_c, 1, 74, 89
3, 240716, Note_off_c, 1, 74, 64
3, 240720, Note_on_c, 1, 67, 113
3, 241556, Note_off_c, 1, 67, 64
3, 241680, Note_on_c, 1, 79, 88
3, 242396, Note_off_c, 1, 79, 64
3, 242400, Note_on_c, 1, 78, 96
3, 242636, Note_off_c, 1, 78, 64
3, 242640, Note_on_c, 1, 81, 113
3, 243116, Note_off_c, 1, 81, 64
3, 243120, Note_on_c, 1, 79, 104
3, 243356, Note_off_c, 1, 79, 64
3, 243360, Note_on_c, 1, 77, 113
3, 243596, Note_off_c, 1, 77, 64
3, 243600, Note_on_c, 1, 76, 97
3, 243716, Note_off_c, 1, 76, 64
3, 243720, Note_on_c, 1, 74, 89
3, 243836, Note_off_c, 1, 74, 64
3, 243840, Note_on_c, 1, 72, 104
3, 243956, Note_off_c, 1, 72, 64
3, 243960, Note_on_c, 1, 76, 82
3, 244076, Note_off_c, 1, 76, 64
3, 244080, Note_on_c, 1, 74, 97
3, 244196, Note_off_c, 1, 74, 64
3, 244200, Note_on_c, 1, 72, 97
3, 244316, Note_off_c, 1, 72, 64
3, 244320, Note_on_c, 1, 71, 121
3, 245760, Note_off_c, 1, 71, 64
3, 249600, Note_on_c, 1, 62, 113
3, 249836, Note_off_c, 1, 62, 64
3, 249840, Note_on_c, 1, 66, 112
3, 250076, Note_off_c, 1, 66, 64
3, 250080, Note_on_c, 1, 59, 107
3, 250316, Note_off_c, 1, 59, 64
3, 250320, Note_on_c, 1, 67, 109
3, 250556, Note_off_c, 1, 67, 64
3, 250560, Note_on_c, 1, 72, 113
3, 250796, Note_off_c, 1, 72, 64
3, 250800, Note_on_c, 1, 71, 106
3, 250916, Note_off_c, 1, 71, 64
3, 250920, Note_on_c, 1, 67, 107
3, 251036, Note_off_c, 1, 67, 64
3, 251040, Note_on_c, 1, 69, 104
3, 251276, Note_off_c, 1, 69, 64
3, 252480, Note_on_c, 1, 60, 117
3, 252716, Note_off_c, 1, 60, 64
3, 252720, Note_on_c, 1, 64, 111
3, 252956, Note_off_c, 1, 64, 64
3, 252960, Note_on_c, 1, 57, 117
3, 253196, Note_off_c, 1, 57, 64
3, 253200, Note_on_c, 1, 62, 117
3, 253916, Note_off_c, 1, 62, 64
3, 253920, Note_on_c, 1, 67, 117
3, 254156, Note_off_c, 1, 67, 64
3, 256080, Note_on_c, 1, 73, 125
3, 256316, Note_off_c, 1, 73, 64
3, 256320, Note_on_c, 1, 76, 124
3, 256556, Note_off_c, 1, 76, 64
3, 256560, Note_on_c, 1, 69, 126
3, 257036, Note_off_c, 1, 69, 64
3, 257040, Note_on_c, 1, 67, 123
3, 257516, Note_off_c, 1, 67, 64
3, 257520, Note_on_c, 1, 66, 117
3, 257756, Note_off_c, 1, 66, 64
3, 257760, Note_on_c, 1, 69, 115
3, 257996, Note_off_c, 1, 69, 64
3, 258000, Note_on_c, 1, 62, 115
3, 258236, Note_off_c, 1, 62, 64
3, 258240, Note_on_c, 1, 64, 115
3, 258476, Note_off_c, 1, 64, 64
3, 258480, Note_on_c, 1, 67, 115
3, 258716, Note_off_c, 1, 67, 64
3, 258720, Note_on_c, 1, 61, 119
3, 258956, Note_off_c, 1, 61, 64
3, 258960, Note_on_c, 1, 69, 113
3, 259196, Note_off_c, 1, 69, 64
3, 259200, Note_on_c, 1, 67, 115
3, 259556, Note_off_c, 1, 67, 64
3, 259560, Note_on_c, 1, 64, 111
3, 259676, Note_off_c, 1, 64, 64
3, 259680, Note_on_c, 1, 66, 117
3, 260156, Note_off_c, 1, 66, 64
3, 261120, Note_on_c, 1, 62, 113
3, 261356, Note_off_c, 1, 62, 64
3, 261360, Note_on_c, 1, 66, 110
3, 261596, Note_off_c, 1, 66, 64
3, 261600, Note_on_c, 1, 59, 117
3, 261836, Note_off_c, 1, 59, 64
3, 261840, Note_on_c, 1, 67, 119
3, 262076, Note_off_c, 1, 67, 64
3, 262080, Note_on_c, 1, 72, 121
3, 262316, Note_off_c, 1, 72, 64
3, 262320, Note_on_c, 1, 71, 106
3, 262436, Note_off_c, 1, 71, 64
3, 262440, Note_on_c, 1, 67, 107
3, 262556, Note_off_c, 1, 67, 64
3, 262560, Note_on_c, 1, 69, 104
3, 262796, Note_off_c, 1, 69, 64
3, 264000, Note_on_c, 1, 60, 117
3, 264236, Note_off_c, 1, 60, 64
3, 264240, Note_on_c, 1, 64, 119
3, 264476, Note_off_c, 1, 64, 64
3, 264480, Note_on_c, 1, 57, 115
3, 264716, Note_off_c, 1, 57, 64
3, 264720, Note_on_c, 1, 62, 121
3, 265436, Note_off_c, 1, 62, 64
3, 265440, Note_on_c, 1, 67, 117
3, 265676, Note_off_c, 1, 67, 64
3, 267600, Note_on_c, 1, 73, 125
3, 267836, Note_off_c, 1, 73, 64
3, 267840, Note_on_c, 1, 76, 123
3, 268076, Note_off_c, 1, 76, 64
3, 268080, Note_on_c, 1, 69, 117
3, 268556, Note_off_c, 1, 69, 64
3, 268560, Note_on_c, 1, 67, 121
3, 269036, Note_off_c, 1, 67, 64
3, 269040, Note_on_c, 1, 66, 125
3, 269276, Note_off_c, 1, 66, 64
3, 269280, Note_on_c, 1, 69, 113
3, 269516, Note_off_c, 1, 69, 64
3, 269520, Note_on_c, 1, 62, 113
3, 269756, Note_off_c, 1, 62, 64
3, 269760, Note_on_c, 1, 64, 107
3, 269996, Note_off_c, 1, 64, 64
3, 270000, Note_on_c, 1, 67, 113
3, 270236, Note_off_c, 1, 67, 64
3, 270240, Note_on_c, 1, 61, 121
3, 270476, Note_off_c, 1, 61, 64
3, 270480, Note_on_c, 1, 69, 113
3, 270716, Note_off_c, 1, 69, 64
3, 270720, Note_on_c, 1, 67, 117
3, 271076, Note_off_c, 1, 67, 64
3, 271080, Note_on_c, 1, 64, 113
3, 271196, Note_off_c, 1, 64, 64
3, 271200, Note_on_c, 1, 66, 115
3, 271436, Note_off_c, 1, 66, 64
3, 272640, Note_on_c, 1, 74, 107
3, 272876, Note_off_c, 1, 74, 64
3, 272880, Note_on_c, 1, 71, 115
3, 273116, Note_off_c, 1, 71, 64
3, 273120, Note_on_c, 1, 67, 115
3, 273356, Note_off_c, 1, 67, 64
3, 273360, Note_on_c, 1, 69, 104
3, 273596, Note_off_c, 1, 69, 64
3, 273600, Note_on_c, 1, 72, 117
3, 273836, Note_off_c, 1, 72, 64
3, 273840, Note_on_c, 1, 66, 119
3, 274316, Note_off_c, 1, 66, 64
3, 274800, Note_on_c, 1, 71, 113
3, 275036, Note_off_c, 1, 71, 64
3, 275040, Note_on_c, 1, 67, 111
3, 275276, Note_off_c, 1, 67, 64
3, 275280, Note_on_c, 1, 64, 117
3, 275516, Note_off_c, 1, 64, 64
3, 275520, Note_on_c, 1, 66, 115
3, 275756, Note_off_c, 1, 66, 64
3, 275760, Note_on_c, 1, 67, 111
3, 275996, Note_off_c, 1, 67, 64
3, 276000, Note_on_c, 1, 66, 121
3, 276716, Note_off_c, 1, 66, 64
3, 276720, Note_on_c, 1, 64, 115
3, 277436, Note_off_c, 1, 64, 64
3, 277680, Note_on_c, 1, 69, 95
3, 277916, Note_off_c, 1, 69, 64
3, 277920, Note_on_c, 1, 72, 96
3, 278156, Note_off_c, 1, 72, 64
3, 278160, Note_on_c, 1, 66, 93
3, 278396, Note_off_c, 1, 66, 64
3, 278400, Note_on_c, 1, 67, 100
3, 278636, Note_off_c, 1, 67, 64
3, 278640, Note_on_c, 1, 71, 107
3, 278876, Note_off_c, 1, 71, 64
3, 278880, Note_on_c, 1, 64, 113
3, 279116, Note_off_c, 1, 64, 64
3, 279120, Note_on_c, 1, 69, 109
3, 279836, Note_off_c, 1, 69, 64
3, 279840, Note_on_c, 1, 66, 104
3, 280076, Note_off_c, 1, 66, 64
3, 280080, Note_on_c, 1, 69, 107
3, 280556, Note_off_c, 1, 69, 64
3, 280560, Note_on_c, 1, 67, 107
3, 280796, Note_off_c, 1, 67, 64
3, 280800, Note_on_c, 1, 71, 109
3, 281036, Note_off_c, 1, 71, 64
3, 281040, Note_on_c, 1, 64, 123
3, 281756, Note_off_c, 1, 64, 64
3, 281760, Note_on_c, 1, 57, 107
3, 281996, Note_off_c, 1, 57, 64
3, 282000, Note_on_c, 1, 62, 111
3, 282236, Note_off_c, 1, 62, 64
3, 282240, Note_on_c, 1, 60, 113
3, 282596, Note_off_c, 1, 60, 64
3, 282600, Note_on_c, 1, 57, 107
3, 282716, Note_off_c, 1, 57, 64
3, 282720, Note_on_c, 1, 59, 109
3, 282956, Note_off_c, 1, 59, 64
3, 284160, Note_on_c, 1, 74, 104
3, 284396, Note_off_c, 1, 74, 64
3, 284400, Note_on_c, 1, 71, 106
3, 284636, Note_off_c, 1, 71, 64
3, 284640, Note_on_c, 1, 67, 102
3, 284876, Note_off_c, 1, 67, 64
3, 284880, Note_on_c, 1, 69, 97
3, 285116, Note_off_c, 1, 69, 64
3, 285120, Note_on_c, 1, 72, 107
3, 285356, Note_off_c, 1, 72, 64
3, 285360, Note_on_c, 1, 66, 119
3, 285836, Note_off_c, 1, 66, 64
3, 286320, Note_on_c, 1, 71, 101
3, 286556, Note_off_c, 1, 71, 64
3, 286560, Note_on_c, 1, 67, 119
3, 286796, Note_off_c, 1, 67, 64
3, 286800, Note_on_c, 1, 64, 109
3, 287036, Note_off_c, 1, 64, 64
3, 287040, Note_on_c, 1, 66, 112
3, 287276, Note_off_c, 1, 66, 64
3, 287280, Note_on_c, 1, 67, 104
3, 287516, Note_off_c, 1, 67, 64
3, 287520, Note_on_c, 1, 66, 119
3, 288236, Note_off_c, 1, 66, 64
3, 288240, Note_on_c, 1, 64, 127
3, 288956, Note_off_c, 1, 64, 64
3, 289200, Note_on_c, 1, 69, 101
3, 289436, Note_off_c, 1, 69, 64
3, 289440, Note_on_c, 1, 72, 104
3, 289676, Note_off_c, 1, 72, 64
3, 289680, Note_on_c, 1, 66, 104
3, 289916, Note_off_c, 1, 66, 64
3, 289920, Note_on_c, 1, 67, 101
3, 290156, Note_off_c, 1, 67, 64
3, 290160, Note_on_c, 1, 71, 107
3, 290396, Note_off_c, 1, 71, 64
3, 290400, Note_on_c, 1, 64, 106
3, 290636, Note_off_c, 1, 64, 64
3, 290640, Note_on_c, 1, 69, 107
3, 291356, Note_off_c, 1, 69, 64
3, 291360, Note_on_c, 1, 66, 110
3, 291596, Note_off_c, 1, 66, 64
3, 291600, Note_on_c, 1, 69, 102
3, 292076, Note_off_c, 1, 69, 64
3, 292080, Note_on_c, 1, 67, 115
3, 292316, Note_off_c, 1, 67, 64
3, 292320, Note_on_c, 1, 71, 119
3, 292556, Note_off_c, 1, 71, 64
3, 292560, Note_on_c, 1, 64, 123
3, 293276, Note_off_c, 1, 64, 64
3, 293280, Note_on_c, 1, 57, 107
3, 293516, Note_off_c, 1, 57, 64
3, 293520, Note_on_c, 1, 62, 111
3, 293756, Note_off_c, 1, 62, 64
3, 293760, Note_on_c, 1, 60, 117
3, 294116, Note_off_c, 1, 60, 64
3, 294120, Note_on_c, 1, 57, 96
3, 294236, Note_off_c, 1, 57, 64
3, 294240, Note_on_c, 1, 59, 117
3, 294476, Note_off_c, 1, 59, 64
3, 365280, Note_on_c, 1, 79, 117
3, 366236, Note_off_c, 1, 79, 64
3, 366240, Note_on_c, 1, 78, 119
3, 366356, Note_off_c, 1, 78, 64
3, 366360, Note_on_c, 1, 76, 106
3, 366476, Note_off_c, 1, 76, 64
3, 366480, Note_on_c, 1, 74, 106
3, 366596, Note_off_c, 1, 74, 64
3, 366600, Note_on_c, 1, 72, 102
3, 366716, Note_off_c, 1, 72, 64
3, 366720, Note_on_c, 1, 71, 115
3, 367676, Note_off_c, 1, 71, 64
3, 367680, Note_on_c, 1, 69, 107
3, 367796, Note_off_c, 1, 69, 64
3, 367800, Note_on_c, 1, 67, 102
3, 367916, Note_off_c, 1, 67, 64
3, 367920, Note_on_c, 1, 66, 119
3, 368036, Note_off_c, 1, 66, 64
3, 368040, Note_on_c, 1, 64, 119
3, 368156, Note_off_c, 1, 64, 64
3, 368160, Note_on_c, 1, 62, 117
3, 369116, Note_off_c, 1, 62, 64
3, 369120, Note_on_c, 1, 60, 115
3, 369236, Note_off_c, 1, 60, 64
3, 369240, Note_on_c, 1, 59, 104
3, 369356, Note_off_c, 1, 59, 64
3, 369360, Note_on_c, 1, 57, 96
3, 369476, Note_off_c, 1, 57, 64
3, 369480, Note_on_c, 1, 55, 95
3, 369596, Note_off_c, 1, 55, 64
3, 369600, Note_on_c, 1, 57, 111
3, 370436, Note_off_c, 1, 57, 64
3, 370440, Note_on_c, 1, 55, 88
3, 370556, Note_off_c, 1, 55, 64
3, 370560, Note_on_c, 1, 59, 104
3, 370676, Note_off_c, 1, 59, 64
3, 370680, Note_on_c, 1, 57, 96
3, 370796, Note_off_c, 1, 57, 64
3, 370800, Note_on_c, 1, 55, 98
3, 370916, Note_off_c, 1, 55, 64
3, 370920, Note_on_c, 1, 54, 106
3, 371036, Note_off_c, 1, 54, 64
3, 371040, Note_on_c, 1, 55, 104
3, 371276, Note_off_c, 1, 55, 64
3, 371280, Note_on_c, 1, 67, 123
3, 371996, Note_off_c, 1, 67, 64
3, 372000, Note_on_c, 1, 66, 110
3, 372116, Note_off_c, 1, 66, 64
3, 372120, Note_on_c, 1, 64, 106
3, 372236, Note_off_c, 1, 64, 64
3, 372240, Note_on_c, 1, 62, 98
3, 372356, Note_off_c, 1, 62, 64
3, 372360, Note_on_c, 1, 60, 102
3, 372476, Note_off_c, 1, 60, 64
3, 372480, Note_on_c, 1, 59, 106
3, 372596, Note_off_c, 1, 59, 64
3, 372600, Note_on_c, 1, 62, 101
3, 372716, Note_off_c, 1, 62, 64
3, 372720, Note_on_c, 1, 67, 71
3, 372836, Note_off_c, 1, 67, 64
3, 372840, Note_on_c, 1, 69, 98
3, 372956, Note_off_c, 1, 69, 64
3, 372960, Note_on_c, 1, 70, 123
3, 373436, Note_off_c, 1, 70, 64
3, 373440, Note_on_c, 1, 69, 100
3, 373556, Note_off_c, 1, 69, 64
3, 373560, Note_on_c, 1, 67, 97
3, 373676, Note_off_c, 1, 67, 64
3, 373680, Note_on_c, 1, 66, 104
3, 373796, Note_off_c, 1, 66, 64
3, 373800, Note_on_c, 1, 64, 101
3, 373916, Note_off_c, 1, 64, 64
3, 373920, Note_on_c, 1, 62, 107
3, 374756, Note_off_c, 1, 62, 64
3, 374760, Note_on_c, 1, 61, 110
3, 374876, Note_off_c, 1, 61, 64
3, 374880, Note_on_c, 1, 59, 90
3, 374996, Note_off_c, 1, 59, 64
3, 375000, Note_on_c, 1, 62, 109
3, 375116, Note_off_c, 1, 62, 64
3, 375120, Note_on_c, 1, 61, 115
3, 375236, Note_off_c, 1, 61, 64
3, 375240, Note_on_c, 1, 59, 102
3, 375356, Note_off_c, 1, 59, 64
3, 375360, Note_on_c, 1, 61, 119
3, 375476, Note_off_c, 1, 61, 64
3, 375480, Note_on_c, 1, 59, 111
3, 375596, Note_off_c, 1, 59, 64
3, 375600, Note_on_c, 1, 57, 104
3, 375716, Note_off_c, 1, 57, 64
3, 375720, Note_on_c, 1, 55, 97
3, 375836, Note_off_c, 1, 55, 64
3, 375840, Note_on_c, 1, 54, 110
3, 375956, Note_off_c, 1, 54, 64
3, 375960, Note_on_c, 1, 52, 97
3, 376076, Note_off_c, 1, 52, 64
3, 376080, Note_on_c, 1, 54, 123
3, 376320, Note_off_c, 1, 54, 64
3, 376800, Note_on_c, 1, 79, 102
3, 377760, Note_off_c, 1, 79, 64
3, 377760, Note_on_c, 1, 78, 119
3, 377876, Note_off_c, 1, 78, 64
3, 377880, Note_on_c, 1, 76, 106
3, 377996, Note_off_c, 1, 76, 64
3, 378000, Note_on_c, 1, 74, 106
3, 378116, Note_off_c, 1, 74, 64
3, 378120, Note_on_c, 1, 72, 102
3, 378236, Note_off_c, 1, 72, 64
3, 378240, Note_on_c, 1, 71, 115
3, 379196, Note_off_c, 1, 71, 64
3, 379200, Note_on_c, 1, 69, 107
3, 379316, Note_off_c, 1, 69, 64
3, 379320, Note_on_c, 1, 67, 102
3, 379436, Note_off_c, 1, 67, 64
3, 379440, Note_on_c, 1, 66, 119
3, 379556, Note_off_c, 1, 66, 64
3, 379560, Note_on_c, 1, 64, 119
3, 379676, Note_off_c, 1, 64, 64
3, 379680, Note_on_c, 1, 62, 117
3, 380636, Note_off_c, 1, 62, 64
3, 380640, Note_on_c, 1, 60, 115
3, 380756, Note_off_c, 1, 60, 64
3, 380760, Note_on_c, 1, 59, 104
3, 380876, Note_off_c, 1, 59, 64
3, 380880, Note_on_c, 1, 57, 96
3, 380996, Note_off_c, 1, 57, 64
3, 381000, Note_on_c, 1, 55, 95
3, 381116, Note_off_c, 1, 55, 64
3, 381120, Note_on_c, 1, 57, 111
3, 381956, Note_off_c, 1, 57, 64
3, 381960, Note_on_c, 1, 55, 88
3, 382076, Note_off_c, 1, 55, 64
3, 382080, Note_on_c, 1, 59, 104
3, 382196, Note_off_c, 1, 59, 64
3, 382200, Note_on_c, 1, 57, 96
3, 382316, Note_off_c, 1, 57, 64
3, 382320, Note_on_c, 1, 55, 98
3, 382436, Note_off_c, 1, 55, 64
3, 382440, Note_on_c, 1, 54, 106
3, 382556, Note_off_c, 1, 54, 64
3, 382560, Note_on_c, 1, 55, 104
3, 382796, Note_off_c, 1, 55, 64
3, 382800, Note_on_c, 1, 67, 123
3, 383516, Note_off_c, 1, 67, 64
3, 383520, Note_on_c, 1, 66, 110
3, 383636, Note_off_c, 1, 66, 64
3, 383640, Note_on_c, 1, 64, 106
3, 383756, Note_off_c, 1, 64, 64
3, 383760, Note_on_c, 1, 62, 98
3, 383876, Note_off_c, 1, 62, 64
3, 383880, Note_on_c, 1, 60, 102
3, 383996, Note_off_c, 1, 60, 64
3, 384000, Note_on_c, 1, 59, 106
3, 384116, Note_off_c, 1, 59, 64
3, 384120, Note_on_c, 1, 62, 101
3, 384236, Note_off_c, 1, 62, 64
3, 384240, Note_on_c, 1, 67, 71
3, 384356, Note_off_c, 1, 67, 64
3, 384360, Note_on_c, 1, 69, 98
3, 384476, Note_off_c, 1, 69, 64
3, 384480, Note_on_c, 1, 70, 123
3, 384956, Note_off_c, 1, 70, 64
3, 384960, Note_on_c, 1, 69, 100
3, 385076, Note_off_c, 1, 69, 64
3, 385080, Note_on_c, 1, 67, 97
3, 385196, Note_off_c, 1, 67, 64
3, 385200, Note_on_c, 1, 66, 104
3, 385316, Note_off_c, 1, 66, 64
3, 385320, Note_on_c, 1, 64, 101
3, 385436, Note_off_c, 1, 64, 64
3, 385440, Note_on_c, 1, 62, 107
3, 386276, Note_off_c, 1, 62, 64
3, 386280, Note_on_c, 1, 61, 110
3, 386396, Note_off_c, 1, 61, 64
3, 386400, Note_on_c, 1, 59, 90
3, 386516, Note_off_c, 1, 59, 64
3, 386520, Note_on_c, 1, 62, 109
3, 386636, Note_off_c, 1, 62, 64
3, 386640, Note_on_c, 1, 61, 115
3, 386756, Note_off_c, 1, 61, 64
3, 386760, Note_on_c, 1, 59, 102
3, 386876, Note_off_c, 1, 59, 64
3, 386880, Note_on_c, 1, 61, 119
3, 386996, Note_off_c, 1, 61, 64
3, 387000, Note_on_c, 1, 59, 111
3, 387116, Note_off_c, 1, 59, 64
3, 387120, Note_on_c, 1, 57, 104
3, 387236, Note_off_c, 1, 57, 64
3, 387240, Note_on_c, 1, 55, 97
3, 387356, Note_off_c, 1, 55, 64
3, 387360, Note_on_c, 1, 54, 110
3, 387476, Note_off_c, 1, 54, 64
3, 387480, Note_on_c, 1, 52, 97
3, 387596, Note_off_c, 1, 52, 64
3, 387600, Note_on_c, 1, 54, 123
3, 388320, Note_off_c, 1, 54, 64
3, 388320, Note_on_c, 1, 81, 123
3, 389280, Note_off_c, 1, 81, 64
3, 389280, Note_on_c, 1, 79, 95
3, 389396, Note_off_c, 1, 79, 64
3, 389400, Note_on_c, 1, 78, 90
3, 389516, Note_off_c, 1, 78, 64
3, 389520, Note_on_c, 1, 76, 86
3, 389636, Note_off_c, 1, 76, 64
3, 389640, Note_on_c, 1, 74, 82
3, 389756, Note_off_c, 1, 74, 64
3, 389760, Note_on_c, 1, 73, 106
3, 389996, Note_off_c, 1, 73, 64
3, 390000, Note_on_c, 1, 72, 115
3, 390716, Note_off_c, 1, 72, 64
3, 390720, Note_on_c, 1, 71, 98
3, 390836, Note_off_c, 1, 71, 64
3, 390840, Note_on_c, 1, 69, 81
3, 390956, Note_off_c, 1, 69, 64
3, 390960, Note_on_c, 1, 68, 93
3, 391076, Note_off_c, 1, 68, 64
3, 391080, Note_on_c, 1, 66, 99
3, 391196, Note_off_c, 1, 66, 64
3, 391200, Note_on_c, 1, 64, 104
3, 392036, Note_off_c, 1, 64, 64
3, 392040, Note_on_c, 1, 63, 67
3, 392156, Note_off_c, 1, 63, 64
3, 392160, Note_on_c, 1, 61, 108
3, 392276, Note_off_c, 1, 61, 64
3, 392280, Note_on_c, 1, 64, 117
3, 392396, Note_off_c, 1, 64, 64
3, 392400, Note_on_c, 1, 63, 110
3, 392516, Note_off_c, 1, 63, 64
3, 392520, Note_on_c, 1, 61, 99
3, 392636, Note_off_c, 1, 61, 64
3, 392640, Note_on_c, 1, 63, 108
3, 392756, Note_off_c, 1, 63, 64
3, 392760, Note_on_c, 1, 61, 102
3, 392876, Note_off_c, 1, 61, 64
3, 392880, Note_on_c, 1, 59, 74
3, 392996, Note_off_c, 1, 59, 64
3, 393000, Note_on_c, 1, 57, 97
3, 393116, Note_off_c, 1, 57, 64
3, 393120, Note_on_c, 1, 55, 96
3, 393236, Note_off_c, 1, 55, 64
3, 393240, Note_on_c, 1, 54, 102
3, 393356, Note_off_c, 1, 54, 64
3, 393360, Note_on_c, 1, 55, 100
3, 393600, Note_off_c, 1, 55, 64
3, 394080, Note_on_c, 1, 60, 115
3, 394916, Note_off_c, 1, 60, 64
3, 394920, Note_on_c, 1, 57, 95
3, 395036, Note_off_c, 1, 57, 64
3, 395040, Note_on_c, 1, 59, 106
3, 395156, Note_off_c, 1, 59, 64
3, 395160, Note_on_c, 1, 55, 96
3, 395276, Note_off_c, 1, 55, 64
3, 395280, Note_on_c, 1, 59, 106
3, 395396, Note_off_c, 1, 59, 64
3, 395400, Note_on_c, 1, 62, 104
3, 395516, Note_off_c, 1, 62, 64
3, 395520, Note_on_c, 1, 64, 111
3, 396356, Note_off_c, 1, 64, 64
3, 396360, Note_on_c, 1, 61, 101
3, 396476, Note_off_c, 1, 61, 64
3, 396480, Note_on_c, 1, 62, 106
3, 396596, Note_off_c, 1, 62, 64
3, 396600, Note_on_c, 1, 59, 100
3, 396716, Note_off_c, 1, 59, 64
3, 396720, Note_on_c, 1, 62, 102
3, 396836, Note_off_c, 1, 62, 64
3, 396840, Note_on_c, 1, 66, 99
3, 396956, Note_off_c, 1, 66, 64
3, 396960, Note_on_c, 1, 67, 111
3, 397796, Note_off_c, 1, 67, 64
3, 397800, Note_on_c, 1, 66, 112
3, 397916, Note_off_c, 1, 66, 64
3, 397920, Note_on_c, 1, 64, 102
3, 398036, Note_off_c, 1, 64, 64
3, 398040, Note_on_c, 1, 67, 102
3, 398156, Note_off_c, 1, 67, 64
3, 398160, Note_on_c, 1, 66, 110
3, 398276, Note_off_c, 1, 66, 64
3, 398280, Note_on_c, 1, 64, 98
3, 398396, Note_off_c, 1, 64, 64
3, 398400, Note_on_c, 1, 66, 104
3, 398516, Note_off_c, 1, 66, 64
3, 398520, Note_on_c, 1, 64, 102
3, 398636, Note_off_c, 1, 64, 64
3, 398640, Note_on_c, 1, 62, 100
3, 398756, Note_off_c, 1, 62, 64
3, 398760, Note_on_c, 1, 60, 106
3, 398876, Note_off_c, 1, 60, 64
3, 398880, Note_on_c, 1, 59, 101
3, 398996, Note_off_c, 1, 59, 64
3, 399000, Note_on_c, 1, 57, 98
3, 399116, Note_off_c, 1, 57, 64
3, 399120, Note_on_c, 1, 55, 106
3, 399360, Note_off_c, 1, 55, 64
3, 399840, Note_on_c, 1, 81, 106
3, 400800, Note_off_c, 1, 81, 64
3, 400800, Note_on_c, 1, 79, 95
3, 400916, Note_off_c, 1, 79, 64
3, 400920, Note_on_c, 1, 78, 90
3, 401036, Note_off_c, 1, 78, 64
3, 401040, Note_on_c, 1, 76, 86
3, 401156, Note_off_c, 1, 76, 64
3, 401160, Note_on_c, 1, 74, 82
3, 401276, Note_off_c, 1, 74, 64
3, 401280, Note_on_c, 1, 73, 106
3, 401516, Note_off_c, 1, 73, 64
3, 401520, Note_on_c, 1, 72, 115
3, 402236, Note_off_c, 1, 72, 64
3, 402240, Note_on_c, 1, 71, 98
3, 402356, Note_off_c, 1, 71, 64
3, 402360, Note_on_c, 1, 69, 81
3, 402476, Note_off_c, 1, 69, 64
3, 402480, Note_on_c, 1, 68, 93
3, 402596, Note_off_c, 1, 68, 64
3, 402600, Note_on_c, 1, 66, 99
3, 402716, Note_off_c, 1, 66, 64
3, 402720, Note_on_c, 1, 64, 104
3, 403556, Note_off_c, 1, 64, 64
3, 403560, Note_on_c, 1, 63, 67
3, 403676, Note_off_c, 1, 63, 64
3, 403680, Note_on_c, 1, 61, 108
3, 403796, Note_off_c, 1, 61, 64
3, 403800, Note_on_c, 1, 64, 117
3, 403916, Note_off_c, 1, 64, 64
3, 403920, Note_on_c, 1, 63, 110
3, 404036, Note_off_c, 1, 63, 64
3, 404040, Note_on_c, 1, 61, 99
3, 404156, Note_off_c, 1, 61, 64
3, 404160, Note_on_c, 1, 63, 108
3, 404276, Note_off_c, 1, 63, 64
3, 404280, Note_on_c, 1, 61, 102
3, 404396, Note_off_c, 1, 61, 64
3, 404400, Note_on_c, 1, 59, 74
3, 404516, Note_off_c, 1, 59, 64
3, 404520, Note_on_c, 1, 57, 97
3, 404636, Note_off_c, 1, 57, 64
3, 404640, Note_on_c, 1, 55, 96
3, 404756, Note_off_c, 1, 55, 64
3, 404760, Note_on_c, 1, 54, 102
3, 404876, Note_off_c, 1, 54, 64
3, 404880, Note_on_c, 1, 55, 100
3, 405120, Note_off_c, 1, 55, 64
3, 405600, Note_on_c, 1, 60, 115
3, 406436, Note_off_c, 1, 60, 64
3, 406440, Note_on_c, 1, 57, 95
3, 406556, Note_off_c, 1, 57, 64
3, 406560, Note_on_c, 1, 59, 106
3, 406676, Note_off_c, 1, 59, 64
3, 406680, Note_on_c, 1, 55, 96
3, 406796, Note_off_c, 1, 55, 64
3, 406800, Note_on_c, 1, 59, 106
3, 406916, Note_off_c, 1, 59, 64
3, 406920, Note_on_c, 1, 62, 104
3, 407036, Note_off_c, 1, 62, 64
3, 407040, Note_on_c, 1, 64, 111
3, 407876, Note_off_c, 1, 64, 64
3, 407880, Note_on_c, 1, 61, 101
3, 407996, Note_off_c, 1, 61, 64
3, 408000, Note_on_c, 1, 62, 106
3, 408116, Note_off_c, 1, 62, 64
3, 408120, Note_on_c, 1, 59, 100
3, 408236, Note_off_c, 1, 59, 64
3, 408240, Note_on_c, 1, 62, 102
3, 408356, Note_off_c, 1, 62, 64
3, 408360, Note_on_c, 1, 66, 99
3, 408476, Note_off_c, 1, 66, 64
3, 408480, Note_on_c, 1, 67, 111
3, 409316, Note_off_c, 1, 67, 64
3, 409320, Note_on_c, 1, 66, 112
3, 409436, Note_off_c, 1, 66, 64
3, 409440, Note_on_c, 1, 64, 102
3, 409556, Note_off_c, 1, 64, 64
3, 409560, Note_on_c, 1, 67, 102
3, 409676, Note_off_c, 1, 67, 64
3, 409680, Note_on_c, 1, 66, 110
3, 409796, Note_off_c, 1, 66, 64
3, 409800, Note_on_c, 1, 64, 98
3, 409916, Note_off_c, 1, 64, 64
3, 409920, Note_on_c, 1, 66, 104
3, 410036, Note_off_c, 1, 66, 64
3, 410040, Note_on_c, 1, 64, 102
3, 410156, Note_off_c, 1, 64, 64
3, 410160, Note_on_c, 1, 62, 100
3, 410276, Note_off_c, 1, 62, 64
3, 410280, Note_on_c, 1, 60, 106
3, 410396, Note_off_c, 1, 60, 64
3, 410400, Note_on_c, 1, 59, 101
3, 410516, Note_off_c, 1, 59, 64
3, 410520, Note_on_c, 1, 57, 98
3, 410636, Note_off_c, 1, 57, 64
3, 410640, Note_on_c, 1, 59, 106
3, 411360, Note_off_c, 1, 59, 64
3, 507600, Note_on_c, 1, 67, 102
3, 507836, Note_off_c, 1, 67, 64
3, 507840, Note_on_c, 1, 66, 102
3, 508076, Note_off_c, 1, 66, 64
3, 508080, Note_on_c, 1, 67, 85
3, 508316, Note_off_c, 1, 67, 64
3, 508320, Note_on_c, 1, 69, 93
3, 508556, Note_off_c, 1, 69, 64
3, 508560, Note_on_c, 1, 71, 97
3, 508796, Note_off_c, 1, 71, 64
3, 508800, Note_on_c, 1, 66, 97
3, 509036, Note_off_c, 1, 66, 64
3, 509040, Note_on_c, 1, 71, 96
3, 509276, Note_off_c, 1, 71, 64
3, 509280, Note_on_c, 1, 69, 90
3, 509516, Note_off_c, 1, 69, 64
3, 509520, Note_on_c, 1, 67, 89
3, 509756, Note_off_c, 1, 67, 64
3, 509760, Note_on_c, 1, 71, 100
3, 509996, Note_off_c, 1, 71, 64
3, 510000, Note_on_c, 1, 76, 100
3, 510716, Note_off_c, 1, 76, 64
3, 510720, Note_on_c, 1, 78, 96
3, 510836, Note_off_c, 1, 78, 64
3, 510840, Note_on_c, 1, 76, 97
3, 510956, Note_off_c, 1, 76, 64
3, 510960, Note_on_c, 1, 74, 95
3, 511436, Note_off_c, 1, 74, 64
3, 511440, Note_on_c, 1, 76, 98
3, 511676, Note_off_c, 1, 76, 64
3, 511680, Note_on_c, 1, 74, 91
3, 511916, Note_off_c, 1, 74, 64
3, 511920, Note_on_c, 1, 76, 98
3, 512156, Note_off_c, 1, 76, 64
3, 512160, Note_on_c, 1, 78, 86
3, 512396, Note_off_c, 1, 78, 64
3, 512400, Note_on_c, 1, 79, 93
3, 512636, Note_off_c, 1, 79, 64
3, 512640, Note_on_c, 1, 74, 85
3, 512876, Note_off_c, 1, 74, 64
3, 512880, Note_on_c, 1, 79, 96
3, 513116, Note_off_c, 1, 79, 64
3, 513120, Note_on_c, 1, 78, 97
3, 513356, Note_off_c, 1, 78, 64
3, 513360, Note_on_c, 1, 76, 96
3, 513596, Note_off_c, 1, 76, 64
3, 513600, Note_on_c, 1, 78, 86
3, 513716, Note_off_c, 1, 78, 64
3, 513720, Note_on_c, 1, 79, 104
3, 513836, Note_off_c, 1, 79, 64
3, 513840, Note_on_c, 1, 81, 100
3, 514556, Note_off_c, 1, 81, 64
3, 514560, Note_on_c, 1, 79, 97
3, 514676, Note_off_c, 1, 79, 64
3, 514680, Note_on_c, 1, 78, 97
3, 514796, Note_off_c, 1, 78, 64
3, 514800, Note_on_c, 1, 79, 86
3, 515036, Note_off_c, 1, 79, 64
3, 515040, Note_on_c, 1, 67, 78
3, 515276, Note_off_c, 1, 67, 64
3, 515280, Note_on_c, 1, 69, 84
3, 515516, Note_off_c, 1, 69, 64
3, 515520, Note_on_c, 1, 67, 82
3, 515756, Note_off_c, 1, 67, 64
3, 515760, Note_on_c, 1, 69, 91
3, 515996, Note_off_c, 1, 69, 64
3, 516000, Note_on_c, 1, 71, 95
3, 516236, Note_off_c, 1, 71, 64
3, 516240, Note_on_c, 1, 72, 96
3, 516476, Note_off_c, 1, 72, 64
3, 516480, Note_on_c, 1, 67, 91
3, 516716, Note_off_c, 1, 67, 64
3, 516720, Note_on_c, 1, 72, 104
3, 516956, Note_off_c, 1, 72, 64
3, 516960, Note_on_c, 1, 71, 101
3, 517196, Note_off_c, 1, 71, 64
3, 517200, Note_on_c, 1, 69, 93
3, 517436, Note_off_c, 1, 69, 64
3, 517440, Note_on_c, 1, 71, 96
3, 517556, Note_off_c, 1, 71, 64
3, 517560, Note_on_c, 1, 73, 102
3, 517676, Note_off_c, 1, 73, 64
3, 517680, Note_on_c, 1, 74, 102
3, 518396, Note_off_c, 1, 74, 64
3, 518400, Note_on_c, 1, 73, 117
3, 518516, Note_off_c, 1, 73, 64
3, 518520, Note_on_c, 1, 71, 97
3, 518636, Note_off_c, 1, 71, 64
3, 518640, Note_on_c, 1, 73, 94
3, 518756, Note_off_c, 1, 73, 64
3, 518760, Note_on_c, 1, 74, 102
3, 518876, Note_off_c, 1, 74, 64
3, 518880, Note_on_c, 1, 76, 109
3, 519356, Note_off_c, 1, 76, 64
3, 519360, Note_on_c, 1, 74, 98
3, 519836, Note_off_c, 1, 74, 64
3, 519840, Note_on_c, 1, 73, 90
3, 520076, Note_off_c, 1, 73, 64
3, 520080, Note_on_c, 1, 74, 78
3, 521040, Note_off_c, 1, 74, 64
3, 522960, Note_on_c, 1, 67, 77
3, 523196, Note_off_c, 1, 67, 64
3, 523200, Note_on_c, 1, 66, 74
3, 523436, Note_off_c, 1, 66, 64
3, 523440, Note_on_c, 1, 67, 73
3, 523676, Note_off_c, 1, 67, 64
3, 523680, Note_on_c, 1, 69, 70
3, 523916, Note_off_c, 1, 69, 64
3, 523920, Note_on_c, 1, 71, 81
3, 524156, Note_off_c, 1, 71, 64
3, 524160, Note_on_c, 1, 66, 82
3, 524396, Note_off_c, 1, 66, 64
3, 524400, Note_on_c, 1, 71, 80
3, 524636, Note_off_c, 1, 71, 64
3, 524640, Note_on_c, 1, 69, 72
3, 524876, Note_off_c, 1, 69, 64
3, 524880, Note_on_c, 1, 67, 67
3, 525116, Note_off_c, 1, 67, 64
3, 525120, Note_on_c, 1, 71, 85
3, 525356, Note_off_c, 1, 71, 64
3, 525360, Note_on_c, 1, 76, 90
3, 526076, Note_off_c, 1, 76, 64
3, 526080, Note_on_c, 1, 78, 89
3, 526196, Note_off_c, 1, 78, 64
3, 526200, Note_on_c, 1, 76, 90
3, 526316, Note_off_c, 1, 76, 64
3, 526320, Note_on_c, 1, 74, 78
3, 526796, Note_off_c, 1, 74, 64
3, 526800, Note_on_c, 1, 76, 81
3, 527036, Note_off_c, 1, 76, 64
3, 527040, Note_on_c, 1, 74, 66
3, 527276, Note_off_c, 1, 74, 64
3, 527280, Note_on_c, 1, 76, 81
3, 527516, Note_off_c, 1, 76, 64
3, 527520, Note_on_c, 1, 78, 72
3, 527756, Note_off_c, 1, 78, 64
3, 527760, Note_on_c, 1, 79, 83
3, 527996, Note_off_c, 1, 79, 64
3, 528000, Note_on_c, 1, 74, 75
3, 528236, Note_off_c, 1, 74, 64
3, 528240, Note_on_c, 1, 79, 91
3, 528476, Note_off_c, 1, 79, 64
3, 528480, Note_on_c, 1, 78, 92
3, 528716, Note_off_c, 1, 78, 64
3, 528720, Note_on_c, 1, 76, 80
3, 528956, Note_off_c, 1, 76, 64
3, 528960, Note_on_c, 1, 78, 75
3, 529076, Note_off_c, 1, 78, 64
3, 529080, Note_on_c, 1, 79, 90
3, 529196, Note_off_c, 1, 79, 64
3, 529200, Note_on_c, 1, 81, 95
3, 529916, Note_off_c, 1, 81, 64
3, 529920, Note_on_c, 1, 79, 80
3, 530036, Note_off_c, 1, 79, 64
3, 530040, Note_on_c, 1, 78, 74
3, 530156, Note_off_c, 1, 78, 64
3, 530160, Note_on_c, 1, 79, 81
3, 530396, Note_off_c, 1, 79, 64
3, 530400, Note_on_c, 1, 67, 84
3, 530636, Note_off_c, 1, 67, 64
3, 530640, Note_on_c, 1, 69, 73
3, 530876, Note_off_c, 1, 69, 64
3, 530880, Note_on_c, 1, 67, 70
3, 531116, Note_off_c, 1, 67, 64
3, 531120, Note_on_c, 1, 69, 75
3, 531356, Note_off_c, 1, 69, 64
3, 531360, Note_on_c, 1, 71, 80
3, 531596, Note_off_c, 1, 71, 64
3, 531600, Note_on_c, 1, 72, 85
3, 531836, Note_off_c, 1, 72, 64
3, 531840, Note_on_c, 1, 67, 81
3, 532076, Note_off_c, 1, 67, 64
3, 532080, Note_on_c, 1, 72, 88
3, 532316, Note_off_c, 1, 72, 64
3, 532320, Note_on_c, 1, 71, 86
3, 532556, Note_off_c, 1, 71, 64
3, 532560, Note_on_c, 1, 69, 78
3, 532796, Note_off_c, 1, 69, 64
3, 532800, Note_on_c, 1, 71, 83
3, 532916, Note_off_c, 1, 71, 64
3, 532920, Note_on_c, 1, 73, 93
3, 533036, Note_off_c, 1, 73, 64
3, 533040, Note_on_c, 1, 74, 90
3, 533756, Note_off_c, 1, 74, 64
3, 533760, Note_on_c, 1, 73, 102
3, 533876, Note_off_c, 1, 73, 64
3, 533880, Note_on_c, 1, 71, 91
3, 533996, Note_off_c, 1, 71, 64
3, 534000, Note_on_c, 1, 73, 88
3, 534116, Note_off_c, 1, 73, 64
3, 534120, Note_on_c, 1, 74, 92
3, 534236, Note_off_c, 1, 74, 64
3, 534240, Note_on_c, 1, 76, 86
3, 534716, Note_off_c, 1, 76, 64
3, 534720, Note_on_c, 1, 74, 93
3, 535196, Note_off_c, 1, 74, 64
3, 535200, Note_on_c, 1, 73, 70
3, 535436, Note_off_c, 1, 73, 64
3, 535440, Note_on_c, 1, 74, 73
3, 536400, Note_off_c, 1, 74, 64
3, 538320, Note_on_c, 1, 74, 98
3, 538556, Note_off_c, 1, 74, 64
3, 538560, Note_on_c, 1, 71, 91
3, 538796, Note_off_c, 1, 71, 64
3, 538800, Note_on_c, 1, 73, 99
3, 539036, Note_off_c, 1, 73, 64
3, 539040, Note_on_c, 1, 75, 90
3, 539276, Note_off_c, 1, 75, 64
3, 539280, Note_on_c, 1, 76, 97
3, 539516, Note_off_c, 1, 76, 64
3, 539520, Note_on_c, 1, 71, 86
3, 539756, Note_off_c, 1, 71, 64
3, 539760, Note_on_c, 1, 76, 95
3, 539996, Note_off_c, 1, 76, 64
3, 540000, Note_on_c, 1, 78, 82
3, 540236, Note_off_c, 1, 78, 64
3, 540240, Note_on_c, 1, 79, 97
3, 540476, Note_off_c, 1, 79, 64
3, 540480, Note_on_c, 1, 73, 104
3, 540716, Note_off_c, 1, 73, 64
3, 540720, Note_on_c, 1, 77, 96
3, 541436, Note_off_c, 1, 77, 64
3, 541440, Note_on_c, 1, 76, 85
3, 541560, Note_off_c, 1, 76, 64
3, 541560, Note_on_c, 1, 75, 85
3, 541680, Note_off_c, 1, 75, 64
3, 541680, Note_on_c, 1, 76, 85
3, 541920, Note_off_c, 1, 76, 64
3, 542400, Note_on_c, 1, 72, 85
3, 542880, Note_off_c, 1, 72, 64
3, 542880, Note_on_c, 1, 71, 85
3, 543000, Note_off_c, 1, 71, 64
3, 543000, Note_on_c, 1, 69, 85
3, 543120, Note_off_c, 1, 69, 64
3, 543120, Note_on_c, 1, 67, 100
3, 543236, Note_off_c, 1, 67, 64
3, 543240, Note_on_c, 1, 66, 95
3, 543356, Note_off_c, 1, 66, 64
3, 543360, Note_on_c, 1, 64, 80
3, 543476, Note_off_c, 1, 64, 64
3, 543480, Note_on_c, 1, 63, 73
3, 543600, Note_off_c, 1, 63, 64
3, 543600, Note_on_c, 1, 64, 73
3, 543720, Note_off_c, 1, 64, 64
3, 543720, Note_on_c, 1, 66, 61
3, 543836, Note_off_c, 1, 66, 64
3, 543840, Note_on_c, 1, 67, 92
3, 543956, Note_off_c, 1, 67, 64
3, 543960, Note_on_c, 1, 64, 92
3, 544076, Note_off_c, 1, 64, 64
3, 544080, Note_on_c, 1, 62, 83
3, 544200, Note_off_c, 1, 62, 64
3, 544200, Note_on_c, 1, 60, 67
3, 544440, Note_off_c, 1, 60, 64
3, 544440, Note_on_c, 1, 62, 71
3, 544556, Note_off_c, 1, 62, 64
3, 544560, Note_on_c, 1, 59, 82
3, 544620, Note_off_c, 1, 59, 64
3, 544620, Note_on_c, 1, 60, 82
3, 544680, Note_off_c, 1, 60, 64
3, 544680, Note_on_c, 1, 59, 82
3, 545040, Note_off_c, 1, 59, 64
3, 545040, Note_on_c, 1, 60, 74
3, 545280, Note_off_c, 1, 60, 64
3, 545520, Note_on_c, 1, 67, 74
3, 546240, Note_off_c, 1, 67, 64
3, 546240, Note_on_c, 1, 66, 119
3, 546716, Note_off_c, 1, 66, 64
3, 546720, Note_on_c, 1, 64, 102
3, 546956, Note_off_c, 1, 64, 64
3, 546960, Note_on_c, 1, 66, 94
3, 547196, Note_off_c, 1, 66, 64
3, 547200, Note_on_c, 1, 69, 89
3, 547316, Note_off_c, 1, 69, 64
3, 547320, Note_on_c, 1, 67, 89
3, 547436, Note_off_c, 1, 67, 64
3, 547440, Note_on_c, 1, 69, 81
3, 547556, Note_off_c, 1, 69, 64
3, 547560, Note_on_c, 1, 72, 96
3, 547676, Note_off_c, 1, 72, 64
3, 547680, Note_on_c, 1, 71, 78
3, 547796, Note_off_c, 1, 71, 64
3, 547800, Note_on_c, 1, 69, 82
3, 547916, Note_off_c, 1, 69, 64
3, 547920, Note_on_c, 1, 67, 97
3, 548396, Note_off_c, 1, 67, 64
3, 548400, Note_on_c, 1, 69, 106
3, 548876, Note_off_c, 1, 69, 64
3, 548880, Note_on_c, 1, 71, 109
3, 550076, Note_off_c, 1, 71, 64
3, 550080, Note_on_c, 1, 76, 96
3, 550316, Note_off_c, 1, 76, 64
3, 550320, Note_on_c, 1, 74, 91
3, 550556, Note_off_c, 1, 74, 64
3, 550560, Note_on_c, 1, 72, 96
3, 550796, Note_off_c, 1, 72, 64
3, 550800, Note_on_c, 1, 71, 80
3, 551760, Note_off_c, 1, 71, 64
3, 574800, Note_on_c, 1, 69, 124
3, 575760, Note_off_c, 1, 69, 64
3, 575760, Note_on_c, 1, 71, 115
3, 575820, Note_off_c, 1, 71, 64
3, 575820, Note_on_c, 1, 69, 104
3, 575880, Note_off_c, 1, 69, 64
3, 575880, Note_on_c, 1, 71, 104
3, 575940, Note_off_c, 1, 71, 64
3, 575940, Note_on_c, 1, 69, 104
3, 576000, Note_off_c, 1, 69, 64
3, 576000, Note_on_c, 1, 71, 95
3, 576060, Note_off_c, 1, 71, 64
3, 576060, Note_on_c, 1, 69, 95
3, 576120, Note_off_c, 1, 69, 64
3, 576120, Note_on_c, 1, 71, 95
3, 576180, Note_off_c, 1, 71, 64
3, 576180, Note_on_c, 1, 69, 93
3, 576240, Note_off_c, 1, 69, 64
3, 576240, Note_on_c, 1, 71, 88
3, 576300, Note_off_c, 1, 71, 64
3, 576300, Note_on_c, 1, 69, 88
3, 576360, Note_off_c, 1, 69, 64
3, 576360, Note_on_c, 1, 71, 88
3, 576420, Note_off_c, 1, 71, 64
3, 576420, Note_on_c, 1, 69, 101
3, 576480, Note_off_c, 1, 69, 64
3, 576480, Note_on_c, 1, 67, 93
3, 576600, Note_off_c, 1, 67, 64
3, 576600, Note_on_c, 1, 69, 93
3, 576720, Note_off_c, 1, 69, 64
3, 576720, Note_on_c, 1, 71, 101
3, 577200, Note_off_c, 1, 71, 64
3, 577200, Note_on_c, 1, 67, 97
3, 577680, Note_off_c, 1, 67, 64
3, 577704, Note_on_c, 1, 64, 91
3, 578160, Note_on_c, 1, 67, 95
3, 578164, Note_off_c, 1, 64, 64
3, 578640, Note_off_c, 1, 67, 64
3, 578640, Note_on_c, 1, 64, 100
3, 579120, Note_off_c, 1, 64, 64
3, 579120, Note_on_c, 1, 69, 98
3, 579600, Note_off_c, 1, 69, 64
3, 579600, Note_on_c, 1, 57, 93
3, 580080, Note_off_c, 1, 57, 64
3, 580080, Note_on_c, 1, 67, 102
3, 580560, Note_off_c, 1, 67, 64
3, 580560, Note_on_c, 1, 66, 89
3, 580620, Note_off_c, 1, 66, 64
3, 580620, Note_on_c, 1, 67, 102
3, 580680, Note_off_c, 1, 67, 64
3, 580680, Note_on_c, 1, 66, 106
3, 581040, Note_off_c, 1, 66, 64
3, 581040, Note_on_c, 1, 64, 96
3, 581264, Note_on_c, 1, 66, 101
3, 581280, Note_off_c, 1, 64, 64
3, 581520, Note_on_c, 1, 62, 89
3, 581532, Note_off_c, 1, 66, 64
3, 582480, Note_off_c, 1, 62, 64
3, 605520, Note_on_c, 1, 69, 115
3, 606480, Note_off_c, 1, 69, 64
3, 606480, Note_on_c, 1, 71, 109
3, 606540, Note_off_c, 1, 71, 64
3, 606540, Note_on_c, 1, 69, 98
3, 606600, Note_off_c, 1, 69, 64
3, 606600, Note_on_c, 1, 71, 98
3, 606660, Note_off_c, 1, 71, 64
3, 606660, Note_on_c, 1, 69, 98
3, 606720, Note_off_c, 1, 69, 64
3, 606720, Note_on_c, 1, 71, 95
3, 606780, Note_off_c, 1, 71, 64
3, 606780, Note_on_c, 1, 69, 85
3, 606840, Note_off_c, 1, 69, 64
3, 606840, Note_on_c, 1, 71, 85
3, 606900, Note_off_c, 1, 71, 64
3, 606900, Note_on_c, 1, 69, 85
3, 606960, Note_off_c, 1, 69, 64
3, 606960, Note_on_c, 1, 71, 90
3, 607020, Note_off_c, 1, 71, 64
3, 607020, Note_on_c, 1, 69, 90
3, 607080, Note_off_c, 1, 69, 64
3, 607080, Note_on_c, 1, 71, 77
3, 607140, Note_off_c, 1, 71, 64
3, 607140, Note_on_c, 1, 69, 77
3, 607200, Note_off_c, 1, 69, 64
3, 607200, Note_on_c, 1, 67, 77
3, 607320, Note_off_c, 1, 67, 64
3, 607320, Note_on_c, 1, 69, 84
3, 607440, Note_off_c, 1, 69, 64
3, 607440, Note_on_c, 1, 71, 90
3, 607920, Note_off_c, 1, 71, 64
3, 607924, Note_on_c, 1, 67, 84
3, 608400, Note_on_c, 1, 64, 81
3, 608424, Note_off_c, 1, 67, 64
3, 608880, Note_off_c, 1, 64, 64
3, 608880, Note_on_c, 1, 67, 92
3, 609360, Note_off_c, 1, 67, 64
3, 609360, Note_on_c, 1, 64, 90
3, 609840, Note_off_c, 1, 64, 64
3, 609844, Note_on_c, 1, 69, 88
3, 610320, Note_on_c, 1, 57, 93
3, 610344, Note_off_c, 1, 69, 64
3, 610800, Note_off_c, 1, 57, 64
3, 610800, Note_on_c, 1, 67, 95
3, 611280, Note_off_c, 1, 67, 64
3, 611280, Note_on_c, 1, 66, 86
3, 611340, Note_off_c, 1, 66, 64
3, 611340, Note_on_c, 1, 67, 101
3, 611400, Note_off_c, 1, 67, 64
3, 611400, Note_on_c, 1, 66, 92
3, 611760, Note_off_c, 1, 66, 64
3, 611760, Note_on_c, 1, 64, 89
3, 611996, Note_on_c, 1, 66, 94
3, 612000, Note_off_c, 1, 64, 64
3, 612224, Note_off_c, 1, 66, 64
3, 612240, Note_on_c, 1, 62, 93
3, 613200, Note_off_c, 1, 62, 64
3, 620880, Note_on_c, 1, 71, 104
3, 621840, Note_off_c, 1, 71, 64
3, 621840, Note_on_c, 1, 72, 113
3, 621900, Note_off_c, 1, 72, 64
3, 621900, Note_on_c, 1, 71, 93
3, 621960, Note_off_c, 1, 71, 64
3, 621960, Note_on_c, 1, 72, 93
3, 622020, Note_off_c, 1, 72, 64
3, 622020, Note_on_c, 1, 71, 93
3, 622080, Note_off_c, 1, 71, 64
3, 622080, Note_on_c, 1, 72, 93
3, 622140, Note_off_c, 1, 72, 64
3, 622140, Note_on_c, 1, 71, 93
3, 622200, Note_off_c, 1, 71, 64
3, 622200, Note_on_c, 1, 72, 93
3, 622260, Note_off_c, 1, 72, 64
3, 622260, Note_on_c, 1, 71, 93
3, 622320, Note_off_c, 1, 71, 64
3, 622320, Note_on_c, 1, 72, 93
3, 622380, Note_off_c, 1, 72, 64
3, 622380, Note_on_c, 1, 71, 88
3, 622440, Note_off_c, 1, 71, 64
3, 622440, Note_on_c, 1, 72, 88
3, 622500, Note_off_c, 1, 72, 64
3, 622500, Note_on_c, 1, 71, 81
3, 622560, Note_off_c, 1, 71, 64
3, 622560, Note_on_c, 1, 69, 81
3, 622680, Note_off_c, 1, 69, 64
3, 622680, Note_on_c, 1, 71, 97
3, 622800, Note_off_c, 1, 71, 64
3, 622824, Note_on_c, 1, 72, 104
3, 623280, Note_on_c, 1, 69, 78
3, 623284, Note_off_c, 1, 72, 64
3, 623760, Note_off_c, 1, 69, 64
3, 623760, Note_on_c, 1, 66, 101
3, 624240, Note_off_c, 1, 66, 64
3, 624240, Note_on_c, 1, 69, 102
3, 624720, Note_off_c, 1, 69, 64
3, 624720, Note_on_c, 1, 66, 108
3, 625200, Note_off_c, 1, 66, 64
3, 625200, Note_on_c, 1, 71, 106
3, 625680, Note_off_c, 1, 71, 64
3, 625680, Note_on_c, 1, 59, 83
3, 626160, Note_off_c, 1, 59, 64
3, 626160, Note_on_c, 1, 69, 89
3, 626640, Note_off_c, 1, 69, 64
3, 626640, Note_on_c, 1, 67, 90
3, 626700, Note_off_c, 1, 67, 64
3, 626700, Note_on_c, 1, 69, 100
3, 626760, Note_off_c, 1, 69, 64
3, 626760, Note_on_c, 1, 67, 92
3, 627120, Note_off_c, 1, 67, 64
3, 627120, Note_on_c, 1, 66, 86
3, 627344, Note_on_c, 1, 67, 85
3, 627360, Note_off_c, 1, 66, 64
3, 627600, Note_off_c, 1, 67, 64
3, 627600, Note_on_c, 1, 64, 88
3, 629040, Note_off_c, 1, 64, 64
3, 629544, Note_on_c, 1, 69, 115
3, 630940, Note_off_c, 1, 69, 64
3, 630960, Note_on_c, 1, 74, 101
3, 631440, Note_off_c, 1, 74, 64
3, 631452, Note_on_c, 1, 71, 97
3, 631920, Note_on_c, 1, 67, 97
3, 631936, Note_off_c, 1, 71, 64
3, 632880, Note_off_c, 1, 67, 64
3, 632880, Note_on_c, 1, 72, 107
3, 633120, Note_off_c, 1, 72, 64
3, 633120, Note_on_c, 1, 71, 101
3, 633360, Note_off_c, 1, 71, 64
3, 633360, Note_on_c, 1, 72, 107
3, 635280, Note_off_c, 1, 72, 64
3, 635764, Note_on_c, 1, 72, 115
3, 636224, Note_off_c, 1, 72, 64
3, 636240, Note_on_c, 1, 71, 115
3, 637200, Note_off_c, 1, 71, 64
3, 637680, Note_on_c, 1, 67, 117
3, 638160, Note_off_c, 1, 67, 64
3, 638160, Note_on_c, 1, 64, 117
3, 639600, Note_off_c, 1, 64, 64
3, 639600, Note_on_c, 1, 69, 117
3, 639840, Note_off_c, 1, 69, 64
3, 639840, Note_on_c, 1, 67, 117
3, 640080, Note_off_c, 1, 67, 64
3, 640080, Note_on_c, 1, 66, 99
3, 640560, Note_off_c, 1, 66, 64
3, 640560, Note_on_c, 1, 67, 109
3, 641520, Note_off_c, 1, 67, 64
3, 641520, Note_on_c, 1, 66, 104
3, 642000, Note_off_c, 1, 66, 64
3, 642000, Note_on_c, 1, 67, 104
3, 642240, Note_off_c, 1, 67, 64
3, 642240, Note_on_c, 1, 62, 95
3, 642480, Note_off_c, 1, 62, 64
3, 642480, Note_on_c, 1, 60, 96
3, 642720, Note_off_c, 1, 60, 64
3, 642720, Note_on_c, 1, 62, 90
3, 642960, Note_off_c, 1, 62, 64
3, 642960, Note_on_c, 1, 59, 86
3, 643920, Note_off_c, 1, 59, 64
3, 651600, Note_on_c, 1, 71, 119
3, 652560, Note_off_c, 1, 71, 64
3, 652560, Note_on_c, 1, 72, 106
3, 652620, Note_off_c, 1, 72, 64
3, 652620, Note_on_c, 1, 71, 96
3, 652680, Note_off_c, 1, 71, 64
3, 652680, Note_on_c, 1, 72, 96
3, 652740, Note_off_c, 1, 72, 64
3, 652740, Note_on_c, 1, 71, 96
3, 652800, Note_off_c, 1, 71, 64
3, 652800, Note_on_c, 1, 72, 98
3, 652860, Note_off_c, 1, 72, 64
3, 652860, Note_on_c, 1, 71, 98
3, 652920, Note_off_c, 1, 71, 64
3, 652920, Note_on_c, 1, 72, 93
3, 652980, Note_off_c, 1, 72, 64
3, 652980, Note_on_c, 1, 71, 93
3, 653040, Note_off_c, 1, 71, 64
3, 653040, Note_on_c, 1, 72, 81
3, 653100, Note_off_c, 1, 72, 64
3, 653100, Note_on_c, 1, 71, 81
3, 653160, Note_off_c, 1, 71, 64
3, 653160, Note_on_c, 1, 72, 81
3, 653220, Note_off_c, 1, 72, 64
3, 653220, Note_on_c, 1, 71, 81
3, 653280, Note_off_c, 1, 71, 64
3, 653280, Note_on_c, 1, 69, 69
3, 653400, Note_off_c, 1, 69, 64
3, 653400, Note_on_c, 1, 71, 93
3, 653520, Note_off_c, 1, 71, 64
3, 653520, Note_on_c, 1, 72, 104
3, 654000, Note_off_c, 1, 72, 64
3, 654000, Note_on_c, 1, 69, 90
3, 654480, Note_off_c, 1, 69, 64
3, 654480, Note_on_c, 1, 66, 110
3, 654960, Note_off_c, 1, 66, 64
3, 654960, Note_on_c, 1, 69, 97
3, 655440, Note_off_c, 1, 69, 64
3, 655440, Note_on_c, 1, 66, 108
3, 655920, Note_off_c, 1, 66, 64
3, 655920, Note_on_c, 1, 71, 104
3, 656400, Note_off_c, 1, 71, 64
3, 656400, Note_on_c, 1, 59, 95
3, 656880, Note_off_c, 1, 59, 64
3, 656880, Note_on_c, 1, 69, 95
3, 657360, Note_off_c, 1, 69, 64
3, 657360, Note_on_c, 1, 67, 66
3, 657420, Note_off_c, 1, 67, 64
3, 657420, Note_on_c, 1, 69, 75
3, 657480, Note_off_c, 1, 69, 64
3, 657480, Note_on_c, 1, 67, 60
3, 657840, Note_off_c, 1, 67, 64
3, 657840, Note_on_c, 1, 66, 102
3, 658080, Note_off_c, 1, 66, 64
3, 658080, Note_on_c, 1, 67, 72
3, 658320, Note_off_c, 1, 67, 64
3, 658320, Note_on_c, 1, 64, 98
3, 659760, Note_off_c, 1, 64, 64
3, 660240, Note_on_c, 1, 69, 115
3, 661680, Note_off_c, 1, 69, 64
3, 661680, Note_on_c, 1, 74, 101
3, 662160, Note_off_c, 1, 74, 64
3, 662160, Note_on_c, 1, 71, 90
3, 662640, Note_off_c, 1, 71, 64
3, 662640, Note_on_c, 1, 67, 95
3, 663600, Note_off_c, 1, 67, 64
3, 663600, Note_on_c, 1, 72, 95
3, 663840, Note_off_c, 1, 72, 64
3, 663840, Note_on_c, 1, 71, 95
3, 664080, Note_off_c, 1, 71, 64
3, 664080, Note_on_c, 1, 72, 95
3, 666000, Note_off_c, 1, 72, 64
3, 666480, Note_on_c, 1, 72, 107
3, 666960, Note_off_c, 1, 72, 64
3, 666960, Note_on_c, 1, 71, 101
3, 667920, Note_off_c, 1, 71, 64
3, 668400, Note_on_c, 1, 67, 97
3, 668880, Note_off_c, 1, 67, 64
3, 668880, Note_on_c, 1, 64, 104
3, 670320, Note_off_c, 1, 64, 64
3, 670320, Note_on_c, 1, 69, 106
3, 670560, Note_off_c, 1, 69, 64
3, 670560, Note_on_c, 1, 67, 95
3, 670800, Note_off_c, 1, 67, 64
3, 670800, Note_on_c, 1, 66, 110
3, 671280, Note_off_c, 1, 66, 64
3, 671280, Note_on_c, 1, 67, 111
3, 672240, Note_off_c, 1, 67, 64
3, 672240, Note_on_c, 1, 66, 102
3, 672720, Note_off_c, 1, 66, 64
3, 672732, Note_on_c, 1, 67, 106
3, 672960, Note_off_c, 1, 67, 64
3, 672960, Note_on_c, 1, 62, 92
3, 673192, Note_off_c, 1, 62, 64
3, 673192, Note_on_c, 1, 60, 89
3, 673440, Note_on_c, 1, 62, 96
3, 673460, Note_off_c, 1, 60, 64
3, 673680, Note_on_c, 1, 59, 86
3, 673696, Note_off_c, 1, 62, 64
3, 674640, Note_off_c, 1, 59, 64
3, 1000680, Note_on_c, 1, 67, 91
3, 1000796, Note_off_c, 1, 67, 64
3, 1000800, Note_on_c, 1, 67, 96
3, 1000916, Note_off_c, 1, 67, 64
3, 1000920, Note_on_c, 1, 65, 90
3, 1000976, Note_off_c, 1, 65, 64
3, 1001040, Note_on_c, 1, 65, 92
3, 1001156, Note_off_c, 1, 65, 64
3, 1001160, Note_on_c, 1, 63, 94
3, 1001216, Note_off_c, 1, 63, 64
3, 1001280, Note_on_c, 1, 63, 99
3, 1001396, Note_off_c, 1, 63, 64
3, 1001400, Note_on_c, 1, 62, 91
3, 1001456, Note_off_c, 1, 62, 64
3, 1001520, Note_on_c, 1, 62, 97
3, 1002116, Note_off_c, 1, 62, 64
3, 1002120, Note_on_c, 1, 60, 93
3, 1002236, Note_off_c, 1, 60, 64
3, 1002240, Note_on_c, 1, 58, 104
3, 1002356, Note_off_c, 1, 58, 64
3, 1002360, Note_on_c, 1, 57, 100
3, 1002476, Note_off_c, 1, 57, 64
3, 1002480, Note_on_c, 1, 55, 95
3, 1002596, Note_off_c, 1, 55, 64
3, 1002600, Note_on_c, 1, 61, 112
3, 1002716, Note_off_c, 1, 61, 64
3, 1002720, Note_on_c, 1, 61, 110
3, 1002776, Note_off_c, 1, 61, 64
3, 1002780, Note_on_c, 1, 62, 101
3, 1002836, Note_off_c, 1, 62, 64
3, 1002840, Note_on_c, 1, 61, 117
3, 1002956, Note_off_c, 1, 61, 64
3, 1002960, Note_on_c, 1, 67, 117
3, 1003680, Note_off_c, 1, 67, 64
3, 1003680, Note_on_c, 1, 66, 112
3, 1003800, Note_off_c, 1, 66, 64
3, 1003800, Note_on_c, 1, 64, 92
3, 1003920, Note_off_c, 1, 64, 64
3, 1003920, Note_on_c, 1, 66, 108
3, 1004036, Note_off_c, 1, 66, 64
3, 1004040, Note_on_c, 1, 67, 98
3, 1004156, Note_off_c, 1, 67, 64
3, 1004160, Note_on_c, 1, 67, 95
3, 1004276, Note_off_c, 1, 67, 64
3, 1004280, Note_on_c, 1, 69, 97
3, 1004400, Note_off_c, 1, 69, 64
3, 1004400, Note_on_c, 1, 70, 90
3, 1004640, Note_off_c, 1, 70, 64
3, 1005120, Note_on_c, 1, 69, 101
3, 1005360, Note_off_c, 1, 69, 64
3, 1005360, Note_on_c, 1, 62, 102
3, 1005416, Note_off_c, 1, 62, 64
3, 1005420, Note_on_c, 1, 60, 80
3, 1005476, Note_off_c, 1, 60, 64
3, 1005480, Note_on_c, 1, 63, 112
3, 1005596, Note_off_c, 1, 63, 64
3, 1005600, Note_on_c, 1, 62, 101
3, 1005716, Note_off_c, 1, 62, 64
3, 1005720, Note_on_c, 1, 60, 95
3, 1005836, Note_off_c, 1, 60, 64
3, 1005840, Note_on_c, 1, 58, 110
3, 1005956, Note_off_c, 1, 58, 64
3, 1005960, Note_on_c, 1, 57, 106
3, 1006076, Note_off_c, 1, 57, 64
3, 1006080, Note_on_c, 1, 55, 93
3, 1006196, Note_off_c, 1, 55, 64
3, 1006200, Note_on_c, 1, 57, 102
3, 1006316, Note_off_c, 1, 57, 64
3, 1006320, Note_on_c, 1, 58, 110
3, 1006436, Note_off_c, 1, 58, 64
3, 1006440, Note_on_c, 1, 62, 107
3, 1006556, Note_off_c, 1, 62, 64
3, 1006560, Note_on_c, 1, 67, 117
3, 1007040, Note_off_c, 1, 67, 64
3, 1007040, Note_on_c, 1, 66, 84
3, 1007096, Note_off_c, 1, 66, 64
3, 1007100, Note_on_c, 1, 67, 107
3, 1007156, Note_off_c, 1, 67, 64
3, 1007160, Note_on_c, 1, 66, 90
3, 1007280, Note_off_c, 1, 66, 64
3, 1007280, Note_on_c, 1, 67, 109
3, 1007520, Note_off_c, 1, 67, 64
3, 1007880, Note_on_c, 1, 66, 101
3, 1007996, Note_off_c, 1, 66, 64
3, 1008000, Note_on_c, 1, 67, 97
3, 1008116, Note_off_c, 1, 67, 64
3, 1008120, Note_on_c, 1, 69, 89
3, 1008236, Note_off_c, 1, 69, 64
3, 1008240, Note_on_c, 1, 70, 93
3, 1008356, Note_off_c, 1, 70, 64
3, 1008360, Note_on_c, 1, 69, 84
3, 1008416, Note_off_c, 1, 69, 64
3, 1008480, Note_on_c, 1, 69, 97
3, 1008596, Note_off_c, 1, 69, 64
3, 1008600, Note_on_c, 1, 67, 96
3, 1008656, Note_off_c, 1, 67, 64
3, 1008720, Note_on_c, 1, 67, 100
3, 1008836, Note_off_c, 1, 67, 64
3, 1008840, Note_on_c, 1, 66, 89
3, 1008896, Note_off_c, 1, 66, 64
3, 1008960, Note_on_c, 1, 66, 99
3, 1009076, Note_off_c, 1, 66, 64
3, 1009080, Note_on_c, 1, 67, 89
3, 1009196, Note_off_c, 1, 67, 64
3, 1009200, Note_on_c, 1, 67, 107
3, 1009436, Note_off_c, 1, 67, 64
3, 1009920, Note_on_c, 1, 60, 107
3, 1010156, Note_off_c, 1, 60, 64
3, 1010160, Note_on_c, 1, 58, 112
3, 1010400, Note_off_c, 1, 58, 64
3, 1010400, Note_on_c, 1, 67, 119
3, 1010516, Note_off_c, 1, 67, 64
3, 1010520, Note_on_c, 1, 65, 119
3, 1010760, Note_off_c, 1, 65, 64
3, 1010760, Note_on_c, 1, 64, 97
3, 1011000, Note_off_c, 1, 64, 64
3, 1011000, Note_on_c, 1, 62, 102
3, 1011120, Note_off_c, 1, 62, 64
3, 1011120, Note_on_c, 1, 61, 99
3, 1011360, Note_off_c, 1, 61, 64
3, 1011360, Note_on_c, 1, 70, 86
3, 1011596, Note_off_c, 1, 70, 64
3, 1011600, Note_on_c, 1, 69, 119
3, 1011836, Note_off_c, 1, 69, 64
3, 1011840, Note_on_c, 1, 61, 115
3, 1012080, Note_off_c, 1, 61, 64
3, 1012320, Note_on_c, 1, 62, 109
3, 1012376, Note_off_c, 1, 62, 64
3, 1012380, Note_on_c, 1, 61, 110
3, 1012436, Note_off_c, 1, 61, 64
3, 1012440, Note_on_c, 1, 62, 111
3, 1012676, Note_off_c, 1, 62, 64
3, 1012680, Note_on_c, 1, 62, 113
3, 1012916, Note_off_c, 1, 62, 64
3, 1012920, Note_on_c, 1, 62, 107
3, 1013156, Note_off_c, 1, 62, 64
3, 1013160, Note_on_c, 1, 64, 107
3, 1013216, Note_off_c, 1, 64, 64
3, 1013220, Note_on_c, 1, 62, 100
3, 1013276, Note_off_c, 1, 62, 64
3, 1013280, Note_on_c, 1, 61, 121
3, 1013396, Note_off_c, 1, 61, 64
3, 1013400, Note_on_c, 1, 59, 98
3, 1013516, Note_off_c, 1, 59, 64
3, 1013520, Note_on_c, 1, 61, 104
3, 1013636, Note_off_c, 1, 61, 64
3, 1013640, Note_on_c, 1, 64, 111
3, 1013756, Note_off_c, 1, 64, 64
3, 1013760, Note_on_c, 1, 69, 109
3, 1014000, Note_off_c, 1, 69, 64
3, 1014240, Note_on_c, 1, 62, 113
3, 1014596, Note_off_c, 1, 62, 64
3, 1014600, Note_on_c, 1, 64, 119
3, 1014656, Note_off_c, 1, 64, 64
3, 1014660, Note_on_c, 1, 65, 97
3, 1014716, Note_off_c, 1, 65, 64
3, 1014720, Note_on_c, 1, 64, 111
3, 1014776, Note_off_c, 1, 64, 64
3, 1014780, Note_on_c, 1, 62, 101
3, 1014836, Note_off_c, 1, 62, 64
3, 1014840, Note_on_c, 1, 64, 107
3, 1014956, Note_off_c, 1, 64, 64
3, 1014960, Note_on_c, 1, 62, 113
3, 1015440, Note_off_c, 1, 62, 64
3, 1016040, Note_on_c, 1, 67, 91
3, 1016156, Note_off_c, 1, 67, 64
3, 1016160, Note_on_c, 1, 67, 96
3, 1016276, Note_off_c, 1, 67, 64
3, 1016280, Note_on_c, 1, 65, 90
3, 1016336, Note_off_c, 1, 65, 64
3, 1016400, Note_on_c, 1, 65, 92
3, 1016516, Note_off_c, 1, 65, 64
3, 1016520, Note_on_c, 1, 63, 94
3, 1016576, Note_off_c, 1, 63, 64
3, 1016640, Note_on_c, 1, 63, 99
3, 1016756, Note_off_c, 1, 63, 64
3, 1016760, Note_on_c, 1, 62, 91
3, 1016816, Note_off_c, 1, 62, 64
3, 1016880, Note_on_c, 1, 62, 97
3, 1017476, Note_off_c, 1, 62, 64
3, 1017480, Note_on_c, 1, 60, 93
3, 1017596, Note_off_c, 1, 60, 64
3, 1017600, Note_on_c, 1, 58, 104
3, 1017716, Note_off_c, 1, 58, 64
3, 1017720, Note_on_c, 1, 57, 100
3, 1017836, Note_off_c, 1, 57, 64
3, 1017840, Note_on_c, 1, 55, 95
3, 1017956, Note_off_c, 1, 55, 64
3, 1017960, Note_on_c, 1, 61, 112
3, 1018076, Note_off_c, 1, 61, 64
3, 1018080, Note_on_c, 1, 61, 110
3, 1018136, Note_off_c, 1, 61, 64
3, 1018140, Note_on_c, 1, 62, 101
3, 1018196, Note_off_c, 1, 62, 64
3, 1018200, Note_on_c, 1, 61, 117
3, 1018316, Note_off_c, 1, 61, 64
3, 1018320, Note_on_c, 1, 67, 117
3, 1019040, Note_off_c, 1, 67, 64
3, 1019040, Note_on_c, 1, 66, 112
3, 1019160, Note_off_c, 1, 66, 64
3, 1019160, Note_on_c, 1, 64, 92
3, 1019280, Note_off_c, 1, 64, 64
3, 1019280, Note_on_c, 1, 66, 108
3, 1019396, Note_off_c, 1, 66, 64
3, 1019400, Note_on_c, 1, 67, 98
3, 1019516, Note_off_c, 1, 67, 64
3, 1019520, Note_on_c, 1, 67, 95
3, 1019636, Note_off_c, 1, 67, 64
3, 1019640, Note_on_c, 1, 69, 97
3, 1019760, Note_off_c, 1, 69, 64
3, 1019760, Note_on_c, 1, 70, 90
3, 1020000, Note_off_c, 1, 70, 64
3, 1020480, Note_on_c, 1, 69, 101
3, 1020720, Note_off_c, 1, 69, 64
3, 1020720, Note_on_c, 1, 62, 102
3, 1020776, Note_off_c, 1, 62, 64
3, 1020780, Note_on_c, 1, 60, 80
3, 1020836, Note_off_c, 1, 60, 64
3, 1020840, Note_on_c, 1, 63, 112
3, 1020956, Note_off_c, 1, 63, 64
3, 1020960, Note_on_c, 1, 62, 101
3, 1021076, Note_off_c, 1, 62, 64
3, 1021080, Note_on_c, 1, 60, 95
3, 1021196, Note_off_c, 1, 60, 64
3, 1021200, Note_on_c, 1, 58, 110
3, 1021316, Note_off_c, 1, 58, 64
3, 1021320, Note_on_c, 1, 57, 106
3, 1021436, Note_off_c, 1, 57, 64
3, 1021440, Note_on_c, 1, 55, 93
3, 1021556, Note_off_c, 1, 55, 64
3, 1021560, Note_on_c, 1, 57, 102
3, 1021676, Note_off_c, 1, 57, 64
3, 1021680, Note_on_c, 1, 58, 110
3, 1021796, Note_off_c, 1, 58, 64
3, 1021800, Note_on_c, 1, 62, 107
3, 1021916, Note_off_c, 1, 62, 64
3, 1021920, Note_on_c, 1, 67, 117
3, 1022400, Note_off_c, 1, 67, 64
3, 1022400, Note_on_c, 1, 66, 84
3, 1022456, Note_off_c, 1, 66, 64
3, 1022460, Note_on_c, 1, 67, 107
3, 1022516, Note_off_c, 1, 67, 64
3, 1022520, Note_on_c, 1, 66, 90
3, 1022640, Note_off_c, 1, 66, 64
3, 1022640, Note_on_c, 1, 67, 109
3, 1022880, Note_off_c, 1, 67, 64
3, 1023240, Note_on_c, 1, 66, 101
3, 1023356, Note_off_c, 1, 66, 64
3, 1023360, Note_on_c, 1, 67, 97
3, 1023476, Note_off_c, 1, 67, 64
3, 1023480, Note_on_c, 1, 69, 89
3, 1023596, Note_off_c, 1, 69, 64
3, 1023600, Note_on_c, 1, 70, 93
3, 1023716, Note_off_c, 1, 70, 64
3, 1023720, Note_on_c, 1, 69, 84
3, 1023776, Note_off_c, 1, 69, 64
3, 1023840, Note_on_c, 1, 69, 97
3, 1023956, Note_off_c, 1, 69, 64
3, 1023960, Note_on_c, 1, 67, 96
3, 1024016, Note_off_c, 1, 67, 64
3, 1024080, Note_on_c, 1, 67, 100
3, 1024196, Note_off_c, 1, 67, 64
3, 1024200, Note_on_c, 1, 66, 89
3, 1024256, Note_off_c, 1, 66, 64
3, 1024320, Note_on_c, 1, 66, 99
3, 1024436, Note_off_c, 1, 66, 64
3, 1024440, Note_on_c, 1, 67, 89
3, 1024556, Note_off_c, 1, 67, 64
3, 1024560, Note_on_c, 1, 67, 107
3, 1024796, Note_off_c, 1, 67, 64
3, 1025280, Note_on_c, 1, 60, 107
3, 1025516, Note_off_c, 1, 60, 64
3, 1025520, Note_on_c, 1, 58, 112
3, 1025760, Note_off_c, 1, 58, 64
3, 1025760, Note_on_c, 1, 67, 119
3, 1025876, Note_off_c, 1, 67, 64
3, 1025880, Note_on_c, 1, 65, 119
3, 1026120, Note_off_c, 1, 65, 64
3, 1026120, Note_on_c, 1, 64, 97
3, 1026360, Note_off_c, 1, 64, 64
3, 1026360, Note_on_c, 1, 62, 102
3, 1026480, Note_off_c, 1, 62, 64
3, 1026480, Note_on_c, 1, 61, 99
3, 1026720, Note_off_c, 1, 61, 64
3, 1026720, Note_on_c, 1, 70, 86
3, 1026956, Note_off_c, 1, 70, 64
3, 1026960, Note_on_c, 1, 69, 119
3, 1027196, Note_off_c, 1, 69, 64
3, 1027200, Note_on_c, 1, 61, 115
3, 1027440, Note_off_c, 1, 61, 64
3, 1027680, Note_on_c, 1, 62, 109
3, 1027736, Note_off_c, 1, 62, 64
3, 1027740, Note_on_c, 1, 61, 110
3, 1027796, Note_off_c, 1, 61, 64
3, 1027800, Note_on_c, 1, 62, 111
3, 1028036, Note_off_c, 1, 62, 64
3, 1028040, Note_on_c, 1, 62, 113
3, 1028276, Note_off_c, 1, 62, 64
3, 1028280, Note_on_c, 1, 62, 107
3, 1028516, Note_off_c, 1, 62, 64
3, 1028520, Note_on_c, 1, 64, 107
3, 1028576, Note_off_c, 1, 64, 64
3, 1028580, Note_on_c, 1, 62, 100
3, 1028636, Note_off_c, 1, 62, 64
3, 1028640, Note_on_c, 1, 61, 121
3, 1028756, Note_off_c, 1, 61, 64
3, 1028760, Note_on_c, 1, 59, 98
3, 1028876, Note_off_c, 1, 59, 64
3, 1028880, Note_on_c, 1, 61, 104
3, 1028996, Note_off_c, 1, 61, 64
3, 1029000, Note_on_c, 1, 64, 111
3, 1029116, Note_off_c, 1, 64, 64
3, 1029120, Note_on_c, 1, 69, 109
3, 1029360, Note_off_c, 1, 69, 64
3, 1029600, Note_on_c, 1, 62, 113
3, 1029956, Note_off_c, 1, 62, 64
3, 1029960, Note_on_c, 1, 64, 119
3, 1030016, Note_off_c, 1, 64, 64
3, 1030020, Note_on_c, 1, 65, 97
3, 1030076, Note_off_c, 1, 65, 64
3, 1030080, Note_on_c, 1, 64, 111
3, 1030136, Note_off_c, 1, 64, 64
3, 1030140, Note_on_c, 1, 62, 101
3, 1030196, Note_off_c, 1, 62, 64
3, 1030200, Note_on_c, 1, 64, 107
3, 1030316, Note_off_c, 1, 64, 64
3, 1030320, Note_on_c, 1, 62, 113
3, 1030800, Note_off_c, 1, 62, 64
3, 1031520, Note_on_c, 1, 66, 92
3, 1031756, Note_off_c, 1, 66, 64
3, 1031760, Note_on_c, 1, 67, 88
3, 1031996, Note_off_c, 1, 67, 64
3, 1032000, Note_on_c, 1, 69, 74
3, 1032236, Note_off_c, 1, 69, 64
3, 1032240, Note_on_c, 1, 62, 77
3, 1032356, Note_off_c, 1, 62, 64
3, 1032360, Note_on_c, 1, 74, 96
3, 1032596, Note_off_c, 1, 74, 64
3, 1032600, Note_on_c, 1, 72, 97
3, 1032836, Note_off_c, 1, 72, 64
3, 1032840, Note_on_c, 1, 70, 86
3, 1033076, Note_off_c, 1, 70, 64
3, 1033080, Note_on_c, 1, 69, 88
3, 1033196, Note_off_c, 1, 69, 64
3, 1033200, Note_on_c, 1, 70, 82
3, 1033436, Note_off_c, 1, 70, 64
3, 1033440, Note_on_c, 1, 63, 93
3, 1033676, Note_off_c, 1, 63, 64
3, 1033680, Note_on_c, 1, 62, 84
3, 1033916, Note_off_c, 1, 62, 64
3, 1033920, Note_on_c, 1, 67, 95
3, 1034156, Note_off_c, 1, 67, 64
3, 1034160, Note_on_c, 1, 65, 83
3, 1034276, Note_off_c, 1, 65, 64
3, 1034280, Note_on_c, 1, 67, 95
3, 1034396, Note_off_c, 1, 67, 64
3, 1034400, Note_on_c, 1, 68, 94
3, 1034756, Note_off_c, 1, 68, 64
3, 1034760, Note_on_c, 1, 70, 104
3, 1034996, Note_off_c, 1, 70, 64
3, 1035000, Note_on_c, 1, 68, 85
3, 1035116, Note_off_c, 1, 68, 64
3, 1035120, Note_on_c, 1, 67, 91
3, 1035236, Note_off_c, 1, 67, 64
3, 1035240, Note_on_c, 1, 70, 93
3, 1035356, Note_off_c, 1, 70, 64
3, 1035360, Note_on_c, 1, 75, 92
3, 1035476, Note_off_c, 1, 75, 64
3, 1035480, Note_on_c, 1, 79, 102
3, 1035596, Note_off_c, 1, 79, 64
3, 1035600, Note_on_c, 1, 77, 98
3, 1035720, Note_off_c, 1, 77, 64
3, 1035720, Note_on_c, 1, 75, 85
3, 1035836, Note_off_c, 1, 75, 64
3, 1035840, Note_on_c, 1, 74, 101
3, 1035956, Note_off_c, 1, 74, 64
3, 1035960, Note_on_c, 1, 72, 100
3, 1036076, Note_off_c, 1, 72, 64
3, 1036080, Note_on_c, 1, 70, 97
3, 1037156, Note_off_c, 1, 70, 64
3, 1037160, Note_on_c, 1, 68, 110
3, 1037216, Note_off_c, 1, 68, 64
3, 1037220, Note_on_c, 1, 67, 73
3, 1037276, Note_off_c, 1, 67, 64
3, 1037280, Note_on_c, 1, 65, 76
3, 1037336, Note_off_c, 1, 65, 64
3, 1037340, Note_on_c, 1, 67, 88
3, 1037396, Note_off_c, 1, 67, 64
3, 1037400, Note_on_c, 1, 68, 90
3, 1037516, Note_off_c, 1, 68, 64
3, 1037520, Note_on_c, 1, 67, 97
3, 1037636, Note_off_c, 1, 67, 64
3, 1037640, Note_on_c, 1, 65, 85
3, 1037696, Note_off_c, 1, 65, 64
3, 1037700, Note_on_c, 1, 63, 97
3, 1037756, Note_off_c, 1, 63, 64
3, 1037760, Note_on_c, 1, 65, 90
3, 1037816, Note_off_c, 1, 65, 64
3, 1037820, Note_on_c, 1, 63, 78
3, 1037876, Note_off_c, 1, 63, 64
3, 1037880, Note_on_c, 1, 62, 95
3, 1037996, Note_off_c, 1, 62, 64
3, 1038000, Note_on_c, 1, 63, 104
3, 1038240, Note_off_c, 1, 63, 64
3, 1039080, Note_on_c, 1, 68, 88
3, 1039136, Note_off_c, 1, 68, 64
3, 1039200, Note_on_c, 1, 68, 94
3, 1039316, Note_off_c, 1, 68, 64
3, 1039320, Note_on_c, 1, 67, 92
3, 1039436, Note_off_c, 1, 67, 64
3, 1039440, Note_on_c, 1, 66, 101
3, 1039556, Note_off_c, 1, 66, 64
3, 1039560, Note_on_c, 1, 65, 82
3, 1039676, Note_off_c, 1, 65, 64
3, 1039680, Note_on_c, 1, 74, 101
3, 1039796, Note_off_c, 1, 74, 64
3, 1039800, Note_on_c, 1, 65, 88
3, 1039916, Note_off_c, 1, 65, 64
3, 1039920, Note_on_c, 1, 63, 101
3, 1040516, Note_off_c, 1, 63, 64
3, 1040520, Note_on_c, 1, 62, 93
3, 1040636, Note_off_c, 1, 62, 64
3, 1040640, Note_on_c, 1, 60, 85
3, 1040756, Note_off_c, 1, 60, 64
3, 1040760, Note_on_c, 1, 58, 102
3, 1040876, Note_off_c, 1, 58, 64
3, 1040880, Note_on_c, 1, 57, 86
3, 1040996, Note_off_c, 1, 57, 64
3, 1041000, Note_on_c, 1, 58, 101
3, 1041116, Note_off_c, 1, 58, 64
3, 1041120, Note_on_c, 1, 60, 97
3, 1041236, Note_off_c, 1, 60, 64
3, 1041240, Note_on_c, 1, 62, 97
3, 1041356, Note_off_c, 1, 62, 64
3, 1041360, Note_on_c, 1, 63, 81
3, 1041476, Note_off_c, 1, 63, 64
3, 1041480, Note_on_c, 1, 62, 92
3, 1041596, Note_off_c, 1, 62, 64
3, 1041600, Note_on_c, 1, 63, 97
3, 1041960, Note_off_c, 1, 63, 64
3, 1041960, Note_on_c, 1, 60, 94
3, 1042076, Note_off_c, 1, 60, 64
3, 1042080, Note_on_c, 1, 62, 89
3, 1042320, Note_off_c, 1, 62, 64
3, 1042560, Note_on_c, 1, 69, 107
3, 1042800, Note_off_c, 1, 69, 64
3, 1042800, Note_on_c, 1, 74, 101
3, 1043160, Note_off_c, 1, 74, 64
3, 1043160, Note_on_c, 1, 72, 93
3, 1043276, Note_off_c, 1, 72, 64
3, 1043280, Note_on_c, 1, 70, 85
3, 1043396, Note_off_c, 1, 70, 64
3, 1043400, Note_on_c, 1, 69, 85
3, 1043516, Note_off_c, 1, 69, 64
3, 1043520, Note_on_c, 1, 67, 80
3, 1043636, Note_off_c, 1, 67, 64
3, 1043640, Note_on_c, 1, 65, 93
3, 1043756, Note_off_c, 1, 65, 64
3, 1043760, Note_on_c, 1, 63, 97
3, 1043876, Note_off_c, 1, 63, 64
3, 1043880, Note_on_c, 1, 62, 69
3, 1043996, Note_off_c, 1, 62, 64
3, 1044000, Note_on_c, 1, 60, 91
3, 1044116, Note_off_c, 1, 60, 64
3, 1044120, Note_on_c, 1, 63, 94
3, 1044236, Note_off_c, 1, 63, 64
3, 1044240, Note_on_c, 1, 62, 95
3, 1044356, Note_off_c, 1, 62, 64
3, 1044360, Note_on_c, 1, 64, 104
3, 1044476, Note_off_c, 1, 64, 64
3, 1044480, Note_on_c, 1, 66, 82
3, 1044540, Note_off_c, 1, 66, 64
3, 1044540, Note_on_c, 1, 67, 82
3, 1044600, Note_off_c, 1, 67, 64
3, 1044600, Note_on_c, 1, 57, 82
3, 1044840, Note_off_c, 1, 57, 64
3, 1044840, Note_on_c, 1, 63, 99
3, 1044956, Note_off_c, 1, 63, 64
3, 1044960, Note_on_c, 1, 62, 91
3, 1045076, Note_off_c, 1, 62, 64
3, 1045080, Note_on_c, 1, 60, 83
3, 1045196, Note_off_c, 1, 60, 64
3, 1045200, Note_on_c, 1, 58, 79
3, 1045316, Note_off_c, 1, 58, 64
3, 1045320, Note_on_c, 1, 57, 85
3, 1045436, Note_off_c, 1, 57, 64
3, 1045440, Note_on_c, 1, 55, 92
3, 1045556, Note_off_c, 1, 55, 64
3, 1045560, Note_on_c, 1, 54, 104
3, 1045676, Note_off_c, 1, 54, 64
3, 1045680, Note_on_c, 1, 55, 82
3, 1046160, Note_off_c, 1, 55, 64
3, 1046880, Note_on_c, 1, 66, 92
3, 1047116, Note_off_c, 1, 66, 64
3, 1047120, Note_on_c, 1, 67, 88
3, 1047356, Note_off_c, 1, 67, 64
3, 1047360, Note_on_c, 1, 69, 74
3, 1047596, Note_off_c, 1, 69, 64
3, 1047600, Note_on_c, 1, 62, 77
3, 1047716, Note_off_c, 1, 62, 64
3, 1047720, Note_on_c, 1, 74, 96
3, 1047956, Note_off_c, 1, 74, 64
3, 1047960, Note_on_c, 1, 72, 97
3, 1048196, Note_off_c, 1, 72, 64
3, 1048200, Note_on_c, 1, 70, 86
3, 1048436, Note_off_c, 1, 70, 64
3, 1048440, Note_on_c, 1, 69, 88
3, 1048556, Note_off_c, 1, 69, 64
3, 1048560, Note_on_c, 1, 70, 82
3, 1048796, Note_off_c, 1, 70, 64
3, 1048800, Note_on_c, 1, 63, 93
3, 1049036, Note_off_c, 1, 63, 64
3, 1049040, Note_on_c, 1, 62, 84
3, 1049276, Note_off_c, 1, 62, 64
3, 1049280, Note_on_c, 1, 67, 95
3, 1049516, Note_off_c, 1, 67, 64
3, 1049520, Note_on_c, 1, 65, 83
3, 1049636, Note_off_c, 1, 65, 64
3, 1049640, Note_on_c, 1, 67, 95
3, 1049756, Note_off_c, 1, 67, 64
3, 1049760, Note_on_c, 1, 68, 94
3, 1050116, Note_off_c, 1, 68, 64
3, 1050120, Note_on_c, 1, 70, 104
3, 1050356, Note_off_c, 1, 70, 64
3, 1050360, Note_on_c, 1, 68, 85
3, 1050476, Note_off_c, 1, 68, 64
3, 1050480, Note_on_c, 1, 67, 91
3, 1050596, Note_off_c, 1, 67, 64
3, 1050600, Note_on_c, 1, 70, 93
3, 1050716, Note_off_c, 1, 70, 64
3, 1050720, Note_on_c, 1, 75, 92
3, 1050836, Note_off_c, 1, 75, 64
3, 1050840, Note_on_c, 1, 79, 102
3, 1050956, Note_off_c, 1, 79, 64
3, 1050960, Note_on_c, 1, 77, 98
3, 1051080, Note_off_c, 1, 77, 64
3, 1051080, Note_on_c, 1, 75, 85
3, 1051196, Note_off_c, 1, 75, 64
3, 1051200, Note_on_c, 1, 74, 101
3, 1051316, Note_off_c, 1, 74, 64
3, 1051320, Note_on_c, 1, 72, 100
3, 1051436, Note_off_c, 1, 72, 64
3, 1051440, Note_on_c, 1, 70, 97
3, 1052516, Note_off_c, 1, 70, 64
3, 1052520, Note_on_c, 1, 68, 110
3, 1052576, Note_off_c, 1, 68, 64
3, 1052580, Note_on_c, 1, 67, 73
3, 1052636, Note_off_c, 1, 67, 64
3, 1052640, Note_on_c, 1, 65, 76
3, 1052696, Note_off_c, 1, 65, 64
3, 1052700, Note_on_c, 1, 67, 88
3, 1052756, Note_off_c, 1, 67, 64
3, 1052760, Note_on_c, 1, 68, 90
3, 1052876, Note_off_c, 1, 68, 64
3, 1052880, Note_on_c, 1, 67, 97
3, 1052996, Note_off_c, 1, 67, 64
3, 1053000, Note_on_c, 1, 65, 85
3, 1053056, Note_off_c, 1, 65, 64
3, 1053060, Note_on_c, 1, 63, 97
3, 1053116, Note_off_c, 1, 63, 64
3, 1053120, Note_on_c, 1, 65, 90
3, 1053176, Note_off_c, 1, 65, 64
3, 1053180, Note_on_c, 1, 63, 78
3, 1053236, Note_off_c, 1, 63, 64
3, 1053240, Note_on_c, 1, 62, 95
3, 1053356, Note_off_c, 1, 62, 64
3, 1053360, Note_on_c, 1, 63, 104
3, 1053600, Note_off_c, 1, 63, 64
3, 1054440, Note_on_c, 1, 68, 88
3, 1054496, Note_off_c, 1, 68, 64
3, 1054560, Note_on_c, 1, 68, 94
3, 1054676, Note_off_c, 1, 68, 64
3, 1054680, Note_on_c, 1, 67, 92
3, 1054796, Note_off_c, 1, 67, 64
3, 1054800, Note_on_c, 1, 66, 101
3, 1054916, Note_off_c, 1, 66, 64
3, 1054920, Note_on_c, 1, 65, 82
3, 1055036, Note_off_c, 1, 65, 64
3, 1055040, Note_on_c, 1, 74, 101
3, 1055156, Note_off_c, 1, 74, 64
3, 1055160, Note_on_c, 1, 65, 88
3, 1055276, Note_off_c, 1, 65, 64
3, 1055280, Note_on_c, 1, 63, 101
3, 1055876, Note_off_c, 1, 63, 64
3, 1055880, Note_on_c, 1, 62, 93
3, 1055996, Note_off_c, 1, 62, 64
3, 1056000, Note_on_c, 1, 60, 85
3, 1056116, Note_off_c, 1, 60, 64
3, 1056120, Note_on_c, 1, 58, 102
3, 1056236, Note_off_c, 1, 58, 64
3, 1056240, Note_on_c, 1, 57, 86
3, 1056356, Note_off_c, 1, 57, 64
3, 1056360, Note_on_c, 1, 58, 101
3, 1056476, Note_off_c, 1, 58, 64
3, 1056480, Note_on_c, 1, 60, 97
3, 1056596, Note_off_c, 1, 60, 64
3, 1056600, Note_on_c, 1, 62, 97
3, 1056716, Note_off_c, 1, 62, 64
3, 1056720, Note_on_c, 1, 63, 81
3, 1056836, Note_off_c, 1, 63, 64
3, 1056840, Note_on_c, 1, 62, 92
3, 1056956, Note_off_c, 1, 62, 64
3, 1056960, Note_on_c, 1, 63, 97
3, 1057320, Note_off_c, 1, 63, 64
3, 1057320, Note_on_c, 1, 60, 94
3, 1057436, Note_off_c, 1, 60, 64
3, 1057440, Note_on_c, 1, 62, 89
3, 1057680, Note_off_c, 1, 62, 64
3, 1057920, Note_on_c, 1, 69, 107
3, 1058160, Note_off_c, 1, 69, 64
3, 1058160, Note_on_c, 1, 74, 101
3, 1058520, Note_off_c, 1, 74, 64
3, 1058520, Note_on_c, 1, 72, 93
3, 1058636, Note_off_c, 1, 72, 64
3, 1058640, Note_on_c, 1, 70, 85
3, 1058756, Note_off_c, 1, 70, 64
3, 1058760, Note_on_c, 1, 69, 85
3, 1058876, Note_off_c, 1, 69, 64
3, 1058880, Note_on_c, 1, 67, 80
3, 1058996, Note_off_c, 1, 67, 64
3, 1059000, Note_on_c, 1, 65, 93
3, 1059116, Note_off_c, 1, 65, 64
3, 1059120, Note_on_c, 1, 63, 97
3, 1059236, Note_off_c, 1, 63, 64
3, 1059240, Note_on_c, 1, 62, 69
3, 1059356, Note_off_c, 1, 62, 64
3, 1059360, Note_on_c, 1, 60, 91
3, 1059476, Note_off_c, 1, 60, 64
3, 1059480, Note_on_c, 1, 63, 94
3, 1059596, Note_off_c, 1, 63, 64
3, 1059600, Note_on_c, 1, 62, 95
3, 1059716, Note_off_c, 1, 62, 64
3, 1059720, Note_on_c, 1, 64, 104
3, 1059836, Note_off_c, 1, 64, 64
3, 1059840, Note_on_c, 1, 66, 82
3, 1059900, Note_off_c, 1, 66, 64
3, 1059900, Note_on_c, 1, 67, 82
3, 1059960, Note_off_c, 1, 67, 64
3, 1059960, Note_on_c, 1, 57, 82
3, 1060200, Note_off_c, 1, 57, 64
3, 1060200, Note_on_c, 1, 63, 99
3, 1060316, Note_off_c, 1, 63, 64
3, 1060320, Note_on_c, 1, 62, 91
3, 1060436, Note_off_c, 1, 62, 64
3, 1060440, Note_on_c, 1, 60, 83
3, 1060556, Note_off_c, 1, 60, 64
3, 1060560, Note_on_c, 1, 58, 79
3, 1060676, Note_off_c, 1, 58, 64
3, 1060680, Note_on_c, 1, 57, 85
3, 1060796, Note_off_c, 1, 57, 64
3, 1060800, Note_on_c, 1, 55, 92
3, 1060916, Note_off_c, 1, 55, 64
3, 1060920, Note_on_c, 1, 54, 104
3, 1061036, Note_off_c, 1, 54, 64
3, 1061040, Note_on_c, 1, 55, 82
3, 1061520, Note_off_c, 1, 55, 64
3, 1062000, Note_on_c, 1, 47, 100
3, 1062000, Note_on_c, 1, 50, 95
3, 1062540, Note_on_c, 1, 67, 82
3, 1062596, Note_off_c, 1, 67, 64
3, 1062600, Note_on_c, 1, 69, 68
3, 1062656, Note_off_c, 1, 69, 64
3, 1062660, Note_on_c, 1, 71, 86
3, 1062716, Note_off_c, 1, 71, 64
3, 1062720, Note_on_c, 1, 72, 89
3, 1062776, Note_off_c, 1, 72, 64
3, 1062780, Note_on_c, 1, 74, 95
3, 1062836, Note_off_c, 1, 74, 64
3, 1062840, Note_on_c, 1, 76, 82
3, 1062896, Note_off_c, 1, 76, 64
3, 1062900, Note_on_c, 1, 78, 94
3, 1062956, Note_off_c, 1, 78, 64
3, 1062960, Note_off_c, 1, 47, 64
3, 1062960, Note_off_c, 1, 50, 64
3, 1062960, Note_on_c, 1, 79, 102
3, 1063316, Note_off_c, 1, 79, 64
3, 1063320, Note_on_c, 1, 74, 102
3, 1063436, Note_off_c, 1, 74, 64
3, 1063440, Note_on_c, 1, 71, 96
3, 1063780, Note_on_c, 1, 59, 102
3, 1063796, Note_off_c, 1, 71, 64
3, 1063800, Note_on_c, 1, 67, 106
3, 1063916, Note_off_c, 1, 67, 64
3, 1063920, Note_on_c, 1, 57, 106
3, 1063920, Note_on_c, 1, 74, 104
3, 1063932, Note_off_c, 1, 59, 64
3, 1063976, Note_off_c, 1, 74, 64
3, 1063980, Note_on_c, 1, 72, 89
3, 1064036, Note_off_c, 1, 72, 64
3, 1064040, Note_on_c, 1, 74, 96
3, 1064400, Note_off_c, 1, 57, 64
3, 1064876, Note_off_c, 1, 74, 64
3, 1064880, Note_on_c, 1, 76, 104
3, 1065120, Note_off_c, 1, 76, 64
3, 1065120, Note_on_c, 1, 74, 106
3, 1065240, Note_off_c, 1, 74, 64
3, 1065240, Note_on_c, 1, 72, 96
3, 1065300, Note_off_c, 1, 72, 64
3, 1065300, Note_on_c, 1, 74, 96
3, 1065360, Note_off_c, 1, 74, 64
3, 1065360, Note_on_c, 1, 72, 85
3, 1065600, Note_off_c, 1, 72, 64
3, 1065660, Note_on_c, 1, 71, 77
3, 1065716, Note_off_c, 1, 71, 64
3, 1065720, Note_on_c, 1, 72, 85
3, 1065776, Note_off_c, 1, 72, 64
3, 1065780, Note_on_c, 1, 74, 85
3, 1065836, Note_off_c, 1, 74, 64
3, 1065840, Note_on_c, 1, 67, 104
3, 1066200, Note_off_c, 1, 67, 64
3, 1066200, Note_on_c, 1, 79, 102
3, 1066256, Note_off_c, 1, 79, 64
3, 1066260, Note_on_c, 1, 78, 85
3, 1066316, Note_off_c, 1, 78, 64
3, 1066320, Note_on_c, 1, 79, 97
3, 1066680, Note_off_c, 1, 79, 64
3, 1066680, Note_on_c, 1, 76, 102
3, 1066800, Note_off_c, 1, 76, 64
3, 1066800, Note_on_c, 1, 74, 100
3, 1066916, Note_off_c, 1, 74, 64
3, 1066920, Note_on_c, 1, 73, 102
3, 1067156, Note_off_c, 1, 73, 64
3, 1067160, Note_on_c, 1, 83, 113
3, 1067276, Note_off_c, 1, 83, 64
3, 1067280, Note_on_c, 1, 81, 107
3, 1067640, Note_off_c, 1, 81, 64
3, 1067640, Note_on_c, 1, 79, 92
3, 1067760, Note_off_c, 1, 79, 64
3, 1067760, Note_on_c, 1, 79, 95
3, 1067880, Note_off_c, 1, 79, 64
3, 1067880, Note_on_c, 1, 78, 86
3, 1067940, Note_off_c, 1, 78, 64
3, 1067940, Note_on_c, 1, 79, 86
3, 1068000, Note_off_c, 1, 79, 64
3, 1068000, Note_on_c, 1, 78, 86
3, 1068360, Note_off_c, 1, 78, 64
3, 1068480, Note_on_c, 1, 79, 93
3, 1068720, Note_off_c, 1, 79, 64
3, 1068720, Note_on_c, 1, 79, 71
3, 1068956, Note_off_c, 1, 79, 64
3, 1068960, Note_on_c, 1, 81, 90
3, 1069976, Note_off_c, 1, 81, 64
3, 1069980, Note_on_c, 1, 81, 93
3, 1070036, Note_off_c, 1, 81, 64
3, 1070040, Note_on_c, 1, 79, 84
3, 1070096, Note_off_c, 1, 79, 64
3, 1070100, Note_on_c, 1, 78, 81
3, 1070156, Note_off_c, 1, 78, 64
3, 1070160, Note_on_c, 1, 79, 102
3, 1070516, Note_off_c, 1, 79, 64
3, 1070520, Note_on_c, 1, 74, 95
3, 1070640, Note_off_c, 1, 74, 64
3, 1070640, Note_on_c, 1, 74, 97
3, 1071596, Note_off_c, 1, 74, 64
3, 1071600, Note_on_c, 1, 72, 89
3, 1071840, Note_off_c, 1, 72, 64
3, 1073520, Note_on_c, 1, 71, 100
3, 1074000, Note_off_c, 1, 71, 64
3, 1079160, Note_on_c, 1, 71, 100
3, 1079280, Note_off_c, 1, 71, 64
3, 1079280, Note_on_c, 1, 69, 100
3, 1079760, Note_off_c, 1, 69, 64
3, 1080120, Note_on_c, 1, 81, 100
3, 1080240, Note_off_c, 1, 81, 64
3, 1080240, Note_on_c, 1, 75, 100
3, 1080600, Note_off_c, 1, 75, 64
3, 1080600, Note_on_c, 1, 78, 100
3, 1080720, Note_off_c, 1, 78, 64
3, 1080720, Note_on_c, 1, 71, 100
3, 1081680, Note_off_c, 1, 71, 64
3, 1082160, Note_on_c, 1, 71, 100
3, 1083120, Note_off_c, 1, 71, 64
3, 1083120, Note_on_c, 1, 69, 100
3, 1083600, Note_off_c, 1, 69, 64
3, 1083600, Note_on_c, 1, 71, 100
3, 1084080, Note_off_c, 1, 71, 64
3, 1084080, Note_on_c, 1, 73, 100
3, 1084560, Note_off_c, 1, 73, 64
3, 1086000, Note_on_c, 1, 69, 100
3, 1086480, Note_off_c, 1, 69, 64
3, 1088280, Note_on_c, 1, 59, 75
3, 1088400, Note_off_c, 1, 59, 64
3, 1088400, Note_on_c, 1, 61, 75
3, 1088880, Note_off_c, 1, 61, 64
3, 1089840, Note_on_c, 1, 73, 100
3, 1090800, Note_off_c, 1, 73, 64
3, 1090800, Note_on_c, 1, 66, 100
3, 1090800, Note_on_c, 1, 69, 100
3, 1092720, Note_off_c, 1, 66, 64
3, 1092720, Note_off_c, 1, 69, 64
3, 1092720, Note_on_c, 1, 47, 100
3, 1092720, Note_on_c, 1, 50, 95
3, 1093260, Note_on_c, 1, 67, 82
3, 1093316, Note_off_c, 1, 67, 64
3, 1093320, Note_on_c, 1, 69, 68
3, 1093376, Note_off_c, 1, 69, 64
3, 1093380, Note_on_c, 1, 71, 86
3, 1093436, Note_off_c, 1, 71, 64
3, 1093440, Note_on_c, 1, 72, 89
3, 1093496, Note_off_c, 1, 72, 64
3, 1093500, Note_on_c, 1, 74, 95
3, 1093556, Note_off_c, 1, 74, 64
3, 1093560, Note_on_c, 1, 76, 82
3, 1093616, Note_off_c, 1, 76, 64
3, 1093620, Note_on_c, 1, 78, 94
3, 1093676, Note_off_c, 1, 78, 64
3, 1093680, Note_off_c, 1, 47, 64
3, 1093680, Note_off_c, 1, 50, 64
3, 1093680, Note_on_c, 1, 79, 102
3, 1094036, Note_off_c, 1, 79, 64
3, 1094040, Note_on_c, 1, 74, 102
3, 1094156, Note_off_c, 1, 74, 64
3, 1094160, Note_on_c, 1, 71, 96
3, 1094500, Note_on_c, 1, 59, 102
3, 1094516, Note_off_c, 1, 71, 64
3, 1094520, Note_on_c, 1, 67, 106
3, 1094636, Note_off_c, 1, 67, 64
3, 1094640, Note_on_c, 1, 57, 106
3, 1094640, Note_on_c, 1, 74, 104
3, 1094652, Note_off_c, 1, 59, 64
3, 1094696, Note_off_c, 1, 74, 64
3, 1094700, Note_on_c, 1, 72, 89
3, 1094756, Note_off_c, 1, 72, 64
3, 1094760, Note_on_c, 1, 74, 96
3, 1095120, Note_off_c, 1, 57, 64
3, 1095596, Note_off_c, 1, 74, 64
3, 1095600, Note_on_c, 1, 76, 104
3, 1095840, Note_off_c, 1, 76, 64
3, 1095840, Note_on_c, 1, 74, 106
3, 1095960, Note_off_c, 1, 74, 64
3, 1095960, Note_on_c, 1, 72, 96
3, 1096020, Note_off_c, 1, 72, 64
3, 1096020, Note_on_c, 1, 74, 96
3, 1096080, Note_off_c, 1, 74, 64
3, 1096080, Note_on_c, 1, 72, 85
3, 1096320, Note_off_c, 1, 72, 64
3, 1096380, Note_on_c, 1, 71, 77
3, 1096436, Note_off_c, 1, 71, 64
3, 1096440, Note_on_c, 1, 72, 85
3, 1096496, Note_off_c, 1, 72, 64
3, 1096500, Note_on_c, 1, 74, 85
3, 1096556, Note_off_c, 1, 74, 64
3, 1096560, Note_on_c, 1, 67, 104
3, 1096920, Note_off_c, 1, 67, 64
3, 1096920, Note_on_c, 1, 79, 102
3, 1096976, Note_off_c, 1, 79, 64
3, 1096980, Note_on_c, 1, 78, 85
3, 1097036, Note_off_c, 1, 78, 64
3, 1097040, Note_on_c, 1, 79, 97
3, 1097400, Note_off_c, 1, 79, 64
3, 1097400, Note_on_c, 1, 76, 102
3, 1097520, Note_off_c, 1, 76, 64
3, 1097520, Note_on_c, 1, 74, 100
3, 1097636, Note_off_c, 1, 74, 64
3, 1097640, Note_on_c, 1, 73, 102
3, 1097876, Note_off_c, 1, 73, 64
3, 1097880, Note_on_c, 1, 83, 113
3, 1097996, Note_off_c, 1, 83, 64
3, 1098000, Note_on_c, 1, 81, 107
3, 1098360, Note_off_c, 1, 81, 64
3, 1098360, Note_on_c, 1, 79, 92
3, 1098480, Note_off_c, 1, 79, 64
3, 1098480, Note_on_c, 1, 79, 95
3, 1098600, Note_off_c, 1, 79, 64
3, 1098600, Note_on_c, 1, 78, 86
3, 1098660, Note_off_c, 1, 78, 64
3, 1098660, Note_on_c, 1, 79, 86
3, 1098720, Note_off_c, 1, 79, 64
3, 1098720, Note_on_c, 1, 78, 86
3, 1099080, Note_off_c, 1, 78, 64
3, 1099200, Note_on_c, 1, 79, 93
3, 1099440, Note_off_c, 1, 79, 64
3, 1099440, Note_on_c, 1, 79, 71
3, 1099676, Note_off_c, 1, 79, 64
3, 1099680, Note_on_c, 1, 81, 90
3, 1100696, Note_off_c, 1, 81, 64
3, 1100700, Note_on_c, 1, 81, 93
3, 1100756, Note_off_c, 1, 81, 64
3, 1100760, Note_on_c, 1, 79, 84
3, 1100816, Note_off_c, 1, 79, 64
3, 1100820, Note_on_c, 1, 78, 81
3, 1100876, Note_off_c, 1, 78, 64
3, 1100880, Note_on_c, 1, 79, 102
3, 1101236, Note_off_c, 1, 79, 64
3, 1101240, Note_on_c, 1, 74, 95
3, 1101360, Note_off_c, 1, 74, 64
3, 1101360, Note_on_c, 1, 74, 97
3, 1102316, Note_off_c, 1, 74, 64
3, 1102320, Note_on_c, 1, 72, 89
3, 1102560, Note_off_c, 1, 72, 64
3, 1104240, Note_on_c, 1, 71, 100
3, 1104720, Note_off_c, 1, 71, 64
3, 1109880, Note_on_c, 1, 71, 100
3, 1110000, Note_off_c, 1, 71, 64
3, 1110000, Note_on_c, 1, 69, 100
3, 1110480, Note_off_c, 1, 69, 64
3, 1110840, Note_on_c, 1, 81, 100
3, 1110960, Note_off_c, 1, 81, 64
3, 1110960, Note_on_c, 1, 75, 100
3, 1111320, Note_off_c, 1, 75, 64
3, 1111320, Note_on_c, 1, 78, 100
3, 1111440, Note_off_c, 1, 78, 64
3, 1111440, Note_on_c, 1, 71, 100
3, 1112400, Note_off_c, 1, 71, 64
3, 1112880, Note_on_c, 1, 71, 100
3, 1113840, Note_off_c, 1, 71, 64
3, 1113840, Note_on_c, 1, 69, 100
3, 1114320, Note_off_c, 1, 69, 64
3, 1114320, Note_on_c, 1, 71, 100
3, 1114800, Note_off_c, 1, 71, 64
3, 1114800, Note_on_c, 1, 73, 100
3, 1115280, Note_off_c, 1, 73, 64
3, 1116720, Note_on_c, 1, 69, 100
3, 1117200, Note_off_c, 1, 69, 64
3, 1119000, Note_on_c, 1, 59, 75
3, 1119120, Note_off_c, 1, 59, 64
3, 1119120, Note_on_c, 1, 61, 75
3, 1119600, Note_off_c, 1, 61, 64
3, 1120560, Note_on_c, 1, 73, 100
3, 1121520, Note_off_c, 1, 73, 64
3, 1122480, Note_on_c, 1, 74, 101
3, 1122596, Note_off_c, 1, 74, 64
3, 1122600, Note_on_c, 1, 72, 96
3, 1122716, Note_off_c, 1, 72, 64
3, 1122720, Note_on_c, 1, 71, 106
3, 1122836, Note_off_c, 1, 71, 64
3, 1122840, Note_on_c, 1, 69, 91
3, 1122956, Note_off_c, 1, 69, 64
3, 1122960, Note_on_c, 1, 71, 102
3, 1123196, Note_off_c, 1, 71, 64
3, 1123200, Note_on_c, 1, 72, 98
3, 1123436, Note_off_c, 1, 72, 64
3, 1123440, Note_on_c, 1, 74, 100
3, 1123676, Note_off_c, 1, 74, 64
3, 1123680, Note_on_c, 1, 67, 90
3, 1123796, Note_off_c, 1, 67, 64
3, 1123800, Note_on_c, 1, 71, 91
3, 1123916, Note_off_c, 1, 71, 64
3, 1123920, Note_on_c, 1, 69, 82
3, 1124036, Note_off_c, 1, 69, 64
3, 1124040, Note_on_c, 1, 72, 91
3, 1124156, Note_off_c, 1, 72, 64
3, 1124160, Note_on_c, 1, 71, 91
3, 1124276, Note_off_c, 1, 71, 64
3, 1124280, Note_on_c, 1, 74, 98
3, 1124396, Note_off_c, 1, 74, 64
3, 1124400, Note_on_c, 1, 72, 106
3, 1125236, Note_off_c, 1, 72, 64
3, 1125240, Note_on_c, 1, 79, 101
3, 1125356, Note_off_c, 1, 79, 64
3, 1125360, Note_on_c, 1, 78, 84
3, 1125476, Note_off_c, 1, 78, 64
3, 1125480, Note_on_c, 1, 76, 100
3, 1125596, Note_off_c, 1, 76, 64
3, 1125600, Note_on_c, 1, 75, 88
3, 1125716, Note_off_c, 1, 75, 64
3, 1125720, Note_on_c, 1, 76, 100
3, 1125836, Note_off_c, 1, 76, 64
3, 1125840, Note_on_c, 1, 71, 95
3, 1126560, Note_off_c, 1, 71, 64
3, 1126680, Note_on_c, 1, 73, 94
3, 1126796, Note_off_c, 1, 73, 64
3, 1126800, Note_on_c, 1, 75, 97
3, 1126916, Note_off_c, 1, 75, 64
3, 1126920, Note_on_c, 1, 76, 82
3, 1127036, Note_off_c, 1, 76, 64
3, 1127040, Note_on_c, 1, 78, 88
3, 1127156, Note_off_c, 1, 78, 64
3, 1127160, Note_on_c, 1, 75, 94
3, 1127276, Note_off_c, 1, 75, 64
3, 1127280, Note_on_c, 1, 76, 88
3, 1127520, Note_off_c, 1, 76, 64
3, 1129440, Note_on_c, 1, 69, 84
3, 1129676, Note_off_c, 1, 69, 64
3, 1129680, Note_on_c, 1, 71, 102
3, 1129916, Note_off_c, 1, 71, 64
3, 1129920, Note_on_c, 1, 72, 97
3, 1130156, Note_off_c, 1, 72, 64
3, 1130160, Note_on_c, 1, 74, 98
3, 1130396, Note_off_c, 1, 74, 64
3, 1130400, Note_on_c, 1, 76, 101
3, 1130636, Note_off_c, 1, 76, 64
3, 1130640, Note_on_c, 1, 78, 106
3, 1130876, Note_off_c, 1, 78, 64
3, 1130880, Note_on_c, 1, 79, 107
3, 1131356, Note_off_c, 1, 79, 64
3, 1131360, Note_on_c, 1, 74, 101
3, 1131596, Note_off_c, 1, 74, 64
3, 1131600, Note_on_c, 1, 67, 104
3, 1131836, Note_off_c, 1, 67, 64
3, 1131840, Note_on_c, 1, 69, 91
3, 1132076, Note_off_c, 1, 69, 64
3, 1132080, Note_on_c, 1, 66, 96
3, 1132316, Note_off_c, 1, 66, 64
3, 1132320, Note_on_c, 1, 67, 101
3, 1132556, Note_off_c, 1, 67, 64
3, 1132560, Note_on_c, 1, 69, 110
3, 1132620, Note_off_c, 1, 69, 64
3, 1132620, Note_on_c, 1, 68, 85
3, 1132676, Note_off_c, 1, 68, 64
3, 1132680, Note_on_c, 1, 69, 81
3, 1132736, Note_off_c, 1, 69, 64
3, 1132740, Note_on_c, 1, 68, 79
3, 1132796, Note_off_c, 1, 68, 64
3, 1132800, Note_on_c, 1, 69, 76
3, 1132860, Note_off_c, 1, 69, 64
3, 1132860, Note_on_c, 1, 68, 76
3, 1132920, Note_off_c, 1, 68, 64
3, 1132920, Note_on_c, 1, 66, 69
3, 1132976, Note_off_c, 1, 66, 64
3, 1132980, Note_on_c, 1, 68, 86
3, 1133036, Note_off_c, 1, 68, 64
3, 1133040, Note_on_c, 1, 69, 115
3, 1133516, Note_off_c, 1, 69, 64
3, 1133520, Note_on_c, 1, 68, 108
3, 1133756, Note_off_c, 1, 68, 64
3, 1133760, Note_on_c, 1, 69, 101
3, 1133996, Note_off_c, 1, 69, 64
3, 1134000, Note_on_c, 1, 67, 111
3, 1134476, Note_off_c, 1, 67, 64
3, 1134480, Note_on_c, 1, 66, 97
3, 1134716, Note_off_c, 1, 66, 64
3, 1134720, Note_on_c, 1, 67, 100
3, 1134956, Note_off_c, 1, 67, 64
3, 1134960, Note_on_c, 1, 64, 91
3, 1135196, Note_off_c, 1, 64, 64
3, 1135200, Note_on_c, 1, 66, 89
3, 1135316, Note_off_c, 1, 66, 64
3, 1137600, Note_on_c, 1, 66, 104
3, 1137836, Note_off_c, 1, 66, 64
3, 1137840, Note_on_c, 1, 69, 111
3, 1137896, Note_off_c, 1, 69, 64
3, 1137900, Note_on_c, 1, 67, 93
3, 1137956, Note_off_c, 1, 67, 64
3, 1137960, Note_on_c, 1, 66, 102
3, 1138016, Note_off_c, 1, 66, 64
3, 1138020, Note_on_c, 1, 67, 93
3, 1138076, Note_off_c, 1, 67, 64
3, 1138080, Note_on_c, 1, 69, 102
3, 1138616, Note_off_c, 1, 69, 64
3, 1141080, Note_on_c, 1, 67, 98
3, 1141196, Note_off_c, 1, 67, 64
3, 1141200, Note_on_c, 1, 66, 90
3, 1141316, Note_off_c, 1, 66, 64
3, 1141320, Note_on_c, 1, 67, 96
3, 1141436, Note_off_c, 1, 67, 64
3, 1141440, Note_on_c, 1, 69, 88
3, 1141556, Note_off_c, 1, 69, 64
3, 1141560, Note_on_c, 1, 66, 82
3, 1141676, Note_off_c, 1, 66, 64
3, 1141680, Note_on_c, 1, 62, 100
3, 1142516, Note_off_c, 1, 62, 64
3, 1142520, Note_on_c, 1, 66, 97
3, 1142636, Note_off_c, 1, 66, 64
3, 1142640, Note_on_c, 1, 64, 98
3, 1142756, Note_off_c, 1, 64, 64
3, 1142760, Note_on_c, 1, 67, 97
3, 1142876, Note_off_c, 1, 67, 64
3, 1142880, Note_on_c, 1, 66, 106
3, 1143116, Note_off_c, 1, 66, 64
3, 1143120, Note_on_c, 1, 59, 106
3, 1143360, Note_off_c, 1, 59, 64
3, 1143360, Note_on_c, 1, 60, 100
3, 1143596, Note_off_c, 1, 60, 64
3, 1143600, Note_on_c, 1, 57, 101
3, 1143836, Note_off_c, 1, 57, 64
3, 1143840, Note_on_c, 1, 59, 96
3, 1144316, Note_off_c, 1, 59, 64
3, 1145520, Note_on_c, 1, 74, 101
3, 1145636, Note_off_c, 1, 74, 64
3, 1145640, Note_on_c, 1, 72, 96
3, 1145756, Note_off_c, 1, 72, 64
3, 1145760, Note_on_c, 1, 71, 106
3, 1145876, Note_off_c, 1, 71, 64
3, 1145880, Note_on_c, 1, 69, 91
3, 1145996, Note_off_c, 1, 69, 64
3, 1146000, Note_on_c, 1, 71, 102
3, 1146236, Note_off_c, 1, 71, 64
3, 1146240, Note_on_c, 1, 72, 98
3, 1146476, Note_off_c, 1, 72, 64
3, 1146480, Note_on_c, 1, 74, 100
3, 1146716, Note_off_c, 1, 74, 64
3, 1146720, Note_on_c, 1, 67, 90
3, 1146836, Note_off_c, 1, 67, 64
3, 1146840, Note_on_c, 1, 71, 91
3, 1146956, Note_off_c, 1, 71, 64
3, 1146960, Note_on_c, 1, 69, 82
3, 1147076, Note_off_c, 1, 69, 64
3, 1147080, Note_on_c, 1, 72, 91
3, 1147196, Note_off_c, 1, 72, 64
3, 1147200, Note_on_c, 1, 71, 91
3, 1147316, Note_off_c, 1, 71, 64
3, 1147320, Note_on_c, 1, 74, 98
3, 1147436, Note_off_c, 1, 74, 64
3, 1147440, Note_on_c, 1, 72, 106
3, 1148276, Note_off_c, 1, 72, 64
3, 1148280, Note_on_c, 1, 79, 101
3, 1148396, Note_off_c, 1, 79, 64
3, 1148400, Note_on_c, 1, 78, 84
3, 1148516, Note_off_c, 1, 78, 64
3, 1148520, Note_on_c, 1, 76, 100
3, 1148636, Note_off_c, 1, 76, 64
3, 1148640, Note_on_c, 1, 75, 88
3, 1148756, Note_off_c, 1, 75, 64
3, 1148760, Note_on_c, 1, 76, 100
3, 1148876, Note_off_c, 1, 76, 64
3, 1148880, Note_on_c, 1, 71, 95
3, 1149600, Note_off_c, 1, 71, 64
3, 1149720, Note_on_c, 1, 73, 94
3, 1149836, Note_off_c, 1, 73, 64
3, 1149840, Note_on_c, 1, 75, 97
3, 1149956, Note_off_c, 1, 75, 64
3, 1149960, Note_on_c, 1, 76, 82
3, 1150076, Note_off_c, 1, 76, 64
3, 1150080, Note_on_c, 1, 78, 88
3, 1150196, Note_off_c, 1, 78, 64
3, 1150200, Note_on_c, 1, 75, 94
3, 1150316, Note_off_c, 1, 75, 64
3, 1150320, Note_on_c, 1, 76, 88
3, 1150560, Note_off_c, 1, 76, 64
3, 1152480, Note_on_c, 1, 69, 84
3, 1152716, Note_off_c, 1, 69, 64
3, 1152720, Note_on_c, 1, 71, 102
3, 1152956, Note_off_c, 1, 71, 64
3, 1152960, Note_on_c, 1, 72, 97
3, 1153196, Note_off_c, 1, 72, 64
3, 1153200, Note_on_c, 1, 74, 98
3, 1153436, Note_off_c, 1, 74, 64
3, 1153440, Note_on_c, 1, 76, 101
3, 1153676, Note_off_c, 1, 76, 64
3, 1153680, Note_on_c, 1, 78, 106
3, 1153916, Note_off_c, 1, 78, 64
3, 1153920, Note_on_c, 1, 79, 107
3, 1154396, Note_off_c, 1, 79, 64
3, 1154400, Note_on_c, 1, 74, 101
3, 1154636, Note_off_c, 1, 74, 64
3, 1154640, Note_on_c, 1, 67, 104
3, 1154876, Note_off_c, 1, 67, 64
3, 1154880, Note_on_c, 1, 69, 91
3, 1155116, Note_off_c, 1, 69, 64
3, 1155120, Note_on_c, 1, 66, 96
3, 1155356, Note_off_c, 1, 66, 64
3, 1155360, Note_on_c, 1, 67, 101
3, 1155596, Note_off_c, 1, 67, 64
3, 1155600, Note_on_c, 1, 69, 110
3, 1155660, Note_off_c, 1, 69, 64
3, 1155660, Note_on_c, 1, 68, 85
3, 1155716, Note_off_c, 1, 68, 64
3, 1155720, Note_on_c, 1, 69, 81
3, 1155776, Note_off_c, 1, 69, 64
3, 1155780, Note_on_c, 1, 68, 79
3, 1155836, Note_off_c, 1, 68, 64
3, 1155840, Note_on_c, 1, 69, 76
3, 1155900, Note_off_c, 1, 69, 64
3, 1155900, Note_on_c, 1, 68, 76
3, 1155960, Note_off_c, 1, 68, 64
3, 1155960, Note_on_c, 1, 66, 69
3, 1156016, Note_off_c, 1, 66, 64
3, 1156020, Note_on_c, 1, 68, 86
3, 1156076, Note_off_c, 1, 68, 64
3, 1156080, Note_on_c, 1, 69, 115
3, 1156556, Note_off_c, 1, 69, 64
3, 1156560, Note_on_c, 1, 68, 108
3, 1156796, Note_off_c, 1, 68, 64
3, 1156800, Note_on_c, 1, 69, 101
3, 1157036, Note_off_c, 1, 69, 64
3, 1157040, Note_on_c, 1, 67, 111
3, 1157516, Note_off_c, 1, 67, 64
3, 1157520, Note_on_c, 1, 66, 97
3, 1157756, Note_off_c, 1, 66, 64
3, 1157760, Note_on_c, 1, 67, 100
3, 1157996, Note_off_c, 1, 67, 64
3, 1158000, Note_on_c, 1, 64, 91
3, 1158236, Note_off_c, 1, 64, 64
3, 1158240, Note_on_c, 1, 66, 89
3, 1158356, Note_off_c, 1, 66, 64
3, 1160640, Note_on_c, 1, 66, 104
3, 1160876, Note_off_c, 1, 66, 64
3, 1160880, Note_on_c, 1, 69, 111
3, 1160936, Note_off_c, 1, 69, 64
3, 1160940, Note_on_c, 1, 67, 93
3, 1160996, Note_off_c, 1, 67, 64
3, 1161000, Note_on_c, 1, 66, 102
3, 1161056, Note_off_c, 1, 66, 64
3, 1161060, Note_on_c, 1, 67, 93
3, 1161116, Note_off_c, 1, 67, 64
3, 1161120, Note_on_c, 1, 69, 102
3, 1161656, Note_off_c, 1, 69, 64
3, 1164120, Note_on_c, 1, 67, 98
3, 1164236, Note_off_c, 1, 67, 64
3, 1164240, Note_on_c, 1, 66, 90
3, 1164356, Note_off_c, 1, 66, 64
3, 1164360, Note_on_c, 1, 67, 96
3, 1164476, Note_off_c, 1, 67, 64
3, 1164480, Note_on_c, 1, 69, 88
3, 1164596, Note_off_c, 1, 69, 64
3, 1164600, Note_on_c, 1, 66, 82
3, 1164716, Note_off_c, 1, 66, 64
3, 1164720, Note_on_c, 1, 62, 100
3, 1165556, Note_off_c, 1, 62, 64
3, 1165560, Note_on_c, 1, 66, 97
3, 1165676, Note_off_c, 1, 66, 64
3, 1165680, Note_on_c, 1, 64, 98
3, 1165796, Note_off_c, 1, 64, 64
3, 1165800, Note_on_c, 1, 67, 97
3, 1165916, Note_off_c, 1, 67, 64
3, 1165920, Note_on_c, 1, 66, 106
3, 1166156, Note_off_c, 1, 66, 64
3, 1166160, Note_on_c, 1, 59, 106
3, 1166400, Note_off_c, 1, 59, 64
3, 1166400, Note_on_c, 1, 60, 106
3, 1166640, Note_off_c, 1, 60, 64
3, 1166640, Note_on_c, 1, 57, 101
3, 1166876, Note_off_c, 1, 57, 64
3, 1166880, Note_on_c, 1, 62, 100
3, 1168800, Note_off_c, 1, 62, 64
3, 1216320, Note_on_c, 1, 71, 85
3, 1218236, Note_off_c, 1, 71, 64
3, 1218240, Note_on_c, 1, 69, 88
3, 1219676, Note_off_c, 1, 69, 64
3, 1219680, Note_on_c, 1, 71, 89
3, 1219916, Note_off_c, 1, 71, 64
3, 1219920, Note_on_c, 1, 69, 85
3, 1220156, Note_off_c, 1, 69, 64
3, 1220160, Note_on_c, 1, 67, 88
3, 1221596, Note_off_c, 1, 67, 64
3, 1221600, Note_on_c, 1, 66, 108
3, 1221836, Note_off_c, 1, 66, 64
3, 1221840, Note_on_c, 1, 64, 91
3, 1222076, Note_off_c, 1, 64, 64
3, 1222080, Note_on_c, 1, 66, 96
3, 1223036, Note_off_c, 1, 66, 64
3, 1224000, Note_on_c, 1, 67, 107
3, 1225436, Note_off_c, 1, 67, 64
3, 1225440, Note_on_c, 1, 66, 104
3, 1225676, Note_off_c, 1, 66, 64
3, 1225680, Note_on_c, 1, 67, 102
3, 1225916, Note_off_c, 1, 67, 64
3, 1225920, Note_on_c, 1, 69, 96
3, 1227356, Note_off_c, 1, 69, 64
3, 1227360, Note_on_c, 1, 72, 113
3, 1227596, Note_off_c, 1, 72, 64
3, 1227600, Note_on_c, 1, 71, 98
3, 1227836, Note_off_c, 1, 71, 64
3, 1227840, Note_on_c, 1, 72, 102
3, 1229036, Note_off_c, 1, 72, 64
3, 1229040, Note_on_c, 1, 71, 104
3, 1229276, Note_off_c, 1, 71, 64
3, 1229280, Note_on_c, 1, 72, 97
3, 1229516, Note_off_c, 1, 72, 64
3, 1229520, Note_on_c, 1, 69, 97
3, 1229756, Note_off_c, 1, 69, 64
3, 1229760, Note_on_c, 1, 71, 98
3, 1231436, Note_off_c, 1, 71, 64
3, 1231680, Note_on_c, 1, 67, 85
3, 1233596, Note_off_c, 1, 67, 64
3, 1233600, Note_on_c, 1, 66, 79
3, 1235036, Note_off_c, 1, 66, 64
3, 1235040, Note_on_c, 1, 67, 90
3, 1235276, Note_off_c, 1, 67, 64
3, 1235280, Note_on_c, 1, 69, 90
3, 1235516, Note_off_c, 1, 69, 64
3, 1235520, Note_on_c, 1, 71, 90
3, 1236716, Note_off_c, 1, 71, 64
3, 1236720, Note_on_c, 1, 69, 82
3, 1236956, Note_off_c, 1, 69, 64
3, 1236960, Note_on_c, 1, 71, 77
3, 1237196, Note_off_c, 1, 71, 64
3, 1237200, Note_on_c, 1, 67, 81
3, 1237436, Note_off_c, 1, 67, 64
3, 1237440, Note_on_c, 1, 69, 90
3, 1238876, Note_off_c, 1, 69, 64
3, 1238880, Note_on_c, 1, 69, 92
3, 1239356, Note_off_c, 1, 69, 64
3, 1239360, Note_on_c, 1, 67, 95
3, 1240796, Note_off_c, 1, 67, 64
3, 1240800, Note_on_c, 1, 67, 93
3, 1241276, Note_off_c, 1, 67, 64
3, 1241280, Note_on_c, 1, 66, 81
3, 1242716, Note_off_c, 1, 66, 64
3, 1242720, Note_on_c, 1, 71, 106
3, 1243196, Note_off_c, 1, 71, 64
3, 1243200, Note_on_c, 1, 64, 101
3, 1243436, Note_off_c, 1, 64, 64
3, 1243440, Note_on_c, 1, 66, 89
3, 1243676, Note_off_c, 1, 66, 64
3, 1243680, Note_on_c, 1, 67, 100
3, 1245116, Note_off_c, 1, 67, 64
3, 1245120, Note_on_c, 1, 66, 88
3, 1247036, Note_off_c, 1, 66, 64
3, 1247040, Note_on_c, 1, 71, 85
3, 1248956, Note_off_c, 1, 71, 64
3, 1248960, Note_on_c, 1, 69, 88
3, 1250396, Note_off_c, 1, 69, 64
3, 1250400, Note_on_c, 1, 71, 89
3, 1250636, Note_off_c, 1, 71, 64
3, 1250640, Note_on_c, 1, 69, 85
3, 1250876, Note_off_c, 1, 69, 64
3, 1250880, Note_on_c, 1, 67, 88
3, 1252316, Note_off_c, 1, 67, 64
3, 1252320, Note_on_c, 1, 66, 108
3, 1252556, Note_off_c, 1, 66, 64
3, 1252560, Note_on_c, 1, 64, 91
3, 1252796, Note_off_c, 1, 64, 64
3, 1252800, Note_on_c, 1, 66, 96
3, 1253756, Note_off_c, 1, 66, 64
3, 1254720, Note_on_c, 1, 67, 107
3, 1256156, Note_off_c, 1, 67, 64
3, 1256160, Note_on_c, 1, 66, 104
3, 1256396, Note_off_c, 1, 66, 64
3, 1256400, Note_on_c, 1, 67, 102
3, 1256636, Note_off_c, 1, 67, 64
3, 1256640, Note_on_c, 1, 69, 96
3, 1258076, Note_off_c, 1, 69, 64
3, 1258080, Note_on_c, 1, 72, 113
3, 1258316, Note_off_c, 1, 72, 64
3, 1258320, Note_on_c, 1, 71, 98
3, 1258556, Note_off_c, 1, 71, 64
3, 1258560, Note_on_c, 1, 72, 102
3, 1259756, Note_off_c, 1, 72, 64
3, 1259760, Note_on_c, 1, 71, 104
3, 1259996, Note_off_c, 1, 71, 64
3, 1260000, Note_on_c, 1, 72, 97
3, 1260236, Note_off_c, 1, 72, 64
3, 1260240, Note_on_c, 1, 69, 97
3, 1260476, Note_off_c, 1, 69, 64
3, 1260480, Note_on_c, 1, 71, 98
3, 1262156, Note_off_c, 1, 71, 64
3, 1262400, Note_on_c, 1, 67, 85
3, 1264316, Note_off_c, 1, 67, 64
3, 1264320, Note_on_c, 1, 66, 79
3, 1265756, Note_off_c, 1, 66, 64
3, 1265760, Note_on_c, 1, 67, 90
3, 1265996, Note_off_c, 1, 67, 64
3, 1266000, Note_on_c, 1, 69, 90
3, 1266236, Note_off_c, 1, 69, 64
3, 1266240, Note_on_c, 1, 71, 90
3, 1267436, Note_off_c, 1, 71, 64
3, 1267440, Note_on_c, 1, 69, 82
3, 1267676, Note_off_c, 1, 69, 64
3, 1267680, Note_on_c, 1, 71, 77
3, 1267916, Note_off_c, 1, 71, 64
3, 1267920, Note_on_c, 1, 67, 81
3, 1268156, Note_off_c, 1, 67, 64
3, 1268160, Note_on_c, 1, 69, 90
3, 1269596, Note_off_c, 1, 69, 64
3, 1269600, Note_on_c, 1, 69, 92
3, 1270076, Note_off_c, 1, 69, 64
3, 1270080, Note_on_c, 1, 67, 95
3, 1271516, Note_off_c, 1, 67, 64
3, 1271520, Note_on_c, 1, 67, 93
3, 1271996, Note_off_c, 1, 67, 64
3, 1272000, Note_on_c, 1, 66, 81
3, 1273436, Note_off_c, 1, 66, 64
3, 1273440, Note_on_c, 1, 71, 106
3, 1273916, Note_off_c, 1, 71, 64
3, 1273920, Note_on_c, 1, 64, 101
3, 1274156, Note_off_c, 1, 64, 64
3, 1274160, Note_on_c, 1, 66, 89
3, 1274396, Note_off_c, 1, 66, 64
3, 1274400, Note_on_c, 1, 67, 100
3, 1275836, Note_off_c, 1, 67, 64
3, 1275840, Note_on_c, 1, 66, 88
3, 1277756, Note_off_c, 1, 66, 64
3, 1277760, Note_on_c, 1, 72, 113
3, 1279676, Note_off_c, 1, 72, 64
3, 1279680, Note_on_c, 1, 71, 104
3, 1281116, Note_off_c, 1, 71, 64
3, 1281120, Note_on_c, 1, 72, 101
3, 1281356, Note_off_c, 1, 72, 64
3, 1281360, Note_on_c, 1, 74, 88
3, 1281596, Note_off_c, 1, 74, 64
3, 1281600, Note_on_c, 1, 76, 97
3, 1282796, Note_off_c, 1, 76, 64
3, 1282800, Note_on_c, 1, 75, 92
3, 1283036, Note_off_c, 1, 75, 64
3, 1283040, Note_on_c, 1, 76, 100
3, 1283516, Note_off_c, 1, 76, 64
3, 1283520, Note_on_c, 1, 75, 99
3, 1285436, Note_off_c, 1, 75, 64
3, 1285440, Note_on_c, 1, 67, 97
3, 1287356, Note_off_c, 1, 67, 64
3, 1287360, Note_on_c, 1, 66, 104
3, 1287836, Note_off_c, 1, 66, 64
3, 1287840, Note_on_c, 1, 67, 91
3, 1288316, Note_off_c, 1, 67, 64
3, 1288320, Note_on_c, 1, 69, 101
3, 1289756, Note_off_c, 1, 69, 64
3, 1289760, Note_on_c, 1, 67, 91
3, 1289996, Note_off_c, 1, 67, 64
3, 1290000, Note_on_c, 1, 69, 95
3, 1290236, Note_off_c, 1, 69, 64
3, 1290240, Note_on_c, 1, 71, 93
3, 1291436, Note_off_c, 1, 71, 64
3, 1291440, Note_on_c, 1, 69, 80
3, 1291676, Note_off_c, 1, 69, 64
3, 1291680, Note_on_c, 1, 67, 72
3, 1291916, Note_off_c, 1, 67, 64
3, 1291920, Note_on_c, 1, 66, 89
3, 1292156, Note_off_c, 1, 66, 64
3, 1292160, Note_on_c, 1, 64, 93
3, 1293116, Note_off_c, 1, 64, 64
3, 1293120, Note_on_c, 1, 72, 111
3, 1295036, Note_off_c, 1, 72, 64
3, 1295040, Note_on_c, 1, 71, 91
3, 1296476, Note_off_c, 1, 71, 64
3, 1296480, Note_on_c, 1, 72, 98
3, 1296716, Note_off_c, 1, 72, 64
3, 1296720, Note_on_c, 1, 74, 84
3, 1296956, Note_off_c, 1, 74, 64
3, 1296960, Note_on_c, 1, 76, 97
3, 1298156, Note_off_c, 1, 76, 64
3, 1298160, Note_on_c, 1, 74, 95
3, 1298396, Note_off_c, 1, 74, 64
3, 1298400, Note_on_c, 1, 76, 86
3, 1298636, Note_off_c, 1, 76, 64
3, 1298640, Note_on_c, 1, 72, 90
3, 1298876, Note_off_c, 1, 72, 64
3, 1298880, Note_on_c, 1, 74, 92
3, 1300316, Note_off_c, 1, 74, 64
3, 1300320, Note_on_c, 1, 74, 91
3, 1300796, Note_off_c, 1, 74, 64
3, 1300800, Note_on_c, 1, 72, 100
3, 1301996, Note_off_c, 1, 72, 64
3, 1302240, Note_on_c, 1, 72, 97
3, 1302716, Note_off_c, 1, 72, 64
3, 1302720, Note_on_c, 1, 71, 95
3, 1304156, Note_off_c, 1, 71, 64
3, 1304160, Note_on_c, 1, 76, 95
3, 1304636, Note_off_c, 1, 76, 64
3, 1304640, Note_on_c, 1, 69, 78
3, 1304876, Note_off_c, 1, 69, 64
3, 1304880, Note_on_c, 1, 71, 83
3, 1305116, Note_off_c, 1, 71, 64
3, 1305120, Note_on_c, 1, 72, 92
3, 1306556, Note_off_c, 1, 72, 64
3, 1306560, Note_on_c, 1, 71, 85
3, 1308236, Note_off_c, 1, 71, 64
3, 1308480, Note_on_c, 1, 72, 113
3, 1310396, Note_off_c, 1, 72, 64
3, 1310400, Note_on_c, 1, 71, 104
3, 1311836, Note_off_c, 1, 71, 64
3, 1311840, Note_on_c, 1, 72, 101
3, 1312076, Note_off_c, 1, 72, 64
3, 1312080, Note_on_c, 1, 74, 88
3, 1312316, Note_off_c, 1, 74, 64
3, 1312320, Note_on_c, 1, 76, 97
3, 1313516, Note_off_c, 1, 76, 64
3, 1313520, Note_on_c, 1, 75, 92
3, 1313756, Note_off_c, 1, 75, 64
3, 1313760, Note_on_c, 1, 76, 100
3, 1314236, Note_off_c, 1, 76, 64
3, 1314240, Note_on_c, 1, 75, 99
3, 1316156, Note_off_c, 1, 75, 64
3, 1316160, Note_on_c, 1, 67, 97
3, 1318076, Note_off_c, 1, 67, 64
3, 1318080, Note_on_c, 1, 66, 104
3, 1318556, Note_off_c, 1, 66, 64
3, 1318560, Note_on_c, 1, 67, 91
3, 1319036, Note_off_c, 1, 67, 64
3, 1319040, Note_on_c, 1, 69, 101
3, 1320476, Note_off_c, 1, 69, 64
3, 1320480, Note_on_c, 1, 67, 91
3, 1320716, Note_off_c, 1, 67, 64
3, 1320720, Note_on_c, 1, 69, 95
3, 1320956, Note_off_c, 1, 69, 64
3, 1320960, Note_on_c, 1, 71, 93
3, 1322156, Note_off_c, 1, 71, 64
3, 1322160, Note_on_c, 1, 69, 80
3, 1322396, Note_off_c, 1, 69, 64
3, 1322400, Note_on_c, 1, 67, 72
3, 1322636, Note_off_c, 1, 67, 64
3, 1322640, Note_on_c, 1, 66, 89
3, 1322876, Note_off_c, 1, 66, 64
3, 1322880, Note_on_c, 1, 64, 93
3, 1323836, Note_off_c, 1, 64, 64
3, 1323840, Note_on_c, 1, 72, 111
3, 1325756, Note_off_c, 1, 72, 64
3, 1325760, Note_on_c, 1, 71, 91
3, 1327196, Note_off_c, 1, 71, 64
3, 1327200, Note_on_c, 1, 72, 98
3, 1327436, Note_off_c, 1, 72, 64
3, 1327440, Note_on_c, 1, 74, 84
3, 1327676, Note_off_c, 1, 74, 64
3, 1327680, Note_on_c, 1, 76, 97
3, 1328876, Note_off_c, 1, 76, 64
3, 1328880, Note_on_c, 1, 74, 95
3, 1329116, Note_off_c, 1, 74, 64
3, 1329120, Note_on_c, 1, 76, 86
3, 1329356, Note_off_c, 1, 76, 64
3, 1329360, Note_on_c, 1, 72, 90
3, 1329596, Note_off_c, 1, 72, 64
3, 1329600, Note_on_c, 1, 74, 92
3, 1331036, Note_off_c, 1, 74, 64
3, 1331040, Note_on_c, 1, 74, 91
3, 1331516, Note_off_c, 1, 74, 64
3, 1331520, Note_on_c, 1, 72, 100
3, 1332716, Note_off_c, 1, 72, 64
3, 1332960, Note_on_c, 1, 72, 97
3, 1333436, Note_off_c, 1, 72, 64
3, 1333440, Note_on_c, 1, 71, 95
3, 1334876, Note_off_c, 1, 71, 64
3, 1334880, Note_on_c, 1, 76, 95
3, 1335356, Note_off_c, 1, 76, 64
3, 1335360, Note_on_c, 1, 69, 78
3, 1335596, Note_off_c, 1, 69, 64
3, 1335600, Note_on_c, 1, 71, 83
3, 1335836, Note_off_c, 1, 71, 64
3, 1335840, Note_on_c, 1, 72, 92
3, 1337276, Note_off_c, 1, 72, 64
3, 1337280, Note_on_c, 1, 71, 85
3, 1339200, Note_off_c, 1, 71, 64
3, 1341120, Note_on_c, 1, 71, 96
3, 1341236, Note_off_c, 1, 71, 64
3, 1341240, Note_on_c, 1, 69, 89
3, 1341356, Note_off_c, 1, 69, 64
3, 1341360, Note_on_c, 1, 71, 96
3, 1341476, Note_off_c, 1, 71, 64
3, 1341480, Note_on_c, 1, 67, 91
3, 1341596, Note_off_c, 1, 67, 64
3, 1341600, Note_on_c, 1, 62, 72
3, 1341716, Note_off_c, 1, 62, 64
3, 1341720, Note_on_c, 1, 67, 82
3, 1341836, Note_off_c, 1, 67, 64
3, 1341840, Note_on_c, 1, 69, 75
3, 1341956, Note_off_c, 1, 69, 64
3, 1341960, Note_on_c, 1, 67, 77
3, 1342076, Note_off_c, 1, 67, 64
3, 1342080, Note_on_c, 1, 69, 64
3, 1342196, Note_off_c, 1, 69, 64
3, 1342200, Note_on_c, 1, 66, 80
3, 1342316, Note_off_c, 1, 66, 64
3, 1342320, Note_on_c, 1, 62, 66
3, 1342436, Note_off_c, 1, 62, 64
3, 1342440, Note_on_c, 1, 66, 71
3, 1342556, Note_off_c, 1, 66, 64
3, 1342560, Note_on_c, 1, 67, 85
3, 1342676, Note_off_c, 1, 67, 64
3, 1342680, Note_on_c, 1, 66, 76
3, 1342796, Note_off_c, 1, 66, 64
3, 1342800, Note_on_c, 1, 67, 86
3, 1342916, Note_off_c, 1, 67, 64
3, 1342920, Note_on_c, 1, 71, 90
3, 1343036, Note_off_c, 1, 71, 64
3, 1343040, Note_on_c, 1, 69, 84
3, 1343156, Note_off_c, 1, 69, 64
3, 1343160, Note_on_c, 1, 67, 85
3, 1343276, Note_off_c, 1, 67, 64
3, 1343280, Note_on_c, 1, 66, 85
3, 1343396, Note_off_c, 1, 66, 64
3, 1343400, Note_on_c, 1, 64, 83
3, 1343516, Note_off_c, 1, 64, 64
3, 1343520, Note_on_c, 1, 66, 74
3, 1343636, Note_off_c, 1, 66, 64
3, 1343640, Note_on_c, 1, 67, 85
3, 1343756, Note_off_c, 1, 67, 64
3, 1343760, Note_on_c, 1, 69, 82
3, 1343876, Note_off_c, 1, 69, 64
3, 1343880, Note_on_c, 1, 66, 84
3, 1343996, Note_off_c, 1, 66, 64
3, 1344000, Note_on_c, 1, 67, 86
3, 1344116, Note_off_c, 1, 67, 64
3, 1344240, Note_on_c, 1, 67, 97
3, 1344956, Note_off_c, 1, 67, 64
3, 1344960, Note_on_c, 1, 67, 96
3, 1345676, Note_off_c, 1, 67, 64
3, 1345680, Note_on_c, 1, 67, 96
3, 1345916, Note_off_c, 1, 67, 64
3, 1345920, Note_on_c, 1, 66, 97
3, 1346156, Note_off_c, 1, 66, 64
3, 1346160, Note_on_c, 1, 67, 88
3, 1346640, Note_off_c, 1, 67, 64
3, 1347360, Note_on_c, 1, 74, 93
3, 1347596, Note_off_c, 1, 74, 64
3, 1347600, Note_on_c, 1, 73, 92
3, 1348076, Note_off_c, 1, 73, 64
3, 1348080, Note_on_c, 1, 72, 109
3, 1348316, Note_off_c, 1, 72, 64
3, 1348320, Note_on_c, 1, 71, 100
3, 1348556, Note_off_c, 1, 71, 64
3, 1348560, Note_on_c, 1, 64, 93
3, 1348796, Note_off_c, 1, 64, 64
3, 1348800, Note_on_c, 1, 68, 89
3, 1349036, Note_off_c, 1, 68, 64
3, 1349040, Note_on_c, 1, 69, 97
3, 1349516, Note_off_c, 1, 69, 64
3, 1349520, Note_on_c, 1, 67, 95
3, 1349756, Note_off_c, 1, 67, 64
3, 1349760, Note_on_c, 1, 66, 90
3, 1350236, Note_off_c, 1, 66, 64
3, 1350240, Note_on_c, 1, 69, 92
3, 1350476, Note_off_c, 1, 69, 64
3, 1350480, Note_on_c, 1, 62, 93
3, 1350716, Note_off_c, 1, 62, 64
3, 1350720, Note_on_c, 1, 67, 97
3, 1350956, Note_off_c, 1, 67, 64
3, 1350960, Note_on_c, 1, 71, 91
3, 1351196, Note_off_c, 1, 71, 64
3, 1351200, Note_on_c, 1, 73, 97
3, 1351436, Note_off_c, 1, 73, 64
3, 1351440, Note_on_c, 1, 69, 90
3, 1351676, Note_off_c, 1, 69, 64
3, 1351680, Note_on_c, 1, 67, 88
3, 1352156, Note_off_c, 1, 67, 64
3, 1352160, Note_on_c, 1, 66, 99
3, 1352640, Note_off_c, 1, 66, 64
3, 1352640, Note_on_c, 1, 71, 96
3, 1352756, Note_off_c, 1, 71, 64
3, 1352760, Note_on_c, 1, 69, 89
3, 1352876, Note_off_c, 1, 69, 64
3, 1352880, Note_on_c, 1, 71, 96
3, 1352996, Note_off_c, 1, 71, 64
3, 1353000, Note_on_c, 1, 67, 91
3, 1353116, Note_off_c, 1, 67, 64
3, 1353120, Note_on_c, 1, 62, 72
3, 1353236, Note_off_c, 1, 62, 64
3, 1353240, Note_on_c, 1, 67, 82
3, 1353356, Note_off_c, 1, 67, 64
3, 1353360, Note_on_c, 1, 69, 75
3, 1353476, Note_off_c, 1, 69, 64
3, 1353480, Note_on_c, 1, 67, 77
3, 1353596, Note_off_c, 1, 67, 64
3, 1353600, Note_on_c, 1, 69, 64
3, 1353716, Note_off_c, 1, 69, 64
3, 1353720, Note_on_c, 1, 66, 80
3, 1353836, Note_off_c, 1, 66, 64
3, 1353840, Note_on_c, 1, 62, 66
3, 1353956, Note_off_c, 1, 62, 64
3, 1353960, Note_on_c, 1, 66, 71
3, 1354076, Note_off_c, 1, 66, 64
3, 1354080, Note_on_c, 1, 67, 85
3, 1354196, Note_off_c, 1, 67, 64
3, 1354200, Note_on_c, 1, 66, 76
3, 1354316, Note_off_c, 1, 66, 64
3, 1354320, Note_on_c, 1, 67, 86
3, 1354436, Note_off_c, 1, 67, 64
3, 1354440, Note_on_c, 1, 71, 90
3, 1354556, Note_off_c, 1, 71, 64
3, 1354560, Note_on_c, 1, 69, 84
3, 1354676, Note_off_c, 1, 69, 64
3, 1354680, Note_on_c, 1, 67, 85
3, 1354796, Note_off_c, 1, 67, 64
3, 1354800, Note_on_c, 1, 66, 85
3, 1354916, Note_off_c, 1, 66, 64
3, 1354920, Note_on_c, 1, 64, 83
3, 1355036, Note_off_c, 1, 64, 64
3, 1355040, Note_on_c, 1, 66, 74
3, 1355156, Note_off_c, 1, 66, 64
3, 1355160, Note_on_c, 1, 67, 85
3, 1355276, Note_off_c, 1, 67, 64
3, 1355280, Note_on_c, 1, 69, 82
3, 1355396, Note_off_c, 1, 69, 64
3, 1355400, Note_on_c, 1, 66, 84
3, 1355516, Note_off_c, 1, 66, 64
3, 1355520, Note_on_c, 1, 67, 86
3, 1355636, Note_off_c, 1, 67, 64
3, 1355760, Note_on_c, 1, 67, 97
3, 1356476, Note_off_c, 1, 67, 64
3, 1356480, Note_on_c, 1, 67, 96
3, 1357196, Note_off_c, 1, 67, 64
3, 1357200, Note_on_c, 1, 67, 96
3, 1357436, Note_off_c, 1, 67, 64
3, 1357440, Note_on_c, 1, 66, 97
3, 1357676, Note_off_c, 1, 66, 64
3, 1357680, Note_on_c, 1, 67, 88
3, 1358160, Note_off_c, 1, 67, 64
3, 1358880, Note_on_c, 1, 74, 93
3, 1359116, Note_off_c, 1, 74, 64
3, 1359120, Note_on_c, 1, 73, 92
3, 1359596, Note_off_c, 1, 73, 64
3, 1359600, Note_on_c, 1, 72, 109
3, 1359836, Note_off_c, 1, 72, 64
3, 1359840, Note_on_c, 1, 71, 100
3, 1360076, Note_off_c, 1, 71, 64
3, 1360080, Note_on_c, 1, 64, 93
3, 1360316, Note_off_c, 1, 64, 64
3, 1360320, Note_on_c, 1, 68, 89
3, 1360556, Note_off_c, 1, 68, 64
3, 1360560, Note_on_c, 1, 69, 97
3, 1361036, Note_off_c, 1, 69, 64
3, 1361040, Note_on_c, 1, 67, 95
3, 1361276, Note_off_c, 1, 67, 64
3, 1361280, Note_on_c, 1, 66, 90
3, 1361756, Note_off_c, 1, 66, 64
3, 1361760, Note_on_c, 1, 69, 92
3, 1361996, Note_off_c, 1, 69, 64
3, 1362000, Note_on_c, 1, 62, 93
3, 1362236, Note_off_c, 1, 62, 64
3, 1362240, Note_on_c, 1, 67, 97
3, 1362476, Note_off_c, 1, 67, 64
3, 1362480, Note_on_c, 1, 71, 91
3, 1362716, Note_off_c, 1, 71, 64
3, 1362720, Note_on_c, 1, 73, 97
3, 1362956, Note_off_c, 1, 73, 64
3, 1362960, Note_on_c, 1, 69, 90
3, 1363196, Note_off_c, 1, 69, 64
3, 1363200, Note_on_c, 1, 67, 88
3, 1363676, Note_off_c, 1, 67, 64
3, 1363680, Note_on_c, 1, 66, 99
3, 1364160, Note_off_c, 1, 66, 64
3, 1364160, Note_on_c, 1, 62, 96
3, 1364276, Note_off_c, 1, 62, 64
3, 1364400, Note_on_c, 1, 62, 97
3, 1365116, Note_off_c, 1, 62, 64
3, 1365120, Note_on_c, 1, 59, 92
3, 1365356, Note_off_c, 1, 59, 64
3, 1365360, Note_on_c, 1, 67, 92
3, 1365836, Note_off_c, 1, 67, 64
3, 1365840, Note_on_c, 1, 67, 93
3, 1366076, Note_off_c, 1, 67, 64
3, 1366080, Note_on_c, 1, 72, 98
3, 1366316, Note_off_c, 1, 72, 64
3, 1366320, Note_on_c, 1, 66, 94
3, 1366800, Note_off_c, 1, 66, 64
3, 1367040, Note_on_c, 1, 71, 91
3, 1367156, Note_off_c, 1, 71, 64
3, 1367160, Note_on_c, 1, 69, 82
3, 1367276, Note_off_c, 1, 69, 64
3, 1367280, Note_on_c, 1, 71, 92
3, 1367396, Note_off_c, 1, 71, 64
3, 1367400, Note_on_c, 1, 67, 88
3, 1367516, Note_off_c, 1, 67, 64
3, 1367520, Note_on_c, 1, 64, 89
3, 1367636, Note_off_c, 1, 64, 64
3, 1367640, Note_on_c, 1, 67, 92
3, 1367756, Note_off_c, 1, 67, 64
3, 1367760, Note_on_c, 1, 72, 92
3, 1367876, Note_off_c, 1, 72, 64
3, 1367880, Note_on_c, 1, 71, 88
3, 1367996, Note_off_c, 1, 71, 64
3, 1368000, Note_on_c, 1, 72, 88
3, 1368116, Note_off_c, 1, 72, 64
3, 1368120, Note_on_c, 1, 69, 88
3, 1368236, Note_off_c, 1, 69, 64
3, 1368240, Note_on_c, 1, 66, 92
3, 1368356, Note_off_c, 1, 66, 64
3, 1368360, Note_on_c, 1, 69, 88
3, 1368476, Note_off_c, 1, 69, 64
3, 1368480, Note_on_c, 1, 71, 93
3, 1368596, Note_off_c, 1, 71, 64
3, 1368600, Note_on_c, 1, 69, 84
3, 1368716, Note_off_c, 1, 69, 64
3, 1368720, Note_on_c, 1, 71, 89
3, 1368836, Note_off_c, 1, 71, 64
3, 1368840, Note_on_c, 1, 72, 93
3, 1368956, Note_off_c, 1, 72, 64
3, 1368960, Note_on_c, 1, 71, 81
3, 1369076, Note_off_c, 1, 71, 64
3, 1369080, Note_on_c, 1, 69, 90
3, 1369196, Note_off_c, 1, 69, 64
3, 1369200, Note_on_c, 1, 67, 90
3, 1369316, Note_off_c, 1, 67, 64
3, 1369320, Note_on_c, 1, 66, 94
3, 1369436, Note_off_c, 1, 66, 64
3, 1369440, Note_on_c, 1, 67, 88
3, 1369556, Note_off_c, 1, 67, 64
3, 1369560, Note_on_c, 1, 69, 89
3, 1369676, Note_off_c, 1, 69, 64
3, 1369680, Note_on_c, 1, 71, 88
3, 1369796, Note_off_c, 1, 71, 64
3, 1369800, Note_on_c, 1, 67, 88
3, 1369916, Note_off_c, 1, 67, 64
3, 1369920, Note_on_c, 1, 64, 92
3, 1370400, Note_off_c, 1, 64, 64
3, 1370880, Note_on_c, 1, 62, 86
3, 1370996, Note_off_c, 1, 62, 64
3, 1371000, Note_on_c, 1, 67, 88
3, 1371116, Note_off_c, 1, 67, 64
3, 1371120, Note_on_c, 1, 71, 92
3, 1371236, Note_off_c, 1, 71, 64
3, 1371240, Note_on_c, 1, 67, 91
3, 1371356, Note_off_c, 1, 67, 64
3, 1371360, Note_on_c, 1, 64, 92
3, 1372076, Note_off_c, 1, 64, 64
3, 1372080, Note_on_c, 1, 62, 100
3, 1372320, Note_off_c, 1, 62, 64
3, 1372800, Note_on_c, 1, 55, 100
3, 1372920, Note_off_c, 1, 55, 64
3, 1373040, Note_on_c, 1, 55, 101
3, 1373756, Note_off_c, 1, 55, 64
3, 1373760, Note_on_c, 1, 48, 111
3, 1373996, Note_off_c, 1, 48, 64
3, 1374000, Note_on_c, 1, 60, 115
3, 1374476, Note_off_c, 1, 60, 64
3, 1374480, Note_on_c, 1, 57, 93
3, 1374716, Note_off_c, 1, 57, 64
3, 1374720, Note_on_c, 1, 60, 98
3, 1375196, Note_off_c, 1, 60, 64
3, 1375200, Note_on_c, 1, 59, 96
3, 1375680, Note_off_c, 1, 59, 64
3, 1474080, Note_on_c, 1, 67, 121
3, 1475516, Note_off_c, 1, 67, 64
3, 1475520, Note_on_c, 1, 66, 117
3, 1475756, Note_off_c, 1, 66, 64
3, 1475760, Note_on_c, 1, 64, 113
3, 1475996, Note_off_c, 1, 64, 64
3, 1476000, Note_on_c, 1, 66, 108
3, 1476476, Note_off_c, 1, 66, 64
3, 1476480, Note_on_c, 1, 69, 107
3, 1476956, Note_off_c, 1, 69, 64
3, 1476960, Note_on_c, 1, 62, 115
3, 1478396, Note_off_c, 1, 62, 64
3, 1478400, Note_on_c, 1, 65, 109
3, 1478876, Note_off_c, 1, 65, 64
3, 1478880, Note_on_c, 1, 64, 117
3, 1480316, Note_off_c, 1, 64, 64
3, 1480320, Note_on_c, 1, 67, 115
3, 1481276, Note_off_c, 1, 67, 64
3, 1481280, Note_on_c, 1, 66, 115
3, 1481516, Note_off_c, 1, 66, 64
3, 1481520, Note_on_c, 1, 64, 107
3, 1481756, Note_off_c, 1, 64, 64
3, 1481760, Note_on_c, 1, 66, 106
3, 1482236, Note_off_c, 1, 66, 64
3, 1482240, Note_on_c, 1, 69, 107
3, 1483196, Note_off_c, 1, 69, 64
3, 1483200, Note_on_c, 1, 67, 102
3, 1483436, Note_off_c, 1, 67, 64
3, 1483440, Note_on_c, 1, 66, 104
3, 1483676, Note_off_c, 1, 66, 64
3, 1483680, Note_on_c, 1, 67, 107
3, 1484156, Note_off_c, 1, 67, 64
3, 1484160, Note_on_c, 1, 71, 111
3, 1484636, Note_off_c, 1, 71, 64
3, 1484640, Note_on_c, 1, 64, 117
3, 1485596, Note_off_c, 1, 64, 64
3, 1485600, Note_on_c, 1, 71, 119
3, 1486556, Note_off_c, 1, 71, 64
3, 1486560, Note_on_c, 1, 69, 102
3, 1487516, Note_off_c, 1, 69, 64
3, 1487520, Note_on_c, 1, 74, 107
3, 1488476, Note_off_c, 1, 74, 64
3, 1488480, Note_on_c, 1, 76, 121
3, 1492796, Note_off_c, 1, 76, 64
3, 1492800, Note_on_c, 1, 74, 102
3, 1493036, Note_off_c, 1, 74, 64
3, 1493040, Note_on_c, 1, 73, 106
3, 1493276, Note_off_c, 1, 73, 64
3, 1493280, Note_on_c, 1, 74, 101
3, 1493756, Note_off_c, 1, 74, 64
3, 1493760, Note_on_c, 1, 78, 108
3, 1494236, Note_off_c, 1, 78, 64
3, 1494240, Note_on_c, 1, 71, 119
3, 1495676, Note_off_c, 1, 71, 64
3, 1495680, Note_on_c, 1, 76, 107
3, 1495916, Note_off_c, 1, 76, 64
3, 1495920, Note_on_c, 1, 74, 111
3, 1496156, Note_off_c, 1, 74, 64
3, 1496160, Note_on_c, 1, 76, 125
3, 1496636, Note_off_c, 1, 76, 64
3, 1496640, Note_on_c, 1, 74, 117
3, 1497596, Note_off_c, 1, 74, 64
3, 1497600, Note_on_c, 1, 73, 125
3, 1498076, Note_off_c, 1, 73, 64
3, 1498080, Note_on_c, 1, 74, 115
3, 1498556, Note_off_c, 1, 74, 64
3, 1498560, Note_on_c, 1, 69, 95
3, 1498796, Note_off_c, 1, 69, 64
3, 1498800, Note_on_c, 1, 67, 106
3, 1499036, Note_off_c, 1, 67, 64
3, 1499040, Note_on_c, 1, 69, 101
3, 1499996, Note_off_c, 1, 69, 64
3, 1502880, Note_on_c, 1, 71, 119
3, 1504316, Note_off_c, 1, 71, 64
3, 1504320, Note_on_c, 1, 69, 98
3, 1504556, Note_off_c, 1, 69, 64
3, 1504560, Note_on_c, 1, 67, 107
3, 1504796, Note_off_c, 1, 67, 64
3, 1504800, Note_on_c, 1, 69, 98
3, 1505276, Note_off_c, 1, 69, 64
3, 1505280, Note_on_c, 1, 72, 109
3, 1505756, Note_off_c, 1, 72, 64
3, 1505760, Note_on_c, 1, 66, 117
3, 1506716, Note_off_c, 1, 66, 64
3, 1506720, Note_on_c, 1, 71, 124
3, 1507680, Note_off_c, 1, 71, 64
3, 1508640, Note_on_c, 1, 79, 117
3, 1509596, Note_off_c, 1, 79, 64
3, 1510080, Note_on_c, 1, 78, 106
3, 1510316, Note_off_c, 1, 78, 64
3, 1510320, Note_on_c, 1, 76, 104
3, 1510556, Note_off_c, 1, 76, 64
3, 1510560, Note_on_c, 1, 78, 101
3, 1511036, Note_off_c, 1, 78, 64
3, 1511040, Note_on_c, 1, 81, 106
3, 1511516, Note_off_c, 1, 81, 64
3, 1511520, Note_on_c, 1, 75, 102
3, 1511996, Note_off_c, 1, 75, 64
3, 1512000, Note_on_c, 1, 76, 104
3, 1512956, Note_off_c, 1, 76, 64
3, 1512960, Note_on_c, 1, 75, 102
3, 1513436, Note_off_c, 1, 75, 64
3, 1513440, Note_on_c, 1, 76, 106
3, 1514396, Note_off_c, 1, 76, 64
3, 1514400, Note_on_c, 1, 71, 113
3, 1515836, Note_off_c, 1, 71, 64
3, 1515840, Note_on_c, 1, 69, 97
3, 1516076, Note_off_c, 1, 69, 64
3, 1516080, Note_on_c, 1, 67, 96
3, 1516316, Note_off_c, 1, 67, 64
3, 1516320, Note_on_c, 1, 69, 98
3, 1516796, Note_off_c, 1, 69, 64
3, 1516800, Note_on_c, 1, 72, 101
3, 1517276, Note_off_c, 1, 72, 64
3, 1517280, Note_on_c, 1, 66, 94
3, 1517756, Note_off_c, 1, 66, 64
3, 1517760, Note_on_c, 1, 62, 98
3, 1518236, Note_off_c, 1, 62, 64
3, 1518240, Note_on_c, 1, 67, 104
3, 1519680, Note_off_c, 1, 67, 64
3, 1519680, Note_on_c, 1, 66, 102
3, 1519916, Note_off_c, 1, 66, 64
3, 1519920, Note_on_c, 1, 64, 86
3, 1520156, Note_off_c, 1, 64, 64
3, 1520160, Note_on_c, 1, 66, 96
3, 1520636, Note_off_c, 1, 66, 64
3, 1520640, Note_on_c, 1, 69, 92
3, 1521116, Note_off_c, 1, 69, 64
3, 1521120, Note_on_c, 1, 62, 89
3, 1522796, Note_off_c, 1, 62, 64
3, 1524000, Note_on_c, 1, 67, 119
3, 1525440, Note_off_c, 1, 67, 64
3, 1525440, Note_on_c, 1, 67, 108
3, 1525676, Note_off_c, 1, 67, 64
3, 1525680, Note_on_c, 1, 66, 111
3, 1525916, Note_off_c, 1, 66, 64
3, 1525920, Note_on_c, 1, 67, 110
3, 1527360, Note_off_c, 1, 67, 64
3, 1527360, Note_on_c, 1, 66, 97
3, 1527596, Note_off_c, 1, 66, 64
3, 1527600, Note_on_c, 1, 64, 104
3, 1527836, Note_off_c, 1, 64, 64
3, 1527840, Note_on_c, 1, 66, 104
3, 1528316, Note_off_c, 1, 66, 64
3, 1528320, Note_on_c, 1, 69, 106
3, 1529276, Note_off_c, 1, 69, 64
3, 1529280, Note_on_c, 1, 67, 97
3, 1529516, Note_off_c, 1, 67, 64
3, 1529520, Note_on_c, 1, 66, 85
3, 1529756, Note_off_c, 1, 66, 64
3, 1529760, Note_on_c, 1, 67, 102
3, 1530716, Note_off_c, 1, 67, 64
3, 1544280, Note_on_c, 1, 74, 102
3, 1544396, Note_off_c, 1, 74, 64
3, 1544400, Note_on_c, 1, 74, 107
3, 1544516, Note_off_c, 1, 74, 64
3, 1545720, Note_on_c, 1, 74, 104
3, 1545836, Note_off_c, 1, 74, 64
3, 1545840, Note_on_c, 1, 74, 104
3, 1545956, Note_off_c, 1, 74, 64
3, 1547160, Note_on_c, 1, 71, 101
3, 1547276, Note_off_c, 1, 71, 64
3, 1547280, Note_on_c, 1, 71, 104
3, 1547396, Note_off_c, 1, 71, 64
3, 1548600, Note_on_c, 1, 69, 102
3, 1548716, Note_off_c, 1, 69, 64
3, 1548720, Note_on_c, 1, 69, 100
3, 1548836, Note_off_c, 1, 69, 64
3, 1567320, Note_on_c, 1, 60, 96
3, 1567436, Note_off_c, 1, 60, 64
3, 1567440, Note_on_c, 1, 62, 95
3, 1567556, Note_off_c, 1, 62, 64
3, 1567560, Note_on_c, 1, 64, 102
3, 1567676, Note_off_c, 1, 64, 64
3, 1567680, Note_on_c, 1, 65, 97
3, 1567796, Note_off_c, 1, 65, 64
3, 1567800, Note_on_c, 1, 67, 83
3, 1567916, Note_off_c, 1, 67, 64
3, 1567920, Note_on_c, 1, 69, 96
3, 1568036, Note_off_c, 1, 69, 64
3, 1568040, Note_on_c, 1, 71, 100
3, 1568156, Note_off_c, 1, 71, 64
3, 1568160, Note_on_c, 1, 72, 115
3, 1568396, Note_off_c, 1, 72, 64
3, 1568760, Note_on_c, 1, 71, 104
3, 1568876, Note_off_c, 1, 71, 64
3, 1568880, Note_on_c, 1, 69, 96
3, 1568996, Note_off_c, 1, 69, 64
3, 1569000, Note_on_c, 1, 67, 102
3, 1569116, Note_off_c, 1, 67, 64
3, 1569120, Note_on_c, 1, 66, 93
3, 1569236, Note_off_c, 1, 66, 64
3, 1569240, Note_on_c, 1, 64, 95
3, 1569356, Note_off_c, 1, 64, 64
3, 1569360, Note_on_c, 1, 62, 86
3, 1569476, Note_off_c, 1, 62, 64
3, 1569480, Note_on_c, 1, 60, 102
3, 1569596, Note_off_c, 1, 60, 64
3, 1569600, Note_on_c, 1, 59, 104
3, 1569836, Note_off_c, 1, 59, 64
3, 1570200, Note_on_c, 1, 59, 96
3, 1570316, Note_off_c, 1, 59, 64
3, 1570440, Note_on_c, 1, 56, 82
3, 1570556, Note_off_c, 1, 56, 64
3, 1570680, Note_on_c, 1, 59, 84
3, 1570796, Note_off_c, 1, 59, 64
3, 1570920, Note_on_c, 1, 55, 97
3, 1571036, Note_off_c, 1, 55, 64
3, 1571160, Note_on_c, 1, 55, 95
3, 1571276, Note_off_c, 1, 55, 64
3, 1571400, Note_on_c, 1, 52, 104
3, 1571516, Note_off_c, 1, 52, 64
3, 1571640, Note_on_c, 1, 52, 102
3, 1571756, Note_off_c, 1, 52, 64
3, 1571880, Note_on_c, 1, 49, 96
3, 1571996, Note_off_c, 1, 49, 64
3, 1572120, Note_on_c, 1, 52, 102
3, 1572236, Note_off_c, 1, 52, 64
3, 1572360, Note_on_c, 1, 48, 101
3, 1572476, Note_off_c, 1, 48, 64
3, 1572600, Note_on_c, 1, 48, 101
3, 1572716, Note_off_c, 1, 48, 64
3, 1572840, Note_on_c, 1, 45, 102
3, 1572956, Note_off_c, 1, 45, 64
3, 1573080, Note_on_c, 1, 45, 100
3, 1573196, Note_off_c, 1, 45, 64
3, 1573320, Note_on_c, 1, 42, 92
3, 1573436, Note_off_c, 1, 42, 64
3, 1573560, Note_on_c, 1, 45, 92
3, 1573676, Note_off_c, 1, 45, 64
3, 1573800, Note_on_c, 1, 48, 92
3, 1573916, Note_off_c, 1, 48, 64
3, 1574040, Note_on_c, 1, 52, 92
3, 1574156, Note_off_c, 1, 52, 64
3, 1574280, Note_on_c, 1, 55, 92
3, 1574396, Note_off_c, 1, 55, 64
3, 1574520, Note_on_c, 1, 53, 107
3, 1574636, Note_off_c, 1, 53, 64
3, 1574760, Note_on_c, 1, 50, 72
3, 1574876, Note_off_c, 1, 50, 64
3, 1575000, Note_on_c, 1, 53, 107
3, 1575116, Note_off_c, 1, 53, 64
3, 1575240, Note_on_c, 1, 57, 102
3, 1575356, Note_off_c, 1, 57, 64
3, 1575480, Note_on_c, 1, 60, 106
3, 1575596, Note_off_c, 1, 60, 64
3, 1575720, Note_on_c, 1, 64, 102
3, 1575836, Note_off_c, 1, 64, 64
3, 1575960, Note_on_c, 1, 69, 92
3, 1576076, Note_off_c, 1, 69, 64
3, 1576080, Note_on_c, 1, 71, 85
3, 1576196, Note_off_c, 1, 71, 64
3, 1576200, Note_on_c, 1, 72, 95
3, 1576316, Note_off_c, 1, 72, 64
3, 1576320, Note_on_c, 1, 74, 84
3, 1576440, Note_off_c, 1, 74, 64
3, 1576440, Note_on_c, 1, 76, 95
3, 1576556, Note_off_c, 1, 76, 64
3, 1576560, Note_on_c, 1, 78, 85
3, 1576676, Note_off_c, 1, 78, 64
3, 1576680, Note_on_c, 1, 79, 100
3, 1576796, Note_off_c, 1, 79, 64
3, 1576800, Note_on_c, 1, 81, 113
3, 1577036, Note_off_c, 1, 81, 64
3, 1577400, Note_on_c, 1, 74, 92
3, 1577516, Note_off_c, 1, 74, 64
3, 1577520, Note_on_c, 1, 72, 102
3, 1577636, Note_off_c, 1, 72, 64
3, 1577640, Note_on_c, 1, 71, 91
3, 1577756, Note_off_c, 1, 71, 64
3, 1577760, Note_on_c, 1, 69, 83
3, 1577876, Note_off_c, 1, 69, 64
3, 1577880, Note_on_c, 1, 67, 92
3, 1577996, Note_off_c, 1, 67, 64
3, 1578000, Note_on_c, 1, 66, 106
3, 1578116, Note_off_c, 1, 66, 64
3, 1578120, Note_on_c, 1, 64, 102
3, 1578236, Note_off_c, 1, 64, 64
3, 1578240, Note_on_c, 1, 62, 109
3, 1578476, Note_off_c, 1, 62, 64
3, 1722000, Note_on_c, 1, 67, 89
3, 1722480, Note_off_c, 1, 67, 64
3, 1722480, Note_on_c, 1, 62, 117
3, 1722960, Note_off_c, 1, 62, 64
3, 1723200, Note_on_c, 1, 67, 115
3, 1723440, Note_off_c, 1, 67, 64
3, 1723440, Note_on_c, 1, 67, 113
3, 1723796, Note_off_c, 1, 67, 64
3, 1723800, Note_on_c, 1, 64, 102
3, 1723916, Note_off_c, 1, 64, 64
3, 1723920, Note_on_c, 1, 64, 106
3, 1724036, Note_off_c, 1, 64, 64
3, 1724040, Note_on_c, 1, 66, 106
3, 1724400, Note_off_c, 1, 66, 64
3, 1724640, Note_on_c, 1, 69, 104
3, 1724876, Note_off_c, 1, 69, 64
3, 1724880, Note_on_c, 1, 71, 117
3, 1725236, Note_off_c, 1, 71, 64
3, 1725240, Note_on_c, 1, 67, 101
3, 1725356, Note_off_c, 1, 67, 64
3, 1725360, Note_on_c, 1, 64, 113
3, 1725836, Note_off_c, 1, 64, 64
3, 1726080, Note_on_c, 1, 57, 113
3, 1726316, Note_off_c, 1, 57, 64
3, 1726320, Note_on_c, 1, 62, 121
3, 1726800, Note_off_c, 1, 62, 64
3, 1726800, Note_on_c, 1, 62, 117
3, 1727276, Note_off_c, 1, 62, 64
3, 1727520, Note_on_c, 1, 60, 121
3, 1727756, Note_off_c, 1, 60, 64
3, 1727760, Note_on_c, 1, 59, 107
3, 1728116, Note_off_c, 1, 59, 64
3, 1728120, Note_on_c, 1, 60, 109
3, 1728236, Note_off_c, 1, 60, 64
3, 1728240, Note_on_c, 1, 62, 119
3, 1728716, Note_off_c, 1, 62, 64
3, 1728960, Note_on_c, 1, 55, 107
3, 1729196, Note_off_c, 1, 55, 64
3, 1729200, Note_on_c, 1, 60, 104
3, 1729680, Note_off_c, 1, 60, 64
3, 1729680, Note_on_c, 1, 52, 96
3, 1730156, Note_off_c, 1, 52, 64
3, 1730400, Note_on_c, 1, 55, 111
3, 1730636, Note_off_c, 1, 55, 64
3, 1730640, Note_on_c, 1, 54, 115
3, 1730996, Note_off_c, 1, 54, 64
3, 1731000, Note_on_c, 1, 55, 113
3, 1731116, Note_off_c, 1, 55, 64
3, 1731120, Note_on_c, 1, 57, 123
3, 1731596, Note_off_c, 1, 57, 64
3, 1731840, Note_on_c, 1, 50, 111
3, 1732076, Note_off_c, 1, 50, 64
3, 1732080, Note_on_c, 1, 55, 117
3, 1732556, Note_off_c, 1, 55, 64
3, 1732560, Note_on_c, 1, 43, 123
3, 1733036, Note_off_c, 1, 43, 64
3, 1733520, Note_on_c, 1, 71, 117
3, 1734000, Note_off_c, 1, 71, 64
3, 1734000, Note_on_c, 1, 71, 109
3, 1734480, Note_off_c, 1, 71, 64
3, 1734720, Note_on_c, 1, 79, 109
3, 1734956, Note_off_c, 1, 79, 64
3, 1734960, Note_on_c, 1, 79, 109
3, 1735320, Note_off_c, 1, 79, 64
3, 1735320, Note_on_c, 1, 76, 113
3, 1735436, Note_off_c, 1, 76, 64
3, 1735440, Note_on_c, 1, 78, 104
3, 1735500, Note_off_c, 1, 78, 64
3, 1735500, Note_on_c, 1, 76, 104
3, 1735560, Note_off_c, 1, 76, 64
3, 1735560, Note_on_c, 1, 78, 104
3, 1735920, Note_off_c, 1, 78, 64
3, 1736160, Note_on_c, 1, 72, 111
3, 1736396, Note_off_c, 1, 72, 64
3, 1736400, Note_on_c, 1, 71, 113
3, 1736756, Note_off_c, 1, 71, 64
3, 1736760, Note_on_c, 1, 75, 121
3, 1736876, Note_off_c, 1, 75, 64
3, 1736880, Note_on_c, 1, 76, 117
3, 1737356, Note_off_c, 1, 76, 64
3, 1737600, Note_on_c, 1, 76, 119
3, 1737836, Note_off_c, 1, 76, 64
3, 1737840, Note_on_c, 1, 69, 117
3, 1738196, Note_off_c, 1, 69, 64
3, 1738200, Note_on_c, 1, 73, 101
3, 1738320, Note_off_c, 1, 73, 64
3, 1738320, Note_on_c, 1, 64, 107
3, 1738796, Note_off_c, 1, 64, 64
3, 1739040, Note_on_c, 1, 73, 109
3, 1739280, Note_off_c, 1, 73, 64
3, 1739280, Note_on_c, 1, 73, 110
3, 1739516, Note_off_c, 1, 73, 64
3, 1739760, Note_on_c, 1, 74, 96
3, 1740240, Note_off_c, 1, 74, 64
3, 1740480, Note_on_c, 1, 74, 104
3, 1740716, Note_off_c, 1, 74, 64
3, 1740720, Note_on_c, 1, 74, 109
3, 1741200, Note_off_c, 1, 74, 64
3, 1741200, Note_on_c, 1, 74, 107
3, 1741680, Note_off_c, 1, 74, 64
3, 1741920, Note_on_c, 1, 76, 98
3, 1742156, Note_off_c, 1, 76, 64
3, 1742160, Note_on_c, 1, 69, 102
3, 1742512, Note_off_c, 1, 69, 64
3, 1742520, Note_on_c, 1, 67, 86
3, 1742580, Note_off_c, 1, 67, 64
3, 1742580, Note_on_c, 1, 66, 112
3, 1742640, Note_off_c, 1, 66, 64
3, 1742640, Note_on_c, 1, 64, 121
3, 1743120, Note_off_c, 1, 64, 64
3, 1743360, Note_on_c, 1, 57, 102
3, 1743596, Note_off_c, 1, 57, 64
3, 1743600, Note_on_c, 1, 62, 119
3, 1744080, Note_off_c, 1, 62, 64
3, 1744080, Note_on_c, 1, 62, 119
3, 1744560, Note_off_c, 1, 62, 64
3, 1745040, Note_on_c, 1, 62, 123
3, 1745520, Note_off_c, 1, 62, 64
3, 1745520, Note_on_c, 1, 60, 123
3, 1746000, Note_off_c, 1, 60, 64
3, 1746240, Note_on_c, 1, 60, 123
3, 1746480, Note_off_c, 1, 60, 64
3, 1746480, Note_on_c, 1, 59, 123
3, 1746840, Note_off_c, 1, 59, 64
3, 1746840, Note_on_c, 1, 62, 123
3, 1746960, Note_off_c, 1, 62, 64
3, 1746960, Note_on_c, 1, 67, 123
3, 1747440, Note_off_c, 1, 67, 64
3, 1747680, Note_on_c, 1, 74, 123
3, 1747920, Note_off_c, 1, 74, 64
3, 1747920, Note_on_c, 1, 73, 123
3, 1748400, Note_off_c, 1, 73, 64
3, 1748400, Note_on_c, 1, 75, 123
3, 1748880, Note_off_c, 1, 75, 64
3, 1749120, Note_on_c, 1, 76, 123
3, 1749360, Note_off_c, 1, 76, 64
3, 1749360, Note_on_c, 1, 75, 123
3, 1749840, Note_off_c, 1, 75, 64
3, 1749840, Note_on_c, 1, 66, 123
3, 1750320, Note_off_c, 1, 66, 64
3, 1750560, Note_on_c, 1, 75, 123
3, 1750800, Note_off_c, 1, 75, 64
3, 1750800, Note_on_c, 1, 76, 123
3, 1751280, Note_off_c, 1, 76, 64
3, 1751280, Note_on_c, 1, 71, 123
3, 1751760, Note_off_c, 1, 71, 64
3, 1752000, Note_on_c, 1, 69, 123
3, 1752240, Note_off_c, 1, 69, 64
3, 1752240, Note_on_c, 1, 69, 123
3, 1752600, Note_off_c, 1, 69, 64
3, 1752600, Note_on_c, 1, 71, 123
3, 1752720, Note_off_c, 1, 71, 64
3, 1752720, Note_on_c, 1, 72, 123
3, 1753200, Note_off_c, 1, 72, 64
3, 1753440, Note_on_c, 1, 72, 123
3, 1753680, Note_off_c, 1, 72, 64
3, 1753680, Note_on_c, 1, 71, 123
3, 1754160, Note_off_c, 1, 71, 64
3, 1754160, Note_on_c, 1, 69, 123
3, 1754640, Note_off_c, 1, 69, 64
3, 1754880, Note_on_c, 1, 69, 123
3, 1755120, Note_off_c, 1, 69, 64
3, 1755120, Note_on_c, 1, 69, 123
3, 1755480, Note_off_c, 1, 69, 64
3, 1755480, Note_on_c, 1, 66, 123
3, 1755600, Note_off_c, 1, 66, 64
3, 1755600, Note_on_c, 1, 67, 123
3, 1756080, Note_off_c, 1, 67, 64
3, 1757400, Note_on_c, 1, 79, 123
3, 1757520, Note_off_c, 1, 79, 64
3, 1757520, Note_on_c, 1, 78, 123
3, 1757880, Note_off_c, 1, 78, 64
3, 1757880, Note_on_c, 1, 76, 123
3, 1758000, Note_off_c, 1, 76, 64
3, 1758000, Note_on_c, 1, 74, 123
3, 1758720, Note_off_c, 1, 74, 64
3, 1758840, Note_on_c, 1, 77, 123
3, 1758960, Note_off_c, 1, 77, 64
3, 1758960, Note_on_c, 1, 76, 123
3, 1759320, Note_off_c, 1, 76, 64
3, 1759320, Note_on_c, 1, 74, 123
3, 1759440, Note_off_c, 1, 74, 64
3, 1759440, Note_on_c, 1, 72, 123
3, 1760760, Note_on_c, 1, 69, 123
3, 1760880, Note_off_c, 1, 72, 64
3, 1760880, Note_off_c, 1, 69, 64
3, 1760880, Note_on_c, 1, 72, 123
3, 1761120, Note_off_c, 1, 72, 64
3, 1761840, Note_on_c, 1, 66, 123
3, 1762080, Note_off_c, 1, 66, 64
3, 1762320, Note_on_c, 1, 67, 123
3, 1762560, Note_off_c, 1, 67, 64
3, 1763280, Note_on_c, 1, 74, 123
3, 1763520, Note_off_c, 1, 74, 64
3, 1763760, Note_on_c, 1, 72, 123
3, 1764000, Note_off_c, 1, 72, 64
3, 1814220, Note_on_c, 1, 74, 101
3, 1814276, Note_off_c, 1, 74, 64
3, 1814280, Note_on_c, 1, 76, 90
3, 1814336, Note_off_c, 1, 76, 64
3, 1814340, Note_on_c, 1, 74, 95
3, 1814396, Note_off_c, 1, 74, 64
3, 1814400, Note_on_c, 1, 76, 90
3, 1814456, Note_off_c, 1, 76, 64
3, 1814460, Note_on_c, 1, 74, 93
3, 1814516, Note_off_c, 1, 74, 64
3, 1814520, Note_on_c, 1, 76, 95
3, 1814576, Note_off_c, 1, 76, 64
3, 1814580, Note_on_c, 1, 74, 92
3, 1814636, Note_off_c, 1, 74, 64
3, 1814700, Note_on_c, 1, 74, 95
3, 1814756, Note_off_c, 1, 74, 64
3, 1814760, Note_on_c, 1, 76, 93
3, 1814816, Note_off_c, 1, 76, 64
3, 1814820, Note_on_c, 1, 74, 90
3, 1814876, Note_off_c, 1, 74, 64
3, 1814880, Note_on_c, 1, 76, 95
3, 1814936, Note_off_c, 1, 76, 64
3, 1814940, Note_on_c, 1, 74, 92
3, 1814996, Note_off_c, 1, 74, 64
3, 1815000, Note_on_c, 1, 76, 92
3, 1815056, Note_off_c, 1, 76, 64
3, 1815060, Note_on_c, 1, 74, 97
3, 1815116, Note_off_c, 1, 74, 64
3, 1815180, Note_on_c, 1, 74, 97
3, 1815236, Note_off_c, 1, 74, 64
3, 1815240, Note_on_c, 1, 76, 91
3, 1815296, Note_off_c, 1, 76, 64
3, 1815300, Note_on_c, 1, 74, 91
3, 1815356, Note_off_c, 1, 74, 64
3, 1815360, Note_on_c, 1, 76, 90
3, 1815416, Note_off_c, 1, 76, 64
3, 1815420, Note_on_c, 1, 74, 97
3, 1815476, Note_off_c, 1, 74, 64
3, 1815480, Note_on_c, 1, 76, 93
3, 1815536, Note_off_c, 1, 76, 64
3, 1815540, Note_on_c, 1, 74, 96
3, 1815596, Note_off_c, 1, 74, 64
3, 1815660, Note_on_c, 1, 74, 100
3, 1815716, Note_off_c, 1, 74, 64
3, 1815720, Note_on_c, 1, 76, 84
3, 1815776, Note_off_c, 1, 76, 64
3, 1815780, Note_on_c, 1, 74, 89
3, 1815836, Note_off_c, 1, 74, 64
3, 1815840, Note_on_c, 1, 76, 89
3, 1815896, Note_off_c, 1, 76, 64
3, 1815900, Note_on_c, 1, 74, 95
3, 1815956, Note_off_c, 1, 74, 64
3, 1815960, Note_on_c, 1, 76, 92
3, 1816016, Note_off_c, 1, 76, 64
3, 1816020, Note_on_c, 1, 74, 92
3, 1816076, Note_off_c, 1, 74, 64
3, 1816140, Note_on_c, 1, 74, 91
3, 1816196, Note_off_c, 1, 74, 64
3, 1816200, Note_on_c, 1, 76, 89
3, 1816256, Note_off_c, 1, 76, 64
3, 1816260, Note_on_c, 1, 74, 92
3, 1816316, Note_off_c, 1, 74, 64
3, 1816320, Note_on_c, 1, 76, 91
3, 1816376, Note_off_c, 1, 76, 64
3, 1816380, Note_on_c, 1, 74, 91
3, 1816436, Note_off_c, 1, 74, 64
3, 1816440, Note_on_c, 1, 76, 92
3, 1816496, Note_off_c, 1, 76, 64
3, 1816500, Note_on_c, 1, 74, 93
3, 1816556, Note_off_c, 1, 74, 64
3, 1816620, Note_on_c, 1, 74, 95
3, 1816676, Note_off_c, 1, 74, 64
3, 1816680, Note_on_c, 1, 76, 88
3, 1816736, Note_off_c, 1, 76, 64
3, 1816740, Note_on_c, 1, 74, 90
3, 1816796, Note_off_c, 1, 74, 64
3, 1816800, Note_on_c, 1, 76, 92
3, 1816856, Note_off_c, 1, 76, 64
3, 1816860, Note_on_c, 1, 74, 91
3, 1816916, Note_off_c, 1, 74, 64
3, 1816920, Note_on_c, 1, 76, 90
3, 1816976, Note_off_c, 1, 76, 64
3, 1816980, Note_on_c, 1, 74, 90
3, 1817036, Note_off_c, 1, 74, 64
3, 1817100, Note_on_c, 1, 74, 96
3, 1817156, Note_off_c, 1, 74, 64
3, 1817160, Note_on_c, 1, 76, 91
3, 1817216, Note_off_c, 1, 76, 64
3, 1817220, Note_on_c, 1, 74, 92
3, 1817276, Note_off_c, 1, 74, 64
3, 1817280, Note_on_c, 1, 76, 96
3, 1817336, Note_off_c, 1, 76, 64
3, 1817340, Note_on_c, 1, 74, 90
3, 1817396, Note_off_c, 1, 74, 64
3, 1817400, Note_on_c, 1, 76, 93
3, 1817456, Note_off_c, 1, 76, 64
3, 1817460, Note_on_c, 1, 74, 93
3, 1817516, Note_off_c, 1, 74, 64
3, 1817580, Note_on_c, 1, 74, 97
3, 1817636, Note_off_c, 1, 74, 64
3, 1817640, Note_on_c, 1, 76, 86
3, 1817696, Note_off_c, 1, 76, 64
3, 1817700, Note_on_c, 1, 74, 90
3, 1817756, Note_off_c, 1, 74, 64
3, 1817760, Note_on_c, 1, 76, 92
3, 1817816, Note_off_c, 1, 76, 64
3, 1817820, Note_on_c, 1, 74, 95
3, 1817876, Note_off_c, 1, 74, 64
3, 1817880, Note_on_c, 1, 76, 88
3, 1817936, Note_off_c, 1, 76, 64
3, 1817940, Note_on_c, 1, 74, 93
3, 1817996, Note_off_c, 1, 74, 64
3, 1818060, Note_on_c, 1, 73, 92
3, 1818116, Note_off_c, 1, 73, 64
3, 1818120, Note_on_c, 1, 74, 84
3, 1818176, Note_off_c, 1, 74, 64
3, 1818180, Note_on_c, 1, 73, 85
3, 1818236, Note_off_c, 1, 73, 64
3, 1818240, Note_on_c, 1, 74, 89
3, 1818296, Note_off_c, 1, 74, 64
3, 1818300, Note_on_c, 1, 73, 94
3, 1818356, Note_off_c, 1, 73, 64
3, 1818360, Note_on_c, 1, 74, 93
3, 1818416, Note_off_c, 1, 74, 64
3, 1818420, Note_on_c, 1, 73, 93
3, 1818476, Note_off_c, 1, 73, 64
3, 1818540, Note_on_c, 1, 74, 86
3, 1818596, Note_off_c, 1, 74, 64
3, 1818600, Note_on_c, 1, 76, 89
3, 1818656, Note_off_c, 1, 76, 64
3, 1818660, Note_on_c, 1, 74, 86
3, 1818716, Note_off_c, 1, 74, 64
3, 1818720, Note_on_c, 1, 76, 90
3, 1818776, Note_off_c, 1, 76, 64
3, 1818780, Note_on_c, 1, 74, 86
3, 1818836, Note_off_c, 1, 74, 64
3, 1818840, Note_on_c, 1, 76, 92
3, 1818896, Note_off_c, 1, 76, 64
3, 1818900, Note_on_c, 1, 74, 84
3, 1818956, Note_off_c, 1, 74, 64
3, 1819020, Note_on_c, 1, 74, 90
3, 1819076, Note_off_c, 1, 74, 64
3, 1819080, Note_on_c, 1, 76, 90
3, 1819136, Note_off_c, 1, 76, 64
3, 1819140, Note_on_c, 1, 74, 85
3, 1819196, Note_off_c, 1, 74, 64
3, 1819200, Note_on_c, 1, 76, 92
3, 1819256, Note_off_c, 1, 76, 64
3, 1819260, Note_on_c, 1, 74, 88
3, 1819316, Note_off_c, 1, 74, 64
3, 1819320, Note_on_c, 1, 76, 72
3, 1819376, Note_off_c, 1, 76, 64
3, 1819380, Note_on_c, 1, 74, 90
3, 1819436, Note_off_c, 1, 74, 64
3, 1819500, Note_on_c, 1, 74, 93
3, 1819556, Note_off_c, 1, 74, 64
3, 1819560, Note_on_c, 1, 76, 92
3, 1819616, Note_off_c, 1, 76, 64
3, 1819620, Note_on_c, 1, 74, 90
3, 1819676, Note_off_c, 1, 74, 64
3, 1819680, Note_on_c, 1, 76, 93
3, 1819736, Note_off_c, 1, 76, 64
3, 1819740, Note_on_c, 1, 74, 92
3, 1819796, Note_off_c, 1, 74, 64
3, 1819800, Note_on_c, 1, 76, 95
3, 1819856, Note_off_c, 1, 76, 64
3, 1819860, Note_on_c, 1, 74, 96
3, 1819916, Note_off_c, 1, 74, 64
3, 1821120, Note_on_c, 1, 71, 101
3, 1821356, Note_off_c, 1, 71, 64
3, 1821360, Note_on_c, 1, 72, 111
3, 1821596, Note_off_c, 1, 72, 64
3, 1822320, Note_on_c, 1, 79, 112
3, 1822556, Note_off_c, 1, 79, 64
3, 1822560, Note_on_c, 1, 73, 112
3, 1822796, Note_off_c, 1, 73, 64
3, 1822800, Note_on_c, 1, 74, 104
3, 1823036, Note_off_c, 1, 74, 64
3, 1823040, Note_on_c, 1, 54, 104
3, 1823276, Note_off_c, 1, 54, 64
3, 1823280, Note_on_c, 1, 55, 104
3, 1823516, Note_off_c, 1, 55, 64
3, 1823520, Note_on_c, 1, 49, 104
3, 1823756, Note_off_c, 1, 49, 64
3, 1823760, Note_on_c, 1, 50, 104
3, 1823996, Note_off_c, 1, 50, 64
3, 1824000, Note_on_c, 1, 38, 104
3, 1824236, Note_off_c, 1, 38, 64
3, 1824240, Note_on_c, 1, 43, 104
3, 1824476, Note_off_c, 1, 43, 64
3, 1824480, Note_on_c, 1, 76, 104
3, 1824716, Note_off_c, 1, 76, 64
3, 1824720, Note_on_c, 1, 74, 104
3, 1824956, Note_off_c, 1, 74, 64
3, 1824960, Note_on_c, 1, 72, 104
3, 1825196, Note_off_c, 1, 72, 64
3, 1825200, Note_on_c, 1, 71, 104
3, 1825436, Note_off_c, 1, 71, 64
3, 1825440, Note_on_c, 1, 69, 104
3, 1825440, Note_on_c, 1, 72, 104
3, 1825676, Note_off_c, 1, 69, 64
3, 1825676, Note_off_c, 1, 72, 64
3, 1825680, Note_on_c, 1, 74, 104
3, 1825680, Note_on_c, 1, 71, 104
3, 1825800, Note_off_c, 1, 74, 64
3, 1825800, Note_off_c, 1, 71, 64
3, 1831500, Note_on_c, 1, 62, 88
3, 1831556, Note_off_c, 1, 62, 64
3, 1831560, Note_on_c, 1, 64, 93
3, 1831616, Note_off_c, 1, 64, 64
3, 1831620, Note_on_c, 1, 62, 93
3, 1831676, Note_off_c, 1, 62, 64
3, 1831680, Note_on_c, 1, 64, 100
3, 1831736, Note_off_c, 1, 64, 64
3, 1831740, Note_on_c, 1, 62, 90
3, 1831796, Note_off_c, 1, 62, 64
3, 1831800, Note_on_c, 1, 64, 91
3, 1831856, Note_off_c, 1, 64, 64
3, 1831860, Note_on_c, 1, 62, 98
3, 1831916, Note_off_c, 1, 62, 64
3, 1831980, Note_on_c, 1, 62, 90
3, 1832036, Note_off_c, 1, 62, 64
3, 1832040, Note_on_c, 1, 64, 89
3, 1832096, Note_off_c, 1, 64, 64
3, 1832100, Note_on_c, 1, 62, 90
3, 1832156, Note_off_c, 1, 62, 64
3, 1832160, Note_on_c, 1, 64, 91
3, 1832216, Note_off_c, 1, 64, 64
3, 1832220, Note_on_c, 1, 62, 91
3, 1832276, Note_off_c, 1, 62, 64
3, 1832280, Note_on_c, 1, 64, 93
3, 1832336, Note_off_c, 1, 64, 64
3, 1832340, Note_on_c, 1, 62, 95
3, 1832396, Note_off_c, 1, 62, 64
3, 1832460, Note_on_c, 1, 62, 98
3, 1832516, Note_off_c, 1, 62, 64
3, 1832520, Note_on_c, 1, 64, 93
3, 1832576, Note_off_c, 1, 64, 64
3, 1832580, Note_on_c, 1, 62, 92
3, 1832636, Note_off_c, 1, 62, 64
3, 1832640, Note_on_c, 1, 64, 92
3, 1832696, Note_off_c, 1, 64, 64
3, 1832700, Note_on_c, 1, 62, 85
3, 1832756, Note_off_c, 1, 62, 64
3, 1832760, Note_on_c, 1, 64, 92
3, 1832816, Note_off_c, 1, 64, 64
3, 1832820, Note_on_c, 1, 62, 102
3, 1832876, Note_off_c, 1, 62, 64
3, 1832940, Note_on_c, 1, 62, 100
3, 1832996, Note_off_c, 1, 62, 64
3, 1833000, Note_on_c, 1, 64, 96
3, 1833056, Note_off_c, 1, 64, 64
3, 1833060, Note_on_c, 1, 62, 90
3, 1833116, Note_off_c, 1, 62, 64
3, 1833120, Note_on_c, 1, 64, 97
3, 1833176, Note_off_c, 1, 64, 64
3, 1833180, Note_on_c, 1, 62, 91
3, 1833236, Note_off_c, 1, 62, 64
3, 1833240, Note_on_c, 1, 64, 97
3, 1833296, Note_off_c, 1, 64, 64
3, 1833300, Note_on_c, 1, 62, 97
3, 1833356, Note_off_c, 1, 62, 64
3, 1833420, Note_on_c, 1, 62, 100
3, 1833476, Note_off_c, 1, 62, 64
3, 1833480, Note_on_c, 1, 64, 96
3, 1833536, Note_off_c, 1, 64, 64
3, 1833540, Note_on_c, 1, 62, 89
3, 1833596, Note_off_c, 1, 62, 64
3, 1833600, Note_on_c, 1, 64, 95
3, 1833656, Note_off_c, 1, 64, 64
3, 1833660, Note_on_c, 1, 62, 90
3, 1833716, Note_off_c, 1, 62, 64
3, 1833720, Note_on_c, 1, 64, 96
3, 1833776, Note_off_c, 1, 64, 64
3, 1833780, Note_on_c, 1, 62, 97
3, 1833836, Note_off_c, 1, 62, 64
3, 1833900, Note_on_c, 1, 62, 101
3, 1833956, Note_off_c, 1, 62, 64
3, 1833960, Note_on_c, 1, 64, 91
3, 1834016, Note_off_c, 1, 64, 64
3, 1834020, Note_on_c, 1, 62, 86
3, 1834076, Note_off_c, 1, 62, 64
3, 1834080, Note_on_c, 1, 64, 91
3, 1834136, Note_off_c, 1, 64, 64
3, 1834140, Note_on_c, 1, 62, 83
3, 1834196, Note_off_c, 1, 62, 64
3, 1834200, Note_on_c, 1, 64, 92
3, 1834256, Note_off_c, 1, 64, 64
3, 1834260, Note_on_c, 1, 62, 88
3, 1834316, Note_off_c, 1, 62, 64
3, 1834380, Note_on_c, 1, 62, 97
3, 1834436, Note_off_c, 1, 62, 64
3, 1834440, Note_on_c, 1, 64, 97
3, 1834496, Note_off_c, 1, 64, 64
3, 1834500, Note_on_c, 1, 62, 91
3, 1834556, Note_off_c, 1, 62, 64
3, 1834560, Note_on_c, 1, 64, 93
3, 1834616, Note_off_c, 1, 64, 64
3, 1834620, Note_on_c, 1, 62, 78
3, 1834676, Note_off_c, 1, 62, 64
3, 1834680, Note_on_c, 1, 64, 96
3, 1834736, Note_off_c, 1, 64, 64
3, 1834740, Note_on_c, 1, 62, 92
3, 1834796, Note_off_c, 1, 62, 64
3, 1834860, Note_on_c, 1, 62, 101
3, 1834916, Note_off_c, 1, 62, 64
3, 1834920, Note_on_c, 1, 64, 92
3, 1834976, Note_off_c, 1, 64, 64
3, 1834980, Note_on_c, 1, 62, 91
3, 1835036, Note_off_c, 1, 62, 64
3, 1835040, Note_on_c, 1, 64, 93
3, 1835096, Note_off_c, 1, 64, 64
3, 1835100, Note_on_c, 1, 62, 88
3, 1835156, Note_off_c, 1, 62, 64
3, 1835160, Note_on_c, 1, 64, 101
3, 1835216, Note_off_c, 1, 64, 64
3, 1835220, Note_on_c, 1, 62, 97
3, 1835276, Note_off_c, 1, 62, 64
3, 1835340, Note_on_c, 1, 61, 96
3, 1835396, Note_off_c, 1, 61, 64
3, 1835400, Note_on_c, 1, 62, 92
3, 1835456, Note_off_c, 1, 62, 64
3, 1835460, Note_on_c, 1, 61, 102
3, 1835516, Note_off_c, 1, 61, 64
3, 1835520, Note_on_c, 1, 62, 91
3, 1835576, Note_off_c, 1, 62, 64
3, 1835580, Note_on_c, 1, 61, 88
3, 1835636, Note_off_c, 1, 61, 64
3, 1835640, Note_on_c, 1, 62, 92
3, 1835696, Note_off_c, 1, 62, 64
3, 1835700, Note_on_c, 1, 61, 101
3, 1835756, Note_off_c, 1, 61, 64
3, 1843020, Note_on_c, 1, 79, 97
3, 1843076, Note_off_c, 1, 79, 64
3, 1843080, Note_on_c, 1, 81, 78
3, 1843136, Note_off_c, 1, 81, 64
3, 1843140, Note_on_c, 1, 79, 76
3, 1843196, Note_off_c, 1, 79, 64
3, 1843200, Note_on_c, 1, 81, 82
3, 1843256, Note_off_c, 1, 81, 64
3, 1843260, Note_on_c, 1, 79, 80
3, 1843316, Note_off_c, 1, 79, 64
3, 1843320, Note_on_c, 1, 81, 84
3, 1843376, Note_off_c, 1, 81, 64
3, 1843380, Note_on_c, 1, 79, 81
3, 1843436, Note_off_c, 1, 79, 64
3, 1843500, Note_on_c, 1, 79, 81
3, 1843556, Note_off_c, 1, 79, 64
3, 1843560, Note_on_c, 1, 81, 80
3, 1843616, Note_off_c, 1, 81, 64
3, 1843620, Note_on_c, 1, 79, 71
3, 1843676, Note_off_c, 1, 79, 64
3, 1843680, Note_on_c, 1, 81, 82
3, 1843736, Note_off_c, 1, 81, 64
3, 1843740, Note_on_c, 1, 79, 71
3, 1843796, Note_off_c, 1, 79, 64
3, 1843800, Note_on_c, 1, 81, 90
3, 1843856, Note_off_c, 1, 81, 64
3, 1843860, Note_on_c, 1, 79, 77
3, 1843916, Note_off_c, 1, 79, 64
3, 1843980, Note_on_c, 1, 79, 96
3, 1844036, Note_off_c, 1, 79, 64
3, 1844040, Note_on_c, 1, 81, 83
3, 1844096, Note_off_c, 1, 81, 64
3, 1844100, Note_on_c, 1, 79, 85
3, 1844156, Note_off_c, 1, 79, 64
3, 1844160, Note_on_c, 1, 81, 84
3, 1844216, Note_off_c, 1, 81, 64
3, 1844220, Note_on_c, 1, 79, 71
3, 1844276, Note_off_c, 1, 79, 64
3, 1844280, Note_on_c, 1, 81, 89
3, 1844336, Note_off_c, 1, 81, 64
3, 1844340, Note_on_c, 1, 79, 91
3, 1844396, Note_off_c, 1, 79, 64
3, 1844460, Note_on_c, 1, 79, 98
3, 1844516, Note_off_c, 1, 79, 64
3, 1844520, Note_on_c, 1, 81, 89
3, 1844576, Note_off_c, 1, 81, 64
3, 1844580, Note_on_c, 1, 79, 86
3, 1844636, Note_off_c, 1, 79, 64
3, 1844640, Note_on_c, 1, 81, 84
3, 1844696, Note_off_c, 1, 81, 64
3, 1844700, Note_on_c, 1, 79, 85
3, 1844756, Note_off_c, 1, 79, 64
3, 1844760, Note_on_c, 1, 81, 80
3, 1844816, Note_off_c, 1, 81, 64
3, 1844820, Note_on_c, 1, 79, 91
3, 1844876, Note_off_c, 1, 79, 64
3, 1844940, Note_on_c, 1, 79, 100
3, 1844996, Note_off_c, 1, 79, 64
3, 1845000, Note_on_c, 1, 81, 91
3, 1845056, Note_off_c, 1, 81, 64
3, 1845060, Note_on_c, 1, 79, 80
3, 1845116, Note_off_c, 1, 79, 64
3, 1845120, Note_on_c, 1, 81, 85
3, 1845176, Note_off_c, 1, 81, 64
3, 1845180, Note_on_c, 1, 79, 66
3, 1845236, Note_off_c, 1, 79, 64
3, 1845240, Note_on_c, 1, 81, 86
3, 1845296, Note_off_c, 1, 81, 64
3, 1845300, Note_on_c, 1, 79, 88
3, 1845356, Note_off_c, 1, 79, 64
3, 1845420, Note_on_c, 1, 79, 101
3, 1845476, Note_off_c, 1, 79, 64
3, 1845480, Note_on_c, 1, 81, 88
3, 1845536, Note_off_c, 1, 81, 64
3, 1845540, Note_on_c, 1, 79, 88
3, 1845596, Note_off_c, 1, 79, 64
3, 1845600, Note_on_c, 1, 81, 85
3, 1845656, Note_off_c, 1, 81, 64
3, 1845660, Note_on_c, 1, 79, 82
3, 1845716, Note_off_c, 1, 79, 64
3, 1845720, Note_on_c, 1, 81, 90
3, 1845776, Note_off_c, 1, 81, 64
3, 1845780, Note_on_c, 1, 79, 88
3, 1845836, Note_off_c, 1, 79, 64
3, 1845900, Note_on_c, 1, 79, 97
3, 1845956, Note_off_c, 1, 79, 64
3, 1845960, Note_on_c, 1, 81, 85
3, 1846016, Note_off_c, 1, 81, 64
3, 1846020, Note_on_c, 1, 79, 86
3, 1846076, Note_off_c, 1, 79, 64
3, 1846080, Note_on_c, 1, 81, 88
3, 1846136, Note_off_c, 1, 81, 64
3, 1846140, Note_on_c, 1, 79, 78
3, 1846196, Note_off_c, 1, 79, 64
3, 1846200, Note_on_c, 1, 81, 90
3, 1846256, Note_off_c, 1, 81, 64
3, 1846260, Note_on_c, 1, 79, 86
3, 1846316, Note_off_c, 1, 79, 64
3, 1846380, Note_on_c, 1, 79, 98
3, 1846436, Note_off_c, 1, 79, 64
3, 1846440, Note_on_c, 1, 81, 89
3, 1846496, Note_off_c, 1, 81, 64
3, 1846500, Note_on_c, 1, 79, 91
3, 1846556, Note_off_c, 1, 79, 64
3, 1846560, Note_on_c, 1, 81, 89
3, 1846616, Note_off_c, 1, 81, 64
3, 1846620, Note_on_c, 1, 79, 80
3, 1846676, Note_off_c, 1, 79, 64
3, 1846680, Note_on_c, 1, 81, 101
3, 1846736, Note_off_c, 1, 81, 64
3, 1846740, Note_on_c, 1, 79, 95
3, 1846796, Note_off_c, 1, 79, 64
3, 1846860, Note_on_c, 1, 78, 82
3, 1846916, Note_off_c, 1, 78, 64
3, 1846920, Note_on_c, 1, 79, 89
3, 1846976, Note_off_c, 1, 79, 64
3, 1846980, Note_on_c, 1, 78, 86
3, 1847036, Note_off_c, 1, 78, 64
3, 1847040, Note_on_c, 1, 79, 91
3, 1847096, Note_off_c, 1, 79, 64
3, 1847100, Note_on_c, 1, 78, 92
3, 1847156, Note_off_c, 1, 78, 64
3, 1847160, Note_on_c, 1, 79, 83
3, 1847216, Note_off_c, 1, 79, 64
3, 1847220, Note_on_c, 1, 78, 94
3, 1847276, Note_off_c, 1, 78, 64
3, 1851660, Note_on_c, 1, 72, 97
3, 1851716, Note_off_c, 1, 72, 64
3, 1851720, Note_on_c, 1, 74, 85
3, 1851776, Note_off_c, 1, 74, 64
3, 1851780, Note_on_c, 1, 72, 86
3, 1851836, Note_off_c, 1, 72, 64
3, 1851840, Note_on_c, 1, 74, 80
3, 1851896, Note_off_c, 1, 74, 64
3, 1851900, Note_on_c, 1, 72, 88
3, 1851956, Note_off_c, 1, 72, 64
3, 1851960, Note_on_c, 1, 74, 86
3, 1852016, Note_off_c, 1, 74, 64
3, 1852020, Note_on_c, 1, 72, 100
3, 1852076, Note_off_c, 1, 72, 64
3, 1852140, Note_on_c, 1, 72, 102
3, 1852196, Note_off_c, 1, 72, 64
3, 1852200, Note_on_c, 1, 74, 84
3, 1852256, Note_off_c, 1, 74, 64
3, 1852260, Note_on_c, 1, 72, 95
3, 1852316, Note_off_c, 1, 72, 64
3, 1852320, Note_on_c, 1, 74, 82
3, 1852376, Note_off_c, 1, 74, 64
3, 1852380, Note_on_c, 1, 72, 91
3, 1852436, Note_off_c, 1, 72, 64
3, 1852440, Note_on_c, 1, 74, 86
3, 1852496, Note_off_c, 1, 74, 64
3, 1852500, Note_on_c, 1, 72, 93
3, 1852556, Note_off_c, 1, 72, 64
3, 1852620, Note_on_c, 1, 72, 98
3, 1852676, Note_off_c, 1, 72, 64
3, 1852680, Note_on_c, 1, 74, 80
3, 1852736, Note_off_c, 1, 74, 64
3, 1852740, Note_on_c, 1, 72, 97
3, 1852796, Note_off_c, 1, 72, 64
3, 1852800, Note_on_c, 1, 74, 85
3, 1852856, Note_off_c, 1, 74, 64
3, 1852860, Note_on_c, 1, 72, 78
3, 1852916, Note_off_c, 1, 72, 64
3, 1852920, Note_on_c, 1, 74, 85
3, 1852976, Note_off_c, 1, 74, 64
3, 1852980, Note_on_c, 1, 72, 98
3, 1853036, Note_off_c, 1, 72, 64
3, 1853100, Note_on_c, 1, 72, 111
3, 1853156, Note_off_c, 1, 72, 64
3, 1853160, Note_on_c, 1, 74, 91
3, 1853216, Note_off_c, 1, 74, 64
3, 1853220, Note_on_c, 1, 72, 90
3, 1853276, Note_off_c, 1, 72, 64
3, 1853280, Note_on_c, 1, 74, 88
3, 1853336, Note_off_c, 1, 74, 64
3, 1853340, Note_on_c, 1, 72, 98
3, 1853396, Note_off_c, 1, 72, 64
3, 1853400, Note_on_c, 1, 74, 91
3, 1853456, Note_off_c, 1, 74, 64
3, 1853460, Note_on_c, 1, 72, 95
3, 1853516, Note_off_c, 1, 72, 64
3, 1853580, Note_on_c, 1, 72, 109
3, 1853636, Note_off_c, 1, 72, 64
3, 1853640, Note_on_c, 1, 74, 88
3, 1853696, Note_off_c, 1, 74, 64
3, 1853700, Note_on_c, 1, 72, 97
3, 1853756, Note_off_c, 1, 72, 64
3, 1853760, Note_on_c, 1, 74, 95
3, 1853816, Note_off_c, 1, 74, 64
3, 1853820, Note_on_c, 1, 72, 98
3, 1853876, Note_off_c, 1, 72, 64
3, 1853880, Note_on_c, 1, 74, 89
3, 1853936, Note_off_c, 1, 74, 64
3, 1853940, Note_on_c, 1, 72, 100
3, 1853996, Note_off_c, 1, 72, 64
3, 1854060, Note_on_c, 1, 72, 106
3, 1854116, Note_off_c, 1, 72, 64
3, 1854120, Note_on_c, 1, 74, 86
3, 1854176, Note_off_c, 1, 74, 64
3, 1854180, Note_on_c, 1, 72, 97
3, 1854236, Note_off_c, 1, 72, 64
3, 1854240, Note_on_c, 1, 74, 89
3, 1854296, Note_off_c, 1, 74, 64
3, 1854300, Note_on_c, 1, 72, 97
3, 1854356, Note_off_c, 1, 72, 64
3, 1854360, Note_on_c, 1, 74, 95
3, 1854416, Note_off_c, 1, 74, 64
3, 1854420, Note_on_c, 1, 72, 104
3, 1854476, Note_off_c, 1, 72, 64
3, 1854540, Note_on_c, 1, 67, 93
3, 1854596, Note_off_c, 1, 67, 64
3, 1854600, Note_on_c, 1, 69, 76
3, 1854656, Note_off_c, 1, 69, 64
3, 1854660, Note_on_c, 1, 67, 93
3, 1854716, Note_off_c, 1, 67, 64
3, 1854720, Note_on_c, 1, 69, 90
3, 1854776, Note_off_c, 1, 69, 64
3, 1854780, Note_on_c, 1, 67, 98
3, 1854836, Note_off_c, 1, 67, 64
3, 1854840, Note_on_c, 1, 69, 89
3, 1854896, Note_off_c, 1, 69, 64
3, 1854900, Note_on_c, 1, 67, 100
3, 1854956, Note_off_c, 1, 67, 64
3, 1855020, Note_on_c, 1, 66, 110
3, 1855076, Note_off_c, 1, 66, 64
3, 1855080, Note_on_c, 1, 67, 84
3, 1855136, Note_off_c, 1, 67, 64
3, 1855140, Note_on_c, 1, 66, 97
3, 1855196, Note_off_c, 1, 66, 64
3, 1855200, Note_on_c, 1, 67, 100
3, 1855256, Note_off_c, 1, 67, 64
3, 1855260, Note_on_c, 1, 66, 102
3, 1855316, Note_off_c, 1, 66, 64
3, 1855320, Note_on_c, 1, 67, 93
3, 1855376, Note_off_c, 1, 67, 64
3, 1855380, Note_on_c, 1, 66, 98
3, 1855436, Note_off_c, 1, 66, 64
3, 1855500, Note_on_c, 1, 65, 106
3, 1855556, Note_off_c, 1, 65, 64
3, 1855560, Note_on_c, 1, 67, 90
3, 1855616, Note_off_c, 1, 67, 64
3, 1855620, Note_on_c, 1, 65, 90
3, 1855676, Note_off_c, 1, 65, 64
3, 1855680, Note_on_c, 1, 67, 95
3, 1855736, Note_off_c, 1, 67, 64
3, 1855740, Note_on_c, 1, 65, 93
3, 1855796, Note_off_c, 1, 65, 64
3, 1855800, Note_on_c, 1, 67, 93
3, 1855856, Note_off_c, 1, 67, 64
3, 1855860, Note_on_c, 1, 65, 98
3, 1855916, Note_off_c, 1, 65, 64
3, 1911600, Note_on_c, 1, 67, 100
3, 1912076, Note_off_c, 1, 67, 64
3, 1912080, Note_on_c, 1, 67, 104
3, 1912556, Note_off_c, 1, 67, 64
3, 1912560, Note_on_c, 1, 69, 101
3, 1913036, Note_off_c, 1, 69, 64
3, 1913040, Note_on_c, 1, 69, 104
3, 1913516, Note_off_c, 1, 69, 64
3, 1913520, Note_on_c, 1, 67, 111
3, 1913756, Note_off_c, 1, 67, 64
3, 1913760, Note_on_c, 1, 69, 96
3, 1913996, Note_off_c, 1, 69, 64
3, 1914000, Note_on_c, 1, 67, 104
3, 1914236, Note_off_c, 1, 67, 64
3, 1914240, Note_on_c, 1, 65, 102
3, 1914476, Note_off_c, 1, 65, 64
3, 1914480, Note_on_c, 1, 64, 97
3, 1914716, Note_off_c, 1, 64, 64
3, 1914720, Note_on_c, 1, 62, 97
3, 1914956, Note_off_c, 1, 62, 64
3, 1914960, Note_on_c, 1, 60, 113
3, 1915196, Note_off_c, 1, 60, 64
3, 1915200, Note_on_c, 1, 71, 113
3, 1915436, Note_off_c, 1, 71, 64
3, 1915440, Note_on_c, 1, 69, 106
3, 1915676, Note_off_c, 1, 69, 64
3, 1915680, Note_on_c, 1, 67, 107
3, 1915916, Note_off_c, 1, 67, 64
3, 1915920, Note_on_c, 1, 69, 101
3, 1916156, Note_off_c, 1, 69, 64
3, 1916160, Note_on_c, 1, 66, 106
3, 1916396, Note_off_c, 1, 66, 64
3, 1916400, Note_on_c, 1, 67, 115
3, 1916876, Note_off_c, 1, 67, 64
3, 1916880, Note_on_c, 1, 67, 109
3, 1917116, Note_off_c, 1, 67, 64
3, 1917120, Note_on_c, 1, 62, 100
3, 1917356, Note_off_c, 1, 62, 64
3, 1917360, Note_on_c, 1, 67, 104
3, 1917836, Note_off_c, 1, 67, 64
3, 1917840, Note_on_c, 1, 67, 111
3, 1918316, Note_off_c, 1, 67, 64
3, 1918320, Note_on_c, 1, 69, 107
3, 1918796, Note_off_c, 1, 69, 64
3, 1918800, Note_on_c, 1, 69, 109
3, 1919276, Note_off_c, 1, 69, 64
3, 1919280, Note_on_c, 1, 67, 107
3, 1919516, Note_off_c, 1, 67, 64
3, 1919520, Note_on_c, 1, 69, 100
3, 1919756, Note_off_c, 1, 69, 64
3, 1919760, Note_on_c, 1, 67, 101
3, 1919996, Note_off_c, 1, 67, 64
3, 1920000, Note_on_c, 1, 66, 110
3, 1920236, Note_off_c, 1, 66, 64
3, 1920240, Note_on_c, 1, 64, 100
3, 1920480, Note_off_c, 1, 64, 64
3, 1920480, Note_on_c, 1, 62, 100
3, 1920720, Note_off_c, 1, 62, 64
3, 1920720, Note_on_c, 1, 61, 104
3, 1920956, Note_off_c, 1, 61, 64
3, 1920960, Note_on_c, 1, 71, 104
3, 1921076, Note_off_c, 1, 71, 64
3, 1921080, Note_on_c, 1, 73, 115
3, 1921196, Note_off_c, 1, 73, 64
3, 1921200, Note_on_c, 1, 74, 106
3, 1921436, Note_off_c, 1, 74, 64
3, 1921440, Note_on_c, 1, 76, 104
3, 1921676, Note_off_c, 1, 76, 64
3, 1921680, Note_on_c, 1, 78, 104
3, 1921916, Note_off_c, 1, 78, 64
3, 1921920, Note_on_c, 1, 74, 101
3, 1922156, Note_off_c, 1, 74, 64
3, 1922160, Note_on_c, 1, 71, 98
3, 1922396, Note_off_c, 1, 71, 64
3, 1922400, Note_on_c, 1, 74, 107
3, 1922636, Note_off_c, 1, 74, 64
3, 1922640, Note_on_c, 1, 79, 101
3, 1922876, Note_off_c, 1, 79, 64
3, 1922880, Note_on_c, 1, 78, 117
3, 1923116, Note_off_c, 1, 78, 64
3, 1923120, Note_on_c, 1, 76, 107
3, 1923480, Note_off_c, 1, 76, 64
3, 1923480, Note_on_c, 1, 74, 109
3, 1923720, Note_off_c, 1, 74, 64
3, 1923720, Note_on_c, 1, 73, 117
3, 1923840, Note_off_c, 1, 73, 64
3, 1923840, Note_on_c, 1, 69, 107
3, 1923840, Note_on_c, 1, 76, 98
3, 1924200, Note_off_c, 1, 76, 64
3, 1924200, Note_on_c, 1, 74, 89
3, 1924320, Note_off_c, 1, 69, 64
3, 1924320, Note_on_c, 1, 67, 107
3, 1924440, Note_off_c, 1, 74, 64
3, 1924440, Note_on_c, 1, 73, 101
3, 1924560, Note_off_c, 1, 67, 64
3, 1924560, Note_off_c, 1, 73, 64
3, 1924560, Note_on_c, 1, 66, 107
3, 1924800, Note_off_c, 1, 66, 64
3, 1926960, Note_on_c, 1, 67, 115
3, 1927436, Note_off_c, 1, 67, 64
3, 1927440, Note_on_c, 1, 67, 107
3, 1927916, Note_off_c, 1, 67, 64
3, 1927920, Note_on_c, 1, 69, 107
3, 1928396, Note_off_c, 1, 69, 64
3, 1928400, Note_on_c, 1, 69, 106
3, 1928876, Note_off_c, 1, 69, 64
3, 1928880, Note_on_c, 1, 67, 109
3, 1929116, Note_off_c, 1, 67, 64
3, 1929120, Note_on_c, 1, 69, 107
3, 1929356, Note_off_c, 1, 69, 64
3, 1929360, Note_on_c, 1, 67, 107
3, 1929596, Note_off_c, 1, 67, 64
3, 1929600, Note_on_c, 1, 65, 100
3, 1929836, Note_off_c, 1, 65, 64
3, 1929840, Note_on_c, 1, 64, 102
3, 1930076, Note_off_c, 1, 64, 64
3, 1930080, Note_on_c, 1, 62, 100
3, 1930316, Note_off_c, 1, 62, 64
3, 1930320, Note_on_c, 1, 60, 104
3, 1930556, Note_off_c, 1, 60, 64
3, 1930560, Note_on_c, 1, 71, 113
3, 1930796, Note_off_c, 1, 71, 64
3, 1930800, Note_on_c, 1, 69, 98
3, 1931036, Note_off_c, 1, 69, 64
3, 1931040, Note_on_c, 1, 67, 102
3, 1931276, Note_off_c, 1, 67, 64
3, 1931280, Note_on_c, 1, 69, 102
3, 1931516, Note_off_c, 1, 69, 64
3, 1931520, Note_on_c, 1, 66, 108
3, 1931756, Note_off_c, 1, 66, 64
3, 1931760, Note_on_c, 1, 67, 101
3, 1932236, Note_off_c, 1, 67, 64
3, 1932240, Note_on_c, 1, 67, 117
3, 1932480, Note_off_c, 1, 67, 64
3, 1932480, Note_on_c, 1, 62, 117
3, 1932720, Note_off_c, 1, 62, 64
3, 1932720, Note_on_c, 1, 67, 95
3, 1933196, Note_off_c, 1, 67, 64
3, 1933200, Note_on_c, 1, 67, 109
3, 1933676, Note_off_c, 1, 67, 64
3, 1933680, Note_on_c, 1, 69, 106
3, 1934156, Note_off_c, 1, 69, 64
3, 1934160, Note_on_c, 1, 69, 100
3, 1934636, Note_off_c, 1, 69, 64
3, 1934640, Note_on_c, 1, 67, 107
3, 1934880, Note_off_c, 1, 67, 64
3, 1934880, Note_on_c, 1, 69, 98
3, 1935116, Note_off_c, 1, 69, 64
3, 1935120, Note_on_c, 1, 67, 102
3, 1935360, Note_off_c, 1, 67, 64
3, 1935360, Note_on_c, 1, 66, 102
3, 1935600, Note_off_c, 1, 66, 64
3, 1935600, Note_on_c, 1, 64, 109
3, 1935840, Note_off_c, 1, 64, 64
3, 1935840, Note_on_c, 1, 62, 109
3, 1936080, Note_off_c, 1, 62, 64
3, 1936080, Note_on_c, 1, 61, 100
3, 1936316, Note_off_c, 1, 61, 64
3, 1936320, Note_on_c, 1, 71, 113
3, 1936436, Note_off_c, 1, 71, 64
3, 1936440, Note_on_c, 1, 73, 107
3, 1936556, Note_off_c, 1, 73, 64
3, 1936560, Note_on_c, 1, 74, 104
3, 1936796, Note_off_c, 1, 74, 64
3, 1936800, Note_on_c, 1, 76, 107
3, 1937036, Note_off_c, 1, 76, 64
3, 1937040, Note_on_c, 1, 78, 67
3, 1937276, Note_off_c, 1, 78, 64
3, 1937280, Note_on_c, 1, 74, 101
3, 1937516, Note_off_c, 1, 74, 64
3, 1937520, Note_on_c, 1, 71, 109
3, 1937756, Note_off_c, 1, 71, 64
3, 1937760, Note_on_c, 1, 74, 109
3, 1937996, Note_off_c, 1, 74, 64
3, 1938000, Note_on_c, 1, 79, 111
3, 1938236, Note_off_c, 1, 79, 64
3, 1938240, Note_on_c, 1, 78, 110
3, 1938476, Note_off_c, 1, 78, 64
3, 1938480, Note_on_c, 1, 76, 113
3, 1938836, Note_off_c, 1, 76, 64
3, 1938840, Note_on_c, 1, 74, 106
3, 1939076, Note_off_c, 1, 74, 64
3, 1939080, Note_on_c, 1, 73, 112
3, 1939196, Note_off_c, 1, 73, 64
3, 1939200, Note_on_c, 1, 69, 113
3, 1939200, Note_on_c, 1, 76, 111
3, 1939556, Note_off_c, 1, 76, 64
3, 1939560, Note_on_c, 1, 74, 102
3, 1939680, Note_off_c, 1, 69, 64
3, 1939680, Note_on_c, 1, 67, 113
3, 1939796, Note_off_c, 1, 74, 64
3, 1939800, Note_on_c, 1, 73, 108
3, 1939916, Note_off_c, 1, 73, 64
3, 1939920, Note_off_c, 1, 67, 64
3, 1939920, Note_on_c, 1, 66, 113
3, 1940160, Note_off_c, 1, 66, 64
3, 1940400, Note_on_c, 1, 69, 91
3, 1940876, Note_off_c, 1, 69, 64
3, 1940880, Note_on_c, 1, 69, 98
3, 1941356, Note_off_c, 1, 69, 64
3, 1941360, Note_on_c, 1, 71, 98
3, 1941836, Note_off_c, 1, 71, 64
3, 1941840, Note_on_c, 1, 71, 109
3, 1942316, Note_off_c, 1, 71, 64
3, 1942320, Note_on_c, 1, 69, 107
3, 1942556, Note_off_c, 1, 69, 64
3, 1942560, Note_on_c, 1, 71, 104
3, 1942796, Note_off_c, 1, 71, 64
3, 1942800, Note_on_c, 1, 69, 109
3, 1943036, Note_off_c, 1, 69, 64
3, 1943040, Note_on_c, 1, 67, 101
3, 1943276, Note_off_c, 1, 67, 64
3, 1943280, Note_on_c, 1, 66, 110
3, 1943516, Note_off_c, 1, 66, 64
3, 1943520, Note_on_c, 1, 64, 111
3, 1943756, Note_off_c, 1, 64, 64
3, 1943760, Note_on_c, 1, 63, 104
3, 1944236, Note_off_c, 1, 63, 64
3, 1944240, Note_on_c, 1, 71, 117
3, 1944720, Note_off_c, 1, 71, 64
3, 1944720, Note_on_c, 1, 71, 121
3, 1945196, Note_off_c, 1, 71, 64
3, 1945200, Note_on_c, 1, 72, 123
3, 1945676, Note_off_c, 1, 72, 64
3, 1945680, Note_on_c, 1, 72, 119
3, 1946156, Note_off_c, 1, 72, 64
3, 1946160, Note_on_c, 1, 71, 107
3, 1946396, Note_off_c, 1, 71, 64
3, 1946400, Note_on_c, 1, 72, 100
3, 1946636, Note_off_c, 1, 72, 64
3, 1946640, Note_on_c, 1, 71, 102
3, 1946876, Note_off_c, 1, 71, 64
3, 1946880, Note_on_c, 1, 69, 101
3, 1947116, Note_off_c, 1, 69, 64
3, 1947120, Note_on_c, 1, 67, 91
3, 1947356, Note_off_c, 1, 67, 64
3, 1947360, Note_on_c, 1, 66, 108
3, 1947476, Note_off_c, 1, 66, 64
3, 1947480, Note_on_c, 1, 67, 95
3, 1947596, Note_off_c, 1, 67, 64
3, 1947600, Note_on_c, 1, 64, 109
3, 1948076, Note_off_c, 1, 64, 64
3, 1949040, Note_on_c, 1, 67, 115
3, 1949516, Note_off_c, 1, 67, 64
3, 1949520, Note_on_c, 1, 67, 111
3, 1949996, Note_off_c, 1, 67, 64
3, 1950000, Note_on_c, 1, 72, 121
3, 1950356, Note_off_c, 1, 72, 64
3, 1950360, Note_on_c, 1, 74, 113
3, 1950476, Note_off_c, 1, 74, 64
3, 1950480, Note_on_c, 1, 72, 109
3, 1950716, Note_off_c, 1, 72, 64
3, 1950720, Note_on_c, 1, 71, 106
3, 1950956, Note_off_c, 1, 71, 64
3, 1950960, Note_on_c, 1, 69, 106
3, 1951196, Note_off_c, 1, 69, 64
3, 1951200, Note_on_c, 1, 71, 96
3, 1951436, Note_off_c, 1, 71, 64
3, 1951440, Note_on_c, 1, 72, 109
3, 1951676, Note_off_c, 1, 72, 64
3, 1951680, Note_on_c, 1, 74, 111
3, 1951916, Note_off_c, 1, 74, 64
3, 1951920, Note_on_c, 1, 71, 98
3, 1952156, Note_off_c, 1, 71, 64
3, 1952160, Note_on_c, 1, 69, 95
3, 1952276, Note_off_c, 1, 69, 64
3, 1952280, Note_on_c, 1, 71, 101
3, 1952396, Note_off_c, 1, 71, 64
3, 1952400, Note_on_c, 1, 67, 109
3, 1952876, Note_off_c, 1, 67, 64
3, 1953120, Note_on_c, 1, 76, 119
3, 1953236, Note_off_c, 1, 76, 64
3, 1953240, Note_on_c, 1, 74, 102
3, 1953356, Note_off_c, 1, 74, 64
3, 1953360, Note_on_c, 1, 72, 111
3, 1953596, Note_off_c, 1, 72, 64
3, 1953600, Note_on_c, 1, 76, 117
3, 1953836, Note_off_c, 1, 76, 64
3, 1953840, Note_on_c, 1, 69, 104
3, 1953956, Note_off_c, 1, 69, 64
3, 1953960, Note_on_c, 1, 74, 111
3, 1954076, Note_off_c, 1, 74, 64
3, 1954080, Note_on_c, 1, 72, 115
3, 1954196, Note_off_c, 1, 72, 64
3, 1954200, Note_on_c, 1, 71, 113
3, 1954316, Note_off_c, 1, 71, 64
3, 1954320, Note_on_c, 1, 72, 107
3, 1954436, Note_off_c, 1, 72, 64
3, 1954440, Note_on_c, 1, 69, 98
3, 1954556, Note_off_c, 1, 69, 64
3, 1954560, Note_on_c, 1, 74, 119
3, 1955036, Note_off_c, 1, 74, 64
3, 1955040, Note_on_c, 1, 72, 115
3, 1955156, Note_off_c, 1, 72, 64
3, 1955160, Note_on_c, 1, 74, 101
3, 1955276, Note_off_c, 1, 74, 64
3, 1955280, Note_on_c, 1, 71, 104
3, 1955520, Note_off_c, 1, 71, 64
3, 1955760, Note_on_c, 1, 69, 91
3, 1956236, Note_off_c, 1, 69, 64
3, 1956240, Note_on_c, 1, 69, 98
3, 1956716, Note_off_c, 1, 69, 64
3, 1956720, Note_on_c, 1, 71, 98
3, 1957196, Note_off_c, 1, 71, 64
3, 1957200, Note_on_c, 1, 71, 109
3, 1957676, Note_off_c, 1, 71, 64
3, 1957680, Note_on_c, 1, 69, 107
3, 1957916, Note_off_c, 1, 69, 64
3, 1957920, Note_on_c, 1, 71, 104
3, 1958156, Note_off_c, 1, 71, 64
3, 1958160, Note_on_c, 1, 69, 109
3, 1958396, Note_off_c, 1, 69, 64
3, 1958400, Note_on_c, 1, 67, 101
3, 1958636, Note_off_c, 1, 67, 64
3, 1958640, Note_on_c, 1, 66, 110
3, 1958876, Note_off_c, 1, 66, 64
3, 1958880, Note_on_c, 1, 64, 111
3, 1959116, Note_off_c, 1, 64, 64
3, 1959120, Note_on_c, 1, 63, 104
3, 1959596, Note_off_c, 1, 63, 64
3, 1959600, Note_on_c, 1, 71, 117
3, 1960080, Note_off_c, 1, 71, 64
3, 1960080, Note_on_c, 1, 71, 121
3, 1960556, Note_off_c, 1, 71, 64
3, 1960560, Note_on_c, 1, 72, 123
3, 1961036, Note_off_c, 1, 72, 64
3, 1961040, Note_on_c, 1, 72, 119
3, 1961516, Note_off_c, 1, 72, 64
3, 1961520, Note_on_c, 1, 71, 107
3, 1961756, Note_off_c, 1, 71, 64
3, 1961760, Note_on_c, 1, 72, 100
3, 1961996, Note_off_c, 1, 72, 64
3, 1962000, Note_on_c, 1, 71, 102
3, 1962236, Note_off_c, 1, 71, 64
3, 1962240, Note_on_c, 1, 69, 101
3, 1962476, Note_off_c, 1, 69, 64
3, 1962480, Note_on_c, 1, 67, 91
3, 1962716, Note_off_c, 1, 67, 64
3, 1962720, Note_on_c, 1, 66, 108
3, 1962836, Note_off_c, 1, 66, 64
3, 1962840, Note_on_c, 1, 67, 95
3, 1962956, Note_off_c, 1, 67, 64
3, 1962960, Note_on_c, 1, 64, 109
3, 1963436, Note_off_c, 1, 64, 64
3, 1964400, Note_on_c, 1, 67, 115
3, 1964876, Note_off_c, 1, 67, 64
3, 1964880, Note_on_c, 1, 67, 111
3, 1965356, Note_off_c, 1, 67, 64
3, 1965360, Note_on_c, 1, 72, 121
3, 1965716, Note_off_c, 1, 72, 64
3, 1965720, Note_on_c, 1, 74, 113
3, 1965836, Note_off_c, 1, 74, 64
3, 1965840, Note_on_c, 1, 72, 109
3, 1966076, Note_off_c, 1, 72, 64
3, 1966080, Note_on_c, 1, 71, 106
3, 1966316, Note_off_c, 1, 71, 64
3, 1966320, Note_on_c, 1, 69, 106
3, 1966556, Note_off_c, 1, 69, 64
3, 1966560, Note_on_c, 1, 71, 96
3, 1966796, Note_off_c, 1, 71, 64
3, 1966800, Note_on_c, 1, 72, 109
3, 1967036, Note_off_c, 1, 72, 64
3, 1967040, Note_on_c, 1, 74, 111
3, 1967276, Note_off_c, 1, 74, 64
3, 1967280, Note_on_c, 1, 71, 98
3, 1967516, Note_off_c, 1, 71, 64
3, 1967520, Note_on_c, 1, 69, 95
3, 1967636, Note_off_c, 1, 69, 64
3, 1967640, Note_on_c, 1, 71, 101
3, 1967756, Note_off_c, 1, 71, 64
3, 1967760, Note_on_c, 1, 67, 109
3, 1968236, Note_off_c, 1, 67, 64
3, 1968480, Note_on_c, 1, 76, 119
3, 1968596, Note_off_c, 1, 76, 64
3, 1968600, Note_on_c, 1, 74, 102
3, 1968716, Note_off_c, 1, 74, 64
3, 1968720, Note_on_c, 1, 72, 111
3, 1968956, Note_off_c, 1, 72, 64
3, 1968960, Note_on_c, 1, 76, 117
3, 1969196, Note_off_c, 1, 76, 64
3, 1969200, Note_on_c, 1, 69, 104
3, 1969316, Note_off_c, 1, 69, 64
3, 1969320, Note_on_c, 1, 74, 111
3, 1969436, Note_off_c, 1, 74, 64
3, 1969440, Note_on_c, 1, 72, 115
3, 1969556, Note_off_c, 1, 72, 64
3, 1969560, Note_on_c, 1, 71, 113
3, 1969676, Note_off_c, 1, 71, 64
3, 1969680, Note_on_c, 1, 72, 107
3, 1969796, Note_off_c, 1, 72, 64
3, 1969800, Note_on_c, 1, 69, 98
3, 1969916, Note_off_c, 1, 69, 64
3, 1969920, Note_on_c, 1, 74, 119
3, 1970396, Note_off_c, 1, 74, 64
3, 1970400, Note_on_c, 1, 72, 115
3, 1970516, Note_off_c, 1, 72, 64
3, 1970520, Note_on_c, 1, 74, 101
3, 1970636, Note_off_c, 1, 74, 64
3, 1970640, Note_on_c, 1, 71, 104
3, 1971600, Note_off_c, 1, 71, 64
3, 1974000, Note_on_c, 1, 62, 106
3, 1974476, Note_off_c, 1, 62, 64
3, 1975440, Note_on_c, 1, 62, 97
3, 1975916, Note_off_c, 1, 62, 64
3, 1976880, Note_on_c, 1, 61, 92
3, 1977356, Note_off_c, 1, 61, 64
3, 1978320, Note_on_c, 1, 57, 97
3, 1978796, Note_off_c, 1, 57, 64
3, 1979760, Note_on_c, 1, 55, 98
3, 1980236, Note_off_c, 1, 55, 64
3, 1981200, Note_on_c, 1, 57, 102
3, 1981676, Note_off_c, 1, 57, 64
3, 1985520, Note_on_c, 1, 64, 101
3, 1985996, Note_off_c, 1, 64, 64
3, 1986480, Note_on_c, 1, 74, 101
3, 1987440, Note_off_c, 1, 74, 64
3, 1991280, Note_on_c, 1, 62, 98
3, 1991756, Note_off_c, 1, 62, 64
3, 1992720, Note_on_c, 1, 64, 101
3, 1993196, Note_off_c, 1, 64, 64
3, 1993200, Note_on_c, 1, 66, 104
3, 1993676, Note_off_c, 1, 66, 64
3, 1993680, Note_on_c, 1, 64, 107
3, 1994040, Note_off_c, 1, 64, 64
3, 1994040, Note_on_c, 1, 66, 104
3, 1994160, Note_off_c, 1, 66, 64
3, 1994160, Note_on_c, 1, 67, 104
3, 1995116, Note_off_c, 1, 67, 64
3, 1995120, Note_on_c, 1, 66, 94
3, 1996076, Note_off_c, 1, 66, 64
3, 2004720, Note_on_c, 1, 66, 83
3, 2005200, Note_off_c, 1, 66, 64
3, 2005440, Note_on_c, 1, 72, 83
3, 2005680, Note_off_c, 1, 72, 64
3, 2005680, Note_on_c, 1, 71, 83
3, 2005920, Note_off_c, 1, 71, 64
3, 2005920, Note_on_c, 1, 69, 83
3, 2006640, Note_off_c, 1, 69, 64
3, 2006640, Note_on_c, 1, 67, 83
3, 2007600, Note_off_c, 1, 67, 64
3, 2008560, Note_on_c, 1, 57, 83
3, 2009280, Note_off_c, 1, 57, 64
3, 2011200, Note_on_c, 1, 64, 83
3, 2011560, Note_off_c, 1, 64, 64
3, 2011560, Note_on_c, 1, 71, 83
3, 2011680, Note_off_c, 1, 71, 64
3, 2011680, Note_on_c, 1, 69, 83
3, 2011800, Note_off_c, 1, 69, 64
3, 2011800, Note_on_c, 1, 67, 83
3, 2011920, Note_off_c, 1, 67, 64
3, 2011920, Note_on_c, 1, 66, 83
3, 2012400, Note_off_c, 1, 66, 64
3, 2012640, Note_on_c, 1, 66, 83
3, 2013360, Note_off_c, 1, 66, 64
3, 2013360, Note_on_c, 1, 67, 83
3, 2013600, Note_off_c, 1, 67, 64
3, 2014080, Note_on_c, 1, 62, 83
3, 2014440, Note_off_c, 1, 62, 64
3, 2014440, Note_on_c, 1, 67, 83
3, 2015400, Note_off_c, 1, 67, 64
3, 2015520, Note_on_c, 1, 67, 83
3, 2015880, Note_off_c, 1, 67, 64
3, 2015880, Note_on_c, 1, 72, 83
3, 2016000, Note_off_c, 1, 72, 64
3, 2018880, End_track
4, 0, Start_track
4, 0, Title_t, "goldberg.mid"
4, 0, Program_c, 2, 0
4, 480, Note_on_c, 2, 59, 86
4, 1436, Note_off_c, 2, 59, 64
4, 1920, Note_on_c, 2, 57, 81
4, 2876, Note_off_c, 2, 57, 64
4, 3360, Note_on_c, 2, 55, 78
4, 4316, Note_off_c, 2, 55, 64
4, 4800, Note_on_c, 2, 54, 93
4, 5756, Note_off_c, 2, 54, 64
4, 6240, Note_on_c, 2, 50, 81
4, 7196, Note_off_c, 2, 50, 64
4, 7680, Note_on_c, 2, 52, 86
4, 8400, Note_off_c, 2, 52, 64
4, 8880, Note_on_c, 2, 60, 97
4, 9360, Note_off_c, 2, 60, 64
4, 9360, Note_on_c, 2, 59, 74
4, 9476, Note_off_c, 2, 59, 64
4, 9480, Note_on_c, 2, 57, 74
4, 9596, Note_off_c, 2, 57, 64
4, 9600, Note_on_c, 2, 55, 70
4, 9716, Note_off_c, 2, 55, 64
4, 9720, Note_on_c, 2, 54, 86
4, 9836, Note_off_c, 2, 54, 64
4, 9840, Note_on_c, 2, 52, 78
4, 9956, Note_off_c, 2, 52, 64
4, 9960, Note_on_c, 2, 54, 89
4, 10076, Note_off_c, 2, 54, 64
4, 10080, Note_on_c, 2, 55, 75
4, 10316, Note_off_c, 2, 55, 64
4, 10320, Note_on_c, 2, 57, 92
4, 10556, Note_off_c, 2, 57, 64
4, 10560, Note_on_c, 2, 59, 91
4, 11520, Note_off_c, 2, 59, 64
4, 12000, Note_on_c, 2, 59, 96
4, 12956, Note_off_c, 2, 59, 64
4, 12960, Note_on_c, 2, 57, 97
4, 13440, Note_off_c, 2, 57, 64
4, 14640, Note_on_c, 2, 59, 90
4, 14880, Note_off_c, 2, 59, 64
4, 14880, Note_on_c, 2, 64, 92
4, 15600, Note_off_c, 2, 64, 64
4, 15600, Note_on_c, 2, 62, 85
4, 15840, Note_off_c, 2, 62, 64
4, 15840, Note_on_c, 2, 61, 88
4, 16076, Note_off_c, 2, 61, 64
4, 16080, Note_on_c, 2, 62, 85
4, 16316, Note_off_c, 2, 62, 64
4, 16320, Note_on_c, 2, 64, 93
4, 17276, Note_off_c, 2, 64, 64
4, 17760, Note_on_c, 2, 57, 86
4, 18716, Note_off_c, 2, 57, 64
4, 19200, Note_on_c, 2, 59, 96
4, 19680, Note_off_c, 2, 59, 64
4, 22320, Note_on_c, 2, 57, 96
4, 22560, Note_off_c, 2, 57, 64
4, 22560, Note_on_c, 2, 62, 96
4, 23040, Note_off_c, 2, 62, 64
4, 23280, Note_on_c, 2, 64, 98
4, 23520, Note_off_c, 2, 64, 64
4, 23520, Note_on_c, 2, 66, 92
4, 23580, Note_off_c, 2, 66, 64
4, 23580, Note_on_c, 2, 64, 92
4, 23640, Note_off_c, 2, 64, 64
4, 23640, Note_on_c, 2, 66, 92
4, 24360, Note_off_c, 2, 66, 64
4, 24720, Note_on_c, 2, 60, 100
4, 24956, Note_off_c, 2, 60, 64
4, 24960, Note_on_c, 2, 62, 83
4, 25916, Note_off_c, 2, 62, 64
4, 26160, Note_on_c, 2, 64, 98
4, 26396, Note_off_c, 2, 64, 64
4, 26400, Note_on_c, 2, 67, 111
4, 26880, Note_off_c, 2, 67, 64
4, 26880, Note_on_c, 2, 66, 88
4, 26940, Note_off_c, 2, 66, 64
4, 26940, Note_on_c, 2, 67, 88
4, 27000, Note_off_c, 2, 67, 64
4, 27000, Note_on_c, 2, 66, 88
4, 27120, Note_off_c, 2, 66, 64
4, 27120, Note_on_c, 2, 64, 88
4, 27356, Note_off_c, 2, 64, 64
4, 27360, Note_on_c, 2, 63, 102
4, 27596, Note_off_c, 2, 63, 64
4, 27600, Note_on_c, 2, 64, 100
4, 27836, Note_off_c, 2, 64, 64
4, 27840, Note_on_c, 2, 66, 86
4, 28796, Note_off_c, 2, 66, 64
4, 29040, Note_on_c, 2, 57, 106
4, 29280, Note_off_c, 2, 57, 64
4, 29280, Note_on_c, 2, 55, 92
4, 29340, Note_off_c, 2, 55, 64
4, 29340, Note_on_c, 2, 57, 92
4, 29400, Note_off_c, 2, 57, 64
4, 29400, Note_on_c, 2, 55, 92
4, 29520, Note_off_c, 2, 55, 64
4, 29520, Note_on_c, 2, 54, 92
4, 29756, Note_off_c, 2, 54, 64
4, 29760, Note_on_c, 2, 55, 84
4, 30240, Note_off_c, 2, 55, 64
4, 30480, Note_on_c, 2, 57, 97
4, 30720, Note_off_c, 2, 57, 64
4, 30720, Note_on_c, 2, 55, 85
4, 30780, Note_off_c, 2, 55, 64
4, 30780, Note_on_c, 2, 57, 85
4, 30840, Note_off_c, 2, 57, 64
4, 30840, Note_on_c, 2, 55, 85
4, 30960, Note_off_c, 2, 55, 64
4, 30960, Note_on_c, 2, 54, 80
4, 31196, Note_off_c, 2, 54, 64
4, 31200, Note_on_c, 2, 55, 86
4, 31436, Note_off_c, 2, 55, 64
4, 31440, Note_on_c, 2, 59, 97
4, 31680, Note_off_c, 2, 59, 64
4, 32880, Note_on_c, 2, 51, 107
4, 33120, Note_off_c, 2, 51, 64
4, 33120, Note_on_c, 2, 52, 107
4, 33600, Note_off_c, 2, 52, 64
4, 35040, Note_on_c, 2, 52, 71
4, 35996, Note_off_c, 2, 52, 64
4, 36240, Note_on_c, 2, 54, 99
4, 36476, Note_off_c, 2, 54, 64
4, 36480, Note_on_c, 2, 52, 90
4, 36596, Note_off_c, 2, 52, 64
4, 36600, Note_on_c, 2, 50, 85
4, 36716, Note_off_c, 2, 50, 64
4, 36720, Note_on_c, 2, 52, 83
4, 36836, Note_off_c, 2, 52, 64
4, 36840, Note_on_c, 2, 54, 76
4, 36956, Note_off_c, 2, 54, 64
4, 36960, Note_on_c, 2, 55, 76
4, 37076, Note_off_c, 2, 55, 64
4, 37080, Note_on_c, 2, 54, 81
4, 37196, Note_off_c, 2, 54, 64
4, 37200, Note_on_c, 2, 55, 80
4, 37676, Note_off_c, 2, 55, 64
4, 37680, Note_on_c, 2, 52, 81
4, 37916, Note_off_c, 2, 52, 64
4, 37920, Note_on_c, 2, 57, 77
4, 38156, Note_off_c, 2, 57, 64
4, 44760, Note_on_c, 2, 60, 75
4, 44876, Note_off_c, 2, 60, 64
4, 44880, Note_on_c, 2, 59, 66
4, 44996, Note_off_c, 2, 59, 64
4, 45000, Note_on_c, 2, 57, 69
4, 45116, Note_off_c, 2, 57, 64
4, 45120, Note_on_c, 2, 59, 80
4, 46080, Note_off_c, 2, 59, 64
4, 250324, Note_on_c, 2, 59, 121
4, 250548, Note_off_c, 2, 59, 64
4, 250552, Note_on_c, 2, 55, 113
4, 250780, Note_off_c, 2, 55, 64
4, 250800, Note_on_c, 2, 62, 117
4, 251280, Note_off_c, 2, 62, 64
4, 251748, Note_on_c, 2, 55, 106
4, 251980, Note_off_c, 2, 55, 64
4, 252000, Note_on_c, 2, 59, 117
4, 252220, Note_on_c, 2, 52, 107
4, 252240, Note_off_c, 2, 59, 64
4, 252460, Note_off_c, 2, 52, 64
4, 252460, Note_on_c, 2, 57, 107
4, 252696, Note_off_c, 2, 57, 64
4, 252704, Note_on_c, 2, 55, 121
4, 253204, Note_on_c, 2, 54, 119
4, 253212, Note_off_c, 2, 55, 64
4, 253312, Note_on_c, 2, 52, 111
4, 253320, Note_off_c, 2, 54, 64
4, 253440, Note_on_c, 2, 54, 121
4, 253452, Note_off_c, 2, 52, 64
4, 253664, Note_off_c, 2, 54, 64
4, 253672, Note_on_c, 2, 55, 115
4, 253896, Note_off_c, 2, 55, 64
4, 253904, Note_on_c, 2, 50, 115
4, 254392, Note_off_c, 2, 50, 64
4, 255352, Note_on_c, 2, 62, 119
4, 255600, Note_on_c, 2, 66, 125
4, 255604, Note_off_c, 2, 62, 64
4, 255828, Note_off_c, 2, 66, 64
4, 255840, Note_on_c, 2, 59, 119
4, 256068, Note_off_c, 2, 59, 64
4, 256080, Note_on_c, 2, 64, 111
4, 256320, Note_off_c, 2, 64, 64
4, 256808, Note_on_c, 2, 61, 127
4, 257024, Note_off_c, 2, 61, 64
4, 257040, Note_on_c, 2, 64, 121
4, 257260, Note_off_c, 2, 64, 64
4, 257280, Note_on_c, 2, 57, 121
4, 258240, Note_off_c, 2, 57, 64
4, 258252, Note_on_c, 2, 55, 113
4, 258472, Note_off_c, 2, 55, 64
4, 258472, Note_on_c, 2, 59, 115
4, 258700, Note_off_c, 2, 59, 64
4, 258708, Note_on_c, 2, 52, 107
4, 258944, Note_off_c, 2, 52, 64
4, 258952, Note_on_c, 2, 54, 117
4, 259192, Note_off_c, 2, 54, 64
4, 259192, Note_on_c, 2, 52, 113
4, 259440, Note_off_c, 2, 52, 64
4, 259440, Note_on_c, 2, 50, 119
4, 259792, Note_off_c, 2, 50, 64
4, 261852, Note_on_c, 2, 59, 123
4, 262068, Note_off_c, 2, 59, 64
4, 262080, Note_on_c, 2, 55, 115
4, 262304, Note_off_c, 2, 55, 64
4, 262324, Note_on_c, 2, 62, 123
4, 263016, Note_off_c, 2, 62, 64
4, 263272, Note_on_c, 2, 55, 109
4, 263504, Note_on_c, 2, 59, 115
4, 263508, Note_off_c, 2, 55, 64
4, 263736, Note_off_c, 2, 59, 64
4, 263744, Note_on_c, 2, 52, 111
4, 263980, Note_off_c, 2, 52, 64
4, 263984, Note_on_c, 2, 57, 106
4, 264216, Note_off_c, 2, 57, 64
4, 264224, Note_on_c, 2, 55, 111
4, 264720, Note_on_c, 2, 54, 123
4, 264728, Note_off_c, 2, 55, 64
4, 264824, Note_on_c, 2, 52, 101
4, 264832, Note_off_c, 2, 54, 64
4, 264960, Note_on_c, 2, 54, 127
4, 264964, Note_off_c, 2, 52, 64
4, 265188, Note_off_c, 2, 54, 64
4, 265204, Note_on_c, 2, 55, 117
4, 265420, Note_off_c, 2, 55, 64
4, 265428, Note_on_c, 2, 50, 113
4, 265944, Note_off_c, 2, 50, 64
4, 266880, Note_on_c, 2, 62, 117
4, 267128, Note_off_c, 2, 62, 64
4, 267128, Note_on_c, 2, 66, 125
4, 267360, Note_off_c, 2, 66, 64
4, 267368, Note_on_c, 2, 59, 117
4, 267588, Note_off_c, 2, 59, 64
4, 267600, Note_on_c, 2, 64, 119
4, 267864, Note_off_c, 2, 64, 64
4, 268328, Note_on_c, 2, 61, 127
4, 268548, Note_off_c, 2, 61, 64
4, 268560, Note_on_c, 2, 64, 111
4, 268792, Note_off_c, 2, 64, 64
4, 268800, Note_on_c, 2, 57, 119
4, 269768, Note_on_c, 2, 55, 104
4, 269784, Note_off_c, 2, 57, 64
4, 269992, Note_on_c, 2, 59, 107
4, 270000, Note_off_c, 2, 55, 64
4, 270220, Note_off_c, 2, 59, 64
4, 270228, Note_on_c, 2, 52, 106
4, 270444, Note_off_c, 2, 52, 64
4, 270456, Note_on_c, 2, 54, 121
4, 270700, Note_off_c, 2, 54, 64
4, 270704, Note_on_c, 2, 52, 113
4, 270948, Note_off_c, 2, 52, 64
4, 270960, Note_on_c, 2, 50, 124
4, 271440, Note_off_c, 2, 50, 64
4, 272644, Note_on_c, 2, 62, 115
4, 272880, Note_on_c, 2, 67, 115
4, 272888, Note_off_c, 2, 62, 64
4, 273100, Note_off_c, 2, 67, 64
4, 273120, Note_on_c, 2, 64, 121
4, 273360, Note_off_c, 2, 64, 64
4, 273360, Note_on_c, 2, 60, 104
4, 274068, Note_on_c, 2, 59, 115
4, 274080, Note_off_c, 2, 60, 64
4, 274188, Note_off_c, 2, 59, 64
4, 274188, Note_on_c, 2, 57, 107
4, 274304, Note_on_c, 2, 55, 95
4, 274320, Note_off_c, 2, 57, 64
4, 274420, Note_off_c, 2, 55, 64
4, 274424, Note_on_c, 2, 54, 115
4, 274552, Note_on_c, 2, 55, 106
4, 274560, Note_off_c, 2, 54, 64
4, 274668, Note_on_c, 2, 57, 98
4, 274684, Note_off_c, 2, 55, 64
4, 274784, Note_off_c, 2, 57, 64
4, 274788, Note_on_c, 2, 59, 109
4, 275520, Note_off_c, 2, 59, 64
4, 275532, Note_on_c, 2, 57, 111
4, 275736, Note_off_c, 2, 57, 64
4, 275772, Note_on_c, 2, 59, 117
4, 276000, Note_off_c, 2, 59, 64
4, 276000, Note_on_c, 2, 60, 121
4, 276240, Note_off_c, 2, 60, 64
4, 276240, Note_on_c, 2, 59, 121
4, 276960, Note_off_c, 2, 59, 64
4, 276960, Note_on_c, 2, 55, 121
4, 277200, Note_off_c, 2, 55, 64
4, 277200, Note_on_c, 2, 59, 121
4, 277440, Note_off_c, 2, 59, 64
4, 277440, Note_on_c, 2, 52, 109
4, 277680, Note_on_c, 2, 57, 100
4, 277688, Note_off_c, 2, 52, 64
4, 277800, Note_off_c, 2, 57, 64
4, 277800, Note_on_c, 2, 55, 88
4, 277920, Note_off_c, 2, 55, 64
4, 277920, Note_on_c, 2, 54, 102
4, 278040, Note_off_c, 2, 54, 64
4, 278040, Note_on_c, 2, 55, 92
4, 278160, Note_off_c, 2, 55, 64
4, 278160, Note_on_c, 2, 62, 123
4, 278876, Note_off_c, 2, 62, 64
4, 278880, Note_on_c, 2, 60, 121
4, 279112, Note_off_c, 2, 60, 64
4, 279128, Note_on_c, 2, 54, 110
4, 279352, Note_off_c, 2, 54, 64
4, 279360, Note_on_c, 2, 57, 109
4, 279588, Note_off_c, 2, 57, 64
4, 279604, Note_on_c, 2, 50, 119
4, 280792, Note_on_c, 2, 55, 121
4, 280808, Note_off_c, 2, 50, 64
4, 281268, Note_on_c, 2, 57, 115
4, 281272, Note_off_c, 2, 55, 64
4, 281504, Note_off_c, 2, 57, 64
4, 281520, Note_on_c, 2, 60, 117
4, 281744, Note_on_c, 2, 54, 117
4, 281760, Note_off_c, 2, 60, 64
4, 281984, Note_on_c, 2, 55, 106
4, 282000, Note_off_c, 2, 54, 64
4, 282228, Note_off_c, 2, 55, 64
4, 282232, Note_on_c, 2, 57, 111
4, 282468, Note_off_c, 2, 57, 64
4, 282484, Note_on_c, 2, 55, 115
4, 283112, Note_off_c, 2, 55, 64
4, 284160, Note_on_c, 2, 62, 113
4, 284408, Note_on_c, 2, 67, 117
4, 284424, Note_off_c, 2, 62, 64
4, 284648, Note_off_c, 2, 67, 64
4, 284648, Note_on_c, 2, 64, 113
4, 284880, Note_off_c, 2, 64, 64
4, 284888, Note_on_c, 2, 60, 109
4, 285588, Note_off_c, 2, 60, 64
4, 285600, Note_on_c, 2, 59, 111
4, 285720, Note_on_c, 2, 57, 113
4, 285732, Note_off_c, 2, 59, 64
4, 285832, Note_off_c, 2, 57, 64
4, 285844, Note_on_c, 2, 55, 107
4, 285960, Note_on_c, 2, 54, 117
4, 285968, Note_off_c, 2, 55, 64
4, 286080, Note_off_c, 2, 54, 64
4, 286080, Note_on_c, 2, 55, 106
4, 286192, Note_on_c, 2, 57, 111
4, 286200, Note_off_c, 2, 55, 64
4, 286320, Note_on_c, 2, 59, 115
4, 286328, Note_off_c, 2, 57, 64
4, 287040, Note_off_c, 2, 59, 64
4, 287052, Note_on_c, 2, 57, 111
4, 287288, Note_off_c, 2, 57, 64
4, 287292, Note_on_c, 2, 59, 115
4, 287496, Note_off_c, 2, 59, 64
4, 287520, Note_on_c, 2, 60, 113
4, 287760, Note_off_c, 2, 60, 64
4, 287760, Note_on_c, 2, 59, 113
4, 288480, Note_off_c, 2, 59, 64
4, 288480, Note_on_c, 2, 55, 113
4, 288720, Note_off_c, 2, 55, 64
4, 288720, Note_on_c, 2, 59, 113
4, 288960, Note_off_c, 2, 59, 64
4, 288960, Note_on_c, 2, 52, 113
4, 289200, Note_off_c, 2, 52, 64
4, 289200, Note_on_c, 2, 57, 90
4, 289320, Note_off_c, 2, 57, 64
4, 289320, Note_on_c, 2, 55, 59
4, 289440, Note_off_c, 2, 55, 64
4, 289440, Note_on_c, 2, 54, 96
4, 289560, Note_off_c, 2, 54, 64
4, 289560, Note_on_c, 2, 55, 97
4, 289680, Note_off_c, 2, 55, 64
4, 289680, Note_on_c, 2, 62, 111
4, 290388, Note_on_c, 2, 60, 107
4, 290392, Note_off_c, 2, 62, 64
4, 290640, Note_on_c, 2, 54, 107
4, 290648, Note_off_c, 2, 60, 64
4, 290880, Note_off_c, 2, 54, 64
4, 290880, Note_on_c, 2, 57, 107
4, 291120, Note_on_c, 2, 50, 102
4, 291140, Note_off_c, 2, 57, 64
4, 292320, Note_on_c, 2, 55, 111
4, 292560, Note_off_c, 2, 50, 64
4, 292800, Note_off_c, 2, 55, 64
4, 292800, Note_on_c, 2, 57, 112
4, 293028, Note_on_c, 2, 60, 115
4, 293056, Note_off_c, 2, 57, 64
4, 293268, Note_on_c, 2, 54, 115
4, 293280, Note_off_c, 2, 60, 64
4, 293508, Note_on_c, 2, 55, 113
4, 293520, Note_off_c, 2, 54, 64
4, 293768, Note_off_c, 2, 55, 64
4, 293768, Note_on_c, 2, 57, 111
4, 294000, Note_on_c, 2, 55, 106
4, 294012, Note_off_c, 2, 57, 64
4, 294480, Note_off_c, 2, 55, 64
4, 559440, Note_on_c, 2, 62, 121
4, 559500, Note_on_c, 2, 60, 117
4, 559516, Note_off_c, 2, 62, 64
4, 559584, Note_on_c, 2, 62, 104
4, 559592, Note_off_c, 2, 60, 64
4, 560296, Note_off_c, 2, 62, 64
4, 560400, Note_on_c, 2, 64, 115
4, 560460, Note_off_c, 2, 64, 64
4, 560460, Note_on_c, 2, 62, 89
4, 560484, Note_off_c, 2, 62, 64
4, 560520, Note_on_c, 2, 64, 101
4, 560580, Note_off_c, 2, 64, 64
4, 560580, Note_on_c, 2, 62, 81
4, 560640, Note_off_c, 2, 62, 64
4, 560640, Note_on_c, 2, 64, 91
4, 560700, Note_on_c, 2, 62, 85
4, 560708, Note_off_c, 2, 64, 64
4, 560760, Note_on_c, 2, 64, 82
4, 560764, Note_off_c, 2, 62, 64
4, 560820, Note_on_c, 2, 62, 93
4, 560824, Note_off_c, 2, 64, 64
4, 560880, Note_on_c, 2, 64, 80
4, 560896, Note_off_c, 2, 62, 64
4, 560924, Note_off_c, 2, 64, 64
4, 560940, Note_on_c, 2, 62, 90
4, 561000, Note_off_c, 2, 62, 64
4, 561000, Note_on_c, 2, 64, 81
4, 561060, Note_on_c, 2, 62, 100
4, 561076, Note_off_c, 2, 64, 64
4, 561120, Note_off_c, 2, 62, 64
4, 561120, Note_on_c, 2, 64, 95
4, 561180, Note_off_c, 2, 64, 64
4, 561180, Note_on_c, 2, 62, 95
4, 561240, Note_off_c, 2, 62, 64
4, 561240, Note_on_c, 2, 60, 95
4, 561300, Note_off_c, 2, 60, 64
4, 561300, Note_on_c, 2, 62, 101
4, 561360, Note_off_c, 2, 62, 64
4, 561360, Note_on_c, 2, 64, 111
4, 561840, Note_off_c, 2, 64, 64
4, 561840, Note_on_c, 2, 60, 109
4, 562320, Note_off_c, 2, 60, 64
4, 562320, Note_on_c, 2, 57, 106
4, 562800, Note_off_c, 2, 57, 64
4, 562800, Note_on_c, 2, 60, 85
4, 563296, Note_off_c, 2, 60, 64
4, 563296, Note_on_c, 2, 57, 107
4, 563772, Note_off_c, 2, 57, 64
4, 563784, Note_on_c, 2, 62, 119
4, 564232, Note_off_c, 2, 62, 64
4, 564240, Note_on_c, 2, 50, 111
4, 564712, Note_on_c, 2, 60, 102
4, 564720, Note_off_c, 2, 50, 64
4, 565184, Note_off_c, 2, 60, 64
4, 565200, Note_on_c, 2, 59, 113
4, 565252, Note_off_c, 2, 59, 64
4, 565260, Note_on_c, 2, 60, 102
4, 565296, Note_on_c, 2, 59, 97
4, 565320, Note_off_c, 2, 60, 64
4, 565652, Note_on_c, 2, 57, 107
4, 565680, Note_off_c, 2, 59, 64
4, 565896, Note_on_c, 2, 59, 102
4, 565908, Note_off_c, 2, 57, 64
4, 566132, Note_off_c, 2, 59, 64
4, 566132, Note_on_c, 2, 55, 100
4, 566376, Note_on_c, 2, 59, 115
4, 566396, Note_off_c, 2, 55, 64
4, 566624, Note_on_c, 2, 57, 109
4, 566652, Note_off_c, 2, 59, 64
4, 566864, Note_on_c, 2, 60, 109
4, 566876, Note_off_c, 2, 57, 64
4, 567120, Note_on_c, 2, 59, 115
4, 567144, Note_off_c, 2, 60, 64
4, 567344, Note_on_c, 2, 57, 104
4, 567376, Note_off_c, 2, 59, 64
4, 567604, Note_on_c, 2, 59, 117
4, 567624, Note_off_c, 2, 57, 64
4, 568104, Note_off_c, 2, 59, 64
4, 568104, Note_on_c, 2, 64, 126
4, 569500, Note_off_c, 2, 64, 64
4, 569504, Note_on_c, 2, 57, 96
4, 569984, Note_on_c, 2, 62, 111
4, 570012, Note_off_c, 2, 57, 64
4, 571452, Note_on_c, 2, 59, 97
4, 571456, Note_off_c, 2, 62, 64
4, 571932, Note_on_c, 2, 64, 90
4, 571936, Note_off_c, 2, 59, 64
4, 573352, Note_on_c, 2, 62, 90
4, 573372, Note_off_c, 2, 64, 64
4, 573840, Note_on_c, 2, 61, 99
4, 573856, Note_off_c, 2, 62, 64
4, 574320, Note_on_c, 2, 64, 101
4, 574332, Note_off_c, 2, 61, 64
4, 574812, Note_on_c, 2, 57, 89
4, 574824, Note_off_c, 2, 64, 64
4, 575040, Note_on_c, 2, 59, 88
4, 575068, Note_off_c, 2, 57, 64
4, 575280, Note_off_c, 2, 59, 64
4, 575280, Note_on_c, 2, 57, 89
4, 575504, Note_off_c, 2, 57, 64
4, 575520, Note_on_c, 2, 55, 86
4, 575776, Note_on_c, 2, 54, 112
4, 575792, Note_off_c, 2, 55, 64
4, 576720, Note_on_c, 2, 55, 95
4, 576724, Note_off_c, 2, 54, 64
4, 577680, Note_off_c, 2, 55, 64
4, 579112, Note_on_c, 2, 52, 91
4, 579600, Note_on_c, 2, 57, 93
4, 579612, Note_off_c, 2, 52, 64
4, 580560, Note_off_c, 2, 57, 64
4, 580800, Note_on_c, 2, 57, 88
4, 581040, Note_on_c, 2, 55, 89
4, 581044, Note_off_c, 2, 57, 64
4, 581280, Note_off_c, 2, 55, 64
4, 581280, Note_on_c, 2, 57, 89
4, 581520, Note_off_c, 2, 57, 64
4, 581520, Note_on_c, 2, 54, 84
4, 582480, Note_off_c, 2, 54, 64
4, 590140, Note_on_c, 2, 62, 113
4, 590204, Note_on_c, 2, 60, 107
4, 590216, Note_off_c, 2, 62, 64
4, 590280, Note_on_c, 2, 62, 102
4, 590304, Note_off_c, 2, 60, 64
4, 591024, Note_off_c, 2, 62, 64
4, 591100, Note_on_c, 2, 64, 117
4, 591176, Note_on_c, 2, 62, 102
4, 591184, Note_off_c, 2, 64, 64
4, 591240, Note_on_c, 2, 64, 102
4, 591252, Note_off_c, 2, 62, 64
4, 591300, Note_on_c, 2, 62, 101
4, 591316, Note_off_c, 2, 64, 64
4, 591360, Note_on_c, 2, 64, 100
4, 591376, Note_off_c, 2, 62, 64
4, 591420, Note_on_c, 2, 62, 98
4, 591440, Note_off_c, 2, 64, 64
4, 591480, Note_on_c, 2, 64, 101
4, 591492, Note_off_c, 2, 62, 64
4, 591540, Note_on_c, 2, 62, 98
4, 591544, Note_off_c, 2, 64, 64
4, 591596, Note_off_c, 2, 62, 64
4, 591600, Note_on_c, 2, 64, 98
4, 591660, Note_on_c, 2, 62, 97
4, 591664, Note_off_c, 2, 64, 64
4, 591712, Note_off_c, 2, 62, 64
4, 591720, Note_on_c, 2, 64, 96
4, 591780, Note_on_c, 2, 62, 90
4, 591808, Note_off_c, 2, 64, 64
4, 591840, Note_off_c, 2, 62, 64
4, 591840, Note_on_c, 2, 64, 90
4, 591900, Note_off_c, 2, 64, 64
4, 591900, Note_on_c, 2, 62, 90
4, 591960, Note_off_c, 2, 62, 64
4, 591960, Note_on_c, 2, 60, 95
4, 592020, Note_off_c, 2, 60, 64
4, 592020, Note_on_c, 2, 62, 104
4, 592080, Note_off_c, 2, 62, 64
4, 592080, Note_on_c, 2, 64, 115
4, 592552, Note_off_c, 2, 64, 64
4, 592560, Note_on_c, 2, 60, 107
4, 593040, Note_off_c, 2, 60, 64
4, 593040, Note_on_c, 2, 57, 102
4, 593520, Note_off_c, 2, 57, 64
4, 593520, Note_on_c, 2, 60, 95
4, 594000, Note_off_c, 2, 60, 64
4, 594012, Note_on_c, 2, 57, 102
4, 594496, Note_off_c, 2, 57, 64
4, 594496, Note_on_c, 2, 62, 111
4, 594952, Note_off_c, 2, 62, 64
4, 594976, Note_on_c, 2, 50, 106
4, 595452, Note_off_c, 2, 50, 64
4, 595452, Note_on_c, 2, 60, 109
4, 595904, Note_off_c, 2, 60, 64
4, 595920, Note_on_c, 2, 59, 101
4, 595968, Note_off_c, 2, 59, 64
4, 595984, Note_on_c, 2, 60, 102
4, 596040, Note_on_c, 2, 59, 102
4, 596052, Note_off_c, 2, 60, 64
4, 596404, Note_on_c, 2, 57, 109
4, 596424, Note_off_c, 2, 59, 64
4, 596636, Note_on_c, 2, 59, 100
4, 596660, Note_off_c, 2, 57, 64
4, 596880, Note_off_c, 2, 59, 64
4, 596880, Note_on_c, 2, 55, 91
4, 597116, Note_on_c, 2, 59, 106
4, 597136, Note_off_c, 2, 55, 64
4, 597352, Note_on_c, 2, 57, 98
4, 597376, Note_off_c, 2, 59, 64
4, 597600, Note_on_c, 2, 60, 107
4, 597616, Note_off_c, 2, 57, 64
4, 597840, Note_off_c, 2, 60, 64
4, 597840, Note_on_c, 2, 59, 106
4, 598320, Note_off_c, 2, 59, 64
4, 598320, Note_on_c, 2, 57, 106
4, 598560, Note_off_c, 2, 57, 64
4, 598560, Note_on_c, 2, 59, 100
4, 598800, Note_off_c, 2, 59, 64
4, 598800, Note_on_c, 2, 64, 117
4, 600240, Note_off_c, 2, 64, 64
4, 600240, Note_on_c, 2, 57, 102
4, 600712, Note_on_c, 2, 62, 107
4, 600736, Note_off_c, 2, 57, 64
4, 602160, Note_on_c, 2, 59, 98
4, 602176, Note_off_c, 2, 62, 64
4, 602640, Note_off_c, 2, 59, 64
4, 602640, Note_on_c, 2, 64, 115
4, 604084, Note_on_c, 2, 62, 97
4, 604104, Note_off_c, 2, 64, 64
4, 604544, Note_on_c, 2, 61, 104
4, 604552, Note_off_c, 2, 62, 64
4, 605024, Note_on_c, 2, 64, 109
4, 605044, Note_off_c, 2, 61, 64
4, 605520, Note_on_c, 2, 57, 97
4, 605524, Note_off_c, 2, 64, 64
4, 605760, Note_on_c, 2, 59, 96
4, 605788, Note_off_c, 2, 57, 64
4, 606000, Note_off_c, 2, 59, 64
4, 606000, Note_on_c, 2, 57, 97
4, 606236, Note_off_c, 2, 57, 64
4, 606236, Note_on_c, 2, 55, 85
4, 606480, Note_on_c, 2, 54, 88
4, 606504, Note_off_c, 2, 55, 64
4, 607440, Note_off_c, 2, 54, 64
4, 607440, Note_on_c, 2, 55, 113
4, 608400, Note_off_c, 2, 55, 64
4, 609840, Note_on_c, 2, 52, 102
4, 610320, Note_off_c, 2, 52, 64
4, 610320, Note_on_c, 2, 57, 104
4, 611280, Note_off_c, 2, 57, 64
4, 611520, Note_on_c, 2, 57, 102
4, 611732, Note_on_c, 2, 55, 100
4, 611760, Note_off_c, 2, 57, 64
4, 611976, Note_on_c, 2, 57, 97
4, 611988, Note_off_c, 2, 55, 64
4, 612220, Note_off_c, 2, 57, 64
4, 612224, Note_on_c, 2, 54, 94
4, 613224, Note_off_c, 2, 54, 64
4, 636240, Note_on_c, 2, 62, 113
4, 637200, Note_off_c, 2, 62, 64
4, 637200, Note_on_c, 2, 64, 106
4, 637260, Note_on_c, 2, 62, 93
4, 637264, Note_off_c, 2, 64, 64
4, 637320, Note_off_c, 2, 62, 64
4, 637320, Note_on_c, 2, 64, 92
4, 637380, Note_on_c, 2, 62, 88
4, 637392, Note_off_c, 2, 64, 64
4, 637440, Note_on_c, 2, 64, 93
4, 637452, Note_off_c, 2, 62, 64
4, 637500, Note_on_c, 2, 62, 86
4, 637508, Note_off_c, 2, 64, 64
4, 637560, Note_on_c, 2, 64, 96
4, 637564, Note_off_c, 2, 62, 64
4, 637620, Note_on_c, 2, 62, 80
4, 637632, Note_off_c, 2, 64, 64
4, 637680, Note_on_c, 2, 64, 96
4, 637684, Note_off_c, 2, 62, 64
4, 637740, Note_off_c, 2, 64, 64
4, 637740, Note_on_c, 2, 62, 85
4, 637800, Note_off_c, 2, 62, 64
4, 637800, Note_on_c, 2, 64, 85
4, 637860, Note_off_c, 2, 64, 64
4, 637860, Note_on_c, 2, 62, 85
4, 637920, Note_off_c, 2, 62, 64
4, 637936, Note_on_c, 2, 60, 71
4, 638036, Note_on_c, 2, 62, 92
4, 638056, Note_off_c, 2, 60, 64
4, 638152, Note_on_c, 2, 64, 111
4, 638164, Note_off_c, 2, 62, 64
4, 638640, Note_off_c, 2, 64, 64
4, 638640, Note_on_c, 2, 60, 106
4, 639120, Note_off_c, 2, 60, 64
4, 639124, Note_on_c, 2, 57, 101
4, 639592, Note_on_c, 2, 60, 100
4, 639616, Note_off_c, 2, 57, 64
4, 640084, Note_on_c, 2, 57, 90
4, 640104, Note_off_c, 2, 60, 64
4, 640576, Note_on_c, 2, 62, 109
4, 640584, Note_off_c, 2, 57, 64
4, 641032, Note_off_c, 2, 62, 64
4, 641040, Note_on_c, 2, 50, 109
4, 641520, Note_off_c, 2, 50, 64
4, 641544, Note_on_c, 2, 60, 113
4, 642000, Note_off_c, 2, 60, 64
4, 642012, Note_on_c, 2, 59, 98
4, 642064, Note_off_c, 2, 59, 64
4, 642068, Note_on_c, 2, 60, 96
4, 642120, Note_on_c, 2, 59, 102
4, 642140, Note_off_c, 2, 60, 64
4, 642460, Note_on_c, 2, 57, 93
4, 642484, Note_off_c, 2, 59, 64
4, 642696, Note_on_c, 2, 59, 98
4, 642716, Note_off_c, 2, 57, 64
4, 642940, Note_off_c, 2, 59, 64
4, 642960, Note_on_c, 2, 55, 93
4, 643920, Note_off_c, 2, 55, 64
4, 666960, Note_on_c, 2, 62, 109
4, 667892, Note_on_c, 2, 62, 109
4, 667920, Note_off_c, 2, 62, 64
4, 667920, Note_off_c, 2, 62, 64
4, 667956, Note_on_c, 2, 64, 95
4, 668020, Note_on_c, 2, 62, 98
4, 668032, Note_off_c, 2, 64, 64
4, 668084, Note_off_c, 2, 62, 64
4, 668084, Note_on_c, 2, 64, 92
4, 668136, Note_on_c, 2, 62, 85
4, 668156, Note_off_c, 2, 64, 64
4, 668208, Note_off_c, 2, 62, 64
4, 668212, Note_on_c, 2, 64, 92
4, 668272, Note_on_c, 2, 62, 83
4, 668284, Note_off_c, 2, 64, 64
4, 668328, Note_off_c, 2, 62, 64
4, 668328, Note_on_c, 2, 64, 93
4, 668400, Note_off_c, 2, 64, 64
4, 668400, Note_on_c, 2, 62, 92
4, 668448, Note_off_c, 2, 62, 64
4, 668464, Note_on_c, 2, 64, 91
4, 668512, Note_on_c, 2, 62, 93
4, 668520, Note_off_c, 2, 64, 64
4, 668564, Note_off_c, 2, 62, 64
4, 668576, Note_on_c, 2, 64, 92
4, 668636, Note_on_c, 2, 62, 85
4, 668660, Note_off_c, 2, 64, 64
4, 668724, Note_on_c, 2, 60, 92
4, 668732, Note_off_c, 2, 62, 64
4, 668820, Note_on_c, 2, 62, 97
4, 668828, Note_off_c, 2, 60, 64
4, 668880, Note_off_c, 2, 62, 64
4, 668904, Note_on_c, 2, 64, 111
4, 669360, Note_on_c, 2, 60, 107
4, 669376, Note_off_c, 2, 64, 64
4, 669840, Note_off_c, 2, 60, 64
4, 669852, Note_on_c, 2, 57, 111
4, 670300, Note_on_c, 2, 60, 101
4, 670324, Note_off_c, 2, 57, 64
4, 670812, Note_on_c, 2, 57, 104
4, 670824, Note_off_c, 2, 60, 64
4, 671292, Note_off_c, 2, 57, 64
4, 671292, Note_on_c, 2, 62, 113
4, 671752, Note_off_c, 2, 62, 64
4, 671764, Note_on_c, 2, 50, 104
4, 672252, Note_on_c, 2, 60, 111
4, 672272, Note_off_c, 2, 50, 64
4, 672732, Note_off_c, 2, 60, 64
4, 672732, Note_on_c, 2, 59, 101
4, 672784, Note_off_c, 2, 59, 64
4, 672788, Note_on_c, 2, 60, 96
4, 672848, Note_on_c, 2, 59, 93
4, 672864, Note_off_c, 2, 60, 64
4, 673192, Note_on_c, 2, 57, 90
4, 673216, Note_off_c, 2, 59, 64
4, 673428, Note_on_c, 2, 59, 102
4, 673440, Note_off_c, 2, 57, 64
4, 673680, Note_off_c, 2, 59, 64
4, 673680, Note_on_c, 2, 55, 100
4, 674640, Note_off_c, 2, 55, 64
4, 725760, Note_on_c, 2, 62, 101
4, 725876, Note_off_c, 2, 62, 64
4, 725880, Note_on_c, 2, 64, 89
4, 725996, Note_off_c, 2, 64, 64
4, 726000, Note_on_c, 2, 62, 97
4, 726236, Note_off_c, 2, 62, 64
4, 726240, Note_on_c, 2, 60, 91
4, 726356, Note_off_c, 2, 60, 64
4, 726360, Note_on_c, 2, 59, 63
4, 726476, Note_off_c, 2, 59, 64
4, 726480, Note_on_c, 2, 57, 71
4, 726596, Note_off_c, 2, 57, 64
4, 726600, Note_on_c, 2, 59, 78
4, 726716, Note_off_c, 2, 59, 64
4, 726720, Note_on_c, 2, 60, 73
4, 726836, Note_off_c, 2, 60, 64
4, 726840, Note_on_c, 2, 62, 89
4, 726956, Note_off_c, 2, 62, 64
4, 726960, Note_on_c, 2, 55, 76
4, 727076, Note_off_c, 2, 55, 64
4, 727080, Note_on_c, 2, 60, 76
4, 727196, Note_off_c, 2, 60, 64
4, 727200, Note_on_c, 2, 59, 76
4, 727316, Note_off_c, 2, 59, 64
4, 727320, Note_on_c, 2, 57, 88
4, 727440, Note_off_c, 2, 57, 64
4, 727440, Note_on_c, 2, 55, 90
4, 727560, Note_off_c, 2, 55, 64
4, 727560, Note_on_c, 2, 54, 70
4, 727680, Note_off_c, 2, 54, 64
4, 727680, Note_on_c, 2, 52, 70
4, 727800, Note_off_c, 2, 52, 64
4, 727800, Note_on_c, 2, 50, 70
4, 727920, Note_off_c, 2, 50, 64
4, 727920, Note_on_c, 2, 49, 109
4, 728396, Note_off_c, 2, 49, 64
4, 728640, Note_on_c, 2, 50, 97
4, 728756, Note_off_c, 2, 50, 64
4, 728760, Note_on_c, 2, 52, 101
4, 728876, Note_off_c, 2, 52, 64
4, 728880, Note_on_c, 2, 54, 102
4, 728996, Note_off_c, 2, 54, 64
4, 729000, Note_on_c, 2, 55, 86
4, 729116, Note_off_c, 2, 55, 64
4, 729120, Note_on_c, 2, 57, 91
4, 729236, Note_off_c, 2, 57, 64
4, 729240, Note_on_c, 2, 59, 86
4, 729356, Note_off_c, 2, 59, 64
4, 729360, Note_on_c, 2, 60, 96
4, 729476, Note_off_c, 2, 60, 64
4, 729480, Note_on_c, 2, 62, 77
4, 729596, Note_off_c, 2, 62, 64
4, 729600, Note_on_c, 2, 64, 97
4, 729716, Note_off_c, 2, 64, 64
4, 729720, Note_on_c, 2, 62, 86
4, 729836, Note_off_c, 2, 62, 64
4, 729840, Note_on_c, 2, 62, 106
4, 730076, Note_off_c, 2, 62, 64
4, 730080, Note_on_c, 2, 64, 98
4, 730196, Note_off_c, 2, 64, 64
4, 730200, Note_on_c, 2, 66, 86
4, 730316, Note_off_c, 2, 66, 64
4, 730320, Note_on_c, 2, 67, 115
4, 730796, Note_off_c, 2, 67, 64
4, 731400, Note_on_c, 2, 55, 117
4, 731880, Note_off_c, 2, 55, 64
4, 731880, Note_on_c, 2, 59, 84
4, 731996, Note_off_c, 2, 59, 64
4, 732000, Note_on_c, 2, 60, 86
4, 732116, Note_off_c, 2, 60, 64
4, 732120, Note_on_c, 2, 62, 81
4, 732236, Note_off_c, 2, 62, 64
4, 732240, Note_on_c, 2, 64, 82
4, 732356, Note_off_c, 2, 64, 64
4, 732360, Note_on_c, 2, 66, 107
4, 732476, Note_off_c, 2, 66, 64
4, 732480, Note_on_c, 2, 67, 104
4, 732596, Note_off_c, 2, 67, 64
4, 732600, Note_on_c, 2, 64, 91
4, 732716, Note_off_c, 2, 64, 64
4, 732720, Note_on_c, 2, 66, 96
4, 732840, Note_off_c, 2, 66, 64
4, 732840, Note_on_c, 2, 62, 91
4, 732960, Note_off_c, 2, 62, 64
4, 732960, Note_on_c, 2, 57, 91
4, 733080, Note_off_c, 2, 57, 64
4, 733080, Note_on_c, 2, 55, 91
4, 733200, Note_off_c, 2, 55, 64
4, 733200, Note_on_c, 2, 54, 91
4, 733440, Note_off_c, 2, 54, 64
4, 733440, Note_on_c, 2, 60, 117
4, 733920, Note_off_c, 2, 60, 64
4, 733920, Note_on_c, 2, 60, 121
4, 734276, Note_off_c, 2, 60, 64
4, 734280, Note_on_c, 2, 59, 106
4, 734396, Note_off_c, 2, 59, 64
4, 734400, Note_on_c, 2, 64, 92
4, 734516, Note_off_c, 2, 64, 64
4, 734520, Note_on_c, 2, 62, 106
4, 734636, Note_off_c, 2, 62, 64
4, 734640, Note_on_c, 2, 60, 97
4, 734756, Note_off_c, 2, 60, 64
4, 734760, Note_on_c, 2, 62, 86
4, 734876, Note_off_c, 2, 62, 64
4, 734880, Note_on_c, 2, 64, 66
4, 734996, Note_off_c, 2, 64, 64
4, 735000, Note_on_c, 2, 54, 66
4, 735116, Note_off_c, 2, 54, 64
4, 735120, Note_on_c, 2, 55, 101
4, 735236, Note_off_c, 2, 55, 64
4, 735240, Note_on_c, 2, 57, 104
4, 735356, Note_off_c, 2, 57, 64
4, 735360, Note_on_c, 2, 59, 96
4, 735476, Note_off_c, 2, 59, 64
4, 735480, Note_on_c, 2, 60, 97
4, 735596, Note_off_c, 2, 60, 64
4, 735600, Note_on_c, 2, 62, 111
4, 736076, Note_off_c, 2, 62, 64
4, 737160, Note_on_c, 2, 64, 70
4, 737276, Note_off_c, 2, 64, 64
4, 737280, Note_on_c, 2, 62, 76
4, 737396, Note_off_c, 2, 62, 64
4, 737400, Note_on_c, 2, 61, 79
4, 737516, Note_off_c, 2, 61, 64
4, 737520, Note_on_c, 2, 59, 79
4, 737640, Note_off_c, 2, 59, 64
4, 737640, Note_on_c, 2, 57, 75
4, 737760, Note_off_c, 2, 57, 64
4, 737760, Note_on_c, 2, 55, 70
4, 737880, Note_off_c, 2, 55, 64
4, 737880, Note_on_c, 2, 52, 66
4, 738000, Note_off_c, 2, 52, 64
4, 738000, Note_on_c, 2, 54, 62
4, 738120, Note_off_c, 2, 54, 64
4, 738120, Note_on_c, 2, 55, 59
4, 738236, Note_off_c, 2, 55, 64
4, 738240, Note_on_c, 2, 57, 57
4, 738356, Note_off_c, 2, 57, 64
4, 738360, Note_on_c, 2, 59, 56
4, 738476, Note_off_c, 2, 59, 64
4, 738480, Note_on_c, 2, 61, 58
4, 738596, Note_off_c, 2, 61, 64
4, 738600, Note_on_c, 2, 62, 61
4, 738716, Note_off_c, 2, 62, 64
4, 738720, Note_on_c, 2, 64, 67
4, 738836, Note_off_c, 2, 64, 64
4, 738840, Note_on_c, 2, 66, 78
4, 738956, Note_off_c, 2, 66, 64
4, 738960, Note_on_c, 2, 67, 86
4, 739200, Note_off_c, 2, 67, 64
4, 740160, Note_on_c, 2, 57, 103
4, 740516, Note_off_c, 2, 57, 64
4, 740520, Note_on_c, 2, 59, 89
4, 740636, Note_off_c, 2, 59, 64
4, 740640, Note_on_c, 2, 61, 86
4, 740756, Note_off_c, 2, 61, 64
4, 740760, Note_on_c, 2, 59, 88
4, 740876, Note_off_c, 2, 59, 64
4, 740880, Note_on_c, 2, 57, 90
4, 740996, Note_off_c, 2, 57, 64
4, 741000, Note_on_c, 2, 55, 91
4, 741116, Note_off_c, 2, 55, 64
4, 741120, Note_on_c, 2, 54, 90
4, 741236, Note_off_c, 2, 54, 64
4, 741240, Note_on_c, 2, 52, 87
4, 741356, Note_off_c, 2, 52, 64
4, 741360, Note_on_c, 2, 50, 86
4, 741596, Note_off_c, 2, 50, 64
4, 741600, Note_on_c, 2, 62, 85
4, 741720, Note_off_c, 2, 62, 64
4, 741720, Note_on_c, 2, 64, 97
4, 741840, Note_off_c, 2, 64, 64
4, 741840, Note_on_c, 2, 62, 97
4, 742320, Note_off_c, 2, 62, 64
4, 742440, Note_on_c, 2, 59, 82
4, 742556, Note_off_c, 2, 59, 64
4, 742560, Note_on_c, 2, 61, 92
4, 742676, Note_off_c, 2, 61, 64
4, 742680, Note_on_c, 2, 62, 106
4, 742796, Note_off_c, 2, 62, 64
4, 742800, Note_on_c, 2, 64, 84
4, 742916, Note_off_c, 2, 64, 64
4, 742920, Note_on_c, 2, 66, 108
4, 743036, Note_off_c, 2, 66, 64
4, 743040, Note_on_c, 2, 64, 100
4, 743156, Note_off_c, 2, 64, 64
4, 743160, Note_on_c, 2, 62, 100
4, 743276, Note_off_c, 2, 62, 64
4, 743280, Note_on_c, 2, 64, 111
4, 743396, Note_off_c, 2, 64, 64
4, 743400, Note_on_c, 2, 61, 93
4, 743516, Note_off_c, 2, 61, 64
4, 743520, Note_on_c, 2, 62, 89
4, 743636, Note_off_c, 2, 62, 64
4, 743640, Note_on_c, 2, 64, 106
4, 743756, Note_off_c, 2, 64, 64
4, 743760, Note_on_c, 2, 66, 117
4, 744480, Note_off_c, 2, 66, 64
4, 744480, Note_on_c, 2, 55, 101
4, 744716, Note_off_c, 2, 55, 64
4, 744720, Note_on_c, 2, 57, 97
4, 744956, Note_off_c, 2, 57, 64
4, 744960, Note_on_c, 2, 59, 111
4, 745200, Note_off_c, 2, 59, 64
4, 745200, Note_on_c, 2, 61, 119
4, 745436, Note_off_c, 2, 61, 64
4, 745440, Note_on_c, 2, 52, 119
4, 745680, Note_off_c, 2, 52, 64
4, 745680, Note_on_c, 2, 62, 123
4, 746400, Note_off_c, 2, 62, 64
4, 746400, Note_on_c, 2, 64, 95
4, 746640, Note_off_c, 2, 64, 64
4, 746640, Note_on_c, 2, 66, 110
4, 746756, Note_off_c, 2, 66, 64
4, 746760, Note_on_c, 2, 61, 93
4, 746876, Note_off_c, 2, 61, 64
4, 746880, Note_on_c, 2, 62, 115
4, 747116, Note_off_c, 2, 62, 64
4, 748800, Note_on_c, 2, 62, 101
4, 748916, Note_off_c, 2, 62, 64
4, 748920, Note_on_c, 2, 64, 89
4, 749036, Note_off_c, 2, 64, 64
4, 749040, Note_on_c, 2, 62, 97
4, 749276, Note_off_c, 2, 62, 64
4, 749280, Note_on_c, 2, 60, 91
4, 749396, Note_off_c, 2, 60, 64
4, 749400, Note_on_c, 2, 59, 63
4, 749516, Note_off_c, 2, 59, 64
4, 749520, Note_on_c, 2, 57, 71
4, 749636, Note_off_c, 2, 57, 64
4, 749640, Note_on_c, 2, 59, 78
4, 749756, Note_off_c, 2, 59, 64
4, 749760, Note_on_c, 2, 60, 73
4, 749876, Note_off_c, 2, 60, 64
4, 749880, Note_on_c, 2, 62, 89
4, 749996, Note_off_c, 2, 62, 64
4, 750000, Note_on_c, 2, 55, 76
4, 750116, Note_off_c, 2, 55, 64
4, 750120, Note_on_c, 2, 60, 76
4, 750236, Note_off_c, 2, 60, 64
4, 750240, Note_on_c, 2, 59, 76
4, 750356, Note_off_c, 2, 59, 64
4, 750360, Note_on_c, 2, 57, 88
4, 750480, Note_off_c, 2, 57, 64
4, 750480, Note_on_c, 2, 55, 90
4, 750600, Note_off_c, 2, 55, 64
4, 750600, Note_on_c, 2, 54, 70
4, 750720, Note_off_c, 2, 54, 64
4, 750720, Note_on_c, 2, 52, 70
4, 750840, Note_off_c, 2, 52, 64
4, 750840, Note_on_c, 2, 50, 70
4, 750960, Note_off_c, 2, 50, 64
4, 750960, Note_on_c, 2, 49, 109
4, 751436, Note_off_c, 2, 49, 64
4, 751680, Note_on_c, 2, 50, 97
4, 751796, Note_off_c, 2, 50, 64
4, 751800, Note_on_c, 2, 52, 101
4, 751916, Note_off_c, 2, 52, 64
4, 751920, Note_on_c, 2, 54, 102
4, 752036, Note_off_c, 2, 54, 64
4, 752040, Note_on_c, 2, 55, 86
4, 752156, Note_off_c, 2, 55, 64
4, 752160, Note_on_c, 2, 57, 91
4, 752276, Note_off_c, 2, 57, 64
4, 752280, Note_on_c, 2, 59, 86
4, 752396, Note_off_c, 2, 59, 64
4, 752400, Note_on_c, 2, 60, 96
4, 752516, Note_off_c, 2, 60, 64
4, 752520, Note_on_c, 2, 62, 77
4, 752636, Note_off_c, 2, 62, 64
4, 752640, Note_on_c, 2, 64, 97
4, 752756, Note_off_c, 2, 64, 64
4, 752760, Note_on_c, 2, 62, 86
4, 752876, Note_off_c, 2, 62, 64
4, 752880, Note_on_c, 2, 62, 106
4, 753116, Note_off_c, 2, 62, 64
4, 753120, Note_on_c, 2, 64, 98
4, 753236, Note_off_c, 2, 64, 64
4, 753240, Note_on_c, 2, 66, 86
4, 753356, Note_off_c, 2, 66, 64
4, 753360, Note_on_c, 2, 67, 115
4, 753836, Note_off_c, 2, 67, 64
4, 754440, Note_on_c, 2, 55, 97
4, 754920, Note_off_c, 2, 55, 64
4, 754920, Note_on_c, 2, 59, 84
4, 755036, Note_off_c, 2, 59, 64
4, 755040, Note_on_c, 2, 60, 86
4, 755156, Note_off_c, 2, 60, 64
4, 755160, Note_on_c, 2, 62, 81
4, 755276, Note_off_c, 2, 62, 64
4, 755280, Note_on_c, 2, 64, 82
4, 755396, Note_off_c, 2, 64, 64
4, 755400, Note_on_c, 2, 66, 107
4, 755516, Note_off_c, 2, 66, 64
4, 755520, Note_on_c, 2, 67, 104
4, 755636, Note_off_c, 2, 67, 64
4, 755640, Note_on_c, 2, 64, 91
4, 755756, Note_off_c, 2, 64, 64
4, 755760, Note_on_c, 2, 66, 96
4, 755880, Note_off_c, 2, 66, 64
4, 755880, Note_on_c, 2, 62, 91
4, 756000, Note_off_c, 2, 62, 64
4, 756000, Note_on_c, 2, 57, 91
4, 756120, Note_off_c, 2, 57, 64
4, 756120, Note_on_c, 2, 55, 91
4, 756240, Note_off_c, 2, 55, 64
4, 756240, Note_on_c, 2, 54, 91
4, 756480, Note_off_c, 2, 54, 64
4, 756480, Note_on_c, 2, 60, 117
4, 756960, Note_off_c, 2, 60, 64
4, 756960, Note_on_c, 2, 60, 121
4, 757316, Note_off_c, 2, 60, 64
4, 757320, Note_on_c, 2, 59, 106
4, 757436, Note_off_c, 2, 59, 64
4, 757440, Note_on_c, 2, 64, 92
4, 757556, Note_off_c, 2, 64, 64
4, 757560, Note_on_c, 2, 62, 106
4, 757676, Note_off_c, 2, 62, 64
4, 757680, Note_on_c, 2, 60, 97
4, 757796, Note_off_c, 2, 60, 64
4, 757800, Note_on_c, 2, 62, 86
4, 757916, Note_off_c, 2, 62, 64
4, 757920, Note_on_c, 2, 64, 66
4, 758036, Note_off_c, 2, 64, 64
4, 758040, Note_on_c, 2, 54, 66
4, 758156, Note_off_c, 2, 54, 64
4, 758160, Note_on_c, 2, 55, 101
4, 758276, Note_off_c, 2, 55, 64
4, 758280, Note_on_c, 2, 57, 104
4, 758396, Note_off_c, 2, 57, 64
4, 758400, Note_on_c, 2, 59, 96
4, 758516, Note_off_c, 2, 59, 64
4, 758520, Note_on_c, 2, 60, 97
4, 758636, Note_off_c, 2, 60, 64
4, 758640, Note_on_c, 2, 62, 111
4, 759116, Note_off_c, 2, 62, 64
4, 760200, Note_on_c, 2, 64, 87
4, 760316, Note_off_c, 2, 64, 64
4, 760320, Note_on_c, 2, 62, 90
4, 760436, Note_off_c, 2, 62, 64
4, 760440, Note_on_c, 2, 61, 91
4, 760556, Note_off_c, 2, 61, 64
4, 760560, Note_on_c, 2, 59, 91
4, 760680, Note_off_c, 2, 59, 64
4, 760680, Note_on_c, 2, 57, 93
4, 760800, Note_off_c, 2, 57, 64
4, 760800, Note_on_c, 2, 55, 93
4, 760920, Note_off_c, 2, 55, 64
4, 760920, Note_on_c, 2, 52, 90
4, 761040, Note_off_c, 2, 52, 64
4, 761040, Note_on_c, 2, 54, 89
4, 761160, Note_off_c, 2, 54, 64
4, 761160, Note_on_c, 2, 55, 85
4, 761276, Note_off_c, 2, 55, 64
4, 761280, Note_on_c, 2, 57, 86
4, 761396, Note_off_c, 2, 57, 64
4, 761400, Note_on_c, 2, 59, 93
4, 761516, Note_off_c, 2, 59, 64
4, 761520, Note_on_c, 2, 61, 95
4, 761636, Note_off_c, 2, 61, 64
4, 761640, Note_on_c, 2, 62, 98
4, 761756, Note_off_c, 2, 62, 64
4, 761760, Note_on_c, 2, 64, 105
4, 761876, Note_off_c, 2, 64, 64
4, 761880, Note_on_c, 2, 66, 105
4, 761996, Note_off_c, 2, 66, 64
4, 762000, Note_on_c, 2, 67, 104
4, 762240, Note_off_c, 2, 67, 64
4, 763200, Note_on_c, 2, 57, 107
4, 763556, Note_off_c, 2, 57, 64
4, 763560, Note_on_c, 2, 59, 80
4, 763676, Note_off_c, 2, 59, 64
4, 763680, Note_on_c, 2, 61, 91
4, 763796, Note_off_c, 2, 61, 64
4, 763800, Note_on_c, 2, 59, 90
4, 763916, Note_off_c, 2, 59, 64
4, 763920, Note_on_c, 2, 57, 100
4, 764036, Note_off_c, 2, 57, 64
4, 764040, Note_on_c, 2, 55, 94
4, 764156, Note_off_c, 2, 55, 64
4, 764160, Note_on_c, 2, 54, 88
4, 764276, Note_off_c, 2, 54, 64
4, 764280, Note_on_c, 2, 52, 89
4, 764396, Note_off_c, 2, 52, 64
4, 764400, Note_on_c, 2, 50, 88
4, 764636, Note_off_c, 2, 50, 64
4, 764640, Note_on_c, 2, 62, 96
4, 764760, Note_off_c, 2, 62, 64
4, 764760, Note_on_c, 2, 64, 96
4, 764880, Note_off_c, 2, 64, 64
4, 764880, Note_on_c, 2, 62, 97
4, 765360, Note_off_c, 2, 62, 64
4, 765480, Note_on_c, 2, 59, 82
4, 765596, Note_off_c, 2, 59, 64
4, 765600, Note_on_c, 2, 61, 92
4, 765716, Note_off_c, 2, 61, 64
4, 765720, Note_on_c, 2, 62, 106
4, 765836, Note_off_c, 2, 62, 64
4, 765840, Note_on_c, 2, 64, 84
4, 765956, Note_off_c, 2, 64, 64
4, 765960, Note_on_c, 2, 66, 108
4, 766076, Note_off_c, 2, 66, 64
4, 766080, Note_on_c, 2, 64, 100
4, 766196, Note_off_c, 2, 64, 64
4, 766200, Note_on_c, 2, 62, 100
4, 766316, Note_off_c, 2, 62, 64
4, 766320, Note_on_c, 2, 64, 111
4, 766436, Note_off_c, 2, 64, 64
4, 766440, Note_on_c, 2, 61, 93
4, 766556, Note_off_c, 2, 61, 64
4, 766560, Note_on_c, 2, 62, 89
4, 766676, Note_off_c, 2, 62, 64
4, 766680, Note_on_c, 2, 64, 106
4, 766796, Note_off_c, 2, 64, 64
4, 766800, Note_on_c, 2, 66, 117
4, 767520, Note_off_c, 2, 66, 64
4, 767520, Note_on_c, 2, 55, 91
4, 767756, Note_off_c, 2, 55, 64
4, 767760, Note_on_c, 2, 57, 89
4, 767996, Note_off_c, 2, 57, 64
4, 768000, Note_on_c, 2, 59, 92
4, 768240, Note_off_c, 2, 59, 64
4, 768240, Note_on_c, 2, 61, 97
4, 768476, Note_off_c, 2, 61, 64
4, 768480, Note_on_c, 2, 52, 106
4, 768720, Note_off_c, 2, 52, 64
4, 768720, Note_on_c, 2, 62, 108
4, 769440, Note_off_c, 2, 62, 64
4, 769440, Note_on_c, 2, 64, 95
4, 769680, Note_off_c, 2, 64, 64
4, 769680, Note_on_c, 2, 66, 110
4, 769796, Note_off_c, 2, 66, 64
4, 769800, Note_on_c, 2, 61, 93
4, 769916, Note_off_c, 2, 61, 64
4, 769920, Note_on_c, 2, 62, 115
4, 770156, Note_off_c, 2, 62, 64
4, 770400, Note_on_c, 2, 62, 115
4, 770516, Note_off_c, 2, 62, 64
4, 770520, Note_on_c, 2, 64, 104
4, 770636, Note_off_c, 2, 64, 64
4, 770640, Note_on_c, 2, 62, 104
4, 770880, Note_off_c, 2, 62, 64
4, 770880, Note_on_c, 2, 60, 102
4, 770996, Note_off_c, 2, 60, 64
4, 771000, Note_on_c, 2, 59, 90
4, 771116, Note_off_c, 2, 59, 64
4, 771120, Note_on_c, 2, 57, 98
4, 771236, Note_off_c, 2, 57, 64
4, 771240, Note_on_c, 2, 59, 98
4, 771356, Note_off_c, 2, 59, 64
4, 771360, Note_on_c, 2, 60, 106
4, 771476, Note_off_c, 2, 60, 64
4, 771480, Note_on_c, 2, 62, 109
4, 771596, Note_off_c, 2, 62, 64
4, 771600, Note_on_c, 2, 50, 121
4, 772196, Note_off_c, 2, 50, 64
4, 772200, Note_on_c, 2, 52, 109
4, 772316, Note_off_c, 2, 52, 64
4, 772320, Note_on_c, 2, 48, 100
4, 772436, Note_off_c, 2, 48, 64
4, 772440, Note_on_c, 2, 50, 107
4, 772556, Note_off_c, 2, 50, 64
4, 772560, Note_on_c, 2, 52, 111
4, 772676, Note_off_c, 2, 52, 64
4, 772680, Note_on_c, 2, 50, 104
4, 772796, Note_off_c, 2, 50, 64
4, 772800, Note_on_c, 2, 53, 123
4, 773036, Note_off_c, 2, 53, 64
4, 773040, Note_on_c, 2, 53, 123
4, 773160, Note_off_c, 2, 53, 64
4, 773160, Note_on_c, 2, 52, 111
4, 773340, Note_off_c, 2, 52, 64
4, 773340, Note_on_c, 2, 53, 111
4, 773400, Note_off_c, 2, 53, 64
4, 773400, Note_on_c, 2, 52, 111
4, 773460, Note_off_c, 2, 52, 64
4, 773460, Note_on_c, 2, 51, 111
4, 773520, Note_off_c, 2, 51, 64
4, 773520, Note_on_c, 2, 52, 111
4, 773760, Note_off_c, 2, 52, 64
4, 773760, Note_on_c, 2, 60, 111
4, 774000, Note_off_c, 2, 60, 64
4, 774240, Note_on_c, 2, 52, 111
4, 774480, Note_off_c, 2, 52, 64
4, 774480, Note_on_c, 2, 51, 111
4, 774600, Note_off_c, 2, 51, 64
4, 774600, Note_on_c, 2, 52, 96
4, 774716, Note_off_c, 2, 52, 64
4, 774720, Note_on_c, 2, 51, 96
4, 774840, Note_off_c, 2, 51, 64
4, 774840, Note_on_c, 2, 49, 90
4, 774956, Note_off_c, 2, 49, 64
4, 774960, Note_on_c, 2, 51, 117
4, 775076, Note_off_c, 2, 51, 64
4, 775080, Note_on_c, 2, 52, 94
4, 775196, Note_off_c, 2, 52, 64
4, 775200, Note_on_c, 2, 54, 115
4, 775316, Note_off_c, 2, 54, 64
4, 775320, Note_on_c, 2, 55, 101
4, 775436, Note_off_c, 2, 55, 64
4, 775440, Note_on_c, 2, 57, 104
4, 775556, Note_off_c, 2, 57, 64
4, 775560, Note_on_c, 2, 59, 102
4, 775676, Note_off_c, 2, 59, 64
4, 775680, Note_on_c, 2, 61, 88
4, 775796, Note_off_c, 2, 61, 64
4, 775800, Note_on_c, 2, 63, 112
4, 775916, Note_off_c, 2, 63, 64
4, 775920, Note_on_c, 2, 64, 117
4, 777596, Note_off_c, 2, 64, 64
4, 777600, Note_on_c, 2, 64, 119
4, 777716, Note_off_c, 2, 64, 64
4, 777720, Note_on_c, 2, 63, 117
4, 777836, Note_off_c, 2, 63, 64
4, 777840, Note_on_c, 2, 64, 113
4, 778076, Note_off_c, 2, 64, 64
4, 778080, Note_on_c, 2, 64, 113
4, 778316, Note_off_c, 2, 64, 64
4, 778320, Note_on_c, 2, 64, 111
4, 778556, Note_off_c, 2, 64, 64
4, 778560, Note_on_c, 2, 63, 121
4, 778676, Note_off_c, 2, 63, 64
4, 778680, Note_on_c, 2, 61, 110
4, 778796, Note_off_c, 2, 61, 64
4, 778800, Note_on_c, 2, 63, 115
4, 779276, Note_off_c, 2, 63, 64
4, 779760, Note_on_c, 2, 66, 123
4, 780356, Note_off_c, 2, 66, 64
4, 780360, Note_on_c, 2, 64, 121
4, 780476, Note_off_c, 2, 64, 64
4, 780480, Note_on_c, 2, 63, 112
4, 780596, Note_off_c, 2, 63, 64
4, 780600, Note_on_c, 2, 66, 110
4, 780716, Note_off_c, 2, 66, 64
4, 780720, Note_on_c, 2, 64, 119
4, 780836, Note_off_c, 2, 64, 64
4, 780840, Note_on_c, 2, 62, 102
4, 780956, Note_off_c, 2, 62, 64
4, 780960, Note_on_c, 2, 61, 117
4, 781076, Note_off_c, 2, 61, 64
4, 781080, Note_on_c, 2, 60, 102
4, 781196, Note_off_c, 2, 60, 64
4, 781200, Note_on_c, 2, 59, 101
4, 781316, Note_off_c, 2, 59, 64
4, 781320, Note_on_c, 2, 57, 97
4, 781436, Note_off_c, 2, 57, 64
4, 781440, Note_on_c, 2, 55, 95
4, 781556, Note_off_c, 2, 55, 64
4, 781560, Note_on_c, 2, 54, 101
4, 781676, Note_off_c, 2, 54, 64
4, 781680, Note_on_c, 2, 55, 101
4, 782156, Note_off_c, 2, 55, 64
4, 783240, Note_on_c, 2, 69, 117
4, 783356, Note_off_c, 2, 69, 64
4, 783360, Note_on_c, 2, 68, 104
4, 783476, Note_off_c, 2, 68, 64
4, 783480, Note_on_c, 2, 66, 112
4, 783596, Note_off_c, 2, 66, 64
4, 783600, Note_on_c, 2, 68, 85
4, 783716, Note_off_c, 2, 68, 64
4, 783720, Note_on_c, 2, 65, 112
4, 783836, Note_off_c, 2, 65, 64
4, 783840, Note_on_c, 2, 64, 96
4, 783956, Note_off_c, 2, 64, 64
4, 783960, Note_on_c, 2, 62, 97
4, 784076, Note_off_c, 2, 62, 64
4, 784080, Note_on_c, 2, 64, 106
4, 784196, Note_off_c, 2, 64, 64
4, 784200, Note_on_c, 2, 62, 104
4, 784316, Note_off_c, 2, 62, 64
4, 784320, Note_on_c, 2, 60, 96
4, 784436, Note_off_c, 2, 60, 64
4, 784440, Note_on_c, 2, 59, 92
4, 784556, Note_off_c, 2, 59, 64
4, 784560, Note_on_c, 2, 60, 93
4, 786236, Note_off_c, 2, 60, 64
4, 786240, Note_on_c, 2, 67, 107
4, 786476, Note_off_c, 2, 67, 64
4, 786480, Note_on_c, 2, 66, 101
4, 786716, Note_off_c, 2, 66, 64
4, 786720, Note_on_c, 2, 64, 102
4, 786956, Note_off_c, 2, 64, 64
4, 786960, Note_on_c, 2, 62, 111
4, 787076, Note_off_c, 2, 62, 64
4, 787080, Note_on_c, 2, 59, 101
4, 787196, Note_off_c, 2, 59, 64
4, 787200, Note_on_c, 2, 60, 102
4, 787316, Note_off_c, 2, 60, 64
4, 787320, Note_on_c, 2, 57, 95
4, 787436, Note_off_c, 2, 57, 64
4, 787440, Note_on_c, 2, 59, 106
4, 787676, Note_off_c, 2, 59, 64
4, 787680, Note_on_c, 2, 60, 104
4, 787916, Note_off_c, 2, 60, 64
4, 787920, Note_on_c, 2, 59, 109
4, 788156, Note_off_c, 2, 59, 64
4, 788160, Note_on_c, 2, 57, 111
4, 788396, Note_off_c, 2, 57, 64
4, 788400, Note_on_c, 2, 57, 101
4, 788460, Note_off_c, 2, 57, 64
4, 788460, Note_on_c, 2, 55, 101
4, 788520, Note_off_c, 2, 55, 64
4, 788520, Note_on_c, 2, 57, 101
4, 788580, Note_off_c, 2, 57, 64
4, 788580, Note_on_c, 2, 55, 101
4, 788760, Note_off_c, 2, 55, 64
4, 788760, Note_on_c, 2, 54, 101
4, 788880, Note_off_c, 2, 54, 64
4, 788880, Note_on_c, 2, 55, 115
4, 789476, Note_off_c, 2, 55, 64
4, 789480, Note_on_c, 2, 59, 115
4, 789596, Note_off_c, 2, 59, 64
4, 789600, Note_on_c, 2, 57, 106
4, 789716, Note_off_c, 2, 57, 64
4, 789720, Note_on_c, 2, 55, 101
4, 789836, Note_off_c, 2, 55, 64
4, 789840, Note_on_c, 2, 54, 121
4, 789956, Note_off_c, 2, 54, 64
4, 789960, Note_on_c, 2, 52, 113
4, 790076, Note_off_c, 2, 52, 64
4, 790080, Note_on_c, 2, 50, 100
4, 790196, Note_off_c, 2, 50, 64
4, 790200, Note_on_c, 2, 48, 95
4, 790316, Note_off_c, 2, 48, 64
4, 790320, Note_on_c, 2, 47, 106
4, 790436, Note_off_c, 2, 47, 64
4, 790440, Note_on_c, 2, 50, 109
4, 790556, Note_off_c, 2, 50, 64
4, 790560, Note_on_c, 2, 55, 100
4, 790676, Note_off_c, 2, 55, 64
4, 790680, Note_on_c, 2, 59, 101
4, 790796, Note_off_c, 2, 59, 64
4, 790800, Note_on_c, 2, 62, 123
4, 791036, Note_off_c, 2, 62, 64
4, 791040, Note_on_c, 2, 55, 100
4, 791396, Note_off_c, 2, 55, 64
4, 791400, Note_on_c, 2, 57, 102
4, 791516, Note_off_c, 2, 57, 64
4, 791520, Note_on_c, 2, 54, 110
4, 791756, Note_off_c, 2, 54, 64
4, 791760, Note_on_c, 2, 55, 106
4, 792240, Note_off_c, 2, 55, 64
4, 793440, Note_on_c, 2, 62, 115
4, 793556, Note_off_c, 2, 62, 64
4, 793560, Note_on_c, 2, 64, 104
4, 793676, Note_off_c, 2, 64, 64
4, 793680, Note_on_c, 2, 62, 104
4, 793920, Note_off_c, 2, 62, 64
4, 793920, Note_on_c, 2, 60, 102
4, 794036, Note_off_c, 2, 60, 64
4, 794040, Note_on_c, 2, 59, 90
4, 794156, Note_off_c, 2, 59, 64
4, 794160, Note_on_c, 2, 57, 98
4, 794276, Note_off_c, 2, 57, 64
4, 794280, Note_on_c, 2, 59, 98
4, 794396, Note_off_c, 2, 59, 64
4, 794400, Note_on_c, 2, 60, 106
4, 794516, Note_off_c, 2, 60, 64
4, 794520, Note_on_c, 2, 62, 109
4, 794636, Note_off_c, 2, 62, 64
4, 794640, Note_on_c, 2, 50, 121
4, 795236, Note_off_c, 2, 50, 64
4, 795240, Note_on_c, 2, 52, 109
4, 795356, Note_off_c, 2, 52, 64
4, 795360, Note_on_c, 2, 48, 100
4, 795476, Note_off_c, 2, 48, 64
4, 795480, Note_on_c, 2, 50, 107
4, 795596, Note_off_c, 2, 50, 64
4, 795600, Note_on_c, 2, 52, 111
4, 795716, Note_off_c, 2, 52, 64
4, 795720, Note_on_c, 2, 50, 104
4, 795836, Note_off_c, 2, 50, 64
4, 795840, Note_on_c, 2, 53, 123
4, 796076, Note_off_c, 2, 53, 64
4, 796080, Note_on_c, 2, 53, 123
4, 796200, Note_off_c, 2, 53, 64
4, 796200, Note_on_c, 2, 52, 111
4, 796380, Note_off_c, 2, 52, 64
4, 796380, Note_on_c, 2, 53, 111
4, 796440, Note_off_c, 2, 53, 64
4, 796440, Note_on_c, 2, 52, 111
4, 796500, Note_off_c, 2, 52, 64
4, 796500, Note_on_c, 2, 51, 111
4, 796560, Note_off_c, 2, 51, 64
4, 796560, Note_on_c, 2, 52, 111
4, 796800, Note_off_c, 2, 52, 64
4, 796800, Note_on_c, 2, 60, 111
4, 797040, Note_off_c, 2, 60, 64
4, 797280, Note_on_c, 2, 52, 111
4, 797520, Note_off_c, 2, 52, 64
4, 797520, Note_on_c, 2, 51, 111
4, 797640, Note_off_c, 2, 51, 64
4, 797640, Note_on_c, 2, 52, 96
4, 797756, Note_off_c, 2, 52, 64
4, 797760, Note_on_c, 2, 51, 96
4, 797880, Note_off_c, 2, 51, 64
4, 797880, Note_on_c, 2, 49, 90
4, 797996, Note_off_c, 2, 49, 64
4, 798000, Note_on_c, 2, 51, 117
4, 798116, Note_off_c, 2, 51, 64
4, 798120, Note_on_c, 2, 52, 94
4, 798236, Note_off_c, 2, 52, 64
4, 798240, Note_on_c, 2, 54, 115
4, 798356, Note_off_c, 2, 54, 64
4, 798360, Note_on_c, 2, 55, 101
4, 798476, Note_off_c, 2, 55, 64
4, 798480, Note_on_c, 2, 57, 104
4, 798596, Note_off_c, 2, 57, 64
4, 798600, Note_on_c, 2, 59, 102
4, 798716, Note_off_c, 2, 59, 64
4, 798720, Note_on_c, 2, 61, 88
4, 798836, Note_off_c, 2, 61, 64
4, 798840, Note_on_c, 2, 63, 112
4, 798956, Note_off_c, 2, 63, 64
4, 798960, Note_on_c, 2, 64, 117
4, 800636, Note_off_c, 2, 64, 64
4, 800640, Note_on_c, 2, 64, 119
4, 800756, Note_off_c, 2, 64, 64
4, 800760, Note_on_c, 2, 63, 117
4, 800876, Note_off_c, 2, 63, 64
4, 800880, Note_on_c, 2, 64, 113
4, 801116, Note_off_c, 2, 64, 64
4, 801120, Note_on_c, 2, 64, 113
4, 801356, Note_off_c, 2, 64, 64
4, 801360, Note_on_c, 2, 64, 111
4, 801596, Note_off_c, 2, 64, 64
4, 801600, Note_on_c, 2, 63, 121
4, 801716, Note_off_c, 2, 63, 64
4, 801720, Note_on_c, 2, 61, 110
4, 801836, Note_off_c, 2, 61, 64
4, 801840, Note_on_c, 2, 63, 115
4, 802316, Note_off_c, 2, 63, 64
4, 802800, Note_on_c, 2, 66, 123
4, 803396, Note_off_c, 2, 66, 64
4, 803400, Note_on_c, 2, 64, 121
4, 803516, Note_off_c, 2, 64, 64
4, 803520, Note_on_c, 2, 63, 112
4, 803636, Note_off_c, 2, 63, 64
4, 803640, Note_on_c, 2, 66, 110
4, 803756, Note_off_c, 2, 66, 64
4, 803760, Note_on_c, 2, 64, 119
4, 803876, Note_off_c, 2, 64, 64
4, 803880, Note_on_c, 2, 62, 102
4, 803996, Note_off_c, 2, 62, 64
4, 804000, Note_on_c, 2, 61, 117
4, 804116, Note_off_c, 2, 61, 64
4, 804120, Note_on_c, 2, 60, 102
4, 804236, Note_off_c, 2, 60, 64
4, 804240, Note_on_c, 2, 59, 101
4, 804356, Note_off_c, 2, 59, 64
4, 804360, Note_on_c, 2, 57, 97
4, 804476, Note_off_c, 2, 57, 64
4, 804480, Note_on_c, 2, 55, 95
4, 804596, Note_off_c, 2, 55, 64
4, 804600, Note_on_c, 2, 54, 101
4, 804716, Note_off_c, 2, 54, 64
4, 804720, Note_on_c, 2, 55, 101
4, 805196, Note_off_c, 2, 55, 64
4, 806280, Note_on_c, 2, 69, 117
4, 806396, Note_off_c, 2, 69, 64
4, 806400, Note_on_c, 2, 68, 104
4, 806516, Note_off_c, 2, 68, 64
4, 806520, Note_on_c, 2, 66, 112
4, 806636, Note_off_c, 2, 66, 64
4, 806640, Note_on_c, 2, 68, 85
4, 806756, Note_off_c, 2, 68, 64
4, 806760, Note_on_c, 2, 65, 112
4, 806876, Note_off_c, 2, 65, 64
4, 806880, Note_on_c, 2, 64, 96
4, 806996, Note_off_c, 2, 64, 64
4, 807000, Note_on_c, 2, 62, 97
4, 807116, Note_off_c, 2, 62, 64
4, 807120, Note_on_c, 2, 64, 106
4, 807236, Note_off_c, 2, 64, 64
4, 807240, Note_on_c, 2, 62, 104
4, 807356, Note_off_c, 2, 62, 64
4, 807360, Note_on_c, 2, 60, 96
4, 807476, Note_off_c, 2, 60, 64
4, 807480, Note_on_c, 2, 59, 92
4, 807596, Note_off_c, 2, 59, 64
4, 807600, Note_on_c, 2, 60, 93
4, 809276, Note_off_c, 2, 60, 64
4, 809280, Note_on_c, 2, 67, 107
4, 809516, Note_off_c, 2, 67, 64
4, 809520, Note_on_c, 2, 66, 101
4, 809756, Note_off_c, 2, 66, 64
4, 809760, Note_on_c, 2, 64, 102
4, 809996, Note_off_c, 2, 64, 64
4, 810000, Note_on_c, 2, 62, 111
4, 810116, Note_off_c, 2, 62, 64
4, 810120, Note_on_c, 2, 59, 101
4, 810236, Note_off_c, 2, 59, 64
4, 810240, Note_on_c, 2, 60, 102
4, 810356, Note_off_c, 2, 60, 64
4, 810360, Note_on_c, 2, 57, 95
4, 810476, Note_off_c, 2, 57, 64
4, 810480, Note_on_c, 2, 59, 106
4, 810716, Note_off_c, 2, 59, 64
4, 810720, Note_on_c, 2, 60, 104
4, 810956, Note_off_c, 2, 60, 64
4, 810960, Note_on_c, 2, 59, 109
4, 811196, Note_off_c, 2, 59, 64
4, 811200, Note_on_c, 2, 57, 111
4, 811436, Note_off_c, 2, 57, 64
4, 811440, Note_on_c, 2, 57, 101
4, 811500, Note_off_c, 2, 57, 64
4, 811500, Note_on_c, 2, 55, 101
4, 811560, Note_off_c, 2, 55, 64
4, 811560, Note_on_c, 2, 57, 101
4, 811620, Note_off_c, 2, 57, 64
4, 811620, Note_on_c, 2, 55, 101
4, 811800, Note_off_c, 2, 55, 64
4, 811800, Note_on_c, 2, 54, 101
4, 811920, Note_off_c, 2, 54, 64
4, 811920, Note_on_c, 2, 55, 115
4, 812516, Note_off_c, 2, 55, 64
4, 812520, Note_on_c, 2, 59, 115
4, 812636, Note_off_c, 2, 59, 64
4, 812640, Note_on_c, 2, 57, 106
4, 812756, Note_off_c, 2, 57, 64
4, 812760, Note_on_c, 2, 55, 101
4, 812876, Note_off_c, 2, 55, 64
4, 812880, Note_on_c, 2, 54, 121
4, 812996, Note_off_c, 2, 54, 64
4, 813000, Note_on_c, 2, 52, 113
4, 813116, Note_off_c, 2, 52, 64
4, 813120, Note_on_c, 2, 50, 100
4, 813236, Note_off_c, 2, 50, 64
4, 813240, Note_on_c, 2, 48, 95
4, 813356, Note_off_c, 2, 48, 64
4, 813360, Note_on_c, 2, 47, 106
4, 813476, Note_off_c, 2, 47, 64
4, 813480, Note_on_c, 2, 50, 109
4, 813596, Note_off_c, 2, 50, 64
4, 813600, Note_on_c, 2, 55, 100
4, 813716, Note_off_c, 2, 55, 64
4, 813720, Note_on_c, 2, 59, 101
4, 813836, Note_off_c, 2, 59, 64
4, 813840, Note_on_c, 2, 62, 123
4, 814076, Note_off_c, 2, 62, 64
4, 814080, Note_on_c, 2, 55, 100
4, 814436, Note_off_c, 2, 55, 64
4, 814440, Note_on_c, 2, 57, 102
4, 814556, Note_off_c, 2, 57, 64
4, 814560, Note_on_c, 2, 54, 110
4, 814796, Note_off_c, 2, 54, 64
4, 814800, Note_on_c, 2, 55, 106
4, 815280, Note_off_c, 2, 55, 64
4, 818400, Note_on_c, 2, 59, 96
4, 818636, Note_off_c, 2, 59, 64
4, 818640, Note_on_c, 2, 62, 96
4, 821276, Note_off_c, 2, 62, 64
4, 821280, Note_on_c, 2, 57, 97
4, 821516, Note_off_c, 2, 57, 64
4, 821520, Note_on_c, 2, 62, 93
4, 824156, Note_off_c, 2, 62, 64
4, 824160, Note_on_c, 2, 59, 102
4, 824396, Note_off_c, 2, 59, 64
4, 824400, Note_on_c, 2, 61, 97
4, 826320, Note_off_c, 2, 61, 64
4, 827040, Note_on_c, 2, 54, 110
4, 827276, Note_off_c, 2, 54, 64
4, 827280, Note_on_c, 2, 57, 106
4, 829200, Note_off_c, 2, 57, 64
4, 829920, Note_on_c, 2, 50, 93
4, 830156, Note_off_c, 2, 50, 64
4, 830160, Note_on_c, 2, 55, 100
4, 832796, Note_off_c, 2, 55, 64
4, 832800, Note_on_c, 2, 54, 115
4, 833036, Note_off_c, 2, 54, 64
4, 833040, Note_on_c, 2, 55, 96
4, 835676, Note_off_c, 2, 55, 64
4, 835680, Note_on_c, 2, 52, 101
4, 835916, Note_off_c, 2, 52, 64
4, 835920, Note_on_c, 2, 54, 110
4, 838076, Note_off_c, 2, 54, 64
4, 838560, Note_on_c, 2, 50, 97
4, 838796, Note_off_c, 2, 50, 64
4, 838800, Note_on_c, 2, 55, 86
4, 839760, Note_off_c, 2, 55, 64
4, 841200, Note_on_c, 2, 59, 111
4, 841676, Note_off_c, 2, 59, 64
4, 841680, Note_on_c, 2, 64, 109
4, 844076, Note_off_c, 2, 64, 64
4, 844080, Note_on_c, 2, 57, 97
4, 844556, Note_off_c, 2, 57, 64
4, 844560, Note_on_c, 2, 62, 90
4, 846956, Note_off_c, 2, 62, 64
4, 846960, Note_on_c, 2, 59, 98
4, 847436, Note_off_c, 2, 59, 64
4, 847440, Note_on_c, 2, 55, 101
4, 849596, Note_off_c, 2, 55, 64
4, 849600, Note_on_c, 2, 57, 97
4, 849836, Note_off_c, 2, 57, 64
4, 849840, Note_on_c, 2, 55, 91
4, 850076, Note_off_c, 2, 55, 64
4, 850080, Note_on_c, 2, 54, 97
4, 850316, Note_off_c, 2, 54, 64
4, 850320, Note_on_c, 2, 55, 91
4, 850800, Note_off_c, 2, 55, 64
4, 852720, Note_on_c, 2, 57, 90
4, 853200, Note_off_c, 2, 57, 64
4, 853200, Note_on_c, 2, 62, 104
4, 854636, Note_off_c, 2, 62, 64
4, 854640, Note_on_c, 2, 57, 104
4, 855116, Note_off_c, 2, 57, 64
4, 855120, Note_on_c, 2, 55, 102
4, 855596, Note_off_c, 2, 55, 64
4, 855600, Note_on_c, 2, 59, 109
4, 856076, Note_off_c, 2, 59, 64
4, 856080, Note_on_c, 2, 64, 115
4, 857516, Note_off_c, 2, 64, 64
4, 857520, Note_on_c, 2, 62, 98
4, 857996, Note_off_c, 2, 62, 64
4, 858000, Note_on_c, 2, 57, 106
4, 858476, Note_off_c, 2, 57, 64
4, 858480, Note_on_c, 2, 61, 110
4, 858956, Note_off_c, 2, 61, 64
4, 858960, Note_on_c, 2, 67, 117
4, 859436, Note_off_c, 2, 67, 64
4, 859440, Note_on_c, 2, 64, 90
4, 859916, Note_off_c, 2, 64, 64
4, 859920, Note_on_c, 2, 61, 84
4, 860880, Note_off_c, 2, 61, 64
4, 860880, Note_on_c, 2, 62, 100
4, 861356, Note_off_c, 2, 62, 64
4, 861360, Note_on_c, 2, 52, 90
4, 861836, Note_off_c, 2, 52, 64
4, 861840, Note_on_c, 2, 54, 94
4, 862316, Note_off_c, 2, 54, 64
4, 862320, Note_on_c, 2, 58, 90
4, 862796, Note_off_c, 2, 58, 64
4, 862800, Note_on_c, 2, 57, 88
4, 863760, Note_off_c, 2, 57, 64
4, 864480, Note_on_c, 2, 59, 96
4, 864716, Note_off_c, 2, 59, 64
4, 864720, Note_on_c, 2, 62, 96
4, 867356, Note_off_c, 2, 62, 64
4, 867360, Note_on_c, 2, 57, 97
4, 867596, Note_off_c, 2, 57, 64
4, 867600, Note_on_c, 2, 62, 93
4, 870236, Note_off_c, 2, 62, 64
4, 870240, Note_on_c, 2, 59, 102
4, 870476, Note_off_c, 2, 59, 64
4, 870480, Note_on_c, 2, 61, 97
4, 872400, Note_off_c, 2, 61, 64
4, 873120, Note_on_c, 2, 54, 110
4, 873356, Note_off_c, 2, 54, 64
4, 873360, Note_on_c, 2, 57, 106
4, 875280, Note_off_c, 2, 57, 64
4, 876000, Note_on_c, 2, 50, 93
4, 876236, Note_off_c, 2, 50, 64
4, 876240, Note_on_c, 2, 55, 100
4, 878876, Note_off_c, 2, 55, 64
4, 878880, Note_on_c, 2, 54, 115
4, 879116, Note_off_c, 2, 54, 64
4, 879120, Note_on_c, 2, 55, 96
4, 881756, Note_off_c, 2, 55, 64
4, 881760, Note_on_c, 2, 52, 101
4, 881996, Note_off_c, 2, 52, 64
4, 882000, Note_on_c, 2, 54, 110
4, 884156, Note_off_c, 2, 54, 64
4, 884640, Note_on_c, 2, 50, 97
4, 884876, Note_off_c, 2, 50, 64
4, 884880, Note_on_c, 2, 55, 86
4, 885840, Note_off_c, 2, 55, 64
4, 887280, Note_on_c, 2, 59, 111
4, 887756, Note_off_c, 2, 59, 64
4, 887760, Note_on_c, 2, 64, 109
4, 890156, Note_off_c, 2, 64, 64
4, 890160, Note_on_c, 2, 57, 97
4, 890636, Note_off_c, 2, 57, 64
4, 890640, Note_on_c, 2, 62, 90
4, 893036, Note_off_c, 2, 62, 64
4, 893040, Note_on_c, 2, 59, 98
4, 893516, Note_off_c, 2, 59, 64
4, 893520, Note_on_c, 2, 55, 101
4, 895676, Note_off_c, 2, 55, 64
4, 895680, Note_on_c, 2, 57, 97
4, 895916, Note_off_c, 2, 57, 64
4, 895920, Note_on_c, 2, 55, 91
4, 896156, Note_off_c, 2, 55, 64
4, 896160, Note_on_c, 2, 54, 97
4, 896396, Note_off_c, 2, 54, 64
4, 896400, Note_on_c, 2, 55, 91
4, 896880, Note_off_c, 2, 55, 64
4, 898800, Note_on_c, 2, 57, 90
4, 899280, Note_off_c, 2, 57, 64
4, 899280, Note_on_c, 2, 62, 104
4, 900716, Note_off_c, 2, 62, 64
4, 900720, Note_on_c, 2, 57, 104
4, 901196, Note_off_c, 2, 57, 64
4, 901200, Note_on_c, 2, 55, 102
4, 901676, Note_off_c, 2, 55, 64
4, 901680, Note_on_c, 2, 59, 109
4, 902156, Note_off_c, 2, 59, 64
4, 902160, Note_on_c, 2, 64, 115
4, 903596, Note_off_c, 2, 64, 64
4, 903600, Note_on_c, 2, 62, 98
4, 904076, Note_off_c, 2, 62, 64
4, 904080, Note_on_c, 2, 57, 106
4, 904556, Note_off_c, 2, 57, 64
4, 904560, Note_on_c, 2, 61, 110
4, 905036, Note_off_c, 2, 61, 64
4, 905040, Note_on_c, 2, 67, 117
4, 905516, Note_off_c, 2, 67, 64
4, 905520, Note_on_c, 2, 64, 90
4, 905996, Note_off_c, 2, 64, 64
4, 906000, Note_on_c, 2, 61, 84
4, 906960, Note_off_c, 2, 61, 64
4, 906960, Note_on_c, 2, 62, 100
4, 907436, Note_off_c, 2, 62, 64
4, 907440, Note_on_c, 2, 52, 90
4, 907916, Note_off_c, 2, 52, 64
4, 907920, Note_on_c, 2, 54, 94
4, 908396, Note_off_c, 2, 54, 64
4, 908400, Note_on_c, 2, 58, 90
4, 908876, Note_off_c, 2, 58, 64
4, 908880, Note_on_c, 2, 57, 88
4, 909840, Note_off_c, 2, 57, 64
4, 910560, Note_on_c, 2, 62, 101
4, 910796, Note_off_c, 2, 62, 64
4, 910800, Note_on_c, 2, 67, 100
4, 913436, Note_off_c, 2, 67, 64
4, 913440, Note_on_c, 2, 66, 108
4, 913676, Note_off_c, 2, 66, 64
4, 913680, Note_on_c, 2, 67, 100
4, 914156, Note_off_c, 2, 67, 64
4, 914160, Note_on_c, 2, 59, 100
4, 914636, Note_off_c, 2, 59, 64
4, 914640, Note_on_c, 2, 64, 102
4, 915116, Note_off_c, 2, 64, 64
4, 915120, Note_on_c, 2, 67, 107
4, 916076, Note_off_c, 2, 67, 64
4, 916080, Note_on_c, 2, 66, 110
4, 916316, Note_off_c, 2, 66, 64
4, 916320, Note_on_c, 2, 64, 104
4, 916556, Note_off_c, 2, 64, 64
4, 916560, Note_on_c, 2, 66, 97
4, 917276, Note_off_c, 2, 66, 64
4, 918960, Note_on_c, 2, 59, 113
4, 919916, Note_off_c, 2, 59, 64
4, 919920, Note_on_c, 2, 57, 106
4, 920876, Note_off_c, 2, 57, 64
4, 920880, Note_on_c, 2, 56, 102
4, 921356, Note_off_c, 2, 56, 64
4, 921840, Note_on_c, 2, 60, 117
4, 922796, Note_off_c, 2, 60, 64
4, 922800, Note_on_c, 2, 64, 98
4, 923276, Note_off_c, 2, 64, 64
4, 923280, Note_on_c, 2, 60, 97
4, 923756, Note_off_c, 2, 60, 64
4, 923760, Note_on_c, 2, 57, 107
4, 924236, Note_off_c, 2, 57, 64
4, 924720, Note_on_c, 2, 54, 112
4, 925196, Note_off_c, 2, 54, 64
4, 925200, Note_on_c, 2, 55, 107
4, 925676, Note_off_c, 2, 55, 64
4, 925680, Note_on_c, 2, 64, 115
4, 926636, Note_off_c, 2, 64, 64
4, 926640, Note_on_c, 2, 63, 119
4, 927116, Note_off_c, 2, 63, 64
4, 927120, Note_on_c, 2, 64, 104
4, 927596, Note_off_c, 2, 64, 64
4, 927600, Note_on_c, 2, 54, 106
4, 928076, Note_off_c, 2, 54, 64
4, 928080, Note_on_c, 2, 55, 91
4, 928556, Note_off_c, 2, 55, 64
4, 928560, Note_on_c, 2, 60, 98
4, 929036, Note_off_c, 2, 60, 64
4, 929040, Note_on_c, 2, 59, 84
4, 929520, Note_off_c, 2, 59, 64
4, 930720, Note_on_c, 2, 55, 96
4, 930956, Note_off_c, 2, 55, 64
4, 930960, Note_on_c, 2, 60, 97
4, 931196, Note_off_c, 2, 60, 64
4, 931200, Note_on_c, 2, 62, 98
4, 931436, Note_off_c, 2, 62, 64
4, 931440, Note_on_c, 2, 64, 100
4, 931916, Note_off_c, 2, 64, 64
4, 931920, Note_on_c, 2, 62, 102
4, 932396, Note_off_c, 2, 62, 64
4, 932400, Note_on_c, 2, 61, 101
4, 932876, Note_off_c, 2, 61, 64
4, 932880, Note_on_c, 2, 59, 106
4, 933596, Note_off_c, 2, 59, 64
4, 933600, Note_on_c, 2, 54, 94
4, 933836, Note_off_c, 2, 54, 64
4, 933840, Note_on_c, 2, 59, 91
4, 934076, Note_off_c, 2, 59, 64
4, 934080, Note_on_c, 2, 60, 102
4, 934316, Note_off_c, 2, 60, 64
4, 934320, Note_on_c, 2, 62, 100
4, 934796, Note_off_c, 2, 62, 64
4, 934800, Note_on_c, 2, 60, 100
4, 935276, Note_off_c, 2, 60, 64
4, 935280, Note_on_c, 2, 59, 98
4, 935756, Note_off_c, 2, 59, 64
4, 935760, Note_on_c, 2, 57, 97
4, 936236, Note_off_c, 2, 57, 64
4, 936240, Note_on_c, 2, 52, 111
4, 936716, Note_off_c, 2, 52, 64
4, 936720, Note_on_c, 2, 57, 107
4, 937196, Note_off_c, 2, 57, 64
4, 937200, Note_on_c, 2, 60, 104
4, 937676, Note_off_c, 2, 60, 64
4, 937680, Note_on_c, 2, 57, 107
4, 938156, Note_off_c, 2, 57, 64
4, 938160, Note_on_c, 2, 54, 108
4, 938636, Note_off_c, 2, 54, 64
4, 938640, Note_on_c, 2, 50, 113
4, 939600, Note_off_c, 2, 50, 64
4, 942000, Note_on_c, 2, 64, 111
4, 942476, Note_off_c, 2, 64, 64
4, 942480, Note_on_c, 2, 63, 108
4, 942956, Note_off_c, 2, 63, 64
4, 942960, Note_on_c, 2, 62, 106
4, 943436, Note_off_c, 2, 62, 64
4, 943440, Note_on_c, 2, 67, 100
4, 943916, Note_off_c, 2, 67, 64
4, 943920, Note_on_c, 2, 59, 107
4, 944396, Note_off_c, 2, 59, 64
4, 944400, Note_on_c, 2, 60, 100
4, 944876, Note_off_c, 2, 60, 64
4, 944880, Note_on_c, 2, 55, 104
4, 945356, Note_off_c, 2, 55, 64
4, 945360, Note_on_c, 2, 57, 106
4, 945836, Note_off_c, 2, 57, 64
4, 945840, Note_on_c, 2, 62, 115
4, 946316, Note_off_c, 2, 62, 64
4, 946320, Note_on_c, 2, 64, 109
4, 946796, Note_off_c, 2, 64, 64
4, 946800, Note_on_c, 2, 57, 102
4, 947756, Note_off_c, 2, 57, 64
4, 947760, Note_on_c, 2, 57, 104
4, 947996, Note_off_c, 2, 57, 64
4, 948000, Note_on_c, 2, 55, 104
4, 948236, Note_off_c, 2, 55, 64
4, 948240, Note_on_c, 2, 57, 101
4, 949200, Note_off_c, 2, 57, 64
4, 949200, Note_on_c, 2, 55, 98
4, 949676, Note_off_c, 2, 55, 64
4, 949680, Note_on_c, 2, 54, 110
4, 950156, Note_off_c, 2, 54, 64
4, 950160, Note_on_c, 2, 55, 96
4, 950636, Note_off_c, 2, 55, 64
4, 950640, Note_on_c, 2, 57, 97
4, 951116, Note_off_c, 2, 57, 64
4, 951120, Note_on_c, 2, 59, 104
4, 951596, Note_off_c, 2, 59, 64
4, 951600, Note_on_c, 2, 54, 97
4, 952076, Note_off_c, 2, 54, 64
4, 952080, Note_on_c, 2, 50, 52
4, 952080, Note_on_c, 2, 55, 96
4, 953040, Note_off_c, 2, 50, 64
4, 953040, Note_off_c, 2, 55, 64
4, 1124640, Note_on_c, 2, 69, 102
4, 1124756, Note_off_c, 2, 69, 64
4, 1124760, Note_on_c, 2, 67, 95
4, 1124876, Note_off_c, 2, 67, 64
4, 1124880, Note_on_c, 2, 66, 102
4, 1124996, Note_off_c, 2, 66, 64
4, 1125000, Note_on_c, 2, 64, 102
4, 1125116, Note_off_c, 2, 64, 64
4, 1125120, Note_on_c, 2, 66, 104
4, 1125356, Note_off_c, 2, 66, 64
4, 1125360, Note_on_c, 2, 67, 111
4, 1125596, Note_off_c, 2, 67, 64
4, 1125600, Note_on_c, 2, 69, 102
4, 1125836, Note_off_c, 2, 69, 64
4, 1125840, Note_on_c, 2, 63, 106
4, 1125956, Note_off_c, 2, 63, 64
4, 1125960, Note_on_c, 2, 66, 102
4, 1126076, Note_off_c, 2, 66, 64
4, 1126080, Note_on_c, 2, 64, 98
4, 1126196, Note_off_c, 2, 64, 64
4, 1126200, Note_on_c, 2, 67, 101
4, 1126316, Note_off_c, 2, 67, 64
4, 1126320, Note_on_c, 2, 66, 104
4, 1126436, Note_off_c, 2, 66, 64
4, 1126440, Note_on_c, 2, 69, 101
4, 1126556, Note_off_c, 2, 69, 64
4, 1126560, Note_on_c, 2, 67, 100
4, 1126796, Note_off_c, 2, 67, 64
4, 1126800, Note_on_c, 2, 66, 108
4, 1127036, Note_off_c, 2, 66, 64
4, 1127520, Note_on_c, 2, 64, 104
4, 1127756, Note_off_c, 2, 64, 64
4, 1127760, Note_on_c, 2, 63, 104
4, 1127996, Note_off_c, 2, 63, 64
4, 1128000, Note_on_c, 2, 64, 106
4, 1129196, Note_off_c, 2, 64, 64
4, 1136160, Note_on_c, 2, 55, 102
4, 1136396, Note_off_c, 2, 55, 64
4, 1136400, Note_on_c, 2, 54, 104
4, 1136636, Note_off_c, 2, 54, 64
4, 1136640, Note_on_c, 2, 55, 111
4, 1137356, Note_off_c, 2, 55, 64
4, 1147680, Note_on_c, 2, 69, 102
4, 1147796, Note_off_c, 2, 69, 64
4, 1147800, Note_on_c, 2, 67, 95
4, 1147916, Note_off_c, 2, 67, 64
4, 1147920, Note_on_c, 2, 66, 102
4, 1148036, Note_off_c, 2, 66, 64
4, 1148040, Note_on_c, 2, 64, 102
4, 1148156, Note_off_c, 2, 64, 64
4, 1148160, Note_on_c, 2, 66, 104
4, 1148396, Note_off_c, 2, 66, 64
4, 1148400, Note_on_c, 2, 67, 111
4, 1148636, Note_off_c, 2, 67, 64
4, 1148640, Note_on_c, 2, 69, 102
4, 1148876, Note_off_c, 2, 69, 64
4, 1148880, Note_on_c, 2, 63, 106
4, 1148996, Note_off_c, 2, 63, 64
4, 1149000, Note_on_c, 2, 66, 102
4, 1149116, Note_off_c, 2, 66, 64
4, 1149120, Note_on_c, 2, 64, 98
4, 1149236, Note_off_c, 2, 64, 64
4, 1149240, Note_on_c, 2, 67, 101
4, 1149356, Note_off_c, 2, 67, 64
4, 1149360, Note_on_c, 2, 66, 104
4, 1149476, Note_off_c, 2, 66, 64
4, 1149480, Note_on_c, 2, 69, 101
4, 1149596, Note_off_c, 2, 69, 64
4, 1149600, Note_on_c, 2, 67, 100
4, 1149836, Note_off_c, 2, 67, 64
4, 1149840, Note_on_c, 2, 66, 108
4, 1150076, Note_off_c, 2, 66, 64
4, 1150560, Note_on_c, 2, 64, 104
4, 1150796, Note_off_c, 2, 64, 64
4, 1150800, Note_on_c, 2, 63, 104
4, 1151036, Note_off_c, 2, 63, 64
4, 1151040, Note_on_c, 2, 64, 106
4, 1152236, Note_off_c, 2, 64, 64
4, 1159200, Note_on_c, 2, 55, 102
4, 1159436, Note_off_c, 2, 55, 64
4, 1159440, Note_on_c, 2, 54, 104
4, 1159676, Note_off_c, 2, 54, 64
4, 1159680, Note_on_c, 2, 55, 111
4, 1160396, Note_off_c, 2, 55, 64
4, 1166880, Note_on_c, 2, 59, 102
4, 1168800, Note_off_c, 2, 59, 64
4, 1423320, Note_on_c, 2, 58, 110
4, 1423436, Note_off_c, 2, 58, 64
4, 1423440, Note_on_c, 2, 60, 107
4, 1423556, Note_off_c, 2, 60, 64
4, 1423560, Note_on_c, 2, 62, 107
4, 1423676, Note_off_c, 2, 62, 64
4, 1423680, Note_on_c, 2, 63, 112
4, 1423796, Note_off_c, 2, 63, 64
4, 1423800, Note_on_c, 2, 62, 106
4, 1423916, Note_off_c, 2, 62, 64
4, 1423920, Note_on_c, 2, 60, 117
4, 1424036, Note_off_c, 2, 60, 64
4, 1424040, Note_on_c, 2, 58, 117
4, 1424156, Note_off_c, 2, 58, 64
4, 1424160, Note_on_c, 2, 57, 117
4, 1424396, Note_off_c, 2, 57, 64
4, 1424400, Note_on_c, 2, 63, 123
4, 1424636, Note_off_c, 2, 63, 64
4, 1424640, Note_on_c, 2, 57, 113
4, 1424876, Note_off_c, 2, 57, 64
4, 1424880, Note_on_c, 2, 62, 121
4, 1425236, Note_off_c, 2, 62, 64
4, 1425240, Note_on_c, 2, 55, 101
4, 1425356, Note_off_c, 2, 55, 64
4, 1425360, Note_on_c, 2, 57, 113
4, 1425476, Note_off_c, 2, 57, 64
4, 1425480, Note_on_c, 2, 58, 102
4, 1425596, Note_off_c, 2, 58, 64
4, 1425600, Note_on_c, 2, 60, 113
4, 1425716, Note_off_c, 2, 60, 64
4, 1425720, Note_on_c, 2, 58, 115
4, 1425836, Note_off_c, 2, 58, 64
4, 1425840, Note_on_c, 2, 57, 107
4, 1425956, Note_off_c, 2, 57, 64
4, 1425960, Note_on_c, 2, 55, 101
4, 1426076, Note_off_c, 2, 55, 64
4, 1426080, Note_on_c, 2, 57, 117
4, 1426556, Note_off_c, 2, 57, 64
4, 1426800, Note_on_c, 2, 57, 119
4, 1427036, Note_off_c, 2, 57, 64
4, 1427040, Note_on_c, 2, 58, 117
4, 1427276, Note_off_c, 2, 58, 64
4, 1427280, Note_on_c, 2, 57, 106
4, 1427516, Note_off_c, 2, 57, 64
4, 1427520, Note_on_c, 2, 58, 112
4, 1427756, Note_off_c, 2, 58, 64
4, 1427760, Note_on_c, 2, 59, 113
4, 1427996, Note_off_c, 2, 59, 64
4, 1428000, Note_on_c, 2, 60, 109
4, 1428116, Note_off_c, 2, 60, 64
4, 1428120, Note_on_c, 2, 62, 111
4, 1428236, Note_off_c, 2, 62, 64
4, 1428240, Note_on_c, 2, 63, 108
4, 1428356, Note_off_c, 2, 63, 64
4, 1428360, Note_on_c, 2, 62, 113
4, 1428476, Note_off_c, 2, 62, 64
4, 1428480, Note_on_c, 2, 60, 111
4, 1428596, Note_off_c, 2, 60, 64
4, 1428600, Note_on_c, 2, 58, 99
4, 1428716, Note_off_c, 2, 58, 64
4, 1428720, Note_on_c, 2, 57, 100
4, 1428836, Note_off_c, 2, 57, 64
4, 1428840, Note_on_c, 2, 55, 102
4, 1428956, Note_off_c, 2, 55, 64
4, 1428960, Note_on_c, 2, 66, 119
4, 1429436, Note_off_c, 2, 66, 64
4, 1429680, Note_on_c, 2, 62, 113
4, 1430036, Note_off_c, 2, 62, 64
4, 1430040, Note_on_c, 2, 62, 98
4, 1430156, Note_off_c, 2, 62, 64
4, 1430160, Note_on_c, 2, 60, 111
4, 1430276, Note_off_c, 2, 60, 64
4, 1430280, Note_on_c, 2, 58, 104
4, 1430396, Note_off_c, 2, 58, 64
4, 1430400, Note_on_c, 2, 60, 104
4, 1430516, Note_off_c, 2, 60, 64
4, 1430520, Note_on_c, 2, 62, 107
4, 1430636, Note_off_c, 2, 62, 64
4, 1430640, Note_on_c, 2, 64, 111
4, 1430756, Note_off_c, 2, 64, 64
4, 1430760, Note_on_c, 2, 66, 109
4, 1430876, Note_off_c, 2, 66, 64
4, 1430880, Note_on_c, 2, 67, 107
4, 1431116, Note_off_c, 2, 67, 64
4, 1431120, Note_on_c, 2, 66, 117
4, 1431356, Note_off_c, 2, 66, 64
4, 1431360, Note_on_c, 2, 67, 113
4, 1431476, Note_off_c, 2, 67, 64
4, 1431480, Note_on_c, 2, 69, 102
4, 1431596, Note_off_c, 2, 69, 64
4, 1431600, Note_on_c, 2, 70, 119
4, 1431956, Note_off_c, 2, 70, 64
4, 1431960, Note_on_c, 2, 69, 107
4, 1432076, Note_off_c, 2, 69, 64
4, 1432080, Note_on_c, 2, 67, 111
4, 1432196, Note_off_c, 2, 67, 64
4, 1432200, Note_on_c, 2, 70, 101
4, 1432316, Note_off_c, 2, 70, 64
4, 1432320, Note_on_c, 2, 69, 104
4, 1432436, Note_off_c, 2, 69, 64
4, 1432440, Note_on_c, 2, 67, 100
4, 1432556, Note_off_c, 2, 67, 64
4, 1432560, Note_on_c, 2, 65, 101
4, 1432676, Note_off_c, 2, 65, 64
4, 1432680, Note_on_c, 2, 64, 109
4, 1432796, Note_off_c, 2, 64, 64
4, 1432800, Note_on_c, 2, 64, 106
4, 1432860, Note_off_c, 2, 64, 64
4, 1432860, Note_on_c, 2, 62, 106
4, 1432920, Note_off_c, 2, 62, 64
4, 1432920, Note_on_c, 2, 64, 106
4, 1432980, Note_off_c, 2, 64, 64
4, 1432980, Note_on_c, 2, 62, 106
4, 1433100, Note_off_c, 2, 62, 64
4, 1433160, Note_on_c, 2, 61, 117
4, 1433276, Note_off_c, 2, 61, 64
4, 1433280, Note_on_c, 2, 62, 113
4, 1433396, Note_off_c, 2, 62, 64
4, 1433400, Note_on_c, 2, 64, 111
4, 1433516, Note_off_c, 2, 64, 64
4, 1433520, Note_on_c, 2, 65, 117
4, 1433756, Note_off_c, 2, 65, 64
4, 1433760, Note_on_c, 2, 64, 123
4, 1434356, Note_off_c, 2, 64, 64
4, 1434480, Note_on_c, 2, 64, 113
4, 1434716, Note_off_c, 2, 64, 64
4, 1434720, Note_on_c, 2, 65, 113
4, 1434956, Note_off_c, 2, 65, 64
4, 1434960, Note_on_c, 2, 64, 111
4, 1435196, Note_off_c, 2, 64, 64
4, 1435200, Note_on_c, 2, 65, 111
4, 1435436, Note_off_c, 2, 65, 64
4, 1435440, Note_on_c, 2, 66, 110
4, 1435676, Note_off_c, 2, 66, 64
4, 1435680, Note_on_c, 2, 67, 113
4, 1435916, Note_off_c, 2, 67, 64
4, 1435920, Note_on_c, 2, 69, 111
4, 1436156, Note_off_c, 2, 69, 64
4, 1436160, Note_on_c, 2, 70, 108
4, 1436396, Note_off_c, 2, 70, 64
4, 1436400, Note_on_c, 2, 69, 107
4, 1436876, Note_off_c, 2, 69, 64
4, 1436880, Note_on_c, 2, 67, 106
4, 1436996, Note_off_c, 2, 67, 64
4, 1437000, Note_on_c, 2, 65, 107
4, 1437116, Note_off_c, 2, 65, 64
4, 1437120, Note_on_c, 2, 64, 107
4, 1437236, Note_off_c, 2, 64, 64
4, 1437240, Note_on_c, 2, 62, 107
4, 1437356, Note_off_c, 2, 62, 64
4, 1437360, Note_on_c, 2, 64, 119
4, 1437596, Note_off_c, 2, 64, 64
4, 1437600, Note_on_c, 2, 62, 121
4, 1438080, Note_off_c, 2, 62, 64
4, 1438680, Note_on_c, 2, 58, 110
4, 1438796, Note_off_c, 2, 58, 64
4, 1438800, Note_on_c, 2, 60, 107
4, 1438916, Note_off_c, 2, 60, 64
4, 1438920, Note_on_c, 2, 62, 107
4, 1439036, Note_off_c, 2, 62, 64
4, 1439040, Note_on_c, 2, 63, 112
4, 1439156, Note_off_c, 2, 63, 64
4, 1439160, Note_on_c, 2, 62, 106
4, 1439276, Note_off_c, 2, 62, 64
4, 1439280, Note_on_c, 2, 60, 117
4, 1439396, Note_off_c, 2, 60, 64
4, 1439400, Note_on_c, 2, 58, 117
4, 1439516, Note_off_c, 2, 58, 64
4, 1439520, Note_on_c, 2, 57, 117
4, 1439756, Note_off_c, 2, 57, 64
4, 1439760, Note_on_c, 2, 63, 123
4, 1439996, Note_off_c, 2, 63, 64
4, 1440000, Note_on_c, 2, 57, 113
4, 1440236, Note_off_c, 2, 57, 64
4, 1440240, Note_on_c, 2, 62, 121
4, 1440596, Note_off_c, 2, 62, 64
4, 1440600, Note_on_c, 2, 55, 101
4, 1440716, Note_off_c, 2, 55, 64
4, 1440720, Note_on_c, 2, 57, 113
4, 1440836, Note_off_c, 2, 57, 64
4, 1440840, Note_on_c, 2, 58, 102
4, 1440956, Note_off_c, 2, 58, 64
4, 1440960, Note_on_c, 2, 60, 113
4, 1441076, Note_off_c, 2, 60, 64
4, 1441080, Note_on_c, 2, 58, 115
4, 1441196, Note_off_c, 2, 58, 64
4, 1441200, Note_on_c, 2, 57, 107
4, 1441316, Note_off_c, 2, 57, 64
4, 1441320, Note_on_c, 2, 55, 101
4, 1441436, Note_off_c, 2, 55, 64
4, 1441440, Note_on_c, 2, 57, 117
4, 1441916, Note_off_c, 2, 57, 64
4, 1442160, Note_on_c, 2, 57, 119
4, 1442396, Note_off_c, 2, 57, 64
4, 1442400, Note_on_c, 2, 58, 117
4, 1442636, Note_off_c, 2, 58, 64
4, 1442640, Note_on_c, 2, 57, 106
4, 1442876, Note_off_c, 2, 57, 64
4, 1442880, Note_on_c, 2, 58, 112
4, 1443116, Note_off_c, 2, 58, 64
4, 1443120, Note_on_c, 2, 59, 113
4, 1443356, Note_off_c, 2, 59, 64
4, 1443360, Note_on_c, 2, 60, 109
4, 1443476, Note_off_c, 2, 60, 64
4, 1443480, Note_on_c, 2, 62, 111
4, 1443596, Note_off_c, 2, 62, 64
4, 1443600, Note_on_c, 2, 63, 108
4, 1443716, Note_off_c, 2, 63, 64
4, 1443720, Note_on_c, 2, 62, 113
4, 1443836, Note_off_c, 2, 62, 64
4, 1443840, Note_on_c, 2, 60, 111
4, 1443956, Note_off_c, 2, 60, 64
4, 1443960, Note_on_c, 2, 58, 99
4, 1444076, Note_off_c, 2, 58, 64
4, 1444080, Note_on_c, 2, 57, 100
4, 1444196, Note_off_c, 2, 57, 64
4, 1444200, Note_on_c, 2, 55, 102
4, 1444316, Note_off_c, 2, 55, 64
4, 1444320, Note_on_c, 2, 66, 119
4, 1444796, Note_off_c, 2, 66, 64
4, 1445040, Note_on_c, 2, 62, 113
4, 1445396, Note_off_c, 2, 62, 64
4, 1445400, Note_on_c, 2, 62, 98
4, 1445516, Note_off_c, 2, 62, 64
4, 1445520, Note_on_c, 2, 60, 111
4, 1445636, Note_off_c, 2, 60, 64
4, 1445640, Note_on_c, 2, 58, 104
4, 1445756, Note_off_c, 2, 58, 64
4, 1445760, Note_on_c, 2, 60, 104
4, 1445876, Note_off_c, 2, 60, 64
4, 1445880, Note_on_c, 2, 62, 107
4, 1445996, Note_off_c, 2, 62, 64
4, 1446000, Note_on_c, 2, 64, 111
4, 1446116, Note_off_c, 2, 64, 64
4, 1446120, Note_on_c, 2, 66, 109
4, 1446236, Note_off_c, 2, 66, 64
4, 1446240, Note_on_c, 2, 67, 107
4, 1446476, Note_off_c, 2, 67, 64
4, 1446480, Note_on_c, 2, 66, 117
4, 1446716, Note_off_c, 2, 66, 64
4, 1446720, Note_on_c, 2, 67, 113
4, 1446836, Note_off_c, 2, 67, 64
4, 1446840, Note_on_c, 2, 69, 102
4, 1446956, Note_off_c, 2, 69, 64
4, 1446960, Note_on_c, 2, 70, 119
4, 1447316, Note_off_c, 2, 70, 64
4, 1447320, Note_on_c, 2, 69, 107
4, 1447436, Note_off_c, 2, 69, 64
4, 1447440, Note_on_c, 2, 67, 111
4, 1447556, Note_off_c, 2, 67, 64
4, 1447560, Note_on_c, 2, 70, 101
4, 1447676, Note_off_c, 2, 70, 64
4, 1447680, Note_on_c, 2, 69, 104
4, 1447796, Note_off_c, 2, 69, 64
4, 1447800, Note_on_c, 2, 67, 100
4, 1447916, Note_off_c, 2, 67, 64
4, 1447920, Note_on_c, 2, 65, 101
4, 1448036, Note_off_c, 2, 65, 64
4, 1448040, Note_on_c, 2, 64, 109
4, 1448156, Note_off_c, 2, 64, 64
4, 1448160, Note_on_c, 2, 64, 106
4, 1448220, Note_off_c, 2, 64, 64
4, 1448220, Note_on_c, 2, 62, 106
4, 1448280, Note_off_c, 2, 62, 64
4, 1448280, Note_on_c, 2, 64, 106
4, 1448340, Note_off_c, 2, 64, 64
4, 1448340, Note_on_c, 2, 62, 106
4, 1448460, Note_off_c, 2, 62, 64
4, 1448520, Note_on_c, 2, 61, 117
4, 1448636, Note_off_c, 2, 61, 64
4, 1448640, Note_on_c, 2, 62, 113
4, 1448756, Note_off_c, 2, 62, 64
4, 1448760, Note_on_c, 2, 64, 111
4, 1448876, Note_off_c, 2, 64, 64
4, 1448880, Note_on_c, 2, 65, 117
4, 1449116, Note_off_c, 2, 65, 64
4, 1449120, Note_on_c, 2, 64, 123
4, 1449716, Note_off_c, 2, 64, 64
4, 1449840, Note_on_c, 2, 64, 113
4, 1450076, Note_off_c, 2, 64, 64
4, 1450080, Note_on_c, 2, 65, 113
4, 1450316, Note_off_c, 2, 65, 64
4, 1450320, Note_on_c, 2, 64, 111
4, 1450556, Note_off_c, 2, 64, 64
4, 1450560, Note_on_c, 2, 65, 111
4, 1450796, Note_off_c, 2, 65, 64
4, 1450800, Note_on_c, 2, 66, 110
4, 1451036, Note_off_c, 2, 66, 64
4, 1451040, Note_on_c, 2, 67, 113
4, 1451276, Note_off_c, 2, 67, 64
4, 1451280, Note_on_c, 2, 69, 111
4, 1451516, Note_off_c, 2, 69, 64
4, 1451520, Note_on_c, 2, 70, 108
4, 1451756, Note_off_c, 2, 70, 64
4, 1451760, Note_on_c, 2, 69, 107
4, 1452236, Note_off_c, 2, 69, 64
4, 1452240, Note_on_c, 2, 67, 106
4, 1452356, Note_off_c, 2, 67, 64
4, 1452360, Note_on_c, 2, 65, 107
4, 1452476, Note_off_c, 2, 65, 64
4, 1452480, Note_on_c, 2, 64, 107
4, 1452596, Note_off_c, 2, 64, 64
4, 1452600, Note_on_c, 2, 62, 107
4, 1452716, Note_off_c, 2, 62, 64
4, 1452720, Note_on_c, 2, 64, 119
4, 1452956, Note_off_c, 2, 64, 64
4, 1452960, Note_on_c, 2, 62, 121
4, 1453440, Note_off_c, 2, 62, 64
4, 1454040, Note_on_c, 2, 70, 104
4, 1454156, Note_off_c, 2, 70, 64
4, 1454160, Note_on_c, 2, 69, 93
4, 1454276, Note_off_c, 2, 69, 64
4, 1454280, Note_on_c, 2, 67, 95
4, 1454396, Note_off_c, 2, 67, 64
4, 1454400, Note_on_c, 2, 66, 92
4, 1454516, Note_off_c, 2, 66, 64
4, 1454520, Note_on_c, 2, 67, 93
4, 1454636, Note_off_c, 2, 67, 64
4, 1454640, Note_on_c, 2, 69, 88
4, 1454756, Note_off_c, 2, 69, 64
4, 1454760, Note_on_c, 2, 66, 88
4, 1454876, Note_off_c, 2, 66, 64
4, 1454880, Note_on_c, 2, 62, 93
4, 1455116, Note_off_c, 2, 62, 64
4, 1455120, Note_on_c, 2, 64, 106
4, 1455236, Note_off_c, 2, 64, 64
4, 1455240, Note_on_c, 2, 65, 96
4, 1455356, Note_off_c, 2, 65, 64
4, 1455360, Note_on_c, 2, 67, 106
4, 1455596, Note_off_c, 2, 67, 64
4, 1455600, Note_on_c, 2, 60, 111
4, 1455836, Note_off_c, 2, 60, 64
4, 1455960, Note_on_c, 2, 67, 98
4, 1456076, Note_off_c, 2, 67, 64
4, 1456080, Note_on_c, 2, 65, 100
4, 1456196, Note_off_c, 2, 65, 64
4, 1456200, Note_on_c, 2, 63, 108
4, 1456316, Note_off_c, 2, 63, 64
4, 1456320, Note_on_c, 2, 62, 86
4, 1456436, Note_off_c, 2, 62, 64
4, 1456440, Note_on_c, 2, 65, 106
4, 1456556, Note_off_c, 2, 65, 64
4, 1456560, Note_on_c, 2, 63, 101
4, 1456676, Note_off_c, 2, 63, 64
4, 1456680, Note_on_c, 2, 67, 102
4, 1456796, Note_off_c, 2, 67, 64
4, 1456800, Note_on_c, 2, 65, 111
4, 1457036, Note_off_c, 2, 65, 64
4, 1457040, Note_on_c, 2, 67, 113
4, 1457276, Note_off_c, 2, 67, 64
4, 1457280, Note_on_c, 2, 68, 115
4, 1457876, Note_off_c, 2, 68, 64
4, 1457880, Note_on_c, 2, 67, 101
4, 1457996, Note_off_c, 2, 67, 64
4, 1458000, Note_on_c, 2, 68, 110
4, 1458116, Note_off_c, 2, 68, 64
4, 1458120, Note_on_c, 2, 70, 94
4, 1458236, Note_off_c, 2, 70, 64
4, 1458240, Note_on_c, 2, 63, 104
4, 1458356, Note_off_c, 2, 63, 64
4, 1458360, Note_on_c, 2, 62, 84
4, 1458476, Note_off_c, 2, 62, 64
4, 1458480, Note_on_c, 2, 63, 106
4, 1458596, Note_off_c, 2, 63, 64
4, 1458600, Note_on_c, 2, 67, 104
4, 1458716, Note_off_c, 2, 67, 64
4, 1458720, Note_on_c, 2, 60, 98
4, 1458836, Note_off_c, 2, 60, 64
4, 1458840, Note_on_c, 2, 62, 101
4, 1458956, Note_off_c, 2, 62, 64
4, 1458960, Note_on_c, 2, 63, 104
4, 1459076, Note_off_c, 2, 63, 64
4, 1459080, Note_on_c, 2, 60, 96
4, 1459196, Note_off_c, 2, 60, 64
4, 1459200, Note_on_c, 2, 65, 95
4, 1459436, Note_off_c, 2, 65, 64
4, 1459440, Note_on_c, 2, 58, 117
4, 1459916, Note_off_c, 2, 58, 64
4, 1459920, Note_on_c, 2, 56, 108
4, 1460036, Note_off_c, 2, 56, 64
4, 1460040, Note_on_c, 2, 55, 97
4, 1460156, Note_off_c, 2, 55, 64
4, 1460160, Note_on_c, 2, 56, 115
4, 1460396, Note_off_c, 2, 56, 64
4, 1460400, Note_on_c, 2, 65, 124
4, 1460876, Note_off_c, 2, 65, 64
4, 1460880, Note_on_c, 2, 63, 106
4, 1460996, Note_off_c, 2, 63, 64
4, 1461000, Note_on_c, 2, 62, 97
4, 1461116, Note_off_c, 2, 62, 64
4, 1461120, Note_on_c, 2, 63, 110
4, 1461356, Note_off_c, 2, 63, 64
4, 1461720, Note_on_c, 2, 54, 115
4, 1461836, Note_off_c, 2, 54, 64
4, 1461840, Note_on_c, 2, 55, 100
4, 1461956, Note_off_c, 2, 55, 64
4, 1461960, Note_on_c, 2, 57, 100
4, 1462076, Note_off_c, 2, 57, 64
4, 1462080, Note_on_c, 2, 55, 92
4, 1462196, Note_off_c, 2, 55, 64
4, 1462200, Note_on_c, 2, 54, 110
4, 1462316, Note_off_c, 2, 54, 64
4, 1462320, Note_on_c, 2, 52, 100
4, 1462436, Note_off_c, 2, 52, 64
4, 1462440, Note_on_c, 2, 50, 97
4, 1462556, Note_off_c, 2, 50, 64
4, 1462560, Note_on_c, 2, 62, 113
4, 1462676, Note_off_c, 2, 62, 64
4, 1462680, Note_on_c, 2, 60, 88
4, 1462796, Note_off_c, 2, 60, 64
4, 1462800, Note_on_c, 2, 62, 104
4, 1463036, Note_off_c, 2, 62, 64
4, 1463040, Note_on_c, 2, 55, 90
4, 1463280, Note_off_c, 2, 55, 64
4, 1463760, Note_on_c, 2, 63, 121
4, 1463876, Note_off_c, 2, 63, 64
4, 1463880, Note_on_c, 2, 62, 121
4, 1463996, Note_off_c, 2, 62, 64
4, 1464000, Note_on_c, 2, 60, 121
4, 1464116, Note_off_c, 2, 60, 64
4, 1464120, Note_on_c, 2, 58, 121
4, 1464236, Note_off_c, 2, 58, 64
4, 1464240, Note_on_c, 2, 57, 121
4, 1464356, Note_off_c, 2, 57, 64
4, 1464360, Note_on_c, 2, 55, 121
4, 1464476, Note_off_c, 2, 55, 64
4, 1464480, Note_on_c, 2, 54, 125
4, 1464720, Note_off_c, 2, 54, 64
4, 1465200, Note_on_c, 2, 62, 115
4, 1465676, Note_off_c, 2, 62, 64
4, 1465680, Note_on_c, 2, 60, 117
4, 1465916, Note_off_c, 2, 60, 64
4, 1465920, Note_on_c, 2, 59, 115
4, 1466156, Note_off_c, 2, 59, 64
4, 1466160, Note_on_c, 2, 60, 109
4, 1466276, Note_off_c, 2, 60, 64
4, 1466280, Note_on_c, 2, 62, 107
4, 1466396, Note_off_c, 2, 62, 64
4, 1466400, Note_on_c, 2, 63, 115
4, 1466636, Note_off_c, 2, 63, 64
4, 1466640, Note_on_c, 2, 55, 115
4, 1466876, Note_off_c, 2, 55, 64
4, 1466880, Note_on_c, 2, 54, 117
4, 1467116, Note_off_c, 2, 54, 64
4, 1467120, Note_on_c, 2, 62, 124
4, 1467480, Note_off_c, 2, 62, 64
4, 1467480, Note_on_c, 2, 60, 78
4, 1467540, Note_off_c, 2, 60, 64
4, 1467540, Note_on_c, 2, 58, 83
4, 1467600, Note_off_c, 2, 58, 64
4, 1467600, Note_on_c, 2, 57, 83
4, 1467660, Note_off_c, 2, 57, 64
4, 1467660, Note_on_c, 2, 58, 98
4, 1467720, Note_off_c, 2, 58, 64
4, 1467720, Note_on_c, 2, 55, 93
4, 1467840, Note_off_c, 2, 55, 64
4, 1467840, Note_on_c, 2, 56, 93
4, 1467960, Note_off_c, 2, 56, 64
4, 1467960, Note_on_c, 2, 55, 93
4, 1468200, Note_off_c, 2, 55, 64
4, 1468200, Note_on_c, 2, 54, 93
4, 1468320, Note_off_c, 2, 54, 64
4, 1468320, Note_on_c, 2, 55, 93
4, 1468800, Note_off_c, 2, 55, 64
4, 1470240, Note_on_c, 2, 64, 126
4, 1471676, Note_off_c, 2, 64, 64
4, 1471680, Note_on_c, 2, 62, 111
4, 1471916, Note_off_c, 2, 62, 64
4, 1471920, Note_on_c, 2, 61, 119
4, 1472156, Note_off_c, 2, 61, 64
4, 1472160, Note_on_c, 2, 62, 109
4, 1473596, Note_off_c, 2, 62, 64
4, 1473600, Note_on_c, 2, 61, 123
4, 1473836, Note_off_c, 2, 61, 64
4, 1473840, Note_on_c, 2, 59, 119
4, 1474076, Note_off_c, 2, 59, 64
4, 1474080, Note_on_c, 2, 61, 117
4, 1474556, Note_off_c, 2, 61, 64
4, 1474560, Note_on_c, 2, 64, 126
4, 1475036, Note_off_c, 2, 64, 64
4, 1475040, Note_on_c, 2, 57, 124
4, 1477436, Note_off_c, 2, 57, 64
4, 1477440, Note_on_c, 2, 55, 115
4, 1477676, Note_off_c, 2, 55, 64
4, 1477680, Note_on_c, 2, 54, 125
4, 1477916, Note_off_c, 2, 54, 64
4, 1477920, Note_on_c, 2, 55, 117
4, 1479356, Note_off_c, 2, 55, 64
4, 1479360, Note_on_c, 2, 52, 123
4, 1479836, Note_off_c, 2, 52, 64
4, 1479840, Note_on_c, 2, 57, 121
4, 1481276, Note_off_c, 2, 57, 64
4, 1481280, Note_on_c, 2, 57, 106
4, 1481516, Note_off_c, 2, 57, 64
4, 1481520, Note_on_c, 2, 55, 104
4, 1481756, Note_off_c, 2, 55, 64
4, 1481760, Note_on_c, 2, 57, 107
4, 1482236, Note_off_c, 2, 57, 64
4, 1482240, Note_on_c, 2, 54, 112
4, 1482716, Note_off_c, 2, 54, 64
4, 1482720, Note_on_c, 2, 62, 127
4, 1484636, Note_off_c, 2, 62, 64
4, 1485600, Note_on_c, 2, 64, 91
4, 1487036, Note_off_c, 2, 64, 64
4, 1487040, Note_on_c, 2, 62, 111
4, 1487276, Note_off_c, 2, 62, 64
4, 1487280, Note_on_c, 2, 61, 106
4, 1487516, Note_off_c, 2, 61, 64
4, 1487520, Note_on_c, 2, 62, 117
4, 1488956, Note_off_c, 2, 62, 64
4, 1488960, Note_on_c, 2, 61, 123
4, 1489196, Note_off_c, 2, 61, 64
4, 1489200, Note_on_c, 2, 59, 111
4, 1489436, Note_off_c, 2, 59, 64
4, 1489440, Note_on_c, 2, 61, 110
4, 1489916, Note_off_c, 2, 61, 64
4, 1489920, Note_on_c, 2, 64, 123
4, 1490396, Note_off_c, 2, 64, 64
4, 1490400, Note_on_c, 2, 57, 127
4, 1492316, Note_off_c, 2, 57, 64
4, 1493280, Note_on_c, 2, 57, 117
4, 1494716, Note_off_c, 2, 57, 64
4, 1494720, Note_on_c, 2, 55, 109
4, 1494956, Note_off_c, 2, 55, 64
4, 1494960, Note_on_c, 2, 54, 115
4, 1495196, Note_off_c, 2, 54, 64
4, 1495200, Note_on_c, 2, 55, 109
4, 1495676, Note_off_c, 2, 55, 64
4, 1495680, Note_on_c, 2, 59, 123
4, 1496156, Note_off_c, 2, 59, 64
4, 1496160, Note_on_c, 2, 49, 96
4, 1496640, Note_off_c, 2, 49, 64
4, 1496640, Note_on_c, 2, 50, 96
4, 1497120, Note_off_c, 2, 50, 64
4, 1497120, Note_on_c, 2, 52, 102
4, 1497356, Note_off_c, 2, 52, 64
4, 1497360, Note_on_c, 2, 54, 115
4, 1497596, Note_off_c, 2, 54, 64
4, 1497600, Note_on_c, 2, 55, 102
4, 1498556, Note_off_c, 2, 55, 64
4, 1498560, Note_on_c, 2, 54, 112
4, 1498796, Note_off_c, 2, 54, 64
4, 1498800, Note_on_c, 2, 52, 109
4, 1499036, Note_off_c, 2, 52, 64
4, 1499040, Note_on_c, 2, 54, 110
4, 1499996, Note_off_c, 2, 54, 64
4, 1506720, Note_on_c, 2, 66, 127
4, 1508156, Note_off_c, 2, 66, 64
4, 1508160, Note_on_c, 2, 64, 100
4, 1508396, Note_off_c, 2, 64, 64
4, 1508400, Note_on_c, 2, 63, 108
4, 1508636, Note_off_c, 2, 63, 64
4, 1508640, Note_on_c, 2, 64, 111
4, 1509116, Note_off_c, 2, 64, 64
4, 1509120, Note_on_c, 2, 67, 107
4, 1509596, Note_off_c, 2, 67, 64
4, 1509600, Note_on_c, 2, 60, 102
4, 1510076, Note_off_c, 2, 60, 64
4, 1510080, Note_on_c, 2, 64, 117
4, 1510556, Note_off_c, 2, 64, 64
4, 1510560, Note_on_c, 2, 69, 113
4, 1511996, Note_off_c, 2, 69, 64
4, 1512000, Note_on_c, 2, 67, 106
4, 1512476, Note_off_c, 2, 67, 64
4, 1512480, Note_on_c, 2, 66, 115
4, 1513436, Note_off_c, 2, 66, 64
4, 1513440, Note_on_c, 2, 64, 115
4, 1515356, Note_off_c, 2, 64, 64
4, 1520160, Note_on_c, 2, 60, 121
4, 1521596, Note_off_c, 2, 60, 64
4, 1521600, Note_on_c, 2, 59, 111
4, 1521836, Note_off_c, 2, 59, 64
4, 1521840, Note_on_c, 2, 57, 106
4, 1522076, Note_off_c, 2, 57, 64
4, 1522080, Note_on_c, 2, 59, 115
4, 1522556, Note_off_c, 2, 59, 64
4, 1522560, Note_on_c, 2, 62, 123
4, 1523036, Note_off_c, 2, 62, 64
4, 1523040, Note_on_c, 2, 55, 115
4, 1524476, Note_off_c, 2, 55, 64
4, 1524480, Note_on_c, 2, 59, 117
4, 1524956, Note_off_c, 2, 59, 64
4, 1524960, Note_on_c, 2, 52, 117
4, 1525916, Note_off_c, 2, 52, 64
4, 1525920, Note_on_c, 2, 57, 119
4, 1527356, Note_off_c, 2, 57, 64
4, 1527360, Note_on_c, 2, 57, 106
4, 1527596, Note_off_c, 2, 57, 64
4, 1527600, Note_on_c, 2, 55, 104
4, 1527836, Note_off_c, 2, 55, 64
4, 1527840, Note_on_c, 2, 57, 115
4, 1528316, Note_off_c, 2, 57, 64
4, 1528320, Note_on_c, 2, 54, 110
4, 1528796, Note_off_c, 2, 54, 64
4, 1528800, Note_on_c, 2, 62, 127
4, 1530476, Note_off_c, 2, 62, 64
4, 1555800, Note_on_c, 2, 50, 100
4, 1555916, Note_off_c, 2, 50, 64
4, 1555920, Note_on_c, 2, 50, 107
4, 1556036, Note_off_c, 2, 50, 64
4, 1557240, Note_on_c, 2, 55, 98
4, 1557356, Note_off_c, 2, 55, 64
4, 1557360, Note_on_c, 2, 55, 109
4, 1557476, Note_off_c, 2, 55, 64
4, 1558680, Note_on_c, 2, 69, 106
4, 1558796, Note_off_c, 2, 69, 64
4, 1558800, Note_on_c, 2, 69, 102
4, 1558916, Note_off_c, 2, 69, 64
4, 1560120, Note_on_c, 2, 81, 100
4, 1560236, Note_off_c, 2, 81, 64
4, 1560240, Note_on_c, 2, 81, 107
4, 1560356, Note_off_c, 2, 81, 64
4, 1567800, Note_on_c, 2, 62, 104
4, 1567916, Note_off_c, 2, 62, 64
4, 1567920, Note_on_c, 2, 60, 106
4, 1568036, Note_off_c, 2, 60, 64
4, 1568040, Note_on_c, 2, 59, 100
4, 1568156, Note_off_c, 2, 59, 64
4, 1568160, Note_on_c, 2, 57, 97
4, 1568276, Note_off_c, 2, 57, 64
4, 1568280, Note_on_c, 2, 55, 100
4, 1568396, Note_off_c, 2, 55, 64
4, 1568400, Note_on_c, 2, 54, 110
4, 1568516, Note_off_c, 2, 54, 64
4, 1568520, Note_on_c, 2, 52, 97
4, 1568636, Note_off_c, 2, 52, 64
4, 1568640, Note_on_c, 2, 50, 107
4, 1568756, Note_off_c, 2, 50, 64
4, 1569240, Note_on_c, 2, 48, 104
4, 1569356, Note_off_c, 2, 48, 64
4, 1569360, Note_on_c, 2, 50, 98
4, 1569476, Note_off_c, 2, 50, 64
4, 1569480, Note_on_c, 2, 52, 100
4, 1569596, Note_off_c, 2, 52, 64
4, 1569600, Note_on_c, 2, 54, 104
4, 1569716, Note_off_c, 2, 54, 64
4, 1569720, Note_on_c, 2, 55, 102
4, 1569836, Note_off_c, 2, 55, 64
4, 1569840, Note_on_c, 2, 57, 109
4, 1569956, Note_off_c, 2, 57, 64
4, 1569960, Note_on_c, 2, 59, 104
4, 1570076, Note_off_c, 2, 59, 64
4, 1570080, Note_on_c, 2, 60, 109
4, 1570320, Note_off_c, 2, 60, 64
4, 1570320, Note_on_c, 2, 60, 115
4, 1570560, Note_off_c, 2, 60, 64
4, 1570560, Note_on_c, 2, 60, 109
4, 1570796, Note_off_c, 2, 60, 64
4, 1570800, Note_on_c, 2, 60, 100
4, 1571036, Note_off_c, 2, 60, 64
4, 1571040, Note_on_c, 2, 57, 106
4, 1571276, Note_off_c, 2, 57, 64
4, 1571280, Note_on_c, 2, 57, 107
4, 1571516, Note_off_c, 2, 57, 64
4, 1571520, Note_on_c, 2, 54, 112
4, 1571756, Note_off_c, 2, 54, 64
4, 1571760, Note_on_c, 2, 54, 108
4, 1571996, Note_off_c, 2, 54, 64
4, 1572000, Note_on_c, 2, 54, 104
4, 1572236, Note_off_c, 2, 54, 64
4, 1572240, Note_on_c, 2, 54, 102
4, 1572476, Note_off_c, 2, 54, 64
4, 1572480, Note_on_c, 2, 50, 101
4, 1572716, Note_off_c, 2, 50, 64
4, 1572720, Note_on_c, 2, 50, 106
4, 1572956, Note_off_c, 2, 50, 64
4, 1572960, Note_on_c, 2, 47, 113
4, 1573196, Note_off_c, 2, 47, 64
4, 1573200, Note_on_c, 2, 47, 101
4, 1573436, Note_off_c, 2, 47, 64
4, 1573440, Note_on_c, 2, 47, 111
4, 1573676, Note_off_c, 2, 47, 64
4, 1573680, Note_on_c, 2, 50, 109
4, 1573916, Note_off_c, 2, 50, 64
4, 1573920, Note_on_c, 2, 53, 109
4, 1574156, Note_off_c, 2, 53, 64
4, 1574160, Note_on_c, 2, 57, 113
4, 1574396, Note_off_c, 2, 57, 64
4, 1574400, Note_on_c, 2, 60, 121
4, 1574636, Note_off_c, 2, 60, 64
4, 1574640, Note_on_c, 2, 60, 107
4, 1574876, Note_off_c, 2, 60, 64
4, 1574880, Note_on_c, 2, 60, 106
4, 1575116, Note_off_c, 2, 60, 64
4, 1575120, Note_on_c, 2, 64, 119
4, 1575356, Note_off_c, 2, 64, 64
4, 1575360, Note_on_c, 2, 67, 106
4, 1575596, Note_off_c, 2, 67, 64
4, 1575600, Note_on_c, 2, 71, 107
4, 1575836, Note_off_c, 2, 71, 64
4, 1575840, Note_on_c, 2, 74, 109
4, 1576076, Note_off_c, 2, 74, 64
4, 1576440, Note_on_c, 2, 64, 102
4, 1576556, Note_off_c, 2, 64, 64
4, 1576560, Note_on_c, 2, 62, 96
4, 1576676, Note_off_c, 2, 62, 64
4, 1576680, Note_on_c, 2, 60, 96
4, 1576796, Note_off_c, 2, 60, 64
4, 1576800, Note_on_c, 2, 59, 90
4, 1576916, Note_off_c, 2, 59, 64
4, 1576920, Note_on_c, 2, 57, 78
4, 1577036, Note_off_c, 2, 57, 64
4, 1577040, Note_on_c, 2, 55, 86
4, 1577156, Note_off_c, 2, 55, 64
4, 1577160, Note_on_c, 2, 54, 88
4, 1577276, Note_off_c, 2, 54, 64
4, 1577280, Note_on_c, 2, 55, 98
4, 1577400, Note_off_c, 2, 55, 64
4, 1577400, Note_on_c, 2, 47, 106
4, 1577516, Note_off_c, 2, 47, 64
4, 1577520, Note_on_c, 2, 48, 90
4, 1577636, Note_off_c, 2, 48, 64
4, 1577640, Note_on_c, 2, 50, 104
4, 1577756, Note_off_c, 2, 50, 64
4, 1577760, Note_on_c, 2, 52, 97
4, 1577876, Note_off_c, 2, 52, 64
4, 1577880, Note_on_c, 2, 54, 106
4, 1577996, Note_off_c, 2, 54, 64
4, 1578000, Note_on_c, 2, 55, 56
4, 1578116, Note_off_c, 2, 55, 64
4, 1578120, Note_on_c, 2, 57, 102
4, 1578236, Note_off_c, 2, 57, 64
4, 1578240, Note_on_c, 2, 59, 121
4, 1578480, Note_off_c, 2, 59, 64
4, 1584480, Note_on_c, 2, 55, 104
4, 1584956, Note_off_c, 2, 55, 64
4, 1584960, Note_on_c, 2, 54, 104
4, 1585196, Note_off_c, 2, 54, 64
4, 1585200, Note_on_c, 2, 55, 102
4, 1585676, Note_off_c, 2, 55, 64
4, 1585680, Note_on_c, 2, 57, 101
4, 1585916, Note_off_c, 2, 57, 64
4, 1585920, Note_on_c, 2, 59, 97
4, 1586156, Note_off_c, 2, 59, 64
4, 1586160, Note_on_c, 2, 62, 96
4, 1586396, Note_off_c, 2, 62, 64
4, 1586400, Note_on_c, 2, 61, 96
4, 1586636, Note_off_c, 2, 61, 64
4, 1586640, Note_on_c, 2, 62, 101
4, 1587116, Note_off_c, 2, 62, 64
4, 1587120, Note_on_c, 2, 57, 89
4, 1587356, Note_off_c, 2, 57, 64
4, 1587360, Note_on_c, 2, 62, 95
4, 1587836, Note_off_c, 2, 62, 64
4, 1587840, Note_on_c, 2, 64, 98
4, 1587956, Note_off_c, 2, 64, 64
4, 1587960, Note_on_c, 2, 64, 91
4, 1588076, Note_off_c, 2, 64, 64
4, 1588080, Note_on_c, 2, 66, 90
4, 1588196, Note_off_c, 2, 66, 64
4, 1588200, Note_on_c, 2, 67, 89
4, 1588316, Note_off_c, 2, 67, 64
4, 1588320, Note_on_c, 2, 66, 90
4, 1588436, Note_off_c, 2, 66, 64
4, 1588440, Note_on_c, 2, 64, 93
4, 1588556, Note_off_c, 2, 64, 64
4, 1588560, Note_on_c, 2, 62, 95
4, 1588800, Note_off_c, 2, 62, 64
4, 1588800, Note_on_c, 2, 67, 95
4, 1589040, Note_off_c, 2, 67, 64
4, 1589040, Note_on_c, 2, 71, 93
4, 1589280, Note_off_c, 2, 71, 64
4, 1589280, Note_on_c, 2, 69, 100
4, 1589520, Note_off_c, 2, 69, 64
4, 1589520, Note_on_c, 2, 71, 100
4, 1589760, Note_off_c, 2, 71, 64
4, 1589760, Note_on_c, 2, 67, 88
4, 1589996, Note_off_c, 2, 67, 64
4, 1590000, Note_on_c, 2, 66, 104
4, 1590236, Note_off_c, 2, 66, 64
4, 1590240, Note_on_c, 2, 67, 104
4, 1591196, Note_off_c, 2, 67, 64
4, 1591200, Note_on_c, 2, 66, 104
4, 1591436, Note_off_c, 2, 66, 64
4, 1591440, Note_on_c, 2, 64, 98
4, 1591676, Note_off_c, 2, 64, 64
4, 1591680, Note_on_c, 2, 66, 96
4, 1591916, Note_off_c, 2, 66, 64
4, 1591920, Note_on_c, 2, 67, 97
4, 1592156, Note_off_c, 2, 67, 64
4, 1592160, Note_on_c, 2, 69, 91
4, 1592396, Note_off_c, 2, 69, 64
4, 1592400, Note_on_c, 2, 62, 101
4, 1593356, Note_off_c, 2, 62, 64
4, 1593360, Note_on_c, 2, 67, 98
4, 1593596, Note_off_c, 2, 67, 64
4, 1593600, Note_on_c, 2, 66, 99
4, 1593836, Note_off_c, 2, 66, 64
4, 1593840, Note_on_c, 2, 67, 93
4, 1594076, Note_off_c, 2, 67, 64
4, 1594080, Note_on_c, 2, 71, 100
4, 1594316, Note_off_c, 2, 71, 64
4, 1594320, Note_on_c, 2, 69, 93
4, 1594556, Note_off_c, 2, 69, 64
4, 1594560, Note_on_c, 2, 71, 92
4, 1594796, Note_off_c, 2, 71, 64
4, 1594800, Note_on_c, 2, 74, 90
4, 1594916, Note_off_c, 2, 74, 64
4, 1594920, Note_on_c, 2, 72, 88
4, 1595036, Note_off_c, 2, 72, 64
4, 1595040, Note_on_c, 2, 71, 83
4, 1595156, Note_off_c, 2, 71, 64
4, 1595160, Note_on_c, 2, 69, 80
4, 1595276, Note_off_c, 2, 69, 64
4, 1595280, Note_on_c, 2, 71, 90
4, 1595516, Note_off_c, 2, 71, 64
4, 1595520, Note_on_c, 2, 72, 91
4, 1595636, Note_off_c, 2, 72, 64
4, 1595640, Note_on_c, 2, 71, 86
4, 1595756, Note_off_c, 2, 71, 64
4, 1595760, Note_on_c, 2, 69, 80
4, 1595876, Note_off_c, 2, 69, 64
4, 1595880, Note_on_c, 2, 67, 76
4, 1595996, Note_off_c, 2, 67, 64
4, 1596000, Note_on_c, 2, 69, 98
4, 1596236, Note_off_c, 2, 69, 64
4, 1596240, Note_on_c, 2, 71, 88
4, 1596356, Note_off_c, 2, 71, 64
4, 1596360, Note_on_c, 2, 69, 88
4, 1596476, Note_off_c, 2, 69, 64
4, 1596480, Note_on_c, 2, 67, 82
4, 1596596, Note_off_c, 2, 67, 64
4, 1596600, Note_on_c, 2, 66, 82
4, 1596716, Note_off_c, 2, 66, 64
4, 1596720, Note_on_c, 2, 67, 104
4, 1596956, Note_off_c, 2, 67, 64
4, 1596960, Note_on_c, 2, 69, 83
4, 1597076, Note_off_c, 2, 69, 64
4, 1597080, Note_on_c, 2, 67, 91
4, 1597196, Note_off_c, 2, 67, 64
4, 1597200, Note_on_c, 2, 66, 92
4, 1597316, Note_off_c, 2, 66, 64
4, 1597320, Note_on_c, 2, 64, 93
4, 1597436, Note_off_c, 2, 64, 64
4, 1597440, Note_on_c, 2, 62, 90
4, 1597676, Note_off_c, 2, 62, 64
4, 1597680, Note_on_c, 2, 71, 102
4, 1597916, Note_off_c, 2, 71, 64
4, 1597920, Note_on_c, 2, 69, 86
4, 1598156, Note_off_c, 2, 69, 64
4, 1598160, Note_on_c, 2, 67, 91
4, 1598396, Note_off_c, 2, 67, 64
4, 1598400, Note_on_c, 2, 69, 84
4, 1598636, Note_off_c, 2, 69, 64
4, 1598640, Note_on_c, 2, 66, 90
4, 1598876, Note_off_c, 2, 66, 64
4, 1598880, Note_on_c, 2, 64, 89
4, 1598996, Note_off_c, 2, 64, 64
4, 1599000, Note_on_c, 2, 62, 101
4, 1599116, Note_off_c, 2, 62, 64
4, 1599120, Note_on_c, 2, 61, 115
4, 1599356, Note_off_c, 2, 61, 64
4, 1599360, Note_on_c, 2, 62, 102
4, 1599596, Note_off_c, 2, 62, 64
4, 1599600, Note_on_c, 2, 62, 98
4, 1599836, Note_off_c, 2, 62, 64
4, 1599840, Note_on_c, 2, 61, 101
4, 1600556, Note_off_c, 2, 61, 64
4, 1600560, Note_on_c, 2, 62, 93
4, 1600796, Note_off_c, 2, 62, 64
4, 1600800, Note_on_c, 2, 64, 100
4, 1601036, Note_off_c, 2, 64, 64
4, 1601040, Note_on_c, 2, 57, 89
4, 1601276, Note_off_c, 2, 57, 64
4, 1601280, Note_on_c, 2, 59, 98
4, 1601516, Note_off_c, 2, 59, 64
4, 1601520, Note_on_c, 2, 61, 102
4, 1601756, Note_off_c, 2, 61, 64
4, 1601760, Note_on_c, 2, 62, 104
4, 1602236, Note_off_c, 2, 62, 64
4, 1602240, Note_on_c, 2, 66, 108
4, 1602476, Note_off_c, 2, 66, 64
4, 1602480, Note_on_c, 2, 67, 101
4, 1602956, Note_off_c, 2, 67, 64
4, 1602960, Note_on_c, 2, 69, 95
4, 1603196, Note_off_c, 2, 69, 64
4, 1603200, Note_on_c, 2, 59, 102
4, 1604156, Note_off_c, 2, 59, 64
4, 1604160, Note_on_c, 2, 57, 97
4, 1604396, Note_off_c, 2, 57, 64
4, 1604400, Note_on_c, 2, 56, 94
4, 1604636, Note_off_c, 2, 56, 64
4, 1604640, Note_on_c, 2, 57, 93
4, 1606316, Note_off_c, 2, 57, 64
4, 1606320, Note_on_c, 2, 62, 104
4, 1606556, Note_off_c, 2, 62, 64
4, 1606560, Note_on_c, 2, 61, 102
4, 1606796, Note_off_c, 2, 61, 64
4, 1606800, Note_on_c, 2, 62, 100
4, 1606916, Note_off_c, 2, 62, 64
4, 1606920, Note_on_c, 2, 64, 102
4, 1607036, Note_off_c, 2, 64, 64
4, 1607040, Note_on_c, 2, 66, 96
4, 1607276, Note_off_c, 2, 66, 64
4, 1607280, Note_on_c, 2, 64, 100
4, 1607516, Note_off_c, 2, 64, 64
4, 1607520, Note_on_c, 2, 66, 102
4, 1607756, Note_off_c, 2, 66, 64
4, 1607760, Note_on_c, 2, 69, 95
4, 1607876, Note_off_c, 2, 69, 64
4, 1607880, Note_on_c, 2, 67, 88
4, 1607996, Note_off_c, 2, 67, 64
4, 1608000, Note_on_c, 2, 66, 80
4, 1608116, Note_off_c, 2, 66, 64
4, 1608120, Note_on_c, 2, 64, 84
4, 1608236, Note_off_c, 2, 64, 64
4, 1608240, Note_on_c, 2, 66, 94
4, 1608476, Note_off_c, 2, 66, 64
4, 1608480, Note_on_c, 2, 67, 95
4, 1608596, Note_off_c, 2, 67, 64
4, 1608600, Note_on_c, 2, 66, 97
4, 1608716, Note_off_c, 2, 66, 64
4, 1608720, Note_on_c, 2, 64, 93
4, 1608836, Note_off_c, 2, 64, 64
4, 1608840, Note_on_c, 2, 62, 85
4, 1608956, Note_off_c, 2, 62, 64
4, 1608960, Note_on_c, 2, 64, 106
4, 1609196, Note_off_c, 2, 64, 64
4, 1609200, Note_on_c, 2, 66, 99
4, 1609316, Note_off_c, 2, 66, 64
4, 1609320, Note_on_c, 2, 64, 84
4, 1609436, Note_off_c, 2, 64, 64
4, 1609440, Note_on_c, 2, 62, 96
4, 1609556, Note_off_c, 2, 62, 64
4, 1609560, Note_on_c, 2, 61, 102
4, 1609676, Note_off_c, 2, 61, 64
4, 1609680, Note_on_c, 2, 62, 92
4, 1609916, Note_off_c, 2, 62, 64
4, 1609920, Note_on_c, 2, 64, 102
4, 1610036, Note_off_c, 2, 64, 64
4, 1610040, Note_on_c, 2, 62, 83
4, 1610156, Note_off_c, 2, 62, 64
4, 1610160, Note_on_c, 2, 61, 106
4, 1610276, Note_off_c, 2, 61, 64
4, 1610280, Note_on_c, 2, 59, 89
4, 1610396, Note_off_c, 2, 59, 64
4, 1610400, Note_on_c, 2, 57, 100
4, 1610640, Note_off_c, 2, 57, 64
4, 1611120, Note_on_c, 2, 62, 106
4, 1611360, Note_off_c, 2, 62, 64
4, 1611840, Note_on_c, 2, 61, 102
4, 1612080, Note_off_c, 2, 61, 64
4, 1612560, Note_on_c, 2, 62, 98
4, 1612800, Note_off_c, 2, 62, 64
4, 1613280, Note_on_c, 2, 67, 93
4, 1613520, Note_off_c, 2, 67, 64
4, 1614000, Note_on_c, 2, 66, 77
4, 1614720, Note_off_c, 2, 66, 64
4, 1618800, Note_on_c, 2, 63, 102
4, 1619036, Note_off_c, 2, 63, 64
4, 1619040, Note_on_c, 2, 64, 95
4, 1619276, Note_off_c, 2, 64, 64
4, 1619280, Note_on_c, 2, 67, 101
4, 1619396, Note_off_c, 2, 67, 64
4, 1619400, Note_on_c, 2, 66, 101
4, 1619516, Note_off_c, 2, 66, 64
4, 1619520, Note_on_c, 2, 64, 96
4, 1619636, Note_off_c, 2, 64, 64
4, 1619640, Note_on_c, 2, 62, 89
4, 1619756, Note_off_c, 2, 62, 64
4, 1619760, Note_on_c, 2, 60, 109
4, 1619996, Note_off_c, 2, 60, 64
4, 1620000, Note_on_c, 2, 64, 101
4, 1620116, Note_off_c, 2, 64, 64
4, 1620120, Note_on_c, 2, 62, 95
4, 1620236, Note_off_c, 2, 62, 64
4, 1620240, Note_on_c, 2, 60, 101
4, 1620356, Note_off_c, 2, 60, 64
4, 1620360, Note_on_c, 2, 59, 100
4, 1620476, Note_off_c, 2, 59, 64
4, 1620480, Note_on_c, 2, 57, 95
4, 1620716, Note_off_c, 2, 57, 64
4, 1620720, Note_on_c, 2, 60, 100
4, 1620836, Note_off_c, 2, 60, 64
4, 1620840, Note_on_c, 2, 59, 91
4, 1620956, Note_off_c, 2, 59, 64
4, 1620960, Note_on_c, 2, 57, 93
4, 1621076, Note_off_c, 2, 57, 64
4, 1621080, Note_on_c, 2, 55, 81
4, 1621196, Note_off_c, 2, 55, 64
4, 1621200, Note_on_c, 2, 54, 115
4, 1621680, Note_off_c, 2, 54, 64
4, 1621680, Note_on_c, 2, 64, 115
4, 1621916, Note_off_c, 2, 64, 64
4, 1621920, Note_on_c, 2, 63, 104
4, 1622156, Note_off_c, 2, 63, 64
4, 1622160, Note_on_c, 2, 66, 99
4, 1622220, Note_off_c, 2, 66, 64
4, 1622220, Note_on_c, 2, 64, 100
4, 1622280, Note_off_c, 2, 64, 64
4, 1622280, Note_on_c, 2, 63, 104
4, 1622340, Note_off_c, 2, 63, 64
4, 1622340, Note_on_c, 2, 64, 106
4, 1622400, Note_off_c, 2, 64, 64
4, 1622400, Note_on_c, 2, 66, 108
4, 1622636, Note_off_c, 2, 66, 64
4, 1622640, Note_on_c, 2, 59, 117
4, 1623596, Note_off_c, 2, 59, 64
4, 1623600, Note_on_c, 2, 63, 112
4, 1623836, Note_off_c, 2, 63, 64
4, 1623840, Note_on_c, 2, 64, 115
4, 1624200, Note_off_c, 2, 64, 64
4, 1624200, Note_on_c, 2, 62, 102
4, 1624316, Note_off_c, 2, 62, 64
4, 1624320, Note_on_c, 2, 60, 97
4, 1624436, Note_off_c, 2, 60, 64
4, 1624440, Note_on_c, 2, 59, 92
4, 1624556, Note_off_c, 2, 59, 64
4, 1624560, Note_on_c, 2, 60, 104
4, 1624916, Note_off_c, 2, 60, 64
4, 1624920, Note_on_c, 2, 59, 98
4, 1625036, Note_off_c, 2, 59, 64
4, 1625040, Note_on_c, 2, 57, 82
4, 1625156, Note_off_c, 2, 57, 64
4, 1625160, Note_on_c, 2, 55, 86
4, 1625276, Note_off_c, 2, 55, 64
4, 1625280, Note_on_c, 2, 57, 102
4, 1625760, Note_off_c, 2, 57, 64
4, 1625760, Note_on_c, 2, 54, 106
4, 1626000, Note_off_c, 2, 54, 64
4, 1626000, Note_on_c, 2, 55, 104
4, 1626240, Note_off_c, 2, 55, 64
4, 1634880, Note_on_c, 2, 59, 115
4, 1635836, Note_off_c, 2, 59, 64
4, 1635840, Note_on_c, 2, 60, 104
4, 1636076, Note_off_c, 2, 60, 64
4, 1636080, Note_on_c, 2, 62, 97
4, 1636316, Note_off_c, 2, 62, 64
4, 1636320, Note_on_c, 2, 64, 102
4, 1636556, Note_off_c, 2, 64, 64
4, 1636560, Note_on_c, 2, 56, 96
4, 1636796, Note_off_c, 2, 56, 64
4, 1636800, Note_on_c, 2, 59, 96
4, 1637036, Note_off_c, 2, 59, 64
4, 1637040, Note_on_c, 2, 57, 104
4, 1637996, Note_off_c, 2, 57, 64
4, 1638000, Note_on_c, 2, 59, 96
4, 1638236, Note_off_c, 2, 59, 64
4, 1638240, Note_on_c, 2, 60, 96
4, 1638476, Note_off_c, 2, 60, 64
4, 1638480, Note_on_c, 2, 62, 102
4, 1638716, Note_off_c, 2, 62, 64
4, 1638720, Note_on_c, 2, 54, 101
4, 1638956, Note_off_c, 2, 54, 64
4, 1638960, Note_on_c, 2, 57, 111
4, 1639196, Note_off_c, 2, 57, 64
4, 1639200, Note_on_c, 2, 50, 98
4, 1639676, Note_off_c, 2, 50, 64
4, 1639680, Note_on_c, 2, 54, 106
4, 1639916, Note_off_c, 2, 54, 64
4, 1639920, Note_on_c, 2, 59, 109
4, 1641116, Note_off_c, 2, 59, 64
4, 1641120, Note_on_c, 2, 51, 110
4, 1641356, Note_off_c, 2, 51, 64
4, 1641360, Note_on_c, 2, 52, 101
4, 1641596, Note_off_c, 2, 52, 64
4, 1641600, Note_on_c, 2, 54, 99
4, 1641836, Note_off_c, 2, 54, 64
4, 1641840, Note_on_c, 2, 55, 96
4, 1642076, Note_off_c, 2, 55, 64
4, 1642080, Note_on_c, 2, 54, 104
4, 1642316, Note_off_c, 2, 54, 64
4, 1642320, Note_on_c, 2, 55, 98
4, 1642556, Note_off_c, 2, 55, 64
4, 1642560, Note_on_c, 2, 57, 96
4, 1642796, Note_off_c, 2, 57, 64
4, 1642800, Note_on_c, 2, 50, 107
4, 1643516, Note_off_c, 2, 50, 64
4, 1643520, Note_on_c, 2, 50, 101
4, 1644236, Note_off_c, 2, 50, 64
4, 1644240, Note_on_c, 2, 50, 98
4, 1645196, Note_off_c, 2, 50, 64
4, 1645200, Note_on_c, 2, 55, 95
4, 1645436, Note_off_c, 2, 55, 64
4, 1645440, Note_on_c, 2, 54, 106
4, 1645676, Note_off_c, 2, 54, 64
4, 1645680, Note_on_c, 2, 55, 104
4, 1645916, Note_off_c, 2, 55, 64
4, 1645920, Note_on_c, 2, 57, 92
4, 1646156, Note_off_c, 2, 57, 64
4, 1646160, Note_on_c, 2, 59, 101
4, 1646396, Note_off_c, 2, 59, 64
4, 1646400, Note_on_c, 2, 60, 104
4, 1646636, Note_off_c, 2, 60, 64
4, 1646640, Note_on_c, 2, 62, 97
4, 1646756, Note_off_c, 2, 62, 64
4, 1646760, Note_on_c, 2, 60, 100
4, 1646876, Note_off_c, 2, 60, 64
4, 1646880, Note_on_c, 2, 59, 100
4, 1646996, Note_off_c, 2, 59, 64
4, 1647000, Note_on_c, 2, 57, 97
4, 1647116, Note_off_c, 2, 57, 64
4, 1647120, Note_on_c, 2, 59, 107
4, 1647356, Note_off_c, 2, 59, 64
4, 1647360, Note_on_c, 2, 60, 106
4, 1647476, Note_off_c, 2, 60, 64
4, 1647480, Note_on_c, 2, 59, 102
4, 1647596, Note_off_c, 2, 59, 64
4, 1647600, Note_on_c, 2, 57, 98
4, 1647716, Note_off_c, 2, 57, 64
4, 1647720, Note_on_c, 2, 55, 82
4, 1647836, Note_off_c, 2, 55, 64
4, 1647840, Note_on_c, 2, 57, 102
4, 1648076, Note_off_c, 2, 57, 64
4, 1648080, Note_on_c, 2, 59, 97
4, 1648196, Note_off_c, 2, 59, 64
4, 1648200, Note_on_c, 2, 57, 95
4, 1648316, Note_off_c, 2, 57, 64
4, 1648320, Note_on_c, 2, 55, 86
4, 1648436, Note_off_c, 2, 55, 64
4, 1648440, Note_on_c, 2, 54, 99
4, 1648556, Note_off_c, 2, 54, 64
4, 1648560, Note_on_c, 2, 55, 90
4, 1649276, Note_off_c, 2, 55, 64
4, 1651440, Note_on_c, 2, 58, 94
4, 1651920, Note_off_c, 2, 58, 64
4, 1652160, Note_on_c, 2, 62, 90
4, 1652396, Note_off_c, 2, 62, 64
4, 1652400, Note_on_c, 2, 60, 93
4, 1652636, Note_off_c, 2, 60, 64
4, 1652640, Note_on_c, 2, 58, 93
4, 1652876, Note_off_c, 2, 58, 64
4, 1652880, Note_on_c, 2, 57, 90
4, 1653356, Note_off_c, 2, 57, 64
4, 1653600, Note_on_c, 2, 60, 98
4, 1653836, Note_off_c, 2, 60, 64
4, 1653840, Note_on_c, 2, 58, 99
4, 1654076, Note_off_c, 2, 58, 64
4, 1654080, Note_on_c, 2, 56, 90
4, 1654316, Note_off_c, 2, 56, 64
4, 1654320, Note_on_c, 2, 55, 85
4, 1654800, Note_off_c, 2, 55, 64
4, 1655040, Note_on_c, 2, 58, 96
4, 1655276, Note_off_c, 2, 58, 64
4, 1655280, Note_on_c, 2, 57, 97
4, 1655516, Note_off_c, 2, 57, 64
4, 1655520, Note_on_c, 2, 55, 93
4, 1655996, Note_off_c, 2, 55, 64
4, 1656000, Note_on_c, 2, 54, 97
4, 1656116, Note_off_c, 2, 54, 64
4, 1656120, Note_on_c, 2, 52, 89
4, 1656236, Note_off_c, 2, 52, 64
4, 1656240, Note_on_c, 2, 54, 99
4, 1656356, Note_off_c, 2, 54, 64
4, 1656360, Note_on_c, 2, 57, 102
4, 1656596, Note_off_c, 2, 57, 64
4, 1656600, Note_on_c, 2, 60, 107
4, 1656836, Note_off_c, 2, 60, 64
4, 1656840, Note_on_c, 2, 54, 110
4, 1657076, Note_off_c, 2, 54, 64
4, 1657080, Note_on_c, 2, 57, 107
4, 1657316, Note_off_c, 2, 57, 64
4, 1657320, Note_on_c, 2, 54, 97
4, 1657440, Note_off_c, 2, 54, 64
4, 1657440, Note_on_c, 2, 55, 96
4, 1657680, Note_off_c, 2, 55, 64
4, 1657920, Note_on_c, 2, 55, 100
4, 1658156, Note_off_c, 2, 55, 64
4, 1658160, Note_on_c, 2, 50, 83
4, 1658276, Note_off_c, 2, 50, 64
4, 1658280, Note_on_c, 2, 53, 111
4, 1658396, Note_off_c, 2, 53, 64
4, 1658400, Note_on_c, 2, 55, 100
4, 1658516, Note_off_c, 2, 55, 64
4, 1658520, Note_on_c, 2, 56, 106
4, 1658636, Note_off_c, 2, 56, 64
4, 1658640, Note_on_c, 2, 56, 108
4, 1658876, Note_off_c, 2, 56, 64
4, 1658880, Note_on_c, 2, 55, 109
4, 1659116, Note_off_c, 2, 55, 64
4, 1659360, Note_on_c, 2, 57, 111
4, 1659596, Note_off_c, 2, 57, 64
4, 1659600, Note_on_c, 2, 52, 97
4, 1659716, Note_off_c, 2, 52, 64
4, 1659720, Note_on_c, 2, 55, 98
4, 1659836, Note_off_c, 2, 55, 64
4, 1659840, Note_on_c, 2, 57, 100
4, 1659956, Note_off_c, 2, 57, 64
4, 1659960, Note_on_c, 2, 58, 112
4, 1660076, Note_off_c, 2, 58, 64
4, 1660080, Note_on_c, 2, 58, 112
4, 1660316, Note_off_c, 2, 58, 64
4, 1660320, Note_on_c, 2, 57, 107
4, 1660556, Note_off_c, 2, 57, 64
4, 1660800, Note_on_c, 2, 57, 97
4, 1661036, Note_off_c, 2, 57, 64
4, 1661040, Note_on_c, 2, 55, 93
4, 1661276, Note_off_c, 2, 55, 64
4, 1661280, Note_on_c, 2, 54, 108
4, 1661760, Note_off_c, 2, 54, 64
4, 1661760, Note_on_c, 2, 55, 98
4, 1661876, Note_off_c, 2, 55, 64
4, 1661880, Note_on_c, 2, 54, 104
4, 1661996, Note_off_c, 2, 54, 64
4, 1662000, Note_on_c, 2, 55, 104
4, 1662116, Note_off_c, 2, 55, 64
4, 1662120, Note_on_c, 2, 50, 107
4, 1662356, Note_off_c, 2, 50, 64
4, 1662360, Note_on_c, 2, 51, 115
4, 1662540, Note_off_c, 2, 51, 64
4, 1662540, Note_on_c, 2, 50, 90
4, 1662596, Note_off_c, 2, 50, 64
4, 1662600, Note_on_c, 2, 55, 106
4, 1662780, Note_off_c, 2, 55, 64
4, 1662780, Note_on_c, 2, 54, 96
4, 1662836, Note_off_c, 2, 54, 64
4, 1662840, Note_on_c, 2, 60, 113
4, 1663076, Note_off_c, 2, 60, 64
4, 1663080, Note_on_c, 2, 58, 92
4, 1663136, Note_off_c, 2, 58, 64
4, 1663140, Note_on_c, 2, 57, 85
4, 1663196, Note_off_c, 2, 57, 64
4, 1663200, Note_on_c, 2, 58, 102
4, 1663436, Note_off_c, 2, 58, 64
4, 1663680, Note_on_c, 2, 67, 102
4, 1663916, Note_off_c, 2, 67, 64
4, 1663920, Note_on_c, 2, 67, 102
4, 1664156, Note_off_c, 2, 67, 64
4, 1664160, Note_on_c, 2, 67, 102
4, 1664396, Note_off_c, 2, 67, 64
4, 1664400, Note_on_c, 2, 67, 102
4, 1664636, Note_off_c, 2, 67, 64
4, 1664640, Note_on_c, 2, 66, 102
4, 1664876, Note_off_c, 2, 66, 64
4, 1665120, Note_on_c, 2, 65, 102
4, 1665356, Note_off_c, 2, 65, 64
4, 1665360, Note_on_c, 2, 65, 102
4, 1665596, Note_off_c, 2, 65, 64
4, 1665600, Note_on_c, 2, 65, 102
4, 1665836, Note_off_c, 2, 65, 64
4, 1665840, Note_on_c, 2, 65, 102
4, 1666076, Note_off_c, 2, 65, 64
4, 1666080, Note_on_c, 2, 64, 102
4, 1666316, Note_off_c, 2, 64, 64
4, 1666560, Note_on_c, 2, 63, 102
4, 1666796, Note_off_c, 2, 63, 64
4, 1666800, Note_on_c, 2, 63, 102
4, 1667036, Note_off_c, 2, 63, 64
4, 1667040, Note_on_c, 2, 62, 102
4, 1667276, Note_off_c, 2, 62, 64
4, 1667280, Note_on_c, 2, 62, 102
4, 1667516, Note_off_c, 2, 62, 64
4, 1667520, Note_on_c, 2, 61, 102
4, 1667756, Note_off_c, 2, 61, 64
4, 1668960, Note_on_c, 2, 62, 102
4, 1669196, Note_off_c, 2, 62, 64
4, 1669200, Note_on_c, 2, 62, 102
4, 1669436, Note_off_c, 2, 62, 64
4, 1669440, Note_on_c, 2, 63, 102
4, 1669676, Note_off_c, 2, 63, 64
4, 1669680, Note_on_c, 2, 63, 102
4, 1670160, Note_off_c, 2, 63, 64
4, 1670400, Note_on_c, 2, 64, 102
4, 1670640, Note_off_c, 2, 64, 64
4, 1670640, Note_on_c, 2, 64, 102
4, 1670880, Note_off_c, 2, 64, 64
4, 1670880, Note_on_c, 2, 65, 102
4, 1671120, Note_off_c, 2, 65, 64
4, 1671120, Note_on_c, 2, 65, 102
4, 1671600, Note_off_c, 2, 65, 64
4, 1671840, Note_on_c, 2, 66, 102
4, 1672080, Note_off_c, 2, 66, 64
4, 1672080, Note_on_c, 2, 66, 102
4, 1672320, Note_off_c, 2, 66, 64
4, 1672320, Note_on_c, 2, 67, 102
4, 1672560, Note_off_c, 2, 67, 64
4, 1672560, Note_on_c, 2, 67, 102
4, 1673280, Note_off_c, 2, 67, 64
4, 1673280, Note_on_c, 2, 66, 102
4, 1673400, Note_off_c, 2, 66, 64
4, 1673400, Note_on_c, 2, 64, 102
4, 1673520, Note_off_c, 2, 64, 64
4, 1673520, Note_on_c, 2, 66, 102
4, 1674000, Note_off_c, 2, 66, 64
4, 1674480, Note_on_c, 2, 58, 94
4, 1674960, Note_off_c, 2, 58, 64
4, 1675200, Note_on_c, 2, 62, 90
4, 1675436, Note_off_c, 2, 62, 64
4, 1675440, Note_on_c, 2, 60, 93
4, 1675676, Note_off_c, 2, 60, 64
4, 1675680, Note_on_c, 2, 58, 93
4, 1675916, Note_off_c, 2, 58, 64
4, 1675920, Note_on_c, 2, 57, 90
4, 1676396, Note_off_c, 2, 57, 64
4, 1676640, Note_on_c, 2, 60, 98
4, 1676876, Note_off_c, 2, 60, 64
4, 1676880, Note_on_c, 2, 58, 99
4, 1677116, Note_off_c, 2, 58, 64
4, 1677120, Note_on_c, 2, 56, 90
4, 1677356, Note_off_c, 2, 56, 64
4, 1677360, Note_on_c, 2, 55, 85
4, 1677840, Note_off_c, 2, 55, 64
4, 1678080, Note_on_c, 2, 58, 96
4, 1678316, Note_off_c, 2, 58, 64
4, 1678320, Note_on_c, 2, 57, 97
4, 1678556, Note_off_c, 2, 57, 64
4, 1678560, Note_on_c, 2, 55, 93
4, 1679036, Note_off_c, 2, 55, 64
4, 1679040, Note_on_c, 2, 54, 97
4, 1679156, Note_off_c, 2, 54, 64
4, 1679160, Note_on_c, 2, 52, 89
4, 1679276, Note_off_c, 2, 52, 64
4, 1679280, Note_on_c, 2, 54, 99
4, 1679396, Note_off_c, 2, 54, 64
4, 1679400, Note_on_c, 2, 57, 102
4, 1679636, Note_off_c, 2, 57, 64
4, 1679640, Note_on_c, 2, 60, 107
4, 1679876, Note_off_c, 2, 60, 64
4, 1679880, Note_on_c, 2, 54, 110
4, 1680116, Note_off_c, 2, 54, 64
4, 1680120, Note_on_c, 2, 57, 107
4, 1680356, Note_off_c, 2, 57, 64
4, 1680360, Note_on_c, 2, 54, 97
4, 1680480, Note_off_c, 2, 54, 64
4, 1680480, Note_on_c, 2, 55, 96
4, 1680720, Note_off_c, 2, 55, 64
4, 1680960, Note_on_c, 2, 55, 100
4, 1681196, Note_off_c, 2, 55, 64
4, 1681200, Note_on_c, 2, 50, 83
4, 1681316, Note_off_c, 2, 50, 64
4, 1681320, Note_on_c, 2, 53, 111
4, 1681436, Note_off_c, 2, 53, 64
4, 1681440, Note_on_c, 2, 55, 100
4, 1681556, Note_off_c, 2, 55, 64
4, 1681560, Note_on_c, 2, 56, 106
4, 1681676, Note_off_c, 2, 56, 64
4, 1681680, Note_on_c, 2, 56, 108
4, 1681916, Note_off_c, 2, 56, 64
4, 1681920, Note_on_c, 2, 55, 109
4, 1682156, Note_off_c, 2, 55, 64
4, 1682400, Note_on_c, 2, 57, 111
4, 1682636, Note_off_c, 2, 57, 64
4, 1682640, Note_on_c, 2, 52, 97
4, 1682756, Note_off_c, 2, 52, 64
4, 1682760, Note_on_c, 2, 55, 98
4, 1682876, Note_off_c, 2, 55, 64
4, 1682880, Note_on_c, 2, 57, 100
4, 1682996, Note_off_c, 2, 57, 64
4, 1683000, Note_on_c, 2, 58, 112
4, 1683116, Note_off_c, 2, 58, 64
4, 1683120, Note_on_c, 2, 58, 112
4, 1683356, Note_off_c, 2, 58, 64
4, 1683360, Note_on_c, 2, 57, 107
4, 1683596, Note_off_c, 2, 57, 64
4, 1683840, Note_on_c, 2, 57, 97
4, 1684076, Note_off_c, 2, 57, 64
4, 1684080, Note_on_c, 2, 55, 93
4, 1684316, Note_off_c, 2, 55, 64
4, 1684320, Note_on_c, 2, 54, 108
4, 1684800, Note_off_c, 2, 54, 64
4, 1684800, Note_on_c, 2, 55, 98
4, 1684916, Note_off_c, 2, 55, 64
4, 1684920, Note_on_c, 2, 54, 104
4, 1685036, Note_off_c, 2, 54, 64
4, 1685040, Note_on_c, 2, 55, 104
4, 1685156, Note_off_c, 2, 55, 64
4, 1685160, Note_on_c, 2, 50, 107
4, 1685396, Note_off_c, 2, 50, 64
4, 1685400, Note_on_c, 2, 51, 115
4, 1685580, Note_off_c, 2, 51, 64
4, 1685580, Note_on_c, 2, 50, 90
4, 1685636, Note_off_c, 2, 50, 64
4, 1685640, Note_on_c, 2, 55, 106
4, 1685820, Note_off_c, 2, 55, 64
4, 1685820, Note_on_c, 2, 54, 96
4, 1685876, Note_off_c, 2, 54, 64
4, 1685880, Note_on_c, 2, 60, 113
4, 1686116, Note_off_c, 2, 60, 64
4, 1686120, Note_on_c, 2, 58, 92
4, 1686176, Note_off_c, 2, 58, 64
4, 1686180, Note_on_c, 2, 57, 85
4, 1686236, Note_off_c, 2, 57, 64
4, 1686240, Note_on_c, 2, 58, 102
4, 1686476, Note_off_c, 2, 58, 64
4, 1686720, Note_on_c, 2, 67, 102
4, 1686956, Note_off_c, 2, 67, 64
4, 1686960, Note_on_c, 2, 67, 102
4, 1687196, Note_off_c, 2, 67, 64
4, 1687200, Note_on_c, 2, 67, 102
4, 1687436, Note_off_c, 2, 67, 64
4, 1687440, Note_on_c, 2, 67, 102
4, 1687676, Note_off_c, 2, 67, 64
4, 1687680, Note_on_c, 2, 66, 102
4, 1687916, Note_off_c, 2, 66, 64
4, 1688160, Note_on_c, 2, 65, 102
4, 1688396, Note_off_c, 2, 65, 64
4, 1688400, Note_on_c, 2, 65, 102
4, 1688636, Note_off_c, 2, 65, 64
4, 1688640, Note_on_c, 2, 65, 102
4, 1688876, Note_off_c, 2, 65, 64
4, 1688880, Note_on_c, 2, 65, 102
4, 1689116, Note_off_c, 2, 65, 64
4, 1689120, Note_on_c, 2, 64, 102
4, 1689356, Note_off_c, 2, 64, 64
4, 1689600, Note_on_c, 2, 63, 102
4, 1689836, Note_off_c, 2, 63, 64
4, 1689840, Note_on_c, 2, 63, 102
4, 1690076, Note_off_c, 2, 63, 64
4, 1690080, Note_on_c, 2, 62, 102
4, 1690316, Note_off_c, 2, 62, 64
4, 1690320, Note_on_c, 2, 62, 102
4, 1690556, Note_off_c, 2, 62, 64
4, 1690560, Note_on_c, 2, 61, 102
4, 1690796, Note_off_c, 2, 61, 64
4, 1692000, Note_on_c, 2, 62, 102
4, 1692236, Note_off_c, 2, 62, 64
4, 1692240, Note_on_c, 2, 62, 102
4, 1692476, Note_off_c, 2, 62, 64
4, 1692480, Note_on_c, 2, 63, 102
4, 1692716, Note_off_c, 2, 63, 64
4, 1692720, Note_on_c, 2, 63, 102
4, 1693200, Note_off_c, 2, 63, 64
4, 1693440, Note_on_c, 2, 64, 102
4, 1693680, Note_off_c, 2, 64, 64
4, 1693680, Note_on_c, 2, 64, 102
4, 1693920, Note_off_c, 2, 64, 64
4, 1693920, Note_on_c, 2, 65, 102
4, 1694160, Note_off_c, 2, 65, 64
4, 1694160, Note_on_c, 2, 65, 102
4, 1694640, Note_off_c, 2, 65, 64
4, 1694880, Note_on_c, 2, 66, 102
4, 1695120, Note_off_c, 2, 66, 64
4, 1695120, Note_on_c, 2, 66, 102
4, 1695360, Note_off_c, 2, 66, 64
4, 1695360, Note_on_c, 2, 67, 102
4, 1695600, Note_off_c, 2, 67, 64
4, 1695600, Note_on_c, 2, 67, 102
4, 1696320, Note_off_c, 2, 67, 64
4, 1696320, Note_on_c, 2, 66, 102
4, 1696440, Note_off_c, 2, 66, 64
4, 1696440, Note_on_c, 2, 64, 102
4, 1696560, Note_off_c, 2, 64, 64
4, 1696560, Note_on_c, 2, 66, 102
4, 1697040, Note_off_c, 2, 66, 64
4, 1697760, Note_on_c, 2, 65, 113
4, 1697996, Note_off_c, 2, 65, 64
4, 1698000, Note_on_c, 2, 65, 98
4, 1698240, Note_off_c, 2, 65, 64
4, 1698240, Note_on_c, 2, 66, 101
4, 1698480, Note_off_c, 2, 66, 64
4, 1698480, Note_on_c, 2, 66, 104
4, 1698720, Note_off_c, 2, 66, 64
4, 1698720, Note_on_c, 2, 67, 113
4, 1698956, Note_off_c, 2, 67, 64
4, 1698960, Note_on_c, 2, 67, 107
4, 1699196, Note_off_c, 2, 67, 64
4, 1699200, Note_on_c, 2, 62, 109
4, 1699440, Note_off_c, 2, 62, 64
4, 1699680, Note_on_c, 2, 65, 113
4, 1699916, Note_off_c, 2, 65, 64
4, 1699920, Note_on_c, 2, 65, 109
4, 1700156, Note_off_c, 2, 65, 64
4, 1700160, Note_on_c, 2, 63, 115
4, 1700396, Note_off_c, 2, 63, 64
4, 1700400, Note_on_c, 2, 63, 117
4, 1700636, Note_off_c, 2, 63, 64
4, 1700640, Note_on_c, 2, 62, 109
4, 1700876, Note_off_c, 2, 62, 64
4, 1700880, Note_on_c, 2, 63, 119
4, 1701116, Note_off_c, 2, 63, 64
4, 1701120, Note_on_c, 2, 64, 107
4, 1701356, Note_off_c, 2, 64, 64
4, 1701360, Note_on_c, 2, 65, 106
4, 1701596, Note_off_c, 2, 65, 64
4, 1701600, Note_on_c, 2, 66, 108
4, 1702076, Note_off_c, 2, 66, 64
4, 1702080, Note_on_c, 2, 65, 107
4, 1702196, Note_off_c, 2, 65, 64
4, 1702200, Note_on_c, 2, 66, 106
4, 1702316, Note_off_c, 2, 66, 64
4, 1702320, Note_on_c, 2, 68, 115
4, 1702440, Note_off_c, 2, 68, 64
4, 1702440, Note_on_c, 2, 62, 92
4, 1702680, Note_off_c, 2, 62, 64
4, 1702680, Note_on_c, 2, 63, 92
4, 1702740, Note_off_c, 2, 63, 64
4, 1702740, Note_on_c, 2, 65, 92
4, 1702800, Note_off_c, 2, 65, 64
4, 1702800, Note_on_c, 2, 66, 92
4, 1702860, Note_off_c, 2, 66, 64
4, 1702860, Note_on_c, 2, 63, 92
4, 1702920, Note_off_c, 2, 63, 64
4, 1702920, Note_on_c, 2, 65, 106
4, 1703160, Note_off_c, 2, 65, 64
4, 1703160, Note_on_c, 2, 59, 106
4, 1703280, Note_off_c, 2, 59, 64
4, 1703280, Note_on_c, 2, 59, 101
4, 1703400, Note_off_c, 2, 59, 64
4, 1703400, Note_on_c, 2, 58, 101
4, 1703520, Note_off_c, 2, 58, 64
4, 1703520, Note_on_c, 2, 63, 101
4, 1703760, Note_off_c, 2, 63, 64
4, 1703760, Note_on_c, 2, 63, 121
4, 1704000, Note_off_c, 2, 63, 64
4, 1704000, Note_on_c, 2, 64, 121
4, 1704240, Note_off_c, 2, 64, 64
4, 1704240, Note_on_c, 2, 64, 102
4, 1704720, Note_off_c, 2, 64, 64
4, 1704960, Note_on_c, 2, 65, 109
4, 1705196, Note_off_c, 2, 65, 64
4, 1705200, Note_on_c, 2, 65, 121
4, 1705436, Note_off_c, 2, 65, 64
4, 1705440, Note_on_c, 2, 66, 117
4, 1705676, Note_off_c, 2, 66, 64
4, 1705680, Note_on_c, 2, 66, 110
4, 1706160, Note_off_c, 2, 66, 64
4, 1706400, Note_on_c, 2, 67, 115
4, 1706636, Note_off_c, 2, 67, 64
4, 1706640, Note_on_c, 2, 67, 111
4, 1706876, Note_off_c, 2, 67, 64
4, 1706880, Note_on_c, 2, 68, 123
4, 1707120, Note_off_c, 2, 68, 64
4, 1707120, Note_on_c, 2, 68, 121
4, 1707836, Note_off_c, 2, 68, 64
4, 1707840, Note_on_c, 2, 67, 117
4, 1707956, Note_off_c, 2, 67, 64
4, 1707960, Note_on_c, 2, 65, 111
4, 1708076, Note_off_c, 2, 65, 64
4, 1708080, Note_on_c, 2, 67, 111
4, 1708440, Note_off_c, 2, 67, 64
4, 1708440, Note_on_c, 2, 69, 92
4, 1708496, Note_off_c, 2, 69, 64
4, 1708500, Note_on_c, 2, 71, 95
4, 1708556, Note_off_c, 2, 71, 64
4, 1708560, Note_on_c, 2, 72, 107
4, 1708620, Note_off_c, 2, 72, 64
4, 1708620, Note_on_c, 2, 65, 102
4, 1708680, Note_off_c, 2, 65, 64
4, 1708680, Note_on_c, 2, 68, 119
4, 1708920, Note_off_c, 2, 68, 64
4, 1708920, Note_on_c, 2, 67, 119
4, 1709040, Note_off_c, 2, 67, 64
4, 1709040, Note_on_c, 2, 65, 115
4, 1709280, Note_off_c, 2, 65, 64
4, 1709280, Note_on_c, 2, 63, 113
4, 1709520, Note_off_c, 2, 63, 64
4, 1709760, Note_on_c, 2, 67, 109
4, 1709996, Note_off_c, 2, 67, 64
4, 1710000, Note_on_c, 2, 65, 111
4, 1710236, Note_off_c, 2, 65, 64
4, 1710240, Note_on_c, 2, 63, 112
4, 1710476, Note_off_c, 2, 63, 64
4, 1710480, Note_on_c, 2, 62, 111
4, 1710960, Note_off_c, 2, 62, 64
4, 1711200, Note_on_c, 2, 65, 104
4, 1711436, Note_off_c, 2, 65, 64
4, 1711440, Note_on_c, 2, 63, 117
4, 1711676, Note_off_c, 2, 63, 64
4, 1711680, Note_on_c, 2, 61, 112
4, 1711916, Note_off_c, 2, 61, 64
4, 1711920, Note_on_c, 2, 60, 107
4, 1712396, Note_off_c, 2, 60, 64
4, 1712640, Note_on_c, 2, 63, 117
4, 1712756, Note_off_c, 2, 63, 64
4, 1712760, Note_on_c, 2, 62, 104
4, 1712876, Note_off_c, 2, 62, 64
4, 1712880, Note_on_c, 2, 60, 107
4, 1713116, Note_off_c, 2, 60, 64
4, 1713120, Note_on_c, 2, 58, 119
4, 1713356, Note_off_c, 2, 58, 64
4, 1713360, Note_on_c, 2, 57, 115
4, 1713716, Note_off_c, 2, 57, 64
4, 1713720, Note_on_c, 2, 57, 104
4, 1713836, Note_off_c, 2, 57, 64
4, 1713840, Note_on_c, 2, 62, 119
4, 1714076, Note_off_c, 2, 62, 64
4, 1714080, Note_on_c, 2, 60, 107
4, 1714316, Note_off_c, 2, 60, 64
4, 1714320, Note_on_c, 2, 58, 110
4, 1714556, Note_off_c, 2, 58, 64
4, 1714560, Note_on_c, 2, 57, 104
4, 1714796, Note_off_c, 2, 57, 64
4, 1714800, Note_on_c, 2, 50, 109
4, 1715036, Note_off_c, 2, 50, 64
4, 1715040, Note_on_c, 2, 54, 108
4, 1715276, Note_off_c, 2, 54, 64
4, 1715280, Note_on_c, 2, 54, 101
4, 1715516, Note_off_c, 2, 54, 64
4, 1715520, Note_on_c, 2, 55, 104
4, 1715756, Note_off_c, 2, 55, 64
4, 1715760, Note_on_c, 2, 55, 91
4, 1715996, Note_off_c, 2, 55, 64
4, 1716000, Note_on_c, 2, 56, 117
4, 1716236, Note_off_c, 2, 56, 64
4, 1716480, Note_on_c, 2, 55, 109
4, 1716716, Note_off_c, 2, 55, 64
4, 1716720, Note_on_c, 2, 55, 102
4, 1716956, Note_off_c, 2, 55, 64
4, 1716960, Note_on_c, 2, 57, 106
4, 1717196, Note_off_c, 2, 57, 64
4, 1717200, Note_on_c, 2, 57, 113
4, 1717436, Note_off_c, 2, 57, 64
4, 1717440, Note_on_c, 2, 58, 110
4, 1717676, Note_off_c, 2, 58, 64
4, 1717920, Note_on_c, 2, 57, 102
4, 1718156, Note_off_c, 2, 57, 64
4, 1718160, Note_on_c, 2, 57, 92
4, 1718396, Note_off_c, 2, 57, 64
4, 1718400, Note_on_c, 2, 58, 117
4, 1718640, Note_off_c, 2, 58, 64
4, 1718640, Note_on_c, 2, 58, 115
4, 1718876, Note_off_c, 2, 58, 64
4, 1718880, Note_on_c, 2, 60, 115
4, 1719356, Note_off_c, 2, 60, 64
4, 1719360, Note_on_c, 2, 58, 112
4, 1719476, Note_off_c, 2, 58, 64
4, 1719480, Note_on_c, 2, 57, 106
4, 1719596, Note_off_c, 2, 57, 64
4, 1719600, Note_on_c, 2, 58, 108
4, 1720080, Note_off_c, 2, 58, 64
4, 1819980, Note_on_c, 2, 67, 106
4, 1820036, Note_off_c, 2, 67, 64
4, 1820040, Note_on_c, 2, 69, 85
4, 1820096, Note_off_c, 2, 69, 64
4, 1820100, Note_on_c, 2, 67, 100
4, 1820156, Note_off_c, 2, 67, 64
4, 1820160, Note_on_c, 2, 69, 91
4, 1820216, Note_off_c, 2, 69, 64
4, 1820220, Note_on_c, 2, 67, 92
4, 1820276, Note_off_c, 2, 67, 64
4, 1820280, Note_on_c, 2, 69, 92
4, 1820336, Note_off_c, 2, 69, 64
4, 1820340, Note_on_c, 2, 67, 102
4, 1820396, Note_off_c, 2, 67, 64
4, 1820460, Note_on_c, 2, 67, 107
4, 1820516, Note_off_c, 2, 67, 64
4, 1820520, Note_on_c, 2, 69, 86
4, 1820576, Note_off_c, 2, 69, 64
4, 1820580, Note_on_c, 2, 67, 95
4, 1820636, Note_off_c, 2, 67, 64
4, 1820640, Note_on_c, 2, 69, 95
4, 1820696, Note_off_c, 2, 69, 64
4, 1820700, Note_on_c, 2, 67, 96
4, 1820756, Note_off_c, 2, 67, 64
4, 1820760, Note_on_c, 2, 69, 91
4, 1820816, Note_off_c, 2, 69, 64
4, 1820820, Note_on_c, 2, 67, 101
4, 1820876, Note_off_c, 2, 67, 64
4, 1820940, Note_on_c, 2, 67, 101
4, 1820996, Note_off_c, 2, 67, 64
4, 1821000, Note_on_c, 2, 69, 81
4, 1821056, Note_off_c, 2, 69, 64
4, 1821060, Note_on_c, 2, 67, 95
4, 1821116, Note_off_c, 2, 67, 64
4, 1821120, Note_on_c, 2, 69, 88
4, 1821176, Note_off_c, 2, 69, 64
4, 1821180, Note_on_c, 2, 67, 98
4, 1821236, Note_off_c, 2, 67, 64
4, 1821240, Note_on_c, 2, 69, 89
4, 1821296, Note_off_c, 2, 69, 64
4, 1821300, Note_on_c, 2, 67, 100
4, 1821356, Note_off_c, 2, 67, 64
4, 1821420, Note_on_c, 2, 67, 106
4, 1821476, Note_off_c, 2, 67, 64
4, 1821480, Note_on_c, 2, 69, 91
4, 1821536, Note_off_c, 2, 69, 64
4, 1821540, Note_on_c, 2, 67, 100
4, 1821596, Note_off_c, 2, 67, 64
4, 1821600, Note_on_c, 2, 69, 90
4, 1821656, Note_off_c, 2, 69, 64
4, 1821660, Note_on_c, 2, 67, 97
4, 1821716, Note_off_c, 2, 67, 64
4, 1821720, Note_on_c, 2, 69, 89
4, 1821776, Note_off_c, 2, 69, 64
4, 1821780, Note_on_c, 2, 67, 100
4, 1821836, Note_off_c, 2, 67, 64
4, 1821900, Note_on_c, 2, 67, 107
4, 1821956, Note_off_c, 2, 67, 64
4, 1821960, Note_on_c, 2, 69, 91
4, 1822016, Note_off_c, 2, 69, 64
4, 1822020, Note_on_c, 2, 67, 100
4, 1822076, Note_off_c, 2, 67, 64
4, 1822080, Note_on_c, 2, 69, 91
4, 1822136, Note_off_c, 2, 69, 64
4, 1822140, Note_on_c, 2, 67, 93
4, 1822196, Note_off_c, 2, 67, 64
4, 1822200, Note_on_c, 2, 69, 89
4, 1822256, Note_off_c, 2, 69, 64
4, 1822260, Note_on_c, 2, 67, 102
4, 1822316, Note_off_c, 2, 67, 64
4, 1822380, Note_on_c, 2, 67, 107
4, 1822436, Note_off_c, 2, 67, 64
4, 1822440, Note_on_c, 2, 69, 88
4, 1822496, Note_off_c, 2, 69, 64
4, 1822500, Note_on_c, 2, 67, 96
4, 1822556, Note_off_c, 2, 67, 64
4, 1822560, Note_on_c, 2, 69, 91
4, 1822616, Note_off_c, 2, 69, 64
4, 1822620, Note_on_c, 2, 67, 93
4, 1822676, Note_off_c, 2, 67, 64
4, 1822680, Note_on_c, 2, 69, 93
4, 1822736, Note_off_c, 2, 69, 64
4, 1822740, Note_on_c, 2, 67, 109
4, 1822796, Note_off_c, 2, 67, 64
4, 1822860, Note_on_c, 2, 67, 106
4, 1822916, Note_off_c, 2, 67, 64
4, 1822920, Note_on_c, 2, 69, 86
4, 1822976, Note_off_c, 2, 69, 64
4, 1822980, Note_on_c, 2, 67, 100
4, 1823036, Note_off_c, 2, 67, 64
4, 1823040, Note_on_c, 2, 69, 86
4, 1823096, Note_off_c, 2, 69, 64
4, 1823100, Note_on_c, 2, 67, 100
4, 1823156, Note_off_c, 2, 67, 64
4, 1823160, Note_on_c, 2, 69, 86
4, 1823216, Note_off_c, 2, 69, 64
4, 1823220, Note_on_c, 2, 67, 98
4, 1823276, Note_off_c, 2, 67, 64
4, 1823340, Note_on_c, 2, 67, 101
4, 1823396, Note_off_c, 2, 67, 64
4, 1823400, Note_on_c, 2, 69, 82
4, 1823456, Note_off_c, 2, 69, 64
4, 1823460, Note_on_c, 2, 67, 90
4, 1823516, Note_off_c, 2, 67, 64
4, 1823520, Note_on_c, 2, 69, 84
4, 1823576, Note_off_c, 2, 69, 64
4, 1823580, Note_on_c, 2, 67, 90
4, 1823636, Note_off_c, 2, 67, 64
4, 1823640, Note_on_c, 2, 69, 85
4, 1823696, Note_off_c, 2, 69, 64
4, 1823700, Note_on_c, 2, 67, 104
4, 1823756, Note_off_c, 2, 67, 64
4, 1823820, Note_on_c, 2, 66, 96
4, 1823876, Note_off_c, 2, 66, 64
4, 1823880, Note_on_c, 2, 67, 93
4, 1823936, Note_off_c, 2, 67, 64
4, 1823940, Note_on_c, 2, 66, 96
4, 1823996, Note_off_c, 2, 66, 64
4, 1824000, Note_on_c, 2, 67, 95
4, 1824056, Note_off_c, 2, 67, 64
4, 1824060, Note_on_c, 2, 66, 93
4, 1824116, Note_off_c, 2, 66, 64
4, 1824120, Note_on_c, 2, 67, 93
4, 1824176, Note_off_c, 2, 67, 64
4, 1824180, Note_on_c, 2, 66, 101
4, 1824236, Note_off_c, 2, 66, 64
4, 1824300, Note_on_c, 2, 67, 102
4, 1824356, Note_off_c, 2, 67, 64
4, 1824360, Note_on_c, 2, 69, 81
4, 1824416, Note_off_c, 2, 69, 64
4, 1824420, Note_on_c, 2, 67, 93
4, 1824476, Note_off_c, 2, 67, 64
4, 1824480, Note_on_c, 2, 69, 84
4, 1824536, Note_off_c, 2, 69, 64
4, 1824540, Note_on_c, 2, 67, 83
4, 1824596, Note_off_c, 2, 67, 64
4, 1824600, Note_on_c, 2, 69, 85
4, 1824656, Note_off_c, 2, 69, 64
4, 1824660, Note_on_c, 2, 67, 100
4, 1824716, Note_off_c, 2, 67, 64
4, 1824780, Note_on_c, 2, 67, 101
4, 1824836, Note_off_c, 2, 67, 64
4, 1824840, Note_on_c, 2, 69, 82
4, 1824896, Note_off_c, 2, 69, 64
4, 1824900, Note_on_c, 2, 67, 93
4, 1824956, Note_off_c, 2, 67, 64
4, 1824960, Note_on_c, 2, 69, 88
4, 1825016, Note_off_c, 2, 69, 64
4, 1825020, Note_on_c, 2, 67, 88
4, 1825076, Note_off_c, 2, 67, 64
4, 1825080, Note_on_c, 2, 69, 90
4, 1825136, Note_off_c, 2, 69, 64
4, 1825140, Note_on_c, 2, 67, 100
4, 1825196, Note_off_c, 2, 67, 64
4, 1825260, Note_on_c, 2, 67, 98
4, 1825316, Note_off_c, 2, 67, 64
4, 1825320, Note_on_c, 2, 69, 85
4, 1825376, Note_off_c, 2, 69, 64
4, 1825380, Note_on_c, 2, 67, 92
4, 1825436, Note_off_c, 2, 67, 64
4, 1825440, Note_on_c, 2, 69, 92
4, 1825496, Note_off_c, 2, 69, 64
4, 1825500, Note_on_c, 2, 67, 86
4, 1825556, Note_off_c, 2, 67, 64
4, 1825560, Note_on_c, 2, 69, 88
4, 1825616, Note_off_c, 2, 69, 64
4, 1825620, Note_on_c, 2, 67, 97
4, 1825676, Note_off_c, 2, 67, 64
4, 1831500, Note_on_c, 2, 54, 104
4, 1831556, Note_off_c, 2, 54, 64
4, 1831560, Note_on_c, 2, 55, 86
4, 1831616, Note_off_c, 2, 55, 64
4, 1831620, Note_on_c, 2, 54, 86
4, 1831676, Note_off_c, 2, 54, 64
4, 1831680, Note_on_c, 2, 55, 86
4, 1831736, Note_off_c, 2, 55, 64
4, 1831740, Note_on_c, 2, 54, 82
4, 1831796, Note_off_c, 2, 54, 64
4, 1831800, Note_on_c, 2, 55, 84
4, 1831856, Note_off_c, 2, 55, 64
4, 1831860, Note_on_c, 2, 54, 89
4, 1831916, Note_off_c, 2, 54, 64
4, 1831980, Note_on_c, 2, 54, 93
4, 1832036, Note_off_c, 2, 54, 64
4, 1832040, Note_on_c, 2, 55, 83
4, 1832096, Note_off_c, 2, 55, 64
4, 1832100, Note_on_c, 2, 54, 81
4, 1832156, Note_off_c, 2, 54, 64
4, 1832160, Note_on_c, 2, 55, 83
4, 1832216, Note_off_c, 2, 55, 64
4, 1832220, Note_on_c, 2, 54, 88
4, 1832276, Note_off_c, 2, 54, 64
4, 1832280, Note_on_c, 2, 55, 89
4, 1832336, Note_off_c, 2, 55, 64
4, 1832340, Note_on_c, 2, 54, 90
4, 1832396, Note_off_c, 2, 54, 64
4, 1832460, Note_on_c, 2, 54, 104
4, 1832516, Note_off_c, 2, 54, 64
4, 1832520, Note_on_c, 2, 55, 83
4, 1832576, Note_off_c, 2, 55, 64
4, 1832580, Note_on_c, 2, 54, 92
4, 1832636, Note_off_c, 2, 54, 64
4, 1832640, Note_on_c, 2, 55, 86
4, 1832696, Note_off_c, 2, 55, 64
4, 1832700, Note_on_c, 2, 54, 88
4, 1832756, Note_off_c, 2, 54, 64
4, 1832760, Note_on_c, 2, 55, 84
4, 1832816, Note_off_c, 2, 55, 64
4, 1832820, Note_on_c, 2, 54, 93
4, 1832876, Note_off_c, 2, 54, 64
4, 1832940, Note_on_c, 2, 54, 106
4, 1832996, Note_off_c, 2, 54, 64
4, 1833000, Note_on_c, 2, 55, 82
4, 1833056, Note_off_c, 2, 55, 64
4, 1833060, Note_on_c, 2, 54, 89
4, 1833116, Note_off_c, 2, 54, 64
4, 1833120, Note_on_c, 2, 55, 85
4, 1833176, Note_off_c, 2, 55, 64
4, 1833180, Note_on_c, 2, 54, 88
4, 1833236, Note_off_c, 2, 54, 64
4, 1833240, Note_on_c, 2, 55, 81
4, 1833296, Note_off_c, 2, 55, 64
4, 1833300, Note_on_c, 2, 54, 99
4, 1833356, Note_off_c, 2, 54, 64
4, 1833420, Note_on_c, 2, 54, 96
4, 1833476, Note_off_c, 2, 54, 64
4, 1833480, Note_on_c, 2, 55, 82
4, 1833536, Note_off_c, 2, 55, 64
4, 1833540, Note_on_c, 2, 54, 88
4, 1833596, Note_off_c, 2, 54, 64
4, 1833600, Note_on_c, 2, 55, 83
4, 1833656, Note_off_c, 2, 55, 64
4, 1833660, Note_on_c, 2, 54, 85
4, 1833716, Note_off_c, 2, 54, 64
4, 1833720, Note_on_c, 2, 55, 88
4, 1833776, Note_off_c, 2, 55, 64
4, 1833780, Note_on_c, 2, 54, 92
4, 1833836, Note_off_c, 2, 54, 64
4, 1833900, Note_on_c, 2, 54, 106
4, 1833956, Note_off_c, 2, 54, 64
4, 1833960, Note_on_c, 2, 55, 82
4, 1834016, Note_off_c, 2, 55, 64
4, 1834020, Note_on_c, 2, 54, 94
4, 1834076, Note_off_c, 2, 54, 64
4, 1834080, Note_on_c, 2, 55, 91
4, 1834136, Note_off_c, 2, 55, 64
4, 1834140, Note_on_c, 2, 54, 90
4, 1834196, Note_off_c, 2, 54, 64
4, 1834200, Note_on_c, 2, 55, 90
4, 1834256, Note_off_c, 2, 55, 64
4, 1834260, Note_on_c, 2, 54, 101
4, 1834316, Note_off_c, 2, 54, 64
4, 1834380, Note_on_c, 2, 54, 104
4, 1834436, Note_off_c, 2, 54, 64
4, 1834440, Note_on_c, 2, 55, 88
4, 1834496, Note_off_c, 2, 55, 64
4, 1834500, Note_on_c, 2, 54, 93
4, 1834556, Note_off_c, 2, 54, 64
4, 1834560, Note_on_c, 2, 55, 88
4, 1834616, Note_off_c, 2, 55, 64
4, 1834620, Note_on_c, 2, 54, 94
4, 1834676, Note_off_c, 2, 54, 64
4, 1834680, Note_on_c, 2, 55, 89
4, 1834736, Note_off_c, 2, 55, 64
4, 1834740, Note_on_c, 2, 54, 97
4, 1834796, Note_off_c, 2, 54, 64
4, 1834860, Note_on_c, 2, 54, 106
4, 1834916, Note_off_c, 2, 54, 64
4, 1834920, Note_on_c, 2, 55, 89
4, 1834976, Note_off_c, 2, 55, 64
4, 1834980, Note_on_c, 2, 54, 93
4, 1835036, Note_off_c, 2, 54, 64
4, 1835040, Note_on_c, 2, 55, 86
4, 1835096, Note_off_c, 2, 55, 64
4, 1835100, Note_on_c, 2, 54, 89
4, 1835156, Note_off_c, 2, 54, 64
4, 1835160, Note_on_c, 2, 55, 86
4, 1835216, Note_off_c, 2, 55, 64
4, 1835220, Note_on_c, 2, 54, 93
4, 1835276, Note_off_c, 2, 54, 64
4, 1835340, Note_on_c, 2, 52, 102
4, 1835396, Note_off_c, 2, 52, 64
4, 1835400, Note_on_c, 2, 54, 96
4, 1835456, Note_off_c, 2, 54, 64
4, 1835460, Note_on_c, 2, 52, 95
4, 1835516, Note_off_c, 2, 52, 64
4, 1835520, Note_on_c, 2, 54, 93
4, 1835576, Note_off_c, 2, 54, 64
4, 1835580, Note_on_c, 2, 52, 90
4, 1835636, Note_off_c, 2, 52, 64
4, 1835640, Note_on_c, 2, 54, 90
4, 1835696, Note_off_c, 2, 54, 64
4, 1835700, Note_on_c, 2, 52, 91
4, 1835756, Note_off_c, 2, 52, 64
4, 1843020, Note_on_c, 2, 64, 97
4, 1843076, Note_off_c, 2, 64, 64
4, 1843080, Note_on_c, 2, 66, 90
4, 1843136, Note_off_c, 2, 66, 64
4, 1843140, Note_on_c, 2, 64, 101
4, 1843196, Note_off_c, 2, 64, 64
4, 1843200, Note_on_c, 2, 66, 99
4, 1843256, Note_off_c, 2, 66, 64
4, 1843260, Note_on_c, 2, 64, 98
4, 1843316, Note_off_c, 2, 64, 64
4, 1843320, Note_on_c, 2, 66, 92
4, 1843376, Note_off_c, 2, 66, 64
4, 1843380, Note_on_c, 2, 64, 93
4, 1843436, Note_off_c, 2, 64, 64
4, 1843500, Note_on_c, 2, 64, 104
4, 1843556, Note_off_c, 2, 64, 64
4, 1843560, Note_on_c, 2, 66, 89
4, 1843616, Note_off_c, 2, 66, 64
4, 1843620, Note_on_c, 2, 64, 101
4, 1843676, Note_off_c, 2, 64, 64
4, 1843680, Note_on_c, 2, 66, 94
4, 1843736, Note_off_c, 2, 66, 64
4, 1843740, Note_on_c, 2, 64, 97
4, 1843796, Note_off_c, 2, 64, 64
4, 1843800, Note_on_c, 2, 66, 96
4, 1843856, Note_off_c, 2, 66, 64
4, 1843860, Note_on_c, 2, 64, 97
4, 1843916, Note_off_c, 2, 64, 64
4, 1843980, Note_on_c, 2, 64, 102
4, 1844036, Note_off_c, 2, 64, 64
4, 1844040, Note_on_c, 2, 66, 88
4, 1844096, Note_off_c, 2, 66, 64
4, 1844100, Note_on_c, 2, 64, 102
4, 1844156, Note_off_c, 2, 64, 64
4, 1844160, Note_on_c, 2, 66, 93
4, 1844216, Note_off_c, 2, 66, 64
4, 1844220, Note_on_c, 2, 64, 96
4, 1844276, Note_off_c, 2, 64, 64
4, 1844280, Note_on_c, 2, 66, 92
4, 1844336, Note_off_c, 2, 66, 64
4, 1844340, Note_on_c, 2, 64, 101
4, 1844396, Note_off_c, 2, 64, 64
4, 1844460, Note_on_c, 2, 64, 106
4, 1844516, Note_off_c, 2, 64, 64
4, 1844520, Note_on_c, 2, 66, 92
4, 1844576, Note_off_c, 2, 66, 64
4, 1844580, Note_on_c, 2, 64, 101
4, 1844636, Note_off_c, 2, 64, 64
4, 1844640, Note_on_c, 2, 66, 96
4, 1844696, Note_off_c, 2, 66, 64
4, 1844700, Note_on_c, 2, 64, 98
4, 1844756, Note_off_c, 2, 64, 64
4, 1844760, Note_on_c, 2, 66, 96
4, 1844816, Note_off_c, 2, 66, 64
4, 1844820, Note_on_c, 2, 64, 97
4, 1844876, Note_off_c, 2, 64, 64
4, 1844940, Note_on_c, 2, 64, 107
4, 1844996, Note_off_c, 2, 64, 64
4, 1845000, Note_on_c, 2, 66, 90
4, 1845056, Note_off_c, 2, 66, 64
4, 1845060, Note_on_c, 2, 64, 98
4, 1845116, Note_off_c, 2, 64, 64
4, 1845120, Note_on_c, 2, 66, 96
4, 1845176, Note_off_c, 2, 66, 64
4, 1845180, Note_on_c, 2, 64, 97
4, 1845236, Note_off_c, 2, 64, 64
4, 1845240, Note_on_c, 2, 66, 94
4, 1845296, Note_off_c, 2, 66, 64
4, 1845300, Note_on_c, 2, 64, 96
4, 1845356, Note_off_c, 2, 64, 64
4, 1845420, Note_on_c, 2, 64, 104
4, 1845476, Note_off_c, 2, 64, 64
4, 1845480, Note_on_c, 2, 66, 93
4, 1845536, Note_off_c, 2, 66, 64
4, 1845540, Note_on_c, 2, 64, 98
4, 1845596, Note_off_c, 2, 64, 64
4, 1845600, Note_on_c, 2, 66, 96
4, 1845656, Note_off_c, 2, 66, 64
4, 1845660, Note_on_c, 2, 64, 97
4, 1845716, Note_off_c, 2, 64, 64
4, 1845720, Note_on_c, 2, 66, 97
4, 1845776, Note_off_c, 2, 66, 64
4, 1845780, Note_on_c, 2, 64, 102
4, 1845836, Note_off_c, 2, 64, 64
4, 1845900, Note_on_c, 2, 64, 101
4, 1845956, Note_off_c, 2, 64, 64
4, 1845960, Note_on_c, 2, 66, 96
4, 1846016, Note_off_c, 2, 66, 64
4, 1846020, Note_on_c, 2, 64, 113
4, 1846076, Note_off_c, 2, 64, 64
4, 1846080, Note_on_c, 2, 66, 96
4, 1846136, Note_off_c, 2, 66, 64
4, 1846140, Note_on_c, 2, 64, 96
4, 1846196, Note_off_c, 2, 64, 64
4, 1846200, Note_on_c, 2, 66, 93
4, 1846256, Note_off_c, 2, 66, 64
4, 1846260, Note_on_c, 2, 64, 101
4, 1846316, Note_off_c, 2, 64, 64
4, 1846380, Note_on_c, 2, 64, 107
4, 1846436, Note_off_c, 2, 64, 64
4, 1846440, Note_on_c, 2, 66, 93
4, 1846496, Note_off_c, 2, 66, 64
4, 1846500, Note_on_c, 2, 64, 101
4, 1846556, Note_off_c, 2, 64, 64
4, 1846560, Note_on_c, 2, 66, 90
4, 1846616, Note_off_c, 2, 66, 64
4, 1846620, Note_on_c, 2, 64, 101
4, 1846676, Note_off_c, 2, 64, 64
4, 1846680, Note_on_c, 2, 66, 94
4, 1846736, Note_off_c, 2, 66, 64
4, 1846740, Note_on_c, 2, 64, 104
4, 1846796, Note_off_c, 2, 64, 64
4, 1846860, Note_on_c, 2, 63, 99
4, 1846916, Note_off_c, 2, 63, 64
4, 1846920, Note_on_c, 2, 64, 96
4, 1846976, Note_off_c, 2, 64, 64
4, 1846980, Note_on_c, 2, 63, 90
4, 1847036, Note_off_c, 2, 63, 64
4, 1847040, Note_on_c, 2, 64, 102
4, 1847096, Note_off_c, 2, 64, 64
4, 1847100, Note_on_c, 2, 63, 99
4, 1847156, Note_off_c, 2, 63, 64
4, 1847160, Note_on_c, 2, 64, 102
4, 1847216, Note_off_c, 2, 64, 64
4, 1847220, Note_on_c, 2, 63, 106
4, 1847276, Note_off_c, 2, 63, 64
4, 1848780, Note_on_c, 2, 67, 95
4, 1848836, Note_off_c, 2, 67, 64
4, 1848840, Note_on_c, 2, 69, 84
4, 1848896, Note_off_c, 2, 69, 64
4, 1848900, Note_on_c, 2, 67, 95
4, 1848956, Note_off_c, 2, 67, 64
4, 1848960, Note_on_c, 2, 69, 86
4, 1849016, Note_off_c, 2, 69, 64
4, 1849020, Note_on_c, 2, 67, 91
4, 1849076, Note_off_c, 2, 67, 64
4, 1849080, Note_on_c, 2, 69, 86
4, 1849136, Note_off_c, 2, 69, 64
4, 1849140, Note_on_c, 2, 67, 90
4, 1849196, Note_off_c, 2, 67, 64
4, 1849260, Note_on_c, 2, 67, 98
4, 1849316, Note_off_c, 2, 67, 64
4, 1849320, Note_on_c, 2, 69, 84
4, 1849376, Note_off_c, 2, 69, 64
4, 1849380, Note_on_c, 2, 67, 92
4, 1849436, Note_off_c, 2, 67, 64
4, 1849440, Note_on_c, 2, 69, 83
4, 1849496, Note_off_c, 2, 69, 64
4, 1849500, Note_on_c, 2, 67, 89
4, 1849556, Note_off_c, 2, 67, 64
4, 1849560, Note_on_c, 2, 69, 84
4, 1849616, Note_off_c, 2, 69, 64
4, 1849620, Note_on_c, 2, 67, 95
4, 1849676, Note_off_c, 2, 67, 64
4, 1849740, Note_on_c, 2, 67, 102
4, 1849796, Note_off_c, 2, 67, 64
4, 1849800, Note_on_c, 2, 69, 82
4, 1849856, Note_off_c, 2, 69, 64
4, 1849860, Note_on_c, 2, 67, 92
4, 1849916, Note_off_c, 2, 67, 64
4, 1849920, Note_on_c, 2, 69, 88
4, 1849976, Note_off_c, 2, 69, 64
4, 1849980, Note_on_c, 2, 67, 88
4, 1850036, Note_off_c, 2, 67, 64
4, 1850040, Note_on_c, 2, 69, 88
4, 1850096, Note_off_c, 2, 69, 64
4, 1850100, Note_on_c, 2, 67, 89
4, 1850156, Note_off_c, 2, 67, 64
4, 1850220, Note_on_c, 2, 67, 107
4, 1850276, Note_off_c, 2, 67, 64
4, 1850280, Note_on_c, 2, 69, 78
4, 1850336, Note_off_c, 2, 69, 64
4, 1850340, Note_on_c, 2, 67, 88
4, 1850396, Note_off_c, 2, 67, 64
4, 1850400, Note_on_c, 2, 69, 91
4, 1850456, Note_off_c, 2, 69, 64
4, 1850460, Note_on_c, 2, 67, 90
4, 1850516, Note_off_c, 2, 67, 64
4, 1850520, Note_on_c, 2, 69, 89
4, 1850576, Note_off_c, 2, 69, 64
4, 1850580, Note_on_c, 2, 67, 93
4, 1850636, Note_off_c, 2, 67, 64
4, 1850700, Note_on_c, 2, 67, 109
4, 1850756, Note_off_c, 2, 67, 64
4, 1850760, Note_on_c, 2, 69, 91
4, 1850816, Note_off_c, 2, 69, 64
4, 1850820, Note_on_c, 2, 67, 98
4, 1850876, Note_off_c, 2, 67, 64
4, 1850880, Note_on_c, 2, 69, 85
4, 1850936, Note_off_c, 2, 69, 64
4, 1850940, Note_on_c, 2, 67, 85
4, 1850996, Note_off_c, 2, 67, 64
4, 1851000, Note_on_c, 2, 69, 88
4, 1851056, Note_off_c, 2, 69, 64
4, 1851060, Note_on_c, 2, 67, 89
4, 1851116, Note_off_c, 2, 67, 64
4, 1851180, Note_on_c, 2, 67, 106
4, 1851236, Note_off_c, 2, 67, 64
4, 1851240, Note_on_c, 2, 69, 88
4, 1851296, Note_off_c, 2, 69, 64
4, 1851300, Note_on_c, 2, 67, 92
4, 1851356, Note_off_c, 2, 67, 64
4, 1851360, Note_on_c, 2, 69, 86
4, 1851416, Note_off_c, 2, 69, 64
4, 1851420, Note_on_c, 2, 67, 88
4, 1851476, Note_off_c, 2, 67, 64
4, 1851480, Note_on_c, 2, 69, 85
4, 1851536, Note_off_c, 2, 69, 64
4, 1851540, Note_on_c, 2, 67, 97
4, 1851596, Note_off_c, 2, 67, 64
4, 1855980, Note_on_c, 2, 60, 104
4, 1856036, Note_off_c, 2, 60, 64
4, 1856040, Note_on_c, 2, 62, 88
4, 1856096, Note_off_c, 2, 62, 64
4, 1856100, Note_on_c, 2, 60, 98
4, 1856156, Note_off_c, 2, 60, 64
4, 1856160, Note_on_c, 2, 62, 98
4, 1856216, Note_off_c, 2, 62, 64
4, 1856220, Note_on_c, 2, 60, 100
4, 1856276, Note_off_c, 2, 60, 64
4, 1856280, Note_on_c, 2, 62, 92
4, 1856336, Note_off_c, 2, 62, 64
4, 1856340, Note_on_c, 2, 60, 102
4, 1856396, Note_off_c, 2, 60, 64
4, 1856460, Note_on_c, 2, 59, 91
4, 1856516, Note_off_c, 2, 59, 64
4, 1856520, Note_on_c, 2, 60, 67
4, 1856576, Note_off_c, 2, 60, 64
4, 1856580, Note_on_c, 2, 59, 93
4, 1856636, Note_off_c, 2, 59, 64
4, 1856640, Note_on_c, 2, 60, 100
4, 1856696, Note_off_c, 2, 60, 64
4, 1856700, Note_on_c, 2, 59, 96
4, 1856756, Note_off_c, 2, 59, 64
4, 1856760, Note_on_c, 2, 60, 93
4, 1856816, Note_off_c, 2, 60, 64
4, 1856820, Note_on_c, 2, 59, 100
4, 1856876, Note_off_c, 2, 59, 64
4, 1856940, Note_on_c, 2, 58, 99
4, 1856996, Note_off_c, 2, 58, 64
4, 1857000, Note_on_c, 2, 60, 96
4, 1857056, Note_off_c, 2, 60, 64
4, 1857060, Note_on_c, 2, 58, 97
4, 1857116, Note_off_c, 2, 58, 64
4, 1857120, Note_on_c, 2, 60, 101
4, 1857176, Note_off_c, 2, 60, 64
4, 1857180, Note_on_c, 2, 58, 97
4, 1857236, Note_off_c, 2, 58, 64
4, 1857240, Note_on_c, 2, 60, 95
4, 1857296, Note_off_c, 2, 60, 64
4, 1857300, Note_on_c, 2, 58, 101
4, 1857356, Note_off_c, 2, 58, 64
4, 1909440, Note_on_c, 2, 50, 106
4, 1909676, Note_off_c, 2, 50, 64
4, 1909680, Note_on_c, 2, 55, 102
4, 1909916, Note_off_c, 2, 55, 64
4, 1909920, Note_on_c, 2, 57, 106
4, 1910156, Note_off_c, 2, 57, 64
4, 1910160, Note_on_c, 2, 59, 98
4, 1910396, Note_off_c, 2, 59, 64
4, 1910400, Note_on_c, 2, 60, 107
4, 1910636, Note_off_c, 2, 60, 64
4, 1910640, Note_on_c, 2, 62, 101
4, 1910876, Note_off_c, 2, 62, 64
4, 1910880, Note_on_c, 2, 60, 95
4, 1910996, Note_off_c, 2, 60, 64
4, 1911000, Note_on_c, 2, 59, 95
4, 1911116, Note_off_c, 2, 59, 64
4, 1911120, Note_on_c, 2, 57, 96
4, 1911356, Note_off_c, 2, 57, 64
4, 1911360, Note_on_c, 2, 55, 91
4, 1911476, Note_off_c, 2, 55, 64
4, 1911480, Note_on_c, 2, 57, 95
4, 1911596, Note_off_c, 2, 57, 64
4, 1911600, Note_on_c, 2, 59, 91
4, 1911836, Note_off_c, 2, 59, 64
4, 1911840, Note_on_c, 2, 57, 104
4, 1912076, Note_off_c, 2, 57, 64
4, 1912080, Note_on_c, 2, 55, 98
4, 1913036, Note_off_c, 2, 55, 64
4, 1913040, Note_on_c, 2, 54, 101
4, 1913100, Note_off_c, 2, 54, 64
4, 1913100, Note_on_c, 2, 55, 98
4, 1913160, Note_off_c, 2, 55, 64
4, 1913160, Note_on_c, 2, 54, 93
4, 1913276, Note_off_c, 2, 54, 64
4, 1913280, Note_on_c, 2, 52, 100
4, 1913396, Note_off_c, 2, 52, 64
4, 1913400, Note_on_c, 2, 54, 108
4, 1913516, Note_off_c, 2, 54, 64
4, 1913520, Note_on_c, 2, 55, 100
4, 1914236, Note_off_c, 2, 55, 64
4, 1914240, Note_on_c, 2, 62, 113
4, 1914476, Note_off_c, 2, 62, 64
4, 1914480, Note_on_c, 2, 60, 107
4, 1914716, Note_off_c, 2, 60, 64
4, 1914720, Note_on_c, 2, 59, 115
4, 1914956, Note_off_c, 2, 59, 64
4, 1914960, Note_on_c, 2, 57, 104
4, 1915196, Note_off_c, 2, 57, 64
4, 1915200, Note_on_c, 2, 55, 98
4, 1915436, Note_off_c, 2, 55, 64
4, 1915440, Note_on_c, 2, 55, 110
4, 1915500, Note_off_c, 2, 55, 64
4, 1915500, Note_on_c, 2, 54, 110
4, 1915560, Note_off_c, 2, 54, 64
4, 1915560, Note_on_c, 2, 55, 110
4, 1915620, Note_off_c, 2, 55, 64
4, 1915620, Note_on_c, 2, 54, 110
4, 1915680, Note_off_c, 2, 54, 64
4, 1915680, Note_on_c, 2, 55, 110
4, 1915740, Note_off_c, 2, 55, 64
4, 1915740, Note_on_c, 2, 54, 110
4, 1915800, Note_off_c, 2, 54, 64
4, 1915800, Note_on_c, 2, 55, 110
4, 1915860, Note_off_c, 2, 55, 64
4, 1915860, Note_on_c, 2, 54, 110
4, 1915920, Note_off_c, 2, 54, 64
4, 1915920, Note_on_c, 2, 55, 110
4, 1915980, Note_off_c, 2, 55, 64
4, 1915980, Note_on_c, 2, 54, 110
4, 1916040, Note_off_c, 2, 54, 64
4, 1916040, Note_on_c, 2, 52, 110
4, 1916100, Note_off_c, 2, 52, 64
4, 1916100, Note_on_c, 2, 54, 110
4, 1916160, Note_off_c, 2, 54, 64
4, 1916160, Note_on_c, 2, 50, 107
4, 1916880, Note_off_c, 2, 50, 64
4, 1919040, Note_on_c, 2, 74, 106
4, 1919520, Note_off_c, 2, 74, 64
4, 1919520, Note_on_c, 2, 72, 106
4, 1919760, Note_off_c, 2, 72, 64
4, 1919760, Note_on_c, 2, 71, 106
4, 1920240, Note_off_c, 2, 71, 64
4, 1920240, Note_on_c, 2, 69, 106
4, 1920720, Note_off_c, 2, 69, 64
4, 1921200, Note_on_c, 2, 54, 102
4, 1921436, Note_off_c, 2, 54, 64
4, 1921440, Note_on_c, 2, 55, 102
4, 1921676, Note_off_c, 2, 55, 64
4, 1921680, Note_on_c, 2, 57, 102
4, 1921916, Note_off_c, 2, 57, 64
4, 1921920, Note_on_c, 2, 54, 106
4, 1922156, Note_off_c, 2, 54, 64
4, 1922160, Note_on_c, 2, 55, 113
4, 1922396, Note_off_c, 2, 55, 64
4, 1922400, Note_on_c, 2, 54, 117
4, 1922636, Note_off_c, 2, 54, 64
4, 1922640, Note_on_c, 2, 52, 111
4, 1922876, Note_off_c, 2, 52, 64
4, 1922880, Note_on_c, 2, 50, 111
4, 1923116, Note_off_c, 2, 50, 64
4, 1923120, Note_on_c, 2, 49, 117
4, 1923356, Note_off_c, 2, 49, 64
4, 1923360, Note_on_c, 2, 50, 107
4, 1923596, Note_off_c, 2, 50, 64
4, 1923600, Note_on_c, 2, 52, 109
4, 1923836, Note_off_c, 2, 52, 64
4, 1923840, Note_on_c, 2, 49, 101
4, 1924076, Note_off_c, 2, 49, 64
4, 1924080, Note_on_c, 2, 50, 107
4, 1924560, Note_off_c, 2, 50, 64
4, 1924800, Note_on_c, 2, 50, 106
4, 1925036, Note_off_c, 2, 50, 64
4, 1925040, Note_on_c, 2, 55, 100
4, 1925276, Note_off_c, 2, 55, 64
4, 1925280, Note_on_c, 2, 57, 109
4, 1925516, Note_off_c, 2, 57, 64
4, 1925520, Note_on_c, 2, 59, 97
4, 1925756, Note_off_c, 2, 59, 64
4, 1925760, Note_on_c, 2, 60, 113
4, 1925996, Note_off_c, 2, 60, 64
4, 1926000, Note_on_c, 2, 62, 102
4, 1926236, Note_off_c, 2, 62, 64
4, 1926240, Note_on_c, 2, 60, 106
4, 1926356, Note_off_c, 2, 60, 64
4, 1926360, Note_on_c, 2, 59, 101
4, 1926476, Note_off_c, 2, 59, 64
4, 1926480, Note_on_c, 2, 57, 100
4, 1926716, Note_off_c, 2, 57, 64
4, 1926720, Note_on_c, 2, 55, 101
4, 1926836, Note_off_c, 2, 55, 64
4, 1926840, Note_on_c, 2, 57, 100
4, 1926956, Note_off_c, 2, 57, 64
4, 1926960, Note_on_c, 2, 59, 102
4, 1927196, Note_off_c, 2, 59, 64
4, 1927200, Note_on_c, 2, 57, 100
4, 1927436, Note_off_c, 2, 57, 64
4, 1927440, Note_on_c, 2, 55, 107
4, 1928396, Note_off_c, 2, 55, 64
4, 1928400, Note_on_c, 2, 54, 104
4, 1928400, Note_on_c, 2, 55, 100
4, 1928516, Note_off_c, 2, 54, 64
4, 1928516, Note_off_c, 2, 55, 64
4, 1928520, Note_on_c, 2, 54, 68
4, 1928636, Note_off_c, 2, 54, 64
4, 1928640, Note_on_c, 2, 52, 92
4, 1928756, Note_off_c, 2, 52, 64
4, 1928760, Note_on_c, 2, 54, 108
4, 1928876, Note_off_c, 2, 54, 64
4, 1928880, Note_on_c, 2, 55, 106
4, 1929596, Note_off_c, 2, 55, 64
4, 1929600, Note_on_c, 2, 62, 109
4, 1929836, Note_off_c, 2, 62, 64
4, 1929840, Note_on_c, 2, 60, 101
4, 1930076, Note_off_c, 2, 60, 64
4, 1930080, Note_on_c, 2, 59, 102
4, 1930316, Note_off_c, 2, 59, 64
4, 1930320, Note_on_c, 2, 57, 107
4, 1930556, Note_off_c, 2, 57, 64
4, 1930560, Note_on_c, 2, 55, 98
4, 1930800, Note_off_c, 2, 55, 64
4, 1930800, Note_on_c, 2, 55, 110
4, 1930860, Note_off_c, 2, 55, 64
4, 1930860, Note_on_c, 2, 54, 100
4, 1930920, Note_off_c, 2, 54, 64
4, 1930920, Note_on_c, 2, 55, 106
4, 1930980, Note_off_c, 2, 55, 64
4, 1930980, Note_on_c, 2, 54, 106
4, 1931040, Note_off_c, 2, 54, 64
4, 1931040, Note_on_c, 2, 55, 106
4, 1931100, Note_off_c, 2, 55, 64
4, 1931100, Note_on_c, 2, 54, 106
4, 1931160, Note_off_c, 2, 54, 64
4, 1931160, Note_on_c, 2, 55, 106
4, 1931220, Note_off_c, 2, 55, 64
4, 1931220, Note_on_c, 2, 54, 106
4, 1931280, Note_off_c, 2, 54, 64
4, 1931280, Note_on_c, 2, 55, 106
4, 1931340, Note_off_c, 2, 55, 64
4, 1931340, Note_on_c, 2, 54, 106
4, 1931400, Note_off_c, 2, 54, 64
4, 1931400, Note_on_c, 2, 52, 106
4, 1931460, Note_off_c, 2, 52, 64
4, 1931460, Note_on_c, 2, 54, 106
4, 1931520, Note_off_c, 2, 54, 64
4, 1931520, Note_on_c, 2, 50, 106
4, 1932240, Note_off_c, 2, 50, 64
4, 1934400, Note_on_c, 2, 74, 109
4, 1934880, Note_off_c, 2, 74, 64
4, 1934880, Note_on_c, 2, 72, 84
4, 1935116, Note_off_c, 2, 72, 64
4, 1935120, Note_on_c, 2, 71, 106
4, 1935600, Note_off_c, 2, 71, 64
4, 1935600, Note_on_c, 2, 69, 119
4, 1936080, Note_off_c, 2, 69, 64
4, 1936560, Note_on_c, 2, 54, 106
4, 1936796, Note_off_c, 2, 54, 64
4, 1936800, Note_on_c, 2, 55, 106
4, 1937036, Note_off_c, 2, 55, 64
4, 1937040, Note_on_c, 2, 57, 106
4, 1937276, Note_off_c, 2, 57, 64
4, 1937280, Note_on_c, 2, 54, 110
4, 1937516, Note_off_c, 2, 54, 64
4, 1937520, Note_on_c, 2, 55, 104
4, 1937756, Note_off_c, 2, 55, 64
4, 1937760, Note_on_c, 2, 54, 108
4, 1937996, Note_off_c, 2, 54, 64
4, 1938000, Note_on_c, 2, 52, 111
4, 1938236, Note_off_c, 2, 52, 64
4, 1938240, Note_on_c, 2, 50, 104
4, 1938476, Note_off_c, 2, 50, 64
4, 1938480, Note_on_c, 2, 49, 108
4, 1938716, Note_off_c, 2, 49, 64
4, 1938720, Note_on_c, 2, 50, 107
4, 1938956, Note_off_c, 2, 50, 64
4, 1938960, Note_on_c, 2, 52, 106
4, 1939196, Note_off_c, 2, 52, 64
4, 1939200, Note_on_c, 2, 49, 104
4, 1939436, Note_off_c, 2, 49, 64
4, 1939440, Note_on_c, 2, 50, 102
4, 1940156, Note_off_c, 2, 50, 64
4, 1940160, Note_on_c, 2, 66, 109
4, 1940396, Note_off_c, 2, 66, 64
4, 1940400, Note_on_c, 2, 62, 109
4, 1940636, Note_off_c, 2, 62, 64
4, 1940640, Note_on_c, 2, 66, 109
4, 1940876, Note_off_c, 2, 66, 64
4, 1940880, Note_on_c, 2, 62, 109
4, 1941116, Note_off_c, 2, 62, 64
4, 1941120, Note_on_c, 2, 66, 108
4, 1941356, Note_off_c, 2, 66, 64
4, 1941360, Note_on_c, 2, 67, 96
4, 1941596, Note_off_c, 2, 67, 64
4, 1941600, Note_on_c, 2, 62, 97
4, 1941836, Note_off_c, 2, 62, 64
4, 1941840, Note_on_c, 2, 62, 97
4, 1942076, Note_off_c, 2, 62, 64
4, 1942080, Note_on_c, 2, 67, 96
4, 1942316, Note_off_c, 2, 67, 64
4, 1942320, Note_on_c, 2, 64, 109
4, 1942560, Note_off_c, 2, 64, 64
4, 1943280, Note_on_c, 2, 66, 121
4, 1943756, Note_off_c, 2, 66, 64
4, 1943760, Note_on_c, 2, 66, 112
4, 1944236, Note_off_c, 2, 66, 64
4, 1944240, Note_on_c, 2, 67, 107
4, 1944716, Note_off_c, 2, 67, 64
4, 1944720, Note_on_c, 2, 67, 113
4, 1945196, Note_off_c, 2, 67, 64
4, 1945200, Note_on_c, 2, 66, 110
4, 1945436, Note_off_c, 2, 66, 64
4, 1945440, Note_on_c, 2, 67, 95
4, 1945676, Note_off_c, 2, 67, 64
4, 1945680, Note_on_c, 2, 66, 108
4, 1945916, Note_off_c, 2, 66, 64
4, 1945920, Note_on_c, 2, 64, 101
4, 1946156, Note_off_c, 2, 64, 64
4, 1946160, Note_on_c, 2, 63, 112
4, 1946396, Note_off_c, 2, 63, 64
4, 1946400, Note_on_c, 2, 64, 106
4, 1946516, Note_off_c, 2, 64, 64
4, 1946520, Note_on_c, 2, 66, 94
4, 1946636, Note_off_c, 2, 66, 64
4, 1946640, Note_on_c, 2, 59, 104
4, 1947356, Note_off_c, 2, 59, 64
4, 1947360, Note_on_c, 2, 57, 107
4, 1947476, Note_off_c, 2, 57, 64
4, 1947480, Note_on_c, 2, 59, 92
4, 1947596, Note_off_c, 2, 59, 64
4, 1947600, Note_on_c, 2, 55, 101
4, 1947836, Note_off_c, 2, 55, 64
4, 1947840, Note_on_c, 2, 57, 104
4, 1947956, Note_off_c, 2, 57, 64
4, 1947960, Note_on_c, 2, 59, 95
4, 1948076, Note_off_c, 2, 59, 64
4, 1948080, Note_on_c, 2, 60, 97
4, 1948316, Note_off_c, 2, 60, 64
4, 1948320, Note_on_c, 2, 62, 84
4, 1948556, Note_off_c, 2, 62, 64
4, 1948560, Note_on_c, 2, 64, 102
4, 1948796, Note_off_c, 2, 64, 64
4, 1948800, Note_on_c, 2, 66, 94
4, 1949036, Note_off_c, 2, 66, 64
4, 1949040, Note_on_c, 2, 67, 100
4, 1949276, Note_off_c, 2, 67, 64
4, 1949280, Note_on_c, 2, 66, 99
4, 1949396, Note_off_c, 2, 66, 64
4, 1949400, Note_on_c, 2, 64, 96
4, 1949516, Note_off_c, 2, 64, 64
4, 1949520, Note_on_c, 2, 62, 98
4, 1949760, Note_off_c, 2, 62, 64
4, 1950240, Note_on_c, 2, 69, 104
4, 1950480, Note_off_c, 2, 69, 64
4, 1950480, Note_on_c, 2, 64, 102
4, 1950720, Note_off_c, 2, 64, 64
4, 1950720, Note_on_c, 2, 62, 81
4, 1950840, Note_off_c, 2, 62, 64
4, 1950840, Note_on_c, 2, 64, 102
4, 1950960, Note_off_c, 2, 64, 64
4, 1950960, Note_on_c, 2, 66, 88
4, 1951196, Note_off_c, 2, 66, 64
4, 1951200, Note_on_c, 2, 67, 92
4, 1951676, Note_off_c, 2, 67, 64
4, 1951680, Note_on_c, 2, 66, 93
4, 1951916, Note_off_c, 2, 66, 64
4, 1951920, Note_on_c, 2, 62, 109
4, 1952396, Note_off_c, 2, 62, 64
4, 1952400, Note_on_c, 2, 62, 106
4, 1952876, Note_off_c, 2, 62, 64
4, 1952880, Note_on_c, 2, 64, 109
4, 1953356, Note_off_c, 2, 64, 64
4, 1953360, Note_on_c, 2, 64, 113
4, 1953836, Note_off_c, 2, 64, 64
4, 1953840, Note_on_c, 2, 62, 109
4, 1954076, Note_off_c, 2, 62, 64
4, 1954080, Note_on_c, 2, 64, 109
4, 1954316, Note_off_c, 2, 64, 64
4, 1954320, Note_on_c, 2, 62, 98
4, 1954556, Note_off_c, 2, 62, 64
4, 1954560, Note_on_c, 2, 60, 107
4, 1954796, Note_off_c, 2, 60, 64
4, 1954800, Note_on_c, 2, 59, 97
4, 1955036, Note_off_c, 2, 59, 64
4, 1955040, Note_on_c, 2, 57, 104
4, 1955276, Note_off_c, 2, 57, 64
4, 1955280, Note_on_c, 2, 55, 102
4, 1955516, Note_off_c, 2, 55, 64
4, 1955520, Note_on_c, 2, 66, 102
4, 1955756, Note_off_c, 2, 66, 64
4, 1955760, Note_on_c, 2, 62, 109
4, 1955996, Note_off_c, 2, 62, 64
4, 1956000, Note_on_c, 2, 66, 109
4, 1956236, Note_off_c, 2, 66, 64
4, 1956240, Note_on_c, 2, 62, 109
4, 1956476, Note_off_c, 2, 62, 64
4, 1956480, Note_on_c, 2, 66, 108
4, 1956716, Note_off_c, 2, 66, 64
4, 1956720, Note_on_c, 2, 67, 96
4, 1956956, Note_off_c, 2, 67, 64
4, 1956960, Note_on_c, 2, 62, 97
4, 1957196, Note_off_c, 2, 62, 64
4, 1957200, Note_on_c, 2, 62, 97
4, 1957436, Note_off_c, 2, 62, 64
4, 1957440, Note_on_c, 2, 67, 96
4, 1957676, Note_off_c, 2, 67, 64
4, 1957680, Note_on_c, 2, 64, 109
4, 1957920, Note_off_c, 2, 64, 64
4, 1958640, Note_on_c, 2, 66, 121
4, 1959116, Note_off_c, 2, 66, 64
4, 1959120, Note_on_c, 2, 66, 112
4, 1959596, Note_off_c, 2, 66, 64
4, 1959600, Note_on_c, 2, 67, 107
4, 1960076, Note_off_c, 2, 67, 64
4, 1960080, Note_on_c, 2, 67, 113
4, 1960556, Note_off_c, 2, 67, 64
4, 1960560, Note_on_c, 2, 66, 110
4, 1960796, Note_off_c, 2, 66, 64
4, 1960800, Note_on_c, 2, 67, 95
4, 1961036, Note_off_c, 2, 67, 64
4, 1961040, Note_on_c, 2, 66, 108
4, 1961276, Note_off_c, 2, 66, 64
4, 1961280, Note_on_c, 2, 64, 101
4, 1961516, Note_off_c, 2, 64, 64
4, 1961520, Note_on_c, 2, 63, 112
4, 1961756, Note_off_c, 2, 63, 64
4, 1961760, Note_on_c, 2, 64, 106
4, 1961876, Note_off_c, 2, 64, 64
4, 1961880, Note_on_c, 2, 66, 94
4, 1961996, Note_off_c, 2, 66, 64
4, 1962000, Note_on_c, 2, 59, 104
4, 1962716, Note_off_c, 2, 59, 64
4, 1962720, Note_on_c, 2, 57, 107
4, 1962836, Note_off_c, 2, 57, 64
4, 1962840, Note_on_c, 2, 59, 92
4, 1962956, Note_off_c, 2, 59, 64
4, 1962960, Note_on_c, 2, 55, 101
4, 1963196, Note_off_c, 2, 55, 64
4, 1963200, Note_on_c, 2, 57, 104
4, 1963316, Note_off_c, 2, 57, 64
4, 1963320, Note_on_c, 2, 59, 95
4, 1963436, Note_off_c, 2, 59, 64
4, 1963440, Note_on_c, 2, 60, 97
4, 1963676, Note_off_c, 2, 60, 64
4, 1963680, Note_on_c, 2, 62, 84
4, 1963916, Note_off_c, 2, 62, 64
4, 1963920, Note_on_c, 2, 64, 102
4, 1964156, Note_off_c, 2, 64, 64
4, 1964160, Note_on_c, 2, 66, 94
4, 1964396, Note_off_c, 2, 66, 64
4, 1964400, Note_on_c, 2, 67, 100
4, 1964636, Note_off_c, 2, 67, 64
4, 1964640, Note_on_c, 2, 66, 99
4, 1964756, Note_off_c, 2, 66, 64
4, 1964760, Note_on_c, 2, 64, 96
4, 1964876, Note_off_c, 2, 64, 64
4, 1964880, Note_on_c, 2, 62, 98
4, 1965120, Note_off_c, 2, 62, 64
4, 1965600, Note_on_c, 2, 69, 104
4, 1965840, Note_off_c, 2, 69, 64
4, 1965840, Note_on_c, 2, 64, 102
4, 1966080, Note_off_c, 2, 64, 64
4, 1966080, Note_on_c, 2, 62, 81
4, 1966200, Note_off_c, 2, 62, 64
4, 1966200, Note_on_c, 2, 64, 102
4, 1966320, Note_off_c, 2, 64, 64
4, 1966320, Note_on_c, 2, 66, 88
4, 1966556, Note_off_c, 2, 66, 64
4, 1966560, Note_on_c, 2, 67, 92
4, 1967036, Note_off_c, 2, 67, 64
4, 1967040, Note_on_c, 2, 66, 93
4, 1967276, Note_off_c, 2, 66, 64
4, 1967280, Note_on_c, 2, 62, 109
4, 1967756, Note_off_c, 2, 62, 64
4, 1967760, Note_on_c, 2, 62, 106
4, 1968236, Note_off_c, 2, 62, 64
4, 1968240, Note_on_c, 2, 64, 109
4, 1968716, Note_off_c, 2, 64, 64
4, 1968720, Note_on_c, 2, 64, 113
4, 1969196, Note_off_c, 2, 64, 64
4, 1969200, Note_on_c, 2, 62, 109
4, 1969436, Note_off_c, 2, 62, 64
4, 1969440, Note_on_c, 2, 64, 109
4, 1969676, Note_off_c, 2, 64, 64
4, 1969680, Note_on_c, 2, 62, 98
4, 1969916, Note_off_c, 2, 62, 64
4, 1969920, Note_on_c, 2, 60, 107
4, 1970156, Note_off_c, 2, 60, 64
4, 1970160, Note_on_c, 2, 59, 97
4, 1970396, Note_off_c, 2, 59, 64
4, 1970400, Note_on_c, 2, 57, 104
4, 1970636, Note_off_c, 2, 57, 64
4, 1970640, Note_on_c, 2, 55, 102
4, 1971600, Note_off_c, 2, 55, 64
4, 1973520, Note_on_c, 2, 59, 86
4, 1974476, Note_off_c, 2, 59, 64
4, 1974960, Note_on_c, 2, 57, 81
4, 1975916, Note_off_c, 2, 57, 64
4, 1976400, Note_on_c, 2, 55, 78
4, 1977356, Note_off_c, 2, 55, 64
4, 1977840, Note_on_c, 2, 54, 93
4, 1978796, Note_off_c, 2, 54, 64
4, 1979280, Note_on_c, 2, 50, 81
4, 1980236, Note_off_c, 2, 50, 64
4, 1980720, Note_on_c, 2, 52, 86
4, 1981440, Note_off_c, 2, 52, 64
4, 1981920, Note_on_c, 2, 60, 97
4, 1982400, Note_off_c, 2, 60, 64
4, 1982400, Note_on_c, 2, 59, 74
4, 1982516, Note_off_c, 2, 59, 64
4, 1982520, Note_on_c, 2, 57, 74
4, 1982636, Note_off_c, 2, 57, 64
4, 1982640, Note_on_c, 2, 55, 70
4, 1982756, Note_off_c, 2, 55, 64
4, 1982760, Note_on_c, 2, 54, 86
4, 1982876, Note_off_c, 2, 54, 64
4, 1982880, Note_on_c, 2, 52, 78
4, 1982996, Note_off_c, 2, 52, 64
4, 1983000, Note_on_c, 2, 54, 89
4, 1983116, Note_off_c, 2, 54, 64
4, 1983120, Note_on_c, 2, 55, 75
4, 1983356, Note_off_c, 2, 55, 64
4, 1983360, Note_on_c, 2, 57, 92
4, 1983596, Note_off_c, 2, 57, 64
4, 1983600, Note_on_c, 2, 59, 91
4, 1984560, Note_off_c, 2, 59, 64
4, 1985040, Note_on_c, 2, 59, 96
4, 1985996, Note_off_c, 2, 59, 64
4, 1986000, Note_on_c, 2, 57, 97
4, 1986480, Note_off_c, 2, 57, 64
4, 1987680, Note_on_c, 2, 59, 90
4, 1987920, Note_off_c, 2, 59, 64
4, 1987920, Note_on_c, 2, 64, 92
4, 1988640, Note_off_c, 2, 64, 64
4, 1988640, Note_on_c, 2, 62, 85
4, 1988880, Note_off_c, 2, 62, 64
4, 1988880, Note_on_c, 2, 61, 88
4, 1989116, Note_off_c, 2, 61, 64
4, 1989120, Note_on_c, 2, 62, 85
4, 1989356, Note_off_c, 2, 62, 64
4, 1989360, Note_on_c, 2, 64, 93
4, 1990316, Note_off_c, 2, 64, 64
4, 1990800, Note_on_c, 2, 57, 86
4, 1991756, Note_off_c, 2, 57, 64
4, 1992240, Note_on_c, 2, 59, 96
4, 1992720, Note_off_c, 2, 59, 64
4, 1995360, Note_on_c, 2, 57, 96
4, 1995600, Note_off_c, 2, 57, 64
4, 1995600, Note_on_c, 2, 62, 96
4, 1996080, Note_off_c, 2, 62, 64
4, 1996320, Note_on_c, 2, 64, 98
4, 1996560, Note_off_c, 2, 64, 64
4, 1996560, Note_on_c, 2, 66, 92
4, 1996620, Note_off_c, 2, 66, 64
4, 1996620, Note_on_c, 2, 64, 92
4, 1996680, Note_off_c, 2, 64, 64
4, 1996680, Note_on_c, 2, 66, 92
4, 1997400, Note_off_c, 2, 66, 64
4, 1997760, Note_on_c, 2, 60, 100
4, 1997996, Note_off_c, 2, 60, 64
4, 1998000, Note_on_c, 2, 62, 83
4, 1998956, Note_off_c, 2, 62, 64
4, 1999200, Note_on_c, 2, 64, 98
4, 1999436, Note_off_c, 2, 64, 64
4, 1999440, Note_on_c, 2, 67, 111
4, 1999920, Note_off_c, 2, 67, 64
4, 1999920, Note_on_c, 2, 66, 88
4, 1999980, Note_off_c, 2, 66, 64
4, 1999980, Note_on_c, 2, 67, 88
4, 2000040, Note_off_c, 2, 67, 64
4, 2000040, Note_on_c, 2, 66, 88
4, 2000160, Note_off_c, 2, 66, 64
4, 2000160, Note_on_c, 2, 64, 88
4, 2000396, Note_off_c, 2, 64, 64
4, 2000400, Note_on_c, 2, 63, 102
4, 2000636, Note_off_c, 2, 63, 64
4, 2000640, Note_on_c, 2, 64, 100
4, 2000876, Note_off_c, 2, 64, 64
4, 2000880, Note_on_c, 2, 66, 86
4, 2001836, Note_off_c, 2, 66, 64
4, 2002080, Note_on_c, 2, 57, 106
4, 2002320, Note_off_c, 2, 57, 64
4, 2002320, Note_on_c, 2, 55, 92
4, 2002380, Note_off_c, 2, 55, 64
4, 2002380, Note_on_c, 2, 57, 92
4, 2002440, Note_off_c, 2, 57, 64
4, 2002440, Note_on_c, 2, 55, 92
4, 2002560, Note_off_c, 2, 55, 64
4, 2002560, Note_on_c, 2, 54, 92
4, 2002796, Note_off_c, 2, 54, 64
4, 2002800, Note_on_c, 2, 55, 84
4, 2003280, Note_off_c, 2, 55, 64
4, 2003520, Note_on_c, 2, 57, 97
4, 2003760, Note_off_c, 2, 57, 64
4, 2003760, Note_on_c, 2, 55, 85
4, 2003820, Note_off_c, 2, 55, 64
4, 2003820, Note_on_c, 2, 57, 85
4, 2003880, Note_off_c, 2, 57, 64
4, 2003880, Note_on_c, 2, 55, 85
4, 2004000, Note_off_c, 2, 55, 64
4, 2004000, Note_on_c, 2, 54, 80
4, 2004236, Note_off_c, 2, 54, 64
4, 2004240, Note_on_c, 2, 55, 86
4, 2004476, Note_off_c, 2, 55, 64
4, 2004480, Note_on_c, 2, 59, 97
4, 2004720, Note_off_c, 2, 59, 64
4, 2005920, Note_on_c, 2, 51, 107
4, 2006160, Note_off_c, 2, 51, 64
4, 2006160, Note_on_c, 2, 52, 107
4, 2006640, Note_off_c, 2, 52, 64
4, 2008080, Note_on_c, 2, 52, 71
4, 2009036, Note_off_c, 2, 52, 64
4, 2009280, Note_on_c, 2, 54, 99
4, 2009516, Note_off_c, 2, 54, 64
4, 2009520, Note_on_c, 2, 52, 90
4, 2009636, Note_off_c, 2, 52, 64
4, 2009640, Note_on_c, 2, 50, 85
4, 2009756, Note_off_c, 2, 50, 64
4, 2009760, Note_on_c, 2, 52, 83
4, 2009876, Note_off_c, 2, 52, 64
4, 2009880, Note_on_c, 2, 54, 76
4, 2009996, Note_off_c, 2, 54, 64
4, 2010000, Note_on_c, 2, 55, 76
4, 2010116, Note_off_c, 2, 55, 64
4, 2010120, Note_on_c, 2, 54, 81
4, 2010236, Note_off_c, 2, 54, 64
4, 2010240, Note_on_c, 2, 55, 80
4, 2010716, Note_off_c, 2, 55, 64
4, 2010720, Note_on_c, 2, 52, 81
4, 2010956, Note_off_c, 2, 52, 64
4, 2010960, Note_on_c, 2, 57, 77
4, 2011196, Note_off_c, 2, 57, 64
4, 2017800, Note_on_c, 2, 60, 75
4, 2017916, Note_off_c, 2, 60, 64
4, 2017920, Note_on_c, 2, 59, 66
4, 2018036, Note_off_c, 2, 59, 64
4, 2018040, Note_on_c, 2, 57, 69
4, 2018156, Note_off_c, 2, 57, 64
4, 2018160, Note_on_c, 2, 59, 80
4, 2018880, Note_off_c, 2, 59, 64
4, 2018880, End_track
5, 0, Start_track
5, 0, Title_t, "goldberg.mid"
5, 0, Program_c, 3, 0
5, 0, Note_on_c, 3, 55, 78
5, 1436, Note_off_c, 3, 55, 64
5, 1440, Note_on_c, 3, 54, 80
5, 2876, Note_off_c, 3, 54, 64
5, 2880, Note_on_c, 3, 52, 85
5, 4316, Note_off_c, 3, 52, 64
5, 4320, Note_on_c, 3, 50, 82
5, 5276, Note_off_c, 3, 50, 64
5, 5520, Note_on_c, 3, 48, 80
5, 5756, Note_off_c, 3, 48, 64
5, 5760, Note_on_c, 3, 47, 85
5, 7196, Note_off_c, 3, 47, 64
5, 7200, Note_on_c, 3, 48, 96
5, 8396, Note_off_c, 3, 48, 64
5, 8400, Note_on_c, 3, 50, 89
5, 8636, Note_off_c, 3, 50, 64
5, 8640, Note_on_c, 3, 52, 82
5, 8876, Note_off_c, 3, 52, 64
5, 8880, Note_on_c, 3, 48, 77
5, 9116, Note_off_c, 3, 48, 64
5, 9120, Note_on_c, 3, 50, 92
5, 10076, Note_off_c, 3, 50, 64
5, 10080, Note_on_c, 3, 43, 82
5, 10796, Note_off_c, 3, 43, 64
5, 10800, Note_on_c, 3, 50, 85
5, 11036, Note_off_c, 3, 50, 64
5, 11040, Note_on_c, 3, 52, 86
5, 11100, Note_off_c, 3, 52, 64
5, 11100, Note_on_c, 3, 50, 86
5, 11160, Note_off_c, 3, 50, 64
5, 11160, Note_on_c, 3, 52, 86
5, 11400, Note_off_c, 3, 52, 64
5, 11400, Note_on_c, 3, 54, 80
5, 11520, Note_off_c, 3, 54, 64
5, 11520, Note_on_c, 3, 55, 90
5, 13440, Note_off_c, 3, 55, 64
5, 13440, Note_on_c, 3, 55, 77
5, 13500, Note_off_c, 3, 55, 64
5, 13500, Note_on_c, 3, 54, 77
5, 13560, Note_off_c, 3, 54, 64
5, 13560, Note_on_c, 3, 55, 77
5, 13620, Note_off_c, 3, 55, 64
5, 13620, Note_on_c, 3, 54, 77
5, 13680, Note_off_c, 3, 54, 64
5, 13680, Note_on_c, 3, 52, 71
5, 13916, Note_off_c, 3, 52, 64
5, 13920, Note_on_c, 3, 54, 96
5, 14160, Note_off_c, 3, 54, 64
5, 14160, Note_on_c, 3, 59, 92
5, 14400, Note_off_c, 3, 59, 64
5, 14400, Note_on_c, 3, 52, 88
5, 15116, Note_off_c, 3, 52, 64
5, 15120, Note_on_c, 3, 52, 109
5, 15356, Note_off_c, 3, 52, 64
5, 15360, Note_on_c, 3, 54, 96
5, 15596, Note_off_c, 3, 54, 64
5, 15600, Note_on_c, 3, 55, 81
5, 15836, Note_off_c, 3, 55, 64
5, 15840, Note_on_c, 3, 57, 80
5, 16560, Note_off_c, 3, 57, 64
5, 16560, Note_on_c, 3, 59, 100
5, 16796, Note_off_c, 3, 59, 64
5, 16800, Note_on_c, 3, 57, 66
5, 17036, Note_off_c, 3, 57, 64
5, 17040, Note_on_c, 3, 55, 73
5, 17276, Note_off_c, 3, 55, 64
5, 17280, Note_on_c, 3, 54, 70
5, 18720, Note_off_c, 3, 54, 64
5, 18720, Note_on_c, 3, 55, 83
5, 20156, Note_off_c, 3, 55, 64
5, 20160, Note_on_c, 3, 57, 89
5, 21596, Note_off_c, 3, 57, 64
5, 21600, Note_on_c, 3, 50, 96
5, 23036, Note_off_c, 3, 50, 64
5, 23040, Note_on_c, 3, 62, 98
5, 24000, Note_off_c, 3, 62, 64
5, 24000, Note_on_c, 3, 60, 86
5, 24476, Note_off_c, 3, 60, 64
5, 24480, Note_on_c, 3, 59, 82
5, 25196, Note_off_c, 3, 59, 64
5, 25200, Note_on_c, 3, 57, 90
5, 25436, Note_off_c, 3, 57, 64
5, 25440, Note_on_c, 3, 59, 89
5, 25916, Note_off_c, 3, 59, 64
5, 25920, Note_on_c, 3, 60, 96
5, 26636, Note_off_c, 3, 60, 64
5, 26640, Note_on_c, 3, 59, 88
5, 26876, Note_off_c, 3, 59, 64
5, 26880, Note_on_c, 3, 57, 82
5, 27356, Note_off_c, 3, 57, 64
5, 27360, Note_on_c, 3, 59, 89
5, 28076, Note_off_c, 3, 59, 64
5, 28080, Note_on_c, 3, 57, 80
5, 28316, Note_off_c, 3, 57, 64
5, 28320, Note_on_c, 3, 55, 79
5, 28556, Note_off_c, 3, 55, 64
5, 28560, Note_on_c, 3, 54, 93
5, 28796, Note_off_c, 3, 54, 64
5, 28800, Note_on_c, 3, 52, 89
5, 29760, Note_off_c, 3, 52, 64
5, 29760, Note_on_c, 3, 50, 90
5, 30236, Note_off_c, 3, 50, 64
5, 30240, Note_on_c, 3, 48, 97
5, 31196, Note_off_c, 3, 48, 64
5, 31200, Note_on_c, 3, 47, 100
5, 31676, Note_off_c, 3, 47, 64
5, 31680, Note_on_c, 3, 45, 96
5, 31916, Note_off_c, 3, 45, 64
5, 31920, Note_on_c, 3, 48, 91
5, 32156, Note_off_c, 3, 48, 64
5, 32160, Note_on_c, 3, 47, 102
5, 32396, Note_off_c, 3, 47, 64
5, 32400, Note_on_c, 3, 45, 88
5, 32636, Note_off_c, 3, 45, 64
5, 32640, Note_on_c, 3, 47, 107
5, 33116, Note_off_c, 3, 47, 64
5, 33120, Note_on_c, 3, 52, 117
5, 33356, Note_off_c, 3, 52, 64
5, 33360, Note_on_c, 3, 47, 117
5, 33596, Note_off_c, 3, 47, 64
5, 33600, Note_on_c, 3, 40, 100
5, 33836, Note_off_c, 3, 40, 64
5, 33840, Note_on_c, 3, 47, 96
5, 34076, Note_off_c, 3, 47, 64
5, 34080, Note_on_c, 3, 52, 90
5, 34316, Note_off_c, 3, 52, 64
5, 34320, Note_on_c, 3, 50, 80
5, 34556, Note_off_c, 3, 50, 64
5, 34560, Note_on_c, 3, 48, 85
5, 35996, Note_off_c, 3, 48, 64
5, 36000, Note_on_c, 3, 47, 90
5, 37436, Note_off_c, 3, 47, 64
5, 37440, Note_on_c, 3, 45, 85
5, 38156, Note_off_c, 3, 45, 64
5, 38160, Note_on_c, 3, 43, 71
5, 38396, Note_off_c, 3, 43, 64
5, 38400, Note_on_c, 3, 42, 96
5, 38636, Note_off_c, 3, 42, 64
5, 38640, Note_on_c, 3, 40, 77
5, 38876, Note_off_c, 3, 40, 64
5, 38880, Note_on_c, 3, 38, 91
5, 39116, Note_off_c, 3, 38, 64
5, 39120, Note_on_c, 3, 45, 93
5, 39356, Note_off_c, 3, 45, 64
5, 39360, Note_on_c, 3, 50, 102
5, 39596, Note_off_c, 3, 50, 64
5, 39600, Note_on_c, 3, 48, 95
5, 39836, Note_off_c, 3, 48, 64
5, 39840, Note_on_c, 3, 47, 91
5, 40076, Note_off_c, 3, 47, 64
5, 40080, Note_on_c, 3, 45, 86
5, 40316, Note_off_c, 3, 45, 64
5, 40320, Note_on_c, 3, 43, 96
5, 40556, Note_off_c, 3, 43, 64
5, 40560, Note_on_c, 3, 50, 96
5, 40796, Note_off_c, 3, 50, 64
5, 40800, Note_on_c, 3, 55, 104
5, 41036, Note_off_c, 3, 55, 64
5, 41040, Note_on_c, 3, 53, 81
5, 41276, Note_off_c, 3, 53, 64
5, 41280, Note_on_c, 3, 52, 91
5, 41516, Note_off_c, 3, 52, 64
5, 41520, Note_on_c, 3, 50, 80
5, 41756, Note_off_c, 3, 50, 64
5, 41760, Note_on_c, 3, 48, 95
5, 41996, Note_off_c, 3, 48, 64
5, 42000, Note_on_c, 3, 55, 88
5, 42236, Note_off_c, 3, 55, 64
5, 42240, Note_on_c, 3, 60, 101
5, 42476, Note_off_c, 3, 60, 64
5, 42480, Note_on_c, 3, 59, 93
5, 42716, Note_off_c, 3, 59, 64
5, 42720, Note_on_c, 3, 57, 95
5, 42956, Note_off_c, 3, 57, 64
5, 42960, Note_on_c, 3, 55, 80
5, 43196, Note_off_c, 3, 55, 64
5, 43200, Note_on_c, 3, 54, 96
5, 43436, Note_off_c, 3, 54, 64
5, 43440, Note_on_c, 3, 50, 88
5, 43676, Note_off_c, 3, 50, 64
5, 43680, Note_on_c, 3, 55, 88
5, 43916, Note_off_c, 3, 55, 64
5, 43920, Note_on_c, 3, 59, 98
5, 44156, Note_off_c, 3, 59, 64
5, 44160, Note_on_c, 3, 62, 106
5, 44396, Note_off_c, 3, 62, 64
5, 44400, Note_on_c, 3, 50, 90
5, 44636, Note_off_c, 3, 50, 64
5, 44640, Note_on_c, 3, 55, 91
5, 45360, Note_off_c, 3, 55, 64
5, 45360, Note_on_c, 3, 50, 88
5, 45596, Note_off_c, 3, 50, 64
5, 45600, Note_on_c, 3, 43, 81
5, 46080, Note_off_c, 3, 43, 64
5, 46080, Note_on_c, 3, 43, 127
5, 46316, Note_off_c, 3, 43, 64
5, 46320, Note_on_c, 3, 59, 124
5, 46436, Note_off_c, 3, 59, 64
5, 46440, Note_on_c, 3, 57, 123
5, 46556, Note_off_c, 3, 57, 64
5, 46560, Note_on_c, 3, 59, 119
5, 46796, Note_off_c, 3, 59, 64
5, 46800, Note_on_c, 3, 55, 117
5, 47036, Note_off_c, 3, 55, 64
5, 47040, Note_on_c, 3, 43, 126
5, 47276, Note_off_c, 3, 43, 64
5, 47280, Note_on_c, 3, 55, 117
5, 47516, Note_off_c, 3, 55, 64
5, 47520, Note_on_c, 3, 42, 127
5, 47756, Note_off_c, 3, 42, 64
5, 47760, Note_on_c, 3, 54, 127
5, 47876, Note_off_c, 3, 54, 64
5, 47880, Note_on_c, 3, 52, 121
5, 47996, Note_off_c, 3, 52, 64
5, 48000, Note_on_c, 3, 54, 117
5, 48236, Note_off_c, 3, 54, 64
5, 48240, Note_on_c, 3, 50, 117
5, 48476, Note_off_c, 3, 50, 64
5, 48480, Note_on_c, 3, 42, 127
5, 48716, Note_off_c, 3, 42, 64
5, 48720, Note_on_c, 3, 50, 123
5, 48956, Note_off_c, 3, 50, 64
5, 48960, Note_on_c, 3, 40, 127
5, 49196, Note_off_c, 3, 40, 64
5, 49200, Note_on_c, 3, 52, 123
5, 49316, Note_off_c, 3, 52, 64
5, 49320, Note_on_c, 3, 50, 113
5, 49436, Note_off_c, 3, 50, 64
5, 49440, Note_on_c, 3, 52, 109
5, 49676, Note_off_c, 3, 52, 64
5, 49680, Note_on_c, 3, 55, 109
5, 49916, Note_off_c, 3, 55, 64
5, 49920, Note_on_c, 3, 45, 123
5, 50156, Note_off_c, 3, 45, 64
5, 50160, Note_on_c, 3, 61, 127
5, 50396, Note_off_c, 3, 61, 64
5, 50400, Note_on_c, 3, 50, 126
5, 50636, Note_off_c, 3, 50, 64
5, 50640, Note_on_c, 3, 54, 123
5, 50756, Note_off_c, 3, 54, 64
5, 50760, Note_on_c, 3, 52, 107
5, 50876, Note_off_c, 3, 52, 64
5, 50880, Note_on_c, 3, 54, 125
5, 51116, Note_off_c, 3, 54, 64
5, 51120, Note_on_c, 3, 50, 124
5, 51356, Note_off_c, 3, 50, 64
5, 51360, Note_on_c, 3, 38, 126
5, 51716, Note_off_c, 3, 38, 64
5, 51720, Note_on_c, 3, 48, 123
5, 51836, Note_off_c, 3, 48, 64
5, 51840, Note_on_c, 3, 47, 115
5, 51956, Note_off_c, 3, 47, 64
5, 51960, Note_on_c, 3, 45, 117
5, 52076, Note_off_c, 3, 45, 64
5, 52080, Note_on_c, 3, 47, 126
5, 52436, Note_off_c, 3, 47, 64
5, 52440, Note_on_c, 3, 50, 111
5, 52556, Note_off_c, 3, 50, 64
5, 52560, Note_on_c, 3, 52, 115
5, 52676, Note_off_c, 3, 52, 64
5, 52680, Note_on_c, 3, 54, 115
5, 52796, Note_off_c, 3, 54, 64
5, 52800, Note_on_c, 3, 55, 102
5, 52916, Note_off_c, 3, 55, 64
5, 52920, Note_on_c, 3, 57, 104
5, 53036, Note_off_c, 3, 57, 64
5, 53040, Note_on_c, 3, 59, 113
5, 53156, Note_off_c, 3, 59, 64
5, 53160, Note_on_c, 3, 55, 102
5, 53276, Note_off_c, 3, 55, 64
5, 53280, Note_on_c, 3, 48, 100
5, 53396, Note_off_c, 3, 48, 64
5, 53400, Note_on_c, 3, 47, 119
5, 53516, Note_off_c, 3, 47, 64
5, 53520, Note_on_c, 3, 48, 126
5, 53876, Note_off_c, 3, 48, 64
5, 53880, Note_on_c, 3, 52, 117
5, 53996, Note_off_c, 3, 52, 64
5, 54000, Note_on_c, 3, 54, 112
5, 54116, Note_off_c, 3, 54, 64
5, 54120, Note_on_c, 3, 55, 95
5, 54236, Note_off_c, 3, 55, 64
5, 54240, Note_on_c, 3, 57, 119
5, 54356, Note_off_c, 3, 57, 64
5, 54360, Note_on_c, 3, 59, 113
5, 54476, Note_off_c, 3, 59, 64
5, 54480, Note_on_c, 3, 60, 113
5, 54596, Note_off_c, 3, 60, 64
5, 54600, Note_on_c, 3, 57, 113
5, 54716, Note_off_c, 3, 57, 64
5, 54720, Note_on_c, 3, 50, 111
5, 54836, Note_off_c, 3, 50, 64
5, 54840, Note_on_c, 3, 49, 96
5, 54956, Note_off_c, 3, 49, 64
5, 54960, Note_on_c, 3, 50, 121
5, 55316, Note_off_c, 3, 50, 64
5, 55320, Note_on_c, 3, 57, 117
5, 55436, Note_off_c, 3, 57, 64
5, 55440, Note_on_c, 3, 59, 101
5, 55556, Note_off_c, 3, 59, 64
5, 55560, Note_on_c, 3, 60, 111
5, 55676, Note_off_c, 3, 60, 64
5, 55680, Note_on_c, 3, 62, 107
5, 55796, Note_off_c, 3, 62, 64
5, 55800, Note_on_c, 3, 64, 102
5, 55916, Note_off_c, 3, 64, 64
5, 55920, Note_on_c, 3, 66, 96
5, 56036, Note_off_c, 3, 66, 64
5, 56040, Note_on_c, 3, 62, 104
5, 56156, Note_off_c, 3, 62, 64
5, 56160, Note_on_c, 3, 67, 121
5, 56276, Note_off_c, 3, 67, 64
5, 56280, Note_on_c, 3, 66, 59
5, 56396, Note_off_c, 3, 66, 64
5, 56400, Note_on_c, 3, 67, 115
5, 56516, Note_off_c, 3, 67, 64
5, 56520, Note_on_c, 3, 62, 95
5, 56636, Note_off_c, 3, 62, 64
5, 56640, Note_on_c, 3, 59, 98
5, 56756, Note_off_c, 3, 59, 64
5, 56760, Note_on_c, 3, 62, 92
5, 56876, Note_off_c, 3, 62, 64
5, 56880, Note_on_c, 3, 55, 100
5, 56996, Note_off_c, 3, 55, 64
5, 57000, Note_on_c, 3, 59, 60
5, 57116, Note_off_c, 3, 59, 64
5, 57120, Note_on_c, 3, 50, 96
5, 57236, Note_off_c, 3, 50, 64
5, 57240, Note_on_c, 3, 55, 100
5, 57356, Note_off_c, 3, 55, 64
5, 57360, Note_on_c, 3, 47, 107
5, 57476, Note_off_c, 3, 47, 64
5, 57480, Note_on_c, 3, 50, 89
5, 57596, Note_off_c, 3, 50, 64
5, 57600, Note_on_c, 3, 43, 121
5, 57716, Note_off_c, 3, 43, 64
5, 57840, Note_on_c, 3, 55, 100
5, 58076, Note_off_c, 3, 55, 64
5, 58080, Note_on_c, 3, 59, 121
5, 58316, Note_off_c, 3, 59, 64
5, 58320, Note_on_c, 3, 55, 109
5, 58556, Note_off_c, 3, 55, 64
5, 58560, Note_on_c, 3, 43, 121
5, 58796, Note_off_c, 3, 43, 64
5, 58800, Note_on_c, 3, 55, 121
5, 59036, Note_off_c, 3, 55, 64
5, 59040, Note_on_c, 3, 42, 125
5, 59276, Note_off_c, 3, 42, 64
5, 59280, Note_on_c, 3, 54, 115
5, 59516, Note_off_c, 3, 54, 64
5, 59520, Note_on_c, 3, 57, 106
5, 59756, Note_off_c, 3, 57, 64
5, 59760, Note_on_c, 3, 54, 110
5, 59996, Note_off_c, 3, 54, 64
5, 60000, Note_on_c, 3, 42, 127
5, 60236, Note_off_c, 3, 42, 64
5, 60240, Note_on_c, 3, 54, 121
5, 60476, Note_off_c, 3, 54, 64
5, 60480, Note_on_c, 3, 40, 109
5, 60716, Note_off_c, 3, 40, 64
5, 60720, Note_on_c, 3, 52, 113
5, 60956, Note_off_c, 3, 52, 64
5, 60960, Note_on_c, 3, 55, 109
5, 61196, Note_off_c, 3, 55, 64
5, 61200, Note_on_c, 3, 52, 111
5, 61436, Note_off_c, 3, 52, 64
5, 61440, Note_on_c, 3, 40, 109
5, 61676, Note_off_c, 3, 40, 64
5, 61680, Note_on_c, 3, 55, 113
5, 61916, Note_off_c, 3, 55, 64
5, 61920, Note_on_c, 3, 45, 123
5, 62156, Note_off_c, 3, 45, 64
5, 62160, Note_on_c, 3, 52, 113
5, 62396, Note_off_c, 3, 52, 64
5, 62400, Note_on_c, 3, 55, 106
5, 62636, Note_off_c, 3, 55, 64
5, 62640, Note_on_c, 3, 52, 113
5, 62876, Note_off_c, 3, 52, 64
5, 62880, Note_on_c, 3, 45, 115
5, 63116, Note_off_c, 3, 45, 64
5, 63120, Note_on_c, 3, 55, 119
5, 63356, Note_off_c, 3, 55, 64
5, 63360, Note_on_c, 3, 54, 108
5, 63476, Note_off_c, 3, 54, 64
5, 63480, Note_on_c, 3, 57, 91
5, 63596, Note_off_c, 3, 57, 64
5, 63600, Note_on_c, 3, 62, 107
5, 63716, Note_off_c, 3, 62, 64
5, 63720, Note_on_c, 3, 66, 93
5, 63836, Note_off_c, 3, 66, 64
5, 63840, Note_on_c, 3, 69, 84
5, 63956, Note_off_c, 3, 69, 64
5, 63960, Note_on_c, 3, 66, 84
5, 64076, Note_off_c, 3, 66, 64
5, 64080, Note_on_c, 3, 62, 88
5, 64196, Note_off_c, 3, 62, 64
5, 64200, Note_on_c, 3, 57, 84
5, 64316, Note_off_c, 3, 57, 64
5, 64320, Note_on_c, 3, 54, 84
5, 64436, Note_off_c, 3, 54, 64
5, 64440, Note_on_c, 3, 57, 75
5, 64556, Note_off_c, 3, 57, 64
5, 64560, Note_on_c, 3, 50, 97
5, 64676, Note_off_c, 3, 50, 64
5, 64680, Note_on_c, 3, 54, 95
5, 64796, Note_off_c, 3, 54, 64
5, 64800, Note_on_c, 3, 55, 115
5, 64916, Note_off_c, 3, 55, 64
5, 64920, Note_on_c, 3, 59, 115
5, 65036, Note_off_c, 3, 59, 64
5, 65040, Note_on_c, 3, 62, 115
5, 65156, Note_off_c, 3, 62, 64
5, 65160, Note_on_c, 3, 67, 115
5, 65276, Note_off_c, 3, 67, 64
5, 65280, Note_on_c, 3, 71, 115
5, 65396, Note_off_c, 3, 71, 64
5, 65400, Note_on_c, 3, 67, 115
5, 65516, Note_off_c, 3, 67, 64
5, 65520, Note_on_c, 3, 62, 115
5, 65636, Note_off_c, 3, 62, 64
5, 65640, Note_on_c, 3, 59, 115
5, 65756, Note_off_c, 3, 59, 64
5, 65760, Note_on_c, 3, 55, 115
5, 65876, Note_off_c, 3, 55, 64
5, 65880, Note_on_c, 3, 59, 115
5, 65996, Note_off_c, 3, 59, 64
5, 66000, Note_on_c, 3, 52, 115
5, 66116, Note_off_c, 3, 52, 64
5, 66120, Note_on_c, 3, 55, 115
5, 66236, Note_off_c, 3, 55, 64
5, 66240, Note_on_c, 3, 57, 115
5, 66476, Note_off_c, 3, 57, 64
5, 66480, Note_on_c, 3, 61, 115
5, 66716, Note_off_c, 3, 61, 64
5, 66720, Note_on_c, 3, 62, 115
5, 66836, Note_off_c, 3, 62, 64
5, 66840, Note_on_c, 3, 57, 115
5, 66956, Note_off_c, 3, 57, 64
5, 66960, Note_on_c, 3, 54, 115
5, 67076, Note_off_c, 3, 54, 64
5, 67080, Note_on_c, 3, 50, 115
5, 67196, Note_off_c, 3, 50, 64
5, 67200, Note_on_c, 3, 57, 115
5, 67436, Note_off_c, 3, 57, 64
5, 67440, Note_on_c, 3, 45, 115
5, 67676, Note_off_c, 3, 45, 64
5, 67680, Note_on_c, 3, 38, 115
5, 67796, Note_off_c, 3, 38, 64
5, 67800, Note_on_c, 3, 50, 115
5, 67916, Note_off_c, 3, 50, 64
5, 67920, Note_on_c, 3, 52, 115
5, 68036, Note_off_c, 3, 52, 64
5, 68040, Note_on_c, 3, 54, 115
5, 68156, Note_off_c, 3, 54, 64
5, 68160, Note_on_c, 3, 55, 115
5, 68276, Note_off_c, 3, 55, 64
5, 68280, Note_on_c, 3, 57, 115
5, 68396, Note_off_c, 3, 57, 64
5, 68400, Note_on_c, 3, 59, 115
5, 68516, Note_off_c, 3, 59, 64
5, 68520, Note_on_c, 3, 61, 115
5, 68636, Note_off_c, 3, 61, 64
5, 68640, Note_on_c, 3, 62, 115
5, 69116, Note_off_c, 3, 62, 64
5, 69120, Note_on_c, 3, 38, 126
5, 69356, Note_off_c, 3, 38, 64
5, 69360, Note_on_c, 3, 54, 127
5, 69476, Note_off_c, 3, 54, 64
5, 69480, Note_on_c, 3, 52, 117
5, 69596, Note_off_c, 3, 52, 64
5, 69600, Note_on_c, 3, 54, 117
5, 69836, Note_off_c, 3, 54, 64
5, 69840, Note_on_c, 3, 50, 111
5, 70076, Note_off_c, 3, 50, 64
5, 70080, Note_on_c, 3, 38, 121
5, 70316, Note_off_c, 3, 38, 64
5, 70320, Note_on_c, 3, 54, 127
5, 70556, Note_off_c, 3, 54, 64
5, 70560, Note_on_c, 3, 43, 121
5, 70796, Note_off_c, 3, 43, 64
5, 70800, Note_on_c, 3, 59, 121
5, 70916, Note_off_c, 3, 59, 64
5, 70920, Note_on_c, 3, 57, 117
5, 71036, Note_off_c, 3, 57, 64
5, 71040, Note_on_c, 3, 59, 117
5, 71276, Note_off_c, 3, 59, 64
5, 71280, Note_on_c, 3, 55, 115
5, 71516, Note_off_c, 3, 55, 64
5, 71520, Note_on_c, 3, 43, 113
5, 71756, Note_off_c, 3, 43, 64
5, 71760, Note_on_c, 3, 59, 115
5, 71996, Note_off_c, 3, 59, 64
5, 72000, Note_on_c, 3, 48, 127
5, 72236, Note_off_c, 3, 48, 64
5, 72240, Note_on_c, 3, 60, 121
5, 72356, Note_off_c, 3, 60, 64
5, 72360, Note_on_c, 3, 59, 115
5, 72476, Note_off_c, 3, 59, 64
5, 72480, Note_on_c, 3, 60, 111
5, 72716, Note_off_c, 3, 60, 64
5, 72720, Note_on_c, 3, 54, 127
5, 72956, Note_off_c, 3, 54, 64
5, 72960, Note_on_c, 3, 57, 119
5, 73196, Note_off_c, 3, 57, 64
5, 73200, Note_on_c, 3, 60, 123
5, 73436, Note_off_c, 3, 60, 64
5, 73440, Note_on_c, 3, 57, 119
5, 73676, Note_off_c, 3, 57, 64
5, 73680, Note_on_c, 3, 54, 127
5, 73916, Note_off_c, 3, 54, 64
5, 73920, Note_on_c, 3, 51, 119
5, 74036, Note_off_c, 3, 51, 64
5, 74040, Note_on_c, 3, 47, 106
5, 74156, Note_off_c, 3, 47, 64
5, 74160, Note_on_c, 3, 51, 121
5, 74276, Note_off_c, 3, 51, 64
5, 74280, Note_on_c, 3, 54, 127
5, 74396, Note_off_c, 3, 54, 64
5, 74400, Note_on_c, 3, 59, 117
5, 74516, Note_off_c, 3, 59, 64
5, 74520, Note_on_c, 3, 63, 108
5, 74636, Note_off_c, 3, 63, 64
5, 74640, Note_on_c, 3, 66, 110
5, 74756, Note_off_c, 3, 66, 64
5, 74760, Note_on_c, 3, 69, 101
5, 74876, Note_off_c, 3, 69, 64
5, 74880, Note_on_c, 3, 67, 115
5, 75236, Note_off_c, 3, 67, 64
5, 75240, Note_on_c, 3, 66, 119
5, 75356, Note_off_c, 3, 66, 64
5, 75360, Note_on_c, 3, 67, 111
5, 75716, Note_off_c, 3, 67, 64
5, 75720, Note_on_c, 3, 54, 123
5, 75836, Note_off_c, 3, 54, 64
5, 75840, Note_on_c, 3, 55, 124
5, 76196, Note_off_c, 3, 55, 64
5, 76200, Note_on_c, 3, 47, 111
5, 76316, Note_off_c, 3, 47, 64
5, 76320, Note_on_c, 3, 48, 124
5, 76676, Note_off_c, 3, 48, 64
5, 76680, Note_on_c, 3, 71, 117
5, 76796, Note_off_c, 3, 71, 64
5, 76800, Note_on_c, 3, 72, 109
5, 77156, Note_off_c, 3, 72, 64
5, 77160, Note_on_c, 3, 59, 121
5, 77276, Note_off_c, 3, 59, 64
5, 77280, Note_on_c, 3, 60, 127
5, 77640, Note_on_c, 3, 52, 117
5, 77756, Note_off_c, 3, 60, 64
5, 77756, Note_off_c, 3, 52, 64
5, 77760, Note_on_c, 3, 51, 125
5, 77996, Note_off_c, 3, 51, 64
5, 78000, Note_on_c, 3, 57, 121
5, 78236, Note_off_c, 3, 57, 64
5, 78240, Note_on_c, 3, 55, 106
5, 78476, Note_off_c, 3, 55, 64
5, 78480, Note_on_c, 3, 46, 108
5, 78716, Note_off_c, 3, 46, 64
5, 78720, Note_on_c, 3, 47, 126
5, 78956, Note_off_c, 3, 47, 64
5, 78960, Note_on_c, 3, 54, 127
5, 79196, Note_off_c, 3, 54, 64
5, 79200, Note_on_c, 3, 52, 121
5, 79436, Note_off_c, 3, 52, 64
5, 79440, Note_on_c, 3, 55, 119
5, 79556, Note_off_c, 3, 55, 64
5, 79560, Note_on_c, 3, 54, 125
5, 79676, Note_off_c, 3, 54, 64
5, 79680, Note_on_c, 3, 55, 113
5, 79916, Note_off_c, 3, 55, 64
5, 79920, Note_on_c, 3, 52, 119
5, 80156, Note_off_c, 3, 52, 64
5, 80160, Note_on_c, 3, 40, 127
5, 80516, Note_off_c, 3, 40, 64
5, 80520, Note_on_c, 3, 50, 115
5, 80636, Note_off_c, 3, 50, 64
5, 80640, Note_on_c, 3, 48, 101
5, 80756, Note_off_c, 3, 48, 64
5, 80760, Note_on_c, 3, 52, 102
5, 80876, Note_off_c, 3, 52, 64
5, 80880, Note_on_c, 3, 57, 91
5, 80996, Note_off_c, 3, 57, 64
5, 81000, Note_on_c, 3, 60, 104
5, 81116, Note_off_c, 3, 60, 64
5, 81120, Note_on_c, 3, 64, 106
5, 81236, Note_off_c, 3, 64, 64
5, 81240, Note_on_c, 3, 60, 109
5, 81356, Note_off_c, 3, 60, 64
5, 81360, Note_on_c, 3, 57, 97
5, 81476, Note_off_c, 3, 57, 64
5, 81480, Note_on_c, 3, 52, 115
5, 81596, Note_off_c, 3, 52, 64
5, 81600, Note_on_c, 3, 48, 97
5, 81720, Note_off_c, 3, 48, 64
5, 81720, Note_on_c, 3, 52, 49
5, 81836, Note_off_c, 3, 52, 64
5, 81840, Note_on_c, 3, 50, 111
5, 81956, Note_off_c, 3, 50, 64
5, 81960, Note_on_c, 3, 48, 98
5, 82076, Note_off_c, 3, 48, 64
5, 82080, Note_on_c, 3, 47, 104
5, 82196, Note_off_c, 3, 47, 64
5, 82200, Note_on_c, 3, 50, 86
5, 82316, Note_off_c, 3, 50, 64
5, 82320, Note_on_c, 3, 55, 95
5, 82436, Note_off_c, 3, 55, 64
5, 82440, Note_on_c, 3, 59, 102
5, 82556, Note_off_c, 3, 59, 64
5, 82560, Note_on_c, 3, 62, 107
5, 82676, Note_off_c, 3, 62, 64
5, 82680, Note_on_c, 3, 59, 113
5, 82796, Note_off_c, 3, 59, 64
5, 82800, Note_on_c, 3, 55, 98
5, 82916, Note_off_c, 3, 55, 64
5, 82920, Note_on_c, 3, 50, 101
5, 83036, Note_off_c, 3, 50, 64
5, 83040, Note_on_c, 3, 47, 106
5, 83156, Note_off_c, 3, 47, 64
5, 83160, Note_on_c, 3, 50, 96
5, 83276, Note_off_c, 3, 50, 64
5, 83280, Note_on_c, 3, 48, 96
5, 83396, Note_off_c, 3, 48, 64
5, 83400, Note_on_c, 3, 47, 100
5, 83516, Note_off_c, 3, 47, 64
5, 83520, Note_on_c, 3, 45, 97
5, 83756, Note_off_c, 3, 45, 64
5, 83760, Note_on_c, 3, 48, 115
5, 83996, Note_off_c, 3, 48, 64
5, 84000, Note_on_c, 3, 52, 115
5, 84236, Note_off_c, 3, 52, 64
5, 84240, Note_on_c, 3, 55, 107
5, 84476, Note_off_c, 3, 55, 64
5, 84480, Note_on_c, 3, 54, 127
5, 84716, Note_off_c, 3, 54, 64
5, 84720, Note_on_c, 3, 52, 117
5, 84956, Note_off_c, 3, 52, 64
5, 84960, Note_on_c, 3, 50, 119
5, 85196, Note_off_c, 3, 50, 64
5, 85200, Note_on_c, 3, 54, 121
5, 85436, Note_off_c, 3, 54, 64
5, 85440, Note_on_c, 3, 57, 123
5, 85676, Note_off_c, 3, 57, 64
5, 85680, Note_on_c, 3, 60, 98
5, 85916, Note_off_c, 3, 60, 64
5, 85920, Note_on_c, 3, 59, 106
5, 86156, Note_off_c, 3, 59, 64
5, 86160, Note_on_c, 3, 57, 119
5, 86396, Note_off_c, 3, 57, 64
5, 86400, Note_on_c, 3, 55, 117
5, 86636, Note_off_c, 3, 55, 64
5, 86640, Note_on_c, 3, 59, 121
5, 86876, Note_off_c, 3, 59, 64
5, 86880, Note_on_c, 3, 62, 113
5, 87116, Note_off_c, 3, 62, 64
5, 87120, Note_on_c, 3, 65, 121
5, 87356, Note_off_c, 3, 65, 64
5, 87360, Note_on_c, 3, 64, 119
5, 87596, Note_off_c, 3, 64, 64
5, 87600, Note_on_c, 3, 62, 121
5, 87836, Note_off_c, 3, 62, 64
5, 87840, Note_on_c, 3, 60, 119
5, 88080, Note_off_c, 3, 60, 64
5, 88080, Note_on_c, 3, 64, 113
5, 88320, Note_off_c, 3, 64, 64
5, 88320, Note_on_c, 3, 66, 115
5, 88560, Note_off_c, 3, 66, 64
5, 88560, Note_on_c, 3, 68, 101
5, 88800, Note_off_c, 3, 68, 64
5, 88800, Note_on_c, 3, 69, 110
5, 89040, Note_off_c, 3, 69, 64
5, 89040, Note_on_c, 3, 67, 109
5, 89276, Note_off_c, 3, 67, 64
5, 89280, Note_on_c, 3, 66, 123
5, 89516, Note_off_c, 3, 66, 64
5, 89520, Note_on_c, 3, 62, 102
5, 89760, Note_off_c, 3, 62, 64
5, 89760, Note_on_c, 3, 67, 107
5, 90000, Note_off_c, 3, 67, 64
5, 90000, Note_on_c, 3, 55, 109
5, 90240, Note_off_c, 3, 55, 64
5, 90240, Note_on_c, 3, 62, 113
5, 90480, Note_off_c, 3, 62, 64
5, 90480, Note_on_c, 3, 50, 111
5, 90720, Note_off_c, 3, 50, 64
5, 90720, Note_on_c, 3, 55, 117
5, 90836, Note_off_c, 3, 55, 64
5, 90840, Note_on_c, 3, 43, 107
5, 90956, Note_off_c, 3, 43, 64
5, 90960, Note_on_c, 3, 45, 115
5, 91076, Note_off_c, 3, 45, 64
5, 91080, Note_on_c, 3, 47, 111
5, 91196, Note_off_c, 3, 47, 64
5, 91200, Note_on_c, 3, 48, 107
5, 91316, Note_off_c, 3, 48, 64
5, 91320, Note_on_c, 3, 50, 109
5, 91436, Note_off_c, 3, 50, 64
5, 91440, Note_on_c, 3, 52, 115
5, 91556, Note_off_c, 3, 52, 64
5, 91560, Note_on_c, 3, 54, 112
5, 91676, Note_off_c, 3, 54, 64
5, 91680, Note_on_c, 3, 55, 117
5, 92160, Note_off_c, 3, 55, 64
5, 92160, Note_on_c, 3, 55, 85
5, 92396, Note_off_c, 3, 55, 64
5, 92400, Note_on_c, 3, 54, 99
5, 92636, Note_off_c, 3, 54, 64
5, 92640, Note_on_c, 3, 55, 80
5, 92876, Note_off_c, 3, 55, 64
5, 92880, Note_on_c, 3, 52, 93
5, 93116, Note_off_c, 3, 52, 64
5, 93120, Note_on_c, 3, 54, 88
5, 93356, Note_off_c, 3, 54, 64
5, 93360, Note_on_c, 3, 52, 83
5, 93596, Note_off_c, 3, 52, 64
5, 93600, Note_on_c, 3, 54, 90
5, 93836, Note_off_c, 3, 54, 64
5, 93840, Note_on_c, 3, 50, 73
5, 94076, Note_off_c, 3, 50, 64
5, 94080, Note_on_c, 3, 52, 95
5, 94316, Note_off_c, 3, 52, 64
5, 94320, Note_on_c, 3, 50, 73
5, 94556, Note_off_c, 3, 50, 64
5, 94560, Note_on_c, 3, 52, 81
5, 94796, Note_off_c, 3, 52, 64
5, 94800, Note_on_c, 3, 48, 89
5, 95036, Note_off_c, 3, 48, 64
5, 95040, Note_on_c, 3, 50, 66
5, 95276, Note_off_c, 3, 50, 64
5, 95280, Note_on_c, 3, 38, 77
5, 95516, Note_off_c, 3, 38, 64
5, 95520, Note_on_c, 3, 50, 81
5, 95636, Note_off_c, 3, 50, 64
5, 95640, Note_on_c, 3, 48, 76
5, 95756, Note_off_c, 3, 48, 64
5, 95760, Note_on_c, 3, 47, 69
5, 95876, Note_off_c, 3, 47, 64
5, 95880, Note_on_c, 3, 45, 55
5, 95996, Note_off_c, 3, 45, 64
5, 96000, Note_on_c, 3, 47, 84
5, 96236, Note_off_c, 3, 47, 64
5, 96240, Note_on_c, 3, 45, 64
5, 96476, Note_off_c, 3, 45, 64
5, 96480, Note_on_c, 3, 47, 78
5, 96716, Note_off_c, 3, 47, 64
5, 96720, Note_on_c, 3, 43, 76
5, 96956, Note_off_c, 3, 43, 64
5, 96960, Note_on_c, 3, 48, 83
5, 97196, Note_off_c, 3, 48, 64
5, 97200, Note_on_c, 3, 47, 74
5, 97436, Note_off_c, 3, 47, 64
5, 97440, Note_on_c, 3, 48, 81
5, 97676, Note_off_c, 3, 48, 64
5, 97680, Note_on_c, 3, 45, 81
5, 97916, Note_off_c, 3, 45, 64
5, 97920, Note_on_c, 3, 50, 85
5, 98156, Note_off_c, 3, 50, 64
5, 98160, Note_on_c, 3, 48, 74
5, 98396, Note_off_c, 3, 48, 64
5, 98400, Note_on_c, 3, 50, 91
5, 98636, Note_off_c, 3, 50, 64
5, 98640, Note_on_c, 3, 38, 88
5, 98876, Note_off_c, 3, 38, 64
5, 98880, Note_on_c, 3, 43, 45
5, 99120, Note_off_c, 3, 43, 64
5, 99120, Note_on_c, 3, 55, 89
5, 99356, Note_off_c, 3, 55, 64
5, 99360, Note_on_c, 3, 59, 55
5, 99596, Note_off_c, 3, 59, 64
5, 99600, Note_on_c, 3, 62, 93
5, 99840, Note_off_c, 3, 62, 64
5, 99840, Note_on_c, 3, 67, 102
5, 100076, Note_off_c, 3, 67, 64
5, 100080, Note_on_c, 3, 66, 84
5, 100316, Note_off_c, 3, 66, 64
5, 100320, Note_on_c, 3, 67, 75
5, 100556, Note_off_c, 3, 67, 64
5, 100560, Note_on_c, 3, 64, 73
5, 100796, Note_off_c, 3, 64, 64
5, 100800, Note_on_c, 3, 66, 99
5, 101036, Note_off_c, 3, 66, 64
5, 101040, Note_on_c, 3, 64, 81
5, 101276, Note_off_c, 3, 64, 64
5, 101280, Note_on_c, 3, 66, 84
5, 101516, Note_off_c, 3, 66, 64
5, 101520, Note_on_c, 3, 62, 85
5, 101756, Note_off_c, 3, 62, 64
5, 101760, Note_on_c, 3, 64, 85
5, 101996, Note_off_c, 3, 64, 64
5, 102000, Note_on_c, 3, 62, 81
5, 102236, Note_off_c, 3, 62, 64
5, 102240, Note_on_c, 3, 64, 85
5, 102476, Note_off_c, 3, 64, 64
5, 102480, Note_on_c, 3, 59, 90
5, 102716, Note_off_c, 3, 59, 64
5, 102720, Note_on_c, 3, 61, 96
5, 102960, Note_off_c, 3, 61, 64
5, 102960, Note_on_c, 3, 64, 93
5, 103076, Note_off_c, 3, 64, 64
5, 103080, Note_on_c, 3, 62, 70
5, 103196, Note_off_c, 3, 62, 64
5, 103200, Note_on_c, 3, 61, 90
5, 103316, Note_off_c, 3, 61, 64
5, 103320, Note_on_c, 3, 59, 83
5, 103436, Note_off_c, 3, 59, 64
5, 103440, Note_on_c, 3, 57, 71
5, 103556, Note_off_c, 3, 57, 64
5, 103560, Note_on_c, 3, 55, 78
5, 103676, Note_off_c, 3, 55, 64
5, 103680, Note_on_c, 3, 54, 101
5, 103916, Note_off_c, 3, 54, 64
5, 103920, Note_on_c, 3, 52, 91
5, 104156, Note_off_c, 3, 52, 64
5, 104160, Note_on_c, 3, 54, 93
5, 104396, Note_off_c, 3, 54, 64
5, 104400, Note_on_c, 3, 50, 83
5, 104636, Note_off_c, 3, 50, 64
5, 104640, Note_on_c, 3, 55, 59
5, 104876, Note_off_c, 3, 55, 64
5, 104880, Note_on_c, 3, 54, 82
5, 105116, Note_off_c, 3, 54, 64
5, 105120, Note_on_c, 3, 55, 60
5, 105356, Note_off_c, 3, 55, 64
5, 105360, Note_on_c, 3, 52, 63
5, 105596, Note_off_c, 3, 52, 64
5, 105600, Note_on_c, 3, 57, 64
5, 105836, Note_off_c, 3, 57, 64
5, 105840, Note_on_c, 3, 55, 73
5, 106076, Note_off_c, 3, 55, 64
5, 106080, Note_on_c, 3, 57, 10
5, 106316, Note_off_c, 3, 57, 64
5, 106320, Note_on_c, 3, 45, 46
5, 106556, Note_off_c, 3, 45, 64
5, 106560, Note_on_c, 3, 50, 81
5, 106800, Note_off_c, 3, 50, 64
5, 106800, Note_on_c, 3, 62, 81
5, 106916, Note_off_c, 3, 62, 64
5, 106920, Note_on_c, 3, 60, 73
5, 107036, Note_off_c, 3, 60, 64
5, 107040, Note_on_c, 3, 62, 81
5, 107156, Note_off_c, 3, 62, 64
5, 107160, Note_on_c, 3, 60, 77
5, 107276, Note_off_c, 3, 60, 64
5, 107280, Note_on_c, 3, 59, 69
5, 107396, Note_off_c, 3, 59, 64
5, 107400, Note_on_c, 3, 57, 76
5, 107516, Note_off_c, 3, 57, 64
5, 107520, Note_on_c, 3, 55, 76
5, 107756, Note_off_c, 3, 55, 64
5, 107760, Note_on_c, 3, 54, 82
5, 107996, Note_off_c, 3, 54, 64
5, 108000, Note_on_c, 3, 55, 62
5, 108236, Note_off_c, 3, 55, 64
5, 108240, Note_on_c, 3, 52, 76
5, 108476, Note_off_c, 3, 52, 64
5, 108480, Note_on_c, 3, 54, 77
5, 108716, Note_off_c, 3, 54, 64
5, 108720, Note_on_c, 3, 52, 67
5, 108956, Note_off_c, 3, 52, 64
5, 108960, Note_on_c, 3, 54, 90
5, 109196, Note_off_c, 3, 54, 64
5, 109200, Note_on_c, 3, 50, 81
5, 109436, Note_off_c, 3, 50, 64
5, 109440, Note_on_c, 3, 52, 93
5, 109676, Note_off_c, 3, 52, 64
5, 109680, Note_on_c, 3, 50, 88
5, 109916, Note_off_c, 3, 50, 64
5, 109920, Note_on_c, 3, 52, 82
5, 110156, Note_off_c, 3, 52, 64
5, 110160, Note_on_c, 3, 48, 89
5, 110396, Note_off_c, 3, 48, 64
5, 110400, Note_on_c, 3, 50, 97
5, 110636, Note_off_c, 3, 50, 64
5, 110640, Note_on_c, 3, 38, 93
5, 110876, Note_off_c, 3, 38, 64
5, 110880, Note_on_c, 3, 50, 109
5, 110996, Note_off_c, 3, 50, 64
5, 111000, Note_on_c, 3, 48, 106
5, 111116, Note_off_c, 3, 48, 64
5, 111120, Note_on_c, 3, 47, 117
5, 111236, Note_off_c, 3, 47, 64
5, 111240, Note_on_c, 3, 45, 106
5, 111356, Note_off_c, 3, 45, 64
5, 111360, Note_on_c, 3, 47, 96
5, 111596, Note_off_c, 3, 47, 64
5, 111600, Note_on_c, 3, 45, 71
5, 111836, Note_off_c, 3, 45, 64
5, 111840, Note_on_c, 3, 47, 76
5, 112076, Note_off_c, 3, 47, 64
5, 112080, Note_on_c, 3, 43, 66
5, 112316, Note_off_c, 3, 43, 64
5, 112320, Note_on_c, 3, 48, 83
5, 112556, Note_off_c, 3, 48, 64
5, 112560, Note_on_c, 3, 47, 81
5, 112796, Note_off_c, 3, 47, 64
5, 112800, Note_on_c, 3, 48, 76
5, 113036, Note_off_c, 3, 48, 64
5, 113040, Note_on_c, 3, 45, 85
5, 113276, Note_off_c, 3, 45, 64
5, 113280, Note_on_c, 3, 50, 86
5, 113516, Note_off_c, 3, 50, 64
5, 113520, Note_on_c, 3, 48, 85
5, 113756, Note_off_c, 3, 48, 64
5, 113760, Note_on_c, 3, 50, 77
5, 113996, Note_off_c, 3, 50, 64
5, 114000, Note_on_c, 3, 38, 81
5, 114236, Note_off_c, 3, 38, 64
5, 114240, Note_on_c, 3, 43, 91
5, 114476, Note_off_c, 3, 43, 64
5, 114480, Note_on_c, 3, 55, 119
5, 114716, Note_off_c, 3, 55, 64
5, 114720, Note_on_c, 3, 59, 84
5, 114960, Note_off_c, 3, 59, 64
5, 114960, Note_on_c, 3, 62, 80
5, 115200, Note_off_c, 3, 62, 64
5, 115200, Note_on_c, 3, 67, 88
5, 115436, Note_off_c, 3, 67, 64
5, 115440, Note_on_c, 3, 66, 88
5, 115676, Note_off_c, 3, 66, 64
5, 115680, Note_on_c, 3, 67, 76
5, 115916, Note_off_c, 3, 67, 64
5, 115920, Note_on_c, 3, 64, 48
5, 116156, Note_off_c, 3, 64, 64
5, 116160, Note_on_c, 3, 66, 75
5, 116396, Note_off_c, 3, 66, 64
5, 116400, Note_on_c, 3, 64, 74
5, 116636, Note_off_c, 3, 64, 64
5, 116640, Note_on_c, 3, 66, 67
5, 116876, Note_off_c, 3, 66, 64
5, 116880, Note_on_c, 3, 62, 71
5, 117116, Note_off_c, 3, 62, 64
5, 117120, Note_on_c, 3, 64, 84
5, 117356, Note_off_c, 3, 64, 64
5, 117360, Note_on_c, 3, 62, 80
5, 117596, Note_off_c, 3, 62, 64
5, 117600, Note_on_c, 3, 64, 86
5, 117836, Note_off_c, 3, 64, 64
5, 117840, Note_on_c, 3, 59, 92
5, 118076, Note_off_c, 3, 59, 64
5, 118080, Note_on_c, 3, 61, 101
5, 118316, Note_off_c, 3, 61, 64
5, 118320, Note_on_c, 3, 64, 97
5, 118436, Note_off_c, 3, 64, 64
5, 118440, Note_on_c, 3, 62, 88
5, 118556, Note_off_c, 3, 62, 64
5, 118560, Note_on_c, 3, 61, 96
5, 118676, Note_off_c, 3, 61, 64
5, 118680, Note_on_c, 3, 59, 77
5, 118796, Note_off_c, 3, 59, 64
5, 118800, Note_on_c, 3, 57, 80
5, 118916, Note_off_c, 3, 57, 64
5, 118920, Note_on_c, 3, 55, 84
5, 119036, Note_off_c, 3, 55, 64
5, 119040, Note_on_c, 3, 54, 102
5, 119276, Note_off_c, 3, 54, 64
5, 119280, Note_on_c, 3, 52, 81
5, 119516, Note_off_c, 3, 52, 64
5, 119520, Note_on_c, 3, 54, 85
5, 119756, Note_off_c, 3, 54, 64
5, 119760, Note_on_c, 3, 50, 73
5, 119996, Note_off_c, 3, 50, 64
5, 120000, Note_on_c, 3, 55, 86
5, 120236, Note_off_c, 3, 55, 64
5, 120240, Note_on_c, 3, 54, 69
5, 120476, Note_off_c, 3, 54, 64
5, 120480, Note_on_c, 3, 55, 60
5, 120716, Note_off_c, 3, 55, 64
5, 120720, Note_on_c, 3, 52, 71
5, 120960, Note_off_c, 3, 52, 64
5, 120960, Note_on_c, 3, 57, 84
5, 121196, Note_off_c, 3, 57, 64
5, 121200, Note_on_c, 3, 55, 71
5, 121436, Note_off_c, 3, 55, 64
5, 121440, Note_on_c, 3, 57, 73
5, 121680, Note_off_c, 3, 57, 64
5, 121680, Note_on_c, 3, 45, 55
5, 121920, Note_off_c, 3, 45, 64
5, 121920, Note_on_c, 3, 50, 90
5, 122156, Note_off_c, 3, 50, 64
5, 122160, Note_on_c, 3, 45, 81
5, 122396, Note_off_c, 3, 45, 64
5, 122400, Note_on_c, 3, 38, 68
5, 122880, Note_off_c, 3, 38, 64
5, 122880, Note_on_c, 3, 62, 77
5, 123116, Note_off_c, 3, 62, 64
5, 123120, Note_on_c, 3, 61, 85
5, 123356, Note_off_c, 3, 61, 64
5, 123360, Note_on_c, 3, 62, 78
5, 123596, Note_off_c, 3, 62, 64
5, 123600, Note_on_c, 3, 57, 80
5, 123836, Note_off_c, 3, 57, 64
5, 123840, Note_on_c, 3, 59, 72
5, 124076, Note_off_c, 3, 59, 64
5, 124080, Note_on_c, 3, 57, 60
5, 124316, Note_off_c, 3, 57, 64
5, 124320, Note_on_c, 3, 59, 67
5, 124556, Note_off_c, 3, 59, 64
5, 124560, Note_on_c, 3, 55, 61
5, 124796, Note_off_c, 3, 55, 64
5, 124800, Note_on_c, 3, 60, 90
5, 124916, Note_off_c, 3, 60, 64
5, 124920, Note_on_c, 3, 48, 77
5, 125036, Note_off_c, 3, 48, 64
5, 125040, Note_on_c, 3, 47, 70
5, 125156, Note_off_c, 3, 47, 64
5, 125160, Note_on_c, 3, 50, 68
5, 125280, Note_off_c, 3, 50, 64
5, 125280, Note_on_c, 3, 48, 68
5, 125400, Note_off_c, 3, 48, 64
5, 125400, Note_on_c, 3, 47, 65
5, 125516, Note_off_c, 3, 47, 64
5, 125520, Note_on_c, 3, 45, 59
5, 125636, Note_off_c, 3, 45, 64
5, 125640, Note_on_c, 3, 48, 65
5, 125756, Note_off_c, 3, 48, 64
5, 125760, Note_on_c, 3, 47, 49
5, 125876, Note_off_c, 3, 47, 64
5, 125880, Note_on_c, 3, 59, 77
5, 125996, Note_off_c, 3, 59, 64
5, 126000, Note_on_c, 3, 57, 77
5, 126116, Note_off_c, 3, 57, 64
5, 126120, Note_on_c, 3, 60, 77
5, 126236, Note_off_c, 3, 60, 64
5, 126240, Note_on_c, 3, 59, 77
5, 126356, Note_off_c, 3, 59, 64
5, 126360, Note_on_c, 3, 57, 77
5, 126476, Note_off_c, 3, 57, 64
5, 126480, Note_on_c, 3, 55, 77
5, 126596, Note_off_c, 3, 55, 64
5, 126600, Note_on_c, 3, 54, 77
5, 126716, Note_off_c, 3, 54, 64
5, 126720, Note_on_c, 3, 55, 92
5, 126960, Note_off_c, 3, 55, 64
5, 126960, Note_on_c, 3, 54, 94
5, 127200, Note_off_c, 3, 54, 64
5, 127200, Note_on_c, 3, 55, 75
5, 127440, Note_off_c, 3, 55, 64
5, 127440, Note_on_c, 3, 52, 81
5, 127680, Note_off_c, 3, 52, 64
5, 127680, Note_on_c, 3, 57, 80
5, 127920, Note_off_c, 3, 57, 64
5, 127920, Note_on_c, 3, 55, 75
5, 128160, Note_off_c, 3, 55, 64
5, 128160, Note_on_c, 3, 57, 86
5, 128400, Note_off_c, 3, 57, 64
5, 128400, Note_on_c, 3, 54, 92
5, 128640, Note_off_c, 3, 54, 64
5, 128640, Note_on_c, 3, 59, 100
5, 128880, Note_off_c, 3, 59, 64
5, 128880, Note_on_c, 3, 58, 101
5, 129120, Note_off_c, 3, 58, 64
5, 129120, Note_on_c, 3, 59, 102
5, 129360, Note_off_c, 3, 59, 64
5, 129360, Note_on_c, 3, 47, 66
5, 129600, Note_off_c, 3, 47, 64
5, 129600, Note_on_c, 3, 40, 89
5, 129720, Note_off_c, 3, 40, 64
5, 129720, Note_on_c, 3, 52, 84
5, 129840, Note_off_c, 3, 52, 64
5, 129840, Note_on_c, 3, 51, 90
5, 129960, Note_off_c, 3, 51, 64
5, 129960, Note_on_c, 3, 54, 90
5, 130080, Note_off_c, 3, 54, 64
5, 130080, Note_on_c, 3, 52, 80
5, 130200, Note_off_c, 3, 52, 64
5, 130200, Note_on_c, 3, 50, 70
5, 130320, Note_off_c, 3, 50, 64
5, 130320, Note_on_c, 3, 48, 67
5, 130440, Note_off_c, 3, 48, 64
5, 130440, Note_on_c, 3, 47, 73
5, 130560, Note_off_c, 3, 47, 64
5, 130560, Note_on_c, 3, 48, 93
5, 130800, Note_off_c, 3, 48, 64
5, 130800, Note_on_c, 3, 47, 85
5, 131040, Note_off_c, 3, 47, 64
5, 131040, Note_on_c, 3, 48, 100
5, 131280, Note_off_c, 3, 48, 64
5, 131280, Note_on_c, 3, 57, 117
5, 131520, Note_off_c, 3, 57, 64
5, 131520, Note_on_c, 3, 47, 78
5, 131760, Note_off_c, 3, 47, 64
5, 131760, Note_on_c, 3, 45, 76
5, 132000, Note_off_c, 3, 45, 64
5, 132000, Note_on_c, 3, 47, 85
5, 132240, Note_off_c, 3, 47, 64
5, 132240, Note_on_c, 3, 55, 106
5, 132480, Note_off_c, 3, 55, 64
5, 132480, Note_on_c, 3, 45, 68
5, 132720, Note_off_c, 3, 45, 64
5, 132720, Note_on_c, 3, 43, 69
5, 132960, Note_off_c, 3, 43, 64
5, 132960, Note_on_c, 3, 45, 76
5, 133200, Note_off_c, 3, 45, 64
5, 133200, Note_on_c, 3, 55, 88
5, 133440, Note_off_c, 3, 55, 64
5, 133440, Note_on_c, 3, 54, 80
5, 133560, Note_off_c, 3, 54, 64
5, 133560, Note_on_c, 3, 50, 61
5, 133680, Note_off_c, 3, 50, 64
5, 133680, Note_on_c, 3, 48, 70
5, 133800, Note_off_c, 3, 48, 64
5, 133800, Note_on_c, 3, 52, 86
5, 133920, Note_off_c, 3, 52, 64
5, 133920, Note_on_c, 3, 50, 76
5, 134040, Note_off_c, 3, 50, 64
5, 134040, Note_on_c, 3, 48, 73
5, 134160, Note_off_c, 3, 48, 64
5, 134160, Note_on_c, 3, 47, 51
5, 134280, Note_off_c, 3, 47, 64
5, 134280, Note_on_c, 3, 45, 58
5, 134400, Note_off_c, 3, 45, 64
5, 134400, Note_on_c, 3, 43, 66
5, 134520, Note_off_c, 3, 43, 64
5, 134520, Note_on_c, 3, 55, 66
5, 134640, Note_off_c, 3, 55, 64
5, 134640, Note_on_c, 3, 53, 66
5, 134760, Note_off_c, 3, 53, 64
5, 134760, Note_on_c, 3, 57, 66
5, 134880, Note_off_c, 3, 57, 64
5, 134880, Note_on_c, 3, 55, 66
5, 135000, Note_off_c, 3, 55, 64
5, 135000, Note_on_c, 3, 53, 66
5, 135120, Note_off_c, 3, 53, 64
5, 135120, Note_on_c, 3, 52, 66
5, 135240, Note_off_c, 3, 52, 64
5, 135240, Note_on_c, 3, 50, 66
5, 135360, Note_off_c, 3, 50, 64
5, 135360, Note_on_c, 3, 48, 66
5, 135480, Note_off_c, 3, 48, 64
5, 135480, Note_on_c, 3, 60, 66
5, 135600, Note_off_c, 3, 60, 64
5, 135600, Note_on_c, 3, 59, 66
5, 135720, Note_off_c, 3, 59, 64
5, 135720, Note_on_c, 3, 62, 66
5, 135840, Note_off_c, 3, 62, 64
5, 135840, Note_on_c, 3, 60, 66
5, 135960, Note_off_c, 3, 60, 64
5, 135960, Note_on_c, 3, 59, 66
5, 136080, Note_off_c, 3, 59, 64
5, 136080, Note_on_c, 3, 57, 66
5, 136200, Note_off_c, 3, 57, 64
5, 136200, Note_on_c, 3, 55, 66
5, 136320, Note_off_c, 3, 55, 64
5, 136320, Note_on_c, 3, 54, 66
5, 136440, Note_off_c, 3, 54, 64
5, 136440, Note_on_c, 3, 55, 66
5, 136560, Note_off_c, 3, 55, 64
5, 136560, Note_on_c, 3, 54, 66
5, 136680, Note_off_c, 3, 54, 64
5, 136680, Note_on_c, 3, 57, 66
5, 136800, Note_off_c, 3, 57, 64
5, 136800, Note_on_c, 3, 50, 66
5, 137040, Note_off_c, 3, 50, 64
5, 137040, Note_on_c, 3, 54, 66
5, 137280, Note_off_c, 3, 54, 64
5, 137280, Note_on_c, 3, 43, 66
5, 137520, Note_off_c, 3, 43, 64
5, 137520, Note_on_c, 3, 55, 66
5, 137640, Note_off_c, 3, 55, 64
5, 137640, Note_on_c, 3, 54, 66
5, 137760, Note_off_c, 3, 54, 64
5, 137760, Note_on_c, 3, 55, 66
5, 137880, Note_off_c, 3, 55, 64
5, 137880, Note_on_c, 3, 57, 66
5, 138000, Note_off_c, 3, 57, 64
5, 138000, Note_on_c, 3, 59, 66
5, 138120, Note_off_c, 3, 59, 64
5, 138120, Note_on_c, 3, 60, 66
5, 138240, Note_off_c, 3, 60, 64
5, 138240, Note_on_c, 3, 62, 77
5, 138476, Note_off_c, 3, 62, 64
5, 138480, Note_on_c, 3, 61, 85
5, 138716, Note_off_c, 3, 61, 64
5, 138720, Note_on_c, 3, 62, 78
5, 138956, Note_off_c, 3, 62, 64
5, 138960, Note_on_c, 3, 57, 80
5, 139196, Note_off_c, 3, 57, 64
5, 139200, Note_on_c, 3, 59, 72
5, 139436, Note_off_c, 3, 59, 64
5, 139440, Note_on_c, 3, 57, 60
5, 139676, Note_off_c, 3, 57, 64
5, 139680, Note_on_c, 3, 59, 67
5, 139916, Note_off_c, 3, 59, 64
5, 139920, Note_on_c, 3, 55, 61
5, 140156, Note_off_c, 3, 55, 64
5, 140160, Note_on_c, 3, 60, 90
5, 140276, Note_off_c, 3, 60, 64
5, 140280, Note_on_c, 3, 48, 77
5, 140396, Note_off_c, 3, 48, 64
5, 140400, Note_on_c, 3, 47, 70
5, 140516, Note_off_c, 3, 47, 64
5, 140520, Note_on_c, 3, 50, 68
5, 140640, Note_off_c, 3, 50, 64
5, 140640, Note_on_c, 3, 48, 68
5, 140760, Note_off_c, 3, 48, 64
5, 140760, Note_on_c, 3, 47, 65
5, 140876, Note_off_c, 3, 47, 64
5, 140880, Note_on_c, 3, 45, 59
5, 140996, Note_off_c, 3, 45, 64
5, 141000, Note_on_c, 3, 48, 65
5, 141116, Note_off_c, 3, 48, 64
5, 141120, Note_on_c, 3, 47, 49
5, 141236, Note_off_c, 3, 47, 64
5, 141240, Note_on_c, 3, 59, 77
5, 141356, Note_off_c, 3, 59, 64
5, 141360, Note_on_c, 3, 57, 77
5, 141476, Note_off_c, 3, 57, 64
5, 141480, Note_on_c, 3, 60, 77
5, 141596, Note_off_c, 3, 60, 64
5, 141600, Note_on_c, 3, 59, 77
5, 141716, Note_off_c, 3, 59, 64
5, 141720, Note_on_c, 3, 57, 77
5, 141836, Note_off_c, 3, 57, 64
5, 141840, Note_on_c, 3, 55, 77
5, 141956, Note_off_c, 3, 55, 64
5, 141960, Note_on_c, 3, 54, 77
5, 142076, Note_off_c, 3, 54, 64
5, 142080, Note_on_c, 3, 55, 92
5, 142320, Note_off_c, 3, 55, 64
5, 142320, Note_on_c, 3, 54, 94
5, 142560, Note_off_c, 3, 54, 64
5, 142560, Note_on_c, 3, 55, 75
5, 142800, Note_off_c, 3, 55, 64
5, 142800, Note_on_c, 3, 52, 81
5, 143040, Note_off_c, 3, 52, 64
5, 143040, Note_on_c, 3, 57, 80
5, 143280, Note_off_c, 3, 57, 64
5, 143280, Note_on_c, 3, 55, 75
5, 143520, Note_off_c, 3, 55, 64
5, 143520, Note_on_c, 3, 57, 86
5, 143760, Note_off_c, 3, 57, 64
5, 143760, Note_on_c, 3, 54, 92
5, 144000, Note_off_c, 3, 54, 64
5, 144000, Note_on_c, 3, 59, 100
5, 144240, Note_off_c, 3, 59, 64
5, 144240, Note_on_c, 3, 58, 101
5, 144480, Note_off_c, 3, 58, 64
5, 144480, Note_on_c, 3, 59, 102
5, 144720, Note_off_c, 3, 59, 64
5, 144720, Note_on_c, 3, 47, 66
5, 144960, Note_off_c, 3, 47, 64
5, 144960, Note_on_c, 3, 40, 89
5, 145080, Note_off_c, 3, 40, 64
5, 145080, Note_on_c, 3, 52, 84
5, 145200, Note_off_c, 3, 52, 64
5, 145200, Note_on_c, 3, 51, 90
5, 145320, Note_off_c, 3, 51, 64
5, 145320, Note_on_c, 3, 54, 90
5, 145440, Note_off_c, 3, 54, 64
5, 145440, Note_on_c, 3, 52, 80
5, 145560, Note_off_c, 3, 52, 64
5, 145560, Note_on_c, 3, 50, 70
5, 145680, Note_off_c, 3, 50, 64
5, 145680, Note_on_c, 3, 48, 67
5, 145800, Note_off_c, 3, 48, 64
5, 145800, Note_on_c, 3, 47, 73
5, 145920, Note_off_c, 3, 47, 64
5, 145920, Note_on_c, 3, 48, 93
5, 146160, Note_off_c, 3, 48, 64
5, 146160, Note_on_c, 3, 47, 85
5, 146400, Note_off_c, 3, 47, 64
5, 146400, Note_on_c, 3, 48, 100
5, 146640, Note_off_c, 3, 48, 64
5, 146640, Note_on_c, 3, 57, 117
5, 146880, Note_off_c, 3, 57, 64
5, 146880, Note_on_c, 3, 47, 78
5, 147120, Note_off_c, 3, 47, 64
5, 147120, Note_on_c, 3, 45, 76
5, 147360, Note_off_c, 3, 45, 64
5, 147360, Note_on_c, 3, 47, 85
5, 147600, Note_off_c, 3, 47, 64
5, 147600, Note_on_c, 3, 55, 106
5, 147840, Note_off_c, 3, 55, 64
5, 147840, Note_on_c, 3, 45, 68
5, 148080, Note_off_c, 3, 45, 64
5, 148080, Note_on_c, 3, 43, 69
5, 148320, Note_off_c, 3, 43, 64
5, 148320, Note_on_c, 3, 45, 76
5, 148560, Note_off_c, 3, 45, 64
5, 148560, Note_on_c, 3, 55, 88
5, 148800, Note_off_c, 3, 55, 64
5, 148800, Note_on_c, 3, 54, 80
5, 148920, Note_off_c, 3, 54, 64
5, 148920, Note_on_c, 3, 50, 61
5, 149040, Note_off_c, 3, 50, 64
5, 149040, Note_on_c, 3, 48, 70
5, 149160, Note_off_c, 3, 48, 64
5, 149160, Note_on_c, 3, 52, 86
5, 149280, Note_off_c, 3, 52, 64
5, 149280, Note_on_c, 3, 50, 76
5, 149400, Note_off_c, 3, 50, 64
5, 149400, Note_on_c, 3, 48, 73
5, 149520, Note_off_c, 3, 48, 64
5, 149520, Note_on_c, 3, 47, 51
5, 149640, Note_off_c, 3, 47, 64
5, 149640, Note_on_c, 3, 45, 58
5, 149760, Note_off_c, 3, 45, 64
5, 149760, Note_on_c, 3, 43, 66
5, 149880, Note_off_c, 3, 43, 64
5, 149880, Note_on_c, 3, 55, 66
5, 150000, Note_off_c, 3, 55, 64
5, 150000, Note_on_c, 3, 53, 66
5, 150120, Note_off_c, 3, 53, 64
5, 150120, Note_on_c, 3, 57, 66
5, 150240, Note_off_c, 3, 57, 64
5, 150240, Note_on_c, 3, 55, 66
5, 150360, Note_off_c, 3, 55, 64
5, 150360, Note_on_c, 3, 53, 66
5, 150480, Note_off_c, 3, 53, 64
5, 150480, Note_on_c, 3, 52, 66
5, 150600, Note_off_c, 3, 52, 64
5, 150600, Note_on_c, 3, 50, 66
5, 150720, Note_off_c, 3, 50, 64
5, 150720, Note_on_c, 3, 48, 66
5, 150840, Note_off_c, 3, 48, 64
5, 150840, Note_on_c, 3, 60, 66
5, 150960, Note_off_c, 3, 60, 64
5, 150960, Note_on_c, 3, 59, 66
5, 151080, Note_off_c, 3, 59, 64
5, 151080, Note_on_c, 3, 62, 66
5, 151200, Note_off_c, 3, 62, 64
5, 151200, Note_on_c, 3, 60, 66
5, 151320, Note_off_c, 3, 60, 64
5, 151320, Note_on_c, 3, 59, 66
5, 151440, Note_off_c, 3, 59, 64
5, 151440, Note_on_c, 3, 57, 66
5, 151560, Note_off_c, 3, 57, 64
5, 151560, Note_on_c, 3, 55, 66
5, 151680, Note_off_c, 3, 55, 64
5, 151680, Note_on_c, 3, 54, 66
5, 151800, Note_off_c, 3, 54, 64
5, 151800, Note_on_c, 3, 55, 66
5, 151920, Note_off_c, 3, 55, 64
5, 151920, Note_on_c, 3, 54, 66
5, 152040, Note_off_c, 3, 54, 64
5, 152040, Note_on_c, 3, 57, 66
5, 152160, Note_off_c, 3, 57, 64
5, 152160, Note_on_c, 3, 50, 66
5, 152400, Note_off_c, 3, 50, 64
5, 152400, Note_on_c, 3, 54, 66
5, 152640, Note_off_c, 3, 54, 64
5, 152640, Note_on_c, 3, 55, 107
5, 152760, Note_off_c, 3, 55, 64
5, 152880, Note_on_c, 3, 50, 102
5, 153000, Note_off_c, 3, 50, 64
5, 153120, Note_on_c, 3, 43, 111
5, 153600, Note_off_c, 3, 43, 64
5, 153600, Note_on_c, 3, 43, 92
5, 153836, Note_off_c, 3, 43, 64
5, 153840, Note_on_c, 3, 47, 95
5, 154076, Note_off_c, 3, 47, 64
5, 154080, Note_on_c, 3, 50, 90
5, 154316, Note_off_c, 3, 50, 64
5, 154320, Note_on_c, 3, 55, 84
5, 154556, Note_off_c, 3, 55, 64
5, 154560, Note_on_c, 3, 59, 93
5, 154796, Note_off_c, 3, 59, 64
5, 154800, Note_on_c, 3, 52, 98
5, 155036, Note_off_c, 3, 52, 64
5, 155040, Note_on_c, 3, 42, 92
5, 155276, Note_off_c, 3, 42, 64
5, 155280, Note_on_c, 3, 45, 97
5, 155516, Note_off_c, 3, 45, 64
5, 155520, Note_on_c, 3, 50, 93
5, 155756, Note_off_c, 3, 50, 64
5, 155760, Note_on_c, 3, 54, 99
5, 155996, Note_off_c, 3, 54, 64
5, 156000, Note_on_c, 3, 57, 89
5, 156236, Note_off_c, 3, 57, 64
5, 156240, Note_on_c, 3, 50, 85
5, 156476, Note_off_c, 3, 50, 64
5, 156480, Note_on_c, 3, 40, 107
5, 156716, Note_off_c, 3, 40, 64
5, 156720, Note_on_c, 3, 43, 101
5, 156956, Note_off_c, 3, 43, 64
5, 156960, Note_on_c, 3, 47, 92
5, 157196, Note_off_c, 3, 47, 64
5, 157200, Note_on_c, 3, 52, 97
5, 157436, Note_off_c, 3, 52, 64
5, 157440, Note_on_c, 3, 47, 95
5, 157676, Note_off_c, 3, 47, 64
5, 157680, Note_on_c, 3, 49, 99
5, 157916, Note_off_c, 3, 49, 64
5, 157920, Note_on_c, 3, 38, 94
5, 158156, Note_off_c, 3, 38, 64
5, 158160, Note_on_c, 3, 42, 66
5, 158396, Note_off_c, 3, 42, 64
5, 158400, Note_on_c, 3, 45, 66
5, 158636, Note_off_c, 3, 45, 64
5, 158640, Note_on_c, 3, 50, 94
5, 158876, Note_off_c, 3, 50, 64
5, 158880, Note_on_c, 3, 54, 94
5, 159116, Note_off_c, 3, 54, 64
5, 159120, Note_on_c, 3, 45, 94
5, 159356, Note_off_c, 3, 45, 64
5, 159360, Note_on_c, 3, 47, 101
5, 159476, Note_off_c, 3, 47, 64
5, 159480, Note_on_c, 3, 45, 88
5, 159596, Note_off_c, 3, 45, 64
5, 159600, Note_on_c, 3, 47, 92
5, 159716, Note_off_c, 3, 47, 64
5, 159720, Note_on_c, 3, 48, 86
5, 159836, Note_off_c, 3, 48, 64
5, 159840, Note_on_c, 3, 50, 93
5, 160196, Note_off_c, 3, 50, 64
5, 160200, Note_on_c, 3, 43, 88
5, 160316, Note_off_c, 3, 43, 64
5, 160320, Note_on_c, 3, 45, 85
5, 160436, Note_off_c, 3, 45, 64
5, 160440, Note_on_c, 3, 47, 89
5, 160556, Note_off_c, 3, 47, 64
5, 160560, Note_on_c, 3, 48, 97
5, 160676, Note_off_c, 3, 48, 64
5, 160680, Note_on_c, 3, 50, 88
5, 160796, Note_off_c, 3, 50, 64
5, 160800, Note_on_c, 3, 52, 93
5, 160916, Note_off_c, 3, 52, 64
5, 160920, Note_on_c, 3, 50, 88
5, 161036, Note_off_c, 3, 50, 64
5, 161040, Note_on_c, 3, 48, 74
5, 161156, Note_off_c, 3, 48, 64
5, 161160, Note_on_c, 3, 47, 74
5, 161276, Note_off_c, 3, 47, 64
5, 161280, Note_on_c, 3, 48, 80
5, 161396, Note_off_c, 3, 48, 64
5, 161400, Note_on_c, 3, 52, 97
5, 161516, Note_off_c, 3, 52, 64
5, 161520, Note_on_c, 3, 42, 47
5, 161636, Note_off_c, 3, 42, 64
5, 161640, Note_on_c, 3, 45, 85
5, 161756, Note_off_c, 3, 45, 64
5, 161760, Note_on_c, 3, 43, 85
5, 161876, Note_off_c, 3, 43, 64
5, 161880, Note_on_c, 3, 42, 101
5, 161996, Note_off_c, 3, 42, 64
5, 162000, Note_on_c, 3, 40, 57
5, 162116, Note_off_c, 3, 40, 64
5, 162120, Note_on_c, 3, 38, 82
5, 162236, Note_off_c, 3, 38, 64
5, 162240, Note_on_c, 3, 43, 92
5, 162356, Note_off_c, 3, 43, 64
5, 162360, Note_on_c, 3, 42, 65
5, 162476, Note_off_c, 3, 42, 64
5, 162480, Note_on_c, 3, 43, 63
5, 162596, Note_off_c, 3, 43, 64
5, 162600, Note_on_c, 3, 45, 84
5, 162716, Note_off_c, 3, 45, 64
5, 162720, Note_on_c, 3, 47, 76
5, 162836, Note_off_c, 3, 47, 64
5, 162840, Note_on_c, 3, 48, 88
5, 162956, Note_off_c, 3, 48, 64
5, 162960, Note_on_c, 3, 50, 66
5, 163076, Note_off_c, 3, 50, 64
5, 163080, Note_on_c, 3, 52, 100
5, 163200, Note_off_c, 3, 52, 64
5, 163200, Note_on_c, 3, 45, 66
5, 163316, Note_off_c, 3, 45, 64
5, 163320, Note_on_c, 3, 47, 91
5, 163436, Note_off_c, 3, 47, 64
5, 163440, Note_on_c, 3, 48, 86
5, 163556, Note_off_c, 3, 48, 64
5, 163560, Note_on_c, 3, 45, 78
5, 163676, Note_off_c, 3, 45, 64
5, 163680, Note_on_c, 3, 47, 86
5, 163796, Note_off_c, 3, 47, 64
5, 163800, Note_on_c, 3, 45, 89
5, 163916, Note_off_c, 3, 45, 64
5, 163920, Note_on_c, 3, 43, 72
5, 164036, Note_off_c, 3, 43, 64
5, 164040, Note_on_c, 3, 42, 97
5, 164156, Note_off_c, 3, 42, 64
5, 164160, Note_on_c, 3, 43, 97
5, 164516, Note_off_c, 3, 43, 64
5, 164520, Note_on_c, 3, 42, 90
5, 164636, Note_off_c, 3, 42, 64
5, 164640, Note_on_c, 3, 40, 66
5, 164756, Note_off_c, 3, 40, 64
5, 164760, Note_on_c, 3, 38, 76
5, 164876, Note_off_c, 3, 38, 64
5, 164880, Note_on_c, 3, 40, 83
5, 164996, Note_off_c, 3, 40, 64
5, 165000, Note_on_c, 3, 42, 81
5, 165116, Note_off_c, 3, 42, 64
5, 165120, Note_on_c, 3, 43, 69
5, 165236, Note_off_c, 3, 43, 64
5, 165240, Note_on_c, 3, 42, 85
5, 165356, Note_off_c, 3, 42, 64
5, 165360, Note_on_c, 3, 43, 81
5, 165476, Note_off_c, 3, 43, 64
5, 165480, Note_on_c, 3, 45, 89
5, 165596, Note_off_c, 3, 45, 64
5, 165600, Note_on_c, 3, 43, 75
5, 165716, Note_off_c, 3, 43, 64
5, 165720, Note_on_c, 3, 42, 77
5, 165836, Note_off_c, 3, 42, 64
5, 165840, Note_on_c, 3, 40, 78
5, 165956, Note_off_c, 3, 40, 64
5, 165960, Note_on_c, 3, 42, 81
5, 166076, Note_off_c, 3, 42, 64
5, 166080, Note_on_c, 3, 43, 65
5, 166196, Note_off_c, 3, 43, 64
5, 166200, Note_on_c, 3, 40, 73
5, 166316, Note_off_c, 3, 40, 64
5, 166320, Note_on_c, 3, 42, 80
5, 166436, Note_off_c, 3, 42, 64
5, 166440, Note_on_c, 3, 43, 71
5, 166556, Note_off_c, 3, 43, 64
5, 166560, Note_on_c, 3, 45, 86
5, 166676, Note_off_c, 3, 45, 64
5, 166680, Note_on_c, 3, 43, 92
5, 166796, Note_off_c, 3, 43, 64
5, 166800, Note_on_c, 3, 45, 84
5, 166916, Note_off_c, 3, 45, 64
5, 166920, Note_on_c, 3, 47, 80
5, 167036, Note_off_c, 3, 47, 64
5, 167040, Note_on_c, 3, 45, 76
5, 167156, Note_off_c, 3, 45, 64
5, 167160, Note_on_c, 3, 43, 77
5, 167276, Note_off_c, 3, 43, 64
5, 167280, Note_on_c, 3, 42, 86
5, 167396, Note_off_c, 3, 42, 64
5, 167400, Note_on_c, 3, 54, 86
5, 167516, Note_off_c, 3, 54, 64
5, 167520, Note_on_c, 3, 55, 89
5, 167636, Note_off_c, 3, 55, 64
5, 167640, Note_on_c, 3, 54, 92
5, 167756, Note_off_c, 3, 54, 64
5, 167760, Note_on_c, 3, 52, 70
5, 167876, Note_off_c, 3, 52, 64
5, 167880, Note_on_c, 3, 54, 88
5, 167996, Note_off_c, 3, 54, 64
5, 168000, Note_on_c, 3, 47, 96
5, 168116, Note_off_c, 3, 47, 64
5, 168120, Note_on_c, 3, 45, 72
5, 168236, Note_off_c, 3, 45, 64
5, 168240, Note_on_c, 3, 47, 77
5, 168356, Note_off_c, 3, 47, 64
5, 168360, Note_on_c, 3, 48, 90
5, 168476, Note_off_c, 3, 48, 64
5, 168480, Note_on_c, 3, 50, 82
5, 168596, Note_off_c, 3, 50, 64
5, 168600, Note_on_c, 3, 47, 58
5, 168716, Note_off_c, 3, 47, 64
5, 168720, Note_on_c, 3, 49, 85
5, 168836, Note_off_c, 3, 49, 64
5, 168840, Note_on_c, 3, 50, 83
5, 168956, Note_off_c, 3, 50, 64
5, 168960, Note_on_c, 3, 52, 96
5, 169076, Note_off_c, 3, 52, 64
5, 169080, Note_on_c, 3, 50, 83
5, 169196, Note_off_c, 3, 50, 64
5, 169200, Note_on_c, 3, 49, 84
5, 169316, Note_off_c, 3, 49, 64
5, 169320, Note_on_c, 3, 47, 85
5, 169436, Note_off_c, 3, 47, 64
5, 169440, Note_on_c, 3, 45, 76
5, 169556, Note_off_c, 3, 45, 64
5, 169560, Note_on_c, 3, 52, 92
5, 169676, Note_off_c, 3, 52, 64
5, 169680, Note_on_c, 3, 50, 76
5, 169796, Note_off_c, 3, 50, 64
5, 169800, Note_on_c, 3, 49, 81
5, 169916, Note_off_c, 3, 49, 64
5, 169920, Note_on_c, 3, 50, 80
5, 170036, Note_off_c, 3, 50, 64
5, 170040, Note_on_c, 3, 47, 83
5, 170156, Note_off_c, 3, 47, 64
5, 170160, Note_on_c, 3, 49, 79
5, 170276, Note_off_c, 3, 49, 64
5, 170280, Note_on_c, 3, 45, 72
5, 170396, Note_off_c, 3, 45, 64
5, 170400, Note_on_c, 3, 47, 85
5, 170516, Note_off_c, 3, 47, 64
5, 170520, Note_on_c, 3, 49, 79
5, 170636, Note_off_c, 3, 49, 64
5, 170640, Note_on_c, 3, 50, 80
5, 170756, Note_off_c, 3, 50, 64
5, 170760, Note_on_c, 3, 52, 88
5, 170876, Note_off_c, 3, 52, 64
5, 170880, Note_on_c, 3, 54, 84
5, 170996, Note_off_c, 3, 54, 64
5, 171000, Note_on_c, 3, 47, 75
5, 171116, Note_off_c, 3, 47, 64
5, 171120, Note_on_c, 3, 49, 72
5, 171236, Note_off_c, 3, 49, 64
5, 171240, Note_on_c, 3, 50, 59
5, 171356, Note_off_c, 3, 50, 64
5, 171360, Note_on_c, 3, 52, 86
5, 171476, Note_off_c, 3, 52, 64
5, 171480, Note_on_c, 3, 54, 77
5, 171596, Note_off_c, 3, 54, 64
5, 171600, Note_on_c, 3, 55, 83
5, 171716, Note_off_c, 3, 55, 64
5, 171720, Note_on_c, 3, 54, 81
5, 171836, Note_off_c, 3, 54, 64
5, 171840, Note_on_c, 3, 52, 73
5, 171956, Note_off_c, 3, 52, 64
5, 171960, Note_on_c, 3, 50, 83
5, 172076, Note_off_c, 3, 50, 64
5, 172080, Note_on_c, 3, 52, 82
5, 172196, Note_off_c, 3, 52, 64
5, 172200, Note_on_c, 3, 46, 82
5, 172316, Note_off_c, 3, 46, 64
5, 172320, Note_on_c, 3, 47, 100
5, 172436, Note_off_c, 3, 47, 64
5, 172440, Note_on_c, 3, 49, 76
5, 172556, Note_off_c, 3, 49, 64
5, 172560, Note_on_c, 3, 50, 72
5, 172676, Note_off_c, 3, 50, 64
5, 172680, Note_on_c, 3, 49, 81
5, 172796, Note_off_c, 3, 49, 64
5, 172800, Note_on_c, 3, 47, 81
5, 172916, Note_off_c, 3, 47, 64
5, 172920, Note_on_c, 3, 45, 83
5, 173036, Note_off_c, 3, 45, 64
5, 173040, Note_on_c, 3, 43, 76
5, 173156, Note_off_c, 3, 43, 64
5, 173160, Note_on_c, 3, 42, 75
5, 173276, Note_off_c, 3, 42, 64
5, 173280, Note_on_c, 3, 43, 83
5, 173396, Note_off_c, 3, 43, 64
5, 173400, Note_on_c, 3, 47, 92
5, 173516, Note_off_c, 3, 47, 64
5, 173520, Note_on_c, 3, 45, 82
5, 173636, Note_off_c, 3, 45, 64
5, 173640, Note_on_c, 3, 43, 86
5, 173756, Note_off_c, 3, 43, 64
5, 173760, Note_on_c, 3, 42, 92
5, 173880, Note_off_c, 3, 42, 64
5, 173880, Note_on_c, 3, 45, 90
5, 174000, Note_off_c, 3, 45, 64
5, 174000, Note_on_c, 3, 43, 84
5, 174120, Note_off_c, 3, 43, 64
5, 174120, Note_on_c, 3, 42, 84
5, 174240, Note_off_c, 3, 42, 64
5, 174240, Note_on_c, 3, 40, 71
5, 174360, Note_off_c, 3, 40, 64
5, 174360, Note_on_c, 3, 38, 83
5, 174480, Note_off_c, 3, 38, 64
5, 174480, Note_on_c, 3, 43, 107
5, 174720, Note_off_c, 3, 43, 64
5, 174720, Note_on_c, 3, 40, 95
5, 174956, Note_off_c, 3, 40, 64
5, 174960, Note_on_c, 3, 45, 101
5, 175196, Note_off_c, 3, 45, 64
5, 175200, Note_on_c, 3, 38, 95
5, 175316, Note_off_c, 3, 38, 64
5, 175320, Note_on_c, 3, 42, 80
5, 175436, Note_off_c, 3, 42, 64
5, 175440, Note_on_c, 3, 45, 49
5, 175556, Note_off_c, 3, 45, 64
5, 175560, Note_on_c, 3, 50, 84
5, 175676, Note_off_c, 3, 50, 64
5, 175680, Note_on_c, 3, 45, 84
5, 175796, Note_off_c, 3, 45, 64
5, 175800, Note_on_c, 3, 42, 80
5, 175916, Note_off_c, 3, 42, 64
5, 175920, Note_on_c, 3, 38, 78
5, 176632, Note_off_c, 3, 38, 64
5, 176640, Note_on_c, 3, 43, 89
5, 176876, Note_off_c, 3, 43, 64
5, 176880, Note_on_c, 3, 47, 96
5, 177116, Note_off_c, 3, 47, 64
5, 177120, Note_on_c, 3, 50, 91
5, 177356, Note_off_c, 3, 50, 64
5, 177360, Note_on_c, 3, 55, 95
5, 177596, Note_off_c, 3, 55, 64
5, 177600, Note_on_c, 3, 59, 88
5, 177836, Note_off_c, 3, 59, 64
5, 177840, Note_on_c, 3, 52, 84
5, 178076, Note_off_c, 3, 52, 64
5, 178080, Note_on_c, 3, 42, 104
5, 178316, Note_off_c, 3, 42, 64
5, 178320, Note_on_c, 3, 45, 97
5, 178556, Note_off_c, 3, 45, 64
5, 178560, Note_on_c, 3, 50, 102
5, 178796, Note_off_c, 3, 50, 64
5, 178800, Note_on_c, 3, 54, 101
5, 179036, Note_off_c, 3, 54, 64
5, 179040, Note_on_c, 3, 57, 98
5, 179276, Note_off_c, 3, 57, 64
5, 179280, Note_on_c, 3, 50, 97
5, 179516, Note_off_c, 3, 50, 64
5, 179520, Note_on_c, 3, 40, 75
5, 179756, Note_off_c, 3, 40, 64
5, 179760, Note_on_c, 3, 43, 92
5, 179996, Note_off_c, 3, 43, 64
5, 180000, Note_on_c, 3, 47, 95
5, 180236, Note_off_c, 3, 47, 64
5, 180240, Note_on_c, 3, 52, 93
5, 180480, Note_off_c, 3, 52, 64
5, 180480, Note_on_c, 3, 47, 92
5, 180720, Note_off_c, 3, 47, 64
5, 180720, Note_on_c, 3, 49, 106
5, 180960, Note_off_c, 3, 49, 64
5, 180960, Note_on_c, 3, 38, 89
5, 181200, Note_off_c, 3, 38, 64
5, 181200, Note_on_c, 3, 42, 94
5, 181440, Note_off_c, 3, 42, 64
5, 181440, Note_on_c, 3, 45, 90
5, 181680, Note_off_c, 3, 45, 64
5, 181680, Note_on_c, 3, 50, 82
5, 181920, Note_off_c, 3, 50, 64
5, 181920, Note_on_c, 3, 54, 93
5, 182156, Note_off_c, 3, 54, 64
5, 182160, Note_on_c, 3, 45, 92
5, 182400, Note_off_c, 3, 45, 64
5, 182400, Note_on_c, 3, 47, 98
5, 182516, Note_off_c, 3, 47, 64
5, 182520, Note_on_c, 3, 45, 96
5, 182636, Note_off_c, 3, 45, 64
5, 182640, Note_on_c, 3, 47, 88
5, 182756, Note_off_c, 3, 47, 64
5, 182760, Note_on_c, 3, 48, 66
5, 182876, Note_off_c, 3, 48, 64
5, 182880, Note_on_c, 3, 50, 106
5, 183236, Note_off_c, 3, 50, 64
5, 183240, Note_on_c, 3, 43, 86
5, 183356, Note_off_c, 3, 43, 64
5, 183360, Note_on_c, 3, 45, 86
5, 183476, Note_off_c, 3, 45, 64
5, 183480, Note_on_c, 3, 47, 89
5, 183596, Note_off_c, 3, 47, 64
5, 183600, Note_on_c, 3, 48, 91
5, 183716, Note_off_c, 3, 48, 64
5, 183720, Note_on_c, 3, 50, 83
5, 183836, Note_off_c, 3, 50, 64
5, 183840, Note_on_c, 3, 52, 93
5, 183956, Note_off_c, 3, 52, 64
5, 183960, Note_on_c, 3, 50, 84
5, 184076, Note_off_c, 3, 50, 64
5, 184080, Note_on_c, 3, 48, 75
5, 184196, Note_off_c, 3, 48, 64
5, 184200, Note_on_c, 3, 47, 73
5, 184316, Note_off_c, 3, 47, 64
5, 184320, Note_on_c, 3, 48, 67
5, 184436, Note_off_c, 3, 48, 64
5, 184440, Note_on_c, 3, 52, 90
5, 184556, Note_off_c, 3, 52, 64
5, 184560, Note_on_c, 3, 42, 90
5, 184676, Note_off_c, 3, 42, 64
5, 184680, Note_on_c, 3, 45, 92
5, 184796, Note_off_c, 3, 45, 64
5, 184800, Note_on_c, 3, 43, 74
5, 184916, Note_off_c, 3, 43, 64
5, 184920, Note_on_c, 3, 42, 96
5, 185036, Note_off_c, 3, 42, 64
5, 185040, Note_on_c, 3, 40, 67
5, 185156, Note_off_c, 3, 40, 64
5, 185160, Note_on_c, 3, 38, 88
5, 185276, Note_off_c, 3, 38, 64
5, 185280, Note_on_c, 3, 43, 100
5, 185396, Note_off_c, 3, 43, 64
5, 185400, Note_on_c, 3, 42, 81
5, 185516, Note_off_c, 3, 42, 64
5, 185520, Note_on_c, 3, 43, 80
5, 185636, Note_off_c, 3, 43, 64
5, 185640, Note_on_c, 3, 45, 77
5, 185756, Note_off_c, 3, 45, 64
5, 185760, Note_on_c, 3, 47, 86
5, 185876, Note_off_c, 3, 47, 64
5, 185880, Note_on_c, 3, 48, 84
5, 185996, Note_off_c, 3, 48, 64
5, 186000, Note_on_c, 3, 50, 97
5, 186116, Note_off_c, 3, 50, 64
5, 186120, Note_on_c, 3, 52, 76
5, 186236, Note_off_c, 3, 52, 64
5, 186240, Note_on_c, 3, 45, 84
5, 186356, Note_off_c, 3, 45, 64
5, 186360, Note_on_c, 3, 47, 83
5, 186476, Note_off_c, 3, 47, 64
5, 186480, Note_on_c, 3, 48, 88
5, 186596, Note_off_c, 3, 48, 64
5, 186600, Note_on_c, 3, 45, 75
5, 186716, Note_off_c, 3, 45, 64
5, 186720, Note_on_c, 3, 47, 88
5, 186836, Note_off_c, 3, 47, 64
5, 186840, Note_on_c, 3, 45, 83
5, 186956, Note_off_c, 3, 45, 64
5, 186960, Note_on_c, 3, 43, 69
5, 187076, Note_off_c, 3, 43, 64
5, 187080, Note_on_c, 3, 42, 81
5, 187196, Note_off_c, 3, 42, 64
5, 187200, Note_on_c, 3, 43, 90
5, 187556, Note_off_c, 3, 43, 64
5, 187560, Note_on_c, 3, 42, 92
5, 187676, Note_off_c, 3, 42, 64
5, 187680, Note_on_c, 3, 40, 76
5, 187796, Note_off_c, 3, 40, 64
5, 187800, Note_on_c, 3, 38, 84
5, 187916, Note_off_c, 3, 38, 64
5, 187920, Note_on_c, 3, 40, 91
5, 188036, Note_off_c, 3, 40, 64
5, 188040, Note_on_c, 3, 42, 85
5, 188156, Note_off_c, 3, 42, 64
5, 188160, Note_on_c, 3, 43, 80
5, 188276, Note_off_c, 3, 43, 64
5, 188280, Note_on_c, 3, 42, 88
5, 188396, Note_off_c, 3, 42, 64
5, 188400, Note_on_c, 3, 43, 80
5, 188516, Note_off_c, 3, 43, 64
5, 188520, Note_on_c, 3, 45, 78
5, 188636, Note_off_c, 3, 45, 64
5, 188640, Note_on_c, 3, 43, 78
5, 188756, Note_off_c, 3, 43, 64
5, 188760, Note_on_c, 3, 42, 88
5, 188876, Note_off_c, 3, 42, 64
5, 188880, Note_on_c, 3, 40, 77
5, 188996, Note_off_c, 3, 40, 64
5, 189000, Note_on_c, 3, 42, 71
5, 189116, Note_off_c, 3, 42, 64
5, 189120, Note_on_c, 3, 43, 77
5, 189236, Note_off_c, 3, 43, 64
5, 189240, Note_on_c, 3, 40, 71
5, 189356, Note_off_c, 3, 40, 64
5, 189360, Note_on_c, 3, 42, 75
5, 189476, Note_off_c, 3, 42, 64
5, 189480, Note_on_c, 3, 43, 70
5, 189596, Note_off_c, 3, 43, 64
5, 189600, Note_on_c, 3, 45, 89
5, 189716, Note_off_c, 3, 45, 64
5, 189720, Note_on_c, 3, 43, 80
5, 189836, Note_off_c, 3, 43, 64
5, 189840, Note_on_c, 3, 45, 84
5, 189956, Note_off_c, 3, 45, 64
5, 189960, Note_on_c, 3, 47, 75
5, 190076, Note_off_c, 3, 47, 64
5, 190080, Note_on_c, 3, 45, 68
5, 190196, Note_off_c, 3, 45, 64
5, 190200, Note_on_c, 3, 43, 78
5, 190316, Note_off_c, 3, 43, 64
5, 190320, Note_on_c, 3, 42, 92
5, 190436, Note_off_c, 3, 42, 64
5, 190440, Note_on_c, 3, 54, 86
5, 190556, Note_off_c, 3, 54, 64
5, 190560, Note_on_c, 3, 55, 82
5, 190676, Note_off_c, 3, 55, 64
5, 190680, Note_on_c, 3, 54, 94
5, 190796, Note_off_c, 3, 54, 64
5, 190800, Note_on_c, 3, 52, 69
5, 190916, Note_off_c, 3, 52, 64
5, 190920, Note_on_c, 3, 54, 88
5, 191036, Note_off_c, 3, 54, 64
5, 191040, Note_on_c, 3, 47, 95
5, 191156, Note_off_c, 3, 47, 64
5, 191160, Note_on_c, 3, 45, 73
5, 191276, Note_off_c, 3, 45, 64
5, 191280, Note_on_c, 3, 47, 80
5, 191396, Note_off_c, 3, 47, 64
5, 191400, Note_on_c, 3, 48, 80
5, 191516, Note_off_c, 3, 48, 64
5, 191520, Note_on_c, 3, 50, 77
5, 191636, Note_off_c, 3, 50, 64
5, 191640, Note_on_c, 3, 47, 77
5, 191756, Note_off_c, 3, 47, 64
5, 191760, Note_on_c, 3, 49, 79
5, 191876, Note_off_c, 3, 49, 64
5, 191880, Note_on_c, 3, 50, 80
5, 191996, Note_off_c, 3, 50, 64
5, 192000, Note_on_c, 3, 52, 85
5, 192116, Note_off_c, 3, 52, 64
5, 192120, Note_on_c, 3, 50, 78
5, 192236, Note_off_c, 3, 50, 64
5, 192240, Note_on_c, 3, 49, 77
5, 192356, Note_off_c, 3, 49, 64
5, 192360, Note_on_c, 3, 47, 80
5, 192476, Note_off_c, 3, 47, 64
5, 192480, Note_on_c, 3, 45, 80
5, 192596, Note_off_c, 3, 45, 64
5, 192600, Note_on_c, 3, 52, 93
5, 192716, Note_off_c, 3, 52, 64
5, 192720, Note_on_c, 3, 50, 84
5, 192836, Note_off_c, 3, 50, 64
5, 192840, Note_on_c, 3, 49, 77
5, 192956, Note_off_c, 3, 49, 64
5, 192960, Note_on_c, 3, 50, 74
5, 193076, Note_off_c, 3, 50, 64
5, 193080, Note_on_c, 3, 47, 80
5, 193196, Note_off_c, 3, 47, 64
5, 193200, Note_on_c, 3, 49, 85
5, 193316, Note_off_c, 3, 49, 64
5, 193320, Note_on_c, 3, 45, 49
5, 193436, Note_off_c, 3, 45, 64
5, 193440, Note_on_c, 3, 47, 85
5, 193556, Note_off_c, 3, 47, 64
5, 193560, Note_on_c, 3, 49, 85
5, 193676, Note_off_c, 3, 49, 64
5, 193680, Note_on_c, 3, 50, 80
5, 193796, Note_off_c, 3, 50, 64
5, 193800, Note_on_c, 3, 52, 95
5, 193916, Note_off_c, 3, 52, 64
5, 193920, Note_on_c, 3, 54, 97
5, 194036, Note_off_c, 3, 54, 64
5, 194040, Note_on_c, 3, 47, 93
5, 194156, Note_off_c, 3, 47, 64
5, 194160, Note_on_c, 3, 49, 88
5, 194276, Note_off_c, 3, 49, 64
5, 194280, Note_on_c, 3, 50, 68
5, 194396, Note_off_c, 3, 50, 64
5, 194400, Note_on_c, 3, 52, 88
5, 194516, Note_off_c, 3, 52, 64
5, 194520, Note_on_c, 3, 54, 76
5, 194636, Note_off_c, 3, 54, 64
5, 194640, Note_on_c, 3, 55, 81
5, 194756, Note_off_c, 3, 55, 64
5, 194760, Note_on_c, 3, 54, 97
5, 194876, Note_off_c, 3, 54, 64
5, 194880, Note_on_c, 3, 52, 78
5, 194996, Note_off_c, 3, 52, 64
5, 195000, Note_on_c, 3, 50, 63
5, 195116, Note_off_c, 3, 50, 64
5, 195120, Note_on_c, 3, 52, 70
5, 195236, Note_off_c, 3, 52, 64
5, 195240, Note_on_c, 3, 46, 84
5, 195356, Note_off_c, 3, 46, 64
5, 195360, Note_on_c, 3, 47, 91
5, 195476, Note_off_c, 3, 47, 64
5, 195480, Note_on_c, 3, 49, 84
5, 195596, Note_off_c, 3, 49, 64
5, 195600, Note_on_c, 3, 50, 76
5, 195716, Note_off_c, 3, 50, 64
5, 195720, Note_on_c, 3, 49, 89
5, 195836, Note_off_c, 3, 49, 64
5, 195840, Note_on_c, 3, 47, 85
5, 195956, Note_off_c, 3, 47, 64
5, 195960, Note_on_c, 3, 45, 74
5, 196076, Note_off_c, 3, 45, 64
5, 196080, Note_on_c, 3, 43, 86
5, 196196, Note_off_c, 3, 43, 64
5, 196200, Note_on_c, 3, 42, 90
5, 196316, Note_off_c, 3, 42, 64
5, 196320, Note_on_c, 3, 43, 83
5, 196436, Note_off_c, 3, 43, 64
5, 196440, Note_on_c, 3, 47, 91
5, 196556, Note_off_c, 3, 47, 64
5, 196560, Note_on_c, 3, 45, 83
5, 196676, Note_off_c, 3, 45, 64
5, 196680, Note_on_c, 3, 43, 80
5, 196796, Note_off_c, 3, 43, 64
5, 196800, Note_on_c, 3, 42, 92
5, 196916, Note_off_c, 3, 42, 64
5, 196920, Note_on_c, 3, 45, 89
5, 197036, Note_off_c, 3, 45, 64
5, 197040, Note_on_c, 3, 43, 80
5, 197156, Note_off_c, 3, 43, 64
5, 197160, Note_on_c, 3, 42, 84
5, 197276, Note_off_c, 3, 42, 64
5, 197280, Note_on_c, 3, 40, 61
5, 197400, Note_off_c, 3, 40, 64
5, 197400, Note_on_c, 3, 38, 85
5, 197520, Note_off_c, 3, 38, 64
5, 197520, Note_on_c, 3, 43, 97
5, 197760, Note_off_c, 3, 43, 64
5, 197760, Note_on_c, 3, 40, 86
5, 198000, Note_off_c, 3, 40, 64
5, 198000, Note_on_c, 3, 45, 91
5, 198240, Note_off_c, 3, 45, 64
5, 198240, Note_on_c, 3, 38, 92
5, 198360, Note_off_c, 3, 38, 64
5, 198360, Note_on_c, 3, 42, 89
5, 198480, Note_off_c, 3, 42, 64
5, 198480, Note_on_c, 3, 45, 61
5, 198600, Note_off_c, 3, 45, 64
5, 198600, Note_on_c, 3, 50, 81
5, 198720, Note_off_c, 3, 50, 64
5, 198720, Note_on_c, 3, 45, 84
5, 198840, Note_off_c, 3, 45, 64
5, 198840, Note_on_c, 3, 42, 82
5, 198960, Note_off_c, 3, 42, 64
5, 198960, Note_on_c, 3, 38, 69
5, 199680, Note_off_c, 3, 38, 64
5, 199680, Note_on_c, 3, 50, 82
5, 199916, Note_off_c, 3, 50, 64
5, 199920, Note_on_c, 3, 54, 97
5, 200156, Note_off_c, 3, 54, 64
5, 200160, Note_on_c, 3, 57, 100
5, 200396, Note_off_c, 3, 57, 64
5, 200400, Note_on_c, 3, 62, 101
5, 200636, Note_off_c, 3, 62, 64
5, 200640, Note_on_c, 3, 60, 93
5, 200756, Note_off_c, 3, 60, 64
5, 200760, Note_on_c, 3, 59, 86
5, 200876, Note_off_c, 3, 59, 64
5, 200880, Note_on_c, 3, 57, 78
5, 200996, Note_off_c, 3, 57, 64
5, 201000, Note_on_c, 3, 55, 71
5, 201116, Note_off_c, 3, 55, 64
5, 201120, Note_on_c, 3, 54, 99
5, 201356, Note_off_c, 3, 54, 64
5, 201360, Note_on_c, 3, 57, 92
5, 201596, Note_off_c, 3, 57, 64
5, 201600, Note_on_c, 3, 50, 78
5, 201836, Note_off_c, 3, 50, 64
5, 201840, Note_on_c, 3, 55, 93
5, 202076, Note_off_c, 3, 55, 64
5, 202080, Note_on_c, 3, 57, 89
5, 202316, Note_off_c, 3, 57, 64
5, 202320, Note_on_c, 3, 59, 85
5, 202556, Note_off_c, 3, 59, 64
5, 202560, Note_on_c, 3, 60, 97
5, 202676, Note_off_c, 3, 60, 64
5, 202680, Note_on_c, 3, 62, 92
5, 202796, Note_off_c, 3, 62, 64
5, 202800, Note_on_c, 3, 60, 84
5, 202916, Note_off_c, 3, 60, 64
5, 202920, Note_on_c, 3, 59, 90
5, 203036, Note_off_c, 3, 59, 64
5, 203040, Note_on_c, 3, 57, 69
5, 203156, Note_off_c, 3, 57, 64
5, 203160, Note_on_c, 3, 55, 65
5, 203276, Note_off_c, 3, 55, 64
5, 203280, Note_on_c, 3, 54, 90
5, 203396, Note_off_c, 3, 54, 64
5, 203400, Note_on_c, 3, 52, 85
5, 203516, Note_off_c, 3, 52, 64
5, 203520, Note_on_c, 3, 54, 84
5, 203636, Note_off_c, 3, 54, 64
5, 203640, Note_on_c, 3, 55, 75
5, 203756, Note_off_c, 3, 55, 64
5, 203760, Note_on_c, 3, 57, 66
5, 203876, Note_off_c, 3, 57, 64
5, 203880, Note_on_c, 3, 54, 85
5, 203996, Note_off_c, 3, 54, 64
5, 204000, Note_on_c, 3, 59, 92
5, 204236, Note_off_c, 3, 59, 64
5, 204240, Note_on_c, 3, 54, 90
5, 204476, Note_off_c, 3, 54, 64
5, 204480, Note_on_c, 3, 55, 89
5, 204716, Note_off_c, 3, 55, 64
5, 204720, Note_on_c, 3, 57, 89
5, 204836, Note_off_c, 3, 57, 64
5, 204840, Note_on_c, 3, 60, 98
5, 204956, Note_off_c, 3, 60, 64
5, 204960, Note_on_c, 3, 59, 82
5, 205076, Note_off_c, 3, 59, 64
5, 205080, Note_on_c, 3, 57, 78
5, 205196, Note_off_c, 3, 57, 64
5, 205200, Note_on_c, 3, 55, 59
5, 205316, Note_off_c, 3, 55, 64
5, 205320, Note_on_c, 3, 54, 85
5, 205436, Note_off_c, 3, 54, 64
5, 205440, Note_on_c, 3, 55, 86
5, 205556, Note_off_c, 3, 55, 64
5, 205560, Note_on_c, 3, 57, 89
5, 205676, Note_off_c, 3, 57, 64
5, 205680, Note_on_c, 3, 55, 82
5, 205796, Note_off_c, 3, 55, 64
5, 205800, Note_on_c, 3, 54, 88
5, 205916, Note_off_c, 3, 54, 64
5, 205920, Note_on_c, 3, 52, 77
5, 206036, Note_off_c, 3, 52, 64
5, 206040, Note_on_c, 3, 50, 73
5, 206156, Note_off_c, 3, 50, 64
5, 206160, Note_on_c, 3, 48, 93
5, 206276, Note_off_c, 3, 48, 64
5, 206280, Note_on_c, 3, 47, 84
5, 206396, Note_off_c, 3, 47, 64
5, 206400, Note_on_c, 3, 45, 68
5, 206516, Note_off_c, 3, 45, 64
5, 206520, Note_on_c, 3, 47, 81
5, 206636, Note_off_c, 3, 47, 64
5, 206640, Note_on_c, 3, 48, 85
5, 206756, Note_off_c, 3, 48, 64
5, 206760, Note_on_c, 3, 45, 53
5, 206876, Note_off_c, 3, 45, 64
5, 206880, Note_on_c, 3, 47, 89
5, 207116, Note_off_c, 3, 47, 64
5, 207120, Note_on_c, 3, 54, 99
5, 207356, Note_off_c, 3, 54, 64
5, 207360, Note_on_c, 3, 59, 101
5, 207836, Note_off_c, 3, 59, 64
5, 207840, Note_on_c, 3, 55, 84
5, 208076, Note_off_c, 3, 55, 64
5, 208080, Note_on_c, 3, 52, 91
5, 208316, Note_off_c, 3, 52, 64
5, 208320, Note_on_c, 3, 60, 95
5, 208436, Note_off_c, 3, 60, 64
5, 208440, Note_on_c, 3, 62, 86
5, 208556, Note_off_c, 3, 62, 64
5, 208560, Note_on_c, 3, 60, 83
5, 208676, Note_off_c, 3, 60, 64
5, 208680, Note_on_c, 3, 59, 86
5, 208796, Note_off_c, 3, 59, 64
5, 208800, Note_on_c, 3, 57, 68
5, 208916, Note_off_c, 3, 57, 64
5, 208920, Note_on_c, 3, 55, 59
5, 209036, Note_off_c, 3, 55, 64
5, 209040, Note_on_c, 3, 54, 72
5, 209156, Note_off_c, 3, 54, 64
5, 209160, Note_on_c, 3, 52, 61
5, 209276, Note_off_c, 3, 52, 64
5, 209280, Note_on_c, 3, 54, 82
5, 209396, Note_off_c, 3, 54, 64
5, 209400, Note_on_c, 3, 59, 93
5, 209516, Note_off_c, 3, 59, 64
5, 209520, Note_on_c, 3, 57, 86
5, 209636, Note_off_c, 3, 57, 64
5, 209640, Note_on_c, 3, 59, 97
5, 209756, Note_off_c, 3, 59, 64
5, 209760, Note_on_c, 3, 52, 86
5, 209996, Note_off_c, 3, 52, 64
5, 210000, Note_on_c, 3, 55, 97
5, 210236, Note_off_c, 3, 55, 64
5, 210240, Note_on_c, 3, 59, 107
5, 210476, Note_off_c, 3, 59, 64
5, 210480, Note_on_c, 3, 64, 123
5, 210716, Note_off_c, 3, 64, 64
5, 210720, Note_on_c, 3, 52, 62
5, 210956, Note_off_c, 3, 52, 64
5, 210960, Note_on_c, 3, 50, 80
5, 211196, Note_off_c, 3, 50, 64
5, 211200, Note_on_c, 3, 48, 83
5, 211436, Note_off_c, 3, 48, 64
5, 211440, Note_on_c, 3, 60, 71
5, 211676, Note_off_c, 3, 60, 64
5, 211680, Note_on_c, 3, 59, 71
5, 211916, Note_off_c, 3, 59, 64
5, 211920, Note_on_c, 3, 57, 83
5, 212876, Note_off_c, 3, 57, 64
5, 212880, Note_on_c, 3, 60, 90
5, 213116, Note_off_c, 3, 60, 64
5, 213120, Note_on_c, 3, 57, 92
5, 213356, Note_off_c, 3, 57, 64
5, 213360, Note_on_c, 3, 54, 90
5, 213600, Note_off_c, 3, 54, 64
5, 213600, Note_on_c, 3, 50, 88
5, 213840, Note_off_c, 3, 50, 64
5, 213840, Note_on_c, 3, 62, 100
5, 214080, Note_off_c, 3, 62, 64
5, 214080, Note_on_c, 3, 55, 82
5, 214196, Note_off_c, 3, 55, 64
5, 214200, Note_on_c, 3, 57, 86
5, 214316, Note_off_c, 3, 57, 64
5, 214320, Note_on_c, 3, 55, 82
5, 214436, Note_off_c, 3, 55, 64
5, 214440, Note_on_c, 3, 53, 88
5, 214556, Note_off_c, 3, 53, 64
5, 214560, Note_on_c, 3, 52, 81
5, 214676, Note_off_c, 3, 52, 64
5, 214680, Note_on_c, 3, 50, 81
5, 214796, Note_off_c, 3, 50, 64
5, 214800, Note_on_c, 3, 48, 80
5, 215036, Note_off_c, 3, 48, 64
5, 215040, Note_on_c, 3, 52, 61
5, 215276, Note_off_c, 3, 52, 64
5, 215280, Note_on_c, 3, 48, 83
5, 215516, Note_off_c, 3, 48, 64
5, 215520, Note_on_c, 3, 45, 83
5, 215640, Note_off_c, 3, 45, 64
5, 215640, Note_on_c, 3, 47, 92
5, 215760, Note_off_c, 3, 47, 64
5, 215760, Note_on_c, 3, 48, 88
5, 215880, Note_off_c, 3, 48, 64
5, 215880, Note_on_c, 3, 45, 86
5, 215996, Note_off_c, 3, 45, 64
5, 216000, Note_on_c, 3, 47, 90
5, 216116, Note_off_c, 3, 47, 64
5, 216120, Note_on_c, 3, 48, 89
5, 216236, Note_off_c, 3, 48, 64
5, 216240, Note_on_c, 3, 50, 106
5, 216480, Note_off_c, 3, 50, 64
5, 216480, Note_on_c, 3, 38, 97
5, 216720, Note_off_c, 3, 38, 64
5, 216720, Note_on_c, 3, 54, 112
5, 216960, Note_off_c, 3, 54, 64
5, 216960, Note_on_c, 3, 55, 76
5, 217076, Note_off_c, 3, 55, 64
5, 217080, Note_on_c, 3, 57, 89
5, 217196, Note_off_c, 3, 57, 64
5, 217200, Note_on_c, 3, 59, 96
5, 217316, Note_off_c, 3, 59, 64
5, 217320, Note_on_c, 3, 55, 59
5, 217436, Note_off_c, 3, 55, 64
5, 217440, Note_on_c, 3, 57, 62
5, 217556, Note_off_c, 3, 57, 64
5, 217560, Note_on_c, 3, 59, 88
5, 217676, Note_off_c, 3, 59, 64
5, 217680, Note_on_c, 3, 60, 14
5, 217916, Note_off_c, 3, 60, 64
5, 217920, Note_on_c, 3, 64, 98
5, 218156, Note_off_c, 3, 64, 64
5, 218160, Note_on_c, 3, 57, 89
5, 218396, Note_off_c, 3, 57, 64
5, 218400, Note_on_c, 3, 62, 75
5, 218516, Note_off_c, 3, 62, 64
5, 218520, Note_on_c, 3, 60, 96
5, 218636, Note_off_c, 3, 60, 64
5, 218640, Note_on_c, 3, 59, 90
5, 218756, Note_off_c, 3, 59, 64
5, 218760, Note_on_c, 3, 62, 89
5, 218876, Note_off_c, 3, 62, 64
5, 218880, Note_on_c, 3, 60, 78
5, 218996, Note_off_c, 3, 60, 64
5, 219000, Note_on_c, 3, 59, 83
5, 219116, Note_off_c, 3, 59, 64
5, 219120, Note_on_c, 3, 60, 81
5, 219236, Note_off_c, 3, 60, 64
5, 219240, Note_on_c, 3, 59, 83
5, 219356, Note_off_c, 3, 59, 64
5, 219360, Note_on_c, 3, 57, 77
5, 219476, Note_off_c, 3, 57, 64
5, 219480, Note_on_c, 3, 55, 73
5, 219596, Note_off_c, 3, 55, 64
5, 219600, Note_on_c, 3, 54, 82
5, 219716, Note_off_c, 3, 54, 64
5, 219720, Note_on_c, 3, 57, 84
5, 219836, Note_off_c, 3, 57, 64
5, 219840, Note_on_c, 3, 55, 82
5, 219956, Note_off_c, 3, 55, 64
5, 219960, Note_on_c, 3, 54, 88
5, 220076, Note_off_c, 3, 54, 64
5, 220080, Note_on_c, 3, 52, 68
5, 220196, Note_off_c, 3, 52, 64
5, 220200, Note_on_c, 3, 50, 68
5, 220316, Note_off_c, 3, 50, 64
5, 220320, Note_on_c, 3, 48, 89
5, 220436, Note_off_c, 3, 48, 64
5, 220440, Note_on_c, 3, 47, 88
5, 220556, Note_off_c, 3, 47, 64
5, 220560, Note_on_c, 3, 48, 89
5, 220796, Note_off_c, 3, 48, 64
5, 220800, Note_on_c, 3, 45, 80
5, 221036, Note_off_c, 3, 45, 64
5, 221040, Note_on_c, 3, 50, 98
5, 221276, Note_off_c, 3, 50, 64
5, 221280, Note_on_c, 3, 43, 72
5, 221396, Note_off_c, 3, 43, 64
5, 221400, Note_on_c, 3, 47, 100
5, 221516, Note_off_c, 3, 47, 64
5, 221520, Note_on_c, 3, 50, 69
5, 221636, Note_off_c, 3, 50, 64
5, 221640, Note_on_c, 3, 55, 91
5, 221756, Note_off_c, 3, 55, 64
5, 221760, Note_on_c, 3, 50, 96
5, 221876, Note_off_c, 3, 50, 64
5, 221880, Note_on_c, 3, 47, 88
5, 221996, Note_off_c, 3, 47, 64
5, 222000, Note_on_c, 3, 43, 90
5, 222720, Note_off_c, 3, 43, 64
5, 222720, Note_on_c, 3, 50, 69
5, 222956, Note_off_c, 3, 50, 64
5, 222960, Note_on_c, 3, 54, 88
5, 223196, Note_off_c, 3, 54, 64
5, 223200, Note_on_c, 3, 57, 92
5, 223436, Note_off_c, 3, 57, 64
5, 223440, Note_on_c, 3, 62, 96
5, 223676, Note_off_c, 3, 62, 64
5, 223680, Note_on_c, 3, 60, 86
5, 223796, Note_off_c, 3, 60, 64
5, 223800, Note_on_c, 3, 59, 76
5, 223916, Note_off_c, 3, 59, 64
5, 223920, Note_on_c, 3, 57, 66
5, 224036, Note_off_c, 3, 57, 64
5, 224040, Note_on_c, 3, 55, 66
5, 224156, Note_off_c, 3, 55, 64
5, 224160, Note_on_c, 3, 54, 90
5, 224396, Note_off_c, 3, 54, 64
5, 224400, Note_on_c, 3, 57, 92
5, 224636, Note_off_c, 3, 57, 64
5, 224640, Note_on_c, 3, 50, 88
5, 224876, Note_off_c, 3, 50, 64
5, 224880, Note_on_c, 3, 55, 89
5, 225116, Note_off_c, 3, 55, 64
5, 225120, Note_on_c, 3, 57, 90
5, 225356, Note_off_c, 3, 57, 64
5, 225360, Note_on_c, 3, 59, 91
5, 225596, Note_off_c, 3, 59, 64
5, 225600, Note_on_c, 3, 60, 89
5, 225716, Note_off_c, 3, 60, 64
5, 225720, Note_on_c, 3, 62, 82
5, 225836, Note_off_c, 3, 62, 64
5, 225840, Note_on_c, 3, 60, 84
5, 225956, Note_off_c, 3, 60, 64
5, 225960, Note_on_c, 3, 59, 73
5, 226076, Note_off_c, 3, 59, 64
5, 226080, Note_on_c, 3, 57, 71
5, 226196, Note_off_c, 3, 57, 64
5, 226200, Note_on_c, 3, 55, 68
5, 226316, Note_off_c, 3, 55, 64
5, 226320, Note_on_c, 3, 54, 79
5, 226436, Note_off_c, 3, 54, 64
5, 226440, Note_on_c, 3, 52, 73
5, 226556, Note_off_c, 3, 52, 64
5, 226560, Note_on_c, 3, 54, 85
5, 226676, Note_off_c, 3, 54, 64
5, 226680, Note_on_c, 3, 55, 83
5, 226796, Note_off_c, 3, 55, 64
5, 226800, Note_on_c, 3, 57, 88
5, 226916, Note_off_c, 3, 57, 64
5, 226920, Note_on_c, 3, 54, 90
5, 227036, Note_off_c, 3, 54, 64
5, 227040, Note_on_c, 3, 59, 97
5, 227276, Note_off_c, 3, 59, 64
5, 227280, Note_on_c, 3, 54, 81
5, 227516, Note_off_c, 3, 54, 64
5, 227520, Note_on_c, 3, 55, 83
5, 227756, Note_off_c, 3, 55, 64
5, 227760, Note_on_c, 3, 57, 74
5, 227876, Note_off_c, 3, 57, 64
5, 227880, Note_on_c, 3, 60, 95
5, 227996, Note_off_c, 3, 60, 64
5, 228000, Note_on_c, 3, 59, 77
5, 228116, Note_off_c, 3, 59, 64
5, 228120, Note_on_c, 3, 57, 76
5, 228236, Note_off_c, 3, 57, 64
5, 228240, Note_on_c, 3, 55, 66
5, 228356, Note_off_c, 3, 55, 64
5, 228360, Note_on_c, 3, 54, 88
5, 228476, Note_off_c, 3, 54, 64
5, 228480, Note_on_c, 3, 55, 80
5, 228596, Note_off_c, 3, 55, 64
5, 228600, Note_on_c, 3, 57, 84
5, 228716, Note_off_c, 3, 57, 64
5, 228720, Note_on_c, 3, 55, 71
5, 228836, Note_off_c, 3, 55, 64
5, 228840, Note_on_c, 3, 54, 81
5, 228956, Note_off_c, 3, 54, 64
5, 228960, Note_on_c, 3, 52, 61
5, 229076, Note_off_c, 3, 52, 64
5, 229080, Note_on_c, 3, 50, 67
5, 229196, Note_off_c, 3, 50, 64
5, 229200, Note_on_c, 3, 48, 73
5, 229316, Note_off_c, 3, 48, 64
5, 229320, Note_on_c, 3, 47, 72
5, 229436, Note_off_c, 3, 47, 64
5, 229440, Note_on_c, 3, 45, 70
5, 229556, Note_off_c, 3, 45, 64
5, 229560, Note_on_c, 3, 47, 80
5, 229676, Note_off_c, 3, 47, 64
5, 229680, Note_on_c, 3, 48, 70
5, 229796, Note_off_c, 3, 48, 64
5, 229800, Note_on_c, 3, 45, 70
5, 229916, Note_off_c, 3, 45, 64
5, 229920, Note_on_c, 3, 47, 91
5, 230156, Note_off_c, 3, 47, 64
5, 230160, Note_on_c, 3, 54, 90
5, 230396, Note_off_c, 3, 54, 64
5, 230400, Note_on_c, 3, 59, 104
5, 230876, Note_off_c, 3, 59, 64
5, 230880, Note_on_c, 3, 55, 85
5, 231116, Note_off_c, 3, 55, 64
5, 231120, Note_on_c, 3, 52, 90
5, 231356, Note_off_c, 3, 52, 64
5, 231360, Note_on_c, 3, 60, 90
5, 231476, Note_off_c, 3, 60, 64
5, 231480, Note_on_c, 3, 62, 72
5, 231596, Note_off_c, 3, 62, 64
5, 231600, Note_on_c, 3, 60, 78
5, 231716, Note_off_c, 3, 60, 64
5, 231720, Note_on_c, 3, 59, 76
5, 231836, Note_off_c, 3, 59, 64
5, 231840, Note_on_c, 3, 57, 59
5, 231956, Note_off_c, 3, 57, 64
5, 231960, Note_on_c, 3, 55, 63
5, 232076, Note_off_c, 3, 55, 64
5, 232080, Note_on_c, 3, 54, 77
5, 232196, Note_off_c, 3, 54, 64
5, 232200, Note_on_c, 3, 52, 78
5, 232316, Note_off_c, 3, 52, 64
5, 232320, Note_on_c, 3, 54, 82
5, 232436, Note_off_c, 3, 54, 64
5, 232440, Note_on_c, 3, 59, 84
5, 232556, Note_off_c, 3, 59, 64
5, 232560, Note_on_c, 3, 57, 65
5, 232676, Note_off_c, 3, 57, 64
5, 232680, Note_on_c, 3, 59, 90
5, 232796, Note_off_c, 3, 59, 64
5, 232800, Note_on_c, 3, 52, 83
5, 233036, Note_off_c, 3, 52, 64
5, 233040, Note_on_c, 3, 55, 91
5, 233276, Note_off_c, 3, 55, 64
5, 233280, Note_on_c, 3, 59, 90
5, 233516, Note_off_c, 3, 59, 64
5, 233520, Note_on_c, 3, 64, 106
5, 233756, Note_off_c, 3, 64, 64
5, 233760, Note_on_c, 3, 52, 88
5, 233996, Note_off_c, 3, 52, 64
5, 234000, Note_on_c, 3, 50, 81
5, 234236, Note_off_c, 3, 50, 64
5, 234240, Note_on_c, 3, 48, 93
5, 234476, Note_off_c, 3, 48, 64
5, 234480, Note_on_c, 3, 60, 102
5, 234716, Note_off_c, 3, 60, 64
5, 234720, Note_on_c, 3, 59, 90
5, 234956, Note_off_c, 3, 59, 64
5, 234960, Note_on_c, 3, 57, 92
5, 235916, Note_off_c, 3, 57, 64
5, 235920, Note_on_c, 3, 60, 96
5, 236156, Note_off_c, 3, 60, 64
5, 236160, Note_on_c, 3, 57, 89
5, 236396, Note_off_c, 3, 57, 64
5, 236400, Note_on_c, 3, 54, 90
5, 236636, Note_off_c, 3, 54, 64
5, 236640, Note_on_c, 3, 50, 85
5, 236876, Note_off_c, 3, 50, 64
5, 236880, Note_on_c, 3, 62, 102
5, 237116, Note_off_c, 3, 62, 64
5, 237120, Note_on_c, 3, 55, 71
5, 237236, Note_off_c, 3, 55, 64
5, 237240, Note_on_c, 3, 57, 83
5, 237356, Note_off_c, 3, 57, 64
5, 237360, Note_on_c, 3, 55, 75
5, 237476, Note_off_c, 3, 55, 64
5, 237480, Note_on_c, 3, 53, 82
5, 237596, Note_off_c, 3, 53, 64
5, 237600, Note_on_c, 3, 52, 80
5, 237716, Note_off_c, 3, 52, 64
5, 237720, Note_on_c, 3, 50, 70
5, 237836, Note_off_c, 3, 50, 64
5, 237840, Note_on_c, 3, 48, 90
5, 238076, Note_off_c, 3, 48, 64
5, 238080, Note_on_c, 3, 52, 85
5, 238316, Note_off_c, 3, 52, 64
5, 238320, Note_on_c, 3, 48, 90
5, 238556, Note_off_c, 3, 48, 64
5, 238560, Note_on_c, 3, 45, 86
5, 238676, Note_off_c, 3, 45, 64
5, 238680, Note_on_c, 3, 47, 90
5, 238796, Note_off_c, 3, 47, 64
5, 238800, Note_on_c, 3, 48, 86
5, 238916, Note_off_c, 3, 48, 64
5, 238920, Note_on_c, 3, 45, 80
5, 239036, Note_off_c, 3, 45, 64
5, 239040, Note_on_c, 3, 47, 92
5, 239156, Note_off_c, 3, 47, 64
5, 239160, Note_on_c, 3, 48, 86
5, 239276, Note_off_c, 3, 48, 64
5, 239280, Note_on_c, 3, 50, 93
5, 239516, Note_off_c, 3, 50, 64
5, 239520, Note_on_c, 3, 38, 84
5, 239756, Note_off_c, 3, 38, 64
5, 239760, Note_on_c, 3, 54, 110
5, 239996, Note_off_c, 3, 54, 64
5, 240000, Note_on_c, 3, 55, 85
5, 240116, Note_off_c, 3, 55, 64
5, 240120, Note_on_c, 3, 57, 82
5, 240236, Note_off_c, 3, 57, 64
5, 240240, Note_on_c, 3, 59, 54
5, 240356, Note_off_c, 3, 59, 64
5, 240360, Note_on_c, 3, 55, 82
5, 240476, Note_off_c, 3, 55, 64
5, 240480, Note_on_c, 3, 57, 70
5, 240596, Note_off_c, 3, 57, 64
5, 240600, Note_on_c, 3, 59, 78
5, 240716, Note_off_c, 3, 59, 64
5, 240720, Note_on_c, 3, 60, 89
5, 240956, Note_off_c, 3, 60, 64
5, 240960, Note_on_c, 3, 64, 95
5, 241196, Note_off_c, 3, 64, 64
5, 241200, Note_on_c, 3, 57, 85
5, 241436, Note_off_c, 3, 57, 64
5, 241440, Note_on_c, 3, 62, 96
5, 241556, Note_off_c, 3, 62, 64
5, 241560, Note_on_c, 3, 60, 83
5, 241676, Note_off_c, 3, 60, 64
5, 241680, Note_on_c, 3, 59, 74
5, 241796, Note_off_c, 3, 59, 64
5, 241800, Note_on_c, 3, 62, 85
5, 241916, Note_off_c, 3, 62, 64
5, 241920, Note_on_c, 3, 60, 84
5, 242036, Note_off_c, 3, 60, 64
5, 242040, Note_on_c, 3, 59, 76
5, 242156, Note_off_c, 3, 59, 64
5, 242160, Note_on_c, 3, 60, 86
5, 242276, Note_off_c, 3, 60, 64
5, 242280, Note_on_c, 3, 59, 88
5, 242396, Note_off_c, 3, 59, 64
5, 242400, Note_on_c, 3, 57, 72
5, 242516, Note_off_c, 3, 57, 64
5, 242520, Note_on_c, 3, 55, 61
5, 242636, Note_off_c, 3, 55, 64
5, 242640, Note_on_c, 3, 54, 80
5, 242756, Note_off_c, 3, 54, 64
5, 242760, Note_on_c, 3, 57, 89
5, 242876, Note_off_c, 3, 57, 64
5, 242880, Note_on_c, 3, 55, 84
5, 242996, Note_off_c, 3, 55, 64
5, 243000, Note_on_c, 3, 54, 90
5, 243116, Note_off_c, 3, 54, 64
5, 243120, Note_on_c, 3, 52, 81
5, 243236, Note_off_c, 3, 52, 64
5, 243240, Note_on_c, 3, 50, 72
5, 243356, Note_off_c, 3, 50, 64
5, 243360, Note_on_c, 3, 48, 89
5, 243476, Note_off_c, 3, 48, 64
5, 243480, Note_on_c, 3, 47, 84
5, 243596, Note_off_c, 3, 47, 64
5, 243600, Note_on_c, 3, 48, 92
5, 243836, Note_off_c, 3, 48, 64
5, 243840, Note_on_c, 3, 45, 82
5, 244076, Note_off_c, 3, 45, 64
5, 244080, Note_on_c, 3, 50, 98
5, 244320, Note_off_c, 3, 50, 64
5, 244320, Note_on_c, 3, 43, 61
5, 244440, Note_off_c, 3, 43, 64
5, 244440, Note_on_c, 3, 47, 90
5, 244556, Note_off_c, 3, 47, 64
5, 244560, Note_on_c, 3, 50, 93
5, 244676, Note_off_c, 3, 50, 64
5, 244680, Note_on_c, 3, 55, 83
5, 244796, Note_off_c, 3, 55, 64
5, 244800, Note_on_c, 3, 50, 76
5, 244916, Note_off_c, 3, 50, 64
5, 244920, Note_on_c, 3, 47, 90
5, 245036, Note_off_c, 3, 47, 64
5, 245040, Note_on_c, 3, 43, 109
5, 245760, Note_off_c, 3, 43, 64
5, 248640, Note_on_c, 3, 55, 109
5, 249356, Note_off_c, 3, 55, 64
5, 249360, Note_on_c, 3, 54, 121
5, 250076, Note_off_c, 3, 54, 64
5, 250080, Note_on_c, 3, 52, 124
5, 250796, Note_off_c, 3, 52, 64
5, 251040, Note_on_c, 3, 50, 106
5, 251276, Note_off_c, 3, 50, 64
5, 251280, Note_on_c, 3, 54, 117
5, 251516, Note_off_c, 3, 54, 64
5, 251520, Note_on_c, 3, 47, 123
5, 252236, Note_off_c, 3, 47, 64
5, 252240, Note_on_c, 3, 48, 111
5, 252956, Note_off_c, 3, 48, 64
5, 252960, Note_on_c, 3, 50, 117
5, 253676, Note_off_c, 3, 50, 64
5, 253920, Note_on_c, 3, 47, 111
5, 254156, Note_off_c, 3, 47, 64
5, 254160, Note_on_c, 3, 50, 115
5, 254396, Note_off_c, 3, 50, 64
5, 254400, Note_on_c, 3, 43, 109
5, 254636, Note_off_c, 3, 43, 64
5, 254640, Note_on_c, 3, 55, 113
5, 255356, Note_off_c, 3, 55, 64
5, 255360, Note_on_c, 3, 54, 123
5, 256076, Note_off_c, 3, 54, 64
5, 256080, Note_on_c, 3, 52, 111
5, 256316, Note_off_c, 3, 52, 64
5, 256320, Note_on_c, 3, 55, 101
5, 256556, Note_off_c, 3, 55, 64
5, 256560, Note_on_c, 3, 49, 110
5, 256796, Note_off_c, 3, 49, 64
5, 256800, Note_on_c, 3, 57, 95
5, 257036, Note_off_c, 3, 57, 64
5, 257040, Note_on_c, 3, 61, 119
5, 257276, Note_off_c, 3, 61, 64
5, 257280, Note_on_c, 3, 54, 117
5, 257996, Note_off_c, 3, 54, 64
5, 258000, Note_on_c, 3, 55, 86
5, 258236, Note_off_c, 3, 55, 64
5, 258240, Note_on_c, 3, 43, 119
5, 258956, Note_off_c, 3, 43, 64
5, 258960, Note_on_c, 3, 42, 117
5, 259196, Note_off_c, 3, 42, 64
5, 259200, Note_on_c, 3, 45, 113
5, 259436, Note_off_c, 3, 45, 64
5, 259440, Note_on_c, 3, 38, 109
5, 259796, Note_off_c, 3, 38, 64
5, 259800, Note_on_c, 3, 50, 80
5, 259916, Note_off_c, 3, 50, 64
5, 259920, Note_on_c, 3, 52, 85
5, 260036, Note_off_c, 3, 52, 64
5, 260040, Note_on_c, 3, 54, 86
5, 260156, Note_off_c, 3, 54, 64
5, 260160, Note_on_c, 3, 55, 102
5, 260876, Note_off_c, 3, 55, 64
5, 260880, Note_on_c, 3, 54, 121
5, 261596, Note_off_c, 3, 54, 64
5, 261600, Note_on_c, 3, 52, 113
5, 262316, Note_off_c, 3, 52, 64
5, 262560, Note_on_c, 3, 50, 107
5, 262796, Note_off_c, 3, 50, 64
5, 262800, Note_on_c, 3, 54, 127
5, 263036, Note_off_c, 3, 54, 64
5, 263040, Note_on_c, 3, 47, 119
5, 263756, Note_off_c, 3, 47, 64
5, 263760, Note_on_c, 3, 48, 115
5, 264476, Note_off_c, 3, 48, 64
5, 264480, Note_on_c, 3, 50, 109
5, 265196, Note_off_c, 3, 50, 64
5, 265440, Note_on_c, 3, 47, 119
5, 265676, Note_off_c, 3, 47, 64
5, 265680, Note_on_c, 3, 50, 117
5, 265916, Note_off_c, 3, 50, 64
5, 265920, Note_on_c, 3, 43, 107
5, 266156, Note_off_c, 3, 43, 64
5, 266160, Note_on_c, 3, 55, 117
5, 266876, Note_off_c, 3, 55, 64
5, 266880, Note_on_c, 3, 54, 127
5, 267596, Note_off_c, 3, 54, 64
5, 267600, Note_on_c, 3, 52, 106
5, 267836, Note_off_c, 3, 52, 64
5, 267840, Note_on_c, 3, 55, 101
5, 268076, Note_off_c, 3, 55, 64
5, 268080, Note_on_c, 3, 49, 101
5, 268316, Note_off_c, 3, 49, 64
5, 268320, Note_on_c, 3, 57, 104
5, 268556, Note_off_c, 3, 57, 64
5, 268560, Note_on_c, 3, 61, 117
5, 268796, Note_off_c, 3, 61, 64
5, 268800, Note_on_c, 3, 54, 123
5, 269516, Note_off_c, 3, 54, 64
5, 269520, Note_on_c, 3, 55, 106
5, 269756, Note_off_c, 3, 55, 64
5, 269760, Note_on_c, 3, 43, 124
5, 270476, Note_off_c, 3, 43, 64
5, 270480, Note_on_c, 3, 42, 112
5, 270716, Note_off_c, 3, 42, 64
5, 270720, Note_on_c, 3, 45, 104
5, 270956, Note_off_c, 3, 45, 64
5, 270960, Note_on_c, 3, 38, 107
5, 271316, Note_off_c, 3, 38, 64
5, 271320, Note_on_c, 3, 57, 117
5, 271436, Note_off_c, 3, 57, 64
5, 271440, Note_on_c, 3, 59, 101
5, 271556, Note_off_c, 3, 59, 64
5, 271560, Note_on_c, 3, 61, 101
5, 271676, Note_off_c, 3, 61, 64
5, 271680, Note_on_c, 3, 62, 113
5, 272156, Note_off_c, 3, 62, 64
5, 272160, Note_on_c, 3, 60, 102
5, 272396, Note_off_c, 3, 60, 64
5, 272400, Note_on_c, 3, 59, 107
5, 272876, Note_off_c, 3, 59, 64
5, 272880, Note_on_c, 3, 55, 98
5, 273116, Note_off_c, 3, 55, 64
5, 273120, Note_on_c, 3, 60, 102
5, 273356, Note_off_c, 3, 60, 64
5, 273360, Note_on_c, 3, 54, 108
5, 273596, Note_off_c, 3, 54, 64
5, 273600, Note_on_c, 3, 57, 101
5, 273836, Note_off_c, 3, 57, 64
5, 273840, Note_on_c, 3, 59, 107
5, 274076, Note_off_c, 3, 59, 64
5, 274080, Note_on_c, 3, 51, 123
5, 274316, Note_off_c, 3, 51, 64
5, 274320, Note_on_c, 3, 47, 109
5, 274556, Note_off_c, 3, 47, 64
5, 274560, Note_on_c, 3, 52, 123
5, 274796, Note_off_c, 3, 52, 64
5, 274800, Note_on_c, 3, 55, 106
5, 275036, Note_off_c, 3, 55, 64
5, 275040, Note_on_c, 3, 52, 106
5, 275276, Note_off_c, 3, 52, 64
5, 275280, Note_on_c, 3, 57, 109
5, 275516, Note_off_c, 3, 57, 64
5, 275520, Note_on_c, 3, 54, 108
5, 275756, Note_off_c, 3, 54, 64
5, 275760, Note_on_c, 3, 52, 111
5, 275996, Note_off_c, 3, 52, 64
5, 276000, Note_on_c, 3, 57, 98
5, 276236, Note_off_c, 3, 57, 64
5, 276240, Note_on_c, 3, 59, 121
5, 276476, Note_off_c, 3, 59, 64
5, 276480, Note_on_c, 3, 47, 115
5, 276716, Note_off_c, 3, 47, 64
5, 276720, Note_on_c, 3, 52, 115
5, 277196, Note_off_c, 3, 52, 64
5, 277200, Note_on_c, 3, 50, 104
5, 277436, Note_off_c, 3, 50, 64
5, 277440, Note_on_c, 3, 48, 113
5, 278396, Note_off_c, 3, 48, 64
5, 278400, Note_on_c, 3, 47, 113
5, 279116, Note_off_c, 3, 47, 64
5, 279120, Note_on_c, 3, 45, 104
5, 279356, Note_off_c, 3, 45, 64
5, 279360, Note_on_c, 3, 48, 97
5, 279596, Note_off_c, 3, 48, 64
5, 279600, Note_on_c, 3, 42, 115
5, 279836, Note_off_c, 3, 42, 64
5, 279840, Note_on_c, 3, 38, 102
5, 280076, Note_off_c, 3, 38, 64
5, 280080, Note_on_c, 3, 42, 110
5, 280316, Note_off_c, 3, 42, 64
5, 280320, Note_on_c, 3, 43, 111
5, 280556, Note_off_c, 3, 43, 64
5, 280560, Note_on_c, 3, 47, 100
5, 280796, Note_off_c, 3, 47, 64
5, 280800, Note_on_c, 3, 43, 100
5, 281036, Note_off_c, 3, 43, 64
5, 281040, Note_on_c, 3, 48, 113
5, 281996, Note_off_c, 3, 48, 64
5, 282000, Note_on_c, 3, 47, 100
5, 282236, Note_off_c, 3, 47, 64
5, 282240, Note_on_c, 3, 50, 100
5, 282476, Note_off_c, 3, 50, 64
5, 282480, Note_on_c, 3, 43, 100
5, 282836, Note_off_c, 3, 43, 64
5, 282840, Note_on_c, 3, 57, 84
5, 282956, Note_off_c, 3, 57, 64
5, 282960, Note_on_c, 3, 59, 104
5, 283076, Note_off_c, 3, 59, 64
5, 283080, Note_on_c, 3, 60, 106
5, 283196, Note_off_c, 3, 60, 64
5, 283200, Note_on_c, 3, 62, 107
5, 283676, Note_off_c, 3, 62, 64
5, 283680, Note_on_c, 3, 60, 113
5, 283916, Note_off_c, 3, 60, 64
5, 283920, Note_on_c, 3, 59, 121
5, 284396, Note_off_c, 3, 59, 64
5, 284400, Note_on_c, 3, 55, 100
5, 284636, Note_off_c, 3, 55, 64
5, 284640, Note_on_c, 3, 60, 123
5, 284876, Note_off_c, 3, 60, 64
5, 284880, Note_on_c, 3, 54, 108
5, 285116, Note_off_c, 3, 54, 64
5, 285120, Note_on_c, 3, 57, 106
5, 285356, Note_off_c, 3, 57, 64
5, 285360, Note_on_c, 3, 59, 109
5, 285596, Note_off_c, 3, 59, 64
5, 285600, Note_on_c, 3, 51, 125
5, 285836, Note_off_c, 3, 51, 64
5, 285840, Note_on_c, 3, 47, 119
5, 286076, Note_off_c, 3, 47, 64
5, 286080, Note_on_c, 3, 52, 106
5, 286316, Note_off_c, 3, 52, 64
5, 286320, Note_on_c, 3, 55, 101
5, 286556, Note_off_c, 3, 55, 64
5, 286560, Note_on_c, 3, 52, 104
5, 286796, Note_off_c, 3, 52, 64
5, 286800, Note_on_c, 3, 57, 109
5, 287036, Note_off_c, 3, 57, 64
5, 287040, Note_on_c, 3, 54, 93
5, 287276, Note_off_c, 3, 54, 64
5, 287280, Note_on_c, 3, 52, 93
5, 287516, Note_off_c, 3, 52, 64
5, 287520, Note_on_c, 3, 57, 98
5, 287756, Note_off_c, 3, 57, 64
5, 287760, Note_on_c, 3, 59, 111
5, 287996, Note_off_c, 3, 59, 64
5, 288000, Note_on_c, 3, 47, 111
5, 288236, Note_off_c, 3, 47, 64
5, 288240, Note_on_c, 3, 52, 111
5, 288716, Note_off_c, 3, 52, 64
5, 288720, Note_on_c, 3, 50, 115
5, 288956, Note_off_c, 3, 50, 64
5, 288960, Note_on_c, 3, 48, 107
5, 289916, Note_off_c, 3, 48, 64
5, 289920, Note_on_c, 3, 47, 119
5, 290636, Note_off_c, 3, 47, 64
5, 290640, Note_on_c, 3, 45, 107
5, 290876, Note_off_c, 3, 45, 64
5, 290880, Note_on_c, 3, 48, 111
5, 291116, Note_off_c, 3, 48, 64
5, 291120, Note_on_c, 3, 42, 110
5, 291356, Note_off_c, 3, 42, 64
5, 291360, Note_on_c, 3, 38, 101
5, 291596, Note_off_c, 3, 38, 64
5, 291600, Note_on_c, 3, 42, 112
5, 291836, Note_off_c, 3, 42, 64
5, 291840, Note_on_c, 3, 43, 109
5, 292076, Note_off_c, 3, 43, 64
5, 292080, Note_on_c, 3, 47, 107
5, 292316, Note_off_c, 3, 47, 64
5, 292320, Note_on_c, 3, 43, 93
5, 292556, Note_off_c, 3, 43, 64
5, 292560, Note_on_c, 3, 48, 106
5, 293516, Note_off_c, 3, 48, 64
5, 293520, Note_on_c, 3, 47, 107
5, 293756, Note_off_c, 3, 47, 64
5, 293760, Note_on_c, 3, 50, 109
5, 293996, Note_off_c, 3, 50, 64
5, 294000, Note_on_c, 3, 43, 109
5, 294476, Note_off_c, 3, 43, 64
5, 294724, Note_on_c, 3, 55, 107
5, 294972, Note_off_c, 3, 55, 64
5, 295200, Note_on_c, 3, 71, 102
5, 295440, Note_off_c, 3, 71, 64
5, 295668, Note_on_c, 3, 55, 106
5, 296132, Note_off_c, 3, 55, 64
5, 296160, Note_on_c, 3, 54, 112
5, 296400, Note_off_c, 3, 54, 64
5, 296640, Note_on_c, 3, 69, 101
5, 296880, Note_off_c, 3, 69, 64
5, 297116, Note_on_c, 3, 54, 121
5, 297576, Note_off_c, 3, 54, 64
5, 297588, Note_on_c, 3, 52, 107
5, 297856, Note_off_c, 3, 52, 64
5, 298080, Note_on_c, 3, 67, 101
5, 298320, Note_off_c, 3, 67, 64
5, 298560, Note_on_c, 3, 52, 109
5, 299040, Note_off_c, 3, 52, 64
5, 299044, Note_on_c, 3, 50, 107
5, 299296, Note_off_c, 3, 50, 64
5, 299520, Note_on_c, 3, 66, 102
5, 299760, Note_off_c, 3, 66, 64
5, 300000, Note_on_c, 3, 50, 97
5, 300240, Note_off_c, 3, 50, 64
5, 300240, Note_on_c, 3, 48, 101
5, 300480, Note_off_c, 3, 48, 64
5, 300480, Note_on_c, 3, 47, 115
5, 300716, Note_off_c, 3, 47, 64
5, 300960, Note_on_c, 3, 74, 123
5, 301200, Note_off_c, 3, 74, 64
5, 301428, Note_on_c, 3, 47, 121
5, 301904, Note_off_c, 3, 47, 64
5, 301916, Note_on_c, 3, 48, 113
5, 302172, Note_off_c, 3, 48, 64
5, 302400, Note_on_c, 3, 76, 121
5, 302640, Note_off_c, 3, 76, 64
5, 302860, Note_on_c, 3, 48, 123
5, 303348, Note_off_c, 3, 48, 64
5, 303360, Note_on_c, 3, 50, 107
5, 303600, Note_off_c, 3, 50, 64
5, 303840, Note_on_c, 3, 69, 113
5, 304052, Note_off_c, 3, 69, 64
5, 304320, Note_on_c, 3, 50, 107
5, 304784, Note_off_c, 3, 50, 64
5, 304800, Note_on_c, 3, 43, 119
5, 305040, Note_off_c, 3, 43, 64
5, 305280, Note_on_c, 3, 71, 106
5, 305872, Note_on_c, 3, 69, 102
5, 305896, Note_off_c, 3, 71, 64
5, 305996, Note_off_c, 3, 69, 64
5, 305996, Note_on_c, 3, 67, 81
5, 306116, Note_on_c, 3, 66, 101
5, 306128, Note_off_c, 3, 67, 64
5, 306212, Note_off_c, 3, 66, 64
5, 306240, Note_on_c, 3, 67, 90
5, 306360, Note_off_c, 3, 67, 64
5, 306360, Note_on_c, 3, 71, 65
5, 306480, Note_on_c, 3, 73, 94
5, 306504, Note_off_c, 3, 71, 64
5, 306588, Note_off_c, 3, 73, 64
5, 306600, Note_on_c, 3, 74, 81
5, 306712, Note_on_c, 3, 76, 88
5, 306728, Note_off_c, 3, 74, 64
5, 306824, Note_on_c, 3, 78, 89
5, 306840, Note_off_c, 3, 76, 64
5, 306948, Note_on_c, 3, 76, 91
5, 306952, Note_off_c, 3, 78, 64
5, 307064, Note_on_c, 3, 74, 75
5, 307068, Note_off_c, 3, 76, 64
5, 307184, Note_on_c, 3, 73, 84
5, 307196, Note_off_c, 3, 74, 64
5, 307316, Note_off_c, 3, 73, 64
5, 307324, Note_on_c, 3, 71, 47
5, 307440, Note_on_c, 3, 69, 80
5, 307492, Note_off_c, 3, 71, 64
5, 307560, Note_off_c, 3, 69, 64
5, 307560, Note_on_c, 3, 67, 72
5, 307680, Note_off_c, 3, 67, 64
5, 307680, Note_on_c, 3, 66, 108
5, 307800, Note_on_c, 3, 69, 84
5, 307812, Note_off_c, 3, 66, 64
5, 307920, Note_off_c, 3, 69, 64
5, 307920, Note_on_c, 3, 71, 96
5, 308040, Note_off_c, 3, 71, 64
5, 308040, Note_on_c, 3, 73, 112
5, 308160, Note_off_c, 3, 73, 64
5, 308160, Note_on_c, 3, 74, 113
5, 308276, Note_off_c, 3, 74, 64
5, 308292, Note_on_c, 3, 76, 101
5, 308404, Note_on_c, 3, 74, 98
5, 308416, Note_off_c, 3, 76, 64
5, 308520, Note_on_c, 3, 73, 108
5, 308528, Note_off_c, 3, 74, 64
5, 308632, Note_on_c, 3, 71, 97
5, 308644, Note_off_c, 3, 73, 64
5, 308740, Note_off_c, 3, 71, 64
5, 308740, Note_on_c, 3, 69, 88
5, 308864, Note_on_c, 3, 67, 96
5, 308872, Note_off_c, 3, 69, 64
5, 308976, Note_on_c, 3, 66, 90
5, 308980, Note_off_c, 3, 67, 64
5, 309104, Note_off_c, 3, 66, 64
5, 309120, Note_on_c, 3, 64, 101
5, 309360, Note_on_c, 3, 66, 110
5, 309372, Note_off_c, 3, 64, 64
5, 309596, Note_off_c, 3, 66, 64
5, 309600, Note_on_c, 3, 67, 92
5, 309840, Note_on_c, 3, 71, 106
5, 309852, Note_off_c, 3, 67, 64
5, 310080, Note_on_c, 3, 76, 117
5, 310084, Note_off_c, 3, 71, 64
5, 310128, Note_on_c, 3, 74, 107
5, 310136, Note_off_c, 3, 76, 64
5, 310188, Note_on_c, 3, 76, 113
5, 310200, Note_off_c, 3, 74, 64
5, 310800, Note_on_c, 3, 74, 109
5, 310812, Note_off_c, 3, 76, 64
5, 311032, Note_on_c, 3, 73, 101
5, 311052, Note_off_c, 3, 74, 64
5, 311148, Note_on_c, 3, 76, 104
5, 311164, Note_off_c, 3, 73, 64
5, 311272, Note_on_c, 3, 71, 95
5, 311276, Note_off_c, 3, 76, 64
5, 311380, Note_on_c, 3, 76, 96
5, 311400, Note_off_c, 3, 71, 64
5, 311516, Note_on_c, 3, 69, 95
5, 311540, Note_off_c, 3, 76, 64
5, 311636, Note_on_c, 3, 76, 101
5, 311648, Note_off_c, 3, 69, 64
5, 311764, Note_off_c, 3, 76, 64
5, 311764, Note_on_c, 3, 67, 82
5, 311880, Note_on_c, 3, 76, 89
5, 311900, Note_off_c, 3, 67, 64
5, 312000, Note_on_c, 3, 66, 90
5, 312008, Note_off_c, 3, 76, 64
5, 312120, Note_off_c, 3, 66, 64
5, 312120, Note_on_c, 3, 76, 98
5, 312240, Note_off_c, 3, 76, 64
5, 312240, Note_on_c, 3, 74, 93
5, 312360, Note_off_c, 3, 74, 64
5, 312360, Note_on_c, 3, 73, 84
5, 312480, Note_off_c, 3, 73, 64
5, 312480, Note_on_c, 3, 74, 98
5, 312600, Note_off_c, 3, 74, 64
5, 312600, Note_on_c, 3, 69, 98
5, 312720, Note_off_c, 3, 69, 64
5, 312720, Note_on_c, 3, 62, 86
5, 312840, Note_on_c, 3, 74, 85
5, 312864, Note_off_c, 3, 62, 64
5, 312972, Note_off_c, 3, 74, 64
5, 312972, Note_on_c, 3, 64, 60
5, 313076, Note_on_c, 3, 74, 86
5, 313116, Note_off_c, 3, 64, 64
5, 313196, Note_on_c, 3, 66, 96
5, 313204, Note_off_c, 3, 74, 64
5, 313312, Note_on_c, 3, 74, 102
5, 313328, Note_off_c, 3, 66, 64
5, 313428, Note_off_c, 3, 74, 64
5, 313440, Note_on_c, 3, 67, 90
5, 313560, Note_on_c, 3, 76, 102
5, 313572, Note_off_c, 3, 67, 64
5, 313676, Note_on_c, 3, 74, 100
5, 313688, Note_off_c, 3, 76, 64
5, 313792, Note_on_c, 3, 73, 96
5, 313800, Note_off_c, 3, 74, 64
5, 313924, Note_on_c, 3, 74, 97
5, 313940, Note_off_c, 3, 73, 64
5, 314044, Note_on_c, 3, 71, 93
5, 314060, Note_off_c, 3, 74, 64
5, 314172, Note_on_c, 3, 64, 86
5, 314184, Note_off_c, 3, 71, 64
5, 314280, Note_on_c, 3, 74, 92
5, 314296, Note_off_c, 3, 64, 64
5, 314400, Note_off_c, 3, 74, 64
5, 314400, Note_on_c, 3, 66, 101
5, 314520, Note_off_c, 3, 66, 64
5, 314532, Note_on_c, 3, 74, 100
5, 314648, Note_off_c, 3, 74, 64
5, 314648, Note_on_c, 3, 67, 97
5, 314760, Note_on_c, 3, 74, 101
5, 314776, Note_off_c, 3, 67, 64
5, 314880, Note_off_c, 3, 74, 64
5, 314888, Note_on_c, 3, 69, 86
5, 315000, Note_on_c, 3, 74, 101
5, 315016, Note_off_c, 3, 69, 64
5, 315112, Note_off_c, 3, 74, 64
5, 315112, Note_on_c, 3, 73, 89
5, 315220, Note_off_c, 3, 73, 64
5, 315220, Note_on_c, 3, 71, 100
5, 315336, Note_on_c, 3, 73, 90
5, 315348, Note_off_c, 3, 71, 64
5, 315460, Note_off_c, 3, 73, 64
5, 315460, Note_on_c, 3, 76, 104
5, 315596, Note_on_c, 3, 69, 81
5, 315612, Note_off_c, 3, 76, 64
5, 315692, Note_off_c, 3, 69, 64
5, 315704, Note_on_c, 3, 73, 93
5, 315824, Note_off_c, 3, 73, 64
5, 315832, Note_on_c, 3, 64, 97
5, 315944, Note_on_c, 3, 67, 97
5, 315960, Note_off_c, 3, 64, 64
5, 316068, Note_on_c, 3, 66, 97
5, 316088, Note_off_c, 3, 67, 64
5, 316176, Note_on_c, 3, 64, 89
5, 316180, Note_off_c, 3, 66, 64
5, 316316, Note_off_c, 3, 64, 64
5, 316320, Note_on_c, 3, 66, 90
5, 316440, Note_on_c, 3, 69, 85
5, 316448, Note_off_c, 3, 66, 64
5, 316560, Note_on_c, 3, 62, 88
5, 316568, Note_off_c, 3, 69, 64
5, 316680, Note_off_c, 3, 62, 64
5, 316680, Note_on_c, 3, 66, 96
5, 316800, Note_off_c, 3, 66, 64
5, 316800, Note_on_c, 3, 62, 97
5, 316920, Note_on_c, 3, 66, 96
5, 316932, Note_off_c, 3, 62, 64
5, 317032, Note_off_c, 3, 66, 64
5, 317040, Note_on_c, 3, 57, 91
5, 317140, Note_off_c, 3, 57, 64
5, 317160, Note_on_c, 3, 62, 68
5, 317264, Note_off_c, 3, 62, 64
5, 317280, Note_on_c, 3, 50, 104
5, 317760, Note_off_c, 3, 50, 64
5, 317764, Note_on_c, 3, 55, 107
5, 318012, Note_off_c, 3, 55, 64
5, 318240, Note_on_c, 3, 71, 102
5, 318480, Note_off_c, 3, 71, 64
5, 318708, Note_on_c, 3, 55, 106
5, 319172, Note_off_c, 3, 55, 64
5, 319200, Note_on_c, 3, 54, 112
5, 319440, Note_off_c, 3, 54, 64
5, 319680, Note_on_c, 3, 69, 101
5, 319920, Note_off_c, 3, 69, 64
5, 320156, Note_on_c, 3, 54, 121
5, 320616, Note_off_c, 3, 54, 64
5, 320628, Note_on_c, 3, 52, 107
5, 320896, Note_off_c, 3, 52, 64
5, 321120, Note_on_c, 3, 67, 101
5, 321360, Note_off_c, 3, 67, 64
5, 321600, Note_on_c, 3, 52, 109
5, 322080, Note_off_c, 3, 52, 64
5, 322084, Note_on_c, 3, 50, 107
5, 322336, Note_off_c, 3, 50, 64
5, 322560, Note_on_c, 3, 66, 102
5, 322800, Note_off_c, 3, 66, 64
5, 323040, Note_on_c, 3, 50, 97
5, 323280, Note_off_c, 3, 50, 64
5, 323280, Note_on_c, 3, 48, 101
5, 323520, Note_off_c, 3, 48, 64
5, 323520, Note_on_c, 3, 47, 115
5, 323756, Note_off_c, 3, 47, 64
5, 324000, Note_on_c, 3, 74, 123
5, 324240, Note_off_c, 3, 74, 64
5, 324468, Note_on_c, 3, 47, 121
5, 324944, Note_off_c, 3, 47, 64
5, 324956, Note_on_c, 3, 48, 113
5, 325212, Note_off_c, 3, 48, 64
5, 325440, Note_on_c, 3, 76, 121
5, 325680, Note_off_c, 3, 76, 64
5, 325900, Note_on_c, 3, 48, 123
5, 326388, Note_off_c, 3, 48, 64
5, 326400, Note_on_c, 3, 50, 107
5, 326640, Note_off_c, 3, 50, 64
5, 326880, Note_on_c, 3, 69, 113
5, 327092, Note_off_c, 3, 69, 64
5, 327360, Note_on_c, 3, 50, 107
5, 327824, Note_off_c, 3, 50, 64
5, 327840, Note_on_c, 3, 43, 119
5, 328080, Note_off_c, 3, 43, 64
5, 328320, Note_on_c, 3, 71, 106
5, 328912, Note_on_c, 3, 69, 102
5, 328936, Note_off_c, 3, 71, 64
5, 329036, Note_off_c, 3, 69, 64
5, 329036, Note_on_c, 3, 67, 81
5, 329156, Note_on_c, 3, 66, 101
5, 329168, Note_off_c, 3, 67, 64
5, 329252, Note_off_c, 3, 66, 64
5, 329280, Note_on_c, 3, 67, 90
5, 329400, Note_off_c, 3, 67, 64
5, 329400, Note_on_c, 3, 71, 65
5, 329520, Note_on_c, 3, 73, 94
5, 329544, Note_off_c, 3, 71, 64
5, 329628, Note_off_c, 3, 73, 64
5, 329640, Note_on_c, 3, 74, 81
5, 329752, Note_on_c, 3, 76, 88
5, 329768, Note_off_c, 3, 74, 64
5, 329864, Note_on_c, 3, 78, 89
5, 329880, Note_off_c, 3, 76, 64
5, 329988, Note_on_c, 3, 76, 91
5, 329992, Note_off_c, 3, 78, 64
5, 330104, Note_on_c, 3, 74, 75
5, 330108, Note_off_c, 3, 76, 64
5, 330224, Note_on_c, 3, 73, 84
5, 330236, Note_off_c, 3, 74, 64
5, 330356, Note_off_c, 3, 73, 64
5, 330364, Note_on_c, 3, 71, 47
5, 330480, Note_on_c, 3, 69, 80
5, 330532, Note_off_c, 3, 71, 64
5, 330600, Note_off_c, 3, 69, 64
5, 330600, Note_on_c, 3, 67, 72
5, 330720, Note_off_c, 3, 67, 64
5, 330720, Note_on_c, 3, 66, 108
5, 330840, Note_on_c, 3, 69, 84
5, 330852, Note_off_c, 3, 66, 64
5, 330960, Note_off_c, 3, 69, 64
5, 330960, Note_on_c, 3, 71, 96
5, 331080, Note_off_c, 3, 71, 64
5, 331080, Note_on_c, 3, 73, 112
5, 331200, Note_off_c, 3, 73, 64
5, 331200, Note_on_c, 3, 74, 113
5, 331316, Note_off_c, 3, 74, 64
5, 331332, Note_on_c, 3, 76, 101
5, 331444, Note_on_c, 3, 74, 98
5, 331456, Note_off_c, 3, 76, 64
5, 331560, Note_on_c, 3, 73, 108
5, 331568, Note_off_c, 3, 74, 64
5, 331672, Note_on_c, 3, 71, 97
5, 331684, Note_off_c, 3, 73, 64
5, 331780, Note_off_c, 3, 71, 64
5, 331780, Note_on_c, 3, 69, 88
5, 331904, Note_on_c, 3, 67, 96
5, 331912, Note_off_c, 3, 69, 64
5, 332016, Note_on_c, 3, 66, 90
5, 332020, Note_off_c, 3, 67, 64
5, 332144, Note_off_c, 3, 66, 64
5, 332160, Note_on_c, 3, 64, 101
5, 332400, Note_on_c, 3, 66, 110
5, 332412, Note_off_c, 3, 64, 64
5, 332636, Note_off_c, 3, 66, 64
5, 332640, Note_on_c, 3, 67, 92
5, 332880, Note_on_c, 3, 71, 106
5, 332892, Note_off_c, 3, 67, 64
5, 333120, Note_on_c, 3, 76, 117
5, 333124, Note_off_c, 3, 71, 64
5, 333168, Note_on_c, 3, 74, 107
5, 333176, Note_off_c, 3, 76, 64
5, 333228, Note_on_c, 3, 76, 113
5, 333240, Note_off_c, 3, 74, 64
5, 333840, Note_on_c, 3, 74, 109
5, 333852, Note_off_c, 3, 76, 64
5, 334072, Note_on_c, 3, 73, 101
5, 334092, Note_off_c, 3, 74, 64
5, 334188, Note_on_c, 3, 76, 104
5, 334204, Note_off_c, 3, 73, 64
5, 334312, Note_on_c, 3, 71, 95
5, 334316, Note_off_c, 3, 76, 64
5, 334420, Note_on_c, 3, 76, 96
5, 334440, Note_off_c, 3, 71, 64
5, 334556, Note_on_c, 3, 69, 95
5, 334580, Note_off_c, 3, 76, 64
5, 334676, Note_on_c, 3, 76, 101
5, 334688, Note_off_c, 3, 69, 64
5, 334804, Note_off_c, 3, 76, 64
5, 334804, Note_on_c, 3, 67, 82
5, 334920, Note_on_c, 3, 76, 89
5, 334940, Note_off_c, 3, 67, 64
5, 335040, Note_on_c, 3, 66, 90
5, 335048, Note_off_c, 3, 76, 64
5, 335160, Note_off_c, 3, 66, 64
5, 335160, Note_on_c, 3, 76, 98
5, 335280, Note_off_c, 3, 76, 64
5, 335280, Note_on_c, 3, 74, 93
5, 335400, Note_off_c, 3, 74, 64
5, 335400, Note_on_c, 3, 73, 84
5, 335520, Note_off_c, 3, 73, 64
5, 335520, Note_on_c, 3, 74, 98
5, 335640, Note_off_c, 3, 74, 64
5, 335640, Note_on_c, 3, 69, 98
5, 335760, Note_off_c, 3, 69, 64
5, 335760, Note_on_c, 3, 62, 86
5, 335880, Note_on_c, 3, 74, 85
5, 335904, Note_off_c, 3, 62, 64
5, 336012, Note_off_c, 3, 74, 64
5, 336012, Note_on_c, 3, 64, 60
5, 336116, Note_on_c, 3, 74, 86
5, 336156, Note_off_c, 3, 64, 64
5, 336236, Note_on_c, 3, 66, 96
5, 336244, Note_off_c, 3, 74, 64
5, 336352, Note_on_c, 3, 74, 102
5, 336368, Note_off_c, 3, 66, 64
5, 336468, Note_off_c, 3, 74, 64
5, 336480, Note_on_c, 3, 67, 90
5, 336600, Note_on_c, 3, 76, 102
5, 336612, Note_off_c, 3, 67, 64
5, 336716, Note_on_c, 3, 74, 100
5, 336728, Note_off_c, 3, 76, 64
5, 336832, Note_on_c, 3, 73, 96
5, 336840, Note_off_c, 3, 74, 64
5, 336964, Note_on_c, 3, 74, 97
5, 336980, Note_off_c, 3, 73, 64
5, 337084, Note_on_c, 3, 71, 93
5, 337100, Note_off_c, 3, 74, 64
5, 337212, Note_on_c, 3, 64, 86
5, 337224, Note_off_c, 3, 71, 64
5, 337320, Note_on_c, 3, 74, 92
5, 337336, Note_off_c, 3, 64, 64
5, 337440, Note_off_c, 3, 74, 64
5, 337440, Note_on_c, 3, 66, 101
5, 337560, Note_off_c, 3, 66, 64
5, 337572, Note_on_c, 3, 74, 100
5, 337688, Note_off_c, 3, 74, 64
5, 337688, Note_on_c, 3, 67, 97
5, 337800, Note_on_c, 3, 74, 101
5, 337816, Note_off_c, 3, 67, 64
5, 337920, Note_off_c, 3, 74, 64
5, 337928, Note_on_c, 3, 69, 86
5, 338040, Note_on_c, 3, 74, 101
5, 338056, Note_off_c, 3, 69, 64
5, 338152, Note_off_c, 3, 74, 64
5, 338152, Note_on_c, 3, 73, 89
5, 338260, Note_off_c, 3, 73, 64
5, 338260, Note_on_c, 3, 71, 100
5, 338376, Note_on_c, 3, 73, 90
5, 338388, Note_off_c, 3, 71, 64
5, 338500, Note_off_c, 3, 73, 64
5, 338500, Note_on_c, 3, 76, 104
5, 338636, Note_on_c, 3, 69, 81
5, 338652, Note_off_c, 3, 76, 64
5, 338732, Note_off_c, 3, 69, 64
5, 338744, Note_on_c, 3, 73, 93
5, 338864, Note_off_c, 3, 73, 64
5, 338872, Note_on_c, 3, 64, 97
5, 338984, Note_on_c, 3, 67, 97
5, 339000, Note_off_c, 3, 64, 64
5, 339108, Note_on_c, 3, 66, 97
5, 339128, Note_off_c, 3, 67, 64
5, 339216, Note_on_c, 3, 64, 89
5, 339220, Note_off_c, 3, 66, 64
5, 339356, Note_off_c, 3, 64, 64
5, 339360, Note_on_c, 3, 66, 90
5, 339480, Note_on_c, 3, 69, 85
5, 339488, Note_off_c, 3, 66, 64
5, 339600, Note_on_c, 3, 62, 88
5, 339608, Note_off_c, 3, 69, 64
5, 339720, Note_off_c, 3, 62, 64
5, 339720, Note_on_c, 3, 66, 96
5, 339840, Note_off_c, 3, 66, 64
5, 339840, Note_on_c, 3, 62, 97
5, 339960, Note_on_c, 3, 66, 96
5, 339972, Note_off_c, 3, 62, 64
5, 340072, Note_off_c, 3, 66, 64
5, 340080, Note_on_c, 3, 57, 91
5, 340180, Note_off_c, 3, 57, 64
5, 340200, Note_on_c, 3, 62, 68
5, 340304, Note_off_c, 3, 62, 64
5, 340320, Note_on_c, 3, 50, 104
5, 340800, Note_off_c, 3, 50, 64
5, 340920, Note_on_c, 3, 74, 117
5, 341036, Note_off_c, 3, 74, 64
5, 341040, Note_on_c, 3, 72, 98
5, 341156, Note_off_c, 3, 72, 64
5, 341160, Note_on_c, 3, 71, 104
5, 341276, Note_off_c, 3, 71, 64
5, 341280, Note_on_c, 3, 69, 101
5, 341396, Note_off_c, 3, 69, 64
5, 341400, Note_on_c, 3, 67, 89
5, 341516, Note_off_c, 3, 67, 64
5, 341520, Note_on_c, 3, 66, 101
5, 341636, Note_off_c, 3, 66, 64
5, 341640, Note_on_c, 3, 64, 98
5, 341756, Note_off_c, 3, 64, 64
5, 341760, Note_on_c, 3, 62, 106
5, 341876, Note_off_c, 3, 62, 64
5, 341880, Note_on_c, 3, 72, 123
5, 341996, Note_off_c, 3, 72, 64
5, 342000, Note_on_c, 3, 71, 111
5, 342116, Note_off_c, 3, 71, 64
5, 342120, Note_on_c, 3, 69, 107
5, 342236, Note_off_c, 3, 69, 64
5, 342240, Note_on_c, 3, 71, 107
5, 342356, Note_off_c, 3, 71, 64
5, 342360, Note_on_c, 3, 67, 97
5, 342476, Note_off_c, 3, 67, 64
5, 342480, Note_on_c, 3, 66, 117
5, 342596, Note_off_c, 3, 66, 64
5, 342600, Note_on_c, 3, 64, 115
5, 342716, Note_off_c, 3, 64, 64
5, 342720, Note_on_c, 3, 62, 106
5, 342836, Note_off_c, 3, 62, 64
5, 342840, Note_on_c, 3, 60, 98
5, 342956, Note_off_c, 3, 60, 64
5, 342960, Note_on_c, 3, 59, 93
5, 343076, Note_off_c, 3, 59, 64
5, 343080, Note_on_c, 3, 57, 102
5, 343196, Note_off_c, 3, 57, 64
5, 343200, Note_on_c, 3, 55, 111
5, 343316, Note_off_c, 3, 55, 64
5, 343320, Note_on_c, 3, 67, 92
5, 343436, Note_off_c, 3, 67, 64
5, 343440, Note_on_c, 3, 69, 97
5, 343556, Note_off_c, 3, 69, 64
5, 343560, Note_on_c, 3, 71, 106
5, 343676, Note_off_c, 3, 71, 64
5, 343680, Note_on_c, 3, 72, 75
5, 343796, Note_off_c, 3, 72, 64
5, 343800, Note_on_c, 3, 74, 104
5, 343916, Note_off_c, 3, 74, 64
5, 343920, Note_on_c, 3, 76, 98
5, 344036, Note_off_c, 3, 76, 64
5, 344040, Note_on_c, 3, 74, 88
5, 344156, Note_off_c, 3, 74, 64
5, 344160, Note_on_c, 3, 72, 100
5, 344276, Note_off_c, 3, 72, 64
5, 344280, Note_on_c, 3, 71, 85
5, 344396, Note_off_c, 3, 71, 64
5, 344400, Note_on_c, 3, 69, 75
5, 344516, Note_off_c, 3, 69, 64
5, 344520, Note_on_c, 3, 67, 59
5, 344636, Note_off_c, 3, 67, 64
5, 344640, Note_on_c, 3, 69, 66
5, 344756, Note_off_c, 3, 69, 64
5, 344760, Note_on_c, 3, 71, 88
5, 344876, Note_off_c, 3, 71, 64
5, 344880, Note_on_c, 3, 72, 84
5, 344996, Note_off_c, 3, 72, 64
5, 345000, Note_on_c, 3, 69, 69
5, 345116, Note_off_c, 3, 69, 64
5, 345120, Note_on_c, 3, 71, 83
5, 345236, Note_off_c, 3, 71, 64
5, 345240, Note_on_c, 3, 69, 85
5, 345356, Note_off_c, 3, 69, 64
5, 345360, Note_on_c, 3, 71, 97
5, 345476, Note_off_c, 3, 71, 64
5, 345480, Note_on_c, 3, 66, 102
5, 345596, Note_off_c, 3, 66, 64
5, 345600, Note_on_c, 3, 59, 96
5, 345716, Note_off_c, 3, 59, 64
5, 345720, Note_on_c, 3, 61, 94
5, 345836, Note_off_c, 3, 61, 64
5, 345840, Note_on_c, 3, 63, 110
5, 345956, Note_off_c, 3, 63, 64
5, 345960, Note_on_c, 3, 64, 104
5, 346076, Note_off_c, 3, 64, 64
5, 346080, Note_on_c, 3, 66, 108
5, 346196, Note_off_c, 3, 66, 64
5, 346200, Note_on_c, 3, 67, 89
5, 346316, Note_off_c, 3, 67, 64
5, 346320, Note_on_c, 3, 69, 88
5, 346436, Note_off_c, 3, 69, 64
5, 346440, Note_on_c, 3, 66, 77
5, 346556, Note_off_c, 3, 66, 64
5, 346560, Note_on_c, 3, 67, 85
5, 346676, Note_off_c, 3, 67, 64
5, 346680, Note_on_c, 3, 71, 84
5, 346796, Note_off_c, 3, 71, 64
5, 346800, Note_on_c, 3, 67, 82
5, 346916, Note_off_c, 3, 67, 64
5, 346920, Note_on_c, 3, 64, 81
5, 347036, Note_off_c, 3, 64, 64
5, 347040, Note_on_c, 3, 67, 92
5, 347156, Note_off_c, 3, 67, 64
5, 347160, Note_on_c, 3, 71, 89
5, 347276, Note_off_c, 3, 71, 64
5, 347280, Note_on_c, 3, 67, 88
5, 347396, Note_off_c, 3, 67, 64
5, 347400, Note_on_c, 3, 64, 75
5, 347516, Note_off_c, 3, 64, 64
5, 347520, Note_on_c, 3, 67, 83
5, 347636, Note_off_c, 3, 67, 64
5, 347640, Note_on_c, 3, 71, 91
5, 347756, Note_off_c, 3, 71, 64
5, 347760, Note_on_c, 3, 67, 89
5, 347876, Note_off_c, 3, 67, 64
5, 347880, Note_on_c, 3, 64, 93
5, 347996, Note_off_c, 3, 64, 64
5, 348000, Note_on_c, 3, 69, 98
5, 348116, Note_off_c, 3, 69, 64
5, 348120, Note_on_c, 3, 72, 101
5, 348236, Note_off_c, 3, 72, 64
5, 348240, Note_on_c, 3, 69, 93
5, 348356, Note_off_c, 3, 69, 64
5, 348360, Note_on_c, 3, 64, 96
5, 348476, Note_off_c, 3, 64, 64
5, 348480, Note_on_c, 3, 67, 97
5, 348596, Note_off_c, 3, 67, 64
5, 348600, Note_on_c, 3, 72, 100
5, 348716, Note_off_c, 3, 72, 64
5, 348720, Note_on_c, 3, 67, 90
5, 348836, Note_off_c, 3, 67, 64
5, 348840, Note_on_c, 3, 64, 90
5, 348956, Note_off_c, 3, 64, 64
5, 348960, Note_on_c, 3, 66, 101
5, 349076, Note_off_c, 3, 66, 64
5, 349080, Note_on_c, 3, 72, 104
5, 349196, Note_off_c, 3, 72, 64
5, 349200, Note_on_c, 3, 66, 99
5, 349316, Note_off_c, 3, 66, 64
5, 349320, Note_on_c, 3, 64, 93
5, 349436, Note_off_c, 3, 64, 64
5, 349440, Note_on_c, 3, 67, 95
5, 349556, Note_off_c, 3, 67, 64
5, 349560, Note_on_c, 3, 71, 100
5, 349676, Note_off_c, 3, 71, 64
5, 349680, Note_on_c, 3, 67, 93
5, 349796, Note_off_c, 3, 67, 64
5, 349800, Note_on_c, 3, 64, 98
5, 349916, Note_off_c, 3, 64, 64
5, 349920, Note_on_c, 3, 59, 100
5, 350036, Note_off_c, 3, 59, 64
5, 350040, Note_on_c, 3, 71, 104
5, 350156, Note_off_c, 3, 71, 64
5, 350160, Note_on_c, 3, 69, 96
5, 350276, Note_off_c, 3, 69, 64
5, 350280, Note_on_c, 3, 71, 106
5, 350396, Note_off_c, 3, 71, 64
5, 350400, Note_on_c, 3, 67, 106
5, 350516, Note_off_c, 3, 67, 64
5, 350520, Note_on_c, 3, 71, 100
5, 350636, Note_off_c, 3, 71, 64
5, 350640, Note_on_c, 3, 66, 96
5, 350756, Note_off_c, 3, 66, 64
5, 350760, Note_on_c, 3, 71, 104
5, 350876, Note_off_c, 3, 71, 64
5, 350880, Note_on_c, 3, 67, 98
5, 351000, Note_off_c, 3, 67, 64
5, 351000, Note_on_c, 3, 64, 101
5, 351120, Note_off_c, 3, 64, 64
5, 351120, Note_on_c, 3, 67, 99
5, 351240, Note_off_c, 3, 67, 64
5, 351240, Note_on_c, 3, 71, 83
5, 351360, Note_off_c, 3, 71, 64
5, 351360, Note_on_c, 3, 76, 121
5, 351480, Note_off_c, 3, 76, 64
5, 351480, Note_on_c, 3, 71, 80
5, 351600, Note_off_c, 3, 71, 64
5, 351600, Note_on_c, 3, 67, 76
5, 351720, Note_off_c, 3, 67, 64
5, 351720, Note_on_c, 3, 71, 97
5, 351840, Note_off_c, 3, 71, 64
5, 351840, Note_on_c, 3, 64, 107
5, 352080, Note_off_c, 3, 64, 64
5, 352320, Note_on_c, 3, 64, 111
5, 352560, Note_off_c, 3, 64, 64
5, 352800, Note_on_c, 3, 48, 119
5, 353040, Note_off_c, 3, 48, 64
5, 353280, Note_on_c, 3, 64, 107
5, 353756, Note_off_c, 3, 64, 64
5, 353760, Note_on_c, 3, 62, 113
5, 353996, Note_off_c, 3, 62, 64
5, 354240, Note_on_c, 3, 47, 121
5, 354476, Note_off_c, 3, 47, 64
5, 354720, Note_on_c, 3, 62, 115
5, 355196, Note_off_c, 3, 62, 64
5, 355200, Note_on_c, 3, 60, 115
5, 355436, Note_off_c, 3, 60, 64
5, 355440, Note_on_c, 3, 59, 101
5, 355676, Note_off_c, 3, 59, 64
5, 355680, Note_on_c, 3, 57, 104
5, 355916, Note_off_c, 3, 57, 64
5, 355920, Note_on_c, 3, 55, 100
5, 356156, Note_off_c, 3, 55, 64
5, 356160, Note_on_c, 3, 54, 115
5, 356396, Note_off_c, 3, 54, 64
5, 356400, Note_on_c, 3, 52, 119
5, 356636, Note_off_c, 3, 52, 64
5, 356640, Note_on_c, 3, 54, 115
5, 356876, Note_off_c, 3, 54, 64
5, 356880, Note_on_c, 3, 55, 104
5, 356996, Note_off_c, 3, 55, 64
5, 357000, Note_on_c, 3, 57, 111
5, 357116, Note_off_c, 3, 57, 64
5, 357120, Note_on_c, 3, 50, 113
5, 357716, Note_off_c, 3, 50, 64
5, 357720, Note_on_c, 3, 60, 115
5, 357836, Note_off_c, 3, 60, 64
5, 357840, Note_on_c, 3, 59, 113
5, 357956, Note_off_c, 3, 59, 64
5, 357960, Note_on_c, 3, 57, 106
5, 358076, Note_off_c, 3, 57, 64
5, 358080, Note_on_c, 3, 59, 101
5, 358196, Note_off_c, 3, 59, 64
5, 358200, Note_on_c, 3, 55, 92
5, 358316, Note_off_c, 3, 55, 64
5, 358320, Note_on_c, 3, 54, 119
5, 358436, Note_off_c, 3, 54, 64
5, 358440, Note_on_c, 3, 55, 102
5, 358556, Note_off_c, 3, 55, 64
5, 358560, Note_on_c, 3, 57, 102
5, 358676, Note_off_c, 3, 57, 64
5, 358680, Note_on_c, 3, 55, 90
5, 358796, Note_off_c, 3, 55, 64
5, 358800, Note_on_c, 3, 59, 109
5, 358916, Note_off_c, 3, 59, 64
5, 358920, Note_on_c, 3, 55, 98
5, 359036, Note_off_c, 3, 55, 64
5, 359040, Note_on_c, 3, 60, 104
5, 359156, Note_off_c, 3, 60, 64
5, 359160, Note_on_c, 3, 55, 88
5, 359276, Note_off_c, 3, 55, 64
5, 359280, Note_on_c, 3, 62, 97
5, 359396, Note_off_c, 3, 62, 64
5, 359400, Note_on_c, 3, 55, 91
5, 359516, Note_off_c, 3, 55, 64
5, 359520, Note_on_c, 3, 64, 119
5, 359756, Note_off_c, 3, 64, 64
5, 359760, Note_on_c, 3, 55, 107
5, 359996, Note_off_c, 3, 55, 64
5, 360240, Note_on_c, 3, 59, 106
5, 360476, Note_off_c, 3, 59, 64
5, 360480, Note_on_c, 3, 57, 115
5, 360716, Note_off_c, 3, 57, 64
5, 360720, Note_on_c, 3, 55, 100
5, 360956, Note_off_c, 3, 55, 64
5, 360960, Note_on_c, 3, 54, 106
5, 361076, Note_off_c, 3, 54, 64
5, 361080, Note_on_c, 3, 62, 92
5, 361196, Note_off_c, 3, 62, 64
5, 361200, Note_on_c, 3, 64, 98
5, 361316, Note_off_c, 3, 64, 64
5, 361320, Note_on_c, 3, 66, 99
5, 361436, Note_off_c, 3, 66, 64
5, 361440, Note_on_c, 3, 67, 106
5, 361556, Note_off_c, 3, 67, 64
5, 361560, Note_on_c, 3, 62, 77
5, 361676, Note_off_c, 3, 62, 64
5, 361680, Note_on_c, 3, 59, 89
5, 361796, Note_off_c, 3, 59, 64
5, 361800, Note_on_c, 3, 55, 84
5, 361916, Note_off_c, 3, 55, 64
5, 361920, Note_on_c, 3, 57, 98
5, 362036, Note_off_c, 3, 57, 64
5, 362040, Note_on_c, 3, 60, 95
5, 362156, Note_off_c, 3, 60, 64
5, 362160, Note_on_c, 3, 67, 85
5, 362276, Note_off_c, 3, 67, 64
5, 362280, Note_on_c, 3, 66, 97
5, 362400, Note_off_c, 3, 66, 64
5, 362400, Note_on_c, 3, 67, 115
5, 362640, Note_off_c, 3, 67, 64
5, 362640, Note_on_c, 3, 55, 115
5, 362880, Note_off_c, 3, 55, 64
5, 362880, Note_on_c, 3, 50, 115
5, 363120, Note_off_c, 3, 50, 64
5, 363120, Note_on_c, 3, 47, 115
5, 363360, Note_off_c, 3, 47, 64
5, 363360, Note_on_c, 3, 43, 115
5, 363840, Note_off_c, 3, 43, 64
5, 365280, Note_on_c, 3, 43, 101
5, 365396, Note_off_c, 3, 43, 64
5, 365400, Note_on_c, 3, 42, 110
5, 365516, Note_off_c, 3, 42, 64
5, 365520, Note_on_c, 3, 43, 102
5, 365636, Note_off_c, 3, 43, 64
5, 365640, Note_on_c, 3, 45, 100
5, 365756, Note_off_c, 3, 45, 64
5, 365760, Note_on_c, 3, 47, 106
5, 365876, Note_off_c, 3, 47, 64
5, 365880, Note_on_c, 3, 43, 92
5, 365996, Note_off_c, 3, 43, 64
5, 366000, Note_on_c, 3, 50, 104
5, 366116, Note_off_c, 3, 50, 64
5, 366120, Note_on_c, 3, 48, 104
5, 366236, Note_off_c, 3, 48, 64
5, 366240, Note_on_c, 3, 50, 106
5, 366356, Note_off_c, 3, 50, 64
5, 366360, Note_on_c, 3, 52, 96
5, 366476, Note_off_c, 3, 52, 64
5, 366480, Note_on_c, 3, 54, 112
5, 366596, Note_off_c, 3, 54, 64
5, 366600, Note_on_c, 3, 50, 97
5, 366716, Note_off_c, 3, 50, 64
5, 366720, Note_on_c, 3, 55, 109
5, 366836, Note_off_c, 3, 55, 64
5, 366840, Note_on_c, 3, 54, 119
5, 366956, Note_off_c, 3, 54, 64
5, 366960, Note_on_c, 3, 52, 107
5, 367076, Note_off_c, 3, 52, 64
5, 367080, Note_on_c, 3, 54, 101
5, 367196, Note_off_c, 3, 54, 64
5, 367200, Note_on_c, 3, 55, 97
5, 367316, Note_off_c, 3, 55, 64
5, 367320, Note_on_c, 3, 52, 95
5, 367436, Note_off_c, 3, 52, 64
5, 367440, Note_on_c, 3, 57, 101
5, 367556, Note_off_c, 3, 57, 64
5, 367560, Note_on_c, 3, 55, 97
5, 367676, Note_off_c, 3, 55, 64
5, 367680, Note_on_c, 3, 54, 110
5, 367796, Note_off_c, 3, 54, 64
5, 367800, Note_on_c, 3, 55, 98
5, 367916, Note_off_c, 3, 55, 64
5, 367920, Note_on_c, 3, 57, 97
5, 368036, Note_off_c, 3, 57, 64
5, 368040, Note_on_c, 3, 54, 115
5, 368156, Note_off_c, 3, 54, 64
5, 368160, Note_on_c, 3, 59, 104
5, 368276, Note_off_c, 3, 59, 64
5, 368280, Note_on_c, 3, 57, 104
5, 368396, Note_off_c, 3, 57, 64
5, 368400, Note_on_c, 3, 55, 97
5, 368516, Note_off_c, 3, 55, 64
5, 368520, Note_on_c, 3, 57, 95
5, 368636, Note_off_c, 3, 57, 64
5, 368640, Note_on_c, 3, 59, 107
5, 368756, Note_off_c, 3, 59, 64
5, 368760, Note_on_c, 3, 55, 98
5, 368876, Note_off_c, 3, 55, 64
5, 368880, Note_on_c, 3, 60, 88
5, 368996, Note_off_c, 3, 60, 64
5, 369000, Note_on_c, 3, 59, 91
5, 369116, Note_off_c, 3, 59, 64
5, 369120, Note_on_c, 3, 57, 96
5, 369236, Note_off_c, 3, 57, 64
5, 369240, Note_on_c, 3, 55, 85
5, 369356, Note_off_c, 3, 55, 64
5, 369360, Note_on_c, 3, 54, 102
5, 369476, Note_off_c, 3, 54, 64
5, 369480, Note_on_c, 3, 52, 91
5, 369596, Note_off_c, 3, 52, 64
5, 369600, Note_on_c, 3, 54, 110
5, 369716, Note_off_c, 3, 54, 64
5, 369720, Note_on_c, 3, 52, 85
5, 369836, Note_off_c, 3, 52, 64
5, 369840, Note_on_c, 3, 54, 101
5, 369956, Note_off_c, 3, 54, 64
5, 369960, Note_on_c, 3, 50, 97
5, 370076, Note_off_c, 3, 50, 64
5, 370080, Note_on_c, 3, 52, 101
5, 370196, Note_off_c, 3, 52, 64
5, 370200, Note_on_c, 3, 54, 102
5, 370316, Note_off_c, 3, 54, 64
5, 370320, Note_on_c, 3, 55, 96
5, 370436, Note_off_c, 3, 55, 64
5, 370440, Note_on_c, 3, 52, 97
5, 370556, Note_off_c, 3, 52, 64
5, 370560, Note_on_c, 3, 50, 96
5, 370676, Note_off_c, 3, 50, 64
5, 370680, Note_on_c, 3, 48, 104
5, 370796, Note_off_c, 3, 48, 64
5, 370800, Note_on_c, 3, 47, 107
5, 370916, Note_off_c, 3, 47, 64
5, 370920, Note_on_c, 3, 45, 101
5, 371036, Note_off_c, 3, 45, 64
5, 371040, Note_on_c, 3, 43, 111
5, 371156, Note_off_c, 3, 43, 64
5, 371160, Note_on_c, 3, 54, 110
5, 371276, Note_off_c, 3, 54, 64
5, 371280, Note_on_c, 3, 52, 90
5, 371396, Note_off_c, 3, 52, 64
5, 371400, Note_on_c, 3, 50, 104
5, 371516, Note_off_c, 3, 50, 64
5, 371520, Note_on_c, 3, 48, 97
5, 371636, Note_off_c, 3, 48, 64
5, 371640, Note_on_c, 3, 47, 104
5, 371756, Note_off_c, 3, 47, 64
5, 371760, Note_on_c, 3, 49, 104
5, 371876, Note_off_c, 3, 49, 64
5, 371880, Note_on_c, 3, 45, 100
5, 371996, Note_off_c, 3, 45, 64
5, 372000, Note_on_c, 3, 50, 95
5, 372116, Note_off_c, 3, 50, 64
5, 372120, Note_on_c, 3, 52, 98
5, 372236, Note_off_c, 3, 52, 64
5, 372240, Note_on_c, 3, 54, 104
5, 372356, Note_off_c, 3, 54, 64
5, 372360, Note_on_c, 3, 50, 93
5, 372476, Note_off_c, 3, 50, 64
5, 372480, Note_on_c, 3, 55, 113
5, 372596, Note_off_c, 3, 55, 64
5, 372600, Note_on_c, 3, 54, 101
5, 372716, Note_off_c, 3, 54, 64
5, 372720, Note_on_c, 3, 52, 100
5, 372836, Note_off_c, 3, 52, 64
5, 372840, Note_on_c, 3, 54, 101
5, 372956, Note_off_c, 3, 54, 64
5, 372960, Note_on_c, 3, 55, 102
5, 373076, Note_off_c, 3, 55, 64
5, 373080, Note_on_c, 3, 52, 107
5, 373196, Note_off_c, 3, 52, 64
5, 373200, Note_on_c, 3, 57, 109
5, 373316, Note_off_c, 3, 57, 64
5, 373320, Note_on_c, 3, 55, 100
5, 373436, Note_off_c, 3, 55, 64
5, 373440, Note_on_c, 3, 54, 112
5, 373556, Note_off_c, 3, 54, 64
5, 373560, Note_on_c, 3, 55, 101
5, 373676, Note_off_c, 3, 55, 64
5, 373680, Note_on_c, 3, 57, 96
5, 373796, Note_off_c, 3, 57, 64
5, 373800, Note_on_c, 3, 54, 97
5, 373916, Note_off_c, 3, 54, 64
5, 373920, Note_on_c, 3, 59, 106
5, 374036, Note_off_c, 3, 59, 64
5, 374040, Note_on_c, 3, 57, 92
5, 374156, Note_off_c, 3, 57, 64
5, 374160, Note_on_c, 3, 55, 93
5, 374276, Note_off_c, 3, 55, 64
5, 374280, Note_on_c, 3, 57, 93
5, 374396, Note_off_c, 3, 57, 64
5, 374400, Note_on_c, 3, 59, 96
5, 374516, Note_off_c, 3, 59, 64
5, 374520, Note_on_c, 3, 57, 97
5, 374636, Note_off_c, 3, 57, 64
5, 374640, Note_on_c, 3, 56, 123
5, 374876, Note_off_c, 3, 56, 64
5, 374880, Note_on_c, 3, 44, 127
5, 375116, Note_off_c, 3, 44, 64
5, 375360, Note_on_c, 3, 45, 109
5, 375596, Note_off_c, 3, 45, 64
5, 375600, Note_on_c, 3, 33, 109
5, 375836, Note_off_c, 3, 33, 64
5, 376080, Note_on_c, 3, 38, 102
5, 376316, Note_off_c, 3, 38, 64
5, 376320, Note_on_c, 3, 50, 102
5, 376436, Note_off_c, 3, 50, 64
5, 376440, Note_on_c, 3, 48, 102
5, 376556, Note_off_c, 3, 48, 64
5, 376560, Note_on_c, 3, 47, 102
5, 376676, Note_off_c, 3, 47, 64
5, 376680, Note_on_c, 3, 45, 102
5, 376796, Note_off_c, 3, 45, 64
5, 376800, Note_on_c, 3, 43, 102
5, 376916, Note_off_c, 3, 43, 64
5, 376920, Note_on_c, 3, 42, 102
5, 377036, Note_off_c, 3, 42, 64
5, 377040, Note_on_c, 3, 43, 102
5, 377156, Note_off_c, 3, 43, 64
5, 377160, Note_on_c, 3, 45, 102
5, 377276, Note_off_c, 3, 45, 64
5, 377280, Note_on_c, 3, 47, 102
5, 377396, Note_off_c, 3, 47, 64
5, 377400, Note_on_c, 3, 43, 102
5, 377516, Note_off_c, 3, 43, 64
5, 377520, Note_on_c, 3, 50, 104
5, 377636, Note_off_c, 3, 50, 64
5, 377640, Note_on_c, 3, 48, 104
5, 377756, Note_off_c, 3, 48, 64
5, 377760, Note_on_c, 3, 50, 106
5, 377876, Note_off_c, 3, 50, 64
5, 377880, Note_on_c, 3, 52, 96
5, 377996, Note_off_c, 3, 52, 64
5, 378000, Note_on_c, 3, 54, 112
5, 378116, Note_off_c, 3, 54, 64
5, 378120, Note_on_c, 3, 50, 97
5, 378236, Note_off_c, 3, 50, 64
5, 378240, Note_on_c, 3, 55, 109
5, 378356, Note_off_c, 3, 55, 64
5, 378360, Note_on_c, 3, 54, 119
5, 378476, Note_off_c, 3, 54, 64
5, 378480, Note_on_c, 3, 52, 107
5, 378596, Note_off_c, 3, 52, 64
5, 378600, Note_on_c, 3, 54, 101
5, 378716, Note_off_c, 3, 54, 64
5, 378720, Note_on_c, 3, 55, 97
5, 378836, Note_off_c, 3, 55, 64
5, 378840, Note_on_c, 3, 52, 95
5, 378956, Note_off_c, 3, 52, 64
5, 378960, Note_on_c, 3, 57, 101
5, 379076, Note_off_c, 3, 57, 64
5, 379080, Note_on_c, 3, 55, 97
5, 379196, Note_off_c, 3, 55, 64
5, 379200, Note_on_c, 3, 54, 110
5, 379316, Note_off_c, 3, 54, 64
5, 379320, Note_on_c, 3, 55, 98
5, 379436, Note_off_c, 3, 55, 64
5, 379440, Note_on_c, 3, 57, 97
5, 379556, Note_off_c, 3, 57, 64
5, 379560, Note_on_c, 3, 54, 115
5, 379676, Note_off_c, 3, 54, 64
5, 379680, Note_on_c, 3, 59, 104
5, 379796, Note_off_c, 3, 59, 64
5, 379800, Note_on_c, 3, 57, 104
5, 379916, Note_off_c, 3, 57, 64
5, 379920, Note_on_c, 3, 55, 97
5, 380036, Note_off_c, 3, 55, 64
5, 380040, Note_on_c, 3, 57, 95
5, 380156, Note_off_c, 3, 57, 64
5, 380160, Note_on_c, 3, 59, 107
5, 380276, Note_off_c, 3, 59, 64
5, 380280, Note_on_c, 3, 55, 98
5, 380396, Note_off_c, 3, 55, 64
5, 380400, Note_on_c, 3, 60, 88
5, 380516, Note_off_c, 3, 60, 64
5, 380520, Note_on_c, 3, 59, 91
5, 380636, Note_off_c, 3, 59, 64
5, 380640, Note_on_c, 3, 57, 96
5, 380756, Note_off_c, 3, 57, 64
5, 380760, Note_on_c, 3, 55, 85
5, 380876, Note_off_c, 3, 55, 64
5, 380880, Note_on_c, 3, 54, 102
5, 380996, Note_off_c, 3, 54, 64
5, 381000, Note_on_c, 3, 52, 91
5, 381116, Note_off_c, 3, 52, 64
5, 381120, Note_on_c, 3, 54, 110
5, 381236, Note_off_c, 3, 54, 64
5, 381240, Note_on_c, 3, 52, 85
5, 381356, Note_off_c, 3, 52, 64
5, 381360, Note_on_c, 3, 54, 101
5, 381476, Note_off_c, 3, 54, 64
5, 381480, Note_on_c, 3, 50, 97
5, 381596, Note_off_c, 3, 50, 64
5, 381600, Note_on_c, 3, 52, 101
5, 381716, Note_off_c, 3, 52, 64
5, 381720, Note_on_c, 3, 54, 102
5, 381836, Note_off_c, 3, 54, 64
5, 381840, Note_on_c, 3, 55, 96
5, 381956, Note_off_c, 3, 55, 64
5, 381960, Note_on_c, 3, 52, 97
5, 382076, Note_off_c, 3, 52, 64
5, 382080, Note_on_c, 3, 50, 96
5, 382196, Note_off_c, 3, 50, 64
5, 382200, Note_on_c, 3, 48, 104
5, 382316, Note_off_c, 3, 48, 64
5, 382320, Note_on_c, 3, 47, 107
5, 382436, Note_off_c, 3, 47, 64
5, 382440, Note_on_c, 3, 45, 101
5, 382556, Note_off_c, 3, 45, 64
5, 382560, Note_on_c, 3, 43, 111
5, 382676, Note_off_c, 3, 43, 64
5, 382680, Note_on_c, 3, 54, 110
5, 382796, Note_off_c, 3, 54, 64
5, 382800, Note_on_c, 3, 52, 90
5, 382916, Note_off_c, 3, 52, 64
5, 382920, Note_on_c, 3, 50, 104
5, 383036, Note_off_c, 3, 50, 64
5, 383040, Note_on_c, 3, 48, 97
5, 383156, Note_off_c, 3, 48, 64
5, 383160, Note_on_c, 3, 47, 104
5, 383276, Note_off_c, 3, 47, 64
5, 383280, Note_on_c, 3, 49, 104
5, 383396, Note_off_c, 3, 49, 64
5, 383400, Note_on_c, 3, 45, 100
5, 383516, Note_off_c, 3, 45, 64
5, 383520, Note_on_c, 3, 50, 95
5, 383636, Note_off_c, 3, 50, 64
5, 383640, Note_on_c, 3, 52, 98
5, 383756, Note_off_c, 3, 52, 64
5, 383760, Note_on_c, 3, 54, 104
5, 383876, Note_off_c, 3, 54, 64
5, 383880, Note_on_c, 3, 50, 93
5, 383996, Note_off_c, 3, 50, 64
5, 384000, Note_on_c, 3, 55, 113
5, 384116, Note_off_c, 3, 55, 64
5, 384120, Note_on_c, 3, 54, 101
5, 384236, Note_off_c, 3, 54, 64
5, 384240, Note_on_c, 3, 52, 100
5, 384356, Note_off_c, 3, 52, 64
5, 384360, Note_on_c, 3, 54, 101
5, 384476, Note_off_c, 3, 54, 64
5, 384480, Note_on_c, 3, 55, 102
5, 384596, Note_off_c, 3, 55, 64
5, 384600, Note_on_c, 3, 52, 107
5, 384716, Note_off_c, 3, 52, 64
5, 384720, Note_on_c, 3, 57, 109
5, 384836, Note_off_c, 3, 57, 64
5, 384840, Note_on_c, 3, 55, 100
5, 384956, Note_off_c, 3, 55, 64
5, 384960, Note_on_c, 3, 54, 112
5, 385076, Note_off_c, 3, 54, 64
5, 385080, Note_on_c, 3, 55, 101
5, 385196, Note_off_c, 3, 55, 64
5, 385200, Note_on_c, 3, 57, 96
5, 385316, Note_off_c, 3, 57, 64
5, 385320, Note_on_c, 3, 54, 97
5, 385436, Note_off_c, 3, 54, 64
5, 385440, Note_on_c, 3, 59, 106
5, 385556, Note_off_c, 3, 59, 64
5, 385560, Note_on_c, 3, 57, 92
5, 385676, Note_off_c, 3, 57, 64
5, 385680, Note_on_c, 3, 55, 93
5, 385796, Note_off_c, 3, 55, 64
5, 385800, Note_on_c, 3, 57, 93
5, 385916, Note_off_c, 3, 57, 64
5, 385920, Note_on_c, 3, 59, 96
5, 386036, Note_off_c, 3, 59, 64
5, 386040, Note_on_c, 3, 57, 97
5, 386156, Note_off_c, 3, 57, 64
5, 386160, Note_on_c, 3, 56, 123
5, 386396, Note_off_c, 3, 56, 64
5, 386400, Note_on_c, 3, 44, 127
5, 386636, Note_off_c, 3, 44, 64
5, 386880, Note_on_c, 3, 45, 109
5, 387116, Note_off_c, 3, 45, 64
5, 387120, Note_on_c, 3, 33, 109
5, 387356, Note_off_c, 3, 33, 64
5, 387600, Note_on_c, 3, 38, 102
5, 387836, Note_off_c, 3, 38, 64
5, 387840, Note_on_c, 3, 42, 102
5, 388076, Note_off_c, 3, 42, 64
5, 388080, Note_on_c, 3, 45, 102
5, 388316, Note_off_c, 3, 45, 64
5, 388320, Note_on_c, 3, 50, 102
5, 388440, Note_off_c, 3, 50, 64
5, 388440, Note_on_c, 3, 49, 102
5, 388560, Note_off_c, 3, 49, 64
5, 388560, Note_on_c, 3, 50, 102
5, 388680, Note_off_c, 3, 50, 64
5, 388680, Note_on_c, 3, 52, 102
5, 388800, Note_off_c, 3, 52, 64
5, 388800, Note_on_c, 3, 54, 102
5, 388920, Note_off_c, 3, 54, 64
5, 388920, Note_on_c, 3, 50, 102
5, 389040, Note_off_c, 3, 50, 64
5, 389040, Note_on_c, 3, 55, 102
5, 389156, Note_off_c, 3, 55, 64
5, 389160, Note_on_c, 3, 54, 97
5, 389276, Note_off_c, 3, 54, 64
5, 389280, Note_on_c, 3, 52, 90
5, 389396, Note_off_c, 3, 52, 64
5, 389400, Note_on_c, 3, 54, 94
5, 389516, Note_off_c, 3, 54, 64
5, 389520, Note_on_c, 3, 55, 95
5, 389636, Note_off_c, 3, 55, 64
5, 389640, Note_on_c, 3, 52, 78
5, 389756, Note_off_c, 3, 52, 64
5, 389760, Note_on_c, 3, 57, 96
5, 389876, Note_off_c, 3, 57, 64
5, 389880, Note_on_c, 3, 55, 88
5, 389996, Note_off_c, 3, 55, 64
5, 390000, Note_on_c, 3, 54, 90
5, 390116, Note_off_c, 3, 54, 64
5, 390120, Note_on_c, 3, 55, 91
5, 390236, Note_off_c, 3, 55, 64
5, 390240, Note_on_c, 3, 57, 91
5, 390356, Note_off_c, 3, 57, 64
5, 390360, Note_on_c, 3, 54, 96
5, 390476, Note_off_c, 3, 54, 64
5, 390480, Note_on_c, 3, 59, 97
5, 390596, Note_off_c, 3, 59, 64
5, 390600, Note_on_c, 3, 57, 93
5, 390716, Note_off_c, 3, 57, 64
5, 390720, Note_on_c, 3, 56, 101
5, 390836, Note_off_c, 3, 56, 64
5, 390840, Note_on_c, 3, 57, 90
5, 390956, Note_off_c, 3, 57, 64
5, 390960, Note_on_c, 3, 59, 97
5, 391076, Note_off_c, 3, 59, 64
5, 391080, Note_on_c, 3, 56, 90
5, 391196, Note_off_c, 3, 56, 64
5, 391200, Note_on_c, 3, 60, 101
5, 391316, Note_off_c, 3, 60, 64
5, 391320, Note_on_c, 3, 59, 95
5, 391436, Note_off_c, 3, 59, 64
5, 391440, Note_on_c, 3, 57, 88
5, 391556, Note_off_c, 3, 57, 64
5, 391560, Note_on_c, 3, 59, 92
5, 391676, Note_off_c, 3, 59, 64
5, 391680, Note_on_c, 3, 60, 96
5, 391796, Note_off_c, 3, 60, 64
5, 391800, Note_on_c, 3, 59, 92
5, 391916, Note_off_c, 3, 59, 64
5, 391920, Note_on_c, 3, 58, 115
5, 392156, Note_off_c, 3, 58, 64
5, 392160, Note_on_c, 3, 46, 125
5, 392396, Note_off_c, 3, 46, 64
5, 392640, Note_on_c, 3, 47, 117
5, 392876, Note_off_c, 3, 47, 64
5, 392880, Note_on_c, 3, 35, 121
5, 393116, Note_off_c, 3, 35, 64
5, 393360, Note_on_c, 3, 40, 115
5, 393596, Note_off_c, 3, 40, 64
5, 393600, Note_on_c, 3, 52, 109
5, 393716, Note_off_c, 3, 52, 64
5, 393720, Note_on_c, 3, 50, 95
5, 393836, Note_off_c, 3, 50, 64
5, 393840, Note_on_c, 3, 48, 93
5, 393956, Note_off_c, 3, 48, 64
5, 393960, Note_on_c, 3, 47, 93
5, 394080, Note_off_c, 3, 47, 64
5, 394080, Note_on_c, 3, 45, 84
5, 394196, Note_off_c, 3, 45, 64
5, 394200, Note_on_c, 3, 48, 84
5, 394316, Note_off_c, 3, 48, 64
5, 394320, Note_on_c, 3, 52, 90
5, 394436, Note_off_c, 3, 52, 64
5, 394440, Note_on_c, 3, 55, 101
5, 394556, Note_off_c, 3, 55, 64
5, 394560, Note_on_c, 3, 54, 94
5, 394676, Note_off_c, 3, 54, 64
5, 394680, Note_on_c, 3, 52, 97
5, 394796, Note_off_c, 3, 52, 64
5, 394800, Note_on_c, 3, 54, 102
5, 395036, Note_off_c, 3, 54, 64
5, 395040, Note_on_c, 3, 43, 109
5, 395276, Note_off_c, 3, 43, 64
5, 395520, Note_on_c, 3, 55, 109
5, 395756, Note_off_c, 3, 55, 64
5, 395760, Note_on_c, 3, 45, 109
5, 395996, Note_off_c, 3, 45, 64
5, 396240, Note_on_c, 3, 57, 121
5, 396476, Note_off_c, 3, 57, 64
5, 396480, Note_on_c, 3, 47, 109
5, 396716, Note_off_c, 3, 47, 64
5, 396960, Note_on_c, 3, 59, 123
5, 397196, Note_off_c, 3, 59, 64
5, 397200, Note_on_c, 3, 48, 111
5, 397440, Note_off_c, 3, 48, 64
5, 397680, Note_on_c, 3, 49, 123
5, 397916, Note_off_c, 3, 49, 64
5, 397920, Note_on_c, 3, 37, 117
5, 398160, Note_off_c, 3, 37, 64
5, 398160, Note_on_c, 3, 49, 117
5, 398400, Note_off_c, 3, 49, 64
5, 398400, Note_on_c, 3, 50, 106
5, 398636, Note_off_c, 3, 50, 64
5, 398640, Note_on_c, 3, 38, 109
5, 398876, Note_off_c, 3, 38, 64
5, 398880, Note_on_c, 3, 50, 102
5, 399116, Note_off_c, 3, 50, 64
5, 399120, Note_on_c, 3, 43, 100
5, 399356, Note_off_c, 3, 43, 64
5, 399360, Note_on_c, 3, 55, 104
5, 399476, Note_off_c, 3, 55, 64
5, 399480, Note_on_c, 3, 54, 102
5, 399596, Note_off_c, 3, 54, 64
5, 399600, Note_on_c, 3, 52, 100
5, 399716, Note_off_c, 3, 52, 64
5, 399720, Note_on_c, 3, 55, 101
5, 399836, Note_off_c, 3, 55, 64
5, 399840, Note_on_c, 3, 54, 101
5, 399956, Note_off_c, 3, 54, 64
5, 399960, Note_on_c, 3, 52, 107
5, 400076, Note_off_c, 3, 52, 64
5, 400080, Note_on_c, 3, 50, 93
5, 400196, Note_off_c, 3, 50, 64
5, 400200, Note_on_c, 3, 52, 97
5, 400316, Note_off_c, 3, 52, 64
5, 400320, Note_on_c, 3, 54, 108
5, 400436, Note_off_c, 3, 54, 64
5, 400440, Note_on_c, 3, 50, 96
5, 400556, Note_off_c, 3, 50, 64
5, 400560, Note_on_c, 3, 55, 102
5, 400676, Note_off_c, 3, 55, 64
5, 400680, Note_on_c, 3, 54, 97
5, 400796, Note_off_c, 3, 54, 64
5, 400800, Note_on_c, 3, 52, 90
5, 400916, Note_off_c, 3, 52, 64
5, 400920, Note_on_c, 3, 54, 94
5, 401036, Note_off_c, 3, 54, 64
5, 401040, Note_on_c, 3, 55, 95
5, 401156, Note_off_c, 3, 55, 64
5, 401160, Note_on_c, 3, 52, 78
5, 401276, Note_off_c, 3, 52, 64
5, 401280, Note_on_c, 3, 57, 96
5, 401396, Note_off_c, 3, 57, 64
5, 401400, Note_on_c, 3, 55, 88
5, 401516, Note_off_c, 3, 55, 64
5, 401520, Note_on_c, 3, 54, 90
5, 401636, Note_off_c, 3, 54, 64
5, 401640, Note_on_c, 3, 55, 91
5, 401756, Note_off_c, 3, 55, 64
5, 401760, Note_on_c, 3, 57, 91
5, 401876, Note_off_c, 3, 57, 64
5, 401880, Note_on_c, 3, 54, 96
5, 401996, Note_off_c, 3, 54, 64
5, 402000, Note_on_c, 3, 59, 97
5, 402116, Note_off_c, 3, 59, 64
5, 402120, Note_on_c, 3, 57, 93
5, 402236, Note_off_c, 3, 57, 64
5, 402240, Note_on_c, 3, 56, 101
5, 402356, Note_off_c, 3, 56, 64
5, 402360, Note_on_c, 3, 57, 90
5, 402476, Note_off_c, 3, 57, 64
5, 402480, Note_on_c, 3, 59, 97
5, 402596, Note_off_c, 3, 59, 64
5, 402600, Note_on_c, 3, 56, 90
5, 402716, Note_off_c, 3, 56, 64
5, 402720, Note_on_c, 3, 60, 101
5, 402836, Note_off_c, 3, 60, 64
5, 402840, Note_on_c, 3, 59, 95
5, 402956, Note_off_c, 3, 59, 64
5, 402960, Note_on_c, 3, 57, 88
5, 403076, Note_off_c, 3, 57, 64
5, 403080, Note_on_c, 3, 59, 92
5, 403196, Note_off_c, 3, 59, 64
5, 403200, Note_on_c, 3, 60, 96
5, 403316, Note_off_c, 3, 60, 64
5, 403320, Note_on_c, 3, 59, 92
5, 403436, Note_off_c, 3, 59, 64
5, 403440, Note_on_c, 3, 58, 115
5, 403676, Note_off_c, 3, 58, 64
5, 403680, Note_on_c, 3, 46, 125
5, 403916, Note_off_c, 3, 46, 64
5, 404160, Note_on_c, 3, 47, 117
5, 404396, Note_off_c, 3, 47, 64
5, 404400, Note_on_c, 3, 35, 121
5, 404636, Note_off_c, 3, 35, 64
5, 404880, Note_on_c, 3, 40, 115
5, 405116, Note_off_c, 3, 40, 64
5, 405120, Note_on_c, 3, 52, 109
5, 405236, Note_off_c, 3, 52, 64
5, 405240, Note_on_c, 3, 50, 95
5, 405356, Note_off_c, 3, 50, 64
5, 405360, Note_on_c, 3, 48, 93
5, 405476, Note_off_c, 3, 48, 64
5, 405480, Note_on_c, 3, 47, 93
5, 405600, Note_off_c, 3, 47, 64
5, 405600, Note_on_c, 3, 45, 84
5, 405716, Note_off_c, 3, 45, 64
5, 405720, Note_on_c, 3, 48, 84
5, 405836, Note_off_c, 3, 48, 64
5, 405840, Note_on_c, 3, 52, 90
5, 405956, Note_off_c, 3, 52, 64
5, 405960, Note_on_c, 3, 55, 101
5, 406076, Note_off_c, 3, 55, 64
5, 406080, Note_on_c, 3, 54, 94
5, 406196, Note_off_c, 3, 54, 64
5, 406200, Note_on_c, 3, 52, 97
5, 406316, Note_off_c, 3, 52, 64
5, 406320, Note_on_c, 3, 54, 102
5, 406556, Note_off_c, 3, 54, 64
5, 406560, Note_on_c, 3, 43, 109
5, 406796, Note_off_c, 3, 43, 64
5, 407040, Note_on_c, 3, 55, 109
5, 407276, Note_off_c, 3, 55, 64
5, 407280, Note_on_c, 3, 45, 109
5, 407516, Note_off_c, 3, 45, 64
5, 407760, Note_on_c, 3, 57, 121
5, 407996, Note_off_c, 3, 57, 64
5, 408000, Note_on_c, 3, 47, 109
5, 408236, Note_off_c, 3, 47, 64
5, 408480, Note_on_c, 3, 59, 123
5, 408716, Note_off_c, 3, 59, 64
5, 408720, Note_on_c, 3, 48, 111
5, 408960, Note_off_c, 3, 48, 64
5, 409200, Note_on_c, 3, 49, 123
5, 409436, Note_off_c, 3, 49, 64
5, 409440, Note_on_c, 3, 37, 117
5, 409680, Note_off_c, 3, 37, 64
5, 409680, Note_on_c, 3, 49, 117
5, 409920, Note_off_c, 3, 49, 64
5, 409920, Note_on_c, 3, 50, 106
5, 410156, Note_off_c, 3, 50, 64
5, 410160, Note_on_c, 3, 38, 109
5, 410396, Note_off_c, 3, 38, 64
5, 410400, Note_on_c, 3, 50, 102
5, 410636, Note_off_c, 3, 50, 64
5, 410640, Note_on_c, 3, 43, 100
5, 410876, Note_off_c, 3, 43, 64
5, 410880, Note_on_c, 3, 50, 100
5, 411116, Note_off_c, 3, 50, 64
5, 411120, Note_on_c, 3, 55, 100
5, 411356, Note_off_c, 3, 55, 64
5, 412080, Note_on_c, 3, 55, 115
5, 412096, Note_off_c, 3, 55, 64
5, 412096, Note_on_c, 3, 54, 112
5, 412136, Note_on_c, 3, 55, 96
5, 412140, Note_off_c, 3, 54, 64
5, 412544, Note_off_c, 3, 55, 64
5, 412560, Note_on_c, 3, 43, 97
5, 412780, Note_on_c, 3, 55, 102
5, 412800, Note_off_c, 3, 43, 64
5, 412820, Note_on_c, 3, 54, 102
5, 412828, Note_off_c, 3, 55, 64
5, 412864, Note_on_c, 3, 55, 70
5, 412868, Note_off_c, 3, 54, 64
5, 412868, Note_on_c, 3, 53, 59
5, 412872, Note_off_c, 3, 53, 64
5, 414148, Note_off_c, 3, 55, 64
5, 414160, Note_on_c, 3, 54, 94
5, 414188, Note_off_c, 3, 54, 64
5, 414204, Note_on_c, 3, 55, 93
5, 414220, Note_on_c, 3, 54, 86
5, 414240, Note_off_c, 3, 55, 64
5, 414592, Note_off_c, 3, 54, 64
5, 414600, Note_on_c, 3, 52, 83
5, 414720, Note_off_c, 3, 52, 64
5, 414720, Note_on_c, 3, 50, 95
5, 414960, Note_off_c, 3, 50, 64
5, 414960, Note_on_c, 3, 52, 104
5, 415440, Note_off_c, 3, 52, 64
5, 415440, Note_on_c, 3, 62, 113
5, 415680, Note_off_c, 3, 62, 64
5, 415680, Note_on_c, 3, 61, 104
5, 416160, Note_off_c, 3, 61, 64
5, 416160, Note_on_c, 3, 57, 98
5, 416400, Note_off_c, 3, 57, 64
5, 416400, Note_on_c, 3, 62, 109
5, 417360, Note_off_c, 3, 62, 64
5, 417480, Note_on_c, 3, 64, 100
5, 417600, Note_off_c, 3, 64, 64
5, 417600, Note_on_c, 3, 60, 104
5, 417820, Note_on_c, 3, 59, 100
5, 417840, Note_off_c, 3, 60, 64
5, 418196, Note_on_c, 3, 60, 96
5, 418204, Note_off_c, 3, 59, 64
5, 418316, Note_on_c, 3, 57, 93
5, 418320, Note_off_c, 3, 60, 64
5, 418552, Note_on_c, 3, 55, 97
5, 418556, Note_off_c, 3, 57, 64
5, 418896, Note_off_c, 3, 55, 64
5, 418908, Note_on_c, 3, 57, 97
5, 419032, Note_on_c, 3, 59, 98
5, 419040, Note_off_c, 3, 57, 64
5, 419264, Note_on_c, 3, 60, 102
5, 419272, Note_off_c, 3, 59, 64
5, 419624, Note_on_c, 3, 62, 93
5, 419640, Note_off_c, 3, 60, 64
5, 419748, Note_on_c, 3, 59, 98
5, 419760, Note_off_c, 3, 62, 64
5, 419972, Note_on_c, 3, 57, 109
5, 419988, Note_off_c, 3, 59, 64
5, 420352, Note_off_c, 3, 57, 64
5, 420352, Note_on_c, 3, 59, 101
5, 420472, Note_on_c, 3, 60, 101
5, 420484, Note_off_c, 3, 59, 64
5, 420708, Note_on_c, 3, 62, 93
5, 420716, Note_off_c, 3, 60, 64
5, 421056, Note_on_c, 3, 60, 93
5, 421072, Note_off_c, 3, 62, 64
5, 421176, Note_on_c, 3, 59, 102
5, 421180, Note_off_c, 3, 60, 64
5, 421420, Note_off_c, 3, 59, 64
5, 421440, Note_on_c, 3, 60, 102
5, 421920, Note_off_c, 3, 60, 64
5, 421920, Note_on_c, 3, 62, 104
5, 422160, Note_off_c, 3, 62, 64
5, 422160, Note_on_c, 3, 55, 96
5, 422520, Note_off_c, 3, 55, 64
5, 422520, Note_on_c, 3, 54, 104
5, 422640, Note_off_c, 3, 54, 64
5, 422640, Note_on_c, 3, 55, 98
5, 422880, Note_off_c, 3, 55, 64
5, 422880, Note_on_c, 3, 50, 100
5, 423240, Note_off_c, 3, 50, 64
5, 423240, Note_on_c, 3, 57, 97
5, 423344, Note_on_c, 3, 60, 107
5, 423360, Note_off_c, 3, 57, 64
5, 423528, Note_off_c, 3, 60, 64
5, 423540, Note_on_c, 3, 59, 90
5, 423560, Note_off_c, 3, 59, 64
5, 423568, Note_on_c, 3, 60, 96
5, 423592, Note_on_c, 3, 59, 100
5, 423612, Note_off_c, 3, 60, 64
5, 423952, Note_on_c, 3, 57, 98
5, 423972, Note_off_c, 3, 59, 64
5, 424072, Note_on_c, 3, 59, 102
5, 424076, Note_off_c, 3, 57, 64
5, 424292, Note_off_c, 3, 59, 64
5, 424304, Note_on_c, 3, 52, 101
5, 424672, Note_on_c, 3, 59, 96
5, 424692, Note_off_c, 3, 52, 64
5, 424788, Note_off_c, 3, 59, 64
5, 424796, Note_on_c, 3, 62, 100
5, 424972, Note_off_c, 3, 62, 64
5, 424976, Note_on_c, 3, 61, 93
5, 425004, Note_off_c, 3, 61, 64
5, 425020, Note_on_c, 3, 62, 106
5, 425048, Note_on_c, 3, 61, 97
5, 425064, Note_off_c, 3, 62, 64
5, 425396, Note_on_c, 3, 59, 97
5, 425412, Note_off_c, 3, 61, 64
5, 425508, Note_off_c, 3, 59, 64
5, 425512, Note_on_c, 3, 57, 90
5, 425736, Note_off_c, 3, 57, 64
5, 425760, Note_on_c, 3, 62, 107
5, 426120, Note_off_c, 3, 62, 64
5, 426120, Note_on_c, 3, 61, 101
5, 426240, Note_off_c, 3, 61, 64
5, 426240, Note_on_c, 3, 62, 97
5, 426472, Note_on_c, 3, 55, 97
5, 426480, Note_off_c, 3, 62, 64
5, 426824, Note_on_c, 3, 59, 98
5, 426844, Note_off_c, 3, 55, 64
5, 426936, Note_on_c, 3, 62, 104
5, 426948, Note_off_c, 3, 59, 64
5, 427160, Note_off_c, 3, 62, 64
5, 427172, Note_on_c, 3, 67, 109
5, 428152, Note_off_c, 3, 67, 64
5, 428156, Note_on_c, 3, 69, 95
5, 428268, Note_on_c, 3, 67, 90
5, 428276, Note_off_c, 3, 69, 64
5, 428384, Note_on_c, 3, 66, 94
5, 428400, Note_off_c, 3, 67, 64
5, 428500, Note_on_c, 3, 64, 97
5, 428516, Note_off_c, 3, 66, 64
5, 428620, Note_off_c, 3, 64, 64
5, 428620, Note_on_c, 3, 66, 89
5, 428980, Note_on_c, 3, 67, 97
5, 428984, Note_off_c, 3, 66, 64
5, 429108, Note_off_c, 3, 67, 64
5, 429120, Note_on_c, 3, 69, 86
5, 429340, Note_on_c, 3, 62, 91
5, 429360, Note_off_c, 3, 69, 64
5, 429704, Note_off_c, 3, 62, 64
5, 429704, Note_on_c, 3, 57, 84
5, 429820, Note_on_c, 3, 54, 97
5, 429832, Note_off_c, 3, 57, 64
5, 430060, Note_off_c, 3, 54, 64
5, 430060, Note_on_c, 3, 50, 92
5, 430420, Note_on_c, 3, 52, 101
5, 430440, Note_off_c, 3, 50, 64
5, 430540, Note_on_c, 3, 54, 108
5, 430548, Note_off_c, 3, 52, 64
5, 430784, Note_on_c, 3, 55, 101
5, 430792, Note_off_c, 3, 54, 64
5, 431156, Note_on_c, 3, 57, 95
5, 431168, Note_off_c, 3, 55, 64
5, 431280, Note_on_c, 3, 54, 101
5, 431288, Note_off_c, 3, 57, 64
5, 431524, Note_off_c, 3, 54, 64
5, 431524, Note_on_c, 3, 52, 106
5, 431864, Note_off_c, 3, 52, 64
5, 431864, Note_on_c, 3, 54, 96
5, 431984, Note_on_c, 3, 55, 93
5, 431996, Note_off_c, 3, 54, 64
5, 432216, Note_on_c, 3, 57, 96
5, 432228, Note_off_c, 3, 55, 64
5, 432572, Note_on_c, 3, 55, 98
5, 432580, Note_off_c, 3, 57, 64
5, 432688, Note_off_c, 3, 55, 64
5, 432692, Note_on_c, 3, 54, 106
5, 432916, Note_off_c, 3, 54, 64
5, 432932, Note_on_c, 3, 59, 102
5, 433308, Note_on_c, 3, 55, 89
5, 433324, Note_off_c, 3, 59, 64
5, 433420, Note_off_c, 3, 55, 64
5, 433440, Note_on_c, 3, 57, 96
5, 433664, Note_on_c, 3, 50, 82
5, 433680, Note_off_c, 3, 57, 64
5, 434020, Note_on_c, 3, 54, 110
5, 434044, Note_off_c, 3, 50, 64
5, 434140, Note_on_c, 3, 57, 107
5, 434152, Note_off_c, 3, 54, 64
5, 434384, Note_off_c, 3, 57, 64
5, 434400, Note_on_c, 3, 62, 107
5, 435120, Note_off_c, 3, 62, 64
5, 435120, Note_on_c, 3, 62, 111
5, 435576, Note_on_c, 3, 50, 95
5, 435600, Note_off_c, 3, 62, 64
5, 435816, Note_on_c, 3, 62, 111
5, 435820, Note_off_c, 3, 50, 64
5, 436296, Note_on_c, 3, 60, 91
5, 436304, Note_off_c, 3, 62, 64
5, 436484, Note_off_c, 3, 60, 64
5, 436488, Note_on_c, 3, 59, 91
5, 436516, Note_off_c, 3, 59, 64
5, 436524, Note_on_c, 3, 60, 95
5, 436552, Note_on_c, 3, 59, 84
5, 436572, Note_off_c, 3, 60, 64
5, 436908, Note_on_c, 3, 57, 90
5, 436924, Note_off_c, 3, 59, 64
5, 437024, Note_on_c, 3, 59, 90
5, 437032, Note_off_c, 3, 57, 64
5, 437260, Note_off_c, 3, 59, 64
5, 437280, Note_on_c, 3, 55, 92
5, 437640, Note_off_c, 3, 55, 64
5, 437640, Note_on_c, 3, 57, 93
5, 437760, Note_off_c, 3, 57, 64
5, 437760, Note_on_c, 3, 59, 98
5, 437992, Note_on_c, 3, 60, 100
5, 438000, Note_off_c, 3, 59, 64
5, 438348, Note_on_c, 3, 62, 92
5, 438360, Note_off_c, 3, 60, 64
5, 438472, Note_on_c, 3, 59, 98
5, 438484, Note_off_c, 3, 62, 64
5, 438704, Note_on_c, 3, 57, 102
5, 438720, Note_off_c, 3, 59, 64
5, 439068, Note_on_c, 3, 59, 90
5, 439080, Note_off_c, 3, 57, 64
5, 439188, Note_on_c, 3, 60, 93
5, 439200, Note_off_c, 3, 59, 64
5, 439420, Note_on_c, 3, 59, 102
5, 439424, Note_off_c, 3, 60, 64
5, 439896, Note_off_c, 3, 59, 64
5, 439908, Note_on_c, 3, 47, 97
5, 440136, Note_off_c, 3, 47, 64
5, 440160, Note_on_c, 3, 59, 102
5, 440520, Note_off_c, 3, 59, 64
5, 440520, Note_on_c, 3, 57, 91
5, 440640, Note_off_c, 3, 57, 64
5, 440640, Note_on_c, 3, 59, 97
5, 440856, Note_on_c, 3, 55, 93
5, 440880, Note_off_c, 3, 59, 64
5, 441360, Note_off_c, 3, 55, 64
5, 441360, Note_on_c, 3, 57, 76
5, 441420, Note_off_c, 3, 57, 64
5, 441420, Note_on_c, 3, 59, 76
5, 441480, Note_off_c, 3, 59, 64
5, 441480, Note_on_c, 3, 61, 99
5, 441540, Note_on_c, 3, 63, 104
5, 441544, Note_off_c, 3, 61, 64
5, 441600, Note_on_c, 3, 64, 115
5, 441608, Note_off_c, 3, 63, 64
5, 441960, Note_off_c, 3, 64, 64
5, 441960, Note_on_c, 3, 59, 98
5, 442080, Note_off_c, 3, 59, 64
5, 442080, Note_on_c, 3, 55, 78
5, 442320, Note_off_c, 3, 55, 64
5, 442320, Note_on_c, 3, 57, 102
5, 442772, Note_on_c, 3, 59, 100
5, 442820, Note_off_c, 3, 59, 64
5, 442828, Note_off_c, 3, 57, 64
5, 442836, Note_on_c, 3, 60, 98
5, 442896, Note_on_c, 3, 62, 96
5, 442928, Note_off_c, 3, 60, 64
5, 442956, Note_on_c, 3, 64, 98
5, 442964, Note_off_c, 3, 62, 64
5, 443040, Note_on_c, 3, 65, 78
5, 443044, Note_off_c, 3, 64, 64
5, 443400, Note_off_c, 3, 65, 64
5, 443400, Note_on_c, 3, 64, 96
5, 443520, Note_off_c, 3, 64, 64
5, 443520, Note_on_c, 3, 63, 102
5, 443760, Note_off_c, 3, 63, 64
5, 443760, Note_on_c, 3, 64, 101
5, 444240, Note_off_c, 3, 64, 64
5, 444240, Note_on_c, 3, 55, 93
5, 444480, Note_off_c, 3, 55, 64
5, 444480, Note_on_c, 3, 60, 97
5, 444840, Note_off_c, 3, 60, 64
5, 444840, Note_on_c, 3, 57, 95
5, 444960, Note_off_c, 3, 57, 64
5, 444960, Note_on_c, 3, 59, 91
5, 445196, Note_on_c, 3, 52, 98
5, 445200, Note_off_c, 3, 59, 64
5, 446268, Note_on_c, 3, 64, 111
5, 446272, Note_off_c, 3, 52, 64
5, 446384, Note_on_c, 3, 62, 100
5, 446396, Note_off_c, 3, 64, 64
5, 446564, Note_off_c, 3, 62, 64
5, 446564, Note_on_c, 3, 60, 101
5, 446596, Note_off_c, 3, 60, 64
5, 446604, Note_on_c, 3, 62, 97
5, 446632, Note_on_c, 3, 60, 90
5, 446648, Note_off_c, 3, 62, 64
5, 446984, Note_on_c, 3, 59, 96
5, 447000, Note_off_c, 3, 60, 64
5, 447096, Note_on_c, 3, 60, 93
5, 447104, Note_off_c, 3, 59, 64
5, 447320, Note_off_c, 3, 60, 64
5, 447324, Note_on_c, 3, 56, 93
5, 447708, Note_on_c, 3, 59, 98
5, 447720, Note_off_c, 3, 56, 64
5, 447824, Note_off_c, 3, 59, 64
5, 447824, Note_on_c, 3, 52, 86
5, 448064, Note_off_c, 3, 52, 64
5, 448068, Note_on_c, 3, 57, 100
5, 448428, Note_on_c, 3, 60, 104
5, 448436, Note_off_c, 3, 57, 64
5, 448548, Note_on_c, 3, 59, 100
5, 448556, Note_off_c, 3, 60, 64
5, 448776, Note_off_c, 3, 59, 64
5, 448780, Note_on_c, 3, 60, 100
5, 449148, Note_on_c, 3, 59, 95
5, 449164, Note_off_c, 3, 60, 64
5, 449264, Note_on_c, 3, 57, 98
5, 449268, Note_off_c, 3, 59, 64
5, 449500, Note_on_c, 3, 59, 95
5, 449508, Note_off_c, 3, 57, 64
5, 449868, Note_on_c, 3, 64, 93
5, 449888, Note_off_c, 3, 59, 64
5, 449976, Note_off_c, 3, 64, 64
5, 449980, Note_on_c, 3, 62, 93
5, 450156, Note_off_c, 3, 62, 64
5, 450160, Note_on_c, 3, 61, 99
5, 450192, Note_off_c, 3, 61, 64
5, 450204, Note_on_c, 3, 62, 95
5, 450228, Note_on_c, 3, 61, 86
5, 450248, Note_off_c, 3, 62, 64
5, 450592, Note_on_c, 3, 59, 85
5, 450608, Note_off_c, 3, 61, 64
5, 450700, Note_on_c, 3, 61, 90
5, 450712, Note_off_c, 3, 59, 64
5, 450932, Note_off_c, 3, 61, 64
5, 450960, Note_on_c, 3, 62, 101
5, 452028, Note_on_c, 3, 64, 91
5, 452076, Note_off_c, 3, 62, 64
5, 452152, Note_on_c, 3, 60, 92
5, 452168, Note_off_c, 3, 64, 64
5, 452388, Note_on_c, 3, 59, 91
5, 452404, Note_off_c, 3, 60, 64
5, 452744, Note_on_c, 3, 60, 88
5, 452764, Note_off_c, 3, 59, 64
5, 452868, Note_on_c, 3, 57, 78
5, 452872, Note_off_c, 3, 60, 64
5, 453116, Note_on_c, 3, 55, 89
5, 453120, Note_off_c, 3, 57, 64
5, 453468, Note_on_c, 3, 57, 95
5, 453500, Note_off_c, 3, 55, 64
5, 453588, Note_on_c, 3, 59, 97
5, 453604, Note_off_c, 3, 57, 64
5, 453816, Note_on_c, 3, 60, 104
5, 453824, Note_off_c, 3, 59, 64
5, 454192, Note_on_c, 3, 62, 92
5, 454196, Note_off_c, 3, 60, 64
5, 454312, Note_on_c, 3, 59, 91
5, 454328, Note_off_c, 3, 62, 64
5, 454556, Note_on_c, 3, 57, 98
5, 454564, Note_off_c, 3, 59, 64
5, 454908, Note_off_c, 3, 57, 64
5, 454908, Note_on_c, 3, 59, 89
5, 455028, Note_on_c, 3, 60, 96
5, 455040, Note_off_c, 3, 59, 64
5, 455256, Note_on_c, 3, 62, 95
5, 455264, Note_off_c, 3, 60, 64
5, 455620, Note_off_c, 3, 62, 64
5, 455640, Note_on_c, 3, 60, 84
5, 455760, Note_off_c, 3, 60, 64
5, 455760, Note_on_c, 3, 59, 95
5, 455984, Note_off_c, 3, 59, 64
5, 456000, Note_on_c, 3, 64, 102
5, 456344, Note_on_c, 3, 60, 84
5, 456388, Note_off_c, 3, 64, 64
5, 456468, Note_off_c, 3, 60, 64
5, 456468, Note_on_c, 3, 62, 96
5, 456704, Note_on_c, 3, 55, 85
5, 456708, Note_off_c, 3, 62, 64
5, 457064, Note_on_c, 3, 50, 93
5, 457084, Note_off_c, 3, 55, 64
5, 457180, Note_on_c, 3, 47, 90
5, 457192, Note_off_c, 3, 50, 64
5, 457428, Note_off_c, 3, 47, 64
5, 457440, Note_on_c, 3, 43, 88
5, 458160, Note_off_c, 3, 43, 64
5, 458160, Note_on_c, 3, 55, 113
5, 458396, Note_off_c, 3, 55, 64
5, 458400, Note_on_c, 3, 50, 109
5, 458636, Note_off_c, 3, 50, 64
5, 458640, Note_on_c, 3, 47, 107
5, 458876, Note_off_c, 3, 47, 64
5, 458880, Note_on_c, 3, 43, 119
5, 459116, Note_off_c, 3, 43, 64
5, 459240, Note_on_c, 3, 55, 106
5, 459356, Note_off_c, 3, 55, 64
5, 459360, Note_on_c, 3, 54, 104
5, 459476, Note_off_c, 3, 54, 64
5, 459480, Note_on_c, 3, 52, 115
5, 459596, Note_off_c, 3, 52, 64
5, 459600, Note_on_c, 3, 54, 110
5, 459836, Note_off_c, 3, 54, 64
5, 459840, Note_on_c, 3, 50, 111
5, 460076, Note_off_c, 3, 50, 64
5, 460080, Note_on_c, 3, 45, 109
5, 460316, Note_off_c, 3, 45, 64
5, 460320, Note_on_c, 3, 42, 117
5, 460556, Note_off_c, 3, 42, 64
5, 460680, Note_on_c, 3, 54, 119
5, 460796, Note_off_c, 3, 54, 64
5, 460800, Note_on_c, 3, 52, 113
5, 460916, Note_off_c, 3, 52, 64
5, 460920, Note_on_c, 3, 50, 111
5, 461036, Note_off_c, 3, 50, 64
5, 461040, Note_on_c, 3, 52, 115
5, 461276, Note_off_c, 3, 52, 64
5, 461280, Note_on_c, 3, 47, 111
5, 461516, Note_off_c, 3, 47, 64
5, 461520, Note_on_c, 3, 43, 111
5, 461756, Note_off_c, 3, 43, 64
5, 461760, Note_on_c, 3, 40, 121
5, 461996, Note_off_c, 3, 40, 64
5, 462120, Note_on_c, 3, 52, 113
5, 462236, Note_off_c, 3, 52, 64
5, 462240, Note_on_c, 3, 50, 115
5, 462356, Note_off_c, 3, 50, 64
5, 462360, Note_on_c, 3, 49, 121
5, 462476, Note_off_c, 3, 49, 64
5, 462480, Note_on_c, 3, 50, 102
5, 462716, Note_off_c, 3, 50, 64
5, 462720, Note_on_c, 3, 45, 113
5, 462956, Note_off_c, 3, 45, 64
5, 462960, Note_on_c, 3, 42, 112
5, 463196, Note_off_c, 3, 42, 64
5, 463200, Note_on_c, 3, 38, 117
5, 463436, Note_off_c, 3, 38, 64
5, 463560, Note_on_c, 3, 48, 111
5, 463676, Note_off_c, 3, 48, 64
5, 463680, Note_on_c, 3, 47, 106
5, 463796, Note_off_c, 3, 47, 64
5, 463800, Note_on_c, 3, 45, 113
5, 463916, Note_off_c, 3, 45, 64
5, 463920, Note_on_c, 3, 47, 104
5, 464156, Note_off_c, 3, 47, 64
5, 464160, Note_on_c, 3, 50, 113
5, 464396, Note_off_c, 3, 50, 64
5, 464400, Note_on_c, 3, 55, 113
5, 464636, Note_off_c, 3, 55, 64
5, 464640, Note_on_c, 3, 59, 115
5, 464876, Note_off_c, 3, 59, 64
5, 465000, Note_on_c, 3, 55, 106
5, 465116, Note_off_c, 3, 55, 64
5, 465120, Note_on_c, 3, 53, 104
5, 465236, Note_off_c, 3, 53, 64
5, 465240, Note_on_c, 3, 55, 97
5, 465356, Note_off_c, 3, 55, 64
5, 465360, Note_on_c, 3, 48, 102
5, 465596, Note_off_c, 3, 48, 64
5, 465600, Note_on_c, 3, 52, 113
5, 465836, Note_off_c, 3, 52, 64
5, 465840, Note_on_c, 3, 57, 123
5, 466076, Note_off_c, 3, 57, 64
5, 466080, Note_on_c, 3, 60, 115
5, 466316, Note_off_c, 3, 60, 64
5, 466440, Note_on_c, 3, 57, 115
5, 466556, Note_off_c, 3, 57, 64
5, 466560, Note_on_c, 3, 55, 102
5, 466676, Note_off_c, 3, 55, 64
5, 466680, Note_on_c, 3, 57, 106
5, 466796, Note_off_c, 3, 57, 64
5, 466800, Note_on_c, 3, 50, 113
5, 467036, Note_off_c, 3, 50, 64
5, 467040, Note_on_c, 3, 54, 117
5, 467276, Note_off_c, 3, 54, 64
5, 467280, Note_on_c, 3, 57, 115
5, 467516, Note_off_c, 3, 57, 64
5, 467520, Note_on_c, 3, 62, 124
5, 467756, Note_off_c, 3, 62, 64
5, 467880, Note_on_c, 3, 50, 90
5, 467996, Note_off_c, 3, 50, 64
5, 468000, Note_on_c, 3, 48, 119
5, 468116, Note_off_c, 3, 48, 64
5, 468120, Note_on_c, 3, 50, 109
5, 468236, Note_off_c, 3, 50, 64
5, 468240, Note_on_c, 3, 43, 107
5, 468476, Note_off_c, 3, 43, 64
5, 468480, Note_on_c, 3, 55, 115
5, 468716, Note_off_c, 3, 55, 64
5, 468720, Note_on_c, 3, 47, 113
5, 468956, Note_off_c, 3, 47, 64
5, 468960, Note_on_c, 3, 50, 115
5, 469196, Note_off_c, 3, 50, 64
5, 469200, Note_on_c, 3, 43, 111
5, 469436, Note_off_c, 3, 43, 64
5, 469680, Note_on_c, 3, 55, 111
5, 469796, Note_off_c, 3, 55, 64
5, 469800, Note_on_c, 3, 59, 104
5, 469916, Note_off_c, 3, 59, 64
5, 469920, Note_on_c, 3, 62, 106
5, 470036, Note_off_c, 3, 62, 64
5, 470040, Note_on_c, 3, 60, 115
5, 470156, Note_off_c, 3, 60, 64
5, 470160, Note_on_c, 3, 59, 106
5, 470276, Note_off_c, 3, 59, 64
5, 470280, Note_on_c, 3, 62, 97
5, 470396, Note_off_c, 3, 62, 64
5, 470400, Note_on_c, 3, 67, 101
5, 470516, Note_off_c, 3, 67, 64
5, 470520, Note_on_c, 3, 66, 115
5, 470636, Note_off_c, 3, 66, 64
5, 470640, Note_on_c, 3, 64, 100
5, 470756, Note_off_c, 3, 64, 64
5, 470760, Note_on_c, 3, 67, 102
5, 470876, Note_off_c, 3, 67, 64
5, 470880, Note_on_c, 3, 71, 109
5, 470996, Note_off_c, 3, 71, 64
5, 471120, Note_on_c, 3, 54, 117
5, 471236, Note_off_c, 3, 54, 64
5, 471240, Note_on_c, 3, 57, 107
5, 471356, Note_off_c, 3, 57, 64
5, 471360, Note_on_c, 3, 61, 112
5, 471476, Note_off_c, 3, 61, 64
5, 471480, Note_on_c, 3, 59, 106
5, 471596, Note_off_c, 3, 59, 64
5, 471600, Note_on_c, 3, 57, 106
5, 471716, Note_off_c, 3, 57, 64
5, 471720, Note_on_c, 3, 61, 108
5, 471836, Note_off_c, 3, 61, 64
5, 471840, Note_on_c, 3, 66, 110
5, 471956, Note_off_c, 3, 66, 64
5, 471960, Note_on_c, 3, 64, 115
5, 472076, Note_off_c, 3, 64, 64
5, 472080, Note_on_c, 3, 62, 102
5, 472196, Note_off_c, 3, 62, 64
5, 472200, Note_on_c, 3, 66, 104
5, 472316, Note_off_c, 3, 66, 64
5, 472320, Note_on_c, 3, 69, 109
5, 472436, Note_off_c, 3, 69, 64
5, 472560, Note_on_c, 3, 52, 100
5, 472676, Note_off_c, 3, 52, 64
5, 472680, Note_on_c, 3, 55, 92
5, 472796, Note_off_c, 3, 55, 64
5, 472800, Note_on_c, 3, 59, 100
5, 472916, Note_off_c, 3, 59, 64
5, 472920, Note_on_c, 3, 57, 90
5, 473036, Note_off_c, 3, 57, 64
5, 473040, Note_on_c, 3, 55, 83
5, 473156, Note_off_c, 3, 55, 64
5, 473160, Note_on_c, 3, 59, 88
5, 473276, Note_off_c, 3, 59, 64
5, 473280, Note_on_c, 3, 64, 88
5, 473396, Note_off_c, 3, 64, 64
5, 473400, Note_on_c, 3, 62, 85
5, 473516, Note_off_c, 3, 62, 64
5, 473520, Note_on_c, 3, 61, 94
5, 473636, Note_off_c, 3, 61, 64
5, 473640, Note_on_c, 3, 64, 45
5, 473756, Note_off_c, 3, 64, 64
5, 473760, Note_on_c, 3, 67, 61
5, 473876, Note_off_c, 3, 67, 64
5, 473880, Note_on_c, 3, 66, 71
5, 473996, Note_off_c, 3, 66, 64
5, 474000, Note_on_c, 3, 64, 59
5, 474116, Note_off_c, 3, 64, 64
5, 474120, Note_on_c, 3, 67, 78
5, 474236, Note_off_c, 3, 67, 64
5, 474240, Note_on_c, 3, 73, 85
5, 474356, Note_off_c, 3, 73, 64
5, 474360, Note_on_c, 3, 71, 97
5, 474476, Note_off_c, 3, 71, 64
5, 474480, Note_on_c, 3, 69, 76
5, 474596, Note_off_c, 3, 69, 64
5, 474600, Note_on_c, 3, 73, 89
5, 474716, Note_off_c, 3, 73, 64
5, 474720, Note_on_c, 3, 76, 107
5, 474836, Note_off_c, 3, 76, 64
5, 474840, Note_on_c, 3, 74, 100
5, 474956, Note_off_c, 3, 74, 64
5, 474960, Note_on_c, 3, 73, 93
5, 475076, Note_off_c, 3, 73, 64
5, 475080, Note_on_c, 3, 76, 93
5, 475196, Note_off_c, 3, 76, 64
5, 475200, Note_on_c, 3, 81, 93
5, 475316, Note_off_c, 3, 81, 64
5, 475320, Note_on_c, 3, 79, 89
5, 475436, Note_off_c, 3, 79, 64
5, 475440, Note_on_c, 3, 78, 82
5, 475556, Note_off_c, 3, 78, 64
5, 475560, Note_on_c, 3, 81, 102
5, 475676, Note_off_c, 3, 81, 64
5, 475680, Note_on_c, 3, 74, 82
5, 475796, Note_off_c, 3, 74, 64
5, 475800, Note_on_c, 3, 76, 96
5, 475916, Note_off_c, 3, 76, 64
5, 475920, Note_on_c, 3, 78, 92
5, 476036, Note_off_c, 3, 78, 64
5, 476040, Note_on_c, 3, 74, 89
5, 476156, Note_off_c, 3, 74, 64
5, 476160, Note_on_c, 3, 69, 80
5, 476276, Note_off_c, 3, 69, 64
5, 476280, Note_on_c, 3, 71, 50
5, 476396, Note_off_c, 3, 71, 64
5, 476400, Note_on_c, 3, 72, 98
5, 476516, Note_off_c, 3, 72, 64
5, 476520, Note_on_c, 3, 69, 89
5, 476636, Note_off_c, 3, 69, 64
5, 476640, Note_on_c, 3, 66, 84
5, 476756, Note_off_c, 3, 66, 64
5, 476760, Note_on_c, 3, 69, 88
5, 476876, Note_off_c, 3, 69, 64
5, 476880, Note_on_c, 3, 71, 88
5, 476996, Note_off_c, 3, 71, 64
5, 477000, Note_on_c, 3, 74, 88
5, 477116, Note_off_c, 3, 74, 64
5, 477120, Note_on_c, 3, 67, 53
5, 477236, Note_off_c, 3, 67, 64
5, 477240, Note_on_c, 3, 69, 53
5, 477356, Note_off_c, 3, 69, 64
5, 477360, Note_on_c, 3, 71, 53
5, 477476, Note_off_c, 3, 71, 64
5, 477480, Note_on_c, 3, 67, 53
5, 477596, Note_off_c, 3, 67, 64
5, 477600, Note_on_c, 3, 64, 53
5, 477716, Note_off_c, 3, 64, 64
5, 477720, Note_on_c, 3, 66, 53
5, 477836, Note_off_c, 3, 66, 64
5, 477840, Note_on_c, 3, 67, 119
5, 477956, Note_off_c, 3, 67, 64
5, 477960, Note_on_c, 3, 62, 90
5, 478076, Note_off_c, 3, 62, 64
5, 478080, Note_on_c, 3, 59, 93
5, 478196, Note_off_c, 3, 59, 64
5, 478200, Note_on_c, 3, 62, 97
5, 478316, Note_off_c, 3, 62, 64
5, 478320, Note_on_c, 3, 61, 123
5, 478436, Note_off_c, 3, 61, 64
5, 478440, Note_on_c, 3, 64, 109
5, 478556, Note_off_c, 3, 64, 64
5, 478560, Note_on_c, 3, 57, 100
5, 478676, Note_off_c, 3, 57, 64
5, 478680, Note_on_c, 3, 59, 73
5, 478796, Note_off_c, 3, 59, 64
5, 478800, Note_on_c, 3, 61, 94
5, 478916, Note_off_c, 3, 61, 64
5, 478920, Note_on_c, 3, 57, 89
5, 479036, Note_off_c, 3, 57, 64
5, 479040, Note_on_c, 3, 52, 106
5, 479156, Note_off_c, 3, 52, 64
5, 479160, Note_on_c, 3, 54, 96
5, 479276, Note_off_c, 3, 54, 64
5, 479280, Note_on_c, 3, 55, 97
5, 479396, Note_off_c, 3, 55, 64
5, 479400, Note_on_c, 3, 52, 97
5, 479516, Note_off_c, 3, 52, 64
5, 479520, Note_on_c, 3, 49, 82
5, 479636, Note_off_c, 3, 49, 64
5, 479640, Note_on_c, 3, 54, 94
5, 479756, Note_off_c, 3, 54, 64
5, 479760, Note_on_c, 3, 50, 98
5, 479876, Note_off_c, 3, 50, 64
5, 479880, Note_on_c, 3, 54, 102
5, 479996, Note_off_c, 3, 54, 64
5, 480000, Note_on_c, 3, 50, 78
5, 480116, Note_off_c, 3, 50, 64
5, 480120, Note_on_c, 3, 52, 91
5, 480236, Note_off_c, 3, 52, 64
5, 480240, Note_on_c, 3, 54, 101
5, 480356, Note_off_c, 3, 54, 64
5, 480360, Note_on_c, 3, 50, 84
5, 480476, Note_off_c, 3, 50, 64
5, 480480, Note_on_c, 3, 54, 93
5, 480596, Note_off_c, 3, 54, 64
5, 480600, Note_on_c, 3, 57, 95
5, 480716, Note_off_c, 3, 57, 64
5, 480720, Note_on_c, 3, 62, 107
5, 480956, Note_off_c, 3, 62, 64
5, 481200, Note_on_c, 3, 62, 117
5, 481436, Note_off_c, 3, 62, 64
5, 481440, Note_on_c, 3, 57, 111
5, 481676, Note_off_c, 3, 57, 64
5, 481680, Note_on_c, 3, 54, 117
5, 481916, Note_off_c, 3, 54, 64
5, 481920, Note_on_c, 3, 50, 115
5, 482156, Note_off_c, 3, 50, 64
5, 482280, Note_on_c, 3, 60, 109
5, 482396, Note_off_c, 3, 60, 64
5, 482400, Note_on_c, 3, 59, 95
5, 482516, Note_off_c, 3, 59, 64
5, 482520, Note_on_c, 3, 57, 104
5, 482636, Note_off_c, 3, 57, 64
5, 482640, Note_on_c, 3, 55, 96
5, 482876, Note_off_c, 3, 55, 64
5, 482880, Note_on_c, 3, 50, 109
5, 483116, Note_off_c, 3, 50, 64
5, 483120, Note_on_c, 3, 47, 104
5, 483356, Note_off_c, 3, 47, 64
5, 483360, Note_on_c, 3, 43, 115
5, 483596, Note_off_c, 3, 43, 64
5, 483720, Note_on_c, 3, 53, 109
5, 483836, Note_off_c, 3, 53, 64
5, 483840, Note_on_c, 3, 52, 102
5, 483956, Note_off_c, 3, 52, 64
5, 483960, Note_on_c, 3, 50, 95
5, 484076, Note_off_c, 3, 50, 64
5, 484080, Note_on_c, 3, 48, 101
5, 484196, Note_off_c, 3, 48, 64
5, 484200, Note_on_c, 3, 52, 97
5, 484316, Note_off_c, 3, 52, 64
5, 484320, Note_on_c, 3, 57, 98
5, 484436, Note_off_c, 3, 57, 64
5, 484440, Note_on_c, 3, 55, 96
5, 484556, Note_off_c, 3, 55, 64
5, 484560, Note_on_c, 3, 54, 93
5, 484676, Note_off_c, 3, 54, 64
5, 484680, Note_on_c, 3, 57, 100
5, 484796, Note_off_c, 3, 57, 64
5, 484800, Note_on_c, 3, 60, 98
5, 484916, Note_off_c, 3, 60, 64
5, 484920, Note_on_c, 3, 59, 96
5, 485036, Note_off_c, 3, 59, 64
5, 485040, Note_on_c, 3, 57, 77
5, 485156, Note_off_c, 3, 57, 64
5, 485160, Note_on_c, 3, 60, 100
5, 485276, Note_off_c, 3, 60, 64
5, 485280, Note_on_c, 3, 63, 93
5, 485396, Note_off_c, 3, 63, 64
5, 485400, Note_on_c, 3, 61, 93
5, 485516, Note_off_c, 3, 61, 64
5, 485520, Note_on_c, 3, 59, 85
5, 485636, Note_off_c, 3, 59, 64
5, 485640, Note_on_c, 3, 63, 71
5, 485756, Note_off_c, 3, 63, 64
5, 485760, Note_on_c, 3, 66, 71
5, 485876, Note_off_c, 3, 66, 64
5, 485880, Note_on_c, 3, 64, 71
5, 485996, Note_off_c, 3, 64, 64
5, 486000, Note_on_c, 3, 63, 104
5, 486116, Note_off_c, 3, 63, 64
5, 486120, Note_on_c, 3, 66, 89
5, 486236, Note_off_c, 3, 66, 64
5, 486240, Note_on_c, 3, 69, 88
5, 486356, Note_off_c, 3, 69, 64
5, 486360, Note_on_c, 3, 67, 93
5, 486476, Note_off_c, 3, 67, 64
5, 486480, Note_on_c, 3, 66, 108
5, 486596, Note_off_c, 3, 66, 64
5, 486600, Note_on_c, 3, 69, 92
5, 486716, Note_off_c, 3, 69, 64
5, 486720, Note_on_c, 3, 72, 98
5, 486836, Note_off_c, 3, 72, 64
5, 486840, Note_on_c, 3, 69, 97
5, 486956, Note_off_c, 3, 69, 64
5, 486960, Note_on_c, 3, 71, 97
5, 487076, Note_off_c, 3, 71, 64
5, 487080, Note_on_c, 3, 67, 101
5, 487196, Note_off_c, 3, 67, 64
5, 487200, Note_on_c, 3, 64, 98
5, 487316, Note_off_c, 3, 64, 64
5, 487320, Note_on_c, 3, 66, 90
5, 487436, Note_off_c, 3, 66, 64
5, 487440, Note_on_c, 3, 67, 92
5, 487556, Note_off_c, 3, 67, 64
5, 487560, Note_on_c, 3, 64, 89
5, 487676, Note_off_c, 3, 64, 64
5, 487680, Note_on_c, 3, 59, 84
5, 487796, Note_off_c, 3, 59, 64
5, 487800, Note_on_c, 3, 63, 89
5, 487916, Note_off_c, 3, 63, 64
5, 487920, Note_on_c, 3, 64, 73
5, 488036, Note_off_c, 3, 64, 64
5, 488040, Note_on_c, 3, 59, 67
5, 488156, Note_off_c, 3, 59, 64
5, 488160, Note_on_c, 3, 55, 78
5, 488276, Note_off_c, 3, 55, 64
5, 488280, Note_on_c, 3, 59, 92
5, 488396, Note_off_c, 3, 59, 64
5, 488400, Note_on_c, 3, 60, 96
5, 488516, Note_off_c, 3, 60, 64
5, 488520, Note_on_c, 3, 57, 91
5, 488636, Note_off_c, 3, 57, 64
5, 488640, Note_on_c, 3, 52, 82
5, 488756, Note_off_c, 3, 52, 64
5, 488760, Note_on_c, 3, 56, 88
5, 488876, Note_off_c, 3, 56, 64
5, 488880, Note_on_c, 3, 57, 72
5, 488996, Note_off_c, 3, 57, 64
5, 489000, Note_on_c, 3, 52, 82
5, 489116, Note_off_c, 3, 52, 64
5, 489120, Note_on_c, 3, 48, 84
5, 489236, Note_off_c, 3, 48, 64
5, 489240, Note_on_c, 3, 50, 84
5, 489356, Note_off_c, 3, 50, 64
5, 489360, Note_on_c, 3, 52, 93
5, 489476, Note_off_c, 3, 52, 64
5, 489480, Note_on_c, 3, 48, 91
5, 489596, Note_off_c, 3, 48, 64
5, 489600, Note_on_c, 3, 45, 76
5, 489716, Note_off_c, 3, 45, 64
5, 489720, Note_on_c, 3, 48, 90
5, 489836, Note_off_c, 3, 48, 64
5, 489840, Note_on_c, 3, 39, 119
5, 490076, Note_off_c, 3, 39, 64
5, 490080, Note_on_c, 3, 51, 108
5, 490316, Note_off_c, 3, 51, 64
5, 490320, Note_on_c, 3, 52, 115
5, 490556, Note_off_c, 3, 52, 64
5, 490560, Note_on_c, 3, 48, 111
5, 490796, Note_off_c, 3, 48, 64
5, 490800, Note_on_c, 3, 45, 98
5, 491036, Note_off_c, 3, 45, 64
5, 491040, Note_on_c, 3, 47, 121
5, 491276, Note_off_c, 3, 47, 64
5, 491280, Note_on_c, 3, 40, 115
5, 491516, Note_off_c, 3, 40, 64
5, 491520, Note_on_c, 3, 43, 106
5, 491756, Note_off_c, 3, 43, 64
5, 491760, Note_on_c, 3, 47, 109
5, 491996, Note_off_c, 3, 47, 64
5, 492000, Note_on_c, 3, 52, 102
5, 492236, Note_off_c, 3, 52, 64
5, 492360, Note_on_c, 3, 50, 98
5, 492476, Note_off_c, 3, 50, 64
5, 492480, Note_on_c, 3, 48, 106
5, 492596, Note_off_c, 3, 48, 64
5, 492600, Note_on_c, 3, 47, 95
5, 492716, Note_off_c, 3, 47, 64
5, 492720, Note_on_c, 3, 48, 100
5, 492836, Note_off_c, 3, 48, 64
5, 492840, Note_on_c, 3, 52, 98
5, 492956, Note_off_c, 3, 52, 64
5, 492960, Note_on_c, 3, 55, 93
5, 493076, Note_off_c, 3, 55, 64
5, 493080, Note_on_c, 3, 53, 93
5, 493196, Note_off_c, 3, 53, 64
5, 493200, Note_on_c, 3, 52, 98
5, 493316, Note_off_c, 3, 52, 64
5, 493320, Note_on_c, 3, 55, 92
5, 493436, Note_off_c, 3, 55, 64
5, 493440, Note_on_c, 3, 60, 97
5, 493556, Note_off_c, 3, 60, 64
5, 493560, Note_on_c, 3, 59, 93
5, 493676, Note_off_c, 3, 59, 64
5, 493680, Note_on_c, 3, 58, 101
5, 493796, Note_off_c, 3, 58, 64
5, 493800, Note_on_c, 3, 61, 102
5, 493916, Note_off_c, 3, 61, 64
5, 493920, Note_on_c, 3, 66, 106
5, 494036, Note_off_c, 3, 66, 64
5, 494160, Note_on_c, 3, 47, 52
5, 494276, Note_off_c, 3, 47, 64
5, 494280, Note_on_c, 3, 50, 97
5, 494396, Note_off_c, 3, 50, 64
5, 494400, Note_on_c, 3, 54, 46
5, 494516, Note_off_c, 3, 54, 64
5, 494520, Note_on_c, 3, 52, 46
5, 494636, Note_off_c, 3, 52, 64
5, 494640, Note_on_c, 3, 50, 90
5, 494756, Note_off_c, 3, 50, 64
5, 494760, Note_on_c, 3, 54, 88
5, 494876, Note_off_c, 3, 54, 64
5, 494880, Note_on_c, 3, 59, 100
5, 494996, Note_off_c, 3, 59, 64
5, 495000, Note_on_c, 3, 57, 100
5, 495116, Note_off_c, 3, 57, 64
5, 495120, Note_on_c, 3, 56, 96
5, 495236, Note_off_c, 3, 56, 64
5, 495240, Note_on_c, 3, 59, 91
5, 495356, Note_off_c, 3, 59, 64
5, 495360, Note_on_c, 3, 64, 121
5, 495476, Note_off_c, 3, 64, 64
5, 495600, Note_on_c, 3, 45, 96
5, 495716, Note_off_c, 3, 45, 64
5, 495720, Note_on_c, 3, 48, 98
5, 495836, Note_off_c, 3, 48, 64
5, 495840, Note_on_c, 3, 52, 104
5, 495956, Note_off_c, 3, 52, 64
5, 495960, Note_on_c, 3, 50, 92
5, 496076, Note_off_c, 3, 50, 64
5, 496080, Note_on_c, 3, 48, 97
5, 496196, Note_off_c, 3, 48, 64
5, 496200, Note_on_c, 3, 45, 89
5, 496316, Note_off_c, 3, 45, 64
5, 496320, Note_on_c, 3, 48, 100
5, 496436, Note_off_c, 3, 48, 64
5, 496440, Note_on_c, 3, 52, 95
5, 496556, Note_off_c, 3, 52, 64
5, 496560, Note_on_c, 3, 57, 100
5, 496676, Note_off_c, 3, 57, 64
5, 496680, Note_on_c, 3, 60, 117
5, 496796, Note_off_c, 3, 60, 64
5, 496800, Note_on_c, 3, 54, 108
5, 496916, Note_off_c, 3, 54, 64
5, 496920, Note_on_c, 3, 55, 104
5, 497036, Note_off_c, 3, 55, 64
5, 497040, Note_on_c, 3, 57, 107
5, 497156, Note_off_c, 3, 57, 64
5, 497160, Note_on_c, 3, 54, 117
5, 497276, Note_off_c, 3, 54, 64
5, 497280, Note_on_c, 3, 50, 95
5, 497396, Note_off_c, 3, 50, 64
5, 497400, Note_on_c, 3, 52, 102
5, 497516, Note_off_c, 3, 52, 64
5, 497520, Note_on_c, 3, 54, 99
5, 497636, Note_off_c, 3, 54, 64
5, 497640, Note_on_c, 3, 50, 100
5, 497756, Note_off_c, 3, 50, 64
5, 497760, Note_on_c, 3, 45, 98
5, 497876, Note_off_c, 3, 45, 64
5, 497880, Note_on_c, 3, 47, 100
5, 497996, Note_off_c, 3, 47, 64
5, 498000, Note_on_c, 3, 48, 106
5, 498116, Note_off_c, 3, 48, 64
5, 498120, Note_on_c, 3, 45, 100
5, 498236, Note_off_c, 3, 45, 64
5, 498240, Note_on_c, 3, 42, 94
5, 498356, Note_off_c, 3, 42, 64
5, 498360, Note_on_c, 3, 38, 98
5, 498476, Note_off_c, 3, 38, 64
5, 498480, Note_on_c, 3, 43, 89
5, 498716, Note_off_c, 3, 43, 64
5, 498720, Note_on_c, 3, 47, 111
5, 498956, Note_off_c, 3, 47, 64
5, 498960, Note_on_c, 3, 50, 93
5, 499196, Note_off_c, 3, 50, 64
5, 499200, Note_on_c, 3, 53, 117
5, 499436, Note_off_c, 3, 53, 64
5, 499560, Note_on_c, 3, 53, 109
5, 499676, Note_off_c, 3, 53, 64
5, 499680, Note_on_c, 3, 52, 86
5, 499796, Note_off_c, 3, 52, 64
5, 499800, Note_on_c, 3, 50, 100
5, 499916, Note_off_c, 3, 50, 64
5, 499920, Note_on_c, 3, 48, 113
5, 500156, Note_off_c, 3, 48, 64
5, 500160, Note_on_c, 3, 52, 119
5, 500396, Note_off_c, 3, 52, 64
5, 500400, Note_on_c, 3, 55, 102
5, 500636, Note_off_c, 3, 55, 64
5, 500640, Note_on_c, 3, 60, 117
5, 500876, Note_off_c, 3, 60, 64
5, 501000, Note_on_c, 3, 60, 107
5, 501116, Note_off_c, 3, 60, 64
5, 501120, Note_on_c, 3, 59, 104
5, 501236, Note_off_c, 3, 59, 64
5, 501240, Note_on_c, 3, 60, 111
5, 501356, Note_off_c, 3, 60, 64
5, 501360, Note_on_c, 3, 50, 104
5, 501596, Note_off_c, 3, 50, 64
5, 501600, Note_on_c, 3, 54, 115
5, 501836, Note_off_c, 3, 54, 64
5, 501840, Note_on_c, 3, 57, 107
5, 502076, Note_off_c, 3, 57, 64
5, 502080, Note_on_c, 3, 60, 106
5, 502316, Note_off_c, 3, 60, 64
5, 502440, Note_on_c, 3, 60, 109
5, 502556, Note_off_c, 3, 60, 64
5, 502560, Note_on_c, 3, 62, 101
5, 502676, Note_off_c, 3, 62, 64
5, 502680, Note_on_c, 3, 54, 106
5, 502796, Note_off_c, 3, 54, 64
5, 502800, Note_on_c, 3, 55, 106
5, 502916, Note_off_c, 3, 55, 64
5, 502920, Note_on_c, 3, 59, 106
5, 503036, Note_off_c, 3, 59, 64
5, 503040, Note_on_c, 3, 62, 101
5, 503156, Note_off_c, 3, 62, 64
5, 503160, Note_on_c, 3, 66, 66
5, 503276, Note_off_c, 3, 66, 64
5, 503280, Note_on_c, 3, 67, 95
5, 503396, Note_off_c, 3, 67, 64
5, 503400, Note_on_c, 3, 66, 101
5, 503460, Note_off_c, 3, 66, 64
5, 503460, Note_on_c, 3, 64, 101
5, 503520, Note_off_c, 3, 64, 64
5, 503520, Note_on_c, 3, 62, 101
5, 503580, Note_off_c, 3, 62, 64
5, 503580, Note_on_c, 3, 60, 101
5, 503640, Note_off_c, 3, 60, 64
5, 503640, Note_on_c, 3, 59, 101
5, 503700, Note_off_c, 3, 59, 64
5, 503700, Note_on_c, 3, 57, 101
5, 503760, Note_off_c, 3, 57, 64
5, 503760, Note_on_c, 3, 55, 106
5, 504240, Note_off_c, 3, 55, 64
5, 505680, Note_on_c, 3, 43, 106
5, 506156, Note_off_c, 3, 43, 64
5, 506160, Note_on_c, 3, 55, 102
5, 506876, Note_off_c, 3, 55, 64
5, 506880, Note_on_c, 3, 54, 93
5, 506996, Note_off_c, 3, 54, 64
5, 507000, Note_on_c, 3, 52, 85
5, 507116, Note_off_c, 3, 52, 64
5, 507120, Note_on_c, 3, 54, 86
5, 507356, Note_off_c, 3, 54, 64
5, 507360, Note_on_c, 3, 50, 90
5, 507596, Note_off_c, 3, 50, 64
5, 507600, Note_on_c, 3, 55, 90
5, 507836, Note_off_c, 3, 55, 64
5, 507840, Note_on_c, 3, 57, 83
5, 508076, Note_off_c, 3, 57, 64
5, 508080, Note_on_c, 3, 59, 86
5, 508316, Note_off_c, 3, 59, 64
5, 508320, Note_on_c, 3, 60, 78
5, 508556, Note_off_c, 3, 60, 64
5, 508560, Note_on_c, 3, 62, 61
5, 509276, Note_off_c, 3, 62, 64
5, 509280, Note_on_c, 3, 63, 82
5, 509516, Note_off_c, 3, 63, 64
5, 509520, Note_on_c, 3, 64, 85
5, 510116, Note_off_c, 3, 64, 64
5, 510240, Note_on_c, 3, 60, 82
5, 510476, Note_off_c, 3, 60, 64
5, 510480, Note_on_c, 3, 55, 84
5, 510716, Note_off_c, 3, 55, 64
5, 510720, Note_on_c, 3, 62, 93
5, 510956, Note_off_c, 3, 62, 64
5, 510960, Note_on_c, 3, 67, 90
5, 511196, Note_off_c, 3, 67, 64
5, 511200, Note_on_c, 3, 69, 71
5, 511316, Note_off_c, 3, 69, 64
5, 511320, Note_on_c, 3, 71, 68
5, 511436, Note_off_c, 3, 71, 64
5, 511440, Note_on_c, 3, 72, 81
5, 511676, Note_off_c, 3, 72, 64
5, 511680, Note_on_c, 3, 71, 75
5, 511916, Note_off_c, 3, 71, 64
5, 511920, Note_on_c, 3, 69, 66
5, 512156, Note_off_c, 3, 69, 64
5, 512160, Note_on_c, 3, 74, 85
5, 512396, Note_off_c, 3, 74, 64
5, 512400, Note_on_c, 3, 67, 65
5, 513356, Note_off_c, 3, 67, 64
5, 513600, Note_on_c, 3, 55, 102
5, 514076, Note_off_c, 3, 55, 64
5, 514080, Note_on_c, 3, 54, 108
5, 514316, Note_off_c, 3, 54, 64
5, 514320, Note_on_c, 3, 52, 89
5, 514556, Note_off_c, 3, 52, 64
5, 514560, Note_on_c, 3, 64, 101
5, 514676, Note_off_c, 3, 64, 64
5, 514680, Note_on_c, 3, 63, 88
5, 514796, Note_off_c, 3, 63, 64
5, 514800, Note_on_c, 3, 64, 96
5, 515276, Note_off_c, 3, 64, 64
5, 515520, Note_on_c, 3, 52, 107
5, 515996, Note_off_c, 3, 52, 64
5, 516000, Note_on_c, 3, 50, 91
5, 516236, Note_off_c, 3, 50, 64
5, 516240, Note_on_c, 3, 48, 97
5, 516476, Note_off_c, 3, 48, 64
5, 516480, Note_on_c, 3, 60, 93
5, 516596, Note_off_c, 3, 60, 64
5, 516600, Note_on_c, 3, 59, 84
5, 516716, Note_off_c, 3, 59, 64
5, 516720, Note_on_c, 3, 60, 83
5, 516836, Note_off_c, 3, 60, 64
5, 516840, Note_on_c, 3, 62, 82
5, 516956, Note_off_c, 3, 62, 64
5, 516960, Note_on_c, 3, 64, 74
5, 517076, Note_off_c, 3, 64, 64
5, 517080, Note_on_c, 3, 62, 78
5, 517196, Note_off_c, 3, 62, 64
5, 517200, Note_on_c, 3, 61, 89
5, 517316, Note_off_c, 3, 61, 64
5, 517320, Note_on_c, 3, 57, 82
5, 517436, Note_off_c, 3, 57, 64
5, 517440, Note_on_c, 3, 62, 81
5, 517556, Note_off_c, 3, 62, 64
5, 517560, Note_on_c, 3, 61, 82
5, 517676, Note_off_c, 3, 61, 64
5, 517680, Note_on_c, 3, 59, 78
5, 517796, Note_off_c, 3, 59, 64
5, 517800, Note_on_c, 3, 57, 77
5, 517916, Note_off_c, 3, 57, 64
5, 517920, Note_on_c, 3, 59, 78
5, 518036, Note_off_c, 3, 59, 64
5, 518040, Note_on_c, 3, 56, 77
5, 518156, Note_off_c, 3, 56, 64
5, 518160, Note_on_c, 3, 57, 75
5, 518276, Note_off_c, 3, 57, 64
5, 518280, Note_on_c, 3, 59, 74
5, 518396, Note_off_c, 3, 59, 64
5, 518400, Note_on_c, 3, 57, 74
5, 518516, Note_off_c, 3, 57, 64
5, 518520, Note_on_c, 3, 55, 82
5, 518636, Note_off_c, 3, 55, 64
5, 518640, Note_on_c, 3, 54, 82
5, 518756, Note_off_c, 3, 54, 64
5, 518760, Note_on_c, 3, 52, 93
5, 518876, Note_off_c, 3, 52, 64
5, 518880, Note_on_c, 3, 50, 92
5, 518996, Note_off_c, 3, 50, 64
5, 519000, Note_on_c, 3, 49, 89
5, 519116, Note_off_c, 3, 49, 64
5, 519120, Note_on_c, 3, 50, 85
5, 519236, Note_off_c, 3, 50, 64
5, 519240, Note_on_c, 3, 49, 94
5, 519356, Note_off_c, 3, 49, 64
5, 519360, Note_on_c, 3, 47, 88
5, 519476, Note_off_c, 3, 47, 64
5, 519480, Note_on_c, 3, 45, 72
5, 519596, Note_off_c, 3, 45, 64
5, 519600, Note_on_c, 3, 43, 80
5, 519716, Note_off_c, 3, 43, 64
5, 519720, Note_on_c, 3, 40, 56
5, 519836, Note_off_c, 3, 40, 64
5, 519840, Note_on_c, 3, 45, 86
5, 520080, Note_off_c, 3, 45, 64
5, 520080, Note_on_c, 3, 38, 95
5, 520316, Note_off_c, 3, 38, 64
5, 520320, Note_on_c, 3, 42, 82
5, 520436, Note_off_c, 3, 42, 64
5, 520440, Note_on_c, 3, 45, 84
5, 520556, Note_off_c, 3, 45, 64
5, 520560, Note_on_c, 3, 50, 77
5, 521040, Note_off_c, 3, 50, 64
5, 521040, Note_on_c, 3, 43, 55
5, 521516, Note_off_c, 3, 43, 64
5, 521520, Note_on_c, 3, 55, 49
5, 522236, Note_off_c, 3, 55, 64
5, 522240, Note_on_c, 3, 54, 59
5, 522356, Note_off_c, 3, 54, 64
5, 522360, Note_on_c, 3, 52, 65
5, 522476, Note_off_c, 3, 52, 64
5, 522480, Note_on_c, 3, 54, 72
5, 522716, Note_off_c, 3, 54, 64
5, 522720, Note_on_c, 3, 50, 72
5, 522956, Note_off_c, 3, 50, 64
5, 522960, Note_on_c, 3, 55, 55
5, 523196, Note_off_c, 3, 55, 64
5, 523200, Note_on_c, 3, 57, 75
5, 523436, Note_off_c, 3, 57, 64
5, 523440, Note_on_c, 3, 59, 68
5, 523676, Note_off_c, 3, 59, 64
5, 523680, Note_on_c, 3, 60, 71
5, 523916, Note_off_c, 3, 60, 64
5, 523920, Note_on_c, 3, 62, 55
5, 524636, Note_off_c, 3, 62, 64
5, 524640, Note_on_c, 3, 63, 71
5, 524876, Note_off_c, 3, 63, 64
5, 524880, Note_on_c, 3, 64, 73
5, 525600, Note_off_c, 3, 64, 64
5, 525600, Note_on_c, 3, 60, 95
5, 525840, Note_off_c, 3, 60, 64
5, 525840, Note_on_c, 3, 55, 68
5, 526076, Note_off_c, 3, 55, 64
5, 526080, Note_on_c, 3, 62, 86
5, 526316, Note_off_c, 3, 62, 64
5, 526320, Note_on_c, 3, 67, 81
5, 526556, Note_off_c, 3, 67, 64
5, 526560, Note_on_c, 3, 69, 66
5, 526676, Note_off_c, 3, 69, 64
5, 526680, Note_on_c, 3, 71, 72
5, 526796, Note_off_c, 3, 71, 64
5, 526800, Note_on_c, 3, 72, 85
5, 527036, Note_off_c, 3, 72, 64
5, 527040, Note_on_c, 3, 71, 74
5, 527276, Note_off_c, 3, 71, 64
5, 527280, Note_on_c, 3, 69, 70
5, 527516, Note_off_c, 3, 69, 64
5, 527520, Note_on_c, 3, 74, 88
5, 527756, Note_off_c, 3, 74, 64
5, 527760, Note_on_c, 3, 67, 71
5, 528956, Note_off_c, 3, 67, 64
5, 528960, Note_on_c, 3, 55, 77
5, 529436, Note_off_c, 3, 55, 64
5, 529440, Note_on_c, 3, 54, 89
5, 529676, Note_off_c, 3, 54, 64
5, 529680, Note_on_c, 3, 52, 91
5, 529916, Note_off_c, 3, 52, 64
5, 529920, Note_on_c, 3, 64, 90
5, 530036, Note_off_c, 3, 64, 64
5, 530040, Note_on_c, 3, 63, 86
5, 530156, Note_off_c, 3, 63, 64
5, 530160, Note_on_c, 3, 64, 95
5, 530876, Note_off_c, 3, 64, 64
5, 530880, Note_on_c, 3, 52, 75
5, 531356, Note_off_c, 3, 52, 64
5, 531360, Note_on_c, 3, 50, 66
5, 531596, Note_off_c, 3, 50, 64
5, 531600, Note_on_c, 3, 48, 80
5, 531836, Note_off_c, 3, 48, 64
5, 531840, Note_on_c, 3, 60, 72
5, 531956, Note_off_c, 3, 60, 64
5, 531960, Note_on_c, 3, 59, 90
5, 532076, Note_off_c, 3, 59, 64
5, 532080, Note_on_c, 3, 60, 81
5, 532196, Note_off_c, 3, 60, 64
5, 532200, Note_on_c, 3, 62, 60
5, 532316, Note_off_c, 3, 62, 64
5, 532320, Note_on_c, 3, 64, 80
5, 532436, Note_off_c, 3, 64, 64
5, 532440, Note_on_c, 3, 62, 68
5, 532556, Note_off_c, 3, 62, 64
5, 532560, Note_on_c, 3, 61, 77
5, 532676, Note_off_c, 3, 61, 64
5, 532680, Note_on_c, 3, 57, 77
5, 532800, Note_off_c, 3, 57, 64
5, 532800, Note_on_c, 3, 62, 76
5, 532916, Note_off_c, 3, 62, 64
5, 532920, Note_on_c, 3, 61, 75
5, 533036, Note_off_c, 3, 61, 64
5, 533040, Note_on_c, 3, 59, 76
5, 533156, Note_off_c, 3, 59, 64
5, 533160, Note_on_c, 3, 57, 74
5, 533280, Note_off_c, 3, 57, 64
5, 533280, Note_on_c, 3, 59, 68
5, 533396, Note_off_c, 3, 59, 64
5, 533400, Note_on_c, 3, 56, 68
5, 533516, Note_off_c, 3, 56, 64
5, 533520, Note_on_c, 3, 57, 78
5, 533636, Note_off_c, 3, 57, 64
5, 533640, Note_on_c, 3, 59, 82
5, 533756, Note_off_c, 3, 59, 64
5, 533760, Note_on_c, 3, 57, 82
5, 533880, Note_off_c, 3, 57, 64
5, 533880, Note_on_c, 3, 55, 68
5, 533996, Note_off_c, 3, 55, 64
5, 534000, Note_on_c, 3, 54, 79
5, 534116, Note_off_c, 3, 54, 64
5, 534120, Note_on_c, 3, 52, 86
5, 534236, Note_off_c, 3, 52, 64
5, 534240, Note_on_c, 3, 50, 81
5, 534356, Note_off_c, 3, 50, 64
5, 534360, Note_on_c, 3, 49, 89
5, 534476, Note_off_c, 3, 49, 64
5, 534480, Note_on_c, 3, 50, 84
5, 534596, Note_off_c, 3, 50, 64
5, 534600, Note_on_c, 3, 49, 92
5, 534716, Note_off_c, 3, 49, 64
5, 534720, Note_on_c, 3, 47, 89
5, 534836, Note_off_c, 3, 47, 64
5, 534840, Note_on_c, 3, 45, 92
5, 534956, Note_off_c, 3, 45, 64
5, 534960, Note_on_c, 3, 43, 74
5, 535076, Note_off_c, 3, 43, 64
5, 535080, Note_on_c, 3, 40, 47
5, 535196, Note_off_c, 3, 40, 64
5, 535200, Note_on_c, 3, 45, 77
5, 535436, Note_off_c, 3, 45, 64
5, 535440, Note_on_c, 3, 38, 61
5, 535680, Note_off_c, 3, 38, 64
5, 535680, Note_on_c, 3, 42, 66
5, 535796, Note_off_c, 3, 42, 64
5, 535800, Note_on_c, 3, 45, 72
5, 535916, Note_off_c, 3, 45, 64
5, 535920, Note_on_c, 3, 50, 62
5, 536400, Note_off_c, 3, 50, 64
5, 536400, Note_on_c, 3, 50, 100
5, 536636, Note_off_c, 3, 50, 64
5, 536640, Note_on_c, 3, 62, 113
5, 537116, Note_off_c, 3, 62, 64
5, 537120, Note_on_c, 3, 60, 85
5, 537356, Note_off_c, 3, 60, 64
5, 537360, Note_on_c, 3, 59, 72
5, 537476, Note_off_c, 3, 59, 64
5, 537480, Note_on_c, 3, 57, 64
5, 537596, Note_off_c, 3, 57, 64
5, 537600, Note_on_c, 3, 59, 76
5, 537716, Note_off_c, 3, 59, 64
5, 537720, Note_on_c, 3, 60, 69
5, 537836, Note_off_c, 3, 60, 64
5, 537840, Note_on_c, 3, 59, 65
5, 537956, Note_off_c, 3, 59, 64
5, 537960, Note_on_c, 3, 57, 59
5, 538076, Note_off_c, 3, 57, 64
5, 538080, Note_on_c, 3, 55, 62
5, 538196, Note_off_c, 3, 55, 64
5, 538200, Note_on_c, 3, 54, 60
5, 538316, Note_off_c, 3, 54, 64
5, 538320, Note_on_c, 3, 55, 81
5, 538556, Note_off_c, 3, 55, 64
5, 538560, Note_on_c, 3, 67, 109
5, 539040, Note_off_c, 3, 67, 64
5, 539040, Note_on_c, 3, 66, 81
5, 539276, Note_off_c, 3, 66, 64
5, 539280, Note_on_c, 3, 64, 97
5, 539396, Note_off_c, 3, 64, 64
5, 539400, Note_on_c, 3, 63, 54
5, 539516, Note_off_c, 3, 63, 64
5, 539520, Note_on_c, 3, 64, 81
5, 539636, Note_off_c, 3, 64, 64
5, 539640, Note_on_c, 3, 66, 82
5, 539756, Note_off_c, 3, 66, 64
5, 539760, Note_on_c, 3, 64, 63
5, 539876, Note_off_c, 3, 64, 64
5, 539880, Note_on_c, 3, 62, 65
5, 539996, Note_off_c, 3, 62, 64
5, 540000, Note_on_c, 3, 60, 76
5, 540116, Note_off_c, 3, 60, 64
5, 540120, Note_on_c, 3, 59, 78
5, 540236, Note_off_c, 3, 59, 64
5, 540240, Note_on_c, 3, 58, 78
5, 540356, Note_off_c, 3, 58, 64
5, 540360, Note_on_c, 3, 64, 78
5, 540476, Note_off_c, 3, 64, 64
5, 540480, Note_on_c, 3, 66, 78
5, 540596, Note_off_c, 3, 66, 64
5, 540600, Note_on_c, 3, 67, 78
5, 540716, Note_off_c, 3, 67, 64
5, 540720, Note_on_c, 3, 69, 78
5, 540960, Note_off_c, 3, 69, 64
5, 540960, Note_on_c, 3, 57, 78
5, 541200, Note_off_c, 3, 57, 64
5, 541200, Note_on_c, 3, 55, 77
5, 541320, Note_off_c, 3, 55, 64
5, 541320, Note_on_c, 3, 57, 93
5, 541436, Note_off_c, 3, 57, 64
5, 541440, Note_on_c, 3, 59, 73
5, 541556, Note_off_c, 3, 59, 64
5, 541560, Note_on_c, 3, 55, 73
5, 541676, Note_off_c, 3, 55, 64
5, 541680, Note_on_c, 3, 52, 81
5, 541796, Note_off_c, 3, 52, 64
5, 541800, Note_on_c, 3, 54, 90
5, 541916, Note_off_c, 3, 54, 64
5, 541920, Note_on_c, 3, 55, 82
5, 542036, Note_off_c, 3, 55, 64
5, 542040, Note_on_c, 3, 52, 71
5, 542156, Note_off_c, 3, 52, 64
5, 542160, Note_on_c, 3, 60, 81
5, 542396, Note_off_c, 3, 60, 64
5, 542400, Note_on_c, 3, 57, 88
5, 542636, Note_off_c, 3, 57, 64
5, 542640, Note_on_c, 3, 59, 92
5, 542876, Note_off_c, 3, 59, 64
5, 542880, Note_on_c, 3, 47, 92
5, 543116, Note_off_c, 3, 47, 64
5, 543120, Note_on_c, 3, 40, 115
5, 543600, Note_off_c, 3, 40, 64
5, 543840, Note_on_c, 3, 52, 123
5, 544316, Note_off_c, 3, 52, 64
5, 544320, Note_on_c, 3, 48, 92
5, 544556, Note_off_c, 3, 48, 64
5, 544560, Note_on_c, 3, 50, 83
5, 544796, Note_off_c, 3, 50, 64
5, 544800, Note_on_c, 3, 52, 81
5, 545036, Note_off_c, 3, 52, 64
5, 545040, Note_on_c, 3, 45, 88
5, 545280, Note_off_c, 3, 45, 64
5, 545280, Note_on_c, 3, 57, 76
5, 545520, Note_off_c, 3, 57, 64
5, 545520, Note_on_c, 3, 52, 82
5, 545640, Note_off_c, 3, 52, 64
5, 545640, Note_on_c, 3, 50, 80
5, 545756, Note_off_c, 3, 50, 64
5, 545760, Note_on_c, 3, 52, 81
5, 545876, Note_off_c, 3, 52, 64
5, 545880, Note_on_c, 3, 54, 78
5, 545996, Note_off_c, 3, 54, 64
5, 546000, Note_on_c, 3, 55, 66
5, 546116, Note_off_c, 3, 55, 64
5, 546120, Note_on_c, 3, 57, 81
5, 546236, Note_off_c, 3, 57, 64
5, 546240, Note_on_c, 3, 59, 80
5, 546356, Note_off_c, 3, 59, 64
5, 546360, Note_on_c, 3, 55, 69
5, 546476, Note_off_c, 3, 55, 64
5, 546480, Note_on_c, 3, 57, 75
5, 546596, Note_off_c, 3, 57, 64
5, 546600, Note_on_c, 3, 54, 77
5, 546716, Note_off_c, 3, 54, 64
5, 546720, Note_on_c, 3, 55, 75
5, 546836, Note_off_c, 3, 55, 64
5, 546840, Note_on_c, 3, 57, 74
5, 546956, Note_off_c, 3, 57, 64
5, 546960, Note_on_c, 3, 50, 77
5, 547076, Note_off_c, 3, 50, 64
5, 547080, Note_on_c, 3, 52, 78
5, 547196, Note_off_c, 3, 52, 64
5, 547200, Note_on_c, 3, 54, 88
5, 547316, Note_off_c, 3, 54, 64
5, 547320, Note_on_c, 3, 55, 73
5, 547436, Note_off_c, 3, 55, 64
5, 547440, Note_on_c, 3, 54, 84
5, 547556, Note_off_c, 3, 54, 64
5, 547560, Note_on_c, 3, 52, 81
5, 547676, Note_off_c, 3, 52, 64
5, 547680, Note_on_c, 3, 50, 83
5, 547796, Note_off_c, 3, 50, 64
5, 547800, Note_on_c, 3, 48, 84
5, 547916, Note_off_c, 3, 48, 64
5, 547920, Note_on_c, 3, 47, 73
5, 548036, Note_off_c, 3, 47, 64
5, 548040, Note_on_c, 3, 43, 73
5, 548156, Note_off_c, 3, 43, 64
5, 548160, Note_on_c, 3, 45, 85
5, 548276, Note_off_c, 3, 45, 64
5, 548280, Note_on_c, 3, 47, 95
5, 548396, Note_off_c, 3, 47, 64
5, 548400, Note_on_c, 3, 48, 81
5, 548516, Note_off_c, 3, 48, 64
5, 548520, Note_on_c, 3, 50, 85
5, 548636, Note_off_c, 3, 50, 64
5, 548640, Note_on_c, 3, 52, 93
5, 548756, Note_off_c, 3, 52, 64
5, 548760, Note_on_c, 3, 54, 96
5, 548876, Note_off_c, 3, 54, 64
5, 548880, Note_on_c, 3, 55, 88
5, 548996, Note_off_c, 3, 55, 64
5, 549000, Note_on_c, 3, 57, 91
5, 549116, Note_off_c, 3, 57, 64
5, 549120, Note_on_c, 3, 59, 81
5, 549236, Note_off_c, 3, 59, 64
5, 549240, Note_on_c, 3, 57, 85
5, 549356, Note_off_c, 3, 57, 64
5, 549360, Note_on_c, 3, 55, 70
5, 549476, Note_off_c, 3, 55, 64
5, 549480, Note_on_c, 3, 54, 82
5, 549596, Note_off_c, 3, 54, 64
5, 549600, Note_on_c, 3, 52, 81
5, 549716, Note_off_c, 3, 52, 64
5, 549720, Note_on_c, 3, 50, 66
5, 549836, Note_off_c, 3, 50, 64
5, 549840, Note_on_c, 3, 48, 86
5, 549956, Note_off_c, 3, 48, 64
5, 549960, Note_on_c, 3, 47, 84
5, 550076, Note_off_c, 3, 47, 64
5, 550080, Note_on_c, 3, 48, 84
5, 550196, Note_off_c, 3, 48, 64
5, 550200, Note_on_c, 3, 45, 78
5, 550316, Note_off_c, 3, 45, 64
5, 550320, Note_on_c, 3, 50, 102
5, 550556, Note_off_c, 3, 50, 64
5, 550560, Note_on_c, 3, 38, 88
5, 550796, Note_off_c, 3, 38, 64
5, 550800, Note_on_c, 3, 43, 61
5, 551040, Note_off_c, 3, 43, 64
5, 551040, Note_on_c, 3, 47, 37
5, 551156, Note_off_c, 3, 47, 64
5, 551160, Note_on_c, 3, 50, 91
5, 551276, Note_off_c, 3, 50, 64
5, 551280, Note_on_c, 3, 55, 106
5, 551760, Note_off_c, 3, 55, 64
5, 551760, Note_on_c, 3, 55, 102
5, 551820, Note_off_c, 3, 55, 64
5, 551820, Note_on_c, 3, 54, 101
5, 551880, Note_off_c, 3, 54, 64
5, 551880, Note_on_c, 3, 55, 86
5, 552600, Note_off_c, 3, 55, 64
5, 552720, Note_on_c, 3, 57, 102
5, 552780, Note_off_c, 3, 57, 64
5, 552780, Note_on_c, 3, 55, 102
5, 552840, Note_off_c, 3, 55, 64
5, 552840, Note_on_c, 3, 57, 102
5, 552900, Note_off_c, 3, 57, 64
5, 552900, Note_on_c, 3, 55, 102
5, 552960, Note_off_c, 3, 55, 64
5, 552960, Note_on_c, 3, 57, 102
5, 553020, Note_off_c, 3, 57, 64
5, 553020, Note_on_c, 3, 55, 102
5, 553080, Note_off_c, 3, 55, 64
5, 553080, Note_on_c, 3, 57, 102
5, 553140, Note_off_c, 3, 57, 64
5, 553140, Note_on_c, 3, 55, 102
5, 553200, Note_off_c, 3, 55, 64
5, 553200, Note_on_c, 3, 57, 102
5, 553260, Note_off_c, 3, 57, 64
5, 553260, Note_on_c, 3, 55, 102
5, 553320, Note_off_c, 3, 55, 64
5, 553320, Note_on_c, 3, 57, 102
5, 553380, Note_off_c, 3, 57, 64
5, 553380, Note_on_c, 3, 55, 102
5, 553440, Note_off_c, 3, 55, 64
5, 553440, Note_on_c, 3, 54, 96
5, 553560, Note_off_c, 3, 54, 64
5, 553560, Note_on_c, 3, 55, 96
5, 553676, Note_off_c, 3, 55, 64
5, 553680, Note_on_c, 3, 57, 95
5, 554156, Note_off_c, 3, 57, 64
5, 554160, Note_on_c, 3, 54, 106
5, 554636, Note_off_c, 3, 54, 64
5, 554640, Note_on_c, 3, 50, 82
5, 555116, Note_off_c, 3, 50, 64
5, 555120, Note_on_c, 3, 54, 104
5, 555596, Note_off_c, 3, 54, 64
5, 555600, Note_on_c, 3, 52, 95
5, 556076, Note_off_c, 3, 52, 64
5, 556080, Note_on_c, 3, 57, 119
5, 556556, Note_off_c, 3, 57, 64
5, 556560, Note_on_c, 3, 45, 102
5, 557036, Note_off_c, 3, 45, 64
5, 557040, Note_on_c, 3, 55, 98
5, 557516, Note_off_c, 3, 55, 64
5, 557520, Note_on_c, 3, 55, 100
5, 557580, Note_off_c, 3, 55, 64
5, 557580, Note_on_c, 3, 54, 101
5, 557640, Note_off_c, 3, 54, 64
5, 557640, Note_on_c, 3, 55, 101
5, 557700, Note_off_c, 3, 55, 64
5, 557700, Note_on_c, 3, 54, 101
5, 557940, Note_off_c, 3, 54, 64
5, 558000, Note_on_c, 3, 52, 102
5, 558236, Note_off_c, 3, 52, 64
5, 558240, Note_on_c, 3, 54, 106
5, 558476, Note_off_c, 3, 54, 64
5, 558480, Note_on_c, 3, 50, 97
5, 558716, Note_off_c, 3, 50, 64
5, 558720, Note_on_c, 3, 52, 98
5, 558956, Note_off_c, 3, 52, 64
5, 558960, Note_on_c, 3, 48, 97
5, 559196, Note_off_c, 3, 48, 64
5, 559200, Note_on_c, 3, 50, 92
5, 559436, Note_off_c, 3, 50, 64
5, 559440, Note_on_c, 3, 47, 89
5, 559676, Note_off_c, 3, 47, 64
5, 559680, Note_on_c, 3, 50, 97
5, 559916, Note_off_c, 3, 50, 64
5, 559920, Note_on_c, 3, 52, 98
5, 560156, Note_off_c, 3, 52, 64
5, 560160, Note_on_c, 3, 54, 104
5, 560396, Note_off_c, 3, 54, 64
5, 560400, Note_on_c, 3, 55, 106
5, 560876, Note_off_c, 3, 55, 64
5, 560880, Note_on_c, 3, 47, 101
5, 561356, Note_off_c, 3, 47, 64
5, 561360, Note_on_c, 3, 48, 109
5, 562796, Note_off_c, 3, 48, 64
5, 562800, Note_on_c, 3, 45, 119
5, 563276, Note_off_c, 3, 45, 64
5, 563280, Note_on_c, 3, 42, 119
5, 564240, Note_off_c, 3, 42, 64
5, 564720, Note_on_c, 3, 38, 115
5, 565196, Note_off_c, 3, 38, 64
5, 565200, Note_on_c, 3, 43, 104
5, 565676, Note_off_c, 3, 43, 64
5, 565680, Note_on_c, 3, 50, 104
5, 566156, Note_off_c, 3, 50, 64
5, 566160, Note_on_c, 3, 47, 93
5, 566636, Note_off_c, 3, 47, 64
5, 566640, Note_on_c, 3, 50, 98
5, 567116, Note_off_c, 3, 50, 64
5, 567120, Note_on_c, 3, 55, 106
5, 568076, Note_off_c, 3, 55, 64
5, 568560, Note_on_c, 3, 52, 111
5, 569036, Note_off_c, 3, 52, 64
5, 569040, Note_on_c, 3, 54, 117
5, 569996, Note_off_c, 3, 54, 64
5, 570480, Note_on_c, 3, 50, 113
5, 570956, Note_off_c, 3, 50, 64
5, 570960, Note_on_c, 3, 55, 106
5, 571920, Note_off_c, 3, 55, 64
5, 572400, Note_on_c, 3, 52, 119
5, 572876, Note_off_c, 3, 52, 64
5, 572880, Note_on_c, 3, 57, 121
5, 573836, Note_off_c, 3, 57, 64
5, 574320, Note_on_c, 3, 55, 113
5, 574796, Note_off_c, 3, 55, 64
5, 574800, Note_on_c, 3, 54, 108
5, 575756, Note_off_c, 3, 54, 64
5, 576240, Note_on_c, 3, 50, 104
5, 576716, Note_off_c, 3, 50, 64
5, 576720, Note_on_c, 3, 43, 106
5, 577196, Note_off_c, 3, 43, 64
5, 577200, Note_on_c, 3, 47, 113
5, 577676, Note_off_c, 3, 47, 64
5, 577680, Note_on_c, 3, 43, 107
5, 578156, Note_off_c, 3, 43, 64
5, 578160, Note_on_c, 3, 40, 102
5, 578636, Note_off_c, 3, 40, 64
5, 578640, Note_on_c, 3, 45, 107
5, 579600, Note_off_c, 3, 45, 64
5, 580080, Note_on_c, 3, 45, 107
5, 580556, Note_off_c, 3, 45, 64
5, 580560, Note_on_c, 3, 50, 109
5, 582480, Note_off_c, 3, 50, 64
5, 582480, Note_on_c, 3, 55, 106
5, 582540, Note_off_c, 3, 55, 64
5, 582540, Note_on_c, 3, 54, 104
5, 582600, Note_off_c, 3, 54, 64
5, 582600, Note_on_c, 3, 55, 95
5, 583316, Note_off_c, 3, 55, 64
5, 583440, Note_on_c, 3, 57, 121
5, 583500, Note_off_c, 3, 57, 64
5, 583500, Note_on_c, 3, 55, 96
5, 583560, Note_off_c, 3, 55, 64
5, 583560, Note_on_c, 3, 57, 86
5, 583620, Note_off_c, 3, 57, 64
5, 583620, Note_on_c, 3, 55, 93
5, 583680, Note_off_c, 3, 55, 64
5, 583680, Note_on_c, 3, 57, 81
5, 583740, Note_off_c, 3, 57, 64
5, 583740, Note_on_c, 3, 55, 75
5, 583800, Note_off_c, 3, 55, 64
5, 583800, Note_on_c, 3, 57, 88
5, 583860, Note_off_c, 3, 57, 64
5, 583860, Note_on_c, 3, 55, 92
5, 583920, Note_off_c, 3, 55, 64
5, 583920, Note_on_c, 3, 57, 89
5, 583980, Note_off_c, 3, 57, 64
5, 583980, Note_on_c, 3, 55, 88
5, 584040, Note_off_c, 3, 55, 64
5, 584040, Note_on_c, 3, 57, 88
5, 584100, Note_off_c, 3, 57, 64
5, 584100, Note_on_c, 3, 55, 88
5, 584160, Note_off_c, 3, 55, 64
5, 584160, Note_on_c, 3, 54, 89
5, 584276, Note_off_c, 3, 54, 64
5, 584280, Note_on_c, 3, 55, 96
5, 584396, Note_off_c, 3, 55, 64
5, 584400, Note_on_c, 3, 57, 119
5, 584876, Note_off_c, 3, 57, 64
5, 584880, Note_on_c, 3, 54, 115
5, 585356, Note_off_c, 3, 54, 64
5, 585360, Note_on_c, 3, 50, 104
5, 585836, Note_off_c, 3, 50, 64
5, 585840, Note_on_c, 3, 54, 121
5, 586316, Note_off_c, 3, 54, 64
5, 586320, Note_on_c, 3, 52, 107
5, 586796, Note_off_c, 3, 52, 64
5, 586800, Note_on_c, 3, 57, 117
5, 587280, Note_off_c, 3, 57, 64
5, 587280, Note_on_c, 3, 45, 117
5, 587756, Note_off_c, 3, 45, 64
5, 587760, Note_on_c, 3, 55, 109
5, 588116, Note_off_c, 3, 55, 64
5, 588240, Note_on_c, 3, 55, 100
5, 588300, Note_off_c, 3, 55, 64
5, 588300, Note_on_c, 3, 54, 106
5, 588360, Note_off_c, 3, 54, 64
5, 588360, Note_on_c, 3, 55, 106
5, 588420, Note_off_c, 3, 55, 64
5, 588420, Note_on_c, 3, 54, 106
5, 588660, Note_off_c, 3, 54, 64
5, 588720, Note_on_c, 3, 52, 98
5, 588956, Note_off_c, 3, 52, 64
5, 588960, Note_on_c, 3, 54, 102
5, 589196, Note_off_c, 3, 54, 64
5, 589200, Note_on_c, 3, 50, 104
5, 589436, Note_off_c, 3, 50, 64
5, 589440, Note_on_c, 3, 52, 93
5, 589676, Note_off_c, 3, 52, 64
5, 589680, Note_on_c, 3, 48, 89
5, 589916, Note_off_c, 3, 48, 64
5, 589920, Note_on_c, 3, 50, 95
5, 590156, Note_off_c, 3, 50, 64
5, 590160, Note_on_c, 3, 47, 100
5, 590396, Note_off_c, 3, 47, 64
5, 590400, Note_on_c, 3, 50, 97
5, 590636, Note_off_c, 3, 50, 64
5, 590640, Note_on_c, 3, 52, 96
5, 590876, Note_off_c, 3, 52, 64
5, 590880, Note_on_c, 3, 54, 101
5, 591116, Note_off_c, 3, 54, 64
5, 591120, Note_on_c, 3, 55, 104
5, 591596, Note_off_c, 3, 55, 64
5, 591600, Note_on_c, 3, 47, 113
5, 592076, Note_off_c, 3, 47, 64
5, 592080, Note_on_c, 3, 48, 109
5, 593040, Note_off_c, 3, 48, 64
5, 593520, Note_on_c, 3, 45, 107
5, 593996, Note_off_c, 3, 45, 64
5, 594000, Note_on_c, 3, 42, 112
5, 594960, Note_off_c, 3, 42, 64
5, 595440, Note_on_c, 3, 38, 107
5, 595916, Note_off_c, 3, 38, 64
5, 595920, Note_on_c, 3, 43, 117
5, 596396, Note_off_c, 3, 43, 64
5, 596400, Note_on_c, 3, 50, 115
5, 596876, Note_off_c, 3, 50, 64
5, 596880, Note_on_c, 3, 47, 113
5, 597360, Note_off_c, 3, 47, 64
5, 597360, Note_on_c, 3, 50, 104
5, 597836, Note_off_c, 3, 50, 64
5, 597840, Note_on_c, 3, 55, 107
5, 598796, Note_off_c, 3, 55, 64
5, 599280, Note_on_c, 3, 52, 109
5, 599756, Note_off_c, 3, 52, 64
5, 599760, Note_on_c, 3, 54, 115
5, 600716, Note_off_c, 3, 54, 64
5, 601200, Note_on_c, 3, 50, 113
5, 601676, Note_off_c, 3, 50, 64
5, 601680, Note_on_c, 3, 55, 111
5, 602640, Note_off_c, 3, 55, 64
5, 603120, Note_on_c, 3, 52, 121
5, 603596, Note_off_c, 3, 52, 64
5, 603600, Note_on_c, 3, 57, 121
5, 604556, Note_off_c, 3, 57, 64
5, 605040, Note_on_c, 3, 55, 106
5, 605516, Note_off_c, 3, 55, 64
5, 605520, Note_on_c, 3, 54, 119
5, 606476, Note_off_c, 3, 54, 64
5, 606960, Note_on_c, 3, 50, 101
5, 607436, Note_off_c, 3, 50, 64
5, 607440, Note_on_c, 3, 43, 100
5, 607916, Note_off_c, 3, 43, 64
5, 607920, Note_on_c, 3, 47, 106
5, 608396, Note_off_c, 3, 47, 64
5, 608400, Note_on_c, 3, 43, 102
5, 608876, Note_off_c, 3, 43, 64
5, 608880, Note_on_c, 3, 40, 102
5, 609356, Note_off_c, 3, 40, 64
5, 609360, Note_on_c, 3, 45, 104
5, 610320, Note_off_c, 3, 45, 64
5, 610800, Note_on_c, 3, 45, 102
5, 611276, Note_off_c, 3, 45, 64
5, 611280, Note_on_c, 3, 50, 101
5, 613200, Note_off_c, 3, 50, 64
5, 613200, Note_on_c, 3, 50, 104
5, 613436, Note_off_c, 3, 50, 64
5, 613440, Note_on_c, 3, 52, 109
5, 613676, Note_off_c, 3, 52, 64
5, 613680, Note_on_c, 3, 54, 99
5, 613916, Note_off_c, 3, 54, 64
5, 613920, Note_on_c, 3, 55, 101
5, 614156, Note_off_c, 3, 55, 64
5, 614160, Note_on_c, 3, 57, 107
5, 614636, Note_off_c, 3, 57, 64
5, 614640, Note_on_c, 3, 48, 111
5, 615116, Note_off_c, 3, 48, 64
5, 615120, Note_on_c, 3, 47, 101
5, 615356, Note_off_c, 3, 47, 64
5, 615360, Note_on_c, 3, 50, 101
5, 615596, Note_off_c, 3, 50, 64
5, 615600, Note_on_c, 3, 52, 102
5, 615836, Note_off_c, 3, 52, 64
5, 615840, Note_on_c, 3, 54, 104
5, 616076, Note_off_c, 3, 54, 64
5, 616080, Note_on_c, 3, 55, 101
5, 616316, Note_off_c, 3, 55, 64
5, 616320, Note_on_c, 3, 57, 106
5, 616556, Note_off_c, 3, 57, 64
5, 616560, Note_on_c, 3, 59, 115
5, 617516, Note_off_c, 3, 59, 64
5, 617520, Note_on_c, 3, 57, 107
5, 617756, Note_off_c, 3, 57, 64
5, 617760, Note_on_c, 3, 56, 101
5, 617996, Note_off_c, 3, 56, 64
5, 618000, Note_on_c, 3, 57, 109
5, 619436, Note_off_c, 3, 57, 64
5, 619440, Note_on_c, 3, 54, 106
5, 619916, Note_off_c, 3, 54, 64
5, 619920, Note_on_c, 3, 59, 115
5, 620396, Note_off_c, 3, 59, 64
5, 620400, Note_on_c, 3, 57, 106
5, 620876, Note_off_c, 3, 57, 64
5, 620880, Note_on_c, 3, 55, 101
5, 621116, Note_off_c, 3, 55, 64
5, 621120, Note_on_c, 3, 57, 93
5, 621356, Note_off_c, 3, 57, 64
5, 621360, Note_on_c, 3, 59, 95
5, 621596, Note_off_c, 3, 59, 64
5, 621600, Note_on_c, 3, 57, 97
5, 621836, Note_off_c, 3, 57, 64
5, 621840, Note_on_c, 3, 55, 100
5, 622076, Note_off_c, 3, 55, 64
5, 622080, Note_on_c, 3, 54, 93
5, 622316, Note_off_c, 3, 54, 64
5, 622320, Note_on_c, 3, 55, 92
5, 622556, Note_off_c, 3, 55, 64
5, 622560, Note_on_c, 3, 52, 95
5, 622796, Note_off_c, 3, 52, 64
5, 622800, Note_on_c, 3, 57, 98
5, 623036, Note_off_c, 3, 57, 64
5, 623040, Note_on_c, 3, 59, 90
5, 623276, Note_off_c, 3, 59, 64
5, 623280, Note_on_c, 3, 60, 109
5, 623516, Note_off_c, 3, 60, 64
5, 623520, Note_on_c, 3, 59, 98
5, 623756, Note_off_c, 3, 59, 64
5, 623760, Note_on_c, 3, 57, 93
5, 623996, Note_off_c, 3, 57, 64
5, 624000, Note_on_c, 3, 55, 112
5, 624236, Note_off_c, 3, 55, 64
5, 624240, Note_on_c, 3, 57, 100
5, 624476, Note_off_c, 3, 57, 64
5, 624480, Note_on_c, 3, 54, 89
5, 624716, Note_off_c, 3, 54, 64
5, 624720, Note_on_c, 3, 59, 104
5, 624956, Note_off_c, 3, 59, 64
5, 624960, Note_on_c, 3, 57, 92
5, 625196, Note_off_c, 3, 57, 64
5, 625200, Note_on_c, 3, 55, 101
5, 625436, Note_off_c, 3, 55, 64
5, 625440, Note_on_c, 3, 57, 93
5, 625676, Note_off_c, 3, 57, 64
5, 625680, Note_on_c, 3, 59, 96
5, 625916, Note_off_c, 3, 59, 64
5, 625920, Note_on_c, 3, 57, 93
5, 626156, Note_off_c, 3, 57, 64
5, 626160, Note_on_c, 3, 59, 90
5, 626396, Note_off_c, 3, 59, 64
5, 626400, Note_on_c, 3, 47, 85
5, 626640, Note_off_c, 3, 47, 64
5, 626640, Note_on_c, 3, 52, 90
5, 626880, Note_off_c, 3, 52, 64
5, 626880, Note_on_c, 3, 47, 109
5, 627120, Note_off_c, 3, 47, 64
5, 627120, Note_on_c, 3, 45, 109
5, 627360, Note_off_c, 3, 45, 64
5, 627360, Note_on_c, 3, 47, 77
5, 627600, Note_off_c, 3, 47, 64
5, 627600, Note_on_c, 3, 43, 85
5, 627840, Note_off_c, 3, 43, 64
5, 627840, Note_on_c, 3, 42, 106
5, 628080, Note_off_c, 3, 42, 64
5, 628080, Note_on_c, 3, 43, 101
5, 628320, Note_off_c, 3, 43, 64
5, 628320, Note_on_c, 3, 40, 97
5, 628556, Note_off_c, 3, 40, 64
5, 628560, Note_on_c, 3, 49, 93
5, 628620, Note_off_c, 3, 49, 64
5, 628620, Note_on_c, 3, 47, 93
5, 628680, Note_off_c, 3, 47, 64
5, 628680, Note_on_c, 3, 49, 93
5, 629400, Note_off_c, 3, 49, 64
5, 629520, Note_on_c, 3, 50, 96
5, 629580, Note_off_c, 3, 50, 64
5, 629580, Note_on_c, 3, 49, 74
5, 629640, Note_off_c, 3, 49, 64
5, 629640, Note_on_c, 3, 50, 88
5, 629700, Note_off_c, 3, 50, 64
5, 629700, Note_on_c, 3, 49, 66
5, 629760, Note_off_c, 3, 49, 64
5, 629760, Note_on_c, 3, 50, 77
5, 629820, Note_off_c, 3, 50, 64
5, 629820, Note_on_c, 3, 49, 74
5, 629880, Note_off_c, 3, 49, 64
5, 629880, Note_on_c, 3, 50, 86
5, 629940, Note_off_c, 3, 50, 64
5, 629940, Note_on_c, 3, 49, 95
5, 630000, Note_off_c, 3, 49, 64
5, 630000, Note_on_c, 3, 50, 95
5, 630060, Note_off_c, 3, 50, 64
5, 630060, Note_on_c, 3, 49, 95
5, 630120, Note_off_c, 3, 49, 64
5, 630120, Note_on_c, 3, 50, 95
5, 630180, Note_off_c, 3, 50, 64
5, 630180, Note_on_c, 3, 49, 95
5, 630240, Note_off_c, 3, 49, 64
5, 630240, Note_on_c, 3, 47, 77
5, 630356, Note_off_c, 3, 47, 64
5, 630360, Note_on_c, 3, 49, 92
5, 630476, Note_off_c, 3, 49, 64
5, 630480, Note_on_c, 3, 50, 107
5, 630836, Note_off_c, 3, 50, 64
5, 630960, Note_on_c, 3, 47, 101
5, 631436, Note_off_c, 3, 47, 64
5, 631440, Note_on_c, 3, 43, 106
5, 631916, Note_off_c, 3, 43, 64
5, 631920, Note_on_c, 3, 47, 107
5, 632396, Note_off_c, 3, 47, 64
5, 632400, Note_on_c, 3, 48, 100
5, 632876, Note_off_c, 3, 48, 64
5, 632880, Note_on_c, 3, 52, 113
5, 633356, Note_off_c, 3, 52, 64
5, 633360, Note_on_c, 3, 45, 89
5, 633840, Note_off_c, 3, 45, 64
5, 633840, Note_on_c, 3, 55, 89
5, 634320, Note_off_c, 3, 55, 64
5, 634320, Note_on_c, 3, 54, 112
5, 634380, Note_off_c, 3, 54, 64
5, 634380, Note_on_c, 3, 55, 112
5, 634440, Note_off_c, 3, 55, 64
5, 634440, Note_on_c, 3, 54, 112
5, 634680, Note_off_c, 3, 54, 64
5, 634800, Note_on_c, 3, 52, 93
5, 635040, Note_off_c, 3, 52, 64
5, 635040, Note_on_c, 3, 54, 93
5, 635280, Note_off_c, 3, 54, 64
5, 635280, Note_on_c, 3, 50, 95
5, 635516, Note_off_c, 3, 50, 64
5, 635520, Note_on_c, 3, 52, 98
5, 635756, Note_off_c, 3, 52, 64
5, 635760, Note_on_c, 3, 54, 104
5, 635996, Note_off_c, 3, 54, 64
5, 636000, Note_on_c, 3, 50, 96
5, 636236, Note_off_c, 3, 50, 64
5, 636240, Note_on_c, 3, 55, 119
5, 636716, Note_off_c, 3, 55, 64
5, 636720, Note_on_c, 3, 57, 113
5, 637196, Note_off_c, 3, 57, 64
5, 637200, Note_on_c, 3, 59, 104
5, 637676, Note_off_c, 3, 59, 64
5, 637680, Note_on_c, 3, 55, 100
5, 638156, Note_off_c, 3, 55, 64
5, 638160, Note_on_c, 3, 48, 109
5, 639596, Note_off_c, 3, 48, 64
5, 639600, Note_on_c, 3, 57, 113
5, 640076, Note_off_c, 3, 57, 64
5, 640080, Note_on_c, 3, 50, 97
5, 641040, Note_off_c, 3, 50, 64
5, 641520, Note_on_c, 3, 50, 97
5, 642000, Note_off_c, 3, 50, 64
5, 642000, Note_on_c, 3, 55, 98
5, 642960, Note_off_c, 3, 55, 64
5, 642960, Note_on_c, 3, 43, 113
5, 643920, Note_off_c, 3, 43, 64
5, 643920, Note_on_c, 3, 50, 100
5, 644156, Note_off_c, 3, 50, 64
5, 644160, Note_on_c, 3, 52, 97
5, 644396, Note_off_c, 3, 52, 64
5, 644400, Note_on_c, 3, 54, 90
5, 644636, Note_off_c, 3, 54, 64
5, 644640, Note_on_c, 3, 55, 95
5, 644876, Note_off_c, 3, 55, 64
5, 644880, Note_on_c, 3, 57, 107
5, 645356, Note_off_c, 3, 57, 64
5, 645360, Note_on_c, 3, 48, 93
5, 645836, Note_off_c, 3, 48, 64
5, 645840, Note_on_c, 3, 47, 102
5, 646076, Note_off_c, 3, 47, 64
5, 646080, Note_on_c, 3, 50, 90
5, 646316, Note_off_c, 3, 50, 64
5, 646320, Note_on_c, 3, 52, 75
5, 646556, Note_off_c, 3, 52, 64
5, 646560, Note_on_c, 3, 54, 89
5, 646796, Note_off_c, 3, 54, 64
5, 646800, Note_on_c, 3, 55, 96
5, 647036, Note_off_c, 3, 55, 64
5, 647040, Note_on_c, 3, 57, 93
5, 647276, Note_off_c, 3, 57, 64
5, 647280, Note_on_c, 3, 59, 102
5, 648236, Note_off_c, 3, 59, 64
5, 648240, Note_on_c, 3, 57, 91
5, 648476, Note_off_c, 3, 57, 64
5, 648480, Note_on_c, 3, 56, 86
5, 648716, Note_off_c, 3, 56, 64
5, 648720, Note_on_c, 3, 57, 93
5, 650156, Note_off_c, 3, 57, 64
5, 650160, Note_on_c, 3, 54, 108
5, 650636, Note_off_c, 3, 54, 64
5, 650640, Note_on_c, 3, 59, 113
5, 651116, Note_off_c, 3, 59, 64
5, 651120, Note_on_c, 3, 57, 109
5, 651596, Note_off_c, 3, 57, 64
5, 651600, Note_on_c, 3, 55, 98
5, 651836, Note_off_c, 3, 55, 64
5, 651840, Note_on_c, 3, 57, 93
5, 652076, Note_off_c, 3, 57, 64
5, 652080, Note_on_c, 3, 59, 96
5, 652316, Note_off_c, 3, 59, 64
5, 652320, Note_on_c, 3, 57, 92
5, 652556, Note_off_c, 3, 57, 64
5, 652560, Note_on_c, 3, 55, 93
5, 652796, Note_off_c, 3, 55, 64
5, 652800, Note_on_c, 3, 54, 102
5, 653036, Note_off_c, 3, 54, 64
5, 653040, Note_on_c, 3, 55, 91
5, 653276, Note_off_c, 3, 55, 64
5, 653280, Note_on_c, 3, 52, 93
5, 653516, Note_off_c, 3, 52, 64
5, 653520, Note_on_c, 3, 57, 98
5, 653756, Note_off_c, 3, 57, 64
5, 653760, Note_on_c, 3, 59, 95
5, 653996, Note_off_c, 3, 59, 64
5, 654000, Note_on_c, 3, 60, 92
5, 654236, Note_off_c, 3, 60, 64
5, 654240, Note_on_c, 3, 59, 88
5, 654476, Note_off_c, 3, 59, 64
5, 654480, Note_on_c, 3, 57, 96
5, 654716, Note_off_c, 3, 57, 64
5, 654720, Note_on_c, 3, 55, 82
5, 654956, Note_off_c, 3, 55, 64
5, 654960, Note_on_c, 3, 57, 89
5, 655196, Note_off_c, 3, 57, 64
5, 655200, Note_on_c, 3, 54, 94
5, 655436, Note_off_c, 3, 54, 64
5, 655440, Note_on_c, 3, 59, 104
5, 655676, Note_off_c, 3, 59, 64
5, 655680, Note_on_c, 3, 57, 93
5, 655916, Note_off_c, 3, 57, 64
5, 655920, Note_on_c, 3, 55, 90
5, 656156, Note_off_c, 3, 55, 64
5, 656160, Note_on_c, 3, 57, 92
5, 656396, Note_off_c, 3, 57, 64
5, 656400, Note_on_c, 3, 59, 80
5, 656636, Note_off_c, 3, 59, 64
5, 656640, Note_on_c, 3, 57, 98
5, 656876, Note_off_c, 3, 57, 64
5, 656880, Note_on_c, 3, 59, 106
5, 657120, Note_off_c, 3, 59, 64
5, 657120, Note_on_c, 3, 47, 83
5, 657356, Note_off_c, 3, 47, 64
5, 657360, Note_on_c, 3, 52, 104
5, 657596, Note_off_c, 3, 52, 64
5, 657600, Note_on_c, 3, 47, 95
5, 657836, Note_off_c, 3, 47, 64
5, 657840, Note_on_c, 3, 43, 75
5, 658076, Note_off_c, 3, 43, 64
5, 658080, Note_on_c, 3, 47, 88
5, 658316, Note_off_c, 3, 47, 64
5, 658320, Note_on_c, 3, 43, 104
5, 658556, Note_off_c, 3, 43, 64
5, 658560, Note_on_c, 3, 42, 106
5, 658796, Note_off_c, 3, 42, 64
5, 658800, Note_on_c, 3, 43, 102
5, 659036, Note_off_c, 3, 43, 64
5, 659040, Note_on_c, 3, 40, 72
5, 659276, Note_off_c, 3, 40, 64
5, 659280, Note_on_c, 3, 49, 115
5, 659340, Note_off_c, 3, 49, 64
5, 659340, Note_on_c, 3, 50, 115
5, 659400, Note_off_c, 3, 50, 64
5, 659400, Note_on_c, 3, 49, 115
5, 660120, Note_off_c, 3, 49, 64
5, 660240, Note_on_c, 3, 50, 107
5, 660300, Note_off_c, 3, 50, 64
5, 660300, Note_on_c, 3, 49, 102
5, 660360, Note_off_c, 3, 49, 64
5, 660360, Note_on_c, 3, 50, 95
5, 660420, Note_off_c, 3, 50, 64
5, 660420, Note_on_c, 3, 49, 94
5, 660480, Note_off_c, 3, 49, 64
5, 660480, Note_on_c, 3, 50, 92
5, 660540, Note_off_c, 3, 50, 64
5, 660540, Note_on_c, 3, 49, 93
5, 660600, Note_off_c, 3, 49, 64
5, 660600, Note_on_c, 3, 50, 90
5, 660660, Note_off_c, 3, 50, 64
5, 660660, Note_on_c, 3, 49, 85
5, 660720, Note_off_c, 3, 49, 64
5, 660720, Note_on_c, 3, 50, 72
5, 660780, Note_off_c, 3, 50, 64
5, 660780, Note_on_c, 3, 49, 72
5, 660840, Note_off_c, 3, 49, 64
5, 660840, Note_on_c, 3, 50, 72
5, 660900, Note_off_c, 3, 50, 64
5, 660900, Note_on_c, 3, 49, 72
5, 660960, Note_off_c, 3, 49, 64
5, 660960, Note_on_c, 3, 47, 68
5, 661076, Note_off_c, 3, 47, 64
5, 661080, Note_on_c, 3, 49, 96
5, 661196, Note_off_c, 3, 49, 64
5, 661200, Note_on_c, 3, 50, 117
5, 661676, Note_off_c, 3, 50, 64
5, 661680, Note_on_c, 3, 47, 111
5, 662156, Note_off_c, 3, 47, 64
5, 662160, Note_on_c, 3, 43, 111
5, 662636, Note_off_c, 3, 43, 64
5, 662640, Note_on_c, 3, 47, 104
5, 663116, Note_off_c, 3, 47, 64
5, 663120, Note_on_c, 3, 48, 96
5, 663596, Note_off_c, 3, 48, 64
5, 663600, Note_on_c, 3, 52, 113
5, 664080, Note_off_c, 3, 52, 64
5, 664080, Note_on_c, 3, 45, 104
5, 664556, Note_off_c, 3, 45, 64
5, 664560, Note_on_c, 3, 55, 102
5, 665040, Note_off_c, 3, 55, 64
5, 665040, Note_on_c, 3, 54, 89
5, 665100, Note_off_c, 3, 54, 64
5, 665100, Note_on_c, 3, 55, 89
5, 665160, Note_off_c, 3, 55, 64
5, 665160, Note_on_c, 3, 54, 102
5, 665516, Note_off_c, 3, 54, 64
5, 665520, Note_on_c, 3, 52, 95
5, 665756, Note_off_c, 3, 52, 64
5, 665760, Note_on_c, 3, 54, 99
5, 665996, Note_off_c, 3, 54, 64
5, 666000, Note_on_c, 3, 50, 88
5, 666236, Note_off_c, 3, 50, 64
5, 666240, Note_on_c, 3, 52, 97
5, 666476, Note_off_c, 3, 52, 64
5, 666480, Note_on_c, 3, 54, 101
5, 666716, Note_off_c, 3, 54, 64
5, 666720, Note_on_c, 3, 50, 95
5, 666956, Note_off_c, 3, 50, 64
5, 666960, Note_on_c, 3, 55, 104
5, 667436, Note_off_c, 3, 55, 64
5, 667440, Note_on_c, 3, 57, 104
5, 667916, Note_off_c, 3, 57, 64
5, 667920, Note_on_c, 3, 59, 104
5, 668396, Note_off_c, 3, 59, 64
5, 668400, Note_on_c, 3, 55, 98
5, 668876, Note_off_c, 3, 55, 64
5, 668880, Note_on_c, 3, 48, 109
5, 669840, Note_off_c, 3, 48, 64
5, 670320, Note_on_c, 3, 57, 113
5, 670796, Note_off_c, 3, 57, 64
5, 670800, Note_on_c, 3, 50, 104
5, 671760, Note_off_c, 3, 50, 64
5, 672240, Note_on_c, 3, 50, 98
5, 672716, Note_off_c, 3, 50, 64
5, 672720, Note_on_c, 3, 55, 104
5, 673676, Note_off_c, 3, 55, 64
5, 673680, Note_on_c, 3, 43, 113
5, 674640, Note_off_c, 3, 43, 64
5, 676560, Note_on_c, 3, 55, 115
5, 677156, Note_off_c, 3, 55, 64
5, 677160, Note_on_c, 3, 59, 107
5, 677276, Note_off_c, 3, 59, 64
5, 677280, Note_on_c, 3, 64, 109
5, 677396, Note_off_c, 3, 64, 64
5, 677400, Note_on_c, 3, 62, 101
5, 677516, Note_off_c, 3, 62, 64
5, 677520, Note_on_c, 3, 61, 102
5, 677636, Note_off_c, 3, 61, 64
5, 677640, Note_on_c, 3, 59, 100
5, 677756, Note_off_c, 3, 59, 64
5, 677760, Note_on_c, 3, 57, 84
5, 677876, Note_off_c, 3, 57, 64
5, 677880, Note_on_c, 3, 55, 85
5, 677996, Note_off_c, 3, 55, 64
5, 678000, Note_on_c, 3, 54, 117
5, 678596, Note_off_c, 3, 54, 64
5, 678600, Note_on_c, 3, 64, 115
5, 678716, Note_off_c, 3, 64, 64
5, 678720, Note_on_c, 3, 62, 100
5, 678836, Note_off_c, 3, 62, 64
5, 678840, Note_on_c, 3, 61, 97
5, 678956, Note_off_c, 3, 61, 64
5, 678960, Note_on_c, 3, 59, 91
5, 679076, Note_off_c, 3, 59, 64
5, 679080, Note_on_c, 3, 57, 83
5, 679196, Note_off_c, 3, 57, 64
5, 679200, Note_on_c, 3, 55, 82
5, 679316, Note_off_c, 3, 55, 64
5, 679320, Note_on_c, 3, 54, 104
5, 679436, Note_off_c, 3, 54, 64
5, 679440, Note_on_c, 3, 52, 97
5, 679676, Note_off_c, 3, 52, 64
5, 679680, Note_on_c, 3, 55, 96
5, 679796, Note_off_c, 3, 55, 64
5, 679800, Note_on_c, 3, 59, 104
5, 680036, Note_off_c, 3, 59, 64
5, 680040, Note_on_c, 3, 62, 106
5, 680156, Note_off_c, 3, 62, 64
5, 680160, Note_on_c, 3, 61, 101
5, 680276, Note_off_c, 3, 61, 64
5, 680280, Note_on_c, 3, 59, 101
5, 680396, Note_off_c, 3, 59, 64
5, 680400, Note_on_c, 3, 57, 97
5, 680516, Note_off_c, 3, 57, 64
5, 680520, Note_on_c, 3, 55, 91
5, 680636, Note_off_c, 3, 55, 64
5, 680640, Note_on_c, 3, 54, 108
5, 680756, Note_off_c, 3, 54, 64
5, 680760, Note_on_c, 3, 52, 104
5, 680876, Note_off_c, 3, 52, 64
5, 680880, Note_on_c, 3, 50, 95
5, 680996, Note_off_c, 3, 50, 64
5, 681000, Note_on_c, 3, 52, 91
5, 681116, Note_off_c, 3, 52, 64
5, 681120, Note_on_c, 3, 54, 99
5, 681236, Note_off_c, 3, 54, 64
5, 681240, Note_on_c, 3, 55, 88
5, 681356, Note_off_c, 3, 55, 64
5, 681360, Note_on_c, 3, 57, 86
5, 681476, Note_off_c, 3, 57, 64
5, 681480, Note_on_c, 3, 59, 97
5, 681596, Note_off_c, 3, 59, 64
5, 681600, Note_on_c, 3, 61, 102
5, 681716, Note_off_c, 3, 61, 64
5, 681720, Note_on_c, 3, 62, 95
5, 681836, Note_off_c, 3, 62, 64
5, 681840, Note_on_c, 3, 64, 95
5, 681956, Note_off_c, 3, 64, 64
5, 681960, Note_on_c, 3, 66, 106
5, 682076, Note_off_c, 3, 66, 64
5, 682080, Note_on_c, 3, 67, 95
5, 682196, Note_off_c, 3, 67, 64
5, 682200, Note_on_c, 3, 69, 104
5, 682316, Note_off_c, 3, 69, 64
5, 682320, Note_on_c, 3, 66, 86
5, 682380, Note_off_c, 3, 66, 64
5, 682380, Note_on_c, 3, 67, 97
5, 682440, Note_off_c, 3, 67, 64
5, 682440, Note_on_c, 3, 69, 83
5, 682500, Note_off_c, 3, 69, 64
5, 682500, Note_on_c, 3, 67, 93
5, 682560, Note_off_c, 3, 67, 64
5, 682560, Note_on_c, 3, 69, 88
5, 682620, Note_off_c, 3, 69, 64
5, 682620, Note_on_c, 3, 67, 80
5, 682680, Note_off_c, 3, 67, 64
5, 682680, Note_on_c, 3, 69, 83
5, 682740, Note_off_c, 3, 69, 64
5, 682740, Note_on_c, 3, 67, 75
5, 682800, Note_off_c, 3, 67, 64
5, 682800, Note_on_c, 3, 69, 66
5, 682860, Note_off_c, 3, 69, 64
5, 682860, Note_on_c, 3, 67, 70
5, 682920, Note_off_c, 3, 67, 64
5, 682920, Note_on_c, 3, 69, 82
5, 682980, Note_off_c, 3, 69, 64
5, 682980, Note_on_c, 3, 67, 70
5, 683040, Note_off_c, 3, 67, 64
5, 683040, Note_on_c, 3, 69, 73
5, 683156, Note_off_c, 3, 69, 64
5, 683160, Note_on_c, 3, 67, 86
5, 683280, Note_off_c, 3, 67, 64
5, 683280, Note_on_c, 3, 59, 62
5, 683396, Note_off_c, 3, 59, 64
5, 683400, Note_on_c, 3, 62, 109
5, 683636, Note_off_c, 3, 62, 64
5, 683640, Note_on_c, 3, 67, 84
5, 683756, Note_off_c, 3, 67, 64
5, 683760, Note_on_c, 3, 66, 107
5, 683820, Note_off_c, 3, 66, 64
5, 683820, Note_on_c, 3, 67, 63
5, 683880, Note_off_c, 3, 67, 64
5, 683880, Note_on_c, 3, 69, 70
5, 683940, Note_off_c, 3, 69, 64
5, 683940, Note_on_c, 3, 67, 89
5, 684000, Note_off_c, 3, 67, 64
5, 684000, Note_on_c, 3, 69, 86
5, 684060, Note_off_c, 3, 69, 64
5, 684060, Note_on_c, 3, 67, 60
5, 684120, Note_off_c, 3, 67, 64
5, 684120, Note_on_c, 3, 69, 85
5, 684180, Note_off_c, 3, 69, 64
5, 684180, Note_on_c, 3, 67, 84
5, 684240, Note_off_c, 3, 67, 64
5, 684240, Note_on_c, 3, 69, 86
5, 684300, Note_off_c, 3, 69, 64
5, 684300, Note_on_c, 3, 67, 81
5, 684360, Note_off_c, 3, 67, 64
5, 684360, Note_on_c, 3, 69, 95
5, 684420, Note_off_c, 3, 69, 64
5, 684420, Note_on_c, 3, 67, 90
5, 684480, Note_off_c, 3, 67, 64
5, 684480, Note_on_c, 3, 69, 76
5, 684600, Note_off_c, 3, 69, 64
5, 684600, Note_on_c, 3, 67, 101
5, 684720, Note_off_c, 3, 67, 64
5, 684720, Note_on_c, 3, 61, 110
5, 684840, Note_off_c, 3, 61, 64
5, 684840, Note_on_c, 3, 64, 123
5, 685080, Note_off_c, 3, 64, 64
5, 685080, Note_on_c, 3, 67, 104
5, 685200, Note_off_c, 3, 67, 64
5, 685200, Note_on_c, 3, 66, 96
5, 685260, Note_off_c, 3, 66, 64
5, 685260, Note_on_c, 3, 67, 66
5, 685320, Note_off_c, 3, 67, 64
5, 685320, Note_on_c, 3, 69, 71
5, 685380, Note_off_c, 3, 69, 64
5, 685380, Note_on_c, 3, 67, 76
5, 685440, Note_off_c, 3, 67, 64
5, 685440, Note_on_c, 3, 69, 77
5, 685500, Note_off_c, 3, 69, 64
5, 685500, Note_on_c, 3, 67, 68
5, 685560, Note_off_c, 3, 67, 64
5, 685560, Note_on_c, 3, 69, 88
5, 685620, Note_off_c, 3, 69, 64
5, 685620, Note_on_c, 3, 67, 82
5, 685680, Note_off_c, 3, 67, 64
5, 685680, Note_on_c, 3, 69, 82
5, 685740, Note_off_c, 3, 69, 64
5, 685740, Note_on_c, 3, 67, 82
5, 685800, Note_off_c, 3, 67, 64
5, 685800, Note_on_c, 3, 69, 82
5, 685860, Note_off_c, 3, 69, 64
5, 685860, Note_on_c, 3, 67, 82
5, 685920, Note_off_c, 3, 67, 64
5, 685920, Note_on_c, 3, 67, 80
5, 686040, Note_off_c, 3, 67, 64
5, 686040, Note_on_c, 3, 69, 104
5, 686160, Note_off_c, 3, 69, 64
5, 686160, Note_on_c, 3, 72, 104
5, 686280, Note_off_c, 3, 72, 64
5, 686280, Note_on_c, 3, 66, 110
5, 686396, Note_off_c, 3, 66, 64
5, 686400, Note_on_c, 3, 69, 100
5, 686516, Note_off_c, 3, 69, 64
5, 686520, Note_on_c, 3, 72, 111
5, 686636, Note_off_c, 3, 72, 64
5, 686640, Note_on_c, 3, 71, 117
5, 687116, Note_off_c, 3, 71, 64
5, 687120, Note_on_c, 3, 67, 88
5, 687236, Note_off_c, 3, 67, 64
5, 687240, Note_on_c, 3, 62, 98
5, 687356, Note_off_c, 3, 62, 64
5, 687360, Note_on_c, 3, 59, 92
5, 687476, Note_off_c, 3, 59, 64
5, 687480, Note_on_c, 3, 55, 82
5, 687596, Note_off_c, 3, 55, 64
5, 687600, Note_on_c, 3, 59, 84
5, 687716, Note_off_c, 3, 59, 64
5, 687720, Note_on_c, 3, 62, 102
5, 687836, Note_off_c, 3, 62, 64
5, 687840, Note_on_c, 3, 67, 90
5, 687956, Note_off_c, 3, 67, 64
5, 687960, Note_on_c, 3, 69, 74
5, 688076, Note_off_c, 3, 69, 64
5, 688080, Note_on_c, 3, 71, 107
5, 688196, Note_off_c, 3, 71, 64
5, 688200, Note_on_c, 3, 69, 88
5, 688316, Note_off_c, 3, 69, 64
5, 688320, Note_on_c, 3, 67, 98
5, 688436, Note_off_c, 3, 67, 64
5, 688440, Note_on_c, 3, 66, 115
5, 688556, Note_off_c, 3, 66, 64
5, 688560, Note_on_c, 3, 64, 98
5, 688676, Note_off_c, 3, 64, 64
5, 688680, Note_on_c, 3, 62, 97
5, 688796, Note_off_c, 3, 62, 64
5, 688800, Note_on_c, 3, 61, 119
5, 689396, Note_off_c, 3, 61, 64
5, 689400, Note_on_c, 3, 64, 101
5, 689516, Note_off_c, 3, 64, 64
5, 689520, Note_on_c, 3, 69, 107
5, 689636, Note_off_c, 3, 69, 64
5, 689640, Note_on_c, 3, 67, 104
5, 689756, Note_off_c, 3, 67, 64
5, 689760, Note_on_c, 3, 66, 84
5, 689876, Note_off_c, 3, 66, 64
5, 689880, Note_on_c, 3, 64, 84
5, 689996, Note_off_c, 3, 64, 64
5, 690000, Note_on_c, 3, 62, 85
5, 690116, Note_off_c, 3, 62, 64
5, 690120, Note_on_c, 3, 61, 89
5, 690236, Note_off_c, 3, 61, 64
5, 690240, Note_on_c, 3, 59, 119
5, 690836, Note_off_c, 3, 59, 64
5, 690840, Note_on_c, 3, 69, 104
5, 690956, Note_off_c, 3, 69, 64
5, 690960, Note_on_c, 3, 67, 104
5, 691076, Note_off_c, 3, 67, 64
5, 691080, Note_on_c, 3, 66, 102
5, 691196, Note_off_c, 3, 66, 64
5, 691200, Note_on_c, 3, 64, 101
5, 691316, Note_off_c, 3, 64, 64
5, 691320, Note_on_c, 3, 62, 95
5, 691436, Note_off_c, 3, 62, 64
5, 691440, Note_on_c, 3, 61, 101
5, 691556, Note_off_c, 3, 61, 64
5, 691560, Note_on_c, 3, 59, 92
5, 691676, Note_off_c, 3, 59, 64
5, 691680, Note_on_c, 3, 64, 98
5, 691796, Note_off_c, 3, 64, 64
5, 691800, Note_on_c, 3, 62, 85
5, 691916, Note_off_c, 3, 62, 64
5, 691920, Note_on_c, 3, 61, 89
5, 692036, Note_off_c, 3, 61, 64
5, 692040, Note_on_c, 3, 59, 88
5, 692156, Note_off_c, 3, 59, 64
5, 692160, Note_on_c, 3, 57, 86
5, 692276, Note_off_c, 3, 57, 64
5, 692280, Note_on_c, 3, 55, 89
5, 692396, Note_off_c, 3, 55, 64
5, 692400, Note_on_c, 3, 61, 94
5, 692516, Note_off_c, 3, 61, 64
5, 692520, Note_on_c, 3, 59, 97
5, 692636, Note_off_c, 3, 59, 64
5, 692640, Note_on_c, 3, 57, 92
5, 692756, Note_off_c, 3, 57, 64
5, 692760, Note_on_c, 3, 55, 85
5, 692876, Note_off_c, 3, 55, 64
5, 692880, Note_on_c, 3, 54, 102
5, 692996, Note_off_c, 3, 54, 64
5, 693000, Note_on_c, 3, 52, 97
5, 693116, Note_off_c, 3, 52, 64
5, 693120, Note_on_c, 3, 57, 95
5, 693236, Note_off_c, 3, 57, 64
5, 693240, Note_on_c, 3, 55, 83
5, 693356, Note_off_c, 3, 55, 64
5, 693360, Note_on_c, 3, 54, 101
5, 693476, Note_off_c, 3, 54, 64
5, 693480, Note_on_c, 3, 52, 93
5, 693596, Note_off_c, 3, 52, 64
5, 693600, Note_on_c, 3, 54, 88
5, 693716, Note_off_c, 3, 54, 64
5, 693720, Note_on_c, 3, 55, 100
5, 693836, Note_off_c, 3, 55, 64
5, 693840, Note_on_c, 3, 54, 92
5, 693956, Note_off_c, 3, 54, 64
5, 693960, Note_on_c, 3, 57, 89
5, 694076, Note_off_c, 3, 57, 64
5, 694080, Note_on_c, 3, 62, 96
5, 694196, Note_off_c, 3, 62, 64
5, 694200, Note_on_c, 3, 66, 96
5, 694316, Note_off_c, 3, 66, 64
5, 694320, Note_on_c, 3, 69, 73
5, 694436, Note_off_c, 3, 69, 64
5, 694440, Note_on_c, 3, 74, 95
5, 694556, Note_off_c, 3, 74, 64
5, 694560, Note_on_c, 3, 69, 76
5, 694676, Note_off_c, 3, 69, 64
5, 694680, Note_on_c, 3, 66, 84
5, 694796, Note_off_c, 3, 66, 64
5, 694800, Note_on_c, 3, 62, 83
5, 694916, Note_off_c, 3, 62, 64
5, 694920, Note_on_c, 3, 60, 92
5, 695036, Note_off_c, 3, 60, 64
5, 695040, Note_on_c, 3, 59, 85
5, 695156, Note_off_c, 3, 59, 64
5, 695160, Note_on_c, 3, 57, 83
5, 695276, Note_off_c, 3, 57, 64
5, 695280, Note_on_c, 3, 56, 94
5, 695396, Note_off_c, 3, 56, 64
5, 695400, Note_on_c, 3, 59, 69
5, 695516, Note_off_c, 3, 59, 64
5, 695520, Note_on_c, 3, 62, 88
5, 695636, Note_off_c, 3, 62, 64
5, 695640, Note_on_c, 3, 65, 115
5, 695756, Note_off_c, 3, 65, 64
5, 695760, Note_on_c, 3, 71, 89
5, 695876, Note_off_c, 3, 71, 64
5, 695880, Note_on_c, 3, 74, 72
5, 695996, Note_off_c, 3, 74, 64
5, 696000, Note_on_c, 3, 71, 72
5, 696116, Note_off_c, 3, 71, 64
5, 696120, Note_on_c, 3, 65, 85
5, 696236, Note_off_c, 3, 65, 64
5, 696240, Note_on_c, 3, 64, 89
5, 696356, Note_off_c, 3, 64, 64
5, 696360, Note_on_c, 3, 62, 73
5, 696476, Note_off_c, 3, 62, 64
5, 696480, Note_on_c, 3, 61, 73
5, 696596, Note_off_c, 3, 61, 64
5, 696600, Note_on_c, 3, 59, 95
5, 696716, Note_off_c, 3, 59, 64
5, 696720, Note_on_c, 3, 57, 101
5, 696836, Note_off_c, 3, 57, 64
5, 696840, Note_on_c, 3, 62, 100
5, 696960, Note_off_c, 3, 62, 64
5, 696960, Note_on_c, 3, 66, 92
5, 697076, Note_off_c, 3, 66, 64
5, 697080, Note_on_c, 3, 69, 83
5, 697196, Note_off_c, 3, 69, 64
5, 697200, Note_on_c, 3, 74, 83
5, 697316, Note_off_c, 3, 74, 64
5, 697320, Note_on_c, 3, 78, 81
5, 697436, Note_off_c, 3, 78, 64
5, 697440, Note_on_c, 3, 76, 83
5, 697556, Note_off_c, 3, 76, 64
5, 697560, Note_on_c, 3, 73, 82
5, 697676, Note_off_c, 3, 73, 64
5, 697680, Note_on_c, 3, 69, 77
5, 697796, Note_off_c, 3, 69, 64
5, 697800, Note_on_c, 3, 67, 96
5, 697916, Note_off_c, 3, 67, 64
5, 697920, Note_on_c, 3, 66, 96
5, 698036, Note_off_c, 3, 66, 64
5, 698040, Note_on_c, 3, 64, 101
5, 698156, Note_off_c, 3, 64, 64
5, 698160, Note_on_c, 3, 62, 97
5, 698276, Note_off_c, 3, 62, 64
5, 698280, Note_on_c, 3, 57, 93
5, 698396, Note_off_c, 3, 57, 64
5, 698400, Note_on_c, 3, 54, 88
5, 698516, Note_off_c, 3, 54, 64
5, 698520, Note_on_c, 3, 50, 61
5, 698636, Note_off_c, 3, 50, 64
5, 698640, Note_on_c, 3, 45, 101
5, 698756, Note_off_c, 3, 45, 64
5, 698760, Note_on_c, 3, 42, 83
5, 698876, Note_off_c, 3, 42, 64
5, 698880, Note_on_c, 3, 38, 115
5, 699000, Note_off_c, 3, 38, 64
5, 699000, Note_on_c, 3, 42, 115
5, 699120, Note_off_c, 3, 42, 64
5, 699120, Note_on_c, 3, 45, 115
5, 699240, Note_off_c, 3, 45, 64
5, 699240, Note_on_c, 3, 62, 106
5, 699600, Note_off_c, 3, 62, 64
5, 699600, Note_on_c, 3, 50, 102
5, 699716, Note_off_c, 3, 50, 64
5, 699720, Note_on_c, 3, 52, 106
5, 699836, Note_off_c, 3, 52, 64
5, 699840, Note_on_c, 3, 54, 108
5, 699956, Note_off_c, 3, 54, 64
5, 699960, Note_on_c, 3, 55, 97
5, 700076, Note_off_c, 3, 55, 64
5, 700080, Note_on_c, 3, 57, 96
5, 700196, Note_off_c, 3, 57, 64
5, 700200, Note_on_c, 3, 59, 96
5, 700316, Note_off_c, 3, 59, 64
5, 700320, Note_on_c, 3, 60, 104
5, 700436, Note_off_c, 3, 60, 64
5, 700440, Note_on_c, 3, 50, 70
5, 700556, Note_off_c, 3, 50, 64
5, 700560, Note_on_c, 3, 60, 124
5, 700796, Note_off_c, 3, 60, 64
5, 700800, Note_on_c, 3, 59, 98
5, 700916, Note_off_c, 3, 59, 64
5, 700920, Note_on_c, 3, 57, 107
5, 701036, Note_off_c, 3, 57, 64
5, 701040, Note_on_c, 3, 55, 100
5, 701156, Note_off_c, 3, 55, 64
5, 701160, Note_on_c, 3, 57, 101
5, 701276, Note_off_c, 3, 57, 64
5, 701280, Note_on_c, 3, 59, 100
5, 701396, Note_off_c, 3, 59, 64
5, 701400, Note_on_c, 3, 60, 102
5, 701516, Note_off_c, 3, 60, 64
5, 701520, Note_on_c, 3, 62, 89
5, 701636, Note_off_c, 3, 62, 64
5, 701640, Note_on_c, 3, 64, 92
5, 701756, Note_off_c, 3, 64, 64
5, 701760, Note_on_c, 3, 65, 101
5, 701876, Note_off_c, 3, 65, 64
5, 701880, Note_on_c, 3, 55, 101
5, 701996, Note_off_c, 3, 55, 64
5, 702000, Note_on_c, 3, 65, 119
5, 702236, Note_off_c, 3, 65, 64
5, 702240, Note_on_c, 3, 64, 115
5, 702356, Note_off_c, 3, 64, 64
5, 702360, Note_on_c, 3, 62, 107
5, 702476, Note_off_c, 3, 62, 64
5, 702480, Note_on_c, 3, 60, 104
5, 702956, Note_off_c, 3, 60, 64
5, 702960, Note_on_c, 3, 64, 101
5, 703076, Note_off_c, 3, 64, 64
5, 703080, Note_on_c, 3, 67, 104
5, 703196, Note_off_c, 3, 67, 64
5, 703200, Note_on_c, 3, 72, 104
5, 703316, Note_off_c, 3, 72, 64
5, 703320, Note_on_c, 3, 71, 97
5, 703436, Note_off_c, 3, 71, 64
5, 703440, Note_on_c, 3, 69, 101
5, 703556, Note_off_c, 3, 69, 64
5, 703560, Note_on_c, 3, 67, 98
5, 703676, Note_off_c, 3, 67, 64
5, 703680, Note_on_c, 3, 66, 104
5, 703796, Note_off_c, 3, 66, 64
5, 703800, Note_on_c, 3, 64, 93
5, 703916, Note_off_c, 3, 64, 64
5, 703920, Note_on_c, 3, 63, 115
5, 704036, Note_off_c, 3, 63, 64
5, 704040, Note_on_c, 3, 61, 102
5, 704156, Note_off_c, 3, 61, 64
5, 704160, Note_on_c, 3, 59, 101
5, 704276, Note_off_c, 3, 59, 64
5, 704280, Note_on_c, 3, 57, 97
5, 704396, Note_off_c, 3, 57, 64
5, 704400, Note_on_c, 3, 55, 91
5, 704516, Note_off_c, 3, 55, 64
5, 704520, Note_on_c, 3, 54, 101
5, 704636, Note_off_c, 3, 54, 64
5, 704640, Note_on_c, 3, 52, 106
5, 704756, Note_off_c, 3, 52, 64
5, 704760, Note_on_c, 3, 51, 106
5, 704876, Note_off_c, 3, 51, 64
5, 704880, Note_on_c, 3, 49, 106
5, 704996, Note_off_c, 3, 49, 64
5, 705000, Note_on_c, 3, 47, 100
5, 705116, Note_off_c, 3, 47, 64
5, 705120, Note_on_c, 3, 48, 107
5, 705236, Note_off_c, 3, 48, 64
5, 705240, Note_on_c, 3, 45, 101
5, 705356, Note_off_c, 3, 45, 64
5, 705360, Note_on_c, 3, 43, 119
5, 705836, Note_off_c, 3, 43, 64
5, 705840, Note_on_c, 3, 47, 109
5, 705956, Note_off_c, 3, 47, 64
5, 705960, Note_on_c, 3, 52, 104
5, 706076, Note_off_c, 3, 52, 64
5, 706080, Note_on_c, 3, 55, 100
5, 706196, Note_off_c, 3, 55, 64
5, 706200, Note_on_c, 3, 59, 90
5, 706316, Note_off_c, 3, 59, 64
5, 706320, Note_on_c, 3, 63, 101
5, 706436, Note_off_c, 3, 63, 64
5, 706440, Note_on_c, 3, 64, 115
5, 706556, Note_off_c, 3, 64, 64
5, 706680, Note_on_c, 3, 43, 107
5, 706796, Note_off_c, 3, 43, 64
5, 706800, Note_on_c, 3, 45, 121
5, 707276, Note_off_c, 3, 45, 64
5, 707280, Note_on_c, 3, 48, 109
5, 707396, Note_off_c, 3, 48, 64
5, 707400, Note_on_c, 3, 53, 104
5, 707516, Note_off_c, 3, 53, 64
5, 707520, Note_on_c, 3, 57, 86
5, 707636, Note_off_c, 3, 57, 64
5, 707640, Note_on_c, 3, 60, 102
5, 707756, Note_off_c, 3, 60, 64
5, 707760, Note_on_c, 3, 63, 115
5, 707876, Note_off_c, 3, 63, 64
5, 707880, Note_on_c, 3, 64, 115
5, 708120, Note_off_c, 3, 64, 64
5, 708120, Note_on_c, 3, 46, 123
5, 708236, Note_off_c, 3, 46, 64
5, 708240, Note_on_c, 3, 47, 127
5, 708716, Note_off_c, 3, 47, 64
5, 708720, Note_on_c, 3, 49, 119
5, 708836, Note_off_c, 3, 49, 64
5, 708840, Note_on_c, 3, 51, 121
5, 708956, Note_off_c, 3, 51, 64
5, 708960, Note_on_c, 3, 52, 115
5, 709076, Note_off_c, 3, 52, 64
5, 709080, Note_on_c, 3, 54, 123
5, 709196, Note_off_c, 3, 54, 64
5, 709200, Note_on_c, 3, 55, 106
5, 709316, Note_off_c, 3, 55, 64
5, 709320, Note_on_c, 3, 57, 119
5, 709436, Note_off_c, 3, 57, 64
5, 709440, Note_on_c, 3, 55, 102
5, 709556, Note_off_c, 3, 55, 64
5, 709560, Note_on_c, 3, 54, 115
5, 709676, Note_off_c, 3, 54, 64
5, 709680, Note_on_c, 3, 55, 111
5, 709796, Note_off_c, 3, 55, 64
5, 709800, Note_on_c, 3, 52, 101
5, 709916, Note_off_c, 3, 52, 64
5, 709920, Note_on_c, 3, 55, 89
5, 710036, Note_off_c, 3, 55, 64
5, 710040, Note_on_c, 3, 59, 93
5, 710156, Note_off_c, 3, 59, 64
5, 710160, Note_on_c, 3, 64, 102
5, 710276, Note_off_c, 3, 64, 64
5, 710280, Note_on_c, 3, 63, 94
5, 710396, Note_off_c, 3, 63, 64
5, 710400, Note_on_c, 3, 64, 86
5, 710516, Note_off_c, 3, 64, 64
5, 710520, Note_on_c, 3, 67, 84
5, 710636, Note_off_c, 3, 67, 64
5, 710640, Note_on_c, 3, 64, 82
5, 710756, Note_off_c, 3, 64, 64
5, 710760, Note_on_c, 3, 59, 73
5, 710876, Note_off_c, 3, 59, 64
5, 710880, Note_on_c, 3, 55, 65
5, 710996, Note_off_c, 3, 55, 64
5, 711000, Note_on_c, 3, 59, 51
5, 711116, Note_off_c, 3, 59, 64
5, 711120, Note_on_c, 3, 48, 80
5, 711596, Note_off_c, 3, 48, 64
5, 711720, Note_on_c, 3, 64, 76
5, 711840, Note_off_c, 3, 64, 64
5, 711840, Note_on_c, 3, 69, 82
5, 711956, Note_off_c, 3, 69, 64
5, 711960, Note_on_c, 3, 67, 91
5, 712076, Note_off_c, 3, 67, 64
5, 712080, Note_on_c, 3, 66, 74
5, 712196, Note_off_c, 3, 66, 64
5, 712200, Note_on_c, 3, 64, 82
5, 712316, Note_off_c, 3, 64, 64
5, 712320, Note_on_c, 3, 62, 74
5, 712436, Note_off_c, 3, 62, 64
5, 712440, Note_on_c, 3, 60, 88
5, 712556, Note_off_c, 3, 60, 64
5, 712560, Note_on_c, 3, 59, 86
5, 713156, Note_off_c, 3, 59, 64
5, 713160, Note_on_c, 3, 69, 83
5, 713276, Note_off_c, 3, 69, 64
5, 713280, Note_on_c, 3, 67, 83
5, 713396, Note_off_c, 3, 67, 64
5, 713400, Note_on_c, 3, 66, 77
5, 713516, Note_off_c, 3, 66, 64
5, 713520, Note_on_c, 3, 64, 90
5, 713636, Note_off_c, 3, 64, 64
5, 713640, Note_on_c, 3, 62, 73
5, 713756, Note_off_c, 3, 62, 64
5, 713760, Note_on_c, 3, 60, 73
5, 713876, Note_off_c, 3, 60, 64
5, 713880, Note_on_c, 3, 59, 68
5, 713996, Note_off_c, 3, 59, 64
5, 714000, Note_on_c, 3, 57, 84
5, 714476, Note_off_c, 3, 57, 64
5, 714480, Note_on_c, 3, 59, 81
5, 714596, Note_off_c, 3, 59, 64
5, 714600, Note_on_c, 3, 60, 89
5, 714716, Note_off_c, 3, 60, 64
5, 714720, Note_on_c, 3, 62, 95
5, 714836, Note_off_c, 3, 62, 64
5, 714840, Note_on_c, 3, 64, 91
5, 714956, Note_off_c, 3, 64, 64
5, 714960, Note_on_c, 3, 66, 84
5, 715076, Note_off_c, 3, 66, 64
5, 715080, Note_on_c, 3, 67, 95
5, 715196, Note_off_c, 3, 67, 64
5, 715200, Note_on_c, 3, 66, 86
5, 715316, Note_off_c, 3, 66, 64
5, 715320, Note_on_c, 3, 64, 91
5, 715436, Note_off_c, 3, 64, 64
5, 715440, Note_on_c, 3, 62, 96
5, 715916, Note_off_c, 3, 62, 64
5, 715920, Note_on_c, 3, 64, 92
5, 716036, Note_off_c, 3, 64, 64
5, 716040, Note_on_c, 3, 66, 71
5, 716156, Note_off_c, 3, 66, 64
5, 716160, Note_on_c, 3, 67, 83
5, 716276, Note_off_c, 3, 67, 64
5, 716280, Note_on_c, 3, 69, 81
5, 716396, Note_off_c, 3, 69, 64
5, 716400, Note_on_c, 3, 71, 93
5, 716516, Note_off_c, 3, 71, 64
5, 716520, Note_on_c, 3, 72, 86
5, 716636, Note_off_c, 3, 72, 64
5, 716640, Note_on_c, 3, 71, 78
5, 716756, Note_off_c, 3, 71, 64
5, 716760, Note_on_c, 3, 69, 81
5, 716876, Note_off_c, 3, 69, 64
5, 716880, Note_on_c, 3, 67, 104
5, 717356, Note_off_c, 3, 67, 64
5, 717360, Note_on_c, 3, 69, 97
5, 717476, Note_off_c, 3, 69, 64
5, 717480, Note_on_c, 3, 71, 100
5, 717596, Note_off_c, 3, 71, 64
5, 717600, Note_on_c, 3, 72, 106
5, 717716, Note_off_c, 3, 72, 64
5, 717720, Note_on_c, 3, 74, 93
5, 717836, Note_off_c, 3, 74, 64
5, 717840, Note_on_c, 3, 76, 104
5, 717956, Note_off_c, 3, 76, 64
5, 717960, Note_on_c, 3, 77, 98
5, 718076, Note_off_c, 3, 77, 64
5, 718080, Note_on_c, 3, 76, 102
5, 718196, Note_off_c, 3, 76, 64
5, 718200, Note_on_c, 3, 74, 97
5, 718316, Note_off_c, 3, 74, 64
5, 718320, Note_on_c, 3, 72, 113
5, 718796, Note_off_c, 3, 72, 64
5, 718800, Note_on_c, 3, 76, 107
5, 718916, Note_off_c, 3, 76, 64
5, 718920, Note_on_c, 3, 72, 96
5, 719036, Note_off_c, 3, 72, 64
5, 719040, Note_on_c, 3, 69, 92
5, 719156, Note_off_c, 3, 69, 64
5, 719160, Note_on_c, 3, 64, 78
5, 719276, Note_off_c, 3, 64, 64
5, 719280, Note_on_c, 3, 60, 78
5, 719396, Note_off_c, 3, 60, 64
5, 719400, Note_on_c, 3, 57, 74
5, 719516, Note_off_c, 3, 57, 64
5, 719520, Note_on_c, 3, 60, 83
5, 719636, Note_off_c, 3, 60, 64
5, 719640, Note_on_c, 3, 64, 98
5, 719756, Note_off_c, 3, 64, 64
5, 719760, Note_on_c, 3, 69, 98
5, 719876, Note_off_c, 3, 69, 64
5, 719880, Note_on_c, 3, 72, 106
5, 719996, Note_off_c, 3, 72, 64
5, 720000, Note_on_c, 3, 69, 95
5, 720116, Note_off_c, 3, 69, 64
5, 720120, Note_on_c, 3, 66, 110
5, 720236, Note_off_c, 3, 66, 64
5, 720240, Note_on_c, 3, 62, 93
5, 720356, Note_off_c, 3, 62, 64
5, 720360, Note_on_c, 3, 57, 70
5, 720480, Note_off_c, 3, 57, 64
5, 720480, Note_on_c, 3, 54, 67
5, 720600, Note_off_c, 3, 54, 64
5, 720600, Note_on_c, 3, 50, 78
5, 720720, Note_off_c, 3, 50, 64
5, 720720, Note_on_c, 3, 54, 90
5, 720836, Note_off_c, 3, 54, 64
5, 720840, Note_on_c, 3, 57, 92
5, 720956, Note_off_c, 3, 57, 64
5, 720960, Note_on_c, 3, 60, 92
5, 721076, Note_off_c, 3, 60, 64
5, 721080, Note_on_c, 3, 54, 89
5, 721200, Note_off_c, 3, 54, 64
5, 721200, Note_on_c, 3, 55, 93
5, 721320, Note_off_c, 3, 55, 64
5, 721320, Note_on_c, 3, 59, 81
5, 721440, Note_off_c, 3, 59, 64
5, 721440, Note_on_c, 3, 62, 91
5, 721560, Note_off_c, 3, 62, 64
5, 721560, Note_on_c, 3, 67, 96
5, 721680, Note_off_c, 3, 67, 64
5, 721680, Note_on_c, 3, 71, 96
5, 721796, Note_off_c, 3, 71, 64
5, 721800, Note_on_c, 3, 74, 97
5, 721916, Note_off_c, 3, 74, 64
5, 721920, Note_on_c, 3, 79, 104
5, 722036, Note_off_c, 3, 79, 64
5, 722040, Note_on_c, 3, 74, 92
5, 722156, Note_off_c, 3, 74, 64
5, 722160, Note_on_c, 3, 71, 91
5, 722276, Note_off_c, 3, 71, 64
5, 722280, Note_on_c, 3, 67, 102
5, 722636, Note_off_c, 3, 67, 64
5, 724080, Note_on_c, 3, 55, 109
5, 724320, Note_off_c, 3, 55, 64
5, 724560, Note_on_c, 3, 55, 98
5, 724800, Note_off_c, 3, 55, 64
5, 725040, Note_on_c, 3, 55, 102
5, 725400, Note_off_c, 3, 55, 64
5, 725520, Note_on_c, 3, 54, 108
5, 725756, Note_off_c, 3, 54, 64
5, 726000, Note_on_c, 3, 54, 110
5, 726236, Note_off_c, 3, 54, 64
5, 726480, Note_on_c, 3, 54, 108
5, 726836, Note_off_c, 3, 54, 64
5, 726960, Note_on_c, 3, 52, 106
5, 727196, Note_off_c, 3, 52, 64
5, 727440, Note_on_c, 3, 52, 106
5, 727796, Note_off_c, 3, 52, 64
5, 727920, Note_on_c, 3, 52, 100
5, 728400, Note_off_c, 3, 52, 64
5, 728400, Note_on_c, 3, 50, 104
5, 728520, Note_off_c, 3, 50, 64
5, 728520, Note_on_c, 3, 38, 92
5, 728640, Note_off_c, 3, 38, 64
5, 728640, Note_on_c, 3, 50, 92
5, 728880, Note_off_c, 3, 50, 64
5, 729120, Note_on_c, 3, 48, 98
5, 729236, Note_off_c, 3, 48, 64
5, 729240, Note_on_c, 3, 47, 77
5, 729356, Note_off_c, 3, 47, 64
5, 729360, Note_on_c, 3, 45, 95
5, 729600, Note_off_c, 3, 45, 64
5, 729600, Note_on_c, 3, 48, 95
5, 729840, Note_off_c, 3, 48, 64
5, 729840, Note_on_c, 3, 47, 104
5, 730080, Note_off_c, 3, 47, 64
5, 730320, Note_on_c, 3, 47, 111
5, 730556, Note_off_c, 3, 47, 64
5, 730800, Note_on_c, 3, 47, 106
5, 731276, Note_off_c, 3, 47, 64
5, 731280, Note_on_c, 3, 48, 101
5, 731520, Note_off_c, 3, 48, 64
5, 731760, Note_on_c, 3, 48, 97
5, 731996, Note_off_c, 3, 48, 64
5, 732240, Note_on_c, 3, 48, 101
5, 732596, Note_off_c, 3, 48, 64
5, 732720, Note_on_c, 3, 50, 95
5, 732956, Note_off_c, 3, 50, 64
5, 733200, Note_on_c, 3, 50, 98
5, 733436, Note_off_c, 3, 50, 64
5, 733680, Note_on_c, 3, 50, 88
5, 734156, Note_off_c, 3, 50, 64
5, 734160, Note_on_c, 3, 55, 104
5, 734516, Note_off_c, 3, 55, 64
5, 734520, Note_on_c, 3, 47, 88
5, 734636, Note_off_c, 3, 47, 64
5, 734640, Note_on_c, 3, 52, 96
5, 734756, Note_off_c, 3, 52, 64
5, 734760, Note_on_c, 3, 50, 84
5, 734876, Note_off_c, 3, 50, 64
5, 734880, Note_on_c, 3, 48, 100
5, 734996, Note_off_c, 3, 48, 64
5, 735000, Note_on_c, 3, 52, 100
5, 735116, Note_off_c, 3, 52, 64
5, 735120, Note_on_c, 3, 50, 95
5, 735236, Note_off_c, 3, 50, 64
5, 735240, Note_on_c, 3, 48, 92
5, 735356, Note_off_c, 3, 48, 64
5, 735360, Note_on_c, 3, 47, 91
5, 735476, Note_off_c, 3, 47, 64
5, 735480, Note_on_c, 3, 45, 89
5, 735596, Note_off_c, 3, 45, 64
5, 735600, Note_on_c, 3, 47, 111
5, 735836, Note_off_c, 3, 47, 64
5, 735840, Note_on_c, 3, 43, 98
5, 736080, Note_off_c, 3, 43, 64
5, 736320, Note_on_c, 3, 55, 104
5, 736436, Note_off_c, 3, 55, 64
5, 736440, Note_on_c, 3, 54, 102
5, 736556, Note_off_c, 3, 54, 64
5, 736560, Note_on_c, 3, 55, 102
5, 736796, Note_off_c, 3, 55, 64
5, 736800, Note_on_c, 3, 52, 100
5, 737036, Note_off_c, 3, 52, 64
5, 737040, Note_on_c, 3, 54, 119
5, 737276, Note_off_c, 3, 54, 64
5, 737280, Note_on_c, 3, 59, 113
5, 737516, Note_off_c, 3, 59, 64
5, 737760, Note_on_c, 3, 47, 102
5, 737876, Note_off_c, 3, 47, 64
5, 737880, Note_on_c, 3, 49, 99
5, 737996, Note_off_c, 3, 49, 64
5, 738000, Note_on_c, 3, 50, 98
5, 738236, Note_off_c, 3, 50, 64
5, 738240, Note_on_c, 3, 47, 107
5, 738480, Note_off_c, 3, 47, 64
5, 738480, Note_on_c, 3, 52, 81
5, 738596, Note_off_c, 3, 52, 64
5, 738600, Note_on_c, 3, 54, 90
5, 738716, Note_off_c, 3, 54, 64
5, 738720, Note_on_c, 3, 55, 119
5, 738836, Note_off_c, 3, 55, 64
5, 738840, Note_on_c, 3, 54, 95
5, 738956, Note_off_c, 3, 54, 64
5, 738960, Note_on_c, 3, 52, 101
5, 739196, Note_off_c, 3, 52, 64
5, 739200, Note_on_c, 3, 54, 110
5, 739436, Note_off_c, 3, 54, 64
5, 739440, Note_on_c, 3, 52, 97
5, 739676, Note_off_c, 3, 52, 64
5, 739680, Note_on_c, 3, 50, 90
5, 739916, Note_off_c, 3, 50, 64
5, 739920, Note_on_c, 3, 49, 96
5, 740036, Note_off_c, 3, 49, 64
5, 740040, Note_on_c, 3, 50, 91
5, 740156, Note_off_c, 3, 50, 64
5, 740160, Note_on_c, 3, 52, 92
5, 740276, Note_off_c, 3, 52, 64
5, 740280, Note_on_c, 3, 50, 85
5, 740396, Note_off_c, 3, 50, 64
5, 740400, Note_on_c, 3, 49, 92
5, 740636, Note_off_c, 3, 49, 64
5, 740640, Note_on_c, 3, 52, 100
5, 740876, Note_off_c, 3, 52, 64
5, 740880, Note_on_c, 3, 49, 94
5, 741116, Note_off_c, 3, 49, 64
5, 741120, Note_on_c, 3, 45, 91
5, 741356, Note_off_c, 3, 45, 64
5, 741360, Note_on_c, 3, 50, 100
5, 741836, Note_off_c, 3, 50, 64
5, 741960, Note_on_c, 3, 50, 97
5, 742076, Note_off_c, 3, 50, 64
5, 742080, Note_on_c, 3, 52, 100
5, 742196, Note_off_c, 3, 52, 64
5, 742200, Note_on_c, 3, 54, 96
5, 742316, Note_off_c, 3, 54, 64
5, 742320, Note_on_c, 3, 55, 91
5, 742436, Note_off_c, 3, 55, 64
5, 742440, Note_on_c, 3, 57, 93
5, 742556, Note_off_c, 3, 57, 64
5, 742560, Note_on_c, 3, 55, 92
5, 742676, Note_off_c, 3, 55, 64
5, 742680, Note_on_c, 3, 54, 92
5, 742796, Note_off_c, 3, 54, 64
5, 742800, Note_on_c, 3, 55, 100
5, 743036, Note_off_c, 3, 55, 64
5, 743040, Note_on_c, 3, 43, 98
5, 743276, Note_off_c, 3, 43, 64
5, 743400, Note_on_c, 3, 52, 71
5, 743516, Note_off_c, 3, 52, 64
5, 743520, Note_on_c, 3, 54, 89
5, 743636, Note_off_c, 3, 54, 64
5, 743640, Note_on_c, 3, 55, 85
5, 743756, Note_off_c, 3, 55, 64
5, 743760, Note_on_c, 3, 57, 101
5, 743876, Note_off_c, 3, 57, 64
5, 743880, Note_on_c, 3, 54, 101
5, 743996, Note_off_c, 3, 54, 64
5, 744000, Note_on_c, 3, 52, 89
5, 744116, Note_off_c, 3, 52, 64
5, 744120, Note_on_c, 3, 50, 81
5, 744236, Note_off_c, 3, 50, 64
5, 744240, Note_on_c, 3, 59, 101
5, 744356, Note_off_c, 3, 59, 64
5, 744360, Note_on_c, 3, 47, 91
5, 744476, Note_off_c, 3, 47, 64
5, 744480, Note_on_c, 3, 52, 70
5, 744596, Note_off_c, 3, 52, 64
5, 744600, Note_on_c, 3, 50, 80
5, 744716, Note_off_c, 3, 50, 64
5, 744720, Note_on_c, 3, 49, 101
5, 744836, Note_off_c, 3, 49, 64
5, 744840, Note_on_c, 3, 45, 83
5, 744956, Note_off_c, 3, 45, 64
5, 744960, Note_on_c, 3, 50, 90
5, 745080, Note_off_c, 3, 50, 64
5, 745080, Note_on_c, 3, 55, 90
5, 745200, Note_off_c, 3, 55, 64
5, 745200, Note_on_c, 3, 57, 117
5, 745316, Note_off_c, 3, 57, 64
5, 745320, Note_on_c, 3, 52, 75
5, 745436, Note_off_c, 3, 52, 64
5, 745440, Note_on_c, 3, 49, 93
5, 745556, Note_off_c, 3, 49, 64
5, 745560, Note_on_c, 3, 45, 99
5, 745676, Note_off_c, 3, 45, 64
5, 745680, Note_on_c, 3, 50, 106
5, 745796, Note_off_c, 3, 50, 64
5, 745800, Note_on_c, 3, 52, 90
5, 745916, Note_off_c, 3, 52, 64
5, 745920, Note_on_c, 3, 50, 97
5, 746036, Note_off_c, 3, 50, 64
5, 746040, Note_on_c, 3, 49, 86
5, 746156, Note_off_c, 3, 49, 64
5, 746160, Note_on_c, 3, 50, 106
5, 746396, Note_off_c, 3, 50, 64
5, 746400, Note_on_c, 3, 45, 111
5, 746636, Note_off_c, 3, 45, 64
5, 746640, Note_on_c, 3, 38, 102
5, 746880, Note_off_c, 3, 38, 64
5, 747120, Note_on_c, 3, 55, 109
5, 747360, Note_off_c, 3, 55, 64
5, 747600, Note_on_c, 3, 55, 98
5, 747840, Note_off_c, 3, 55, 64
5, 748080, Note_on_c, 3, 55, 102
5, 748440, Note_off_c, 3, 55, 64
5, 748560, Note_on_c, 3, 54, 108
5, 748796, Note_off_c, 3, 54, 64
5, 749040, Note_on_c, 3, 54, 110
5, 749276, Note_off_c, 3, 54, 64
5, 749520, Note_on_c, 3, 54, 108
5, 749876, Note_off_c, 3, 54, 64
5, 750000, Note_on_c, 3, 52, 106
5, 750236, Note_off_c, 3, 52, 64
5, 750480, Note_on_c, 3, 52, 106
5, 750836, Note_off_c, 3, 52, 64
5, 750960, Note_on_c, 3, 49, 100
5, 751200, Note_off_c, 3, 49, 64
5, 751440, Note_on_c, 3, 50, 104
5, 751560, Note_off_c, 3, 50, 64
5, 751560, Note_on_c, 3, 38, 92
5, 751680, Note_off_c, 3, 38, 64
5, 751680, Note_on_c, 3, 50, 92
5, 751920, Note_off_c, 3, 50, 64
5, 752160, Note_on_c, 3, 48, 98
5, 752276, Note_off_c, 3, 48, 64
5, 752280, Note_on_c, 3, 47, 77
5, 752396, Note_off_c, 3, 47, 64
5, 752400, Note_on_c, 3, 45, 95
5, 752640, Note_off_c, 3, 45, 64
5, 752640, Note_on_c, 3, 48, 95
5, 752880, Note_off_c, 3, 48, 64
5, 752880, Note_on_c, 3, 47, 104
5, 753120, Note_off_c, 3, 47, 64
5, 753360, Note_on_c, 3, 47, 111
5, 753596, Note_off_c, 3, 47, 64
5, 753840, Note_on_c, 3, 47, 106
5, 754316, Note_off_c, 3, 47, 64
5, 754320, Note_on_c, 3, 48, 101
5, 754560, Note_off_c, 3, 48, 64
5, 754800, Note_on_c, 3, 48, 97
5, 755036, Note_off_c, 3, 48, 64
5, 755280, Note_on_c, 3, 48, 101
5, 755636, Note_off_c, 3, 48, 64
5, 755760, Note_on_c, 3, 50, 95
5, 755996, Note_off_c, 3, 50, 64
5, 756240, Note_on_c, 3, 50, 98
5, 756476, Note_off_c, 3, 50, 64
5, 756720, Note_on_c, 3, 50, 88
5, 757196, Note_off_c, 3, 50, 64
5, 757200, Note_on_c, 3, 55, 104
5, 757556, Note_off_c, 3, 55, 64
5, 757560, Note_on_c, 3, 47, 88
5, 757676, Note_off_c, 3, 47, 64
5, 757680, Note_on_c, 3, 52, 96
5, 757796, Note_off_c, 3, 52, 64
5, 757800, Note_on_c, 3, 50, 84
5, 757916, Note_off_c, 3, 50, 64
5, 757920, Note_on_c, 3, 48, 100
5, 758036, Note_off_c, 3, 48, 64
5, 758040, Note_on_c, 3, 52, 100
5, 758156, Note_off_c, 3, 52, 64
5, 758160, Note_on_c, 3, 50, 95
5, 758276, Note_off_c, 3, 50, 64
5, 758280, Note_on_c, 3, 48, 92
5, 758396, Note_off_c, 3, 48, 64
5, 758400, Note_on_c, 3, 47, 91
5, 758516, Note_off_c, 3, 47, 64
5, 758520, Note_on_c, 3, 45, 89
5, 758636, Note_off_c, 3, 45, 64
5, 758640, Note_on_c, 3, 47, 111
5, 758876, Note_off_c, 3, 47, 64
5, 758880, Note_on_c, 3, 43, 98
5, 759120, Note_off_c, 3, 43, 64
5, 759360, Note_on_c, 3, 55, 104
5, 759476, Note_off_c, 3, 55, 64
5, 759480, Note_on_c, 3, 54, 102
5, 759596, Note_off_c, 3, 54, 64
5, 759600, Note_on_c, 3, 55, 102
5, 759836, Note_off_c, 3, 55, 64
5, 759840, Note_on_c, 3, 52, 100
5, 760076, Note_off_c, 3, 52, 64
5, 760080, Note_on_c, 3, 54, 119
5, 760316, Note_off_c, 3, 54, 64
5, 760320, Note_on_c, 3, 59, 113
5, 760556, Note_off_c, 3, 59, 64
5, 760800, Note_on_c, 3, 47, 102
5, 760916, Note_off_c, 3, 47, 64
5, 760920, Note_on_c, 3, 49, 99
5, 761036, Note_off_c, 3, 49, 64
5, 761040, Note_on_c, 3, 50, 98
5, 761276, Note_off_c, 3, 50, 64
5, 761280, Note_on_c, 3, 47, 107
5, 761520, Note_off_c, 3, 47, 64
5, 761520, Note_on_c, 3, 52, 81
5, 761636, Note_off_c, 3, 52, 64
5, 761640, Note_on_c, 3, 54, 90
5, 761756, Note_off_c, 3, 54, 64
5, 761760, Note_on_c, 3, 55, 119
5, 761876, Note_off_c, 3, 55, 64
5, 761880, Note_on_c, 3, 54, 95
5, 761996, Note_off_c, 3, 54, 64
5, 762000, Note_on_c, 3, 52, 101
5, 762236, Note_off_c, 3, 52, 64
5, 762240, Note_on_c, 3, 54, 110
5, 762476, Note_off_c, 3, 54, 64
5, 762480, Note_on_c, 3, 52, 97
5, 762716, Note_off_c, 3, 52, 64
5, 762720, Note_on_c, 3, 50, 90
5, 762956, Note_off_c, 3, 50, 64
5, 762960, Note_on_c, 3, 49, 96
5, 763076, Note_off_c, 3, 49, 64
5, 763080, Note_on_c, 3, 50, 91
5, 763196, Note_off_c, 3, 50, 64
5, 763200, Note_on_c, 3, 52, 92
5, 763316, Note_off_c, 3, 52, 64
5, 763320, Note_on_c, 3, 50, 85
5, 763436, Note_off_c, 3, 50, 64
5, 763440, Note_on_c, 3, 49, 92
5, 763676, Note_off_c, 3, 49, 64
5, 763680, Note_on_c, 3, 52, 100
5, 763916, Note_off_c, 3, 52, 64
5, 763920, Note_on_c, 3, 49, 94
5, 764156, Note_off_c, 3, 49, 64
5, 764160, Note_on_c, 3, 45, 91
5, 764396, Note_off_c, 3, 45, 64
5, 764400, Note_on_c, 3, 50, 100
5, 764876, Note_off_c, 3, 50, 64
5, 765000, Note_on_c, 3, 50, 97
5, 765116, Note_off_c, 3, 50, 64
5, 765120, Note_on_c, 3, 52, 100
5, 765236, Note_off_c, 3, 52, 64
5, 765240, Note_on_c, 3, 54, 96
5, 765356, Note_off_c, 3, 54, 64
5, 765360, Note_on_c, 3, 55, 91
5, 765476, Note_off_c, 3, 55, 64
5, 765480, Note_on_c, 3, 57, 93
5, 765596, Note_off_c, 3, 57, 64
5, 765600, Note_on_c, 3, 55, 92
5, 765716, Note_off_c, 3, 55, 64
5, 765720, Note_on_c, 3, 54, 92
5, 765836, Note_off_c, 3, 54, 64
5, 765840, Note_on_c, 3, 55, 100
5, 766076, Note_off_c, 3, 55, 64
5, 766080, Note_on_c, 3, 43, 98
5, 766316, Note_off_c, 3, 43, 64
5, 766440, Note_on_c, 3, 52, 71
5, 766556, Note_off_c, 3, 52, 64
5, 766560, Note_on_c, 3, 54, 89
5, 766676, Note_off_c, 3, 54, 64
5, 766680, Note_on_c, 3, 55, 85
5, 766796, Note_off_c, 3, 55, 64
5, 766800, Note_on_c, 3, 57, 101
5, 766916, Note_off_c, 3, 57, 64
5, 766920, Note_on_c, 3, 54, 101
5, 767036, Note_off_c, 3, 54, 64
5, 767040, Note_on_c, 3, 52, 89
5, 767156, Note_off_c, 3, 52, 64
5, 767160, Note_on_c, 3, 50, 81
5, 767276, Note_off_c, 3, 50, 64
5, 767280, Note_on_c, 3, 59, 101
5, 767396, Note_off_c, 3, 59, 64
5, 767400, Note_on_c, 3, 47, 91
5, 767516, Note_off_c, 3, 47, 64
5, 767520, Note_on_c, 3, 52, 70
5, 767636, Note_off_c, 3, 52, 64
5, 767640, Note_on_c, 3, 50, 80
5, 767756, Note_off_c, 3, 50, 64
5, 767760, Note_on_c, 3, 49, 101
5, 767876, Note_off_c, 3, 49, 64
5, 767880, Note_on_c, 3, 45, 83
5, 767996, Note_off_c, 3, 45, 64
5, 768000, Note_on_c, 3, 50, 90
5, 768120, Note_off_c, 3, 50, 64
5, 768120, Note_on_c, 3, 55, 90
5, 768240, Note_off_c, 3, 55, 64
5, 768240, Note_on_c, 3, 57, 117
5, 768356, Note_off_c, 3, 57, 64
5, 768360, Note_on_c, 3, 52, 75
5, 768476, Note_off_c, 3, 52, 64
5, 768480, Note_on_c, 3, 49, 93
5, 768596, Note_off_c, 3, 49, 64
5, 768600, Note_on_c, 3, 45, 99
5, 768716, Note_off_c, 3, 45, 64
5, 768720, Note_on_c, 3, 50, 106
5, 768836, Note_off_c, 3, 50, 64
5, 768840, Note_on_c, 3, 52, 90
5, 768956, Note_off_c, 3, 52, 64
5, 768960, Note_on_c, 3, 50, 97
5, 769076, Note_off_c, 3, 50, 64
5, 769080, Note_on_c, 3, 49, 86
5, 769196, Note_off_c, 3, 49, 64
5, 769200, Note_on_c, 3, 50, 106
5, 769436, Note_off_c, 3, 50, 64
5, 769440, Note_on_c, 3, 45, 111
5, 769676, Note_off_c, 3, 45, 64
5, 769680, Note_on_c, 3, 38, 102
5, 769920, Note_off_c, 3, 38, 64
5, 770160, Note_on_c, 3, 50, 102
5, 770396, Note_off_c, 3, 50, 64
5, 770640, Note_on_c, 3, 50, 115
5, 770876, Note_off_c, 3, 50, 64
5, 771120, Note_on_c, 3, 48, 119
5, 771596, Note_off_c, 3, 48, 64
5, 771600, Note_on_c, 3, 47, 104
5, 771836, Note_off_c, 3, 47, 64
5, 771840, Note_on_c, 3, 48, 111
5, 772076, Note_off_c, 3, 48, 64
5, 772080, Note_on_c, 3, 47, 102
5, 772320, Note_off_c, 3, 47, 64
5, 772320, Note_on_c, 3, 45, 78
5, 772556, Note_off_c, 3, 45, 64
5, 772560, Note_on_c, 3, 43, 90
5, 772796, Note_off_c, 3, 43, 64
5, 772800, Note_on_c, 3, 45, 88
5, 772916, Note_off_c, 3, 45, 64
5, 772920, Note_on_c, 3, 47, 92
5, 773036, Note_off_c, 3, 47, 64
5, 773040, Note_on_c, 3, 48, 98
5, 773276, Note_off_c, 3, 48, 64
5, 773280, Note_on_c, 3, 47, 98
5, 773516, Note_off_c, 3, 47, 64
5, 773520, Note_on_c, 3, 48, 91
5, 773756, Note_off_c, 3, 48, 64
5, 773760, Note_on_c, 3, 52, 98
5, 773996, Note_off_c, 3, 52, 64
5, 774000, Note_on_c, 3, 45, 95
5, 774236, Note_off_c, 3, 45, 64
5, 774240, Note_on_c, 3, 48, 95
5, 774476, Note_off_c, 3, 48, 64
5, 774480, Note_on_c, 3, 47, 98
5, 774960, Note_off_c, 3, 47, 64
5, 776160, Note_on_c, 3, 52, 84
5, 776396, Note_off_c, 3, 52, 64
5, 776400, Note_on_c, 3, 54, 84
5, 776636, Note_off_c, 3, 54, 64
5, 776640, Note_on_c, 3, 55, 89
5, 776876, Note_off_c, 3, 55, 64
5, 776880, Note_on_c, 3, 57, 90
5, 777116, Note_off_c, 3, 57, 64
5, 777120, Note_on_c, 3, 59, 89
5, 777356, Note_off_c, 3, 59, 64
5, 777360, Note_on_c, 3, 60, 83
5, 777476, Note_off_c, 3, 60, 64
5, 777480, Note_on_c, 3, 62, 89
5, 777596, Note_off_c, 3, 62, 64
5, 777600, Note_on_c, 3, 60, 80
5, 777716, Note_off_c, 3, 60, 64
5, 777720, Note_on_c, 3, 59, 88
5, 777836, Note_off_c, 3, 59, 64
5, 777840, Note_on_c, 3, 60, 86
5, 777956, Note_off_c, 3, 60, 64
5, 777960, Note_on_c, 3, 59, 81
5, 778076, Note_off_c, 3, 59, 64
5, 778080, Note_on_c, 3, 57, 75
5, 778196, Note_off_c, 3, 57, 64
5, 778200, Note_on_c, 3, 55, 68
5, 778316, Note_off_c, 3, 55, 64
5, 778320, Note_on_c, 3, 57, 88
5, 778436, Note_off_c, 3, 57, 64
5, 778440, Note_on_c, 3, 54, 96
5, 778556, Note_off_c, 3, 54, 64
5, 778560, Note_on_c, 3, 55, 75
5, 778676, Note_off_c, 3, 55, 64
5, 778680, Note_on_c, 3, 57, 83
5, 778796, Note_off_c, 3, 57, 64
5, 778800, Note_on_c, 3, 59, 96
5, 778916, Note_off_c, 3, 59, 64
5, 778920, Note_on_c, 3, 60, 80
5, 779036, Note_off_c, 3, 60, 64
5, 779040, Note_on_c, 3, 59, 80
5, 779156, Note_off_c, 3, 59, 64
5, 779160, Note_on_c, 3, 57, 61
5, 779276, Note_off_c, 3, 57, 64
5, 779280, Note_on_c, 3, 59, 82
5, 779396, Note_off_c, 3, 59, 64
5, 779400, Note_on_c, 3, 54, 90
5, 779516, Note_off_c, 3, 54, 64
5, 779520, Note_on_c, 3, 51, 84
5, 779636, Note_off_c, 3, 51, 64
5, 779640, Note_on_c, 3, 54, 93
5, 779756, Note_off_c, 3, 54, 64
5, 779760, Note_on_c, 3, 47, 88
5, 779876, Note_off_c, 3, 47, 64
5, 779880, Note_on_c, 3, 51, 57
5, 779996, Note_off_c, 3, 51, 64
5, 780000, Note_on_c, 3, 48, 71
5, 780116, Note_off_c, 3, 48, 64
5, 780120, Note_on_c, 3, 47, 69
5, 780236, Note_off_c, 3, 47, 64
5, 780240, Note_on_c, 3, 52, 80
5, 780356, Note_off_c, 3, 52, 64
5, 780360, Note_on_c, 3, 48, 57
5, 780476, Note_off_c, 3, 48, 64
5, 780480, Note_on_c, 3, 47, 66
5, 780596, Note_off_c, 3, 47, 64
5, 780600, Note_on_c, 3, 45, 69
5, 780716, Note_off_c, 3, 45, 64
5, 780720, Note_on_c, 3, 43, 70
5, 780836, Note_off_c, 3, 43, 64
5, 780840, Note_on_c, 3, 47, 86
5, 780956, Note_off_c, 3, 47, 64
5, 780960, Note_on_c, 3, 52, 81
5, 781076, Note_off_c, 3, 52, 64
5, 781080, Note_on_c, 3, 51, 93
5, 781196, Note_off_c, 3, 51, 64
5, 781200, Note_on_c, 3, 52, 91
5, 781436, Note_off_c, 3, 52, 64
5, 781440, Note_on_c, 3, 50, 97
5, 781676, Note_off_c, 3, 50, 64
5, 781680, Note_on_c, 3, 48, 107
5, 781916, Note_off_c, 3, 48, 64
5, 781920, Note_on_c, 3, 60, 119
5, 782156, Note_off_c, 3, 60, 64
5, 782280, Note_on_c, 3, 52, 119
5, 782396, Note_off_c, 3, 52, 64
5, 782400, Note_on_c, 3, 50, 96
5, 782516, Note_off_c, 3, 50, 64
5, 782520, Note_on_c, 3, 48, 67
5, 782636, Note_off_c, 3, 48, 64
5, 782640, Note_on_c, 3, 50, 91
5, 782756, Note_off_c, 3, 50, 64
5, 782760, Note_on_c, 3, 48, 91
5, 782876, Note_off_c, 3, 48, 64
5, 782880, Note_on_c, 3, 47, 91
5, 782996, Note_off_c, 3, 47, 64
5, 783000, Note_on_c, 3, 45, 91
5, 783116, Note_off_c, 3, 45, 64
5, 783120, Note_on_c, 3, 47, 107
5, 783356, Note_off_c, 3, 47, 64
5, 783360, Note_on_c, 3, 59, 126
5, 783596, Note_off_c, 3, 59, 64
5, 783720, Note_on_c, 3, 50, 96
5, 783836, Note_off_c, 3, 50, 64
5, 783840, Note_on_c, 3, 48, 95
5, 783956, Note_off_c, 3, 48, 64
5, 783960, Note_on_c, 3, 47, 85
5, 784076, Note_off_c, 3, 47, 64
5, 784080, Note_on_c, 3, 48, 109
5, 784196, Note_off_c, 3, 48, 64
5, 784200, Note_on_c, 3, 47, 74
5, 784316, Note_off_c, 3, 47, 64
5, 784320, Note_on_c, 3, 45, 52
5, 784436, Note_off_c, 3, 45, 64
5, 784440, Note_on_c, 3, 44, 90
5, 784556, Note_off_c, 3, 44, 64
5, 784560, Note_on_c, 3, 45, 96
5, 784796, Note_off_c, 3, 45, 64
5, 784800, Note_on_c, 3, 57, 107
5, 785036, Note_off_c, 3, 57, 64
5, 785160, Note_on_c, 3, 59, 111
5, 785276, Note_off_c, 3, 59, 64
5, 785280, Note_on_c, 3, 57, 82
5, 785396, Note_off_c, 3, 57, 64
5, 785400, Note_on_c, 3, 55, 76
5, 785516, Note_off_c, 3, 55, 64
5, 785520, Note_on_c, 3, 57, 83
5, 785636, Note_off_c, 3, 57, 64
5, 785640, Note_on_c, 3, 55, 76
5, 785756, Note_off_c, 3, 55, 64
5, 785760, Note_on_c, 3, 54, 84
5, 785876, Note_off_c, 3, 54, 64
5, 785880, Note_on_c, 3, 52, 77
5, 785996, Note_off_c, 3, 52, 64
5, 786000, Note_on_c, 3, 54, 82
5, 786116, Note_off_c, 3, 54, 64
5, 786120, Note_on_c, 3, 52, 83
5, 786236, Note_off_c, 3, 52, 64
5, 786240, Note_on_c, 3, 50, 59
5, 786356, Note_off_c, 3, 50, 64
5, 786360, Note_on_c, 3, 49, 85
5, 786476, Note_off_c, 3, 49, 64
5, 786480, Note_on_c, 3, 50, 85
5, 786596, Note_off_c, 3, 50, 64
5, 786600, Note_on_c, 3, 48, 79
5, 786716, Note_off_c, 3, 48, 64
5, 786720, Note_on_c, 3, 47, 79
5, 786836, Note_off_c, 3, 47, 64
5, 786840, Note_on_c, 3, 45, 79
5, 786956, Note_off_c, 3, 45, 64
5, 786960, Note_on_c, 3, 47, 76
5, 787076, Note_off_c, 3, 47, 64
5, 787080, Note_on_c, 3, 45, 90
5, 787196, Note_off_c, 3, 45, 64
5, 787200, Note_on_c, 3, 43, 61
5, 787316, Note_off_c, 3, 43, 64
5, 787320, Note_on_c, 3, 42, 75
5, 787436, Note_off_c, 3, 42, 64
5, 787440, Note_on_c, 3, 43, 89
5, 787560, Note_off_c, 3, 43, 64
5, 787560, Note_on_c, 3, 57, 96
5, 787680, Note_off_c, 3, 57, 64
5, 787680, Note_on_c, 3, 55, 86
5, 787800, Note_off_c, 3, 55, 64
5, 787800, Note_on_c, 3, 54, 86
5, 787920, Note_off_c, 3, 54, 64
5, 787920, Note_on_c, 3, 55, 93
5, 788040, Note_off_c, 3, 55, 64
5, 788040, Note_on_c, 3, 54, 93
5, 788160, Note_off_c, 3, 54, 64
5, 788160, Note_on_c, 3, 52, 93
5, 788280, Note_off_c, 3, 52, 64
5, 788280, Note_on_c, 3, 51, 93
5, 788400, Note_off_c, 3, 51, 64
5, 788400, Note_on_c, 3, 52, 92
5, 788880, Note_off_c, 3, 52, 64
5, 789000, Note_on_c, 3, 50, 101
5, 789116, Note_off_c, 3, 50, 64
5, 789120, Note_on_c, 3, 48, 68
5, 789236, Note_off_c, 3, 48, 64
5, 789240, Note_on_c, 3, 52, 83
5, 789356, Note_off_c, 3, 52, 64
5, 789360, Note_on_c, 3, 50, 101
5, 790076, Note_off_c, 3, 50, 64
5, 790080, Note_on_c, 3, 45, 102
5, 790316, Note_off_c, 3, 45, 64
5, 790320, Note_on_c, 3, 47, 113
5, 790560, Note_off_c, 3, 47, 64
5, 791040, Note_on_c, 3, 52, 91
5, 791276, Note_off_c, 3, 52, 64
5, 791280, Note_on_c, 3, 48, 95
5, 791516, Note_off_c, 3, 48, 64
5, 791520, Note_on_c, 3, 50, 95
5, 791756, Note_off_c, 3, 50, 64
5, 791760, Note_on_c, 3, 43, 123
5, 792356, Note_off_c, 3, 43, 64
5, 792360, Note_on_c, 3, 47, 102
5, 792476, Note_off_c, 3, 47, 64
5, 792480, Note_on_c, 3, 50, 90
5, 792596, Note_off_c, 3, 50, 64
5, 792600, Note_on_c, 3, 54, 93
5, 792716, Note_off_c, 3, 54, 64
5, 792720, Note_on_c, 3, 55, 90
5, 793200, Note_off_c, 3, 55, 64
5, 793200, Note_on_c, 3, 50, 102
5, 793436, Note_off_c, 3, 50, 64
5, 793680, Note_on_c, 3, 50, 115
5, 793916, Note_off_c, 3, 50, 64
5, 794160, Note_on_c, 3, 48, 119
5, 794636, Note_off_c, 3, 48, 64
5, 794640, Note_on_c, 3, 47, 104
5, 794876, Note_off_c, 3, 47, 64
5, 794880, Note_on_c, 3, 48, 111
5, 795116, Note_off_c, 3, 48, 64
5, 795120, Note_on_c, 3, 47, 102
5, 795360, Note_off_c, 3, 47, 64
5, 795360, Note_on_c, 3, 45, 78
5, 795596, Note_off_c, 3, 45, 64
5, 795600, Note_on_c, 3, 43, 90
5, 795836, Note_off_c, 3, 43, 64
5, 795840, Note_on_c, 3, 45, 88
5, 795956, Note_off_c, 3, 45, 64
5, 795960, Note_on_c, 3, 47, 92
5, 796076, Note_off_c, 3, 47, 64
5, 796080, Note_on_c, 3, 48, 98
5, 796316, Note_off_c, 3, 48, 64
5, 796320, Note_on_c, 3, 47, 98
5, 796556, Note_off_c, 3, 47, 64
5, 796560, Note_on_c, 3, 48, 91
5, 796796, Note_off_c, 3, 48, 64
5, 796800, Note_on_c, 3, 52, 98
5, 797036, Note_off_c, 3, 52, 64
5, 797040, Note_on_c, 3, 45, 95
5, 797276, Note_off_c, 3, 45, 64
5, 797280, Note_on_c, 3, 48, 95
5, 797516, Note_off_c, 3, 48, 64
5, 797520, Note_on_c, 3, 47, 98
5, 798000, Note_off_c, 3, 47, 64
5, 799200, Note_on_c, 3, 52, 84
5, 799436, Note_off_c, 3, 52, 64
5, 799440, Note_on_c, 3, 54, 84
5, 799676, Note_off_c, 3, 54, 64
5, 799680, Note_on_c, 3, 55, 89
5, 799916, Note_off_c, 3, 55, 64
5, 799920, Note_on_c, 3, 57, 90
5, 800156, Note_off_c, 3, 57, 64
5, 800160, Note_on_c, 3, 59, 89
5, 800396, Note_off_c, 3, 59, 64
5, 800400, Note_on_c, 3, 60, 83
5, 800516, Note_off_c, 3, 60, 64
5, 800520, Note_on_c, 3, 62, 89
5, 800636, Note_off_c, 3, 62, 64
5, 800640, Note_on_c, 3, 60, 80
5, 800756, Note_off_c, 3, 60, 64
5, 800760, Note_on_c, 3, 59, 88
5, 800876, Note_off_c, 3, 59, 64
5, 800880, Note_on_c, 3, 60, 86
5, 800996, Note_off_c, 3, 60, 64
5, 801000, Note_on_c, 3, 59, 81
5, 801116, Note_off_c, 3, 59, 64
5, 801120, Note_on_c, 3, 57, 75
5, 801236, Note_off_c, 3, 57, 64
5, 801240, Note_on_c, 3, 55, 68
5, 801356, Note_off_c, 3, 55, 64
5, 801360, Note_on_c, 3, 57, 88
5, 801476, Note_off_c, 3, 57, 64
5, 801480, Note_on_c, 3, 54, 96
5, 801596, Note_off_c, 3, 54, 64
5, 801600, Note_on_c, 3, 55, 75
5, 801716, Note_off_c, 3, 55, 64
5, 801720, Note_on_c, 3, 57, 83
5, 801836, Note_off_c, 3, 57, 64
5, 801840, Note_on_c, 3, 59, 96
5, 801956, Note_off_c, 3, 59, 64
5, 801960, Note_on_c, 3, 60, 80
5, 802076, Note_off_c, 3, 60, 64
5, 802080, Note_on_c, 3, 59, 80
5, 802196, Note_off_c, 3, 59, 64
5, 802200, Note_on_c, 3, 57, 61
5, 802316, Note_off_c, 3, 57, 64
5, 802320, Note_on_c, 3, 59, 82
5, 802436, Note_off_c, 3, 59, 64
5, 802440, Note_on_c, 3, 54, 90
5, 802556, Note_off_c, 3, 54, 64
5, 802560, Note_on_c, 3, 51, 84
5, 802676, Note_off_c, 3, 51, 64
5, 802680, Note_on_c, 3, 54, 93
5, 802796, Note_off_c, 3, 54, 64
5, 802800, Note_on_c, 3, 47, 88
5, 802916, Note_off_c, 3, 47, 64
5, 802920, Note_on_c, 3, 51, 57
5, 803036, Note_off_c, 3, 51, 64
5, 803040, Note_on_c, 3, 48, 71
5, 803156, Note_off_c, 3, 48, 64
5, 803160, Note_on_c, 3, 47, 69
5, 803276, Note_off_c, 3, 47, 64
5, 803280, Note_on_c, 3, 52, 80
5, 803396, Note_off_c, 3, 52, 64
5, 803400, Note_on_c, 3, 48, 57
5, 803516, Note_off_c, 3, 48, 64
5, 803520, Note_on_c, 3, 47, 66
5, 803636, Note_off_c, 3, 47, 64
5, 803640, Note_on_c, 3, 45, 69
5, 803756, Note_off_c, 3, 45, 64
5, 803760, Note_on_c, 3, 43, 70
5, 803876, Note_off_c, 3, 43, 64
5, 803880, Note_on_c, 3, 47, 86
5, 803996, Note_off_c, 3, 47, 64
5, 804000, Note_on_c, 3, 52, 81
5, 804116, Note_off_c, 3, 52, 64
5, 804120, Note_on_c, 3, 51, 93
5, 804236, Note_off_c, 3, 51, 64
5, 804240, Note_on_c, 3, 52, 91
5, 804476, Note_off_c, 3, 52, 64
5, 804480, Note_on_c, 3, 50, 97
5, 804716, Note_off_c, 3, 50, 64
5, 804720, Note_on_c, 3, 48, 107
5, 804956, Note_off_c, 3, 48, 64
5, 804960, Note_on_c, 3, 60, 119
5, 805196, Note_off_c, 3, 60, 64
5, 805320, Note_on_c, 3, 52, 119
5, 805436, Note_off_c, 3, 52, 64
5, 805440, Note_on_c, 3, 50, 96
5, 805556, Note_off_c, 3, 50, 64
5, 805560, Note_on_c, 3, 48, 67
5, 805676, Note_off_c, 3, 48, 64
5, 805680, Note_on_c, 3, 50, 91
5, 805796, Note_off_c, 3, 50, 64
5, 805800, Note_on_c, 3, 48, 91
5, 805916, Note_off_c, 3, 48, 64
5, 805920, Note_on_c, 3, 47, 91
5, 806036, Note_off_c, 3, 47, 64
5, 806040, Note_on_c, 3, 45, 91
5, 806156, Note_off_c, 3, 45, 64
5, 806160, Note_on_c, 3, 47, 107
5, 806396, Note_off_c, 3, 47, 64
5, 806400, Note_on_c, 3, 59, 126
5, 806636, Note_off_c, 3, 59, 64
5, 806760, Note_on_c, 3, 50, 96
5, 806876, Note_off_c, 3, 50, 64
5, 806880, Note_on_c, 3, 48, 95
5, 806996, Note_off_c, 3, 48, 64
5, 807000, Note_on_c, 3, 47, 85
5, 807116, Note_off_c, 3, 47, 64
5, 807120, Note_on_c, 3, 48, 109
5, 807236, Note_off_c, 3, 48, 64
5, 807240, Note_on_c, 3, 47, 74
5, 807356, Note_off_c, 3, 47, 64
5, 807360, Note_on_c, 3, 45, 52
5, 807476, Note_off_c, 3, 45, 64
5, 807480, Note_on_c, 3, 44, 90
5, 807596, Note_off_c, 3, 44, 64
5, 807600, Note_on_c, 3, 45, 96
5, 807836, Note_off_c, 3, 45, 64
5, 807840, Note_on_c, 3, 57, 107
5, 808076, Note_off_c, 3, 57, 64
5, 808200, Note_on_c, 3, 59, 111
5, 808316, Note_off_c, 3, 59, 64
5, 808320, Note_on_c, 3, 57, 82
5, 808436, Note_off_c, 3, 57, 64
5, 808440, Note_on_c, 3, 55, 76
5, 808556, Note_off_c, 3, 55, 64
5, 808560, Note_on_c, 3, 57, 83
5, 808676, Note_off_c, 3, 57, 64
5, 808680, Note_on_c, 3, 55, 76
5, 808796, Note_off_c, 3, 55, 64
5, 808800, Note_on_c, 3, 54, 84
5, 808916, Note_off_c, 3, 54, 64
5, 808920, Note_on_c, 3, 52, 77
5, 809036, Note_off_c, 3, 52, 64
5, 809040, Note_on_c, 3, 54, 82
5, 809156, Note_off_c, 3, 54, 64
5, 809160, Note_on_c, 3, 52, 83
5, 809276, Note_off_c, 3, 52, 64
5, 809280, Note_on_c, 3, 50, 59
5, 809396, Note_off_c, 3, 50, 64
5, 809400, Note_on_c, 3, 49, 85
5, 809516, Note_off_c, 3, 49, 64
5, 809520, Note_on_c, 3, 50, 85
5, 809636, Note_off_c, 3, 50, 64
5, 809640, Note_on_c, 3, 48, 79
5, 809756, Note_off_c, 3, 48, 64
5, 809760, Note_on_c, 3, 47, 79
5, 809876, Note_off_c, 3, 47, 64
5, 809880, Note_on_c, 3, 45, 79
5, 809996, Note_off_c, 3, 45, 64
5, 810000, Note_on_c, 3, 47, 76
5, 810116, Note_off_c, 3, 47, 64
5, 810120, Note_on_c, 3, 45, 90
5, 810236, Note_off_c, 3, 45, 64
5, 810240, Note_on_c, 3, 43, 61
5, 810356, Note_off_c, 3, 43, 64
5, 810360, Note_on_c, 3, 42, 75
5, 810476, Note_off_c, 3, 42, 64
5, 810480, Note_on_c, 3, 43, 89
5, 810600, Note_off_c, 3, 43, 64
5, 810600, Note_on_c, 3, 57, 96
5, 810720, Note_off_c, 3, 57, 64
5, 810720, Note_on_c, 3, 55, 86
5, 810840, Note_off_c, 3, 55, 64
5, 810840, Note_on_c, 3, 54, 86
5, 810960, Note_off_c, 3, 54, 64
5, 810960, Note_on_c, 3, 55, 93
5, 811080, Note_off_c, 3, 55, 64
5, 811080, Note_on_c, 3, 54, 93
5, 811200, Note_off_c, 3, 54, 64
5, 811200, Note_on_c, 3, 52, 93
5, 811320, Note_off_c, 3, 52, 64
5, 811320, Note_on_c, 3, 51, 93
5, 811440, Note_off_c, 3, 51, 64
5, 811440, Note_on_c, 3, 52, 92
5, 811920, Note_off_c, 3, 52, 64
5, 812040, Note_on_c, 3, 50, 101
5, 812156, Note_off_c, 3, 50, 64
5, 812160, Note_on_c, 3, 48, 68
5, 812276, Note_off_c, 3, 48, 64
5, 812280, Note_on_c, 3, 52, 83
5, 812396, Note_off_c, 3, 52, 64
5, 812400, Note_on_c, 3, 50, 101
5, 813116, Note_off_c, 3, 50, 64
5, 813120, Note_on_c, 3, 45, 102
5, 813356, Note_off_c, 3, 45, 64
5, 813360, Note_on_c, 3, 47, 113
5, 813600, Note_off_c, 3, 47, 64
5, 814080, Note_on_c, 3, 52, 91
5, 814316, Note_off_c, 3, 52, 64
5, 814320, Note_on_c, 3, 48, 95
5, 814556, Note_off_c, 3, 48, 64
5, 814560, Note_on_c, 3, 50, 95
5, 814796, Note_off_c, 3, 50, 64
5, 814800, Note_on_c, 3, 43, 123
5, 815396, Note_off_c, 3, 43, 64
5, 815400, Note_on_c, 3, 47, 102
5, 815516, Note_off_c, 3, 47, 64
5, 815520, Note_on_c, 3, 50, 90
5, 815636, Note_off_c, 3, 50, 64
5, 815640, Note_on_c, 3, 54, 93
5, 815756, Note_off_c, 3, 54, 64
5, 815760, Note_on_c, 3, 55, 90
5, 816240, Note_off_c, 3, 55, 64
5, 817680, Note_on_c, 3, 55, 91
5, 819120, Note_off_c, 3, 55, 64
5, 819120, Note_on_c, 3, 55, 84
5, 819596, Note_off_c, 3, 55, 64
5, 819600, Note_on_c, 3, 54, 89
5, 820076, Note_off_c, 3, 54, 64
5, 820080, Note_on_c, 3, 52, 92
5, 820556, Note_off_c, 3, 52, 64
5, 820560, Note_on_c, 3, 54, 90
5, 821996, Note_off_c, 3, 54, 64
5, 822000, Note_on_c, 3, 59, 97
5, 822476, Note_off_c, 3, 59, 64
5, 822480, Note_on_c, 3, 57, 95
5, 822956, Note_off_c, 3, 57, 64
5, 822960, Note_on_c, 3, 59, 98
5, 823436, Note_off_c, 3, 59, 64
5, 823440, Note_on_c, 3, 52, 97
5, 824876, Note_off_c, 3, 52, 64
5, 824880, Note_on_c, 3, 57, 93
5, 825356, Note_off_c, 3, 57, 64
5, 825360, Note_on_c, 3, 55, 91
5, 825836, Note_off_c, 3, 55, 64
5, 825840, Note_on_c, 3, 57, 96
5, 826316, Note_off_c, 3, 57, 64
5, 826320, Note_on_c, 3, 50, 97
5, 827756, Note_off_c, 3, 50, 64
5, 827760, Note_on_c, 3, 52, 98
5, 828236, Note_off_c, 3, 52, 64
5, 828240, Note_on_c, 3, 50, 97
5, 828716, Note_off_c, 3, 50, 64
5, 828720, Note_on_c, 3, 48, 96
5, 829196, Note_off_c, 3, 48, 64
5, 829200, Note_on_c, 3, 47, 102
5, 830636, Note_off_c, 3, 47, 64
5, 830640, Note_on_c, 3, 43, 86
5, 831120, Note_off_c, 3, 43, 64
5, 831120, Note_on_c, 3, 45, 97
5, 831596, Note_off_c, 3, 45, 64
5, 831600, Note_on_c, 3, 47, 102
5, 832076, Note_off_c, 3, 47, 64
5, 832080, Note_on_c, 3, 48, 100
5, 833516, Note_off_c, 3, 48, 64
5, 833520, Note_on_c, 3, 45, 96
5, 833996, Note_off_c, 3, 45, 64
5, 834000, Note_on_c, 3, 47, 102
5, 834476, Note_off_c, 3, 47, 64
5, 834480, Note_on_c, 3, 48, 107
5, 834956, Note_off_c, 3, 48, 64
5, 834960, Note_on_c, 3, 50, 101
5, 836396, Note_off_c, 3, 50, 64
5, 836400, Note_on_c, 3, 50, 96
5, 836876, Note_off_c, 3, 50, 64
5, 836880, Note_on_c, 3, 48, 102
5, 837356, Note_off_c, 3, 48, 64
5, 837360, Note_on_c, 3, 50, 100
5, 837836, Note_off_c, 3, 50, 64
5, 837840, Note_on_c, 3, 43, 117
5, 839276, Note_off_c, 3, 43, 64
5, 839280, Note_on_c, 3, 43, 106
5, 839756, Note_off_c, 3, 43, 64
5, 839760, Note_on_c, 3, 47, 102
5, 840236, Note_off_c, 3, 47, 64
5, 840240, Note_on_c, 3, 50, 100
5, 840716, Note_off_c, 3, 50, 64
5, 840720, Note_on_c, 3, 55, 100
5, 842160, Note_off_c, 3, 55, 64
5, 842160, Note_on_c, 3, 55, 104
5, 842636, Note_off_c, 3, 55, 64
5, 842640, Note_on_c, 3, 54, 112
5, 843116, Note_off_c, 3, 54, 64
5, 843120, Note_on_c, 3, 52, 102
5, 843596, Note_off_c, 3, 52, 64
5, 843600, Note_on_c, 3, 54, 92
5, 845036, Note_off_c, 3, 54, 64
5, 845040, Note_on_c, 3, 59, 109
5, 845516, Note_off_c, 3, 59, 64
5, 845520, Note_on_c, 3, 57, 97
5, 845996, Note_off_c, 3, 57, 64
5, 846000, Note_on_c, 3, 59, 101
5, 846476, Note_off_c, 3, 59, 64
5, 846480, Note_on_c, 3, 52, 101
5, 847916, Note_off_c, 3, 52, 64
5, 847920, Note_on_c, 3, 54, 104
5, 848396, Note_off_c, 3, 54, 64
5, 848400, Note_on_c, 3, 52, 100
5, 848876, Note_off_c, 3, 52, 64
5, 848880, Note_on_c, 3, 50, 88
5, 849356, Note_off_c, 3, 50, 64
5, 849360, Note_on_c, 3, 49, 94
5, 850796, Note_off_c, 3, 49, 64
5, 850800, Note_on_c, 3, 52, 115
5, 851276, Note_off_c, 3, 52, 64
5, 851280, Note_on_c, 3, 45, 113
5, 851756, Note_off_c, 3, 45, 64
5, 851760, Note_on_c, 3, 43, 104
5, 852236, Note_off_c, 3, 43, 64
5, 852240, Note_on_c, 3, 42, 115
5, 852716, Note_off_c, 3, 42, 64
5, 852720, Note_on_c, 3, 54, 119
5, 853080, Note_off_c, 3, 54, 64
5, 853080, Note_on_c, 3, 52, 107
5, 853196, Note_off_c, 3, 52, 64
5, 853200, Note_on_c, 3, 54, 117
5, 853676, Note_off_c, 3, 54, 64
5, 853680, Note_on_c, 3, 57, 109
5, 854156, Note_off_c, 3, 57, 64
5, 854160, Note_on_c, 3, 50, 109
5, 854636, Note_off_c, 3, 50, 64
5, 854640, Note_on_c, 3, 54, 115
5, 855116, Note_off_c, 3, 54, 64
5, 855120, Note_on_c, 3, 43, 115
5, 855596, Note_off_c, 3, 43, 64
5, 855600, Note_on_c, 3, 55, 113
5, 855956, Note_off_c, 3, 55, 64
5, 855960, Note_on_c, 3, 54, 117
5, 856076, Note_off_c, 3, 54, 64
5, 856080, Note_on_c, 3, 55, 113
5, 856556, Note_off_c, 3, 55, 64
5, 856560, Note_on_c, 3, 59, 109
5, 857036, Note_off_c, 3, 59, 64
5, 857040, Note_on_c, 3, 52, 98
5, 857516, Note_off_c, 3, 52, 64
5, 857520, Note_on_c, 3, 55, 102
5, 857996, Note_off_c, 3, 55, 64
5, 858000, Note_on_c, 3, 45, 107
5, 858476, Note_off_c, 3, 45, 64
5, 858480, Note_on_c, 3, 57, 117
5, 858832, Note_off_c, 3, 57, 64
5, 858840, Note_on_c, 3, 55, 117
5, 858960, Note_off_c, 3, 55, 64
5, 858960, Note_on_c, 3, 57, 106
5, 860396, Note_off_c, 3, 57, 64
5, 860400, Note_on_c, 3, 57, 96
5, 860876, Note_off_c, 3, 57, 64
5, 860880, Note_on_c, 3, 50, 96
5, 863760, Note_off_c, 3, 50, 64
5, 863760, Note_on_c, 3, 55, 91
5, 865200, Note_off_c, 3, 55, 64
5, 865200, Note_on_c, 3, 55, 84
5, 865676, Note_off_c, 3, 55, 64
5, 865680, Note_on_c, 3, 54, 89
5, 866156, Note_off_c, 3, 54, 64
5, 866160, Note_on_c, 3, 52, 92
5, 866636, Note_off_c, 3, 52, 64
5, 866640, Note_on_c, 3, 54, 90
5, 868076, Note_off_c, 3, 54, 64
5, 868080, Note_on_c, 3, 59, 97
5, 868556, Note_off_c, 3, 59, 64
5, 868560, Note_on_c, 3, 57, 95
5, 869036, Note_off_c, 3, 57, 64
5, 869040, Note_on_c, 3, 59, 98
5, 869516, Note_off_c, 3, 59, 64
5, 869520, Note_on_c, 3, 52, 97
5, 870956, Note_off_c, 3, 52, 64
5, 870960, Note_on_c, 3, 57, 93
5, 871436, Note_off_c, 3, 57, 64
5, 871440, Note_on_c, 3, 55, 91
5, 871916, Note_off_c, 3, 55, 64
5, 871920, Note_on_c, 3, 57, 96
5, 872396, Note_off_c, 3, 57, 64
5, 872400, Note_on_c, 3, 50, 97
5, 873836, Note_off_c, 3, 50, 64
5, 873840, Note_on_c, 3, 52, 98
5, 874316, Note_off_c, 3, 52, 64
5, 874320, Note_on_c, 3, 50, 97
5, 874796, Note_off_c, 3, 50, 64
5, 874800, Note_on_c, 3, 48, 96
5, 875276, Note_off_c, 3, 48, 64
5, 875280, Note_on_c, 3, 47, 102
5, 876716, Note_off_c, 3, 47, 64
5, 876720, Note_on_c, 3, 43, 86
5, 877200, Note_off_c, 3, 43, 64
5, 877200, Note_on_c, 3, 45, 97
5, 877676, Note_off_c, 3, 45, 64
5, 877680, Note_on_c, 3, 47, 102
5, 878156, Note_off_c, 3, 47, 64
5, 878160, Note_on_c, 3, 48, 100
5, 879596, Note_off_c, 3, 48, 64
5, 879600, Note_on_c, 3, 45, 96
5, 880076, Note_off_c, 3, 45, 64
5, 880080, Note_on_c, 3, 47, 102
5, 880556, Note_off_c, 3, 47, 64
5, 880560, Note_on_c, 3, 48, 107
5, 881036, Note_off_c, 3, 48, 64
5, 881040, Note_on_c, 3, 50, 101
5, 882476, Note_off_c, 3, 50, 64
5, 882480, Note_on_c, 3, 50, 96
5, 882956, Note_off_c, 3, 50, 64
5, 882960, Note_on_c, 3, 48, 102
5, 883436, Note_off_c, 3, 48, 64
5, 883440, Note_on_c, 3, 50, 100
5, 883916, Note_off_c, 3, 50, 64
5, 883920, Note_on_c, 3, 43, 117
5, 885356, Note_off_c, 3, 43, 64
5, 885360, Note_on_c, 3, 43, 106
5, 885836, Note_off_c, 3, 43, 64
5, 885840, Note_on_c, 3, 47, 102
5, 886316, Note_off_c, 3, 47, 64
5, 886320, Note_on_c, 3, 50, 100
5, 886796, Note_off_c, 3, 50, 64
5, 886800, Note_on_c, 3, 55, 100
5, 888240, Note_off_c, 3, 55, 64
5, 888240, Note_on_c, 3, 55, 104
5, 888716, Note_off_c, 3, 55, 64
5, 888720, Note_on_c, 3, 54, 112
5, 889196, Note_off_c, 3, 54, 64
5, 889200, Note_on_c, 3, 52, 102
5, 889676, Note_off_c, 3, 52, 64
5, 889680, Note_on_c, 3, 54, 92
5, 891116, Note_off_c, 3, 54, 64
5, 891120, Note_on_c, 3, 59, 109
5, 891596, Note_off_c, 3, 59, 64
5, 891600, Note_on_c, 3, 57, 97
5, 892076, Note_off_c, 3, 57, 64
5, 892080, Note_on_c, 3, 59, 101
5, 892556, Note_off_c, 3, 59, 64
5, 892560, Note_on_c, 3, 52, 101
5, 893996, Note_off_c, 3, 52, 64
5, 894000, Note_on_c, 3, 54, 104
5, 894476, Note_off_c, 3, 54, 64
5, 894480, Note_on_c, 3, 52, 100
5, 894956, Note_off_c, 3, 52, 64
5, 894960, Note_on_c, 3, 50, 88
5, 895436, Note_off_c, 3, 50, 64
5, 895440, Note_on_c, 3, 49, 94
5, 896876, Note_off_c, 3, 49, 64
5, 896880, Note_on_c, 3, 52, 115
5, 897356, Note_off_c, 3, 52, 64
5, 897360, Note_on_c, 3, 45, 113
5, 897836, Note_off_c, 3, 45, 64
5, 897840, Note_on_c, 3, 43, 104
5, 898316, Note_off_c, 3, 43, 64
5, 898320, Note_on_c, 3, 42, 115
5, 898796, Note_off_c, 3, 42, 64
5, 898800, Note_on_c, 3, 54, 119
5, 899160, Note_off_c, 3, 54, 64
5, 899160, Note_on_c, 3, 52, 107
5, 899276, Note_off_c, 3, 52, 64
5, 899280, Note_on_c, 3, 54, 117
5, 899756, Note_off_c, 3, 54, 64
5, 899760, Note_on_c, 3, 57, 109
5, 900236, Note_off_c, 3, 57, 64
5, 900240, Note_on_c, 3, 50, 109
5, 900716, Note_off_c, 3, 50, 64
5, 900720, Note_on_c, 3, 54, 115
5, 901196, Note_off_c, 3, 54, 64
5, 901200, Note_on_c, 3, 43, 115
5, 901676, Note_off_c, 3, 43, 64
5, 901680, Note_on_c, 3, 55, 113
5, 902036, Note_off_c, 3, 55, 64
5, 902040, Note_on_c, 3, 54, 117
5, 902156, Note_off_c, 3, 54, 64
5, 902160, Note_on_c, 3, 55, 113
5, 902636, Note_off_c, 3, 55, 64
5, 902640, Note_on_c, 3, 59, 109
5, 903116, Note_off_c, 3, 59, 64
5, 903120, Note_on_c, 3, 52, 98
5, 903596, Note_off_c, 3, 52, 64
5, 903600, Note_on_c, 3, 55, 102
5, 904076, Note_off_c, 3, 55, 64
5, 904080, Note_on_c, 3, 45, 107
5, 904556, Note_off_c, 3, 45, 64
5, 904560, Note_on_c, 3, 57, 117
5, 904912, Note_off_c, 3, 57, 64
5, 904920, Note_on_c, 3, 55, 117
5, 905040, Note_off_c, 3, 55, 64
5, 905040, Note_on_c, 3, 57, 106
5, 906476, Note_off_c, 3, 57, 64
5, 906480, Note_on_c, 3, 57, 96
5, 906956, Note_off_c, 3, 57, 64
5, 906960, Note_on_c, 3, 50, 96
5, 909840, Note_off_c, 3, 50, 64
5, 909840, Note_on_c, 3, 59, 97
5, 911276, Note_off_c, 3, 59, 64
5, 911280, Note_on_c, 3, 62, 106
5, 911756, Note_off_c, 3, 62, 64
5, 911760, Note_on_c, 3, 55, 97
5, 912236, Note_off_c, 3, 55, 64
5, 912240, Note_on_c, 3, 59, 92
5, 912716, Note_off_c, 3, 59, 64
5, 912720, Note_on_c, 3, 60, 100
5, 914156, Note_off_c, 3, 60, 64
5, 914160, Note_on_c, 3, 59, 101
5, 914636, Note_off_c, 3, 59, 64
5, 914640, Note_on_c, 3, 60, 93
5, 915116, Note_off_c, 3, 60, 64
5, 915120, Note_on_c, 3, 57, 100
5, 915596, Note_off_c, 3, 57, 64
5, 915600, Note_on_c, 3, 59, 100
5, 917036, Note_off_c, 3, 59, 64
5, 917040, Note_on_c, 3, 47, 124
5, 917516, Note_off_c, 3, 47, 64
5, 917520, Note_on_c, 3, 49, 121
5, 917996, Note_off_c, 3, 49, 64
5, 918000, Note_on_c, 3, 51, 112
5, 918476, Note_off_c, 3, 51, 64
5, 918480, Note_on_c, 3, 40, 119
5, 918956, Note_off_c, 3, 40, 64
5, 918960, Note_on_c, 3, 55, 98
5, 919196, Note_off_c, 3, 55, 64
5, 919200, Note_on_c, 3, 57, 97
5, 919436, Note_off_c, 3, 57, 64
5, 919440, Note_on_c, 3, 55, 93
5, 919916, Note_off_c, 3, 55, 64
5, 919920, Note_on_c, 3, 54, 94
5, 920396, Note_off_c, 3, 54, 64
5, 920400, Note_on_c, 3, 52, 98
5, 921356, Note_off_c, 3, 52, 64
5, 921360, Note_on_c, 3, 45, 113
5, 921836, Note_off_c, 3, 45, 64
5, 921840, Note_on_c, 3, 57, 106
5, 922076, Note_off_c, 3, 57, 64
5, 922080, Note_on_c, 3, 55, 102
5, 922316, Note_off_c, 3, 55, 64
5, 922320, Note_on_c, 3, 57, 101
5, 922796, Note_off_c, 3, 57, 64
5, 922800, Note_on_c, 3, 60, 104
5, 923276, Note_off_c, 3, 60, 64
5, 923280, Note_on_c, 3, 57, 92
5, 923756, Note_off_c, 3, 57, 64
5, 923760, Note_on_c, 3, 54, 99
5, 924236, Note_off_c, 3, 54, 64
5, 924240, Note_on_c, 3, 47, 119
5, 924716, Note_off_c, 3, 47, 64
5, 924720, Note_on_c, 3, 51, 110
5, 925196, Note_off_c, 3, 51, 64
5, 925200, Note_on_c, 3, 52, 104
5, 925676, Note_off_c, 3, 52, 64
5, 925680, Note_on_c, 3, 55, 100
5, 926156, Note_off_c, 3, 55, 64
5, 926160, Note_on_c, 3, 59, 104
5, 927116, Note_off_c, 3, 59, 64
5, 927120, Note_on_c, 3, 52, 100
5, 929516, Note_off_c, 3, 52, 64
5, 929520, Note_on_c, 3, 50, 93
5, 929996, Note_off_c, 3, 50, 64
5, 930000, Note_on_c, 3, 48, 101
5, 931436, Note_off_c, 3, 48, 64
5, 931440, Note_on_c, 3, 60, 107
5, 931916, Note_off_c, 3, 60, 64
5, 931920, Note_on_c, 3, 59, 93
5, 932396, Note_off_c, 3, 59, 64
5, 932400, Note_on_c, 3, 58, 115
5, 932876, Note_off_c, 3, 58, 64
5, 932880, Note_on_c, 3, 59, 102
5, 933356, Note_off_c, 3, 59, 64
5, 933360, Note_on_c, 3, 47, 113
5, 933840, Note_off_c, 3, 47, 64
5, 934320, Note_on_c, 3, 59, 107
5, 934796, Note_off_c, 3, 59, 64
5, 934800, Note_on_c, 3, 57, 98
5, 935276, Note_off_c, 3, 57, 64
5, 935280, Note_on_c, 3, 56, 106
5, 935756, Note_off_c, 3, 56, 64
5, 935760, Note_on_c, 3, 57, 109
5, 936236, Note_off_c, 3, 57, 64
5, 936240, Note_on_c, 3, 45, 111
5, 936716, Note_off_c, 3, 45, 64
5, 939120, Note_on_c, 3, 45, 113
5, 939596, Note_off_c, 3, 45, 64
5, 939600, Note_on_c, 3, 38, 113
5, 940076, Note_off_c, 3, 38, 64
5, 940080, Note_on_c, 3, 42, 112
5, 940556, Note_off_c, 3, 42, 64
5, 940560, Note_on_c, 3, 45, 115
5, 941036, Note_off_c, 3, 45, 64
5, 941040, Note_on_c, 3, 50, 117
5, 941516, Note_off_c, 3, 50, 64
5, 941520, Note_on_c, 3, 43, 104
5, 941996, Note_off_c, 3, 43, 64
5, 942000, Note_on_c, 3, 55, 109
5, 942476, Note_off_c, 3, 55, 64
5, 942480, Note_on_c, 3, 57, 107
5, 942956, Note_off_c, 3, 57, 64
5, 942960, Note_on_c, 3, 59, 104
5, 943436, Note_off_c, 3, 59, 64
5, 943920, Note_on_c, 3, 55, 100
5, 944396, Note_off_c, 3, 55, 64
5, 944400, Note_on_c, 3, 48, 119
5, 944876, Note_off_c, 3, 48, 64
5, 944880, Note_on_c, 3, 52, 115
5, 945356, Note_off_c, 3, 52, 64
5, 945360, Note_on_c, 3, 53, 115
5, 945836, Note_off_c, 3, 53, 64
5, 945840, Note_on_c, 3, 54, 112
5, 946316, Note_off_c, 3, 54, 64
5, 946320, Note_on_c, 3, 55, 97
5, 946796, Note_off_c, 3, 55, 64
5, 946800, Note_on_c, 3, 54, 108
5, 947036, Note_off_c, 3, 54, 64
5, 947040, Note_on_c, 3, 52, 107
5, 947276, Note_off_c, 3, 52, 64
5, 947280, Note_on_c, 3, 50, 98
5, 948712, Note_off_c, 3, 50, 64
5, 948720, Note_on_c, 3, 54, 102
5, 949196, Note_off_c, 3, 54, 64
5, 949200, Note_on_c, 3, 52, 109
5, 949676, Note_off_c, 3, 52, 64
5, 949680, Note_on_c, 3, 50, 104
5, 950156, Note_off_c, 3, 50, 64
5, 950160, Note_on_c, 3, 43, 109
5, 951116, Note_off_c, 3, 43, 64
5, 952080, Note_on_c, 3, 43, 84
5, 953036, Note_off_c, 3, 43, 64
5, 953040, Note_on_c, 3, 59, 95
5, 953156, Note_off_c, 3, 59, 64
5, 953160, Note_on_c, 3, 55, 84
5, 953276, Note_off_c, 3, 55, 64
5, 953280, Note_on_c, 3, 50, 68
5, 953396, Note_off_c, 3, 50, 64
5, 953400, Note_on_c, 3, 55, 83
5, 953516, Note_off_c, 3, 55, 64
5, 953520, Note_on_c, 3, 59, 96
5, 953636, Note_off_c, 3, 59, 64
5, 953640, Note_on_c, 3, 55, 77
5, 953756, Note_off_c, 3, 55, 64
5, 953760, Note_on_c, 3, 62, 85
5, 953876, Note_off_c, 3, 62, 64
5, 953880, Note_on_c, 3, 59, 84
5, 954000, Note_off_c, 3, 59, 64
5, 954000, Note_on_c, 3, 55, 58
5, 954120, Note_off_c, 3, 55, 64
5, 954120, Note_on_c, 3, 59, 88
5, 954240, Note_off_c, 3, 59, 64
5, 954240, Note_on_c, 3, 57, 83
5, 954360, Note_off_c, 3, 57, 64
5, 954360, Note_on_c, 3, 55, 75
5, 954480, Note_off_c, 3, 55, 64
5, 954480, Note_on_c, 3, 62, 111
5, 954596, Note_off_c, 3, 62, 64
5, 954600, Note_on_c, 3, 57, 111
5, 954716, Note_off_c, 3, 57, 64
5, 954720, Note_on_c, 3, 54, 80
5, 954836, Note_off_c, 3, 54, 64
5, 954840, Note_on_c, 3, 57, 80
5, 954956, Note_off_c, 3, 57, 64
5, 954960, Note_on_c, 3, 62, 91
5, 955076, Note_off_c, 3, 62, 64
5, 955080, Note_on_c, 3, 57, 81
5, 955196, Note_off_c, 3, 57, 64
5, 955200, Note_on_c, 3, 69, 76
5, 955320, Note_off_c, 3, 69, 64
5, 955320, Note_on_c, 3, 66, 86
5, 955436, Note_off_c, 3, 66, 64
5, 955440, Note_on_c, 3, 62, 95
5, 955560, Note_off_c, 3, 62, 64
5, 955560, Note_on_c, 3, 66, 97
5, 955676, Note_off_c, 3, 66, 64
5, 955680, Note_on_c, 3, 64, 102
5, 955796, Note_off_c, 3, 64, 64
5, 955800, Note_on_c, 3, 62, 83
5, 955916, Note_off_c, 3, 62, 64
5, 955920, Note_on_c, 3, 67, 89
5, 956036, Note_off_c, 3, 67, 64
5, 956040, Note_on_c, 3, 64, 78
5, 956156, Note_off_c, 3, 64, 64
5, 956160, Note_on_c, 3, 59, 78
5, 956276, Note_off_c, 3, 59, 64
5, 956280, Note_on_c, 3, 64, 75
5, 956396, Note_off_c, 3, 64, 64
5, 956400, Note_on_c, 3, 67, 85
5, 956516, Note_off_c, 3, 67, 64
5, 956520, Note_on_c, 3, 64, 82
5, 956636, Note_off_c, 3, 64, 64
5, 956640, Note_on_c, 3, 71, 90
5, 956756, Note_off_c, 3, 71, 64
5, 956760, Note_on_c, 3, 67, 80
5, 956876, Note_off_c, 3, 67, 64
5, 956880, Note_on_c, 3, 64, 88
5, 956996, Note_off_c, 3, 64, 64
5, 957000, Note_on_c, 3, 71, 90
5, 957120, Note_off_c, 3, 71, 64
5, 957120, Note_on_c, 3, 69, 72
5, 957236, Note_off_c, 3, 69, 64
5, 957240, Note_on_c, 3, 67, 83
5, 957356, Note_off_c, 3, 67, 64
5, 957360, Note_on_c, 3, 74, 95
5, 957476, Note_off_c, 3, 74, 64
5, 957480, Note_on_c, 3, 69, 78
5, 957596, Note_off_c, 3, 69, 64
5, 957600, Note_on_c, 3, 66, 81
5, 957716, Note_off_c, 3, 66, 64
5, 957720, Note_on_c, 3, 69, 77
5, 957836, Note_off_c, 3, 69, 64
5, 957840, Note_on_c, 3, 74, 80
5, 957956, Note_off_c, 3, 74, 64
5, 957960, Note_on_c, 3, 69, 76
5, 958076, Note_off_c, 3, 69, 64
5, 958080, Note_on_c, 3, 81, 96
5, 958196, Note_off_c, 3, 81, 64
5, 958200, Note_on_c, 3, 78, 85
5, 958316, Note_off_c, 3, 78, 64
5, 958320, Note_on_c, 3, 74, 77
5, 958436, Note_off_c, 3, 74, 64
5, 958440, Note_on_c, 3, 78, 85
5, 958556, Note_off_c, 3, 78, 64
5, 958560, Note_on_c, 3, 76, 88
5, 958676, Note_off_c, 3, 76, 64
5, 958680, Note_on_c, 3, 74, 80
5, 958796, Note_off_c, 3, 74, 64
5, 958800, Note_on_c, 3, 79, 84
5, 958916, Note_off_c, 3, 79, 64
5, 958920, Note_on_c, 3, 74, 83
5, 959036, Note_off_c, 3, 74, 64
5, 959040, Note_on_c, 3, 71, 61
5, 959160, Note_off_c, 3, 71, 64
5, 959160, Note_on_c, 3, 74, 83
5, 959276, Note_off_c, 3, 74, 64
5, 959280, Note_on_c, 3, 79, 83
5, 959396, Note_off_c, 3, 79, 64
5, 959400, Note_on_c, 3, 74, 83
5, 959516, Note_off_c, 3, 74, 64
5, 959520, Note_on_c, 3, 83, 82
5, 959640, Note_off_c, 3, 83, 64
5, 959640, Note_on_c, 3, 79, 77
5, 959756, Note_off_c, 3, 79, 64
5, 959760, Note_on_c, 3, 74, 78
5, 959876, Note_off_c, 3, 74, 64
5, 959880, Note_on_c, 3, 77, 89
5, 959996, Note_off_c, 3, 77, 64
5, 960000, Note_on_c, 3, 76, 92
5, 960116, Note_off_c, 3, 76, 64
5, 960120, Note_on_c, 3, 74, 78
5, 960236, Note_off_c, 3, 74, 64
5, 960240, Note_on_c, 3, 76, 91
5, 960356, Note_off_c, 3, 76, 64
5, 960360, Note_on_c, 3, 72, 82
5, 960476, Note_off_c, 3, 72, 64
5, 960480, Note_on_c, 3, 67, 70
5, 960596, Note_off_c, 3, 67, 64
5, 960600, Note_on_c, 3, 72, 83
5, 960716, Note_off_c, 3, 72, 64
5, 960720, Note_on_c, 3, 76, 83
5, 960836, Note_off_c, 3, 76, 64
5, 960840, Note_on_c, 3, 72, 83
5, 960956, Note_off_c, 3, 72, 64
5, 960960, Note_on_c, 3, 79, 84
5, 961076, Note_off_c, 3, 79, 64
5, 961080, Note_on_c, 3, 76, 76
5, 961196, Note_off_c, 3, 76, 64
5, 961200, Note_on_c, 3, 72, 85
5, 961316, Note_off_c, 3, 72, 64
5, 961320, Note_on_c, 3, 74, 83
5, 961436, Note_off_c, 3, 74, 64
5, 961440, Note_on_c, 3, 72, 80
5, 961556, Note_off_c, 3, 72, 64
5, 961560, Note_on_c, 3, 71, 68
5, 961676, Note_off_c, 3, 71, 64
5, 961680, Note_on_c, 3, 69, 63
5, 961796, Note_off_c, 3, 69, 64
5, 961800, Note_on_c, 3, 66, 75
5, 961916, Note_off_c, 3, 66, 64
5, 961920, Note_on_c, 3, 62, 45
5, 962036, Note_off_c, 3, 62, 64
5, 962040, Note_on_c, 3, 66, 53
5, 962160, Note_off_c, 3, 66, 64
5, 962160, Note_on_c, 3, 69, 89
5, 962276, Note_off_c, 3, 69, 64
5, 962280, Note_on_c, 3, 66, 89
5, 962396, Note_off_c, 3, 66, 64
5, 962400, Note_on_c, 3, 74, 84
5, 962516, Note_off_c, 3, 74, 64
5, 962520, Note_on_c, 3, 69, 74
5, 962636, Note_off_c, 3, 69, 64
5, 962640, Note_on_c, 3, 66, 75
5, 962756, Note_off_c, 3, 66, 64
5, 962760, Note_on_c, 3, 69, 86
5, 962876, Note_off_c, 3, 69, 64
5, 962880, Note_on_c, 3, 67, 85
5, 962996, Note_off_c, 3, 67, 64
5, 963000, Note_on_c, 3, 66, 89
5, 963116, Note_off_c, 3, 66, 64
5, 963120, Note_on_c, 3, 67, 90
5, 963236, Note_off_c, 3, 67, 64
5, 963240, Note_on_c, 3, 62, 66
5, 963356, Note_off_c, 3, 62, 64
5, 963360, Note_on_c, 3, 59, 77
5, 963476, Note_off_c, 3, 59, 64
5, 963480, Note_on_c, 3, 62, 82
5, 963596, Note_off_c, 3, 62, 64
5, 963600, Note_on_c, 3, 67, 93
5, 963716, Note_off_c, 3, 67, 64
5, 963720, Note_on_c, 3, 62, 83
5, 963836, Note_off_c, 3, 62, 64
5, 963840, Note_on_c, 3, 71, 83
5, 963956, Note_off_c, 3, 71, 64
5, 963960, Note_on_c, 3, 67, 83
5, 964080, Note_off_c, 3, 67, 64
5, 964080, Note_on_c, 3, 74, 97
5, 964196, Note_off_c, 3, 74, 64
5, 964200, Note_on_c, 3, 72, 97
5, 964316, Note_off_c, 3, 72, 64
5, 964320, Note_on_c, 3, 71, 85
5, 964436, Note_off_c, 3, 71, 64
5, 964440, Note_on_c, 3, 69, 77
5, 964556, Note_off_c, 3, 69, 64
5, 964560, Note_on_c, 3, 67, 98
5, 964796, Note_off_c, 3, 67, 64
5, 964920, Note_on_c, 3, 79, 109
5, 964976, Note_off_c, 3, 79, 64
5, 964980, Note_on_c, 3, 78, 101
5, 965036, Note_off_c, 3, 78, 64
5, 965040, Note_on_c, 3, 79, 115
5, 965100, Note_off_c, 3, 79, 64
5, 965400, Note_on_c, 3, 73, 108
5, 965456, Note_off_c, 3, 73, 64
5, 965460, Note_on_c, 3, 71, 111
5, 965516, Note_off_c, 3, 71, 64
5, 965520, Note_on_c, 3, 73, 108
5, 965580, Note_off_c, 3, 73, 64
5, 965880, Note_on_c, 3, 66, 102
5, 965936, Note_off_c, 3, 66, 64
5, 965940, Note_on_c, 3, 64, 96
5, 965996, Note_off_c, 3, 64, 64
5, 966000, Note_on_c, 3, 66, 119
5, 966060, Note_off_c, 3, 66, 64
5, 966360, Note_on_c, 3, 78, 92
5, 966416, Note_off_c, 3, 78, 64
5, 966420, Note_on_c, 3, 76, 95
5, 966476, Note_off_c, 3, 76, 64
5, 966480, Note_on_c, 3, 78, 104
5, 966540, Note_off_c, 3, 78, 64
5, 966840, Note_on_c, 3, 71, 92
5, 966896, Note_off_c, 3, 71, 64
5, 966900, Note_on_c, 3, 69, 65
5, 966956, Note_off_c, 3, 69, 64
5, 966960, Note_on_c, 3, 71, 111
5, 967020, Note_off_c, 3, 71, 64
5, 967320, Note_on_c, 3, 64, 104
5, 967376, Note_off_c, 3, 64, 64
5, 967380, Note_on_c, 3, 62, 68
5, 967436, Note_off_c, 3, 62, 64
5, 967440, Note_on_c, 3, 64, 104
5, 967500, Note_off_c, 3, 64, 64
5, 967800, Note_on_c, 3, 76, 113
5, 967856, Note_off_c, 3, 76, 64
5, 967860, Note_on_c, 3, 74, 98
5, 967916, Note_off_c, 3, 74, 64
5, 967920, Note_on_c, 3, 76, 115
5, 967980, Note_off_c, 3, 76, 64
5, 968280, Note_on_c, 3, 67, 96
5, 968336, Note_off_c, 3, 67, 64
5, 968340, Note_on_c, 3, 66, 86
5, 968396, Note_off_c, 3, 66, 64
5, 968400, Note_on_c, 3, 67, 117
5, 968516, Note_off_c, 3, 67, 64
5, 968760, Note_on_c, 3, 61, 117
5, 968816, Note_off_c, 3, 61, 64
5, 968820, Note_on_c, 3, 59, 80
5, 968876, Note_off_c, 3, 59, 64
5, 968880, Note_on_c, 3, 61, 121
5, 968940, Note_off_c, 3, 61, 64
5, 969240, Note_on_c, 3, 52, 107
5, 969296, Note_off_c, 3, 52, 64
5, 969300, Note_on_c, 3, 50, 101
5, 969356, Note_off_c, 3, 50, 64
5, 969360, Note_on_c, 3, 52, 115
5, 969416, Note_off_c, 3, 52, 64
5, 969720, Note_on_c, 3, 45, 111
5, 969776, Note_off_c, 3, 45, 64
5, 969780, Note_on_c, 3, 43, 102
5, 969836, Note_off_c, 3, 43, 64
5, 969840, Note_on_c, 3, 45, 113
5, 969956, Note_off_c, 3, 45, 64
5, 970200, Note_on_c, 3, 42, 108
5, 970256, Note_off_c, 3, 42, 64
5, 970260, Note_on_c, 3, 40, 91
5, 970316, Note_off_c, 3, 40, 64
5, 970320, Note_on_c, 3, 38, 119
5, 970440, Note_off_c, 3, 38, 64
5, 970800, Note_on_c, 3, 74, 102
5, 970920, Note_off_c, 3, 74, 64
5, 971280, Note_on_c, 3, 72, 126
5, 971400, Note_off_c, 3, 72, 64
5, 971820, Note_on_c, 3, 55, 84
5, 971880, Note_off_c, 3, 55, 64
5, 971880, Note_on_c, 3, 57, 85
5, 971936, Note_off_c, 3, 57, 64
5, 971940, Note_on_c, 3, 59, 95
5, 972000, Note_off_c, 3, 59, 64
5, 972000, Note_on_c, 3, 62, 107
5, 972060, Note_off_c, 3, 62, 64
5, 972060, Note_on_c, 3, 59, 107
5, 972120, Note_off_c, 3, 59, 64
5, 972120, Note_on_c, 3, 57, 107
5, 972180, Note_off_c, 3, 57, 64
5, 972180, Note_on_c, 3, 55, 107
5, 972240, Note_off_c, 3, 55, 64
5, 972300, Note_on_c, 3, 55, 88
5, 972360, Note_off_c, 3, 55, 64
5, 972360, Note_on_c, 3, 57, 66
5, 972416, Note_off_c, 3, 57, 64
5, 972420, Note_on_c, 3, 58, 92
5, 972476, Note_off_c, 3, 58, 64
5, 972480, Note_on_c, 3, 62, 107
5, 972540, Note_off_c, 3, 62, 64
5, 972540, Note_on_c, 3, 58, 88
5, 972600, Note_off_c, 3, 58, 64
5, 972600, Note_on_c, 3, 57, 88
5, 972660, Note_off_c, 3, 57, 64
5, 972660, Note_on_c, 3, 55, 88
5, 972720, Note_off_c, 3, 55, 64
5, 972780, Note_on_c, 3, 56, 88
5, 972840, Note_off_c, 3, 56, 64
5, 972840, Note_on_c, 3, 57, 88
5, 972900, Note_off_c, 3, 57, 64
5, 972900, Note_on_c, 3, 59, 88
5, 972960, Note_off_c, 3, 59, 64
5, 972960, Note_on_c, 3, 62, 107
5, 973020, Note_off_c, 3, 62, 64
5, 973020, Note_on_c, 3, 59, 88
5, 973080, Note_off_c, 3, 59, 64
5, 973080, Note_on_c, 3, 57, 88
5, 973140, Note_off_c, 3, 57, 64
5, 973140, Note_on_c, 3, 56, 88
5, 973200, Note_off_c, 3, 56, 64
5, 973200, Note_on_c, 3, 57, 88
5, 973320, Note_off_c, 3, 57, 64
5, 973320, Note_on_c, 3, 61, 88
5, 973380, Note_off_c, 3, 61, 64
5, 973380, Note_on_c, 3, 59, 88
5, 973440, Note_off_c, 3, 59, 64
5, 973440, Note_on_c, 3, 61, 88
5, 973500, Note_off_c, 3, 61, 64
5, 973560, Note_on_c, 3, 54, 88
5, 973620, Note_off_c, 3, 54, 64
5, 973620, Note_on_c, 3, 52, 88
5, 973680, Note_off_c, 3, 52, 64
5, 973680, Note_on_c, 3, 54, 88
5, 973740, Note_off_c, 3, 54, 64
5, 973800, Note_on_c, 3, 59, 88
5, 973860, Note_off_c, 3, 59, 64
5, 973860, Note_on_c, 3, 57, 88
5, 973920, Note_off_c, 3, 57, 64
5, 973920, Note_on_c, 3, 59, 88
5, 973980, Note_off_c, 3, 59, 64
5, 974040, Note_on_c, 3, 52, 88
5, 974100, Note_off_c, 3, 52, 64
5, 974100, Note_on_c, 3, 50, 88
5, 974160, Note_off_c, 3, 50, 64
5, 974160, Note_on_c, 3, 52, 88
5, 974220, Note_off_c, 3, 52, 64
5, 974280, Note_on_c, 3, 57, 88
5, 974340, Note_off_c, 3, 57, 64
5, 974340, Note_on_c, 3, 55, 88
5, 974400, Note_off_c, 3, 55, 64
5, 974400, Note_on_c, 3, 57, 88
5, 974460, Note_off_c, 3, 57, 64
5, 974520, Note_on_c, 3, 50, 88
5, 974580, Note_off_c, 3, 50, 64
5, 974580, Note_on_c, 3, 49, 88
5, 974640, Note_off_c, 3, 49, 64
5, 974640, Note_on_c, 3, 50, 88
5, 974700, Note_off_c, 3, 50, 64
5, 974700, Note_on_c, 3, 52, 88
5, 974760, Note_off_c, 3, 52, 64
5, 974760, Note_on_c, 3, 54, 88
5, 974820, Note_off_c, 3, 54, 64
5, 974820, Note_on_c, 3, 55, 88
5, 974880, Note_off_c, 3, 55, 64
5, 974880, Note_on_c, 3, 57, 88
5, 974940, Note_off_c, 3, 57, 64
5, 974940, Note_on_c, 3, 55, 88
5, 975000, Note_off_c, 3, 55, 64
5, 975000, Note_on_c, 3, 54, 88
5, 975060, Note_off_c, 3, 54, 64
5, 975060, Note_on_c, 3, 52, 88
5, 975120, Note_off_c, 3, 52, 64
5, 975120, Note_on_c, 3, 50, 88
5, 975240, Note_off_c, 3, 50, 64
5, 975240, Note_on_c, 3, 54, 88
5, 975360, Note_off_c, 3, 54, 64
5, 975360, Note_on_c, 3, 45, 88
5, 975480, Note_off_c, 3, 45, 64
5, 975480, Note_on_c, 3, 50, 88
5, 975600, Note_off_c, 3, 50, 64
5, 975600, Note_on_c, 3, 38, 88
5, 975840, Note_off_c, 3, 38, 64
5, 976080, Note_on_c, 3, 50, 113
5, 976320, Note_off_c, 3, 50, 64
5, 976560, Note_on_c, 3, 83, 97
5, 976616, Note_off_c, 3, 83, 64
5, 976620, Note_on_c, 3, 84, 80
5, 976676, Note_off_c, 3, 84, 64
5, 976680, Note_on_c, 3, 86, 85
5, 976736, Note_off_c, 3, 86, 64
5, 976740, Note_on_c, 3, 84, 81
5, 976796, Note_off_c, 3, 84, 64
5, 976800, Note_on_c, 3, 86, 80
5, 976856, Note_off_c, 3, 86, 64
5, 976860, Note_on_c, 3, 84, 80
5, 976916, Note_off_c, 3, 84, 64
5, 976920, Note_on_c, 3, 86, 84
5, 976976, Note_off_c, 3, 86, 64
5, 976980, Note_on_c, 3, 84, 90
5, 977036, Note_off_c, 3, 84, 64
5, 977040, Note_on_c, 3, 86, 93
5, 977096, Note_off_c, 3, 86, 64
5, 977100, Note_on_c, 3, 84, 90
5, 977156, Note_off_c, 3, 84, 64
5, 977160, Note_on_c, 3, 86, 82
5, 977216, Note_off_c, 3, 86, 64
5, 977220, Note_on_c, 3, 84, 77
5, 977276, Note_off_c, 3, 84, 64
5, 977280, Note_on_c, 3, 86, 86
5, 977336, Note_off_c, 3, 86, 64
5, 977340, Note_on_c, 3, 84, 92
5, 977396, Note_off_c, 3, 84, 64
5, 977400, Note_on_c, 3, 83, 96
5, 977456, Note_off_c, 3, 83, 64
5, 977460, Note_on_c, 3, 84, 91
5, 977516, Note_off_c, 3, 84, 64
5, 977520, Note_on_c, 3, 83, 121
5, 977760, Note_off_c, 3, 83, 64
5, 978000, Note_on_c, 3, 65, 119
5, 978056, Note_off_c, 3, 65, 64
5, 978060, Note_on_c, 3, 64, 119
5, 978116, Note_off_c, 3, 64, 64
5, 978120, Note_on_c, 3, 65, 119
5, 978480, Note_off_c, 3, 65, 64
5, 978600, Note_on_c, 3, 69, 119
5, 978720, Note_off_c, 3, 69, 64
5, 978720, Note_on_c, 3, 67, 119
5, 978840, Note_off_c, 3, 67, 64
5, 978840, Note_on_c, 3, 65, 119
5, 978960, Note_off_c, 3, 65, 64
5, 978960, Note_on_c, 3, 64, 121
5, 979200, Note_off_c, 3, 64, 64
5, 979440, Note_on_c, 3, 78, 127
5, 979676, Note_off_c, 3, 78, 64
5, 979680, Note_on_c, 3, 81, 119
5, 979916, Note_off_c, 3, 81, 64
5, 979920, Note_on_c, 3, 75, 119
5, 980156, Note_off_c, 3, 75, 64
5, 980160, Note_on_c, 3, 76, 102
5, 980280, Note_off_c, 3, 76, 64
5, 980280, Note_on_c, 3, 78, 104
5, 980400, Note_off_c, 3, 78, 64
5, 980400, Note_on_c, 3, 71, 121
5, 980516, Note_off_c, 3, 71, 64
5, 980880, Note_on_c, 3, 47, 119
5, 980940, Note_off_c, 3, 47, 64
5, 980940, Note_on_c, 3, 45, 59
5, 980996, Note_off_c, 3, 45, 64
5, 981000, Note_on_c, 3, 43, 86
5, 981056, Note_off_c, 3, 43, 64
5, 981060, Note_on_c, 3, 45, 86
5, 981116, Note_off_c, 3, 45, 64
5, 981120, Note_on_c, 3, 47, 82
5, 981176, Note_off_c, 3, 47, 64
5, 981180, Note_on_c, 3, 45, 80
5, 981236, Note_off_c, 3, 45, 64
5, 981240, Note_on_c, 3, 47, 78
5, 981296, Note_off_c, 3, 47, 64
5, 981300, Note_on_c, 3, 45, 86
5, 981356, Note_off_c, 3, 45, 64
5, 981360, Note_on_c, 3, 47, 88
5, 981416, Note_off_c, 3, 47, 64
5, 981420, Note_on_c, 3, 45, 84
5, 981476, Note_off_c, 3, 45, 64
5, 981480, Note_on_c, 3, 47, 84
5, 981536, Note_off_c, 3, 47, 64
5, 981540, Note_on_c, 3, 45, 82
5, 981596, Note_off_c, 3, 45, 64
5, 981600, Note_on_c, 3, 47, 81
5, 981656, Note_off_c, 3, 47, 64
5, 981660, Note_on_c, 3, 45, 88
5, 981716, Note_off_c, 3, 45, 64
5, 981720, Note_on_c, 3, 43, 96
5, 981776, Note_off_c, 3, 43, 64
5, 981780, Note_on_c, 3, 45, 96
5, 981836, Note_off_c, 3, 45, 64
5, 981840, Note_on_c, 3, 43, 123
5, 982076, Note_off_c, 3, 43, 64
5, 982080, Note_on_c, 3, 40, 101
5, 982316, Note_off_c, 3, 40, 64
5, 982320, Note_on_c, 3, 43, 123
5, 982556, Note_off_c, 3, 43, 64
5, 982560, Note_on_c, 3, 47, 119
5, 982796, Note_off_c, 3, 47, 64
5, 982800, Note_on_c, 3, 43, 113
5, 983036, Note_off_c, 3, 43, 64
5, 983040, Note_on_c, 3, 40, 107
5, 983276, Note_off_c, 3, 40, 64
5, 983280, Note_on_c, 3, 45, 115
5, 983516, Note_off_c, 3, 45, 64
5, 983520, Note_on_c, 3, 33, 113
5, 983756, Note_off_c, 3, 33, 64
5, 983760, Note_on_c, 3, 45, 98
5, 983996, Note_off_c, 3, 45, 64
5, 984000, Note_on_c, 3, 48, 109
5, 984236, Note_off_c, 3, 48, 64
5, 984240, Note_on_c, 3, 47, 102
5, 984476, Note_off_c, 3, 47, 64
5, 984480, Note_on_c, 3, 45, 100
5, 984716, Note_off_c, 3, 45, 64
5, 984720, Note_on_c, 3, 47, 110
5, 984956, Note_off_c, 3, 47, 64
5, 984960, Note_on_c, 3, 51, 104
5, 985196, Note_off_c, 3, 51, 64
5, 985200, Note_on_c, 3, 54, 109
5, 985436, Note_off_c, 3, 54, 64
5, 985440, Note_on_c, 3, 59, 119
5, 985676, Note_off_c, 3, 59, 64
5, 985680, Note_on_c, 3, 67, 107
5, 985916, Note_off_c, 3, 67, 64
5, 985920, Note_on_c, 3, 64, 111
5, 986040, Note_off_c, 3, 64, 64
5, 986040, Note_on_c, 3, 63, 111
5, 986160, Note_off_c, 3, 63, 64
5, 986160, Note_on_c, 3, 64, 102
5, 986396, Note_off_c, 3, 64, 64
5, 986400, Note_on_c, 3, 67, 102
5, 986640, Note_off_c, 3, 67, 64
5, 986640, Note_on_c, 3, 71, 102
5, 986880, Note_off_c, 3, 71, 64
5, 986880, Note_on_c, 3, 76, 111
5, 987000, Note_off_c, 3, 76, 64
5, 987000, Note_on_c, 3, 75, 121
5, 987120, Note_off_c, 3, 75, 64
5, 987120, Note_on_c, 3, 76, 121
5, 987360, Note_off_c, 3, 76, 64
5, 987720, Note_on_c, 3, 48, 119
5, 987776, Note_off_c, 3, 48, 64
5, 987780, Note_on_c, 3, 47, 94
5, 987836, Note_off_c, 3, 47, 64
5, 987840, Note_on_c, 3, 48, 115
5, 987896, Note_off_c, 3, 48, 64
5, 988200, Note_on_c, 3, 57, 123
5, 988256, Note_off_c, 3, 57, 64
5, 988260, Note_on_c, 3, 56, 80
5, 988316, Note_off_c, 3, 56, 64
5, 988320, Note_on_c, 3, 57, 98
5, 988376, Note_off_c, 3, 57, 64
5, 988680, Note_on_c, 3, 64, 106
5, 988736, Note_off_c, 3, 64, 64
5, 988740, Note_on_c, 3, 62, 106
5, 988796, Note_off_c, 3, 62, 64
5, 988800, Note_on_c, 3, 64, 101
5, 988916, Note_off_c, 3, 64, 64
5, 989160, Note_on_c, 3, 47, 117
5, 989216, Note_off_c, 3, 47, 64
5, 989220, Note_on_c, 3, 45, 100
5, 989276, Note_off_c, 3, 45, 64
5, 989280, Note_on_c, 3, 47, 111
5, 989340, Note_off_c, 3, 47, 64
5, 989640, Note_on_c, 3, 55, 127
5, 989700, Note_off_c, 3, 55, 64
5, 989700, Note_on_c, 3, 54, 93
5, 989756, Note_off_c, 3, 54, 64
5, 989760, Note_on_c, 3, 55, 101
5, 989820, Note_off_c, 3, 55, 64
5, 990120, Note_on_c, 3, 62, 100
5, 990180, Note_off_c, 3, 62, 64
5, 990180, Note_on_c, 3, 60, 100
5, 990240, Note_off_c, 3, 60, 64
5, 990240, Note_on_c, 3, 62, 100
5, 990300, Note_off_c, 3, 62, 64
5, 990600, Note_on_c, 3, 45, 100
5, 990660, Note_off_c, 3, 45, 64
5, 990660, Note_on_c, 3, 43, 100
5, 990720, Note_off_c, 3, 43, 64
5, 990720, Note_on_c, 3, 45, 100
5, 990780, Note_off_c, 3, 45, 64
5, 991080, Note_on_c, 3, 52, 100
5, 991140, Note_off_c, 3, 52, 64
5, 991140, Note_on_c, 3, 50, 100
5, 991200, Note_off_c, 3, 50, 64
5, 991200, Note_on_c, 3, 52, 100
5, 991260, Note_off_c, 3, 52, 64
5, 991560, Note_on_c, 3, 60, 100
5, 991620, Note_off_c, 3, 60, 64
5, 991620, Note_on_c, 3, 59, 100
5, 991680, Note_off_c, 3, 59, 64
5, 991680, Note_on_c, 3, 60, 100
5, 991740, Note_off_c, 3, 60, 64
5, 992040, Note_on_c, 3, 69, 100
5, 992100, Note_off_c, 3, 69, 64
5, 992100, Note_on_c, 3, 67, 100
5, 992160, Note_off_c, 3, 67, 64
5, 992160, Note_on_c, 3, 69, 100
5, 992220, Note_off_c, 3, 69, 64
5, 992520, Note_on_c, 3, 78, 100
5, 992580, Note_off_c, 3, 78, 64
5, 992580, Note_on_c, 3, 76, 100
5, 992640, Note_off_c, 3, 76, 64
5, 992640, Note_on_c, 3, 78, 100
5, 992700, Note_off_c, 3, 78, 64
5, 993000, Note_on_c, 3, 81, 100
5, 993060, Note_off_c, 3, 81, 64
5, 993060, Note_on_c, 3, 79, 100
5, 993120, Note_off_c, 3, 79, 64
5, 993120, Note_on_c, 3, 81, 100
5, 993180, Note_off_c, 3, 81, 64
5, 993420, Note_on_c, 3, 67, 97
5, 993476, Note_off_c, 3, 67, 64
5, 993480, Note_on_c, 3, 69, 104
5, 993536, Note_off_c, 3, 69, 64
5, 993540, Note_on_c, 3, 71, 92
5, 993596, Note_off_c, 3, 71, 64
5, 993600, Note_on_c, 3, 74, 97
5, 993656, Note_off_c, 3, 74, 64
5, 993660, Note_on_c, 3, 71, 110
5, 993716, Note_off_c, 3, 71, 64
5, 993720, Note_on_c, 3, 69, 98
5, 993776, Note_off_c, 3, 69, 64
5, 993780, Note_on_c, 3, 67, 102
5, 993836, Note_off_c, 3, 67, 64
5, 993900, Note_on_c, 3, 67, 100
5, 993956, Note_off_c, 3, 67, 64
5, 993960, Note_on_c, 3, 69, 101
5, 994016, Note_off_c, 3, 69, 64
5, 994020, Note_on_c, 3, 71, 97
5, 994076, Note_off_c, 3, 71, 64
5, 994080, Note_on_c, 3, 74, 97
5, 994136, Note_off_c, 3, 74, 64
5, 994140, Note_on_c, 3, 71, 102
5, 994196, Note_off_c, 3, 71, 64
5, 994200, Note_on_c, 3, 69, 100
5, 994256, Note_off_c, 3, 69, 64
5, 994260, Note_on_c, 3, 67, 100
5, 994316, Note_off_c, 3, 67, 64
5, 994380, Note_on_c, 3, 67, 98
5, 994436, Note_off_c, 3, 67, 64
5, 994440, Note_on_c, 3, 69, 100
5, 994496, Note_off_c, 3, 69, 64
5, 994500, Note_on_c, 3, 71, 97
5, 994556, Note_off_c, 3, 71, 64
5, 994560, Note_on_c, 3, 74, 96
5, 994616, Note_off_c, 3, 74, 64
5, 994620, Note_on_c, 3, 71, 102
5, 994676, Note_off_c, 3, 71, 64
5, 994680, Note_on_c, 3, 69, 95
5, 994736, Note_off_c, 3, 69, 64
5, 994740, Note_on_c, 3, 67, 93
5, 994796, Note_off_c, 3, 67, 64
5, 994800, Note_on_c, 3, 72, 123
5, 994920, Note_off_c, 3, 72, 64
5, 995280, Note_on_c, 3, 57, 126
5, 995396, Note_off_c, 3, 57, 64
5, 995760, Note_on_c, 3, 52, 121
5, 995880, Note_off_c, 3, 52, 64
5, 996240, Note_on_c, 3, 54, 109
5, 996296, Note_off_c, 3, 54, 64
5, 996360, Note_on_c, 3, 57, 109
5, 996416, Note_off_c, 3, 57, 64
5, 996420, Note_on_c, 3, 55, 86
5, 996480, Note_off_c, 3, 55, 64
5, 996480, Note_on_c, 3, 57, 104
5, 996536, Note_off_c, 3, 57, 64
5, 996600, Note_on_c, 3, 62, 106
5, 996656, Note_off_c, 3, 62, 64
5, 996660, Note_on_c, 3, 60, 100
5, 996716, Note_off_c, 3, 60, 64
5, 996720, Note_on_c, 3, 62, 104
5, 996776, Note_off_c, 3, 62, 64
5, 996840, Note_on_c, 3, 55, 104
5, 996896, Note_off_c, 3, 55, 64
5, 996900, Note_on_c, 3, 54, 104
5, 996956, Note_off_c, 3, 54, 64
5, 996960, Note_on_c, 3, 55, 86
5, 997016, Note_off_c, 3, 55, 64
5, 997080, Note_on_c, 3, 60, 107
5, 997136, Note_off_c, 3, 60, 64
5, 997140, Note_on_c, 3, 59, 106
5, 997196, Note_off_c, 3, 59, 64
5, 997200, Note_on_c, 3, 60, 106
5, 997256, Note_off_c, 3, 60, 64
5, 997320, Note_on_c, 3, 54, 100
5, 997376, Note_off_c, 3, 54, 64
5, 997380, Note_on_c, 3, 52, 102
5, 997436, Note_off_c, 3, 52, 64
5, 997440, Note_on_c, 3, 54, 97
5, 997500, Note_off_c, 3, 54, 64
5, 997560, Note_on_c, 3, 59, 123
5, 997616, Note_off_c, 3, 59, 64
5, 997620, Note_on_c, 3, 54, 97
5, 997676, Note_off_c, 3, 54, 64
5, 997680, Note_on_c, 3, 59, 110
5, 997740, Note_off_c, 3, 59, 64
5, 997800, Note_on_c, 3, 55, 89
5, 997916, Note_off_c, 3, 55, 64
5, 997920, Note_on_c, 3, 54, 90
5, 998036, Note_off_c, 3, 54, 64
5, 998040, Note_on_c, 3, 55, 95
5, 998160, Note_off_c, 3, 55, 64
5, 998160, Note_on_c, 3, 59, 112
5, 998216, Note_off_c, 3, 59, 64
5, 998220, Note_on_c, 3, 57, 100
5, 998276, Note_off_c, 3, 57, 64
5, 998280, Note_on_c, 3, 55, 98
5, 998400, Note_off_c, 3, 55, 64
5, 998400, Note_on_c, 3, 62, 86
5, 998456, Note_off_c, 3, 62, 64
5, 998460, Note_on_c, 3, 60, 104
5, 998516, Note_off_c, 3, 60, 64
5, 998520, Note_on_c, 3, 59, 97
5, 998636, Note_off_c, 3, 59, 64
5, 998640, Note_on_c, 3, 67, 127
5, 998880, Note_off_c, 3, 67, 64
5, 1000560, Note_on_c, 3, 55, 109
5, 1000796, Note_off_c, 3, 55, 64
5, 1000800, Note_on_c, 3, 43, 96
5, 1001036, Note_off_c, 3, 43, 64
5, 1001280, Note_on_c, 3, 55, 98
5, 1001640, Note_off_c, 3, 55, 64
5, 1001640, Note_on_c, 3, 54, 89
5, 1001696, Note_off_c, 3, 54, 64
5, 1001700, Note_on_c, 3, 52, 93
5, 1001756, Note_off_c, 3, 52, 64
5, 1001760, Note_on_c, 3, 54, 90
5, 1002116, Note_off_c, 3, 54, 64
5, 1002240, Note_on_c, 3, 50, 90
5, 1002476, Note_off_c, 3, 50, 64
5, 1002480, Note_on_c, 3, 51, 101
5, 1002716, Note_off_c, 3, 51, 64
5, 1002720, Note_on_c, 3, 52, 96
5, 1002960, Note_off_c, 3, 52, 64
5, 1003200, Note_on_c, 3, 63, 106
5, 1003436, Note_off_c, 3, 63, 64
5, 1003440, Note_on_c, 3, 62, 86
5, 1003556, Note_off_c, 3, 62, 64
5, 1003560, Note_on_c, 3, 61, 101
5, 1003676, Note_off_c, 3, 61, 64
5, 1003680, Note_on_c, 3, 62, 98
5, 1003920, Note_off_c, 3, 62, 64
5, 1004040, Note_on_c, 3, 60, 89
5, 1004156, Note_off_c, 3, 60, 64
5, 1004160, Note_on_c, 3, 58, 88
5, 1004276, Note_off_c, 3, 58, 64
5, 1004280, Note_on_c, 3, 57, 95
5, 1004396, Note_off_c, 3, 57, 64
5, 1004400, Note_on_c, 3, 55, 84
5, 1004460, Note_off_c, 3, 55, 64
5, 1004460, Note_on_c, 3, 54, 86
5, 1004516, Note_off_c, 3, 54, 64
5, 1004520, Note_on_c, 3, 55, 98
5, 1004636, Note_off_c, 3, 55, 64
5, 1004640, Note_on_c, 3, 48, 95
5, 1004756, Note_off_c, 3, 48, 64
5, 1004760, Note_on_c, 3, 55, 93
5, 1004876, Note_off_c, 3, 55, 64
5, 1004880, Note_on_c, 3, 60, 106
5, 1005000, Note_off_c, 3, 60, 64
5, 1005000, Note_on_c, 3, 54, 101
5, 1005060, Note_off_c, 3, 54, 64
5, 1005120, Note_on_c, 3, 54, 92
5, 1005240, Note_off_c, 3, 54, 64
5, 1005240, Note_on_c, 3, 55, 93
5, 1005296, Note_off_c, 3, 55, 64
5, 1005360, Note_on_c, 3, 55, 92
5, 1005476, Note_off_c, 3, 55, 64
5, 1005480, Note_on_c, 3, 54, 90
5, 1005596, Note_off_c, 3, 54, 64
5, 1005600, Note_on_c, 3, 55, 97
5, 1005716, Note_off_c, 3, 55, 64
5, 1005720, Note_on_c, 3, 57, 95
5, 1005836, Note_off_c, 3, 57, 64
5, 1005840, Note_on_c, 3, 50, 97
5, 1006076, Note_off_c, 3, 50, 64
5, 1006080, Note_on_c, 3, 51, 115
5, 1006316, Note_off_c, 3, 51, 64
5, 1006320, Note_on_c, 3, 46, 119
5, 1006556, Note_off_c, 3, 46, 64
5, 1006560, Note_on_c, 3, 58, 110
5, 1006676, Note_off_c, 3, 58, 64
5, 1006680, Note_on_c, 3, 60, 106
5, 1006796, Note_off_c, 3, 60, 64
5, 1006800, Note_on_c, 3, 62, 85
5, 1007036, Note_off_c, 3, 62, 64
5, 1007040, Note_on_c, 3, 62, 104
5, 1007276, Note_off_c, 3, 62, 64
5, 1007280, Note_on_c, 3, 55, 101
5, 1007516, Note_off_c, 3, 55, 64
5, 1007520, Note_on_c, 3, 46, 101
5, 1007576, Note_off_c, 3, 46, 64
5, 1007580, Note_on_c, 3, 48, 95
5, 1007636, Note_off_c, 3, 48, 64
5, 1007640, Note_on_c, 3, 50, 93
5, 1007696, Note_off_c, 3, 50, 64
5, 1007700, Note_on_c, 3, 46, 94
5, 1007756, Note_off_c, 3, 46, 64
5, 1007760, Note_on_c, 3, 43, 106
5, 1008000, Note_off_c, 3, 43, 64
5, 1008360, Note_on_c, 3, 54, 106
5, 1008476, Note_off_c, 3, 54, 64
5, 1008480, Note_on_c, 3, 55, 100
5, 1008596, Note_off_c, 3, 55, 64
5, 1008600, Note_on_c, 3, 57, 90
5, 1008716, Note_off_c, 3, 57, 64
5, 1008720, Note_on_c, 3, 58, 102
5, 1008956, Note_off_c, 3, 58, 64
5, 1008960, Note_on_c, 3, 57, 97
5, 1009196, Note_off_c, 3, 57, 64
5, 1009200, Note_on_c, 3, 55, 98
5, 1009316, Note_off_c, 3, 55, 64
5, 1009320, Note_on_c, 3, 54, 110
5, 1009556, Note_off_c, 3, 54, 64
5, 1009560, Note_on_c, 3, 52, 97
5, 1009676, Note_off_c, 3, 52, 64
5, 1009680, Note_on_c, 3, 54, 97
5, 1009736, Note_off_c, 3, 54, 64
5, 1009740, Note_on_c, 3, 57, 92
5, 1009796, Note_off_c, 3, 57, 64
5, 1009800, Note_on_c, 3, 55, 97
5, 1010036, Note_off_c, 3, 55, 64
5, 1010040, Note_on_c, 3, 54, 99
5, 1010156, Note_off_c, 3, 54, 64
5, 1010160, Note_on_c, 3, 55, 93
5, 1010276, Note_off_c, 3, 55, 64
5, 1010280, Note_on_c, 3, 57, 88
5, 1010396, Note_off_c, 3, 57, 64
5, 1010400, Note_on_c, 3, 58, 97
5, 1010516, Note_off_c, 3, 58, 64
5, 1010520, Note_on_c, 3, 57, 97
5, 1010636, Note_off_c, 3, 57, 64
5, 1010640, Note_on_c, 3, 55, 84
5, 1010696, Note_off_c, 3, 55, 64
5, 1010700, Note_on_c, 3, 57, 78
5, 1010756, Note_off_c, 3, 57, 64
5, 1010760, Note_on_c, 3, 55, 86
5, 1010876, Note_off_c, 3, 55, 64
5, 1010880, Note_on_c, 3, 53, 85
5, 1010936, Note_off_c, 3, 53, 64
5, 1010940, Note_on_c, 3, 55, 90
5, 1010996, Note_off_c, 3, 55, 64
5, 1011000, Note_on_c, 3, 53, 84
5, 1011116, Note_off_c, 3, 53, 64
5, 1011120, Note_on_c, 3, 52, 88
5, 1011236, Note_off_c, 3, 52, 64
5, 1011240, Note_on_c, 3, 53, 97
5, 1011356, Note_off_c, 3, 53, 64
5, 1011360, Note_on_c, 3, 55, 85
5, 1011476, Note_off_c, 3, 55, 64
5, 1011480, Note_on_c, 3, 52, 89
5, 1011596, Note_off_c, 3, 52, 64
5, 1011600, Note_on_c, 3, 49, 93
5, 1011716, Note_off_c, 3, 49, 64
5, 1011720, Note_on_c, 3, 50, 84
5, 1011836, Note_off_c, 3, 50, 64
5, 1011840, Note_on_c, 3, 52, 102
5, 1011956, Note_off_c, 3, 52, 64
5, 1011960, Note_on_c, 3, 49, 97
5, 1012076, Note_off_c, 3, 49, 64
5, 1012080, Note_on_c, 3, 53, 101
5, 1012136, Note_off_c, 3, 53, 64
5, 1012140, Note_on_c, 3, 52, 100
5, 1012196, Note_off_c, 3, 52, 64
5, 1012200, Note_on_c, 3, 50, 107
5, 1012316, Note_off_c, 3, 50, 64
5, 1012320, Note_on_c, 3, 55, 115
5, 1012800, Note_off_c, 3, 55, 64
5, 1012800, Note_on_c, 3, 54, 112
5, 1013036, Note_off_c, 3, 54, 64
5, 1013040, Note_on_c, 3, 58, 96
5, 1013276, Note_off_c, 3, 58, 64
5, 1013280, Note_on_c, 3, 52, 102
5, 1013516, Note_off_c, 3, 52, 64
5, 1013520, Note_on_c, 3, 57, 104
5, 1013756, Note_off_c, 3, 57, 64
5, 1013760, Note_on_c, 3, 49, 110
5, 1013996, Note_off_c, 3, 49, 64
5, 1014000, Note_on_c, 3, 50, 109
5, 1014236, Note_off_c, 3, 50, 64
5, 1014240, Note_on_c, 3, 53, 96
5, 1014356, Note_off_c, 3, 53, 64
5, 1014360, Note_on_c, 3, 52, 101
5, 1014476, Note_off_c, 3, 52, 64
5, 1014480, Note_on_c, 3, 53, 100
5, 1014716, Note_off_c, 3, 53, 64
5, 1014720, Note_on_c, 3, 57, 104
5, 1014956, Note_off_c, 3, 57, 64
5, 1014960, Note_on_c, 3, 62, 104
5, 1015076, Note_off_c, 3, 62, 64
5, 1015080, Note_on_c, 3, 60, 97
5, 1015136, Note_off_c, 3, 60, 64
5, 1015140, Note_on_c, 3, 58, 98
5, 1015200, Note_off_c, 3, 58, 64
5, 1015200, Note_on_c, 3, 57, 73
5, 1015256, Note_off_c, 3, 57, 64
5, 1015260, Note_on_c, 3, 55, 64
5, 1015316, Note_off_c, 3, 55, 64
5, 1015320, Note_on_c, 3, 57, 76
5, 1015436, Note_off_c, 3, 57, 64
5, 1015440, Note_on_c, 3, 50, 98
5, 1015676, Note_off_c, 3, 50, 64
5, 1015920, Note_on_c, 3, 55, 109
5, 1016156, Note_off_c, 3, 55, 64
5, 1016160, Note_on_c, 3, 43, 96
5, 1016396, Note_off_c, 3, 43, 64
5, 1016640, Note_on_c, 3, 55, 98
5, 1017000, Note_off_c, 3, 55, 64
5, 1017000, Note_on_c, 3, 54, 89
5, 1017056, Note_off_c, 3, 54, 64
5, 1017060, Note_on_c, 3, 52, 93
5, 1017116, Note_off_c, 3, 52, 64
5, 1017120, Note_on_c, 3, 54, 90
5, 1017476, Note_off_c, 3, 54, 64
5, 1017600, Note_on_c, 3, 50, 90
5, 1017836, Note_off_c, 3, 50, 64
5, 1017840, Note_on_c, 3, 51, 101
5, 1018076, Note_off_c, 3, 51, 64
5, 1018080, Note_on_c, 3, 52, 96
5, 1018320, Note_off_c, 3, 52, 64
5, 1018560, Note_on_c, 3, 63, 106
5, 1018796, Note_off_c, 3, 63, 64
5, 1018800, Note_on_c, 3, 62, 86
5, 1018916, Note_off_c, 3, 62, 64
5, 1018920, Note_on_c, 3, 61, 101
5, 1019036, Note_off_c, 3, 61, 64
5, 1019040, Note_on_c, 3, 62, 98
5, 1019280, Note_off_c, 3, 62, 64
5, 1019400, Note_on_c, 3, 60, 89
5, 1019516, Note_off_c, 3, 60, 64
5, 1019520, Note_on_c, 3, 58, 88
5, 1019636, Note_off_c, 3, 58, 64
5, 1019640, Note_on_c, 3, 57, 95
5, 1019756, Note_off_c, 3, 57, 64
5, 1019760, Note_on_c, 3, 55, 84
5, 1019820, Note_off_c, 3, 55, 64
5, 1019820, Note_on_c, 3, 54, 86
5, 1019876, Note_off_c, 3, 54, 64
5, 1019880, Note_on_c, 3, 55, 98
5, 1019996, Note_off_c, 3, 55, 64
5, 1020000, Note_on_c, 3, 48, 95
5, 1020116, Note_off_c, 3, 48, 64
5, 1020120, Note_on_c, 3, 55, 93
5, 1020236, Note_off_c, 3, 55, 64
5, 1020240, Note_on_c, 3, 60, 106
5, 1020360, Note_off_c, 3, 60, 64
5, 1020360, Note_on_c, 3, 54, 101
5, 1020420, Note_off_c, 3, 54, 64
5, 1020480, Note_on_c, 3, 54, 92
5, 1020600, Note_off_c, 3, 54, 64
5, 1020600, Note_on_c, 3, 55, 93
5, 1020656, Note_off_c, 3, 55, 64
5, 1020720, Note_on_c, 3, 55, 92
5, 1020836, Note_off_c, 3, 55, 64
5, 1020840, Note_on_c, 3, 54, 90
5, 1020956, Note_off_c, 3, 54, 64
5, 1020960, Note_on_c, 3, 55, 97
5, 1021076, Note_off_c, 3, 55, 64
5, 1021080, Note_on_c, 3, 57, 95
5, 1021196, Note_off_c, 3, 57, 64
5, 1021200, Note_on_c, 3, 50, 97
5, 1021436, Note_off_c, 3, 50, 64
5, 1021440, Note_on_c, 3, 51, 115
5, 1021676, Note_off_c, 3, 51, 64
5, 1021680, Note_on_c, 3, 46, 119
5, 1021916, Note_off_c, 3, 46, 64
5, 1021920, Note_on_c, 3, 58, 110
5, 1022036, Note_off_c, 3, 58, 64
5, 1022040, Note_on_c, 3, 60, 106
5, 1022156, Note_off_c, 3, 60, 64
5, 1022160, Note_on_c, 3, 62, 85
5, 1022396, Note_off_c, 3, 62, 64
5, 1022400, Note_on_c, 3, 62, 104
5, 1022636, Note_off_c, 3, 62, 64
5, 1022640, Note_on_c, 3, 55, 101
5, 1022876, Note_off_c, 3, 55, 64
5, 1022880, Note_on_c, 3, 46, 101
5, 1022936, Note_off_c, 3, 46, 64
5, 1022940, Note_on_c, 3, 48, 95
5, 1022996, Note_off_c, 3, 48, 64
5, 1023000, Note_on_c, 3, 50, 93
5, 1023056, Note_off_c, 3, 50, 64
5, 1023060, Note_on_c, 3, 46, 94
5, 1023116, Note_off_c, 3, 46, 64
5, 1023120, Note_on_c, 3, 43, 106
5, 1023360, Note_off_c, 3, 43, 64
5, 1023720, Note_on_c, 3, 54, 106
5, 1023836, Note_off_c, 3, 54, 64
5, 1023840, Note_on_c, 3, 55, 100
5, 1023956, Note_off_c, 3, 55, 64
5, 1023960, Note_on_c, 3, 57, 90
5, 1024076, Note_off_c, 3, 57, 64
5, 1024080, Note_on_c, 3, 58, 102
5, 1024316, Note_off_c, 3, 58, 64
5, 1024320, Note_on_c, 3, 57, 97
5, 1024556, Note_off_c, 3, 57, 64
5, 1024560, Note_on_c, 3, 55, 98
5, 1024676, Note_off_c, 3, 55, 64
5, 1024680, Note_on_c, 3, 54, 110
5, 1024916, Note_off_c, 3, 54, 64
5, 1024920, Note_on_c, 3, 52, 97
5, 1025036, Note_off_c, 3, 52, 64
5, 1025040, Note_on_c, 3, 54, 97
5, 1025096, Note_off_c, 3, 54, 64
5, 1025100, Note_on_c, 3, 57, 92
5, 1025156, Note_off_c, 3, 57, 64
5, 1025160, Note_on_c, 3, 55, 97
5, 1025396, Note_off_c, 3, 55, 64
5, 1025400, Note_on_c, 3, 54, 99
5, 1025516, Note_off_c, 3, 54, 64
5, 1025520, Note_on_c, 3, 55, 93
5, 1025636, Note_off_c, 3, 55, 64
5, 1025640, Note_on_c, 3, 57, 88
5, 1025756, Note_off_c, 3, 57, 64
5, 1025760, Note_on_c, 3, 58, 97
5, 1025876, Note_off_c, 3, 58, 64
5, 1025880, Note_on_c, 3, 57, 97
5, 1025996, Note_off_c, 3, 57, 64
5, 1026000, Note_on_c, 3, 55, 84
5, 1026056, Note_off_c, 3, 55, 64
5, 1026060, Note_on_c, 3, 57, 78
5, 1026116, Note_off_c, 3, 57, 64
5, 1026120, Note_on_c, 3, 55, 86
5, 1026236, Note_off_c, 3, 55, 64
5, 1026240, Note_on_c, 3, 53, 85
5, 1026296, Note_off_c, 3, 53, 64
5, 1026300, Note_on_c, 3, 55, 90
5, 1026356, Note_off_c, 3, 55, 64
5, 1026360, Note_on_c, 3, 53, 84
5, 1026476, Note_off_c, 3, 53, 64
5, 1026480, Note_on_c, 3, 52, 88
5, 1026596, Note_off_c, 3, 52, 64
5, 1026600, Note_on_c, 3, 53, 97
5, 1026716, Note_off_c, 3, 53, 64
5, 1026720, Note_on_c, 3, 55, 85
5, 1026836, Note_off_c, 3, 55, 64
5, 1026840, Note_on_c, 3, 52, 89
5, 1026956, Note_off_c, 3, 52, 64
5, 1026960, Note_on_c, 3, 49, 93
5, 1027076, Note_off_c, 3, 49, 64
5, 1027080, Note_on_c, 3, 50, 84
5, 1027196, Note_off_c, 3, 50, 64
5, 1027200, Note_on_c, 3, 52, 102
5, 1027316, Note_off_c, 3, 52, 64
5, 1027320, Note_on_c, 3, 49, 97
5, 1027436, Note_off_c, 3, 49, 64
5, 1027440, Note_on_c, 3, 53, 101
5, 1027496, Note_off_c, 3, 53, 64
5, 1027500, Note_on_c, 3, 52, 100
5, 1027556, Note_off_c, 3, 52, 64
5, 1027560, Note_on_c, 3, 50, 107
5, 1027676, Note_off_c, 3, 50, 64
5, 1027680, Note_on_c, 3, 55, 115
5, 1028160, Note_off_c, 3, 55, 64
5, 1028160, Note_on_c, 3, 54, 112
5, 1028396, Note_off_c, 3, 54, 64
5, 1028400, Note_on_c, 3, 58, 96
5, 1028636, Note_off_c, 3, 58, 64
5, 1028640, Note_on_c, 3, 52, 102
5, 1028876, Note_off_c, 3, 52, 64
5, 1028880, Note_on_c, 3, 57, 104
5, 1029116, Note_off_c, 3, 57, 64
5, 1029120, Note_on_c, 3, 49, 110
5, 1029356, Note_off_c, 3, 49, 64
5, 1029360, Note_on_c, 3, 50, 109
5, 1029596, Note_off_c, 3, 50, 64
5, 1029600, Note_on_c, 3, 53, 96
5, 1029716, Note_off_c, 3, 53, 64
5, 1029720, Note_on_c, 3, 52, 101
5, 1029836, Note_off_c, 3, 52, 64
5, 1029840, Note_on_c, 3, 53, 100
5, 1030076, Note_off_c, 3, 53, 64
5, 1030080, Note_on_c, 3, 57, 104
5, 1030316, Note_off_c, 3, 57, 64
5, 1030320, Note_on_c, 3, 62, 104
5, 1030436, Note_off_c, 3, 62, 64
5, 1030440, Note_on_c, 3, 60, 97
5, 1030496, Note_off_c, 3, 60, 64
5, 1030500, Note_on_c, 3, 58, 98
5, 1030560, Note_off_c, 3, 58, 64
5, 1030560, Note_on_c, 3, 57, 73
5, 1030616, Note_off_c, 3, 57, 64
5, 1030620, Note_on_c, 3, 55, 64
5, 1030676, Note_off_c, 3, 55, 64
5, 1030680, Note_on_c, 3, 57, 76
5, 1030796, Note_off_c, 3, 57, 64
5, 1030800, Note_on_c, 3, 50, 98
5, 1031036, Note_off_c, 3, 50, 64
5, 1031280, Note_on_c, 3, 50, 100
5, 1031396, Note_off_c, 3, 50, 64
5, 1031400, Note_on_c, 3, 63, 99
5, 1031456, Note_off_c, 3, 63, 64
5, 1031520, Note_on_c, 3, 63, 102
5, 1031636, Note_off_c, 3, 63, 64
5, 1031640, Note_on_c, 3, 62, 96
5, 1031696, Note_off_c, 3, 62, 64
5, 1031760, Note_on_c, 3, 62, 81
5, 1031876, Note_off_c, 3, 62, 64
5, 1031880, Note_on_c, 3, 60, 81
5, 1031936, Note_off_c, 3, 60, 64
5, 1032000, Note_on_c, 3, 60, 77
5, 1032116, Note_off_c, 3, 60, 64
5, 1032120, Note_on_c, 3, 58, 71
5, 1032176, Note_off_c, 3, 58, 64
5, 1032240, Note_on_c, 3, 58, 81
5, 1032356, Note_off_c, 3, 58, 64
5, 1032360, Note_on_c, 3, 54, 86
5, 1032416, Note_off_c, 3, 54, 64
5, 1032480, Note_on_c, 3, 54, 86
5, 1032596, Note_off_c, 3, 54, 64
5, 1032600, Note_on_c, 3, 55, 80
5, 1032656, Note_off_c, 3, 55, 64
5, 1032720, Note_on_c, 3, 55, 90
5, 1032836, Note_off_c, 3, 55, 64
5, 1032840, Note_on_c, 3, 50, 82
5, 1032956, Note_off_c, 3, 50, 64
5, 1032960, Note_on_c, 3, 50, 90
5, 1033316, Note_off_c, 3, 50, 64
5, 1033320, Note_on_c, 3, 48, 95
5, 1033376, Note_off_c, 3, 48, 64
5, 1033380, Note_on_c, 3, 46, 84
5, 1033436, Note_off_c, 3, 46, 64
5, 1033440, Note_on_c, 3, 48, 93
5, 1033556, Note_off_c, 3, 48, 64
5, 1033560, Note_on_c, 3, 41, 84
5, 1033676, Note_off_c, 3, 41, 64
5, 1033680, Note_on_c, 3, 53, 84
5, 1033796, Note_off_c, 3, 53, 64
5, 1033800, Note_on_c, 3, 46, 76
5, 1033916, Note_off_c, 3, 46, 64
5, 1033920, Note_on_c, 3, 51, 85
5, 1034276, Note_off_c, 3, 51, 64
5, 1034280, Note_on_c, 3, 50, 85
5, 1034336, Note_off_c, 3, 50, 64
5, 1034340, Note_on_c, 3, 48, 73
5, 1034396, Note_off_c, 3, 48, 64
5, 1034400, Note_on_c, 3, 50, 89
5, 1034456, Note_off_c, 3, 50, 64
5, 1034460, Note_on_c, 3, 48, 75
5, 1034516, Note_off_c, 3, 48, 64
5, 1034520, Note_on_c, 3, 46, 81
5, 1034636, Note_off_c, 3, 46, 64
5, 1034640, Note_on_c, 3, 51, 101
5, 1034756, Note_off_c, 3, 51, 64
5, 1034760, Note_on_c, 3, 43, 83
5, 1034876, Note_off_c, 3, 43, 64
5, 1034880, Note_on_c, 3, 44, 89
5, 1034996, Note_off_c, 3, 44, 64
5, 1035000, Note_on_c, 3, 46, 89
5, 1035116, Note_off_c, 3, 46, 64
5, 1035120, Note_on_c, 3, 39, 81
5, 1035236, Note_off_c, 3, 39, 64
5, 1035240, Note_on_c, 3, 43, 86
5, 1035356, Note_off_c, 3, 43, 64
5, 1035360, Note_on_c, 3, 48, 92
5, 1035476, Note_off_c, 3, 48, 64
5, 1035480, Note_on_c, 3, 46, 84
5, 1035596, Note_off_c, 3, 46, 64
5, 1035600, Note_on_c, 3, 44, 84
5, 1035716, Note_off_c, 3, 44, 64
5, 1035720, Note_on_c, 3, 43, 98
5, 1035836, Note_off_c, 3, 43, 64
5, 1035840, Note_on_c, 3, 44, 84
5, 1036200, Note_off_c, 3, 44, 64
5, 1036200, Note_on_c, 3, 56, 93
5, 1036316, Note_off_c, 3, 56, 64
5, 1036320, Note_on_c, 3, 58, 96
5, 1036436, Note_off_c, 3, 58, 64
5, 1036440, Note_on_c, 3, 56, 90
5, 1036556, Note_off_c, 3, 56, 64
5, 1036560, Note_on_c, 3, 55, 85
5, 1036676, Note_off_c, 3, 55, 64
5, 1036680, Note_on_c, 3, 53, 80
5, 1036796, Note_off_c, 3, 53, 64
5, 1036800, Note_on_c, 3, 51, 81
5, 1036916, Note_off_c, 3, 51, 64
5, 1036920, Note_on_c, 3, 53, 88
5, 1037036, Note_off_c, 3, 53, 64
5, 1037040, Note_on_c, 3, 55, 92
5, 1037156, Note_off_c, 3, 55, 64
5, 1037160, Note_on_c, 3, 56, 84
5, 1037276, Note_off_c, 3, 56, 64
5, 1037280, Note_on_c, 3, 58, 89
5, 1037516, Note_off_c, 3, 58, 64
5, 1037520, Note_on_c, 3, 46, 86
5, 1037876, Note_off_c, 3, 46, 64
5, 1037880, Note_on_c, 3, 56, 89
5, 1037996, Note_off_c, 3, 56, 64
5, 1038000, Note_on_c, 3, 55, 104
5, 1038116, Note_off_c, 3, 55, 64
5, 1038120, Note_on_c, 3, 53, 97
5, 1038176, Note_off_c, 3, 53, 64
5, 1038240, Note_on_c, 3, 53, 86
5, 1038356, Note_off_c, 3, 53, 64
5, 1038360, Note_on_c, 3, 51, 93
5, 1038476, Note_off_c, 3, 51, 64
5, 1038480, Note_on_c, 3, 53, 101
5, 1038596, Note_off_c, 3, 53, 64
5, 1038600, Note_on_c, 3, 55, 93
5, 1038656, Note_off_c, 3, 55, 64
5, 1038720, Note_on_c, 3, 55, 90
5, 1038836, Note_off_c, 3, 55, 64
5, 1038840, Note_on_c, 3, 56, 82
5, 1038956, Note_off_c, 3, 56, 64
5, 1038960, Note_on_c, 3, 48, 97
5, 1039196, Note_off_c, 3, 48, 64
5, 1039200, Note_on_c, 3, 47, 96
5, 1039436, Note_off_c, 3, 47, 64
5, 1039560, Note_on_c, 3, 45, 92
5, 1039676, Note_off_c, 3, 45, 64
5, 1039680, Note_on_c, 3, 47, 86
5, 1039796, Note_off_c, 3, 47, 64
5, 1039800, Note_on_c, 3, 43, 92
5, 1039916, Note_off_c, 3, 43, 64
5, 1039920, Note_on_c, 3, 48, 96
5, 1040160, Note_off_c, 3, 48, 64
5, 1040160, Note_on_c, 3, 60, 96
5, 1040400, Note_off_c, 3, 60, 64
5, 1040640, Note_on_c, 3, 48, 97
5, 1040996, Note_off_c, 3, 48, 64
5, 1041000, Note_on_c, 3, 62, 89
5, 1041116, Note_off_c, 3, 62, 64
5, 1041120, Note_on_c, 3, 63, 93
5, 1041236, Note_off_c, 3, 63, 64
5, 1041240, Note_on_c, 3, 62, 104
5, 1041356, Note_off_c, 3, 62, 64
5, 1041360, Note_on_c, 3, 57, 84
5, 1041476, Note_off_c, 3, 57, 64
5, 1041480, Note_on_c, 3, 58, 90
5, 1041596, Note_off_c, 3, 58, 64
5, 1041600, Note_on_c, 3, 60, 88
5, 1041716, Note_off_c, 3, 60, 64
5, 1041720, Note_on_c, 3, 55, 84
5, 1041836, Note_off_c, 3, 55, 64
5, 1041840, Note_on_c, 3, 55, 90
5, 1042076, Note_off_c, 3, 55, 64
5, 1042080, Note_on_c, 3, 54, 97
5, 1042196, Note_off_c, 3, 54, 64
5, 1042200, Note_on_c, 3, 55, 93
5, 1042316, Note_off_c, 3, 55, 64
5, 1042320, Note_on_c, 3, 57, 93
5, 1042436, Note_off_c, 3, 57, 64
5, 1042440, Note_on_c, 3, 58, 88
5, 1042496, Note_off_c, 3, 58, 64
5, 1042500, Note_on_c, 3, 60, 78
5, 1042556, Note_off_c, 3, 60, 64
5, 1042560, Note_on_c, 3, 62, 80
5, 1042616, Note_off_c, 3, 62, 64
5, 1042620, Note_on_c, 3, 63, 84
5, 1042676, Note_off_c, 3, 63, 64
5, 1042680, Note_on_c, 3, 60, 96
5, 1042800, Note_off_c, 3, 60, 64
5, 1042800, Note_on_c, 3, 58, 99
5, 1042856, Note_off_c, 3, 58, 64
5, 1042860, Note_on_c, 3, 62, 92
5, 1042916, Note_off_c, 3, 62, 64
5, 1042920, Note_on_c, 3, 60, 95
5, 1043036, Note_off_c, 3, 60, 64
5, 1043040, Note_on_c, 3, 58, 77
5, 1043096, Note_off_c, 3, 58, 64
5, 1043100, Note_on_c, 3, 60, 74
5, 1043156, Note_off_c, 3, 60, 64
5, 1043160, Note_on_c, 3, 57, 76
5, 1043276, Note_off_c, 3, 57, 64
5, 1043280, Note_on_c, 3, 55, 73
5, 1043336, Note_off_c, 3, 55, 64
5, 1043340, Note_on_c, 3, 57, 74
5, 1043396, Note_off_c, 3, 57, 64
5, 1043400, Note_on_c, 3, 53, 78
5, 1043520, Note_off_c, 3, 53, 64
5, 1043520, Note_on_c, 3, 51, 90
5, 1043576, Note_off_c, 3, 51, 64
5, 1043580, Note_on_c, 3, 53, 92
5, 1043636, Note_off_c, 3, 53, 64
5, 1043640, Note_on_c, 3, 50, 68
5, 1043756, Note_off_c, 3, 50, 64
5, 1043760, Note_on_c, 3, 48, 93
5, 1043876, Note_off_c, 3, 48, 64
5, 1043880, Note_on_c, 3, 51, 93
5, 1043936, Note_off_c, 3, 51, 64
5, 1043940, Note_on_c, 3, 50, 86
5, 1043996, Note_off_c, 3, 50, 64
5, 1044000, Note_on_c, 3, 51, 86
5, 1044116, Note_off_c, 3, 51, 64
5, 1044120, Note_on_c, 3, 42, 108
5, 1044236, Note_off_c, 3, 42, 64
5, 1044240, Note_on_c, 3, 43, 106
5, 1044480, Note_off_c, 3, 43, 64
5, 1044600, Note_on_c, 3, 48, 95
5, 1044716, Note_off_c, 3, 48, 64
5, 1044720, Note_on_c, 3, 50, 91
5, 1044960, Note_off_c, 3, 50, 64
5, 1045080, Note_on_c, 3, 51, 94
5, 1045196, Note_off_c, 3, 51, 64
5, 1045200, Note_on_c, 3, 48, 98
5, 1045436, Note_off_c, 3, 48, 64
5, 1045440, Note_on_c, 3, 50, 91
5, 1045676, Note_off_c, 3, 50, 64
5, 1045680, Note_on_c, 3, 55, 85
5, 1045796, Note_off_c, 3, 55, 64
5, 1045800, Note_on_c, 3, 50, 86
5, 1045856, Note_off_c, 3, 50, 64
5, 1045860, Note_on_c, 3, 48, 76
5, 1045916, Note_off_c, 3, 48, 64
5, 1045920, Note_on_c, 3, 46, 70
5, 1045976, Note_off_c, 3, 46, 64
5, 1045980, Note_on_c, 3, 48, 86
5, 1046036, Note_off_c, 3, 48, 64
5, 1046040, Note_on_c, 3, 45, 81
5, 1046156, Note_off_c, 3, 45, 64
5, 1046160, Note_on_c, 3, 43, 82
5, 1046640, Note_off_c, 3, 43, 64
5, 1046640, Note_on_c, 3, 50, 100
5, 1046756, Note_off_c, 3, 50, 64
5, 1046760, Note_on_c, 3, 63, 99
5, 1046816, Note_off_c, 3, 63, 64
5, 1046880, Note_on_c, 3, 63, 102
5, 1046996, Note_off_c, 3, 63, 64
5, 1047000, Note_on_c, 3, 62, 96
5, 1047056, Note_off_c, 3, 62, 64
5, 1047120, Note_on_c, 3, 62, 81
5, 1047236, Note_off_c, 3, 62, 64
5, 1047240, Note_on_c, 3, 60, 81
5, 1047296, Note_off_c, 3, 60, 64
5, 1047360, Note_on_c, 3, 60, 77
5, 1047476, Note_off_c, 3, 60, 64
5, 1047480, Note_on_c, 3, 58, 71
5, 1047536, Note_off_c, 3, 58, 64
5, 1047600, Note_on_c, 3, 58, 81
5, 1047716, Note_off_c, 3, 58, 64
5, 1047720, Note_on_c, 3, 54, 86
5, 1047776, Note_off_c, 3, 54, 64
5, 1047840, Note_on_c, 3, 54, 86
5, 1047956, Note_off_c, 3, 54, 64
5, 1047960, Note_on_c, 3, 55, 80
5, 1048016, Note_off_c, 3, 55, 64
5, 1048080, Note_on_c, 3, 55, 90
5, 1048196, Note_off_c, 3, 55, 64
5, 1048200, Note_on_c, 3, 50, 82
5, 1048316, Note_off_c, 3, 50, 64
5, 1048320, Note_on_c, 3, 50, 90
5, 1048676, Note_off_c, 3, 50, 64
5, 1048680, Note_on_c, 3, 48, 95
5, 1048736, Note_off_c, 3, 48, 64
5, 1048740, Note_on_c, 3, 46, 84
5, 1048796, Note_off_c, 3, 46, 64
5, 1048800, Note_on_c, 3, 48, 93
5, 1048916, Note_off_c, 3, 48, 64
5, 1048920, Note_on_c, 3, 41, 84
5, 1049036, Note_off_c, 3, 41, 64
5, 1049040, Note_on_c, 3, 53, 84
5, 1049156, Note_off_c, 3, 53, 64
5, 1049160, Note_on_c, 3, 46, 76
5, 1049276, Note_off_c, 3, 46, 64
5, 1049280, Note_on_c, 3, 51, 85
5, 1049636, Note_off_c, 3, 51, 64
5, 1049640, Note_on_c, 3, 50, 85
5, 1049696, Note_off_c, 3, 50, 64
5, 1049700, Note_on_c, 3, 48, 73
5, 1049756, Note_off_c, 3, 48, 64
5, 1049760, Note_on_c, 3, 50, 89
5, 1049816, Note_off_c, 3, 50, 64
5, 1049820, Note_on_c, 3, 48, 75
5, 1049876, Note_off_c, 3, 48, 64
5, 1049880, Note_on_c, 3, 46, 81
5, 1049996, Note_off_c, 3, 46, 64
5, 1050000, Note_on_c, 3, 51, 101
5, 1050116, Note_off_c, 3, 51, 64
5, 1050120, Note_on_c, 3, 43, 83
5, 1050236, Note_off_c, 3, 43, 64
5, 1050240, Note_on_c, 3, 44, 89
5, 1050356, Note_off_c, 3, 44, 64
5, 1050360, Note_on_c, 3, 46, 89
5, 1050476, Note_off_c, 3, 46, 64
5, 1050480, Note_on_c, 3, 39, 81
5, 1050596, Note_off_c, 3, 39, 64
5, 1050600, Note_on_c, 3, 43, 86
5, 1050716, Note_off_c, 3, 43, 64
5, 1050720, Note_on_c, 3, 48, 92
5, 1050836, Note_off_c, 3, 48, 64
5, 1050840, Note_on_c, 3, 46, 84
5, 1050956, Note_off_c, 3, 46, 64
5, 1050960, Note_on_c, 3, 44, 84
5, 1051076, Note_off_c, 3, 44, 64
5, 1051080, Note_on_c, 3, 43, 98
5, 1051196, Note_off_c, 3, 43, 64
5, 1051200, Note_on_c, 3, 44, 84
5, 1051560, Note_off_c, 3, 44, 64
5, 1051560, Note_on_c, 3, 56, 93
5, 1051676, Note_off_c, 3, 56, 64
5, 1051680, Note_on_c, 3, 58, 96
5, 1051796, Note_off_c, 3, 58, 64
5, 1051800, Note_on_c, 3, 56, 90
5, 1051916, Note_off_c, 3, 56, 64
5, 1051920, Note_on_c, 3, 55, 85
5, 1052036, Note_off_c, 3, 55, 64
5, 1052040, Note_on_c, 3, 53, 80
5, 1052156, Note_off_c, 3, 53, 64
5, 1052160, Note_on_c, 3, 51, 81
5, 1052276, Note_off_c, 3, 51, 64
5, 1052280, Note_on_c, 3, 53, 88
5, 1052396, Note_off_c, 3, 53, 64
5, 1052400, Note_on_c, 3, 55, 92
5, 1052516, Note_off_c, 3, 55, 64
5, 1052520, Note_on_c, 3, 56, 84
5, 1052636, Note_off_c, 3, 56, 64
5, 1052640, Note_on_c, 3, 58, 89
5, 1052876, Note_off_c, 3, 58, 64
5, 1052880, Note_on_c, 3, 46, 86
5, 1053236, Note_off_c, 3, 46, 64
5, 1053240, Note_on_c, 3, 56, 89
5, 1053356, Note_off_c, 3, 56, 64
5, 1053360, Note_on_c, 3, 55, 104
5, 1053476, Note_off_c, 3, 55, 64
5, 1053480, Note_on_c, 3, 53, 97
5, 1053536, Note_off_c, 3, 53, 64
5, 1053600, Note_on_c, 3, 53, 86
5, 1053716, Note_off_c, 3, 53, 64
5, 1053720, Note_on_c, 3, 51, 93
5, 1053836, Note_off_c, 3, 51, 64
5, 1053840, Note_on_c, 3, 53, 101
5, 1053956, Note_off_c, 3, 53, 64
5, 1053960, Note_on_c, 3, 55, 93
5, 1054016, Note_off_c, 3, 55, 64
5, 1054080, Note_on_c, 3, 55, 90
5, 1054196, Note_off_c, 3, 55, 64
5, 1054200, Note_on_c, 3, 56, 82
5, 1054316, Note_off_c, 3, 56, 64
5, 1054320, Note_on_c, 3, 48, 97
5, 1054556, Note_off_c, 3, 48, 64
5, 1054560, Note_on_c, 3, 47, 96
5, 1054796, Note_off_c, 3, 47, 64
5, 1054920, Note_on_c, 3, 45, 92
5, 1055036, Note_off_c, 3, 45, 64
5, 1055040, Note_on_c, 3, 47, 86
5, 1055156, Note_off_c, 3, 47, 64
5, 1055160, Note_on_c, 3, 43, 92
5, 1055276, Note_off_c, 3, 43, 64
5, 1055280, Note_on_c, 3, 48, 96
5, 1055520, Note_off_c, 3, 48, 64
5, 1055520, Note_on_c, 3, 60, 96
5, 1055760, Note_off_c, 3, 60, 64
5, 1056000, Note_on_c, 3, 48, 97
5, 1056356, Note_off_c, 3, 48, 64
5, 1056360, Note_on_c, 3, 62, 89
5, 1056476, Note_off_c, 3, 62, 64
5, 1056480, Note_on_c, 3, 63, 93
5, 1056596, Note_off_c, 3, 63, 64
5, 1056600, Note_on_c, 3, 62, 104
5, 1056716, Note_off_c, 3, 62, 64
5, 1056720, Note_on_c, 3, 57, 84
5, 1056836, Note_off_c, 3, 57, 64
5, 1056840, Note_on_c, 3, 58, 90
5, 1056956, Note_off_c, 3, 58, 64
5, 1056960, Note_on_c, 3, 60, 88
5, 1057076, Note_off_c, 3, 60, 64
5, 1057080, Note_on_c, 3, 55, 84
5, 1057196, Note_off_c, 3, 55, 64
5, 1057200, Note_on_c, 3, 55, 90
5, 1057436, Note_off_c, 3, 55, 64
5, 1057440, Note_on_c, 3, 54, 97
5, 1057556, Note_off_c, 3, 54, 64
5, 1057560, Note_on_c, 3, 55, 93
5, 1057676, Note_off_c, 3, 55, 64
5, 1057680, Note_on_c, 3, 57, 93
5, 1057796, Note_off_c, 3, 57, 64
5, 1057800, Note_on_c, 3, 58, 88
5, 1057856, Note_off_c, 3, 58, 64
5, 1057860, Note_on_c, 3, 60, 78
5, 1057916, Note_off_c, 3, 60, 64
5, 1057920, Note_on_c, 3, 62, 80
5, 1057976, Note_off_c, 3, 62, 64
5, 1057980, Note_on_c, 3, 63, 84
5, 1058036, Note_off_c, 3, 63, 64
5, 1058040, Note_on_c, 3, 60, 96
5, 1058160, Note_off_c, 3, 60, 64
5, 1058160, Note_on_c, 3, 58, 99
5, 1058216, Note_off_c, 3, 58, 64
5, 1058220, Note_on_c, 3, 62, 92
5, 1058276, Note_off_c, 3, 62, 64
5, 1058280, Note_on_c, 3, 60, 95
5, 1058396, Note_off_c, 3, 60, 64
5, 1058400, Note_on_c, 3, 58, 77
5, 1058456, Note_off_c, 3, 58, 64
5, 1058460, Note_on_c, 3, 60, 74
5, 1058516, Note_off_c, 3, 60, 64
5, 1058520, Note_on_c, 3, 57, 76
5, 1058636, Note_off_c, 3, 57, 64
5, 1058640, Note_on_c, 3, 55, 73
5, 1058696, Note_off_c, 3, 55, 64
5, 1058700, Note_on_c, 3, 57, 74
5, 1058756, Note_off_c, 3, 57, 64
5, 1058760, Note_on_c, 3, 53, 78
5, 1058880, Note_off_c, 3, 53, 64
5, 1058880, Note_on_c, 3, 51, 90
5, 1058936, Note_off_c, 3, 51, 64
5, 1058940, Note_on_c, 3, 53, 92
5, 1058996, Note_off_c, 3, 53, 64
5, 1059000, Note_on_c, 3, 50, 68
5, 1059116, Note_off_c, 3, 50, 64
5, 1059120, Note_on_c, 3, 48, 93
5, 1059236, Note_off_c, 3, 48, 64
5, 1059240, Note_on_c, 3, 51, 93
5, 1059296, Note_off_c, 3, 51, 64
5, 1059300, Note_on_c, 3, 50, 86
5, 1059356, Note_off_c, 3, 50, 64
5, 1059360, Note_on_c, 3, 51, 86
5, 1059476, Note_off_c, 3, 51, 64
5, 1059480, Note_on_c, 3, 42, 108
5, 1059596, Note_off_c, 3, 42, 64
5, 1059600, Note_on_c, 3, 43, 106
5, 1059840, Note_off_c, 3, 43, 64
5, 1059960, Note_on_c, 3, 48, 95
5, 1060076, Note_off_c, 3, 48, 64
5, 1060080, Note_on_c, 3, 50, 91
5, 1060320, Note_off_c, 3, 50, 64
5, 1060440, Note_on_c, 3, 51, 94
5, 1060556, Note_off_c, 3, 51, 64
5, 1060560, Note_on_c, 3, 48, 98
5, 1060796, Note_off_c, 3, 48, 64
5, 1060800, Note_on_c, 3, 50, 91
5, 1061036, Note_off_c, 3, 50, 64
5, 1061040, Note_on_c, 3, 55, 85
5, 1061156, Note_off_c, 3, 55, 64
5, 1061160, Note_on_c, 3, 50, 86
5, 1061216, Note_off_c, 3, 50, 64
5, 1061220, Note_on_c, 3, 48, 76
5, 1061276, Note_off_c, 3, 48, 64
5, 1061280, Note_on_c, 3, 46, 70
5, 1061336, Note_off_c, 3, 46, 64
5, 1061340, Note_on_c, 3, 48, 86
5, 1061396, Note_off_c, 3, 48, 64
5, 1061400, Note_on_c, 3, 45, 81
5, 1061516, Note_off_c, 3, 45, 64
5, 1061520, Note_on_c, 3, 43, 82
5, 1062000, Note_off_c, 3, 43, 64
5, 1062000, Note_on_c, 3, 43, 113
5, 1062960, Note_off_c, 3, 43, 64
5, 1063800, Note_on_c, 3, 55, 107
5, 1063916, Note_off_c, 3, 55, 64
5, 1063920, Note_on_c, 3, 54, 96
5, 1064456, Note_off_c, 3, 54, 64
5, 1064460, Note_on_c, 3, 50, 71
5, 1064516, Note_off_c, 3, 50, 64
5, 1064520, Note_on_c, 3, 52, 95
5, 1064576, Note_off_c, 3, 52, 64
5, 1064580, Note_on_c, 3, 54, 102
5, 1064636, Note_off_c, 3, 54, 64
5, 1064640, Note_on_c, 3, 55, 85
5, 1064696, Note_off_c, 3, 55, 64
5, 1064700, Note_on_c, 3, 57, 70
5, 1064756, Note_off_c, 3, 57, 64
5, 1064760, Note_on_c, 3, 59, 88
5, 1064816, Note_off_c, 3, 59, 64
5, 1064820, Note_on_c, 3, 60, 90
5, 1064876, Note_off_c, 3, 60, 64
5, 1064880, Note_on_c, 3, 62, 107
5, 1065240, Note_off_c, 3, 62, 64
5, 1065240, Note_on_c, 3, 57, 91
5, 1065356, Note_off_c, 3, 57, 64
5, 1065360, Note_on_c, 3, 54, 106
5, 1065716, Note_off_c, 3, 54, 64
5, 1065720, Note_on_c, 3, 50, 90
5, 1065836, Note_off_c, 3, 50, 64
5, 1065840, Note_on_c, 3, 52, 106
5, 1066556, Note_off_c, 3, 52, 64
5, 1066560, Note_on_c, 3, 55, 104
5, 1066796, Note_off_c, 3, 55, 64
5, 1066800, Note_on_c, 3, 54, 102
5, 1066916, Note_off_c, 3, 54, 64
5, 1066920, Note_on_c, 3, 52, 88
5, 1066980, Note_off_c, 3, 52, 64
5, 1066980, Note_on_c, 3, 54, 82
5, 1067036, Note_off_c, 3, 54, 64
5, 1067040, Note_on_c, 3, 52, 83
5, 1067520, Note_off_c, 3, 52, 64
5, 1067580, Note_on_c, 3, 50, 97
5, 1067640, Note_off_c, 3, 50, 64
5, 1067640, Note_on_c, 3, 52, 101
5, 1067700, Note_off_c, 3, 52, 64
5, 1067700, Note_on_c, 3, 54, 102
5, 1067760, Note_off_c, 3, 54, 64
5, 1067760, Note_on_c, 3, 50, 106
5, 1068120, Note_off_c, 3, 50, 64
5, 1068120, Note_on_c, 3, 60, 100
5, 1068176, Note_off_c, 3, 60, 64
5, 1068180, Note_on_c, 3, 59, 96
5, 1068236, Note_off_c, 3, 59, 64
5, 1068240, Note_on_c, 3, 60, 115
5, 1068596, Note_off_c, 3, 60, 64
5, 1068600, Note_on_c, 3, 57, 106
5, 1068716, Note_off_c, 3, 57, 64
5, 1068720, Note_on_c, 3, 54, 97
5, 1069076, Note_off_c, 3, 54, 64
5, 1069080, Note_on_c, 3, 64, 106
5, 1069196, Note_off_c, 3, 64, 64
5, 1069200, Note_on_c, 3, 62, 97
5, 1069560, Note_off_c, 3, 62, 64
5, 1069560, Note_on_c, 3, 60, 86
5, 1069680, Note_off_c, 3, 60, 64
5, 1069680, Note_on_c, 3, 60, 96
5, 1069796, Note_off_c, 3, 60, 64
5, 1069800, Note_on_c, 3, 59, 81
5, 1069856, Note_off_c, 3, 59, 64
5, 1069860, Note_on_c, 3, 60, 81
5, 1069916, Note_off_c, 3, 60, 64
5, 1069920, Note_on_c, 3, 59, 81
5, 1070400, Note_off_c, 3, 59, 64
5, 1070400, Note_on_c, 3, 59, 96
5, 1070640, Note_off_c, 3, 59, 64
5, 1070640, Note_on_c, 3, 59, 97
5, 1070880, Note_off_c, 3, 59, 64
5, 1070940, Note_on_c, 3, 60, 89
5, 1071000, Note_off_c, 3, 60, 64
5, 1071000, Note_on_c, 3, 59, 89
5, 1071060, Note_off_c, 3, 59, 64
5, 1071060, Note_on_c, 3, 57, 80
5, 1071120, Note_off_c, 3, 57, 64
5, 1071120, Note_on_c, 3, 59, 101
5, 1071476, Note_off_c, 3, 59, 64
5, 1071480, Note_on_c, 3, 55, 92
5, 1071596, Note_off_c, 3, 55, 64
5, 1071600, Note_on_c, 3, 60, 101
5, 1071656, Note_off_c, 3, 60, 64
5, 1071660, Note_on_c, 3, 59, 91
5, 1071716, Note_off_c, 3, 59, 64
5, 1071720, Note_on_c, 3, 60, 92
5, 1072200, Note_off_c, 3, 60, 64
5, 1072380, Note_on_c, 3, 62, 86
5, 1072440, Note_off_c, 3, 62, 64
5, 1072440, Note_on_c, 3, 60, 83
5, 1072500, Note_off_c, 3, 60, 64
5, 1072500, Note_on_c, 3, 59, 84
5, 1072560, Note_off_c, 3, 59, 64
5, 1072560, Note_on_c, 3, 60, 96
5, 1072800, Note_off_c, 3, 60, 64
5, 1072860, Note_on_c, 3, 59, 90
5, 1072916, Note_off_c, 3, 59, 64
5, 1072920, Note_on_c, 3, 57, 84
5, 1072976, Note_off_c, 3, 57, 64
5, 1072980, Note_on_c, 3, 55, 75
5, 1073036, Note_off_c, 3, 55, 64
5, 1073040, Note_on_c, 3, 57, 102
5, 1073280, Note_off_c, 3, 57, 64
5, 1073340, Note_on_c, 3, 55, 46
5, 1073396, Note_off_c, 3, 55, 64
5, 1073400, Note_on_c, 3, 54, 80
5, 1073456, Note_off_c, 3, 54, 64
5, 1073460, Note_on_c, 3, 52, 78
5, 1073516, Note_off_c, 3, 52, 64
5, 1073520, Note_on_c, 3, 50, 109
5, 1074480, Note_off_c, 3, 50, 64
5, 1074600, Note_on_c, 3, 48, 93
5, 1074656, Note_off_c, 3, 48, 64
5, 1074660, Note_on_c, 3, 47, 89
5, 1074716, Note_off_c, 3, 47, 64
5, 1074720, Note_on_c, 3, 45, 89
5, 1074776, Note_off_c, 3, 45, 64
5, 1074780, Note_on_c, 3, 43, 101
5, 1074836, Note_off_c, 3, 43, 64
5, 1074840, Note_on_c, 3, 42, 101
5, 1074896, Note_off_c, 3, 42, 64
5, 1074900, Note_on_c, 3, 40, 84
5, 1074956, Note_off_c, 3, 40, 64
5, 1074960, Note_on_c, 3, 38, 119
5, 1075076, Note_off_c, 3, 38, 64
5, 1075080, Note_on_c, 3, 42, 101
5, 1075200, Note_off_c, 3, 42, 64
5, 1075200, Note_on_c, 3, 45, 89
5, 1075316, Note_off_c, 3, 45, 64
5, 1075320, Note_on_c, 3, 50, 74
5, 1075440, Note_off_c, 3, 50, 64
5, 1075440, Note_on_c, 3, 43, 83
5, 1075500, Note_off_c, 3, 43, 64
5, 1075560, Note_on_c, 3, 50, 80
5, 1075620, Note_off_c, 3, 50, 64
5, 1075680, Note_on_c, 3, 52, 92
5, 1075736, Note_off_c, 3, 52, 64
5, 1075800, Note_on_c, 3, 54, 89
5, 1075856, Note_off_c, 3, 54, 64
5, 1075920, Note_on_c, 3, 55, 80
5, 1075976, Note_off_c, 3, 55, 64
5, 1076040, Note_on_c, 3, 54, 85
5, 1076096, Note_off_c, 3, 54, 64
5, 1076160, Note_on_c, 3, 55, 50
5, 1076216, Note_off_c, 3, 55, 64
5, 1076280, Note_on_c, 3, 57, 75
5, 1076336, Note_off_c, 3, 57, 64
5, 1076400, Note_on_c, 3, 59, 90
5, 1077120, Note_off_c, 3, 59, 64
5, 1077180, Note_on_c, 3, 57, 57
5, 1077236, Note_off_c, 3, 57, 64
5, 1077240, Note_on_c, 3, 55, 61
5, 1077296, Note_off_c, 3, 55, 64
5, 1077300, Note_on_c, 3, 54, 75
5, 1077356, Note_off_c, 3, 54, 64
5, 1077360, Note_on_c, 3, 55, 82
5, 1077416, Note_off_c, 3, 55, 64
5, 1077480, Note_on_c, 3, 59, 74
5, 1077536, Note_off_c, 3, 59, 64
5, 1077600, Note_on_c, 3, 61, 75
5, 1077660, Note_off_c, 3, 61, 64
5, 1077720, Note_on_c, 3, 63, 77
5, 1077776, Note_off_c, 3, 63, 64
5, 1077840, Note_on_c, 3, 64, 69
5, 1077896, Note_off_c, 3, 64, 64
5, 1077960, Note_on_c, 3, 63, 80
5, 1078016, Note_off_c, 3, 63, 64
5, 1078080, Note_on_c, 3, 64, 78
5, 1078136, Note_off_c, 3, 64, 64
5, 1078200, Note_on_c, 3, 66, 79
5, 1078256, Note_off_c, 3, 66, 64
5, 1078320, Note_on_c, 3, 67, 93
5, 1078676, Note_off_c, 3, 67, 64
5, 1078680, Note_on_c, 3, 55, 78
5, 1078800, Note_off_c, 3, 55, 64
5, 1078800, Note_on_c, 3, 67, 96
5, 1079160, Note_off_c, 3, 67, 64
5, 1079160, Note_on_c, 3, 67, 95
5, 1079280, Note_off_c, 3, 67, 64
5, 1079280, Note_on_c, 3, 67, 102
5, 1080000, Note_off_c, 3, 67, 64
5, 1080060, Note_on_c, 3, 67, 100
5, 1080116, Note_off_c, 3, 67, 64
5, 1080120, Note_on_c, 3, 66, 82
5, 1080176, Note_off_c, 3, 66, 64
5, 1080180, Note_on_c, 3, 64, 63
5, 1080236, Note_off_c, 3, 64, 64
5, 1080240, Note_on_c, 3, 66, 101
5, 1080480, Note_off_c, 3, 66, 64
5, 1080540, Note_on_c, 3, 59, 84
5, 1080596, Note_off_c, 3, 59, 64
5, 1080600, Note_on_c, 3, 61, 101
5, 1080656, Note_off_c, 3, 61, 64
5, 1080660, Note_on_c, 3, 63, 97
5, 1080716, Note_off_c, 3, 63, 64
5, 1080720, Note_on_c, 3, 64, 97
5, 1081076, Note_off_c, 3, 64, 64
5, 1081080, Note_on_c, 3, 64, 97
5, 1081200, Note_off_c, 3, 64, 64
5, 1081200, Note_on_c, 3, 64, 101
5, 1081920, Note_off_c, 3, 64, 64
5, 1081980, Note_on_c, 3, 60, 101
5, 1082040, Note_off_c, 3, 60, 64
5, 1082040, Note_on_c, 3, 59, 101
5, 1082100, Note_off_c, 3, 59, 64
5, 1082100, Note_on_c, 3, 57, 101
5, 1082160, Note_off_c, 3, 57, 64
5, 1082160, Note_on_c, 3, 56, 101
5, 1082520, Note_off_c, 3, 56, 64
5, 1082520, Note_on_c, 3, 59, 101
5, 1082640, Note_off_c, 3, 59, 64
5, 1082640, Note_on_c, 3, 52, 101
5, 1083000, Note_off_c, 3, 52, 64
5, 1083000, Note_on_c, 3, 56, 101
5, 1083120, Note_off_c, 3, 56, 64
5, 1083120, Note_on_c, 3, 57, 101
5, 1083600, Note_off_c, 3, 57, 64
5, 1083720, Note_on_c, 3, 45, 101
5, 1083780, Note_off_c, 3, 45, 64
5, 1083780, Note_on_c, 3, 47, 101
5, 1083840, Note_off_c, 3, 47, 64
5, 1083840, Note_on_c, 3, 49, 101
5, 1083900, Note_off_c, 3, 49, 64
5, 1083900, Note_on_c, 3, 50, 101
5, 1083960, Note_off_c, 3, 50, 64
5, 1083960, Note_on_c, 3, 52, 101
5, 1084020, Note_off_c, 3, 52, 64
5, 1084020, Note_on_c, 3, 54, 101
5, 1084080, Note_off_c, 3, 54, 64
5, 1084080, Note_on_c, 3, 55, 101
5, 1084440, Note_off_c, 3, 55, 64
5, 1084440, Note_on_c, 3, 52, 101
5, 1084560, Note_off_c, 3, 52, 64
5, 1084560, Note_on_c, 3, 49, 101
5, 1084920, Note_off_c, 3, 49, 64
5, 1084920, Note_on_c, 3, 45, 101
5, 1085040, Note_off_c, 3, 45, 64
5, 1085040, Note_on_c, 3, 54, 101
5, 1085760, Note_off_c, 3, 54, 64
5, 1085820, Note_on_c, 3, 55, 101
5, 1085880, Note_off_c, 3, 55, 64
5, 1085880, Note_on_c, 3, 54, 101
5, 1085940, Note_off_c, 3, 54, 64
5, 1085940, Note_on_c, 3, 52, 101
5, 1086000, Note_off_c, 3, 52, 64
5, 1086000, Note_on_c, 3, 50, 101
5, 1086240, Note_off_c, 3, 50, 64
5, 1086300, Note_on_c, 3, 48, 101
5, 1086360, Note_off_c, 3, 48, 64
5, 1086360, Note_on_c, 3, 47, 101
5, 1086420, Note_off_c, 3, 47, 64
5, 1086420, Note_on_c, 3, 45, 101
5, 1086480, Note_off_c, 3, 45, 64
5, 1086480, Note_on_c, 3, 43, 101
5, 1086720, Note_off_c, 3, 43, 64
5, 1086780, Note_on_c, 3, 50, 101
5, 1086840, Note_off_c, 3, 50, 64
5, 1086840, Note_on_c, 3, 52, 101
5, 1086900, Note_off_c, 3, 52, 64
5, 1086900, Note_on_c, 3, 54, 101
5, 1086960, Note_off_c, 3, 54, 64
5, 1086960, Note_on_c, 3, 55, 101
5, 1087020, Note_off_c, 3, 55, 64
5, 1087020, Note_on_c, 3, 54, 101
5, 1087080, Note_off_c, 3, 54, 64
5, 1087080, Note_on_c, 3, 55, 101
5, 1087320, Note_off_c, 3, 55, 64
5, 1087320, Note_on_c, 3, 43, 101
5, 1087440, Note_off_c, 3, 43, 64
5, 1087440, Note_on_c, 3, 55, 101
5, 1087800, Note_off_c, 3, 55, 64
5, 1087800, Note_on_c, 3, 55, 101
5, 1087920, Note_off_c, 3, 55, 64
5, 1087920, Note_on_c, 3, 55, 101
5, 1088640, Note_off_c, 3, 55, 64
5, 1088700, Note_on_c, 3, 55, 101
5, 1088760, Note_off_c, 3, 55, 64
5, 1088760, Note_on_c, 3, 54, 101
5, 1088820, Note_off_c, 3, 54, 64
5, 1088820, Note_on_c, 3, 52, 101
5, 1088880, Note_off_c, 3, 52, 64
5, 1088880, Note_on_c, 3, 54, 101
5, 1089060, Note_off_c, 3, 54, 64
5, 1089060, Note_on_c, 3, 50, 101
5, 1089120, Note_off_c, 3, 50, 64
5, 1089120, Note_on_c, 3, 52, 101
5, 1089180, Note_off_c, 3, 52, 64
5, 1089180, Note_on_c, 3, 54, 101
5, 1089240, Note_off_c, 3, 54, 64
5, 1089240, Note_on_c, 3, 55, 101
5, 1089300, Note_off_c, 3, 55, 64
5, 1089300, Note_on_c, 3, 57, 101
5, 1089360, Note_off_c, 3, 57, 64
5, 1089360, Note_on_c, 3, 59, 101
5, 1089720, Note_off_c, 3, 59, 64
5, 1089720, Note_on_c, 3, 55, 101
5, 1089840, Note_off_c, 3, 55, 64
5, 1089840, Note_on_c, 3, 57, 101
5, 1090320, Note_off_c, 3, 57, 64
5, 1090320, Note_on_c, 3, 45, 101
5, 1090800, Note_off_c, 3, 45, 64
5, 1090800, Note_on_c, 3, 38, 107
5, 1091276, Note_off_c, 3, 38, 64
5, 1091400, Note_on_c, 3, 50, 107
5, 1091460, Note_off_c, 3, 50, 64
5, 1091460, Note_on_c, 3, 52, 107
5, 1091520, Note_off_c, 3, 52, 64
5, 1091520, Note_on_c, 3, 54, 107
5, 1091580, Note_off_c, 3, 54, 64
5, 1091580, Note_on_c, 3, 55, 107
5, 1091640, Note_off_c, 3, 55, 64
5, 1091640, Note_on_c, 3, 57, 107
5, 1091700, Note_off_c, 3, 57, 64
5, 1091700, Note_on_c, 3, 59, 107
5, 1091760, Note_off_c, 3, 59, 64
5, 1091760, Note_on_c, 3, 60, 104
5, 1092120, Note_off_c, 3, 60, 64
5, 1092120, Note_on_c, 3, 57, 104
5, 1092236, Note_off_c, 3, 57, 64
5, 1092240, Note_on_c, 3, 54, 113
5, 1092600, Note_off_c, 3, 54, 64
5, 1092600, Note_on_c, 3, 50, 113
5, 1092716, Note_off_c, 3, 50, 64
5, 1092720, Note_on_c, 3, 43, 113
5, 1093680, Note_off_c, 3, 43, 64
5, 1094520, Note_on_c, 3, 55, 107
5, 1094636, Note_off_c, 3, 55, 64
5, 1094640, Note_on_c, 3, 54, 96
5, 1095176, Note_off_c, 3, 54, 64
5, 1095180, Note_on_c, 3, 50, 71
5, 1095236, Note_off_c, 3, 50, 64
5, 1095240, Note_on_c, 3, 52, 95
5, 1095296, Note_off_c, 3, 52, 64
5, 1095300, Note_on_c, 3, 54, 102
5, 1095356, Note_off_c, 3, 54, 64
5, 1095360, Note_on_c, 3, 55, 85
5, 1095416, Note_off_c, 3, 55, 64
5, 1095420, Note_on_c, 3, 57, 70
5, 1095476, Note_off_c, 3, 57, 64
5, 1095480, Note_on_c, 3, 59, 88
5, 1095536, Note_off_c, 3, 59, 64
5, 1095540, Note_on_c, 3, 60, 90
5, 1095596, Note_off_c, 3, 60, 64
5, 1095600, Note_on_c, 3, 62, 107
5, 1095960, Note_off_c, 3, 62, 64
5, 1095960, Note_on_c, 3, 57, 91
5, 1096076, Note_off_c, 3, 57, 64
5, 1096080, Note_on_c, 3, 54, 106
5, 1096436, Note_off_c, 3, 54, 64
5, 1096440, Note_on_c, 3, 50, 90
5, 1096556, Note_off_c, 3, 50, 64
5, 1096560, Note_on_c, 3, 52, 106
5, 1097276, Note_off_c, 3, 52, 64
5, 1097280, Note_on_c, 3, 55, 104
5, 1097516, Note_off_c, 3, 55, 64
5, 1097520, Note_on_c, 3, 54, 102
5, 1097636, Note_off_c, 3, 54, 64
5, 1097640, Note_on_c, 3, 52, 88
5, 1097700, Note_off_c, 3, 52, 64
5, 1097700, Note_on_c, 3, 54, 82
5, 1097756, Note_off_c, 3, 54, 64
5, 1097760, Note_on_c, 3, 52, 83
5, 1098240, Note_off_c, 3, 52, 64
5, 1098300, Note_on_c, 3, 50, 97
5, 1098360, Note_off_c, 3, 50, 64
5, 1098360, Note_on_c, 3, 52, 101
5, 1098420, Note_off_c, 3, 52, 64
5, 1098420, Note_on_c, 3, 54, 102
5, 1098480, Note_off_c, 3, 54, 64
5, 1098480, Note_on_c, 3, 50, 106
5, 1098840, Note_off_c, 3, 50, 64
5, 1098840, Note_on_c, 3, 60, 100
5, 1098896, Note_off_c, 3, 60, 64
5, 1098900, Note_on_c, 3, 59, 96
5, 1098956, Note_off_c, 3, 59, 64
5, 1098960, Note_on_c, 3, 60, 115
5, 1099316, Note_off_c, 3, 60, 64
5, 1099320, Note_on_c, 3, 57, 106
5, 1099436, Note_off_c, 3, 57, 64
5, 1099440, Note_on_c, 3, 54, 97
5, 1099796, Note_off_c, 3, 54, 64
5, 1099800, Note_on_c, 3, 64, 106
5, 1099916, Note_off_c, 3, 64, 64
5, 1099920, Note_on_c, 3, 62, 97
5, 1100280, Note_off_c, 3, 62, 64
5, 1100280, Note_on_c, 3, 60, 86
5, 1100400, Note_off_c, 3, 60, 64
5, 1100400, Note_on_c, 3, 60, 96
5, 1100516, Note_off_c, 3, 60, 64
5, 1100520, Note_on_c, 3, 59, 81
5, 1100576, Note_off_c, 3, 59, 64
5, 1100580, Note_on_c, 3, 60, 81
5, 1100636, Note_off_c, 3, 60, 64
5, 1100640, Note_on_c, 3, 59, 81
5, 1101120, Note_off_c, 3, 59, 64
5, 1101120, Note_on_c, 3, 59, 96
5, 1101360, Note_off_c, 3, 59, 64
5, 1101360, Note_on_c, 3, 59, 97
5, 1101600, Note_off_c, 3, 59, 64
5, 1101660, Note_on_c, 3, 60, 89
5, 1101720, Note_off_c, 3, 60, 64
5, 1101720, Note_on_c, 3, 59, 89
5, 1101780, Note_off_c, 3, 59, 64
5, 1101780, Note_on_c, 3, 57, 80
5, 1101840, Note_off_c, 3, 57, 64
5, 1101840, Note_on_c, 3, 59, 101
5, 1102196, Note_off_c, 3, 59, 64
5, 1102200, Note_on_c, 3, 55, 92
5, 1102316, Note_off_c, 3, 55, 64
5, 1102320, Note_on_c, 3, 60, 101
5, 1102376, Note_off_c, 3, 60, 64
5, 1102380, Note_on_c, 3, 59, 91
5, 1102436, Note_off_c, 3, 59, 64
5, 1102440, Note_on_c, 3, 60, 92
5, 1102920, Note_off_c, 3, 60, 64
5, 1103100, Note_on_c, 3, 62, 86
5, 1103160, Note_off_c, 3, 62, 64
5, 1103160, Note_on_c, 3, 60, 83
5, 1103220, Note_off_c, 3, 60, 64
5, 1103220, Note_on_c, 3, 59, 84
5, 1103280, Note_off_c, 3, 59, 64
5, 1103280, Note_on_c, 3, 60, 96
5, 1103520, Note_off_c, 3, 60, 64
5, 1103580, Note_on_c, 3, 59, 90
5, 1103636, Note_off_c, 3, 59, 64
5, 1103640, Note_on_c, 3, 57, 84
5, 1103696, Note_off_c, 3, 57, 64
5, 1103700, Note_on_c, 3, 55, 75
5, 1103756, Note_off_c, 3, 55, 64
5, 1103760, Note_on_c, 3, 57, 102
5, 1104000, Note_off_c, 3, 57, 64
5, 1104060, Note_on_c, 3, 55, 46
5, 1104116, Note_off_c, 3, 55, 64
5, 1104120, Note_on_c, 3, 54, 80
5, 1104176, Note_off_c, 3, 54, 64
5, 1104180, Note_on_c, 3, 52, 78
5, 1104236, Note_off_c, 3, 52, 64
5, 1104240, Note_on_c, 3, 50, 109
5, 1105200, Note_off_c, 3, 50, 64
5, 1105320, Note_on_c, 3, 48, 93
5, 1105376, Note_off_c, 3, 48, 64
5, 1105380, Note_on_c, 3, 47, 89
5, 1105436, Note_off_c, 3, 47, 64
5, 1105440, Note_on_c, 3, 45, 89
5, 1105496, Note_off_c, 3, 45, 64
5, 1105500, Note_on_c, 3, 43, 101
5, 1105556, Note_off_c, 3, 43, 64
5, 1105560, Note_on_c, 3, 42, 101
5, 1105616, Note_off_c, 3, 42, 64
5, 1105620, Note_on_c, 3, 40, 84
5, 1105676, Note_off_c, 3, 40, 64
5, 1105680, Note_on_c, 3, 38, 119
5, 1105796, Note_off_c, 3, 38, 64
5, 1105800, Note_on_c, 3, 42, 101
5, 1105920, Note_off_c, 3, 42, 64
5, 1105920, Note_on_c, 3, 45, 89
5, 1106036, Note_off_c, 3, 45, 64
5, 1106040, Note_on_c, 3, 50, 74
5, 1106160, Note_off_c, 3, 50, 64
5, 1106160, Note_on_c, 3, 43, 83
5, 1106220, Note_off_c, 3, 43, 64
5, 1106280, Note_on_c, 3, 50, 80
5, 1106340, Note_off_c, 3, 50, 64
5, 1106400, Note_on_c, 3, 52, 92
5, 1106456, Note_off_c, 3, 52, 64
5, 1106520, Note_on_c, 3, 54, 89
5, 1106576, Note_off_c, 3, 54, 64
5, 1106640, Note_on_c, 3, 55, 80
5, 1106696, Note_off_c, 3, 55, 64
5, 1106760, Note_on_c, 3, 54, 85
5, 1106816, Note_off_c, 3, 54, 64
5, 1106880, Note_on_c, 3, 55, 50
5, 1106936, Note_off_c, 3, 55, 64
5, 1107000, Note_on_c, 3, 57, 75
5, 1107056, Note_off_c, 3, 57, 64
5, 1107120, Note_on_c, 3, 59, 90
5, 1107840, Note_off_c, 3, 59, 64
5, 1107900, Note_on_c, 3, 57, 57
5, 1107956, Note_off_c, 3, 57, 64
5, 1107960, Note_on_c, 3, 55, 61
5, 1108016, Note_off_c, 3, 55, 64
5, 1108020, Note_on_c, 3, 54, 75
5, 1108076, Note_off_c, 3, 54, 64
5, 1108080, Note_on_c, 3, 55, 82
5, 1108136, Note_off_c, 3, 55, 64
5, 1108200, Note_on_c, 3, 59, 74
5, 1108256, Note_off_c, 3, 59, 64
5, 1108320, Note_on_c, 3, 61, 75
5, 1108380, Note_off_c, 3, 61, 64
5, 1108440, Note_on_c, 3, 63, 77
5, 1108496, Note_off_c, 3, 63, 64
5, 1108560, Note_on_c, 3, 64, 69
5, 1108616, Note_off_c, 3, 64, 64
5, 1108680, Note_on_c, 3, 63, 80
5, 1108736, Note_off_c, 3, 63, 64
5, 1108800, Note_on_c, 3, 64, 78
5, 1108856, Note_off_c, 3, 64, 64
5, 1108920, Note_on_c, 3, 66, 79
5, 1108976, Note_off_c, 3, 66, 64
5, 1109040, Note_on_c, 3, 67, 93
5, 1109396, Note_off_c, 3, 67, 64
5, 1109400, Note_on_c, 3, 55, 78
5, 1109520, Note_off_c, 3, 55, 64
5, 1109520, Note_on_c, 3, 67, 96
5, 1109880, Note_off_c, 3, 67, 64
5, 1109880, Note_on_c, 3, 67, 95
5, 1110000, Note_off_c, 3, 67, 64
5, 1110000, Note_on_c, 3, 67, 102
5, 1110720, Note_off_c, 3, 67, 64
5, 1110780, Note_on_c, 3, 67, 100
5, 1110836, Note_off_c, 3, 67, 64
5, 1110840, Note_on_c, 3, 66, 82
5, 1110896, Note_off_c, 3, 66, 64
5, 1110900, Note_on_c, 3, 64, 63
5, 1110956, Note_off_c, 3, 64, 64
5, 1110960, Note_on_c, 3, 66, 101
5, 1111200, Note_off_c, 3, 66, 64
5, 1111260, Note_on_c, 3, 59, 84
5, 1111316, Note_off_c, 3, 59, 64
5, 1111320, Note_on_c, 3, 61, 101
5, 1111376, Note_off_c, 3, 61, 64
5, 1111380, Note_on_c, 3, 63, 97
5, 1111436, Note_off_c, 3, 63, 64
5, 1111440, Note_on_c, 3, 64, 97
5, 1111796, Note_off_c, 3, 64, 64
5, 1111800, Note_on_c, 3, 64, 97
5, 1111920, Note_off_c, 3, 64, 64
5, 1111920, Note_on_c, 3, 64, 101
5, 1112640, Note_off_c, 3, 64, 64
5, 1112700, Note_on_c, 3, 60, 101
5, 1112760, Note_off_c, 3, 60, 64
5, 1112760, Note_on_c, 3, 59, 101
5, 1112820, Note_off_c, 3, 59, 64
5, 1112820, Note_on_c, 3, 57, 101
5, 1112880, Note_off_c, 3, 57, 64
5, 1112880, Note_on_c, 3, 56, 101
5, 1113240, Note_off_c, 3, 56, 64
5, 1113240, Note_on_c, 3, 59, 101
5, 1113360, Note_off_c, 3, 59, 64
5, 1113360, Note_on_c, 3, 52, 101
5, 1113720, Note_off_c, 3, 52, 64
5, 1113720, Note_on_c, 3, 56, 101
5, 1113840, Note_off_c, 3, 56, 64
5, 1113840, Note_on_c, 3, 57, 101
5, 1114320, Note_off_c, 3, 57, 64
5, 1114440, Note_on_c, 3, 45, 101
5, 1114500, Note_off_c, 3, 45, 64
5, 1114500, Note_on_c, 3, 47, 101
5, 1114560, Note_off_c, 3, 47, 64
5, 1114560, Note_on_c, 3, 49, 101
5, 1114620, Note_off_c, 3, 49, 64
5, 1114620, Note_on_c, 3, 50, 101
5, 1114680, Note_off_c, 3, 50, 64
5, 1114680, Note_on_c, 3, 52, 101
5, 1114740, Note_off_c, 3, 52, 64
5, 1114740, Note_on_c, 3, 54, 101
5, 1114800, Note_off_c, 3, 54, 64
5, 1114800, Note_on_c, 3, 55, 101
5, 1115160, Note_off_c, 3, 55, 64
5, 1115160, Note_on_c, 3, 52, 101
5, 1115280, Note_off_c, 3, 52, 64
5, 1115280, Note_on_c, 3, 49, 101
5, 1115640, Note_off_c, 3, 49, 64
5, 1115640, Note_on_c, 3, 45, 101
5, 1115760, Note_off_c, 3, 45, 64
5, 1115760, Note_on_c, 3, 54, 101
5, 1116480, Note_off_c, 3, 54, 64
5, 1116540, Note_on_c, 3, 55, 101
5, 1116600, Note_off_c, 3, 55, 64
5, 1116600, Note_on_c, 3, 54, 101
5, 1116660, Note_off_c, 3, 54, 64
5, 1116660, Note_on_c, 3, 52, 101
5, 1116720, Note_off_c, 3, 52, 64
5, 1116720, Note_on_c, 3, 50, 101
5, 1116960, Note_off_c, 3, 50, 64
5, 1117020, Note_on_c, 3, 48, 101
5, 1117080, Note_off_c, 3, 48, 64
5, 1117080, Note_on_c, 3, 47, 101
5, 1117140, Note_off_c, 3, 47, 64
5, 1117140, Note_on_c, 3, 45, 101
5, 1117200, Note_off_c, 3, 45, 64
5, 1117200, Note_on_c, 3, 43, 101
5, 1117440, Note_off_c, 3, 43, 64
5, 1117500, Note_on_c, 3, 50, 101
5, 1117560, Note_off_c, 3, 50, 64
5, 1117560, Note_on_c, 3, 52, 101
5, 1117620, Note_off_c, 3, 52, 64
5, 1117620, Note_on_c, 3, 54, 101
5, 1117680, Note_off_c, 3, 54, 64
5, 1117680, Note_on_c, 3, 55, 101
5, 1117740, Note_off_c, 3, 55, 64
5, 1117740, Note_on_c, 3, 54, 101
5, 1117800, Note_off_c, 3, 54, 64
5, 1117800, Note_on_c, 3, 55, 101
5, 1118040, Note_off_c, 3, 55, 64
5, 1118040, Note_on_c, 3, 43, 101
5, 1118160, Note_off_c, 3, 43, 64
5, 1118160, Note_on_c, 3, 55, 101
5, 1118520, Note_off_c, 3, 55, 64
5, 1118520, Note_on_c, 3, 55, 101
5, 1118640, Note_off_c, 3, 55, 64
5, 1118640, Note_on_c, 3, 55, 101
5, 1119360, Note_off_c, 3, 55, 64
5, 1119420, Note_on_c, 3, 55, 101
5, 1119480, Note_off_c, 3, 55, 64
5, 1119480, Note_on_c, 3, 54, 101
5, 1119540, Note_off_c, 3, 54, 64
5, 1119540, Note_on_c, 3, 52, 101
5, 1119600, Note_off_c, 3, 52, 64
5, 1119600, Note_on_c, 3, 54, 101
5, 1119780, Note_off_c, 3, 54, 64
5, 1119780, Note_on_c, 3, 50, 101
5, 1119840, Note_off_c, 3, 50, 64
5, 1119840, Note_on_c, 3, 52, 101
5, 1119900, Note_off_c, 3, 52, 64
5, 1119900, Note_on_c, 3, 54, 101
5, 1119960, Note_off_c, 3, 54, 64
5, 1119960, Note_on_c, 3, 55, 101
5, 1120020, Note_off_c, 3, 55, 64
5, 1120020, Note_on_c, 3, 57, 101
5, 1120080, Note_off_c, 3, 57, 64
5, 1120080, Note_on_c, 3, 59, 101
5, 1120440, Note_off_c, 3, 59, 64
5, 1120440, Note_on_c, 3, 55, 101
5, 1120560, Note_off_c, 3, 55, 64
5, 1120560, Note_on_c, 3, 57, 101
5, 1121040, Note_off_c, 3, 57, 64
5, 1121040, Note_on_c, 3, 45, 101
5, 1121520, Note_off_c, 3, 45, 64
5, 1121520, Note_on_c, 3, 38, 101
5, 1122000, Note_off_c, 3, 38, 64
5, 1126800, Note_on_c, 3, 59, 109
5, 1126916, Note_off_c, 3, 59, 64
5, 1126920, Note_on_c, 3, 57, 113
5, 1127036, Note_off_c, 3, 57, 64
5, 1127040, Note_on_c, 3, 55, 91
5, 1127156, Note_off_c, 3, 55, 64
5, 1127160, Note_on_c, 3, 54, 106
5, 1127276, Note_off_c, 3, 54, 64
5, 1127280, Note_on_c, 3, 55, 101
5, 1127516, Note_off_c, 3, 55, 64
5, 1127520, Note_on_c, 3, 57, 104
5, 1127756, Note_off_c, 3, 57, 64
5, 1127760, Note_on_c, 3, 59, 102
5, 1127996, Note_off_c, 3, 59, 64
5, 1128000, Note_on_c, 3, 52, 96
5, 1128116, Note_off_c, 3, 52, 64
5, 1128120, Note_on_c, 3, 55, 92
5, 1128236, Note_off_c, 3, 55, 64
5, 1128240, Note_on_c, 3, 54, 101
5, 1128356, Note_off_c, 3, 54, 64
5, 1128360, Note_on_c, 3, 57, 96
5, 1128476, Note_off_c, 3, 57, 64
5, 1128480, Note_on_c, 3, 55, 96
5, 1128596, Note_off_c, 3, 55, 64
5, 1128600, Note_on_c, 3, 59, 95
5, 1128716, Note_off_c, 3, 59, 64
5, 1128720, Note_on_c, 3, 57, 91
5, 1128956, Note_off_c, 3, 57, 64
5, 1128960, Note_on_c, 3, 59, 92
5, 1129196, Note_off_c, 3, 59, 64
5, 1129200, Note_on_c, 3, 60, 93
5, 1129436, Note_off_c, 3, 60, 64
5, 1129440, Note_on_c, 3, 54, 90
5, 1129556, Note_off_c, 3, 54, 64
5, 1129560, Note_on_c, 3, 57, 86
5, 1129676, Note_off_c, 3, 57, 64
5, 1129680, Note_on_c, 3, 55, 92
5, 1129796, Note_off_c, 3, 55, 64
5, 1129800, Note_on_c, 3, 59, 96
5, 1129916, Note_off_c, 3, 59, 64
5, 1129920, Note_on_c, 3, 57, 92
5, 1130036, Note_off_c, 3, 57, 64
5, 1130040, Note_on_c, 3, 60, 98
5, 1130156, Note_off_c, 3, 60, 64
5, 1130160, Note_on_c, 3, 59, 97
5, 1130396, Note_off_c, 3, 59, 64
5, 1130400, Note_on_c, 3, 60, 97
5, 1130636, Note_off_c, 3, 60, 64
5, 1130640, Note_on_c, 3, 62, 104
5, 1130876, Note_off_c, 3, 62, 64
5, 1130880, Note_on_c, 3, 55, 92
5, 1130996, Note_off_c, 3, 55, 64
5, 1131000, Note_on_c, 3, 59, 92
5, 1131116, Note_off_c, 3, 59, 64
5, 1131120, Note_on_c, 3, 57, 89
5, 1131236, Note_off_c, 3, 57, 64
5, 1131240, Note_on_c, 3, 60, 93
5, 1131356, Note_off_c, 3, 60, 64
5, 1131360, Note_on_c, 3, 59, 93
5, 1131476, Note_off_c, 3, 59, 64
5, 1131480, Note_on_c, 3, 62, 97
5, 1131596, Note_off_c, 3, 62, 64
5, 1131600, Note_on_c, 3, 60, 96
5, 1131836, Note_off_c, 3, 60, 64
5, 1131840, Note_on_c, 3, 57, 95
5, 1132076, Note_off_c, 3, 57, 64
5, 1132080, Note_on_c, 3, 59, 101
5, 1132316, Note_off_c, 3, 59, 64
5, 1132320, Note_on_c, 3, 52, 102
5, 1132556, Note_off_c, 3, 52, 64
5, 1132560, Note_on_c, 3, 64, 124
5, 1132676, Note_off_c, 3, 64, 64
5, 1132680, Note_on_c, 3, 62, 97
5, 1132796, Note_off_c, 3, 62, 64
5, 1132800, Note_on_c, 3, 60, 100
5, 1132916, Note_off_c, 3, 60, 64
5, 1132920, Note_on_c, 3, 59, 91
5, 1133036, Note_off_c, 3, 59, 64
5, 1133040, Note_on_c, 3, 60, 91
5, 1133276, Note_off_c, 3, 60, 64
5, 1133280, Note_on_c, 3, 62, 93
5, 1133516, Note_off_c, 3, 62, 64
5, 1133520, Note_on_c, 3, 64, 102
5, 1133756, Note_off_c, 3, 64, 64
5, 1133760, Note_on_c, 3, 57, 90
5, 1133876, Note_off_c, 3, 57, 64
5, 1133880, Note_on_c, 3, 60, 90
5, 1133996, Note_off_c, 3, 60, 64
5, 1134000, Note_on_c, 3, 59, 88
5, 1134116, Note_off_c, 3, 59, 64
5, 1134120, Note_on_c, 3, 62, 91
5, 1134236, Note_off_c, 3, 62, 64
5, 1134240, Note_on_c, 3, 61, 90
5, 1134356, Note_off_c, 3, 61, 64
5, 1134360, Note_on_c, 3, 64, 100
5, 1134476, Note_off_c, 3, 64, 64
5, 1134480, Note_on_c, 3, 62, 100
5, 1135440, Note_off_c, 3, 62, 64
5, 1135440, Note_on_c, 3, 50, 107
5, 1135556, Note_off_c, 3, 50, 64
5, 1135560, Note_on_c, 3, 48, 98
5, 1135676, Note_off_c, 3, 48, 64
5, 1135680, Note_on_c, 3, 47, 100
5, 1135796, Note_off_c, 3, 47, 64
5, 1135800, Note_on_c, 3, 45, 96
5, 1135916, Note_off_c, 3, 45, 64
5, 1135920, Note_on_c, 3, 47, 101
5, 1136156, Note_off_c, 3, 47, 64
5, 1136160, Note_on_c, 3, 48, 102
5, 1136396, Note_off_c, 3, 48, 64
5, 1136400, Note_on_c, 3, 50, 104
5, 1136636, Note_off_c, 3, 50, 64
5, 1136640, Note_on_c, 3, 43, 96
5, 1136756, Note_off_c, 3, 43, 64
5, 1136760, Note_on_c, 3, 47, 97
5, 1136876, Note_off_c, 3, 47, 64
5, 1136880, Note_on_c, 3, 45, 90
5, 1136996, Note_off_c, 3, 45, 64
5, 1137000, Note_on_c, 3, 48, 93
5, 1137116, Note_off_c, 3, 48, 64
5, 1137120, Note_on_c, 3, 47, 81
5, 1137236, Note_off_c, 3, 47, 64
5, 1137240, Note_on_c, 3, 50, 91
5, 1137356, Note_off_c, 3, 50, 64
5, 1137360, Note_on_c, 3, 48, 96
5, 1137476, Note_off_c, 3, 48, 64
5, 1137480, Note_on_c, 3, 47, 98
5, 1137596, Note_off_c, 3, 47, 64
5, 1137600, Note_on_c, 3, 45, 90
5, 1137716, Note_off_c, 3, 45, 64
5, 1137720, Note_on_c, 3, 43, 96
5, 1137836, Note_off_c, 3, 43, 64
5, 1137840, Note_on_c, 3, 42, 101
5, 1137956, Note_off_c, 3, 42, 64
5, 1137960, Note_on_c, 3, 40, 92
5, 1138076, Note_off_c, 3, 40, 64
5, 1138080, Note_on_c, 3, 42, 101
5, 1138316, Note_off_c, 3, 42, 64
5, 1138320, Note_on_c, 3, 45, 113
5, 1138376, Note_off_c, 3, 45, 64
5, 1138380, Note_on_c, 3, 43, 95
5, 1138436, Note_off_c, 3, 43, 64
5, 1138440, Note_on_c, 3, 42, 97
5, 1138496, Note_off_c, 3, 42, 64
5, 1138500, Note_on_c, 3, 43, 95
5, 1138556, Note_off_c, 3, 43, 64
5, 1138560, Note_on_c, 3, 45, 101
5, 1138796, Note_off_c, 3, 45, 64
5, 1138800, Note_on_c, 3, 38, 100
5, 1138916, Note_off_c, 3, 38, 64
5, 1138920, Note_on_c, 3, 42, 94
5, 1139036, Note_off_c, 3, 42, 64
5, 1139040, Note_on_c, 3, 40, 96
5, 1139156, Note_off_c, 3, 40, 64
5, 1139160, Note_on_c, 3, 43, 98
5, 1139276, Note_off_c, 3, 43, 64
5, 1139280, Note_on_c, 3, 42, 101
5, 1139396, Note_off_c, 3, 42, 64
5, 1139400, Note_on_c, 3, 45, 106
5, 1139516, Note_off_c, 3, 45, 64
5, 1139520, Note_on_c, 3, 43, 98
5, 1139756, Note_off_c, 3, 43, 64
5, 1139760, Note_on_c, 3, 47, 115
5, 1139816, Note_off_c, 3, 47, 64
5, 1139820, Note_on_c, 3, 45, 93
5, 1139876, Note_off_c, 3, 45, 64
5, 1139880, Note_on_c, 3, 43, 88
5, 1139936, Note_off_c, 3, 43, 64
5, 1139940, Note_on_c, 3, 45, 93
5, 1139996, Note_off_c, 3, 45, 64
5, 1140000, Note_on_c, 3, 47, 113
5, 1140236, Note_off_c, 3, 47, 64
5, 1140240, Note_on_c, 3, 40, 95
5, 1140356, Note_off_c, 3, 40, 64
5, 1140360, Note_on_c, 3, 44, 99
5, 1140476, Note_off_c, 3, 44, 64
5, 1140480, Note_on_c, 3, 42, 90
5, 1140596, Note_off_c, 3, 42, 64
5, 1140600, Note_on_c, 3, 45, 100
5, 1140716, Note_off_c, 3, 45, 64
5, 1140720, Note_on_c, 3, 44, 102
5, 1140836, Note_off_c, 3, 44, 64
5, 1140840, Note_on_c, 3, 47, 111
5, 1140956, Note_off_c, 3, 47, 64
5, 1140960, Note_on_c, 3, 45, 71
5, 1141076, Note_off_c, 3, 45, 64
5, 1141080, Note_on_c, 3, 52, 102
5, 1141196, Note_off_c, 3, 52, 64
5, 1141200, Note_on_c, 3, 57, 109
5, 1141320, Note_off_c, 3, 57, 64
5, 1141320, Note_on_c, 3, 55, 83
5, 1141436, Note_off_c, 3, 55, 64
5, 1141440, Note_on_c, 3, 54, 102
5, 1141556, Note_off_c, 3, 54, 64
5, 1141560, Note_on_c, 3, 52, 90
5, 1141676, Note_off_c, 3, 52, 64
5, 1141680, Note_on_c, 3, 54, 94
5, 1141796, Note_off_c, 3, 54, 64
5, 1141800, Note_on_c, 3, 55, 93
5, 1141916, Note_off_c, 3, 55, 64
5, 1141920, Note_on_c, 3, 54, 101
5, 1142036, Note_off_c, 3, 54, 64
5, 1142040, Note_on_c, 3, 52, 98
5, 1142156, Note_off_c, 3, 52, 64
5, 1142160, Note_on_c, 3, 50, 83
5, 1142276, Note_off_c, 3, 50, 64
5, 1142280, Note_on_c, 3, 48, 93
5, 1142396, Note_off_c, 3, 48, 64
5, 1142400, Note_on_c, 3, 47, 90
5, 1142516, Note_off_c, 3, 47, 64
5, 1142520, Note_on_c, 3, 50, 95
5, 1142636, Note_off_c, 3, 50, 64
5, 1142640, Note_on_c, 3, 48, 89
5, 1142756, Note_off_c, 3, 48, 64
5, 1142760, Note_on_c, 3, 52, 98
5, 1142876, Note_off_c, 3, 52, 64
5, 1142880, Note_on_c, 3, 50, 68
5, 1142996, Note_off_c, 3, 50, 64
5, 1143000, Note_on_c, 3, 54, 99
5, 1143116, Note_off_c, 3, 54, 64
5, 1143120, Note_on_c, 3, 52, 104
5, 1143356, Note_off_c, 3, 52, 64
5, 1143360, Note_on_c, 3, 48, 98
5, 1143596, Note_off_c, 3, 48, 64
5, 1143600, Note_on_c, 3, 50, 102
5, 1143836, Note_off_c, 3, 50, 64
5, 1143840, Note_on_c, 3, 43, 102
5, 1143956, Note_off_c, 3, 43, 64
5, 1143960, Note_on_c, 3, 42, 93
5, 1144076, Note_off_c, 3, 42, 64
5, 1144080, Note_on_c, 3, 43, 98
5, 1144196, Note_off_c, 3, 43, 64
5, 1144200, Note_on_c, 3, 45, 93
5, 1144316, Note_off_c, 3, 45, 64
5, 1144320, Note_on_c, 3, 47, 97
5, 1144436, Note_off_c, 3, 47, 64
5, 1144440, Note_on_c, 3, 48, 101
5, 1144556, Note_off_c, 3, 48, 64
5, 1144560, Note_on_c, 3, 50, 101
5, 1144796, Note_off_c, 3, 50, 64
5, 1144800, Note_on_c, 3, 38, 109
5, 1145040, Note_off_c, 3, 38, 64
5, 1149840, Note_on_c, 3, 59, 109
5, 1149956, Note_off_c, 3, 59, 64
5, 1149960, Note_on_c, 3, 57, 113
5, 1150076, Note_off_c, 3, 57, 64
5, 1150080, Note_on_c, 3, 55, 91
5, 1150196, Note_off_c, 3, 55, 64
5, 1150200, Note_on_c, 3, 54, 106
5, 1150316, Note_off_c, 3, 54, 64
5, 1150320, Note_on_c, 3, 55, 101
5, 1150556, Note_off_c, 3, 55, 64
5, 1150560, Note_on_c, 3, 57, 104
5, 1150796, Note_off_c, 3, 57, 64
5, 1150800, Note_on_c, 3, 59, 102
5, 1151036, Note_off_c, 3, 59, 64
5, 1151040, Note_on_c, 3, 52, 96
5, 1151156, Note_off_c, 3, 52, 64
5, 1151160, Note_on_c, 3, 55, 92
5, 1151276, Note_off_c, 3, 55, 64
5, 1151280, Note_on_c, 3, 54, 101
5, 1151396, Note_off_c, 3, 54, 64
5, 1151400, Note_on_c, 3, 57, 96
5, 1151516, Note_off_c, 3, 57, 64
5, 1151520, Note_on_c, 3, 55, 96
5, 1151636, Note_off_c, 3, 55, 64
5, 1151640, Note_on_c, 3, 59, 95
5, 1151756, Note_off_c, 3, 59, 64
5, 1151760, Note_on_c, 3, 57, 91
5, 1151996, Note_off_c, 3, 57, 64
5, 1152000, Note_on_c, 3, 59, 92
5, 1152236, Note_off_c, 3, 59, 64
5, 1152240, Note_on_c, 3, 60, 93
5, 1152476, Note_off_c, 3, 60, 64
5, 1152480, Note_on_c, 3, 54, 90
5, 1152596, Note_off_c, 3, 54, 64
5, 1152600, Note_on_c, 3, 57, 86
5, 1152716, Note_off_c, 3, 57, 64
5, 1152720, Note_on_c, 3, 55, 92
5, 1152836, Note_off_c, 3, 55, 64
5, 1152840, Note_on_c, 3, 59, 96
5, 1152956, Note_off_c, 3, 59, 64
5, 1152960, Note_on_c, 3, 57, 92
5, 1153076, Note_off_c, 3, 57, 64
5, 1153080, Note_on_c, 3, 60, 98
5, 1153196, Note_off_c, 3, 60, 64
5, 1153200, Note_on_c, 3, 59, 97
5, 1153436, Note_off_c, 3, 59, 64
5, 1153440, Note_on_c, 3, 60, 97
5, 1153676, Note_off_c, 3, 60, 64
5, 1153680, Note_on_c, 3, 62, 104
5, 1153916, Note_off_c, 3, 62, 64
5, 1153920, Note_on_c, 3, 55, 92
5, 1154036, Note_off_c, 3, 55, 64
5, 1154040, Note_on_c, 3, 59, 92
5, 1154156, Note_off_c, 3, 59, 64
5, 1154160, Note_on_c, 3, 57, 89
5, 1154276, Note_off_c, 3, 57, 64
5, 1154280, Note_on_c, 3, 60, 93
5, 1154396, Note_off_c, 3, 60, 64
5, 1154400, Note_on_c, 3, 59, 93
5, 1154516, Note_off_c, 3, 59, 64
5, 1154520, Note_on_c, 3, 62, 97
5, 1154636, Note_off_c, 3, 62, 64
5, 1154640, Note_on_c, 3, 60, 96
5, 1154876, Note_off_c, 3, 60, 64
5, 1154880, Note_on_c, 3, 57, 95
5, 1155116, Note_off_c, 3, 57, 64
5, 1155120, Note_on_c, 3, 59, 101
5, 1155356, Note_off_c, 3, 59, 64
5, 1155360, Note_on_c, 3, 52, 102
5, 1155596, Note_off_c, 3, 52, 64
5, 1155600, Note_on_c, 3, 64, 124
5, 1155716, Note_off_c, 3, 64, 64
5, 1155720, Note_on_c, 3, 62, 97
5, 1155836, Note_off_c, 3, 62, 64
5, 1155840, Note_on_c, 3, 60, 100
5, 1155956, Note_off_c, 3, 60, 64
5, 1155960, Note_on_c, 3, 59, 91
5, 1156076, Note_off_c, 3, 59, 64
5, 1156080, Note_on_c, 3, 60, 91
5, 1156316, Note_off_c, 3, 60, 64
5, 1156320, Note_on_c, 3, 62, 93
5, 1156556, Note_off_c, 3, 62, 64
5, 1156560, Note_on_c, 3, 64, 102
5, 1156796, Note_off_c, 3, 64, 64
5, 1156800, Note_on_c, 3, 57, 90
5, 1156916, Note_off_c, 3, 57, 64
5, 1156920, Note_on_c, 3, 60, 90
5, 1157036, Note_off_c, 3, 60, 64
5, 1157040, Note_on_c, 3, 59, 88
5, 1157156, Note_off_c, 3, 59, 64
5, 1157160, Note_on_c, 3, 62, 91
5, 1157276, Note_off_c, 3, 62, 64
5, 1157280, Note_on_c, 3, 61, 90
5, 1157396, Note_off_c, 3, 61, 64
5, 1157400, Note_on_c, 3, 64, 100
5, 1157516, Note_off_c, 3, 64, 64
5, 1157520, Note_on_c, 3, 62, 100
5, 1158480, Note_off_c, 3, 62, 64
5, 1158480, Note_on_c, 3, 50, 107
5, 1158596, Note_off_c, 3, 50, 64
5, 1158600, Note_on_c, 3, 48, 98
5, 1158716, Note_off_c, 3, 48, 64
5, 1158720, Note_on_c, 3, 47, 100
5, 1158836, Note_off_c, 3, 47, 64
5, 1158840, Note_on_c, 3, 45, 96
5, 1158956, Note_off_c, 3, 45, 64
5, 1158960, Note_on_c, 3, 47, 101
5, 1159196, Note_off_c, 3, 47, 64
5, 1159200, Note_on_c, 3, 48, 102
5, 1159436, Note_off_c, 3, 48, 64
5, 1159440, Note_on_c, 3, 50, 104
5, 1159676, Note_off_c, 3, 50, 64
5, 1159680, Note_on_c, 3, 43, 96
5, 1159796, Note_off_c, 3, 43, 64
5, 1159800, Note_on_c, 3, 47, 97
5, 1159916, Note_off_c, 3, 47, 64
5, 1159920, Note_on_c, 3, 45, 90
5, 1160036, Note_off_c, 3, 45, 64
5, 1160040, Note_on_c, 3, 48, 93
5, 1160156, Note_off_c, 3, 48, 64
5, 1160160, Note_on_c, 3, 47, 81
5, 1160276, Note_off_c, 3, 47, 64
5, 1160280, Note_on_c, 3, 50, 91
5, 1160396, Note_off_c, 3, 50, 64
5, 1160400, Note_on_c, 3, 48, 96
5, 1160516, Note_off_c, 3, 48, 64
5, 1160520, Note_on_c, 3, 47, 98
5, 1160636, Note_off_c, 3, 47, 64
5, 1160640, Note_on_c, 3, 45, 90
5, 1160756, Note_off_c, 3, 45, 64
5, 1160760, Note_on_c, 3, 43, 96
5, 1160876, Note_off_c, 3, 43, 64
5, 1160880, Note_on_c, 3, 42, 101
5, 1160996, Note_off_c, 3, 42, 64
5, 1161000, Note_on_c, 3, 40, 92
5, 1161116, Note_off_c, 3, 40, 64
5, 1161120, Note_on_c, 3, 42, 101
5, 1161356, Note_off_c, 3, 42, 64
5, 1161360, Note_on_c, 3, 45, 113
5, 1161416, Note_off_c, 3, 45, 64
5, 1161420, Note_on_c, 3, 43, 95
5, 1161476, Note_off_c, 3, 43, 64
5, 1161480, Note_on_c, 3, 42, 97
5, 1161536, Note_off_c, 3, 42, 64
5, 1161540, Note_on_c, 3, 43, 95
5, 1161596, Note_off_c, 3, 43, 64
5, 1161600, Note_on_c, 3, 45, 101
5, 1161836, Note_off_c, 3, 45, 64
5, 1161840, Note_on_c, 3, 38, 100
5, 1161956, Note_off_c, 3, 38, 64
5, 1161960, Note_on_c, 3, 42, 94
5, 1162076, Note_off_c, 3, 42, 64
5, 1162080, Note_on_c, 3, 40, 96
5, 1162196, Note_off_c, 3, 40, 64
5, 1162200, Note_on_c, 3, 43, 98
5, 1162316, Note_off_c, 3, 43, 64
5, 1162320, Note_on_c, 3, 42, 101
5, 1162436, Note_off_c, 3, 42, 64
5, 1162440, Note_on_c, 3, 45, 106
5, 1162556, Note_off_c, 3, 45, 64
5, 1162560, Note_on_c, 3, 43, 98
5, 1162796, Note_off_c, 3, 43, 64
5, 1162800, Note_on_c, 3, 47, 115
5, 1162856, Note_off_c, 3, 47, 64
5, 1162860, Note_on_c, 3, 45, 93
5, 1162916, Note_off_c, 3, 45, 64
5, 1162920, Note_on_c, 3, 43, 88
5, 1162976, Note_off_c, 3, 43, 64
5, 1162980, Note_on_c, 3, 45, 93
5, 1163036, Note_off_c, 3, 45, 64
5, 1163040, Note_on_c, 3, 47, 113
5, 1163276, Note_off_c, 3, 47, 64
5, 1163280, Note_on_c, 3, 40, 95
5, 1163396, Note_off_c, 3, 40, 64
5, 1163400, Note_on_c, 3, 44, 99
5, 1163516, Note_off_c, 3, 44, 64
5, 1163520, Note_on_c, 3, 42, 90
5, 1163636, Note_off_c, 3, 42, 64
5, 1163640, Note_on_c, 3, 45, 100
5, 1163756, Note_off_c, 3, 45, 64
5, 1163760, Note_on_c, 3, 44, 102
5, 1163876, Note_off_c, 3, 44, 64
5, 1163880, Note_on_c, 3, 47, 111
5, 1163996, Note_off_c, 3, 47, 64
5, 1164000, Note_on_c, 3, 45, 71
5, 1164116, Note_off_c, 3, 45, 64
5, 1164120, Note_on_c, 3, 52, 102
5, 1164236, Note_off_c, 3, 52, 64
5, 1164240, Note_on_c, 3, 57, 109
5, 1164360, Note_off_c, 3, 57, 64
5, 1164360, Note_on_c, 3, 55, 83
5, 1164476, Note_off_c, 3, 55, 64
5, 1164480, Note_on_c, 3, 54, 102
5, 1164596, Note_off_c, 3, 54, 64
5, 1164600, Note_on_c, 3, 52, 90
5, 1164716, Note_off_c, 3, 52, 64
5, 1164720, Note_on_c, 3, 54, 94
5, 1164836, Note_off_c, 3, 54, 64
5, 1164840, Note_on_c, 3, 55, 93
5, 1164956, Note_off_c, 3, 55, 64
5, 1164960, Note_on_c, 3, 54, 101
5, 1165076, Note_off_c, 3, 54, 64
5, 1165080, Note_on_c, 3, 52, 98
5, 1165196, Note_off_c, 3, 52, 64
5, 1165200, Note_on_c, 3, 50, 83
5, 1165316, Note_off_c, 3, 50, 64
5, 1165320, Note_on_c, 3, 48, 93
5, 1165436, Note_off_c, 3, 48, 64
5, 1165440, Note_on_c, 3, 47, 90
5, 1165556, Note_off_c, 3, 47, 64
5, 1165560, Note_on_c, 3, 50, 95
5, 1165676, Note_off_c, 3, 50, 64
5, 1165680, Note_on_c, 3, 48, 89
5, 1165796, Note_off_c, 3, 48, 64
5, 1165800, Note_on_c, 3, 52, 98
5, 1165916, Note_off_c, 3, 52, 64
5, 1165920, Note_on_c, 3, 50, 68
5, 1166036, Note_off_c, 3, 50, 64
5, 1166040, Note_on_c, 3, 54, 99
5, 1166156, Note_off_c, 3, 54, 64
5, 1166160, Note_on_c, 3, 52, 104
5, 1166396, Note_off_c, 3, 52, 64
5, 1166400, Note_on_c, 3, 48, 98
5, 1166636, Note_off_c, 3, 48, 64
5, 1166640, Note_on_c, 3, 50, 102
5, 1166876, Note_off_c, 3, 50, 64
5, 1166880, Note_on_c, 3, 43, 102
5, 1168800, Note_off_c, 3, 43, 64
5, 1168800, Note_on_c, 3, 43, 90
5, 1168916, Note_off_c, 3, 43, 64
5, 1168920, Note_on_c, 3, 47, 90
5, 1169036, Note_off_c, 3, 47, 64
5, 1169040, Note_on_c, 3, 45, 81
5, 1169156, Note_off_c, 3, 45, 64
5, 1169160, Note_on_c, 3, 48, 91
5, 1169276, Note_off_c, 3, 48, 64
5, 1169280, Note_on_c, 3, 47, 89
5, 1169396, Note_off_c, 3, 47, 64
5, 1169400, Note_on_c, 3, 50, 88
5, 1169516, Note_off_c, 3, 50, 64
5, 1169520, Note_on_c, 3, 48, 86
5, 1169636, Note_off_c, 3, 48, 64
5, 1169640, Note_on_c, 3, 52, 90
5, 1169756, Note_off_c, 3, 52, 64
5, 1169760, Note_on_c, 3, 50, 85
5, 1169876, Note_off_c, 3, 50, 64
5, 1169880, Note_on_c, 3, 54, 88
5, 1169996, Note_off_c, 3, 54, 64
5, 1170000, Note_on_c, 3, 52, 85
5, 1170116, Note_off_c, 3, 52, 64
5, 1170120, Note_on_c, 3, 55, 86
5, 1170236, Note_off_c, 3, 55, 64
5, 1170240, Note_on_c, 3, 54, 86
5, 1170356, Note_off_c, 3, 54, 64
5, 1170360, Note_on_c, 3, 57, 90
5, 1170476, Note_off_c, 3, 57, 64
5, 1170480, Note_on_c, 3, 55, 77
5, 1170596, Note_off_c, 3, 55, 64
5, 1170600, Note_on_c, 3, 59, 69
5, 1170716, Note_off_c, 3, 59, 64
5, 1170720, Note_on_c, 3, 57, 77
5, 1170836, Note_off_c, 3, 57, 64
5, 1170840, Note_on_c, 3, 61, 93
5, 1170956, Note_off_c, 3, 61, 64
5, 1170960, Note_on_c, 3, 59, 80
5, 1171076, Note_off_c, 3, 59, 64
5, 1171080, Note_on_c, 3, 62, 88
5, 1171196, Note_off_c, 3, 62, 64
5, 1171200, Note_on_c, 3, 61, 82
5, 1171316, Note_off_c, 3, 61, 64
5, 1171320, Note_on_c, 3, 64, 88
5, 1171436, Note_off_c, 3, 64, 64
5, 1171440, Note_on_c, 3, 62, 85
5, 1171556, Note_off_c, 3, 62, 64
5, 1171560, Note_on_c, 3, 66, 85
5, 1171676, Note_off_c, 3, 66, 64
5, 1171680, Note_on_c, 3, 64, 83
5, 1171796, Note_off_c, 3, 64, 64
5, 1171800, Note_on_c, 3, 67, 77
5, 1171916, Note_off_c, 3, 67, 64
5, 1171920, Note_on_c, 3, 66, 76
5, 1172036, Note_off_c, 3, 66, 64
5, 1172040, Note_on_c, 3, 69, 86
5, 1172156, Note_off_c, 3, 69, 64
5, 1172160, Note_on_c, 3, 67, 80
5, 1172276, Note_off_c, 3, 67, 64
5, 1172280, Note_on_c, 3, 71, 90
5, 1172396, Note_off_c, 3, 71, 64
5, 1172400, Note_on_c, 3, 69, 80
5, 1172516, Note_off_c, 3, 69, 64
5, 1172520, Note_on_c, 3, 73, 86
5, 1172636, Note_off_c, 3, 73, 64
5, 1172640, Note_on_c, 3, 71, 80
5, 1172756, Note_off_c, 3, 71, 64
5, 1172760, Note_on_c, 3, 74, 85
5, 1172876, Note_off_c, 3, 74, 64
5, 1172880, Note_on_c, 3, 73, 81
5, 1172996, Note_off_c, 3, 73, 64
5, 1173000, Note_on_c, 3, 76, 97
5, 1173116, Note_off_c, 3, 76, 64
5, 1173120, Note_on_c, 3, 74, 95
5, 1173236, Note_off_c, 3, 74, 64
5, 1173240, Note_on_c, 3, 73, 84
5, 1173356, Note_off_c, 3, 73, 64
5, 1173360, Note_on_c, 3, 74, 85
5, 1173476, Note_off_c, 3, 74, 64
5, 1173480, Note_on_c, 3, 73, 93
5, 1173596, Note_off_c, 3, 73, 64
5, 1173600, Note_on_c, 3, 74, 96
5, 1174676, Note_off_c, 3, 74, 64
5, 1174680, Note_on_c, 3, 71, 93
5, 1174796, Note_off_c, 3, 71, 64
5, 1174800, Note_on_c, 3, 73, 90
5, 1174916, Note_off_c, 3, 73, 64
5, 1174920, Note_on_c, 3, 69, 84
5, 1175036, Note_off_c, 3, 69, 64
5, 1175040, Note_on_c, 3, 71, 92
5, 1175156, Note_off_c, 3, 71, 64
5, 1175160, Note_on_c, 3, 67, 85
5, 1175276, Note_off_c, 3, 67, 64
5, 1175280, Note_on_c, 3, 69, 86
5, 1175396, Note_off_c, 3, 69, 64
5, 1175400, Note_on_c, 3, 65, 86
5, 1175516, Note_off_c, 3, 65, 64
5, 1175520, Note_on_c, 3, 67, 86
5, 1175636, Note_off_c, 3, 67, 64
5, 1175640, Note_on_c, 3, 64, 91
5, 1175756, Note_off_c, 3, 64, 64
5, 1175760, Note_on_c, 3, 65, 88
5, 1175876, Note_off_c, 3, 65, 64
5, 1175880, Note_on_c, 3, 62, 90
5, 1175996, Note_off_c, 3, 62, 64
5, 1176000, Note_on_c, 3, 64, 93
5, 1176116, Note_off_c, 3, 64, 64
5, 1176120, Note_on_c, 3, 60, 93
5, 1176236, Note_off_c, 3, 60, 64
5, 1176240, Note_on_c, 3, 62, 93
5, 1176356, Note_off_c, 3, 62, 64
5, 1176360, Note_on_c, 3, 59, 89
5, 1176476, Note_off_c, 3, 59, 64
5, 1176480, Note_on_c, 3, 60, 97
5, 1176596, Note_off_c, 3, 60, 64
5, 1176600, Note_on_c, 3, 57, 82
5, 1176716, Note_off_c, 3, 57, 64
5, 1176720, Note_on_c, 3, 59, 93
5, 1176836, Note_off_c, 3, 59, 64
5, 1176840, Note_on_c, 3, 55, 85
5, 1176956, Note_off_c, 3, 55, 64
5, 1176960, Note_on_c, 3, 57, 95
5, 1177076, Note_off_c, 3, 57, 64
5, 1177080, Note_on_c, 3, 54, 82
5, 1177196, Note_off_c, 3, 54, 64
5, 1177200, Note_on_c, 3, 55, 95
5, 1177316, Note_off_c, 3, 55, 64
5, 1177320, Note_on_c, 3, 52, 89
5, 1177436, Note_off_c, 3, 52, 64
5, 1177440, Note_on_c, 3, 54, 106
5, 1177556, Note_off_c, 3, 54, 64
5, 1177560, Note_on_c, 3, 50, 86
5, 1177676, Note_off_c, 3, 50, 64
5, 1177680, Note_on_c, 3, 52, 100
5, 1177796, Note_off_c, 3, 52, 64
5, 1177800, Note_on_c, 3, 48, 84
5, 1177916, Note_off_c, 3, 48, 64
5, 1177920, Note_on_c, 3, 50, 98
5, 1178036, Note_off_c, 3, 50, 64
5, 1178040, Note_on_c, 3, 47, 86
5, 1178156, Note_off_c, 3, 47, 64
5, 1178160, Note_on_c, 3, 48, 100
5, 1178276, Note_off_c, 3, 48, 64
5, 1178280, Note_on_c, 3, 45, 83
5, 1178396, Note_off_c, 3, 45, 64
5, 1178400, Note_on_c, 3, 47, 101
5, 1178516, Note_off_c, 3, 47, 64
5, 1178520, Note_on_c, 3, 43, 82
5, 1178636, Note_off_c, 3, 43, 64
5, 1178640, Note_on_c, 3, 45, 96
5, 1178756, Note_off_c, 3, 45, 64
5, 1178760, Note_on_c, 3, 42, 89
5, 1178876, Note_off_c, 3, 42, 64
5, 1178880, Note_on_c, 3, 43, 96
5, 1178996, Note_off_c, 3, 43, 64
5, 1179000, Note_on_c, 3, 42, 88
5, 1179116, Note_off_c, 3, 42, 64
5, 1179120, Note_on_c, 3, 43, 92
5, 1179236, Note_off_c, 3, 43, 64
5, 1179240, Note_on_c, 3, 42, 86
5, 1179356, Note_off_c, 3, 42, 64
5, 1179360, Note_on_c, 3, 43, 101
5, 1179956, Note_off_c, 3, 43, 64
5, 1179960, Note_on_c, 3, 47, 101
5, 1180076, Note_off_c, 3, 47, 64
5, 1180080, Note_on_c, 3, 55, 100
5, 1180196, Note_off_c, 3, 55, 64
5, 1180200, Note_on_c, 3, 54, 101
5, 1180316, Note_off_c, 3, 54, 64
5, 1180320, Note_on_c, 3, 55, 106
5, 1180436, Note_off_c, 3, 55, 64
5, 1180440, Note_on_c, 3, 59, 91
5, 1180556, Note_off_c, 3, 59, 64
5, 1180560, Note_on_c, 3, 62, 93
5, 1180676, Note_off_c, 3, 62, 64
5, 1180680, Note_on_c, 3, 66, 92
5, 1180796, Note_off_c, 3, 66, 64
5, 1180800, Note_on_c, 3, 67, 106
5, 1181156, Note_off_c, 3, 67, 64
5, 1181160, Note_on_c, 3, 69, 93
5, 1181276, Note_off_c, 3, 69, 64
5, 1181280, Note_on_c, 3, 71, 95
5, 1181396, Note_off_c, 3, 71, 64
5, 1181400, Note_on_c, 3, 73, 92
5, 1181516, Note_off_c, 3, 73, 64
5, 1181520, Note_on_c, 3, 74, 96
5, 1181636, Note_off_c, 3, 74, 64
5, 1181640, Note_on_c, 3, 71, 97
5, 1181756, Note_off_c, 3, 71, 64
5, 1181760, Note_on_c, 3, 73, 99
5, 1181876, Note_off_c, 3, 73, 64
5, 1181880, Note_on_c, 3, 71, 97
5, 1181996, Note_off_c, 3, 71, 64
5, 1182000, Note_on_c, 3, 69, 78
5, 1182116, Note_off_c, 3, 69, 64
5, 1182120, Note_on_c, 3, 67, 85
5, 1182236, Note_off_c, 3, 67, 64
5, 1182240, Note_on_c, 3, 66, 94
5, 1182356, Note_off_c, 3, 66, 64
5, 1182360, Note_on_c, 3, 64, 97
5, 1182476, Note_off_c, 3, 64, 64
5, 1182480, Note_on_c, 3, 63, 108
5, 1182596, Note_off_c, 3, 63, 64
5, 1182600, Note_on_c, 3, 61, 97
5, 1182716, Note_off_c, 3, 61, 64
5, 1182720, Note_on_c, 3, 59, 85
5, 1182836, Note_off_c, 3, 59, 64
5, 1182840, Note_on_c, 3, 57, 90
5, 1182956, Note_off_c, 3, 57, 64
5, 1182960, Note_on_c, 3, 55, 82
5, 1183076, Note_off_c, 3, 55, 64
5, 1183080, Note_on_c, 3, 54, 97
5, 1183196, Note_off_c, 3, 54, 64
5, 1183200, Note_on_c, 3, 52, 92
5, 1183316, Note_off_c, 3, 52, 64
5, 1183320, Note_on_c, 3, 55, 69
5, 1183436, Note_off_c, 3, 55, 64
5, 1183440, Note_on_c, 3, 59, 92
5, 1183556, Note_off_c, 3, 59, 64
5, 1183560, Note_on_c, 3, 63, 93
5, 1183676, Note_off_c, 3, 63, 64
5, 1183680, Note_on_c, 3, 64, 102
5, 1184036, Note_off_c, 3, 64, 64
5, 1184040, Note_on_c, 3, 66, 94
5, 1184156, Note_off_c, 3, 66, 64
5, 1184160, Note_on_c, 3, 67, 93
5, 1184276, Note_off_c, 3, 67, 64
5, 1184280, Note_on_c, 3, 69, 89
5, 1184396, Note_off_c, 3, 69, 64
5, 1184400, Note_on_c, 3, 71, 97
5, 1184516, Note_off_c, 3, 71, 64
5, 1184520, Note_on_c, 3, 67, 93
5, 1184636, Note_off_c, 3, 67, 64
5, 1184640, Note_on_c, 3, 69, 96
5, 1184760, Note_off_c, 3, 69, 64
5, 1184760, Note_on_c, 3, 62, 77
5, 1184876, Note_off_c, 3, 62, 64
5, 1184880, Note_on_c, 3, 61, 84
5, 1184996, Note_off_c, 3, 61, 64
5, 1185000, Note_on_c, 3, 59, 85
5, 1185116, Note_off_c, 3, 59, 64
5, 1185120, Note_on_c, 3, 61, 96
5, 1185236, Note_off_c, 3, 61, 64
5, 1185240, Note_on_c, 3, 64, 91
5, 1185356, Note_off_c, 3, 64, 64
5, 1185360, Note_on_c, 3, 69, 75
5, 1185476, Note_off_c, 3, 69, 64
5, 1185480, Note_on_c, 3, 71, 95
5, 1185596, Note_off_c, 3, 71, 64
5, 1185600, Note_on_c, 3, 73, 93
5, 1185716, Note_off_c, 3, 73, 64
5, 1185720, Note_on_c, 3, 76, 113
5, 1185836, Note_off_c, 3, 76, 64
5, 1185840, Note_on_c, 3, 79, 85
5, 1185956, Note_off_c, 3, 79, 64
5, 1185960, Note_on_c, 3, 71, 77
5, 1186076, Note_off_c, 3, 71, 64
5, 1186080, Note_on_c, 3, 69, 89
5, 1186196, Note_off_c, 3, 69, 64
5, 1186200, Note_on_c, 3, 78, 88
5, 1186316, Note_off_c, 3, 78, 64
5, 1186320, Note_on_c, 3, 67, 86
5, 1186436, Note_off_c, 3, 67, 64
5, 1186440, Note_on_c, 3, 76, 95
5, 1186556, Note_off_c, 3, 76, 64
5, 1186560, Note_on_c, 3, 66, 88
5, 1186676, Note_off_c, 3, 66, 64
5, 1186680, Note_on_c, 3, 74, 97
5, 1186796, Note_off_c, 3, 74, 64
5, 1186800, Note_on_c, 3, 64, 91
5, 1186916, Note_off_c, 3, 64, 64
5, 1186920, Note_on_c, 3, 72, 92
5, 1187036, Note_off_c, 3, 72, 64
5, 1187040, Note_on_c, 3, 62, 88
5, 1187156, Note_off_c, 3, 62, 64
5, 1187160, Note_on_c, 3, 71, 93
5, 1187276, Note_off_c, 3, 71, 64
5, 1187280, Note_on_c, 3, 60, 76
5, 1187396, Note_off_c, 3, 60, 64
5, 1187400, Note_on_c, 3, 69, 85
5, 1187516, Note_off_c, 3, 69, 64
5, 1187520, Note_on_c, 3, 59, 86
5, 1187636, Note_off_c, 3, 59, 64
5, 1187640, Note_on_c, 3, 67, 91
5, 1187756, Note_off_c, 3, 67, 64
5, 1187760, Note_on_c, 3, 57, 72
5, 1187876, Note_off_c, 3, 57, 64
5, 1187880, Note_on_c, 3, 66, 93
5, 1187996, Note_off_c, 3, 66, 64
5, 1188000, Note_on_c, 3, 55, 70
5, 1188116, Note_off_c, 3, 55, 64
5, 1188120, Note_on_c, 3, 64, 96
5, 1188236, Note_off_c, 3, 64, 64
5, 1188240, Note_on_c, 3, 54, 94
5, 1188356, Note_off_c, 3, 54, 64
5, 1188360, Note_on_c, 3, 62, 101
5, 1188476, Note_off_c, 3, 62, 64
5, 1188480, Note_on_c, 3, 52, 96
5, 1188596, Note_off_c, 3, 52, 64
5, 1188600, Note_on_c, 3, 61, 108
5, 1188716, Note_off_c, 3, 61, 64
5, 1188720, Note_on_c, 3, 50, 85
5, 1188836, Note_off_c, 3, 50, 64
5, 1188840, Note_on_c, 3, 59, 98
5, 1188956, Note_off_c, 3, 59, 64
5, 1188960, Note_on_c, 3, 49, 89
5, 1189076, Note_off_c, 3, 49, 64
5, 1189080, Note_on_c, 3, 57, 100
5, 1189196, Note_off_c, 3, 57, 64
5, 1189200, Note_on_c, 3, 47, 82
5, 1189316, Note_off_c, 3, 47, 64
5, 1189320, Note_on_c, 3, 55, 83
5, 1189436, Note_off_c, 3, 55, 64
5, 1189440, Note_on_c, 3, 45, 81
5, 1189556, Note_off_c, 3, 45, 64
5, 1189560, Note_on_c, 3, 54, 102
5, 1189676, Note_off_c, 3, 54, 64
5, 1189680, Note_on_c, 3, 43, 74
5, 1189796, Note_off_c, 3, 43, 64
5, 1189800, Note_on_c, 3, 52, 96
5, 1189916, Note_off_c, 3, 52, 64
5, 1189920, Note_on_c, 3, 42, 81
5, 1190036, Note_off_c, 3, 42, 64
5, 1190040, Note_on_c, 3, 50, 93
5, 1190156, Note_off_c, 3, 50, 64
5, 1190160, Note_on_c, 3, 40, 59
5, 1190276, Note_off_c, 3, 40, 64
5, 1190280, Note_on_c, 3, 49, 90
5, 1190396, Note_off_c, 3, 49, 64
5, 1190400, Note_on_c, 3, 50, 115
5, 1190516, Note_off_c, 3, 50, 64
5, 1190520, Note_on_c, 3, 49, 101
5, 1190636, Note_off_c, 3, 49, 64
5, 1190640, Note_on_c, 3, 50, 100
5, 1190756, Note_off_c, 3, 50, 64
5, 1190760, Note_on_c, 3, 49, 85
5, 1190876, Note_off_c, 3, 49, 64
5, 1190880, Note_on_c, 3, 50, 101
5, 1190996, Note_off_c, 3, 50, 64
5, 1191000, Note_on_c, 3, 45, 83
5, 1191116, Note_off_c, 3, 45, 64
5, 1191120, Note_on_c, 3, 42, 84
5, 1191236, Note_off_c, 3, 42, 64
5, 1191240, Note_on_c, 3, 45, 98
5, 1191356, Note_off_c, 3, 45, 64
5, 1191360, Note_on_c, 3, 38, 111
5, 1191600, Note_off_c, 3, 38, 64
5, 1191840, Note_on_c, 3, 38, 85
5, 1191956, Note_off_c, 3, 38, 64
5, 1191960, Note_on_c, 3, 42, 90
5, 1192076, Note_off_c, 3, 42, 64
5, 1192080, Note_on_c, 3, 45, 90
5, 1192196, Note_off_c, 3, 45, 64
5, 1192200, Note_on_c, 3, 49, 90
5, 1192316, Note_off_c, 3, 49, 64
5, 1192320, Note_on_c, 3, 50, 83
5, 1192676, Note_off_c, 3, 50, 64
5, 1192680, Note_on_c, 3, 52, 101
5, 1192796, Note_off_c, 3, 52, 64
5, 1192800, Note_on_c, 3, 54, 93
5, 1192916, Note_off_c, 3, 54, 64
5, 1192920, Note_on_c, 3, 55, 92
5, 1193036, Note_off_c, 3, 55, 64
5, 1193040, Note_on_c, 3, 57, 90
5, 1193156, Note_off_c, 3, 57, 64
5, 1193160, Note_on_c, 3, 54, 89
5, 1193276, Note_off_c, 3, 54, 64
5, 1193280, Note_on_c, 3, 55, 95
5, 1193396, Note_off_c, 3, 55, 64
5, 1193400, Note_on_c, 3, 47, 85
5, 1193516, Note_off_c, 3, 47, 64
5, 1193520, Note_on_c, 3, 48, 97
5, 1193636, Note_off_c, 3, 48, 64
5, 1193640, Note_on_c, 3, 50, 92
5, 1193756, Note_off_c, 3, 50, 64
5, 1193760, Note_on_c, 3, 43, 109
5, 1194116, Note_off_c, 3, 43, 64
5, 1194120, Note_on_c, 3, 54, 108
5, 1194236, Note_off_c, 3, 54, 64
5, 1194240, Note_on_c, 3, 55, 85
5, 1194356, Note_off_c, 3, 55, 64
5, 1194360, Note_on_c, 3, 57, 96
5, 1194476, Note_off_c, 3, 57, 64
5, 1194480, Note_on_c, 3, 59, 93
5, 1194596, Note_off_c, 3, 59, 64
5, 1194600, Note_on_c, 3, 56, 97
5, 1194716, Note_off_c, 3, 56, 64
5, 1194720, Note_on_c, 3, 57, 92
5, 1194836, Note_off_c, 3, 57, 64
5, 1194840, Note_on_c, 3, 48, 85
5, 1194956, Note_off_c, 3, 48, 64
5, 1194960, Note_on_c, 3, 50, 85
5, 1195076, Note_off_c, 3, 50, 64
5, 1195080, Note_on_c, 3, 52, 96
5, 1195196, Note_off_c, 3, 52, 64
5, 1195200, Note_on_c, 3, 45, 101
5, 1195556, Note_off_c, 3, 45, 64
5, 1195560, Note_on_c, 3, 56, 101
5, 1195676, Note_off_c, 3, 56, 64
5, 1195680, Note_on_c, 3, 57, 96
5, 1195796, Note_off_c, 3, 57, 64
5, 1195800, Note_on_c, 3, 59, 100
5, 1195916, Note_off_c, 3, 59, 64
5, 1195920, Note_on_c, 3, 60, 106
5, 1196036, Note_off_c, 3, 60, 64
5, 1196040, Note_on_c, 3, 57, 96
5, 1196156, Note_off_c, 3, 57, 64
5, 1196160, Note_on_c, 3, 59, 95
5, 1196276, Note_off_c, 3, 59, 64
5, 1196280, Note_on_c, 3, 58, 108
5, 1196396, Note_off_c, 3, 58, 64
5, 1196400, Note_on_c, 3, 59, 102
5, 1196516, Note_off_c, 3, 59, 64
5, 1196520, Note_on_c, 3, 58, 101
5, 1196636, Note_off_c, 3, 58, 64
5, 1196640, Note_on_c, 3, 59, 101
5, 1196756, Note_off_c, 3, 59, 64
5, 1196760, Note_on_c, 3, 54, 97
5, 1196876, Note_off_c, 3, 54, 64
5, 1196880, Note_on_c, 3, 55, 93
5, 1196996, Note_off_c, 3, 55, 64
5, 1197000, Note_on_c, 3, 57, 93
5, 1197116, Note_off_c, 3, 57, 64
5, 1197120, Note_on_c, 3, 47, 111
5, 1197356, Note_off_c, 3, 47, 64
5, 1197360, Note_on_c, 3, 64, 92
5, 1197420, Note_off_c, 3, 64, 64
5, 1197420, Note_on_c, 3, 63, 90
5, 1197480, Note_off_c, 3, 63, 64
5, 1197480, Note_on_c, 3, 60, 92
5, 1197540, Note_off_c, 3, 60, 64
5, 1197540, Note_on_c, 3, 63, 92
5, 1197600, Note_off_c, 3, 63, 64
5, 1197600, Note_on_c, 3, 64, 115
5, 1197716, Note_off_c, 3, 64, 64
5, 1197720, Note_on_c, 3, 67, 72
5, 1197836, Note_off_c, 3, 67, 64
5, 1197840, Note_on_c, 3, 66, 108
5, 1197956, Note_off_c, 3, 66, 64
5, 1197960, Note_on_c, 3, 69, 96
5, 1198076, Note_off_c, 3, 69, 64
5, 1198080, Note_on_c, 3, 67, 106
5, 1198196, Note_off_c, 3, 67, 64
5, 1198200, Note_on_c, 3, 66, 101
5, 1198316, Note_off_c, 3, 66, 64
5, 1198320, Note_on_c, 3, 64, 96
5, 1198436, Note_off_c, 3, 64, 64
5, 1198440, Note_on_c, 3, 67, 91
5, 1198556, Note_off_c, 3, 67, 64
5, 1198560, Note_on_c, 3, 66, 96
5, 1198676, Note_off_c, 3, 66, 64
5, 1198680, Note_on_c, 3, 63, 90
5, 1198796, Note_off_c, 3, 63, 64
5, 1198800, Note_on_c, 3, 64, 95
5, 1198916, Note_off_c, 3, 64, 64
5, 1198920, Note_on_c, 3, 61, 89
5, 1199036, Note_off_c, 3, 61, 64
5, 1199040, Note_on_c, 3, 63, 112
5, 1199156, Note_off_c, 3, 63, 64
5, 1199160, Note_on_c, 3, 61, 104
5, 1199276, Note_off_c, 3, 61, 64
5, 1199280, Note_on_c, 3, 59, 88
5, 1199396, Note_off_c, 3, 59, 64
5, 1199400, Note_on_c, 3, 62, 106
5, 1199516, Note_off_c, 3, 62, 64
5, 1199520, Note_on_c, 3, 60, 100
5, 1199636, Note_off_c, 3, 60, 64
5, 1199640, Note_on_c, 3, 57, 90
5, 1199756, Note_off_c, 3, 57, 64
5, 1199760, Note_on_c, 3, 59, 61
5, 1199876, Note_off_c, 3, 59, 64
5, 1199880, Note_on_c, 3, 56, 89
5, 1199996, Note_off_c, 3, 56, 64
5, 1200000, Note_on_c, 3, 57, 96
5, 1200116, Note_off_c, 3, 57, 64
5, 1200120, Note_on_c, 3, 55, 70
5, 1200236, Note_off_c, 3, 55, 64
5, 1200240, Note_on_c, 3, 54, 93
5, 1200356, Note_off_c, 3, 54, 64
5, 1200360, Note_on_c, 3, 57, 60
5, 1200476, Note_off_c, 3, 57, 64
5, 1200480, Note_on_c, 3, 55, 88
5, 1200596, Note_off_c, 3, 55, 64
5, 1200600, Note_on_c, 3, 52, 96
5, 1200716, Note_off_c, 3, 52, 64
5, 1200720, Note_on_c, 3, 54, 106
5, 1200836, Note_off_c, 3, 54, 64
5, 1200840, Note_on_c, 3, 51, 96
5, 1200956, Note_off_c, 3, 51, 64
5, 1200960, Note_on_c, 3, 52, 101
5, 1201076, Note_off_c, 3, 52, 64
5, 1201080, Note_on_c, 3, 51, 75
5, 1201196, Note_off_c, 3, 51, 64
5, 1201200, Note_on_c, 3, 49, 97
5, 1201316, Note_off_c, 3, 49, 64
5, 1201320, Note_on_c, 3, 52, 97
5, 1201436, Note_off_c, 3, 52, 64
5, 1201440, Note_on_c, 3, 51, 93
5, 1201556, Note_off_c, 3, 51, 64
5, 1201560, Note_on_c, 3, 52, 102
5, 1201676, Note_off_c, 3, 52, 64
5, 1201680, Note_on_c, 3, 54, 104
5, 1201796, Note_off_c, 3, 54, 64
5, 1201800, Note_on_c, 3, 51, 88
5, 1201916, Note_off_c, 3, 51, 64
5, 1201920, Note_on_c, 3, 52, 84
5, 1202036, Note_off_c, 3, 52, 64
5, 1202040, Note_on_c, 3, 43, 90
5, 1202156, Note_off_c, 3, 43, 64
5, 1202160, Note_on_c, 3, 45, 98
5, 1202276, Note_off_c, 3, 45, 64
5, 1202280, Note_on_c, 3, 47, 97
5, 1202396, Note_off_c, 3, 47, 64
5, 1202400, Note_on_c, 3, 40, 84
5, 1202516, Note_off_c, 3, 40, 64
5, 1202520, Note_on_c, 3, 42, 72
5, 1202636, Note_off_c, 3, 42, 64
5, 1202640, Note_on_c, 3, 43, 89
5, 1202756, Note_off_c, 3, 43, 64
5, 1202760, Note_on_c, 3, 45, 98
5, 1202876, Note_off_c, 3, 45, 64
5, 1202880, Note_on_c, 3, 47, 102
5, 1202996, Note_off_c, 3, 47, 64
5, 1203000, Note_on_c, 3, 48, 102
5, 1203116, Note_off_c, 3, 48, 64
5, 1203120, Note_on_c, 3, 50, 101
5, 1203236, Note_off_c, 3, 50, 64
5, 1203240, Note_on_c, 3, 47, 98
5, 1203356, Note_off_c, 3, 47, 64
5, 1203360, Note_on_c, 3, 48, 98
5, 1203476, Note_off_c, 3, 48, 64
5, 1203480, Note_on_c, 3, 52, 88
5, 1203596, Note_off_c, 3, 52, 64
5, 1203600, Note_on_c, 3, 50, 89
5, 1203716, Note_off_c, 3, 50, 64
5, 1203720, Note_on_c, 3, 53, 92
5, 1203836, Note_off_c, 3, 53, 64
5, 1203840, Note_on_c, 3, 52, 92
5, 1203956, Note_off_c, 3, 52, 64
5, 1203960, Note_on_c, 3, 55, 86
5, 1204076, Note_off_c, 3, 55, 64
5, 1204080, Note_on_c, 3, 54, 92
5, 1204196, Note_off_c, 3, 54, 64
5, 1204200, Note_on_c, 3, 57, 93
5, 1204316, Note_off_c, 3, 57, 64
5, 1204320, Note_on_c, 3, 56, 84
5, 1204436, Note_off_c, 3, 56, 64
5, 1204440, Note_on_c, 3, 59, 93
5, 1204556, Note_off_c, 3, 59, 64
5, 1204560, Note_on_c, 3, 57, 91
5, 1204676, Note_off_c, 3, 57, 64
5, 1204680, Note_on_c, 3, 60, 97
5, 1204796, Note_off_c, 3, 60, 64
5, 1204800, Note_on_c, 3, 59, 81
5, 1204916, Note_off_c, 3, 59, 64
5, 1204920, Note_on_c, 3, 62, 91
5, 1205036, Note_off_c, 3, 62, 64
5, 1205040, Note_on_c, 3, 60, 88
5, 1205156, Note_off_c, 3, 60, 64
5, 1205160, Note_on_c, 3, 64, 95
5, 1205276, Note_off_c, 3, 64, 64
5, 1205280, Note_on_c, 3, 62, 88
5, 1205396, Note_off_c, 3, 62, 64
5, 1205400, Note_on_c, 3, 65, 93
5, 1205516, Note_off_c, 3, 65, 64
5, 1205520, Note_on_c, 3, 64, 82
5, 1205636, Note_off_c, 3, 64, 64
5, 1205640, Note_on_c, 3, 68, 85
5, 1205756, Note_off_c, 3, 68, 64
5, 1205760, Note_on_c, 3, 66, 89
5, 1205876, Note_off_c, 3, 66, 64
5, 1205880, Note_on_c, 3, 69, 89
5, 1205996, Note_off_c, 3, 69, 64
5, 1206000, Note_on_c, 3, 68, 84
5, 1206116, Note_off_c, 3, 68, 64
5, 1206120, Note_on_c, 3, 71, 88
5, 1206236, Note_off_c, 3, 71, 64
5, 1206240, Note_on_c, 3, 69, 96
5, 1206356, Note_off_c, 3, 69, 64
5, 1206360, Note_on_c, 3, 72, 98
5, 1206476, Note_off_c, 3, 72, 64
5, 1206480, Note_on_c, 3, 71, 86
5, 1206596, Note_off_c, 3, 71, 64
5, 1206600, Note_on_c, 3, 74, 93
5, 1206716, Note_off_c, 3, 74, 64
5, 1206720, Note_on_c, 3, 72, 70
5, 1206836, Note_off_c, 3, 72, 64
5, 1206840, Note_on_c, 3, 69, 66
5, 1206956, Note_off_c, 3, 69, 64
5, 1206960, Note_on_c, 3, 71, 62
5, 1207076, Note_off_c, 3, 71, 64
5, 1207080, Note_on_c, 3, 67, 58
5, 1207196, Note_off_c, 3, 67, 64
5, 1207200, Note_on_c, 3, 69, 70
5, 1207316, Note_off_c, 3, 69, 64
5, 1207320, Note_on_c, 3, 66, 70
5, 1207436, Note_off_c, 3, 66, 64
5, 1207440, Note_on_c, 3, 67, 70
5, 1207556, Note_off_c, 3, 67, 64
5, 1207560, Note_on_c, 3, 64, 70
5, 1207676, Note_off_c, 3, 64, 64
5, 1207680, Note_on_c, 3, 65, 61
5, 1207796, Note_off_c, 3, 65, 64
5, 1207800, Note_on_c, 3, 62, 95
5, 1207916, Note_off_c, 3, 62, 64
5, 1207920, Note_on_c, 3, 64, 111
5, 1208036, Note_off_c, 3, 64, 64
5, 1208040, Note_on_c, 3, 61, 99
5, 1208156, Note_off_c, 3, 61, 64
5, 1208160, Note_on_c, 3, 62, 86
5, 1208276, Note_off_c, 3, 62, 64
5, 1208280, Note_on_c, 3, 71, 97
5, 1208396, Note_off_c, 3, 71, 64
5, 1208400, Note_on_c, 3, 60, 83
5, 1208516, Note_off_c, 3, 60, 64
5, 1208520, Note_on_c, 3, 69, 100
5, 1208636, Note_off_c, 3, 69, 64
5, 1208640, Note_on_c, 3, 59, 85
5, 1208756, Note_off_c, 3, 59, 64
5, 1208760, Note_on_c, 3, 67, 95
5, 1208876, Note_off_c, 3, 67, 64
5, 1208880, Note_on_c, 3, 57, 86
5, 1208996, Note_off_c, 3, 57, 64
5, 1209000, Note_on_c, 3, 66, 93
5, 1209116, Note_off_c, 3, 66, 64
5, 1209120, Note_on_c, 3, 59, 86
5, 1209360, Note_off_c, 3, 59, 64
5, 1209420, Note_on_c, 3, 62, 96
5, 1209480, Note_off_c, 3, 62, 64
5, 1209480, Note_on_c, 3, 64, 90
5, 1209540, Note_off_c, 3, 64, 64
5, 1209540, Note_on_c, 3, 66, 91
5, 1209600, Note_off_c, 3, 66, 64
5, 1209600, Note_on_c, 3, 67, 106
5, 1209716, Note_off_c, 3, 67, 64
5, 1209720, Note_on_c, 3, 64, 98
5, 1209836, Note_off_c, 3, 64, 64
5, 1209840, Note_on_c, 3, 65, 98
5, 1209956, Note_off_c, 3, 65, 64
5, 1209960, Note_on_c, 3, 62, 95
5, 1210076, Note_off_c, 3, 62, 64
5, 1210080, Note_on_c, 3, 64, 101
5, 1210196, Note_off_c, 3, 64, 64
5, 1210200, Note_on_c, 3, 60, 92
5, 1210316, Note_off_c, 3, 60, 64
5, 1210320, Note_on_c, 3, 62, 96
5, 1210436, Note_off_c, 3, 62, 64
5, 1210440, Note_on_c, 3, 59, 95
5, 1210556, Note_off_c, 3, 59, 64
5, 1210560, Note_on_c, 3, 55, 98
5, 1210676, Note_off_c, 3, 55, 64
5, 1210680, Note_on_c, 3, 52, 97
5, 1210796, Note_off_c, 3, 52, 64
5, 1210800, Note_on_c, 3, 53, 104
5, 1210916, Note_off_c, 3, 53, 64
5, 1210920, Note_on_c, 3, 50, 92
5, 1211036, Note_off_c, 3, 50, 64
5, 1211040, Note_on_c, 3, 52, 98
5, 1211156, Note_off_c, 3, 52, 64
5, 1211160, Note_on_c, 3, 60, 102
5, 1211276, Note_off_c, 3, 60, 64
5, 1211280, Note_on_c, 3, 50, 93
5, 1211396, Note_off_c, 3, 50, 64
5, 1211400, Note_on_c, 3, 59, 102
5, 1211516, Note_off_c, 3, 59, 64
5, 1211520, Note_on_c, 3, 48, 88
5, 1211636, Note_off_c, 3, 48, 64
5, 1211640, Note_on_c, 3, 57, 100
5, 1211756, Note_off_c, 3, 57, 64
5, 1211760, Note_on_c, 3, 47, 86
5, 1211876, Note_off_c, 3, 47, 64
5, 1211880, Note_on_c, 3, 55, 92
5, 1211996, Note_off_c, 3, 55, 64
5, 1212000, Note_on_c, 3, 45, 83
5, 1212116, Note_off_c, 3, 45, 64
5, 1212120, Note_on_c, 3, 55, 92
5, 1212236, Note_off_c, 3, 55, 64
5, 1212240, Note_on_c, 3, 54, 90
5, 1212356, Note_off_c, 3, 54, 64
5, 1212360, Note_on_c, 3, 48, 96
5, 1212476, Note_off_c, 3, 48, 64
5, 1212480, Note_on_c, 3, 47, 106
5, 1212596, Note_off_c, 3, 47, 64
5, 1212600, Note_on_c, 3, 50, 86
5, 1212716, Note_off_c, 3, 50, 64
5, 1212720, Note_on_c, 3, 55, 100
5, 1212836, Note_off_c, 3, 55, 64
5, 1212840, Note_on_c, 3, 59, 100
5, 1212956, Note_off_c, 3, 59, 64
5, 1212960, Note_on_c, 3, 62, 101
5, 1213076, Note_off_c, 3, 62, 64
5, 1213080, Note_on_c, 3, 59, 96
5, 1213196, Note_off_c, 3, 59, 64
5, 1213200, Note_on_c, 3, 60, 100
5, 1213316, Note_off_c, 3, 60, 64
5, 1213320, Note_on_c, 3, 57, 93
5, 1213436, Note_off_c, 3, 57, 64
5, 1213440, Note_on_c, 3, 59, 96
5, 1213556, Note_off_c, 3, 59, 64
5, 1213560, Note_on_c, 3, 57, 91
5, 1213676, Note_off_c, 3, 57, 64
5, 1213680, Note_on_c, 3, 59, 100
5, 1213796, Note_off_c, 3, 59, 64
5, 1213800, Note_on_c, 3, 57, 91
5, 1213916, Note_off_c, 3, 57, 64
5, 1213920, Note_on_c, 3, 59, 97
5, 1214036, Note_off_c, 3, 59, 64
5, 1214040, Note_on_c, 3, 54, 90
5, 1214156, Note_off_c, 3, 54, 64
5, 1214160, Note_on_c, 3, 50, 73
5, 1214276, Note_off_c, 3, 50, 64
5, 1214280, Note_on_c, 3, 47, 96
5, 1214396, Note_off_c, 3, 47, 64
5, 1214400, Note_on_c, 3, 43, 95
5, 1214640, Note_off_c, 3, 43, 64
5, 1216800, Note_on_c, 3, 55, 93
5, 1217036, Note_off_c, 3, 55, 64
5, 1217040, Note_on_c, 3, 57, 102
5, 1217276, Note_off_c, 3, 57, 64
5, 1217280, Note_on_c, 3, 59, 100
5, 1217756, Note_off_c, 3, 59, 64
5, 1217760, Note_on_c, 3, 60, 106
5, 1218236, Note_off_c, 3, 60, 64
5, 1218240, Note_on_c, 3, 62, 115
5, 1218716, Note_off_c, 3, 62, 64
5, 1218720, Note_on_c, 3, 50, 91
5, 1219196, Note_off_c, 3, 50, 64
5, 1219200, Note_on_c, 3, 62, 102
5, 1220636, Note_off_c, 3, 62, 64
5, 1220640, Note_on_c, 3, 64, 35
5, 1220876, Note_off_c, 3, 64, 64
5, 1220880, Note_on_c, 3, 62, 106
5, 1221116, Note_off_c, 3, 62, 64
5, 1221120, Note_on_c, 3, 61, 110
5, 1221596, Note_off_c, 3, 61, 64
5, 1221600, Note_on_c, 3, 57, 100
5, 1222076, Note_off_c, 3, 57, 64
5, 1222080, Note_on_c, 3, 62, 100
5, 1222556, Note_off_c, 3, 62, 64
5, 1222560, Note_on_c, 3, 50, 96
5, 1223036, Note_off_c, 3, 50, 64
5, 1223040, Note_on_c, 3, 62, 97
5, 1223516, Note_off_c, 3, 62, 64
5, 1223520, Note_on_c, 3, 60, 102
5, 1223996, Note_off_c, 3, 60, 64
5, 1224000, Note_on_c, 3, 59, 97
5, 1224060, Note_off_c, 3, 59, 64
5, 1224060, Note_on_c, 3, 60, 97
5, 1224120, Note_off_c, 3, 60, 64
5, 1224120, Note_on_c, 3, 59, 97
5, 1224480, Note_off_c, 3, 59, 64
5, 1224480, Note_on_c, 3, 57, 90
5, 1224716, Note_off_c, 3, 57, 64
5, 1224720, Note_on_c, 3, 59, 96
5, 1224956, Note_off_c, 3, 59, 64
5, 1224960, Note_on_c, 3, 60, 104
5, 1225436, Note_off_c, 3, 60, 64
5, 1225440, Note_on_c, 3, 48, 81
5, 1225916, Note_off_c, 3, 48, 64
5, 1225920, Note_on_c, 3, 60, 101
5, 1226396, Note_off_c, 3, 60, 64
5, 1226400, Note_on_c, 3, 59, 95
5, 1226636, Note_off_c, 3, 59, 64
5, 1226640, Note_on_c, 3, 60, 89
5, 1226876, Note_off_c, 3, 60, 64
5, 1226880, Note_on_c, 3, 62, 98
5, 1227356, Note_off_c, 3, 62, 64
5, 1227360, Note_on_c, 3, 57, 92
5, 1227836, Note_off_c, 3, 57, 64
5, 1227840, Note_on_c, 3, 50, 101
5, 1228316, Note_off_c, 3, 50, 64
5, 1228320, Note_on_c, 3, 54, 106
5, 1228556, Note_off_c, 3, 54, 64
5, 1228560, Note_on_c, 3, 52, 95
5, 1228796, Note_off_c, 3, 52, 64
5, 1228800, Note_on_c, 3, 54, 99
5, 1229276, Note_off_c, 3, 54, 64
5, 1229280, Note_on_c, 3, 50, 96
5, 1229756, Note_off_c, 3, 50, 64
5, 1229760, Note_on_c, 3, 55, 102
5, 1230236, Note_off_c, 3, 55, 64
5, 1230240, Note_on_c, 3, 50, 96
5, 1230716, Note_off_c, 3, 50, 64
5, 1230720, Note_on_c, 3, 43, 92
5, 1231196, Note_off_c, 3, 43, 64
5, 1231200, Note_on_c, 3, 55, 85
5, 1231436, Note_off_c, 3, 55, 64
5, 1231440, Note_on_c, 3, 57, 93
5, 1231676, Note_off_c, 3, 57, 64
5, 1231680, Note_on_c, 3, 59, 101
5, 1232156, Note_off_c, 3, 59, 64
5, 1232160, Note_on_c, 3, 57, 51
5, 1232396, Note_off_c, 3, 57, 64
5, 1232400, Note_on_c, 3, 59, 81
5, 1232636, Note_off_c, 3, 59, 64
5, 1232640, Note_on_c, 3, 61, 92
5, 1233116, Note_off_c, 3, 61, 64
5, 1233120, Note_on_c, 3, 59, 91
5, 1233356, Note_off_c, 3, 59, 64
5, 1233360, Note_on_c, 3, 61, 84
5, 1233596, Note_off_c, 3, 61, 64
5, 1233600, Note_on_c, 3, 62, 88
5, 1234076, Note_off_c, 3, 62, 64
5, 1234080, Note_on_c, 3, 61, 97
5, 1234556, Note_off_c, 3, 61, 64
5, 1234560, Note_on_c, 3, 59, 88
5, 1235036, Note_off_c, 3, 59, 64
5, 1235040, Note_on_c, 3, 57, 98
5, 1235516, Note_off_c, 3, 57, 64
5, 1235520, Note_on_c, 3, 55, 97
5, 1235996, Note_off_c, 3, 55, 64
5, 1236000, Note_on_c, 3, 54, 92
5, 1236476, Note_off_c, 3, 54, 64
5, 1236480, Note_on_c, 3, 52, 90
5, 1236956, Note_off_c, 3, 52, 64
5, 1236960, Note_on_c, 3, 50, 95
5, 1237436, Note_off_c, 3, 50, 64
5, 1237440, Note_on_c, 3, 49, 101
5, 1237916, Note_off_c, 3, 49, 64
5, 1237920, Note_on_c, 3, 47, 106
5, 1238156, Note_off_c, 3, 47, 64
5, 1238160, Note_on_c, 3, 49, 94
5, 1238396, Note_off_c, 3, 49, 64
5, 1238400, Note_on_c, 3, 50, 102
5, 1238876, Note_off_c, 3, 50, 64
5, 1238880, Note_on_c, 3, 49, 97
5, 1239116, Note_off_c, 3, 49, 64
5, 1239120, Note_on_c, 3, 50, 92
5, 1239356, Note_off_c, 3, 50, 64
5, 1239360, Note_on_c, 3, 47, 101
5, 1239836, Note_off_c, 3, 47, 64
5, 1239840, Note_on_c, 3, 45, 95
5, 1240076, Note_off_c, 3, 45, 64
5, 1240080, Note_on_c, 3, 47, 104
5, 1240316, Note_off_c, 3, 47, 64
5, 1240320, Note_on_c, 3, 49, 97
5, 1240796, Note_off_c, 3, 49, 64
5, 1240800, Note_on_c, 3, 47, 98
5, 1241036, Note_off_c, 3, 47, 64
5, 1241040, Note_on_c, 3, 49, 96
5, 1241276, Note_off_c, 3, 49, 64
5, 1241280, Note_on_c, 3, 46, 106
5, 1241756, Note_off_c, 3, 46, 64
5, 1241760, Note_on_c, 3, 44, 106
5, 1241996, Note_off_c, 3, 44, 64
5, 1242000, Note_on_c, 3, 46, 104
5, 1242236, Note_off_c, 3, 46, 64
5, 1242240, Note_on_c, 3, 47, 106
5, 1242476, Note_off_c, 3, 47, 64
5, 1242480, Note_on_c, 3, 45, 96
5, 1242716, Note_off_c, 3, 45, 64
5, 1242720, Note_on_c, 3, 43, 86
5, 1242956, Note_off_c, 3, 43, 64
5, 1242960, Note_on_c, 3, 42, 89
5, 1243196, Note_off_c, 3, 42, 64
5, 1243200, Note_on_c, 3, 43, 104
5, 1243676, Note_off_c, 3, 43, 64
5, 1243680, Note_on_c, 3, 40, 96
5, 1244156, Note_off_c, 3, 40, 64
5, 1244160, Note_on_c, 3, 45, 104
5, 1244636, Note_off_c, 3, 45, 64
5, 1244640, Note_on_c, 3, 33, 109
5, 1245116, Note_off_c, 3, 33, 64
5, 1245120, Note_on_c, 3, 38, 74
5, 1245596, Note_off_c, 3, 38, 64
5, 1245600, Note_on_c, 3, 45, 90
5, 1246076, Note_off_c, 3, 45, 64
5, 1246080, Note_on_c, 3, 50, 101
5, 1246796, Note_off_c, 3, 50, 64
5, 1247520, Note_on_c, 3, 55, 93
5, 1247756, Note_off_c, 3, 55, 64
5, 1247760, Note_on_c, 3, 57, 102
5, 1247996, Note_off_c, 3, 57, 64
5, 1248000, Note_on_c, 3, 59, 100
5, 1248360, Note_off_c, 3, 59, 64
5, 1248480, Note_on_c, 3, 60, 106
5, 1248840, Note_off_c, 3, 60, 64
5, 1248960, Note_on_c, 3, 62, 115
5, 1249320, Note_off_c, 3, 62, 64
5, 1249440, Note_on_c, 3, 50, 91
5, 1249916, Note_off_c, 3, 50, 64
5, 1249920, Note_on_c, 3, 62, 102
5, 1251356, Note_off_c, 3, 62, 64
5, 1251360, Note_on_c, 3, 64, 35
5, 1251596, Note_off_c, 3, 64, 64
5, 1251600, Note_on_c, 3, 62, 106
5, 1251836, Note_off_c, 3, 62, 64
5, 1251840, Note_on_c, 3, 61, 110
5, 1252316, Note_off_c, 3, 61, 64
5, 1252320, Note_on_c, 3, 57, 100
5, 1252796, Note_off_c, 3, 57, 64
5, 1252800, Note_on_c, 3, 62, 100
5, 1253276, Note_off_c, 3, 62, 64
5, 1253280, Note_on_c, 3, 50, 96
5, 1253756, Note_off_c, 3, 50, 64
5, 1253760, Note_on_c, 3, 62, 97
5, 1254236, Note_off_c, 3, 62, 64
5, 1254240, Note_on_c, 3, 60, 102
5, 1254716, Note_off_c, 3, 60, 64
5, 1254720, Note_on_c, 3, 59, 97
5, 1254780, Note_off_c, 3, 59, 64
5, 1254780, Note_on_c, 3, 60, 97
5, 1254840, Note_off_c, 3, 60, 64
5, 1254840, Note_on_c, 3, 59, 97
5, 1255200, Note_off_c, 3, 59, 64
5, 1255200, Note_on_c, 3, 57, 90
5, 1255436, Note_off_c, 3, 57, 64
5, 1255440, Note_on_c, 3, 59, 96
5, 1255676, Note_off_c, 3, 59, 64
5, 1255680, Note_on_c, 3, 60, 104
5, 1256156, Note_off_c, 3, 60, 64
5, 1256160, Note_on_c, 3, 48, 81
5, 1256636, Note_off_c, 3, 48, 64
5, 1256640, Note_on_c, 3, 60, 101
5, 1257116, Note_off_c, 3, 60, 64
5, 1257120, Note_on_c, 3, 59, 95
5, 1257356, Note_off_c, 3, 59, 64
5, 1257360, Note_on_c, 3, 60, 89
5, 1257596, Note_off_c, 3, 60, 64
5, 1257600, Note_on_c, 3, 62, 98
5, 1258076, Note_off_c, 3, 62, 64
5, 1258080, Note_on_c, 3, 57, 92
5, 1258556, Note_off_c, 3, 57, 64
5, 1258560, Note_on_c, 3, 50, 101
5, 1259036, Note_off_c, 3, 50, 64
5, 1259040, Note_on_c, 3, 54, 106
5, 1259276, Note_off_c, 3, 54, 64
5, 1259280, Note_on_c, 3, 52, 95
5, 1259516, Note_off_c, 3, 52, 64
5, 1259520, Note_on_c, 3, 54, 99
5, 1259996, Note_off_c, 3, 54, 64
5, 1260000, Note_on_c, 3, 50, 96
5, 1260476, Note_off_c, 3, 50, 64
5, 1260480, Note_on_c, 3, 55, 102
5, 1260840, Note_off_c, 3, 55, 64
5, 1260960, Note_on_c, 3, 50, 96
5, 1261320, Note_off_c, 3, 50, 64
5, 1261440, Note_on_c, 3, 43, 92
5, 1261916, Note_off_c, 3, 43, 64
5, 1261920, Note_on_c, 3, 55, 85
5, 1262156, Note_off_c, 3, 55, 64
5, 1262160, Note_on_c, 3, 57, 93
5, 1262396, Note_off_c, 3, 57, 64
5, 1262400, Note_on_c, 3, 59, 101
5, 1262876, Note_off_c, 3, 59, 64
5, 1262880, Note_on_c, 3, 57, 51
5, 1263116, Note_off_c, 3, 57, 64
5, 1263120, Note_on_c, 3, 59, 81
5, 1263356, Note_off_c, 3, 59, 64
5, 1263360, Note_on_c, 3, 61, 92
5, 1263836, Note_off_c, 3, 61, 64
5, 1263840, Note_on_c, 3, 59, 91
5, 1264076, Note_off_c, 3, 59, 64
5, 1264080, Note_on_c, 3, 61, 84
5, 1264316, Note_off_c, 3, 61, 64
5, 1264320, Note_on_c, 3, 62, 88
5, 1264796, Note_off_c, 3, 62, 64
5, 1264800, Note_on_c, 3, 61, 97
5, 1265276, Note_off_c, 3, 61, 64
5, 1265280, Note_on_c, 3, 59, 88
5, 1265756, Note_off_c, 3, 59, 64
5, 1265760, Note_on_c, 3, 57, 98
5, 1266236, Note_off_c, 3, 57, 64
5, 1266240, Note_on_c, 3, 55, 97
5, 1266716, Note_off_c, 3, 55, 64
5, 1266720, Note_on_c, 3, 54, 92
5, 1267196, Note_off_c, 3, 54, 64
5, 1267200, Note_on_c, 3, 52, 90
5, 1267676, Note_off_c, 3, 52, 64
5, 1267680, Note_on_c, 3, 50, 95
5, 1268156, Note_off_c, 3, 50, 64
5, 1268160, Note_on_c, 3, 49, 101
5, 1268636, Note_off_c, 3, 49, 64
5, 1268640, Note_on_c, 3, 47, 106
5, 1268876, Note_off_c, 3, 47, 64
5, 1268880, Note_on_c, 3, 49, 94
5, 1269116, Note_off_c, 3, 49, 64
5, 1269120, Note_on_c, 3, 50, 102
5, 1269596, Note_off_c, 3, 50, 64
5, 1269600, Note_on_c, 3, 49, 97
5, 1269836, Note_off_c, 3, 49, 64
5, 1269840, Note_on_c, 3, 50, 92
5, 1270076, Note_off_c, 3, 50, 64
5, 1270080, Note_on_c, 3, 47, 101
5, 1270556, Note_off_c, 3, 47, 64
5, 1270560, Note_on_c, 3, 45, 95
5, 1270796, Note_off_c, 3, 45, 64
5, 1270800, Note_on_c, 3, 47, 104
5, 1271036, Note_off_c, 3, 47, 64
5, 1271040, Note_on_c, 3, 49, 97
5, 1271516, Note_off_c, 3, 49, 64
5, 1271520, Note_on_c, 3, 47, 98
5, 1271756, Note_off_c, 3, 47, 64
5, 1271760, Note_on_c, 3, 49, 96
5, 1271996, Note_off_c, 3, 49, 64
5, 1272000, Note_on_c, 3, 46, 106
5, 1272476, Note_off_c, 3, 46, 64
5, 1272480, Note_on_c, 3, 44, 106
5, 1272716, Note_off_c, 3, 44, 64
5, 1272720, Note_on_c, 3, 46, 104
5, 1272956, Note_off_c, 3, 46, 64
5, 1272960, Note_on_c, 3, 47, 106
5, 1273196, Note_off_c, 3, 47, 64
5, 1273200, Note_on_c, 3, 45, 96
5, 1273436, Note_off_c, 3, 45, 64
5, 1273440, Note_on_c, 3, 43, 86
5, 1273676, Note_off_c, 3, 43, 64
5, 1273680, Note_on_c, 3, 42, 89
5, 1273916, Note_off_c, 3, 42, 64
5, 1273920, Note_on_c, 3, 43, 104
5, 1274396, Note_off_c, 3, 43, 64
5, 1274400, Note_on_c, 3, 40, 96
5, 1274876, Note_off_c, 3, 40, 64
5, 1274880, Note_on_c, 3, 45, 104
5, 1275120, Note_off_c, 3, 45, 64
5, 1275360, Note_on_c, 3, 33, 109
5, 1275836, Note_off_c, 3, 33, 64
5, 1275840, Note_on_c, 3, 38, 74
5, 1276316, Note_off_c, 3, 38, 64
5, 1276320, Note_on_c, 3, 45, 90
5, 1276796, Note_off_c, 3, 45, 64
5, 1276800, Note_on_c, 3, 50, 101
5, 1277516, Note_off_c, 3, 50, 64
5, 1278240, Note_on_c, 3, 50, 96
5, 1278476, Note_off_c, 3, 50, 64
5, 1278480, Note_on_c, 3, 52, 97
5, 1278716, Note_off_c, 3, 52, 64
5, 1278720, Note_on_c, 3, 54, 97
5, 1279196, Note_off_c, 3, 54, 64
5, 1279200, Note_on_c, 3, 50, 90
5, 1279676, Note_off_c, 3, 50, 64
5, 1279680, Note_on_c, 3, 55, 98
5, 1280156, Note_off_c, 3, 55, 64
5, 1280160, Note_on_c, 3, 43, 84
5, 1280636, Note_off_c, 3, 43, 64
5, 1280640, Note_on_c, 3, 55, 95
5, 1281116, Note_off_c, 3, 55, 64
5, 1281120, Note_on_c, 3, 57, 37
5, 1281356, Note_off_c, 3, 57, 64
5, 1281360, Note_on_c, 3, 59, 93
5, 1281596, Note_off_c, 3, 59, 64
5, 1281600, Note_on_c, 3, 60, 101
5, 1282076, Note_off_c, 3, 60, 64
5, 1282080, Note_on_c, 3, 59, 83
5, 1282556, Note_off_c, 3, 59, 64
5, 1282560, Note_on_c, 3, 57, 96
5, 1283036, Note_off_c, 3, 57, 64
5, 1283040, Note_on_c, 3, 55, 88
5, 1283276, Note_off_c, 3, 55, 64
5, 1283280, Note_on_c, 3, 57, 86
5, 1283516, Note_off_c, 3, 57, 64
5, 1283520, Note_on_c, 3, 59, 92
5, 1284236, Note_off_c, 3, 59, 64
5, 1284240, Note_on_c, 3, 57, 97
5, 1284476, Note_off_c, 3, 57, 64
5, 1284480, Note_on_c, 3, 55, 83
5, 1284716, Note_off_c, 3, 55, 64
5, 1284720, Note_on_c, 3, 54, 101
5, 1284956, Note_off_c, 3, 54, 64
5, 1284960, Note_on_c, 3, 52, 83
5, 1285196, Note_off_c, 3, 52, 64
5, 1285200, Note_on_c, 3, 51, 90
5, 1285436, Note_off_c, 3, 51, 64
5, 1285440, Note_on_c, 3, 52, 104
5, 1285916, Note_off_c, 3, 52, 64
5, 1285920, Note_on_c, 3, 64, 101
5, 1286156, Note_off_c, 3, 64, 64
5, 1286160, Note_on_c, 3, 62, 83
5, 1286396, Note_off_c, 3, 62, 64
5, 1286400, Note_on_c, 3, 60, 97
5, 1286876, Note_off_c, 3, 60, 64
5, 1286880, Note_on_c, 3, 59, 88
5, 1287356, Note_off_c, 3, 59, 64
5, 1287360, Note_on_c, 3, 57, 96
5, 1287836, Note_off_c, 3, 57, 64
5, 1287840, Note_on_c, 3, 59, 85
5, 1288076, Note_off_c, 3, 59, 64
5, 1288080, Note_on_c, 3, 60, 92
5, 1288316, Note_off_c, 3, 60, 64
5, 1288320, Note_on_c, 3, 54, 117
5, 1288800, Note_off_c, 3, 54, 64
5, 1288800, Note_on_c, 3, 55, 96
5, 1289036, Note_off_c, 3, 55, 64
5, 1289040, Note_on_c, 3, 57, 82
5, 1289276, Note_off_c, 3, 57, 64
5, 1289280, Note_on_c, 3, 51, 94
5, 1289756, Note_off_c, 3, 51, 64
5, 1289760, Note_on_c, 3, 52, 85
5, 1289996, Note_off_c, 3, 52, 64
5, 1290000, Note_on_c, 3, 54, 92
5, 1290236, Note_off_c, 3, 54, 64
5, 1290240, Note_on_c, 3, 47, 95
5, 1290716, Note_off_c, 3, 47, 64
5, 1290720, Note_on_c, 3, 49, 85
5, 1290956, Note_off_c, 3, 49, 64
5, 1290960, Note_on_c, 3, 51, 89
5, 1291196, Note_off_c, 3, 51, 64
5, 1291200, Note_on_c, 3, 52, 82
5, 1291680, Note_off_c, 3, 52, 64
5, 1291680, Note_on_c, 3, 64, 111
5, 1291916, Note_off_c, 3, 64, 64
5, 1291920, Note_on_c, 3, 63, 102
5, 1292156, Note_off_c, 3, 63, 64
5, 1292160, Note_on_c, 3, 64, 97
5, 1292636, Note_off_c, 3, 64, 64
5, 1292640, Note_on_c, 3, 66, 110
5, 1292876, Note_off_c, 3, 66, 64
5, 1292880, Note_on_c, 3, 67, 77
5, 1293116, Note_off_c, 3, 67, 64
5, 1293120, Note_on_c, 3, 69, 104
5, 1293596, Note_off_c, 3, 69, 64
5, 1293600, Note_on_c, 3, 67, 85
5, 1293836, Note_off_c, 3, 67, 64
5, 1293840, Note_on_c, 3, 69, 84
5, 1294076, Note_off_c, 3, 69, 64
5, 1294080, Note_on_c, 3, 66, 96
5, 1294556, Note_off_c, 3, 66, 64
5, 1294560, Note_on_c, 3, 64, 81
5, 1294796, Note_off_c, 3, 64, 64
5, 1294800, Note_on_c, 3, 66, 75
5, 1295036, Note_off_c, 3, 66, 64
5, 1295040, Note_on_c, 3, 67, 67
5, 1295276, Note_off_c, 3, 67, 64
5, 1295520, Note_on_c, 3, 66, 81
5, 1295756, Note_off_c, 3, 66, 64
5, 1296000, Note_on_c, 3, 64, 88
5, 1296236, Note_off_c, 3, 64, 64
5, 1296480, Note_on_c, 3, 62, 70
5, 1296716, Note_off_c, 3, 62, 64
5, 1296960, Note_on_c, 3, 60, 93
5, 1297196, Note_off_c, 3, 60, 64
5, 1297440, Note_on_c, 3, 59, 66
5, 1297676, Note_off_c, 3, 59, 64
5, 1297920, Note_on_c, 3, 57, 71
5, 1298156, Note_off_c, 3, 57, 64
5, 1298400, Note_on_c, 3, 55, 69
5, 1298880, Note_off_c, 3, 55, 64
5, 1298880, Note_on_c, 3, 54, 93
5, 1299356, Note_off_c, 3, 54, 64
5, 1299360, Note_on_c, 3, 52, 84
5, 1299596, Note_off_c, 3, 52, 64
5, 1299600, Note_on_c, 3, 54, 85
5, 1299836, Note_off_c, 3, 54, 64
5, 1299840, Note_on_c, 3, 55, 86
5, 1300316, Note_off_c, 3, 55, 64
5, 1300320, Note_on_c, 3, 54, 84
5, 1300556, Note_off_c, 3, 54, 64
5, 1300560, Note_on_c, 3, 55, 78
5, 1300796, Note_off_c, 3, 55, 64
5, 1300800, Note_on_c, 3, 52, 85
5, 1301276, Note_off_c, 3, 52, 64
5, 1301280, Note_on_c, 3, 50, 69
5, 1301516, Note_off_c, 3, 50, 64
5, 1301520, Note_on_c, 3, 52, 85
5, 1301756, Note_off_c, 3, 52, 64
5, 1301760, Note_on_c, 3, 54, 96
5, 1302236, Note_off_c, 3, 54, 64
5, 1302240, Note_on_c, 3, 52, 83
5, 1302476, Note_off_c, 3, 52, 64
5, 1302480, Note_on_c, 3, 54, 97
5, 1302716, Note_off_c, 3, 54, 64
5, 1302720, Note_on_c, 3, 51, 102
5, 1303196, Note_off_c, 3, 51, 64
5, 1303200, Note_on_c, 3, 49, 84
5, 1303436, Note_off_c, 3, 49, 64
5, 1303440, Note_on_c, 3, 51, 93
5, 1303676, Note_off_c, 3, 51, 64
5, 1303680, Note_on_c, 3, 52, 98
5, 1303916, Note_off_c, 3, 52, 64
5, 1303920, Note_on_c, 3, 50, 92
5, 1304156, Note_off_c, 3, 50, 64
5, 1304160, Note_on_c, 3, 48, 90
5, 1304396, Note_off_c, 3, 48, 64
5, 1304400, Note_on_c, 3, 47, 88
5, 1304636, Note_off_c, 3, 47, 64
5, 1304640, Note_on_c, 3, 48, 88
5, 1305116, Note_off_c, 3, 48, 64
5, 1305120, Note_on_c, 3, 45, 76
5, 1305596, Note_off_c, 3, 45, 64
5, 1305600, Note_on_c, 3, 50, 93
5, 1305840, Note_off_c, 3, 50, 64
5, 1306080, Note_on_c, 3, 38, 61
5, 1306556, Note_off_c, 3, 38, 64
5, 1306560, Note_on_c, 3, 43, 84
5, 1307036, Note_off_c, 3, 43, 64
5, 1307040, Note_on_c, 3, 50, 102
5, 1307516, Note_off_c, 3, 50, 64
5, 1307520, Note_on_c, 3, 55, 101
5, 1308476, Note_off_c, 3, 55, 64
5, 1308960, Note_on_c, 3, 50, 96
5, 1309196, Note_off_c, 3, 50, 64
5, 1309200, Note_on_c, 3, 52, 97
5, 1309436, Note_off_c, 3, 52, 64
5, 1309440, Note_on_c, 3, 54, 97
5, 1309916, Note_off_c, 3, 54, 64
5, 1309920, Note_on_c, 3, 50, 90
5, 1310396, Note_off_c, 3, 50, 64
5, 1310400, Note_on_c, 3, 55, 98
5, 1310876, Note_off_c, 3, 55, 64
5, 1310880, Note_on_c, 3, 43, 84
5, 1311356, Note_off_c, 3, 43, 64
5, 1311360, Note_on_c, 3, 55, 95
5, 1311836, Note_off_c, 3, 55, 64
5, 1311840, Note_on_c, 3, 57, 37
5, 1312076, Note_off_c, 3, 57, 64
5, 1312080, Note_on_c, 3, 59, 93
5, 1312316, Note_off_c, 3, 59, 64
5, 1312320, Note_on_c, 3, 60, 101
5, 1312796, Note_off_c, 3, 60, 64
5, 1312800, Note_on_c, 3, 59, 83
5, 1313276, Note_off_c, 3, 59, 64
5, 1313280, Note_on_c, 3, 57, 96
5, 1313756, Note_off_c, 3, 57, 64
5, 1313760, Note_on_c, 3, 55, 88
5, 1313996, Note_off_c, 3, 55, 64
5, 1314000, Note_on_c, 3, 57, 86
5, 1314236, Note_off_c, 3, 57, 64
5, 1314240, Note_on_c, 3, 59, 92
5, 1314956, Note_off_c, 3, 59, 64
5, 1314960, Note_on_c, 3, 57, 97
5, 1315196, Note_off_c, 3, 57, 64
5, 1315200, Note_on_c, 3, 55, 83
5, 1315436, Note_off_c, 3, 55, 64
5, 1315440, Note_on_c, 3, 54, 101
5, 1315676, Note_off_c, 3, 54, 64
5, 1315680, Note_on_c, 3, 52, 83
5, 1315916, Note_off_c, 3, 52, 64
5, 1315920, Note_on_c, 3, 51, 90
5, 1316156, Note_off_c, 3, 51, 64
5, 1316160, Note_on_c, 3, 52, 104
5, 1316636, Note_off_c, 3, 52, 64
5, 1316640, Note_on_c, 3, 64, 101
5, 1316876, Note_off_c, 3, 64, 64
5, 1316880, Note_on_c, 3, 62, 83
5, 1317116, Note_off_c, 3, 62, 64
5, 1317120, Note_on_c, 3, 60, 97
5, 1317596, Note_off_c, 3, 60, 64
5, 1317600, Note_on_c, 3, 59, 88
5, 1318076, Note_off_c, 3, 59, 64
5, 1318080, Note_on_c, 3, 57, 96
5, 1318556, Note_off_c, 3, 57, 64
5, 1318560, Note_on_c, 3, 59, 85
5, 1318796, Note_off_c, 3, 59, 64
5, 1318800, Note_on_c, 3, 60, 92
5, 1319036, Note_off_c, 3, 60, 64
5, 1319040, Note_on_c, 3, 54, 117
5, 1319520, Note_off_c, 3, 54, 64
5, 1319520, Note_on_c, 3, 55, 96
5, 1319756, Note_off_c, 3, 55, 64
5, 1319760, Note_on_c, 3, 57, 82
5, 1319996, Note_off_c, 3, 57, 64
5, 1320000, Note_on_c, 3, 51, 94
5, 1320476, Note_off_c, 3, 51, 64
5, 1320480, Note_on_c, 3, 52, 85
5, 1320716, Note_off_c, 3, 52, 64
5, 1320720, Note_on_c, 3, 54, 92
5, 1320956, Note_off_c, 3, 54, 64
5, 1320960, Note_on_c, 3, 47, 95
5, 1321436, Note_off_c, 3, 47, 64
5, 1321440, Note_on_c, 3, 49, 85
5, 1321676, Note_off_c, 3, 49, 64
5, 1321680, Note_on_c, 3, 51, 89
5, 1321916, Note_off_c, 3, 51, 64
5, 1321920, Note_on_c, 3, 52, 82
5, 1322400, Note_off_c, 3, 52, 64
5, 1322400, Note_on_c, 3, 64, 111
5, 1322636, Note_off_c, 3, 64, 64
5, 1322640, Note_on_c, 3, 63, 102
5, 1322876, Note_off_c, 3, 63, 64
5, 1322880, Note_on_c, 3, 64, 97
5, 1323356, Note_off_c, 3, 64, 64
5, 1323360, Note_on_c, 3, 66, 110
5, 1323596, Note_off_c, 3, 66, 64
5, 1323600, Note_on_c, 3, 67, 77
5, 1323836, Note_off_c, 3, 67, 64
5, 1323840, Note_on_c, 3, 69, 104
5, 1324316, Note_off_c, 3, 69, 64
5, 1324320, Note_on_c, 3, 67, 85
5, 1324556, Note_off_c, 3, 67, 64
5, 1324560, Note_on_c, 3, 69, 84
5, 1324796, Note_off_c, 3, 69, 64
5, 1324800, Note_on_c, 3, 66, 96
5, 1325276, Note_off_c, 3, 66, 64
5, 1325280, Note_on_c, 3, 64, 81
5, 1325516, Note_off_c, 3, 64, 64
5, 1325520, Note_on_c, 3, 66, 75
5, 1325756, Note_off_c, 3, 66, 64
5, 1325760, Note_on_c, 3, 67, 67
5, 1325996, Note_off_c, 3, 67, 64
5, 1326240, Note_on_c, 3, 66, 81
5, 1326476, Note_off_c, 3, 66, 64
5, 1326720, Note_on_c, 3, 64, 88
5, 1326956, Note_off_c, 3, 64, 64
5, 1327200, Note_on_c, 3, 62, 70
5, 1327436, Note_off_c, 3, 62, 64
5, 1327680, Note_on_c, 3, 60, 93
5, 1327916, Note_off_c, 3, 60, 64
5, 1328160, Note_on_c, 3, 59, 66
5, 1328396, Note_off_c, 3, 59, 64
5, 1328640, Note_on_c, 3, 57, 71
5, 1328876, Note_off_c, 3, 57, 64
5, 1329120, Note_on_c, 3, 55, 69
5, 1329600, Note_off_c, 3, 55, 64
5, 1329600, Note_on_c, 3, 54, 93
5, 1330076, Note_off_c, 3, 54, 64
5, 1330080, Note_on_c, 3, 52, 84
5, 1330316, Note_off_c, 3, 52, 64
5, 1330320, Note_on_c, 3, 54, 85
5, 1330556, Note_off_c, 3, 54, 64
5, 1330560, Note_on_c, 3, 55, 86
5, 1331036, Note_off_c, 3, 55, 64
5, 1331040, Note_on_c, 3, 54, 84
5, 1331276, Note_off_c, 3, 54, 64
5, 1331280, Note_on_c, 3, 55, 78
5, 1331516, Note_off_c, 3, 55, 64
5, 1331520, Note_on_c, 3, 52, 85
5, 1331996, Note_off_c, 3, 52, 64
5, 1332000, Note_on_c, 3, 50, 69
5, 1332236, Note_off_c, 3, 50, 64
5, 1332240, Note_on_c, 3, 52, 85
5, 1332476, Note_off_c, 3, 52, 64
5, 1332480, Note_on_c, 3, 54, 96
5, 1332956, Note_off_c, 3, 54, 64
5, 1332960, Note_on_c, 3, 52, 83
5, 1333196, Note_off_c, 3, 52, 64
5, 1333200, Note_on_c, 3, 54, 97
5, 1333436, Note_off_c, 3, 54, 64
5, 1333440, Note_on_c, 3, 51, 102
5, 1333916, Note_off_c, 3, 51, 64
5, 1333920, Note_on_c, 3, 49, 84
5, 1334156, Note_off_c, 3, 49, 64
5, 1334160, Note_on_c, 3, 51, 93
5, 1334396, Note_off_c, 3, 51, 64
5, 1334400, Note_on_c, 3, 52, 98
5, 1334636, Note_off_c, 3, 52, 64
5, 1334640, Note_on_c, 3, 50, 92
5, 1334876, Note_off_c, 3, 50, 64
5, 1334880, Note_on_c, 3, 48, 90
5, 1335116, Note_off_c, 3, 48, 64
5, 1335120, Note_on_c, 3, 47, 88
5, 1335356, Note_off_c, 3, 47, 64
5, 1335360, Note_on_c, 3, 48, 88
5, 1335836, Note_off_c, 3, 48, 64
5, 1335840, Note_on_c, 3, 45, 76
5, 1336316, Note_off_c, 3, 45, 64
5, 1336320, Note_on_c, 3, 50, 93
5, 1336560, Note_off_c, 3, 50, 64
5, 1336800, Note_on_c, 3, 38, 61
5, 1337276, Note_off_c, 3, 38, 64
5, 1337280, Note_on_c, 3, 43, 84
5, 1337756, Note_off_c, 3, 43, 64
5, 1337760, Note_on_c, 3, 50, 102
5, 1338236, Note_off_c, 3, 50, 64
5, 1338240, Note_on_c, 3, 55, 101
5, 1339196, Note_off_c, 3, 55, 64
5, 1341120, Note_on_c, 3, 55, 93
5, 1341236, Note_off_c, 3, 55, 64
5, 1341360, Note_on_c, 3, 43, 81
5, 1341476, Note_off_c, 3, 43, 64
5, 1341600, Note_on_c, 3, 55, 91
5, 1341716, Note_off_c, 3, 55, 64
5, 1341840, Note_on_c, 3, 54, 104
5, 1341956, Note_off_c, 3, 54, 64
5, 1342080, Note_on_c, 3, 42, 86
5, 1342196, Note_off_c, 3, 42, 64
5, 1342320, Note_on_c, 3, 54, 102
5, 1342556, Note_off_c, 3, 54, 64
5, 1342560, Note_on_c, 3, 52, 95
5, 1342676, Note_off_c, 3, 52, 64
5, 1342800, Note_on_c, 3, 40, 61
5, 1342916, Note_off_c, 3, 40, 64
5, 1343040, Note_on_c, 3, 52, 100
5, 1343276, Note_off_c, 3, 52, 64
5, 1343280, Note_on_c, 3, 50, 93
5, 1343396, Note_off_c, 3, 50, 64
5, 1343520, Note_on_c, 3, 38, 82
5, 1343636, Note_off_c, 3, 38, 64
5, 1343760, Note_on_c, 3, 48, 92
5, 1343996, Note_off_c, 3, 48, 64
5, 1344000, Note_on_c, 3, 47, 85
5, 1344120, Note_off_c, 3, 47, 64
5, 1344240, Note_on_c, 3, 59, 80
5, 1344476, Note_off_c, 3, 59, 64
5, 1344480, Note_on_c, 3, 55, 77
5, 1344716, Note_off_c, 3, 55, 64
5, 1344720, Note_on_c, 3, 60, 96
5, 1344836, Note_off_c, 3, 60, 64
5, 1344960, Note_on_c, 3, 48, 85
5, 1345076, Note_off_c, 3, 48, 64
5, 1345200, Note_on_c, 3, 60, 90
5, 1345316, Note_off_c, 3, 60, 64
5, 1345440, Note_on_c, 3, 59, 85
5, 1345556, Note_off_c, 3, 59, 64
5, 1345560, Note_on_c, 3, 57, 78
5, 1345676, Note_off_c, 3, 57, 64
5, 1345680, Note_on_c, 3, 59, 80
5, 1345796, Note_off_c, 3, 59, 64
5, 1345800, Note_on_c, 3, 60, 90
5, 1345916, Note_off_c, 3, 60, 64
5, 1345920, Note_on_c, 3, 62, 90
5, 1346156, Note_off_c, 3, 62, 64
5, 1346160, Note_on_c, 3, 55, 95
5, 1346396, Note_off_c, 3, 55, 64
5, 1346400, Note_on_c, 3, 43, 69
5, 1346516, Note_off_c, 3, 43, 64
5, 1346520, Note_on_c, 3, 50, 88
5, 1346636, Note_off_c, 3, 50, 64
5, 1346640, Note_on_c, 3, 55, 93
5, 1346756, Note_off_c, 3, 55, 64
5, 1346760, Note_on_c, 3, 57, 92
5, 1346876, Note_off_c, 3, 57, 64
5, 1346880, Note_on_c, 3, 59, 102
5, 1346996, Note_off_c, 3, 59, 64
5, 1347000, Note_on_c, 3, 57, 92
5, 1347116, Note_off_c, 3, 57, 64
5, 1347120, Note_on_c, 3, 59, 92
5, 1347236, Note_off_c, 3, 59, 64
5, 1347240, Note_on_c, 3, 55, 90
5, 1347356, Note_off_c, 3, 55, 64
5, 1347360, Note_on_c, 3, 52, 78
5, 1347476, Note_off_c, 3, 52, 64
5, 1347480, Note_on_c, 3, 55, 82
5, 1347596, Note_off_c, 3, 55, 64
5, 1347600, Note_on_c, 3, 57, 88
5, 1347716, Note_off_c, 3, 57, 64
5, 1347720, Note_on_c, 3, 55, 80
5, 1347836, Note_off_c, 3, 55, 64
5, 1347840, Note_on_c, 3, 57, 74
5, 1347956, Note_off_c, 3, 57, 64
5, 1347960, Note_on_c, 3, 54, 86
5, 1348076, Note_off_c, 3, 54, 64
5, 1348080, Note_on_c, 3, 50, 83
5, 1348196, Note_off_c, 3, 50, 64
5, 1348200, Note_on_c, 3, 54, 90
5, 1348316, Note_off_c, 3, 54, 64
5, 1348320, Note_on_c, 3, 55, 91
5, 1348436, Note_off_c, 3, 55, 64
5, 1348440, Note_on_c, 3, 54, 97
5, 1348556, Note_off_c, 3, 54, 64
5, 1348560, Note_on_c, 3, 55, 89
5, 1348676, Note_off_c, 3, 55, 64
5, 1348680, Note_on_c, 3, 52, 93
5, 1348796, Note_off_c, 3, 52, 64
5, 1348800, Note_on_c, 3, 47, 89
5, 1348916, Note_off_c, 3, 47, 64
5, 1348920, Note_on_c, 3, 52, 92
5, 1349036, Note_off_c, 3, 52, 64
5, 1349040, Note_on_c, 3, 55, 89
5, 1349156, Note_off_c, 3, 55, 64
5, 1349160, Note_on_c, 3, 54, 101
5, 1349276, Note_off_c, 3, 54, 64
5, 1349280, Note_on_c, 3, 55, 91
5, 1349396, Note_off_c, 3, 55, 64
5, 1349400, Note_on_c, 3, 52, 92
5, 1349516, Note_off_c, 3, 52, 64
5, 1349520, Note_on_c, 3, 49, 92
5, 1349636, Note_off_c, 3, 49, 64
5, 1349640, Note_on_c, 3, 52, 91
5, 1349756, Note_off_c, 3, 52, 64
5, 1349760, Note_on_c, 3, 57, 93
5, 1349876, Note_off_c, 3, 57, 64
5, 1349880, Note_on_c, 3, 55, 90
5, 1349996, Note_off_c, 3, 55, 64
5, 1350000, Note_on_c, 3, 57, 85
5, 1350116, Note_off_c, 3, 57, 64
5, 1350120, Note_on_c, 3, 54, 90
5, 1350236, Note_off_c, 3, 54, 64
5, 1350240, Note_on_c, 3, 50, 82
5, 1350356, Note_off_c, 3, 50, 64
5, 1350360, Note_on_c, 3, 54, 93
5, 1350476, Note_off_c, 3, 54, 64
5, 1350480, Note_on_c, 3, 59, 96
5, 1350596, Note_off_c, 3, 59, 64
5, 1350600, Note_on_c, 3, 57, 83
5, 1350716, Note_off_c, 3, 57, 64
5, 1350720, Note_on_c, 3, 59, 92
5, 1350836, Note_off_c, 3, 59, 64
5, 1350840, Note_on_c, 3, 55, 88
5, 1350956, Note_off_c, 3, 55, 64
5, 1350960, Note_on_c, 3, 52, 80
5, 1351076, Note_off_c, 3, 52, 64
5, 1351080, Note_on_c, 3, 55, 83
5, 1351196, Note_off_c, 3, 55, 64
5, 1351200, Note_on_c, 3, 57, 96
5, 1351316, Note_off_c, 3, 57, 64
5, 1351440, Note_on_c, 3, 45, 95
5, 1351556, Note_off_c, 3, 45, 64
5, 1351680, Note_on_c, 3, 57, 101
5, 1351796, Note_off_c, 3, 57, 64
5, 1351920, Note_on_c, 3, 62, 121
5, 1352036, Note_off_c, 3, 62, 64
5, 1352040, Note_on_c, 3, 61, 102
5, 1352156, Note_off_c, 3, 61, 64
5, 1352160, Note_on_c, 3, 62, 98
5, 1352276, Note_off_c, 3, 62, 64
5, 1352280, Note_on_c, 3, 57, 91
5, 1352396, Note_off_c, 3, 57, 64
5, 1352400, Note_on_c, 3, 54, 84
5, 1352516, Note_off_c, 3, 54, 64
5, 1352520, Note_on_c, 3, 50, 91
5, 1352636, Note_off_c, 3, 50, 64
5, 1352640, Note_on_c, 3, 55, 93
5, 1352756, Note_off_c, 3, 55, 64
5, 1352880, Note_on_c, 3, 43, 81
5, 1352996, Note_off_c, 3, 43, 64
5, 1353120, Note_on_c, 3, 55, 91
5, 1353236, Note_off_c, 3, 55, 64
5, 1353360, Note_on_c, 3, 54, 104
5, 1353476, Note_off_c, 3, 54, 64
5, 1353600, Note_on_c, 3, 42, 86
5, 1353716, Note_off_c, 3, 42, 64
5, 1353840, Note_on_c, 3, 54, 102
5, 1354076, Note_off_c, 3, 54, 64
5, 1354080, Note_on_c, 3, 52, 95
5, 1354196, Note_off_c, 3, 52, 64
5, 1354320, Note_on_c, 3, 40, 61
5, 1354436, Note_off_c, 3, 40, 64
5, 1354560, Note_on_c, 3, 52, 100
5, 1354796, Note_off_c, 3, 52, 64
5, 1354800, Note_on_c, 3, 50, 93
5, 1354916, Note_off_c, 3, 50, 64
5, 1355040, Note_on_c, 3, 38, 82
5, 1355156, Note_off_c, 3, 38, 64
5, 1355280, Note_on_c, 3, 48, 92
5, 1355516, Note_off_c, 3, 48, 64
5, 1355520, Note_on_c, 3, 47, 85
5, 1355640, Note_off_c, 3, 47, 64
5, 1355760, Note_on_c, 3, 59, 80
5, 1355996, Note_off_c, 3, 59, 64
5, 1356000, Note_on_c, 3, 55, 77
5, 1356236, Note_off_c, 3, 55, 64
5, 1356240, Note_on_c, 3, 60, 96
5, 1356356, Note_off_c, 3, 60, 64
5, 1356480, Note_on_c, 3, 48, 85
5, 1356596, Note_off_c, 3, 48, 64
5, 1356720, Note_on_c, 3, 60, 90
5, 1356836, Note_off_c, 3, 60, 64
5, 1356960, Note_on_c, 3, 59, 85
5, 1357076, Note_off_c, 3, 59, 64
5, 1357080, Note_on_c, 3, 57, 78
5, 1357196, Note_off_c, 3, 57, 64
5, 1357200, Note_on_c, 3, 59, 80
5, 1357316, Note_off_c, 3, 59, 64
5, 1357320, Note_on_c, 3, 60, 90
5, 1357436, Note_off_c, 3, 60, 64
5, 1357440, Note_on_c, 3, 62, 90
5, 1357676, Note_off_c, 3, 62, 64
5, 1357680, Note_on_c, 3, 55, 95
5, 1357916, Note_off_c, 3, 55, 64
5, 1357920, Note_on_c, 3, 43, 69
5, 1358036, Note_off_c, 3, 43, 64
5, 1358040, Note_on_c, 3, 50, 88
5, 1358156, Note_off_c, 3, 50, 64
5, 1358160, Note_on_c, 3, 55, 93
5, 1358276, Note_off_c, 3, 55, 64
5, 1358280, Note_on_c, 3, 57, 92
5, 1358396, Note_off_c, 3, 57, 64
5, 1358400, Note_on_c, 3, 59, 102
5, 1358516, Note_off_c, 3, 59, 64
5, 1358520, Note_on_c, 3, 57, 92
5, 1358636, Note_off_c, 3, 57, 64
5, 1358640, Note_on_c, 3, 59, 92
5, 1358756, Note_off_c, 3, 59, 64
5, 1358760, Note_on_c, 3, 55, 90
5, 1358876, Note_off_c, 3, 55, 64
5, 1358880, Note_on_c, 3, 52, 78
5, 1358996, Note_off_c, 3, 52, 64
5, 1359000, Note_on_c, 3, 55, 82
5, 1359116, Note_off_c, 3, 55, 64
5, 1359120, Note_on_c, 3, 57, 88
5, 1359236, Note_off_c, 3, 57, 64
5, 1359240, Note_on_c, 3, 55, 80
5, 1359356, Note_off_c, 3, 55, 64
5, 1359360, Note_on_c, 3, 57, 74
5, 1359476, Note_off_c, 3, 57, 64
5, 1359480, Note_on_c, 3, 54, 86
5, 1359596, Note_off_c, 3, 54, 64
5, 1359600, Note_on_c, 3, 50, 83
5, 1359716, Note_off_c, 3, 50, 64
5, 1359720, Note_on_c, 3, 54, 90
5, 1359836, Note_off_c, 3, 54, 64
5, 1359840, Note_on_c, 3, 55, 91
5, 1359956, Note_off_c, 3, 55, 64
5, 1359960, Note_on_c, 3, 54, 97
5, 1360076, Note_off_c, 3, 54, 64
5, 1360080, Note_on_c, 3, 55, 89
5, 1360196, Note_off_c, 3, 55, 64
5, 1360200, Note_on_c, 3, 52, 93
5, 1360316, Note_off_c, 3, 52, 64
5, 1360320, Note_on_c, 3, 47, 89
5, 1360436, Note_off_c, 3, 47, 64
5, 1360440, Note_on_c, 3, 52, 92
5, 1360556, Note_off_c, 3, 52, 64
5, 1360560, Note_on_c, 3, 55, 89
5, 1360676, Note_off_c, 3, 55, 64
5, 1360680, Note_on_c, 3, 54, 101
5, 1360796, Note_off_c, 3, 54, 64
5, 1360800, Note_on_c, 3, 55, 91
5, 1360916, Note_off_c, 3, 55, 64
5, 1360920, Note_on_c, 3, 52, 92
5, 1361036, Note_off_c, 3, 52, 64
5, 1361040, Note_on_c, 3, 49, 92
5, 1361156, Note_off_c, 3, 49, 64
5, 1361160, Note_on_c, 3, 52, 91
5, 1361276, Note_off_c, 3, 52, 64
5, 1361280, Note_on_c, 3, 57, 93
5, 1361396, Note_off_c, 3, 57, 64
5, 1361400, Note_on_c, 3, 55, 90
5, 1361516, Note_off_c, 3, 55, 64
5, 1361520, Note_on_c, 3, 57, 85
5, 1361636, Note_off_c, 3, 57, 64
5, 1361640, Note_on_c, 3, 54, 90
5, 1361756, Note_off_c, 3, 54, 64
5, 1361760, Note_on_c, 3, 50, 82
5, 1361876, Note_off_c, 3, 50, 64
5, 1361880, Note_on_c, 3, 54, 93
5, 1361996, Note_off_c, 3, 54, 64
5, 1362000, Note_on_c, 3, 59, 96
5, 1362116, Note_off_c, 3, 59, 64
5, 1362120, Note_on_c, 3, 57, 83
5, 1362236, Note_off_c, 3, 57, 64
5, 1362240, Note_on_c, 3, 59, 92
5, 1362356, Note_off_c, 3, 59, 64
5, 1362360, Note_on_c, 3, 55, 88
5, 1362476, Note_off_c, 3, 55, 64
5, 1362480, Note_on_c, 3, 52, 80
5, 1362596, Note_off_c, 3, 52, 64
5, 1362600, Note_on_c, 3, 55, 83
5, 1362716, Note_off_c, 3, 55, 64
5, 1362720, Note_on_c, 3, 57, 96
5, 1362836, Note_off_c, 3, 57, 64
5, 1362960, Note_on_c, 3, 45, 95
5, 1363076, Note_off_c, 3, 45, 64
5, 1363200, Note_on_c, 3, 57, 101
5, 1363316, Note_off_c, 3, 57, 64
5, 1363440, Note_on_c, 3, 62, 121
5, 1363556, Note_off_c, 3, 62, 64
5, 1363560, Note_on_c, 3, 61, 102
5, 1363676, Note_off_c, 3, 61, 64
5, 1363680, Note_on_c, 3, 62, 98
5, 1363796, Note_off_c, 3, 62, 64
5, 1363800, Note_on_c, 3, 57, 91
5, 1363916, Note_off_c, 3, 57, 64
5, 1363920, Note_on_c, 3, 54, 84
5, 1364036, Note_off_c, 3, 54, 64
5, 1364040, Note_on_c, 3, 50, 91
5, 1364156, Note_off_c, 3, 50, 64
5, 1364160, Note_on_c, 3, 62, 102
5, 1364280, Note_off_c, 3, 62, 64
5, 1364400, Note_on_c, 3, 50, 97
5, 1364636, Note_off_c, 3, 50, 64
5, 1364640, Note_on_c, 3, 60, 96
5, 1364876, Note_off_c, 3, 60, 64
5, 1364880, Note_on_c, 3, 59, 83
5, 1365116, Note_off_c, 3, 59, 64
5, 1365120, Note_on_c, 3, 55, 85
5, 1365356, Note_off_c, 3, 55, 64
5, 1365360, Note_on_c, 3, 59, 90
5, 1365596, Note_off_c, 3, 59, 64
5, 1365600, Note_on_c, 3, 60, 90
5, 1365836, Note_off_c, 3, 60, 64
5, 1365840, Note_on_c, 3, 59, 88
5, 1366076, Note_off_c, 3, 59, 64
5, 1366080, Note_on_c, 3, 57, 78
5, 1366316, Note_off_c, 3, 57, 64
5, 1366320, Note_on_c, 3, 59, 92
5, 1366556, Note_off_c, 3, 59, 64
5, 1366560, Note_on_c, 3, 57, 95
5, 1366676, Note_off_c, 3, 57, 64
5, 1366680, Note_on_c, 3, 55, 85
5, 1366796, Note_off_c, 3, 55, 64
5, 1366800, Note_on_c, 3, 57, 84
5, 1366916, Note_off_c, 3, 57, 64
5, 1366920, Note_on_c, 3, 54, 82
5, 1367036, Note_off_c, 3, 54, 64
5, 1367040, Note_on_c, 3, 55, 86
5, 1367156, Note_off_c, 3, 55, 64
5, 1367280, Note_on_c, 3, 52, 88
5, 1367396, Note_off_c, 3, 52, 64
5, 1367520, Note_on_c, 3, 55, 90
5, 1367636, Note_off_c, 3, 55, 64
5, 1367760, Note_on_c, 3, 57, 92
5, 1367876, Note_off_c, 3, 57, 64
5, 1368000, Note_on_c, 3, 45, 95
5, 1368116, Note_off_c, 3, 45, 64
5, 1368240, Note_on_c, 3, 57, 104
5, 1368356, Note_off_c, 3, 57, 64
5, 1368480, Note_on_c, 3, 55, 89
5, 1368596, Note_off_c, 3, 55, 64
5, 1368600, Note_on_c, 3, 54, 88
5, 1368716, Note_off_c, 3, 54, 64
5, 1368720, Note_on_c, 3, 55, 85
5, 1368836, Note_off_c, 3, 55, 64
5, 1368840, Note_on_c, 3, 57, 95
5, 1368956, Note_off_c, 3, 57, 64
5, 1368960, Note_on_c, 3, 59, 98
5, 1369196, Note_off_c, 3, 59, 64
5, 1369200, Note_on_c, 3, 52, 97
5, 1369436, Note_off_c, 3, 52, 64
5, 1369440, Note_on_c, 3, 64, 106
5, 1369676, Note_off_c, 3, 64, 64
5, 1369680, Note_on_c, 3, 62, 96
5, 1369916, Note_off_c, 3, 62, 64
5, 1369920, Note_on_c, 3, 60, 80
5, 1370036, Note_off_c, 3, 60, 64
5, 1370040, Note_on_c, 3, 59, 78
5, 1370156, Note_off_c, 3, 59, 64
5, 1370160, Note_on_c, 3, 60, 80
5, 1370276, Note_off_c, 3, 60, 64
5, 1370280, Note_on_c, 3, 57, 93
5, 1370396, Note_off_c, 3, 57, 64
5, 1370400, Note_on_c, 3, 54, 90
5, 1370516, Note_off_c, 3, 54, 64
5, 1370520, Note_on_c, 3, 57, 91
5, 1370636, Note_off_c, 3, 57, 64
5, 1370640, Note_on_c, 3, 59, 89
5, 1370756, Note_off_c, 3, 59, 64
5, 1370760, Note_on_c, 3, 57, 91
5, 1370876, Note_off_c, 3, 57, 64
5, 1370880, Note_on_c, 3, 59, 90
5, 1370996, Note_off_c, 3, 59, 64
5, 1371000, Note_on_c, 3, 55, 89
5, 1371116, Note_off_c, 3, 55, 64
5, 1371120, Note_on_c, 3, 52, 88
5, 1371236, Note_off_c, 3, 52, 64
5, 1371240, Note_on_c, 3, 55, 82
5, 1371356, Note_off_c, 3, 55, 64
5, 1371360, Note_on_c, 3, 57, 90
5, 1371476, Note_off_c, 3, 57, 64
5, 1371480, Note_on_c, 3, 55, 81
5, 1371596, Note_off_c, 3, 55, 64
5, 1371600, Note_on_c, 3, 57, 92
5, 1371716, Note_off_c, 3, 57, 64
5, 1371720, Note_on_c, 3, 60, 101
5, 1371836, Note_off_c, 3, 60, 64
5, 1371840, Note_on_c, 3, 52, 96
5, 1371956, Note_off_c, 3, 52, 64
5, 1371960, Note_on_c, 3, 55, 90
5, 1372076, Note_off_c, 3, 55, 64
5, 1372080, Note_on_c, 3, 54, 90
5, 1372196, Note_off_c, 3, 54, 64
5, 1372200, Note_on_c, 3, 52, 85
5, 1372316, Note_off_c, 3, 52, 64
5, 1372320, Note_on_c, 3, 54, 92
5, 1372436, Note_off_c, 3, 54, 64
5, 1372440, Note_on_c, 3, 57, 97
5, 1372556, Note_off_c, 3, 57, 64
5, 1372560, Note_on_c, 3, 50, 82
5, 1372676, Note_off_c, 3, 50, 64
5, 1372680, Note_on_c, 3, 54, 88
5, 1372796, Note_off_c, 3, 54, 64
5, 1372800, Note_on_c, 3, 47, 95
5, 1372916, Note_off_c, 3, 47, 64
5, 1373040, Note_on_c, 3, 43, 93
5, 1373276, Note_off_c, 3, 43, 64
5, 1373280, Note_on_c, 3, 47, 100
5, 1373516, Note_off_c, 3, 47, 64
5, 1373520, Note_on_c, 3, 48, 104
5, 1373636, Note_off_c, 3, 48, 64
5, 1373760, Note_on_c, 3, 45, 83
5, 1373996, Note_off_c, 3, 45, 64
5, 1374000, Note_on_c, 3, 48, 98
5, 1374236, Note_off_c, 3, 48, 64
5, 1374240, Note_on_c, 3, 50, 93
5, 1374476, Note_off_c, 3, 50, 64
5, 1374480, Note_on_c, 3, 48, 98
5, 1374716, Note_off_c, 3, 48, 64
5, 1374720, Note_on_c, 3, 50, 95
5, 1374956, Note_off_c, 3, 50, 64
5, 1374960, Note_on_c, 3, 55, 101
5, 1375676, Note_off_c, 3, 55, 64
5, 1375680, Note_on_c, 3, 55, 86
5, 1375916, Note_off_c, 3, 55, 64
5, 1375920, Note_on_c, 3, 59, 90
5, 1376156, Note_off_c, 3, 59, 64
5, 1376160, Note_on_c, 3, 62, 82
5, 1376396, Note_off_c, 3, 62, 64
5, 1376400, Note_on_c, 3, 67, 89
5, 1376636, Note_off_c, 3, 67, 64
5, 1376640, Note_on_c, 3, 71, 90
5, 1376876, Note_off_c, 3, 71, 64
5, 1376880, Note_on_c, 3, 73, 88
5, 1377116, Note_off_c, 3, 73, 64
5, 1377240, Note_on_c, 3, 74, 98
5, 1377360, Note_off_c, 3, 74, 64
5, 1377480, Note_on_c, 3, 69, 85
5, 1377600, Note_off_c, 3, 69, 64
5, 1377720, Note_on_c, 3, 66, 93
5, 1377840, Note_off_c, 3, 66, 64
5, 1377960, Note_on_c, 3, 62, 89
5, 1378080, Note_off_c, 3, 62, 64
5, 1378200, Note_on_c, 3, 57, 89
5, 1378320, Note_off_c, 3, 57, 64
5, 1378320, Note_on_c, 3, 55, 76
5, 1378440, Note_off_c, 3, 55, 64
5, 1378440, Note_on_c, 3, 54, 79
5, 1378560, Note_off_c, 3, 54, 64
5, 1378560, Note_on_c, 3, 52, 90
5, 1378796, Note_off_c, 3, 52, 64
5, 1378800, Note_on_c, 3, 55, 86
5, 1379036, Note_off_c, 3, 55, 64
5, 1379040, Note_on_c, 3, 57, 100
5, 1379276, Note_off_c, 3, 57, 64
5, 1379280, Note_on_c, 3, 61, 77
5, 1379516, Note_off_c, 3, 61, 64
5, 1379520, Note_on_c, 3, 64, 98
5, 1379756, Note_off_c, 3, 64, 64
5, 1379760, Note_on_c, 3, 67, 96
5, 1379996, Note_off_c, 3, 67, 64
5, 1380120, Note_on_c, 3, 66, 101
5, 1380240, Note_off_c, 3, 66, 64
5, 1380360, Note_on_c, 3, 62, 93
5, 1380480, Note_off_c, 3, 62, 64
5, 1380600, Note_on_c, 3, 57, 91
5, 1380720, Note_off_c, 3, 57, 64
5, 1380840, Note_on_c, 3, 54, 104
5, 1380960, Note_off_c, 3, 54, 64
5, 1381080, Note_on_c, 3, 52, 97
5, 1381200, Note_off_c, 3, 52, 64
5, 1381200, Note_on_c, 3, 50, 85
5, 1381320, Note_off_c, 3, 50, 64
5, 1381320, Note_on_c, 3, 48, 78
5, 1381440, Note_off_c, 3, 48, 64
5, 1381440, Note_on_c, 3, 47, 93
5, 1381676, Note_off_c, 3, 47, 64
5, 1381680, Note_on_c, 3, 50, 93
5, 1381916, Note_off_c, 3, 50, 64
5, 1381920, Note_on_c, 3, 55, 101
5, 1382156, Note_off_c, 3, 55, 64
5, 1382160, Note_on_c, 3, 59, 97
5, 1382396, Note_off_c, 3, 59, 64
5, 1382400, Note_on_c, 3, 62, 97
5, 1382636, Note_off_c, 3, 62, 64
5, 1382640, Note_on_c, 3, 65, 96
5, 1382876, Note_off_c, 3, 65, 64
5, 1383000, Note_on_c, 3, 64, 88
5, 1383120, Note_off_c, 3, 64, 64
5, 1383240, Note_on_c, 3, 60, 89
5, 1383360, Note_off_c, 3, 60, 64
5, 1383480, Note_on_c, 3, 55, 92
5, 1383600, Note_off_c, 3, 55, 64
5, 1383720, Note_on_c, 3, 52, 98
5, 1383840, Note_off_c, 3, 52, 64
5, 1383960, Note_on_c, 3, 48, 93
5, 1384080, Note_off_c, 3, 48, 64
5, 1384080, Note_on_c, 3, 47, 89
5, 1384200, Note_off_c, 3, 47, 64
5, 1384200, Note_on_c, 3, 45, 71
5, 1384320, Note_off_c, 3, 45, 64
5, 1384320, Note_on_c, 3, 50, 88
5, 1384556, Note_off_c, 3, 50, 64
5, 1384560, Note_on_c, 3, 54, 97
5, 1384796, Note_off_c, 3, 54, 64
5, 1384800, Note_on_c, 3, 57, 90
5, 1385036, Note_off_c, 3, 57, 64
5, 1385040, Note_on_c, 3, 62, 97
5, 1385276, Note_off_c, 3, 62, 64
5, 1385280, Note_on_c, 3, 66, 86
5, 1385516, Note_off_c, 3, 66, 64
5, 1385520, Note_on_c, 3, 69, 97
5, 1385756, Note_off_c, 3, 69, 64
5, 1385880, Note_on_c, 3, 71, 100
5, 1386000, Note_off_c, 3, 71, 64
5, 1386120, Note_on_c, 3, 67, 91
5, 1386240, Note_off_c, 3, 67, 64
5, 1386360, Note_on_c, 3, 62, 90
5, 1386480, Note_off_c, 3, 62, 64
5, 1386600, Note_on_c, 3, 59, 86
5, 1386720, Note_off_c, 3, 59, 64
5, 1386840, Note_on_c, 3, 57, 83
5, 1386960, Note_off_c, 3, 57, 64
5, 1386960, Note_on_c, 3, 55, 83
5, 1387080, Note_off_c, 3, 55, 64
5, 1387080, Note_on_c, 3, 54, 79
5, 1387200, Note_off_c, 3, 54, 64
5, 1387200, Note_on_c, 3, 55, 96
5, 1387440, Note_off_c, 3, 55, 64
5, 1387680, Note_on_c, 3, 83, 123
5, 1387740, Note_off_c, 3, 83, 64
5, 1387740, Note_on_c, 3, 81, 123
5, 1387800, Note_off_c, 3, 81, 64
5, 1387800, Note_on_c, 3, 83, 123
5, 1388160, Note_off_c, 3, 83, 64
5, 1388400, Note_on_c, 3, 64, 102
5, 1388640, Note_off_c, 3, 64, 64
5, 1388640, Note_on_c, 3, 54, 88
5, 1388876, Note_off_c, 3, 54, 64
5, 1389120, Note_on_c, 3, 81, 119
5, 1389180, Note_off_c, 3, 81, 64
5, 1389180, Note_on_c, 3, 79, 119
5, 1389240, Note_off_c, 3, 79, 64
5, 1389240, Note_on_c, 3, 81, 119
5, 1389600, Note_off_c, 3, 81, 64
5, 1389840, Note_on_c, 3, 62, 111
5, 1390080, Note_off_c, 3, 62, 64
5, 1390080, Note_on_c, 3, 71, 101
5, 1390160, Note_off_c, 3, 71, 64
5, 1390160, Note_on_c, 3, 72, 77
5, 1390240, Note_off_c, 3, 72, 64
5, 1390240, Note_on_c, 3, 71, 85
5, 1390316, Note_on_c, 3, 69, 81
5, 1390320, Note_off_c, 3, 71, 64
5, 1390396, Note_off_c, 3, 69, 64
5, 1390396, Note_on_c, 3, 71, 81
5, 1390476, Note_off_c, 3, 71, 64
5, 1390476, Note_on_c, 3, 69, 81
5, 1390556, Note_off_c, 3, 69, 64
5, 1390556, Note_on_c, 3, 67, 81
5, 1390636, Note_off_c, 3, 67, 64
5, 1390636, Note_on_c, 3, 69, 81
5, 1390712, Note_on_c, 3, 67, 89
5, 1390716, Note_off_c, 3, 69, 64
5, 1390792, Note_off_c, 3, 67, 64
5, 1390792, Note_on_c, 3, 66, 79
5, 1390872, Note_off_c, 3, 66, 64
5, 1390872, Note_on_c, 3, 67, 91
5, 1390952, Note_off_c, 3, 67, 64
5, 1390952, Note_on_c, 3, 66, 72
5, 1391032, Note_off_c, 3, 66, 64
5, 1391032, Note_on_c, 3, 64, 72
5, 1391108, Note_on_c, 3, 66, 72
5, 1391112, Note_off_c, 3, 64, 64
5, 1391188, Note_off_c, 3, 66, 64
5, 1391188, Note_on_c, 3, 64, 91
5, 1391268, Note_off_c, 3, 64, 64
5, 1391268, Note_on_c, 3, 62, 91
5, 1391348, Note_off_c, 3, 62, 64
5, 1391348, Note_on_c, 3, 64, 91
5, 1391428, Note_off_c, 3, 64, 64
5, 1391428, Note_on_c, 3, 62, 91
5, 1391504, Note_on_c, 3, 61, 91
5, 1391508, Note_off_c, 3, 62, 64
5, 1391584, Note_off_c, 3, 61, 64
5, 1391584, Note_on_c, 3, 62, 91
5, 1391664, Note_off_c, 3, 62, 64
5, 1391664, Note_on_c, 3, 61, 91
5, 1391744, Note_off_c, 3, 61, 64
5, 1391744, Note_on_c, 3, 59, 91
5, 1391824, Note_off_c, 3, 59, 64
5, 1391824, Note_on_c, 3, 61, 91
5, 1391900, Note_on_c, 3, 59, 91
5, 1391904, Note_off_c, 3, 61, 64
5, 1391980, Note_off_c, 3, 59, 64
5, 1391980, Note_on_c, 3, 57, 91
5, 1392060, Note_off_c, 3, 57, 64
5, 1392060, Note_on_c, 3, 59, 91
5, 1392140, Note_off_c, 3, 59, 64
5, 1392140, Note_on_c, 3, 57, 91
5, 1392220, Note_off_c, 3, 57, 64
5, 1392220, Note_on_c, 3, 55, 91
5, 1392296, Note_on_c, 3, 57, 91
5, 1392300, Note_off_c, 3, 55, 64
5, 1392376, Note_off_c, 3, 57, 64
5, 1392376, Note_on_c, 3, 55, 91
5, 1392456, Note_off_c, 3, 55, 64
5, 1392456, Note_on_c, 3, 54, 91
5, 1392536, Note_off_c, 3, 54, 64
5, 1392536, Note_on_c, 3, 55, 91
5, 1392616, Note_off_c, 3, 55, 64
5, 1392616, Note_on_c, 3, 54, 91
5, 1392692, Note_on_c, 3, 52, 91
5, 1392696, Note_off_c, 3, 54, 64
5, 1392772, Note_off_c, 3, 52, 64
5, 1392772, Note_on_c, 3, 54, 91
5, 1392852, Note_off_c, 3, 54, 64
5, 1392852, Note_on_c, 3, 52, 91
5, 1392932, Note_off_c, 3, 52, 64
5, 1392960, Note_on_c, 3, 50, 91
5, 1393200, Note_off_c, 3, 50, 64
5, 1393200, Note_on_c, 3, 57, 91
5, 1393440, Note_off_c, 3, 57, 64
5, 1393440, Note_on_c, 3, 66, 91
5, 1393680, Note_off_c, 3, 66, 64
5, 1393680, Note_on_c, 3, 57, 91
5, 1393920, Note_off_c, 3, 57, 64
5, 1393920, Note_on_c, 3, 50, 91
5, 1394160, Note_off_c, 3, 50, 64
5, 1394160, Note_on_c, 3, 60, 91
5, 1394400, Note_off_c, 3, 60, 64
5, 1394400, Note_on_c, 3, 59, 91
5, 1394480, Note_off_c, 3, 59, 64
5, 1394480, Note_on_c, 3, 55, 91
5, 1394560, Note_off_c, 3, 55, 64
5, 1394560, Note_on_c, 3, 62, 91
5, 1394636, Note_on_c, 3, 61, 91
5, 1394640, Note_off_c, 3, 62, 64
5, 1394716, Note_off_c, 3, 61, 64
5, 1394716, Note_on_c, 3, 57, 91
5, 1394796, Note_off_c, 3, 57, 64
5, 1394796, Note_on_c, 3, 64, 91
5, 1394876, Note_off_c, 3, 64, 64
5, 1394876, Note_on_c, 3, 62, 91
5, 1394956, Note_off_c, 3, 62, 64
5, 1394956, Note_on_c, 3, 59, 91
5, 1395032, Note_on_c, 3, 66, 91
5, 1395036, Note_off_c, 3, 59, 64
5, 1395112, Note_off_c, 3, 66, 64
5, 1395112, Note_on_c, 3, 64, 91
5, 1395192, Note_off_c, 3, 64, 64
5, 1395192, Note_on_c, 3, 61, 91
5, 1395272, Note_off_c, 3, 61, 64
5, 1395272, Note_on_c, 3, 67, 91
5, 1395352, Note_off_c, 3, 67, 64
5, 1395352, Note_on_c, 3, 66, 91
5, 1395428, Note_on_c, 3, 62, 91
5, 1395432, Note_off_c, 3, 66, 64
5, 1395508, Note_off_c, 3, 62, 64
5, 1395508, Note_on_c, 3, 69, 91
5, 1395588, Note_off_c, 3, 69, 64
5, 1395588, Note_on_c, 3, 67, 91
5, 1395668, Note_off_c, 3, 67, 64
5, 1395668, Note_on_c, 3, 64, 91
5, 1395748, Note_off_c, 3, 64, 64
5, 1395748, Note_on_c, 3, 71, 91
5, 1395828, Note_off_c, 3, 71, 64
5, 1395840, Note_on_c, 3, 69, 91
5, 1396156, Note_off_c, 3, 69, 64
5, 1396156, Note_on_c, 3, 71, 91
5, 1396236, Note_off_c, 3, 71, 64
5, 1396236, Note_on_c, 3, 73, 91
5, 1396316, Note_off_c, 3, 73, 64
5, 1396316, Note_on_c, 3, 74, 91
5, 1396396, Note_off_c, 3, 74, 64
5, 1396396, Note_on_c, 3, 73, 91
5, 1396472, Note_on_c, 3, 71, 91
5, 1396476, Note_off_c, 3, 73, 64
5, 1396552, Note_off_c, 3, 71, 64
5, 1396552, Note_on_c, 3, 69, 91
5, 1396868, Note_off_c, 3, 69, 64
5, 1396868, Note_on_c, 3, 67, 91
5, 1396948, Note_off_c, 3, 67, 64
5, 1396948, Note_on_c, 3, 66, 91
5, 1397028, Note_off_c, 3, 66, 64
5, 1397028, Note_on_c, 3, 64, 91
5, 1397108, Note_off_c, 3, 64, 64
5, 1397108, Note_on_c, 3, 66, 91
5, 1397188, Note_off_c, 3, 66, 64
5, 1397188, Note_on_c, 3, 67, 91
5, 1397268, Note_off_c, 3, 67, 64
5, 1397280, Note_on_c, 3, 66, 91
5, 1397516, Note_off_c, 3, 66, 64
5, 1397676, Note_on_c, 3, 66, 91
5, 1397756, Note_off_c, 3, 66, 64
5, 1397756, Note_on_c, 3, 69, 91
5, 1397836, Note_off_c, 3, 69, 64
5, 1397836, Note_on_c, 3, 74, 91
5, 1397912, Note_on_c, 3, 78, 91
5, 1397916, Note_off_c, 3, 74, 64
5, 1397992, Note_off_c, 3, 78, 64
5, 1397992, Note_on_c, 3, 81, 91
5, 1398072, Note_off_c, 3, 81, 64
5, 1398072, Note_on_c, 3, 86, 91
5, 1398308, Note_off_c, 3, 86, 64
5, 1398720, Note_on_c, 3, 50, 109
5, 1398956, Note_off_c, 3, 50, 64
5, 1398960, Note_on_c, 3, 38, 88
5, 1399196, Note_off_c, 3, 38, 64
5, 1399200, Note_on_c, 3, 42, 93
5, 1399436, Note_off_c, 3, 42, 64
5, 1399440, Note_on_c, 3, 45, 95
5, 1399676, Note_off_c, 3, 45, 64
5, 1399680, Note_on_c, 3, 50, 74
5, 1399916, Note_off_c, 3, 50, 64
5, 1399920, Note_on_c, 3, 54, 97
5, 1400156, Note_off_c, 3, 54, 64
5, 1400160, Note_on_c, 3, 55, 92
5, 1400396, Note_off_c, 3, 55, 64
5, 1400400, Note_on_c, 3, 59, 86
5, 1400636, Note_off_c, 3, 59, 64
5, 1400640, Note_on_c, 3, 62, 98
5, 1400876, Note_off_c, 3, 62, 64
5, 1400880, Note_on_c, 3, 67, 95
5, 1401116, Note_off_c, 3, 67, 64
5, 1401120, Note_on_c, 3, 71, 97
5, 1401180, Note_off_c, 3, 71, 64
5, 1401180, Note_on_c, 3, 69, 90
5, 1401240, Note_off_c, 3, 69, 64
5, 1401240, Note_on_c, 3, 71, 88
5, 1401596, Note_off_c, 3, 71, 64
5, 1401684, Note_on_c, 3, 64, 98
5, 1401752, Note_off_c, 3, 64, 64
5, 1401760, Note_on_c, 3, 63, 94
5, 1401820, Note_off_c, 3, 63, 64
5, 1401836, Note_on_c, 3, 64, 96
5, 1401912, Note_on_c, 3, 66, 85
5, 1401920, Note_off_c, 3, 64, 64
5, 1401984, Note_on_c, 3, 67, 98
5, 1401992, Note_off_c, 3, 66, 64
5, 1402076, Note_on_c, 3, 69, 101
5, 1402080, Note_off_c, 3, 67, 64
5, 1402156, Note_on_c, 3, 67, 93
5, 1402172, Note_off_c, 3, 69, 64
5, 1402228, Note_on_c, 3, 66, 99
5, 1402240, Note_off_c, 3, 67, 64
5, 1402312, Note_on_c, 3, 67, 90
5, 1402316, Note_off_c, 3, 66, 64
5, 1402388, Note_on_c, 3, 69, 91
5, 1402392, Note_off_c, 3, 67, 64
5, 1402464, Note_off_c, 3, 69, 64
5, 1402468, Note_on_c, 3, 71, 96
5, 1402524, Note_off_c, 3, 71, 64
5, 1402560, Note_on_c, 3, 72, 111
5, 1402640, Note_on_c, 3, 71, 88
5, 1402660, Note_off_c, 3, 72, 64
5, 1402724, Note_off_c, 3, 71, 64
5, 1402724, Note_on_c, 3, 69, 77
5, 1402800, Note_off_c, 3, 69, 64
5, 1402808, Note_on_c, 3, 67, 81
5, 1402888, Note_on_c, 3, 66, 86
5, 1402896, Note_off_c, 3, 67, 64
5, 1402956, Note_off_c, 3, 66, 64
5, 1402964, Note_on_c, 3, 64, 85
5, 1403052, Note_on_c, 3, 63, 108
5, 1403060, Note_off_c, 3, 64, 64
5, 1403360, Note_off_c, 3, 63, 64
5, 1403368, Note_on_c, 3, 64, 101
5, 1403440, Note_on_c, 3, 66, 101
5, 1403456, Note_off_c, 3, 64, 64
5, 1403512, Note_on_c, 3, 67, 102
5, 1403516, Note_off_c, 3, 66, 64
5, 1403588, Note_on_c, 3, 66, 102
5, 1403608, Note_off_c, 3, 67, 64
5, 1403656, Note_off_c, 3, 66, 64
5, 1403664, Note_on_c, 3, 64, 96
5, 1403748, Note_on_c, 3, 66, 92
5, 1403768, Note_off_c, 3, 64, 64
5, 1403820, Note_on_c, 3, 67, 92
5, 1403824, Note_off_c, 3, 66, 64
5, 1403896, Note_on_c, 3, 69, 89
5, 1403904, Note_off_c, 3, 67, 64
5, 1403980, Note_off_c, 3, 69, 64
5, 1403996, Note_on_c, 3, 59, 102
5, 1404236, Note_on_c, 3, 57, 104
5, 1404260, Note_off_c, 3, 59, 64
5, 1404472, Note_off_c, 3, 57, 64
5, 1404476, Note_on_c, 3, 55, 97
5, 1404548, Note_on_c, 3, 54, 97
5, 1404556, Note_off_c, 3, 55, 64
5, 1404628, Note_off_c, 3, 54, 64
5, 1404628, Note_on_c, 3, 52, 104
5, 1404808, Note_on_c, 3, 51, 97
5, 1404824, Note_off_c, 3, 52, 64
5, 1404884, Note_off_c, 3, 51, 64
5, 1404888, Note_on_c, 3, 52, 101
5, 1404956, Note_off_c, 3, 52, 64
5, 1404964, Note_on_c, 3, 53, 102
5, 1405032, Note_off_c, 3, 53, 64
5, 1405040, Note_on_c, 3, 52, 91
5, 1405112, Note_on_c, 3, 53, 98
5, 1405128, Note_off_c, 3, 52, 64
5, 1405192, Note_on_c, 3, 54, 93
5, 1405200, Note_off_c, 3, 53, 64
5, 1405252, Note_off_c, 3, 54, 64
5, 1405264, Note_on_c, 3, 52, 74
5, 1405344, Note_on_c, 3, 54, 96
5, 1405364, Note_off_c, 3, 52, 64
5, 1405416, Note_off_c, 3, 54, 64
5, 1405416, Note_on_c, 3, 55, 93
5, 1405492, Note_on_c, 3, 54, 104
5, 1405504, Note_off_c, 3, 55, 64
5, 1405568, Note_off_c, 3, 54, 64
5, 1405568, Note_on_c, 3, 55, 95
5, 1405648, Note_on_c, 3, 56, 99
5, 1405652, Note_off_c, 3, 55, 64
5, 1405712, Note_off_c, 3, 56, 64
5, 1405720, Note_on_c, 3, 54, 89
5, 1405800, Note_on_c, 3, 56, 96
5, 1405804, Note_off_c, 3, 54, 64
5, 1405876, Note_off_c, 3, 56, 64
5, 1405884, Note_on_c, 3, 57, 121
5, 1406204, Note_on_c, 3, 58, 104
5, 1406212, Note_off_c, 3, 57, 64
5, 1406272, Note_off_c, 3, 58, 64
5, 1406276, Note_on_c, 3, 59, 98
5, 1406368, Note_on_c, 3, 60, 111
5, 1406380, Note_off_c, 3, 59, 64
5, 1406452, Note_off_c, 3, 60, 64
5, 1406452, Note_on_c, 3, 59, 93
5, 1406528, Note_off_c, 3, 59, 64
5, 1406528, Note_on_c, 3, 60, 106
5, 1406612, Note_on_c, 3, 61, 106
5, 1406616, Note_off_c, 3, 60, 64
5, 1406688, Note_off_c, 3, 61, 64
5, 1406692, Note_on_c, 3, 59, 96
5, 1406764, Note_on_c, 3, 61, 94
5, 1406776, Note_off_c, 3, 59, 64
5, 1406848, Note_on_c, 3, 62, 107
5, 1406856, Note_off_c, 3, 61, 64
5, 1406916, Note_off_c, 3, 62, 64
5, 1406924, Note_on_c, 3, 61, 104
5, 1407000, Note_on_c, 3, 62, 77
5, 1407008, Note_off_c, 3, 61, 64
5, 1407064, Note_off_c, 3, 62, 64
5, 1407084, Note_on_c, 3, 63, 121
5, 1407164, Note_on_c, 3, 61, 99
5, 1407180, Note_off_c, 3, 63, 64
5, 1407236, Note_on_c, 3, 63, 102
5, 1407244, Note_off_c, 3, 61, 64
5, 1407300, Note_on_c, 3, 64, 107
5, 1407320, Note_off_c, 3, 63, 64
5, 1407400, Note_off_c, 3, 64, 64
5, 1407400, Note_on_c, 3, 63, 89
5, 1407484, Note_off_c, 3, 63, 64
5, 1407484, Note_on_c, 3, 64, 95
5, 1407580, Note_off_c, 3, 64, 64
5, 1407580, Note_on_c, 3, 66, 106
5, 1407656, Note_off_c, 3, 66, 64
5, 1407664, Note_on_c, 3, 64, 98
5, 1407744, Note_on_c, 3, 66, 108
5, 1407760, Note_off_c, 3, 64, 64
5, 1407832, Note_on_c, 3, 67, 107
5, 1407848, Note_off_c, 3, 66, 64
5, 1407908, Note_on_c, 3, 66, 101
5, 1407912, Note_off_c, 3, 67, 64
5, 1407984, Note_on_c, 3, 67, 102
5, 1407996, Note_off_c, 3, 66, 64
5, 1408076, Note_on_c, 3, 69, 101
5, 1408080, Note_off_c, 3, 67, 64
5, 1408156, Note_on_c, 3, 67, 107
5, 1408168, Note_off_c, 3, 69, 64
5, 1408240, Note_off_c, 3, 67, 64
5, 1408240, Note_on_c, 3, 69, 101
5, 1408288, Note_off_c, 3, 69, 64
5, 1408320, Note_on_c, 3, 71, 86
5, 1408396, Note_off_c, 3, 71, 64
5, 1408404, Note_on_c, 3, 69, 85
5, 1408476, Note_on_c, 3, 71, 92
5, 1408496, Note_off_c, 3, 69, 64
5, 1408568, Note_on_c, 3, 72, 111
5, 1408576, Note_off_c, 3, 71, 64
5, 1408644, Note_on_c, 3, 71, 100
5, 1408660, Note_off_c, 3, 72, 64
5, 1408732, Note_off_c, 3, 71, 64
5, 1408740, Note_on_c, 3, 69, 95
5, 1408808, Note_on_c, 3, 67, 104
5, 1408848, Note_off_c, 3, 69, 64
5, 1408884, Note_off_c, 3, 67, 64
5, 1408884, Note_on_c, 3, 66, 93
5, 1408948, Note_on_c, 3, 67, 91
5, 1408952, Note_off_c, 3, 66, 64
5, 1409028, Note_on_c, 3, 69, 84
5, 1409032, Note_off_c, 3, 67, 64
5, 1409112, Note_on_c, 3, 67, 91
5, 1409124, Note_off_c, 3, 69, 64
5, 1409192, Note_on_c, 3, 66, 97
5, 1409200, Note_off_c, 3, 67, 64
5, 1409284, Note_off_c, 3, 66, 64
5, 1409284, Note_on_c, 3, 64, 111
5, 1409768, Note_off_c, 3, 64, 64
5, 1409988, Note_on_c, 3, 50, 102
5, 1410232, Note_off_c, 3, 50, 64
5, 1410232, Note_on_c, 3, 48, 107
5, 1410348, Note_off_c, 3, 48, 64
5, 1410480, Note_on_c, 3, 64, 107
5, 1410596, Note_off_c, 3, 64, 64
5, 1410720, Note_on_c, 3, 64, 119
5, 1410836, Note_off_c, 3, 64, 64
5, 1410960, Note_on_c, 3, 64, 121
5, 1411076, Note_off_c, 3, 64, 64
5, 1411200, Note_on_c, 3, 64, 121
5, 1411316, Note_off_c, 3, 64, 64
5, 1411440, Note_on_c, 3, 48, 109
5, 1411676, Note_off_c, 3, 48, 64
5, 1411680, Note_on_c, 3, 47, 115
5, 1411796, Note_off_c, 3, 47, 64
5, 1411920, Note_on_c, 3, 62, 121
5, 1412036, Note_off_c, 3, 62, 64
5, 1412160, Note_on_c, 3, 62, 121
5, 1412276, Note_off_c, 3, 62, 64
5, 1412400, Note_on_c, 3, 62, 111
5, 1412516, Note_off_c, 3, 62, 64
5, 1412640, Note_on_c, 3, 62, 113
5, 1412756, Note_off_c, 3, 62, 64
5, 1412880, Note_on_c, 3, 47, 111
5, 1413116, Note_off_c, 3, 47, 64
5, 1413120, Note_on_c, 3, 45, 111
5, 1413356, Note_off_c, 3, 45, 64
5, 1413440, Note_on_c, 3, 59, 100
5, 1413516, Note_off_c, 3, 59, 64
5, 1413520, Note_on_c, 3, 67, 111
5, 1413596, Note_off_c, 3, 67, 64
5, 1413680, Note_on_c, 3, 57, 97
5, 1413756, Note_off_c, 3, 57, 64
5, 1413760, Note_on_c, 3, 66, 110
5, 1413836, Note_off_c, 3, 66, 64
5, 1413920, Note_on_c, 3, 55, 96
5, 1413996, Note_off_c, 3, 55, 64
5, 1414000, Note_on_c, 3, 64, 115
5, 1414076, Note_off_c, 3, 64, 64
5, 1414160, Note_on_c, 3, 54, 102
5, 1414236, Note_off_c, 3, 54, 64
5, 1414240, Note_on_c, 3, 62, 117
5, 1414316, Note_off_c, 3, 62, 64
5, 1414400, Note_on_c, 3, 55, 92
5, 1414476, Note_off_c, 3, 55, 64
5, 1414480, Note_on_c, 3, 64, 104
5, 1414556, Note_off_c, 3, 64, 64
5, 1414560, Note_on_c, 3, 50, 111
5, 1414796, Note_off_c, 3, 50, 64
5, 1414880, Note_on_c, 3, 57, 96
5, 1414956, Note_off_c, 3, 57, 64
5, 1414960, Note_on_c, 3, 66, 115
5, 1415036, Note_off_c, 3, 66, 64
5, 1415120, Note_on_c, 3, 59, 102
5, 1415196, Note_off_c, 3, 59, 64
5, 1415200, Note_on_c, 3, 67, 111
5, 1415276, Note_off_c, 3, 67, 64
5, 1415360, Note_on_c, 3, 60, 106
5, 1415436, Note_off_c, 3, 60, 64
5, 1415440, Note_on_c, 3, 69, 101
5, 1415516, Note_off_c, 3, 69, 64
5, 1415600, Note_on_c, 3, 59, 91
5, 1415676, Note_off_c, 3, 59, 64
5, 1415680, Note_on_c, 3, 67, 113
5, 1415756, Note_off_c, 3, 67, 64
5, 1415840, Note_on_c, 3, 57, 101
5, 1415916, Note_off_c, 3, 57, 64
5, 1415920, Note_on_c, 3, 66, 102
5, 1415996, Note_off_c, 3, 66, 64
5, 1416000, Note_on_c, 3, 55, 98
5, 1416236, Note_off_c, 3, 55, 64
5, 1416240, Note_on_c, 3, 67, 109
5, 1416476, Note_off_c, 3, 67, 64
5, 1416560, Note_on_c, 3, 71, 117
5, 1416636, Note_off_c, 3, 71, 64
5, 1416640, Note_on_c, 3, 64, 104
5, 1416716, Note_off_c, 3, 64, 64
5, 1416720, Note_on_c, 3, 65, 98
5, 1416796, Note_off_c, 3, 65, 64
5, 1416800, Note_on_c, 3, 69, 109
5, 1416876, Note_off_c, 3, 69, 64
5, 1416880, Note_on_c, 3, 62, 98
5, 1416956, Note_off_c, 3, 62, 64
5, 1416960, Note_on_c, 3, 64, 98
5, 1417036, Note_off_c, 3, 64, 64
5, 1417040, Note_on_c, 3, 67, 109
5, 1417116, Note_off_c, 3, 67, 64
5, 1417120, Note_on_c, 3, 60, 95
5, 1417196, Note_off_c, 3, 60, 64
5, 1417200, Note_on_c, 3, 62, 100
5, 1417276, Note_off_c, 3, 62, 64
5, 1417280, Note_on_c, 3, 65, 106
5, 1417356, Note_off_c, 3, 65, 64
5, 1417360, Note_on_c, 3, 59, 100
5, 1417436, Note_off_c, 3, 59, 64
5, 1417440, Note_on_c, 3, 60, 100
5, 1417516, Note_off_c, 3, 60, 64
5, 1417520, Note_on_c, 3, 55, 92
5, 1417596, Note_off_c, 3, 55, 64
5, 1417600, Note_on_c, 3, 64, 100
5, 1417676, Note_off_c, 3, 64, 64
5, 1417680, Note_on_c, 3, 62, 98
5, 1417756, Note_off_c, 3, 62, 64
5, 1417760, Note_on_c, 3, 59, 100
5, 1417836, Note_off_c, 3, 59, 64
5, 1417840, Note_on_c, 3, 65, 102
5, 1417916, Note_off_c, 3, 65, 64
5, 1417920, Note_on_c, 3, 64, 101
5, 1418156, Note_off_c, 3, 64, 64
5, 1418160, Note_on_c, 3, 79, 106
5, 1418396, Note_off_c, 3, 79, 64
5, 1418400, Note_on_c, 3, 84, 117
5, 1418636, Note_off_c, 3, 84, 64
5, 1418640, Note_on_c, 3, 76, 107
5, 1418876, Note_off_c, 3, 76, 64
5, 1418880, Note_on_c, 3, 74, 117
5, 1419116, Note_off_c, 3, 74, 64
5, 1419200, Note_on_c, 3, 76, 98
5, 1419276, Note_off_c, 3, 76, 64
5, 1419280, Note_on_c, 3, 78, 97
5, 1419356, Note_off_c, 3, 78, 64
5, 1419360, Note_on_c, 3, 79, 104
5, 1419436, Note_off_c, 3, 79, 64
5, 1419440, Note_on_c, 3, 78, 102
5, 1419516, Note_off_c, 3, 78, 64
5, 1419520, Note_on_c, 3, 76, 109
5, 1419596, Note_off_c, 3, 76, 64
5, 1419600, Note_on_c, 3, 74, 113
5, 1419836, Note_off_c, 3, 74, 64
5, 1419840, Note_on_c, 3, 72, 104
5, 1419916, Note_off_c, 3, 72, 64
5, 1419920, Note_on_c, 3, 71, 101
5, 1419996, Note_off_c, 3, 71, 64
5, 1420000, Note_on_c, 3, 69, 96
5, 1420076, Note_off_c, 3, 69, 64
5, 1420080, Note_on_c, 3, 71, 106
5, 1420156, Note_off_c, 3, 71, 64
5, 1420160, Note_on_c, 3, 72, 109
5, 1420236, Note_off_c, 3, 72, 64
5, 1420240, Note_on_c, 3, 71, 117
5, 1420476, Note_off_c, 3, 71, 64
5, 1420800, Note_on_c, 3, 59, 102
5, 1420876, Note_off_c, 3, 59, 64
5, 1420880, Note_on_c, 3, 62, 109
5, 1420956, Note_off_c, 3, 62, 64
5, 1420960, Note_on_c, 3, 67, 102
5, 1421036, Note_off_c, 3, 67, 64
5, 1421040, Note_on_c, 3, 71, 98
5, 1421116, Note_off_c, 3, 71, 64
5, 1421120, Note_on_c, 3, 74, 107
5, 1421196, Note_off_c, 3, 74, 64
5, 1421200, Note_on_c, 3, 79, 111
5, 1421436, Note_off_c, 3, 79, 64
5, 1423200, Note_on_c, 3, 43, 117
5, 1423676, Note_off_c, 3, 43, 64
5, 1423680, Note_on_c, 3, 55, 111
5, 1424156, Note_off_c, 3, 55, 64
5, 1424160, Note_on_c, 3, 54, 115
5, 1424636, Note_off_c, 3, 54, 64
5, 1424640, Note_on_c, 3, 53, 121
5, 1425116, Note_off_c, 3, 53, 64
5, 1425120, Note_on_c, 3, 52, 109
5, 1425596, Note_off_c, 3, 52, 64
5, 1425600, Note_on_c, 3, 51, 121
5, 1426076, Note_off_c, 3, 51, 64
5, 1426080, Note_on_c, 3, 50, 95
5, 1426196, Note_off_c, 3, 50, 64
5, 1426200, Note_on_c, 3, 45, 84
5, 1426316, Note_off_c, 3, 45, 64
5, 1426320, Note_on_c, 3, 46, 96
5, 1426436, Note_off_c, 3, 46, 64
5, 1426440, Note_on_c, 3, 48, 98
5, 1426556, Note_off_c, 3, 48, 64
5, 1426560, Note_on_c, 3, 50, 98
5, 1426796, Note_off_c, 3, 50, 64
5, 1426800, Note_on_c, 3, 38, 97
5, 1427036, Note_off_c, 3, 38, 64
5, 1427040, Note_on_c, 3, 43, 97
5, 1427156, Note_off_c, 3, 43, 64
5, 1427160, Note_on_c, 3, 50, 92
5, 1427276, Note_off_c, 3, 50, 64
5, 1427280, Note_on_c, 3, 52, 97
5, 1427396, Note_off_c, 3, 52, 64
5, 1427400, Note_on_c, 3, 54, 97
5, 1427516, Note_off_c, 3, 54, 64
5, 1427520, Note_on_c, 3, 55, 92
5, 1427636, Note_off_c, 3, 55, 64
5, 1427640, Note_on_c, 3, 53, 101
5, 1427756, Note_off_c, 3, 53, 64
5, 1427760, Note_on_c, 3, 51, 110
5, 1427876, Note_off_c, 3, 51, 64
5, 1427880, Note_on_c, 3, 50, 97
5, 1427996, Note_off_c, 3, 50, 64
5, 1428000, Note_on_c, 3, 48, 111
5, 1428236, Note_off_c, 3, 48, 64
5, 1428240, Note_on_c, 3, 47, 102
5, 1428476, Note_off_c, 3, 47, 64
5, 1428480, Note_on_c, 3, 48, 98
5, 1428716, Note_off_c, 3, 48, 64
5, 1428720, Note_on_c, 3, 49, 108
5, 1428956, Note_off_c, 3, 49, 64
5, 1428960, Note_on_c, 3, 50, 106
5, 1429196, Note_off_c, 3, 50, 64
5, 1429200, Note_on_c, 3, 46, 104
5, 1429436, Note_off_c, 3, 46, 64
5, 1429440, Note_on_c, 3, 48, 111
5, 1429676, Note_off_c, 3, 48, 64
5, 1429680, Note_on_c, 3, 50, 111
5, 1429916, Note_off_c, 3, 50, 64
5, 1429920, Note_on_c, 3, 55, 111
5, 1430516, Note_off_c, 3, 55, 64
5, 1430520, Note_on_c, 3, 54, 112
5, 1430636, Note_off_c, 3, 54, 64
5, 1430640, Note_on_c, 3, 55, 102
5, 1430756, Note_off_c, 3, 55, 64
5, 1430760, Note_on_c, 3, 57, 113
5, 1430876, Note_off_c, 3, 57, 64
5, 1430880, Note_on_c, 3, 58, 106
5, 1430996, Note_off_c, 3, 58, 64
5, 1431000, Note_on_c, 3, 60, 96
5, 1431116, Note_off_c, 3, 60, 64
5, 1431120, Note_on_c, 3, 62, 106
5, 1431356, Note_off_c, 3, 62, 64
5, 1431360, Note_on_c, 3, 55, 102
5, 1431596, Note_off_c, 3, 55, 64
5, 1431600, Note_on_c, 3, 67, 119
5, 1431836, Note_off_c, 3, 67, 64
5, 1431840, Note_on_c, 3, 62, 106
5, 1432556, Note_off_c, 3, 62, 64
5, 1432560, Note_on_c, 3, 60, 115
5, 1432796, Note_off_c, 3, 60, 64
5, 1432800, Note_on_c, 3, 58, 115
5, 1433036, Note_off_c, 3, 58, 64
5, 1433040, Note_on_c, 3, 57, 111
5, 1433276, Note_off_c, 3, 57, 64
5, 1433280, Note_on_c, 3, 58, 101
5, 1433516, Note_off_c, 3, 58, 64
5, 1433520, Note_on_c, 3, 55, 100
5, 1433756, Note_off_c, 3, 55, 64
5, 1433760, Note_on_c, 3, 57, 106
5, 1433876, Note_off_c, 3, 57, 64
5, 1433880, Note_on_c, 3, 52, 96
5, 1433996, Note_off_c, 3, 52, 64
5, 1434000, Note_on_c, 3, 53, 104
5, 1434116, Note_off_c, 3, 53, 64
5, 1434120, Note_on_c, 3, 55, 101
5, 1434236, Note_off_c, 3, 55, 64
5, 1434240, Note_on_c, 3, 57, 100
5, 1434356, Note_off_c, 3, 57, 64
5, 1434360, Note_on_c, 3, 59, 106
5, 1434476, Note_off_c, 3, 59, 64
5, 1434480, Note_on_c, 3, 61, 106
5, 1434596, Note_off_c, 3, 61, 64
5, 1434600, Note_on_c, 3, 57, 101
5, 1434716, Note_off_c, 3, 57, 64
5, 1434720, Note_on_c, 3, 62, 109
5, 1434836, Note_off_c, 3, 62, 64
5, 1434840, Note_on_c, 3, 53, 93
5, 1434956, Note_off_c, 3, 53, 64
5, 1434960, Note_on_c, 3, 55, 111
5, 1435076, Note_off_c, 3, 55, 64
5, 1435080, Note_on_c, 3, 57, 113
5, 1435196, Note_off_c, 3, 57, 64
5, 1435200, Note_on_c, 3, 50, 78
5, 1435316, Note_off_c, 3, 50, 64
5, 1435320, Note_on_c, 3, 60, 104
5, 1435436, Note_off_c, 3, 60, 64
5, 1435440, Note_on_c, 3, 58, 104
5, 1435556, Note_off_c, 3, 58, 64
5, 1435560, Note_on_c, 3, 57, 106
5, 1435676, Note_off_c, 3, 57, 64
5, 1435680, Note_on_c, 3, 55, 93
5, 1435796, Note_off_c, 3, 55, 64
5, 1435800, Note_on_c, 3, 46, 101
5, 1435916, Note_off_c, 3, 46, 64
5, 1435920, Note_on_c, 3, 48, 106
5, 1436036, Note_off_c, 3, 48, 64
5, 1436040, Note_on_c, 3, 50, 101
5, 1436156, Note_off_c, 3, 50, 64
5, 1436160, Note_on_c, 3, 43, 86
5, 1436276, Note_off_c, 3, 43, 64
5, 1436280, Note_on_c, 3, 55, 121
5, 1436516, Note_off_c, 3, 55, 64
5, 1436520, Note_on_c, 3, 49, 99
5, 1436636, Note_off_c, 3, 49, 64
5, 1436640, Note_on_c, 3, 50, 107
5, 1436756, Note_off_c, 3, 50, 64
5, 1436760, Note_on_c, 3, 57, 117
5, 1436876, Note_off_c, 3, 57, 64
5, 1436880, Note_on_c, 3, 62, 117
5, 1437476, Note_off_c, 3, 62, 64
5, 1437480, Note_on_c, 3, 61, 112
5, 1437596, Note_off_c, 3, 61, 64
5, 1437600, Note_on_c, 3, 62, 111
5, 1437716, Note_off_c, 3, 62, 64
5, 1437720, Note_on_c, 3, 58, 96
5, 1437836, Note_off_c, 3, 58, 64
5, 1437840, Note_on_c, 3, 57, 95
5, 1437956, Note_off_c, 3, 57, 64
5, 1437960, Note_on_c, 3, 55, 92
5, 1438076, Note_off_c, 3, 55, 64
5, 1438080, Note_on_c, 3, 54, 112
5, 1438196, Note_off_c, 3, 54, 64
5, 1438200, Note_on_c, 3, 57, 96
5, 1438316, Note_off_c, 3, 57, 64
5, 1438320, Note_on_c, 3, 54, 106
5, 1438436, Note_off_c, 3, 54, 64
5, 1438440, Note_on_c, 3, 50, 100
5, 1438556, Note_off_c, 3, 50, 64
5, 1438560, Note_on_c, 3, 43, 117
5, 1439036, Note_off_c, 3, 43, 64
5, 1439040, Note_on_c, 3, 55, 111
5, 1439516, Note_off_c, 3, 55, 64
5, 1439520, Note_on_c, 3, 54, 115
5, 1439996, Note_off_c, 3, 54, 64
5, 1440000, Note_on_c, 3, 53, 121
5, 1440476, Note_off_c, 3, 53, 64
5, 1440480, Note_on_c, 3, 52, 109
5, 1440956, Note_off_c, 3, 52, 64
5, 1440960, Note_on_c, 3, 51, 121
5, 1441436, Note_off_c, 3, 51, 64
5, 1441440, Note_on_c, 3, 50, 95
5, 1441556, Note_off_c, 3, 50, 64
5, 1441560, Note_on_c, 3, 45, 84
5, 1441676, Note_off_c, 3, 45, 64
5, 1441680, Note_on_c, 3, 46, 96
5, 1441796, Note_off_c, 3, 46, 64
5, 1441800, Note_on_c, 3, 48, 98
5, 1441916, Note_off_c, 3, 48, 64
5, 1441920, Note_on_c, 3, 50, 98
5, 1442156, Note_off_c, 3, 50, 64
5, 1442160, Note_on_c, 3, 38, 97
5, 1442396, Note_off_c, 3, 38, 64
5, 1442400, Note_on_c, 3, 43, 97
5, 1442516, Note_off_c, 3, 43, 64
5, 1442520, Note_on_c, 3, 50, 92
5, 1442636, Note_off_c, 3, 50, 64
5, 1442640, Note_on_c, 3, 52, 97
5, 1442756, Note_off_c, 3, 52, 64
5, 1442760, Note_on_c, 3, 54, 97
5, 1442876, Note_off_c, 3, 54, 64
5, 1442880, Note_on_c, 3, 55, 92
5, 1442996, Note_off_c, 3, 55, 64
5, 1443000, Note_on_c, 3, 53, 101
5, 1443116, Note_off_c, 3, 53, 64
5, 1443120, Note_on_c, 3, 51, 110
5, 1443236, Note_off_c, 3, 51, 64
5, 1443240, Note_on_c, 3, 50, 97
5, 1443356, Note_off_c, 3, 50, 64
5, 1443360, Note_on_c, 3, 48, 111
5, 1443596, Note_off_c, 3, 48, 64
5, 1443600, Note_on_c, 3, 47, 102
5, 1443836, Note_off_c, 3, 47, 64
5, 1443840, Note_on_c, 3, 48, 98
5, 1444076, Note_off_c, 3, 48, 64
5, 1444080, Note_on_c, 3, 49, 108
5, 1444316, Note_off_c, 3, 49, 64
5, 1444320, Note_on_c, 3, 50, 106
5, 1444556, Note_off_c, 3, 50, 64
5, 1444560, Note_on_c, 3, 46, 104
5, 1444796, Note_off_c, 3, 46, 64
5, 1444800, Note_on_c, 3, 48, 111
5, 1445036, Note_off_c, 3, 48, 64
5, 1445040, Note_on_c, 3, 50, 111
5, 1445276, Note_off_c, 3, 50, 64
5, 1445280, Note_on_c, 3, 55, 111
5, 1445876, Note_off_c, 3, 55, 64
5, 1445880, Note_on_c, 3, 54, 112
5, 1445996, Note_off_c, 3, 54, 64
5, 1446000, Note_on_c, 3, 55, 102
5, 1446116, Note_off_c, 3, 55, 64
5, 1446120, Note_on_c, 3, 57, 113
5, 1446236, Note_off_c, 3, 57, 64
5, 1446240, Note_on_c, 3, 58, 106
5, 1446356, Note_off_c, 3, 58, 64
5, 1446360, Note_on_c, 3, 60, 96
5, 1446476, Note_off_c, 3, 60, 64
5, 1446480, Note_on_c, 3, 62, 106
5, 1446716, Note_off_c, 3, 62, 64
5, 1446720, Note_on_c, 3, 55, 102
5, 1446956, Note_off_c, 3, 55, 64
5, 1446960, Note_on_c, 3, 67, 119
5, 1447196, Note_off_c, 3, 67, 64
5, 1447200, Note_on_c, 3, 62, 106
5, 1447916, Note_off_c, 3, 62, 64
5, 1447920, Note_on_c, 3, 60, 115
5, 1448156, Note_off_c, 3, 60, 64
5, 1448160, Note_on_c, 3, 58, 115
5, 1448396, Note_off_c, 3, 58, 64
5, 1448400, Note_on_c, 3, 57, 111
5, 1448636, Note_off_c, 3, 57, 64
5, 1448640, Note_on_c, 3, 58, 101
5, 1448876, Note_off_c, 3, 58, 64
5, 1448880, Note_on_c, 3, 55, 100
5, 1449116, Note_off_c, 3, 55, 64
5, 1449120, Note_on_c, 3, 57, 106
5, 1449236, Note_off_c, 3, 57, 64
5, 1449240, Note_on_c, 3, 52, 96
5, 1449356, Note_off_c, 3, 52, 64
5, 1449360, Note_on_c, 3, 53, 104
5, 1449476, Note_off_c, 3, 53, 64
5, 1449480, Note_on_c, 3, 55, 101
5, 1449596, Note_off_c, 3, 55, 64
5, 1449600, Note_on_c, 3, 57, 100
5, 1449716, Note_off_c, 3, 57, 64
5, 1449720, Note_on_c, 3, 59, 106
5, 1449836, Note_off_c, 3, 59, 64
5, 1449840, Note_on_c, 3, 61, 106
5, 1449956, Note_off_c, 3, 61, 64
5, 1449960, Note_on_c, 3, 57, 101
5, 1450076, Note_off_c, 3, 57, 64
5, 1450080, Note_on_c, 3, 62, 109
5, 1450196, Note_off_c, 3, 62, 64
5, 1450200, Note_on_c, 3, 53, 93
5, 1450316, Note_off_c, 3, 53, 64
5, 1450320, Note_on_c, 3, 55, 111
5, 1450436, Note_off_c, 3, 55, 64
5, 1450440, Note_on_c, 3, 57, 113
5, 1450556, Note_off_c, 3, 57, 64
5, 1450560, Note_on_c, 3, 50, 78
5, 1450676, Note_off_c, 3, 50, 64
5, 1450680, Note_on_c, 3, 60, 104
5, 1450796, Note_off_c, 3, 60, 64
5, 1450800, Note_on_c, 3, 58, 104
5, 1450916, Note_off_c, 3, 58, 64
5, 1450920, Note_on_c, 3, 57, 106
5, 1451036, Note_off_c, 3, 57, 64
5, 1451040, Note_on_c, 3, 55, 93
5, 1451156, Note_off_c, 3, 55, 64
5, 1451160, Note_on_c, 3, 46, 101
5, 1451276, Note_off_c, 3, 46, 64
5, 1451280, Note_on_c, 3, 48, 106
5, 1451396, Note_off_c, 3, 48, 64
5, 1451400, Note_on_c, 3, 50, 101
5, 1451516, Note_off_c, 3, 50, 64
5, 1451520, Note_on_c, 3, 43, 86
5, 1451636, Note_off_c, 3, 43, 64
5, 1451640, Note_on_c, 3, 55, 121
5, 1451876, Note_off_c, 3, 55, 64
5, 1451880, Note_on_c, 3, 49, 99
5, 1451996, Note_off_c, 3, 49, 64
5, 1452000, Note_on_c, 3, 50, 107
5, 1452116, Note_off_c, 3, 50, 64
5, 1452120, Note_on_c, 3, 57, 117
5, 1452236, Note_off_c, 3, 57, 64
5, 1452240, Note_on_c, 3, 62, 117
5, 1452836, Note_off_c, 3, 62, 64
5, 1452840, Note_on_c, 3, 61, 112
5, 1452956, Note_off_c, 3, 61, 64
5, 1452960, Note_on_c, 3, 62, 111
5, 1453076, Note_off_c, 3, 62, 64
5, 1453080, Note_on_c, 3, 58, 96
5, 1453196, Note_off_c, 3, 58, 64
5, 1453200, Note_on_c, 3, 57, 95
5, 1453316, Note_off_c, 3, 57, 64
5, 1453320, Note_on_c, 3, 55, 92
5, 1453436, Note_off_c, 3, 55, 64
5, 1453440, Note_on_c, 3, 54, 112
5, 1453556, Note_off_c, 3, 54, 64
5, 1453560, Note_on_c, 3, 57, 96
5, 1453676, Note_off_c, 3, 57, 64
5, 1453680, Note_on_c, 3, 54, 106
5, 1453796, Note_off_c, 3, 54, 64
5, 1453800, Note_on_c, 3, 50, 100
5, 1453916, Note_off_c, 3, 50, 64
5, 1453920, Note_on_c, 3, 50, 97
5, 1454156, Note_off_c, 3, 50, 64
5, 1454160, Note_on_c, 3, 62, 107
5, 1454636, Note_off_c, 3, 62, 64
5, 1454640, Note_on_c, 3, 60, 95
5, 1454876, Note_off_c, 3, 60, 64
5, 1454880, Note_on_c, 3, 59, 96
5, 1455116, Note_off_c, 3, 59, 64
5, 1455120, Note_on_c, 3, 58, 97
5, 1455596, Note_off_c, 3, 58, 64
5, 1455600, Note_on_c, 3, 57, 98
5, 1455716, Note_off_c, 3, 57, 64
5, 1455720, Note_on_c, 3, 55, 96
5, 1455836, Note_off_c, 3, 55, 64
5, 1455840, Note_on_c, 3, 57, 101
5, 1456076, Note_off_c, 3, 57, 64
5, 1456080, Note_on_c, 3, 56, 104
5, 1456556, Note_off_c, 3, 56, 64
5, 1456560, Note_on_c, 3, 55, 97
5, 1456796, Note_off_c, 3, 55, 64
5, 1456800, Note_on_c, 3, 50, 98
5, 1457036, Note_off_c, 3, 50, 64
5, 1457040, Note_on_c, 3, 51, 108
5, 1457276, Note_off_c, 3, 51, 64
5, 1457280, Note_on_c, 3, 53, 100
5, 1457516, Note_off_c, 3, 53, 64
5, 1457520, Note_on_c, 3, 46, 106
5, 1457756, Note_off_c, 3, 46, 64
5, 1457760, Note_on_c, 3, 51, 112
5, 1458236, Note_off_c, 3, 51, 64
5, 1458480, Note_on_c, 3, 51, 110
5, 1458716, Note_off_c, 3, 51, 64
5, 1458720, Note_on_c, 3, 56, 112
5, 1459436, Note_off_c, 3, 56, 64
5, 1459440, Note_on_c, 3, 55, 100
5, 1459556, Note_off_c, 3, 55, 64
5, 1459560, Note_on_c, 3, 53, 96
5, 1459676, Note_off_c, 3, 53, 64
5, 1459680, Note_on_c, 3, 55, 102
5, 1460276, Note_off_c, 3, 55, 64
5, 1460280, Note_on_c, 3, 53, 104
5, 1460396, Note_off_c, 3, 53, 64
5, 1460400, Note_on_c, 3, 51, 101
5, 1460516, Note_off_c, 3, 51, 64
5, 1460520, Note_on_c, 3, 50, 97
5, 1460636, Note_off_c, 3, 50, 64
5, 1460640, Note_on_c, 3, 51, 94
5, 1460756, Note_off_c, 3, 51, 64
5, 1460760, Note_on_c, 3, 43, 97
5, 1460876, Note_off_c, 3, 43, 64
5, 1460880, Note_on_c, 3, 44, 110
5, 1460996, Note_off_c, 3, 44, 64
5, 1461000, Note_on_c, 3, 46, 104
5, 1461116, Note_off_c, 3, 46, 64
5, 1461120, Note_on_c, 3, 39, 106
5, 1461236, Note_off_c, 3, 39, 64
5, 1461240, Note_on_c, 3, 43, 93
5, 1461356, Note_off_c, 3, 43, 64
5, 1461360, Note_on_c, 3, 45, 93
5, 1461476, Note_off_c, 3, 45, 64
5, 1461480, Note_on_c, 3, 47, 100
5, 1461596, Note_off_c, 3, 47, 64
5, 1461600, Note_on_c, 3, 48, 100
5, 1462076, Note_off_c, 3, 48, 64
5, 1462320, Note_on_c, 3, 48, 92
5, 1462556, Note_off_c, 3, 48, 64
5, 1462560, Note_on_c, 3, 46, 89
5, 1463036, Note_off_c, 3, 46, 64
5, 1463280, Note_on_c, 3, 46, 97
5, 1463516, Note_off_c, 3, 46, 64
5, 1463520, Note_on_c, 3, 45, 92
5, 1463636, Note_off_c, 3, 45, 64
5, 1463640, Note_on_c, 3, 43, 91
5, 1463756, Note_off_c, 3, 43, 64
5, 1463760, Note_on_c, 3, 45, 98
5, 1463876, Note_off_c, 3, 45, 64
5, 1463880, Note_on_c, 3, 46, 92
5, 1463996, Note_off_c, 3, 46, 64
5, 1464000, Note_on_c, 3, 45, 97
5, 1464116, Note_off_c, 3, 45, 64
5, 1464120, Note_on_c, 3, 43, 96
5, 1464236, Note_off_c, 3, 43, 64
5, 1464240, Note_on_c, 3, 42, 104
5, 1464356, Note_off_c, 3, 42, 64
5, 1464360, Note_on_c, 3, 40, 100
5, 1464476, Note_off_c, 3, 40, 64
5, 1464480, Note_on_c, 3, 38, 97
5, 1464596, Note_off_c, 3, 38, 64
5, 1464600, Note_on_c, 3, 48, 117
5, 1464716, Note_off_c, 3, 48, 64
5, 1464720, Note_on_c, 3, 50, 115
5, 1464836, Note_off_c, 3, 50, 64
5, 1464840, Note_on_c, 3, 51, 115
5, 1464956, Note_off_c, 3, 51, 64
5, 1464960, Note_on_c, 3, 50, 86
5, 1465076, Note_off_c, 3, 50, 64
5, 1465080, Note_on_c, 3, 48, 97
5, 1465196, Note_off_c, 3, 48, 64
5, 1465200, Note_on_c, 3, 46, 97
5, 1465316, Note_off_c, 3, 46, 64
5, 1465320, Note_on_c, 3, 45, 104
5, 1465436, Note_off_c, 3, 45, 64
5, 1465440, Note_on_c, 3, 43, 104
5, 1465556, Note_off_c, 3, 43, 64
5, 1465560, Note_on_c, 3, 54, 79
5, 1465676, Note_off_c, 3, 54, 64
5, 1465680, Note_on_c, 3, 55, 79
5, 1465796, Note_off_c, 3, 55, 64
5, 1465800, Note_on_c, 3, 56, 112
5, 1465916, Note_off_c, 3, 56, 64
5, 1465920, Note_on_c, 3, 55, 85
5, 1466036, Note_off_c, 3, 55, 64
5, 1466040, Note_on_c, 3, 53, 98
5, 1466156, Note_off_c, 3, 53, 64
5, 1466160, Note_on_c, 3, 51, 108
5, 1466276, Note_off_c, 3, 51, 64
5, 1466280, Note_on_c, 3, 50, 100
5, 1466396, Note_off_c, 3, 50, 64
5, 1466400, Note_on_c, 3, 48, 107
5, 1466516, Note_off_c, 3, 48, 64
5, 1466520, Note_on_c, 3, 47, 104
5, 1466636, Note_off_c, 3, 47, 64
5, 1466640, Note_on_c, 3, 48, 100
5, 1466756, Note_off_c, 3, 48, 64
5, 1466760, Note_on_c, 3, 49, 110
5, 1466876, Note_off_c, 3, 49, 64
5, 1466880, Note_on_c, 3, 50, 101
5, 1466996, Note_off_c, 3, 50, 64
5, 1467000, Note_on_c, 3, 51, 113
5, 1467116, Note_off_c, 3, 51, 64
5, 1467120, Note_on_c, 3, 50, 95
5, 1467236, Note_off_c, 3, 50, 64
5, 1467240, Note_on_c, 3, 48, 109
5, 1467356, Note_off_c, 3, 48, 64
5, 1467360, Note_on_c, 3, 46, 97
5, 1467476, Note_off_c, 3, 46, 64
5, 1467480, Note_on_c, 3, 45, 91
5, 1467596, Note_off_c, 3, 45, 64
5, 1467600, Note_on_c, 3, 46, 106
5, 1467716, Note_off_c, 3, 46, 64
5, 1467720, Note_on_c, 3, 47, 102
5, 1467836, Note_off_c, 3, 47, 64
5, 1467840, Note_on_c, 3, 48, 115
5, 1468076, Note_off_c, 3, 48, 64
5, 1468080, Note_on_c, 3, 50, 101
5, 1468316, Note_off_c, 3, 50, 64
5, 1468320, Note_on_c, 3, 43, 72
5, 1468436, Note_off_c, 3, 43, 64
5, 1468440, Note_on_c, 3, 50, 109
5, 1468556, Note_off_c, 3, 50, 64
5, 1468560, Note_on_c, 3, 46, 101
5, 1468676, Note_off_c, 3, 46, 64
5, 1468680, Note_on_c, 3, 50, 107
5, 1468796, Note_off_c, 3, 50, 64
5, 1468800, Note_on_c, 3, 55, 115
5, 1468916, Note_off_c, 3, 55, 64
5, 1468920, Note_on_c, 3, 50, 102
5, 1469036, Note_off_c, 3, 50, 64
5, 1469040, Note_on_c, 3, 46, 106
5, 1469156, Note_off_c, 3, 46, 64
5, 1469160, Note_on_c, 3, 43, 109
5, 1469276, Note_off_c, 3, 43, 64
5, 1469280, Note_on_c, 3, 55, 104
5, 1471196, Note_off_c, 3, 55, 64
5, 1471200, Note_on_c, 3, 54, 112
5, 1473116, Note_off_c, 3, 54, 64
5, 1473120, Note_on_c, 3, 52, 107
5, 1475036, Note_off_c, 3, 52, 64
5, 1475040, Note_on_c, 3, 50, 96
5, 1476476, Note_off_c, 3, 50, 64
5, 1476480, Note_on_c, 3, 48, 104
5, 1476956, Note_off_c, 3, 48, 64
5, 1476960, Note_on_c, 3, 47, 96
5, 1478876, Note_off_c, 3, 47, 64
5, 1478880, Note_on_c, 3, 48, 115
5, 1480796, Note_off_c, 3, 48, 64
5, 1480800, Note_on_c, 3, 50, 107
5, 1482716, Note_off_c, 3, 50, 64
5, 1482720, Note_on_c, 3, 43, 117
5, 1485116, Note_off_c, 3, 43, 64
5, 1485120, Note_on_c, 3, 55, 95
5, 1485356, Note_off_c, 3, 55, 64
5, 1485360, Note_on_c, 3, 54, 104
5, 1485596, Note_off_c, 3, 54, 64
5, 1485600, Note_on_c, 3, 55, 111
5, 1487036, Note_off_c, 3, 55, 64
5, 1487040, Note_on_c, 3, 54, 110
5, 1487276, Note_off_c, 3, 54, 64
5, 1487280, Note_on_c, 3, 52, 88
5, 1487516, Note_off_c, 3, 52, 64
5, 1487520, Note_on_c, 3, 52, 58
5, 1487520, Note_on_c, 3, 54, 70
5, 1487756, Note_off_c, 3, 52, 64
5, 1487996, Note_off_c, 3, 54, 64
5, 1488000, Note_on_c, 3, 59, 90
5, 1488476, Note_off_c, 3, 59, 64
5, 1488480, Note_on_c, 3, 52, 102
5, 1489916, Note_off_c, 3, 52, 64
5, 1489920, Note_on_c, 3, 50, 100
5, 1490876, Note_off_c, 3, 50, 64
5, 1490880, Note_on_c, 3, 49, 108
5, 1491116, Note_off_c, 3, 49, 64
5, 1491120, Note_on_c, 3, 47, 85
5, 1491356, Note_off_c, 3, 47, 64
5, 1491360, Note_on_c, 3, 49, 92
5, 1491836, Note_off_c, 3, 49, 64
5, 1491840, Note_on_c, 3, 52, 97
5, 1492316, Note_off_c, 3, 52, 64
5, 1492320, Note_on_c, 3, 42, 119
5, 1493276, Note_off_c, 3, 42, 64
5, 1493280, Note_on_c, 3, 54, 119
5, 1494236, Note_off_c, 3, 54, 64
5, 1494240, Note_on_c, 3, 43, 119
5, 1495196, Note_off_c, 3, 43, 64
5, 1495200, Note_on_c, 3, 52, 123
5, 1496156, Note_off_c, 3, 52, 64
5, 1496160, Note_on_c, 3, 45, 93
5, 1498076, Note_off_c, 3, 45, 64
5, 1498080, Note_on_c, 3, 50, 107
5, 1499756, Note_off_c, 3, 50, 64
5, 1500000, Note_on_c, 3, 62, 88
5, 1501436, Note_off_c, 3, 62, 64
5, 1501440, Note_on_c, 3, 60, 102
5, 1501916, Note_off_c, 3, 60, 64
5, 1501920, Note_on_c, 3, 59, 96
5, 1502396, Note_off_c, 3, 59, 64
5, 1502400, Note_on_c, 3, 62, 102
5, 1502876, Note_off_c, 3, 62, 64
5, 1502880, Note_on_c, 3, 67, 84
5, 1503356, Note_off_c, 3, 67, 64
5, 1503360, Note_on_c, 3, 55, 93
5, 1503836, Note_off_c, 3, 55, 64
5, 1503840, Note_on_c, 3, 60, 73
5, 1504316, Note_off_c, 3, 60, 64
5, 1504320, Note_on_c, 3, 64, 73
5, 1504796, Note_off_c, 3, 64, 64
5, 1504800, Note_on_c, 3, 60, 101
5, 1505276, Note_off_c, 3, 60, 64
5, 1505280, Note_on_c, 3, 57, 99
5, 1505756, Note_off_c, 3, 57, 64
5, 1505760, Note_on_c, 3, 59, 109
5, 1506236, Note_off_c, 3, 59, 64
5, 1506240, Note_on_c, 3, 47, 121
5, 1506716, Note_off_c, 3, 47, 64
5, 1506720, Note_on_c, 3, 59, 111
5, 1507196, Note_off_c, 3, 59, 64
5, 1507200, Note_on_c, 3, 57, 104
5, 1507676, Note_off_c, 3, 57, 64
5, 1507680, Note_on_c, 3, 55, 100
5, 1509596, Note_off_c, 3, 55, 64
5, 1509600, Note_on_c, 3, 57, 104
5, 1511516, Note_off_c, 3, 57, 64
5, 1511520, Note_on_c, 3, 59, 106
5, 1513436, Note_off_c, 3, 59, 64
5, 1513440, Note_on_c, 3, 52, 107
5, 1514876, Note_off_c, 3, 52, 64
5, 1514880, Note_on_c, 3, 50, 98
5, 1515356, Note_off_c, 3, 50, 64
5, 1515360, Note_on_c, 3, 48, 100
5, 1516316, Note_off_c, 3, 48, 64
5, 1516320, Note_on_c, 3, 60, 101
5, 1517756, Note_off_c, 3, 60, 64
5, 1517760, Note_on_c, 3, 59, 106
5, 1517996, Note_off_c, 3, 59, 64
5, 1518000, Note_on_c, 3, 57, 84
5, 1518236, Note_off_c, 3, 57, 64
5, 1518240, Note_on_c, 3, 59, 97
5, 1518716, Note_off_c, 3, 59, 64
5, 1518720, Note_on_c, 3, 64, 98
5, 1519196, Note_off_c, 3, 64, 64
5, 1519200, Note_on_c, 3, 57, 101
5, 1520640, Note_off_c, 3, 57, 64
5, 1520640, Note_on_c, 3, 55, 98
5, 1521116, Note_off_c, 3, 55, 64
5, 1521120, Note_on_c, 3, 54, 106
5, 1522076, Note_off_c, 3, 54, 64
5, 1522080, Note_on_c, 3, 55, 106
5, 1523036, Note_off_c, 3, 55, 64
5, 1523040, Note_on_c, 3, 52, 106
5, 1524476, Note_off_c, 3, 52, 64
5, 1524480, Note_on_c, 3, 50, 95
5, 1524956, Note_off_c, 3, 50, 64
5, 1524960, Note_on_c, 3, 48, 119
5, 1525916, Note_off_c, 3, 48, 64
5, 1525920, Note_on_c, 3, 49, 117
5, 1526876, Note_off_c, 3, 49, 64
5, 1526880, Note_on_c, 3, 50, 117
5, 1528796, Note_off_c, 3, 50, 64
5, 1528800, Note_on_c, 3, 43, 109
5, 1530720, Note_off_c, 3, 43, 64
5, 1532640, Note_on_c, 3, 67, 104
5, 1532876, Note_off_c, 3, 67, 64
5, 1532880, Note_on_c, 3, 83, 111
5, 1533000, Note_off_c, 3, 83, 64
5, 1533000, Note_on_c, 3, 81, 98
5, 1533116, Note_off_c, 3, 81, 64
5, 1533120, Note_on_c, 3, 79, 97
5, 1533236, Note_off_c, 3, 79, 64
5, 1533240, Note_on_c, 3, 78, 104
5, 1533356, Note_off_c, 3, 78, 64
5, 1533360, Note_on_c, 3, 76, 102
5, 1533476, Note_off_c, 3, 76, 64
5, 1533480, Note_on_c, 3, 74, 97
5, 1533596, Note_off_c, 3, 74, 64
5, 1533600, Note_on_c, 3, 73, 102
5, 1533716, Note_off_c, 3, 73, 64
5, 1533720, Note_on_c, 3, 71, 96
5, 1533836, Note_off_c, 3, 71, 64
5, 1533840, Note_on_c, 3, 69, 85
5, 1533956, Note_off_c, 3, 69, 64
5, 1533960, Note_on_c, 3, 67, 100
5, 1534076, Note_off_c, 3, 67, 64
5, 1534080, Note_on_c, 3, 66, 108
5, 1534320, Note_off_c, 3, 66, 64
5, 1534320, Note_on_c, 3, 81, 106
5, 1534436, Note_off_c, 3, 81, 64
5, 1534440, Note_on_c, 3, 79, 97
5, 1534556, Note_off_c, 3, 79, 64
5, 1534560, Note_on_c, 3, 78, 96
5, 1534676, Note_off_c, 3, 78, 64
5, 1534680, Note_on_c, 3, 76, 93
5, 1534796, Note_off_c, 3, 76, 64
5, 1534800, Note_on_c, 3, 74, 81
5, 1534916, Note_off_c, 3, 74, 64
5, 1534920, Note_on_c, 3, 73, 102
5, 1535036, Note_off_c, 3, 73, 64
5, 1535040, Note_on_c, 3, 71, 106
5, 1535156, Note_off_c, 3, 71, 64
5, 1535160, Note_on_c, 3, 69, 91
5, 1535276, Note_off_c, 3, 69, 64
5, 1535280, Note_on_c, 3, 67, 100
5, 1535396, Note_off_c, 3, 67, 64
5, 1535400, Note_on_c, 3, 66, 104
5, 1535516, Note_off_c, 3, 66, 64
5, 1535520, Note_on_c, 3, 64, 109
5, 1535760, Note_off_c, 3, 64, 64
5, 1535760, Note_on_c, 3, 79, 115
5, 1535876, Note_off_c, 3, 79, 64
5, 1535880, Note_on_c, 3, 78, 102
5, 1535996, Note_off_c, 3, 78, 64
5, 1536000, Note_on_c, 3, 76, 92
5, 1536116, Note_off_c, 3, 76, 64
5, 1536120, Note_on_c, 3, 74, 92
5, 1536236, Note_off_c, 3, 74, 64
5, 1536240, Note_on_c, 3, 73, 108
5, 1536356, Note_off_c, 3, 73, 64
5, 1536360, Note_on_c, 3, 71, 98
5, 1536476, Note_off_c, 3, 71, 64
5, 1536480, Note_on_c, 3, 69, 98
5, 1536596, Note_off_c, 3, 69, 64
5, 1536600, Note_on_c, 3, 67, 91
5, 1536716, Note_off_c, 3, 67, 64
5, 1536720, Note_on_c, 3, 66, 97
5, 1536836, Note_off_c, 3, 66, 64
5, 1536840, Note_on_c, 3, 64, 95
5, 1536956, Note_off_c, 3, 64, 64
5, 1536960, Note_on_c, 3, 62, 102
5, 1537196, Note_off_c, 3, 62, 64
5, 1537320, Note_on_c, 3, 60, 98
5, 1537376, Note_off_c, 3, 60, 64
5, 1537380, Note_on_c, 3, 59, 75
5, 1537436, Note_off_c, 3, 59, 64
5, 1537440, Note_on_c, 3, 57, 104
5, 1537496, Note_off_c, 3, 57, 64
5, 1537500, Note_on_c, 3, 55, 93
5, 1537560, Note_off_c, 3, 55, 64
5, 1537560, Note_on_c, 3, 54, 104
5, 1537620, Note_off_c, 3, 54, 64
5, 1537620, Note_on_c, 3, 52, 104
5, 1537680, Note_off_c, 3, 52, 64
5, 1537680, Note_on_c, 3, 50, 104
5, 1537920, Note_off_c, 3, 50, 64
5, 1538280, Note_on_c, 3, 48, 109
5, 1538396, Note_off_c, 3, 48, 64
5, 1538400, Note_on_c, 3, 47, 117
5, 1538640, Note_off_c, 3, 47, 64
5, 1538880, Note_on_c, 3, 59, 104
5, 1539000, Note_off_c, 3, 59, 64
5, 1539000, Note_on_c, 3, 60, 88
5, 1539116, Note_off_c, 3, 60, 64
5, 1539120, Note_on_c, 3, 62, 93
5, 1539236, Note_off_c, 3, 62, 64
5, 1539240, Note_on_c, 3, 64, 100
5, 1539356, Note_off_c, 3, 64, 64
5, 1539360, Note_on_c, 3, 66, 97
5, 1539480, Note_off_c, 3, 66, 64
5, 1539480, Note_on_c, 3, 67, 101
5, 1539596, Note_off_c, 3, 67, 64
5, 1539600, Note_on_c, 3, 69, 101
5, 1539716, Note_off_c, 3, 69, 64
5, 1539720, Note_on_c, 3, 71, 101
5, 1539836, Note_off_c, 3, 71, 64
5, 1539840, Note_on_c, 3, 72, 101
5, 1539956, Note_off_c, 3, 72, 64
5, 1539960, Note_on_c, 3, 74, 96
5, 1540076, Note_off_c, 3, 74, 64
5, 1540080, Note_on_c, 3, 76, 106
5, 1540320, Note_off_c, 3, 76, 64
5, 1540320, Note_on_c, 3, 60, 106
5, 1540436, Note_off_c, 3, 60, 64
5, 1540440, Note_on_c, 3, 62, 97
5, 1540556, Note_off_c, 3, 62, 64
5, 1540560, Note_on_c, 3, 64, 102
5, 1540676, Note_off_c, 3, 64, 64
5, 1540680, Note_on_c, 3, 66, 81
5, 1540796, Note_off_c, 3, 66, 64
5, 1540800, Note_on_c, 3, 67, 115
5, 1540916, Note_off_c, 3, 67, 64
5, 1540920, Note_on_c, 3, 69, 102
5, 1541036, Note_off_c, 3, 69, 64
5, 1541040, Note_on_c, 3, 71, 107
5, 1541156, Note_off_c, 3, 71, 64
5, 1541160, Note_on_c, 3, 72, 104
5, 1541276, Note_off_c, 3, 72, 64
5, 1541280, Note_on_c, 3, 74, 101
5, 1541396, Note_off_c, 3, 74, 64
5, 1541400, Note_on_c, 3, 76, 107
5, 1541516, Note_off_c, 3, 76, 64
5, 1541520, Note_on_c, 3, 78, 99
5, 1541760, Note_off_c, 3, 78, 64
5, 1541760, Note_on_c, 3, 62, 106
5, 1541876, Note_off_c, 3, 62, 64
5, 1541880, Note_on_c, 3, 64, 106
5, 1541996, Note_off_c, 3, 64, 64
5, 1542000, Note_on_c, 3, 66, 94
5, 1542116, Note_off_c, 3, 66, 64
5, 1542120, Note_on_c, 3, 67, 92
5, 1542236, Note_off_c, 3, 67, 64
5, 1542240, Note_on_c, 3, 69, 98
5, 1542356, Note_off_c, 3, 69, 64
5, 1542360, Note_on_c, 3, 71, 97
5, 1542476, Note_off_c, 3, 71, 64
5, 1542480, Note_on_c, 3, 72, 100
5, 1542596, Note_off_c, 3, 72, 64
5, 1542600, Note_on_c, 3, 69, 93
5, 1542716, Note_off_c, 3, 69, 64
5, 1542720, Note_on_c, 3, 71, 98
5, 1542776, Note_off_c, 3, 71, 64
5, 1542780, Note_on_c, 3, 67, 84
5, 1542836, Note_off_c, 3, 67, 64
5, 1542840, Note_on_c, 3, 69, 95
5, 1542896, Note_off_c, 3, 69, 64
5, 1542900, Note_on_c, 3, 71, 100
5, 1542956, Note_off_c, 3, 71, 64
5, 1542960, Note_on_c, 3, 72, 92
5, 1543016, Note_off_c, 3, 72, 64
5, 1543020, Note_on_c, 3, 74, 95
5, 1543076, Note_off_c, 3, 74, 64
5, 1543080, Note_on_c, 3, 76, 88
5, 1543136, Note_off_c, 3, 76, 64
5, 1543140, Note_on_c, 3, 78, 93
5, 1543196, Note_off_c, 3, 78, 64
5, 1543200, Note_on_c, 3, 79, 113
5, 1543320, Note_off_c, 3, 79, 64
5, 1543800, Note_on_c, 3, 66, 106
5, 1543856, Note_off_c, 3, 66, 64
5, 1543860, Note_on_c, 3, 64, 98
5, 1543916, Note_off_c, 3, 64, 64
5, 1543920, Note_on_c, 3, 62, 95
5, 1543976, Note_off_c, 3, 62, 64
5, 1543980, Note_on_c, 3, 60, 96
5, 1544036, Note_off_c, 3, 60, 64
5, 1544040, Note_on_c, 3, 59, 97
5, 1544096, Note_off_c, 3, 59, 64
5, 1544100, Note_on_c, 3, 57, 84
5, 1544156, Note_off_c, 3, 57, 64
5, 1544160, Note_on_c, 3, 55, 127
5, 1544396, Note_off_c, 3, 55, 64
5, 1544520, Note_on_c, 3, 57, 98
5, 1544636, Note_off_c, 3, 57, 64
5, 1544640, Note_on_c, 3, 59, 106
5, 1544700, Note_off_c, 3, 59, 64
5, 1544700, Note_on_c, 3, 57, 106
5, 1544760, Note_off_c, 3, 57, 64
5, 1544760, Note_on_c, 3, 59, 106
5, 1544880, Note_off_c, 3, 59, 64
5, 1545000, Note_on_c, 3, 60, 102
5, 1545120, Note_off_c, 3, 60, 64
5, 1545120, Note_on_c, 3, 62, 102
5, 1545180, Note_off_c, 3, 62, 64
5, 1545180, Note_on_c, 3, 60, 102
5, 1545240, Note_off_c, 3, 60, 64
5, 1545240, Note_on_c, 3, 62, 102
5, 1545360, Note_off_c, 3, 62, 64
5, 1545480, Note_on_c, 3, 64, 96
5, 1545600, Note_off_c, 3, 64, 64
5, 1545600, Note_on_c, 3, 66, 104
5, 1545660, Note_off_c, 3, 66, 64
5, 1545660, Note_on_c, 3, 64, 104
5, 1545720, Note_off_c, 3, 64, 64
5, 1545720, Note_on_c, 3, 66, 104
5, 1545840, Note_off_c, 3, 66, 64
5, 1545960, Note_on_c, 3, 67, 101
5, 1546076, Note_off_c, 3, 67, 64
5, 1546080, Note_on_c, 3, 69, 92
5, 1546140, Note_off_c, 3, 69, 64
5, 1546140, Note_on_c, 3, 67, 92
5, 1546200, Note_off_c, 3, 67, 64
5, 1546200, Note_on_c, 3, 69, 92
5, 1546320, Note_off_c, 3, 69, 64
5, 1546440, Note_on_c, 3, 71, 109
5, 1546556, Note_off_c, 3, 71, 64
5, 1546560, Note_on_c, 3, 73, 110
5, 1546620, Note_off_c, 3, 73, 64
5, 1546620, Note_on_c, 3, 71, 110
5, 1546680, Note_off_c, 3, 71, 64
5, 1546680, Note_on_c, 3, 73, 110
5, 1546800, Note_off_c, 3, 73, 64
5, 1546920, Note_on_c, 3, 74, 100
5, 1547040, Note_off_c, 3, 74, 64
5, 1547040, Note_on_c, 3, 76, 111
5, 1547100, Note_off_c, 3, 76, 64
5, 1547100, Note_on_c, 3, 74, 97
5, 1547160, Note_off_c, 3, 74, 64
5, 1547160, Note_on_c, 3, 76, 95
5, 1547280, Note_off_c, 3, 76, 64
5, 1547400, Note_on_c, 3, 78, 102
5, 1547516, Note_off_c, 3, 78, 64
5, 1547520, Note_on_c, 3, 79, 102
5, 1547580, Note_off_c, 3, 79, 64
5, 1547580, Note_on_c, 3, 78, 101
5, 1547640, Note_off_c, 3, 78, 64
5, 1547640, Note_on_c, 3, 79, 106
5, 1547760, Note_off_c, 3, 79, 64
5, 1547880, Note_on_c, 3, 81, 107
5, 1547996, Note_off_c, 3, 81, 64
5, 1548000, Note_on_c, 3, 83, 104
5, 1548060, Note_off_c, 3, 83, 64
5, 1548060, Note_on_c, 3, 81, 102
5, 1548120, Note_off_c, 3, 81, 64
5, 1548120, Note_on_c, 3, 83, 104
5, 1548240, Note_off_c, 3, 83, 64
5, 1548360, Note_on_c, 3, 74, 92
5, 1548480, Note_off_c, 3, 74, 64
5, 1548480, Note_on_c, 3, 73, 102
5, 1548716, Note_off_c, 3, 73, 64
5, 1548840, Note_on_c, 3, 76, 100
5, 1548956, Note_off_c, 3, 76, 64
5, 1548960, Note_on_c, 3, 67, 102
5, 1549196, Note_off_c, 3, 67, 64
5, 1549320, Note_on_c, 3, 71, 101
5, 1549436, Note_off_c, 3, 71, 64
5, 1549440, Note_on_c, 3, 69, 97
5, 1549500, Note_off_c, 3, 69, 64
5, 1549500, Note_on_c, 3, 71, 82
5, 1549560, Note_off_c, 3, 71, 64
5, 1549560, Note_on_c, 3, 69, 82
5, 1549680, Note_off_c, 3, 69, 64
5, 1549800, Note_on_c, 3, 67, 89
5, 1549916, Note_off_c, 3, 67, 64
5, 1549920, Note_on_c, 3, 66, 92
5, 1550160, Note_off_c, 3, 66, 64
5, 1550280, Note_on_c, 3, 57, 92
5, 1550396, Note_off_c, 3, 57, 64
5, 1550400, Note_on_c, 3, 69, 97
5, 1550520, Note_off_c, 3, 69, 64
5, 1550520, Note_on_c, 3, 67, 104
5, 1550636, Note_off_c, 3, 67, 64
5, 1550640, Note_on_c, 3, 66, 89
5, 1550756, Note_off_c, 3, 66, 64
5, 1550760, Note_on_c, 3, 64, 101
5, 1550876, Note_off_c, 3, 64, 64
5, 1550880, Note_on_c, 3, 62, 90
5, 1550996, Note_off_c, 3, 62, 64
5, 1551000, Note_on_c, 3, 60, 102
5, 1551116, Note_off_c, 3, 60, 64
5, 1551120, Note_on_c, 3, 59, 102
5, 1551236, Note_off_c, 3, 59, 64
5, 1551240, Note_on_c, 3, 57, 98
5, 1551356, Note_off_c, 3, 57, 64
5, 1551360, Note_on_c, 3, 55, 98
5, 1551476, Note_off_c, 3, 55, 64
5, 1551480, Note_on_c, 3, 59, 101
5, 1551596, Note_off_c, 3, 59, 64
5, 1551600, Note_on_c, 3, 62, 104
5, 1551716, Note_off_c, 3, 62, 64
5, 1551720, Note_on_c, 3, 60, 98
5, 1551836, Note_off_c, 3, 60, 64
5, 1551840, Note_on_c, 3, 59, 102
5, 1551956, Note_off_c, 3, 59, 64
5, 1551960, Note_on_c, 3, 57, 88
5, 1552076, Note_off_c, 3, 57, 64
5, 1552080, Note_on_c, 3, 55, 89
5, 1552196, Note_off_c, 3, 55, 64
5, 1552200, Note_on_c, 3, 54, 108
5, 1552316, Note_off_c, 3, 54, 64
5, 1552320, Note_on_c, 3, 52, 96
5, 1552436, Note_off_c, 3, 52, 64
5, 1552440, Note_on_c, 3, 50, 84
5, 1552556, Note_off_c, 3, 50, 64
5, 1552560, Note_on_c, 3, 49, 96
5, 1552676, Note_off_c, 3, 49, 64
5, 1552680, Note_on_c, 3, 47, 93
5, 1552796, Note_off_c, 3, 47, 64
5, 1552800, Note_on_c, 3, 45, 93
5, 1552916, Note_off_c, 3, 45, 64
5, 1552920, Note_on_c, 3, 52, 97
5, 1553036, Note_off_c, 3, 52, 64
5, 1553040, Note_on_c, 3, 55, 101
5, 1553156, Note_off_c, 3, 55, 64
5, 1553160, Note_on_c, 3, 54, 93
5, 1553276, Note_off_c, 3, 54, 64
5, 1553280, Note_on_c, 3, 52, 101
5, 1553396, Note_off_c, 3, 52, 64
5, 1553400, Note_on_c, 3, 50, 95
5, 1553516, Note_off_c, 3, 50, 64
5, 1553520, Note_on_c, 3, 49, 96
5, 1553636, Note_off_c, 3, 49, 64
5, 1553640, Note_on_c, 3, 47, 101
5, 1553756, Note_off_c, 3, 47, 64
5, 1553760, Note_on_c, 3, 45, 80
5, 1553876, Note_off_c, 3, 45, 64
5, 1553880, Note_on_c, 3, 43, 86
5, 1553996, Note_off_c, 3, 43, 64
5, 1554000, Note_on_c, 3, 42, 96
5, 1554116, Note_off_c, 3, 42, 64
5, 1554120, Note_on_c, 3, 40, 97
5, 1554236, Note_off_c, 3, 40, 64
5, 1554240, Note_on_c, 3, 38, 106
5, 1554720, Note_off_c, 3, 38, 64
5, 1554840, Note_on_c, 3, 40, 89
5, 1554896, Note_off_c, 3, 40, 64
5, 1554900, Note_on_c, 3, 42, 97
5, 1554956, Note_off_c, 3, 42, 64
5, 1554960, Note_on_c, 3, 43, 80
5, 1555016, Note_off_c, 3, 43, 64
5, 1555020, Note_on_c, 3, 45, 83
5, 1555076, Note_off_c, 3, 45, 64
5, 1555080, Note_on_c, 3, 47, 69
5, 1555136, Note_off_c, 3, 47, 64
5, 1555140, Note_on_c, 3, 49, 93
5, 1555196, Note_off_c, 3, 49, 64
5, 1555200, Note_on_c, 3, 50, 109
5, 1555440, Note_off_c, 3, 50, 64
5, 1555800, Note_on_c, 3, 38, 106
5, 1555920, Note_off_c, 3, 38, 64
5, 1555920, Note_on_c, 3, 38, 107
5, 1556040, Note_off_c, 3, 38, 64
5, 1556220, Note_on_c, 3, 52, 106
5, 1556276, Note_off_c, 3, 52, 64
5, 1556280, Note_on_c, 3, 54, 97
5, 1556336, Note_off_c, 3, 54, 64
5, 1556340, Note_on_c, 3, 55, 88
5, 1556396, Note_off_c, 3, 55, 64
5, 1556400, Note_on_c, 3, 57, 109
5, 1556516, Note_off_c, 3, 57, 64
5, 1556700, Note_on_c, 3, 57, 88
5, 1556756, Note_off_c, 3, 57, 64
5, 1556760, Note_on_c, 3, 59, 101
5, 1556816, Note_off_c, 3, 59, 64
5, 1556820, Note_on_c, 3, 60, 97
5, 1556876, Note_off_c, 3, 60, 64
5, 1556880, Note_on_c, 3, 62, 113
5, 1556996, Note_off_c, 3, 62, 64
5, 1557240, Note_on_c, 3, 43, 109
5, 1557360, Note_off_c, 3, 43, 64
5, 1557360, Note_on_c, 3, 43, 115
5, 1557476, Note_off_c, 3, 43, 64
5, 1557660, Note_on_c, 3, 62, 97
5, 1557716, Note_off_c, 3, 62, 64
5, 1557720, Note_on_c, 3, 64, 72
5, 1557776, Note_off_c, 3, 64, 64
5, 1557780, Note_on_c, 3, 66, 84
5, 1557836, Note_off_c, 3, 66, 64
5, 1557840, Note_on_c, 3, 67, 121
5, 1557956, Note_off_c, 3, 67, 64
5, 1558140, Note_on_c, 3, 66, 106
5, 1558196, Note_off_c, 3, 66, 64
5, 1558200, Note_on_c, 3, 67, 85
5, 1558256, Note_off_c, 3, 67, 64
5, 1558260, Note_on_c, 3, 69, 96
5, 1558316, Note_off_c, 3, 69, 64
5, 1558320, Note_on_c, 3, 71, 113
5, 1558436, Note_off_c, 3, 71, 64
5, 1558680, Note_on_c, 3, 64, 117
5, 1558800, Note_off_c, 3, 64, 64
5, 1558800, Note_on_c, 3, 64, 117
5, 1558920, Note_off_c, 3, 64, 64
5, 1559100, Note_on_c, 3, 71, 107
5, 1559156, Note_off_c, 3, 71, 64
5, 1559160, Note_on_c, 3, 72, 101
5, 1559216, Note_off_c, 3, 72, 64
5, 1559220, Note_on_c, 3, 74, 96
5, 1559276, Note_off_c, 3, 74, 64
5, 1559280, Note_on_c, 3, 76, 117
5, 1559396, Note_off_c, 3, 76, 64
5, 1559580, Note_on_c, 3, 76, 107
5, 1559636, Note_off_c, 3, 76, 64
5, 1559640, Note_on_c, 3, 78, 101
5, 1559696, Note_off_c, 3, 78, 64
5, 1559700, Note_on_c, 3, 79, 98
5, 1559756, Note_off_c, 3, 79, 64
5, 1559760, Note_on_c, 3, 81, 113
5, 1559876, Note_off_c, 3, 81, 64
5, 1560120, Note_on_c, 3, 84, 104
5, 1560240, Note_off_c, 3, 84, 64
5, 1560240, Note_on_c, 3, 84, 119
5, 1560356, Note_off_c, 3, 84, 64
5, 1560540, Note_on_c, 3, 83, 95
5, 1560596, Note_off_c, 3, 83, 64
5, 1560600, Note_on_c, 3, 81, 90
5, 1560656, Note_off_c, 3, 81, 64
5, 1560660, Note_on_c, 3, 79, 90
5, 1560716, Note_off_c, 3, 79, 64
5, 1560720, Note_on_c, 3, 78, 108
5, 1560836, Note_off_c, 3, 78, 64
5, 1561020, Note_on_c, 3, 79, 106
5, 1561076, Note_off_c, 3, 79, 64
5, 1561080, Note_on_c, 3, 78, 110
5, 1561136, Note_off_c, 3, 78, 64
5, 1561140, Note_on_c, 3, 76, 86
5, 1561196, Note_off_c, 3, 76, 64
5, 1561200, Note_on_c, 3, 75, 101
5, 1561316, Note_off_c, 3, 75, 64
5, 1561560, Note_on_c, 3, 76, 84
5, 1561680, Note_off_c, 3, 76, 64
5, 1561680, Note_on_c, 3, 74, 100
5, 1561796, Note_off_c, 3, 74, 64
5, 1561800, Note_on_c, 3, 72, 97
5, 1561916, Note_off_c, 3, 72, 64
5, 1561920, Note_on_c, 3, 71, 84
5, 1562036, Note_off_c, 3, 71, 64
5, 1562040, Note_on_c, 3, 69, 91
5, 1562156, Note_off_c, 3, 69, 64
5, 1562160, Note_on_c, 3, 67, 64
5, 1562280, Note_off_c, 3, 67, 64
5, 1562280, Note_on_c, 3, 66, 101
5, 1562400, Note_off_c, 3, 66, 64
5, 1562400, Note_on_c, 3, 64, 97
5, 1562520, Note_off_c, 3, 64, 64
5, 1562520, Note_on_c, 3, 62, 98
5, 1562636, Note_off_c, 3, 62, 64
5, 1562640, Note_on_c, 3, 60, 104
5, 1562756, Note_off_c, 3, 60, 64
5, 1562760, Note_on_c, 3, 59, 92
5, 1562876, Note_off_c, 3, 59, 64
5, 1562880, Note_on_c, 3, 57, 109
5, 1563120, Note_off_c, 3, 57, 64
5, 1563480, Note_on_c, 3, 56, 110
5, 1563596, Note_off_c, 3, 56, 64
5, 1563600, Note_on_c, 3, 57, 100
5, 1563716, Note_off_c, 3, 57, 64
5, 1563720, Note_on_c, 3, 59, 85
5, 1563836, Note_off_c, 3, 59, 64
5, 1563840, Note_on_c, 3, 60, 84
5, 1563960, Note_off_c, 3, 60, 64
5, 1563960, Note_on_c, 3, 61, 84
5, 1564080, Note_off_c, 3, 61, 64
5, 1564080, Note_on_c, 3, 63, 102
5, 1564200, Note_off_c, 3, 63, 64
5, 1564200, Note_on_c, 3, 64, 97
5, 1564320, Note_off_c, 3, 64, 64
5, 1564320, Note_on_c, 3, 66, 96
5, 1564560, Note_off_c, 3, 66, 64
5, 1564680, Note_on_c, 3, 57, 91
5, 1564800, Note_off_c, 3, 57, 64
5, 1564800, Note_on_c, 3, 55, 91
5, 1565036, Note_off_c, 3, 55, 64
5, 1565040, Note_on_c, 3, 60, 107
5, 1565280, Note_off_c, 3, 60, 64
5, 1565280, Note_on_c, 3, 57, 90
5, 1565520, Note_off_c, 3, 57, 64
5, 1565520, Note_on_c, 3, 59, 88
5, 1565760, Note_off_c, 3, 59, 64
5, 1565760, Note_on_c, 3, 52, 111
5, 1566000, Note_off_c, 3, 52, 64
5, 1566060, Note_on_c, 3, 69, 97
5, 1566116, Note_off_c, 3, 69, 64
5, 1566120, Note_on_c, 3, 67, 92
5, 1566176, Note_off_c, 3, 67, 64
5, 1566180, Note_on_c, 3, 66, 94
5, 1566236, Note_off_c, 3, 66, 64
5, 1566240, Note_on_c, 3, 67, 102
5, 1566356, Note_off_c, 3, 67, 64
5, 1566540, Note_on_c, 3, 60, 104
5, 1566596, Note_off_c, 3, 60, 64
5, 1566600, Note_on_c, 3, 59, 96
5, 1566656, Note_off_c, 3, 59, 64
5, 1566660, Note_on_c, 3, 57, 92
5, 1566716, Note_off_c, 3, 57, 64
5, 1566720, Note_on_c, 3, 59, 101
5, 1566776, Note_off_c, 3, 59, 64
5, 1567020, Note_on_c, 3, 53, 113
5, 1567076, Note_off_c, 3, 53, 64
5, 1567080, Note_on_c, 3, 52, 100
5, 1567136, Note_off_c, 3, 52, 64
5, 1567140, Note_on_c, 3, 50, 96
5, 1567196, Note_off_c, 3, 50, 64
5, 1567200, Note_on_c, 3, 48, 121
5, 1567316, Note_off_c, 3, 48, 64
5, 1567800, Note_on_c, 3, 59, 100
5, 1567916, Note_off_c, 3, 59, 64
5, 1567920, Note_on_c, 3, 57, 96
5, 1568036, Note_off_c, 3, 57, 64
5, 1568040, Note_on_c, 3, 55, 97
5, 1568160, Note_off_c, 3, 55, 64
5, 1568160, Note_on_c, 3, 54, 91
5, 1568276, Note_off_c, 3, 54, 64
5, 1568280, Note_on_c, 3, 52, 80
5, 1568396, Note_off_c, 3, 52, 64
5, 1568400, Note_on_c, 3, 50, 97
5, 1568516, Note_off_c, 3, 50, 64
5, 1568520, Note_on_c, 3, 48, 98
5, 1568636, Note_off_c, 3, 48, 64
5, 1568640, Note_on_c, 3, 47, 113
5, 1568880, Note_off_c, 3, 47, 64
5, 1569240, Note_on_c, 3, 45, 98
5, 1569356, Note_off_c, 3, 45, 64
5, 1569360, Note_on_c, 3, 47, 101
5, 1569476, Note_off_c, 3, 47, 64
5, 1569480, Note_on_c, 3, 48, 98
5, 1569596, Note_off_c, 3, 48, 64
5, 1569600, Note_on_c, 3, 50, 95
5, 1569716, Note_off_c, 3, 50, 64
5, 1569720, Note_on_c, 3, 52, 100
5, 1569836, Note_off_c, 3, 52, 64
5, 1569840, Note_on_c, 3, 54, 108
5, 1569956, Note_off_c, 3, 54, 64
5, 1569960, Note_on_c, 3, 55, 102
5, 1570076, Note_off_c, 3, 55, 64
5, 1570080, Note_on_c, 3, 57, 106
5, 1570320, Note_off_c, 3, 57, 64
5, 1570320, Note_on_c, 3, 57, 117
5, 1570560, Note_off_c, 3, 57, 64
5, 1570560, Note_on_c, 3, 57, 102
5, 1570800, Note_off_c, 3, 57, 64
5, 1570800, Note_on_c, 3, 57, 107
5, 1571040, Note_off_c, 3, 57, 64
5, 1571040, Note_on_c, 3, 54, 108
5, 1571280, Note_off_c, 3, 54, 64
5, 1571280, Note_on_c, 3, 54, 110
5, 1571520, Note_off_c, 3, 54, 64
5, 1571520, Note_on_c, 3, 50, 106
5, 1571760, Note_off_c, 3, 50, 64
5, 1571760, Note_on_c, 3, 50, 95
5, 1572000, Note_off_c, 3, 50, 64
5, 1572000, Note_on_c, 3, 50, 102
5, 1572240, Note_off_c, 3, 50, 64
5, 1572240, Note_on_c, 3, 50, 102
5, 1572480, Note_off_c, 3, 50, 64
5, 1572480, Note_on_c, 3, 47, 111
5, 1572720, Note_off_c, 3, 47, 64
5, 1572720, Note_on_c, 3, 47, 102
5, 1572960, Note_off_c, 3, 47, 64
5, 1572960, Note_on_c, 3, 43, 98
5, 1573200, Note_off_c, 3, 43, 64
5, 1573200, Note_on_c, 3, 43, 89
5, 1573440, Note_off_c, 3, 43, 64
5, 1573440, Note_on_c, 3, 43, 97
5, 1573680, Note_off_c, 3, 43, 64
5, 1573680, Note_on_c, 3, 47, 95
5, 1573920, Note_off_c, 3, 47, 64
5, 1573920, Note_on_c, 3, 50, 92
5, 1574160, Note_off_c, 3, 50, 64
5, 1574160, Note_on_c, 3, 53, 101
5, 1574400, Note_off_c, 3, 53, 64
5, 1574400, Note_on_c, 3, 52, 96
5, 1574640, Note_off_c, 3, 52, 64
5, 1574640, Note_on_c, 3, 52, 100
5, 1574880, Note_off_c, 3, 52, 64
5, 1574880, Note_on_c, 3, 52, 101
5, 1575120, Note_off_c, 3, 52, 64
5, 1575120, Note_on_c, 3, 55, 96
5, 1575360, Note_off_c, 3, 55, 64
5, 1575360, Note_on_c, 3, 59, 101
5, 1575600, Note_off_c, 3, 59, 64
5, 1575600, Note_on_c, 3, 62, 97
5, 1575840, Note_off_c, 3, 62, 64
5, 1575840, Note_on_c, 3, 66, 112
5, 1575960, Note_off_c, 3, 66, 64
5, 1576440, Note_on_c, 3, 55, 93
5, 1576556, Note_off_c, 3, 55, 64
5, 1576560, Note_on_c, 3, 54, 110
5, 1576676, Note_off_c, 3, 54, 64
5, 1576680, Note_on_c, 3, 52, 104
5, 1576796, Note_off_c, 3, 52, 64
5, 1576800, Note_on_c, 3, 50, 98
5, 1576916, Note_off_c, 3, 50, 64
5, 1576920, Note_on_c, 3, 48, 102
5, 1577036, Note_off_c, 3, 48, 64
5, 1577040, Note_on_c, 3, 47, 101
5, 1577156, Note_off_c, 3, 47, 64
5, 1577160, Note_on_c, 3, 45, 98
5, 1577276, Note_off_c, 3, 45, 64
5, 1577280, Note_on_c, 3, 43, 111
5, 1577516, Note_off_c, 3, 43, 64
5, 1577520, Note_on_c, 3, 45, 101
5, 1577636, Note_off_c, 3, 45, 64
5, 1577640, Note_on_c, 3, 47, 102
5, 1577756, Note_off_c, 3, 47, 64
5, 1577760, Note_on_c, 3, 48, 102
5, 1577876, Note_off_c, 3, 48, 64
5, 1577880, Note_on_c, 3, 50, 92
5, 1577996, Note_off_c, 3, 50, 64
5, 1578000, Note_on_c, 3, 52, 100
5, 1578116, Note_off_c, 3, 52, 64
5, 1578120, Note_on_c, 3, 54, 101
5, 1578236, Note_off_c, 3, 54, 64
5, 1578240, Note_on_c, 3, 55, 109
5, 1578476, Note_off_c, 3, 55, 64
5, 1580160, Note_on_c, 3, 55, 98
5, 1580880, Note_off_c, 3, 55, 64
5, 1581360, Note_on_c, 3, 54, 93
5, 1581596, Note_off_c, 3, 54, 64
5, 1581600, Note_on_c, 3, 55, 92
5, 1582076, Note_off_c, 3, 55, 64
5, 1582080, Note_on_c, 3, 52, 98
5, 1582316, Note_off_c, 3, 52, 64
5, 1582320, Note_on_c, 3, 54, 112
5, 1583040, Note_off_c, 3, 54, 64
5, 1583520, Note_on_c, 3, 57, 106
5, 1583756, Note_off_c, 3, 57, 64
5, 1583760, Note_on_c, 3, 50, 90
5, 1584236, Note_off_c, 3, 50, 64
5, 1584240, Note_on_c, 3, 54, 97
5, 1584476, Note_off_c, 3, 54, 64
5, 1584480, Note_on_c, 3, 52, 101
5, 1586396, Note_off_c, 3, 52, 64
5, 1586400, Note_on_c, 3, 57, 100
5, 1586636, Note_off_c, 3, 57, 64
5, 1586640, Note_on_c, 3, 50, 93
5, 1587360, Note_off_c, 3, 50, 64
5, 1588800, Note_on_c, 3, 59, 109
5, 1589520, Note_off_c, 3, 59, 64
5, 1590000, Note_on_c, 3, 62, 101
5, 1590236, Note_off_c, 3, 62, 64
5, 1590240, Note_on_c, 3, 55, 100
5, 1590716, Note_off_c, 3, 55, 64
5, 1590720, Note_on_c, 3, 59, 93
5, 1590956, Note_off_c, 3, 59, 64
5, 1590960, Note_on_c, 3, 64, 109
5, 1591680, Note_off_c, 3, 64, 64
5, 1592160, Note_on_c, 3, 57, 96
5, 1592396, Note_off_c, 3, 57, 64
5, 1592400, Note_on_c, 3, 59, 86
5, 1592636, Note_off_c, 3, 59, 64
5, 1592640, Note_on_c, 3, 57, 85
5, 1592876, Note_off_c, 3, 57, 64
5, 1592880, Note_on_c, 3, 59, 93
5, 1593116, Note_off_c, 3, 59, 64
5, 1593120, Note_on_c, 3, 60, 97
5, 1593356, Note_off_c, 3, 60, 64
5, 1593360, Note_on_c, 3, 59, 91
5, 1593596, Note_off_c, 3, 59, 64
5, 1593600, Note_on_c, 3, 57, 90
5, 1593836, Note_off_c, 3, 57, 64
5, 1593840, Note_on_c, 3, 59, 96
5, 1594076, Note_off_c, 3, 59, 64
5, 1594080, Note_on_c, 3, 62, 96
5, 1594316, Note_off_c, 3, 62, 64
5, 1594320, Note_on_c, 3, 60, 97
5, 1594556, Note_off_c, 3, 60, 64
5, 1594560, Note_on_c, 3, 62, 93
5, 1595036, Note_off_c, 3, 62, 64
5, 1595040, Note_on_c, 3, 50, 93
5, 1595276, Note_off_c, 3, 50, 64
5, 1595280, Note_on_c, 3, 55, 98
5, 1595756, Note_off_c, 3, 55, 64
5, 1595760, Note_on_c, 3, 43, 93
5, 1595996, Note_off_c, 3, 43, 64
5, 1596000, Note_on_c, 3, 43, 92
5, 1596476, Note_off_c, 3, 43, 64
5, 1596480, Note_on_c, 3, 55, 98
5, 1596720, Note_off_c, 3, 55, 64
5, 1596720, Note_on_c, 3, 55, 89
5, 1596956, Note_off_c, 3, 55, 64
5, 1596960, Note_on_c, 3, 54, 85
5, 1597076, Note_off_c, 3, 54, 64
5, 1597080, Note_on_c, 3, 52, 84
5, 1597196, Note_off_c, 3, 52, 64
5, 1597200, Note_on_c, 3, 50, 83
5, 1597316, Note_off_c, 3, 50, 64
5, 1597320, Note_on_c, 3, 48, 81
5, 1597436, Note_off_c, 3, 48, 64
5, 1597440, Note_on_c, 3, 47, 93
5, 1597676, Note_off_c, 3, 47, 64
5, 1597680, Note_on_c, 3, 43, 80
5, 1597916, Note_off_c, 3, 43, 64
5, 1597920, Note_on_c, 3, 45, 83
5, 1598156, Note_off_c, 3, 45, 64
5, 1598160, Note_on_c, 3, 47, 77
5, 1598396, Note_off_c, 3, 47, 64
5, 1598400, Note_on_c, 3, 48, 83
5, 1598636, Note_off_c, 3, 48, 64
5, 1598640, Note_on_c, 3, 50, 88
5, 1598876, Note_off_c, 3, 50, 64
5, 1598880, Note_on_c, 3, 43, 69
5, 1599356, Note_off_c, 3, 43, 64
5, 1599360, Note_on_c, 3, 55, 106
5, 1599836, Note_off_c, 3, 55, 64
5, 1599840, Note_on_c, 3, 54, 93
5, 1600076, Note_off_c, 3, 54, 64
5, 1600080, Note_on_c, 3, 52, 92
5, 1600316, Note_off_c, 3, 52, 64
5, 1600320, Note_on_c, 3, 57, 106
5, 1600796, Note_off_c, 3, 57, 64
5, 1600800, Note_on_c, 3, 55, 95
5, 1601036, Note_off_c, 3, 55, 64
5, 1601040, Note_on_c, 3, 54, 89
5, 1601276, Note_off_c, 3, 54, 64
5, 1601280, Note_on_c, 3, 55, 81
5, 1601516, Note_off_c, 3, 55, 64
5, 1601520, Note_on_c, 3, 57, 98
5, 1601756, Note_off_c, 3, 57, 64
5, 1601760, Note_on_c, 3, 59, 102
5, 1602956, Note_off_c, 3, 59, 64
5, 1602960, Note_on_c, 3, 57, 92
5, 1603196, Note_off_c, 3, 57, 64
5, 1603200, Note_on_c, 3, 55, 93
5, 1603676, Note_off_c, 3, 55, 64
5, 1603680, Note_on_c, 3, 52, 95
5, 1603916, Note_off_c, 3, 52, 64
5, 1603920, Note_on_c, 3, 45, 101
5, 1604400, Note_off_c, 3, 45, 64
5, 1605120, Note_on_c, 3, 55, 83
5, 1605356, Note_off_c, 3, 55, 64
5, 1605360, Note_on_c, 3, 54, 110
5, 1605836, Note_off_c, 3, 54, 64
5, 1605840, Note_on_c, 3, 52, 93
5, 1606076, Note_off_c, 3, 52, 64
5, 1606080, Note_on_c, 3, 54, 96
5, 1606556, Note_off_c, 3, 54, 64
5, 1606560, Note_on_c, 3, 57, 90
5, 1606796, Note_off_c, 3, 57, 64
5, 1606800, Note_on_c, 3, 59, 96
5, 1607276, Note_off_c, 3, 59, 64
5, 1607280, Note_on_c, 3, 61, 102
5, 1607516, Note_off_c, 3, 61, 64
5, 1607520, Note_on_c, 3, 62, 97
5, 1607996, Note_off_c, 3, 62, 64
5, 1608000, Note_on_c, 3, 50, 90
5, 1608236, Note_off_c, 3, 50, 64
5, 1608240, Note_on_c, 3, 55, 100
5, 1608720, Note_off_c, 3, 55, 64
5, 1608720, Note_on_c, 3, 47, 100
5, 1608960, Note_off_c, 3, 47, 64
5, 1608960, Note_on_c, 3, 49, 100
5, 1609200, Note_off_c, 3, 49, 64
5, 1609200, Note_on_c, 3, 50, 100
5, 1609440, Note_off_c, 3, 50, 64
5, 1609440, Note_on_c, 3, 52, 100
5, 1609676, Note_off_c, 3, 52, 64
5, 1609680, Note_on_c, 3, 54, 90
5, 1609916, Note_off_c, 3, 54, 64
5, 1609920, Note_on_c, 3, 52, 88
5, 1610156, Note_off_c, 3, 52, 64
5, 1610160, Note_on_c, 3, 54, 90
5, 1610396, Note_off_c, 3, 54, 64
5, 1610400, Note_on_c, 3, 55, 95
5, 1610640, Note_off_c, 3, 55, 64
5, 1610640, Note_on_c, 3, 54, 102
5, 1610876, Note_off_c, 3, 54, 64
5, 1610880, Note_on_c, 3, 52, 88
5, 1611116, Note_off_c, 3, 52, 64
5, 1611120, Note_on_c, 3, 54, 94
5, 1611356, Note_off_c, 3, 54, 64
5, 1611360, Note_on_c, 3, 57, 100
5, 1611596, Note_off_c, 3, 57, 64
5, 1611600, Note_on_c, 3, 55, 93
5, 1611836, Note_off_c, 3, 55, 64
5, 1611840, Note_on_c, 3, 57, 96
5, 1612316, Note_off_c, 3, 57, 64
5, 1612320, Note_on_c, 3, 45, 92
5, 1612556, Note_off_c, 3, 45, 64
5, 1612560, Note_on_c, 3, 50, 104
5, 1613040, Note_off_c, 3, 50, 64
5, 1613040, Note_on_c, 3, 38, 83
5, 1613276, Note_off_c, 3, 38, 64
5, 1613280, Note_on_c, 3, 38, 89
5, 1613760, Note_off_c, 3, 38, 64
5, 1613760, Note_on_c, 3, 50, 101
5, 1613996, Note_off_c, 3, 50, 64
5, 1614000, Note_on_c, 3, 50, 101
5, 1614720, Note_off_c, 3, 50, 64
5, 1614720, Note_on_c, 3, 50, 93
5, 1614956, Note_off_c, 3, 50, 64
5, 1614960, Note_on_c, 3, 54, 93
5, 1615196, Note_off_c, 3, 54, 64
5, 1615200, Note_on_c, 3, 57, 93
5, 1615436, Note_off_c, 3, 57, 64
5, 1615440, Note_on_c, 3, 62, 101
5, 1615676, Note_off_c, 3, 62, 64
5, 1615680, Note_on_c, 3, 64, 104
5, 1615796, Note_off_c, 3, 64, 64
5, 1615800, Note_on_c, 3, 62, 98
5, 1615916, Note_off_c, 3, 62, 64
5, 1615920, Note_on_c, 3, 60, 95
5, 1616036, Note_off_c, 3, 60, 64
5, 1616040, Note_on_c, 3, 59, 92
5, 1616156, Note_off_c, 3, 59, 64
5, 1616160, Note_on_c, 3, 60, 96
5, 1616396, Note_off_c, 3, 60, 64
5, 1616400, Note_on_c, 3, 62, 97
5, 1616516, Note_off_c, 3, 62, 64
5, 1616520, Note_on_c, 3, 60, 95
5, 1616636, Note_off_c, 3, 60, 64
5, 1616640, Note_on_c, 3, 59, 82
5, 1616756, Note_off_c, 3, 59, 64
5, 1616760, Note_on_c, 3, 57, 78
5, 1616876, Note_off_c, 3, 57, 64
5, 1616880, Note_on_c, 3, 59, 96
5, 1617836, Note_off_c, 3, 59, 64
5, 1617840, Note_on_c, 3, 60, 97
5, 1618076, Note_off_c, 3, 60, 64
5, 1618080, Note_on_c, 3, 62, 102
5, 1618316, Note_off_c, 3, 62, 64
5, 1618320, Note_on_c, 3, 55, 89
5, 1618556, Note_off_c, 3, 55, 64
5, 1618560, Note_on_c, 3, 57, 90
5, 1618796, Note_off_c, 3, 57, 64
5, 1618800, Note_on_c, 3, 59, 93
5, 1619036, Note_off_c, 3, 59, 64
5, 1619040, Note_on_c, 3, 60, 93
5, 1619276, Note_off_c, 3, 60, 64
5, 1619760, Note_on_c, 3, 57, 97
5, 1619996, Note_off_c, 3, 57, 64
5, 1620480, Note_on_c, 3, 54, 108
5, 1620720, Note_off_c, 3, 54, 64
5, 1621200, Note_on_c, 3, 51, 101
5, 1621680, Note_off_c, 3, 51, 64
5, 1621680, Note_on_c, 3, 54, 101
5, 1621920, Note_off_c, 3, 54, 64
5, 1621920, Note_on_c, 3, 57, 101
5, 1622880, Note_off_c, 3, 57, 64
5, 1622880, Note_on_c, 3, 55, 101
5, 1623120, Note_off_c, 3, 55, 64
5, 1623120, Note_on_c, 3, 57, 101
5, 1623360, Note_off_c, 3, 57, 64
5, 1623360, Note_on_c, 3, 55, 101
5, 1623600, Note_off_c, 3, 55, 64
5, 1624080, Note_on_c, 3, 52, 89
5, 1624316, Note_off_c, 3, 52, 64
5, 1624800, Note_on_c, 3, 48, 101
5, 1625040, Note_off_c, 3, 48, 64
5, 1625520, Note_on_c, 3, 45, 89
5, 1626000, Note_off_c, 3, 45, 64
5, 1626000, Note_on_c, 3, 46, 73
5, 1626236, Note_off_c, 3, 46, 64
5, 1626240, Note_on_c, 3, 47, 56
5, 1626480, Note_off_c, 3, 47, 64
5, 1626480, Note_on_c, 3, 60, 83
5, 1626596, Note_off_c, 3, 60, 64
5, 1626600, Note_on_c, 3, 59, 83
5, 1626716, Note_off_c, 3, 59, 64
5, 1626720, Note_on_c, 3, 57, 83
5, 1626836, Note_off_c, 3, 57, 64
5, 1626840, Note_on_c, 3, 55, 83
5, 1626956, Note_off_c, 3, 55, 64
5, 1626960, Note_on_c, 3, 57, 83
5, 1627200, Note_off_c, 3, 57, 64
5, 1627200, Note_on_c, 3, 59, 83
5, 1627320, Note_off_c, 3, 59, 64
5, 1627320, Note_on_c, 3, 57, 83
5, 1627440, Note_off_c, 3, 57, 64
5, 1627440, Note_on_c, 3, 55, 73
5, 1627560, Note_off_c, 3, 55, 64
5, 1627560, Note_on_c, 3, 54, 73
5, 1627680, Note_off_c, 3, 54, 64
5, 1627680, Note_on_c, 3, 55, 95
5, 1627920, Note_off_c, 3, 55, 64
5, 1627920, Note_on_c, 3, 57, 89
5, 1628036, Note_off_c, 3, 57, 64
5, 1628040, Note_on_c, 3, 55, 93
5, 1628156, Note_off_c, 3, 55, 64
5, 1628160, Note_on_c, 3, 54, 89
5, 1628276, Note_off_c, 3, 54, 64
5, 1628280, Note_on_c, 3, 52, 104
5, 1628400, Note_off_c, 3, 52, 64
5, 1628400, Note_on_c, 3, 60, 97
5, 1628636, Note_off_c, 3, 60, 64
5, 1628640, Note_on_c, 3, 51, 100
5, 1628876, Note_off_c, 3, 51, 64
5, 1628880, Note_on_c, 3, 52, 89
5, 1629116, Note_off_c, 3, 52, 64
5, 1629120, Note_on_c, 3, 47, 100
5, 1629356, Note_off_c, 3, 47, 64
5, 1629360, Note_on_c, 3, 52, 94
5, 1629596, Note_off_c, 3, 52, 64
5, 1629600, Note_on_c, 3, 51, 93
5, 1629840, Note_off_c, 3, 51, 64
5, 1629840, Note_on_c, 3, 52, 96
5, 1630800, Note_off_c, 3, 52, 64
5, 1630800, Note_on_c, 3, 55, 90
5, 1631036, Note_off_c, 3, 55, 64
5, 1631040, Note_on_c, 3, 59, 93
5, 1631276, Note_off_c, 3, 59, 64
5, 1631280, Note_on_c, 3, 64, 104
5, 1631756, Note_off_c, 3, 64, 64
5, 1631760, Note_on_c, 3, 62, 90
5, 1631996, Note_off_c, 3, 62, 64
5, 1632000, Note_on_c, 3, 60, 97
5, 1632956, Note_off_c, 3, 60, 64
5, 1632960, Note_on_c, 3, 59, 102
5, 1633196, Note_off_c, 3, 59, 64
5, 1633200, Note_on_c, 3, 60, 96
5, 1633436, Note_off_c, 3, 60, 64
5, 1633440, Note_on_c, 3, 54, 101
5, 1633676, Note_off_c, 3, 54, 64
5, 1633680, Note_on_c, 3, 55, 93
5, 1633916, Note_off_c, 3, 55, 64
5, 1633920, Note_on_c, 3, 57, 96
5, 1634156, Note_off_c, 3, 57, 64
5, 1634160, Note_on_c, 3, 59, 98
5, 1634396, Note_off_c, 3, 59, 64
5, 1634400, Note_on_c, 3, 50, 92
5, 1634636, Note_off_c, 3, 50, 64
5, 1634640, Note_on_c, 3, 54, 110
5, 1634876, Note_off_c, 3, 54, 64
5, 1634880, Note_on_c, 3, 47, 101
5, 1635116, Note_off_c, 3, 47, 64
5, 1635120, Note_on_c, 3, 48, 98
5, 1635356, Note_off_c, 3, 48, 64
5, 1635360, Note_on_c, 3, 50, 93
5, 1635596, Note_off_c, 3, 50, 64
5, 1635600, Note_on_c, 3, 43, 96
5, 1635836, Note_off_c, 3, 43, 64
5, 1635840, Note_on_c, 3, 45, 92
5, 1636076, Note_off_c, 3, 45, 64
5, 1636080, Note_on_c, 3, 47, 92
5, 1636316, Note_off_c, 3, 47, 64
5, 1636320, Note_on_c, 3, 48, 100
5, 1637040, Note_off_c, 3, 48, 64
5, 1637040, Note_on_c, 3, 48, 90
5, 1637760, Note_off_c, 3, 48, 64
5, 1637760, Note_on_c, 3, 48, 85
5, 1638716, Note_off_c, 3, 48, 64
5, 1638720, Note_on_c, 3, 50, 92
5, 1638836, Note_off_c, 3, 50, 64
5, 1638840, Note_on_c, 3, 48, 93
5, 1638956, Note_off_c, 3, 48, 64
5, 1638960, Note_on_c, 3, 47, 78
5, 1639076, Note_off_c, 3, 47, 64
5, 1639080, Note_on_c, 3, 45, 80
5, 1639196, Note_off_c, 3, 45, 64
5, 1639200, Note_on_c, 3, 47, 91
5, 1639436, Note_off_c, 3, 47, 64
5, 1639440, Note_on_c, 3, 48, 93
5, 1639676, Note_off_c, 3, 48, 64
5, 1639680, Note_on_c, 3, 50, 92
5, 1639916, Note_off_c, 3, 50, 64
5, 1639920, Note_on_c, 3, 43, 92
5, 1640156, Note_off_c, 3, 43, 64
5, 1640160, Note_on_c, 3, 45, 92
5, 1640396, Note_off_c, 3, 45, 64
5, 1640400, Note_on_c, 3, 47, 95
5, 1640636, Note_off_c, 3, 47, 64
5, 1640640, Note_on_c, 3, 40, 109
5, 1640880, Note_off_c, 3, 40, 64
5, 1641360, Note_on_c, 3, 52, 121
5, 1641600, Note_off_c, 3, 52, 64
5, 1642080, Note_on_c, 3, 45, 101
5, 1642320, Note_off_c, 3, 45, 64
5, 1642800, Note_on_c, 3, 43, 100
5, 1643036, Note_off_c, 3, 43, 64
5, 1643040, Note_on_c, 3, 45, 91
5, 1643276, Note_off_c, 3, 45, 64
5, 1643280, Note_on_c, 3, 47, 98
5, 1643516, Note_off_c, 3, 47, 64
5, 1643520, Note_on_c, 3, 48, 96
5, 1643756, Note_off_c, 3, 48, 64
5, 1643760, Note_on_c, 3, 47, 96
5, 1643996, Note_off_c, 3, 47, 64
5, 1644000, Note_on_c, 3, 45, 82
5, 1644236, Note_off_c, 3, 45, 64
5, 1644240, Note_on_c, 3, 47, 93
5, 1644476, Note_off_c, 3, 47, 64
5, 1644480, Note_on_c, 3, 43, 96
5, 1644716, Note_off_c, 3, 43, 64
5, 1644720, Note_on_c, 3, 45, 102
5, 1644956, Note_off_c, 3, 45, 64
5, 1644960, Note_on_c, 3, 47, 104
5, 1645916, Note_off_c, 3, 47, 64
5, 1645920, Note_on_c, 3, 45, 91
5, 1646156, Note_off_c, 3, 45, 64
5, 1646160, Note_on_c, 3, 43, 91
5, 1646396, Note_off_c, 3, 43, 64
5, 1646400, Note_on_c, 3, 50, 106
5, 1646876, Note_off_c, 3, 50, 64
5, 1646880, Note_on_c, 3, 38, 98
5, 1647116, Note_off_c, 3, 38, 64
5, 1647120, Note_on_c, 3, 43, 98
5, 1647600, Note_off_c, 3, 43, 64
5, 1647600, Note_on_c, 3, 31, 97
5, 1647836, Note_off_c, 3, 31, 64
5, 1647840, Note_on_c, 3, 31, 92
5, 1648320, Note_off_c, 3, 31, 64
5, 1648320, Note_on_c, 3, 43, 91
5, 1648556, Note_off_c, 3, 43, 64
5, 1648560, Note_on_c, 3, 43, 97
5, 1649280, Note_off_c, 3, 43, 64
5, 1651440, Note_on_c, 3, 55, 74
5, 1651920, Note_off_c, 3, 55, 64
5, 1652016, Control_c, 3, 64, 127
5, 1652064, Control_c, 3, 64, 0
5, 1652160, Note_on_c, 3, 55, 101
5, 1652400, Note_off_c, 3, 55, 64
5, 1652400, Note_on_c, 3, 55, 93
5, 1652640, Note_off_c, 3, 55, 64
5, 1652640, Note_on_c, 3, 55, 98
5, 1652880, Note_off_c, 3, 55, 64
5, 1652880, Note_on_c, 3, 55, 101
5, 1653120, Note_off_c, 3, 55, 64
5, 1653120, Note_on_c, 3, 54, 99
5, 1653360, Note_off_c, 3, 54, 64
5, 1653600, Note_on_c, 3, 53, 99
5, 1653840, Note_off_c, 3, 53, 64
5, 1653840, Note_on_c, 3, 53, 99
5, 1654080, Note_off_c, 3, 53, 64
5, 1654080, Note_on_c, 3, 53, 99
5, 1654320, Note_off_c, 3, 53, 64
5, 1654320, Note_on_c, 3, 53, 99
5, 1654560, Note_off_c, 3, 53, 64
5, 1654560, Note_on_c, 3, 52, 99
5, 1654800, Note_off_c, 3, 52, 64
5, 1655040, Note_on_c, 3, 51, 99
5, 1655280, Note_off_c, 3, 51, 64
5, 1655280, Note_on_c, 3, 51, 99
5, 1655520, Note_off_c, 3, 51, 64
5, 1655520, Note_on_c, 3, 51, 99
5, 1655760, Note_off_c, 3, 51, 64
5, 1655760, Note_on_c, 3, 50, 99
5, 1656240, Note_off_c, 3, 50, 64
5, 1656480, Note_on_c, 3, 51, 99
5, 1656720, Note_off_c, 3, 51, 64
5, 1656720, Note_on_c, 3, 50, 99
5, 1656960, Note_off_c, 3, 50, 64
5, 1656960, Note_on_c, 3, 48, 99
5, 1657200, Note_off_c, 3, 48, 64
5, 1657200, Note_on_c, 3, 46, 99
5, 1657680, Note_off_c, 3, 46, 64
5, 1657920, Note_on_c, 3, 46, 99
5, 1658160, Note_off_c, 3, 46, 64
5, 1658160, Note_on_c, 3, 47, 99
5, 1658400, Note_off_c, 3, 47, 64
5, 1658400, Note_on_c, 3, 47, 99
5, 1658640, Note_off_c, 3, 47, 64
5, 1658640, Note_on_c, 3, 47, 99
5, 1658880, Note_off_c, 3, 47, 64
5, 1658880, Note_on_c, 3, 48, 99
5, 1659120, Note_off_c, 3, 48, 64
5, 1659360, Note_on_c, 3, 48, 99
5, 1659600, Note_off_c, 3, 48, 64
5, 1659600, Note_on_c, 3, 49, 99
5, 1659840, Note_off_c, 3, 49, 64
5, 1659840, Note_on_c, 3, 49, 99
5, 1660080, Note_off_c, 3, 49, 64
5, 1660080, Note_on_c, 3, 49, 99
5, 1660320, Note_off_c, 3, 49, 64
5, 1660320, Note_on_c, 3, 50, 99
5, 1660560, Note_off_c, 3, 50, 64
5, 1660800, Note_on_c, 3, 50, 99
5, 1661040, Note_off_c, 3, 50, 64
5, 1661040, Note_on_c, 3, 50, 99
5, 1661280, Note_off_c, 3, 50, 64
5, 1661280, Note_on_c, 3, 50, 99
5, 1661520, Note_off_c, 3, 50, 64
5, 1661520, Note_on_c, 3, 43, 99
5, 1662000, Note_off_c, 3, 43, 64
5, 1662240, Note_on_c, 3, 43, 99
5, 1662480, Note_off_c, 3, 43, 64
5, 1662480, Note_on_c, 3, 46, 99
5, 1662720, Note_off_c, 3, 46, 64
5, 1662720, Note_on_c, 3, 50, 99
5, 1662960, Note_off_c, 3, 50, 64
5, 1662960, Note_on_c, 3, 55, 99
5, 1663320, Note_off_c, 3, 55, 64
5, 1663320, Note_on_c, 3, 58, 99
5, 1663440, Note_off_c, 3, 58, 64
5, 1663440, Note_on_c, 3, 67, 99
5, 1663680, Note_off_c, 3, 67, 64
5, 1663680, Note_on_c, 3, 65, 99
5, 1663920, Note_off_c, 3, 65, 64
5, 1663920, Note_on_c, 3, 63, 99
5, 1664160, Note_off_c, 3, 63, 64
5, 1664160, Note_on_c, 3, 62, 99
5, 1664400, Note_off_c, 3, 62, 64
5, 1664400, Note_on_c, 3, 61, 99
5, 1664640, Note_off_c, 3, 61, 64
5, 1664640, Note_on_c, 3, 57, 99
5, 1664880, Note_off_c, 3, 57, 64
5, 1664880, Note_on_c, 3, 62, 99
5, 1665120, Note_off_c, 3, 62, 64
5, 1665120, Note_on_c, 3, 60, 99
5, 1665360, Note_off_c, 3, 60, 64
5, 1665360, Note_on_c, 3, 58, 99
5, 1665600, Note_off_c, 3, 58, 64
5, 1665600, Note_on_c, 3, 57, 99
5, 1665840, Note_off_c, 3, 57, 64
5, 1665840, Note_on_c, 3, 55, 99
5, 1666080, Note_off_c, 3, 55, 64
5, 1666080, Note_on_c, 3, 60, 99
5, 1666320, Note_off_c, 3, 60, 64
5, 1666320, Note_on_c, 3, 53, 99
5, 1666560, Note_off_c, 3, 53, 64
5, 1666560, Note_on_c, 3, 54, 99
5, 1666800, Note_off_c, 3, 54, 64
5, 1666800, Note_on_c, 3, 55, 99
5, 1667040, Note_off_c, 3, 55, 64
5, 1667040, Note_on_c, 3, 56, 99
5, 1667280, Note_off_c, 3, 56, 64
5, 1667280, Note_on_c, 3, 57, 99
5, 1667520, Note_off_c, 3, 57, 64
5, 1667520, Note_on_c, 3, 58, 99
5, 1667760, Note_off_c, 3, 58, 64
5, 1667760, Note_on_c, 3, 57, 99
5, 1668000, Note_off_c, 3, 57, 64
5, 1668000, Note_on_c, 3, 55, 99
5, 1668240, Note_off_c, 3, 55, 64
5, 1668240, Note_on_c, 3, 53, 99
5, 1668480, Note_off_c, 3, 53, 64
5, 1668480, Note_on_c, 3, 52, 99
5, 1668720, Note_off_c, 3, 52, 64
5, 1668720, Note_on_c, 3, 53, 99
5, 1669200, Note_off_c, 3, 53, 64
5, 1669440, Note_on_c, 3, 54, 99
5, 1669680, Note_off_c, 3, 54, 64
5, 1669680, Note_on_c, 3, 54, 99
5, 1669920, Note_off_c, 3, 54, 64
5, 1669920, Note_on_c, 3, 55, 99
5, 1670160, Note_off_c, 3, 55, 64
5, 1670160, Note_on_c, 3, 55, 99
5, 1670640, Note_off_c, 3, 55, 64
5, 1670880, Note_on_c, 3, 56, 99
5, 1671120, Note_off_c, 3, 56, 64
5, 1671120, Note_on_c, 3, 56, 99
5, 1671360, Note_off_c, 3, 56, 64
5, 1671360, Note_on_c, 3, 57, 99
5, 1671600, Note_off_c, 3, 57, 64
5, 1671600, Note_on_c, 3, 57, 99
5, 1672080, Note_off_c, 3, 57, 64
5, 1672320, Note_on_c, 3, 57, 99
5, 1672560, Note_off_c, 3, 57, 64
5, 1672560, Note_on_c, 3, 61, 99
5, 1672800, Note_off_c, 3, 61, 64
5, 1672800, Note_on_c, 3, 57, 99
5, 1673040, Note_off_c, 3, 57, 64
5, 1673040, Note_on_c, 3, 62, 99
5, 1673760, Note_off_c, 3, 62, 64
5, 1673760, Note_on_c, 3, 60, 99
5, 1674000, Note_off_c, 3, 60, 64
5, 1674000, Note_on_c, 3, 58, 99
5, 1674240, Note_off_c, 3, 58, 64
5, 1674240, Note_on_c, 3, 57, 99
5, 1674480, Note_off_c, 3, 57, 64
5, 1674480, Note_on_c, 3, 55, 74
5, 1674960, Note_off_c, 3, 55, 64
5, 1675056, Control_c, 3, 64, 127
5, 1675104, Control_c, 3, 64, 0
5, 1675200, Note_on_c, 3, 55, 101
5, 1675440, Note_off_c, 3, 55, 64
5, 1675440, Note_on_c, 3, 55, 93
5, 1675680, Note_off_c, 3, 55, 64
5, 1675680, Note_on_c, 3, 55, 98
5, 1675920, Note_off_c, 3, 55, 64
5, 1675920, Note_on_c, 3, 55, 101
5, 1676160, Note_off_c, 3, 55, 64
5, 1676160, Note_on_c, 3, 54, 99
5, 1676400, Note_off_c, 3, 54, 64
5, 1676640, Note_on_c, 3, 53, 99
5, 1676880, Note_off_c, 3, 53, 64
5, 1676880, Note_on_c, 3, 53, 99
5, 1677120, Note_off_c, 3, 53, 64
5, 1677120, Note_on_c, 3, 53, 99
5, 1677360, Note_off_c, 3, 53, 64
5, 1677360, Note_on_c, 3, 53, 99
5, 1677600, Note_off_c, 3, 53, 64
5, 1677600, Note_on_c, 3, 52, 99
5, 1677840, Note_off_c, 3, 52, 64
5, 1678080, Note_on_c, 3, 51, 99
5, 1678320, Note_off_c, 3, 51, 64
5, 1678320, Note_on_c, 3, 51, 99
5, 1678560, Note_off_c, 3, 51, 64
5, 1678560, Note_on_c, 3, 51, 99
5, 1678800, Note_off_c, 3, 51, 64
5, 1678800, Note_on_c, 3, 50, 99
5, 1679280, Note_off_c, 3, 50, 64
5, 1679520, Note_on_c, 3, 51, 99
5, 1679760, Note_off_c, 3, 51, 64
5, 1679760, Note_on_c, 3, 50, 99
5, 1680000, Note_off_c, 3, 50, 64
5, 1680000, Note_on_c, 3, 48, 99
5, 1680240, Note_off_c, 3, 48, 64
5, 1680240, Note_on_c, 3, 46, 99
5, 1680720, Note_off_c, 3, 46, 64
5, 1680960, Note_on_c, 3, 46, 99
5, 1681200, Note_off_c, 3, 46, 64
5, 1681200, Note_on_c, 3, 47, 99
5, 1681440, Note_off_c, 3, 47, 64
5, 1681440, Note_on_c, 3, 47, 99
5, 1681680, Note_off_c, 3, 47, 64
5, 1681680, Note_on_c, 3, 47, 99
5, 1681920, Note_off_c, 3, 47, 64
5, 1681920, Note_on_c, 3, 48, 99
5, 1682160, Note_off_c, 3, 48, 64
5, 1682400, Note_on_c, 3, 48, 99
5, 1682640, Note_off_c, 3, 48, 64
5, 1682640, Note_on_c, 3, 49, 99
5, 1682880, Note_off_c, 3, 49, 64
5, 1682880, Note_on_c, 3, 49, 99
5, 1683120, Note_off_c, 3, 49, 64
5, 1683120, Note_on_c, 3, 49, 99
5, 1683360, Note_off_c, 3, 49, 64
5, 1683360, Note_on_c, 3, 50, 99
5, 1683600, Note_off_c, 3, 50, 64
5, 1683840, Note_on_c, 3, 50, 99
5, 1684080, Note_off_c, 3, 50, 64
5, 1684080, Note_on_c, 3, 50, 99
5, 1684320, Note_off_c, 3, 50, 64
5, 1684320, Note_on_c, 3, 50, 99
5, 1684560, Note_off_c, 3, 50, 64
5, 1684560, Note_on_c, 3, 43, 99
5, 1685040, Note_off_c, 3, 43, 64
5, 1685280, Note_on_c, 3, 43, 99
5, 1685520, Note_off_c, 3, 43, 64
5, 1685520, Note_on_c, 3, 46, 99
5, 1685760, Note_off_c, 3, 46, 64
5, 1685760, Note_on_c, 3, 50, 99
5, 1686000, Note_off_c, 3, 50, 64
5, 1686000, Note_on_c, 3, 55, 99
5, 1686360, Note_off_c, 3, 55, 64
5, 1686360, Note_on_c, 3, 58, 99
5, 1686480, Note_off_c, 3, 58, 64
5, 1686480, Note_on_c, 3, 67, 99
5, 1686720, Note_off_c, 3, 67, 64
5, 1686720, Note_on_c, 3, 65, 99
5, 1686960, Note_off_c, 3, 65, 64
5, 1686960, Note_on_c, 3, 63, 99
5, 1687200, Note_off_c, 3, 63, 64
5, 1687200, Note_on_c, 3, 62, 99
5, 1687440, Note_off_c, 3, 62, 64
5, 1687440, Note_on_c, 3, 61, 99
5, 1687680, Note_off_c, 3, 61, 64
5, 1687680, Note_on_c, 3, 57, 99
5, 1687920, Note_off_c, 3, 57, 64
5, 1687920, Note_on_c, 3, 62, 99
5, 1688160, Note_off_c, 3, 62, 64
5, 1688160, Note_on_c, 3, 60, 99
5, 1688400, Note_off_c, 3, 60, 64
5, 1688400, Note_on_c, 3, 58, 99
5, 1688640, Note_off_c, 3, 58, 64
5, 1688640, Note_on_c, 3, 57, 99
5, 1688880, Note_off_c, 3, 57, 64
5, 1688880, Note_on_c, 3, 55, 99
5, 1689120, Note_off_c, 3, 55, 64
5, 1689120, Note_on_c, 3, 60, 99
5, 1689360, Note_off_c, 3, 60, 64
5, 1689360, Note_on_c, 3, 53, 99
5, 1689600, Note_off_c, 3, 53, 64
5, 1689600, Note_on_c, 3, 54, 99
5, 1689840, Note_off_c, 3, 54, 64
5, 1689840, Note_on_c, 3, 55, 99
5, 1690080, Note_off_c, 3, 55, 64
5, 1690080, Note_on_c, 3, 56, 99
5, 1690320, Note_off_c, 3, 56, 64
5, 1690320, Note_on_c, 3, 57, 99
5, 1690560, Note_off_c, 3, 57, 64
5, 1690560, Note_on_c, 3, 58, 99
5, 1690800, Note_off_c, 3, 58, 64
5, 1690800, Note_on_c, 3, 57, 99
5, 1691040, Note_off_c, 3, 57, 64
5, 1691040, Note_on_c, 3, 55, 99
5, 1691280, Note_off_c, 3, 55, 64
5, 1691280, Note_on_c, 3, 53, 99
5, 1691520, Note_off_c, 3, 53, 64
5, 1691520, Note_on_c, 3, 52, 99
5, 1691760, Note_off_c, 3, 52, 64
5, 1691760, Note_on_c, 3, 53, 99
5, 1692240, Note_off_c, 3, 53, 64
5, 1692480, Note_on_c, 3, 54, 99
5, 1692720, Note_off_c, 3, 54, 64
5, 1692720, Note_on_c, 3, 54, 99
5, 1692960, Note_off_c, 3, 54, 64
5, 1692960, Note_on_c, 3, 55, 99
5, 1693200, Note_off_c, 3, 55, 64
5, 1693200, Note_on_c, 3, 55, 99
5, 1693680, Note_off_c, 3, 55, 64
5, 1693920, Note_on_c, 3, 56, 99
5, 1694160, Note_off_c, 3, 56, 64
5, 1694160, Note_on_c, 3, 56, 99
5, 1694400, Note_off_c, 3, 56, 64
5, 1694400, Note_on_c, 3, 57, 99
5, 1694640, Note_off_c, 3, 57, 64
5, 1694640, Note_on_c, 3, 57, 99
5, 1695120, Note_off_c, 3, 57, 64
5, 1695360, Note_on_c, 3, 57, 99
5, 1695600, Note_off_c, 3, 57, 64
5, 1695600, Note_on_c, 3, 61, 99
5, 1695840, Note_off_c, 3, 61, 64
5, 1695840, Note_on_c, 3, 57, 99
5, 1696080, Note_off_c, 3, 57, 64
5, 1696080, Note_on_c, 3, 62, 99
5, 1696800, Note_off_c, 3, 62, 64
5, 1696800, Note_on_c, 3, 57, 99
5, 1697040, Note_off_c, 3, 57, 64
5, 1697040, Note_on_c, 3, 50, 99
5, 1697520, Note_off_c, 3, 50, 64
5, 1697520, Note_on_c, 3, 62, 99
5, 1698000, Note_off_c, 3, 62, 64
5, 1698240, Note_on_c, 3, 60, 99
5, 1698480, Note_off_c, 3, 60, 64
5, 1698480, Note_on_c, 3, 60, 99
5, 1698720, Note_off_c, 3, 60, 64
5, 1698720, Note_on_c, 3, 58, 99
5, 1698960, Note_off_c, 3, 58, 64
5, 1698960, Note_on_c, 3, 58, 99
5, 1699200, Note_off_c, 3, 58, 64
5, 1699200, Note_on_c, 3, 55, 99
5, 1699320, Note_off_c, 3, 55, 64
5, 1699320, Note_on_c, 3, 57, 99
5, 1699440, Note_off_c, 3, 57, 64
5, 1699440, Note_on_c, 3, 58, 99
5, 1699680, Note_off_c, 3, 58, 64
5, 1699680, Note_on_c, 3, 59, 99
5, 1699920, Note_off_c, 3, 59, 64
5, 1699920, Note_on_c, 3, 59, 99
5, 1700160, Note_off_c, 3, 59, 64
5, 1700160, Note_on_c, 3, 60, 99
5, 1700400, Note_off_c, 3, 60, 64
5, 1700400, Note_on_c, 3, 60, 99
5, 1700880, Note_off_c, 3, 60, 64
5, 1701120, Note_on_c, 3, 55, 99
5, 1701360, Note_off_c, 3, 55, 64
5, 1701360, Note_on_c, 3, 56, 99
5, 1701600, Note_off_c, 3, 56, 64
5, 1701600, Note_on_c, 3, 57, 99
5, 1701840, Note_off_c, 3, 57, 64
5, 1701840, Note_on_c, 3, 58, 99
5, 1702320, Note_off_c, 3, 58, 64
5, 1702560, Note_on_c, 3, 59, 99
5, 1702800, Note_off_c, 3, 59, 64
5, 1702800, Note_on_c, 3, 58, 99
5, 1703040, Note_off_c, 3, 58, 64
5, 1703040, Note_on_c, 3, 56, 99
5, 1703280, Note_off_c, 3, 56, 64
5, 1703280, Note_on_c, 3, 54, 99
5, 1703760, Note_off_c, 3, 54, 64
5, 1704000, Note_on_c, 3, 55, 99
5, 1704240, Note_off_c, 3, 55, 64
5, 1704240, Note_on_c, 3, 55, 99
5, 1704480, Note_off_c, 3, 55, 64
5, 1704480, Note_on_c, 3, 56, 99
5, 1704720, Note_off_c, 3, 56, 64
5, 1704720, Note_on_c, 3, 56, 110
5, 1705196, Note_off_c, 3, 56, 64
5, 1705440, Note_on_c, 3, 57, 104
5, 1705676, Note_off_c, 3, 57, 64
5, 1705680, Note_on_c, 3, 57, 104
5, 1705916, Note_off_c, 3, 57, 64
5, 1705920, Note_on_c, 3, 58, 106
5, 1706156, Note_off_c, 3, 58, 64
5, 1706160, Note_on_c, 3, 58, 108
5, 1706636, Note_off_c, 3, 58, 64
5, 1706880, Note_on_c, 3, 58, 97
5, 1707116, Note_off_c, 3, 58, 64
5, 1707120, Note_on_c, 3, 62, 101
5, 1707356, Note_off_c, 3, 62, 64
5, 1707360, Note_on_c, 3, 58, 96
5, 1707596, Note_off_c, 3, 58, 64
5, 1707600, Note_on_c, 3, 63, 117
5, 1708076, Note_off_c, 3, 63, 64
5, 1708320, Note_on_c, 3, 65, 98
5, 1708556, Note_off_c, 3, 65, 64
5, 1708560, Note_on_c, 3, 63, 108
5, 1708796, Note_off_c, 3, 63, 64
5, 1708800, Note_on_c, 3, 62, 100
5, 1709036, Note_off_c, 3, 62, 64
5, 1709040, Note_on_c, 3, 60, 95
5, 1709516, Note_off_c, 3, 60, 64
5, 1709760, Note_on_c, 3, 60, 104
5, 1709996, Note_off_c, 3, 60, 64
5, 1710000, Note_on_c, 3, 60, 96
5, 1710240, Note_off_c, 3, 60, 64
5, 1710240, Note_on_c, 3, 60, 96
5, 1710480, Note_off_c, 3, 60, 64
5, 1710480, Note_on_c, 3, 60, 98
5, 1710716, Note_off_c, 3, 60, 64
5, 1710720, Note_on_c, 3, 59, 102
5, 1710960, Note_off_c, 3, 59, 64
5, 1711200, Note_on_c, 3, 58, 110
5, 1711436, Note_off_c, 3, 58, 64
5, 1711440, Note_on_c, 3, 58, 102
5, 1711676, Note_off_c, 3, 58, 64
5, 1711680, Note_on_c, 3, 58, 99
5, 1711916, Note_off_c, 3, 58, 64
5, 1711920, Note_on_c, 3, 58, 106
5, 1712156, Note_off_c, 3, 58, 64
5, 1712160, Note_on_c, 3, 57, 109
5, 1712400, Note_off_c, 3, 57, 64
5, 1712640, Note_on_c, 3, 56, 110
5, 1712876, Note_off_c, 3, 56, 64
5, 1712880, Note_on_c, 3, 56, 104
5, 1713116, Note_off_c, 3, 56, 64
5, 1713120, Note_on_c, 3, 55, 98
5, 1713356, Note_off_c, 3, 55, 64
5, 1713360, Note_on_c, 3, 55, 102
5, 1713596, Note_off_c, 3, 55, 64
5, 1713600, Note_on_c, 3, 54, 108
5, 1713840, Note_off_c, 3, 54, 64
5, 1714080, Note_on_c, 3, 54, 102
5, 1714316, Note_off_c, 3, 54, 64
5, 1714320, Note_on_c, 3, 55, 104
5, 1714556, Note_off_c, 3, 55, 64
5, 1714560, Note_on_c, 3, 48, 109
5, 1714796, Note_off_c, 3, 48, 64
5, 1714800, Note_on_c, 3, 46, 108
5, 1715276, Note_off_c, 3, 46, 64
5, 1715520, Note_on_c, 3, 46, 106
5, 1715756, Note_off_c, 3, 46, 64
5, 1715760, Note_on_c, 3, 46, 108
5, 1715996, Note_off_c, 3, 46, 64
5, 1716000, Note_on_c, 3, 47, 100
5, 1716236, Note_off_c, 3, 47, 64
5, 1716240, Note_on_c, 3, 47, 96
5, 1716356, Note_off_c, 3, 47, 64
5, 1716360, Note_on_c, 3, 50, 98
5, 1716476, Note_off_c, 3, 50, 64
5, 1716480, Note_on_c, 3, 48, 106
5, 1716720, Note_off_c, 3, 48, 64
5, 1716960, Note_on_c, 3, 48, 115
5, 1717196, Note_off_c, 3, 48, 64
5, 1717200, Note_on_c, 3, 48, 104
5, 1717436, Note_off_c, 3, 48, 64
5, 1717440, Note_on_c, 3, 49, 110
5, 1717676, Note_off_c, 3, 49, 64
5, 1717680, Note_on_c, 3, 49, 99
5, 1717796, Note_off_c, 3, 49, 64
5, 1717800, Note_on_c, 3, 52, 102
5, 1717916, Note_off_c, 3, 52, 64
5, 1717920, Note_on_c, 3, 50, 117
5, 1718160, Note_off_c, 3, 50, 64
5, 1718400, Note_on_c, 3, 50, 107
5, 1718640, Note_off_c, 3, 50, 64
5, 1718640, Note_on_c, 3, 50, 106
5, 1718880, Note_off_c, 3, 50, 64
5, 1718880, Note_on_c, 3, 50, 98
5, 1719116, Note_off_c, 3, 50, 64
5, 1719120, Note_on_c, 3, 55, 115
5, 1719600, Note_off_c, 3, 55, 64
5, 1719720, Note_on_c, 3, 54, 101
5, 1719840, Note_off_c, 3, 54, 64
5, 1719840, Note_on_c, 3, 55, 83
5, 1719960, Note_off_c, 3, 55, 64
5, 1719960, Note_on_c, 3, 50, 93
5, 1720076, Note_off_c, 3, 50, 64
5, 1720080, Note_on_c, 3, 43, 115
5, 1720560, Note_off_c, 3, 43, 64
5, 1722000, Note_on_c, 3, 55, 90
5, 1722076, Note_off_c, 3, 55, 64
5, 1722080, Note_on_c, 3, 57, 95
5, 1722156, Note_off_c, 3, 57, 64
5, 1722160, Note_on_c, 3, 55, 86
5, 1722236, Note_off_c, 3, 55, 64
5, 1722240, Note_on_c, 3, 50, 90
5, 1722316, Note_off_c, 3, 50, 64
5, 1722320, Note_on_c, 3, 52, 92
5, 1722396, Note_off_c, 3, 52, 64
5, 1722400, Note_on_c, 3, 54, 85
5, 1722476, Note_off_c, 3, 54, 64
5, 1722480, Note_on_c, 3, 55, 96
5, 1722556, Note_off_c, 3, 55, 64
5, 1722560, Note_on_c, 3, 54, 96
5, 1722636, Note_off_c, 3, 54, 64
5, 1722640, Note_on_c, 3, 55, 91
5, 1722716, Note_off_c, 3, 55, 64
5, 1722720, Note_on_c, 3, 57, 95
5, 1722796, Note_off_c, 3, 57, 64
5, 1722800, Note_on_c, 3, 55, 85
5, 1722876, Note_off_c, 3, 55, 64
5, 1722880, Note_on_c, 3, 57, 100
5, 1722956, Note_off_c, 3, 57, 64
5, 1722960, Note_on_c, 3, 59, 96
5, 1723036, Note_off_c, 3, 59, 64
5, 1723040, Note_on_c, 3, 57, 90
5, 1723116, Note_off_c, 3, 57, 64
5, 1723120, Note_on_c, 3, 59, 93
5, 1723196, Note_off_c, 3, 59, 64
5, 1723200, Note_on_c, 3, 60, 98
5, 1723276, Note_off_c, 3, 60, 64
5, 1723280, Note_on_c, 3, 59, 98
5, 1723356, Note_off_c, 3, 59, 64
5, 1723360, Note_on_c, 3, 61, 102
5, 1723436, Note_off_c, 3, 61, 64
5, 1723440, Note_on_c, 3, 62, 100
5, 1723516, Note_off_c, 3, 62, 64
5, 1723520, Note_on_c, 3, 64, 106
5, 1723596, Note_off_c, 3, 64, 64
5, 1723600, Note_on_c, 3, 62, 97
5, 1723676, Note_off_c, 3, 62, 64
5, 1723680, Note_on_c, 3, 57, 80
5, 1723756, Note_off_c, 3, 57, 64
5, 1723760, Note_on_c, 3, 59, 89
5, 1723836, Note_off_c, 3, 59, 64
5, 1723840, Note_on_c, 3, 61, 94
5, 1723916, Note_off_c, 3, 61, 64
5, 1723920, Note_on_c, 3, 62, 91
5, 1723996, Note_off_c, 3, 62, 64
5, 1724000, Note_on_c, 3, 61, 90
5, 1724076, Note_off_c, 3, 61, 64
5, 1724080, Note_on_c, 3, 62, 98
5, 1724156, Note_off_c, 3, 62, 64
5, 1724160, Note_on_c, 3, 64, 96
5, 1724236, Note_off_c, 3, 64, 64
5, 1724240, Note_on_c, 3, 62, 90
5, 1724316, Note_off_c, 3, 62, 64
5, 1724320, Note_on_c, 3, 64, 97
5, 1724396, Note_off_c, 3, 64, 64
5, 1724400, Note_on_c, 3, 66, 104
5, 1724476, Note_off_c, 3, 66, 64
5, 1724480, Note_on_c, 3, 64, 97
5, 1724556, Note_off_c, 3, 64, 64
5, 1724560, Note_on_c, 3, 66, 97
5, 1724636, Note_off_c, 3, 66, 64
5, 1724640, Note_on_c, 3, 67, 98
5, 1724716, Note_off_c, 3, 67, 64
5, 1724720, Note_on_c, 3, 64, 93
5, 1724796, Note_off_c, 3, 64, 64
5, 1724800, Note_on_c, 3, 66, 93
5, 1724876, Note_off_c, 3, 66, 64
5, 1724880, Note_on_c, 3, 67, 95
5, 1724956, Note_off_c, 3, 67, 64
5, 1724960, Note_on_c, 3, 69, 90
5, 1725036, Note_off_c, 3, 69, 64
5, 1725040, Note_on_c, 3, 67, 101
5, 1725116, Note_off_c, 3, 67, 64
5, 1725120, Note_on_c, 3, 59, 90
5, 1725196, Note_off_c, 3, 59, 64
5, 1725200, Note_on_c, 3, 64, 101
5, 1725276, Note_off_c, 3, 64, 64
5, 1725280, Note_on_c, 3, 66, 88
5, 1725356, Note_off_c, 3, 66, 64
5, 1725360, Note_on_c, 3, 67, 91
5, 1725436, Note_off_c, 3, 67, 64
5, 1725440, Note_on_c, 3, 66, 89
5, 1725516, Note_off_c, 3, 66, 64
5, 1725520, Note_on_c, 3, 67, 95
5, 1725596, Note_off_c, 3, 67, 64
5, 1725600, Note_on_c, 3, 69, 90
5, 1725676, Note_off_c, 3, 69, 64
5, 1725680, Note_on_c, 3, 67, 93
5, 1725756, Note_off_c, 3, 67, 64
5, 1725760, Note_on_c, 3, 69, 92
5, 1725836, Note_off_c, 3, 69, 64
5, 1725840, Note_on_c, 3, 71, 77
5, 1725916, Note_off_c, 3, 71, 64
5, 1725920, Note_on_c, 3, 69, 92
5, 1725996, Note_off_c, 3, 69, 64
5, 1726000, Note_on_c, 3, 71, 95
5, 1726076, Note_off_c, 3, 71, 64
5, 1726080, Note_on_c, 3, 73, 101
5, 1726156, Note_off_c, 3, 73, 64
5, 1726160, Note_on_c, 3, 71, 98
5, 1726236, Note_off_c, 3, 71, 64
5, 1726240, Note_on_c, 3, 73, 110
5, 1726316, Note_off_c, 3, 73, 64
5, 1726320, Note_on_c, 3, 74, 95
5, 1726396, Note_off_c, 3, 74, 64
5, 1726400, Note_on_c, 3, 76, 97
5, 1726476, Note_off_c, 3, 76, 64
5, 1726480, Note_on_c, 3, 74, 95
5, 1726556, Note_off_c, 3, 74, 64
5, 1726560, Note_on_c, 3, 69, 93
5, 1726636, Note_off_c, 3, 69, 64
5, 1726640, Note_on_c, 3, 71, 96
5, 1726716, Note_off_c, 3, 71, 64
5, 1726720, Note_on_c, 3, 73, 88
5, 1726796, Note_off_c, 3, 73, 64
5, 1726800, Note_on_c, 3, 74, 102
5, 1726876, Note_off_c, 3, 74, 64
5, 1726880, Note_on_c, 3, 73, 97
5, 1726956, Note_off_c, 3, 73, 64
5, 1726960, Note_on_c, 3, 74, 100
5, 1727036, Note_off_c, 3, 74, 64
5, 1727040, Note_on_c, 3, 76, 95
5, 1727116, Note_off_c, 3, 76, 64
5, 1727120, Note_on_c, 3, 74, 96
5, 1727196, Note_off_c, 3, 74, 64
5, 1727200, Note_on_c, 3, 76, 97
5, 1727276, Note_off_c, 3, 76, 64
5, 1727280, Note_on_c, 3, 78, 101
5, 1727356, Note_off_c, 3, 78, 64
5, 1727360, Note_on_c, 3, 76, 90
5, 1727436, Note_off_c, 3, 76, 64
5, 1727440, Note_on_c, 3, 78, 93
5, 1727516, Note_off_c, 3, 78, 64
5, 1727520, Note_on_c, 3, 79, 100
5, 1727596, Note_off_c, 3, 79, 64
5, 1727600, Note_on_c, 3, 76, 96
5, 1727676, Note_off_c, 3, 76, 64
5, 1727680, Note_on_c, 3, 78, 93
5, 1727756, Note_off_c, 3, 78, 64
5, 1727760, Note_on_c, 3, 79, 101
5, 1727836, Note_off_c, 3, 79, 64
5, 1727840, Note_on_c, 3, 78, 97
5, 1727916, Note_off_c, 3, 78, 64
5, 1727920, Note_on_c, 3, 79, 111
5, 1727996, Note_off_c, 3, 79, 64
5, 1728000, Note_on_c, 3, 74, 96
5, 1728076, Note_off_c, 3, 74, 64
5, 1728080, Note_on_c, 3, 72, 97
5, 1728156, Note_off_c, 3, 72, 64
5, 1728160, Note_on_c, 3, 74, 100
5, 1728236, Note_off_c, 3, 74, 64
5, 1728240, Note_on_c, 3, 71, 83
5, 1728316, Note_off_c, 3, 71, 64
5, 1728320, Note_on_c, 3, 67, 85
5, 1728396, Note_off_c, 3, 67, 64
5, 1728400, Note_on_c, 3, 66, 94
5, 1728476, Note_off_c, 3, 66, 64
5, 1728480, Note_on_c, 3, 67, 88
5, 1728556, Note_off_c, 3, 67, 64
5, 1728560, Note_on_c, 3, 71, 84
5, 1728636, Note_off_c, 3, 71, 64
5, 1728640, Note_on_c, 3, 74, 95
5, 1728716, Note_off_c, 3, 74, 64
5, 1728720, Note_on_c, 3, 77, 101
5, 1728796, Note_off_c, 3, 77, 64
5, 1728800, Note_on_c, 3, 76, 95
5, 1728876, Note_off_c, 3, 76, 64
5, 1728880, Note_on_c, 3, 77, 91
5, 1728956, Note_off_c, 3, 77, 64
5, 1728960, Note_on_c, 3, 74, 102
5, 1729036, Note_off_c, 3, 74, 64
5, 1729040, Note_on_c, 3, 71, 101
5, 1729116, Note_off_c, 3, 71, 64
5, 1729120, Note_on_c, 3, 74, 101
5, 1729196, Note_off_c, 3, 74, 64
5, 1729200, Note_on_c, 3, 76, 90
5, 1729276, Note_off_c, 3, 76, 64
5, 1729280, Note_on_c, 3, 74, 102
5, 1729356, Note_off_c, 3, 74, 64
5, 1729360, Note_on_c, 3, 76, 100
5, 1729436, Note_off_c, 3, 76, 64
5, 1729440, Note_on_c, 3, 72, 104
5, 1729516, Note_off_c, 3, 72, 64
5, 1729520, Note_on_c, 3, 71, 100
5, 1729596, Note_off_c, 3, 71, 64
5, 1729600, Note_on_c, 3, 72, 100
5, 1729676, Note_off_c, 3, 72, 64
5, 1729680, Note_on_c, 3, 67, 104
5, 1729756, Note_off_c, 3, 67, 64
5, 1729760, Note_on_c, 3, 64, 96
5, 1729836, Note_off_c, 3, 64, 64
5, 1729840, Note_on_c, 3, 62, 95
5, 1729916, Note_off_c, 3, 62, 64
5, 1729920, Note_on_c, 3, 64, 100
5, 1729996, Note_off_c, 3, 64, 64
5, 1730000, Note_on_c, 3, 67, 100
5, 1730076, Note_off_c, 3, 67, 64
5, 1730080, Note_on_c, 3, 72, 106
5, 1730156, Note_off_c, 3, 72, 64
5, 1730160, Note_on_c, 3, 76, 104
5, 1730236, Note_off_c, 3, 76, 64
5, 1730240, Note_on_c, 3, 74, 96
5, 1730316, Note_off_c, 3, 74, 64
5, 1730320, Note_on_c, 3, 76, 97
5, 1730396, Note_off_c, 3, 76, 64
5, 1730400, Note_on_c, 3, 72, 109
5, 1730476, Note_off_c, 3, 72, 64
5, 1730480, Note_on_c, 3, 69, 92
5, 1730556, Note_off_c, 3, 69, 64
5, 1730560, Note_on_c, 3, 72, 101
5, 1730636, Note_off_c, 3, 72, 64
5, 1730640, Note_on_c, 3, 74, 93
5, 1730716, Note_off_c, 3, 74, 64
5, 1730720, Note_on_c, 3, 72, 96
5, 1730796, Note_off_c, 3, 72, 64
5, 1730800, Note_on_c, 3, 74, 97
5, 1730876, Note_off_c, 3, 74, 64
5, 1730880, Note_on_c, 3, 69, 96
5, 1730956, Note_off_c, 3, 69, 64
5, 1730960, Note_on_c, 3, 67, 88
5, 1731036, Note_off_c, 3, 67, 64
5, 1731040, Note_on_c, 3, 69, 93
5, 1731116, Note_off_c, 3, 69, 64
5, 1731120, Note_on_c, 3, 66, 86
5, 1731196, Note_off_c, 3, 66, 64
5, 1731200, Note_on_c, 3, 62, 98
5, 1731276, Note_off_c, 3, 62, 64
5, 1731280, Note_on_c, 3, 61, 92
5, 1731356, Note_off_c, 3, 61, 64
5, 1731360, Note_on_c, 3, 62, 100
5, 1731436, Note_off_c, 3, 62, 64
5, 1731440, Note_on_c, 3, 66, 86
5, 1731516, Note_off_c, 3, 66, 64
5, 1731520, Note_on_c, 3, 69, 81
5, 1731596, Note_off_c, 3, 69, 64
5, 1731600, Note_on_c, 3, 72, 100
5, 1731676, Note_off_c, 3, 72, 64
5, 1731680, Note_on_c, 3, 71, 84
5, 1731756, Note_off_c, 3, 71, 64
5, 1731760, Note_on_c, 3, 72, 100
5, 1731836, Note_off_c, 3, 72, 64
5, 1731840, Note_on_c, 3, 69, 90
5, 1731916, Note_off_c, 3, 69, 64
5, 1731920, Note_on_c, 3, 66, 90
5, 1731996, Note_off_c, 3, 66, 64
5, 1732000, Note_on_c, 3, 69, 90
5, 1732076, Note_off_c, 3, 69, 64
5, 1732080, Note_on_c, 3, 71, 96
5, 1732156, Note_off_c, 3, 71, 64
5, 1732160, Note_on_c, 3, 69, 73
5, 1732236, Note_off_c, 3, 69, 64
5, 1732240, Note_on_c, 3, 71, 97
5, 1732316, Note_off_c, 3, 71, 64
5, 1732320, Note_on_c, 3, 67, 93
5, 1732396, Note_off_c, 3, 67, 64
5, 1732400, Note_on_c, 3, 66, 93
5, 1732476, Note_off_c, 3, 66, 64
5, 1732480, Note_on_c, 3, 67, 98
5, 1732556, Note_off_c, 3, 67, 64
5, 1732560, Note_on_c, 3, 62, 92
5, 1732636, Note_off_c, 3, 62, 64
5, 1732640, Note_on_c, 3, 59, 93
5, 1732716, Note_off_c, 3, 59, 64
5, 1732720, Note_on_c, 3, 57, 88
5, 1732796, Note_off_c, 3, 57, 64
5, 1732800, Note_on_c, 3, 59, 93
5, 1732876, Note_off_c, 3, 59, 64
5, 1732880, Note_on_c, 3, 62, 92
5, 1732956, Note_off_c, 3, 62, 64
5, 1732960, Note_on_c, 3, 67, 95
5, 1733036, Note_off_c, 3, 67, 64
5, 1733040, Note_on_c, 3, 71, 98
5, 1733116, Note_off_c, 3, 71, 64
5, 1733120, Note_on_c, 3, 67, 88
5, 1733196, Note_off_c, 3, 67, 64
5, 1733200, Note_on_c, 3, 66, 93
5, 1733276, Note_off_c, 3, 66, 64
5, 1733280, Note_on_c, 3, 67, 92
5, 1733356, Note_off_c, 3, 67, 64
5, 1733360, Note_on_c, 3, 71, 90
5, 1733436, Note_off_c, 3, 71, 64
5, 1733440, Note_on_c, 3, 74, 95
5, 1733516, Note_off_c, 3, 74, 64
5, 1733520, Note_on_c, 3, 43, 98
5, 1733596, Note_off_c, 3, 43, 64
5, 1733600, Note_on_c, 3, 45, 90
5, 1733676, Note_off_c, 3, 45, 64
5, 1733680, Note_on_c, 3, 43, 102
5, 1733756, Note_off_c, 3, 43, 64
5, 1733760, Note_on_c, 3, 38, 90
5, 1733836, Note_off_c, 3, 38, 64
5, 1733840, Note_on_c, 3, 40, 91
5, 1733916, Note_off_c, 3, 40, 64
5, 1733920, Note_on_c, 3, 42, 82
5, 1733996, Note_off_c, 3, 42, 64
5, 1734000, Note_on_c, 3, 43, 93
5, 1734076, Note_off_c, 3, 43, 64
5, 1734080, Note_on_c, 3, 42, 75
5, 1734156, Note_off_c, 3, 42, 64
5, 1734160, Note_on_c, 3, 43, 85
5, 1734236, Note_off_c, 3, 43, 64
5, 1734240, Note_on_c, 3, 45, 100
5, 1734316, Note_off_c, 3, 45, 64
5, 1734320, Note_on_c, 3, 43, 55
5, 1734396, Note_off_c, 3, 43, 64
5, 1734400, Note_on_c, 3, 45, 97
5, 1734476, Note_off_c, 3, 45, 64
5, 1734480, Note_on_c, 3, 47, 97
5, 1734556, Note_off_c, 3, 47, 64
5, 1734560, Note_on_c, 3, 45, 62
5, 1734636, Note_off_c, 3, 45, 64
5, 1734640, Note_on_c, 3, 47, 97
5, 1734716, Note_off_c, 3, 47, 64
5, 1734720, Note_on_c, 3, 48, 96
5, 1734796, Note_off_c, 3, 48, 64
5, 1734800, Note_on_c, 3, 47, 82
5, 1734876, Note_off_c, 3, 47, 64
5, 1734880, Note_on_c, 3, 49, 86
5, 1734956, Note_off_c, 3, 49, 64
5, 1734960, Note_on_c, 3, 50, 93
5, 1735036, Note_off_c, 3, 50, 64
5, 1735040, Note_on_c, 3, 52, 93
5, 1735116, Note_off_c, 3, 52, 64
5, 1735120, Note_on_c, 3, 50, 90
5, 1735196, Note_off_c, 3, 50, 64
5, 1735200, Note_on_c, 3, 45, 76
5, 1735276, Note_off_c, 3, 45, 64
5, 1735280, Note_on_c, 3, 47, 86
5, 1735356, Note_off_c, 3, 47, 64
5, 1735360, Note_on_c, 3, 49, 85
5, 1735436, Note_off_c, 3, 49, 64
5, 1735440, Note_on_c, 3, 50, 92
5, 1735516, Note_off_c, 3, 50, 64
5, 1735520, Note_on_c, 3, 49, 79
5, 1735596, Note_off_c, 3, 49, 64
5, 1735600, Note_on_c, 3, 50, 90
5, 1735676, Note_off_c, 3, 50, 64
5, 1735680, Note_on_c, 3, 52, 102
5, 1735756, Note_off_c, 3, 52, 64
5, 1735760, Note_on_c, 3, 50, 72
5, 1735836, Note_off_c, 3, 50, 64
5, 1735840, Note_on_c, 3, 52, 96
5, 1735916, Note_off_c, 3, 52, 64
5, 1735920, Note_on_c, 3, 54, 93
5, 1735996, Note_off_c, 3, 54, 64
5, 1736000, Note_on_c, 3, 52, 84
5, 1736076, Note_off_c, 3, 52, 64
5, 1736080, Note_on_c, 3, 54, 93
5, 1736156, Note_off_c, 3, 54, 64
5, 1736160, Note_on_c, 3, 55, 89
5, 1736236, Note_off_c, 3, 55, 64
5, 1736240, Note_on_c, 3, 52, 86
5, 1736316, Note_off_c, 3, 52, 64
5, 1736320, Note_on_c, 3, 54, 90
5, 1736396, Note_off_c, 3, 54, 64
5, 1736400, Note_on_c, 3, 55, 91
5, 1736476, Note_off_c, 3, 55, 64
5, 1736480, Note_on_c, 3, 57, 100
5, 1736556, Note_off_c, 3, 57, 64
5, 1736560, Note_on_c, 3, 55, 98
5, 1736636, Note_off_c, 3, 55, 64
5, 1736640, Note_on_c, 3, 47, 101
5, 1736716, Note_off_c, 3, 47, 64
5, 1736720, Note_on_c, 3, 52, 96
5, 1736796, Note_off_c, 3, 52, 64
5, 1736800, Note_on_c, 3, 54, 93
5, 1736876, Note_off_c, 3, 54, 64
5, 1736880, Note_on_c, 3, 55, 92
5, 1736956, Note_off_c, 3, 55, 64
5, 1736960, Note_on_c, 3, 54, 90
5, 1737036, Note_off_c, 3, 54, 64
5, 1737040, Note_on_c, 3, 55, 88
5, 1737116, Note_off_c, 3, 55, 64
5, 1737120, Note_on_c, 3, 57, 101
5, 1737196, Note_off_c, 3, 57, 64
5, 1737200, Note_on_c, 3, 55, 85
5, 1737276, Note_off_c, 3, 55, 64
5, 1737280, Note_on_c, 3, 57, 95
5, 1737356, Note_off_c, 3, 57, 64
5, 1737360, Note_on_c, 3, 59, 100
5, 1737436, Note_off_c, 3, 59, 64
5, 1737440, Note_on_c, 3, 57, 83
5, 1737516, Note_off_c, 3, 57, 64
5, 1737520, Note_on_c, 3, 59, 98
5, 1737596, Note_off_c, 3, 59, 64
5, 1737600, Note_on_c, 3, 61, 108
5, 1737676, Note_off_c, 3, 61, 64
5, 1737680, Note_on_c, 3, 57, 91
5, 1737756, Note_off_c, 3, 57, 64
5, 1737760, Note_on_c, 3, 59, 96
5, 1737836, Note_off_c, 3, 59, 64
5, 1737840, Note_on_c, 3, 61, 101
5, 1737916, Note_off_c, 3, 61, 64
5, 1737920, Note_on_c, 3, 62, 92
5, 1737996, Note_off_c, 3, 62, 64
5, 1738000, Note_on_c, 3, 61, 94
5, 1738076, Note_off_c, 3, 61, 64
5, 1738080, Note_on_c, 3, 52, 95
5, 1738156, Note_off_c, 3, 52, 64
5, 1738160, Note_on_c, 3, 57, 95
5, 1738236, Note_off_c, 3, 57, 64
5, 1738240, Note_on_c, 3, 59, 98
5, 1738316, Note_off_c, 3, 59, 64
5, 1738320, Note_on_c, 3, 61, 94
5, 1738396, Note_off_c, 3, 61, 64
5, 1738400, Note_on_c, 3, 59, 89
5, 1738476, Note_off_c, 3, 59, 64
5, 1738480, Note_on_c, 3, 61, 85
5, 1738556, Note_off_c, 3, 61, 64
5, 1738560, Note_on_c, 3, 62, 97
5, 1738636, Note_off_c, 3, 62, 64
5, 1738640, Note_on_c, 3, 61, 93
5, 1738716, Note_off_c, 3, 61, 64
5, 1738720, Note_on_c, 3, 62, 90
5, 1738796, Note_off_c, 3, 62, 64
5, 1738800, Note_on_c, 3, 64, 96
5, 1738876, Note_off_c, 3, 64, 64
5, 1738880, Note_on_c, 3, 62, 84
5, 1738956, Note_off_c, 3, 62, 64
5, 1738960, Note_on_c, 3, 64, 89
5, 1739036, Note_off_c, 3, 64, 64
5, 1739040, Note_on_c, 3, 66, 89
5, 1739116, Note_off_c, 3, 66, 64
5, 1739120, Note_on_c, 3, 62, 88
5, 1739196, Note_off_c, 3, 62, 64
5, 1739200, Note_on_c, 3, 64, 92
5, 1739276, Note_off_c, 3, 64, 64
5, 1739280, Note_on_c, 3, 66, 94
5, 1739356, Note_off_c, 3, 66, 64
5, 1739360, Note_on_c, 3, 64, 85
5, 1739436, Note_off_c, 3, 64, 64
5, 1739440, Note_on_c, 3, 66, 92
5, 1739516, Note_off_c, 3, 66, 64
5, 1739520, Note_on_c, 3, 69, 97
5, 1739596, Note_off_c, 3, 69, 64
5, 1739600, Note_on_c, 3, 67, 93
5, 1739676, Note_off_c, 3, 67, 64
5, 1739680, Note_on_c, 3, 69, 97
5, 1739756, Note_off_c, 3, 69, 64
5, 1739760, Note_on_c, 3, 62, 97
5, 1739836, Note_off_c, 3, 62, 64
5, 1739840, Note_on_c, 3, 61, 90
5, 1739916, Note_off_c, 3, 61, 64
5, 1739920, Note_on_c, 3, 62, 84
5, 1739996, Note_off_c, 3, 62, 64
5, 1740000, Note_on_c, 3, 66, 92
5, 1740076, Note_off_c, 3, 66, 64
5, 1740080, Note_on_c, 3, 69, 89
5, 1740156, Note_off_c, 3, 69, 64
5, 1740160, Note_on_c, 3, 71, 91
5, 1740236, Note_off_c, 3, 71, 64
5, 1740240, Note_on_c, 3, 72, 100
5, 1740316, Note_off_c, 3, 72, 64
5, 1740320, Note_on_c, 3, 71, 90
5, 1740396, Note_off_c, 3, 71, 64
5, 1740400, Note_on_c, 3, 72, 98
5, 1740476, Note_off_c, 3, 72, 64
5, 1740480, Note_on_c, 3, 69, 89
5, 1740556, Note_off_c, 3, 69, 64
5, 1740560, Note_on_c, 3, 66, 96
5, 1740636, Note_off_c, 3, 66, 64
5, 1740640, Note_on_c, 3, 69, 100
5, 1740716, Note_off_c, 3, 69, 64
5, 1740720, Note_on_c, 3, 67, 107
5, 1740796, Note_off_c, 3, 67, 64
5, 1740800, Note_on_c, 3, 66, 93
5, 1740876, Note_off_c, 3, 66, 64
5, 1740880, Note_on_c, 3, 67, 93
5, 1740956, Note_off_c, 3, 67, 64
5, 1740960, Note_on_c, 3, 71, 96
5, 1741036, Note_off_c, 3, 71, 64
5, 1741040, Note_on_c, 3, 69, 95
5, 1741116, Note_off_c, 3, 69, 64
5, 1741120, Note_on_c, 3, 71, 95
5, 1741196, Note_off_c, 3, 71, 64
5, 1741200, Note_on_c, 3, 64, 95
5, 1741276, Note_off_c, 3, 64, 64
5, 1741280, Note_on_c, 3, 63, 92
5, 1741356, Note_off_c, 3, 63, 64
5, 1741360, Note_on_c, 3, 64, 98
5, 1741436, Note_off_c, 3, 64, 64
5, 1741440, Note_on_c, 3, 67, 81
5, 1741516, Note_off_c, 3, 67, 64
5, 1741520, Note_on_c, 3, 71, 95
5, 1741596, Note_off_c, 3, 71, 64
5, 1741600, Note_on_c, 3, 73, 97
5, 1741676, Note_off_c, 3, 73, 64
5, 1741680, Note_on_c, 3, 74, 97
5, 1741756, Note_off_c, 3, 74, 64
5, 1741760, Note_on_c, 3, 73, 90
5, 1741836, Note_off_c, 3, 73, 64
5, 1741840, Note_on_c, 3, 74, 91
5, 1741916, Note_off_c, 3, 74, 64
5, 1741920, Note_on_c, 3, 71, 95
5, 1741996, Note_off_c, 3, 71, 64
5, 1742000, Note_on_c, 3, 67, 83
5, 1742076, Note_off_c, 3, 67, 64
5, 1742080, Note_on_c, 3, 71, 95
5, 1742156, Note_off_c, 3, 71, 64
5, 1742160, Note_on_c, 3, 73, 93
5, 1742236, Note_off_c, 3, 73, 64
5, 1742240, Note_on_c, 3, 71, 92
5, 1742316, Note_off_c, 3, 71, 64
5, 1742320, Note_on_c, 3, 73, 86
5, 1742396, Note_off_c, 3, 73, 64
5, 1742400, Note_on_c, 3, 76, 97
5, 1742476, Note_off_c, 3, 76, 64
5, 1742480, Note_on_c, 3, 74, 89
5, 1742556, Note_off_c, 3, 74, 64
5, 1742560, Note_on_c, 3, 76, 101
5, 1742636, Note_off_c, 3, 76, 64
5, 1742640, Note_on_c, 3, 69, 96
5, 1742716, Note_off_c, 3, 69, 64
5, 1742720, Note_on_c, 3, 68, 89
5, 1742796, Note_off_c, 3, 68, 64
5, 1742800, Note_on_c, 3, 69, 90
5, 1742876, Note_off_c, 3, 69, 64
5, 1742880, Note_on_c, 3, 73, 90
5, 1742956, Note_off_c, 3, 73, 64
5, 1742960, Note_on_c, 3, 76, 95
5, 1743036, Note_off_c, 3, 76, 64
5, 1743040, Note_on_c, 3, 78, 89
5, 1743116, Note_off_c, 3, 78, 64
5, 1743120, Note_on_c, 3, 79, 97
5, 1743196, Note_off_c, 3, 79, 64
5, 1743200, Note_on_c, 3, 78, 89
5, 1743276, Note_off_c, 3, 78, 64
5, 1743280, Note_on_c, 3, 79, 95
5, 1743356, Note_off_c, 3, 79, 64
5, 1743360, Note_on_c, 3, 76, 92
5, 1743436, Note_off_c, 3, 76, 64
5, 1743440, Note_on_c, 3, 73, 82
5, 1743516, Note_off_c, 3, 73, 64
5, 1743520, Note_on_c, 3, 76, 92
5, 1743596, Note_off_c, 3, 76, 64
5, 1743600, Note_on_c, 3, 78, 89
5, 1743676, Note_off_c, 3, 78, 64
5, 1743680, Note_on_c, 3, 76, 86
5, 1743756, Note_off_c, 3, 76, 64
5, 1743760, Note_on_c, 3, 78, 86
5, 1743836, Note_off_c, 3, 78, 64
5, 1743840, Note_on_c, 3, 81, 96
5, 1743916, Note_off_c, 3, 81, 64
5, 1743920, Note_on_c, 3, 79, 91
5, 1743996, Note_off_c, 3, 79, 64
5, 1744000, Note_on_c, 3, 81, 100
5, 1744076, Note_off_c, 3, 81, 64
5, 1744080, Note_on_c, 3, 74, 90
5, 1744156, Note_off_c, 3, 74, 64
5, 1744160, Note_on_c, 3, 73, 81
5, 1744236, Note_off_c, 3, 73, 64
5, 1744240, Note_on_c, 3, 74, 89
5, 1744316, Note_off_c, 3, 74, 64
5, 1744320, Note_on_c, 3, 78, 92
5, 1744396, Note_off_c, 3, 78, 64
5, 1744400, Note_on_c, 3, 81, 96
5, 1744476, Note_off_c, 3, 81, 64
5, 1744480, Note_on_c, 3, 85, 99
5, 1744556, Note_off_c, 3, 85, 64
5, 1744560, Note_on_c, 3, 86, 104
5, 1745036, Note_off_c, 3, 86, 64
5, 1745040, Note_on_c, 3, 81, 100
5, 1745116, Note_off_c, 3, 81, 64
5, 1745120, Note_on_c, 3, 79, 93
5, 1745196, Note_off_c, 3, 79, 64
5, 1745200, Note_on_c, 3, 81, 97
5, 1745276, Note_off_c, 3, 81, 64
5, 1745280, Note_on_c, 3, 86, 93
5, 1745356, Note_off_c, 3, 86, 64
5, 1745360, Note_on_c, 3, 84, 85
5, 1745436, Note_off_c, 3, 84, 64
5, 1745440, Note_on_c, 3, 83, 100
5, 1745516, Note_off_c, 3, 83, 64
5, 1745520, Note_on_c, 3, 81, 100
5, 1745596, Note_off_c, 3, 81, 64
5, 1745600, Note_on_c, 3, 83, 90
5, 1745676, Note_off_c, 3, 83, 64
5, 1745680, Note_on_c, 3, 81, 97
5, 1745756, Note_off_c, 3, 81, 64
5, 1745760, Note_on_c, 3, 79, 95
5, 1745836, Note_off_c, 3, 79, 64
5, 1745840, Note_on_c, 3, 81, 89
5, 1745916, Note_off_c, 3, 81, 64
5, 1745920, Note_on_c, 3, 79, 81
5, 1745996, Note_off_c, 3, 79, 64
5, 1746000, Note_on_c, 3, 78, 93
5, 1746076, Note_off_c, 3, 78, 64
5, 1746080, Note_on_c, 3, 79, 96
5, 1746156, Note_off_c, 3, 79, 64
5, 1746160, Note_on_c, 3, 78, 86
5, 1746236, Note_off_c, 3, 78, 64
5, 1746240, Note_on_c, 3, 76, 97
5, 1746316, Note_off_c, 3, 76, 64
5, 1746320, Note_on_c, 3, 78, 96
5, 1746396, Note_off_c, 3, 78, 64
5, 1746400, Note_on_c, 3, 76, 91
5, 1746476, Note_off_c, 3, 76, 64
5, 1746480, Note_on_c, 3, 74, 100
5, 1746556, Note_off_c, 3, 74, 64
5, 1746560, Note_on_c, 3, 72, 102
5, 1746636, Note_off_c, 3, 72, 64
5, 1746640, Note_on_c, 3, 74, 100
5, 1746716, Note_off_c, 3, 74, 64
5, 1746720, Note_on_c, 3, 79, 102
5, 1746796, Note_off_c, 3, 79, 64
5, 1746800, Note_on_c, 3, 78, 97
5, 1746876, Note_off_c, 3, 78, 64
5, 1746880, Note_on_c, 3, 76, 93
5, 1746956, Note_off_c, 3, 76, 64
5, 1746960, Note_on_c, 3, 74, 96
5, 1747036, Note_off_c, 3, 74, 64
5, 1747040, Note_on_c, 3, 76, 97
5, 1747116, Note_off_c, 3, 76, 64
5, 1747120, Note_on_c, 3, 74, 98
5, 1747196, Note_off_c, 3, 74, 64
5, 1747200, Note_on_c, 3, 72, 100
5, 1747276, Note_off_c, 3, 72, 64
5, 1747280, Note_on_c, 3, 74, 89
5, 1747356, Note_off_c, 3, 74, 64
5, 1747360, Note_on_c, 3, 72, 97
5, 1747436, Note_off_c, 3, 72, 64
5, 1747440, Note_on_c, 3, 71, 98
5, 1747516, Note_off_c, 3, 71, 64
5, 1747520, Note_on_c, 3, 72, 93
5, 1747596, Note_off_c, 3, 72, 64
5, 1747600, Note_on_c, 3, 71, 91
5, 1747676, Note_off_c, 3, 71, 64
5, 1747680, Note_on_c, 3, 69, 86
5, 1747756, Note_off_c, 3, 69, 64
5, 1747760, Note_on_c, 3, 71, 89
5, 1747836, Note_off_c, 3, 71, 64
5, 1747840, Note_on_c, 3, 69, 86
5, 1747916, Note_off_c, 3, 69, 64
5, 1747920, Note_on_c, 3, 67, 102
5, 1747996, Note_off_c, 3, 67, 64
5, 1748000, Note_on_c, 3, 66, 93
5, 1748076, Note_off_c, 3, 66, 64
5, 1748080, Note_on_c, 3, 67, 98
5, 1748156, Note_off_c, 3, 67, 64
5, 1748160, Note_on_c, 3, 71, 98
5, 1748236, Note_off_c, 3, 71, 64
5, 1748240, Note_on_c, 3, 69, 84
5, 1748316, Note_off_c, 3, 69, 64
5, 1748320, Note_on_c, 3, 67, 96
5, 1748396, Note_off_c, 3, 67, 64
5, 1748400, Note_on_c, 3, 66, 92
5, 1748476, Note_off_c, 3, 66, 64
5, 1748480, Note_on_c, 3, 67, 91
5, 1748556, Note_off_c, 3, 67, 64
5, 1748560, Note_on_c, 3, 66, 89
5, 1748636, Note_off_c, 3, 66, 64
5, 1748640, Note_on_c, 3, 64, 85
5, 1748716, Note_off_c, 3, 64, 64
5, 1748720, Note_on_c, 3, 66, 85
5, 1748796, Note_off_c, 3, 66, 64
5, 1748800, Note_on_c, 3, 64, 89
5, 1748876, Note_off_c, 3, 64, 64
5, 1748880, Note_on_c, 3, 63, 97
5, 1748956, Note_off_c, 3, 63, 64
5, 1748960, Note_on_c, 3, 64, 100
5, 1749036, Note_off_c, 3, 64, 64
5, 1749040, Note_on_c, 3, 63, 86
5, 1749116, Note_off_c, 3, 63, 64
5, 1749120, Note_on_c, 3, 61, 97
5, 1749196, Note_off_c, 3, 61, 64
5, 1749200, Note_on_c, 3, 63, 101
5, 1749276, Note_off_c, 3, 63, 64
5, 1749280, Note_on_c, 3, 61, 99
5, 1749356, Note_off_c, 3, 61, 64
5, 1749360, Note_on_c, 3, 59, 90
5, 1749436, Note_off_c, 3, 59, 64
5, 1749440, Note_on_c, 3, 58, 93
5, 1749516, Note_off_c, 3, 58, 64
5, 1749520, Note_on_c, 3, 59, 93
5, 1749596, Note_off_c, 3, 59, 64
5, 1749600, Note_on_c, 3, 64, 96
5, 1749676, Note_off_c, 3, 64, 64
5, 1749680, Note_on_c, 3, 63, 97
5, 1749756, Note_off_c, 3, 63, 64
5, 1749760, Note_on_c, 3, 61, 99
5, 1749836, Note_off_c, 3, 61, 64
5, 1749840, Note_on_c, 3, 59, 70
5, 1749916, Note_off_c, 3, 59, 64
5, 1749920, Note_on_c, 3, 60, 101
5, 1749996, Note_off_c, 3, 60, 64
5, 1750000, Note_on_c, 3, 59, 92
5, 1750076, Note_off_c, 3, 59, 64
5, 1750080, Note_on_c, 3, 57, 93
5, 1750156, Note_off_c, 3, 57, 64
5, 1750160, Note_on_c, 3, 59, 96
5, 1750236, Note_off_c, 3, 59, 64
5, 1750240, Note_on_c, 3, 57, 91
5, 1750316, Note_off_c, 3, 57, 64
5, 1750320, Note_on_c, 3, 55, 88
5, 1750396, Note_off_c, 3, 55, 64
5, 1750400, Note_on_c, 3, 57, 97
5, 1750476, Note_off_c, 3, 57, 64
5, 1750480, Note_on_c, 3, 55, 88
5, 1750556, Note_off_c, 3, 55, 64
5, 1750560, Note_on_c, 3, 54, 90
5, 1750636, Note_off_c, 3, 54, 64
5, 1750640, Note_on_c, 3, 55, 93
5, 1750716, Note_off_c, 3, 55, 64
5, 1750720, Note_on_c, 3, 54, 96
5, 1750796, Note_off_c, 3, 54, 64
5, 1750800, Note_on_c, 3, 52, 89
5, 1750876, Note_off_c, 3, 52, 64
5, 1750880, Note_on_c, 3, 51, 90
5, 1750956, Note_off_c, 3, 51, 64
5, 1750960, Note_on_c, 3, 52, 92
5, 1751036, Note_off_c, 3, 52, 64
5, 1751040, Note_on_c, 3, 59, 98
5, 1751116, Note_off_c, 3, 59, 64
5, 1751120, Note_on_c, 3, 57, 88
5, 1751196, Note_off_c, 3, 57, 64
5, 1751200, Note_on_c, 3, 59, 98
5, 1751276, Note_off_c, 3, 59, 64
5, 1751280, Note_on_c, 3, 55, 95
5, 1751356, Note_off_c, 3, 55, 64
5, 1751360, Note_on_c, 3, 54, 93
5, 1751436, Note_off_c, 3, 54, 64
5, 1751440, Note_on_c, 3, 55, 95
5, 1751516, Note_off_c, 3, 55, 64
5, 1751520, Note_on_c, 3, 59, 96
5, 1751596, Note_off_c, 3, 59, 64
5, 1751600, Note_on_c, 3, 64, 96
5, 1751676, Note_off_c, 3, 64, 64
5, 1751680, Note_on_c, 3, 66, 89
5, 1751756, Note_off_c, 3, 66, 64
5, 1751760, Note_on_c, 3, 67, 98
5, 1751836, Note_off_c, 3, 67, 64
5, 1751840, Note_on_c, 3, 66, 96
5, 1751916, Note_off_c, 3, 66, 64
5, 1751920, Note_on_c, 3, 67, 98
5, 1751996, Note_off_c, 3, 67, 64
5, 1752000, Note_on_c, 3, 64, 101
5, 1752076, Note_off_c, 3, 64, 64
5, 1752080, Note_on_c, 3, 63, 97
5, 1752156, Note_off_c, 3, 63, 64
5, 1752160, Note_on_c, 3, 64, 107
5, 1752236, Note_off_c, 3, 64, 64
5, 1752240, Note_on_c, 3, 60, 95
5, 1752316, Note_off_c, 3, 60, 64
5, 1752320, Note_on_c, 3, 59, 89
5, 1752396, Note_off_c, 3, 59, 64
5, 1752400, Note_on_c, 3, 60, 90
5, 1752476, Note_off_c, 3, 60, 64
5, 1752480, Note_on_c, 3, 64, 98
5, 1752556, Note_off_c, 3, 64, 64
5, 1752560, Note_on_c, 3, 62, 93
5, 1752636, Note_off_c, 3, 62, 64
5, 1752640, Note_on_c, 3, 64, 101
5, 1752716, Note_off_c, 3, 64, 64
5, 1752720, Note_on_c, 3, 57, 95
5, 1752796, Note_off_c, 3, 57, 64
5, 1752800, Note_on_c, 3, 56, 88
5, 1752876, Note_off_c, 3, 56, 64
5, 1752880, Note_on_c, 3, 57, 100
5, 1752956, Note_off_c, 3, 57, 64
5, 1752960, Note_on_c, 3, 60, 91
5, 1753036, Note_off_c, 3, 60, 64
5, 1753040, Note_on_c, 3, 65, 98
5, 1753116, Note_off_c, 3, 65, 64
5, 1753120, Note_on_c, 3, 69, 100
5, 1753196, Note_off_c, 3, 69, 64
5, 1753200, Note_on_c, 3, 72, 107
5, 1753276, Note_off_c, 3, 72, 64
5, 1753280, Note_on_c, 3, 71, 95
5, 1753356, Note_off_c, 3, 71, 64
5, 1753360, Note_on_c, 3, 72, 104
5, 1753436, Note_off_c, 3, 72, 64
5, 1753440, Note_on_c, 3, 69, 91
5, 1753516, Note_off_c, 3, 69, 64
5, 1753520, Note_on_c, 3, 65, 102
5, 1753596, Note_off_c, 3, 65, 64
5, 1753600, Note_on_c, 3, 69, 101
5, 1753676, Note_off_c, 3, 69, 64
5, 1753680, Note_on_c, 3, 63, 96
5, 1753756, Note_off_c, 3, 63, 64
5, 1753760, Note_on_c, 3, 61, 97
5, 1753836, Note_off_c, 3, 61, 64
5, 1753840, Note_on_c, 3, 63, 110
5, 1753916, Note_off_c, 3, 63, 64
5, 1753920, Note_on_c, 3, 66, 99
5, 1753996, Note_off_c, 3, 66, 64
5, 1754000, Note_on_c, 3, 64, 100
5, 1754076, Note_off_c, 3, 64, 64
5, 1754080, Note_on_c, 3, 66, 101
5, 1754156, Note_off_c, 3, 66, 64
5, 1754160, Note_on_c, 3, 59, 98
5, 1754236, Note_off_c, 3, 59, 64
5, 1754240, Note_on_c, 3, 58, 97
5, 1754316, Note_off_c, 3, 58, 64
5, 1754320, Note_on_c, 3, 59, 102
5, 1754396, Note_off_c, 3, 59, 64
5, 1754400, Note_on_c, 3, 63, 106
5, 1754476, Note_off_c, 3, 63, 64
5, 1754480, Note_on_c, 3, 66, 99
5, 1754556, Note_off_c, 3, 66, 64
5, 1754560, Note_on_c, 3, 67, 96
5, 1754636, Note_off_c, 3, 67, 64
5, 1754640, Note_on_c, 3, 69, 98
5, 1754716, Note_off_c, 3, 69, 64
5, 1754720, Note_on_c, 3, 67, 90
5, 1754796, Note_off_c, 3, 67, 64
5, 1754800, Note_on_c, 3, 69, 93
5, 1754876, Note_off_c, 3, 69, 64
5, 1754880, Note_on_c, 3, 66, 101
5, 1754956, Note_off_c, 3, 66, 64
5, 1754960, Note_on_c, 3, 63, 104
5, 1755036, Note_off_c, 3, 63, 64
5, 1755040, Note_on_c, 3, 66, 106
5, 1755116, Note_off_c, 3, 66, 64
5, 1755120, Note_on_c, 3, 67, 104
5, 1755196, Note_off_c, 3, 67, 64
5, 1755200, Note_on_c, 3, 66, 96
5, 1755276, Note_off_c, 3, 66, 64
5, 1755280, Note_on_c, 3, 67, 97
5, 1755356, Note_off_c, 3, 67, 64
5, 1755360, Note_on_c, 3, 71, 107
5, 1755436, Note_off_c, 3, 71, 64
5, 1755440, Note_on_c, 3, 69, 90
5, 1755516, Note_off_c, 3, 69, 64
5, 1755520, Note_on_c, 3, 71, 106
5, 1755596, Note_off_c, 3, 71, 64
5, 1755600, Note_on_c, 3, 64, 98
5, 1755676, Note_off_c, 3, 64, 64
5, 1755680, Note_on_c, 3, 63, 102
5, 1755756, Note_off_c, 3, 63, 64
5, 1755760, Note_on_c, 3, 64, 102
5, 1755836, Note_off_c, 3, 64, 64
5, 1755840, Note_on_c, 3, 67, 96
5, 1755916, Note_off_c, 3, 67, 64
5, 1755920, Note_on_c, 3, 71, 97
5, 1755996, Note_off_c, 3, 71, 64
5, 1756000, Note_on_c, 3, 75, 108
5, 1756076, Note_off_c, 3, 75, 64
5, 1756080, Note_on_c, 3, 76, 102
5, 1756156, Note_off_c, 3, 76, 64
5, 1756160, Note_on_c, 3, 72, 102
5, 1756236, Note_off_c, 3, 72, 64
5, 1756240, Note_on_c, 3, 71, 93
5, 1756316, Note_off_c, 3, 71, 64
5, 1756320, Note_on_c, 3, 69, 96
5, 1756396, Note_off_c, 3, 69, 64
5, 1756400, Note_on_c, 3, 67, 90
5, 1756476, Note_off_c, 3, 67, 64
5, 1756480, Note_on_c, 3, 66, 108
5, 1756556, Note_off_c, 3, 66, 64
5, 1756560, Note_on_c, 3, 60, 102
5, 1756636, Note_off_c, 3, 60, 64
5, 1756640, Note_on_c, 3, 59, 92
5, 1756716, Note_off_c, 3, 59, 64
5, 1756720, Note_on_c, 3, 60, 98
5, 1756796, Note_off_c, 3, 60, 64
5, 1756800, Note_on_c, 3, 65, 106
5, 1756876, Note_off_c, 3, 65, 64
5, 1756880, Note_on_c, 3, 64, 95
5, 1756956, Note_off_c, 3, 64, 64
5, 1756960, Note_on_c, 3, 62, 89
5, 1757036, Note_off_c, 3, 62, 64
5, 1757040, Note_on_c, 3, 60, 91
5, 1757116, Note_off_c, 3, 60, 64
5, 1757120, Note_on_c, 3, 62, 88
5, 1757196, Note_off_c, 3, 62, 64
5, 1757200, Note_on_c, 3, 60, 98
5, 1757276, Note_off_c, 3, 60, 64
5, 1757280, Note_on_c, 3, 59, 89
5, 1757356, Note_off_c, 3, 59, 64
5, 1757360, Note_on_c, 3, 60, 96
5, 1757436, Note_off_c, 3, 60, 64
5, 1757440, Note_on_c, 3, 59, 90
5, 1757516, Note_off_c, 3, 59, 64
5, 1757520, Note_on_c, 3, 57, 81
5, 1757596, Note_off_c, 3, 57, 64
5, 1757600, Note_on_c, 3, 59, 92
5, 1757676, Note_off_c, 3, 59, 64
5, 1757680, Note_on_c, 3, 57, 82
5, 1757756, Note_off_c, 3, 57, 64
5, 1757760, Note_on_c, 3, 55, 81
5, 1757836, Note_off_c, 3, 55, 64
5, 1757840, Note_on_c, 3, 57, 91
5, 1757916, Note_off_c, 3, 57, 64
5, 1757920, Note_on_c, 3, 54, 102
5, 1757996, Note_off_c, 3, 54, 64
5, 1758000, Note_on_c, 3, 59, 97
5, 1758076, Note_off_c, 3, 59, 64
5, 1758080, Note_on_c, 3, 57, 97
5, 1758156, Note_off_c, 3, 57, 64
5, 1758160, Note_on_c, 3, 59, 91
5, 1758236, Note_off_c, 3, 59, 64
5, 1758240, Note_on_c, 3, 64, 106
5, 1758316, Note_off_c, 3, 64, 64
5, 1758320, Note_on_c, 3, 62, 86
5, 1758396, Note_off_c, 3, 62, 64
5, 1758400, Note_on_c, 3, 60, 95
5, 1758476, Note_off_c, 3, 60, 64
5, 1758480, Note_on_c, 3, 59, 92
5, 1758556, Note_off_c, 3, 59, 64
5, 1758560, Note_on_c, 3, 60, 93
5, 1758636, Note_off_c, 3, 60, 64
5, 1758640, Note_on_c, 3, 59, 92
5, 1758716, Note_off_c, 3, 59, 64
5, 1758720, Note_on_c, 3, 57, 93
5, 1758796, Note_off_c, 3, 57, 64
5, 1758800, Note_on_c, 3, 59, 97
5, 1758876, Note_off_c, 3, 59, 64
5, 1758880, Note_on_c, 3, 57, 90
5, 1758956, Note_off_c, 3, 57, 64
5, 1758960, Note_on_c, 3, 55, 89
5, 1759036, Note_off_c, 3, 55, 64
5, 1759040, Note_on_c, 3, 57, 100
5, 1759116, Note_off_c, 3, 57, 64
5, 1759120, Note_on_c, 3, 55, 89
5, 1759196, Note_off_c, 3, 55, 64
5, 1759200, Note_on_c, 3, 54, 99
5, 1759276, Note_off_c, 3, 54, 64
5, 1759280, Note_on_c, 3, 55, 90
5, 1759356, Note_off_c, 3, 55, 64
5, 1759360, Note_on_c, 3, 52, 101
5, 1759436, Note_off_c, 3, 52, 64
5, 1759440, Note_on_c, 3, 57, 104
5, 1759516, Note_off_c, 3, 57, 64
5, 1759520, Note_on_c, 3, 55, 95
5, 1759596, Note_off_c, 3, 55, 64
5, 1759600, Note_on_c, 3, 57, 92
5, 1759676, Note_off_c, 3, 57, 64
5, 1759680, Note_on_c, 3, 62, 100
5, 1759756, Note_off_c, 3, 62, 64
5, 1759760, Note_on_c, 3, 60, 92
5, 1759836, Note_off_c, 3, 60, 64
5, 1759840, Note_on_c, 3, 59, 95
5, 1759916, Note_off_c, 3, 59, 64
5, 1759920, Note_on_c, 3, 57, 89
5, 1759996, Note_off_c, 3, 57, 64
5, 1760000, Note_on_c, 3, 59, 95
5, 1760076, Note_off_c, 3, 59, 64
5, 1760080, Note_on_c, 3, 57, 86
5, 1760156, Note_off_c, 3, 57, 64
5, 1760160, Note_on_c, 3, 55, 85
5, 1760236, Note_off_c, 3, 55, 64
5, 1760240, Note_on_c, 3, 57, 95
5, 1760316, Note_off_c, 3, 57, 64
5, 1760320, Note_on_c, 3, 55, 76
5, 1760396, Note_off_c, 3, 55, 64
5, 1760400, Note_on_c, 3, 54, 102
5, 1760476, Note_off_c, 3, 54, 64
5, 1760480, Note_on_c, 3, 55, 92
5, 1760556, Note_off_c, 3, 55, 64
5, 1760560, Note_on_c, 3, 54, 94
5, 1760636, Note_off_c, 3, 54, 64
5, 1760640, Note_on_c, 3, 52, 93
5, 1760716, Note_off_c, 3, 52, 64
5, 1760720, Note_on_c, 3, 54, 94
5, 1760796, Note_off_c, 3, 54, 64
5, 1760800, Note_on_c, 3, 52, 93
5, 1760876, Note_off_c, 3, 52, 64
5, 1760880, Note_on_c, 3, 50, 85
5, 1760956, Note_off_c, 3, 50, 64
5, 1760960, Note_on_c, 3, 49, 88
5, 1761036, Note_off_c, 3, 49, 64
5, 1761040, Note_on_c, 3, 50, 82
5, 1761116, Note_off_c, 3, 50, 64
5, 1761120, Note_on_c, 3, 55, 95
5, 1761196, Note_off_c, 3, 55, 64
5, 1761200, Note_on_c, 3, 54, 85
5, 1761276, Note_off_c, 3, 54, 64
5, 1761280, Note_on_c, 3, 52, 93
5, 1761356, Note_off_c, 3, 52, 64
5, 1761360, Note_on_c, 3, 50, 89
5, 1761436, Note_off_c, 3, 50, 64
5, 1761440, Note_on_c, 3, 52, 97
5, 1761516, Note_off_c, 3, 52, 64
5, 1761520, Note_on_c, 3, 50, 90
5, 1761596, Note_off_c, 3, 50, 64
5, 1761600, Note_on_c, 3, 48, 91
5, 1761676, Note_off_c, 3, 48, 64
5, 1761680, Note_on_c, 3, 50, 91
5, 1761756, Note_off_c, 3, 50, 64
5, 1761760, Note_on_c, 3, 48, 93
5, 1761836, Note_off_c, 3, 48, 64
5, 1761840, Note_on_c, 3, 47, 96
5, 1761916, Note_off_c, 3, 47, 64
5, 1761920, Note_on_c, 3, 48, 95
5, 1761996, Note_off_c, 3, 48, 64
5, 1762000, Note_on_c, 3, 47, 89
5, 1762076, Note_off_c, 3, 47, 64
5, 1762080, Note_on_c, 3, 45, 82
5, 1762156, Note_off_c, 3, 45, 64
5, 1762160, Note_on_c, 3, 47, 89
5, 1762236, Note_off_c, 3, 47, 64
5, 1762240, Note_on_c, 3, 45, 88
5, 1762316, Note_off_c, 3, 45, 64
5, 1762320, Note_on_c, 3, 43, 86
5, 1762396, Note_off_c, 3, 43, 64
5, 1762400, Note_on_c, 3, 42, 93
5, 1762476, Note_off_c, 3, 42, 64
5, 1762480, Note_on_c, 3, 43, 82
5, 1762556, Note_off_c, 3, 43, 64
5, 1762560, Note_on_c, 3, 48, 91
5, 1762636, Note_off_c, 3, 48, 64
5, 1762640, Note_on_c, 3, 47, 91
5, 1762716, Note_off_c, 3, 47, 64
5, 1762720, Note_on_c, 3, 45, 85
5, 1762796, Note_off_c, 3, 45, 64
5, 1762800, Note_on_c, 3, 43, 84
5, 1762876, Note_off_c, 3, 43, 64
5, 1762880, Note_on_c, 3, 45, 86
5, 1762956, Note_off_c, 3, 45, 64
5, 1762960, Note_on_c, 3, 43, 88
5, 1763036, Note_off_c, 3, 43, 64
5, 1763040, Note_on_c, 3, 41, 92
5, 1763116, Note_off_c, 3, 41, 64
5, 1763120, Note_on_c, 3, 43, 90
5, 1763196, Note_off_c, 3, 43, 64
5, 1763200, Note_on_c, 3, 41, 90
5, 1763276, Note_off_c, 3, 41, 64
5, 1763280, Note_on_c, 3, 40, 100
5, 1763356, Note_off_c, 3, 40, 64
5, 1763360, Note_on_c, 3, 41, 107
5, 1763436, Note_off_c, 3, 41, 64
5, 1763440, Note_on_c, 3, 40, 106
5, 1763516, Note_off_c, 3, 40, 64
5, 1763520, Note_on_c, 3, 38, 101
5, 1763596, Note_off_c, 3, 38, 64
5, 1763600, Note_on_c, 3, 40, 102
5, 1763676, Note_off_c, 3, 40, 64
5, 1763680, Note_on_c, 3, 38, 104
5, 1763756, Note_off_c, 3, 38, 64
5, 1763760, Note_on_c, 3, 36, 127
5, 1763996, Note_off_c, 3, 36, 64
5, 1764000, Note_on_c, 3, 43, 109
5, 1764076, Note_off_c, 3, 43, 64
5, 1764080, Note_on_c, 3, 45, 101
5, 1764156, Note_off_c, 3, 45, 64
5, 1764160, Note_on_c, 3, 47, 107
5, 1764236, Note_off_c, 3, 47, 64
5, 1764240, Note_on_c, 3, 48, 111
5, 1764316, Note_off_c, 3, 48, 64
5, 1764320, Note_on_c, 3, 47, 107
5, 1764396, Note_off_c, 3, 47, 64
5, 1764400, Note_on_c, 3, 48, 98
5, 1764476, Note_off_c, 3, 48, 64
5, 1764480, Note_on_c, 3, 50, 104
5, 1764556, Note_off_c, 3, 50, 64
5, 1764560, Note_on_c, 3, 48, 96
5, 1764636, Note_off_c, 3, 48, 64
5, 1764640, Note_on_c, 3, 50, 107
5, 1764716, Note_off_c, 3, 50, 64
5, 1764720, Note_on_c, 3, 52, 107
5, 1764796, Note_off_c, 3, 52, 64
5, 1764800, Note_on_c, 3, 50, 91
5, 1764876, Note_off_c, 3, 50, 64
5, 1764880, Note_on_c, 3, 48, 97
5, 1764956, Note_off_c, 3, 48, 64
5, 1764960, Note_on_c, 3, 47, 98
5, 1765036, Note_off_c, 3, 47, 64
5, 1765040, Note_on_c, 3, 45, 90
5, 1765116, Note_off_c, 3, 45, 64
5, 1765120, Note_on_c, 3, 43, 90
5, 1765196, Note_off_c, 3, 43, 64
5, 1765200, Note_on_c, 3, 42, 104
5, 1765276, Note_off_c, 3, 42, 64
5, 1765280, Note_on_c, 3, 40, 93
5, 1765356, Note_off_c, 3, 40, 64
5, 1765360, Note_on_c, 3, 42, 102
5, 1765436, Note_off_c, 3, 42, 64
5, 1765440, Note_on_c, 3, 38, 91
5, 1765516, Note_off_c, 3, 38, 64
5, 1765520, Note_on_c, 3, 40, 102
5, 1765596, Note_off_c, 3, 40, 64
5, 1765600, Note_on_c, 3, 42, 89
5, 1765676, Note_off_c, 3, 42, 64
5, 1765680, Note_on_c, 3, 43, 102
5, 1765756, Note_off_c, 3, 43, 64
5, 1765760, Note_on_c, 3, 42, 90
5, 1765836, Note_off_c, 3, 42, 64
5, 1765840, Note_on_c, 3, 43, 86
5, 1765916, Note_off_c, 3, 43, 64
5, 1765920, Note_on_c, 3, 45, 100
5, 1765996, Note_off_c, 3, 45, 64
5, 1766000, Note_on_c, 3, 47, 101
5, 1766076, Note_off_c, 3, 47, 64
5, 1766080, Note_on_c, 3, 48, 96
5, 1766156, Note_off_c, 3, 48, 64
5, 1766160, Note_on_c, 3, 50, 97
5, 1766236, Note_off_c, 3, 50, 64
5, 1766240, Note_on_c, 3, 49, 101
5, 1766316, Note_off_c, 3, 49, 64
5, 1766320, Note_on_c, 3, 50, 96
5, 1766396, Note_off_c, 3, 50, 64
5, 1766400, Note_on_c, 3, 52, 98
5, 1766476, Note_off_c, 3, 52, 64
5, 1766480, Note_on_c, 3, 54, 97
5, 1766556, Note_off_c, 3, 54, 64
5, 1766560, Note_on_c, 3, 50, 83
5, 1766636, Note_off_c, 3, 50, 64
5, 1766640, Note_on_c, 3, 55, 117
5, 1767116, Note_off_c, 3, 55, 64
5, 1767200, Note_on_c, 3, 57, 104
5, 1767276, Note_off_c, 3, 57, 64
5, 1767280, Note_on_c, 3, 55, 106
5, 1767356, Note_off_c, 3, 55, 64
5, 1767360, Note_on_c, 3, 54, 110
5, 1767436, Note_off_c, 3, 54, 64
5, 1767440, Note_on_c, 3, 55, 104
5, 1767516, Note_off_c, 3, 55, 64
5, 1767520, Note_on_c, 3, 50, 111
5, 1767596, Note_off_c, 3, 50, 64
5, 1767600, Note_on_c, 3, 43, 124
5, 1768076, Note_off_c, 3, 43, 64
5, 1768080, Note_on_c, 3, 55, 117
5, 1768316, Note_off_c, 3, 55, 64
5, 1768320, Note_on_c, 3, 57, 107
5, 1768436, Note_off_c, 3, 57, 64
5, 1768440, Note_on_c, 3, 59, 104
5, 1768556, Note_off_c, 3, 59, 64
5, 1768560, Note_on_c, 3, 60, 97
5, 1768676, Note_off_c, 3, 60, 64
5, 1768680, Note_on_c, 3, 62, 101
5, 1768796, Note_off_c, 3, 62, 64
5, 1768800, Note_on_c, 3, 64, 101
5, 1768916, Note_off_c, 3, 64, 64
5, 1768920, Note_on_c, 3, 62, 102
5, 1769036, Note_off_c, 3, 62, 64
5, 1769040, Note_on_c, 3, 60, 102
5, 1769156, Note_off_c, 3, 60, 64
5, 1769160, Note_on_c, 3, 62, 96
5, 1769276, Note_off_c, 3, 62, 64
5, 1769280, Note_on_c, 3, 64, 101
5, 1769516, Note_off_c, 3, 64, 64
5, 1769520, Note_on_c, 3, 54, 115
5, 1769760, Note_off_c, 3, 54, 64
5, 1770240, Note_on_c, 3, 62, 109
5, 1770476, Note_off_c, 3, 62, 64
5, 1770960, Note_on_c, 3, 52, 113
5, 1771196, Note_off_c, 3, 52, 64
5, 1771200, Note_on_c, 3, 54, 104
5, 1771316, Note_off_c, 3, 54, 64
5, 1771320, Note_on_c, 3, 55, 100
5, 1771436, Note_off_c, 3, 55, 64
5, 1771440, Note_on_c, 3, 57, 90
5, 1771556, Note_off_c, 3, 57, 64
5, 1771560, Note_on_c, 3, 59, 97
5, 1771676, Note_off_c, 3, 59, 64
5, 1771680, Note_on_c, 3, 60, 93
5, 1771796, Note_off_c, 3, 60, 64
5, 1771800, Note_on_c, 3, 59, 95
5, 1771916, Note_off_c, 3, 59, 64
5, 1771920, Note_on_c, 3, 57, 89
5, 1772036, Note_off_c, 3, 57, 64
5, 1772040, Note_on_c, 3, 59, 91
5, 1772156, Note_off_c, 3, 59, 64
5, 1772160, Note_on_c, 3, 60, 101
5, 1772396, Note_off_c, 3, 60, 64
5, 1772400, Note_on_c, 3, 60, 107
5, 1772756, Note_off_c, 3, 60, 64
5, 1773120, Note_on_c, 3, 54, 112
5, 1773356, Note_off_c, 3, 54, 64
5, 1773840, Note_on_c, 3, 59, 104
5, 1773956, Note_off_c, 3, 59, 64
5, 1773960, Note_on_c, 3, 60, 92
5, 1774076, Note_off_c, 3, 60, 64
5, 1774080, Note_on_c, 3, 59, 100
5, 1774196, Note_off_c, 3, 59, 64
5, 1774200, Note_on_c, 3, 57, 92
5, 1774316, Note_off_c, 3, 57, 64
5, 1774320, Note_on_c, 3, 55, 84
5, 1774436, Note_off_c, 3, 55, 64
5, 1774440, Note_on_c, 3, 54, 89
5, 1774556, Note_off_c, 3, 54, 64
5, 1774560, Note_on_c, 3, 52, 82
5, 1774676, Note_off_c, 3, 52, 64
5, 1774680, Note_on_c, 3, 55, 92
5, 1774796, Note_off_c, 3, 55, 64
5, 1774800, Note_on_c, 3, 59, 96
5, 1774916, Note_off_c, 3, 59, 64
5, 1774920, Note_on_c, 3, 62, 81
5, 1775036, Note_off_c, 3, 62, 64
5, 1775040, Note_on_c, 3, 60, 90
5, 1775156, Note_off_c, 3, 60, 64
5, 1775160, Note_on_c, 3, 59, 98
5, 1775276, Note_off_c, 3, 59, 64
5, 1775280, Note_on_c, 3, 57, 73
5, 1775396, Note_off_c, 3, 57, 64
5, 1775400, Note_on_c, 3, 59, 83
5, 1775516, Note_off_c, 3, 59, 64
5, 1775520, Note_on_c, 3, 57, 93
5, 1775636, Note_off_c, 3, 57, 64
5, 1775640, Note_on_c, 3, 55, 89
5, 1775756, Note_off_c, 3, 55, 64
5, 1775760, Note_on_c, 3, 54, 102
5, 1775876, Note_off_c, 3, 54, 64
5, 1775880, Note_on_c, 3, 52, 96
5, 1775996, Note_off_c, 3, 52, 64
5, 1776000, Note_on_c, 3, 50, 88
5, 1776116, Note_off_c, 3, 50, 64
5, 1776120, Note_on_c, 3, 54, 93
5, 1776236, Note_off_c, 3, 54, 64
5, 1776240, Note_on_c, 3, 57, 92
5, 1776356, Note_off_c, 3, 57, 64
5, 1776360, Note_on_c, 3, 60, 104
5, 1776476, Note_off_c, 3, 60, 64
5, 1776480, Note_on_c, 3, 59, 93
5, 1776596, Note_off_c, 3, 59, 64
5, 1776600, Note_on_c, 3, 57, 89
5, 1776716, Note_off_c, 3, 57, 64
5, 1776720, Note_on_c, 3, 55, 93
5, 1776956, Note_off_c, 3, 55, 64
5, 1776960, Note_on_c, 3, 57, 101
5, 1777020, Note_off_c, 3, 57, 64
5, 1777020, Note_on_c, 3, 55, 91
5, 1777080, Note_off_c, 3, 55, 64
5, 1777080, Note_on_c, 3, 54, 104
5, 1777140, Note_off_c, 3, 54, 64
5, 1777140, Note_on_c, 3, 55, 96
5, 1777200, Note_off_c, 3, 55, 64
5, 1777200, Note_on_c, 3, 57, 106
5, 1777436, Note_off_c, 3, 57, 64
5, 1777440, Note_on_c, 3, 48, 111
5, 1777676, Note_off_c, 3, 48, 64
5, 1777680, Note_on_c, 3, 60, 117
5, 1778276, Note_off_c, 3, 60, 64
5, 1778280, Note_on_c, 3, 64, 104
5, 1778396, Note_off_c, 3, 64, 64
5, 1778400, Note_on_c, 3, 62, 95
5, 1778516, Note_off_c, 3, 62, 64
5, 1778520, Note_on_c, 3, 60, 101
5, 1778636, Note_off_c, 3, 60, 64
5, 1778640, Note_on_c, 3, 59, 100
5, 1778756, Note_off_c, 3, 59, 64
5, 1778760, Note_on_c, 3, 57, 93
5, 1778876, Note_off_c, 3, 57, 64
5, 1778880, Note_on_c, 3, 59, 96
5, 1778996, Note_off_c, 3, 59, 64
5, 1779000, Note_on_c, 3, 60, 95
5, 1779116, Note_off_c, 3, 60, 64
5, 1779120, Note_on_c, 3, 62, 93
5, 1779236, Note_off_c, 3, 62, 64
5, 1779240, Note_on_c, 3, 59, 96
5, 1779356, Note_off_c, 3, 59, 64
5, 1779360, Note_on_c, 3, 60, 101
5, 1779476, Note_off_c, 3, 60, 64
5, 1779480, Note_on_c, 3, 62, 100
5, 1779596, Note_off_c, 3, 62, 64
5, 1779600, Note_on_c, 3, 57, 100
5, 1779660, Note_off_c, 3, 57, 64
5, 1779660, Note_on_c, 3, 55, 100
5, 1779720, Note_off_c, 3, 55, 64
5, 1779720, Note_on_c, 3, 54, 67
5, 1779780, Note_off_c, 3, 54, 64
5, 1779780, Note_on_c, 3, 55, 67
5, 1779840, Note_off_c, 3, 55, 64
5, 1779840, Note_on_c, 3, 57, 82
5, 1779900, Note_off_c, 3, 57, 64
5, 1779900, Note_on_c, 3, 55, 64
5, 1779960, Note_off_c, 3, 55, 64
5, 1779960, Note_on_c, 3, 57, 77
5, 1780020, Note_off_c, 3, 57, 64
5, 1780020, Note_on_c, 3, 55, 60
5, 1780080, Note_off_c, 3, 55, 64
5, 1780080, Note_on_c, 3, 57, 85
5, 1780140, Note_off_c, 3, 57, 64
5, 1780140, Note_on_c, 3, 55, 63
5, 1780200, Note_off_c, 3, 55, 64
5, 1780200, Note_on_c, 3, 57, 81
5, 1780260, Note_off_c, 3, 57, 64
5, 1780260, Note_on_c, 3, 55, 56
5, 1780320, Note_off_c, 3, 55, 64
5, 1780320, Note_on_c, 3, 57, 81
5, 1780380, Note_off_c, 3, 57, 64
5, 1780380, Note_on_c, 3, 55, 62
5, 1780440, Note_off_c, 3, 55, 64
5, 1780440, Note_on_c, 3, 57, 82
5, 1780500, Note_off_c, 3, 57, 64
5, 1780500, Note_on_c, 3, 55, 59
5, 1780560, Note_off_c, 3, 55, 64
5, 1780560, Note_on_c, 3, 57, 78
5, 1780620, Note_off_c, 3, 57, 64
5, 1780620, Note_on_c, 3, 55, 51
5, 1780680, Note_off_c, 3, 55, 64
5, 1780680, Note_on_c, 3, 57, 83
5, 1780740, Note_off_c, 3, 57, 64
5, 1780740, Note_on_c, 3, 55, 63
5, 1780800, Note_off_c, 3, 55, 64
5, 1780800, Note_on_c, 3, 57, 81
5, 1780860, Note_off_c, 3, 57, 64
5, 1780860, Note_on_c, 3, 55, 67
5, 1780920, Note_off_c, 3, 55, 64
5, 1780920, Note_on_c, 3, 57, 71
5, 1780980, Note_off_c, 3, 57, 64
5, 1780980, Note_on_c, 3, 55, 63
5, 1781040, Note_off_c, 3, 55, 64
5, 1781040, Note_on_c, 3, 54, 63
5, 1781160, Note_off_c, 3, 54, 64
5, 1781160, Note_on_c, 3, 55, 86
5, 1781276, Note_off_c, 3, 55, 64
5, 1781280, Note_on_c, 3, 54, 96
5, 1781396, Note_off_c, 3, 54, 64
5, 1781400, Note_on_c, 3, 52, 95
5, 1781516, Note_off_c, 3, 52, 64
5, 1781520, Note_on_c, 3, 50, 89
5, 1781636, Note_off_c, 3, 50, 64
5, 1781640, Note_on_c, 3, 49, 102
5, 1781760, Note_off_c, 3, 49, 64
5, 1781760, Note_on_c, 3, 47, 60
5, 1781876, Note_off_c, 3, 47, 64
5, 1781880, Note_on_c, 3, 49, 70
5, 1781996, Note_off_c, 3, 49, 64
5, 1782000, Note_on_c, 3, 50, 70
5, 1782116, Note_off_c, 3, 50, 64
5, 1782120, Note_on_c, 3, 49, 70
5, 1782236, Note_off_c, 3, 49, 64
5, 1782240, Note_on_c, 3, 50, 70
5, 1782356, Note_off_c, 3, 50, 64
5, 1782360, Note_on_c, 3, 47, 90
5, 1782476, Note_off_c, 3, 47, 64
5, 1782480, Note_on_c, 3, 52, 123
5, 1782720, Note_off_c, 3, 52, 64
5, 1783200, Note_on_c, 3, 45, 100
5, 1783436, Note_off_c, 3, 45, 64
5, 1783920, Note_on_c, 3, 57, 104
5, 1784036, Note_off_c, 3, 57, 64
5, 1784040, Note_on_c, 3, 59, 100
5, 1784156, Note_off_c, 3, 59, 64
5, 1784160, Note_on_c, 3, 57, 95
5, 1784276, Note_off_c, 3, 57, 64
5, 1784280, Note_on_c, 3, 55, 90
5, 1784396, Note_off_c, 3, 55, 64
5, 1784400, Note_on_c, 3, 54, 93
5, 1784516, Note_off_c, 3, 54, 64
5, 1784520, Note_on_c, 3, 52, 86
5, 1784636, Note_off_c, 3, 52, 64
5, 1784640, Note_on_c, 3, 50, 98
5, 1784756, Note_off_c, 3, 50, 64
5, 1784760, Note_on_c, 3, 54, 93
5, 1784876, Note_off_c, 3, 54, 64
5, 1784880, Note_on_c, 3, 57, 96
5, 1784996, Note_off_c, 3, 57, 64
5, 1785000, Note_on_c, 3, 60, 100
5, 1785116, Note_off_c, 3, 60, 64
5, 1785120, Note_on_c, 3, 59, 96
5, 1785236, Note_off_c, 3, 59, 64
5, 1785240, Note_on_c, 3, 57, 90
5, 1785356, Note_off_c, 3, 57, 64
5, 1785360, Note_on_c, 3, 55, 95
5, 1785476, Note_off_c, 3, 55, 64
5, 1785480, Note_on_c, 3, 57, 90
5, 1785596, Note_off_c, 3, 57, 64
5, 1785600, Note_on_c, 3, 55, 89
5, 1785716, Note_off_c, 3, 55, 64
5, 1785720, Note_on_c, 3, 54, 90
5, 1785836, Note_off_c, 3, 54, 64
5, 1785840, Note_on_c, 3, 52, 89
5, 1785956, Note_off_c, 3, 52, 64
5, 1785960, Note_on_c, 3, 50, 89
5, 1786076, Note_off_c, 3, 50, 64
5, 1786080, Note_on_c, 3, 49, 84
5, 1786196, Note_off_c, 3, 49, 64
5, 1786200, Note_on_c, 3, 52, 83
5, 1786316, Note_off_c, 3, 52, 64
5, 1786320, Note_on_c, 3, 55, 84
5, 1786436, Note_off_c, 3, 55, 64
5, 1786440, Note_on_c, 3, 59, 90
5, 1786556, Note_off_c, 3, 59, 64
5, 1786560, Note_on_c, 3, 57, 89
5, 1786676, Note_off_c, 3, 57, 64
5, 1786680, Note_on_c, 3, 55, 88
5, 1786796, Note_off_c, 3, 55, 64
5, 1786800, Note_on_c, 3, 54, 97
5, 1787036, Note_off_c, 3, 54, 64
5, 1787040, Note_on_c, 3, 57, 96
5, 1787100, Note_off_c, 3, 57, 64
5, 1787100, Note_on_c, 3, 55, 86
5, 1787160, Note_off_c, 3, 55, 64
5, 1787160, Note_on_c, 3, 54, 85
5, 1787220, Note_off_c, 3, 54, 64
5, 1787220, Note_on_c, 3, 55, 85
5, 1787280, Note_off_c, 3, 55, 64
5, 1787280, Note_on_c, 3, 57, 102
5, 1787756, Note_off_c, 3, 57, 64
5, 1787760, Note_on_c, 3, 55, 101
5, 1787996, Note_off_c, 3, 55, 64
5, 1788000, Note_on_c, 3, 54, 106
5, 1788356, Note_off_c, 3, 54, 64
5, 1788360, Note_on_c, 3, 52, 93
5, 1788476, Note_off_c, 3, 52, 64
5, 1788480, Note_on_c, 3, 50, 95
5, 1788596, Note_off_c, 3, 50, 64
5, 1788600, Note_on_c, 3, 49, 102
5, 1788716, Note_off_c, 3, 49, 64
5, 1788720, Note_on_c, 3, 50, 91
5, 1788836, Note_off_c, 3, 50, 64
5, 1788840, Note_on_c, 3, 47, 91
5, 1788956, Note_off_c, 3, 47, 64
5, 1788960, Note_on_c, 3, 50, 100
5, 1789076, Note_off_c, 3, 50, 64
5, 1789080, Note_on_c, 3, 49, 90
5, 1789140, Note_off_c, 3, 49, 64
5, 1789140, Note_on_c, 3, 50, 99
5, 1789200, Note_off_c, 3, 50, 64
5, 1789200, Note_on_c, 3, 49, 90
5, 1789560, Note_off_c, 3, 49, 64
5, 1789560, Note_on_c, 3, 47, 92
5, 1789620, Note_off_c, 3, 47, 64
5, 1789620, Note_on_c, 3, 49, 96
5, 1789680, Note_off_c, 3, 49, 64
5, 1789680, Note_on_c, 3, 50, 101
5, 1789916, Note_off_c, 3, 50, 64
5, 1789920, Note_on_c, 3, 42, 101
5, 1790156, Note_off_c, 3, 42, 64
5, 1790160, Note_on_c, 3, 45, 115
5, 1790400, Note_off_c, 3, 45, 64
5, 1790400, Note_on_c, 3, 38, 101
5, 1791120, Note_off_c, 3, 38, 64
5, 1792560, Note_on_c, 3, 67, 111
5, 1792796, Note_off_c, 3, 67, 64
5, 1792800, Note_on_c, 3, 66, 102
5, 1792916, Note_off_c, 3, 66, 64
5, 1792920, Note_on_c, 3, 64, 97
5, 1793036, Note_off_c, 3, 64, 64
5, 1793040, Note_on_c, 3, 62, 85
5, 1793156, Note_off_c, 3, 62, 64
5, 1793160, Note_on_c, 3, 60, 97
5, 1793276, Note_off_c, 3, 60, 64
5, 1793280, Note_on_c, 3, 59, 100
5, 1793396, Note_off_c, 3, 59, 64
5, 1793400, Note_on_c, 3, 60, 93
5, 1793516, Note_off_c, 3, 60, 64
5, 1793520, Note_on_c, 3, 62, 93
5, 1793636, Note_off_c, 3, 62, 64
5, 1793640, Note_on_c, 3, 60, 83
5, 1793756, Note_off_c, 3, 60, 64
5, 1793760, Note_on_c, 3, 59, 85
5, 1793876, Note_off_c, 3, 59, 64
5, 1793880, Note_on_c, 3, 67, 97
5, 1793996, Note_off_c, 3, 67, 64
5, 1794000, Note_on_c, 3, 57, 115
5, 1794240, Note_off_c, 3, 57, 64
5, 1794720, Note_on_c, 3, 66, 109
5, 1794960, Note_off_c, 3, 66, 64
5, 1795440, Note_on_c, 3, 71, 98
5, 1795556, Note_off_c, 3, 71, 64
5, 1795560, Note_on_c, 3, 72, 93
5, 1795676, Note_off_c, 3, 72, 64
5, 1795680, Note_on_c, 3, 71, 89
5, 1795796, Note_off_c, 3, 71, 64
5, 1795800, Note_on_c, 3, 69, 97
5, 1795916, Note_off_c, 3, 69, 64
5, 1795920, Note_on_c, 3, 67, 88
5, 1796036, Note_off_c, 3, 67, 64
5, 1796040, Note_on_c, 3, 66, 80
5, 1796156, Note_off_c, 3, 66, 64
5, 1796160, Note_on_c, 3, 67, 96
5, 1796276, Note_off_c, 3, 67, 64
5, 1796280, Note_on_c, 3, 69, 86
5, 1796396, Note_off_c, 3, 69, 64
5, 1796400, Note_on_c, 3, 67, 85
5, 1796516, Note_off_c, 3, 67, 64
5, 1796520, Note_on_c, 3, 66, 93
5, 1796636, Note_off_c, 3, 66, 64
5, 1796640, Note_on_c, 3, 64, 96
5, 1796756, Note_off_c, 3, 64, 64
5, 1796760, Note_on_c, 3, 62, 91
5, 1796876, Note_off_c, 3, 62, 64
5, 1796880, Note_on_c, 3, 60, 98
5, 1797116, Note_off_c, 3, 60, 64
5, 1797120, Note_on_c, 3, 64, 92
5, 1797180, Note_off_c, 3, 64, 64
5, 1797180, Note_on_c, 3, 62, 104
5, 1797240, Note_off_c, 3, 62, 64
5, 1797240, Note_on_c, 3, 60, 97
5, 1797300, Note_off_c, 3, 60, 64
5, 1797300, Note_on_c, 3, 62, 97
5, 1797360, Note_off_c, 3, 62, 64
5, 1797360, Note_on_c, 3, 64, 106
5, 1797596, Note_off_c, 3, 64, 64
5, 1797600, Note_on_c, 3, 57, 107
5, 1798436, Note_off_c, 3, 57, 64
5, 1798440, Note_on_c, 3, 55, 89
5, 1798556, Note_off_c, 3, 55, 64
5, 1798560, Note_on_c, 3, 57, 95
5, 1798676, Note_off_c, 3, 57, 64
5, 1798680, Note_on_c, 3, 60, 95
5, 1798796, Note_off_c, 3, 60, 64
5, 1798800, Note_on_c, 3, 59, 93
5, 1798916, Note_off_c, 3, 59, 64
5, 1798920, Note_on_c, 3, 57, 89
5, 1799036, Note_off_c, 3, 57, 64
5, 1799040, Note_on_c, 3, 59, 92
5, 1799156, Note_off_c, 3, 59, 64
5, 1799160, Note_on_c, 3, 64, 93
5, 1799276, Note_off_c, 3, 64, 64
5, 1799280, Note_on_c, 3, 59, 86
5, 1799396, Note_off_c, 3, 59, 64
5, 1799400, Note_on_c, 3, 55, 81
5, 1799516, Note_off_c, 3, 55, 64
5, 1799520, Note_on_c, 3, 52, 62
5, 1799636, Note_off_c, 3, 52, 64
5, 1799640, Note_on_c, 3, 55, 81
5, 1799756, Note_off_c, 3, 55, 64
5, 1799760, Note_on_c, 3, 49, 97
5, 1799876, Note_off_c, 3, 49, 64
5, 1799880, Note_on_c, 3, 51, 92
5, 1799996, Note_off_c, 3, 51, 64
5, 1800000, Note_on_c, 3, 52, 97
5, 1800116, Note_off_c, 3, 52, 64
5, 1800120, Note_on_c, 3, 55, 93
5, 1800236, Note_off_c, 3, 55, 64
5, 1800240, Note_on_c, 3, 54, 94
5, 1800356, Note_off_c, 3, 54, 64
5, 1800360, Note_on_c, 3, 52, 93
5, 1800476, Note_off_c, 3, 52, 64
5, 1800480, Note_on_c, 3, 55, 101
5, 1800716, Note_off_c, 3, 55, 64
5, 1800720, Note_on_c, 3, 54, 88
5, 1800780, Note_off_c, 3, 54, 64
5, 1800780, Note_on_c, 3, 55, 86
5, 1800840, Note_off_c, 3, 55, 64
5, 1800840, Note_on_c, 3, 54, 89
5, 1801080, Note_off_c, 3, 54, 64
5, 1801080, Note_on_c, 3, 52, 77
5, 1801140, Note_off_c, 3, 52, 64
5, 1801140, Note_on_c, 3, 54, 92
5, 1801200, Note_off_c, 3, 54, 64
5, 1801200, Note_on_c, 3, 55, 98
5, 1801320, Note_off_c, 3, 55, 64
5, 1801320, Note_on_c, 3, 57, 97
5, 1801436, Note_off_c, 3, 57, 64
5, 1801440, Note_on_c, 3, 59, 98
5, 1801556, Note_off_c, 3, 59, 64
5, 1801560, Note_on_c, 3, 57, 98
5, 1801676, Note_off_c, 3, 57, 64
5, 1801680, Note_on_c, 3, 55, 100
5, 1801920, Note_off_c, 3, 55, 64
5, 1801920, Note_on_c, 3, 56, 98
5, 1801980, Note_off_c, 3, 56, 64
5, 1801980, Note_on_c, 3, 57, 106
5, 1802040, Note_off_c, 3, 57, 64
5, 1802040, Note_on_c, 3, 56, 106
5, 1802100, Note_off_c, 3, 56, 64
5, 1802100, Note_on_c, 3, 54, 106
5, 1802160, Note_off_c, 3, 54, 64
5, 1802160, Note_on_c, 3, 56, 106
5, 1802640, Note_off_c, 3, 56, 64
5, 1802760, Note_on_c, 3, 52, 86
5, 1802876, Note_off_c, 3, 52, 64
5, 1802880, Note_on_c, 3, 54, 99
5, 1802996, Note_off_c, 3, 54, 64
5, 1803000, Note_on_c, 3, 56, 93
5, 1803116, Note_off_c, 3, 56, 64
5, 1803120, Note_on_c, 3, 57, 92
5, 1803236, Note_off_c, 3, 57, 64
5, 1803240, Note_on_c, 3, 59, 97
5, 1803356, Note_off_c, 3, 59, 64
5, 1803360, Note_on_c, 3, 60, 106
5, 1803476, Note_off_c, 3, 60, 64
5, 1803480, Note_on_c, 3, 59, 96
5, 1803596, Note_off_c, 3, 59, 64
5, 1803600, Note_on_c, 3, 57, 96
5, 1803716, Note_off_c, 3, 57, 64
5, 1803720, Note_on_c, 3, 55, 88
5, 1803836, Note_off_c, 3, 55, 64
5, 1803840, Note_on_c, 3, 54, 96
5, 1803956, Note_off_c, 3, 54, 64
5, 1803960, Note_on_c, 3, 52, 85
5, 1804076, Note_off_c, 3, 52, 64
5, 1804080, Note_on_c, 3, 50, 44
5, 1804196, Note_off_c, 3, 50, 64
5, 1804200, Note_on_c, 3, 54, 94
5, 1804316, Note_off_c, 3, 54, 64
5, 1804320, Note_on_c, 3, 55, 68
5, 1804436, Note_off_c, 3, 55, 64
5, 1804440, Note_on_c, 3, 57, 89
5, 1804556, Note_off_c, 3, 57, 64
5, 1804560, Note_on_c, 3, 59, 90
5, 1804676, Note_off_c, 3, 59, 64
5, 1804680, Note_on_c, 3, 60, 91
5, 1804796, Note_off_c, 3, 60, 64
5, 1804800, Note_on_c, 3, 62, 102
5, 1804916, Note_off_c, 3, 62, 64
5, 1804920, Note_on_c, 3, 60, 97
5, 1805036, Note_off_c, 3, 60, 64
5, 1805040, Note_on_c, 3, 59, 93
5, 1805156, Note_off_c, 3, 59, 64
5, 1805160, Note_on_c, 3, 60, 92
5, 1805276, Note_off_c, 3, 60, 64
5, 1805280, Note_on_c, 3, 62, 97
5, 1805516, Note_off_c, 3, 62, 64
5, 1805520, Note_on_c, 3, 55, 109
5, 1805996, Note_off_c, 3, 55, 64
5, 1806240, Note_on_c, 3, 64, 119
5, 1806480, Note_off_c, 3, 64, 64
5, 1806960, Note_on_c, 3, 57, 106
5, 1807196, Note_off_c, 3, 57, 64
5, 1807200, Note_on_c, 3, 59, 102
5, 1807316, Note_off_c, 3, 59, 64
5, 1807320, Note_on_c, 3, 60, 101
5, 1807436, Note_off_c, 3, 60, 64
5, 1807440, Note_on_c, 3, 62, 92
5, 1807556, Note_off_c, 3, 62, 64
5, 1807560, Note_on_c, 3, 64, 101
5, 1807676, Note_off_c, 3, 64, 64
5, 1807680, Note_on_c, 3, 66, 90
5, 1807796, Note_off_c, 3, 66, 64
5, 1807800, Note_on_c, 3, 67, 92
5, 1807916, Note_off_c, 3, 67, 64
5, 1807920, Note_on_c, 3, 66, 97
5, 1808036, Note_off_c, 3, 66, 64
5, 1808040, Note_on_c, 3, 64, 93
5, 1808156, Note_off_c, 3, 64, 64
5, 1808160, Note_on_c, 3, 66, 84
5, 1808276, Note_off_c, 3, 66, 64
5, 1808280, Note_on_c, 3, 62, 90
5, 1808396, Note_off_c, 3, 62, 64
5, 1808400, Note_on_c, 3, 71, 102
5, 1808516, Note_off_c, 3, 71, 64
5, 1808520, Note_on_c, 3, 69, 82
5, 1808636, Note_off_c, 3, 69, 64
5, 1808640, Note_on_c, 3, 67, 89
5, 1808756, Note_off_c, 3, 67, 64
5, 1808760, Note_on_c, 3, 66, 89
5, 1808876, Note_off_c, 3, 66, 64
5, 1808880, Note_on_c, 3, 64, 95
5, 1808996, Note_off_c, 3, 64, 64
5, 1809000, Note_on_c, 3, 62, 86
5, 1809116, Note_off_c, 3, 62, 64
5, 1809120, Note_on_c, 3, 60, 106
5, 1809956, Note_off_c, 3, 60, 64
5, 1809960, Note_on_c, 3, 59, 104
5, 1810076, Note_off_c, 3, 59, 64
5, 1810080, Note_on_c, 3, 60, 96
5, 1810196, Note_off_c, 3, 60, 64
5, 1810200, Note_on_c, 3, 62, 97
5, 1810316, Note_off_c, 3, 62, 64
5, 1810320, Note_on_c, 3, 64, 93
5, 1810436, Note_off_c, 3, 64, 64
5, 1810440, Note_on_c, 3, 66, 90
5, 1810556, Note_off_c, 3, 66, 64
5, 1810560, Note_on_c, 3, 67, 97
5, 1810676, Note_off_c, 3, 67, 64
5, 1810680, Note_on_c, 3, 62, 85
5, 1810796, Note_off_c, 3, 62, 64
5, 1810800, Note_on_c, 3, 59, 74
5, 1810916, Note_off_c, 3, 59, 64
5, 1810920, Note_on_c, 3, 55, 86
5, 1811036, Note_off_c, 3, 55, 64
5, 1811040, Note_on_c, 3, 57, 90
5, 1811156, Note_off_c, 3, 57, 64
5, 1811160, Note_on_c, 3, 59, 95
5, 1811276, Note_off_c, 3, 59, 64
5, 1811280, Note_on_c, 3, 52, 95
5, 1811396, Note_off_c, 3, 52, 64
5, 1811400, Note_on_c, 3, 54, 94
5, 1811516, Note_off_c, 3, 54, 64
5, 1811520, Note_on_c, 3, 55, 91
5, 1811636, Note_off_c, 3, 55, 64
5, 1811640, Note_on_c, 3, 57, 92
5, 1811756, Note_off_c, 3, 57, 64
5, 1811760, Note_on_c, 3, 59, 95
5, 1811876, Note_off_c, 3, 59, 64
5, 1811880, Note_on_c, 3, 55, 81
5, 1811996, Note_off_c, 3, 55, 64
5, 1812000, Note_on_c, 3, 59, 104
5, 1812116, Note_off_c, 3, 59, 64
5, 1812120, Note_on_c, 3, 62, 81
5, 1812236, Note_off_c, 3, 62, 64
5, 1812240, Note_on_c, 3, 67, 107
5, 1812480, Note_off_c, 3, 67, 64
5, 1812960, Note_on_c, 3, 62, 111
5, 1813196, Note_off_c, 3, 62, 64
5, 1813200, Note_on_c, 3, 60, 101
5, 1813436, Note_off_c, 3, 60, 64
5, 1813440, Note_on_c, 3, 59, 100
5, 1813676, Note_off_c, 3, 59, 64
5, 1813680, Note_on_c, 3, 60, 100
5, 1813796, Note_off_c, 3, 60, 64
5, 1813800, Note_on_c, 3, 59, 101
5, 1813916, Note_off_c, 3, 59, 64
5, 1813920, Note_on_c, 3, 57, 91
5, 1814036, Note_off_c, 3, 57, 64
5, 1814040, Note_on_c, 3, 55, 102
5, 1814156, Note_off_c, 3, 55, 64
5, 1814160, Note_on_c, 3, 55, 97
5, 1814396, Note_off_c, 3, 55, 64
5, 1814400, Note_on_c, 3, 71, 106
5, 1814636, Note_off_c, 3, 71, 64
5, 1814640, Note_on_c, 3, 69, 101
5, 1814876, Note_off_c, 3, 69, 64
5, 1814880, Note_on_c, 3, 54, 99
5, 1815116, Note_off_c, 3, 54, 64
5, 1815120, Note_on_c, 3, 52, 101
5, 1815356, Note_off_c, 3, 52, 64
5, 1815360, Note_on_c, 3, 67, 102
5, 1815596, Note_off_c, 3, 67, 64
5, 1815600, Note_on_c, 3, 54, 96
5, 1815840, Note_off_c, 3, 54, 64
5, 1815840, Note_on_c, 3, 69, 96
5, 1816080, Note_off_c, 3, 69, 64
5, 1816080, Note_on_c, 3, 67, 96
5, 1816320, Note_off_c, 3, 67, 64
5, 1816320, Note_on_c, 3, 52, 96
5, 1816560, Note_off_c, 3, 52, 64
5, 1816560, Note_on_c, 3, 50, 96
5, 1816800, Note_off_c, 3, 50, 64
5, 1816800, Note_on_c, 3, 66, 96
5, 1817040, Note_off_c, 3, 66, 64
5, 1817040, Note_on_c, 3, 52, 96
5, 1817280, Note_off_c, 3, 52, 64
5, 1817280, Note_on_c, 3, 67, 96
5, 1817520, Note_off_c, 3, 67, 64
5, 1817520, Note_on_c, 3, 66, 96
5, 1817760, Note_off_c, 3, 66, 64
5, 1817760, Note_on_c, 3, 55, 96
5, 1818000, Note_off_c, 3, 55, 64
5, 1818000, Note_on_c, 3, 57, 96
5, 1818240, Note_off_c, 3, 57, 64
5, 1818240, Note_on_c, 3, 64, 96
5, 1818480, Note_off_c, 3, 64, 64
5, 1818480, Note_on_c, 3, 50, 96
5, 1818720, Note_off_c, 3, 50, 64
5, 1818720, Note_on_c, 3, 66, 96
5, 1818960, Note_off_c, 3, 66, 64
5, 1818960, Note_on_c, 3, 64, 96
5, 1819200, Note_off_c, 3, 64, 64
5, 1819200, Note_on_c, 3, 55, 96
5, 1819440, Note_off_c, 3, 55, 64
5, 1819440, Note_on_c, 3, 54, 96
5, 1819680, Note_off_c, 3, 54, 64
5, 1819680, Note_on_c, 3, 60, 96
5, 1819920, Note_off_c, 3, 60, 64
5, 1819920, Note_on_c, 3, 59, 96
5, 1820040, Note_off_c, 3, 59, 64
5, 1820400, Note_on_c, 3, 60, 96
5, 1820520, Note_off_c, 3, 60, 64
5, 1820880, Note_on_c, 3, 62, 96
5, 1821000, Note_off_c, 3, 62, 64
5, 1821360, Note_on_c, 3, 60, 96
5, 1821480, Note_off_c, 3, 60, 64
5, 1821840, Note_on_c, 3, 62, 96
5, 1821960, Note_off_c, 3, 62, 64
5, 1822320, Note_on_c, 3, 64, 96
5, 1822440, Note_off_c, 3, 64, 64
5, 1822800, Note_on_c, 3, 62, 96
5, 1822920, Note_off_c, 3, 62, 64
5, 1823280, Note_on_c, 3, 64, 96
5, 1823400, Note_off_c, 3, 64, 64
5, 1823760, Note_on_c, 3, 57, 96
5, 1823880, Note_off_c, 3, 57, 64
5, 1824240, Note_on_c, 3, 59, 96
5, 1824360, Note_off_c, 3, 59, 64
5, 1824720, Note_on_c, 3, 60, 96
5, 1824840, Note_off_c, 3, 60, 64
5, 1825200, Note_on_c, 3, 62, 96
5, 1825320, Note_off_c, 3, 62, 64
5, 1825680, Note_on_c, 3, 55, 86
5, 1825796, Note_off_c, 3, 55, 64
5, 1825800, Note_on_c, 3, 59, 92
5, 1825916, Note_off_c, 3, 59, 64
5, 1825920, Note_on_c, 3, 57, 89
5, 1826036, Note_off_c, 3, 57, 64
5, 1826040, Note_on_c, 3, 59, 95
5, 1826156, Note_off_c, 3, 59, 64
5, 1826160, Note_on_c, 3, 64, 96
5, 1826276, Note_off_c, 3, 64, 64
5, 1826280, Note_on_c, 3, 67, 102
5, 1826396, Note_off_c, 3, 67, 64
5, 1826400, Note_on_c, 3, 66, 79
5, 1826516, Note_off_c, 3, 66, 64
5, 1826520, Note_on_c, 3, 67, 96
5, 1826636, Note_off_c, 3, 67, 64
5, 1826640, Note_on_c, 3, 71, 101
5, 1826756, Note_off_c, 3, 71, 64
5, 1826760, Note_on_c, 3, 67, 90
5, 1826876, Note_off_c, 3, 67, 64
5, 1826880, Note_on_c, 3, 64, 75
5, 1826996, Note_off_c, 3, 64, 64
5, 1827000, Note_on_c, 3, 61, 96
5, 1827116, Note_off_c, 3, 61, 64
5, 1827120, Note_on_c, 3, 54, 86
5, 1827236, Note_off_c, 3, 54, 64
5, 1827240, Note_on_c, 3, 57, 86
5, 1827356, Note_off_c, 3, 57, 64
5, 1827360, Note_on_c, 3, 55, 91
5, 1827476, Note_off_c, 3, 55, 64
5, 1827480, Note_on_c, 3, 57, 95
5, 1827596, Note_off_c, 3, 57, 64
5, 1827600, Note_on_c, 3, 62, 100
5, 1827716, Note_off_c, 3, 62, 64
5, 1827720, Note_on_c, 3, 66, 90
5, 1827836, Note_off_c, 3, 66, 64
5, 1827840, Note_on_c, 3, 64, 90
5, 1827956, Note_off_c, 3, 64, 64
5, 1827960, Note_on_c, 3, 66, 81
5, 1828076, Note_off_c, 3, 66, 64
5, 1828080, Note_on_c, 3, 69, 96
5, 1828196, Note_off_c, 3, 69, 64
5, 1828200, Note_on_c, 3, 66, 79
5, 1828316, Note_off_c, 3, 66, 64
5, 1828320, Note_on_c, 3, 62, 81
5, 1828436, Note_off_c, 3, 62, 64
5, 1828440, Note_on_c, 3, 59, 86
5, 1828556, Note_off_c, 3, 59, 64
5, 1828560, Note_on_c, 3, 52, 90
5, 1828676, Note_off_c, 3, 52, 64
5, 1828680, Note_on_c, 3, 55, 83
5, 1828796, Note_off_c, 3, 55, 64
5, 1828800, Note_on_c, 3, 54, 84
5, 1828916, Note_off_c, 3, 54, 64
5, 1828920, Note_on_c, 3, 55, 70
5, 1829040, Note_off_c, 3, 55, 64
5, 1829040, Note_on_c, 3, 59, 100
5, 1829156, Note_off_c, 3, 59, 64
5, 1829160, Note_on_c, 3, 64, 97
5, 1829276, Note_off_c, 3, 64, 64
5, 1829280, Note_on_c, 3, 63, 93
5, 1829396, Note_off_c, 3, 63, 64
5, 1829400, Note_on_c, 3, 64, 93
5, 1829516, Note_off_c, 3, 64, 64
5, 1829520, Note_on_c, 3, 67, 91
5, 1829636, Note_off_c, 3, 67, 64
5, 1829640, Note_on_c, 3, 64, 88
5, 1829756, Note_off_c, 3, 64, 64
5, 1829760, Note_on_c, 3, 59, 85
5, 1829876, Note_off_c, 3, 59, 64
5, 1829880, Note_on_c, 3, 55, 73
5, 1829996, Note_off_c, 3, 55, 64
5, 1830000, Note_on_c, 3, 57, 95
5, 1830116, Note_off_c, 3, 57, 64
5, 1830120, Note_on_c, 3, 64, 98
5, 1830236, Note_off_c, 3, 64, 64
5, 1830240, Note_on_c, 3, 62, 88
5, 1830356, Note_off_c, 3, 62, 64
5, 1830360, Note_on_c, 3, 64, 95
5, 1830476, Note_off_c, 3, 64, 64
5, 1830480, Note_on_c, 3, 67, 88
5, 1830596, Note_off_c, 3, 67, 64
5, 1830600, Note_on_c, 3, 69, 84
5, 1830716, Note_off_c, 3, 69, 64
5, 1830720, Note_on_c, 3, 67, 80
5, 1830836, Note_off_c, 3, 67, 64
5, 1830840, Note_on_c, 3, 69, 91
5, 1830956, Note_off_c, 3, 69, 64
5, 1830960, Note_on_c, 3, 67, 66
5, 1831076, Note_off_c, 3, 67, 64
5, 1831080, Note_on_c, 3, 64, 85
5, 1831196, Note_off_c, 3, 64, 64
5, 1831200, Note_on_c, 3, 61, 85
5, 1831316, Note_off_c, 3, 61, 64
5, 1831320, Note_on_c, 3, 57, 84
5, 1831436, Note_off_c, 3, 57, 64
5, 1831440, Note_on_c, 3, 50, 117
5, 1831556, Note_off_c, 3, 50, 64
5, 1831920, Note_on_c, 3, 47, 93
5, 1832036, Note_off_c, 3, 47, 64
5, 1832400, Note_on_c, 3, 45, 107
5, 1832516, Note_off_c, 3, 45, 64
5, 1832880, Note_on_c, 3, 43, 106
5, 1832996, Note_off_c, 3, 43, 64
5, 1833360, Note_on_c, 3, 45, 107
5, 1833476, Note_off_c, 3, 45, 64
5, 1833840, Note_on_c, 3, 47, 111
5, 1833956, Note_off_c, 3, 47, 64
5, 1834320, Note_on_c, 3, 45, 109
5, 1834436, Note_off_c, 3, 45, 64
5, 1834800, Note_on_c, 3, 43, 101
5, 1834916, Note_off_c, 3, 43, 64
5, 1835280, Note_on_c, 3, 45, 98
5, 1835396, Note_off_c, 3, 45, 64
5, 1835760, Note_on_c, 3, 38, 89
5, 1835876, Note_off_c, 3, 38, 64
5, 1835880, Note_on_c, 3, 42, 82
5, 1835996, Note_off_c, 3, 42, 64
5, 1836000, Note_on_c, 3, 40, 82
5, 1836116, Note_off_c, 3, 40, 64
5, 1836120, Note_on_c, 3, 42, 82
5, 1836236, Note_off_c, 3, 42, 64
5, 1836240, Note_on_c, 3, 45, 102
5, 1836356, Note_off_c, 3, 45, 64
5, 1836360, Note_on_c, 3, 50, 102
5, 1836476, Note_off_c, 3, 50, 64
5, 1836480, Note_on_c, 3, 49, 90
5, 1836596, Note_off_c, 3, 49, 64
5, 1836600, Note_on_c, 3, 50, 91
5, 1836716, Note_off_c, 3, 50, 64
5, 1836720, Note_on_c, 3, 54, 101
5, 1837200, Note_off_c, 3, 54, 64
5, 1837200, Note_on_c, 3, 62, 100
5, 1837436, Note_off_c, 3, 62, 64
5, 1837440, Note_on_c, 3, 52, 72
5, 1837676, Note_off_c, 3, 52, 64
5, 1837680, Note_on_c, 3, 54, 108
5, 1837916, Note_off_c, 3, 54, 64
5, 1837920, Note_on_c, 3, 60, 111
5, 1838160, Note_off_c, 3, 60, 64
5, 1838160, Note_on_c, 3, 50, 88
5, 1838400, Note_off_c, 3, 50, 64
5, 1838400, Note_on_c, 3, 66, 92
5, 1838640, Note_off_c, 3, 66, 64
5, 1838640, Note_on_c, 3, 67, 86
5, 1838876, Note_off_c, 3, 67, 64
5, 1838880, Note_on_c, 3, 57, 90
5, 1839116, Note_off_c, 3, 57, 64
5, 1839120, Note_on_c, 3, 59, 104
5, 1839356, Note_off_c, 3, 59, 64
5, 1839360, Note_on_c, 3, 65, 95
5, 1839596, Note_off_c, 3, 65, 64
5, 1839600, Note_on_c, 3, 55, 96
5, 1839836, Note_off_c, 3, 55, 64
5, 1839840, Note_on_c, 3, 71, 101
5, 1840080, Note_off_c, 3, 71, 64
5, 1840080, Note_on_c, 3, 72, 100
5, 1840196, Note_off_c, 3, 72, 64
5, 1840200, Note_on_c, 3, 67, 78
5, 1840316, Note_off_c, 3, 67, 64
5, 1840320, Note_on_c, 3, 65, 92
5, 1840436, Note_off_c, 3, 65, 64
5, 1840440, Note_on_c, 3, 67, 90
5, 1840556, Note_off_c, 3, 67, 64
5, 1840560, Note_on_c, 3, 64, 86
5, 1840676, Note_off_c, 3, 64, 64
5, 1840680, Note_on_c, 3, 60, 91
5, 1840796, Note_off_c, 3, 60, 64
5, 1840800, Note_on_c, 3, 59, 97
5, 1840916, Note_off_c, 3, 59, 64
5, 1840920, Note_on_c, 3, 60, 92
5, 1841036, Note_off_c, 3, 60, 64
5, 1841040, Note_on_c, 3, 57, 73
5, 1841156, Note_off_c, 3, 57, 64
5, 1841160, Note_on_c, 3, 60, 88
5, 1841280, Note_off_c, 3, 60, 64
5, 1841280, Note_on_c, 3, 64, 88
5, 1841400, Note_off_c, 3, 64, 64
5, 1841400, Note_on_c, 3, 69, 88
5, 1841520, Note_off_c, 3, 69, 64
5, 1841520, Note_on_c, 3, 63, 110
5, 1841636, Note_off_c, 3, 63, 64
5, 1841640, Note_on_c, 3, 59, 89
5, 1841756, Note_off_c, 3, 59, 64
5, 1841760, Note_on_c, 3, 58, 96
5, 1841876, Note_off_c, 3, 58, 64
5, 1841880, Note_on_c, 3, 59, 96
5, 1841996, Note_off_c, 3, 59, 64
5, 1842000, Note_on_c, 3, 54, 90
5, 1842116, Note_off_c, 3, 54, 64
5, 1842120, Note_on_c, 3, 51, 99
5, 1842236, Note_off_c, 3, 51, 64
5, 1842240, Note_on_c, 3, 49, 96
5, 1842356, Note_off_c, 3, 49, 64
5, 1842360, Note_on_c, 3, 51, 90
5, 1842476, Note_off_c, 3, 51, 64
5, 1842480, Note_on_c, 3, 47, 91
5, 1842596, Note_off_c, 3, 47, 64
5, 1842600, Note_on_c, 3, 51, 95
5, 1842720, Note_off_c, 3, 51, 64
5, 1842720, Note_on_c, 3, 54, 101
5, 1842836, Note_off_c, 3, 54, 64
5, 1842840, Note_on_c, 3, 57, 88
5, 1842956, Note_off_c, 3, 57, 64
5, 1842960, Note_on_c, 3, 55, 110
5, 1843076, Note_off_c, 3, 55, 64
5, 1843440, Note_on_c, 3, 57, 110
5, 1843556, Note_off_c, 3, 57, 64
5, 1843920, Note_on_c, 3, 59, 110
5, 1844036, Note_off_c, 3, 59, 64
5, 1844400, Note_on_c, 3, 60, 110
5, 1844516, Note_off_c, 3, 60, 64
5, 1844880, Note_on_c, 3, 59, 110
5, 1844996, Note_off_c, 3, 59, 64
5, 1845360, Note_on_c, 3, 60, 110
5, 1845476, Note_off_c, 3, 60, 64
5, 1845840, Note_on_c, 3, 58, 110
5, 1845956, Note_off_c, 3, 58, 64
5, 1846320, Note_on_c, 3, 59, 110
5, 1846436, Note_off_c, 3, 59, 64
5, 1846800, Note_on_c, 3, 59, 110
5, 1846916, Note_off_c, 3, 59, 64
5, 1847280, Note_on_c, 3, 52, 101
5, 1847396, Note_off_c, 3, 52, 64
5, 1847400, Note_on_c, 3, 64, 101
5, 1847516, Note_off_c, 3, 64, 64
5, 1847520, Note_on_c, 3, 63, 92
5, 1847636, Note_off_c, 3, 63, 64
5, 1847640, Note_on_c, 3, 64, 104
5, 1847756, Note_off_c, 3, 64, 64
5, 1847760, Note_on_c, 3, 59, 104
5, 1847876, Note_off_c, 3, 59, 64
5, 1847880, Note_on_c, 3, 55, 95
5, 1847996, Note_off_c, 3, 55, 64
5, 1848000, Note_on_c, 3, 54, 99
5, 1848116, Note_off_c, 3, 54, 64
5, 1848120, Note_on_c, 3, 55, 93
5, 1848236, Note_off_c, 3, 55, 64
5, 1848240, Note_on_c, 3, 52, 100
5, 1848356, Note_off_c, 3, 52, 64
5, 1848360, Note_on_c, 3, 55, 92
5, 1848476, Note_off_c, 3, 55, 64
5, 1848480, Note_on_c, 3, 59, 102
5, 1848596, Note_off_c, 3, 59, 64
5, 1848600, Note_on_c, 3, 62, 104
5, 1848716, Note_off_c, 3, 62, 64
5, 1848720, Note_on_c, 3, 61, 102
5, 1848836, Note_off_c, 3, 61, 64
5, 1849200, Note_on_c, 3, 59, 102
5, 1849316, Note_off_c, 3, 59, 64
5, 1849680, Note_on_c, 3, 57, 102
5, 1849796, Note_off_c, 3, 57, 64
5, 1850160, Note_on_c, 3, 59, 102
5, 1850276, Note_off_c, 3, 59, 64
5, 1850640, Note_on_c, 3, 57, 102
5, 1850756, Note_off_c, 3, 57, 64
5, 1851120, Note_on_c, 3, 55, 102
5, 1851236, Note_off_c, 3, 55, 64
5, 1851600, Note_on_c, 3, 57, 102
5, 1851840, Note_off_c, 3, 57, 64
5, 1851840, Note_on_c, 3, 76, 102
5, 1852080, Note_off_c, 3, 76, 64
5, 1852080, Note_on_c, 3, 77, 102
5, 1852320, Note_off_c, 3, 77, 64
5, 1852320, Note_on_c, 3, 78, 102
5, 1852560, Note_off_c, 3, 78, 64
5, 1852560, Note_on_c, 3, 79, 102
5, 1852800, Note_off_c, 3, 79, 64
5, 1852800, Note_on_c, 3, 57, 102
5, 1853040, Note_off_c, 3, 57, 64
5, 1853040, Note_on_c, 3, 50, 102
5, 1853280, Note_off_c, 3, 50, 64
5, 1853280, Note_on_c, 3, 78, 102
5, 1853520, Note_off_c, 3, 78, 64
5, 1853520, Note_on_c, 3, 79, 102
5, 1853760, Note_off_c, 3, 79, 64
5, 1853760, Note_on_c, 3, 80, 102
5, 1854000, Note_off_c, 3, 80, 64
5, 1854000, Note_on_c, 3, 81, 102
5, 1854240, Note_off_c, 3, 81, 64
5, 1854240, Note_on_c, 3, 62, 102
5, 1854480, Note_off_c, 3, 62, 64
5, 1854480, Note_on_c, 3, 55, 102
5, 1854720, Note_off_c, 3, 55, 64
5, 1854720, Note_on_c, 3, 43, 102
5, 1854960, Note_off_c, 3, 43, 64
5, 1854960, Note_on_c, 3, 44, 102
5, 1855200, Note_off_c, 3, 44, 64
5, 1855200, Note_on_c, 3, 45, 102
5, 1855440, Note_off_c, 3, 45, 64
5, 1855440, Note_on_c, 3, 46, 102
5, 1855680, Note_off_c, 3, 46, 64
5, 1855680, Note_on_c, 3, 47, 102
5, 1855920, Note_off_c, 3, 47, 64
5, 1855920, Note_on_c, 3, 48, 102
5, 1856040, Note_off_c, 3, 48, 64
5, 1856400, Note_on_c, 3, 50, 102
5, 1856520, Note_off_c, 3, 50, 64
5, 1856880, Note_on_c, 3, 52, 102
5, 1857000, Note_off_c, 3, 52, 64
5, 1857360, Note_on_c, 3, 54, 101
5, 1857476, Note_off_c, 3, 54, 64
5, 1857480, Note_on_c, 3, 62, 95
5, 1857596, Note_off_c, 3, 62, 64
5, 1857600, Note_on_c, 3, 60, 100
5, 1857716, Note_off_c, 3, 60, 64
5, 1857720, Note_on_c, 3, 62, 102
5, 1857836, Note_off_c, 3, 62, 64
5, 1857840, Note_on_c, 3, 59, 98
5, 1857956, Note_off_c, 3, 59, 64
5, 1857960, Note_on_c, 3, 55, 101
5, 1858076, Note_off_c, 3, 55, 64
5, 1858080, Note_on_c, 3, 54, 101
5, 1858196, Note_off_c, 3, 54, 64
5, 1858200, Note_on_c, 3, 55, 97
5, 1858316, Note_off_c, 3, 55, 64
5, 1858320, Note_on_c, 3, 50, 100
5, 1858436, Note_off_c, 3, 50, 64
5, 1858440, Note_on_c, 3, 54, 99
5, 1858556, Note_off_c, 3, 54, 64
5, 1858560, Note_on_c, 3, 57, 98
5, 1858676, Note_off_c, 3, 57, 64
5, 1858680, Note_on_c, 3, 60, 104
5, 1858796, Note_off_c, 3, 60, 64
5, 1858800, Note_on_c, 3, 59, 100
5, 1858916, Note_off_c, 3, 59, 64
5, 1858920, Note_on_c, 3, 55, 91
5, 1859036, Note_off_c, 3, 55, 64
5, 1859040, Note_on_c, 3, 54, 106
5, 1859156, Note_off_c, 3, 54, 64
5, 1859160, Note_on_c, 3, 55, 101
5, 1859276, Note_off_c, 3, 55, 64
5, 1859280, Note_on_c, 3, 50, 104
5, 1859396, Note_off_c, 3, 50, 64
5, 1859400, Note_on_c, 3, 47, 115
5, 1859516, Note_off_c, 3, 47, 64
5, 1859520, Note_on_c, 3, 45, 101
5, 1859636, Note_off_c, 3, 45, 64
5, 1859640, Note_on_c, 3, 47, 117
5, 1859756, Note_off_c, 3, 47, 64
5, 1859760, Note_on_c, 3, 43, 124
5, 1860236, Note_off_c, 3, 43, 64
5, 1861680, Note_on_c, 3, 55, 111
5, 1861916, Note_off_c, 3, 55, 64
5, 1861920, Note_on_c, 3, 43, 121
5, 1862156, Note_off_c, 3, 43, 64
5, 1862160, Note_on_c, 3, 66, 106
5, 1862160, Note_on_c, 3, 60, 115
5, 1862160, Note_on_c, 3, 57, 109
5, 1862276, Note_off_c, 3, 66, 64
5, 1862276, Note_off_c, 3, 60, 64
5, 1862276, Note_off_c, 3, 57, 64
5, 1862400, Note_on_c, 3, 66, 99
5, 1862400, Note_on_c, 3, 60, 117
5, 1862400, Note_on_c, 3, 57, 119
5, 1862516, Note_off_c, 3, 66, 64
5, 1862516, Note_off_c, 3, 60, 64
5, 1862516, Note_off_c, 3, 57, 64
5, 1862640, Note_on_c, 3, 66, 104
5, 1862640, Note_on_c, 3, 60, 115
5, 1862640, Note_on_c, 3, 57, 119
5, 1862756, Note_off_c, 3, 66, 64
5, 1862756, Note_off_c, 3, 60, 64
5, 1862756, Note_off_c, 3, 57, 64
5, 1862880, Note_on_c, 3, 66, 106
5, 1862880, Note_on_c, 3, 57, 121
5, 1862880, Note_on_c, 3, 60, 121
5, 1862996, Note_off_c, 3, 66, 64
5, 1862996, Note_off_c, 3, 57, 64
5, 1862996, Note_off_c, 3, 60, 64
5, 1863120, Note_on_c, 3, 54, 121
5, 1863356, Note_off_c, 3, 54, 64
5, 1863360, Note_on_c, 3, 42, 123
5, 1863476, Note_off_c, 3, 42, 64
5, 1863600, Note_on_c, 3, 64, 111
5, 1863600, Note_on_c, 3, 67, 106
5, 1863600, Note_on_c, 3, 73, 102
5, 1863716, Note_off_c, 3, 64, 64
5, 1863716, Note_off_c, 3, 67, 64
5, 1863716, Note_off_c, 3, 73, 64
5, 1863840, Note_on_c, 3, 64, 115
5, 1863840, Note_on_c, 3, 67, 117
5, 1863840, Note_on_c, 3, 73, 108
5, 1863956, Note_off_c, 3, 64, 64
5, 1863956, Note_off_c, 3, 67, 64
5, 1863956, Note_off_c, 3, 73, 64
5, 1864080, Note_on_c, 3, 73, 108
5, 1864080, Note_on_c, 3, 64, 123
5, 1864080, Note_on_c, 3, 67, 119
5, 1864196, Note_off_c, 3, 73, 64
5, 1864196, Note_off_c, 3, 64, 64
5, 1864196, Note_off_c, 3, 67, 64
5, 1864320, Note_on_c, 3, 64, 119
5, 1864320, Note_on_c, 3, 73, 108
5, 1864320, Note_on_c, 3, 67, 119
5, 1864436, Note_off_c, 3, 64, 64
5, 1864436, Note_off_c, 3, 73, 64
5, 1864436, Note_off_c, 3, 67, 64
5, 1864560, Note_on_c, 3, 52, 115
5, 1864796, Note_off_c, 3, 52, 64
5, 1864800, Note_on_c, 3, 40, 117
5, 1864916, Note_off_c, 3, 40, 64
5, 1865040, Note_on_c, 3, 74, 117
5, 1865040, Note_on_c, 3, 78, 112
5, 1865040, Note_on_c, 3, 69, 115
5, 1865156, Note_off_c, 3, 74, 64
5, 1865156, Note_off_c, 3, 78, 64
5, 1865156, Note_off_c, 3, 69, 64
5, 1865280, Note_on_c, 3, 73, 106
5, 1865280, Note_on_c, 3, 67, 107
5, 1865280, Note_on_c, 3, 76, 107
5, 1865396, Note_off_c, 3, 73, 64
5, 1865396, Note_off_c, 3, 67, 64
5, 1865396, Note_off_c, 3, 76, 64
5, 1865520, Note_on_c, 3, 78, 104
5, 1865520, Note_on_c, 3, 74, 113
5, 1865520, Note_on_c, 3, 69, 111
5, 1865636, Note_off_c, 3, 78, 64
5, 1865636, Note_off_c, 3, 74, 64
5, 1865636, Note_off_c, 3, 69, 64
5, 1865760, Note_on_c, 3, 73, 108
5, 1865760, Note_on_c, 3, 76, 109
5, 1865760, Note_on_c, 3, 67, 111
5, 1865876, Note_off_c, 3, 73, 64
5, 1865876, Note_off_c, 3, 76, 64
5, 1865876, Note_off_c, 3, 67, 64
5, 1866120, Note_on_c, 3, 62, 104
5, 1866236, Note_off_c, 3, 62, 64
5, 1866240, Note_on_c, 3, 57, 104
5, 1866356, Note_off_c, 3, 57, 64
5, 1866360, Note_on_c, 3, 54, 96
5, 1866476, Note_off_c, 3, 54, 64
5, 1866480, Note_on_c, 3, 50, 89
5, 1866660, Note_off_c, 3, 50, 64
5, 1866660, Note_on_c, 3, 62, 89
5, 1866720, Note_off_c, 3, 62, 64
5, 1866720, Note_on_c, 3, 52, 89
5, 1866900, Note_off_c, 3, 52, 64
5, 1866900, Note_on_c, 3, 60, 108
5, 1866960, Note_off_c, 3, 60, 64
5, 1866960, Note_on_c, 3, 50, 101
5, 1867140, Note_off_c, 3, 50, 64
5, 1867140, Note_on_c, 3, 59, 115
5, 1867200, Note_off_c, 3, 59, 64
5, 1867200, Note_on_c, 3, 48, 101
5, 1867380, Note_off_c, 3, 48, 64
5, 1867380, Note_on_c, 3, 57, 115
5, 1867440, Note_off_c, 3, 57, 64
5, 1867440, Note_on_c, 3, 47, 107
5, 1867676, Note_off_c, 3, 47, 64
5, 1867680, Note_on_c, 3, 59, 111
5, 1867916, Note_off_c, 3, 59, 64
5, 1867920, Note_on_c, 3, 72, 109
5, 1867920, Note_on_c, 3, 69, 92
5, 1867920, Note_on_c, 3, 78, 108
5, 1868036, Note_off_c, 3, 72, 64
5, 1868036, Note_off_c, 3, 69, 64
5, 1868036, Note_off_c, 3, 78, 64
5, 1868160, Note_on_c, 3, 78, 96
5, 1868160, Note_on_c, 3, 69, 95
5, 1868160, Note_on_c, 3, 72, 111
5, 1868276, Note_off_c, 3, 78, 64
5, 1868276, Note_off_c, 3, 69, 64
5, 1868276, Note_off_c, 3, 72, 64
5, 1868400, Note_on_c, 3, 72, 101
5, 1868400, Note_on_c, 3, 69, 88
5, 1868400, Note_on_c, 3, 78, 88
5, 1868516, Note_off_c, 3, 72, 64
5, 1868516, Note_off_c, 3, 69, 64
5, 1868516, Note_off_c, 3, 78, 64
5, 1868640, Note_on_c, 3, 67, 96
5, 1868640, Note_on_c, 3, 71, 104
5, 1868640, Note_on_c, 3, 74, 113
5, 1868756, Note_off_c, 3, 67, 64
5, 1868756, Note_off_c, 3, 71, 64
5, 1868756, Note_off_c, 3, 74, 64
5, 1868880, Note_on_c, 3, 48, 121
5, 1869116, Note_off_c, 3, 48, 64
5, 1869120, Note_on_c, 3, 60, 113
5, 1869356, Note_off_c, 3, 60, 64
5, 1869360, Note_on_c, 3, 74, 115
5, 1869360, Note_on_c, 3, 65, 109
5, 1869360, Note_on_c, 3, 71, 119
5, 1869476, Note_off_c, 3, 74, 64
5, 1869476, Note_off_c, 3, 65, 64
5, 1869476, Note_off_c, 3, 71, 64
5, 1869600, Note_on_c, 3, 65, 107
5, 1869600, Note_on_c, 3, 74, 119
5, 1869600, Note_on_c, 3, 71, 119
5, 1869716, Note_off_c, 3, 65, 64
5, 1869716, Note_off_c, 3, 74, 64
5, 1869716, Note_off_c, 3, 71, 64
5, 1869840, Note_on_c, 3, 65, 104
5, 1869840, Note_on_c, 3, 74, 115
5, 1869840, Note_on_c, 3, 71, 107
5, 1869956, Note_off_c, 3, 65, 64
5, 1869956, Note_off_c, 3, 74, 64
5, 1869956, Note_off_c, 3, 71, 64
5, 1870080, Note_on_c, 3, 69, 117
5, 1870080, Note_on_c, 3, 72, 121
5, 1870080, Note_on_c, 3, 64, 109
5, 1870196, Note_off_c, 3, 69, 64
5, 1870196, Note_off_c, 3, 72, 64
5, 1870196, Note_off_c, 3, 64, 64
5, 1870320, Note_on_c, 3, 50, 119
5, 1870556, Note_off_c, 3, 50, 64
5, 1870560, Note_on_c, 3, 62, 126
5, 1870796, Note_off_c, 3, 62, 64
5, 1870800, Note_on_c, 3, 64, 104
5, 1870800, Note_on_c, 3, 67, 111
5, 1870800, Note_on_c, 3, 73, 121
5, 1870916, Note_off_c, 3, 64, 64
5, 1870916, Note_off_c, 3, 67, 64
5, 1870916, Note_off_c, 3, 73, 64
5, 1871040, Note_on_c, 3, 73, 104
5, 1871040, Note_on_c, 3, 67, 102
5, 1871040, Note_on_c, 3, 64, 98
5, 1871156, Note_off_c, 3, 73, 64
5, 1871156, Note_off_c, 3, 67, 64
5, 1871156, Note_off_c, 3, 64, 64
5, 1871280, Note_on_c, 3, 73, 106
5, 1871280, Note_on_c, 3, 67, 102
5, 1871280, Note_on_c, 3, 64, 97
5, 1871396, Note_off_c, 3, 73, 64
5, 1871396, Note_off_c, 3, 67, 64
5, 1871396, Note_off_c, 3, 64, 64
5, 1871520, Note_on_c, 3, 66, 110
5, 1871520, Note_on_c, 3, 62, 101
5, 1871520, Note_on_c, 3, 69, 121
5, 1871636, Note_off_c, 3, 66, 64
5, 1871636, Note_off_c, 3, 62, 64
5, 1871636, Note_off_c, 3, 69, 64
5, 1871880, Note_on_c, 3, 55, 126
5, 1872000, Note_off_c, 3, 55, 64
5, 1872000, Note_on_c, 3, 50, 126
5, 1872120, Note_off_c, 3, 50, 64
5, 1872120, Note_on_c, 3, 47, 126
5, 1872240, Note_off_c, 3, 47, 64
5, 1872240, Note_on_c, 3, 43, 126
5, 1872420, Note_off_c, 3, 43, 64
5, 1872420, Note_on_c, 3, 55, 126
5, 1872480, Note_off_c, 3, 55, 64
5, 1872480, Note_on_c, 3, 54, 126
5, 1872660, Note_off_c, 3, 54, 64
5, 1872660, Note_on_c, 3, 62, 126
5, 1872720, Note_off_c, 3, 62, 64
5, 1872720, Note_on_c, 3, 55, 126
5, 1872900, Note_off_c, 3, 55, 64
5, 1872900, Note_on_c, 3, 64, 126
5, 1872960, Note_off_c, 3, 64, 64
5, 1872960, Note_on_c, 3, 57, 126
5, 1873140, Note_off_c, 3, 57, 64
5, 1873140, Note_on_c, 3, 66, 126
5, 1873200, Note_off_c, 3, 66, 64
5, 1873200, Note_on_c, 3, 59, 113
5, 1873276, Note_off_c, 3, 59, 64
5, 1873280, Note_on_c, 3, 62, 102
5, 1873356, Note_off_c, 3, 62, 64
5, 1873600, Note_on_c, 3, 57, 97
5, 1873676, Note_off_c, 3, 57, 64
5, 1873680, Note_on_c, 3, 59, 107
5, 1873756, Note_off_c, 3, 59, 64
5, 1873760, Note_on_c, 3, 62, 107
5, 1873836, Note_off_c, 3, 62, 64
5, 1874080, Note_on_c, 3, 60, 119
5, 1874156, Note_off_c, 3, 60, 64
5, 1874160, Note_on_c, 3, 62, 113
5, 1874236, Note_off_c, 3, 62, 64
5, 1874240, Note_on_c, 3, 67, 113
5, 1874316, Note_off_c, 3, 67, 64
5, 1874560, Note_on_c, 3, 64, 121
5, 1874636, Note_off_c, 3, 64, 64
5, 1874640, Note_on_c, 3, 66, 106
5, 1874716, Note_off_c, 3, 66, 64
5, 1874720, Note_on_c, 3, 69, 109
5, 1874796, Note_off_c, 3, 69, 64
5, 1875040, Note_on_c, 3, 64, 107
5, 1875116, Note_off_c, 3, 64, 64
5, 1875120, Note_on_c, 3, 66, 102
5, 1875196, Note_off_c, 3, 66, 64
5, 1875200, Note_on_c, 3, 69, 101
5, 1875276, Note_off_c, 3, 69, 64
5, 1875520, Note_on_c, 3, 67, 107
5, 1875596, Note_off_c, 3, 67, 64
5, 1875600, Note_on_c, 3, 69, 95
5, 1875676, Note_off_c, 3, 69, 64
5, 1875680, Note_on_c, 3, 74, 117
5, 1875756, Note_off_c, 3, 74, 64
5, 1876000, Note_on_c, 3, 69, 109
5, 1876076, Note_off_c, 3, 69, 64
5, 1876080, Note_on_c, 3, 67, 115
5, 1876156, Note_off_c, 3, 67, 64
5, 1876160, Note_on_c, 3, 71, 113
5, 1876236, Note_off_c, 3, 71, 64
5, 1876480, Note_on_c, 3, 66, 108
5, 1876556, Note_off_c, 3, 66, 64
5, 1876560, Note_on_c, 3, 64, 107
5, 1876636, Note_off_c, 3, 64, 64
5, 1876640, Note_on_c, 3, 67, 107
5, 1876716, Note_off_c, 3, 67, 64
5, 1876960, Note_on_c, 3, 62, 106
5, 1877036, Note_off_c, 3, 62, 64
5, 1877040, Note_on_c, 3, 61, 102
5, 1877116, Note_off_c, 3, 61, 64
5, 1877120, Note_on_c, 3, 64, 109
5, 1877196, Note_off_c, 3, 64, 64
5, 1877440, Note_on_c, 3, 59, 107
5, 1877516, Note_off_c, 3, 59, 64
5, 1877520, Note_on_c, 3, 57, 104
5, 1877596, Note_off_c, 3, 57, 64
5, 1877600, Note_on_c, 3, 61, 119
5, 1877676, Note_off_c, 3, 61, 64
5, 1877920, Note_on_c, 3, 59, 113
5, 1877996, Note_off_c, 3, 59, 64
5, 1878000, Note_on_c, 3, 57, 102
5, 1878076, Note_off_c, 3, 57, 64
5, 1878080, Note_on_c, 3, 61, 119
5, 1878156, Note_off_c, 3, 61, 64
5, 1878400, Note_on_c, 3, 55, 101
5, 1878476, Note_off_c, 3, 55, 64
5, 1878480, Note_on_c, 3, 54, 108
5, 1878556, Note_off_c, 3, 54, 64
5, 1878560, Note_on_c, 3, 57, 113
5, 1878636, Note_off_c, 3, 57, 64
5, 1878880, Note_on_c, 3, 52, 106
5, 1878956, Note_off_c, 3, 52, 64
5, 1878960, Note_on_c, 3, 50, 106
5, 1879036, Note_off_c, 3, 50, 64
5, 1879040, Note_on_c, 3, 54, 123
5, 1879116, Note_off_c, 3, 54, 64
5, 1879360, Note_on_c, 3, 52, 109
5, 1879436, Note_off_c, 3, 52, 64
5, 1879440, Note_on_c, 3, 50, 104
5, 1879516, Note_off_c, 3, 50, 64
5, 1879520, Note_on_c, 3, 54, 112
5, 1879596, Note_off_c, 3, 54, 64
5, 1879840, Note_on_c, 3, 48, 107
5, 1879916, Note_off_c, 3, 48, 64
5, 1879920, Note_on_c, 3, 47, 113
5, 1879996, Note_off_c, 3, 47, 64
5, 1880000, Note_on_c, 3, 50, 101
5, 1880076, Note_off_c, 3, 50, 64
5, 1880320, Note_on_c, 3, 45, 113
5, 1880396, Note_off_c, 3, 45, 64
5, 1880400, Note_on_c, 3, 43, 102
5, 1880476, Note_off_c, 3, 43, 64
5, 1880480, Note_on_c, 3, 47, 111
5, 1880556, Note_off_c, 3, 47, 64
5, 1880800, Note_on_c, 3, 45, 106
5, 1880876, Note_off_c, 3, 45, 64
5, 1880880, Note_on_c, 3, 43, 102
5, 1880956, Note_off_c, 3, 43, 64
5, 1880960, Note_on_c, 3, 47, 107
5, 1881036, Note_off_c, 3, 47, 64
5, 1881280, Note_on_c, 3, 42, 104
5, 1881356, Note_off_c, 3, 42, 64
5, 1881360, Note_on_c, 3, 40, 97
5, 1881436, Note_off_c, 3, 40, 64
5, 1881440, Note_on_c, 3, 43, 119
5, 1881516, Note_off_c, 3, 43, 64
5, 1881760, Note_on_c, 3, 38, 119
5, 1881836, Note_off_c, 3, 38, 64
5, 1881840, Note_on_c, 3, 37, 125
5, 1882076, Note_off_c, 3, 37, 64
5, 1882080, Note_on_c, 3, 49, 112
5, 1882316, Note_off_c, 3, 49, 64
5, 1882320, Note_on_c, 3, 50, 106
5, 1882556, Note_off_c, 3, 50, 64
5, 1882560, Note_on_c, 3, 42, 121
5, 1882796, Note_off_c, 3, 42, 64
5, 1882800, Note_on_c, 3, 43, 115
5, 1883036, Note_off_c, 3, 43, 64
5, 1883040, Note_on_c, 3, 45, 121
5, 1883276, Note_off_c, 3, 45, 64
5, 1883280, Note_on_c, 3, 38, 117
5, 1883516, Note_off_c, 3, 38, 64
5, 1883520, Note_on_c, 3, 50, 115
5, 1883756, Note_off_c, 3, 50, 64
5, 1883760, Note_on_c, 3, 61, 115
5, 1883760, Note_on_c, 3, 52, 106
5, 1883760, Note_on_c, 3, 55, 109
5, 1883876, Note_off_c, 3, 61, 64
5, 1883876, Note_off_c, 3, 52, 64
5, 1883876, Note_off_c, 3, 55, 64
5, 1884000, Note_on_c, 3, 61, 110
5, 1884000, Note_on_c, 3, 55, 101
5, 1884000, Note_on_c, 3, 52, 100
5, 1884116, Note_off_c, 3, 61, 64
5, 1884116, Note_off_c, 3, 55, 64
5, 1884116, Note_off_c, 3, 52, 64
5, 1884240, Note_on_c, 3, 38, 124
5, 1884716, Note_off_c, 3, 38, 64
5, 1884720, Note_on_c, 3, 78, 115
5, 1884796, Note_off_c, 3, 78, 64
5, 1884800, Note_on_c, 3, 81, 109
5, 1884876, Note_off_c, 3, 81, 64
5, 1885120, Note_on_c, 3, 76, 102
5, 1885196, Note_off_c, 3, 76, 64
5, 1885200, Note_on_c, 3, 74, 107
5, 1885276, Note_off_c, 3, 74, 64
5, 1885280, Note_on_c, 3, 78, 121
5, 1885356, Note_off_c, 3, 78, 64
5, 1885600, Note_on_c, 3, 72, 113
5, 1885676, Note_off_c, 3, 72, 64
5, 1885680, Note_on_c, 3, 71, 102
5, 1885756, Note_off_c, 3, 71, 64
5, 1885760, Note_on_c, 3, 74, 102
5, 1885836, Note_off_c, 3, 74, 64
5, 1886080, Note_on_c, 3, 69, 109
5, 1886156, Note_off_c, 3, 69, 64
5, 1886160, Note_on_c, 3, 67, 96
5, 1886236, Note_off_c, 3, 67, 64
5, 1886240, Note_on_c, 3, 71, 104
5, 1886316, Note_off_c, 3, 71, 64
5, 1886560, Note_on_c, 3, 69, 106
5, 1886636, Note_off_c, 3, 69, 64
5, 1886640, Note_on_c, 3, 67, 101
5, 1886716, Note_off_c, 3, 67, 64
5, 1886720, Note_on_c, 3, 71, 107
5, 1886796, Note_off_c, 3, 71, 64
5, 1887040, Note_on_c, 3, 66, 119
5, 1887116, Note_off_c, 3, 66, 64
5, 1887120, Note_on_c, 3, 64, 102
5, 1887196, Note_off_c, 3, 64, 64
5, 1887200, Note_on_c, 3, 67, 107
5, 1887276, Note_off_c, 3, 67, 64
5, 1887520, Note_on_c, 3, 62, 109
5, 1887596, Note_off_c, 3, 62, 64
5, 1887600, Note_on_c, 3, 60, 113
5, 1887676, Note_off_c, 3, 60, 64
5, 1887680, Note_on_c, 3, 64, 104
5, 1887756, Note_off_c, 3, 64, 64
5, 1888000, Note_on_c, 3, 59, 115
5, 1888076, Note_off_c, 3, 59, 64
5, 1888080, Note_on_c, 3, 57, 107
5, 1888156, Note_off_c, 3, 57, 64
5, 1888160, Note_on_c, 3, 60, 107
5, 1888236, Note_off_c, 3, 60, 64
5, 1888480, Note_on_c, 3, 55, 104
5, 1888556, Note_off_c, 3, 55, 64
5, 1888560, Note_on_c, 3, 54, 112
5, 1888636, Note_off_c, 3, 54, 64
5, 1888640, Note_on_c, 3, 57, 113
5, 1888716, Note_off_c, 3, 57, 64
5, 1888960, Note_on_c, 3, 52, 113
5, 1889036, Note_off_c, 3, 52, 64
5, 1889040, Note_on_c, 3, 51, 115
5, 1889116, Note_off_c, 3, 51, 64
5, 1889120, Note_on_c, 3, 54, 123
5, 1889196, Note_off_c, 3, 54, 64
5, 1889440, Note_on_c, 3, 49, 106
5, 1889516, Note_off_c, 3, 49, 64
5, 1889520, Note_on_c, 3, 47, 111
5, 1889580, Note_on_c, 3, 51, 117
5, 1889596, Note_off_c, 3, 47, 64
5, 1889656, Note_off_c, 3, 51, 64
5, 1889920, Note_on_c, 3, 45, 111
5, 1889996, Note_off_c, 3, 45, 64
5, 1890000, Note_on_c, 3, 43, 101
5, 1890076, Note_off_c, 3, 43, 64
5, 1890080, Note_on_c, 3, 47, 113
5, 1890156, Note_off_c, 3, 47, 64
5, 1890400, Note_on_c, 3, 42, 121
5, 1890476, Note_off_c, 3, 42, 64
5, 1890480, Note_on_c, 3, 40, 117
5, 1890716, Note_off_c, 3, 40, 64
5, 1890720, Note_on_c, 3, 52, 124
5, 1890956, Note_off_c, 3, 52, 64
5, 1890960, Note_on_c, 3, 66, 104
5, 1890960, Note_on_c, 3, 69, 111
5, 1890960, Note_on_c, 3, 75, 106
5, 1891076, Note_off_c, 3, 66, 64
5, 1891076, Note_off_c, 3, 69, 64
5, 1891076, Note_off_c, 3, 75, 64
5, 1891200, Note_on_c, 3, 75, 102
5, 1891200, Note_on_c, 3, 66, 115
5, 1891200, Note_on_c, 3, 69, 111
5, 1891316, Note_off_c, 3, 75, 64
5, 1891316, Note_off_c, 3, 66, 64
5, 1891316, Note_off_c, 3, 69, 64
5, 1891440, Note_on_c, 3, 55, 113
5, 1891440, Note_on_c, 3, 67, 126
5, 1891556, Note_off_c, 3, 55, 64
5, 1891556, Note_off_c, 3, 67, 64
5, 1891680, Note_on_c, 3, 75, 99
5, 1891680, Note_on_c, 3, 66, 102
5, 1891680, Note_on_c, 3, 69, 107
5, 1891796, Note_off_c, 3, 75, 64
5, 1891796, Note_off_c, 3, 66, 64
5, 1891796, Note_off_c, 3, 69, 64
5, 1891920, Note_on_c, 3, 48, 127
5, 1892156, Note_off_c, 3, 48, 64
5, 1892160, Note_on_c, 3, 60, 126
5, 1892396, Note_off_c, 3, 60, 64
5, 1892400, Note_on_c, 3, 75, 108
5, 1892400, Note_on_c, 3, 66, 117
5, 1892400, Note_on_c, 3, 69, 113
5, 1892516, Note_off_c, 3, 75, 64
5, 1892516, Note_off_c, 3, 66, 64
5, 1892516, Note_off_c, 3, 69, 64
5, 1892640, Note_on_c, 3, 75, 110
5, 1892640, Note_on_c, 3, 66, 108
5, 1892640, Note_on_c, 3, 69, 113
5, 1892756, Note_off_c, 3, 75, 64
5, 1892756, Note_off_c, 3, 66, 64
5, 1892756, Note_off_c, 3, 69, 64
5, 1892880, Note_on_c, 3, 71, 123
5, 1892880, Note_on_c, 3, 59, 113
5, 1892996, Note_off_c, 3, 71, 64
5, 1892996, Note_off_c, 3, 59, 64
5, 1893120, Note_on_c, 3, 69, 113
5, 1893120, Note_on_c, 3, 66, 112
5, 1893120, Note_on_c, 3, 75, 110
5, 1893236, Note_off_c, 3, 69, 64
5, 1893236, Note_off_c, 3, 66, 64
5, 1893236, Note_off_c, 3, 75, 64
5, 1893360, Note_on_c, 3, 57, 107
5, 1893596, Note_off_c, 3, 57, 64
5, 1893600, Note_on_c, 3, 51, 117
5, 1893836, Note_off_c, 3, 51, 64
5, 1893840, Note_on_c, 3, 52, 121
5, 1894076, Note_off_c, 3, 52, 64
5, 1894080, Note_on_c, 3, 57, 124
5, 1894316, Note_off_c, 3, 57, 64
5, 1894320, Note_on_c, 3, 59, 126
5, 1894556, Note_off_c, 3, 59, 64
5, 1894560, Note_on_c, 3, 47, 117
5, 1894796, Note_off_c, 3, 47, 64
5, 1894800, Note_on_c, 3, 52, 127
5, 1895036, Note_off_c, 3, 52, 64
5, 1895040, Note_on_c, 3, 75, 110
5, 1895040, Note_on_c, 3, 66, 117
5, 1895040, Note_on_c, 3, 69, 109
5, 1895156, Note_off_c, 3, 75, 64
5, 1895156, Note_off_c, 3, 66, 64
5, 1895156, Note_off_c, 3, 69, 64
5, 1895280, Note_on_c, 3, 66, 112
5, 1895280, Note_on_c, 3, 63, 117
5, 1895280, Note_on_c, 3, 71, 113
5, 1895396, Note_off_c, 3, 66, 64
5, 1895396, Note_off_c, 3, 63, 64
5, 1895396, Note_off_c, 3, 71, 64
5, 1895520, Note_on_c, 3, 63, 110
5, 1895520, Note_on_c, 3, 66, 110
5, 1895520, Note_on_c, 3, 71, 121
5, 1895636, Note_off_c, 3, 63, 64
5, 1895636, Note_off_c, 3, 66, 64
5, 1895636, Note_off_c, 3, 71, 64
5, 1895760, Note_on_c, 3, 57, 102
5, 1895760, Note_on_c, 3, 66, 117
5, 1895760, Note_on_c, 3, 63, 121
5, 1895876, Note_off_c, 3, 57, 64
5, 1895876, Note_off_c, 3, 66, 64
5, 1895876, Note_off_c, 3, 63, 64
5, 1896000, Note_on_c, 3, 57, 107
5, 1896000, Note_on_c, 3, 63, 110
5, 1896000, Note_on_c, 3, 66, 119
5, 1896116, Note_off_c, 3, 57, 64
5, 1896116, Note_off_c, 3, 63, 64
5, 1896116, Note_off_c, 3, 66, 64
5, 1896240, Note_on_c, 3, 48, 127
5, 1896476, Note_off_c, 3, 48, 64
5, 1896480, Note_on_c, 3, 59, 107
5, 1896716, Note_off_c, 3, 59, 64
5, 1896720, Note_on_c, 3, 57, 119
5, 1896956, Note_off_c, 3, 57, 64
5, 1896960, Note_on_c, 3, 56, 125
5, 1897196, Note_off_c, 3, 56, 64
5, 1897200, Note_on_c, 3, 57, 124
5, 1897436, Note_off_c, 3, 57, 64
5, 1897440, Note_on_c, 3, 48, 121
5, 1897676, Note_off_c, 3, 48, 64
5, 1897680, Note_on_c, 3, 47, 124
5, 1897916, Note_off_c, 3, 47, 64
5, 1897920, Note_on_c, 3, 57, 127
5, 1898156, Note_off_c, 3, 57, 64
5, 1898160, Note_on_c, 3, 55, 115
5, 1898396, Note_off_c, 3, 55, 64
5, 1898400, Note_on_c, 3, 54, 115
5, 1898636, Note_off_c, 3, 54, 64
5, 1898640, Note_on_c, 3, 55, 119
5, 1898876, Note_off_c, 3, 55, 64
5, 1898880, Note_on_c, 3, 47, 126
5, 1899116, Note_off_c, 3, 47, 64
5, 1899120, Note_on_c, 3, 45, 123
5, 1899196, Note_off_c, 3, 45, 64
5, 1899200, Note_on_c, 3, 57, 121
5, 1899276, Note_off_c, 3, 57, 64
5, 1899520, Note_on_c, 3, 59, 113
5, 1899596, Note_off_c, 3, 59, 64
5, 1899600, Note_on_c, 3, 57, 115
5, 1899676, Note_off_c, 3, 57, 64
5, 1899680, Note_on_c, 3, 60, 115
5, 1899756, Note_off_c, 3, 60, 64
5, 1900000, Note_on_c, 3, 55, 106
5, 1900076, Note_off_c, 3, 55, 64
5, 1900080, Note_on_c, 3, 54, 112
5, 1900156, Note_off_c, 3, 54, 64
5, 1900160, Note_on_c, 3, 57, 115
5, 1900236, Note_off_c, 3, 57, 64
5, 1900480, Note_on_c, 3, 52, 113
5, 1900556, Note_off_c, 3, 52, 64
5, 1900560, Note_on_c, 3, 50, 113
5, 1900636, Note_off_c, 3, 50, 64
5, 1900640, Note_on_c, 3, 62, 123
5, 1900716, Note_off_c, 3, 62, 64
5, 1900960, Note_on_c, 3, 64, 107
5, 1901036, Note_off_c, 3, 64, 64
5, 1901040, Note_on_c, 3, 62, 96
5, 1901116, Note_off_c, 3, 62, 64
5, 1901120, Note_on_c, 3, 66, 117
5, 1901196, Note_off_c, 3, 66, 64
5, 1901440, Note_on_c, 3, 60, 113
5, 1901516, Note_off_c, 3, 60, 64
5, 1901520, Note_on_c, 3, 59, 115
5, 1901596, Note_off_c, 3, 59, 64
5, 1901600, Note_on_c, 3, 62, 107
5, 1901676, Note_off_c, 3, 62, 64
5, 1901920, Note_on_c, 3, 57, 107
5, 1901996, Note_off_c, 3, 57, 64
5, 1902000, Note_on_c, 3, 55, 109
5, 1902076, Note_off_c, 3, 55, 64
5, 1902080, Note_on_c, 3, 67, 123
5, 1902156, Note_off_c, 3, 67, 64
5, 1902400, Note_on_c, 3, 69, 100
5, 1902476, Note_off_c, 3, 69, 64
5, 1902480, Note_on_c, 3, 67, 109
5, 1902556, Note_off_c, 3, 67, 64
5, 1902560, Note_on_c, 3, 71, 111
5, 1902636, Note_off_c, 3, 71, 64
5, 1902880, Note_on_c, 3, 65, 111
5, 1902956, Note_off_c, 3, 65, 64
5, 1902960, Note_on_c, 3, 64, 107
5, 1903036, Note_off_c, 3, 64, 64
5, 1903040, Note_on_c, 3, 67, 104
5, 1903116, Note_off_c, 3, 67, 64
5, 1903360, Note_on_c, 3, 62, 115
5, 1903436, Note_off_c, 3, 62, 64
5, 1903440, Note_on_c, 3, 60, 111
5, 1903516, Note_off_c, 3, 60, 64
5, 1903520, Note_on_c, 3, 72, 127
5, 1903596, Note_off_c, 3, 72, 64
5, 1903840, Note_on_c, 3, 74, 102
5, 1903916, Note_off_c, 3, 74, 64
5, 1903920, Note_on_c, 3, 72, 115
5, 1903996, Note_off_c, 3, 72, 64
5, 1904000, Note_on_c, 3, 76, 117
5, 1904076, Note_off_c, 3, 76, 64
5, 1904320, Note_on_c, 3, 71, 113
5, 1904396, Note_off_c, 3, 71, 64
5, 1904400, Note_on_c, 3, 69, 107
5, 1904476, Note_off_c, 3, 69, 64
5, 1904480, Note_on_c, 3, 72, 123
5, 1904556, Note_off_c, 3, 72, 64
5, 1904800, Note_on_c, 3, 67, 117
5, 1904876, Note_off_c, 3, 67, 64
5, 1904880, Note_on_c, 3, 66, 127
5, 1905116, Note_off_c, 3, 66, 64
5, 1905120, Note_on_c, 3, 57, 115
5, 1905356, Note_off_c, 3, 57, 64
5, 1905360, Note_on_c, 3, 59, 115
5, 1905596, Note_off_c, 3, 59, 64
5, 1905600, Note_on_c, 3, 60, 121
5, 1905836, Note_off_c, 3, 60, 64
5, 1905840, Note_on_c, 3, 62, 119
5, 1906076, Note_off_c, 3, 62, 64
5, 1906080, Note_on_c, 3, 50, 115
5, 1906316, Note_off_c, 3, 50, 64
5, 1906320, Note_on_c, 3, 55, 121
5, 1906556, Note_off_c, 3, 55, 64
5, 1906560, Note_on_c, 3, 43, 121
5, 1906796, Note_off_c, 3, 43, 64
5, 1906800, Note_on_c, 3, 72, 113
5, 1906800, Note_on_c, 3, 69, 97
5, 1906800, Note_on_c, 3, 78, 115
5, 1906916, Note_off_c, 3, 72, 64
5, 1906916, Note_off_c, 3, 69, 64
5, 1906916, Note_off_c, 3, 78, 64
5, 1907040, Note_on_c, 3, 72, 115
5, 1907040, Note_on_c, 3, 78, 106
5, 1907040, Note_on_c, 3, 69, 102
5, 1907156, Note_off_c, 3, 72, 64
5, 1907156, Note_off_c, 3, 78, 64
5, 1907156, Note_off_c, 3, 69, 64
5, 1907280, Note_on_c, 3, 55, 124
5, 1907756, Note_off_c, 3, 55, 64
5, 1909680, Note_on_c, 3, 55, 111
5, 1910636, Note_off_c, 3, 55, 64
5, 1910640, Note_on_c, 3, 54, 117
5, 1911596, Note_off_c, 3, 54, 64
5, 1911600, Note_on_c, 3, 52, 119
5, 1912556, Note_off_c, 3, 52, 64
5, 1912560, Note_on_c, 3, 50, 106
5, 1913276, Note_off_c, 3, 50, 64
5, 1913280, Note_on_c, 3, 48, 111
5, 1913516, Note_off_c, 3, 48, 64
5, 1913520, Note_on_c, 3, 47, 113
5, 1914476, Note_off_c, 3, 47, 64
5, 1914480, Note_on_c, 3, 48, 109
5, 1915436, Note_off_c, 3, 48, 64
5, 1915440, Note_on_c, 3, 50, 104
5, 1916396, Note_off_c, 3, 50, 64
5, 1916400, Note_on_c, 3, 43, 115
5, 1916876, Note_off_c, 3, 43, 64
5, 1917120, Note_on_c, 3, 59, 106
5, 1917236, Note_off_c, 3, 59, 64
5, 1917240, Note_on_c, 3, 57, 101
5, 1917356, Note_off_c, 3, 57, 64
5, 1917360, Note_on_c, 3, 55, 102
5, 1917596, Note_off_c, 3, 55, 64
5, 1917600, Note_on_c, 3, 54, 106
5, 1917716, Note_off_c, 3, 54, 64
5, 1917720, Note_on_c, 3, 55, 97
5, 1917836, Note_off_c, 3, 55, 64
5, 1917840, Note_on_c, 3, 52, 111
5, 1918076, Note_off_c, 3, 52, 64
5, 1918080, Note_on_c, 3, 50, 100
5, 1918196, Note_off_c, 3, 50, 64
5, 1918200, Note_on_c, 3, 52, 109
5, 1918316, Note_off_c, 3, 52, 64
5, 1918320, Note_on_c, 3, 54, 110
5, 1919036, Note_off_c, 3, 54, 64
5, 1919040, Note_on_c, 3, 59, 115
5, 1919276, Note_off_c, 3, 59, 64
5, 1919280, Note_on_c, 3, 52, 102
5, 1919996, Note_off_c, 3, 52, 64
5, 1920000, Note_on_c, 3, 54, 106
5, 1920116, Note_off_c, 3, 54, 64
5, 1920120, Note_on_c, 3, 55, 98
5, 1920236, Note_off_c, 3, 55, 64
5, 1920240, Note_on_c, 3, 57, 100
5, 1920836, Note_off_c, 3, 57, 64
5, 1920840, Note_on_c, 3, 55, 102
5, 1920956, Note_off_c, 3, 55, 64
5, 1920960, Note_on_c, 3, 54, 115
5, 1921076, Note_off_c, 3, 54, 64
5, 1921080, Note_on_c, 3, 52, 102
5, 1921196, Note_off_c, 3, 52, 64
5, 1921200, Note_on_c, 3, 54, 121
5, 1921676, Note_off_c, 3, 54, 64
5, 1921680, Note_on_c, 3, 50, 106
5, 1922156, Note_off_c, 3, 50, 64
5, 1922160, Note_on_c, 3, 55, 115
5, 1922636, Note_off_c, 3, 55, 64
5, 1922640, Note_on_c, 3, 43, 117
5, 1923116, Note_off_c, 3, 43, 64
5, 1923120, Note_on_c, 3, 45, 121
5, 1924076, Note_off_c, 3, 45, 64
5, 1924080, Note_on_c, 3, 38, 106
5, 1924796, Note_off_c, 3, 38, 64
5, 1925040, Note_on_c, 3, 55, 115
5, 1925996, Note_off_c, 3, 55, 64
5, 1926000, Note_on_c, 3, 54, 101
5, 1926956, Note_off_c, 3, 54, 64
5, 1926960, Note_on_c, 3, 52, 111
5, 1927916, Note_off_c, 3, 52, 64
5, 1927920, Note_on_c, 3, 50, 113
5, 1928636, Note_off_c, 3, 50, 64
5, 1928640, Note_on_c, 3, 48, 111
5, 1928876, Note_off_c, 3, 48, 64
5, 1928880, Note_on_c, 3, 47, 107
5, 1929836, Note_off_c, 3, 47, 64
5, 1929840, Note_on_c, 3, 48, 104
5, 1930796, Note_off_c, 3, 48, 64
5, 1930800, Note_on_c, 3, 50, 111
5, 1931756, Note_off_c, 3, 50, 64
5, 1931760, Note_on_c, 3, 43, 104
5, 1932236, Note_off_c, 3, 43, 64
5, 1932480, Note_on_c, 3, 59, 102
5, 1932596, Note_off_c, 3, 59, 64
5, 1932600, Note_on_c, 3, 57, 101
5, 1932716, Note_off_c, 3, 57, 64
5, 1932720, Note_on_c, 3, 55, 101
5, 1932956, Note_off_c, 3, 55, 64
5, 1932960, Note_on_c, 3, 54, 99
5, 1933076, Note_off_c, 3, 54, 64
5, 1933080, Note_on_c, 3, 55, 93
5, 1933196, Note_off_c, 3, 55, 64
5, 1933200, Note_on_c, 3, 52, 109
5, 1933436, Note_off_c, 3, 52, 64
5, 1933440, Note_on_c, 3, 50, 100
5, 1933556, Note_off_c, 3, 50, 64
5, 1933560, Note_on_c, 3, 52, 104
5, 1933676, Note_off_c, 3, 52, 64
5, 1933680, Note_on_c, 3, 54, 106
5, 1934396, Note_off_c, 3, 54, 64
5, 1934400, Note_on_c, 3, 59, 109
5, 1934636, Note_off_c, 3, 59, 64
5, 1934640, Note_on_c, 3, 52, 109
5, 1935356, Note_off_c, 3, 52, 64
5, 1935360, Note_on_c, 3, 54, 112
5, 1935476, Note_off_c, 3, 54, 64
5, 1935480, Note_on_c, 3, 55, 100
5, 1935596, Note_off_c, 3, 55, 64
5, 1935600, Note_on_c, 3, 57, 106
5, 1936196, Note_off_c, 3, 57, 64
5, 1936200, Note_on_c, 3, 55, 97
5, 1936316, Note_off_c, 3, 55, 64
5, 1936320, Note_on_c, 3, 54, 110
5, 1936436, Note_off_c, 3, 54, 64
5, 1936440, Note_on_c, 3, 52, 98
5, 1936556, Note_off_c, 3, 52, 64
5, 1936560, Note_on_c, 3, 54, 121
5, 1937036, Note_off_c, 3, 54, 64
5, 1937040, Note_on_c, 3, 50, 107
5, 1937516, Note_off_c, 3, 50, 64
5, 1937520, Note_on_c, 3, 55, 115
5, 1937996, Note_off_c, 3, 55, 64
5, 1938000, Note_on_c, 3, 43, 111
5, 1938476, Note_off_c, 3, 43, 64
5, 1938480, Note_on_c, 3, 45, 106
5, 1939436, Note_off_c, 3, 45, 64
5, 1939440, Note_on_c, 3, 38, 115
5, 1939916, Note_off_c, 3, 38, 64
5, 1940400, Note_on_c, 3, 62, 106
5, 1940876, Note_off_c, 3, 62, 64
5, 1940880, Note_on_c, 3, 60, 100
5, 1941356, Note_off_c, 3, 60, 64
5, 1941360, Note_on_c, 3, 59, 104
5, 1941836, Note_off_c, 3, 59, 64
5, 1941840, Note_on_c, 3, 55, 102
5, 1942316, Note_off_c, 3, 55, 64
5, 1942320, Note_on_c, 3, 60, 106
5, 1942556, Note_off_c, 3, 60, 64
5, 1942560, Note_on_c, 3, 59, 104
5, 1942796, Note_off_c, 3, 59, 64
5, 1942800, Note_on_c, 3, 60, 107
5, 1943036, Note_off_c, 3, 60, 64
5, 1943040, Note_on_c, 3, 57, 101
5, 1943276, Note_off_c, 3, 57, 64
5, 1943280, Note_on_c, 3, 59, 113
5, 1943996, Note_off_c, 3, 59, 64
5, 1944000, Note_on_c, 3, 57, 109
5, 1944236, Note_off_c, 3, 57, 64
5, 1944240, Note_on_c, 3, 55, 107
5, 1944476, Note_off_c, 3, 55, 64
5, 1944480, Note_on_c, 3, 64, 98
5, 1944716, Note_off_c, 3, 64, 64
5, 1944720, Note_on_c, 3, 55, 97
5, 1944956, Note_off_c, 3, 55, 64
5, 1944960, Note_on_c, 3, 64, 109
5, 1945196, Note_off_c, 3, 64, 64
5, 1945200, Note_on_c, 3, 57, 106
5, 1945916, Note_off_c, 3, 57, 64
5, 1945920, Note_on_c, 3, 58, 115
5, 1946156, Note_off_c, 3, 58, 64
5, 1946160, Note_on_c, 3, 59, 100
5, 1946636, Note_off_c, 3, 59, 64
5, 1946640, Note_on_c, 3, 47, 123
5, 1947116, Note_off_c, 3, 47, 64
5, 1947120, Note_on_c, 3, 52, 115
5, 1947836, Note_off_c, 3, 52, 64
5, 1947840, Note_on_c, 3, 50, 106
5, 1948076, Note_off_c, 3, 50, 64
5, 1948080, Note_on_c, 3, 48, 113
5, 1948556, Note_off_c, 3, 48, 64
5, 1948560, Note_on_c, 3, 60, 117
5, 1949036, Note_off_c, 3, 60, 64
5, 1949040, Note_on_c, 3, 59, 100
5, 1949756, Note_off_c, 3, 59, 64
5, 1949760, Note_on_c, 3, 60, 102
5, 1949876, Note_off_c, 3, 60, 64
5, 1949880, Note_on_c, 3, 59, 101
5, 1949996, Note_off_c, 3, 59, 64
5, 1950000, Note_on_c, 3, 57, 107
5, 1950716, Note_off_c, 3, 57, 64
5, 1950720, Note_on_c, 3, 59, 104
5, 1950836, Note_off_c, 3, 59, 64
5, 1950840, Note_on_c, 3, 60, 95
5, 1950956, Note_off_c, 3, 60, 64
5, 1950960, Note_on_c, 3, 62, 107
5, 1951676, Note_off_c, 3, 62, 64
5, 1951680, Note_on_c, 3, 60, 102
5, 1951796, Note_off_c, 3, 60, 64
5, 1951800, Note_on_c, 3, 62, 102
5, 1951916, Note_off_c, 3, 62, 64
5, 1951920, Note_on_c, 3, 55, 96
5, 1952156, Note_off_c, 3, 55, 64
5, 1952160, Note_on_c, 3, 57, 96
5, 1952396, Note_off_c, 3, 57, 64
5, 1952400, Note_on_c, 3, 59, 104
5, 1952636, Note_off_c, 3, 59, 64
5, 1952640, Note_on_c, 3, 55, 101
5, 1952876, Note_off_c, 3, 55, 64
5, 1952880, Note_on_c, 3, 60, 115
5, 1953596, Note_off_c, 3, 60, 64
5, 1953600, Note_on_c, 3, 61, 108
5, 1953836, Note_off_c, 3, 61, 64
5, 1953840, Note_on_c, 3, 62, 107
5, 1954316, Note_off_c, 3, 62, 64
5, 1954320, Note_on_c, 3, 50, 107
5, 1954796, Note_off_c, 3, 50, 64
5, 1954800, Note_on_c, 3, 55, 104
5, 1955276, Note_off_c, 3, 55, 64
5, 1955280, Note_on_c, 3, 43, 111
5, 1955520, Note_off_c, 3, 43, 64
5, 1955760, Note_on_c, 3, 62, 106
5, 1956236, Note_off_c, 3, 62, 64
5, 1956240, Note_on_c, 3, 60, 100
5, 1956716, Note_off_c, 3, 60, 64
5, 1956720, Note_on_c, 3, 59, 104
5, 1957196, Note_off_c, 3, 59, 64
5, 1957200, Note_on_c, 3, 55, 102
5, 1957676, Note_off_c, 3, 55, 64
5, 1957680, Note_on_c, 3, 60, 106
5, 1957916, Note_off_c, 3, 60, 64
5, 1957920, Note_on_c, 3, 59, 104
5, 1958156, Note_off_c, 3, 59, 64
5, 1958160, Note_on_c, 3, 60, 107
5, 1958396, Note_off_c, 3, 60, 64
5, 1958400, Note_on_c, 3, 57, 101
5, 1958636, Note_off_c, 3, 57, 64
5, 1958640, Note_on_c, 3, 59, 113
5, 1959356, Note_off_c, 3, 59, 64
5, 1959360, Note_on_c, 3, 57, 109
5, 1959596, Note_off_c, 3, 57, 64
5, 1959600, Note_on_c, 3, 55, 107
5, 1959836, Note_off_c, 3, 55, 64
5, 1959840, Note_on_c, 3, 64, 98
5, 1960076, Note_off_c, 3, 64, 64
5, 1960080, Note_on_c, 3, 55, 97
5, 1960316, Note_off_c, 3, 55, 64
5, 1960320, Note_on_c, 3, 64, 109
5, 1960556, Note_off_c, 3, 64, 64
5, 1960560, Note_on_c, 3, 57, 106
5, 1961276, Note_off_c, 3, 57, 64
5, 1961280, Note_on_c, 3, 58, 115
5, 1961516, Note_off_c, 3, 58, 64
5, 1961520, Note_on_c, 3, 59, 100
5, 1961996, Note_off_c, 3, 59, 64
5, 1962000, Note_on_c, 3, 47, 123
5, 1962476, Note_off_c, 3, 47, 64
5, 1962480, Note_on_c, 3, 52, 115
5, 1963196, Note_off_c, 3, 52, 64
5, 1963200, Note_on_c, 3, 50, 106
5, 1963436, Note_off_c, 3, 50, 64
5, 1963440, Note_on_c, 3, 48, 113
5, 1963916, Note_off_c, 3, 48, 64
5, 1963920, Note_on_c, 3, 60, 117
5, 1964396, Note_off_c, 3, 60, 64
5, 1964400, Note_on_c, 3, 59, 100
5, 1965116, Note_off_c, 3, 59, 64
5, 1965120, Note_on_c, 3, 60, 102
5, 1965236, Note_off_c, 3, 60, 64
5, 1965240, Note_on_c, 3, 59, 101
5, 1965356, Note_off_c, 3, 59, 64
5, 1965360, Note_on_c, 3, 57, 107
5, 1966076, Note_off_c, 3, 57, 64
5, 1966080, Note_on_c, 3, 59, 104
5, 1966196, Note_off_c, 3, 59, 64
5, 1966200, Note_on_c, 3, 60, 95
5, 1966316, Note_off_c, 3, 60, 64
5, 1966320, Note_on_c, 3, 62, 107
5, 1967036, Note_off_c, 3, 62, 64
5, 1967040, Note_on_c, 3, 60, 102
5, 1967156, Note_off_c, 3, 60, 64
5, 1967160, Note_on_c, 3, 62, 102
5, 1967276, Note_off_c, 3, 62, 64
5, 1967280, Note_on_c, 3, 55, 96
5, 1967516, Note_off_c, 3, 55, 64
5, 1967520, Note_on_c, 3, 57, 96
5, 1967756, Note_off_c, 3, 57, 64
5, 1967760, Note_on_c, 3, 59, 104
5, 1967996, Note_off_c, 3, 59, 64
5, 1968000, Note_on_c, 3, 55, 101
5, 1968236, Note_off_c, 3, 55, 64
5, 1968240, Note_on_c, 3, 60, 115
5, 1968956, Note_off_c, 3, 60, 64
5, 1968960, Note_on_c, 3, 61, 108
5, 1969196, Note_off_c, 3, 61, 64
5, 1969200, Note_on_c, 3, 62, 107
5, 1969676, Note_off_c, 3, 62, 64
5, 1969680, Note_on_c, 3, 50, 107
5, 1970156, Note_off_c, 3, 50, 64
5, 1970160, Note_on_c, 3, 55, 104
5, 1970636, Note_off_c, 3, 55, 64
5, 1970640, Note_on_c, 3, 43, 111
5, 1971600, Note_off_c, 3, 43, 64
5, 1973040, Note_on_c, 3, 55, 78
5, 1974476, Note_off_c, 3, 55, 64
5, 1974480, Note_on_c, 3, 54, 80
5, 1975916, Note_off_c, 3, 54, 64
5, 1975920, Note_on_c, 3, 52, 85
5, 1977356, Note_off_c, 3, 52, 64
5, 1977360, Note_on_c, 3, 50, 82
5, 1978316, Note_off_c, 3, 50, 64
5, 1978560, Note_on_c, 3, 48, 80
5, 1978796, Note_off_c, 3, 48, 64
5, 1978800, Note_on_c, 3, 47, 85
5, 1980236, Note_off_c, 3, 47, 64
5, 1980240, Note_on_c, 3, 48, 96
5, 1981436, Note_off_c, 3, 48, 64
5, 1981440, Note_on_c, 3, 50, 89
5, 1981676, Note_off_c, 3, 50, 64
5, 1981680, Note_on_c, 3, 52, 82
5, 1981916, Note_off_c, 3, 52, 64
5, 1981920, Note_on_c, 3, 48, 77
5, 1982156, Note_off_c, 3, 48, 64
5, 1982160, Note_on_c, 3, 50, 92
5, 1983116, Note_off_c, 3, 50, 64
5, 1983120, Note_on_c, 3, 43, 82
5, 1983836, Note_off_c, 3, 43, 64
5, 1983840, Note_on_c, 3, 50, 85
5, 1984076, Note_off_c, 3, 50, 64
5, 1984080, Note_on_c, 3, 52, 86
5, 1984140, Note_off_c, 3, 52, 64
5, 1984140, Note_on_c, 3, 50, 86
5, 1984200, Note_off_c, 3, 50, 64
5, 1984200, Note_on_c, 3, 52, 86
5, 1984440, Note_off_c, 3, 52, 64
5, 1984440, Note_on_c, 3, 54, 80
5, 1984560, Note_off_c, 3, 54, 64
5, 1984560, Note_on_c, 3, 55, 90
5, 1986480, Note_off_c, 3, 55, 64
5, 1986480, Note_on_c, 3, 55, 77
5, 1986540, Note_off_c, 3, 55, 64
5, 1986540, Note_on_c, 3, 54, 77
5, 1986600, Note_off_c, 3, 54, 64
5, 1986600, Note_on_c, 3, 55, 77
5, 1986660, Note_off_c, 3, 55, 64
5, 1986660, Note_on_c, 3, 54, 77
5, 1986720, Note_off_c, 3, 54, 64
5, 1986720, Note_on_c, 3, 52, 71
5, 1986956, Note_off_c, 3, 52, 64
5, 1986960, Note_on_c, 3, 54, 96
5, 1987200, Note_off_c, 3, 54, 64
5, 1987200, Note_on_c, 3, 59, 92
5, 1987440, Note_off_c, 3, 59, 64
5, 1987440, Note_on_c, 3, 52, 88
5, 1988156, Note_off_c, 3, 52, 64
5, 1988160, Note_on_c, 3, 52, 109
5, 1988396, Note_off_c, 3, 52, 64
5, 1988400, Note_on_c, 3, 54, 96
5, 1988636, Note_off_c, 3, 54, 64
5, 1988640, Note_on_c, 3, 55, 81
5, 1988876, Note_off_c, 3, 55, 64
5, 1988880, Note_on_c, 3, 57, 80
5, 1989600, Note_off_c, 3, 57, 64
5, 1989600, Note_on_c, 3, 59, 100
5, 1989836, Note_off_c, 3, 59, 64
5, 1989840, Note_on_c, 3, 57, 66
5, 1990076, Note_off_c, 3, 57, 64
5, 1990080, Note_on_c, 3, 55, 73
5, 1990316, Note_off_c, 3, 55, 64
5, 1990320, Note_on_c, 3, 54, 70
5, 1991760, Note_off_c, 3, 54, 64
5, 1991760, Note_on_c, 3, 55, 83
5, 1993196, Note_off_c, 3, 55, 64
5, 1993200, Note_on_c, 3, 57, 89
5, 1994636, Note_off_c, 3, 57, 64
5, 1994640, Note_on_c, 3, 50, 96
5, 1996076, Note_off_c, 3, 50, 64
5, 1996080, Note_on_c, 3, 62, 98
5, 1997040, Note_off_c, 3, 62, 64
5, 1997040, Note_on_c, 3, 60, 86
5, 1997516, Note_off_c, 3, 60, 64
5, 1997520, Note_on_c, 3, 59, 82
5, 1998236, Note_off_c, 3, 59, 64
5, 1998240, Note_on_c, 3, 57, 90
5, 1998476, Note_off_c, 3, 57, 64
5, 1998480, Note_on_c, 3, 59, 89
5, 1998956, Note_off_c, 3, 59, 64
5, 1998960, Note_on_c, 3, 60, 96
5, 1999676, Note_off_c, 3, 60, 64
5, 1999680, Note_on_c, 3, 59, 88
5, 1999916, Note_off_c, 3, 59, 64
5, 1999920, Note_on_c, 3, 57, 82
5, 2000396, Note_off_c, 3, 57, 64
5, 2000400, Note_on_c, 3, 59, 89
5, 2001116, Note_off_c, 3, 59, 64
5, 2001120, Note_on_c, 3, 57, 80
5, 2001356, Note_off_c, 3, 57, 64
5, 2001360, Note_on_c, 3, 55, 79
5, 2001596, Note_off_c, 3, 55, 64
5, 2001600, Note_on_c, 3, 54, 93
5, 2001836, Note_off_c, 3, 54, 64
5, 2001840, Note_on_c, 3, 52, 89
5, 2002800, Note_off_c, 3, 52, 64
5, 2002800, Note_on_c, 3, 50, 90
5, 2003276, Note_off_c, 3, 50, 64
5, 2003280, Note_on_c, 3, 48, 97
5, 2004236, Note_off_c, 3, 48, 64
5, 2004240, Note_on_c, 3, 47, 100
5, 2004716, Note_off_c, 3, 47, 64
5, 2004720, Note_on_c, 3, 45, 96
5, 2004956, Note_off_c, 3, 45, 64
5, 2004960, Note_on_c, 3, 48, 91
5, 2005196, Note_off_c, 3, 48, 64
5, 2005200, Note_on_c, 3, 47, 102
5, 2005436, Note_off_c, 3, 47, 64
5, 2005440, Note_on_c, 3, 45, 88
5, 2005676, Note_off_c, 3, 45, 64
5, 2005680, Note_on_c, 3, 47, 107
5, 2006156, Note_off_c, 3, 47, 64
5, 2006160, Note_on_c, 3, 52, 117
5, 2006396, Note_off_c, 3, 52, 64
5, 2006400, Note_on_c, 3, 47, 117
5, 2006636, Note_off_c, 3, 47, 64
5, 2006640, Note_on_c, 3, 40, 100
5, 2006876, Note_off_c, 3, 40, 64
5, 2006880, Note_on_c, 3, 47, 96
5, 2007116, Note_off_c, 3, 47, 64
5, 2007120, Note_on_c, 3, 52, 90
5, 2007356, Note_off_c, 3, 52, 64
5, 2007360, Note_on_c, 3, 50, 80
5, 2007596, Note_off_c, 3, 50, 64
5, 2007600, Note_on_c, 3, 48, 85
5, 2009036, Note_off_c, 3, 48, 64
5, 2009040, Note_on_c, 3, 47, 90
5, 2010476, Note_off_c, 3, 47, 64
5, 2010480, Note_on_c, 3, 45, 85
5, 2011196, Note_off_c, 3, 45, 64
5, 2011200, Note_on_c, 3, 43, 71
5, 2011436, Note_off_c, 3, 43, 64
5, 2011440, Note_on_c, 3, 42, 96
5, 2011676, Note_off_c, 3, 42, 64
5, 2011680, Note_on_c, 3, 40, 77
5, 2011916, Note_off_c, 3, 40, 64
5, 2011920, Note_on_c, 3, 38, 91
5, 2012156, Note_off_c, 3, 38, 64
5, 2012160, Note_on_c, 3, 45, 93
5, 2012396, Note_off_c, 3, 45, 64
5, 2012400, Note_on_c, 3, 50, 102
5, 2012636, Note_off_c, 3, 50, 64
5, 2012640, Note_on_c, 3, 48, 95
5, 2012876, Note_off_c, 3, 48, 64
5, 2012880, Note_on_c, 3, 47, 91
5, 2013116, Note_off_c, 3, 47, 64
5, 2013120, Note_on_c, 3, 45, 86
5, 2013356, Note_off_c, 3, 45, 64
5, 2013360, Note_on_c, 3, 43, 96
5, 2013596, Note_off_c, 3, 43, 64
5, 2013600, Note_on_c, 3, 50, 96
5, 2013836, Note_off_c, 3, 50, 64
5, 2013840, Note_on_c, 3, 55, 104
5, 2014076, Note_off_c, 3, 55, 64
5, 2014080, Note_on_c, 3, 53, 81
5, 2014316, Note_off_c, 3, 53, 64
5, 2014320, Note_on_c, 3, 52, 91
5, 2014556, Note_off_c, 3, 52, 64
5, 2014560, Note_on_c, 3, 50, 80
5, 2014796, Note_off_c, 3, 50, 64
5, 2014800, Note_on_c, 3, 48, 95
5, 2015036, Note_off_c, 3, 48, 64
5, 2015040, Note_on_c, 3, 55, 88
5, 2015276, Note_off_c, 3, 55, 64
5, 2015280, Note_on_c, 3, 60, 101
5, 2015516, Note_off_c, 3, 60, 64
5, 2015520, Note_on_c, 3, 59, 93
5, 2015756, Note_off_c, 3, 59, 64
5, 2015760, Note_on_c, 3, 57, 95
5, 2015996, Note_off_c, 3, 57, 64
5, 2016000, Note_on_c, 3, 55, 80
5, 2016236, Note_off_c, 3, 55, 64
5, 2016240, Note_on_c, 3, 54, 96
5, 2016476, Note_off_c, 3, 54, 64
5, 2016480, Note_on_c, 3, 50, 88
5, 2016716, Note_off_c, 3, 50, 64
5, 2016720, Note_on_c, 3, 55, 88
5, 2016956, Note_off_c, 3, 55, 64
5, 2016960, Note_on_c, 3, 59, 98
5, 2017196, Note_off_c, 3, 59, 64
5, 2017200, Note_on_c, 3, 62, 106
5, 2017436, Note_off_c, 3, 62, 64
5, 2017440, Note_on_c, 3, 50, 90
5, 2017676, Note_off_c, 3, 50, 64
5, 2017680, Note_on_c, 3, 55, 91
5, 2018400, Note_off_c, 3, 55, 64
5, 2018400, Note_on_c, 3, 50, 88
5, 2018636, Note_off_c, 3, 50, 64
5, 2018640, Note_on_c, 3, 43, 81
5, 2018880, Note_off_c, 3, 43, 64
5, 2018880, Control_c, 3, 64, 0
5, 2018880, End_track
0, 0, End_of_file
