0, 0, Header, 1, 3, 240
1, 0, Start_track
1, 0, Time_signature, 3, 3, 12, 8
1, 0, Tempo, 833333
1, 7200, Text_t, "Repeat"
1, 14400, Text_t, "2nd Part"
1, 29520, Text_t, "Repeat"
1, 43920, Tempo, 857143
1, 44280, Tempo, 833333
1, 44280, End_track
2, 0, Start_track
2, 0, Text_t, "RH"
2, 60, Note_on_c, 0, 76, 64
2, 180, Note_off_c, 0, 76, 64
2, 180, Note_on_c, 0, 75, 64
2, 300, Note_off_c, 0, 75, 64
2, 300, Note_on_c, 0, 74, 64
2, 420, Note_off_c, 0, 74, 64
2, 420, Note_on_c, 0, 73, 64
2, 540, Note_off_c, 0, 73, 64
2, 540, Note_on_c, 0, 71, 64
2, 660, Note_off_c, 0, 71, 64
2, 660, Note_on_c, 0, 69, 64
2, 780, Note_off_c, 0, 69, 64
2, 780, Note_on_c, 0, 68, 64
2, 900, Note_off_c, 0, 68, 64
2, 900, Note_on_c, 0, 66, 64
2, 1020, Note_off_c, 0, 66, 64
2, 1020, Note_on_c, 0, 68, 64
2, 1050, Note_off_c, 0, 68, 64
2, 1050, Note_on_c, 0, 69, 64
2, 1080, Note_off_c, 0, 69, 64
2, 1080, Note_on_c, 0, 68, 64
2, 1140, Note_off_c, 0, 68, 64
2, 1140, Note_on_c, 0, 71, 64
2, 1170, Note_off_c, 0, 71, 64
2, 1170, Note_on_c, 0, 69, 64
2, 1200, Note_off_c, 0, 69, 64
2, 1200, Note_on_c, 0, 71, 64
2, 1260, Note_off_c, 0, 71, 64
2, 1260, Note_on_c, 0, 68, 64
2, 1290, Note_off_c, 0, 68, 64
2, 1290, Note_on_c, 0, 66, 64
2, 1320, Note_off_c, 0, 66, 64
2, 1320, Note_on_c, 0, 68, 64
2, 1380, Note_off_c, 0, 68, 64
2, 1380, Note_on_c, 0, 64, 64
2, 1410, Note_off_c, 0, 64, 64
2, 1410, Note_on_c, 0, 63, 64
2, 1440, Note_off_c, 0, 63, 64
2, 1440, Note_on_c, 0, 64, 64
2, 1560, Note_off_c, 0, 64, 64
2, 1560, Note_on_c, 0, 66, 64
2, 1680, Note_off_c, 0, 66, 64
2, 1680, Note_on_c, 0, 68, 64
2, 1800, Note_off_c, 0, 68, 64
2, 1800, Note_on_c, 0, 69, 64
2, 1920, Note_off_c, 0, 69, 64
2, 1920, Note_on_c, 0, 71, 64
2, 2040, Note_off_c, 0, 71, 64
2, 2040, Note_on_c, 0, 73, 64
2, 2160, Note_off_c, 0, 73, 64
2, 2160, Note_on_c, 0, 75, 64
2, 2280, Note_off_c, 0, 75, 64
2, 2280, Note_on_c, 0, 76, 64
2, 2340, Note_off_c, 0, 76, 64
2, 2340, Note_on_c, 0, 75, 64
2, 2400, Note_off_c, 0, 75, 64
2, 2400, Note_on_c, 0, 73, 64
2, 2460, Note_off_c, 0, 73, 64
2, 2460, Note_on_c, 0, 71, 64
2, 2520, Note_off_c, 0, 71, 64
2, 2520, Note_on_c, 0, 76, 64
2, 2640, Note_off_c, 0, 76, 64
2, 2640, Note_on_c, 0, 64, 64
2, 2760, Note_off_c, 0, 64, 64
2, 2940, Note_on_c, 0, 80, 64
2, 3060, Note_off_c, 0, 80, 64
2, 3060, Note_on_c, 0, 76, 64
2, 3180, Note_off_c, 0, 76, 64
2, 3180, Note_on_c, 0, 73, 64
2, 3300, Note_off_c, 0, 73, 64
2, 3300, Note_on_c, 0, 76, 64
2, 3330, Note_off_c, 0, 76, 64
2, 3330, Note_on_c, 0, 75, 64
2, 3360, Note_off_c, 0, 75, 64
2, 3360, Note_on_c, 0, 76, 64
2, 3420, Note_off_c, 0, 76, 64
2, 3420, Note_on_c, 0, 73, 64
2, 3480, Note_off_c, 0, 73, 64
2, 3480, Note_on_c, 0, 70, 64
2, 3540, Note_off_c, 0, 70, 64
2, 3540, Note_on_c, 0, 66, 64
2, 3660, Note_off_c, 0, 66, 64
2, 3660, Note_on_c, 0, 78, 64
2, 3780, Note_off_c, 0, 78, 64
2, 3780, Note_on_c, 0, 75, 64
2, 3900, Note_off_c, 0, 75, 64
2, 3900, Note_on_c, 0, 71, 64
2, 4020, Note_off_c, 0, 71, 64
2, 4020, Note_on_c, 0, 75, 64
2, 4050, Note_off_c, 0, 75, 64
2, 4050, Note_on_c, 0, 73, 64
2, 4080, Note_off_c, 0, 73, 64
2, 4080, Note_on_c, 0, 75, 64
2, 4140, Note_off_c, 0, 75, 64
2, 4140, Note_on_c, 0, 71, 64
2, 4200, Note_off_c, 0, 71, 64
2, 4200, Note_on_c, 0, 68, 64
2, 4260, Note_off_c, 0, 68, 64
2, 4260, Note_on_c, 0, 64, 64
2, 4380, Note_off_c, 0, 64, 64
2, 4380, Note_on_c, 0, 76, 64
2, 4500, Note_off_c, 0, 76, 64
2, 4500, Note_on_c, 0, 73, 64
2, 4620, Note_off_c, 0, 73, 64
2, 4620, Note_on_c, 0, 70, 64
2, 4740, Note_off_c, 0, 70, 64
2, 4740, Note_on_c, 0, 80, 64
2, 4860, Note_off_c, 0, 80, 64
2, 4860, Note_on_c, 0, 78, 64
2, 4980, Note_off_c, 0, 78, 64
2, 4980, Note_on_c, 0, 76, 64
2, 5100, Note_off_c, 0, 76, 64
2, 5100, Note_on_c, 0, 75, 64
2, 5220, Note_off_c, 0, 75, 64
2, 5220, Note_on_c, 0, 73, 64
2, 5340, Note_off_c, 0, 73, 64
2, 5340, Note_on_c, 0, 71, 64
2, 5400, Note_off_c, 0, 71, 64
2, 5400, Note_on_c, 0, 70, 64
2, 5460, Note_off_c, 0, 70, 64
2, 5460, Note_on_c, 0, 64, 64
2, 5490, Note_off_c, 0, 64, 64
2, 5490, Note_on_c, 0, 63, 64
2, 5520, Note_off_c, 0, 63, 64
2, 5520, Note_on_c, 0, 64, 64
2, 5580, Note_off_c, 0, 64, 64
2, 5580, Note_on_c, 0, 70, 64
2, 5610, Note_off_c, 0, 70, 64
2, 5610, Note_on_c, 0, 68, 64
2, 5640, Note_off_c, 0, 68, 64
2, 5640, Note_on_c, 0, 70, 64
2, 5700, Note_off_c, 0, 70, 64
2, 5700, Note_on_c, 0, 71, 64
2, 5730, Note_off_c, 0, 71, 64
2, 5730, Note_on_c, 0, 70, 64
2, 5760, Note_off_c, 0, 70, 64
2, 5760, Note_on_c, 0, 71, 64
2, 5820, Note_off_c, 0, 71, 64
2, 5820, Note_on_c, 0, 63, 64
2, 5880, Note_off_c, 0, 63, 64
2, 5880, Note_on_c, 0, 61, 64
2, 5940, Note_off_c, 0, 61, 64
2, 5940, Note_on_c, 0, 71, 64
2, 6000, Note_off_c, 0, 71, 64
2, 6000, Note_on_c, 0, 61, 64
2, 6060, Note_off_c, 0, 61, 64
2, 6060, Note_on_c, 0, 70, 64
2, 6120, Note_off_c, 0, 70, 64
2, 6120, Note_on_c, 0, 71, 64
2, 6240, Note_off_c, 0, 71, 64
2, 6300, Note_on_c, 0, 71, 64
2, 6360, Note_off_c, 0, 71, 64
2, 6360, Note_on_c, 0, 75, 64
2, 6420, Note_off_c, 0, 75, 64
2, 6420, Note_on_c, 0, 78, 64
2, 6480, Note_off_c, 0, 78, 64
2, 6480, Note_on_c, 0, 83, 64
2, 6600, Note_off_c, 0, 83, 64
2, 6660, Note_on_c, 0, 83, 64
2, 6720, Note_off_c, 0, 83, 64
2, 6720, Note_on_c, 0, 78, 64
2, 6780, Note_off_c, 0, 78, 64
2, 6780, Note_on_c, 0, 75, 64
2, 6840, Note_off_c, 0, 75, 64
2, 6840, Note_on_c, 0, 71, 64
2, 6900, Note_off_c, 0, 71, 64
2, 6900, Note_on_c, 0, 66, 64
2, 6960, Note_off_c, 0, 66, 64
2, 6960, Note_on_c, 0, 63, 64
2, 7020, Note_off_c, 0, 63, 64
2, 7020, Note_on_c, 0, 59, 64
2, 7080, Note_off_c, 0, 59, 64
2, 7260, Note_on_c, 0, 76, 64
2, 7380, Note_off_c, 0, 76, 64
2, 7380, Note_on_c, 0, 75, 64
2, 7500, Note_off_c, 0, 75, 64
2, 7500, Note_on_c, 0, 74, 64
2, 7620, Note_off_c, 0, 74, 64
2, 7620, Note_on_c, 0, 73, 64
2, 7740, Note_off_c, 0, 73, 64
2, 7740, Note_on_c, 0, 71, 64
2, 7860, Note_off_c, 0, 71, 64
2, 7860, Note_on_c, 0, 69, 64
2, 7980, Note_off_c, 0, 69, 64
2, 7980, Note_on_c, 0, 68, 64
2, 8100, Note_off_c, 0, 68, 64
2, 8100, Note_on_c, 0, 66, 64
2, 8220, Note_off_c, 0, 66, 64
2, 8220, Note_on_c, 0, 68, 64
2, 8250, Note_off_c, 0, 68, 64
2, 8250, Note_on_c, 0, 69, 64
2, 8280, Note_off_c, 0, 69, 64
2, 8280, Note_on_c, 0, 68, 64
2, 8340, Note_off_c, 0, 68, 64
2, 8340, Note_on_c, 0, 71, 64
2, 8370, Note_off_c, 0, 71, 64
2, 8370, Note_on_c, 0, 69, 64
2, 8400, Note_off_c, 0, 69, 64
2, 8400, Note_on_c, 0, 71, 64
2, 8460, Note_off_c, 0, 71, 64
2, 8460, Note_on_c, 0, 68, 64
2, 8490, Note_off_c, 0, 68, 64
2, 8490, Note_on_c, 0, 66, 64
2, 8520, Note_off_c, 0, 66, 64
2, 8520, Note_on_c, 0, 68, 64
2, 8580, Note_off_c, 0, 68, 64
2, 8580, Note_on_c, 0, 64, 64
2, 8610, Note_off_c, 0, 64, 64
2, 8610, Note_on_c, 0, 63, 64
2, 8640, Note_off_c, 0, 63, 64
2, 8640, Note_on_c, 0, 64, 64
2, 8760, Note_off_c, 0, 64, 64
2, 8760, Note_on_c, 0, 66, 64
2, 8880, Note_off_c, 0, 66, 64
2, 8880, Note_on_c, 0, 68, 64
2, 9000, Note_off_c, 0, 68, 64
2, 9000, Note_on_c, 0, 69, 64
2, 9120, Note_off_c, 0, 69, 64
2, 9120, Note_on_c, 0, 71, 64
2, 9240, Note_off_c, 0, 71, 64
2, 9240, Note_on_c, 0, 73, 64
2, 9360, Note_off_c, 0, 73, 64
2, 9360, Note_on_c, 0, 75, 64
2, 9480, Note_off_c, 0, 75, 64
2, 9480, Note_on_c, 0, 76, 64
2, 9540, Note_off_c, 0, 76, 64
2, 9540, Note_on_c, 0, 75, 64
2, 9600, Note_off_c, 0, 75, 64
2, 9600, Note_on_c, 0, 73, 64
2, 9660, Note_off_c, 0, 73, 64
2, 9660, Note_on_c, 0, 71, 64
2, 9720, Note_off_c, 0, 71, 64
2, 9720, Note_on_c, 0, 76, 64
2, 9840, Note_off_c, 0, 76, 64
2, 9840, Note_on_c, 0, 64, 64
2, 9960, Note_off_c, 0, 64, 64
2, 10140, Note_on_c, 0, 80, 64
2, 10260, Note_off_c, 0, 80, 64
2, 10260, Note_on_c, 0, 76, 64
2, 10380, Note_off_c, 0, 76, 64
2, 10380, Note_on_c, 0, 73, 64
2, 10500, Note_off_c, 0, 73, 64
2, 10500, Note_on_c, 0, 76, 64
2, 10530, Note_off_c, 0, 76, 64
2, 10530, Note_on_c, 0, 75, 64
2, 10560, Note_off_c, 0, 75, 64
2, 10560, Note_on_c, 0, 76, 64
2, 10620, Note_off_c, 0, 76, 64
2, 10620, Note_on_c, 0, 73, 64
2, 10680, Note_off_c, 0, 73, 64
2, 10680, Note_on_c, 0, 70, 64
2, 10740, Note_off_c, 0, 70, 64
2, 10740, Note_on_c, 0, 66, 64
2, 10860, Note_off_c, 0, 66, 64
2, 10860, Note_on_c, 0, 78, 64
2, 10980, Note_off_c, 0, 78, 64
2, 10980, Note_on_c, 0, 75, 64
2, 11100, Note_off_c, 0, 75, 64
2, 11100, Note_on_c, 0, 71, 64
2, 11220, Note_off_c, 0, 71, 64
2, 11220, Note_on_c, 0, 75, 64
2, 11250, Note_off_c, 0, 75, 64
2, 11250, Note_on_c, 0, 73, 64
2, 11280, Note_off_c, 0, 73, 64
2, 11280, Note_on_c, 0, 75, 64
2, 11340, Note_off_c, 0, 75, 64
2, 11340, Note_on_c, 0, 71, 64
2, 11400, Note_off_c, 0, 71, 64
2, 11400, Note_on_c, 0, 68, 64
2, 11460, Note_off_c, 0, 68, 64
2, 11460, Note_on_c, 0, 64, 64
2, 11580, Note_off_c, 0, 64, 64
2, 11580, Note_on_c, 0, 76, 64
2, 11700, Note_off_c, 0, 76, 64
2, 11700, Note_on_c, 0, 73, 64
2, 11820, Note_off_c, 0, 73, 64
2, 11820, Note_on_c, 0, 70, 64
2, 11940, Note_off_c, 0, 70, 64
2, 11940, Note_on_c, 0, 80, 64
2, 12060, Note_off_c, 0, 80, 64
2, 12060, Note_on_c, 0, 78, 64
2, 12180, Note_off_c, 0, 78, 64
2, 12180, Note_on_c, 0, 76, 64
2, 12300, Note_off_c, 0, 76, 64
2, 12300, Note_on_c, 0, 75, 64
2, 12420, Note_off_c, 0, 75, 64
2, 12420, Note_on_c, 0, 73, 64
2, 12540, Note_off_c, 0, 73, 64
2, 12540, Note_on_c, 0, 71, 64
2, 12600, Note_off_c, 0, 71, 64
2, 12600, Note_on_c, 0, 70, 64
2, 12660, Note_off_c, 0, 70, 64
2, 12660, Note_on_c, 0, 64, 64
2, 12690, Note_off_c, 0, 64, 64
2, 12690, Note_on_c, 0, 63, 64
2, 12720, Note_off_c, 0, 63, 64
2, 12720, Note_on_c, 0, 64, 64
2, 12780, Note_off_c, 0, 64, 64
2, 12780, Note_on_c, 0, 70, 64
2, 12810, Note_off_c, 0, 70, 64
2, 12810, Note_on_c, 0, 68, 64
2, 12840, Note_off_c, 0, 68, 64
2, 12840, Note_on_c, 0, 70, 64
2, 12900, Note_off_c, 0, 70, 64
2, 12900, Note_on_c, 0, 71, 64
2, 12930, Note_off_c, 0, 71, 64
2, 12930, Note_on_c, 0, 70, 64
2, 12960, Note_off_c, 0, 70, 64
2, 12960, Note_on_c, 0, 71, 64
2, 13020, Note_off_c, 0, 71, 64
2, 13020, Note_on_c, 0, 63, 64
2, 13080, Note_off_c, 0, 63, 64
2, 13080, Note_on_c, 0, 61, 64
2, 13140, Note_off_c, 0, 61, 64
2, 13140, Note_on_c, 0, 71, 64
2, 13200, Note_off_c, 0, 71, 64
2, 13200, Note_on_c, 0, 61, 64
2, 13260, Note_off_c, 0, 61, 64
2, 13260, Note_on_c, 0, 70, 64
2, 13320, Note_off_c, 0, 70, 64
2, 13320, Note_on_c, 0, 71, 64
2, 13440, Note_off_c, 0, 71, 64
2, 13500, Note_on_c, 0, 71, 64
2, 13560, Note_off_c, 0, 71, 64
2, 13560, Note_on_c, 0, 75, 64
2, 13620, Note_off_c, 0, 75, 64
2, 13620, Note_on_c, 0, 78, 64
2, 13680, Note_off_c, 0, 78, 64
2, 13680, Note_on_c, 0, 83, 64
2, 13800, Note_off_c, 0, 83, 64
2, 13860, Note_on_c, 0, 83, 64
2, 13920, Note_off_c, 0, 83, 64
2, 13920, Note_on_c, 0, 78, 64
2, 13980, Note_off_c, 0, 78, 64
2, 13980, Note_on_c, 0, 75, 64
2, 14040, Note_off_c, 0, 75, 64
2, 14040, Note_on_c, 0, 71, 64
2, 14100, Note_off_c, 0, 71, 64
2, 14100, Note_on_c, 0, 66, 64
2, 14160, Note_off_c, 0, 66, 64
2, 14160, Note_on_c, 0, 63, 64
2, 14220, Note_off_c, 0, 63, 64
2, 14220, Note_on_c, 0, 59, 64
2, 14280, Note_off_c, 0, 59, 64
2, 14400, Note_on_c, 0, 59, 64
2, 14460, Note_off_c, 0, 59, 64
2, 14520, Note_on_c, 0, 61, 64
2, 14640, Note_off_c, 0, 61, 64
2, 14640, Note_on_c, 0, 63, 64
2, 14760, Note_off_c, 0, 63, 64
2, 14760, Note_on_c, 0, 64, 64
2, 14880, Note_off_c, 0, 64, 64
2, 14880, Note_on_c, 0, 66, 64
2, 15000, Note_off_c, 0, 66, 64
2, 15000, Note_on_c, 0, 68, 64
2, 15120, Note_off_c, 0, 68, 64
2, 15120, Note_on_c, 0, 70, 64
2, 15240, Note_off_c, 0, 70, 64
2, 15240, Note_on_c, 0, 71, 64
2, 15300, Note_off_c, 0, 71, 64
2, 15300, Note_on_c, 0, 70, 64
2, 15360, Note_off_c, 0, 70, 64
2, 15360, Note_on_c, 0, 68, 64
2, 15420, Note_off_c, 0, 68, 64
2, 15420, Note_on_c, 0, 66, 64
2, 15480, Note_off_c, 0, 66, 64
2, 15480, Note_on_c, 0, 71, 64
2, 15600, Note_off_c, 0, 71, 64
2, 15600, Note_on_c, 0, 59, 64
2, 15720, Note_off_c, 0, 59, 64
2, 15900, Note_on_c, 0, 83, 64
2, 16020, Note_off_c, 0, 83, 64
2, 16020, Note_on_c, 0, 82, 64
2, 16140, Note_off_c, 0, 82, 64
2, 16140, Note_on_c, 0, 81, 64
2, 16260, Note_off_c, 0, 81, 64
2, 16260, Note_on_c, 0, 80, 64
2, 16380, Note_off_c, 0, 80, 64
2, 16380, Note_on_c, 0, 78, 64
2, 16500, Note_off_c, 0, 78, 64
2, 16500, Note_on_c, 0, 76, 64
2, 16620, Note_off_c, 0, 76, 64
2, 16620, Note_on_c, 0, 75, 64
2, 16740, Note_off_c, 0, 75, 64
2, 16740, Note_on_c, 0, 73, 64
2, 16860, Note_off_c, 0, 73, 64
2, 16860, Note_on_c, 0, 75, 64
2, 16890, Note_off_c, 0, 75, 64
2, 16890, Note_on_c, 0, 76, 64
2, 16920, Note_off_c, 0, 76, 64
2, 16920, Note_on_c, 0, 75, 64
2, 16980, Note_off_c, 0, 75, 64
2, 16980, Note_on_c, 0, 78, 64
2, 17010, Note_off_c, 0, 78, 64
2, 17010, Note_on_c, 0, 76, 64
2, 17040, Note_off_c, 0, 76, 64
2, 17040, Note_on_c, 0, 78, 64
2, 17100, Note_off_c, 0, 78, 64
2, 17100, Note_on_c, 0, 75, 64
2, 17130, Note_off_c, 0, 75, 64
2, 17130, Note_on_c, 0, 73, 64
2, 17160, Note_off_c, 0, 73, 64
2, 17160, Note_on_c, 0, 75, 64
2, 17220, Note_off_c, 0, 75, 64
2, 17220, Note_on_c, 0, 71, 64
2, 17250, Note_off_c, 0, 71, 64
2, 17250, Note_on_c, 0, 70, 64
2, 17280, Note_off_c, 0, 70, 64
2, 17280, Note_on_c, 0, 71, 64
2, 17340, Note_off_c, 0, 71, 64
2, 17340, Note_on_c, 0, 75, 64
2, 17370, Note_off_c, 0, 75, 64
2, 17370, Note_on_c, 0, 73, 64
2, 17400, Note_off_c, 0, 73, 64
2, 17400, Note_on_c, 0, 75, 64
2, 17460, Note_off_c, 0, 75, 64
2, 17460, Note_on_c, 0, 80, 64
2, 17490, Note_off_c, 0, 80, 64
2, 17490, Note_on_c, 0, 79, 64
2, 17520, Note_off_c, 0, 79, 64
2, 17520, Note_on_c, 0, 80, 64
2, 17580, Note_off_c, 0, 80, 64
2, 17580, Note_on_c, 0, 73, 64
2, 17610, Note_off_c, 0, 73, 64
2, 17610, Note_on_c, 0, 71, 64
2, 17640, Note_off_c, 0, 71, 64
2, 17640, Note_on_c, 0, 73, 64
2, 17700, Note_off_c, 0, 73, 64
2, 17700, Note_on_c, 0, 76, 64
2, 17730, Note_off_c, 0, 76, 64
2, 17730, Note_on_c, 0, 75, 64
2, 17760, Note_off_c, 0, 75, 64
2, 17760, Note_on_c, 0, 76, 64
2, 17820, Note_off_c, 0, 76, 64
2, 17820, Note_on_c, 0, 82, 64
2, 17850, Note_off_c, 0, 82, 64
2, 17850, Note_on_c, 0, 80, 64
2, 17880, Note_off_c, 0, 80, 64
2, 17880, Note_on_c, 0, 82, 64
2, 17940, Note_off_c, 0, 82, 64
2, 17940, Note_on_c, 0, 75, 64
2, 17970, Note_off_c, 0, 75, 64
2, 17970, Note_on_c, 0, 73, 64
2, 18000, Note_off_c, 0, 73, 64
2, 18000, Note_on_c, 0, 75, 64
2, 18060, Note_off_c, 0, 75, 64
2, 18060, Note_on_c, 0, 80, 64
2, 18090, Note_off_c, 0, 80, 64
2, 18090, Note_on_c, 0, 79, 64
2, 18120, Note_off_c, 0, 79, 64
2, 18120, Note_on_c, 0, 80, 64
2, 18180, Note_off_c, 0, 80, 64
2, 18180, Note_on_c, 0, 83, 64
2, 18210, Note_off_c, 0, 83, 64
2, 18210, Note_on_c, 0, 82, 64
2, 18240, Note_off_c, 0, 82, 64
2, 18240, Note_on_c, 0, 83, 64
2, 18300, Note_off_c, 0, 83, 64
2, 18300, Note_on_c, 0, 75, 64
2, 18330, Note_off_c, 0, 75, 64
2, 18330, Note_on_c, 0, 74, 64
2, 18360, Note_off_c, 0, 74, 64
2, 18360, Note_on_c, 0, 75, 64
2, 18420, Note_off_c, 0, 75, 64
2, 18420, Note_on_c, 0, 82, 64
2, 18450, Note_off_c, 0, 82, 64
2, 18450, Note_on_c, 0, 80, 64
2, 18480, Note_off_c, 0, 80, 64
2, 18480, Note_on_c, 0, 82, 64
2, 18540, Note_off_c, 0, 82, 64
2, 18540, Note_on_c, 0, 79, 64
2, 18570, Note_off_c, 0, 79, 64
2, 18570, Note_on_c, 0, 77, 64
2, 18600, Note_off_c, 0, 77, 64
2, 18600, Note_on_c, 0, 79, 64
2, 18660, Note_off_c, 0, 79, 64
2, 18660, Note_on_c, 0, 75, 64
2, 18690, Note_off_c, 0, 75, 64
2, 18690, Note_on_c, 0, 74, 64
2, 18720, Note_off_c, 0, 74, 64
2, 18720, Note_on_c, 0, 74, 64
2, 18780, Note_off_c, 0, 74, 64
2, 18780, Note_on_c, 0, 81, 64
2, 18900, Note_off_c, 0, 81, 64
2, 18900, Note_on_c, 0, 80, 64
2, 19020, Note_off_c, 0, 80, 64
2, 19020, Note_on_c, 0, 78, 64
2, 19140, Note_off_c, 0, 78, 64
2, 19140, Note_on_c, 0, 76, 64
2, 19170, Note_off_c, 0, 76, 64
2, 19170, Note_on_c, 0, 75, 64
2, 19200, Note_off_c, 0, 75, 64
2, 19200, Note_on_c, 0, 76, 64
2, 19260, Note_off_c, 0, 76, 64
2, 19260, Note_on_c, 0, 73, 64
2, 19290, Note_off_c, 0, 73, 64
2, 19290, Note_on_c, 0, 72, 64
2, 19320, Note_off_c, 0, 72, 64
2, 19320, Note_on_c, 0, 73, 64
2, 19380, Note_off_c, 0, 73, 64
2, 19380, Note_on_c, 0, 76, 64
2, 19410, Note_off_c, 0, 76, 64
2, 19410, Note_on_c, 0, 75, 64
2, 19440, Note_off_c, 0, 75, 64
2, 19440, Note_on_c, 0, 76, 64
2, 19500, Note_off_c, 0, 76, 64
2, 19500, Note_on_c, 0, 80, 64
2, 19620, Note_off_c, 0, 80, 64
2, 19620, Note_on_c, 0, 78, 64
2, 19740, Note_off_c, 0, 78, 64
2, 19740, Note_on_c, 0, 76, 64
2, 19860, Note_off_c, 0, 76, 64
2, 19860, Note_on_c, 0, 75, 64
2, 19890, Note_off_c, 0, 75, 64
2, 19890, Note_on_c, 0, 73, 64
2, 19920, Note_off_c, 0, 73, 64
2, 19920, Note_on_c, 0, 75, 64
2, 19980, Note_off_c, 0, 75, 64
2, 19980, Note_on_c, 0, 71, 64
2, 20010, Note_off_c, 0, 71, 64
2, 20010, Note_on_c, 0, 70, 64
2, 20040, Note_off_c, 0, 70, 64
2, 20040, Note_on_c, 0, 71, 64
2, 20100, Note_off_c, 0, 71, 64
2, 20100, Note_on_c, 0, 73, 64
2, 20130, Note_off_c, 0, 73, 64
2, 20130, Note_on_c, 0, 71, 64
2, 20160, Note_off_c, 0, 71, 64
2, 20160, Note_on_c, 0, 73, 64
2, 20220, Note_off_c, 0, 73, 64
2, 20220, Note_on_c, 0, 76, 64
2, 20340, Note_off_c, 0, 76, 64
2, 20340, Note_on_c, 0, 75, 64
2, 20460, Note_off_c, 0, 75, 64
2, 20460, Note_on_c, 0, 73, 64
2, 20580, Note_off_c, 0, 73, 64
2, 20580, Note_on_c, 0, 71, 64
2, 20610, Note_off_c, 0, 71, 64
2, 20610, Note_on_c, 0, 70, 64
2, 20640, Note_off_c, 0, 70, 64
2, 20640, Note_on_c, 0, 71, 64
2, 20700, Note_off_c, 0, 71, 64
2, 20700, Note_on_c, 0, 68, 64
2, 20730, Note_off_c, 0, 68, 64
2, 20730, Note_on_c, 0, 67, 64
2, 20760, Note_off_c, 0, 67, 64
2, 20760, Note_on_c, 0, 68, 64
2, 20820, Note_off_c, 0, 68, 64
2, 20820, Note_on_c, 0, 69, 64
2, 20850, Note_off_c, 0, 69, 64
2, 20850, Note_on_c, 0, 68, 64
2, 20880, Note_off_c, 0, 68, 64
2, 20880, Note_on_c, 0, 69, 64
2, 20940, Note_off_c, 0, 69, 64
2, 20940, Note_on_c, 0, 73, 64
2, 20970, Note_off_c, 0, 73, 64
2, 20970, Note_on_c, 0, 71, 64
2, 21000, Note_off_c, 0, 71, 64
2, 21000, Note_on_c, 0, 73, 64
2, 21060, Note_off_c, 0, 73, 64
2, 21060, Note_on_c, 0, 69, 64
2, 21090, Note_off_c, 0, 69, 64
2, 21090, Note_on_c, 0, 68, 64
2, 21120, Note_off_c, 0, 68, 64
2, 21120, Note_on_c, 0, 69, 64
2, 21180, Note_off_c, 0, 69, 64
2, 21180, Note_on_c, 0, 76, 64
2, 21210, Note_off_c, 0, 76, 64
2, 21210, Note_on_c, 0, 75, 64
2, 21240, Note_off_c, 0, 75, 64
2, 21240, Note_on_c, 0, 76, 64
2, 21300, Note_off_c, 0, 76, 64
2, 21300, Note_on_c, 0, 67, 64
2, 21330, Note_off_c, 0, 67, 64
2, 21330, Note_on_c, 0, 65, 64
2, 21360, Note_off_c, 0, 65, 64
2, 21360, Note_on_c, 0, 67, 64
2, 21420, Note_off_c, 0, 67, 64
2, 21420, Note_on_c, 0, 70, 64
2, 21450, Note_off_c, 0, 70, 64
2, 21450, Note_on_c, 0, 68, 64
2, 21480, Note_off_c, 0, 68, 64
2, 21480, Note_on_c, 0, 70, 64
2, 21540, Note_off_c, 0, 70, 64
2, 21540, Note_on_c, 0, 59, 64
2, 21570, Note_off_c, 0, 59, 64
2, 21570, Note_on_c, 0, 58, 64
2, 21600, Note_off_c, 0, 58, 64
2, 21600, Note_on_c, 0, 59, 64
2, 21660, Note_off_c, 0, 59, 64
2, 21660, Note_on_c, 0, 68, 64
2, 21720, Note_off_c, 0, 68, 64
2, 21720, Note_on_c, 0, 64, 64
2, 21780, Note_off_c, 0, 64, 64
2, 21780, Note_on_c, 0, 61, 64
2, 21840, Note_off_c, 0, 61, 64
2, 21840, Note_on_c, 0, 58, 64
2, 21900, Note_off_c, 0, 58, 64
2, 21900, Note_on_c, 0, 67, 64
2, 21960, Note_off_c, 0, 67, 64
2, 21960, Note_on_c, 0, 68, 64
2, 22020, Note_off_c, 0, 68, 64
2, 22020, Note_on_c, 0, 63, 64
2, 22080, Note_off_c, 0, 63, 64
2, 22080, Note_on_c, 0, 59, 64
2, 22140, Note_off_c, 0, 59, 64
2, 22140, Note_on_c, 0, 56, 64
2, 22200, Note_off_c, 0, 56, 64
2, 22320, Note_on_c, 0, 64, 64
2, 22440, Note_off_c, 0, 64, 64
2, 22440, Note_on_c, 0, 66, 64
2, 22560, Note_off_c, 0, 66, 64
2, 22560, Note_on_c, 0, 68, 64
2, 22680, Note_off_c, 0, 68, 64
2, 22680, Note_on_c, 0, 69, 64
2, 22800, Note_off_c, 0, 69, 64
2, 22800, Note_on_c, 0, 71, 64
2, 22920, Note_off_c, 0, 71, 64
2, 22920, Note_on_c, 0, 73, 64
2, 23040, Note_off_c, 0, 73, 64
2, 23040, Note_on_c, 0, 75, 64
2, 23160, Note_off_c, 0, 75, 64
2, 23160, Note_on_c, 0, 76, 64
2, 23220, Note_off_c, 0, 76, 64
2, 23220, Note_on_c, 0, 75, 64
2, 23280, Note_off_c, 0, 75, 64
2, 23280, Note_on_c, 0, 73, 64
2, 23340, Note_off_c, 0, 73, 64
2, 23340, Note_on_c, 0, 71, 64
2, 23400, Note_off_c, 0, 71, 64
2, 23400, Note_on_c, 0, 76, 64
2, 23580, Note_off_c, 0, 76, 64
2, 23580, Note_on_c, 0, 71, 64
2, 23610, Note_off_c, 0, 71, 64
2, 23610, Note_on_c, 0, 69, 64
2, 23640, Note_off_c, 0, 69, 64
2, 23640, Note_on_c, 0, 71, 64
2, 23700, Note_off_c, 0, 71, 64
2, 23700, Note_on_c, 0, 68, 64
2, 23730, Note_off_c, 0, 68, 64
2, 23730, Note_on_c, 0, 66, 64
2, 23760, Note_off_c, 0, 66, 64
2, 23760, Note_on_c, 0, 68, 64
2, 23820, Note_off_c, 0, 68, 64
2, 23820, Note_on_c, 0, 76, 64
2, 23940, Note_off_c, 0, 76, 64
2, 23940, Note_on_c, 0, 75, 64
2, 24060, Note_off_c, 0, 75, 64
2, 24060, Note_on_c, 0, 74, 64
2, 24180, Note_off_c, 0, 74, 64
2, 24180, Note_on_c, 0, 73, 64
2, 24300, Note_off_c, 0, 73, 64
2, 24300, Note_on_c, 0, 71, 64
2, 24420, Note_off_c, 0, 71, 64
2, 24420, Note_on_c, 0, 69, 64
2, 24540, Note_off_c, 0, 69, 64
2, 24540, Note_on_c, 0, 68, 64
2, 24660, Note_off_c, 0, 68, 64
2, 24660, Note_on_c, 0, 66, 64
2, 24780, Note_off_c, 0, 66, 64
2, 24780, Note_on_c, 0, 68, 64
2, 24810, Note_off_c, 0, 68, 64
2, 24810, Note_on_c, 0, 69, 64
2, 24840, Note_off_c, 0, 69, 64
2, 24840, Note_on_c, 0, 68, 64
2, 24900, Note_off_c, 0, 68, 64
2, 24900, Note_on_c, 0, 71, 64
2, 24930, Note_off_c, 0, 71, 64
2, 24930, Note_on_c, 0, 69, 64
2, 24960, Note_off_c, 0, 69, 64
2, 24960, Note_on_c, 0, 71, 64
2, 25020, Note_off_c, 0, 71, 64
2, 25020, Note_on_c, 0, 68, 64
2, 25050, Note_off_c, 0, 68, 64
2, 25050, Note_on_c, 0, 66, 64
2, 25080, Note_off_c, 0, 66, 64
2, 25080, Note_on_c, 0, 68, 64
2, 25140, Note_off_c, 0, 68, 64
2, 25140, Note_on_c, 0, 64, 64
2, 25170, Note_off_c, 0, 64, 64
2, 25170, Note_on_c, 0, 63, 64
2, 25200, Note_off_c, 0, 63, 64
2, 25200, Note_on_c, 0, 64, 64
2, 25320, Note_off_c, 0, 64, 64
2, 25320, Note_on_c, 0, 66, 64
2, 25440, Note_off_c, 0, 66, 64
2, 25440, Note_on_c, 0, 69, 64
2, 25560, Note_off_c, 0, 69, 64
2, 25560, Note_on_c, 0, 71, 64
2, 25680, Note_off_c, 0, 71, 64
2, 25680, Note_on_c, 0, 75, 64
2, 25800, Note_off_c, 0, 75, 64
2, 25800, Note_on_c, 0, 78, 64
2, 25920, Note_off_c, 0, 78, 64
2, 25920, Note_on_c, 0, 63, 64
2, 26040, Note_off_c, 0, 63, 64
2, 26040, Note_on_c, 0, 64, 64
2, 26160, Note_off_c, 0, 64, 64
2, 26160, Note_on_c, 0, 68, 64
2, 26280, Note_off_c, 0, 68, 64
2, 26280, Note_on_c, 0, 69, 64
2, 26400, Note_off_c, 0, 69, 64
2, 26400, Note_on_c, 0, 73, 64
2, 26520, Note_off_c, 0, 73, 64
2, 26520, Note_on_c, 0, 76, 64
2, 26640, Note_off_c, 0, 76, 64
2, 26640, Note_on_c, 0, 61, 64
2, 26760, Note_off_c, 0, 61, 64
2, 26760, Note_on_c, 0, 66, 64
2, 26880, Note_off_c, 0, 66, 64
2, 26880, Note_on_c, 0, 69, 64
2, 27000, Note_off_c, 0, 69, 64
2, 27000, Note_on_c, 0, 71, 64
2, 27120, Note_off_c, 0, 71, 64
2, 27120, Note_on_c, 0, 73, 64
2, 27240, Note_off_c, 0, 73, 64
2, 27240, Note_on_c, 0, 75, 64
2, 27360, Note_off_c, 0, 75, 64
2, 27360, Note_on_c, 0, 76, 64
2, 27480, Note_off_c, 0, 76, 64
2, 27480, Note_on_c, 0, 73, 64
2, 27600, Note_off_c, 0, 73, 64
2, 27600, Note_on_c, 0, 69, 64
2, 27720, Note_off_c, 0, 69, 64
2, 27720, Note_on_c, 0, 78, 64
2, 28130, Note_off_c, 0, 78, 64
2, 28140, Note_on_c, 0, 76, 64
2, 28200, Note_off_c, 0, 76, 64
2, 28200, Note_on_c, 0, 75, 64
2, 28260, Note_off_c, 0, 75, 64
2, 28260, Note_on_c, 0, 73, 64
2, 28320, Note_off_c, 0, 73, 64
2, 28320, Note_on_c, 0, 71, 64
2, 28380, Note_off_c, 0, 71, 64
2, 28380, Note_on_c, 0, 69, 64
2, 28440, Note_off_c, 0, 69, 64
2, 28440, Note_on_c, 0, 68, 64
2, 28500, Note_off_c, 0, 68, 64
2, 28500, Note_on_c, 0, 64, 64
2, 28530, Note_off_c, 0, 64, 64
2, 28530, Note_on_c, 0, 63, 64
2, 28560, Note_off_c, 0, 63, 64
2, 28560, Note_on_c, 0, 64, 64
2, 28620, Note_off_c, 0, 64, 64
2, 28620, Note_on_c, 0, 68, 64
2, 28650, Note_off_c, 0, 68, 64
2, 28650, Note_on_c, 0, 66, 64
2, 28680, Note_off_c, 0, 66, 64
2, 28680, Note_on_c, 0, 68, 64
2, 28740, Note_off_c, 0, 68, 64
2, 28740, Note_on_c, 0, 71, 64
2, 28770, Note_off_c, 0, 71, 64
2, 28770, Note_on_c, 0, 69, 64
2, 28800, Note_off_c, 0, 69, 64
2, 28800, Note_on_c, 0, 71, 64
2, 28860, Note_off_c, 0, 71, 64
2, 28860, Note_on_c, 0, 68, 64
2, 28890, Note_off_c, 0, 68, 64
2, 28890, Note_on_c, 0, 66, 64
2, 28920, Note_off_c, 0, 66, 64
2, 28920, Note_on_c, 0, 68, 64
2, 28980, Note_off_c, 0, 68, 64
2, 28980, Note_on_c, 0, 71, 64
2, 29010, Note_off_c, 0, 71, 64
2, 29010, Note_on_c, 0, 69, 64
2, 29040, Note_off_c, 0, 69, 64
2, 29040, Note_on_c, 0, 71, 64
2, 29100, Note_off_c, 0, 71, 64
2, 29100, Note_on_c, 0, 76, 64
2, 29130, Note_off_c, 0, 76, 64
2, 29130, Note_on_c, 0, 75, 64
2, 29160, Note_off_c, 0, 75, 64
2, 29160, Note_on_c, 0, 76, 64
2, 29220, Note_off_c, 0, 76, 64
2, 29220, Note_on_c, 0, 71, 64
2, 29280, Note_off_c, 0, 71, 64
2, 29280, Note_on_c, 0, 68, 64
2, 29340, Note_off_c, 0, 68, 64
2, 29340, Note_on_c, 0, 64, 64
2, 29400, Note_off_c, 0, 64, 64
2, 29520, Note_on_c, 0, 59, 64
2, 29580, Note_off_c, 0, 59, 64
2, 29640, Note_on_c, 0, 61, 64
2, 29760, Note_off_c, 0, 61, 64
2, 29760, Note_on_c, 0, 63, 64
2, 29880, Note_off_c, 0, 63, 64
2, 29880, Note_on_c, 0, 64, 64
2, 30000, Note_off_c, 0, 64, 64
2, 30000, Note_on_c, 0, 66, 64
2, 30120, Note_off_c, 0, 66, 64
2, 30120, Note_on_c, 0, 68, 64
2, 30240, Note_off_c, 0, 68, 64
2, 30240, Note_on_c, 0, 70, 64
2, 30360, Note_off_c, 0, 70, 64
2, 30360, Note_on_c, 0, 71, 64
2, 30420, Note_off_c, 0, 71, 64
2, 30420, Note_on_c, 0, 70, 64
2, 30480, Note_off_c, 0, 70, 64
2, 30480, Note_on_c, 0, 68, 64
2, 30540, Note_off_c, 0, 68, 64
2, 30540, Note_on_c, 0, 66, 64
2, 30600, Note_off_c, 0, 66, 64
2, 30600, Note_on_c, 0, 71, 64
2, 30720, Note_off_c, 0, 71, 64
2, 30720, Note_on_c, 0, 59, 64
2, 30840, Note_off_c, 0, 59, 64
2, 31020, Note_on_c, 0, 83, 64
2, 31140, Note_off_c, 0, 83, 64
2, 31140, Note_on_c, 0, 82, 64
2, 31260, Note_off_c, 0, 82, 64
2, 31260, Note_on_c, 0, 81, 64
2, 31380, Note_off_c, 0, 81, 64
2, 31380, Note_on_c, 0, 80, 64
2, 31500, Note_off_c, 0, 80, 64
2, 31500, Note_on_c, 0, 78, 64
2, 31620, Note_off_c, 0, 78, 64
2, 31620, Note_on_c, 0, 76, 64
2, 31740, Note_off_c, 0, 76, 64
2, 31740, Note_on_c, 0, 75, 64
2, 31860, Note_off_c, 0, 75, 64
2, 31860, Note_on_c, 0, 73, 64
2, 31980, Note_off_c, 0, 73, 64
2, 31980, Note_on_c, 0, 75, 64
2, 32010, Note_off_c, 0, 75, 64
2, 32010, Note_on_c, 0, 76, 64
2, 32040, Note_off_c, 0, 76, 64
2, 32040, Note_on_c, 0, 75, 64
2, 32100, Note_off_c, 0, 75, 64
2, 32100, Note_on_c, 0, 78, 64
2, 32130, Note_off_c, 0, 78, 64
2, 32130, Note_on_c, 0, 76, 64
2, 32160, Note_off_c, 0, 76, 64
2, 32160, Note_on_c, 0, 78, 64
2, 32220, Note_off_c, 0, 78, 64
2, 32220, Note_on_c, 0, 75, 64
2, 32250, Note_off_c, 0, 75, 64
2, 32250, Note_on_c, 0, 73, 64
2, 32280, Note_off_c, 0, 73, 64
2, 32280, Note_on_c, 0, 75, 64
2, 32340, Note_off_c, 0, 75, 64
2, 32340, Note_on_c, 0, 71, 64
2, 32370, Note_off_c, 0, 71, 64
2, 32370, Note_on_c, 0, 70, 64
2, 32400, Note_off_c, 0, 70, 64
2, 32400, Note_on_c, 0, 71, 64
2, 32460, Note_off_c, 0, 71, 64
2, 32460, Note_on_c, 0, 75, 64
2, 32490, Note_off_c, 0, 75, 64
2, 32490, Note_on_c, 0, 73, 64
2, 32520, Note_off_c, 0, 73, 64
2, 32520, Note_on_c, 0, 75, 64
2, 32580, Note_off_c, 0, 75, 64
2, 32580, Note_on_c, 0, 80, 64
2, 32610, Note_off_c, 0, 80, 64
2, 32610, Note_on_c, 0, 79, 64
2, 32640, Note_off_c, 0, 79, 64
2, 32640, Note_on_c, 0, 80, 64
2, 32700, Note_off_c, 0, 80, 64
2, 32700, Note_on_c, 0, 73, 64
2, 32730, Note_off_c, 0, 73, 64
2, 32730, Note_on_c, 0, 71, 64
2, 32760, Note_off_c, 0, 71, 64
2, 32760, Note_on_c, 0, 73, 64
2, 32820, Note_off_c, 0, 73, 64
2, 32820, Note_on_c, 0, 76, 64
2, 32850, Note_off_c, 0, 76, 64
2, 32850, Note_on_c, 0, 75, 64
2, 32880, Note_off_c, 0, 75, 64
2, 32880, Note_on_c, 0, 76, 64
2, 32940, Note_off_c, 0, 76, 64
2, 32940, Note_on_c, 0, 82, 64
2, 32970, Note_off_c, 0, 82, 64
2, 32970, Note_on_c, 0, 80, 64
2, 33000, Note_off_c, 0, 80, 64
2, 33000, Note_on_c, 0, 82, 64
2, 33060, Note_off_c, 0, 82, 64
2, 33060, Note_on_c, 0, 75, 64
2, 33090, Note_off_c, 0, 75, 64
2, 33090, Note_on_c, 0, 73, 64
2, 33120, Note_off_c, 0, 73, 64
2, 33120, Note_on_c, 0, 75, 64
2, 33180, Note_off_c, 0, 75, 64
2, 33180, Note_on_c, 0, 80, 64
2, 33210, Note_off_c, 0, 80, 64
2, 33210, Note_on_c, 0, 79, 64
2, 33240, Note_off_c, 0, 79, 64
2, 33240, Note_on_c, 0, 80, 64
2, 33300, Note_off_c, 0, 80, 64
2, 33300, Note_on_c, 0, 83, 64
2, 33330, Note_off_c, 0, 83, 64
2, 33330, Note_on_c, 0, 82, 64
2, 33360, Note_off_c, 0, 82, 64
2, 33360, Note_on_c, 0, 83, 64
2, 33420, Note_off_c, 0, 83, 64
2, 33420, Note_on_c, 0, 75, 64
2, 33450, Note_off_c, 0, 75, 64
2, 33450, Note_on_c, 0, 74, 64
2, 33480, Note_off_c, 0, 74, 64
2, 33480, Note_on_c, 0, 75, 64
2, 33540, Note_off_c, 0, 75, 64
2, 33540, Note_on_c, 0, 82, 64
2, 33570, Note_off_c, 0, 82, 64
2, 33570, Note_on_c, 0, 80, 64
2, 33600, Note_off_c, 0, 80, 64
2, 33600, Note_on_c, 0, 82, 64
2, 33660, Note_off_c, 0, 82, 64
2, 33660, Note_on_c, 0, 79, 64
2, 33690, Note_off_c, 0, 79, 64
2, 33690, Note_on_c, 0, 77, 64
2, 33720, Note_off_c, 0, 77, 64
2, 33720, Note_on_c, 0, 79, 64
2, 33780, Note_off_c, 0, 79, 64
2, 33780, Note_on_c, 0, 75, 64
2, 33810, Note_off_c, 0, 75, 64
2, 33810, Note_on_c, 0, 74, 64
2, 33840, Note_off_c, 0, 74, 64
2, 33840, Note_on_c, 0, 74, 64
2, 33900, Note_off_c, 0, 74, 64
2, 33900, Note_on_c, 0, 81, 64
2, 34020, Note_off_c, 0, 81, 64
2, 34020, Note_on_c, 0, 80, 64
2, 34140, Note_off_c, 0, 80, 64
2, 34140, Note_on_c, 0, 78, 64
2, 34260, Note_off_c, 0, 78, 64
2, 34260, Note_on_c, 0, 76, 64
2, 34290, Note_off_c, 0, 76, 64
2, 34290, Note_on_c, 0, 75, 64
2, 34320, Note_off_c, 0, 75, 64
2, 34320, Note_on_c, 0, 76, 64
2, 34380, Note_off_c, 0, 76, 64
2, 34380, Note_on_c, 0, 73, 64
2, 34410, Note_off_c, 0, 73, 64
2, 34410, Note_on_c, 0, 72, 64
2, 34440, Note_off_c, 0, 72, 64
2, 34440, Note_on_c, 0, 73, 64
2, 34500, Note_off_c, 0, 73, 64
2, 34500, Note_on_c, 0, 76, 64
2, 34530, Note_off_c, 0, 76, 64
2, 34530, Note_on_c, 0, 75, 64
2, 34560, Note_off_c, 0, 75, 64
2, 34560, Note_on_c, 0, 76, 64
2, 34620, Note_off_c, 0, 76, 64
2, 34620, Note_on_c, 0, 80, 64
2, 34740, Note_off_c, 0, 80, 64
2, 34740, Note_on_c, 0, 78, 64
2, 34860, Note_off_c, 0, 78, 64
2, 34860, Note_on_c, 0, 76, 64
2, 34980, Note_off_c, 0, 76, 64
2, 34980, Note_on_c, 0, 75, 64
2, 35010, Note_off_c, 0, 75, 64
2, 35010, Note_on_c, 0, 73, 64
2, 35040, Note_off_c, 0, 73, 64
2, 35040, Note_on_c, 0, 75, 64
2, 35100, Note_off_c, 0, 75, 64
2, 35100, Note_on_c, 0, 71, 64
2, 35130, Note_off_c, 0, 71, 64
2, 35130, Note_on_c, 0, 70, 64
2, 35160, Note_off_c, 0, 70, 64
2, 35160, Note_on_c, 0, 71, 64
2, 35220, Note_off_c, 0, 71, 64
2, 35220, Note_on_c, 0, 73, 64
2, 35250, Note_off_c, 0, 73, 64
2, 35250, Note_on_c, 0, 71, 64
2, 35280, Note_off_c, 0, 71, 64
2, 35280, Note_on_c, 0, 73, 64
2, 35340, Note_off_c, 0, 73, 64
2, 35340, Note_on_c, 0, 76, 64
2, 35460, Note_off_c, 0, 76, 64
2, 35460, Note_on_c, 0, 75, 64
2, 35580, Note_off_c, 0, 75, 64
2, 35580, Note_on_c, 0, 73, 64
2, 35700, Note_off_c, 0, 73, 64
2, 35700, Note_on_c, 0, 71, 64
2, 35730, Note_off_c, 0, 71, 64
2, 35730, Note_on_c, 0, 70, 64
2, 35760, Note_off_c, 0, 70, 64
2, 35760, Note_on_c, 0, 71, 64
2, 35820, Note_off_c, 0, 71, 64
2, 35820, Note_on_c, 0, 68, 64
2, 35850, Note_off_c, 0, 68, 64
2, 35850, Note_on_c, 0, 67, 64
2, 35880, Note_off_c, 0, 67, 64
2, 35880, Note_on_c, 0, 68, 64
2, 35940, Note_off_c, 0, 68, 64
2, 35940, Note_on_c, 0, 69, 64
2, 35970, Note_off_c, 0, 69, 64
2, 35970, Note_on_c, 0, 68, 64
2, 36000, Note_off_c, 0, 68, 64
2, 36000, Note_on_c, 0, 69, 64
2, 36060, Note_off_c, 0, 69, 64
2, 36060, Note_on_c, 0, 73, 64
2, 36090, Note_off_c, 0, 73, 64
2, 36090, Note_on_c, 0, 71, 64
2, 36120, Note_off_c, 0, 71, 64
2, 36120, Note_on_c, 0, 73, 64
2, 36180, Note_off_c, 0, 73, 64
2, 36180, Note_on_c, 0, 69, 64
2, 36210, Note_off_c, 0, 69, 64
2, 36210, Note_on_c, 0, 68, 64
2, 36240, Note_off_c, 0, 68, 64
2, 36240, Note_on_c, 0, 69, 64
2, 36300, Note_off_c, 0, 69, 64
2, 36300, Note_on_c, 0, 76, 64
2, 36330, Note_off_c, 0, 76, 64
2, 36330, Note_on_c, 0, 75, 64
2, 36360, Note_off_c, 0, 75, 64
2, 36360, Note_on_c, 0, 76, 64
2, 36420, Note_off_c, 0, 76, 64
2, 36420, Note_on_c, 0, 67, 64
2, 36450, Note_off_c, 0, 67, 64
2, 36450, Note_on_c, 0, 65, 64
2, 36480, Note_off_c, 0, 65, 64
2, 36480, Note_on_c, 0, 67, 64
2, 36540, Note_off_c, 0, 67, 64
2, 36540, Note_on_c, 0, 70, 64
2, 36570, Note_off_c, 0, 70, 64
2, 36570, Note_on_c, 0, 68, 64
2, 36600, Note_off_c, 0, 68, 64
2, 36600, Note_on_c, 0, 70, 64
2, 36660, Note_off_c, 0, 70, 64
2, 36660, Note_on_c, 0, 59, 64
2, 36690, Note_off_c, 0, 59, 64
2, 36690, Note_on_c, 0, 58, 64
2, 36720, Note_off_c, 0, 58, 64
2, 36720, Note_on_c, 0, 59, 64
2, 36780, Note_off_c, 0, 59, 64
2, 36780, Note_on_c, 0, 68, 64
2, 36840, Note_off_c, 0, 68, 64
2, 36840, Note_on_c, 0, 64, 64
2, 36900, Note_off_c, 0, 64, 64
2, 36900, Note_on_c, 0, 61, 64
2, 36960, Note_off_c, 0, 61, 64
2, 36960, Note_on_c, 0, 58, 64
2, 37020, Note_off_c, 0, 58, 64
2, 37020, Note_on_c, 0, 67, 64
2, 37080, Note_off_c, 0, 67, 64
2, 37080, Note_on_c, 0, 68, 64
2, 37140, Note_off_c, 0, 68, 64
2, 37140, Note_on_c, 0, 63, 64
2, 37200, Note_off_c, 0, 63, 64
2, 37200, Note_on_c, 0, 59, 64
2, 37260, Note_off_c, 0, 59, 64
2, 37260, Note_on_c, 0, 56, 64
2, 37320, Note_off_c, 0, 56, 64
2, 37440, Note_on_c, 0, 64, 64
2, 37560, Note_off_c, 0, 64, 64
2, 37560, Note_on_c, 0, 66, 64
2, 37680, Note_off_c, 0, 66, 64
2, 37680, Note_on_c, 0, 68, 64
2, 37800, Note_off_c, 0, 68, 64
2, 37800, Note_on_c, 0, 69, 64
2, 37920, Note_off_c, 0, 69, 64
2, 37920, Note_on_c, 0, 71, 64
2, 38040, Note_off_c, 0, 71, 64
2, 38040, Note_on_c, 0, 73, 64
2, 38160, Note_off_c, 0, 73, 64
2, 38160, Note_on_c, 0, 75, 64
2, 38280, Note_off_c, 0, 75, 64
2, 38280, Note_on_c, 0, 76, 64
2, 38340, Note_off_c, 0, 76, 64
2, 38340, Note_on_c, 0, 75, 64
2, 38400, Note_off_c, 0, 75, 64
2, 38400, Note_on_c, 0, 73, 64
2, 38460, Note_off_c, 0, 73, 64
2, 38460, Note_on_c, 0, 71, 64
2, 38520, Note_off_c, 0, 71, 64
2, 38520, Note_on_c, 0, 76, 64
2, 38700, Note_off_c, 0, 76, 64
2, 38700, Note_on_c, 0, 71, 64
2, 38730, Note_off_c, 0, 71, 64
2, 38730, Note_on_c, 0, 69, 64
2, 38760, Note_off_c, 0, 69, 64
2, 38760, Note_on_c, 0, 71, 64
2, 38820, Note_off_c, 0, 71, 64
2, 38820, Note_on_c, 0, 68, 64
2, 38850, Note_off_c, 0, 68, 64
2, 38850, Note_on_c, 0, 66, 64
2, 38880, Note_off_c, 0, 66, 64
2, 38880, Note_on_c, 0, 68, 64
2, 38940, Note_off_c, 0, 68, 64
2, 38940, Note_on_c, 0, 76, 64
2, 39060, Note_off_c, 0, 76, 64
2, 39060, Note_on_c, 0, 75, 64
2, 39180, Note_off_c, 0, 75, 64
2, 39180, Note_on_c, 0, 74, 64
2, 39300, Note_off_c, 0, 74, 64
2, 39300, Note_on_c, 0, 73, 64
2, 39420, Note_off_c, 0, 73, 64
2, 39420, Note_on_c, 0, 71, 64
2, 39540, Note_off_c, 0, 71, 64
2, 39540, Note_on_c, 0, 69, 64
2, 39660, Note_off_c, 0, 69, 64
2, 39660, Note_on_c, 0, 68, 64
2, 39780, Note_off_c, 0, 68, 64
2, 39780, Note_on_c, 0, 66, 64
2, 39900, Note_off_c, 0, 66, 64
2, 39900, Note_on_c, 0, 68, 64
2, 39930, Note_off_c, 0, 68, 64
2, 39930, Note_on_c, 0, 69, 64
2, 39960, Note_off_c, 0, 69, 64
2, 39960, Note_on_c, 0, 68, 64
2, 40020, Note_off_c, 0, 68, 64
2, 40020, Note_on_c, 0, 71, 64
2, 40050, Note_off_c, 0, 71, 64
2, 40050, Note_on_c, 0, 69, 64
2, 40080, Note_off_c, 0, 69, 64
2, 40080, Note_on_c, 0, 71, 64
2, 40140, Note_off_c, 0, 71, 64
2, 40140, Note_on_c, 0, 68, 64
2, 40170, Note_off_c, 0, 68, 64
2, 40170, Note_on_c, 0, 66, 64
2, 40200, Note_off_c, 0, 66, 64
2, 40200, Note_on_c, 0, 68, 64
2, 40260, Note_off_c, 0, 68, 64
2, 40260, Note_on_c, 0, 64, 64
2, 40290, Note_off_c, 0, 64, 64
2, 40290, Note_on_c, 0, 63, 64
2, 40320, Note_off_c, 0, 63, 64
2, 40320, Note_on_c, 0, 64, 64
2, 40440, Note_off_c, 0, 64, 64
2, 40440, Note_on_c, 0, 66, 64
2, 40560, Note_off_c, 0, 66, 64
2, 40560, Note_on_c, 0, 69, 64
2, 40680, Note_off_c, 0, 69, 64
2, 40680, Note_on_c, 0, 71, 64
2, 40800, Note_off_c, 0, 71, 64
2, 40800, Note_on_c, 0, 75, 64
2, 40920, Note_off_c, 0, 75, 64
2, 40920, Note_on_c, 0, 78, 64
2, 41040, Note_off_c, 0, 78, 64
2, 41040, Note_on_c, 0, 63, 64
2, 41160, Note_off_c, 0, 63, 64
2, 41160, Note_on_c, 0, 64, 64
2, 41280, Note_off_c, 0, 64, 64
2, 41280, Note_on_c, 0, 68, 64
2, 41400, Note_off_c, 0, 68, 64
2, 41400, Note_on_c, 0, 69, 64
2, 41520, Note_off_c, 0, 69, 64
2, 41520, Note_on_c, 0, 73, 64
2, 41640, Note_off_c, 0, 73, 64
2, 41640, Note_on_c, 0, 76, 64
2, 41760, Note_off_c, 0, 76, 64
2, 41760, Note_on_c, 0, 61, 64
2, 41880, Note_off_c, 0, 61, 64
2, 41880, Note_on_c, 0, 66, 64
2, 42000, Note_off_c, 0, 66, 64
2, 42000, Note_on_c, 0, 69, 64
2, 42120, Note_off_c, 0, 69, 64
2, 42120, Note_on_c, 0, 71, 64
2, 42240, Note_off_c, 0, 71, 64
2, 42240, Note_on_c, 0, 73, 64
2, 42360, Note_off_c, 0, 73, 64
2, 42360, Note_on_c, 0, 75, 64
2, 42480, Note_off_c, 0, 75, 64
2, 42480, Note_on_c, 0, 76, 64
2, 42600, Note_off_c, 0, 76, 64
2, 42600, Note_on_c, 0, 73, 64
2, 42720, Note_off_c, 0, 73, 64
2, 42720, Note_on_c, 0, 69, 64
2, 42840, Note_off_c, 0, 69, 64
2, 42840, Note_on_c, 0, 78, 64
2, 43200, Note_off_c, 0, 78, 64
2, 43260, Note_on_c, 0, 76, 64
2, 43320, Note_off_c, 0, 76, 64
2, 43320, Note_on_c, 0, 75, 64
2, 43380, Note_off_c, 0, 75, 64
2, 43380, Note_on_c, 0, 73, 64
2, 43440, Note_off_c, 0, 73, 64
2, 43440, Note_on_c, 0, 71, 64
2, 43500, Note_off_c, 0, 71, 64
2, 43500, Note_on_c, 0, 69, 64
2, 43560, Note_off_c, 0, 69, 64
2, 43560, Note_on_c, 0, 68, 64
2, 43620, Note_off_c, 0, 68, 64
2, 43620, Note_on_c, 0, 64, 64
2, 43650, Note_off_c, 0, 64, 64
2, 43650, Note_on_c, 0, 63, 64
2, 43680, Note_off_c, 0, 63, 64
2, 43680, Note_on_c, 0, 64, 64
2, 43740, Note_off_c, 0, 64, 64
2, 43740, Note_on_c, 0, 68, 64
2, 43770, Note_off_c, 0, 68, 64
2, 43770, Note_on_c, 0, 66, 64
2, 43800, Note_off_c, 0, 66, 64
2, 43800, Note_on_c, 0, 68, 64
2, 43860, Note_off_c, 0, 68, 64
2, 43860, Note_on_c, 0, 71, 64
2, 43890, Note_off_c, 0, 71, 64
2, 43890, Note_on_c, 0, 69, 64
2, 43920, Note_off_c, 0, 69, 64
2, 43920, Note_on_c, 0, 71, 64
2, 43980, Note_off_c, 0, 71, 64
2, 43980, Note_on_c, 0, 68, 64
2, 44010, Note_off_c, 0, 68, 64
2, 44010, Note_on_c, 0, 66, 64
2, 44040, Note_off_c, 0, 66, 64
2, 44040, Note_on_c, 0, 68, 64
2, 44100, Note_off_c, 0, 68, 64
2, 44100, Note_on_c, 0, 71, 64
2, 44130, Note_off_c, 0, 71, 64
2, 44130, Note_on_c, 0, 69, 64
2, 44160, Note_off_c, 0, 69, 64
2, 44160, Note_on_c, 0, 71, 64
2, 44220, Note_off_c, 0, 71, 64
2, 44220, Note_on_c, 0, 76, 64
2, 44250, Note_off_c, 0, 76, 64
2, 44250, Note_on_c, 0, 75, 64
2, 44280, Note_off_c, 0, 75, 64
2, 44280, Note_on_c, 0, 76, 64
2, 44340, Note_off_c, 0, 76, 64
2, 44340, Note_on_c, 0, 71, 64
2, 44400, Note_off_c, 0, 71, 64
2, 44400, Note_on_c, 0, 68, 64
2, 44460, Note_off_c, 0, 68, 64
2, 44460, Note_on_c, 0, 64, 64
2, 44520, Note_off_c, 0, 64, 64
2, 44520, End_track
3, 0, Start_track
3, 0, Text_t, "LH"
3, 0, Note_on_c, 1, 52, 64
3, 120, Note_off_c, 1, 52, 64
3, 120, Note_on_c, 1, 54, 64
3, 240, Note_off_c, 1, 54, 64
3, 240, Note_on_c, 1, 56, 64
3, 360, Note_off_c, 1, 56, 64
3, 360, Note_on_c, 1, 57, 64
3, 480, Note_off_c, 1, 57, 64
3, 480, Note_on_c, 1, 59, 64
3, 600, Note_off_c, 1, 59, 64
3, 600, Note_on_c, 1, 61, 64
3, 720, Note_off_c, 1, 61, 64
3, 720, Note_on_c, 1, 63, 64
3, 840, Note_off_c, 1, 63, 64
3, 840, Note_on_c, 1, 64, 64
3, 900, Note_off_c, 1, 64, 64
3, 900, Note_on_c, 1, 63, 64
3, 960, Note_off_c, 1, 63, 64
3, 960, Note_on_c, 1, 61, 64
3, 1020, Note_off_c, 1, 61, 64
3, 1020, Note_on_c, 1, 59, 64
3, 1080, Note_off_c, 1, 59, 64
3, 1080, Note_on_c, 1, 64, 64
3, 1200, Note_off_c, 1, 64, 64
3, 1200, Note_on_c, 1, 52, 64
3, 1320, Note_off_c, 1, 52, 64
3, 1500, Note_on_c, 1, 52, 64
3, 1620, Note_off_c, 1, 52, 64
3, 1620, Note_on_c, 1, 51, 64
3, 1740, Note_off_c, 1, 51, 64
3, 1740, Note_on_c, 1, 50, 64
3, 1860, Note_off_c, 1, 50, 64
3, 1860, Note_on_c, 1, 49, 64
3, 1980, Note_off_c, 1, 49, 64
3, 1980, Note_on_c, 1, 47, 64
3, 2100, Note_off_c, 1, 47, 64
3, 2100, Note_on_c, 1, 45, 64
3, 2220, Note_off_c, 1, 45, 64
3, 2220, Note_on_c, 1, 44, 64
3, 2340, Note_off_c, 1, 44, 64
3, 2340, Note_on_c, 1, 42, 64
3, 2460, Note_off_c, 1, 42, 64
3, 2460, Note_on_c, 1, 44, 64
3, 2490, Note_off_c, 1, 44, 64
3, 2490, Note_on_c, 1, 45, 64
3, 2520, Note_off_c, 1, 45, 64
3, 2520, Note_on_c, 1, 44, 64
3, 2580, Note_off_c, 1, 44, 64
3, 2580, Note_on_c, 1, 47, 64
3, 2610, Note_off_c, 1, 47, 64
3, 2610, Note_on_c, 1, 45, 64
3, 2640, Note_off_c, 1, 45, 64
3, 2640, Note_on_c, 1, 47, 64
3, 2700, Note_off_c, 1, 47, 64
3, 2700, Note_on_c, 1, 44, 64
3, 2730, Note_off_c, 1, 44, 64
3, 2730, Note_on_c, 1, 42, 64
3, 2760, Note_off_c, 1, 42, 64
3, 2760, Note_on_c, 1, 44, 64
3, 2820, Note_off_c, 1, 44, 64
3, 2820, Note_on_c, 1, 40, 64
3, 2850, Note_off_c, 1, 40, 64
3, 2850, Note_on_c, 1, 39, 64
3, 2880, Note_off_c, 1, 39, 64
3, 2880, Note_on_c, 1, 40, 64
3, 3000, Note_off_c, 1, 40, 64
3, 3000, Note_on_c, 1, 49, 64
3, 3120, Note_off_c, 1, 49, 64
3, 3120, Note_on_c, 1, 52, 64
3, 3240, Note_off_c, 1, 52, 64
3, 3240, Note_on_c, 1, 54, 64
3, 3360, Note_off_c, 1, 54, 64
3, 3360, Note_on_c, 1, 58, 64
3, 3480, Note_off_c, 1, 58, 64
3, 3480, Note_on_c, 1, 61, 64
3, 3600, Note_off_c, 1, 61, 64
3, 3600, Note_on_c, 1, 39, 64
3, 3720, Note_off_c, 1, 39, 64
3, 3720, Note_on_c, 1, 47, 64
3, 3840, Note_off_c, 1, 47, 64
3, 3840, Note_on_c, 1, 51, 64
3, 3960, Note_off_c, 1, 51, 64
3, 3960, Note_on_c, 1, 52, 64
3, 4080, Note_off_c, 1, 52, 64
3, 4080, Note_on_c, 1, 56, 64
3, 4200, Note_off_c, 1, 56, 64
3, 4200, Note_on_c, 1, 59, 64
3, 4320, Note_off_c, 1, 59, 64
3, 4320, Note_on_c, 1, 37, 64
3, 4440, Note_off_c, 1, 37, 64
3, 4440, Note_on_c, 1, 49, 64
3, 4560, Note_off_c, 1, 49, 64
3, 4560, Note_on_c, 1, 52, 64
3, 4680, Note_off_c, 1, 52, 64
3, 4680, Note_on_c, 1, 54, 64
3, 4800, Note_off_c, 1, 54, 64
3, 4800, Note_on_c, 1, 56, 64
3, 4920, Note_off_c, 1, 56, 64
3, 4920, Note_on_c, 1, 58, 64
3, 5040, Note_off_c, 1, 58, 64
3, 5040, Note_on_c, 1, 59, 64
3, 5160, Note_off_c, 1, 59, 64
3, 5160, Note_on_c, 1, 52, 64
3, 5280, Note_off_c, 1, 52, 64
3, 5280, Note_on_c, 1, 56, 64
3, 5400, Note_off_c, 1, 56, 64
3, 5400, Note_on_c, 1, 54, 64
3, 5460, Note_off_c, 1, 54, 64
3, 5460, Note_on_c, 1, 61, 64
3, 5520, Note_off_c, 1, 61, 64
3, 5520, Note_on_c, 1, 58, 64
3, 5580, Note_off_c, 1, 58, 64
3, 5580, Note_on_c, 1, 61, 64
3, 5640, Note_off_c, 1, 61, 64
3, 5640, Note_on_c, 1, 52, 64
3, 5700, Note_off_c, 1, 52, 64
3, 5700, Note_on_c, 1, 61, 64
3, 5760, Note_off_c, 1, 61, 64
3, 5760, Note_on_c, 1, 51, 64
3, 5880, Note_off_c, 1, 51, 64
3, 5880, Note_on_c, 1, 52, 64
3, 6000, Note_off_c, 1, 52, 64
3, 6000, Note_on_c, 1, 54, 64
3, 6120, Note_off_c, 1, 54, 64
3, 6120, Note_on_c, 1, 47, 64
3, 6180, Note_off_c, 1, 47, 64
3, 6180, Note_on_c, 1, 59, 64
3, 6210, Note_off_c, 1, 59, 64
3, 6210, Note_on_c, 1, 58, 64
3, 6240, Note_off_c, 1, 58, 64
3, 6240, Note_on_c, 1, 59, 64
3, 6300, Note_off_c, 1, 59, 64
3, 6300, Note_on_c, 1, 54, 64
3, 6330, Note_off_c, 1, 54, 64
3, 6330, Note_on_c, 1, 52, 64
3, 6360, Note_off_c, 1, 52, 64
3, 6360, Note_on_c, 1, 54, 64
3, 6420, Note_off_c, 1, 54, 64
3, 6420, Note_on_c, 1, 51, 64
3, 6450, Note_off_c, 1, 51, 64
3, 6450, Note_on_c, 1, 49, 64
3, 6480, Note_off_c, 1, 49, 64
3, 6480, Note_on_c, 1, 51, 64
3, 6540, Note_off_c, 1, 51, 64
3, 6540, Note_on_c, 1, 54, 64
3, 6570, Note_off_c, 1, 54, 64
3, 6570, Note_on_c, 1, 52, 64
3, 6600, Note_off_c, 1, 52, 64
3, 6600, Note_on_c, 1, 54, 64
3, 6660, Note_off_c, 1, 54, 64
3, 6660, Note_on_c, 1, 51, 64
3, 6690, Note_off_c, 1, 51, 64
3, 6690, Note_on_c, 1, 49, 64
3, 6720, Note_off_c, 1, 49, 64
3, 6720, Note_on_c, 1, 51, 64
3, 6780, Note_off_c, 1, 51, 64
3, 6780, Note_on_c, 1, 47, 64
3, 6810, Note_off_c, 1, 47, 64
3, 6810, Note_on_c, 1, 46, 64
3, 6840, Note_off_c, 1, 46, 64
3, 6840, Note_on_c, 1, 47, 64
3, 7080, Note_off_c, 1, 47, 64
3, 7080, Note_on_c, 1, 35, 64
3, 7200, Note_off_c, 1, 35, 64
3, 7200, Note_on_c, 1, 52, 64
3, 7320, Note_off_c, 1, 52, 64
3, 7320, Note_on_c, 1, 54, 64
3, 7440, Note_off_c, 1, 54, 64
3, 7440, Note_on_c, 1, 56, 64
3, 7560, Note_off_c, 1, 56, 64
3, 7560, Note_on_c, 1, 57, 64
3, 7680, Note_off_c, 1, 57, 64
3, 7680, Note_on_c, 1, 59, 64
3, 7800, Note_off_c, 1, 59, 64
3, 7800, Note_on_c, 1, 61, 64
3, 7920, Note_off_c, 1, 61, 64
3, 7920, Note_on_c, 1, 63, 64
3, 8040, Note_off_c, 1, 63, 64
3, 8040, Note_on_c, 1, 64, 64
3, 8100, Note_off_c, 1, 64, 64
3, 8100, Note_on_c, 1, 63, 64
3, 8160, Note_off_c, 1, 63, 64
3, 8160, Note_on_c, 1, 61, 64
3, 8220, Note_off_c, 1, 61, 64
3, 8220, Note_on_c, 1, 59, 64
3, 8280, Note_off_c, 1, 59, 64
3, 8280, Note_on_c, 1, 64, 64
3, 8400, Note_off_c, 1, 64, 64
3, 8400, Note_on_c, 1, 52, 64
3, 8520, Note_off_c, 1, 52, 64
3, 8700, Note_on_c, 1, 52, 64
3, 8820, Note_off_c, 1, 52, 64
3, 8820, Note_on_c, 1, 51, 64
3, 8940, Note_off_c, 1, 51, 64
3, 8940, Note_on_c, 1, 50, 64
3, 9060, Note_off_c, 1, 50, 64
3, 9060, Note_on_c, 1, 49, 64
3, 9180, Note_off_c, 1, 49, 64
3, 9180, Note_on_c, 1, 47, 64
3, 9300, Note_off_c, 1, 47, 64
3, 9300, Note_on_c, 1, 45, 64
3, 9420, Note_off_c, 1, 45, 64
3, 9420, Note_on_c, 1, 44, 64
3, 9540, Note_off_c, 1, 44, 64
3, 9540, Note_on_c, 1, 42, 64
3, 9660, Note_off_c, 1, 42, 64
3, 9660, Note_on_c, 1, 44, 64
3, 9690, Note_off_c, 1, 44, 64
3, 9690, Note_on_c, 1, 45, 64
3, 9720, Note_off_c, 1, 45, 64
3, 9720, Note_on_c, 1, 44, 64
3, 9780, Note_off_c, 1, 44, 64
3, 9780, Note_on_c, 1, 47, 64
3, 9810, Note_off_c, 1, 47, 64
3, 9810, Note_on_c, 1, 45, 64
3, 9840, Note_off_c, 1, 45, 64
3, 9840, Note_on_c, 1, 47, 64
3, 9900, Note_off_c, 1, 47, 64
3, 9900, Note_on_c, 1, 44, 64
3, 9930, Note_off_c, 1, 44, 64
3, 9930, Note_on_c, 1, 42, 64
3, 9960, Note_off_c, 1, 42, 64
3, 9960, Note_on_c, 1, 44, 64
3, 10020, Note_off_c, 1, 44, 64
3, 10020, Note_on_c, 1, 40, 64
3, 10050, Note_off_c, 1, 40, 64
3, 10050, Note_on_c, 1, 39, 64
3, 10080, Note_off_c, 1, 39, 64
3, 10080, Note_on_c, 1, 40, 64
3, 10200, Note_off_c, 1, 40, 64
3, 10200, Note_on_c, 1, 49, 64
3, 10320, Note_off_c, 1, 49, 64
3, 10320, Note_on_c, 1, 52, 64
3, 10440, Note_off_c, 1, 52, 64
3, 10440, Note_on_c, 1, 54, 64
3, 10560, Note_off_c, 1, 54, 64
3, 10560, Note_on_c, 1, 58, 64
3, 10680, Note_off_c, 1, 58, 64
3, 10680, Note_on_c, 1, 61, 64
3, 10800, Note_off_c, 1, 61, 64
3, 10800, Note_on_c, 1, 39, 64
3, 10920, Note_off_c, 1, 39, 64
3, 10920, Note_on_c, 1, 47, 64
3, 11040, Note_off_c, 1, 47, 64
3, 11040, Note_on_c, 1, 51, 64
3, 11160, Note_off_c, 1, 51, 64
3, 11160, Note_on_c, 1, 52, 64
3, 11280, Note_off_c, 1, 52, 64
3, 11280, Note_on_c, 1, 56, 64
3, 11400, Note_off_c, 1, 56, 64
3, 11400, Note_on_c, 1, 59, 64
3, 11520, Note_off_c, 1, 59, 64
3, 11520, Note_on_c, 1, 37, 64
3, 11640, Note_off_c, 1, 37, 64
3, 11640, Note_on_c, 1, 49, 64
3, 11760, Note_off_c, 1, 49, 64
3, 11760, Note_on_c, 1, 52, 64
3, 11880, Note_off_c, 1, 52, 64
3, 11880, Note_on_c, 1, 54, 64
3, 12000, Note_off_c, 1, 54, 64
3, 12000, Note_on_c, 1, 56, 64
3, 12120, Note_off_c, 1, 56, 64
3, 12120, Note_on_c, 1, 58, 64
3, 12240, Note_off_c, 1, 58, 64
3, 12240, Note_on_c, 1, 59, 64
3, 12360, Note_off_c, 1, 59, 64
3, 12360, Note_on_c, 1, 52, 64
3, 12480, Note_off_c, 1, 52, 64
3, 12480, Note_on_c, 1, 56, 64
3, 12600, Note_off_c, 1, 56, 64
3, 12600, Note_on_c, 1, 54, 64
3, 12660, Note_off_c, 1, 54, 64
3, 12660, Note_on_c, 1, 61, 64
3, 12720, Note_off_c, 1, 61, 64
3, 12720, Note_on_c, 1, 58, 64
3, 12780, Note_off_c, 1, 58, 64
3, 12780, Note_on_c, 1, 61, 64
3, 12840, Note_off_c, 1, 61, 64
3, 12840, Note_on_c, 1, 52, 64
3, 12900, Note_off_c, 1, 52, 64
3, 12900, Note_on_c, 1, 61, 64
3, 12960, Note_off_c, 1, 61, 64
3, 12960, Note_on_c, 1, 51, 64
3, 13080, Note_off_c, 1, 51, 64
3, 13080, Note_on_c, 1, 52, 64
3, 13200, Note_off_c, 1, 52, 64
3, 13200, Note_on_c, 1, 54, 64
3, 13320, Note_off_c, 1, 54, 64
3, 13320, Note_on_c, 1, 47, 64
3, 13380, Note_off_c, 1, 47, 64
3, 13380, Note_on_c, 1, 59, 64
3, 13410, Note_off_c, 1, 59, 64
3, 13410, Note_on_c, 1, 58, 64
3, 13440, Note_off_c, 1, 58, 64
3, 13440, Note_on_c, 1, 59, 64
3, 13500, Note_off_c, 1, 59, 64
3, 13500, Note_on_c, 1, 54, 64
3, 13530, Note_off_c, 1, 54, 64
3, 13530, Note_on_c, 1, 52, 64
3, 13560, Note_off_c, 1, 52, 64
3, 13560, Note_on_c, 1, 54, 64
3, 13620, Note_off_c, 1, 54, 64
3, 13620, Note_on_c, 1, 51, 64
3, 13650, Note_off_c, 1, 51, 64
3, 13650, Note_on_c, 1, 49, 64
3, 13680, Note_off_c, 1, 49, 64
3, 13680, Note_on_c, 1, 51, 64
3, 13740, Note_off_c, 1, 51, 64
3, 13740, Note_on_c, 1, 54, 64
3, 13770, Note_off_c, 1, 54, 64
3, 13770, Note_on_c, 1, 52, 64
3, 13800, Note_off_c, 1, 52, 64
3, 13800, Note_on_c, 1, 54, 64
3, 13860, Note_off_c, 1, 54, 64
3, 13860, Note_on_c, 1, 51, 64
3, 13890, Note_off_c, 1, 51, 64
3, 13890, Note_on_c, 1, 49, 64
3, 13920, Note_off_c, 1, 49, 64
3, 13920, Note_on_c, 1, 51, 64
3, 13980, Note_off_c, 1, 51, 64
3, 13980, Note_on_c, 1, 47, 64
3, 14010, Note_off_c, 1, 47, 64
3, 14010, Note_on_c, 1, 46, 64
3, 14040, Note_off_c, 1, 46, 64
3, 14040, Note_on_c, 1, 47, 64
3, 14280, Note_off_c, 1, 47, 64
3, 14280, Note_on_c, 1, 35, 64
3, 14400, Note_off_c, 1, 35, 64
3, 14460, Note_on_c, 1, 59, 64
3, 14580, Note_off_c, 1, 59, 64
3, 14580, Note_on_c, 1, 58, 64
3, 14700, Note_off_c, 1, 58, 64
3, 14700, Note_on_c, 1, 57, 64
3, 14820, Note_off_c, 1, 57, 64
3, 14820, Note_on_c, 1, 56, 64
3, 14940, Note_off_c, 1, 56, 64
3, 14940, Note_on_c, 1, 54, 64
3, 15060, Note_off_c, 1, 54, 64
3, 15060, Note_on_c, 1, 52, 64
3, 15180, Note_off_c, 1, 52, 64
3, 15180, Note_on_c, 1, 51, 64
3, 15300, Note_off_c, 1, 51, 64
3, 15300, Note_on_c, 1, 49, 64
3, 15420, Note_off_c, 1, 49, 64
3, 15420, Note_on_c, 1, 51, 64
3, 15450, Note_off_c, 1, 51, 64
3, 15450, Note_on_c, 1, 52, 64
3, 15480, Note_off_c, 1, 52, 64
3, 15480, Note_on_c, 1, 51, 64
3, 15540, Note_off_c, 1, 51, 64
3, 15540, Note_on_c, 1, 54, 64
3, 15570, Note_off_c, 1, 54, 64
3, 15570, Note_on_c, 1, 52, 64
3, 15600, Note_off_c, 1, 52, 64
3, 15600, Note_on_c, 1, 54, 64
3, 15660, Note_off_c, 1, 54, 64
3, 15660, Note_on_c, 1, 51, 64
3, 15690, Note_off_c, 1, 51, 64
3, 15690, Note_on_c, 1, 49, 64
3, 15720, Note_off_c, 1, 49, 64
3, 15720, Note_on_c, 1, 51, 64
3, 15780, Note_off_c, 1, 51, 64
3, 15780, Note_on_c, 1, 47, 64
3, 15810, Note_off_c, 1, 47, 64
3, 15810, Note_on_c, 1, 46, 64
3, 15840, Note_off_c, 1, 46, 64
3, 15840, Note_on_c, 1, 47, 64
3, 15960, Note_off_c, 1, 47, 64
3, 15960, Note_on_c, 1, 49, 64
3, 16080, Note_off_c, 1, 49, 64
3, 16080, Note_on_c, 1, 51, 64
3, 16200, Note_off_c, 1, 51, 64
3, 16200, Note_on_c, 1, 52, 64
3, 16320, Note_off_c, 1, 52, 64
3, 16320, Note_on_c, 1, 54, 64
3, 16440, Note_off_c, 1, 54, 64
3, 16440, Note_on_c, 1, 56, 64
3, 16560, Note_off_c, 1, 56, 64
3, 16560, Note_on_c, 1, 58, 64
3, 16680, Note_off_c, 1, 58, 64
3, 16680, Note_on_c, 1, 59, 64
3, 16740, Note_off_c, 1, 59, 64
3, 16740, Note_on_c, 1, 58, 64
3, 16800, Note_off_c, 1, 58, 64
3, 16800, Note_on_c, 1, 56, 64
3, 16860, Note_off_c, 1, 56, 64
3, 16860, Note_on_c, 1, 54, 64
3, 16920, Note_off_c, 1, 54, 64
3, 16920, Note_on_c, 1, 59, 64
3, 17040, Note_off_c, 1, 59, 64
3, 17040, Note_on_c, 1, 47, 64
3, 17160, Note_off_c, 1, 47, 64
3, 17280, Note_on_c, 1, 56, 64
3, 17400, Note_off_c, 1, 56, 64
3, 17400, Note_on_c, 1, 59, 64
3, 17520, Note_off_c, 1, 59, 64
3, 17520, Note_on_c, 1, 63, 64
3, 17640, Note_off_c, 1, 63, 64
3, 17640, Note_on_c, 1, 55, 64
3, 17760, Note_off_c, 1, 55, 64
3, 17760, Note_on_c, 1, 58, 64
3, 17880, Note_off_c, 1, 58, 64
3, 17880, Note_on_c, 1, 63, 64
3, 18000, Note_off_c, 1, 63, 64
3, 18000, Note_on_c, 1, 56, 64
3, 18120, Note_off_c, 1, 56, 64
3, 18120, Note_on_c, 1, 59, 64
3, 18240, Note_off_c, 1, 59, 64
3, 18240, Note_on_c, 1, 63, 64
3, 18360, Note_off_c, 1, 63, 64
3, 18360, Note_on_c, 1, 51, 64
3, 18480, Note_off_c, 1, 51, 64
3, 18480, Note_on_c, 1, 63, 64
3, 18600, Note_off_c, 1, 63, 64
3, 18600, Note_on_c, 1, 61, 64
3, 18720, Note_off_c, 1, 61, 64
3, 18720, Note_on_c, 1, 60, 64
3, 18840, Note_off_c, 1, 60, 64
3, 18840, Note_on_c, 1, 61, 64
3, 18960, Note_off_c, 1, 61, 64
3, 18960, Note_on_c, 1, 63, 64
3, 19080, Note_off_c, 1, 63, 64
3, 19080, Note_on_c, 1, 56, 64
3, 19200, Note_off_c, 1, 56, 64
3, 19200, Note_on_c, 1, 61, 64
3, 19320, Note_off_c, 1, 61, 64
3, 19320, Note_on_c, 1, 59, 64
3, 19440, Note_off_c, 1, 59, 64
3, 19440, Note_on_c, 1, 58, 64
3, 19560, Note_off_c, 1, 58, 64
3, 19560, Note_on_c, 1, 59, 64
3, 19680, Note_off_c, 1, 59, 64
3, 19680, Note_on_c, 1, 61, 64
3, 19800, Note_off_c, 1, 61, 64
3, 19800, Note_on_c, 1, 54, 64
3, 19920, Note_off_c, 1, 54, 64
3, 19920, Note_on_c, 1, 59, 64
3, 20040, Note_off_c, 1, 59, 64
3, 20040, Note_on_c, 1, 63, 64
3, 20160, Note_off_c, 1, 63, 64
3, 20160, Note_on_c, 1, 55, 64
3, 20280, Note_off_c, 1, 55, 64
3, 20280, Note_on_c, 1, 56, 64
3, 20400, Note_off_c, 1, 56, 64
3, 20400, Note_on_c, 1, 58, 64
3, 20520, Note_off_c, 1, 58, 64
3, 20520, Note_on_c, 1, 51, 64
3, 20640, Note_off_c, 1, 51, 64
3, 20640, Note_on_c, 1, 56, 64
3, 20760, Note_off_c, 1, 56, 64
3, 20760, Note_on_c, 1, 59, 64
3, 20880, Note_off_c, 1, 59, 64
3, 20880, Note_on_c, 1, 49, 64
3, 21000, Note_off_c, 1, 49, 64
3, 21120, Note_on_c, 1, 61, 64
3, 21360, Note_off_c, 1, 61, 64
3, 21360, Note_on_c, 1, 58, 64
3, 21480, Note_off_c, 1, 58, 64
3, 21480, Note_on_c, 1, 55, 64
3, 21600, Note_off_c, 1, 55, 64
3, 21600, Note_on_c, 1, 56, 64
3, 21720, Note_off_c, 1, 56, 64
3, 21720, Note_on_c, 1, 49, 64
3, 21840, Note_off_c, 1, 49, 64
3, 21840, Note_on_c, 1, 51, 64
3, 21960, Note_off_c, 1, 51, 64
3, 21960, Note_on_c, 1, 44, 64
3, 22080, Note_off_c, 1, 44, 64
3, 22140, Note_on_c, 1, 44, 64
3, 22200, Note_off_c, 1, 44, 64
3, 22200, Note_on_c, 1, 56, 64
3, 22260, Note_off_c, 1, 56, 64
3, 22260, Note_on_c, 1, 54, 64
3, 22380, Note_off_c, 1, 54, 64
3, 22380, Note_on_c, 1, 52, 64
3, 22500, Note_off_c, 1, 52, 64
3, 22500, Note_on_c, 1, 51, 64
3, 22620, Note_off_c, 1, 51, 64
3, 22620, Note_on_c, 1, 50, 64
3, 22740, Note_off_c, 1, 50, 64
3, 22740, Note_on_c, 1, 49, 64
3, 22860, Note_off_c, 1, 49, 64
3, 22860, Note_on_c, 1, 47, 64
3, 22980, Note_off_c, 1, 47, 64
3, 22980, Note_on_c, 1, 45, 64
3, 23100, Note_off_c, 1, 45, 64
3, 23100, Note_on_c, 1, 44, 64
3, 23220, Note_off_c, 1, 44, 64
3, 23220, Note_on_c, 1, 42, 64
3, 23340, Note_off_c, 1, 42, 64
3, 23340, Note_on_c, 1, 44, 64
3, 23370, Note_off_c, 1, 44, 64
3, 23370, Note_on_c, 1, 45, 64
3, 23400, Note_off_c, 1, 45, 64
3, 23400, Note_on_c, 1, 44, 64
3, 23460, Note_off_c, 1, 44, 64
3, 23460, Note_on_c, 1, 47, 64
3, 23490, Note_off_c, 1, 47, 64
3, 23490, Note_on_c, 1, 45, 64
3, 23520, Note_off_c, 1, 45, 64
3, 23520, Note_on_c, 1, 47, 64
3, 23580, Note_off_c, 1, 47, 64
3, 23580, Note_on_c, 1, 44, 64
3, 23610, Note_off_c, 1, 44, 64
3, 23610, Note_on_c, 1, 42, 64
3, 23640, Note_off_c, 1, 42, 64
3, 23640, Note_on_c, 1, 44, 64
3, 23700, Note_off_c, 1, 44, 64
3, 23700, Note_on_c, 1, 40, 64
3, 23730, Note_off_c, 1, 40, 64
3, 23730, Note_on_c, 1, 39, 64
3, 23760, Note_off_c, 1, 39, 64
3, 23760, Note_on_c, 1, 40, 64
3, 23880, Note_off_c, 1, 40, 64
3, 23880, Note_on_c, 1, 42, 64
3, 24000, Note_off_c, 1, 42, 64
3, 24000, Note_on_c, 1, 44, 64
3, 24120, Note_off_c, 1, 44, 64
3, 24120, Note_on_c, 1, 45, 64
3, 24240, Note_off_c, 1, 45, 64
3, 24240, Note_on_c, 1, 47, 64
3, 24360, Note_off_c, 1, 47, 64
3, 24360, Note_on_c, 1, 49, 64
3, 24480, Note_off_c, 1, 49, 64
3, 24480, Note_on_c, 1, 51, 64
3, 24600, Note_off_c, 1, 51, 64
3, 24600, Note_on_c, 1, 52, 64
3, 24660, Note_off_c, 1, 52, 64
3, 24660, Note_on_c, 1, 51, 64
3, 24720, Note_off_c, 1, 51, 64
3, 24720, Note_on_c, 1, 49, 64
3, 24780, Note_off_c, 1, 49, 64
3, 24780, Note_on_c, 1, 47, 64
3, 24840, Note_off_c, 1, 47, 64
3, 24840, Note_on_c, 1, 52, 64
3, 25020, Note_off_c, 1, 52, 64
3, 25020, Note_on_c, 1, 59, 64
3, 25050, Note_off_c, 1, 59, 64
3, 25050, Note_on_c, 1, 57, 64
3, 25080, Note_off_c, 1, 57, 64
3, 25080, Note_on_c, 1, 59, 64
3, 25140, Note_off_c, 1, 59, 64
3, 25140, Note_on_c, 1, 56, 64
3, 25170, Note_off_c, 1, 56, 64
3, 25170, Note_on_c, 1, 54, 64
3, 25200, Note_off_c, 1, 54, 64
3, 25200, Note_on_c, 1, 56, 64
3, 25260, Note_off_c, 1, 56, 64
3, 25260, Note_on_c, 1, 61, 64
3, 25380, Note_off_c, 1, 61, 64
3, 25380, Note_on_c, 1, 57, 64
3, 25500, Note_off_c, 1, 57, 64
3, 25500, Note_on_c, 1, 54, 64
3, 25620, Note_off_c, 1, 54, 64
3, 25620, Note_on_c, 1, 57, 64
3, 25650, Note_off_c, 1, 57, 64
3, 25650, Note_on_c, 1, 56, 64
3, 25680, Note_off_c, 1, 56, 64
3, 25680, Note_on_c, 1, 57, 64
3, 25740, Note_off_c, 1, 57, 64
3, 25740, Note_on_c, 1, 54, 64
3, 25800, Note_off_c, 1, 54, 64
3, 25800, Note_on_c, 1, 51, 64
3, 25860, Note_off_c, 1, 51, 64
3, 25860, Note_on_c, 1, 47, 64
3, 25980, Note_off_c, 1, 47, 64
3, 25980, Note_on_c, 1, 59, 64
3, 26100, Note_off_c, 1, 59, 64
3, 26100, Note_on_c, 1, 56, 64
3, 26220, Note_off_c, 1, 56, 64
3, 26220, Note_on_c, 1, 52, 64
3, 26340, Note_off_c, 1, 52, 64
3, 26340, Note_on_c, 1, 56, 64
3, 26370, Note_off_c, 1, 56, 64
3, 26370, Note_on_c, 1, 54, 64
3, 26400, Note_off_c, 1, 54, 64
3, 26400, Note_on_c, 1, 56, 64
3, 26460, Note_off_c, 1, 56, 64
3, 26460, Note_on_c, 1, 52, 64
3, 26520, Note_off_c, 1, 52, 64
3, 26520, Note_on_c, 1, 49, 64
3, 26580, Note_off_c, 1, 49, 64
3, 26580, Note_on_c, 1, 45, 64
3, 26700, Note_off_c, 1, 45, 64
3, 26700, Note_on_c, 1, 57, 64
3, 26820, Note_off_c, 1, 57, 64
3, 26820, Note_on_c, 1, 54, 64
3, 26940, Note_off_c, 1, 54, 64
3, 26940, Note_on_c, 1, 51, 64
3, 27060, Note_off_c, 1, 51, 64
3, 27060, Note_on_c, 1, 61, 64
3, 27180, Note_off_c, 1, 61, 64
3, 27180, Note_on_c, 1, 59, 64
3, 27300, Note_off_c, 1, 59, 64
3, 27300, Note_on_c, 1, 57, 64
3, 27420, Note_off_c, 1, 57, 64
3, 27420, Note_on_c, 1, 56, 64
3, 27540, Note_off_c, 1, 56, 64
3, 27540, Note_on_c, 1, 54, 64
3, 27660, Note_off_c, 1, 54, 64
3, 27660, Note_on_c, 1, 52, 64
3, 27720, Note_off_c, 1, 52, 64
3, 27720, Note_on_c, 1, 51, 64
3, 27780, Note_off_c, 1, 51, 64
3, 27780, Note_on_c, 1, 57, 64
3, 27810, Note_off_c, 1, 57, 64
3, 27810, Note_on_c, 1, 56, 64
3, 27840, Note_off_c, 1, 56, 64
3, 27840, Note_on_c, 1, 57, 64
3, 27900, Note_off_c, 1, 57, 64
3, 27900, Note_on_c, 1, 51, 64
3, 27930, Note_off_c, 1, 51, 64
3, 27930, Note_on_c, 1, 50, 64
3, 27960, Note_off_c, 1, 50, 64
3, 27960, Note_on_c, 1, 51, 64
3, 28020, Note_off_c, 1, 51, 64
3, 28020, Note_on_c, 1, 56, 64
3, 28050, Note_off_c, 1, 56, 64
3, 28050, Note_on_c, 1, 54, 64
3, 28080, Note_off_c, 1, 54, 64
3, 28080, Note_on_c, 1, 56, 64
3, 28200, Note_off_c, 1, 56, 64
3, 28200, Note_on_c, 1, 57, 64
3, 28320, Note_off_c, 1, 57, 64
3, 28320, Note_on_c, 1, 59, 64
3, 28440, Note_off_c, 1, 59, 64
3, 28440, Note_on_c, 1, 52, 64
3, 28560, Note_off_c, 1, 52, 64
3, 28620, Note_on_c, 1, 64, 64
3, 28680, Note_off_c, 1, 64, 64
3, 28680, Note_on_c, 1, 59, 64
3, 28740, Note_off_c, 1, 59, 64
3, 28740, Note_on_c, 1, 56, 64
3, 28800, Note_off_c, 1, 56, 64
3, 28800, Note_on_c, 1, 52, 64
3, 28860, Note_off_c, 1, 52, 64
3, 28860, Note_on_c, 1, 59, 64
3, 28920, Note_off_c, 1, 59, 64
3, 28920, Note_on_c, 1, 56, 64
3, 28980, Note_off_c, 1, 56, 64
3, 28980, Note_on_c, 1, 52, 64
3, 29040, Note_off_c, 1, 52, 64
3, 29040, Note_on_c, 1, 47, 64
3, 29100, Note_off_c, 1, 47, 64
3, 29100, Note_on_c, 1, 44, 64
3, 29160, Note_off_c, 1, 44, 64
3, 29160, Note_on_c, 1, 40, 64
3, 29400, Note_off_c, 1, 40, 64
3, 29400, Note_on_c, 1, 52, 64
3, 29520, Note_off_c, 1, 52, 64
3, 29580, Note_on_c, 1, 59, 64
3, 29700, Note_off_c, 1, 59, 64
3, 29700, Note_on_c, 1, 58, 64
3, 29820, Note_off_c, 1, 58, 64
3, 29820, Note_on_c, 1, 57, 64
3, 29940, Note_off_c, 1, 57, 64
3, 29940, Note_on_c, 1, 56, 64
3, 30060, Note_off_c, 1, 56, 64
3, 30060, Note_on_c, 1, 54, 64
3, 30180, Note_off_c, 1, 54, 64
3, 30180, Note_on_c, 1, 52, 64
3, 30300, Note_off_c, 1, 52, 64
3, 30300, Note_on_c, 1, 51, 64
3, 30420, Note_off_c, 1, 51, 64
3, 30420, Note_on_c, 1, 49, 64
3, 30540, Note_off_c, 1, 49, 64
3, 30540, Note_on_c, 1, 51, 64
3, 30570, Note_off_c, 1, 51, 64
3, 30570, Note_on_c, 1, 52, 64
3, 30600, Note_off_c, 1, 52, 64
3, 30600, Note_on_c, 1, 51, 64
3, 30660, Note_off_c, 1, 51, 64
3, 30660, Note_on_c, 1, 54, 64
3, 30690, Note_off_c, 1, 54, 64
3, 30690, Note_on_c, 1, 52, 64
3, 30720, Note_off_c, 1, 52, 64
3, 30720, Note_on_c, 1, 54, 64
3, 30780, Note_off_c, 1, 54, 64
3, 30780, Note_on_c, 1, 51, 64
3, 30810, Note_off_c, 1, 51, 64
3, 30810, Note_on_c, 1, 49, 64
3, 30840, Note_off_c, 1, 49, 64
3, 30840, Note_on_c, 1, 51, 64
3, 30900, Note_off_c, 1, 51, 64
3, 30900, Note_on_c, 1, 47, 64
3, 30930, Note_off_c, 1, 47, 64
3, 30930, Note_on_c, 1, 46, 64
3, 30960, Note_off_c, 1, 46, 64
3, 30960, Note_on_c, 1, 47, 64
3, 31080, Note_off_c, 1, 47, 64
3, 31080, Note_on_c, 1, 49, 64
3, 31200, Note_off_c, 1, 49, 64
3, 31200, Note_on_c, 1, 51, 64
3, 31320, Note_off_c, 1, 51, 64
3, 31320, Note_on_c, 1, 52, 64
3, 31440, Note_off_c, 1, 52, 64
3, 31440, Note_on_c, 1, 54, 64
3, 31560, Note_off_c, 1, 54, 64
3, 31560, Note_on_c, 1, 56, 64
3, 31680, Note_off_c, 1, 56, 64
3, 31680, Note_on_c, 1, 58, 64
3, 31800, Note_off_c, 1, 58, 64
3, 31800, Note_on_c, 1, 59, 64
3, 31860, Note_off_c, 1, 59, 64
3, 31860, Note_on_c, 1, 58, 64
3, 31920, Note_off_c, 1, 58, 64
3, 31920, Note_on_c, 1, 56, 64
3, 31980, Note_off_c, 1, 56, 64
3, 31980, Note_on_c, 1, 54, 64
3, 32040, Note_off_c, 1, 54, 64
3, 32040, Note_on_c, 1, 59, 64
3, 32160, Note_off_c, 1, 59, 64
3, 32160, Note_on_c, 1, 47, 64
3, 32280, Note_off_c, 1, 47, 64
3, 32400, Note_on_c, 1, 56, 64
3, 32520, Note_off_c, 1, 56, 64
3, 32520, Note_on_c, 1, 59, 64
3, 32640, Note_off_c, 1, 59, 64
3, 32640, Note_on_c, 1, 63, 64
3, 32760, Note_off_c, 1, 63, 64
3, 32760, Note_on_c, 1, 55, 64
3, 32880, Note_off_c, 1, 55, 64
3, 32880, Note_on_c, 1, 58, 64
3, 33000, Note_off_c, 1, 58, 64
3, 33000, Note_on_c, 1, 63, 64
3, 33120, Note_off_c, 1, 63, 64
3, 33120, Note_on_c, 1, 56, 64
3, 33240, Note_off_c, 1, 56, 64
3, 33240, Note_on_c, 1, 59, 64
3, 33360, Note_off_c, 1, 59, 64
3, 33360, Note_on_c, 1, 63, 64
3, 33480, Note_off_c, 1, 63, 64
3, 33480, Note_on_c, 1, 51, 64
3, 33600, Note_off_c, 1, 51, 64
3, 33600, Note_on_c, 1, 63, 64
3, 33720, Note_off_c, 1, 63, 64
3, 33720, Note_on_c, 1, 61, 64
3, 33840, Note_off_c, 1, 61, 64
3, 33840, Note_on_c, 1, 60, 64
3, 33960, Note_off_c, 1, 60, 64
3, 33960, Note_on_c, 1, 61, 64
3, 34080, Note_off_c, 1, 61, 64
3, 34080, Note_on_c, 1, 63, 64
3, 34200, Note_off_c, 1, 63, 64
3, 34200, Note_on_c, 1, 56, 64
3, 34320, Note_off_c, 1, 56, 64
3, 34320, Note_on_c, 1, 61, 64
3, 34440, Note_off_c, 1, 61, 64
3, 34440, Note_on_c, 1, 59, 64
3, 34560, Note_off_c, 1, 59, 64
3, 34560, Note_on_c, 1, 58, 64
3, 34680, Note_off_c, 1, 58, 64
3, 34680, Note_on_c, 1, 59, 64
3, 34800, Note_off_c, 1, 59, 64
3, 34800, Note_on_c, 1, 61, 64
3, 34920, Note_off_c, 1, 61, 64
3, 34920, Note_on_c, 1, 54, 64
3, 35040, Note_off_c, 1, 54, 64
3, 35040, Note_on_c, 1, 59, 64
3, 35160, Note_off_c, 1, 59, 64
3, 35160, Note_on_c, 1, 63, 64
3, 35280, Note_off_c, 1, 63, 64
3, 35280, Note_on_c, 1, 55, 64
3, 35400, Note_off_c, 1, 55, 64
3, 35400, Note_on_c, 1, 56, 64
3, 35520, Note_off_c, 1, 56, 64
3, 35520, Note_on_c, 1, 58, 64
3, 35640, Note_off_c, 1, 58, 64
3, 35640, Note_on_c, 1, 51, 64
3, 35760, Note_off_c, 1, 51, 64
3, 35760, Note_on_c, 1, 56, 64
3, 35880, Note_off_c, 1, 56, 64
3, 35880, Note_on_c, 1, 59, 64
3, 36000, Note_off_c, 1, 59, 64
3, 36000, Note_on_c, 1, 49, 64
3, 36120, Note_off_c, 1, 49, 64
3, 36240, Note_on_c, 1, 61, 64
3, 36480, Note_off_c, 1, 61, 64
3, 36480, Note_on_c, 1, 58, 64
3, 36600, Note_off_c, 1, 58, 64
3, 36600, Note_on_c, 1, 55, 64
3, 36720, Note_off_c, 1, 55, 64
3, 36720, Note_on_c, 1, 56, 64
3, 36840, Note_off_c, 1, 56, 64
3, 36840, Note_on_c, 1, 49, 64
3, 36960, Note_off_c, 1, 49, 64
3, 36960, Note_on_c, 1, 51, 64
3, 37080, Note_off_c, 1, 51, 64
3, 37080, Note_on_c, 1, 44, 64
3, 37200, Note_off_c, 1, 44, 64
3, 37260, Note_on_c, 1, 44, 64
3, 37320, Note_off_c, 1, 44, 64
3, 37320, Note_on_c, 1, 56, 64
3, 37380, Note_off_c, 1, 56, 64
3, 37380, Note_on_c, 1, 54, 64
3, 37500, Note_off_c, 1, 54, 64
3, 37500, Note_on_c, 1, 52, 64
3, 37620, Note_off_c, 1, 52, 64
3, 37620, Note_on_c, 1, 51, 64
3, 37740, Note_off_c, 1, 51, 64
3, 37740, Note_on_c, 1, 50, 64
3, 37860, Note_off_c, 1, 50, 64
3, 37860, Note_on_c, 1, 49, 64
3, 37980, Note_off_c, 1, 49, 64
3, 37980, Note_on_c, 1, 47, 64
3, 38100, Note_off_c, 1, 47, 64
3, 38100, Note_on_c, 1, 45, 64
3, 38220, Note_off_c, 1, 45, 64
3, 38220, Note_on_c, 1, 44, 64
3, 38340, Note_off_c, 1, 44, 64
3, 38340, Note_on_c, 1, 42, 64
3, 38460, Note_off_c, 1, 42, 64
3, 38460, Note_on_c, 1, 44, 64
3, 38490, Note_off_c, 1, 44, 64
3, 38490, Note_on_c, 1, 45, 64
3, 38520, Note_off_c, 1, 45, 64
3, 38520, Note_on_c, 1, 44, 64
3, 38580, Note_off_c, 1, 44, 64
3, 38580, Note_on_c, 1, 47, 64
3, 38610, Note_off_c, 1, 47, 64
3, 38610, Note_on_c, 1, 45, 64
3, 38640, Note_off_c, 1, 45, 64
3, 38640, Note_on_c, 1, 47, 64
3, 38700, Note_off_c, 1, 47, 64
3, 38700, Note_on_c, 1, 44, 64
3, 38730, Note_off_c, 1, 44, 64
3, 38730, Note_on_c, 1, 42, 64
3, 38760, Note_off_c, 1, 42, 64
3, 38760, Note_on_c, 1, 44, 64
3, 38820, Note_off_c, 1, 44, 64
3, 38820, Note_on_c, 1, 40, 64
3, 38850, Note_off_c, 1, 40, 64
3, 38850, Note_on_c, 1, 39, 64
3, 38880, Note_off_c, 1, 39, 64
3, 38880, Note_on_c, 1, 40, 64
3, 39000, Note_off_c, 1, 40, 64
3, 39000, Note_on_c, 1, 42, 64
3, 39120, Note_off_c, 1, 42, 64
3, 39120, Note_on_c, 1, 44, 64
3, 39240, Note_off_c, 1, 44, 64
3, 39240, Note_on_c, 1, 45, 64
3, 39360, Note_off_c, 1, 45, 64
3, 39360, Note_on_c, 1, 47, 64
3, 39480, Note_off_c, 1, 47, 64
3, 39480, Note_on_c, 1, 49, 64
3, 39600, Note_off_c, 1, 49, 64
3, 39600, Note_on_c, 1, 51, 64
3, 39720, Note_off_c, 1, 51, 64
3, 39720, Note_on_c, 1, 52, 64
3, 39780, Note_off_c, 1, 52, 64
3, 39780, Note_on_c, 1, 51, 64
3, 39840, Note_off_c, 1, 51, 64
3, 39840, Note_on_c, 1, 49, 64
3, 39900, Note_off_c, 1, 49, 64
3, 39900, Note_on_c, 1, 47, 64
3, 39960, Note_off_c, 1, 47, 64
3, 39960, Note_on_c, 1, 52, 64
3, 40140, Note_off_c, 1, 52, 64
3, 40140, Note_on_c, 1, 59, 64
3, 40170, Note_off_c, 1, 59, 64
3, 40170, Note_on_c, 1, 57, 64
3, 40200, Note_off_c, 1, 57, 64
3, 40200, Note_on_c, 1, 59, 64
3, 40260, Note_off_c, 1, 59, 64
3, 40260, Note_on_c, 1, 56, 64
3, 40290, Note_off_c, 1, 56, 64
3, 40290, Note_on_c, 1, 54, 64
3, 40320, Note_off_c, 1, 54, 64
3, 40320, Note_on_c, 1, 56, 64
3, 40380, Note_off_c, 1, 56, 64
3, 40380, Note_on_c, 1, 61, 64
3, 40500, Note_off_c, 1, 61, 64
3, 40500, Note_on_c, 1, 57, 64
3, 40620, Note_off_c, 1, 57, 64
3, 40620, Note_on_c, 1, 54, 64
3, 40740, Note_off_c, 1, 54, 64
3, 40740, Note_on_c, 1, 57, 64
3, 40770, Note_off_c, 1, 57, 64
3, 40770, Note_on_c, 1, 56, 64
3, 40800, Note_off_c, 1, 56, 64
3, 40800, Note_on_c, 1, 57, 64
3, 40860, Note_off_c, 1, 57, 64
3, 40860, Note_on_c, 1, 54, 64
3, 40920, Note_off_c, 1, 54, 64
3, 40920, Note_on_c, 1, 51, 64
3, 40980, Note_off_c, 1, 51, 64
3, 40980, Note_on_c, 1, 47, 64
3, 41100, Note_off_c, 1, 47, 64
3, 41100, Note_on_c, 1, 59, 64
3, 41220, Note_off_c, 1, 59, 64
3, 41220, Note_on_c, 1, 56, 64
3, 41340, Note_off_c, 1, 56, 64
3, 41340, Note_on_c, 1, 52, 64
3, 41460, Note_off_c, 1, 52, 64
3, 41460, Note_on_c, 1, 56, 64
3, 41490, Note_off_c, 1, 56, 64
3, 41490, Note_on_c, 1, 54, 64
3, 41520, Note_off_c, 1, 54, 64
3, 41520, Note_on_c, 1, 56, 64
3, 41580, Note_off_c, 1, 56, 64
3, 41580, Note_on_c, 1, 52, 64
3, 41640, Note_off_c, 1, 52, 64
3, 41640, Note_on_c, 1, 49, 64
3, 41700, Note_off_c, 1, 49, 64
3, 41700, Note_on_c, 1, 45, 64
3, 41820, Note_off_c, 1, 45, 64
3, 41820, Note_on_c, 1, 57, 64
3, 41940, Note_off_c, 1, 57, 64
3, 41940, Note_on_c, 1, 54, 64
3, 42060, Note_off_c, 1, 54, 64
3, 42060, Note_on_c, 1, 51, 64
3, 42180, Note_off_c, 1, 51, 64
3, 42180, Note_on_c, 1, 61, 64
3, 42300, Note_off_c, 1, 61, 64
3, 42300, Note_on_c, 1, 59, 64
3, 42420, Note_off_c, 1, 59, 64
3, 42420, Note_on_c, 1, 57, 64
3, 42540, Note_off_c, 1, 57, 64
3, 42540, Note_on_c, 1, 56, 64
3, 42660, Note_off_c, 1, 56, 64
3, 42660, Note_on_c, 1, 54, 64
3, 42780, Note_off_c, 1, 54, 64
3, 42780, Note_on_c, 1, 52, 64
3, 42840, Note_off_c, 1, 52, 64
3, 42840, Note_on_c, 1, 51, 64
3, 42900, Note_off_c, 1, 51, 64
3, 42900, Note_on_c, 1, 57, 64
3, 42930, Note_off_c, 1, 57, 64
3, 42930, Note_on_c, 1, 56, 64
3, 42960, Note_off_c, 1, 56, 64
3, 42960, Note_on_c, 1, 57, 64
3, 43020, Note_off_c, 1, 57, 64
3, 43020, Note_on_c, 1, 51, 64
3, 43050, Note_off_c, 1, 51, 64
3, 43050, Note_on_c, 1, 50, 64
3, 43080, Note_off_c, 1, 50, 64
3, 43080, Note_on_c, 1, 51, 64
3, 43140, Note_off_c, 1, 51, 64
3, 43140, Note_on_c, 1, 56, 64
3, 43170, Note_off_c, 1, 56, 64
3, 43170, Note_on_c, 1, 54, 64
3, 43200, Note_off_c, 1, 54, 64
3, 43200, Note_on_c, 1, 56, 64
3, 43320, Note_off_c, 1, 56, 64
3, 43320, Note_on_c, 1, 57, 64
3, 43440, Note_off_c, 1, 57, 64
3, 43440, Note_on_c, 1, 59, 64
3, 43560, Note_off_c, 1, 59, 64
3, 43560, Note_on_c, 1, 52, 64
3, 43680, Note_off_c, 1, 52, 64
3, 43740, Note_on_c, 1, 64, 64
3, 43800, Note_off_c, 1, 64, 64
3, 43800, Note_on_c, 1, 59, 64
3, 43860, Note_off_c, 1, 59, 64
3, 43860, Note_on_c, 1, 56, 64
3, 43920, Note_off_c, 1, 56, 64
3, 43920, Note_on_c, 1, 52, 64
3, 43980, Note_off_c, 1, 52, 64
3, 43980, Note_on_c, 1, 59, 64
3, 44040, Note_off_c, 1, 59, 64
3, 44040, Note_on_c, 1, 56, 64
3, 44100, Note_off_c, 1, 56, 64
3, 44100, Note_on_c, 1, 52, 64
3, 44160, Note_off_c, 1, 52, 64
3, 44160, Note_on_c, 1, 47, 64
3, 44220, Note_off_c, 1, 47, 64
3, 44220, Note_on_c, 1, 44, 64
3, 44280, Note_off_c, 1, 44, 64
3, 44280, Note_on_c, 1, 40, 64
3, 44520, Note_off_c, 1, 40, 64
3, 44520, Note_on_c, 1, 52, 64
3, 44760, Note_off_c, 1, 52, 64
3, 44760, End_track
0, 0, End_of_file
