0, 0, Header, 1, 3, 240
1, 0, Start_track
1, 0, Time_signature, 9, 3, 36, 8
1, 0, Tempo, 303030
1, 0, End_track
2, 0, Start_track
2, 0, Text_t, "RH"
2, 0, Note_on_c, 0, 67, 64
2, 120, Note_off_c, 0, 67, 64
2, 120, Note_on_c, 0, 71, 64
2, 240, Note_off_c, 0, 71, 64
2, 240, Note_on_c, 0, 74, 64
2, 360, Note_off_c, 0, 74, 64
2, 360, Note_on_c, 0, 71, 64
2, 480, Note_off_c, 0, 71, 64
2, 480, Note_on_c, 0, 67, 64
2, 600, Note_off_c, 0, 67, 64
2, 600, Note_on_c, 0, 74, 64
2, 720, Note_off_c, 0, 74, 64
2, 720, Note_on_c, 0, 71, 64
2, 840, Note_off_c, 0, 71, 64
2, 840, Note_on_c, 0, 67, 64
2, 960, Note_off_c, 0, 67, 64
2, 960, Note_on_c, 0, 79, 64
2, 1080, Note_off_c, 0, 79, 64
2, 1080, Note_on_c, 0, 78, 64
2, 1140, Note_off_c, 0, 78, 64
2, 1140, Note_on_c, 0, 79, 56
2, 1200, Note_off_c, 0, 79, 64
2, 1200, Note_on_c, 0, 78, 64
2, 1320, Note_off_c, 0, 78, 64
2, 1320, Note_on_c, 0, 74, 64
2, 1440, Note_off_c, 0, 74, 64
2, 1440, Note_on_c, 0, 81, 64
2, 1560, Note_off_c, 0, 81, 64
2, 1560, Note_on_c, 0, 78, 64
2, 1680, Note_off_c, 0, 78, 64
2, 1680, Note_on_c, 0, 74, 64
2, 1800, Note_off_c, 0, 74, 64
2, 1800, Note_on_c, 0, 81, 64
2, 1920, Note_off_c, 0, 81, 64
2, 1920, Note_on_c, 0, 78, 64
2, 2040, Note_off_c, 0, 78, 64
2, 2040, Note_on_c, 0, 74, 64
2, 2160, Note_off_c, 0, 74, 64
2, 2160, Note_on_c, 0, 79, 64
2, 2280, Note_off_c, 0, 79, 64
2, 2280, Note_on_c, 0, 74, 64
2, 2400, Note_off_c, 0, 74, 64
2, 2400, Note_on_c, 0, 71, 64
2, 2520, Note_off_c, 0, 71, 64
2, 2520, Note_on_c, 0, 77, 64
2, 2640, Note_off_c, 0, 77, 64
2, 2640, Note_on_c, 0, 74, 64
2, 2760, Note_off_c, 0, 74, 64
2, 2760, Note_on_c, 0, 71, 64
2, 2880, Note_off_c, 0, 71, 64
2, 2880, Note_on_c, 0, 77, 64
2, 3000, Note_off_c, 0, 77, 64
2, 3000, Note_on_c, 0, 74, 64
2, 3120, Note_off_c, 0, 74, 64
2, 3120, Note_on_c, 0, 71, 64
2, 3240, Note_off_c, 0, 71, 64
2, 3240, Note_on_c, 0, 76, 64
2, 3360, Note_off_c, 0, 76, 64
2, 3360, Note_on_c, 0, 72, 64
2, 3480, Note_off_c, 0, 72, 64
2, 3480, Note_on_c, 0, 69, 64
2, 3600, Note_off_c, 0, 69, 64
2, 3600, Note_on_c, 0, 66, 64
2, 3720, Note_off_c, 0, 66, 64
2, 3720, Note_on_c, 0, 69, 64
2, 3840, Note_off_c, 0, 69, 64
2, 3840, Note_on_c, 0, 72, 64
2, 3960, Note_off_c, 0, 72, 64
2, 3960, Note_on_c, 0, 76, 64
2, 4080, Note_off_c, 0, 76, 64
2, 4080, Note_on_c, 0, 74, 64
2, 4200, Note_off_c, 0, 74, 64
2, 4200, Note_on_c, 0, 72, 64
2, 4320, Note_off_c, 0, 72, 64
2, 4320, Note_on_c, 0, 74, 64
2, 4440, Note_off_c, 0, 74, 64
2, 4440, Note_on_c, 0, 71, 64
2, 4560, Note_off_c, 0, 71, 64
2, 4560, Note_on_c, 0, 67, 64
2, 4680, Note_off_c, 0, 67, 64
2, 4680, Note_on_c, 0, 64, 64
2, 4800, Note_off_c, 0, 64, 64
2, 4800, Note_on_c, 0, 67, 64
2, 4920, Note_off_c, 0, 67, 64
2, 4920, Note_on_c, 0, 71, 64
2, 5040, Note_off_c, 0, 71, 64
2, 5040, Note_on_c, 0, 74, 64
2, 5160, Note_off_c, 0, 74, 64
2, 5160, Note_on_c, 0, 72, 64
2, 5280, Note_off_c, 0, 72, 64
2, 5280, Note_on_c, 0, 71, 64
2, 5400, Note_off_c, 0, 71, 64
2, 5400, Note_on_c, 0, 72, 64
2, 5520, Note_off_c, 0, 72, 64
2, 5520, Note_on_c, 0, 69, 64
2, 5640, Note_off_c, 0, 69, 64
2, 5640, Note_on_c, 0, 66, 64
2, 5760, Note_off_c, 0, 66, 64
2, 5760, Note_on_c, 0, 62, 64
2, 5880, Note_off_c, 0, 62, 64
2, 5880, Note_on_c, 0, 66, 64
2, 6000, Note_off_c, 0, 66, 64
2, 6000, Note_on_c, 0, 69, 64
2, 6120, Note_off_c, 0, 69, 64
2, 6120, Note_on_c, 0, 72, 64
2, 6240, Note_off_c, 0, 72, 64
2, 6240, Note_on_c, 0, 71, 64
2, 6360, Note_off_c, 0, 71, 64
2, 6360, Note_on_c, 0, 69, 64
2, 6480, Note_off_c, 0, 69, 64
2, 6480, Note_on_c, 0, 71, 64
2, 6600, Note_off_c, 0, 71, 64
2, 6600, Note_on_c, 0, 72, 64
2, 6720, Note_off_c, 0, 72, 64
2, 6720, Note_on_c, 0, 74, 64
2, 6840, Note_off_c, 0, 74, 64
2, 6840, Note_on_c, 0, 76, 64
2, 6960, Note_off_c, 0, 76, 64
2, 6960, Note_on_c, 0, 71, 64
2, 7080, Note_off_c, 0, 71, 64
2, 7080, Note_on_c, 0, 79, 64
2, 7200, Note_off_c, 0, 79, 64
2, 7200, Note_on_c, 0, 76, 64
2, 7320, Note_off_c, 0, 76, 64
2, 7320, Note_on_c, 0, 71, 64
2, 7440, Note_off_c, 0, 71, 64
2, 7440, Note_on_c, 0, 79, 64
2, 7560, Note_off_c, 0, 79, 64
2, 7560, Note_on_c, 0, 69, 64
2, 7680, Note_off_c, 0, 69, 64
2, 7680, Note_on_c, 0, 71, 64
2, 7800, Note_off_c, 0, 71, 64
2, 7800, Note_on_c, 0, 73, 64
2, 7920, Note_off_c, 0, 73, 64
2, 7920, Note_on_c, 0, 74, 64
2, 8040, Note_off_c, 0, 74, 64
2, 8040, Note_on_c, 0, 69, 64
2, 8160, Note_off_c, 0, 69, 64
2, 8160, Note_on_c, 0, 78, 64
2, 8280, Note_off_c, 0, 78, 64
2, 8280, Note_on_c, 0, 74, 64
2, 8400, Note_off_c, 0, 74, 64
2, 8400, Note_on_c, 0, 69, 64
2, 8520, Note_off_c, 0, 69, 64
2, 8520, Note_on_c, 0, 78, 64
2, 8640, Note_off_c, 0, 78, 64
2, 8640, Note_on_c, 0, 67, 64
2, 8700, Note_off_c, 0, 67, 64
2, 8700, Note_on_c, 0, 66, 56
2, 8760, Note_off_c, 0, 66, 64
2, 8760, Note_on_c, 0, 67, 64
2, 9120, Note_off_c, 0, 67, 64
2, 9120, Note_on_c, 0, 69, 64
2, 9240, Note_off_c, 0, 69, 64
2, 9240, Note_on_c, 0, 67, 64
2, 9360, Note_off_c, 0, 67, 64
2, 9360, Note_on_c, 0, 66, 64
2, 9480, Note_off_c, 0, 66, 64
2, 9480, Note_on_c, 0, 67, 64
2, 9600, Note_off_c, 0, 67, 64
2, 9600, Note_on_c, 0, 64, 64
2, 9720, Note_off_c, 0, 64, 64
2, 9720, Note_on_c, 0, 66, 64
2, 9840, Note_off_c, 0, 66, 64
2, 9840, Note_on_c, 0, 67, 64
2, 9960, Note_off_c, 0, 67, 64
2, 9960, Note_on_c, 0, 66, 64
2, 10080, Note_off_c, 0, 66, 64
2, 10080, Note_on_c, 0, 64, 64
2, 10200, Note_off_c, 0, 64, 64
2, 10200, Note_on_c, 0, 66, 64
2, 10320, Note_off_c, 0, 66, 64
2, 10320, Note_on_c, 0, 62, 64
2, 10440, Note_off_c, 0, 62, 64
2, 10440, Note_on_c, 0, 69, 64
2, 10560, Note_off_c, 0, 69, 64
2, 10560, Note_on_c, 0, 71, 64
2, 10680, Note_off_c, 0, 71, 64
2, 10680, Note_on_c, 0, 72, 64
2, 10800, Note_off_c, 0, 72, 64
2, 10800, Note_on_c, 0, 71, 64
2, 10920, Note_off_c, 0, 71, 64
2, 10920, Note_on_c, 0, 72, 64
2, 11040, Note_off_c, 0, 72, 64
2, 11040, Note_on_c, 0, 71, 64
2, 11160, Note_off_c, 0, 71, 64
2, 11160, Note_on_c, 0, 69, 64
2, 11280, Note_off_c, 0, 69, 64
2, 11280, Note_on_c, 0, 71, 64
2, 11400, Note_off_c, 0, 71, 64
2, 11400, Note_on_c, 0, 67, 64
2, 11520, Note_off_c, 0, 67, 64
2, 11520, Note_on_c, 0, 76, 64
2, 11640, Note_off_c, 0, 76, 64
2, 11640, Note_on_c, 0, 78, 64
2, 11760, Note_off_c, 0, 78, 64
2, 11760, Note_on_c, 0, 79, 64
2, 11880, Note_off_c, 0, 79, 64
2, 11880, Note_on_c, 0, 73, 64
2, 12000, Note_off_c, 0, 73, 64
2, 12000, Note_on_c, 0, 74, 64
2, 12120, Note_off_c, 0, 74, 64
2, 12120, Note_on_c, 0, 73, 64
2, 12240, Note_off_c, 0, 73, 64
2, 12240, Note_on_c, 0, 71, 64
2, 12360, Note_off_c, 0, 71, 64
2, 12360, Note_on_c, 0, 73, 64
2, 12480, Note_off_c, 0, 73, 64
2, 12480, Note_on_c, 0, 69, 64
2, 12600, Note_off_c, 0, 69, 64
2, 12600, Note_on_c, 0, 79, 64
2, 12720, Note_off_c, 0, 79, 64
2, 12720, Note_on_c, 0, 81, 64
2, 12840, Note_off_c, 0, 81, 64
2, 12840, Note_on_c, 0, 83, 64
2, 12960, Note_off_c, 0, 83, 64
2, 12960, Note_on_c, 0, 81, 64
2, 13080, Note_off_c, 0, 81, 64
2, 13080, Note_on_c, 0, 79, 64
2, 13200, Note_off_c, 0, 79, 64
2, 13200, Note_on_c, 0, 78, 64
2, 13320, Note_off_c, 0, 78, 64
2, 13320, Note_on_c, 0, 76, 64
2, 13440, Note_off_c, 0, 76, 64
2, 13440, Note_on_c, 0, 78, 64
2, 13560, Note_off_c, 0, 78, 64
2, 13560, Note_on_c, 0, 74, 64
2, 13680, Note_off_c, 0, 74, 64
2, 13680, Note_on_c, 0, 69, 64
2, 13800, Note_off_c, 0, 69, 64
2, 13800, Note_on_c, 0, 74, 64
2, 13920, Note_off_c, 0, 74, 64
2, 13920, Note_on_c, 0, 73, 64
2, 14040, Note_off_c, 0, 73, 64
2, 14040, Note_on_c, 0, 74, 64
2, 14100, Note_off_c, 0, 74, 64
2, 14100, Note_on_c, 0, 73, 56
2, 14160, Note_off_c, 0, 73, 64
2, 14160, Note_on_c, 0, 74, 64
2, 14400, Note_off_c, 0, 74, 64
2, 15120, Note_on_c, 0, 69, 64
2, 15240, Note_off_c, 0, 69, 64
2, 15240, Note_on_c, 0, 73, 64
2, 15360, Note_off_c, 0, 73, 64
2, 15360, Note_on_c, 0, 76, 64
2, 15480, Note_off_c, 0, 76, 64
2, 15480, Note_on_c, 0, 73, 64
2, 15600, Note_off_c, 0, 73, 64
2, 15600, Note_on_c, 0, 69, 64
2, 15720, Note_off_c, 0, 69, 64
2, 15720, Note_on_c, 0, 76, 64
2, 15840, Note_off_c, 0, 76, 64
2, 15840, Note_on_c, 0, 73, 64
2, 15960, Note_off_c, 0, 73, 64
2, 15960, Note_on_c, 0, 69, 64
2, 16080, Note_off_c, 0, 69, 64
2, 16080, Note_on_c, 0, 79, 64
2, 16200, Note_off_c, 0, 79, 64
2, 16200, Note_on_c, 0, 78, 64
2, 16260, Note_off_c, 0, 78, 64
2, 16260, Note_on_c, 0, 79, 56
2, 16320, Note_off_c, 0, 79, 64
2, 16320, Note_on_c, 0, 78, 64
2, 16560, Note_off_c, 0, 78, 64
2, 16560, Note_on_c, 0, 74, 64
2, 16920, Note_off_c, 0, 74, 64
2, 17280, Note_on_c, 0, 67, 64
2, 17400, Note_off_c, 0, 67, 64
2, 17400, Note_on_c, 0, 71, 64
2, 17520, Note_off_c, 0, 71, 64
2, 17520, Note_on_c, 0, 74, 64
2, 17640, Note_off_c, 0, 74, 64
2, 17640, Note_on_c, 0, 71, 64
2, 17760, Note_off_c, 0, 71, 64
2, 17760, Note_on_c, 0, 67, 64
2, 17880, Note_off_c, 0, 67, 64
2, 17880, Note_on_c, 0, 74, 64
2, 18000, Note_off_c, 0, 74, 64
2, 18000, Note_on_c, 0, 71, 64
2, 18120, Note_off_c, 0, 71, 64
2, 18120, Note_on_c, 0, 67, 64
2, 18240, Note_off_c, 0, 67, 64
2, 18240, Note_on_c, 0, 77, 64
2, 18360, Note_off_c, 0, 77, 64
2, 18360, Note_on_c, 0, 76, 64
2, 18480, Note_off_c, 0, 76, 64
2, 18480, Note_on_c, 0, 72, 64
2, 18600, Note_off_c, 0, 72, 64
2, 18600, Note_on_c, 0, 69, 64
2, 18720, Note_off_c, 0, 69, 64
2, 18720, Note_on_c, 0, 81, 64
2, 18840, Note_off_c, 0, 81, 64
2, 18840, Note_on_c, 0, 76, 64
2, 18960, Note_off_c, 0, 76, 64
2, 18960, Note_on_c, 0, 72, 64
2, 19080, Note_off_c, 0, 72, 64
2, 19080, Note_on_c, 0, 69, 64
2, 19200, Note_off_c, 0, 69, 64
2, 19200, Note_on_c, 0, 71, 64
2, 19320, Note_off_c, 0, 71, 64
2, 19320, Note_on_c, 0, 72, 64
2, 19440, Note_off_c, 0, 72, 64
2, 19440, Note_on_c, 0, 74, 64
2, 19560, Note_off_c, 0, 74, 64
2, 19560, Note_on_c, 0, 71, 64
2, 19680, Note_off_c, 0, 71, 64
2, 19680, Note_on_c, 0, 67, 64
2, 19800, Note_off_c, 0, 67, 64
2, 19800, Note_on_c, 0, 79, 64
2, 19920, Note_off_c, 0, 79, 64
2, 19920, Note_on_c, 0, 74, 64
2, 20040, Note_off_c, 0, 74, 64
2, 20040, Note_on_c, 0, 71, 64
2, 20160, Note_off_c, 0, 71, 64
2, 20160, Note_on_c, 0, 67, 64
2, 20280, Note_off_c, 0, 67, 64
2, 20280, Note_on_c, 0, 69, 64
2, 20400, Note_off_c, 0, 69, 64
2, 20400, Note_on_c, 0, 71, 64
2, 20520, Note_off_c, 0, 71, 64
2, 20520, Note_on_c, 0, 72, 64
2, 20580, Note_off_c, 0, 72, 64
2, 20580, Note_on_c, 0, 74, 48
2, 20640, Note_on_c, 0, 72, 48
2, 20646, Note_off_c, 0, 74, 64
2, 20700, Note_on_c, 0, 74, 48
2, 20706, Note_off_c, 0, 72, 64
2, 20760, Note_on_c, 0, 72, 49
2, 20766, Note_off_c, 0, 74, 64
2, 20820, Note_on_c, 0, 74, 49
2, 20826, Note_off_c, 0, 72, 64
2, 20880, Note_on_c, 0, 72, 49
2, 20886, Note_off_c, 0, 74, 64
2, 20940, Note_on_c, 0, 74, 50
2, 20946, Note_off_c, 0, 72, 64
2, 21000, Note_on_c, 0, 72, 50
2, 21006, Note_off_c, 0, 74, 64
2, 21060, Note_on_c, 0, 74, 50
2, 21066, Note_off_c, 0, 72, 64
2, 21120, Note_on_c, 0, 72, 51
2, 21126, Note_off_c, 0, 74, 64
2, 21180, Note_on_c, 0, 74, 51
2, 21186, Note_off_c, 0, 72, 64
2, 21240, Note_on_c, 0, 72, 51
2, 21246, Note_off_c, 0, 74, 64
2, 21300, Note_on_c, 0, 74, 52
2, 21306, Note_off_c, 0, 72, 64
2, 21360, Note_on_c, 0, 72, 52
2, 21366, Note_off_c, 0, 74, 64
2, 21420, Note_on_c, 0, 74, 52
2, 21426, Note_off_c, 0, 72, 64
2, 21480, Note_on_c, 0, 72, 53
2, 21486, Note_off_c, 0, 74, 64
2, 21540, Note_on_c, 0, 74, 53
2, 21546, Note_off_c, 0, 72, 64
2, 21600, Note_on_c, 0, 72, 54
2, 21606, Note_off_c, 0, 74, 64
2, 21660, Note_on_c, 0, 74, 54
2, 21666, Note_off_c, 0, 72, 64
2, 21720, Note_on_c, 0, 72, 54
2, 21726, Note_off_c, 0, 74, 64
2, 21780, Note_on_c, 0, 74, 55
2, 21786, Note_off_c, 0, 72, 64
2, 21840, Note_on_c, 0, 72, 55
2, 21846, Note_off_c, 0, 74, 64
2, 21900, Note_on_c, 0, 74, 55
2, 21906, Note_off_c, 0, 72, 64
2, 21960, Note_on_c, 0, 72, 56
2, 21966, Note_off_c, 0, 74, 64
2, 22020, Note_on_c, 0, 74, 56
2, 22026, Note_off_c, 0, 72, 64
2, 22080, Note_on_c, 0, 72, 56
2, 22086, Note_off_c, 0, 74, 64
2, 22140, Note_on_c, 0, 74, 57
2, 22146, Note_off_c, 0, 72, 64
2, 22200, Note_on_c, 0, 72, 57
2, 22206, Note_off_c, 0, 74, 64
2, 22260, Note_on_c, 0, 74, 57
2, 22266, Note_off_c, 0, 72, 64
2, 22320, Note_on_c, 0, 72, 58
2, 22326, Note_off_c, 0, 74, 64
2, 22380, Note_on_c, 0, 74, 58
2, 22386, Note_off_c, 0, 72, 64
2, 22440, Note_on_c, 0, 72, 58
2, 22446, Note_off_c, 0, 74, 64
2, 22500, Note_on_c, 0, 74, 59
2, 22506, Note_off_c, 0, 72, 64
2, 22560, Note_on_c, 0, 72, 59
2, 22566, Note_off_c, 0, 74, 64
2, 22620, Note_on_c, 0, 74, 59
2, 22626, Note_off_c, 0, 72, 64
2, 22680, Note_on_c, 0, 71, 64
2, 22686, Note_off_c, 0, 74, 64
2, 22740, Note_on_c, 0, 72, 48
2, 22746, Note_off_c, 0, 71, 64
2, 22800, Note_on_c, 0, 71, 48
2, 22806, Note_off_c, 0, 72, 64
2, 22860, Note_on_c, 0, 72, 48
2, 22866, Note_off_c, 0, 71, 64
2, 22920, Note_on_c, 0, 71, 49
2, 22926, Note_off_c, 0, 72, 64
2, 22980, Note_on_c, 0, 72, 49
2, 22986, Note_off_c, 0, 71, 64
2, 23040, Note_on_c, 0, 71, 49
2, 23046, Note_off_c, 0, 72, 64
2, 23100, Note_on_c, 0, 72, 50
2, 23106, Note_off_c, 0, 71, 64
2, 23160, Note_on_c, 0, 71, 50
2, 23166, Note_off_c, 0, 72, 64
2, 23220, Note_on_c, 0, 72, 50
2, 23226, Note_off_c, 0, 71, 64
2, 23280, Note_on_c, 0, 71, 51
2, 23286, Note_off_c, 0, 72, 64
2, 23340, Note_on_c, 0, 72, 51
2, 23346, Note_off_c, 0, 71, 64
2, 23400, Note_on_c, 0, 71, 51
2, 23406, Note_off_c, 0, 72, 64
2, 23460, Note_on_c, 0, 72, 52
2, 23466, Note_off_c, 0, 71, 64
2, 23520, Note_on_c, 0, 71, 52
2, 23526, Note_off_c, 0, 72, 64
2, 23580, Note_on_c, 0, 72, 52
2, 23586, Note_off_c, 0, 71, 64
2, 23640, Note_on_c, 0, 71, 53
2, 23646, Note_off_c, 0, 72, 64
2, 23700, Note_on_c, 0, 72, 53
2, 23706, Note_off_c, 0, 71, 64
2, 23760, Note_on_c, 0, 71, 54
2, 23766, Note_off_c, 0, 72, 64
2, 23820, Note_on_c, 0, 72, 54
2, 23826, Note_off_c, 0, 71, 64
2, 23880, Note_on_c, 0, 71, 54
2, 23886, Note_off_c, 0, 72, 64
2, 23940, Note_on_c, 0, 72, 55
2, 23946, Note_off_c, 0, 71, 64
2, 24000, Note_on_c, 0, 71, 55
2, 24006, Note_off_c, 0, 72, 64
2, 24060, Note_on_c, 0, 72, 55
2, 24066, Note_off_c, 0, 71, 64
2, 24120, Note_on_c, 0, 71, 56
2, 24126, Note_off_c, 0, 72, 64
2, 24180, Note_on_c, 0, 72, 56
2, 24186, Note_off_c, 0, 71, 64
2, 24240, Note_on_c, 0, 71, 56
2, 24246, Note_off_c, 0, 72, 64
2, 24300, Note_on_c, 0, 72, 57
2, 24306, Note_off_c, 0, 71, 64
2, 24360, Note_on_c, 0, 71, 57
2, 24366, Note_off_c, 0, 72, 64
2, 24420, Note_on_c, 0, 72, 57
2, 24426, Note_off_c, 0, 71, 64
2, 24480, Note_on_c, 0, 71, 58
2, 24486, Note_off_c, 0, 72, 64
2, 24540, Note_on_c, 0, 72, 58
2, 24546, Note_off_c, 0, 71, 64
2, 24600, Note_on_c, 0, 71, 58
2, 24606, Note_off_c, 0, 72, 64
2, 24660, Note_on_c, 0, 72, 59
2, 24666, Note_off_c, 0, 71, 64
2, 24720, Note_on_c, 0, 71, 59
2, 24726, Note_off_c, 0, 72, 64
2, 24780, Note_on_c, 0, 72, 59
2, 24786, Note_off_c, 0, 71, 64
2, 24840, Note_on_c, 0, 71, 64
2, 24846, Note_off_c, 0, 72, 64
2, 24960, Note_off_c, 0, 71, 64
2, 24960, Note_on_c, 0, 76, 64
2, 25080, Note_off_c, 0, 76, 64
2, 25080, Note_on_c, 0, 74, 64
2, 25200, Note_off_c, 0, 74, 64
2, 25200, Note_on_c, 0, 72, 64
2, 25320, Note_off_c, 0, 72, 64
2, 25320, Note_on_c, 0, 74, 64
2, 25440, Note_off_c, 0, 74, 64
2, 25440, Note_on_c, 0, 71, 64
2, 25560, Note_off_c, 0, 71, 64
2, 25560, Note_on_c, 0, 69, 64
2, 25680, Note_off_c, 0, 69, 64
2, 25680, Note_on_c, 0, 71, 64
2, 25800, Note_off_c, 0, 71, 64
2, 25800, Note_on_c, 0, 67, 64
2, 25920, Note_off_c, 0, 67, 64
2, 25920, Note_on_c, 0, 69, 64
2, 26040, Note_off_c, 0, 69, 64
2, 26040, Note_on_c, 0, 72, 64
2, 26160, Note_off_c, 0, 72, 64
2, 26160, Note_on_c, 0, 71, 64
2, 26280, Note_off_c, 0, 71, 64
2, 26280, Note_on_c, 0, 69, 64
2, 26400, Note_off_c, 0, 69, 64
2, 26400, Note_on_c, 0, 71, 64
2, 26520, Note_off_c, 0, 71, 64
2, 26520, Note_on_c, 0, 67, 64
2, 26640, Note_off_c, 0, 67, 64
2, 26640, Note_on_c, 0, 66, 64
2, 26760, Note_off_c, 0, 66, 64
2, 26760, Note_on_c, 0, 67, 64
2, 26880, Note_off_c, 0, 67, 64
2, 26880, Note_on_c, 0, 64, 64
2, 27000, Note_off_c, 0, 64, 64
2, 27000, Note_on_c, 0, 66, 64
2, 27060, Note_off_c, 0, 66, 64
2, 27060, Note_on_c, 0, 67, 56
2, 27120, Note_off_c, 0, 67, 64
2, 27120, Note_on_c, 0, 66, 64
2, 27240, Note_off_c, 0, 66, 64
2, 27240, Note_on_c, 0, 62, 64
2, 27360, Note_off_c, 0, 62, 64
2, 27360, Note_on_c, 0, 69, 64
2, 27420, Note_off_c, 0, 69, 64
2, 27420, Note_on_c, 0, 71, 56
2, 27480, Note_off_c, 0, 71, 64
2, 27480, Note_on_c, 0, 69, 64
2, 27600, Note_off_c, 0, 69, 64
2, 27600, Note_on_c, 0, 66, 64
2, 27720, Note_off_c, 0, 66, 64
2, 27720, Note_on_c, 0, 74, 64
2, 27780, Note_off_c, 0, 74, 64
2, 27780, Note_on_c, 0, 76, 56
2, 27840, Note_off_c, 0, 76, 64
2, 27840, Note_on_c, 0, 74, 64
2, 27960, Note_off_c, 0, 74, 64
2, 27960, Note_on_c, 0, 66, 64
2, 28080, Note_off_c, 0, 66, 64
2, 28080, Note_on_c, 0, 67, 86
2, 28200, Note_off_c, 0, 67, 64
2, 28200, Note_on_c, 0, 71, 81
2, 28320, Note_off_c, 0, 71, 64
2, 28320, Note_on_c, 0, 74, 76
2, 28440, Note_off_c, 0, 74, 64
2, 28440, Note_on_c, 0, 71, 86
2, 28560, Note_off_c, 0, 71, 64
2, 28560, Note_on_c, 0, 67, 80
2, 28680, Note_off_c, 0, 67, 64
2, 28680, Note_on_c, 0, 74, 84
2, 28800, Note_off_c, 0, 74, 64
2, 28800, Note_on_c, 0, 71, 84
2, 28920, Note_off_c, 0, 71, 64
2, 28920, Note_on_c, 0, 67, 80
2, 29040, Note_off_c, 0, 67, 64
2, 29040, Note_on_c, 0, 79, 80
2, 29160, Note_off_c, 0, 79, 64
2, 29160, Note_on_c, 0, 74, 81
2, 29280, Note_off_c, 0, 74, 64
2, 29280, Note_on_c, 0, 78, 85
2, 29400, Note_off_c, 0, 78, 64
2, 29400, Note_on_c, 0, 81, 80
2, 29520, Note_off_c, 0, 81, 64
2, 29520, Note_on_c, 0, 78, 69
2, 29640, Note_off_c, 0, 78, 64
2, 29640, Note_on_c, 0, 74, 80
2, 29760, Note_off_c, 0, 74, 64
2, 29760, Note_on_c, 0, 81, 86
2, 29880, Note_off_c, 0, 81, 64
2, 29880, Note_on_c, 0, 78, 72
2, 30000, Note_off_c, 0, 78, 64
2, 30000, Note_on_c, 0, 74, 82
2, 30120, Note_off_c, 0, 74, 64
2, 30120, Note_on_c, 0, 84, 82
2, 30240, Note_off_c, 0, 84, 64
2, 30240, Note_on_c, 0, 83, 64
2, 30360, Note_off_c, 0, 83, 64
2, 30360, Note_on_c, 0, 81, 64
2, 30480, Note_off_c, 0, 81, 64
2, 30480, Note_on_c, 0, 79, 64
2, 30600, Note_off_c, 0, 79, 64
2, 30600, Note_on_c, 0, 78, 64
2, 30720, Note_off_c, 0, 78, 64
2, 30720, Note_on_c, 0, 79, 64
2, 30840, Note_off_c, 0, 79, 64
2, 30840, Note_on_c, 0, 81, 64
2, 30960, Note_off_c, 0, 81, 64
2, 30960, Note_on_c, 0, 74, 64
2, 31080, Note_off_c, 0, 74, 64
2, 31080, Note_on_c, 0, 79, 64
2, 31200, Note_off_c, 0, 79, 64
2, 31200, Note_on_c, 0, 78, 64
2, 31320, Note_off_c, 0, 78, 64
2, 31320, Note_on_c, 0, 79, 64
2, 31440, Note_off_c, 0, 79, 64
2, 31440, Note_on_c, 0, 78, 64
2, 31560, Note_off_c, 0, 78, 64
2, 31560, Note_on_c, 0, 76, 64
2, 31680, Note_off_c, 0, 76, 64
2, 31680, Note_on_c, 0, 74, 64
2, 31800, Note_off_c, 0, 74, 64
2, 31800, Note_on_c, 0, 72, 64
2, 31920, Note_off_c, 0, 72, 64
2, 31920, Note_on_c, 0, 71, 64
2, 32040, Note_off_c, 0, 71, 64
2, 32040, Note_on_c, 0, 69, 64
2, 32160, Note_off_c, 0, 69, 64
2, 32160, Note_on_c, 0, 71, 64
2, 32280, Note_off_c, 0, 71, 64
2, 32280, Note_on_c, 0, 72, 64
2, 32400, Note_off_c, 0, 72, 64
2, 32400, Note_on_c, 0, 71, 64
2, 32520, Note_off_c, 0, 71, 64
2, 32520, Note_on_c, 0, 69, 64
2, 32640, Note_off_c, 0, 69, 64
2, 32640, Note_on_c, 0, 67, 64
2, 32760, Note_off_c, 0, 67, 64
2, 32760, Note_on_c, 0, 66, 64
2, 32880, Note_off_c, 0, 66, 64
2, 32880, Note_on_c, 0, 67, 64
2, 33000, Note_off_c, 0, 67, 64
2, 33000, Note_on_c, 0, 69, 64
2, 33120, Note_off_c, 0, 69, 64
2, 33120, Note_on_c, 0, 62, 64
2, 33240, Note_off_c, 0, 62, 64
2, 33240, Note_on_c, 0, 67, 64
2, 33360, Note_off_c, 0, 67, 64
2, 33360, Note_on_c, 0, 66, 64
2, 33480, Note_off_c, 0, 66, 64
2, 33480, Note_on_c, 0, 67, 64
2, 33600, Note_off_c, 0, 67, 64
2, 33600, Note_on_c, 0, 62, 64
2, 33720, Note_off_c, 0, 62, 64
2, 33720, Note_on_c, 0, 59, 64
2, 33840, Note_off_c, 0, 59, 64
2, 33840, Note_on_c, 0, 55, 64
2, 34740, Note_off_c, 0, 55, 64
2, 34740, End_track
3, 0, Start_track
3, 0, Text_t, "LH"
3, 1080, Note_on_c, 1, 50, 64
3, 1200, Note_off_c, 1, 50, 64
3, 1200, Note_on_c, 1, 54, 64
3, 1320, Note_off_c, 1, 54, 64
3, 1320, Note_on_c, 1, 57, 64
3, 1440, Note_off_c, 1, 57, 64
3, 1440, Note_on_c, 1, 54, 64
3, 1560, Note_off_c, 1, 54, 64
3, 1560, Note_on_c, 1, 50, 64
3, 1680, Note_off_c, 1, 50, 64
3, 1680, Note_on_c, 1, 57, 64
3, 1800, Note_off_c, 1, 57, 64
3, 1800, Note_on_c, 1, 54, 64
3, 1920, Note_off_c, 1, 54, 64
3, 1920, Note_on_c, 1, 50, 64
3, 2040, Note_off_c, 1, 50, 64
3, 2040, Note_on_c, 1, 60, 64
3, 2160, Note_off_c, 1, 60, 64
3, 2160, Note_on_c, 1, 59, 64
3, 2220, Note_off_c, 1, 59, 64
3, 2220, Note_on_c, 1, 60, 56
3, 2280, Note_off_c, 1, 60, 64
3, 2280, Note_on_c, 1, 59, 64
3, 2400, Note_off_c, 1, 59, 64
3, 2400, Note_on_c, 1, 55, 64
3, 2520, Note_off_c, 1, 55, 64
3, 2520, Note_on_c, 1, 62, 64
3, 2640, Note_off_c, 1, 62, 64
3, 2640, Note_on_c, 1, 59, 64
3, 2760, Note_off_c, 1, 59, 64
3, 2760, Note_on_c, 1, 55, 64
3, 2880, Note_off_c, 1, 55, 64
3, 2880, Note_on_c, 1, 62, 64
3, 3000, Note_off_c, 1, 62, 64
3, 3000, Note_on_c, 1, 59, 64
3, 3120, Note_off_c, 1, 59, 64
3, 3120, Note_on_c, 1, 55, 64
3, 3240, Note_off_c, 1, 55, 64
3, 3240, Note_on_c, 1, 60, 64
3, 3360, Note_off_c, 1, 60, 64
3, 3360, Note_on_c, 1, 64, 64
3, 3480, Note_off_c, 1, 64, 64
3, 3480, Note_on_c, 1, 60, 64
3, 3600, Note_off_c, 1, 60, 64
3, 3600, Note_on_c, 1, 57, 64
3, 3720, Note_off_c, 1, 57, 64
3, 3720, Note_on_c, 1, 60, 64
3, 3840, Note_off_c, 1, 60, 64
3, 3840, Note_on_c, 1, 57, 64
3, 3960, Note_off_c, 1, 57, 64
3, 3960, Note_on_c, 1, 54, 64
3, 4080, Note_off_c, 1, 54, 64
3, 4080, Note_on_c, 1, 55, 64
3, 4200, Note_off_c, 1, 55, 64
3, 4200, Note_on_c, 1, 57, 64
3, 4320, Note_off_c, 1, 57, 64
3, 4320, Note_on_c, 1, 59, 64
3, 4440, Note_off_c, 1, 59, 64
3, 4440, Note_on_c, 1, 62, 64
3, 4560, Note_off_c, 1, 62, 64
3, 4560, Note_on_c, 1, 59, 64
3, 4680, Note_off_c, 1, 59, 64
3, 4680, Note_on_c, 1, 55, 64
3, 4800, Note_off_c, 1, 55, 64
3, 4800, Note_on_c, 1, 59, 64
3, 4920, Note_off_c, 1, 59, 64
3, 4920, Note_on_c, 1, 55, 64
3, 5040, Note_off_c, 1, 55, 64
3, 5040, Note_on_c, 1, 52, 64
3, 5160, Note_off_c, 1, 52, 64
3, 5160, Note_on_c, 1, 54, 64
3, 5280, Note_off_c, 1, 54, 64
3, 5280, Note_on_c, 1, 55, 64
3, 5400, Note_off_c, 1, 55, 64
3, 5400, Note_on_c, 1, 57, 64
3, 5520, Note_off_c, 1, 57, 64
3, 5520, Note_on_c, 1, 60, 64
3, 5640, Note_off_c, 1, 60, 64
3, 5640, Note_on_c, 1, 57, 64
3, 5760, Note_off_c, 1, 57, 64
3, 5760, Note_on_c, 1, 54, 64
3, 5880, Note_off_c, 1, 54, 64
3, 5880, Note_on_c, 1, 57, 64
3, 6000, Note_off_c, 1, 57, 64
3, 6000, Note_on_c, 1, 54, 64
3, 6120, Note_off_c, 1, 54, 64
3, 6120, Note_on_c, 1, 50, 64
3, 6240, Note_off_c, 1, 50, 64
3, 6240, Note_on_c, 1, 52, 64
3, 6360, Note_off_c, 1, 52, 64
3, 6360, Note_on_c, 1, 54, 64
3, 6480, Note_off_c, 1, 54, 64
3, 6480, Note_on_c, 1, 55, 64
3, 6540, Note_off_c, 1, 55, 64
3, 6540, Note_on_c, 1, 54, 56
3, 6600, Note_off_c, 1, 54, 64
3, 6600, Note_on_c, 1, 55, 64
3, 6960, Note_off_c, 1, 55, 64
3, 6960, Note_on_c, 1, 54, 64
3, 7080, Note_off_c, 1, 54, 64
3, 7080, Note_on_c, 1, 52, 64
3, 7200, Note_off_c, 1, 52, 64
3, 7200, Note_on_c, 1, 50, 64
3, 7320, Note_off_c, 1, 50, 64
3, 7320, Note_on_c, 1, 52, 64
3, 7440, Note_off_c, 1, 52, 64
3, 7440, Note_on_c, 1, 49, 64
3, 7560, Note_off_c, 1, 49, 64
3, 7560, Note_on_c, 1, 54, 64
3, 7620, Note_off_c, 1, 54, 64
3, 7620, Note_on_c, 1, 52, 56
3, 7680, Note_off_c, 1, 52, 64
3, 7680, Note_on_c, 1, 54, 64
3, 8040, Note_off_c, 1, 54, 64
3, 8040, Note_on_c, 1, 52, 64
3, 8160, Note_off_c, 1, 52, 64
3, 8160, Note_on_c, 1, 50, 64
3, 8280, Note_off_c, 1, 50, 64
3, 8280, Note_on_c, 1, 49, 64
3, 8400, Note_off_c, 1, 49, 64
3, 8400, Note_on_c, 1, 50, 64
3, 8520, Note_off_c, 1, 50, 64
3, 8520, Note_on_c, 1, 47, 64
3, 8640, Note_off_c, 1, 47, 64
3, 8640, Note_on_c, 1, 52, 64
3, 8760, Note_off_c, 1, 52, 64
3, 8760, Note_on_c, 1, 54, 64
3, 8880, Note_off_c, 1, 54, 64
3, 8880, Note_on_c, 1, 55, 64
3, 9000, Note_off_c, 1, 55, 64
3, 9000, Note_on_c, 1, 57, 64
3, 9120, Note_off_c, 1, 57, 64
3, 9120, Note_on_c, 1, 52, 64
3, 9240, Note_off_c, 1, 52, 64
3, 9240, Note_on_c, 1, 61, 64
3, 9360, Note_off_c, 1, 61, 64
3, 9360, Note_on_c, 1, 57, 64
3, 9480, Note_off_c, 1, 57, 64
3, 9480, Note_on_c, 1, 52, 64
3, 9600, Note_off_c, 1, 52, 64
3, 9600, Note_on_c, 1, 61, 64
3, 9720, Note_off_c, 1, 61, 64
3, 9720, Note_on_c, 1, 62, 64
3, 9780, Note_off_c, 1, 62, 64
3, 9780, Note_on_c, 1, 61, 56
3, 9840, Note_off_c, 1, 61, 64
3, 9840, Note_on_c, 1, 62, 64
3, 10200, Note_off_c, 1, 62, 64
3, 10200, Note_on_c, 1, 50, 64
3, 10320, Note_off_c, 1, 50, 64
3, 10320, Note_on_c, 1, 52, 64
3, 10440, Note_off_c, 1, 52, 64
3, 10440, Note_on_c, 1, 54, 64
3, 10560, Note_off_c, 1, 54, 64
3, 10560, Note_on_c, 1, 52, 64
3, 10680, Note_off_c, 1, 52, 64
3, 10680, Note_on_c, 1, 50, 64
3, 10800, Note_off_c, 1, 50, 64
3, 10800, Note_on_c, 1, 55, 64
3, 10860, Note_off_c, 1, 55, 64
3, 10860, Note_on_c, 1, 54, 56
3, 10920, Note_off_c, 1, 54, 64
3, 10920, Note_on_c, 1, 55, 64
3, 11280, Note_off_c, 1, 55, 64
3, 11280, Note_on_c, 1, 52, 64
3, 11400, Note_off_c, 1, 52, 64
3, 11400, Note_on_c, 1, 54, 64
3, 11520, Note_off_c, 1, 54, 64
3, 11520, Note_on_c, 1, 55, 64
3, 11640, Note_off_c, 1, 55, 64
3, 11640, Note_on_c, 1, 54, 64
3, 11760, Note_off_c, 1, 54, 64
3, 11760, Note_on_c, 1, 52, 64
3, 11880, Note_off_c, 1, 52, 64
3, 11880, Note_on_c, 1, 57, 64
3, 11940, Note_off_c, 1, 57, 64
3, 11940, Note_on_c, 1, 55, 56
3, 12000, Note_off_c, 1, 55, 64
3, 12000, Note_on_c, 1, 57, 64
3, 12360, Note_off_c, 1, 57, 64
3, 12360, Note_on_c, 1, 55, 64
3, 12480, Note_off_c, 1, 55, 64
3, 12480, Note_on_c, 1, 54, 64
3, 12600, Note_off_c, 1, 54, 64
3, 12600, Note_on_c, 1, 52, 64
3, 12720, Note_off_c, 1, 52, 64
3, 12720, Note_on_c, 1, 50, 64
3, 12840, Note_off_c, 1, 50, 64
3, 12840, Note_on_c, 1, 49, 64
3, 12960, Note_off_c, 1, 49, 64
3, 12960, Note_on_c, 1, 50, 64
3, 13080, Note_off_c, 1, 50, 64
3, 13080, Note_on_c, 1, 52, 64
3, 13200, Note_off_c, 1, 52, 64
3, 13200, Note_on_c, 1, 54, 64
3, 13320, Note_off_c, 1, 54, 64
3, 13320, Note_on_c, 1, 55, 64
3, 13440, Note_off_c, 1, 55, 64
3, 13440, Note_on_c, 1, 57, 64
3, 13560, Note_off_c, 1, 57, 64
3, 13560, Note_on_c, 1, 59, 64
3, 13680, Note_off_c, 1, 59, 64
3, 13680, Note_on_c, 1, 57, 64
3, 13920, Note_off_c, 1, 57, 64
3, 13920, Note_on_c, 1, 45, 64
3, 14040, Note_off_c, 1, 45, 64
3, 14040, Note_on_c, 1, 50, 64
3, 14160, Note_off_c, 1, 50, 64
3, 14160, Note_on_c, 1, 54, 64
3, 14280, Note_off_c, 1, 54, 64
3, 14280, Note_on_c, 1, 57, 64
3, 14400, Note_off_c, 1, 57, 64
3, 14400, Note_on_c, 1, 54, 64
3, 14520, Note_off_c, 1, 54, 64
3, 14520, Note_on_c, 1, 50, 64
3, 14640, Note_off_c, 1, 50, 64
3, 14640, Note_on_c, 1, 57, 64
3, 14760, Note_off_c, 1, 57, 64
3, 14760, Note_on_c, 1, 54, 64
3, 14880, Note_off_c, 1, 54, 64
3, 14880, Note_on_c, 1, 50, 64
3, 15000, Note_off_c, 1, 50, 64
3, 15000, Note_on_c, 1, 62, 64
3, 15120, Note_off_c, 1, 62, 64
3, 15120, Note_on_c, 1, 61, 64
3, 15180, Note_off_c, 1, 61, 64
3, 15180, Note_on_c, 1, 62, 56
3, 15240, Note_off_c, 1, 62, 64
3, 15240, Note_on_c, 1, 61, 64
3, 15480, Note_off_c, 1, 61, 64
3, 15480, Note_on_c, 1, 57, 64
3, 15840, Note_off_c, 1, 57, 64
3, 16200, Note_on_c, 1, 50, 64
3, 16320, Note_off_c, 1, 50, 64
3, 16320, Note_on_c, 1, 54, 64
3, 16440, Note_off_c, 1, 54, 64
3, 16440, Note_on_c, 1, 57, 64
3, 16560, Note_off_c, 1, 57, 64
3, 16560, Note_on_c, 1, 54, 64
3, 16680, Note_off_c, 1, 54, 64
3, 16680, Note_on_c, 1, 50, 64
3, 16800, Note_off_c, 1, 50, 64
3, 16800, Note_on_c, 1, 57, 64
3, 16920, Note_off_c, 1, 57, 64
3, 16920, Note_on_c, 1, 54, 64
3, 17040, Note_off_c, 1, 54, 64
3, 17040, Note_on_c, 1, 50, 64
3, 17160, Note_off_c, 1, 50, 64
3, 17160, Note_on_c, 1, 60, 64
3, 17280, Note_off_c, 1, 60, 64
3, 17280, Note_on_c, 1, 59, 64
3, 17340, Note_off_c, 1, 59, 64
3, 17340, Note_on_c, 1, 60, 56
3, 17400, Note_off_c, 1, 60, 64
3, 17400, Note_on_c, 1, 59, 64
3, 17640, Note_off_c, 1, 59, 64
3, 17640, Note_on_c, 1, 55, 64
3, 18000, Note_off_c, 1, 55, 64
3, 18360, Note_on_c, 1, 48, 64
3, 18420, Note_off_c, 1, 48, 64
3, 18420, Note_on_c, 1, 47, 56
3, 18480, Note_off_c, 1, 47, 64
3, 18480, Note_on_c, 1, 48, 64
3, 18840, Note_off_c, 1, 48, 64
3, 18840, Note_on_c, 1, 50, 64
3, 18960, Note_off_c, 1, 50, 64
3, 18960, Note_on_c, 1, 52, 64
3, 19080, Note_off_c, 1, 52, 64
3, 19080, Note_on_c, 1, 42, 64
3, 19200, Note_off_c, 1, 42, 64
3, 19200, Note_on_c, 1, 43, 64
3, 19320, Note_off_c, 1, 43, 64
3, 19320, Note_on_c, 1, 45, 64
3, 19440, Note_off_c, 1, 45, 64
3, 19440, Note_on_c, 1, 47, 64
3, 19500, Note_off_c, 1, 47, 64
3, 19500, Note_on_c, 1, 45, 56
3, 19560, Note_off_c, 1, 45, 64
3, 19560, Note_on_c, 1, 47, 64
3, 19920, Note_off_c, 1, 47, 64
3, 19920, Note_on_c, 1, 48, 64
3, 20040, Note_off_c, 1, 48, 64
3, 20040, Note_on_c, 1, 50, 64
3, 20160, Note_off_c, 1, 50, 64
3, 20160, Note_on_c, 1, 40, 64
3, 20280, Note_off_c, 1, 40, 64
3, 20280, Note_on_c, 1, 42, 64
3, 20400, Note_off_c, 1, 42, 64
3, 20400, Note_on_c, 1, 43, 64
3, 20520, Note_off_c, 1, 43, 64
3, 20520, Note_on_c, 1, 45, 64
3, 20640, Note_off_c, 1, 45, 64
3, 20640, Note_on_c, 1, 48, 64
3, 20760, Note_off_c, 1, 48, 64
3, 20760, Note_on_c, 1, 52, 64
3, 20880, Note_off_c, 1, 52, 64
3, 20880, Note_on_c, 1, 57, 64
3, 21000, Note_off_c, 1, 57, 64
3, 21000, Note_on_c, 1, 52, 64
3, 21120, Note_off_c, 1, 52, 64
3, 21120, Note_on_c, 1, 48, 64
3, 21240, Note_off_c, 1, 48, 64
3, 21240, Note_on_c, 1, 45, 64
3, 21360, Note_off_c, 1, 45, 64
3, 21360, Note_on_c, 1, 47, 64
3, 21480, Note_off_c, 1, 47, 64
3, 21480, Note_on_c, 1, 48, 64
3, 21600, Note_off_c, 1, 48, 64
3, 21600, Note_on_c, 1, 50, 64
3, 21720, Note_off_c, 1, 50, 64
3, 21720, Note_on_c, 1, 54, 64
3, 21840, Note_off_c, 1, 54, 64
3, 21840, Note_on_c, 1, 57, 64
3, 21960, Note_off_c, 1, 57, 64
3, 21960, Note_on_c, 1, 62, 64
3, 22080, Note_off_c, 1, 62, 64
3, 22080, Note_on_c, 1, 57, 64
3, 22200, Note_off_c, 1, 57, 64
3, 22200, Note_on_c, 1, 54, 64
3, 22320, Note_off_c, 1, 54, 64
3, 22320, Note_on_c, 1, 50, 64
3, 22440, Note_off_c, 1, 50, 64
3, 22440, Note_on_c, 1, 52, 64
3, 22560, Note_off_c, 1, 52, 64
3, 22560, Note_on_c, 1, 54, 64
3, 22680, Note_off_c, 1, 54, 64
3, 22680, Note_on_c, 1, 55, 64
3, 22800, Note_off_c, 1, 55, 64
3, 22800, Note_on_c, 1, 59, 64
3, 22920, Note_off_c, 1, 59, 64
3, 22920, Note_on_c, 1, 62, 64
3, 23040, Note_off_c, 1, 62, 64
3, 23040, Note_on_c, 1, 67, 64
3, 23160, Note_off_c, 1, 67, 64
3, 23160, Note_on_c, 1, 62, 64
3, 23280, Note_off_c, 1, 62, 64
3, 23280, Note_on_c, 1, 59, 64
3, 23400, Note_off_c, 1, 59, 64
3, 23400, Note_on_c, 1, 55, 64
3, 23520, Note_off_c, 1, 55, 64
3, 23520, Note_on_c, 1, 57, 64
3, 23640, Note_off_c, 1, 57, 64
3, 23640, Note_on_c, 1, 59, 64
3, 23760, Note_off_c, 1, 59, 64
3, 23760, Note_on_c, 1, 52, 64
3, 23880, Note_off_c, 1, 52, 64
3, 23880, Note_on_c, 1, 55, 64
3, 24000, Note_off_c, 1, 55, 64
3, 24000, Note_on_c, 1, 59, 64
3, 24120, Note_off_c, 1, 59, 64
3, 24120, Note_on_c, 1, 64, 64
3, 24240, Note_off_c, 1, 64, 64
3, 24240, Note_on_c, 1, 59, 64
3, 24360, Note_off_c, 1, 59, 64
3, 24360, Note_on_c, 1, 55, 64
3, 24480, Note_off_c, 1, 55, 64
3, 24480, Note_on_c, 1, 52, 64
3, 24600, Note_off_c, 1, 52, 64
3, 24600, Note_on_c, 1, 54, 64
3, 24720, Note_off_c, 1, 54, 64
3, 24720, Note_on_c, 1, 55, 64
3, 24840, Note_off_c, 1, 55, 64
3, 24840, Note_on_c, 1, 48, 64
3, 24900, Note_on_c, 1, 50, 64
3, 24906, Note_off_c, 1, 48, 64
3, 24960, Note_on_c, 1, 48, 48
3, 24966, Note_off_c, 1, 50, 64
3, 25020, Note_on_c, 1, 50, 48
3, 25026, Note_off_c, 1, 48, 64
3, 25080, Note_on_c, 1, 48, 48
3, 25086, Note_off_c, 1, 50, 64
3, 25140, Note_on_c, 1, 50, 49
3, 25146, Note_off_c, 1, 48, 64
3, 25200, Note_on_c, 1, 48, 49
3, 25206, Note_off_c, 1, 50, 64
3, 25260, Note_on_c, 1, 50, 49
3, 25266, Note_off_c, 1, 48, 64
3, 25320, Note_on_c, 1, 48, 50
3, 25326, Note_off_c, 1, 50, 64
3, 25380, Note_on_c, 1, 50, 50
3, 25386, Note_off_c, 1, 48, 64
3, 25440, Note_on_c, 1, 48, 51
3, 25446, Note_off_c, 1, 50, 64
3, 25500, Note_on_c, 1, 50, 51
3, 25506, Note_off_c, 1, 48, 64
3, 25560, Note_on_c, 1, 48, 51
3, 25566, Note_off_c, 1, 50, 64
3, 25620, Note_on_c, 1, 50, 52
3, 25626, Note_off_c, 1, 48, 64
3, 25680, Note_on_c, 1, 48, 52
3, 25686, Note_off_c, 1, 50, 64
3, 25740, Note_on_c, 1, 50, 52
3, 25746, Note_off_c, 1, 48, 64
3, 25800, Note_on_c, 1, 48, 53
3, 25806, Note_off_c, 1, 50, 64
3, 25860, Note_on_c, 1, 50, 53
3, 25866, Note_off_c, 1, 48, 64
3, 25920, Note_on_c, 1, 48, 53
3, 25926, Note_off_c, 1, 50, 64
3, 25980, Note_on_c, 1, 50, 54
3, 25986, Note_off_c, 1, 48, 64
3, 26040, Note_on_c, 1, 48, 54
3, 26046, Note_off_c, 1, 50, 64
3, 26100, Note_on_c, 1, 50, 54
3, 26106, Note_off_c, 1, 48, 64
3, 26160, Note_on_c, 1, 48, 55
3, 26166, Note_off_c, 1, 50, 64
3, 26220, Note_on_c, 1, 50, 55
3, 26226, Note_off_c, 1, 48, 64
3, 26280, Note_on_c, 1, 48, 56
3, 26286, Note_off_c, 1, 50, 64
3, 26340, Note_on_c, 1, 50, 56
3, 26346, Note_off_c, 1, 48, 64
3, 26400, Note_on_c, 1, 48, 56
3, 26406, Note_off_c, 1, 50, 64
3, 26460, Note_on_c, 1, 50, 57
3, 26466, Note_off_c, 1, 48, 64
3, 26520, Note_on_c, 1, 48, 57
3, 26526, Note_off_c, 1, 50, 64
3, 26580, Note_on_c, 1, 50, 57
3, 26586, Note_off_c, 1, 48, 64
3, 26640, Note_on_c, 1, 48, 58
3, 26646, Note_off_c, 1, 50, 64
3, 26700, Note_on_c, 1, 50, 58
3, 26706, Note_off_c, 1, 48, 64
3, 26760, Note_on_c, 1, 48, 58
3, 26766, Note_off_c, 1, 50, 64
3, 26820, Note_on_c, 1, 50, 59
3, 26826, Note_off_c, 1, 48, 64
3, 26880, Note_on_c, 1, 48, 59
3, 26886, Note_off_c, 1, 50, 64
3, 26940, Note_on_c, 1, 50, 59
3, 26946, Note_off_c, 1, 48, 64
3, 27000, Note_on_c, 1, 48, 64
3, 27006, Note_off_c, 1, 50, 64
3, 27120, Note_off_c, 1, 48, 64
3, 27120, Note_on_c, 1, 50, 64
3, 27240, Note_off_c, 1, 50, 64
3, 27240, Note_on_c, 1, 54, 64
3, 27360, Note_off_c, 1, 54, 64
3, 27360, Note_on_c, 1, 57, 64
3, 27480, Note_off_c, 1, 57, 64
3, 27480, Note_on_c, 1, 54, 64
3, 27600, Note_off_c, 1, 54, 64
3, 27600, Note_on_c, 1, 50, 64
3, 27720, Note_off_c, 1, 50, 64
3, 27720, Note_on_c, 1, 48, 64
3, 27840, Note_off_c, 1, 48, 64
3, 27840, Note_on_c, 1, 47, 64
3, 27960, Note_off_c, 1, 47, 64
3, 27960, Note_on_c, 1, 57, 64
3, 28080, Note_off_c, 1, 57, 64
3, 28080, Note_on_c, 1, 47, 64
3, 28200, Note_off_c, 1, 47, 64
3, 28200, Note_on_c, 1, 43, 64
3, 28320, Note_off_c, 1, 43, 64
3, 28320, Note_on_c, 1, 47, 64
3, 28440, Note_off_c, 1, 47, 64
3, 28440, Note_on_c, 1, 50, 64
3, 28560, Note_off_c, 1, 50, 64
3, 28560, Note_on_c, 1, 47, 64
3, 28680, Note_off_c, 1, 47, 64
3, 28680, Note_on_c, 1, 43, 64
3, 28800, Note_off_c, 1, 43, 64
3, 28800, Note_on_c, 1, 50, 64
3, 28920, Note_off_c, 1, 50, 64
3, 28920, Note_on_c, 1, 47, 64
3, 29040, Note_off_c, 1, 47, 64
3, 29040, Note_on_c, 1, 43, 64
3, 29160, Note_off_c, 1, 43, 64
3, 29160, Note_on_c, 1, 42, 64
3, 29280, Note_off_c, 1, 42, 64
3, 29280, Note_on_c, 1, 38, 64
3, 29400, Note_off_c, 1, 38, 64
3, 29400, Note_on_c, 1, 42, 64
3, 29520, Note_off_c, 1, 42, 64
3, 29520, Note_on_c, 1, 45, 64
3, 29640, Note_off_c, 1, 45, 64
3, 29640, Note_on_c, 1, 42, 64
3, 29760, Note_off_c, 1, 42, 64
3, 29760, Note_on_c, 1, 38, 64
3, 29880, Note_off_c, 1, 38, 64
3, 29880, Note_on_c, 1, 45, 64
3, 30000, Note_off_c, 1, 45, 64
3, 30000, Note_on_c, 1, 42, 64
3, 30120, Note_off_c, 1, 42, 64
3, 30120, Note_on_c, 1, 38, 64
3, 30240, Note_off_c, 1, 38, 64
3, 30240, Note_on_c, 1, 43, 64
3, 30360, Note_off_c, 1, 43, 64
3, 30360, Note_on_c, 1, 45, 64
3, 30480, Note_off_c, 1, 45, 64
3, 30480, Note_on_c, 1, 47, 64
3, 30600, Note_off_c, 1, 47, 64
3, 30600, Note_on_c, 1, 45, 64
3, 30720, Note_off_c, 1, 45, 64
3, 30720, Note_on_c, 1, 47, 64
3, 30840, Note_off_c, 1, 47, 64
3, 30840, Note_on_c, 1, 48, 64
3, 30960, Note_off_c, 1, 48, 64
3, 30960, Note_on_c, 1, 47, 64
3, 31080, Note_off_c, 1, 47, 64
3, 31080, Note_on_c, 1, 48, 64
3, 31200, Note_off_c, 1, 48, 64
3, 31200, Note_on_c, 1, 50, 64
3, 31320, Note_off_c, 1, 50, 64
3, 31320, Note_on_c, 1, 40, 64
3, 31800, Note_off_c, 1, 40, 64
3, 31920, Note_on_c, 1, 52, 64
3, 32040, Note_off_c, 1, 52, 64
3, 32040, Note_on_c, 1, 54, 64
3, 32160, Note_off_c, 1, 54, 64
3, 32160, Note_on_c, 1, 52, 64
3, 32280, Note_off_c, 1, 52, 64
3, 32280, Note_on_c, 1, 50, 64
3, 32400, Note_off_c, 1, 50, 64
3, 32400, Note_on_c, 1, 55, 64
3, 32460, Note_off_c, 1, 55, 64
3, 32460, Note_on_c, 1, 54, 64
3, 32520, Note_off_c, 1, 54, 64
3, 32520, Note_on_c, 1, 55, 64
3, 32640, Note_off_c, 1, 55, 64
3, 32640, Note_on_c, 1, 47, 64
3, 32760, Note_off_c, 1, 47, 64
3, 32760, Note_on_c, 1, 52, 64
3, 32880, Note_off_c, 1, 52, 64
3, 32880, Note_on_c, 1, 50, 64
3, 33000, Note_off_c, 1, 50, 64
3, 33000, Note_on_c, 1, 48, 64
3, 33120, Note_off_c, 1, 48, 64
3, 33120, Note_on_c, 1, 50, 64
3, 33180, Note_off_c, 1, 50, 64
3, 33180, Note_on_c, 1, 48, 64
3, 33240, Note_off_c, 1, 48, 64
3, 33240, Note_on_c, 1, 50, 64
3, 33360, Note_off_c, 1, 50, 64
3, 33360, Note_on_c, 1, 38, 64
3, 33480, Note_off_c, 1, 38, 64
3, 33480, Note_on_c, 1, 43, 64
3, 33960, Note_off_c, 1, 43, 64
3, 33960, Note_on_c, 1, 47, 64
3, 34080, Note_off_c, 1, 47, 64
3, 34080, Note_on_c, 1, 50, 64
3, 34200, Note_off_c, 1, 50, 64
3, 34200, Note_on_c, 1, 55, 64
3, 34740, Note_off_c, 1, 55, 64
3, 34740, End_track
0, 0, End_of_file
