0, 0, Header, 1, 3, 240
1, 0, Start_track
1, 0, Time_signature, 3, 3, 36, 8
1, 0, Tempo, 666667
1, 0, End_track
2, 0, Start_track
2, 0, Text_t, "RH"
2, 240, Note_on_c, 0, 62, 64
2, 300, Note_off_c, 0, 62, 64
2, 300, Note_on_c, 0, 64, 64
2, 360, Note_off_c, 0, 64, 64
2, 360, Note_on_c, 0, 66, 64
2, 420, Note_off_c, 0, 66, 64
2, 420, Note_on_c, 0, 64, 64
2, 480, Note_off_c, 0, 64, 64
2, 480, Note_on_c, 0, 67, 64
2, 540, Note_off_c, 0, 67, 64
2, 540, Note_on_c, 0, 66, 64
2, 600, Note_off_c, 0, 66, 64
2, 600, Note_on_c, 0, 64, 64
2, 660, Note_off_c, 0, 64, 64
2, 660, Note_on_c, 0, 62, 64
2, 720, Note_off_c, 0, 62, 64
2, 720, Note_on_c, 0, 69, 64
2, 780, Note_off_c, 0, 69, 64
2, 780, Note_on_c, 0, 67, 64
2, 840, Note_off_c, 0, 67, 64
2, 840, Note_on_c, 0, 66, 64
2, 900, Note_off_c, 0, 66, 64
2, 900, Note_on_c, 0, 64, 64
2, 960, Note_off_c, 0, 64, 64
2, 960, Note_on_c, 0, 66, 64
2, 1020, Note_off_c, 0, 66, 64
2, 1020, Note_on_c, 0, 62, 64
2, 1080, Note_off_c, 0, 62, 64
2, 1080, Note_on_c, 0, 69, 64
2, 1200, Note_off_c, 0, 69, 64
2, 1200, Note_on_c, 0, 71, 64
2, 1320, Note_off_c, 0, 71, 64
2, 1320, Note_on_c, 0, 73, 64
2, 1340, Note_off_c, 0, 73, 64
2, 1340, Note_on_c, 0, 71, 56
2, 1360, Note_off_c, 0, 71, 64
2, 1360, Note_on_c, 0, 73, 64
2, 1380, Note_off_c, 0, 73, 64
2, 1380, Note_on_c, 0, 74, 64
2, 1440, Note_off_c, 0, 74, 64
2, 1440, Note_on_c, 0, 73, 64
2, 1470, Note_off_c, 0, 73, 64
2, 1470, Note_on_c, 0, 74, 56
2, 1500, Note_off_c, 0, 74, 64
2, 1500, Note_on_c, 0, 73, 64
2, 1560, Note_off_c, 0, 73, 64
2, 1560, Note_on_c, 0, 71, 56
2, 1590, Note_off_c, 0, 71, 64
2, 1590, Note_on_c, 0, 69, 64
2, 1665, Note_off_c, 0, 69, 64
2, 1680, Note_on_c, 0, 73, 64
2, 1740, Note_off_c, 0, 73, 64
2, 1740, Note_on_c, 0, 74, 64
2, 1800, Note_off_c, 0, 74, 64
2, 1800, Note_on_c, 0, 76, 64
2, 1860, Note_off_c, 0, 76, 64
2, 1860, Note_on_c, 0, 73, 64
2, 1920, Note_off_c, 0, 73, 64
2, 1920, Note_on_c, 0, 78, 64
2, 1980, Note_off_c, 0, 78, 64
2, 1980, Note_on_c, 0, 74, 64
2, 2040, Note_off_c, 0, 74, 64
2, 2040, Note_on_c, 0, 73, 64
2, 2100, Note_off_c, 0, 73, 64
2, 2100, Note_on_c, 0, 71, 64
2, 2160, Note_off_c, 0, 71, 64
2, 2160, Note_on_c, 0, 76, 64
2, 2220, Note_off_c, 0, 76, 64
2, 2220, Note_on_c, 0, 73, 64
2, 2280, Note_off_c, 0, 73, 64
2, 2280, Note_on_c, 0, 74, 64
2, 2340, Note_off_c, 0, 74, 64
2, 2340, Note_on_c, 0, 71, 64
2, 2400, Note_off_c, 0, 71, 64
2, 2400, Note_on_c, 0, 69, 64
2, 2460, Note_off_c, 0, 69, 64
2, 2460, Note_on_c, 0, 68, 64
2, 2520, Note_off_c, 0, 68, 64
2, 2520, Note_on_c, 0, 76, 64
2, 2580, Note_off_c, 0, 76, 64
2, 2580, Note_on_c, 0, 73, 64
2, 2640, Note_off_c, 0, 73, 64
2, 2640, Note_on_c, 0, 78, 64
2, 2700, Note_off_c, 0, 78, 64
2, 2700, Note_on_c, 0, 74, 64
2, 2760, Note_off_c, 0, 74, 64
2, 2760, Note_on_c, 0, 73, 64
2, 2820, Note_off_c, 0, 73, 64
2, 2820, Note_on_c, 0, 71, 64
2, 2880, Note_off_c, 0, 71, 64
2, 2880, Note_on_c, 0, 76, 64
2, 2940, Note_off_c, 0, 76, 64
2, 2940, Note_on_c, 0, 73, 64
2, 3000, Note_off_c, 0, 73, 64
2, 3000, Note_on_c, 0, 74, 64
2, 3060, Note_off_c, 0, 74, 64
2, 3060, Note_on_c, 0, 71, 64
2, 3120, Note_off_c, 0, 71, 64
2, 3120, Note_on_c, 0, 69, 64
2, 3180, Note_off_c, 0, 69, 64
2, 3180, Note_on_c, 0, 68, 64
2, 3240, Note_off_c, 0, 68, 64
2, 3240, Note_on_c, 0, 73, 64
2, 3300, Note_off_c, 0, 73, 64
2, 3300, Note_on_c, 0, 71, 64
2, 3360, Note_off_c, 0, 71, 64
2, 3360, Note_on_c, 0, 74, 64
2, 3420, Note_off_c, 0, 74, 64
2, 3420, Note_on_c, 0, 73, 64
2, 3480, Note_off_c, 0, 73, 64
2, 3480, Note_on_c, 0, 71, 64
2, 3540, Note_off_c, 0, 71, 64
2, 3540, Note_on_c, 0, 69, 64
2, 3600, Note_off_c, 0, 69, 64
2, 3600, Note_on_c, 0, 78, 64
2, 3720, Note_off_c, 0, 78, 64
2, 3720, Note_on_c, 0, 68, 64
2, 3840, Note_off_c, 0, 68, 64
2, 3840, Note_on_c, 0, 69, 64
2, 3970, Note_off_c, 0, 69, 64
2, 3980, Note_on_c, 0, 71, 64
2, 4000, Note_off_c, 0, 71, 64
2, 4000, Note_on_c, 0, 69, 49
2, 4020, Note_off_c, 0, 69, 64
2, 4020, Note_on_c, 0, 68, 52
2, 4040, Note_off_c, 0, 68, 64
2, 4040, Note_on_c, 0, 69, 56
2, 4060, Note_off_c, 0, 69, 64
2, 4060, Note_on_c, 0, 71, 64
2, 4070, Note_off_c, 0, 71, 64
2, 4080, Note_on_c, 0, 71, 64
2, 4260, Note_off_c, 0, 71, 64
2, 4260, Note_on_c, 0, 69, 64
2, 4320, Note_off_c, 0, 69, 64
2, 4320, Note_on_c, 0, 69, 64
2, 4560, Note_off_c, 0, 69, 64
2, 4800, Note_on_c, 0, 76, 64
2, 4920, Note_off_c, 0, 76, 64
2, 4920, Note_on_c, 0, 81, 64
2, 5100, Note_off_c, 0, 81, 64
2, 5100, Note_on_c, 0, 71, 64
2, 5160, Note_off_c, 0, 71, 64
2, 5160, Note_on_c, 0, 73, 64
2, 5220, Note_off_c, 0, 73, 64
2, 5220, Note_on_c, 0, 75, 64
2, 5280, Note_off_c, 0, 75, 64
2, 5280, Note_on_c, 0, 76, 64
2, 5340, Note_off_c, 0, 76, 64
2, 5340, Note_on_c, 0, 78, 64
2, 5400, Note_off_c, 0, 78, 64
2, 5400, Note_on_c, 0, 79, 64
2, 5460, Note_off_c, 0, 79, 64
2, 5460, Note_on_c, 0, 78, 64
2, 5520, Note_off_c, 0, 78, 64
2, 5520, Note_on_c, 0, 81, 64
2, 5580, Note_off_c, 0, 81, 64
2, 5580, Note_on_c, 0, 79, 64
2, 5640, Note_off_c, 0, 79, 64
2, 5640, Note_on_c, 0, 78, 64
2, 5700, Note_off_c, 0, 78, 64
2, 5700, Note_on_c, 0, 76, 64
2, 5760, Note_off_c, 0, 76, 64
2, 5760, Note_on_c, 0, 83, 64
2, 5880, Note_off_c, 0, 83, 64
2, 5880, Note_on_c, 0, 71, 64
2, 6000, Note_off_c, 0, 71, 64
2, 6240, Note_on_c, 0, 66, 64
2, 6360, Note_off_c, 0, 66, 64
2, 6360, Note_on_c, 0, 71, 64
2, 6540, Note_off_c, 0, 71, 64
2, 6540, Note_on_c, 0, 70, 64
2, 6600, Note_off_c, 0, 70, 64
2, 6600, Note_on_c, 0, 71, 64
2, 6660, Note_off_c, 0, 71, 64
2, 6660, Note_on_c, 0, 73, 64
2, 6720, Note_off_c, 0, 73, 64
2, 6720, Note_on_c, 0, 74, 64
2, 6780, Note_off_c, 0, 74, 64
2, 6780, Note_on_c, 0, 76, 64
2, 6840, Note_off_c, 0, 76, 64
2, 6840, Note_on_c, 0, 78, 64
2, 6900, Note_off_c, 0, 78, 64
2, 6900, Note_on_c, 0, 76, 64
2, 6960, Note_off_c, 0, 76, 64
2, 6960, Note_on_c, 0, 79, 64
2, 7020, Note_off_c, 0, 79, 64
2, 7020, Note_on_c, 0, 78, 64
2, 7080, Note_off_c, 0, 78, 64
2, 7080, Note_on_c, 0, 76, 64
2, 7140, Note_off_c, 0, 76, 64
2, 7140, Note_on_c, 0, 74, 64
2, 7200, Note_off_c, 0, 74, 64
2, 7200, Note_on_c, 0, 76, 64
2, 7260, Note_off_c, 0, 76, 64
2, 7260, Note_on_c, 0, 74, 64
2, 7320, Note_off_c, 0, 74, 64
2, 7320, Note_on_c, 0, 78, 64
2, 7380, Note_off_c, 0, 78, 64
2, 7380, Note_on_c, 0, 76, 64
2, 7440, Note_off_c, 0, 76, 64
2, 7440, Note_on_c, 0, 74, 64
2, 7500, Note_off_c, 0, 74, 64
2, 7500, Note_on_c, 0, 73, 64
2, 7560, Note_off_c, 0, 73, 64
2, 7560, Note_on_c, 0, 74, 64
2, 7620, Note_off_c, 0, 74, 64
2, 7620, Note_on_c, 0, 73, 64
2, 7680, Note_off_c, 0, 73, 64
2, 7680, Note_on_c, 0, 76, 64
2, 7740, Note_off_c, 0, 76, 64
2, 7740, Note_on_c, 0, 74, 64
2, 7800, Note_off_c, 0, 74, 64
2, 7800, Note_on_c, 0, 73, 64
2, 7860, Note_off_c, 0, 73, 64
2, 7860, Note_on_c, 0, 71, 64
2, 7920, Note_off_c, 0, 71, 64
2, 7920, Note_on_c, 0, 73, 64
2, 8040, Note_off_c, 0, 73, 64
2, 8040, Note_on_c, 0, 70, 64
2, 8070, Note_off_c, 0, 70, 64
2, 8070, Note_on_c, 0, 68, 56
2, 8100, Note_off_c, 0, 68, 64
2, 8100, Note_on_c, 0, 70, 64
2, 8160, Note_off_c, 0, 70, 64
2, 8160, Note_on_c, 0, 71, 64
2, 8340, Note_off_c, 0, 71, 64
2, 8340, Note_on_c, 0, 73, 64
2, 8390, Note_off_c, 0, 73, 64
2, 8400, Note_on_c, 0, 73, 64
2, 8430, Note_off_c, 0, 73, 64
2, 8430, Note_on_c, 0, 74, 56
2, 8460, Note_off_c, 0, 74, 64
2, 8460, Note_on_c, 0, 73, 64
2, 8580, Note_off_c, 0, 73, 64
2, 8580, Note_on_c, 0, 71, 64
2, 8700, Note_off_c, 0, 71, 64
2, 8700, Note_on_c, 0, 66, 64
2, 8760, Note_off_c, 0, 66, 64
2, 8760, Note_on_c, 0, 68, 64
2, 8820, Note_off_c, 0, 68, 64
2, 8820, Note_on_c, 0, 70, 64
2, 8880, Note_off_c, 0, 70, 64
2, 8880, Note_on_c, 0, 71, 64
2, 8940, Note_off_c, 0, 71, 64
2, 8940, Note_on_c, 0, 73, 64
2, 9000, Note_off_c, 0, 73, 64
2, 9000, Note_on_c, 0, 74, 64
2, 9060, Note_off_c, 0, 74, 64
2, 9060, Note_on_c, 0, 73, 64
2, 9120, Note_off_c, 0, 73, 64
2, 9120, Note_on_c, 0, 76, 64
2, 9180, Note_off_c, 0, 76, 64
2, 9180, Note_on_c, 0, 74, 64
2, 9240, Note_off_c, 0, 74, 64
2, 9240, Note_on_c, 0, 73, 64
2, 9300, Note_off_c, 0, 73, 64
2, 9300, Note_on_c, 0, 71, 64
2, 9360, Note_off_c, 0, 71, 64
2, 9360, Note_on_c, 0, 79, 64
2, 10130, Note_off_c, 0, 79, 64
2, 10140, Note_on_c, 0, 64, 64
2, 10200, Note_off_c, 0, 64, 64
2, 10200, Note_on_c, 0, 66, 64
2, 10260, Note_off_c, 0, 66, 64
2, 10260, Note_on_c, 0, 68, 64
2, 10320, Note_off_c, 0, 68, 64
2, 10320, Note_on_c, 0, 69, 64
2, 10380, Note_off_c, 0, 69, 64
2, 10380, Note_on_c, 0, 71, 64
2, 10440, Note_off_c, 0, 71, 64
2, 10440, Note_on_c, 0, 73, 64
2, 10500, Note_off_c, 0, 73, 64
2, 10500, Note_on_c, 0, 71, 64
2, 10560, Note_off_c, 0, 71, 64
2, 10560, Note_on_c, 0, 74, 64
2, 10620, Note_off_c, 0, 74, 64
2, 10620, Note_on_c, 0, 73, 64
2, 10680, Note_off_c, 0, 73, 64
2, 10680, Note_on_c, 0, 71, 64
2, 10740, Note_off_c, 0, 71, 64
2, 10740, Note_on_c, 0, 69, 64
2, 10800, Note_off_c, 0, 69, 64
2, 10800, Note_on_c, 0, 78, 64
2, 11570, Note_off_c, 0, 78, 64
2, 11580, Note_on_c, 0, 71, 64
2, 11640, Note_off_c, 0, 71, 64
2, 11640, Note_on_c, 0, 76, 64
2, 11700, Note_off_c, 0, 76, 64
2, 11700, Note_on_c, 0, 74, 64
2, 11760, Note_off_c, 0, 74, 64
2, 11760, Note_on_c, 0, 73, 64
2, 11820, Note_off_c, 0, 73, 64
2, 11820, Note_on_c, 0, 71, 64
2, 11880, Note_off_c, 0, 71, 64
2, 11880, Note_on_c, 0, 73, 64
2, 11940, Note_off_c, 0, 73, 64
2, 11940, Note_on_c, 0, 71, 64
2, 12000, Note_off_c, 0, 71, 64
2, 12000, Note_on_c, 0, 74, 64
2, 12060, Note_off_c, 0, 74, 64
2, 12060, Note_on_c, 0, 73, 64
2, 12120, Note_off_c, 0, 73, 64
2, 12120, Note_on_c, 0, 71, 64
2, 12180, Note_off_c, 0, 71, 64
2, 12180, Note_on_c, 0, 69, 64
2, 12240, Note_off_c, 0, 69, 64
2, 12240, Note_on_c, 0, 68, 64
2, 12270, Note_off_c, 0, 68, 64
2, 12270, Note_on_c, 0, 69, 56
2, 12300, Note_off_c, 0, 69, 64
2, 12300, Note_on_c, 0, 68, 64
2, 12360, Note_off_c, 0, 68, 64
2, 12360, Note_on_c, 0, 64, 64
2, 12480, Note_off_c, 0, 64, 64
2, 12480, Note_on_c, 0, 69, 64
2, 12540, Note_off_c, 0, 69, 64
2, 12540, Note_on_c, 0, 71, 64
2, 12600, Note_off_c, 0, 71, 64
2, 12600, Note_on_c, 0, 73, 64
2, 12660, Note_off_c, 0, 73, 64
2, 12660, Note_on_c, 0, 71, 64
2, 12720, Note_off_c, 0, 71, 64
2, 12720, Note_on_c, 0, 74, 64
2, 12780, Note_off_c, 0, 74, 64
2, 12780, Note_on_c, 0, 73, 64
2, 12840, Note_off_c, 0, 73, 64
2, 12840, Note_on_c, 0, 71, 64
2, 12900, Note_off_c, 0, 71, 64
2, 12900, Note_on_c, 0, 69, 64
2, 12960, Note_off_c, 0, 69, 64
2, 12960, Note_on_c, 0, 78, 64
2, 13140, Note_off_c, 0, 78, 64
2, 13140, Note_on_c, 0, 68, 64
2, 13200, Note_off_c, 0, 68, 64
2, 13200, Note_on_c, 0, 69, 64
2, 13260, Note_off_c, 0, 69, 64
2, 13260, Note_on_c, 0, 68, 64
2, 13320, Note_off_c, 0, 68, 64
2, 13320, Note_on_c, 0, 69, 64
2, 13380, Note_off_c, 0, 69, 64
2, 13380, Note_on_c, 0, 74, 64
2, 13440, Note_off_c, 0, 74, 64
2, 13440, Note_on_c, 0, 71, 64
2, 13620, Note_off_c, 0, 71, 64
2, 13620, Note_on_c, 0, 69, 64
2, 13670, Note_off_c, 0, 69, 64
2, 13680, Note_on_c, 0, 69, 64
2, 13860, Note_off_c, 0, 69, 64
2, 13860, Note_on_c, 0, 73, 64
2, 13920, Note_off_c, 0, 73, 64
2, 13920, Note_on_c, 0, 74, 64
2, 13980, Note_off_c, 0, 74, 64
2, 13980, Note_on_c, 0, 76, 64
2, 14040, Note_off_c, 0, 76, 64
2, 14040, Note_on_c, 0, 66, 64
2, 14160, Note_off_c, 0, 66, 64
2, 14160, Note_on_c, 0, 67, 64
2, 14280, Note_off_c, 0, 67, 64
2, 14280, Note_on_c, 0, 71, 64
2, 14310, Note_off_c, 0, 71, 64
2, 14310, Note_on_c, 0, 69, 48
2, 14340, Note_off_c, 0, 69, 64
2, 14340, Note_on_c, 0, 67, 51
2, 14370, Note_off_c, 0, 67, 64
2, 14370, Note_on_c, 0, 69, 55
2, 14400, Note_off_c, 0, 69, 64
2, 14400, Note_on_c, 0, 71, 64
2, 14520, Note_off_c, 0, 71, 64
2, 14520, Note_on_c, 0, 74, 64
2, 14550, Note_off_c, 0, 74, 64
2, 14550, Note_on_c, 0, 73, 49
2, 14580, Note_off_c, 0, 73, 64
2, 14580, Note_on_c, 0, 71, 54
2, 14610, Note_off_c, 0, 71, 64
2, 14610, Note_on_c, 0, 73, 58
2, 14640, Note_off_c, 0, 73, 64
2, 14640, Note_on_c, 0, 74, 64
2, 14820, Note_off_c, 0, 74, 64
2, 14820, Note_on_c, 0, 73, 64
2, 14880, Note_off_c, 0, 73, 64
2, 14880, Note_on_c, 0, 76, 64
2, 14940, Note_off_c, 0, 76, 64
2, 14940, Note_on_c, 0, 74, 64
2, 15000, Note_off_c, 0, 74, 64
2, 15000, Note_on_c, 0, 73, 64
2, 15060, Note_off_c, 0, 73, 64
2, 15060, Note_on_c, 0, 74, 64
2, 15120, Note_off_c, 0, 74, 64
2, 15120, Note_on_c, 0, 76, 64
2, 15180, Note_off_c, 0, 76, 64
2, 15180, Note_on_c, 0, 74, 64
2, 15240, Note_off_c, 0, 74, 64
2, 15240, Note_on_c, 0, 73, 64
2, 15300, Note_off_c, 0, 73, 64
2, 15300, Note_on_c, 0, 71, 64
2, 15360, Note_off_c, 0, 71, 64
2, 15360, Note_on_c, 0, 69, 64
2, 15420, Note_off_c, 0, 69, 64
2, 15420, Note_on_c, 0, 67, 64
2, 15480, Note_off_c, 0, 67, 64
2, 15480, Note_on_c, 0, 66, 64
2, 15540, Note_off_c, 0, 66, 64
2, 15540, Note_on_c, 0, 64, 64
2, 15600, Note_off_c, 0, 64, 64
2, 15600, Note_on_c, 0, 67, 64
2, 15660, Note_off_c, 0, 67, 64
2, 15660, Note_on_c, 0, 66, 64
2, 15720, Note_off_c, 0, 66, 64
2, 15720, Note_on_c, 0, 64, 64
2, 15780, Note_off_c, 0, 64, 64
2, 15780, Note_on_c, 0, 62, 64
2, 15840, Note_off_c, 0, 62, 64
2, 15840, Note_on_c, 0, 69, 64
2, 15900, Note_off_c, 0, 69, 64
2, 15900, Note_on_c, 0, 67, 64
2, 15960, Note_off_c, 0, 67, 64
2, 15960, Note_on_c, 0, 66, 64
2, 16020, Note_off_c, 0, 66, 64
2, 16020, Note_on_c, 0, 64, 64
2, 16080, Note_off_c, 0, 64, 64
2, 16080, Note_on_c, 0, 66, 64
2, 16140, Note_off_c, 0, 66, 64
2, 16140, Note_on_c, 0, 62, 64
2, 16200, Note_off_c, 0, 62, 64
2, 16200, Note_on_c, 0, 69, 64
2, 16320, Note_off_c, 0, 69, 64
2, 16320, Note_on_c, 0, 71, 64
2, 16440, Note_off_c, 0, 71, 64
2, 16440, Note_on_c, 0, 73, 64
2, 16460, Note_off_c, 0, 73, 64
2, 16460, Note_on_c, 0, 71, 56
2, 16480, Note_off_c, 0, 71, 64
2, 16480, Note_on_c, 0, 73, 64
2, 16500, Note_off_c, 0, 73, 64
2, 16500, Note_on_c, 0, 74, 64
2, 16560, Note_off_c, 0, 74, 64
2, 16560, Note_on_c, 0, 73, 64
2, 16590, Note_off_c, 0, 73, 64
2, 16590, Note_on_c, 0, 74, 56
2, 16620, Note_off_c, 0, 74, 64
2, 16620, Note_on_c, 0, 73, 60
2, 16680, Note_off_c, 0, 73, 64
2, 16680, Note_on_c, 0, 71, 56
2, 16710, Note_off_c, 0, 71, 64
2, 16710, Note_on_c, 0, 69, 64
2, 16785, Note_off_c, 0, 69, 64
2, 16800, Note_on_c, 0, 74, 64
2, 16910, Note_off_c, 0, 74, 64
2, 16920, Note_on_c, 0, 74, 64
2, 17040, Note_off_c, 0, 74, 64
2, 17040, Note_on_c, 0, 62, 64
2, 17160, Note_off_c, 0, 62, 64
2, 17160, Note_on_c, 0, 74, 64
2, 17270, Note_off_c, 0, 74, 64
2, 17280, Note_on_c, 0, 74, 64
2, 17400, Note_off_c, 0, 74, 64
2, 17400, Note_on_c, 0, 62, 64
2, 17520, Note_off_c, 0, 62, 64
2, 17520, Note_on_c, 0, 74, 64
2, 17630, Note_off_c, 0, 74, 64
2, 17640, Note_on_c, 0, 74, 64
2, 17760, Note_off_c, 0, 74, 64
2, 17760, Note_on_c, 0, 62, 64
2, 17880, Note_off_c, 0, 62, 64
2, 17880, Note_on_c, 0, 74, 64
2, 17990, Note_off_c, 0, 74, 64
2, 18000, Note_on_c, 0, 74, 64
2, 18120, Note_off_c, 0, 74, 64
2, 18120, Note_on_c, 0, 62, 64
2, 18240, Note_off_c, 0, 62, 64
2, 18240, Note_on_c, 0, 74, 64
2, 18300, Note_off_c, 0, 74, 64
2, 18300, Note_on_c, 0, 76, 64
2, 18360, Note_off_c, 0, 76, 64
2, 18360, Note_on_c, 0, 78, 64
2, 18420, Note_off_c, 0, 78, 64
2, 18420, Note_on_c, 0, 76, 64
2, 18480, Note_off_c, 0, 76, 64
2, 18480, Note_on_c, 0, 79, 64
2, 18540, Note_off_c, 0, 79, 64
2, 18540, Note_on_c, 0, 78, 64
2, 18600, Note_off_c, 0, 78, 64
2, 18600, Note_on_c, 0, 76, 64
2, 18660, Note_off_c, 0, 76, 64
2, 18660, Note_on_c, 0, 74, 64
2, 18720, Note_off_c, 0, 74, 64
2, 18720, Note_on_c, 0, 83, 64
2, 18840, Note_off_c, 0, 83, 64
2, 18840, Note_on_c, 0, 73, 64
2, 18960, Note_off_c, 0, 73, 64
2, 18960, Note_on_c, 0, 74, 64
2, 19090, Note_off_c, 0, 74, 64
2, 19100, Note_on_c, 0, 76, 48
2, 19120, Note_off_c, 0, 76, 64
2, 19120, Note_on_c, 0, 74, 53
2, 19140, Note_off_c, 0, 74, 64
2, 19140, Note_on_c, 0, 73, 57
2, 19160, Note_off_c, 0, 73, 64
2, 19160, Note_on_c, 0, 74, 64
2, 19180, Note_off_c, 0, 74, 64
2, 19180, Note_on_c, 0, 76, 64
2, 19195, Note_off_c, 0, 76, 64
2, 19200, Note_on_c, 0, 76, 64
2, 19380, Note_off_c, 0, 76, 64
2, 19380, Note_on_c, 0, 74, 64
2, 19430, Note_off_c, 0, 74, 64
2, 19440, Note_on_c, 0, 74, 64
2, 19560, Note_off_c, 0, 74, 64
2, 19560, Note_on_c, 0, 62, 64
2, 19680, Note_off_c, 0, 62, 64
2, 19680, Note_on_c, 0, 67, 64
2, 19860, Note_off_c, 0, 67, 64
2, 19860, Note_on_c, 0, 57, 64
2, 19920, Note_off_c, 0, 57, 64
2, 19920, Note_on_c, 0, 59, 64
2, 19980, Note_off_c, 0, 59, 64
2, 19980, Note_on_c, 0, 61, 64
2, 20040, Note_off_c, 0, 61, 64
2, 20040, Note_on_c, 0, 62, 64
2, 20100, Note_off_c, 0, 62, 64
2, 20100, Note_on_c, 0, 64, 64
2, 20160, Note_off_c, 0, 64, 64
2, 20160, Note_on_c, 0, 66, 64
2, 20220, Note_off_c, 0, 66, 64
2, 20220, Note_on_c, 0, 64, 64
2, 20280, Note_off_c, 0, 64, 64
2, 20280, Note_on_c, 0, 67, 64
2, 20340, Note_off_c, 0, 67, 64
2, 20340, Note_on_c, 0, 66, 64
2, 20400, Note_off_c, 0, 66, 64
2, 20400, Note_on_c, 0, 64, 64
2, 20460, Note_off_c, 0, 64, 64
2, 20460, Note_on_c, 0, 62, 64
2, 20520, Note_off_c, 0, 62, 64
2, 20520, Note_on_c, 0, 71, 64
2, 20700, Note_off_c, 0, 71, 64
2, 20700, Note_on_c, 0, 61, 64
2, 20760, Note_off_c, 0, 61, 64
2, 20760, Note_on_c, 0, 62, 64
2, 20820, Note_off_c, 0, 62, 64
2, 20820, Note_on_c, 0, 61, 64
2, 20880, Note_off_c, 0, 61, 64
2, 20880, Note_on_c, 0, 62, 64
2, 20940, Note_off_c, 0, 62, 64
2, 20940, Note_on_c, 0, 67, 64
2, 21000, Note_off_c, 0, 67, 64
2, 21000, Note_on_c, 0, 64, 64
2, 21180, Note_off_c, 0, 64, 64
2, 21180, Note_on_c, 0, 62, 64
2, 21230, Note_off_c, 0, 62, 64
2, 21240, Note_on_c, 0, 62, 64
2, 21960, Note_off_c, 0, 62, 64
2, 21960, End_track
3, 0, Start_track
3, 0, Text_t, "LH"
3, 960, Note_on_c, 1, 50, 64
3, 1020, Note_off_c, 1, 50, 64
3, 1020, Note_on_c, 1, 52, 64
3, 1080, Note_off_c, 1, 52, 64
3, 1080, Note_on_c, 1, 54, 64
3, 1140, Note_off_c, 1, 54, 64
3, 1140, Note_on_c, 1, 52, 64
3, 1200, Note_off_c, 1, 52, 64
3, 1200, Note_on_c, 1, 55, 64
3, 1260, Note_off_c, 1, 55, 64
3, 1260, Note_on_c, 1, 54, 64
3, 1320, Note_off_c, 1, 54, 64
3, 1320, Note_on_c, 1, 52, 64
3, 1380, Note_off_c, 1, 52, 64
3, 1380, Note_on_c, 1, 50, 64
3, 1440, Note_off_c, 1, 50, 64
3, 1440, Note_on_c, 1, 57, 64
3, 1500, Note_off_c, 1, 57, 64
3, 1500, Note_on_c, 1, 55, 64
3, 1560, Note_off_c, 1, 55, 64
3, 1560, Note_on_c, 1, 54, 64
3, 1620, Note_off_c, 1, 54, 64
3, 1620, Note_on_c, 1, 52, 64
3, 1680, Note_off_c, 1, 52, 64
3, 1680, Note_on_c, 1, 54, 64
3, 1740, Note_off_c, 1, 54, 64
3, 1740, Note_on_c, 1, 50, 64
3, 1800, Note_off_c, 1, 50, 64
3, 1800, Note_on_c, 1, 57, 64
3, 1920, Note_off_c, 1, 57, 64
3, 1920, Note_on_c, 1, 45, 64
3, 2040, Note_off_c, 1, 45, 64
3, 2040, Note_on_c, 1, 57, 64
3, 2150, Note_off_c, 1, 57, 64
3, 2160, Note_on_c, 1, 57, 64
3, 2280, Note_off_c, 1, 57, 64
3, 2280, Note_on_c, 1, 45, 64
3, 2400, Note_off_c, 1, 45, 64
3, 2400, Note_on_c, 1, 57, 64
3, 2510, Note_off_c, 1, 57, 64
3, 2520, Note_on_c, 1, 57, 64
3, 2640, Note_off_c, 1, 57, 64
3, 2640, Note_on_c, 1, 45, 64
3, 2760, Note_off_c, 1, 45, 64
3, 2760, Note_on_c, 1, 57, 64
3, 2870, Note_off_c, 1, 57, 64
3, 2880, Note_on_c, 1, 57, 64
3, 3000, Note_off_c, 1, 57, 64
3, 3000, Note_on_c, 1, 45, 64
3, 3120, Note_off_c, 1, 45, 64
3, 3120, Note_on_c, 1, 57, 64
3, 3230, Note_off_c, 1, 57, 64
3, 3240, Note_on_c, 1, 57, 64
3, 3360, Note_off_c, 1, 57, 64
3, 3360, Note_on_c, 1, 59, 64
3, 3480, Note_off_c, 1, 59, 64
3, 3480, Note_on_c, 1, 61, 64
3, 3600, Note_off_c, 1, 61, 64
3, 3600, Note_on_c, 1, 62, 64
3, 3660, Note_off_c, 1, 62, 64
3, 3660, Note_on_c, 1, 61, 64
3, 3720, Note_off_c, 1, 61, 64
3, 3720, Note_on_c, 1, 64, 64
3, 3780, Note_off_c, 1, 64, 64
3, 3780, Note_on_c, 1, 62, 64
3, 3840, Note_off_c, 1, 62, 64
3, 3840, Note_on_c, 1, 61, 64
3, 3900, Note_off_c, 1, 61, 64
3, 3900, Note_on_c, 1, 59, 64
3, 3960, Note_off_c, 1, 59, 64
3, 3960, Note_on_c, 1, 61, 64
3, 4020, Note_off_c, 1, 61, 64
3, 4020, Note_on_c, 1, 62, 64
3, 4080, Note_off_c, 1, 62, 64
3, 4080, Note_on_c, 1, 64, 64
3, 4200, Note_off_c, 1, 64, 64
3, 4200, Note_on_c, 1, 52, 64
3, 4320, Note_off_c, 1, 52, 64
3, 4320, Note_on_c, 1, 57, 64
3, 4380, Note_off_c, 1, 57, 64
3, 4380, Note_on_c, 1, 52, 64
3, 4440, Note_off_c, 1, 52, 64
3, 4440, Note_on_c, 1, 54, 64
3, 4500, Note_off_c, 1, 54, 64
3, 4500, Note_on_c, 1, 56, 64
3, 4560, Note_off_c, 1, 56, 64
3, 4560, Note_on_c, 1, 57, 64
3, 4620, Note_off_c, 1, 57, 64
3, 4620, Note_on_c, 1, 59, 64
3, 4680, Note_off_c, 1, 59, 64
3, 4680, Note_on_c, 1, 61, 64
3, 4740, Note_off_c, 1, 61, 64
3, 4740, Note_on_c, 1, 59, 64
3, 4800, Note_off_c, 1, 59, 64
3, 4800, Note_on_c, 1, 62, 64
3, 4860, Note_off_c, 1, 62, 64
3, 4860, Note_on_c, 1, 61, 64
3, 4920, Note_off_c, 1, 61, 64
3, 4920, Note_on_c, 1, 59, 64
3, 4980, Note_off_c, 1, 59, 64
3, 4980, Note_on_c, 1, 57, 64
3, 5040, Note_off_c, 1, 57, 64
3, 5040, Note_on_c, 1, 64, 64
3, 5160, Note_off_c, 1, 64, 64
3, 5160, Note_on_c, 1, 52, 64
3, 5280, Note_off_c, 1, 52, 64
3, 5520, Note_on_c, 1, 59, 64
3, 5640, Note_off_c, 1, 59, 64
3, 5640, Note_on_c, 1, 64, 64
3, 5820, Note_off_c, 1, 64, 64
3, 5820, Note_on_c, 1, 54, 64
3, 5880, Note_off_c, 1, 54, 64
3, 5880, Note_on_c, 1, 56, 64
3, 5940, Note_off_c, 1, 56, 64
3, 5940, Note_on_c, 1, 58, 64
3, 6000, Note_off_c, 1, 58, 64
3, 6000, Note_on_c, 1, 59, 64
3, 6060, Note_off_c, 1, 59, 64
3, 6060, Note_on_c, 1, 61, 64
3, 6120, Note_off_c, 1, 61, 64
3, 6120, Note_on_c, 1, 62, 64
3, 6180, Note_off_c, 1, 62, 64
3, 6180, Note_on_c, 1, 61, 64
3, 6240, Note_off_c, 1, 61, 64
3, 6240, Note_on_c, 1, 64, 64
3, 6300, Note_off_c, 1, 64, 64
3, 6300, Note_on_c, 1, 62, 64
3, 6360, Note_off_c, 1, 62, 64
3, 6360, Note_on_c, 1, 61, 64
3, 6420, Note_off_c, 1, 61, 64
3, 6420, Note_on_c, 1, 59, 64
3, 6480, Note_off_c, 1, 59, 64
3, 6480, Note_on_c, 1, 66, 64
3, 6600, Note_off_c, 1, 66, 64
3, 6600, Note_on_c, 1, 54, 64
3, 6720, Note_off_c, 1, 54, 64
3, 6720, Note_on_c, 1, 64, 64
3, 6840, Note_off_c, 1, 64, 64
3, 6840, Note_on_c, 1, 62, 64
3, 6960, Note_off_c, 1, 62, 64
3, 6960, Note_on_c, 1, 71, 64
3, 7020, Note_off_c, 1, 71, 64
3, 7020, Note_on_c, 1, 70, 64
3, 7080, Note_off_c, 1, 70, 64
3, 7080, Note_on_c, 1, 71, 64
3, 7200, Note_off_c, 1, 71, 64
3, 7200, Note_on_c, 1, 61, 64
3, 7320, Note_off_c, 1, 61, 64
3, 7320, Note_on_c, 1, 70, 64
3, 7380, Note_off_c, 1, 70, 64
3, 7380, Note_on_c, 1, 68, 64
3, 7440, Note_off_c, 1, 68, 64
3, 7440, Note_on_c, 1, 70, 64
3, 7560, Note_off_c, 1, 70, 64
3, 7560, Note_on_c, 1, 71, 64
3, 7620, Note_off_c, 1, 71, 64
3, 7620, Note_on_c, 1, 69, 64
3, 7680, Note_off_c, 1, 69, 64
3, 7680, Note_on_c, 1, 67, 64
3, 7740, Note_off_c, 1, 67, 64
3, 7740, Note_on_c, 1, 66, 64
3, 7800, Note_off_c, 1, 66, 64
3, 7800, Note_on_c, 1, 64, 64
3, 7860, Note_off_c, 1, 64, 64
3, 7860, Note_on_c, 1, 62, 64
3, 7920, Note_off_c, 1, 62, 64
3, 7920, Note_on_c, 1, 64, 64
3, 7980, Note_off_c, 1, 64, 64
3, 7980, Note_on_c, 1, 62, 64
3, 8040, Note_off_c, 1, 62, 64
3, 8040, Note_on_c, 1, 66, 64
3, 8100, Note_off_c, 1, 66, 64
3, 8100, Note_on_c, 1, 64, 64
3, 8160, Note_off_c, 1, 64, 64
3, 8160, Note_on_c, 1, 62, 64
3, 8220, Note_off_c, 1, 62, 64
3, 8220, Note_on_c, 1, 61, 64
3, 8280, Note_off_c, 1, 61, 64
3, 8280, Note_on_c, 1, 62, 64
3, 8340, Note_off_c, 1, 62, 64
3, 8340, Note_on_c, 1, 64, 64
3, 8400, Note_off_c, 1, 64, 64
3, 8400, Note_on_c, 1, 66, 64
3, 8520, Note_off_c, 1, 66, 64
3, 8520, Note_on_c, 1, 54, 64
3, 8640, Note_off_c, 1, 54, 64
3, 8640, Note_on_c, 1, 59, 64
3, 8760, Note_off_c, 1, 59, 64
3, 8760, Note_on_c, 1, 54, 64
3, 8880, Note_off_c, 1, 54, 64
3, 8880, Note_on_c, 1, 50, 64
3, 9000, Note_off_c, 1, 50, 64
3, 9000, Note_on_c, 1, 47, 64
3, 9240, Note_off_c, 1, 47, 64
3, 9420, Note_on_c, 1, 47, 64
3, 9480, Note_off_c, 1, 47, 64
3, 9480, Note_on_c, 1, 49, 64
3, 9540, Note_off_c, 1, 49, 64
3, 9540, Note_on_c, 1, 51, 64
3, 9600, Note_off_c, 1, 51, 64
3, 9600, Note_on_c, 1, 52, 64
3, 9660, Note_off_c, 1, 52, 64
3, 9660, Note_on_c, 1, 54, 64
3, 9720, Note_off_c, 1, 54, 64
3, 9720, Note_on_c, 1, 55, 64
3, 9780, Note_off_c, 1, 55, 64
3, 9780, Note_on_c, 1, 54, 64
3, 9840, Note_off_c, 1, 54, 64
3, 9840, Note_on_c, 1, 57, 64
3, 9900, Note_off_c, 1, 57, 64
3, 9900, Note_on_c, 1, 55, 64
3, 9960, Note_off_c, 1, 55, 64
3, 9960, Note_on_c, 1, 54, 64
3, 10020, Note_off_c, 1, 54, 64
3, 10020, Note_on_c, 1, 52, 64
3, 10080, Note_off_c, 1, 52, 64
3, 10080, Note_on_c, 1, 57, 64
3, 10850, Note_off_c, 1, 57, 64
3, 10860, Note_on_c, 1, 45, 64
3, 10920, Note_off_c, 1, 45, 64
3, 10920, Note_on_c, 1, 47, 64
3, 10980, Note_off_c, 1, 47, 64
3, 10980, Note_on_c, 1, 49, 64
3, 11040, Note_off_c, 1, 49, 64
3, 11040, Note_on_c, 1, 50, 64
3, 11100, Note_off_c, 1, 50, 64
3, 11100, Note_on_c, 1, 52, 64
3, 11160, Note_off_c, 1, 52, 64
3, 11160, Note_on_c, 1, 54, 64
3, 11220, Note_off_c, 1, 54, 64
3, 11220, Note_on_c, 1, 52, 64
3, 11280, Note_off_c, 1, 52, 64
3, 11280, Note_on_c, 1, 55, 64
3, 11340, Note_off_c, 1, 55, 64
3, 11340, Note_on_c, 1, 54, 64
3, 11400, Note_off_c, 1, 54, 64
3, 11400, Note_on_c, 1, 52, 64
3, 11460, Note_off_c, 1, 52, 64
3, 11460, Note_on_c, 1, 50, 64
3, 11520, Note_off_c, 1, 50, 64
3, 11520, Note_on_c, 1, 56, 64
3, 11700, Note_off_c, 1, 56, 64
3, 11700, Note_on_c, 1, 52, 64
3, 11760, Note_off_c, 1, 52, 64
3, 11760, Note_on_c, 1, 54, 64
3, 11820, Note_off_c, 1, 54, 64
3, 11820, Note_on_c, 1, 56, 64
3, 11880, Note_off_c, 1, 56, 64
3, 11880, Note_on_c, 1, 57, 64
3, 11940, Note_off_c, 1, 57, 64
3, 11940, Note_on_c, 1, 56, 64
3, 12000, Note_off_c, 1, 56, 64
3, 12000, Note_on_c, 1, 54, 64
3, 12060, Note_off_c, 1, 54, 64
3, 12060, Note_on_c, 1, 52, 64
3, 12120, Note_off_c, 1, 52, 64
3, 12120, Note_on_c, 1, 50, 64
3, 12180, Note_off_c, 1, 50, 64
3, 12180, Note_on_c, 1, 54, 64
3, 12240, Note_off_c, 1, 54, 64
3, 12240, Note_on_c, 1, 52, 64
3, 12300, Note_off_c, 1, 52, 64
3, 12300, Note_on_c, 1, 50, 64
3, 12360, Note_off_c, 1, 50, 64
3, 12360, Note_on_c, 1, 49, 64
3, 12420, Note_off_c, 1, 49, 64
3, 12420, Note_on_c, 1, 47, 64
3, 12480, Note_off_c, 1, 47, 64
3, 12480, Note_on_c, 1, 49, 64
3, 12540, Note_off_c, 1, 49, 64
3, 12540, Note_on_c, 1, 45, 64
3, 12600, Note_off_c, 1, 45, 64
3, 12600, Note_on_c, 1, 57, 64
3, 12720, Note_off_c, 1, 57, 64
3, 12720, Note_on_c, 1, 54, 64
3, 12840, Note_off_c, 1, 54, 64
3, 12840, Note_on_c, 1, 49, 64
3, 12960, Note_off_c, 1, 49, 64
3, 12960, Note_on_c, 1, 50, 64
3, 13020, Note_off_c, 1, 50, 64
3, 13020, Note_on_c, 1, 49, 64
3, 13080, Note_off_c, 1, 49, 64
3, 13080, Note_on_c, 1, 52, 64
3, 13140, Note_off_c, 1, 52, 64
3, 13140, Note_on_c, 1, 50, 64
3, 13200, Note_off_c, 1, 50, 64
3, 13200, Note_on_c, 1, 49, 64
3, 13260, Note_off_c, 1, 49, 64
3, 13260, Note_on_c, 1, 47, 64
3, 13320, Note_off_c, 1, 47, 64
3, 13320, Note_on_c, 1, 49, 64
3, 13380, Note_off_c, 1, 49, 64
3, 13380, Note_on_c, 1, 50, 64
3, 13440, Note_off_c, 1, 50, 64
3, 13440, Note_on_c, 1, 52, 64
3, 13560, Note_off_c, 1, 52, 64
3, 13560, Note_on_c, 1, 40, 64
3, 13680, Note_off_c, 1, 40, 64
3, 13680, Note_on_c, 1, 45, 64
3, 13740, Note_off_c, 1, 45, 64
3, 13740, Note_on_c, 1, 49, 64
3, 13800, Note_off_c, 1, 49, 64
3, 13800, Note_on_c, 1, 50, 64
3, 13860, Note_off_c, 1, 50, 64
3, 13860, Note_on_c, 1, 52, 64
3, 13920, Note_off_c, 1, 52, 64
3, 13920, Note_on_c, 1, 54, 64
3, 13980, Note_off_c, 1, 54, 64
3, 13980, Note_on_c, 1, 55, 64
3, 14040, Note_off_c, 1, 55, 64
3, 14040, Note_on_c, 1, 57, 64
3, 14100, Note_off_c, 1, 57, 64
3, 14100, Note_on_c, 1, 55, 64
3, 14160, Note_off_c, 1, 55, 64
3, 14160, Note_on_c, 1, 59, 64
3, 14220, Note_off_c, 1, 59, 64
3, 14220, Note_on_c, 1, 57, 64
3, 14280, Note_off_c, 1, 57, 64
3, 14280, Note_on_c, 1, 55, 64
3, 14340, Note_off_c, 1, 55, 64
3, 14340, Note_on_c, 1, 54, 64
3, 14400, Note_off_c, 1, 54, 64
3, 14400, Note_on_c, 1, 55, 64
3, 14460, Note_off_c, 1, 55, 64
3, 14460, Note_on_c, 1, 54, 64
3, 14520, Note_off_c, 1, 54, 64
3, 14520, Note_on_c, 1, 57, 64
3, 14580, Note_off_c, 1, 57, 64
3, 14580, Note_on_c, 1, 55, 64
3, 14640, Note_off_c, 1, 55, 64
3, 14640, Note_on_c, 1, 54, 64
3, 14700, Note_off_c, 1, 54, 64
3, 14700, Note_on_c, 1, 52, 64
3, 14760, Note_off_c, 1, 52, 64
3, 14760, Note_on_c, 1, 54, 64
3, 14820, Note_off_c, 1, 54, 64
3, 14820, Note_on_c, 1, 52, 64
3, 14880, Note_off_c, 1, 52, 64
3, 14880, Note_on_c, 1, 55, 64
3, 14940, Note_off_c, 1, 55, 64
3, 14940, Note_on_c, 1, 54, 64
3, 15000, Note_off_c, 1, 54, 64
3, 15000, Note_on_c, 1, 52, 64
3, 15060, Note_off_c, 1, 52, 64
3, 15060, Note_on_c, 1, 50, 64
3, 15120, Note_off_c, 1, 50, 64
3, 15120, Note_on_c, 1, 57, 64
3, 15240, Note_off_c, 1, 57, 64
3, 15240, Note_on_c, 1, 45, 64
3, 15360, Note_off_c, 1, 45, 64
3, 16080, Note_on_c, 1, 50, 64
3, 16140, Note_off_c, 1, 50, 64
3, 16140, Note_on_c, 1, 52, 64
3, 16200, Note_off_c, 1, 52, 64
3, 16200, Note_on_c, 1, 54, 64
3, 16260, Note_off_c, 1, 54, 64
3, 16260, Note_on_c, 1, 52, 64
3, 16320, Note_off_c, 1, 52, 64
3, 16320, Note_on_c, 1, 55, 64
3, 16380, Note_off_c, 1, 55, 64
3, 16380, Note_on_c, 1, 54, 64
3, 16440, Note_off_c, 1, 54, 64
3, 16440, Note_on_c, 1, 52, 64
3, 16500, Note_off_c, 1, 52, 64
3, 16500, Note_on_c, 1, 50, 64
3, 16560, Note_off_c, 1, 50, 64
3, 16560, Note_on_c, 1, 57, 64
3, 16620, Note_off_c, 1, 57, 64
3, 16620, Note_on_c, 1, 55, 64
3, 16680, Note_off_c, 1, 55, 64
3, 16680, Note_on_c, 1, 54, 64
3, 16740, Note_off_c, 1, 54, 64
3, 16740, Note_on_c, 1, 52, 64
3, 16800, Note_off_c, 1, 52, 64
3, 16800, Note_on_c, 1, 54, 64
3, 16860, Note_off_c, 1, 54, 64
3, 16860, Note_on_c, 1, 50, 64
3, 16920, Note_off_c, 1, 50, 64
3, 16920, Note_on_c, 1, 57, 64
3, 16980, Note_off_c, 1, 57, 64
3, 16980, Note_on_c, 1, 54, 64
3, 17040, Note_off_c, 1, 54, 64
3, 17040, Note_on_c, 1, 59, 64
3, 17100, Note_off_c, 1, 59, 64
3, 17100, Note_on_c, 1, 55, 64
3, 17160, Note_off_c, 1, 55, 64
3, 17160, Note_on_c, 1, 54, 64
3, 17220, Note_off_c, 1, 54, 64
3, 17220, Note_on_c, 1, 52, 64
3, 17280, Note_off_c, 1, 52, 64
3, 17280, Note_on_c, 1, 57, 64
3, 17340, Note_off_c, 1, 57, 64
3, 17340, Note_on_c, 1, 54, 64
3, 17400, Note_off_c, 1, 54, 64
3, 17400, Note_on_c, 1, 55, 64
3, 17460, Note_off_c, 1, 55, 64
3, 17460, Note_on_c, 1, 52, 64
3, 17520, Note_off_c, 1, 52, 64
3, 17520, Note_on_c, 1, 50, 64
3, 17580, Note_off_c, 1, 50, 64
3, 17580, Note_on_c, 1, 49, 64
3, 17640, Note_off_c, 1, 49, 64
3, 17640, Note_on_c, 1, 57, 64
3, 17700, Note_off_c, 1, 57, 64
3, 17700, Note_on_c, 1, 54, 64
3, 17760, Note_off_c, 1, 54, 64
3, 17760, Note_on_c, 1, 59, 64
3, 17820, Note_off_c, 1, 59, 64
3, 17820, Note_on_c, 1, 55, 64
3, 17880, Note_off_c, 1, 55, 64
3, 17880, Note_on_c, 1, 54, 64
3, 17940, Note_off_c, 1, 54, 64
3, 17940, Note_on_c, 1, 52, 64
3, 18000, Note_off_c, 1, 52, 64
3, 18000, Note_on_c, 1, 57, 64
3, 18060, Note_off_c, 1, 57, 64
3, 18060, Note_on_c, 1, 54, 64
3, 18120, Note_off_c, 1, 54, 64
3, 18120, Note_on_c, 1, 55, 64
3, 18180, Note_off_c, 1, 55, 64
3, 18180, Note_on_c, 1, 52, 64
3, 18240, Note_off_c, 1, 52, 64
3, 18240, Note_on_c, 1, 50, 64
3, 18300, Note_off_c, 1, 50, 64
3, 18300, Note_on_c, 1, 49, 64
3, 18360, Note_off_c, 1, 49, 64
3, 18360, Note_on_c, 1, 50, 64
3, 18480, Note_off_c, 1, 50, 64
3, 18480, Note_on_c, 1, 52, 64
3, 18600, Note_off_c, 1, 52, 64
3, 18600, Note_on_c, 1, 54, 64
3, 18720, Note_off_c, 1, 54, 64
3, 18720, Note_on_c, 1, 55, 64
3, 18780, Note_off_c, 1, 55, 64
3, 18780, Note_on_c, 1, 54, 64
3, 18840, Note_off_c, 1, 54, 64
3, 18840, Note_on_c, 1, 57, 64
3, 18900, Note_off_c, 1, 57, 64
3, 18900, Note_on_c, 1, 55, 64
3, 18960, Note_off_c, 1, 55, 64
3, 18960, Note_on_c, 1, 54, 64
3, 19020, Note_off_c, 1, 54, 64
3, 19020, Note_on_c, 1, 52, 64
3, 19080, Note_off_c, 1, 52, 64
3, 19080, Note_on_c, 1, 54, 64
3, 19140, Note_off_c, 1, 54, 64
3, 19140, Note_on_c, 1, 55, 64
3, 19200, Note_off_c, 1, 55, 64
3, 19200, Note_on_c, 1, 57, 64
3, 19320, Note_off_c, 1, 57, 64
3, 19320, Note_on_c, 1, 45, 64
3, 19440, Note_off_c, 1, 45, 64
3, 19440, Note_on_c, 1, 47, 64
3, 19500, Note_off_c, 1, 47, 64
3, 19500, Note_on_c, 1, 45, 64
3, 19560, Note_off_c, 1, 45, 64
3, 19560, Note_on_c, 1, 48, 64
3, 19620, Note_off_c, 1, 48, 64
3, 19620, Note_on_c, 1, 47, 64
3, 19680, Note_off_c, 1, 47, 64
3, 19680, Note_on_c, 1, 45, 64
3, 19740, Note_off_c, 1, 45, 64
3, 19740, Note_on_c, 1, 43, 64
3, 19800, Note_off_c, 1, 43, 64
3, 19800, Note_on_c, 1, 50, 64
3, 20210, Note_off_c, 1, 50, 64
3, 20220, Note_on_c, 1, 49, 64
3, 20280, Note_off_c, 1, 49, 64
3, 20280, Note_on_c, 1, 47, 64
3, 20340, Note_off_c, 1, 47, 64
3, 20340, Note_on_c, 1, 45, 64
3, 20400, Note_off_c, 1, 45, 64
3, 20400, Note_on_c, 1, 43, 64
3, 20460, Note_off_c, 1, 43, 64
3, 20460, Note_on_c, 1, 42, 64
3, 20520, Note_off_c, 1, 42, 64
3, 20520, Note_on_c, 1, 43, 64
3, 20580, Note_off_c, 1, 43, 64
3, 20580, Note_on_c, 1, 42, 64
3, 20640, Note_off_c, 1, 42, 64
3, 20640, Note_on_c, 1, 45, 64
3, 20700, Note_off_c, 1, 45, 64
3, 20700, Note_on_c, 1, 43, 64
3, 20760, Note_off_c, 1, 43, 64
3, 20760, Note_on_c, 1, 42, 64
3, 20820, Note_off_c, 1, 42, 64
3, 20820, Note_on_c, 1, 40, 64
3, 20880, Note_off_c, 1, 40, 64
3, 20880, Note_on_c, 1, 42, 64
3, 20940, Note_off_c, 1, 42, 64
3, 20940, Note_on_c, 1, 43, 64
3, 21000, Note_off_c, 1, 43, 64
3, 21000, Note_on_c, 1, 45, 64
3, 21240, Note_off_c, 1, 45, 64
3, 21240, Note_on_c, 1, 38, 64
3, 21960, Note_off_c, 1, 38, 64
3, 21960, End_track
0, 0, End_of_file
