0, 0, Header, 1, 3, 240
1, 0, Start_track
1, 0, Time_signature, 12, 3, 12, 8
1, 0, Tempo, 545455
1, 0, End_track
2, 0, Start_track
2, 0, Text_t, "RH"
2, 0, Note_on_c, 0, 69, 64
2, 30, Note_off_c, 0, 69, 64
2, 30, Note_on_c, 0, 68, 56
2, 60, Note_off_c, 0, 68, 64
2, 60, Note_on_c, 0, 69, 64
2, 230, Note_off_c, 0, 69, 64
2, 240, Note_on_c, 0, 69, 64
2, 360, Note_off_c, 0, 69, 64
2, 360, Note_on_c, 0, 69, 64
2, 390, Note_off_c, 0, 69, 64
2, 390, Note_on_c, 0, 68, 56
2, 420, Note_off_c, 0, 68, 64
2, 420, Note_on_c, 0, 69, 64
2, 590, Note_off_c, 0, 69, 64
2, 600, Note_on_c, 0, 69, 64
2, 720, Note_off_c, 0, 69, 64
2, 720, Note_on_c, 0, 71, 64
2, 760, Note_off_c, 0, 71, 64
2, 760, Note_on_c, 0, 69, 48
2, 800, Note_on_c, 0, 71, 49
2, 808, Note_off_c, 0, 69, 64
2, 840, Note_on_c, 0, 73, 50
2, 848, Note_off_c, 0, 71, 64
2, 880, Note_on_c, 0, 71, 51
2, 888, Note_off_c, 0, 73, 64
2, 920, Note_on_c, 0, 73, 52
2, 928, Note_off_c, 0, 71, 64
2, 960, Note_on_c, 0, 71, 53
2, 968, Note_off_c, 0, 73, 64
2, 1000, Note_on_c, 0, 73, 53
2, 1008, Note_off_c, 0, 71, 64
2, 1040, Note_on_c, 0, 71, 54
2, 1048, Note_off_c, 0, 73, 64
2, 1080, Note_on_c, 0, 73, 55
2, 1088, Note_off_c, 0, 71, 64
2, 1120, Note_on_c, 0, 71, 56
2, 1128, Note_off_c, 0, 73, 64
2, 1160, Note_on_c, 0, 73, 57
2, 1168, Note_off_c, 0, 71, 64
2, 1200, Note_on_c, 0, 71, 58
2, 1208, Note_off_c, 0, 73, 64
2, 1240, Note_on_c, 0, 73, 59
2, 1248, Note_off_c, 0, 71, 64
2, 1280, Note_on_c, 0, 71, 60
2, 1288, Note_off_c, 0, 73, 64
2, 1320, Note_on_c, 0, 73, 61
2, 1328, Note_off_c, 0, 71, 64
2, 1360, Note_on_c, 0, 71, 62
2, 1368, Note_off_c, 0, 73, 64
2, 1400, Note_on_c, 0, 73, 63
2, 1408, Note_off_c, 0, 71, 64
2, 1440, Note_on_c, 0, 71, 64
2, 1448, Note_off_c, 0, 73, 64
2, 1500, Note_off_c, 0, 71, 64
2, 1500, Note_on_c, 0, 69, 64
2, 1560, Note_off_c, 0, 69, 64
2, 1560, Note_on_c, 0, 68, 64
2, 1620, Note_off_c, 0, 68, 64
2, 1620, Note_on_c, 0, 69, 64
2, 1680, Note_off_c, 0, 69, 64
2, 1680, Note_on_c, 0, 71, 64
2, 1740, Note_off_c, 0, 71, 64
2, 1740, Note_on_c, 0, 73, 64
2, 1800, Note_off_c, 0, 73, 64
2, 1800, Note_on_c, 0, 74, 64
2, 1860, Note_off_c, 0, 74, 64
2, 1860, Note_on_c, 0, 73, 64
2, 1920, Note_off_c, 0, 73, 64
2, 1920, Note_on_c, 0, 74, 64
2, 1980, Note_off_c, 0, 74, 64
2, 1980, Note_on_c, 0, 78, 64
2, 2040, Note_off_c, 0, 78, 64
2, 2040, Note_on_c, 0, 76, 64
2, 2100, Note_off_c, 0, 76, 64
2, 2100, Note_on_c, 0, 74, 64
2, 2160, Note_off_c, 0, 74, 64
2, 2160, Note_on_c, 0, 73, 64
2, 2220, Note_off_c, 0, 73, 64
2, 2220, Note_on_c, 0, 69, 64
2, 2280, Note_off_c, 0, 69, 64
2, 2280, Note_on_c, 0, 73, 64
2, 2340, Note_off_c, 0, 73, 64
2, 2340, Note_on_c, 0, 76, 64
2, 2400, Note_off_c, 0, 76, 64
2, 2400, Note_on_c, 0, 81, 64
2, 2460, Note_off_c, 0, 81, 64
2, 2460, Note_on_c, 0, 78, 64
2, 2520, Note_off_c, 0, 78, 64
2, 2520, Note_on_c, 0, 75, 64
2, 2580, Note_off_c, 0, 75, 64
2, 2580, Note_on_c, 0, 71, 64
2, 2640, Note_off_c, 0, 71, 64
2, 2640, Note_on_c, 0, 75, 64
2, 2700, Note_off_c, 0, 75, 64
2, 2700, Note_on_c, 0, 78, 64
2, 2760, Note_off_c, 0, 78, 64
2, 2760, Note_on_c, 0, 81, 64
2, 2820, Note_off_c, 0, 81, 64
2, 2820, Note_on_c, 0, 78, 64
2, 2880, Note_off_c, 0, 78, 64
2, 2880, Note_on_c, 0, 80, 64
2, 2940, Note_off_c, 0, 80, 64
2, 2940, Note_on_c, 0, 81, 64
2, 3000, Note_off_c, 0, 81, 64
2, 3000, Note_on_c, 0, 80, 64
2, 3060, Note_off_c, 0, 80, 64
2, 3060, Note_on_c, 0, 78, 64
2, 3120, Note_off_c, 0, 78, 64
2, 3120, Note_on_c, 0, 76, 64
2, 3180, Note_off_c, 0, 76, 64
2, 3180, Note_on_c, 0, 75, 64
2, 3240, Note_off_c, 0, 75, 64
2, 3240, Note_on_c, 0, 73, 64
2, 3300, Note_off_c, 0, 73, 64
2, 3300, Note_on_c, 0, 75, 64
2, 3360, Note_off_c, 0, 75, 64
2, 3360, Note_on_c, 0, 76, 64
2, 3420, Note_off_c, 0, 76, 64
2, 3420, Note_on_c, 0, 75, 64
2, 3480, Note_off_c, 0, 75, 64
2, 3480, Note_on_c, 0, 73, 64
2, 3540, Note_off_c, 0, 73, 64
2, 3540, Note_on_c, 0, 71, 64
2, 3600, Note_off_c, 0, 71, 64
2, 3600, Note_on_c, 0, 69, 64
2, 3660, Note_off_c, 0, 69, 64
2, 3660, Note_on_c, 0, 73, 64
2, 3720, Note_off_c, 0, 73, 64
2, 3720, Note_on_c, 0, 76, 64
2, 3780, Note_off_c, 0, 76, 64
2, 3780, Note_on_c, 0, 73, 64
2, 3840, Note_off_c, 0, 73, 64
2, 3840, Note_on_c, 0, 69, 64
2, 3900, Note_off_c, 0, 69, 64
2, 3900, Note_on_c, 0, 73, 64
2, 3960, Note_off_c, 0, 73, 64
2, 3960, Note_on_c, 0, 66, 64
2, 4020, Note_off_c, 0, 66, 64
2, 4020, Note_on_c, 0, 69, 64
2, 4080, Note_off_c, 0, 69, 64
2, 4080, Note_on_c, 0, 73, 64
2, 4140, Note_off_c, 0, 73, 64
2, 4140, Note_on_c, 0, 69, 64
2, 4200, Note_off_c, 0, 69, 64
2, 4200, Note_on_c, 0, 66, 64
2, 4260, Note_off_c, 0, 66, 64
2, 4260, Note_on_c, 0, 69, 64
2, 4320, Note_off_c, 0, 69, 64
2, 4320, Note_on_c, 0, 63, 64
2, 4440, Note_off_c, 0, 63, 64
2, 4440, Note_on_c, 0, 66, 64
2, 4560, Note_off_c, 0, 66, 64
2, 4560, Note_on_c, 0, 63, 64
2, 4680, Note_off_c, 0, 63, 64
2, 4680, Note_on_c, 0, 59, 64
2, 4740, Note_off_c, 0, 59, 64
2, 4740, Note_on_c, 0, 63, 64
2, 4800, Note_off_c, 0, 63, 64
2, 4800, Note_on_c, 0, 66, 64
2, 4860, Note_off_c, 0, 66, 64
2, 4860, Note_on_c, 0, 69, 64
2, 4920, Note_off_c, 0, 69, 64
2, 4920, Note_on_c, 0, 68, 64
2, 4980, Note_off_c, 0, 68, 64
2, 4980, Note_on_c, 0, 66, 64
2, 5040, Note_off_c, 0, 66, 64
2, 5040, Note_on_c, 0, 64, 64
2, 5100, Note_off_c, 0, 64, 64
2, 5100, Note_on_c, 0, 68, 64
2, 5160, Note_off_c, 0, 68, 64
2, 5160, Note_on_c, 0, 71, 64
2, 5220, Note_off_c, 0, 71, 64
2, 5220, Note_on_c, 0, 76, 64
2, 5280, Note_off_c, 0, 76, 64
2, 5280, Note_on_c, 0, 71, 64
2, 5340, Note_off_c, 0, 71, 64
2, 5340, Note_on_c, 0, 68, 64
2, 5400, Note_off_c, 0, 68, 64
2, 5400, Note_on_c, 0, 64, 64
2, 5640, Note_off_c, 0, 64, 64
2, 5760, Note_on_c, 0, 76, 64
2, 5790, Note_off_c, 0, 76, 64
2, 5790, Note_on_c, 0, 75, 56
2, 5820, Note_off_c, 0, 75, 64
2, 5820, Note_on_c, 0, 76, 64
2, 5990, Note_off_c, 0, 76, 64
2, 6000, Note_on_c, 0, 76, 64
2, 6120, Note_off_c, 0, 76, 64
2, 6120, Note_on_c, 0, 76, 64
2, 6150, Note_off_c, 0, 76, 64
2, 6150, Note_on_c, 0, 75, 56
2, 6180, Note_off_c, 0, 75, 64
2, 6180, Note_on_c, 0, 76, 64
2, 6350, Note_off_c, 0, 76, 64
2, 6360, Note_on_c, 0, 76, 64
2, 6480, Note_off_c, 0, 76, 64
2, 6480, Note_on_c, 0, 76, 64
2, 6540, Note_off_c, 0, 76, 64
2, 6540, Note_on_c, 0, 81, 64
2, 6600, Note_off_c, 0, 81, 64
2, 6600, Note_on_c, 0, 76, 64
2, 6660, Note_off_c, 0, 76, 64
2, 6660, Note_on_c, 0, 73, 64
2, 6720, Note_off_c, 0, 73, 64
2, 6720, Note_on_c, 0, 69, 64
2, 6780, Note_off_c, 0, 69, 64
2, 6780, Note_on_c, 0, 73, 64
2, 6840, Note_off_c, 0, 73, 64
2, 6840, Note_on_c, 0, 76, 64
2, 6900, Note_off_c, 0, 76, 64
2, 6900, Note_on_c, 0, 81, 64
2, 6960, Note_off_c, 0, 81, 64
2, 6960, Note_on_c, 0, 76, 64
2, 7020, Note_off_c, 0, 76, 64
2, 7020, Note_on_c, 0, 73, 64
2, 7080, Note_off_c, 0, 73, 64
2, 7080, Note_on_c, 0, 69, 64
2, 7140, Note_off_c, 0, 69, 64
2, 7140, Note_on_c, 0, 73, 64
2, 7200, Note_off_c, 0, 73, 64
2, 7200, Note_on_c, 0, 74, 64
2, 7230, Note_off_c, 0, 74, 64
2, 7230, Note_on_c, 0, 73, 56
2, 7260, Note_off_c, 0, 73, 64
2, 7260, Note_on_c, 0, 74, 64
2, 7430, Note_off_c, 0, 74, 64
2, 7440, Note_on_c, 0, 74, 64
2, 7560, Note_off_c, 0, 74, 64
2, 7560, Note_on_c, 0, 74, 64
2, 7590, Note_off_c, 0, 74, 64
2, 7590, Note_on_c, 0, 73, 56
2, 7620, Note_off_c, 0, 73, 64
2, 7620, Note_on_c, 0, 74, 64
2, 7790, Note_off_c, 0, 74, 64
2, 7800, Note_on_c, 0, 74, 64
2, 7920, Note_off_c, 0, 74, 64
2, 7920, Note_on_c, 0, 74, 64
2, 7980, Note_off_c, 0, 74, 64
2, 7980, Note_on_c, 0, 83, 64
2, 8040, Note_off_c, 0, 83, 64
2, 8040, Note_on_c, 0, 80, 64
2, 8100, Note_off_c, 0, 80, 64
2, 8100, Note_on_c, 0, 74, 64
2, 8160, Note_off_c, 0, 74, 64
2, 8160, Note_on_c, 0, 71, 64
2, 8220, Note_off_c, 0, 71, 64
2, 8220, Note_on_c, 0, 74, 64
2, 8280, Note_off_c, 0, 74, 64
2, 8280, Note_on_c, 0, 80, 64
2, 8340, Note_off_c, 0, 80, 64
2, 8340, Note_on_c, 0, 83, 64
2, 8400, Note_off_c, 0, 83, 64
2, 8400, Note_on_c, 0, 80, 64
2, 8460, Note_off_c, 0, 80, 64
2, 8460, Note_on_c, 0, 74, 64
2, 8520, Note_off_c, 0, 74, 64
2, 8520, Note_on_c, 0, 71, 64
2, 8580, Note_off_c, 0, 71, 64
2, 8580, Note_on_c, 0, 74, 64
2, 8640, Note_off_c, 0, 74, 64
2, 8640, Note_on_c, 0, 73, 64
2, 8760, Note_off_c, 0, 73, 64
2, 9060, Note_on_c, 0, 62, 64
2, 9120, Note_off_c, 0, 62, 64
2, 9120, Note_on_c, 0, 66, 64
2, 9180, Note_off_c, 0, 66, 64
2, 9180, Note_on_c, 0, 69, 64
2, 9240, Note_off_c, 0, 69, 64
2, 9240, Note_on_c, 0, 74, 64
2, 9300, Note_off_c, 0, 74, 64
2, 9300, Note_on_c, 0, 73, 64
2, 9360, Note_off_c, 0, 73, 64
2, 9360, Note_on_c, 0, 71, 64
2, 9480, Note_off_c, 0, 71, 64
2, 9780, Note_on_c, 0, 61, 64
2, 9840, Note_off_c, 0, 61, 64
2, 9840, Note_on_c, 0, 65, 64
2, 9900, Note_off_c, 0, 65, 64
2, 9900, Note_on_c, 0, 68, 64
2, 9960, Note_off_c, 0, 68, 64
2, 9960, Note_on_c, 0, 73, 64
2, 10020, Note_off_c, 0, 73, 64
2, 10020, Note_on_c, 0, 71, 64
2, 10080, Note_off_c, 0, 71, 64
2, 10080, Note_on_c, 0, 69, 64
2, 10200, Note_off_c, 0, 69, 64
2, 10500, Note_on_c, 0, 59, 64
2, 10560, Note_off_c, 0, 59, 64
2, 10560, Note_on_c, 0, 62, 64
2, 10620, Note_off_c, 0, 62, 64
2, 10620, Note_on_c, 0, 66, 64
2, 10680, Note_off_c, 0, 66, 64
2, 10680, Note_on_c, 0, 71, 64
2, 10740, Note_off_c, 0, 71, 64
2, 10740, Note_on_c, 0, 69, 64
2, 10800, Note_off_c, 0, 69, 64
2, 10800, Note_on_c, 0, 68, 64
2, 10860, Note_off_c, 0, 68, 64
2, 10860, Note_on_c, 0, 66, 64
2, 10920, Note_off_c, 0, 66, 64
2, 10920, Note_on_c, 0, 71, 64
2, 10980, Note_off_c, 0, 71, 64
2, 10980, Note_on_c, 0, 69, 64
2, 11040, Note_off_c, 0, 69, 64
2, 11040, Note_on_c, 0, 68, 64
2, 11100, Note_off_c, 0, 68, 64
2, 11100, Note_on_c, 0, 66, 64
2, 11160, Note_off_c, 0, 66, 64
2, 11160, Note_on_c, 0, 65, 64
2, 11220, Note_off_c, 0, 65, 64
2, 11220, Note_on_c, 0, 68, 64
2, 11280, Note_off_c, 0, 68, 64
2, 11280, Note_on_c, 0, 73, 64
2, 11340, Note_off_c, 0, 73, 64
2, 11340, Note_on_c, 0, 71, 64
2, 11400, Note_off_c, 0, 71, 64
2, 11400, Note_on_c, 0, 69, 64
2, 11460, Note_off_c, 0, 69, 64
2, 11460, Note_on_c, 0, 68, 64
2, 11520, Note_off_c, 0, 68, 64
2, 11520, Note_on_c, 0, 66, 64
2, 11640, Note_off_c, 0, 66, 64
2, 11640, Note_on_c, 0, 78, 64
2, 11760, Note_off_c, 0, 78, 64
2, 11760, Note_on_c, 0, 66, 64
2, 11880, Note_off_c, 0, 66, 64
2, 11880, Note_on_c, 0, 66, 64
2, 12000, Note_off_c, 0, 66, 64
2, 12000, Note_on_c, 0, 61, 64
2, 12120, Note_off_c, 0, 61, 64
2, 12120, Note_on_c, 0, 66, 64
2, 12240, Note_off_c, 0, 66, 64
2, 12240, Note_on_c, 0, 68, 64
2, 12280, Note_off_c, 0, 68, 64
2, 12280, Note_on_c, 0, 66, 64
2, 12320, Note_off_c, 0, 66, 64
2, 12320, Note_on_c, 0, 68, 56
2, 12360, Note_on_c, 0, 69, 56
2, 12364, Note_off_c, 0, 68, 64
2, 12400, Note_on_c, 0, 68, 57
2, 12404, Note_off_c, 0, 69, 64
2, 12440, Note_on_c, 0, 69, 57
2, 12444, Note_off_c, 0, 68, 64
2, 12480, Note_on_c, 0, 68, 58
2, 12484, Note_off_c, 0, 69, 64
2, 12520, Note_on_c, 0, 69, 58
2, 12524, Note_off_c, 0, 68, 64
2, 12560, Note_on_c, 0, 68, 59
2, 12564, Note_off_c, 0, 69, 64
2, 12600, Note_on_c, 0, 69, 59
2, 12604, Note_off_c, 0, 68, 64
2, 12640, Note_on_c, 0, 68, 60
2, 12644, Note_off_c, 0, 69, 64
2, 12680, Note_on_c, 0, 69, 60
2, 12684, Note_off_c, 0, 68, 64
2, 12720, Note_on_c, 0, 68, 61
2, 12724, Note_off_c, 0, 69, 64
2, 12760, Note_on_c, 0, 69, 61
2, 12764, Note_off_c, 0, 68, 64
2, 12800, Note_on_c, 0, 68, 62
2, 12804, Note_off_c, 0, 69, 64
2, 12840, Note_on_c, 0, 69, 62
2, 12844, Note_off_c, 0, 68, 64
2, 12880, Note_on_c, 0, 68, 63
2, 12884, Note_off_c, 0, 69, 64
2, 12920, Note_on_c, 0, 69, 63
2, 12924, Note_off_c, 0, 68, 64
2, 12960, Note_on_c, 0, 68, 64
2, 12964, Note_off_c, 0, 69, 64
2, 13020, Note_off_c, 0, 68, 64
2, 13020, Note_on_c, 0, 66, 64
2, 13080, Note_off_c, 0, 66, 64
2, 13080, Note_on_c, 0, 65, 64
2, 13140, Note_off_c, 0, 65, 64
2, 13140, Note_on_c, 0, 66, 64
2, 13200, Note_off_c, 0, 66, 64
2, 13200, Note_on_c, 0, 68, 64
2, 13260, Note_off_c, 0, 68, 64
2, 13260, Note_on_c, 0, 69, 64
2, 13320, Note_off_c, 0, 69, 64
2, 13320, Note_on_c, 0, 71, 64
2, 13380, Note_off_c, 0, 71, 64
2, 13380, Note_on_c, 0, 69, 64
2, 13440, Note_off_c, 0, 69, 64
2, 13440, Note_on_c, 0, 71, 64
2, 13500, Note_off_c, 0, 71, 64
2, 13500, Note_on_c, 0, 74, 64
2, 13560, Note_off_c, 0, 74, 64
2, 13560, Note_on_c, 0, 73, 64
2, 13620, Note_off_c, 0, 73, 64
2, 13620, Note_on_c, 0, 71, 64
2, 13680, Note_off_c, 0, 71, 64
2, 13680, Note_on_c, 0, 69, 64
2, 13740, Note_off_c, 0, 69, 64
2, 13740, Note_on_c, 0, 66, 64
2, 13800, Note_off_c, 0, 66, 64
2, 13800, Note_on_c, 0, 69, 64
2, 13860, Note_off_c, 0, 69, 64
2, 13860, Note_on_c, 0, 73, 64
2, 13920, Note_off_c, 0, 73, 64
2, 13920, Note_on_c, 0, 78, 64
2, 13980, Note_off_c, 0, 78, 64
2, 13980, Note_on_c, 0, 75, 64
2, 14040, Note_off_c, 0, 75, 64
2, 14040, Note_on_c, 0, 72, 64
2, 14100, Note_off_c, 0, 72, 64
2, 14100, Note_on_c, 0, 68, 64
2, 14160, Note_off_c, 0, 68, 64
2, 14160, Note_on_c, 0, 72, 64
2, 14220, Note_off_c, 0, 72, 64
2, 14220, Note_on_c, 0, 75, 64
2, 14280, Note_off_c, 0, 75, 64
2, 14280, Note_on_c, 0, 78, 64
2, 14340, Note_off_c, 0, 78, 64
2, 14340, Note_on_c, 0, 75, 64
2, 14400, Note_off_c, 0, 75, 64
2, 14400, Note_on_c, 0, 76, 64
2, 14460, Note_off_c, 0, 76, 64
2, 14460, Note_on_c, 0, 78, 64
2, 14520, Note_off_c, 0, 78, 64
2, 14520, Note_on_c, 0, 76, 64
2, 14580, Note_off_c, 0, 76, 64
2, 14580, Note_on_c, 0, 75, 64
2, 14640, Note_off_c, 0, 75, 64
2, 14640, Note_on_c, 0, 73, 64
2, 14700, Note_off_c, 0, 73, 64
2, 14700, Note_on_c, 0, 71, 64
2, 14760, Note_off_c, 0, 71, 64
2, 14760, Note_on_c, 0, 69, 64
2, 14820, Note_off_c, 0, 69, 64
2, 14820, Note_on_c, 0, 71, 64
2, 14880, Note_off_c, 0, 71, 64
2, 14880, Note_on_c, 0, 73, 64
2, 14940, Note_off_c, 0, 73, 64
2, 14940, Note_on_c, 0, 71, 64
2, 15000, Note_off_c, 0, 71, 64
2, 15000, Note_on_c, 0, 69, 64
2, 15060, Note_off_c, 0, 69, 64
2, 15060, Note_on_c, 0, 68, 64
2, 15120, Note_off_c, 0, 68, 64
2, 15120, Note_on_c, 0, 66, 64
2, 15180, Note_off_c, 0, 66, 64
2, 15180, Note_on_c, 0, 69, 64
2, 15240, Note_off_c, 0, 69, 64
2, 15240, Note_on_c, 0, 73, 64
2, 15300, Note_off_c, 0, 73, 64
2, 15300, Note_on_c, 0, 69, 64
2, 15360, Note_off_c, 0, 69, 64
2, 15360, Note_on_c, 0, 66, 64
2, 15420, Note_off_c, 0, 66, 64
2, 15420, Note_on_c, 0, 69, 64
2, 15480, Note_off_c, 0, 69, 64
2, 15480, Note_on_c, 0, 63, 64
2, 15540, Note_off_c, 0, 63, 64
2, 15540, Note_on_c, 0, 66, 64
2, 15600, Note_off_c, 0, 66, 64
2, 15600, Note_on_c, 0, 69, 64
2, 15660, Note_off_c, 0, 69, 64
2, 15660, Note_on_c, 0, 66, 64
2, 15720, Note_off_c, 0, 66, 64
2, 15720, Note_on_c, 0, 63, 64
2, 15780, Note_off_c, 0, 63, 64
2, 15780, Note_on_c, 0, 66, 64
2, 15840, Note_off_c, 0, 66, 64
2, 15840, Note_on_c, 0, 60, 64
2, 15960, Note_off_c, 0, 60, 64
2, 15960, Note_on_c, 0, 63, 64
2, 16080, Note_off_c, 0, 63, 64
2, 16080, Note_on_c, 0, 66, 64
2, 16200, Note_off_c, 0, 66, 64
2, 16200, Note_on_c, 0, 69, 64
2, 16320, Note_off_c, 0, 69, 64
2, 16320, Note_on_c, 0, 68, 64
2, 16440, Note_off_c, 0, 68, 64
2, 16440, Note_on_c, 0, 72, 64
2, 16560, Note_off_c, 0, 72, 64
2, 16560, Note_on_c, 0, 73, 64
2, 16620, Note_off_c, 0, 73, 64
2, 16620, Note_on_c, 0, 76, 64
2, 16680, Note_off_c, 0, 76, 64
2, 16680, Note_on_c, 0, 80, 64
2, 16740, Note_off_c, 0, 80, 64
2, 16740, Note_on_c, 0, 76, 64
2, 16800, Note_off_c, 0, 76, 64
2, 16800, Note_on_c, 0, 73, 64
2, 16860, Note_off_c, 0, 73, 64
2, 16860, Note_on_c, 0, 76, 64
2, 16920, Note_off_c, 0, 76, 64
2, 16920, Note_on_c, 0, 80, 64
2, 16980, Note_off_c, 0, 80, 64
2, 16980, Note_on_c, 0, 76, 64
2, 17040, Note_off_c, 0, 76, 64
2, 17040, Note_on_c, 0, 73, 64
2, 17100, Note_off_c, 0, 73, 64
2, 17100, Note_on_c, 0, 76, 64
2, 17160, Note_off_c, 0, 76, 64
2, 17160, Note_on_c, 0, 80, 64
2, 17220, Note_off_c, 0, 80, 64
2, 17220, Note_on_c, 0, 76, 64
2, 17280, Note_off_c, 0, 76, 64
2, 17280, Note_on_c, 0, 73, 64
2, 17340, Note_off_c, 0, 73, 64
2, 17340, Note_on_c, 0, 76, 64
2, 17400, Note_off_c, 0, 76, 64
2, 17400, Note_on_c, 0, 78, 64
2, 17460, Note_off_c, 0, 78, 64
2, 17460, Note_on_c, 0, 76, 64
2, 17520, Note_off_c, 0, 76, 64
2, 17520, Note_on_c, 0, 73, 64
2, 17580, Note_off_c, 0, 73, 64
2, 17580, Note_on_c, 0, 76, 64
2, 17640, Note_off_c, 0, 76, 64
2, 17640, Note_on_c, 0, 78, 64
2, 17700, Note_off_c, 0, 78, 64
2, 17700, Note_on_c, 0, 76, 64
2, 17760, Note_off_c, 0, 76, 64
2, 17760, Note_on_c, 0, 73, 64
2, 17820, Note_off_c, 0, 73, 64
2, 17820, Note_on_c, 0, 76, 64
2, 17880, Note_off_c, 0, 76, 64
2, 17880, Note_on_c, 0, 78, 64
2, 17940, Note_off_c, 0, 78, 64
2, 17940, Note_on_c, 0, 70, 64
2, 18000, Note_off_c, 0, 70, 64
2, 18000, Note_on_c, 0, 71, 64
2, 18060, Note_off_c, 0, 71, 64
2, 18060, Note_on_c, 0, 74, 64
2, 18120, Note_off_c, 0, 74, 64
2, 18120, Note_on_c, 0, 78, 64
2, 18180, Note_off_c, 0, 78, 64
2, 18180, Note_on_c, 0, 74, 64
2, 18240, Note_off_c, 0, 74, 64
2, 18240, Note_on_c, 0, 71, 64
2, 18300, Note_off_c, 0, 71, 64
2, 18300, Note_on_c, 0, 74, 64
2, 18360, Note_off_c, 0, 74, 64
2, 18360, Note_on_c, 0, 78, 64
2, 18420, Note_off_c, 0, 78, 64
2, 18420, Note_on_c, 0, 74, 64
2, 18480, Note_off_c, 0, 74, 64
2, 18480, Note_on_c, 0, 71, 64
2, 18540, Note_off_c, 0, 71, 64
2, 18540, Note_on_c, 0, 74, 64
2, 18600, Note_off_c, 0, 74, 64
2, 18600, Note_on_c, 0, 78, 64
2, 18660, Note_off_c, 0, 78, 64
2, 18660, Note_on_c, 0, 74, 64
2, 18720, Note_off_c, 0, 74, 64
2, 18720, Note_on_c, 0, 71, 64
2, 18780, Note_off_c, 0, 71, 64
2, 18780, Note_on_c, 0, 74, 64
2, 18840, Note_off_c, 0, 74, 64
2, 18840, Note_on_c, 0, 76, 64
2, 18900, Note_off_c, 0, 76, 64
2, 18900, Note_on_c, 0, 74, 64
2, 18960, Note_off_c, 0, 74, 64
2, 18960, Note_on_c, 0, 71, 64
2, 19020, Note_off_c, 0, 71, 64
2, 19020, Note_on_c, 0, 74, 64
2, 19080, Note_off_c, 0, 74, 64
2, 19080, Note_on_c, 0, 76, 64
2, 19140, Note_off_c, 0, 76, 64
2, 19140, Note_on_c, 0, 74, 64
2, 19200, Note_off_c, 0, 74, 64
2, 19200, Note_on_c, 0, 71, 64
2, 19260, Note_off_c, 0, 71, 64
2, 19260, Note_on_c, 0, 74, 64
2, 19320, Note_off_c, 0, 74, 64
2, 19320, Note_on_c, 0, 76, 64
2, 19380, Note_off_c, 0, 76, 64
2, 19380, Note_on_c, 0, 68, 64
2, 19440, Note_off_c, 0, 68, 64
2, 19440, Note_on_c, 0, 69, 64
2, 19470, Note_off_c, 0, 69, 64
2, 19470, Note_on_c, 0, 68, 56
2, 19500, Note_off_c, 0, 68, 64
2, 19500, Note_on_c, 0, 69, 64
2, 19670, Note_off_c, 0, 69, 64
2, 19680, Note_on_c, 0, 69, 64
2, 19800, Note_off_c, 0, 69, 64
2, 19800, Note_on_c, 0, 69, 64
2, 19830, Note_off_c, 0, 69, 64
2, 19830, Note_on_c, 0, 68, 56
2, 19860, Note_off_c, 0, 68, 64
2, 19860, Note_on_c, 0, 69, 64
2, 20030, Note_off_c, 0, 69, 64
2, 20040, Note_on_c, 0, 69, 64
2, 20160, Note_off_c, 0, 69, 64
2, 20160, Note_on_c, 0, 69, 64
2, 20220, Note_off_c, 0, 69, 64
2, 20220, Note_on_c, 0, 75, 64
2, 20280, Note_off_c, 0, 75, 64
2, 20280, Note_on_c, 0, 71, 64
2, 20340, Note_off_c, 0, 71, 64
2, 20340, Note_on_c, 0, 69, 64
2, 20400, Note_off_c, 0, 69, 64
2, 20400, Note_on_c, 0, 66, 64
2, 20460, Note_off_c, 0, 66, 64
2, 20460, Note_on_c, 0, 69, 64
2, 20520, Note_off_c, 0, 69, 64
2, 20520, Note_on_c, 0, 71, 64
2, 20580, Note_off_c, 0, 71, 64
2, 20580, Note_on_c, 0, 75, 64
2, 20640, Note_off_c, 0, 75, 64
2, 20640, Note_on_c, 0, 71, 64
2, 20700, Note_off_c, 0, 71, 64
2, 20700, Note_on_c, 0, 69, 64
2, 20760, Note_off_c, 0, 69, 64
2, 20760, Note_on_c, 0, 66, 64
2, 20820, Note_off_c, 0, 66, 64
2, 20820, Note_on_c, 0, 69, 64
2, 20880, Note_off_c, 0, 69, 64
2, 20880, Note_on_c, 0, 67, 64
2, 20910, Note_off_c, 0, 67, 64
2, 20910, Note_on_c, 0, 66, 56
2, 20940, Note_off_c, 0, 66, 64
2, 20940, Note_on_c, 0, 67, 64
2, 21110, Note_off_c, 0, 67, 64
2, 21120, Note_on_c, 0, 67, 64
2, 21240, Note_off_c, 0, 67, 64
2, 21240, Note_on_c, 0, 67, 64
2, 21270, Note_off_c, 0, 67, 64
2, 21270, Note_on_c, 0, 66, 56
2, 21300, Note_off_c, 0, 66, 64
2, 21300, Note_on_c, 0, 67, 64
2, 21470, Note_off_c, 0, 67, 64
2, 21480, Note_on_c, 0, 67, 64
2, 21600, Note_off_c, 0, 67, 64
2, 21600, Note_on_c, 0, 67, 64
2, 21660, Note_off_c, 0, 67, 64
2, 21660, Note_on_c, 0, 76, 64
2, 21720, Note_off_c, 0, 76, 64
2, 21720, Note_on_c, 0, 73, 64
2, 21780, Note_off_c, 0, 73, 64
2, 21780, Note_on_c, 0, 67, 64
2, 21840, Note_off_c, 0, 67, 64
2, 21840, Note_on_c, 0, 64, 64
2, 21900, Note_off_c, 0, 64, 64
2, 21900, Note_on_c, 0, 67, 64
2, 21960, Note_off_c, 0, 67, 64
2, 21960, Note_on_c, 0, 73, 64
2, 22020, Note_off_c, 0, 73, 64
2, 22020, Note_on_c, 0, 76, 64
2, 22080, Note_off_c, 0, 76, 64
2, 22080, Note_on_c, 0, 73, 64
2, 22140, Note_off_c, 0, 73, 64
2, 22140, Note_on_c, 0, 67, 64
2, 22200, Note_off_c, 0, 67, 64
2, 22200, Note_on_c, 0, 64, 64
2, 22260, Note_off_c, 0, 64, 64
2, 22260, Note_on_c, 0, 67, 64
2, 22320, Note_off_c, 0, 67, 64
2, 22320, Note_on_c, 0, 66, 64
2, 22440, Note_off_c, 0, 66, 64
2, 22740, Note_on_c, 0, 56, 64
2, 22800, Note_off_c, 0, 56, 64
2, 22800, Note_on_c, 0, 59, 64
2, 22860, Note_off_c, 0, 59, 64
2, 22860, Note_on_c, 0, 62, 64
2, 22920, Note_off_c, 0, 62, 64
2, 22920, Note_on_c, 0, 68, 64
2, 22980, Note_off_c, 0, 68, 64
2, 22980, Note_on_c, 0, 66, 64
2, 23040, Note_off_c, 0, 66, 64
2, 23040, Note_on_c, 0, 64, 64
2, 23160, Note_off_c, 0, 64, 64
2, 23460, Note_on_c, 0, 54, 64
2, 23520, Note_off_c, 0, 54, 64
2, 23520, Note_on_c, 0, 57, 64
2, 23580, Note_off_c, 0, 57, 64
2, 23580, Note_on_c, 0, 61, 64
2, 23640, Note_off_c, 0, 61, 64
2, 23640, Note_on_c, 0, 66, 64
2, 23700, Note_off_c, 0, 66, 64
2, 23700, Note_on_c, 0, 64, 64
2, 23760, Note_off_c, 0, 64, 64
2, 23760, Note_on_c, 0, 62, 64
2, 23880, Note_off_c, 0, 62, 64
2, 24180, Note_on_c, 0, 52, 64
2, 24240, Note_off_c, 0, 52, 64
2, 24240, Note_on_c, 0, 56, 64
2, 24300, Note_off_c, 0, 56, 64
2, 24300, Note_on_c, 0, 59, 64
2, 24360, Note_off_c, 0, 59, 64
2, 24360, Note_on_c, 0, 64, 64
2, 24420, Note_off_c, 0, 64, 64
2, 24420, Note_on_c, 0, 62, 64
2, 24480, Note_off_c, 0, 62, 64
2, 24480, Note_on_c, 0, 61, 64
2, 24540, Note_off_c, 0, 61, 64
2, 24540, Note_on_c, 0, 57, 64
2, 24600, Note_off_c, 0, 57, 64
2, 24600, Note_on_c, 0, 61, 64
2, 24660, Note_off_c, 0, 61, 64
2, 24660, Note_on_c, 0, 64, 64
2, 24720, Note_off_c, 0, 64, 64
2, 24720, Note_on_c, 0, 69, 64
2, 24780, Note_off_c, 0, 69, 64
2, 24780, Note_on_c, 0, 64, 64
2, 24840, Note_off_c, 0, 64, 64
2, 24840, Note_on_c, 0, 73, 64
2, 24900, Note_off_c, 0, 73, 64
2, 24900, Note_on_c, 0, 69, 64
2, 24960, Note_off_c, 0, 69, 64
2, 24960, Note_on_c, 0, 73, 64
2, 25020, Note_off_c, 0, 73, 64
2, 25020, Note_on_c, 0, 76, 64
2, 25080, Note_off_c, 0, 76, 64
2, 25080, Note_on_c, 0, 81, 64
2, 25140, Note_off_c, 0, 81, 64
2, 25140, Note_on_c, 0, 73, 64
2, 25200, Note_off_c, 0, 73, 64
2, 25200, Note_on_c, 0, 74, 64
2, 25260, Note_off_c, 0, 74, 64
2, 25260, Note_on_c, 0, 78, 64
2, 25320, Note_off_c, 0, 78, 64
2, 25320, Note_on_c, 0, 81, 64
2, 25380, Note_off_c, 0, 81, 64
2, 25380, Note_on_c, 0, 78, 64
2, 25440, Note_off_c, 0, 78, 64
2, 25440, Note_on_c, 0, 74, 64
2, 25500, Note_off_c, 0, 74, 64
2, 25500, Note_on_c, 0, 78, 64
2, 25560, Note_off_c, 0, 78, 64
2, 25560, Note_on_c, 0, 71, 64
2, 25620, Note_off_c, 0, 71, 64
2, 25620, Note_on_c, 0, 74, 64
2, 25680, Note_off_c, 0, 74, 64
2, 25680, Note_on_c, 0, 78, 64
2, 25740, Note_off_c, 0, 78, 64
2, 25740, Note_on_c, 0, 74, 64
2, 25800, Note_off_c, 0, 74, 64
2, 25800, Note_on_c, 0, 71, 64
2, 25860, Note_off_c, 0, 71, 64
2, 25860, Note_on_c, 0, 74, 64
2, 25920, Note_off_c, 0, 74, 64
2, 25920, Note_on_c, 0, 68, 64
2, 26040, Note_off_c, 0, 68, 64
2, 26040, Note_on_c, 0, 71, 64
2, 26160, Note_off_c, 0, 71, 64
2, 26160, Note_on_c, 0, 74, 64
2, 26280, Note_off_c, 0, 74, 64
2, 26280, Note_on_c, 0, 78, 64
2, 26400, Note_off_c, 0, 78, 64
2, 26400, Note_on_c, 0, 76, 64
2, 26520, Note_off_c, 0, 76, 64
2, 26520, Note_on_c, 0, 71, 64
2, 26640, Note_off_c, 0, 71, 64
2, 26640, Note_on_c, 0, 78, 64
2, 26760, Note_off_c, 0, 78, 64
2, 26760, Note_on_c, 0, 76, 64
2, 26880, Note_off_c, 0, 76, 64
2, 26880, Note_on_c, 0, 69, 64
2, 27000, Note_off_c, 0, 69, 64
2, 27000, Note_on_c, 0, 76, 64
2, 27120, Note_off_c, 0, 76, 64
2, 27120, Note_on_c, 0, 74, 64
2, 27240, Note_off_c, 0, 74, 64
2, 27240, Note_on_c, 0, 68, 64
2, 27360, Note_off_c, 0, 68, 64
2, 27360, Note_on_c, 0, 74, 64
2, 27480, Note_off_c, 0, 74, 64
2, 27480, Note_on_c, 0, 73, 64
2, 27600, Note_off_c, 0, 73, 64
2, 27600, Note_on_c, 0, 64, 64
2, 27720, Note_off_c, 0, 64, 64
2, 27720, Note_on_c, 0, 66, 64
2, 27780, Note_off_c, 0, 66, 64
2, 27780, Note_on_c, 0, 68, 64
2, 27840, Note_off_c, 0, 68, 64
2, 27840, Note_on_c, 0, 69, 64
2, 27900, Note_off_c, 0, 69, 64
2, 27900, Note_on_c, 0, 71, 64
2, 27960, Note_off_c, 0, 71, 64
2, 27960, Note_on_c, 0, 73, 64
2, 28020, Note_off_c, 0, 73, 64
2, 28020, Note_on_c, 0, 74, 64
2, 28080, Note_off_c, 0, 74, 64
2, 28080, Note_on_c, 0, 68, 64
2, 28140, Note_off_c, 0, 68, 64
2, 28140, Note_on_c, 0, 64, 64
2, 28200, Note_off_c, 0, 64, 64
2, 28200, Note_on_c, 0, 68, 64
2, 28260, Note_off_c, 0, 68, 64
2, 28260, Note_on_c, 0, 71, 64
2, 28320, Note_off_c, 0, 71, 64
2, 28320, Note_on_c, 0, 76, 64
2, 28380, Note_off_c, 0, 76, 64
2, 28380, Note_on_c, 0, 71, 64
2, 28440, Note_off_c, 0, 71, 64
2, 28440, Note_on_c, 0, 80, 64
2, 28500, Note_off_c, 0, 80, 64
2, 28500, Note_on_c, 0, 76, 64
2, 28560, Note_off_c, 0, 76, 64
2, 28560, Note_on_c, 0, 83, 64
2, 28620, Note_off_c, 0, 83, 64
2, 28620, Note_on_c, 0, 80, 64
2, 28680, Note_off_c, 0, 80, 64
2, 28680, Note_on_c, 0, 76, 64
2, 28740, Note_off_c, 0, 76, 64
2, 28740, Note_on_c, 0, 80, 64
2, 28800, Note_off_c, 0, 80, 64
2, 28800, Note_on_c, 0, 81, 64
2, 28920, Note_off_c, 0, 81, 64
2, 28920, Note_on_c, 0, 76, 64
2, 29040, Note_off_c, 0, 76, 64
2, 29040, Note_on_c, 0, 73, 64
2, 29160, Note_off_c, 0, 73, 64
2, 29160, Note_on_c, 0, 69, 64
2, 29220, Note_off_c, 0, 69, 64
2, 29220, Note_on_c, 0, 74, 64
2, 29280, Note_off_c, 0, 74, 64
2, 29280, Note_on_c, 0, 73, 64
2, 29340, Note_off_c, 0, 73, 64
2, 29340, Note_on_c, 0, 71, 64
2, 29400, Note_off_c, 0, 71, 64
2, 29400, Note_on_c, 0, 76, 64
2, 29580, Note_off_c, 0, 76, 64
2, 29580, Note_on_c, 0, 78, 64
2, 29640, Note_off_c, 0, 78, 64
2, 29640, Note_on_c, 0, 73, 64
2, 29760, Note_off_c, 0, 73, 64
2, 29760, Note_on_c, 0, 71, 64
2, 29820, Note_off_c, 0, 71, 64
2, 29820, Note_on_c, 0, 69, 64
2, 29880, Note_off_c, 0, 69, 64
2, 29880, Note_on_c, 0, 69, 64
2, 30240, Note_off_c, 0, 69, 64
2, 30240, End_track
3, 0, Start_track
3, 0, Text_t, "LH"
3, 0, Note_on_c, 1, 57, 64
3, 60, Note_off_c, 1, 57, 64
3, 60, Note_on_c, 1, 59, 64
3, 120, Note_off_c, 1, 59, 64
3, 120, Note_on_c, 1, 61, 64
3, 180, Note_off_c, 1, 61, 64
3, 180, Note_on_c, 1, 59, 64
3, 240, Note_off_c, 1, 59, 64
3, 240, Note_on_c, 1, 57, 64
3, 300, Note_off_c, 1, 57, 64
3, 300, Note_on_c, 1, 56, 64
3, 360, Note_off_c, 1, 56, 64
3, 360, Note_on_c, 1, 54, 64
3, 420, Note_off_c, 1, 54, 64
3, 420, Note_on_c, 1, 56, 64
3, 480, Note_off_c, 1, 56, 64
3, 480, Note_on_c, 1, 57, 64
3, 540, Note_off_c, 1, 57, 64
3, 540, Note_on_c, 1, 56, 64
3, 600, Note_off_c, 1, 56, 64
3, 600, Note_on_c, 1, 54, 64
3, 660, Note_off_c, 1, 54, 64
3, 660, Note_on_c, 1, 52, 64
3, 720, Note_off_c, 1, 52, 64
3, 720, Note_on_c, 1, 50, 64
3, 780, Note_off_c, 1, 50, 64
3, 780, Note_on_c, 1, 54, 64
3, 840, Note_off_c, 1, 54, 64
3, 840, Note_on_c, 1, 57, 64
3, 900, Note_off_c, 1, 57, 64
3, 900, Note_on_c, 1, 54, 64
3, 960, Note_off_c, 1, 54, 64
3, 960, Note_on_c, 1, 50, 64
3, 1020, Note_off_c, 1, 50, 64
3, 1020, Note_on_c, 1, 54, 64
3, 1080, Note_off_c, 1, 54, 64
3, 1080, Note_on_c, 1, 47, 64
3, 1140, Note_off_c, 1, 47, 64
3, 1140, Note_on_c, 1, 50, 64
3, 1200, Note_off_c, 1, 50, 64
3, 1200, Note_on_c, 1, 54, 64
3, 1260, Note_off_c, 1, 54, 64
3, 1260, Note_on_c, 1, 50, 64
3, 1320, Note_off_c, 1, 50, 64
3, 1320, Note_on_c, 1, 47, 64
3, 1380, Note_off_c, 1, 47, 64
3, 1380, Note_on_c, 1, 50, 64
3, 1440, Note_off_c, 1, 50, 64
3, 1440, Note_on_c, 1, 44, 64
3, 1560, Note_off_c, 1, 44, 64
3, 1560, Note_on_c, 1, 47, 64
3, 1680, Note_off_c, 1, 47, 64
3, 1680, Note_on_c, 1, 44, 64
3, 1800, Note_off_c, 1, 44, 64
3, 1800, Note_on_c, 1, 40, 64
3, 1920, Note_off_c, 1, 40, 64
3, 1920, Note_on_c, 1, 42, 64
3, 2040, Note_off_c, 1, 42, 64
3, 2040, Note_on_c, 1, 44, 64
3, 2160, Note_off_c, 1, 44, 64
3, 2160, Note_on_c, 1, 45, 64
3, 2400, Note_off_c, 1, 45, 64
3, 2880, Note_on_c, 1, 52, 64
3, 2910, Note_off_c, 1, 52, 64
3, 2910, Note_on_c, 1, 51, 56
3, 2940, Note_off_c, 1, 51, 64
3, 2940, Note_on_c, 1, 52, 64
3, 3110, Note_off_c, 1, 52, 64
3, 3120, Note_on_c, 1, 52, 64
3, 3240, Note_off_c, 1, 52, 64
3, 3240, Note_on_c, 1, 52, 64
3, 3270, Note_off_c, 1, 52, 64
3, 3270, Note_on_c, 1, 51, 56
3, 3300, Note_off_c, 1, 51, 64
3, 3300, Note_on_c, 1, 52, 64
3, 3470, Note_off_c, 1, 52, 64
3, 3480, Note_on_c, 1, 52, 64
3, 3600, Note_off_c, 1, 52, 64
3, 3600, Note_on_c, 1, 54, 64
3, 3640, Note_off_c, 1, 54, 64
3, 3640, Note_on_c, 1, 52, 48
3, 3680, Note_on_c, 1, 54, 49
3, 3688, Note_off_c, 1, 52, 64
3, 3720, Note_on_c, 1, 56, 50
3, 3728, Note_off_c, 1, 54, 64
3, 3760, Note_on_c, 1, 54, 51
3, 3768, Note_off_c, 1, 56, 64
3, 3800, Note_on_c, 1, 56, 52
3, 3808, Note_off_c, 1, 54, 64
3, 3840, Note_on_c, 1, 54, 52
3, 3848, Note_off_c, 1, 56, 64
3, 3880, Note_on_c, 1, 56, 53
3, 3888, Note_off_c, 1, 54, 64
3, 3920, Note_on_c, 1, 54, 54
3, 3928, Note_off_c, 1, 56, 64
3, 3960, Note_on_c, 1, 56, 55
3, 3968, Note_off_c, 1, 54, 64
3, 4000, Note_on_c, 1, 54, 56
3, 4008, Note_off_c, 1, 56, 64
3, 4040, Note_on_c, 1, 56, 57
3, 4048, Note_off_c, 1, 54, 64
3, 4080, Note_on_c, 1, 54, 58
3, 4088, Note_off_c, 1, 56, 64
3, 4120, Note_on_c, 1, 56, 59
3, 4128, Note_off_c, 1, 54, 64
3, 4160, Note_on_c, 1, 54, 60
3, 4168, Note_off_c, 1, 56, 64
3, 4200, Note_on_c, 1, 56, 61
3, 4208, Note_off_c, 1, 54, 64
3, 4240, Note_on_c, 1, 54, 62
3, 4248, Note_off_c, 1, 56, 64
3, 4280, Note_on_c, 1, 56, 63
3, 4288, Note_off_c, 1, 54, 64
3, 4320, Note_on_c, 1, 54, 64
3, 4328, Note_off_c, 1, 56, 64
3, 4380, Note_off_c, 1, 54, 64
3, 4380, Note_on_c, 1, 52, 64
3, 4440, Note_off_c, 1, 52, 64
3, 4440, Note_on_c, 1, 51, 64
3, 4500, Note_off_c, 1, 51, 64
3, 4500, Note_on_c, 1, 52, 64
3, 4560, Note_off_c, 1, 52, 64
3, 4560, Note_on_c, 1, 54, 64
3, 4620, Note_off_c, 1, 54, 64
3, 4620, Note_on_c, 1, 56, 64
3, 4680, Note_off_c, 1, 56, 64
3, 4680, Note_on_c, 1, 57, 64
3, 4740, Note_off_c, 1, 57, 64
3, 4740, Note_on_c, 1, 56, 64
3, 4800, Note_off_c, 1, 56, 64
3, 4800, Note_on_c, 1, 57, 64
3, 4860, Note_off_c, 1, 57, 64
3, 4860, Note_on_c, 1, 61, 64
3, 4920, Note_off_c, 1, 61, 64
3, 4920, Note_on_c, 1, 59, 64
3, 4980, Note_off_c, 1, 59, 64
3, 4980, Note_on_c, 1, 57, 64
3, 5040, Note_off_c, 1, 57, 64
3, 5040, Note_on_c, 1, 56, 64
3, 5100, Note_off_c, 1, 56, 64
3, 5100, Note_on_c, 1, 52, 64
3, 5160, Note_off_c, 1, 52, 64
3, 5160, Note_on_c, 1, 56, 64
3, 5220, Note_off_c, 1, 56, 64
3, 5220, Note_on_c, 1, 59, 64
3, 5280, Note_off_c, 1, 59, 64
3, 5280, Note_on_c, 1, 64, 64
3, 5340, Note_off_c, 1, 64, 64
3, 5340, Note_on_c, 1, 59, 64
3, 5400, Note_off_c, 1, 59, 64
3, 5400, Note_on_c, 1, 56, 64
3, 5460, Note_off_c, 1, 56, 64
3, 5460, Note_on_c, 1, 52, 64
3, 5520, Note_off_c, 1, 52, 64
3, 5520, Note_on_c, 1, 56, 64
3, 5580, Note_off_c, 1, 56, 64
3, 5580, Note_on_c, 1, 59, 64
3, 5640, Note_off_c, 1, 59, 64
3, 5640, Note_on_c, 1, 62, 64
3, 5700, Note_off_c, 1, 62, 64
3, 5700, Note_on_c, 1, 59, 64
3, 5760, Note_off_c, 1, 59, 64
3, 5760, Note_on_c, 1, 61, 64
3, 5820, Note_off_c, 1, 61, 64
3, 5820, Note_on_c, 1, 62, 64
3, 5880, Note_off_c, 1, 62, 64
3, 5880, Note_on_c, 1, 64, 64
3, 5940, Note_off_c, 1, 64, 64
3, 5940, Note_on_c, 1, 62, 64
3, 6000, Note_off_c, 1, 62, 64
3, 6000, Note_on_c, 1, 61, 64
3, 6060, Note_off_c, 1, 61, 64
3, 6060, Note_on_c, 1, 59, 64
3, 6120, Note_off_c, 1, 59, 64
3, 6120, Note_on_c, 1, 57, 64
3, 6180, Note_off_c, 1, 57, 64
3, 6180, Note_on_c, 1, 59, 64
3, 6240, Note_off_c, 1, 59, 64
3, 6240, Note_on_c, 1, 61, 64
3, 6300, Note_off_c, 1, 61, 64
3, 6300, Note_on_c, 1, 59, 64
3, 6360, Note_off_c, 1, 59, 64
3, 6360, Note_on_c, 1, 57, 64
3, 6420, Note_off_c, 1, 57, 64
3, 6420, Note_on_c, 1, 56, 64
3, 6480, Note_off_c, 1, 56, 64
3, 6480, Note_on_c, 1, 54, 64
3, 6600, Note_off_c, 1, 54, 64
3, 6600, Note_on_c, 1, 66, 64
3, 6720, Note_off_c, 1, 66, 64
3, 6720, Note_on_c, 1, 61, 64
3, 6840, Note_off_c, 1, 61, 64
3, 6840, Note_on_c, 1, 57, 64
3, 6960, Note_off_c, 1, 57, 64
3, 6960, Note_on_c, 1, 54, 64
3, 7080, Note_off_c, 1, 54, 64
3, 7080, Note_on_c, 1, 57, 64
3, 7200, Note_off_c, 1, 57, 64
3, 7200, Note_on_c, 1, 59, 64
3, 7260, Note_off_c, 1, 59, 64
3, 7260, Note_on_c, 1, 61, 64
3, 7320, Note_off_c, 1, 61, 64
3, 7320, Note_on_c, 1, 62, 64
3, 7380, Note_off_c, 1, 62, 64
3, 7380, Note_on_c, 1, 61, 64
3, 7440, Note_off_c, 1, 61, 64
3, 7440, Note_on_c, 1, 59, 64
3, 7500, Note_off_c, 1, 59, 64
3, 7500, Note_on_c, 1, 57, 64
3, 7560, Note_off_c, 1, 57, 64
3, 7560, Note_on_c, 1, 56, 64
3, 7620, Note_off_c, 1, 56, 64
3, 7620, Note_on_c, 1, 57, 64
3, 7680, Note_off_c, 1, 57, 64
3, 7680, Note_on_c, 1, 59, 64
3, 7740, Note_off_c, 1, 59, 64
3, 7740, Note_on_c, 1, 57, 64
3, 7800, Note_off_c, 1, 57, 64
3, 7800, Note_on_c, 1, 56, 64
3, 7860, Note_off_c, 1, 56, 64
3, 7860, Note_on_c, 1, 54, 64
3, 7920, Note_off_c, 1, 54, 64
3, 7920, Note_on_c, 1, 52, 64
3, 8040, Note_off_c, 1, 52, 64
3, 8040, Note_on_c, 1, 47, 64
3, 8160, Note_off_c, 1, 47, 64
3, 8160, Note_on_c, 1, 44, 64
3, 8280, Note_off_c, 1, 44, 64
3, 8280, Note_on_c, 1, 40, 64
3, 8520, Note_off_c, 1, 40, 64
3, 8700, Note_on_c, 1, 57, 64
3, 8760, Note_off_c, 1, 57, 64
3, 8760, Note_on_c, 1, 61, 64
3, 8820, Note_off_c, 1, 61, 64
3, 8820, Note_on_c, 1, 64, 64
3, 8880, Note_off_c, 1, 64, 64
3, 8880, Note_on_c, 1, 69, 64
3, 8940, Note_off_c, 1, 69, 64
3, 8940, Note_on_c, 1, 68, 64
3, 9000, Note_off_c, 1, 68, 64
3, 9000, Note_on_c, 1, 66, 64
3, 9120, Note_off_c, 1, 66, 64
3, 9420, Note_on_c, 1, 56, 64
3, 9480, Note_off_c, 1, 56, 64
3, 9480, Note_on_c, 1, 59, 64
3, 9540, Note_off_c, 1, 59, 64
3, 9540, Note_on_c, 1, 63, 64
3, 9600, Note_off_c, 1, 63, 64
3, 9600, Note_on_c, 1, 68, 64
3, 9660, Note_off_c, 1, 68, 64
3, 9660, Note_on_c, 1, 66, 64
3, 9720, Note_off_c, 1, 66, 64
3, 9720, Note_on_c, 1, 65, 64
3, 9840, Note_off_c, 1, 65, 64
3, 10140, Note_on_c, 1, 54, 64
3, 10200, Note_off_c, 1, 54, 64
3, 10200, Note_on_c, 1, 57, 64
3, 10260, Note_off_c, 1, 57, 64
3, 10260, Note_on_c, 1, 61, 64
3, 10320, Note_off_c, 1, 61, 64
3, 10320, Note_on_c, 1, 66, 64
3, 10380, Note_off_c, 1, 66, 64
3, 10380, Note_on_c, 1, 64, 64
3, 10440, Note_off_c, 1, 64, 64
3, 10440, Note_on_c, 1, 62, 64
3, 10560, Note_off_c, 1, 62, 64
3, 10860, Note_on_c, 1, 47, 64
3, 10920, Note_off_c, 1, 47, 64
3, 10920, Note_on_c, 1, 50, 64
3, 10980, Note_off_c, 1, 50, 64
3, 10980, Note_on_c, 1, 54, 64
3, 11040, Note_off_c, 1, 54, 64
3, 11040, Note_on_c, 1, 59, 64
3, 11100, Note_off_c, 1, 59, 64
3, 11100, Note_on_c, 1, 57, 64
3, 11160, Note_off_c, 1, 57, 64
3, 11160, Note_on_c, 1, 56, 64
3, 11220, Note_off_c, 1, 56, 64
3, 11220, Note_on_c, 1, 49, 64
3, 11280, Note_off_c, 1, 49, 64
3, 11280, Note_on_c, 1, 53, 64
3, 11340, Note_off_c, 1, 53, 64
3, 11340, Note_on_c, 1, 56, 64
3, 11400, Note_off_c, 1, 56, 64
3, 11400, Note_on_c, 1, 61, 64
3, 11460, Note_off_c, 1, 61, 64
3, 11460, Note_on_c, 1, 59, 64
3, 11520, Note_off_c, 1, 59, 64
3, 11520, Note_on_c, 1, 57, 64
3, 11580, Note_off_c, 1, 57, 64
3, 11580, Note_on_c, 1, 59, 64
3, 11640, Note_off_c, 1, 59, 64
3, 11640, Note_on_c, 1, 57, 64
3, 11700, Note_off_c, 1, 57, 64
3, 11700, Note_on_c, 1, 56, 64
3, 11760, Note_off_c, 1, 56, 64
3, 11760, Note_on_c, 1, 54, 64
3, 11820, Note_off_c, 1, 54, 64
3, 11820, Note_on_c, 1, 52, 64
3, 11880, Note_off_c, 1, 52, 64
3, 11880, Note_on_c, 1, 50, 64
3, 11940, Note_off_c, 1, 50, 64
3, 11940, Note_on_c, 1, 52, 64
3, 12000, Note_off_c, 1, 52, 64
3, 12000, Note_on_c, 1, 54, 64
3, 12060, Note_off_c, 1, 54, 64
3, 12060, Note_on_c, 1, 52, 64
3, 12120, Note_off_c, 1, 52, 64
3, 12120, Note_on_c, 1, 50, 64
3, 12180, Note_off_c, 1, 50, 64
3, 12180, Note_on_c, 1, 49, 64
3, 12240, Note_off_c, 1, 49, 64
3, 12240, Note_on_c, 1, 47, 64
3, 12300, Note_off_c, 1, 47, 64
3, 12300, Note_on_c, 1, 50, 64
3, 12360, Note_off_c, 1, 50, 64
3, 12360, Note_on_c, 1, 54, 64
3, 12420, Note_off_c, 1, 54, 64
3, 12420, Note_on_c, 1, 50, 64
3, 12480, Note_off_c, 1, 50, 64
3, 12480, Note_on_c, 1, 47, 64
3, 12540, Note_off_c, 1, 47, 64
3, 12540, Note_on_c, 1, 50, 64
3, 12600, Note_off_c, 1, 50, 64
3, 12600, Note_on_c, 1, 44, 64
3, 12660, Note_off_c, 1, 44, 64
3, 12660, Note_on_c, 1, 47, 64
3, 12720, Note_off_c, 1, 47, 64
3, 12720, Note_on_c, 1, 50, 64
3, 12780, Note_off_c, 1, 50, 64
3, 12780, Note_on_c, 1, 47, 64
3, 12840, Note_off_c, 1, 47, 64
3, 12840, Note_on_c, 1, 44, 64
3, 12900, Note_off_c, 1, 44, 64
3, 12900, Note_on_c, 1, 47, 64
3, 12960, Note_off_c, 1, 47, 64
3, 12960, Note_on_c, 1, 41, 64
3, 13080, Note_off_c, 1, 41, 64
3, 13080, Note_on_c, 1, 44, 64
3, 13200, Note_off_c, 1, 44, 64
3, 13200, Note_on_c, 1, 41, 64
3, 13320, Note_off_c, 1, 41, 64
3, 13320, Note_on_c, 1, 37, 64
3, 13440, Note_off_c, 1, 37, 64
3, 13440, Note_on_c, 1, 39, 64
3, 13560, Note_off_c, 1, 39, 64
3, 13560, Note_on_c, 1, 41, 64
3, 13680, Note_off_c, 1, 41, 64
3, 13680, Note_on_c, 1, 42, 64
3, 13800, Note_off_c, 1, 42, 64
3, 13800, Note_on_c, 1, 54, 64
3, 13920, Note_off_c, 1, 54, 64
3, 13920, Note_on_c, 1, 51, 64
3, 14040, Note_off_c, 1, 51, 64
3, 14040, Note_on_c, 1, 56, 64
3, 14160, Note_off_c, 1, 56, 64
3, 14160, Note_on_c, 1, 54, 64
3, 14280, Note_off_c, 1, 54, 64
3, 14280, Note_on_c, 1, 56, 64
3, 14400, Note_off_c, 1, 56, 64
3, 14400, Note_on_c, 1, 49, 64
3, 14430, Note_off_c, 1, 49, 64
3, 14430, Note_on_c, 1, 48, 56
3, 14460, Note_off_c, 1, 48, 64
3, 14460, Note_on_c, 1, 49, 64
3, 14630, Note_off_c, 1, 49, 64
3, 14640, Note_on_c, 1, 49, 64
3, 14760, Note_off_c, 1, 49, 64
3, 14760, Note_on_c, 1, 49, 64
3, 14790, Note_off_c, 1, 49, 64
3, 14790, Note_on_c, 1, 48, 56
3, 14820, Note_off_c, 1, 48, 64
3, 14820, Note_on_c, 1, 49, 64
3, 14990, Note_off_c, 1, 49, 64
3, 15000, Note_on_c, 1, 49, 64
3, 15120, Note_off_c, 1, 49, 64
3, 15120, Note_on_c, 1, 51, 64
3, 15160, Note_off_c, 1, 51, 64
3, 15160, Note_on_c, 1, 49, 56
3, 15200, Note_off_c, 1, 49, 64
3, 15200, Note_on_c, 1, 51, 56
3, 15240, Note_on_c, 1, 52, 57
3, 15244, Note_off_c, 1, 51, 64
3, 15280, Note_on_c, 1, 51, 57
3, 15284, Note_off_c, 1, 52, 64
3, 15320, Note_on_c, 1, 52, 58
3, 15324, Note_off_c, 1, 51, 64
3, 15360, Note_on_c, 1, 51, 58
3, 15364, Note_off_c, 1, 52, 64
3, 15400, Note_on_c, 1, 52, 58
3, 15404, Note_off_c, 1, 51, 64
3, 15440, Note_on_c, 1, 51, 59
3, 15444, Note_off_c, 1, 52, 64
3, 15480, Note_on_c, 1, 52, 59
3, 15484, Note_off_c, 1, 51, 64
3, 15520, Note_on_c, 1, 51, 60
3, 15524, Note_off_c, 1, 52, 64
3, 15560, Note_on_c, 1, 52, 60
3, 15564, Note_off_c, 1, 51, 64
3, 15600, Note_on_c, 1, 51, 61
3, 15604, Note_off_c, 1, 52, 64
3, 15640, Note_on_c, 1, 52, 61
3, 15644, Note_off_c, 1, 51, 64
3, 15680, Note_on_c, 1, 51, 62
3, 15684, Note_off_c, 1, 52, 64
3, 15720, Note_on_c, 1, 52, 62
3, 15724, Note_off_c, 1, 51, 64
3, 15760, Note_on_c, 1, 51, 63
3, 15764, Note_off_c, 1, 52, 64
3, 15800, Note_on_c, 1, 52, 63
3, 15804, Note_off_c, 1, 51, 64
3, 15840, Note_on_c, 1, 51, 64
3, 15844, Note_off_c, 1, 52, 64
3, 15900, Note_off_c, 1, 51, 64
3, 15900, Note_on_c, 1, 49, 64
3, 15960, Note_off_c, 1, 49, 64
3, 15960, Note_on_c, 1, 48, 64
3, 16020, Note_off_c, 1, 48, 64
3, 16020, Note_on_c, 1, 49, 64
3, 16080, Note_off_c, 1, 49, 64
3, 16080, Note_on_c, 1, 51, 64
3, 16140, Note_off_c, 1, 51, 64
3, 16140, Note_on_c, 1, 52, 64
3, 16200, Note_off_c, 1, 52, 64
3, 16200, Note_on_c, 1, 54, 64
3, 16260, Note_off_c, 1, 54, 64
3, 16260, Note_on_c, 1, 52, 64
3, 16320, Note_off_c, 1, 52, 64
3, 16320, Note_on_c, 1, 54, 64
3, 16380, Note_off_c, 1, 54, 64
3, 16380, Note_on_c, 1, 57, 64
3, 16440, Note_off_c, 1, 57, 64
3, 16440, Note_on_c, 1, 56, 64
3, 16500, Note_off_c, 1, 56, 64
3, 16500, Note_on_c, 1, 54, 64
3, 16560, Note_off_c, 1, 54, 64
3, 16560, Note_on_c, 1, 52, 64
3, 16620, Note_off_c, 1, 52, 64
3, 16620, Note_on_c, 1, 49, 64
3, 16680, Note_off_c, 1, 49, 64
3, 16680, Note_on_c, 1, 52, 64
3, 16740, Note_off_c, 1, 52, 64
3, 16740, Note_on_c, 1, 56, 64
3, 16800, Note_off_c, 1, 56, 64
3, 16800, Note_on_c, 1, 61, 64
3, 16860, Note_off_c, 1, 61, 64
3, 16860, Note_on_c, 1, 56, 64
3, 16920, Note_off_c, 1, 56, 64
3, 16920, Note_on_c, 1, 52, 64
3, 16980, Note_off_c, 1, 52, 64
3, 16980, Note_on_c, 1, 49, 64
3, 17040, Note_off_c, 1, 49, 64
3, 17040, Note_on_c, 1, 52, 64
3, 17100, Note_off_c, 1, 52, 64
3, 17100, Note_on_c, 1, 56, 64
3, 17160, Note_off_c, 1, 56, 64
3, 17160, Note_on_c, 1, 61, 64
3, 17220, Note_off_c, 1, 61, 64
3, 17220, Note_on_c, 1, 59, 64
3, 17280, Note_off_c, 1, 59, 64
3, 17280, Note_on_c, 1, 58, 64
3, 17340, Note_off_c, 1, 58, 64
3, 17340, Note_on_c, 1, 54, 64
3, 17400, Note_off_c, 1, 54, 64
3, 17400, Note_on_c, 1, 58, 64
3, 17460, Note_off_c, 1, 58, 64
3, 17460, Note_on_c, 1, 61, 64
3, 17520, Note_off_c, 1, 61, 64
3, 17520, Note_on_c, 1, 66, 64
3, 17580, Note_off_c, 1, 66, 64
3, 17580, Note_on_c, 1, 61, 64
3, 17640, Note_off_c, 1, 61, 64
3, 17640, Note_on_c, 1, 58, 64
3, 17700, Note_off_c, 1, 58, 64
3, 17700, Note_on_c, 1, 54, 64
3, 17760, Note_off_c, 1, 54, 64
3, 17760, Note_on_c, 1, 58, 64
3, 17820, Note_off_c, 1, 58, 64
3, 17820, Note_on_c, 1, 61, 64
3, 17880, Note_off_c, 1, 61, 64
3, 17880, Note_on_c, 1, 66, 64
3, 17940, Note_off_c, 1, 66, 64
3, 17940, Note_on_c, 1, 64, 64
3, 18000, Note_off_c, 1, 64, 64
3, 18000, Note_on_c, 1, 63, 64
3, 18060, Note_off_c, 1, 63, 64
3, 18060, Note_on_c, 1, 47, 64
3, 18120, Note_off_c, 1, 47, 64
3, 18120, Note_on_c, 1, 50, 64
3, 18180, Note_off_c, 1, 50, 64
3, 18180, Note_on_c, 1, 54, 64
3, 18240, Note_off_c, 1, 54, 64
3, 18240, Note_on_c, 1, 59, 64
3, 18300, Note_off_c, 1, 59, 64
3, 18300, Note_on_c, 1, 54, 64
3, 18360, Note_off_c, 1, 54, 64
3, 18360, Note_on_c, 1, 50, 64
3, 18420, Note_off_c, 1, 50, 64
3, 18420, Note_on_c, 1, 47, 64
3, 18480, Note_off_c, 1, 47, 64
3, 18480, Note_on_c, 1, 50, 64
3, 18540, Note_off_c, 1, 50, 64
3, 18540, Note_on_c, 1, 54, 64
3, 18600, Note_off_c, 1, 54, 64
3, 18600, Note_on_c, 1, 59, 64
3, 18660, Note_off_c, 1, 59, 64
3, 18660, Note_on_c, 1, 57, 64
3, 18720, Note_off_c, 1, 57, 64
3, 18720, Note_on_c, 1, 56, 64
3, 18780, Note_off_c, 1, 56, 64
3, 18780, Note_on_c, 1, 52, 64
3, 18840, Note_off_c, 1, 52, 64
3, 18840, Note_on_c, 1, 56, 64
3, 18900, Note_off_c, 1, 56, 64
3, 18900, Note_on_c, 1, 59, 64
3, 18960, Note_off_c, 1, 59, 64
3, 18960, Note_on_c, 1, 64, 64
3, 19020, Note_off_c, 1, 64, 64
3, 19020, Note_on_c, 1, 59, 64
3, 19080, Note_off_c, 1, 59, 64
3, 19080, Note_on_c, 1, 56, 64
3, 19140, Note_off_c, 1, 56, 64
3, 19140, Note_on_c, 1, 52, 64
3, 19200, Note_off_c, 1, 52, 64
3, 19200, Note_on_c, 1, 56, 64
3, 19260, Note_off_c, 1, 56, 64
3, 19260, Note_on_c, 1, 59, 64
3, 19320, Note_off_c, 1, 59, 64
3, 19320, Note_on_c, 1, 64, 64
3, 19380, Note_off_c, 1, 64, 64
3, 19380, Note_on_c, 1, 62, 64
3, 19440, Note_off_c, 1, 62, 64
3, 19440, Note_on_c, 1, 61, 64
3, 19500, Note_off_c, 1, 61, 64
3, 19500, Note_on_c, 1, 62, 64
3, 19560, Note_off_c, 1, 62, 64
3, 19560, Note_on_c, 1, 64, 64
3, 19620, Note_off_c, 1, 64, 64
3, 19620, Note_on_c, 1, 62, 64
3, 19680, Note_off_c, 1, 62, 64
3, 19680, Note_on_c, 1, 61, 64
3, 19740, Note_off_c, 1, 61, 64
3, 19740, Note_on_c, 1, 59, 64
3, 19800, Note_off_c, 1, 59, 64
3, 19800, Note_on_c, 1, 57, 64
3, 19860, Note_off_c, 1, 57, 64
3, 19860, Note_on_c, 1, 59, 64
3, 19920, Note_off_c, 1, 59, 64
3, 19920, Note_on_c, 1, 61, 64
3, 19980, Note_off_c, 1, 61, 64
3, 19980, Note_on_c, 1, 59, 64
3, 20040, Note_off_c, 1, 59, 64
3, 20040, Note_on_c, 1, 57, 64
3, 20100, Note_off_c, 1, 57, 64
3, 20100, Note_on_c, 1, 56, 64
3, 20160, Note_off_c, 1, 56, 64
3, 20160, Note_on_c, 1, 54, 64
3, 20280, Note_off_c, 1, 54, 64
3, 20280, Note_on_c, 1, 57, 64
3, 20400, Note_off_c, 1, 57, 64
3, 20400, Note_on_c, 1, 63, 64
3, 20640, Note_off_c, 1, 63, 64
3, 20640, Note_on_c, 1, 61, 64
3, 20760, Note_off_c, 1, 61, 64
3, 20760, Note_on_c, 1, 59, 64
3, 20880, Note_off_c, 1, 59, 64
3, 20880, Note_on_c, 1, 64, 64
3, 20940, Note_off_c, 1, 64, 64
3, 20940, Note_on_c, 1, 66, 64
3, 21000, Note_off_c, 1, 66, 64
3, 21000, Note_on_c, 1, 67, 64
3, 21060, Note_off_c, 1, 67, 64
3, 21060, Note_on_c, 1, 66, 64
3, 21120, Note_off_c, 1, 66, 64
3, 21120, Note_on_c, 1, 64, 64
3, 21180, Note_off_c, 1, 64, 64
3, 21180, Note_on_c, 1, 62, 64
3, 21240, Note_off_c, 1, 62, 64
3, 21240, Note_on_c, 1, 61, 64
3, 21300, Note_off_c, 1, 61, 64
3, 21300, Note_on_c, 1, 62, 64
3, 21360, Note_off_c, 1, 62, 64
3, 21360, Note_on_c, 1, 64, 64
3, 21420, Note_off_c, 1, 64, 64
3, 21420, Note_on_c, 1, 62, 64
3, 21480, Note_off_c, 1, 62, 64
3, 21480, Note_on_c, 1, 61, 64
3, 21540, Note_off_c, 1, 61, 64
3, 21540, Note_on_c, 1, 59, 64
3, 21600, Note_off_c, 1, 59, 64
3, 21600, Note_on_c, 1, 57, 64
3, 21720, Note_off_c, 1, 57, 64
3, 21720, Note_on_c, 1, 52, 64
3, 21840, Note_off_c, 1, 52, 64
3, 21840, Note_on_c, 1, 49, 64
3, 21960, Note_off_c, 1, 49, 64
3, 21960, Note_on_c, 1, 45, 64
3, 22200, Note_off_c, 1, 45, 64
3, 22380, Note_on_c, 1, 50, 64
3, 22440, Note_off_c, 1, 50, 64
3, 22440, Note_on_c, 1, 54, 64
3, 22500, Note_off_c, 1, 54, 64
3, 22500, Note_on_c, 1, 57, 64
3, 22560, Note_off_c, 1, 57, 64
3, 22560, Note_on_c, 1, 62, 64
3, 22620, Note_off_c, 1, 62, 64
3, 22620, Note_on_c, 1, 61, 64
3, 22680, Note_off_c, 1, 61, 64
3, 22680, Note_on_c, 1, 59, 64
3, 22800, Note_off_c, 1, 59, 64
3, 23100, Note_on_c, 1, 49, 64
3, 23160, Note_off_c, 1, 49, 64
3, 23160, Note_on_c, 1, 52, 64
3, 23220, Note_off_c, 1, 52, 64
3, 23220, Note_on_c, 1, 56, 64
3, 23280, Note_off_c, 1, 56, 64
3, 23280, Note_on_c, 1, 61, 64
3, 23340, Note_off_c, 1, 61, 64
3, 23340, Note_on_c, 1, 59, 64
3, 23400, Note_off_c, 1, 59, 64
3, 23400, Note_on_c, 1, 57, 64
3, 23520, Note_off_c, 1, 57, 64
3, 23820, Note_on_c, 1, 47, 64
3, 23880, Note_off_c, 1, 47, 64
3, 23880, Note_on_c, 1, 50, 64
3, 23940, Note_off_c, 1, 50, 64
3, 23940, Note_on_c, 1, 54, 64
3, 24000, Note_off_c, 1, 54, 64
3, 24000, Note_on_c, 1, 59, 64
3, 24060, Note_off_c, 1, 59, 64
3, 24060, Note_on_c, 1, 57, 64
3, 24120, Note_off_c, 1, 57, 64
3, 24120, Note_on_c, 1, 56, 64
3, 24240, Note_off_c, 1, 56, 64
3, 24480, Note_on_c, 1, 45, 64
3, 24510, Note_off_c, 1, 45, 64
3, 24510, Note_on_c, 1, 44, 56
3, 24540, Note_off_c, 1, 44, 64
3, 24540, Note_on_c, 1, 45, 64
3, 24710, Note_off_c, 1, 45, 64
3, 24720, Note_on_c, 1, 45, 64
3, 24840, Note_off_c, 1, 45, 64
3, 24840, Note_on_c, 1, 45, 64
3, 24870, Note_off_c, 1, 45, 64
3, 24870, Note_on_c, 1, 44, 56
3, 24900, Note_off_c, 1, 44, 64
3, 24900, Note_on_c, 1, 45, 64
3, 25070, Note_off_c, 1, 45, 64
3, 25080, Note_on_c, 1, 45, 64
3, 25200, Note_off_c, 1, 45, 64
3, 25200, Note_on_c, 1, 47, 64
3, 25240, Note_off_c, 1, 47, 64
3, 25240, Note_on_c, 1, 45, 56
3, 25280, Note_off_c, 1, 45, 64
3, 25280, Note_on_c, 1, 47, 56
3, 25320, Note_off_c, 1, 47, 64
3, 25320, Note_on_c, 1, 49, 57
3, 25360, Note_off_c, 1, 49, 64
3, 25360, Note_on_c, 1, 47, 57
3, 25400, Note_off_c, 1, 47, 64
3, 25400, Note_on_c, 1, 49, 58
3, 25440, Note_off_c, 1, 49, 64
3, 25440, Note_on_c, 1, 47, 58
3, 25480, Note_off_c, 1, 47, 64
3, 25480, Note_on_c, 1, 49, 59
3, 25520, Note_off_c, 1, 49, 64
3, 25520, Note_on_c, 1, 47, 59
3, 25560, Note_off_c, 1, 47, 64
3, 25560, Note_on_c, 1, 49, 60
3, 25600, Note_off_c, 1, 49, 64
3, 25600, Note_on_c, 1, 47, 60
3, 25640, Note_off_c, 1, 47, 64
3, 25640, Note_on_c, 1, 49, 60
3, 25680, Note_off_c, 1, 49, 64
3, 25680, Note_on_c, 1, 47, 61
3, 25720, Note_off_c, 1, 47, 64
3, 25720, Note_on_c, 1, 49, 61
3, 25760, Note_off_c, 1, 49, 64
3, 25760, Note_on_c, 1, 47, 62
3, 25800, Note_off_c, 1, 47, 64
3, 25800, Note_on_c, 1, 49, 62
3, 25840, Note_off_c, 1, 49, 64
3, 25840, Note_on_c, 1, 47, 63
3, 25880, Note_off_c, 1, 47, 64
3, 25880, Note_on_c, 1, 49, 63
3, 25920, Note_off_c, 1, 49, 64
3, 25920, Note_on_c, 1, 47, 64
3, 25980, Note_off_c, 1, 47, 64
3, 25980, Note_on_c, 1, 45, 64
3, 26040, Note_off_c, 1, 45, 64
3, 26040, Note_on_c, 1, 44, 64
3, 26100, Note_off_c, 1, 44, 64
3, 26100, Note_on_c, 1, 45, 64
3, 26160, Note_off_c, 1, 45, 64
3, 26160, Note_on_c, 1, 47, 64
3, 26220, Note_off_c, 1, 47, 64
3, 26220, Note_on_c, 1, 49, 64
3, 26280, Note_off_c, 1, 49, 64
3, 26280, Note_on_c, 1, 50, 64
3, 26340, Note_off_c, 1, 50, 64
3, 26340, Note_on_c, 1, 49, 64
3, 26400, Note_off_c, 1, 49, 64
3, 26400, Note_on_c, 1, 50, 64
3, 26460, Note_off_c, 1, 50, 64
3, 26460, Note_on_c, 1, 54, 64
3, 26520, Note_off_c, 1, 54, 64
3, 26520, Note_on_c, 1, 52, 64
3, 26580, Note_off_c, 1, 52, 64
3, 26580, Note_on_c, 1, 50, 64
3, 26640, Note_off_c, 1, 50, 64
3, 26640, Note_on_c, 1, 49, 64
3, 26700, Note_off_c, 1, 49, 64
3, 26700, Note_on_c, 1, 47, 64
3, 26760, Note_off_c, 1, 47, 64
3, 26760, Note_on_c, 1, 49, 64
3, 26820, Note_off_c, 1, 49, 64
3, 26820, Note_on_c, 1, 52, 64
3, 26880, Note_off_c, 1, 52, 64
3, 26880, Note_on_c, 1, 50, 64
3, 26940, Note_off_c, 1, 50, 64
3, 26940, Note_on_c, 1, 49, 64
3, 27000, Note_off_c, 1, 49, 64
3, 27000, Note_on_c, 1, 47, 64
3, 27060, Note_off_c, 1, 47, 64
3, 27060, Note_on_c, 1, 45, 64
3, 27120, Note_off_c, 1, 45, 64
3, 27120, Note_on_c, 1, 47, 64
3, 27180, Note_off_c, 1, 47, 64
3, 27180, Note_on_c, 1, 50, 64
3, 27240, Note_off_c, 1, 50, 64
3, 27240, Note_on_c, 1, 49, 64
3, 27300, Note_off_c, 1, 49, 64
3, 27300, Note_on_c, 1, 47, 64
3, 27360, Note_off_c, 1, 47, 64
3, 27360, Note_on_c, 1, 45, 64
3, 27420, Note_off_c, 1, 45, 64
3, 27420, Note_on_c, 1, 44, 64
3, 27480, Note_off_c, 1, 44, 64
3, 27480, Note_on_c, 1, 45, 64
3, 27540, Note_off_c, 1, 45, 64
3, 27540, Note_on_c, 1, 47, 64
3, 27600, Note_off_c, 1, 47, 64
3, 27600, Note_on_c, 1, 49, 64
3, 27660, Note_off_c, 1, 49, 64
3, 27660, Note_on_c, 1, 45, 64
3, 27720, Note_off_c, 1, 45, 64
3, 27720, Note_on_c, 1, 50, 64
3, 27750, Note_off_c, 1, 50, 64
3, 27750, Note_on_c, 1, 49, 56
3, 27780, Note_off_c, 1, 49, 64
3, 27780, Note_on_c, 1, 50, 64
3, 27950, Note_off_c, 1, 50, 64
3, 27960, Note_on_c, 1, 50, 64
3, 28080, Note_off_c, 1, 50, 64
3, 28080, Note_on_c, 1, 49, 56
3, 28120, Note_off_c, 1, 49, 64
3, 28120, Note_on_c, 1, 50, 64
3, 28160, Note_off_c, 1, 50, 64
3, 28160, Note_on_c, 1, 52, 64
3, 28200, Note_off_c, 1, 52, 64
3, 28200, Note_on_c, 1, 50, 56
3, 28240, Note_off_c, 1, 50, 64
3, 28240, Note_on_c, 1, 52, 56
3, 28280, Note_off_c, 1, 52, 64
3, 28280, Note_on_c, 1, 50, 57
3, 28320, Note_off_c, 1, 50, 64
3, 28320, Note_on_c, 1, 52, 57
3, 28360, Note_off_c, 1, 52, 64
3, 28360, Note_on_c, 1, 50, 58
3, 28400, Note_off_c, 1, 50, 64
3, 28400, Note_on_c, 1, 52, 58
3, 28440, Note_off_c, 1, 52, 64
3, 28440, Note_on_c, 1, 50, 59
3, 28480, Note_off_c, 1, 50, 64
3, 28480, Note_on_c, 1, 52, 60
3, 28520, Note_off_c, 1, 52, 64
3, 28520, Note_on_c, 1, 50, 60
3, 28560, Note_off_c, 1, 50, 64
3, 28560, Note_on_c, 1, 52, 61
3, 28600, Note_off_c, 1, 52, 64
3, 28600, Note_on_c, 1, 50, 61
3, 28640, Note_off_c, 1, 50, 64
3, 28640, Note_on_c, 1, 52, 62
3, 28680, Note_off_c, 1, 52, 64
3, 28680, Note_on_c, 1, 50, 62
3, 28720, Note_off_c, 1, 50, 64
3, 28720, Note_on_c, 1, 52, 63
3, 28760, Note_off_c, 1, 52, 64
3, 28760, Note_on_c, 1, 50, 63
3, 28800, Note_off_c, 1, 50, 64
3, 28800, Note_on_c, 1, 49, 64
3, 28860, Note_off_c, 1, 49, 64
3, 28860, Note_on_c, 1, 50, 64
3, 28920, Note_off_c, 1, 50, 64
3, 28920, Note_on_c, 1, 49, 64
3, 28980, Note_off_c, 1, 49, 64
3, 28980, Note_on_c, 1, 47, 64
3, 29040, Note_off_c, 1, 47, 64
3, 29040, Note_on_c, 1, 45, 64
3, 29100, Note_off_c, 1, 45, 64
3, 29100, Note_on_c, 1, 44, 64
3, 29160, Note_off_c, 1, 44, 64
3, 29160, Note_on_c, 1, 42, 64
3, 29220, Note_off_c, 1, 42, 64
3, 29220, Note_on_c, 1, 54, 64
3, 29280, Note_off_c, 1, 54, 64
3, 29280, Note_on_c, 1, 52, 64
3, 29340, Note_off_c, 1, 52, 64
3, 29340, Note_on_c, 1, 50, 64
3, 29400, Note_off_c, 1, 50, 64
3, 29400, Note_on_c, 1, 49, 64
3, 29460, Note_off_c, 1, 49, 64
3, 29460, Note_on_c, 1, 47, 64
3, 29520, Note_off_c, 1, 47, 64
3, 29520, Note_on_c, 1, 49, 64
3, 29580, Note_off_c, 1, 49, 64
3, 29580, Note_on_c, 1, 50, 64
3, 29640, Note_off_c, 1, 50, 64
3, 29640, Note_on_c, 1, 52, 64
3, 29760, Note_off_c, 1, 52, 64
3, 29760, Note_on_c, 1, 40, 64
3, 29880, Note_off_c, 1, 40, 64
3, 29880, Note_on_c, 1, 45, 64
3, 30240, Note_off_c, 1, 45, 64
3, 30240, End_track
0, 0, End_of_file
