0, 0, Header, 1, 6, 120
1, 0, Start_track
1, 0, Time_signature, 3, 2, 24, 8
1, 0, Key_signature, -2, "major"
1, 0, Tempo, 375000
1, 0, End_track
2, 0, Start_track
2, 0, MIDI_port, 0
2, 0, Program_c, 0, 2
2, 0, Control_c, 0, 7, 125
2, 0, Control_c, 0, 10, 35
2, 20, Program_c, 0, 2
2, 28, Control_c, 0, 10, 34
2, 42, Control_c, 0, 7, 109
2, 120, Note_on_c, 0, 74, 80
2, 172, Note_on_c, 0, 74, 0
2, 180, Note_on_c, 0, 70, 80
2, 232, Note_on_c, 0, 70, 0
2, 240, Note_on_c, 0, 69, 80
2, 292, Note_on_c, 0, 69, 0
2, 300, Note_on_c, 0, 70, 80
2, 352, Note_on_c, 0, 70, 0
2, 360, Note_on_c, 0, 65, 80
2, 412, Note_on_c, 0, 65, 0
2, 420, Note_on_c, 0, 70, 80
2, 472, Note_on_c, 0, 70, 0
2, 480, Note_on_c, 0, 74, 80
2, 532, Note_on_c, 0, 74, 0
2, 540, Note_on_c, 0, 70, 80
2, 592, Note_on_c, 0, 70, 0
2, 600, Note_on_c, 0, 75, 80
2, 652, Note_on_c, 0, 75, 0
2, 660, Note_on_c, 0, 70, 80
2, 712, Note_on_c, 0, 70, 0
2, 720, Note_on_c, 0, 77, 80
2, 772, Note_on_c, 0, 77, 0
2, 780, Note_on_c, 0, 70, 80
2, 832, Note_on_c, 0, 70, 0
2, 840, Note_on_c, 0, 72, 80
2, 892, Note_on_c, 0, 72, 0
2, 900, Note_on_c, 0, 69, 80
2, 952, Note_on_c, 0, 69, 0
2, 960, Note_on_c, 0, 67, 80
2, 1012, Note_on_c, 0, 67, 0
2, 1020, Note_on_c, 0, 69, 80
2, 1072, Note_on_c, 0, 69, 0
2, 1080, Note_on_c, 0, 65, 80
2, 1132, Note_on_c, 0, 65, 0
2, 1140, Note_on_c, 0, 69, 80
2, 1192, Note_on_c, 0, 69, 0
2, 1200, Note_on_c, 0, 72, 80
2, 1252, Note_on_c, 0, 72, 0
2, 1260, Note_on_c, 0, 65, 80
2, 1312, Note_on_c, 0, 65, 0
2, 1320, Note_on_c, 0, 74, 80
2, 1372, Note_on_c, 0, 74, 0
2, 1380, Note_on_c, 0, 65, 80
2, 1432, Note_on_c, 0, 65, 0
2, 1440, Note_on_c, 0, 75, 80
2, 1492, Note_on_c, 0, 75, 0
2, 1500, Note_on_c, 0, 65, 80
2, 1552, Note_on_c, 0, 65, 0
2, 1560, Note_on_c, 0, 74, 80
2, 1612, Note_on_c, 0, 74, 0
2, 1620, Note_on_c, 0, 68, 80
2, 1672, Note_on_c, 0, 68, 0
2, 1680, Note_on_c, 0, 75, 80
2, 1732, Note_on_c, 0, 75, 0
2, 1740, Note_on_c, 0, 67, 80
2, 1792, Note_on_c, 0, 67, 0
2, 1800, Note_on_c, 0, 77, 80
2, 1852, Note_on_c, 0, 77, 0
2, 1860, Note_on_c, 0, 65, 80
2, 1912, Note_on_c, 0, 65, 0
2, 1920, Note_on_c, 0, 79, 80
2, 1972, Note_on_c, 0, 79, 0
2, 1980, Note_on_c, 0, 77, 80
2, 2032, Note_on_c, 0, 77, 0
2, 2040, Note_on_c, 0, 81, 80
2, 2092, Note_on_c, 0, 81, 0
2, 2100, Note_on_c, 0, 75, 80
2, 2152, Note_on_c, 0, 75, 0
2, 2160, Note_on_c, 0, 82, 80
2, 2212, Note_on_c, 0, 82, 0
2, 2220, Note_on_c, 0, 74, 80
2, 2272, Note_on_c, 0, 74, 0
2, 2280, Note_on_c, 0, 72, 80
2, 2332, Note_on_c, 0, 72, 0
2, 2340, Note_on_c, 0, 75, 80
2, 2392, Note_on_c, 0, 75, 0
2, 2400, Note_on_c, 0, 74, 80
2, 2452, Note_on_c, 0, 74, 0
2, 2460, Note_on_c, 0, 72, 80
2, 2512, Note_on_c, 0, 72, 0
2, 2520, Note_on_c, 0, 74, 80
2, 2572, Note_on_c, 0, 74, 0
2, 2580, Note_on_c, 0, 70, 80
2, 2632, Note_on_c, 0, 70, 0
2, 2640, Note_on_c, 0, 72, 80
2, 2692, Note_on_c, 0, 72, 0
2, 2700, Note_on_c, 0, 69, 80
2, 2752, Note_on_c, 0, 69, 0
2, 2760, Note_on_c, 0, 67, 80
2, 2812, Note_on_c, 0, 67, 0
2, 2820, Note_on_c, 0, 69, 80
2, 2872, Note_on_c, 0, 69, 0
2, 2880, Note_on_c, 0, 65, 80
2, 2932, Note_on_c, 0, 65, 0
2, 2940, Note_on_c, 0, 75, 80
2, 2992, Note_on_c, 0, 75, 0
2, 3000, Note_on_c, 0, 74, 80
2, 3052, Note_on_c, 0, 74, 0
2, 3060, Note_on_c, 0, 70, 80
2, 3112, Note_on_c, 0, 70, 0
2, 3120, Note_on_c, 0, 69, 80
2, 3172, Note_on_c, 0, 69, 0
2, 3180, Note_on_c, 0, 70, 80
2, 3232, Note_on_c, 0, 70, 0
2, 3240, Note_on_c, 0, 65, 80
2, 3292, Note_on_c, 0, 65, 0
2, 3300, Note_on_c, 0, 70, 80
2, 3352, Note_on_c, 0, 70, 0
2, 3360, Note_on_c, 0, 74, 80
2, 3412, Note_on_c, 0, 74, 0
2, 3420, Note_on_c, 0, 70, 80
2, 3472, Note_on_c, 0, 70, 0
2, 3480, Note_on_c, 0, 75, 80
2, 3532, Note_on_c, 0, 75, 0
2, 3540, Note_on_c, 0, 70, 80
2, 3592, Note_on_c, 0, 70, 0
2, 3600, Note_on_c, 0, 77, 80
2, 3652, Note_on_c, 0, 77, 0
2, 3660, Note_on_c, 0, 70, 80
2, 3712, Note_on_c, 0, 70, 0
2, 3720, Note_on_c, 0, 72, 80
2, 3772, Note_on_c, 0, 72, 0
2, 3780, Note_on_c, 0, 69, 80
2, 3832, Note_on_c, 0, 69, 0
2, 3840, Note_on_c, 0, 67, 80
2, 3892, Note_on_c, 0, 67, 0
2, 3900, Note_on_c, 0, 69, 80
2, 3952, Note_on_c, 0, 69, 0
2, 3960, Note_on_c, 0, 65, 80
2, 4012, Note_on_c, 0, 65, 0
2, 4020, Note_on_c, 0, 69, 80
2, 4072, Note_on_c, 0, 69, 0
2, 4080, Note_on_c, 0, 72, 80
2, 4132, Note_on_c, 0, 72, 0
2, 4140, Note_on_c, 0, 65, 80
2, 4192, Note_on_c, 0, 65, 0
2, 4200, Note_on_c, 0, 74, 80
2, 4252, Note_on_c, 0, 74, 0
2, 4260, Note_on_c, 0, 65, 80
2, 4312, Note_on_c, 0, 65, 0
2, 4320, Note_on_c, 0, 75, 80
2, 4372, Note_on_c, 0, 75, 0
2, 4380, Note_on_c, 0, 65, 80
2, 4432, Note_on_c, 0, 65, 0
2, 4440, Note_on_c, 0, 74, 80
2, 4492, Note_on_c, 0, 74, 0
2, 4500, Note_on_c, 0, 72, 80
2, 4552, Note_on_c, 0, 72, 0
2, 4560, Note_on_c, 0, 76, 80
2, 4612, Note_on_c, 0, 76, 0
2, 4620, Note_on_c, 0, 70, 80
2, 4672, Note_on_c, 0, 70, 0
2, 4680, Note_on_c, 0, 77, 80
2, 4732, Note_on_c, 0, 77, 0
2, 4740, Note_on_c, 0, 69, 80
2, 4792, Note_on_c, 0, 69, 0
2, 4800, Note_on_c, 0, 67, 80
2, 4852, Note_on_c, 0, 67, 0
2, 4860, Note_on_c, 0, 70, 80
2, 4912, Note_on_c, 0, 70, 0
2, 4920, Note_on_c, 0, 65, 80
2, 4972, Note_on_c, 0, 65, 0
2, 4980, Note_on_c, 0, 70, 80
2, 5032, Note_on_c, 0, 70, 0
2, 5040, Note_on_c, 0, 64, 80
2, 5092, Note_on_c, 0, 64, 0
2, 5100, Note_on_c, 0, 70, 80
2, 5152, Note_on_c, 0, 70, 0
2, 5160, Note_on_c, 0, 69, 80
2, 5212, Note_on_c, 0, 69, 0
2, 5220, Note_on_c, 0, 72, 80
2, 5272, Note_on_c, 0, 72, 0
2, 5280, Note_on_c, 0, 69, 80
2, 5332, Note_on_c, 0, 69, 0
2, 5340, Note_on_c, 0, 65, 80
2, 5392, Note_on_c, 0, 65, 0
2, 5400, Note_on_c, 0, 60, 80
2, 5452, Note_on_c, 0, 60, 0
2, 5460, Note_on_c, 0, 64, 80
2, 5512, Note_on_c, 0, 64, 0
2, 5520, Note_on_c, 0, 65, 80
2, 5685, Note_on_c, 0, 65, 0
2, 5688, Control_c, 0, 7, 119
2, 5689, Control_c, 0, 10, 90
2, 5690, Program_c, 0, 11
2, 5700, Note_on_c, 0, 67, 80
2, 5726, Note_on_c, 0, 67, 0
2, 5730, Note_on_c, 0, 69, 80
2, 5756, Note_on_c, 0, 69, 0
2, 5760, Note_on_c, 0, 70, 80
2, 5786, Note_on_c, 0, 70, 0
2, 5790, Note_on_c, 0, 69, 80
2, 5816, Note_on_c, 0, 69, 0
2, 5820, Note_on_c, 0, 70, 80
2, 5846, Note_on_c, 0, 70, 0
2, 5850, Note_on_c, 0, 72, 80
2, 5876, Note_on_c, 0, 72, 0
2, 5880, Note_on_c, 0, 74, 80
2, 5932, Note_on_c, 0, 74, 0
2, 5940, Note_on_c, 0, 70, 80
2, 5992, Note_on_c, 0, 70, 0
2, 6000, Note_on_c, 0, 69, 80
2, 6052, Note_on_c, 0, 69, 0
2, 6060, Note_on_c, 0, 70, 80
2, 6112, Note_on_c, 0, 70, 0
2, 6120, Note_on_c, 0, 65, 80
2, 6172, Note_on_c, 0, 65, 0
2, 6180, Note_on_c, 0, 70, 80
2, 6232, Note_on_c, 0, 70, 0
2, 6240, Note_on_c, 0, 74, 80
2, 6292, Note_on_c, 0, 74, 0
2, 6300, Note_on_c, 0, 70, 80
2, 6352, Note_on_c, 0, 70, 0
2, 6360, Note_on_c, 0, 75, 80
2, 6412, Note_on_c, 0, 75, 0
2, 6420, Note_on_c, 0, 70, 80
2, 6472, Note_on_c, 0, 70, 0
2, 6480, Note_on_c, 0, 77, 80
2, 6532, Note_on_c, 0, 77, 0
2, 6540, Note_on_c, 0, 70, 80
2, 6592, Note_on_c, 0, 70, 0
2, 6600, Note_on_c, 0, 72, 80
2, 6652, Note_on_c, 0, 72, 0
2, 6660, Note_on_c, 0, 69, 80
2, 6712, Note_on_c, 0, 69, 0
2, 6720, Note_on_c, 0, 67, 80
2, 6772, Note_on_c, 0, 67, 0
2, 6780, Note_on_c, 0, 69, 80
2, 6832, Note_on_c, 0, 69, 0
2, 6840, Note_on_c, 0, 65, 80
2, 6892, Note_on_c, 0, 65, 0
2, 6900, Note_on_c, 0, 69, 80
2, 6952, Note_on_c, 0, 69, 0
2, 6960, Note_on_c, 0, 72, 80
2, 7012, Note_on_c, 0, 72, 0
2, 7020, Note_on_c, 0, 65, 80
2, 7072, Note_on_c, 0, 65, 0
2, 7080, Note_on_c, 0, 74, 80
2, 7132, Note_on_c, 0, 74, 0
2, 7140, Note_on_c, 0, 65, 80
2, 7192, Note_on_c, 0, 65, 0
2, 7200, Note_on_c, 0, 75, 80
2, 7252, Note_on_c, 0, 75, 0
2, 7260, Note_on_c, 0, 65, 80
2, 7312, Note_on_c, 0, 65, 0
2, 7320, Note_on_c, 0, 74, 80
2, 7372, Note_on_c, 0, 74, 0
2, 7380, Note_on_c, 0, 68, 80
2, 7432, Note_on_c, 0, 68, 0
2, 7440, Note_on_c, 0, 75, 80
2, 7492, Note_on_c, 0, 75, 0
2, 7500, Note_on_c, 0, 67, 80
2, 7552, Note_on_c, 0, 67, 0
2, 7560, Note_on_c, 0, 77, 80
2, 7612, Note_on_c, 0, 77, 0
2, 7620, Note_on_c, 0, 65, 80
2, 7672, Note_on_c, 0, 65, 0
2, 7680, Note_on_c, 0, 79, 80
2, 7732, Note_on_c, 0, 79, 0
2, 7740, Note_on_c, 0, 77, 80
2, 7792, Note_on_c, 0, 77, 0
2, 7800, Note_on_c, 0, 81, 80
2, 7852, Note_on_c, 0, 81, 0
2, 7860, Note_on_c, 0, 75, 80
2, 7912, Note_on_c, 0, 75, 0
2, 7920, Note_on_c, 0, 82, 80
2, 7972, Note_on_c, 0, 82, 0
2, 7980, Note_on_c, 0, 74, 80
2, 8032, Note_on_c, 0, 74, 0
2, 8040, Note_on_c, 0, 72, 80
2, 8092, Note_on_c, 0, 72, 0
2, 8100, Note_on_c, 0, 75, 80
2, 8152, Note_on_c, 0, 75, 0
2, 8160, Note_on_c, 0, 74, 80
2, 8212, Note_on_c, 0, 74, 0
2, 8220, Note_on_c, 0, 72, 80
2, 8272, Note_on_c, 0, 72, 0
2, 8280, Note_on_c, 0, 74, 80
2, 8332, Note_on_c, 0, 74, 0
2, 8340, Note_on_c, 0, 70, 80
2, 8392, Note_on_c, 0, 70, 0
2, 8400, Note_on_c, 0, 72, 80
2, 8452, Note_on_c, 0, 72, 0
2, 8460, Note_on_c, 0, 69, 80
2, 8512, Note_on_c, 0, 69, 0
2, 8520, Note_on_c, 0, 67, 80
2, 8572, Note_on_c, 0, 67, 0
2, 8580, Note_on_c, 0, 69, 80
2, 8632, Note_on_c, 0, 69, 0
2, 8640, Note_on_c, 0, 65, 80
2, 8692, Note_on_c, 0, 65, 0
2, 8700, Note_on_c, 0, 75, 80
2, 8752, Note_on_c, 0, 75, 0
2, 8760, Note_on_c, 0, 74, 80
2, 8812, Note_on_c, 0, 74, 0
2, 8820, Note_on_c, 0, 70, 80
2, 8872, Note_on_c, 0, 70, 0
2, 8880, Note_on_c, 0, 69, 80
2, 8932, Note_on_c, 0, 69, 0
2, 8940, Note_on_c, 0, 70, 80
2, 8992, Note_on_c, 0, 70, 0
2, 9000, Note_on_c, 0, 65, 80
2, 9052, Note_on_c, 0, 65, 0
2, 9060, Note_on_c, 0, 70, 80
2, 9112, Note_on_c, 0, 70, 0
2, 9120, Note_on_c, 0, 74, 80
2, 9172, Note_on_c, 0, 74, 0
2, 9180, Note_on_c, 0, 70, 80
2, 9232, Note_on_c, 0, 70, 0
2, 9240, Note_on_c, 0, 75, 80
2, 9292, Note_on_c, 0, 75, 0
2, 9300, Note_on_c, 0, 70, 80
2, 9352, Note_on_c, 0, 70, 0
2, 9360, Note_on_c, 0, 77, 80
2, 9412, Note_on_c, 0, 77, 0
2, 9420, Note_on_c, 0, 70, 80
2, 9472, Note_on_c, 0, 70, 0
2, 9480, Note_on_c, 0, 72, 80
2, 9532, Note_on_c, 0, 72, 0
2, 9540, Note_on_c, 0, 69, 80
2, 9592, Note_on_c, 0, 69, 0
2, 9600, Note_on_c, 0, 67, 80
2, 9652, Note_on_c, 0, 67, 0
2, 9660, Note_on_c, 0, 69, 80
2, 9712, Note_on_c, 0, 69, 0
2, 9720, Note_on_c, 0, 65, 80
2, 9772, Note_on_c, 0, 65, 0
2, 9780, Note_on_c, 0, 69, 80
2, 9832, Note_on_c, 0, 69, 0
2, 9840, Note_on_c, 0, 72, 80
2, 9892, Note_on_c, 0, 72, 0
2, 9900, Note_on_c, 0, 65, 80
2, 9952, Note_on_c, 0, 65, 0
2, 9960, Note_on_c, 0, 74, 80
2, 10012, Note_on_c, 0, 74, 0
2, 10020, Note_on_c, 0, 65, 80
2, 10072, Note_on_c, 0, 65, 0
2, 10080, Note_on_c, 0, 75, 80
2, 10132, Note_on_c, 0, 75, 0
2, 10140, Note_on_c, 0, 65, 80
2, 10192, Note_on_c, 0, 65, 0
2, 10200, Note_on_c, 0, 74, 80
2, 10252, Note_on_c, 0, 74, 0
2, 10260, Note_on_c, 0, 72, 80
2, 10312, Note_on_c, 0, 72, 0
2, 10320, Note_on_c, 0, 76, 80
2, 10372, Note_on_c, 0, 76, 0
2, 10380, Note_on_c, 0, 70, 80
2, 10432, Note_on_c, 0, 70, 0
2, 10440, Note_on_c, 0, 77, 80
2, 10492, Note_on_c, 0, 77, 0
2, 10500, Note_on_c, 0, 69, 80
2, 10552, Note_on_c, 0, 69, 0
2, 10560, Note_on_c, 0, 67, 80
2, 10612, Note_on_c, 0, 67, 0
2, 10620, Note_on_c, 0, 70, 80
2, 10672, Note_on_c, 0, 70, 0
2, 10680, Note_on_c, 0, 65, 80
2, 10732, Note_on_c, 0, 65, 0
2, 10740, Note_on_c, 0, 70, 80
2, 10792, Note_on_c, 0, 70, 0
2, 10800, Note_on_c, 0, 64, 80
2, 10852, Note_on_c, 0, 64, 0
2, 10860, Note_on_c, 0, 70, 80
2, 10912, Note_on_c, 0, 70, 0
2, 10920, Note_on_c, 0, 69, 80
2, 10972, Note_on_c, 0, 69, 0
2, 10980, Note_on_c, 0, 72, 80
2, 11032, Note_on_c, 0, 72, 0
2, 11040, Note_on_c, 0, 69, 80
2, 11092, Note_on_c, 0, 69, 0
2, 11100, Note_on_c, 0, 65, 80
2, 11152, Note_on_c, 0, 65, 0
2, 11160, Note_on_c, 0, 60, 80
2, 11212, Note_on_c, 0, 60, 0
2, 11220, Note_on_c, 0, 64, 80
2, 11272, Note_on_c, 0, 64, 0
2, 11280, Note_on_c, 0, 65, 80
2, 11625, Note_on_c, 0, 65, 0
2, 11625, Control_c, 0, 7, 110
2, 11628, Control_c, 0, 10, 35
2, 11630, Program_c, 0, 2
2, 11640, Note_on_c, 0, 81, 80
2, 11692, Note_on_c, 0, 81, 0
2, 11700, Note_on_c, 0, 77, 80
2, 11752, Note_on_c, 0, 77, 0
2, 11760, Note_on_c, 0, 76, 80
2, 11812, Note_on_c, 0, 76, 0
2, 11820, Note_on_c, 0, 77, 80
2, 11872, Note_on_c, 0, 77, 0
2, 11880, Note_on_c, 0, 72, 80
2, 11932, Note_on_c, 0, 72, 0
2, 11940, Note_on_c, 0, 77, 80
2, 11992, Note_on_c, 0, 77, 0
2, 12000, Note_on_c, 0, 81, 80
2, 12052, Note_on_c, 0, 81, 0
2, 12060, Note_on_c, 0, 77, 80
2, 12112, Note_on_c, 0, 77, 0
2, 12120, Note_on_c, 0, 82, 80
2, 12172, Note_on_c, 0, 82, 0
2, 12180, Note_on_c, 0, 77, 80
2, 12232, Note_on_c, 0, 77, 0
2, 12240, Note_on_c, 0, 81, 80
2, 12292, Note_on_c, 0, 81, 0
2, 12300, Note_on_c, 0, 77, 80
2, 12352, Note_on_c, 0, 77, 0
2, 12360, Note_on_c, 0, 79, 80
2, 12412, Note_on_c, 0, 79, 0
2, 12420, Note_on_c, 0, 75, 80
2, 12472, Note_on_c, 0, 75, 0
2, 12480, Note_on_c, 0, 74, 80
2, 12532, Note_on_c, 0, 74, 0
2, 12540, Note_on_c, 0, 75, 80
2, 12592, Note_on_c, 0, 75, 0
2, 12600, Note_on_c, 0, 72, 80
2, 12652, Note_on_c, 0, 72, 0
2, 12660, Note_on_c, 0, 75, 80
2, 12712, Note_on_c, 0, 75, 0
2, 12720, Note_on_c, 0, 77, 80
2, 12772, Note_on_c, 0, 77, 0
2, 12780, Note_on_c, 0, 74, 80
2, 12832, Note_on_c, 0, 74, 0
2, 12840, Note_on_c, 0, 77, 80
2, 12892, Note_on_c, 0, 77, 0
2, 12900, Note_on_c, 0, 72, 80
2, 12952, Note_on_c, 0, 72, 0
2, 12960, Note_on_c, 0, 77, 80
2, 13012, Note_on_c, 0, 77, 0
2, 13020, Note_on_c, 0, 71, 80
2, 13072, Note_on_c, 0, 71, 0
2, 13080, Note_on_c, 0, 72, 80
2, 13132, Note_on_c, 0, 72, 0
2, 13140, Note_on_c, 0, 75, 80
2, 13192, Note_on_c, 0, 75, 0
2, 13200, Note_on_c, 0, 78, 80
2, 13252, Note_on_c, 0, 78, 0
2, 13260, Note_on_c, 0, 72, 80
2, 13312, Note_on_c, 0, 72, 0
2, 13320, Note_on_c, 0, 81, 80
2, 13372, Note_on_c, 0, 81, 0
2, 13380, Note_on_c, 0, 72, 80
2, 13432, Note_on_c, 0, 72, 0
2, 13440, Note_on_c, 0, 69, 80
2, 13492, Note_on_c, 0, 69, 0
2, 13500, Note_on_c, 0, 72, 80
2, 13552, Note_on_c, 0, 72, 0
2, 13560, Note_on_c, 0, 66, 80
2, 13612, Note_on_c, 0, 66, 0
2, 13620, Note_on_c, 0, 72, 80
2, 13672, Note_on_c, 0, 72, 0
2, 13680, Note_on_c, 0, 62, 80
2, 13732, Note_on_c, 0, 62, 0
2, 13740, Note_on_c, 0, 72, 80
2, 13792, Note_on_c, 0, 72, 0
2, 13800, Note_on_c, 0, 70, 80
2, 13852, Note_on_c, 0, 70, 0
2, 13860, Note_on_c, 0, 75, 80
2, 13912, Note_on_c, 0, 75, 0
2, 13920, Note_on_c, 0, 74, 80
2, 13972, Note_on_c, 0, 74, 0
2, 13980, Note_on_c, 0, 70, 80
2, 14032, Note_on_c, 0, 70, 0
2, 14040, Note_on_c, 0, 72, 80
2, 14092, Note_on_c, 0, 72, 0
2, 14100, Note_on_c, 0, 69, 80
2, 14152, Note_on_c, 0, 69, 0
2, 14160, Note_on_c, 0, 67, 80
2, 14325, Note_on_c, 0, 67, 0
2, 14340, Note_on_c, 0, 69, 80
2, 14366, Note_on_c, 0, 69, 0
2, 14370, Note_on_c, 0, 70, 80
2, 14396, Note_on_c, 0, 70, 0
2, 14400, Note_on_c, 0, 69, 80
2, 14426, Note_on_c, 0, 69, 0
2, 14430, Note_on_c, 0, 67, 80
2, 14456, Note_on_c, 0, 67, 0
2, 14460, Note_on_c, 0, 65, 80
2, 14486, Note_on_c, 0, 65, 0
2, 14490, Note_on_c, 0, 63, 80
2, 14516, Note_on_c, 0, 63, 0
2, 14520, Note_on_c, 0, 62, 80
2, 14572, Note_on_c, 0, 62, 0
2, 14580, Note_on_c, 0, 70, 80
2, 14632, Note_on_c, 0, 70, 0
2, 14640, Note_on_c, 0, 69, 80
2, 14692, Note_on_c, 0, 69, 0
2, 14700, Note_on_c, 0, 70, 80
2, 14752, Note_on_c, 0, 70, 0
2, 14760, Note_on_c, 0, 77, 80
2, 14812, Note_on_c, 0, 77, 0
2, 14820, Note_on_c, 0, 70, 80
2, 14872, Note_on_c, 0, 70, 0
2, 14880, Note_on_c, 0, 80, 80
2, 14932, Note_on_c, 0, 80, 0
2, 14940, Note_on_c, 0, 70, 80
2, 14992, Note_on_c, 0, 70, 0
2, 15000, Note_on_c, 0, 79, 80
2, 15052, Note_on_c, 0, 79, 0
2, 15060, Note_on_c, 0, 70, 80
2, 15112, Note_on_c, 0, 70, 0
2, 15120, Note_on_c, 0, 77, 80
2, 15172, Note_on_c, 0, 77, 0
2, 15180, Note_on_c, 0, 70, 80
2, 15232, Note_on_c, 0, 70, 0
2, 15240, Note_on_c, 0, 63, 80
2, 15292, Note_on_c, 0, 63, 0
2, 15300, Note_on_c, 0, 70, 80
2, 15352, Note_on_c, 0, 70, 0
2, 15360, Note_on_c, 0, 69, 80
2, 15412, Note_on_c, 0, 69, 0
2, 15420, Note_on_c, 0, 70, 80
2, 15472, Note_on_c, 0, 70, 0
2, 15480, Note_on_c, 0, 79, 80
2, 15532, Note_on_c, 0, 79, 0
2, 15540, Note_on_c, 0, 70, 80
2, 15592, Note_on_c, 0, 70, 0
2, 15600, Note_on_c, 0, 63, 80
2, 15652, Note_on_c, 0, 63, 0
2, 15660, Note_on_c, 0, 70, 80
2, 15712, Note_on_c, 0, 70, 0
2, 15720, Note_on_c, 0, 65, 80
2, 15772, Note_on_c, 0, 65, 0
2, 15780, Note_on_c, 0, 70, 80
2, 15832, Note_on_c, 0, 70, 0
2, 15840, Note_on_c, 0, 67, 80
2, 15892, Note_on_c, 0, 67, 0
2, 15900, Note_on_c, 0, 70, 80
2, 15952, Note_on_c, 0, 70, 0
2, 15960, Note_on_c, 0, 72, 80
2, 16012, Note_on_c, 0, 72, 0
2, 16020, Note_on_c, 0, 70, 80
2, 16072, Note_on_c, 0, 70, 0
2, 16080, Note_on_c, 0, 74, 80
2, 16132, Note_on_c, 0, 74, 0
2, 16140, Note_on_c, 0, 68, 80
2, 16192, Note_on_c, 0, 68, 0
2, 16200, Note_on_c, 0, 75, 80
2, 16252, Note_on_c, 0, 75, 0
2, 16260, Note_on_c, 0, 67, 80
2, 16312, Note_on_c, 0, 67, 0
2, 16320, Note_on_c, 0, 77, 80
2, 16372, Note_on_c, 0, 77, 0
2, 16380, Note_on_c, 0, 75, 80
2, 16432, Note_on_c, 0, 75, 0
2, 16440, Note_on_c, 0, 79, 80
2, 16492, Note_on_c, 0, 79, 0
2, 16500, Note_on_c, 0, 74, 80
2, 16552, Note_on_c, 0, 74, 0
2, 16560, Note_on_c, 0, 81, 80
2, 16612, Note_on_c, 0, 81, 0
2, 16620, Note_on_c, 0, 72, 80
2, 16672, Note_on_c, 0, 72, 0
2, 16680, Note_on_c, 0, 82, 80
2, 16732, Note_on_c, 0, 82, 0
2, 16740, Note_on_c, 0, 81, 80
2, 16792, Note_on_c, 0, 81, 0
2, 16800, Note_on_c, 0, 79, 80
2, 16852, Note_on_c, 0, 79, 0
2, 16860, Note_on_c, 0, 77, 80
2, 16912, Note_on_c, 0, 77, 0
2, 16920, Note_on_c, 0, 75, 80
2, 16972, Note_on_c, 0, 75, 0
2, 16980, Note_on_c, 0, 74, 80
2, 17032, Note_on_c, 0, 74, 0
2, 17040, Note_on_c, 0, 72, 80
2, 17092, Note_on_c, 0, 72, 0
2, 17100, Note_on_c, 0, 70, 80
2, 17152, Note_on_c, 0, 70, 0
2, 17160, Note_on_c, 0, 69, 80
2, 17212, Note_on_c, 0, 69, 0
2, 17220, Note_on_c, 0, 67, 80
2, 17272, Note_on_c, 0, 67, 0
2, 17280, Note_on_c, 0, 65, 80
2, 17332, Note_on_c, 0, 65, 0
2, 17340, Note_on_c, 0, 63, 80
2, 17392, Note_on_c, 0, 63, 0
2, 17400, Note_on_c, 0, 62, 80
2, 17452, Note_on_c, 0, 62, 0
2, 17460, Note_on_c, 0, 77, 80
2, 17512, Note_on_c, 0, 77, 0
2, 17520, Note_on_c, 0, 79, 80
2, 17572, Note_on_c, 0, 79, 0
2, 17580, Note_on_c, 0, 77, 80
2, 17632, Note_on_c, 0, 77, 0
2, 17640, Note_on_c, 0, 72, 80
2, 17692, Note_on_c, 0, 72, 0
2, 17700, Note_on_c, 0, 77, 80
2, 17752, Note_on_c, 0, 77, 0
2, 17760, Note_on_c, 0, 71, 80
2, 17812, Note_on_c, 0, 71, 0
2, 17820, Note_on_c, 0, 77, 80
2, 17872, Note_on_c, 0, 77, 0
2, 17880, Note_on_c, 0, 69, 80
2, 17932, Note_on_c, 0, 69, 0
2, 17940, Note_on_c, 0, 77, 80
2, 17992, Note_on_c, 0, 77, 0
2, 18000, Note_on_c, 0, 67, 80
2, 18052, Note_on_c, 0, 67, 0
2, 18060, Note_on_c, 0, 77, 80
2, 18112, Note_on_c, 0, 77, 0
2, 18120, Note_on_c, 0, 60, 80
2, 18172, Note_on_c, 0, 60, 0
2, 18180, Note_on_c, 0, 75, 80
2, 18232, Note_on_c, 0, 75, 0
2, 18240, Note_on_c, 0, 77, 80
2, 18292, Note_on_c, 0, 77, 0
2, 18300, Note_on_c, 0, 75, 80
2, 18352, Note_on_c, 0, 75, 0
2, 18360, Note_on_c, 0, 70, 80
2, 18412, Note_on_c, 0, 70, 0
2, 18420, Note_on_c, 0, 75, 80
2, 18472, Note_on_c, 0, 75, 0
2, 18480, Note_on_c, 0, 69, 80
2, 18532, Note_on_c, 0, 69, 0
2, 18540, Note_on_c, 0, 75, 80
2, 18592, Note_on_c, 0, 75, 0
2, 18600, Note_on_c, 0, 67, 80
2, 18652, Note_on_c, 0, 67, 0
2, 18660, Note_on_c, 0, 75, 80
2, 18712, Note_on_c, 0, 75, 0
2, 18720, Note_on_c, 0, 65, 80
2, 18772, Note_on_c, 0, 65, 0
2, 18780, Note_on_c, 0, 75, 80
2, 18832, Note_on_c, 0, 75, 0
2, 18840, Note_on_c, 0, 74, 80
2, 18892, Note_on_c, 0, 74, 0
2, 18900, Note_on_c, 0, 77, 80
2, 18952, Note_on_c, 0, 77, 0
2, 18960, Note_on_c, 0, 74, 80
2, 19012, Note_on_c, 0, 74, 0
2, 19020, Note_on_c, 0, 70, 80
2, 19072, Note_on_c, 0, 70, 0
2, 19080, Note_on_c, 0, 65, 80
2, 19132, Note_on_c, 0, 65, 0
2, 19140, Note_on_c, 0, 69, 80
2, 19192, Note_on_c, 0, 69, 0
2, 19200, Note_on_c, 0, 70, 80
2, 19340, Program_c, 0, 11
2, 19345, Control_c, 0, 10, 90
2, 19346, Note_on_c, 0, 70, 0
2, 19347, Control_c, 0, 7, 120
2, 19350, Note_on_c, 0, 72, 80
2, 19376, Note_on_c, 0, 72, 0
2, 19380, Note_on_c, 0, 74, 80
2, 19406, Note_on_c, 0, 74, 0
2, 19410, Note_on_c, 0, 75, 80
2, 19436, Note_on_c, 0, 75, 0
2, 19440, Note_on_c, 0, 77, 80
2, 19466, Note_on_c, 0, 77, 0
2, 19470, Note_on_c, 0, 76, 80
2, 19496, Note_on_c, 0, 76, 0
2, 19500, Note_on_c, 0, 77, 80
2, 19526, Note_on_c, 0, 77, 0
2, 19530, Note_on_c, 0, 79, 80
2, 19556, Note_on_c, 0, 79, 0
2, 19560, Note_on_c, 0, 81, 80
2, 19612, Note_on_c, 0, 81, 0
2, 19620, Note_on_c, 0, 77, 80
2, 19672, Note_on_c, 0, 77, 0
2, 19680, Note_on_c, 0, 76, 80
2, 19732, Note_on_c, 0, 76, 0
2, 19740, Note_on_c, 0, 77, 80
2, 19792, Note_on_c, 0, 77, 0
2, 19800, Note_on_c, 0, 72, 80
2, 19852, Note_on_c, 0, 72, 0
2, 19860, Note_on_c, 0, 77, 80
2, 19912, Note_on_c, 0, 77, 0
2, 19920, Note_on_c, 0, 81, 80
2, 19972, Note_on_c, 0, 81, 0
2, 19980, Note_on_c, 0, 77, 80
2, 20032, Note_on_c, 0, 77, 0
2, 20040, Note_on_c, 0, 82, 80
2, 20092, Note_on_c, 0, 82, 0
2, 20100, Note_on_c, 0, 77, 80
2, 20152, Note_on_c, 0, 77, 0
2, 20160, Note_on_c, 0, 81, 80
2, 20212, Note_on_c, 0, 81, 0
2, 20220, Note_on_c, 0, 77, 80
2, 20272, Note_on_c, 0, 77, 0
2, 20280, Note_on_c, 0, 79, 80
2, 20332, Note_on_c, 0, 79, 0
2, 20340, Note_on_c, 0, 75, 80
2, 20392, Note_on_c, 0, 75, 0
2, 20400, Note_on_c, 0, 74, 80
2, 20452, Note_on_c, 0, 74, 0
2, 20460, Note_on_c, 0, 75, 80
2, 20512, Note_on_c, 0, 75, 0
2, 20520, Note_on_c, 0, 72, 80
2, 20572, Note_on_c, 0, 72, 0
2, 20580, Note_on_c, 0, 75, 80
2, 20632, Note_on_c, 0, 75, 0
2, 20640, Note_on_c, 0, 77, 80
2, 20692, Note_on_c, 0, 77, 0
2, 20700, Note_on_c, 0, 74, 80
2, 20752, Note_on_c, 0, 74, 0
2, 20760, Note_on_c, 0, 77, 80
2, 20812, Note_on_c, 0, 77, 0
2, 20820, Note_on_c, 0, 72, 80
2, 20872, Note_on_c, 0, 72, 0
2, 20880, Note_on_c, 0, 77, 80
2, 20932, Note_on_c, 0, 77, 0
2, 20940, Note_on_c, 0, 71, 80
2, 20992, Note_on_c, 0, 71, 0
2, 21000, Note_on_c, 0, 72, 80
2, 21052, Note_on_c, 0, 72, 0
2, 21060, Note_on_c, 0, 75, 80
2, 21112, Note_on_c, 0, 75, 0
2, 21120, Note_on_c, 0, 78, 80
2, 21172, Note_on_c, 0, 78, 0
2, 21180, Note_on_c, 0, 72, 80
2, 21232, Note_on_c, 0, 72, 0
2, 21240, Note_on_c, 0, 81, 80
2, 21292, Note_on_c, 0, 81, 0
2, 21300, Note_on_c, 0, 72, 80
2, 21352, Note_on_c, 0, 72, 0
2, 21360, Note_on_c, 0, 69, 80
2, 21412, Note_on_c, 0, 69, 0
2, 21420, Note_on_c, 0, 72, 80
2, 21472, Note_on_c, 0, 72, 0
2, 21480, Note_on_c, 0, 66, 80
2, 21532, Note_on_c, 0, 66, 0
2, 21540, Note_on_c, 0, 72, 80
2, 21592, Note_on_c, 0, 72, 0
2, 21600, Note_on_c, 0, 62, 80
2, 21652, Note_on_c, 0, 62, 0
2, 21660, Note_on_c, 0, 72, 80
2, 21712, Note_on_c, 0, 72, 0
2, 21720, Note_on_c, 0, 70, 80
2, 21772, Note_on_c, 0, 70, 0
2, 21780, Note_on_c, 0, 75, 80
2, 21832, Note_on_c, 0, 75, 0
2, 21840, Note_on_c, 0, 74, 80
2, 21892, Note_on_c, 0, 74, 0
2, 21900, Note_on_c, 0, 70, 80
2, 21952, Note_on_c, 0, 70, 0
2, 21960, Note_on_c, 0, 72, 80
2, 22012, Note_on_c, 0, 72, 0
2, 22020, Note_on_c, 0, 69, 80
2, 22072, Note_on_c, 0, 69, 0
2, 22080, Note_on_c, 0, 67, 80
2, 22245, Note_on_c, 0, 67, 0
2, 22260, Note_on_c, 0, 69, 80
2, 22286, Note_on_c, 0, 69, 0
2, 22290, Note_on_c, 0, 70, 80
2, 22316, Note_on_c, 0, 70, 0
2, 22320, Note_on_c, 0, 69, 80
2, 22346, Note_on_c, 0, 69, 0
2, 22350, Note_on_c, 0, 67, 80
2, 22376, Note_on_c, 0, 67, 0
2, 22380, Note_on_c, 0, 65, 80
2, 22406, Note_on_c, 0, 65, 0
2, 22410, Note_on_c, 0, 63, 80
2, 22436, Note_on_c, 0, 63, 0
2, 22440, Note_on_c, 0, 62, 80
2, 22492, Note_on_c, 0, 62, 0
2, 22500, Note_on_c, 0, 70, 80
2, 22552, Note_on_c, 0, 70, 0
2, 22560, Note_on_c, 0, 69, 80
2, 22612, Note_on_c, 0, 69, 0
2, 22620, Note_on_c, 0, 70, 80
2, 22672, Note_on_c, 0, 70, 0
2, 22680, Note_on_c, 0, 77, 80
2, 22732, Note_on_c, 0, 77, 0
2, 22740, Note_on_c, 0, 70, 80
2, 22792, Note_on_c, 0, 70, 0
2, 22800, Note_on_c, 0, 80, 80
2, 22852, Note_on_c, 0, 80, 0
2, 22860, Note_on_c, 0, 70, 80
2, 22912, Note_on_c, 0, 70, 0
2, 22920, Note_on_c, 0, 79, 80
2, 22972, Note_on_c, 0, 79, 0
2, 22980, Note_on_c, 0, 70, 80
2, 23032, Note_on_c, 0, 70, 0
2, 23040, Note_on_c, 0, 77, 80
2, 23092, Note_on_c, 0, 77, 0
2, 23100, Note_on_c, 0, 70, 80
2, 23152, Note_on_c, 0, 70, 0
2, 23160, Note_on_c, 0, 63, 80
2, 23212, Note_on_c, 0, 63, 0
2, 23220, Note_on_c, 0, 70, 80
2, 23272, Note_on_c, 0, 70, 0
2, 23280, Note_on_c, 0, 69, 80
2, 23332, Note_on_c, 0, 69, 0
2, 23340, Note_on_c, 0, 70, 80
2, 23392, Note_on_c, 0, 70, 0
2, 23400, Note_on_c, 0, 79, 80
2, 23452, Note_on_c, 0, 79, 0
2, 23460, Note_on_c, 0, 70, 80
2, 23512, Note_on_c, 0, 70, 0
2, 23520, Note_on_c, 0, 63, 80
2, 23572, Note_on_c, 0, 63, 0
2, 23580, Note_on_c, 0, 70, 80
2, 23632, Note_on_c, 0, 70, 0
2, 23640, Note_on_c, 0, 65, 80
2, 23692, Note_on_c, 0, 65, 0
2, 23700, Note_on_c, 0, 70, 80
2, 23752, Note_on_c, 0, 70, 0
2, 23760, Note_on_c, 0, 67, 80
2, 23812, Note_on_c, 0, 67, 0
2, 23820, Note_on_c, 0, 70, 80
2, 23872, Note_on_c, 0, 70, 0
2, 23880, Note_on_c, 0, 72, 80
2, 23932, Note_on_c, 0, 72, 0
2, 23940, Note_on_c, 0, 70, 80
2, 23992, Note_on_c, 0, 70, 0
2, 24000, Note_on_c, 0, 74, 80
2, 24052, Note_on_c, 0, 74, 0
2, 24060, Note_on_c, 0, 68, 80
2, 24112, Note_on_c, 0, 68, 0
2, 24120, Note_on_c, 0, 75, 80
2, 24172, Note_on_c, 0, 75, 0
2, 24180, Note_on_c, 0, 67, 80
2, 24232, Note_on_c, 0, 67, 0
2, 24240, Note_on_c, 0, 77, 80
2, 24292, Note_on_c, 0, 77, 0
2, 24300, Note_on_c, 0, 75, 80
2, 24352, Note_on_c, 0, 75, 0
2, 24360, Note_on_c, 0, 79, 80
2, 24412, Note_on_c, 0, 79, 0
2, 24420, Note_on_c, 0, 74, 80
2, 24472, Note_on_c, 0, 74, 0
2, 24480, Note_on_c, 0, 81, 80
2, 24532, Note_on_c, 0, 81, 0
2, 24540, Note_on_c, 0, 72, 80
2, 24592, Note_on_c, 0, 72, 0
2, 24600, Note_on_c, 0, 82, 80
2, 24652, Note_on_c, 0, 82, 0
2, 24660, Note_on_c, 0, 81, 80
2, 24712, Note_on_c, 0, 81, 0
2, 24720, Note_on_c, 0, 79, 80
2, 24772, Note_on_c, 0, 79, 0
2, 24780, Note_on_c, 0, 77, 80
2, 24832, Note_on_c, 0, 77, 0
2, 24840, Note_on_c, 0, 75, 80
2, 24892, Note_on_c, 0, 75, 0
2, 24900, Note_on_c, 0, 74, 80
2, 24952, Note_on_c, 0, 74, 0
2, 24960, Note_on_c, 0, 72, 80
2, 25012, Note_on_c, 0, 72, 0
2, 25020, Note_on_c, 0, 70, 80
2, 25072, Note_on_c, 0, 70, 0
2, 25080, Note_on_c, 0, 69, 80
2, 25132, Note_on_c, 0, 69, 0
2, 25140, Note_on_c, 0, 67, 80
2, 25192, Note_on_c, 0, 67, 0
2, 25200, Note_on_c, 0, 65, 80
2, 25252, Note_on_c, 0, 65, 0
2, 25260, Note_on_c, 0, 63, 80
2, 25312, Note_on_c, 0, 63, 0
2, 25320, Note_on_c, 0, 62, 80
2, 25372, Note_on_c, 0, 62, 0
2, 25380, Note_on_c, 0, 77, 80
2, 25432, Note_on_c, 0, 77, 0
2, 25440, Note_on_c, 0, 79, 80
2, 25492, Note_on_c, 0, 79, 0
2, 25500, Note_on_c, 0, 77, 80
2, 25552, Note_on_c, 0, 77, 0
2, 25560, Note_on_c, 0, 72, 80
2, 25612, Note_on_c, 0, 72, 0
2, 25620, Note_on_c, 0, 77, 80
2, 25672, Note_on_c, 0, 77, 0
2, 25680, Note_on_c, 0, 71, 80
2, 25732, Note_on_c, 0, 71, 0
2, 25740, Note_on_c, 0, 77, 80
2, 25792, Note_on_c, 0, 77, 0
2, 25800, Note_on_c, 0, 69, 80
2, 25852, Note_on_c, 0, 69, 0
2, 25860, Note_on_c, 0, 77, 80
2, 25912, Note_on_c, 0, 77, 0
2, 25920, Note_on_c, 0, 67, 80
2, 25972, Note_on_c, 0, 67, 0
2, 25980, Note_on_c, 0, 77, 80
2, 26032, Note_on_c, 0, 77, 0
2, 26040, Note_on_c, 0, 60, 80
2, 26092, Note_on_c, 0, 60, 0
2, 26100, Note_on_c, 0, 75, 80
2, 26152, Note_on_c, 0, 75, 0
2, 26160, Note_on_c, 0, 77, 80
2, 26212, Note_on_c, 0, 77, 0
2, 26220, Note_on_c, 0, 75, 80
2, 26272, Note_on_c, 0, 75, 0
2, 26280, Note_on_c, 0, 70, 80
2, 26332, Note_on_c, 0, 70, 0
2, 26340, Note_on_c, 0, 75, 80
2, 26392, Note_on_c, 0, 75, 0
2, 26400, Note_on_c, 0, 69, 80
2, 26452, Note_on_c, 0, 69, 0
2, 26460, Note_on_c, 0, 75, 80
2, 26512, Note_on_c, 0, 75, 0
2, 26520, Note_on_c, 0, 67, 80
2, 26572, Note_on_c, 0, 67, 0
2, 26580, Note_on_c, 0, 75, 80
2, 26632, Note_on_c, 0, 75, 0
2, 26640, Note_on_c, 0, 65, 80
2, 26692, Note_on_c, 0, 65, 0
2, 26700, Note_on_c, 0, 75, 80
2, 26752, Note_on_c, 0, 75, 0
2, 26760, Note_on_c, 0, 74, 80
2, 26812, Note_on_c, 0, 74, 0
2, 26820, Note_on_c, 0, 77, 80
2, 26872, Note_on_c, 0, 77, 0
2, 26880, Note_on_c, 0, 74, 80
2, 26932, Note_on_c, 0, 74, 0
2, 26940, Note_on_c, 0, 70, 80
2, 26992, Note_on_c, 0, 70, 0
2, 27000, Note_on_c, 0, 65, 80
2, 27052, Note_on_c, 0, 65, 0
2, 27060, Note_on_c, 0, 69, 80
2, 27112, Note_on_c, 0, 69, 0
2, 27120, Note_on_c, 0, 70, 80
2, 27460, Program_c, 0, 18
2, 27465, Note_on_c, 0, 70, 0
2, 27465, Control_c, 0, 10, 35
2, 27468, Control_c, 0, 7, 110
2, 27480, Note_on_c, 0, 70, 80
2, 27705, Note_on_c, 0, 70, 0
2, 27720, Note_on_c, 0, 65, 80
2, 27825, Note_on_c, 0, 65, 0
2, 27840, Note_on_c, 0, 67, 80
2, 27945, Note_on_c, 0, 67, 0
2, 27960, Note_on_c, 0, 68, 80
2, 28065, Note_on_c, 0, 68, 0
2, 28200, Note_on_c, 0, 67, 80
2, 28305, Note_on_c, 0, 67, 0
2, 28320, Note_on_c, 0, 69, 80
2, 28425, Note_on_c, 0, 69, 0
2, 28440, Note_on_c, 0, 70, 80
2, 28545, Note_on_c, 0, 70, 0
2, 28560, Note_on_c, 0, 69, 80
2, 28665, Note_on_c, 0, 69, 0
2, 28680, Note_on_c, 0, 70, 80
2, 28732, Note_on_c, 0, 70, 0
2, 28740, Note_on_c, 0, 69, 80
2, 28792, Note_on_c, 0, 69, 0
2, 28800, Note_on_c, 0, 67, 80
2, 28852, Note_on_c, 0, 67, 0
2, 28860, Note_on_c, 0, 65, 80
2, 28912, Note_on_c, 0, 65, 0
2, 28920, Note_on_c, 0, 70, 80
2, 29145, Note_on_c, 0, 70, 0
2, 29160, Note_on_c, 0, 65, 80
2, 29265, Note_on_c, 0, 65, 0
2, 29280, Note_on_c, 0, 67, 80
2, 29385, Note_on_c, 0, 67, 0
2, 29400, Note_on_c, 0, 68, 80
2, 29505, Note_on_c, 0, 68, 0
2, 29640, Note_on_c, 0, 67, 80
2, 29745, Note_on_c, 0, 67, 0
2, 29760, Note_on_c, 0, 69, 80
2, 29865, Note_on_c, 0, 69, 0
2, 29880, Note_on_c, 0, 70, 80
2, 29985, Note_on_c, 0, 70, 0
2, 30000, Note_on_c, 0, 69, 80
2, 30240, Program_c, 0, 11
2, 30345, Note_on_c, 0, 69, 0
2, 30348, Control_c, 0, 10, 90
2, 30350, Control_c, 0, 7, 125
2, 30360, Note_on_c, 0, 70, 80
2, 30585, Note_on_c, 0, 70, 0
2, 30600, Note_on_c, 0, 65, 80
2, 30705, Note_on_c, 0, 65, 0
2, 30720, Note_on_c, 0, 67, 80
2, 30825, Note_on_c, 0, 67, 0
2, 30840, Note_on_c, 0, 68, 80
2, 30945, Note_on_c, 0, 68, 0
2, 31080, Note_on_c, 0, 67, 80
2, 31185, Note_on_c, 0, 67, 0
2, 31200, Note_on_c, 0, 69, 80
2, 31305, Note_on_c, 0, 69, 0
2, 31320, Note_on_c, 0, 70, 80
2, 31425, Note_on_c, 0, 70, 0
2, 31440, Note_on_c, 0, 69, 80
2, 31545, Note_on_c, 0, 69, 0
2, 31560, Note_on_c, 0, 70, 80
2, 31612, Note_on_c, 0, 70, 0
2, 31620, Note_on_c, 0, 69, 80
2, 31672, Note_on_c, 0, 69, 0
2, 31680, Note_on_c, 0, 67, 80
2, 31732, Note_on_c, 0, 67, 0
2, 31740, Note_on_c, 0, 65, 80
2, 31792, Note_on_c, 0, 65, 0
2, 31800, Note_on_c, 0, 70, 80
2, 32025, Note_on_c, 0, 70, 0
2, 32040, Note_on_c, 0, 65, 80
2, 32145, Note_on_c, 0, 65, 0
2, 32160, Note_on_c, 0, 67, 80
2, 32265, Note_on_c, 0, 67, 0
2, 32280, Note_on_c, 0, 68, 80
2, 32385, Note_on_c, 0, 68, 0
2, 32520, Note_on_c, 0, 67, 80
2, 32625, Note_on_c, 0, 67, 0
2, 32640, Note_on_c, 0, 69, 80
2, 32745, Note_on_c, 0, 69, 0
2, 32760, Note_on_c, 0, 70, 80
2, 32865, Note_on_c, 0, 70, 0
2, 32880, Note_on_c, 0, 69, 80
2, 33120, Program_c, 0, 18
2, 33225, Note_on_c, 0, 69, 0
2, 33228, Control_c, 0, 10, 90
2, 33230, Control_c, 0, 7, 110
2, 33240, Note_on_c, 0, 77, 80
2, 33465, Note_on_c, 0, 77, 0
2, 33480, Note_on_c, 0, 72, 80
2, 33585, Note_on_c, 0, 72, 0
2, 33600, Note_on_c, 0, 74, 80
2, 33705, Note_on_c, 0, 74, 0
2, 33720, Note_on_c, 0, 75, 80
2, 33825, Note_on_c, 0, 75, 0
2, 33960, Note_on_c, 0, 66, 80
2, 34065, Note_on_c, 0, 66, 0
2, 34080, Note_on_c, 0, 74, 80
2, 34185, Note_on_c, 0, 74, 0
2, 34200, Note_on_c, 0, 72, 80
2, 34305, Note_on_c, 0, 72, 0
2, 34320, Note_on_c, 0, 70, 80
2, 34425, Note_on_c, 0, 70, 0
2, 34440, Note_on_c, 0, 69, 80
2, 34492, Note_on_c, 0, 69, 0
2, 34500, Note_on_c, 0, 70, 80
2, 34552, Note_on_c, 0, 70, 0
2, 34560, Note_on_c, 0, 67, 80
2, 34665, Note_on_c, 0, 67, 0
2, 34680, Note_on_c, 0, 75, 80
2, 34905, Note_on_c, 0, 75, 0
2, 34920, Note_on_c, 0, 74, 80
2, 35025, Note_on_c, 0, 74, 0
2, 35040, Note_on_c, 0, 79, 80
2, 35145, Note_on_c, 0, 79, 0
2, 35160, Note_on_c, 0, 77, 80
2, 35265, Note_on_c, 0, 77, 0
2, 35280, Note_on_c, 0, 70, 80
2, 35520, Note_on_c, 0, 70, 0
2, 35520, Note_on_c, 0, 69, 80
2, 35625, Note_on_c, 0, 69, 0
2, 35640, Note_on_c, 0, 70, 80
2, 35745, Note_on_c, 0, 70, 0
2, 35760, Note_on_c, 0, 70, 80
2, 36000, Program_c, 0, 11
2, 36105, Note_on_c, 0, 70, 0
2, 36107, Control_c, 0, 10, 90
2, 36110, Control_c, 0, 7, 125
2, 36120, Note_on_c, 0, 77, 80
2, 36345, Note_on_c, 0, 77, 0
2, 36360, Note_on_c, 0, 72, 80
2, 36465, Note_on_c, 0, 72, 0
2, 36480, Note_on_c, 0, 74, 80
2, 36585, Note_on_c, 0, 74, 0
2, 36600, Note_on_c, 0, 75, 80
2, 36705, Note_on_c, 0, 75, 0
2, 36840, Note_on_c, 0, 66, 80
2, 36945, Note_on_c, 0, 66, 0
2, 36960, Note_on_c, 0, 74, 80
2, 37065, Note_on_c, 0, 74, 0
2, 37080, Note_on_c, 0, 72, 80
2, 37185, Note_on_c, 0, 72, 0
2, 37200, Note_on_c, 0, 70, 80
2, 37305, Note_on_c, 0, 70, 0
2, 37320, Note_on_c, 0, 69, 80
2, 37372, Note_on_c, 0, 69, 0
2, 37380, Note_on_c, 0, 70, 80
2, 37432, Note_on_c, 0, 70, 0
2, 37440, Note_on_c, 0, 67, 80
2, 37545, Note_on_c, 0, 67, 0
2, 37560, Note_on_c, 0, 75, 80
2, 37785, Note_on_c, 0, 75, 0
2, 37800, Note_on_c, 0, 74, 80
2, 37905, Note_on_c, 0, 74, 0
2, 37920, Note_on_c, 0, 79, 80
2, 38025, Note_on_c, 0, 79, 0
2, 38040, Note_on_c, 0, 77, 80
2, 38145, Note_on_c, 0, 77, 0
2, 38160, Note_on_c, 0, 70, 80
2, 38400, Note_on_c, 0, 70, 0
2, 38400, Note_on_c, 0, 69, 80
2, 38505, Note_on_c, 0, 69, 0
2, 38520, Note_on_c, 0, 70, 80
2, 38625, Note_on_c, 0, 70, 0
2, 38640, Note_on_c, 0, 70, 80
2, 38880, Program_c, 0, 2
2, 38985, Note_on_c, 0, 70, 0
2, 38988, Control_c, 0, 10, 35
2, 38990, Control_c, 0, 7, 110
2, 39000, Note_on_c, 0, 74, 80
2, 39052, Note_on_c, 0, 74, 0
2, 39060, Note_on_c, 0, 70, 80
2, 39112, Note_on_c, 0, 70, 0
2, 39120, Note_on_c, 0, 69, 80
2, 39172, Note_on_c, 0, 69, 0
2, 39180, Note_on_c, 0, 70, 80
2, 39232, Note_on_c, 0, 70, 0
2, 39240, Note_on_c, 0, 65, 80
2, 39292, Note_on_c, 0, 65, 0
2, 39300, Note_on_c, 0, 70, 80
2, 39352, Note_on_c, 0, 70, 0
2, 39360, Note_on_c, 0, 74, 80
2, 39412, Note_on_c, 0, 74, 0
2, 39420, Note_on_c, 0, 70, 80
2, 39472, Note_on_c, 0, 70, 0
2, 39480, Note_on_c, 0, 75, 80
2, 39532, Note_on_c, 0, 75, 0
2, 39540, Note_on_c, 0, 70, 80
2, 39592, Note_on_c, 0, 70, 0
2, 39600, Note_on_c, 0, 77, 80
2, 39652, Note_on_c, 0, 77, 0
2, 39660, Note_on_c, 0, 70, 80
2, 39712, Note_on_c, 0, 70, 0
2, 39720, Note_on_c, 0, 72, 80
2, 39772, Note_on_c, 0, 72, 0
2, 39780, Note_on_c, 0, 69, 80
2, 39832, Note_on_c, 0, 69, 0
2, 39840, Note_on_c, 0, 67, 80
2, 39892, Note_on_c, 0, 67, 0
2, 39900, Note_on_c, 0, 69, 80
2, 39952, Note_on_c, 0, 69, 0
2, 39960, Note_on_c, 0, 65, 80
2, 40012, Note_on_c, 0, 65, 0
2, 40020, Note_on_c, 0, 69, 80
2, 40072, Note_on_c, 0, 69, 0
2, 40080, Note_on_c, 0, 72, 80
2, 40132, Note_on_c, 0, 72, 0
2, 40140, Note_on_c, 0, 65, 80
2, 40192, Note_on_c, 0, 65, 0
2, 40200, Note_on_c, 0, 74, 80
2, 40252, Note_on_c, 0, 74, 0
2, 40260, Note_on_c, 0, 65, 80
2, 40312, Note_on_c, 0, 65, 0
2, 40320, Note_on_c, 0, 75, 80
2, 40372, Note_on_c, 0, 75, 0
2, 40380, Note_on_c, 0, 65, 80
2, 40432, Note_on_c, 0, 65, 0
2, 40440, Note_on_c, 0, 74, 80
2, 40492, Note_on_c, 0, 74, 0
2, 40500, Note_on_c, 0, 68, 80
2, 40552, Note_on_c, 0, 68, 0
2, 40560, Note_on_c, 0, 75, 80
2, 40612, Note_on_c, 0, 75, 0
2, 40620, Note_on_c, 0, 67, 80
2, 40672, Note_on_c, 0, 67, 0
2, 40680, Note_on_c, 0, 77, 80
2, 40732, Note_on_c, 0, 77, 0
2, 40740, Note_on_c, 0, 65, 80
2, 40792, Note_on_c, 0, 65, 0
2, 40800, Note_on_c, 0, 79, 80
2, 40852, Note_on_c, 0, 79, 0
2, 40860, Note_on_c, 0, 77, 80
2, 40912, Note_on_c, 0, 77, 0
2, 40920, Note_on_c, 0, 81, 80
2, 40972, Note_on_c, 0, 81, 0
2, 40980, Note_on_c, 0, 75, 80
2, 41032, Note_on_c, 0, 75, 0
2, 41040, Note_on_c, 0, 82, 80
2, 41092, Note_on_c, 0, 82, 0
2, 41100, Note_on_c, 0, 74, 80
2, 41152, Note_on_c, 0, 74, 0
2, 41160, Note_on_c, 0, 72, 80
2, 41212, Note_on_c, 0, 72, 0
2, 41220, Note_on_c, 0, 75, 80
2, 41272, Note_on_c, 0, 75, 0
2, 41280, Note_on_c, 0, 74, 80
2, 41332, Note_on_c, 0, 74, 0
2, 41340, Note_on_c, 0, 72, 80
2, 41392, Note_on_c, 0, 72, 0
2, 41400, Note_on_c, 0, 74, 80
2, 41452, Note_on_c, 0, 74, 0
2, 41460, Note_on_c, 0, 70, 80
2, 41512, Note_on_c, 0, 70, 0
2, 41520, Note_on_c, 0, 72, 80
2, 41572, Note_on_c, 0, 72, 0
2, 41580, Note_on_c, 0, 69, 80
2, 41632, Note_on_c, 0, 69, 0
2, 41640, Note_on_c, 0, 67, 80
2, 41692, Note_on_c, 0, 67, 0
2, 41700, Note_on_c, 0, 69, 80
2, 41752, Note_on_c, 0, 69, 0
2, 41760, Note_on_c, 0, 65, 80
2, 41812, Note_on_c, 0, 65, 0
2, 41820, Note_on_c, 0, 75, 80
2, 41872, Note_on_c, 0, 75, 0
2, 41880, Note_on_c, 0, 74, 80
2, 41932, Note_on_c, 0, 74, 0
2, 41940, Note_on_c, 0, 70, 80
2, 41992, Note_on_c, 0, 70, 0
2, 42000, Note_on_c, 0, 69, 80
2, 42052, Note_on_c, 0, 69, 0
2, 42060, Note_on_c, 0, 70, 80
2, 42112, Note_on_c, 0, 70, 0
2, 42120, Note_on_c, 0, 65, 80
2, 42172, Note_on_c, 0, 65, 0
2, 42180, Note_on_c, 0, 70, 80
2, 42232, Note_on_c, 0, 70, 0
2, 42240, Note_on_c, 0, 74, 80
2, 42292, Note_on_c, 0, 74, 0
2, 42300, Note_on_c, 0, 70, 80
2, 42352, Note_on_c, 0, 70, 0
2, 42360, Note_on_c, 0, 75, 80
2, 42412, Note_on_c, 0, 75, 0
2, 42420, Note_on_c, 0, 70, 80
2, 42472, Note_on_c, 0, 70, 0
2, 42480, Note_on_c, 0, 77, 80
2, 42532, Note_on_c, 0, 77, 0
2, 42540, Note_on_c, 0, 70, 80
2, 42592, Note_on_c, 0, 70, 0
2, 42600, Note_on_c, 0, 72, 80
2, 42652, Note_on_c, 0, 72, 0
2, 42660, Note_on_c, 0, 69, 80
2, 42712, Note_on_c, 0, 69, 0
2, 42720, Note_on_c, 0, 67, 80
2, 42772, Note_on_c, 0, 67, 0
2, 42780, Note_on_c, 0, 69, 80
2, 42832, Note_on_c, 0, 69, 0
2, 42840, Note_on_c, 0, 65, 80
2, 42892, Note_on_c, 0, 65, 0
2, 42900, Note_on_c, 0, 69, 80
2, 42952, Note_on_c, 0, 69, 0
2, 42960, Note_on_c, 0, 72, 80
2, 43012, Note_on_c, 0, 72, 0
2, 43020, Note_on_c, 0, 65, 80
2, 43072, Note_on_c, 0, 65, 0
2, 43080, Note_on_c, 0, 74, 80
2, 43132, Note_on_c, 0, 74, 0
2, 43140, Note_on_c, 0, 65, 80
2, 43192, Note_on_c, 0, 65, 0
2, 43200, Note_on_c, 0, 75, 80
2, 43252, Note_on_c, 0, 75, 0
2, 43260, Note_on_c, 0, 65, 80
2, 43312, Note_on_c, 0, 65, 0
2, 43320, Note_on_c, 0, 74, 80
2, 43372, Note_on_c, 0, 74, 0
2, 43380, Note_on_c, 0, 72, 80
2, 43432, Note_on_c, 0, 72, 0
2, 43440, Note_on_c, 0, 76, 80
2, 43492, Note_on_c, 0, 76, 0
2, 43500, Note_on_c, 0, 70, 80
2, 43552, Note_on_c, 0, 70, 0
2, 43560, Note_on_c, 0, 77, 80
2, 43612, Note_on_c, 0, 77, 0
2, 43620, Note_on_c, 0, 69, 80
2, 43672, Note_on_c, 0, 69, 0
2, 43680, Note_on_c, 0, 67, 80
2, 43732, Note_on_c, 0, 67, 0
2, 43740, Note_on_c, 0, 70, 80
2, 43792, Note_on_c, 0, 70, 0
2, 43800, Note_on_c, 0, 65, 80
2, 43852, Note_on_c, 0, 65, 0
2, 43860, Note_on_c, 0, 70, 80
2, 43912, Note_on_c, 0, 70, 0
2, 43920, Note_on_c, 0, 64, 80
2, 43972, Note_on_c, 0, 64, 0
2, 43980, Note_on_c, 0, 70, 80
2, 44032, Note_on_c, 0, 70, 0
2, 44040, Note_on_c, 0, 69, 80
2, 44092, Note_on_c, 0, 69, 0
2, 44100, Note_on_c, 0, 72, 80
2, 44152, Note_on_c, 0, 72, 0
2, 44160, Note_on_c, 0, 69, 80
2, 44212, Note_on_c, 0, 69, 0
2, 44220, Note_on_c, 0, 65, 80
2, 44272, Note_on_c, 0, 65, 0
2, 44280, Note_on_c, 0, 60, 80
2, 44332, Note_on_c, 0, 60, 0
2, 44340, Note_on_c, 0, 64, 80
2, 44392, Note_on_c, 0, 64, 0
2, 44400, Note_on_c, 0, 65, 80
2, 44640, Program_c, 0, 11
2, 44745, Note_on_c, 0, 65, 0
2, 44748, Control_c, 0, 10, 90
2, 44750, Control_c, 0, 7, 120
2, 44760, Note_on_c, 0, 81, 80
2, 44812, Note_on_c, 0, 81, 0
2, 44820, Note_on_c, 0, 77, 80
2, 44872, Note_on_c, 0, 77, 0
2, 44880, Note_on_c, 0, 76, 80
2, 44932, Note_on_c, 0, 76, 0
2, 44940, Note_on_c, 0, 77, 80
2, 44992, Note_on_c, 0, 77, 0
2, 45000, Note_on_c, 0, 72, 80
2, 45052, Note_on_c, 0, 72, 0
2, 45060, Note_on_c, 0, 77, 80
2, 45112, Note_on_c, 0, 77, 0
2, 45120, Note_on_c, 0, 81, 80
2, 45172, Note_on_c, 0, 81, 0
2, 45180, Note_on_c, 0, 77, 80
2, 45232, Note_on_c, 0, 77, 0
2, 45240, Note_on_c, 0, 82, 80
2, 45292, Note_on_c, 0, 82, 0
2, 45300, Note_on_c, 0, 77, 80
2, 45352, Note_on_c, 0, 77, 0
2, 45360, Note_on_c, 0, 81, 80
2, 45412, Note_on_c, 0, 81, 0
2, 45420, Note_on_c, 0, 77, 80
2, 45472, Note_on_c, 0, 77, 0
2, 45480, Note_on_c, 0, 79, 80
2, 45532, Note_on_c, 0, 79, 0
2, 45540, Note_on_c, 0, 75, 80
2, 45592, Note_on_c, 0, 75, 0
2, 45600, Note_on_c, 0, 74, 80
2, 45652, Note_on_c, 0, 74, 0
2, 45660, Note_on_c, 0, 75, 80
2, 45712, Note_on_c, 0, 75, 0
2, 45720, Note_on_c, 0, 72, 80
2, 45772, Note_on_c, 0, 72, 0
2, 45780, Note_on_c, 0, 75, 80
2, 45832, Note_on_c, 0, 75, 0
2, 45840, Note_on_c, 0, 77, 80
2, 45892, Note_on_c, 0, 77, 0
2, 45900, Note_on_c, 0, 74, 80
2, 45952, Note_on_c, 0, 74, 0
2, 45960, Note_on_c, 0, 77, 80
2, 46012, Note_on_c, 0, 77, 0
2, 46020, Note_on_c, 0, 72, 80
2, 46072, Note_on_c, 0, 72, 0
2, 46080, Note_on_c, 0, 77, 80
2, 46132, Note_on_c, 0, 77, 0
2, 46140, Note_on_c, 0, 71, 80
2, 46192, Note_on_c, 0, 71, 0
2, 46200, Note_on_c, 0, 72, 80
2, 46252, Note_on_c, 0, 72, 0
2, 46260, Note_on_c, 0, 75, 80
2, 46312, Note_on_c, 0, 75, 0
2, 46320, Note_on_c, 0, 78, 80
2, 46372, Note_on_c, 0, 78, 0
2, 46380, Note_on_c, 0, 72, 80
2, 46432, Note_on_c, 0, 72, 0
2, 46440, Note_on_c, 0, 81, 80
2, 46492, Note_on_c, 0, 81, 0
2, 46500, Note_on_c, 0, 72, 80
2, 46552, Note_on_c, 0, 72, 0
2, 46560, Note_on_c, 0, 69, 80
2, 46612, Note_on_c, 0, 69, 0
2, 46620, Note_on_c, 0, 72, 80
2, 46672, Note_on_c, 0, 72, 0
2, 46680, Note_on_c, 0, 66, 80
2, 46732, Note_on_c, 0, 66, 0
2, 46740, Note_on_c, 0, 72, 80
2, 46792, Note_on_c, 0, 72, 0
2, 46800, Note_on_c, 0, 62, 80
2, 46852, Note_on_c, 0, 62, 0
2, 46860, Note_on_c, 0, 72, 80
2, 46912, Note_on_c, 0, 72, 0
2, 46920, Note_on_c, 0, 70, 80
2, 46972, Note_on_c, 0, 70, 0
2, 46980, Note_on_c, 0, 75, 80
2, 47032, Note_on_c, 0, 75, 0
2, 47040, Note_on_c, 0, 74, 80
2, 47092, Note_on_c, 0, 74, 0
2, 47100, Note_on_c, 0, 70, 80
2, 47152, Note_on_c, 0, 70, 0
2, 47160, Note_on_c, 0, 72, 80
2, 47212, Note_on_c, 0, 72, 0
2, 47220, Note_on_c, 0, 69, 80
2, 47272, Note_on_c, 0, 69, 0
2, 47280, Note_on_c, 0, 67, 80
2, 47445, Note_on_c, 0, 67, 0
2, 47460, Note_on_c, 0, 69, 80
2, 47486, Note_on_c, 0, 69, 0
2, 47490, Note_on_c, 0, 70, 80
2, 47516, Note_on_c, 0, 70, 0
2, 47520, Note_on_c, 0, 69, 80
2, 47546, Note_on_c, 0, 69, 0
2, 47550, Note_on_c, 0, 67, 80
2, 47576, Note_on_c, 0, 67, 0
2, 47580, Note_on_c, 0, 65, 80
2, 47606, Note_on_c, 0, 65, 0
2, 47610, Note_on_c, 0, 63, 80
2, 47636, Note_on_c, 0, 63, 0
2, 47640, Note_on_c, 0, 62, 80
2, 47692, Note_on_c, 0, 62, 0
2, 47700, Note_on_c, 0, 70, 80
2, 47752, Note_on_c, 0, 70, 0
2, 47760, Note_on_c, 0, 69, 80
2, 47812, Note_on_c, 0, 69, 0
2, 47820, Note_on_c, 0, 70, 80
2, 47872, Note_on_c, 0, 70, 0
2, 47880, Note_on_c, 0, 77, 80
2, 47932, Note_on_c, 0, 77, 0
2, 47940, Note_on_c, 0, 70, 80
2, 47992, Note_on_c, 0, 70, 0
2, 48000, Note_on_c, 0, 80, 80
2, 48052, Note_on_c, 0, 80, 0
2, 48060, Note_on_c, 0, 70, 80
2, 48112, Note_on_c, 0, 70, 0
2, 48120, Note_on_c, 0, 79, 80
2, 48172, Note_on_c, 0, 79, 0
2, 48180, Note_on_c, 0, 70, 80
2, 48232, Note_on_c, 0, 70, 0
2, 48240, Note_on_c, 0, 77, 80
2, 48292, Note_on_c, 0, 77, 0
2, 48300, Note_on_c, 0, 70, 80
2, 48352, Note_on_c, 0, 70, 0
2, 48360, Note_on_c, 0, 63, 80
2, 48412, Note_on_c, 0, 63, 0
2, 48420, Note_on_c, 0, 70, 80
2, 48472, Note_on_c, 0, 70, 0
2, 48480, Note_on_c, 0, 69, 80
2, 48532, Note_on_c, 0, 69, 0
2, 48540, Note_on_c, 0, 70, 80
2, 48592, Note_on_c, 0, 70, 0
2, 48600, Note_on_c, 0, 79, 80
2, 48652, Note_on_c, 0, 79, 0
2, 48660, Note_on_c, 0, 70, 80
2, 48712, Note_on_c, 0, 70, 0
2, 48720, Note_on_c, 0, 63, 80
2, 48772, Note_on_c, 0, 63, 0
2, 48780, Note_on_c, 0, 70, 80
2, 48832, Note_on_c, 0, 70, 0
2, 48840, Note_on_c, 0, 65, 80
2, 48892, Note_on_c, 0, 65, 0
2, 48900, Note_on_c, 0, 70, 80
2, 48952, Note_on_c, 0, 70, 0
2, 48960, Note_on_c, 0, 67, 80
2, 49012, Note_on_c, 0, 67, 0
2, 49020, Note_on_c, 0, 70, 80
2, 49072, Note_on_c, 0, 70, 0
2, 49080, Note_on_c, 0, 72, 80
2, 49132, Note_on_c, 0, 72, 0
2, 49140, Note_on_c, 0, 70, 80
2, 49192, Note_on_c, 0, 70, 0
2, 49200, Note_on_c, 0, 74, 80
2, 49252, Note_on_c, 0, 74, 0
2, 49260, Note_on_c, 0, 68, 80
2, 49312, Note_on_c, 0, 68, 0
2, 49320, Note_on_c, 0, 75, 80
2, 49372, Note_on_c, 0, 75, 0
2, 49380, Note_on_c, 0, 67, 80
2, 49432, Note_on_c, 0, 67, 0
2, 49440, Note_on_c, 0, 77, 80
2, 49492, Note_on_c, 0, 77, 0
2, 49500, Note_on_c, 0, 75, 80
2, 49552, Note_on_c, 0, 75, 0
2, 49560, Note_on_c, 0, 79, 80
2, 49612, Note_on_c, 0, 79, 0
2, 49620, Note_on_c, 0, 74, 80
2, 49672, Note_on_c, 0, 74, 0
2, 49680, Note_on_c, 0, 81, 80
2, 49732, Note_on_c, 0, 81, 0
2, 49740, Note_on_c, 0, 72, 80
2, 49792, Note_on_c, 0, 72, 0
2, 49800, Note_on_c, 0, 82, 80
2, 49852, Note_on_c, 0, 82, 0
2, 49860, Note_on_c, 0, 81, 80
2, 49912, Note_on_c, 0, 81, 0
2, 49920, Note_on_c, 0, 79, 80
2, 49972, Note_on_c, 0, 79, 0
2, 49980, Note_on_c, 0, 77, 80
2, 50032, Note_on_c, 0, 77, 0
2, 50040, Note_on_c, 0, 75, 80
2, 50092, Note_on_c, 0, 75, 0
2, 50100, Note_on_c, 0, 74, 80
2, 50152, Note_on_c, 0, 74, 0
2, 50160, Note_on_c, 0, 72, 80
2, 50212, Note_on_c, 0, 72, 0
2, 50220, Note_on_c, 0, 70, 80
2, 50272, Note_on_c, 0, 70, 0
2, 50280, Note_on_c, 0, 69, 80
2, 50332, Note_on_c, 0, 69, 0
2, 50340, Note_on_c, 0, 67, 80
2, 50392, Note_on_c, 0, 67, 0
2, 50400, Note_on_c, 0, 65, 80
2, 50452, Note_on_c, 0, 65, 0
2, 50460, Note_on_c, 0, 63, 80
2, 50512, Note_on_c, 0, 63, 0
2, 50520, Note_on_c, 0, 62, 80
2, 50572, Note_on_c, 0, 62, 0
2, 50580, Note_on_c, 0, 77, 80
2, 50632, Note_on_c, 0, 77, 0
2, 50640, Note_on_c, 0, 79, 80
2, 50692, Note_on_c, 0, 79, 0
2, 50700, Note_on_c, 0, 77, 80
2, 50752, Note_on_c, 0, 77, 0
2, 50760, Note_on_c, 0, 72, 80
2, 50812, Note_on_c, 0, 72, 0
2, 50820, Note_on_c, 0, 77, 80
2, 50872, Note_on_c, 0, 77, 0
2, 50880, Note_on_c, 0, 71, 80
2, 50932, Note_on_c, 0, 71, 0
2, 50940, Note_on_c, 0, 77, 80
2, 50992, Note_on_c, 0, 77, 0
2, 51000, Note_on_c, 0, 69, 80
2, 51052, Note_on_c, 0, 69, 0
2, 51060, Note_on_c, 0, 77, 80
2, 51112, Note_on_c, 0, 77, 0
2, 51120, Note_on_c, 0, 67, 80
2, 51172, Note_on_c, 0, 67, 0
2, 51180, Note_on_c, 0, 77, 80
2, 51232, Note_on_c, 0, 77, 0
2, 51240, Note_on_c, 0, 60, 80
2, 51292, Note_on_c, 0, 60, 0
2, 51300, Note_on_c, 0, 75, 80
2, 51352, Note_on_c, 0, 75, 0
2, 51360, Note_on_c, 0, 77, 80
2, 51412, Note_on_c, 0, 77, 0
2, 51420, Note_on_c, 0, 75, 80
2, 51472, Note_on_c, 0, 75, 0
2, 51480, Note_on_c, 0, 70, 80
2, 51532, Note_on_c, 0, 70, 0
2, 51540, Note_on_c, 0, 75, 80
2, 51592, Note_on_c, 0, 75, 0
2, 51600, Note_on_c, 0, 69, 80
2, 51652, Note_on_c, 0, 69, 0
2, 51660, Note_on_c, 0, 75, 80
2, 51712, Note_on_c, 0, 75, 0
2, 51720, Note_on_c, 0, 67, 80
2, 51772, Note_on_c, 0, 67, 0
2, 51780, Note_on_c, 0, 75, 80
2, 51832, Note_on_c, 0, 75, 0
2, 51840, Note_on_c, 0, 65, 80
2, 51892, Note_on_c, 0, 65, 0
2, 51900, Note_on_c, 0, 75, 80
2, 51952, Note_on_c, 0, 75, 0
2, 51960, Note_on_c, 0, 74, 80
2, 52012, Note_on_c, 0, 74, 0
2, 52020, Note_on_c, 0, 77, 80
2, 52072, Note_on_c, 0, 77, 0
2, 52080, Note_on_c, 0, 74, 80
2, 52132, Note_on_c, 0, 74, 0
2, 52140, Note_on_c, 0, 70, 80
2, 52192, Note_on_c, 0, 70, 0
2, 52200, Note_on_c, 0, 65, 80
2, 52252, Note_on_c, 0, 65, 0
2, 52260, Note_on_c, 0, 69, 80
2, 52312, Note_on_c, 0, 69, 0
2, 52320, Note_on_c, 0, 70, 80
2, 52665, Note_on_c, 0, 70, 0
2, 52665, End_track
3, 0, Start_track
3, 0, MIDI_port, 0
3, 0, Program_c, 1, 5
3, 0, Control_c, 1, 7, 120
3, 0, Control_c, 1, 10, 100
3, 27450, Program_c, 1, 100
3, 27455, Control_c, 1, 7, 105
3, 27460, Control_c, 1, 10, 100
3, 28200, Note_on_c, 1, 67, 80
3, 28305, Note_on_c, 1, 67, 0
3, 28320, Note_on_c, 1, 75, 80
3, 28425, Note_on_c, 1, 75, 0
3, 28440, Note_on_c, 1, 74, 80
3, 28545, Note_on_c, 1, 74, 0
3, 28560, Note_on_c, 1, 72, 80
3, 28665, Note_on_c, 1, 72, 0
3, 28920, Note_on_c, 1, 65, 80
3, 29145, Note_on_c, 1, 65, 0
3, 29640, Note_on_c, 1, 67, 80
3, 29745, Note_on_c, 1, 67, 0
3, 29760, Note_on_c, 1, 75, 80
3, 29865, Note_on_c, 1, 75, 0
3, 29880, Note_on_c, 1, 74, 80
3, 29985, Note_on_c, 1, 74, 0
3, 30000, Note_on_c, 1, 74, 80
3, 30026, Note_on_c, 1, 74, 0
3, 30030, Note_on_c, 1, 72, 80
3, 30240, Program_c, 1, 5
3, 30345, Note_on_c, 1, 72, 0
3, 30350, Control_c, 1, 7, 120
3, 31080, Note_on_c, 1, 67, 80
3, 31185, Note_on_c, 1, 67, 0
3, 31200, Note_on_c, 1, 75, 80
3, 31305, Note_on_c, 1, 75, 0
3, 31320, Note_on_c, 1, 74, 80
3, 31425, Note_on_c, 1, 74, 0
3, 31440, Note_on_c, 1, 72, 80
3, 31545, Note_on_c, 1, 72, 0
3, 31800, Note_on_c, 1, 65, 80
3, 32025, Note_on_c, 1, 65, 0
3, 32520, Note_on_c, 1, 67, 80
3, 32625, Note_on_c, 1, 67, 0
3, 32640, Note_on_c, 1, 75, 80
3, 32745, Note_on_c, 1, 75, 0
3, 32760, Note_on_c, 1, 74, 80
3, 32865, Note_on_c, 1, 74, 0
3, 32880, Note_on_c, 1, 74, 80
3, 33000, Note_on_c, 1, 74, 0
3, 33000, Note_on_c, 1, 72, 80
3, 33120, Program_c, 1, 100
3, 33225, Note_on_c, 1, 72, 0
3, 33230, Control_c, 1, 10, 35
3, 33235, Control_c, 1, 7, 105
3, 33240, Note_on_c, 1, 69, 80
3, 33345, Note_on_c, 1, 69, 0
3, 33360, Note_on_c, 1, 70, 80
3, 33465, Note_on_c, 1, 70, 0
3, 33480, Note_on_c, 1, 72, 80
3, 33585, Note_on_c, 1, 72, 0
3, 33600, Note_on_c, 1, 70, 80
3, 33705, Note_on_c, 1, 70, 0
3, 33720, Note_on_c, 1, 69, 80
3, 33825, Note_on_c, 1, 69, 0
3, 33840, Note_on_c, 1, 67, 80
3, 33945, Note_on_c, 1, 67, 0
3, 33960, Note_on_c, 1, 66, 80
3, 34065, Note_on_c, 1, 66, 0
3, 34080, Note_on_c, 1, 62, 80
3, 34185, Note_on_c, 1, 62, 0
3, 34200, Note_on_c, 1, 69, 80
3, 34305, Note_on_c, 1, 69, 0
3, 34320, Note_on_c, 1, 67, 80
3, 34425, Note_on_c, 1, 67, 0
3, 34440, Note_on_c, 1, 66, 80
3, 34545, Note_on_c, 1, 66, 0
3, 34560, Note_on_c, 1, 67, 80
3, 34665, Note_on_c, 1, 67, 0
3, 34680, Note_on_c, 1, 70, 80
3, 34905, Note_on_c, 1, 70, 0
3, 34920, Note_on_c, 1, 68, 80
3, 35025, Note_on_c, 1, 68, 0
3, 35040, Note_on_c, 1, 67, 80
3, 35145, Note_on_c, 1, 67, 0
3, 35160, Note_on_c, 1, 69, 80
3, 35265, Note_on_c, 1, 69, 0
3, 35280, Note_on_c, 1, 70, 80
3, 35385, Note_on_c, 1, 70, 0
3, 35400, Note_on_c, 1, 65, 80
3, 35625, Note_on_c, 1, 65, 0
3, 35640, Note_on_c, 1, 65, 80
3, 35745, Note_on_c, 1, 65, 0
3, 35760, Note_on_c, 1, 65, 80
3, 36000, Program_c, 1, 5
3, 36105, Note_on_c, 1, 65, 0
3, 36106, Control_c, 1, 10, 40
3, 36108, Control_c, 1, 7, 120
3, 36120, Note_on_c, 1, 69, 80
3, 36225, Note_on_c, 1, 69, 0
3, 36240, Note_on_c, 1, 70, 80
3, 36345, Note_on_c, 1, 70, 0
3, 36360, Note_on_c, 1, 72, 80
3, 36465, Note_on_c, 1, 72, 0
3, 36480, Note_on_c, 1, 70, 80
3, 36585, Note_on_c, 1, 70, 0
3, 36600, Note_on_c, 1, 69, 80
3, 36705, Note_on_c, 1, 69, 0
3, 36720, Note_on_c, 1, 67, 80
3, 36825, Note_on_c, 1, 67, 0
3, 36840, Note_on_c, 1, 66, 80
3, 36945, Note_on_c, 1, 66, 0
3, 36960, Note_on_c, 1, 62, 80
3, 37065, Note_on_c, 1, 62, 0
3, 37080, Note_on_c, 1, 69, 80
3, 37185, Note_on_c, 1, 69, 0
3, 37200, Note_on_c, 1, 67, 80
3, 37305, Note_on_c, 1, 67, 0
3, 37320, Note_on_c, 1, 66, 80
3, 37425, Note_on_c, 1, 66, 0
3, 37440, Note_on_c, 1, 67, 80
3, 37545, Note_on_c, 1, 67, 0
3, 37560, Note_on_c, 1, 70, 80
3, 37785, Note_on_c, 1, 70, 0
3, 37800, Note_on_c, 1, 68, 80
3, 37905, Note_on_c, 1, 68, 0
3, 37920, Note_on_c, 1, 67, 80
3, 38025, Note_on_c, 1, 67, 0
3, 38040, Note_on_c, 1, 69, 80
3, 38145, Note_on_c, 1, 69, 0
3, 38160, Note_on_c, 1, 70, 80
3, 38265, Note_on_c, 1, 70, 0
3, 38280, Note_on_c, 1, 65, 80
3, 38505, Note_on_c, 1, 65, 0
3, 38520, Note_on_c, 1, 65, 80
3, 38625, Note_on_c, 1, 65, 0
3, 38640, Note_on_c, 1, 65, 80
3, 38985, Note_on_c, 1, 65, 0
3, 38985, End_track
4, 0, Start_track
4, 0, MIDI_port, 0
4, 0, Program_c, 2, 3
4, 0, Control_c, 2, 7, 110
4, 0, Control_c, 2, 10, 40
4, 27360, Program_c, 2, 4
4, 27460, Control_c, 2, 10, 40
4, 27468, Control_c, 2, 7, 105
4, 27600, Note_on_c, 2, 60, 80
4, 27705, Note_on_c, 2, 60, 0
4, 27720, Note_on_c, 2, 62, 80
4, 27825, Note_on_c, 2, 62, 0
4, 27840, Note_on_c, 2, 63, 80
4, 27960, Note_on_c, 2, 65, 80
4, 28065, Note_on_c, 2, 63, 0
4, 28185, Note_on_c, 2, 65, 0
4, 28200, Note_on_c, 2, 63, 80
4, 28425, Note_on_c, 2, 63, 0
4, 28440, Note_on_c, 2, 65, 80
4, 28665, Note_on_c, 2, 65, 0
4, 28680, Note_on_c, 2, 60, 80
4, 28785, Note_on_c, 2, 60, 0
4, 28800, Note_on_c, 2, 63, 80
4, 29025, Note_on_c, 2, 63, 0
4, 29040, Note_on_c, 2, 60, 80
4, 29145, Note_on_c, 2, 60, 0
4, 29160, Note_on_c, 2, 62, 80
4, 29265, Note_on_c, 2, 62, 0
4, 29280, Note_on_c, 2, 63, 80
4, 29400, Note_on_c, 2, 65, 80
4, 29505, Note_on_c, 2, 63, 0
4, 29625, Note_on_c, 2, 65, 0
4, 29640, Note_on_c, 2, 63, 80
4, 29865, Note_on_c, 2, 63, 0
4, 29880, Note_on_c, 2, 65, 80
4, 29985, Note_on_c, 2, 65, 0
4, 30000, Note_on_c, 2, 65, 80
4, 30320, Program_c, 2, 3
4, 30345, Note_on_c, 2, 65, 0
4, 30352, Control_c, 2, 7, 110
4, 30480, Note_on_c, 2, 60, 80
4, 30585, Note_on_c, 2, 60, 0
4, 30600, Note_on_c, 2, 62, 80
4, 30705, Note_on_c, 2, 62, 0
4, 30720, Note_on_c, 2, 63, 80
4, 30840, Note_on_c, 2, 65, 80
4, 30945, Note_on_c, 2, 63, 0
4, 31065, Note_on_c, 2, 65, 0
4, 31080, Note_on_c, 2, 63, 80
4, 31305, Note_on_c, 2, 63, 0
4, 31320, Note_on_c, 2, 65, 80
4, 31545, Note_on_c, 2, 65, 0
4, 31560, Note_on_c, 2, 60, 80
4, 31665, Note_on_c, 2, 60, 0
4, 31680, Note_on_c, 2, 63, 80
4, 31905, Note_on_c, 2, 63, 0
4, 31920, Note_on_c, 2, 60, 80
4, 32025, Note_on_c, 2, 60, 0
4, 32040, Note_on_c, 2, 62, 80
4, 32145, Note_on_c, 2, 62, 0
4, 32160, Note_on_c, 2, 63, 80
4, 32280, Note_on_c, 2, 65, 80
4, 32385, Note_on_c, 2, 63, 0
4, 32505, Note_on_c, 2, 65, 0
4, 32520, Note_on_c, 2, 63, 80
4, 32745, Note_on_c, 2, 63, 0
4, 32760, Note_on_c, 2, 65, 80
4, 32865, Note_on_c, 2, 65, 0
4, 32880, Note_on_c, 2, 65, 80
4, 33120, Program_c, 2, 4
4, 33225, Note_on_c, 2, 65, 0
4, 33238, Control_c, 2, 7, 105
4, 33240, Note_on_c, 2, 60, 80
4, 33465, Note_on_c, 2, 60, 0
4, 33480, Note_on_c, 2, 65, 80
4, 33705, Note_on_c, 2, 65, 0
4, 33720, Note_on_c, 2, 60, 80
4, 34065, Note_on_c, 2, 60, 0
4, 34080, Note_on_c, 2, 58, 80
4, 34132, Note_on_c, 2, 58, 0
4, 34140, Note_on_c, 2, 57, 80
4, 34192, Note_on_c, 2, 57, 0
4, 34200, Note_on_c, 2, 55, 80
4, 34252, Note_on_c, 2, 55, 0
4, 34260, Note_on_c, 2, 54, 80
4, 34312, Note_on_c, 2, 54, 0
4, 34320, Note_on_c, 2, 55, 80
4, 34425, Note_on_c, 2, 55, 0
4, 34440, Note_on_c, 2, 50, 80
4, 34545, Note_on_c, 2, 50, 0
4, 34560, Note_on_c, 2, 43, 80
4, 34665, Note_on_c, 2, 43, 0
4, 34800, Note_on_c, 2, 57, 80
4, 34905, Note_on_c, 2, 57, 0
4, 34920, Note_on_c, 2, 58, 80
4, 35145, Note_on_c, 2, 58, 0
4, 35160, Note_on_c, 2, 60, 80
4, 35265, Note_on_c, 2, 60, 0
4, 35280, Note_on_c, 2, 62, 80
4, 35505, Note_on_c, 2, 62, 0
4, 35520, Note_on_c, 2, 60, 80
4, 35625, Note_on_c, 2, 60, 0
4, 35640, Note_on_c, 2, 63, 80
4, 35745, Note_on_c, 2, 63, 0
4, 35760, Note_on_c, 2, 58, 80
4, 35760, Note_on_c, 2, 62, 80
4, 36000, Program_c, 2, 3
4, 36105, Note_on_c, 2, 62, 0
4, 36105, Note_on_c, 2, 58, 0
4, 36106, Control_c, 2, 7, 110
4, 36120, Note_on_c, 2, 60, 80
4, 36345, Note_on_c, 2, 60, 0
4, 36360, Note_on_c, 2, 65, 80
4, 36585, Note_on_c, 2, 65, 0
4, 36600, Note_on_c, 2, 60, 80
4, 36945, Note_on_c, 2, 60, 0
4, 36960, Note_on_c, 2, 58, 80
4, 37012, Note_on_c, 2, 58, 0
4, 37020, Note_on_c, 2, 57, 80
4, 37072, Note_on_c, 2, 57, 0
4, 37080, Note_on_c, 2, 55, 80
4, 37132, Note_on_c, 2, 55, 0
4, 37140, Note_on_c, 2, 54, 80
4, 37192, Note_on_c, 2, 54, 0
4, 37200, Note_on_c, 2, 55, 80
4, 37305, Note_on_c, 2, 55, 0
4, 37320, Note_on_c, 2, 50, 80
4, 37425, Note_on_c, 2, 50, 0
4, 37440, Note_on_c, 2, 43, 80
4, 37545, Note_on_c, 2, 43, 0
4, 37680, Note_on_c, 2, 57, 80
4, 37785, Note_on_c, 2, 57, 0
4, 37800, Note_on_c, 2, 58, 80
4, 38025, Note_on_c, 2, 58, 0
4, 38040, Note_on_c, 2, 60, 80
4, 38145, Note_on_c, 2, 60, 0
4, 38160, Note_on_c, 2, 62, 80
4, 38385, Note_on_c, 2, 62, 0
4, 38400, Note_on_c, 2, 60, 80
4, 38505, Note_on_c, 2, 60, 0
4, 38520, Note_on_c, 2, 63, 80
4, 38625, Note_on_c, 2, 63, 0
4, 38640, Note_on_c, 2, 58, 80
4, 38640, Note_on_c, 2, 62, 80
4, 38985, Note_on_c, 2, 62, 0
4, 38985, Note_on_c, 2, 58, 0
4, 38985, End_track
5, 0, Start_track
5, 0, MIDI_port, 0
5, 0, Program_c, 3, 43
5, 0, Control_c, 3, 7, 120
5, 0, Control_c, 3, 10, 90
5, 40, Control_c, 3, 10, 89
5, 48, Control_c, 3, 7, 94
5, 120, Note_on_c, 3, 58, 80
5, 225, Note_on_c, 3, 58, 0
5, 240, Note_on_c, 3, 53, 80
5, 345, Note_on_c, 3, 53, 0
5, 360, Note_on_c, 3, 50, 80
5, 465, Note_on_c, 3, 50, 0
5, 480, Note_on_c, 3, 46, 80
5, 585, Note_on_c, 3, 46, 0
5, 600, Note_on_c, 3, 48, 80
5, 705, Note_on_c, 3, 48, 0
5, 720, Note_on_c, 3, 50, 80
5, 825, Note_on_c, 3, 50, 0
5, 840, Note_on_c, 3, 45, 80
5, 945, Note_on_c, 3, 45, 0
5, 960, Note_on_c, 3, 48, 80
5, 1065, Note_on_c, 3, 48, 0
5, 1080, Note_on_c, 3, 53, 80
5, 1185, Note_on_c, 3, 53, 0
5, 1200, Note_on_c, 3, 57, 80
5, 1305, Note_on_c, 3, 57, 0
5, 1320, Note_on_c, 3, 58, 80
5, 1372, Note_on_c, 3, 58, 0
5, 1380, Note_on_c, 3, 57, 80
5, 1432, Note_on_c, 3, 57, 0
5, 1440, Note_on_c, 3, 55, 80
5, 1492, Note_on_c, 3, 55, 0
5, 1500, Note_on_c, 3, 53, 80
5, 1552, Note_on_c, 3, 53, 0
5, 1560, Note_on_c, 3, 58, 80
5, 1665, Note_on_c, 3, 58, 0
5, 1680, Note_on_c, 3, 60, 80
5, 1785, Note_on_c, 3, 60, 0
5, 1800, Note_on_c, 3, 62, 80
5, 1905, Note_on_c, 3, 62, 0
5, 1920, Note_on_c, 3, 63, 80
5, 2025, Note_on_c, 3, 63, 0
5, 2040, Note_on_c, 3, 65, 80
5, 2145, Note_on_c, 3, 65, 0
5, 2160, Note_on_c, 3, 67, 80
5, 2265, Note_on_c, 3, 67, 0
5, 2280, Note_on_c, 3, 69, 80
5, 2385, Note_on_c, 3, 69, 0
5, 2400, Note_on_c, 3, 70, 80
5, 2505, Note_on_c, 3, 70, 0
5, 2520, Note_on_c, 3, 58, 80
5, 2625, Note_on_c, 3, 58, 0
5, 2640, Note_on_c, 3, 65, 80
5, 2745, Note_on_c, 3, 65, 0
5, 2760, Note_on_c, 3, 53, 80
5, 2865, Note_on_c, 3, 53, 0
5, 2880, Note_on_c, 3, 57, 80
5, 2985, Note_on_c, 3, 57, 0
5, 3000, Note_on_c, 3, 58, 80
5, 3105, Note_on_c, 3, 58, 0
5, 3120, Note_on_c, 3, 53, 80
5, 3225, Note_on_c, 3, 53, 0
5, 3240, Note_on_c, 3, 50, 80
5, 3345, Note_on_c, 3, 50, 0
5, 3360, Note_on_c, 3, 46, 80
5, 3465, Note_on_c, 3, 46, 0
5, 3480, Note_on_c, 3, 48, 80
5, 3585, Note_on_c, 3, 48, 0
5, 3600, Note_on_c, 3, 50, 80
5, 3705, Note_on_c, 3, 50, 0
5, 3720, Note_on_c, 3, 45, 80
5, 3825, Note_on_c, 3, 45, 0
5, 3840, Note_on_c, 3, 48, 80
5, 3945, Note_on_c, 3, 48, 0
5, 3960, Note_on_c, 3, 53, 80
5, 4065, Note_on_c, 3, 53, 0
5, 4080, Note_on_c, 3, 57, 80
5, 4185, Note_on_c, 3, 57, 0
5, 4200, Note_on_c, 3, 58, 80
5, 4252, Note_on_c, 3, 58, 0
5, 4260, Note_on_c, 3, 57, 80
5, 4312, Note_on_c, 3, 57, 0
5, 4320, Note_on_c, 3, 55, 80
5, 4372, Note_on_c, 3, 55, 0
5, 4380, Note_on_c, 3, 53, 80
5, 4432, Note_on_c, 3, 53, 0
5, 4440, Note_on_c, 3, 58, 80
5, 4545, Note_on_c, 3, 58, 0
5, 4560, Note_on_c, 3, 60, 80
5, 4665, Note_on_c, 3, 60, 0
5, 4680, Note_on_c, 3, 62, 80
5, 4785, Note_on_c, 3, 62, 0
5, 4800, Note_on_c, 3, 52, 80
5, 4905, Note_on_c, 3, 52, 0
5, 4920, Note_on_c, 3, 50, 80
5, 5025, Note_on_c, 3, 50, 0
5, 5040, Note_on_c, 3, 48, 80
5, 5145, Note_on_c, 3, 48, 0
5, 5160, Note_on_c, 3, 53, 80
5, 5265, Note_on_c, 3, 53, 0
5, 5280, Note_on_c, 3, 46, 80
5, 5385, Note_on_c, 3, 46, 0
5, 5400, Note_on_c, 3, 48, 80
5, 5505, Note_on_c, 3, 48, 0
5, 5520, Note_on_c, 3, 41, 80
5, 5572, Note_on_c, 3, 41, 0
5, 5580, Note_on_c, 3, 45, 80
5, 5632, Note_on_c, 3, 45, 0
5, 5640, Note_on_c, 3, 48, 80
5, 5690, Program_c, 3, 99
5, 5690, Control_c, 3, 7, 104
5, 5692, Note_on_c, 3, 48, 0
5, 5692, Control_c, 3, 10, 35
5, 5700, Note_on_c, 3, 53, 80
5, 5752, Note_on_c, 3, 53, 0
5, 5760, Note_on_c, 3, 55, 80
5, 5812, Note_on_c, 3, 55, 0
5, 5820, Note_on_c, 3, 57, 80
5, 5872, Note_on_c, 3, 57, 0
5, 5880, Note_on_c, 3, 58, 80
5, 5985, Note_on_c, 3, 58, 0
5, 6000, Note_on_c, 3, 53, 80
5, 6105, Note_on_c, 3, 53, 0
5, 6120, Note_on_c, 3, 50, 80
5, 6225, Note_on_c, 3, 50, 0
5, 6240, Note_on_c, 3, 46, 80
5, 6345, Note_on_c, 3, 46, 0
5, 6360, Note_on_c, 3, 48, 80
5, 6465, Note_on_c, 3, 48, 0
5, 6480, Note_on_c, 3, 50, 80
5, 6585, Note_on_c, 3, 50, 0
5, 6600, Note_on_c, 3, 45, 80
5, 6705, Note_on_c, 3, 45, 0
5, 6720, Note_on_c, 3, 48, 80
5, 6825, Note_on_c, 3, 48, 0
5, 6840, Note_on_c, 3, 53, 80
5, 6945, Note_on_c, 3, 53, 0
5, 6960, Note_on_c, 3, 57, 80
5, 7065, Note_on_c, 3, 57, 0
5, 7080, Note_on_c, 3, 58, 80
5, 7132, Note_on_c, 3, 58, 0
5, 7140, Note_on_c, 3, 57, 80
5, 7192, Note_on_c, 3, 57, 0
5, 7200, Note_on_c, 3, 55, 80
5, 7252, Note_on_c, 3, 55, 0
5, 7260, Note_on_c, 3, 53, 80
5, 7312, Note_on_c, 3, 53, 0
5, 7320, Note_on_c, 3, 58, 80
5, 7425, Note_on_c, 3, 58, 0
5, 7440, Note_on_c, 3, 60, 80
5, 7545, Note_on_c, 3, 60, 0
5, 7560, Note_on_c, 3, 62, 80
5, 7665, Note_on_c, 3, 62, 0
5, 7680, Note_on_c, 3, 63, 80
5, 7785, Note_on_c, 3, 63, 0
5, 7800, Note_on_c, 3, 65, 80
5, 7905, Note_on_c, 3, 65, 0
5, 7920, Note_on_c, 3, 67, 80
5, 8025, Note_on_c, 3, 67, 0
5, 8040, Note_on_c, 3, 69, 80
5, 8145, Note_on_c, 3, 69, 0
5, 8160, Note_on_c, 3, 70, 80
5, 8265, Note_on_c, 3, 70, 0
5, 8280, Note_on_c, 3, 58, 80
5, 8385, Note_on_c, 3, 58, 0
5, 8400, Note_on_c, 3, 65, 80
5, 8505, Note_on_c, 3, 65, 0
5, 8520, Note_on_c, 3, 53, 80
5, 8625, Note_on_c, 3, 53, 0
5, 8640, Note_on_c, 3, 57, 80
5, 8745, Note_on_c, 3, 57, 0
5, 8760, Note_on_c, 3, 58, 80
5, 8865, Note_on_c, 3, 58, 0
5, 8880, Note_on_c, 3, 53, 80
5, 8985, Note_on_c, 3, 53, 0
5, 9000, Note_on_c, 3, 50, 80
5, 9105, Note_on_c, 3, 50, 0
5, 9120, Note_on_c, 3, 46, 80
5, 9225, Note_on_c, 3, 46, 0
5, 9240, Note_on_c, 3, 48, 80
5, 9345, Note_on_c, 3, 48, 0
5, 9360, Note_on_c, 3, 50, 80
5, 9465, Note_on_c, 3, 50, 0
5, 9480, Note_on_c, 3, 45, 80
5, 9585, Note_on_c, 3, 45, 0
5, 9600, Note_on_c, 3, 48, 80
5, 9705, Note_on_c, 3, 48, 0
5, 9720, Note_on_c, 3, 53, 80
5, 9825, Note_on_c, 3, 53, 0
5, 9840, Note_on_c, 3, 57, 80
5, 9945, Note_on_c, 3, 57, 0
5, 9960, Note_on_c, 3, 58, 80
5, 10012, Note_on_c, 3, 58, 0
5, 10020, Note_on_c, 3, 57, 80
5, 10072, Note_on_c, 3, 57, 0
5, 10080, Note_on_c, 3, 55, 80
5, 10132, Note_on_c, 3, 55, 0
5, 10140, Note_on_c, 3, 53, 80
5, 10192, Note_on_c, 3, 53, 0
5, 10200, Note_on_c, 3, 58, 80
5, 10305, Note_on_c, 3, 58, 0
5, 10320, Note_on_c, 3, 60, 80
5, 10425, Note_on_c, 3, 60, 0
5, 10440, Note_on_c, 3, 62, 80
5, 10545, Note_on_c, 3, 62, 0
5, 10560, Note_on_c, 3, 52, 80
5, 10665, Note_on_c, 3, 52, 0
5, 10680, Note_on_c, 3, 50, 80
5, 10785, Note_on_c, 3, 50, 0
5, 10800, Note_on_c, 3, 48, 80
5, 10905, Note_on_c, 3, 48, 0
5, 10920, Note_on_c, 3, 53, 80
5, 11025, Note_on_c, 3, 53, 0
5, 11040, Note_on_c, 3, 46, 80
5, 11145, Note_on_c, 3, 46, 0
5, 11160, Note_on_c, 3, 48, 80
5, 11265, Note_on_c, 3, 48, 0
5, 11280, Note_on_c, 3, 53, 80
5, 11385, Note_on_c, 3, 53, 0
5, 11400, Note_on_c, 3, 48, 80
5, 11505, Note_on_c, 3, 48, 0
5, 11520, Note_on_c, 3, 45, 80
5, 11625, Note_on_c, 3, 45, 0
5, 11625, Control_c, 3, 7, 95
5, 11627, Control_c, 3, 10, 90
5, 11630, Program_c, 3, 43
5, 11640, Note_on_c, 3, 41, 80
5, 11745, Note_on_c, 3, 41, 0
5, 11760, Note_on_c, 3, 48, 80
5, 11865, Note_on_c, 3, 48, 0
5, 11880, Note_on_c, 3, 53, 80
5, 11985, Note_on_c, 3, 53, 0
5, 12000, Note_on_c, 3, 51, 80
5, 12105, Note_on_c, 3, 51, 0
5, 12120, Note_on_c, 3, 50, 80
5, 12225, Note_on_c, 3, 50, 0
5, 12240, Note_on_c, 3, 46, 80
5, 12345, Note_on_c, 3, 46, 0
5, 12360, Note_on_c, 3, 51, 80
5, 12465, Note_on_c, 3, 51, 0
5, 12480, Note_on_c, 3, 55, 80
5, 12585, Note_on_c, 3, 55, 0
5, 12600, Note_on_c, 3, 56, 80
5, 12705, Note_on_c, 3, 56, 0
5, 12720, Note_on_c, 3, 50, 80
5, 12825, Note_on_c, 3, 50, 0
5, 12840, Note_on_c, 3, 55, 80
5, 12945, Note_on_c, 3, 55, 0
5, 12960, Note_on_c, 3, 43, 80
5, 13065, Note_on_c, 3, 43, 0
5, 13080, Note_on_c, 3, 48, 80
5, 13185, Note_on_c, 3, 48, 0
5, 13200, Note_on_c, 3, 57, 80
5, 13305, Note_on_c, 3, 57, 0
5, 13320, Note_on_c, 3, 55, 80
5, 13425, Note_on_c, 3, 55, 0
5, 13440, Note_on_c, 3, 54, 80
5, 13545, Note_on_c, 3, 54, 0
5, 13560, Note_on_c, 3, 50, 80
5, 13665, Note_on_c, 3, 50, 0
5, 13680, Note_on_c, 3, 54, 80
5, 13785, Note_on_c, 3, 54, 0
5, 13800, Note_on_c, 3, 55, 80
5, 13905, Note_on_c, 3, 55, 0
5, 13920, Note_on_c, 3, 46, 80
5, 14025, Note_on_c, 3, 46, 0
5, 14040, Note_on_c, 3, 50, 80
5, 14145, Note_on_c, 3, 50, 0
5, 14160, Note_on_c, 3, 43, 80
5, 14212, Note_on_c, 3, 43, 0
5, 14220, Note_on_c, 3, 45, 80
5, 14272, Note_on_c, 3, 45, 0
5, 14280, Note_on_c, 3, 46, 80
5, 14332, Note_on_c, 3, 46, 0
5, 14340, Note_on_c, 3, 48, 80
5, 14392, Note_on_c, 3, 48, 0
5, 14400, Note_on_c, 3, 50, 80
5, 14452, Note_on_c, 3, 50, 0
5, 14460, Note_on_c, 3, 51, 80
5, 14512, Note_on_c, 3, 51, 0
5, 14520, Note_on_c, 3, 53, 80
5, 14625, Note_on_c, 3, 53, 0
5, 14640, Note_on_c, 3, 51, 80
5, 14745, Note_on_c, 3, 51, 0
5, 14760, Note_on_c, 3, 50, 80
5, 14865, Note_on_c, 3, 50, 0
5, 14880, Note_on_c, 3, 53, 80
5, 14985, Note_on_c, 3, 53, 0
5, 15000, Note_on_c, 3, 51, 80
5, 15105, Note_on_c, 3, 51, 0
5, 15120, Note_on_c, 3, 50, 80
5, 15225, Note_on_c, 3, 50, 0
5, 15240, Note_on_c, 3, 55, 80
5, 15345, Note_on_c, 3, 55, 0
5, 15360, Note_on_c, 3, 53, 80
5, 15465, Note_on_c, 3, 53, 0
5, 15480, Note_on_c, 3, 51, 80
5, 15585, Note_on_c, 3, 51, 0
5, 15600, Note_on_c, 3, 55, 80
5, 15705, Note_on_c, 3, 55, 0
5, 15720, Note_on_c, 3, 53, 80
5, 15825, Note_on_c, 3, 53, 0
5, 15840, Note_on_c, 3, 51, 80
5, 15945, Note_on_c, 3, 51, 0
5, 15960, Note_on_c, 3, 56, 80
5, 16065, Note_on_c, 3, 56, 0
5, 16080, Note_on_c, 3, 58, 80
5, 16185, Note_on_c, 3, 58, 0
5, 16200, Note_on_c, 3, 60, 80
5, 16305, Note_on_c, 3, 60, 0
5, 16320, Note_on_c, 3, 62, 80
5, 16425, Note_on_c, 3, 62, 0
5, 16440, Note_on_c, 3, 63, 80
5, 16545, Note_on_c, 3, 63, 0
5, 16560, Note_on_c, 3, 65, 80
5, 16665, Note_on_c, 3, 65, 0
5, 16680, Note_on_c, 3, 67, 80
5, 16785, Note_on_c, 3, 67, 0
5, 16800, Note_on_c, 3, 69, 80
5, 16905, Note_on_c, 3, 69, 0
5, 16920, Note_on_c, 3, 70, 80
5, 17025, Note_on_c, 3, 70, 0
5, 17040, Note_on_c, 3, 65, 80
5, 17145, Note_on_c, 3, 65, 0
5, 17160, Note_on_c, 3, 53, 80
5, 17265, Note_on_c, 3, 53, 0
5, 17280, Note_on_c, 3, 57, 80
5, 17385, Note_on_c, 3, 57, 0
5, 17400, Note_on_c, 3, 62, 80
5, 17505, Note_on_c, 3, 62, 0
5, 17520, Note_on_c, 3, 50, 80
5, 17625, Note_on_c, 3, 50, 0
5, 17640, Note_on_c, 3, 53, 80
5, 17745, Note_on_c, 3, 53, 0
5, 17760, Note_on_c, 3, 55, 80
5, 17865, Note_on_c, 3, 55, 0
5, 17880, Note_on_c, 3, 57, 80
5, 17985, Note_on_c, 3, 57, 0
5, 18000, Note_on_c, 3, 59, 80
5, 18105, Note_on_c, 3, 59, 0
5, 18120, Note_on_c, 3, 60, 80
5, 18225, Note_on_c, 3, 60, 0
5, 18240, Note_on_c, 3, 48, 80
5, 18345, Note_on_c, 3, 48, 0
5, 18360, Note_on_c, 3, 51, 80
5, 18465, Note_on_c, 3, 51, 0
5, 18480, Note_on_c, 3, 53, 80
5, 18585, Note_on_c, 3, 53, 0
5, 18600, Note_on_c, 3, 55, 80
5, 18705, Note_on_c, 3, 55, 0
5, 18720, Note_on_c, 3, 57, 80
5, 18825, Note_on_c, 3, 57, 0
5, 18840, Note_on_c, 3, 58, 80
5, 18945, Note_on_c, 3, 58, 0
5, 18960, Note_on_c, 3, 51, 80
5, 19065, Note_on_c, 3, 51, 0
5, 19080, Note_on_c, 3, 53, 80
5, 19185, Note_on_c, 3, 53, 0
5, 19200, Note_on_c, 3, 46, 80
5, 19252, Note_on_c, 3, 46, 0
5, 19260, Note_on_c, 3, 50, 80
5, 19312, Note_on_c, 3, 50, 0
5, 19320, Note_on_c, 3, 48, 80
5, 19335, Program_c, 3, 99
5, 19340, Control_c, 3, 10, 35
5, 19345, Control_c, 3, 7, 105
5, 19372, Note_on_c, 3, 48, 0
5, 19380, Note_on_c, 3, 46, 80
5, 19432, Note_on_c, 3, 46, 0
5, 19440, Note_on_c, 3, 45, 80
5, 19492, Note_on_c, 3, 45, 0
5, 19500, Note_on_c, 3, 43, 80
5, 19552, Note_on_c, 3, 43, 0
5, 19560, Note_on_c, 3, 41, 80
5, 19665, Note_on_c, 3, 41, 0
5, 19680, Note_on_c, 3, 48, 80
5, 19785, Note_on_c, 3, 48, 0
5, 19800, Note_on_c, 3, 53, 80
5, 19905, Note_on_c, 3, 53, 0
5, 19920, Note_on_c, 3, 51, 80
5, 20025, Note_on_c, 3, 51, 0
5, 20040, Note_on_c, 3, 50, 80
5, 20145, Note_on_c, 3, 50, 0
5, 20160, Note_on_c, 3, 46, 80
5, 20265, Note_on_c, 3, 46, 0
5, 20280, Note_on_c, 3, 51, 80
5, 20385, Note_on_c, 3, 51, 0
5, 20400, Note_on_c, 3, 55, 80
5, 20505, Note_on_c, 3, 55, 0
5, 20520, Note_on_c, 3, 56, 80
5, 20625, Note_on_c, 3, 56, 0
5, 20640, Note_on_c, 3, 50, 80
5, 20745, Note_on_c, 3, 50, 0
5, 20760, Note_on_c, 3, 55, 80
5, 20865, Note_on_c, 3, 55, 0
5, 20880, Note_on_c, 3, 43, 80
5, 20985, Note_on_c, 3, 43, 0
5, 21000, Note_on_c, 3, 48, 80
5, 21105, Note_on_c, 3, 48, 0
5, 21120, Note_on_c, 3, 57, 80
5, 21225, Note_on_c, 3, 57, 0
5, 21240, Note_on_c, 3, 55, 80
5, 21345, Note_on_c, 3, 55, 0
5, 21360, Note_on_c, 3, 54, 80
5, 21465, Note_on_c, 3, 54, 0
5, 21480, Note_on_c, 3, 50, 80
5, 21585, Note_on_c, 3, 50, 0
5, 21600, Note_on_c, 3, 54, 80
5, 21705, Note_on_c, 3, 54, 0
5, 21720, Note_on_c, 3, 55, 80
5, 21825, Note_on_c, 3, 55, 0
5, 21840, Note_on_c, 3, 46, 80
5, 21945, Note_on_c, 3, 46, 0
5, 21960, Note_on_c, 3, 50, 80
5, 22065, Note_on_c, 3, 50, 0
5, 22080, Note_on_c, 3, 43, 80
5, 22132, Note_on_c, 3, 43, 0
5, 22140, Note_on_c, 3, 45, 80
5, 22192, Note_on_c, 3, 45, 0
5, 22200, Note_on_c, 3, 46, 80
5, 22252, Note_on_c, 3, 46, 0
5, 22260, Note_on_c, 3, 48, 80
5, 22312, Note_on_c, 3, 48, 0
5, 22320, Note_on_c, 3, 50, 80
5, 22372, Note_on_c, 3, 50, 0
5, 22380, Note_on_c, 3, 51, 80
5, 22432, Note_on_c, 3, 51, 0
5, 22440, Note_on_c, 3, 53, 80
5, 22545, Note_on_c, 3, 53, 0
5, 22560, Note_on_c, 3, 51, 80
5, 22665, Note_on_c, 3, 51, 0
5, 22680, Note_on_c, 3, 50, 80
5, 22785, Note_on_c, 3, 50, 0
5, 22800, Note_on_c, 3, 53, 80
5, 22905, Note_on_c, 3, 53, 0
5, 22920, Note_on_c, 3, 51, 80
5, 23025, Note_on_c, 3, 51, 0
5, 23040, Note_on_c, 3, 50, 80
5, 23145, Note_on_c, 3, 50, 0
5, 23160, Note_on_c, 3, 55, 80
5, 23265, Note_on_c, 3, 55, 0
5, 23280, Note_on_c, 3, 53, 80
5, 23385, Note_on_c, 3, 53, 0
5, 23400, Note_on_c, 3, 51, 80
5, 23505, Note_on_c, 3, 51, 0
5, 23520, Note_on_c, 3, 55, 80
5, 23625, Note_on_c, 3, 55, 0
5, 23640, Note_on_c, 3, 53, 80
5, 23745, Note_on_c, 3, 53, 0
5, 23760, Note_on_c, 3, 51, 80
5, 23865, Note_on_c, 3, 51, 0
5, 23880, Note_on_c, 3, 56, 80
5, 23985, Note_on_c, 3, 56, 0
5, 24000, Note_on_c, 3, 58, 80
5, 24105, Note_on_c, 3, 58, 0
5, 24120, Note_on_c, 3, 60, 80
5, 24225, Note_on_c, 3, 60, 0
5, 24240, Note_on_c, 3, 62, 80
5, 24345, Note_on_c, 3, 62, 0
5, 24360, Note_on_c, 3, 63, 80
5, 24465, Note_on_c, 3, 63, 0
5, 24480, Note_on_c, 3, 65, 80
5, 24585, Note_on_c, 3, 65, 0
5, 24600, Note_on_c, 3, 67, 80
5, 24705, Note_on_c, 3, 67, 0
5, 24720, Note_on_c, 3, 69, 80
5, 24825, Note_on_c, 3, 69, 0
5, 24840, Note_on_c, 3, 70, 80
5, 24945, Note_on_c, 3, 70, 0
5, 24960, Note_on_c, 3, 65, 80
5, 25065, Note_on_c, 3, 65, 0
5, 25080, Note_on_c, 3, 53, 80
5, 25185, Note_on_c, 3, 53, 0
5, 25200, Note_on_c, 3, 57, 80
5, 25305, Note_on_c, 3, 57, 0
5, 25320, Note_on_c, 3, 62, 80
5, 25425, Note_on_c, 3, 62, 0
5, 25440, Note_on_c, 3, 50, 80
5, 25545, Note_on_c, 3, 50, 0
5, 25560, Note_on_c, 3, 53, 80
5, 25665, Note_on_c, 3, 53, 0
5, 25680, Note_on_c, 3, 55, 80
5, 25785, Note_on_c, 3, 55, 0
5, 25800, Note_on_c, 3, 57, 80
5, 25905, Note_on_c, 3, 57, 0
5, 25920, Note_on_c, 3, 59, 80
5, 26025, Note_on_c, 3, 59, 0
5, 26040, Note_on_c, 3, 60, 80
5, 26145, Note_on_c, 3, 60, 0
5, 26160, Note_on_c, 3, 48, 80
5, 26265, Note_on_c, 3, 48, 0
5, 26280, Note_on_c, 3, 51, 80
5, 26385, Note_on_c, 3, 51, 0
5, 26400, Note_on_c, 3, 53, 80
5, 26505, Note_on_c, 3, 53, 0
5, 26520, Note_on_c, 3, 55, 80
5, 26625, Note_on_c, 3, 55, 0
5, 26640, Note_on_c, 3, 57, 80
5, 26745, Note_on_c, 3, 57, 0
5, 26760, Note_on_c, 3, 58, 80
5, 26865, Note_on_c, 3, 58, 0
5, 26880, Note_on_c, 3, 51, 80
5, 26985, Note_on_c, 3, 51, 0
5, 27000, Note_on_c, 3, 53, 80
5, 27105, Note_on_c, 3, 53, 0
5, 27120, Note_on_c, 3, 46, 80
5, 27465, Note_on_c, 3, 46, 0
5, 27466, Program_c, 3, 100
5, 27467, Control_c, 3, 10, 90
5, 27468, Control_c, 3, 7, 105
5, 27480, Note_on_c, 3, 58, 80
5, 28065, Note_on_c, 3, 58, 0
5, 28080, Note_on_c, 3, 62, 80
5, 28305, Note_on_c, 3, 62, 0
5, 28320, Note_on_c, 3, 60, 80
5, 28425, Note_on_c, 3, 60, 0
5, 28440, Note_on_c, 3, 58, 80
5, 28545, Note_on_c, 3, 58, 0
5, 28560, Note_on_c, 3, 53, 80
5, 28785, Note_on_c, 3, 53, 0
5, 28920, Note_on_c, 3, 58, 80
5, 29505, Note_on_c, 3, 58, 0
5, 29520, Note_on_c, 3, 62, 80
5, 29745, Note_on_c, 3, 62, 0
5, 29760, Note_on_c, 3, 60, 80
5, 29865, Note_on_c, 3, 60, 0
5, 29880, Note_on_c, 3, 58, 80
5, 29985, Note_on_c, 3, 58, 0
5, 30000, Note_on_c, 3, 53, 80
5, 30310, Program_c, 3, 99
5, 30345, Note_on_c, 3, 53, 0
5, 30353, Control_c, 3, 10, 35
5, 30355, Control_c, 3, 7, 120
5, 30360, Note_on_c, 3, 58, 80
5, 30945, Note_on_c, 3, 58, 0
5, 30960, Note_on_c, 3, 62, 80
5, 31185, Note_on_c, 3, 62, 0
5, 31200, Note_on_c, 3, 60, 80
5, 31305, Note_on_c, 3, 60, 0
5, 31320, Note_on_c, 3, 58, 80
5, 31425, Note_on_c, 3, 58, 0
5, 31440, Note_on_c, 3, 53, 80
5, 31665, Note_on_c, 3, 53, 0
5, 31800, Note_on_c, 3, 58, 80
5, 32385, Note_on_c, 3, 58, 0
5, 32400, Note_on_c, 3, 62, 80
5, 32625, Note_on_c, 3, 62, 0
5, 32640, Note_on_c, 3, 60, 80
5, 32745, Note_on_c, 3, 60, 0
5, 32760, Note_on_c, 3, 58, 80
5, 32865, Note_on_c, 3, 58, 0
5, 32880, Note_on_c, 3, 53, 80
5, 33120, Program_c, 3, 100
5, 33219, Control_c, 3, 10, 90
5, 33221, Control_c, 3, 7, 105
5, 33225, Note_on_c, 3, 53, 0
5, 33240, Note_on_c, 3, 53, 80
5, 33345, Note_on_c, 3, 53, 0
5, 33360, Note_on_c, 3, 55, 80
5, 33465, Note_on_c, 3, 55, 0
5, 33480, Note_on_c, 3, 57, 80
5, 33585, Note_on_c, 3, 57, 0
5, 33600, Note_on_c, 3, 58, 80
5, 33825, Note_on_c, 3, 58, 0
5, 33840, Note_on_c, 3, 58, 80
5, 33945, Note_on_c, 3, 58, 0
5, 33960, Note_on_c, 3, 57, 80
5, 34065, Note_on_c, 3, 57, 0
5, 34080, Note_on_c, 3, 54, 80
5, 34185, Note_on_c, 3, 54, 0
5, 34200, Note_on_c, 3, 50, 80
5, 34305, Note_on_c, 3, 50, 0
5, 34320, Note_on_c, 3, 55, 80
5, 34905, Note_on_c, 3, 55, 0
5, 34920, Note_on_c, 3, 53, 80
5, 35025, Note_on_c, 3, 53, 0
5, 35040, Note_on_c, 3, 51, 80
5, 35265, Note_on_c, 3, 51, 0
5, 35280, Note_on_c, 3, 50, 80
5, 35385, Note_on_c, 3, 50, 0
5, 35400, Note_on_c, 3, 53, 80
5, 35745, Note_on_c, 3, 53, 0
5, 35760, Note_on_c, 3, 46, 80
5, 36000, Program_c, 3, 99
5, 36105, Note_on_c, 3, 46, 0
5, 36105, Control_c, 3, 10, 35
5, 36107, Control_c, 3, 7, 120
5, 36120, Note_on_c, 3, 53, 80
5, 36225, Note_on_c, 3, 53, 0
5, 36240, Note_on_c, 3, 55, 80
5, 36345, Note_on_c, 3, 55, 0
5, 36360, Note_on_c, 3, 57, 80
5, 36465, Note_on_c, 3, 57, 0
5, 36480, Note_on_c, 3, 58, 80
5, 36705, Note_on_c, 3, 58, 0
5, 36720, Note_on_c, 3, 58, 80
5, 36825, Note_on_c, 3, 58, 0
5, 36840, Note_on_c, 3, 57, 80
5, 36945, Note_on_c, 3, 57, 0
5, 36960, Note_on_c, 3, 54, 80
5, 37065, Note_on_c, 3, 54, 0
5, 37080, Note_on_c, 3, 50, 80
5, 37185, Note_on_c, 3, 50, 0
5, 37200, Note_on_c, 3, 55, 80
5, 37785, Note_on_c, 3, 55, 0
5, 37800, Note_on_c, 3, 53, 80
5, 37905, Note_on_c, 3, 53, 0
5, 37920, Note_on_c, 3, 51, 80
5, 38145, Note_on_c, 3, 51, 0
5, 38160, Note_on_c, 3, 50, 80
5, 38265, Note_on_c, 3, 50, 0
5, 38280, Note_on_c, 3, 53, 80
5, 38625, Note_on_c, 3, 53, 0
5, 38640, Note_on_c, 3, 46, 80
5, 38880, Program_c, 3, 43
5, 38984, Control_c, 3, 10, 90
5, 38985, Note_on_c, 3, 46, 0
5, 38986, Control_c, 3, 7, 95
5, 39000, Note_on_c, 3, 58, 80
5, 39105, Note_on_c, 3, 58, 0
5, 39120, Note_on_c, 3, 53, 80
5, 39225, Note_on_c, 3, 53, 0
5, 39240, Note_on_c, 3, 50, 80
5, 39345, Note_on_c, 3, 50, 0
5, 39360, Note_on_c, 3, 46, 80
5, 39465, Note_on_c, 3, 46, 0
5, 39480, Note_on_c, 3, 48, 80
5, 39585, Note_on_c, 3, 48, 0
5, 39600, Note_on_c, 3, 50, 80
5, 39705, Note_on_c, 3, 50, 0
5, 39720, Note_on_c, 3, 45, 80
5, 39825, Note_on_c, 3, 45, 0
5, 39840, Note_on_c, 3, 48, 80
5, 39945, Note_on_c, 3, 48, 0
5, 39960, Note_on_c, 3, 53, 80
5, 40065, Note_on_c, 3, 53, 0
5, 40080, Note_on_c, 3, 57, 80
5, 40185, Note_on_c, 3, 57, 0
5, 40200, Note_on_c, 3, 58, 80
5, 40252, Note_on_c, 3, 58, 0
5, 40260, Note_on_c, 3, 57, 80
5, 40312, Note_on_c, 3, 57, 0
5, 40320, Note_on_c, 3, 55, 80
5, 40372, Note_on_c, 3, 55, 0
5, 40380, Note_on_c, 3, 53, 80
5, 40432, Note_on_c, 3, 53, 0
5, 40440, Note_on_c, 3, 58, 80
5, 40545, Note_on_c, 3, 58, 0
5, 40560, Note_on_c, 3, 60, 80
5, 40665, Note_on_c, 3, 60, 0
5, 40680, Note_on_c, 3, 62, 80
5, 40785, Note_on_c, 3, 62, 0
5, 40800, Note_on_c, 3, 63, 80
5, 40905, Note_on_c, 3, 63, 0
5, 40920, Note_on_c, 3, 65, 80
5, 41025, Note_on_c, 3, 65, 0
5, 41040, Note_on_c, 3, 67, 80
5, 41145, Note_on_c, 3, 67, 0
5, 41160, Note_on_c, 3, 69, 80
5, 41265, Note_on_c, 3, 69, 0
5, 41280, Note_on_c, 3, 70, 80
5, 41385, Note_on_c, 3, 70, 0
5, 41400, Note_on_c, 3, 58, 80
5, 41505, Note_on_c, 3, 58, 0
5, 41520, Note_on_c, 3, 65, 80
5, 41625, Note_on_c, 3, 65, 0
5, 41640, Note_on_c, 3, 53, 80
5, 41745, Note_on_c, 3, 53, 0
5, 41760, Note_on_c, 3, 57, 80
5, 41865, Note_on_c, 3, 57, 0
5, 41880, Note_on_c, 3, 58, 80
5, 41985, Note_on_c, 3, 58, 0
5, 42000, Note_on_c, 3, 53, 80
5, 42105, Note_on_c, 3, 53, 0
5, 42120, Note_on_c, 3, 50, 80
5, 42225, Note_on_c, 3, 50, 0
5, 42240, Note_on_c, 3, 46, 80
5, 42345, Note_on_c, 3, 46, 0
5, 42360, Note_on_c, 3, 48, 80
5, 42465, Note_on_c, 3, 48, 0
5, 42480, Note_on_c, 3, 50, 80
5, 42585, Note_on_c, 3, 50, 0
5, 42600, Note_on_c, 3, 45, 80
5, 42705, Note_on_c, 3, 45, 0
5, 42720, Note_on_c, 3, 48, 80
5, 42825, Note_on_c, 3, 48, 0
5, 42840, Note_on_c, 3, 53, 80
5, 42945, Note_on_c, 3, 53, 0
5, 42960, Note_on_c, 3, 57, 80
5, 43065, Note_on_c, 3, 57, 0
5, 43080, Note_on_c, 3, 58, 80
5, 43132, Note_on_c, 3, 58, 0
5, 43140, Note_on_c, 3, 57, 80
5, 43192, Note_on_c, 3, 57, 0
5, 43200, Note_on_c, 3, 55, 80
5, 43252, Note_on_c, 3, 55, 0
5, 43260, Note_on_c, 3, 53, 80
5, 43312, Note_on_c, 3, 53, 0
5, 43320, Note_on_c, 3, 58, 80
5, 43425, Note_on_c, 3, 58, 0
5, 43440, Note_on_c, 3, 60, 80
5, 43545, Note_on_c, 3, 60, 0
5, 43560, Note_on_c, 3, 62, 80
5, 43665, Note_on_c, 3, 62, 0
5, 43680, Note_on_c, 3, 52, 80
5, 43785, Note_on_c, 3, 52, 0
5, 43800, Note_on_c, 3, 50, 80
5, 43905, Note_on_c, 3, 50, 0
5, 43920, Note_on_c, 3, 48, 80
5, 44025, Note_on_c, 3, 48, 0
5, 44040, Note_on_c, 3, 53, 80
5, 44145, Note_on_c, 3, 53, 0
5, 44160, Note_on_c, 3, 46, 80
5, 44265, Note_on_c, 3, 46, 0
5, 44280, Note_on_c, 3, 48, 80
5, 44385, Note_on_c, 3, 48, 0
5, 44400, Note_on_c, 3, 53, 80
5, 44505, Note_on_c, 3, 53, 0
5, 44520, Note_on_c, 3, 48, 80
5, 44625, Note_on_c, 3, 48, 0
5, 44640, Note_on_c, 3, 45, 80
5, 44740, Program_c, 3, 99
5, 44745, Note_on_c, 3, 45, 0
5, 44746, Control_c, 3, 10, 35
5, 44748, Control_c, 3, 7, 105
5, 44760, Note_on_c, 3, 41, 80
5, 44865, Note_on_c, 3, 41, 0
5, 44880, Note_on_c, 3, 48, 80
5, 44985, Note_on_c, 3, 48, 0
5, 45000, Note_on_c, 3, 53, 80
5, 45105, Note_on_c, 3, 53, 0
5, 45120, Note_on_c, 3, 51, 80
5, 45225, Note_on_c, 3, 51, 0
5, 45240, Note_on_c, 3, 50, 80
5, 45345, Note_on_c, 3, 50, 0
5, 45360, Note_on_c, 3, 46, 80
5, 45465, Note_on_c, 3, 46, 0
5, 45480, Note_on_c, 3, 51, 80
5, 45585, Note_on_c, 3, 51, 0
5, 45600, Note_on_c, 3, 55, 80
5, 45705, Note_on_c, 3, 55, 0
5, 45720, Note_on_c, 3, 56, 80
5, 45825, Note_on_c, 3, 56, 0
5, 45840, Note_on_c, 3, 50, 80
5, 45945, Note_on_c, 3, 50, 0
5, 45960, Note_on_c, 3, 55, 80
5, 46065, Note_on_c, 3, 55, 0
5, 46080, Note_on_c, 3, 43, 80
5, 46185, Note_on_c, 3, 43, 0
5, 46200, Note_on_c, 3, 48, 80
5, 46305, Note_on_c, 3, 48, 0
5, 46320, Note_on_c, 3, 57, 80
5, 46425, Note_on_c, 3, 57, 0
5, 46440, Note_on_c, 3, 55, 80
5, 46545, Note_on_c, 3, 55, 0
5, 46560, Note_on_c, 3, 54, 80
5, 46665, Note_on_c, 3, 54, 0
5, 46680, Note_on_c, 3, 50, 80
5, 46785, Note_on_c, 3, 50, 0
5, 46800, Note_on_c, 3, 54, 80
5, 46905, Note_on_c, 3, 54, 0
5, 46920, Note_on_c, 3, 55, 80
5, 47025, Note_on_c, 3, 55, 0
5, 47040, Note_on_c, 3, 46, 80
5, 47145, Note_on_c, 3, 46, 0
5, 47160, Note_on_c, 3, 50, 80
5, 47265, Note_on_c, 3, 50, 0
5, 47280, Note_on_c, 3, 43, 80
5, 47332, Note_on_c, 3, 43, 0
5, 47340, Note_on_c, 3, 45, 80
5, 47392, Note_on_c, 3, 45, 0
5, 47400, Note_on_c, 3, 46, 80
5, 47452, Note_on_c, 3, 46, 0
5, 47460, Note_on_c, 3, 48, 80
5, 47512, Note_on_c, 3, 48, 0
5, 47520, Note_on_c, 3, 50, 80
5, 47572, Note_on_c, 3, 50, 0
5, 47580, Note_on_c, 3, 51, 80
5, 47632, Note_on_c, 3, 51, 0
5, 47640, Note_on_c, 3, 53, 80
5, 47745, Note_on_c, 3, 53, 0
5, 47760, Note_on_c, 3, 51, 80
5, 47865, Note_on_c, 3, 51, 0
5, 47880, Note_on_c, 3, 50, 80
5, 47985, Note_on_c, 3, 50, 0
5, 48000, Note_on_c, 3, 53, 80
5, 48105, Note_on_c, 3, 53, 0
5, 48120, Note_on_c, 3, 51, 80
5, 48225, Note_on_c, 3, 51, 0
5, 48240, Note_on_c, 3, 50, 80
5, 48345, Note_on_c, 3, 50, 0
5, 48360, Note_on_c, 3, 55, 80
5, 48465, Note_on_c, 3, 55, 0
5, 48480, Note_on_c, 3, 53, 80
5, 48585, Note_on_c, 3, 53, 0
5, 48600, Note_on_c, 3, 51, 80
5, 48705, Note_on_c, 3, 51, 0
5, 48720, Note_on_c, 3, 55, 80
5, 48825, Note_on_c, 3, 55, 0
5, 48840, Note_on_c, 3, 53, 80
5, 48945, Note_on_c, 3, 53, 0
5, 48960, Note_on_c, 3, 51, 80
5, 49065, Note_on_c, 3, 51, 0
5, 49080, Note_on_c, 3, 56, 80
5, 49185, Note_on_c, 3, 56, 0
5, 49200, Note_on_c, 3, 58, 80
5, 49305, Note_on_c, 3, 58, 0
5, 49320, Note_on_c, 3, 60, 80
5, 49425, Note_on_c, 3, 60, 0
5, 49440, Note_on_c, 3, 62, 80
5, 49545, Note_on_c, 3, 62, 0
5, 49560, Note_on_c, 3, 63, 80
5, 49665, Note_on_c, 3, 63, 0
5, 49680, Note_on_c, 3, 65, 80
5, 49785, Note_on_c, 3, 65, 0
5, 49800, Note_on_c, 3, 67, 80
5, 49905, Note_on_c, 3, 67, 0
5, 49920, Note_on_c, 3, 69, 80
5, 50025, Note_on_c, 3, 69, 0
5, 50040, Note_on_c, 3, 70, 80
5, 50145, Note_on_c, 3, 70, 0
5, 50160, Note_on_c, 3, 65, 80
5, 50265, Note_on_c, 3, 65, 0
5, 50280, Note_on_c, 3, 53, 80
5, 50385, Note_on_c, 3, 53, 0
5, 50400, Note_on_c, 3, 57, 80
5, 50505, Note_on_c, 3, 57, 0
5, 50520, Note_on_c, 3, 62, 80
5, 50625, Note_on_c, 3, 62, 0
5, 50640, Note_on_c, 3, 50, 80
5, 50745, Note_on_c, 3, 50, 0
5, 50760, Note_on_c, 3, 53, 80
5, 50865, Note_on_c, 3, 53, 0
5, 50880, Note_on_c, 3, 55, 80
5, 50985, Note_on_c, 3, 55, 0
5, 51000, Note_on_c, 3, 57, 80
5, 51105, Note_on_c, 3, 57, 0
5, 51120, Note_on_c, 3, 59, 80
5, 51225, Note_on_c, 3, 59, 0
5, 51240, Note_on_c, 3, 60, 80
5, 51345, Note_on_c, 3, 60, 0
5, 51360, Note_on_c, 3, 48, 80
5, 51465, Note_on_c, 3, 48, 0
5, 51480, Note_on_c, 3, 51, 80
5, 51585, Note_on_c, 3, 51, 0
5, 51600, Note_on_c, 3, 53, 80
5, 51705, Note_on_c, 3, 53, 0
5, 51720, Note_on_c, 3, 55, 80
5, 51825, Note_on_c, 3, 55, 0
5, 51840, Note_on_c, 3, 57, 80
5, 51945, Note_on_c, 3, 57, 0
5, 51960, Note_on_c, 3, 58, 80
5, 52065, Note_on_c, 3, 58, 0
5, 52080, Note_on_c, 3, 51, 80
5, 52185, Note_on_c, 3, 51, 0
5, 52200, Note_on_c, 3, 53, 80
5, 52305, Note_on_c, 3, 53, 0
5, 52320, Note_on_c, 3, 46, 80
5, 52665, Note_on_c, 3, 46, 0
5, 52665, End_track
6, 0, Start_track
6, 0, MIDI_port, 0
6, 0, Program_c, 4, 10
6, 0, Control_c, 4, 7, 100
6, 0, Control_c, 4, 10, 60
6, 46, Control_c, 4, 10, 59
6, 5690, Control_c, 4, 7, 99
6, 5760, Program_c, 4, 10
6, 5880, Note_on_c, 4, 86, 80
6, 5985, Note_on_c, 4, 86, 0
6, 6000, Note_on_c, 4, 81, 80
6, 6105, Note_on_c, 4, 81, 0
6, 6120, Note_on_c, 4, 77, 80
6, 6225, Note_on_c, 4, 77, 0
6, 6240, Note_on_c, 4, 86, 80
6, 6345, Note_on_c, 4, 86, 0
6, 6360, Note_on_c, 4, 87, 80
6, 6465, Note_on_c, 4, 87, 0
6, 6480, Note_on_c, 4, 89, 80
6, 6585, Note_on_c, 4, 89, 0
6, 6600, Note_on_c, 4, 84, 80
6, 6705, Note_on_c, 4, 84, 0
6, 6720, Note_on_c, 4, 79, 80
6, 6825, Note_on_c, 4, 79, 0
6, 6840, Note_on_c, 4, 77, 80
6, 6945, Note_on_c, 4, 77, 0
6, 6960, Note_on_c, 4, 84, 80
6, 7065, Note_on_c, 4, 84, 0
6, 7080, Note_on_c, 4, 86, 80
6, 7185, Note_on_c, 4, 86, 0
6, 7200, Note_on_c, 4, 87, 80
6, 7305, Note_on_c, 4, 87, 0
6, 7320, Note_on_c, 4, 86, 80
6, 7425, Note_on_c, 4, 86, 0
6, 7440, Note_on_c, 4, 87, 80
6, 7545, Note_on_c, 4, 87, 0
6, 7560, Note_on_c, 4, 89, 80
6, 7665, Note_on_c, 4, 89, 0
6, 7680, Note_on_c, 4, 91, 80
6, 7785, Note_on_c, 4, 91, 0
6, 7800, Note_on_c, 4, 93, 80
6, 7905, Note_on_c, 4, 93, 0
6, 7920, Note_on_c, 4, 94, 80
6, 8025, Note_on_c, 4, 94, 0
6, 8040, Note_on_c, 4, 84, 80
6, 8145, Note_on_c, 4, 84, 0
6, 8760, Note_on_c, 4, 86, 80
6, 8865, Note_on_c, 4, 86, 0
6, 8880, Note_on_c, 4, 81, 80
6, 8985, Note_on_c, 4, 81, 0
6, 9000, Note_on_c, 4, 77, 80
6, 9105, Note_on_c, 4, 77, 0
6, 9120, Note_on_c, 4, 86, 80
6, 9225, Note_on_c, 4, 86, 0
6, 9240, Note_on_c, 4, 87, 80
6, 9345, Note_on_c, 4, 87, 0
6, 9360, Note_on_c, 4, 89, 80
6, 9465, Note_on_c, 4, 89, 0
6, 9480, Note_on_c, 4, 84, 80
6, 9585, Note_on_c, 4, 84, 0
6, 9600, Note_on_c, 4, 79, 80
6, 9705, Note_on_c, 4, 79, 0
6, 9720, Note_on_c, 4, 77, 80
6, 9825, Note_on_c, 4, 77, 0
6, 9840, Note_on_c, 4, 84, 80
6, 9945, Note_on_c, 4, 84, 0
6, 9960, Note_on_c, 4, 86, 80
6, 10065, Note_on_c, 4, 86, 0
6, 10080, Note_on_c, 4, 87, 80
6, 10185, Note_on_c, 4, 87, 0
6, 10200, Note_on_c, 4, 86, 80
6, 10305, Note_on_c, 4, 86, 0
6, 10320, Note_on_c, 4, 88, 80
6, 10425, Note_on_c, 4, 88, 0
6, 10440, Note_on_c, 4, 89, 80
6, 10545, Note_on_c, 4, 89, 0
6, 10560, Note_on_c, 4, 79, 80
6, 10665, Note_on_c, 4, 79, 0
6, 10680, Note_on_c, 4, 77, 80
6, 10785, Note_on_c, 4, 77, 0
6, 10800, Note_on_c, 4, 76, 80
6, 10905, Note_on_c, 4, 76, 0
6, 10920, Note_on_c, 4, 81, 80
6, 11025, Note_on_c, 4, 81, 0
6, 19560, Note_on_c, 4, 93, 80
6, 19665, Note_on_c, 4, 93, 0
6, 19680, Note_on_c, 4, 88, 80
6, 19785, Note_on_c, 4, 88, 0
6, 19800, Note_on_c, 4, 84, 80
6, 19905, Note_on_c, 4, 84, 0
6, 19920, Note_on_c, 4, 93, 80
6, 20025, Note_on_c, 4, 93, 0
6, 20040, Note_on_c, 4, 94, 80
6, 20145, Note_on_c, 4, 94, 0
6, 20160, Note_on_c, 4, 93, 80
6, 20265, Note_on_c, 4, 93, 0
6, 20280, Note_on_c, 4, 91, 80
6, 20385, Note_on_c, 4, 91, 0
6, 20400, Note_on_c, 4, 86, 80
6, 20505, Note_on_c, 4, 86, 0
6, 20520, Note_on_c, 4, 84, 80
6, 20625, Note_on_c, 4, 84, 0
6, 20640, Note_on_c, 4, 89, 80
6, 20745, Note_on_c, 4, 89, 0
6, 20760, Note_on_c, 4, 89, 80
6, 20865, Note_on_c, 4, 89, 0
6, 20880, Note_on_c, 4, 89, 80
6, 20985, Note_on_c, 4, 89, 0
6, 21000, Note_on_c, 4, 84, 80
6, 21105, Note_on_c, 4, 84, 0
6, 21120, Note_on_c, 4, 90, 80
6, 21225, Note_on_c, 4, 90, 0
6, 21240, Note_on_c, 4, 93, 80
6, 21345, Note_on_c, 4, 93, 0
6, 21360, Note_on_c, 4, 81, 80
6, 21465, Note_on_c, 4, 81, 0
6, 21480, Note_on_c, 4, 78, 80
6, 21585, Note_on_c, 4, 78, 0
6, 21600, Note_on_c, 4, 74, 80
6, 21705, Note_on_c, 4, 74, 0
6, 21720, Note_on_c, 4, 82, 80
6, 21825, Note_on_c, 4, 82, 0
6, 21840, Note_on_c, 4, 86, 80
6, 21945, Note_on_c, 4, 86, 0
6, 21960, Note_on_c, 4, 84, 80
6, 22065, Note_on_c, 4, 84, 0
6, 22080, Note_on_c, 4, 79, 80
6, 22185, Note_on_c, 4, 79, 0
6, 22680, Note_on_c, 4, 89, 80
6, 22785, Note_on_c, 4, 89, 0
6, 22800, Note_on_c, 4, 92, 80
6, 22905, Note_on_c, 4, 92, 0
6, 22920, Note_on_c, 4, 91, 80
6, 23025, Note_on_c, 4, 91, 0
6, 23040, Note_on_c, 4, 89, 80
6, 23145, Note_on_c, 4, 89, 0
6, 23160, Note_on_c, 4, 75, 80
6, 23265, Note_on_c, 4, 75, 0
6, 23400, Note_on_c, 4, 91, 80
6, 23505, Note_on_c, 4, 91, 0
6, 23520, Note_on_c, 4, 75, 80
6, 23625, Note_on_c, 4, 75, 0
6, 23640, Note_on_c, 4, 77, 80
6, 23745, Note_on_c, 4, 77, 0
6, 23760, Note_on_c, 4, 79, 80
6, 23865, Note_on_c, 4, 79, 0
6, 23880, Note_on_c, 4, 84, 80
6, 23985, Note_on_c, 4, 84, 0
6, 24000, Note_on_c, 4, 86, 80
6, 24105, Note_on_c, 4, 86, 0
6, 24120, Note_on_c, 4, 87, 80
6, 24225, Note_on_c, 4, 87, 0
6, 24240, Note_on_c, 4, 89, 80
6, 24345, Note_on_c, 4, 89, 0
6, 24360, Note_on_c, 4, 91, 80
6, 24465, Note_on_c, 4, 91, 0
6, 24480, Note_on_c, 4, 93, 80
6, 24585, Note_on_c, 4, 93, 0
6, 24600, Note_on_c, 4, 94, 80
6, 24705, Note_on_c, 4, 94, 0
6, 24720, Note_on_c, 4, 91, 80
6, 24825, Note_on_c, 4, 91, 0
6, 24840, Note_on_c, 4, 87, 80
6, 24945, Note_on_c, 4, 87, 0
6, 24960, Note_on_c, 4, 84, 80
6, 25065, Note_on_c, 4, 84, 0
6, 25080, Note_on_c, 4, 81, 80
6, 25185, Note_on_c, 4, 81, 0
6, 25200, Note_on_c, 4, 77, 80
6, 25305, Note_on_c, 4, 77, 0
6, 25320, Note_on_c, 4, 74, 80
6, 25425, Note_on_c, 4, 74, 0
6, 25440, Note_on_c, 4, 91, 80
6, 25545, Note_on_c, 4, 91, 0
6, 25560, Note_on_c, 4, 84, 80
6, 25665, Note_on_c, 4, 84, 0
6, 25680, Note_on_c, 4, 83, 80
6, 25785, Note_on_c, 4, 83, 0
6, 25800, Note_on_c, 4, 81, 80
6, 25905, Note_on_c, 4, 81, 0
6, 25920, Note_on_c, 4, 79, 80
6, 26025, Note_on_c, 4, 79, 0
6, 26040, Note_on_c, 4, 72, 80
6, 26145, Note_on_c, 4, 72, 0
6, 26160, Note_on_c, 4, 89, 80
6, 26265, Note_on_c, 4, 89, 0
6, 26280, Note_on_c, 4, 82, 80
6, 26385, Note_on_c, 4, 82, 0
6, 26400, Note_on_c, 4, 81, 80
6, 26505, Note_on_c, 4, 81, 0
6, 26520, Note_on_c, 4, 79, 80
6, 26625, Note_on_c, 4, 79, 0
6, 26640, Note_on_c, 4, 77, 80
6, 26745, Note_on_c, 4, 77, 0
6, 26760, Note_on_c, 4, 86, 80
6, 26865, Note_on_c, 4, 86, 0
6, 27000, Note_on_c, 4, 77, 80
6, 27105, Note_on_c, 4, 77, 0
6, 27120, Note_on_c, 4, 82, 80
6, 27465, Note_on_c, 4, 82, 0
6, 38880, Program_c, 4, 44
6, 38960, Control_c, 4, 10, 90
6, 38980, Control_c, 4, 7, 120
6, 39000, Note_on_c, 4, 86, 80
6, 39105, Note_on_c, 4, 86, 0
6, 39120, Note_on_c, 4, 81, 80
6, 39225, Note_on_c, 4, 81, 0
6, 39240, Note_on_c, 4, 77, 80
6, 39345, Note_on_c, 4, 77, 0
6, 39360, Note_on_c, 4, 86, 80
6, 39465, Note_on_c, 4, 86, 0
6, 39480, Note_on_c, 4, 87, 80
6, 39585, Note_on_c, 4, 87, 0
6, 39600, Note_on_c, 4, 89, 80
6, 39705, Note_on_c, 4, 89, 0
6, 39720, Note_on_c, 4, 84, 80
6, 39825, Note_on_c, 4, 84, 0
6, 39840, Note_on_c, 4, 79, 80
6, 39945, Note_on_c, 4, 79, 0
6, 39960, Note_on_c, 4, 77, 80
6, 40065, Note_on_c, 4, 77, 0
6, 40080, Note_on_c, 4, 84, 80
6, 40185, Note_on_c, 4, 84, 0
6, 40200, Note_on_c, 4, 86, 80
6, 40305, Note_on_c, 4, 86, 0
6, 40320, Note_on_c, 4, 87, 80
6, 40425, Note_on_c, 4, 87, 0
6, 40440, Note_on_c, 4, 86, 80
6, 40545, Note_on_c, 4, 86, 0
6, 40560, Note_on_c, 4, 87, 80
6, 40665, Note_on_c, 4, 87, 0
6, 40680, Note_on_c, 4, 89, 80
6, 40785, Note_on_c, 4, 89, 0
6, 40800, Note_on_c, 4, 91, 80
6, 40905, Note_on_c, 4, 91, 0
6, 40920, Note_on_c, 4, 93, 80
6, 41025, Note_on_c, 4, 93, 0
6, 41040, Note_on_c, 4, 94, 80
6, 41145, Note_on_c, 4, 94, 0
6, 41160, Note_on_c, 4, 84, 80
6, 41265, Note_on_c, 4, 84, 0
6, 41880, Note_on_c, 4, 86, 80
6, 41985, Note_on_c, 4, 86, 0
6, 42000, Note_on_c, 4, 81, 80
6, 42105, Note_on_c, 4, 81, 0
6, 42120, Note_on_c, 4, 77, 80
6, 42225, Note_on_c, 4, 77, 0
6, 42240, Note_on_c, 4, 86, 80
6, 42345, Note_on_c, 4, 86, 0
6, 42360, Note_on_c, 4, 87, 80
6, 42465, Note_on_c, 4, 87, 0
6, 42480, Note_on_c, 4, 89, 80
6, 42585, Note_on_c, 4, 89, 0
6, 42600, Note_on_c, 4, 84, 80
6, 42705, Note_on_c, 4, 84, 0
6, 42720, Note_on_c, 4, 79, 80
6, 42825, Note_on_c, 4, 79, 0
6, 42840, Note_on_c, 4, 77, 80
6, 42945, Note_on_c, 4, 77, 0
6, 42960, Note_on_c, 4, 84, 80
6, 43065, Note_on_c, 4, 84, 0
6, 43080, Note_on_c, 4, 86, 80
6, 43185, Note_on_c, 4, 86, 0
6, 43200, Note_on_c, 4, 87, 80
6, 43305, Note_on_c, 4, 87, 0
6, 43320, Note_on_c, 4, 86, 80
6, 43425, Note_on_c, 4, 86, 0
6, 43440, Note_on_c, 4, 88, 80
6, 43545, Note_on_c, 4, 88, 0
6, 43560, Note_on_c, 4, 89, 80
6, 43665, Note_on_c, 4, 89, 0
6, 43680, Note_on_c, 4, 79, 80
6, 43785, Note_on_c, 4, 79, 0
6, 43800, Note_on_c, 4, 77, 80
6, 43905, Note_on_c, 4, 77, 0
6, 43920, Note_on_c, 4, 76, 80
6, 44025, Note_on_c, 4, 76, 0
6, 44040, Note_on_c, 4, 81, 80
6, 44145, Note_on_c, 4, 81, 0
6, 44640, Program_c, 4, 10
6, 44740, Control_c, 4, 10, 60
6, 44742, Control_c, 4, 7, 100
6, 44760, Note_on_c, 4, 93, 80
6, 44865, Note_on_c, 4, 93, 0
6, 44880, Note_on_c, 4, 88, 80
6, 44985, Note_on_c, 4, 88, 0
6, 45000, Note_on_c, 4, 84, 80
6, 45105, Note_on_c, 4, 84, 0
6, 45120, Note_on_c, 4, 93, 80
6, 45225, Note_on_c, 4, 93, 0
6, 45240, Note_on_c, 4, 94, 80
6, 45345, Note_on_c, 4, 94, 0
6, 45360, Note_on_c, 4, 93, 80
6, 45465, Note_on_c, 4, 93, 0
6, 45480, Note_on_c, 4, 91, 80
6, 45585, Note_on_c, 4, 91, 0
6, 45600, Note_on_c, 4, 86, 80
6, 45705, Note_on_c, 4, 86, 0
6, 45720, Note_on_c, 4, 84, 80
6, 45825, Note_on_c, 4, 84, 0
6, 45840, Note_on_c, 4, 89, 80
6, 45945, Note_on_c, 4, 89, 0
6, 45960, Note_on_c, 4, 89, 80
6, 46065, Note_on_c, 4, 89, 0
6, 46080, Note_on_c, 4, 89, 80
6, 46185, Note_on_c, 4, 89, 0
6, 46200, Note_on_c, 4, 84, 80
6, 46305, Note_on_c, 4, 84, 0
6, 46320, Note_on_c, 4, 90, 80
6, 46425, Note_on_c, 4, 90, 0
6, 46440, Note_on_c, 4, 93, 80
6, 46545, Note_on_c, 4, 93, 0
6, 46560, Note_on_c, 4, 81, 80
6, 46665, Note_on_c, 4, 81, 0
6, 46680, Note_on_c, 4, 78, 80
6, 46785, Note_on_c, 4, 78, 0
6, 46800, Note_on_c, 4, 74, 80
6, 46905, Note_on_c, 4, 74, 0
6, 46920, Note_on_c, 4, 82, 80
6, 47025, Note_on_c, 4, 82, 0
6, 47040, Note_on_c, 4, 86, 80
6, 47145, Note_on_c, 4, 86, 0
6, 47160, Note_on_c, 4, 84, 80
6, 47265, Note_on_c, 4, 84, 0
6, 47280, Note_on_c, 4, 79, 80
6, 47385, Note_on_c, 4, 79, 0
6, 47880, Note_on_c, 4, 89, 80
6, 47985, Note_on_c, 4, 89, 0
6, 48000, Note_on_c, 4, 92, 80
6, 48105, Note_on_c, 4, 92, 0
6, 48120, Note_on_c, 4, 91, 80
6, 48225, Note_on_c, 4, 91, 0
6, 48240, Note_on_c, 4, 89, 80
6, 48345, Note_on_c, 4, 89, 0
6, 48360, Note_on_c, 4, 75, 80
6, 48465, Note_on_c, 4, 75, 0
6, 48600, Note_on_c, 4, 91, 80
6, 48705, Note_on_c, 4, 91, 0
6, 48720, Note_on_c, 4, 75, 80
6, 48825, Note_on_c, 4, 75, 0
6, 48840, Note_on_c, 4, 77, 80
6, 48945, Note_on_c, 4, 77, 0
6, 48960, Note_on_c, 4, 79, 80
6, 49065, Note_on_c, 4, 79, 0
6, 49080, Note_on_c, 4, 84, 80
6, 49185, Note_on_c, 4, 84, 0
6, 49200, Note_on_c, 4, 86, 80
6, 49305, Note_on_c, 4, 86, 0
6, 49320, Note_on_c, 4, 87, 80
6, 49425, Note_on_c, 4, 87, 0
6, 49440, Note_on_c, 4, 89, 80
6, 49545, Note_on_c, 4, 89, 0
6, 49560, Note_on_c, 4, 91, 80
6, 49665, Note_on_c, 4, 91, 0
6, 49680, Note_on_c, 4, 93, 80
6, 49785, Note_on_c, 4, 93, 0
6, 49800, Note_on_c, 4, 94, 80
6, 49905, Note_on_c, 4, 94, 0
6, 49920, Note_on_c, 4, 91, 80
6, 50025, Note_on_c, 4, 91, 0
6, 50040, Note_on_c, 4, 87, 80
6, 50145, Note_on_c, 4, 87, 0
6, 50160, Note_on_c, 4, 84, 80
6, 50265, Note_on_c, 4, 84, 0
6, 50280, Note_on_c, 4, 81, 80
6, 50385, Note_on_c, 4, 81, 0
6, 50400, Note_on_c, 4, 77, 80
6, 50505, Note_on_c, 4, 77, 0
6, 50520, Note_on_c, 4, 74, 80
6, 50625, Note_on_c, 4, 74, 0
6, 50640, Note_on_c, 4, 91, 80
6, 50745, Note_on_c, 4, 91, 0
6, 50760, Note_on_c, 4, 84, 80
6, 50865, Note_on_c, 4, 84, 0
6, 50880, Note_on_c, 4, 83, 80
6, 50985, Note_on_c, 4, 83, 0
6, 51000, Note_on_c, 4, 81, 80
6, 51105, Note_on_c, 4, 81, 0
6, 51120, Note_on_c, 4, 79, 80
6, 51225, Note_on_c, 4, 79, 0
6, 51240, Note_on_c, 4, 72, 80
6, 51345, Note_on_c, 4, 72, 0
6, 51360, Note_on_c, 4, 89, 80
6, 51465, Note_on_c, 4, 89, 0
6, 51480, Note_on_c, 4, 82, 80
6, 51585, Note_on_c, 4, 82, 0
6, 51600, Note_on_c, 4, 81, 80
6, 51705, Note_on_c, 4, 81, 0
6, 51720, Note_on_c, 4, 79, 80
6, 51825, Note_on_c, 4, 79, 0
6, 51840, Note_on_c, 4, 77, 80
6, 51945, Note_on_c, 4, 77, 0
6, 51960, Note_on_c, 4, 86, 80
6, 52065, Note_on_c, 4, 86, 0
6, 52200, Note_on_c, 4, 77, 80
6, 52305, Note_on_c, 4, 77, 0
6, 52320, Note_on_c, 4, 82, 80
6, 52665, Note_on_c, 4, 82, 0
6, 52665, End_track
0, 0, End_of_file
