0, 0, Header, 1, 5, 96
1, 0, Start_track
1, 0, Key_signature, -1, "major"
1, 0, Time_signature, 3, 1, 24, 8
1, 0, Tempo, 399802
1, 31392, Tempo, 468519
1, 31872, Tempo, 535450
1, 32256, Tempo, 399802
1, 64512, Tempo, 468519
1, 64704, Tempo, 535450
1, 65088, End_track
2, 0, Start_track
2, 7488, Note_on_c, 0, 69, 88
2, 7680, Note_on_c, 0, 69, 0
2, 7680, Note_on_c, 0, 74, 88
2, 8064, Note_on_c, 0, 74, 0
2, 8064, Note_on_c, 0, 72, 88
2, 8256, Note_on_c, 0, 72, 0
2, 8256, Note_on_c, 0, 69, 88
2, 8640, Note_on_c, 0, 69, 0
2, 8640, Note_on_c, 0, 68, 88
2, 8832, Note_on_c, 0, 68, 0
2, 8832, Note_on_c, 0, 69, 88
2, 9024, Note_on_c, 0, 69, 0
2, 9024, Note_on_c, 0, 71, 88
2, 9216, Note_on_c, 0, 71, 0
2, 9216, Note_on_c, 0, 72, 88
2, 9504, Note_on_c, 0, 72, 0
2, 9504, Note_on_c, 0, 74, 88
2, 9600, Note_on_c, 0, 74, 0
2, 9600, Note_on_c, 0, 72, 88
2, 9696, Note_on_c, 0, 72, 0
2, 9696, Note_on_c, 0, 70, 88
2, 9792, Note_on_c, 0, 70, 0
2, 9792, Note_on_c, 0, 69, 88
2, 10080, Note_on_c, 0, 69, 0
2, 10080, Note_on_c, 0, 70, 72
2, 10176, Note_on_c, 0, 70, 0
2, 10176, Note_on_c, 0, 69, 72
2, 10272, Note_on_c, 0, 69, 0
2, 10272, Note_on_c, 0, 67, 72
2, 10368, Note_on_c, 0, 67, 0
2, 10368, Note_on_c, 0, 65, 72
2, 10656, Note_on_c, 0, 65, 0
2, 10656, Note_on_c, 0, 67, 72
2, 10752, Note_on_c, 0, 67, 0
2, 10752, Note_on_c, 0, 65, 72
2, 10848, Note_on_c, 0, 65, 0
2, 10848, Note_on_c, 0, 64, 72
2, 10944, Note_on_c, 0, 64, 0
2, 10944, Note_on_c, 0, 65, 72
2, 11040, Note_on_c, 0, 65, 0
2, 11040, Note_on_c, 0, 67, 72
2, 11136, Note_on_c, 0, 67, 0
2, 11136, Note_on_c, 0, 69, 72
2, 11424, Note_on_c, 0, 69, 0
2, 11424, Note_on_c, 0, 71, 72
2, 11472, Note_on_c, 0, 71, 0
2, 11472, Note_on_c, 0, 73, 72
2, 11520, Note_on_c, 0, 73, 0
2, 11520, Note_on_c, 0, 74, 88
2, 11568, Note_on_c, 0, 74, 0
2, 11568, Note_on_c, 0, 76, 88
2, 11616, Note_on_c, 0, 76, 0
2, 11616, Note_on_c, 0, 77, 88
2, 11664, Note_on_c, 0, 77, 0
2, 11664, Note_on_c, 0, 79, 88
2, 11712, Note_on_c, 0, 79, 0
2, 11712, Note_on_c, 0, 81, 88
2, 11904, Note_on_c, 0, 81, 0
2, 11904, Note_on_c, 0, 81, 88
2, 11952, Note_on_c, 0, 81, 0
2, 11952, Note_on_c, 0, 82, 88
2, 12000, Note_on_c, 0, 82, 0
2, 12000, Note_on_c, 0, 81, 88
2, 12048, Note_on_c, 0, 81, 0
2, 12048, Note_on_c, 0, 79, 88
2, 12096, Note_on_c, 0, 79, 0
2, 12096, Note_on_c, 0, 77, 88
2, 12192, Note_on_c, 0, 77, 0
2, 12192, Note_on_c, 0, 76, 88
2, 12288, Note_on_c, 0, 76, 0
2, 12288, Note_on_c, 0, 74, 88
2, 12576, Note_on_c, 0, 74, 0
2, 12576, Note_on_c, 0, 73, 88
2, 12624, Note_on_c, 0, 73, 0
2, 12624, Note_on_c, 0, 71, 88
2, 12672, Note_on_c, 0, 71, 0
2, 12672, Note_on_c, 0, 73, 88
2, 12864, Note_on_c, 0, 73, 0
2, 12864, Note_on_c, 0, 74, 88
2, 13152, Note_on_c, 0, 74, 0
2, 13152, Note_on_c, 0, 76, 88
2, 13248, Note_on_c, 0, 76, 0
2, 13248, Note_on_c, 0, 77, 88
2, 13536, Note_on_c, 0, 77, 0
2, 13536, Note_on_c, 0, 79, 88
2, 13632, Note_on_c, 0, 79, 0
2, 13632, Note_on_c, 0, 77, 88
2, 13728, Note_on_c, 0, 77, 0
2, 13728, Note_on_c, 0, 75, 88
2, 13824, Note_on_c, 0, 75, 0
2, 13824, Note_on_c, 0, 74, 88
2, 14208, Note_on_c, 0, 74, 0
2, 14256, Note_on_c, 0, 74, 72
2, 14304, Note_on_c, 0, 74, 0
2, 14304, Note_on_c, 0, 76, 72
2, 14352, Note_on_c, 0, 76, 0
2, 14352, Note_on_c, 0, 78, 72
2, 14400, Note_on_c, 0, 78, 0
2, 14400, Note_on_c, 0, 79, 72
2, 14448, Note_on_c, 0, 79, 0
2, 14448, Note_on_c, 0, 78, 72
2, 14496, Note_on_c, 0, 78, 0
2, 14496, Note_on_c, 0, 79, 72
2, 14544, Note_on_c, 0, 79, 0
2, 14544, Note_on_c, 0, 81, 72
2, 14592, Note_on_c, 0, 81, 0
2, 14592, Note_on_c, 0, 82, 72
2, 14688, Note_on_c, 0, 82, 0
2, 15360, Note_on_c, 0, 74, 72
2, 15552, Note_on_c, 0, 74, 0
2, 15552, Note_on_c, 0, 74, 72
2, 15648, Note_on_c, 0, 74, 0
2, 15648, Note_on_c, 0, 72, 72
2, 15744, Note_on_c, 0, 72, 0
2, 15744, Note_on_c, 0, 70, 72
2, 15840, Note_on_c, 0, 70, 0
2, 15840, Note_on_c, 0, 69, 72
2, 15936, Note_on_c, 0, 69, 0
2, 15936, Note_on_c, 0, 67, 72
2, 16032, Note_on_c, 0, 67, 0
2, 16032, Note_on_c, 0, 66, 72
2, 16128, Note_on_c, 0, 66, 0
2, 16128, Note_on_c, 0, 67, 72
2, 16224, Note_on_c, 0, 67, 0
2, 16224, Note_on_c, 0, 63, 72
2, 16320, Note_on_c, 0, 63, 0
2, 16320, Note_on_c, 0, 62, 72
2, 16704, Note_on_c, 0, 62, 0
2, 16704, Note_on_c, 0, 62, 72
2, 16800, Note_on_c, 0, 62, 0
2, 16800, Note_on_c, 0, 63, 72
2, 16848, Note_on_c, 0, 63, 0
2, 16848, Note_on_c, 0, 65, 72
2, 16896, Note_on_c, 0, 65, 0
2, 16896, Note_on_c, 0, 67, 72
2, 16992, Note_on_c, 0, 67, 0
2, 16992, Note_on_c, 0, 65, 72
2, 17088, Note_on_c, 0, 65, 0
2, 17088, Note_on_c, 0, 63, 72
2, 17184, Note_on_c, 0, 63, 0
2, 17184, Note_on_c, 0, 62, 72
2, 17280, Note_on_c, 0, 62, 0
2, 17280, Note_on_c, 0, 60, 72
2, 17472, Note_on_c, 0, 60, 0
2, 17472, Note_on_c, 0, 60, 72
2, 17520, Note_on_c, 0, 60, 0
2, 17520, Note_on_c, 0, 62, 72
2, 17568, Note_on_c, 0, 62, 0
2, 17568, Note_on_c, 0, 63, 72
2, 17616, Note_on_c, 0, 63, 0
2, 17616, Note_on_c, 0, 60, 72
2, 17664, Note_on_c, 0, 60, 0
2, 17664, Note_on_c, 0, 62, 72
2, 17712, Note_on_c, 0, 62, 0
2, 17712, Note_on_c, 0, 58, 72
2, 17760, Note_on_c, 0, 58, 0
2, 17760, Note_on_c, 0, 60, 72
2, 17808, Note_on_c, 0, 60, 0
2, 17808, Note_on_c, 0, 57, 72
2, 17856, Note_on_c, 0, 57, 0
2, 17856, Note_on_c, 0, 58, 72
2, 18048, Note_on_c, 0, 58, 0
2, 18048, Note_on_c, 0, 58, 72
2, 18096, Note_on_c, 0, 58, 0
2, 18096, Note_on_c, 0, 60, 72
2, 18144, Note_on_c, 0, 60, 0
2, 18144, Note_on_c, 0, 62, 72
2, 18192, Note_on_c, 0, 62, 0
2, 18192, Note_on_c, 0, 63, 72
2, 18240, Note_on_c, 0, 63, 0
2, 18240, Note_on_c, 0, 65, 72
2, 18432, Note_on_c, 0, 65, 0
2, 18432, Note_on_c, 0, 65, 72
2, 18624, Note_on_c, 0, 65, 0
2, 18624, Note_on_c, 0, 77, 72
2, 18672, Note_on_c, 0, 77, 0
2, 18672, Note_on_c, 0, 75, 72
2, 18720, Note_on_c, 0, 75, 0
2, 18720, Note_on_c, 0, 74, 72
2, 18768, Note_on_c, 0, 74, 0
2, 18768, Note_on_c, 0, 72, 72
2, 18816, Note_on_c, 0, 72, 0
2, 18816, Note_on_c, 0, 74, 72
2, 18912, Note_on_c, 0, 74, 0
2, 18912, Note_on_c, 0, 77, 72
2, 19008, Note_on_c, 0, 77, 0
2, 19008, Note_on_c, 0, 72, 72
2, 19056, Note_on_c, 0, 72, 0
2, 19056, Note_on_c, 0, 70, 72
2, 19104, Note_on_c, 0, 70, 0
2, 19104, Note_on_c, 0, 69, 72
2, 19152, Note_on_c, 0, 69, 0
2, 19152, Note_on_c, 0, 67, 72
2, 19200, Note_on_c, 0, 67, 0
2, 19200, Note_on_c, 0, 65, 72
2, 19392, Note_on_c, 0, 65, 0
2, 19392, Note_on_c, 0, 65, 72
2, 19440, Note_on_c, 0, 65, 0
2, 19440, Note_on_c, 0, 67, 72
2, 19488, Note_on_c, 0, 67, 0
2, 19488, Note_on_c, 0, 65, 72
2, 19536, Note_on_c, 0, 65, 0
2, 19536, Note_on_c, 0, 63, 72
2, 19584, Note_on_c, 0, 63, 0
2, 19584, Note_on_c, 0, 62, 72
2, 19632, Note_on_c, 0, 62, 0
2, 19632, Note_on_c, 0, 64, 72
2, 19680, Note_on_c, 0, 64, 0
2, 19680, Note_on_c, 0, 66, 72
2, 19728, Note_on_c, 0, 66, 0
2, 19728, Note_on_c, 0, 67, 72
2, 19776, Note_on_c, 0, 67, 0
2, 19776, Note_on_c, 0, 69, 72
2, 20160, Note_on_c, 0, 69, 0
2, 20160, Note_on_c, 0, 70, 72
2, 20208, Note_on_c, 0, 70, 0
2, 20208, Note_on_c, 0, 69, 72
2, 20256, Note_on_c, 0, 69, 0
2, 20256, Note_on_c, 0, 70, 72
2, 20304, Note_on_c, 0, 70, 0
2, 20304, Note_on_c, 0, 72, 72
2, 20352, Note_on_c, 0, 72, 0
2, 20352, Note_on_c, 0, 74, 72
2, 20400, Note_on_c, 0, 74, 0
2, 20400, Note_on_c, 0, 72, 72
2, 20448, Note_on_c, 0, 72, 0
2, 20448, Note_on_c, 0, 74, 72
2, 20496, Note_on_c, 0, 74, 0
2, 20496, Note_on_c, 0, 75, 72
2, 20544, Note_on_c, 0, 75, 0
2, 20544, Note_on_c, 0, 77, 72
2, 20592, Note_on_c, 0, 77, 0
2, 20592, Note_on_c, 0, 75, 72
2, 20640, Note_on_c, 0, 75, 0
2, 20640, Note_on_c, 0, 74, 72
2, 20688, Note_on_c, 0, 74, 0
2, 20688, Note_on_c, 0, 72, 72
2, 20736, Note_on_c, 0, 72, 0
2, 20736, Note_on_c, 0, 70, 72
2, 20784, Note_on_c, 0, 70, 0
2, 20784, Note_on_c, 0, 68, 72
2, 20832, Note_on_c, 0, 68, 0
2, 20832, Note_on_c, 0, 67, 72
2, 20880, Note_on_c, 0, 67, 0
2, 20880, Note_on_c, 0, 68, 72
2, 20928, Note_on_c, 0, 68, 0
2, 20928, Note_on_c, 0, 70, 72
2, 21024, Note_on_c, 0, 70, 0
2, 21024, Note_on_c, 0, 70, 72
2, 21216, Note_on_c, 0, 70, 0
2, 21216, Note_on_c, 0, 72, 72
2, 21264, Note_on_c, 0, 72, 0
2, 21264, Note_on_c, 0, 74, 72
2, 21312, Note_on_c, 0, 74, 0
2, 21312, Note_on_c, 0, 75, 72
2, 21888, Note_on_c, 0, 75, 0
2, 21888, Note_on_c, 0, 75, 72
2, 21984, Note_on_c, 0, 75, 0
2, 21984, Note_on_c, 0, 77, 72
2, 22032, Note_on_c, 0, 77, 0
2, 22032, Note_on_c, 0, 79, 72
2, 22080, Note_on_c, 0, 79, 0
2, 22080, Note_on_c, 0, 77, 72
2, 22176, Note_on_c, 0, 77, 0
2, 22176, Note_on_c, 0, 75, 72
2, 22272, Note_on_c, 0, 75, 0
2, 22272, Note_on_c, 0, 74, 72
2, 22464, Note_on_c, 0, 74, 0
2, 22464, Note_on_c, 0, 74, 72
2, 22848, Note_on_c, 0, 74, 0
2, 22848, Note_on_c, 0, 74, 72
2, 22944, Note_on_c, 0, 74, 0
2, 22944, Note_on_c, 0, 76, 72
2, 22992, Note_on_c, 0, 76, 0
2, 22992, Note_on_c, 0, 77, 72
2, 23040, Note_on_c, 0, 77, 0
2, 23040, Note_on_c, 0, 76, 72
2, 23088, Note_on_c, 0, 76, 0
2, 23088, Note_on_c, 0, 74, 72
2, 23136, Note_on_c, 0, 74, 0
2, 23136, Note_on_c, 0, 73, 72
2, 23184, Note_on_c, 0, 73, 0
2, 23184, Note_on_c, 0, 74, 72
2, 23232, Note_on_c, 0, 74, 0
2, 23232, Note_on_c, 0, 73, 72
2, 23328, Note_on_c, 0, 73, 0
2, 23328, Note_on_c, 0, 74, 72
2, 23424, Note_on_c, 0, 74, 0
2, 23424, Note_on_c, 0, 76, 72
2, 23616, Note_on_c, 0, 76, 0
2, 23616, Note_on_c, 0, 69, 72
2, 23712, Note_on_c, 0, 69, 0
2, 23712, Note_on_c, 0, 81, 72
2, 23904, Note_on_c, 0, 81, 0
2, 23904, Note_on_c, 0, 79, 72
2, 23952, Note_on_c, 0, 79, 0
2, 23952, Note_on_c, 0, 77, 72
2, 24000, Note_on_c, 0, 77, 0
2, 24000, Note_on_c, 0, 76, 72
2, 24048, Note_on_c, 0, 76, 0
2, 24048, Note_on_c, 0, 79, 72
2, 24096, Note_on_c, 0, 79, 0
2, 24096, Note_on_c, 0, 77, 72
2, 24144, Note_on_c, 0, 77, 0
2, 24144, Note_on_c, 0, 76, 72
2, 24192, Note_on_c, 0, 76, 0
2, 24192, Note_on_c, 0, 74, 72
2, 24240, Note_on_c, 0, 74, 0
2, 24240, Note_on_c, 0, 73, 72
2, 24288, Note_on_c, 0, 73, 0
2, 24288, Note_on_c, 0, 74, 72
2, 24336, Note_on_c, 0, 74, 0
2, 24336, Note_on_c, 0, 76, 72
2, 24384, Note_on_c, 0, 76, 0
2, 24384, Note_on_c, 0, 77, 72
2, 24576, Note_on_c, 0, 77, 0
2, 24576, Note_on_c, 0, 77, 72
2, 24624, Note_on_c, 0, 77, 0
2, 24624, Note_on_c, 0, 76, 72
2, 24672, Note_on_c, 0, 76, 0
2, 24672, Note_on_c, 0, 77, 72
2, 24720, Note_on_c, 0, 77, 0
2, 24720, Note_on_c, 0, 79, 72
2, 24768, Note_on_c, 0, 79, 0
2, 24768, Note_on_c, 0, 81, 72
2, 24816, Note_on_c, 0, 81, 0
2, 24816, Note_on_c, 0, 79, 72
2, 24864, Note_on_c, 0, 79, 0
2, 24864, Note_on_c, 0, 81, 72
2, 24912, Note_on_c, 0, 81, 0
2, 24912, Note_on_c, 0, 82, 72
2, 24960, Note_on_c, 0, 82, 0
2, 24960, Note_on_c, 0, 81, 72
2, 25008, Note_on_c, 0, 81, 0
2, 25008, Note_on_c, 0, 79, 72
2, 25056, Note_on_c, 0, 79, 0
2, 25056, Note_on_c, 0, 77, 72
2, 25104, Note_on_c, 0, 77, 0
2, 25104, Note_on_c, 0, 76, 72
2, 25152, Note_on_c, 0, 76, 0
2, 25152, Note_on_c, 0, 74, 72
2, 25344, Note_on_c, 0, 74, 0
2, 25344, Note_on_c, 0, 74, 72
2, 25392, Note_on_c, 0, 74, 0
2, 25392, Note_on_c, 0, 73, 72
2, 25440, Note_on_c, 0, 73, 0
2, 25440, Note_on_c, 0, 74, 72
2, 25488, Note_on_c, 0, 74, 0
2, 25488, Note_on_c, 0, 76, 72
2, 25536, Note_on_c, 0, 76, 0
2, 25536, Note_on_c, 0, 74, 72
2, 25584, Note_on_c, 0, 74, 0
2, 25584, Note_on_c, 0, 72, 72
2, 25632, Note_on_c, 0, 72, 0
2, 25632, Note_on_c, 0, 70, 72
2, 25680, Note_on_c, 0, 70, 0
2, 25680, Note_on_c, 0, 69, 72
2, 25728, Note_on_c, 0, 69, 0
2, 25728, Note_on_c, 0, 71, 72
2, 25776, Note_on_c, 0, 71, 0
2, 25776, Note_on_c, 0, 73, 72
2, 25824, Note_on_c, 0, 73, 0
2, 25824, Note_on_c, 0, 74, 72
2, 25872, Note_on_c, 0, 74, 0
2, 25872, Note_on_c, 0, 76, 72
2, 25920, Note_on_c, 0, 76, 0
2, 25920, Note_on_c, 0, 77, 72
2, 25968, Note_on_c, 0, 77, 0
2, 25968, Note_on_c, 0, 76, 72
2, 26016, Note_on_c, 0, 76, 0
2, 26016, Note_on_c, 0, 77, 72
2, 26064, Note_on_c, 0, 77, 0
2, 26064, Note_on_c, 0, 79, 72
2, 26112, Note_on_c, 0, 79, 0
2, 26112, Note_on_c, 0, 77, 72
2, 26160, Note_on_c, 0, 77, 0
2, 26160, Note_on_c, 0, 76, 72
2, 26208, Note_on_c, 0, 76, 0
2, 26208, Note_on_c, 0, 74, 72
2, 26256, Note_on_c, 0, 74, 0
2, 26256, Note_on_c, 0, 73, 72
2, 26304, Note_on_c, 0, 73, 0
2, 26304, Note_on_c, 0, 74, 72
2, 26352, Note_on_c, 0, 74, 0
2, 26352, Note_on_c, 0, 76, 72
2, 26400, Note_on_c, 0, 76, 0
2, 26400, Note_on_c, 0, 77, 72
2, 26448, Note_on_c, 0, 77, 0
2, 26448, Note_on_c, 0, 74, 72
2, 26496, Note_on_c, 0, 74, 0
2, 26496, Note_on_c, 0, 70, 72
2, 26544, Note_on_c, 0, 70, 0
2, 26544, Note_on_c, 0, 69, 72
2, 26592, Note_on_c, 0, 69, 0
2, 26592, Note_on_c, 0, 70, 72
2, 26640, Note_on_c, 0, 70, 0
2, 26640, Note_on_c, 0, 72, 72
2, 26688, Note_on_c, 0, 72, 0
2, 26688, Note_on_c, 0, 70, 72
2, 26784, Note_on_c, 0, 70, 0
2, 26784, Note_on_c, 0, 74, 72
2, 26880, Note_on_c, 0, 74, 0
2, 26880, Note_on_c, 0, 70, 72
2, 26976, Note_on_c, 0, 70, 0
2, 26976, Note_on_c, 0, 74, 72
2, 27072, Note_on_c, 0, 74, 0
2, 27072, Note_on_c, 0, 79, 72
2, 27120, Note_on_c, 0, 79, 0
2, 27120, Note_on_c, 0, 77, 72
2, 27168, Note_on_c, 0, 77, 0
2, 27168, Note_on_c, 0, 79, 72
2, 27216, Note_on_c, 0, 79, 0
2, 27216, Note_on_c, 0, 81, 72
2, 27264, Note_on_c, 0, 81, 0
2, 27264, Note_on_c, 0, 79, 72
2, 27312, Note_on_c, 0, 79, 0
2, 27312, Note_on_c, 0, 77, 72
2, 27360, Note_on_c, 0, 77, 0
2, 27360, Note_on_c, 0, 76, 72
2, 27504, Note_on_c, 0, 76, 0
2, 27504, Note_on_c, 0, 77, 72
2, 27552, Note_on_c, 0, 77, 0
2, 27552, Note_on_c, 0, 76, 72
2, 27600, Note_on_c, 0, 76, 0
2, 27600, Note_on_c, 0, 74, 72
2, 27648, Note_on_c, 0, 74, 0
2, 27648, Note_on_c, 0, 73, 72
2, 27696, Note_on_c, 0, 73, 0
2, 27696, Note_on_c, 0, 71, 72
2, 27744, Note_on_c, 0, 71, 0
2, 27744, Note_on_c, 0, 73, 72
2, 27792, Note_on_c, 0, 73, 0
2, 27792, Note_on_c, 0, 74, 72
2, 27840, Note_on_c, 0, 74, 0
2, 27840, Note_on_c, 0, 73, 72
2, 27888, Note_on_c, 0, 73, 0
2, 27888, Note_on_c, 0, 76, 72
2, 27936, Note_on_c, 0, 76, 0
2, 27936, Note_on_c, 0, 64, 72
2, 28080, Note_on_c, 0, 64, 0
2, 28080, Note_on_c, 0, 65, 72
2, 28128, Note_on_c, 0, 65, 0
2, 28128, Note_on_c, 0, 67, 72
2, 28176, Note_on_c, 0, 67, 0
2, 28176, Note_on_c, 0, 69, 72
2, 28200, Note_on_c, 0, 69, 0
2, 28200, Note_on_c, 0, 70, 72
2, 28224, Note_on_c, 0, 70, 0
2, 28224, Note_on_c, 0, 69, 72
2, 28800, Note_on_c, 0, 69, 0
2, 28800, Note_on_c, 0, 69, 72
2, 29376, Note_on_c, 0, 69, 0
2, 29376, Note_on_c, 0, 69, 72
2, 29952, Note_on_c, 0, 69, 0
2, 29952, Note_on_c, 0, 69, 72
2, 30528, Note_on_c, 0, 69, 0
2, 30528, Note_on_c, 0, 69, 72
2, 30624, Note_on_c, 0, 69, 0
2, 30624, Note_on_c, 0, 67, 72
2, 30672, Note_on_c, 0, 67, 0
2, 30672, Note_on_c, 0, 66, 72
2, 30720, Note_on_c, 0, 66, 0
2, 30720, Note_on_c, 0, 67, 72
2, 30768, Note_on_c, 0, 67, 0
2, 30768, Note_on_c, 0, 69, 72
2, 30816, Note_on_c, 0, 69, 0
2, 30816, Note_on_c, 0, 70, 72
2, 30864, Note_on_c, 0, 70, 0
2, 30864, Note_on_c, 0, 72, 72
2, 30912, Note_on_c, 0, 72, 0
2, 30912, Note_on_c, 0, 74, 72
2, 31104, Note_on_c, 0, 74, 0
2, 31104, Note_on_c, 0, 74, 72
2, 31200, Note_on_c, 0, 74, 0
2, 31200, Note_on_c, 0, 72, 72
2, 31296, Note_on_c, 0, 72, 0
2, 31296, Note_on_c, 0, 70, 72
2, 31392, Note_on_c, 0, 70, 0
2, 31392, Note_on_c, 0, 69, 72
2, 31488, Note_on_c, 0, 69, 0
2, 31488, Note_on_c, 0, 67, 72
2, 31536, Note_on_c, 0, 67, 0
2, 31536, Note_on_c, 0, 69, 72
2, 31584, Note_on_c, 0, 69, 0
2, 31584, Note_on_c, 0, 70, 72
2, 31680, Note_on_c, 0, 70, 0
2, 31680, Note_on_c, 0, 69, 72
2, 31872, Note_on_c, 0, 69, 0
2, 31872, Note_on_c, 0, 69, 72
2, 32256, Note_on_c, 0, 69, 0
2, 32832, Note_on_c, 0, 69, 88
2, 33024, Note_on_c, 0, 69, 0
2, 33024, Note_on_c, 0, 62, 88
2, 33408, Note_on_c, 0, 62, 0
2, 33408, Note_on_c, 0, 65, 88
2, 33600, Note_on_c, 0, 65, 0
2, 33600, Note_on_c, 0, 69, 88
2, 33984, Note_on_c, 0, 69, 0
2, 33984, Note_on_c, 0, 70, 88
2, 34176, Note_on_c, 0, 70, 0
2, 34176, Note_on_c, 0, 69, 88
2, 34368, Note_on_c, 0, 69, 0
2, 34368, Note_on_c, 0, 67, 88
2, 34560, Note_on_c, 0, 67, 0
2, 34560, Note_on_c, 0, 65, 88
2, 34848, Note_on_c, 0, 65, 0
2, 34848, Note_on_c, 0, 64, 88
2, 34944, Note_on_c, 0, 64, 0
2, 34944, Note_on_c, 0, 65, 88
2, 35040, Note_on_c, 0, 65, 0
2, 35040, Note_on_c, 0, 67, 88
2, 35136, Note_on_c, 0, 67, 0
2, 35136, Note_on_c, 0, 69, 88
2, 35328, Note_on_c, 0, 69, 0
2, 35424, Note_on_c, 0, 67, 72
2, 35520, Note_on_c, 0, 67, 0
2, 35520, Note_on_c, 0, 65, 72
2, 35616, Note_on_c, 0, 65, 0
2, 35616, Note_on_c, 0, 64, 72
2, 35712, Note_on_c, 0, 64, 0
2, 35712, Note_on_c, 0, 62, 72
2, 35904, Note_on_c, 0, 62, 0
2, 36000, Note_on_c, 0, 60, 72
2, 36096, Note_on_c, 0, 60, 0
2, 36096, Note_on_c, 0, 58, 72
2, 36192, Note_on_c, 0, 58, 0
2, 36192, Note_on_c, 0, 57, 72
2, 36288, Note_on_c, 0, 57, 0
2, 36288, Note_on_c, 0, 55, 72
2, 36384, Note_on_c, 0, 55, 0
2, 36384, Note_on_c, 0, 57, 72
2, 36480, Note_on_c, 0, 57, 0
2, 36480, Note_on_c, 0, 58, 72
2, 36576, Note_on_c, 0, 58, 0
2, 36576, Note_on_c, 0, 60, 72
2, 36672, Note_on_c, 0, 60, 0
2, 36672, Note_on_c, 0, 62, 72
2, 36768, Note_on_c, 0, 62, 0
2, 36768, Note_on_c, 0, 63, 72
2, 36864, Note_on_c, 0, 63, 0
2, 36864, Note_on_c, 0, 62, 72
2, 36960, Note_on_c, 0, 62, 0
2, 36960, Note_on_c, 0, 64, 72
2, 37008, Note_on_c, 0, 64, 0
2, 37008, Note_on_c, 0, 66, 72
2, 37056, Note_on_c, 0, 66, 0
2, 37056, Note_on_c, 0, 67, 72
2, 37344, Note_on_c, 0, 67, 0
2, 37344, Note_on_c, 0, 69, 72
2, 37392, Note_on_c, 0, 69, 0
2, 37392, Note_on_c, 0, 67, 72
2, 37440, Note_on_c, 0, 67, 0
2, 37440, Note_on_c, 0, 65, 72
2, 37536, Note_on_c, 0, 65, 0
2, 37536, Note_on_c, 0, 67, 72
2, 37584, Note_on_c, 0, 67, 0
2, 37584, Note_on_c, 0, 69, 72
2, 37632, Note_on_c, 0, 69, 0
2, 37632, Note_on_c, 0, 70, 72
2, 37920, Note_on_c, 0, 70, 0
2, 37920, Note_on_c, 0, 72, 72
2, 37968, Note_on_c, 0, 72, 0
2, 37968, Note_on_c, 0, 70, 72
2, 38016, Note_on_c, 0, 70, 0
2, 38016, Note_on_c, 0, 69, 72
2, 38208, Note_on_c, 0, 69, 0
2, 38304, Note_on_c, 0, 77, 72
2, 38400, Note_on_c, 0, 77, 0
2, 38400, Note_on_c, 0, 76, 72
2, 38496, Note_on_c, 0, 76, 0
2, 38496, Note_on_c, 0, 74, 72
2, 38592, Note_on_c, 0, 74, 0
2, 38592, Note_on_c, 0, 72, 72
2, 38688, Note_on_c, 0, 72, 0
2, 38688, Note_on_c, 0, 74, 72
2, 38784, Note_on_c, 0, 74, 0
2, 38784, Note_on_c, 0, 74, 72
2, 38808, Note_on_c, 0, 74, 0
2, 38808, Note_on_c, 0, 73, 72
2, 38832, Note_on_c, 0, 73, 0
2, 38832, Note_on_c, 0, 74, 72
2, 38856, Note_on_c, 0, 74, 0
2, 38856, Note_on_c, 0, 73, 72
2, 38880, Note_on_c, 0, 73, 0
2, 38880, Note_on_c, 0, 74, 72
2, 38904, Note_on_c, 0, 74, 0
2, 38904, Note_on_c, 0, 73, 72
2, 38928, Note_on_c, 0, 73, 0
2, 38928, Note_on_c, 0, 74, 72
2, 38952, Note_on_c, 0, 74, 0
2, 38952, Note_on_c, 0, 73, 72
2, 38976, Note_on_c, 0, 73, 0
2, 38976, Note_on_c, 0, 74, 72
2, 39000, Note_on_c, 0, 74, 0
2, 39000, Note_on_c, 0, 73, 72
2, 39024, Note_on_c, 0, 73, 0
2, 39024, Note_on_c, 0, 74, 72
2, 39048, Note_on_c, 0, 74, 0
2, 39048, Note_on_c, 0, 73, 72
2, 39072, Note_on_c, 0, 73, 0
2, 39072, Note_on_c, 0, 74, 72
2, 39096, Note_on_c, 0, 74, 0
2, 39096, Note_on_c, 0, 73, 72
2, 39120, Note_on_c, 0, 73, 0
2, 39120, Note_on_c, 0, 74, 72
2, 39144, Note_on_c, 0, 74, 0
2, 39144, Note_on_c, 0, 73, 72
2, 39168, Note_on_c, 0, 73, 0
2, 39168, Note_on_c, 0, 74, 72
2, 39744, Note_on_c, 0, 74, 0
2, 39744, Note_on_c, 0, 74, 72
2, 39792, Note_on_c, 0, 74, 0
2, 39792, Note_on_c, 0, 76, 72
2, 39840, Note_on_c, 0, 76, 0
2, 39840, Note_on_c, 0, 77, 72
2, 39888, Note_on_c, 0, 77, 0
2, 39888, Note_on_c, 0, 76, 72
2, 39936, Note_on_c, 0, 76, 0
2, 39936, Note_on_c, 0, 74, 72
2, 40032, Note_on_c, 0, 74, 0
2, 40032, Note_on_c, 0, 73, 72
2, 40128, Note_on_c, 0, 73, 0
2, 40128, Note_on_c, 0, 74, 72
2, 40224, Note_on_c, 0, 74, 0
2, 40224, Note_on_c, 0, 76, 72
2, 40320, Note_on_c, 0, 76, 0
2, 40320, Note_on_c, 0, 77, 72
2, 40416, Note_on_c, 0, 77, 0
2, 40416, Note_on_c, 0, 79, 72
2, 40512, Note_on_c, 0, 79, 0
2, 40512, Note_on_c, 0, 81, 72
2, 40704, Note_on_c, 0, 81, 0
2, 40800, Note_on_c, 0, 73, 72
2, 40896, Note_on_c, 0, 73, 0
2, 40896, Note_on_c, 0, 74, 72
2, 40944, Note_on_c, 0, 74, 0
2, 40944, Note_on_c, 0, 76, 72
2, 40992, Note_on_c, 0, 76, 0
2, 40992, Note_on_c, 0, 77, 72
2, 41040, Note_on_c, 0, 77, 0
2, 41040, Note_on_c, 0, 79, 72
2, 41088, Note_on_c, 0, 79, 0
2, 41088, Note_on_c, 0, 77, 72
2, 41280, Note_on_c, 0, 77, 0
2, 41376, Note_on_c, 0, 66, 72
2, 41472, Note_on_c, 0, 66, 0
2, 41472, Note_on_c, 0, 67, 72
2, 41520, Note_on_c, 0, 67, 0
2, 41520, Note_on_c, 0, 69, 72
2, 41568, Note_on_c, 0, 69, 0
2, 41568, Note_on_c, 0, 70, 72
2, 41616, Note_on_c, 0, 70, 0
2, 41616, Note_on_c, 0, 72, 72
2, 41664, Note_on_c, 0, 72, 0
2, 41664, Note_on_c, 0, 70, 72
2, 41856, Note_on_c, 0, 70, 0
2, 41952, Note_on_c, 0, 67, 72
2, 42048, Note_on_c, 0, 67, 0
2, 42048, Note_on_c, 0, 74, 72
2, 42096, Note_on_c, 0, 74, 0
2, 42096, Note_on_c, 0, 72, 72
2, 42144, Note_on_c, 0, 72, 0
2, 42144, Note_on_c, 0, 70, 72
2, 42192, Note_on_c, 0, 70, 0
2, 42192, Note_on_c, 0, 69, 72
2, 42240, Note_on_c, 0, 69, 0
2, 42240, Note_on_c, 0, 67, 72
2, 42432, Note_on_c, 0, 67, 0
2, 42432, Note_on_c, 0, 79, 72
2, 42624, Note_on_c, 0, 79, 0
2, 42624, Note_on_c, 0, 77, 72
2, 42672, Note_on_c, 0, 77, 0
2, 42672, Note_on_c, 0, 76, 72
2, 42720, Note_on_c, 0, 76, 0
2, 42720, Note_on_c, 0, 74, 72
2, 42768, Note_on_c, 0, 74, 0
2, 42768, Note_on_c, 0, 72, 72
2, 42816, Note_on_c, 0, 72, 0
2, 42816, Note_on_c, 0, 70, 72
2, 43008, Note_on_c, 0, 70, 0
2, 43008, Note_on_c, 0, 82, 72
2, 43200, Note_on_c, 0, 82, 0
2, 43200, Note_on_c, 0, 81, 72
2, 43248, Note_on_c, 0, 81, 0
2, 43248, Note_on_c, 0, 79, 72
2, 43296, Note_on_c, 0, 79, 0
2, 43296, Note_on_c, 0, 77, 72
2, 43344, Note_on_c, 0, 77, 0
2, 43344, Note_on_c, 0, 76, 72
2, 43392, Note_on_c, 0, 76, 0
2, 43392, Note_on_c, 0, 74, 72
2, 43584, Note_on_c, 0, 74, 0
2, 43680, Note_on_c, 0, 73, 72
2, 43776, Note_on_c, 0, 73, 0
2, 43776, Note_on_c, 0, 74, 72
2, 43872, Note_on_c, 0, 74, 0
2, 43872, Note_on_c, 0, 76, 72
2, 43968, Note_on_c, 0, 76, 0
2, 43968, Note_on_c, 0, 77, 72
2, 44064, Note_on_c, 0, 77, 0
2, 44064, Note_on_c, 0, 79, 72
2, 44160, Note_on_c, 0, 79, 0
2, 44160, Note_on_c, 0, 81, 72
2, 44352, Note_on_c, 0, 81, 0
2, 45312, Note_on_c, 0, 69, 72
2, 45360, Note_on_c, 0, 69, 0
2, 45360, Note_on_c, 0, 67, 72
2, 45408, Note_on_c, 0, 67, 0
2, 45408, Note_on_c, 0, 65, 72
2, 45456, Note_on_c, 0, 65, 0
2, 45456, Note_on_c, 0, 64, 72
2, 45504, Note_on_c, 0, 64, 0
2, 45504, Note_on_c, 0, 62, 72
2, 45552, Note_on_c, 0, 62, 0
2, 45552, Note_on_c, 0, 61, 72
2, 45600, Note_on_c, 0, 61, 0
2, 45600, Note_on_c, 0, 62, 72
2, 45648, Note_on_c, 0, 62, 0
2, 45648, Note_on_c, 0, 64, 72
2, 45696, Note_on_c, 0, 64, 0
2, 45696, Note_on_c, 0, 65, 72
2, 45792, Note_on_c, 0, 65, 0
2, 45792, Note_on_c, 0, 67, 72
2, 45888, Note_on_c, 0, 67, 0
2, 45888, Note_on_c, 0, 69, 72
2, 45984, Note_on_c, 0, 69, 0
2, 45984, Note_on_c, 0, 70, 72
2, 46080, Note_on_c, 0, 70, 0
2, 46080, Note_on_c, 0, 69, 72
2, 46176, Note_on_c, 0, 69, 0
2, 46176, Note_on_c, 0, 71, 72
2, 46224, Note_on_c, 0, 71, 0
2, 46224, Note_on_c, 0, 73, 72
2, 46272, Note_on_c, 0, 73, 0
2, 46272, Note_on_c, 0, 74, 72
2, 46560, Note_on_c, 0, 74, 0
2, 46560, Note_on_c, 0, 76, 72
2, 46608, Note_on_c, 0, 76, 0
2, 46608, Note_on_c, 0, 74, 72
2, 46656, Note_on_c, 0, 74, 0
2, 46656, Note_on_c, 0, 72, 72
2, 46752, Note_on_c, 0, 72, 0
2, 46752, Note_on_c, 0, 76, 72
2, 46848, Note_on_c, 0, 76, 0
2, 46848, Note_on_c, 0, 69, 72
2, 47040, Note_on_c, 0, 69, 0
2, 47088, Note_on_c, 0, 72, 72
2, 47136, Note_on_c, 0, 72, 0
2, 47136, Note_on_c, 0, 71, 72
2, 47184, Note_on_c, 0, 71, 0
2, 47184, Note_on_c, 0, 69, 72
2, 47232, Note_on_c, 0, 69, 0
2, 47232, Note_on_c, 0, 68, 72
2, 47328, Note_on_c, 0, 68, 0
2, 47328, Note_on_c, 0, 69, 72
2, 47376, Note_on_c, 0, 69, 0
2, 47376, Note_on_c, 0, 71, 72
2, 47424, Note_on_c, 0, 71, 0
2, 47424, Note_on_c, 0, 72, 72
2, 47520, Note_on_c, 0, 72, 0
2, 47520, Note_on_c, 0, 74, 72
2, 47616, Note_on_c, 0, 74, 0
2, 47616, Note_on_c, 0, 76, 72
2, 47712, Note_on_c, 0, 76, 0
2, 47712, Note_on_c, 0, 77, 72
2, 47808, Note_on_c, 0, 77, 0
2, 47808, Note_on_c, 0, 76, 72
2, 47904, Note_on_c, 0, 76, 0
2, 47904, Note_on_c, 0, 74, 72
2, 48000, Note_on_c, 0, 74, 0
2, 48000, Note_on_c, 0, 72, 72
2, 48096, Note_on_c, 0, 72, 0
2, 48096, Note_on_c, 0, 74, 72
2, 48192, Note_on_c, 0, 74, 0
2, 48192, Note_on_c, 0, 72, 72
2, 48288, Note_on_c, 0, 72, 0
2, 48288, Note_on_c, 0, 71, 72
2, 48384, Note_on_c, 0, 71, 0
2, 48384, Note_on_c, 0, 69, 72
2, 48576, Note_on_c, 0, 69, 0
2, 48576, Note_on_c, 0, 67, 72
2, 48768, Note_on_c, 0, 67, 0
2, 48816, Note_on_c, 0, 67, 72
2, 48864, Note_on_c, 0, 67, 0
2, 48864, Note_on_c, 0, 69, 72
2, 48912, Note_on_c, 0, 69, 0
2, 48912, Note_on_c, 0, 71, 72
2, 48960, Note_on_c, 0, 71, 0
2, 48960, Note_on_c, 0, 72, 72
2, 49008, Note_on_c, 0, 72, 0
2, 49008, Note_on_c, 0, 74, 72
2, 49056, Note_on_c, 0, 74, 0
2, 49056, Note_on_c, 0, 76, 72
2, 49104, Note_on_c, 0, 76, 0
2, 49104, Note_on_c, 0, 77, 72
2, 49152, Note_on_c, 0, 77, 0
2, 49152, Note_on_c, 0, 76, 72
2, 49200, Note_on_c, 0, 76, 0
2, 49200, Note_on_c, 0, 81, 72
2, 49248, Note_on_c, 0, 81, 0
2, 49248, Note_on_c, 0, 79, 72
2, 49296, Note_on_c, 0, 79, 0
2, 49296, Note_on_c, 0, 77, 72
2, 49344, Note_on_c, 0, 77, 0
2, 49344, Note_on_c, 0, 76, 72
2, 49392, Note_on_c, 0, 76, 0
2, 49392, Note_on_c, 0, 74, 72
2, 49440, Note_on_c, 0, 74, 0
2, 49440, Note_on_c, 0, 72, 72
2, 49488, Note_on_c, 0, 72, 0
2, 49488, Note_on_c, 0, 71, 72
2, 49536, Note_on_c, 0, 71, 0
2, 49536, Note_on_c, 0, 72, 72
2, 49584, Note_on_c, 0, 72, 0
2, 49584, Note_on_c, 0, 74, 72
2, 49632, Note_on_c, 0, 74, 0
2, 49632, Note_on_c, 0, 76, 72
2, 49680, Note_on_c, 0, 76, 0
2, 49680, Note_on_c, 0, 74, 72
2, 49728, Note_on_c, 0, 74, 0
2, 49728, Note_on_c, 0, 72, 72
2, 49920, Note_on_c, 0, 72, 0
2, 50016, Note_on_c, 0, 72, 72
2, 50112, Note_on_c, 0, 72, 0
2, 50112, Note_on_c, 0, 70, 72
2, 50160, Note_on_c, 0, 70, 0
2, 50160, Note_on_c, 0, 69, 72
2, 50208, Note_on_c, 0, 69, 0
2, 50208, Note_on_c, 0, 67, 72
2, 50256, Note_on_c, 0, 67, 0
2, 50256, Note_on_c, 0, 70, 72
2, 50304, Note_on_c, 0, 70, 0
2, 50304, Note_on_c, 0, 74, 72
2, 50496, Note_on_c, 0, 74, 0
2, 50544, Note_on_c, 0, 69, 72
2, 50592, Note_on_c, 0, 69, 0
2, 50592, Note_on_c, 0, 67, 72
2, 50640, Note_on_c, 0, 67, 0
2, 50640, Note_on_c, 0, 65, 72
2, 50688, Note_on_c, 0, 65, 0
2, 50688, Note_on_c, 0, 64, 72
2, 50784, Note_on_c, 0, 64, 0
2, 50784, Note_on_c, 0, 65, 72
2, 50832, Note_on_c, 0, 65, 0
2, 50832, Note_on_c, 0, 67, 72
2, 50880, Note_on_c, 0, 67, 0
2, 50880, Note_on_c, 0, 69, 72
2, 50976, Note_on_c, 0, 69, 0
2, 50976, Note_on_c, 0, 70, 72
2, 51072, Note_on_c, 0, 70, 0
2, 51072, Note_on_c, 0, 72, 72
2, 51168, Note_on_c, 0, 72, 0
2, 51168, Note_on_c, 0, 74, 72
2, 51264, Note_on_c, 0, 74, 0
2, 51264, Note_on_c, 0, 72, 72
2, 51360, Note_on_c, 0, 72, 0
2, 51360, Note_on_c, 0, 70, 72
2, 51456, Note_on_c, 0, 70, 0
2, 51456, Note_on_c, 0, 69, 72
2, 51552, Note_on_c, 0, 69, 0
2, 51552, Note_on_c, 0, 67, 72
2, 51648, Note_on_c, 0, 67, 0
2, 51648, Note_on_c, 0, 65, 72
2, 51840, Note_on_c, 0, 65, 0
2, 51840, Note_on_c, 0, 65, 72
2, 51888, Note_on_c, 0, 65, 0
2, 51888, Note_on_c, 0, 64, 72
2, 51936, Note_on_c, 0, 64, 0
2, 51936, Note_on_c, 0, 65, 72
2, 51984, Note_on_c, 0, 65, 0
2, 51984, Note_on_c, 0, 67, 72
2, 52032, Note_on_c, 0, 67, 0
2, 52032, Note_on_c, 0, 69, 72
2, 52224, Note_on_c, 0, 69, 0
2, 52224, Note_on_c, 0, 69, 72
2, 52272, Note_on_c, 0, 69, 0
2, 52272, Note_on_c, 0, 67, 72
2, 52320, Note_on_c, 0, 67, 0
2, 52320, Note_on_c, 0, 69, 72
2, 52368, Note_on_c, 0, 69, 0
2, 52368, Note_on_c, 0, 70, 72
2, 52416, Note_on_c, 0, 70, 0
2, 52416, Note_on_c, 0, 72, 72
2, 52512, Note_on_c, 0, 72, 0
2, 52512, Note_on_c, 0, 74, 72
2, 52560, Note_on_c, 0, 74, 0
2, 52560, Note_on_c, 0, 76, 72
2, 52608, Note_on_c, 0, 76, 0
2, 52608, Note_on_c, 0, 77, 72
2, 52896, Note_on_c, 0, 77, 0
2, 52896, Note_on_c, 0, 79, 72
2, 52944, Note_on_c, 0, 79, 0
2, 52944, Note_on_c, 0, 77, 72
2, 52992, Note_on_c, 0, 77, 0
2, 52992, Note_on_c, 0, 76, 72
2, 53088, Note_on_c, 0, 76, 0
2, 53088, Note_on_c, 0, 79, 72
2, 53184, Note_on_c, 0, 79, 0
2, 53184, Note_on_c, 0, 72, 72
2, 53376, Note_on_c, 0, 72, 0
2, 56448, Note_on_c, 0, 69, 88
2, 56496, Note_on_c, 0, 69, 0
2, 56496, Note_on_c, 0, 67, 88
2, 56544, Note_on_c, 0, 67, 0
2, 56544, Note_on_c, 0, 65, 88
2, 56592, Note_on_c, 0, 65, 0
2, 56592, Note_on_c, 0, 64, 88
2, 56640, Note_on_c, 0, 64, 0
2, 56640, Note_on_c, 0, 62, 88
2, 56832, Note_on_c, 0, 62, 0
2, 56832, Note_on_c, 0, 62, 88
2, 56880, Note_on_c, 0, 62, 0
2, 56880, Note_on_c, 0, 61, 88
2, 56928, Note_on_c, 0, 61, 0
2, 56928, Note_on_c, 0, 62, 88
2, 56976, Note_on_c, 0, 62, 0
2, 56976, Note_on_c, 0, 64, 88
2, 57024, Note_on_c, 0, 64, 0
2, 57024, Note_on_c, 0, 65, 88
2, 57120, Note_on_c, 0, 65, 0
2, 57120, Note_on_c, 0, 67, 88
2, 57216, Note_on_c, 0, 67, 0
2, 57216, Note_on_c, 0, 69, 88
2, 57504, Note_on_c, 0, 69, 0
2, 57504, Note_on_c, 0, 70, 88
2, 57552, Note_on_c, 0, 70, 0
2, 57552, Note_on_c, 0, 72, 88
2, 57600, Note_on_c, 0, 72, 0
2, 57600, Note_on_c, 0, 70, 88
2, 57792, Note_on_c, 0, 70, 0
2, 57792, Note_on_c, 0, 69, 88
2, 58080, Note_on_c, 0, 69, 0
2, 58080, Note_on_c, 0, 67, 88
2, 58176, Note_on_c, 0, 67, 0
2, 58176, Note_on_c, 0, 65, 88
2, 58464, Note_on_c, 0, 65, 0
2, 58464, Note_on_c, 0, 64, 88
2, 58560, Note_on_c, 0, 64, 0
2, 58560, Note_on_c, 0, 65, 88
2, 58656, Note_on_c, 0, 65, 0
2, 58656, Note_on_c, 0, 67, 88
2, 58752, Note_on_c, 0, 67, 0
2, 58752, Note_on_c, 0, 69, 88
2, 58944, Note_on_c, 0, 69, 0
2, 58944, Note_on_c, 0, 69, 72
2, 58992, Note_on_c, 0, 69, 0
2, 58992, Note_on_c, 0, 70, 72
2, 59040, Note_on_c, 0, 70, 0
2, 59040, Note_on_c, 0, 69, 72
2, 59088, Note_on_c, 0, 69, 0
2, 59088, Note_on_c, 0, 67, 72
2, 59136, Note_on_c, 0, 67, 0
2, 59136, Note_on_c, 0, 65, 72
2, 59232, Note_on_c, 0, 65, 0
2, 59232, Note_on_c, 0, 69, 72
2, 59328, Note_on_c, 0, 69, 0
2, 59328, Note_on_c, 0, 64, 72
2, 59520, Note_on_c, 0, 64, 0
2, 59520, Note_on_c, 0, 64, 72
2, 59568, Note_on_c, 0, 64, 0
2, 59568, Note_on_c, 0, 65, 72
2, 59616, Note_on_c, 0, 65, 0
2, 59616, Note_on_c, 0, 64, 72
2, 59664, Note_on_c, 0, 64, 0
2, 59664, Note_on_c, 0, 62, 72
2, 59712, Note_on_c, 0, 62, 0
2, 59712, Note_on_c, 0, 64, 72
2, 59808, Note_on_c, 0, 64, 0
2, 59808, Note_on_c, 0, 65, 72
2, 59904, Note_on_c, 0, 65, 0
2, 59904, Note_on_c, 0, 67, 72
2, 60096, Note_on_c, 0, 67, 0
2, 60096, Note_on_c, 0, 67, 72
2, 60144, Note_on_c, 0, 67, 0
2, 60144, Note_on_c, 0, 69, 72
2, 60192, Note_on_c, 0, 69, 0
2, 60192, Note_on_c, 0, 67, 72
2, 60240, Note_on_c, 0, 67, 0
2, 60240, Note_on_c, 0, 65, 72
2, 60288, Note_on_c, 0, 65, 0
2, 60288, Note_on_c, 0, 64, 72
2, 60384, Note_on_c, 0, 64, 0
2, 60384, Note_on_c, 0, 67, 72
2, 60480, Note_on_c, 0, 67, 0
2, 60480, Note_on_c, 0, 62, 72
2, 60672, Note_on_c, 0, 62, 0
2, 60672, Note_on_c, 0, 62, 72
2, 60720, Note_on_c, 0, 62, 0
2, 60720, Note_on_c, 0, 64, 72
2, 60768, Note_on_c, 0, 64, 0
2, 60768, Note_on_c, 0, 62, 72
2, 60816, Note_on_c, 0, 62, 0
2, 60816, Note_on_c, 0, 61, 72
2, 60864, Note_on_c, 0, 61, 0
2, 60864, Note_on_c, 0, 62, 72
2, 60960, Note_on_c, 0, 62, 0
2, 60960, Note_on_c, 0, 67, 72
2, 61056, Note_on_c, 0, 67, 0
2, 61056, Note_on_c, 0, 65, 72
2, 61344, Note_on_c, 0, 65, 0
2, 61344, Note_on_c, 0, 67, 72
2, 61392, Note_on_c, 0, 67, 0
2, 61392, Note_on_c, 0, 69, 72
2, 61440, Note_on_c, 0, 69, 0
2, 61440, Note_on_c, 0, 70, 72
2, 61488, Note_on_c, 0, 70, 0
2, 61488, Note_on_c, 0, 74, 72
2, 61536, Note_on_c, 0, 74, 0
2, 61536, Note_on_c, 0, 72, 72
2, 61584, Note_on_c, 0, 72, 0
2, 61584, Note_on_c, 0, 70, 72
2, 61632, Note_on_c, 0, 70, 0
2, 61632, Note_on_c, 0, 69, 72
2, 61680, Note_on_c, 0, 69, 0
2, 61680, Note_on_c, 0, 70, 72
2, 61728, Note_on_c, 0, 70, 0
2, 61728, Note_on_c, 0, 69, 72
2, 61776, Note_on_c, 0, 69, 0
2, 61776, Note_on_c, 0, 67, 72
2, 61824, Note_on_c, 0, 67, 0
2, 61824, Note_on_c, 0, 65, 72
2, 62016, Note_on_c, 0, 65, 0
2, 62016, Note_on_c, 0, 65, 72
2, 62064, Note_on_c, 0, 65, 0
2, 62064, Note_on_c, 0, 67, 72
2, 62112, Note_on_c, 0, 67, 0
2, 62112, Note_on_c, 0, 65, 72
2, 62160, Note_on_c, 0, 65, 0
2, 62160, Note_on_c, 0, 64, 72
2, 62208, Note_on_c, 0, 64, 0
2, 62208, Note_on_c, 0, 62, 72
2, 62304, Note_on_c, 0, 62, 0
2, 62400, Note_on_c, 0, 81, 72
2, 62448, Note_on_c, 0, 81, 0
2, 62448, Note_on_c, 0, 79, 72
2, 62496, Note_on_c, 0, 79, 0
2, 62496, Note_on_c, 0, 77, 72
2, 62544, Note_on_c, 0, 77, 0
2, 62544, Note_on_c, 0, 76, 72
2, 62592, Note_on_c, 0, 76, 0
2, 62592, Note_on_c, 0, 74, 72
2, 62784, Note_on_c, 0, 74, 0
2, 62784, Note_on_c, 0, 74, 72
2, 62880, Note_on_c, 0, 74, 0
2, 62880, Note_on_c, 0, 76, 72
2, 62976, Note_on_c, 0, 76, 0
2, 62976, Note_on_c, 0, 77, 72
2, 63072, Note_on_c, 0, 77, 0
2, 63072, Note_on_c, 0, 79, 72
2, 63168, Note_on_c, 0, 79, 0
2, 63168, Note_on_c, 0, 77, 72
2, 63216, Note_on_c, 0, 77, 0
2, 63216, Note_on_c, 0, 74, 72
2, 63264, Note_on_c, 0, 74, 0
2, 63264, Note_on_c, 0, 72, 72
2, 63312, Note_on_c, 0, 72, 0
2, 63312, Note_on_c, 0, 70, 72
2, 63360, Note_on_c, 0, 70, 0
2, 63360, Note_on_c, 0, 69, 72
2, 63936, Note_on_c, 0, 69, 0
2, 63936, Note_on_c, 0, 69, 72
2, 64512, Note_on_c, 0, 69, 0
2, 64512, Note_on_c, 0, 69, 72
2, 64704, Note_on_c, 0, 69, 0
2, 64704, Note_on_c, 0, 69, 72
2, 64752, Note_on_c, 0, 69, 0
2, 64752, Note_on_c, 0, 74, 72
2, 64776, Note_on_c, 0, 74, 0
2, 64776, Note_on_c, 0, 76, 72
2, 64800, Note_on_c, 0, 76, 0
2, 64800, Note_on_c, 0, 78, 72
2, 64824, Note_on_c, 0, 78, 0
2, 64824, Note_on_c, 0, 76, 72
2, 64848, Note_on_c, 0, 76, 0
2, 64848, Note_on_c, 0, 74, 72
2, 64896, Note_on_c, 0, 74, 0
2, 64896, Note_on_c, 0, 81, 72
2, 65088, Note_on_c, 0, 81, 0
2, 65088, End_track
3, 0, Start_track
3, 5184, Note_on_c, 0, 62, 88
3, 5376, Note_on_c, 0, 62, 0
3, 5376, Note_on_c, 0, 69, 88
3, 5760, Note_on_c, 0, 69, 0
3, 5760, Note_on_c, 0, 65, 88
3, 5952, Note_on_c, 0, 65, 0
3, 5952, Note_on_c, 0, 62, 88
3, 6336, Note_on_c, 0, 62, 0
3, 6336, Note_on_c, 0, 61, 88
3, 6528, Note_on_c, 0, 61, 0
3, 6528, Note_on_c, 0, 62, 88
3, 6720, Note_on_c, 0, 62, 0
3, 6720, Note_on_c, 0, 64, 88
3, 6912, Note_on_c, 0, 64, 0
3, 6912, Note_on_c, 0, 65, 88
3, 7200, Note_on_c, 0, 65, 0
3, 7200, Note_on_c, 0, 67, 88
3, 7296, Note_on_c, 0, 67, 0
3, 7296, Note_on_c, 0, 65, 88
3, 7392, Note_on_c, 0, 65, 0
3, 7392, Note_on_c, 0, 64, 88
3, 7488, Note_on_c, 0, 64, 0
3, 7488, Note_on_c, 0, 62, 88
3, 7680, Note_on_c, 0, 62, 0
3, 7776, Note_on_c, 0, 64, 72
3, 7872, Note_on_c, 0, 64, 0
3, 7872, Note_on_c, 0, 65, 72
3, 7968, Note_on_c, 0, 65, 0
3, 7968, Note_on_c, 0, 67, 72
3, 8064, Note_on_c, 0, 67, 0
3, 8064, Note_on_c, 0, 69, 72
3, 8256, Note_on_c, 0, 69, 0
3, 8352, Note_on_c, 0, 71, 72
3, 8448, Note_on_c, 0, 71, 0
3, 8448, Note_on_c, 0, 72, 72
3, 8544, Note_on_c, 0, 72, 0
3, 8544, Note_on_c, 0, 74, 72
3, 8640, Note_on_c, 0, 74, 0
3, 8640, Note_on_c, 0, 76, 72
3, 8736, Note_on_c, 0, 76, 0
3, 8736, Note_on_c, 0, 74, 72
3, 8832, Note_on_c, 0, 74, 0
3, 8832, Note_on_c, 0, 72, 72
3, 8928, Note_on_c, 0, 72, 0
3, 8928, Note_on_c, 0, 71, 72
3, 9024, Note_on_c, 0, 71, 0
3, 9024, Note_on_c, 0, 69, 72
3, 9120, Note_on_c, 0, 69, 0
3, 9120, Note_on_c, 0, 68, 72
3, 9216, Note_on_c, 0, 68, 0
3, 9216, Note_on_c, 0, 69, 72
3, 9504, Note_on_c, 0, 69, 0
3, 9504, Note_on_c, 0, 70, 72
3, 9600, Note_on_c, 0, 70, 0
3, 9600, Note_on_c, 0, 69, 72
3, 9696, Note_on_c, 0, 69, 0
3, 9696, Note_on_c, 0, 67, 72
3, 9792, Note_on_c, 0, 67, 0
3, 9792, Note_on_c, 0, 65, 72
3, 10080, Note_on_c, 0, 65, 0
3, 10080, Note_on_c, 0, 67, 72
3, 10176, Note_on_c, 0, 67, 0
3, 10176, Note_on_c, 0, 65, 72
3, 10272, Note_on_c, 0, 65, 0
3, 10272, Note_on_c, 0, 64, 72
3, 10368, Note_on_c, 0, 64, 0
3, 10368, Note_on_c, 0, 62, 72
3, 10656, Note_on_c, 0, 62, 0
3, 10656, Note_on_c, 0, 64, 72
3, 10752, Note_on_c, 0, 64, 0
3, 10752, Note_on_c, 0, 62, 72
3, 10848, Note_on_c, 0, 62, 0
3, 10848, Note_on_c, 0, 61, 72
3, 10944, Note_on_c, 0, 61, 0
3, 10944, Note_on_c, 0, 62, 72
3, 11040, Note_on_c, 0, 62, 0
3, 11040, Note_on_c, 0, 64, 72
3, 11136, Note_on_c, 0, 64, 0
3, 11136, Note_on_c, 0, 65, 72
3, 11424, Note_on_c, 0, 65, 0
3, 11424, Note_on_c, 0, 67, 72
3, 11472, Note_on_c, 0, 67, 0
3, 11472, Note_on_c, 0, 64, 72
3, 11520, Note_on_c, 0, 64, 0
3, 11520, Note_on_c, 0, 65, 72
3, 11616, Note_on_c, 0, 65, 0
3, 11616, Note_on_c, 0, 69, 72
3, 11712, Note_on_c, 0, 69, 0
3, 11712, Note_on_c, 0, 62, 72
3, 11808, Note_on_c, 0, 62, 0
3, 11808, Note_on_c, 0, 57, 72
3, 11856, Note_on_c, 0, 57, 0
3, 11856, Note_on_c, 0, 59, 72
3, 11904, Note_on_c, 0, 59, 0
3, 11904, Note_on_c, 0, 61, 72
3, 12000, Note_on_c, 0, 61, 0
3, 12000, Note_on_c, 0, 62, 72
3, 12048, Note_on_c, 0, 62, 0
3, 12048, Note_on_c, 0, 64, 72
3, 12096, Note_on_c, 0, 64, 0
3, 12096, Note_on_c, 0, 62, 72
3, 12192, Note_on_c, 0, 62, 0
3, 12192, Note_on_c, 0, 61, 72
3, 12288, Note_on_c, 0, 61, 0
3, 12288, Note_on_c, 0, 62, 72
3, 12336, Note_on_c, 0, 62, 0
3, 12336, Note_on_c, 0, 64, 72
3, 12384, Note_on_c, 0, 64, 0
3, 12384, Note_on_c, 0, 65, 72
3, 12432, Note_on_c, 0, 65, 0
3, 12432, Note_on_c, 0, 67, 72
3, 12480, Note_on_c, 0, 67, 0
3, 12480, Note_on_c, 0, 69, 72
3, 12672, Note_on_c, 0, 69, 0
3, 12672, Note_on_c, 0, 69, 72
3, 12960, Note_on_c, 0, 69, 0
3, 12960, Note_on_c, 0, 70, 72
3, 13008, Note_on_c, 0, 70, 0
3, 13008, Note_on_c, 0, 72, 72
3, 13056, Note_on_c, 0, 72, 0
3, 13056, Note_on_c, 0, 72, 72
3, 13080, Note_on_c, 0, 72, 0
3, 13080, Note_on_c, 0, 70, 72
3, 13104, Note_on_c, 0, 70, 0
3, 13104, Note_on_c, 0, 72, 72
3, 13128, Note_on_c, 0, 72, 0
3, 13128, Note_on_c, 0, 70, 72
3, 13152, Note_on_c, 0, 70, 0
3, 13152, Note_on_c, 0, 72, 72
3, 13176, Note_on_c, 0, 72, 0
3, 13176, Note_on_c, 0, 70, 72
3, 13200, Note_on_c, 0, 70, 0
3, 13200, Note_on_c, 0, 72, 72
3, 13224, Note_on_c, 0, 72, 0
3, 13224, Note_on_c, 0, 70, 72
3, 13248, Note_on_c, 0, 70, 0
3, 13248, Note_on_c, 0, 69, 72
3, 13344, Note_on_c, 0, 69, 0
3, 13344, Note_on_c, 0, 62, 72
3, 13536, Note_on_c, 0, 62, 0
3, 13536, Note_on_c, 0, 63, 72
3, 13632, Note_on_c, 0, 63, 0
3, 13632, Note_on_c, 0, 62, 72
3, 13728, Note_on_c, 0, 62, 0
3, 13728, Note_on_c, 0, 60, 72
3, 13824, Note_on_c, 0, 60, 0
3, 13824, Note_on_c, 0, 58, 72
3, 13968, Note_on_c, 0, 58, 0
3, 13968, Note_on_c, 0, 60, 72
3, 13992, Note_on_c, 0, 60, 0
3, 13992, Note_on_c, 0, 58, 72
3, 14016, Note_on_c, 0, 58, 0
3, 14016, Note_on_c, 0, 57, 72
3, 14208, Note_on_c, 0, 57, 0
3, 14400, Note_on_c, 0, 67, 88
3, 14448, Note_on_c, 0, 67, 0
3, 14448, Note_on_c, 0, 69, 88
3, 14496, Note_on_c, 0, 69, 0
3, 14496, Note_on_c, 0, 70, 88
3, 14544, Note_on_c, 0, 70, 0
3, 14544, Note_on_c, 0, 72, 88
3, 14592, Note_on_c, 0, 72, 0
3, 14592, Note_on_c, 0, 74, 88
3, 14784, Note_on_c, 0, 74, 0
3, 14784, Note_on_c, 0, 74, 88
3, 14832, Note_on_c, 0, 74, 0
3, 14832, Note_on_c, 0, 75, 88
3, 14880, Note_on_c, 0, 75, 0
3, 14880, Note_on_c, 0, 74, 88
3, 14928, Note_on_c, 0, 74, 0
3, 14928, Note_on_c, 0, 72, 88
3, 14976, Note_on_c, 0, 72, 0
3, 14976, Note_on_c, 0, 70, 88
3, 15072, Note_on_c, 0, 70, 0
3, 15072, Note_on_c, 0, 69, 88
3, 15168, Note_on_c, 0, 69, 0
3, 15168, Note_on_c, 0, 67, 88
3, 15456, Note_on_c, 0, 67, 0
3, 15456, Note_on_c, 0, 66, 88
3, 15504, Note_on_c, 0, 66, 0
3, 15504, Note_on_c, 0, 64, 88
3, 15552, Note_on_c, 0, 64, 0
3, 15552, Note_on_c, 0, 66, 88
3, 15744, Note_on_c, 0, 66, 0
3, 15744, Note_on_c, 0, 67, 88
3, 16032, Note_on_c, 0, 67, 0
3, 16032, Note_on_c, 0, 69, 88
3, 16128, Note_on_c, 0, 69, 0
3, 16128, Note_on_c, 0, 70, 88
3, 16416, Note_on_c, 0, 70, 0
3, 16416, Note_on_c, 0, 72, 88
3, 16512, Note_on_c, 0, 72, 0
3, 16512, Note_on_c, 0, 70, 88
3, 16608, Note_on_c, 0, 70, 0
3, 16608, Note_on_c, 0, 69, 88
3, 16704, Note_on_c, 0, 69, 0
3, 16704, Note_on_c, 0, 67, 88
3, 16992, Note_on_c, 0, 67, 0
3, 16992, Note_on_c, 0, 68, 72
3, 17088, Note_on_c, 0, 68, 0
3, 17088, Note_on_c, 0, 67, 72
3, 17184, Note_on_c, 0, 67, 0
3, 17184, Note_on_c, 0, 65, 72
3, 17280, Note_on_c, 0, 65, 0
3, 17280, Note_on_c, 0, 63, 72
3, 17568, Note_on_c, 0, 63, 0
3, 17568, Note_on_c, 0, 67, 72
3, 17664, Note_on_c, 0, 67, 0
3, 17664, Note_on_c, 0, 65, 72
3, 17760, Note_on_c, 0, 65, 0
3, 17760, Note_on_c, 0, 63, 72
3, 17856, Note_on_c, 0, 63, 0
3, 17856, Note_on_c, 0, 62, 72
3, 18048, Note_on_c, 0, 62, 0
3, 18048, Note_on_c, 0, 62, 72
3, 18096, Note_on_c, 0, 62, 0
3, 18096, Note_on_c, 0, 63, 72
3, 18144, Note_on_c, 0, 63, 0
3, 18144, Note_on_c, 0, 65, 72
3, 18192, Note_on_c, 0, 65, 0
3, 18192, Note_on_c, 0, 63, 72
3, 18240, Note_on_c, 0, 63, 0
3, 18240, Note_on_c, 0, 62, 72
3, 18288, Note_on_c, 0, 62, 0
3, 18288, Note_on_c, 0, 63, 72
3, 18336, Note_on_c, 0, 63, 0
3, 18336, Note_on_c, 0, 62, 72
3, 18384, Note_on_c, 0, 62, 0
3, 18384, Note_on_c, 0, 60, 72
3, 18432, Note_on_c, 0, 60, 0
3, 18432, Note_on_c, 0, 58, 72
3, 18528, Note_on_c, 0, 58, 0
3, 18528, Note_on_c, 0, 57, 72
3, 18576, Note_on_c, 0, 57, 0
3, 18576, Note_on_c, 0, 55, 72
3, 18624, Note_on_c, 0, 55, 0
3, 18624, Note_on_c, 0, 53, 72
3, 18816, Note_on_c, 0, 53, 0
3, 18816, Note_on_c, 0, 53, 72
3, 18864, Note_on_c, 0, 53, 0
3, 18864, Note_on_c, 0, 55, 72
3, 18912, Note_on_c, 0, 55, 0
3, 18912, Note_on_c, 0, 57, 72
3, 18960, Note_on_c, 0, 57, 0
3, 18960, Note_on_c, 0, 58, 72
3, 19008, Note_on_c, 0, 58, 0
3, 19008, Note_on_c, 0, 60, 72
3, 19200, Note_on_c, 0, 60, 0
3, 19200, Note_on_c, 0, 62, 72
3, 19248, Note_on_c, 0, 62, 0
3, 19248, Note_on_c, 0, 63, 72
3, 19296, Note_on_c, 0, 63, 0
3, 19296, Note_on_c, 0, 62, 72
3, 19344, Note_on_c, 0, 62, 0
3, 19344, Note_on_c, 0, 60, 72
3, 19392, Note_on_c, 0, 60, 0
3, 19392, Note_on_c, 0, 58, 72
3, 19584, Note_on_c, 0, 58, 0
3, 19584, Note_on_c, 0, 58, 72
3, 19632, Note_on_c, 0, 58, 0
3, 19632, Note_on_c, 0, 60, 72
3, 19680, Note_on_c, 0, 60, 0
3, 19680, Note_on_c, 0, 62, 72
3, 19728, Note_on_c, 0, 62, 0
3, 19728, Note_on_c, 0, 63, 72
3, 19776, Note_on_c, 0, 63, 0
3, 19776, Note_on_c, 0, 62, 72
3, 19872, Note_on_c, 0, 62, 0
3, 19872, Note_on_c, 0, 60, 72
3, 19920, Note_on_c, 0, 60, 0
3, 19920, Note_on_c, 0, 58, 72
3, 19968, Note_on_c, 0, 58, 0
3, 19968, Note_on_c, 0, 57, 72
3, 20064, Note_on_c, 0, 57, 0
3, 20064, Note_on_c, 0, 69, 72
3, 20160, Note_on_c, 0, 69, 0
3, 20160, Note_on_c, 0, 67, 72
3, 20352, Note_on_c, 0, 67, 0
3, 20352, Note_on_c, 0, 65, 72
3, 20640, Note_on_c, 0, 65, 0
3, 20640, Note_on_c, 0, 67, 72
3, 20688, Note_on_c, 0, 67, 0
3, 20688, Note_on_c, 0, 68, 72
3, 20736, Note_on_c, 0, 68, 0
3, 20736, Note_on_c, 0, 67, 72
3, 20784, Note_on_c, 0, 67, 0
3, 20784, Note_on_c, 0, 65, 72
3, 20832, Note_on_c, 0, 65, 0
3, 20832, Note_on_c, 0, 63, 72
3, 20880, Note_on_c, 0, 63, 0
3, 20880, Note_on_c, 0, 65, 72
3, 20928, Note_on_c, 0, 65, 0
3, 20928, Note_on_c, 0, 67, 72
3, 20976, Note_on_c, 0, 67, 0
3, 20976, Note_on_c, 0, 65, 72
3, 21024, Note_on_c, 0, 65, 0
3, 21024, Note_on_c, 0, 67, 72
3, 21072, Note_on_c, 0, 67, 0
3, 21072, Note_on_c, 0, 68, 72
3, 21120, Note_on_c, 0, 68, 0
3, 21120, Note_on_c, 0, 67, 72
3, 21216, Note_on_c, 0, 67, 0
3, 21216, Note_on_c, 0, 65, 72
3, 21312, Note_on_c, 0, 65, 0
3, 21312, Note_on_c, 0, 63, 72
3, 21504, Note_on_c, 0, 63, 0
3, 21552, Note_on_c, 0, 57, 72
3, 21600, Note_on_c, 0, 57, 0
3, 21600, Note_on_c, 0, 55, 72
3, 21648, Note_on_c, 0, 55, 0
3, 21648, Note_on_c, 0, 58, 72
3, 21696, Note_on_c, 0, 58, 0
3, 21696, Note_on_c, 0, 60, 72
3, 21744, Note_on_c, 0, 60, 0
3, 21744, Note_on_c, 0, 62, 72
3, 21792, Note_on_c, 0, 62, 0
3, 21792, Note_on_c, 0, 63, 72
3, 21840, Note_on_c, 0, 63, 0
3, 21840, Note_on_c, 0, 62, 72
3, 21888, Note_on_c, 0, 62, 0
3, 21888, Note_on_c, 0, 60, 72
3, 21984, Note_on_c, 0, 60, 0
3, 21984, Note_on_c, 0, 57, 72
3, 22080, Note_on_c, 0, 57, 0
3, 22080, Note_on_c, 0, 58, 72
3, 22176, Note_on_c, 0, 58, 0
3, 22176, Note_on_c, 0, 60, 72
3, 22272, Note_on_c, 0, 60, 0
3, 22272, Note_on_c, 0, 62, 72
3, 22368, Note_on_c, 0, 62, 0
3, 22368, Note_on_c, 0, 66, 72
3, 22464, Note_on_c, 0, 66, 0
3, 22464, Note_on_c, 0, 67, 72
3, 22512, Note_on_c, 0, 67, 0
3, 22512, Note_on_c, 0, 69, 72
3, 22560, Note_on_c, 0, 69, 0
3, 22560, Note_on_c, 0, 70, 72
3, 22608, Note_on_c, 0, 70, 0
3, 22608, Note_on_c, 0, 72, 72
3, 22656, Note_on_c, 0, 72, 0
3, 22656, Note_on_c, 0, 70, 72
3, 22704, Note_on_c, 0, 70, 0
3, 22704, Note_on_c, 0, 74, 72
3, 22752, Note_on_c, 0, 74, 0
3, 22752, Note_on_c, 0, 69, 72
3, 22800, Note_on_c, 0, 69, 0
3, 22800, Note_on_c, 0, 72, 72
3, 22848, Note_on_c, 0, 72, 0
3, 22848, Note_on_c, 0, 70, 72
3, 22944, Note_on_c, 0, 70, 0
3, 22944, Note_on_c, 0, 67, 72
3, 23040, Note_on_c, 0, 67, 0
3, 23040, Note_on_c, 0, 69, 72
3, 23136, Note_on_c, 0, 69, 0
3, 23136, Note_on_c, 0, 70, 72
3, 23232, Note_on_c, 0, 70, 0
3, 23232, Note_on_c, 0, 69, 72
3, 23328, Note_on_c, 0, 69, 0
3, 23328, Note_on_c, 0, 65, 72
3, 23424, Note_on_c, 0, 65, 0
3, 23424, Note_on_c, 0, 61, 72
3, 23472, Note_on_c, 0, 61, 0
3, 23472, Note_on_c, 0, 62, 72
3, 23520, Note_on_c, 0, 62, 0
3, 23520, Note_on_c, 0, 64, 72
3, 23568, Note_on_c, 0, 64, 0
3, 23568, Note_on_c, 0, 61, 72
3, 23616, Note_on_c, 0, 61, 0
3, 23616, Note_on_c, 0, 62, 72
3, 23808, Note_on_c, 0, 62, 0
3, 23808, Note_on_c, 0, 62, 72
3, 23856, Note_on_c, 0, 62, 0
3, 23856, Note_on_c, 0, 65, 72
3, 23904, Note_on_c, 0, 65, 0
3, 23904, Note_on_c, 0, 64, 72
3, 23952, Note_on_c, 0, 64, 0
3, 23952, Note_on_c, 0, 62, 72
3, 24000, Note_on_c, 0, 62, 0
3, 24000, Note_on_c, 0, 61, 72
3, 24192, Note_on_c, 0, 61, 0
3, 24192, Note_on_c, 0, 62, 72
3, 24384, Note_on_c, 0, 62, 0
3, 24384, Note_on_c, 0, 62, 72
3, 24432, Note_on_c, 0, 62, 0
3, 24432, Note_on_c, 0, 64, 72
3, 24480, Note_on_c, 0, 64, 0
3, 24480, Note_on_c, 0, 65, 72
3, 24528, Note_on_c, 0, 65, 0
3, 24528, Note_on_c, 0, 67, 72
3, 24576, Note_on_c, 0, 67, 0
3, 24576, Note_on_c, 0, 69, 72
3, 24768, Note_on_c, 0, 69, 0
3, 24768, Note_on_c, 0, 69, 72
3, 24864, Note_on_c, 0, 69, 0
3, 24864, Note_on_c, 0, 64, 72
3, 24960, Note_on_c, 0, 64, 0
3, 24960, Note_on_c, 0, 65, 72
3, 25056, Note_on_c, 0, 65, 0
3, 25056, Note_on_c, 0, 69, 72
3, 25152, Note_on_c, 0, 69, 0
3, 25152, Note_on_c, 0, 70, 72
3, 25296, Note_on_c, 0, 70, 0
3, 25296, Note_on_c, 0, 69, 72
3, 25320, Note_on_c, 0, 69, 0
3, 25320, Note_on_c, 0, 67, 72
3, 25344, Note_on_c, 0, 67, 0
3, 25344, Note_on_c, 0, 65, 72
3, 25392, Note_on_c, 0, 65, 0
3, 25392, Note_on_c, 0, 64, 72
3, 25440, Note_on_c, 0, 64, 0
3, 25440, Note_on_c, 0, 65, 72
3, 25488, Note_on_c, 0, 65, 0
3, 25488, Note_on_c, 0, 67, 72
3, 25536, Note_on_c, 0, 67, 0
3, 25536, Note_on_c, 0, 65, 72
3, 25584, Note_on_c, 0, 65, 0
3, 25584, Note_on_c, 0, 64, 72
3, 25632, Note_on_c, 0, 64, 0
3, 25632, Note_on_c, 0, 62, 72
3, 25824, Note_on_c, 0, 62, 0
3, 25824, Note_on_c, 0, 61, 72
3, 25920, Note_on_c, 0, 61, 0
3, 25920, Note_on_c, 0, 62, 72
3, 26016, Note_on_c, 0, 62, 0
3, 26016, Note_on_c, 0, 57, 72
3, 26112, Note_on_c, 0, 57, 0
3, 26112, Note_on_c, 0, 62, 72
3, 26160, Note_on_c, 0, 62, 0
3, 26160, Note_on_c, 0, 64, 72
3, 26208, Note_on_c, 0, 64, 0
3, 26208, Note_on_c, 0, 65, 72
3, 26352, Note_on_c, 0, 65, 0
3, 26352, Note_on_c, 0, 67, 72
3, 26400, Note_on_c, 0, 67, 0
3, 26400, Note_on_c, 0, 69, 72
3, 26448, Note_on_c, 0, 69, 0
3, 26448, Note_on_c, 0, 65, 72
3, 26496, Note_on_c, 0, 65, 0
3, 26496, Note_on_c, 0, 62, 72
3, 26688, Note_on_c, 0, 62, 0
3, 26976, Note_on_c, 0, 62, 72
3, 27072, Note_on_c, 0, 62, 0
3, 27072, Note_on_c, 0, 64, 72
3, 27168, Note_on_c, 0, 64, 0
3, 27168, Note_on_c, 0, 61, 72
3, 27264, Note_on_c, 0, 61, 0
3, 27264, Note_on_c, 0, 64, 72
3, 27360, Note_on_c, 0, 64, 0
3, 27360, Note_on_c, 0, 67, 72
3, 27504, Note_on_c, 0, 67, 0
3, 27504, Note_on_c, 0, 69, 72
3, 27552, Note_on_c, 0, 69, 0
3, 27552, Note_on_c, 0, 67, 72
3, 27600, Note_on_c, 0, 67, 0
3, 27600, Note_on_c, 0, 65, 72
3, 27648, Note_on_c, 0, 65, 0
3, 27648, Note_on_c, 0, 64, 72
3, 27744, Note_on_c, 0, 64, 0
3, 27744, Note_on_c, 0, 69, 72
3, 27840, Note_on_c, 0, 69, 0
3, 28224, Note_on_c, 0, 62, 88
3, 28272, Note_on_c, 0, 62, 0
3, 28272, Note_on_c, 0, 64, 88
3, 28320, Note_on_c, 0, 64, 0
3, 28320, Note_on_c, 0, 65, 88
3, 28368, Note_on_c, 0, 65, 0
3, 28368, Note_on_c, 0, 67, 88
3, 28416, Note_on_c, 0, 67, 0
3, 28416, Note_on_c, 0, 69, 88
3, 28704, Note_on_c, 0, 69, 0
3, 28704, Note_on_c, 0, 67, 88
3, 28800, Note_on_c, 0, 67, 0
3, 28800, Note_on_c, 0, 65, 88
3, 28896, Note_on_c, 0, 65, 0
3, 28896, Note_on_c, 0, 64, 88
3, 28992, Note_on_c, 0, 64, 0
3, 28992, Note_on_c, 0, 62, 88
3, 29280, Note_on_c, 0, 62, 0
3, 29280, Note_on_c, 0, 61, 88
3, 29328, Note_on_c, 0, 61, 0
3, 29328, Note_on_c, 0, 59, 88
3, 29376, Note_on_c, 0, 59, 0
3, 29376, Note_on_c, 0, 61, 88
3, 29568, Note_on_c, 0, 61, 0
3, 29568, Note_on_c, 0, 62, 88
3, 29856, Note_on_c, 0, 62, 0
3, 29856, Note_on_c, 0, 64, 88
3, 29952, Note_on_c, 0, 64, 0
3, 29952, Note_on_c, 0, 65, 88
3, 30048, Note_on_c, 0, 65, 0
3, 30048, Note_on_c, 0, 64, 88
3, 30144, Note_on_c, 0, 64, 0
3, 30144, Note_on_c, 0, 65, 88
3, 30240, Note_on_c, 0, 65, 0
3, 30240, Note_on_c, 0, 67, 88
3, 30336, Note_on_c, 0, 67, 0
3, 30336, Note_on_c, 0, 65, 88
3, 30432, Note_on_c, 0, 65, 0
3, 30432, Note_on_c, 0, 64, 88
3, 30528, Note_on_c, 0, 64, 0
3, 30528, Note_on_c, 0, 62, 88
3, 30624, Note_on_c, 0, 62, 0
3, 30720, Note_on_c, 0, 64, 72
3, 30816, Note_on_c, 0, 64, 0
3, 30960, Note_on_c, 0, 66, 72
3, 31008, Note_on_c, 0, 66, 0
3, 31008, Note_on_c, 0, 67, 72
3, 31056, Note_on_c, 0, 67, 0
3, 31056, Note_on_c, 0, 69, 72
3, 31104, Note_on_c, 0, 69, 0
3, 31104, Note_on_c, 0, 70, 72
3, 31200, Note_on_c, 0, 70, 0
3, 31200, Note_on_c, 0, 69, 72
3, 31296, Note_on_c, 0, 69, 0
3, 31296, Note_on_c, 0, 67, 72
3, 31392, Note_on_c, 0, 67, 0
3, 31392, Note_on_c, 0, 66, 72
3, 31488, Note_on_c, 0, 66, 0
3, 31488, Note_on_c, 0, 64, 72
3, 31680, Note_on_c, 0, 64, 0
3, 31680, Note_on_c, 0, 64, 72
3, 31728, Note_on_c, 0, 64, 0
3, 31728, Note_on_c, 0, 64, 72
3, 31776, Note_on_c, 0, 64, 0
3, 31776, Note_on_c, 0, 66, 72
3, 31824, Note_on_c, 0, 66, 0
3, 31824, Note_on_c, 0, 67, 72
3, 31872, Note_on_c, 0, 67, 0
3, 31872, Note_on_c, 0, 66, 72
3, 32256, Note_on_c, 0, 66, 0
3, 35136, Note_on_c, 0, 62, 88
3, 35328, Note_on_c, 0, 62, 0
3, 35328, Note_on_c, 0, 57, 88
3, 35712, Note_on_c, 0, 57, 0
3, 35712, Note_on_c, 0, 58, 88
3, 35904, Note_on_c, 0, 58, 0
3, 35904, Note_on_c, 0, 62, 88
3, 36288, Note_on_c, 0, 62, 0
3, 36288, Note_on_c, 0, 63, 88
3, 36480, Note_on_c, 0, 63, 0
3, 36480, Note_on_c, 0, 62, 88
3, 36672, Note_on_c, 0, 62, 0
3, 36672, Note_on_c, 0, 60, 88
3, 36864, Note_on_c, 0, 60, 0
3, 36864, Note_on_c, 0, 58, 88
3, 37152, Note_on_c, 0, 58, 0
3, 37152, Note_on_c, 0, 57, 88
3, 37248, Note_on_c, 0, 57, 0
3, 37248, Note_on_c, 0, 59, 88
3, 37344, Note_on_c, 0, 59, 0
3, 37344, Note_on_c, 0, 61, 88
3, 37440, Note_on_c, 0, 61, 0
3, 37440, Note_on_c, 0, 62, 88
3, 37728, Note_on_c, 0, 62, 0
3, 37728, Note_on_c, 0, 60, 72
3, 37824, Note_on_c, 0, 60, 0
3, 37824, Note_on_c, 0, 62, 72
3, 37920, Note_on_c, 0, 62, 0
3, 37920, Note_on_c, 0, 64, 72
3, 38016, Note_on_c, 0, 64, 0
3, 38016, Note_on_c, 0, 65, 72
3, 38064, Note_on_c, 0, 65, 0
3, 38064, Note_on_c, 0, 64, 72
3, 38112, Note_on_c, 0, 64, 0
3, 38112, Note_on_c, 0, 65, 72
3, 38160, Note_on_c, 0, 65, 0
3, 38160, Note_on_c, 0, 67, 72
3, 38208, Note_on_c, 0, 67, 0
3, 38208, Note_on_c, 0, 69, 72
3, 38304, Note_on_c, 0, 69, 0
3, 38304, Note_on_c, 0, 62, 72
3, 38400, Note_on_c, 0, 62, 0
3, 38400, Note_on_c, 0, 60, 72
3, 38496, Note_on_c, 0, 60, 0
3, 38496, Note_on_c, 0, 58, 72
3, 38592, Note_on_c, 0, 58, 0
3, 38592, Note_on_c, 0, 57, 72
3, 38784, Note_on_c, 0, 57, 0
3, 38880, Note_on_c, 0, 55, 72
3, 38976, Note_on_c, 0, 55, 0
3, 38976, Note_on_c, 0, 53, 72
3, 39072, Note_on_c, 0, 53, 0
3, 39072, Note_on_c, 0, 52, 72
3, 39168, Note_on_c, 0, 52, 0
3, 39168, Note_on_c, 0, 50, 72
3, 39264, Note_on_c, 0, 50, 0
3, 39264, Note_on_c, 0, 52, 72
3, 39360, Note_on_c, 0, 52, 0
3, 39360, Note_on_c, 0, 53, 72
3, 39456, Note_on_c, 0, 53, 0
3, 39456, Note_on_c, 0, 55, 72
3, 39552, Note_on_c, 0, 55, 0
3, 39552, Note_on_c, 0, 57, 72
3, 39648, Note_on_c, 0, 57, 0
3, 39648, Note_on_c, 0, 58, 72
3, 39744, Note_on_c, 0, 58, 0
3, 39744, Note_on_c, 0, 57, 72
3, 40032, Note_on_c, 0, 57, 0
3, 40032, Note_on_c, 0, 58, 72
3, 40128, Note_on_c, 0, 58, 0
3, 40128, Note_on_c, 0, 57, 72
3, 40224, Note_on_c, 0, 57, 0
3, 40224, Note_on_c, 0, 55, 72
3, 40320, Note_on_c, 0, 55, 0
3, 40320, Note_on_c, 0, 62, 72
3, 40416, Note_on_c, 0, 62, 0
3, 40416, Note_on_c, 0, 64, 72
3, 40512, Note_on_c, 0, 64, 0
3, 40512, Note_on_c, 0, 65, 72
3, 40608, Note_on_c, 0, 65, 0
3, 40608, Note_on_c, 0, 67, 72
3, 40704, Note_on_c, 0, 67, 0
3, 40704, Note_on_c, 0, 69, 72
3, 40800, Note_on_c, 0, 69, 0
3, 40800, Note_on_c, 0, 67, 72
3, 40896, Note_on_c, 0, 67, 0
3, 40896, Note_on_c, 0, 65, 72
3, 40992, Note_on_c, 0, 65, 0
3, 40992, Note_on_c, 0, 64, 72
3, 41088, Note_on_c, 0, 64, 0
3, 41088, Note_on_c, 0, 62, 72
3, 41184, Note_on_c, 0, 62, 0
3, 41184, Note_on_c, 0, 63, 72
3, 41280, Note_on_c, 0, 63, 0
3, 41280, Note_on_c, 0, 62, 72
3, 41376, Note_on_c, 0, 62, 0
3, 41376, Note_on_c, 0, 60, 72
3, 41472, Note_on_c, 0, 60, 0
3, 41472, Note_on_c, 0, 58, 72
3, 41568, Note_on_c, 0, 58, 0
3, 41568, Note_on_c, 0, 57, 72
3, 41664, Note_on_c, 0, 57, 0
3, 41664, Note_on_c, 0, 55, 72
3, 42048, Note_on_c, 0, 55, 0
3, 42048, Note_on_c, 0, 55, 72
3, 42144, Note_on_c, 0, 55, 0
3, 42144, Note_on_c, 0, 62, 72
3, 42240, Note_on_c, 0, 62, 0
3, 42240, Note_on_c, 0, 67, 72
3, 42432, Note_on_c, 0, 67, 0
3, 42528, Note_on_c, 0, 57, 72
3, 42624, Note_on_c, 0, 57, 0
3, 42624, Note_on_c, 0, 58, 72
3, 42720, Note_on_c, 0, 58, 0
3, 42720, Note_on_c, 0, 65, 72
3, 42816, Note_on_c, 0, 65, 0
3, 42816, Note_on_c, 0, 70, 72
3, 43008, Note_on_c, 0, 70, 0
3, 43104, Note_on_c, 0, 61, 72
3, 43200, Note_on_c, 0, 61, 0
3, 43200, Note_on_c, 0, 62, 72
3, 43296, Note_on_c, 0, 62, 0
3, 43296, Note_on_c, 0, 57, 72
3, 43344, Note_on_c, 0, 57, 0
3, 43344, Note_on_c, 0, 55, 72
3, 43392, Note_on_c, 0, 55, 0
3, 43392, Note_on_c, 0, 53, 72
3, 43488, Note_on_c, 0, 53, 0
3, 43488, Note_on_c, 0, 58, 72
3, 43584, Note_on_c, 0, 58, 0
3, 43584, Note_on_c, 0, 57, 72
3, 43680, Note_on_c, 0, 57, 0
3, 43680, Note_on_c, 0, 64, 72
3, 43776, Note_on_c, 0, 64, 0
3, 43776, Note_on_c, 0, 62, 72
3, 44064, Note_on_c, 0, 62, 0
3, 44064, Note_on_c, 0, 64, 72
3, 44160, Note_on_c, 0, 64, 0
3, 44160, Note_on_c, 0, 65, 72
3, 44256, Note_on_c, 0, 65, 0
3, 44256, Note_on_c, 0, 67, 72
3, 44352, Note_on_c, 0, 67, 0
3, 44352, Note_on_c, 0, 69, 72
3, 44544, Note_on_c, 0, 69, 0
3, 44544, Note_on_c, 0, 69, 72
3, 44592, Note_on_c, 0, 69, 0
3, 44592, Note_on_c, 0, 67, 72
3, 44640, Note_on_c, 0, 67, 0
3, 44640, Note_on_c, 0, 65, 72
3, 44688, Note_on_c, 0, 65, 0
3, 44688, Note_on_c, 0, 64, 72
3, 44736, Note_on_c, 0, 64, 0
3, 44736, Note_on_c, 0, 62, 72
3, 44928, Note_on_c, 0, 62, 0
3, 44928, Note_on_c, 0, 62, 72
3, 44976, Note_on_c, 0, 62, 0
3, 44976, Note_on_c, 0, 50, 72
3, 45024, Note_on_c, 0, 50, 0
3, 45024, Note_on_c, 0, 62, 72
3, 45072, Note_on_c, 0, 62, 0
3, 45072, Note_on_c, 0, 64, 72
3, 45120, Note_on_c, 0, 64, 0
3, 45120, Note_on_c, 0, 65, 72
3, 45168, Note_on_c, 0, 65, 0
3, 45168, Note_on_c, 0, 67, 72
3, 45216, Note_on_c, 0, 67, 0
3, 45216, Note_on_c, 0, 69, 72
3, 45264, Note_on_c, 0, 69, 0
3, 45264, Note_on_c, 0, 67, 72
3, 45312, Note_on_c, 0, 67, 0
3, 45312, Note_on_c, 0, 65, 72
3, 45408, Note_on_c, 0, 65, 0
3, 45408, Note_on_c, 0, 53, 72
3, 45504, Note_on_c, 0, 53, 0
3, 45504, Note_on_c, 0, 55, 72
3, 45696, Note_on_c, 0, 55, 0
3, 45696, Note_on_c, 0, 53, 72
3, 45984, Note_on_c, 0, 53, 0
3, 45984, Note_on_c, 0, 52, 72
3, 46080, Note_on_c, 0, 52, 0
3, 46080, Note_on_c, 0, 53, 72
3, 46272, Note_on_c, 0, 53, 0
3, 46272, Note_on_c, 0, 65, 72
3, 46656, Note_on_c, 0, 65, 0
3, 46656, Note_on_c, 0, 65, 72
3, 46752, Note_on_c, 0, 65, 0
3, 46752, Note_on_c, 0, 64, 72
3, 46800, Note_on_c, 0, 64, 0
3, 46800, Note_on_c, 0, 67, 72
3, 46848, Note_on_c, 0, 67, 0
3, 46848, Note_on_c, 0, 65, 72
3, 46896, Note_on_c, 0, 65, 0
3, 46896, Note_on_c, 0, 62, 72
3, 46944, Note_on_c, 0, 62, 0
3, 46944, Note_on_c, 0, 60, 72
3, 46992, Note_on_c, 0, 60, 0
3, 46992, Note_on_c, 0, 59, 72
3, 47040, Note_on_c, 0, 59, 0
3, 47040, Note_on_c, 0, 57, 72
3, 47136, Note_on_c, 0, 57, 0
3, 47136, Note_on_c, 0, 59, 72
3, 47232, Note_on_c, 0, 59, 0
3, 47232, Note_on_c, 0, 60, 72
3, 47280, Note_on_c, 0, 60, 0
3, 47280, Note_on_c, 0, 59, 72
3, 47328, Note_on_c, 0, 59, 0
3, 47328, Note_on_c, 0, 60, 72
3, 47376, Note_on_c, 0, 60, 0
3, 47376, Note_on_c, 0, 62, 72
3, 47424, Note_on_c, 0, 62, 0
3, 47424, Note_on_c, 0, 64, 72
3, 47472, Note_on_c, 0, 64, 0
3, 47472, Note_on_c, 0, 65, 72
3, 47520, Note_on_c, 0, 65, 0
3, 47520, Note_on_c, 0, 64, 72
3, 47568, Note_on_c, 0, 64, 0
3, 47568, Note_on_c, 0, 62, 72
3, 47616, Note_on_c, 0, 62, 0
3, 47616, Note_on_c, 0, 60, 72
3, 47664, Note_on_c, 0, 60, 0
3, 47664, Note_on_c, 0, 59, 72
3, 47712, Note_on_c, 0, 59, 0
3, 47712, Note_on_c, 0, 57, 72
3, 47760, Note_on_c, 0, 57, 0
3, 47760, Note_on_c, 0, 56, 72
3, 47808, Note_on_c, 0, 56, 0
3, 47808, Note_on_c, 0, 57, 72
3, 48000, Note_on_c, 0, 57, 0
3, 50688, Note_on_c, 0, 60, 88
3, 50736, Note_on_c, 0, 60, 0
3, 50736, Note_on_c, 0, 58, 88
3, 50784, Note_on_c, 0, 58, 0
3, 50784, Note_on_c, 0, 57, 88
3, 50832, Note_on_c, 0, 57, 0
3, 50832, Note_on_c, 0, 55, 88
3, 50880, Note_on_c, 0, 55, 0
3, 50880, Note_on_c, 0, 53, 88
3, 51072, Note_on_c, 0, 53, 0
3, 51072, Note_on_c, 0, 53, 88
3, 51120, Note_on_c, 0, 53, 0
3, 51120, Note_on_c, 0, 52, 88
3, 51168, Note_on_c, 0, 52, 0
3, 51168, Note_on_c, 0, 53, 88
3, 51216, Note_on_c, 0, 53, 0
3, 51216, Note_on_c, 0, 55, 88
3, 51264, Note_on_c, 0, 55, 0
3, 51264, Note_on_c, 0, 57, 88
3, 51360, Note_on_c, 0, 57, 0
3, 51360, Note_on_c, 0, 58, 88
3, 51456, Note_on_c, 0, 58, 0
3, 51456, Note_on_c, 0, 60, 88
3, 51744, Note_on_c, 0, 60, 0
3, 51744, Note_on_c, 0, 62, 88
3, 51792, Note_on_c, 0, 62, 0
3, 51792, Note_on_c, 0, 63, 88
3, 51840, Note_on_c, 0, 63, 0
3, 51840, Note_on_c, 0, 62, 88
3, 52032, Note_on_c, 0, 62, 0
3, 52032, Note_on_c, 0, 60, 88
3, 52320, Note_on_c, 0, 60, 0
3, 52320, Note_on_c, 0, 58, 88
3, 52416, Note_on_c, 0, 58, 0
3, 52416, Note_on_c, 0, 57, 88
3, 52704, Note_on_c, 0, 57, 0
3, 52704, Note_on_c, 0, 55, 88
3, 52800, Note_on_c, 0, 55, 0
3, 52800, Note_on_c, 0, 57, 88
3, 52896, Note_on_c, 0, 57, 0
3, 52896, Note_on_c, 0, 59, 88
3, 52992, Note_on_c, 0, 59, 0
3, 52992, Note_on_c, 0, 60, 88
3, 53184, Note_on_c, 0, 60, 0
3, 53184, Note_on_c, 0, 60, 72
3, 53232, Note_on_c, 0, 60, 0
3, 53232, Note_on_c, 0, 62, 72
3, 53280, Note_on_c, 0, 62, 0
3, 53280, Note_on_c, 0, 60, 72
3, 53328, Note_on_c, 0, 60, 0
3, 53328, Note_on_c, 0, 58, 72
3, 53376, Note_on_c, 0, 58, 0
3, 53376, Note_on_c, 0, 57, 72
3, 53472, Note_on_c, 0, 57, 0
3, 53472, Note_on_c, 0, 60, 72
3, 53568, Note_on_c, 0, 60, 0
3, 53568, Note_on_c, 0, 55, 72
3, 53760, Note_on_c, 0, 55, 0
3, 53760, Note_on_c, 0, 55, 72
3, 53808, Note_on_c, 0, 55, 0
3, 53808, Note_on_c, 0, 57, 72
3, 53856, Note_on_c, 0, 57, 0
3, 53856, Note_on_c, 0, 55, 72
3, 53904, Note_on_c, 0, 55, 0
3, 53904, Note_on_c, 0, 53, 72
3, 53952, Note_on_c, 0, 53, 0
3, 53952, Note_on_c, 0, 55, 72
3, 54048, Note_on_c, 0, 55, 0
3, 54048, Note_on_c, 0, 57, 72
3, 54144, Note_on_c, 0, 57, 0
3, 54144, Note_on_c, 0, 58, 72
3, 54192, Note_on_c, 0, 58, 0
3, 54192, Note_on_c, 0, 60, 72
3, 54240, Note_on_c, 0, 60, 0
3, 54240, Note_on_c, 0, 58, 72
3, 54288, Note_on_c, 0, 58, 0
3, 54288, Note_on_c, 0, 57, 72
3, 54336, Note_on_c, 0, 57, 0
3, 54336, Note_on_c, 0, 58, 72
3, 54432, Note_on_c, 0, 58, 0
3, 54432, Note_on_c, 0, 60, 72
3, 54528, Note_on_c, 0, 60, 0
3, 54528, Note_on_c, 0, 62, 72
3, 54624, Note_on_c, 0, 62, 0
3, 54624, Note_on_c, 0, 63, 72
3, 54720, Note_on_c, 0, 63, 0
3, 54720, Note_on_c, 0, 62, 72
3, 54816, Note_on_c, 0, 62, 0
3, 54816, Note_on_c, 0, 65, 72
3, 54912, Note_on_c, 0, 65, 0
3, 54912, Note_on_c, 0, 63, 72
3, 55008, Note_on_c, 0, 63, 0
3, 55008, Note_on_c, 0, 62, 72
3, 55104, Note_on_c, 0, 62, 0
3, 55104, Note_on_c, 0, 61, 72
3, 55152, Note_on_c, 0, 61, 0
3, 55152, Note_on_c, 0, 59, 72
3, 55200, Note_on_c, 0, 59, 0
3, 55200, Note_on_c, 0, 57, 72
3, 55248, Note_on_c, 0, 57, 0
3, 55248, Note_on_c, 0, 59, 72
3, 55296, Note_on_c, 0, 59, 0
3, 55296, Note_on_c, 0, 61, 72
3, 55392, Note_on_c, 0, 61, 0
3, 55392, Note_on_c, 0, 62, 72
3, 55488, Note_on_c, 0, 62, 0
3, 55488, Note_on_c, 0, 64, 72
3, 55584, Note_on_c, 0, 64, 0
3, 55584, Note_on_c, 0, 65, 72
3, 55680, Note_on_c, 0, 65, 0
3, 55680, Note_on_c, 0, 64, 72
3, 55776, Note_on_c, 0, 64, 0
3, 55776, Note_on_c, 0, 67, 72
3, 55872, Note_on_c, 0, 67, 0
3, 55872, Note_on_c, 0, 65, 72
3, 55968, Note_on_c, 0, 65, 0
3, 55968, Note_on_c, 0, 64, 72
3, 56064, Note_on_c, 0, 64, 0
3, 56064, Note_on_c, 0, 62, 72
3, 56112, Note_on_c, 0, 62, 0
3, 56112, Note_on_c, 0, 64, 72
3, 56160, Note_on_c, 0, 64, 0
3, 56160, Note_on_c, 0, 62, 72
3, 56208, Note_on_c, 0, 62, 0
3, 56208, Note_on_c, 0, 61, 72
3, 56256, Note_on_c, 0, 61, 0
3, 56256, Note_on_c, 0, 62, 72
3, 56352, Note_on_c, 0, 62, 0
3, 56352, Note_on_c, 0, 64, 72
3, 56448, Note_on_c, 0, 64, 0
3, 56448, Note_on_c, 0, 65, 72
3, 56496, Note_on_c, 0, 65, 0
3, 56496, Note_on_c, 0, 64, 72
3, 56544, Note_on_c, 0, 64, 0
3, 56544, Note_on_c, 0, 62, 72
3, 56688, Note_on_c, 0, 62, 0
3, 56688, Note_on_c, 0, 60, 72
3, 56736, Note_on_c, 0, 60, 0
3, 56736, Note_on_c, 0, 58, 72
3, 56784, Note_on_c, 0, 58, 0
3, 56784, Note_on_c, 0, 57, 72
3, 56832, Note_on_c, 0, 57, 0
3, 56832, Note_on_c, 0, 55, 72
3, 56928, Note_on_c, 0, 55, 0
3, 56928, Note_on_c, 0, 50, 72
3, 57024, Note_on_c, 0, 50, 0
3, 57024, Note_on_c, 0, 50, 72
3, 57120, Note_on_c, 0, 50, 0
3, 57120, Note_on_c, 0, 52, 72
3, 57216, Note_on_c, 0, 52, 0
3, 57216, Note_on_c, 0, 53, 72
3, 57312, Note_on_c, 0, 53, 0
3, 57312, Note_on_c, 0, 50, 72
3, 57408, Note_on_c, 0, 50, 0
3, 57408, Note_on_c, 0, 57, 72
3, 57600, Note_on_c, 0, 57, 0
3, 57840, Note_on_c, 0, 70, 72
3, 57888, Note_on_c, 0, 70, 0
3, 57888, Note_on_c, 0, 69, 72
3, 57936, Note_on_c, 0, 69, 0
3, 57936, Note_on_c, 0, 67, 72
3, 57984, Note_on_c, 0, 67, 0
3, 57984, Note_on_c, 0, 65, 72
3, 58032, Note_on_c, 0, 65, 0
3, 58032, Note_on_c, 0, 62, 72
3, 58080, Note_on_c, 0, 62, 0
3, 58080, Note_on_c, 0, 64, 72
3, 58128, Note_on_c, 0, 64, 0
3, 58128, Note_on_c, 0, 61, 72
3, 58176, Note_on_c, 0, 61, 0
3, 58176, Note_on_c, 0, 62, 72
3, 58464, Note_on_c, 0, 62, 0
3, 58464, Note_on_c, 0, 60, 72
3, 58560, Note_on_c, 0, 60, 0
3, 58560, Note_on_c, 0, 62, 72
3, 58656, Note_on_c, 0, 62, 0
3, 58656, Note_on_c, 0, 64, 72
3, 58752, Note_on_c, 0, 64, 0
3, 58752, Note_on_c, 0, 65, 72
3, 58800, Note_on_c, 0, 65, 0
3, 58800, Note_on_c, 0, 64, 72
3, 58848, Note_on_c, 0, 64, 0
3, 58848, Note_on_c, 0, 62, 72
3, 58944, Note_on_c, 0, 62, 0
3, 58944, Note_on_c, 0, 69, 72
3, 59040, Note_on_c, 0, 69, 0
3, 59232, Note_on_c, 0, 57, 72
3, 59328, Note_on_c, 0, 57, 0
3, 59328, Note_on_c, 0, 57, 72
3, 59424, Note_on_c, 0, 57, 0
3, 59424, Note_on_c, 0, 52, 72
3, 59472, Note_on_c, 0, 52, 0
3, 59472, Note_on_c, 0, 50, 72
3, 59520, Note_on_c, 0, 50, 0
3, 59520, Note_on_c, 0, 52, 72
3, 59616, Note_on_c, 0, 52, 0
3, 59616, Note_on_c, 0, 60, 72
3, 59664, Note_on_c, 0, 60, 0
3, 59664, Note_on_c, 0, 59, 72
3, 59712, Note_on_c, 0, 59, 0
3, 59712, Note_on_c, 0, 57, 72
3, 59760, Note_on_c, 0, 57, 0
3, 59760, Note_on_c, 0, 59, 72
3, 59808, Note_on_c, 0, 59, 0
3, 59808, Note_on_c, 0, 60, 72
3, 59856, Note_on_c, 0, 60, 0
3, 59856, Note_on_c, 0, 62, 72
3, 59904, Note_on_c, 0, 62, 0
3, 59904, Note_on_c, 0, 64, 72
3, 59952, Note_on_c, 0, 64, 0
3, 59952, Note_on_c, 0, 62, 72
3, 60000, Note_on_c, 0, 62, 0
3, 60000, Note_on_c, 0, 61, 72
3, 60192, Note_on_c, 0, 61, 0
3, 60192, Note_on_c, 0, 64, 72
3, 60288, Note_on_c, 0, 64, 0
3, 60288, Note_on_c, 0, 60, 72
3, 60384, Note_on_c, 0, 60, 0
3, 60384, Note_on_c, 0, 55, 72
3, 60480, Note_on_c, 0, 55, 0
3, 60480, Note_on_c, 0, 55, 72
3, 60528, Note_on_c, 0, 55, 0
3, 60528, Note_on_c, 0, 57, 72
3, 60576, Note_on_c, 0, 57, 0
3, 60576, Note_on_c, 0, 55, 72
3, 60624, Note_on_c, 0, 55, 0
3, 60624, Note_on_c, 0, 53, 72
3, 60672, Note_on_c, 0, 53, 0
3, 60672, Note_on_c, 0, 52, 72
3, 60768, Note_on_c, 0, 52, 0
3, 60768, Note_on_c, 0, 58, 72
3, 60960, Note_on_c, 0, 58, 0
3, 60960, Note_on_c, 0, 58, 72
3, 61056, Note_on_c, 0, 58, 0
3, 61056, Note_on_c, 0, 57, 72
3, 61248, Note_on_c, 0, 57, 0
3, 61248, Note_on_c, 0, 57, 72
3, 61296, Note_on_c, 0, 57, 0
3, 61296, Note_on_c, 0, 60, 72
3, 61344, Note_on_c, 0, 60, 0
3, 61344, Note_on_c, 0, 58, 72
3, 61392, Note_on_c, 0, 58, 0
3, 61392, Note_on_c, 0, 57, 72
3, 61440, Note_on_c, 0, 57, 0
3, 61440, Note_on_c, 0, 55, 72
3, 61488, Note_on_c, 0, 55, 0
3, 61488, Note_on_c, 0, 58, 72
3, 61536, Note_on_c, 0, 58, 0
3, 61536, Note_on_c, 0, 57, 72
3, 61584, Note_on_c, 0, 57, 0
3, 61584, Note_on_c, 0, 55, 72
3, 61632, Note_on_c, 0, 55, 0
3, 61632, Note_on_c, 0, 62, 72
3, 61728, Note_on_c, 0, 62, 0
3, 61824, Note_on_c, 0, 69, 72
3, 61872, Note_on_c, 0, 69, 0
3, 61872, Note_on_c, 0, 67, 72
3, 61920, Note_on_c, 0, 67, 0
3, 61920, Note_on_c, 0, 65, 72
3, 61968, Note_on_c, 0, 65, 0
3, 61968, Note_on_c, 0, 64, 72
3, 62016, Note_on_c, 0, 64, 0
3, 62016, Note_on_c, 0, 62, 72
3, 62208, Note_on_c, 0, 62, 0
3, 62208, Note_on_c, 0, 62, 72
3, 62256, Note_on_c, 0, 62, 0
3, 62256, Note_on_c, 0, 61, 72
3, 62304, Note_on_c, 0, 61, 0
3, 62304, Note_on_c, 0, 62, 72
3, 62352, Note_on_c, 0, 62, 0
3, 62352, Note_on_c, 0, 64, 72
3, 62400, Note_on_c, 0, 64, 0
3, 62400, Note_on_c, 0, 65, 72
3, 62592, Note_on_c, 0, 65, 0
3, 62592, Note_on_c, 0, 65, 72
3, 62640, Note_on_c, 0, 65, 0
3, 62640, Note_on_c, 0, 67, 72
3, 62688, Note_on_c, 0, 67, 0
3, 62688, Note_on_c, 0, 69, 72
3, 62736, Note_on_c, 0, 69, 0
3, 62736, Note_on_c, 0, 70, 72
3, 62784, Note_on_c, 0, 70, 0
3, 62784, Note_on_c, 0, 69, 72
3, 62832, Note_on_c, 0, 69, 0
3, 62832, Note_on_c, 0, 62, 72
3, 62880, Note_on_c, 0, 62, 0
3, 62880, Note_on_c, 0, 60, 72
3, 62928, Note_on_c, 0, 60, 0
3, 62928, Note_on_c, 0, 58, 72
3, 62976, Note_on_c, 0, 58, 0
3, 62976, Note_on_c, 0, 57, 72
3, 63024, Note_on_c, 0, 57, 0
3, 63024, Note_on_c, 0, 55, 72
3, 63072, Note_on_c, 0, 55, 0
3, 63072, Note_on_c, 0, 57, 72
3, 63120, Note_on_c, 0, 57, 0
3, 63120, Note_on_c, 0, 58, 72
3, 63168, Note_on_c, 0, 58, 0
3, 63168, Note_on_c, 0, 57, 72
3, 63264, Note_on_c, 0, 57, 0
3, 63264, Note_on_c, 0, 64, 72
3, 63360, Note_on_c, 0, 64, 0
3, 63360, Note_on_c, 0, 65, 72
3, 63456, Note_on_c, 0, 65, 0
3, 63456, Note_on_c, 0, 61, 72
3, 63600, Note_on_c, 0, 61, 0
3, 63600, Note_on_c, 0, 62, 72
3, 63648, Note_on_c, 0, 62, 0
3, 63648, Note_on_c, 0, 64, 72
3, 63696, Note_on_c, 0, 64, 0
3, 63696, Note_on_c, 0, 62, 72
3, 63744, Note_on_c, 0, 62, 0
3, 63744, Note_on_c, 0, 61, 72
3, 63792, Note_on_c, 0, 61, 0
3, 63792, Note_on_c, 0, 59, 72
3, 63840, Note_on_c, 0, 59, 0
3, 63840, Note_on_c, 0, 61, 72
3, 63888, Note_on_c, 0, 61, 0
3, 63888, Note_on_c, 0, 62, 72
3, 63936, Note_on_c, 0, 62, 0
3, 63936, Note_on_c, 0, 64, 72
3, 63984, Note_on_c, 0, 64, 0
3, 63984, Note_on_c, 0, 69, 72
3, 64032, Note_on_c, 0, 69, 0
3, 64032, Note_on_c, 0, 67, 72
3, 64080, Note_on_c, 0, 67, 0
3, 64080, Note_on_c, 0, 65, 72
3, 64128, Note_on_c, 0, 65, 0
3, 64128, Note_on_c, 0, 64, 72
3, 64176, Note_on_c, 0, 64, 0
3, 64176, Note_on_c, 0, 62, 72
3, 64224, Note_on_c, 0, 62, 0
3, 64224, Note_on_c, 0, 61, 72
3, 64272, Note_on_c, 0, 61, 0
3, 64272, Note_on_c, 0, 59, 72
3, 64320, Note_on_c, 0, 59, 0
3, 64320, Note_on_c, 0, 61, 72
3, 64368, Note_on_c, 0, 61, 0
3, 64368, Note_on_c, 0, 62, 72
3, 64416, Note_on_c, 0, 62, 0
3, 64416, Note_on_c, 0, 64, 72
3, 64464, Note_on_c, 0, 64, 0
3, 64464, Note_on_c, 0, 66, 72
3, 64488, Note_on_c, 0, 66, 0
3, 64488, Note_on_c, 0, 67, 72
3, 64512, Note_on_c, 0, 67, 0
3, 64512, Note_on_c, 0, 66, 72
3, 64560, Note_on_c, 0, 66, 0
3, 64560, Note_on_c, 0, 64, 72
3, 64608, Note_on_c, 0, 64, 0
3, 64608, Note_on_c, 0, 62, 72
3, 64704, Note_on_c, 0, 62, 0
3, 64704, Note_on_c, 0, 69, 72
3, 65088, Note_on_c, 0, 69, 0
3, 65088, End_track
4, 0, Start_track
4, 2304, Note_on_c, 0, 57, 88
4, 2496, Note_on_c, 0, 57, 0
4, 2496, Note_on_c, 0, 62, 88
4, 2880, Note_on_c, 0, 62, 0
4, 2880, Note_on_c, 0, 60, 88
4, 3072, Note_on_c, 0, 60, 0
4, 3072, Note_on_c, 0, 57, 88
4, 3456, Note_on_c, 0, 57, 0
4, 3456, Note_on_c, 0, 56, 88
4, 3648, Note_on_c, 0, 56, 0
4, 3648, Note_on_c, 0, 57, 88
4, 3840, Note_on_c, 0, 57, 0
4, 3840, Note_on_c, 0, 59, 88
4, 4032, Note_on_c, 0, 59, 0
4, 4032, Note_on_c, 0, 60, 88
4, 4320, Note_on_c, 0, 60, 0
4, 4320, Note_on_c, 0, 62, 88
4, 4416, Note_on_c, 0, 62, 0
4, 4416, Note_on_c, 0, 60, 88
4, 4512, Note_on_c, 0, 60, 0
4, 4512, Note_on_c, 0, 59, 88
4, 4608, Note_on_c, 0, 59, 0
4, 4608, Note_on_c, 0, 57, 88
4, 4896, Note_on_c, 0, 57, 0
4, 4896, Note_on_c, 0, 58, 72
4, 4992, Note_on_c, 0, 58, 0
4, 4992, Note_on_c, 0, 57, 72
4, 5088, Note_on_c, 0, 57, 0
4, 5088, Note_on_c, 0, 55, 72
4, 5184, Note_on_c, 0, 55, 0
4, 5184, Note_on_c, 0, 53, 72
4, 5232, Note_on_c, 0, 53, 0
4, 5232, Note_on_c, 0, 55, 72
4, 5280, Note_on_c, 0, 55, 0
4, 5280, Note_on_c, 0, 53, 72
4, 5328, Note_on_c, 0, 53, 0
4, 5328, Note_on_c, 0, 52, 72
4, 5376, Note_on_c, 0, 52, 0
4, 5376, Note_on_c, 0, 50, 72
4, 5472, Note_on_c, 0, 50, 0
4, 5472, Note_on_c, 0, 57, 72
4, 5568, Note_on_c, 0, 57, 0
4, 5568, Note_on_c, 0, 59, 72
4, 5664, Note_on_c, 0, 59, 0
4, 5664, Note_on_c, 0, 61, 72
4, 5760, Note_on_c, 0, 61, 0
4, 5760, Note_on_c, 0, 62, 72
4, 5952, Note_on_c, 0, 62, 0
4, 6048, Note_on_c, 0, 64, 72
4, 6144, Note_on_c, 0, 64, 0
4, 6144, Note_on_c, 0, 65, 72
4, 6240, Note_on_c, 0, 65, 0
4, 6240, Note_on_c, 0, 67, 72
4, 6336, Note_on_c, 0, 67, 0
4, 6336, Note_on_c, 0, 69, 72
4, 6432, Note_on_c, 0, 69, 0
4, 6432, Note_on_c, 0, 67, 72
4, 6528, Note_on_c, 0, 67, 0
4, 6528, Note_on_c, 0, 65, 72
4, 6624, Note_on_c, 0, 65, 0
4, 6624, Note_on_c, 0, 64, 72
4, 6720, Note_on_c, 0, 64, 0
4, 6720, Note_on_c, 0, 62, 72
4, 6816, Note_on_c, 0, 62, 0
4, 6816, Note_on_c, 0, 61, 72
4, 6912, Note_on_c, 0, 61, 0
4, 6912, Note_on_c, 0, 62, 72
4, 7200, Note_on_c, 0, 62, 0
4, 7200, Note_on_c, 0, 61, 72
4, 7296, Note_on_c, 0, 61, 0
4, 7296, Note_on_c, 0, 62, 72
4, 7392, Note_on_c, 0, 62, 0
4, 7392, Note_on_c, 0, 64, 72
4, 7488, Note_on_c, 0, 64, 0
4, 7488, Note_on_c, 0, 57, 72
4, 7584, Note_on_c, 0, 57, 0
4, 7584, Note_on_c, 0, 55, 72
4, 7680, Note_on_c, 0, 55, 0
4, 7680, Note_on_c, 0, 53, 72
4, 7776, Note_on_c, 0, 53, 0
4, 7776, Note_on_c, 0, 52, 72
4, 7872, Note_on_c, 0, 52, 0
4, 7872, Note_on_c, 0, 50, 72
4, 7968, Note_on_c, 0, 50, 0
4, 7968, Note_on_c, 0, 52, 72
4, 8064, Note_on_c, 0, 52, 0
4, 8064, Note_on_c, 0, 53, 72
4, 8160, Note_on_c, 0, 53, 0
4, 8160, Note_on_c, 0, 55, 72
4, 8256, Note_on_c, 0, 55, 0
4, 8256, Note_on_c, 0, 57, 72
4, 8352, Note_on_c, 0, 57, 0
4, 8352, Note_on_c, 0, 56, 72
4, 8448, Note_on_c, 0, 56, 0
4, 8448, Note_on_c, 0, 57, 72
4, 8544, Note_on_c, 0, 57, 0
4, 8544, Note_on_c, 0, 59, 72
4, 8640, Note_on_c, 0, 59, 0
4, 8640, Note_on_c, 0, 60, 72
4, 8736, Note_on_c, 0, 60, 0
4, 8736, Note_on_c, 0, 62, 72
4, 8832, Note_on_c, 0, 62, 0
4, 8832, Note_on_c, 0, 64, 72
4, 9216, Note_on_c, 0, 64, 0
4, 9216, Note_on_c, 0, 64, 72
4, 9312, Note_on_c, 0, 64, 0
4, 9312, Note_on_c, 0, 57, 72
4, 9408, Note_on_c, 0, 57, 0
4, 9408, Note_on_c, 0, 52, 72
4, 9600, Note_on_c, 0, 52, 0
4, 9696, Note_on_c, 0, 62, 72
4, 9792, Note_on_c, 0, 62, 0
4, 9792, Note_on_c, 0, 60, 72
4, 9888, Note_on_c, 0, 60, 0
4, 9888, Note_on_c, 0, 53, 72
4, 9984, Note_on_c, 0, 53, 0
4, 9984, Note_on_c, 0, 48, 72
4, 10176, Note_on_c, 0, 48, 0
4, 10272, Note_on_c, 0, 58, 72
4, 10368, Note_on_c, 0, 58, 0
4, 10368, Note_on_c, 0, 57, 72
4, 10464, Note_on_c, 0, 57, 0
4, 10464, Note_on_c, 0, 62, 72
4, 10512, Note_on_c, 0, 62, 0
4, 10512, Note_on_c, 0, 64, 72
4, 10560, Note_on_c, 0, 64, 0
4, 10560, Note_on_c, 0, 65, 72
4, 10656, Note_on_c, 0, 65, 0
4, 10656, Note_on_c, 0, 61, 72
4, 10752, Note_on_c, 0, 61, 0
4, 10752, Note_on_c, 0, 62, 72
4, 10848, Note_on_c, 0, 62, 0
4, 10848, Note_on_c, 0, 55, 72
4, 10944, Note_on_c, 0, 55, 0
4, 10944, Note_on_c, 0, 57, 72
4, 11232, Note_on_c, 0, 57, 0
4, 11232, Note_on_c, 0, 55, 72
4, 11328, Note_on_c, 0, 55, 0
4, 11328, Note_on_c, 0, 53, 72
4, 11424, Note_on_c, 0, 53, 0
4, 11424, Note_on_c, 0, 52, 72
4, 11520, Note_on_c, 0, 52, 0
4, 11520, Note_on_c, 0, 50, 72
4, 11712, Note_on_c, 0, 50, 0
4, 11712, Note_on_c, 0, 50, 72
4, 11760, Note_on_c, 0, 50, 0
4, 11760, Note_on_c, 0, 52, 72
4, 11808, Note_on_c, 0, 52, 0
4, 11808, Note_on_c, 0, 53, 72
4, 11856, Note_on_c, 0, 53, 0
4, 11856, Note_on_c, 0, 55, 72
4, 11904, Note_on_c, 0, 55, 0
4, 11904, Note_on_c, 0, 57, 72
4, 12096, Note_on_c, 0, 57, 0
4, 12096, Note_on_c, 0, 57, 72
4, 12144, Note_on_c, 0, 57, 0
4, 12144, Note_on_c, 0, 69, 72
4, 12192, Note_on_c, 0, 69, 0
4, 12192, Note_on_c, 0, 57, 72
4, 12240, Note_on_c, 0, 57, 0
4, 12240, Note_on_c, 0, 55, 72
4, 12288, Note_on_c, 0, 55, 0
4, 12288, Note_on_c, 0, 53, 72
4, 12336, Note_on_c, 0, 53, 0
4, 12336, Note_on_c, 0, 52, 72
4, 12384, Note_on_c, 0, 52, 0
4, 12384, Note_on_c, 0, 50, 72
4, 12432, Note_on_c, 0, 50, 0
4, 12432, Note_on_c, 0, 52, 72
4, 12480, Note_on_c, 0, 52, 0
4, 12480, Note_on_c, 0, 53, 72
4, 12576, Note_on_c, 0, 53, 0
4, 12576, Note_on_c, 0, 65, 72
4, 12672, Note_on_c, 0, 65, 0
4, 12672, Note_on_c, 0, 64, 72
4, 12864, Note_on_c, 0, 64, 0
4, 12864, Note_on_c, 0, 65, 72
4, 13152, Note_on_c, 0, 65, 0
4, 13152, Note_on_c, 0, 67, 72
4, 13248, Note_on_c, 0, 67, 0
4, 13248, Note_on_c, 0, 65, 72
4, 13440, Note_on_c, 0, 65, 0
4, 13440, Note_on_c, 0, 53, 72
4, 13824, Note_on_c, 0, 53, 0
4, 13824, Note_on_c, 0, 53, 72
4, 13920, Note_on_c, 0, 53, 0
4, 13920, Note_on_c, 0, 55, 72
4, 13968, Note_on_c, 0, 55, 0
4, 13968, Note_on_c, 0, 52, 72
4, 14016, Note_on_c, 0, 52, 0
4, 14016, Note_on_c, 0, 54, 72
4, 14064, Note_on_c, 0, 54, 0
4, 14064, Note_on_c, 0, 57, 72
4, 14112, Note_on_c, 0, 57, 0
4, 14112, Note_on_c, 0, 58, 72
4, 14160, Note_on_c, 0, 58, 0
4, 14160, Note_on_c, 0, 60, 72
4, 14208, Note_on_c, 0, 60, 0
4, 14208, Note_on_c, 0, 62, 72
4, 14304, Note_on_c, 0, 62, 0
4, 14304, Note_on_c, 0, 60, 72
4, 14400, Note_on_c, 0, 60, 0
4, 14400, Note_on_c, 0, 58, 72
4, 14448, Note_on_c, 0, 58, 0
4, 14448, Note_on_c, 0, 60, 72
4, 14496, Note_on_c, 0, 60, 0
4, 14496, Note_on_c, 0, 58, 72
4, 14544, Note_on_c, 0, 58, 0
4, 14544, Note_on_c, 0, 57, 72
4, 14592, Note_on_c, 0, 57, 0
4, 14592, Note_on_c, 0, 55, 72
4, 14640, Note_on_c, 0, 55, 0
4, 14640, Note_on_c, 0, 54, 72
4, 14688, Note_on_c, 0, 54, 0
4, 14688, Note_on_c, 0, 55, 72
4, 14736, Note_on_c, 0, 55, 0
4, 14736, Note_on_c, 0, 57, 72
4, 14784, Note_on_c, 0, 57, 0
4, 14784, Note_on_c, 0, 58, 72
4, 14832, Note_on_c, 0, 58, 0
4, 14832, Note_on_c, 0, 60, 72
4, 14880, Note_on_c, 0, 60, 0
4, 14880, Note_on_c, 0, 62, 72
4, 14928, Note_on_c, 0, 62, 0
4, 14928, Note_on_c, 0, 63, 72
4, 14976, Note_on_c, 0, 63, 0
4, 14976, Note_on_c, 0, 62, 72
4, 15168, Note_on_c, 0, 62, 0
4, 17856, Note_on_c, 0, 58, 88
4, 17904, Note_on_c, 0, 58, 0
4, 17904, Note_on_c, 0, 60, 88
4, 17952, Note_on_c, 0, 60, 0
4, 17952, Note_on_c, 0, 62, 88
4, 18000, Note_on_c, 0, 62, 0
4, 18000, Note_on_c, 0, 63, 88
4, 18048, Note_on_c, 0, 63, 0
4, 18048, Note_on_c, 0, 65, 88
4, 18240, Note_on_c, 0, 65, 0
4, 18240, Note_on_c, 0, 65, 88
4, 18288, Note_on_c, 0, 65, 0
4, 18288, Note_on_c, 0, 67, 88
4, 18336, Note_on_c, 0, 67, 0
4, 18336, Note_on_c, 0, 65, 88
4, 18384, Note_on_c, 0, 65, 0
4, 18384, Note_on_c, 0, 63, 88
4, 18432, Note_on_c, 0, 63, 0
4, 18432, Note_on_c, 0, 62, 88
4, 18528, Note_on_c, 0, 62, 0
4, 18528, Note_on_c, 0, 60, 88
4, 18624, Note_on_c, 0, 60, 0
4, 18624, Note_on_c, 0, 58, 88
4, 18912, Note_on_c, 0, 58, 0
4, 18912, Note_on_c, 0, 57, 88
4, 18960, Note_on_c, 0, 57, 0
4, 18960, Note_on_c, 0, 55, 88
4, 19008, Note_on_c, 0, 55, 0
4, 19008, Note_on_c, 0, 57, 88
4, 19200, Note_on_c, 0, 57, 0
4, 19200, Note_on_c, 0, 58, 88
4, 19488, Note_on_c, 0, 58, 0
4, 19488, Note_on_c, 0, 60, 88
4, 19584, Note_on_c, 0, 60, 0
4, 19584, Note_on_c, 0, 62, 88
4, 19872, Note_on_c, 0, 62, 0
4, 19872, Note_on_c, 0, 63, 88
4, 19968, Note_on_c, 0, 63, 0
4, 19968, Note_on_c, 0, 62, 88
4, 20064, Note_on_c, 0, 62, 0
4, 20064, Note_on_c, 0, 60, 88
4, 20160, Note_on_c, 0, 60, 0
4, 20160, Note_on_c, 0, 58, 88
4, 20352, Note_on_c, 0, 58, 0
4, 20352, Note_on_c, 0, 58, 72
4, 20400, Note_on_c, 0, 58, 0
4, 20400, Note_on_c, 0, 57, 72
4, 20448, Note_on_c, 0, 57, 0
4, 20448, Note_on_c, 0, 58, 72
4, 20496, Note_on_c, 0, 58, 0
4, 20496, Note_on_c, 0, 60, 72
4, 20544, Note_on_c, 0, 60, 0
4, 20544, Note_on_c, 0, 62, 72
4, 20640, Note_on_c, 0, 62, 0
4, 20640, Note_on_c, 0, 58, 72
4, 20736, Note_on_c, 0, 58, 0
4, 20736, Note_on_c, 0, 63, 72
4, 20928, Note_on_c, 0, 63, 0
4, 20928, Note_on_c, 0, 63, 72
4, 20976, Note_on_c, 0, 63, 0
4, 20976, Note_on_c, 0, 62, 72
4, 21024, Note_on_c, 0, 62, 0
4, 21024, Note_on_c, 0, 63, 72
4, 21072, Note_on_c, 0, 63, 0
4, 21072, Note_on_c, 0, 65, 72
4, 21120, Note_on_c, 0, 65, 0
4, 21120, Note_on_c, 0, 63, 72
4, 21216, Note_on_c, 0, 63, 0
4, 21216, Note_on_c, 0, 62, 72
4, 21312, Note_on_c, 0, 62, 0
4, 21312, Note_on_c, 0, 60, 72
4, 21360, Note_on_c, 0, 60, 0
4, 21360, Note_on_c, 0, 58, 72
4, 21408, Note_on_c, 0, 58, 0
4, 21408, Note_on_c, 0, 60, 72
4, 21456, Note_on_c, 0, 60, 0
4, 21456, Note_on_c, 0, 62, 72
4, 21504, Note_on_c, 0, 62, 0
4, 21504, Note_on_c, 0, 60, 72
4, 21600, Note_on_c, 0, 60, 0
4, 21600, Note_on_c, 0, 58, 72
4, 21696, Note_on_c, 0, 58, 0
4, 21696, Note_on_c, 0, 57, 72
4, 21792, Note_on_c, 0, 57, 0
4, 21792, Note_on_c, 0, 55, 72
4, 21888, Note_on_c, 0, 55, 0
4, 21888, Note_on_c, 0, 57, 72
4, 21984, Note_on_c, 0, 57, 0
4, 21984, Note_on_c, 0, 53, 72
4, 22080, Note_on_c, 0, 53, 0
4, 22080, Note_on_c, 0, 55, 72
4, 22176, Note_on_c, 0, 55, 0
4, 22176, Note_on_c, 0, 57, 72
4, 22272, Note_on_c, 0, 57, 0
4, 22272, Note_on_c, 0, 58, 72
4, 22320, Note_on_c, 0, 58, 0
4, 22320, Note_on_c, 0, 60, 72
4, 22368, Note_on_c, 0, 60, 0
4, 22368, Note_on_c, 0, 62, 72
4, 22416, Note_on_c, 0, 62, 0
4, 22416, Note_on_c, 0, 60, 72
4, 22464, Note_on_c, 0, 60, 0
4, 22464, Note_on_c, 0, 58, 72
4, 22560, Note_on_c, 0, 58, 0
4, 22560, Note_on_c, 0, 57, 72
4, 22656, Note_on_c, 0, 57, 0
4, 22656, Note_on_c, 0, 55, 72
4, 22752, Note_on_c, 0, 55, 0
4, 22752, Note_on_c, 0, 54, 72
4, 22848, Note_on_c, 0, 54, 0
4, 22848, Note_on_c, 0, 55, 72
4, 22944, Note_on_c, 0, 55, 0
4, 22944, Note_on_c, 0, 52, 72
4, 23040, Note_on_c, 0, 52, 0
4, 23040, Note_on_c, 0, 53, 72
4, 23136, Note_on_c, 0, 53, 0
4, 23136, Note_on_c, 0, 55, 72
4, 23232, Note_on_c, 0, 55, 0
4, 23232, Note_on_c, 0, 57, 72
4, 23280, Note_on_c, 0, 57, 0
4, 23280, Note_on_c, 0, 55, 72
4, 23328, Note_on_c, 0, 55, 0
4, 23328, Note_on_c, 0, 57, 72
4, 23376, Note_on_c, 0, 57, 0
4, 23376, Note_on_c, 0, 58, 72
4, 23424, Note_on_c, 0, 58, 0
4, 23424, Note_on_c, 0, 57, 72
4, 23520, Note_on_c, 0, 57, 0
4, 23520, Note_on_c, 0, 55, 72
4, 23616, Note_on_c, 0, 55, 0
4, 23616, Note_on_c, 0, 53, 72
4, 23664, Note_on_c, 0, 53, 0
4, 23664, Note_on_c, 0, 55, 72
4, 23712, Note_on_c, 0, 55, 0
4, 23712, Note_on_c, 0, 57, 72
4, 23856, Note_on_c, 0, 57, 0
4, 23856, Note_on_c, 0, 59, 72
4, 23904, Note_on_c, 0, 59, 0
4, 23904, Note_on_c, 0, 61, 72
4, 23952, Note_on_c, 0, 61, 0
4, 23952, Note_on_c, 0, 62, 72
4, 24000, Note_on_c, 0, 62, 0
4, 24000, Note_on_c, 0, 64, 72
4, 24096, Note_on_c, 0, 64, 0
4, 24096, Note_on_c, 0, 69, 72
4, 24192, Note_on_c, 0, 69, 0
4, 24192, Note_on_c, 0, 69, 72
4, 24288, Note_on_c, 0, 69, 0
4, 24288, Note_on_c, 0, 67, 72
4, 24384, Note_on_c, 0, 67, 0
4, 24384, Note_on_c, 0, 65, 72
4, 24480, Note_on_c, 0, 65, 0
4, 24480, Note_on_c, 0, 69, 72
4, 24576, Note_on_c, 0, 69, 0
4, 24576, Note_on_c, 0, 62, 72
4, 24768, Note_on_c, 0, 62, 0
4, 25008, Note_on_c, 0, 49, 72
4, 25056, Note_on_c, 0, 49, 0
4, 25056, Note_on_c, 0, 50, 72
4, 25104, Note_on_c, 0, 50, 0
4, 25104, Note_on_c, 0, 52, 72
4, 25152, Note_on_c, 0, 52, 0
4, 25152, Note_on_c, 0, 53, 72
4, 25200, Note_on_c, 0, 53, 0
4, 25200, Note_on_c, 0, 57, 72
4, 25248, Note_on_c, 0, 57, 0
4, 25248, Note_on_c, 0, 55, 72
4, 25296, Note_on_c, 0, 55, 0
4, 25296, Note_on_c, 0, 58, 72
4, 25344, Note_on_c, 0, 58, 0
4, 25344, Note_on_c, 0, 57, 72
4, 25632, Note_on_c, 0, 57, 0
4, 25632, Note_on_c, 0, 58, 72
4, 25728, Note_on_c, 0, 58, 0
4, 25728, Note_on_c, 0, 57, 72
4, 25824, Note_on_c, 0, 57, 0
4, 25824, Note_on_c, 0, 55, 72
4, 25920, Note_on_c, 0, 55, 0
4, 25920, Note_on_c, 0, 53, 72
4, 25968, Note_on_c, 0, 53, 0
4, 25968, Note_on_c, 0, 55, 72
4, 26016, Note_on_c, 0, 55, 0
4, 26016, Note_on_c, 0, 57, 72
4, 26112, Note_on_c, 0, 57, 0
4, 26112, Note_on_c, 0, 50, 72
4, 26208, Note_on_c, 0, 50, 0
4, 26400, Note_on_c, 0, 62, 72
4, 26496, Note_on_c, 0, 62, 0
4, 26496, Note_on_c, 0, 62, 72
4, 26592, Note_on_c, 0, 62, 0
4, 26592, Note_on_c, 0, 67, 72
4, 26640, Note_on_c, 0, 67, 0
4, 26640, Note_on_c, 0, 66, 72
4, 26688, Note_on_c, 0, 66, 0
4, 26688, Note_on_c, 0, 67, 72
4, 26784, Note_on_c, 0, 67, 0
4, 26784, Note_on_c, 0, 58, 72
4, 26832, Note_on_c, 0, 58, 0
4, 26832, Note_on_c, 0, 60, 72
4, 26880, Note_on_c, 0, 60, 0
4, 26880, Note_on_c, 0, 62, 72
4, 26928, Note_on_c, 0, 62, 0
4, 26928, Note_on_c, 0, 60, 72
4, 26976, Note_on_c, 0, 60, 0
4, 26976, Note_on_c, 0, 58, 72
4, 27024, Note_on_c, 0, 58, 0
4, 27024, Note_on_c, 0, 57, 72
4, 27072, Note_on_c, 0, 57, 0
4, 27072, Note_on_c, 0, 55, 72
4, 27120, Note_on_c, 0, 55, 0
4, 27120, Note_on_c, 0, 57, 72
4, 27168, Note_on_c, 0, 57, 0
4, 27168, Note_on_c, 0, 58, 72
4, 27360, Note_on_c, 0, 58, 0
4, 27360, Note_on_c, 0, 59, 72
4, 27552, Note_on_c, 0, 59, 0
4, 27552, Note_on_c, 0, 64, 72
4, 27648, Note_on_c, 0, 64, 0
4, 27648, Note_on_c, 0, 64, 72
4, 27696, Note_on_c, 0, 64, 0
4, 27696, Note_on_c, 0, 62, 72
4, 27744, Note_on_c, 0, 62, 0
4, 27744, Note_on_c, 0, 64, 72
4, 27792, Note_on_c, 0, 64, 0
4, 27792, Note_on_c, 0, 65, 72
4, 27840, Note_on_c, 0, 65, 0
4, 27840, Note_on_c, 0, 67, 72
4, 27936, Note_on_c, 0, 67, 0
4, 27936, Note_on_c, 0, 61, 72
4, 28128, Note_on_c, 0, 61, 0
4, 28128, Note_on_c, 0, 61, 72
4, 28224, Note_on_c, 0, 61, 0
4, 28224, Note_on_c, 0, 62, 72
4, 28416, Note_on_c, 0, 62, 0
4, 28416, Note_on_c, 0, 62, 72
4, 28464, Note_on_c, 0, 62, 0
4, 28464, Note_on_c, 0, 59, 72
4, 28512, Note_on_c, 0, 59, 0
4, 28512, Note_on_c, 0, 61, 72
4, 28560, Note_on_c, 0, 61, 0
4, 28560, Note_on_c, 0, 62, 72
4, 28608, Note_on_c, 0, 62, 0
4, 28608, Note_on_c, 0, 64, 72
4, 28656, Note_on_c, 0, 64, 0
4, 28656, Note_on_c, 0, 61, 72
4, 28704, Note_on_c, 0, 61, 0
4, 28704, Note_on_c, 0, 62, 72
4, 28752, Note_on_c, 0, 62, 0
4, 28752, Note_on_c, 0, 64, 72
4, 28800, Note_on_c, 0, 64, 0
4, 28800, Note_on_c, 0, 57, 72
4, 28896, Note_on_c, 0, 57, 0
4, 28992, Note_on_c, 0, 50, 72
4, 29040, Note_on_c, 0, 50, 0
4, 29040, Note_on_c, 0, 52, 72
4, 29088, Note_on_c, 0, 52, 0
4, 29088, Note_on_c, 0, 53, 72
4, 29136, Note_on_c, 0, 53, 0
4, 29136, Note_on_c, 0, 55, 72
4, 29184, Note_on_c, 0, 55, 0
4, 29184, Note_on_c, 0, 57, 72
4, 29376, Note_on_c, 0, 57, 0
4, 29376, Note_on_c, 0, 57, 72
4, 29424, Note_on_c, 0, 57, 0
4, 29424, Note_on_c, 0, 58, 72
4, 29472, Note_on_c, 0, 58, 0
4, 29472, Note_on_c, 0, 57, 72
4, 29520, Note_on_c, 0, 57, 0
4, 29520, Note_on_c, 0, 55, 72
4, 29568, Note_on_c, 0, 55, 0
4, 29568, Note_on_c, 0, 53, 72
4, 29760, Note_on_c, 0, 53, 0
4, 29760, Note_on_c, 0, 53, 72
4, 29808, Note_on_c, 0, 53, 0
4, 29808, Note_on_c, 0, 52, 72
4, 29856, Note_on_c, 0, 52, 0
4, 29856, Note_on_c, 0, 50, 72
4, 29904, Note_on_c, 0, 50, 0
4, 29904, Note_on_c, 0, 49, 72
4, 29952, Note_on_c, 0, 49, 0
4, 29952, Note_on_c, 0, 50, 72
4, 30000, Note_on_c, 0, 50, 0
4, 30000, Note_on_c, 0, 57, 72
4, 30048, Note_on_c, 0, 57, 0
4, 30048, Note_on_c, 0, 59, 72
4, 30096, Note_on_c, 0, 59, 0
4, 30096, Note_on_c, 0, 61, 72
4, 30144, Note_on_c, 0, 61, 0
4, 30144, Note_on_c, 0, 62, 72
4, 30192, Note_on_c, 0, 62, 0
4, 30192, Note_on_c, 0, 64, 72
4, 30240, Note_on_c, 0, 64, 0
4, 30240, Note_on_c, 0, 62, 72
4, 30288, Note_on_c, 0, 62, 0
4, 30288, Note_on_c, 0, 61, 72
4, 30336, Note_on_c, 0, 61, 0
4, 30336, Note_on_c, 0, 62, 72
4, 30432, Note_on_c, 0, 62, 0
4, 30432, Note_on_c, 0, 55, 72
4, 30528, Note_on_c, 0, 55, 0
4, 30528, Note_on_c, 0, 54, 72
4, 30624, Note_on_c, 0, 54, 0
4, 30624, Note_on_c, 0, 58, 72
4, 30768, Note_on_c, 0, 58, 0
4, 30768, Note_on_c, 0, 57, 72
4, 30816, Note_on_c, 0, 57, 0
4, 30816, Note_on_c, 0, 55, 72
4, 30864, Note_on_c, 0, 55, 0
4, 30864, Note_on_c, 0, 57, 72
4, 30912, Note_on_c, 0, 57, 0
4, 30912, Note_on_c, 0, 58, 72
4, 30960, Note_on_c, 0, 58, 0
4, 30960, Note_on_c, 0, 60, 72
4, 31008, Note_on_c, 0, 60, 0
4, 31008, Note_on_c, 0, 58, 72
4, 31056, Note_on_c, 0, 58, 0
4, 31056, Note_on_c, 0, 57, 72
4, 31104, Note_on_c, 0, 57, 0
4, 31104, Note_on_c, 0, 55, 72
4, 31152, Note_on_c, 0, 55, 0
4, 31152, Note_on_c, 0, 50, 72
4, 31200, Note_on_c, 0, 50, 0
4, 31200, Note_on_c, 0, 52, 72
4, 31248, Note_on_c, 0, 52, 0
4, 31248, Note_on_c, 0, 54, 72
4, 31296, Note_on_c, 0, 54, 0
4, 31296, Note_on_c, 0, 55, 72
4, 31344, Note_on_c, 0, 55, 0
4, 31344, Note_on_c, 0, 57, 72
4, 31392, Note_on_c, 0, 57, 0
4, 31392, Note_on_c, 0, 58, 72
4, 31440, Note_on_c, 0, 58, 0
4, 31440, Note_on_c, 0, 60, 72
4, 31488, Note_on_c, 0, 60, 0
4, 31488, Note_on_c, 0, 58, 72
4, 31536, Note_on_c, 0, 58, 0
4, 31536, Note_on_c, 0, 57, 72
4, 31584, Note_on_c, 0, 57, 0
4, 31584, Note_on_c, 0, 55, 72
4, 31632, Note_on_c, 0, 55, 0
4, 31632, Note_on_c, 0, 54, 72
4, 31656, Note_on_c, 0, 54, 0
4, 31656, Note_on_c, 0, 52, 72
4, 31680, Note_on_c, 0, 52, 0
4, 31680, Note_on_c, 0, 54, 72
4, 31728, Note_on_c, 0, 54, 0
4, 31728, Note_on_c, 0, 55, 72
4, 31776, Note_on_c, 0, 55, 0
4, 31776, Note_on_c, 0, 57, 72
4, 31872, Note_on_c, 0, 57, 0
4, 31872, Note_on_c, 0, 50, 72
4, 32256, Note_on_c, 0, 50, 0
4, 38016, Note_on_c, 0, 57, 88
4, 38208, Note_on_c, 0, 57, 0
4, 38208, Note_on_c, 0, 50, 88
4, 38592, Note_on_c, 0, 50, 0
4, 38592, Note_on_c, 0, 53, 88
4, 38784, Note_on_c, 0, 53, 0
4, 38784, Note_on_c, 0, 57, 88
4, 39168, Note_on_c, 0, 57, 0
4, 39168, Note_on_c, 0, 58, 88
4, 39360, Note_on_c, 0, 58, 0
4, 39360, Note_on_c, 0, 57, 88
4, 39552, Note_on_c, 0, 57, 0
4, 39552, Note_on_c, 0, 55, 88
4, 39744, Note_on_c, 0, 55, 0
4, 39744, Note_on_c, 0, 53, 88
4, 40032, Note_on_c, 0, 53, 0
4, 40032, Note_on_c, 0, 52, 88
4, 40128, Note_on_c, 0, 52, 0
4, 40128, Note_on_c, 0, 53, 88
4, 40224, Note_on_c, 0, 53, 0
4, 40224, Note_on_c, 0, 55, 88
4, 40320, Note_on_c, 0, 55, 0
4, 40320, Note_on_c, 0, 57, 88
4, 40512, Note_on_c, 0, 57, 0
4, 40608, Note_on_c, 0, 55, 72
4, 40704, Note_on_c, 0, 55, 0
4, 40704, Note_on_c, 0, 53, 72
4, 40800, Note_on_c, 0, 53, 0
4, 40800, Note_on_c, 0, 52, 72
4, 40896, Note_on_c, 0, 52, 0
4, 40896, Note_on_c, 0, 50, 72
4, 41088, Note_on_c, 0, 50, 0
4, 41184, Note_on_c, 0, 48, 72
4, 41280, Note_on_c, 0, 48, 0
4, 41280, Note_on_c, 0, 46, 72
4, 41376, Note_on_c, 0, 46, 0
4, 41376, Note_on_c, 0, 45, 72
4, 41472, Note_on_c, 0, 45, 0
4, 41472, Note_on_c, 0, 43, 72
4, 41568, Note_on_c, 0, 43, 0
4, 41568, Note_on_c, 0, 45, 72
4, 41664, Note_on_c, 0, 45, 0
4, 41664, Note_on_c, 0, 46, 72
4, 41760, Note_on_c, 0, 46, 0
4, 41760, Note_on_c, 0, 48, 72
4, 41856, Note_on_c, 0, 48, 0
4, 41856, Note_on_c, 0, 50, 72
4, 41952, Note_on_c, 0, 50, 0
4, 41952, Note_on_c, 0, 51, 72
4, 42048, Note_on_c, 0, 51, 0
4, 42048, Note_on_c, 0, 50, 72
4, 42336, Note_on_c, 0, 50, 0
4, 42336, Note_on_c, 0, 49, 72
4, 42432, Note_on_c, 0, 49, 0
4, 42432, Note_on_c, 0, 50, 72
4, 42528, Note_on_c, 0, 50, 0
4, 42528, Note_on_c, 0, 52, 72
4, 42624, Note_on_c, 0, 52, 0
4, 42624, Note_on_c, 0, 53, 72
4, 42912, Note_on_c, 0, 53, 0
4, 42912, Note_on_c, 0, 52, 72
4, 43008, Note_on_c, 0, 52, 0
4, 43008, Note_on_c, 0, 53, 72
4, 43104, Note_on_c, 0, 53, 0
4, 43104, Note_on_c, 0, 55, 72
4, 43200, Note_on_c, 0, 55, 0
4, 43200, Note_on_c, 0, 57, 72
4, 43488, Note_on_c, 0, 57, 0
4, 43488, Note_on_c, 0, 55, 72
4, 43584, Note_on_c, 0, 55, 0
4, 43584, Note_on_c, 0, 57, 72
4, 43680, Note_on_c, 0, 57, 0
4, 43680, Note_on_c, 0, 58, 72
4, 43776, Note_on_c, 0, 58, 0
4, 43776, Note_on_c, 0, 57, 72
4, 43872, Note_on_c, 0, 57, 0
4, 43872, Note_on_c, 0, 55, 72
4, 43968, Note_on_c, 0, 55, 0
4, 43968, Note_on_c, 0, 53, 72
4, 44256, Note_on_c, 0, 53, 0
4, 44256, Note_on_c, 0, 52, 72
4, 44304, Note_on_c, 0, 52, 0
4, 44304, Note_on_c, 0, 55, 72
4, 44352, Note_on_c, 0, 55, 0
4, 44352, Note_on_c, 0, 53, 72
4, 44448, Note_on_c, 0, 53, 0
4, 44448, Note_on_c, 0, 50, 72
4, 44544, Note_on_c, 0, 50, 0
4, 44544, Note_on_c, 0, 57, 72
4, 44640, Note_on_c, 0, 57, 0
4, 44640, Note_on_c, 0, 62, 72
4, 44688, Note_on_c, 0, 62, 0
4, 44688, Note_on_c, 0, 60, 72
4, 44736, Note_on_c, 0, 60, 0
4, 44736, Note_on_c, 0, 58, 72
4, 44832, Note_on_c, 0, 58, 0
4, 44832, Note_on_c, 0, 57, 72
4, 44880, Note_on_c, 0, 57, 0
4, 44880, Note_on_c, 0, 55, 72
4, 44928, Note_on_c, 0, 55, 0
4, 44928, Note_on_c, 0, 57, 72
4, 45024, Note_on_c, 0, 57, 0
4, 45024, Note_on_c, 0, 58, 72
4, 45120, Note_on_c, 0, 58, 0
4, 45120, Note_on_c, 0, 57, 72
4, 45168, Note_on_c, 0, 57, 0
4, 45168, Note_on_c, 0, 55, 72
4, 45216, Note_on_c, 0, 55, 0
4, 45216, Note_on_c, 0, 53, 72
4, 45264, Note_on_c, 0, 53, 0
4, 45264, Note_on_c, 0, 52, 72
4, 45312, Note_on_c, 0, 52, 0
4, 45312, Note_on_c, 0, 50, 72
4, 45504, Note_on_c, 0, 50, 0
4, 45504, Note_on_c, 0, 50, 72
4, 45792, Note_on_c, 0, 50, 0
4, 45792, Note_on_c, 0, 49, 72
4, 45840, Note_on_c, 0, 49, 0
4, 45840, Note_on_c, 0, 47, 72
4, 45888, Note_on_c, 0, 47, 0
4, 45888, Note_on_c, 0, 49, 72
4, 46080, Note_on_c, 0, 49, 0
4, 46080, Note_on_c, 0, 50, 72
4, 46176, Note_on_c, 0, 50, 0
4, 46176, Note_on_c, 0, 57, 72
4, 46368, Note_on_c, 0, 57, 0
4, 46368, Note_on_c, 0, 55, 72
4, 46464, Note_on_c, 0, 55, 0
4, 46464, Note_on_c, 0, 57, 72
4, 46560, Note_on_c, 0, 57, 0
4, 46560, Note_on_c, 0, 59, 72
4, 46656, Note_on_c, 0, 59, 0
4, 46656, Note_on_c, 0, 60, 72
4, 46800, Note_on_c, 0, 60, 0
4, 46800, Note_on_c, 0, 59, 72
4, 46824, Note_on_c, 0, 59, 0
4, 46824, Note_on_c, 0, 60, 72
4, 46848, Note_on_c, 0, 60, 0
4, 46848, Note_on_c, 0, 62, 72
4, 47040, Note_on_c, 0, 62, 0
4, 47232, Note_on_c, 0, 52, 88
4, 47280, Note_on_c, 0, 52, 0
4, 47280, Note_on_c, 0, 50, 88
4, 47328, Note_on_c, 0, 50, 0
4, 47328, Note_on_c, 0, 48, 88
4, 47376, Note_on_c, 0, 48, 0
4, 47376, Note_on_c, 0, 47, 88
4, 47424, Note_on_c, 0, 47, 0
4, 47424, Note_on_c, 0, 45, 88
4, 47616, Note_on_c, 0, 45, 0
4, 47616, Note_on_c, 0, 45, 88
4, 47664, Note_on_c, 0, 45, 0
4, 47664, Note_on_c, 0, 44, 88
4, 47712, Note_on_c, 0, 44, 0
4, 47712, Note_on_c, 0, 45, 88
4, 47760, Note_on_c, 0, 45, 0
4, 47760, Note_on_c, 0, 47, 88
4, 47808, Note_on_c, 0, 47, 0
4, 47808, Note_on_c, 0, 48, 88
4, 47904, Note_on_c, 0, 48, 0
4, 47904, Note_on_c, 0, 50, 88
4, 48000, Note_on_c, 0, 50, 0
4, 48000, Note_on_c, 0, 52, 88
4, 48288, Note_on_c, 0, 52, 0
4, 48288, Note_on_c, 0, 53, 88
4, 48336, Note_on_c, 0, 53, 0
4, 48336, Note_on_c, 0, 55, 88
4, 48384, Note_on_c, 0, 55, 0
4, 48384, Note_on_c, 0, 53, 88
4, 48576, Note_on_c, 0, 53, 0
4, 48576, Note_on_c, 0, 52, 88
4, 48864, Note_on_c, 0, 52, 0
4, 48864, Note_on_c, 0, 50, 88
4, 48960, Note_on_c, 0, 50, 0
4, 48960, Note_on_c, 0, 48, 88
4, 49248, Note_on_c, 0, 48, 0
4, 49248, Note_on_c, 0, 47, 88
4, 49344, Note_on_c, 0, 47, 0
4, 49344, Note_on_c, 0, 48, 88
4, 49440, Note_on_c, 0, 48, 0
4, 49440, Note_on_c, 0, 50, 88
4, 49536, Note_on_c, 0, 50, 0
4, 49536, Note_on_c, 0, 52, 88
4, 49824, Note_on_c, 0, 52, 0
4, 49824, Note_on_c, 0, 50, 72
4, 49920, Note_on_c, 0, 50, 0
4, 49920, Note_on_c, 0, 52, 72
4, 50016, Note_on_c, 0, 52, 0
4, 50016, Note_on_c, 0, 54, 72
4, 50112, Note_on_c, 0, 54, 0
4, 50112, Note_on_c, 0, 55, 72
4, 50400, Note_on_c, 0, 55, 0
4, 50400, Note_on_c, 0, 52, 72
4, 50496, Note_on_c, 0, 52, 0
4, 50496, Note_on_c, 0, 53, 72
4, 50592, Note_on_c, 0, 53, 0
4, 50592, Note_on_c, 0, 55, 72
4, 50688, Note_on_c, 0, 55, 0
4, 50688, Note_on_c, 0, 57, 72
4, 50880, Note_on_c, 0, 57, 0
4, 50880, Note_on_c, 0, 57, 72
4, 50928, Note_on_c, 0, 57, 0
4, 50928, Note_on_c, 0, 55, 72
4, 50976, Note_on_c, 0, 55, 0
4, 50976, Note_on_c, 0, 53, 72
4, 51024, Note_on_c, 0, 53, 0
4, 51024, Note_on_c, 0, 55, 72
4, 51072, Note_on_c, 0, 55, 0
4, 51072, Note_on_c, 0, 57, 72
4, 51120, Note_on_c, 0, 57, 0
4, 51120, Note_on_c, 0, 55, 72
4, 51168, Note_on_c, 0, 55, 0
4, 51168, Note_on_c, 0, 57, 72
4, 51216, Note_on_c, 0, 57, 0
4, 51216, Note_on_c, 0, 58, 72
4, 51264, Note_on_c, 0, 58, 0
4, 51264, Note_on_c, 0, 60, 72
4, 51360, Note_on_c, 0, 60, 0
4, 51360, Note_on_c, 0, 62, 72
4, 51408, Note_on_c, 0, 62, 0
4, 51408, Note_on_c, 0, 64, 72
4, 51456, Note_on_c, 0, 64, 0
4, 51456, Note_on_c, 0, 65, 72
4, 51648, Note_on_c, 0, 65, 0
4, 51648, Note_on_c, 0, 65, 72
4, 51696, Note_on_c, 0, 65, 0
4, 51696, Note_on_c, 0, 63, 72
4, 51744, Note_on_c, 0, 63, 0
4, 51744, Note_on_c, 0, 62, 72
4, 51792, Note_on_c, 0, 62, 0
4, 51792, Note_on_c, 0, 60, 72
4, 51840, Note_on_c, 0, 60, 0
4, 51840, Note_on_c, 0, 58, 72
4, 52032, Note_on_c, 0, 58, 0
4, 52032, Note_on_c, 0, 57, 72
4, 52080, Note_on_c, 0, 57, 0
4, 52080, Note_on_c, 0, 55, 72
4, 52128, Note_on_c, 0, 55, 0
4, 52128, Note_on_c, 0, 57, 72
4, 52176, Note_on_c, 0, 57, 0
4, 52176, Note_on_c, 0, 58, 72
4, 52224, Note_on_c, 0, 58, 0
4, 52224, Note_on_c, 0, 60, 72
4, 52416, Note_on_c, 0, 60, 0
4, 52416, Note_on_c, 0, 60, 72
4, 52464, Note_on_c, 0, 60, 0
4, 52464, Note_on_c, 0, 58, 72
4, 52512, Note_on_c, 0, 58, 0
4, 52512, Note_on_c, 0, 57, 72
4, 52560, Note_on_c, 0, 57, 0
4, 52560, Note_on_c, 0, 55, 72
4, 52608, Note_on_c, 0, 55, 0
4, 52608, Note_on_c, 0, 57, 72
4, 52704, Note_on_c, 0, 57, 0
4, 52704, Note_on_c, 0, 59, 72
4, 52752, Note_on_c, 0, 59, 0
4, 52752, Note_on_c, 0, 60, 72
4, 52800, Note_on_c, 0, 60, 0
4, 52800, Note_on_c, 0, 62, 72
4, 52896, Note_on_c, 0, 62, 0
4, 52896, Note_on_c, 0, 50, 72
4, 52992, Note_on_c, 0, 50, 0
4, 52992, Note_on_c, 0, 52, 72
4, 53184, Note_on_c, 0, 52, 0
4, 53184, Note_on_c, 0, 53, 72
4, 53472, Note_on_c, 0, 53, 0
4, 53472, Note_on_c, 0, 52, 72
4, 53520, Note_on_c, 0, 52, 0
4, 53520, Note_on_c, 0, 50, 72
4, 53568, Note_on_c, 0, 50, 0
4, 53568, Note_on_c, 0, 52, 72
4, 53616, Note_on_c, 0, 52, 0
4, 53616, Note_on_c, 0, 53, 72
4, 53664, Note_on_c, 0, 53, 0
4, 53664, Note_on_c, 0, 55, 72
4, 53712, Note_on_c, 0, 55, 0
4, 53712, Note_on_c, 0, 53, 72
4, 53760, Note_on_c, 0, 53, 0
4, 53760, Note_on_c, 0, 52, 72
4, 53808, Note_on_c, 0, 52, 0
4, 53808, Note_on_c, 0, 53, 72
4, 53856, Note_on_c, 0, 53, 0
4, 53856, Note_on_c, 0, 52, 72
4, 53904, Note_on_c, 0, 52, 0
4, 53904, Note_on_c, 0, 50, 72
4, 53952, Note_on_c, 0, 50, 0
4, 53952, Note_on_c, 0, 52, 72
4, 54048, Note_on_c, 0, 52, 0
4, 54048, Note_on_c, 0, 54, 72
4, 54144, Note_on_c, 0, 54, 0
4, 54144, Note_on_c, 0, 55, 72
4, 54336, Note_on_c, 0, 55, 0
4, 54384, Note_on_c, 0, 62, 72
4, 54432, Note_on_c, 0, 62, 0
4, 54432, Note_on_c, 0, 63, 72
4, 54480, Note_on_c, 0, 63, 0
4, 54480, Note_on_c, 0, 60, 72
4, 54528, Note_on_c, 0, 60, 0
4, 54528, Note_on_c, 0, 58, 72
4, 54576, Note_on_c, 0, 58, 0
4, 54576, Note_on_c, 0, 57, 72
4, 54624, Note_on_c, 0, 57, 0
4, 54624, Note_on_c, 0, 55, 72
4, 54672, Note_on_c, 0, 55, 0
4, 54672, Note_on_c, 0, 57, 72
4, 54720, Note_on_c, 0, 57, 0
4, 54720, Note_on_c, 0, 58, 72
4, 54816, Note_on_c, 0, 58, 0
4, 54816, Note_on_c, 0, 62, 72
4, 54912, Note_on_c, 0, 62, 0
4, 54912, Note_on_c, 0, 60, 72
4, 55008, Note_on_c, 0, 60, 0
4, 55008, Note_on_c, 0, 58, 72
4, 55104, Note_on_c, 0, 58, 0
4, 55104, Note_on_c, 0, 57, 72
4, 55200, Note_on_c, 0, 57, 0
4, 55200, Note_on_c, 0, 53, 72
4, 55296, Note_on_c, 0, 53, 0
4, 55296, Note_on_c, 0, 52, 72
4, 55344, Note_on_c, 0, 52, 0
4, 55344, Note_on_c, 0, 50, 72
4, 55392, Note_on_c, 0, 50, 0
4, 55392, Note_on_c, 0, 49, 72
4, 55440, Note_on_c, 0, 49, 0
4, 55440, Note_on_c, 0, 47, 72
4, 55488, Note_on_c, 0, 47, 0
4, 55488, Note_on_c, 0, 49, 72
4, 55536, Note_on_c, 0, 49, 0
4, 55536, Note_on_c, 0, 45, 72
4, 55584, Note_on_c, 0, 45, 0
4, 55584, Note_on_c, 0, 50, 72
4, 55632, Note_on_c, 0, 50, 0
4, 55632, Note_on_c, 0, 47, 72
4, 55680, Note_on_c, 0, 47, 0
4, 55680, Note_on_c, 0, 49, 72
4, 55776, Note_on_c, 0, 49, 0
4, 55776, Note_on_c, 0, 52, 72
4, 55872, Note_on_c, 0, 52, 0
4, 55872, Note_on_c, 0, 50, 72
4, 55968, Note_on_c, 0, 50, 0
4, 55968, Note_on_c, 0, 49, 72
4, 56064, Note_on_c, 0, 49, 0
4, 56064, Note_on_c, 0, 50, 72
4, 56160, Note_on_c, 0, 50, 0
4, 56160, Note_on_c, 0, 53, 72
4, 56256, Note_on_c, 0, 53, 0
4, 56256, Note_on_c, 0, 58, 72
4, 56304, Note_on_c, 0, 58, 0
4, 56304, Note_on_c, 0, 57, 72
4, 56352, Note_on_c, 0, 57, 0
4, 56352, Note_on_c, 0, 55, 72
4, 56400, Note_on_c, 0, 55, 0
4, 56400, Note_on_c, 0, 58, 72
4, 56448, Note_on_c, 0, 58, 0
4, 56448, Note_on_c, 0, 57, 72
4, 56640, Note_on_c, 0, 57, 0
4, 56640, Note_on_c, 0, 57, 72
4, 56688, Note_on_c, 0, 57, 0
4, 56688, Note_on_c, 0, 53, 72
4, 56736, Note_on_c, 0, 53, 0
4, 56736, Note_on_c, 0, 55, 72
4, 56784, Note_on_c, 0, 55, 0
4, 56784, Note_on_c, 0, 57, 72
4, 56832, Note_on_c, 0, 57, 0
4, 56832, Note_on_c, 0, 58, 72
4, 57024, Note_on_c, 0, 58, 0
4, 57024, Note_on_c, 0, 57, 72
4, 57216, Note_on_c, 0, 57, 0
4, 57216, Note_on_c, 0, 57, 72
4, 57264, Note_on_c, 0, 57, 0
4, 57264, Note_on_c, 0, 55, 72
4, 57312, Note_on_c, 0, 55, 0
4, 57312, Note_on_c, 0, 53, 72
4, 57360, Note_on_c, 0, 53, 0
4, 57360, Note_on_c, 0, 52, 72
4, 57408, Note_on_c, 0, 52, 0
4, 57408, Note_on_c, 0, 50, 72
4, 57600, Note_on_c, 0, 50, 0
4, 57600, Note_on_c, 0, 50, 72
4, 57696, Note_on_c, 0, 50, 0
4, 57696, Note_on_c, 0, 55, 72
4, 57792, Note_on_c, 0, 55, 0
4, 57792, Note_on_c, 0, 53, 72
4, 57888, Note_on_c, 0, 53, 0
4, 57888, Note_on_c, 0, 50, 72
4, 57984, Note_on_c, 0, 50, 0
4, 57984, Note_on_c, 0, 49, 72
4, 58128, Note_on_c, 0, 49, 0
4, 58128, Note_on_c, 0, 50, 72
4, 58152, Note_on_c, 0, 50, 0
4, 58152, Note_on_c, 0, 52, 72
4, 58176, Note_on_c, 0, 52, 0
4, 58176, Note_on_c, 0, 53, 72
4, 58224, Note_on_c, 0, 53, 0
4, 58224, Note_on_c, 0, 55, 72
4, 58272, Note_on_c, 0, 55, 0
4, 58272, Note_on_c, 0, 53, 72
4, 58320, Note_on_c, 0, 53, 0
4, 58320, Note_on_c, 0, 52, 72
4, 58368, Note_on_c, 0, 52, 0
4, 58368, Note_on_c, 0, 53, 72
4, 58416, Note_on_c, 0, 53, 0
4, 58416, Note_on_c, 0, 55, 72
4, 58464, Note_on_c, 0, 55, 0
4, 58464, Note_on_c, 0, 57, 72
4, 58656, Note_on_c, 0, 57, 0
4, 58656, Note_on_c, 0, 58, 72
4, 58752, Note_on_c, 0, 58, 0
4, 58752, Note_on_c, 0, 57, 72
4, 58848, Note_on_c, 0, 57, 0
4, 58848, Note_on_c, 0, 62, 72
4, 58944, Note_on_c, 0, 62, 0
4, 58944, Note_on_c, 0, 57, 72
4, 58992, Note_on_c, 0, 57, 0
4, 58992, Note_on_c, 0, 55, 72
4, 59040, Note_on_c, 0, 55, 0
4, 59040, Note_on_c, 0, 53, 72
4, 59184, Note_on_c, 0, 53, 0
4, 59184, Note_on_c, 0, 52, 72
4, 59232, Note_on_c, 0, 52, 0
4, 59232, Note_on_c, 0, 50, 72
4, 59280, Note_on_c, 0, 50, 0
4, 59280, Note_on_c, 0, 53, 72
4, 59328, Note_on_c, 0, 53, 0
4, 59328, Note_on_c, 0, 57, 72
4, 59520, Note_on_c, 0, 57, 0
4, 59808, Note_on_c, 0, 57, 72
4, 59904, Note_on_c, 0, 57, 0
4, 59904, Note_on_c, 0, 55, 72
4, 60000, Note_on_c, 0, 55, 0
4, 60000, Note_on_c, 0, 58, 72
4, 60096, Note_on_c, 0, 58, 0
4, 60096, Note_on_c, 0, 55, 72
4, 60192, Note_on_c, 0, 55, 0
4, 60192, Note_on_c, 0, 52, 72
4, 60336, Note_on_c, 0, 52, 0
4, 60336, Note_on_c, 0, 50, 72
4, 60384, Note_on_c, 0, 50, 0
4, 60384, Note_on_c, 0, 52, 72
4, 60432, Note_on_c, 0, 52, 0
4, 60432, Note_on_c, 0, 54, 72
4, 60480, Note_on_c, 0, 54, 0
4, 60480, Note_on_c, 0, 55, 72
4, 60576, Note_on_c, 0, 55, 0
4, 60576, Note_on_c, 0, 50, 72
4, 60672, Note_on_c, 0, 50, 0
4, 61056, Note_on_c, 0, 57, 88
4, 61104, Note_on_c, 0, 57, 0
4, 61104, Note_on_c, 0, 55, 88
4, 61152, Note_on_c, 0, 55, 0
4, 61152, Note_on_c, 0, 53, 88
4, 61200, Note_on_c, 0, 53, 0
4, 61200, Note_on_c, 0, 52, 88
4, 61248, Note_on_c, 0, 52, 0
4, 61248, Note_on_c, 0, 50, 88
4, 61536, Note_on_c, 0, 50, 0
4, 61536, Note_on_c, 0, 52, 88
4, 61632, Note_on_c, 0, 52, 0
4, 61632, Note_on_c, 0, 53, 88
4, 61728, Note_on_c, 0, 53, 0
4, 61728, Note_on_c, 0, 55, 88
4, 61824, Note_on_c, 0, 55, 0
4, 61824, Note_on_c, 0, 57, 88
4, 62112, Note_on_c, 0, 57, 0
4, 62112, Note_on_c, 0, 58, 88
4, 62160, Note_on_c, 0, 58, 0
4, 62160, Note_on_c, 0, 60, 88
4, 62208, Note_on_c, 0, 60, 0
4, 62208, Note_on_c, 0, 58, 88
4, 62400, Note_on_c, 0, 58, 0
4, 62400, Note_on_c, 0, 57, 88
4, 62688, Note_on_c, 0, 57, 0
4, 62688, Note_on_c, 0, 55, 88
4, 62784, Note_on_c, 0, 55, 0
4, 62784, Note_on_c, 0, 53, 88
4, 62880, Note_on_c, 0, 53, 0
4, 62880, Note_on_c, 0, 55, 88
4, 62976, Note_on_c, 0, 55, 0
4, 62976, Note_on_c, 0, 53, 88
4, 63072, Note_on_c, 0, 53, 0
4, 63072, Note_on_c, 0, 52, 88
4, 63168, Note_on_c, 0, 52, 0
4, 63168, Note_on_c, 0, 53, 88
4, 63264, Note_on_c, 0, 53, 0
4, 63264, Note_on_c, 0, 55, 88
4, 63360, Note_on_c, 0, 55, 0
4, 63360, Note_on_c, 0, 57, 88
4, 63456, Note_on_c, 0, 57, 0
4, 63552, Note_on_c, 0, 55, 72
4, 63648, Note_on_c, 0, 55, 0
4, 63792, Note_on_c, 0, 53, 72
4, 63840, Note_on_c, 0, 53, 0
4, 63840, Note_on_c, 0, 52, 72
4, 63888, Note_on_c, 0, 52, 0
4, 63888, Note_on_c, 0, 50, 72
4, 63936, Note_on_c, 0, 50, 0
4, 63936, Note_on_c, 0, 49, 72
4, 64032, Note_on_c, 0, 49, 0
4, 64032, Note_on_c, 0, 50, 72
4, 64128, Note_on_c, 0, 50, 0
4, 64128, Note_on_c, 0, 52, 72
4, 64224, Note_on_c, 0, 52, 0
4, 64224, Note_on_c, 0, 53, 72
4, 64320, Note_on_c, 0, 53, 0
4, 64320, Note_on_c, 0, 55, 72
4, 64512, Note_on_c, 0, 55, 0
4, 64512, Note_on_c, 0, 55, 72
4, 64560, Note_on_c, 0, 55, 0
4, 64560, Note_on_c, 0, 55, 72
4, 64608, Note_on_c, 0, 55, 0
4, 64608, Note_on_c, 0, 54, 72
4, 64656, Note_on_c, 0, 54, 0
4, 64656, Note_on_c, 0, 52, 72
4, 64704, Note_on_c, 0, 52, 0
4, 64704, Note_on_c, 0, 54, 72
4, 65088, Note_on_c, 0, 54, 0
4, 65088, End_track
5, 0, Start_track
5, 0, Note_on_c, 0, 50, 88
5, 192, Note_on_c, 0, 50, 0
5, 192, Note_on_c, 0, 57, 88
5, 576, Note_on_c, 0, 57, 0
5, 576, Note_on_c, 0, 53, 88
5, 768, Note_on_c, 0, 53, 0
5, 768, Note_on_c, 0, 50, 88
5, 1152, Note_on_c, 0, 50, 0
5, 1152, Note_on_c, 0, 49, 88
5, 1344, Note_on_c, 0, 49, 0
5, 1344, Note_on_c, 0, 50, 88
5, 1536, Note_on_c, 0, 50, 0
5, 1536, Note_on_c, 0, 52, 88
5, 1728, Note_on_c, 0, 52, 0
5, 1728, Note_on_c, 0, 53, 88
5, 2016, Note_on_c, 0, 53, 0
5, 2016, Note_on_c, 0, 55, 88
5, 2112, Note_on_c, 0, 55, 0
5, 2112, Note_on_c, 0, 53, 88
5, 2208, Note_on_c, 0, 53, 0
5, 2208, Note_on_c, 0, 52, 88
5, 2304, Note_on_c, 0, 52, 0
5, 2304, Note_on_c, 0, 50, 88
5, 2496, Note_on_c, 0, 50, 0
5, 2592, Note_on_c, 0, 52, 72
5, 2688, Note_on_c, 0, 52, 0
5, 2688, Note_on_c, 0, 53, 72
5, 2784, Note_on_c, 0, 53, 0
5, 2784, Note_on_c, 0, 55, 72
5, 2880, Note_on_c, 0, 55, 0
5, 2880, Note_on_c, 0, 57, 72
5, 3072, Note_on_c, 0, 57, 0
5, 3168, Note_on_c, 0, 59, 72
5, 3264, Note_on_c, 0, 59, 0
5, 3264, Note_on_c, 0, 60, 72
5, 3360, Note_on_c, 0, 60, 0
5, 3360, Note_on_c, 0, 62, 72
5, 3456, Note_on_c, 0, 62, 0
5, 3456, Note_on_c, 0, 64, 72
5, 3552, Note_on_c, 0, 64, 0
5, 3552, Note_on_c, 0, 62, 72
5, 3648, Note_on_c, 0, 62, 0
5, 3648, Note_on_c, 0, 60, 72
5, 3744, Note_on_c, 0, 60, 0
5, 3744, Note_on_c, 0, 59, 72
5, 3840, Note_on_c, 0, 59, 0
5, 3840, Note_on_c, 0, 57, 72
5, 3936, Note_on_c, 0, 57, 0
5, 3936, Note_on_c, 0, 56, 72
5, 4032, Note_on_c, 0, 56, 0
5, 4032, Note_on_c, 0, 57, 72
5, 4128, Note_on_c, 0, 57, 0
5, 4128, Note_on_c, 0, 55, 72
5, 4176, Note_on_c, 0, 55, 0
5, 4176, Note_on_c, 0, 53, 72
5, 4224, Note_on_c, 0, 53, 0
5, 4224, Note_on_c, 0, 53, 72
5, 4248, Note_on_c, 0, 53, 0
5, 4248, Note_on_c, 0, 52, 72
5, 4272, Note_on_c, 0, 52, 0
5, 4272, Note_on_c, 0, 53, 72
5, 4296, Note_on_c, 0, 53, 0
5, 4296, Note_on_c, 0, 52, 72
5, 4320, Note_on_c, 0, 52, 0
5, 4320, Note_on_c, 0, 53, 72
5, 4344, Note_on_c, 0, 53, 0
5, 4344, Note_on_c, 0, 52, 72
5, 4368, Note_on_c, 0, 52, 0
5, 4368, Note_on_c, 0, 53, 72
5, 4392, Note_on_c, 0, 53, 0
5, 4392, Note_on_c, 0, 52, 72
5, 4416, Note_on_c, 0, 52, 0
5, 4416, Note_on_c, 0, 53, 72
5, 4440, Note_on_c, 0, 53, 0
5, 4440, Note_on_c, 0, 52, 72
5, 4464, Note_on_c, 0, 52, 0
5, 4464, Note_on_c, 0, 53, 72
5, 4488, Note_on_c, 0, 53, 0
5, 4488, Note_on_c, 0, 52, 72
5, 4512, Note_on_c, 0, 52, 0
5, 4512, Note_on_c, 0, 50, 72
5, 4560, Note_on_c, 0, 50, 0
5, 4560, Note_on_c, 0, 52, 72
5, 4608, Note_on_c, 0, 52, 0
5, 4608, Note_on_c, 0, 53, 72
5, 4704, Note_on_c, 0, 53, 0
5, 4704, Note_on_c, 0, 52, 72
5, 4752, Note_on_c, 0, 52, 0
5, 4752, Note_on_c, 0, 50, 72
5, 4800, Note_on_c, 0, 50, 0
5, 4800, Note_on_c, 0, 50, 72
5, 4824, Note_on_c, 0, 50, 0
5, 4824, Note_on_c, 0, 49, 72
5, 4848, Note_on_c, 0, 49, 0
5, 4848, Note_on_c, 0, 50, 72
5, 4872, Note_on_c, 0, 50, 0
5, 4872, Note_on_c, 0, 49, 72
5, 4896, Note_on_c, 0, 49, 0
5, 4896, Note_on_c, 0, 50, 72
5, 4920, Note_on_c, 0, 50, 0
5, 4920, Note_on_c, 0, 49, 72
5, 4944, Note_on_c, 0, 49, 0
5, 4944, Note_on_c, 0, 50, 72
5, 4968, Note_on_c, 0, 50, 0
5, 4968, Note_on_c, 0, 49, 72
5, 4992, Note_on_c, 0, 49, 0
5, 4992, Note_on_c, 0, 50, 72
5, 5016, Note_on_c, 0, 50, 0
5, 5016, Note_on_c, 0, 49, 72
5, 5040, Note_on_c, 0, 49, 0
5, 5040, Note_on_c, 0, 50, 72
5, 5064, Note_on_c, 0, 50, 0
5, 5064, Note_on_c, 0, 49, 72
5, 5088, Note_on_c, 0, 49, 0
5, 5088, Note_on_c, 0, 47, 72
5, 5136, Note_on_c, 0, 47, 0
5, 5136, Note_on_c, 0, 49, 72
5, 5184, Note_on_c, 0, 49, 0
5, 5184, Note_on_c, 0, 50, 72
5, 5376, Note_on_c, 0, 50, 0
5, 5472, Note_on_c, 0, 41, 72
5, 5568, Note_on_c, 0, 41, 0
5, 5568, Note_on_c, 0, 43, 72
5, 5664, Note_on_c, 0, 43, 0
5, 5664, Note_on_c, 0, 45, 72
5, 5760, Note_on_c, 0, 45, 0
5, 5760, Note_on_c, 0, 46, 72
5, 5856, Note_on_c, 0, 46, 0
5, 5856, Note_on_c, 0, 45, 72
5, 5952, Note_on_c, 0, 45, 0
5, 5952, Note_on_c, 0, 48, 72
5, 5976, Note_on_c, 0, 48, 0
5, 5976, Note_on_c, 0, 46, 72
5, 6000, Note_on_c, 0, 46, 0
5, 6000, Note_on_c, 0, 48, 72
5, 6024, Note_on_c, 0, 48, 0
5, 6024, Note_on_c, 0, 46, 72
5, 6048, Note_on_c, 0, 46, 0
5, 6048, Note_on_c, 0, 48, 72
5, 6072, Note_on_c, 0, 48, 0
5, 6072, Note_on_c, 0, 46, 72
5, 6096, Note_on_c, 0, 46, 0
5, 6096, Note_on_c, 0, 48, 72
5, 6120, Note_on_c, 0, 48, 0
5, 6120, Note_on_c, 0, 46, 72
5, 6144, Note_on_c, 0, 46, 0
5, 6144, Note_on_c, 0, 48, 72
5, 6168, Note_on_c, 0, 48, 0
5, 6168, Note_on_c, 0, 46, 72
5, 6192, Note_on_c, 0, 46, 0
5, 6192, Note_on_c, 0, 48, 72
5, 6216, Note_on_c, 0, 48, 0
5, 6216, Note_on_c, 0, 46, 72
5, 6240, Note_on_c, 0, 46, 0
5, 6240, Note_on_c, 0, 48, 72
5, 6264, Note_on_c, 0, 48, 0
5, 6264, Note_on_c, 0, 46, 72
5, 6288, Note_on_c, 0, 46, 0
5, 6288, Note_on_c, 0, 48, 72
5, 6312, Note_on_c, 0, 48, 0
5, 6312, Note_on_c, 0, 46, 72
5, 6336, Note_on_c, 0, 46, 0
5, 6336, Note_on_c, 0, 45, 72
5, 6912, Note_on_c, 0, 45, 0
5, 6912, Note_on_c, 0, 45, 72
5, 6960, Note_on_c, 0, 45, 0
5, 6960, Note_on_c, 0, 43, 72
5, 7008, Note_on_c, 0, 43, 0
5, 7008, Note_on_c, 0, 41, 72
5, 7056, Note_on_c, 0, 41, 0
5, 7056, Note_on_c, 0, 43, 72
5, 7104, Note_on_c, 0, 43, 0
5, 7104, Note_on_c, 0, 45, 72
5, 7200, Note_on_c, 0, 45, 0
5, 7200, Note_on_c, 0, 46, 72
5, 7296, Note_on_c, 0, 46, 0
5, 7296, Note_on_c, 0, 45, 72
5, 7392, Note_on_c, 0, 45, 0
5, 7392, Note_on_c, 0, 43, 72
5, 7488, Note_on_c, 0, 43, 0
5, 7488, Note_on_c, 0, 41, 72
5, 7584, Note_on_c, 0, 41, 0
5, 7584, Note_on_c, 0, 40, 72
5, 7680, Note_on_c, 0, 40, 0
5, 7680, Note_on_c, 0, 38, 72
5, 7872, Note_on_c, 0, 38, 0
5, 7968, Note_on_c, 0, 46, 72
5, 8064, Note_on_c, 0, 46, 0
5, 8064, Note_on_c, 0, 45, 72
5, 8112, Note_on_c, 0, 45, 0
5, 8112, Note_on_c, 0, 43, 72
5, 8160, Note_on_c, 0, 43, 0
5, 8160, Note_on_c, 0, 41, 72
5, 8208, Note_on_c, 0, 41, 0
5, 8208, Note_on_c, 0, 40, 72
5, 8256, Note_on_c, 0, 40, 0
5, 8256, Note_on_c, 0, 41, 72
5, 8448, Note_on_c, 0, 41, 0
5, 8544, Note_on_c, 0, 53, 72
5, 8640, Note_on_c, 0, 53, 0
5, 8640, Note_on_c, 0, 52, 72
5, 8688, Note_on_c, 0, 52, 0
5, 8688, Note_on_c, 0, 50, 72
5, 8736, Note_on_c, 0, 50, 0
5, 8736, Note_on_c, 0, 48, 72
5, 8784, Note_on_c, 0, 48, 0
5, 8784, Note_on_c, 0, 47, 72
5, 8832, Note_on_c, 0, 47, 0
5, 8832, Note_on_c, 0, 48, 72
5, 9024, Note_on_c, 0, 48, 0
5, 9120, Note_on_c, 0, 52, 72
5, 9216, Note_on_c, 0, 52, 0
5, 9216, Note_on_c, 0, 45, 72
5, 9264, Note_on_c, 0, 45, 0
5, 9264, Note_on_c, 0, 47, 72
5, 9312, Note_on_c, 0, 47, 0
5, 9312, Note_on_c, 0, 48, 72
5, 9360, Note_on_c, 0, 48, 0
5, 9360, Note_on_c, 0, 50, 72
5, 9408, Note_on_c, 0, 50, 0
5, 9408, Note_on_c, 0, 52, 72
5, 9600, Note_on_c, 0, 52, 0
5, 9600, Note_on_c, 0, 40, 72
5, 9792, Note_on_c, 0, 40, 0
5, 9792, Note_on_c, 0, 41, 72
5, 9840, Note_on_c, 0, 41, 0
5, 9840, Note_on_c, 0, 43, 72
5, 9888, Note_on_c, 0, 43, 0
5, 9888, Note_on_c, 0, 45, 72
5, 9936, Note_on_c, 0, 45, 0
5, 9936, Note_on_c, 0, 46, 72
5, 9984, Note_on_c, 0, 46, 0
5, 9984, Note_on_c, 0, 48, 72
5, 10176, Note_on_c, 0, 48, 0
5, 10176, Note_on_c, 0, 36, 72
5, 10368, Note_on_c, 0, 36, 0
5, 10368, Note_on_c, 0, 38, 72
5, 10416, Note_on_c, 0, 38, 0
5, 10416, Note_on_c, 0, 40, 72
5, 10464, Note_on_c, 0, 40, 0
5, 10464, Note_on_c, 0, 41, 72
5, 10512, Note_on_c, 0, 41, 0
5, 10512, Note_on_c, 0, 43, 72
5, 10560, Note_on_c, 0, 43, 0
5, 10560, Note_on_c, 0, 45, 72
5, 10752, Note_on_c, 0, 45, 0
5, 10848, Note_on_c, 0, 46, 72
5, 10944, Note_on_c, 0, 46, 0
5, 10944, Note_on_c, 0, 45, 72
5, 11040, Note_on_c, 0, 45, 0
5, 11040, Note_on_c, 0, 43, 72
5, 11136, Note_on_c, 0, 43, 0
5, 11136, Note_on_c, 0, 41, 72
5, 11232, Note_on_c, 0, 41, 0
5, 11232, Note_on_c, 0, 40, 72
5, 11328, Note_on_c, 0, 40, 0
5, 11328, Note_on_c, 0, 38, 72
5, 11520, Note_on_c, 0, 38, 0
5, 12480, Note_on_c, 0, 50, 72
5, 12528, Note_on_c, 0, 50, 0
5, 12528, Note_on_c, 0, 52, 72
5, 12576, Note_on_c, 0, 52, 0
5, 12576, Note_on_c, 0, 53, 72
5, 12624, Note_on_c, 0, 53, 0
5, 12624, Note_on_c, 0, 55, 72
5, 12672, Note_on_c, 0, 55, 0
5, 12672, Note_on_c, 0, 57, 72
5, 12720, Note_on_c, 0, 57, 0
5, 12720, Note_on_c, 0, 58, 72
5, 12768, Note_on_c, 0, 58, 0
5, 12768, Note_on_c, 0, 57, 72
5, 12816, Note_on_c, 0, 57, 0
5, 12816, Note_on_c, 0, 55, 72
5, 12864, Note_on_c, 0, 55, 0
5, 12864, Note_on_c, 0, 53, 72
5, 12960, Note_on_c, 0, 53, 0
5, 12960, Note_on_c, 0, 52, 72
5, 13056, Note_on_c, 0, 52, 0
5, 13056, Note_on_c, 0, 50, 72
5, 13152, Note_on_c, 0, 50, 0
5, 13152, Note_on_c, 0, 49, 72
5, 13248, Note_on_c, 0, 49, 0
5, 13248, Note_on_c, 0, 50, 72
5, 13344, Note_on_c, 0, 50, 0
5, 13344, Note_on_c, 0, 48, 72
5, 13392, Note_on_c, 0, 48, 0
5, 13392, Note_on_c, 0, 46, 72
5, 13440, Note_on_c, 0, 46, 0
5, 13440, Note_on_c, 0, 46, 72
5, 13464, Note_on_c, 0, 46, 0
5, 13464, Note_on_c, 0, 45, 72
5, 13488, Note_on_c, 0, 45, 0
5, 13488, Note_on_c, 0, 46, 72
5, 13512, Note_on_c, 0, 46, 0
5, 13512, Note_on_c, 0, 45, 72
5, 13536, Note_on_c, 0, 45, 0
5, 13536, Note_on_c, 0, 46, 72
5, 13560, Note_on_c, 0, 46, 0
5, 13560, Note_on_c, 0, 45, 72
5, 13584, Note_on_c, 0, 45, 0
5, 13584, Note_on_c, 0, 46, 72
5, 13608, Note_on_c, 0, 46, 0
5, 13608, Note_on_c, 0, 45, 72
5, 13632, Note_on_c, 0, 45, 0
5, 13632, Note_on_c, 0, 46, 72
5, 13656, Note_on_c, 0, 46, 0
5, 13656, Note_on_c, 0, 45, 72
5, 13680, Note_on_c, 0, 45, 0
5, 13680, Note_on_c, 0, 46, 72
5, 13704, Note_on_c, 0, 46, 0
5, 13704, Note_on_c, 0, 45, 72
5, 13728, Note_on_c, 0, 45, 0
5, 13728, Note_on_c, 0, 43, 72
5, 13776, Note_on_c, 0, 43, 0
5, 13776, Note_on_c, 0, 45, 72
5, 13824, Note_on_c, 0, 45, 0
5, 13824, Note_on_c, 0, 46, 72
5, 13920, Note_on_c, 0, 46, 0
5, 13920, Note_on_c, 0, 43, 72
5, 14016, Note_on_c, 0, 43, 0
5, 14016, Note_on_c, 0, 50, 72
5, 14208, Note_on_c, 0, 50, 0
5, 14256, Note_on_c, 0, 46, 72
5, 14304, Note_on_c, 0, 46, 0
5, 14304, Note_on_c, 0, 48, 72
5, 14352, Note_on_c, 0, 48, 0
5, 14352, Note_on_c, 0, 50, 72
5, 14400, Note_on_c, 0, 50, 0
5, 14400, Note_on_c, 0, 51, 72
5, 14496, Note_on_c, 0, 51, 0
5, 14496, Note_on_c, 0, 50, 72
5, 14544, Note_on_c, 0, 50, 0
5, 14544, Note_on_c, 0, 48, 72
5, 14592, Note_on_c, 0, 48, 0
5, 14592, Note_on_c, 0, 46, 72
5, 14688, Note_on_c, 0, 46, 0
5, 14688, Note_on_c, 0, 45, 72
5, 14784, Note_on_c, 0, 45, 0
5, 14784, Note_on_c, 0, 43, 72
5, 14880, Note_on_c, 0, 43, 0
5, 14880, Note_on_c, 0, 42, 72
5, 14976, Note_on_c, 0, 42, 0
5, 14976, Note_on_c, 0, 43, 72
5, 15072, Note_on_c, 0, 43, 0
5, 15072, Note_on_c, 0, 45, 72
5, 15168, Note_on_c, 0, 45, 0
5, 15168, Note_on_c, 0, 46, 72
5, 15264, Note_on_c, 0, 46, 0
5, 15264, Note_on_c, 0, 45, 72
5, 15360, Note_on_c, 0, 45, 0
5, 15360, Note_on_c, 0, 46, 72
5, 15456, Note_on_c, 0, 46, 0
5, 15456, Note_on_c, 0, 48, 72
5, 15552, Note_on_c, 0, 48, 0
5, 15552, Note_on_c, 0, 50, 72
5, 15744, Note_on_c, 0, 50, 0
5, 15744, Note_on_c, 0, 51, 72
5, 15936, Note_on_c, 0, 51, 0
5, 15984, Note_on_c, 0, 51, 72
5, 16032, Note_on_c, 0, 51, 0
5, 16032, Note_on_c, 0, 50, 72
5, 16080, Note_on_c, 0, 50, 0
5, 16080, Note_on_c, 0, 48, 72
5, 16128, Note_on_c, 0, 48, 0
5, 16128, Note_on_c, 0, 46, 72
5, 16176, Note_on_c, 0, 46, 0
5, 16176, Note_on_c, 0, 45, 72
5, 16224, Note_on_c, 0, 45, 0
5, 16224, Note_on_c, 0, 43, 72
5, 16272, Note_on_c, 0, 43, 0
5, 16272, Note_on_c, 0, 42, 72
5, 16320, Note_on_c, 0, 42, 0
5, 16320, Note_on_c, 0, 43, 72
5, 16368, Note_on_c, 0, 43, 0
5, 16368, Note_on_c, 0, 38, 72
5, 16416, Note_on_c, 0, 38, 0
5, 16416, Note_on_c, 0, 40, 72
5, 16464, Note_on_c, 0, 40, 0
5, 16464, Note_on_c, 0, 42, 72
5, 16512, Note_on_c, 0, 42, 0
5, 16512, Note_on_c, 0, 43, 72
5, 16560, Note_on_c, 0, 43, 0
5, 16560, Note_on_c, 0, 45, 72
5, 16608, Note_on_c, 0, 45, 0
5, 16608, Note_on_c, 0, 46, 72
5, 16656, Note_on_c, 0, 46, 0
5, 16656, Note_on_c, 0, 48, 72
5, 16704, Note_on_c, 0, 48, 0
5, 16704, Note_on_c, 0, 46, 72
5, 16752, Note_on_c, 0, 46, 0
5, 16752, Note_on_c, 0, 45, 72
5, 16800, Note_on_c, 0, 45, 0
5, 16800, Note_on_c, 0, 43, 72
5, 16848, Note_on_c, 0, 43, 0
5, 16848, Note_on_c, 0, 45, 72
5, 16896, Note_on_c, 0, 45, 0
5, 16896, Note_on_c, 0, 46, 72
5, 17088, Note_on_c, 0, 46, 0
5, 17184, Note_on_c, 0, 47, 72
5, 17280, Note_on_c, 0, 47, 0
5, 17280, Note_on_c, 0, 48, 72
5, 17328, Note_on_c, 0, 48, 0
5, 17328, Note_on_c, 0, 50, 72
5, 17376, Note_on_c, 0, 50, 0
5, 17376, Note_on_c, 0, 51, 72
5, 17424, Note_on_c, 0, 51, 0
5, 17424, Note_on_c, 0, 48, 72
5, 17472, Note_on_c, 0, 48, 0
5, 17472, Note_on_c, 0, 45, 72
5, 17664, Note_on_c, 0, 45, 0
5, 17712, Note_on_c, 0, 50, 72
5, 17760, Note_on_c, 0, 50, 0
5, 17760, Note_on_c, 0, 51, 72
5, 17808, Note_on_c, 0, 51, 0
5, 17808, Note_on_c, 0, 53, 72
5, 17856, Note_on_c, 0, 53, 0
5, 17856, Note_on_c, 0, 55, 72
5, 17952, Note_on_c, 0, 55, 0
5, 17952, Note_on_c, 0, 53, 72
5, 18000, Note_on_c, 0, 53, 0
5, 18000, Note_on_c, 0, 51, 72
5, 18048, Note_on_c, 0, 51, 0
5, 18048, Note_on_c, 0, 50, 72
5, 18144, Note_on_c, 0, 50, 0
5, 18144, Note_on_c, 0, 48, 72
5, 18240, Note_on_c, 0, 48, 0
5, 18240, Note_on_c, 0, 46, 72
5, 18336, Note_on_c, 0, 46, 0
5, 18336, Note_on_c, 0, 45, 72
5, 18432, Note_on_c, 0, 45, 0
5, 18432, Note_on_c, 0, 46, 72
5, 18528, Note_on_c, 0, 46, 0
5, 18528, Note_on_c, 0, 48, 72
5, 18624, Note_on_c, 0, 48, 0
5, 18624, Note_on_c, 0, 50, 72
5, 18720, Note_on_c, 0, 50, 0
5, 18720, Note_on_c, 0, 51, 72
5, 18816, Note_on_c, 0, 51, 0
5, 18816, Note_on_c, 0, 53, 72
5, 19008, Note_on_c, 0, 53, 0
5, 19008, Note_on_c, 0, 53, 72
5, 19056, Note_on_c, 0, 53, 0
5, 19056, Note_on_c, 0, 55, 72
5, 19104, Note_on_c, 0, 55, 0
5, 19104, Note_on_c, 0, 53, 72
5, 19152, Note_on_c, 0, 53, 0
5, 19152, Note_on_c, 0, 51, 72
5, 19200, Note_on_c, 0, 51, 0
5, 19200, Note_on_c, 0, 50, 72
5, 19392, Note_on_c, 0, 50, 0
5, 19392, Note_on_c, 0, 50, 72
5, 19440, Note_on_c, 0, 50, 0
5, 19440, Note_on_c, 0, 51, 72
5, 19488, Note_on_c, 0, 51, 0
5, 19488, Note_on_c, 0, 50, 72
5, 19536, Note_on_c, 0, 50, 0
5, 19536, Note_on_c, 0, 48, 72
5, 19584, Note_on_c, 0, 48, 0
5, 19584, Note_on_c, 0, 46, 72
5, 19680, Note_on_c, 0, 46, 0
5, 19680, Note_on_c, 0, 45, 72
5, 19728, Note_on_c, 0, 45, 0
5, 19728, Note_on_c, 0, 43, 72
5, 19776, Note_on_c, 0, 43, 0
5, 19776, Note_on_c, 0, 43, 72
5, 19800, Note_on_c, 0, 43, 0
5, 19800, Note_on_c, 0, 42, 72
5, 19824, Note_on_c, 0, 42, 0
5, 19824, Note_on_c, 0, 43, 72
5, 19848, Note_on_c, 0, 43, 0
5, 19848, Note_on_c, 0, 42, 72
5, 19872, Note_on_c, 0, 42, 0
5, 19872, Note_on_c, 0, 43, 72
5, 19896, Note_on_c, 0, 43, 0
5, 19896, Note_on_c, 0, 42, 72
5, 19920, Note_on_c, 0, 42, 0
5, 19920, Note_on_c, 0, 43, 72
5, 19944, Note_on_c, 0, 43, 0
5, 19944, Note_on_c, 0, 42, 72
5, 19968, Note_on_c, 0, 42, 0
5, 19968, Note_on_c, 0, 43, 72
5, 19992, Note_on_c, 0, 43, 0
5, 19992, Note_on_c, 0, 42, 72
5, 20016, Note_on_c, 0, 42, 0
5, 20016, Note_on_c, 0, 43, 72
5, 20040, Note_on_c, 0, 43, 0
5, 20040, Note_on_c, 0, 42, 72
5, 20064, Note_on_c, 0, 42, 0
5, 20064, Note_on_c, 0, 40, 72
5, 20112, Note_on_c, 0, 40, 0
5, 20112, Note_on_c, 0, 42, 72
5, 20160, Note_on_c, 0, 42, 0
5, 20160, Note_on_c, 0, 43, 72
5, 20256, Note_on_c, 0, 43, 0
5, 20256, Note_on_c, 0, 39, 72
5, 20352, Note_on_c, 0, 39, 0
5, 20352, Note_on_c, 0, 46, 72
5, 20544, Note_on_c, 0, 46, 0
5, 23616, Note_on_c, 0, 50, 88
5, 23664, Note_on_c, 0, 50, 0
5, 23664, Note_on_c, 0, 52, 88
5, 23712, Note_on_c, 0, 52, 0
5, 23712, Note_on_c, 0, 53, 88
5, 23760, Note_on_c, 0, 53, 0
5, 23760, Note_on_c, 0, 55, 88
5, 23808, Note_on_c, 0, 55, 0
5, 23808, Note_on_c, 0, 57, 88
5, 24000, Note_on_c, 0, 57, 0
5, 24000, Note_on_c, 0, 57, 88
5, 24048, Note_on_c, 0, 57, 0
5, 24048, Note_on_c, 0, 58, 88
5, 24096, Note_on_c, 0, 58, 0
5, 24096, Note_on_c, 0, 57, 88
5, 24144, Note_on_c, 0, 57, 0
5, 24144, Note_on_c, 0, 55, 88
5, 24192, Note_on_c, 0, 55, 0
5, 24192, Note_on_c, 0, 53, 88
5, 24288, Note_on_c, 0, 53, 0
5, 24288, Note_on_c, 0, 52, 88
5, 24384, Note_on_c, 0, 52, 0
5, 24384, Note_on_c, 0, 50, 88
5, 24672, Note_on_c, 0, 50, 0
5, 24672, Note_on_c, 0, 49, 88
5, 24720, Note_on_c, 0, 49, 0
5, 24720, Note_on_c, 0, 47, 88
5, 24768, Note_on_c, 0, 47, 0
5, 24768, Note_on_c, 0, 49, 88
5, 24960, Note_on_c, 0, 49, 0
5, 24960, Note_on_c, 0, 50, 88
5, 25248, Note_on_c, 0, 50, 0
5, 25248, Note_on_c, 0, 52, 88
5, 25344, Note_on_c, 0, 52, 0
5, 25344, Note_on_c, 0, 53, 88
5, 25632, Note_on_c, 0, 53, 0
5, 25632, Note_on_c, 0, 55, 88
5, 25728, Note_on_c, 0, 55, 0
5, 25728, Note_on_c, 0, 53, 88
5, 25824, Note_on_c, 0, 53, 0
5, 25824, Note_on_c, 0, 52, 88
5, 25920, Note_on_c, 0, 52, 0
5, 25920, Note_on_c, 0, 50, 88
5, 26112, Note_on_c, 0, 50, 0
5, 26112, Note_on_c, 0, 50, 72
5, 26160, Note_on_c, 0, 50, 0
5, 26160, Note_on_c, 0, 49, 72
5, 26208, Note_on_c, 0, 49, 0
5, 26208, Note_on_c, 0, 50, 72
5, 26256, Note_on_c, 0, 50, 0
5, 26256, Note_on_c, 0, 52, 72
5, 26304, Note_on_c, 0, 52, 0
5, 26304, Note_on_c, 0, 53, 72
5, 26400, Note_on_c, 0, 53, 0
5, 26400, Note_on_c, 0, 50, 72
5, 26496, Note_on_c, 0, 50, 0
5, 26496, Note_on_c, 0, 55, 72
5, 26688, Note_on_c, 0, 55, 0
5, 26688, Note_on_c, 0, 55, 72
5, 26736, Note_on_c, 0, 55, 0
5, 26736, Note_on_c, 0, 54, 72
5, 26784, Note_on_c, 0, 54, 0
5, 26784, Note_on_c, 0, 55, 72
5, 26832, Note_on_c, 0, 55, 0
5, 26832, Note_on_c, 0, 57, 72
5, 26880, Note_on_c, 0, 57, 0
5, 26880, Note_on_c, 0, 55, 72
5, 26976, Note_on_c, 0, 55, 0
5, 26976, Note_on_c, 0, 53, 72
5, 27072, Note_on_c, 0, 53, 0
5, 27072, Note_on_c, 0, 52, 72
5, 27264, Note_on_c, 0, 52, 0
5, 27264, Note_on_c, 0, 52, 72
5, 27312, Note_on_c, 0, 52, 0
5, 27312, Note_on_c, 0, 50, 72
5, 27360, Note_on_c, 0, 50, 0
5, 27360, Note_on_c, 0, 52, 72
5, 27408, Note_on_c, 0, 52, 0
5, 27408, Note_on_c, 0, 53, 72
5, 27456, Note_on_c, 0, 53, 0
5, 27456, Note_on_c, 0, 55, 72
5, 27552, Note_on_c, 0, 55, 0
5, 27552, Note_on_c, 0, 52, 72
5, 27648, Note_on_c, 0, 52, 0
5, 27648, Note_on_c, 0, 57, 72
5, 27840, Note_on_c, 0, 57, 0
5, 27840, Note_on_c, 0, 57, 72
5, 27888, Note_on_c, 0, 57, 0
5, 27888, Note_on_c, 0, 55, 72
5, 27936, Note_on_c, 0, 55, 0
5, 27936, Note_on_c, 0, 57, 72
5, 27984, Note_on_c, 0, 57, 0
5, 27984, Note_on_c, 0, 58, 72
5, 28032, Note_on_c, 0, 58, 0
5, 28032, Note_on_c, 0, 57, 72
5, 28128, Note_on_c, 0, 57, 0
5, 28128, Note_on_c, 0, 52, 72
5, 28224, Note_on_c, 0, 52, 0
5, 28224, Note_on_c, 0, 53, 72
5, 28512, Note_on_c, 0, 53, 0
5, 28512, Note_on_c, 0, 52, 72
5, 28560, Note_on_c, 0, 52, 0
5, 28560, Note_on_c, 0, 50, 72
5, 28608, Note_on_c, 0, 50, 0
5, 28608, Note_on_c, 0, 49, 72
5, 28656, Note_on_c, 0, 49, 0
5, 28656, Note_on_c, 0, 45, 72
5, 28704, Note_on_c, 0, 45, 0
5, 28704, Note_on_c, 0, 47, 72
5, 28752, Note_on_c, 0, 47, 0
5, 28752, Note_on_c, 0, 49, 72
5, 28800, Note_on_c, 0, 49, 0
5, 28800, Note_on_c, 0, 50, 72
5, 28848, Note_on_c, 0, 50, 0
5, 28848, Note_on_c, 0, 49, 72
5, 28896, Note_on_c, 0, 49, 0
5, 28896, Note_on_c, 0, 50, 72
5, 28944, Note_on_c, 0, 50, 0
5, 28944, Note_on_c, 0, 52, 72
5, 28992, Note_on_c, 0, 52, 0
5, 28992, Note_on_c, 0, 53, 72
5, 29184, Note_on_c, 0, 53, 0
5, 29184, Note_on_c, 0, 53, 72
5, 29232, Note_on_c, 0, 53, 0
5, 29232, Note_on_c, 0, 52, 72
5, 29280, Note_on_c, 0, 52, 0
5, 29280, Note_on_c, 0, 53, 72
5, 29328, Note_on_c, 0, 53, 0
5, 29328, Note_on_c, 0, 55, 72
5, 29376, Note_on_c, 0, 55, 0
5, 29376, Note_on_c, 0, 57, 72
5, 29472, Note_on_c, 0, 57, 0
5, 29568, Note_on_c, 0, 38, 72
5, 29616, Note_on_c, 0, 38, 0
5, 29616, Note_on_c, 0, 40, 72
5, 29664, Note_on_c, 0, 40, 0
5, 29664, Note_on_c, 0, 41, 72
5, 29712, Note_on_c, 0, 41, 0
5, 29712, Note_on_c, 0, 43, 72
5, 29760, Note_on_c, 0, 43, 0
5, 29760, Note_on_c, 0, 45, 72
5, 29952, Note_on_c, 0, 45, 0
5, 29952, Note_on_c, 0, 45, 72
5, 30048, Note_on_c, 0, 45, 0
5, 30048, Note_on_c, 0, 43, 72
5, 30144, Note_on_c, 0, 43, 0
5, 30144, Note_on_c, 0, 41, 72
5, 30240, Note_on_c, 0, 41, 0
5, 30240, Note_on_c, 0, 40, 72
5, 30336, Note_on_c, 0, 40, 0
5, 30336, Note_on_c, 0, 41, 72
5, 30384, Note_on_c, 0, 41, 0
5, 30384, Note_on_c, 0, 45, 72
5, 30432, Note_on_c, 0, 45, 0
5, 30432, Note_on_c, 0, 47, 72
5, 30480, Note_on_c, 0, 47, 0
5, 30480, Note_on_c, 0, 49, 72
5, 30528, Note_on_c, 0, 49, 0
5, 30528, Note_on_c, 0, 50, 72
5, 31104, Note_on_c, 0, 50, 0
5, 31104, Note_on_c, 0, 50, 72
5, 31680, Note_on_c, 0, 50, 0
5, 31680, Note_on_c, 0, 50, 72
5, 31872, Note_on_c, 0, 50, 0
5, 31872, Note_on_c, 0, 50, 88
5, 31920, Note_on_c, 0, 50, 0
5, 31920, Note_on_c, 0, 45, 88
5, 31944, Note_on_c, 0, 45, 0
5, 31944, Note_on_c, 0, 43, 88
5, 31968, Note_on_c, 0, 43, 0
5, 31968, Note_on_c, 0, 42, 88
5, 31992, Note_on_c, 0, 42, 0
5, 31992, Note_on_c, 0, 43, 88
5, 32016, Note_on_c, 0, 43, 0
5, 32016, Note_on_c, 0, 45, 88
5, 32064, Note_on_c, 0, 45, 0
5, 32064, Note_on_c, 0, 38, 88
5, 32256, Note_on_c, 0, 38, 0
5, 40320, Note_on_c, 0, 50, 88
5, 40512, Note_on_c, 0, 50, 0
5, 40512, Note_on_c, 0, 45, 88
5, 40896, Note_on_c, 0, 45, 0
5, 40896, Note_on_c, 0, 46, 88
5, 41088, Note_on_c, 0, 46, 0
5, 41088, Note_on_c, 0, 50, 88
5, 41472, Note_on_c, 0, 50, 0
5, 41472, Note_on_c, 0, 51, 88
5, 41664, Note_on_c, 0, 51, 0
5, 41664, Note_on_c, 0, 50, 88
5, 41856, Note_on_c, 0, 50, 0
5, 41856, Note_on_c, 0, 48, 88
5, 42048, Note_on_c, 0, 48, 0
5, 42048, Note_on_c, 0, 46, 88
5, 42336, Note_on_c, 0, 46, 0
5, 42336, Note_on_c, 0, 45, 88
5, 42432, Note_on_c, 0, 45, 0
5, 42432, Note_on_c, 0, 47, 88
5, 42528, Note_on_c, 0, 47, 0
5, 42528, Note_on_c, 0, 49, 88
5, 42624, Note_on_c, 0, 49, 0
5, 42624, Note_on_c, 0, 50, 88
5, 42912, Note_on_c, 0, 50, 0
5, 42912, Note_on_c, 0, 49, 72
5, 43008, Note_on_c, 0, 49, 0
5, 43008, Note_on_c, 0, 50, 72
5, 43104, Note_on_c, 0, 50, 0
5, 43104, Note_on_c, 0, 52, 72
5, 43200, Note_on_c, 0, 52, 0
5, 43200, Note_on_c, 0, 53, 72
5, 43488, Note_on_c, 0, 53, 0
5, 43488, Note_on_c, 0, 52, 72
5, 43584, Note_on_c, 0, 52, 0
5, 43584, Note_on_c, 0, 53, 72
5, 43680, Note_on_c, 0, 53, 0
5, 43680, Note_on_c, 0, 55, 72
5, 43776, Note_on_c, 0, 55, 0
5, 43776, Note_on_c, 0, 53, 72
5, 43872, Note_on_c, 0, 53, 0
5, 43872, Note_on_c, 0, 52, 72
5, 43968, Note_on_c, 0, 52, 0
5, 43968, Note_on_c, 0, 50, 72
5, 44256, Note_on_c, 0, 50, 0
5, 44256, Note_on_c, 0, 48, 72
5, 44304, Note_on_c, 0, 48, 0
5, 44304, Note_on_c, 0, 46, 72
5, 44352, Note_on_c, 0, 46, 0
5, 44352, Note_on_c, 0, 45, 88
5, 44400, Note_on_c, 0, 45, 0
5, 44400, Note_on_c, 0, 43, 88
5, 44448, Note_on_c, 0, 43, 0
5, 44448, Note_on_c, 0, 41, 88
5, 44496, Note_on_c, 0, 41, 0
5, 44496, Note_on_c, 0, 40, 88
5, 44544, Note_on_c, 0, 40, 0
5, 44544, Note_on_c, 0, 38, 88
5, 44736, Note_on_c, 0, 38, 0
5, 44736, Note_on_c, 0, 38, 88
5, 44784, Note_on_c, 0, 38, 0
5, 44784, Note_on_c, 0, 37, 88
5, 44832, Note_on_c, 0, 37, 0
5, 44832, Note_on_c, 0, 38, 88
5, 44880, Note_on_c, 0, 38, 0
5, 44880, Note_on_c, 0, 40, 88
5, 44928, Note_on_c, 0, 40, 0
5, 44928, Note_on_c, 0, 41, 88
5, 45024, Note_on_c, 0, 41, 0
5, 45024, Note_on_c, 0, 43, 88
5, 45120, Note_on_c, 0, 43, 0
5, 45120, Note_on_c, 0, 45, 88
5, 45408, Note_on_c, 0, 45, 0
5, 45408, Note_on_c, 0, 46, 88
5, 45456, Note_on_c, 0, 46, 0
5, 45456, Note_on_c, 0, 48, 88
5, 45504, Note_on_c, 0, 48, 0
5, 45504, Note_on_c, 0, 46, 88
5, 45696, Note_on_c, 0, 46, 0
5, 45696, Note_on_c, 0, 45, 88
5, 45984, Note_on_c, 0, 45, 0
5, 45984, Note_on_c, 0, 43, 88
5, 46080, Note_on_c, 0, 43, 0
5, 46080, Note_on_c, 0, 41, 88
5, 46368, Note_on_c, 0, 41, 0
5, 46368, Note_on_c, 0, 40, 88
5, 46464, Note_on_c, 0, 40, 0
5, 46464, Note_on_c, 0, 41, 88
5, 46560, Note_on_c, 0, 41, 0
5, 46560, Note_on_c, 0, 43, 88
5, 46656, Note_on_c, 0, 43, 0
5, 46656, Note_on_c, 0, 45, 88
5, 47040, Note_on_c, 0, 45, 0
5, 47088, Note_on_c, 0, 45, 72
5, 47136, Note_on_c, 0, 45, 0
5, 47136, Note_on_c, 0, 43, 72
5, 47184, Note_on_c, 0, 43, 0
5, 47184, Note_on_c, 0, 41, 72
5, 47232, Note_on_c, 0, 41, 0
5, 47232, Note_on_c, 0, 40, 72
5, 47280, Note_on_c, 0, 40, 0
5, 47280, Note_on_c, 0, 41, 72
5, 47328, Note_on_c, 0, 41, 0
5, 47328, Note_on_c, 0, 40, 72
5, 47376, Note_on_c, 0, 40, 0
5, 47376, Note_on_c, 0, 38, 72
5, 47424, Note_on_c, 0, 38, 0
5, 47424, Note_on_c, 0, 36, 72
5, 47616, Note_on_c, 0, 36, 0
5, 48192, Note_on_c, 0, 45, 72
5, 48384, Note_on_c, 0, 45, 0
5, 48384, Note_on_c, 0, 45, 72
5, 48480, Note_on_c, 0, 45, 0
5, 48480, Note_on_c, 0, 47, 72
5, 48576, Note_on_c, 0, 47, 0
5, 48576, Note_on_c, 0, 48, 72
5, 48672, Note_on_c, 0, 48, 0
5, 48672, Note_on_c, 0, 50, 72
5, 48768, Note_on_c, 0, 50, 0
5, 48768, Note_on_c, 0, 52, 72
5, 48864, Note_on_c, 0, 52, 0
5, 48864, Note_on_c, 0, 53, 72
5, 48960, Note_on_c, 0, 53, 0
5, 48960, Note_on_c, 0, 52, 72
5, 49056, Note_on_c, 0, 52, 0
5, 49056, Note_on_c, 0, 56, 72
5, 49152, Note_on_c, 0, 56, 0
5, 49152, Note_on_c, 0, 57, 72
5, 49536, Note_on_c, 0, 57, 0
5, 49536, Note_on_c, 0, 57, 72
5, 49632, Note_on_c, 0, 57, 0
5, 49632, Note_on_c, 0, 55, 72
5, 49680, Note_on_c, 0, 55, 0
5, 49680, Note_on_c, 0, 53, 72
5, 49728, Note_on_c, 0, 53, 0
5, 49728, Note_on_c, 0, 52, 72
5, 49824, Note_on_c, 0, 52, 0
5, 49824, Note_on_c, 0, 54, 72
5, 49920, Note_on_c, 0, 54, 0
5, 49920, Note_on_c, 0, 55, 72
5, 50016, Note_on_c, 0, 55, 0
5, 50016, Note_on_c, 0, 57, 72
5, 50112, Note_on_c, 0, 57, 0
5, 50112, Note_on_c, 0, 58, 72
5, 50304, Note_on_c, 0, 58, 0
5, 50304, Note_on_c, 0, 58, 72
5, 50352, Note_on_c, 0, 58, 0
5, 50352, Note_on_c, 0, 57, 72
5, 50400, Note_on_c, 0, 57, 0
5, 50400, Note_on_c, 0, 55, 72
5, 50448, Note_on_c, 0, 55, 0
5, 50448, Note_on_c, 0, 58, 72
5, 50496, Note_on_c, 0, 58, 0
5, 50496, Note_on_c, 0, 57, 72
5, 50544, Note_on_c, 0, 57, 0
5, 50544, Note_on_c, 0, 60, 72
5, 50592, Note_on_c, 0, 60, 0
5, 50592, Note_on_c, 0, 58, 72
5, 50640, Note_on_c, 0, 58, 0
5, 50640, Note_on_c, 0, 62, 72
5, 50688, Note_on_c, 0, 62, 0
5, 50688, Note_on_c, 0, 60, 72
5, 50880, Note_on_c, 0, 60, 0
5, 50880, Note_on_c, 0, 60, 72
5, 50928, Note_on_c, 0, 60, 0
5, 50928, Note_on_c, 0, 58, 72
5, 50976, Note_on_c, 0, 58, 0
5, 50976, Note_on_c, 0, 57, 72
5, 51024, Note_on_c, 0, 57, 0
5, 51024, Note_on_c, 0, 55, 72
5, 51072, Note_on_c, 0, 55, 0
5, 51072, Note_on_c, 0, 53, 72
5, 51264, Note_on_c, 0, 53, 0
5, 51264, Note_on_c, 0, 53, 72
5, 51456, Note_on_c, 0, 53, 0
5, 51456, Note_on_c, 0, 41, 72
5, 51504, Note_on_c, 0, 41, 0
5, 51504, Note_on_c, 0, 43, 72
5, 51552, Note_on_c, 0, 43, 0
5, 51552, Note_on_c, 0, 45, 72
5, 51600, Note_on_c, 0, 45, 0
5, 51600, Note_on_c, 0, 46, 72
5, 51648, Note_on_c, 0, 46, 0
5, 51648, Note_on_c, 0, 45, 72
5, 51744, Note_on_c, 0, 45, 0
5, 51744, Note_on_c, 0, 41, 72
5, 51840, Note_on_c, 0, 41, 0
5, 51840, Note_on_c, 0, 46, 72
5, 51888, Note_on_c, 0, 46, 0
5, 51888, Note_on_c, 0, 48, 72
5, 51936, Note_on_c, 0, 48, 0
5, 51936, Note_on_c, 0, 50, 72
5, 51984, Note_on_c, 0, 50, 0
5, 51984, Note_on_c, 0, 52, 72
5, 52032, Note_on_c, 0, 52, 0
5, 52032, Note_on_c, 0, 53, 72
5, 52224, Note_on_c, 0, 53, 0
5, 52224, Note_on_c, 0, 53, 72
5, 52272, Note_on_c, 0, 53, 0
5, 52272, Note_on_c, 0, 52, 72
5, 52320, Note_on_c, 0, 52, 0
5, 52320, Note_on_c, 0, 53, 72
5, 52368, Note_on_c, 0, 53, 0
5, 52368, Note_on_c, 0, 55, 72
5, 52416, Note_on_c, 0, 55, 0
5, 52416, Note_on_c, 0, 57, 72
5, 52464, Note_on_c, 0, 57, 0
5, 52464, Note_on_c, 0, 55, 72
5, 52512, Note_on_c, 0, 55, 0
5, 52512, Note_on_c, 0, 53, 72
5, 52560, Note_on_c, 0, 53, 0
5, 52560, Note_on_c, 0, 52, 72
5, 52608, Note_on_c, 0, 52, 0
5, 52608, Note_on_c, 0, 50, 72
5, 52992, Note_on_c, 0, 50, 0
5, 52992, Note_on_c, 0, 48, 72
5, 53040, Note_on_c, 0, 48, 0
5, 53040, Note_on_c, 0, 50, 72
5, 53088, Note_on_c, 0, 50, 0
5, 53088, Note_on_c, 0, 48, 72
5, 53136, Note_on_c, 0, 48, 0
5, 53136, Note_on_c, 0, 46, 72
5, 53184, Note_on_c, 0, 46, 0
5, 53184, Note_on_c, 0, 45, 72
5, 53232, Note_on_c, 0, 45, 0
5, 53232, Note_on_c, 0, 46, 72
5, 53280, Note_on_c, 0, 46, 0
5, 53280, Note_on_c, 0, 45, 72
5, 53328, Note_on_c, 0, 45, 0
5, 53328, Note_on_c, 0, 43, 72
5, 53376, Note_on_c, 0, 43, 0
5, 53376, Note_on_c, 0, 41, 72
5, 53424, Note_on_c, 0, 41, 0
5, 53424, Note_on_c, 0, 43, 72
5, 53472, Note_on_c, 0, 43, 0
5, 53472, Note_on_c, 0, 45, 72
5, 53520, Note_on_c, 0, 45, 0
5, 53520, Note_on_c, 0, 46, 72
5, 53568, Note_on_c, 0, 46, 0
5, 53568, Note_on_c, 0, 48, 72
5, 53616, Note_on_c, 0, 48, 0
5, 53616, Note_on_c, 0, 50, 72
5, 53664, Note_on_c, 0, 50, 0
5, 53664, Note_on_c, 0, 52, 72
5, 53712, Note_on_c, 0, 52, 0
5, 53712, Note_on_c, 0, 50, 72
5, 53760, Note_on_c, 0, 50, 0
5, 53760, Note_on_c, 0, 48, 72
5, 53856, Note_on_c, 0, 48, 0
5, 53856, Note_on_c, 0, 48, 72
5, 54048, Note_on_c, 0, 48, 0
5, 54048, Note_on_c, 0, 46, 72
5, 54096, Note_on_c, 0, 46, 0
5, 54096, Note_on_c, 0, 45, 72
5, 54144, Note_on_c, 0, 45, 0
5, 54144, Note_on_c, 0, 43, 72
5, 54720, Note_on_c, 0, 43, 0
5, 54720, Note_on_c, 0, 43, 72
5, 54816, Note_on_c, 0, 43, 0
5, 54816, Note_on_c, 0, 41, 72
5, 54864, Note_on_c, 0, 41, 0
5, 54864, Note_on_c, 0, 40, 72
5, 54912, Note_on_c, 0, 40, 0
5, 54912, Note_on_c, 0, 41, 72
5, 55008, Note_on_c, 0, 41, 0
5, 55008, Note_on_c, 0, 43, 72
5, 55104, Note_on_c, 0, 43, 0
5, 55104, Note_on_c, 0, 45, 72
5, 55296, Note_on_c, 0, 45, 0
5, 55296, Note_on_c, 0, 45, 72
5, 55680, Note_on_c, 0, 45, 0
5, 55680, Note_on_c, 0, 45, 72
5, 55776, Note_on_c, 0, 45, 0
5, 55776, Note_on_c, 0, 43, 72
5, 55824, Note_on_c, 0, 43, 0
5, 55824, Note_on_c, 0, 41, 72
5, 55872, Note_on_c, 0, 41, 0
5, 55872, Note_on_c, 0, 43, 72
5, 55920, Note_on_c, 0, 43, 0
5, 55920, Note_on_c, 0, 45, 72
5, 55968, Note_on_c, 0, 45, 0
5, 55968, Note_on_c, 0, 46, 72
5, 56016, Note_on_c, 0, 46, 0
5, 56016, Note_on_c, 0, 45, 72
5, 56064, Note_on_c, 0, 45, 0
5, 56064, Note_on_c, 0, 46, 72
5, 56160, Note_on_c, 0, 46, 0
5, 56160, Note_on_c, 0, 45, 72
5, 56256, Note_on_c, 0, 45, 0
5, 56256, Note_on_c, 0, 43, 72
5, 56448, Note_on_c, 0, 43, 0
5, 56448, Note_on_c, 0, 50, 72
5, 56544, Note_on_c, 0, 50, 0
5, 56544, Note_on_c, 0, 38, 72
5, 56736, Note_on_c, 0, 38, 0
5, 56736, Note_on_c, 0, 40, 72
5, 56784, Note_on_c, 0, 40, 0
5, 56784, Note_on_c, 0, 41, 72
5, 56832, Note_on_c, 0, 41, 0
5, 56832, Note_on_c, 0, 43, 72
5, 56880, Note_on_c, 0, 43, 0
5, 56880, Note_on_c, 0, 40, 72
5, 56928, Note_on_c, 0, 40, 0
5, 56928, Note_on_c, 0, 41, 72
5, 56976, Note_on_c, 0, 41, 0
5, 56976, Note_on_c, 0, 43, 72
5, 57024, Note_on_c, 0, 43, 0
5, 57024, Note_on_c, 0, 45, 72
5, 57072, Note_on_c, 0, 45, 0
5, 57072, Note_on_c, 0, 46, 72
5, 57120, Note_on_c, 0, 46, 0
5, 57120, Note_on_c, 0, 45, 72
5, 57168, Note_on_c, 0, 45, 0
5, 57168, Note_on_c, 0, 43, 72
5, 57216, Note_on_c, 0, 43, 0
5, 57216, Note_on_c, 0, 41, 72
5, 57408, Note_on_c, 0, 41, 0
5, 57408, Note_on_c, 0, 41, 72
5, 57456, Note_on_c, 0, 41, 0
5, 57456, Note_on_c, 0, 43, 72
5, 57504, Note_on_c, 0, 43, 0
5, 57504, Note_on_c, 0, 41, 72
5, 57552, Note_on_c, 0, 41, 0
5, 57552, Note_on_c, 0, 40, 72
5, 57600, Note_on_c, 0, 40, 0
5, 57600, Note_on_c, 0, 38, 72
5, 57648, Note_on_c, 0, 38, 0
5, 57648, Note_on_c, 0, 40, 72
5, 57696, Note_on_c, 0, 40, 0
5, 57696, Note_on_c, 0, 38, 72
5, 57744, Note_on_c, 0, 38, 0
5, 57744, Note_on_c, 0, 37, 72
5, 57792, Note_on_c, 0, 37, 0
5, 57792, Note_on_c, 0, 38, 72
5, 57840, Note_on_c, 0, 38, 0
5, 57840, Note_on_c, 0, 40, 72
5, 57888, Note_on_c, 0, 40, 0
5, 57888, Note_on_c, 0, 41, 72
5, 57936, Note_on_c, 0, 41, 0
5, 57936, Note_on_c, 0, 43, 72
5, 57984, Note_on_c, 0, 43, 0
5, 57984, Note_on_c, 0, 45, 72
5, 58176, Note_on_c, 0, 45, 0
5, 58176, Note_on_c, 0, 45, 72
5, 58224, Note_on_c, 0, 45, 0
5, 58224, Note_on_c, 0, 46, 72
5, 58272, Note_on_c, 0, 46, 0
5, 58272, Note_on_c, 0, 45, 72
5, 58320, Note_on_c, 0, 45, 0
5, 58320, Note_on_c, 0, 43, 72
5, 58368, Note_on_c, 0, 43, 0
5, 58368, Note_on_c, 0, 45, 72
5, 58416, Note_on_c, 0, 45, 0
5, 58416, Note_on_c, 0, 46, 72
5, 58464, Note_on_c, 0, 46, 0
5, 58464, Note_on_c, 0, 48, 72
5, 58512, Note_on_c, 0, 48, 0
5, 58512, Note_on_c, 0, 50, 72
5, 58560, Note_on_c, 0, 50, 0
5, 58560, Note_on_c, 0, 48, 72
5, 58608, Note_on_c, 0, 48, 0
5, 58608, Note_on_c, 0, 46, 72
5, 58656, Note_on_c, 0, 46, 0
5, 58656, Note_on_c, 0, 45, 72
5, 58704, Note_on_c, 0, 45, 0
5, 58704, Note_on_c, 0, 43, 72
5, 58752, Note_on_c, 0, 43, 0
5, 58752, Note_on_c, 0, 41, 72
5, 58800, Note_on_c, 0, 41, 0
5, 58800, Note_on_c, 0, 43, 72
5, 58848, Note_on_c, 0, 43, 0
5, 58848, Note_on_c, 0, 41, 72
5, 58896, Note_on_c, 0, 41, 0
5, 58896, Note_on_c, 0, 40, 72
5, 58944, Note_on_c, 0, 40, 0
5, 58944, Note_on_c, 0, 41, 72
5, 58992, Note_on_c, 0, 41, 0
5, 58992, Note_on_c, 0, 43, 72
5, 59040, Note_on_c, 0, 43, 0
5, 59040, Note_on_c, 0, 45, 72
5, 59088, Note_on_c, 0, 45, 0
5, 59088, Note_on_c, 0, 46, 72
5, 59136, Note_on_c, 0, 46, 0
5, 59136, Note_on_c, 0, 45, 72
5, 59184, Note_on_c, 0, 45, 0
5, 59184, Note_on_c, 0, 43, 72
5, 59232, Note_on_c, 0, 43, 0
5, 59232, Note_on_c, 0, 41, 72
5, 59280, Note_on_c, 0, 41, 0
5, 59280, Note_on_c, 0, 45, 72
5, 59328, Note_on_c, 0, 45, 0
5, 59328, Note_on_c, 0, 48, 72
5, 59376, Note_on_c, 0, 48, 0
5, 59376, Note_on_c, 0, 50, 72
5, 59424, Note_on_c, 0, 50, 0
5, 59424, Note_on_c, 0, 48, 72
5, 59472, Note_on_c, 0, 48, 0
5, 59472, Note_on_c, 0, 47, 72
5, 59520, Note_on_c, 0, 47, 0
5, 59520, Note_on_c, 0, 48, 72
5, 59616, Note_on_c, 0, 48, 0
5, 59616, Note_on_c, 0, 45, 72
5, 59712, Note_on_c, 0, 45, 0
5, 59712, Note_on_c, 0, 48, 72
5, 59808, Note_on_c, 0, 48, 0
5, 59808, Note_on_c, 0, 45, 72
5, 59904, Note_on_c, 0, 45, 0
5, 59904, Note_on_c, 0, 40, 72
5, 59952, Note_on_c, 0, 40, 0
5, 59952, Note_on_c, 0, 41, 72
5, 60000, Note_on_c, 0, 41, 0
5, 60000, Note_on_c, 0, 40, 72
5, 60048, Note_on_c, 0, 40, 0
5, 60048, Note_on_c, 0, 38, 72
5, 60096, Note_on_c, 0, 38, 0
5, 60096, Note_on_c, 0, 40, 72
5, 60144, Note_on_c, 0, 40, 0
5, 60144, Note_on_c, 0, 41, 72
5, 60192, Note_on_c, 0, 41, 0
5, 60192, Note_on_c, 0, 43, 72
5, 60336, Note_on_c, 0, 43, 0
5, 60336, Note_on_c, 0, 42, 72
5, 60384, Note_on_c, 0, 42, 0
5, 60384, Note_on_c, 0, 43, 72
5, 60432, Note_on_c, 0, 43, 0
5, 60432, Note_on_c, 0, 45, 72
5, 60480, Note_on_c, 0, 45, 0
5, 60480, Note_on_c, 0, 46, 72
5, 60528, Note_on_c, 0, 46, 0
5, 60528, Note_on_c, 0, 48, 72
5, 60576, Note_on_c, 0, 48, 0
5, 60576, Note_on_c, 0, 46, 72
5, 60624, Note_on_c, 0, 46, 0
5, 60624, Note_on_c, 0, 45, 72
5, 60672, Note_on_c, 0, 45, 0
5, 60672, Note_on_c, 0, 46, 72
5, 60720, Note_on_c, 0, 46, 0
5, 60720, Note_on_c, 0, 43, 72
5, 60768, Note_on_c, 0, 43, 0
5, 60768, Note_on_c, 0, 55, 72
5, 60912, Note_on_c, 0, 55, 0
5, 60912, Note_on_c, 0, 53, 72
5, 60960, Note_on_c, 0, 53, 0
5, 60960, Note_on_c, 0, 52, 72
5, 61008, Note_on_c, 0, 52, 0
5, 61008, Note_on_c, 0, 50, 72
5, 61032, Note_on_c, 0, 50, 0
5, 61032, Note_on_c, 0, 49, 72
5, 61056, Note_on_c, 0, 49, 0
5, 61056, Note_on_c, 0, 50, 72
5, 61632, Note_on_c, 0, 50, 0
5, 61632, Note_on_c, 0, 50, 72
5, 62208, Note_on_c, 0, 50, 0
5, 62208, Note_on_c, 0, 50, 72
5, 62784, Note_on_c, 0, 50, 0
5, 62784, Note_on_c, 0, 50, 72
5, 63360, Note_on_c, 0, 50, 0
5, 63360, Note_on_c, 0, 50, 72
5, 63456, Note_on_c, 0, 50, 0
5, 63456, Note_on_c, 0, 52, 72
5, 63504, Note_on_c, 0, 52, 0
5, 63504, Note_on_c, 0, 53, 72
5, 63552, Note_on_c, 0, 53, 0
5, 63552, Note_on_c, 0, 52, 72
5, 63600, Note_on_c, 0, 52, 0
5, 63600, Note_on_c, 0, 50, 72
5, 63648, Note_on_c, 0, 50, 0
5, 63648, Note_on_c, 0, 49, 72
5, 63696, Note_on_c, 0, 49, 0
5, 63696, Note_on_c, 0, 47, 72
5, 63744, Note_on_c, 0, 47, 0
5, 63744, Note_on_c, 0, 45, 72
5, 63936, Note_on_c, 0, 45, 0
5, 63936, Note_on_c, 0, 45, 72
5, 64032, Note_on_c, 0, 45, 0
5, 64032, Note_on_c, 0, 47, 72
5, 64128, Note_on_c, 0, 47, 0
5, 64128, Note_on_c, 0, 49, 72
5, 64224, Note_on_c, 0, 49, 0
5, 64224, Note_on_c, 0, 50, 72
5, 64320, Note_on_c, 0, 50, 0
5, 64320, Note_on_c, 0, 52, 72
5, 64368, Note_on_c, 0, 52, 0
5, 64368, Note_on_c, 0, 50, 72
5, 64416, Note_on_c, 0, 50, 0
5, 64416, Note_on_c, 0, 49, 72
5, 64512, Note_on_c, 0, 49, 0
5, 64512, Note_on_c, 0, 50, 72
5, 65088, Note_on_c, 0, 50, 0
5, 65088, End_track
0, 0, End_of_file
