0, 0, Header, 1, 4, 96
1, 0, Start_track
1, 0, Key_signature, -1, "major"
1, 0, Time_signature, 4, 2, 24, 8
1, 0, Tempo, 535450
1, 22536, Tempo, 599704
1, 22632, Tempo, 666337
1, 22848, Tempo, 599704
1, 23040, Tempo, 535450
1, 26784, Tempo, 599704
1, 26976, Tempo, 666337
1, 27104, Tempo, 799605
1, 27168, Tempo, 999506
1, 27232, Tempo, 1499259
1, 27264, Tempo, 799605
1, 27648, Tempo, 535450
1, 28032, Tempo, 535450
1, 50568, Tempo, 599704
1, 50664, Tempo, 666337
1, 50880, Tempo, 599704
1, 51072, Tempo, 535450
1, 54816, Tempo, 599704
1, 55008, Tempo, 666337
1, 55136, Tempo, 799605
1, 55200, Tempo, 999506
1, 55264, Tempo, 1499259
1, 55296, Tempo, 1199407
1, 55680, End_track
2, 0, Start_track
2, 3360, Note_on_c, 0, 74, 64
2, 3456, Note_on_c, 0, 74, 0
2, 3456, Note_on_c, 0, 81, 64
2, 3504, Note_on_c, 0, 81, 0
2, 3552, Note_on_c, 0, 69, 64
2, 3680, Note_on_c, 0, 69, 0
2, 3680, Note_on_c, 0, 71, 64
2, 3712, Note_on_c, 0, 71, 0
2, 3712, Note_on_c, 0, 72, 64
2, 3744, Note_on_c, 0, 72, 0
2, 3744, Note_on_c, 0, 71, 64
2, 3776, Note_on_c, 0, 71, 0
2, 3776, Note_on_c, 0, 72, 64
2, 3808, Note_on_c, 0, 72, 0
2, 3808, Note_on_c, 0, 74, 64
2, 3840, Note_on_c, 0, 74, 0
2, 3840, Note_on_c, 0, 72, 64
2, 3872, Note_on_c, 0, 72, 0
2, 3872, Note_on_c, 0, 74, 64
2, 3904, Note_on_c, 0, 74, 0
2, 3904, Note_on_c, 0, 76, 64
2, 3936, Note_on_c, 0, 76, 0
2, 3936, Note_on_c, 0, 74, 64
2, 4064, Note_on_c, 0, 74, 0
2, 4064, Note_on_c, 0, 76, 64
2, 4096, Note_on_c, 0, 76, 0
2, 4096, Note_on_c, 0, 77, 64
2, 4128, Note_on_c, 0, 77, 0
2, 4128, Note_on_c, 0, 76, 64
2, 4160, Note_on_c, 0, 76, 0
2, 4160, Note_on_c, 0, 77, 64
2, 4192, Note_on_c, 0, 77, 0
2, 4192, Note_on_c, 0, 79, 64
2, 4224, Note_on_c, 0, 79, 0
2, 4224, Note_on_c, 0, 77, 64
2, 4256, Note_on_c, 0, 77, 0
2, 4256, Note_on_c, 0, 76, 64
2, 4288, Note_on_c, 0, 76, 0
2, 4288, Note_on_c, 0, 74, 64
2, 4320, Note_on_c, 0, 74, 0
2, 4320, Note_on_c, 0, 76, 64
2, 4448, Note_on_c, 0, 76, 0
2, 4448, Note_on_c, 0, 74, 64
2, 4480, Note_on_c, 0, 74, 0
2, 4480, Note_on_c, 0, 72, 64
2, 4512, Note_on_c, 0, 72, 0
2, 4512, Note_on_c, 0, 74, 64
2, 4544, Note_on_c, 0, 74, 0
2, 4544, Note_on_c, 0, 72, 64
2, 4576, Note_on_c, 0, 72, 0
2, 4576, Note_on_c, 0, 71, 64
2, 4608, Note_on_c, 0, 71, 0
2, 4608, Note_on_c, 0, 72, 64
2, 4680, Note_on_c, 0, 72, 0
2, 4680, Note_on_c, 0, 76, 64
2, 4704, Note_on_c, 0, 76, 0
2, 4704, Note_on_c, 0, 81, 64
2, 4776, Note_on_c, 0, 81, 0
2, 4776, Note_on_c, 0, 76, 64
2, 4800, Note_on_c, 0, 76, 0
2, 4800, Note_on_c, 0, 72, 64
2, 4872, Note_on_c, 0, 72, 0
2, 4872, Note_on_c, 0, 71, 64
2, 4896, Note_on_c, 0, 71, 0
2, 4896, Note_on_c, 0, 72, 64
2, 4968, Note_on_c, 0, 72, 0
2, 4968, Note_on_c, 0, 74, 64
2, 4992, Note_on_c, 0, 74, 0
2, 4992, Note_on_c, 0, 76, 64
2, 5184, Note_on_c, 0, 76, 0
2, 5280, Note_on_c, 0, 73, 64
2, 5376, Note_on_c, 0, 73, 0
2, 5376, Note_on_c, 0, 74, 64
2, 5472, Note_on_c, 0, 74, 0
2, 5472, Note_on_c, 0, 77, 64
2, 5544, Note_on_c, 0, 77, 0
2, 5544, Note_on_c, 0, 76, 64
2, 5568, Note_on_c, 0, 76, 0
2, 5568, Note_on_c, 0, 74, 64
2, 5664, Note_on_c, 0, 74, 0
2, 5664, Note_on_c, 0, 84, 64
2, 5760, Note_on_c, 0, 84, 0
2, 5760, Note_on_c, 0, 82, 64
2, 5856, Note_on_c, 0, 82, 0
2, 5856, Note_on_c, 0, 74, 64
2, 5952, Note_on_c, 0, 74, 0
2, 6048, Note_on_c, 0, 71, 64
2, 6144, Note_on_c, 0, 71, 0
2, 6144, Note_on_c, 0, 72, 64
2, 6240, Note_on_c, 0, 72, 0
2, 6240, Note_on_c, 0, 76, 64
2, 6312, Note_on_c, 0, 76, 0
2, 6312, Note_on_c, 0, 74, 64
2, 6336, Note_on_c, 0, 74, 0
2, 6336, Note_on_c, 0, 72, 64
2, 6432, Note_on_c, 0, 72, 0
2, 6432, Note_on_c, 0, 82, 64
2, 6528, Note_on_c, 0, 82, 0
2, 6528, Note_on_c, 0, 81, 64
2, 6672, Note_on_c, 0, 81, 0
2, 6672, Note_on_c, 0, 79, 64
2, 6720, Note_on_c, 0, 79, 0
2, 6720, Note_on_c, 0, 77, 64
2, 6792, Note_on_c, 0, 77, 0
2, 6792, Note_on_c, 0, 76, 64
2, 6816, Note_on_c, 0, 76, 0
2, 6816, Note_on_c, 0, 74, 64
2, 6888, Note_on_c, 0, 74, 0
2, 6888, Note_on_c, 0, 77, 64
2, 6912, Note_on_c, 0, 77, 0
2, 6912, Note_on_c, 0, 70, 64
2, 7008, Note_on_c, 0, 70, 0
2, 7008, Note_on_c, 0, 82, 64
2, 7104, Note_on_c, 0, 82, 0
2, 7104, Note_on_c, 0, 79, 64
2, 7200, Note_on_c, 0, 79, 0
2, 7200, Note_on_c, 0, 76, 64
2, 7296, Note_on_c, 0, 76, 0
2, 7296, Note_on_c, 0, 73, 64
2, 7440, Note_on_c, 0, 73, 0
2, 7440, Note_on_c, 0, 74, 64
2, 7464, Note_on_c, 0, 74, 0
2, 7464, Note_on_c, 0, 76, 64
2, 7488, Note_on_c, 0, 76, 0
2, 7488, Note_on_c, 0, 69, 64
2, 7560, Note_on_c, 0, 69, 0
2, 7560, Note_on_c, 0, 76, 64
2, 7584, Note_on_c, 0, 76, 0
2, 7584, Note_on_c, 0, 77, 64
2, 7656, Note_on_c, 0, 77, 0
2, 7656, Note_on_c, 0, 79, 64
2, 7680, Note_on_c, 0, 79, 0
2, 7680, Note_on_c, 0, 81, 64
2, 7824, Note_on_c, 0, 81, 0
2, 7824, Note_on_c, 0, 79, 64
2, 7872, Note_on_c, 0, 79, 0
2, 7872, Note_on_c, 0, 77, 64
2, 7904, Note_on_c, 0, 77, 0
2, 7904, Note_on_c, 0, 76, 64
2, 7936, Note_on_c, 0, 76, 0
2, 7936, Note_on_c, 0, 74, 64
2, 7968, Note_on_c, 0, 74, 0
2, 7968, Note_on_c, 0, 76, 64
2, 8040, Note_on_c, 0, 76, 0
2, 8040, Note_on_c, 0, 82, 64
2, 8064, Note_on_c, 0, 82, 0
2, 8064, Note_on_c, 0, 81, 64
2, 8096, Note_on_c, 0, 81, 0
2, 8096, Note_on_c, 0, 79, 64
2, 8128, Note_on_c, 0, 79, 0
2, 8128, Note_on_c, 0, 77, 64
2, 8160, Note_on_c, 0, 77, 0
2, 8160, Note_on_c, 0, 79, 64
2, 8192, Note_on_c, 0, 79, 0
2, 8192, Note_on_c, 0, 73, 64
2, 8224, Note_on_c, 0, 73, 0
2, 8224, Note_on_c, 0, 76, 64
2, 8256, Note_on_c, 0, 76, 0
2, 8256, Note_on_c, 0, 79, 64
2, 8288, Note_on_c, 0, 79, 0
2, 8288, Note_on_c, 0, 77, 64
2, 8320, Note_on_c, 0, 77, 0
2, 8320, Note_on_c, 0, 76, 64
2, 8416, Note_on_c, 0, 76, 0
2, 8416, Note_on_c, 0, 76, 64
2, 8424, Note_on_c, 0, 76, 0
2, 8424, Note_on_c, 0, 77, 64
2, 8448, Note_on_c, 0, 77, 0
2, 8448, Note_on_c, 0, 76, 64
2, 8480, Note_on_c, 0, 76, 0
2, 8480, Note_on_c, 0, 77, 64
2, 8512, Note_on_c, 0, 77, 0
2, 8512, Note_on_c, 0, 79, 64
2, 8544, Note_on_c, 0, 79, 0
2, 8544, Note_on_c, 0, 77, 64
2, 8576, Note_on_c, 0, 77, 0
2, 8576, Note_on_c, 0, 74, 64
2, 8608, Note_on_c, 0, 74, 0
2, 8608, Note_on_c, 0, 69, 64
2, 8640, Note_on_c, 0, 69, 0
2, 8640, Note_on_c, 0, 71, 64
2, 8672, Note_on_c, 0, 71, 0
2, 8672, Note_on_c, 0, 73, 64
2, 8704, Note_on_c, 0, 73, 0
2, 8704, Note_on_c, 0, 74, 64
2, 8736, Note_on_c, 0, 74, 0
2, 8736, Note_on_c, 0, 73, 64
2, 8768, Note_on_c, 0, 73, 0
2, 8768, Note_on_c, 0, 74, 64
2, 8800, Note_on_c, 0, 74, 0
2, 8800, Note_on_c, 0, 76, 64
2, 8832, Note_on_c, 0, 76, 0
2, 8832, Note_on_c, 0, 74, 64
2, 8928, Note_on_c, 0, 74, 0
2, 8928, Note_on_c, 0, 77, 64
2, 9024, Note_on_c, 0, 77, 0
2, 9024, Note_on_c, 0, 74, 64
2, 9120, Note_on_c, 0, 74, 0
2, 9120, Note_on_c, 0, 69, 64
2, 9216, Note_on_c, 0, 69, 0
2, 9216, Note_on_c, 0, 70, 64
2, 9288, Note_on_c, 0, 70, 0
2, 9288, Note_on_c, 0, 72, 64
2, 9312, Note_on_c, 0, 72, 0
2, 9312, Note_on_c, 0, 79, 64
2, 9384, Note_on_c, 0, 79, 0
2, 9384, Note_on_c, 0, 74, 64
2, 9408, Note_on_c, 0, 74, 0
2, 9408, Note_on_c, 0, 70, 64
2, 9480, Note_on_c, 0, 70, 0
2, 9480, Note_on_c, 0, 67, 64
2, 9504, Note_on_c, 0, 67, 0
2, 9504, Note_on_c, 0, 69, 64
2, 9576, Note_on_c, 0, 69, 0
2, 9576, Note_on_c, 0, 71, 64
2, 9600, Note_on_c, 0, 71, 0
2, 9600, Note_on_c, 0, 72, 64
2, 9696, Note_on_c, 0, 72, 0
2, 9696, Note_on_c, 0, 75, 64
2, 9792, Note_on_c, 0, 75, 0
2, 9792, Note_on_c, 0, 72, 64
2, 9888, Note_on_c, 0, 72, 0
2, 9888, Note_on_c, 0, 67, 64
2, 9984, Note_on_c, 0, 67, 0
2, 9984, Note_on_c, 0, 69, 64
2, 10056, Note_on_c, 0, 69, 0
2, 10056, Note_on_c, 0, 72, 64
2, 10080, Note_on_c, 0, 72, 0
2, 10080, Note_on_c, 0, 77, 64
2, 10152, Note_on_c, 0, 77, 0
2, 10152, Note_on_c, 0, 72, 64
2, 10176, Note_on_c, 0, 72, 0
2, 10176, Note_on_c, 0, 69, 64
2, 10248, Note_on_c, 0, 69, 0
2, 10248, Note_on_c, 0, 65, 64
2, 10272, Note_on_c, 0, 65, 0
2, 10272, Note_on_c, 0, 67, 64
2, 10344, Note_on_c, 0, 67, 0
2, 10344, Note_on_c, 0, 69, 64
2, 10368, Note_on_c, 0, 69, 0
2, 10368, Note_on_c, 0, 70, 64
2, 10464, Note_on_c, 0, 70, 0
2, 10464, Note_on_c, 0, 82, 64
2, 10592, Note_on_c, 0, 82, 0
2, 10592, Note_on_c, 0, 80, 64
2, 10624, Note_on_c, 0, 80, 0
2, 10624, Note_on_c, 0, 79, 64
2, 10656, Note_on_c, 0, 79, 0
2, 10656, Note_on_c, 0, 80, 64
2, 10688, Note_on_c, 0, 80, 0
2, 10688, Note_on_c, 0, 79, 64
2, 10720, Note_on_c, 0, 79, 0
2, 10720, Note_on_c, 0, 77, 64
2, 10752, Note_on_c, 0, 77, 0
2, 10752, Note_on_c, 0, 79, 64
2, 10784, Note_on_c, 0, 79, 0
2, 10784, Note_on_c, 0, 77, 64
2, 10816, Note_on_c, 0, 77, 0
2, 10816, Note_on_c, 0, 75, 64
2, 10848, Note_on_c, 0, 75, 0
2, 10848, Note_on_c, 0, 77, 64
2, 10976, Note_on_c, 0, 77, 0
2, 10976, Note_on_c, 0, 75, 64
2, 11008, Note_on_c, 0, 75, 0
2, 11008, Note_on_c, 0, 74, 64
2, 11040, Note_on_c, 0, 74, 0
2, 11040, Note_on_c, 0, 75, 64
2, 11072, Note_on_c, 0, 75, 0
2, 11072, Note_on_c, 0, 74, 64
2, 11104, Note_on_c, 0, 74, 0
2, 11104, Note_on_c, 0, 72, 64
2, 11136, Note_on_c, 0, 72, 0
2, 11136, Note_on_c, 0, 74, 64
2, 11232, Note_on_c, 0, 74, 0
2, 11232, Note_on_c, 0, 77, 64
2, 11328, Note_on_c, 0, 77, 0
2, 11328, Note_on_c, 0, 74, 64
2, 11424, Note_on_c, 0, 74, 0
2, 11424, Note_on_c, 0, 69, 64
2, 11520, Note_on_c, 0, 69, 0
2, 11520, Note_on_c, 0, 70, 64
2, 11904, Note_on_c, 0, 70, 0
2, 11904, Note_on_c, 0, 70, 64
2, 12288, Note_on_c, 0, 70, 0
2, 12288, Note_on_c, 0, 70, 64
2, 12480, Note_on_c, 0, 70, 0
2, 12576, Note_on_c, 0, 70, 64
2, 12672, Note_on_c, 0, 70, 0
2, 12672, Note_on_c, 0, 65, 64
2, 12720, Note_on_c, 0, 65, 0
2, 12768, Note_on_c, 0, 77, 64
2, 12896, Note_on_c, 0, 77, 0
2, 12896, Note_on_c, 0, 75, 64
2, 12928, Note_on_c, 0, 75, 0
2, 12928, Note_on_c, 0, 74, 64
2, 12960, Note_on_c, 0, 74, 0
2, 12960, Note_on_c, 0, 75, 64
2, 12992, Note_on_c, 0, 75, 0
2, 12992, Note_on_c, 0, 74, 64
2, 13024, Note_on_c, 0, 74, 0
2, 13024, Note_on_c, 0, 72, 64
2, 13056, Note_on_c, 0, 72, 0
2, 13056, Note_on_c, 0, 74, 64
2, 13088, Note_on_c, 0, 74, 0
2, 13088, Note_on_c, 0, 72, 64
2, 13120, Note_on_c, 0, 72, 0
2, 13120, Note_on_c, 0, 70, 64
2, 13152, Note_on_c, 0, 70, 0
2, 13152, Note_on_c, 0, 72, 64
2, 13280, Note_on_c, 0, 72, 0
2, 13280, Note_on_c, 0, 70, 64
2, 13312, Note_on_c, 0, 70, 0
2, 13312, Note_on_c, 0, 69, 64
2, 13344, Note_on_c, 0, 69, 0
2, 13344, Note_on_c, 0, 70, 64
2, 13376, Note_on_c, 0, 70, 0
2, 13376, Note_on_c, 0, 69, 64
2, 13408, Note_on_c, 0, 69, 0
2, 13408, Note_on_c, 0, 67, 64
2, 13440, Note_on_c, 0, 67, 0
2, 13440, Note_on_c, 0, 69, 64
2, 13472, Note_on_c, 0, 69, 0
2, 13472, Note_on_c, 0, 70, 64
2, 13504, Note_on_c, 0, 70, 0
2, 13504, Note_on_c, 0, 72, 64
2, 13536, Note_on_c, 0, 72, 0
2, 13536, Note_on_c, 0, 70, 64
2, 13664, Note_on_c, 0, 70, 0
2, 13664, Note_on_c, 0, 72, 64
2, 13696, Note_on_c, 0, 72, 0
2, 13696, Note_on_c, 0, 74, 64
2, 13728, Note_on_c, 0, 74, 0
2, 13728, Note_on_c, 0, 72, 64
2, 13760, Note_on_c, 0, 72, 0
2, 13760, Note_on_c, 0, 74, 64
2, 13792, Note_on_c, 0, 74, 0
2, 13792, Note_on_c, 0, 75, 64
2, 13824, Note_on_c, 0, 75, 0
2, 13824, Note_on_c, 0, 74, 64
2, 13896, Note_on_c, 0, 74, 0
2, 13896, Note_on_c, 0, 70, 64
2, 13920, Note_on_c, 0, 70, 0
2, 13920, Note_on_c, 0, 65, 64
2, 13992, Note_on_c, 0, 65, 0
2, 13992, Note_on_c, 0, 70, 64
2, 14016, Note_on_c, 0, 70, 0
2, 14016, Note_on_c, 0, 74, 64
2, 14088, Note_on_c, 0, 74, 0
2, 14088, Note_on_c, 0, 75, 64
2, 14112, Note_on_c, 0, 75, 0
2, 14112, Note_on_c, 0, 74, 64
2, 14184, Note_on_c, 0, 74, 0
2, 14184, Note_on_c, 0, 72, 64
2, 14208, Note_on_c, 0, 72, 0
2, 14208, Note_on_c, 0, 70, 64
2, 14240, Note_on_c, 0, 70, 0
2, 14240, Note_on_c, 0, 67, 64
2, 14272, Note_on_c, 0, 67, 0
2, 14272, Note_on_c, 0, 69, 64
2, 14304, Note_on_c, 0, 69, 0
2, 14304, Note_on_c, 0, 70, 64
2, 14336, Note_on_c, 0, 70, 0
2, 14336, Note_on_c, 0, 72, 64
2, 14368, Note_on_c, 0, 72, 0
2, 14368, Note_on_c, 0, 74, 64
2, 14400, Note_on_c, 0, 74, 0
2, 14400, Note_on_c, 0, 75, 64
2, 14472, Note_on_c, 0, 75, 0
2, 14472, Note_on_c, 0, 74, 64
2, 14496, Note_on_c, 0, 74, 0
2, 14496, Note_on_c, 0, 72, 64
2, 14568, Note_on_c, 0, 72, 0
2, 14568, Note_on_c, 0, 75, 64
2, 14592, Note_on_c, 0, 75, 0
2, 14592, Note_on_c, 0, 74, 64
2, 14624, Note_on_c, 0, 74, 0
2, 14624, Note_on_c, 0, 75, 64
2, 14656, Note_on_c, 0, 75, 0
2, 14656, Note_on_c, 0, 77, 64
2, 14688, Note_on_c, 0, 77, 0
2, 14688, Note_on_c, 0, 75, 64
2, 14720, Note_on_c, 0, 75, 0
2, 14720, Note_on_c, 0, 79, 64
2, 14752, Note_on_c, 0, 79, 0
2, 14752, Note_on_c, 0, 75, 64
2, 14784, Note_on_c, 0, 75, 0
2, 14784, Note_on_c, 0, 72, 64
2, 14816, Note_on_c, 0, 72, 0
2, 14816, Note_on_c, 0, 71, 64
2, 14848, Note_on_c, 0, 71, 0
2, 14848, Note_on_c, 0, 69, 64
2, 14880, Note_on_c, 0, 69, 0
2, 14880, Note_on_c, 0, 71, 64
2, 14912, Note_on_c, 0, 71, 0
2, 14912, Note_on_c, 0, 72, 64
2, 14944, Note_on_c, 0, 72, 0
2, 14944, Note_on_c, 0, 74, 64
2, 14976, Note_on_c, 0, 74, 0
2, 14976, Note_on_c, 0, 72, 64
2, 15008, Note_on_c, 0, 72, 0
2, 15008, Note_on_c, 0, 70, 64
2, 15040, Note_on_c, 0, 70, 0
2, 15040, Note_on_c, 0, 69, 64
2, 15072, Note_on_c, 0, 69, 0
2, 15072, Note_on_c, 0, 70, 64
2, 15104, Note_on_c, 0, 70, 0
2, 15104, Note_on_c, 0, 67, 64
2, 15136, Note_on_c, 0, 67, 0
2, 15136, Note_on_c, 0, 69, 64
2, 15168, Note_on_c, 0, 69, 0
2, 15168, Note_on_c, 0, 70, 64
2, 15200, Note_on_c, 0, 70, 0
2, 15200, Note_on_c, 0, 72, 64
2, 15232, Note_on_c, 0, 72, 0
2, 15232, Note_on_c, 0, 74, 64
2, 15264, Note_on_c, 0, 74, 0
2, 15264, Note_on_c, 0, 75, 64
2, 15296, Note_on_c, 0, 75, 0
2, 15296, Note_on_c, 0, 74, 64
2, 15328, Note_on_c, 0, 74, 0
2, 15328, Note_on_c, 0, 72, 64
2, 15360, Note_on_c, 0, 72, 0
2, 15360, Note_on_c, 0, 74, 64
2, 15392, Note_on_c, 0, 74, 0
2, 15392, Note_on_c, 0, 67, 64
2, 15424, Note_on_c, 0, 67, 0
2, 15424, Note_on_c, 0, 70, 64
2, 15456, Note_on_c, 0, 70, 0
2, 15456, Note_on_c, 0, 74, 64
2, 15488, Note_on_c, 0, 74, 0
2, 15488, Note_on_c, 0, 70, 64
2, 15520, Note_on_c, 0, 70, 0
2, 15520, Note_on_c, 0, 74, 64
2, 15552, Note_on_c, 0, 74, 0
2, 15552, Note_on_c, 0, 79, 64
2, 15624, Note_on_c, 0, 79, 0
2, 15624, Note_on_c, 0, 78, 64
2, 15648, Note_on_c, 0, 78, 0
2, 15648, Note_on_c, 0, 79, 64
2, 15720, Note_on_c, 0, 79, 0
2, 15720, Note_on_c, 0, 81, 64
2, 15744, Note_on_c, 0, 81, 0
2, 15744, Note_on_c, 0, 82, 64
2, 15816, Note_on_c, 0, 82, 0
2, 15816, Note_on_c, 0, 79, 64
2, 15840, Note_on_c, 0, 79, 0
2, 15840, Note_on_c, 0, 74, 64
2, 15912, Note_on_c, 0, 74, 0
2, 15912, Note_on_c, 0, 79, 64
2, 15936, Note_on_c, 0, 79, 0
2, 15936, Note_on_c, 0, 82, 64
2, 16008, Note_on_c, 0, 82, 0
2, 16008, Note_on_c, 0, 84, 64
2, 16032, Note_on_c, 0, 84, 0
2, 16032, Note_on_c, 0, 82, 64
2, 16104, Note_on_c, 0, 82, 0
2, 16104, Note_on_c, 0, 81, 64
2, 16128, Note_on_c, 0, 81, 0
2, 16128, Note_on_c, 0, 79, 64
2, 16224, Note_on_c, 0, 79, 0
2, 16224, Note_on_c, 0, 76, 64
2, 16320, Note_on_c, 0, 76, 0
2, 16320, Note_on_c, 0, 79, 64
2, 16416, Note_on_c, 0, 79, 0
2, 16416, Note_on_c, 0, 82, 64
2, 16512, Note_on_c, 0, 82, 0
2, 16512, Note_on_c, 0, 81, 64
2, 16584, Note_on_c, 0, 81, 0
2, 16584, Note_on_c, 0, 77, 64
2, 16608, Note_on_c, 0, 77, 0
2, 16608, Note_on_c, 0, 72, 64
2, 16680, Note_on_c, 0, 72, 0
2, 16680, Note_on_c, 0, 77, 64
2, 16704, Note_on_c, 0, 77, 0
2, 16704, Note_on_c, 0, 81, 64
2, 16776, Note_on_c, 0, 81, 0
2, 16776, Note_on_c, 0, 82, 64
2, 16800, Note_on_c, 0, 82, 0
2, 16800, Note_on_c, 0, 81, 64
2, 16872, Note_on_c, 0, 81, 0
2, 16872, Note_on_c, 0, 79, 64
2, 16896, Note_on_c, 0, 79, 0
2, 16896, Note_on_c, 0, 77, 64
2, 16992, Note_on_c, 0, 77, 0
2, 16992, Note_on_c, 0, 74, 64
2, 17088, Note_on_c, 0, 74, 0
2, 17088, Note_on_c, 0, 77, 64
2, 17184, Note_on_c, 0, 77, 0
2, 17184, Note_on_c, 0, 81, 64
2, 17280, Note_on_c, 0, 81, 0
2, 17280, Note_on_c, 0, 79, 64
2, 17376, Note_on_c, 0, 79, 0
2, 17376, Note_on_c, 0, 74, 64
2, 17472, Note_on_c, 0, 74, 0
2, 17472, Note_on_c, 0, 73, 64
2, 17568, Note_on_c, 0, 73, 0
2, 17728, Note_on_c, 0, 73, 64
2, 17744, Note_on_c, 0, 73, 0
2, 17744, Note_on_c, 0, 74, 64
2, 17760, Note_on_c, 0, 74, 0
2, 17760, Note_on_c, 0, 76, 64
2, 17784, Note_on_c, 0, 76, 0
2, 17784, Note_on_c, 0, 77, 64
2, 17808, Note_on_c, 0, 77, 0
2, 17808, Note_on_c, 0, 79, 64
2, 17832, Note_on_c, 0, 79, 0
2, 17832, Note_on_c, 0, 81, 64
2, 17856, Note_on_c, 0, 81, 0
2, 17856, Note_on_c, 0, 82, 64
2, 17952, Note_on_c, 0, 82, 0
2, 18080, Note_on_c, 0, 76, 64
2, 18112, Note_on_c, 0, 76, 0
2, 18112, Note_on_c, 0, 81, 64
2, 18144, Note_on_c, 0, 81, 0
2, 18144, Note_on_c, 0, 79, 64
2, 18176, Note_on_c, 0, 79, 0
2, 18176, Note_on_c, 0, 77, 64
2, 18208, Note_on_c, 0, 77, 0
2, 18208, Note_on_c, 0, 76, 64
2, 18240, Note_on_c, 0, 76, 0
2, 18240, Note_on_c, 0, 77, 64
2, 18272, Note_on_c, 0, 77, 0
2, 18272, Note_on_c, 0, 76, 64
2, 18304, Note_on_c, 0, 76, 0
2, 18304, Note_on_c, 0, 74, 64
2, 18336, Note_on_c, 0, 74, 0
2, 18336, Note_on_c, 0, 73, 64
2, 18368, Note_on_c, 0, 73, 0
2, 18368, Note_on_c, 0, 74, 64
2, 18400, Note_on_c, 0, 74, 0
2, 18400, Note_on_c, 0, 76, 64
2, 18432, Note_on_c, 0, 76, 0
2, 18432, Note_on_c, 0, 77, 64
2, 18528, Note_on_c, 0, 77, 0
2, 18720, Note_on_c, 0, 70, 64
2, 18816, Note_on_c, 0, 70, 0
2, 18816, Note_on_c, 0, 69, 64
2, 18848, Note_on_c, 0, 69, 0
2, 18848, Note_on_c, 0, 67, 64
2, 18880, Note_on_c, 0, 67, 0
2, 18880, Note_on_c, 0, 65, 64
2, 18912, Note_on_c, 0, 65, 0
2, 18912, Note_on_c, 0, 67, 64
2, 18944, Note_on_c, 0, 67, 0
2, 18944, Note_on_c, 0, 69, 64
2, 18976, Note_on_c, 0, 69, 0
2, 18976, Note_on_c, 0, 65, 64
2, 19008, Note_on_c, 0, 65, 0
2, 19008, Note_on_c, 0, 64, 64
2, 19152, Note_on_c, 0, 64, 0
2, 19152, Note_on_c, 0, 65, 64
2, 19200, Note_on_c, 0, 65, 0
2, 19200, Note_on_c, 0, 64, 64
2, 19296, Note_on_c, 0, 64, 0
2, 19488, Note_on_c, 0, 76, 64
2, 19584, Note_on_c, 0, 76, 0
2, 19584, Note_on_c, 0, 69, 64
2, 19680, Note_on_c, 0, 69, 0
2, 19872, Note_on_c, 0, 69, 64
2, 19968, Note_on_c, 0, 69, 0
2, 19968, Note_on_c, 0, 70, 64
2, 20040, Note_on_c, 0, 70, 0
2, 20040, Note_on_c, 0, 77, 64
2, 20064, Note_on_c, 0, 77, 0
2, 20064, Note_on_c, 0, 79, 64
2, 20136, Note_on_c, 0, 79, 0
2, 20136, Note_on_c, 0, 74, 64
2, 20160, Note_on_c, 0, 74, 0
2, 20160, Note_on_c, 0, 70, 64
2, 20232, Note_on_c, 0, 70, 0
2, 20232, Note_on_c, 0, 67, 64
2, 20256, Note_on_c, 0, 67, 0
2, 20256, Note_on_c, 0, 69, 64
2, 20328, Note_on_c, 0, 69, 0
2, 20328, Note_on_c, 0, 70, 64
2, 20352, Note_on_c, 0, 70, 0
2, 20352, Note_on_c, 0, 64, 64
2, 20448, Note_on_c, 0, 64, 0
2, 20640, Note_on_c, 0, 71, 64
2, 20736, Note_on_c, 0, 71, 0
2, 20736, Note_on_c, 0, 72, 64
2, 20808, Note_on_c, 0, 72, 0
2, 20808, Note_on_c, 0, 76, 64
2, 20832, Note_on_c, 0, 76, 0
2, 20832, Note_on_c, 0, 81, 64
2, 20904, Note_on_c, 0, 81, 0
2, 20904, Note_on_c, 0, 76, 64
2, 20928, Note_on_c, 0, 76, 0
2, 20928, Note_on_c, 0, 72, 64
2, 21000, Note_on_c, 0, 72, 0
2, 21000, Note_on_c, 0, 69, 64
2, 21024, Note_on_c, 0, 69, 0
2, 21024, Note_on_c, 0, 70, 64
2, 21096, Note_on_c, 0, 70, 0
2, 21096, Note_on_c, 0, 72, 64
2, 21120, Note_on_c, 0, 72, 0
2, 21120, Note_on_c, 0, 69, 64
2, 21216, Note_on_c, 0, 69, 0
2, 21408, Note_on_c, 0, 72, 64
2, 21504, Note_on_c, 0, 72, 0
2, 21504, Note_on_c, 0, 74, 64
2, 21576, Note_on_c, 0, 74, 0
2, 21576, Note_on_c, 0, 77, 64
2, 21600, Note_on_c, 0, 77, 0
2, 21600, Note_on_c, 0, 82, 64
2, 21672, Note_on_c, 0, 82, 0
2, 21672, Note_on_c, 0, 77, 64
2, 21696, Note_on_c, 0, 77, 0
2, 21696, Note_on_c, 0, 74, 64
2, 21768, Note_on_c, 0, 74, 0
2, 21768, Note_on_c, 0, 70, 64
2, 21792, Note_on_c, 0, 70, 0
2, 21792, Note_on_c, 0, 72, 64
2, 21864, Note_on_c, 0, 72, 0
2, 21864, Note_on_c, 0, 74, 64
2, 21888, Note_on_c, 0, 74, 0
2, 21888, Note_on_c, 0, 67, 64
2, 21984, Note_on_c, 0, 67, 0
2, 22176, Note_on_c, 0, 74, 64
2, 22272, Note_on_c, 0, 74, 0
2, 22272, Note_on_c, 0, 73, 64
2, 22368, Note_on_c, 0, 73, 0
2, 22536, Note_on_c, 0, 79, 64
2, 22560, Note_on_c, 0, 79, 0
2, 22560, Note_on_c, 0, 77, 64
2, 22632, Note_on_c, 0, 77, 0
2, 22632, Note_on_c, 0, 76, 64
2, 22656, Note_on_c, 0, 76, 0
2, 22656, Note_on_c, 0, 82, 64
2, 22848, Note_on_c, 0, 82, 0
2, 22976, Note_on_c, 0, 82, 64
2, 23008, Note_on_c, 0, 82, 0
2, 23008, Note_on_c, 0, 73, 64
2, 23040, Note_on_c, 0, 73, 0
2, 23040, Note_on_c, 0, 74, 64
2, 23168, Note_on_c, 0, 74, 0
2, 23168, Note_on_c, 0, 76, 64
2, 23200, Note_on_c, 0, 76, 0
2, 23200, Note_on_c, 0, 77, 64
2, 23232, Note_on_c, 0, 77, 0
2, 23232, Note_on_c, 0, 77, 64
2, 23248, Note_on_c, 0, 77, 0
2, 23248, Note_on_c, 0, 76, 64
2, 23264, Note_on_c, 0, 76, 0
2, 23264, Note_on_c, 0, 77, 64
2, 23280, Note_on_c, 0, 77, 0
2, 23280, Note_on_c, 0, 76, 64
2, 23296, Note_on_c, 0, 76, 0
2, 23296, Note_on_c, 0, 77, 64
2, 23312, Note_on_c, 0, 77, 0
2, 23312, Note_on_c, 0, 76, 64
2, 23328, Note_on_c, 0, 76, 0
2, 23328, Note_on_c, 0, 77, 64
2, 23344, Note_on_c, 0, 77, 0
2, 23344, Note_on_c, 0, 76, 64
2, 23360, Note_on_c, 0, 76, 0
2, 23360, Note_on_c, 0, 74, 64
2, 23392, Note_on_c, 0, 74, 0
2, 23392, Note_on_c, 0, 76, 64
2, 23424, Note_on_c, 0, 76, 0
2, 23424, Note_on_c, 0, 77, 64
2, 23552, Note_on_c, 0, 77, 0
2, 23552, Note_on_c, 0, 79, 64
2, 23584, Note_on_c, 0, 79, 0
2, 23584, Note_on_c, 0, 81, 64
2, 23632, Note_on_c, 0, 81, 0
2, 23632, Note_on_c, 0, 79, 64
2, 23648, Note_on_c, 0, 79, 0
2, 23648, Note_on_c, 0, 81, 64
2, 23664, Note_on_c, 0, 81, 0
2, 23664, Note_on_c, 0, 79, 64
2, 23680, Note_on_c, 0, 79, 0
2, 23680, Note_on_c, 0, 78, 64
2, 23696, Note_on_c, 0, 78, 0
2, 23696, Note_on_c, 0, 79, 64
2, 23744, Note_on_c, 0, 79, 0
2, 23744, Note_on_c, 0, 78, 64
2, 23776, Note_on_c, 0, 78, 0
2, 23776, Note_on_c, 0, 79, 64
2, 23808, Note_on_c, 0, 79, 0
2, 23808, Note_on_c, 0, 81, 64
2, 24192, Note_on_c, 0, 81, 0
2, 24192, Note_on_c, 0, 81, 64
2, 24224, Note_on_c, 0, 81, 0
2, 24224, Note_on_c, 0, 82, 64
2, 24256, Note_on_c, 0, 82, 0
2, 24256, Note_on_c, 0, 84, 64
2, 24288, Note_on_c, 0, 84, 0
2, 24288, Note_on_c, 0, 82, 64
2, 24320, Note_on_c, 0, 82, 0
2, 24320, Note_on_c, 0, 79, 64
2, 24352, Note_on_c, 0, 79, 0
2, 24352, Note_on_c, 0, 74, 64
2, 24384, Note_on_c, 0, 74, 0
2, 24384, Note_on_c, 0, 76, 64
2, 24416, Note_on_c, 0, 76, 0
2, 24416, Note_on_c, 0, 78, 64
2, 24448, Note_on_c, 0, 78, 0
2, 24448, Note_on_c, 0, 79, 64
2, 24480, Note_on_c, 0, 79, 0
2, 24480, Note_on_c, 0, 78, 64
2, 24512, Note_on_c, 0, 78, 0
2, 24512, Note_on_c, 0, 79, 64
2, 24544, Note_on_c, 0, 79, 0
2, 24544, Note_on_c, 0, 81, 64
2, 24576, Note_on_c, 0, 81, 0
2, 24576, Note_on_c, 0, 79, 64
2, 24608, Note_on_c, 0, 79, 0
2, 24608, Note_on_c, 0, 77, 64
2, 24640, Note_on_c, 0, 77, 0
2, 24640, Note_on_c, 0, 76, 64
2, 24672, Note_on_c, 0, 76, 0
2, 24672, Note_on_c, 0, 77, 64
2, 24704, Note_on_c, 0, 77, 0
2, 24704, Note_on_c, 0, 76, 64
2, 24736, Note_on_c, 0, 76, 0
2, 24736, Note_on_c, 0, 74, 64
2, 24768, Note_on_c, 0, 74, 0
2, 24768, Note_on_c, 0, 76, 64
2, 24864, Note_on_c, 0, 76, 0
2, 25248, Note_on_c, 0, 74, 64
2, 25344, Note_on_c, 0, 74, 0
2, 25344, Note_on_c, 0, 69, 64
2, 25392, Note_on_c, 0, 69, 0
2, 25440, Note_on_c, 0, 81, 64
2, 25568, Note_on_c, 0, 81, 0
2, 25568, Note_on_c, 0, 79, 64
2, 25600, Note_on_c, 0, 79, 0
2, 25600, Note_on_c, 0, 77, 64
2, 25632, Note_on_c, 0, 77, 0
2, 25632, Note_on_c, 0, 79, 64
2, 25664, Note_on_c, 0, 79, 0
2, 25664, Note_on_c, 0, 77, 64
2, 25696, Note_on_c, 0, 77, 0
2, 25696, Note_on_c, 0, 76, 64
2, 25728, Note_on_c, 0, 76, 0
2, 25728, Note_on_c, 0, 77, 64
2, 25760, Note_on_c, 0, 77, 0
2, 25760, Note_on_c, 0, 76, 64
2, 25792, Note_on_c, 0, 76, 0
2, 25792, Note_on_c, 0, 74, 64
2, 25824, Note_on_c, 0, 74, 0
2, 25824, Note_on_c, 0, 76, 64
2, 25952, Note_on_c, 0, 76, 0
2, 25952, Note_on_c, 0, 74, 64
2, 25984, Note_on_c, 0, 74, 0
2, 25984, Note_on_c, 0, 73, 64
2, 26016, Note_on_c, 0, 73, 0
2, 26016, Note_on_c, 0, 74, 64
2, 26048, Note_on_c, 0, 74, 0
2, 26048, Note_on_c, 0, 73, 64
2, 26080, Note_on_c, 0, 73, 0
2, 26080, Note_on_c, 0, 71, 64
2, 26112, Note_on_c, 0, 71, 0
2, 26112, Note_on_c, 0, 73, 64
2, 26144, Note_on_c, 0, 73, 0
2, 26144, Note_on_c, 0, 74, 64
2, 26176, Note_on_c, 0, 74, 0
2, 26176, Note_on_c, 0, 76, 64
2, 26208, Note_on_c, 0, 76, 0
2, 26208, Note_on_c, 0, 74, 64
2, 26336, Note_on_c, 0, 74, 0
2, 26336, Note_on_c, 0, 76, 64
2, 26368, Note_on_c, 0, 76, 0
2, 26368, Note_on_c, 0, 77, 64
2, 26400, Note_on_c, 0, 77, 0
2, 26400, Note_on_c, 0, 76, 64
2, 26432, Note_on_c, 0, 76, 0
2, 26432, Note_on_c, 0, 77, 64
2, 26464, Note_on_c, 0, 77, 0
2, 26464, Note_on_c, 0, 79, 64
2, 26496, Note_on_c, 0, 79, 0
2, 26496, Note_on_c, 0, 77, 64
2, 26568, Note_on_c, 0, 77, 0
2, 26568, Note_on_c, 0, 74, 64
2, 26592, Note_on_c, 0, 74, 0
2, 26592, Note_on_c, 0, 69, 64
2, 26664, Note_on_c, 0, 69, 0
2, 26664, Note_on_c, 0, 74, 64
2, 26688, Note_on_c, 0, 74, 0
2, 26688, Note_on_c, 0, 77, 64
2, 26760, Note_on_c, 0, 77, 0
2, 26760, Note_on_c, 0, 79, 64
2, 26784, Note_on_c, 0, 79, 0
2, 26784, Note_on_c, 0, 77, 64
2, 26856, Note_on_c, 0, 77, 0
2, 26856, Note_on_c, 0, 76, 64
2, 26880, Note_on_c, 0, 76, 0
2, 26880, Note_on_c, 0, 74, 64
2, 26912, Note_on_c, 0, 74, 0
2, 26912, Note_on_c, 0, 72, 64
2, 26944, Note_on_c, 0, 72, 0
2, 26944, Note_on_c, 0, 70, 64
2, 26976, Note_on_c, 0, 70, 0
2, 26976, Note_on_c, 0, 72, 64
2, 27104, Note_on_c, 0, 72, 0
2, 27104, Note_on_c, 0, 70, 64
2, 27136, Note_on_c, 0, 70, 0
2, 27136, Note_on_c, 0, 69, 64
2, 27168, Note_on_c, 0, 69, 0
2, 27168, Note_on_c, 0, 70, 64
2, 27200, Note_on_c, 0, 70, 0
2, 27200, Note_on_c, 0, 72, 64
2, 27232, Note_on_c, 0, 72, 0
2, 27232, Note_on_c, 0, 74, 64
2, 27264, Note_on_c, 0, 74, 0
2, 27264, Note_on_c, 0, 69, 64
2, 27648, Note_on_c, 0, 69, 0
2, 28320, Note_on_c, 0, 74, 64
2, 28416, Note_on_c, 0, 74, 0
2, 28416, Note_on_c, 0, 69, 64
2, 28464, Note_on_c, 0, 69, 0
2, 28512, Note_on_c, 0, 81, 64
2, 28640, Note_on_c, 0, 81, 0
2, 28640, Note_on_c, 0, 79, 64
2, 28672, Note_on_c, 0, 79, 0
2, 28672, Note_on_c, 0, 77, 64
2, 28704, Note_on_c, 0, 77, 0
2, 28704, Note_on_c, 0, 79, 64
2, 28736, Note_on_c, 0, 79, 0
2, 28736, Note_on_c, 0, 77, 64
2, 28768, Note_on_c, 0, 77, 0
2, 28768, Note_on_c, 0, 76, 64
2, 28800, Note_on_c, 0, 76, 0
2, 28800, Note_on_c, 0, 77, 64
2, 28832, Note_on_c, 0, 77, 0
2, 28832, Note_on_c, 0, 76, 64
2, 28864, Note_on_c, 0, 76, 0
2, 28864, Note_on_c, 0, 74, 64
2, 28896, Note_on_c, 0, 74, 0
2, 28896, Note_on_c, 0, 76, 64
2, 29024, Note_on_c, 0, 76, 0
2, 29024, Note_on_c, 0, 74, 64
2, 29056, Note_on_c, 0, 74, 0
2, 29056, Note_on_c, 0, 73, 64
2, 29088, Note_on_c, 0, 73, 0
2, 29088, Note_on_c, 0, 74, 64
2, 29120, Note_on_c, 0, 74, 0
2, 29120, Note_on_c, 0, 73, 64
2, 29152, Note_on_c, 0, 73, 0
2, 29152, Note_on_c, 0, 71, 64
2, 29184, Note_on_c, 0, 71, 0
2, 29184, Note_on_c, 0, 73, 64
2, 29216, Note_on_c, 0, 73, 0
2, 29216, Note_on_c, 0, 74, 64
2, 29248, Note_on_c, 0, 74, 0
2, 29248, Note_on_c, 0, 76, 64
2, 29280, Note_on_c, 0, 76, 0
2, 29280, Note_on_c, 0, 74, 64
2, 29408, Note_on_c, 0, 74, 0
2, 29408, Note_on_c, 0, 76, 64
2, 29440, Note_on_c, 0, 76, 0
2, 29440, Note_on_c, 0, 77, 64
2, 29472, Note_on_c, 0, 77, 0
2, 29472, Note_on_c, 0, 76, 64
2, 29504, Note_on_c, 0, 76, 0
2, 29504, Note_on_c, 0, 77, 64
2, 29536, Note_on_c, 0, 77, 0
2, 29536, Note_on_c, 0, 79, 64
2, 29568, Note_on_c, 0, 79, 0
2, 29568, Note_on_c, 0, 77, 64
2, 29616, Note_on_c, 0, 77, 0
2, 29640, Note_on_c, 0, 74, 64
2, 29664, Note_on_c, 0, 74, 0
2, 29664, Note_on_c, 0, 69, 64
2, 29712, Note_on_c, 0, 69, 0
2, 29736, Note_on_c, 0, 74, 64
2, 29760, Note_on_c, 0, 74, 0
2, 29760, Note_on_c, 0, 77, 64
2, 29808, Note_on_c, 0, 77, 0
2, 29832, Note_on_c, 0, 79, 64
2, 29856, Note_on_c, 0, 79, 0
2, 29856, Note_on_c, 0, 77, 64
2, 29904, Note_on_c, 0, 77, 0
2, 29928, Note_on_c, 0, 76, 64
2, 29952, Note_on_c, 0, 76, 0
2, 29952, Note_on_c, 0, 74, 64
2, 29984, Note_on_c, 0, 74, 0
2, 29984, Note_on_c, 0, 79, 64
2, 30016, Note_on_c, 0, 79, 0
2, 30016, Note_on_c, 0, 76, 64
2, 30048, Note_on_c, 0, 76, 0
2, 30048, Note_on_c, 0, 77, 64
2, 30080, Note_on_c, 0, 77, 0
2, 30080, Note_on_c, 0, 79, 64
2, 30112, Note_on_c, 0, 79, 0
2, 30112, Note_on_c, 0, 81, 64
2, 30144, Note_on_c, 0, 81, 0
2, 30144, Note_on_c, 0, 82, 64
2, 30240, Note_on_c, 0, 82, 0
2, 30240, Note_on_c, 0, 73, 64
2, 30288, Note_on_c, 0, 73, 0
2, 30336, Note_on_c, 0, 74, 64
2, 30464, Note_on_c, 0, 74, 0
2, 30464, Note_on_c, 0, 76, 64
2, 30496, Note_on_c, 0, 76, 0
2, 30496, Note_on_c, 0, 77, 64
2, 30528, Note_on_c, 0, 77, 0
2, 30528, Note_on_c, 0, 76, 64
2, 30720, Note_on_c, 0, 76, 0
2, 30720, Note_on_c, 0, 76, 64
2, 30848, Note_on_c, 0, 76, 0
2, 30848, Note_on_c, 0, 77, 64
2, 30880, Note_on_c, 0, 77, 0
2, 30880, Note_on_c, 0, 79, 64
2, 30912, Note_on_c, 0, 79, 0
2, 30912, Note_on_c, 0, 77, 64
2, 30960, Note_on_c, 0, 77, 0
2, 30984, Note_on_c, 0, 69, 64
2, 31008, Note_on_c, 0, 69, 0
2, 31008, Note_on_c, 0, 71, 64
2, 31080, Note_on_c, 0, 71, 0
2, 31080, Note_on_c, 0, 73, 64
2, 31104, Note_on_c, 0, 73, 0
2, 31104, Note_on_c, 0, 74, 64
2, 31296, Note_on_c, 0, 74, 0
2, 31296, Note_on_c, 0, 74, 64
2, 31368, Note_on_c, 0, 74, 0
2, 31368, Note_on_c, 0, 73, 64
2, 31392, Note_on_c, 0, 73, 0
2, 31392, Note_on_c, 0, 74, 64
2, 31464, Note_on_c, 0, 74, 0
2, 31464, Note_on_c, 0, 76, 64
2, 31488, Note_on_c, 0, 76, 0
2, 31488, Note_on_c, 0, 77, 64
2, 31584, Note_on_c, 0, 77, 0
2, 31776, Note_on_c, 0, 78, 64
2, 31872, Note_on_c, 0, 78, 0
2, 31872, Note_on_c, 0, 79, 64
2, 31904, Note_on_c, 0, 79, 0
2, 31904, Note_on_c, 0, 78, 64
2, 31936, Note_on_c, 0, 78, 0
2, 31936, Note_on_c, 0, 76, 64
2, 31968, Note_on_c, 0, 76, 0
2, 31968, Note_on_c, 0, 78, 64
2, 32000, Note_on_c, 0, 78, 0
2, 32000, Note_on_c, 0, 79, 64
2, 32032, Note_on_c, 0, 79, 0
2, 32032, Note_on_c, 0, 76, 64
2, 32064, Note_on_c, 0, 76, 0
2, 32064, Note_on_c, 0, 78, 64
2, 32096, Note_on_c, 0, 78, 0
2, 32096, Note_on_c, 0, 79, 64
2, 32128, Note_on_c, 0, 79, 0
2, 32128, Note_on_c, 0, 81, 64
2, 32160, Note_on_c, 0, 81, 0
2, 32160, Note_on_c, 0, 82, 64
2, 32192, Note_on_c, 0, 82, 0
2, 32192, Note_on_c, 0, 81, 64
2, 32224, Note_on_c, 0, 81, 0
2, 32224, Note_on_c, 0, 79, 64
2, 32256, Note_on_c, 0, 79, 0
2, 32256, Note_on_c, 0, 81, 64
2, 32352, Note_on_c, 0, 81, 0
2, 32544, Note_on_c, 0, 78, 64
2, 32640, Note_on_c, 0, 78, 0
2, 32640, Note_on_c, 0, 79, 64
2, 32736, Note_on_c, 0, 79, 0
2, 32736, Note_on_c, 0, 82, 64
2, 32832, Note_on_c, 0, 82, 0
2, 32832, Note_on_c, 0, 79, 64
2, 32928, Note_on_c, 0, 79, 0
2, 32928, Note_on_c, 0, 74, 64
2, 33000, Note_on_c, 0, 74, 0
2, 33000, Note_on_c, 0, 72, 64
2, 33024, Note_on_c, 0, 72, 0
2, 33024, Note_on_c, 0, 70, 64
2, 33120, Note_on_c, 0, 70, 0
2, 33120, Note_on_c, 0, 74, 64
2, 33216, Note_on_c, 0, 74, 0
2, 33216, Note_on_c, 0, 70, 64
2, 33312, Note_on_c, 0, 70, 0
2, 33312, Note_on_c, 0, 67, 64
2, 33408, Note_on_c, 0, 67, 0
2, 33408, Note_on_c, 0, 69, 64
2, 33504, Note_on_c, 0, 69, 0
2, 33504, Note_on_c, 0, 81, 64
2, 33600, Note_on_c, 0, 81, 0
2, 33888, Note_on_c, 0, 76, 64
2, 33984, Note_on_c, 0, 76, 0
2, 33984, Note_on_c, 0, 72, 64
2, 34080, Note_on_c, 0, 72, 0
2, 34080, Note_on_c, 0, 69, 64
2, 34176, Note_on_c, 0, 69, 0
2, 34176, Note_on_c, 0, 70, 64
2, 34272, Note_on_c, 0, 70, 0
2, 34272, Note_on_c, 0, 82, 64
2, 34368, Note_on_c, 0, 82, 0
2, 35616, Note_on_c, 0, 81, 64
2, 35712, Note_on_c, 0, 81, 0
2, 35712, Note_on_c, 0, 86, 64
2, 35760, Note_on_c, 0, 86, 0
2, 35808, Note_on_c, 0, 74, 64
2, 35936, Note_on_c, 0, 74, 0
2, 35936, Note_on_c, 0, 76, 64
2, 35968, Note_on_c, 0, 76, 0
2, 35968, Note_on_c, 0, 77, 64
2, 36000, Note_on_c, 0, 77, 0
2, 36000, Note_on_c, 0, 76, 64
2, 36032, Note_on_c, 0, 76, 0
2, 36032, Note_on_c, 0, 77, 64
2, 36064, Note_on_c, 0, 77, 0
2, 36064, Note_on_c, 0, 79, 64
2, 36096, Note_on_c, 0, 79, 0
2, 36096, Note_on_c, 0, 77, 64
2, 36128, Note_on_c, 0, 77, 0
2, 36128, Note_on_c, 0, 79, 64
2, 36160, Note_on_c, 0, 79, 0
2, 36160, Note_on_c, 0, 81, 64
2, 36192, Note_on_c, 0, 81, 0
2, 36192, Note_on_c, 0, 79, 64
2, 36320, Note_on_c, 0, 79, 0
2, 36320, Note_on_c, 0, 81, 64
2, 36352, Note_on_c, 0, 81, 0
2, 36352, Note_on_c, 0, 82, 64
2, 36384, Note_on_c, 0, 82, 0
2, 36384, Note_on_c, 0, 81, 64
2, 36416, Note_on_c, 0, 81, 0
2, 36416, Note_on_c, 0, 82, 64
2, 36448, Note_on_c, 0, 82, 0
2, 36448, Note_on_c, 0, 84, 64
2, 36480, Note_on_c, 0, 84, 0
2, 36480, Note_on_c, 0, 82, 64
2, 36512, Note_on_c, 0, 82, 0
2, 36512, Note_on_c, 0, 81, 64
2, 36544, Note_on_c, 0, 81, 0
2, 36544, Note_on_c, 0, 79, 64
2, 36576, Note_on_c, 0, 79, 0
2, 36576, Note_on_c, 0, 81, 64
2, 36704, Note_on_c, 0, 81, 0
2, 36704, Note_on_c, 0, 79, 64
2, 36736, Note_on_c, 0, 79, 0
2, 36736, Note_on_c, 0, 77, 64
2, 36768, Note_on_c, 0, 77, 0
2, 36768, Note_on_c, 0, 79, 64
2, 36800, Note_on_c, 0, 79, 0
2, 36800, Note_on_c, 0, 77, 64
2, 36832, Note_on_c, 0, 77, 0
2, 36832, Note_on_c, 0, 76, 64
2, 36864, Note_on_c, 0, 76, 0
2, 36864, Note_on_c, 0, 77, 64
2, 36936, Note_on_c, 0, 77, 0
2, 36936, Note_on_c, 0, 81, 64
2, 36960, Note_on_c, 0, 81, 0
2, 36960, Note_on_c, 0, 86, 64
2, 37032, Note_on_c, 0, 86, 0
2, 37032, Note_on_c, 0, 81, 64
2, 37056, Note_on_c, 0, 81, 0
2, 37056, Note_on_c, 0, 77, 64
2, 37128, Note_on_c, 0, 77, 0
2, 37128, Note_on_c, 0, 76, 64
2, 37152, Note_on_c, 0, 76, 0
2, 37152, Note_on_c, 0, 78, 64
2, 37224, Note_on_c, 0, 78, 0
2, 37224, Note_on_c, 0, 80, 64
2, 37248, Note_on_c, 0, 80, 0
2, 37248, Note_on_c, 0, 81, 64
2, 37344, Note_on_c, 0, 81, 0
2, 37344, Note_on_c, 0, 79, 64
2, 37416, Note_on_c, 0, 79, 0
2, 37416, Note_on_c, 0, 78, 64
2, 37440, Note_on_c, 0, 78, 0
2, 37440, Note_on_c, 0, 76, 64
2, 37536, Note_on_c, 0, 76, 0
2, 37536, Note_on_c, 0, 78, 64
2, 37632, Note_on_c, 0, 78, 0
2, 37632, Note_on_c, 0, 79, 64
2, 37704, Note_on_c, 0, 79, 0
2, 37704, Note_on_c, 0, 83, 64
2, 37728, Note_on_c, 0, 83, 0
2, 37728, Note_on_c, 0, 88, 64
2, 37800, Note_on_c, 0, 88, 0
2, 37800, Note_on_c, 0, 83, 64
2, 37824, Note_on_c, 0, 83, 0
2, 37824, Note_on_c, 0, 79, 64
2, 37896, Note_on_c, 0, 79, 0
2, 37896, Note_on_c, 0, 78, 64
2, 37920, Note_on_c, 0, 78, 0
2, 37920, Note_on_c, 0, 79, 64
2, 37992, Note_on_c, 0, 79, 0
2, 37992, Note_on_c, 0, 81, 64
2, 38016, Note_on_c, 0, 81, 0
2, 38016, Note_on_c, 0, 83, 64
2, 38112, Note_on_c, 0, 83, 0
2, 38112, Note_on_c, 0, 81, 64
2, 38184, Note_on_c, 0, 81, 0
2, 38184, Note_on_c, 0, 79, 64
2, 38208, Note_on_c, 0, 79, 0
2, 38208, Note_on_c, 0, 78, 64
2, 38304, Note_on_c, 0, 78, 0
2, 38304, Note_on_c, 0, 80, 64
2, 38400, Note_on_c, 0, 80, 0
2, 38400, Note_on_c, 0, 81, 64
2, 38472, Note_on_c, 0, 81, 0
2, 38472, Note_on_c, 0, 83, 64
2, 38496, Note_on_c, 0, 83, 0
2, 38496, Note_on_c, 0, 84, 64
2, 38568, Note_on_c, 0, 84, 0
2, 38568, Note_on_c, 0, 82, 64
2, 38592, Note_on_c, 0, 82, 0
2, 38592, Note_on_c, 0, 81, 64
2, 38664, Note_on_c, 0, 81, 0
2, 38664, Note_on_c, 0, 79, 64
2, 38688, Note_on_c, 0, 79, 0
2, 38688, Note_on_c, 0, 77, 64
2, 38760, Note_on_c, 0, 77, 0
2, 38760, Note_on_c, 0, 81, 64
2, 38784, Note_on_c, 0, 81, 0
2, 38784, Note_on_c, 0, 79, 64
2, 38912, Note_on_c, 0, 79, 0
2, 38912, Note_on_c, 0, 81, 64
2, 38944, Note_on_c, 0, 81, 0
2, 38944, Note_on_c, 0, 82, 64
2, 38976, Note_on_c, 0, 82, 0
2, 38976, Note_on_c, 0, 81, 64
2, 39008, Note_on_c, 0, 81, 0
2, 39008, Note_on_c, 0, 82, 64
2, 39040, Note_on_c, 0, 82, 0
2, 39040, Note_on_c, 0, 84, 64
2, 39072, Note_on_c, 0, 84, 0
2, 39072, Note_on_c, 0, 82, 64
2, 39104, Note_on_c, 0, 82, 0
2, 39104, Note_on_c, 0, 84, 64
2, 39136, Note_on_c, 0, 84, 0
2, 39136, Note_on_c, 0, 86, 64
2, 39168, Note_on_c, 0, 86, 0
2, 39168, Note_on_c, 0, 84, 64
2, 39200, Note_on_c, 0, 84, 0
2, 39200, Note_on_c, 0, 72, 64
2, 39232, Note_on_c, 0, 72, 0
2, 39232, Note_on_c, 0, 70, 64
2, 39264, Note_on_c, 0, 70, 0
2, 39264, Note_on_c, 0, 69, 64
2, 39296, Note_on_c, 0, 69, 0
2, 39296, Note_on_c, 0, 70, 64
2, 39328, Note_on_c, 0, 70, 0
2, 39328, Note_on_c, 0, 72, 64
2, 39360, Note_on_c, 0, 72, 0
2, 39360, Note_on_c, 0, 77, 64
2, 39552, Note_on_c, 0, 77, 0
2, 39552, Note_on_c, 0, 77, 64
2, 39584, Note_on_c, 0, 77, 0
2, 39584, Note_on_c, 0, 76, 64
2, 39616, Note_on_c, 0, 76, 0
2, 39616, Note_on_c, 0, 74, 64
2, 39648, Note_on_c, 0, 74, 0
2, 39648, Note_on_c, 0, 76, 64
2, 39680, Note_on_c, 0, 76, 0
2, 39680, Note_on_c, 0, 77, 64
2, 39712, Note_on_c, 0, 77, 0
2, 39712, Note_on_c, 0, 74, 64
2, 39744, Note_on_c, 0, 74, 0
2, 39744, Note_on_c, 0, 76, 64
2, 39840, Note_on_c, 0, 76, 0
2, 39840, Note_on_c, 0, 81, 64
2, 39936, Note_on_c, 0, 81, 0
2, 39936, Note_on_c, 0, 79, 64
2, 39968, Note_on_c, 0, 79, 0
2, 39968, Note_on_c, 0, 81, 64
2, 40000, Note_on_c, 0, 81, 0
2, 40000, Note_on_c, 0, 82, 64
2, 40032, Note_on_c, 0, 82, 0
2, 40032, Note_on_c, 0, 81, 64
2, 40064, Note_on_c, 0, 81, 0
2, 40064, Note_on_c, 0, 79, 64
2, 40096, Note_on_c, 0, 79, 0
2, 40096, Note_on_c, 0, 82, 64
2, 40128, Note_on_c, 0, 82, 0
2, 40128, Note_on_c, 0, 81, 64
2, 40224, Note_on_c, 0, 81, 0
2, 40224, Note_on_c, 0, 76, 64
2, 40320, Note_on_c, 0, 76, 0
2, 40320, Note_on_c, 0, 77, 64
2, 40352, Note_on_c, 0, 77, 0
2, 40352, Note_on_c, 0, 84, 64
2, 40384, Note_on_c, 0, 84, 0
2, 40384, Note_on_c, 0, 81, 64
2, 40416, Note_on_c, 0, 81, 0
2, 40416, Note_on_c, 0, 77, 64
2, 40448, Note_on_c, 0, 77, 0
2, 40448, Note_on_c, 0, 81, 64
2, 40480, Note_on_c, 0, 81, 0
2, 40480, Note_on_c, 0, 77, 64
2, 40512, Note_on_c, 0, 77, 0
2, 40512, Note_on_c, 0, 72, 64
2, 40584, Note_on_c, 0, 72, 0
2, 40584, Note_on_c, 0, 79, 64
2, 40608, Note_on_c, 0, 79, 0
2, 40608, Note_on_c, 0, 77, 64
2, 40680, Note_on_c, 0, 77, 0
2, 40680, Note_on_c, 0, 75, 64
2, 40704, Note_on_c, 0, 75, 0
2, 40704, Note_on_c, 0, 74, 64
2, 40736, Note_on_c, 0, 74, 0
2, 40736, Note_on_c, 0, 72, 64
2, 40768, Note_on_c, 0, 72, 0
2, 40768, Note_on_c, 0, 70, 64
2, 40800, Note_on_c, 0, 70, 0
2, 40800, Note_on_c, 0, 72, 64
2, 40832, Note_on_c, 0, 72, 0
2, 40832, Note_on_c, 0, 70, 64
2, 40864, Note_on_c, 0, 70, 0
2, 40864, Note_on_c, 0, 69, 64
2, 40896, Note_on_c, 0, 69, 0
2, 40896, Note_on_c, 0, 77, 64
2, 41088, Note_on_c, 0, 77, 0
2, 41088, Note_on_c, 0, 77, 64
2, 41472, Note_on_c, 0, 77, 0
2, 41472, Note_on_c, 0, 77, 64
2, 41856, Note_on_c, 0, 77, 0
2, 41856, Note_on_c, 0, 77, 64
2, 42048, Note_on_c, 0, 77, 0
2, 42144, Note_on_c, 0, 81, 64
2, 42240, Note_on_c, 0, 81, 0
2, 42240, Note_on_c, 0, 76, 64
2, 42288, Note_on_c, 0, 76, 0
2, 42336, Note_on_c, 0, 88, 64
2, 42464, Note_on_c, 0, 88, 0
2, 42464, Note_on_c, 0, 86, 64
2, 42496, Note_on_c, 0, 86, 0
2, 42496, Note_on_c, 0, 84, 64
2, 42528, Note_on_c, 0, 84, 0
2, 42528, Note_on_c, 0, 86, 64
2, 42560, Note_on_c, 0, 86, 0
2, 42560, Note_on_c, 0, 84, 64
2, 42592, Note_on_c, 0, 84, 0
2, 42592, Note_on_c, 0, 83, 64
2, 42624, Note_on_c, 0, 83, 0
2, 42624, Note_on_c, 0, 84, 64
2, 42656, Note_on_c, 0, 84, 0
2, 42656, Note_on_c, 0, 83, 64
2, 42688, Note_on_c, 0, 83, 0
2, 42688, Note_on_c, 0, 81, 64
2, 42720, Note_on_c, 0, 81, 0
2, 42720, Note_on_c, 0, 83, 64
2, 42848, Note_on_c, 0, 83, 0
2, 42848, Note_on_c, 0, 81, 64
2, 42880, Note_on_c, 0, 81, 0
2, 42880, Note_on_c, 0, 80, 64
2, 42912, Note_on_c, 0, 80, 0
2, 42912, Note_on_c, 0, 81, 64
2, 42944, Note_on_c, 0, 81, 0
2, 42944, Note_on_c, 0, 80, 64
2, 42976, Note_on_c, 0, 80, 0
2, 42976, Note_on_c, 0, 78, 64
2, 43008, Note_on_c, 0, 78, 0
2, 43008, Note_on_c, 0, 80, 64
2, 43040, Note_on_c, 0, 80, 0
2, 43040, Note_on_c, 0, 81, 64
2, 43072, Note_on_c, 0, 81, 0
2, 43072, Note_on_c, 0, 83, 64
2, 43104, Note_on_c, 0, 83, 0
2, 43104, Note_on_c, 0, 81, 64
2, 43232, Note_on_c, 0, 81, 0
2, 43232, Note_on_c, 0, 83, 64
2, 43264, Note_on_c, 0, 83, 0
2, 43264, Note_on_c, 0, 84, 64
2, 43296, Note_on_c, 0, 84, 0
2, 43296, Note_on_c, 0, 83, 64
2, 43328, Note_on_c, 0, 83, 0
2, 43328, Note_on_c, 0, 84, 64
2, 43360, Note_on_c, 0, 84, 0
2, 43360, Note_on_c, 0, 86, 64
2, 43392, Note_on_c, 0, 86, 0
2, 43392, Note_on_c, 0, 84, 64
2, 43464, Note_on_c, 0, 84, 0
2, 43464, Note_on_c, 0, 81, 64
2, 43488, Note_on_c, 0, 81, 0
2, 43488, Note_on_c, 0, 76, 64
2, 43560, Note_on_c, 0, 76, 0
2, 43560, Note_on_c, 0, 81, 64
2, 43584, Note_on_c, 0, 81, 0
2, 43584, Note_on_c, 0, 84, 64
2, 43656, Note_on_c, 0, 84, 0
2, 43656, Note_on_c, 0, 86, 64
2, 43680, Note_on_c, 0, 86, 0
2, 43680, Note_on_c, 0, 84, 64
2, 43752, Note_on_c, 0, 84, 0
2, 43752, Note_on_c, 0, 83, 64
2, 43776, Note_on_c, 0, 83, 0
2, 43776, Note_on_c, 0, 81, 64
2, 43872, Note_on_c, 0, 81, 0
2, 43872, Note_on_c, 0, 84, 64
2, 43968, Note_on_c, 0, 84, 0
2, 43968, Note_on_c, 0, 81, 64
2, 44064, Note_on_c, 0, 81, 0
2, 44064, Note_on_c, 0, 76, 64
2, 44136, Note_on_c, 0, 76, 0
2, 44136, Note_on_c, 0, 77, 64
2, 44160, Note_on_c, 0, 77, 0
2, 44160, Note_on_c, 0, 79, 64
2, 44232, Note_on_c, 0, 79, 0
2, 44232, Note_on_c, 0, 76, 64
2, 44256, Note_on_c, 0, 76, 0
2, 44256, Note_on_c, 0, 71, 64
2, 44328, Note_on_c, 0, 71, 0
2, 44328, Note_on_c, 0, 76, 64
2, 44352, Note_on_c, 0, 76, 0
2, 44352, Note_on_c, 0, 79, 64
2, 44424, Note_on_c, 0, 79, 0
2, 44424, Note_on_c, 0, 82, 64
2, 44448, Note_on_c, 0, 82, 0
2, 44448, Note_on_c, 0, 81, 64
2, 44520, Note_on_c, 0, 81, 0
2, 44520, Note_on_c, 0, 79, 64
2, 44544, Note_on_c, 0, 79, 0
2, 44544, Note_on_c, 0, 77, 64
2, 44640, Note_on_c, 0, 77, 0
2, 44640, Note_on_c, 0, 86, 64
2, 44736, Note_on_c, 0, 86, 0
2, 44736, Note_on_c, 0, 82, 64
2, 44832, Note_on_c, 0, 82, 0
2, 44832, Note_on_c, 0, 77, 64
2, 44904, Note_on_c, 0, 77, 0
2, 44904, Note_on_c, 0, 79, 64
2, 44928, Note_on_c, 0, 79, 0
2, 44928, Note_on_c, 0, 81, 64
2, 45000, Note_on_c, 0, 81, 0
2, 45000, Note_on_c, 0, 77, 64
2, 45024, Note_on_c, 0, 77, 0
2, 45024, Note_on_c, 0, 72, 64
2, 45096, Note_on_c, 0, 72, 0
2, 45096, Note_on_c, 0, 77, 64
2, 45120, Note_on_c, 0, 77, 0
2, 45120, Note_on_c, 0, 81, 64
2, 45192, Note_on_c, 0, 81, 0
2, 45192, Note_on_c, 0, 79, 64
2, 45216, Note_on_c, 0, 79, 0
2, 45216, Note_on_c, 0, 82, 64
2, 45288, Note_on_c, 0, 82, 0
2, 45288, Note_on_c, 0, 81, 64
2, 45312, Note_on_c, 0, 81, 0
2, 45312, Note_on_c, 0, 79, 64
2, 45504, Note_on_c, 0, 79, 0
2, 45600, Note_on_c, 0, 73, 64
2, 45696, Note_on_c, 0, 73, 0
2, 45696, Note_on_c, 0, 74, 64
2, 45792, Note_on_c, 0, 74, 0
2, 45960, Note_on_c, 0, 65, 64
2, 45984, Note_on_c, 0, 65, 0
2, 45984, Note_on_c, 0, 67, 64
2, 46016, Note_on_c, 0, 67, 0
2, 46016, Note_on_c, 0, 65, 64
2, 46048, Note_on_c, 0, 65, 0
2, 46048, Note_on_c, 0, 64, 64
2, 46080, Note_on_c, 0, 64, 0
2, 46080, Note_on_c, 0, 70, 64
2, 46176, Note_on_c, 0, 70, 0
2, 46368, Note_on_c, 0, 79, 64
2, 46464, Note_on_c, 0, 79, 0
2, 46464, Note_on_c, 0, 86, 64
2, 46512, Note_on_c, 0, 86, 0
2, 46560, Note_on_c, 0, 74, 64
2, 46688, Note_on_c, 0, 74, 0
2, 46688, Note_on_c, 0, 76, 64
2, 46720, Note_on_c, 0, 76, 0
2, 46720, Note_on_c, 0, 77, 64
2, 46752, Note_on_c, 0, 77, 0
2, 46752, Note_on_c, 0, 76, 64
2, 46784, Note_on_c, 0, 76, 0
2, 46784, Note_on_c, 0, 77, 64
2, 46816, Note_on_c, 0, 77, 0
2, 46816, Note_on_c, 0, 79, 64
2, 46848, Note_on_c, 0, 79, 0
2, 46848, Note_on_c, 0, 77, 64
2, 46880, Note_on_c, 0, 77, 0
2, 46880, Note_on_c, 0, 79, 64
2, 46912, Note_on_c, 0, 79, 0
2, 46912, Note_on_c, 0, 81, 64
2, 46944, Note_on_c, 0, 81, 0
2, 46944, Note_on_c, 0, 79, 64
2, 47072, Note_on_c, 0, 79, 0
2, 47072, Note_on_c, 0, 81, 64
2, 47104, Note_on_c, 0, 81, 0
2, 47104, Note_on_c, 0, 82, 64
2, 47136, Note_on_c, 0, 82, 0
2, 47136, Note_on_c, 0, 81, 64
2, 47168, Note_on_c, 0, 81, 0
2, 47168, Note_on_c, 0, 82, 64
2, 47200, Note_on_c, 0, 82, 0
2, 47200, Note_on_c, 0, 84, 64
2, 47232, Note_on_c, 0, 84, 0
2, 47232, Note_on_c, 0, 82, 64
2, 47264, Note_on_c, 0, 82, 0
2, 47264, Note_on_c, 0, 81, 64
2, 47296, Note_on_c, 0, 81, 0
2, 47296, Note_on_c, 0, 79, 64
2, 47328, Note_on_c, 0, 79, 0
2, 47328, Note_on_c, 0, 81, 64
2, 47456, Note_on_c, 0, 81, 0
2, 47456, Note_on_c, 0, 79, 64
2, 47488, Note_on_c, 0, 79, 0
2, 47488, Note_on_c, 0, 77, 64
2, 47520, Note_on_c, 0, 77, 0
2, 47520, Note_on_c, 0, 79, 64
2, 47552, Note_on_c, 0, 79, 0
2, 47552, Note_on_c, 0, 77, 64
2, 47584, Note_on_c, 0, 77, 0
2, 47584, Note_on_c, 0, 76, 64
2, 47616, Note_on_c, 0, 76, 0
2, 47616, Note_on_c, 0, 77, 64
2, 47688, Note_on_c, 0, 77, 0
2, 47688, Note_on_c, 0, 81, 64
2, 47712, Note_on_c, 0, 81, 0
2, 47712, Note_on_c, 0, 86, 64
2, 47784, Note_on_c, 0, 86, 0
2, 47784, Note_on_c, 0, 81, 64
2, 47808, Note_on_c, 0, 81, 0
2, 47808, Note_on_c, 0, 77, 64
2, 47880, Note_on_c, 0, 77, 0
2, 47880, Note_on_c, 0, 76, 64
2, 47904, Note_on_c, 0, 76, 0
2, 47904, Note_on_c, 0, 78, 64
2, 47976, Note_on_c, 0, 78, 0
2, 47976, Note_on_c, 0, 80, 64
2, 48000, Note_on_c, 0, 80, 0
2, 48000, Note_on_c, 0, 81, 64
2, 48096, Note_on_c, 0, 81, 0
2, 48096, Note_on_c, 0, 72, 64
2, 48192, Note_on_c, 0, 72, 0
2, 48192, Note_on_c, 0, 76, 64
2, 48288, Note_on_c, 0, 76, 0
2, 48288, Note_on_c, 0, 81, 64
2, 48384, Note_on_c, 0, 81, 0
2, 48384, Note_on_c, 0, 76, 64
2, 48456, Note_on_c, 0, 76, 0
2, 48456, Note_on_c, 0, 79, 64
2, 48480, Note_on_c, 0, 79, 0
2, 48480, Note_on_c, 0, 84, 64
2, 48552, Note_on_c, 0, 84, 0
2, 48552, Note_on_c, 0, 79, 64
2, 48576, Note_on_c, 0, 79, 0
2, 48576, Note_on_c, 0, 76, 64
2, 48648, Note_on_c, 0, 76, 0
2, 48648, Note_on_c, 0, 74, 64
2, 48672, Note_on_c, 0, 74, 0
2, 48672, Note_on_c, 0, 76, 64
2, 48744, Note_on_c, 0, 76, 0
2, 48744, Note_on_c, 0, 78, 64
2, 48768, Note_on_c, 0, 78, 0
2, 48768, Note_on_c, 0, 79, 64
2, 48864, Note_on_c, 0, 79, 0
2, 48864, Note_on_c, 0, 70, 64
2, 48960, Note_on_c, 0, 70, 0
2, 48960, Note_on_c, 0, 74, 64
2, 49056, Note_on_c, 0, 74, 0
2, 49056, Note_on_c, 0, 79, 64
2, 49152, Note_on_c, 0, 79, 0
2, 49152, Note_on_c, 0, 74, 64
2, 49224, Note_on_c, 0, 74, 0
2, 49224, Note_on_c, 0, 77, 64
2, 49248, Note_on_c, 0, 77, 0
2, 49248, Note_on_c, 0, 82, 64
2, 49320, Note_on_c, 0, 82, 0
2, 49320, Note_on_c, 0, 77, 64
2, 49344, Note_on_c, 0, 77, 0
2, 49344, Note_on_c, 0, 74, 64
2, 49416, Note_on_c, 0, 74, 0
2, 49416, Note_on_c, 0, 72, 64
2, 49440, Note_on_c, 0, 72, 0
2, 49440, Note_on_c, 0, 74, 64
2, 49512, Note_on_c, 0, 74, 0
2, 49512, Note_on_c, 0, 76, 64
2, 49536, Note_on_c, 0, 76, 0
2, 49536, Note_on_c, 0, 77, 64
2, 49728, Note_on_c, 0, 77, 0
2, 49824, Note_on_c, 0, 74, 64
2, 49920, Note_on_c, 0, 74, 0
2, 49920, Note_on_c, 0, 73, 64
2, 49992, Note_on_c, 0, 73, 0
2, 49992, Note_on_c, 0, 76, 64
2, 50016, Note_on_c, 0, 76, 0
2, 50016, Note_on_c, 0, 81, 64
2, 50088, Note_on_c, 0, 81, 0
2, 50088, Note_on_c, 0, 76, 64
2, 50112, Note_on_c, 0, 76, 0
2, 50112, Note_on_c, 0, 73, 64
2, 50184, Note_on_c, 0, 73, 0
2, 50184, Note_on_c, 0, 71, 64
2, 50208, Note_on_c, 0, 71, 0
2, 50208, Note_on_c, 0, 73, 64
2, 50280, Note_on_c, 0, 73, 0
2, 50280, Note_on_c, 0, 74, 64
2, 50304, Note_on_c, 0, 74, 0
2, 50304, Note_on_c, 0, 76, 64
2, 50400, Note_on_c, 0, 76, 0
2, 50568, Note_on_c, 0, 79, 64
2, 50592, Note_on_c, 0, 79, 0
2, 50592, Note_on_c, 0, 77, 64
2, 50664, Note_on_c, 0, 77, 0
2, 50664, Note_on_c, 0, 76, 64
2, 50688, Note_on_c, 0, 76, 0
2, 50688, Note_on_c, 0, 82, 64
2, 50880, Note_on_c, 0, 82, 0
2, 50976, Note_on_c, 0, 79, 64
2, 51072, Note_on_c, 0, 79, 0
2, 51072, Note_on_c, 0, 77, 64
2, 51104, Note_on_c, 0, 77, 0
2, 51104, Note_on_c, 0, 76, 64
2, 51136, Note_on_c, 0, 76, 0
2, 51136, Note_on_c, 0, 74, 64
2, 51168, Note_on_c, 0, 74, 0
2, 51168, Note_on_c, 0, 73, 64
2, 51200, Note_on_c, 0, 73, 0
2, 51200, Note_on_c, 0, 76, 64
2, 51232, Note_on_c, 0, 76, 0
2, 51232, Note_on_c, 0, 74, 64
2, 51264, Note_on_c, 0, 74, 0
2, 51264, Note_on_c, 0, 72, 64
2, 51296, Note_on_c, 0, 72, 0
2, 51296, Note_on_c, 0, 74, 64
2, 51328, Note_on_c, 0, 74, 0
2, 51328, Note_on_c, 0, 72, 64
2, 51360, Note_on_c, 0, 72, 0
2, 51360, Note_on_c, 0, 70, 64
2, 51392, Note_on_c, 0, 70, 0
2, 51392, Note_on_c, 0, 72, 64
2, 51424, Note_on_c, 0, 72, 0
2, 51424, Note_on_c, 0, 70, 64
2, 51456, Note_on_c, 0, 70, 0
2, 51456, Note_on_c, 0, 69, 64
2, 51488, Note_on_c, 0, 69, 0
2, 51488, Note_on_c, 0, 77, 64
2, 51520, Note_on_c, 0, 77, 0
2, 51520, Note_on_c, 0, 76, 64
2, 51552, Note_on_c, 0, 76, 0
2, 51552, Note_on_c, 0, 74, 64
2, 51584, Note_on_c, 0, 74, 0
2, 51584, Note_on_c, 0, 76, 64
2, 51616, Note_on_c, 0, 76, 0
2, 51616, Note_on_c, 0, 77, 64
2, 51648, Note_on_c, 0, 77, 0
2, 51648, Note_on_c, 0, 79, 64
2, 51680, Note_on_c, 0, 79, 0
2, 51680, Note_on_c, 0, 76, 64
2, 51712, Note_on_c, 0, 76, 0
2, 51712, Note_on_c, 0, 74, 64
2, 51744, Note_on_c, 0, 74, 0
2, 51744, Note_on_c, 0, 73, 64
2, 51776, Note_on_c, 0, 73, 0
2, 51776, Note_on_c, 0, 74, 64
2, 51808, Note_on_c, 0, 74, 0
2, 51808, Note_on_c, 0, 76, 64
2, 51840, Note_on_c, 0, 76, 0
2, 51840, Note_on_c, 0, 77, 64
2, 51872, Note_on_c, 0, 77, 0
2, 51872, Note_on_c, 0, 81, 64
2, 51904, Note_on_c, 0, 81, 0
2, 51904, Note_on_c, 0, 77, 64
2, 51936, Note_on_c, 0, 77, 0
2, 51936, Note_on_c, 0, 74, 64
2, 51968, Note_on_c, 0, 74, 0
2, 51968, Note_on_c, 0, 77, 64
2, 52000, Note_on_c, 0, 77, 0
2, 52000, Note_on_c, 0, 74, 64
2, 52032, Note_on_c, 0, 74, 0
2, 52032, Note_on_c, 0, 69, 64
2, 52064, Note_on_c, 0, 69, 0
2, 52064, Note_on_c, 0, 70, 64
2, 52096, Note_on_c, 0, 70, 0
2, 52096, Note_on_c, 0, 72, 64
2, 52128, Note_on_c, 0, 72, 0
2, 52128, Note_on_c, 0, 70, 64
2, 52160, Note_on_c, 0, 70, 0
2, 52160, Note_on_c, 0, 69, 64
2, 52192, Note_on_c, 0, 69, 0
2, 52192, Note_on_c, 0, 67, 64
2, 52224, Note_on_c, 0, 67, 0
2, 52224, Note_on_c, 0, 69, 64
2, 52608, Note_on_c, 0, 69, 0
2, 52608, Note_on_c, 0, 69, 64
2, 52736, Note_on_c, 0, 69, 0
2, 52736, Note_on_c, 0, 70, 64
2, 52768, Note_on_c, 0, 70, 0
2, 52768, Note_on_c, 0, 72, 64
2, 52800, Note_on_c, 0, 72, 0
2, 52800, Note_on_c, 0, 70, 64
2, 52896, Note_on_c, 0, 70, 0
2, 53024, Note_on_c, 0, 69, 64
2, 53056, Note_on_c, 0, 69, 0
2, 53056, Note_on_c, 0, 74, 64
2, 53088, Note_on_c, 0, 74, 0
2, 53088, Note_on_c, 0, 77, 64
2, 53120, Note_on_c, 0, 77, 0
2, 53120, Note_on_c, 0, 74, 64
2, 53152, Note_on_c, 0, 74, 0
2, 53152, Note_on_c, 0, 77, 64
2, 53184, Note_on_c, 0, 77, 0
2, 53184, Note_on_c, 0, 81, 64
2, 53216, Note_on_c, 0, 81, 0
2, 53216, Note_on_c, 0, 77, 64
2, 53248, Note_on_c, 0, 77, 0
2, 53248, Note_on_c, 0, 74, 64
2, 53280, Note_on_c, 0, 74, 0
2, 53280, Note_on_c, 0, 69, 64
2, 53312, Note_on_c, 0, 69, 0
2, 53312, Note_on_c, 0, 70, 64
2, 53344, Note_on_c, 0, 70, 0
2, 53344, Note_on_c, 0, 72, 64
2, 53376, Note_on_c, 0, 72, 0
2, 53376, Note_on_c, 0, 70, 64
2, 53408, Note_on_c, 0, 70, 0
2, 53408, Note_on_c, 0, 74, 64
2, 53440, Note_on_c, 0, 74, 0
2, 53440, Note_on_c, 0, 79, 64
2, 53472, Note_on_c, 0, 79, 0
2, 53472, Note_on_c, 0, 82, 64
2, 53504, Note_on_c, 0, 82, 0
2, 53504, Note_on_c, 0, 81, 64
2, 53536, Note_on_c, 0, 81, 0
2, 53536, Note_on_c, 0, 79, 64
2, 53568, Note_on_c, 0, 79, 0
2, 53568, Note_on_c, 0, 78, 64
2, 53600, Note_on_c, 0, 78, 0
2, 53600, Note_on_c, 0, 79, 64
2, 53632, Note_on_c, 0, 79, 0
2, 53632, Note_on_c, 0, 81, 64
2, 53664, Note_on_c, 0, 81, 0
2, 53664, Note_on_c, 0, 79, 64
2, 53736, Note_on_c, 0, 79, 0
2, 53736, Note_on_c, 0, 70, 64
2, 53760, Note_on_c, 0, 70, 0
2, 53760, Note_on_c, 0, 69, 64
2, 53888, Note_on_c, 0, 69, 0
2, 53888, Note_on_c, 0, 70, 64
2, 53920, Note_on_c, 0, 70, 0
2, 53920, Note_on_c, 0, 72, 64
2, 53952, Note_on_c, 0, 72, 0
2, 53952, Note_on_c, 0, 70, 64
2, 53984, Note_on_c, 0, 70, 0
2, 53984, Note_on_c, 0, 69, 64
2, 54016, Note_on_c, 0, 69, 0
2, 54016, Note_on_c, 0, 67, 64
2, 54048, Note_on_c, 0, 67, 0
2, 54048, Note_on_c, 0, 66, 64
2, 54080, Note_on_c, 0, 66, 0
2, 54080, Note_on_c, 0, 67, 64
2, 54112, Note_on_c, 0, 67, 0
2, 54112, Note_on_c, 0, 69, 64
2, 54144, Note_on_c, 0, 69, 0
2, 54144, Note_on_c, 0, 67, 64
2, 54216, Note_on_c, 0, 67, 0
2, 54216, Note_on_c, 0, 76, 64
2, 54240, Note_on_c, 0, 76, 0
2, 54240, Note_on_c, 0, 77, 64
2, 54272, Note_on_c, 0, 77, 0
2, 54272, Note_on_c, 0, 79, 64
2, 54304, Note_on_c, 0, 79, 0
2, 54304, Note_on_c, 0, 81, 64
2, 54336, Note_on_c, 0, 81, 0
2, 54336, Note_on_c, 0, 74, 64
2, 54352, Note_on_c, 0, 74, 0
2, 54352, Note_on_c, 0, 73, 64
2, 54368, Note_on_c, 0, 73, 0
2, 54368, Note_on_c, 0, 74, 64
2, 54384, Note_on_c, 0, 74, 0
2, 54384, Note_on_c, 0, 73, 64
2, 54400, Note_on_c, 0, 73, 0
2, 54400, Note_on_c, 0, 74, 64
2, 54416, Note_on_c, 0, 74, 0
2, 54416, Note_on_c, 0, 73, 64
2, 54432, Note_on_c, 0, 73, 0
2, 54432, Note_on_c, 0, 74, 64
2, 54448, Note_on_c, 0, 74, 0
2, 54448, Note_on_c, 0, 73, 64
2, 54464, Note_on_c, 0, 73, 0
2, 54464, Note_on_c, 0, 74, 64
2, 54480, Note_on_c, 0, 74, 0
2, 54480, Note_on_c, 0, 73, 64
2, 54496, Note_on_c, 0, 73, 0
2, 54496, Note_on_c, 0, 71, 64
2, 54512, Note_on_c, 0, 71, 0
2, 54512, Note_on_c, 0, 73, 64
2, 54528, Note_on_c, 0, 73, 0
2, 54528, Note_on_c, 0, 74, 64
2, 54624, Note_on_c, 0, 74, 0
2, 54792, Note_on_c, 0, 73, 64
2, 54816, Note_on_c, 0, 73, 0
2, 54816, Note_on_c, 0, 74, 64
2, 54888, Note_on_c, 0, 74, 0
2, 54888, Note_on_c, 0, 76, 64
2, 54912, Note_on_c, 0, 76, 0
2, 54912, Note_on_c, 0, 78, 64
2, 54944, Note_on_c, 0, 78, 0
2, 54944, Note_on_c, 0, 79, 64
2, 54976, Note_on_c, 0, 79, 0
2, 54976, Note_on_c, 0, 81, 64
2, 55008, Note_on_c, 0, 81, 0
2, 55008, Note_on_c, 0, 74, 64
2, 55136, Note_on_c, 0, 74, 0
2, 55136, Note_on_c, 0, 74, 88
2, 55200, Note_on_c, 0, 74, 0
2, 55200, Note_on_c, 0, 76, 88
2, 55232, Note_on_c, 0, 76, 0
2, 55232, Note_on_c, 0, 74, 88
2, 55264, Note_on_c, 0, 74, 0
2, 55264, Note_on_c, 0, 73, 88
2, 55296, Note_on_c, 0, 73, 0
2, 55296, Note_on_c, 0, 78, 88
2, 55680, Note_on_c, 0, 78, 0
2, 55680, End_track
3, 0, Start_track
3, 288, Note_on_c, 0, 69, 64
3, 384, Note_on_c, 0, 69, 0
3, 384, Note_on_c, 0, 74, 64
3, 432, Note_on_c, 0, 74, 0
3, 480, Note_on_c, 0, 62, 64
3, 608, Note_on_c, 0, 62, 0
3, 608, Note_on_c, 0, 64, 64
3, 640, Note_on_c, 0, 64, 0
3, 640, Note_on_c, 0, 65, 64
3, 672, Note_on_c, 0, 65, 0
3, 672, Note_on_c, 0, 64, 64
3, 704, Note_on_c, 0, 64, 0
3, 704, Note_on_c, 0, 65, 64
3, 736, Note_on_c, 0, 65, 0
3, 736, Note_on_c, 0, 67, 64
3, 768, Note_on_c, 0, 67, 0
3, 768, Note_on_c, 0, 65, 64
3, 800, Note_on_c, 0, 65, 0
3, 800, Note_on_c, 0, 67, 64
3, 832, Note_on_c, 0, 67, 0
3, 832, Note_on_c, 0, 69, 64
3, 864, Note_on_c, 0, 69, 0
3, 864, Note_on_c, 0, 67, 64
3, 992, Note_on_c, 0, 67, 0
3, 992, Note_on_c, 0, 69, 64
3, 1024, Note_on_c, 0, 69, 0
3, 1024, Note_on_c, 0, 70, 64
3, 1056, Note_on_c, 0, 70, 0
3, 1056, Note_on_c, 0, 69, 64
3, 1088, Note_on_c, 0, 69, 0
3, 1088, Note_on_c, 0, 70, 64
3, 1120, Note_on_c, 0, 70, 0
3, 1120, Note_on_c, 0, 72, 64
3, 1152, Note_on_c, 0, 72, 0
3, 1152, Note_on_c, 0, 70, 64
3, 1184, Note_on_c, 0, 70, 0
3, 1184, Note_on_c, 0, 69, 64
3, 1216, Note_on_c, 0, 69, 0
3, 1216, Note_on_c, 0, 67, 64
3, 1248, Note_on_c, 0, 67, 0
3, 1248, Note_on_c, 0, 69, 64
3, 1376, Note_on_c, 0, 69, 0
3, 1376, Note_on_c, 0, 67, 64
3, 1408, Note_on_c, 0, 67, 0
3, 1408, Note_on_c, 0, 65, 64
3, 1440, Note_on_c, 0, 65, 0
3, 1440, Note_on_c, 0, 67, 64
3, 1472, Note_on_c, 0, 67, 0
3, 1472, Note_on_c, 0, 65, 64
3, 1504, Note_on_c, 0, 65, 0
3, 1504, Note_on_c, 0, 64, 64
3, 1536, Note_on_c, 0, 64, 0
3, 1536, Note_on_c, 0, 65, 64
3, 1608, Note_on_c, 0, 65, 0
3, 1608, Note_on_c, 0, 69, 64
3, 1632, Note_on_c, 0, 69, 0
3, 1632, Note_on_c, 0, 74, 64
3, 1680, Note_on_c, 0, 74, 0
3, 1704, Note_on_c, 0, 69, 64
3, 1728, Note_on_c, 0, 69, 0
3, 1728, Note_on_c, 0, 65, 64
3, 1776, Note_on_c, 0, 65, 0
3, 1800, Note_on_c, 0, 64, 64
3, 1824, Note_on_c, 0, 64, 0
3, 1824, Note_on_c, 0, 65, 64
3, 1872, Note_on_c, 0, 65, 0
3, 1896, Note_on_c, 0, 67, 64
3, 1920, Note_on_c, 0, 67, 0
3, 1920, Note_on_c, 0, 69, 64
3, 1952, Note_on_c, 0, 69, 0
3, 1952, Note_on_c, 0, 64, 64
3, 1984, Note_on_c, 0, 64, 0
3, 1984, Note_on_c, 0, 67, 64
3, 2016, Note_on_c, 0, 67, 0
3, 2016, Note_on_c, 0, 65, 64
3, 2048, Note_on_c, 0, 65, 0
3, 2048, Note_on_c, 0, 64, 64
3, 2080, Note_on_c, 0, 64, 0
3, 2080, Note_on_c, 0, 62, 64
3, 2112, Note_on_c, 0, 62, 0
3, 2112, Note_on_c, 0, 61, 64
3, 2208, Note_on_c, 0, 61, 0
3, 2208, Note_on_c, 0, 70, 64
3, 2256, Note_on_c, 0, 70, 0
3, 2304, Note_on_c, 0, 69, 64
3, 2432, Note_on_c, 0, 69, 0
3, 2432, Note_on_c, 0, 67, 64
3, 2464, Note_on_c, 0, 67, 0
3, 2464, Note_on_c, 0, 65, 64
3, 2496, Note_on_c, 0, 65, 0
3, 2496, Note_on_c, 0, 67, 64
3, 2688, Note_on_c, 0, 67, 0
3, 2688, Note_on_c, 0, 67, 64
3, 2816, Note_on_c, 0, 67, 0
3, 2816, Note_on_c, 0, 65, 64
3, 2848, Note_on_c, 0, 65, 0
3, 2848, Note_on_c, 0, 64, 64
3, 2880, Note_on_c, 0, 64, 0
3, 2880, Note_on_c, 0, 65, 64
3, 2928, Note_on_c, 0, 65, 0
3, 2952, Note_on_c, 0, 74, 64
3, 2976, Note_on_c, 0, 74, 0
3, 2976, Note_on_c, 0, 72, 64
3, 3048, Note_on_c, 0, 72, 0
3, 3048, Note_on_c, 0, 70, 64
3, 3072, Note_on_c, 0, 70, 0
3, 3072, Note_on_c, 0, 69, 64
3, 3264, Note_on_c, 0, 69, 0
3, 3264, Note_on_c, 0, 69, 64
3, 3336, Note_on_c, 0, 69, 0
3, 3336, Note_on_c, 0, 70, 64
3, 3360, Note_on_c, 0, 70, 0
3, 3360, Note_on_c, 0, 69, 64
3, 3432, Note_on_c, 0, 69, 0
3, 3432, Note_on_c, 0, 67, 64
3, 3456, Note_on_c, 0, 67, 0
3, 3456, Note_on_c, 0, 65, 64
3, 3552, Note_on_c, 0, 65, 0
3, 3744, Note_on_c, 0, 65, 64
3, 3840, Note_on_c, 0, 65, 0
3, 3840, Note_on_c, 0, 64, 64
3, 3872, Note_on_c, 0, 64, 0
3, 3872, Note_on_c, 0, 65, 64
3, 3904, Note_on_c, 0, 65, 0
3, 3904, Note_on_c, 0, 67, 64
3, 3936, Note_on_c, 0, 67, 0
3, 3936, Note_on_c, 0, 65, 64
3, 3968, Note_on_c, 0, 65, 0
3, 3968, Note_on_c, 0, 64, 64
3, 4000, Note_on_c, 0, 64, 0
3, 4000, Note_on_c, 0, 67, 64
3, 4032, Note_on_c, 0, 67, 0
3, 4032, Note_on_c, 0, 65, 64
3, 4064, Note_on_c, 0, 65, 0
3, 4064, Note_on_c, 0, 64, 64
3, 4096, Note_on_c, 0, 64, 0
3, 4096, Note_on_c, 0, 62, 64
3, 4128, Note_on_c, 0, 62, 0
3, 4128, Note_on_c, 0, 61, 64
3, 4160, Note_on_c, 0, 61, 0
3, 4160, Note_on_c, 0, 62, 64
3, 4192, Note_on_c, 0, 62, 0
3, 4192, Note_on_c, 0, 64, 64
3, 4224, Note_on_c, 0, 64, 0
3, 4224, Note_on_c, 0, 62, 64
3, 4320, Note_on_c, 0, 62, 0
3, 4512, Note_on_c, 0, 65, 64
3, 4608, Note_on_c, 0, 65, 0
3, 4608, Note_on_c, 0, 64, 64
3, 4704, Note_on_c, 0, 64, 0
3, 4704, Note_on_c, 0, 60, 64
3, 4800, Note_on_c, 0, 60, 0
3, 4800, Note_on_c, 0, 64, 64
3, 4896, Note_on_c, 0, 64, 0
3, 4896, Note_on_c, 0, 69, 64
3, 4968, Note_on_c, 0, 69, 0
3, 4968, Note_on_c, 0, 71, 64
3, 4992, Note_on_c, 0, 71, 0
3, 4992, Note_on_c, 0, 72, 64
3, 5088, Note_on_c, 0, 72, 0
3, 5088, Note_on_c, 0, 69, 64
3, 5184, Note_on_c, 0, 69, 0
3, 5184, Note_on_c, 0, 72, 64
3, 5280, Note_on_c, 0, 72, 0
3, 5280, Note_on_c, 0, 76, 64
3, 5376, Note_on_c, 0, 76, 0
3, 5376, Note_on_c, 0, 74, 64
3, 5472, Note_on_c, 0, 74, 0
3, 5472, Note_on_c, 0, 62, 64
3, 5568, Note_on_c, 0, 62, 0
3, 5856, Note_on_c, 0, 67, 64
3, 5952, Note_on_c, 0, 67, 0
3, 5952, Note_on_c, 0, 70, 64
3, 6048, Note_on_c, 0, 70, 0
3, 6048, Note_on_c, 0, 74, 64
3, 6144, Note_on_c, 0, 74, 0
3, 6144, Note_on_c, 0, 72, 64
3, 6240, Note_on_c, 0, 72, 0
3, 6240, Note_on_c, 0, 60, 64
3, 6336, Note_on_c, 0, 60, 0
3, 7584, Note_on_c, 0, 64, 64
3, 7680, Note_on_c, 0, 64, 0
3, 7680, Note_on_c, 0, 57, 64
3, 7728, Note_on_c, 0, 57, 0
3, 7776, Note_on_c, 0, 69, 64
3, 7904, Note_on_c, 0, 69, 0
3, 7904, Note_on_c, 0, 67, 64
3, 7936, Note_on_c, 0, 67, 0
3, 7936, Note_on_c, 0, 65, 64
3, 7968, Note_on_c, 0, 65, 0
3, 7968, Note_on_c, 0, 67, 64
3, 8000, Note_on_c, 0, 67, 0
3, 8000, Note_on_c, 0, 65, 64
3, 8032, Note_on_c, 0, 65, 0
3, 8032, Note_on_c, 0, 64, 64
3, 8064, Note_on_c, 0, 64, 0
3, 8064, Note_on_c, 0, 65, 64
3, 8096, Note_on_c, 0, 65, 0
3, 8096, Note_on_c, 0, 64, 64
3, 8128, Note_on_c, 0, 64, 0
3, 8128, Note_on_c, 0, 62, 64
3, 8160, Note_on_c, 0, 62, 0
3, 8160, Note_on_c, 0, 64, 64
3, 8288, Note_on_c, 0, 64, 0
3, 8288, Note_on_c, 0, 62, 64
3, 8320, Note_on_c, 0, 62, 0
3, 8320, Note_on_c, 0, 61, 64
3, 8352, Note_on_c, 0, 61, 0
3, 8352, Note_on_c, 0, 62, 64
3, 8384, Note_on_c, 0, 62, 0
3, 8384, Note_on_c, 0, 61, 64
3, 8416, Note_on_c, 0, 61, 0
3, 8416, Note_on_c, 0, 59, 64
3, 8448, Note_on_c, 0, 59, 0
3, 8448, Note_on_c, 0, 61, 64
3, 8480, Note_on_c, 0, 61, 0
3, 8480, Note_on_c, 0, 62, 64
3, 8512, Note_on_c, 0, 62, 0
3, 8512, Note_on_c, 0, 64, 64
3, 8544, Note_on_c, 0, 64, 0
3, 8544, Note_on_c, 0, 62, 64
3, 8672, Note_on_c, 0, 62, 0
3, 8672, Note_on_c, 0, 64, 64
3, 8704, Note_on_c, 0, 64, 0
3, 8704, Note_on_c, 0, 65, 64
3, 8736, Note_on_c, 0, 65, 0
3, 8736, Note_on_c, 0, 64, 64
3, 8768, Note_on_c, 0, 64, 0
3, 8768, Note_on_c, 0, 65, 64
3, 8800, Note_on_c, 0, 65, 0
3, 8800, Note_on_c, 0, 67, 64
3, 8832, Note_on_c, 0, 67, 0
3, 8832, Note_on_c, 0, 65, 64
3, 8904, Note_on_c, 0, 65, 0
3, 8904, Note_on_c, 0, 62, 64
3, 8928, Note_on_c, 0, 62, 0
3, 8928, Note_on_c, 0, 57, 64
3, 9000, Note_on_c, 0, 57, 0
3, 9000, Note_on_c, 0, 62, 64
3, 9024, Note_on_c, 0, 62, 0
3, 9024, Note_on_c, 0, 65, 64
3, 9096, Note_on_c, 0, 65, 0
3, 9096, Note_on_c, 0, 67, 64
3, 9120, Note_on_c, 0, 67, 0
3, 9120, Note_on_c, 0, 65, 64
3, 9192, Note_on_c, 0, 65, 0
3, 9192, Note_on_c, 0, 64, 64
3, 9216, Note_on_c, 0, 64, 0
3, 9216, Note_on_c, 0, 62, 64
3, 9312, Note_on_c, 0, 62, 0
3, 9312, Note_on_c, 0, 64, 64
3, 9384, Note_on_c, 0, 64, 0
3, 9384, Note_on_c, 0, 66, 64
3, 9408, Note_on_c, 0, 66, 0
3, 9408, Note_on_c, 0, 67, 64
3, 9504, Note_on_c, 0, 67, 0
3, 9504, Note_on_c, 0, 65, 64
3, 9600, Note_on_c, 0, 65, 0
3, 9600, Note_on_c, 0, 63, 64
3, 9672, Note_on_c, 0, 63, 0
3, 9672, Note_on_c, 0, 60, 64
3, 9696, Note_on_c, 0, 60, 0
3, 9696, Note_on_c, 0, 55, 64
3, 9768, Note_on_c, 0, 55, 0
3, 9768, Note_on_c, 0, 60, 64
3, 9792, Note_on_c, 0, 60, 0
3, 9792, Note_on_c, 0, 63, 64
3, 9864, Note_on_c, 0, 63, 0
3, 9864, Note_on_c, 0, 65, 64
3, 9888, Note_on_c, 0, 65, 0
3, 9888, Note_on_c, 0, 63, 64
3, 9960, Note_on_c, 0, 63, 0
3, 9960, Note_on_c, 0, 62, 64
3, 9984, Note_on_c, 0, 62, 0
3, 9984, Note_on_c, 0, 60, 64
3, 10080, Note_on_c, 0, 60, 0
3, 10080, Note_on_c, 0, 62, 64
3, 10152, Note_on_c, 0, 62, 0
3, 10152, Note_on_c, 0, 63, 64
3, 10176, Note_on_c, 0, 63, 0
3, 10176, Note_on_c, 0, 65, 64
3, 10272, Note_on_c, 0, 65, 0
3, 10272, Note_on_c, 0, 63, 64
3, 10368, Note_on_c, 0, 63, 0
3, 10368, Note_on_c, 0, 62, 64
3, 10440, Note_on_c, 0, 62, 0
3, 10440, Note_on_c, 0, 60, 64
3, 10464, Note_on_c, 0, 60, 0
3, 10464, Note_on_c, 0, 58, 64
3, 10536, Note_on_c, 0, 58, 0
3, 10536, Note_on_c, 0, 60, 64
3, 10560, Note_on_c, 0, 60, 0
3, 10560, Note_on_c, 0, 62, 64
3, 10632, Note_on_c, 0, 62, 0
3, 10632, Note_on_c, 0, 63, 64
3, 10656, Note_on_c, 0, 63, 0
3, 10656, Note_on_c, 0, 65, 64
3, 10728, Note_on_c, 0, 65, 0
3, 10728, Note_on_c, 0, 62, 64
3, 10752, Note_on_c, 0, 62, 0
3, 10752, Note_on_c, 0, 63, 64
3, 10880, Note_on_c, 0, 63, 0
3, 10880, Note_on_c, 0, 62, 64
3, 10912, Note_on_c, 0, 62, 0
3, 10912, Note_on_c, 0, 60, 64
3, 10944, Note_on_c, 0, 60, 0
3, 10944, Note_on_c, 0, 62, 64
3, 10976, Note_on_c, 0, 62, 0
3, 10976, Note_on_c, 0, 60, 64
3, 11008, Note_on_c, 0, 60, 0
3, 11008, Note_on_c, 0, 58, 64
3, 11040, Note_on_c, 0, 58, 0
3, 11040, Note_on_c, 0, 60, 64
3, 11072, Note_on_c, 0, 60, 0
3, 11072, Note_on_c, 0, 58, 64
3, 11104, Note_on_c, 0, 58, 0
3, 11104, Note_on_c, 0, 57, 64
3, 11136, Note_on_c, 0, 57, 0
3, 11136, Note_on_c, 0, 58, 64
3, 11168, Note_on_c, 0, 58, 0
3, 11168, Note_on_c, 0, 70, 64
3, 11200, Note_on_c, 0, 70, 0
3, 11200, Note_on_c, 0, 72, 64
3, 11232, Note_on_c, 0, 72, 0
3, 11232, Note_on_c, 0, 74, 64
3, 11264, Note_on_c, 0, 74, 0
3, 11264, Note_on_c, 0, 72, 64
3, 11296, Note_on_c, 0, 72, 0
3, 11296, Note_on_c, 0, 70, 64
3, 11328, Note_on_c, 0, 70, 0
3, 11328, Note_on_c, 0, 65, 64
3, 11520, Note_on_c, 0, 65, 0
3, 11520, Note_on_c, 0, 65, 64
3, 11552, Note_on_c, 0, 65, 0
3, 11552, Note_on_c, 0, 67, 64
3, 11584, Note_on_c, 0, 67, 0
3, 11584, Note_on_c, 0, 68, 64
3, 11616, Note_on_c, 0, 68, 0
3, 11616, Note_on_c, 0, 67, 64
3, 11648, Note_on_c, 0, 67, 0
3, 11648, Note_on_c, 0, 65, 64
3, 11680, Note_on_c, 0, 65, 0
3, 11680, Note_on_c, 0, 68, 64
3, 11712, Note_on_c, 0, 68, 0
3, 11712, Note_on_c, 0, 67, 64
3, 11808, Note_on_c, 0, 67, 0
3, 11808, Note_on_c, 0, 62, 64
3, 11904, Note_on_c, 0, 62, 0
3, 11904, Note_on_c, 0, 63, 64
3, 11936, Note_on_c, 0, 63, 0
3, 11936, Note_on_c, 0, 62, 64
3, 11968, Note_on_c, 0, 62, 0
3, 11968, Note_on_c, 0, 60, 64
3, 12000, Note_on_c, 0, 60, 0
3, 12000, Note_on_c, 0, 62, 64
3, 12032, Note_on_c, 0, 62, 0
3, 12032, Note_on_c, 0, 63, 64
3, 12064, Note_on_c, 0, 63, 0
3, 12064, Note_on_c, 0, 60, 64
3, 12096, Note_on_c, 0, 60, 0
3, 12096, Note_on_c, 0, 62, 64
3, 12192, Note_on_c, 0, 62, 0
3, 12192, Note_on_c, 0, 67, 64
3, 12288, Note_on_c, 0, 67, 0
3, 12288, Note_on_c, 0, 65, 64
3, 12320, Note_on_c, 0, 65, 0
3, 12320, Note_on_c, 0, 58, 64
3, 12352, Note_on_c, 0, 58, 0
3, 12352, Note_on_c, 0, 62, 64
3, 12384, Note_on_c, 0, 62, 0
3, 12384, Note_on_c, 0, 65, 64
3, 12416, Note_on_c, 0, 65, 0
3, 12416, Note_on_c, 0, 62, 64
3, 12448, Note_on_c, 0, 62, 0
3, 12448, Note_on_c, 0, 65, 64
3, 12480, Note_on_c, 0, 65, 0
3, 12480, Note_on_c, 0, 70, 64
3, 12552, Note_on_c, 0, 70, 0
3, 12552, Note_on_c, 0, 64, 64
3, 12576, Note_on_c, 0, 64, 0
3, 12576, Note_on_c, 0, 65, 64
3, 12648, Note_on_c, 0, 65, 0
3, 12648, Note_on_c, 0, 67, 64
3, 12672, Note_on_c, 0, 67, 0
3, 12672, Note_on_c, 0, 69, 64
3, 12704, Note_on_c, 0, 69, 0
3, 12704, Note_on_c, 0, 70, 64
3, 12736, Note_on_c, 0, 70, 0
3, 12736, Note_on_c, 0, 72, 64
3, 12768, Note_on_c, 0, 72, 0
3, 12768, Note_on_c, 0, 70, 64
3, 12800, Note_on_c, 0, 70, 0
3, 12800, Note_on_c, 0, 72, 64
3, 12832, Note_on_c, 0, 72, 0
3, 12832, Note_on_c, 0, 74, 64
3, 12864, Note_on_c, 0, 74, 0
3, 12864, Note_on_c, 0, 65, 64
3, 13056, Note_on_c, 0, 65, 0
3, 13056, Note_on_c, 0, 65, 64
3, 13440, Note_on_c, 0, 65, 0
3, 13440, Note_on_c, 0, 65, 64
3, 13824, Note_on_c, 0, 65, 0
3, 13824, Note_on_c, 0, 65, 64
3, 14016, Note_on_c, 0, 65, 0
3, 14112, Note_on_c, 0, 62, 64
3, 14208, Note_on_c, 0, 62, 0
3, 14208, Note_on_c, 0, 67, 64
3, 14256, Note_on_c, 0, 67, 0
3, 14304, Note_on_c, 0, 55, 64
3, 14432, Note_on_c, 0, 55, 0
3, 14432, Note_on_c, 0, 57, 64
3, 14464, Note_on_c, 0, 57, 0
3, 14464, Note_on_c, 0, 58, 64
3, 14496, Note_on_c, 0, 58, 0
3, 14496, Note_on_c, 0, 57, 64
3, 14528, Note_on_c, 0, 57, 0
3, 14528, Note_on_c, 0, 58, 64
3, 14560, Note_on_c, 0, 58, 0
3, 14560, Note_on_c, 0, 60, 64
3, 14592, Note_on_c, 0, 60, 0
3, 14592, Note_on_c, 0, 58, 64
3, 14624, Note_on_c, 0, 58, 0
3, 14624, Note_on_c, 0, 60, 64
3, 14656, Note_on_c, 0, 60, 0
3, 14656, Note_on_c, 0, 62, 64
3, 14688, Note_on_c, 0, 62, 0
3, 14688, Note_on_c, 0, 60, 64
3, 14816, Note_on_c, 0, 60, 0
3, 14816, Note_on_c, 0, 62, 64
3, 14848, Note_on_c, 0, 62, 0
3, 14848, Note_on_c, 0, 63, 64
3, 14880, Note_on_c, 0, 63, 0
3, 14880, Note_on_c, 0, 62, 64
3, 14912, Note_on_c, 0, 62, 0
3, 14912, Note_on_c, 0, 63, 64
3, 14944, Note_on_c, 0, 63, 0
3, 14944, Note_on_c, 0, 65, 64
3, 14976, Note_on_c, 0, 65, 0
3, 14976, Note_on_c, 0, 63, 64
3, 15008, Note_on_c, 0, 63, 0
3, 15008, Note_on_c, 0, 62, 64
3, 15040, Note_on_c, 0, 62, 0
3, 15040, Note_on_c, 0, 60, 64
3, 15072, Note_on_c, 0, 60, 0
3, 15072, Note_on_c, 0, 62, 64
3, 15200, Note_on_c, 0, 62, 0
3, 15200, Note_on_c, 0, 60, 64
3, 15232, Note_on_c, 0, 60, 0
3, 15232, Note_on_c, 0, 58, 64
3, 15264, Note_on_c, 0, 58, 0
3, 15264, Note_on_c, 0, 60, 64
3, 15296, Note_on_c, 0, 60, 0
3, 15296, Note_on_c, 0, 58, 64
3, 15328, Note_on_c, 0, 58, 0
3, 15328, Note_on_c, 0, 57, 64
3, 15360, Note_on_c, 0, 57, 0
3, 15360, Note_on_c, 0, 58, 64
3, 15432, Note_on_c, 0, 58, 0
3, 15432, Note_on_c, 0, 62, 64
3, 15456, Note_on_c, 0, 62, 0
3, 15456, Note_on_c, 0, 67, 64
3, 15528, Note_on_c, 0, 67, 0
3, 15528, Note_on_c, 0, 62, 64
3, 15552, Note_on_c, 0, 62, 0
3, 15552, Note_on_c, 0, 58, 64
3, 15624, Note_on_c, 0, 58, 0
3, 15624, Note_on_c, 0, 57, 64
3, 15648, Note_on_c, 0, 57, 0
3, 15648, Note_on_c, 0, 58, 64
3, 15720, Note_on_c, 0, 58, 0
3, 15720, Note_on_c, 0, 60, 64
3, 15744, Note_on_c, 0, 60, 0
3, 15744, Note_on_c, 0, 62, 64
3, 15840, Note_on_c, 0, 62, 0
3, 15840, Note_on_c, 0, 58, 64
3, 15936, Note_on_c, 0, 58, 0
3, 15936, Note_on_c, 0, 62, 64
3, 16032, Note_on_c, 0, 62, 0
3, 16032, Note_on_c, 0, 67, 64
3, 16104, Note_on_c, 0, 67, 0
3, 16104, Note_on_c, 0, 65, 64
3, 16128, Note_on_c, 0, 65, 0
3, 16128, Note_on_c, 0, 64, 64
3, 16200, Note_on_c, 0, 64, 0
3, 16200, Note_on_c, 0, 67, 64
3, 16224, Note_on_c, 0, 67, 0
3, 16224, Note_on_c, 0, 72, 64
3, 16296, Note_on_c, 0, 72, 0
3, 16296, Note_on_c, 0, 67, 64
3, 16320, Note_on_c, 0, 67, 0
3, 16320, Note_on_c, 0, 64, 64
3, 16392, Note_on_c, 0, 64, 0
3, 16392, Note_on_c, 0, 60, 64
3, 16416, Note_on_c, 0, 60, 0
3, 16416, Note_on_c, 0, 62, 64
3, 16488, Note_on_c, 0, 62, 0
3, 16488, Note_on_c, 0, 64, 64
3, 16512, Note_on_c, 0, 64, 0
3, 16512, Note_on_c, 0, 65, 64
3, 16608, Note_on_c, 0, 65, 0
3, 16608, Note_on_c, 0, 57, 64
3, 16704, Note_on_c, 0, 57, 0
3, 16704, Note_on_c, 0, 60, 64
3, 16800, Note_on_c, 0, 60, 0
3, 16800, Note_on_c, 0, 65, 64
3, 16872, Note_on_c, 0, 65, 0
3, 16872, Note_on_c, 0, 64, 64
3, 16896, Note_on_c, 0, 64, 0
3, 16896, Note_on_c, 0, 62, 64
3, 16968, Note_on_c, 0, 62, 0
3, 16968, Note_on_c, 0, 65, 64
3, 16992, Note_on_c, 0, 65, 0
3, 16992, Note_on_c, 0, 70, 64
3, 17064, Note_on_c, 0, 70, 0
3, 17064, Note_on_c, 0, 65, 64
3, 17088, Note_on_c, 0, 65, 0
3, 17088, Note_on_c, 0, 62, 64
3, 17160, Note_on_c, 0, 62, 0
3, 17160, Note_on_c, 0, 64, 64
3, 17184, Note_on_c, 0, 64, 0
3, 17184, Note_on_c, 0, 61, 64
3, 17256, Note_on_c, 0, 61, 0
3, 17256, Note_on_c, 0, 62, 64
3, 17280, Note_on_c, 0, 62, 0
3, 17280, Note_on_c, 0, 64, 64
3, 17472, Note_on_c, 0, 64, 0
3, 17568, Note_on_c, 0, 70, 64
3, 17664, Note_on_c, 0, 70, 0
3, 17664, Note_on_c, 0, 69, 64
3, 17760, Note_on_c, 0, 69, 0
3, 17928, Note_on_c, 0, 77, 64
3, 17952, Note_on_c, 0, 77, 0
3, 17952, Note_on_c, 0, 76, 64
3, 17984, Note_on_c, 0, 76, 0
3, 17984, Note_on_c, 0, 77, 64
3, 18016, Note_on_c, 0, 77, 0
3, 18016, Note_on_c, 0, 79, 64
3, 18048, Note_on_c, 0, 79, 0
3, 18048, Note_on_c, 0, 73, 64
3, 18144, Note_on_c, 0, 73, 0
3, 18336, Note_on_c, 0, 64, 64
3, 18432, Note_on_c, 0, 64, 0
3, 18432, Note_on_c, 0, 57, 64
3, 18480, Note_on_c, 0, 57, 0
3, 18528, Note_on_c, 0, 69, 64
3, 18656, Note_on_c, 0, 69, 0
3, 18656, Note_on_c, 0, 67, 64
3, 18688, Note_on_c, 0, 67, 0
3, 18688, Note_on_c, 0, 65, 64
3, 18720, Note_on_c, 0, 65, 0
3, 18720, Note_on_c, 0, 67, 64
3, 18752, Note_on_c, 0, 67, 0
3, 18752, Note_on_c, 0, 65, 64
3, 18784, Note_on_c, 0, 65, 0
3, 18784, Note_on_c, 0, 64, 64
3, 18816, Note_on_c, 0, 64, 0
3, 18816, Note_on_c, 0, 65, 64
3, 18848, Note_on_c, 0, 65, 0
3, 18848, Note_on_c, 0, 64, 64
3, 18880, Note_on_c, 0, 64, 0
3, 18880, Note_on_c, 0, 62, 64
3, 18912, Note_on_c, 0, 62, 0
3, 18912, Note_on_c, 0, 64, 64
3, 19040, Note_on_c, 0, 64, 0
3, 19040, Note_on_c, 0, 62, 64
3, 19072, Note_on_c, 0, 62, 0
3, 19072, Note_on_c, 0, 61, 64
3, 19104, Note_on_c, 0, 61, 0
3, 19104, Note_on_c, 0, 62, 64
3, 19136, Note_on_c, 0, 62, 0
3, 19136, Note_on_c, 0, 61, 64
3, 19168, Note_on_c, 0, 61, 0
3, 19168, Note_on_c, 0, 59, 64
3, 19200, Note_on_c, 0, 59, 0
3, 19200, Note_on_c, 0, 61, 64
3, 19232, Note_on_c, 0, 61, 0
3, 19232, Note_on_c, 0, 62, 64
3, 19264, Note_on_c, 0, 62, 0
3, 19264, Note_on_c, 0, 64, 64
3, 19296, Note_on_c, 0, 64, 0
3, 19296, Note_on_c, 0, 62, 64
3, 19424, Note_on_c, 0, 62, 0
3, 19424, Note_on_c, 0, 64, 64
3, 19456, Note_on_c, 0, 64, 0
3, 19456, Note_on_c, 0, 65, 64
3, 19488, Note_on_c, 0, 65, 0
3, 19488, Note_on_c, 0, 64, 64
3, 19520, Note_on_c, 0, 64, 0
3, 19520, Note_on_c, 0, 65, 64
3, 19552, Note_on_c, 0, 65, 0
3, 19552, Note_on_c, 0, 67, 64
3, 19584, Note_on_c, 0, 67, 0
3, 19584, Note_on_c, 0, 65, 64
3, 19656, Note_on_c, 0, 65, 0
3, 19656, Note_on_c, 0, 62, 64
3, 19680, Note_on_c, 0, 62, 0
3, 19680, Note_on_c, 0, 57, 64
3, 19752, Note_on_c, 0, 57, 0
3, 19752, Note_on_c, 0, 62, 64
3, 19776, Note_on_c, 0, 62, 0
3, 19776, Note_on_c, 0, 65, 64
3, 19848, Note_on_c, 0, 65, 0
3, 19848, Note_on_c, 0, 67, 64
3, 19872, Note_on_c, 0, 67, 0
3, 19872, Note_on_c, 0, 65, 64
3, 19944, Note_on_c, 0, 65, 0
3, 19944, Note_on_c, 0, 64, 64
3, 19968, Note_on_c, 0, 64, 0
3, 19968, Note_on_c, 0, 62, 64
3, 20064, Note_on_c, 0, 62, 0
3, 20064, Note_on_c, 0, 70, 64
3, 20160, Note_on_c, 0, 70, 0
3, 20160, Note_on_c, 0, 67, 64
3, 20256, Note_on_c, 0, 67, 0
3, 20256, Note_on_c, 0, 62, 64
3, 20352, Note_on_c, 0, 62, 0
3, 20352, Note_on_c, 0, 67, 64
3, 20424, Note_on_c, 0, 67, 0
3, 20424, Note_on_c, 0, 64, 64
3, 20448, Note_on_c, 0, 64, 0
3, 20448, Note_on_c, 0, 59, 64
3, 20520, Note_on_c, 0, 59, 0
3, 20520, Note_on_c, 0, 64, 64
3, 20544, Note_on_c, 0, 64, 0
3, 20544, Note_on_c, 0, 67, 64
3, 20616, Note_on_c, 0, 67, 0
3, 20616, Note_on_c, 0, 69, 64
3, 20640, Note_on_c, 0, 69, 0
3, 20640, Note_on_c, 0, 67, 64
3, 20712, Note_on_c, 0, 67, 0
3, 20712, Note_on_c, 0, 65, 64
3, 20736, Note_on_c, 0, 65, 0
3, 20736, Note_on_c, 0, 64, 64
3, 20832, Note_on_c, 0, 64, 0
3, 20832, Note_on_c, 0, 72, 64
3, 20928, Note_on_c, 0, 72, 0
3, 20928, Note_on_c, 0, 69, 64
3, 21024, Note_on_c, 0, 69, 0
3, 21024, Note_on_c, 0, 64, 64
3, 21120, Note_on_c, 0, 64, 0
3, 21120, Note_on_c, 0, 69, 64
3, 21192, Note_on_c, 0, 69, 0
3, 21192, Note_on_c, 0, 65, 64
3, 21216, Note_on_c, 0, 65, 0
3, 21216, Note_on_c, 0, 60, 64
3, 21288, Note_on_c, 0, 60, 0
3, 21288, Note_on_c, 0, 65, 64
3, 21312, Note_on_c, 0, 65, 0
3, 21312, Note_on_c, 0, 69, 64
3, 21384, Note_on_c, 0, 69, 0
3, 21384, Note_on_c, 0, 70, 64
3, 21408, Note_on_c, 0, 70, 0
3, 21408, Note_on_c, 0, 69, 64
3, 21480, Note_on_c, 0, 69, 0
3, 21480, Note_on_c, 0, 67, 64
3, 21504, Note_on_c, 0, 67, 0
3, 21504, Note_on_c, 0, 65, 64
3, 21696, Note_on_c, 0, 65, 0
3, 21792, Note_on_c, 0, 69, 64
3, 21888, Note_on_c, 0, 69, 0
3, 21888, Note_on_c, 0, 70, 64
3, 21960, Note_on_c, 0, 70, 0
3, 21960, Note_on_c, 0, 67, 64
3, 21984, Note_on_c, 0, 67, 0
3, 21984, Note_on_c, 0, 62, 64
3, 22056, Note_on_c, 0, 62, 0
3, 22056, Note_on_c, 0, 67, 64
3, 22080, Note_on_c, 0, 67, 0
3, 22080, Note_on_c, 0, 70, 64
3, 22152, Note_on_c, 0, 70, 0
3, 22152, Note_on_c, 0, 72, 64
3, 22176, Note_on_c, 0, 72, 0
3, 22176, Note_on_c, 0, 70, 64
3, 22248, Note_on_c, 0, 70, 0
3, 22248, Note_on_c, 0, 69, 64
3, 22272, Note_on_c, 0, 69, 0
3, 22272, Note_on_c, 0, 67, 64
3, 22368, Note_on_c, 0, 67, 0
3, 22536, Note_on_c, 0, 64, 64
3, 22560, Note_on_c, 0, 64, 0
3, 22560, Note_on_c, 0, 65, 64
3, 22632, Note_on_c, 0, 65, 0
3, 22632, Note_on_c, 0, 67, 64
3, 22656, Note_on_c, 0, 67, 0
3, 22656, Note_on_c, 0, 61, 64
3, 22848, Note_on_c, 0, 61, 0
3, 22944, Note_on_c, 0, 64, 64
3, 23040, Note_on_c, 0, 64, 0
3, 23040, Note_on_c, 0, 65, 64
3, 23072, Note_on_c, 0, 65, 0
3, 23072, Note_on_c, 0, 67, 64
3, 23104, Note_on_c, 0, 67, 0
3, 23104, Note_on_c, 0, 69, 64
3, 23136, Note_on_c, 0, 69, 0
3, 23136, Note_on_c, 0, 70, 64
3, 23168, Note_on_c, 0, 70, 0
3, 23168, Note_on_c, 0, 67, 64
3, 23200, Note_on_c, 0, 67, 0
3, 23200, Note_on_c, 0, 69, 64
3, 23232, Note_on_c, 0, 69, 0
3, 23232, Note_on_c, 0, 71, 64
3, 23264, Note_on_c, 0, 71, 0
3, 23264, Note_on_c, 0, 69, 64
3, 23296, Note_on_c, 0, 69, 0
3, 23296, Note_on_c, 0, 71, 64
3, 23328, Note_on_c, 0, 71, 0
3, 23328, Note_on_c, 0, 73, 64
3, 23360, Note_on_c, 0, 73, 0
3, 23360, Note_on_c, 0, 71, 64
3, 23392, Note_on_c, 0, 71, 0
3, 23392, Note_on_c, 0, 73, 64
3, 23424, Note_on_c, 0, 73, 0
3, 23424, Note_on_c, 0, 74, 64
3, 23456, Note_on_c, 0, 74, 0
3, 23456, Note_on_c, 0, 65, 64
3, 23488, Note_on_c, 0, 65, 0
3, 23488, Note_on_c, 0, 67, 64
3, 23520, Note_on_c, 0, 67, 0
3, 23520, Note_on_c, 0, 69, 64
3, 23552, Note_on_c, 0, 69, 0
3, 23552, Note_on_c, 0, 67, 64
3, 23584, Note_on_c, 0, 67, 0
3, 23584, Note_on_c, 0, 65, 64
3, 23616, Note_on_c, 0, 65, 0
3, 23616, Note_on_c, 0, 64, 64
3, 23648, Note_on_c, 0, 64, 0
3, 23648, Note_on_c, 0, 67, 64
3, 23680, Note_on_c, 0, 67, 0
3, 23680, Note_on_c, 0, 69, 64
3, 23712, Note_on_c, 0, 69, 0
3, 23712, Note_on_c, 0, 70, 64
3, 23744, Note_on_c, 0, 70, 0
3, 23744, Note_on_c, 0, 69, 64
3, 23776, Note_on_c, 0, 69, 0
3, 23776, Note_on_c, 0, 67, 64
3, 23808, Note_on_c, 0, 67, 0
3, 23808, Note_on_c, 0, 65, 64
3, 23840, Note_on_c, 0, 65, 0
3, 23840, Note_on_c, 0, 62, 64
3, 23872, Note_on_c, 0, 62, 0
3, 23872, Note_on_c, 0, 65, 64
3, 23904, Note_on_c, 0, 65, 0
3, 23904, Note_on_c, 0, 69, 64
3, 23936, Note_on_c, 0, 69, 0
3, 23936, Note_on_c, 0, 65, 64
3, 23968, Note_on_c, 0, 65, 0
3, 23968, Note_on_c, 0, 69, 64
3, 24000, Note_on_c, 0, 69, 0
3, 24000, Note_on_c, 0, 74, 64
3, 24032, Note_on_c, 0, 74, 0
3, 24032, Note_on_c, 0, 73, 64
3, 24064, Note_on_c, 0, 73, 0
3, 24064, Note_on_c, 0, 71, 64
3, 24096, Note_on_c, 0, 71, 0
3, 24096, Note_on_c, 0, 73, 64
3, 24128, Note_on_c, 0, 73, 0
3, 24128, Note_on_c, 0, 74, 64
3, 24160, Note_on_c, 0, 74, 0
3, 24160, Note_on_c, 0, 76, 64
3, 24192, Note_on_c, 0, 76, 0
3, 24192, Note_on_c, 0, 74, 64
3, 24576, Note_on_c, 0, 74, 0
3, 24576, Note_on_c, 0, 74, 64
3, 24704, Note_on_c, 0, 74, 0
3, 24704, Note_on_c, 0, 73, 64
3, 24736, Note_on_c, 0, 73, 0
3, 24736, Note_on_c, 0, 71, 64
3, 24768, Note_on_c, 0, 71, 0
3, 24768, Note_on_c, 0, 73, 64
3, 24864, Note_on_c, 0, 73, 0
3, 24992, Note_on_c, 0, 74, 64
3, 25024, Note_on_c, 0, 74, 0
3, 25024, Note_on_c, 0, 69, 64
3, 25056, Note_on_c, 0, 69, 0
3, 25056, Note_on_c, 0, 65, 64
3, 25088, Note_on_c, 0, 65, 0
3, 25088, Note_on_c, 0, 69, 64
3, 25120, Note_on_c, 0, 69, 0
3, 25120, Note_on_c, 0, 65, 64
3, 25152, Note_on_c, 0, 65, 0
3, 25152, Note_on_c, 0, 62, 64
3, 25184, Note_on_c, 0, 62, 0
3, 25184, Note_on_c, 0, 65, 64
3, 25216, Note_on_c, 0, 65, 0
3, 25216, Note_on_c, 0, 69, 64
3, 25248, Note_on_c, 0, 69, 0
3, 25248, Note_on_c, 0, 74, 64
3, 25280, Note_on_c, 0, 74, 0
3, 25280, Note_on_c, 0, 73, 64
3, 25312, Note_on_c, 0, 73, 0
3, 25312, Note_on_c, 0, 71, 64
3, 25344, Note_on_c, 0, 71, 0
3, 25344, Note_on_c, 0, 73, 64
3, 25376, Note_on_c, 0, 73, 0
3, 25376, Note_on_c, 0, 69, 64
3, 25408, Note_on_c, 0, 69, 0
3, 25408, Note_on_c, 0, 64, 64
3, 25440, Note_on_c, 0, 64, 0
3, 25440, Note_on_c, 0, 61, 64
3, 25472, Note_on_c, 0, 61, 0
3, 25472, Note_on_c, 0, 62, 64
3, 25504, Note_on_c, 0, 62, 0
3, 25504, Note_on_c, 0, 64, 64
3, 25536, Note_on_c, 0, 64, 0
3, 25536, Note_on_c, 0, 65, 64
3, 25568, Note_on_c, 0, 65, 0
3, 25568, Note_on_c, 0, 64, 64
3, 25600, Note_on_c, 0, 64, 0
3, 25600, Note_on_c, 0, 62, 64
3, 25632, Note_on_c, 0, 62, 0
3, 25632, Note_on_c, 0, 64, 64
3, 25704, Note_on_c, 0, 64, 0
3, 25704, Note_on_c, 0, 73, 64
3, 25728, Note_on_c, 0, 73, 0
3, 25728, Note_on_c, 0, 74, 64
3, 25856, Note_on_c, 0, 74, 0
3, 25856, Note_on_c, 0, 73, 64
3, 25888, Note_on_c, 0, 73, 0
3, 25888, Note_on_c, 0, 71, 64
3, 25920, Note_on_c, 0, 71, 0
3, 25920, Note_on_c, 0, 73, 64
3, 25952, Note_on_c, 0, 73, 0
3, 25952, Note_on_c, 0, 74, 64
3, 25984, Note_on_c, 0, 74, 0
3, 25984, Note_on_c, 0, 76, 64
3, 26016, Note_on_c, 0, 76, 0
3, 26016, Note_on_c, 0, 77, 64
3, 26048, Note_on_c, 0, 77, 0
3, 26048, Note_on_c, 0, 76, 64
3, 26080, Note_on_c, 0, 76, 0
3, 26080, Note_on_c, 0, 74, 64
3, 26112, Note_on_c, 0, 74, 0
3, 26112, Note_on_c, 0, 76, 64
3, 26184, Note_on_c, 0, 76, 0
3, 26184, Note_on_c, 0, 67, 64
3, 26208, Note_on_c, 0, 67, 0
3, 26208, Note_on_c, 0, 65, 64
3, 26240, Note_on_c, 0, 65, 0
3, 26240, Note_on_c, 0, 64, 64
3, 26272, Note_on_c, 0, 64, 0
3, 26272, Note_on_c, 0, 62, 64
3, 26304, Note_on_c, 0, 62, 0
3, 26304, Note_on_c, 0, 72, 64
3, 26320, Note_on_c, 0, 72, 0
3, 26320, Note_on_c, 0, 71, 64
3, 26336, Note_on_c, 0, 71, 0
3, 26336, Note_on_c, 0, 72, 64
3, 26352, Note_on_c, 0, 72, 0
3, 26352, Note_on_c, 0, 71, 64
3, 26368, Note_on_c, 0, 71, 0
3, 26368, Note_on_c, 0, 72, 64
3, 26384, Note_on_c, 0, 72, 0
3, 26384, Note_on_c, 0, 71, 64
3, 26400, Note_on_c, 0, 71, 0
3, 26400, Note_on_c, 0, 72, 64
3, 26416, Note_on_c, 0, 72, 0
3, 26416, Note_on_c, 0, 71, 64
3, 26432, Note_on_c, 0, 71, 0
3, 26432, Note_on_c, 0, 72, 64
3, 26448, Note_on_c, 0, 72, 0
3, 26448, Note_on_c, 0, 71, 64
3, 26464, Note_on_c, 0, 71, 0
3, 26464, Note_on_c, 0, 69, 64
3, 26480, Note_on_c, 0, 69, 0
3, 26480, Note_on_c, 0, 71, 64
3, 26496, Note_on_c, 0, 71, 0
3, 26496, Note_on_c, 0, 69, 64
3, 26592, Note_on_c, 0, 69, 0
3, 26760, Note_on_c, 0, 70, 64
3, 26784, Note_on_c, 0, 70, 0
3, 26784, Note_on_c, 0, 69, 64
3, 26856, Note_on_c, 0, 69, 0
3, 26856, Note_on_c, 0, 67, 64
3, 26880, Note_on_c, 0, 67, 0
3, 26880, Note_on_c, 0, 65, 64
3, 26912, Note_on_c, 0, 65, 0
3, 26912, Note_on_c, 0, 64, 64
3, 26944, Note_on_c, 0, 64, 0
3, 26944, Note_on_c, 0, 62, 64
3, 26976, Note_on_c, 0, 62, 0
3, 26976, Note_on_c, 0, 69, 64
3, 27104, Note_on_c, 0, 69, 0
3, 27104, Note_on_c, 0, 69, 88
3, 27168, Note_on_c, 0, 69, 0
3, 27168, Note_on_c, 0, 67, 88
3, 27200, Note_on_c, 0, 67, 0
3, 27200, Note_on_c, 0, 69, 88
3, 27232, Note_on_c, 0, 69, 0
3, 27232, Note_on_c, 0, 70, 88
3, 27264, Note_on_c, 0, 70, 0
3, 27264, Note_on_c, 0, 66, 88
3, 27648, Note_on_c, 0, 66, 0
3, 29856, Note_on_c, 0, 69, 88
3, 29952, Note_on_c, 0, 69, 0
3, 29952, Note_on_c, 0, 74, 88
3, 30000, Note_on_c, 0, 74, 0
3, 30048, Note_on_c, 0, 62, 88
3, 30176, Note_on_c, 0, 62, 0
3, 30176, Note_on_c, 0, 64, 88
3, 30208, Note_on_c, 0, 64, 0
3, 30208, Note_on_c, 0, 65, 88
3, 30240, Note_on_c, 0, 65, 0
3, 30240, Note_on_c, 0, 64, 88
3, 30272, Note_on_c, 0, 64, 0
3, 30272, Note_on_c, 0, 65, 88
3, 30304, Note_on_c, 0, 65, 0
3, 30304, Note_on_c, 0, 67, 88
3, 30336, Note_on_c, 0, 67, 0
3, 30336, Note_on_c, 0, 65, 88
3, 30368, Note_on_c, 0, 65, 0
3, 30368, Note_on_c, 0, 67, 88
3, 30400, Note_on_c, 0, 67, 0
3, 30400, Note_on_c, 0, 69, 88
3, 30432, Note_on_c, 0, 69, 0
3, 30432, Note_on_c, 0, 67, 88
3, 30560, Note_on_c, 0, 67, 0
3, 30560, Note_on_c, 0, 69, 88
3, 30592, Note_on_c, 0, 69, 0
3, 30592, Note_on_c, 0, 70, 88
3, 30624, Note_on_c, 0, 70, 0
3, 30624, Note_on_c, 0, 69, 88
3, 30656, Note_on_c, 0, 69, 0
3, 30656, Note_on_c, 0, 70, 88
3, 30688, Note_on_c, 0, 70, 0
3, 30688, Note_on_c, 0, 72, 88
3, 30720, Note_on_c, 0, 72, 0
3, 30720, Note_on_c, 0, 70, 88
3, 30752, Note_on_c, 0, 70, 0
3, 30752, Note_on_c, 0, 69, 88
3, 30784, Note_on_c, 0, 69, 0
3, 30784, Note_on_c, 0, 67, 88
3, 30816, Note_on_c, 0, 67, 0
3, 30816, Note_on_c, 0, 69, 88
3, 30944, Note_on_c, 0, 69, 0
3, 30944, Note_on_c, 0, 67, 88
3, 30976, Note_on_c, 0, 67, 0
3, 30976, Note_on_c, 0, 65, 88
3, 31008, Note_on_c, 0, 65, 0
3, 31008, Note_on_c, 0, 67, 88
3, 31040, Note_on_c, 0, 67, 0
3, 31040, Note_on_c, 0, 65, 88
3, 31072, Note_on_c, 0, 65, 0
3, 31072, Note_on_c, 0, 64, 88
3, 31104, Note_on_c, 0, 64, 0
3, 31104, Note_on_c, 0, 65, 88
3, 31152, Note_on_c, 0, 65, 0
3, 31176, Note_on_c, 0, 69, 88
3, 31200, Note_on_c, 0, 69, 0
3, 31200, Note_on_c, 0, 74, 88
3, 31248, Note_on_c, 0, 74, 0
3, 31272, Note_on_c, 0, 69, 88
3, 31296, Note_on_c, 0, 69, 0
3, 31296, Note_on_c, 0, 65, 88
3, 31344, Note_on_c, 0, 65, 0
3, 31368, Note_on_c, 0, 64, 88
3, 31392, Note_on_c, 0, 64, 0
3, 31392, Note_on_c, 0, 65, 88
3, 31464, Note_on_c, 0, 65, 0
3, 31464, Note_on_c, 0, 67, 88
3, 31488, Note_on_c, 0, 67, 0
3, 31488, Note_on_c, 0, 69, 88
3, 31520, Note_on_c, 0, 69, 0
3, 31520, Note_on_c, 0, 70, 88
3, 31552, Note_on_c, 0, 70, 0
3, 31552, Note_on_c, 0, 72, 88
3, 31584, Note_on_c, 0, 72, 0
3, 31584, Note_on_c, 0, 70, 88
3, 31616, Note_on_c, 0, 70, 0
3, 31616, Note_on_c, 0, 69, 88
3, 31648, Note_on_c, 0, 69, 0
3, 31648, Note_on_c, 0, 67, 88
3, 31680, Note_on_c, 0, 67, 0
3, 31680, Note_on_c, 0, 66, 88
3, 31776, Note_on_c, 0, 66, 0
3, 31776, Note_on_c, 0, 75, 88
3, 31872, Note_on_c, 0, 75, 0
3, 31872, Note_on_c, 0, 74, 88
3, 31968, Note_on_c, 0, 74, 0
3, 32160, Note_on_c, 0, 62, 88
3, 32256, Note_on_c, 0, 62, 0
3, 32256, Note_on_c, 0, 62, 88
3, 32352, Note_on_c, 0, 62, 0
3, 32352, Note_on_c, 0, 63, 88
3, 32384, Note_on_c, 0, 63, 0
3, 32384, Note_on_c, 0, 62, 88
3, 32416, Note_on_c, 0, 62, 0
3, 32416, Note_on_c, 0, 65, 88
3, 32448, Note_on_c, 0, 65, 0
3, 32448, Note_on_c, 0, 63, 88
3, 32640, Note_on_c, 0, 63, 0
3, 32640, Note_on_c, 0, 62, 88
3, 33024, Note_on_c, 0, 62, 0
3, 33024, Note_on_c, 0, 62, 88
3, 33096, Note_on_c, 0, 62, 0
3, 33096, Note_on_c, 0, 67, 88
3, 33120, Note_on_c, 0, 67, 0
3, 33120, Note_on_c, 0, 70, 88
3, 33192, Note_on_c, 0, 70, 0
3, 33192, Note_on_c, 0, 67, 88
3, 33216, Note_on_c, 0, 67, 0
3, 33216, Note_on_c, 0, 62, 88
3, 33288, Note_on_c, 0, 62, 0
3, 33288, Note_on_c, 0, 60, 88
3, 33312, Note_on_c, 0, 60, 0
3, 33312, Note_on_c, 0, 62, 88
3, 33384, Note_on_c, 0, 62, 0
3, 33384, Note_on_c, 0, 64, 88
3, 33408, Note_on_c, 0, 64, 0
3, 33408, Note_on_c, 0, 65, 88
3, 33480, Note_on_c, 0, 65, 0
3, 33480, Note_on_c, 0, 60, 88
3, 33504, Note_on_c, 0, 60, 0
3, 33504, Note_on_c, 0, 57, 88
3, 33576, Note_on_c, 0, 57, 0
3, 33576, Note_on_c, 0, 60, 88
3, 33600, Note_on_c, 0, 60, 0
3, 33600, Note_on_c, 0, 65, 88
3, 33672, Note_on_c, 0, 65, 0
3, 33672, Note_on_c, 0, 69, 88
3, 33696, Note_on_c, 0, 69, 0
3, 33696, Note_on_c, 0, 67, 88
3, 33768, Note_on_c, 0, 67, 0
3, 33768, Note_on_c, 0, 65, 88
3, 33792, Note_on_c, 0, 65, 0
3, 33792, Note_on_c, 0, 64, 88
3, 33864, Note_on_c, 0, 64, 0
3, 33864, Note_on_c, 0, 69, 88
3, 33888, Note_on_c, 0, 69, 0
3, 33888, Note_on_c, 0, 72, 88
3, 33960, Note_on_c, 0, 72, 0
3, 33960, Note_on_c, 0, 69, 88
3, 33984, Note_on_c, 0, 69, 0
3, 33984, Note_on_c, 0, 64, 88
3, 34056, Note_on_c, 0, 64, 0
3, 34056, Note_on_c, 0, 62, 88
3, 34080, Note_on_c, 0, 62, 0
3, 34080, Note_on_c, 0, 64, 88
3, 34152, Note_on_c, 0, 64, 0
3, 34152, Note_on_c, 0, 66, 88
3, 34176, Note_on_c, 0, 66, 0
3, 34176, Note_on_c, 0, 67, 88
3, 34248, Note_on_c, 0, 67, 0
3, 34248, Note_on_c, 0, 62, 88
3, 34272, Note_on_c, 0, 62, 0
3, 34272, Note_on_c, 0, 58, 88
3, 34344, Note_on_c, 0, 58, 0
3, 34344, Note_on_c, 0, 62, 88
3, 34368, Note_on_c, 0, 62, 0
3, 34368, Note_on_c, 0, 67, 88
3, 34440, Note_on_c, 0, 67, 0
3, 34440, Note_on_c, 0, 70, 88
3, 34464, Note_on_c, 0, 70, 0
3, 34464, Note_on_c, 0, 69, 88
3, 34536, Note_on_c, 0, 69, 0
3, 34536, Note_on_c, 0, 67, 88
3, 34560, Note_on_c, 0, 67, 0
3, 34560, Note_on_c, 0, 65, 88
3, 34632, Note_on_c, 0, 65, 0
3, 34632, Note_on_c, 0, 64, 88
3, 34656, Note_on_c, 0, 64, 0
3, 34656, Note_on_c, 0, 65, 88
3, 34728, Note_on_c, 0, 65, 0
3, 34728, Note_on_c, 0, 67, 88
3, 34752, Note_on_c, 0, 67, 0
3, 34752, Note_on_c, 0, 69, 88
3, 34824, Note_on_c, 0, 69, 0
3, 34824, Note_on_c, 0, 67, 88
3, 34848, Note_on_c, 0, 67, 0
3, 34848, Note_on_c, 0, 65, 88
3, 34920, Note_on_c, 0, 65, 0
3, 34920, Note_on_c, 0, 69, 88
3, 34944, Note_on_c, 0, 69, 0
3, 34944, Note_on_c, 0, 64, 88
3, 35016, Note_on_c, 0, 64, 0
3, 35016, Note_on_c, 0, 62, 88
3, 35040, Note_on_c, 0, 62, 0
3, 35040, Note_on_c, 0, 64, 88
3, 35112, Note_on_c, 0, 64, 0
3, 35112, Note_on_c, 0, 65, 88
3, 35136, Note_on_c, 0, 65, 0
3, 35136, Note_on_c, 0, 67, 88
3, 35208, Note_on_c, 0, 67, 0
3, 35208, Note_on_c, 0, 65, 88
3, 35232, Note_on_c, 0, 65, 0
3, 35232, Note_on_c, 0, 64, 88
3, 35304, Note_on_c, 0, 64, 0
3, 35304, Note_on_c, 0, 67, 88
3, 35328, Note_on_c, 0, 67, 0
3, 35328, Note_on_c, 0, 62, 88
3, 35400, Note_on_c, 0, 62, 0
3, 35400, Note_on_c, 0, 61, 88
3, 35424, Note_on_c, 0, 61, 0
3, 35424, Note_on_c, 0, 62, 88
3, 35496, Note_on_c, 0, 62, 0
3, 35496, Note_on_c, 0, 64, 88
3, 35520, Note_on_c, 0, 64, 0
3, 35520, Note_on_c, 0, 65, 88
3, 35592, Note_on_c, 0, 65, 0
3, 35592, Note_on_c, 0, 67, 88
3, 35616, Note_on_c, 0, 67, 0
3, 35616, Note_on_c, 0, 69, 88
3, 35688, Note_on_c, 0, 69, 0
3, 35688, Note_on_c, 0, 67, 88
3, 35712, Note_on_c, 0, 67, 0
3, 35712, Note_on_c, 0, 65, 88
3, 35784, Note_on_c, 0, 65, 0
3, 35784, Note_on_c, 0, 67, 88
3, 35808, Note_on_c, 0, 67, 0
3, 35808, Note_on_c, 0, 65, 88
3, 35880, Note_on_c, 0, 65, 0
3, 35880, Note_on_c, 0, 64, 88
3, 35904, Note_on_c, 0, 64, 0
3, 35904, Note_on_c, 0, 62, 88
3, 36000, Note_on_c, 0, 62, 0
3, 36000, Note_on_c, 0, 70, 88
3, 36096, Note_on_c, 0, 70, 0
3, 36096, Note_on_c, 0, 69, 88
3, 36192, Note_on_c, 0, 69, 0
3, 36192, Note_on_c, 0, 61, 88
3, 36288, Note_on_c, 0, 61, 0
3, 36384, Note_on_c, 0, 63, 88
3, 36480, Note_on_c, 0, 63, 0
3, 36480, Note_on_c, 0, 62, 88
3, 36576, Note_on_c, 0, 62, 0
3, 36768, Note_on_c, 0, 62, 88
3, 36864, Note_on_c, 0, 62, 0
3, 36864, Note_on_c, 0, 69, 88
3, 36960, Note_on_c, 0, 69, 0
3, 37152, Note_on_c, 0, 69, 88
3, 37248, Note_on_c, 0, 69, 0
3, 37248, Note_on_c, 0, 64, 88
3, 37344, Note_on_c, 0, 64, 0
3, 37536, Note_on_c, 0, 69, 88
3, 37632, Note_on_c, 0, 69, 0
3, 37632, Note_on_c, 0, 71, 88
3, 37728, Note_on_c, 0, 71, 0
3, 37920, Note_on_c, 0, 71, 88
3, 38016, Note_on_c, 0, 71, 0
3, 38016, Note_on_c, 0, 66, 88
3, 38112, Note_on_c, 0, 66, 0
3, 38304, Note_on_c, 0, 71, 88
3, 38400, Note_on_c, 0, 71, 0
3, 38400, Note_on_c, 0, 64, 88
3, 38496, Note_on_c, 0, 64, 0
3, 39072, Note_on_c, 0, 65, 88
3, 39168, Note_on_c, 0, 65, 0
3, 39168, Note_on_c, 0, 60, 88
3, 39216, Note_on_c, 0, 60, 0
3, 39264, Note_on_c, 0, 72, 88
3, 39392, Note_on_c, 0, 72, 0
3, 39392, Note_on_c, 0, 70, 88
3, 39424, Note_on_c, 0, 70, 0
3, 39424, Note_on_c, 0, 69, 88
3, 39456, Note_on_c, 0, 69, 0
3, 39456, Note_on_c, 0, 70, 88
3, 39488, Note_on_c, 0, 70, 0
3, 39488, Note_on_c, 0, 69, 88
3, 39520, Note_on_c, 0, 69, 0
3, 39520, Note_on_c, 0, 67, 88
3, 39552, Note_on_c, 0, 67, 0
3, 39552, Note_on_c, 0, 69, 88
3, 39584, Note_on_c, 0, 69, 0
3, 39584, Note_on_c, 0, 67, 88
3, 39616, Note_on_c, 0, 67, 0
3, 39616, Note_on_c, 0, 65, 88
3, 39648, Note_on_c, 0, 65, 0
3, 39648, Note_on_c, 0, 67, 88
3, 39776, Note_on_c, 0, 67, 0
3, 39776, Note_on_c, 0, 65, 88
3, 39808, Note_on_c, 0, 65, 0
3, 39808, Note_on_c, 0, 64, 88
3, 39840, Note_on_c, 0, 64, 0
3, 39840, Note_on_c, 0, 65, 88
3, 39872, Note_on_c, 0, 65, 0
3, 39872, Note_on_c, 0, 64, 88
3, 39904, Note_on_c, 0, 64, 0
3, 39904, Note_on_c, 0, 62, 88
3, 39936, Note_on_c, 0, 62, 0
3, 39936, Note_on_c, 0, 64, 88
3, 39968, Note_on_c, 0, 64, 0
3, 39968, Note_on_c, 0, 65, 88
3, 40000, Note_on_c, 0, 65, 0
3, 40000, Note_on_c, 0, 67, 88
3, 40032, Note_on_c, 0, 67, 0
3, 40032, Note_on_c, 0, 65, 88
3, 40160, Note_on_c, 0, 65, 0
3, 40160, Note_on_c, 0, 67, 88
3, 40192, Note_on_c, 0, 67, 0
3, 40192, Note_on_c, 0, 69, 88
3, 40224, Note_on_c, 0, 69, 0
3, 40224, Note_on_c, 0, 67, 88
3, 40256, Note_on_c, 0, 67, 0
3, 40256, Note_on_c, 0, 69, 88
3, 40288, Note_on_c, 0, 69, 0
3, 40288, Note_on_c, 0, 70, 88
3, 40320, Note_on_c, 0, 70, 0
3, 40320, Note_on_c, 0, 69, 88
3, 40392, Note_on_c, 0, 69, 0
3, 40392, Note_on_c, 0, 65, 88
3, 40416, Note_on_c, 0, 65, 0
3, 40416, Note_on_c, 0, 57, 88
3, 40488, Note_on_c, 0, 57, 0
3, 40488, Note_on_c, 0, 65, 88
3, 40512, Note_on_c, 0, 65, 0
3, 40512, Note_on_c, 0, 69, 88
3, 40584, Note_on_c, 0, 69, 0
3, 40584, Note_on_c, 0, 70, 88
3, 40608, Note_on_c, 0, 70, 0
3, 40608, Note_on_c, 0, 69, 88
3, 40680, Note_on_c, 0, 69, 0
3, 40680, Note_on_c, 0, 67, 88
3, 40704, Note_on_c, 0, 67, 0
3, 40704, Note_on_c, 0, 65, 88
3, 40800, Note_on_c, 0, 65, 0
3, 40800, Note_on_c, 0, 69, 88
3, 40896, Note_on_c, 0, 69, 0
3, 40896, Note_on_c, 0, 74, 88
3, 40968, Note_on_c, 0, 74, 0
3, 40968, Note_on_c, 0, 72, 88
3, 40992, Note_on_c, 0, 72, 0
3, 40992, Note_on_c, 0, 70, 88
3, 41064, Note_on_c, 0, 70, 0
3, 41064, Note_on_c, 0, 74, 88
3, 41088, Note_on_c, 0, 74, 0
3, 41088, Note_on_c, 0, 72, 88
3, 41216, Note_on_c, 0, 72, 0
3, 41216, Note_on_c, 0, 74, 88
3, 41248, Note_on_c, 0, 74, 0
3, 41248, Note_on_c, 0, 75, 88
3, 41280, Note_on_c, 0, 75, 0
3, 41280, Note_on_c, 0, 74, 88
3, 41312, Note_on_c, 0, 74, 0
3, 41312, Note_on_c, 0, 72, 88
3, 41344, Note_on_c, 0, 72, 0
3, 41344, Note_on_c, 0, 70, 88
3, 41376, Note_on_c, 0, 70, 0
3, 41376, Note_on_c, 0, 69, 88
3, 41408, Note_on_c, 0, 69, 0
3, 41408, Note_on_c, 0, 70, 88
3, 41440, Note_on_c, 0, 70, 0
3, 41440, Note_on_c, 0, 72, 88
3, 41472, Note_on_c, 0, 72, 0
3, 41472, Note_on_c, 0, 70, 88
3, 41504, Note_on_c, 0, 70, 0
3, 41504, Note_on_c, 0, 69, 88
3, 41536, Note_on_c, 0, 69, 0
3, 41536, Note_on_c, 0, 67, 88
3, 41568, Note_on_c, 0, 67, 0
3, 41568, Note_on_c, 0, 69, 88
3, 41600, Note_on_c, 0, 69, 0
3, 41600, Note_on_c, 0, 67, 88
3, 41632, Note_on_c, 0, 67, 0
3, 41632, Note_on_c, 0, 70, 88
3, 41664, Note_on_c, 0, 70, 0
3, 41664, Note_on_c, 0, 69, 88
3, 41696, Note_on_c, 0, 69, 0
3, 41696, Note_on_c, 0, 70, 88
3, 41728, Note_on_c, 0, 70, 0
3, 41728, Note_on_c, 0, 72, 88
3, 41760, Note_on_c, 0, 72, 0
3, 41760, Note_on_c, 0, 74, 88
3, 41792, Note_on_c, 0, 74, 0
3, 41792, Note_on_c, 0, 72, 88
3, 41824, Note_on_c, 0, 72, 0
3, 41824, Note_on_c, 0, 70, 88
3, 41856, Note_on_c, 0, 70, 0
3, 41856, Note_on_c, 0, 72, 88
3, 41952, Note_on_c, 0, 72, 0
3, 41952, Note_on_c, 0, 69, 88
3, 42048, Note_on_c, 0, 69, 0
3, 42048, Note_on_c, 0, 65, 88
3, 42144, Note_on_c, 0, 65, 0
3, 42144, Note_on_c, 0, 72, 88
3, 42240, Note_on_c, 0, 72, 0
3, 42240, Note_on_c, 0, 67, 88
3, 42336, Note_on_c, 0, 67, 0
3, 42432, Note_on_c, 0, 71, 88
3, 42528, Note_on_c, 0, 71, 0
3, 42624, Note_on_c, 0, 64, 88
3, 43008, Note_on_c, 0, 64, 0
3, 43008, Note_on_c, 0, 64, 88
3, 43392, Note_on_c, 0, 64, 0
3, 43392, Note_on_c, 0, 64, 88
3, 43776, Note_on_c, 0, 64, 0
3, 43776, Note_on_c, 0, 64, 88
3, 43968, Note_on_c, 0, 64, 0
3, 44064, Note_on_c, 0, 64, 88
3, 44160, Note_on_c, 0, 64, 0
3, 44160, Note_on_c, 0, 59, 88
3, 44352, Note_on_c, 0, 59, 0
3, 44448, Note_on_c, 0, 64, 88
3, 44544, Note_on_c, 0, 64, 0
3, 44544, Note_on_c, 0, 65, 88
3, 44736, Note_on_c, 0, 65, 0
3, 44832, Note_on_c, 0, 65, 88
3, 44928, Note_on_c, 0, 65, 0
3, 44928, Note_on_c, 0, 60, 88
3, 45120, Note_on_c, 0, 60, 0
3, 45216, Note_on_c, 0, 65, 88
3, 45312, Note_on_c, 0, 65, 0
3, 45312, Note_on_c, 0, 67, 88
3, 45384, Note_on_c, 0, 67, 0
3, 45384, Note_on_c, 0, 64, 88
3, 45408, Note_on_c, 0, 64, 0
3, 45408, Note_on_c, 0, 61, 88
3, 45480, Note_on_c, 0, 61, 0
3, 45480, Note_on_c, 0, 64, 88
3, 45504, Note_on_c, 0, 64, 0
3, 45504, Note_on_c, 0, 67, 88
3, 45576, Note_on_c, 0, 67, 0
3, 45576, Note_on_c, 0, 65, 88
3, 45600, Note_on_c, 0, 65, 0
3, 45600, Note_on_c, 0, 67, 88
3, 45672, Note_on_c, 0, 67, 0
3, 45672, Note_on_c, 0, 69, 88
3, 45696, Note_on_c, 0, 69, 0
3, 45696, Note_on_c, 0, 70, 88
3, 45768, Note_on_c, 0, 70, 0
3, 45768, Note_on_c, 0, 67, 88
3, 45792, Note_on_c, 0, 67, 0
3, 45792, Note_on_c, 0, 64, 88
3, 45864, Note_on_c, 0, 64, 0
3, 45864, Note_on_c, 0, 67, 88
3, 45888, Note_on_c, 0, 67, 0
3, 45888, Note_on_c, 0, 70, 88
3, 45960, Note_on_c, 0, 70, 0
3, 45960, Note_on_c, 0, 69, 88
3, 45984, Note_on_c, 0, 69, 0
3, 45984, Note_on_c, 0, 71, 88
3, 46056, Note_on_c, 0, 71, 0
3, 46056, Note_on_c, 0, 73, 88
3, 46080, Note_on_c, 0, 73, 0
3, 46080, Note_on_c, 0, 74, 88
3, 46152, Note_on_c, 0, 74, 0
3, 46152, Note_on_c, 0, 70, 88
3, 46176, Note_on_c, 0, 70, 0
3, 46176, Note_on_c, 0, 67, 88
3, 46248, Note_on_c, 0, 67, 0
3, 46248, Note_on_c, 0, 70, 88
3, 46272, Note_on_c, 0, 70, 0
3, 46272, Note_on_c, 0, 74, 88
3, 46344, Note_on_c, 0, 74, 0
3, 46344, Note_on_c, 0, 73, 88
3, 46368, Note_on_c, 0, 73, 0
3, 46368, Note_on_c, 0, 74, 88
3, 46440, Note_on_c, 0, 74, 0
3, 46440, Note_on_c, 0, 76, 88
3, 46464, Note_on_c, 0, 76, 0
3, 46464, Note_on_c, 0, 77, 88
3, 46496, Note_on_c, 0, 77, 0
3, 46496, Note_on_c, 0, 74, 88
3, 46528, Note_on_c, 0, 74, 0
3, 46528, Note_on_c, 0, 69, 88
3, 46560, Note_on_c, 0, 69, 0
3, 46560, Note_on_c, 0, 65, 88
3, 46592, Note_on_c, 0, 65, 0
3, 46592, Note_on_c, 0, 67, 88
3, 46624, Note_on_c, 0, 67, 0
3, 46624, Note_on_c, 0, 69, 88
3, 46656, Note_on_c, 0, 69, 0
3, 46656, Note_on_c, 0, 70, 88
3, 46848, Note_on_c, 0, 70, 0
3, 46848, Note_on_c, 0, 69, 88
3, 46944, Note_on_c, 0, 69, 0
3, 46944, Note_on_c, 0, 57, 88
3, 47040, Note_on_c, 0, 57, 0
3, 47136, Note_on_c, 0, 63, 88
3, 47232, Note_on_c, 0, 63, 0
3, 47232, Note_on_c, 0, 62, 88
3, 47304, Note_on_c, 0, 62, 0
3, 47304, Note_on_c, 0, 64, 88
3, 47328, Note_on_c, 0, 64, 0
3, 47328, Note_on_c, 0, 65, 88
3, 47360, Note_on_c, 0, 65, 0
3, 47360, Note_on_c, 0, 64, 88
3, 47392, Note_on_c, 0, 64, 0
3, 47392, Note_on_c, 0, 62, 88
3, 47424, Note_on_c, 0, 62, 0
3, 47424, Note_on_c, 0, 61, 88
3, 47496, Note_on_c, 0, 61, 0
3, 47496, Note_on_c, 0, 69, 88
3, 47520, Note_on_c, 0, 69, 0
3, 47520, Note_on_c, 0, 70, 88
3, 47552, Note_on_c, 0, 70, 0
3, 47552, Note_on_c, 0, 69, 88
3, 47584, Note_on_c, 0, 69, 0
3, 47584, Note_on_c, 0, 67, 88
3, 47616, Note_on_c, 0, 67, 0
3, 47616, Note_on_c, 0, 69, 88
3, 47712, Note_on_c, 0, 69, 0
3, 47712, Note_on_c, 0, 65, 88
3, 47808, Note_on_c, 0, 65, 0
3, 47808, Note_on_c, 0, 62, 88
3, 47904, Note_on_c, 0, 62, 0
3, 47904, Note_on_c, 0, 69, 88
3, 48000, Note_on_c, 0, 69, 0
3, 48000, Note_on_c, 0, 64, 88
3, 48096, Note_on_c, 0, 64, 0
3, 48288, Note_on_c, 0, 64, 88
3, 48384, Note_on_c, 0, 64, 0
3, 48384, Note_on_c, 0, 76, 88
3, 48480, Note_on_c, 0, 76, 0
3, 48480, Note_on_c, 0, 64, 88
3, 48576, Note_on_c, 0, 64, 0
3, 48576, Note_on_c, 0, 57, 88
3, 48672, Note_on_c, 0, 57, 0
3, 48672, Note_on_c, 0, 64, 88
3, 48768, Note_on_c, 0, 64, 0
3, 48768, Note_on_c, 0, 62, 88
3, 48864, Note_on_c, 0, 62, 0
3, 49056, Note_on_c, 0, 62, 88
3, 49152, Note_on_c, 0, 62, 0
3, 49152, Note_on_c, 0, 74, 88
3, 49248, Note_on_c, 0, 74, 0
3, 49248, Note_on_c, 0, 62, 88
3, 49344, Note_on_c, 0, 62, 0
3, 49344, Note_on_c, 0, 58, 88
3, 49440, Note_on_c, 0, 58, 0
3, 49440, Note_on_c, 0, 62, 88
3, 49536, Note_on_c, 0, 62, 0
3, 49536, Note_on_c, 0, 60, 88
3, 49632, Note_on_c, 0, 60, 0
3, 49632, Note_on_c, 0, 57, 88
3, 49728, Note_on_c, 0, 57, 0
3, 49728, Note_on_c, 0, 60, 88
3, 49824, Note_on_c, 0, 60, 0
3, 49824, Note_on_c, 0, 65, 88
3, 49920, Note_on_c, 0, 65, 0
3, 49920, Note_on_c, 0, 64, 88
3, 50016, Note_on_c, 0, 64, 0
3, 50016, Note_on_c, 0, 61, 88
3, 50112, Note_on_c, 0, 61, 0
3, 50112, Note_on_c, 0, 64, 88
3, 50208, Note_on_c, 0, 64, 0
3, 50208, Note_on_c, 0, 69, 88
3, 50304, Note_on_c, 0, 69, 0
3, 50304, Note_on_c, 0, 67, 88
3, 50376, Note_on_c, 0, 67, 0
3, 50376, Note_on_c, 0, 64, 88
3, 50400, Note_on_c, 0, 64, 0
3, 50400, Note_on_c, 0, 61, 88
3, 50472, Note_on_c, 0, 61, 0
3, 50472, Note_on_c, 0, 64, 88
3, 50496, Note_on_c, 0, 64, 0
3, 50496, Note_on_c, 0, 67, 88
3, 50568, Note_on_c, 0, 67, 0
3, 50568, Note_on_c, 0, 70, 88
3, 50592, Note_on_c, 0, 70, 0
3, 50592, Note_on_c, 0, 69, 88
3, 50664, Note_on_c, 0, 69, 0
3, 50664, Note_on_c, 0, 67, 88
3, 50688, Note_on_c, 0, 67, 0
3, 50688, Note_on_c, 0, 76, 88
3, 50880, Note_on_c, 0, 76, 0
3, 50976, Note_on_c, 0, 64, 88
3, 51072, Note_on_c, 0, 64, 0
3, 51072, Note_on_c, 0, 65, 88
3, 51104, Note_on_c, 0, 65, 0
3, 51104, Note_on_c, 0, 67, 88
3, 51136, Note_on_c, 0, 67, 0
3, 51136, Note_on_c, 0, 69, 88
3, 51168, Note_on_c, 0, 69, 0
3, 51168, Note_on_c, 0, 64, 88
3, 51296, Note_on_c, 0, 64, 0
3, 51296, Note_on_c, 0, 66, 88
3, 51328, Note_on_c, 0, 66, 0
3, 51328, Note_on_c, 0, 67, 88
3, 51360, Note_on_c, 0, 67, 0
3, 51360, Note_on_c, 0, 62, 88
3, 51456, Note_on_c, 0, 62, 0
3, 51456, Note_on_c, 0, 69, 88
3, 51552, Note_on_c, 0, 69, 0
3, 51744, Note_on_c, 0, 64, 88
3, 51840, Note_on_c, 0, 64, 0
3, 51840, Note_on_c, 0, 57, 88
3, 51888, Note_on_c, 0, 57, 0
3, 51936, Note_on_c, 0, 69, 88
3, 52064, Note_on_c, 0, 69, 0
3, 52064, Note_on_c, 0, 67, 88
3, 52096, Note_on_c, 0, 67, 0
3, 52096, Note_on_c, 0, 65, 88
3, 52128, Note_on_c, 0, 65, 0
3, 52128, Note_on_c, 0, 67, 88
3, 52160, Note_on_c, 0, 67, 0
3, 52160, Note_on_c, 0, 65, 88
3, 52192, Note_on_c, 0, 65, 0
3, 52192, Note_on_c, 0, 64, 88
3, 52224, Note_on_c, 0, 64, 0
3, 52224, Note_on_c, 0, 65, 88
3, 52256, Note_on_c, 0, 65, 0
3, 52256, Note_on_c, 0, 64, 88
3, 52288, Note_on_c, 0, 64, 0
3, 52288, Note_on_c, 0, 62, 88
3, 52320, Note_on_c, 0, 62, 0
3, 52320, Note_on_c, 0, 64, 88
3, 52448, Note_on_c, 0, 64, 0
3, 52448, Note_on_c, 0, 62, 88
3, 52480, Note_on_c, 0, 62, 0
3, 52480, Note_on_c, 0, 61, 88
3, 52512, Note_on_c, 0, 61, 0
3, 52512, Note_on_c, 0, 62, 88
3, 52544, Note_on_c, 0, 62, 0
3, 52544, Note_on_c, 0, 61, 88
3, 52576, Note_on_c, 0, 61, 0
3, 52576, Note_on_c, 0, 59, 88
3, 52608, Note_on_c, 0, 59, 0
3, 52608, Note_on_c, 0, 61, 88
3, 52640, Note_on_c, 0, 61, 0
3, 52640, Note_on_c, 0, 62, 88
3, 52672, Note_on_c, 0, 62, 0
3, 52672, Note_on_c, 0, 64, 88
3, 52704, Note_on_c, 0, 64, 0
3, 52704, Note_on_c, 0, 62, 88
3, 52832, Note_on_c, 0, 62, 0
3, 52832, Note_on_c, 0, 64, 88
3, 52864, Note_on_c, 0, 64, 0
3, 52864, Note_on_c, 0, 65, 88
3, 52896, Note_on_c, 0, 65, 0
3, 52896, Note_on_c, 0, 64, 88
3, 52928, Note_on_c, 0, 64, 0
3, 52928, Note_on_c, 0, 65, 88
3, 52960, Note_on_c, 0, 65, 0
3, 52960, Note_on_c, 0, 67, 88
3, 52992, Note_on_c, 0, 67, 0
3, 52992, Note_on_c, 0, 65, 88
3, 53064, Note_on_c, 0, 65, 0
3, 53064, Note_on_c, 0, 62, 88
3, 53088, Note_on_c, 0, 62, 0
3, 53088, Note_on_c, 0, 57, 88
3, 53160, Note_on_c, 0, 57, 0
3, 53160, Note_on_c, 0, 62, 88
3, 53184, Note_on_c, 0, 62, 0
3, 53184, Note_on_c, 0, 65, 88
3, 53256, Note_on_c, 0, 65, 0
3, 53256, Note_on_c, 0, 67, 88
3, 53280, Note_on_c, 0, 67, 0
3, 53280, Note_on_c, 0, 65, 88
3, 53352, Note_on_c, 0, 65, 0
3, 53352, Note_on_c, 0, 64, 88
3, 53376, Note_on_c, 0, 64, 0
3, 53376, Note_on_c, 0, 62, 88
3, 53760, Note_on_c, 0, 62, 0
3, 53760, Note_on_c, 0, 62, 88
3, 54144, Note_on_c, 0, 62, 0
3, 54144, Note_on_c, 0, 62, 88
3, 54240, Note_on_c, 0, 62, 0
3, 54240, Note_on_c, 0, 61, 88
3, 54336, Note_on_c, 0, 61, 0
3, 54336, Note_on_c, 0, 64, 88
3, 54432, Note_on_c, 0, 64, 0
3, 54432, Note_on_c, 0, 70, 88
3, 54528, Note_on_c, 0, 70, 0
3, 54528, Note_on_c, 0, 69, 88
3, 54560, Note_on_c, 0, 69, 0
3, 54560, Note_on_c, 0, 74, 88
3, 54592, Note_on_c, 0, 74, 0
3, 54592, Note_on_c, 0, 69, 88
3, 54624, Note_on_c, 0, 69, 0
3, 54624, Note_on_c, 0, 65, 88
3, 54656, Note_on_c, 0, 65, 0
3, 54656, Note_on_c, 0, 69, 88
3, 54688, Note_on_c, 0, 69, 0
3, 54688, Note_on_c, 0, 65, 88
3, 54720, Note_on_c, 0, 65, 0
3, 54720, Note_on_c, 0, 62, 88
3, 54816, Note_on_c, 0, 62, 0
3, 54816, Note_on_c, 0, 74, 88
3, 54912, Note_on_c, 0, 74, 0
3, 54912, Note_on_c, 0, 69, 88
3, 55008, Note_on_c, 0, 69, 0
3, 55008, Note_on_c, 0, 69, 88
3, 55040, Note_on_c, 0, 69, 0
3, 55040, Note_on_c, 0, 66, 88
3, 55072, Note_on_c, 0, 66, 0
3, 55072, Note_on_c, 0, 64, 88
3, 55104, Note_on_c, 0, 64, 0
3, 55104, Note_on_c, 0, 62, 88
3, 55136, Note_on_c, 0, 62, 0
3, 55136, Note_on_c, 0, 60, 88
3, 55168, Note_on_c, 0, 60, 0
3, 55168, Note_on_c, 0, 58, 88
3, 55200, Note_on_c, 0, 58, 0
3, 55200, Note_on_c, 0, 57, 88
3, 55264, Note_on_c, 0, 57, 0
3, 55264, Note_on_c, 0, 69, 88
3, 55296, Note_on_c, 0, 69, 0
3, 55296, Note_on_c, 0, 69, 88
3, 55680, Note_on_c, 0, 69, 0
3, 55680, End_track
4, 0, Start_track
4, 1824, Note_on_c, 0, 50, 64
4, 1920, Note_on_c, 0, 50, 0
4, 1920, Note_on_c, 0, 45, 64
4, 1968, Note_on_c, 0, 45, 0
4, 2016, Note_on_c, 0, 57, 64
4, 2144, Note_on_c, 0, 57, 0
4, 2144, Note_on_c, 0, 55, 64
4, 2176, Note_on_c, 0, 55, 0
4, 2176, Note_on_c, 0, 53, 64
4, 2208, Note_on_c, 0, 53, 0
4, 2208, Note_on_c, 0, 55, 64
4, 2240, Note_on_c, 0, 55, 0
4, 2240, Note_on_c, 0, 53, 64
4, 2272, Note_on_c, 0, 53, 0
4, 2272, Note_on_c, 0, 52, 64
4, 2304, Note_on_c, 0, 52, 0
4, 2304, Note_on_c, 0, 53, 64
4, 2336, Note_on_c, 0, 53, 0
4, 2336, Note_on_c, 0, 52, 64
4, 2368, Note_on_c, 0, 52, 0
4, 2368, Note_on_c, 0, 50, 64
4, 2400, Note_on_c, 0, 50, 0
4, 2400, Note_on_c, 0, 52, 64
4, 2528, Note_on_c, 0, 52, 0
4, 2528, Note_on_c, 0, 50, 64
4, 2560, Note_on_c, 0, 50, 0
4, 2560, Note_on_c, 0, 49, 64
4, 2592, Note_on_c, 0, 49, 0
4, 2592, Note_on_c, 0, 50, 64
4, 2624, Note_on_c, 0, 50, 0
4, 2624, Note_on_c, 0, 49, 64
4, 2656, Note_on_c, 0, 49, 0
4, 2656, Note_on_c, 0, 47, 64
4, 2688, Note_on_c, 0, 47, 0
4, 2688, Note_on_c, 0, 49, 64
4, 2720, Note_on_c, 0, 49, 0
4, 2720, Note_on_c, 0, 50, 64
4, 2752, Note_on_c, 0, 50, 0
4, 2752, Note_on_c, 0, 52, 64
4, 2784, Note_on_c, 0, 52, 0
4, 2784, Note_on_c, 0, 50, 64
4, 2912, Note_on_c, 0, 50, 0
4, 2912, Note_on_c, 0, 52, 64
4, 2944, Note_on_c, 0, 52, 0
4, 2944, Note_on_c, 0, 53, 64
4, 2976, Note_on_c, 0, 53, 0
4, 2976, Note_on_c, 0, 52, 64
4, 3008, Note_on_c, 0, 52, 0
4, 3008, Note_on_c, 0, 53, 64
4, 3040, Note_on_c, 0, 53, 0
4, 3040, Note_on_c, 0, 55, 64
4, 3072, Note_on_c, 0, 55, 0
4, 3072, Note_on_c, 0, 53, 64
4, 3120, Note_on_c, 0, 53, 0
4, 3144, Note_on_c, 0, 50, 64
4, 3168, Note_on_c, 0, 50, 0
4, 3168, Note_on_c, 0, 45, 64
4, 3216, Note_on_c, 0, 45, 0
4, 3240, Note_on_c, 0, 50, 64
4, 3264, Note_on_c, 0, 50, 0
4, 3264, Note_on_c, 0, 53, 64
4, 3312, Note_on_c, 0, 53, 0
4, 3336, Note_on_c, 0, 55, 64
4, 3360, Note_on_c, 0, 55, 0
4, 3360, Note_on_c, 0, 53, 64
4, 3432, Note_on_c, 0, 53, 0
4, 3432, Note_on_c, 0, 52, 64
4, 3456, Note_on_c, 0, 52, 0
4, 3456, Note_on_c, 0, 50, 64
4, 3488, Note_on_c, 0, 50, 0
4, 3488, Note_on_c, 0, 49, 64
4, 3520, Note_on_c, 0, 49, 0
4, 3520, Note_on_c, 0, 47, 64
4, 3552, Note_on_c, 0, 47, 0
4, 3552, Note_on_c, 0, 49, 64
4, 3584, Note_on_c, 0, 49, 0
4, 3584, Note_on_c, 0, 50, 64
4, 3616, Note_on_c, 0, 50, 0
4, 3616, Note_on_c, 0, 52, 64
4, 3648, Note_on_c, 0, 52, 0
4, 3648, Note_on_c, 0, 53, 64
4, 3744, Note_on_c, 0, 53, 0
4, 3744, Note_on_c, 0, 44, 64
4, 3840, Note_on_c, 0, 44, 0
4, 3840, Note_on_c, 0, 45, 64
4, 3936, Note_on_c, 0, 45, 0
4, 4128, Note_on_c, 0, 57, 64
4, 4224, Note_on_c, 0, 57, 0
4, 4224, Note_on_c, 0, 57, 64
4, 4320, Note_on_c, 0, 57, 0
4, 4320, Note_on_c, 0, 56, 64
4, 4352, Note_on_c, 0, 56, 0
4, 4352, Note_on_c, 0, 57, 64
4, 4384, Note_on_c, 0, 57, 0
4, 4384, Note_on_c, 0, 54, 64
4, 4416, Note_on_c, 0, 54, 0
4, 4416, Note_on_c, 0, 57, 64
4, 4432, Note_on_c, 0, 57, 0
4, 4432, Note_on_c, 0, 56, 64
4, 4448, Note_on_c, 0, 56, 0
4, 4448, Note_on_c, 0, 57, 64
4, 4464, Note_on_c, 0, 57, 0
4, 4464, Note_on_c, 0, 56, 64
4, 4480, Note_on_c, 0, 56, 0
4, 4480, Note_on_c, 0, 57, 64
4, 4496, Note_on_c, 0, 57, 0
4, 4496, Note_on_c, 0, 56, 64
4, 4512, Note_on_c, 0, 56, 0
4, 4512, Note_on_c, 0, 57, 64
4, 4528, Note_on_c, 0, 57, 0
4, 4528, Note_on_c, 0, 56, 64
4, 4544, Note_on_c, 0, 56, 0
4, 4544, Note_on_c, 0, 57, 64
4, 4560, Note_on_c, 0, 57, 0
4, 4560, Note_on_c, 0, 56, 64
4, 4576, Note_on_c, 0, 56, 0
4, 4576, Note_on_c, 0, 54, 64
4, 4592, Note_on_c, 0, 54, 0
4, 4592, Note_on_c, 0, 56, 64
4, 4608, Note_on_c, 0, 56, 0
4, 4608, Note_on_c, 0, 57, 64
4, 4992, Note_on_c, 0, 57, 0
4, 4992, Note_on_c, 0, 57, 64
4, 5064, Note_on_c, 0, 57, 0
4, 5064, Note_on_c, 0, 52, 64
4, 5088, Note_on_c, 0, 52, 0
4, 5088, Note_on_c, 0, 48, 64
4, 5160, Note_on_c, 0, 48, 0
4, 5160, Note_on_c, 0, 52, 64
4, 5184, Note_on_c, 0, 52, 0
4, 5184, Note_on_c, 0, 57, 64
4, 5256, Note_on_c, 0, 57, 0
4, 5256, Note_on_c, 0, 58, 64
4, 5280, Note_on_c, 0, 58, 0
4, 5280, Note_on_c, 0, 57, 64
4, 5352, Note_on_c, 0, 57, 0
4, 5352, Note_on_c, 0, 55, 64
4, 5376, Note_on_c, 0, 55, 0
4, 5376, Note_on_c, 0, 53, 64
4, 5448, Note_on_c, 0, 53, 0
4, 5448, Note_on_c, 0, 57, 64
4, 5472, Note_on_c, 0, 57, 0
4, 5472, Note_on_c, 0, 62, 64
4, 5544, Note_on_c, 0, 62, 0
4, 5544, Note_on_c, 0, 57, 64
4, 5568, Note_on_c, 0, 57, 0
4, 5568, Note_on_c, 0, 53, 64
4, 5640, Note_on_c, 0, 53, 0
4, 5640, Note_on_c, 0, 50, 64
4, 5664, Note_on_c, 0, 50, 0
4, 5664, Note_on_c, 0, 52, 64
4, 5736, Note_on_c, 0, 52, 0
4, 5736, Note_on_c, 0, 54, 64
4, 5760, Note_on_c, 0, 54, 0
4, 5760, Note_on_c, 0, 55, 64
4, 5832, Note_on_c, 0, 55, 0
4, 5832, Note_on_c, 0, 50, 64
4, 5856, Note_on_c, 0, 50, 0
4, 5856, Note_on_c, 0, 46, 64
4, 5928, Note_on_c, 0, 46, 0
4, 5928, Note_on_c, 0, 50, 64
4, 5952, Note_on_c, 0, 50, 0
4, 5952, Note_on_c, 0, 55, 64
4, 6024, Note_on_c, 0, 55, 0
4, 6024, Note_on_c, 0, 57, 64
4, 6048, Note_on_c, 0, 57, 0
4, 6048, Note_on_c, 0, 55, 64
4, 6120, Note_on_c, 0, 55, 0
4, 6120, Note_on_c, 0, 53, 64
4, 6144, Note_on_c, 0, 53, 0
4, 6144, Note_on_c, 0, 52, 64
4, 6216, Note_on_c, 0, 52, 0
4, 6216, Note_on_c, 0, 55, 64
4, 6240, Note_on_c, 0, 55, 0
4, 6240, Note_on_c, 0, 60, 64
4, 6312, Note_on_c, 0, 60, 0
4, 6312, Note_on_c, 0, 55, 64
4, 6336, Note_on_c, 0, 55, 0
4, 6336, Note_on_c, 0, 52, 64
4, 6408, Note_on_c, 0, 52, 0
4, 6408, Note_on_c, 0, 48, 64
4, 6432, Note_on_c, 0, 48, 0
4, 6432, Note_on_c, 0, 50, 64
4, 6504, Note_on_c, 0, 50, 0
4, 6504, Note_on_c, 0, 52, 64
4, 6528, Note_on_c, 0, 52, 0
4, 6528, Note_on_c, 0, 53, 64
4, 6600, Note_on_c, 0, 53, 0
4, 6600, Note_on_c, 0, 55, 64
4, 6624, Note_on_c, 0, 55, 0
4, 6624, Note_on_c, 0, 53, 64
4, 6696, Note_on_c, 0, 53, 0
4, 6696, Note_on_c, 0, 52, 64
4, 6720, Note_on_c, 0, 52, 0
4, 6720, Note_on_c, 0, 50, 64
4, 6792, Note_on_c, 0, 50, 0
4, 6792, Note_on_c, 0, 52, 64
4, 6816, Note_on_c, 0, 52, 0
4, 6816, Note_on_c, 0, 53, 64
4, 6888, Note_on_c, 0, 53, 0
4, 6888, Note_on_c, 0, 50, 64
4, 6912, Note_on_c, 0, 50, 0
4, 6912, Note_on_c, 0, 55, 64
4, 6984, Note_on_c, 0, 55, 0
4, 6984, Note_on_c, 0, 57, 64
4, 7008, Note_on_c, 0, 57, 0
4, 7008, Note_on_c, 0, 55, 64
4, 7080, Note_on_c, 0, 55, 0
4, 7080, Note_on_c, 0, 53, 64
4, 7104, Note_on_c, 0, 53, 0
4, 7104, Note_on_c, 0, 52, 64
4, 7176, Note_on_c, 0, 52, 0
4, 7176, Note_on_c, 0, 53, 64
4, 7200, Note_on_c, 0, 53, 0
4, 7200, Note_on_c, 0, 55, 64
4, 7272, Note_on_c, 0, 55, 0
4, 7272, Note_on_c, 0, 52, 64
4, 7296, Note_on_c, 0, 52, 0
4, 7296, Note_on_c, 0, 57, 64
4, 7368, Note_on_c, 0, 57, 0
4, 7368, Note_on_c, 0, 58, 64
4, 7392, Note_on_c, 0, 58, 0
4, 7392, Note_on_c, 0, 57, 64
4, 7464, Note_on_c, 0, 57, 0
4, 7464, Note_on_c, 0, 55, 64
4, 7488, Note_on_c, 0, 55, 0
4, 7488, Note_on_c, 0, 53, 64
4, 7560, Note_on_c, 0, 53, 0
4, 7560, Note_on_c, 0, 52, 64
4, 7584, Note_on_c, 0, 52, 0
4, 7584, Note_on_c, 0, 50, 64
4, 7656, Note_on_c, 0, 50, 0
4, 7656, Note_on_c, 0, 52, 64
4, 7680, Note_on_c, 0, 52, 0
4, 7680, Note_on_c, 0, 53, 64
4, 7752, Note_on_c, 0, 53, 0
4, 7752, Note_on_c, 0, 52, 64
4, 7776, Note_on_c, 0, 52, 0
4, 7776, Note_on_c, 0, 53, 64
4, 7848, Note_on_c, 0, 53, 0
4, 7848, Note_on_c, 0, 55, 64
4, 7872, Note_on_c, 0, 55, 0
4, 7872, Note_on_c, 0, 57, 64
4, 7968, Note_on_c, 0, 57, 0
4, 7968, Note_on_c, 0, 49, 64
4, 8064, Note_on_c, 0, 49, 0
4, 8064, Note_on_c, 0, 50, 64
4, 8160, Note_on_c, 0, 50, 0
4, 8160, Note_on_c, 0, 58, 64
4, 8256, Note_on_c, 0, 58, 0
4, 8352, Note_on_c, 0, 56, 64
4, 8448, Note_on_c, 0, 56, 0
4, 8448, Note_on_c, 0, 57, 64
4, 8544, Note_on_c, 0, 57, 0
4, 8736, Note_on_c, 0, 57, 64
4, 8832, Note_on_c, 0, 57, 0
4, 8832, Note_on_c, 0, 50, 64
4, 8928, Note_on_c, 0, 50, 0
4, 9120, Note_on_c, 0, 50, 64
4, 9216, Note_on_c, 0, 50, 0
4, 9216, Note_on_c, 0, 55, 64
4, 9312, Note_on_c, 0, 55, 0
4, 9504, Note_on_c, 0, 50, 64
4, 9600, Note_on_c, 0, 50, 0
4, 9600, Note_on_c, 0, 48, 64
4, 9696, Note_on_c, 0, 48, 0
4, 9888, Note_on_c, 0, 48, 64
4, 9984, Note_on_c, 0, 48, 0
4, 9984, Note_on_c, 0, 53, 64
4, 10080, Note_on_c, 0, 53, 0
4, 10272, Note_on_c, 0, 48, 64
4, 10368, Note_on_c, 0, 48, 0
4, 10368, Note_on_c, 0, 55, 64
4, 10464, Note_on_c, 0, 55, 0
4, 11040, Note_on_c, 0, 53, 64
4, 11136, Note_on_c, 0, 53, 0
4, 11136, Note_on_c, 0, 58, 64
4, 11184, Note_on_c, 0, 58, 0
4, 11232, Note_on_c, 0, 46, 64
4, 11360, Note_on_c, 0, 46, 0
4, 11360, Note_on_c, 0, 48, 64
4, 11392, Note_on_c, 0, 48, 0
4, 11392, Note_on_c, 0, 50, 64
4, 11424, Note_on_c, 0, 50, 0
4, 11424, Note_on_c, 0, 48, 64
4, 11456, Note_on_c, 0, 48, 0
4, 11456, Note_on_c, 0, 50, 64
4, 11488, Note_on_c, 0, 50, 0
4, 11488, Note_on_c, 0, 51, 64
4, 11520, Note_on_c, 0, 51, 0
4, 11520, Note_on_c, 0, 50, 64
4, 11552, Note_on_c, 0, 50, 0
4, 11552, Note_on_c, 0, 51, 64
4, 11584, Note_on_c, 0, 51, 0
4, 11584, Note_on_c, 0, 53, 64
4, 11616, Note_on_c, 0, 53, 0
4, 11616, Note_on_c, 0, 51, 64
4, 11744, Note_on_c, 0, 51, 0
4, 11744, Note_on_c, 0, 53, 64
4, 11776, Note_on_c, 0, 53, 0
4, 11776, Note_on_c, 0, 55, 64
4, 11808, Note_on_c, 0, 55, 0
4, 11808, Note_on_c, 0, 53, 64
4, 11840, Note_on_c, 0, 53, 0
4, 11840, Note_on_c, 0, 55, 64
4, 11872, Note_on_c, 0, 55, 0
4, 11872, Note_on_c, 0, 56, 64
4, 11904, Note_on_c, 0, 56, 0
4, 11904, Note_on_c, 0, 55, 64
4, 11936, Note_on_c, 0, 55, 0
4, 11936, Note_on_c, 0, 53, 64
4, 11968, Note_on_c, 0, 53, 0
4, 11968, Note_on_c, 0, 51, 64
4, 12000, Note_on_c, 0, 51, 0
4, 12000, Note_on_c, 0, 53, 64
4, 12128, Note_on_c, 0, 53, 0
4, 12128, Note_on_c, 0, 51, 64
4, 12160, Note_on_c, 0, 51, 0
4, 12160, Note_on_c, 0, 50, 64
4, 12192, Note_on_c, 0, 50, 0
4, 12192, Note_on_c, 0, 51, 64
4, 12224, Note_on_c, 0, 51, 0
4, 12224, Note_on_c, 0, 50, 64
4, 12256, Note_on_c, 0, 50, 0
4, 12256, Note_on_c, 0, 48, 64
4, 12288, Note_on_c, 0, 48, 0
4, 12288, Note_on_c, 0, 50, 64
4, 12360, Note_on_c, 0, 50, 0
4, 12360, Note_on_c, 0, 53, 64
4, 12384, Note_on_c, 0, 53, 0
4, 12384, Note_on_c, 0, 58, 64
4, 12456, Note_on_c, 0, 58, 0
4, 12456, Note_on_c, 0, 53, 64
4, 12480, Note_on_c, 0, 53, 0
4, 12480, Note_on_c, 0, 50, 64
4, 12552, Note_on_c, 0, 50, 0
4, 12552, Note_on_c, 0, 48, 64
4, 12576, Note_on_c, 0, 48, 0
4, 12576, Note_on_c, 0, 50, 64
4, 12648, Note_on_c, 0, 50, 0
4, 12648, Note_on_c, 0, 52, 64
4, 12672, Note_on_c, 0, 52, 0
4, 12672, Note_on_c, 0, 53, 64
4, 12768, Note_on_c, 0, 53, 0
4, 12768, Note_on_c, 0, 50, 64
4, 12864, Note_on_c, 0, 50, 0
4, 12864, Note_on_c, 0, 45, 64
4, 12936, Note_on_c, 0, 45, 0
4, 12936, Note_on_c, 0, 46, 64
4, 12960, Note_on_c, 0, 46, 0
4, 12960, Note_on_c, 0, 48, 64
4, 13032, Note_on_c, 0, 48, 0
4, 13032, Note_on_c, 0, 45, 64
4, 13056, Note_on_c, 0, 45, 0
4, 13056, Note_on_c, 0, 46, 64
4, 13184, Note_on_c, 0, 46, 0
4, 13184, Note_on_c, 0, 45, 64
4, 13216, Note_on_c, 0, 45, 0
4, 13216, Note_on_c, 0, 43, 64
4, 13248, Note_on_c, 0, 43, 0
4, 13248, Note_on_c, 0, 45, 64
4, 13280, Note_on_c, 0, 45, 0
4, 13280, Note_on_c, 0, 46, 64
4, 13312, Note_on_c, 0, 46, 0
4, 13312, Note_on_c, 0, 48, 64
4, 13344, Note_on_c, 0, 48, 0
4, 13344, Note_on_c, 0, 50, 64
4, 13376, Note_on_c, 0, 50, 0
4, 13376, Note_on_c, 0, 48, 64
4, 13408, Note_on_c, 0, 48, 0
4, 13408, Note_on_c, 0, 46, 64
4, 13440, Note_on_c, 0, 46, 0
4, 13440, Note_on_c, 0, 48, 64
4, 13472, Note_on_c, 0, 48, 0
4, 13472, Note_on_c, 0, 50, 64
4, 13504, Note_on_c, 0, 50, 0
4, 13504, Note_on_c, 0, 51, 64
4, 13536, Note_on_c, 0, 51, 0
4, 13536, Note_on_c, 0, 50, 64
4, 13568, Note_on_c, 0, 50, 0
4, 13568, Note_on_c, 0, 51, 64
4, 13600, Note_on_c, 0, 51, 0
4, 13600, Note_on_c, 0, 48, 64
4, 13632, Note_on_c, 0, 48, 0
4, 13632, Note_on_c, 0, 50, 64
4, 13664, Note_on_c, 0, 50, 0
4, 13664, Note_on_c, 0, 48, 64
4, 13696, Note_on_c, 0, 48, 0
4, 13696, Note_on_c, 0, 46, 64
4, 13728, Note_on_c, 0, 46, 0
4, 13728, Note_on_c, 0, 45, 64
4, 13760, Note_on_c, 0, 45, 0
4, 13760, Note_on_c, 0, 46, 64
4, 13792, Note_on_c, 0, 46, 0
4, 13792, Note_on_c, 0, 48, 64
4, 13824, Note_on_c, 0, 48, 0
4, 13824, Note_on_c, 0, 46, 64
4, 13920, Note_on_c, 0, 46, 0
4, 13920, Note_on_c, 0, 50, 64
4, 14016, Note_on_c, 0, 50, 0
4, 14016, Note_on_c, 0, 53, 64
4, 14112, Note_on_c, 0, 53, 0
4, 14112, Note_on_c, 0, 46, 64
4, 14208, Note_on_c, 0, 46, 0
4, 14208, Note_on_c, 0, 51, 64
4, 14304, Note_on_c, 0, 51, 0
4, 14400, Note_on_c, 0, 48, 64
4, 14496, Note_on_c, 0, 48, 0
4, 14592, Note_on_c, 0, 55, 64
4, 14976, Note_on_c, 0, 55, 0
4, 14976, Note_on_c, 0, 55, 64
4, 15360, Note_on_c, 0, 55, 0
4, 15360, Note_on_c, 0, 55, 64
4, 15744, Note_on_c, 0, 55, 0
4, 15744, Note_on_c, 0, 55, 64
4, 15936, Note_on_c, 0, 55, 0
4, 16032, Note_on_c, 0, 55, 64
4, 16128, Note_on_c, 0, 55, 0
4, 16128, Note_on_c, 0, 60, 64
4, 16320, Note_on_c, 0, 60, 0
4, 16416, Note_on_c, 0, 55, 64
4, 16512, Note_on_c, 0, 55, 0
4, 16512, Note_on_c, 0, 53, 64
4, 16704, Note_on_c, 0, 53, 0
4, 16800, Note_on_c, 0, 53, 64
4, 16896, Note_on_c, 0, 53, 0
4, 16896, Note_on_c, 0, 58, 64
4, 17088, Note_on_c, 0, 58, 0
4, 17184, Note_on_c, 0, 53, 64
4, 17280, Note_on_c, 0, 53, 0
4, 17280, Note_on_c, 0, 52, 64
4, 17352, Note_on_c, 0, 52, 0
4, 17352, Note_on_c, 0, 55, 64
4, 17376, Note_on_c, 0, 55, 0
4, 17376, Note_on_c, 0, 58, 64
4, 17448, Note_on_c, 0, 58, 0
4, 17448, Note_on_c, 0, 55, 64
4, 17472, Note_on_c, 0, 55, 0
4, 17472, Note_on_c, 0, 52, 64
4, 17544, Note_on_c, 0, 52, 0
4, 17544, Note_on_c, 0, 53, 64
4, 17568, Note_on_c, 0, 53, 0
4, 17568, Note_on_c, 0, 52, 64
4, 17640, Note_on_c, 0, 52, 0
4, 17640, Note_on_c, 0, 50, 64
4, 17664, Note_on_c, 0, 50, 0
4, 17664, Note_on_c, 0, 49, 64
4, 17736, Note_on_c, 0, 49, 0
4, 17736, Note_on_c, 0, 52, 64
4, 17760, Note_on_c, 0, 52, 0
4, 17760, Note_on_c, 0, 55, 64
4, 17832, Note_on_c, 0, 55, 0
4, 17832, Note_on_c, 0, 52, 64
4, 17856, Note_on_c, 0, 52, 0
4, 17856, Note_on_c, 0, 49, 64
4, 17928, Note_on_c, 0, 49, 0
4, 17928, Note_on_c, 0, 50, 64
4, 17952, Note_on_c, 0, 50, 0
4, 17952, Note_on_c, 0, 49, 64
4, 18024, Note_on_c, 0, 49, 0
4, 18024, Note_on_c, 0, 47, 64
4, 18048, Note_on_c, 0, 47, 0
4, 18048, Note_on_c, 0, 45, 64
4, 18120, Note_on_c, 0, 45, 0
4, 18120, Note_on_c, 0, 49, 64
4, 18144, Note_on_c, 0, 49, 0
4, 18144, Note_on_c, 0, 52, 64
4, 18216, Note_on_c, 0, 52, 0
4, 18216, Note_on_c, 0, 49, 64
4, 18240, Note_on_c, 0, 49, 0
4, 18240, Note_on_c, 0, 45, 64
4, 18312, Note_on_c, 0, 45, 0
4, 18312, Note_on_c, 0, 46, 64
4, 18336, Note_on_c, 0, 46, 0
4, 18336, Note_on_c, 0, 45, 64
4, 18408, Note_on_c, 0, 45, 0
4, 18408, Note_on_c, 0, 43, 64
4, 18432, Note_on_c, 0, 43, 0
4, 18432, Note_on_c, 0, 41, 64
4, 18464, Note_on_c, 0, 41, 0
4, 18464, Note_on_c, 0, 45, 64
4, 18496, Note_on_c, 0, 45, 0
4, 18496, Note_on_c, 0, 50, 64
4, 18528, Note_on_c, 0, 50, 0
4, 18528, Note_on_c, 0, 53, 64
4, 18560, Note_on_c, 0, 53, 0
4, 18560, Note_on_c, 0, 52, 64
4, 18592, Note_on_c, 0, 52, 0
4, 18592, Note_on_c, 0, 50, 64
4, 18624, Note_on_c, 0, 50, 0
4, 18624, Note_on_c, 0, 50, 64
4, 18640, Note_on_c, 0, 50, 0
4, 18640, Note_on_c, 0, 49, 64
4, 18656, Note_on_c, 0, 49, 0
4, 18656, Note_on_c, 0, 50, 64
4, 18672, Note_on_c, 0, 50, 0
4, 18672, Note_on_c, 0, 49, 64
4, 18688, Note_on_c, 0, 49, 0
4, 18688, Note_on_c, 0, 50, 64
4, 18712, Note_on_c, 0, 50, 0
4, 18712, Note_on_c, 0, 49, 64
4, 18736, Note_on_c, 0, 49, 0
4, 18736, Note_on_c, 0, 50, 64
4, 18752, Note_on_c, 0, 50, 0
4, 18752, Note_on_c, 0, 49, 64
4, 18768, Note_on_c, 0, 49, 0
4, 18768, Note_on_c, 0, 47, 64
4, 18792, Note_on_c, 0, 47, 0
4, 18792, Note_on_c, 0, 49, 64
4, 18816, Note_on_c, 0, 49, 0
4, 18816, Note_on_c, 0, 50, 64
4, 18912, Note_on_c, 0, 50, 0
4, 18912, Note_on_c, 0, 58, 64
4, 19008, Note_on_c, 0, 58, 0
4, 19104, Note_on_c, 0, 56, 64
4, 19200, Note_on_c, 0, 56, 0
4, 19200, Note_on_c, 0, 57, 64
4, 19272, Note_on_c, 0, 57, 0
4, 19272, Note_on_c, 0, 55, 64
4, 19296, Note_on_c, 0, 55, 0
4, 19296, Note_on_c, 0, 53, 64
4, 19328, Note_on_c, 0, 53, 0
4, 19328, Note_on_c, 0, 55, 64
4, 19360, Note_on_c, 0, 55, 0
4, 19360, Note_on_c, 0, 57, 64
4, 19392, Note_on_c, 0, 57, 0
4, 19392, Note_on_c, 0, 58, 64
4, 19464, Note_on_c, 0, 58, 0
4, 19464, Note_on_c, 0, 50, 64
4, 19488, Note_on_c, 0, 50, 0
4, 19488, Note_on_c, 0, 49, 64
4, 19520, Note_on_c, 0, 49, 0
4, 19520, Note_on_c, 0, 50, 64
4, 19552, Note_on_c, 0, 50, 0
4, 19552, Note_on_c, 0, 52, 64
4, 19584, Note_on_c, 0, 52, 0
4, 19584, Note_on_c, 0, 50, 64
4, 19680, Note_on_c, 0, 50, 0
4, 19680, Note_on_c, 0, 53, 64
4, 19776, Note_on_c, 0, 53, 0
4, 19776, Note_on_c, 0, 57, 64
4, 19872, Note_on_c, 0, 57, 0
4, 19872, Note_on_c, 0, 50, 64
4, 19968, Note_on_c, 0, 50, 0
4, 19968, Note_on_c, 0, 55, 64
4, 20064, Note_on_c, 0, 55, 0
4, 20256, Note_on_c, 0, 55, 64
4, 20352, Note_on_c, 0, 55, 0
4, 20352, Note_on_c, 0, 43, 64
4, 20448, Note_on_c, 0, 43, 0
4, 20448, Note_on_c, 0, 55, 64
4, 20544, Note_on_c, 0, 55, 0
4, 20544, Note_on_c, 0, 59, 64
4, 20640, Note_on_c, 0, 59, 0
4, 20640, Note_on_c, 0, 55, 64
4, 20736, Note_on_c, 0, 55, 0
4, 20736, Note_on_c, 0, 57, 64
4, 20832, Note_on_c, 0, 57, 0
4, 21024, Note_on_c, 0, 57, 64
4, 21120, Note_on_c, 0, 57, 0
4, 21120, Note_on_c, 0, 45, 64
4, 21216, Note_on_c, 0, 45, 0
4, 21216, Note_on_c, 0, 57, 64
4, 21312, Note_on_c, 0, 57, 0
4, 21312, Note_on_c, 0, 60, 64
4, 21408, Note_on_c, 0, 60, 0
4, 21408, Note_on_c, 0, 53, 64
4, 21504, Note_on_c, 0, 53, 0
4, 21504, Note_on_c, 0, 58, 64
4, 21600, Note_on_c, 0, 58, 0
4, 21600, Note_on_c, 0, 62, 64
4, 21696, Note_on_c, 0, 62, 0
4, 21696, Note_on_c, 0, 58, 64
4, 21792, Note_on_c, 0, 58, 0
4, 21792, Note_on_c, 0, 54, 64
4, 21888, Note_on_c, 0, 54, 0
4, 21888, Note_on_c, 0, 55, 64
4, 21984, Note_on_c, 0, 55, 0
4, 21984, Note_on_c, 0, 58, 64
4, 22080, Note_on_c, 0, 58, 0
4, 22080, Note_on_c, 0, 55, 64
4, 22176, Note_on_c, 0, 55, 0
4, 22176, Note_on_c, 0, 50, 64
4, 22272, Note_on_c, 0, 50, 0
4, 22272, Note_on_c, 0, 52, 64
4, 22344, Note_on_c, 0, 52, 0
4, 22344, Note_on_c, 0, 55, 64
4, 22368, Note_on_c, 0, 55, 0
4, 22368, Note_on_c, 0, 58, 64
4, 22440, Note_on_c, 0, 58, 0
4, 22440, Note_on_c, 0, 55, 64
4, 22464, Note_on_c, 0, 55, 0
4, 22464, Note_on_c, 0, 52, 64
4, 22536, Note_on_c, 0, 52, 0
4, 22536, Note_on_c, 0, 49, 64
4, 22560, Note_on_c, 0, 49, 0
4, 22560, Note_on_c, 0, 50, 64
4, 22632, Note_on_c, 0, 50, 0
4, 22632, Note_on_c, 0, 52, 64
4, 22656, Note_on_c, 0, 52, 0
4, 22656, Note_on_c, 0, 43, 64
4, 22848, Note_on_c, 0, 43, 0
4, 22944, Note_on_c, 0, 55, 64
4, 23040, Note_on_c, 0, 55, 0
4, 23040, Note_on_c, 0, 53, 64
4, 23072, Note_on_c, 0, 53, 0
4, 23072, Note_on_c, 0, 52, 64
4, 23104, Note_on_c, 0, 52, 0
4, 23104, Note_on_c, 0, 50, 64
4, 23136, Note_on_c, 0, 50, 0
4, 23136, Note_on_c, 0, 55, 64
4, 23264, Note_on_c, 0, 55, 0
4, 23264, Note_on_c, 0, 53, 64
4, 23296, Note_on_c, 0, 53, 0
4, 23296, Note_on_c, 0, 52, 64
4, 23328, Note_on_c, 0, 52, 0
4, 23328, Note_on_c, 0, 57, 64
4, 23424, Note_on_c, 0, 57, 0
4, 23424, Note_on_c, 0, 50, 64
4, 23520, Note_on_c, 0, 50, 0
4, 23712, Note_on_c, 0, 55, 64
4, 23808, Note_on_c, 0, 55, 0
4, 23808, Note_on_c, 0, 62, 64
4, 23856, Note_on_c, 0, 62, 0
4, 23904, Note_on_c, 0, 50, 64
4, 24032, Note_on_c, 0, 50, 0
4, 24032, Note_on_c, 0, 52, 64
4, 24064, Note_on_c, 0, 52, 0
4, 24064, Note_on_c, 0, 53, 64
4, 24096, Note_on_c, 0, 53, 0
4, 24096, Note_on_c, 0, 52, 64
4, 24128, Note_on_c, 0, 52, 0
4, 24128, Note_on_c, 0, 53, 64
4, 24160, Note_on_c, 0, 53, 0
4, 24160, Note_on_c, 0, 55, 64
4, 24192, Note_on_c, 0, 55, 0
4, 24192, Note_on_c, 0, 53, 64
4, 24224, Note_on_c, 0, 53, 0
4, 24224, Note_on_c, 0, 55, 64
4, 24256, Note_on_c, 0, 55, 0
4, 24256, Note_on_c, 0, 57, 64
4, 24288, Note_on_c, 0, 57, 0
4, 24288, Note_on_c, 0, 55, 64
4, 24416, Note_on_c, 0, 55, 0
4, 24416, Note_on_c, 0, 57, 64
4, 24448, Note_on_c, 0, 57, 0
4, 24448, Note_on_c, 0, 58, 64
4, 24480, Note_on_c, 0, 58, 0
4, 24480, Note_on_c, 0, 57, 64
4, 24512, Note_on_c, 0, 57, 0
4, 24512, Note_on_c, 0, 58, 64
4, 24544, Note_on_c, 0, 58, 0
4, 24544, Note_on_c, 0, 60, 64
4, 24576, Note_on_c, 0, 60, 0
4, 24576, Note_on_c, 0, 58, 64
4, 24608, Note_on_c, 0, 58, 0
4, 24608, Note_on_c, 0, 57, 64
4, 24640, Note_on_c, 0, 57, 0
4, 24640, Note_on_c, 0, 55, 64
4, 24672, Note_on_c, 0, 55, 0
4, 24672, Note_on_c, 0, 57, 64
4, 24800, Note_on_c, 0, 57, 0
4, 24800, Note_on_c, 0, 55, 64
4, 24832, Note_on_c, 0, 55, 0
4, 24832, Note_on_c, 0, 53, 64
4, 24864, Note_on_c, 0, 53, 0
4, 24864, Note_on_c, 0, 55, 64
4, 24896, Note_on_c, 0, 55, 0
4, 24896, Note_on_c, 0, 53, 64
4, 24928, Note_on_c, 0, 53, 0
4, 24928, Note_on_c, 0, 52, 64
4, 24960, Note_on_c, 0, 52, 0
4, 24960, Note_on_c, 0, 53, 64
4, 25032, Note_on_c, 0, 53, 0
4, 25032, Note_on_c, 0, 57, 64
4, 25056, Note_on_c, 0, 57, 0
4, 25056, Note_on_c, 0, 62, 64
4, 25128, Note_on_c, 0, 62, 0
4, 25128, Note_on_c, 0, 57, 64
4, 25152, Note_on_c, 0, 57, 0
4, 25152, Note_on_c, 0, 53, 64
4, 25224, Note_on_c, 0, 53, 0
4, 25224, Note_on_c, 0, 52, 64
4, 25248, Note_on_c, 0, 52, 0
4, 25248, Note_on_c, 0, 53, 64
4, 25320, Note_on_c, 0, 53, 0
4, 25320, Note_on_c, 0, 55, 64
4, 25344, Note_on_c, 0, 55, 0
4, 25344, Note_on_c, 0, 57, 64
4, 25728, Note_on_c, 0, 57, 0
4, 25728, Note_on_c, 0, 57, 64
4, 26112, Note_on_c, 0, 57, 0
4, 26112, Note_on_c, 0, 57, 64
4, 26208, Note_on_c, 0, 57, 0
4, 26208, Note_on_c, 0, 58, 64
4, 26304, Note_on_c, 0, 58, 0
4, 26304, Note_on_c, 0, 55, 64
4, 26400, Note_on_c, 0, 55, 0
4, 26400, Note_on_c, 0, 49, 64
4, 26496, Note_on_c, 0, 49, 0
4, 26496, Note_on_c, 0, 50, 64
4, 26528, Note_on_c, 0, 50, 0
4, 26528, Note_on_c, 0, 45, 64
4, 26560, Note_on_c, 0, 45, 0
4, 26560, Note_on_c, 0, 50, 64
4, 26592, Note_on_c, 0, 50, 0
4, 26592, Note_on_c, 0, 53, 64
4, 26624, Note_on_c, 0, 53, 0
4, 26624, Note_on_c, 0, 50, 64
4, 26656, Note_on_c, 0, 50, 0
4, 26656, Note_on_c, 0, 53, 64
4, 26688, Note_on_c, 0, 53, 0
4, 26688, Note_on_c, 0, 57, 64
4, 26784, Note_on_c, 0, 57, 0
4, 26784, Note_on_c, 0, 45, 64
4, 26880, Note_on_c, 0, 45, 0
4, 26880, Note_on_c, 0, 50, 64
4, 26976, Note_on_c, 0, 50, 0
4, 26976, Note_on_c, 0, 50, 88
4, 27008, Note_on_c, 0, 50, 0
4, 27008, Note_on_c, 0, 54, 88
4, 27040, Note_on_c, 0, 54, 0
4, 27040, Note_on_c, 0, 55, 88
4, 27072, Note_on_c, 0, 55, 0
4, 27072, Note_on_c, 0, 57, 88
4, 27104, Note_on_c, 0, 57, 0
4, 27104, Note_on_c, 0, 58, 88
4, 27136, Note_on_c, 0, 58, 0
4, 27136, Note_on_c, 0, 60, 88
4, 27168, Note_on_c, 0, 60, 0
4, 27168, Note_on_c, 0, 62, 88
4, 27232, Note_on_c, 0, 62, 0
4, 27232, Note_on_c, 0, 50, 88
4, 27264, Note_on_c, 0, 50, 0
4, 27264, Note_on_c, 0, 50, 88
4, 27648, Note_on_c, 0, 50, 0
4, 31392, Note_on_c, 0, 57, 88
4, 31488, Note_on_c, 0, 57, 0
4, 31488, Note_on_c, 0, 50, 88
4, 31536, Note_on_c, 0, 50, 0
4, 31584, Note_on_c, 0, 62, 88
4, 31712, Note_on_c, 0, 62, 0
4, 31712, Note_on_c, 0, 60, 88
4, 31744, Note_on_c, 0, 60, 0
4, 31744, Note_on_c, 0, 58, 88
4, 31776, Note_on_c, 0, 58, 0
4, 31776, Note_on_c, 0, 60, 88
4, 31808, Note_on_c, 0, 60, 0
4, 31808, Note_on_c, 0, 58, 88
4, 31840, Note_on_c, 0, 58, 0
4, 31840, Note_on_c, 0, 57, 88
4, 31872, Note_on_c, 0, 57, 0
4, 31872, Note_on_c, 0, 58, 88
4, 31904, Note_on_c, 0, 58, 0
4, 31904, Note_on_c, 0, 57, 88
4, 31936, Note_on_c, 0, 57, 0
4, 31936, Note_on_c, 0, 55, 88
4, 31968, Note_on_c, 0, 55, 0
4, 31968, Note_on_c, 0, 57, 88
4, 32096, Note_on_c, 0, 57, 0
4, 32096, Note_on_c, 0, 55, 88
4, 32128, Note_on_c, 0, 55, 0
4, 32128, Note_on_c, 0, 54, 88
4, 32160, Note_on_c, 0, 54, 0
4, 32160, Note_on_c, 0, 55, 88
4, 32192, Note_on_c, 0, 55, 0
4, 32192, Note_on_c, 0, 54, 88
4, 32224, Note_on_c, 0, 54, 0
4, 32224, Note_on_c, 0, 52, 88
4, 32256, Note_on_c, 0, 52, 0
4, 32256, Note_on_c, 0, 54, 88
4, 32288, Note_on_c, 0, 54, 0
4, 32288, Note_on_c, 0, 55, 88
4, 32320, Note_on_c, 0, 55, 0
4, 32320, Note_on_c, 0, 57, 88
4, 32352, Note_on_c, 0, 57, 0
4, 32352, Note_on_c, 0, 55, 88
4, 32480, Note_on_c, 0, 55, 0
4, 32480, Note_on_c, 0, 57, 88
4, 32512, Note_on_c, 0, 57, 0
4, 32512, Note_on_c, 0, 58, 88
4, 32544, Note_on_c, 0, 58, 0
4, 32544, Note_on_c, 0, 57, 88
4, 32576, Note_on_c, 0, 57, 0
4, 32576, Note_on_c, 0, 58, 88
4, 32608, Note_on_c, 0, 58, 0
4, 32608, Note_on_c, 0, 60, 88
4, 32640, Note_on_c, 0, 60, 0
4, 32640, Note_on_c, 0, 58, 88
4, 32688, Note_on_c, 0, 58, 0
4, 32712, Note_on_c, 0, 55, 88
4, 32736, Note_on_c, 0, 55, 0
4, 32736, Note_on_c, 0, 50, 88
4, 32784, Note_on_c, 0, 50, 0
4, 32808, Note_on_c, 0, 55, 88
4, 32832, Note_on_c, 0, 55, 0
4, 32832, Note_on_c, 0, 58, 88
4, 32880, Note_on_c, 0, 58, 0
4, 32904, Note_on_c, 0, 60, 88
4, 32928, Note_on_c, 0, 60, 0
4, 32928, Note_on_c, 0, 58, 88
4, 32976, Note_on_c, 0, 58, 0
4, 33000, Note_on_c, 0, 57, 88
4, 33024, Note_on_c, 0, 57, 0
4, 33024, Note_on_c, 0, 55, 88
4, 33216, Note_on_c, 0, 55, 0
4, 33312, Note_on_c, 0, 58, 88
4, 33408, Note_on_c, 0, 58, 0
4, 33408, Note_on_c, 0, 57, 88
4, 33504, Note_on_c, 0, 57, 0
4, 33504, Note_on_c, 0, 53, 88
4, 33576, Note_on_c, 0, 53, 0
4, 33576, Note_on_c, 0, 55, 88
4, 33600, Note_on_c, 0, 55, 0
4, 33600, Note_on_c, 0, 57, 88
4, 33696, Note_on_c, 0, 57, 0
4, 33696, Note_on_c, 0, 47, 88
4, 33792, Note_on_c, 0, 47, 0
4, 33792, Note_on_c, 0, 48, 88
4, 33984, Note_on_c, 0, 48, 0
4, 34080, Note_on_c, 0, 60, 88
4, 34176, Note_on_c, 0, 60, 0
4, 34176, Note_on_c, 0, 58, 88
4, 34272, Note_on_c, 0, 58, 0
4, 34272, Note_on_c, 0, 55, 88
4, 34344, Note_on_c, 0, 55, 0
4, 34344, Note_on_c, 0, 57, 88
4, 34368, Note_on_c, 0, 57, 0
4, 34368, Note_on_c, 0, 58, 88
4, 34464, Note_on_c, 0, 58, 0
4, 34464, Note_on_c, 0, 49, 88
4, 34560, Note_on_c, 0, 49, 0
4, 34560, Note_on_c, 0, 50, 88
4, 34704, Note_on_c, 0, 50, 0
4, 34704, Note_on_c, 0, 52, 88
4, 34752, Note_on_c, 0, 52, 0
4, 34752, Note_on_c, 0, 53, 88
4, 34824, Note_on_c, 0, 53, 0
4, 34824, Note_on_c, 0, 55, 88
4, 34848, Note_on_c, 0, 55, 0
4, 34848, Note_on_c, 0, 57, 88
4, 34920, Note_on_c, 0, 57, 0
4, 34920, Note_on_c, 0, 53, 88
4, 34944, Note_on_c, 0, 53, 0
4, 34944, Note_on_c, 0, 60, 88
4, 35040, Note_on_c, 0, 60, 0
4, 35040, Note_on_c, 0, 48, 88
4, 35136, Note_on_c, 0, 48, 0
4, 35136, Note_on_c, 0, 52, 88
4, 35232, Note_on_c, 0, 52, 0
4, 35232, Note_on_c, 0, 55, 88
4, 35328, Note_on_c, 0, 55, 0
4, 35328, Note_on_c, 0, 58, 88
4, 35472, Note_on_c, 0, 58, 0
4, 35472, Note_on_c, 0, 57, 88
4, 35496, Note_on_c, 0, 57, 0
4, 35496, Note_on_c, 0, 55, 88
4, 35520, Note_on_c, 0, 55, 0
4, 35520, Note_on_c, 0, 62, 88
4, 35592, Note_on_c, 0, 62, 0
4, 35592, Note_on_c, 0, 55, 88
4, 35616, Note_on_c, 0, 55, 0
4, 35616, Note_on_c, 0, 53, 88
4, 35688, Note_on_c, 0, 53, 0
4, 35688, Note_on_c, 0, 52, 88
4, 35712, Note_on_c, 0, 52, 0
4, 35712, Note_on_c, 0, 50, 88
4, 35856, Note_on_c, 0, 50, 0
4, 35856, Note_on_c, 0, 52, 88
4, 35904, Note_on_c, 0, 52, 0
4, 35904, Note_on_c, 0, 53, 88
4, 35936, Note_on_c, 0, 53, 0
4, 35936, Note_on_c, 0, 55, 88
4, 35968, Note_on_c, 0, 55, 0
4, 35968, Note_on_c, 0, 57, 88
4, 36000, Note_on_c, 0, 57, 0
4, 36000, Note_on_c, 0, 55, 88
4, 36072, Note_on_c, 0, 55, 0
4, 36072, Note_on_c, 0, 49, 88
4, 36096, Note_on_c, 0, 49, 0
4, 36096, Note_on_c, 0, 50, 88
4, 36128, Note_on_c, 0, 50, 0
4, 36128, Note_on_c, 0, 52, 88
4, 36160, Note_on_c, 0, 52, 0
4, 36160, Note_on_c, 0, 53, 88
4, 36192, Note_on_c, 0, 53, 0
4, 36192, Note_on_c, 0, 52, 88
4, 36224, Note_on_c, 0, 52, 0
4, 36224, Note_on_c, 0, 58, 88
4, 36256, Note_on_c, 0, 58, 0
4, 36256, Note_on_c, 0, 55, 88
4, 36288, Note_on_c, 0, 55, 0
4, 36288, Note_on_c, 0, 52, 88
4, 36320, Note_on_c, 0, 52, 0
4, 36320, Note_on_c, 0, 54, 88
4, 36352, Note_on_c, 0, 54, 0
4, 36352, Note_on_c, 0, 55, 88
4, 36448, Note_on_c, 0, 55, 0
4, 36448, Note_on_c, 0, 55, 88
4, 36456, Note_on_c, 0, 55, 0
4, 36456, Note_on_c, 0, 54, 88
4, 36480, Note_on_c, 0, 54, 0
4, 36480, Note_on_c, 0, 55, 88
4, 36512, Note_on_c, 0, 55, 0
4, 36512, Note_on_c, 0, 53, 88
4, 36544, Note_on_c, 0, 53, 0
4, 36544, Note_on_c, 0, 52, 88
4, 36576, Note_on_c, 0, 52, 0
4, 36576, Note_on_c, 0, 53, 88
4, 36608, Note_on_c, 0, 53, 0
4, 36608, Note_on_c, 0, 57, 88
4, 36640, Note_on_c, 0, 57, 0
4, 36640, Note_on_c, 0, 62, 88
4, 36672, Note_on_c, 0, 62, 0
4, 36672, Note_on_c, 0, 60, 88
4, 36704, Note_on_c, 0, 60, 0
4, 36704, Note_on_c, 0, 58, 88
4, 36736, Note_on_c, 0, 58, 0
4, 36736, Note_on_c, 0, 57, 88
4, 36768, Note_on_c, 0, 57, 0
4, 36768, Note_on_c, 0, 58, 88
4, 36800, Note_on_c, 0, 58, 0
4, 36800, Note_on_c, 0, 57, 88
4, 36832, Note_on_c, 0, 57, 0
4, 36832, Note_on_c, 0, 55, 88
4, 36864, Note_on_c, 0, 55, 0
4, 36864, Note_on_c, 0, 57, 88
4, 36960, Note_on_c, 0, 57, 0
4, 36960, Note_on_c, 0, 53, 88
4, 37056, Note_on_c, 0, 53, 0
4, 37056, Note_on_c, 0, 57, 88
4, 37152, Note_on_c, 0, 57, 0
4, 37152, Note_on_c, 0, 62, 88
4, 37248, Note_on_c, 0, 62, 0
4, 37248, Note_on_c, 0, 60, 88
4, 37320, Note_on_c, 0, 60, 0
4, 37320, Note_on_c, 0, 57, 88
4, 37344, Note_on_c, 0, 57, 0
4, 37344, Note_on_c, 0, 48, 88
4, 37416, Note_on_c, 0, 48, 0
4, 37416, Note_on_c, 0, 57, 88
4, 37440, Note_on_c, 0, 57, 0
4, 37440, Note_on_c, 0, 60, 88
4, 37512, Note_on_c, 0, 60, 0
4, 37512, Note_on_c, 0, 64, 88
4, 37536, Note_on_c, 0, 64, 0
4, 37536, Note_on_c, 0, 62, 88
4, 37608, Note_on_c, 0, 62, 0
4, 37608, Note_on_c, 0, 60, 88
4, 37632, Note_on_c, 0, 60, 0
4, 37632, Note_on_c, 0, 59, 88
4, 37728, Note_on_c, 0, 59, 0
4, 37728, Note_on_c, 0, 55, 88
4, 37824, Note_on_c, 0, 55, 0
4, 37824, Note_on_c, 0, 59, 88
4, 37920, Note_on_c, 0, 59, 0
4, 37920, Note_on_c, 0, 64, 88
4, 38016, Note_on_c, 0, 64, 0
4, 38016, Note_on_c, 0, 62, 88
4, 38088, Note_on_c, 0, 62, 0
4, 38088, Note_on_c, 0, 59, 88
4, 38112, Note_on_c, 0, 59, 0
4, 38112, Note_on_c, 0, 54, 88
4, 38184, Note_on_c, 0, 54, 0
4, 38184, Note_on_c, 0, 59, 88
4, 38208, Note_on_c, 0, 59, 0
4, 38208, Note_on_c, 0, 62, 88
4, 38280, Note_on_c, 0, 62, 0
4, 38280, Note_on_c, 0, 65, 88
4, 38304, Note_on_c, 0, 65, 0
4, 38304, Note_on_c, 0, 64, 88
4, 38376, Note_on_c, 0, 64, 0
4, 38376, Note_on_c, 0, 62, 88
4, 38400, Note_on_c, 0, 62, 0
4, 38400, Note_on_c, 0, 60, 88
4, 38496, Note_on_c, 0, 60, 0
4, 38496, Note_on_c, 0, 48, 88
4, 38624, Note_on_c, 0, 48, 0
4, 38624, Note_on_c, 0, 50, 88
4, 38656, Note_on_c, 0, 50, 0
4, 38656, Note_on_c, 0, 52, 88
4, 38688, Note_on_c, 0, 52, 0
4, 38688, Note_on_c, 0, 50, 88
4, 38720, Note_on_c, 0, 50, 0
4, 38720, Note_on_c, 0, 52, 88
4, 38752, Note_on_c, 0, 52, 0
4, 38752, Note_on_c, 0, 53, 88
4, 38784, Note_on_c, 0, 53, 0
4, 38784, Note_on_c, 0, 52, 88
4, 38816, Note_on_c, 0, 52, 0
4, 38816, Note_on_c, 0, 53, 88
4, 38848, Note_on_c, 0, 53, 0
4, 38848, Note_on_c, 0, 55, 88
4, 38880, Note_on_c, 0, 55, 0
4, 38880, Note_on_c, 0, 53, 88
4, 39008, Note_on_c, 0, 53, 0
4, 39008, Note_on_c, 0, 55, 88
4, 39040, Note_on_c, 0, 55, 0
4, 39040, Note_on_c, 0, 57, 88
4, 39072, Note_on_c, 0, 57, 0
4, 39072, Note_on_c, 0, 55, 88
4, 39104, Note_on_c, 0, 55, 0
4, 39104, Note_on_c, 0, 57, 88
4, 39136, Note_on_c, 0, 57, 0
4, 39136, Note_on_c, 0, 58, 88
4, 39168, Note_on_c, 0, 58, 0
4, 39168, Note_on_c, 0, 57, 88
4, 39264, Note_on_c, 0, 57, 0
4, 39264, Note_on_c, 0, 53, 88
4, 39360, Note_on_c, 0, 53, 0
4, 39360, Note_on_c, 0, 57, 88
4, 39456, Note_on_c, 0, 57, 0
4, 39456, Note_on_c, 0, 62, 88
4, 39552, Note_on_c, 0, 62, 0
4, 39552, Note_on_c, 0, 60, 88
4, 39936, Note_on_c, 0, 60, 0
4, 39936, Note_on_c, 0, 60, 88
4, 40320, Note_on_c, 0, 60, 0
4, 40320, Note_on_c, 0, 60, 88
4, 40512, Note_on_c, 0, 60, 0
4, 40608, Note_on_c, 0, 60, 88
4, 40704, Note_on_c, 0, 60, 0
4, 40704, Note_on_c, 0, 65, 88
4, 40752, Note_on_c, 0, 65, 0
4, 40800, Note_on_c, 0, 53, 88
4, 40928, Note_on_c, 0, 53, 0
4, 40928, Note_on_c, 0, 55, 88
4, 40960, Note_on_c, 0, 55, 0
4, 40960, Note_on_c, 0, 57, 88
4, 40992, Note_on_c, 0, 57, 0
4, 40992, Note_on_c, 0, 55, 88
4, 41024, Note_on_c, 0, 55, 0
4, 41024, Note_on_c, 0, 57, 88
4, 41056, Note_on_c, 0, 57, 0
4, 41056, Note_on_c, 0, 58, 88
4, 41088, Note_on_c, 0, 58, 0
4, 41088, Note_on_c, 0, 57, 88
4, 41120, Note_on_c, 0, 57, 0
4, 41120, Note_on_c, 0, 58, 88
4, 41152, Note_on_c, 0, 58, 0
4, 41152, Note_on_c, 0, 60, 88
4, 41184, Note_on_c, 0, 60, 0
4, 41184, Note_on_c, 0, 58, 88
4, 41312, Note_on_c, 0, 58, 0
4, 41312, Note_on_c, 0, 60, 88
4, 41344, Note_on_c, 0, 60, 0
4, 41344, Note_on_c, 0, 62, 88
4, 41376, Note_on_c, 0, 62, 0
4, 41376, Note_on_c, 0, 60, 88
4, 41408, Note_on_c, 0, 60, 0
4, 41408, Note_on_c, 0, 62, 88
4, 41440, Note_on_c, 0, 62, 0
4, 41440, Note_on_c, 0, 64, 88
4, 41472, Note_on_c, 0, 64, 0
4, 41472, Note_on_c, 0, 62, 88
4, 41504, Note_on_c, 0, 62, 0
4, 41504, Note_on_c, 0, 60, 88
4, 41536, Note_on_c, 0, 60, 0
4, 41536, Note_on_c, 0, 58, 88
4, 41568, Note_on_c, 0, 58, 0
4, 41568, Note_on_c, 0, 60, 88
4, 41696, Note_on_c, 0, 60, 0
4, 41696, Note_on_c, 0, 58, 88
4, 41728, Note_on_c, 0, 58, 0
4, 41728, Note_on_c, 0, 57, 88
4, 41760, Note_on_c, 0, 57, 0
4, 41760, Note_on_c, 0, 58, 88
4, 41792, Note_on_c, 0, 58, 0
4, 41792, Note_on_c, 0, 57, 88
4, 41824, Note_on_c, 0, 57, 0
4, 41824, Note_on_c, 0, 55, 88
4, 41856, Note_on_c, 0, 55, 0
4, 41856, Note_on_c, 0, 57, 88
4, 41928, Note_on_c, 0, 57, 0
4, 41928, Note_on_c, 0, 60, 88
4, 41952, Note_on_c, 0, 60, 0
4, 41952, Note_on_c, 0, 65, 88
4, 42024, Note_on_c, 0, 65, 0
4, 42024, Note_on_c, 0, 60, 88
4, 42048, Note_on_c, 0, 60, 0
4, 42048, Note_on_c, 0, 57, 88
4, 42120, Note_on_c, 0, 57, 0
4, 42120, Note_on_c, 0, 55, 88
4, 42144, Note_on_c, 0, 55, 0
4, 42144, Note_on_c, 0, 57, 88
4, 42216, Note_on_c, 0, 57, 0
4, 42216, Note_on_c, 0, 59, 88
4, 42240, Note_on_c, 0, 59, 0
4, 42240, Note_on_c, 0, 60, 88
4, 42272, Note_on_c, 0, 60, 0
4, 42272, Note_on_c, 0, 64, 88
4, 42304, Note_on_c, 0, 64, 0
4, 42304, Note_on_c, 0, 62, 88
4, 42336, Note_on_c, 0, 62, 0
4, 42336, Note_on_c, 0, 60, 88
4, 42368, Note_on_c, 0, 60, 0
4, 42368, Note_on_c, 0, 59, 88
4, 42400, Note_on_c, 0, 59, 0
4, 42400, Note_on_c, 0, 57, 88
4, 42432, Note_on_c, 0, 57, 0
4, 42432, Note_on_c, 0, 56, 88
4, 42504, Note_on_c, 0, 56, 0
4, 42504, Note_on_c, 0, 57, 88
4, 42528, Note_on_c, 0, 57, 0
4, 42528, Note_on_c, 0, 59, 88
4, 42600, Note_on_c, 0, 59, 0
4, 42600, Note_on_c, 0, 56, 88
4, 42624, Note_on_c, 0, 56, 0
4, 42624, Note_on_c, 0, 57, 88
4, 42656, Note_on_c, 0, 57, 0
4, 42656, Note_on_c, 0, 56, 88
4, 42688, Note_on_c, 0, 56, 0
4, 42688, Note_on_c, 0, 54, 88
4, 42720, Note_on_c, 0, 54, 0
4, 42720, Note_on_c, 0, 56, 88
4, 42752, Note_on_c, 0, 56, 0
4, 42752, Note_on_c, 0, 52, 88
4, 42784, Note_on_c, 0, 52, 0
4, 42784, Note_on_c, 0, 56, 88
4, 42816, Note_on_c, 0, 56, 0
4, 42816, Note_on_c, 0, 59, 88
4, 42848, Note_on_c, 0, 59, 0
4, 42848, Note_on_c, 0, 60, 88
4, 42880, Note_on_c, 0, 60, 0
4, 42880, Note_on_c, 0, 62, 88
4, 42912, Note_on_c, 0, 62, 0
4, 42912, Note_on_c, 0, 60, 88
4, 42944, Note_on_c, 0, 60, 0
4, 42944, Note_on_c, 0, 59, 88
4, 42976, Note_on_c, 0, 59, 0
4, 42976, Note_on_c, 0, 57, 88
4, 43008, Note_on_c, 0, 57, 0
4, 43008, Note_on_c, 0, 59, 88
4, 43040, Note_on_c, 0, 59, 0
4, 43040, Note_on_c, 0, 60, 88
4, 43072, Note_on_c, 0, 60, 0
4, 43072, Note_on_c, 0, 62, 88
4, 43104, Note_on_c, 0, 62, 0
4, 43104, Note_on_c, 0, 60, 88
4, 43136, Note_on_c, 0, 60, 0
4, 43136, Note_on_c, 0, 64, 88
4, 43168, Note_on_c, 0, 64, 0
4, 43168, Note_on_c, 0, 62, 88
4, 43200, Note_on_c, 0, 62, 0
4, 43200, Note_on_c, 0, 60, 88
4, 43232, Note_on_c, 0, 60, 0
4, 43232, Note_on_c, 0, 59, 88
4, 43264, Note_on_c, 0, 59, 0
4, 43264, Note_on_c, 0, 57, 88
4, 43296, Note_on_c, 0, 57, 0
4, 43296, Note_on_c, 0, 56, 88
4, 43328, Note_on_c, 0, 56, 0
4, 43328, Note_on_c, 0, 57, 88
4, 43360, Note_on_c, 0, 57, 0
4, 43360, Note_on_c, 0, 59, 88
4, 43392, Note_on_c, 0, 59, 0
4, 43392, Note_on_c, 0, 57, 88
4, 43424, Note_on_c, 0, 57, 0
4, 43424, Note_on_c, 0, 64, 88
4, 43456, Note_on_c, 0, 64, 0
4, 43456, Note_on_c, 0, 60, 88
4, 43488, Note_on_c, 0, 60, 0
4, 43488, Note_on_c, 0, 57, 88
4, 43520, Note_on_c, 0, 57, 0
4, 43520, Note_on_c, 0, 60, 88
4, 43552, Note_on_c, 0, 60, 0
4, 43552, Note_on_c, 0, 57, 88
4, 43584, Note_on_c, 0, 57, 0
4, 43584, Note_on_c, 0, 52, 88
4, 43656, Note_on_c, 0, 52, 0
4, 43656, Note_on_c, 0, 53, 88
4, 43680, Note_on_c, 0, 53, 0
4, 43680, Note_on_c, 0, 52, 88
4, 43752, Note_on_c, 0, 52, 0
4, 43752, Note_on_c, 0, 50, 88
4, 43776, Note_on_c, 0, 50, 0
4, 43776, Note_on_c, 0, 48, 88
4, 43848, Note_on_c, 0, 48, 0
4, 43848, Note_on_c, 0, 52, 88
4, 43872, Note_on_c, 0, 52, 0
4, 43872, Note_on_c, 0, 57, 88
4, 43944, Note_on_c, 0, 57, 0
4, 43944, Note_on_c, 0, 52, 88
4, 43968, Note_on_c, 0, 52, 0
4, 43968, Note_on_c, 0, 48, 88
4, 44040, Note_on_c, 0, 48, 0
4, 44040, Note_on_c, 0, 46, 88
4, 44064, Note_on_c, 0, 46, 0
4, 44064, Note_on_c, 0, 48, 88
4, 44136, Note_on_c, 0, 48, 0
4, 44136, Note_on_c, 0, 50, 88
4, 44160, Note_on_c, 0, 50, 0
4, 44160, Note_on_c, 0, 52, 88
4, 44256, Note_on_c, 0, 52, 0
4, 44256, Note_on_c, 0, 55, 88
4, 44352, Note_on_c, 0, 55, 0
4, 44352, Note_on_c, 0, 52, 88
4, 44448, Note_on_c, 0, 52, 0
4, 44448, Note_on_c, 0, 49, 88
4, 44544, Note_on_c, 0, 49, 0
4, 44544, Note_on_c, 0, 50, 88
4, 44616, Note_on_c, 0, 50, 0
4, 44616, Note_on_c, 0, 53, 88
4, 44640, Note_on_c, 0, 53, 0
4, 44640, Note_on_c, 0, 58, 88
4, 44712, Note_on_c, 0, 58, 0
4, 44712, Note_on_c, 0, 53, 88
4, 44736, Note_on_c, 0, 53, 0
4, 44736, Note_on_c, 0, 50, 88
4, 44808, Note_on_c, 0, 50, 0
4, 44808, Note_on_c, 0, 48, 88
4, 44832, Note_on_c, 0, 48, 0
4, 44832, Note_on_c, 0, 50, 88
4, 44904, Note_on_c, 0, 50, 0
4, 44904, Note_on_c, 0, 52, 88
4, 44928, Note_on_c, 0, 52, 0
4, 44928, Note_on_c, 0, 53, 88
4, 45024, Note_on_c, 0, 53, 0
4, 45024, Note_on_c, 0, 57, 88
4, 45120, Note_on_c, 0, 57, 0
4, 45120, Note_on_c, 0, 53, 88
4, 45216, Note_on_c, 0, 53, 0
4, 45216, Note_on_c, 0, 50, 88
4, 45312, Note_on_c, 0, 50, 0
4, 45312, Note_on_c, 0, 52, 88
4, 45408, Note_on_c, 0, 52, 0
4, 45408, Note_on_c, 0, 57, 88
4, 45504, Note_on_c, 0, 57, 0
4, 45504, Note_on_c, 0, 58, 88
4, 45600, Note_on_c, 0, 58, 0
4, 45760, Note_on_c, 0, 58, 88
4, 45776, Note_on_c, 0, 58, 0
4, 45776, Note_on_c, 0, 57, 88
4, 45792, Note_on_c, 0, 57, 0
4, 45792, Note_on_c, 0, 55, 88
4, 45816, Note_on_c, 0, 55, 0
4, 45816, Note_on_c, 0, 53, 88
4, 45840, Note_on_c, 0, 53, 0
4, 45840, Note_on_c, 0, 52, 88
4, 45864, Note_on_c, 0, 52, 0
4, 45864, Note_on_c, 0, 50, 88
4, 45888, Note_on_c, 0, 50, 0
4, 45888, Note_on_c, 0, 49, 88
4, 45984, Note_on_c, 0, 49, 0
4, 46112, Note_on_c, 0, 55, 88
4, 46144, Note_on_c, 0, 55, 0
4, 46144, Note_on_c, 0, 50, 88
4, 46176, Note_on_c, 0, 50, 0
4, 46176, Note_on_c, 0, 52, 88
4, 46208, Note_on_c, 0, 52, 0
4, 46208, Note_on_c, 0, 53, 88
4, 46240, Note_on_c, 0, 53, 0
4, 46240, Note_on_c, 0, 55, 88
4, 46272, Note_on_c, 0, 55, 0
4, 46272, Note_on_c, 0, 53, 88
4, 46304, Note_on_c, 0, 53, 0
4, 46304, Note_on_c, 0, 55, 88
4, 46336, Note_on_c, 0, 55, 0
4, 46336, Note_on_c, 0, 57, 88
4, 46368, Note_on_c, 0, 57, 0
4, 46368, Note_on_c, 0, 58, 88
4, 46400, Note_on_c, 0, 58, 0
4, 46400, Note_on_c, 0, 57, 88
4, 46432, Note_on_c, 0, 57, 0
4, 46432, Note_on_c, 0, 55, 88
4, 46464, Note_on_c, 0, 55, 0
4, 46464, Note_on_c, 0, 53, 88
4, 46560, Note_on_c, 0, 53, 0
4, 46752, Note_on_c, 0, 61, 88
4, 46848, Note_on_c, 0, 61, 0
4, 46848, Note_on_c, 0, 62, 88
4, 46880, Note_on_c, 0, 62, 0
4, 46880, Note_on_c, 0, 64, 88
4, 46912, Note_on_c, 0, 64, 0
4, 46912, Note_on_c, 0, 65, 88
4, 46944, Note_on_c, 0, 65, 0
4, 46944, Note_on_c, 0, 64, 88
4, 46976, Note_on_c, 0, 64, 0
4, 46976, Note_on_c, 0, 62, 88
4, 47008, Note_on_c, 0, 62, 0
4, 47008, Note_on_c, 0, 65, 88
4, 47040, Note_on_c, 0, 65, 0
4, 47040, Note_on_c, 0, 64, 88
4, 47064, Note_on_c, 0, 64, 0
4, 47064, Note_on_c, 0, 66, 88
4, 47088, Note_on_c, 0, 66, 0
4, 47088, Note_on_c, 0, 67, 88
4, 47184, Note_on_c, 0, 67, 0
4, 47184, Note_on_c, 0, 66, 88
4, 47232, Note_on_c, 0, 66, 0
4, 47232, Note_on_c, 0, 67, 88
4, 47328, Note_on_c, 0, 67, 0
4, 47520, Note_on_c, 0, 55, 88
4, 47616, Note_on_c, 0, 55, 0
4, 47616, Note_on_c, 0, 62, 88
4, 47712, Note_on_c, 0, 62, 0
4, 47904, Note_on_c, 0, 62, 88
4, 48000, Note_on_c, 0, 62, 0
4, 48000, Note_on_c, 0, 60, 88
4, 48072, Note_on_c, 0, 60, 0
4, 48072, Note_on_c, 0, 57, 88
4, 48096, Note_on_c, 0, 57, 0
4, 48096, Note_on_c, 0, 52, 88
4, 48168, Note_on_c, 0, 52, 0
4, 48168, Note_on_c, 0, 57, 88
4, 48192, Note_on_c, 0, 57, 0
4, 48192, Note_on_c, 0, 60, 88
4, 48264, Note_on_c, 0, 60, 0
4, 48264, Note_on_c, 0, 64, 88
4, 48288, Note_on_c, 0, 64, 0
4, 48288, Note_on_c, 0, 62, 88
4, 48360, Note_on_c, 0, 62, 0
4, 48360, Note_on_c, 0, 60, 88
4, 48384, Note_on_c, 0, 60, 0
4, 48384, Note_on_c, 0, 67, 88
4, 48480, Note_on_c, 0, 67, 0
4, 48672, Note_on_c, 0, 60, 88
4, 48768, Note_on_c, 0, 60, 0
4, 48768, Note_on_c, 0, 58, 88
4, 48840, Note_on_c, 0, 58, 0
4, 48840, Note_on_c, 0, 55, 88
4, 48864, Note_on_c, 0, 55, 0
4, 48864, Note_on_c, 0, 50, 88
4, 48936, Note_on_c, 0, 50, 0
4, 48936, Note_on_c, 0, 55, 88
4, 48960, Note_on_c, 0, 55, 0
4, 48960, Note_on_c, 0, 58, 88
4, 49032, Note_on_c, 0, 58, 0
4, 49032, Note_on_c, 0, 62, 88
4, 49056, Note_on_c, 0, 62, 0
4, 49056, Note_on_c, 0, 60, 88
4, 49128, Note_on_c, 0, 60, 0
4, 49128, Note_on_c, 0, 58, 88
4, 49152, Note_on_c, 0, 58, 0
4, 49152, Note_on_c, 0, 65, 88
4, 49248, Note_on_c, 0, 65, 0
4, 49440, Note_on_c, 0, 58, 88
4, 49536, Note_on_c, 0, 58, 0
4, 49536, Note_on_c, 0, 57, 88
4, 49608, Note_on_c, 0, 57, 0
4, 49608, Note_on_c, 0, 53, 88
4, 49632, Note_on_c, 0, 53, 0
4, 49632, Note_on_c, 0, 48, 88
4, 49704, Note_on_c, 0, 48, 0
4, 49704, Note_on_c, 0, 53, 88
4, 49728, Note_on_c, 0, 53, 0
4, 49728, Note_on_c, 0, 57, 88
4, 49800, Note_on_c, 0, 57, 0
4, 49800, Note_on_c, 0, 60, 88
4, 49824, Note_on_c, 0, 60, 0
4, 49824, Note_on_c, 0, 58, 88
4, 49896, Note_on_c, 0, 58, 0
4, 49896, Note_on_c, 0, 57, 88
4, 49920, Note_on_c, 0, 57, 0
4, 49920, Note_on_c, 0, 64, 88
4, 50016, Note_on_c, 0, 64, 0
4, 50208, Note_on_c, 0, 57, 88
4, 50304, Note_on_c, 0, 57, 0
4, 50304, Note_on_c, 0, 58, 88
4, 50400, Note_on_c, 0, 58, 0
4, 50568, Note_on_c, 0, 52, 88
4, 50592, Note_on_c, 0, 52, 0
4, 50592, Note_on_c, 0, 53, 88
4, 50664, Note_on_c, 0, 53, 0
4, 50664, Note_on_c, 0, 55, 88
4, 50688, Note_on_c, 0, 55, 0
4, 50688, Note_on_c, 0, 49, 88
4, 50880, Note_on_c, 0, 49, 0
4, 51008, Note_on_c, 0, 49, 88
4, 51040, Note_on_c, 0, 49, 0
4, 51040, Note_on_c, 0, 58, 88
4, 51072, Note_on_c, 0, 58, 0
4, 51072, Note_on_c, 0, 57, 88
4, 51200, Note_on_c, 0, 57, 0
4, 51200, Note_on_c, 0, 55, 88
4, 51232, Note_on_c, 0, 55, 0
4, 51232, Note_on_c, 0, 54, 88
4, 51264, Note_on_c, 0, 54, 0
4, 51264, Note_on_c, 0, 55, 88
4, 51392, Note_on_c, 0, 55, 0
4, 51392, Note_on_c, 0, 57, 88
4, 51424, Note_on_c, 0, 57, 0
4, 51424, Note_on_c, 0, 55, 88
4, 51456, Note_on_c, 0, 55, 0
4, 51456, Note_on_c, 0, 53, 88
4, 51584, Note_on_c, 0, 53, 0
4, 51584, Note_on_c, 0, 52, 88
4, 51616, Note_on_c, 0, 52, 0
4, 51616, Note_on_c, 0, 50, 88
4, 51648, Note_on_c, 0, 50, 0
4, 51648, Note_on_c, 0, 52, 88
4, 51776, Note_on_c, 0, 52, 0
4, 51776, Note_on_c, 0, 53, 88
4, 51808, Note_on_c, 0, 53, 0
4, 51808, Note_on_c, 0, 52, 88
4, 51840, Note_on_c, 0, 52, 0
4, 51840, Note_on_c, 0, 50, 88
4, 52224, Note_on_c, 0, 50, 0
4, 52224, Note_on_c, 0, 50, 88
4, 52256, Note_on_c, 0, 50, 0
4, 52256, Note_on_c, 0, 49, 88
4, 52288, Note_on_c, 0, 49, 0
4, 52288, Note_on_c, 0, 47, 88
4, 52320, Note_on_c, 0, 47, 0
4, 52320, Note_on_c, 0, 49, 88
4, 52352, Note_on_c, 0, 49, 0
4, 52352, Note_on_c, 0, 52, 88
4, 52384, Note_on_c, 0, 52, 0
4, 52384, Note_on_c, 0, 57, 88
4, 52416, Note_on_c, 0, 57, 0
4, 52416, Note_on_c, 0, 55, 88
4, 52448, Note_on_c, 0, 55, 0
4, 52448, Note_on_c, 0, 53, 88
4, 52480, Note_on_c, 0, 53, 0
4, 52480, Note_on_c, 0, 52, 88
4, 52512, Note_on_c, 0, 52, 0
4, 52512, Note_on_c, 0, 53, 88
4, 52544, Note_on_c, 0, 53, 0
4, 52544, Note_on_c, 0, 52, 88
4, 52576, Note_on_c, 0, 52, 0
4, 52576, Note_on_c, 0, 50, 88
4, 52608, Note_on_c, 0, 50, 0
4, 52608, Note_on_c, 0, 52, 88
4, 52640, Note_on_c, 0, 52, 0
4, 52640, Note_on_c, 0, 53, 88
4, 52672, Note_on_c, 0, 53, 0
4, 52672, Note_on_c, 0, 55, 88
4, 52704, Note_on_c, 0, 55, 0
4, 52704, Note_on_c, 0, 54, 88
4, 52736, Note_on_c, 0, 54, 0
4, 52736, Note_on_c, 0, 55, 88
4, 52768, Note_on_c, 0, 55, 0
4, 52768, Note_on_c, 0, 57, 88
4, 52800, Note_on_c, 0, 57, 0
4, 52800, Note_on_c, 0, 55, 88
4, 52896, Note_on_c, 0, 55, 0
4, 53280, Note_on_c, 0, 57, 88
4, 53376, Note_on_c, 0, 57, 0
4, 53376, Note_on_c, 0, 62, 88
4, 53424, Note_on_c, 0, 62, 0
4, 53472, Note_on_c, 0, 50, 88
4, 53600, Note_on_c, 0, 50, 0
4, 53600, Note_on_c, 0, 52, 88
4, 53632, Note_on_c, 0, 52, 0
4, 53632, Note_on_c, 0, 54, 88
4, 53664, Note_on_c, 0, 54, 0
4, 53664, Note_on_c, 0, 52, 88
4, 53696, Note_on_c, 0, 52, 0
4, 53696, Note_on_c, 0, 54, 88
4, 53728, Note_on_c, 0, 54, 0
4, 53728, Note_on_c, 0, 55, 88
4, 53760, Note_on_c, 0, 55, 0
4, 53760, Note_on_c, 0, 54, 88
4, 53792, Note_on_c, 0, 54, 0
4, 53792, Note_on_c, 0, 55, 88
4, 53824, Note_on_c, 0, 55, 0
4, 53824, Note_on_c, 0, 57, 88
4, 53856, Note_on_c, 0, 57, 0
4, 53856, Note_on_c, 0, 55, 88
4, 53984, Note_on_c, 0, 55, 0
4, 53984, Note_on_c, 0, 57, 88
4, 54016, Note_on_c, 0, 57, 0
4, 54016, Note_on_c, 0, 58, 88
4, 54048, Note_on_c, 0, 58, 0
4, 54048, Note_on_c, 0, 57, 88
4, 54080, Note_on_c, 0, 57, 0
4, 54080, Note_on_c, 0, 58, 88
4, 54112, Note_on_c, 0, 58, 0
4, 54112, Note_on_c, 0, 60, 88
4, 54144, Note_on_c, 0, 60, 0
4, 54144, Note_on_c, 0, 58, 88
4, 54176, Note_on_c, 0, 58, 0
4, 54176, Note_on_c, 0, 57, 88
4, 54208, Note_on_c, 0, 57, 0
4, 54208, Note_on_c, 0, 55, 88
4, 54240, Note_on_c, 0, 55, 0
4, 54240, Note_on_c, 0, 57, 88
4, 54368, Note_on_c, 0, 57, 0
4, 54368, Note_on_c, 0, 55, 88
4, 54400, Note_on_c, 0, 55, 0
4, 54400, Note_on_c, 0, 53, 88
4, 54432, Note_on_c, 0, 53, 0
4, 54432, Note_on_c, 0, 55, 88
4, 54464, Note_on_c, 0, 55, 0
4, 54464, Note_on_c, 0, 53, 88
4, 54496, Note_on_c, 0, 53, 0
4, 54496, Note_on_c, 0, 52, 88
4, 54528, Note_on_c, 0, 52, 0
4, 54528, Note_on_c, 0, 53, 88
4, 54600, Note_on_c, 0, 53, 0
4, 54600, Note_on_c, 0, 57, 88
4, 54624, Note_on_c, 0, 57, 0
4, 54624, Note_on_c, 0, 62, 88
4, 54696, Note_on_c, 0, 62, 0
4, 54696, Note_on_c, 0, 57, 88
4, 54720, Note_on_c, 0, 57, 0
4, 54720, Note_on_c, 0, 53, 88
4, 54792, Note_on_c, 0, 53, 0
4, 54792, Note_on_c, 0, 52, 88
4, 54816, Note_on_c, 0, 52, 0
4, 54816, Note_on_c, 0, 54, 88
4, 54888, Note_on_c, 0, 54, 0
4, 54888, Note_on_c, 0, 55, 88
4, 54912, Note_on_c, 0, 55, 0
4, 54912, Note_on_c, 0, 57, 88
4, 54944, Note_on_c, 0, 57, 0
4, 54944, Note_on_c, 0, 58, 88
4, 54976, Note_on_c, 0, 58, 0
4, 54976, Note_on_c, 0, 60, 88
4, 55008, Note_on_c, 0, 60, 0
4, 55008, Note_on_c, 0, 58, 88
4, 55136, Note_on_c, 0, 58, 0
4, 55136, Note_on_c, 0, 60, 88
4, 55168, Note_on_c, 0, 60, 0
4, 55168, Note_on_c, 0, 62, 88
4, 55200, Note_on_c, 0, 62, 0
4, 55200, Note_on_c, 0, 61, 88
4, 55232, Note_on_c, 0, 61, 0
4, 55232, Note_on_c, 0, 59, 88
4, 55264, Note_on_c, 0, 59, 0
4, 55264, Note_on_c, 0, 57, 88
4, 55296, Note_on_c, 0, 57, 0
4, 55296, Note_on_c, 0, 62, 88
4, 55680, Note_on_c, 0, 62, 0
4, 55680, End_track
0, 0, End_of_file
