0, 0, Header, 1, 5, 120
1, 0, Start_track
1, 0, Time_signature, 4, 2, 24, 8
1, 0, Key_signature, 0, "major"
1, 0, Tempo, 1333333
1, 0, End_track
2, 0, Start_track
2, 0, MIDI_port, 0
2, 0, Title_t, "Trumpet/Oboe/Trumpet"
2, 0, Control_c, 0, 7, 105
2, 0, Control_c, 0, 10, 64
2, 120, Program_c, 0, 56
2, 360, Note_on_c, 0, 72, 90
2, 595, Note_on_c, 0, 72, 0
2, 600, Note_on_c, 0, 71, 90
2, 715, Note_on_c, 0, 71, 0
2, 720, Note_on_c, 0, 72, 90
2, 830, Note_on_c, 0, 72, 0
2, 840, Note_on_c, 0, 74, 90
2, 955, Note_on_c, 0, 74, 0
2, 960, Note_on_c, 0, 76, 90
2, 1075, Note_on_c, 0, 76, 0
2, 1080, Note_on_c, 0, 77, 90
2, 1195, Note_on_c, 0, 77, 0
2, 1200, Note_on_c, 0, 74, 90
2, 1315, Note_on_c, 0, 74, 0
2, 1320, Note_on_c, 0, 76, 90
2, 1545, Note_on_c, 0, 76, 0
2, 1680, Note_on_c, 0, 76, 90
2, 1790, Note_on_c, 0, 76, 0
2, 1800, Note_on_c, 0, 72, 90
2, 1915, Note_on_c, 0, 72, 0
2, 1920, Note_on_c, 0, 71, 90
2, 2030, Note_on_c, 0, 71, 0
2, 2040, Note_on_c, 0, 69, 90
2, 2155, Note_on_c, 0, 69, 0
2, 2160, Note_on_c, 0, 76, 90
2, 2265, Note_on_c, 0, 76, 0
2, 2280, Note_on_c, 0, 76, 90
2, 2385, Note_on_c, 0, 76, 0
2, 2400, Note_on_c, 0, 76, 90
2, 2406, Note_on_c, 0, 76, 0
2, 2407, Note_on_c, 0, 75, 90
2, 2413, Note_on_c, 0, 75, 0
2, 2415, Note_on_c, 0, 76, 90
2, 2421, Note_on_c, 0, 76, 0
2, 2422, Note_on_c, 0, 75, 90
2, 2428, Note_on_c, 0, 75, 0
2, 2430, Note_on_c, 0, 76, 90
2, 2436, Note_on_c, 0, 76, 0
2, 2437, Note_on_c, 0, 75, 90
2, 2443, Note_on_c, 0, 75, 0
2, 2445, Note_on_c, 0, 76, 90
2, 2451, Note_on_c, 0, 76, 0
2, 2452, Note_on_c, 0, 75, 90
2, 2512, Note_on_c, 0, 75, 0
2, 2520, Note_on_c, 0, 76, 90
2, 2745, Note_on_c, 0, 76, 0
2, 3000, Program_c, 0, 68
2, 3240, Note_on_c, 0, 72, 90
2, 3470, Note_on_c, 0, 72, 0
2, 3480, Note_on_c, 0, 71, 90
2, 3592, Note_on_c, 0, 71, 0
2, 3600, Note_on_c, 0, 72, 90
2, 3712, Note_on_c, 0, 72, 0
2, 3720, Note_on_c, 0, 74, 90
2, 3836, Note_on_c, 0, 74, 0
2, 3840, Note_on_c, 0, 76, 90
2, 3950, Note_on_c, 0, 76, 0
2, 3960, Note_on_c, 0, 77, 90
2, 4070, Note_on_c, 0, 77, 0
2, 4080, Note_on_c, 0, 74, 90
2, 4192, Note_on_c, 0, 74, 0
2, 4200, Note_on_c, 0, 76, 90
2, 4425, Note_on_c, 0, 76, 0
2, 4560, Note_on_c, 0, 76, 90
2, 4678, Note_on_c, 0, 76, 0
2, 4680, Note_on_c, 0, 72, 90
2, 4796, Note_on_c, 0, 72, 0
2, 4800, Note_on_c, 0, 71, 90
2, 4912, Note_on_c, 0, 71, 0
2, 4920, Note_on_c, 0, 69, 90
2, 5032, Note_on_c, 0, 69, 0
2, 5040, Note_on_c, 0, 76, 90
2, 5145, Note_on_c, 0, 76, 0
2, 5160, Note_on_c, 0, 76, 90
2, 5265, Note_on_c, 0, 76, 0
2, 5280, Note_on_c, 0, 76, 90
2, 5286, Note_on_c, 0, 76, 0
2, 5287, Note_on_c, 0, 75, 90
2, 5293, Note_on_c, 0, 75, 0
2, 5295, Note_on_c, 0, 76, 90
2, 5301, Note_on_c, 0, 76, 0
2, 5302, Note_on_c, 0, 75, 90
2, 5308, Note_on_c, 0, 75, 0
2, 5310, Note_on_c, 0, 76, 90
2, 5316, Note_on_c, 0, 76, 0
2, 5317, Note_on_c, 0, 75, 90
2, 5323, Note_on_c, 0, 75, 0
2, 5325, Note_on_c, 0, 76, 90
2, 5331, Note_on_c, 0, 76, 0
2, 5332, Note_on_c, 0, 75, 90
2, 5400, Note_on_c, 0, 75, 0
2, 5400, Note_on_c, 0, 76, 90
2, 5865, Note_on_c, 0, 76, 0
2, 5880, Program_c, 0, 56
2, 6120, Note_on_c, 0, 72, 95
2, 6350, Note_on_c, 0, 72, 0
2, 6360, Note_on_c, 0, 74, 95
2, 6465, Note_on_c, 0, 74, 0
2, 6480, Note_on_c, 0, 74, 95
2, 6598, Note_on_c, 0, 74, 0
2, 6600, Note_on_c, 0, 71, 95
2, 6705, Note_on_c, 0, 71, 0
2, 6720, Note_on_c, 0, 71, 95
2, 6825, Note_on_c, 0, 71, 0
2, 6960, Note_on_c, 0, 71, 95
2, 7074, Note_on_c, 0, 71, 0
2, 7080, Note_on_c, 0, 72, 95
2, 7196, Note_on_c, 0, 72, 0
2, 7200, Note_on_c, 0, 74, 95
2, 7305, Note_on_c, 0, 74, 0
2, 7320, Note_on_c, 0, 74, 95
2, 7425, Note_on_c, 0, 74, 0
2, 7440, Note_on_c, 0, 74, 95
2, 7545, Note_on_c, 0, 74, 0
2, 7680, Note_on_c, 0, 71, 90
2, 7796, Note_on_c, 0, 71, 0
2, 7800, Note_on_c, 0, 76, 90
2, 7914, Note_on_c, 0, 76, 0
2, 7920, Note_on_c, 0, 72, 90
2, 8034, Note_on_c, 0, 72, 0
2, 8040, Note_on_c, 0, 71, 90
2, 8158, Note_on_c, 0, 71, 0
2, 8160, Note_on_c, 0, 72, 90
2, 8274, Note_on_c, 0, 72, 0
2, 8280, Note_on_c, 0, 69, 90
2, 8396, Note_on_c, 0, 69, 0
2, 8400, Note_on_c, 0, 68, 90
2, 8514, Note_on_c, 0, 68, 0
2, 8520, Note_on_c, 0, 69, 90
2, 8745, Note_on_c, 0, 69, 0
2, 9000, Note_on_c, 0, 76, 90
2, 9225, Note_on_c, 0, 76, 0
2, 9240, Note_on_c, 0, 74, 90
2, 9345, Note_on_c, 0, 74, 0
2, 9360, Note_on_c, 0, 74, 90
2, 9460, Note_on_c, 0, 74, 0
2, 9480, Note_on_c, 0, 74, 90
2, 9594, Note_on_c, 0, 74, 0
2, 9600, Note_on_c, 0, 72, 90
2, 9714, Note_on_c, 0, 72, 0
2, 9720, Note_on_c, 0, 71, 90
2, 9945, Note_on_c, 0, 71, 0
2, 9960, Note_on_c, 0, 72, 90
2, 10076, Note_on_c, 0, 72, 0
2, 10080, Note_on_c, 0, 74, 90
2, 10140, Note_on_c, 0, 74, 0
2, 10140, Note_on_c, 0, 76, 90
2, 10196, Note_on_c, 0, 76, 0
2, 10200, Note_on_c, 0, 77, 90
2, 10316, Note_on_c, 0, 77, 0
2, 10320, Note_on_c, 0, 76, 90
2, 10425, Note_on_c, 0, 76, 0
2, 10440, Note_on_c, 0, 76, 90
2, 10545, Note_on_c, 0, 76, 0
2, 10560, Note_on_c, 0, 76, 90
2, 10665, Note_on_c, 0, 76, 0
2, 10680, Note_on_c, 0, 76, 90
2, 10686, Note_on_c, 0, 76, 0
2, 10687, Note_on_c, 0, 75, 90
2, 10693, Note_on_c, 0, 75, 0
2, 10695, Note_on_c, 0, 76, 90
2, 10701, Note_on_c, 0, 76, 0
2, 10702, Note_on_c, 0, 75, 90
2, 10708, Note_on_c, 0, 75, 0
2, 10710, Note_on_c, 0, 76, 90
2, 10716, Note_on_c, 0, 76, 0
2, 10717, Note_on_c, 0, 75, 90
2, 10723, Note_on_c, 0, 75, 0
2, 10725, Note_on_c, 0, 76, 90
2, 10731, Note_on_c, 0, 76, 0
2, 10732, Note_on_c, 0, 75, 90
2, 10738, Note_on_c, 0, 75, 0
2, 10740, Note_on_c, 0, 76, 90
2, 10746, Note_on_c, 0, 76, 0
2, 10747, Note_on_c, 0, 75, 90
2, 10753, Note_on_c, 0, 75, 0
2, 10755, Note_on_c, 0, 76, 90
2, 10761, Note_on_c, 0, 76, 0
2, 10762, Note_on_c, 0, 75, 90
2, 10768, Note_on_c, 0, 75, 0
2, 10770, Note_on_c, 0, 76, 90
2, 10776, Note_on_c, 0, 76, 0
2, 10777, Note_on_c, 0, 75, 90
2, 10783, Note_on_c, 0, 75, 0
2, 10785, Note_on_c, 0, 76, 90
2, 10791, Note_on_c, 0, 76, 0
2, 10792, Note_on_c, 0, 75, 90
2, 10912, Note_on_c, 0, 75, 0
2, 10920, Note_on_c, 0, 76, 90
2, 11340, Note_on_c, 0, 76, 0
2, 11340, Note_on_c, 0, 75, 90
2, 11392, Note_on_c, 0, 75, 0
2, 11400, Note_on_c, 0, 76, 90
2, 11940, Note_on_c, 0, 76, 0
2, 11940, End_track
3, 0, Start_track
3, 0, MIDI_port, 0
3, 0, Title_t, "String Ensemble 1/2/1"
3, 0, Control_c, 1, 7, 95
3, 0, Control_c, 1, 10, 64
3, 120, Program_c, 1, 48
3, 360, Note_on_c, 1, 64, 90
3, 585, Note_on_c, 1, 64, 0
3, 600, Note_on_c, 1, 64, 90
3, 705, Note_on_c, 1, 64, 0
3, 720, Note_on_c, 1, 64, 90
3, 840, Note_on_c, 1, 64, 0
3, 840, Note_on_c, 1, 67, 90
3, 945, Note_on_c, 1, 67, 0
3, 960, Note_on_c, 1, 67, 90
3, 1080, Note_on_c, 1, 67, 0
3, 1080, Note_on_c, 1, 69, 90
3, 1200, Note_on_c, 1, 69, 0
3, 1200, Note_on_c, 1, 71, 90
3, 1320, Note_on_c, 1, 71, 0
3, 1320, Note_on_c, 1, 72, 90
3, 1545, Note_on_c, 1, 72, 0
3, 1680, Note_on_c, 1, 64, 90
3, 1785, Note_on_c, 1, 64, 0
3, 1800, Note_on_c, 1, 64, 90
3, 1905, Note_on_c, 1, 64, 0
3, 1920, Note_on_c, 1, 64, 90
3, 2025, Note_on_c, 1, 64, 0
3, 2160, Note_on_c, 1, 67, 90
3, 2280, Note_on_c, 1, 67, 0
3, 2280, Note_on_c, 1, 66, 90
3, 2520, Note_on_c, 1, 66, 0
3, 2520, Note_on_c, 1, 64, 90
3, 2760, Note_on_c, 1, 64, 0
3, 3000, Program_c, 1, 49
3, 3240, Note_on_c, 1, 64, 90
3, 3465, Note_on_c, 1, 64, 0
3, 3480, Note_on_c, 1, 64, 90
3, 3585, Note_on_c, 1, 64, 0
3, 3600, Note_on_c, 1, 64, 90
3, 3720, Note_on_c, 1, 64, 0
3, 3720, Note_on_c, 1, 67, 90
3, 3825, Note_on_c, 1, 67, 0
3, 3840, Note_on_c, 1, 67, 90
3, 3960, Note_on_c, 1, 67, 0
3, 3960, Note_on_c, 1, 69, 90
3, 4080, Note_on_c, 1, 69, 0
3, 4080, Note_on_c, 1, 71, 90
3, 4200, Note_on_c, 1, 71, 0
3, 4200, Note_on_c, 1, 72, 90
3, 4425, Note_on_c, 1, 72, 0
3, 4560, Note_on_c, 1, 64, 90
3, 4665, Note_on_c, 1, 64, 0
3, 4680, Note_on_c, 1, 64, 90
3, 4785, Note_on_c, 1, 64, 0
3, 4800, Note_on_c, 1, 64, 90
3, 4905, Note_on_c, 1, 64, 0
3, 5040, Note_on_c, 1, 67, 90
3, 5160, Note_on_c, 1, 67, 0
3, 5160, Note_on_c, 1, 66, 90
3, 5400, Note_on_c, 1, 66, 0
3, 5400, Note_on_c, 1, 64, 90
3, 5865, Note_on_c, 1, 64, 0
3, 5880, Program_c, 1, 48
3, 6120, Note_on_c, 1, 64, 90
3, 6360, Note_on_c, 1, 64, 0
3, 6360, Note_on_c, 1, 66, 90
3, 6480, Note_on_c, 1, 66, 0
3, 6480, Note_on_c, 1, 69, 90
3, 6600, Note_on_c, 1, 69, 0
3, 6600, Note_on_c, 1, 67, 90
3, 6705, Note_on_c, 1, 67, 0
3, 6720, Note_on_c, 1, 67, 90
3, 6840, Note_on_c, 1, 67, 0
3, 6960, Note_on_c, 1, 67, 90
3, 7065, Note_on_c, 1, 67, 0
3, 7080, Note_on_c, 1, 67, 90
3, 7200, Note_on_c, 1, 67, 0
3, 7200, Note_on_c, 1, 66, 90
3, 7320, Note_on_c, 1, 66, 0
3, 7320, Note_on_c, 1, 67, 90
3, 7440, Note_on_c, 1, 67, 0
3, 7440, Note_on_c, 1, 71, 90
3, 7560, Note_on_c, 1, 71, 0
3, 7680, Note_on_c, 1, 62, 90
3, 7800, Note_on_c, 1, 62, 0
3, 7800, Note_on_c, 1, 64, 90
3, 7905, Note_on_c, 1, 64, 0
3, 7920, Note_on_c, 1, 64, 90
3, 8025, Note_on_c, 1, 64, 0
3, 8040, Note_on_c, 1, 64, 90
3, 8145, Note_on_c, 1, 64, 0
3, 8160, Note_on_c, 1, 64, 90
3, 8280, Note_on_c, 1, 64, 0
3, 8280, Note_on_c, 1, 66, 90
3, 8400, Note_on_c, 1, 66, 0
3, 8400, Note_on_c, 1, 64, 90
3, 8505, Note_on_c, 1, 64, 0
3, 8520, Note_on_c, 1, 64, 90
3, 8625, Note_on_c, 1, 64, 0
3, 9000, Note_on_c, 1, 71, 90
3, 9052, Note_on_c, 1, 71, 0
3, 9060, Note_on_c, 1, 70, 90
3, 9112, Note_on_c, 1, 70, 0
3, 9120, Note_on_c, 1, 69, 90
3, 9172, Note_on_c, 1, 69, 0
3, 9180, Note_on_c, 1, 67, 90
3, 9232, Note_on_c, 1, 67, 0
3, 9240, Note_on_c, 1, 65, 90
3, 9345, Note_on_c, 1, 65, 0
3, 9360, Note_on_c, 1, 65, 90
3, 9480, Note_on_c, 1, 65, 0
3, 9480, Note_on_c, 1, 64, 90
3, 9585, Note_on_c, 1, 64, 0
3, 9600, Note_on_c, 1, 64, 90
3, 9720, Note_on_c, 1, 64, 0
3, 9720, Note_on_c, 1, 66, 90
3, 9840, Note_on_c, 1, 66, 0
3, 9840, Note_on_c, 1, 64, 90
3, 9945, Note_on_c, 1, 64, 0
3, 9960, Note_on_c, 1, 64, 90
3, 10065, Note_on_c, 1, 64, 0
3, 10320, Note_on_c, 1, 64, 90
3, 10380, Note_on_c, 1, 64, 0
3, 10380, Note_on_c, 1, 66, 90
3, 10440, Note_on_c, 1, 66, 0
3, 10440, Note_on_c, 1, 67, 90
3, 10560, Note_on_c, 1, 67, 0
3, 10560, Note_on_c, 1, 66, 90
3, 10665, Note_on_c, 1, 66, 0
3, 10680, Note_on_c, 1, 66, 90
3, 10920, Note_on_c, 1, 66, 0
3, 10920, Note_on_c, 1, 64, 90
3, 10980, Note_on_c, 1, 71, 90
3, 11100, Note_on_c, 1, 71, 0
3, 11100, Note_on_c, 1, 69, 90
3, 11160, Note_on_c, 1, 69, 0
3, 11160, Note_on_c, 1, 68, 90
3, 11325, Note_on_c, 1, 68, 0
3, 11325, Note_on_c, 1, 64, 0
3, 11340, Note_on_c, 1, 66, 90
3, 11340, Note_on_c, 1, 69, 90
3, 11400, Note_on_c, 1, 69, 0
3, 11400, Note_on_c, 1, 66, 0
3, 11400, Note_on_c, 1, 64, 90
3, 11400, Note_on_c, 1, 68, 90
3, 11940, Note_on_c, 1, 68, 0
3, 11940, Note_on_c, 1, 64, 0
3, 11940, End_track
4, 0, Start_track
4, 0, MIDI_port, 0
4, 0, Title_t, "Clarinet"
4, 0, Program_c, 2, 71
4, 0, Control_c, 2, 7, 85
4, 0, Control_c, 2, 10, 126
4, 139, Note_on_c, 2, 71, 70
4, 156, Note_on_c, 2, 71, 0
4, 159, Note_on_c, 2, 69, 70
4, 176, Note_on_c, 2, 69, 0
4, 179, Note_on_c, 2, 68, 70
4, 196, Note_on_c, 2, 68, 0
4, 199, Note_on_c, 2, 69, 70
4, 216, Note_on_c, 2, 69, 0
4, 219, Note_on_c, 2, 64, 70
4, 236, Note_on_c, 2, 64, 0
4, 240, Note_on_c, 2, 60, 70
4, 257, Note_on_c, 2, 60, 0
4, 259, Note_on_c, 2, 65, 70
4, 276, Note_on_c, 2, 65, 0
4, 279, Note_on_c, 2, 64, 70
4, 296, Note_on_c, 2, 64, 0
4, 299, Note_on_c, 2, 62, 70
4, 316, Note_on_c, 2, 62, 0
4, 319, Note_on_c, 2, 64, 70
4, 336, Note_on_c, 2, 64, 0
4, 339, Note_on_c, 2, 60, 70
4, 356, Note_on_c, 2, 60, 0
4, 360, Note_on_c, 2, 57, 70
4, 377, Note_on_c, 2, 57, 0
4, 379, Note_on_c, 2, 62, 70
4, 396, Note_on_c, 2, 62, 0
4, 399, Note_on_c, 2, 60, 70
4, 416, Note_on_c, 2, 60, 0
4, 419, Note_on_c, 2, 59, 70
4, 436, Note_on_c, 2, 59, 0
4, 439, Note_on_c, 2, 60, 70
4, 456, Note_on_c, 2, 60, 0
4, 459, Note_on_c, 2, 57, 70
4, 476, Note_on_c, 2, 57, 0
4, 480, Note_on_c, 2, 52, 70
4, 497, Note_on_c, 2, 52, 0
4, 499, Note_on_c, 2, 59, 70
4, 516, Note_on_c, 2, 59, 0
4, 519, Note_on_c, 2, 57, 70
4, 536, Note_on_c, 2, 57, 0
4, 539, Note_on_c, 2, 56, 70
4, 556, Note_on_c, 2, 56, 0
4, 559, Note_on_c, 2, 57, 70
4, 576, Note_on_c, 2, 57, 0
4, 579, Note_on_c, 2, 51, 70
4, 596, Note_on_c, 2, 51, 0
4, 600, Note_on_c, 2, 56, 70
4, 617, Note_on_c, 2, 56, 0
4, 619, Note_on_c, 2, 57, 70
4, 636, Note_on_c, 2, 57, 0
4, 639, Note_on_c, 2, 59, 70
4, 656, Note_on_c, 2, 59, 0
4, 659, Note_on_c, 2, 60, 70
4, 676, Note_on_c, 2, 60, 0
4, 679, Note_on_c, 2, 62, 70
4, 696, Note_on_c, 2, 62, 0
4, 699, Note_on_c, 2, 64, 70
4, 716, Note_on_c, 2, 64, 0
4, 720, Note_on_c, 2, 57, 70
4, 737, Note_on_c, 2, 57, 0
4, 739, Note_on_c, 2, 59, 70
4, 756, Note_on_c, 2, 59, 0
4, 759, Note_on_c, 2, 60, 70
4, 776, Note_on_c, 2, 60, 0
4, 779, Note_on_c, 2, 62, 70
4, 796, Note_on_c, 2, 62, 0
4, 799, Note_on_c, 2, 64, 70
4, 816, Note_on_c, 2, 64, 0
4, 819, Note_on_c, 2, 65, 70
4, 836, Note_on_c, 2, 65, 0
4, 840, Note_on_c, 2, 59, 70
4, 857, Note_on_c, 2, 59, 0
4, 859, Note_on_c, 2, 60, 70
4, 876, Note_on_c, 2, 60, 0
4, 879, Note_on_c, 2, 62, 70
4, 896, Note_on_c, 2, 62, 0
4, 899, Note_on_c, 2, 64, 70
4, 916, Note_on_c, 2, 64, 0
4, 919, Note_on_c, 2, 65, 70
4, 936, Note_on_c, 2, 65, 0
4, 939, Note_on_c, 2, 67, 70
4, 956, Note_on_c, 2, 67, 0
4, 960, Note_on_c, 2, 60, 70
4, 977, Note_on_c, 2, 60, 0
4, 979, Note_on_c, 2, 62, 70
4, 996, Note_on_c, 2, 62, 0
4, 999, Note_on_c, 2, 64, 70
4, 1016, Note_on_c, 2, 64, 0
4, 1019, Note_on_c, 2, 65, 70
4, 1036, Note_on_c, 2, 65, 0
4, 1039, Note_on_c, 2, 67, 70
4, 1056, Note_on_c, 2, 67, 0
4, 1059, Note_on_c, 2, 69, 70
4, 1076, Note_on_c, 2, 69, 0
4, 1080, Note_on_c, 2, 62, 70
4, 1097, Note_on_c, 2, 62, 0
4, 1099, Note_on_c, 2, 67, 70
4, 1116, Note_on_c, 2, 67, 0
4, 1119, Note_on_c, 2, 65, 70
4, 1136, Note_on_c, 2, 65, 0
4, 1139, Note_on_c, 2, 64, 70
4, 1156, Note_on_c, 2, 64, 0
4, 1159, Note_on_c, 2, 65, 70
4, 1176, Note_on_c, 2, 65, 0
4, 1179, Note_on_c, 2, 62, 70
4, 1196, Note_on_c, 2, 62, 0
4, 1200, Note_on_c, 2, 59, 70
4, 1217, Note_on_c, 2, 59, 0
4, 1219, Note_on_c, 2, 64, 70
4, 1236, Note_on_c, 2, 64, 0
4, 1239, Note_on_c, 2, 62, 70
4, 1256, Note_on_c, 2, 62, 0
4, 1259, Note_on_c, 2, 60, 70
4, 1276, Note_on_c, 2, 60, 0
4, 1279, Note_on_c, 2, 62, 70
4, 1296, Note_on_c, 2, 62, 0
4, 1299, Note_on_c, 2, 59, 70
4, 1316, Note_on_c, 2, 59, 0
4, 1320, Note_on_c, 2, 55, 70
4, 1337, Note_on_c, 2, 55, 0
4, 1339, Note_on_c, 2, 62, 70
4, 1356, Note_on_c, 2, 62, 0
4, 1359, Note_on_c, 2, 60, 70
4, 1376, Note_on_c, 2, 60, 0
4, 1379, Note_on_c, 2, 59, 70
4, 1396, Note_on_c, 2, 59, 0
4, 1399, Note_on_c, 2, 60, 70
4, 1416, Note_on_c, 2, 60, 0
4, 1419, Note_on_c, 2, 55, 70
4, 1436, Note_on_c, 2, 55, 0
4, 1440, Note_on_c, 2, 52, 70
4, 1457, Note_on_c, 2, 52, 0
4, 1459, Note_on_c, 2, 57, 70
4, 1476, Note_on_c, 2, 57, 0
4, 1479, Note_on_c, 2, 55, 70
4, 1496, Note_on_c, 2, 55, 0
4, 1499, Note_on_c, 2, 53, 70
4, 1516, Note_on_c, 2, 53, 0
4, 1519, Note_on_c, 2, 55, 70
4, 1536, Note_on_c, 2, 55, 0
4, 1539, Note_on_c, 2, 52, 70
4, 1556, Note_on_c, 2, 52, 0
4, 1560, Note_on_c, 2, 48, 70
4, 1577, Note_on_c, 2, 48, 0
4, 1579, Note_on_c, 2, 50, 70
4, 1596, Note_on_c, 2, 50, 0
4, 1599, Note_on_c, 2, 52, 70
4, 1616, Note_on_c, 2, 52, 0
4, 1619, Note_on_c, 2, 53, 70
4, 1636, Note_on_c, 2, 53, 0
4, 1639, Note_on_c, 2, 55, 70
4, 1656, Note_on_c, 2, 55, 0
4, 1659, Note_on_c, 2, 57, 70
4, 1676, Note_on_c, 2, 57, 0
4, 1680, Note_on_c, 2, 59, 70
4, 1697, Note_on_c, 2, 59, 0
4, 1699, Note_on_c, 2, 60, 70
4, 1716, Note_on_c, 2, 60, 0
4, 1719, Note_on_c, 2, 62, 70
4, 1736, Note_on_c, 2, 62, 0
4, 1739, Note_on_c, 2, 64, 70
4, 1756, Note_on_c, 2, 64, 0
4, 1759, Note_on_c, 2, 66, 70
4, 1776, Note_on_c, 2, 66, 0
4, 1779, Note_on_c, 2, 68, 70
4, 1796, Note_on_c, 2, 68, 0
4, 1800, Note_on_c, 2, 57, 70
4, 1817, Note_on_c, 2, 57, 0
4, 1819, Note_on_c, 2, 59, 70
4, 1836, Note_on_c, 2, 59, 0
4, 1839, Note_on_c, 2, 60, 70
4, 1856, Note_on_c, 2, 60, 0
4, 1859, Note_on_c, 2, 62, 70
4, 1876, Note_on_c, 2, 62, 0
4, 1879, Note_on_c, 2, 64, 70
4, 1896, Note_on_c, 2, 64, 0
4, 1899, Note_on_c, 2, 65, 70
4, 1916, Note_on_c, 2, 65, 0
4, 1920, Note_on_c, 2, 55, 70
4, 1937, Note_on_c, 2, 55, 0
4, 1939, Note_on_c, 2, 57, 70
4, 1956, Note_on_c, 2, 57, 0
4, 1959, Note_on_c, 2, 59, 70
4, 1976, Note_on_c, 2, 59, 0
4, 1979, Note_on_c, 2, 60, 70
4, 1996, Note_on_c, 2, 60, 0
4, 1999, Note_on_c, 2, 62, 70
4, 2016, Note_on_c, 2, 62, 0
4, 2019, Note_on_c, 2, 64, 70
4, 2036, Note_on_c, 2, 64, 0
4, 2040, Note_on_c, 2, 53, 70
4, 2057, Note_on_c, 2, 53, 0
4, 2059, Note_on_c, 2, 55, 70
4, 2076, Note_on_c, 2, 55, 0
4, 2079, Note_on_c, 2, 57, 70
4, 2096, Note_on_c, 2, 57, 0
4, 2099, Note_on_c, 2, 59, 70
4, 2116, Note_on_c, 2, 59, 0
4, 2119, Note_on_c, 2, 60, 70
4, 2136, Note_on_c, 2, 60, 0
4, 2139, Note_on_c, 2, 62, 70
4, 2156, Note_on_c, 2, 62, 0
4, 2160, Note_on_c, 2, 64, 70
4, 2177, Note_on_c, 2, 64, 0
4, 2179, Note_on_c, 2, 65, 70
4, 2196, Note_on_c, 2, 65, 0
4, 2199, Note_on_c, 2, 64, 70
4, 2216, Note_on_c, 2, 64, 0
4, 2219, Note_on_c, 2, 62, 70
4, 2236, Note_on_c, 2, 62, 0
4, 2239, Note_on_c, 2, 64, 70
4, 2256, Note_on_c, 2, 64, 0
4, 2259, Note_on_c, 2, 60, 70
4, 2276, Note_on_c, 2, 60, 0
4, 2280, Note_on_c, 2, 57, 70
4, 2297, Note_on_c, 2, 57, 0
4, 2299, Note_on_c, 2, 62, 70
4, 2316, Note_on_c, 2, 62, 0
4, 2319, Note_on_c, 2, 60, 70
4, 2336, Note_on_c, 2, 60, 0
4, 2339, Note_on_c, 2, 59, 70
4, 2356, Note_on_c, 2, 59, 0
4, 2359, Note_on_c, 2, 60, 70
4, 2376, Note_on_c, 2, 60, 0
4, 2379, Note_on_c, 2, 57, 70
4, 2396, Note_on_c, 2, 57, 0
4, 2400, Note_on_c, 2, 54, 70
4, 2417, Note_on_c, 2, 54, 0
4, 2419, Note_on_c, 2, 60, 70
4, 2436, Note_on_c, 2, 60, 0
4, 2439, Note_on_c, 2, 59, 70
4, 2456, Note_on_c, 2, 59, 0
4, 2459, Note_on_c, 2, 57, 70
4, 2476, Note_on_c, 2, 57, 0
4, 2479, Note_on_c, 2, 59, 70
4, 2496, Note_on_c, 2, 59, 0
4, 2499, Note_on_c, 2, 54, 70
4, 2516, Note_on_c, 2, 54, 0
4, 2520, Note_on_c, 2, 56, 70
4, 2537, Note_on_c, 2, 56, 0
4, 2539, Note_on_c, 2, 57, 70
4, 2556, Note_on_c, 2, 57, 0
4, 2559, Note_on_c, 2, 59, 70
4, 2576, Note_on_c, 2, 59, 0
4, 2579, Note_on_c, 2, 60, 70
4, 2596, Note_on_c, 2, 60, 0
4, 2599, Note_on_c, 2, 62, 70
4, 2616, Note_on_c, 2, 62, 0
4, 2619, Note_on_c, 2, 64, 70
4, 2636, Note_on_c, 2, 64, 0
4, 2640, Note_on_c, 2, 60, 70
4, 2657, Note_on_c, 2, 60, 0
4, 2659, Note_on_c, 2, 62, 70
4, 2676, Note_on_c, 2, 62, 0
4, 2679, Note_on_c, 2, 64, 70
4, 2696, Note_on_c, 2, 64, 0
4, 2699, Note_on_c, 2, 66, 70
4, 2716, Note_on_c, 2, 66, 0
4, 2719, Note_on_c, 2, 68, 70
4, 2736, Note_on_c, 2, 68, 0
4, 2739, Note_on_c, 2, 69, 70
4, 2756, Note_on_c, 2, 69, 0
4, 2760, Note_on_c, 2, 68, 70
4, 2777, Note_on_c, 2, 68, 0
4, 2779, Note_on_c, 2, 69, 70
4, 2796, Note_on_c, 2, 69, 0
4, 2799, Note_on_c, 2, 71, 70
4, 2816, Note_on_c, 2, 71, 0
4, 2819, Note_on_c, 2, 72, 70
4, 2836, Note_on_c, 2, 72, 0
4, 2839, Note_on_c, 2, 74, 70
4, 2856, Note_on_c, 2, 74, 0
4, 2859, Note_on_c, 2, 76, 70
4, 2876, Note_on_c, 2, 76, 0
4, 2880, Note_on_c, 2, 77, 70
4, 2897, Note_on_c, 2, 77, 0
4, 2899, Note_on_c, 2, 74, 70
4, 2916, Note_on_c, 2, 74, 0
4, 2919, Note_on_c, 2, 71, 70
4, 2936, Note_on_c, 2, 71, 0
4, 2939, Note_on_c, 2, 74, 70
4, 2956, Note_on_c, 2, 74, 0
4, 2959, Note_on_c, 2, 68, 70
4, 2976, Note_on_c, 2, 68, 0
4, 2979, Note_on_c, 2, 71, 70
4, 2996, Note_on_c, 2, 71, 0
4, 3000, Note_on_c, 2, 64, 70
4, 3017, Note_on_c, 2, 64, 0
4, 3019, Note_on_c, 2, 71, 70
4, 3036, Note_on_c, 2, 71, 0
4, 3039, Note_on_c, 2, 69, 70
4, 3056, Note_on_c, 2, 69, 0
4, 3059, Note_on_c, 2, 68, 70
4, 3076, Note_on_c, 2, 68, 0
4, 3079, Note_on_c, 2, 69, 70
4, 3096, Note_on_c, 2, 69, 0
4, 3099, Note_on_c, 2, 64, 70
4, 3116, Note_on_c, 2, 64, 0
4, 3120, Note_on_c, 2, 60, 70
4, 3137, Note_on_c, 2, 60, 0
4, 3139, Note_on_c, 2, 65, 70
4, 3156, Note_on_c, 2, 65, 0
4, 3159, Note_on_c, 2, 64, 70
4, 3176, Note_on_c, 2, 64, 0
4, 3179, Note_on_c, 2, 62, 70
4, 3196, Note_on_c, 2, 62, 0
4, 3199, Note_on_c, 2, 64, 70
4, 3216, Note_on_c, 2, 64, 0
4, 3219, Note_on_c, 2, 60, 70
4, 3236, Note_on_c, 2, 60, 0
4, 3240, Note_on_c, 2, 57, 70
4, 3257, Note_on_c, 2, 57, 0
4, 3259, Note_on_c, 2, 62, 70
4, 3276, Note_on_c, 2, 62, 0
4, 3279, Note_on_c, 2, 60, 70
4, 3296, Note_on_c, 2, 60, 0
4, 3299, Note_on_c, 2, 59, 70
4, 3316, Note_on_c, 2, 59, 0
4, 3319, Note_on_c, 2, 60, 70
4, 3336, Note_on_c, 2, 60, 0
4, 3339, Note_on_c, 2, 57, 70
4, 3356, Note_on_c, 2, 57, 0
4, 3360, Note_on_c, 2, 52, 70
4, 3377, Note_on_c, 2, 52, 0
4, 3379, Note_on_c, 2, 59, 70
4, 3396, Note_on_c, 2, 59, 0
4, 3399, Note_on_c, 2, 57, 70
4, 3416, Note_on_c, 2, 57, 0
4, 3419, Note_on_c, 2, 56, 70
4, 3436, Note_on_c, 2, 56, 0
4, 3439, Note_on_c, 2, 57, 70
4, 3456, Note_on_c, 2, 57, 0
4, 3459, Note_on_c, 2, 51, 70
4, 3476, Note_on_c, 2, 51, 0
4, 3480, Note_on_c, 2, 56, 70
4, 3497, Note_on_c, 2, 56, 0
4, 3499, Note_on_c, 2, 57, 70
4, 3516, Note_on_c, 2, 57, 0
4, 3519, Note_on_c, 2, 59, 70
4, 3536, Note_on_c, 2, 59, 0
4, 3539, Note_on_c, 2, 60, 70
4, 3556, Note_on_c, 2, 60, 0
4, 3559, Note_on_c, 2, 62, 70
4, 3576, Note_on_c, 2, 62, 0
4, 3579, Note_on_c, 2, 64, 70
4, 3596, Note_on_c, 2, 64, 0
4, 3600, Note_on_c, 2, 57, 70
4, 3617, Note_on_c, 2, 57, 0
4, 3619, Note_on_c, 2, 59, 70
4, 3636, Note_on_c, 2, 59, 0
4, 3639, Note_on_c, 2, 60, 70
4, 3656, Note_on_c, 2, 60, 0
4, 3659, Note_on_c, 2, 62, 70
4, 3676, Note_on_c, 2, 62, 0
4, 3679, Note_on_c, 2, 64, 70
4, 3696, Note_on_c, 2, 64, 0
4, 3699, Note_on_c, 2, 65, 70
4, 3716, Note_on_c, 2, 65, 0
4, 3720, Note_on_c, 2, 59, 70
4, 3737, Note_on_c, 2, 59, 0
4, 3739, Note_on_c, 2, 60, 70
4, 3756, Note_on_c, 2, 60, 0
4, 3759, Note_on_c, 2, 62, 70
4, 3776, Note_on_c, 2, 62, 0
4, 3779, Note_on_c, 2, 64, 70
4, 3796, Note_on_c, 2, 64, 0
4, 3799, Note_on_c, 2, 65, 70
4, 3816, Note_on_c, 2, 65, 0
4, 3819, Note_on_c, 2, 67, 70
4, 3836, Note_on_c, 2, 67, 0
4, 3840, Note_on_c, 2, 60, 70
4, 3857, Note_on_c, 2, 60, 0
4, 3859, Note_on_c, 2, 62, 70
4, 3876, Note_on_c, 2, 62, 0
4, 3879, Note_on_c, 2, 64, 70
4, 3896, Note_on_c, 2, 64, 0
4, 3899, Note_on_c, 2, 65, 70
4, 3916, Note_on_c, 2, 65, 0
4, 3919, Note_on_c, 2, 67, 70
4, 3936, Note_on_c, 2, 67, 0
4, 3939, Note_on_c, 2, 69, 70
4, 3956, Note_on_c, 2, 69, 0
4, 3960, Note_on_c, 2, 62, 70
4, 3977, Note_on_c, 2, 62, 0
4, 3979, Note_on_c, 2, 67, 70
4, 3996, Note_on_c, 2, 67, 0
4, 3999, Note_on_c, 2, 65, 70
4, 4016, Note_on_c, 2, 65, 0
4, 4019, Note_on_c, 2, 64, 70
4, 4036, Note_on_c, 2, 64, 0
4, 4039, Note_on_c, 2, 65, 70
4, 4056, Note_on_c, 2, 65, 0
4, 4059, Note_on_c, 2, 62, 70
4, 4076, Note_on_c, 2, 62, 0
4, 4080, Note_on_c, 2, 59, 70
4, 4097, Note_on_c, 2, 59, 0
4, 4099, Note_on_c, 2, 64, 70
4, 4116, Note_on_c, 2, 64, 0
4, 4119, Note_on_c, 2, 62, 70
4, 4136, Note_on_c, 2, 62, 0
4, 4139, Note_on_c, 2, 60, 70
4, 4156, Note_on_c, 2, 60, 0
4, 4159, Note_on_c, 2, 62, 70
4, 4176, Note_on_c, 2, 62, 0
4, 4179, Note_on_c, 2, 59, 70
4, 4196, Note_on_c, 2, 59, 0
4, 4200, Note_on_c, 2, 55, 70
4, 4217, Note_on_c, 2, 55, 0
4, 4219, Note_on_c, 2, 62, 70
4, 4236, Note_on_c, 2, 62, 0
4, 4239, Note_on_c, 2, 60, 70
4, 4256, Note_on_c, 2, 60, 0
4, 4259, Note_on_c, 2, 59, 70
4, 4276, Note_on_c, 2, 59, 0
4, 4279, Note_on_c, 2, 60, 70
4, 4296, Note_on_c, 2, 60, 0
4, 4299, Note_on_c, 2, 55, 70
4, 4316, Note_on_c, 2, 55, 0
4, 4320, Note_on_c, 2, 52, 70
4, 4337, Note_on_c, 2, 52, 0
4, 4339, Note_on_c, 2, 57, 70
4, 4356, Note_on_c, 2, 57, 0
4, 4359, Note_on_c, 2, 55, 70
4, 4376, Note_on_c, 2, 55, 0
4, 4379, Note_on_c, 2, 53, 70
4, 4396, Note_on_c, 2, 53, 0
4, 4399, Note_on_c, 2, 55, 70
4, 4416, Note_on_c, 2, 55, 0
4, 4419, Note_on_c, 2, 52, 70
4, 4436, Note_on_c, 2, 52, 0
4, 4440, Note_on_c, 2, 48, 70
4, 4457, Note_on_c, 2, 48, 0
4, 4459, Note_on_c, 2, 50, 70
4, 4476, Note_on_c, 2, 50, 0
4, 4479, Note_on_c, 2, 52, 70
4, 4496, Note_on_c, 2, 52, 0
4, 4499, Note_on_c, 2, 53, 70
4, 4516, Note_on_c, 2, 53, 0
4, 4519, Note_on_c, 2, 55, 70
4, 4536, Note_on_c, 2, 55, 0
4, 4539, Note_on_c, 2, 57, 70
4, 4556, Note_on_c, 2, 57, 0
4, 4560, Note_on_c, 2, 59, 70
4, 4577, Note_on_c, 2, 59, 0
4, 4579, Note_on_c, 2, 60, 70
4, 4596, Note_on_c, 2, 60, 0
4, 4599, Note_on_c, 2, 62, 70
4, 4616, Note_on_c, 2, 62, 0
4, 4619, Note_on_c, 2, 64, 70
4, 4636, Note_on_c, 2, 64, 0
4, 4639, Note_on_c, 2, 66, 70
4, 4656, Note_on_c, 2, 66, 0
4, 4659, Note_on_c, 2, 68, 70
4, 4676, Note_on_c, 2, 68, 0
4, 4680, Note_on_c, 2, 57, 70
4, 4697, Note_on_c, 2, 57, 0
4, 4699, Note_on_c, 2, 59, 70
4, 4716, Note_on_c, 2, 59, 0
4, 4719, Note_on_c, 2, 60, 70
4, 4736, Note_on_c, 2, 60, 0
4, 4739, Note_on_c, 2, 62, 70
4, 4756, Note_on_c, 2, 62, 0
4, 4759, Note_on_c, 2, 64, 70
4, 4776, Note_on_c, 2, 64, 0
4, 4779, Note_on_c, 2, 65, 70
4, 4796, Note_on_c, 2, 65, 0
4, 4800, Note_on_c, 2, 55, 70
4, 4817, Note_on_c, 2, 55, 0
4, 4819, Note_on_c, 2, 57, 70
4, 4836, Note_on_c, 2, 57, 0
4, 4839, Note_on_c, 2, 59, 70
4, 4856, Note_on_c, 2, 59, 0
4, 4859, Note_on_c, 2, 60, 70
4, 4876, Note_on_c, 2, 60, 0
4, 4879, Note_on_c, 2, 62, 70
4, 4896, Note_on_c, 2, 62, 0
4, 4899, Note_on_c, 2, 64, 70
4, 4916, Note_on_c, 2, 64, 0
4, 4920, Note_on_c, 2, 53, 70
4, 4937, Note_on_c, 2, 53, 0
4, 4939, Note_on_c, 2, 55, 70
4, 4956, Note_on_c, 2, 55, 0
4, 4959, Note_on_c, 2, 57, 70
4, 4976, Note_on_c, 2, 57, 0
4, 4979, Note_on_c, 2, 59, 70
4, 4996, Note_on_c, 2, 59, 0
4, 4999, Note_on_c, 2, 60, 70
4, 5016, Note_on_c, 2, 60, 0
4, 5019, Note_on_c, 2, 62, 70
4, 5036, Note_on_c, 2, 62, 0
4, 5040, Note_on_c, 2, 64, 70
4, 5057, Note_on_c, 2, 64, 0
4, 5059, Note_on_c, 2, 65, 70
4, 5076, Note_on_c, 2, 65, 0
4, 5079, Note_on_c, 2, 64, 70
4, 5096, Note_on_c, 2, 64, 0
4, 5099, Note_on_c, 2, 62, 70
4, 5116, Note_on_c, 2, 62, 0
4, 5119, Note_on_c, 2, 64, 70
4, 5136, Note_on_c, 2, 64, 0
4, 5139, Note_on_c, 2, 60, 70
4, 5156, Note_on_c, 2, 60, 0
4, 5160, Note_on_c, 2, 57, 70
4, 5177, Note_on_c, 2, 57, 0
4, 5179, Note_on_c, 2, 62, 70
4, 5196, Note_on_c, 2, 62, 0
4, 5199, Note_on_c, 2, 60, 70
4, 5216, Note_on_c, 2, 60, 0
4, 5219, Note_on_c, 2, 59, 70
4, 5236, Note_on_c, 2, 59, 0
4, 5239, Note_on_c, 2, 60, 70
4, 5256, Note_on_c, 2, 60, 0
4, 5259, Note_on_c, 2, 57, 70
4, 5276, Note_on_c, 2, 57, 0
4, 5280, Note_on_c, 2, 54, 70
4, 5297, Note_on_c, 2, 54, 0
4, 5299, Note_on_c, 2, 60, 70
4, 5316, Note_on_c, 2, 60, 0
4, 5319, Note_on_c, 2, 59, 70
4, 5336, Note_on_c, 2, 59, 0
4, 5339, Note_on_c, 2, 57, 70
4, 5356, Note_on_c, 2, 57, 0
4, 5359, Note_on_c, 2, 59, 70
4, 5376, Note_on_c, 2, 59, 0
4, 5379, Note_on_c, 2, 54, 70
4, 5396, Note_on_c, 2, 54, 0
4, 5400, Note_on_c, 2, 56, 70
4, 5417, Note_on_c, 2, 56, 0
4, 5419, Note_on_c, 2, 64, 70
4, 5436, Note_on_c, 2, 64, 0
4, 5439, Note_on_c, 2, 62, 70
4, 5456, Note_on_c, 2, 62, 0
4, 5459, Note_on_c, 2, 60, 70
4, 5476, Note_on_c, 2, 60, 0
4, 5479, Note_on_c, 2, 62, 70
4, 5496, Note_on_c, 2, 62, 0
4, 5499, Note_on_c, 2, 59, 70
4, 5516, Note_on_c, 2, 59, 0
4, 5520, Note_on_c, 2, 52, 70
4, 5537, Note_on_c, 2, 52, 0
4, 5539, Note_on_c, 2, 62, 70
4, 5556, Note_on_c, 2, 62, 0
4, 5559, Note_on_c, 2, 60, 70
4, 5576, Note_on_c, 2, 60, 0
4, 5579, Note_on_c, 2, 59, 70
4, 5596, Note_on_c, 2, 59, 0
4, 5599, Note_on_c, 2, 60, 70
4, 5616, Note_on_c, 2, 60, 0
4, 5619, Note_on_c, 2, 57, 70
4, 5636, Note_on_c, 2, 57, 0
4, 5640, Note_on_c, 2, 52, 70
4, 5657, Note_on_c, 2, 52, 0
4, 5659, Note_on_c, 2, 60, 70
4, 5676, Note_on_c, 2, 60, 0
4, 5679, Note_on_c, 2, 59, 70
4, 5696, Note_on_c, 2, 59, 0
4, 5699, Note_on_c, 2, 57, 70
4, 5716, Note_on_c, 2, 57, 0
4, 5719, Note_on_c, 2, 59, 70
4, 5736, Note_on_c, 2, 59, 0
4, 5739, Note_on_c, 2, 56, 70
4, 5756, Note_on_c, 2, 56, 0
4, 5760, Note_on_c, 2, 52, 70
4, 5777, Note_on_c, 2, 52, 0
4, 5779, Note_on_c, 2, 59, 70
4, 5796, Note_on_c, 2, 59, 0
4, 5799, Note_on_c, 2, 57, 70
4, 5816, Note_on_c, 2, 57, 0
4, 5819, Note_on_c, 2, 56, 70
4, 5836, Note_on_c, 2, 56, 0
4, 5839, Note_on_c, 2, 57, 70
4, 5856, Note_on_c, 2, 57, 0
4, 5859, Note_on_c, 2, 54, 70
4, 5876, Note_on_c, 2, 54, 0
4, 5880, Note_on_c, 2, 51, 70
4, 5897, Note_on_c, 2, 51, 0
4, 5899, Note_on_c, 2, 57, 70
4, 5916, Note_on_c, 2, 57, 0
4, 5919, Note_on_c, 2, 56, 70
4, 5936, Note_on_c, 2, 56, 0
4, 5939, Note_on_c, 2, 54, 70
4, 5956, Note_on_c, 2, 54, 0
4, 5959, Note_on_c, 2, 56, 70
4, 5976, Note_on_c, 2, 56, 0
4, 5979, Note_on_c, 2, 50, 70
4, 5996, Note_on_c, 2, 50, 0
4, 6000, Note_on_c, 2, 49, 70
4, 6017, Note_on_c, 2, 49, 0
4, 6019, Note_on_c, 2, 52, 70
4, 6036, Note_on_c, 2, 52, 0
4, 6039, Note_on_c, 2, 57, 70
4, 6056, Note_on_c, 2, 57, 0
4, 6059, Note_on_c, 2, 48, 70
4, 6076, Note_on_c, 2, 48, 0
4, 6079, Note_on_c, 2, 47, 70
4, 6096, Note_on_c, 2, 47, 0
4, 6099, Note_on_c, 2, 56, 70
4, 6116, Note_on_c, 2, 56, 0
4, 6120, Note_on_c, 2, 45, 70
4, 6137, Note_on_c, 2, 45, 0
4, 6139, Note_on_c, 2, 71, 70
4, 6156, Note_on_c, 2, 71, 0
4, 6159, Note_on_c, 2, 69, 70
4, 6176, Note_on_c, 2, 69, 0
4, 6179, Note_on_c, 2, 68, 70
4, 6196, Note_on_c, 2, 68, 0
4, 6199, Note_on_c, 2, 69, 70
4, 6216, Note_on_c, 2, 69, 0
4, 6219, Note_on_c, 2, 64, 70
4, 6236, Note_on_c, 2, 64, 0
4, 6240, Note_on_c, 2, 60, 70
4, 6257, Note_on_c, 2, 60, 0
4, 6259, Note_on_c, 2, 65, 70
4, 6276, Note_on_c, 2, 65, 0
4, 6279, Note_on_c, 2, 64, 70
4, 6296, Note_on_c, 2, 64, 0
4, 6299, Note_on_c, 2, 62, 70
4, 6316, Note_on_c, 2, 62, 0
4, 6319, Note_on_c, 2, 64, 70
4, 6336, Note_on_c, 2, 64, 0
4, 6339, Note_on_c, 2, 60, 70
4, 6356, Note_on_c, 2, 60, 0
4, 6360, Note_on_c, 2, 57, 70
4, 6377, Note_on_c, 2, 57, 0
4, 6379, Note_on_c, 2, 62, 70
4, 6396, Note_on_c, 2, 62, 0
4, 6399, Note_on_c, 2, 60, 70
4, 6416, Note_on_c, 2, 60, 0
4, 6419, Note_on_c, 2, 59, 70
4, 6436, Note_on_c, 2, 59, 0
4, 6439, Note_on_c, 2, 60, 70
4, 6456, Note_on_c, 2, 60, 0
4, 6459, Note_on_c, 2, 57, 70
4, 6476, Note_on_c, 2, 57, 0
4, 6480, Note_on_c, 2, 54, 70
4, 6497, Note_on_c, 2, 54, 0
4, 6499, Note_on_c, 2, 59, 70
4, 6516, Note_on_c, 2, 59, 0
4, 6519, Note_on_c, 2, 57, 70
4, 6536, Note_on_c, 2, 57, 0
4, 6539, Note_on_c, 2, 55, 70
4, 6556, Note_on_c, 2, 55, 0
4, 6559, Note_on_c, 2, 57, 70
4, 6576, Note_on_c, 2, 57, 0
4, 6579, Note_on_c, 2, 54, 70
4, 6596, Note_on_c, 2, 54, 0
4, 6600, Note_on_c, 2, 50, 70
4, 6617, Note_on_c, 2, 50, 0
4, 6619, Note_on_c, 2, 57, 70
4, 6636, Note_on_c, 2, 57, 0
4, 6639, Note_on_c, 2, 55, 70
4, 6656, Note_on_c, 2, 55, 0
4, 6659, Note_on_c, 2, 54, 70
4, 6676, Note_on_c, 2, 54, 0
4, 6679, Note_on_c, 2, 55, 70
4, 6696, Note_on_c, 2, 55, 0
4, 6699, Note_on_c, 2, 50, 70
4, 6716, Note_on_c, 2, 50, 0
4, 6720, Note_on_c, 2, 47, 70
4, 6737, Note_on_c, 2, 47, 0
4, 6739, Note_on_c, 2, 52, 70
4, 6756, Note_on_c, 2, 52, 0
4, 6759, Note_on_c, 2, 50, 70
4, 6776, Note_on_c, 2, 50, 0
4, 6779, Note_on_c, 2, 48, 70
4, 6796, Note_on_c, 2, 48, 0
4, 6799, Note_on_c, 2, 50, 70
4, 6816, Note_on_c, 2, 50, 0
4, 6819, Note_on_c, 2, 47, 70
4, 6836, Note_on_c, 2, 47, 0
4, 6840, Note_on_c, 2, 43, 70
4, 6857, Note_on_c, 2, 43, 0
4, 6859, Note_on_c, 2, 76, 70
4, 6876, Note_on_c, 2, 76, 0
4, 6879, Note_on_c, 2, 74, 70
4, 6896, Note_on_c, 2, 74, 0
4, 6899, Note_on_c, 2, 72, 70
4, 6916, Note_on_c, 2, 72, 0
4, 6919, Note_on_c, 2, 74, 70
4, 6936, Note_on_c, 2, 74, 0
4, 6939, Note_on_c, 2, 71, 70
4, 6956, Note_on_c, 2, 71, 0
4, 6960, Note_on_c, 2, 67, 70
4, 6977, Note_on_c, 2, 67, 0
4, 6979, Note_on_c, 2, 72, 70
4, 6996, Note_on_c, 2, 72, 0
4, 6999, Note_on_c, 2, 71, 70
4, 7016, Note_on_c, 2, 71, 0
4, 7019, Note_on_c, 2, 69, 70
4, 7036, Note_on_c, 2, 69, 0
4, 7039, Note_on_c, 2, 71, 70
4, 7056, Note_on_c, 2, 71, 0
4, 7059, Note_on_c, 2, 67, 70
4, 7076, Note_on_c, 2, 67, 0
4, 7080, Note_on_c, 2, 64, 70
4, 7097, Note_on_c, 2, 64, 0
4, 7099, Note_on_c, 2, 66, 70
4, 7116, Note_on_c, 2, 66, 0
4, 7119, Note_on_c, 2, 67, 70
4, 7136, Note_on_c, 2, 67, 0
4, 7139, Note_on_c, 2, 69, 70
4, 7156, Note_on_c, 2, 69, 0
4, 7159, Note_on_c, 2, 71, 70
4, 7176, Note_on_c, 2, 71, 0
4, 7179, Note_on_c, 2, 72, 70
4, 7196, Note_on_c, 2, 72, 0
4, 7200, Note_on_c, 2, 66, 70
4, 7217, Note_on_c, 2, 66, 0
4, 7219, Note_on_c, 2, 67, 70
4, 7236, Note_on_c, 2, 67, 0
4, 7239, Note_on_c, 2, 69, 70
4, 7256, Note_on_c, 2, 69, 0
4, 7259, Note_on_c, 2, 71, 70
4, 7276, Note_on_c, 2, 71, 0
4, 7279, Note_on_c, 2, 72, 70
4, 7296, Note_on_c, 2, 72, 0
4, 7299, Note_on_c, 2, 74, 70
4, 7316, Note_on_c, 2, 74, 0
4, 7320, Note_on_c, 2, 71, 70
4, 7337, Note_on_c, 2, 71, 0
4, 7339, Note_on_c, 2, 72, 70
4, 7356, Note_on_c, 2, 72, 0
4, 7359, Note_on_c, 2, 71, 70
4, 7376, Note_on_c, 2, 71, 0
4, 7379, Note_on_c, 2, 69, 70
4, 7396, Note_on_c, 2, 69, 0
4, 7399, Note_on_c, 2, 71, 70
4, 7416, Note_on_c, 2, 71, 0
4, 7419, Note_on_c, 2, 67, 70
4, 7436, Note_on_c, 2, 67, 0
4, 7440, Note_on_c, 2, 62, 70
4, 7457, Note_on_c, 2, 62, 0
4, 7459, Note_on_c, 2, 67, 70
4, 7476, Note_on_c, 2, 67, 0
4, 7479, Note_on_c, 2, 65, 70
4, 7496, Note_on_c, 2, 65, 0
4, 7499, Note_on_c, 2, 64, 70
4, 7516, Note_on_c, 2, 64, 0
4, 7519, Note_on_c, 2, 65, 70
4, 7536, Note_on_c, 2, 65, 0
4, 7539, Note_on_c, 2, 62, 70
4, 7556, Note_on_c, 2, 62, 0
4, 7560, Note_on_c, 2, 59, 70
4, 7577, Note_on_c, 2, 59, 0
4, 7579, Note_on_c, 2, 64, 70
4, 7596, Note_on_c, 2, 64, 0
4, 7599, Note_on_c, 2, 62, 70
4, 7616, Note_on_c, 2, 62, 0
4, 7619, Note_on_c, 2, 60, 70
4, 7636, Note_on_c, 2, 60, 0
4, 7639, Note_on_c, 2, 62, 70
4, 7656, Note_on_c, 2, 62, 0
4, 7659, Note_on_c, 2, 59, 70
4, 7676, Note_on_c, 2, 59, 0
4, 7680, Note_on_c, 2, 55, 70
4, 7697, Note_on_c, 2, 55, 0
4, 7699, Note_on_c, 2, 59, 70
4, 7716, Note_on_c, 2, 59, 0
4, 7719, Note_on_c, 2, 62, 70
4, 7736, Note_on_c, 2, 62, 0
4, 7739, Note_on_c, 2, 59, 70
4, 7756, Note_on_c, 2, 59, 0
4, 7759, Note_on_c, 2, 65, 70
4, 7776, Note_on_c, 2, 65, 0
4, 7779, Note_on_c, 2, 62, 70
4, 7796, Note_on_c, 2, 62, 0
4, 7800, Note_on_c, 2, 59, 70
4, 7817, Note_on_c, 2, 59, 0
4, 7819, Note_on_c, 2, 60, 70
4, 7836, Note_on_c, 2, 60, 0
4, 7839, Note_on_c, 2, 62, 70
4, 7856, Note_on_c, 2, 62, 0
4, 7859, Note_on_c, 2, 64, 70
4, 7876, Note_on_c, 2, 64, 0
4, 7879, Note_on_c, 2, 66, 70
4, 7896, Note_on_c, 2, 66, 0
4, 7899, Note_on_c, 2, 68, 70
4, 7916, Note_on_c, 2, 68, 0
4, 7920, Note_on_c, 2, 57, 70
4, 7937, Note_on_c, 2, 57, 0
4, 7939, Note_on_c, 2, 59, 70
4, 7956, Note_on_c, 2, 59, 0
4, 7959, Note_on_c, 2, 60, 70
4, 7976, Note_on_c, 2, 60, 0
4, 7979, Note_on_c, 2, 62, 70
4, 7996, Note_on_c, 2, 62, 0
4, 7999, Note_on_c, 2, 64, 70
4, 8016, Note_on_c, 2, 64, 0
4, 8019, Note_on_c, 2, 65, 70
4, 8036, Note_on_c, 2, 65, 0
4, 8040, Note_on_c, 2, 56, 70
4, 8057, Note_on_c, 2, 56, 0
4, 8059, Note_on_c, 2, 57, 70
4, 8076, Note_on_c, 2, 57, 0
4, 8079, Note_on_c, 2, 59, 70
4, 8096, Note_on_c, 2, 59, 0
4, 8099, Note_on_c, 2, 60, 70
4, 8116, Note_on_c, 2, 60, 0
4, 8119, Note_on_c, 2, 62, 70
4, 8136, Note_on_c, 2, 62, 0
4, 8139, Note_on_c, 2, 64, 70
4, 8156, Note_on_c, 2, 64, 0
4, 8160, Note_on_c, 2, 57, 70
4, 8177, Note_on_c, 2, 57, 0
4, 8179, Note_on_c, 2, 59, 70
4, 8196, Note_on_c, 2, 59, 0
4, 8199, Note_on_c, 2, 60, 70
4, 8216, Note_on_c, 2, 60, 0
4, 8219, Note_on_c, 2, 56, 70
4, 8236, Note_on_c, 2, 56, 0
4, 8239, Note_on_c, 2, 57, 70
4, 8256, Note_on_c, 2, 57, 0
4, 8259, Note_on_c, 2, 52, 70
4, 8276, Note_on_c, 2, 52, 0
4, 8280, Note_on_c, 2, 48, 70
4, 8297, Note_on_c, 2, 48, 0
4, 8299, Note_on_c, 2, 54, 70
4, 8316, Note_on_c, 2, 54, 0
4, 8319, Note_on_c, 2, 57, 70
4, 8336, Note_on_c, 2, 57, 0
4, 8339, Note_on_c, 2, 54, 70
4, 8356, Note_on_c, 2, 54, 0
4, 8359, Note_on_c, 2, 60, 70
4, 8376, Note_on_c, 2, 60, 0
4, 8379, Note_on_c, 2, 57, 70
4, 8396, Note_on_c, 2, 57, 0
4, 8400, Note_on_c, 2, 50, 70
4, 8417, Note_on_c, 2, 50, 0
4, 8419, Note_on_c, 2, 56, 70
4, 8436, Note_on_c, 2, 56, 0
4, 8439, Note_on_c, 2, 59, 70
4, 8456, Note_on_c, 2, 59, 0
4, 8459, Note_on_c, 2, 56, 70
4, 8476, Note_on_c, 2, 56, 0
4, 8479, Note_on_c, 2, 62, 70
4, 8496, Note_on_c, 2, 62, 0
4, 8499, Note_on_c, 2, 59, 70
4, 8516, Note_on_c, 2, 59, 0
4, 8520, Note_on_c, 2, 61, 70
4, 8537, Note_on_c, 2, 61, 0
4, 8539, Note_on_c, 2, 69, 70
4, 8556, Note_on_c, 2, 69, 0
4, 8559, Note_on_c, 2, 67, 70
4, 8576, Note_on_c, 2, 67, 0
4, 8579, Note_on_c, 2, 65, 70
4, 8596, Note_on_c, 2, 65, 0
4, 8599, Note_on_c, 2, 67, 70
4, 8616, Note_on_c, 2, 67, 0
4, 8619, Note_on_c, 2, 64, 70
4, 8636, Note_on_c, 2, 64, 0
4, 8640, Note_on_c, 2, 57, 70
4, 8657, Note_on_c, 2, 57, 0
4, 8659, Note_on_c, 2, 67, 70
4, 8676, Note_on_c, 2, 67, 0
4, 8679, Note_on_c, 2, 65, 70
4, 8696, Note_on_c, 2, 65, 0
4, 8699, Note_on_c, 2, 64, 70
4, 8716, Note_on_c, 2, 64, 0
4, 8719, Note_on_c, 2, 65, 70
4, 8736, Note_on_c, 2, 65, 0
4, 8739, Note_on_c, 2, 62, 70
4, 8756, Note_on_c, 2, 62, 0
4, 8760, Note_on_c, 2, 57, 70
4, 8777, Note_on_c, 2, 57, 0
4, 8779, Note_on_c, 2, 65, 70
4, 8796, Note_on_c, 2, 65, 0
4, 8799, Note_on_c, 2, 64, 70
4, 8816, Note_on_c, 2, 64, 0
4, 8819, Note_on_c, 2, 62, 70
4, 8836, Note_on_c, 2, 62, 0
4, 8839, Note_on_c, 2, 64, 70
4, 8856, Note_on_c, 2, 64, 0
4, 8859, Note_on_c, 2, 61, 70
4, 8876, Note_on_c, 2, 61, 0
4, 8880, Note_on_c, 2, 57, 70
4, 8897, Note_on_c, 2, 57, 0
4, 8899, Note_on_c, 2, 64, 70
4, 8916, Note_on_c, 2, 64, 0
4, 8919, Note_on_c, 2, 62, 70
4, 8936, Note_on_c, 2, 62, 0
4, 8939, Note_on_c, 2, 61, 70
4, 8956, Note_on_c, 2, 61, 0
4, 8959, Note_on_c, 2, 62, 70
4, 8976, Note_on_c, 2, 62, 0
4, 8979, Note_on_c, 2, 59, 70
4, 8996, Note_on_c, 2, 59, 0
4, 9000, Note_on_c, 2, 56, 70
4, 9017, Note_on_c, 2, 56, 0
4, 9019, Note_on_c, 2, 62, 70
4, 9036, Note_on_c, 2, 62, 0
4, 9039, Note_on_c, 2, 61, 70
4, 9056, Note_on_c, 2, 61, 0
4, 9059, Note_on_c, 2, 59, 70
4, 9076, Note_on_c, 2, 59, 0
4, 9079, Note_on_c, 2, 61, 70
4, 9096, Note_on_c, 2, 61, 0
4, 9099, Note_on_c, 2, 55, 70
4, 9116, Note_on_c, 2, 55, 0
4, 9120, Note_on_c, 2, 54, 70
4, 9137, Note_on_c, 2, 54, 0
4, 9139, Note_on_c, 2, 57, 70
4, 9156, Note_on_c, 2, 57, 0
4, 9159, Note_on_c, 2, 62, 70
4, 9176, Note_on_c, 2, 62, 0
4, 9179, Note_on_c, 2, 53, 70
4, 9196, Note_on_c, 2, 53, 0
4, 9199, Note_on_c, 2, 52, 70
4, 9216, Note_on_c, 2, 52, 0
4, 9219, Note_on_c, 2, 61, 70
4, 9236, Note_on_c, 2, 61, 0
4, 9240, Note_on_c, 2, 62, 70
4, 9257, Note_on_c, 2, 62, 0
4, 9259, Note_on_c, 2, 64, 70
4, 9276, Note_on_c, 2, 64, 0
4, 9279, Note_on_c, 2, 65, 70
4, 9296, Note_on_c, 2, 65, 0
4, 9299, Note_on_c, 2, 67, 70
4, 9316, Note_on_c, 2, 67, 0
4, 9319, Note_on_c, 2, 69, 70
4, 9336, Note_on_c, 2, 69, 0
4, 9339, Note_on_c, 2, 71, 70
4, 9356, Note_on_c, 2, 71, 0
4, 9360, Note_on_c, 2, 60, 70
4, 9377, Note_on_c, 2, 60, 0
4, 9379, Note_on_c, 2, 62, 70
4, 9396, Note_on_c, 2, 62, 0
4, 9399, Note_on_c, 2, 64, 70
4, 9416, Note_on_c, 2, 64, 0
4, 9419, Note_on_c, 2, 66, 70
4, 9436, Note_on_c, 2, 66, 0
4, 9439, Note_on_c, 2, 68, 70
4, 9456, Note_on_c, 2, 68, 0
4, 9459, Note_on_c, 2, 69, 70
4, 9476, Note_on_c, 2, 69, 0
4, 9480, Note_on_c, 2, 59, 70
4, 9497, Note_on_c, 2, 59, 0
4, 9499, Note_on_c, 2, 60, 70
4, 9516, Note_on_c, 2, 60, 0
4, 9519, Note_on_c, 2, 62, 70
4, 9536, Note_on_c, 2, 62, 0
4, 9539, Note_on_c, 2, 64, 70
4, 9556, Note_on_c, 2, 64, 0
4, 9559, Note_on_c, 2, 66, 70
4, 9576, Note_on_c, 2, 66, 0
4, 9579, Note_on_c, 2, 68, 70
4, 9596, Note_on_c, 2, 68, 0
4, 9600, Note_on_c, 2, 57, 70
4, 9617, Note_on_c, 2, 57, 0
4, 9619, Note_on_c, 2, 62, 70
4, 9636, Note_on_c, 2, 62, 0
4, 9639, Note_on_c, 2, 60, 70
4, 9656, Note_on_c, 2, 60, 0
4, 9659, Note_on_c, 2, 59, 70
4, 9676, Note_on_c, 2, 59, 0
4, 9679, Note_on_c, 2, 60, 70
4, 9696, Note_on_c, 2, 60, 0
4, 9699, Note_on_c, 2, 57, 70
4, 9716, Note_on_c, 2, 57, 0
4, 9720, Note_on_c, 2, 54, 70
4, 9737, Note_on_c, 2, 54, 0
4, 9739, Note_on_c, 2, 59, 70
4, 9756, Note_on_c, 2, 59, 0
4, 9759, Note_on_c, 2, 57, 70
4, 9776, Note_on_c, 2, 57, 0
4, 9779, Note_on_c, 2, 56, 70
4, 9796, Note_on_c, 2, 56, 0
4, 9799, Note_on_c, 2, 57, 70
4, 9816, Note_on_c, 2, 57, 0
4, 9819, Note_on_c, 2, 54, 70
4, 9836, Note_on_c, 2, 54, 0
4, 9840, Note_on_c, 2, 56, 70
4, 9857, Note_on_c, 2, 56, 0
4, 9859, Note_on_c, 2, 57, 70
4, 9876, Note_on_c, 2, 57, 0
4, 9879, Note_on_c, 2, 59, 70
4, 9896, Note_on_c, 2, 59, 0
4, 9899, Note_on_c, 2, 60, 70
4, 9916, Note_on_c, 2, 60, 0
4, 9919, Note_on_c, 2, 62, 70
4, 9936, Note_on_c, 2, 62, 0
4, 9939, Note_on_c, 2, 64, 70
4, 9956, Note_on_c, 2, 64, 0
4, 9960, Note_on_c, 2, 57, 70
4, 9977, Note_on_c, 2, 57, 0
4, 9979, Note_on_c, 2, 71, 70
4, 9996, Note_on_c, 2, 71, 0
4, 9999, Note_on_c, 2, 69, 70
4, 10016, Note_on_c, 2, 69, 0
4, 10019, Note_on_c, 2, 68, 70
4, 10036, Note_on_c, 2, 68, 0
4, 10039, Note_on_c, 2, 69, 70
4, 10056, Note_on_c, 2, 69, 0
4, 10059, Note_on_c, 2, 57, 70
4, 10076, Note_on_c, 2, 57, 0
4, 10080, Note_on_c, 2, 59, 70
4, 10097, Note_on_c, 2, 59, 0
4, 10099, Note_on_c, 2, 69, 70
4, 10116, Note_on_c, 2, 69, 0
4, 10119, Note_on_c, 2, 67, 70
4, 10136, Note_on_c, 2, 67, 0
4, 10139, Note_on_c, 2, 65, 70
4, 10156, Note_on_c, 2, 65, 0
4, 10159, Note_on_c, 2, 67, 70
4, 10176, Note_on_c, 2, 67, 0
4, 10179, Note_on_c, 2, 61, 70
4, 10196, Note_on_c, 2, 61, 0
4, 10200, Note_on_c, 2, 62, 70
4, 10217, Note_on_c, 2, 62, 0
4, 10219, Note_on_c, 2, 68, 70
4, 10236, Note_on_c, 2, 68, 0
4, 10239, Note_on_c, 2, 71, 70
4, 10256, Note_on_c, 2, 71, 0
4, 10259, Note_on_c, 2, 68, 70
4, 10276, Note_on_c, 2, 68, 0
4, 10279, Note_on_c, 2, 74, 70
4, 10296, Note_on_c, 2, 74, 0
4, 10299, Note_on_c, 2, 71, 70
4, 10316, Note_on_c, 2, 71, 0
4, 10320, Note_on_c, 2, 72, 70
4, 10337, Note_on_c, 2, 72, 0
4, 10339, Note_on_c, 2, 64, 70
4, 10356, Note_on_c, 2, 64, 0
4, 10359, Note_on_c, 2, 66, 70
4, 10376, Note_on_c, 2, 66, 0
4, 10379, Note_on_c, 2, 68, 70
4, 10396, Note_on_c, 2, 68, 0
4, 10399, Note_on_c, 2, 69, 70
4, 10416, Note_on_c, 2, 69, 0
4, 10419, Note_on_c, 2, 71, 70
4, 10436, Note_on_c, 2, 71, 0
4, 10440, Note_on_c, 2, 73, 70
4, 10457, Note_on_c, 2, 73, 0
4, 10459, Note_on_c, 2, 67, 70
4, 10476, Note_on_c, 2, 67, 0
4, 10479, Note_on_c, 2, 64, 70
4, 10496, Note_on_c, 2, 64, 0
4, 10499, Note_on_c, 2, 67, 70
4, 10516, Note_on_c, 2, 67, 0
4, 10519, Note_on_c, 2, 61, 70
4, 10536, Note_on_c, 2, 61, 0
4, 10539, Note_on_c, 2, 64, 70
4, 10556, Note_on_c, 2, 64, 0
4, 10560, Note_on_c, 2, 58, 70
4, 10577, Note_on_c, 2, 58, 0
4, 10579, Note_on_c, 2, 59, 70
4, 10596, Note_on_c, 2, 59, 0
4, 10599, Note_on_c, 2, 61, 70
4, 10616, Note_on_c, 2, 61, 0
4, 10619, Note_on_c, 2, 62, 70
4, 10636, Note_on_c, 2, 62, 0
4, 10639, Note_on_c, 2, 64, 70
4, 10656, Note_on_c, 2, 64, 0
4, 10659, Note_on_c, 2, 66, 70
4, 10676, Note_on_c, 2, 66, 0
4, 10680, Note_on_c, 2, 57, 70
4, 10697, Note_on_c, 2, 57, 0
4, 10699, Note_on_c, 2, 63, 70
4, 10716, Note_on_c, 2, 63, 0
4, 10719, Note_on_c, 2, 66, 70
4, 10736, Note_on_c, 2, 66, 0
4, 10739, Note_on_c, 2, 63, 70
4, 10756, Note_on_c, 2, 63, 0
4, 10759, Note_on_c, 2, 69, 70
4, 10776, Note_on_c, 2, 69, 0
4, 10779, Note_on_c, 2, 66, 70
4, 10796, Note_on_c, 2, 66, 0
4, 10800, Note_on_c, 2, 72, 70
4, 10817, Note_on_c, 2, 72, 0
4, 10819, Note_on_c, 2, 69, 70
4, 10836, Note_on_c, 2, 69, 0
4, 10839, Note_on_c, 2, 66, 70
4, 10856, Note_on_c, 2, 66, 0
4, 10859, Note_on_c, 2, 69, 70
4, 10876, Note_on_c, 2, 69, 0
4, 10879, Note_on_c, 2, 63, 70
4, 10896, Note_on_c, 2, 63, 0
4, 10899, Note_on_c, 2, 66, 70
4, 10916, Note_on_c, 2, 66, 0
4, 10920, Note_on_c, 2, 59, 70
4, 10937, Note_on_c, 2, 59, 0
4, 10939, Note_on_c, 2, 64, 70
4, 10956, Note_on_c, 2, 64, 0
4, 10959, Note_on_c, 2, 62, 70
4, 10976, Note_on_c, 2, 62, 0
4, 10979, Note_on_c, 2, 60, 70
4, 10996, Note_on_c, 2, 60, 0
4, 10999, Note_on_c, 2, 62, 70
4, 11016, Note_on_c, 2, 62, 0
4, 11019, Note_on_c, 2, 59, 70
4, 11036, Note_on_c, 2, 59, 0
4, 11040, Note_on_c, 2, 52, 70
4, 11057, Note_on_c, 2, 52, 0
4, 11059, Note_on_c, 2, 62, 70
4, 11076, Note_on_c, 2, 62, 0
4, 11079, Note_on_c, 2, 60, 70
4, 11096, Note_on_c, 2, 60, 0
4, 11099, Note_on_c, 2, 59, 70
4, 11116, Note_on_c, 2, 59, 0
4, 11119, Note_on_c, 2, 60, 70
4, 11136, Note_on_c, 2, 60, 0
4, 11139, Note_on_c, 2, 57, 70
4, 11156, Note_on_c, 2, 57, 0
4, 11160, Note_on_c, 2, 50, 70
4, 11177, Note_on_c, 2, 50, 0
4, 11179, Note_on_c, 2, 60, 70
4, 11196, Note_on_c, 2, 60, 0
4, 11199, Note_on_c, 2, 59, 70
4, 11216, Note_on_c, 2, 59, 0
4, 11219, Note_on_c, 2, 57, 70
4, 11236, Note_on_c, 2, 57, 0
4, 11239, Note_on_c, 2, 59, 70
4, 11256, Note_on_c, 2, 59, 0
4, 11259, Note_on_c, 2, 50, 70
4, 11276, Note_on_c, 2, 50, 0
4, 11280, Note_on_c, 2, 49, 70
4, 11297, Note_on_c, 2, 49, 0
4, 11299, Note_on_c, 2, 59, 70
4, 11316, Note_on_c, 2, 59, 0
4, 11319, Note_on_c, 2, 57, 70
4, 11336, Note_on_c, 2, 57, 0
4, 11339, Note_on_c, 2, 56, 70
4, 11356, Note_on_c, 2, 56, 0
4, 11359, Note_on_c, 2, 57, 70
4, 11376, Note_on_c, 2, 57, 0
4, 11379, Note_on_c, 2, 48, 70
4, 11396, Note_on_c, 2, 48, 0
4, 11400, Note_on_c, 2, 47, 70
4, 11417, Note_on_c, 2, 47, 0
4, 11419, Note_on_c, 2, 52, 70
4, 11436, Note_on_c, 2, 52, 0
4, 11439, Note_on_c, 2, 56, 70
4, 11456, Note_on_c, 2, 56, 0
4, 11459, Note_on_c, 2, 52, 70
4, 11476, Note_on_c, 2, 52, 0
4, 11479, Note_on_c, 2, 59, 70
4, 11496, Note_on_c, 2, 59, 0
4, 11499, Note_on_c, 2, 56, 70
4, 11516, Note_on_c, 2, 56, 0
4, 11520, Note_on_c, 2, 64, 70
4, 11520, Note_on_c, 2, 64, 70
4, 11537, Note_on_c, 2, 64, 0
4, 11537, Note_on_c, 2, 64, 0
4, 11539, Note_on_c, 2, 59, 70
4, 11569, Note_on_c, 2, 59, 0
4, 11580, Note_on_c, 2, 56, 70
4, 11640, Note_on_c, 2, 56, 0
4, 11640, Note_on_c, 2, 59, 70
4, 11730, Note_on_c, 2, 59, 0
4, 11730, Note_on_c, 2, 52, 70
4, 11940, Note_on_c, 2, 52, 0
4, 11940, End_track
5, 0, Start_track
5, 0, MIDI_port, 0
5, 0, Title_t, "Contrabass"
5, 0, Program_c, 3, 43
5, 0, Control_c, 3, 7, 70
5, 0, Control_c, 3, 10, 1
5, 120, Note_on_c, 3, 57, 80
5, 155, Note_on_c, 3, 57, 0
5, 159, Note_on_c, 3, 45, 80
5, 194, Note_on_c, 3, 45, 0
5, 199, Note_on_c, 3, 57, 80
5, 274, Note_on_c, 3, 57, 0
5, 279, Note_on_c, 3, 45, 80
5, 314, Note_on_c, 3, 45, 0
5, 319, Note_on_c, 3, 57, 80
5, 394, Note_on_c, 3, 57, 0
5, 399, Note_on_c, 3, 45, 80
5, 434, Note_on_c, 3, 45, 0
5, 439, Note_on_c, 3, 57, 80
5, 514, Note_on_c, 3, 57, 0
5, 519, Note_on_c, 3, 45, 80
5, 554, Note_on_c, 3, 45, 0
5, 559, Note_on_c, 3, 57, 80
5, 594, Note_on_c, 3, 57, 0
5, 600, Note_on_c, 3, 52, 80
5, 635, Note_on_c, 3, 52, 0
5, 639, Note_on_c, 3, 56, 80
5, 674, Note_on_c, 3, 56, 0
5, 679, Note_on_c, 3, 52, 80
5, 714, Note_on_c, 3, 52, 0
5, 720, Note_on_c, 3, 57, 80
5, 755, Note_on_c, 3, 57, 0
5, 759, Note_on_c, 3, 45, 80
5, 794, Note_on_c, 3, 45, 0
5, 799, Note_on_c, 3, 57, 80
5, 834, Note_on_c, 3, 57, 0
5, 840, Note_on_c, 3, 55, 80
5, 875, Note_on_c, 3, 55, 0
5, 879, Note_on_c, 3, 59, 80
5, 914, Note_on_c, 3, 59, 0
5, 919, Note_on_c, 3, 55, 80
5, 954, Note_on_c, 3, 55, 0
5, 960, Note_on_c, 3, 60, 80
5, 995, Note_on_c, 3, 60, 0
5, 999, Note_on_c, 3, 48, 80
5, 1034, Note_on_c, 3, 48, 0
5, 1039, Note_on_c, 3, 60, 80
5, 1074, Note_on_c, 3, 60, 0
5, 1080, Note_on_c, 3, 53, 80
5, 1115, Note_on_c, 3, 53, 0
5, 1119, Note_on_c, 3, 57, 80
5, 1154, Note_on_c, 3, 57, 0
5, 1159, Note_on_c, 3, 53, 80
5, 1194, Note_on_c, 3, 53, 0
5, 1200, Note_on_c, 3, 55, 80
5, 1235, Note_on_c, 3, 55, 0
5, 1239, Note_on_c, 3, 43, 80
5, 1274, Note_on_c, 3, 43, 0
5, 1279, Note_on_c, 3, 55, 80
5, 1314, Note_on_c, 3, 55, 0
5, 1320, Note_on_c, 3, 60, 80
5, 1355, Note_on_c, 3, 60, 0
5, 1359, Note_on_c, 3, 48, 80
5, 1394, Note_on_c, 3, 48, 0
5, 1399, Note_on_c, 3, 60, 80
5, 1474, Note_on_c, 3, 60, 0
5, 1479, Note_on_c, 3, 48, 80
5, 1514, Note_on_c, 3, 48, 0
5, 1519, Note_on_c, 3, 60, 80
5, 1594, Note_on_c, 3, 60, 0
5, 1599, Note_on_c, 3, 48, 80
5, 1634, Note_on_c, 3, 48, 0
5, 1639, Note_on_c, 3, 60, 80
5, 1674, Note_on_c, 3, 60, 0
5, 1680, Note_on_c, 3, 56, 80
5, 1715, Note_on_c, 3, 56, 0
5, 1719, Note_on_c, 3, 59, 80
5, 1754, Note_on_c, 3, 59, 0
5, 1759, Note_on_c, 3, 52, 80
5, 1794, Note_on_c, 3, 52, 0
5, 1800, Note_on_c, 3, 57, 80
5, 1835, Note_on_c, 3, 57, 0
5, 1839, Note_on_c, 3, 45, 80
5, 1874, Note_on_c, 3, 45, 0
5, 1879, Note_on_c, 3, 57, 80
5, 1914, Note_on_c, 3, 57, 0
5, 1920, Note_on_c, 3, 52, 80
5, 1955, Note_on_c, 3, 52, 0
5, 1959, Note_on_c, 3, 55, 80
5, 1994, Note_on_c, 3, 55, 0
5, 1999, Note_on_c, 3, 52, 80
5, 2034, Note_on_c, 3, 52, 0
5, 2040, Note_on_c, 3, 53, 80
5, 2075, Note_on_c, 3, 53, 0
5, 2079, Note_on_c, 3, 41, 80
5, 2114, Note_on_c, 3, 41, 0
5, 2119, Note_on_c, 3, 53, 80
5, 2154, Note_on_c, 3, 53, 0
5, 2160, Note_on_c, 3, 48, 80
5, 2195, Note_on_c, 3, 48, 0
5, 2199, Note_on_c, 3, 52, 80
5, 2234, Note_on_c, 3, 52, 0
5, 2239, Note_on_c, 3, 48, 80
5, 2274, Note_on_c, 3, 48, 0
5, 2280, Note_on_c, 3, 54, 80
5, 2315, Note_on_c, 3, 54, 0
5, 2319, Note_on_c, 3, 42, 80
5, 2354, Note_on_c, 3, 42, 0
5, 2359, Note_on_c, 3, 54, 80
5, 2394, Note_on_c, 3, 54, 0
5, 2400, Note_on_c, 3, 47, 80
5, 2435, Note_on_c, 3, 47, 0
5, 2439, Note_on_c, 3, 51, 80
5, 2474, Note_on_c, 3, 51, 0
5, 2479, Note_on_c, 3, 47, 80
5, 2514, Note_on_c, 3, 47, 0
5, 2520, Note_on_c, 3, 52, 80
5, 2555, Note_on_c, 3, 52, 0
5, 2559, Note_on_c, 3, 40, 80
5, 2594, Note_on_c, 3, 40, 0
5, 2599, Note_on_c, 3, 52, 80
5, 2674, Note_on_c, 3, 52, 0
5, 2679, Note_on_c, 3, 40, 80
5, 2714, Note_on_c, 3, 40, 0
5, 2719, Note_on_c, 3, 52, 80
5, 2794, Note_on_c, 3, 52, 0
5, 2799, Note_on_c, 3, 40, 80
5, 2834, Note_on_c, 3, 40, 0
5, 2839, Note_on_c, 3, 52, 80
5, 2874, Note_on_c, 3, 52, 0
5, 2880, Note_on_c, 3, 44, 80
5, 2915, Note_on_c, 3, 44, 0
5, 2919, Note_on_c, 3, 56, 80
5, 2954, Note_on_c, 3, 56, 0
5, 2959, Note_on_c, 3, 52, 80
5, 2994, Note_on_c, 3, 52, 0
5, 3000, Note_on_c, 3, 57, 80
5, 3035, Note_on_c, 3, 57, 0
5, 3039, Note_on_c, 3, 45, 80
5, 3074, Note_on_c, 3, 45, 0
5, 3079, Note_on_c, 3, 57, 80
5, 3154, Note_on_c, 3, 57, 0
5, 3159, Note_on_c, 3, 45, 80
5, 3194, Note_on_c, 3, 45, 0
5, 3199, Note_on_c, 3, 57, 80
5, 3274, Note_on_c, 3, 57, 0
5, 3279, Note_on_c, 3, 45, 80
5, 3314, Note_on_c, 3, 45, 0
5, 3319, Note_on_c, 3, 57, 80
5, 3394, Note_on_c, 3, 57, 0
5, 3399, Note_on_c, 3, 45, 80
5, 3434, Note_on_c, 3, 45, 0
5, 3439, Note_on_c, 3, 57, 80
5, 3474, Note_on_c, 3, 57, 0
5, 3480, Note_on_c, 3, 52, 80
5, 3515, Note_on_c, 3, 52, 0
5, 3519, Note_on_c, 3, 56, 80
5, 3554, Note_on_c, 3, 56, 0
5, 3559, Note_on_c, 3, 52, 80
5, 3594, Note_on_c, 3, 52, 0
5, 3600, Note_on_c, 3, 57, 80
5, 3635, Note_on_c, 3, 57, 0
5, 3639, Note_on_c, 3, 45, 80
5, 3674, Note_on_c, 3, 45, 0
5, 3679, Note_on_c, 3, 57, 80
5, 3714, Note_on_c, 3, 57, 0
5, 3720, Note_on_c, 3, 55, 80
5, 3755, Note_on_c, 3, 55, 0
5, 3759, Note_on_c, 3, 59, 80
5, 3794, Note_on_c, 3, 59, 0
5, 3799, Note_on_c, 3, 55, 80
5, 3834, Note_on_c, 3, 55, 0
5, 3840, Note_on_c, 3, 60, 80
5, 3875, Note_on_c, 3, 60, 0
5, 3879, Note_on_c, 3, 48, 80
5, 3914, Note_on_c, 3, 48, 0
5, 3919, Note_on_c, 3, 60, 80
5, 3954, Note_on_c, 3, 60, 0
5, 3960, Note_on_c, 3, 53, 80
5, 3995, Note_on_c, 3, 53, 0
5, 3999, Note_on_c, 3, 57, 80
5, 4034, Note_on_c, 3, 57, 0
5, 4039, Note_on_c, 3, 53, 80
5, 4074, Note_on_c, 3, 53, 0
5, 4080, Note_on_c, 3, 55, 80
5, 4115, Note_on_c, 3, 55, 0
5, 4119, Note_on_c, 3, 43, 80
5, 4154, Note_on_c, 3, 43, 0
5, 4159, Note_on_c, 3, 55, 80
5, 4194, Note_on_c, 3, 55, 0
5, 4200, Note_on_c, 3, 60, 80
5, 4235, Note_on_c, 3, 60, 0
5, 4239, Note_on_c, 3, 48, 80
5, 4274, Note_on_c, 3, 48, 0
5, 4279, Note_on_c, 3, 60, 80
5, 4354, Note_on_c, 3, 60, 0
5, 4359, Note_on_c, 3, 48, 80
5, 4394, Note_on_c, 3, 48, 0
5, 4399, Note_on_c, 3, 60, 80
5, 4474, Note_on_c, 3, 60, 0
5, 4479, Note_on_c, 3, 48, 80
5, 4514, Note_on_c, 3, 48, 0
5, 4519, Note_on_c, 3, 60, 80
5, 4554, Note_on_c, 3, 60, 0
5, 4560, Note_on_c, 3, 56, 80
5, 4595, Note_on_c, 3, 56, 0
5, 4599, Note_on_c, 3, 59, 80
5, 4634, Note_on_c, 3, 59, 0
5, 4639, Note_on_c, 3, 52, 80
5, 4674, Note_on_c, 3, 52, 0
5, 4680, Note_on_c, 3, 57, 80
5, 4715, Note_on_c, 3, 57, 0
5, 4719, Note_on_c, 3, 45, 80
5, 4754, Note_on_c, 3, 45, 0
5, 4759, Note_on_c, 3, 57, 80
5, 4794, Note_on_c, 3, 57, 0
5, 4800, Note_on_c, 3, 52, 80
5, 4835, Note_on_c, 3, 52, 0
5, 4839, Note_on_c, 3, 55, 80
5, 4874, Note_on_c, 3, 55, 0
5, 4879, Note_on_c, 3, 52, 80
5, 4914, Note_on_c, 3, 52, 0
5, 4920, Note_on_c, 3, 53, 80
5, 4955, Note_on_c, 3, 53, 0
5, 4959, Note_on_c, 3, 41, 80
5, 4994, Note_on_c, 3, 41, 0
5, 4999, Note_on_c, 3, 53, 80
5, 5034, Note_on_c, 3, 53, 0
5, 5040, Note_on_c, 3, 48, 80
5, 5075, Note_on_c, 3, 48, 0
5, 5079, Note_on_c, 3, 52, 80
5, 5114, Note_on_c, 3, 52, 0
5, 5119, Note_on_c, 3, 48, 80
5, 5154, Note_on_c, 3, 48, 0
5, 5160, Note_on_c, 3, 54, 80
5, 5195, Note_on_c, 3, 54, 0
5, 5199, Note_on_c, 3, 42, 80
5, 5234, Note_on_c, 3, 42, 0
5, 5239, Note_on_c, 3, 54, 80
5, 5274, Note_on_c, 3, 54, 0
5, 5280, Note_on_c, 3, 47, 80
5, 5315, Note_on_c, 3, 47, 0
5, 5319, Note_on_c, 3, 51, 80
5, 5354, Note_on_c, 3, 51, 0
5, 5359, Note_on_c, 3, 47, 80
5, 5394, Note_on_c, 3, 47, 0
5, 5400, Note_on_c, 3, 52, 80
5, 5435, Note_on_c, 3, 52, 0
5, 5439, Note_on_c, 3, 40, 80
5, 5474, Note_on_c, 3, 40, 0
5, 5479, Note_on_c, 3, 52, 80
5, 5554, Note_on_c, 3, 52, 0
5, 5559, Note_on_c, 3, 40, 80
5, 5594, Note_on_c, 3, 40, 0
5, 5599, Note_on_c, 3, 52, 80
5, 5674, Note_on_c, 3, 52, 0
5, 5679, Note_on_c, 3, 40, 80
5, 5714, Note_on_c, 3, 40, 0
5, 5719, Note_on_c, 3, 52, 80
5, 5794, Note_on_c, 3, 52, 0
5, 5799, Note_on_c, 3, 40, 80
5, 5834, Note_on_c, 3, 40, 0
5, 5839, Note_on_c, 3, 52, 80
5, 5914, Note_on_c, 3, 52, 0
5, 5919, Note_on_c, 3, 40, 80
5, 5954, Note_on_c, 3, 40, 0
5, 5959, Note_on_c, 3, 52, 80
5, 6034, Note_on_c, 3, 52, 0
5, 6039, Note_on_c, 3, 40, 80
5, 6074, Note_on_c, 3, 40, 0
5, 6079, Note_on_c, 3, 52, 80
5, 6114, Note_on_c, 3, 52, 0
5, 6120, Note_on_c, 3, 57, 80
5, 6155, Note_on_c, 3, 57, 0
5, 6159, Note_on_c, 3, 45, 80
5, 6194, Note_on_c, 3, 45, 0
5, 6199, Note_on_c, 3, 57, 80
5, 6274, Note_on_c, 3, 57, 0
5, 6279, Note_on_c, 3, 45, 80
5, 6314, Note_on_c, 3, 45, 0
5, 6319, Note_on_c, 3, 55, 80
5, 6354, Note_on_c, 3, 55, 0
5, 6360, Note_on_c, 3, 54, 80
5, 6395, Note_on_c, 3, 54, 0
5, 6399, Note_on_c, 3, 57, 80
5, 6434, Note_on_c, 3, 57, 0
5, 6439, Note_on_c, 3, 54, 80
5, 6474, Note_on_c, 3, 54, 0
5, 6480, Note_on_c, 3, 62, 80
5, 6515, Note_on_c, 3, 62, 0
5, 6519, Note_on_c, 3, 50, 80
5, 6554, Note_on_c, 3, 50, 0
5, 6559, Note_on_c, 3, 54, 80
5, 6594, Note_on_c, 3, 54, 0
5, 6600, Note_on_c, 3, 55, 80
5, 6635, Note_on_c, 3, 55, 0
5, 6639, Note_on_c, 3, 43, 80
5, 6674, Note_on_c, 3, 43, 0
5, 6679, Note_on_c, 3, 55, 80
5, 6754, Note_on_c, 3, 55, 0
5, 6759, Note_on_c, 3, 43, 80
5, 6794, Note_on_c, 3, 43, 0
5, 6799, Note_on_c, 3, 55, 80
5, 6874, Note_on_c, 3, 55, 0
5, 6879, Note_on_c, 3, 43, 80
5, 6914, Note_on_c, 3, 43, 0
5, 6919, Note_on_c, 3, 55, 80
5, 6954, Note_on_c, 3, 55, 0
5, 6960, Note_on_c, 3, 52, 80
5, 6995, Note_on_c, 3, 52, 0
5, 6999, Note_on_c, 3, 55, 80
5, 7034, Note_on_c, 3, 55, 0
5, 7039, Note_on_c, 3, 52, 80
5, 7074, Note_on_c, 3, 52, 0
5, 7080, Note_on_c, 3, 57, 80
5, 7115, Note_on_c, 3, 57, 0
5, 7119, Note_on_c, 3, 45, 80
5, 7154, Note_on_c, 3, 45, 0
5, 7159, Note_on_c, 3, 57, 80
5, 7194, Note_on_c, 3, 57, 0
5, 7200, Note_on_c, 3, 50, 80
5, 7235, Note_on_c, 3, 50, 0
5, 7239, Note_on_c, 3, 54, 80
5, 7274, Note_on_c, 3, 54, 0
5, 7279, Note_on_c, 3, 50, 80
5, 7314, Note_on_c, 3, 50, 0
5, 7320, Note_on_c, 3, 55, 80
5, 7355, Note_on_c, 3, 55, 0
5, 7359, Note_on_c, 3, 43, 80
5, 7394, Note_on_c, 3, 43, 0
5, 7399, Note_on_c, 3, 55, 80
5, 7474, Note_on_c, 3, 55, 0
5, 7479, Note_on_c, 3, 43, 80
5, 7514, Note_on_c, 3, 43, 0
5, 7519, Note_on_c, 3, 55, 80
5, 7594, Note_on_c, 3, 55, 0
5, 7599, Note_on_c, 3, 43, 80
5, 7634, Note_on_c, 3, 43, 0
5, 7639, Note_on_c, 3, 55, 80
5, 7714, Note_on_c, 3, 55, 0
5, 7719, Note_on_c, 3, 43, 80
5, 7754, Note_on_c, 3, 43, 0
5, 7759, Note_on_c, 3, 57, 80
5, 7794, Note_on_c, 3, 57, 0
5, 7800, Note_on_c, 3, 56, 80
5, 7835, Note_on_c, 3, 56, 0
5, 7839, Note_on_c, 3, 59, 80
5, 7874, Note_on_c, 3, 59, 0
5, 7879, Note_on_c, 3, 52, 80
5, 7914, Note_on_c, 3, 52, 0
5, 7920, Note_on_c, 3, 57, 80
5, 7955, Note_on_c, 3, 57, 0
5, 7959, Note_on_c, 3, 45, 80
5, 7994, Note_on_c, 3, 45, 0
5, 7999, Note_on_c, 3, 57, 80
5, 8034, Note_on_c, 3, 57, 0
5, 8040, Note_on_c, 3, 52, 80
5, 8075, Note_on_c, 3, 52, 0
5, 8079, Note_on_c, 3, 56, 80
5, 8114, Note_on_c, 3, 56, 0
5, 8119, Note_on_c, 3, 52, 80
5, 8154, Note_on_c, 3, 52, 0
5, 8160, Note_on_c, 3, 57, 80
5, 8195, Note_on_c, 3, 57, 0
5, 8199, Note_on_c, 3, 45, 80
5, 8234, Note_on_c, 3, 45, 0
5, 8239, Note_on_c, 3, 57, 80
5, 8274, Note_on_c, 3, 57, 0
5, 8280, Note_on_c, 3, 51, 80
5, 8315, Note_on_c, 3, 51, 0
5, 8319, Note_on_c, 3, 54, 80
5, 8354, Note_on_c, 3, 54, 0
5, 8359, Note_on_c, 3, 51, 80
5, 8394, Note_on_c, 3, 51, 0
5, 8400, Note_on_c, 3, 52, 80
5, 8435, Note_on_c, 3, 52, 0
5, 8439, Note_on_c, 3, 40, 80
5, 8474, Note_on_c, 3, 40, 0
5, 8479, Note_on_c, 3, 52, 80
5, 8514, Note_on_c, 3, 52, 0
5, 8520, Note_on_c, 3, 57, 80
5, 8555, Note_on_c, 3, 57, 0
5, 8559, Note_on_c, 3, 45, 80
5, 8594, Note_on_c, 3, 45, 0
5, 8599, Note_on_c, 3, 57, 80
5, 8674, Note_on_c, 3, 57, 0
5, 8679, Note_on_c, 3, 45, 80
5, 8714, Note_on_c, 3, 45, 0
5, 8719, Note_on_c, 3, 57, 80
5, 8794, Note_on_c, 3, 57, 0
5, 8799, Note_on_c, 3, 45, 80
5, 8834, Note_on_c, 3, 45, 0
5, 8839, Note_on_c, 3, 57, 80
5, 8914, Note_on_c, 3, 57, 0
5, 8919, Note_on_c, 3, 45, 80
5, 8954, Note_on_c, 3, 45, 0
5, 8959, Note_on_c, 3, 57, 80
5, 9034, Note_on_c, 3, 57, 0
5, 9039, Note_on_c, 3, 45, 80
5, 9074, Note_on_c, 3, 45, 0
5, 9079, Note_on_c, 3, 57, 80
5, 9154, Note_on_c, 3, 57, 0
5, 9159, Note_on_c, 3, 45, 80
5, 9194, Note_on_c, 3, 45, 0
5, 9199, Note_on_c, 3, 57, 80
5, 9234, Note_on_c, 3, 57, 0
5, 9240, Note_on_c, 3, 47, 80
5, 9275, Note_on_c, 3, 47, 0
5, 9279, Note_on_c, 3, 50, 80
5, 9314, Note_on_c, 3, 50, 0
5, 9319, Note_on_c, 3, 47, 80
5, 9354, Note_on_c, 3, 47, 0
5, 9360, Note_on_c, 3, 57, 80
5, 9395, Note_on_c, 3, 57, 0
5, 9399, Note_on_c, 3, 45, 80
5, 9434, Note_on_c, 3, 45, 0
5, 9439, Note_on_c, 3, 57, 80
5, 9474, Note_on_c, 3, 57, 0
5, 9480, Note_on_c, 3, 56, 80
5, 9515, Note_on_c, 3, 56, 0
5, 9519, Note_on_c, 3, 59, 80
5, 9554, Note_on_c, 3, 59, 0
5, 9559, Note_on_c, 3, 52, 80
5, 9594, Note_on_c, 3, 52, 0
5, 9600, Note_on_c, 3, 57, 80
5, 9635, Note_on_c, 3, 57, 0
5, 9639, Note_on_c, 3, 45, 80
5, 9674, Note_on_c, 3, 45, 0
5, 9679, Note_on_c, 3, 57, 80
5, 9714, Note_on_c, 3, 57, 0
5, 9720, Note_on_c, 3, 51, 80
5, 9755, Note_on_c, 3, 51, 0
5, 9759, Note_on_c, 3, 54, 80
5, 9794, Note_on_c, 3, 54, 0
5, 9799, Note_on_c, 3, 51, 80
5, 9834, Note_on_c, 3, 51, 0
5, 9840, Note_on_c, 3, 52, 80
5, 9875, Note_on_c, 3, 52, 0
5, 9879, Note_on_c, 3, 40, 80
5, 9914, Note_on_c, 3, 40, 0
5, 9919, Note_on_c, 3, 52, 80
5, 9954, Note_on_c, 3, 52, 0
5, 9960, Note_on_c, 3, 57, 80
5, 9995, Note_on_c, 3, 57, 0
5, 9999, Note_on_c, 3, 45, 80
5, 10034, Note_on_c, 3, 45, 0
5, 10039, Note_on_c, 3, 57, 80
5, 10114, Note_on_c, 3, 57, 0
5, 10119, Note_on_c, 3, 45, 80
5, 10154, Note_on_c, 3, 45, 0
5, 10159, Note_on_c, 3, 57, 80
5, 10234, Note_on_c, 3, 57, 0
5, 10239, Note_on_c, 3, 45, 80
5, 10274, Note_on_c, 3, 45, 0
5, 10279, Note_on_c, 3, 57, 80
5, 10354, Note_on_c, 3, 57, 0
5, 10359, Note_on_c, 3, 45, 80
5, 10394, Note_on_c, 3, 45, 0
5, 10399, Note_on_c, 3, 57, 80
5, 10434, Note_on_c, 3, 57, 0
5, 10440, Note_on_c, 3, 58, 80
5, 10475, Note_on_c, 3, 58, 0
5, 10479, Note_on_c, 3, 46, 80
5, 10514, Note_on_c, 3, 46, 0
5, 10519, Note_on_c, 3, 58, 80
5, 10554, Note_on_c, 3, 58, 0
5, 10560, Note_on_c, 3, 54, 80
5, 10595, Note_on_c, 3, 54, 0
5, 10599, Note_on_c, 3, 58, 80
5, 10634, Note_on_c, 3, 58, 0
5, 10639, Note_on_c, 3, 54, 80
5, 10674, Note_on_c, 3, 54, 0
5, 10680, Note_on_c, 3, 59, 80
5, 10715, Note_on_c, 3, 59, 0
5, 10719, Note_on_c, 3, 47, 80
5, 10754, Note_on_c, 3, 47, 0
5, 10759, Note_on_c, 3, 59, 80
5, 10794, Note_on_c, 3, 59, 0
5, 10800, Note_on_c, 3, 57, 80
5, 10835, Note_on_c, 3, 57, 0
5, 10839, Note_on_c, 3, 60, 80
5, 10874, Note_on_c, 3, 60, 0
5, 10879, Note_on_c, 3, 54, 80
5, 10914, Note_on_c, 3, 54, 0
5, 10920, Note_on_c, 3, 56, 80
5, 10955, Note_on_c, 3, 56, 0
5, 10959, Note_on_c, 3, 52, 80
5, 10994, Note_on_c, 3, 52, 0
5, 10999, Note_on_c, 3, 56, 80
5, 11034, Note_on_c, 3, 56, 0
5, 11040, Note_on_c, 3, 48, 80
5, 11075, Note_on_c, 3, 48, 0
5, 11079, Note_on_c, 3, 52, 80
5, 11114, Note_on_c, 3, 52, 0
5, 11119, Note_on_c, 3, 45, 80
5, 11154, Note_on_c, 3, 45, 0
5, 11160, Note_on_c, 3, 52, 80
5, 11385, Note_on_c, 3, 52, 0
5, 11400, Note_on_c, 3, 40, 80
5, 11940, Note_on_c, 3, 40, 0
5, 11940, End_track
0, 0, End_of_file
