0, 0, Header, 1, 6, 120
1, 0, Start_track
1, 0, Time_signature, 1, 2, 24, 8
1, 0, Key_signature, -3, "major"
1, 0, Tempo, 857142
1, 120, Time_signature, 3, 2, 24, 8
1, 49080, Tempo, 952380
1, 51961, Tempo, 857142
1, 101184, Tempo, 923076
1, 102480, Tempo, 1621621
1, 102481, Tempo, 2142857
1, 102600, Tempo, 3157894
1, 102601, Tempo, 2142857
1, 102603, Tempo, 2500000
1, 102605, Tempo, 3000000
1, 102607, Tempo, 2727272
1, 102649, Tempo, 3000000
1, 102650, Tempo, 937500
1, 104640, Tempo, 2500000
1, 104792, Tempo, 3157894
1, 104901, Tempo, 4000000
1, 104976, Tempo, 6000000
1, 105000, Tempo, 1363636
1, 105001, Tempo, 2400000
1, 105001, End_track
2, 0, Start_track
2, 0, MIDI_port, 0
2, 0, Program_c, 0, 48
2, 0, Control_c, 0, 7, 100
2, 0, Control_c, 0, 10, 1
2, 1982, Control_c, 0, 10, 2
2, 2008, Control_c, 0, 7, 99
2, 2901, Program_c, 0, 74
2, 3060, Note_on_c, 0, 72, 90
2, 3198, Note_on_c, 0, 72, 0
2, 3210, Note_on_c, 0, 74, 90
2, 3236, Note_on_c, 0, 74, 0
2, 3240, Note_on_c, 0, 71, 90
2, 3345, Note_on_c, 0, 71, 0
2, 3420, Note_on_c, 0, 75, 90
2, 3558, Note_on_c, 0, 75, 0
2, 3570, Note_on_c, 0, 77, 90
2, 3596, Note_on_c, 0, 77, 0
2, 3600, Note_on_c, 0, 74, 90
2, 3705, Note_on_c, 0, 74, 0
2, 3780, Note_on_c, 0, 74, 90
2, 3918, Note_on_c, 0, 74, 0
2, 3930, Note_on_c, 0, 75, 90
2, 3956, Note_on_c, 0, 75, 0
2, 3960, Note_on_c, 0, 72, 90
2, 4065, Note_on_c, 0, 72, 0
2, 4140, Note_on_c, 0, 72, 90
2, 4278, Note_on_c, 0, 72, 0
2, 4290, Note_on_c, 0, 74, 90
2, 4316, Note_on_c, 0, 74, 0
2, 4320, Note_on_c, 0, 71, 90
2, 4425, Note_on_c, 0, 71, 0
2, 4500, Note_on_c, 0, 80, 90
2, 4638, Note_on_c, 0, 80, 0
2, 4650, Note_on_c, 0, 82, 90
2, 4676, Note_on_c, 0, 82, 0
2, 4680, Note_on_c, 0, 79, 90
2, 4785, Note_on_c, 0, 79, 0
2, 4860, Note_on_c, 0, 77, 90
2, 4998, Note_on_c, 0, 77, 0
2, 5010, Note_on_c, 0, 79, 90
2, 5036, Note_on_c, 0, 79, 0
2, 5040, Note_on_c, 0, 75, 90
2, 5145, Note_on_c, 0, 75, 0
2, 5220, Note_on_c, 0, 75, 90
2, 5358, Note_on_c, 0, 75, 0
2, 5370, Note_on_c, 0, 77, 90
2, 5396, Note_on_c, 0, 77, 0
2, 5400, Note_on_c, 0, 74, 90
2, 5505, Note_on_c, 0, 74, 0
2, 5580, Note_on_c, 0, 74, 90
2, 5718, Note_on_c, 0, 74, 0
2, 5730, Note_on_c, 0, 75, 90
2, 5756, Note_on_c, 0, 75, 0
2, 5760, Note_on_c, 0, 72, 90
2, 5865, Note_on_c, 0, 72, 0
2, 5940, Note_on_c, 0, 72, 90
2, 6078, Note_on_c, 0, 72, 0
2, 6090, Note_on_c, 0, 74, 90
2, 6116, Note_on_c, 0, 74, 0
2, 6120, Note_on_c, 0, 71, 90
2, 6225, Note_on_c, 0, 71, 0
2, 6300, Note_on_c, 0, 70, 90
2, 6438, Note_on_c, 0, 70, 0
2, 6450, Note_on_c, 0, 72, 90
2, 6476, Note_on_c, 0, 72, 0
2, 6480, Note_on_c, 0, 68, 90
2, 6585, Note_on_c, 0, 68, 0
2, 6660, Note_on_c, 0, 67, 90
2, 6798, Note_on_c, 0, 67, 0
2, 6810, Note_on_c, 0, 68, 90
2, 6836, Note_on_c, 0, 68, 0
2, 6840, Note_on_c, 0, 65, 90
2, 6945, Note_on_c, 0, 65, 0
2, 7020, Note_on_c, 0, 68, 90
2, 7132, Note_on_c, 0, 68, 0
2, 7140, Note_on_c, 0, 67, 90
2, 7192, Note_on_c, 0, 67, 0
2, 7200, Note_on_c, 0, 67, 90
2, 7213, Note_on_c, 0, 67, 0
2, 7215, Note_on_c, 0, 68, 90
2, 7228, Note_on_c, 0, 68, 0
2, 7230, Note_on_c, 0, 67, 90
2, 7312, Note_on_c, 0, 67, 0
2, 7380, Note_on_c, 0, 65, 90
2, 7518, Note_on_c, 0, 65, 0
2, 7530, Note_on_c, 0, 67, 90
2, 7556, Note_on_c, 0, 67, 0
2, 7560, Note_on_c, 0, 63, 90
2, 7665, Note_on_c, 0, 63, 0
2, 7740, Note_on_c, 0, 62, 90
2, 7878, Note_on_c, 0, 62, 0
2, 7890, Note_on_c, 0, 63, 90
2, 7916, Note_on_c, 0, 63, 0
2, 7920, Note_on_c, 0, 60, 90
2, 8025, Note_on_c, 0, 60, 0
2, 8100, Note_on_c, 0, 60, 90
2, 8238, Note_on_c, 0, 60, 0
2, 8250, Note_on_c, 0, 62, 90
2, 8276, Note_on_c, 0, 62, 0
2, 8280, Note_on_c, 0, 59, 90
2, 8293, Note_on_c, 0, 59, 0
2, 8295, Note_on_c, 0, 60, 90
2, 8308, Note_on_c, 0, 60, 0
2, 8310, Note_on_c, 0, 59, 90
2, 8323, Note_on_c, 0, 59, 0
2, 8325, Note_on_c, 0, 60, 90
2, 8338, Note_on_c, 0, 60, 0
2, 8340, Note_on_c, 0, 59, 90
2, 8353, Note_on_c, 0, 59, 0
2, 8355, Note_on_c, 0, 60, 90
2, 8368, Note_on_c, 0, 60, 0
2, 8370, Note_on_c, 0, 59, 90
2, 8383, Note_on_c, 0, 59, 0
2, 8385, Note_on_c, 0, 60, 90
2, 8398, Note_on_c, 0, 60, 0
2, 8400, Note_on_c, 0, 59, 90
2, 8452, Note_on_c, 0, 59, 0
2, 8460, Note_on_c, 0, 59, 90
2, 8512, Note_on_c, 0, 59, 0
2, 8520, Note_on_c, 0, 60, 90
2, 8572, Note_on_c, 0, 60, 0
2, 8580, Note_on_c, 0, 67, 90
2, 8632, Note_on_c, 0, 67, 0
2, 8640, Note_on_c, 0, 72, 90
2, 8692, Note_on_c, 0, 72, 0
2, 8700, Note_on_c, 0, 74, 90
2, 8752, Note_on_c, 0, 74, 0
2, 8760, Note_on_c, 0, 75, 90
2, 8812, Note_on_c, 0, 75, 0
2, 8820, Note_on_c, 0, 77, 90
2, 8872, Note_on_c, 0, 77, 0
2, 8880, Note_on_c, 0, 74, 90
2, 9105, Note_on_c, 0, 74, 0
2, 9120, Note_on_c, 0, 79, 90
2, 9345, Note_on_c, 0, 79, 0
2, 9360, Note_on_c, 0, 77, 90
2, 9465, Note_on_c, 0, 77, 0
2, 9480, Note_on_c, 0, 75, 90
2, 9652, Note_on_c, 0, 75, 0
2, 9660, Note_on_c, 0, 79, 90
2, 9712, Note_on_c, 0, 79, 0
2, 9720, Note_on_c, 0, 77, 90
2, 9772, Note_on_c, 0, 77, 0
2, 9780, Note_on_c, 0, 75, 90
2, 9832, Note_on_c, 0, 75, 0
2, 9840, Note_on_c, 0, 74, 90
2, 9892, Note_on_c, 0, 74, 0
2, 9900, Note_on_c, 0, 72, 90
2, 9952, Note_on_c, 0, 72, 0
2, 9960, Note_on_c, 0, 71, 90
2, 10065, Note_on_c, 0, 71, 0
2, 10260, Note_on_c, 0, 80, 90
2, 10312, Note_on_c, 0, 80, 0
2, 10320, Note_on_c, 0, 79, 90
2, 10372, Note_on_c, 0, 79, 0
2, 10380, Note_on_c, 0, 77, 90
2, 10432, Note_on_c, 0, 77, 0
2, 10440, Note_on_c, 0, 75, 90
2, 10545, Note_on_c, 0, 75, 0
2, 10620, Note_on_c, 0, 80, 90
2, 10672, Note_on_c, 0, 80, 0
2, 10680, Note_on_c, 0, 79, 90
2, 10732, Note_on_c, 0, 79, 0
2, 10740, Note_on_c, 0, 77, 90
2, 10792, Note_on_c, 0, 77, 0
2, 10800, Note_on_c, 0, 75, 90
2, 10905, Note_on_c, 0, 75, 0
2, 10980, Note_on_c, 0, 80, 90
2, 11032, Note_on_c, 0, 80, 0
2, 11040, Note_on_c, 0, 79, 90
2, 11092, Note_on_c, 0, 79, 0
2, 11100, Note_on_c, 0, 68, 90
2, 11100, Note_on_c, 0, 77, 90
2, 11152, Note_on_c, 0, 77, 0
2, 11152, Note_on_c, 0, 68, 0
2, 11160, Note_on_c, 0, 67, 90
2, 11160, Note_on_c, 0, 75, 90
2, 11212, Note_on_c, 0, 75, 0
2, 11212, Note_on_c, 0, 67, 0
2, 11220, Note_on_c, 0, 65, 90
2, 11220, Note_on_c, 0, 74, 90
2, 11272, Note_on_c, 0, 74, 0
2, 11272, Note_on_c, 0, 65, 0
2, 11280, Note_on_c, 0, 63, 90
2, 11280, Note_on_c, 0, 72, 90
2, 11332, Note_on_c, 0, 72, 0
2, 11332, Note_on_c, 0, 63, 0
2, 11340, Note_on_c, 0, 62, 90
2, 11340, Note_on_c, 0, 71, 90
2, 11392, Note_on_c, 0, 71, 0
2, 11392, Note_on_c, 0, 62, 0
2, 11400, Note_on_c, 0, 60, 90
2, 11400, Note_on_c, 0, 72, 90
2, 11505, Note_on_c, 0, 72, 0
2, 11505, Note_on_c, 0, 60, 0
2, 11700, Note_on_c, 0, 67, 90
2, 11726, Note_on_c, 0, 67, 0
2, 11730, Note_on_c, 0, 69, 90
2, 11756, Note_on_c, 0, 69, 0
2, 11760, Note_on_c, 0, 71, 90
2, 11812, Note_on_c, 0, 71, 0
2, 11820, Note_on_c, 0, 71, 90
2, 11846, Note_on_c, 0, 71, 0
2, 11850, Note_on_c, 0, 72, 90
2, 11876, Note_on_c, 0, 72, 0
2, 11880, Note_on_c, 0, 74, 90
2, 11932, Note_on_c, 0, 74, 0
2, 11940, Note_on_c, 0, 72, 90
2, 11966, Note_on_c, 0, 72, 0
2, 11970, Note_on_c, 0, 74, 90
2, 11996, Note_on_c, 0, 74, 0
2, 12000, Note_on_c, 0, 75, 90
2, 12285, Note_on_c, 0, 75, 0
2, 12300, Note_on_c, 0, 74, 90
2, 12326, Note_on_c, 0, 74, 0
2, 12330, Note_on_c, 0, 72, 90
2, 12356, Note_on_c, 0, 72, 0
2, 12360, Note_on_c, 0, 71, 90
2, 12465, Note_on_c, 0, 71, 0
2, 12540, Note_on_c, 0, 72, 90
2, 12566, Note_on_c, 0, 72, 0
2, 12570, Note_on_c, 0, 74, 90
2, 12596, Note_on_c, 0, 74, 0
2, 12600, Note_on_c, 0, 75, 90
2, 12652, Note_on_c, 0, 75, 0
2, 12660, Note_on_c, 0, 77, 90
2, 12686, Note_on_c, 0, 77, 0
2, 12690, Note_on_c, 0, 79, 90
2, 12716, Note_on_c, 0, 79, 0
2, 12720, Note_on_c, 0, 80, 90
2, 12772, Note_on_c, 0, 80, 0
2, 12780, Note_on_c, 0, 74, 90
2, 12806, Note_on_c, 0, 74, 0
2, 12810, Note_on_c, 0, 72, 90
2, 12836, Note_on_c, 0, 72, 0
2, 12840, Note_on_c, 0, 71, 90
2, 12945, Note_on_c, 0, 71, 0
2, 13020, Note_on_c, 0, 79, 90
2, 13046, Note_on_c, 0, 79, 0
2, 13050, Note_on_c, 0, 81, 90
2, 13076, Note_on_c, 0, 81, 0
2, 13080, Note_on_c, 0, 83, 90
2, 13132, Note_on_c, 0, 83, 0
2, 13140, Note_on_c, 0, 81, 90
2, 13166, Note_on_c, 0, 81, 0
2, 13170, Note_on_c, 0, 83, 90
2, 13196, Note_on_c, 0, 83, 0
2, 13200, Note_on_c, 0, 84, 90
2, 13252, Note_on_c, 0, 84, 0
2, 13260, Note_on_c, 0, 79, 90
2, 13286, Note_on_c, 0, 79, 0
2, 13290, Note_on_c, 0, 77, 90
2, 13316, Note_on_c, 0, 77, 0
2, 13320, Note_on_c, 0, 79, 90
2, 13372, Note_on_c, 0, 79, 0
2, 13380, Note_on_c, 0, 75, 90
2, 13432, Note_on_c, 0, 75, 0
2, 13440, Note_on_c, 0, 74, 90
2, 13492, Note_on_c, 0, 74, 0
2, 13500, Note_on_c, 0, 72, 90
2, 13526, Note_on_c, 0, 72, 0
2, 13530, Note_on_c, 0, 74, 90
2, 13556, Note_on_c, 0, 74, 0
2, 13560, Note_on_c, 0, 75, 90
2, 13612, Note_on_c, 0, 75, 0
2, 13620, Note_on_c, 0, 72, 90
2, 13646, Note_on_c, 0, 72, 0
2, 13650, Note_on_c, 0, 71, 90
2, 13676, Note_on_c, 0, 71, 0
2, 13680, Note_on_c, 0, 72, 90
2, 13732, Note_on_c, 0, 72, 0
2, 13740, Note_on_c, 0, 67, 90
2, 13792, Note_on_c, 0, 67, 0
2, 13800, Note_on_c, 0, 68, 90
2, 13852, Note_on_c, 0, 68, 0
2, 13860, Note_on_c, 0, 80, 90
2, 13912, Note_on_c, 0, 80, 0
2, 13920, Note_on_c, 0, 79, 90
2, 13972, Note_on_c, 0, 79, 0
2, 13980, Note_on_c, 0, 72, 90
2, 14006, Note_on_c, 0, 72, 0
2, 14010, Note_on_c, 0, 71, 90
2, 14036, Note_on_c, 0, 71, 0
2, 14040, Note_on_c, 0, 72, 90
2, 14092, Note_on_c, 0, 72, 0
2, 14100, Note_on_c, 0, 63, 90
2, 14126, Note_on_c, 0, 63, 0
2, 14130, Note_on_c, 0, 62, 90
2, 14156, Note_on_c, 0, 62, 0
2, 14160, Note_on_c, 0, 62, 90
2, 14173, Note_on_c, 0, 62, 0
2, 14175, Note_on_c, 0, 63, 90
2, 14188, Note_on_c, 0, 63, 0
2, 14190, Note_on_c, 0, 62, 90
2, 14203, Note_on_c, 0, 62, 0
2, 14205, Note_on_c, 0, 63, 90
2, 14218, Note_on_c, 0, 63, 0
2, 14220, Note_on_c, 0, 62, 90
2, 14233, Note_on_c, 0, 62, 0
2, 14235, Note_on_c, 0, 63, 90
2, 14248, Note_on_c, 0, 63, 0
2, 14250, Note_on_c, 0, 60, 90
2, 14276, Note_on_c, 0, 60, 0
2, 14280, Note_on_c, 0, 60, 90
2, 14290, Program_c, 0, 71
2, 14332, Note_on_c, 0, 60, 0
2, 14340, Note_on_c, 0, 79, 103
2, 14366, Note_on_c, 0, 79, 0
2, 14370, Note_on_c, 0, 67, 102
2, 14396, Note_on_c, 0, 67, 0
2, 14400, Note_on_c, 0, 72, 101
2, 14452, Note_on_c, 0, 72, 0
2, 14460, Note_on_c, 0, 74, 104
2, 14486, Note_on_c, 0, 74, 0
2, 14490, Note_on_c, 0, 75, 99
2, 14516, Note_on_c, 0, 75, 0
2, 14520, Note_on_c, 0, 75, 95
2, 14625, Note_on_c, 0, 75, 0
2, 14640, Note_on_c, 0, 74, 101
2, 14692, Note_on_c, 0, 74, 0
2, 14820, Note_on_c, 0, 74, 102
2, 14846, Note_on_c, 0, 74, 0
2, 14850, Note_on_c, 0, 71, 106
2, 14876, Note_on_c, 0, 71, 0
2, 14880, Note_on_c, 0, 75, 103
2, 15052, Note_on_c, 0, 75, 0
2, 15060, Note_on_c, 0, 75, 98
2, 15086, Note_on_c, 0, 75, 0
2, 15090, Note_on_c, 0, 72, 99
2, 15116, Note_on_c, 0, 72, 0
2, 15120, Note_on_c, 0, 77, 99
2, 15292, Note_on_c, 0, 77, 0
2, 15300, Note_on_c, 0, 75, 102
2, 15326, Note_on_c, 0, 75, 0
2, 15330, Note_on_c, 0, 79, 104
2, 15356, Note_on_c, 0, 79, 0
2, 15360, Note_on_c, 0, 72, 102
2, 15412, Note_on_c, 0, 72, 0
2, 15420, Note_on_c, 0, 84, 102
2, 15446, Note_on_c, 0, 84, 0
2, 15450, Note_on_c, 0, 72, 97
2, 15476, Note_on_c, 0, 72, 0
2, 15480, Note_on_c, 0, 77, 101
2, 15532, Note_on_c, 0, 77, 0
2, 15540, Note_on_c, 0, 79, 101
2, 15566, Note_on_c, 0, 79, 0
2, 15570, Note_on_c, 0, 80, 100
2, 15596, Note_on_c, 0, 80, 0
2, 15600, Note_on_c, 0, 80, 101
2, 15613, Note_on_c, 0, 80, 0
2, 15615, Note_on_c, 0, 82, 101
2, 15628, Note_on_c, 0, 82, 0
2, 15630, Note_on_c, 0, 80, 100
2, 15643, Note_on_c, 0, 80, 0
2, 15645, Note_on_c, 0, 82, 99
2, 15658, Note_on_c, 0, 82, 0
2, 15660, Note_on_c, 0, 80, 99
2, 15673, Note_on_c, 0, 80, 0
2, 15675, Note_on_c, 0, 82, 97
2, 15688, Note_on_c, 0, 82, 0
2, 15690, Note_on_c, 0, 79, 97
2, 15703, Note_on_c, 0, 79, 0
2, 15705, Note_on_c, 0, 80, 98
2, 15718, Note_on_c, 0, 80, 0
2, 15720, Note_on_c, 0, 79, 97
2, 15772, Note_on_c, 0, 79, 0
2, 15780, Note_on_c, 0, 74, 98
2, 15806, Note_on_c, 0, 74, 0
2, 15810, Note_on_c, 0, 62, 98
2, 15836, Note_on_c, 0, 62, 0
2, 15840, Note_on_c, 0, 67, 98
2, 15892, Note_on_c, 0, 67, 0
2, 15900, Note_on_c, 0, 69, 98
2, 15926, Note_on_c, 0, 69, 0
2, 15930, Note_on_c, 0, 71, 99
2, 15956, Note_on_c, 0, 71, 0
2, 15960, Note_on_c, 0, 71, 98
2, 15973, Note_on_c, 0, 71, 0
2, 15975, Note_on_c, 0, 72, 98
2, 15988, Note_on_c, 0, 72, 0
2, 15990, Note_on_c, 0, 71, 97
2, 16003, Note_on_c, 0, 71, 0
2, 16005, Note_on_c, 0, 72, 97
2, 16018, Note_on_c, 0, 72, 0
2, 16020, Note_on_c, 0, 71, 97
2, 16033, Note_on_c, 0, 71, 0
2, 16035, Note_on_c, 0, 72, 98
2, 16048, Note_on_c, 0, 72, 0
2, 16050, Note_on_c, 0, 71, 99
2, 16063, Note_on_c, 0, 71, 0
2, 16065, Note_on_c, 0, 72, 99
2, 16078, Note_on_c, 0, 72, 0
2, 16080, Note_on_c, 0, 72, 99
2, 16132, Note_on_c, 0, 72, 0
2, 16140, Note_on_c, 0, 79, 101
2, 16166, Note_on_c, 0, 79, 0
2, 16170, Note_on_c, 0, 67, 100
2, 16196, Note_on_c, 0, 67, 0
2, 16200, Note_on_c, 0, 72, 99
2, 16252, Note_on_c, 0, 72, 0
2, 16260, Note_on_c, 0, 74, 99
2, 16312, Note_on_c, 0, 74, 0
2, 16320, Note_on_c, 0, 75, 98
2, 16372, Note_on_c, 0, 75, 0
2, 16380, Note_on_c, 0, 74, 99
2, 16406, Note_on_c, 0, 74, 0
2, 16410, Note_on_c, 0, 77, 99
2, 16436, Note_on_c, 0, 77, 0
2, 16440, Note_on_c, 0, 75, 101
2, 16492, Note_on_c, 0, 75, 0
2, 16500, Note_on_c, 0, 84, 101
2, 16526, Note_on_c, 0, 84, 0
2, 16530, Note_on_c, 0, 72, 101
2, 16556, Note_on_c, 0, 72, 0
2, 16560, Note_on_c, 0, 77, 100
2, 16612, Note_on_c, 0, 77, 0
2, 16620, Note_on_c, 0, 79, 102
2, 16672, Note_on_c, 0, 79, 0
2, 16680, Note_on_c, 0, 80, 99
2, 16732, Note_on_c, 0, 80, 0
2, 16740, Note_on_c, 0, 77, 101
2, 16852, Note_on_c, 0, 77, 0
2, 16860, Note_on_c, 0, 79, 100
2, 16886, Note_on_c, 0, 79, 0
2, 16890, Note_on_c, 0, 74, 101
2, 16916, Note_on_c, 0, 74, 0
2, 16920, Note_on_c, 0, 75, 100
2, 16998, Note_on_c, 0, 75, 0
2, 17010, Note_on_c, 0, 77, 98
2, 17036, Note_on_c, 0, 77, 0
2, 17040, Note_on_c, 0, 74, 100
2, 17053, Note_on_c, 0, 74, 0
2, 17055, Note_on_c, 0, 75, 99
2, 17068, Note_on_c, 0, 75, 0
2, 17070, Note_on_c, 0, 74, 99
2, 17083, Note_on_c, 0, 74, 0
2, 17085, Note_on_c, 0, 75, 100
2, 17098, Note_on_c, 0, 75, 0
2, 17100, Note_on_c, 0, 74, 100
2, 17126, Note_on_c, 0, 74, 0
2, 17130, Note_on_c, 0, 75, 101
2, 17156, Note_on_c, 0, 75, 0
2, 17160, Note_on_c, 0, 72, 102
2, 17265, Note_on_c, 0, 72, 0
2, 17430, Note_on_c, 0, 69, 104
2, 17456, Note_on_c, 0, 69, 0
2, 17460, Note_on_c, 0, 71, 104
2, 17486, Note_on_c, 0, 71, 0
2, 17490, Note_on_c, 0, 72, 103
2, 17516, Note_on_c, 0, 72, 0
2, 17520, Note_on_c, 0, 71, 101
2, 17625, Note_on_c, 0, 71, 0
2, 17790, Note_on_c, 0, 75, 102
2, 17816, Note_on_c, 0, 75, 0
2, 17820, Note_on_c, 0, 77, 102
2, 17846, Note_on_c, 0, 77, 0
2, 17850, Note_on_c, 0, 79, 102
2, 17876, Note_on_c, 0, 79, 0
2, 17880, Note_on_c, 0, 80, 102
2, 17985, Note_on_c, 0, 80, 0
2, 18150, Note_on_c, 0, 79, 103
2, 18176, Note_on_c, 0, 79, 0
2, 18180, Note_on_c, 0, 81, 105
2, 18206, Note_on_c, 0, 81, 0
2, 18210, Note_on_c, 0, 83, 102
2, 18236, Note_on_c, 0, 83, 0
2, 18240, Note_on_c, 0, 84, 98
2, 18345, Note_on_c, 0, 84, 0
2, 18510, Note_on_c, 0, 74, 100
2, 18536, Note_on_c, 0, 74, 0
2, 18540, Note_on_c, 0, 75, 101
2, 18566, Note_on_c, 0, 75, 0
2, 18570, Note_on_c, 0, 77, 99
2, 18596, Note_on_c, 0, 77, 0
2, 18600, Note_on_c, 0, 71, 100
2, 18705, Note_on_c, 0, 71, 0
2, 18870, Note_on_c, 0, 63, 102
2, 18896, Note_on_c, 0, 63, 0
2, 18900, Note_on_c, 0, 65, 102
2, 18926, Note_on_c, 0, 65, 0
2, 18930, Note_on_c, 0, 67, 102
2, 18956, Note_on_c, 0, 67, 0
2, 18960, Note_on_c, 0, 63, 103
2, 19065, Note_on_c, 0, 63, 0
2, 19230, Note_on_c, 0, 71, 102
2, 19256, Note_on_c, 0, 71, 0
2, 19260, Note_on_c, 0, 72, 102
2, 19286, Note_on_c, 0, 72, 0
2, 19290, Note_on_c, 0, 74, 99
2, 19316, Note_on_c, 0, 74, 0
2, 19320, Note_on_c, 0, 75, 98
2, 19425, Note_on_c, 0, 75, 0
2, 19590, Note_on_c, 0, 71, 102
2, 19616, Note_on_c, 0, 71, 0
2, 19620, Note_on_c, 0, 72, 102
2, 19646, Note_on_c, 0, 72, 0
2, 19650, Note_on_c, 0, 74, 100
2, 19676, Note_on_c, 0, 74, 0
2, 19680, Note_on_c, 0, 75, 100
2, 19706, Note_on_c, 0, 75, 0
2, 19710, Note_on_c, 0, 79, 100
2, 19736, Note_on_c, 0, 79, 0
2, 19740, Note_on_c, 0, 77, 102
2, 19766, Note_on_c, 0, 77, 0
2, 19770, Note_on_c, 0, 75, 100
2, 19796, Note_on_c, 0, 75, 0
2, 19800, Note_on_c, 0, 74, 101
2, 20025, Note_on_c, 0, 74, 0
2, 20040, Note_on_c, 0, 72, 102
2, 20066, Note_on_c, 0, 72, 0
2, 20070, Note_on_c, 0, 72, 100
2, 20096, Note_on_c, 0, 72, 0
2, 20100, Note_on_c, 0, 70, 100
2, 20126, Note_on_c, 0, 70, 0
2, 20130, Note_on_c, 0, 68, 100
2, 20156, Note_on_c, 0, 68, 0
2, 20160, Note_on_c, 0, 67, 99
2, 20186, Note_on_c, 0, 67, 0
2, 20190, Note_on_c, 0, 68, 100
2, 20216, Note_on_c, 0, 68, 0
2, 20220, Note_on_c, 0, 67, 100
2, 20246, Note_on_c, 0, 67, 0
2, 20250, Note_on_c, 0, 65, 99
2, 20276, Note_on_c, 0, 65, 0
2, 20280, Note_on_c, 0, 63, 99
2, 20332, Note_on_c, 0, 63, 0
2, 20430, Note_on_c, 0, 79, 90
2, 20456, Note_on_c, 0, 79, 0
2, 20460, Note_on_c, 0, 77, 100
2, 20486, Note_on_c, 0, 77, 0
2, 20490, Note_on_c, 0, 75, 100
2, 20516, Note_on_c, 0, 75, 0
2, 20520, Note_on_c, 0, 74, 100
2, 20546, Note_on_c, 0, 74, 0
2, 20550, Note_on_c, 0, 75, 100
2, 20576, Note_on_c, 0, 75, 0
2, 20580, Note_on_c, 0, 74, 102
2, 20606, Note_on_c, 0, 74, 0
2, 20610, Note_on_c, 0, 75, 101
2, 20636, Note_on_c, 0, 75, 0
2, 20640, Note_on_c, 0, 72, 100
2, 20786, Note_on_c, 0, 72, 0
2, 20790, Note_on_c, 0, 82, 100
2, 20816, Note_on_c, 0, 82, 0
2, 20820, Note_on_c, 0, 80, 100
2, 20846, Note_on_c, 0, 80, 0
2, 20850, Note_on_c, 0, 79, 101
2, 20876, Note_on_c, 0, 79, 0
2, 20880, Note_on_c, 0, 77, 102
2, 20906, Note_on_c, 0, 77, 0
2, 20910, Note_on_c, 0, 75, 102
2, 20936, Note_on_c, 0, 75, 0
2, 20940, Note_on_c, 0, 74, 102
2, 20966, Note_on_c, 0, 74, 0
2, 20970, Note_on_c, 0, 72, 100
2, 20996, Note_on_c, 0, 72, 0
2, 21000, Note_on_c, 0, 71, 98
2, 21105, Note_on_c, 0, 71, 0
2, 21120, Note_on_c, 0, 72, 101
2, 21146, Note_on_c, 0, 72, 0
2, 21150, Note_on_c, 0, 77, 102
2, 21176, Note_on_c, 0, 77, 0
2, 21180, Note_on_c, 0, 75, 100
2, 21206, Note_on_c, 0, 75, 0
2, 21210, Note_on_c, 0, 74, 97
2, 21236, Note_on_c, 0, 74, 0
2, 21240, Note_on_c, 0, 72, 97
2, 21266, Note_on_c, 0, 72, 0
2, 21270, Note_on_c, 0, 70, 100
2, 21296, Note_on_c, 0, 70, 0
2, 21300, Note_on_c, 0, 68, 100
2, 21326, Note_on_c, 0, 68, 0
2, 21330, Note_on_c, 0, 67, 100
2, 21356, Note_on_c, 0, 67, 0
2, 21360, Note_on_c, 0, 68, 100
2, 21465, Note_on_c, 0, 68, 0
2, 21480, Note_on_c, 0, 67, 100
2, 21506, Note_on_c, 0, 67, 0
2, 21510, Note_on_c, 0, 79, 100
2, 21536, Note_on_c, 0, 79, 0
2, 21540, Note_on_c, 0, 77, 100
2, 21566, Note_on_c, 0, 77, 0
2, 21570, Note_on_c, 0, 75, 101
2, 21596, Note_on_c, 0, 75, 0
2, 21600, Note_on_c, 0, 74, 101
2, 21626, Note_on_c, 0, 74, 0
2, 21630, Note_on_c, 0, 75, 101
2, 21656, Note_on_c, 0, 75, 0
2, 21660, Note_on_c, 0, 74, 101
2, 21686, Note_on_c, 0, 74, 0
2, 21690, Note_on_c, 0, 75, 100
2, 21716, Note_on_c, 0, 75, 0
2, 21720, Note_on_c, 0, 77, 100
2, 21866, Note_on_c, 0, 77, 0
2, 21870, Note_on_c, 0, 75, 101
2, 21896, Note_on_c, 0, 75, 0
2, 21900, Note_on_c, 0, 74, 100
2, 21926, Note_on_c, 0, 74, 0
2, 21930, Note_on_c, 0, 72, 99
2, 21956, Note_on_c, 0, 72, 0
2, 21960, Note_on_c, 0, 71, 100
2, 21986, Note_on_c, 0, 71, 0
2, 21990, Note_on_c, 0, 69, 99
2, 22016, Note_on_c, 0, 69, 0
2, 22020, Note_on_c, 0, 71, 100
2, 22046, Note_on_c, 0, 71, 0
2, 22050, Note_on_c, 0, 72, 95
2, 22076, Note_on_c, 0, 72, 0
2, 22080, Note_on_c, 0, 74, 97
2, 22226, Note_on_c, 0, 74, 0
2, 22230, Note_on_c, 0, 77, 101
2, 22256, Note_on_c, 0, 77, 0
2, 22260, Note_on_c, 0, 75, 101
2, 22286, Note_on_c, 0, 75, 0
2, 22290, Note_on_c, 0, 74, 98
2, 22316, Note_on_c, 0, 74, 0
2, 22320, Note_on_c, 0, 72, 98
2, 22398, Note_on_c, 0, 72, 0
2, 22410, Note_on_c, 0, 70, 97
2, 22436, Note_on_c, 0, 70, 0
2, 22440, Note_on_c, 0, 68, 97
2, 22586, Note_on_c, 0, 68, 0
2, 22590, Note_on_c, 0, 68, 98
2, 22616, Note_on_c, 0, 68, 0
2, 22620, Note_on_c, 0, 67, 101
2, 22646, Note_on_c, 0, 67, 0
2, 22650, Note_on_c, 0, 65, 102
2, 22676, Note_on_c, 0, 65, 0
2, 22680, Note_on_c, 0, 63, 102
2, 22693, Note_on_c, 0, 63, 0
2, 22695, Note_on_c, 0, 65, 102
2, 22708, Note_on_c, 0, 65, 0
2, 22710, Note_on_c, 0, 67, 102
2, 22736, Note_on_c, 0, 67, 0
2, 22740, Note_on_c, 0, 65, 102
2, 22766, Note_on_c, 0, 65, 0
2, 22770, Note_on_c, 0, 67, 102
2, 22783, Note_on_c, 0, 67, 0
2, 22785, Note_on_c, 0, 68, 100
2, 22798, Note_on_c, 0, 68, 0
2, 22800, Note_on_c, 0, 62, 99
2, 22806, Note_on_c, 0, 62, 0
2, 22807, Note_on_c, 0, 63, 99
2, 22814, Note_on_c, 0, 63, 0
2, 22815, Note_on_c, 0, 62, 98
2, 22821, Note_on_c, 0, 62, 0
2, 22822, Note_on_c, 0, 63, 98
2, 22829, Note_on_c, 0, 63, 0
2, 22830, Note_on_c, 0, 62, 98
2, 22836, Note_on_c, 0, 62, 0
2, 22837, Note_on_c, 0, 63, 98
2, 22844, Note_on_c, 0, 63, 0
2, 22845, Note_on_c, 0, 62, 98
2, 22851, Note_on_c, 0, 62, 0
2, 22852, Note_on_c, 0, 63, 98
2, 22859, Note_on_c, 0, 63, 0
2, 22860, Note_on_c, 0, 62, 98
2, 22886, Note_on_c, 0, 62, 0
2, 22890, Note_on_c, 0, 63, 100
2, 22916, Note_on_c, 0, 63, 0
2, 22920, Note_on_c, 0, 60, 100
2, 23025, Note_on_c, 0, 60, 0
2, 23400, Program_c, 0, 74
2, 23430, Note_on_c, 0, 74, 116
2, 23456, Note_on_c, 0, 74, 0
2, 23460, Note_on_c, 0, 75, 116
2, 23486, Note_on_c, 0, 75, 0
2, 23490, Note_on_c, 0, 77, 115
2, 23516, Note_on_c, 0, 77, 0
2, 23520, Note_on_c, 0, 79, 115
2, 23546, Note_on_c, 0, 79, 0
2, 23550, Note_on_c, 0, 77, 115
2, 23576, Note_on_c, 0, 77, 0
2, 23580, Note_on_c, 0, 75, 110
2, 23606, Note_on_c, 0, 75, 0
2, 23610, Note_on_c, 0, 74, 113
2, 23636, Note_on_c, 0, 74, 0
2, 23640, Note_on_c, 0, 72, 115
2, 23666, Note_on_c, 0, 72, 0
2, 23670, Note_on_c, 0, 73, 114
2, 23696, Note_on_c, 0, 73, 0
2, 23700, Note_on_c, 0, 72, 119
2, 23726, Note_on_c, 0, 72, 0
2, 23730, Note_on_c, 0, 70, 120
2, 23756, Note_on_c, 0, 70, 0
2, 23760, Note_on_c, 0, 68, 110
2, 23786, Note_on_c, 0, 68, 0
2, 23790, Note_on_c, 0, 77, 111
2, 23816, Note_on_c, 0, 77, 0
2, 23820, Note_on_c, 0, 79, 112
2, 23846, Note_on_c, 0, 79, 0
2, 23850, Note_on_c, 0, 80, 114
2, 23876, Note_on_c, 0, 80, 0
2, 23880, Note_on_c, 0, 71, 114
2, 23985, Note_on_c, 0, 71, 0
2, 24030, Note_on_c, 0, 72, 115
2, 24056, Note_on_c, 0, 72, 0
2, 24060, Note_on_c, 0, 74, 114
2, 24086, Note_on_c, 0, 74, 0
2, 24090, Note_on_c, 0, 75, 112
2, 24116, Note_on_c, 0, 75, 0
2, 24120, Note_on_c, 0, 77, 111
2, 24146, Note_on_c, 0, 77, 0
2, 24150, Note_on_c, 0, 79, 112
2, 24176, Note_on_c, 0, 79, 0
2, 24180, Note_on_c, 0, 77, 114
2, 24206, Note_on_c, 0, 77, 0
2, 24210, Note_on_c, 0, 75, 113
2, 24236, Note_on_c, 0, 75, 0
2, 24240, Note_on_c, 0, 74, 114
2, 24266, Note_on_c, 0, 74, 0
2, 24270, Note_on_c, 0, 81, 113
2, 24296, Note_on_c, 0, 81, 0
2, 24300, Note_on_c, 0, 83, 112
2, 24326, Note_on_c, 0, 83, 0
2, 24330, Note_on_c, 0, 84, 112
2, 24356, Note_on_c, 0, 84, 0
2, 24360, Note_on_c, 0, 83, 113
2, 24386, Note_on_c, 0, 83, 0
2, 24390, Note_on_c, 0, 84, 111
2, 24416, Note_on_c, 0, 84, 0
2, 24420, Note_on_c, 0, 83, 111
2, 24446, Note_on_c, 0, 83, 0
2, 24450, Note_on_c, 0, 81, 110
2, 24476, Note_on_c, 0, 81, 0
2, 24480, Note_on_c, 0, 79, 112
2, 24532, Note_on_c, 0, 79, 0
2, 24540, Note_on_c, 0, 77, 115
2, 24566, Note_on_c, 0, 77, 0
2, 24570, Note_on_c, 0, 75, 111
2, 24596, Note_on_c, 0, 75, 0
2, 24600, Note_on_c, 0, 77, 112
2, 24746, Note_on_c, 0, 77, 0
2, 24750, Note_on_c, 0, 80, 112
2, 24776, Note_on_c, 0, 80, 0
2, 24780, Note_on_c, 0, 79, 112
2, 24806, Note_on_c, 0, 79, 0
2, 24810, Note_on_c, 0, 77, 112
2, 24836, Note_on_c, 0, 77, 0
2, 24840, Note_on_c, 0, 75, 112
2, 24866, Note_on_c, 0, 75, 0
2, 24870, Note_on_c, 0, 79, 111
2, 24896, Note_on_c, 0, 79, 0
2, 24900, Note_on_c, 0, 77, 111
2, 24926, Note_on_c, 0, 77, 0
2, 24930, Note_on_c, 0, 75, 112
2, 24956, Note_on_c, 0, 75, 0
2, 24960, Note_on_c, 0, 74, 112
2, 25106, Note_on_c, 0, 74, 0
2, 25110, Note_on_c, 0, 77, 113
2, 25136, Note_on_c, 0, 77, 0
2, 25140, Note_on_c, 0, 75, 112
2, 25166, Note_on_c, 0, 75, 0
2, 25170, Note_on_c, 0, 74, 111
2, 25196, Note_on_c, 0, 74, 0
2, 25200, Note_on_c, 0, 72, 111
2, 25226, Note_on_c, 0, 72, 0
2, 25230, Note_on_c, 0, 75, 110
2, 25256, Note_on_c, 0, 75, 0
2, 25260, Note_on_c, 0, 74, 110
2, 25286, Note_on_c, 0, 74, 0
2, 25290, Note_on_c, 0, 72, 108
2, 25316, Note_on_c, 0, 72, 0
2, 25320, Note_on_c, 0, 73, 111
2, 25346, Note_on_c, 0, 73, 0
2, 25350, Note_on_c, 0, 75, 111
2, 25376, Note_on_c, 0, 75, 0
2, 25380, Note_on_c, 0, 73, 108
2, 25406, Note_on_c, 0, 73, 0
2, 25410, Note_on_c, 0, 72, 106
2, 25436, Note_on_c, 0, 72, 0
2, 25440, Note_on_c, 0, 71, 107
2, 25466, Note_on_c, 0, 71, 0
2, 25470, Note_on_c, 0, 72, 108
2, 25496, Note_on_c, 0, 72, 0
2, 25500, Note_on_c, 0, 74, 109
2, 25586, Note_on_c, 0, 74, 0
2, 25590, Note_on_c, 0, 75, 111
2, 25616, Note_on_c, 0, 75, 0
2, 25620, Note_on_c, 0, 74, 111
2, 25646, Note_on_c, 0, 74, 0
2, 25650, Note_on_c, 0, 72, 112
2, 25732, Note_on_c, 0, 72, 0
2, 25740, Note_on_c, 0, 71, 111
2, 25792, Note_on_c, 0, 71, 0
2, 25800, Note_on_c, 0, 72, 109
2, 25905, Note_on_c, 0, 72, 0
2, 26190, Note_on_c, 0, 67, 111
2, 26216, Note_on_c, 0, 67, 0
2, 26220, Note_on_c, 0, 71, 114
2, 26246, Note_on_c, 0, 71, 0
2, 26250, Note_on_c, 0, 67, 113
2, 26276, Note_on_c, 0, 67, 0
2, 26280, Note_on_c, 0, 74, 113
2, 26385, Note_on_c, 0, 74, 0
2, 26400, Note_on_c, 0, 75, 108
2, 26625, Note_on_c, 0, 75, 0
2, 26670, Note_on_c, 0, 73, 112
2, 26696, Note_on_c, 0, 73, 0
2, 26700, Note_on_c, 0, 77, 114
2, 26726, Note_on_c, 0, 77, 0
2, 26730, Note_on_c, 0, 73, 114
2, 26985, Note_on_c, 0, 73, 0
2, 27000, Note_on_c, 0, 72, 111
2, 27105, Note_on_c, 0, 72, 0
2, 27120, Note_on_c, 0, 74, 115
2, 27225, Note_on_c, 0, 74, 0
2, 27240, Note_on_c, 0, 71, 112
2, 27345, Note_on_c, 0, 71, 0
2, 27750, Note_on_c, 0, 72, 111
2, 27776, Note_on_c, 0, 72, 0
2, 27780, Note_on_c, 0, 75, 119
2, 27806, Note_on_c, 0, 75, 0
2, 27810, Note_on_c, 0, 72, 115
2, 27836, Note_on_c, 0, 72, 0
2, 27840, Note_on_c, 0, 77, 115
2, 27866, Note_on_c, 0, 77, 0
2, 27870, Note_on_c, 0, 74, 110
2, 27896, Note_on_c, 0, 74, 0
2, 27900, Note_on_c, 0, 77, 113
2, 27926, Note_on_c, 0, 77, 0
2, 27930, Note_on_c, 0, 74, 113
2, 27956, Note_on_c, 0, 74, 0
2, 27960, Note_on_c, 0, 75, 112
2, 28065, Note_on_c, 0, 75, 0
2, 28110, Note_on_c, 0, 72, 110
2, 28136, Note_on_c, 0, 72, 0
2, 28140, Note_on_c, 0, 75, 110
2, 28166, Note_on_c, 0, 75, 0
2, 28170, Note_on_c, 0, 72, 108
2, 28196, Note_on_c, 0, 72, 0
2, 28200, Note_on_c, 0, 77, 108
2, 28226, Note_on_c, 0, 77, 0
2, 28230, Note_on_c, 0, 74, 108
2, 28256, Note_on_c, 0, 74, 0
2, 28260, Note_on_c, 0, 77, 107
2, 28286, Note_on_c, 0, 77, 0
2, 28290, Note_on_c, 0, 74, 109
2, 28316, Note_on_c, 0, 74, 0
2, 28320, Note_on_c, 0, 75, 109
2, 28425, Note_on_c, 0, 75, 0
2, 28470, Note_on_c, 0, 72, 109
2, 28496, Note_on_c, 0, 72, 0
2, 28500, Note_on_c, 0, 75, 107
2, 28526, Note_on_c, 0, 75, 0
2, 28530, Note_on_c, 0, 72, 107
2, 28556, Note_on_c, 0, 72, 0
2, 28560, Note_on_c, 0, 77, 107
2, 28586, Note_on_c, 0, 77, 0
2, 28590, Note_on_c, 0, 74, 107
2, 28616, Note_on_c, 0, 74, 0
2, 28620, Note_on_c, 0, 77, 108
2, 28646, Note_on_c, 0, 77, 0
2, 28650, Note_on_c, 0, 74, 107
2, 28676, Note_on_c, 0, 74, 0
2, 28680, Note_on_c, 0, 75, 108
2, 28706, Note_on_c, 0, 75, 0
2, 28710, Note_on_c, 0, 84, 109
2, 28736, Note_on_c, 0, 84, 0
2, 28740, Note_on_c, 0, 82, 110
2, 28766, Note_on_c, 0, 82, 0
2, 28770, Note_on_c, 0, 80, 112
2, 28796, Note_on_c, 0, 80, 0
2, 28800, Note_on_c, 0, 79, 112
2, 28826, Note_on_c, 0, 79, 0
2, 28830, Note_on_c, 0, 77, 111
2, 28856, Note_on_c, 0, 77, 0
2, 28860, Note_on_c, 0, 75, 112
2, 28886, Note_on_c, 0, 75, 0
2, 28890, Note_on_c, 0, 74, 109
2, 28916, Note_on_c, 0, 74, 0
2, 28920, Note_on_c, 0, 72, 108
2, 28946, Note_on_c, 0, 72, 0
2, 28950, Note_on_c, 0, 75, 107
2, 28976, Note_on_c, 0, 75, 0
2, 28980, Note_on_c, 0, 74, 108
2, 29006, Note_on_c, 0, 74, 0
2, 29010, Note_on_c, 0, 72, 109
2, 29036, Note_on_c, 0, 72, 0
2, 29040, Note_on_c, 0, 71, 109
2, 29066, Note_on_c, 0, 71, 0
2, 29070, Note_on_c, 0, 72, 110
2, 29096, Note_on_c, 0, 72, 0
2, 29100, Note_on_c, 0, 71, 113
2, 29126, Note_on_c, 0, 71, 0
2, 29130, Note_on_c, 0, 69, 111
2, 29156, Note_on_c, 0, 69, 0
2, 29160, Note_on_c, 0, 67, 111
2, 29186, Note_on_c, 0, 67, 0
2, 29190, Note_on_c, 0, 65, 109
2, 29216, Note_on_c, 0, 65, 0
2, 29220, Note_on_c, 0, 63, 110
2, 29246, Note_on_c, 0, 63, 0
2, 29250, Note_on_c, 0, 62, 108
2, 29276, Note_on_c, 0, 62, 0
2, 29280, Note_on_c, 0, 60, 108
2, 29306, Note_on_c, 0, 60, 0
2, 29310, Note_on_c, 0, 82, 109
2, 29336, Note_on_c, 0, 82, 0
2, 29340, Note_on_c, 0, 80, 109
2, 29366, Note_on_c, 0, 80, 0
2, 29370, Note_on_c, 0, 79, 108
2, 29396, Note_on_c, 0, 79, 0
2, 29400, Note_on_c, 0, 80, 107
2, 29426, Note_on_c, 0, 80, 0
2, 29430, Note_on_c, 0, 82, 107
2, 29456, Note_on_c, 0, 82, 0
2, 29460, Note_on_c, 0, 80, 107
2, 29486, Note_on_c, 0, 80, 0
2, 29490, Note_on_c, 0, 79, 107
2, 29516, Note_on_c, 0, 79, 0
2, 29520, Note_on_c, 0, 77, 107
2, 29546, Note_on_c, 0, 77, 0
2, 29550, Note_on_c, 0, 75, 108
2, 29576, Note_on_c, 0, 75, 0
2, 29580, Note_on_c, 0, 74, 108
2, 29606, Note_on_c, 0, 74, 0
2, 29610, Note_on_c, 0, 72, 110
2, 29636, Note_on_c, 0, 72, 0
2, 29640, Note_on_c, 0, 71, 110
2, 29666, Note_on_c, 0, 71, 0
2, 29670, Note_on_c, 0, 74, 110
2, 29696, Note_on_c, 0, 74, 0
2, 29700, Note_on_c, 0, 72, 108
2, 29726, Note_on_c, 0, 72, 0
2, 29730, Note_on_c, 0, 71, 109
2, 29756, Note_on_c, 0, 71, 0
2, 29760, Note_on_c, 0, 72, 110
2, 29786, Note_on_c, 0, 72, 0
2, 29790, Note_on_c, 0, 74, 109
2, 29816, Note_on_c, 0, 74, 0
2, 29820, Note_on_c, 0, 72, 107
2, 29846, Note_on_c, 0, 72, 0
2, 29850, Note_on_c, 0, 70, 107
2, 29876, Note_on_c, 0, 70, 0
2, 29880, Note_on_c, 0, 68, 107
2, 29906, Note_on_c, 0, 68, 0
2, 29910, Note_on_c, 0, 67, 107
2, 29936, Note_on_c, 0, 67, 0
2, 29940, Note_on_c, 0, 65, 106
2, 29966, Note_on_c, 0, 65, 0
2, 29970, Note_on_c, 0, 63, 106
2, 29996, Note_on_c, 0, 63, 0
2, 30000, Note_on_c, 0, 62, 106
2, 30026, Note_on_c, 0, 62, 0
2, 30030, Note_on_c, 0, 63, 109
2, 30056, Note_on_c, 0, 63, 0
2, 30060, Note_on_c, 0, 62, 110
2, 30086, Note_on_c, 0, 62, 0
2, 30090, Note_on_c, 0, 60, 111
2, 30116, Note_on_c, 0, 60, 0
2, 30120, Note_on_c, 0, 59, 113
2, 30146, Note_on_c, 0, 59, 0
2, 30150, Note_on_c, 0, 60, 113
2, 30176, Note_on_c, 0, 60, 0
2, 30180, Note_on_c, 0, 59, 112
2, 30206, Note_on_c, 0, 59, 0
2, 30210, Note_on_c, 0, 57, 111
2, 30236, Note_on_c, 0, 57, 0
2, 30240, Note_on_c, 0, 55, 110
2, 30266, Note_on_c, 0, 55, 0
2, 30270, Note_on_c, 0, 57, 111
2, 30296, Note_on_c, 0, 57, 0
2, 30300, Note_on_c, 0, 59, 112
2, 30326, Note_on_c, 0, 59, 0
2, 30330, Note_on_c, 0, 60, 111
2, 30356, Note_on_c, 0, 60, 0
2, 30360, Note_on_c, 0, 59, 111
2, 30386, Note_on_c, 0, 59, 0
2, 30390, Note_on_c, 0, 62, 112
2, 30416, Note_on_c, 0, 62, 0
2, 30420, Note_on_c, 0, 60, 107
2, 30446, Note_on_c, 0, 60, 0
2, 30450, Note_on_c, 0, 59, 107
2, 30476, Note_on_c, 0, 59, 0
2, 30480, Note_on_c, 0, 60, 106
2, 30506, Note_on_c, 0, 60, 0
2, 30510, Note_on_c, 0, 62, 107
2, 30536, Note_on_c, 0, 62, 0
2, 30540, Note_on_c, 0, 63, 109
2, 30566, Note_on_c, 0, 63, 0
2, 30570, Note_on_c, 0, 65, 109
2, 30596, Note_on_c, 0, 65, 0
2, 30600, Note_on_c, 0, 67, 109
2, 30626, Note_on_c, 0, 67, 0
2, 30630, Note_on_c, 0, 69, 109
2, 30656, Note_on_c, 0, 69, 0
2, 30660, Note_on_c, 0, 71, 110
2, 30686, Note_on_c, 0, 71, 0
2, 30690, Note_on_c, 0, 72, 109
2, 30716, Note_on_c, 0, 72, 0
2, 30720, Note_on_c, 0, 74, 110
2, 30746, Note_on_c, 0, 74, 0
2, 30750, Note_on_c, 0, 77, 109
2, 30776, Note_on_c, 0, 77, 0
2, 30780, Note_on_c, 0, 75, 108
2, 30806, Note_on_c, 0, 75, 0
2, 30810, Note_on_c, 0, 74, 110
2, 30836, Note_on_c, 0, 74, 0
2, 30840, Note_on_c, 0, 75, 109
2, 30866, Note_on_c, 0, 75, 0
2, 30870, Note_on_c, 0, 79, 111
2, 30896, Note_on_c, 0, 79, 0
2, 30900, Note_on_c, 0, 84, 110
2, 30926, Note_on_c, 0, 84, 0
2, 30930, Note_on_c, 0, 82, 110
2, 30956, Note_on_c, 0, 82, 0
2, 30960, Note_on_c, 0, 80, 109
2, 30986, Note_on_c, 0, 80, 0
2, 30990, Note_on_c, 0, 79, 109
2, 31016, Note_on_c, 0, 79, 0
2, 31020, Note_on_c, 0, 77, 109
2, 31046, Note_on_c, 0, 77, 0
2, 31050, Note_on_c, 0, 75, 110
2, 31076, Note_on_c, 0, 75, 0
2, 31080, Note_on_c, 0, 74, 111
2, 31106, Note_on_c, 0, 74, 0
2, 31110, Note_on_c, 0, 75, 111
2, 31136, Note_on_c, 0, 75, 0
2, 31140, Note_on_c, 0, 74, 111
2, 31166, Note_on_c, 0, 74, 0
2, 31170, Note_on_c, 0, 72, 111
2, 31196, Note_on_c, 0, 72, 0
2, 31200, Note_on_c, 0, 71, 111
2, 31226, Note_on_c, 0, 71, 0
2, 31230, Note_on_c, 0, 72, 112
2, 31256, Note_on_c, 0, 72, 0
2, 31260, Note_on_c, 0, 74, 113
2, 31286, Note_on_c, 0, 74, 0
2, 31290, Note_on_c, 0, 75, 112
2, 31316, Note_on_c, 0, 75, 0
2, 31320, Note_on_c, 0, 74, 109
2, 31346, Note_on_c, 0, 74, 0
2, 31350, Note_on_c, 0, 72, 107
2, 31376, Note_on_c, 0, 72, 0
2, 31380, Note_on_c, 0, 71, 108
2, 31406, Note_on_c, 0, 71, 0
2, 31410, Note_on_c, 0, 69, 109
2, 31436, Note_on_c, 0, 69, 0
2, 31440, Note_on_c, 0, 67, 110
2, 31466, Note_on_c, 0, 67, 0
2, 31470, Note_on_c, 0, 68, 110
2, 31496, Note_on_c, 0, 68, 0
2, 31500, Note_on_c, 0, 67, 111
2, 31526, Note_on_c, 0, 67, 0
2, 31530, Note_on_c, 0, 65, 113
2, 31556, Note_on_c, 0, 65, 0
2, 31560, Note_on_c, 0, 63, 112
2, 31586, Note_on_c, 0, 63, 0
2, 31590, Note_on_c, 0, 65, 112
2, 31616, Note_on_c, 0, 65, 0
2, 31620, Note_on_c, 0, 67, 112
2, 31646, Note_on_c, 0, 67, 0
2, 31650, Note_on_c, 0, 68, 111
2, 31676, Note_on_c, 0, 68, 0
2, 31680, Note_on_c, 0, 67, 106
2, 31706, Note_on_c, 0, 67, 0
2, 31710, Note_on_c, 0, 65, 101
2, 31736, Note_on_c, 0, 65, 0
2, 31740, Note_on_c, 0, 63, 101
2, 31766, Note_on_c, 0, 63, 0
2, 31770, Note_on_c, 0, 62, 99
2, 31790, Program_c, 0, 56
2, 31796, Note_on_c, 0, 62, 0
2, 31800, Note_on_c, 0, 60, 100
2, 31800, Note_on_c, 0, 72, 100
2, 31905, Note_on_c, 0, 72, 0
2, 31905, Note_on_c, 0, 60, 0
2, 31920, Note_on_c, 0, 79, 102
2, 32145, Note_on_c, 0, 79, 0
2, 32160, Note_on_c, 0, 75, 102
2, 32265, Note_on_c, 0, 75, 0
2, 32280, Note_on_c, 0, 77, 102
2, 32505, Note_on_c, 0, 77, 0
2, 32520, Note_on_c, 0, 79, 103
2, 32625, Note_on_c, 0, 79, 0
2, 32640, Note_on_c, 0, 80, 109
2, 32865, Note_on_c, 0, 80, 0
2, 32880, Note_on_c, 0, 77, 103
2, 32985, Note_on_c, 0, 77, 0
2, 33000, Note_on_c, 0, 79, 105
2, 33225, Note_on_c, 0, 79, 0
2, 33240, Note_on_c, 0, 74, 98
2, 33345, Note_on_c, 0, 74, 0
2, 33360, Note_on_c, 0, 75, 102
2, 33585, Note_on_c, 0, 75, 0
2, 33600, Note_on_c, 0, 71, 101
2, 33705, Note_on_c, 0, 71, 0
2, 33720, Note_on_c, 0, 72, 99
2, 33945, Note_on_c, 0, 72, 0
2, 33960, Note_on_c, 0, 65, 99
2, 34065, Note_on_c, 0, 65, 0
2, 34080, Note_on_c, 0, 67, 99
2, 34425, Note_on_c, 0, 67, 0
2, 34440, Note_on_c, 0, 60, 100
2, 34665, Note_on_c, 0, 60, 0
2, 34680, Note_on_c, 0, 72, 111
2, 34785, Note_on_c, 0, 72, 0
2, 34800, Note_on_c, 0, 79, 111
2, 35025, Note_on_c, 0, 79, 0
2, 35040, Note_on_c, 0, 75, 110
2, 35145, Note_on_c, 0, 75, 0
2, 35160, Note_on_c, 0, 77, 110
2, 35385, Note_on_c, 0, 77, 0
2, 35400, Note_on_c, 0, 79, 109
2, 35505, Note_on_c, 0, 79, 0
2, 35520, Note_on_c, 0, 80, 109
2, 35685, Note_on_c, 0, 80, 0
2, 35700, Note_on_c, 0, 79, 110
2, 35752, Note_on_c, 0, 79, 0
2, 35760, Note_on_c, 0, 77, 112
2, 35865, Note_on_c, 0, 77, 0
2, 35880, Note_on_c, 0, 79, 110
2, 36105, Note_on_c, 0, 79, 0
2, 36120, Note_on_c, 0, 74, 113
2, 36225, Note_on_c, 0, 74, 0
2, 36240, Note_on_c, 0, 75, 113
2, 36465, Note_on_c, 0, 75, 0
2, 36480, Note_on_c, 0, 71, 113
2, 36585, Note_on_c, 0, 71, 0
2, 36600, Note_on_c, 0, 72, 113
2, 36825, Note_on_c, 0, 72, 0
2, 36840, Note_on_c, 0, 65, 113
2, 36945, Note_on_c, 0, 65, 0
2, 36960, Note_on_c, 0, 67, 115
2, 37305, Note_on_c, 0, 67, 0
2, 37320, Note_on_c, 0, 60, 114
2, 37545, Note_on_c, 0, 60, 0
2, 37800, Note_on_c, 0, 72, 99
2, 37830, Note_on_c, 0, 72, 0
2, 37830, Note_on_c, 0, 75, 101
2, 37860, Note_on_c, 0, 75, 0
2, 37860, Note_on_c, 0, 74, 105
2, 37890, Note_on_c, 0, 74, 0
2, 37890, Note_on_c, 0, 72, 106
2, 37916, Note_on_c, 0, 72, 0
2, 37920, Note_on_c, 0, 79, 106
2, 38025, Note_on_c, 0, 79, 0
2, 38040, Note_on_c, 0, 72, 102
2, 38070, Note_on_c, 0, 72, 0
2, 38070, Note_on_c, 0, 76, 102
2, 38100, Note_on_c, 0, 76, 0
2, 38100, Note_on_c, 0, 74, 104
2, 38130, Note_on_c, 0, 74, 0
2, 38130, Note_on_c, 0, 72, 104
2, 38156, Note_on_c, 0, 72, 0
2, 38160, Note_on_c, 0, 77, 104
2, 38325, Note_on_c, 0, 77, 0
2, 38340, Note_on_c, 0, 76, 104
2, 38392, Note_on_c, 0, 76, 0
2, 38400, Note_on_c, 0, 77, 100
2, 38430, Note_on_c, 0, 77, 0
2, 38430, Note_on_c, 0, 80, 104
2, 38460, Note_on_c, 0, 80, 0
2, 38460, Note_on_c, 0, 79, 105
2, 38490, Note_on_c, 0, 79, 0
2, 38490, Note_on_c, 0, 77, 103
2, 38516, Note_on_c, 0, 77, 0
2, 38520, Note_on_c, 0, 84, 102
2, 38666, Note_on_c, 0, 84, 0
2, 38670, Note_on_c, 0, 75, 98
2, 38700, Note_on_c, 0, 75, 0
2, 38700, Note_on_c, 0, 74, 99
2, 38730, Note_on_c, 0, 74, 0
2, 38730, Note_on_c, 0, 72, 102
2, 38756, Note_on_c, 0, 72, 0
2, 38760, Note_on_c, 0, 71, 102
2, 38865, Note_on_c, 0, 71, 0
2, 38880, Note_on_c, 0, 72, 102
2, 38985, Note_on_c, 0, 72, 0
2, 39000, Note_on_c, 0, 74, 102
2, 39105, Note_on_c, 0, 74, 0
2, 39120, Note_on_c, 0, 67, 101
2, 39172, Note_on_c, 0, 67, 0
2, 39180, Note_on_c, 0, 72, 100
2, 39266, Note_on_c, 0, 72, 0
2, 39270, Note_on_c, 0, 72, 99
2, 39296, Note_on_c, 0, 72, 0
2, 39300, Note_on_c, 0, 71, 99
2, 39326, Note_on_c, 0, 71, 0
2, 39330, Note_on_c, 0, 69, 101
2, 39356, Note_on_c, 0, 69, 0
2, 39360, Note_on_c, 0, 67, 99
2, 39412, Note_on_c, 0, 67, 0
2, 39420, Note_on_c, 0, 65, 100
2, 39472, Note_on_c, 0, 65, 0
2, 39480, Note_on_c, 0, 63, 103
2, 39532, Note_on_c, 0, 63, 0
2, 39540, Note_on_c, 0, 68, 99
2, 39626, Note_on_c, 0, 68, 0
2, 39630, Note_on_c, 0, 67, 100
2, 39656, Note_on_c, 0, 67, 0
2, 39660, Note_on_c, 0, 72, 99
2, 39686, Note_on_c, 0, 72, 0
2, 39690, Note_on_c, 0, 70, 98
2, 39716, Note_on_c, 0, 70, 0
2, 39720, Note_on_c, 0, 68, 100
2, 39746, Note_on_c, 0, 68, 0
2, 39750, Note_on_c, 0, 77, 99
2, 39776, Note_on_c, 0, 77, 0
2, 39780, Note_on_c, 0, 79, 100
2, 39806, Note_on_c, 0, 79, 0
2, 39810, Note_on_c, 0, 80, 98
2, 39836, Note_on_c, 0, 80, 0
2, 39840, Note_on_c, 0, 71, 98
2, 39945, Note_on_c, 0, 71, 0
2, 39960, Note_on_c, 0, 72, 97
2, 39986, Note_on_c, 0, 72, 0
2, 39990, Note_on_c, 0, 75, 98
2, 40016, Note_on_c, 0, 75, 0
2, 40020, Note_on_c, 0, 74, 98
2, 40046, Note_on_c, 0, 74, 0
2, 40050, Note_on_c, 0, 72, 96
2, 40076, Note_on_c, 0, 72, 0
2, 40080, Note_on_c, 0, 79, 97
2, 40226, Note_on_c, 0, 79, 0
2, 40230, Note_on_c, 0, 83, 100
2, 40256, Note_on_c, 0, 83, 0
2, 40260, Note_on_c, 0, 81, 100
2, 40286, Note_on_c, 0, 81, 0
2, 40290, Note_on_c, 0, 79, 99
2, 40316, Note_on_c, 0, 79, 0
2, 40320, Note_on_c, 0, 84, 98
2, 40372, Note_on_c, 0, 84, 0
2, 40380, Note_on_c, 0, 72, 100
2, 40432, Note_on_c, 0, 72, 0
2, 40460, Program_c, 0, 16
2, 40470, Note_on_c, 0, 79, 90
2, 40496, Note_on_c, 0, 79, 0
2, 40500, Note_on_c, 0, 75, 90
2, 40526, Note_on_c, 0, 75, 0
2, 40530, Note_on_c, 0, 72, 90
2, 40556, Note_on_c, 0, 72, 0
2, 40560, Note_on_c, 0, 71, 90
2, 40612, Note_on_c, 0, 71, 0
2, 40620, Note_on_c, 0, 67, 90
2, 40672, Note_on_c, 0, 67, 0
2, 40710, Note_on_c, 0, 71, 90
2, 40736, Note_on_c, 0, 71, 0
2, 40740, Note_on_c, 0, 74, 90
2, 40766, Note_on_c, 0, 74, 0
2, 40770, Note_on_c, 0, 79, 90
2, 40796, Note_on_c, 0, 79, 0
2, 40830, Note_on_c, 0, 79, 90
2, 40856, Note_on_c, 0, 79, 0
2, 40860, Note_on_c, 0, 75, 90
2, 40886, Note_on_c, 0, 75, 0
2, 40890, Note_on_c, 0, 72, 90
2, 40916, Note_on_c, 0, 72, 0
2, 40920, Note_on_c, 0, 80, 90
2, 40972, Note_on_c, 0, 80, 0
2, 40980, Note_on_c, 0, 77, 90
2, 41032, Note_on_c, 0, 77, 0
2, 41070, Note_on_c, 0, 68, 90
2, 41096, Note_on_c, 0, 68, 0
2, 41100, Note_on_c, 0, 72, 90
2, 41126, Note_on_c, 0, 72, 0
2, 41130, Note_on_c, 0, 77, 90
2, 41156, Note_on_c, 0, 77, 0
2, 41190, Note_on_c, 0, 79, 90
2, 41216, Note_on_c, 0, 79, 0
2, 41220, Note_on_c, 0, 75, 90
2, 41246, Note_on_c, 0, 75, 0
2, 41250, Note_on_c, 0, 71, 90
2, 41276, Note_on_c, 0, 71, 0
2, 41280, Note_on_c, 0, 72, 90
2, 41332, Note_on_c, 0, 72, 0
2, 41340, Note_on_c, 0, 56, 90
2, 41392, Note_on_c, 0, 56, 0
2, 41430, Note_on_c, 0, 72, 90
2, 41456, Note_on_c, 0, 72, 0
2, 41460, Note_on_c, 0, 75, 90
2, 41486, Note_on_c, 0, 75, 0
2, 41490, Note_on_c, 0, 80, 90
2, 41516, Note_on_c, 0, 80, 0
2, 41550, Note_on_c, 0, 80, 90
2, 41576, Note_on_c, 0, 80, 0
2, 41580, Note_on_c, 0, 77, 90
2, 41606, Note_on_c, 0, 77, 0
2, 41610, Note_on_c, 0, 74, 90
2, 41636, Note_on_c, 0, 74, 0
2, 41640, Note_on_c, 0, 71, 90
2, 41692, Note_on_c, 0, 71, 0
2, 41700, Note_on_c, 0, 67, 90
2, 41752, Note_on_c, 0, 67, 0
2, 41790, Note_on_c, 0, 71, 90
2, 41816, Note_on_c, 0, 71, 0
2, 41820, Note_on_c, 0, 74, 90
2, 41846, Note_on_c, 0, 74, 0
2, 41850, Note_on_c, 0, 79, 90
2, 41876, Note_on_c, 0, 79, 0
2, 41910, Note_on_c, 0, 80, 90
2, 41936, Note_on_c, 0, 80, 0
2, 41940, Note_on_c, 0, 77, 90
2, 41966, Note_on_c, 0, 77, 0
2, 41970, Note_on_c, 0, 70, 90
2, 41996, Note_on_c, 0, 70, 0
2, 42000, Note_on_c, 0, 79, 90
2, 42052, Note_on_c, 0, 79, 0
2, 42060, Note_on_c, 0, 75, 90
2, 42112, Note_on_c, 0, 75, 0
2, 42150, Note_on_c, 0, 67, 90
2, 42176, Note_on_c, 0, 67, 0
2, 42180, Note_on_c, 0, 70, 90
2, 42206, Note_on_c, 0, 70, 0
2, 42210, Note_on_c, 0, 75, 90
2, 42236, Note_on_c, 0, 75, 0
2, 42270, Note_on_c, 0, 77, 90
2, 42296, Note_on_c, 0, 77, 0
2, 42300, Note_on_c, 0, 74, 90
2, 42326, Note_on_c, 0, 74, 0
2, 42330, Note_on_c, 0, 67, 90
2, 42356, Note_on_c, 0, 67, 0
2, 42360, Note_on_c, 0, 75, 90
2, 42412, Note_on_c, 0, 75, 0
2, 42420, Note_on_c, 0, 72, 90
2, 42472, Note_on_c, 0, 72, 0
2, 42510, Note_on_c, 0, 63, 90
2, 42536, Note_on_c, 0, 63, 0
2, 42540, Note_on_c, 0, 67, 90
2, 42566, Note_on_c, 0, 67, 0
2, 42570, Note_on_c, 0, 72, 90
2, 42596, Note_on_c, 0, 72, 0
2, 42630, Note_on_c, 0, 68, 90
2, 42656, Note_on_c, 0, 68, 0
2, 42660, Note_on_c, 0, 65, 90
2, 42686, Note_on_c, 0, 65, 0
2, 42690, Note_on_c, 0, 62, 90
2, 42716, Note_on_c, 0, 62, 0
2, 42720, Note_on_c, 0, 63, 90
2, 42733, Note_on_c, 0, 63, 0
2, 42735, Note_on_c, 0, 65, 90
2, 42748, Note_on_c, 0, 65, 0
2, 42750, Note_on_c, 0, 63, 90
2, 42776, Note_on_c, 0, 63, 0
2, 42780, Note_on_c, 0, 60, 90
2, 42832, Note_on_c, 0, 60, 0
2, 42870, Note_on_c, 0, 60, 90
2, 42896, Note_on_c, 0, 60, 0
2, 42900, Note_on_c, 0, 63, 90
2, 42926, Note_on_c, 0, 63, 0
2, 42930, Note_on_c, 0, 67, 90
2, 42956, Note_on_c, 0, 67, 0
2, 42960, Note_on_c, 0, 59, 90
2, 42986, Note_on_c, 0, 59, 0
2, 42990, Note_on_c, 0, 62, 90
2, 43016, Note_on_c, 0, 62, 0
2, 43020, Note_on_c, 0, 65, 90
2, 43046, Note_on_c, 0, 65, 0
2, 43050, Note_on_c, 0, 59, 90
2, 43076, Note_on_c, 0, 59, 0
2, 43080, Note_on_c, 0, 63, 90
2, 43132, Note_on_c, 0, 63, 0
2, 43320, Note_on_c, 0, 72, 90
2, 43346, Note_on_c, 0, 72, 0
2, 43350, Note_on_c, 0, 75, 90
2, 43376, Note_on_c, 0, 75, 0
2, 43380, Note_on_c, 0, 79, 90
2, 43406, Note_on_c, 0, 79, 0
2, 43410, Note_on_c, 0, 84, 90
2, 43436, Note_on_c, 0, 84, 0
2, 43680, Note_on_c, 0, 63, 90
2, 43706, Note_on_c, 0, 63, 0
2, 43710, Note_on_c, 0, 72, 90
2, 43736, Note_on_c, 0, 72, 0
2, 43740, Note_on_c, 0, 79, 90
2, 43766, Note_on_c, 0, 79, 0
2, 43770, Note_on_c, 0, 84, 90
2, 43796, Note_on_c, 0, 84, 0
2, 44040, Note_on_c, 0, 67, 90
2, 44066, Note_on_c, 0, 67, 0
2, 44070, Note_on_c, 0, 75, 90
2, 44096, Note_on_c, 0, 75, 0
2, 44100, Note_on_c, 0, 79, 90
2, 44126, Note_on_c, 0, 79, 0
2, 44130, Note_on_c, 0, 83, 90
2, 44156, Note_on_c, 0, 83, 0
2, 44400, Note_on_c, 0, 65, 90
2, 44426, Note_on_c, 0, 65, 0
2, 44430, Note_on_c, 0, 74, 90
2, 44456, Note_on_c, 0, 74, 0
2, 44460, Note_on_c, 0, 80, 90
2, 44486, Note_on_c, 0, 80, 0
2, 44490, Note_on_c, 0, 84, 90
2, 44516, Note_on_c, 0, 84, 0
2, 44760, Note_on_c, 0, 62, 90
2, 44786, Note_on_c, 0, 62, 0
2, 44790, Note_on_c, 0, 74, 90
2, 44816, Note_on_c, 0, 74, 0
2, 44820, Note_on_c, 0, 77, 90
2, 44846, Note_on_c, 0, 77, 0
2, 44850, Note_on_c, 0, 83, 90
2, 44876, Note_on_c, 0, 83, 0
2, 45120, Note_on_c, 0, 59, 90
2, 45146, Note_on_c, 0, 59, 0
2, 45150, Note_on_c, 0, 67, 90
2, 45176, Note_on_c, 0, 67, 0
2, 45180, Note_on_c, 0, 74, 90
2, 45206, Note_on_c, 0, 74, 0
2, 45210, Note_on_c, 0, 77, 90
2, 45236, Note_on_c, 0, 77, 0
2, 45480, Note_on_c, 0, 53, 90
2, 45506, Note_on_c, 0, 53, 0
2, 45510, Note_on_c, 0, 62, 90
2, 45536, Note_on_c, 0, 62, 0
2, 45540, Note_on_c, 0, 68, 90
2, 45566, Note_on_c, 0, 68, 0
2, 45570, Note_on_c, 0, 77, 90
2, 45596, Note_on_c, 0, 77, 0
2, 45840, Note_on_c, 0, 55, 90
2, 45866, Note_on_c, 0, 55, 0
2, 45870, Note_on_c, 0, 74, 90
2, 45896, Note_on_c, 0, 74, 0
2, 45900, Note_on_c, 0, 77, 90
2, 45926, Note_on_c, 0, 77, 0
2, 45930, Note_on_c, 0, 83, 90
2, 45956, Note_on_c, 0, 83, 0
2, 46260, Note_on_c, 0, 67, 113
2, 46260, Note_on_c, 0, 72, 113
2, 46321, Note_on_c, 0, 72, 0
2, 46321, Note_on_c, 0, 67, 0
2, 46350, Note_on_c, 0, 72, 102
2, 46376, Note_on_c, 0, 72, 0
2, 46380, Note_on_c, 0, 74, 102
2, 46410, Note_on_c, 0, 69, 103
2, 46436, Note_on_c, 0, 69, 0
2, 46440, Note_on_c, 0, 71, 102
2, 46612, Note_on_c, 0, 71, 0
2, 46612, Note_on_c, 0, 74, 0
2, 46620, Note_on_c, 0, 67, 115
2, 46620, Note_on_c, 0, 72, 115
2, 46681, Note_on_c, 0, 72, 0
2, 46681, Note_on_c, 0, 67, 0
2, 46710, Note_on_c, 0, 70, 103
2, 46736, Note_on_c, 0, 70, 0
2, 46740, Note_on_c, 0, 72, 103
2, 46770, Note_on_c, 0, 67, 103
2, 46796, Note_on_c, 0, 67, 0
2, 46800, Note_on_c, 0, 68, 104
2, 46905, Note_on_c, 0, 68, 0
2, 46920, Note_on_c, 0, 67, 102
2, 46972, Note_on_c, 0, 67, 0
2, 46972, Note_on_c, 0, 72, 0
2, 46980, Note_on_c, 0, 65, 116
2, 46980, Note_on_c, 0, 71, 116
2, 47041, Note_on_c, 0, 71, 0
2, 47041, Note_on_c, 0, 65, 0
2, 47070, Note_on_c, 0, 74, 104
2, 47096, Note_on_c, 0, 74, 0
2, 47100, Note_on_c, 0, 75, 104
2, 47130, Note_on_c, 0, 71, 102
2, 47156, Note_on_c, 0, 71, 0
2, 47160, Note_on_c, 0, 72, 102
2, 47332, Note_on_c, 0, 72, 0
2, 47332, Note_on_c, 0, 75, 0
2, 47340, Note_on_c, 0, 72, 112
2, 47340, Note_on_c, 0, 74, 112
2, 47401, Note_on_c, 0, 72, 0
2, 47402, Note_on_c, 0, 74, 0
2, 47430, Note_on_c, 0, 72, 105
2, 47456, Note_on_c, 0, 72, 0
2, 47460, Note_on_c, 0, 74, 106
2, 47490, Note_on_c, 0, 69, 104
2, 47516, Note_on_c, 0, 69, 0
2, 47520, Note_on_c, 0, 71, 102
2, 47692, Note_on_c, 0, 71, 0
2, 47692, Note_on_c, 0, 74, 0
2, 47700, Note_on_c, 0, 71, 113
2, 47700, Note_on_c, 0, 77, 113
2, 47761, Note_on_c, 0, 77, 0
2, 47761, Note_on_c, 0, 71, 0
2, 47790, Note_on_c, 0, 78, 105
2, 47816, Note_on_c, 0, 78, 0
2, 47820, Note_on_c, 0, 79, 105
2, 47850, Note_on_c, 0, 74, 108
2, 47876, Note_on_c, 0, 74, 0
2, 47880, Note_on_c, 0, 75, 104
2, 47985, Note_on_c, 0, 75, 0
2, 48000, Note_on_c, 0, 74, 90
2, 48052, Note_on_c, 0, 74, 0
2, 48052, Note_on_c, 0, 79, 0
2, 48060, Note_on_c, 0, 74, 110
2, 48060, Note_on_c, 0, 77, 110
2, 48121, Note_on_c, 0, 77, 0
2, 48121, Note_on_c, 0, 74, 0
2, 48150, Note_on_c, 0, 77, 104
2, 48176, Note_on_c, 0, 77, 0
2, 48180, Note_on_c, 0, 79, 101
2, 48210, Note_on_c, 0, 74, 105
2, 48236, Note_on_c, 0, 74, 0
2, 48240, Note_on_c, 0, 75, 102
2, 48412, Note_on_c, 0, 75, 0
2, 48412, Note_on_c, 0, 79, 0
2, 48420, Note_on_c, 0, 74, 113
2, 48420, Note_on_c, 0, 77, 113
2, 48480, Note_on_c, 0, 74, 0
2, 48481, Note_on_c, 0, 77, 0
2, 48510, Note_on_c, 0, 77, 103
2, 48536, Note_on_c, 0, 77, 0
2, 48540, Note_on_c, 0, 79, 100
2, 48570, Note_on_c, 0, 74, 99
2, 48596, Note_on_c, 0, 74, 0
2, 48600, Note_on_c, 0, 75, 100
2, 48705, Note_on_c, 0, 75, 0
2, 48720, Note_on_c, 0, 74, 90
2, 48772, Note_on_c, 0, 74, 0
2, 48772, Note_on_c, 0, 79, 0
2, 48780, Note_on_c, 0, 74, 115
2, 48780, Note_on_c, 0, 77, 115
2, 48840, Note_on_c, 0, 74, 0
2, 48842, Note_on_c, 0, 77, 0
2, 48870, Note_on_c, 0, 77, 103
2, 48896, Note_on_c, 0, 77, 0
2, 48900, Note_on_c, 0, 79, 103
2, 48930, Note_on_c, 0, 74, 102
2, 48956, Note_on_c, 0, 74, 0
2, 48960, Note_on_c, 0, 75, 102
2, 49090, Program_c, 0, 10
2, 49097, Note_on_c, 0, 79, 0
2, 49099, Note_on_c, 0, 77, 90
2, 49117, Note_on_c, 0, 77, 0
2, 49117, Note_on_c, 0, 75, 0
2, 49119, Note_on_c, 0, 75, 90
2, 49137, Note_on_c, 0, 75, 0
2, 49140, Note_on_c, 0, 75, 90
2, 49157, Note_on_c, 0, 75, 0
2, 49159, Note_on_c, 0, 74, 90
2, 49177, Note_on_c, 0, 74, 0
2, 49179, Note_on_c, 0, 72, 90
2, 49197, Note_on_c, 0, 72, 0
2, 49200, Note_on_c, 0, 72, 90
2, 49217, Note_on_c, 0, 72, 0
2, 49219, Note_on_c, 0, 71, 90
2, 49237, Note_on_c, 0, 71, 0
2, 49239, Note_on_c, 0, 69, 90
2, 49257, Note_on_c, 0, 69, 0
2, 49260, Note_on_c, 0, 69, 90
2, 49277, Note_on_c, 0, 69, 0
2, 49279, Note_on_c, 0, 71, 90
2, 49297, Note_on_c, 0, 71, 0
2, 49299, Note_on_c, 0, 72, 90
2, 49317, Note_on_c, 0, 72, 0
2, 49320, Note_on_c, 0, 71, 90
2, 49337, Note_on_c, 0, 71, 0
2, 49339, Note_on_c, 0, 72, 90
2, 49357, Note_on_c, 0, 72, 0
2, 49359, Note_on_c, 0, 74, 90
2, 49377, Note_on_c, 0, 74, 0
2, 49380, Note_on_c, 0, 74, 90
2, 49397, Note_on_c, 0, 74, 0
2, 49399, Note_on_c, 0, 75, 90
2, 49417, Note_on_c, 0, 75, 0
2, 49419, Note_on_c, 0, 77, 90
2, 49437, Note_on_c, 0, 77, 0
2, 49440, Note_on_c, 0, 75, 90
2, 49457, Note_on_c, 0, 75, 0
2, 49459, Note_on_c, 0, 77, 90
2, 49477, Note_on_c, 0, 77, 0
2, 49479, Note_on_c, 0, 79, 90
2, 49497, Note_on_c, 0, 79, 0
2, 49500, Note_on_c, 0, 79, 90
2, 49517, Note_on_c, 0, 79, 0
2, 49519, Note_on_c, 0, 80, 90
2, 49537, Note_on_c, 0, 80, 0
2, 49539, Note_on_c, 0, 82, 90
2, 49557, Note_on_c, 0, 82, 0
2, 49560, Note_on_c, 0, 80, 90
2, 49577, Note_on_c, 0, 80, 0
2, 49579, Note_on_c, 0, 79, 90
2, 49597, Note_on_c, 0, 79, 0
2, 49599, Note_on_c, 0, 77, 90
2, 49617, Note_on_c, 0, 77, 0
2, 49620, Note_on_c, 0, 77, 90
2, 49637, Note_on_c, 0, 77, 0
2, 49639, Note_on_c, 0, 75, 90
2, 49657, Note_on_c, 0, 75, 0
2, 49659, Note_on_c, 0, 74, 90
2, 49677, Note_on_c, 0, 74, 0
2, 49680, Note_on_c, 0, 74, 90
2, 49697, Note_on_c, 0, 74, 0
2, 49699, Note_on_c, 0, 75, 90
2, 49717, Note_on_c, 0, 75, 0
2, 49719, Note_on_c, 0, 77, 90
2, 49737, Note_on_c, 0, 77, 0
2, 49740, Note_on_c, 0, 77, 90
2, 49757, Note_on_c, 0, 77, 0
2, 49759, Note_on_c, 0, 79, 90
2, 49777, Note_on_c, 0, 79, 0
2, 49779, Note_on_c, 0, 80, 90
2, 49797, Note_on_c, 0, 80, 0
2, 49800, Note_on_c, 0, 71, 90
2, 49806, Note_on_c, 0, 71, 0
2, 49807, Note_on_c, 0, 72, 90
2, 49814, Note_on_c, 0, 72, 0
2, 49815, Note_on_c, 0, 71, 90
2, 49821, Note_on_c, 0, 71, 0
2, 49822, Note_on_c, 0, 72, 90
2, 49829, Note_on_c, 0, 72, 0
2, 49830, Note_on_c, 0, 71, 90
2, 49836, Note_on_c, 0, 71, 0
2, 49837, Note_on_c, 0, 72, 90
2, 49844, Note_on_c, 0, 72, 0
2, 49845, Note_on_c, 0, 71, 90
2, 49851, Note_on_c, 0, 71, 0
2, 49852, Note_on_c, 0, 72, 90
2, 49859, Note_on_c, 0, 72, 0
2, 49860, Note_on_c, 0, 71, 90
2, 49866, Note_on_c, 0, 71, 0
2, 49867, Note_on_c, 0, 72, 90
2, 49874, Note_on_c, 0, 72, 0
2, 49875, Note_on_c, 0, 71, 90
2, 49881, Note_on_c, 0, 71, 0
2, 49882, Note_on_c, 0, 72, 90
2, 49889, Note_on_c, 0, 72, 0
2, 49890, Note_on_c, 0, 71, 90
2, 49916, Note_on_c, 0, 71, 0
2, 49920, Note_on_c, 0, 84, 90
2, 49937, Note_on_c, 0, 84, 0
2, 49939, Note_on_c, 0, 82, 90
2, 49957, Note_on_c, 0, 82, 0
2, 49959, Note_on_c, 0, 80, 90
2, 49977, Note_on_c, 0, 80, 0
2, 49980, Note_on_c, 0, 80, 90
2, 49997, Note_on_c, 0, 80, 0
2, 49999, Note_on_c, 0, 79, 90
2, 50017, Note_on_c, 0, 79, 0
2, 50019, Note_on_c, 0, 77, 90
2, 50037, Note_on_c, 0, 77, 0
2, 50040, Note_on_c, 0, 77, 90
2, 50057, Note_on_c, 0, 77, 0
2, 50059, Note_on_c, 0, 75, 90
2, 50077, Note_on_c, 0, 75, 0
2, 50079, Note_on_c, 0, 74, 90
2, 50097, Note_on_c, 0, 74, 0
2, 50100, Note_on_c, 0, 74, 90
2, 50117, Note_on_c, 0, 74, 0
2, 50119, Note_on_c, 0, 75, 90
2, 50137, Note_on_c, 0, 75, 0
2, 50139, Note_on_c, 0, 77, 90
2, 50157, Note_on_c, 0, 77, 0
2, 50160, Note_on_c, 0, 77, 90
2, 50177, Note_on_c, 0, 77, 0
2, 50179, Note_on_c, 0, 79, 90
2, 50197, Note_on_c, 0, 79, 0
2, 50199, Note_on_c, 0, 81, 90
2, 50217, Note_on_c, 0, 81, 0
2, 50220, Note_on_c, 0, 81, 90
2, 50237, Note_on_c, 0, 81, 0
2, 50239, Note_on_c, 0, 83, 90
2, 50257, Note_on_c, 0, 83, 0
2, 50259, Note_on_c, 0, 84, 90
2, 50277, Note_on_c, 0, 84, 0
2, 50280, Note_on_c, 0, 83, 90
2, 50358, Note_on_c, 0, 83, 0
2, 50370, Note_on_c, 0, 81, 90
2, 50396, Note_on_c, 0, 81, 0
2, 50400, Note_on_c, 0, 83, 90
2, 50452, Note_on_c, 0, 83, 0
2, 51060, Note_on_c, 0, 79, 90
2, 51077, Note_on_c, 0, 79, 0
2, 51079, Note_on_c, 0, 77, 90
2, 51097, Note_on_c, 0, 77, 0
2, 51099, Note_on_c, 0, 75, 90
2, 51117, Note_on_c, 0, 75, 0
2, 51120, Note_on_c, 0, 75, 90
2, 51137, Note_on_c, 0, 75, 0
2, 51139, Note_on_c, 0, 74, 90
2, 51157, Note_on_c, 0, 74, 0
2, 51159, Note_on_c, 0, 72, 90
2, 51177, Note_on_c, 0, 72, 0
2, 51180, Note_on_c, 0, 84, 90
2, 51197, Note_on_c, 0, 84, 0
2, 51199, Note_on_c, 0, 82, 90
2, 51217, Note_on_c, 0, 82, 0
2, 51219, Note_on_c, 0, 80, 90
2, 51237, Note_on_c, 0, 80, 0
2, 51240, Note_on_c, 0, 80, 90
2, 51257, Note_on_c, 0, 80, 0
2, 51259, Note_on_c, 0, 79, 90
2, 51277, Note_on_c, 0, 79, 0
2, 51279, Note_on_c, 0, 77, 90
2, 51297, Note_on_c, 0, 77, 0
2, 51300, Note_on_c, 0, 77, 90
2, 51317, Note_on_c, 0, 77, 0
2, 51319, Note_on_c, 0, 75, 90
2, 51337, Note_on_c, 0, 75, 0
2, 51339, Note_on_c, 0, 74, 90
2, 51357, Note_on_c, 0, 74, 0
2, 51360, Note_on_c, 0, 74, 90
2, 51377, Note_on_c, 0, 74, 0
2, 51379, Note_on_c, 0, 72, 90
2, 51397, Note_on_c, 0, 72, 0
2, 51399, Note_on_c, 0, 71, 90
2, 51417, Note_on_c, 0, 71, 0
2, 51420, Note_on_c, 0, 71, 90
2, 51437, Note_on_c, 0, 71, 0
2, 51439, Note_on_c, 0, 72, 90
2, 51457, Note_on_c, 0, 72, 0
2, 51459, Note_on_c, 0, 74, 90
2, 51477, Note_on_c, 0, 74, 0
2, 51480, Note_on_c, 0, 74, 90
2, 51497, Note_on_c, 0, 74, 0
2, 51499, Note_on_c, 0, 75, 90
2, 51517, Note_on_c, 0, 75, 0
2, 51519, Note_on_c, 0, 77, 90
2, 51537, Note_on_c, 0, 77, 0
2, 51540, Note_on_c, 0, 77, 90
2, 51557, Note_on_c, 0, 77, 0
2, 51559, Note_on_c, 0, 79, 90
2, 51577, Note_on_c, 0, 79, 0
2, 51579, Note_on_c, 0, 80, 90
2, 51597, Note_on_c, 0, 80, 0
2, 51600, Note_on_c, 0, 71, 90
2, 51606, Note_on_c, 0, 71, 0
2, 51607, Note_on_c, 0, 72, 90
2, 51614, Note_on_c, 0, 72, 0
2, 51615, Note_on_c, 0, 71, 90
2, 51621, Note_on_c, 0, 71, 0
2, 51622, Note_on_c, 0, 72, 90
2, 51629, Note_on_c, 0, 72, 0
2, 51630, Note_on_c, 0, 71, 90
2, 51636, Note_on_c, 0, 71, 0
2, 51637, Note_on_c, 0, 72, 90
2, 51644, Note_on_c, 0, 72, 0
2, 51645, Note_on_c, 0, 71, 90
2, 51651, Note_on_c, 0, 71, 0
2, 51652, Note_on_c, 0, 72, 90
2, 51659, Note_on_c, 0, 72, 0
2, 51660, Note_on_c, 0, 71, 90
2, 51686, Note_on_c, 0, 71, 0
2, 51690, Note_on_c, 0, 72, 90
2, 51716, Note_on_c, 0, 72, 0
2, 51720, Note_on_c, 0, 72, 90
2, 51772, Note_on_c, 0, 72, 0
2, 51780, Note_on_c, 0, 67, 90
2, 51797, Note_on_c, 0, 67, 0
2, 51799, Note_on_c, 0, 65, 90
2, 51817, Note_on_c, 0, 65, 0
2, 51819, Note_on_c, 0, 63, 90
2, 51837, Note_on_c, 0, 63, 0
2, 51840, Note_on_c, 0, 63, 90
2, 51857, Note_on_c, 0, 63, 0
2, 51859, Note_on_c, 0, 62, 90
2, 51877, Note_on_c, 0, 62, 0
2, 51879, Note_on_c, 0, 60, 90
2, 51897, Note_on_c, 0, 60, 0
2, 51900, Note_on_c, 0, 60, 90
2, 51930, Program_c, 0, 48
2, 51952, Note_on_c, 0, 60, 0
2, 51960, Note_on_c, 0, 67, 90
2, 51960, Note_on_c, 0, 72, 90
2, 52132, Note_on_c, 0, 72, 0
2, 52140, Note_on_c, 0, 71, 90
2, 52166, Note_on_c, 0, 71, 0
2, 52170, Note_on_c, 0, 69, 90
2, 52196, Note_on_c, 0, 69, 0
2, 52200, Note_on_c, 0, 71, 90
2, 52252, Note_on_c, 0, 71, 0
2, 52260, Note_on_c, 0, 72, 90
2, 52286, Note_on_c, 0, 72, 0
2, 52290, Note_on_c, 0, 74, 90
2, 52316, Note_on_c, 0, 74, 0
2, 52316, Note_on_c, 0, 67, 0
2, 52320, Note_on_c, 0, 75, 90
2, 52380, Note_on_c, 0, 72, 90
2, 52432, Note_on_c, 0, 72, 0
2, 52440, Note_on_c, 0, 70, 90
2, 52466, Note_on_c, 0, 70, 0
2, 52470, Note_on_c, 0, 68, 90
2, 52496, Note_on_c, 0, 75, 0
2, 52500, Note_on_c, 0, 74, 90
2, 52526, Note_on_c, 0, 74, 0
2, 52530, Note_on_c, 0, 72, 90
2, 52556, Note_on_c, 0, 72, 0
2, 52560, Note_on_c, 0, 74, 90
2, 52612, Note_on_c, 0, 74, 0
2, 52620, Note_on_c, 0, 75, 90
2, 52646, Note_on_c, 0, 75, 0
2, 52650, Note_on_c, 0, 77, 90
2, 52676, Note_on_c, 0, 77, 0
2, 52676, Note_on_c, 0, 68, 0
2, 52680, Note_on_c, 0, 71, 90
2, 52852, Note_on_c, 0, 71, 0
2, 52860, Note_on_c, 0, 72, 90
2, 52886, Note_on_c, 0, 72, 0
2, 52890, Note_on_c, 0, 71, 90
2, 52916, Note_on_c, 0, 71, 0
2, 52920, Note_on_c, 0, 72, 90
2, 52972, Note_on_c, 0, 72, 0
2, 52980, Note_on_c, 0, 74, 90
2, 53006, Note_on_c, 0, 74, 0
2, 53010, Note_on_c, 0, 75, 90
2, 53036, Note_on_c, 0, 75, 0
2, 53040, Note_on_c, 0, 77, 90
2, 53212, Note_on_c, 0, 77, 0
2, 53220, Note_on_c, 0, 75, 90
2, 53246, Note_on_c, 0, 75, 0
2, 53250, Note_on_c, 0, 74, 90
2, 53276, Note_on_c, 0, 74, 0
2, 53280, Note_on_c, 0, 75, 90
2, 53332, Note_on_c, 0, 75, 0
2, 53340, Note_on_c, 0, 77, 90
2, 53366, Note_on_c, 0, 77, 0
2, 53370, Note_on_c, 0, 79, 90
2, 53396, Note_on_c, 0, 79, 0
2, 53400, Note_on_c, 0, 74, 90
2, 53572, Note_on_c, 0, 74, 0
2, 53580, Note_on_c, 0, 72, 90
2, 53606, Note_on_c, 0, 72, 0
2, 53610, Note_on_c, 0, 71, 90
2, 53636, Note_on_c, 0, 71, 0
2, 53640, Note_on_c, 0, 72, 90
2, 53692, Note_on_c, 0, 72, 0
2, 53700, Note_on_c, 0, 74, 90
2, 53726, Note_on_c, 0, 74, 0
2, 53730, Note_on_c, 0, 75, 90
2, 53756, Note_on_c, 0, 75, 0
2, 53760, Note_on_c, 0, 77, 90
2, 53932, Note_on_c, 0, 77, 0
2, 53940, Note_on_c, 0, 75, 90
2, 53966, Note_on_c, 0, 75, 0
2, 53970, Note_on_c, 0, 74, 90
2, 53996, Note_on_c, 0, 74, 0
2, 54000, Note_on_c, 0, 75, 90
2, 54052, Note_on_c, 0, 75, 0
2, 54060, Note_on_c, 0, 77, 90
2, 54086, Note_on_c, 0, 77, 0
2, 54090, Note_on_c, 0, 79, 90
2, 54116, Note_on_c, 0, 79, 0
2, 54120, Note_on_c, 0, 80, 90
2, 54292, Note_on_c, 0, 80, 0
2, 54300, Note_on_c, 0, 79, 90
2, 54326, Note_on_c, 0, 79, 0
2, 54330, Note_on_c, 0, 77, 90
2, 54356, Note_on_c, 0, 77, 0
2, 54360, Note_on_c, 0, 79, 90
2, 54412, Note_on_c, 0, 79, 0
2, 54420, Note_on_c, 0, 77, 90
2, 54446, Note_on_c, 0, 77, 0
2, 54450, Note_on_c, 0, 75, 90
2, 54476, Note_on_c, 0, 75, 0
2, 54480, Note_on_c, 0, 75, 90
2, 54532, Note_on_c, 0, 75, 0
2, 54540, Note_on_c, 0, 74, 90
2, 54566, Note_on_c, 0, 74, 0
2, 54570, Note_on_c, 0, 72, 90
2, 54596, Note_on_c, 0, 72, 0
2, 54600, Note_on_c, 0, 72, 90
2, 54772, Note_on_c, 0, 72, 0
2, 54780, Note_on_c, 0, 84, 90
2, 54806, Note_on_c, 0, 84, 0
2, 54810, Note_on_c, 0, 83, 90
2, 54836, Note_on_c, 0, 83, 0
2, 54840, Note_on_c, 0, 84, 90
2, 54892, Note_on_c, 0, 84, 0
2, 54900, Note_on_c, 0, 72, 102
2, 55106, Note_on_c, 0, 72, 0
2, 55110, Note_on_c, 0, 74, 104
2, 55136, Note_on_c, 0, 74, 0
2, 55140, Note_on_c, 0, 72, 103
2, 55166, Note_on_c, 0, 72, 0
2, 55170, Note_on_c, 0, 71, 104
2, 55196, Note_on_c, 0, 71, 0
2, 55200, Note_on_c, 0, 72, 103
2, 55346, Note_on_c, 0, 72, 0
2, 55350, Note_on_c, 0, 74, 104
2, 55376, Note_on_c, 0, 74, 0
2, 55380, Note_on_c, 0, 72, 105
2, 55406, Note_on_c, 0, 72, 0
2, 55410, Note_on_c, 0, 71, 105
2, 55436, Note_on_c, 0, 71, 0
2, 55440, Note_on_c, 0, 72, 105
2, 55586, Note_on_c, 0, 72, 0
2, 55590, Note_on_c, 0, 74, 105
2, 55616, Note_on_c, 0, 74, 0
2, 55620, Note_on_c, 0, 72, 105
2, 55646, Note_on_c, 0, 72, 0
2, 55650, Note_on_c, 0, 71, 104
2, 55676, Note_on_c, 0, 71, 0
2, 55680, Note_on_c, 0, 72, 105
2, 55826, Note_on_c, 0, 72, 0
2, 55830, Note_on_c, 0, 74, 103
2, 55856, Note_on_c, 0, 74, 0
2, 55860, Note_on_c, 0, 72, 103
2, 55886, Note_on_c, 0, 72, 0
2, 55890, Note_on_c, 0, 71, 103
2, 55916, Note_on_c, 0, 71, 0
2, 55920, Note_on_c, 0, 72, 103
2, 56066, Note_on_c, 0, 72, 0
2, 56070, Note_on_c, 0, 74, 103
2, 56096, Note_on_c, 0, 74, 0
2, 56100, Note_on_c, 0, 72, 103
2, 56126, Note_on_c, 0, 72, 0
2, 56130, Note_on_c, 0, 71, 102
2, 56156, Note_on_c, 0, 71, 0
2, 56160, Note_on_c, 0, 72, 102
2, 56212, Note_on_c, 0, 72, 0
2, 56220, Note_on_c, 0, 71, 103
2, 56246, Note_on_c, 0, 71, 0
2, 56250, Note_on_c, 0, 69, 103
2, 56276, Note_on_c, 0, 69, 0
2, 56280, Note_on_c, 0, 71, 103
2, 56426, Note_on_c, 0, 71, 0
2, 56430, Note_on_c, 0, 74, 105
2, 56456, Note_on_c, 0, 74, 0
2, 56460, Note_on_c, 0, 72, 105
2, 56486, Note_on_c, 0, 72, 0
2, 56490, Note_on_c, 0, 71, 105
2, 56516, Note_on_c, 0, 71, 0
2, 56520, Note_on_c, 0, 72, 104
2, 56598, Note_on_c, 0, 72, 0
2, 56610, Note_on_c, 0, 75, 105
2, 56636, Note_on_c, 0, 75, 0
2, 56640, Note_on_c, 0, 74, 104
2, 56666, Note_on_c, 0, 74, 0
2, 56670, Note_on_c, 0, 77, 103
2, 56696, Note_on_c, 0, 77, 0
2, 56700, Note_on_c, 0, 75, 103
2, 56726, Note_on_c, 0, 75, 0
2, 56730, Note_on_c, 0, 74, 102
2, 56756, Note_on_c, 0, 74, 0
2, 56760, Note_on_c, 0, 75, 102
2, 56906, Note_on_c, 0, 75, 0
2, 56910, Note_on_c, 0, 79, 105
2, 56936, Note_on_c, 0, 79, 0
2, 56940, Note_on_c, 0, 77, 104
2, 56966, Note_on_c, 0, 77, 0
2, 56970, Note_on_c, 0, 75, 105
2, 56996, Note_on_c, 0, 75, 0
2, 57000, Note_on_c, 0, 80, 105
2, 57105, Note_on_c, 0, 80, 0
2, 57120, Note_on_c, 0, 74, 103
2, 57266, Note_on_c, 0, 74, 0
2, 57270, Note_on_c, 0, 75, 105
2, 57296, Note_on_c, 0, 75, 0
2, 57300, Note_on_c, 0, 74, 104
2, 57326, Note_on_c, 0, 74, 0
2, 57330, Note_on_c, 0, 72, 104
2, 57386, Note_on_c, 0, 72, 0
2, 57390, Note_on_c, 0, 74, 104
2, 57416, Note_on_c, 0, 74, 0
2, 57420, Note_on_c, 0, 72, 104
2, 57446, Note_on_c, 0, 72, 0
2, 57450, Note_on_c, 0, 71, 104
2, 57476, Note_on_c, 0, 71, 0
2, 57480, Note_on_c, 0, 72, 104
2, 57585, Note_on_c, 0, 72, 0
2, 57780, Note_on_c, 0, 75, 104
2, 57866, Note_on_c, 0, 75, 0
2, 57870, Note_on_c, 0, 77, 104
2, 57896, Note_on_c, 0, 77, 0
2, 57900, Note_on_c, 0, 75, 104
2, 57926, Note_on_c, 0, 75, 0
2, 57930, Note_on_c, 0, 74, 106
2, 57956, Note_on_c, 0, 74, 0
2, 57960, Note_on_c, 0, 75, 106
2, 58106, Note_on_c, 0, 75, 0
2, 58110, Note_on_c, 0, 77, 104
2, 58136, Note_on_c, 0, 77, 0
2, 58140, Note_on_c, 0, 75, 104
2, 58166, Note_on_c, 0, 75, 0
2, 58170, Note_on_c, 0, 74, 102
2, 58196, Note_on_c, 0, 74, 0
2, 58200, Note_on_c, 0, 75, 105
2, 58346, Note_on_c, 0, 75, 0
2, 58350, Note_on_c, 0, 77, 101
2, 58376, Note_on_c, 0, 77, 0
2, 58380, Note_on_c, 0, 75, 100
2, 58406, Note_on_c, 0, 75, 0
2, 58410, Note_on_c, 0, 74, 100
2, 58436, Note_on_c, 0, 74, 0
2, 58440, Note_on_c, 0, 75, 101
2, 58586, Note_on_c, 0, 75, 0
2, 58590, Note_on_c, 0, 77, 101
2, 58616, Note_on_c, 0, 77, 0
2, 58620, Note_on_c, 0, 75, 102
2, 58646, Note_on_c, 0, 75, 0
2, 58650, Note_on_c, 0, 74, 102
2, 58676, Note_on_c, 0, 74, 0
2, 58680, Note_on_c, 0, 75, 102
2, 58826, Note_on_c, 0, 75, 0
2, 58830, Note_on_c, 0, 77, 104
2, 58856, Note_on_c, 0, 77, 0
2, 58860, Note_on_c, 0, 75, 102
2, 58886, Note_on_c, 0, 75, 0
2, 58890, Note_on_c, 0, 74, 100
2, 58916, Note_on_c, 0, 74, 0
2, 58920, Note_on_c, 0, 75, 100
2, 59066, Note_on_c, 0, 75, 0
2, 59070, Note_on_c, 0, 79, 102
2, 59096, Note_on_c, 0, 79, 0
2, 59100, Note_on_c, 0, 77, 102
2, 59126, Note_on_c, 0, 77, 0
2, 59130, Note_on_c, 0, 75, 101
2, 59156, Note_on_c, 0, 75, 0
2, 59160, Note_on_c, 0, 74, 100
2, 59212, Note_on_c, 0, 74, 0
2, 59220, Note_on_c, 0, 80, 101
2, 59272, Note_on_c, 0, 80, 0
2, 59280, Note_on_c, 0, 79, 101
2, 59426, Note_on_c, 0, 79, 0
2, 59430, Note_on_c, 0, 80, 103
2, 59456, Note_on_c, 0, 80, 0
2, 59460, Note_on_c, 0, 79, 102
2, 59486, Note_on_c, 0, 79, 0
2, 59490, Note_on_c, 0, 77, 103
2, 59516, Note_on_c, 0, 77, 0
2, 59520, Note_on_c, 0, 79, 103
2, 59666, Note_on_c, 0, 79, 0
2, 59670, Note_on_c, 0, 80, 102
2, 59696, Note_on_c, 0, 80, 0
2, 59700, Note_on_c, 0, 79, 103
2, 59726, Note_on_c, 0, 79, 0
2, 59730, Note_on_c, 0, 77, 101
2, 59756, Note_on_c, 0, 77, 0
2, 59760, Note_on_c, 0, 75, 103
2, 59906, Note_on_c, 0, 75, 0
2, 59910, Note_on_c, 0, 77, 102
2, 59936, Note_on_c, 0, 77, 0
2, 59940, Note_on_c, 0, 75, 101
2, 59966, Note_on_c, 0, 75, 0
2, 59970, Note_on_c, 0, 74, 101
2, 59996, Note_on_c, 0, 74, 0
2, 60000, Note_on_c, 0, 75, 102
2, 60146, Note_on_c, 0, 75, 0
2, 60150, Note_on_c, 0, 77, 99
2, 60176, Note_on_c, 0, 77, 0
2, 60180, Note_on_c, 0, 75, 102
2, 60206, Note_on_c, 0, 75, 0
2, 60210, Note_on_c, 0, 74, 101
2, 60236, Note_on_c, 0, 74, 0
2, 60240, Note_on_c, 0, 75, 101
2, 60266, Note_on_c, 0, 75, 0
2, 60270, Note_on_c, 0, 77, 100
2, 60296, Note_on_c, 0, 77, 0
2, 60300, Note_on_c, 0, 75, 100
2, 60326, Note_on_c, 0, 75, 0
2, 60330, Note_on_c, 0, 74, 100
2, 60356, Note_on_c, 0, 74, 0
2, 60360, Note_on_c, 0, 72, 102
2, 60386, Note_on_c, 0, 72, 0
2, 60390, Note_on_c, 0, 74, 102
2, 60416, Note_on_c, 0, 74, 0
2, 60420, Note_on_c, 0, 72, 102
2, 60446, Note_on_c, 0, 72, 0
2, 60450, Note_on_c, 0, 71, 103
2, 60476, Note_on_c, 0, 71, 0
2, 60480, Note_on_c, 0, 72, 102
2, 60506, Note_on_c, 0, 72, 0
2, 60510, Note_on_c, 0, 71, 102
2, 60536, Note_on_c, 0, 71, 0
2, 60540, Note_on_c, 0, 72, 102
2, 60566, Note_on_c, 0, 72, 0
2, 60570, Note_on_c, 0, 71, 102
2, 60570, Note_on_c, 0, 74, 102
2, 60596, Note_on_c, 0, 74, 0
2, 60596, Note_on_c, 0, 71, 0
2, 60600, Note_on_c, 0, 72, 102
2, 60600, Note_on_c, 0, 75, 102
2, 60705, Note_on_c, 0, 75, 0
2, 60705, Note_on_c, 0, 72, 0
2, 62326, Control_c, 0, 7, 119
2, 62400, Note_on_c, 0, 67, 90
2, 62505, Note_on_c, 0, 67, 0
2, 62520, Note_on_c, 0, 74, 90
2, 62745, Note_on_c, 0, 74, 0
2, 62760, Note_on_c, 0, 70, 90
2, 62865, Note_on_c, 0, 70, 0
2, 62880, Note_on_c, 0, 72, 90
2, 63105, Note_on_c, 0, 72, 0
2, 63120, Note_on_c, 0, 74, 90
2, 63225, Note_on_c, 0, 74, 0
2, 63240, Note_on_c, 0, 75, 90
2, 63465, Note_on_c, 0, 75, 0
2, 63480, Note_on_c, 0, 72, 90
2, 63585, Note_on_c, 0, 72, 0
2, 63600, Note_on_c, 0, 74, 90
2, 63825, Note_on_c, 0, 74, 0
2, 63870, Note_on_c, 0, 79, 90
2, 63896, Note_on_c, 0, 79, 0
2, 63900, Note_on_c, 0, 77, 90
2, 63926, Note_on_c, 0, 77, 0
2, 63930, Note_on_c, 0, 79, 90
2, 63956, Note_on_c, 0, 79, 0
2, 63960, Note_on_c, 0, 75, 90
2, 64065, Note_on_c, 0, 75, 0
2, 64110, Note_on_c, 0, 74, 90
2, 64136, Note_on_c, 0, 74, 0
2, 64140, Note_on_c, 0, 72, 90
2, 64166, Note_on_c, 0, 72, 0
2, 64170, Note_on_c, 0, 74, 90
2, 64196, Note_on_c, 0, 74, 0
2, 64200, Note_on_c, 0, 71, 90
2, 64305, Note_on_c, 0, 71, 0
2, 64350, Note_on_c, 0, 72, 90
2, 64376, Note_on_c, 0, 72, 0
2, 64380, Note_on_c, 0, 70, 90
2, 64406, Note_on_c, 0, 70, 0
2, 64410, Note_on_c, 0, 72, 90
2, 64436, Note_on_c, 0, 72, 0
2, 64440, Note_on_c, 0, 68, 90
2, 64466, Note_on_c, 0, 68, 0
2, 64470, Note_on_c, 0, 72, 90
2, 64496, Note_on_c, 0, 72, 0
2, 64500, Note_on_c, 0, 70, 90
2, 64526, Note_on_c, 0, 70, 0
2, 64530, Note_on_c, 0, 72, 90
2, 64556, Note_on_c, 0, 72, 0
2, 64560, Note_on_c, 0, 65, 90
2, 64586, Note_on_c, 0, 65, 0
2, 64590, Note_on_c, 0, 77, 90
2, 64616, Note_on_c, 0, 77, 0
2, 64620, Note_on_c, 0, 75, 90
2, 64646, Note_on_c, 0, 75, 0
2, 64650, Note_on_c, 0, 77, 90
2, 64676, Note_on_c, 0, 77, 0
2, 64680, Note_on_c, 0, 71, 90
2, 64706, Note_on_c, 0, 71, 0
2, 64710, Note_on_c, 0, 74, 90
2, 64736, Note_on_c, 0, 74, 0
2, 64740, Note_on_c, 0, 72, 90
2, 64766, Note_on_c, 0, 72, 0
2, 64770, Note_on_c, 0, 74, 90
2, 64796, Note_on_c, 0, 74, 0
2, 64800, Note_on_c, 0, 67, 90
2, 64826, Note_on_c, 0, 67, 0
2, 64830, Note_on_c, 0, 79, 90
2, 64856, Note_on_c, 0, 79, 0
2, 64860, Note_on_c, 0, 77, 90
2, 64886, Note_on_c, 0, 77, 0
2, 64890, Note_on_c, 0, 79, 90
2, 64916, Note_on_c, 0, 79, 0
2, 64920, Note_on_c, 0, 75, 90
2, 65025, Note_on_c, 0, 75, 0
2, 65100, Note_on_c, 0, 75, 90
2, 65152, Note_on_c, 0, 75, 0
2, 65160, Note_on_c, 0, 71, 90
2, 65212, Note_on_c, 0, 71, 0
2, 65220, Note_on_c, 0, 71, 90
2, 65272, Note_on_c, 0, 71, 0
2, 65280, Note_on_c, 0, 72, 90
2, 65332, Note_on_c, 0, 72, 0
2, 65340, Note_on_c, 0, 72, 90
2, 65392, Note_on_c, 0, 72, 0
2, 65460, Note_on_c, 0, 80, 90
2, 65512, Note_on_c, 0, 80, 0
2, 65520, Note_on_c, 0, 74, 90
2, 65572, Note_on_c, 0, 74, 0
2, 65580, Note_on_c, 0, 74, 90
2, 65632, Note_on_c, 0, 74, 0
2, 65640, Note_on_c, 0, 76, 90
2, 65692, Note_on_c, 0, 76, 0
2, 65700, Note_on_c, 0, 76, 90
2, 65752, Note_on_c, 0, 76, 0
2, 65820, Note_on_c, 0, 77, 90
2, 65872, Note_on_c, 0, 77, 0
2, 65880, Note_on_c, 0, 72, 90
2, 65932, Note_on_c, 0, 72, 0
2, 65940, Note_on_c, 0, 72, 90
2, 65992, Note_on_c, 0, 72, 0
2, 66000, Note_on_c, 0, 74, 90
2, 66052, Note_on_c, 0, 74, 0
2, 66060, Note_on_c, 0, 74, 90
2, 66112, Note_on_c, 0, 74, 0
2, 66180, Note_on_c, 0, 75, 90
2, 66232, Note_on_c, 0, 75, 0
2, 66240, Note_on_c, 0, 71, 90
2, 66292, Note_on_c, 0, 71, 0
2, 66300, Note_on_c, 0, 71, 90
2, 66352, Note_on_c, 0, 71, 0
2, 66360, Note_on_c, 0, 79, 90
2, 66386, Note_on_c, 0, 79, 0
2, 66390, Note_on_c, 0, 80, 90
2, 66416, Note_on_c, 0, 80, 0
2, 66420, Note_on_c, 0, 77, 90
2, 66446, Note_on_c, 0, 77, 0
2, 66450, Note_on_c, 0, 79, 90
2, 66476, Note_on_c, 0, 79, 0
2, 66480, Note_on_c, 0, 75, 90
2, 66506, Note_on_c, 0, 75, 0
2, 66510, Note_on_c, 0, 77, 90
2, 66536, Note_on_c, 0, 77, 0
2, 66540, Note_on_c, 0, 74, 90
2, 66566, Note_on_c, 0, 74, 0
2, 66570, Note_on_c, 0, 75, 90
2, 66596, Note_on_c, 0, 75, 0
2, 66600, Note_on_c, 0, 72, 90
2, 66626, Note_on_c, 0, 72, 0
2, 66630, Note_on_c, 0, 74, 90
2, 66656, Note_on_c, 0, 74, 0
2, 66660, Note_on_c, 0, 70, 90
2, 66686, Note_on_c, 0, 70, 0
2, 66690, Note_on_c, 0, 72, 90
2, 66716, Note_on_c, 0, 72, 0
2, 66720, Note_on_c, 0, 69, 90
2, 66746, Note_on_c, 0, 69, 0
2, 66750, Note_on_c, 0, 70, 90
2, 66776, Note_on_c, 0, 70, 0
2, 66780, Note_on_c, 0, 67, 90
2, 66806, Note_on_c, 0, 67, 0
2, 66810, Note_on_c, 0, 69, 90
2, 66836, Note_on_c, 0, 69, 0
2, 66840, Note_on_c, 0, 66, 90
2, 66866, Note_on_c, 0, 66, 0
2, 66870, Note_on_c, 0, 69, 90
2, 66896, Note_on_c, 0, 69, 0
2, 66900, Note_on_c, 0, 67, 90
2, 66926, Note_on_c, 0, 67, 0
2, 66930, Note_on_c, 0, 70, 90
2, 66956, Note_on_c, 0, 70, 0
2, 66960, Note_on_c, 0, 69, 90
2, 66986, Note_on_c, 0, 69, 0
2, 66990, Note_on_c, 0, 74, 90
2, 67016, Note_on_c, 0, 74, 0
2, 67020, Note_on_c, 0, 72, 90
2, 67046, Note_on_c, 0, 72, 0
2, 67050, Note_on_c, 0, 74, 90
2, 67076, Note_on_c, 0, 74, 0
2, 67080, Note_on_c, 0, 67, 90
2, 67106, Note_on_c, 0, 67, 0
2, 67110, Note_on_c, 0, 79, 90
2, 67136, Note_on_c, 0, 79, 0
2, 67140, Note_on_c, 0, 77, 90
2, 67166, Note_on_c, 0, 77, 0
2, 67170, Note_on_c, 0, 79, 90
2, 67196, Note_on_c, 0, 79, 0
2, 67200, Note_on_c, 0, 75, 90
2, 67226, Note_on_c, 0, 75, 0
2, 67230, Note_on_c, 0, 79, 90
2, 67256, Note_on_c, 0, 79, 0
2, 67260, Note_on_c, 0, 75, 90
2, 67286, Note_on_c, 0, 75, 0
2, 67290, Note_on_c, 0, 79, 90
2, 67316, Note_on_c, 0, 79, 0
2, 67320, Note_on_c, 0, 75, 90
2, 67346, Note_on_c, 0, 75, 0
2, 67350, Note_on_c, 0, 77, 90
2, 67376, Note_on_c, 0, 77, 0
2, 67380, Note_on_c, 0, 75, 90
2, 67406, Note_on_c, 0, 75, 0
2, 67410, Note_on_c, 0, 77, 90
2, 67436, Note_on_c, 0, 77, 0
2, 67440, Note_on_c, 0, 74, 90
2, 67466, Note_on_c, 0, 74, 0
2, 67470, Note_on_c, 0, 77, 90
2, 67496, Note_on_c, 0, 77, 0
2, 67500, Note_on_c, 0, 74, 90
2, 67526, Note_on_c, 0, 74, 0
2, 67530, Note_on_c, 0, 77, 90
2, 67556, Note_on_c, 0, 77, 0
2, 67560, Note_on_c, 0, 72, 90
2, 67586, Note_on_c, 0, 72, 0
2, 67590, Note_on_c, 0, 75, 90
2, 67616, Note_on_c, 0, 75, 0
2, 67620, Note_on_c, 0, 74, 90
2, 67646, Note_on_c, 0, 74, 0
2, 67650, Note_on_c, 0, 77, 90
2, 67676, Note_on_c, 0, 77, 0
2, 67680, Note_on_c, 0, 75, 90
2, 67706, Note_on_c, 0, 75, 0
2, 67710, Note_on_c, 0, 77, 90
2, 67736, Note_on_c, 0, 77, 0
2, 67740, Note_on_c, 0, 75, 90
2, 67766, Note_on_c, 0, 75, 0
2, 67770, Note_on_c, 0, 77, 90
2, 67796, Note_on_c, 0, 77, 0
2, 67800, Note_on_c, 0, 75, 90
2, 67826, Note_on_c, 0, 75, 0
2, 67830, Note_on_c, 0, 77, 90
2, 67856, Note_on_c, 0, 77, 0
2, 67860, Note_on_c, 0, 75, 90
2, 67886, Note_on_c, 0, 75, 0
2, 67890, Note_on_c, 0, 77, 90
2, 67916, Note_on_c, 0, 77, 0
2, 67920, Note_on_c, 0, 74, 90
2, 67946, Note_on_c, 0, 74, 0
2, 67950, Note_on_c, 0, 75, 90
2, 67976, Note_on_c, 0, 75, 0
2, 67980, Note_on_c, 0, 74, 90
2, 68006, Note_on_c, 0, 74, 0
2, 68010, Note_on_c, 0, 75, 90
2, 68036, Note_on_c, 0, 75, 0
2, 68040, Note_on_c, 0, 74, 90
2, 68066, Note_on_c, 0, 74, 0
2, 68070, Note_on_c, 0, 75, 90
2, 68096, Note_on_c, 0, 75, 0
2, 68100, Note_on_c, 0, 72, 90
2, 68126, Note_on_c, 0, 72, 0
2, 68130, Note_on_c, 0, 74, 90
2, 68156, Note_on_c, 0, 74, 0
2, 68160, Note_on_c, 0, 70, 90
2, 68186, Note_on_c, 0, 70, 0
2, 68190, Note_on_c, 0, 74, 90
2, 68216, Note_on_c, 0, 74, 0
2, 68220, Note_on_c, 0, 72, 90
2, 68246, Note_on_c, 0, 72, 0
2, 68250, Note_on_c, 0, 75, 90
2, 68276, Note_on_c, 0, 75, 0
2, 68280, Note_on_c, 0, 74, 90
2, 68332, Note_on_c, 0, 74, 0
2, 68340, Note_on_c, 0, 67, 90
2, 68366, Note_on_c, 0, 67, 0
2, 68370, Note_on_c, 0, 70, 90
2, 68396, Note_on_c, 0, 70, 0
2, 68400, Note_on_c, 0, 69, 90
2, 68426, Note_on_c, 0, 69, 0
2, 68430, Note_on_c, 0, 72, 90
2, 68456, Note_on_c, 0, 72, 0
2, 68460, Note_on_c, 0, 70, 90
2, 68486, Note_on_c, 0, 70, 0
2, 68490, Note_on_c, 0, 72, 90
2, 68516, Note_on_c, 0, 72, 0
2, 68520, Note_on_c, 0, 69, 90
2, 68526, Note_on_c, 0, 69, 0
2, 68527, Note_on_c, 0, 70, 90
2, 68534, Note_on_c, 0, 70, 0
2, 68535, Note_on_c, 0, 69, 90
2, 68541, Note_on_c, 0, 69, 0
2, 68542, Note_on_c, 0, 70, 90
2, 68549, Note_on_c, 0, 70, 0
2, 68550, Note_on_c, 0, 69, 90
2, 68556, Note_on_c, 0, 69, 0
2, 68557, Note_on_c, 0, 70, 90
2, 68564, Note_on_c, 0, 70, 0
2, 68565, Note_on_c, 0, 69, 90
2, 68571, Note_on_c, 0, 69, 0
2, 68572, Note_on_c, 0, 70, 90
2, 68579, Note_on_c, 0, 70, 0
2, 68580, Note_on_c, 0, 69, 90
2, 68606, Note_on_c, 0, 69, 0
2, 68610, Note_on_c, 0, 67, 90
2, 68636, Note_on_c, 0, 67, 0
2, 68640, Note_on_c, 0, 67, 90
2, 68666, Note_on_c, 0, 67, 0
2, 68670, Note_on_c, 0, 71, 90
2, 68696, Note_on_c, 0, 71, 0
2, 68700, Note_on_c, 0, 69, 90
2, 68726, Note_on_c, 0, 69, 0
2, 68730, Note_on_c, 0, 72, 90
2, 68756, Note_on_c, 0, 72, 0
2, 68760, Note_on_c, 0, 71, 90
2, 68786, Note_on_c, 0, 71, 0
2, 68790, Note_on_c, 0, 79, 90
2, 68816, Note_on_c, 0, 79, 0
2, 68820, Note_on_c, 0, 77, 90
2, 68846, Note_on_c, 0, 77, 0
2, 68850, Note_on_c, 0, 79, 90
2, 68876, Note_on_c, 0, 79, 0
2, 68880, Note_on_c, 0, 75, 90
2, 68906, Note_on_c, 0, 75, 0
2, 68910, Note_on_c, 0, 79, 90
2, 68936, Note_on_c, 0, 79, 0
2, 68940, Note_on_c, 0, 77, 90
2, 68966, Note_on_c, 0, 77, 0
2, 68970, Note_on_c, 0, 80, 90
2, 68996, Note_on_c, 0, 80, 0
2, 69000, Note_on_c, 0, 71, 90
2, 69026, Note_on_c, 0, 71, 0
2, 69030, Note_on_c, 0, 74, 90
2, 69056, Note_on_c, 0, 74, 0
2, 69060, Note_on_c, 0, 72, 90
2, 69086, Note_on_c, 0, 72, 0
2, 69090, Note_on_c, 0, 75, 90
2, 69116, Note_on_c, 0, 75, 0
2, 69120, Note_on_c, 0, 74, 90
2, 69146, Note_on_c, 0, 74, 0
2, 69150, Note_on_c, 0, 75, 90
2, 69176, Note_on_c, 0, 75, 0
2, 69180, Note_on_c, 0, 74, 90
2, 69206, Note_on_c, 0, 74, 0
2, 69210, Note_on_c, 0, 75, 90
2, 69236, Note_on_c, 0, 75, 0
2, 69240, Note_on_c, 0, 72, 90
2, 69266, Note_on_c, 0, 72, 0
2, 69270, Note_on_c, 0, 75, 90
2, 69296, Note_on_c, 0, 75, 0
2, 69300, Note_on_c, 0, 74, 90
2, 69326, Note_on_c, 0, 74, 0
2, 69330, Note_on_c, 0, 75, 90
2, 69356, Note_on_c, 0, 75, 0
2, 69360, Note_on_c, 0, 72, 90
2, 69465, Note_on_c, 0, 72, 0
2, 69480, Note_on_c, 0, 70, 90
2, 69652, Note_on_c, 0, 70, 0
2, 69660, Note_on_c, 0, 70, 90
2, 69712, Note_on_c, 0, 70, 0
2, 69720, Note_on_c, 0, 68, 90
2, 69772, Note_on_c, 0, 68, 0
2, 69780, Note_on_c, 0, 72, 90
2, 69832, Note_on_c, 0, 72, 0
2, 69840, Note_on_c, 0, 77, 90
2, 69918, Note_on_c, 0, 77, 0
2, 69930, Note_on_c, 0, 75, 90
2, 69956, Note_on_c, 0, 75, 0
2, 69960, Note_on_c, 0, 74, 90
2, 70012, Note_on_c, 0, 74, 0
2, 70020, Note_on_c, 0, 72, 90
2, 70072, Note_on_c, 0, 72, 0
2, 70080, Note_on_c, 0, 70, 90
2, 70185, Note_on_c, 0, 70, 0
2, 70200, Note_on_c, 0, 75, 90
2, 70305, Note_on_c, 0, 75, 0
2, 70320, Note_on_c, 0, 77, 90
2, 70425, Note_on_c, 0, 77, 0
2, 70440, Note_on_c, 0, 79, 90
2, 70466, Note_on_c, 0, 79, 0
2, 70470, Note_on_c, 0, 80, 90
2, 70496, Note_on_c, 0, 80, 0
2, 70500, Note_on_c, 0, 82, 90
2, 70526, Note_on_c, 0, 82, 0
2, 70530, Note_on_c, 0, 75, 90
2, 70556, Note_on_c, 0, 75, 0
2, 70560, Note_on_c, 0, 75, 90
2, 70665, Note_on_c, 0, 75, 0
2, 70680, Note_on_c, 0, 74, 90
2, 70686, Note_on_c, 0, 74, 0
2, 70687, Note_on_c, 0, 75, 90
2, 70694, Note_on_c, 0, 75, 0
2, 70695, Note_on_c, 0, 74, 90
2, 70701, Note_on_c, 0, 74, 0
2, 70702, Note_on_c, 0, 75, 90
2, 70709, Note_on_c, 0, 75, 0
2, 70710, Note_on_c, 0, 74, 90
2, 70716, Note_on_c, 0, 74, 0
2, 70717, Note_on_c, 0, 75, 90
2, 70724, Note_on_c, 0, 75, 0
2, 70725, Note_on_c, 0, 74, 90
2, 70731, Note_on_c, 0, 74, 0
2, 70732, Note_on_c, 0, 75, 90
2, 70739, Note_on_c, 0, 75, 0
2, 70740, Note_on_c, 0, 74, 90
2, 70766, Note_on_c, 0, 74, 0
2, 70770, Note_on_c, 0, 75, 90
2, 70796, Note_on_c, 0, 75, 0
2, 70800, Note_on_c, 0, 75, 90
2, 70826, Note_on_c, 0, 75, 0
2, 70830, Note_on_c, 0, 82, 90
2, 70856, Note_on_c, 0, 82, 0
2, 70860, Note_on_c, 0, 80, 90
2, 70866, Control_c, 0, 7, 109
2, 70886, Note_on_c, 0, 80, 0
2, 70890, Note_on_c, 0, 82, 90
2, 70916, Note_on_c, 0, 82, 0
2, 70920, Note_on_c, 0, 79, 90
2, 70946, Note_on_c, 0, 79, 0
2, 70950, Note_on_c, 0, 80, 90
2, 70976, Note_on_c, 0, 80, 0
2, 70980, Note_on_c, 0, 77, 90
2, 71006, Note_on_c, 0, 77, 0
2, 71010, Note_on_c, 0, 79, 90
2, 71036, Note_on_c, 0, 79, 0
2, 71040, Note_on_c, 0, 75, 90
2, 71066, Note_on_c, 0, 75, 0
2, 71070, Note_on_c, 0, 79, 90
2, 71096, Note_on_c, 0, 79, 0
2, 71100, Note_on_c, 0, 77, 90
2, 71126, Note_on_c, 0, 77, 0
2, 71130, Note_on_c, 0, 75, 90
2, 71156, Note_on_c, 0, 75, 0
2, 71160, Note_on_c, 0, 74, 90
2, 71186, Note_on_c, 0, 74, 0
2, 71190, Note_on_c, 0, 77, 90
2, 71216, Note_on_c, 0, 77, 0
2, 71220, Note_on_c, 0, 75, 90
2, 71246, Note_on_c, 0, 75, 0
2, 71250, Note_on_c, 0, 79, 90
2, 71276, Note_on_c, 0, 79, 0
2, 71280, Note_on_c, 0, 77, 90
2, 71306, Note_on_c, 0, 77, 0
2, 71310, Note_on_c, 0, 80, 90
2, 71336, Note_on_c, 0, 80, 0
2, 71340, Note_on_c, 0, 79, 90
2, 71366, Note_on_c, 0, 79, 0
2, 71370, Note_on_c, 0, 77, 90
2, 71396, Note_on_c, 0, 77, 0
2, 71400, Note_on_c, 0, 82, 90
2, 71426, Note_on_c, 0, 82, 0
2, 71430, Note_on_c, 0, 75, 90
2, 71456, Note_on_c, 0, 75, 0
2, 71460, Note_on_c, 0, 74, 90
2, 71486, Note_on_c, 0, 74, 0
2, 71490, Note_on_c, 0, 75, 90
2, 71516, Note_on_c, 0, 75, 0
2, 71520, Note_on_c, 0, 72, 90
2, 71546, Note_on_c, 0, 72, 0
2, 71550, Note_on_c, 0, 75, 90
2, 71576, Note_on_c, 0, 75, 0
2, 71580, Note_on_c, 0, 72, 90
2, 71606, Note_on_c, 0, 72, 0
2, 71610, Note_on_c, 0, 75, 90
2, 71636, Note_on_c, 0, 75, 0
2, 71640, Note_on_c, 0, 72, 90
2, 71666, Note_on_c, 0, 72, 0
2, 71670, Note_on_c, 0, 73, 90
2, 71696, Note_on_c, 0, 73, 0
2, 71700, Note_on_c, 0, 72, 90
2, 71726, Note_on_c, 0, 72, 0
2, 71730, Note_on_c, 0, 73, 90
2, 71756, Note_on_c, 0, 73, 0
2, 71760, Note_on_c, 0, 70, 90
2, 71786, Note_on_c, 0, 70, 0
2, 71790, Note_on_c, 0, 73, 90
2, 71816, Note_on_c, 0, 73, 0
2, 71820, Note_on_c, 0, 70, 90
2, 71846, Note_on_c, 0, 70, 0
2, 71850, Note_on_c, 0, 73, 90
2, 71876, Note_on_c, 0, 73, 0
2, 71880, Note_on_c, 0, 68, 90
2, 71906, Note_on_c, 0, 68, 0
2, 71910, Note_on_c, 0, 72, 90
2, 71936, Note_on_c, 0, 72, 0
2, 71940, Note_on_c, 0, 70, 90
2, 71966, Note_on_c, 0, 70, 0
2, 71970, Note_on_c, 0, 73, 90
2, 71996, Note_on_c, 0, 73, 0
2, 72000, Note_on_c, 0, 72, 90
2, 72026, Note_on_c, 0, 72, 0
2, 72030, Note_on_c, 0, 75, 90
2, 72056, Note_on_c, 0, 75, 0
2, 72060, Note_on_c, 0, 74, 90
2, 72086, Note_on_c, 0, 74, 0
2, 72090, Note_on_c, 0, 75, 90
2, 72116, Note_on_c, 0, 75, 0
2, 72120, Note_on_c, 0, 72, 90
2, 72146, Note_on_c, 0, 72, 0
2, 72150, Note_on_c, 0, 77, 90
2, 72176, Note_on_c, 0, 77, 0
2, 72180, Note_on_c, 0, 75, 90
2, 72206, Note_on_c, 0, 75, 0
2, 72210, Note_on_c, 0, 77, 90
2, 72236, Note_on_c, 0, 77, 0
2, 72240, Note_on_c, 0, 74, 90
2, 72266, Note_on_c, 0, 74, 0
2, 72270, Note_on_c, 0, 77, 90
2, 72296, Note_on_c, 0, 77, 0
2, 72300, Note_on_c, 0, 75, 90
2, 72326, Note_on_c, 0, 75, 0
2, 72330, Note_on_c, 0, 79, 90
2, 72356, Note_on_c, 0, 79, 0
2, 72360, Note_on_c, 0, 77, 90
2, 72386, Note_on_c, 0, 77, 0
2, 72390, Note_on_c, 0, 82, 90
2, 72416, Note_on_c, 0, 82, 0
2, 72420, Note_on_c, 0, 80, 90
2, 72446, Note_on_c, 0, 80, 0
2, 72450, Note_on_c, 0, 82, 90
2, 72476, Note_on_c, 0, 82, 0
2, 72480, Note_on_c, 0, 79, 90
2, 72506, Note_on_c, 0, 79, 0
2, 72510, Note_on_c, 0, 84, 90
2, 72536, Note_on_c, 0, 84, 0
2, 72540, Note_on_c, 0, 82, 90
2, 72566, Note_on_c, 0, 82, 0
2, 72570, Note_on_c, 0, 84, 90
2, 72596, Note_on_c, 0, 84, 0
2, 72600, Note_on_c, 0, 80, 90
2, 72626, Note_on_c, 0, 80, 0
2, 72630, Note_on_c, 0, 84, 90
2, 72656, Note_on_c, 0, 84, 0
2, 72660, Note_on_c, 0, 82, 90
2, 72686, Note_on_c, 0, 82, 0
2, 72690, Note_on_c, 0, 84, 90
2, 72716, Note_on_c, 0, 84, 0
2, 72720, Note_on_c, 0, 80, 90
2, 72746, Note_on_c, 0, 80, 0
2, 72750, Note_on_c, 0, 82, 90
2, 72776, Note_on_c, 0, 82, 0
2, 72780, Note_on_c, 0, 79, 90
2, 72806, Note_on_c, 0, 79, 0
2, 72810, Note_on_c, 0, 80, 90
2, 72836, Note_on_c, 0, 80, 0
2, 72840, Note_on_c, 0, 77, 90
2, 72866, Note_on_c, 0, 77, 0
2, 72870, Note_on_c, 0, 82, 90
2, 72896, Note_on_c, 0, 82, 0
2, 72900, Note_on_c, 0, 80, 90
2, 72926, Note_on_c, 0, 80, 0
2, 72930, Note_on_c, 0, 82, 90
2, 72956, Note_on_c, 0, 82, 0
2, 72960, Note_on_c, 0, 79, 90
2, 72986, Note_on_c, 0, 79, 0
2, 72990, Note_on_c, 0, 82, 90
2, 73016, Note_on_c, 0, 82, 0
2, 73020, Note_on_c, 0, 80, 90
2, 73046, Note_on_c, 0, 80, 0
2, 73050, Note_on_c, 0, 82, 90
2, 73076, Note_on_c, 0, 82, 0
2, 73080, Note_on_c, 0, 79, 90
2, 73106, Note_on_c, 0, 79, 0
2, 73110, Note_on_c, 0, 80, 90
2, 73136, Note_on_c, 0, 80, 0
2, 73140, Note_on_c, 0, 77, 90
2, 73166, Note_on_c, 0, 77, 0
2, 73170, Note_on_c, 0, 79, 90
2, 73196, Note_on_c, 0, 79, 0
2, 73200, Note_on_c, 0, 75, 90
2, 73226, Note_on_c, 0, 75, 0
2, 73230, Note_on_c, 0, 77, 90
2, 73256, Note_on_c, 0, 77, 0
2, 73260, Note_on_c, 0, 74, 90
2, 73286, Note_on_c, 0, 74, 0
2, 73290, Note_on_c, 0, 75, 90
2, 73316, Note_on_c, 0, 75, 0
2, 73320, Note_on_c, 0, 72, 90
2, 73372, Note_on_c, 0, 72, 0
2, 73380, Note_on_c, 0, 75, 90
2, 73432, Note_on_c, 0, 75, 0
2, 73440, Note_on_c, 0, 80, 90
2, 73492, Note_on_c, 0, 80, 0
2, 73500, Note_on_c, 0, 72, 90
2, 73552, Note_on_c, 0, 72, 0
2, 73560, Note_on_c, 0, 70, 90
2, 73612, Note_on_c, 0, 70, 0
2, 73620, Note_on_c, 0, 80, 90
2, 73672, Note_on_c, 0, 80, 0
2, 73680, Note_on_c, 0, 70, 90
2, 73732, Note_on_c, 0, 70, 0
2, 73740, Note_on_c, 0, 74, 90
2, 73792, Note_on_c, 0, 74, 0
2, 73800, Note_on_c, 0, 79, 90
2, 73852, Note_on_c, 0, 79, 0
2, 73860, Note_on_c, 0, 70, 90
2, 73912, Note_on_c, 0, 70, 0
2, 73920, Note_on_c, 0, 68, 90
2, 73972, Note_on_c, 0, 68, 0
2, 73980, Note_on_c, 0, 79, 90
2, 74032, Note_on_c, 0, 79, 0
2, 74040, Note_on_c, 0, 68, 90
2, 74092, Note_on_c, 0, 68, 0
2, 74100, Note_on_c, 0, 72, 90
2, 74152, Note_on_c, 0, 72, 0
2, 74160, Note_on_c, 0, 77, 90
2, 74212, Note_on_c, 0, 77, 0
2, 74220, Note_on_c, 0, 68, 90
2, 74272, Note_on_c, 0, 68, 0
2, 74280, Note_on_c, 0, 67, 90
2, 74332, Note_on_c, 0, 67, 0
2, 74340, Note_on_c, 0, 77, 90
2, 74392, Note_on_c, 0, 77, 0
2, 74400, Note_on_c, 0, 67, 90
2, 74452, Note_on_c, 0, 67, 0
2, 74460, Note_on_c, 0, 70, 90
2, 74512, Note_on_c, 0, 70, 0
2, 74520, Note_on_c, 0, 75, 90
2, 74572, Note_on_c, 0, 75, 0
2, 74580, Note_on_c, 0, 67, 90
2, 74632, Note_on_c, 0, 67, 0
2, 74640, Note_on_c, 0, 65, 90
2, 74692, Note_on_c, 0, 65, 0
2, 74700, Note_on_c, 0, 75, 90
2, 74752, Note_on_c, 0, 75, 0
2, 74760, Note_on_c, 0, 74, 90
2, 74786, Note_on_c, 0, 74, 0
2, 74790, Note_on_c, 0, 77, 90
2, 74816, Note_on_c, 0, 77, 0
2, 74820, Note_on_c, 0, 74, 90
2, 74846, Note_on_c, 0, 74, 0
2, 74850, Note_on_c, 0, 77, 90
2, 74876, Note_on_c, 0, 77, 0
2, 74880, Note_on_c, 0, 70, 90
2, 74932, Note_on_c, 0, 70, 0
2, 74940, Note_on_c, 0, 69, 90
2, 74966, Note_on_c, 0, 69, 0
2, 74970, Note_on_c, 0, 67, 90
2, 74996, Note_on_c, 0, 67, 0
2, 75000, Note_on_c, 0, 65, 90
2, 75052, Note_on_c, 0, 65, 0
2, 75060, Note_on_c, 0, 67, 90
2, 75112, Note_on_c, 0, 67, 0
2, 75120, Note_on_c, 0, 69, 90
2, 75172, Note_on_c, 0, 69, 0
2, 75180, Note_on_c, 0, 74, 90
2, 75232, Note_on_c, 0, 74, 0
2, 75240, Note_on_c, 0, 69, 90
2, 75292, Note_on_c, 0, 69, 0
2, 75300, Note_on_c, 0, 69, 90
2, 75352, Note_on_c, 0, 69, 0
2, 75360, Note_on_c, 0, 70, 90
2, 75412, Note_on_c, 0, 70, 0
2, 75420, Note_on_c, 0, 70, 90
2, 75472, Note_on_c, 0, 70, 0
2, 75540, Note_on_c, 0, 79, 90
2, 75592, Note_on_c, 0, 79, 0
2, 75600, Note_on_c, 0, 72, 90
2, 75652, Note_on_c, 0, 72, 0
2, 75660, Note_on_c, 0, 72, 90
2, 75712, Note_on_c, 0, 72, 0
2, 75720, Note_on_c, 0, 74, 90
2, 75772, Note_on_c, 0, 74, 0
2, 75780, Note_on_c, 0, 74, 90
2, 75832, Note_on_c, 0, 74, 0
2, 75900, Note_on_c, 0, 75, 90
2, 75952, Note_on_c, 0, 75, 0
2, 75960, Note_on_c, 0, 70, 90
2, 76012, Note_on_c, 0, 70, 0
2, 76020, Note_on_c, 0, 70, 90
2, 76072, Note_on_c, 0, 70, 0
2, 76080, Note_on_c, 0, 72, 90
2, 76132, Note_on_c, 0, 72, 0
2, 76140, Note_on_c, 0, 72, 90
2, 76192, Note_on_c, 0, 72, 0
2, 76230, Note_on_c, 0, 74, 90
2, 76256, Note_on_c, 0, 74, 0
2, 76260, Note_on_c, 0, 72, 90
2, 76286, Note_on_c, 0, 72, 0
2, 76290, Note_on_c, 0, 74, 90
2, 76316, Note_on_c, 0, 74, 0
2, 76320, Note_on_c, 0, 75, 90
2, 76425, Note_on_c, 0, 75, 0
2, 76440, Note_on_c, 0, 77, 90
2, 76545, Note_on_c, 0, 77, 0
2, 76590, Note_on_c, 0, 79, 90
2, 76616, Note_on_c, 0, 79, 0
2, 76620, Note_on_c, 0, 77, 90
2, 76646, Note_on_c, 0, 77, 0
2, 76650, Note_on_c, 0, 79, 90
2, 76676, Note_on_c, 0, 79, 0
2, 76680, Note_on_c, 0, 80, 90
2, 76785, Note_on_c, 0, 80, 0
2, 76800, Note_on_c, 0, 82, 90
2, 76905, Note_on_c, 0, 82, 0
2, 76950, Note_on_c, 0, 84, 90
2, 76976, Note_on_c, 0, 84, 0
2, 76980, Note_on_c, 0, 82, 90
2, 77006, Note_on_c, 0, 82, 0
2, 77010, Note_on_c, 0, 84, 90
2, 77036, Note_on_c, 0, 84, 0
2, 77040, Note_on_c, 0, 77, 90
2, 77145, Note_on_c, 0, 77, 0
2, 77160, Note_on_c, 0, 79, 90
2, 77265, Note_on_c, 0, 79, 0
2, 77310, Note_on_c, 0, 80, 90
2, 77336, Note_on_c, 0, 80, 0
2, 77340, Note_on_c, 0, 79, 90
2, 77366, Note_on_c, 0, 79, 0
2, 77370, Note_on_c, 0, 80, 90
2, 77396, Note_on_c, 0, 80, 0
2, 77400, Note_on_c, 0, 74, 90
2, 77452, Note_on_c, 0, 74, 0
2, 77460, Note_on_c, 0, 74, 90
2, 77512, Note_on_c, 0, 74, 0
2, 77520, Note_on_c, 0, 75, 90
2, 77572, Note_on_c, 0, 75, 0
2, 77580, Note_on_c, 0, 75, 90
2, 77632, Note_on_c, 0, 75, 0
2, 77670, Note_on_c, 0, 77, 90
2, 77696, Note_on_c, 0, 77, 0
2, 77700, Note_on_c, 0, 75, 90
2, 77726, Note_on_c, 0, 75, 0
2, 77730, Note_on_c, 0, 77, 90
2, 77756, Note_on_c, 0, 77, 0
2, 77760, Note_on_c, 0, 72, 90
2, 77812, Note_on_c, 0, 72, 0
2, 77820, Note_on_c, 0, 72, 90
2, 77872, Note_on_c, 0, 72, 0
2, 77880, Note_on_c, 0, 74, 90
2, 77932, Note_on_c, 0, 74, 0
2, 77940, Note_on_c, 0, 74, 90
2, 77992, Note_on_c, 0, 74, 0
2, 78030, Note_on_c, 0, 75, 90
2, 78056, Note_on_c, 0, 75, 0
2, 78060, Note_on_c, 0, 74, 90
2, 78086, Note_on_c, 0, 74, 0
2, 78090, Note_on_c, 0, 75, 90
2, 78116, Note_on_c, 0, 75, 0
2, 78150, Note_on_c, 0, 75, 90
2, 78176, Note_on_c, 0, 75, 0
2, 78180, Note_on_c, 0, 74, 90
2, 78206, Note_on_c, 0, 74, 0
2, 78210, Note_on_c, 0, 75, 90
2, 78236, Note_on_c, 0, 75, 0
2, 78270, Note_on_c, 0, 75, 90
2, 78296, Note_on_c, 0, 75, 0
2, 78300, Note_on_c, 0, 74, 90
2, 78326, Note_on_c, 0, 74, 0
2, 78330, Note_on_c, 0, 75, 90
2, 78356, Note_on_c, 0, 75, 0
2, 78390, Note_on_c, 0, 74, 90
2, 78416, Note_on_c, 0, 74, 0
2, 78420, Note_on_c, 0, 72, 90
2, 78446, Note_on_c, 0, 72, 0
2, 78450, Note_on_c, 0, 74, 90
2, 78476, Note_on_c, 0, 74, 0
2, 78510, Note_on_c, 0, 72, 90
2, 78536, Note_on_c, 0, 72, 0
2, 78540, Note_on_c, 0, 70, 90
2, 78566, Note_on_c, 0, 70, 0
2, 78570, Note_on_c, 0, 72, 90
2, 78596, Note_on_c, 0, 72, 0
2, 78630, Note_on_c, 0, 72, 90
2, 78656, Note_on_c, 0, 72, 0
2, 78660, Note_on_c, 0, 70, 90
2, 78686, Note_on_c, 0, 70, 0
2, 78690, Note_on_c, 0, 72, 90
2, 78716, Note_on_c, 0, 72, 0
2, 78750, Note_on_c, 0, 70, 90
2, 78776, Note_on_c, 0, 70, 0
2, 78780, Note_on_c, 0, 69, 90
2, 78806, Note_on_c, 0, 69, 0
2, 78810, Note_on_c, 0, 70, 90
2, 78836, Note_on_c, 0, 70, 0
2, 78870, Note_on_c, 0, 70, 90
2, 78896, Note_on_c, 0, 70, 0
2, 78900, Note_on_c, 0, 69, 90
2, 78926, Note_on_c, 0, 69, 0
2, 78930, Note_on_c, 0, 70, 90
2, 78956, Note_on_c, 0, 70, 0
2, 78990, Note_on_c, 0, 72, 90
2, 79016, Note_on_c, 0, 72, 0
2, 79020, Note_on_c, 0, 70, 90
2, 79046, Note_on_c, 0, 70, 0
2, 79050, Note_on_c, 0, 72, 90
2, 79076, Note_on_c, 0, 72, 0
2, 79110, Note_on_c, 0, 69, 90
2, 79136, Note_on_c, 0, 69, 0
2, 79140, Note_on_c, 0, 67, 90
2, 79166, Note_on_c, 0, 67, 0
2, 79170, Note_on_c, 0, 69, 90
2, 79196, Note_on_c, 0, 69, 0
2, 79230, Note_on_c, 0, 69, 90
2, 79256, Note_on_c, 0, 69, 0
2, 79260, Note_on_c, 0, 67, 90
2, 79286, Note_on_c, 0, 67, 0
2, 79290, Note_on_c, 0, 69, 90
2, 79316, Note_on_c, 0, 69, 0
2, 79320, Note_on_c, 0, 70, 90
2, 79346, Note_on_c, 0, 70, 0
2, 79350, Note_on_c, 0, 72, 90
2, 79376, Note_on_c, 0, 72, 0
2, 79380, Note_on_c, 0, 70, 90
2, 79406, Note_on_c, 0, 70, 0
2, 79410, Note_on_c, 0, 72, 90
2, 79436, Note_on_c, 0, 72, 0
2, 79440, Note_on_c, 0, 74, 90
2, 79545, Note_on_c, 0, 74, 0
2, 79590, Note_on_c, 0, 74, 90
2, 79616, Note_on_c, 0, 74, 0
2, 79620, Note_on_c, 0, 72, 90
2, 79646, Note_on_c, 0, 72, 0
2, 79650, Note_on_c, 0, 74, 90
2, 79676, Note_on_c, 0, 74, 0
2, 79680, Note_on_c, 0, 67, 90
2, 79706, Note_on_c, 0, 67, 0
2, 79710, Note_on_c, 0, 79, 90
2, 79736, Note_on_c, 0, 79, 0
2, 79740, Note_on_c, 0, 77, 90
2, 79766, Note_on_c, 0, 77, 0
2, 79770, Note_on_c, 0, 79, 90
2, 79796, Note_on_c, 0, 79, 0
2, 79800, Note_on_c, 0, 75, 90
2, 79826, Note_on_c, 0, 75, 0
2, 79830, Note_on_c, 0, 79, 90
2, 79856, Note_on_c, 0, 79, 0
2, 79860, Note_on_c, 0, 75, 90
2, 79886, Note_on_c, 0, 75, 0
2, 79890, Note_on_c, 0, 79, 90
2, 79916, Note_on_c, 0, 79, 0
2, 79920, Note_on_c, 0, 75, 90
2, 79946, Note_on_c, 0, 75, 0
2, 79950, Note_on_c, 0, 77, 90
2, 79976, Note_on_c, 0, 77, 0
2, 79980, Note_on_c, 0, 75, 90
2, 80006, Note_on_c, 0, 75, 0
2, 80010, Note_on_c, 0, 77, 90
2, 80036, Note_on_c, 0, 77, 0
2, 80040, Note_on_c, 0, 74, 90
2, 80066, Note_on_c, 0, 74, 0
2, 80070, Note_on_c, 0, 75, 90
2, 80096, Note_on_c, 0, 75, 0
2, 80100, Note_on_c, 0, 74, 90
2, 80126, Note_on_c, 0, 74, 0
2, 80130, Note_on_c, 0, 75, 90
2, 80156, Note_on_c, 0, 75, 0
2, 80160, Note_on_c, 0, 72, 90
2, 80186, Note_on_c, 0, 72, 0
2, 80190, Note_on_c, 0, 75, 90
2, 80216, Note_on_c, 0, 75, 0
2, 80220, Note_on_c, 0, 74, 90
2, 80246, Note_on_c, 0, 74, 0
2, 80250, Note_on_c, 0, 77, 90
2, 80276, Note_on_c, 0, 77, 0
2, 80280, Note_on_c, 0, 75, 90
2, 80306, Note_on_c, 0, 75, 0
2, 80310, Note_on_c, 0, 79, 90
2, 80336, Note_on_c, 0, 79, 0
2, 80340, Note_on_c, 0, 78, 90
2, 80366, Note_on_c, 0, 78, 0
2, 80370, Note_on_c, 0, 81, 90
2, 80396, Note_on_c, 0, 81, 0
2, 80400, Note_on_c, 0, 79, 90
2, 80426, Note_on_c, 0, 79, 0
2, 80430, Note_on_c, 0, 82, 90
2, 80456, Note_on_c, 0, 82, 0
2, 80460, Note_on_c, 0, 81, 90
2, 80486, Note_on_c, 0, 81, 0
2, 80490, Note_on_c, 0, 79, 90
2, 80516, Note_on_c, 0, 79, 0
2, 80520, Note_on_c, 0, 78, 90
2, 80546, Note_on_c, 0, 78, 0
2, 80550, Note_on_c, 0, 81, 90
2, 80576, Note_on_c, 0, 81, 0
2, 80580, Note_on_c, 0, 79, 90
2, 80606, Note_on_c, 0, 79, 0
2, 80610, Note_on_c, 0, 82, 90
2, 80636, Note_on_c, 0, 82, 0
2, 80640, Note_on_c, 0, 81, 90
2, 80692, Note_on_c, 0, 81, 0
2, 80700, Note_on_c, 0, 74, 90
2, 80752, Note_on_c, 0, 74, 0
2, 88308, Control_c, 0, 7, 124
2, 88320, Note_on_c, 0, 67, 90
2, 88425, Note_on_c, 0, 67, 0
2, 88440, Note_on_c, 0, 74, 90
2, 88665, Note_on_c, 0, 74, 0
2, 88680, Note_on_c, 0, 70, 90
2, 88785, Note_on_c, 0, 70, 0
2, 88800, Note_on_c, 0, 72, 90
2, 89025, Note_on_c, 0, 72, 0
2, 89040, Note_on_c, 0, 74, 90
2, 89145, Note_on_c, 0, 74, 0
2, 89160, Note_on_c, 0, 75, 90
2, 89385, Note_on_c, 0, 75, 0
2, 89400, Note_on_c, 0, 72, 90
2, 89505, Note_on_c, 0, 72, 0
2, 89520, Note_on_c, 0, 74, 90
2, 89786, Note_on_c, 0, 74, 0
2, 89790, Note_on_c, 0, 74, 90
2, 89816, Note_on_c, 0, 74, 0
2, 89820, Note_on_c, 0, 72, 90
2, 89846, Note_on_c, 0, 72, 0
2, 89850, Note_on_c, 0, 74, 90
2, 89876, Note_on_c, 0, 74, 0
2, 89880, Note_on_c, 0, 75, 90
2, 89906, Note_on_c, 0, 75, 0
2, 89910, Note_on_c, 0, 77, 90
2, 89936, Note_on_c, 0, 77, 0
2, 89940, Note_on_c, 0, 74, 90
2, 89966, Note_on_c, 0, 74, 0
2, 89970, Note_on_c, 0, 76, 90
2, 89996, Note_on_c, 0, 76, 0
2, 90000, Note_on_c, 0, 77, 90
2, 90026, Note_on_c, 0, 77, 0
2, 90030, Note_on_c, 0, 79, 90
2, 90056, Note_on_c, 0, 79, 0
2, 90060, Note_on_c, 0, 76, 90
2, 90086, Note_on_c, 0, 76, 0
2, 90090, Note_on_c, 0, 78, 90
2, 90116, Note_on_c, 0, 78, 0
2, 90120, Note_on_c, 0, 79, 90
2, 90146, Note_on_c, 0, 79, 0
2, 90150, Note_on_c, 0, 81, 90
2, 90176, Note_on_c, 0, 81, 0
2, 90180, Note_on_c, 0, 74, 90
2, 90206, Note_on_c, 0, 74, 0
2, 90210, Note_on_c, 0, 77, 90
2, 90236, Note_on_c, 0, 77, 0
2, 90240, Note_on_c, 0, 75, 90
2, 90266, Note_on_c, 0, 75, 0
2, 90270, Note_on_c, 0, 77, 90
2, 90296, Note_on_c, 0, 77, 0
2, 90300, Note_on_c, 0, 72, 90
2, 90326, Note_on_c, 0, 72, 0
2, 90330, Note_on_c, 0, 75, 90
2, 90356, Note_on_c, 0, 75, 0
2, 90360, Note_on_c, 0, 74, 90
2, 90386, Note_on_c, 0, 74, 0
2, 90390, Note_on_c, 0, 75, 90
2, 90416, Note_on_c, 0, 75, 0
2, 90420, Note_on_c, 0, 70, 90
2, 90446, Note_on_c, 0, 70, 0
2, 90450, Note_on_c, 0, 74, 90
2, 90476, Note_on_c, 0, 74, 0
2, 90480, Note_on_c, 0, 72, 90
2, 90506, Note_on_c, 0, 72, 0
2, 90510, Note_on_c, 0, 74, 90
2, 90536, Note_on_c, 0, 74, 0
2, 90540, Note_on_c, 0, 69, 90
2, 90566, Note_on_c, 0, 69, 0
2, 90570, Note_on_c, 0, 72, 90
2, 90596, Note_on_c, 0, 72, 0
2, 90600, Note_on_c, 0, 70, 90
2, 90626, Note_on_c, 0, 70, 0
2, 90630, Note_on_c, 0, 72, 90
2, 90656, Note_on_c, 0, 72, 0
2, 90660, Note_on_c, 0, 69, 90
2, 90686, Note_on_c, 0, 69, 0
2, 90690, Note_on_c, 0, 71, 90
2, 90716, Note_on_c, 0, 71, 0
2, 90720, Note_on_c, 0, 72, 90
2, 90746, Note_on_c, 0, 72, 0
2, 90750, Note_on_c, 0, 74, 90
2, 90776, Note_on_c, 0, 74, 0
2, 90780, Note_on_c, 0, 75, 90
2, 90806, Note_on_c, 0, 75, 0
2, 90810, Note_on_c, 0, 69, 90
2, 90836, Note_on_c, 0, 69, 0
2, 90840, Note_on_c, 0, 69, 90
2, 90846, Note_on_c, 0, 69, 0
2, 90847, Note_on_c, 0, 71, 90
2, 90854, Note_on_c, 0, 71, 0
2, 90855, Note_on_c, 0, 69, 90
2, 90861, Note_on_c, 0, 69, 0
2, 90862, Note_on_c, 0, 71, 90
2, 90869, Note_on_c, 0, 71, 0
2, 90870, Note_on_c, 0, 69, 90
2, 90876, Note_on_c, 0, 69, 0
2, 90877, Note_on_c, 0, 71, 90
2, 90884, Note_on_c, 0, 71, 0
2, 90885, Note_on_c, 0, 69, 90
2, 90891, Note_on_c, 0, 69, 0
2, 90892, Note_on_c, 0, 71, 90
2, 90899, Note_on_c, 0, 71, 0
2, 90900, Note_on_c, 0, 69, 90
2, 90926, Note_on_c, 0, 69, 0
2, 90930, Note_on_c, 0, 67, 90
2, 90956, Note_on_c, 0, 67, 0
2, 90960, Note_on_c, 0, 67, 90
2, 90986, Note_on_c, 0, 67, 0
2, 90990, Note_on_c, 0, 71, 90
2, 91016, Note_on_c, 0, 71, 0
2, 91020, Note_on_c, 0, 69, 90
2, 91046, Note_on_c, 0, 69, 0
2, 91050, Note_on_c, 0, 72, 90
2, 91076, Note_on_c, 0, 72, 0
2, 91080, Note_on_c, 0, 70, 90
2, 91106, Note_on_c, 0, 70, 0
2, 91110, Note_on_c, 0, 74, 90
2, 91136, Note_on_c, 0, 74, 0
2, 91140, Note_on_c, 0, 72, 90
2, 91166, Note_on_c, 0, 72, 0
2, 91170, Note_on_c, 0, 75, 90
2, 91196, Note_on_c, 0, 75, 0
2, 91200, Note_on_c, 0, 74, 90
2, 91226, Note_on_c, 0, 74, 0
2, 91230, Note_on_c, 0, 77, 90
2, 91256, Note_on_c, 0, 77, 0
2, 91260, Note_on_c, 0, 75, 90
2, 91286, Note_on_c, 0, 75, 0
2, 91290, Note_on_c, 0, 74, 90
2, 91316, Note_on_c, 0, 74, 0
2, 91320, Note_on_c, 0, 75, 90
2, 91425, Note_on_c, 0, 75, 0
2, 91620, Note_on_c, 0, 76, 90
2, 91672, Note_on_c, 0, 76, 0
2, 91680, Note_on_c, 0, 77, 90
2, 91706, Note_on_c, 0, 77, 0
2, 91710, Note_on_c, 0, 80, 90
2, 91736, Note_on_c, 0, 80, 0
2, 91740, Note_on_c, 0, 79, 90
2, 91766, Note_on_c, 0, 79, 0
2, 91770, Note_on_c, 0, 82, 90
2, 91796, Note_on_c, 0, 82, 0
2, 91800, Note_on_c, 0, 80, 90
2, 91852, Note_on_c, 0, 80, 0
2, 91860, Note_on_c, 0, 82, 90
2, 91866, Note_on_c, 0, 82, 0
2, 91867, Note_on_c, 0, 84, 90
2, 91874, Note_on_c, 0, 84, 0
2, 91875, Note_on_c, 0, 82, 90
2, 91881, Note_on_c, 0, 82, 0
2, 91882, Note_on_c, 0, 84, 90
2, 91889, Note_on_c, 0, 84, 0
2, 91890, Note_on_c, 0, 80, 90
2, 91903, Note_on_c, 0, 80, 0
2, 91905, Note_on_c, 0, 82, 90
2, 91918, Note_on_c, 0, 82, 0
2, 91920, Note_on_c, 0, 84, 90
2, 91946, Note_on_c, 0, 84, 0
2, 91950, Note_on_c, 0, 80, 90
2, 91976, Note_on_c, 0, 80, 0
2, 91980, Note_on_c, 0, 79, 90
2, 92006, Note_on_c, 0, 79, 0
2, 92010, Note_on_c, 0, 77, 90
2, 92036, Note_on_c, 0, 77, 0
2, 92040, Note_on_c, 0, 76, 90
2, 92066, Note_on_c, 0, 76, 0
2, 92070, Note_on_c, 0, 79, 90
2, 92096, Note_on_c, 0, 79, 0
2, 92100, Note_on_c, 0, 77, 90
2, 92126, Note_on_c, 0, 77, 0
2, 92130, Note_on_c, 0, 80, 90
2, 92156, Note_on_c, 0, 80, 0
2, 92160, Note_on_c, 0, 79, 90
2, 92186, Note_on_c, 0, 79, 0
2, 92190, Note_on_c, 0, 82, 90
2, 92216, Note_on_c, 0, 82, 0
2, 92220, Note_on_c, 0, 80, 90
2, 92246, Note_on_c, 0, 80, 0
2, 92250, Note_on_c, 0, 79, 90
2, 92276, Note_on_c, 0, 79, 0
2, 92280, Note_on_c, 0, 80, 90
2, 92505, Note_on_c, 0, 80, 0
2, 92520, Note_on_c, 0, 79, 90
2, 92625, Note_on_c, 0, 79, 0
2, 92640, Note_on_c, 0, 78, 90
2, 92745, Note_on_c, 0, 78, 0
2, 92760, Note_on_c, 0, 77, 90
2, 93146, Note_on_c, 0, 77, 0
2, 93150, Note_on_c, 0, 77, 90
2, 93176, Note_on_c, 0, 77, 0
2, 93180, Note_on_c, 0, 79, 90
2, 93206, Note_on_c, 0, 79, 0
2, 93210, Note_on_c, 0, 77, 90
2, 93236, Note_on_c, 0, 77, 0
2, 93240, Note_on_c, 0, 76, 90
2, 93292, Note_on_c, 0, 76, 0
2, 93300, Note_on_c, 0, 77, 90
2, 93352, Note_on_c, 0, 77, 0
2, 93360, Note_on_c, 0, 79, 90
2, 93506, Note_on_c, 0, 79, 0
2, 93510, Note_on_c, 0, 79, 90
2, 93536, Note_on_c, 0, 79, 0
2, 93540, Note_on_c, 0, 80, 90
2, 93566, Note_on_c, 0, 80, 0
2, 93570, Note_on_c, 0, 79, 90
2, 93596, Note_on_c, 0, 79, 0
2, 93600, Note_on_c, 0, 77, 90
2, 93652, Note_on_c, 0, 77, 0
2, 93660, Note_on_c, 0, 79, 90
2, 93712, Note_on_c, 0, 79, 0
2, 93720, Note_on_c, 0, 80, 90
2, 93866, Note_on_c, 0, 80, 0
2, 93870, Note_on_c, 0, 80, 90
2, 93896, Note_on_c, 0, 80, 0
2, 93900, Note_on_c, 0, 82, 90
2, 93926, Note_on_c, 0, 82, 0
2, 93930, Note_on_c, 0, 80, 90
2, 93956, Note_on_c, 0, 80, 0
2, 93960, Note_on_c, 0, 79, 90
2, 93986, Note_on_c, 0, 79, 0
2, 93990, Note_on_c, 0, 82, 90
2, 94016, Note_on_c, 0, 82, 0
2, 94020, Note_on_c, 0, 80, 90
2, 94046, Note_on_c, 0, 80, 0
2, 94050, Note_on_c, 0, 84, 90
2, 94076, Note_on_c, 0, 84, 0
2, 94080, Note_on_c, 0, 82, 90
2, 94226, Note_on_c, 0, 82, 0
2, 94230, Note_on_c, 0, 84, 90
2, 94256, Note_on_c, 0, 84, 0
2, 94260, Note_on_c, 0, 79, 90
2, 94286, Note_on_c, 0, 79, 0
2, 94290, Note_on_c, 0, 82, 90
2, 94316, Note_on_c, 0, 82, 0
2, 94320, Note_on_c, 0, 80, 90
2, 94466, Note_on_c, 0, 80, 0
2, 94470, Note_on_c, 0, 84, 90
2, 94496, Note_on_c, 0, 84, 0
2, 94500, Note_on_c, 0, 80, 90
2, 94526, Note_on_c, 0, 80, 0
2, 94530, Note_on_c, 0, 84, 90
2, 94556, Note_on_c, 0, 84, 0
2, 94560, Note_on_c, 0, 78, 90
2, 94785, Note_on_c, 0, 78, 0
2, 94830, Note_on_c, 0, 79, 90
2, 94856, Note_on_c, 0, 79, 0
2, 94860, Note_on_c, 0, 77, 90
2, 94886, Note_on_c, 0, 77, 0
2, 94890, Note_on_c, 0, 79, 90
2, 94916, Note_on_c, 0, 79, 0
2, 94920, Note_on_c, 0, 75, 90
2, 95025, Note_on_c, 0, 75, 0
2, 95070, Note_on_c, 0, 74, 90
2, 95096, Note_on_c, 0, 74, 0
2, 95100, Note_on_c, 0, 72, 90
2, 95126, Note_on_c, 0, 72, 0
2, 95130, Note_on_c, 0, 74, 90
2, 95156, Note_on_c, 0, 74, 0
2, 95160, Note_on_c, 0, 70, 90
2, 95265, Note_on_c, 0, 70, 0
2, 95310, Note_on_c, 0, 69, 90
2, 95336, Note_on_c, 0, 69, 0
2, 95340, Note_on_c, 0, 67, 90
2, 95366, Note_on_c, 0, 67, 0
2, 95370, Note_on_c, 0, 69, 90
2, 95396, Note_on_c, 0, 69, 0
2, 95400, Note_on_c, 0, 66, 90
2, 95505, Note_on_c, 0, 66, 0
2, 95550, Note_on_c, 0, 67, 90
2, 95576, Note_on_c, 0, 67, 0
2, 95580, Note_on_c, 0, 65, 90
2, 95606, Note_on_c, 0, 65, 0
2, 95610, Note_on_c, 0, 67, 90
2, 95636, Note_on_c, 0, 67, 0
2, 95640, Note_on_c, 0, 63, 90
2, 95745, Note_on_c, 0, 63, 0
2, 95760, Note_on_c, 0, 62, 90
2, 95865, Note_on_c, 0, 62, 0
2, 95910, Note_on_c, 0, 62, 90
2, 95936, Note_on_c, 0, 62, 0
2, 95940, Note_on_c, 0, 60, 90
2, 95966, Note_on_c, 0, 60, 0
2, 95970, Note_on_c, 0, 62, 90
2, 96052, Note_on_c, 0, 62, 0
2, 97680, Note_on_c, 0, 72, 90
2, 97785, Note_on_c, 0, 72, 0
2, 97800, Note_on_c, 0, 79, 90
2, 98025, Note_on_c, 0, 79, 0
2, 98040, Note_on_c, 0, 75, 90
2, 98145, Note_on_c, 0, 75, 0
2, 98160, Note_on_c, 0, 77, 90
2, 98385, Note_on_c, 0, 77, 0
2, 98400, Note_on_c, 0, 79, 90
2, 98505, Note_on_c, 0, 79, 0
2, 98520, Note_on_c, 0, 80, 90
2, 98745, Note_on_c, 0, 80, 0
2, 98760, Note_on_c, 0, 77, 90
2, 98865, Note_on_c, 0, 77, 0
2, 98880, Note_on_c, 0, 79, 90
2, 99705, Note_on_c, 0, 79, 0
2, 99720, Note_on_c, 0, 77, 90
2, 100065, Note_on_c, 0, 77, 0
2, 100080, Note_on_c, 0, 75, 90
2, 100425, Note_on_c, 0, 75, 0
2, 100440, Note_on_c, 0, 74, 90
2, 100785, Note_on_c, 0, 74, 0
2, 100800, Note_on_c, 0, 72, 90
2, 100826, Note_on_c, 0, 72, 0
2, 100830, Note_on_c, 0, 75, 90
2, 100856, Note_on_c, 0, 75, 0
2, 100860, Note_on_c, 0, 72, 90
2, 100886, Note_on_c, 0, 72, 0
2, 100890, Note_on_c, 0, 75, 90
2, 100916, Note_on_c, 0, 75, 0
2, 100920, Note_on_c, 0, 74, 90
2, 100946, Note_on_c, 0, 74, 0
2, 100950, Note_on_c, 0, 77, 90
2, 100976, Note_on_c, 0, 77, 0
2, 100980, Note_on_c, 0, 74, 90
2, 101006, Note_on_c, 0, 74, 0
2, 101010, Note_on_c, 0, 77, 90
2, 101036, Note_on_c, 0, 77, 0
2, 101040, Note_on_c, 0, 71, 90
2, 101046, Note_on_c, 0, 71, 0
2, 101047, Note_on_c, 0, 72, 90
2, 101054, Note_on_c, 0, 72, 0
2, 101055, Note_on_c, 0, 71, 90
2, 101061, Note_on_c, 0, 71, 0
2, 101062, Note_on_c, 0, 72, 90
2, 101069, Note_on_c, 0, 72, 0
2, 101070, Note_on_c, 0, 71, 90
2, 101076, Note_on_c, 0, 71, 0
2, 101077, Note_on_c, 0, 72, 90
2, 101084, Note_on_c, 0, 72, 0
2, 101085, Note_on_c, 0, 71, 90
2, 101091, Note_on_c, 0, 71, 0
2, 101092, Note_on_c, 0, 72, 90
2, 101099, Note_on_c, 0, 72, 0
2, 101100, Note_on_c, 0, 71, 90
2, 101106, Note_on_c, 0, 71, 0
2, 101107, Note_on_c, 0, 72, 90
2, 101114, Note_on_c, 0, 72, 0
2, 101115, Note_on_c, 0, 71, 90
2, 101121, Note_on_c, 0, 71, 0
2, 101122, Note_on_c, 0, 72, 90
2, 101129, Note_on_c, 0, 72, 0
2, 101130, Note_on_c, 0, 71, 90
2, 101136, Note_on_c, 0, 71, 0
2, 101137, Note_on_c, 0, 72, 90
2, 101144, Note_on_c, 0, 72, 0
2, 101145, Note_on_c, 0, 71, 90
2, 101151, Note_on_c, 0, 71, 0
2, 101152, Note_on_c, 0, 72, 90
2, 101159, Note_on_c, 0, 72, 0
2, 101190, Note_on_c, 0, 79, 90
2, 101216, Note_on_c, 0, 79, 0
2, 101220, Note_on_c, 0, 77, 90
2, 101246, Note_on_c, 0, 77, 0
2, 101250, Note_on_c, 0, 79, 90
2, 101276, Note_on_c, 0, 79, 0
2, 101280, Note_on_c, 0, 75, 90
2, 101306, Note_on_c, 0, 75, 0
2, 101310, Note_on_c, 0, 79, 90
2, 101336, Note_on_c, 0, 79, 0
2, 101340, Note_on_c, 0, 72, 90
2, 101366, Note_on_c, 0, 72, 0
2, 101370, Note_on_c, 0, 75, 90
2, 101396, Note_on_c, 0, 75, 0
2, 101400, Note_on_c, 0, 71, 90
2, 101505, Note_on_c, 0, 71, 0
2, 101580, Note_on_c, 0, 71, 90
2, 101632, Note_on_c, 0, 71, 0
2, 101640, Note_on_c, 0, 72, 90
2, 101692, Note_on_c, 0, 72, 0
2, 101700, Note_on_c, 0, 72, 90
2, 101752, Note_on_c, 0, 72, 0
2, 101760, Note_on_c, 0, 74, 90
2, 101865, Note_on_c, 0, 74, 0
2, 101940, Note_on_c, 0, 74, 90
2, 101992, Note_on_c, 0, 74, 0
2, 102000, Note_on_c, 0, 75, 90
2, 102052, Note_on_c, 0, 75, 0
2, 102060, Note_on_c, 0, 75, 90
2, 102112, Note_on_c, 0, 75, 0
2, 102120, Note_on_c, 0, 74, 90
2, 102225, Note_on_c, 0, 74, 0
2, 102300, Note_on_c, 0, 74, 90
2, 102352, Note_on_c, 0, 74, 0
2, 102360, Note_on_c, 0, 79, 90
2, 102412, Note_on_c, 0, 79, 0
2, 102420, Note_on_c, 0, 75, 90
2, 102472, Note_on_c, 0, 75, 0
2, 102480, Note_on_c, 0, 80, 90
2, 102602, Note_on_c, 0, 80, 0
2, 102660, Note_on_c, 0, 71, 90
2, 102712, Note_on_c, 0, 71, 0
2, 102720, Note_on_c, 0, 72, 90
2, 102866, Note_on_c, 0, 72, 0
2, 102870, Note_on_c, 0, 75, 90
2, 102896, Note_on_c, 0, 75, 0
2, 102900, Note_on_c, 0, 74, 90
2, 102926, Note_on_c, 0, 74, 0
2, 102930, Note_on_c, 0, 77, 90
2, 102956, Note_on_c, 0, 77, 0
2, 102960, Note_on_c, 0, 75, 90
2, 102986, Note_on_c, 0, 75, 0
2, 102990, Note_on_c, 0, 79, 90
2, 103016, Note_on_c, 0, 79, 0
2, 103020, Note_on_c, 0, 77, 90
2, 103046, Note_on_c, 0, 77, 0
2, 103050, Note_on_c, 0, 80, 90
2, 103076, Note_on_c, 0, 80, 0
2, 103080, Note_on_c, 0, 74, 90
2, 103086, Note_on_c, 0, 74, 0
2, 103087, Note_on_c, 0, 75, 90
2, 103094, Note_on_c, 0, 75, 0
2, 103095, Note_on_c, 0, 74, 90
2, 103101, Note_on_c, 0, 74, 0
2, 103102, Note_on_c, 0, 75, 90
2, 103109, Note_on_c, 0, 75, 0
2, 103110, Note_on_c, 0, 74, 90
2, 103116, Note_on_c, 0, 74, 0
2, 103117, Note_on_c, 0, 75, 90
2, 103124, Note_on_c, 0, 75, 0
2, 103125, Note_on_c, 0, 74, 90
2, 103131, Note_on_c, 0, 74, 0
2, 103132, Note_on_c, 0, 75, 90
2, 103139, Note_on_c, 0, 75, 0
2, 103140, Note_on_c, 0, 74, 90
2, 103166, Note_on_c, 0, 74, 0
2, 103170, Note_on_c, 0, 72, 90
2, 103196, Note_on_c, 0, 72, 0
2, 103200, Note_on_c, 0, 72, 90
2, 103305, Note_on_c, 0, 72, 0
2, 103350, Note_on_c, 0, 84, 90
2, 103376, Note_on_c, 0, 84, 0
2, 103380, Note_on_c, 0, 82, 90
2, 103406, Note_on_c, 0, 82, 0
2, 103410, Note_on_c, 0, 84, 90
2, 103436, Note_on_c, 0, 84, 0
2, 103440, Note_on_c, 0, 80, 90
2, 103466, Note_on_c, 0, 80, 0
2, 103470, Note_on_c, 0, 84, 90
2, 103496, Note_on_c, 0, 84, 0
2, 103500, Note_on_c, 0, 77, 90
2, 103526, Note_on_c, 0, 77, 0
2, 103530, Note_on_c, 0, 80, 90
2, 103556, Note_on_c, 0, 80, 0
2, 103560, Note_on_c, 0, 76, 90
2, 103665, Note_on_c, 0, 76, 0
2, 103740, Note_on_c, 0, 76, 90
2, 103792, Note_on_c, 0, 76, 0
2, 103800, Note_on_c, 0, 77, 90
2, 103852, Note_on_c, 0, 77, 0
2, 103860, Note_on_c, 0, 77, 90
2, 103912, Note_on_c, 0, 77, 0
2, 103920, Note_on_c, 0, 79, 90
2, 104025, Note_on_c, 0, 79, 0
2, 104100, Note_on_c, 0, 79, 90
2, 104152, Note_on_c, 0, 79, 0
2, 104160, Note_on_c, 0, 80, 90
2, 104212, Note_on_c, 0, 80, 0
2, 104220, Note_on_c, 0, 80, 90
2, 104272, Note_on_c, 0, 80, 0
2, 104280, Note_on_c, 0, 79, 90
2, 104306, Note_on_c, 0, 79, 0
2, 104310, Note_on_c, 0, 82, 90
2, 104336, Note_on_c, 0, 82, 0
2, 104340, Note_on_c, 0, 80, 90
2, 104366, Note_on_c, 0, 80, 0
2, 104370, Note_on_c, 0, 82, 90
2, 104396, Note_on_c, 0, 82, 0
2, 104400, Note_on_c, 0, 79, 90
2, 104565, Note_on_c, 0, 79, 0
2, 104580, Note_on_c, 0, 77, 90
2, 104666, Note_on_c, 0, 77, 0
2, 104670, Note_on_c, 0, 77, 90
2, 104696, Note_on_c, 0, 77, 0
2, 104700, Note_on_c, 0, 76, 90
2, 104726, Note_on_c, 0, 76, 0
2, 104730, Note_on_c, 0, 77, 90
2, 104756, Note_on_c, 0, 77, 0
2, 104760, Note_on_c, 0, 71, 90
2, 104906, Note_on_c, 0, 71, 0
2, 104910, Note_on_c, 0, 74, 90
2, 104936, Note_on_c, 0, 74, 0
2, 104940, Note_on_c, 0, 71, 90
2, 104966, Note_on_c, 0, 71, 0
2, 104970, Note_on_c, 0, 74, 90
2, 104996, Note_on_c, 0, 74, 0
2, 105000, Note_on_c, 0, 72, 90
2, 105242, Control_c, 0, 7, 124
2, 105243, Control_c, 0, 7, 122
2, 105244, Control_c, 0, 7, 121
2, 105245, Control_c, 0, 7, 120
2, 105246, Control_c, 0, 7, 119
2, 105247, Control_c, 0, 7, 118
2, 105248, Control_c, 0, 7, 117
2, 105249, Control_c, 0, 7, 116
2, 105250, Control_c, 0, 7, 115
2, 105251, Control_c, 0, 7, 114
2, 105252, Control_c, 0, 7, 113
2, 105253, Control_c, 0, 7, 112
2, 105254, Control_c, 0, 7, 111
2, 105255, Control_c, 0, 7, 110
2, 105256, Control_c, 0, 7, 109
2, 105257, Control_c, 0, 7, 108
2, 105258, Control_c, 0, 7, 107
2, 105259, Control_c, 0, 7, 106
2, 105260, Control_c, 0, 7, 105
2, 105261, Control_c, 0, 7, 104
2, 105262, Control_c, 0, 7, 102
2, 105263, Control_c, 0, 7, 101
2, 105264, Control_c, 0, 7, 100
2, 105265, Control_c, 0, 7, 99
2, 105266, Control_c, 0, 7, 98
2, 105267, Control_c, 0, 7, 97
2, 105268, Control_c, 0, 7, 96
2, 105269, Control_c, 0, 7, 95
2, 105270, Control_c, 0, 7, 94
2, 105271, Control_c, 0, 7, 93
2, 105272, Control_c, 0, 7, 92
2, 105273, Control_c, 0, 7, 91
2, 105274, Control_c, 0, 7, 90
2, 105275, Control_c, 0, 7, 89
2, 105276, Control_c, 0, 7, 88
2, 105277, Control_c, 0, 7, 87
2, 105278, Control_c, 0, 7, 86
2, 105279, Control_c, 0, 7, 85
2, 105280, Control_c, 0, 7, 84
2, 105281, Control_c, 0, 7, 83
2, 105282, Control_c, 0, 7, 81
2, 105283, Control_c, 0, 7, 80
2, 105284, Control_c, 0, 7, 79
2, 105285, Control_c, 0, 7, 78
2, 105286, Control_c, 0, 7, 77
2, 105287, Control_c, 0, 7, 76
2, 105288, Control_c, 0, 7, 75
2, 105289, Control_c, 0, 7, 74
2, 105290, Control_c, 0, 7, 73
2, 105291, Control_c, 0, 7, 72
2, 105292, Control_c, 0, 7, 71
2, 105293, Control_c, 0, 7, 70
2, 105294, Control_c, 0, 7, 69
2, 105295, Control_c, 0, 7, 68
2, 105296, Control_c, 0, 7, 67
2, 105297, Control_c, 0, 7, 66
2, 105298, Control_c, 0, 7, 65
2, 105299, Control_c, 0, 7, 64
2, 105300, Control_c, 0, 7, 63
2, 105301, Control_c, 0, 7, 62
2, 105302, Control_c, 0, 7, 60
2, 105303, Control_c, 0, 7, 59
2, 105304, Control_c, 0, 7, 58
2, 105305, Control_c, 0, 7, 57
2, 105306, Control_c, 0, 7, 56
2, 105307, Control_c, 0, 7, 55
2, 105308, Control_c, 0, 7, 54
2, 105309, Control_c, 0, 7, 53
2, 105310, Control_c, 0, 7, 52
2, 105311, Control_c, 0, 7, 51
2, 105312, Control_c, 0, 7, 50
2, 105313, Control_c, 0, 7, 49
2, 105314, Control_c, 0, 7, 48
2, 105315, Control_c, 0, 7, 47
2, 105316, Control_c, 0, 7, 46
2, 105317, Control_c, 0, 7, 45
2, 105318, Control_c, 0, 7, 44
2, 105319, Control_c, 0, 7, 43
2, 105320, Control_c, 0, 7, 42
2, 105321, Control_c, 0, 7, 40
2, 105322, Control_c, 0, 7, 39
2, 105323, Control_c, 0, 7, 38
2, 105324, Control_c, 0, 7, 37
2, 105325, Control_c, 0, 7, 36
2, 105326, Control_c, 0, 7, 35
2, 105327, Control_c, 0, 7, 34
2, 105328, Control_c, 0, 7, 33
2, 105329, Control_c, 0, 7, 32
2, 105330, Control_c, 0, 7, 31
2, 105331, Control_c, 0, 7, 30
2, 105332, Control_c, 0, 7, 29
2, 105333, Control_c, 0, 7, 28
2, 105334, Control_c, 0, 7, 27
2, 105335, Control_c, 0, 7, 26
2, 105336, Control_c, 0, 7, 25
2, 105337, Control_c, 0, 7, 24
2, 105338, Control_c, 0, 7, 23
2, 105339, Control_c, 0, 7, 22
2, 105340, Control_c, 0, 7, 21
2, 105341, Control_c, 0, 7, 19
2, 105342, Control_c, 0, 7, 18
2, 105343, Control_c, 0, 7, 17
2, 105344, Control_c, 0, 7, 16
2, 105345, Note_on_c, 0, 72, 0
2, 105345, Control_c, 0, 7, 15
2, 105346, Control_c, 0, 7, 14
2, 105347, Control_c, 0, 7, 13
2, 105348, Control_c, 0, 7, 12
2, 105349, Control_c, 0, 7, 11
2, 105350, Control_c, 0, 7, 10
2, 105351, Control_c, 0, 7, 9
2, 105352, Control_c, 0, 7, 8
2, 105353, Control_c, 0, 7, 7
2, 105354, Control_c, 0, 7, 6
2, 105355, Control_c, 0, 7, 5
2, 105356, Control_c, 0, 7, 4
2, 105357, Control_c, 0, 7, 3
2, 105358, Control_c, 0, 7, 2
2, 105359, Control_c, 0, 7, 1
2, 105360, Control_c, 0, 7, 0
2, 105360, End_track
3, 0, Start_track
3, 0, MIDI_port, 0
3, 0, Program_c, 1, 80
3, 0, Control_c, 1, 7, 100
3, 0, Control_c, 1, 10, 126
3, 1865, Control_c, 1, 7, 99
3, 1881, Control_c, 1, 10, 125
3, 2901, Program_c, 1, 69
3, 3060, Note_on_c, 1, 67, 90
3, 3225, Note_on_c, 1, 67, 0
3, 3240, Note_on_c, 1, 67, 90
3, 3345, Note_on_c, 1, 67, 0
3, 3420, Note_on_c, 1, 72, 90
3, 3585, Note_on_c, 1, 72, 0
3, 3600, Note_on_c, 1, 68, 90
3, 3705, Note_on_c, 1, 68, 0
3, 3780, Note_on_c, 1, 67, 90
3, 3892, Note_on_c, 1, 67, 0
3, 3900, Note_on_c, 1, 65, 90
3, 4065, Note_on_c, 1, 65, 0
3, 4140, Note_on_c, 1, 68, 90
3, 4305, Note_on_c, 1, 68, 0
3, 4320, Note_on_c, 1, 67, 90
3, 4425, Note_on_c, 1, 67, 0
3, 4500, Note_on_c, 1, 71, 90
3, 4665, Note_on_c, 1, 71, 0
3, 4680, Note_on_c, 1, 72, 90
3, 4785, Note_on_c, 1, 72, 0
3, 4860, Note_on_c, 1, 68, 90
3, 5025, Note_on_c, 1, 68, 0
3, 5040, Note_on_c, 1, 67, 90
3, 5145, Note_on_c, 1, 67, 0
3, 5220, Note_on_c, 1, 68, 90
3, 5332, Note_on_c, 1, 68, 0
3, 5340, Note_on_c, 1, 67, 90
3, 5392, Note_on_c, 1, 67, 0
3, 5400, Note_on_c, 1, 65, 90
3, 5505, Note_on_c, 1, 65, 0
3, 5580, Note_on_c, 1, 65, 90
3, 5718, Note_on_c, 1, 65, 0
3, 5730, Note_on_c, 1, 67, 90
3, 5756, Note_on_c, 1, 67, 0
3, 5760, Note_on_c, 1, 63, 90
3, 5865, Note_on_c, 1, 63, 0
3, 5940, Note_on_c, 1, 67, 90
3, 6105, Note_on_c, 1, 67, 0
3, 6120, Note_on_c, 1, 67, 90
3, 6225, Note_on_c, 1, 67, 0
3, 6300, Note_on_c, 1, 67, 90
3, 6465, Note_on_c, 1, 67, 0
3, 6480, Note_on_c, 1, 65, 90
3, 6585, Note_on_c, 1, 65, 0
3, 6660, Note_on_c, 1, 63, 90
3, 6825, Note_on_c, 1, 63, 0
3, 6840, Note_on_c, 1, 62, 90
3, 6945, Note_on_c, 1, 62, 0
3, 7020, Note_on_c, 1, 63, 90
3, 7185, Note_on_c, 1, 63, 0
3, 7200, Note_on_c, 1, 62, 90
3, 7305, Note_on_c, 1, 62, 0
3, 7380, Note_on_c, 1, 59, 90
3, 7545, Note_on_c, 1, 59, 0
3, 7560, Note_on_c, 1, 60, 90
3, 7665, Note_on_c, 1, 60, 0
3, 7740, Note_on_c, 1, 56, 90
3, 7852, Note_on_c, 1, 56, 0
3, 7860, Note_on_c, 1, 55, 90
3, 8025, Note_on_c, 1, 55, 0
3, 8100, Note_on_c, 1, 56, 90
3, 8325, Note_on_c, 1, 56, 0
3, 8340, Note_on_c, 1, 56, 90
3, 8392, Note_on_c, 1, 56, 0
3, 8400, Note_on_c, 1, 55, 90
3, 8478, Note_on_c, 1, 55, 0
3, 8490, Note_on_c, 1, 53, 90
3, 8516, Note_on_c, 1, 53, 0
3, 8520, Note_on_c, 1, 51, 90
3, 8625, Note_on_c, 1, 51, 0
3, 8940, Note_on_c, 1, 62, 90
3, 8992, Note_on_c, 1, 62, 0
3, 9000, Note_on_c, 1, 67, 90
3, 9052, Note_on_c, 1, 67, 0
3, 9060, Note_on_c, 1, 68, 90
3, 9112, Note_on_c, 1, 68, 0
3, 9120, Note_on_c, 1, 70, 90
3, 9172, Note_on_c, 1, 70, 0
3, 9180, Note_on_c, 1, 72, 90
3, 9232, Note_on_c, 1, 72, 0
3, 9240, Note_on_c, 1, 68, 90
3, 9405, Note_on_c, 1, 68, 0
3, 9420, Note_on_c, 1, 68, 90
3, 9472, Note_on_c, 1, 68, 0
3, 9480, Note_on_c, 1, 67, 90
3, 9532, Note_on_c, 1, 67, 0
3, 9540, Note_on_c, 1, 65, 90
3, 9592, Note_on_c, 1, 65, 0
3, 9600, Note_on_c, 1, 63, 90
3, 9652, Note_on_c, 1, 63, 0
3, 9660, Note_on_c, 1, 60, 90
3, 9712, Note_on_c, 1, 60, 0
3, 9720, Note_on_c, 1, 65, 90
3, 9772, Note_on_c, 1, 65, 0
3, 9780, Note_on_c, 1, 67, 90
3, 9832, Note_on_c, 1, 67, 0
3, 9840, Note_on_c, 1, 68, 90
3, 10012, Note_on_c, 1, 68, 0
3, 10020, Note_on_c, 1, 68, 90
3, 10072, Note_on_c, 1, 68, 0
3, 10080, Note_on_c, 1, 67, 90
3, 10132, Note_on_c, 1, 67, 0
3, 10140, Note_on_c, 1, 72, 90
3, 10192, Note_on_c, 1, 72, 0
3, 10200, Note_on_c, 1, 71, 90
3, 10305, Note_on_c, 1, 71, 0
3, 10320, Note_on_c, 1, 72, 90
3, 10485, Note_on_c, 1, 72, 0
3, 10500, Note_on_c, 1, 68, 90
3, 10552, Note_on_c, 1, 68, 0
3, 10560, Note_on_c, 1, 67, 90
3, 10612, Note_on_c, 1, 67, 0
3, 10620, Note_on_c, 1, 65, 90
3, 10672, Note_on_c, 1, 65, 0
3, 10680, Note_on_c, 1, 63, 90
3, 10732, Note_on_c, 1, 63, 0
3, 10740, Note_on_c, 1, 62, 90
3, 10792, Note_on_c, 1, 62, 0
3, 10800, Note_on_c, 1, 60, 90
3, 11092, Note_on_c, 1, 60, 0
3, 11100, Note_on_c, 1, 59, 90
3, 11152, Note_on_c, 1, 59, 0
3, 11160, Note_on_c, 1, 60, 90
3, 11212, Note_on_c, 1, 60, 0
3, 11220, Note_on_c, 1, 62, 90
3, 11272, Note_on_c, 1, 62, 0
3, 11280, Note_on_c, 1, 63, 90
3, 11332, Note_on_c, 1, 63, 0
3, 11340, Note_on_c, 1, 65, 90
3, 11392, Note_on_c, 1, 65, 0
3, 11400, Note_on_c, 1, 63, 90
3, 11505, Note_on_c, 1, 63, 0
3, 11580, Note_on_c, 1, 60, 90
3, 11606, Note_on_c, 1, 60, 0
3, 11610, Note_on_c, 1, 62, 90
3, 11636, Note_on_c, 1, 62, 0
3, 11640, Note_on_c, 1, 63, 90
3, 11692, Note_on_c, 1, 63, 0
3, 11700, Note_on_c, 1, 63, 90
3, 11726, Note_on_c, 1, 63, 0
3, 11730, Note_on_c, 1, 65, 90
3, 11756, Note_on_c, 1, 65, 0
3, 11760, Note_on_c, 1, 67, 90
3, 12052, Note_on_c, 1, 67, 0
3, 12060, Note_on_c, 1, 65, 90
3, 12086, Note_on_c, 1, 65, 0
3, 12090, Note_on_c, 1, 67, 90
3, 12116, Note_on_c, 1, 67, 0
3, 12120, Note_on_c, 1, 68, 90
3, 12412, Note_on_c, 1, 68, 0
3, 12420, Note_on_c, 1, 67, 90
3, 12446, Note_on_c, 1, 67, 0
3, 12450, Note_on_c, 1, 65, 90
3, 12476, Note_on_c, 1, 65, 0
3, 12480, Note_on_c, 1, 63, 90
3, 12645, Note_on_c, 1, 63, 0
3, 12660, Note_on_c, 1, 62, 90
3, 12686, Note_on_c, 1, 62, 0
3, 12690, Note_on_c, 1, 63, 90
3, 12716, Note_on_c, 1, 63, 0
3, 12720, Note_on_c, 1, 65, 90
3, 12772, Note_on_c, 1, 65, 0
3, 12780, Note_on_c, 1, 68, 90
3, 12832, Note_on_c, 1, 68, 0
3, 12840, Note_on_c, 1, 67, 90
3, 12892, Note_on_c, 1, 67, 0
3, 12900, Note_on_c, 1, 67, 90
3, 12926, Note_on_c, 1, 67, 0
3, 12930, Note_on_c, 1, 69, 90
3, 12956, Note_on_c, 1, 69, 0
3, 12960, Note_on_c, 1, 71, 90
3, 13012, Note_on_c, 1, 71, 0
3, 13020, Note_on_c, 1, 71, 90
3, 13046, Note_on_c, 1, 71, 0
3, 13050, Note_on_c, 1, 72, 90
3, 13076, Note_on_c, 1, 72, 0
3, 13080, Note_on_c, 1, 74, 90
3, 13185, Note_on_c, 1, 74, 0
3, 13200, Note_on_c, 1, 72, 90
3, 13252, Note_on_c, 1, 72, 0
3, 13260, Note_on_c, 1, 75, 90
3, 13286, Note_on_c, 1, 75, 0
3, 13290, Note_on_c, 1, 74, 90
3, 13316, Note_on_c, 1, 74, 0
3, 13320, Note_on_c, 1, 75, 90
3, 13372, Note_on_c, 1, 75, 0
3, 13380, Note_on_c, 1, 72, 90
3, 13432, Note_on_c, 1, 72, 0
3, 13440, Note_on_c, 1, 67, 90
3, 13665, Note_on_c, 1, 67, 0
3, 13740, Note_on_c, 1, 63, 90
3, 13766, Note_on_c, 1, 63, 0
3, 13770, Note_on_c, 1, 62, 90
3, 13796, Note_on_c, 1, 62, 0
3, 13800, Note_on_c, 1, 63, 90
3, 13852, Note_on_c, 1, 63, 0
3, 13860, Note_on_c, 1, 60, 90
3, 13886, Note_on_c, 1, 60, 0
3, 13890, Note_on_c, 1, 59, 90
3, 13916, Note_on_c, 1, 59, 0
3, 13920, Note_on_c, 1, 60, 90
3, 13972, Note_on_c, 1, 60, 0
3, 13980, Note_on_c, 1, 63, 90
3, 14006, Note_on_c, 1, 63, 0
3, 14010, Note_on_c, 1, 62, 90
3, 14036, Note_on_c, 1, 62, 0
3, 14040, Note_on_c, 1, 63, 90
3, 14092, Note_on_c, 1, 63, 0
3, 14100, Note_on_c, 1, 60, 90
3, 14152, Note_on_c, 1, 60, 0
3, 14160, Note_on_c, 1, 60, 90
3, 14212, Note_on_c, 1, 60, 0
3, 14220, Note_on_c, 1, 59, 90
3, 14272, Note_on_c, 1, 59, 0
3, 14280, Note_on_c, 1, 60, 90
3, 14385, Note_on_c, 1, 60, 0
3, 14560, Program_c, 1, 68
3, 14580, Note_on_c, 1, 67, 102
3, 14606, Note_on_c, 1, 67, 0
3, 14610, Note_on_c, 1, 66, 103
3, 14636, Note_on_c, 1, 66, 0
3, 14640, Note_on_c, 1, 67, 103
3, 14692, Note_on_c, 1, 67, 0
3, 14700, Note_on_c, 1, 74, 101
3, 14726, Note_on_c, 1, 74, 0
3, 14730, Note_on_c, 1, 62, 103
3, 14756, Note_on_c, 1, 62, 0
3, 14760, Note_on_c, 1, 67, 104
3, 14865, Note_on_c, 1, 67, 0
3, 14940, Note_on_c, 1, 67, 100
3, 14966, Note_on_c, 1, 67, 0
3, 14970, Note_on_c, 1, 63, 102
3, 14996, Note_on_c, 1, 63, 0
3, 15000, Note_on_c, 1, 68, 102
3, 15172, Note_on_c, 1, 68, 0
3, 15180, Note_on_c, 1, 65, 103
3, 15232, Note_on_c, 1, 65, 0
3, 15240, Note_on_c, 1, 67, 102
3, 15345, Note_on_c, 1, 67, 0
3, 15360, Note_on_c, 1, 63, 101
3, 15465, Note_on_c, 1, 63, 0
3, 15660, Note_on_c, 1, 74, 102
3, 15686, Note_on_c, 1, 74, 0
3, 15690, Note_on_c, 1, 77, 101
3, 15716, Note_on_c, 1, 77, 0
3, 15720, Note_on_c, 1, 71, 101
3, 15825, Note_on_c, 1, 71, 0
3, 16020, Note_on_c, 1, 67, 99
3, 16046, Note_on_c, 1, 67, 0
3, 16050, Note_on_c, 1, 65, 101
3, 16076, Note_on_c, 1, 65, 0
3, 16080, Note_on_c, 1, 67, 100
3, 16185, Note_on_c, 1, 67, 0
3, 16380, Note_on_c, 1, 67, 104
3, 16432, Note_on_c, 1, 67, 0
3, 16440, Note_on_c, 1, 67, 103
3, 16545, Note_on_c, 1, 67, 0
3, 16740, Note_on_c, 1, 74, 102
3, 16766, Note_on_c, 1, 74, 0
3, 16770, Note_on_c, 1, 69, 100
3, 16796, Note_on_c, 1, 69, 0
3, 16800, Note_on_c, 1, 71, 101
3, 16905, Note_on_c, 1, 71, 0
3, 16980, Note_on_c, 1, 72, 103
3, 17006, Note_on_c, 1, 72, 0
3, 17010, Note_on_c, 1, 69, 90
3, 17036, Note_on_c, 1, 69, 0
3, 17040, Note_on_c, 1, 71, 101
3, 17145, Note_on_c, 1, 71, 0
3, 17160, Note_on_c, 1, 72, 101
3, 17265, Note_on_c, 1, 72, 0
3, 17310, Note_on_c, 1, 62, 105
3, 17336, Note_on_c, 1, 62, 0
3, 17340, Note_on_c, 1, 63, 102
3, 17366, Note_on_c, 1, 63, 0
3, 17370, Note_on_c, 1, 65, 98
3, 17396, Note_on_c, 1, 65, 0
3, 17400, Note_on_c, 1, 67, 101
3, 17625, Note_on_c, 1, 67, 0
3, 17670, Note_on_c, 1, 67, 101
3, 17696, Note_on_c, 1, 67, 0
3, 17700, Note_on_c, 1, 69, 100
3, 17726, Note_on_c, 1, 69, 0
3, 17730, Note_on_c, 1, 71, 101
3, 17756, Note_on_c, 1, 71, 0
3, 17760, Note_on_c, 1, 72, 103
3, 17985, Note_on_c, 1, 72, 0
3, 18030, Note_on_c, 1, 69, 98
3, 18056, Note_on_c, 1, 69, 0
3, 18060, Note_on_c, 1, 71, 99
3, 18086, Note_on_c, 1, 71, 0
3, 18090, Note_on_c, 1, 72, 102
3, 18116, Note_on_c, 1, 72, 0
3, 18120, Note_on_c, 1, 71, 101
3, 18172, Note_on_c, 1, 71, 0
3, 18180, Note_on_c, 1, 67, 103
3, 18345, Note_on_c, 1, 67, 0
3, 18390, Note_on_c, 1, 67, 90
3, 18416, Note_on_c, 1, 67, 0
3, 18420, Note_on_c, 1, 68, 99
3, 18446, Note_on_c, 1, 68, 0
3, 18450, Note_on_c, 1, 70, 101
3, 18476, Note_on_c, 1, 70, 0
3, 18480, Note_on_c, 1, 72, 101
3, 18532, Note_on_c, 1, 72, 0
3, 18540, Note_on_c, 1, 68, 101
3, 18592, Note_on_c, 1, 68, 0
3, 18600, Note_on_c, 1, 67, 101
3, 18705, Note_on_c, 1, 67, 0
3, 18750, Note_on_c, 1, 57, 100
3, 18776, Note_on_c, 1, 57, 0
3, 18780, Note_on_c, 1, 59, 99
3, 18806, Note_on_c, 1, 59, 0
3, 18810, Note_on_c, 1, 60, 100
3, 18836, Note_on_c, 1, 60, 0
3, 18840, Note_on_c, 1, 62, 100
3, 18945, Note_on_c, 1, 62, 0
3, 18960, Note_on_c, 1, 60, 100
3, 19065, Note_on_c, 1, 60, 0
3, 19110, Note_on_c, 1, 62, 100
3, 19136, Note_on_c, 1, 62, 0
3, 19140, Note_on_c, 1, 63, 101
3, 19166, Note_on_c, 1, 63, 0
3, 19170, Note_on_c, 1, 65, 100
3, 19196, Note_on_c, 1, 65, 0
3, 19200, Note_on_c, 1, 67, 102
3, 19425, Note_on_c, 1, 67, 0
3, 19470, Note_on_c, 1, 63, 90
3, 19496, Note_on_c, 1, 63, 0
3, 19500, Note_on_c, 1, 65, 100
3, 19526, Note_on_c, 1, 65, 0
3, 19530, Note_on_c, 1, 67, 102
3, 19556, Note_on_c, 1, 67, 0
3, 19560, Note_on_c, 1, 68, 102
3, 19665, Note_on_c, 1, 68, 0
3, 19680, Note_on_c, 1, 67, 103
3, 19946, Note_on_c, 1, 67, 0
3, 19950, Note_on_c, 1, 68, 102
3, 19976, Note_on_c, 1, 68, 0
3, 19980, Note_on_c, 1, 67, 102
3, 20006, Note_on_c, 1, 67, 0
3, 20010, Note_on_c, 1, 65, 102
3, 20036, Note_on_c, 1, 65, 0
3, 20040, Note_on_c, 1, 63, 101
3, 20145, Note_on_c, 1, 63, 0
3, 20190, Note_on_c, 1, 65, 100
3, 20216, Note_on_c, 1, 65, 0
3, 20220, Note_on_c, 1, 63, 101
3, 20246, Note_on_c, 1, 63, 0
3, 20250, Note_on_c, 1, 62, 102
3, 20276, Note_on_c, 1, 62, 0
3, 20280, Note_on_c, 1, 60, 101
3, 20306, Note_on_c, 1, 60, 0
3, 20310, Note_on_c, 1, 63, 101
3, 20336, Note_on_c, 1, 63, 0
3, 20340, Note_on_c, 1, 62, 101
3, 20366, Note_on_c, 1, 62, 0
3, 20370, Note_on_c, 1, 60, 99
3, 20396, Note_on_c, 1, 60, 0
3, 20400, Note_on_c, 1, 59, 100
3, 20505, Note_on_c, 1, 59, 0
3, 20550, Note_on_c, 1, 72, 99
3, 20576, Note_on_c, 1, 72, 0
3, 20580, Note_on_c, 1, 71, 98
3, 20606, Note_on_c, 1, 71, 0
3, 20610, Note_on_c, 1, 69, 98
3, 20636, Note_on_c, 1, 69, 0
3, 20640, Note_on_c, 1, 67, 98
3, 20666, Note_on_c, 1, 67, 0
3, 20670, Note_on_c, 1, 68, 97
3, 20696, Note_on_c, 1, 68, 0
3, 20700, Note_on_c, 1, 67, 97
3, 20726, Note_on_c, 1, 67, 0
3, 20730, Note_on_c, 1, 70, 97
3, 20756, Note_on_c, 1, 70, 0
3, 20760, Note_on_c, 1, 68, 97
3, 20865, Note_on_c, 1, 68, 0
3, 21030, Note_on_c, 1, 68, 99
3, 21056, Note_on_c, 1, 68, 0
3, 21060, Note_on_c, 1, 67, 100
3, 21086, Note_on_c, 1, 67, 0
3, 21090, Note_on_c, 1, 65, 101
3, 21116, Note_on_c, 1, 65, 0
3, 21120, Note_on_c, 1, 63, 103
3, 21225, Note_on_c, 1, 63, 0
3, 21390, Note_on_c, 1, 67, 97
3, 21416, Note_on_c, 1, 67, 0
3, 21420, Note_on_c, 1, 65, 99
3, 21446, Note_on_c, 1, 65, 0
3, 21450, Note_on_c, 1, 63, 99
3, 21476, Note_on_c, 1, 63, 0
3, 21480, Note_on_c, 1, 62, 98
3, 21585, Note_on_c, 1, 62, 0
3, 21630, Note_on_c, 1, 72, 100
3, 21656, Note_on_c, 1, 72, 0
3, 21660, Note_on_c, 1, 71, 103
3, 21686, Note_on_c, 1, 71, 0
3, 21690, Note_on_c, 1, 69, 103
3, 21716, Note_on_c, 1, 69, 0
3, 21720, Note_on_c, 1, 71, 101
3, 21825, Note_on_c, 1, 71, 0
3, 21840, Note_on_c, 1, 72, 100
3, 21945, Note_on_c, 1, 72, 0
3, 21990, Note_on_c, 1, 67, 102
3, 22016, Note_on_c, 1, 67, 0
3, 22020, Note_on_c, 1, 65, 102
3, 22046, Note_on_c, 1, 65, 0
3, 22050, Note_on_c, 1, 63, 102
3, 22076, Note_on_c, 1, 63, 0
3, 22080, Note_on_c, 1, 65, 100
3, 22106, Note_on_c, 1, 65, 0
3, 22110, Note_on_c, 1, 68, 99
3, 22136, Note_on_c, 1, 68, 0
3, 22140, Note_on_c, 1, 67, 99
3, 22166, Note_on_c, 1, 67, 0
3, 22170, Note_on_c, 1, 65, 100
3, 22196, Note_on_c, 1, 65, 0
3, 22200, Note_on_c, 1, 63, 102
3, 22305, Note_on_c, 1, 63, 0
3, 22350, Note_on_c, 1, 70, 101
3, 22376, Note_on_c, 1, 70, 0
3, 22380, Note_on_c, 1, 68, 101
3, 22406, Note_on_c, 1, 68, 0
3, 22410, Note_on_c, 1, 67, 99
3, 22436, Note_on_c, 1, 67, 0
3, 22440, Note_on_c, 1, 65, 98
3, 22518, Note_on_c, 1, 65, 0
3, 22530, Note_on_c, 1, 63, 101
3, 22556, Note_on_c, 1, 63, 0
3, 22560, Note_on_c, 1, 62, 103
3, 22638, Note_on_c, 1, 62, 0
3, 22650, Note_on_c, 1, 62, 102
3, 22676, Note_on_c, 1, 62, 0
3, 22680, Note_on_c, 1, 60, 102
3, 22706, Note_on_c, 1, 60, 0
3, 22710, Note_on_c, 1, 63, 103
3, 22736, Note_on_c, 1, 63, 0
3, 22740, Note_on_c, 1, 62, 102
3, 22766, Note_on_c, 1, 62, 0
3, 22770, Note_on_c, 1, 60, 102
3, 22796, Note_on_c, 1, 60, 0
3, 22800, Note_on_c, 1, 59, 102
3, 22905, Note_on_c, 1, 59, 0
3, 22920, Note_on_c, 1, 60, 90
3, 23025, Note_on_c, 1, 60, 0
3, 23290, Program_c, 1, 69
3, 23310, Note_on_c, 1, 62, 115
3, 23336, Note_on_c, 1, 62, 0
3, 23340, Note_on_c, 1, 63, 118
3, 23366, Note_on_c, 1, 63, 0
3, 23370, Note_on_c, 1, 65, 115
3, 23396, Note_on_c, 1, 65, 0
3, 23400, Note_on_c, 1, 67, 115
3, 23426, Note_on_c, 1, 67, 0
3, 23430, Note_on_c, 1, 71, 114
3, 23456, Note_on_c, 1, 71, 0
3, 23460, Note_on_c, 1, 72, 116
3, 23486, Note_on_c, 1, 72, 0
3, 23490, Note_on_c, 1, 74, 114
3, 23516, Note_on_c, 1, 74, 0
3, 23520, Note_on_c, 1, 75, 114
3, 23546, Note_on_c, 1, 75, 0
3, 23550, Note_on_c, 1, 74, 114
3, 23576, Note_on_c, 1, 74, 0
3, 23580, Note_on_c, 1, 72, 114
3, 23606, Note_on_c, 1, 72, 0
3, 23610, Note_on_c, 1, 70, 114
3, 23636, Note_on_c, 1, 70, 0
3, 23640, Note_on_c, 1, 68, 114
3, 23666, Note_on_c, 1, 68, 0
3, 23670, Note_on_c, 1, 60, 114
3, 23696, Note_on_c, 1, 60, 0
3, 23700, Note_on_c, 1, 62, 113
3, 23726, Note_on_c, 1, 62, 0
3, 23730, Note_on_c, 1, 64, 113
3, 23756, Note_on_c, 1, 64, 0
3, 23760, Note_on_c, 1, 65, 114
3, 23786, Note_on_c, 1, 65, 0
3, 23790, Note_on_c, 1, 67, 113
3, 23816, Note_on_c, 1, 67, 0
3, 23820, Note_on_c, 1, 65, 113
3, 23846, Note_on_c, 1, 65, 0
3, 23850, Note_on_c, 1, 63, 113
3, 23876, Note_on_c, 1, 63, 0
3, 23880, Note_on_c, 1, 62, 112
3, 23906, Note_on_c, 1, 62, 0
3, 23910, Note_on_c, 1, 68, 112
3, 23936, Note_on_c, 1, 68, 0
3, 23940, Note_on_c, 1, 67, 113
3, 23966, Note_on_c, 1, 67, 0
3, 23970, Note_on_c, 1, 65, 113
3, 23996, Note_on_c, 1, 65, 0
3, 24000, Note_on_c, 1, 63, 116
3, 24026, Note_on_c, 1, 63, 0
3, 24030, Note_on_c, 1, 65, 114
3, 24056, Note_on_c, 1, 65, 0
3, 24060, Note_on_c, 1, 63, 114
3, 24086, Note_on_c, 1, 63, 0
3, 24090, Note_on_c, 1, 62, 114
3, 24116, Note_on_c, 1, 62, 0
3, 24120, Note_on_c, 1, 60, 111
3, 24172, Note_on_c, 1, 60, 0
3, 24390, Note_on_c, 1, 66, 117
3, 24416, Note_on_c, 1, 66, 0
3, 24420, Note_on_c, 1, 67, 116
3, 24446, Note_on_c, 1, 67, 0
3, 24450, Note_on_c, 1, 69, 116
3, 24476, Note_on_c, 1, 69, 0
3, 24480, Note_on_c, 1, 71, 116
3, 24506, Note_on_c, 1, 71, 0
3, 24510, Note_on_c, 1, 69, 115
3, 24536, Note_on_c, 1, 69, 0
3, 24540, Note_on_c, 1, 71, 115
3, 24566, Note_on_c, 1, 71, 0
3, 24570, Note_on_c, 1, 72, 115
3, 24596, Note_on_c, 1, 72, 0
3, 24600, Note_on_c, 1, 74, 116
3, 24746, Note_on_c, 1, 74, 0
3, 24750, Note_on_c, 1, 67, 114
3, 24776, Note_on_c, 1, 67, 0
3, 24780, Note_on_c, 1, 69, 114
3, 24806, Note_on_c, 1, 69, 0
3, 24810, Note_on_c, 1, 71, 113
3, 24836, Note_on_c, 1, 71, 0
3, 24840, Note_on_c, 1, 72, 112
3, 24945, Note_on_c, 1, 72, 0
3, 25110, Note_on_c, 1, 59, 115
3, 25136, Note_on_c, 1, 59, 0
3, 25140, Note_on_c, 1, 60, 114
3, 25166, Note_on_c, 1, 60, 0
3, 25170, Note_on_c, 1, 62, 114
3, 25196, Note_on_c, 1, 62, 0
3, 25200, Note_on_c, 1, 63, 115
3, 25226, Note_on_c, 1, 63, 0
3, 25230, Note_on_c, 1, 60, 116
3, 25256, Note_on_c, 1, 60, 0
3, 25260, Note_on_c, 1, 62, 115
3, 25286, Note_on_c, 1, 62, 0
3, 25290, Note_on_c, 1, 63, 115
3, 25316, Note_on_c, 1, 63, 0
3, 25320, Note_on_c, 1, 65, 115
3, 25466, Note_on_c, 1, 65, 0
3, 25470, Note_on_c, 1, 68, 116
3, 25496, Note_on_c, 1, 68, 0
3, 25500, Note_on_c, 1, 67, 115
3, 25526, Note_on_c, 1, 67, 0
3, 25530, Note_on_c, 1, 65, 113
3, 25556, Note_on_c, 1, 65, 0
3, 25560, Note_on_c, 1, 63, 113
3, 25586, Note_on_c, 1, 63, 0
3, 25590, Note_on_c, 1, 67, 112
3, 25616, Note_on_c, 1, 67, 0
3, 25620, Note_on_c, 1, 65, 114
3, 25646, Note_on_c, 1, 65, 0
3, 25650, Note_on_c, 1, 63, 110
3, 25676, Note_on_c, 1, 63, 0
3, 25680, Note_on_c, 1, 62, 111
3, 25785, Note_on_c, 1, 62, 0
3, 25800, Note_on_c, 1, 60, 115
3, 25826, Note_on_c, 1, 60, 0
3, 25830, Note_on_c, 1, 60, 115
3, 25856, Note_on_c, 1, 60, 0
3, 25860, Note_on_c, 1, 63, 113
3, 25886, Note_on_c, 1, 63, 0
3, 25890, Note_on_c, 1, 60, 113
3, 25916, Note_on_c, 1, 60, 0
3, 25920, Note_on_c, 1, 67, 112
3, 25998, Note_on_c, 1, 67, 0
3, 26010, Note_on_c, 1, 65, 116
3, 26036, Note_on_c, 1, 65, 0
3, 26040, Note_on_c, 1, 63, 113
3, 26046, Note_on_c, 1, 63, 0
3, 26047, Note_on_c, 1, 65, 113
3, 26054, Note_on_c, 1, 65, 0
3, 26055, Note_on_c, 1, 63, 115
3, 26061, Note_on_c, 1, 63, 0
3, 26062, Note_on_c, 1, 65, 116
3, 26069, Note_on_c, 1, 65, 0
3, 26070, Note_on_c, 1, 63, 116
3, 26076, Note_on_c, 1, 63, 0
3, 26077, Note_on_c, 1, 65, 116
3, 26084, Note_on_c, 1, 65, 0
3, 26085, Note_on_c, 1, 63, 116
3, 26091, Note_on_c, 1, 63, 0
3, 26092, Note_on_c, 1, 65, 116
3, 26099, Note_on_c, 1, 65, 0
3, 26100, Note_on_c, 1, 63, 116
3, 26152, Note_on_c, 1, 63, 0
3, 26160, Note_on_c, 1, 62, 115
3, 26265, Note_on_c, 1, 62, 0
3, 26340, Note_on_c, 1, 67, 116
3, 26505, Note_on_c, 1, 67, 0
3, 26520, Note_on_c, 1, 68, 115
3, 26625, Note_on_c, 1, 68, 0
3, 26760, Note_on_c, 1, 70, 114
3, 26865, Note_on_c, 1, 70, 0
3, 26910, Note_on_c, 1, 63, 114
3, 26936, Note_on_c, 1, 63, 0
3, 26940, Note_on_c, 1, 67, 114
3, 26966, Note_on_c, 1, 67, 0
3, 26970, Note_on_c, 1, 63, 109
3, 26996, Note_on_c, 1, 63, 0
3, 27000, Note_on_c, 1, 68, 111
3, 27225, Note_on_c, 1, 68, 0
3, 27240, Note_on_c, 1, 67, 113
3, 27345, Note_on_c, 1, 67, 0
3, 27390, Note_on_c, 1, 67, 112
3, 27416, Note_on_c, 1, 67, 0
3, 27420, Note_on_c, 1, 71, 112
3, 27446, Note_on_c, 1, 71, 0
3, 27450, Note_on_c, 1, 67, 112
3, 27476, Note_on_c, 1, 67, 0
3, 27480, Note_on_c, 1, 74, 113
3, 27506, Note_on_c, 1, 74, 0
3, 27510, Note_on_c, 1, 71, 112
3, 27536, Note_on_c, 1, 71, 0
3, 27540, Note_on_c, 1, 74, 113
3, 27566, Note_on_c, 1, 74, 0
3, 27570, Note_on_c, 1, 71, 113
3, 27596, Note_on_c, 1, 71, 0
3, 27600, Note_on_c, 1, 72, 112
3, 27705, Note_on_c, 1, 72, 0
3, 27750, Note_on_c, 1, 63, 115
3, 27776, Note_on_c, 1, 63, 0
3, 27780, Note_on_c, 1, 67, 112
3, 27806, Note_on_c, 1, 67, 0
3, 27810, Note_on_c, 1, 63, 111
3, 27836, Note_on_c, 1, 63, 0
3, 27840, Note_on_c, 1, 68, 113
3, 27945, Note_on_c, 1, 68, 0
3, 27960, Note_on_c, 1, 67, 113
3, 28065, Note_on_c, 1, 67, 0
3, 28110, Note_on_c, 1, 63, 114
3, 28136, Note_on_c, 1, 63, 0
3, 28140, Note_on_c, 1, 67, 113
3, 28166, Note_on_c, 1, 67, 0
3, 28170, Note_on_c, 1, 63, 112
3, 28196, Note_on_c, 1, 63, 0
3, 28200, Note_on_c, 1, 68, 110
3, 28305, Note_on_c, 1, 68, 0
3, 28320, Note_on_c, 1, 67, 111
3, 28425, Note_on_c, 1, 67, 0
3, 28470, Note_on_c, 1, 63, 110
3, 28496, Note_on_c, 1, 63, 0
3, 28500, Note_on_c, 1, 67, 110
3, 28526, Note_on_c, 1, 67, 0
3, 28530, Note_on_c, 1, 63, 114
3, 28556, Note_on_c, 1, 63, 0
3, 28560, Note_on_c, 1, 62, 112
3, 28665, Note_on_c, 1, 62, 0
3, 28680, Note_on_c, 1, 60, 114
3, 28785, Note_on_c, 1, 60, 0
3, 28920, Note_on_c, 1, 67, 112
3, 29025, Note_on_c, 1, 67, 0
3, 29040, Note_on_c, 1, 67, 111
3, 29145, Note_on_c, 1, 67, 0
3, 29280, Note_on_c, 1, 67, 112
3, 29385, Note_on_c, 1, 67, 0
3, 29400, Note_on_c, 1, 65, 110
3, 29505, Note_on_c, 1, 65, 0
3, 29640, Note_on_c, 1, 65, 111
3, 29745, Note_on_c, 1, 65, 0
3, 29760, Note_on_c, 1, 63, 112
3, 29865, Note_on_c, 1, 63, 0
3, 30000, Note_on_c, 1, 65, 114
3, 30105, Note_on_c, 1, 65, 0
3, 30120, Note_on_c, 1, 62, 113
3, 30225, Note_on_c, 1, 62, 0
3, 30360, Note_on_c, 1, 62, 114
3, 30465, Note_on_c, 1, 62, 0
3, 30480, Note_on_c, 1, 60, 113
3, 30585, Note_on_c, 1, 60, 0
3, 30720, Note_on_c, 1, 67, 116
3, 30825, Note_on_c, 1, 67, 0
3, 30840, Note_on_c, 1, 67, 115
3, 30945, Note_on_c, 1, 67, 0
3, 31080, Note_on_c, 1, 65, 116
3, 31185, Note_on_c, 1, 65, 0
3, 31200, Note_on_c, 1, 62, 114
3, 31305, Note_on_c, 1, 62, 0
3, 31440, Note_on_c, 1, 62, 115
3, 31545, Note_on_c, 1, 62, 0
3, 31560, Note_on_c, 1, 60, 119
3, 31660, Program_c, 1, 42
3, 31665, Note_on_c, 1, 60, 0
3, 31800, Note_on_c, 1, 60, 99
3, 31826, Note_on_c, 1, 60, 0
3, 31830, Note_on_c, 1, 63, 101
3, 31856, Note_on_c, 1, 63, 0
3, 31860, Note_on_c, 1, 62, 102
3, 31886, Note_on_c, 1, 62, 0
3, 31890, Note_on_c, 1, 60, 101
3, 31916, Note_on_c, 1, 60, 0
3, 31920, Note_on_c, 1, 59, 101
3, 31946, Note_on_c, 1, 59, 0
3, 31950, Note_on_c, 1, 60, 101
3, 31976, Note_on_c, 1, 60, 0
3, 31980, Note_on_c, 1, 59, 101
3, 32006, Note_on_c, 1, 59, 0
3, 32010, Note_on_c, 1, 57, 101
3, 32036, Note_on_c, 1, 57, 0
3, 32040, Note_on_c, 1, 55, 101
3, 32066, Note_on_c, 1, 55, 0
3, 32070, Note_on_c, 1, 53, 101
3, 32096, Note_on_c, 1, 53, 0
3, 32100, Note_on_c, 1, 51, 101
3, 32126, Note_on_c, 1, 51, 0
3, 32130, Note_on_c, 1, 50, 101
3, 32156, Note_on_c, 1, 50, 0
3, 32160, Note_on_c, 1, 48, 99
3, 32186, Note_on_c, 1, 48, 0
3, 32190, Note_on_c, 1, 70, 100
3, 32216, Note_on_c, 1, 70, 0
3, 32220, Note_on_c, 1, 68, 101
3, 32246, Note_on_c, 1, 68, 0
3, 32250, Note_on_c, 1, 67, 100
3, 32276, Note_on_c, 1, 67, 0
3, 32280, Note_on_c, 1, 68, 98
3, 32306, Note_on_c, 1, 68, 0
3, 32310, Note_on_c, 1, 70, 99
3, 32336, Note_on_c, 1, 70, 0
3, 32340, Note_on_c, 1, 68, 100
3, 32366, Note_on_c, 1, 68, 0
3, 32370, Note_on_c, 1, 67, 99
3, 32396, Note_on_c, 1, 67, 0
3, 32400, Note_on_c, 1, 65, 100
3, 32426, Note_on_c, 1, 65, 0
3, 32430, Note_on_c, 1, 63, 100
3, 32456, Note_on_c, 1, 63, 0
3, 32460, Note_on_c, 1, 62, 100
3, 32486, Note_on_c, 1, 62, 0
3, 32490, Note_on_c, 1, 60, 100
3, 32516, Note_on_c, 1, 60, 0
3, 32520, Note_on_c, 1, 59, 101
3, 32546, Note_on_c, 1, 59, 0
3, 32550, Note_on_c, 1, 62, 100
3, 32576, Note_on_c, 1, 62, 0
3, 32580, Note_on_c, 1, 60, 100
3, 32606, Note_on_c, 1, 60, 0
3, 32610, Note_on_c, 1, 59, 100
3, 32636, Note_on_c, 1, 59, 0
3, 32640, Note_on_c, 1, 60, 102
3, 32666, Note_on_c, 1, 60, 0
3, 32670, Note_on_c, 1, 62, 104
3, 32696, Note_on_c, 1, 62, 0
3, 32700, Note_on_c, 1, 60, 103
3, 32726, Note_on_c, 1, 60, 0
3, 32730, Note_on_c, 1, 58, 103
3, 32756, Note_on_c, 1, 58, 0
3, 32760, Note_on_c, 1, 56, 103
3, 32786, Note_on_c, 1, 56, 0
3, 32790, Note_on_c, 1, 55, 102
3, 32816, Note_on_c, 1, 55, 0
3, 32820, Note_on_c, 1, 53, 102
3, 32846, Note_on_c, 1, 53, 0
3, 32850, Note_on_c, 1, 51, 102
3, 32876, Note_on_c, 1, 51, 0
3, 32880, Note_on_c, 1, 50, 101
3, 32906, Note_on_c, 1, 50, 0
3, 32910, Note_on_c, 1, 51, 100
3, 32936, Note_on_c, 1, 51, 0
3, 32940, Note_on_c, 1, 50, 100
3, 32966, Note_on_c, 1, 50, 0
3, 32970, Note_on_c, 1, 48, 100
3, 32996, Note_on_c, 1, 48, 0
3, 33000, Note_on_c, 1, 47, 100
3, 33026, Note_on_c, 1, 47, 0
3, 33030, Note_on_c, 1, 48, 99
3, 33056, Note_on_c, 1, 48, 0
3, 33060, Note_on_c, 1, 47, 99
3, 33086, Note_on_c, 1, 47, 0
3, 33090, Note_on_c, 1, 45, 99
3, 33116, Note_on_c, 1, 45, 0
3, 33120, Note_on_c, 1, 43, 97
3, 33146, Note_on_c, 1, 43, 0
3, 33150, Note_on_c, 1, 45, 98
3, 33176, Note_on_c, 1, 45, 0
3, 33180, Note_on_c, 1, 47, 99
3, 33206, Note_on_c, 1, 47, 0
3, 33210, Note_on_c, 1, 48, 99
3, 33236, Note_on_c, 1, 48, 0
3, 33240, Note_on_c, 1, 47, 99
3, 33266, Note_on_c, 1, 47, 0
3, 33270, Note_on_c, 1, 50, 102
3, 33296, Note_on_c, 1, 50, 0
3, 33300, Note_on_c, 1, 48, 102
3, 33326, Note_on_c, 1, 48, 0
3, 33330, Note_on_c, 1, 47, 102
3, 33356, Note_on_c, 1, 47, 0
3, 33360, Note_on_c, 1, 48, 102
3, 33386, Note_on_c, 1, 48, 0
3, 33390, Note_on_c, 1, 50, 102
3, 33416, Note_on_c, 1, 50, 0
3, 33420, Note_on_c, 1, 51, 103
3, 33446, Note_on_c, 1, 51, 0
3, 33450, Note_on_c, 1, 53, 103
3, 33476, Note_on_c, 1, 53, 0
3, 33480, Note_on_c, 1, 55, 102
3, 33506, Note_on_c, 1, 55, 0
3, 33510, Note_on_c, 1, 57, 99
3, 33536, Note_on_c, 1, 57, 0
3, 33540, Note_on_c, 1, 59, 100
3, 33566, Note_on_c, 1, 59, 0
3, 33570, Note_on_c, 1, 60, 101
3, 33596, Note_on_c, 1, 60, 0
3, 33600, Note_on_c, 1, 62, 102
3, 33626, Note_on_c, 1, 62, 0
3, 33630, Note_on_c, 1, 65, 101
3, 33656, Note_on_c, 1, 65, 0
3, 33660, Note_on_c, 1, 63, 101
3, 33686, Note_on_c, 1, 63, 0
3, 33690, Note_on_c, 1, 62, 102
3, 33716, Note_on_c, 1, 62, 0
3, 33720, Note_on_c, 1, 63, 101
3, 33746, Note_on_c, 1, 63, 0
3, 33750, Note_on_c, 1, 67, 100
3, 33776, Note_on_c, 1, 67, 0
3, 33780, Note_on_c, 1, 72, 99
3, 33806, Note_on_c, 1, 72, 0
3, 33810, Note_on_c, 1, 70, 100
3, 33836, Note_on_c, 1, 70, 0
3, 33840, Note_on_c, 1, 68, 100
3, 33866, Note_on_c, 1, 68, 0
3, 33870, Note_on_c, 1, 67, 100
3, 33896, Note_on_c, 1, 67, 0
3, 33900, Note_on_c, 1, 65, 100
3, 33926, Note_on_c, 1, 65, 0
3, 33930, Note_on_c, 1, 63, 100
3, 33956, Note_on_c, 1, 63, 0
3, 33960, Note_on_c, 1, 62, 100
3, 33986, Note_on_c, 1, 62, 0
3, 33990, Note_on_c, 1, 63, 99
3, 34016, Note_on_c, 1, 63, 0
3, 34020, Note_on_c, 1, 62, 100
3, 34046, Note_on_c, 1, 62, 0
3, 34050, Note_on_c, 1, 60, 99
3, 34076, Note_on_c, 1, 60, 0
3, 34080, Note_on_c, 1, 59, 97
3, 34106, Note_on_c, 1, 59, 0
3, 34110, Note_on_c, 1, 60, 98
3, 34136, Note_on_c, 1, 60, 0
3, 34140, Note_on_c, 1, 62, 99
3, 34166, Note_on_c, 1, 62, 0
3, 34170, Note_on_c, 1, 63, 102
3, 34196, Note_on_c, 1, 63, 0
3, 34200, Note_on_c, 1, 62, 99
3, 34226, Note_on_c, 1, 62, 0
3, 34230, Note_on_c, 1, 60, 99
3, 34256, Note_on_c, 1, 60, 0
3, 34260, Note_on_c, 1, 59, 99
3, 34286, Note_on_c, 1, 59, 0
3, 34290, Note_on_c, 1, 57, 98
3, 34316, Note_on_c, 1, 57, 0
3, 34320, Note_on_c, 1, 55, 98
3, 34346, Note_on_c, 1, 55, 0
3, 34350, Note_on_c, 1, 56, 99
3, 34376, Note_on_c, 1, 56, 0
3, 34380, Note_on_c, 1, 55, 100
3, 34406, Note_on_c, 1, 55, 0
3, 34410, Note_on_c, 1, 53, 102
3, 34436, Note_on_c, 1, 53, 0
3, 34440, Note_on_c, 1, 51, 101
3, 34466, Note_on_c, 1, 51, 0
3, 34470, Note_on_c, 1, 53, 99
3, 34496, Note_on_c, 1, 53, 0
3, 34500, Note_on_c, 1, 55, 99
3, 34526, Note_on_c, 1, 55, 0
3, 34530, Note_on_c, 1, 56, 99
3, 34556, Note_on_c, 1, 56, 0
3, 34560, Note_on_c, 1, 55, 98
3, 34586, Note_on_c, 1, 55, 0
3, 34590, Note_on_c, 1, 53, 98
3, 34616, Note_on_c, 1, 53, 0
3, 34620, Note_on_c, 1, 51, 99
3, 34646, Note_on_c, 1, 51, 0
3, 34650, Note_on_c, 1, 50, 99
3, 34676, Note_on_c, 1, 50, 0
3, 34680, Note_on_c, 1, 48, 99
3, 34706, Note_on_c, 1, 48, 0
3, 34710, Note_on_c, 1, 51, 103
3, 34736, Note_on_c, 1, 51, 0
3, 34740, Note_on_c, 1, 50, 103
3, 34766, Note_on_c, 1, 50, 0
3, 34770, Note_on_c, 1, 48, 99
3, 34796, Note_on_c, 1, 48, 0
3, 34800, Note_on_c, 1, 47, 100
3, 34852, Note_on_c, 1, 47, 0
3, 34860, Note_on_c, 1, 67, 111
3, 34912, Note_on_c, 1, 67, 0
3, 34920, Note_on_c, 1, 69, 111
3, 34972, Note_on_c, 1, 69, 0
3, 34980, Note_on_c, 1, 71, 109
3, 35032, Note_on_c, 1, 71, 0
3, 35040, Note_on_c, 1, 72, 109
3, 35186, Note_on_c, 1, 72, 0
3, 35190, Note_on_c, 1, 73, 111
3, 35216, Note_on_c, 1, 73, 0
3, 35220, Note_on_c, 1, 70, 111
3, 35246, Note_on_c, 1, 70, 0
3, 35250, Note_on_c, 1, 72, 111
3, 35276, Note_on_c, 1, 72, 0
3, 35280, Note_on_c, 1, 68, 110
3, 35306, Note_on_c, 1, 68, 0
3, 35310, Note_on_c, 1, 70, 111
3, 35336, Note_on_c, 1, 70, 0
3, 35340, Note_on_c, 1, 67, 111
3, 35366, Note_on_c, 1, 67, 0
3, 35370, Note_on_c, 1, 68, 112
3, 35396, Note_on_c, 1, 68, 0
3, 35400, Note_on_c, 1, 65, 112
3, 35426, Note_on_c, 1, 65, 0
3, 35430, Note_on_c, 1, 67, 111
3, 35456, Note_on_c, 1, 67, 0
3, 35460, Note_on_c, 1, 64, 111
3, 35486, Note_on_c, 1, 64, 0
3, 35490, Note_on_c, 1, 67, 109
3, 35516, Note_on_c, 1, 67, 0
3, 35520, Note_on_c, 1, 65, 110
3, 35572, Note_on_c, 1, 65, 0
3, 35820, Note_on_c, 1, 69, 113
3, 35872, Note_on_c, 1, 69, 0
3, 35880, Note_on_c, 1, 74, 114
3, 35906, Note_on_c, 1, 74, 0
3, 35910, Note_on_c, 1, 75, 112
3, 35936, Note_on_c, 1, 75, 0
3, 35940, Note_on_c, 1, 72, 112
3, 35966, Note_on_c, 1, 72, 0
3, 35970, Note_on_c, 1, 74, 110
3, 35996, Note_on_c, 1, 74, 0
3, 36000, Note_on_c, 1, 71, 110
3, 36026, Note_on_c, 1, 71, 0
3, 36030, Note_on_c, 1, 72, 110
3, 36056, Note_on_c, 1, 72, 0
3, 36060, Note_on_c, 1, 69, 110
3, 36086, Note_on_c, 1, 69, 0
3, 36090, Note_on_c, 1, 71, 109
3, 36116, Note_on_c, 1, 71, 0
3, 36120, Note_on_c, 1, 67, 112
3, 36146, Note_on_c, 1, 67, 0
3, 36150, Note_on_c, 1, 68, 112
3, 36176, Note_on_c, 1, 68, 0
3, 36180, Note_on_c, 1, 65, 112
3, 36206, Note_on_c, 1, 65, 0
3, 36210, Note_on_c, 1, 67, 112
3, 36236, Note_on_c, 1, 67, 0
3, 36240, Note_on_c, 1, 63, 110
3, 36292, Note_on_c, 1, 63, 0
3, 36300, Note_on_c, 1, 67, 108
3, 36352, Note_on_c, 1, 67, 0
3, 36360, Note_on_c, 1, 72, 108
3, 36412, Note_on_c, 1, 72, 0
3, 36420, Note_on_c, 1, 70, 110
3, 36472, Note_on_c, 1, 70, 0
3, 36480, Note_on_c, 1, 68, 108
3, 36532, Note_on_c, 1, 68, 0
3, 36540, Note_on_c, 1, 67, 109
3, 36566, Note_on_c, 1, 67, 0
3, 36570, Note_on_c, 1, 65, 108
3, 36596, Note_on_c, 1, 65, 0
3, 36600, Note_on_c, 1, 67, 109
3, 36626, Note_on_c, 1, 67, 0
3, 36630, Note_on_c, 1, 68, 109
3, 36656, Note_on_c, 1, 68, 0
3, 36660, Note_on_c, 1, 65, 110
3, 36686, Note_on_c, 1, 65, 0
3, 36690, Note_on_c, 1, 67, 110
3, 36716, Note_on_c, 1, 67, 0
3, 36720, Note_on_c, 1, 63, 111
3, 36746, Note_on_c, 1, 63, 0
3, 36750, Note_on_c, 1, 65, 111
3, 36776, Note_on_c, 1, 65, 0
3, 36780, Note_on_c, 1, 62, 110
3, 36806, Note_on_c, 1, 62, 0
3, 36810, Note_on_c, 1, 63, 110
3, 36836, Note_on_c, 1, 63, 0
3, 36840, Note_on_c, 1, 60, 110
3, 36892, Note_on_c, 1, 60, 0
3, 36900, Note_on_c, 1, 65, 110
3, 36986, Note_on_c, 1, 65, 0
3, 36990, Note_on_c, 1, 67, 105
3, 37016, Note_on_c, 1, 67, 0
3, 37020, Note_on_c, 1, 63, 106
3, 37046, Note_on_c, 1, 63, 0
3, 37050, Note_on_c, 1, 65, 109
3, 37076, Note_on_c, 1, 65, 0
3, 37080, Note_on_c, 1, 62, 110
3, 37132, Note_on_c, 1, 62, 0
3, 37140, Note_on_c, 1, 59, 108
3, 37192, Note_on_c, 1, 59, 0
3, 37200, Note_on_c, 1, 60, 110
3, 37252, Note_on_c, 1, 60, 0
3, 37260, Note_on_c, 1, 59, 107
3, 37312, Note_on_c, 1, 59, 0
3, 37320, Note_on_c, 1, 60, 107
3, 37545, Note_on_c, 1, 60, 0
3, 37560, Note_on_c, 1, 60, 99
3, 37590, Note_on_c, 1, 60, 0
3, 37590, Note_on_c, 1, 63, 97
3, 37620, Note_on_c, 1, 63, 0
3, 37620, Note_on_c, 1, 62, 97
3, 37650, Note_on_c, 1, 62, 0
3, 37650, Note_on_c, 1, 60, 97
3, 37676, Note_on_c, 1, 60, 0
3, 37680, Note_on_c, 1, 67, 97
3, 37905, Note_on_c, 1, 67, 0
3, 37920, Note_on_c, 1, 63, 101
3, 38025, Note_on_c, 1, 63, 0
3, 38040, Note_on_c, 1, 65, 99
3, 38190, Note_on_c, 1, 65, 0
3, 38190, Note_on_c, 1, 68, 100
3, 38220, Note_on_c, 1, 68, 0
3, 38220, Note_on_c, 1, 67, 99
3, 38250, Note_on_c, 1, 67, 0
3, 38250, Note_on_c, 1, 65, 100
3, 38276, Note_on_c, 1, 65, 0
3, 38280, Note_on_c, 1, 67, 100
3, 38310, Note_on_c, 1, 67, 0
3, 38310, Note_on_c, 1, 70, 101
3, 38340, Note_on_c, 1, 70, 0
3, 38340, Note_on_c, 1, 68, 101
3, 38370, Note_on_c, 1, 68, 0
3, 38370, Note_on_c, 1, 67, 101
3, 38396, Note_on_c, 1, 67, 0
3, 38400, Note_on_c, 1, 68, 101
3, 38550, Note_on_c, 1, 68, 0
3, 38550, Note_on_c, 1, 70, 99
3, 38580, Note_on_c, 1, 70, 0
3, 38580, Note_on_c, 1, 68, 98
3, 38610, Note_on_c, 1, 68, 0
3, 38610, Note_on_c, 1, 67, 98
3, 38636, Note_on_c, 1, 67, 0
3, 38640, Note_on_c, 1, 65, 98
3, 38745, Note_on_c, 1, 65, 0
3, 38760, Note_on_c, 1, 67, 99
3, 38906, Note_on_c, 1, 67, 0
3, 38910, Note_on_c, 1, 67, 101
3, 38940, Note_on_c, 1, 67, 0
3, 38940, Note_on_c, 1, 65, 99
3, 38970, Note_on_c, 1, 65, 0
3, 38970, Note_on_c, 1, 63, 99
3, 38996, Note_on_c, 1, 63, 0
3, 39000, Note_on_c, 1, 62, 100
3, 39030, Note_on_c, 1, 62, 0
3, 39030, Note_on_c, 1, 65, 100
3, 39060, Note_on_c, 1, 65, 0
3, 39060, Note_on_c, 1, 63, 101
3, 39090, Note_on_c, 1, 63, 0
3, 39090, Note_on_c, 1, 62, 102
3, 39116, Note_on_c, 1, 62, 0
3, 39120, Note_on_c, 1, 63, 102
3, 39266, Note_on_c, 1, 63, 0
3, 39270, Note_on_c, 1, 63, 99
3, 39296, Note_on_c, 1, 63, 0
3, 39300, Note_on_c, 1, 62, 99
3, 39326, Note_on_c, 1, 62, 0
3, 39330, Note_on_c, 1, 60, 98
3, 39356, Note_on_c, 1, 60, 0
3, 39360, Note_on_c, 1, 59, 97
3, 39386, Note_on_c, 1, 59, 0
3, 39390, Note_on_c, 1, 62, 99
3, 39416, Note_on_c, 1, 62, 0
3, 39420, Note_on_c, 1, 60, 99
3, 39446, Note_on_c, 1, 60, 0
3, 39450, Note_on_c, 1, 59, 99
3, 39476, Note_on_c, 1, 59, 0
3, 39480, Note_on_c, 1, 60, 100
3, 39626, Note_on_c, 1, 60, 0
3, 39630, Note_on_c, 1, 58, 99
3, 39656, Note_on_c, 1, 58, 0
3, 39660, Note_on_c, 1, 56, 99
3, 39686, Note_on_c, 1, 56, 0
3, 39690, Note_on_c, 1, 55, 99
3, 39716, Note_on_c, 1, 55, 0
3, 39720, Note_on_c, 1, 53, 99
3, 39746, Note_on_c, 1, 53, 0
3, 39750, Note_on_c, 1, 56, 99
3, 39776, Note_on_c, 1, 56, 0
3, 39780, Note_on_c, 1, 55, 99
3, 39806, Note_on_c, 1, 55, 0
3, 39810, Note_on_c, 1, 53, 98
3, 39836, Note_on_c, 1, 53, 0
3, 39840, Note_on_c, 1, 55, 99
3, 39986, Note_on_c, 1, 55, 0
3, 39990, Note_on_c, 1, 55, 99
3, 40016, Note_on_c, 1, 55, 0
3, 40020, Note_on_c, 1, 53, 100
3, 40046, Note_on_c, 1, 53, 0
3, 40050, Note_on_c, 1, 51, 99
3, 40076, Note_on_c, 1, 51, 0
3, 40080, Note_on_c, 1, 50, 100
3, 40106, Note_on_c, 1, 50, 0
3, 40110, Note_on_c, 1, 53, 101
3, 40136, Note_on_c, 1, 53, 0
3, 40140, Note_on_c, 1, 51, 101
3, 40166, Note_on_c, 1, 51, 0
3, 40170, Note_on_c, 1, 50, 100
3, 40196, Note_on_c, 1, 50, 0
3, 40200, Note_on_c, 1, 51, 101
3, 40346, Note_on_c, 1, 51, 0
3, 40350, Note_on_c, 1, 53, 98
3, 40376, Note_on_c, 1, 53, 0
3, 40380, Note_on_c, 1, 51, 99
3, 40406, Note_on_c, 1, 51, 0
3, 40410, Note_on_c, 1, 50, 99
3, 40436, Note_on_c, 1, 50, 0
3, 40440, Note_on_c, 1, 48, 100
3, 40545, Note_on_c, 1, 48, 0
3, 40584, Program_c, 1, 80
3, 40590, Note_on_c, 1, 55, 90
3, 40616, Note_on_c, 1, 55, 0
3, 40620, Note_on_c, 1, 59, 90
3, 40646, Note_on_c, 1, 59, 0
3, 40650, Note_on_c, 1, 62, 90
3, 40676, Note_on_c, 1, 62, 0
3, 40680, Note_on_c, 1, 67, 90
3, 40706, Note_on_c, 1, 67, 0
3, 40800, Note_on_c, 1, 51, 90
3, 40826, Note_on_c, 1, 51, 0
3, 40830, Note_on_c, 1, 55, 90
3, 40856, Note_on_c, 1, 55, 0
3, 40860, Note_on_c, 1, 60, 90
3, 40886, Note_on_c, 1, 60, 0
3, 40890, Note_on_c, 1, 63, 90
3, 40916, Note_on_c, 1, 63, 0
3, 40950, Note_on_c, 1, 53, 90
3, 40976, Note_on_c, 1, 53, 0
3, 40980, Note_on_c, 1, 56, 90
3, 41006, Note_on_c, 1, 56, 0
3, 41010, Note_on_c, 1, 60, 90
3, 41036, Note_on_c, 1, 60, 0
3, 41040, Note_on_c, 1, 65, 90
3, 41066, Note_on_c, 1, 65, 0
3, 41160, Note_on_c, 1, 55, 90
3, 41186, Note_on_c, 1, 55, 0
3, 41190, Note_on_c, 1, 59, 90
3, 41216, Note_on_c, 1, 59, 0
3, 41220, Note_on_c, 1, 63, 90
3, 41246, Note_on_c, 1, 63, 0
3, 41250, Note_on_c, 1, 67, 90
3, 41276, Note_on_c, 1, 67, 0
3, 41310, Note_on_c, 1, 56, 90
3, 41336, Note_on_c, 1, 56, 0
3, 41340, Note_on_c, 1, 60, 90
3, 41366, Note_on_c, 1, 60, 0
3, 41370, Note_on_c, 1, 63, 90
3, 41396, Note_on_c, 1, 63, 0
3, 41400, Note_on_c, 1, 68, 90
3, 41426, Note_on_c, 1, 68, 0
3, 41520, Note_on_c, 1, 53, 90
3, 41546, Note_on_c, 1, 53, 0
3, 41550, Note_on_c, 1, 56, 90
3, 41576, Note_on_c, 1, 56, 0
3, 41580, Note_on_c, 1, 62, 90
3, 41606, Note_on_c, 1, 62, 0
3, 41610, Note_on_c, 1, 65, 90
3, 41636, Note_on_c, 1, 65, 0
3, 41670, Note_on_c, 1, 55, 90
3, 41696, Note_on_c, 1, 55, 0
3, 41700, Note_on_c, 1, 59, 90
3, 41726, Note_on_c, 1, 59, 0
3, 41730, Note_on_c, 1, 62, 90
3, 41756, Note_on_c, 1, 62, 0
3, 41760, Note_on_c, 1, 67, 90
3, 41786, Note_on_c, 1, 67, 0
3, 41880, Note_on_c, 1, 50, 90
3, 41906, Note_on_c, 1, 50, 0
3, 41910, Note_on_c, 1, 53, 90
3, 41936, Note_on_c, 1, 53, 0
3, 41940, Note_on_c, 1, 59, 90
3, 41966, Note_on_c, 1, 59, 0
3, 41970, Note_on_c, 1, 62, 90
3, 41996, Note_on_c, 1, 62, 0
3, 42030, Note_on_c, 1, 51, 90
3, 42056, Note_on_c, 1, 51, 0
3, 42060, Note_on_c, 1, 55, 90
3, 42086, Note_on_c, 1, 55, 0
3, 42090, Note_on_c, 1, 58, 90
3, 42116, Note_on_c, 1, 58, 0
3, 42120, Note_on_c, 1, 63, 90
3, 42146, Note_on_c, 1, 63, 0
3, 42240, Note_on_c, 1, 47, 90
3, 42266, Note_on_c, 1, 47, 0
3, 42270, Note_on_c, 1, 50, 90
3, 42296, Note_on_c, 1, 50, 0
3, 42300, Note_on_c, 1, 55, 90
3, 42326, Note_on_c, 1, 55, 0
3, 42330, Note_on_c, 1, 59, 90
3, 42356, Note_on_c, 1, 59, 0
3, 42390, Note_on_c, 1, 48, 90
3, 42416, Note_on_c, 1, 48, 0
3, 42420, Note_on_c, 1, 51, 90
3, 42446, Note_on_c, 1, 51, 0
3, 42450, Note_on_c, 1, 55, 90
3, 42476, Note_on_c, 1, 55, 0
3, 42480, Note_on_c, 1, 60, 90
3, 42506, Note_on_c, 1, 60, 0
3, 42600, Note_on_c, 1, 41, 90
3, 42626, Note_on_c, 1, 41, 0
3, 42630, Note_on_c, 1, 48, 90
3, 42656, Note_on_c, 1, 48, 0
3, 42660, Note_on_c, 1, 50, 90
3, 42686, Note_on_c, 1, 50, 0
3, 42690, Note_on_c, 1, 53, 90
3, 42716, Note_on_c, 1, 53, 0
3, 42750, Note_on_c, 1, 43, 90
3, 42776, Note_on_c, 1, 43, 0
3, 42780, Note_on_c, 1, 48, 90
3, 42806, Note_on_c, 1, 48, 0
3, 42810, Note_on_c, 1, 51, 90
3, 42836, Note_on_c, 1, 51, 0
3, 42840, Note_on_c, 1, 55, 90
3, 42866, Note_on_c, 1, 55, 0
3, 42960, Note_on_c, 1, 43, 90
3, 42986, Note_on_c, 1, 43, 0
3, 42990, Note_on_c, 1, 47, 90
3, 43016, Note_on_c, 1, 47, 0
3, 43020, Note_on_c, 1, 50, 90
3, 43046, Note_on_c, 1, 50, 0
3, 43050, Note_on_c, 1, 55, 90
3, 43076, Note_on_c, 1, 55, 0
3, 43080, Note_on_c, 1, 60, 90
3, 43132, Note_on_c, 1, 60, 0
3, 43200, Note_on_c, 1, 60, 90
3, 43226, Note_on_c, 1, 60, 0
3, 43230, Note_on_c, 1, 63, 90
3, 43256, Note_on_c, 1, 63, 0
3, 43260, Note_on_c, 1, 67, 90
3, 43286, Note_on_c, 1, 67, 0
3, 43290, Note_on_c, 1, 72, 90
3, 43316, Note_on_c, 1, 72, 0
3, 43560, Note_on_c, 1, 67, 90
3, 43586, Note_on_c, 1, 67, 0
3, 43590, Note_on_c, 1, 71, 90
3, 43616, Note_on_c, 1, 71, 0
3, 43620, Note_on_c, 1, 74, 90
3, 43646, Note_on_c, 1, 74, 0
3, 43650, Note_on_c, 1, 79, 90
3, 43676, Note_on_c, 1, 79, 0
3, 43920, Note_on_c, 1, 65, 90
3, 43946, Note_on_c, 1, 65, 0
3, 43950, Note_on_c, 1, 68, 90
3, 43976, Note_on_c, 1, 68, 0
3, 43980, Note_on_c, 1, 72, 90
3, 44006, Note_on_c, 1, 72, 0
3, 44010, Note_on_c, 1, 77, 90
3, 44036, Note_on_c, 1, 77, 0
3, 44280, Note_on_c, 1, 68, 90
3, 44306, Note_on_c, 1, 68, 0
3, 44310, Note_on_c, 1, 72, 90
3, 44336, Note_on_c, 1, 72, 0
3, 44340, Note_on_c, 1, 75, 90
3, 44366, Note_on_c, 1, 75, 0
3, 44370, Note_on_c, 1, 80, 90
3, 44396, Note_on_c, 1, 80, 0
3, 44640, Note_on_c, 1, 67, 90
3, 44666, Note_on_c, 1, 67, 0
3, 44670, Note_on_c, 1, 71, 90
3, 44696, Note_on_c, 1, 71, 0
3, 44700, Note_on_c, 1, 74, 90
3, 44726, Note_on_c, 1, 74, 0
3, 44730, Note_on_c, 1, 79, 90
3, 44756, Note_on_c, 1, 79, 0
3, 45000, Note_on_c, 1, 63, 90
3, 45026, Note_on_c, 1, 63, 0
3, 45030, Note_on_c, 1, 67, 90
3, 45056, Note_on_c, 1, 67, 0
3, 45060, Note_on_c, 1, 72, 90
3, 45086, Note_on_c, 1, 72, 0
3, 45090, Note_on_c, 1, 75, 90
3, 45116, Note_on_c, 1, 75, 0
3, 45360, Note_on_c, 1, 60, 90
3, 45386, Note_on_c, 1, 60, 0
3, 45390, Note_on_c, 1, 63, 90
3, 45416, Note_on_c, 1, 63, 0
3, 45420, Note_on_c, 1, 67, 90
3, 45446, Note_on_c, 1, 67, 0
3, 45450, Note_on_c, 1, 72, 90
3, 45476, Note_on_c, 1, 72, 0
3, 45720, Note_on_c, 1, 67, 90
3, 45746, Note_on_c, 1, 67, 0
3, 45750, Note_on_c, 1, 72, 90
3, 45776, Note_on_c, 1, 72, 0
3, 45780, Note_on_c, 1, 75, 90
3, 45806, Note_on_c, 1, 75, 0
3, 45810, Note_on_c, 1, 79, 90
3, 45836, Note_on_c, 1, 79, 0
3, 46080, Note_on_c, 1, 72, 90
3, 46106, Note_on_c, 1, 72, 0
3, 46110, Note_on_c, 1, 75, 90
3, 46136, Note_on_c, 1, 75, 0
3, 46140, Note_on_c, 1, 79, 90
3, 46166, Note_on_c, 1, 79, 0
3, 46170, Note_on_c, 1, 84, 90
3, 46196, Note_on_c, 1, 84, 0
3, 46260, Note_on_c, 1, 60, 100
3, 46260, Note_on_c, 1, 63, 100
3, 46321, Note_on_c, 1, 63, 0
3, 46321, Note_on_c, 1, 60, 0
3, 46470, Note_on_c, 1, 66, 109
3, 46496, Note_on_c, 1, 66, 0
3, 46500, Note_on_c, 1, 67, 108
3, 46530, Note_on_c, 1, 62, 104
3, 46556, Note_on_c, 1, 62, 0
3, 46560, Note_on_c, 1, 63, 107
3, 46612, Note_on_c, 1, 63, 0
3, 46612, Note_on_c, 1, 67, 0
3, 46620, Note_on_c, 1, 60, 117
3, 46620, Note_on_c, 1, 63, 117
3, 46681, Note_on_c, 1, 63, 0
3, 46681, Note_on_c, 1, 60, 0
3, 46830, Note_on_c, 1, 64, 109
3, 46856, Note_on_c, 1, 64, 0
3, 46860, Note_on_c, 1, 65, 111
3, 46890, Note_on_c, 1, 60, 111
3, 46916, Note_on_c, 1, 65, 0
3, 46920, Note_on_c, 1, 63, 108
3, 46972, Note_on_c, 1, 63, 0
3, 46972, Note_on_c, 1, 60, 0
3, 46980, Note_on_c, 1, 62, 121
3, 46980, Note_on_c, 1, 67, 121
3, 47040, Note_on_c, 1, 67, 0
3, 47041, Note_on_c, 1, 62, 0
3, 47190, Note_on_c, 1, 67, 106
3, 47216, Note_on_c, 1, 67, 0
3, 47220, Note_on_c, 1, 68, 106
3, 47250, Note_on_c, 1, 63, 107
3, 47276, Note_on_c, 1, 63, 0
3, 47280, Note_on_c, 1, 65, 106
3, 47332, Note_on_c, 1, 65, 0
3, 47332, Note_on_c, 1, 68, 0
3, 47340, Note_on_c, 1, 65, 119
3, 47340, Note_on_c, 1, 68, 119
3, 47401, Note_on_c, 1, 68, 0
3, 47401, Note_on_c, 1, 65, 0
3, 47550, Note_on_c, 1, 66, 109
3, 47576, Note_on_c, 1, 66, 0
3, 47580, Note_on_c, 1, 67, 108
3, 47610, Note_on_c, 1, 62, 109
3, 47636, Note_on_c, 1, 67, 0
3, 47640, Note_on_c, 1, 65, 108
3, 47692, Note_on_c, 1, 65, 0
3, 47692, Note_on_c, 1, 62, 0
3, 47700, Note_on_c, 1, 62, 119
3, 47700, Note_on_c, 1, 65, 119
3, 47760, Note_on_c, 1, 62, 0
3, 47762, Note_on_c, 1, 65, 0
3, 47910, Note_on_c, 1, 71, 107
3, 47936, Note_on_c, 1, 71, 0
3, 47940, Note_on_c, 1, 72, 107
3, 47970, Note_on_c, 1, 66, 109
3, 47996, Note_on_c, 1, 66, 0
3, 47996, Note_on_c, 1, 72, 0
3, 48000, Note_on_c, 1, 67, 106
3, 48052, Note_on_c, 1, 67, 0
3, 48060, Note_on_c, 1, 62, 120
3, 48060, Note_on_c, 1, 67, 120
3, 48121, Note_on_c, 1, 67, 0
3, 48121, Note_on_c, 1, 62, 0
3, 48270, Note_on_c, 1, 71, 107
3, 48296, Note_on_c, 1, 71, 0
3, 48300, Note_on_c, 1, 72, 106
3, 48330, Note_on_c, 1, 67, 107
3, 48356, Note_on_c, 1, 67, 0
3, 48360, Note_on_c, 1, 68, 107
3, 48412, Note_on_c, 1, 68, 0
3, 48412, Note_on_c, 1, 72, 0
3, 48420, Note_on_c, 1, 68, 119
3, 48420, Note_on_c, 1, 72, 119
3, 48480, Note_on_c, 1, 72, 0
3, 48480, Note_on_c, 1, 68, 0
3, 48630, Note_on_c, 1, 71, 107
3, 48656, Note_on_c, 1, 71, 0
3, 48660, Note_on_c, 1, 72, 107
3, 48690, Note_on_c, 1, 66, 106
3, 48716, Note_on_c, 1, 66, 0
3, 48720, Note_on_c, 1, 67, 110
3, 48772, Note_on_c, 1, 67, 0
3, 48772, Note_on_c, 1, 72, 0
3, 48780, Note_on_c, 1, 67, 119
3, 48780, Note_on_c, 1, 71, 119
3, 48841, Note_on_c, 1, 71, 0
3, 48842, Note_on_c, 1, 67, 0
3, 48990, Note_on_c, 1, 71, 108
3, 49016, Note_on_c, 1, 71, 0
3, 49020, Note_on_c, 1, 72, 106
3, 49050, Note_on_c, 1, 66, 108
3, 49076, Note_on_c, 1, 66, 0
3, 49080, Note_on_c, 1, 67, 99
3, 49132, Note_on_c, 1, 72, 0
3, 49157, Note_on_c, 1, 67, 0
3, 49159, Note_on_c, 1, 65, 105
3, 49177, Note_on_c, 1, 65, 0
3, 49179, Note_on_c, 1, 63, 102
3, 49197, Note_on_c, 1, 63, 0
3, 49200, Note_on_c, 1, 63, 103
3, 49217, Note_on_c, 1, 63, 0
3, 49219, Note_on_c, 1, 62, 103
3, 49237, Note_on_c, 1, 62, 0
3, 49239, Note_on_c, 1, 60, 105
3, 49257, Note_on_c, 1, 60, 0
3, 49260, Note_on_c, 1, 60, 106
3, 49277, Note_on_c, 1, 60, 0
3, 49279, Note_on_c, 1, 59, 105
3, 49297, Note_on_c, 1, 59, 0
3, 49299, Note_on_c, 1, 57, 105
3, 49317, Note_on_c, 1, 57, 0
3, 49320, Note_on_c, 1, 55, 105
3, 49337, Note_on_c, 1, 55, 0
3, 49339, Note_on_c, 1, 57, 105
3, 49357, Note_on_c, 1, 57, 0
3, 49359, Note_on_c, 1, 59, 105
3, 49377, Note_on_c, 1, 59, 0
3, 49380, Note_on_c, 1, 59, 106
3, 49397, Note_on_c, 1, 59, 0
3, 49399, Note_on_c, 1, 60, 104
3, 49417, Note_on_c, 1, 60, 0
3, 49419, Note_on_c, 1, 62, 105
3, 49437, Note_on_c, 1, 62, 0
3, 49440, Note_on_c, 1, 60, 106
3, 49457, Note_on_c, 1, 60, 0
3, 49459, Note_on_c, 1, 62, 106
3, 49477, Note_on_c, 1, 62, 0
3, 49479, Note_on_c, 1, 63, 106
3, 49497, Note_on_c, 1, 63, 0
3, 49500, Note_on_c, 1, 63, 106
3, 49517, Note_on_c, 1, 63, 0
3, 49519, Note_on_c, 1, 65, 104
3, 49537, Note_on_c, 1, 65, 0
3, 49539, Note_on_c, 1, 67, 107
3, 49557, Note_on_c, 1, 67, 0
3, 49560, Note_on_c, 1, 65, 106
3, 49577, Note_on_c, 1, 65, 0
3, 49579, Note_on_c, 1, 67, 106
3, 49597, Note_on_c, 1, 67, 0
3, 49599, Note_on_c, 1, 68, 106
3, 49617, Note_on_c, 1, 68, 0
3, 49620, Note_on_c, 1, 68, 106
3, 49637, Note_on_c, 1, 68, 0
3, 49639, Note_on_c, 1, 67, 104
3, 49657, Note_on_c, 1, 67, 0
3, 49659, Note_on_c, 1, 65, 104
3, 49677, Note_on_c, 1, 65, 0
3, 49680, Note_on_c, 1, 65, 106
3, 49697, Note_on_c, 1, 65, 0
3, 49699, Note_on_c, 1, 63, 106
3, 49717, Note_on_c, 1, 63, 0
3, 49719, Note_on_c, 1, 62, 104
3, 49737, Note_on_c, 1, 62, 0
3, 49740, Note_on_c, 1, 62, 102
3, 49757, Note_on_c, 1, 62, 0
3, 49759, Note_on_c, 1, 63, 104
3, 49777, Note_on_c, 1, 63, 0
3, 49779, Note_on_c, 1, 65, 105
3, 49797, Note_on_c, 1, 65, 0
3, 49800, Note_on_c, 1, 65, 104
3, 49817, Note_on_c, 1, 65, 0
3, 49819, Note_on_c, 1, 67, 104
3, 49837, Note_on_c, 1, 67, 0
3, 49839, Note_on_c, 1, 68, 106
3, 49857, Note_on_c, 1, 68, 0
3, 49860, Note_on_c, 1, 67, 105
3, 49899, Note_on_c, 1, 67, 0
3, 49905, Note_on_c, 1, 65, 105
3, 49918, Note_on_c, 1, 65, 0
3, 49920, Note_on_c, 1, 63, 107
3, 49972, Note_on_c, 1, 63, 0
3, 49980, Note_on_c, 1, 72, 106
3, 49997, Note_on_c, 1, 72, 0
3, 49999, Note_on_c, 1, 70, 105
3, 50017, Note_on_c, 1, 70, 0
3, 50019, Note_on_c, 1, 68, 103
3, 50037, Note_on_c, 1, 68, 0
3, 50040, Note_on_c, 1, 68, 103
3, 50057, Note_on_c, 1, 68, 0
3, 50059, Note_on_c, 1, 67, 104
3, 50077, Note_on_c, 1, 67, 0
3, 50079, Note_on_c, 1, 65, 102
3, 50097, Note_on_c, 1, 65, 0
3, 50100, Note_on_c, 1, 65, 101
3, 50117, Note_on_c, 1, 65, 0
3, 50119, Note_on_c, 1, 63, 103
3, 50137, Note_on_c, 1, 63, 0
3, 50139, Note_on_c, 1, 62, 102
3, 50157, Note_on_c, 1, 62, 0
3, 50160, Note_on_c, 1, 62, 103
3, 50177, Note_on_c, 1, 62, 0
3, 50179, Note_on_c, 1, 63, 104
3, 50197, Note_on_c, 1, 63, 0
3, 50199, Note_on_c, 1, 65, 104
3, 50217, Note_on_c, 1, 65, 0
3, 50220, Note_on_c, 1, 65, 105
3, 50237, Note_on_c, 1, 65, 0
3, 50239, Note_on_c, 1, 67, 106
3, 50257, Note_on_c, 1, 67, 0
3, 50259, Note_on_c, 1, 68, 108
3, 50277, Note_on_c, 1, 68, 0
3, 50280, Note_on_c, 1, 67, 108
3, 50297, Note_on_c, 1, 67, 0
3, 50299, Note_on_c, 1, 69, 107
3, 50317, Note_on_c, 1, 69, 0
3, 50319, Note_on_c, 1, 71, 106
3, 50337, Note_on_c, 1, 71, 0
3, 50340, Note_on_c, 1, 71, 105
3, 50357, Note_on_c, 1, 71, 0
3, 50359, Note_on_c, 1, 72, 105
3, 50377, Note_on_c, 1, 72, 0
3, 50379, Note_on_c, 1, 74, 106
3, 50397, Note_on_c, 1, 74, 0
3, 50400, Note_on_c, 1, 74, 106
3, 50417, Note_on_c, 1, 74, 0
3, 50419, Note_on_c, 1, 75, 104
3, 50437, Note_on_c, 1, 75, 0
3, 50439, Note_on_c, 1, 77, 104
3, 50457, Note_on_c, 1, 77, 0
3, 50460, Note_on_c, 1, 77, 104
3, 50477, Note_on_c, 1, 77, 0
3, 50479, Note_on_c, 1, 79, 104
3, 50497, Note_on_c, 1, 79, 0
3, 50499, Note_on_c, 1, 80, 105
3, 50517, Note_on_c, 1, 80, 0
3, 50520, Note_on_c, 1, 80, 105
3, 50537, Note_on_c, 1, 80, 0
3, 50539, Note_on_c, 1, 79, 105
3, 50557, Note_on_c, 1, 79, 0
3, 50559, Note_on_c, 1, 77, 105
3, 50577, Note_on_c, 1, 77, 0
3, 50580, Note_on_c, 1, 77, 105
3, 50597, Note_on_c, 1, 77, 0
3, 50599, Note_on_c, 1, 75, 105
3, 50617, Note_on_c, 1, 75, 0
3, 50619, Note_on_c, 1, 74, 105
3, 50637, Note_on_c, 1, 74, 0
3, 50640, Note_on_c, 1, 79, 104
3, 50745, Note_on_c, 1, 79, 0
3, 50940, Note_on_c, 1, 67, 105
3, 51017, Note_on_c, 1, 67, 0
3, 51019, Note_on_c, 1, 65, 104
3, 51037, Note_on_c, 1, 65, 0
3, 51039, Note_on_c, 1, 63, 105
3, 51057, Note_on_c, 1, 63, 0
3, 51060, Note_on_c, 1, 63, 105
3, 51077, Note_on_c, 1, 63, 0
3, 51079, Note_on_c, 1, 62, 104
3, 51097, Note_on_c, 1, 62, 0
3, 51099, Note_on_c, 1, 60, 105
3, 51117, Note_on_c, 1, 60, 0
3, 51120, Note_on_c, 1, 60, 105
3, 51137, Note_on_c, 1, 60, 0
3, 51139, Note_on_c, 1, 58, 104
3, 51157, Note_on_c, 1, 58, 0
3, 51159, Note_on_c, 1, 56, 104
3, 51177, Note_on_c, 1, 56, 0
3, 51180, Note_on_c, 1, 56, 104
3, 51197, Note_on_c, 1, 56, 0
3, 51199, Note_on_c, 1, 55, 104
3, 51217, Note_on_c, 1, 55, 0
3, 51219, Note_on_c, 1, 53, 104
3, 51237, Note_on_c, 1, 53, 0
3, 51240, Note_on_c, 1, 53, 103
3, 51257, Note_on_c, 1, 53, 0
3, 51259, Note_on_c, 1, 51, 106
3, 51277, Note_on_c, 1, 51, 0
3, 51279, Note_on_c, 1, 50, 108
3, 51297, Note_on_c, 1, 50, 0
3, 51300, Note_on_c, 1, 50, 104
3, 51317, Note_on_c, 1, 50, 0
3, 51319, Note_on_c, 1, 48, 104
3, 51337, Note_on_c, 1, 48, 0
3, 51339, Note_on_c, 1, 47, 104
3, 51357, Note_on_c, 1, 47, 0
3, 51360, Note_on_c, 1, 47, 105
3, 51377, Note_on_c, 1, 47, 0
3, 51379, Note_on_c, 1, 45, 105
3, 51397, Note_on_c, 1, 45, 0
3, 51399, Note_on_c, 1, 43, 106
3, 51417, Note_on_c, 1, 43, 0
3, 51420, Note_on_c, 1, 43, 104
3, 51437, Note_on_c, 1, 43, 0
3, 51439, Note_on_c, 1, 45, 104
3, 51457, Note_on_c, 1, 45, 0
3, 51459, Note_on_c, 1, 47, 104
3, 51477, Note_on_c, 1, 47, 0
3, 51480, Note_on_c, 1, 47, 104
3, 51497, Note_on_c, 1, 47, 0
3, 51499, Note_on_c, 1, 48, 104
3, 51517, Note_on_c, 1, 48, 0
3, 51519, Note_on_c, 1, 50, 104
3, 51537, Note_on_c, 1, 50, 0
3, 51540, Note_on_c, 1, 50, 104
3, 51557, Note_on_c, 1, 50, 0
3, 51559, Note_on_c, 1, 51, 104
3, 51577, Note_on_c, 1, 51, 0
3, 51579, Note_on_c, 1, 53, 104
3, 51597, Note_on_c, 1, 53, 0
3, 51600, Note_on_c, 1, 53, 104
3, 51617, Note_on_c, 1, 53, 0
3, 51619, Note_on_c, 1, 55, 105
3, 51637, Note_on_c, 1, 55, 0
3, 51639, Note_on_c, 1, 56, 105
3, 51657, Note_on_c, 1, 56, 0
3, 51660, Note_on_c, 1, 55, 104
3, 51677, Note_on_c, 1, 55, 0
3, 51679, Note_on_c, 1, 56, 104
3, 51697, Note_on_c, 1, 56, 0
3, 51699, Note_on_c, 1, 53, 104
3, 51717, Note_on_c, 1, 53, 0
3, 51720, Note_on_c, 1, 51, 105
3, 51737, Note_on_c, 1, 51, 0
3, 51739, Note_on_c, 1, 53, 106
3, 51757, Note_on_c, 1, 53, 0
3, 51759, Note_on_c, 1, 50, 107
3, 51777, Note_on_c, 1, 50, 0
3, 51780, Note_on_c, 1, 48, 106
3, 51832, Note_on_c, 1, 48, 0
3, 51960, Note_on_c, 1, 63, 90
3, 52132, Note_on_c, 1, 63, 0
3, 52140, Note_on_c, 1, 62, 90
3, 52166, Note_on_c, 1, 62, 0
3, 52170, Note_on_c, 1, 60, 90
3, 52196, Note_on_c, 1, 60, 0
3, 52200, Note_on_c, 1, 62, 90
3, 52252, Note_on_c, 1, 62, 0
3, 52260, Note_on_c, 1, 63, 90
3, 52286, Note_on_c, 1, 63, 0
3, 52290, Note_on_c, 1, 65, 90
3, 52316, Note_on_c, 1, 65, 0
3, 52320, Note_on_c, 1, 67, 90
3, 52492, Note_on_c, 1, 67, 0
3, 52500, Note_on_c, 1, 65, 90
3, 52526, Note_on_c, 1, 65, 0
3, 52530, Note_on_c, 1, 63, 90
3, 52556, Note_on_c, 1, 63, 0
3, 52560, Note_on_c, 1, 65, 90
3, 52612, Note_on_c, 1, 65, 0
3, 52620, Note_on_c, 1, 67, 90
3, 52646, Note_on_c, 1, 67, 0
3, 52650, Note_on_c, 1, 68, 90
3, 52676, Note_on_c, 1, 68, 0
3, 52740, Note_on_c, 1, 67, 90
3, 52792, Note_on_c, 1, 67, 0
3, 52800, Note_on_c, 1, 65, 90
3, 52852, Note_on_c, 1, 65, 0
3, 52860, Note_on_c, 1, 63, 90
3, 52886, Note_on_c, 1, 63, 0
3, 52890, Note_on_c, 1, 62, 90
3, 52916, Note_on_c, 1, 62, 0
3, 52920, Note_on_c, 1, 63, 90
3, 52972, Note_on_c, 1, 63, 0
3, 52980, Note_on_c, 1, 65, 90
3, 53006, Note_on_c, 1, 65, 0
3, 53010, Note_on_c, 1, 67, 90
3, 53036, Note_on_c, 1, 67, 0
3, 53040, Note_on_c, 1, 68, 90
3, 53145, Note_on_c, 1, 68, 0
3, 53160, Note_on_c, 1, 67, 90
3, 53385, Note_on_c, 1, 67, 0
3, 53460, Note_on_c, 1, 65, 90
3, 53512, Note_on_c, 1, 65, 0
3, 53520, Note_on_c, 1, 67, 90
3, 53685, Note_on_c, 1, 67, 0
3, 53700, Note_on_c, 1, 65, 90
3, 53726, Note_on_c, 1, 65, 0
3, 53730, Note_on_c, 1, 67, 90
3, 53756, Note_on_c, 1, 67, 0
3, 53760, Note_on_c, 1, 68, 90
3, 53932, Note_on_c, 1, 68, 0
3, 53940, Note_on_c, 1, 67, 90
3, 53966, Note_on_c, 1, 67, 0
3, 53970, Note_on_c, 1, 65, 90
3, 53996, Note_on_c, 1, 65, 0
3, 54000, Note_on_c, 1, 67, 90
3, 54052, Note_on_c, 1, 67, 0
3, 54060, Note_on_c, 1, 68, 90
3, 54086, Note_on_c, 1, 68, 0
3, 54090, Note_on_c, 1, 70, 90
3, 54116, Note_on_c, 1, 70, 0
3, 54120, Note_on_c, 1, 72, 90
3, 54172, Note_on_c, 1, 72, 0
3, 54180, Note_on_c, 1, 74, 90
3, 54232, Note_on_c, 1, 74, 0
3, 54240, Note_on_c, 1, 71, 90
3, 54345, Note_on_c, 1, 71, 0
3, 54360, Note_on_c, 1, 72, 90
3, 54525, Note_on_c, 1, 72, 0
3, 54540, Note_on_c, 1, 71, 90
3, 54592, Note_on_c, 1, 71, 0
3, 54600, Note_on_c, 1, 72, 90
3, 54652, Note_on_c, 1, 72, 0
3, 54660, Note_on_c, 1, 67, 90
3, 54765, Note_on_c, 1, 67, 0
3, 54780, Note_on_c, 1, 67, 90
3, 54806, Note_on_c, 1, 67, 0
3, 54810, Note_on_c, 1, 65, 90
3, 54836, Note_on_c, 1, 65, 0
3, 54840, Note_on_c, 1, 63, 90
3, 54892, Note_on_c, 1, 63, 0
3, 54900, Note_on_c, 1, 67, 108
3, 55185, Note_on_c, 1, 67, 0
3, 55200, Note_on_c, 1, 67, 109
3, 55305, Note_on_c, 1, 67, 0
3, 55320, Note_on_c, 1, 68, 110
3, 55545, Note_on_c, 1, 68, 0
3, 55560, Note_on_c, 1, 67, 106
3, 55905, Note_on_c, 1, 67, 0
3, 55920, Note_on_c, 1, 68, 109
3, 56025, Note_on_c, 1, 68, 0
3, 56040, Note_on_c, 1, 67, 113
3, 56306, Note_on_c, 1, 67, 0
3, 56310, Note_on_c, 1, 68, 106
3, 56336, Note_on_c, 1, 68, 0
3, 56340, Note_on_c, 1, 67, 107
3, 56366, Note_on_c, 1, 67, 0
3, 56370, Note_on_c, 1, 65, 107
3, 56396, Note_on_c, 1, 65, 0
3, 56400, Note_on_c, 1, 67, 105
3, 56546, Note_on_c, 1, 67, 0
3, 56550, Note_on_c, 1, 68, 108
3, 56576, Note_on_c, 1, 68, 0
3, 56580, Note_on_c, 1, 67, 108
3, 56606, Note_on_c, 1, 67, 0
3, 56610, Note_on_c, 1, 65, 106
3, 56636, Note_on_c, 1, 65, 0
3, 56640, Note_on_c, 1, 67, 107
3, 56786, Note_on_c, 1, 67, 0
3, 56790, Note_on_c, 1, 68, 103
3, 56816, Note_on_c, 1, 68, 0
3, 56820, Note_on_c, 1, 67, 110
3, 56846, Note_on_c, 1, 67, 0
3, 56850, Note_on_c, 1, 65, 109
3, 56876, Note_on_c, 1, 65, 0
3, 56880, Note_on_c, 1, 67, 109
3, 57026, Note_on_c, 1, 67, 0
3, 57030, Note_on_c, 1, 68, 104
3, 57056, Note_on_c, 1, 68, 0
3, 57060, Note_on_c, 1, 67, 105
3, 57086, Note_on_c, 1, 67, 0
3, 57090, Note_on_c, 1, 65, 104
3, 57146, Note_on_c, 1, 65, 0
3, 57150, Note_on_c, 1, 68, 106
3, 57176, Note_on_c, 1, 68, 0
3, 57180, Note_on_c, 1, 67, 105
3, 57206, Note_on_c, 1, 67, 0
3, 57210, Note_on_c, 1, 65, 104
3, 57236, Note_on_c, 1, 65, 0
3, 57240, Note_on_c, 1, 63, 104
3, 57345, Note_on_c, 1, 63, 0
3, 57360, Note_on_c, 1, 65, 103
3, 57506, Note_on_c, 1, 65, 0
3, 57510, Note_on_c, 1, 68, 102
3, 57536, Note_on_c, 1, 68, 0
3, 57540, Note_on_c, 1, 67, 103
3, 57566, Note_on_c, 1, 67, 0
3, 57570, Note_on_c, 1, 65, 104
3, 57596, Note_on_c, 1, 65, 0
3, 57600, Note_on_c, 1, 63, 104
3, 57626, Note_on_c, 1, 63, 0
3, 57630, Note_on_c, 1, 65, 105
3, 57656, Note_on_c, 1, 65, 0
3, 57660, Note_on_c, 1, 63, 103
3, 57686, Note_on_c, 1, 63, 0
3, 57690, Note_on_c, 1, 62, 103
3, 57716, Note_on_c, 1, 62, 0
3, 57720, Note_on_c, 1, 60, 103
3, 57772, Note_on_c, 1, 60, 0
3, 57960, Note_on_c, 1, 72, 107
3, 57986, Note_on_c, 1, 72, 0
3, 57990, Note_on_c, 1, 74, 109
3, 58016, Note_on_c, 1, 74, 0
3, 58020, Note_on_c, 1, 72, 109
3, 58046, Note_on_c, 1, 72, 0
3, 58050, Note_on_c, 1, 71, 110
3, 58076, Note_on_c, 1, 71, 0
3, 58080, Note_on_c, 1, 72, 110
3, 58226, Note_on_c, 1, 72, 0
3, 58230, Note_on_c, 1, 74, 103
3, 58256, Note_on_c, 1, 74, 0
3, 58260, Note_on_c, 1, 72, 103
3, 58286, Note_on_c, 1, 72, 0
3, 58290, Note_on_c, 1, 71, 104
3, 58316, Note_on_c, 1, 71, 0
3, 58320, Note_on_c, 1, 72, 106
3, 58466, Note_on_c, 1, 72, 0
3, 58470, Note_on_c, 1, 74, 104
3, 58496, Note_on_c, 1, 74, 0
3, 58500, Note_on_c, 1, 72, 104
3, 58526, Note_on_c, 1, 72, 0
3, 58530, Note_on_c, 1, 71, 104
3, 58556, Note_on_c, 1, 71, 0
3, 58560, Note_on_c, 1, 72, 106
3, 58706, Note_on_c, 1, 72, 0
3, 58710, Note_on_c, 1, 74, 104
3, 58736, Note_on_c, 1, 74, 0
3, 58740, Note_on_c, 1, 72, 106
3, 58766, Note_on_c, 1, 72, 0
3, 58770, Note_on_c, 1, 71, 107
3, 58796, Note_on_c, 1, 71, 0
3, 58800, Note_on_c, 1, 72, 105
3, 58946, Note_on_c, 1, 72, 0
3, 58950, Note_on_c, 1, 74, 103
3, 58976, Note_on_c, 1, 74, 0
3, 58980, Note_on_c, 1, 72, 103
3, 59006, Note_on_c, 1, 72, 0
3, 59010, Note_on_c, 1, 71, 105
3, 59036, Note_on_c, 1, 71, 0
3, 59040, Note_on_c, 1, 72, 104
3, 59066, Note_on_c, 1, 72, 0
3, 59070, Note_on_c, 1, 75, 104
3, 59096, Note_on_c, 1, 75, 0
3, 59100, Note_on_c, 1, 74, 105
3, 59126, Note_on_c, 1, 74, 0
3, 59130, Note_on_c, 1, 72, 105
3, 59156, Note_on_c, 1, 72, 0
3, 59160, Note_on_c, 1, 71, 104
3, 59212, Note_on_c, 1, 71, 0
3, 59220, Note_on_c, 1, 71, 105
3, 59272, Note_on_c, 1, 71, 0
3, 59280, Note_on_c, 1, 72, 104
3, 59306, Note_on_c, 1, 72, 0
3, 59310, Note_on_c, 1, 74, 103
3, 59336, Note_on_c, 1, 74, 0
3, 59340, Note_on_c, 1, 72, 104
3, 59366, Note_on_c, 1, 72, 0
3, 59370, Note_on_c, 1, 71, 103
3, 59396, Note_on_c, 1, 71, 0
3, 59400, Note_on_c, 1, 72, 101
3, 59505, Note_on_c, 1, 72, 0
3, 59520, Note_on_c, 1, 74, 103
3, 59546, Note_on_c, 1, 74, 0
3, 59550, Note_on_c, 1, 77, 106
3, 59576, Note_on_c, 1, 77, 0
3, 59580, Note_on_c, 1, 75, 105
3, 59606, Note_on_c, 1, 75, 0
3, 59610, Note_on_c, 1, 74, 107
3, 59636, Note_on_c, 1, 74, 0
3, 59640, Note_on_c, 1, 72, 105
3, 59786, Note_on_c, 1, 72, 0
3, 59790, Note_on_c, 1, 74, 105
3, 59816, Note_on_c, 1, 74, 0
3, 59820, Note_on_c, 1, 72, 104
3, 59846, Note_on_c, 1, 72, 0
3, 59850, Note_on_c, 1, 70, 103
3, 59876, Note_on_c, 1, 70, 0
3, 59880, Note_on_c, 1, 68, 103
3, 59985, Note_on_c, 1, 68, 0
3, 60000, Note_on_c, 1, 67, 103
3, 60026, Note_on_c, 1, 67, 0
3, 60030, Note_on_c, 1, 68, 105
3, 60056, Note_on_c, 1, 68, 0
3, 60060, Note_on_c, 1, 67, 105
3, 60086, Note_on_c, 1, 67, 0
3, 60090, Note_on_c, 1, 65, 105
3, 60116, Note_on_c, 1, 65, 0
3, 60120, Note_on_c, 1, 67, 102
3, 60198, Note_on_c, 1, 67, 0
3, 60210, Note_on_c, 1, 68, 103
3, 60236, Note_on_c, 1, 68, 0
3, 60240, Note_on_c, 1, 67, 102
3, 60266, Note_on_c, 1, 67, 0
3, 60270, Note_on_c, 1, 68, 103
3, 60296, Note_on_c, 1, 68, 0
3, 60300, Note_on_c, 1, 67, 103
3, 60326, Note_on_c, 1, 67, 0
3, 60330, Note_on_c, 1, 65, 100
3, 60356, Note_on_c, 1, 65, 0
3, 60360, Note_on_c, 1, 63, 100
3, 60386, Note_on_c, 1, 63, 0
3, 60390, Note_on_c, 1, 65, 99
3, 60416, Note_on_c, 1, 65, 0
3, 60420, Note_on_c, 1, 63, 107
3, 60446, Note_on_c, 1, 63, 0
3, 60450, Note_on_c, 1, 62, 109
3, 60476, Note_on_c, 1, 62, 0
3, 60480, Note_on_c, 1, 63, 105
3, 60506, Note_on_c, 1, 63, 0
3, 60510, Note_on_c, 1, 62, 105
3, 60536, Note_on_c, 1, 62, 0
3, 60540, Note_on_c, 1, 63, 105
3, 60566, Note_on_c, 1, 63, 0
3, 60570, Note_on_c, 1, 65, 106
3, 60596, Note_on_c, 1, 65, 0
3, 60600, Note_on_c, 1, 67, 105
3, 60705, Note_on_c, 1, 67, 0
3, 60705, End_track
4, 0, Start_track
4, 0, MIDI_port, 0
4, 0, Program_c, 2, 70
4, 0, Control_c, 2, 7, 100
4, 0, Control_c, 2, 10, 80
4, 2002, Control_c, 2, 7, 109
4, 2044, Control_c, 2, 10, 79
4, 2741, Program_c, 2, 57
4, 3060, Note_on_c, 2, 63, 99
4, 3172, Note_on_c, 2, 63, 0
4, 3180, Note_on_c, 2, 62, 99
4, 3345, Note_on_c, 2, 62, 0
4, 3420, Note_on_c, 2, 67, 99
4, 3532, Note_on_c, 2, 67, 0
4, 3540, Note_on_c, 2, 65, 99
4, 3705, Note_on_c, 2, 65, 0
4, 3780, Note_on_c, 2, 59, 99
4, 3945, Note_on_c, 2, 59, 0
4, 3960, Note_on_c, 2, 60, 99
4, 4065, Note_on_c, 2, 60, 0
4, 4140, Note_on_c, 2, 63, 99
4, 4252, Note_on_c, 2, 63, 0
4, 4260, Note_on_c, 2, 62, 99
4, 4425, Note_on_c, 2, 62, 0
4, 4500, Note_on_c, 2, 65, 99
4, 4612, Note_on_c, 2, 65, 0
4, 4620, Note_on_c, 2, 63, 99
4, 4785, Note_on_c, 2, 63, 0
4, 4860, Note_on_c, 2, 62, 99
4, 4972, Note_on_c, 2, 62, 0
4, 4980, Note_on_c, 2, 60, 99
4, 5145, Note_on_c, 2, 60, 0
4, 5220, Note_on_c, 2, 60, 99
4, 5478, Note_on_c, 2, 60, 0
4, 5490, Note_on_c, 2, 62, 99
4, 5516, Note_on_c, 2, 62, 0
4, 5520, Note_on_c, 2, 59, 99
4, 5625, Note_on_c, 2, 59, 0
4, 5640, Note_on_c, 2, 60, 99
4, 5692, Note_on_c, 2, 60, 0
4, 5700, Note_on_c, 2, 55, 99
4, 5865, Note_on_c, 2, 55, 0
4, 5940, Note_on_c, 2, 63, 99
4, 6052, Note_on_c, 2, 63, 0
4, 6060, Note_on_c, 2, 62, 99
4, 6225, Note_on_c, 2, 62, 0
4, 6300, Note_on_c, 2, 61, 99
4, 6412, Note_on_c, 2, 61, 0
4, 6420, Note_on_c, 2, 60, 99
4, 6585, Note_on_c, 2, 60, 0
4, 6660, Note_on_c, 2, 59, 99
4, 6772, Note_on_c, 2, 59, 0
4, 6780, Note_on_c, 2, 60, 99
4, 6945, Note_on_c, 2, 60, 0
4, 7020, Note_on_c, 2, 60, 99
4, 7158, Note_on_c, 2, 60, 0
4, 7170, Note_on_c, 2, 62, 99
4, 7196, Note_on_c, 2, 62, 0
4, 7200, Note_on_c, 2, 59, 99
4, 7305, Note_on_c, 2, 59, 0
4, 7380, Note_on_c, 2, 56, 99
4, 7492, Note_on_c, 2, 56, 0
4, 7500, Note_on_c, 2, 55, 99
4, 7665, Note_on_c, 2, 55, 0
4, 7740, Note_on_c, 2, 53, 99
4, 7905, Note_on_c, 2, 53, 0
4, 7920, Note_on_c, 2, 51, 99
4, 8025, Note_on_c, 2, 51, 0
4, 8100, Note_on_c, 2, 51, 99
4, 8212, Note_on_c, 2, 51, 0
4, 8220, Note_on_c, 2, 50, 99
4, 8332, Note_on_c, 2, 50, 0
4, 8340, Note_on_c, 2, 53, 99
4, 8392, Note_on_c, 2, 53, 0
4, 8400, Note_on_c, 2, 51, 99
4, 8478, Note_on_c, 2, 51, 0
4, 8490, Note_on_c, 2, 50, 99
4, 8516, Note_on_c, 2, 50, 0
4, 8520, Note_on_c, 2, 48, 99
4, 8625, Note_on_c, 2, 48, 0
4, 8700, Note_on_c, 2, 55, 99
4, 8752, Note_on_c, 2, 55, 0
4, 8760, Note_on_c, 2, 60, 99
4, 8812, Note_on_c, 2, 60, 0
4, 8820, Note_on_c, 2, 62, 99
4, 8872, Note_on_c, 2, 62, 0
4, 8880, Note_on_c, 2, 59, 99
4, 9045, Note_on_c, 2, 59, 0
4, 9060, Note_on_c, 2, 60, 99
4, 9112, Note_on_c, 2, 60, 0
4, 9120, Note_on_c, 2, 61, 99
4, 9172, Note_on_c, 2, 61, 0
4, 9180, Note_on_c, 2, 63, 99
4, 9232, Note_on_c, 2, 63, 0
4, 9240, Note_on_c, 2, 60, 99
4, 9292, Note_on_c, 2, 60, 0
4, 9300, Note_on_c, 2, 65, 99
4, 9352, Note_on_c, 2, 65, 0
4, 9360, Note_on_c, 2, 62, 99
4, 9412, Note_on_c, 2, 62, 0
4, 9420, Note_on_c, 2, 60, 99
4, 9472, Note_on_c, 2, 60, 0
4, 9480, Note_on_c, 2, 59, 99
4, 9585, Note_on_c, 2, 59, 0
4, 9600, Note_on_c, 2, 60, 99
4, 9652, Note_on_c, 2, 60, 0
4, 9660, Note_on_c, 2, 58, 99
4, 9712, Note_on_c, 2, 58, 0
4, 9720, Note_on_c, 2, 56, 99
4, 9772, Note_on_c, 2, 56, 0
4, 9780, Note_on_c, 2, 60, 99
4, 9832, Note_on_c, 2, 60, 0
4, 9840, Note_on_c, 2, 65, 99
4, 9892, Note_on_c, 2, 65, 0
4, 9900, Note_on_c, 2, 63, 99
4, 9952, Note_on_c, 2, 63, 0
4, 9960, Note_on_c, 2, 62, 99
4, 10125, Note_on_c, 2, 62, 0
4, 10140, Note_on_c, 2, 63, 99
4, 10192, Note_on_c, 2, 63, 0
4, 10200, Note_on_c, 2, 65, 99
4, 10305, Note_on_c, 2, 65, 0
4, 10320, Note_on_c, 2, 63, 99
4, 10372, Note_on_c, 2, 63, 0
4, 10380, Note_on_c, 2, 65, 99
4, 10432, Note_on_c, 2, 65, 0
4, 10440, Note_on_c, 2, 67, 99
4, 10545, Note_on_c, 2, 67, 0
4, 10560, Note_on_c, 2, 62, 99
4, 10665, Note_on_c, 2, 62, 0
4, 10740, Note_on_c, 2, 56, 99
4, 10792, Note_on_c, 2, 56, 0
4, 10800, Note_on_c, 2, 55, 99
4, 10852, Note_on_c, 2, 55, 0
4, 10860, Note_on_c, 2, 53, 99
4, 10912, Note_on_c, 2, 53, 0
4, 10920, Note_on_c, 2, 51, 99
4, 10972, Note_on_c, 2, 51, 0
4, 10980, Note_on_c, 2, 50, 99
4, 11032, Note_on_c, 2, 50, 0
4, 11040, Note_on_c, 2, 51, 99
4, 11092, Note_on_c, 2, 51, 0
4, 11100, Note_on_c, 2, 53, 99
4, 11152, Note_on_c, 2, 53, 0
4, 11160, Note_on_c, 2, 55, 99
4, 11212, Note_on_c, 2, 55, 0
4, 11220, Note_on_c, 2, 56, 99
4, 11272, Note_on_c, 2, 56, 0
4, 11280, Note_on_c, 2, 55, 99
4, 11452, Note_on_c, 2, 55, 0
4, 11460, Note_on_c, 2, 48, 119
4, 11486, Note_on_c, 2, 48, 0
4, 11490, Note_on_c, 2, 50, 116
4, 11516, Note_on_c, 2, 50, 0
4, 11520, Note_on_c, 2, 51, 115
4, 11572, Note_on_c, 2, 51, 0
4, 11580, Note_on_c, 2, 51, 116
4, 11606, Note_on_c, 2, 51, 0
4, 11610, Note_on_c, 2, 53, 116
4, 11636, Note_on_c, 2, 53, 0
4, 11640, Note_on_c, 2, 55, 116
4, 11692, Note_on_c, 2, 55, 0
4, 11700, Note_on_c, 2, 60, 116
4, 11752, Note_on_c, 2, 60, 0
4, 11760, Note_on_c, 2, 62, 118
4, 11812, Note_on_c, 2, 62, 0
4, 11820, Note_on_c, 2, 55, 114
4, 11846, Note_on_c, 2, 55, 0
4, 11850, Note_on_c, 2, 57, 117
4, 11876, Note_on_c, 2, 57, 0
4, 11880, Note_on_c, 2, 59, 116
4, 11932, Note_on_c, 2, 59, 0
4, 11940, Note_on_c, 2, 57, 119
4, 11966, Note_on_c, 2, 57, 0
4, 11970, Note_on_c, 2, 59, 116
4, 11996, Note_on_c, 2, 59, 0
4, 12000, Note_on_c, 2, 60, 116
4, 12172, Note_on_c, 2, 60, 0
4, 12180, Note_on_c, 2, 62, 122
4, 12206, Note_on_c, 2, 62, 0
4, 12210, Note_on_c, 2, 63, 120
4, 12236, Note_on_c, 2, 63, 0
4, 12240, Note_on_c, 2, 65, 119
4, 12292, Note_on_c, 2, 65, 0
4, 12300, Note_on_c, 2, 65, 118
4, 12326, Note_on_c, 2, 65, 0
4, 12330, Note_on_c, 2, 63, 120
4, 12356, Note_on_c, 2, 63, 0
4, 12360, Note_on_c, 2, 62, 120
4, 12465, Note_on_c, 2, 62, 0
4, 12480, Note_on_c, 2, 60, 119
4, 12585, Note_on_c, 2, 60, 0
4, 12780, Note_on_c, 2, 65, 116
4, 12806, Note_on_c, 2, 65, 0
4, 12810, Note_on_c, 2, 63, 114
4, 12836, Note_on_c, 2, 63, 0
4, 12840, Note_on_c, 2, 62, 115
4, 12892, Note_on_c, 2, 62, 0
4, 12900, Note_on_c, 2, 59, 116
4, 12926, Note_on_c, 2, 59, 0
4, 12930, Note_on_c, 2, 60, 114
4, 12956, Note_on_c, 2, 60, 0
4, 12960, Note_on_c, 2, 62, 114
4, 13012, Note_on_c, 2, 62, 0
4, 13020, Note_on_c, 2, 62, 116
4, 13046, Note_on_c, 2, 62, 0
4, 13050, Note_on_c, 2, 63, 115
4, 13076, Note_on_c, 2, 63, 0
4, 13080, Note_on_c, 2, 65, 114
4, 13185, Note_on_c, 2, 65, 0
4, 13200, Note_on_c, 2, 67, 114
4, 13305, Note_on_c, 2, 67, 0
4, 13380, Note_on_c, 2, 67, 113
4, 13406, Note_on_c, 2, 67, 0
4, 13410, Note_on_c, 2, 65, 113
4, 13436, Note_on_c, 2, 65, 0
4, 13440, Note_on_c, 2, 67, 112
4, 13492, Note_on_c, 2, 67, 0
4, 13500, Note_on_c, 2, 55, 112
4, 13552, Note_on_c, 2, 55, 0
4, 13560, Note_on_c, 2, 60, 112
4, 13612, Note_on_c, 2, 60, 0
4, 13620, Note_on_c, 2, 63, 111
4, 13646, Note_on_c, 2, 63, 0
4, 13650, Note_on_c, 2, 62, 111
4, 13676, Note_on_c, 2, 62, 0
4, 13680, Note_on_c, 2, 63, 112
4, 13732, Note_on_c, 2, 63, 0
4, 13740, Note_on_c, 2, 60, 113
4, 13766, Note_on_c, 2, 60, 0
4, 13770, Note_on_c, 2, 59, 113
4, 13796, Note_on_c, 2, 59, 0
4, 13800, Note_on_c, 2, 60, 110
4, 13852, Note_on_c, 2, 60, 0
4, 13860, Note_on_c, 2, 51, 111
4, 13886, Note_on_c, 2, 51, 0
4, 13890, Note_on_c, 2, 50, 110
4, 13916, Note_on_c, 2, 50, 0
4, 13920, Note_on_c, 2, 51, 113
4, 14025, Note_on_c, 2, 51, 0
4, 14100, Note_on_c, 2, 55, 115
4, 14126, Note_on_c, 2, 55, 0
4, 14130, Note_on_c, 2, 53, 114
4, 14156, Note_on_c, 2, 53, 0
4, 14160, Note_on_c, 2, 55, 113
4, 14212, Note_on_c, 2, 55, 0
4, 14220, Note_on_c, 2, 50, 111
4, 14272, Note_on_c, 2, 50, 0
4, 14280, Note_on_c, 2, 51, 112
4, 14385, Note_on_c, 2, 51, 0
4, 14430, Program_c, 2, 70
4, 14460, Note_on_c, 2, 67, 113
4, 14486, Note_on_c, 2, 67, 0
4, 14490, Note_on_c, 2, 55, 113
4, 14516, Note_on_c, 2, 55, 0
4, 14520, Note_on_c, 2, 60, 114
4, 14625, Note_on_c, 2, 60, 0
4, 14640, Note_on_c, 2, 59, 115
4, 14745, Note_on_c, 2, 59, 0
4, 14820, Note_on_c, 2, 59, 114
4, 14846, Note_on_c, 2, 59, 0
4, 14850, Note_on_c, 2, 55, 111
4, 14876, Note_on_c, 2, 55, 0
4, 14880, Note_on_c, 2, 60, 112
4, 15105, Note_on_c, 2, 60, 0
4, 15180, Note_on_c, 2, 62, 113
4, 15206, Note_on_c, 2, 62, 0
4, 15210, Note_on_c, 2, 57, 115
4, 15236, Note_on_c, 2, 57, 0
4, 15240, Note_on_c, 2, 59, 114
4, 15345, Note_on_c, 2, 59, 0
4, 15360, Note_on_c, 2, 60, 112
4, 15465, Note_on_c, 2, 60, 0
4, 15540, Note_on_c, 2, 72, 109
4, 15566, Note_on_c, 2, 72, 0
4, 15570, Note_on_c, 2, 60, 113
4, 15596, Note_on_c, 2, 60, 0
4, 15600, Note_on_c, 2, 65, 109
4, 15705, Note_on_c, 2, 65, 0
4, 15720, Note_on_c, 2, 62, 113
4, 15825, Note_on_c, 2, 62, 0
4, 15900, Note_on_c, 2, 62, 111
4, 15926, Note_on_c, 2, 62, 0
4, 15930, Note_on_c, 2, 50, 110
4, 15956, Note_on_c, 2, 50, 0
4, 15960, Note_on_c, 2, 55, 110
4, 16012, Note_on_c, 2, 55, 0
4, 16020, Note_on_c, 2, 62, 112
4, 16072, Note_on_c, 2, 62, 0
4, 16080, Note_on_c, 2, 60, 112
4, 16185, Note_on_c, 2, 60, 0
4, 16260, Note_on_c, 2, 67, 112
4, 16286, Note_on_c, 2, 67, 0
4, 16290, Note_on_c, 2, 55, 110
4, 16316, Note_on_c, 2, 55, 0
4, 16320, Note_on_c, 2, 60, 109
4, 16372, Note_on_c, 2, 60, 0
4, 16380, Note_on_c, 2, 59, 110
4, 16410, Note_on_c, 2, 59, 0
4, 16410, Note_on_c, 2, 62, 110
4, 16436, Note_on_c, 2, 62, 0
4, 16440, Note_on_c, 2, 60, 110
4, 16545, Note_on_c, 2, 60, 0
4, 16620, Note_on_c, 2, 72, 111
4, 16646, Note_on_c, 2, 72, 0
4, 16650, Note_on_c, 2, 60, 113
4, 16676, Note_on_c, 2, 60, 0
4, 16680, Note_on_c, 2, 65, 112
4, 16758, Note_on_c, 2, 65, 0
4, 16770, Note_on_c, 2, 63, 108
4, 16796, Note_on_c, 2, 63, 0
4, 16800, Note_on_c, 2, 62, 110
4, 16905, Note_on_c, 2, 62, 0
4, 17100, Note_on_c, 2, 67, 114
4, 17126, Note_on_c, 2, 67, 0
4, 17130, Note_on_c, 2, 62, 114
4, 17156, Note_on_c, 2, 62, 0
4, 17160, Note_on_c, 2, 63, 108
4, 17186, Note_on_c, 2, 63, 0
4, 17190, Note_on_c, 2, 55, 110
4, 17216, Note_on_c, 2, 55, 0
4, 17220, Note_on_c, 2, 57, 112
4, 17246, Note_on_c, 2, 57, 0
4, 17250, Note_on_c, 2, 59, 112
4, 17276, Note_on_c, 2, 59, 0
4, 17280, Note_on_c, 2, 60, 113
4, 17358, Note_on_c, 2, 60, 0
4, 17370, Note_on_c, 2, 62, 112
4, 17396, Note_on_c, 2, 62, 0
4, 17400, Note_on_c, 2, 63, 113
4, 17505, Note_on_c, 2, 63, 0
4, 17550, Note_on_c, 2, 62, 116
4, 17576, Note_on_c, 2, 62, 0
4, 17580, Note_on_c, 2, 63, 113
4, 17606, Note_on_c, 2, 63, 0
4, 17610, Note_on_c, 2, 65, 116
4, 17636, Note_on_c, 2, 65, 0
4, 17640, Note_on_c, 2, 67, 111
4, 17865, Note_on_c, 2, 67, 0
4, 17910, Note_on_c, 2, 60, 112
4, 17936, Note_on_c, 2, 60, 0
4, 17940, Note_on_c, 2, 62, 111
4, 17966, Note_on_c, 2, 62, 0
4, 17970, Note_on_c, 2, 63, 111
4, 17996, Note_on_c, 2, 63, 0
4, 18000, Note_on_c, 2, 65, 112
4, 18078, Note_on_c, 2, 65, 0
4, 18090, Note_on_c, 2, 63, 112
4, 18116, Note_on_c, 2, 63, 0
4, 18120, Note_on_c, 2, 62, 111
4, 18172, Note_on_c, 2, 62, 0
4, 18180, Note_on_c, 2, 65, 111
4, 18232, Note_on_c, 2, 65, 0
4, 18240, Note_on_c, 2, 63, 112
4, 18266, Note_on_c, 2, 63, 0
4, 18270, Note_on_c, 2, 60, 112
4, 18296, Note_on_c, 2, 60, 0
4, 18300, Note_on_c, 2, 62, 112
4, 18326, Note_on_c, 2, 62, 0
4, 18330, Note_on_c, 2, 63, 112
4, 18356, Note_on_c, 2, 63, 0
4, 18360, Note_on_c, 2, 65, 112
4, 18438, Note_on_c, 2, 65, 0
4, 18450, Note_on_c, 2, 67, 111
4, 18476, Note_on_c, 2, 67, 0
4, 18480, Note_on_c, 2, 68, 112
4, 18532, Note_on_c, 2, 68, 0
4, 18540, Note_on_c, 2, 65, 112
4, 18592, Note_on_c, 2, 65, 0
4, 18600, Note_on_c, 2, 62, 110
4, 18626, Note_on_c, 2, 62, 0
4, 18630, Note_on_c, 2, 50, 111
4, 18656, Note_on_c, 2, 50, 0
4, 18660, Note_on_c, 2, 51, 111
4, 18686, Note_on_c, 2, 51, 0
4, 18690, Note_on_c, 2, 53, 111
4, 18716, Note_on_c, 2, 53, 0
4, 18720, Note_on_c, 2, 55, 112
4, 18798, Note_on_c, 2, 55, 0
4, 18810, Note_on_c, 2, 57, 113
4, 18836, Note_on_c, 2, 57, 0
4, 18840, Note_on_c, 2, 59, 111
4, 18945, Note_on_c, 2, 59, 0
4, 18990, Note_on_c, 2, 55, 112
4, 19016, Note_on_c, 2, 55, 0
4, 19020, Note_on_c, 2, 57, 112
4, 19046, Note_on_c, 2, 57, 0
4, 19050, Note_on_c, 2, 59, 112
4, 19076, Note_on_c, 2, 59, 0
4, 19080, Note_on_c, 2, 60, 112
4, 19185, Note_on_c, 2, 60, 0
4, 19200, Note_on_c, 2, 62, 113
4, 19305, Note_on_c, 2, 62, 0
4, 19350, Note_on_c, 2, 55, 114
4, 19376, Note_on_c, 2, 55, 0
4, 19380, Note_on_c, 2, 57, 113
4, 19406, Note_on_c, 2, 57, 0
4, 19410, Note_on_c, 2, 59, 110
4, 19436, Note_on_c, 2, 59, 0
4, 19440, Note_on_c, 2, 60, 112
4, 19826, Note_on_c, 2, 60, 0
4, 19830, Note_on_c, 2, 60, 110
4, 19856, Note_on_c, 2, 60, 0
4, 19860, Note_on_c, 2, 59, 111
4, 19886, Note_on_c, 2, 59, 0
4, 19890, Note_on_c, 2, 57, 113
4, 19916, Note_on_c, 2, 57, 0
4, 19920, Note_on_c, 2, 59, 113
4, 20025, Note_on_c, 2, 59, 0
4, 20040, Note_on_c, 2, 60, 115
4, 20145, Note_on_c, 2, 60, 0
4, 20310, Note_on_c, 2, 55, 114
4, 20336, Note_on_c, 2, 55, 0
4, 20340, Note_on_c, 2, 53, 110
4, 20366, Note_on_c, 2, 53, 0
4, 20370, Note_on_c, 2, 51, 113
4, 20396, Note_on_c, 2, 51, 0
4, 20400, Note_on_c, 2, 50, 113
4, 20505, Note_on_c, 2, 50, 0
4, 20670, Note_on_c, 2, 65, 109
4, 20696, Note_on_c, 2, 65, 0
4, 20700, Note_on_c, 2, 63, 109
4, 20726, Note_on_c, 2, 63, 0
4, 20730, Note_on_c, 2, 62, 109
4, 20756, Note_on_c, 2, 62, 0
4, 20760, Note_on_c, 2, 60, 109
4, 20865, Note_on_c, 2, 60, 0
4, 20910, Note_on_c, 2, 67, 112
4, 20936, Note_on_c, 2, 67, 0
4, 20940, Note_on_c, 2, 65, 113
4, 20966, Note_on_c, 2, 65, 0
4, 20970, Note_on_c, 2, 63, 112
4, 20996, Note_on_c, 2, 63, 0
4, 21000, Note_on_c, 2, 62, 110
4, 21026, Note_on_c, 2, 62, 0
4, 21030, Note_on_c, 2, 65, 111
4, 21056, Note_on_c, 2, 65, 0
4, 21060, Note_on_c, 2, 63, 111
4, 21086, Note_on_c, 2, 63, 0
4, 21090, Note_on_c, 2, 62, 110
4, 21116, Note_on_c, 2, 62, 0
4, 21120, Note_on_c, 2, 60, 111
4, 21225, Note_on_c, 2, 60, 0
4, 21270, Note_on_c, 2, 67, 109
4, 21296, Note_on_c, 2, 67, 0
4, 21300, Note_on_c, 2, 65, 110
4, 21326, Note_on_c, 2, 65, 0
4, 21330, Note_on_c, 2, 63, 110
4, 21356, Note_on_c, 2, 63, 0
4, 21360, Note_on_c, 2, 62, 110
4, 21386, Note_on_c, 2, 62, 0
4, 21390, Note_on_c, 2, 63, 110
4, 21416, Note_on_c, 2, 63, 0
4, 21420, Note_on_c, 2, 62, 110
4, 21446, Note_on_c, 2, 62, 0
4, 21450, Note_on_c, 2, 60, 111
4, 21476, Note_on_c, 2, 60, 0
4, 21480, Note_on_c, 2, 59, 112
4, 21585, Note_on_c, 2, 59, 0
4, 21750, Note_on_c, 2, 68, 109
4, 21776, Note_on_c, 2, 68, 0
4, 21780, Note_on_c, 2, 67, 109
4, 21806, Note_on_c, 2, 67, 0
4, 21810, Note_on_c, 2, 65, 110
4, 21836, Note_on_c, 2, 65, 0
4, 21840, Note_on_c, 2, 67, 112
4, 21945, Note_on_c, 2, 67, 0
4, 22080, Note_on_c, 2, 62, 111
4, 22106, Note_on_c, 2, 62, 0
4, 22110, Note_on_c, 2, 60, 112
4, 22136, Note_on_c, 2, 60, 0
4, 22140, Note_on_c, 2, 59, 111
4, 22166, Note_on_c, 2, 59, 0
4, 22170, Note_on_c, 2, 57, 112
4, 22196, Note_on_c, 2, 57, 0
4, 22200, Note_on_c, 2, 55, 111
4, 22305, Note_on_c, 2, 55, 0
4, 22470, Note_on_c, 2, 63, 112
4, 22496, Note_on_c, 2, 63, 0
4, 22500, Note_on_c, 2, 62, 111
4, 22526, Note_on_c, 2, 62, 0
4, 22530, Note_on_c, 2, 60, 110
4, 22556, Note_on_c, 2, 60, 0
4, 22560, Note_on_c, 2, 59, 109
4, 22665, Note_on_c, 2, 59, 0
4, 22830, Note_on_c, 2, 56, 112
4, 22856, Note_on_c, 2, 56, 0
4, 22860, Note_on_c, 2, 55, 113
4, 22886, Note_on_c, 2, 55, 0
4, 22890, Note_on_c, 2, 53, 110
4, 22916, Note_on_c, 2, 53, 0
4, 22920, Note_on_c, 2, 51, 110
4, 22946, Note_on_c, 2, 51, 0
4, 22950, Note_on_c, 2, 48, 113
4, 22976, Note_on_c, 2, 48, 0
4, 22980, Note_on_c, 2, 46, 112
4, 23006, Note_on_c, 2, 46, 0
4, 23010, Note_on_c, 2, 44, 111
4, 23036, Note_on_c, 2, 44, 0
4, 23040, Note_on_c, 2, 43, 112
4, 23066, Note_on_c, 2, 43, 0
4, 23070, Note_on_c, 2, 41, 113
4, 23096, Note_on_c, 2, 41, 0
4, 23100, Note_on_c, 2, 39, 112
4, 23126, Note_on_c, 2, 39, 0
4, 23130, Note_on_c, 2, 38, 112
4, 23156, Note_on_c, 2, 38, 0
4, 23160, Note_on_c, 2, 36, 114
4, 23180, Program_c, 2, 57
4, 23186, Note_on_c, 2, 36, 0
4, 23190, Note_on_c, 2, 63, 122
4, 23216, Note_on_c, 2, 63, 0
4, 23220, Note_on_c, 2, 62, 120
4, 23246, Note_on_c, 2, 62, 0
4, 23250, Note_on_c, 2, 60, 122
4, 23276, Note_on_c, 2, 60, 0
4, 23280, Note_on_c, 2, 59, 125
4, 23426, Note_on_c, 2, 59, 0
4, 23430, Note_on_c, 2, 60, 123
4, 23456, Note_on_c, 2, 60, 0
4, 23460, Note_on_c, 2, 59, 122
4, 23486, Note_on_c, 2, 59, 0
4, 23490, Note_on_c, 2, 57, 122
4, 23516, Note_on_c, 2, 57, 0
4, 23520, Note_on_c, 2, 55, 122
4, 23546, Note_on_c, 2, 55, 0
4, 23550, Note_on_c, 2, 51, 122
4, 23576, Note_on_c, 2, 51, 0
4, 23580, Note_on_c, 2, 53, 121
4, 23606, Note_on_c, 2, 53, 0
4, 23610, Note_on_c, 2, 55, 121
4, 23636, Note_on_c, 2, 55, 0
4, 23640, Note_on_c, 2, 56, 121
4, 23718, Note_on_c, 2, 56, 0
4, 23730, Note_on_c, 2, 58, 121
4, 23756, Note_on_c, 2, 58, 0
4, 23760, Note_on_c, 2, 60, 121
4, 23865, Note_on_c, 2, 60, 0
4, 23910, Note_on_c, 2, 55, 120
4, 23936, Note_on_c, 2, 55, 0
4, 23940, Note_on_c, 2, 57, 122
4, 23966, Note_on_c, 2, 57, 0
4, 23970, Note_on_c, 2, 59, 119
4, 23996, Note_on_c, 2, 59, 0
4, 24000, Note_on_c, 2, 60, 120
4, 24026, Note_on_c, 2, 60, 0
4, 24030, Note_on_c, 2, 61, 120
4, 24056, Note_on_c, 2, 61, 0
4, 24060, Note_on_c, 2, 60, 120
4, 24086, Note_on_c, 2, 60, 0
4, 24090, Note_on_c, 2, 58, 120
4, 24116, Note_on_c, 2, 58, 0
4, 24120, Note_on_c, 2, 56, 120
4, 24146, Note_on_c, 2, 56, 0
4, 24150, Note_on_c, 2, 60, 122
4, 24176, Note_on_c, 2, 60, 0
4, 24180, Note_on_c, 2, 62, 124
4, 24206, Note_on_c, 2, 62, 0
4, 24210, Note_on_c, 2, 63, 124
4, 24236, Note_on_c, 2, 63, 0
4, 24240, Note_on_c, 2, 65, 124
4, 24266, Note_on_c, 2, 65, 0
4, 24270, Note_on_c, 2, 67, 124
4, 24296, Note_on_c, 2, 67, 0
4, 24300, Note_on_c, 2, 65, 123
4, 24326, Note_on_c, 2, 65, 0
4, 24330, Note_on_c, 2, 63, 124
4, 24356, Note_on_c, 2, 63, 0
4, 24360, Note_on_c, 2, 62, 124
4, 24506, Note_on_c, 2, 62, 0
4, 24510, Note_on_c, 2, 63, 120
4, 24536, Note_on_c, 2, 63, 0
4, 24540, Note_on_c, 2, 62, 118
4, 24566, Note_on_c, 2, 62, 0
4, 24570, Note_on_c, 2, 60, 118
4, 24596, Note_on_c, 2, 60, 0
4, 24600, Note_on_c, 2, 59, 115
4, 24626, Note_on_c, 2, 59, 0
4, 24630, Note_on_c, 2, 60, 118
4, 24656, Note_on_c, 2, 60, 0
4, 24660, Note_on_c, 2, 59, 119
4, 24686, Note_on_c, 2, 59, 0
4, 24690, Note_on_c, 2, 57, 119
4, 24716, Note_on_c, 2, 57, 0
4, 24720, Note_on_c, 2, 55, 119
4, 24825, Note_on_c, 2, 55, 0
4, 24870, Note_on_c, 2, 60, 119
4, 24896, Note_on_c, 2, 60, 0
4, 24900, Note_on_c, 2, 62, 119
4, 24926, Note_on_c, 2, 62, 0
4, 24930, Note_on_c, 2, 63, 121
4, 24956, Note_on_c, 2, 63, 0
4, 24960, Note_on_c, 2, 65, 121
4, 24986, Note_on_c, 2, 65, 0
4, 24990, Note_on_c, 2, 68, 122
4, 25016, Note_on_c, 2, 68, 0
4, 25020, Note_on_c, 2, 67, 121
4, 25046, Note_on_c, 2, 67, 0
4, 25050, Note_on_c, 2, 65, 120
4, 25076, Note_on_c, 2, 65, 0
4, 25080, Note_on_c, 2, 63, 119
4, 25185, Note_on_c, 2, 63, 0
4, 25230, Note_on_c, 2, 51, 120
4, 25256, Note_on_c, 2, 51, 0
4, 25260, Note_on_c, 2, 53, 121
4, 25286, Note_on_c, 2, 53, 0
4, 25290, Note_on_c, 2, 55, 118
4, 25316, Note_on_c, 2, 55, 0
4, 25320, Note_on_c, 2, 56, 121
4, 25425, Note_on_c, 2, 56, 0
4, 25440, Note_on_c, 2, 55, 118
4, 25492, Note_on_c, 2, 55, 0
4, 25500, Note_on_c, 2, 57, 120
4, 25526, Note_on_c, 2, 57, 0
4, 25530, Note_on_c, 2, 59, 119
4, 25556, Note_on_c, 2, 59, 0
4, 25560, Note_on_c, 2, 60, 118
4, 25586, Note_on_c, 2, 60, 0
4, 25590, Note_on_c, 2, 48, 118
4, 25616, Note_on_c, 2, 48, 0
4, 25620, Note_on_c, 2, 50, 120
4, 25646, Note_on_c, 2, 50, 0
4, 25650, Note_on_c, 2, 51, 120
4, 25676, Note_on_c, 2, 51, 0
4, 25680, Note_on_c, 2, 53, 119
4, 25706, Note_on_c, 2, 53, 0
4, 25710, Note_on_c, 2, 56, 121
4, 25736, Note_on_c, 2, 56, 0
4, 25740, Note_on_c, 2, 55, 120
4, 25766, Note_on_c, 2, 55, 0
4, 25770, Note_on_c, 2, 53, 119
4, 25796, Note_on_c, 2, 53, 0
4, 25800, Note_on_c, 2, 51, 119
4, 25852, Note_on_c, 2, 51, 0
4, 25860, Note_on_c, 2, 48, 118
4, 25912, Note_on_c, 2, 48, 0
4, 25950, Note_on_c, 2, 55, 127
4, 25976, Note_on_c, 2, 55, 0
4, 25980, Note_on_c, 2, 59, 127
4, 26006, Note_on_c, 2, 59, 0
4, 26010, Note_on_c, 2, 55, 127
4, 26036, Note_on_c, 2, 55, 0
4, 26040, Note_on_c, 2, 60, 127
4, 26053, Note_on_c, 2, 60, 0
4, 26055, Note_on_c, 2, 62, 127
4, 26068, Note_on_c, 2, 62, 0
4, 26070, Note_on_c, 2, 60, 127
4, 26148, Note_on_c, 2, 60, 0
4, 26160, Note_on_c, 2, 59, 122
4, 26265, Note_on_c, 2, 59, 0
4, 26310, Note_on_c, 2, 55, 127
4, 26336, Note_on_c, 2, 55, 0
4, 26340, Note_on_c, 2, 59, 127
4, 26366, Note_on_c, 2, 59, 0
4, 26370, Note_on_c, 2, 55, 127
4, 26396, Note_on_c, 2, 55, 0
4, 26400, Note_on_c, 2, 60, 124
4, 26505, Note_on_c, 2, 60, 0
4, 26550, Note_on_c, 2, 60, 127
4, 26576, Note_on_c, 2, 60, 0
4, 26580, Note_on_c, 2, 63, 127
4, 26606, Note_on_c, 2, 63, 0
4, 26610, Note_on_c, 2, 60, 127
4, 26636, Note_on_c, 2, 60, 0
4, 26640, Note_on_c, 2, 65, 123
4, 26865, Note_on_c, 2, 65, 0
4, 27030, Note_on_c, 2, 60, 127
4, 27056, Note_on_c, 2, 60, 0
4, 27060, Note_on_c, 2, 63, 127
4, 27086, Note_on_c, 2, 63, 0
4, 27090, Note_on_c, 2, 60, 127
4, 27116, Note_on_c, 2, 60, 0
4, 27120, Note_on_c, 2, 65, 123
4, 27225, Note_on_c, 2, 65, 0
4, 27240, Note_on_c, 2, 62, 127
4, 27266, Note_on_c, 2, 62, 0
4, 27270, Note_on_c, 2, 55, 127
4, 27296, Note_on_c, 2, 55, 0
4, 27300, Note_on_c, 2, 59, 127
4, 27326, Note_on_c, 2, 59, 0
4, 27330, Note_on_c, 2, 55, 127
4, 27356, Note_on_c, 2, 55, 0
4, 27360, Note_on_c, 2, 62, 127
4, 27386, Note_on_c, 2, 62, 0
4, 27390, Note_on_c, 2, 59, 127
4, 27416, Note_on_c, 2, 59, 0
4, 27420, Note_on_c, 2, 62, 127
4, 27446, Note_on_c, 2, 62, 0
4, 27450, Note_on_c, 2, 59, 127
4, 27476, Note_on_c, 2, 59, 0
4, 27480, Note_on_c, 2, 65, 121
4, 27585, Note_on_c, 2, 65, 0
4, 27600, Note_on_c, 2, 67, 127
4, 27626, Note_on_c, 2, 67, 0
4, 27630, Note_on_c, 2, 55, 127
4, 27656, Note_on_c, 2, 55, 0
4, 27660, Note_on_c, 2, 59, 127
4, 27686, Note_on_c, 2, 59, 0
4, 27690, Note_on_c, 2, 55, 127
4, 27716, Note_on_c, 2, 55, 0
4, 27720, Note_on_c, 2, 60, 122
4, 27825, Note_on_c, 2, 60, 0
4, 27990, Note_on_c, 2, 55, 127
4, 28016, Note_on_c, 2, 55, 0
4, 28020, Note_on_c, 2, 59, 127
4, 28046, Note_on_c, 2, 59, 0
4, 28050, Note_on_c, 2, 55, 127
4, 28076, Note_on_c, 2, 55, 0
4, 28080, Note_on_c, 2, 60, 123
4, 28185, Note_on_c, 2, 60, 0
4, 28350, Note_on_c, 2, 55, 127
4, 28376, Note_on_c, 2, 55, 0
4, 28380, Note_on_c, 2, 59, 127
4, 28406, Note_on_c, 2, 59, 0
4, 28410, Note_on_c, 2, 55, 127
4, 28436, Note_on_c, 2, 55, 0
4, 28440, Note_on_c, 2, 60, 123
4, 28638, Note_on_c, 2, 60, 0
4, 28650, Note_on_c, 2, 59, 127
4, 28676, Note_on_c, 2, 59, 0
4, 28680, Note_on_c, 2, 60, 124
4, 28785, Note_on_c, 2, 60, 0
4, 28920, Note_on_c, 2, 63, 124
4, 29025, Note_on_c, 2, 63, 0
4, 29040, Note_on_c, 2, 62, 126
4, 29145, Note_on_c, 2, 62, 0
4, 29280, Note_on_c, 2, 60, 123
4, 29385, Note_on_c, 2, 60, 0
4, 29400, Note_on_c, 2, 60, 121
4, 29505, Note_on_c, 2, 60, 0
4, 29640, Note_on_c, 2, 67, 122
4, 29745, Note_on_c, 2, 67, 0
4, 29760, Note_on_c, 2, 60, 123
4, 29865, Note_on_c, 2, 60, 0
4, 30000, Note_on_c, 2, 56, 121
4, 30105, Note_on_c, 2, 56, 0
4, 30120, Note_on_c, 2, 55, 123
4, 30225, Note_on_c, 2, 55, 0
4, 30360, Note_on_c, 2, 53, 123
4, 30465, Note_on_c, 2, 53, 0
4, 30480, Note_on_c, 2, 55, 123
4, 30585, Note_on_c, 2, 55, 0
4, 30720, Note_on_c, 2, 55, 121
4, 30825, Note_on_c, 2, 55, 0
4, 30840, Note_on_c, 2, 60, 124
4, 30945, Note_on_c, 2, 60, 0
4, 31080, Note_on_c, 2, 56, 123
4, 31185, Note_on_c, 2, 56, 0
4, 31200, Note_on_c, 2, 55, 122
4, 31305, Note_on_c, 2, 55, 0
4, 31440, Note_on_c, 2, 59, 122
4, 31545, Note_on_c, 2, 59, 0
4, 31560, Note_on_c, 2, 55, 121
4, 31665, Note_on_c, 2, 55, 0
4, 34680, Program_c, 2, 71
4, 34800, Note_on_c, 2, 47, 119
4, 34852, Note_on_c, 2, 47, 0
4, 34860, Note_on_c, 2, 43, 119
4, 34912, Note_on_c, 2, 43, 0
4, 34980, Note_on_c, 2, 55, 120
4, 35032, Note_on_c, 2, 55, 0
4, 35040, Note_on_c, 2, 56, 121
4, 35092, Note_on_c, 2, 56, 0
4, 35100, Note_on_c, 2, 58, 121
4, 35152, Note_on_c, 2, 58, 0
4, 35160, Note_on_c, 2, 60, 121
4, 35385, Note_on_c, 2, 60, 0
4, 35400, Note_on_c, 2, 61, 119
4, 35452, Note_on_c, 2, 61, 0
4, 35460, Note_on_c, 2, 60, 119
4, 35546, Note_on_c, 2, 60, 0
4, 35550, Note_on_c, 2, 61, 114
4, 35576, Note_on_c, 2, 61, 0
4, 35580, Note_on_c, 2, 58, 116
4, 35606, Note_on_c, 2, 58, 0
4, 35610, Note_on_c, 2, 60, 114
4, 35636, Note_on_c, 2, 60, 0
4, 35640, Note_on_c, 2, 56, 116
4, 35692, Note_on_c, 2, 56, 0
4, 35700, Note_on_c, 2, 60, 116
4, 35752, Note_on_c, 2, 60, 0
4, 35760, Note_on_c, 2, 65, 116
4, 35786, Note_on_c, 2, 65, 0
4, 35790, Note_on_c, 2, 67, 116
4, 35816, Note_on_c, 2, 67, 0
4, 35820, Note_on_c, 2, 63, 116
4, 35846, Note_on_c, 2, 63, 0
4, 35850, Note_on_c, 2, 65, 114
4, 35876, Note_on_c, 2, 65, 0
4, 35880, Note_on_c, 2, 62, 116
4, 36026, Note_on_c, 2, 62, 0
4, 36030, Note_on_c, 2, 63, 117
4, 36056, Note_on_c, 2, 63, 0
4, 36060, Note_on_c, 2, 60, 118
4, 36086, Note_on_c, 2, 60, 0
4, 36090, Note_on_c, 2, 62, 118
4, 36116, Note_on_c, 2, 62, 0
4, 36120, Note_on_c, 2, 59, 117
4, 36146, Note_on_c, 2, 59, 0
4, 36150, Note_on_c, 2, 60, 115
4, 36176, Note_on_c, 2, 60, 0
4, 36180, Note_on_c, 2, 57, 116
4, 36206, Note_on_c, 2, 57, 0
4, 36210, Note_on_c, 2, 59, 117
4, 36236, Note_on_c, 2, 59, 0
4, 36240, Note_on_c, 2, 60, 118
4, 36266, Note_on_c, 2, 60, 0
4, 36270, Note_on_c, 2, 62, 117
4, 36296, Note_on_c, 2, 62, 0
4, 36300, Note_on_c, 2, 58, 116
4, 36326, Note_on_c, 2, 58, 0
4, 36330, Note_on_c, 2, 60, 115
4, 36356, Note_on_c, 2, 60, 0
4, 36360, Note_on_c, 2, 56, 117
4, 36386, Note_on_c, 2, 56, 0
4, 36390, Note_on_c, 2, 58, 115
4, 36416, Note_on_c, 2, 58, 0
4, 36420, Note_on_c, 2, 55, 112
4, 36446, Note_on_c, 2, 55, 0
4, 36450, Note_on_c, 2, 56, 115
4, 36476, Note_on_c, 2, 56, 0
4, 36480, Note_on_c, 2, 53, 114
4, 36506, Note_on_c, 2, 53, 0
4, 36510, Note_on_c, 2, 55, 115
4, 36536, Note_on_c, 2, 55, 0
4, 36540, Note_on_c, 2, 51, 114
4, 36566, Note_on_c, 2, 51, 0
4, 36570, Note_on_c, 2, 50, 116
4, 36596, Note_on_c, 2, 50, 0
4, 36600, Note_on_c, 2, 48, 116
4, 36652, Note_on_c, 2, 48, 0
4, 36780, Note_on_c, 2, 51, 118
4, 36832, Note_on_c, 2, 51, 0
4, 36840, Note_on_c, 2, 53, 114
4, 36866, Note_on_c, 2, 53, 0
4, 36870, Note_on_c, 2, 55, 116
4, 36896, Note_on_c, 2, 55, 0
4, 36900, Note_on_c, 2, 51, 116
4, 36926, Note_on_c, 2, 51, 0
4, 36930, Note_on_c, 2, 53, 116
4, 36956, Note_on_c, 2, 53, 0
4, 36960, Note_on_c, 2, 50, 116
4, 36986, Note_on_c, 2, 50, 0
4, 36990, Note_on_c, 2, 51, 114
4, 37016, Note_on_c, 2, 51, 0
4, 37020, Note_on_c, 2, 48, 114
4, 37046, Note_on_c, 2, 48, 0
4, 37050, Note_on_c, 2, 50, 116
4, 37076, Note_on_c, 2, 50, 0
4, 37080, Note_on_c, 2, 47, 116
4, 37132, Note_on_c, 2, 47, 0
4, 37140, Note_on_c, 2, 50, 113
4, 37192, Note_on_c, 2, 50, 0
4, 37200, Note_on_c, 2, 51, 115
4, 37252, Note_on_c, 2, 51, 0
4, 37260, Note_on_c, 2, 53, 117
4, 37312, Note_on_c, 2, 53, 0
4, 37320, Note_on_c, 2, 55, 115
4, 37346, Note_on_c, 2, 55, 0
4, 37350, Note_on_c, 2, 56, 115
4, 37376, Note_on_c, 2, 56, 0
4, 37380, Note_on_c, 2, 53, 117
4, 37406, Note_on_c, 2, 53, 0
4, 37410, Note_on_c, 2, 55, 118
4, 37436, Note_on_c, 2, 55, 0
4, 37440, Note_on_c, 2, 51, 115
4, 37466, Note_on_c, 2, 51, 0
4, 37470, Note_on_c, 2, 53, 114
4, 37496, Note_on_c, 2, 53, 0
4, 37500, Note_on_c, 2, 50, 114
4, 37526, Note_on_c, 2, 50, 0
4, 37530, Note_on_c, 2, 51, 116
4, 37556, Note_on_c, 2, 51, 0
4, 37560, Note_on_c, 2, 48, 115
4, 37612, Note_on_c, 2, 48, 0
4, 37680, Note_on_c, 2, 55, 110
4, 37710, Note_on_c, 2, 55, 0
4, 37710, Note_on_c, 2, 59, 111
4, 37740, Note_on_c, 2, 59, 0
4, 37740, Note_on_c, 2, 57, 111
4, 37770, Note_on_c, 2, 57, 0
4, 37770, Note_on_c, 2, 55, 108
4, 37796, Note_on_c, 2, 55, 0
4, 37800, Note_on_c, 2, 60, 112
4, 37946, Note_on_c, 2, 60, 0
4, 37950, Note_on_c, 2, 61, 108
4, 37976, Note_on_c, 2, 61, 0
4, 37980, Note_on_c, 2, 60, 104
4, 38006, Note_on_c, 2, 60, 0
4, 38010, Note_on_c, 2, 58, 107
4, 38036, Note_on_c, 2, 58, 0
4, 38040, Note_on_c, 2, 56, 107
4, 38205, Note_on_c, 2, 56, 0
4, 38220, Note_on_c, 2, 61, 108
4, 38272, Note_on_c, 2, 61, 0
4, 38280, Note_on_c, 2, 58, 110
4, 38332, Note_on_c, 2, 58, 0
4, 38340, Note_on_c, 2, 60, 104
4, 38392, Note_on_c, 2, 60, 0
4, 38400, Note_on_c, 2, 65, 105
4, 38505, Note_on_c, 2, 65, 0
4, 38640, Note_on_c, 2, 56, 108
4, 38745, Note_on_c, 2, 56, 0
4, 38760, Note_on_c, 2, 55, 107
4, 38790, Note_on_c, 2, 55, 0
4, 38790, Note_on_c, 2, 56, 110
4, 38820, Note_on_c, 2, 56, 0
4, 38820, Note_on_c, 2, 55, 109
4, 38850, Note_on_c, 2, 55, 0
4, 38850, Note_on_c, 2, 53, 109
4, 38876, Note_on_c, 2, 53, 0
4, 38880, Note_on_c, 2, 51, 110
4, 38932, Note_on_c, 2, 51, 0
4, 38940, Note_on_c, 2, 50, 108
4, 38966, Note_on_c, 2, 50, 0
4, 38970, Note_on_c, 2, 48, 107
4, 38996, Note_on_c, 2, 48, 0
4, 39000, Note_on_c, 2, 47, 106
4, 39006, Note_on_c, 2, 47, 0
4, 39007, Note_on_c, 2, 48, 106
4, 39014, Note_on_c, 2, 48, 0
4, 39015, Note_on_c, 2, 47, 106
4, 39021, Note_on_c, 2, 47, 0
4, 39022, Note_on_c, 2, 48, 106
4, 39029, Note_on_c, 2, 48, 0
4, 39030, Note_on_c, 2, 47, 105
4, 39036, Note_on_c, 2, 47, 0
4, 39037, Note_on_c, 2, 48, 105
4, 39044, Note_on_c, 2, 48, 0
4, 39045, Note_on_c, 2, 47, 105
4, 39051, Note_on_c, 2, 47, 0
4, 39052, Note_on_c, 2, 48, 105
4, 39059, Note_on_c, 2, 48, 0
4, 39060, Note_on_c, 2, 47, 106
4, 39066, Note_on_c, 2, 47, 0
4, 39067, Note_on_c, 2, 48, 106
4, 39074, Note_on_c, 2, 48, 0
4, 39075, Note_on_c, 2, 47, 107
4, 39081, Note_on_c, 2, 47, 0
4, 39082, Note_on_c, 2, 48, 108
4, 39089, Note_on_c, 2, 48, 0
4, 39090, Note_on_c, 2, 47, 108
4, 39116, Note_on_c, 2, 47, 0
4, 39120, Note_on_c, 2, 48, 109
4, 39146, Note_on_c, 2, 48, 0
4, 39150, Note_on_c, 2, 51, 104
4, 39176, Note_on_c, 2, 51, 0
4, 39180, Note_on_c, 2, 50, 108
4, 39206, Note_on_c, 2, 50, 0
4, 39210, Note_on_c, 2, 48, 106
4, 39236, Note_on_c, 2, 48, 0
4, 39240, Note_on_c, 2, 55, 107
4, 39405, Note_on_c, 2, 55, 0
4, 39420, Note_on_c, 2, 43, 108
4, 39472, Note_on_c, 2, 43, 0
4, 39480, Note_on_c, 2, 44, 109
4, 39506, Note_on_c, 2, 44, 0
4, 39510, Note_on_c, 2, 48, 109
4, 39536, Note_on_c, 2, 48, 0
4, 39540, Note_on_c, 2, 46, 109
4, 39566, Note_on_c, 2, 46, 0
4, 39570, Note_on_c, 2, 44, 109
4, 39596, Note_on_c, 2, 44, 0
4, 39600, Note_on_c, 2, 51, 109
4, 39652, Note_on_c, 2, 51, 0
4, 39660, Note_on_c, 2, 52, 110
4, 39712, Note_on_c, 2, 52, 0
4, 39720, Note_on_c, 2, 53, 111
4, 39866, Note_on_c, 2, 53, 0
4, 39870, Note_on_c, 2, 53, 107
4, 39896, Note_on_c, 2, 53, 0
4, 39900, Note_on_c, 2, 51, 106
4, 39926, Note_on_c, 2, 51, 0
4, 39930, Note_on_c, 2, 50, 106
4, 39956, Note_on_c, 2, 50, 0
4, 39960, Note_on_c, 2, 51, 107
4, 40065, Note_on_c, 2, 51, 0
4, 40080, Note_on_c, 2, 47, 106
4, 40185, Note_on_c, 2, 47, 0
4, 40200, Note_on_c, 2, 48, 109
4, 40492, Note_on_c, 2, 48, 0
4, 40500, Note_on_c, 2, 36, 107
4, 40552, Note_on_c, 2, 36, 0
4, 42960, Program_c, 2, 71
4, 43080, Note_on_c, 2, 36, 99
4, 43106, Note_on_c, 2, 36, 0
4, 43110, Note_on_c, 2, 48, 99
4, 43136, Note_on_c, 2, 48, 0
4, 43140, Note_on_c, 2, 51, 99
4, 43166, Note_on_c, 2, 51, 0
4, 43170, Note_on_c, 2, 55, 99
4, 43196, Note_on_c, 2, 55, 0
4, 43440, Note_on_c, 2, 43, 99
4, 43466, Note_on_c, 2, 43, 0
4, 43470, Note_on_c, 2, 55, 99
4, 43496, Note_on_c, 2, 55, 0
4, 43500, Note_on_c, 2, 59, 99
4, 43526, Note_on_c, 2, 59, 0
4, 43530, Note_on_c, 2, 62, 99
4, 43556, Note_on_c, 2, 62, 0
4, 43800, Note_on_c, 2, 41, 99
4, 43826, Note_on_c, 2, 41, 0
4, 43830, Note_on_c, 2, 53, 99
4, 43856, Note_on_c, 2, 53, 0
4, 43860, Note_on_c, 2, 56, 99
4, 43886, Note_on_c, 2, 56, 0
4, 43890, Note_on_c, 2, 60, 99
4, 43916, Note_on_c, 2, 60, 0
4, 44160, Note_on_c, 2, 44, 99
4, 44186, Note_on_c, 2, 44, 0
4, 44190, Note_on_c, 2, 56, 99
4, 44216, Note_on_c, 2, 56, 0
4, 44220, Note_on_c, 2, 60, 99
4, 44246, Note_on_c, 2, 60, 0
4, 44250, Note_on_c, 2, 63, 99
4, 44276, Note_on_c, 2, 63, 0
4, 44520, Note_on_c, 2, 43, 99
4, 44546, Note_on_c, 2, 43, 0
4, 44550, Note_on_c, 2, 55, 99
4, 44576, Note_on_c, 2, 55, 0
4, 44580, Note_on_c, 2, 59, 99
4, 44606, Note_on_c, 2, 59, 0
4, 44610, Note_on_c, 2, 62, 99
4, 44636, Note_on_c, 2, 62, 0
4, 44880, Note_on_c, 2, 39, 99
4, 44906, Note_on_c, 2, 39, 0
4, 44910, Note_on_c, 2, 51, 99
4, 44936, Note_on_c, 2, 51, 0
4, 44940, Note_on_c, 2, 55, 99
4, 44966, Note_on_c, 2, 55, 0
4, 44970, Note_on_c, 2, 60, 99
4, 44996, Note_on_c, 2, 60, 0
4, 45240, Note_on_c, 2, 36, 99
4, 45266, Note_on_c, 2, 36, 0
4, 45270, Note_on_c, 2, 48, 99
4, 45296, Note_on_c, 2, 48, 0
4, 45300, Note_on_c, 2, 51, 99
4, 45326, Note_on_c, 2, 51, 0
4, 45330, Note_on_c, 2, 55, 99
4, 45356, Note_on_c, 2, 55, 0
4, 45600, Note_on_c, 2, 43, 99
4, 45626, Note_on_c, 2, 43, 0
4, 45630, Note_on_c, 2, 55, 99
4, 45656, Note_on_c, 2, 55, 0
4, 45660, Note_on_c, 2, 60, 99
4, 45686, Note_on_c, 2, 60, 0
4, 45690, Note_on_c, 2, 63, 99
4, 45716, Note_on_c, 2, 63, 0
4, 45960, Note_on_c, 2, 48, 99
4, 45986, Note_on_c, 2, 48, 0
4, 45990, Note_on_c, 2, 60, 99
4, 46016, Note_on_c, 2, 60, 0
4, 46020, Note_on_c, 2, 63, 99
4, 46046, Note_on_c, 2, 63, 0
4, 46050, Note_on_c, 2, 67, 99
4, 46076, Note_on_c, 2, 67, 0
4, 46240, Program_c, 2, 87
4, 46260, Note_on_c, 2, 55, 121
4, 46321, Note_on_c, 2, 55, 0
4, 46620, Note_on_c, 2, 55, 120
4, 46680, Note_on_c, 2, 55, 0
4, 46980, Note_on_c, 2, 55, 120
4, 47041, Note_on_c, 2, 55, 0
4, 47340, Note_on_c, 2, 62, 121
4, 47401, Note_on_c, 2, 62, 0
4, 47700, Note_on_c, 2, 55, 121
4, 47761, Note_on_c, 2, 55, 0
4, 48060, Note_on_c, 2, 55, 121
4, 48122, Note_on_c, 2, 55, 0
4, 48420, Note_on_c, 2, 62, 121
4, 48481, Note_on_c, 2, 62, 0
4, 48780, Note_on_c, 2, 62, 119
4, 48840, Note_on_c, 2, 62, 0
4, 49080, Note_on_c, 2, 60, 120
4, 49138, Note_on_c, 2, 60, 0
4, 50580, Note_on_c, 2, 59, 109
4, 50632, Note_on_c, 2, 59, 0
4, 50640, Note_on_c, 2, 60, 105
4, 50657, Note_on_c, 2, 60, 0
4, 50659, Note_on_c, 2, 62, 106
4, 50677, Note_on_c, 2, 62, 0
4, 50679, Note_on_c, 2, 63, 101
4, 50697, Note_on_c, 2, 63, 0
4, 50700, Note_on_c, 2, 63, 103
4, 50717, Note_on_c, 2, 63, 0
4, 50719, Note_on_c, 2, 65, 105
4, 50737, Note_on_c, 2, 65, 0
4, 50739, Note_on_c, 2, 67, 104
4, 50757, Note_on_c, 2, 67, 0
4, 50760, Note_on_c, 2, 67, 104
4, 50777, Note_on_c, 2, 67, 0
4, 50779, Note_on_c, 2, 69, 103
4, 50797, Note_on_c, 2, 69, 0
4, 50799, Note_on_c, 2, 71, 106
4, 50817, Note_on_c, 2, 71, 0
4, 50820, Note_on_c, 2, 71, 106
4, 50837, Note_on_c, 2, 71, 0
4, 50839, Note_on_c, 2, 72, 108
4, 50857, Note_on_c, 2, 72, 0
4, 50859, Note_on_c, 2, 74, 105
4, 50877, Note_on_c, 2, 74, 0
4, 50880, Note_on_c, 2, 74, 107
4, 50897, Note_on_c, 2, 74, 0
4, 50899, Note_on_c, 2, 75, 107
4, 50917, Note_on_c, 2, 75, 0
4, 50919, Note_on_c, 2, 77, 107
4, 50937, Note_on_c, 2, 77, 0
4, 50940, Note_on_c, 2, 75, 106
4, 50957, Note_on_c, 2, 75, 0
4, 50959, Note_on_c, 2, 77, 107
4, 50977, Note_on_c, 2, 77, 0
4, 50979, Note_on_c, 2, 74, 104
4, 50997, Note_on_c, 2, 74, 0
4, 51000, Note_on_c, 2, 75, 105
4, 51052, Note_on_c, 2, 75, 0
4, 51840, Note_on_c, 2, 43, 106
4, 51857, Note_on_c, 2, 43, 0
4, 51859, Note_on_c, 2, 41, 109
4, 51877, Note_on_c, 2, 41, 0
4, 51879, Note_on_c, 2, 39, 108
4, 51897, Note_on_c, 2, 39, 0
4, 51900, Note_on_c, 2, 39, 108
4, 51917, Note_on_c, 2, 39, 0
4, 51919, Note_on_c, 2, 38, 108
4, 51937, Note_on_c, 2, 38, 0
4, 51939, Note_on_c, 2, 36, 107
4, 51957, Note_on_c, 2, 36, 0
4, 51960, Note_on_c, 2, 36, 106
4, 52065, Note_on_c, 2, 36, 0
4, 52680, Note_on_c, 2, 62, 99
4, 52852, Note_on_c, 2, 62, 0
4, 52860, Note_on_c, 2, 60, 99
4, 53025, Note_on_c, 2, 60, 0
4, 53100, Note_on_c, 2, 62, 99
4, 53152, Note_on_c, 2, 62, 0
4, 53160, Note_on_c, 2, 60, 99
4, 53173, Note_on_c, 2, 60, 0
4, 53175, Note_on_c, 2, 59, 99
4, 53214, Note_on_c, 2, 59, 0
4, 53220, Note_on_c, 2, 60, 99
4, 53246, Note_on_c, 2, 60, 0
4, 53250, Note_on_c, 2, 59, 99
4, 53276, Note_on_c, 2, 59, 0
4, 53280, Note_on_c, 2, 60, 99
4, 53332, Note_on_c, 2, 60, 0
4, 53340, Note_on_c, 2, 62, 99
4, 53366, Note_on_c, 2, 62, 0
4, 53370, Note_on_c, 2, 63, 99
4, 53396, Note_on_c, 2, 63, 0
4, 53400, Note_on_c, 2, 59, 99
4, 53572, Note_on_c, 2, 59, 0
4, 53580, Note_on_c, 2, 60, 99
4, 53606, Note_on_c, 2, 60, 0
4, 53610, Note_on_c, 2, 62, 99
4, 53636, Note_on_c, 2, 62, 0
4, 53640, Note_on_c, 2, 63, 99
4, 53745, Note_on_c, 2, 63, 0
4, 53820, Note_on_c, 2, 62, 99
4, 53872, Note_on_c, 2, 62, 0
4, 53880, Note_on_c, 2, 60, 99
4, 54045, Note_on_c, 2, 60, 0
4, 54060, Note_on_c, 2, 62, 99
4, 54086, Note_on_c, 2, 62, 0
4, 54090, Note_on_c, 2, 64, 99
4, 54116, Note_on_c, 2, 64, 0
4, 54120, Note_on_c, 2, 65, 99
4, 54292, Note_on_c, 2, 65, 0
4, 54300, Note_on_c, 2, 63, 99
4, 54326, Note_on_c, 2, 63, 0
4, 54330, Note_on_c, 2, 62, 99
4, 54356, Note_on_c, 2, 62, 0
4, 54360, Note_on_c, 2, 63, 99
4, 54412, Note_on_c, 2, 63, 0
4, 54420, Note_on_c, 2, 62, 99
4, 54446, Note_on_c, 2, 62, 0
4, 54450, Note_on_c, 2, 60, 99
4, 54476, Note_on_c, 2, 60, 0
4, 54480, Note_on_c, 2, 67, 99
4, 54532, Note_on_c, 2, 67, 0
4, 54540, Note_on_c, 2, 65, 99
4, 54652, Note_on_c, 2, 65, 0
4, 54660, Note_on_c, 2, 63, 99
4, 54686, Note_on_c, 2, 63, 0
4, 54690, Note_on_c, 2, 62, 99
4, 54716, Note_on_c, 2, 62, 0
4, 54720, Note_on_c, 2, 63, 99
4, 54772, Note_on_c, 2, 63, 0
4, 54780, Note_on_c, 2, 63, 99
4, 54806, Note_on_c, 2, 63, 0
4, 54810, Note_on_c, 2, 62, 99
4, 54836, Note_on_c, 2, 62, 0
4, 54840, Note_on_c, 2, 60, 99
4, 54892, Note_on_c, 2, 60, 0
4, 54900, Note_on_c, 2, 63, 106
4, 54986, Note_on_c, 2, 63, 0
4, 54990, Note_on_c, 2, 65, 109
4, 55016, Note_on_c, 2, 65, 0
4, 55020, Note_on_c, 2, 63, 109
4, 55046, Note_on_c, 2, 63, 0
4, 55050, Note_on_c, 2, 62, 110
4, 55076, Note_on_c, 2, 62, 0
4, 55080, Note_on_c, 2, 63, 108
4, 55226, Note_on_c, 2, 63, 0
4, 55230, Note_on_c, 2, 65, 109
4, 55256, Note_on_c, 2, 65, 0
4, 55260, Note_on_c, 2, 63, 108
4, 55286, Note_on_c, 2, 63, 0
4, 55290, Note_on_c, 2, 62, 106
4, 55316, Note_on_c, 2, 62, 0
4, 55320, Note_on_c, 2, 63, 106
4, 55466, Note_on_c, 2, 63, 0
4, 55470, Note_on_c, 2, 65, 106
4, 55496, Note_on_c, 2, 65, 0
4, 55500, Note_on_c, 2, 63, 106
4, 55526, Note_on_c, 2, 63, 0
4, 55530, Note_on_c, 2, 62, 106
4, 55556, Note_on_c, 2, 62, 0
4, 55560, Note_on_c, 2, 63, 105
4, 55706, Note_on_c, 2, 63, 0
4, 55710, Note_on_c, 2, 65, 108
4, 55736, Note_on_c, 2, 65, 0
4, 55740, Note_on_c, 2, 63, 108
4, 55766, Note_on_c, 2, 63, 0
4, 55770, Note_on_c, 2, 62, 107
4, 55796, Note_on_c, 2, 62, 0
4, 55800, Note_on_c, 2, 63, 107
4, 55946, Note_on_c, 2, 63, 0
4, 55950, Note_on_c, 2, 65, 107
4, 55976, Note_on_c, 2, 65, 0
4, 55980, Note_on_c, 2, 63, 106
4, 56006, Note_on_c, 2, 63, 0
4, 56010, Note_on_c, 2, 62, 106
4, 56036, Note_on_c, 2, 62, 0
4, 56040, Note_on_c, 2, 63, 107
4, 56186, Note_on_c, 2, 63, 0
4, 56190, Note_on_c, 2, 63, 106
4, 56216, Note_on_c, 2, 63, 0
4, 56220, Note_on_c, 2, 62, 106
4, 56246, Note_on_c, 2, 62, 0
4, 56250, Note_on_c, 2, 60, 107
4, 56276, Note_on_c, 2, 60, 0
4, 56280, Note_on_c, 2, 62, 108
4, 56426, Note_on_c, 2, 62, 0
4, 56430, Note_on_c, 2, 65, 108
4, 56456, Note_on_c, 2, 65, 0
4, 56460, Note_on_c, 2, 63, 107
4, 56486, Note_on_c, 2, 63, 0
4, 56490, Note_on_c, 2, 62, 107
4, 56516, Note_on_c, 2, 62, 0
4, 56520, Note_on_c, 2, 60, 107
4, 56625, Note_on_c, 2, 60, 0
4, 56640, Note_on_c, 2, 62, 108
4, 56865, Note_on_c, 2, 62, 0
4, 56880, Note_on_c, 2, 60, 109
4, 57105, Note_on_c, 2, 60, 0
4, 57120, Note_on_c, 2, 59, 107
4, 57225, Note_on_c, 2, 59, 0
4, 57240, Note_on_c, 2, 60, 111
4, 57345, Note_on_c, 2, 60, 0
4, 57360, Note_on_c, 2, 62, 110
4, 57412, Note_on_c, 2, 62, 0
4, 57420, Note_on_c, 2, 55, 108
4, 57626, Note_on_c, 2, 55, 0
4, 57630, Note_on_c, 2, 56, 108
4, 57656, Note_on_c, 2, 56, 0
4, 57660, Note_on_c, 2, 55, 108
4, 57686, Note_on_c, 2, 55, 0
4, 57690, Note_on_c, 2, 53, 109
4, 57716, Note_on_c, 2, 53, 0
4, 57720, Note_on_c, 2, 51, 109
4, 57772, Note_on_c, 2, 51, 0
4, 57780, Note_on_c, 2, 60, 111
4, 57866, Note_on_c, 2, 60, 0
4, 57870, Note_on_c, 2, 62, 112
4, 57896, Note_on_c, 2, 62, 0
4, 57900, Note_on_c, 2, 60, 110
4, 57926, Note_on_c, 2, 60, 0
4, 57930, Note_on_c, 2, 59, 112
4, 57956, Note_on_c, 2, 59, 0
4, 57960, Note_on_c, 2, 60, 111
4, 58106, Note_on_c, 2, 60, 0
4, 58110, Note_on_c, 2, 62, 114
4, 58136, Note_on_c, 2, 62, 0
4, 58140, Note_on_c, 2, 60, 115
4, 58166, Note_on_c, 2, 60, 0
4, 58170, Note_on_c, 2, 59, 115
4, 58196, Note_on_c, 2, 59, 0
4, 58200, Note_on_c, 2, 60, 113
4, 58346, Note_on_c, 2, 60, 0
4, 58350, Note_on_c, 2, 62, 116
4, 58376, Note_on_c, 2, 62, 0
4, 58380, Note_on_c, 2, 60, 115
4, 58406, Note_on_c, 2, 60, 0
4, 58410, Note_on_c, 2, 59, 113
4, 58436, Note_on_c, 2, 59, 0
4, 58440, Note_on_c, 2, 60, 112
4, 58586, Note_on_c, 2, 60, 0
4, 58590, Note_on_c, 2, 62, 115
4, 58616, Note_on_c, 2, 62, 0
4, 58620, Note_on_c, 2, 60, 114
4, 58646, Note_on_c, 2, 60, 0
4, 58650, Note_on_c, 2, 59, 111
4, 58676, Note_on_c, 2, 59, 0
4, 58680, Note_on_c, 2, 60, 114
4, 58826, Note_on_c, 2, 60, 0
4, 58830, Note_on_c, 2, 62, 114
4, 58856, Note_on_c, 2, 62, 0
4, 58860, Note_on_c, 2, 60, 113
4, 58886, Note_on_c, 2, 60, 0
4, 58890, Note_on_c, 2, 59, 113
4, 58916, Note_on_c, 2, 59, 0
4, 58920, Note_on_c, 2, 60, 113
4, 59066, Note_on_c, 2, 60, 0
4, 59070, Note_on_c, 2, 60, 113
4, 59096, Note_on_c, 2, 60, 0
4, 59100, Note_on_c, 2, 62, 115
4, 59126, Note_on_c, 2, 62, 0
4, 59130, Note_on_c, 2, 63, 111
4, 59156, Note_on_c, 2, 63, 0
4, 59160, Note_on_c, 2, 65, 111
4, 59212, Note_on_c, 2, 65, 0
4, 59220, Note_on_c, 2, 53, 112
4, 59272, Note_on_c, 2, 53, 0
4, 59280, Note_on_c, 2, 60, 110
4, 59426, Note_on_c, 2, 60, 0
4, 59430, Note_on_c, 2, 60, 109
4, 59456, Note_on_c, 2, 60, 0
4, 59460, Note_on_c, 2, 59, 109
4, 59486, Note_on_c, 2, 59, 0
4, 59490, Note_on_c, 2, 57, 112
4, 59516, Note_on_c, 2, 57, 0
4, 59520, Note_on_c, 2, 62, 112
4, 59625, Note_on_c, 2, 62, 0
4, 59640, Note_on_c, 2, 55, 112
4, 59786, Note_on_c, 2, 55, 0
4, 59790, Note_on_c, 2, 58, 114
4, 59816, Note_on_c, 2, 58, 0
4, 59820, Note_on_c, 2, 56, 114
4, 59846, Note_on_c, 2, 56, 0
4, 59850, Note_on_c, 2, 55, 112
4, 59876, Note_on_c, 2, 55, 0
4, 59880, Note_on_c, 2, 53, 113
4, 59985, Note_on_c, 2, 53, 0
4, 60000, Note_on_c, 2, 51, 111
4, 60026, Note_on_c, 2, 51, 0
4, 60030, Note_on_c, 2, 53, 114
4, 60056, Note_on_c, 2, 53, 0
4, 60060, Note_on_c, 2, 51, 113
4, 60086, Note_on_c, 2, 51, 0
4, 60090, Note_on_c, 2, 50, 113
4, 60116, Note_on_c, 2, 50, 0
4, 60120, Note_on_c, 2, 51, 112
4, 60198, Note_on_c, 2, 51, 0
4, 60210, Note_on_c, 2, 53, 111
4, 60236, Note_on_c, 2, 53, 0
4, 60240, Note_on_c, 2, 55, 110
4, 60266, Note_on_c, 2, 55, 0
4, 60270, Note_on_c, 2, 53, 114
4, 60296, Note_on_c, 2, 53, 0
4, 60300, Note_on_c, 2, 55, 115
4, 60326, Note_on_c, 2, 55, 0
4, 60330, Note_on_c, 2, 56, 115
4, 60356, Note_on_c, 2, 56, 0
4, 60360, Note_on_c, 2, 55, 115
4, 60506, Note_on_c, 2, 55, 0
4, 60510, Note_on_c, 2, 53, 113
4, 60536, Note_on_c, 2, 53, 0
4, 60540, Note_on_c, 2, 51, 113
4, 60566, Note_on_c, 2, 51, 0
4, 60570, Note_on_c, 2, 50, 111
4, 60596, Note_on_c, 2, 50, 0
4, 60600, Note_on_c, 2, 48, 113
4, 60705, Note_on_c, 2, 48, 0
4, 60770, Program_c, 2, 70
4, 60780, Note_on_c, 2, 63, 99
4, 60840, Note_on_c, 2, 63, 0
4, 60840, Note_on_c, 2, 59, 99
4, 60892, Note_on_c, 2, 59, 0
4, 60900, Note_on_c, 2, 59, 99
4, 60952, Note_on_c, 2, 59, 0
4, 60960, Note_on_c, 2, 60, 99
4, 61012, Note_on_c, 2, 60, 0
4, 61020, Note_on_c, 2, 60, 99
4, 61072, Note_on_c, 2, 60, 0
4, 61140, Note_on_c, 2, 68, 99
4, 61200, Note_on_c, 2, 68, 0
4, 61200, Note_on_c, 2, 62, 99
4, 61252, Note_on_c, 2, 62, 0
4, 61260, Note_on_c, 2, 62, 99
4, 61312, Note_on_c, 2, 62, 0
4, 61320, Note_on_c, 2, 64, 99
4, 61372, Note_on_c, 2, 64, 0
4, 61380, Note_on_c, 2, 64, 99
4, 61432, Note_on_c, 2, 64, 0
4, 61500, Note_on_c, 2, 65, 99
4, 61560, Note_on_c, 2, 65, 0
4, 61560, Note_on_c, 2, 60, 99
4, 61612, Note_on_c, 2, 60, 0
4, 61620, Note_on_c, 2, 60, 99
4, 61672, Note_on_c, 2, 60, 0
4, 61680, Note_on_c, 2, 62, 99
4, 61732, Note_on_c, 2, 62, 0
4, 61740, Note_on_c, 2, 62, 99
4, 61792, Note_on_c, 2, 62, 0
4, 61860, Note_on_c, 2, 63, 99
4, 61920, Note_on_c, 2, 63, 0
4, 61920, Note_on_c, 2, 59, 99
4, 61972, Note_on_c, 2, 59, 0
4, 61980, Note_on_c, 2, 59, 99
4, 62032, Note_on_c, 2, 59, 0
4, 62040, Note_on_c, 2, 60, 99
4, 62092, Note_on_c, 2, 60, 0
4, 62100, Note_on_c, 2, 60, 99
4, 62186, Note_on_c, 2, 60, 0
4, 62190, Note_on_c, 2, 60, 99
4, 62216, Note_on_c, 2, 60, 0
4, 62220, Note_on_c, 2, 58, 99
4, 62246, Note_on_c, 2, 58, 0
4, 62250, Note_on_c, 2, 57, 99
4, 62276, Note_on_c, 2, 57, 0
4, 62280, Note_on_c, 2, 58, 99
4, 62426, Note_on_c, 2, 58, 0
4, 62430, Note_on_c, 2, 58, 99
4, 62456, Note_on_c, 2, 58, 0
4, 62460, Note_on_c, 2, 57, 99
4, 62486, Note_on_c, 2, 57, 0
4, 62490, Note_on_c, 2, 55, 99
4, 62516, Note_on_c, 2, 55, 0
4, 62520, Note_on_c, 2, 54, 99
4, 62546, Note_on_c, 2, 54, 0
4, 62550, Note_on_c, 2, 50, 99
4, 62576, Note_on_c, 2, 50, 0
4, 62580, Note_on_c, 2, 55, 99
4, 62606, Note_on_c, 2, 55, 0
4, 62610, Note_on_c, 2, 48, 99
4, 62636, Note_on_c, 2, 48, 0
4, 62640, Note_on_c, 2, 50, 99
4, 62666, Note_on_c, 2, 50, 0
4, 62670, Note_on_c, 2, 62, 99
4, 62696, Note_on_c, 2, 62, 0
4, 62700, Note_on_c, 2, 60, 99
4, 62726, Note_on_c, 2, 60, 0
4, 62730, Note_on_c, 2, 62, 99
4, 62756, Note_on_c, 2, 62, 0
4, 62760, Note_on_c, 2, 55, 99
4, 62786, Note_on_c, 2, 55, 0
4, 62790, Note_on_c, 2, 67, 99
4, 62816, Note_on_c, 2, 67, 0
4, 62820, Note_on_c, 2, 65, 99
4, 62846, Note_on_c, 2, 65, 0
4, 62850, Note_on_c, 2, 67, 99
4, 62876, Note_on_c, 2, 67, 0
4, 62880, Note_on_c, 2, 63, 99
4, 62906, Note_on_c, 2, 63, 0
4, 62910, Note_on_c, 2, 67, 99
4, 62936, Note_on_c, 2, 67, 0
4, 62940, Note_on_c, 2, 63, 99
4, 62966, Note_on_c, 2, 63, 0
4, 62970, Note_on_c, 2, 67, 99
4, 62996, Note_on_c, 2, 67, 0
4, 63000, Note_on_c, 2, 63, 99
4, 63026, Note_on_c, 2, 63, 0
4, 63030, Note_on_c, 2, 65, 99
4, 63056, Note_on_c, 2, 65, 0
4, 63060, Note_on_c, 2, 63, 99
4, 63086, Note_on_c, 2, 63, 0
4, 63090, Note_on_c, 2, 65, 99
4, 63116, Note_on_c, 2, 65, 0
4, 63120, Note_on_c, 2, 62, 99
4, 63146, Note_on_c, 2, 62, 0
4, 63150, Note_on_c, 2, 65, 99
4, 63176, Note_on_c, 2, 65, 0
4, 63180, Note_on_c, 2, 62, 99
4, 63206, Note_on_c, 2, 62, 0
4, 63210, Note_on_c, 2, 65, 99
4, 63236, Note_on_c, 2, 65, 0
4, 63240, Note_on_c, 2, 60, 99
4, 63266, Note_on_c, 2, 60, 0
4, 63270, Note_on_c, 2, 63, 99
4, 63296, Note_on_c, 2, 63, 0
4, 63300, Note_on_c, 2, 62, 99
4, 63326, Note_on_c, 2, 62, 0
4, 63330, Note_on_c, 2, 65, 99
4, 63356, Note_on_c, 2, 65, 0
4, 63360, Note_on_c, 2, 63, 99
4, 63386, Note_on_c, 2, 63, 0
4, 63390, Note_on_c, 2, 65, 99
4, 63416, Note_on_c, 2, 65, 0
4, 63420, Note_on_c, 2, 63, 99
4, 63446, Note_on_c, 2, 63, 0
4, 63450, Note_on_c, 2, 65, 99
4, 63476, Note_on_c, 2, 65, 0
4, 63480, Note_on_c, 2, 63, 99
4, 63506, Note_on_c, 2, 63, 0
4, 63510, Note_on_c, 2, 65, 99
4, 63536, Note_on_c, 2, 65, 0
4, 63540, Note_on_c, 2, 63, 99
4, 63566, Note_on_c, 2, 63, 0
4, 63570, Note_on_c, 2, 65, 99
4, 63596, Note_on_c, 2, 65, 0
4, 63600, Note_on_c, 2, 62, 99
4, 63626, Note_on_c, 2, 62, 0
4, 63630, Note_on_c, 2, 63, 99
4, 63656, Note_on_c, 2, 63, 0
4, 63660, Note_on_c, 2, 62, 99
4, 63686, Note_on_c, 2, 62, 0
4, 63690, Note_on_c, 2, 63, 99
4, 63716, Note_on_c, 2, 63, 0
4, 63720, Note_on_c, 2, 62, 99
4, 63746, Note_on_c, 2, 62, 0
4, 63750, Note_on_c, 2, 63, 99
4, 63776, Note_on_c, 2, 63, 0
4, 63780, Note_on_c, 2, 60, 99
4, 63806, Note_on_c, 2, 60, 0
4, 63810, Note_on_c, 2, 62, 99
4, 63836, Note_on_c, 2, 62, 0
4, 63840, Note_on_c, 2, 59, 99
4, 63892, Note_on_c, 2, 59, 0
4, 63900, Note_on_c, 2, 59, 99
4, 63952, Note_on_c, 2, 59, 0
4, 63960, Note_on_c, 2, 60, 99
4, 64012, Note_on_c, 2, 60, 0
4, 64020, Note_on_c, 2, 60, 99
4, 64072, Note_on_c, 2, 60, 0
4, 64080, Note_on_c, 2, 53, 99
4, 64132, Note_on_c, 2, 53, 0
4, 64140, Note_on_c, 2, 53, 99
4, 64192, Note_on_c, 2, 53, 0
4, 64200, Note_on_c, 2, 55, 99
4, 64252, Note_on_c, 2, 55, 0
4, 64260, Note_on_c, 2, 55, 99
4, 64312, Note_on_c, 2, 55, 0
4, 64320, Note_on_c, 2, 56, 99
4, 64372, Note_on_c, 2, 56, 0
4, 64380, Note_on_c, 2, 55, 99
4, 64432, Note_on_c, 2, 55, 0
4, 64440, Note_on_c, 2, 53, 99
4, 64612, Note_on_c, 2, 53, 0
4, 64620, Note_on_c, 2, 53, 99
4, 64672, Note_on_c, 2, 53, 0
4, 64680, Note_on_c, 2, 55, 99
4, 64845, Note_on_c, 2, 55, 0
4, 64860, Note_on_c, 2, 55, 99
4, 64965, Note_on_c, 2, 55, 0
4, 64980, Note_on_c, 2, 60, 99
4, 65032, Note_on_c, 2, 60, 0
4, 65040, Note_on_c, 2, 59, 99
4, 65066, Note_on_c, 2, 59, 0
4, 65070, Note_on_c, 2, 62, 99
4, 65096, Note_on_c, 2, 62, 0
4, 65100, Note_on_c, 2, 60, 99
4, 65126, Note_on_c, 2, 60, 0
4, 65130, Note_on_c, 2, 63, 99
4, 65156, Note_on_c, 2, 63, 0
4, 65160, Note_on_c, 2, 62, 99
4, 65212, Note_on_c, 2, 62, 0
4, 65220, Note_on_c, 2, 55, 99
4, 65325, Note_on_c, 2, 55, 0
4, 65340, Note_on_c, 2, 60, 99
4, 65505, Note_on_c, 2, 60, 0
4, 65520, Note_on_c, 2, 65, 99
4, 65625, Note_on_c, 2, 65, 0
4, 65640, Note_on_c, 2, 58, 99
4, 65745, Note_on_c, 2, 58, 0
4, 65760, Note_on_c, 2, 60, 99
4, 65865, Note_on_c, 2, 60, 0
4, 65880, Note_on_c, 2, 65, 99
4, 65932, Note_on_c, 2, 65, 0
4, 65940, Note_on_c, 2, 63, 99
4, 65992, Note_on_c, 2, 63, 0
4, 66000, Note_on_c, 2, 62, 99
4, 66052, Note_on_c, 2, 62, 0
4, 66060, Note_on_c, 2, 60, 99
4, 66112, Note_on_c, 2, 60, 0
4, 66120, Note_on_c, 2, 59, 99
4, 66172, Note_on_c, 2, 59, 0
4, 66180, Note_on_c, 2, 60, 99
4, 66232, Note_on_c, 2, 60, 0
4, 66240, Note_on_c, 2, 62, 99
4, 66345, Note_on_c, 2, 62, 0
4, 66360, Note_on_c, 2, 55, 99
4, 66585, Note_on_c, 2, 55, 0
4, 66720, Note_on_c, 2, 55, 99
4, 66825, Note_on_c, 2, 55, 0
4, 66840, Note_on_c, 2, 62, 99
4, 67065, Note_on_c, 2, 62, 0
4, 67080, Note_on_c, 2, 58, 99
4, 67185, Note_on_c, 2, 58, 0
4, 67200, Note_on_c, 2, 60, 99
4, 67425, Note_on_c, 2, 60, 0
4, 67440, Note_on_c, 2, 62, 99
4, 67545, Note_on_c, 2, 62, 0
4, 67560, Note_on_c, 2, 63, 99
4, 67785, Note_on_c, 2, 63, 0
4, 67800, Note_on_c, 2, 60, 99
4, 67905, Note_on_c, 2, 60, 0
4, 67920, Note_on_c, 2, 62, 99
4, 68085, Note_on_c, 2, 62, 0
4, 68100, Note_on_c, 2, 62, 99
4, 68205, Note_on_c, 2, 62, 0
4, 68220, Note_on_c, 2, 57, 99
4, 68272, Note_on_c, 2, 57, 0
4, 68280, Note_on_c, 2, 62, 99
4, 68332, Note_on_c, 2, 62, 0
4, 68340, Note_on_c, 2, 60, 99
4, 68445, Note_on_c, 2, 60, 0
4, 68460, Note_on_c, 2, 62, 99
4, 68565, Note_on_c, 2, 62, 0
4, 68580, Note_on_c, 2, 57, 99
4, 68632, Note_on_c, 2, 57, 0
4, 68640, Note_on_c, 2, 59, 99
4, 68692, Note_on_c, 2, 59, 0
4, 68700, Note_on_c, 2, 60, 99
4, 68752, Note_on_c, 2, 60, 0
4, 68760, Note_on_c, 2, 62, 99
4, 68812, Note_on_c, 2, 62, 0
4, 68820, Note_on_c, 2, 55, 99
4, 68872, Note_on_c, 2, 55, 0
4, 68880, Note_on_c, 2, 60, 99
4, 68932, Note_on_c, 2, 60, 0
4, 68940, Note_on_c, 2, 56, 99
4, 68992, Note_on_c, 2, 56, 0
4, 69000, Note_on_c, 2, 55, 99
4, 69052, Note_on_c, 2, 55, 0
4, 69060, Note_on_c, 2, 63, 99
4, 69112, Note_on_c, 2, 63, 0
4, 69120, Note_on_c, 2, 59, 99
4, 69172, Note_on_c, 2, 59, 0
4, 69180, Note_on_c, 2, 59, 99
4, 69232, Note_on_c, 2, 59, 0
4, 69240, Note_on_c, 2, 60, 99
4, 69292, Note_on_c, 2, 60, 0
4, 69300, Note_on_c, 2, 60, 99
4, 69352, Note_on_c, 2, 60, 0
4, 69420, Note_on_c, 2, 68, 99
4, 69472, Note_on_c, 2, 68, 0
4, 69480, Note_on_c, 2, 62, 99
4, 69532, Note_on_c, 2, 62, 0
4, 69540, Note_on_c, 2, 62, 99
4, 69592, Note_on_c, 2, 62, 0
4, 69600, Note_on_c, 2, 64, 99
4, 69652, Note_on_c, 2, 64, 0
4, 69660, Note_on_c, 2, 64, 99
4, 69712, Note_on_c, 2, 64, 0
4, 69780, Note_on_c, 2, 65, 99
4, 69832, Note_on_c, 2, 65, 0
4, 69840, Note_on_c, 2, 60, 99
4, 69892, Note_on_c, 2, 60, 0
4, 69900, Note_on_c, 2, 60, 99
4, 69952, Note_on_c, 2, 60, 0
4, 69960, Note_on_c, 2, 62, 99
4, 70012, Note_on_c, 2, 62, 0
4, 70020, Note_on_c, 2, 62, 99
4, 70072, Note_on_c, 2, 62, 0
4, 70140, Note_on_c, 2, 63, 99
4, 70192, Note_on_c, 2, 63, 0
4, 70200, Note_on_c, 2, 58, 99
4, 70252, Note_on_c, 2, 58, 0
4, 70260, Note_on_c, 2, 58, 99
4, 70312, Note_on_c, 2, 58, 0
4, 70320, Note_on_c, 2, 60, 99
4, 70372, Note_on_c, 2, 60, 0
4, 70380, Note_on_c, 2, 60, 99
4, 70432, Note_on_c, 2, 60, 0
4, 70440, Note_on_c, 2, 62, 99
4, 70492, Note_on_c, 2, 62, 0
4, 70500, Note_on_c, 2, 58, 99
4, 70552, Note_on_c, 2, 58, 0
4, 71040, Note_on_c, 2, 51, 99
4, 71145, Note_on_c, 2, 51, 0
4, 71160, Note_on_c, 2, 58, 99
4, 71385, Note_on_c, 2, 58, 0
4, 71400, Note_on_c, 2, 55, 99
4, 71505, Note_on_c, 2, 55, 0
4, 71520, Note_on_c, 2, 56, 99
4, 71745, Note_on_c, 2, 56, 0
4, 71760, Note_on_c, 2, 58, 99
4, 71865, Note_on_c, 2, 58, 0
4, 71880, Note_on_c, 2, 60, 99
4, 72105, Note_on_c, 2, 60, 0
4, 72120, Note_on_c, 2, 56, 99
4, 72225, Note_on_c, 2, 56, 0
4, 72240, Note_on_c, 2, 58, 99
4, 72465, Note_on_c, 2, 58, 0
4, 72480, Note_on_c, 2, 60, 99
4, 72585, Note_on_c, 2, 60, 0
4, 72600, Note_on_c, 2, 53, 99
4, 72825, Note_on_c, 2, 53, 0
4, 72840, Note_on_c, 2, 58, 99
4, 72945, Note_on_c, 2, 58, 0
4, 72960, Note_on_c, 2, 51, 99
4, 73125, Note_on_c, 2, 51, 0
4, 73140, Note_on_c, 2, 51, 99
4, 73192, Note_on_c, 2, 51, 0
4, 73200, Note_on_c, 2, 53, 99
4, 73252, Note_on_c, 2, 53, 0
4, 73260, Note_on_c, 2, 55, 99
4, 73312, Note_on_c, 2, 55, 0
4, 73320, Note_on_c, 2, 56, 99
4, 73346, Note_on_c, 2, 56, 0
4, 73350, Note_on_c, 2, 60, 99
4, 73376, Note_on_c, 2, 60, 0
4, 73380, Note_on_c, 2, 56, 99
4, 73406, Note_on_c, 2, 56, 0
4, 73410, Note_on_c, 2, 60, 99
4, 73436, Note_on_c, 2, 60, 0
4, 73440, Note_on_c, 2, 53, 99
4, 73466, Note_on_c, 2, 53, 0
4, 73470, Note_on_c, 2, 56, 99
4, 73496, Note_on_c, 2, 56, 0
4, 73500, Note_on_c, 2, 53, 99
4, 73526, Note_on_c, 2, 53, 0
4, 73530, Note_on_c, 2, 56, 99
4, 73556, Note_on_c, 2, 56, 0
4, 73560, Note_on_c, 2, 50, 99
4, 73586, Note_on_c, 2, 50, 0
4, 73590, Note_on_c, 2, 53, 99
4, 73616, Note_on_c, 2, 53, 0
4, 73620, Note_on_c, 2, 50, 99
4, 73646, Note_on_c, 2, 50, 0
4, 73650, Note_on_c, 2, 53, 99
4, 73676, Note_on_c, 2, 53, 0
4, 73680, Note_on_c, 2, 55, 99
4, 73706, Note_on_c, 2, 55, 0
4, 73710, Note_on_c, 2, 58, 99
4, 73736, Note_on_c, 2, 58, 0
4, 73740, Note_on_c, 2, 55, 99
4, 73766, Note_on_c, 2, 55, 0
4, 73770, Note_on_c, 2, 58, 99
4, 73796, Note_on_c, 2, 58, 0
4, 73800, Note_on_c, 2, 51, 99
4, 73826, Note_on_c, 2, 51, 0
4, 73830, Note_on_c, 2, 55, 99
4, 73856, Note_on_c, 2, 55, 0
4, 73860, Note_on_c, 2, 51, 99
4, 73886, Note_on_c, 2, 51, 0
4, 73890, Note_on_c, 2, 55, 99
4, 73916, Note_on_c, 2, 55, 0
4, 73920, Note_on_c, 2, 48, 99
4, 73946, Note_on_c, 2, 48, 0
4, 73950, Note_on_c, 2, 51, 99
4, 73976, Note_on_c, 2, 51, 0
4, 73980, Note_on_c, 2, 48, 99
4, 74006, Note_on_c, 2, 48, 0
4, 74010, Note_on_c, 2, 51, 99
4, 74036, Note_on_c, 2, 51, 0
4, 74040, Note_on_c, 2, 53, 99
4, 74066, Note_on_c, 2, 53, 0
4, 74070, Note_on_c, 2, 56, 99
4, 74096, Note_on_c, 2, 56, 0
4, 74100, Note_on_c, 2, 53, 99
4, 74126, Note_on_c, 2, 53, 0
4, 74130, Note_on_c, 2, 56, 99
4, 74156, Note_on_c, 2, 56, 0
4, 74160, Note_on_c, 2, 50, 99
4, 74186, Note_on_c, 2, 50, 0
4, 74190, Note_on_c, 2, 53, 99
4, 74216, Note_on_c, 2, 53, 0
4, 74220, Note_on_c, 2, 50, 99
4, 74246, Note_on_c, 2, 50, 0
4, 74250, Note_on_c, 2, 53, 99
4, 74276, Note_on_c, 2, 53, 0
4, 74280, Note_on_c, 2, 46, 99
4, 74306, Note_on_c, 2, 46, 0
4, 74310, Note_on_c, 2, 50, 99
4, 74336, Note_on_c, 2, 50, 0
4, 74340, Note_on_c, 2, 46, 99
4, 74366, Note_on_c, 2, 46, 0
4, 74370, Note_on_c, 2, 50, 99
4, 74396, Note_on_c, 2, 50, 0
4, 74400, Note_on_c, 2, 51, 99
4, 74426, Note_on_c, 2, 51, 0
4, 74430, Note_on_c, 2, 55, 99
4, 74456, Note_on_c, 2, 55, 0
4, 74460, Note_on_c, 2, 51, 99
4, 74486, Note_on_c, 2, 51, 0
4, 74490, Note_on_c, 2, 55, 99
4, 74516, Note_on_c, 2, 55, 0
4, 74520, Note_on_c, 2, 48, 99
4, 74546, Note_on_c, 2, 48, 0
4, 74550, Note_on_c, 2, 51, 99
4, 74576, Note_on_c, 2, 51, 0
4, 74580, Note_on_c, 2, 48, 99
4, 74606, Note_on_c, 2, 48, 0
4, 74610, Note_on_c, 2, 51, 99
4, 74636, Note_on_c, 2, 51, 0
4, 74640, Note_on_c, 2, 45, 99
4, 74666, Note_on_c, 2, 45, 0
4, 74670, Note_on_c, 2, 48, 99
4, 74696, Note_on_c, 2, 48, 0
4, 74700, Note_on_c, 2, 45, 99
4, 74726, Note_on_c, 2, 45, 0
4, 74730, Note_on_c, 2, 48, 99
4, 74756, Note_on_c, 2, 48, 0
4, 74760, Note_on_c, 2, 46, 99
4, 74906, Note_on_c, 2, 46, 0
4, 74910, Note_on_c, 2, 50, 99
4, 74936, Note_on_c, 2, 50, 0
4, 74940, Note_on_c, 2, 48, 99
4, 74966, Note_on_c, 2, 48, 0
4, 74970, Note_on_c, 2, 51, 99
4, 74996, Note_on_c, 2, 51, 0
4, 75000, Note_on_c, 2, 50, 99
4, 75026, Note_on_c, 2, 50, 0
4, 75030, Note_on_c, 2, 53, 99
4, 75056, Note_on_c, 2, 53, 0
4, 75060, Note_on_c, 2, 51, 99
4, 75086, Note_on_c, 2, 51, 0
4, 75090, Note_on_c, 2, 55, 99
4, 75116, Note_on_c, 2, 55, 0
4, 75120, Note_on_c, 2, 53, 99
4, 75146, Note_on_c, 2, 53, 0
4, 75150, Note_on_c, 2, 55, 99
4, 75176, Note_on_c, 2, 55, 0
4, 75180, Note_on_c, 2, 53, 99
4, 75206, Note_on_c, 2, 53, 0
4, 75210, Note_on_c, 2, 51, 99
4, 75236, Note_on_c, 2, 51, 0
4, 75240, Note_on_c, 2, 50, 99
4, 75266, Note_on_c, 2, 50, 0
4, 75270, Note_on_c, 2, 53, 99
4, 75296, Note_on_c, 2, 53, 0
4, 75300, Note_on_c, 2, 51, 99
4, 75326, Note_on_c, 2, 51, 0
4, 75330, Note_on_c, 2, 53, 99
4, 75356, Note_on_c, 2, 53, 0
4, 75360, Note_on_c, 2, 46, 99
4, 75386, Note_on_c, 2, 46, 0
4, 75390, Note_on_c, 2, 58, 99
4, 75416, Note_on_c, 2, 58, 0
4, 75420, Note_on_c, 2, 57, 99
4, 75446, Note_on_c, 2, 57, 0
4, 75450, Note_on_c, 2, 58, 99
4, 75476, Note_on_c, 2, 58, 0
4, 75480, Note_on_c, 2, 55, 99
4, 75506, Note_on_c, 2, 55, 0
4, 75510, Note_on_c, 2, 58, 99
4, 75536, Note_on_c, 2, 58, 0
4, 75540, Note_on_c, 2, 55, 99
4, 75566, Note_on_c, 2, 55, 0
4, 75570, Note_on_c, 2, 58, 99
4, 75596, Note_on_c, 2, 58, 0
4, 75600, Note_on_c, 2, 55, 99
4, 75626, Note_on_c, 2, 55, 0
4, 75630, Note_on_c, 2, 56, 99
4, 75656, Note_on_c, 2, 56, 0
4, 75660, Note_on_c, 2, 55, 99
4, 75686, Note_on_c, 2, 55, 0
4, 75690, Note_on_c, 2, 56, 99
4, 75716, Note_on_c, 2, 56, 0
4, 75720, Note_on_c, 2, 53, 99
4, 75746, Note_on_c, 2, 53, 0
4, 75750, Note_on_c, 2, 56, 99
4, 75776, Note_on_c, 2, 56, 0
4, 75780, Note_on_c, 2, 53, 99
4, 75806, Note_on_c, 2, 53, 0
4, 75810, Note_on_c, 2, 56, 99
4, 75836, Note_on_c, 2, 56, 0
4, 75840, Note_on_c, 2, 51, 99
4, 75866, Note_on_c, 2, 51, 0
4, 75870, Note_on_c, 2, 55, 99
4, 75896, Note_on_c, 2, 55, 0
4, 75900, Note_on_c, 2, 53, 99
4, 75926, Note_on_c, 2, 53, 0
4, 75930, Note_on_c, 2, 56, 99
4, 75956, Note_on_c, 2, 56, 0
4, 75960, Note_on_c, 2, 55, 99
4, 75986, Note_on_c, 2, 55, 0
4, 75990, Note_on_c, 2, 58, 99
4, 76016, Note_on_c, 2, 58, 0
4, 76020, Note_on_c, 2, 51, 99
4, 76046, Note_on_c, 2, 51, 0
4, 76050, Note_on_c, 2, 55, 99
4, 76076, Note_on_c, 2, 55, 0
4, 76080, Note_on_c, 2, 48, 99
4, 76106, Note_on_c, 2, 48, 0
4, 76110, Note_on_c, 2, 51, 99
4, 76136, Note_on_c, 2, 51, 0
4, 76140, Note_on_c, 2, 50, 99
4, 76166, Note_on_c, 2, 50, 0
4, 76170, Note_on_c, 2, 48, 99
4, 76196, Note_on_c, 2, 48, 0
4, 76200, Note_on_c, 2, 46, 99
4, 76252, Note_on_c, 2, 46, 0
4, 76260, Note_on_c, 2, 58, 99
4, 76312, Note_on_c, 2, 58, 0
4, 76320, Note_on_c, 2, 60, 99
4, 76372, Note_on_c, 2, 60, 0
4, 76380, Note_on_c, 2, 60, 99
4, 76432, Note_on_c, 2, 60, 0
4, 76440, Note_on_c, 2, 62, 99
4, 76492, Note_on_c, 2, 62, 0
4, 76500, Note_on_c, 2, 62, 99
4, 76552, Note_on_c, 2, 62, 0
4, 76560, Note_on_c, 2, 63, 99
4, 76612, Note_on_c, 2, 63, 0
4, 76620, Note_on_c, 2, 51, 99
4, 76672, Note_on_c, 2, 51, 0
4, 76680, Note_on_c, 2, 53, 99
4, 76732, Note_on_c, 2, 53, 0
4, 76740, Note_on_c, 2, 53, 99
4, 76792, Note_on_c, 2, 53, 0
4, 76800, Note_on_c, 2, 55, 99
4, 76852, Note_on_c, 2, 55, 0
4, 76860, Note_on_c, 2, 55, 99
4, 76912, Note_on_c, 2, 55, 0
4, 76920, Note_on_c, 2, 56, 99
4, 76972, Note_on_c, 2, 56, 0
4, 76980, Note_on_c, 2, 68, 99
4, 77032, Note_on_c, 2, 68, 0
4, 77040, Note_on_c, 2, 62, 99
4, 77092, Note_on_c, 2, 62, 0
4, 77100, Note_on_c, 2, 62, 99
4, 77152, Note_on_c, 2, 62, 0
4, 77160, Note_on_c, 2, 64, 99
4, 77212, Note_on_c, 2, 64, 0
4, 77220, Note_on_c, 2, 64, 99
4, 77272, Note_on_c, 2, 64, 0
4, 77280, Note_on_c, 2, 65, 99
4, 77385, Note_on_c, 2, 65, 0
4, 77430, Note_on_c, 2, 67, 99
4, 77456, Note_on_c, 2, 67, 0
4, 77460, Note_on_c, 2, 65, 99
4, 77486, Note_on_c, 2, 65, 0
4, 77490, Note_on_c, 2, 67, 99
4, 77516, Note_on_c, 2, 67, 0
4, 77520, Note_on_c, 2, 63, 99
4, 77546, Note_on_c, 2, 63, 0
4, 77550, Note_on_c, 2, 68, 99
4, 77576, Note_on_c, 2, 68, 0
4, 77580, Note_on_c, 2, 67, 99
4, 77606, Note_on_c, 2, 67, 0
4, 77610, Note_on_c, 2, 68, 99
4, 77636, Note_on_c, 2, 68, 0
4, 77640, Note_on_c, 2, 62, 99
4, 77745, Note_on_c, 2, 62, 0
4, 77790, Note_on_c, 2, 65, 99
4, 77816, Note_on_c, 2, 65, 0
4, 77820, Note_on_c, 2, 63, 99
4, 77846, Note_on_c, 2, 63, 0
4, 77850, Note_on_c, 2, 65, 99
4, 77876, Note_on_c, 2, 65, 0
4, 77880, Note_on_c, 2, 62, 99
4, 77906, Note_on_c, 2, 62, 0
4, 77910, Note_on_c, 2, 67, 99
4, 77936, Note_on_c, 2, 67, 0
4, 77940, Note_on_c, 2, 65, 99
4, 77966, Note_on_c, 2, 65, 0
4, 77970, Note_on_c, 2, 67, 99
4, 77996, Note_on_c, 2, 67, 0
4, 78000, Note_on_c, 2, 60, 99
4, 78105, Note_on_c, 2, 60, 0
4, 78120, Note_on_c, 2, 69, 99
4, 78225, Note_on_c, 2, 69, 0
4, 78240, Note_on_c, 2, 65, 99
4, 78345, Note_on_c, 2, 65, 0
4, 78360, Note_on_c, 2, 58, 99
4, 78465, Note_on_c, 2, 58, 0
4, 78480, Note_on_c, 2, 60, 99
4, 78585, Note_on_c, 2, 60, 0
4, 78600, Note_on_c, 2, 62, 99
4, 78705, Note_on_c, 2, 62, 0
4, 78720, Note_on_c, 2, 63, 99
4, 78825, Note_on_c, 2, 63, 0
4, 78840, Note_on_c, 2, 62, 99
4, 78945, Note_on_c, 2, 62, 0
4, 78960, Note_on_c, 2, 60, 99
4, 79065, Note_on_c, 2, 60, 0
4, 79080, Note_on_c, 2, 62, 99
4, 79185, Note_on_c, 2, 62, 0
4, 79200, Note_on_c, 2, 60, 99
4, 79305, Note_on_c, 2, 60, 0
4, 79320, Note_on_c, 2, 58, 99
4, 79346, Note_on_c, 2, 58, 0
4, 79350, Note_on_c, 2, 57, 99
4, 79376, Note_on_c, 2, 57, 0
4, 79380, Note_on_c, 2, 55, 99
4, 79406, Note_on_c, 2, 55, 0
4, 79410, Note_on_c, 2, 57, 99
4, 79436, Note_on_c, 2, 57, 0
4, 79440, Note_on_c, 2, 58, 99
4, 79466, Note_on_c, 2, 58, 0
4, 79470, Note_on_c, 2, 62, 99
4, 79496, Note_on_c, 2, 62, 0
4, 79500, Note_on_c, 2, 60, 99
4, 79526, Note_on_c, 2, 60, 0
4, 79530, Note_on_c, 2, 63, 99
4, 79556, Note_on_c, 2, 63, 0
4, 79560, Note_on_c, 2, 62, 99
4, 79665, Note_on_c, 2, 62, 0
4, 79680, Note_on_c, 2, 62, 99
4, 79852, Note_on_c, 2, 62, 0
4, 79860, Note_on_c, 2, 55, 99
4, 79912, Note_on_c, 2, 55, 0
4, 79920, Note_on_c, 2, 60, 99
4, 80025, Note_on_c, 2, 60, 0
4, 80040, Note_on_c, 2, 54, 99
4, 80145, Note_on_c, 2, 54, 0
4, 80160, Note_on_c, 2, 55, 99
4, 80265, Note_on_c, 2, 55, 0
4, 80280, Note_on_c, 2, 60, 99
4, 80332, Note_on_c, 2, 60, 0
4, 80340, Note_on_c, 2, 62, 99
4, 80392, Note_on_c, 2, 62, 0
4, 80400, Note_on_c, 2, 63, 99
4, 80505, Note_on_c, 2, 63, 0
4, 80520, Note_on_c, 2, 62, 99
4, 80906, Note_on_c, 2, 62, 0
4, 80910, Note_on_c, 2, 65, 99
4, 80936, Note_on_c, 2, 65, 0
4, 80940, Note_on_c, 2, 63, 99
4, 80966, Note_on_c, 2, 63, 0
4, 80970, Note_on_c, 2, 67, 99
4, 80996, Note_on_c, 2, 67, 0
4, 81000, Note_on_c, 2, 65, 99
4, 81026, Note_on_c, 2, 65, 0
4, 81030, Note_on_c, 2, 67, 99
4, 81056, Note_on_c, 2, 67, 0
4, 81060, Note_on_c, 2, 63, 99
4, 81086, Note_on_c, 2, 63, 0
4, 81090, Note_on_c, 2, 65, 99
4, 81116, Note_on_c, 2, 65, 0
4, 81120, Note_on_c, 2, 67, 99
4, 81172, Note_on_c, 2, 67, 0
4, 81180, Note_on_c, 2, 60, 99
4, 81266, Note_on_c, 2, 60, 0
4, 81270, Note_on_c, 2, 63, 99
4, 81296, Note_on_c, 2, 63, 0
4, 81300, Note_on_c, 2, 62, 99
4, 81326, Note_on_c, 2, 62, 0
4, 81330, Note_on_c, 2, 65, 99
4, 81356, Note_on_c, 2, 65, 0
4, 81360, Note_on_c, 2, 63, 99
4, 81386, Note_on_c, 2, 63, 0
4, 81390, Note_on_c, 2, 65, 99
4, 81416, Note_on_c, 2, 65, 0
4, 81420, Note_on_c, 2, 62, 99
4, 81446, Note_on_c, 2, 62, 0
4, 81450, Note_on_c, 2, 63, 99
4, 81476, Note_on_c, 2, 63, 0
4, 81480, Note_on_c, 2, 65, 99
4, 81532, Note_on_c, 2, 65, 0
4, 81540, Note_on_c, 2, 58, 99
4, 81626, Note_on_c, 2, 58, 0
4, 81630, Note_on_c, 2, 62, 99
4, 81656, Note_on_c, 2, 62, 0
4, 81660, Note_on_c, 2, 60, 99
4, 81686, Note_on_c, 2, 60, 0
4, 81690, Note_on_c, 2, 63, 99
4, 81716, Note_on_c, 2, 63, 0
4, 81720, Note_on_c, 2, 62, 99
4, 81746, Note_on_c, 2, 62, 0
4, 81750, Note_on_c, 2, 63, 99
4, 81776, Note_on_c, 2, 63, 0
4, 81780, Note_on_c, 2, 60, 99
4, 81806, Note_on_c, 2, 60, 0
4, 81810, Note_on_c, 2, 62, 99
4, 81836, Note_on_c, 2, 62, 0
4, 81840, Note_on_c, 2, 63, 99
4, 81892, Note_on_c, 2, 63, 0
4, 81900, Note_on_c, 2, 57, 99
4, 82012, Note_on_c, 2, 57, 0
4, 82020, Note_on_c, 2, 60, 99
4, 82072, Note_on_c, 2, 60, 0
4, 82080, Note_on_c, 2, 58, 99
4, 82132, Note_on_c, 2, 58, 0
4, 82140, Note_on_c, 2, 57, 99
4, 82192, Note_on_c, 2, 57, 0
4, 82200, Note_on_c, 2, 55, 99
4, 82226, Note_on_c, 2, 55, 0
4, 82230, Note_on_c, 2, 58, 99
4, 82256, Note_on_c, 2, 58, 0
4, 82260, Note_on_c, 2, 55, 99
4, 82286, Note_on_c, 2, 55, 0
4, 82290, Note_on_c, 2, 58, 99
4, 82316, Note_on_c, 2, 58, 0
4, 82320, Note_on_c, 2, 60, 99
4, 82346, Note_on_c, 2, 60, 0
4, 82350, Note_on_c, 2, 63, 99
4, 82376, Note_on_c, 2, 63, 0
4, 82380, Note_on_c, 2, 60, 99
4, 82406, Note_on_c, 2, 60, 0
4, 82410, Note_on_c, 2, 63, 99
4, 82436, Note_on_c, 2, 63, 0
4, 82440, Note_on_c, 2, 57, 99
4, 82466, Note_on_c, 2, 57, 0
4, 82470, Note_on_c, 2, 60, 99
4, 82496, Note_on_c, 2, 60, 0
4, 82500, Note_on_c, 2, 58, 99
4, 82526, Note_on_c, 2, 58, 0
4, 82530, Note_on_c, 2, 62, 99
4, 82556, Note_on_c, 2, 62, 0
4, 82560, Note_on_c, 2, 60, 99
4, 82612, Note_on_c, 2, 60, 0
4, 82620, Note_on_c, 2, 53, 99
4, 82732, Note_on_c, 2, 53, 0
4, 82740, Note_on_c, 2, 55, 99
4, 82792, Note_on_c, 2, 55, 0
4, 82800, Note_on_c, 2, 56, 99
4, 82946, Note_on_c, 2, 56, 0
4, 82950, Note_on_c, 2, 55, 99
4, 82976, Note_on_c, 2, 55, 0
4, 82980, Note_on_c, 2, 50, 99
4, 83006, Note_on_c, 2, 50, 0
4, 83010, Note_on_c, 2, 53, 99
4, 83036, Note_on_c, 2, 53, 0
4, 83040, Note_on_c, 2, 51, 99
4, 83066, Note_on_c, 2, 51, 0
4, 83070, Note_on_c, 2, 55, 99
4, 83096, Note_on_c, 2, 55, 0
4, 83100, Note_on_c, 2, 53, 99
4, 83126, Note_on_c, 2, 53, 0
4, 83130, Note_on_c, 2, 56, 99
4, 83156, Note_on_c, 2, 56, 0
4, 83160, Note_on_c, 2, 55, 99
4, 83186, Note_on_c, 2, 55, 0
4, 83190, Note_on_c, 2, 56, 99
4, 83216, Note_on_c, 2, 56, 0
4, 83220, Note_on_c, 2, 53, 99
4, 83246, Note_on_c, 2, 53, 0
4, 83250, Note_on_c, 2, 55, 99
4, 83276, Note_on_c, 2, 55, 0
4, 83280, Note_on_c, 2, 56, 99
4, 83385, Note_on_c, 2, 56, 0
4, 83400, Note_on_c, 2, 50, 99
4, 83452, Note_on_c, 2, 50, 0
4, 84000, Note_on_c, 2, 48, 99
4, 84105, Note_on_c, 2, 48, 0
4, 84120, Note_on_c, 2, 55, 99
4, 84345, Note_on_c, 2, 55, 0
4, 84360, Note_on_c, 2, 51, 99
4, 84465, Note_on_c, 2, 51, 0
4, 84480, Note_on_c, 2, 53, 99
4, 84705, Note_on_c, 2, 53, 0
4, 84720, Note_on_c, 2, 55, 99
4, 84825, Note_on_c, 2, 55, 0
4, 84840, Note_on_c, 2, 56, 99
4, 85065, Note_on_c, 2, 56, 0
4, 85080, Note_on_c, 2, 53, 99
4, 85185, Note_on_c, 2, 53, 0
4, 85200, Note_on_c, 2, 55, 99
4, 85226, Note_on_c, 2, 55, 0
4, 85230, Note_on_c, 2, 58, 99
4, 85256, Note_on_c, 2, 58, 0
4, 85260, Note_on_c, 2, 56, 99
4, 85286, Note_on_c, 2, 56, 0
4, 85290, Note_on_c, 2, 58, 99
4, 85316, Note_on_c, 2, 58, 0
4, 85350, Note_on_c, 2, 60, 99
4, 85376, Note_on_c, 2, 60, 0
4, 85380, Note_on_c, 2, 58, 99
4, 85406, Note_on_c, 2, 58, 0
4, 85410, Note_on_c, 2, 60, 99
4, 85436, Note_on_c, 2, 60, 0
4, 85470, Note_on_c, 2, 62, 99
4, 85496, Note_on_c, 2, 62, 0
4, 85500, Note_on_c, 2, 60, 99
4, 85526, Note_on_c, 2, 60, 0
4, 85530, Note_on_c, 2, 62, 99
4, 85556, Note_on_c, 2, 62, 0
4, 85590, Note_on_c, 2, 63, 99
4, 85616, Note_on_c, 2, 63, 0
4, 85620, Note_on_c, 2, 65, 99
4, 85646, Note_on_c, 2, 65, 0
4, 85650, Note_on_c, 2, 63, 99
4, 85676, Note_on_c, 2, 63, 0
4, 85710, Note_on_c, 2, 62, 99
4, 85736, Note_on_c, 2, 62, 0
4, 85740, Note_on_c, 2, 60, 99
4, 85766, Note_on_c, 2, 60, 0
4, 85770, Note_on_c, 2, 62, 99
4, 85796, Note_on_c, 2, 62, 0
4, 85830, Note_on_c, 2, 59, 99
4, 85856, Note_on_c, 2, 59, 0
4, 85860, Note_on_c, 2, 57, 99
4, 85886, Note_on_c, 2, 57, 0
4, 85890, Note_on_c, 2, 59, 99
4, 85916, Note_on_c, 2, 59, 0
4, 85920, Note_on_c, 2, 60, 99
4, 85972, Note_on_c, 2, 60, 0
4, 86220, Note_on_c, 2, 65, 99
4, 86272, Note_on_c, 2, 65, 0
4, 86280, Note_on_c, 2, 58, 99
4, 86306, Note_on_c, 2, 58, 0
4, 86310, Note_on_c, 2, 62, 99
4, 86336, Note_on_c, 2, 62, 0
4, 86340, Note_on_c, 2, 60, 99
4, 86366, Note_on_c, 2, 60, 0
4, 86370, Note_on_c, 2, 63, 99
4, 86396, Note_on_c, 2, 63, 0
4, 86400, Note_on_c, 2, 62, 99
4, 86426, Note_on_c, 2, 62, 0
4, 86430, Note_on_c, 2, 65, 99
4, 86456, Note_on_c, 2, 65, 0
4, 86460, Note_on_c, 2, 63, 99
4, 86486, Note_on_c, 2, 63, 0
4, 86490, Note_on_c, 2, 67, 99
4, 86516, Note_on_c, 2, 67, 0
4, 86520, Note_on_c, 2, 65, 99
4, 86546, Note_on_c, 2, 65, 0
4, 86550, Note_on_c, 2, 68, 99
4, 86576, Note_on_c, 2, 68, 0
4, 86580, Note_on_c, 2, 67, 99
4, 86606, Note_on_c, 2, 67, 0
4, 86610, Note_on_c, 2, 70, 99
4, 86636, Note_on_c, 2, 70, 0
4, 86640, Note_on_c, 2, 68, 99
4, 86692, Note_on_c, 2, 68, 0
4, 86940, Note_on_c, 2, 62, 99
4, 86992, Note_on_c, 2, 62, 0
4, 87000, Note_on_c, 2, 55, 99
4, 87026, Note_on_c, 2, 55, 0
4, 87030, Note_on_c, 2, 58, 99
4, 87056, Note_on_c, 2, 58, 0
4, 87060, Note_on_c, 2, 57, 99
4, 87086, Note_on_c, 2, 57, 0
4, 87090, Note_on_c, 2, 60, 99
4, 87116, Note_on_c, 2, 60, 0
4, 87120, Note_on_c, 2, 58, 99
4, 87146, Note_on_c, 2, 58, 0
4, 87150, Note_on_c, 2, 62, 99
4, 87176, Note_on_c, 2, 62, 0
4, 87180, Note_on_c, 2, 60, 99
4, 87206, Note_on_c, 2, 60, 0
4, 87210, Note_on_c, 2, 63, 99
4, 87236, Note_on_c, 2, 63, 0
4, 87240, Note_on_c, 2, 62, 99
4, 87266, Note_on_c, 2, 62, 0
4, 87270, Note_on_c, 2, 65, 99
4, 87296, Note_on_c, 2, 65, 0
4, 87300, Note_on_c, 2, 64, 99
4, 87326, Note_on_c, 2, 64, 0
4, 87330, Note_on_c, 2, 67, 99
4, 87356, Note_on_c, 2, 67, 0
4, 87360, Note_on_c, 2, 65, 99
4, 87412, Note_on_c, 2, 65, 0
4, 87540, Note_on_c, 2, 58, 99
4, 87626, Note_on_c, 2, 58, 0
4, 87630, Note_on_c, 2, 60, 99
4, 87656, Note_on_c, 2, 60, 0
4, 87660, Note_on_c, 2, 58, 99
4, 87686, Note_on_c, 2, 58, 0
4, 87690, Note_on_c, 2, 56, 99
4, 87716, Note_on_c, 2, 56, 0
4, 87720, Note_on_c, 2, 55, 99
4, 87746, Note_on_c, 2, 55, 0
4, 87750, Note_on_c, 2, 58, 99
4, 87776, Note_on_c, 2, 58, 0
4, 87780, Note_on_c, 2, 56, 99
4, 87806, Note_on_c, 2, 56, 0
4, 87810, Note_on_c, 2, 60, 99
4, 87836, Note_on_c, 2, 60, 0
4, 87840, Note_on_c, 2, 58, 99
4, 87945, Note_on_c, 2, 58, 0
4, 87960, Note_on_c, 2, 60, 99
4, 87986, Note_on_c, 2, 60, 0
4, 87990, Note_on_c, 2, 62, 99
4, 88016, Note_on_c, 2, 62, 0
4, 88020, Note_on_c, 2, 58, 99
4, 88046, Note_on_c, 2, 58, 0
4, 88050, Note_on_c, 2, 60, 99
4, 88076, Note_on_c, 2, 60, 0
4, 88080, Note_on_c, 2, 57, 99
4, 88106, Note_on_c, 2, 57, 0
4, 88110, Note_on_c, 2, 58, 99
4, 88136, Note_on_c, 2, 58, 0
4, 88140, Note_on_c, 2, 55, 99
4, 88166, Note_on_c, 2, 55, 0
4, 88170, Note_on_c, 2, 57, 99
4, 88196, Note_on_c, 2, 57, 0
4, 88200, Note_on_c, 2, 54, 99
4, 88305, Note_on_c, 2, 54, 0
4, 88320, Note_on_c, 2, 55, 99
4, 88346, Note_on_c, 2, 55, 0
4, 88350, Note_on_c, 2, 57, 99
4, 88376, Note_on_c, 2, 57, 0
4, 88380, Note_on_c, 2, 54, 99
4, 88406, Note_on_c, 2, 54, 0
4, 88410, Note_on_c, 2, 55, 99
4, 88436, Note_on_c, 2, 55, 0
4, 88440, Note_on_c, 2, 57, 99
4, 88492, Note_on_c, 2, 57, 0
4, 88500, Note_on_c, 2, 58, 99
4, 88552, Note_on_c, 2, 58, 0
4, 88560, Note_on_c, 2, 54, 99
4, 88612, Note_on_c, 2, 54, 0
4, 88620, Note_on_c, 2, 54, 99
4, 88672, Note_on_c, 2, 54, 0
4, 88680, Note_on_c, 2, 55, 99
4, 88732, Note_on_c, 2, 55, 0
4, 88740, Note_on_c, 2, 55, 99
4, 88792, Note_on_c, 2, 55, 0
4, 88860, Note_on_c, 2, 63, 99
4, 88912, Note_on_c, 2, 63, 0
4, 88920, Note_on_c, 2, 57, 99
4, 88972, Note_on_c, 2, 57, 0
4, 88980, Note_on_c, 2, 57, 99
4, 89032, Note_on_c, 2, 57, 0
4, 89040, Note_on_c, 2, 59, 99
4, 89092, Note_on_c, 2, 59, 0
4, 89100, Note_on_c, 2, 59, 99
4, 89152, Note_on_c, 2, 59, 0
4, 89220, Note_on_c, 2, 60, 99
4, 89272, Note_on_c, 2, 60, 0
4, 89280, Note_on_c, 2, 55, 99
4, 89332, Note_on_c, 2, 55, 0
4, 89340, Note_on_c, 2, 55, 99
4, 89392, Note_on_c, 2, 55, 0
4, 89400, Note_on_c, 2, 57, 99
4, 89452, Note_on_c, 2, 57, 0
4, 89460, Note_on_c, 2, 57, 99
4, 89512, Note_on_c, 2, 57, 0
4, 89520, Note_on_c, 2, 58, 99
4, 89598, Note_on_c, 2, 58, 0
4, 89610, Note_on_c, 2, 57, 99
4, 89623, Note_on_c, 2, 57, 0
4, 89625, Note_on_c, 2, 55, 99
4, 89638, Note_on_c, 2, 55, 0
4, 89640, Note_on_c, 2, 57, 99
4, 89666, Note_on_c, 2, 57, 0
4, 89670, Note_on_c, 2, 62, 99
4, 89696, Note_on_c, 2, 62, 0
4, 89700, Note_on_c, 2, 60, 99
4, 89726, Note_on_c, 2, 60, 0
4, 89730, Note_on_c, 2, 62, 99
4, 89756, Note_on_c, 2, 62, 0
4, 89760, Note_on_c, 2, 58, 99
4, 89812, Note_on_c, 2, 58, 0
4, 89820, Note_on_c, 2, 59, 99
4, 89872, Note_on_c, 2, 59, 0
4, 89880, Note_on_c, 2, 60, 99
4, 90045, Note_on_c, 2, 60, 0
4, 90060, Note_on_c, 2, 62, 99
4, 90165, Note_on_c, 2, 62, 0
4, 90180, Note_on_c, 2, 58, 99
4, 90292, Note_on_c, 2, 58, 0
4, 90300, Note_on_c, 2, 57, 99
4, 90405, Note_on_c, 2, 57, 0
4, 90420, Note_on_c, 2, 55, 99
4, 90525, Note_on_c, 2, 55, 0
4, 90540, Note_on_c, 2, 54, 99
4, 90592, Note_on_c, 2, 54, 0
4, 90600, Note_on_c, 2, 55, 99
4, 90746, Note_on_c, 2, 55, 0
4, 90750, Note_on_c, 2, 58, 99
4, 90776, Note_on_c, 2, 58, 0
4, 90780, Note_on_c, 2, 57, 99
4, 90806, Note_on_c, 2, 57, 0
4, 90810, Note_on_c, 2, 55, 99
4, 90836, Note_on_c, 2, 55, 0
4, 90840, Note_on_c, 2, 54, 99
4, 90918, Note_on_c, 2, 54, 0
4, 90930, Note_on_c, 2, 55, 99
4, 90956, Note_on_c, 2, 55, 0
4, 90960, Note_on_c, 2, 55, 99
4, 91125, Note_on_c, 2, 55, 0
4, 91140, Note_on_c, 2, 57, 99
4, 91192, Note_on_c, 2, 57, 0
4, 91200, Note_on_c, 2, 59, 99
4, 91305, Note_on_c, 2, 59, 0
4, 91320, Note_on_c, 2, 60, 99
4, 91346, Note_on_c, 2, 60, 0
4, 91350, Note_on_c, 2, 63, 99
4, 91376, Note_on_c, 2, 63, 0
4, 91380, Note_on_c, 2, 62, 99
4, 91406, Note_on_c, 2, 62, 0
4, 91410, Note_on_c, 2, 65, 99
4, 91436, Note_on_c, 2, 65, 0
4, 91440, Note_on_c, 2, 63, 99
4, 91466, Note_on_c, 2, 63, 0
4, 91470, Note_on_c, 2, 67, 99
4, 91496, Note_on_c, 2, 67, 0
4, 91500, Note_on_c, 2, 65, 99
4, 91526, Note_on_c, 2, 65, 0
4, 91530, Note_on_c, 2, 68, 99
4, 91556, Note_on_c, 2, 68, 0
4, 91560, Note_on_c, 2, 67, 99
4, 91586, Note_on_c, 2, 67, 0
4, 91590, Note_on_c, 2, 70, 99
4, 91616, Note_on_c, 2, 70, 0
4, 91620, Note_on_c, 2, 68, 99
4, 91646, Note_on_c, 2, 68, 0
4, 91650, Note_on_c, 2, 67, 99
4, 91676, Note_on_c, 2, 67, 0
4, 91680, Note_on_c, 2, 68, 99
4, 91732, Note_on_c, 2, 68, 0
4, 91740, Note_on_c, 2, 64, 99
4, 91792, Note_on_c, 2, 64, 0
4, 91800, Note_on_c, 2, 65, 99
4, 91826, Note_on_c, 2, 65, 0
4, 91830, Note_on_c, 2, 68, 99
4, 91856, Note_on_c, 2, 68, 0
4, 91860, Note_on_c, 2, 67, 99
4, 91886, Note_on_c, 2, 67, 0
4, 91890, Note_on_c, 2, 70, 99
4, 91916, Note_on_c, 2, 70, 0
4, 91920, Note_on_c, 2, 68, 99
4, 91972, Note_on_c, 2, 68, 0
4, 92190, Note_on_c, 2, 60, 99
4, 92216, Note_on_c, 2, 60, 0
4, 92220, Note_on_c, 2, 58, 99
4, 92246, Note_on_c, 2, 58, 0
4, 92250, Note_on_c, 2, 60, 99
4, 92276, Note_on_c, 2, 60, 0
4, 92280, Note_on_c, 2, 53, 99
4, 92306, Note_on_c, 2, 53, 0
4, 92310, Note_on_c, 2, 65, 99
4, 92336, Note_on_c, 2, 65, 0
4, 92340, Note_on_c, 2, 63, 99
4, 92366, Note_on_c, 2, 63, 0
4, 92370, Note_on_c, 2, 65, 99
4, 92396, Note_on_c, 2, 65, 0
4, 92400, Note_on_c, 2, 61, 99
4, 92426, Note_on_c, 2, 61, 0
4, 92430, Note_on_c, 2, 65, 99
4, 92456, Note_on_c, 2, 65, 0
4, 92460, Note_on_c, 2, 61, 99
4, 92486, Note_on_c, 2, 61, 0
4, 92490, Note_on_c, 2, 65, 99
4, 92516, Note_on_c, 2, 65, 0
4, 92520, Note_on_c, 2, 61, 99
4, 92546, Note_on_c, 2, 61, 0
4, 92550, Note_on_c, 2, 63, 99
4, 92576, Note_on_c, 2, 63, 0
4, 92580, Note_on_c, 2, 61, 99
4, 92606, Note_on_c, 2, 61, 0
4, 92610, Note_on_c, 2, 63, 99
4, 92636, Note_on_c, 2, 63, 0
4, 92640, Note_on_c, 2, 60, 99
4, 92666, Note_on_c, 2, 60, 0
4, 92670, Note_on_c, 2, 63, 99
4, 92696, Note_on_c, 2, 63, 0
4, 92700, Note_on_c, 2, 60, 99
4, 92726, Note_on_c, 2, 60, 0
4, 92730, Note_on_c, 2, 63, 99
4, 92756, Note_on_c, 2, 63, 0
4, 92760, Note_on_c, 2, 58, 99
4, 92786, Note_on_c, 2, 58, 0
4, 92790, Note_on_c, 2, 61, 99
4, 92816, Note_on_c, 2, 61, 0
4, 92820, Note_on_c, 2, 60, 99
4, 92846, Note_on_c, 2, 60, 0
4, 92850, Note_on_c, 2, 63, 99
4, 92876, Note_on_c, 2, 63, 0
4, 92880, Note_on_c, 2, 61, 99
4, 92906, Note_on_c, 2, 61, 0
4, 92910, Note_on_c, 2, 63, 99
4, 92936, Note_on_c, 2, 63, 0
4, 92940, Note_on_c, 2, 61, 99
4, 92966, Note_on_c, 2, 61, 0
4, 92970, Note_on_c, 2, 63, 99
4, 92996, Note_on_c, 2, 63, 0
4, 93000, Note_on_c, 2, 61, 99
4, 93026, Note_on_c, 2, 61, 0
4, 93030, Note_on_c, 2, 63, 99
4, 93056, Note_on_c, 2, 63, 0
4, 93060, Note_on_c, 2, 61, 99
4, 93086, Note_on_c, 2, 61, 0
4, 93090, Note_on_c, 2, 63, 99
4, 93116, Note_on_c, 2, 63, 0
4, 93120, Note_on_c, 2, 60, 99
4, 93506, Note_on_c, 2, 60, 0
4, 93510, Note_on_c, 2, 64, 99
4, 93536, Note_on_c, 2, 64, 0
4, 93540, Note_on_c, 2, 65, 99
4, 93566, Note_on_c, 2, 65, 0
4, 93570, Note_on_c, 2, 67, 99
4, 93596, Note_on_c, 2, 67, 0
4, 93600, Note_on_c, 2, 68, 99
4, 93652, Note_on_c, 2, 68, 0
4, 93660, Note_on_c, 2, 67, 99
4, 93686, Note_on_c, 2, 67, 0
4, 93690, Note_on_c, 2, 65, 99
4, 93716, Note_on_c, 2, 65, 0
4, 93720, Note_on_c, 2, 72, 99
4, 93825, Note_on_c, 2, 72, 0
4, 93840, Note_on_c, 2, 70, 99
4, 93892, Note_on_c, 2, 70, 0
4, 93900, Note_on_c, 2, 65, 99
4, 93952, Note_on_c, 2, 65, 0
4, 93960, Note_on_c, 2, 67, 99
4, 94106, Note_on_c, 2, 67, 0
4, 94110, Note_on_c, 2, 67, 99
4, 94136, Note_on_c, 2, 67, 0
4, 94140, Note_on_c, 2, 68, 99
4, 94166, Note_on_c, 2, 68, 0
4, 94170, Note_on_c, 2, 67, 99
4, 94196, Note_on_c, 2, 67, 0
4, 94200, Note_on_c, 2, 65, 99
4, 94425, Note_on_c, 2, 65, 0
4, 94440, Note_on_c, 2, 63, 99
4, 94612, Note_on_c, 2, 63, 0
4, 94620, Note_on_c, 2, 62, 99
4, 94646, Note_on_c, 2, 62, 0
4, 94650, Note_on_c, 2, 63, 99
4, 94676, Note_on_c, 2, 63, 0
4, 94680, Note_on_c, 2, 60, 99
4, 94706, Note_on_c, 2, 60, 0
4, 94710, Note_on_c, 2, 63, 99
4, 94736, Note_on_c, 2, 63, 0
4, 94740, Note_on_c, 2, 62, 99
4, 94766, Note_on_c, 2, 62, 0
4, 94770, Note_on_c, 2, 60, 99
4, 94796, Note_on_c, 2, 60, 0
4, 94800, Note_on_c, 2, 58, 99
4, 94905, Note_on_c, 2, 58, 0
4, 94950, Note_on_c, 2, 60, 99
4, 94976, Note_on_c, 2, 60, 0
4, 94980, Note_on_c, 2, 58, 99
4, 95006, Note_on_c, 2, 58, 0
4, 95010, Note_on_c, 2, 60, 99
4, 95036, Note_on_c, 2, 60, 0
4, 95040, Note_on_c, 2, 57, 99
4, 95066, Note_on_c, 2, 57, 0
4, 95070, Note_on_c, 2, 58, 99
4, 95096, Note_on_c, 2, 58, 0
4, 95100, Note_on_c, 2, 57, 99
4, 95126, Note_on_c, 2, 57, 0
4, 95130, Note_on_c, 2, 58, 99
4, 95156, Note_on_c, 2, 58, 0
4, 95160, Note_on_c, 2, 55, 99
4, 95265, Note_on_c, 2, 55, 0
4, 95310, Note_on_c, 2, 60, 99
4, 95336, Note_on_c, 2, 60, 0
4, 95340, Note_on_c, 2, 58, 99
4, 95366, Note_on_c, 2, 58, 0
4, 95370, Note_on_c, 2, 60, 99
4, 95396, Note_on_c, 2, 60, 0
4, 95400, Note_on_c, 2, 57, 99
4, 95426, Note_on_c, 2, 57, 0
4, 95430, Note_on_c, 2, 58, 99
4, 95456, Note_on_c, 2, 58, 0
4, 95460, Note_on_c, 2, 57, 99
4, 95486, Note_on_c, 2, 57, 0
4, 95490, Note_on_c, 2, 58, 99
4, 95516, Note_on_c, 2, 58, 0
4, 95520, Note_on_c, 2, 55, 99
4, 95625, Note_on_c, 2, 55, 0
4, 95670, Note_on_c, 2, 57, 99
4, 95696, Note_on_c, 2, 57, 0
4, 95700, Note_on_c, 2, 55, 99
4, 95726, Note_on_c, 2, 55, 0
4, 95730, Note_on_c, 2, 57, 99
4, 95756, Note_on_c, 2, 57, 0
4, 95760, Note_on_c, 2, 54, 99
4, 95812, Note_on_c, 2, 54, 0
4, 95820, Note_on_c, 2, 55, 99
4, 95925, Note_on_c, 2, 55, 0
4, 95940, Note_on_c, 2, 54, 99
4, 95992, Note_on_c, 2, 54, 0
4, 96000, Note_on_c, 2, 55, 99
4, 96105, Note_on_c, 2, 55, 0
4, 96360, Note_on_c, 2, 48, 99
4, 96386, Note_on_c, 2, 48, 0
4, 96390, Note_on_c, 2, 51, 99
4, 96416, Note_on_c, 2, 51, 0
4, 96420, Note_on_c, 2, 50, 99
4, 96446, Note_on_c, 2, 50, 0
4, 96450, Note_on_c, 2, 53, 99
4, 96476, Note_on_c, 2, 53, 0
4, 96480, Note_on_c, 2, 51, 99
4, 96506, Note_on_c, 2, 51, 0
4, 96510, Note_on_c, 2, 55, 99
4, 96536, Note_on_c, 2, 55, 0
4, 96540, Note_on_c, 2, 53, 99
4, 96566, Note_on_c, 2, 53, 0
4, 96570, Note_on_c, 2, 56, 99
4, 96596, Note_on_c, 2, 56, 0
4, 96600, Note_on_c, 2, 55, 99
4, 96626, Note_on_c, 2, 55, 0
4, 96630, Note_on_c, 2, 58, 99
4, 96656, Note_on_c, 2, 58, 0
4, 96660, Note_on_c, 2, 56, 99
4, 96686, Note_on_c, 2, 56, 0
4, 96690, Note_on_c, 2, 55, 99
4, 96716, Note_on_c, 2, 55, 0
4, 96720, Note_on_c, 2, 53, 99
4, 96726, Note_on_c, 2, 53, 0
4, 96727, Note_on_c, 2, 55, 99
4, 96734, Note_on_c, 2, 55, 0
4, 96735, Note_on_c, 2, 53, 99
4, 96741, Note_on_c, 2, 53, 0
4, 96742, Note_on_c, 2, 55, 99
4, 96749, Note_on_c, 2, 55, 0
4, 96750, Note_on_c, 2, 53, 99
4, 96756, Note_on_c, 2, 53, 0
4, 96757, Note_on_c, 2, 55, 99
4, 96764, Note_on_c, 2, 55, 0
4, 96765, Note_on_c, 2, 53, 99
4, 96771, Note_on_c, 2, 53, 0
4, 96772, Note_on_c, 2, 55, 99
4, 96779, Note_on_c, 2, 55, 0
4, 96780, Note_on_c, 2, 53, 99
4, 96786, Note_on_c, 2, 53, 0
4, 96787, Note_on_c, 2, 55, 99
4, 96794, Note_on_c, 2, 55, 0
4, 96795, Note_on_c, 2, 53, 99
4, 96801, Note_on_c, 2, 53, 0
4, 96802, Note_on_c, 2, 55, 99
4, 96809, Note_on_c, 2, 55, 0
4, 96810, Note_on_c, 2, 53, 99
4, 96816, Note_on_c, 2, 53, 0
4, 96817, Note_on_c, 2, 55, 99
4, 96824, Note_on_c, 2, 55, 0
4, 96825, Note_on_c, 2, 53, 99
4, 96831, Note_on_c, 2, 53, 0
4, 96832, Note_on_c, 2, 55, 99
4, 96839, Note_on_c, 2, 55, 0
4, 96840, Note_on_c, 2, 53, 99
4, 96846, Note_on_c, 2, 53, 0
4, 96847, Note_on_c, 2, 55, 99
4, 96854, Note_on_c, 2, 55, 0
4, 96855, Note_on_c, 2, 53, 99
4, 96861, Note_on_c, 2, 53, 0
4, 96862, Note_on_c, 2, 55, 99
4, 96869, Note_on_c, 2, 55, 0
4, 96870, Note_on_c, 2, 53, 99
4, 96876, Note_on_c, 2, 53, 0
4, 96877, Note_on_c, 2, 55, 99
4, 96884, Note_on_c, 2, 55, 0
4, 96885, Note_on_c, 2, 53, 99
4, 96891, Note_on_c, 2, 53, 0
4, 96892, Note_on_c, 2, 55, 99
4, 96899, Note_on_c, 2, 55, 0
4, 96900, Note_on_c, 2, 53, 99
4, 96906, Note_on_c, 2, 53, 0
4, 96907, Note_on_c, 2, 55, 99
4, 96914, Note_on_c, 2, 55, 0
4, 96915, Note_on_c, 2, 53, 99
4, 96921, Note_on_c, 2, 53, 0
4, 96922, Note_on_c, 2, 55, 99
4, 96929, Note_on_c, 2, 55, 0
4, 96930, Note_on_c, 2, 53, 99
4, 96936, Note_on_c, 2, 53, 0
4, 96937, Note_on_c, 2, 55, 99
4, 96944, Note_on_c, 2, 55, 0
4, 96945, Note_on_c, 2, 53, 99
4, 96951, Note_on_c, 2, 53, 0
4, 96952, Note_on_c, 2, 55, 99
4, 96959, Note_on_c, 2, 55, 0
4, 96960, Note_on_c, 2, 53, 99
4, 96966, Note_on_c, 2, 53, 0
4, 96967, Note_on_c, 2, 55, 99
4, 96974, Note_on_c, 2, 55, 0
4, 96975, Note_on_c, 2, 53, 99
4, 96981, Note_on_c, 2, 53, 0
4, 96982, Note_on_c, 2, 55, 99
4, 96989, Note_on_c, 2, 55, 0
4, 96990, Note_on_c, 2, 53, 99
4, 96996, Note_on_c, 2, 53, 0
4, 96997, Note_on_c, 2, 55, 99
4, 97004, Note_on_c, 2, 55, 0
4, 97005, Note_on_c, 2, 53, 99
4, 97011, Note_on_c, 2, 53, 0
4, 97012, Note_on_c, 2, 55, 99
4, 97019, Note_on_c, 2, 55, 0
4, 97020, Note_on_c, 2, 53, 99
4, 97026, Note_on_c, 2, 53, 0
4, 97027, Note_on_c, 2, 55, 99
4, 97034, Note_on_c, 2, 55, 0
4, 97035, Note_on_c, 2, 53, 99
4, 97041, Note_on_c, 2, 53, 0
4, 97042, Note_on_c, 2, 55, 99
4, 97049, Note_on_c, 2, 55, 0
4, 97050, Note_on_c, 2, 53, 99
4, 97056, Note_on_c, 2, 53, 0
4, 97057, Note_on_c, 2, 55, 99
4, 97064, Note_on_c, 2, 55, 0
4, 97065, Note_on_c, 2, 53, 99
4, 97071, Note_on_c, 2, 53, 0
4, 97072, Note_on_c, 2, 55, 99
4, 97079, Note_on_c, 2, 55, 0
4, 97080, Note_on_c, 2, 53, 99
4, 97086, Note_on_c, 2, 53, 0
4, 97087, Note_on_c, 2, 55, 99
4, 97094, Note_on_c, 2, 55, 0
4, 97095, Note_on_c, 2, 53, 99
4, 97101, Note_on_c, 2, 53, 0
4, 97102, Note_on_c, 2, 55, 99
4, 97109, Note_on_c, 2, 55, 0
4, 97110, Note_on_c, 2, 53, 99
4, 97116, Note_on_c, 2, 53, 0
4, 97117, Note_on_c, 2, 55, 99
4, 97124, Note_on_c, 2, 55, 0
4, 97125, Note_on_c, 2, 53, 99
4, 97131, Note_on_c, 2, 53, 0
4, 97132, Note_on_c, 2, 55, 99
4, 97139, Note_on_c, 2, 55, 0
4, 97140, Note_on_c, 2, 53, 99
4, 97146, Note_on_c, 2, 53, 0
4, 97147, Note_on_c, 2, 55, 99
4, 97154, Note_on_c, 2, 55, 0
4, 97155, Note_on_c, 2, 53, 99
4, 97161, Note_on_c, 2, 53, 0
4, 97162, Note_on_c, 2, 55, 99
4, 97169, Note_on_c, 2, 55, 0
4, 97170, Note_on_c, 2, 53, 99
4, 97176, Note_on_c, 2, 53, 0
4, 97177, Note_on_c, 2, 55, 99
4, 97184, Note_on_c, 2, 55, 0
4, 97185, Note_on_c, 2, 53, 99
4, 97191, Note_on_c, 2, 53, 0
4, 97192, Note_on_c, 2, 55, 99
4, 97199, Note_on_c, 2, 55, 0
4, 97200, Note_on_c, 2, 53, 99
4, 97206, Note_on_c, 2, 53, 0
4, 97207, Note_on_c, 2, 55, 99
4, 97214, Note_on_c, 2, 55, 0
4, 97215, Note_on_c, 2, 53, 99
4, 97221, Note_on_c, 2, 53, 0
4, 97222, Note_on_c, 2, 55, 99
4, 97229, Note_on_c, 2, 55, 0
4, 97230, Note_on_c, 2, 53, 99
4, 97236, Note_on_c, 2, 53, 0
4, 97237, Note_on_c, 2, 55, 99
4, 97244, Note_on_c, 2, 55, 0
4, 97245, Note_on_c, 2, 53, 99
4, 97251, Note_on_c, 2, 53, 0
4, 97252, Note_on_c, 2, 55, 99
4, 97259, Note_on_c, 2, 55, 0
4, 97260, Note_on_c, 2, 53, 99
4, 97266, Note_on_c, 2, 53, 0
4, 97267, Note_on_c, 2, 55, 99
4, 97274, Note_on_c, 2, 55, 0
4, 97275, Note_on_c, 2, 53, 99
4, 97281, Note_on_c, 2, 53, 0
4, 97282, Note_on_c, 2, 55, 99
4, 97289, Note_on_c, 2, 55, 0
4, 97290, Note_on_c, 2, 53, 99
4, 97296, Note_on_c, 2, 53, 0
4, 97297, Note_on_c, 2, 55, 99
4, 97304, Note_on_c, 2, 55, 0
4, 97305, Note_on_c, 2, 53, 99
4, 97311, Note_on_c, 2, 53, 0
4, 97312, Note_on_c, 2, 55, 99
4, 97319, Note_on_c, 2, 55, 0
4, 97320, Note_on_c, 2, 53, 99
4, 97326, Note_on_c, 2, 53, 0
4, 97327, Note_on_c, 2, 55, 99
4, 97334, Note_on_c, 2, 55, 0
4, 97335, Note_on_c, 2, 53, 99
4, 97341, Note_on_c, 2, 53, 0
4, 97342, Note_on_c, 2, 55, 99
4, 97349, Note_on_c, 2, 55, 0
4, 97350, Note_on_c, 2, 53, 99
4, 97356, Note_on_c, 2, 53, 0
4, 97357, Note_on_c, 2, 55, 99
4, 97364, Note_on_c, 2, 55, 0
4, 97365, Note_on_c, 2, 53, 99
4, 97371, Note_on_c, 2, 53, 0
4, 97372, Note_on_c, 2, 55, 99
4, 97379, Note_on_c, 2, 55, 0
4, 97380, Note_on_c, 2, 53, 99
4, 97386, Note_on_c, 2, 53, 0
4, 97387, Note_on_c, 2, 55, 99
4, 97394, Note_on_c, 2, 55, 0
4, 97395, Note_on_c, 2, 53, 99
4, 97401, Note_on_c, 2, 53, 0
4, 97402, Note_on_c, 2, 55, 99
4, 97409, Note_on_c, 2, 55, 0
4, 97410, Note_on_c, 2, 53, 99
4, 97466, Note_on_c, 2, 53, 0
4, 97470, Note_on_c, 2, 53, 99
4, 97496, Note_on_c, 2, 53, 0
4, 97500, Note_on_c, 2, 51, 99
4, 97526, Note_on_c, 2, 51, 0
4, 97530, Note_on_c, 2, 50, 99
4, 97556, Note_on_c, 2, 50, 0
4, 97560, Note_on_c, 2, 51, 99
4, 97612, Note_on_c, 2, 51, 0
4, 97620, Note_on_c, 2, 63, 99
4, 97706, Note_on_c, 2, 63, 0
4, 97710, Note_on_c, 2, 63, 99
4, 97736, Note_on_c, 2, 63, 0
4, 97740, Note_on_c, 2, 62, 99
4, 97766, Note_on_c, 2, 62, 0
4, 97770, Note_on_c, 2, 60, 99
4, 97796, Note_on_c, 2, 60, 0
4, 97800, Note_on_c, 2, 59, 99
4, 97826, Note_on_c, 2, 59, 0
4, 97830, Note_on_c, 2, 62, 99
4, 97856, Note_on_c, 2, 62, 0
4, 97860, Note_on_c, 2, 60, 99
4, 97886, Note_on_c, 2, 60, 0
4, 97890, Note_on_c, 2, 63, 99
4, 97916, Note_on_c, 2, 63, 0
4, 97920, Note_on_c, 2, 62, 99
4, 98025, Note_on_c, 2, 62, 0
4, 98070, Note_on_c, 2, 63, 99
4, 98096, Note_on_c, 2, 63, 0
4, 98100, Note_on_c, 2, 62, 99
4, 98126, Note_on_c, 2, 62, 0
4, 98130, Note_on_c, 2, 63, 99
4, 98156, Note_on_c, 2, 63, 0
4, 98160, Note_on_c, 2, 60, 99
4, 98265, Note_on_c, 2, 60, 0
4, 98280, Note_on_c, 2, 58, 99
4, 98385, Note_on_c, 2, 58, 0
4, 98400, Note_on_c, 2, 58, 99
4, 98505, Note_on_c, 2, 58, 0
4, 98520, Note_on_c, 2, 60, 99
4, 98625, Note_on_c, 2, 60, 0
4, 98640, Note_on_c, 2, 65, 99
4, 98666, Note_on_c, 2, 65, 0
4, 98670, Note_on_c, 2, 67, 99
4, 98696, Note_on_c, 2, 67, 0
4, 98700, Note_on_c, 2, 65, 99
4, 98726, Note_on_c, 2, 65, 0
4, 98730, Note_on_c, 2, 63, 99
4, 98756, Note_on_c, 2, 63, 0
4, 98760, Note_on_c, 2, 62, 99
4, 98812, Note_on_c, 2, 62, 0
4, 98820, Note_on_c, 2, 60, 99
4, 98906, Note_on_c, 2, 60, 0
4, 98910, Note_on_c, 2, 59, 99
4, 98936, Note_on_c, 2, 59, 0
4, 98940, Note_on_c, 2, 60, 99
4, 99026, Note_on_c, 2, 60, 0
4, 99030, Note_on_c, 2, 59, 99
4, 99056, Note_on_c, 2, 59, 0
4, 99060, Note_on_c, 2, 60, 99
4, 99086, Note_on_c, 2, 60, 0
4, 99090, Note_on_c, 2, 62, 99
4, 99116, Note_on_c, 2, 62, 0
4, 99120, Note_on_c, 2, 63, 99
4, 99146, Note_on_c, 2, 63, 0
4, 99150, Note_on_c, 2, 67, 99
4, 99176, Note_on_c, 2, 67, 0
4, 99180, Note_on_c, 2, 65, 99
4, 99206, Note_on_c, 2, 65, 0
4, 99210, Note_on_c, 2, 63, 99
4, 99236, Note_on_c, 2, 63, 0
4, 99240, Note_on_c, 2, 62, 99
4, 99345, Note_on_c, 2, 62, 0
4, 99360, Note_on_c, 2, 67, 99
4, 99412, Note_on_c, 2, 67, 0
4, 99420, Note_on_c, 2, 67, 99
4, 99472, Note_on_c, 2, 67, 0
4, 99480, Note_on_c, 2, 63, 99
4, 99532, Note_on_c, 2, 63, 0
4, 99540, Note_on_c, 2, 63, 99
4, 99592, Note_on_c, 2, 63, 0
4, 99600, Note_on_c, 2, 60, 99
4, 99705, Note_on_c, 2, 60, 0
4, 99720, Note_on_c, 2, 65, 99
4, 99772, Note_on_c, 2, 65, 0
4, 99780, Note_on_c, 2, 65, 99
4, 99832, Note_on_c, 2, 65, 0
4, 99840, Note_on_c, 2, 62, 99
4, 99892, Note_on_c, 2, 62, 0
4, 99900, Note_on_c, 2, 62, 99
4, 99952, Note_on_c, 2, 62, 0
4, 99960, Note_on_c, 2, 59, 99
4, 100065, Note_on_c, 2, 59, 0
4, 100080, Note_on_c, 2, 63, 99
4, 100132, Note_on_c, 2, 63, 0
4, 100140, Note_on_c, 2, 63, 99
4, 100192, Note_on_c, 2, 63, 0
4, 100200, Note_on_c, 2, 60, 99
4, 100252, Note_on_c, 2, 60, 0
4, 100260, Note_on_c, 2, 60, 99
4, 100312, Note_on_c, 2, 60, 0
4, 100320, Note_on_c, 2, 57, 99
4, 100425, Note_on_c, 2, 57, 0
4, 100440, Note_on_c, 2, 62, 99
4, 100492, Note_on_c, 2, 62, 0
4, 100500, Note_on_c, 2, 62, 99
4, 100552, Note_on_c, 2, 62, 0
4, 100560, Note_on_c, 2, 59, 99
4, 100612, Note_on_c, 2, 59, 0
4, 100620, Note_on_c, 2, 59, 99
4, 100672, Note_on_c, 2, 59, 0
4, 100680, Note_on_c, 2, 55, 99
4, 100785, Note_on_c, 2, 55, 0
4, 100800, Note_on_c, 2, 60, 99
4, 100852, Note_on_c, 2, 60, 0
4, 100860, Note_on_c, 2, 60, 99
4, 100912, Note_on_c, 2, 60, 0
4, 100920, Note_on_c, 2, 56, 99
4, 100972, Note_on_c, 2, 56, 0
4, 100980, Note_on_c, 2, 56, 99
4, 101032, Note_on_c, 2, 56, 0
4, 101040, Note_on_c, 2, 50, 99
4, 101145, Note_on_c, 2, 50, 0
4, 101220, Note_on_c, 2, 55, 99
4, 101272, Note_on_c, 2, 55, 0
4, 101280, Note_on_c, 2, 55, 99
4, 101332, Note_on_c, 2, 55, 0
4, 101340, Note_on_c, 2, 55, 99
4, 101392, Note_on_c, 2, 55, 0
4, 101400, Note_on_c, 2, 55, 99
4, 101505, Note_on_c, 2, 55, 0
4, 101580, Note_on_c, 2, 55, 99
4, 101632, Note_on_c, 2, 55, 0
4, 101640, Note_on_c, 2, 55, 99
4, 101692, Note_on_c, 2, 55, 0
4, 101700, Note_on_c, 2, 55, 99
4, 101752, Note_on_c, 2, 55, 0
4, 101760, Note_on_c, 2, 55, 99
4, 101865, Note_on_c, 2, 55, 0
4, 101940, Note_on_c, 2, 59, 99
4, 101992, Note_on_c, 2, 59, 0
4, 102000, Note_on_c, 2, 60, 99
4, 102052, Note_on_c, 2, 60, 0
4, 102060, Note_on_c, 2, 60, 99
4, 102112, Note_on_c, 2, 60, 0
4, 102120, Note_on_c, 2, 59, 99
4, 102225, Note_on_c, 2, 59, 0
4, 102300, Note_on_c, 2, 59, 99
4, 102352, Note_on_c, 2, 59, 0
4, 102360, Note_on_c, 2, 60, 99
4, 102412, Note_on_c, 2, 60, 0
4, 102420, Note_on_c, 2, 63, 99
4, 102472, Note_on_c, 2, 63, 0
4, 102480, Note_on_c, 2, 61, 99
4, 102601, Note_on_c, 2, 61, 0
4, 102660, Note_on_c, 2, 62, 99
4, 102712, Note_on_c, 2, 62, 0
4, 102720, Note_on_c, 2, 63, 99
4, 102825, Note_on_c, 2, 63, 0
4, 102840, Note_on_c, 2, 60, 99
4, 103065, Note_on_c, 2, 60, 0
4, 103080, Note_on_c, 2, 59, 99
4, 103185, Note_on_c, 2, 59, 0
4, 103200, Note_on_c, 2, 60, 99
4, 103252, Note_on_c, 2, 60, 0
4, 103260, Note_on_c, 2, 62, 99
4, 103312, Note_on_c, 2, 62, 0
4, 103320, Note_on_c, 2, 64, 99
4, 103372, Note_on_c, 2, 64, 0
4, 103380, Note_on_c, 2, 67, 99
4, 103432, Note_on_c, 2, 67, 0
4, 103440, Note_on_c, 2, 65, 99
4, 103492, Note_on_c, 2, 65, 0
4, 103500, Note_on_c, 2, 65, 99
4, 103552, Note_on_c, 2, 65, 0
4, 103560, Note_on_c, 2, 67, 99
4, 103665, Note_on_c, 2, 67, 0
4, 103740, Note_on_c, 2, 60, 99
4, 103792, Note_on_c, 2, 60, 0
4, 103800, Note_on_c, 2, 60, 99
4, 103852, Note_on_c, 2, 60, 0
4, 103860, Note_on_c, 2, 60, 99
4, 103912, Note_on_c, 2, 60, 0
4, 103920, Note_on_c, 2, 60, 99
4, 104025, Note_on_c, 2, 60, 0
4, 104100, Note_on_c, 2, 64, 99
4, 104152, Note_on_c, 2, 64, 0
4, 104160, Note_on_c, 2, 65, 99
4, 104212, Note_on_c, 2, 65, 0
4, 104220, Note_on_c, 2, 65, 99
4, 104272, Note_on_c, 2, 65, 0
4, 104280, Note_on_c, 2, 64, 99
4, 104385, Note_on_c, 2, 64, 0
4, 104430, Note_on_c, 2, 64, 99
4, 104456, Note_on_c, 2, 64, 0
4, 104460, Note_on_c, 2, 62, 99
4, 104486, Note_on_c, 2, 62, 0
4, 104490, Note_on_c, 2, 64, 99
4, 104520, Note_on_c, 2, 60, 99
4, 104572, Note_on_c, 2, 64, 0
4, 104580, Note_on_c, 2, 65, 99
4, 104632, Note_on_c, 2, 65, 0
4, 104632, Note_on_c, 2, 60, 0
4, 104790, Note_on_c, 2, 56, 99
4, 104816, Note_on_c, 2, 56, 0
4, 104820, Note_on_c, 2, 55, 99
4, 104846, Note_on_c, 2, 55, 0
4, 104850, Note_on_c, 2, 56, 99
4, 104970, Note_on_c, 2, 59, 99
4, 104996, Note_on_c, 2, 59, 0
4, 104996, Note_on_c, 2, 56, 0
4, 105000, Note_on_c, 2, 48, 99
4, 105000, Note_on_c, 2, 55, 99
4, 105000, Note_on_c, 2, 60, 99
4, 105242, Control_c, 2, 7, 109
4, 105243, Control_c, 2, 7, 108
4, 105244, Control_c, 2, 7, 107
4, 105245, Control_c, 2, 7, 106
4, 105246, Control_c, 2, 7, 105
4, 105247, Control_c, 2, 7, 104
4, 105248, Control_c, 2, 7, 103
4, 105249, Control_c, 2, 7, 102
4, 105250, Control_c, 2, 7, 101
4, 105251, Control_c, 2, 7, 100
4, 105252, Control_c, 2, 7, 99
4, 105253, Control_c, 2, 7, 98
4, 105254, Control_c, 2, 7, 97
4, 105256, Control_c, 2, 7, 96
4, 105257, Control_c, 2, 7, 95
4, 105258, Control_c, 2, 7, 94
4, 105259, Control_c, 2, 7, 93
4, 105260, Control_c, 2, 7, 92
4, 105261, Control_c, 2, 7, 91
4, 105262, Control_c, 2, 7, 90
4, 105263, Control_c, 2, 7, 89
4, 105264, Control_c, 2, 7, 88
4, 105265, Control_c, 2, 7, 87
4, 105266, Control_c, 2, 7, 86
4, 105267, Control_c, 2, 7, 85
4, 105269, Control_c, 2, 7, 84
4, 105270, Control_c, 2, 7, 83
4, 105271, Control_c, 2, 7, 82
4, 105272, Control_c, 2, 7, 81
4, 105273, Control_c, 2, 7, 80
4, 105274, Control_c, 2, 7, 79
4, 105275, Control_c, 2, 7, 78
4, 105276, Control_c, 2, 7, 77
4, 105277, Control_c, 2, 7, 76
4, 105278, Control_c, 2, 7, 75
4, 105279, Control_c, 2, 7, 74
4, 105280, Control_c, 2, 7, 73
4, 105282, Control_c, 2, 7, 72
4, 105283, Control_c, 2, 7, 71
4, 105284, Control_c, 2, 7, 70
4, 105285, Control_c, 2, 7, 69
4, 105286, Control_c, 2, 7, 68
4, 105287, Control_c, 2, 7, 67
4, 105288, Control_c, 2, 7, 66
4, 105289, Control_c, 2, 7, 65
4, 105290, Control_c, 2, 7, 64
4, 105291, Control_c, 2, 7, 63
4, 105292, Control_c, 2, 7, 62
4, 105293, Control_c, 2, 7, 61
4, 105295, Control_c, 2, 7, 60
4, 105296, Control_c, 2, 7, 59
4, 105297, Control_c, 2, 7, 58
4, 105298, Control_c, 2, 7, 57
4, 105299, Control_c, 2, 7, 56
4, 105300, Control_c, 2, 7, 55
4, 105301, Control_c, 2, 7, 54
4, 105302, Control_c, 2, 7, 53
4, 105303, Control_c, 2, 7, 52
4, 105304, Control_c, 2, 7, 51
4, 105305, Control_c, 2, 7, 50
4, 105306, Control_c, 2, 7, 49
4, 105308, Control_c, 2, 7, 48
4, 105309, Control_c, 2, 7, 47
4, 105310, Control_c, 2, 7, 46
4, 105311, Control_c, 2, 7, 45
4, 105312, Control_c, 2, 7, 44
4, 105313, Control_c, 2, 7, 43
4, 105314, Control_c, 2, 7, 42
4, 105315, Control_c, 2, 7, 41
4, 105316, Control_c, 2, 7, 40
4, 105317, Control_c, 2, 7, 39
4, 105318, Control_c, 2, 7, 38
4, 105319, Control_c, 2, 7, 37
4, 105321, Control_c, 2, 7, 36
4, 105322, Control_c, 2, 7, 35
4, 105323, Control_c, 2, 7, 34
4, 105324, Control_c, 2, 7, 33
4, 105325, Control_c, 2, 7, 32
4, 105326, Control_c, 2, 7, 31
4, 105327, Control_c, 2, 7, 30
4, 105328, Control_c, 2, 7, 29
4, 105329, Control_c, 2, 7, 28
4, 105330, Control_c, 2, 7, 27
4, 105331, Control_c, 2, 7, 26
4, 105332, Control_c, 2, 7, 25
4, 105334, Control_c, 2, 7, 24
4, 105335, Control_c, 2, 7, 23
4, 105336, Control_c, 2, 7, 22
4, 105337, Control_c, 2, 7, 21
4, 105338, Control_c, 2, 7, 20
4, 105339, Control_c, 2, 7, 19
4, 105340, Control_c, 2, 7, 18
4, 105341, Control_c, 2, 7, 17
4, 105342, Control_c, 2, 7, 16
4, 105343, Control_c, 2, 7, 15
4, 105344, Control_c, 2, 7, 14
4, 105345, Note_on_c, 2, 60, 0
4, 105345, Note_on_c, 2, 55, 0
4, 105345, Note_on_c, 2, 48, 0
4, 105345, Control_c, 2, 7, 13
4, 105347, Control_c, 2, 7, 12
4, 105348, Control_c, 2, 7, 11
4, 105349, Control_c, 2, 7, 10
4, 105350, Control_c, 2, 7, 9
4, 105351, Control_c, 2, 7, 8
4, 105352, Control_c, 2, 7, 7
4, 105353, Control_c, 2, 7, 6
4, 105354, Control_c, 2, 7, 5
4, 105355, Control_c, 2, 7, 4
4, 105356, Control_c, 2, 7, 3
4, 105357, Control_c, 2, 7, 2
4, 105358, Control_c, 2, 7, 1
4, 105360, Control_c, 2, 7, 0
4, 105360, End_track
5, 0, Start_track
5, 0, MIDI_port, 0
5, 0, Program_c, 3, 81
5, 0, Control_c, 3, 7, 115
5, 0, Control_c, 3, 10, 64
5, 44, Control_c, 3, 7, 114
5, 53, Program_c, 3, 19
5, 56, Control_c, 3, 10, 63
5, 123, Note_on_c, 3, 48, 100
5, 228, Note_on_c, 3, 48, 0
5, 240, Note_on_c, 3, 55, 100
5, 465, Note_on_c, 3, 55, 0
5, 480, Note_on_c, 3, 51, 100
5, 585, Note_on_c, 3, 51, 0
5, 600, Note_on_c, 3, 53, 100
5, 825, Note_on_c, 3, 53, 0
5, 840, Note_on_c, 3, 55, 100
5, 945, Note_on_c, 3, 55, 0
5, 960, Note_on_c, 3, 56, 100
5, 1185, Note_on_c, 3, 56, 0
5, 1200, Note_on_c, 3, 53, 100
5, 1305, Note_on_c, 3, 53, 0
5, 1320, Note_on_c, 3, 55, 100
5, 1545, Note_on_c, 3, 55, 0
5, 1560, Note_on_c, 3, 50, 100
5, 1665, Note_on_c, 3, 50, 0
5, 1680, Note_on_c, 3, 51, 100
5, 1905, Note_on_c, 3, 51, 0
5, 1920, Note_on_c, 3, 47, 100
5, 2025, Note_on_c, 3, 47, 0
5, 2040, Note_on_c, 3, 48, 100
5, 2265, Note_on_c, 3, 48, 0
5, 2280, Note_on_c, 3, 41, 100
5, 2385, Note_on_c, 3, 41, 0
5, 2400, Note_on_c, 3, 43, 100
5, 2745, Note_on_c, 3, 43, 0
5, 2760, Note_on_c, 3, 36, 100
5, 2985, Note_on_c, 3, 36, 0
5, 3000, Note_on_c, 3, 48, 100
5, 3105, Note_on_c, 3, 48, 0
5, 3120, Note_on_c, 3, 55, 100
5, 3345, Note_on_c, 3, 55, 0
5, 3360, Note_on_c, 3, 51, 100
5, 3465, Note_on_c, 3, 51, 0
5, 3480, Note_on_c, 3, 53, 100
5, 3705, Note_on_c, 3, 53, 0
5, 3720, Note_on_c, 3, 55, 100
5, 3825, Note_on_c, 3, 55, 0
5, 3840, Note_on_c, 3, 56, 100
5, 4065, Note_on_c, 3, 56, 0
5, 4080, Note_on_c, 3, 53, 100
5, 4185, Note_on_c, 3, 53, 0
5, 4200, Note_on_c, 3, 55, 100
5, 4425, Note_on_c, 3, 55, 0
5, 4440, Note_on_c, 3, 50, 100
5, 4545, Note_on_c, 3, 50, 0
5, 4560, Note_on_c, 3, 51, 100
5, 4785, Note_on_c, 3, 51, 0
5, 4800, Note_on_c, 3, 47, 100
5, 4905, Note_on_c, 3, 47, 0
5, 4920, Note_on_c, 3, 48, 100
5, 5145, Note_on_c, 3, 48, 0
5, 5160, Note_on_c, 3, 41, 100
5, 5265, Note_on_c, 3, 41, 0
5, 5280, Note_on_c, 3, 43, 100
5, 5625, Note_on_c, 3, 43, 0
5, 5640, Note_on_c, 3, 36, 100
5, 5865, Note_on_c, 3, 36, 0
5, 5880, Note_on_c, 3, 48, 100
5, 5985, Note_on_c, 3, 48, 0
5, 6000, Note_on_c, 3, 55, 100
5, 6225, Note_on_c, 3, 55, 0
5, 6240, Note_on_c, 3, 51, 100
5, 6345, Note_on_c, 3, 51, 0
5, 6360, Note_on_c, 3, 53, 100
5, 6585, Note_on_c, 3, 53, 0
5, 6600, Note_on_c, 3, 55, 100
5, 6705, Note_on_c, 3, 55, 0
5, 6720, Note_on_c, 3, 56, 100
5, 6945, Note_on_c, 3, 56, 0
5, 6960, Note_on_c, 3, 53, 100
5, 7065, Note_on_c, 3, 53, 0
5, 7080, Note_on_c, 3, 55, 100
5, 7305, Note_on_c, 3, 55, 0
5, 7320, Note_on_c, 3, 50, 100
5, 7425, Note_on_c, 3, 50, 0
5, 7440, Note_on_c, 3, 51, 100
5, 7665, Note_on_c, 3, 51, 0
5, 7680, Note_on_c, 3, 47, 100
5, 7785, Note_on_c, 3, 47, 0
5, 7800, Note_on_c, 3, 48, 100
5, 8025, Note_on_c, 3, 48, 0
5, 8040, Note_on_c, 3, 41, 100
5, 8145, Note_on_c, 3, 41, 0
5, 8160, Note_on_c, 3, 43, 100
5, 8505, Note_on_c, 3, 43, 0
5, 8520, Note_on_c, 3, 36, 100
5, 8745, Note_on_c, 3, 36, 0
5, 8760, Note_on_c, 3, 48, 100
5, 8865, Note_on_c, 3, 48, 0
5, 8880, Note_on_c, 3, 55, 100
5, 9105, Note_on_c, 3, 55, 0
5, 9120, Note_on_c, 3, 51, 100
5, 9225, Note_on_c, 3, 51, 0
5, 9240, Note_on_c, 3, 53, 100
5, 9465, Note_on_c, 3, 53, 0
5, 9480, Note_on_c, 3, 55, 100
5, 9585, Note_on_c, 3, 55, 0
5, 9600, Note_on_c, 3, 56, 100
5, 9825, Note_on_c, 3, 56, 0
5, 9840, Note_on_c, 3, 53, 100
5, 9945, Note_on_c, 3, 53, 0
5, 9960, Note_on_c, 3, 55, 100
5, 10185, Note_on_c, 3, 55, 0
5, 10200, Note_on_c, 3, 50, 100
5, 10305, Note_on_c, 3, 50, 0
5, 10320, Note_on_c, 3, 51, 100
5, 10545, Note_on_c, 3, 51, 0
5, 10560, Note_on_c, 3, 47, 100
5, 10665, Note_on_c, 3, 47, 0
5, 10680, Note_on_c, 3, 48, 100
5, 10905, Note_on_c, 3, 48, 0
5, 10920, Note_on_c, 3, 41, 100
5, 11025, Note_on_c, 3, 41, 0
5, 11040, Note_on_c, 3, 43, 100
5, 11385, Note_on_c, 3, 43, 0
5, 11400, Note_on_c, 3, 36, 100
5, 11625, Note_on_c, 3, 36, 0
5, 11640, Note_on_c, 3, 48, 100
5, 11745, Note_on_c, 3, 48, 0
5, 11760, Note_on_c, 3, 55, 100
5, 11985, Note_on_c, 3, 55, 0
5, 12000, Note_on_c, 3, 51, 100
5, 12105, Note_on_c, 3, 51, 0
5, 12120, Note_on_c, 3, 53, 100
5, 12345, Note_on_c, 3, 53, 0
5, 12360, Note_on_c, 3, 55, 100
5, 12465, Note_on_c, 3, 55, 0
5, 12480, Note_on_c, 3, 56, 100
5, 12705, Note_on_c, 3, 56, 0
5, 12720, Note_on_c, 3, 53, 100
5, 12825, Note_on_c, 3, 53, 0
5, 12840, Note_on_c, 3, 55, 100
5, 13065, Note_on_c, 3, 55, 0
5, 13080, Note_on_c, 3, 50, 100
5, 13185, Note_on_c, 3, 50, 0
5, 13200, Note_on_c, 3, 51, 100
5, 13425, Note_on_c, 3, 51, 0
5, 13440, Note_on_c, 3, 47, 100
5, 13545, Note_on_c, 3, 47, 0
5, 13560, Note_on_c, 3, 48, 100
5, 13785, Note_on_c, 3, 48, 0
5, 13800, Note_on_c, 3, 41, 100
5, 13905, Note_on_c, 3, 41, 0
5, 13920, Note_on_c, 3, 43, 100
5, 14265, Note_on_c, 3, 43, 0
5, 14280, Note_on_c, 3, 36, 100
5, 14505, Note_on_c, 3, 36, 0
5, 14580, Note_on_c, 3, 60, 113
5, 14606, Note_on_c, 3, 60, 0
5, 14610, Note_on_c, 3, 48, 112
5, 14636, Note_on_c, 3, 48, 0
5, 14640, Note_on_c, 3, 55, 112
5, 14745, Note_on_c, 3, 55, 0
5, 14940, Note_on_c, 3, 51, 114
5, 14966, Note_on_c, 3, 51, 0
5, 14970, Note_on_c, 3, 48, 115
5, 14996, Note_on_c, 3, 48, 0
5, 15000, Note_on_c, 3, 53, 115
5, 15105, Note_on_c, 3, 53, 0
5, 15300, Note_on_c, 3, 55, 115
5, 15326, Note_on_c, 3, 55, 0
5, 15330, Note_on_c, 3, 51, 114
5, 15356, Note_on_c, 3, 51, 0
5, 15360, Note_on_c, 3, 56, 114
5, 15465, Note_on_c, 3, 56, 0
5, 15660, Note_on_c, 3, 53, 115
5, 15686, Note_on_c, 3, 53, 0
5, 15690, Note_on_c, 3, 50, 113
5, 15716, Note_on_c, 3, 50, 0
5, 15720, Note_on_c, 3, 55, 114
5, 15825, Note_on_c, 3, 55, 0
5, 16020, Note_on_c, 3, 55, 113
5, 16046, Note_on_c, 3, 55, 0
5, 16050, Note_on_c, 3, 50, 112
5, 16076, Note_on_c, 3, 50, 0
5, 16080, Note_on_c, 3, 51, 110
5, 16185, Note_on_c, 3, 51, 0
5, 16380, Note_on_c, 3, 55, 114
5, 16406, Note_on_c, 3, 55, 0
5, 16410, Note_on_c, 3, 47, 114
5, 16436, Note_on_c, 3, 47, 0
5, 16440, Note_on_c, 3, 48, 113
5, 16545, Note_on_c, 3, 48, 0
5, 16740, Note_on_c, 3, 53, 116
5, 16766, Note_on_c, 3, 53, 0
5, 16770, Note_on_c, 3, 41, 115
5, 16796, Note_on_c, 3, 41, 0
5, 16800, Note_on_c, 3, 43, 114
5, 17145, Note_on_c, 3, 43, 0
5, 17160, Note_on_c, 3, 36, 117
5, 17385, Note_on_c, 3, 36, 0
5, 17400, Note_on_c, 3, 48, 118
5, 17505, Note_on_c, 3, 48, 0
5, 17520, Note_on_c, 3, 55, 118
5, 17745, Note_on_c, 3, 55, 0
5, 17760, Note_on_c, 3, 51, 117
5, 17865, Note_on_c, 3, 51, 0
5, 17880, Note_on_c, 3, 53, 117
5, 18105, Note_on_c, 3, 53, 0
5, 18120, Note_on_c, 3, 55, 116
5, 18225, Note_on_c, 3, 55, 0
5, 18240, Note_on_c, 3, 56, 113
5, 18465, Note_on_c, 3, 56, 0
5, 18480, Note_on_c, 3, 53, 117
5, 18585, Note_on_c, 3, 53, 0
5, 18600, Note_on_c, 3, 55, 115
5, 18825, Note_on_c, 3, 55, 0
5, 18840, Note_on_c, 3, 50, 117
5, 18945, Note_on_c, 3, 50, 0
5, 18960, Note_on_c, 3, 51, 115
5, 19185, Note_on_c, 3, 51, 0
5, 19200, Note_on_c, 3, 47, 116
5, 19305, Note_on_c, 3, 47, 0
5, 19320, Note_on_c, 3, 48, 116
5, 19545, Note_on_c, 3, 48, 0
5, 19560, Note_on_c, 3, 41, 116
5, 19665, Note_on_c, 3, 41, 0
5, 19680, Note_on_c, 3, 43, 117
5, 20025, Note_on_c, 3, 43, 0
5, 20040, Note_on_c, 3, 36, 117
5, 20265, Note_on_c, 3, 36, 0
5, 20280, Note_on_c, 3, 48, 121
5, 20385, Note_on_c, 3, 48, 0
5, 20400, Note_on_c, 3, 55, 121
5, 20625, Note_on_c, 3, 55, 0
5, 20640, Note_on_c, 3, 51, 123
5, 20745, Note_on_c, 3, 51, 0
5, 20760, Note_on_c, 3, 53, 119
5, 20985, Note_on_c, 3, 53, 0
5, 21000, Note_on_c, 3, 55, 118
5, 21105, Note_on_c, 3, 55, 0
5, 21120, Note_on_c, 3, 56, 121
5, 21345, Note_on_c, 3, 56, 0
5, 21360, Note_on_c, 3, 53, 117
5, 21465, Note_on_c, 3, 53, 0
5, 21480, Note_on_c, 3, 55, 119
5, 21705, Note_on_c, 3, 55, 0
5, 21720, Note_on_c, 3, 50, 118
5, 21825, Note_on_c, 3, 50, 0
5, 21840, Note_on_c, 3, 51, 121
5, 22065, Note_on_c, 3, 51, 0
5, 22080, Note_on_c, 3, 47, 119
5, 22185, Note_on_c, 3, 47, 0
5, 22200, Note_on_c, 3, 48, 118
5, 22425, Note_on_c, 3, 48, 0
5, 22440, Note_on_c, 3, 41, 117
5, 22545, Note_on_c, 3, 41, 0
5, 22560, Note_on_c, 3, 43, 121
5, 22905, Note_on_c, 3, 43, 0
5, 22920, Note_on_c, 3, 36, 119
5, 23145, Note_on_c, 3, 36, 0
5, 23160, Note_on_c, 3, 48, 118
5, 23265, Note_on_c, 3, 48, 0
5, 23280, Note_on_c, 3, 55, 119
5, 23505, Note_on_c, 3, 55, 0
5, 23520, Note_on_c, 3, 51, 121
5, 23625, Note_on_c, 3, 51, 0
5, 23640, Note_on_c, 3, 53, 120
5, 23865, Note_on_c, 3, 53, 0
5, 23880, Note_on_c, 3, 55, 117
5, 23985, Note_on_c, 3, 55, 0
5, 24000, Note_on_c, 3, 56, 118
5, 24225, Note_on_c, 3, 56, 0
5, 24240, Note_on_c, 3, 53, 121
5, 24345, Note_on_c, 3, 53, 0
5, 24360, Note_on_c, 3, 55, 120
5, 24585, Note_on_c, 3, 55, 0
5, 24600, Note_on_c, 3, 50, 118
5, 24705, Note_on_c, 3, 50, 0
5, 24720, Note_on_c, 3, 51, 122
5, 24945, Note_on_c, 3, 51, 0
5, 24960, Note_on_c, 3, 47, 120
5, 25065, Note_on_c, 3, 47, 0
5, 25080, Note_on_c, 3, 48, 119
5, 25305, Note_on_c, 3, 48, 0
5, 25320, Note_on_c, 3, 41, 120
5, 25425, Note_on_c, 3, 41, 0
5, 25440, Note_on_c, 3, 43, 120
5, 25785, Note_on_c, 3, 43, 0
5, 25800, Note_on_c, 3, 36, 119
5, 25905, Note_on_c, 3, 36, 0
5, 26070, Note_on_c, 3, 48, 122
5, 26096, Note_on_c, 3, 48, 0
5, 26100, Note_on_c, 3, 51, 121
5, 26126, Note_on_c, 3, 51, 0
5, 26130, Note_on_c, 3, 48, 122
5, 26156, Note_on_c, 3, 48, 0
5, 26160, Note_on_c, 3, 55, 122
5, 26265, Note_on_c, 3, 55, 0
5, 26430, Note_on_c, 3, 51, 122
5, 26456, Note_on_c, 3, 51, 0
5, 26460, Note_on_c, 3, 55, 122
5, 26486, Note_on_c, 3, 55, 0
5, 26490, Note_on_c, 3, 51, 122
5, 26516, Note_on_c, 3, 51, 0
5, 26520, Note_on_c, 3, 53, 120
5, 26625, Note_on_c, 3, 53, 0
5, 26790, Note_on_c, 3, 55, 119
5, 26816, Note_on_c, 3, 55, 0
5, 26820, Note_on_c, 3, 58, 121
5, 26846, Note_on_c, 3, 58, 0
5, 26850, Note_on_c, 3, 55, 119
5, 26876, Note_on_c, 3, 55, 0
5, 26880, Note_on_c, 3, 56, 119
5, 26985, Note_on_c, 3, 56, 0
5, 27150, Note_on_c, 3, 53, 121
5, 27176, Note_on_c, 3, 53, 0
5, 27180, Note_on_c, 3, 56, 119
5, 27206, Note_on_c, 3, 56, 0
5, 27210, Note_on_c, 3, 53, 120
5, 27236, Note_on_c, 3, 53, 0
5, 27240, Note_on_c, 3, 55, 122
5, 27345, Note_on_c, 3, 55, 0
5, 27510, Note_on_c, 3, 50, 121
5, 27536, Note_on_c, 3, 50, 0
5, 27540, Note_on_c, 3, 53, 119
5, 27566, Note_on_c, 3, 53, 0
5, 27570, Note_on_c, 3, 50, 122
5, 27596, Note_on_c, 3, 50, 0
5, 27600, Note_on_c, 3, 51, 123
5, 27705, Note_on_c, 3, 51, 0
5, 27870, Note_on_c, 3, 47, 120
5, 27896, Note_on_c, 3, 47, 0
5, 27900, Note_on_c, 3, 50, 120
5, 27926, Note_on_c, 3, 50, 0
5, 27930, Note_on_c, 3, 47, 119
5, 27956, Note_on_c, 3, 47, 0
5, 27960, Note_on_c, 3, 48, 119
5, 28065, Note_on_c, 3, 48, 0
5, 28230, Note_on_c, 3, 41, 118
5, 28256, Note_on_c, 3, 41, 0
5, 28260, Note_on_c, 3, 44, 124
5, 28286, Note_on_c, 3, 44, 0
5, 28290, Note_on_c, 3, 41, 121
5, 28316, Note_on_c, 3, 41, 0
5, 28320, Note_on_c, 3, 43, 120
5, 28425, Note_on_c, 3, 43, 0
5, 28590, Note_on_c, 3, 43, 119
5, 28616, Note_on_c, 3, 43, 0
5, 28620, Note_on_c, 3, 41, 119
5, 28646, Note_on_c, 3, 41, 0
5, 28650, Note_on_c, 3, 43, 119
5, 28676, Note_on_c, 3, 43, 0
5, 28680, Note_on_c, 3, 36, 119
5, 28785, Note_on_c, 3, 36, 0
5, 28920, Note_on_c, 3, 48, 122
5, 29025, Note_on_c, 3, 48, 0
5, 29040, Note_on_c, 3, 55, 120
5, 29145, Note_on_c, 3, 55, 0
5, 29280, Note_on_c, 3, 51, 119
5, 29385, Note_on_c, 3, 51, 0
5, 29400, Note_on_c, 3, 53, 123
5, 29505, Note_on_c, 3, 53, 0
5, 29640, Note_on_c, 3, 55, 123
5, 29745, Note_on_c, 3, 55, 0
5, 29760, Note_on_c, 3, 56, 119
5, 29865, Note_on_c, 3, 56, 0
5, 30000, Note_on_c, 3, 53, 119
5, 30105, Note_on_c, 3, 53, 0
5, 30120, Note_on_c, 3, 55, 123
5, 30225, Note_on_c, 3, 55, 0
5, 30360, Note_on_c, 3, 50, 120
5, 30465, Note_on_c, 3, 50, 0
5, 30480, Note_on_c, 3, 51, 119
5, 30585, Note_on_c, 3, 51, 0
5, 30720, Note_on_c, 3, 47, 119
5, 30825, Note_on_c, 3, 47, 0
5, 30840, Note_on_c, 3, 48, 120
5, 30945, Note_on_c, 3, 48, 0
5, 31080, Note_on_c, 3, 41, 120
5, 31185, Note_on_c, 3, 41, 0
5, 31200, Note_on_c, 3, 43, 120
5, 31305, Note_on_c, 3, 43, 0
5, 31440, Note_on_c, 3, 43, 119
5, 31545, Note_on_c, 3, 43, 0
5, 31560, Note_on_c, 3, 36, 121
5, 31665, Note_on_c, 3, 36, 0
5, 34680, Program_c, 3, 81
5, 34740, Note_on_c, 3, 56, 110
5, 34792, Note_on_c, 3, 56, 0
5, 34800, Note_on_c, 3, 55, 110
5, 34826, Note_on_c, 3, 55, 0
5, 34830, Note_on_c, 3, 56, 110
5, 34856, Note_on_c, 3, 56, 0
5, 34860, Note_on_c, 3, 53, 110
5, 34886, Note_on_c, 3, 53, 0
5, 34890, Note_on_c, 3, 55, 109
5, 34916, Note_on_c, 3, 55, 0
5, 34920, Note_on_c, 3, 51, 110
5, 34946, Note_on_c, 3, 51, 0
5, 34950, Note_on_c, 3, 53, 110
5, 34976, Note_on_c, 3, 53, 0
5, 34980, Note_on_c, 3, 50, 110
5, 35006, Note_on_c, 3, 50, 0
5, 35010, Note_on_c, 3, 51, 110
5, 35036, Note_on_c, 3, 51, 0
5, 35040, Note_on_c, 3, 48, 110
5, 35066, Note_on_c, 3, 48, 0
5, 35070, Note_on_c, 3, 50, 112
5, 35096, Note_on_c, 3, 50, 0
5, 35100, Note_on_c, 3, 46, 112
5, 35126, Note_on_c, 3, 46, 0
5, 35130, Note_on_c, 3, 48, 114
5, 35156, Note_on_c, 3, 48, 0
5, 35160, Note_on_c, 3, 44, 112
5, 35325, Note_on_c, 3, 44, 0
5, 35340, Note_on_c, 3, 44, 109
5, 35392, Note_on_c, 3, 44, 0
5, 35400, Note_on_c, 3, 46, 112
5, 35452, Note_on_c, 3, 46, 0
5, 35460, Note_on_c, 3, 48, 112
5, 35512, Note_on_c, 3, 48, 0
5, 35520, Note_on_c, 3, 41, 113
5, 35572, Note_on_c, 3, 41, 0
5, 35580, Note_on_c, 3, 48, 113
5, 35632, Note_on_c, 3, 48, 0
5, 35640, Note_on_c, 3, 53, 112
5, 35666, Note_on_c, 3, 53, 0
5, 35670, Note_on_c, 3, 55, 111
5, 35696, Note_on_c, 3, 55, 0
5, 35700, Note_on_c, 3, 51, 111
5, 35726, Note_on_c, 3, 51, 0
5, 35730, Note_on_c, 3, 53, 111
5, 35756, Note_on_c, 3, 53, 0
5, 35760, Note_on_c, 3, 50, 113
5, 35786, Note_on_c, 3, 50, 0
5, 35790, Note_on_c, 3, 51, 113
5, 35816, Note_on_c, 3, 51, 0
5, 35820, Note_on_c, 3, 48, 112
5, 35846, Note_on_c, 3, 48, 0
5, 35850, Note_on_c, 3, 50, 112
5, 35876, Note_on_c, 3, 50, 0
5, 35880, Note_on_c, 3, 47, 112
5, 35906, Note_on_c, 3, 47, 0
5, 35910, Note_on_c, 3, 48, 113
5, 35936, Note_on_c, 3, 48, 0
5, 35940, Note_on_c, 3, 45, 111
5, 35966, Note_on_c, 3, 45, 0
5, 35970, Note_on_c, 3, 47, 110
5, 35996, Note_on_c, 3, 47, 0
5, 36000, Note_on_c, 3, 43, 110
5, 36225, Note_on_c, 3, 43, 0
5, 36240, Note_on_c, 3, 48, 111
5, 36405, Note_on_c, 3, 48, 0
5, 36420, Note_on_c, 3, 36, 114
5, 36472, Note_on_c, 3, 36, 0
5, 36480, Note_on_c, 3, 38, 113
5, 36585, Note_on_c, 3, 38, 0
5, 36600, Note_on_c, 3, 39, 113
5, 36652, Note_on_c, 3, 39, 0
5, 36660, Note_on_c, 3, 43, 112
5, 36712, Note_on_c, 3, 43, 0
5, 36720, Note_on_c, 3, 48, 113
5, 36746, Note_on_c, 3, 48, 0
5, 36750, Note_on_c, 3, 50, 113
5, 36776, Note_on_c, 3, 50, 0
5, 36780, Note_on_c, 3, 46, 113
5, 36806, Note_on_c, 3, 46, 0
5, 36810, Note_on_c, 3, 48, 113
5, 36836, Note_on_c, 3, 48, 0
5, 36840, Note_on_c, 3, 45, 113
5, 36945, Note_on_c, 3, 45, 0
5, 36960, Note_on_c, 3, 47, 113
5, 37012, Note_on_c, 3, 47, 0
5, 37020, Note_on_c, 3, 48, 113
5, 37072, Note_on_c, 3, 48, 0
5, 37080, Note_on_c, 3, 43, 109
5, 37106, Note_on_c, 3, 43, 0
5, 37110, Note_on_c, 3, 44, 111
5, 37136, Note_on_c, 3, 44, 0
5, 37140, Note_on_c, 3, 41, 112
5, 37166, Note_on_c, 3, 41, 0
5, 37170, Note_on_c, 3, 43, 112
5, 37196, Note_on_c, 3, 43, 0
5, 37200, Note_on_c, 3, 39, 112
5, 37226, Note_on_c, 3, 39, 0
5, 37230, Note_on_c, 3, 41, 112
5, 37256, Note_on_c, 3, 41, 0
5, 37260, Note_on_c, 3, 38, 112
5, 37286, Note_on_c, 3, 38, 0
5, 37290, Note_on_c, 3, 41, 112
5, 37316, Note_on_c, 3, 41, 0
5, 37320, Note_on_c, 3, 39, 112
5, 37346, Note_on_c, 3, 39, 0
5, 37350, Note_on_c, 3, 41, 113
5, 37376, Note_on_c, 3, 41, 0
5, 37380, Note_on_c, 3, 38, 112
5, 37406, Note_on_c, 3, 38, 0
5, 37410, Note_on_c, 3, 39, 113
5, 37436, Note_on_c, 3, 39, 0
5, 37440, Note_on_c, 3, 36, 113
5, 37545, Note_on_c, 3, 36, 0
5, 46200, Note_on_c, 3, 48, 100
5, 46305, Note_on_c, 3, 48, 0
5, 46320, Note_on_c, 3, 55, 100
5, 46545, Note_on_c, 3, 55, 0
5, 46560, Note_on_c, 3, 51, 100
5, 46665, Note_on_c, 3, 51, 0
5, 46680, Note_on_c, 3, 53, 100
5, 46905, Note_on_c, 3, 53, 0
5, 46920, Note_on_c, 3, 55, 100
5, 47025, Note_on_c, 3, 55, 0
5, 47040, Note_on_c, 3, 56, 100
5, 47265, Note_on_c, 3, 56, 0
5, 47280, Note_on_c, 3, 53, 100
5, 47385, Note_on_c, 3, 53, 0
5, 47400, Note_on_c, 3, 55, 100
5, 47625, Note_on_c, 3, 55, 0
5, 47640, Note_on_c, 3, 50, 100
5, 47745, Note_on_c, 3, 50, 0
5, 47760, Note_on_c, 3, 51, 100
5, 47985, Note_on_c, 3, 51, 0
5, 48000, Note_on_c, 3, 47, 100
5, 48105, Note_on_c, 3, 47, 0
5, 48120, Note_on_c, 3, 48, 100
5, 48345, Note_on_c, 3, 48, 0
5, 48360, Note_on_c, 3, 41, 100
5, 48465, Note_on_c, 3, 41, 0
5, 48480, Note_on_c, 3, 43, 100
5, 48825, Note_on_c, 3, 43, 0
5, 48840, Note_on_c, 3, 36, 100
5, 49065, Note_on_c, 3, 36, 0
5, 49080, Note_on_c, 3, 48, 100
5, 49185, Note_on_c, 3, 48, 0
5, 49200, Note_on_c, 3, 55, 100
5, 49425, Note_on_c, 3, 55, 0
5, 49440, Note_on_c, 3, 51, 100
5, 49545, Note_on_c, 3, 51, 0
5, 49560, Note_on_c, 3, 53, 100
5, 49785, Note_on_c, 3, 53, 0
5, 49800, Note_on_c, 3, 55, 100
5, 49905, Note_on_c, 3, 55, 0
5, 49920, Note_on_c, 3, 56, 100
5, 50145, Note_on_c, 3, 56, 0
5, 50160, Note_on_c, 3, 53, 100
5, 50265, Note_on_c, 3, 53, 0
5, 50280, Note_on_c, 3, 55, 100
5, 50505, Note_on_c, 3, 55, 0
5, 50520, Note_on_c, 3, 50, 100
5, 50625, Note_on_c, 3, 50, 0
5, 50640, Note_on_c, 3, 51, 100
5, 50865, Note_on_c, 3, 51, 0
5, 50880, Note_on_c, 3, 47, 100
5, 50985, Note_on_c, 3, 47, 0
5, 51000, Note_on_c, 3, 48, 100
5, 51225, Note_on_c, 3, 48, 0
5, 51240, Note_on_c, 3, 41, 100
5, 51345, Note_on_c, 3, 41, 0
5, 51360, Note_on_c, 3, 43, 100
5, 51705, Note_on_c, 3, 43, 0
5, 51720, Note_on_c, 3, 36, 100
5, 51945, Note_on_c, 3, 36, 0
5, 52020, Note_on_c, 3, 48, 100
5, 52072, Note_on_c, 3, 48, 0
5, 52080, Note_on_c, 3, 55, 100
5, 52305, Note_on_c, 3, 55, 0
5, 52380, Note_on_c, 3, 51, 100
5, 52432, Note_on_c, 3, 51, 0
5, 52440, Note_on_c, 3, 53, 100
5, 52665, Note_on_c, 3, 53, 0
5, 52740, Note_on_c, 3, 55, 100
5, 52792, Note_on_c, 3, 55, 0
5, 52800, Note_on_c, 3, 56, 100
5, 53025, Note_on_c, 3, 56, 0
5, 53100, Note_on_c, 3, 53, 100
5, 53152, Note_on_c, 3, 53, 0
5, 53160, Note_on_c, 3, 55, 100
5, 53385, Note_on_c, 3, 55, 0
5, 53460, Note_on_c, 3, 50, 100
5, 53512, Note_on_c, 3, 50, 0
5, 53520, Note_on_c, 3, 51, 100
5, 53745, Note_on_c, 3, 51, 0
5, 53820, Note_on_c, 3, 47, 100
5, 53872, Note_on_c, 3, 47, 0
5, 53880, Note_on_c, 3, 48, 100
5, 54105, Note_on_c, 3, 48, 0
5, 54180, Note_on_c, 3, 41, 100
5, 54232, Note_on_c, 3, 41, 0
5, 54240, Note_on_c, 3, 43, 100
5, 54465, Note_on_c, 3, 43, 0
5, 54540, Note_on_c, 3, 43, 100
5, 54592, Note_on_c, 3, 43, 0
5, 54600, Note_on_c, 3, 36, 100
5, 54825, Note_on_c, 3, 36, 0
5, 54840, Note_on_c, 3, 48, 100
5, 54945, Note_on_c, 3, 48, 0
5, 54960, Note_on_c, 3, 55, 100
5, 55185, Note_on_c, 3, 55, 0
5, 55200, Note_on_c, 3, 51, 100
5, 55305, Note_on_c, 3, 51, 0
5, 55320, Note_on_c, 3, 53, 100
5, 55545, Note_on_c, 3, 53, 0
5, 55560, Note_on_c, 3, 55, 100
5, 55665, Note_on_c, 3, 55, 0
5, 55680, Note_on_c, 3, 56, 100
5, 55905, Note_on_c, 3, 56, 0
5, 55920, Note_on_c, 3, 53, 100
5, 56025, Note_on_c, 3, 53, 0
5, 56040, Note_on_c, 3, 55, 100
5, 56265, Note_on_c, 3, 55, 0
5, 56280, Note_on_c, 3, 50, 100
5, 56385, Note_on_c, 3, 50, 0
5, 56400, Note_on_c, 3, 51, 100
5, 56625, Note_on_c, 3, 51, 0
5, 56640, Note_on_c, 3, 47, 100
5, 56745, Note_on_c, 3, 47, 0
5, 56760, Note_on_c, 3, 48, 100
5, 56985, Note_on_c, 3, 48, 0
5, 57000, Note_on_c, 3, 41, 100
5, 57105, Note_on_c, 3, 41, 0
5, 57120, Note_on_c, 3, 43, 100
5, 57465, Note_on_c, 3, 43, 0
5, 57480, Note_on_c, 3, 36, 100
5, 57705, Note_on_c, 3, 36, 0
5, 57720, Note_on_c, 3, 48, 111
5, 57825, Note_on_c, 3, 48, 0
5, 57840, Note_on_c, 3, 55, 113
5, 58065, Note_on_c, 3, 55, 0
5, 58080, Note_on_c, 3, 51, 111
5, 58185, Note_on_c, 3, 51, 0
5, 58200, Note_on_c, 3, 53, 114
5, 58425, Note_on_c, 3, 53, 0
5, 58440, Note_on_c, 3, 55, 116
5, 58545, Note_on_c, 3, 55, 0
5, 58560, Note_on_c, 3, 56, 112
5, 58785, Note_on_c, 3, 56, 0
5, 58800, Note_on_c, 3, 53, 113
5, 58905, Note_on_c, 3, 53, 0
5, 58920, Note_on_c, 3, 55, 116
5, 59145, Note_on_c, 3, 55, 0
5, 59160, Note_on_c, 3, 50, 113
5, 59265, Note_on_c, 3, 50, 0
5, 59280, Note_on_c, 3, 51, 114
5, 59505, Note_on_c, 3, 51, 0
5, 59520, Note_on_c, 3, 47, 115
5, 59625, Note_on_c, 3, 47, 0
5, 59640, Note_on_c, 3, 48, 116
5, 59865, Note_on_c, 3, 48, 0
5, 59880, Note_on_c, 3, 41, 113
5, 59985, Note_on_c, 3, 41, 0
5, 60000, Note_on_c, 3, 43, 116
5, 60345, Note_on_c, 3, 43, 0
5, 60360, Note_on_c, 3, 36, 115
5, 60705, Note_on_c, 3, 36, 0
5, 64846, Control_c, 3, 7, 126
5, 64920, Note_on_c, 3, 48, 100
5, 65025, Note_on_c, 3, 48, 0
5, 65040, Note_on_c, 3, 55, 100
5, 65265, Note_on_c, 3, 55, 0
5, 65280, Note_on_c, 3, 51, 100
5, 65385, Note_on_c, 3, 51, 0
5, 65400, Note_on_c, 3, 53, 100
5, 65625, Note_on_c, 3, 53, 0
5, 65640, Note_on_c, 3, 55, 100
5, 65745, Note_on_c, 3, 55, 0
5, 65760, Note_on_c, 3, 56, 100
5, 65985, Note_on_c, 3, 56, 0
5, 66000, Note_on_c, 3, 53, 100
5, 66105, Note_on_c, 3, 53, 0
5, 66120, Note_on_c, 3, 55, 100
5, 66242, Control_c, 3, 7, 121
5, 66285, Note_on_c, 3, 55, 0
5, 66300, Note_on_c, 3, 50, 100
5, 66352, Note_on_c, 3, 50, 0
5, 66360, Note_on_c, 3, 51, 100
5, 66412, Note_on_c, 3, 51, 0
5, 66420, Note_on_c, 3, 47, 100
5, 66472, Note_on_c, 3, 47, 0
5, 66480, Note_on_c, 3, 48, 100
5, 66645, Note_on_c, 3, 48, 0
5, 66660, Note_on_c, 3, 50, 100
5, 66712, Note_on_c, 3, 50, 0
5, 66720, Note_on_c, 3, 51, 100
5, 66772, Note_on_c, 3, 51, 0
5, 66780, Note_on_c, 3, 48, 100
5, 66832, Note_on_c, 3, 48, 0
5, 66840, Note_on_c, 3, 50, 100
5, 66892, Note_on_c, 3, 50, 0
5, 66900, Note_on_c, 3, 46, 100
5, 66952, Note_on_c, 3, 46, 0
5, 66960, Note_on_c, 3, 42, 100
5, 67012, Note_on_c, 3, 42, 0
5, 67020, Note_on_c, 3, 42, 100
5, 67072, Note_on_c, 3, 42, 0
5, 67080, Note_on_c, 3, 43, 100
5, 67132, Note_on_c, 3, 43, 0
5, 67140, Note_on_c, 3, 43, 100
5, 67192, Note_on_c, 3, 43, 0
5, 67260, Note_on_c, 3, 51, 100
5, 67312, Note_on_c, 3, 51, 0
5, 67320, Note_on_c, 3, 45, 100
5, 67372, Note_on_c, 3, 45, 0
5, 67380, Note_on_c, 3, 45, 100
5, 67432, Note_on_c, 3, 45, 0
5, 67440, Note_on_c, 3, 47, 100
5, 67492, Note_on_c, 3, 47, 0
5, 67500, Note_on_c, 3, 47, 100
5, 67552, Note_on_c, 3, 47, 0
5, 67620, Note_on_c, 3, 48, 100
5, 67672, Note_on_c, 3, 48, 0
5, 67680, Note_on_c, 3, 43, 100
5, 67732, Note_on_c, 3, 43, 0
5, 67740, Note_on_c, 3, 43, 100
5, 67792, Note_on_c, 3, 43, 0
5, 67800, Note_on_c, 3, 45, 100
5, 67852, Note_on_c, 3, 45, 0
5, 67860, Note_on_c, 3, 45, 100
5, 67912, Note_on_c, 3, 45, 0
5, 67980, Note_on_c, 3, 46, 100
5, 68032, Note_on_c, 3, 46, 0
5, 68040, Note_on_c, 3, 42, 100
5, 68092, Note_on_c, 3, 42, 0
5, 68100, Note_on_c, 3, 42, 100
5, 68152, Note_on_c, 3, 42, 0
5, 68160, Note_on_c, 3, 43, 100
5, 68212, Note_on_c, 3, 43, 0
5, 68220, Note_on_c, 3, 45, 100
5, 68272, Note_on_c, 3, 45, 0
5, 68280, Note_on_c, 3, 46, 100
5, 68332, Note_on_c, 3, 46, 0
5, 68340, Note_on_c, 3, 48, 100
5, 68392, Note_on_c, 3, 48, 0
5, 68400, Note_on_c, 3, 45, 100
5, 68452, Note_on_c, 3, 45, 0
5, 68460, Note_on_c, 3, 43, 100
5, 68512, Note_on_c, 3, 43, 0
5, 68520, Note_on_c, 3, 50, 100
5, 68572, Note_on_c, 3, 50, 0
5, 68580, Note_on_c, 3, 38, 100
5, 68632, Note_on_c, 3, 38, 0
5, 68640, Note_on_c, 3, 43, 100
5, 68865, Note_on_c, 3, 43, 0
5, 69150, Note_on_c, 3, 55, 100
5, 69176, Note_on_c, 3, 55, 0
5, 69180, Note_on_c, 3, 53, 100
5, 69206, Note_on_c, 3, 53, 0
5, 69210, Note_on_c, 3, 55, 100
5, 69236, Note_on_c, 3, 55, 0
5, 69240, Note_on_c, 3, 48, 100
5, 69266, Note_on_c, 3, 48, 0
5, 69270, Note_on_c, 3, 60, 100
5, 69296, Note_on_c, 3, 60, 0
5, 69300, Note_on_c, 3, 58, 100
5, 69326, Note_on_c, 3, 58, 0
5, 69330, Note_on_c, 3, 60, 100
5, 69356, Note_on_c, 3, 60, 0
5, 69360, Note_on_c, 3, 56, 100
5, 69386, Note_on_c, 3, 56, 0
5, 69390, Note_on_c, 3, 60, 100
5, 69416, Note_on_c, 3, 60, 0
5, 69420, Note_on_c, 3, 56, 100
5, 69446, Note_on_c, 3, 56, 0
5, 69450, Note_on_c, 3, 60, 100
5, 69476, Note_on_c, 3, 60, 0
5, 69480, Note_on_c, 3, 56, 100
5, 69506, Note_on_c, 3, 56, 0
5, 69510, Note_on_c, 3, 58, 100
5, 69536, Note_on_c, 3, 58, 0
5, 69540, Note_on_c, 3, 56, 100
5, 69566, Note_on_c, 3, 56, 0
5, 69570, Note_on_c, 3, 58, 100
5, 69596, Note_on_c, 3, 58, 0
5, 69600, Note_on_c, 3, 55, 100
5, 69626, Note_on_c, 3, 55, 0
5, 69630, Note_on_c, 3, 58, 100
5, 69656, Note_on_c, 3, 58, 0
5, 69660, Note_on_c, 3, 55, 100
5, 69686, Note_on_c, 3, 55, 0
5, 69690, Note_on_c, 3, 58, 100
5, 69716, Note_on_c, 3, 58, 0
5, 69720, Note_on_c, 3, 53, 100
5, 69746, Note_on_c, 3, 53, 0
5, 69750, Note_on_c, 3, 56, 100
5, 69776, Note_on_c, 3, 56, 0
5, 69780, Note_on_c, 3, 55, 100
5, 69806, Note_on_c, 3, 55, 0
5, 69810, Note_on_c, 3, 58, 100
5, 69836, Note_on_c, 3, 58, 0
5, 69840, Note_on_c, 3, 56, 100
5, 69866, Note_on_c, 3, 56, 0
5, 69870, Note_on_c, 3, 58, 100
5, 69896, Note_on_c, 3, 58, 0
5, 69900, Note_on_c, 3, 56, 100
5, 69926, Note_on_c, 3, 56, 0
5, 69930, Note_on_c, 3, 58, 100
5, 69956, Note_on_c, 3, 58, 0
5, 69960, Note_on_c, 3, 56, 100
5, 69986, Note_on_c, 3, 56, 0
5, 69990, Note_on_c, 3, 58, 100
5, 70016, Note_on_c, 3, 58, 0
5, 70020, Note_on_c, 3, 56, 100
5, 70046, Note_on_c, 3, 56, 0
5, 70050, Note_on_c, 3, 58, 100
5, 70076, Note_on_c, 3, 58, 0
5, 70080, Note_on_c, 3, 55, 100
5, 70106, Note_on_c, 3, 55, 0
5, 70110, Note_on_c, 3, 56, 100
5, 70136, Note_on_c, 3, 56, 0
5, 70140, Note_on_c, 3, 55, 100
5, 70166, Note_on_c, 3, 55, 0
5, 70170, Note_on_c, 3, 56, 100
5, 70196, Note_on_c, 3, 56, 0
5, 70200, Note_on_c, 3, 55, 100
5, 70226, Note_on_c, 3, 55, 0
5, 70230, Note_on_c, 3, 56, 100
5, 70256, Note_on_c, 3, 56, 0
5, 70260, Note_on_c, 3, 55, 100
5, 70286, Note_on_c, 3, 55, 0
5, 70290, Note_on_c, 3, 58, 100
5, 70316, Note_on_c, 3, 58, 0
5, 70320, Note_on_c, 3, 56, 100
5, 70346, Note_on_c, 3, 56, 0
5, 70350, Note_on_c, 3, 58, 100
5, 70376, Note_on_c, 3, 58, 0
5, 70380, Note_on_c, 3, 56, 100
5, 70406, Note_on_c, 3, 56, 0
5, 70410, Note_on_c, 3, 60, 100
5, 70436, Note_on_c, 3, 60, 0
5, 70440, Note_on_c, 3, 58, 100
5, 70545, Note_on_c, 3, 58, 0
5, 70560, Note_on_c, 3, 46, 100
5, 70785, Note_on_c, 3, 46, 0
5, 70800, Note_on_c, 3, 39, 100
5, 70905, Note_on_c, 3, 39, 0
5, 79320, Note_on_c, 3, 43, 100
5, 79425, Note_on_c, 3, 43, 0
5, 79440, Note_on_c, 3, 50, 100
5, 79665, Note_on_c, 3, 50, 0
5, 79680, Note_on_c, 3, 46, 100
5, 79785, Note_on_c, 3, 46, 0
5, 79800, Note_on_c, 3, 48, 100
5, 80025, Note_on_c, 3, 48, 0
5, 80040, Note_on_c, 3, 50, 100
5, 80145, Note_on_c, 3, 50, 0
5, 80160, Note_on_c, 3, 51, 100
5, 80385, Note_on_c, 3, 51, 0
5, 80400, Note_on_c, 3, 48, 100
5, 80505, Note_on_c, 3, 48, 0
5, 80520, Note_on_c, 3, 50, 100
5, 80685, Note_on_c, 3, 50, 0
5, 80700, Note_on_c, 3, 52, 100
5, 80752, Note_on_c, 3, 52, 0
5, 80760, Note_on_c, 3, 54, 100
5, 80812, Note_on_c, 3, 54, 0
5, 80820, Note_on_c, 3, 50, 100
5, 80872, Note_on_c, 3, 50, 0
5, 80880, Note_on_c, 3, 55, 100
5, 80932, Note_on_c, 3, 55, 0
5, 80940, Note_on_c, 3, 55, 100
5, 80992, Note_on_c, 3, 55, 0
5, 81000, Note_on_c, 3, 50, 100
5, 81052, Note_on_c, 3, 50, 0
5, 81060, Note_on_c, 3, 50, 100
5, 81112, Note_on_c, 3, 50, 0
5, 81120, Note_on_c, 3, 51, 100
5, 81172, Note_on_c, 3, 51, 0
5, 81180, Note_on_c, 3, 51, 100
5, 81232, Note_on_c, 3, 51, 0
5, 81240, Note_on_c, 3, 53, 100
5, 81292, Note_on_c, 3, 53, 0
5, 81300, Note_on_c, 3, 53, 100
5, 81352, Note_on_c, 3, 53, 0
5, 81360, Note_on_c, 3, 48, 100
5, 81412, Note_on_c, 3, 48, 0
5, 81420, Note_on_c, 3, 48, 100
5, 81472, Note_on_c, 3, 48, 0
5, 81480, Note_on_c, 3, 50, 100
5, 81532, Note_on_c, 3, 50, 0
5, 81540, Note_on_c, 3, 50, 100
5, 81592, Note_on_c, 3, 50, 0
5, 81600, Note_on_c, 3, 51, 100
5, 81652, Note_on_c, 3, 51, 0
5, 81660, Note_on_c, 3, 51, 100
5, 81712, Note_on_c, 3, 51, 0
5, 81720, Note_on_c, 3, 46, 100
5, 81772, Note_on_c, 3, 46, 0
5, 81780, Note_on_c, 3, 46, 100
5, 81832, Note_on_c, 3, 46, 0
5, 81840, Note_on_c, 3, 48, 100
5, 81892, Note_on_c, 3, 48, 0
5, 81900, Note_on_c, 3, 48, 100
5, 81952, Note_on_c, 3, 48, 0
5, 81960, Note_on_c, 3, 50, 100
5, 82125, Note_on_c, 3, 50, 0
5, 82140, Note_on_c, 3, 50, 100
5, 82192, Note_on_c, 3, 50, 0
5, 82200, Note_on_c, 3, 51, 100
5, 82252, Note_on_c, 3, 51, 0
5, 82260, Note_on_c, 3, 50, 100
5, 82312, Note_on_c, 3, 50, 0
5, 82320, Note_on_c, 3, 48, 100
5, 82425, Note_on_c, 3, 48, 0
5, 82440, Note_on_c, 3, 53, 100
5, 82545, Note_on_c, 3, 53, 0
5, 82560, Note_on_c, 3, 45, 100
5, 82665, Note_on_c, 3, 45, 0
5, 82680, Note_on_c, 3, 46, 100
5, 82905, Note_on_c, 3, 46, 0
5, 82920, Note_on_c, 3, 47, 100
5, 83025, Note_on_c, 3, 47, 0
5, 83040, Note_on_c, 3, 48, 100
5, 83092, Note_on_c, 3, 48, 0
5, 83100, Note_on_c, 3, 44, 100
5, 83152, Note_on_c, 3, 44, 0
5, 83160, Note_on_c, 3, 39, 100
5, 83212, Note_on_c, 3, 39, 0
5, 83220, Note_on_c, 3, 39, 100
5, 83272, Note_on_c, 3, 39, 0
5, 83280, Note_on_c, 3, 41, 100
5, 83332, Note_on_c, 3, 41, 0
5, 83340, Note_on_c, 3, 41, 100
5, 83392, Note_on_c, 3, 41, 0
5, 83400, Note_on_c, 3, 43, 100
5, 83452, Note_on_c, 3, 43, 0
5, 83460, Note_on_c, 3, 45, 100
5, 83512, Note_on_c, 3, 45, 0
5, 83520, Note_on_c, 3, 47, 100
5, 83572, Note_on_c, 3, 47, 0
5, 83580, Note_on_c, 3, 43, 100
5, 83632, Note_on_c, 3, 43, 0
5, 83640, Note_on_c, 3, 48, 100
5, 83692, Note_on_c, 3, 48, 0
5, 83700, Note_on_c, 3, 46, 100
5, 83752, Note_on_c, 3, 46, 0
5, 83760, Note_on_c, 3, 44, 100
5, 83812, Note_on_c, 3, 44, 0
5, 83820, Note_on_c, 3, 48, 100
5, 83872, Note_on_c, 3, 48, 0
5, 83880, Note_on_c, 3, 41, 100
5, 83932, Note_on_c, 3, 41, 0
5, 83940, Note_on_c, 3, 53, 100
5, 83992, Note_on_c, 3, 53, 0
5, 84000, Note_on_c, 3, 44, 100
5, 84052, Note_on_c, 3, 44, 0
5, 84060, Note_on_c, 3, 53, 100
5, 84112, Note_on_c, 3, 53, 0
5, 84120, Note_on_c, 3, 43, 100
5, 84172, Note_on_c, 3, 43, 0
5, 84180, Note_on_c, 3, 51, 100
5, 84232, Note_on_c, 3, 51, 0
5, 84240, Note_on_c, 3, 47, 100
5, 84292, Note_on_c, 3, 47, 0
5, 84300, Note_on_c, 3, 47, 100
5, 84352, Note_on_c, 3, 47, 0
5, 84360, Note_on_c, 3, 48, 100
5, 84412, Note_on_c, 3, 48, 0
5, 84420, Note_on_c, 3, 48, 100
5, 84472, Note_on_c, 3, 48, 0
5, 84540, Note_on_c, 3, 56, 100
5, 84592, Note_on_c, 3, 56, 0
5, 84600, Note_on_c, 3, 50, 100
5, 84652, Note_on_c, 3, 50, 0
5, 84660, Note_on_c, 3, 50, 100
5, 84712, Note_on_c, 3, 50, 0
5, 84720, Note_on_c, 3, 52, 100
5, 84772, Note_on_c, 3, 52, 0
5, 84780, Note_on_c, 3, 52, 100
5, 84832, Note_on_c, 3, 52, 0
5, 84900, Note_on_c, 3, 53, 100
5, 84952, Note_on_c, 3, 53, 0
5, 84960, Note_on_c, 3, 48, 100
5, 85012, Note_on_c, 3, 48, 0
5, 85020, Note_on_c, 3, 48, 100
5, 85072, Note_on_c, 3, 48, 0
5, 85080, Note_on_c, 3, 50, 100
5, 85132, Note_on_c, 3, 50, 0
5, 85140, Note_on_c, 3, 50, 100
5, 85192, Note_on_c, 3, 50, 0
5, 85200, Note_on_c, 3, 51, 100
5, 85305, Note_on_c, 3, 51, 0
5, 85320, Note_on_c, 3, 56, 100
5, 85425, Note_on_c, 3, 56, 0
5, 85440, Note_on_c, 3, 58, 100
5, 85545, Note_on_c, 3, 58, 0
5, 85560, Note_on_c, 3, 51, 100
5, 85665, Note_on_c, 3, 51, 0
5, 85680, Note_on_c, 3, 53, 100
5, 85785, Note_on_c, 3, 53, 0
5, 85800, Note_on_c, 3, 55, 100
5, 85905, Note_on_c, 3, 55, 0
5, 85920, Note_on_c, 3, 48, 100
5, 85946, Note_on_c, 3, 48, 0
5, 85950, Note_on_c, 3, 51, 100
5, 85976, Note_on_c, 3, 51, 0
5, 85980, Note_on_c, 3, 50, 100
5, 86006, Note_on_c, 3, 50, 0
5, 86010, Note_on_c, 3, 53, 100
5, 86036, Note_on_c, 3, 53, 0
5, 86040, Note_on_c, 3, 51, 100
5, 86066, Note_on_c, 3, 51, 0
5, 86070, Note_on_c, 3, 55, 100
5, 86096, Note_on_c, 3, 55, 0
5, 86100, Note_on_c, 3, 53, 100
5, 86126, Note_on_c, 3, 53, 0
5, 86130, Note_on_c, 3, 57, 100
5, 86156, Note_on_c, 3, 57, 0
5, 86160, Note_on_c, 3, 55, 100
5, 86186, Note_on_c, 3, 55, 0
5, 86190, Note_on_c, 3, 58, 100
5, 86216, Note_on_c, 3, 58, 0
5, 86220, Note_on_c, 3, 57, 100
5, 86246, Note_on_c, 3, 57, 0
5, 86250, Note_on_c, 3, 60, 100
5, 86276, Note_on_c, 3, 60, 0
5, 86280, Note_on_c, 3, 58, 100
5, 86332, Note_on_c, 3, 58, 0
5, 86580, Note_on_c, 3, 51, 100
5, 86632, Note_on_c, 3, 51, 0
5, 86640, Note_on_c, 3, 44, 100
5, 86666, Note_on_c, 3, 44, 0
5, 86670, Note_on_c, 3, 48, 100
5, 86696, Note_on_c, 3, 48, 0
5, 86700, Note_on_c, 3, 46, 100
5, 86726, Note_on_c, 3, 46, 0
5, 86730, Note_on_c, 3, 50, 100
5, 86756, Note_on_c, 3, 50, 0
5, 86760, Note_on_c, 3, 48, 100
5, 86786, Note_on_c, 3, 48, 0
5, 86790, Note_on_c, 3, 51, 100
5, 86816, Note_on_c, 3, 51, 0
5, 86820, Note_on_c, 3, 50, 100
5, 86846, Note_on_c, 3, 50, 0
5, 86850, Note_on_c, 3, 53, 100
5, 86876, Note_on_c, 3, 53, 0
5, 86880, Note_on_c, 3, 51, 100
5, 86906, Note_on_c, 3, 51, 0
5, 86910, Note_on_c, 3, 55, 100
5, 86936, Note_on_c, 3, 55, 0
5, 86940, Note_on_c, 3, 53, 100
5, 86966, Note_on_c, 3, 53, 0
5, 86970, Note_on_c, 3, 56, 100
5, 86996, Note_on_c, 3, 56, 0
5, 87000, Note_on_c, 3, 55, 100
5, 87052, Note_on_c, 3, 55, 0
5, 87300, Note_on_c, 3, 48, 100
5, 87352, Note_on_c, 3, 48, 0
5, 87360, Note_on_c, 3, 41, 100
5, 87386, Note_on_c, 3, 41, 0
5, 87390, Note_on_c, 3, 44, 100
5, 87416, Note_on_c, 3, 44, 0
5, 87420, Note_on_c, 3, 43, 100
5, 87446, Note_on_c, 3, 43, 0
5, 87450, Note_on_c, 3, 46, 100
5, 87476, Note_on_c, 3, 46, 0
5, 87480, Note_on_c, 3, 44, 100
5, 87506, Note_on_c, 3, 44, 0
5, 87510, Note_on_c, 3, 48, 100
5, 87536, Note_on_c, 3, 48, 0
5, 87540, Note_on_c, 3, 46, 100
5, 87566, Note_on_c, 3, 46, 0
5, 87570, Note_on_c, 3, 50, 100
5, 87596, Note_on_c, 3, 50, 0
5, 87600, Note_on_c, 3, 48, 100
5, 87626, Note_on_c, 3, 48, 0
5, 87630, Note_on_c, 3, 51, 100
5, 87656, Note_on_c, 3, 51, 0
5, 87660, Note_on_c, 3, 50, 100
5, 87686, Note_on_c, 3, 50, 0
5, 87690, Note_on_c, 3, 53, 100
5, 87716, Note_on_c, 3, 53, 0
5, 87720, Note_on_c, 3, 51, 100
5, 87866, Note_on_c, 3, 51, 0
5, 87870, Note_on_c, 3, 53, 100
5, 87896, Note_on_c, 3, 53, 0
5, 87900, Note_on_c, 3, 50, 100
5, 87926, Note_on_c, 3, 50, 0
5, 87930, Note_on_c, 3, 51, 100
5, 87956, Note_on_c, 3, 51, 0
5, 87960, Note_on_c, 3, 48, 100
5, 88065, Note_on_c, 3, 48, 0
5, 88080, Note_on_c, 3, 50, 100
5, 88226, Note_on_c, 3, 50, 0
5, 88230, Note_on_c, 3, 51, 100
5, 88256, Note_on_c, 3, 51, 0
5, 88260, Note_on_c, 3, 48, 100
5, 88286, Note_on_c, 3, 48, 0
5, 88290, Note_on_c, 3, 50, 100
5, 88316, Note_on_c, 3, 50, 0
5, 88320, Note_on_c, 3, 46, 100
5, 88425, Note_on_c, 3, 46, 0
5, 88440, Note_on_c, 3, 42, 100
5, 88492, Note_on_c, 3, 42, 0
5, 88500, Note_on_c, 3, 43, 100
5, 88552, Note_on_c, 3, 43, 0
5, 88560, Note_on_c, 3, 38, 100
5, 88586, Note_on_c, 3, 38, 0
5, 88590, Note_on_c, 3, 50, 100
5, 88616, Note_on_c, 3, 50, 0
5, 88620, Note_on_c, 3, 48, 100
5, 88646, Note_on_c, 3, 48, 0
5, 88650, Note_on_c, 3, 50, 100
5, 88676, Note_on_c, 3, 50, 0
5, 88680, Note_on_c, 3, 43, 100
5, 88706, Note_on_c, 3, 43, 0
5, 88710, Note_on_c, 3, 55, 100
5, 88736, Note_on_c, 3, 55, 0
5, 88740, Note_on_c, 3, 53, 100
5, 88766, Note_on_c, 3, 53, 0
5, 88770, Note_on_c, 3, 55, 100
5, 88796, Note_on_c, 3, 55, 0
5, 88800, Note_on_c, 3, 51, 100
5, 88826, Note_on_c, 3, 51, 0
5, 88830, Note_on_c, 3, 55, 100
5, 88856, Note_on_c, 3, 55, 0
5, 88860, Note_on_c, 3, 51, 100
5, 88886, Note_on_c, 3, 51, 0
5, 88890, Note_on_c, 3, 55, 100
5, 88916, Note_on_c, 3, 55, 0
5, 88920, Note_on_c, 3, 51, 100
5, 88946, Note_on_c, 3, 51, 0
5, 88950, Note_on_c, 3, 53, 100
5, 88976, Note_on_c, 3, 53, 0
5, 88980, Note_on_c, 3, 51, 100
5, 89006, Note_on_c, 3, 51, 0
5, 89010, Note_on_c, 3, 53, 100
5, 89036, Note_on_c, 3, 53, 0
5, 89040, Note_on_c, 3, 50, 100
5, 89066, Note_on_c, 3, 50, 0
5, 89070, Note_on_c, 3, 53, 100
5, 89096, Note_on_c, 3, 53, 0
5, 89100, Note_on_c, 3, 50, 100
5, 89126, Note_on_c, 3, 50, 0
5, 89130, Note_on_c, 3, 53, 100
5, 89156, Note_on_c, 3, 53, 0
5, 89160, Note_on_c, 3, 48, 100
5, 89186, Note_on_c, 3, 48, 0
5, 89190, Note_on_c, 3, 51, 100
5, 89216, Note_on_c, 3, 51, 0
5, 89220, Note_on_c, 3, 50, 100
5, 89246, Note_on_c, 3, 50, 0
5, 89250, Note_on_c, 3, 53, 100
5, 89276, Note_on_c, 3, 53, 0
5, 89280, Note_on_c, 3, 51, 100
5, 89306, Note_on_c, 3, 51, 0
5, 89310, Note_on_c, 3, 53, 100
5, 89336, Note_on_c, 3, 53, 0
5, 89340, Note_on_c, 3, 51, 100
5, 89366, Note_on_c, 3, 51, 0
5, 89370, Note_on_c, 3, 53, 100
5, 89396, Note_on_c, 3, 53, 0
5, 89400, Note_on_c, 3, 51, 100
5, 89426, Note_on_c, 3, 51, 0
5, 89430, Note_on_c, 3, 53, 100
5, 89456, Note_on_c, 3, 53, 0
5, 89460, Note_on_c, 3, 51, 100
5, 89486, Note_on_c, 3, 51, 0
5, 89490, Note_on_c, 3, 53, 100
5, 89516, Note_on_c, 3, 53, 0
5, 89520, Note_on_c, 3, 50, 100
5, 89572, Note_on_c, 3, 50, 0
5, 89580, Note_on_c, 3, 52, 100
5, 89632, Note_on_c, 3, 52, 0
5, 89640, Note_on_c, 3, 54, 100
5, 89692, Note_on_c, 3, 54, 0
5, 89700, Note_on_c, 3, 50, 100
5, 89752, Note_on_c, 3, 50, 0
5, 89760, Note_on_c, 3, 55, 100
5, 89812, Note_on_c, 3, 55, 0
5, 89820, Note_on_c, 3, 43, 100
5, 89872, Note_on_c, 3, 43, 0
5, 89880, Note_on_c, 3, 48, 100
5, 89932, Note_on_c, 3, 48, 0
5, 89940, Note_on_c, 3, 46, 100
5, 89992, Note_on_c, 3, 46, 0
5, 90000, Note_on_c, 3, 45, 100
5, 90052, Note_on_c, 3, 45, 0
5, 90060, Note_on_c, 3, 50, 100
5, 90112, Note_on_c, 3, 50, 0
5, 90120, Note_on_c, 3, 46, 100
5, 90172, Note_on_c, 3, 46, 0
5, 90180, Note_on_c, 3, 43, 100
5, 90232, Note_on_c, 3, 43, 0
5, 90240, Note_on_c, 3, 48, 100
5, 90292, Note_on_c, 3, 48, 0
5, 90300, Note_on_c, 3, 53, 100
5, 90352, Note_on_c, 3, 53, 0
5, 90360, Note_on_c, 3, 46, 100
5, 90412, Note_on_c, 3, 46, 0
5, 90420, Note_on_c, 3, 51, 100
5, 90472, Note_on_c, 3, 51, 0
5, 90480, Note_on_c, 3, 45, 100
5, 90532, Note_on_c, 3, 45, 0
5, 90540, Note_on_c, 3, 50, 100
5, 90592, Note_on_c, 3, 50, 0
5, 90600, Note_on_c, 3, 43, 100
5, 90652, Note_on_c, 3, 43, 0
5, 90660, Note_on_c, 3, 53, 100
5, 90712, Note_on_c, 3, 53, 0
5, 90720, Note_on_c, 3, 51, 100
5, 90772, Note_on_c, 3, 51, 0
5, 90780, Note_on_c, 3, 48, 100
5, 90832, Note_on_c, 3, 48, 0
5, 90840, Note_on_c, 3, 50, 100
5, 90892, Note_on_c, 3, 50, 0
5, 90900, Note_on_c, 3, 38, 100
5, 90952, Note_on_c, 3, 38, 0
5, 90960, Note_on_c, 3, 43, 100
5, 91065, Note_on_c, 3, 43, 0
5, 91260, Note_on_c, 3, 55, 100
5, 91312, Note_on_c, 3, 55, 0
5, 91320, Note_on_c, 3, 48, 100
5, 91485, Note_on_c, 3, 48, 0
5, 91500, Note_on_c, 3, 50, 100
5, 91552, Note_on_c, 3, 50, 0
5, 91560, Note_on_c, 3, 52, 100
5, 91612, Note_on_c, 3, 52, 0
5, 91620, Note_on_c, 3, 48, 100
5, 91672, Note_on_c, 3, 48, 0
5, 91680, Note_on_c, 3, 53, 100
5, 91905, Note_on_c, 3, 53, 0
5, 91920, Note_on_c, 3, 41, 100
5, 92025, Note_on_c, 3, 41, 0
5, 92040, Note_on_c, 3, 48, 100
5, 92265, Note_on_c, 3, 48, 0
5, 92280, Note_on_c, 3, 44, 100
5, 92385, Note_on_c, 3, 44, 0
5, 92400, Note_on_c, 3, 46, 100
5, 92625, Note_on_c, 3, 46, 0
5, 92640, Note_on_c, 3, 48, 100
5, 92745, Note_on_c, 3, 48, 0
5, 92760, Note_on_c, 3, 49, 100
5, 92985, Note_on_c, 3, 49, 0
5, 93000, Note_on_c, 3, 46, 100
5, 93105, Note_on_c, 3, 46, 0
5, 93120, Note_on_c, 3, 48, 100
5, 93266, Note_on_c, 3, 48, 0
5, 93270, Note_on_c, 3, 52, 100
5, 93296, Note_on_c, 3, 52, 0
5, 93300, Note_on_c, 3, 50, 100
5, 93326, Note_on_c, 3, 50, 0
5, 93330, Note_on_c, 3, 53, 100
5, 93356, Note_on_c, 3, 53, 0
5, 93360, Note_on_c, 3, 52, 100
5, 93386, Note_on_c, 3, 52, 0
5, 93390, Note_on_c, 3, 55, 100
5, 93416, Note_on_c, 3, 55, 0
5, 93420, Note_on_c, 3, 52, 100
5, 93446, Note_on_c, 3, 52, 0
5, 93450, Note_on_c, 3, 55, 100
5, 93476, Note_on_c, 3, 55, 0
5, 93480, Note_on_c, 3, 44, 100
5, 93626, Note_on_c, 3, 44, 0
5, 93630, Note_on_c, 3, 48, 100
5, 93656, Note_on_c, 3, 48, 0
5, 93660, Note_on_c, 3, 46, 100
5, 93686, Note_on_c, 3, 46, 0
5, 93690, Note_on_c, 3, 49, 100
5, 93716, Note_on_c, 3, 49, 0
5, 93720, Note_on_c, 3, 48, 100
5, 93746, Note_on_c, 3, 48, 0
5, 93750, Note_on_c, 3, 49, 100
5, 93776, Note_on_c, 3, 49, 0
5, 93780, Note_on_c, 3, 48, 100
5, 93806, Note_on_c, 3, 48, 0
5, 93810, Note_on_c, 3, 49, 100
5, 93836, Note_on_c, 3, 49, 0
5, 93840, Note_on_c, 3, 38, 100
5, 93945, Note_on_c, 3, 38, 0
5, 93960, Note_on_c, 3, 40, 100
5, 94106, Note_on_c, 3, 40, 0
5, 94110, Note_on_c, 3, 52, 100
5, 94136, Note_on_c, 3, 52, 0
5, 94140, Note_on_c, 3, 50, 100
5, 94166, Note_on_c, 3, 50, 0
5, 94170, Note_on_c, 3, 52, 100
5, 94196, Note_on_c, 3, 52, 0
5, 94200, Note_on_c, 3, 41, 100
5, 94346, Note_on_c, 3, 41, 0
5, 94350, Note_on_c, 3, 53, 100
5, 94376, Note_on_c, 3, 53, 0
5, 94380, Note_on_c, 3, 52, 100
5, 94406, Note_on_c, 3, 52, 0
5, 94410, Note_on_c, 3, 53, 100
5, 94436, Note_on_c, 3, 53, 0
5, 94440, Note_on_c, 3, 48, 100
5, 94545, Note_on_c, 3, 48, 0
5, 94560, Note_on_c, 3, 50, 100
5, 94785, Note_on_c, 3, 50, 0
5, 94830, Note_on_c, 3, 51, 100
5, 94856, Note_on_c, 3, 51, 0
5, 94860, Note_on_c, 3, 50, 100
5, 94886, Note_on_c, 3, 50, 0
5, 94890, Note_on_c, 3, 51, 100
5, 94916, Note_on_c, 3, 51, 0
5, 94920, Note_on_c, 3, 48, 100
5, 95025, Note_on_c, 3, 48, 0
5, 95040, Note_on_c, 3, 50, 100
5, 95145, Note_on_c, 3, 50, 0
5, 95190, Note_on_c, 3, 51, 100
5, 95216, Note_on_c, 3, 51, 0
5, 95220, Note_on_c, 3, 50, 100
5, 95246, Note_on_c, 3, 50, 0
5, 95250, Note_on_c, 3, 51, 100
5, 95276, Note_on_c, 3, 51, 0
5, 95280, Note_on_c, 3, 48, 100
5, 95385, Note_on_c, 3, 48, 0
5, 95400, Note_on_c, 3, 50, 100
5, 95505, Note_on_c, 3, 50, 0
5, 95550, Note_on_c, 3, 51, 100
5, 95576, Note_on_c, 3, 51, 0
5, 95580, Note_on_c, 3, 50, 100
5, 95606, Note_on_c, 3, 50, 0
5, 95610, Note_on_c, 3, 51, 100
5, 95636, Note_on_c, 3, 51, 0
5, 95640, Note_on_c, 3, 48, 100
5, 95745, Note_on_c, 3, 48, 0
5, 95760, Note_on_c, 3, 50, 100
5, 95865, Note_on_c, 3, 50, 0
5, 95880, Note_on_c, 3, 38, 100
5, 95985, Note_on_c, 3, 38, 0
5, 96000, Note_on_c, 3, 43, 100
5, 96052, Note_on_c, 3, 43, 0
5, 96060, Note_on_c, 3, 45, 100
5, 96112, Note_on_c, 3, 45, 0
5, 96120, Note_on_c, 3, 47, 100
5, 96172, Note_on_c, 3, 47, 0
5, 96180, Note_on_c, 3, 48, 100
5, 96232, Note_on_c, 3, 48, 0
5, 96240, Note_on_c, 3, 50, 100
5, 96292, Note_on_c, 3, 50, 0
5, 96300, Note_on_c, 3, 47, 100
5, 96352, Note_on_c, 3, 47, 0
5, 96360, Note_on_c, 3, 48, 100
5, 96465, Note_on_c, 3, 48, 0
5, 96660, Note_on_c, 3, 48, 100
5, 96712, Note_on_c, 3, 48, 0
5, 96720, Note_on_c, 3, 53, 100
5, 96746, Note_on_c, 3, 53, 0
5, 96750, Note_on_c, 3, 56, 100
5, 96776, Note_on_c, 3, 56, 0
5, 96780, Note_on_c, 3, 55, 100
5, 96806, Note_on_c, 3, 55, 0
5, 96810, Note_on_c, 3, 58, 100
5, 96836, Note_on_c, 3, 58, 0
5, 96840, Note_on_c, 3, 56, 100
5, 96866, Note_on_c, 3, 56, 0
5, 96870, Note_on_c, 3, 60, 100
5, 96896, Note_on_c, 3, 60, 0
5, 96900, Note_on_c, 3, 55, 100
5, 96926, Note_on_c, 3, 55, 0
5, 96930, Note_on_c, 3, 58, 100
5, 96956, Note_on_c, 3, 58, 0
5, 96960, Note_on_c, 3, 53, 100
5, 96986, Note_on_c, 3, 53, 0
5, 96990, Note_on_c, 3, 56, 100
5, 97016, Note_on_c, 3, 56, 0
5, 97020, Note_on_c, 3, 51, 100
5, 97046, Note_on_c, 3, 51, 0
5, 97050, Note_on_c, 3, 55, 100
5, 97076, Note_on_c, 3, 55, 0
5, 97080, Note_on_c, 3, 50, 100
5, 97106, Note_on_c, 3, 50, 0
5, 97110, Note_on_c, 3, 53, 100
5, 97136, Note_on_c, 3, 53, 0
5, 97140, Note_on_c, 3, 51, 100
5, 97166, Note_on_c, 3, 51, 0
5, 97170, Note_on_c, 3, 55, 100
5, 97196, Note_on_c, 3, 55, 0
5, 97200, Note_on_c, 3, 53, 100
5, 97226, Note_on_c, 3, 53, 0
5, 97230, Note_on_c, 3, 56, 100
5, 97256, Note_on_c, 3, 56, 0
5, 97260, Note_on_c, 3, 51, 100
5, 97286, Note_on_c, 3, 51, 0
5, 97290, Note_on_c, 3, 55, 100
5, 97316, Note_on_c, 3, 55, 0
5, 97320, Note_on_c, 3, 50, 100
5, 97346, Note_on_c, 3, 50, 0
5, 97350, Note_on_c, 3, 53, 100
5, 97376, Note_on_c, 3, 53, 0
5, 97380, Note_on_c, 3, 48, 100
5, 97406, Note_on_c, 3, 48, 0
5, 97410, Note_on_c, 3, 51, 100
5, 97436, Note_on_c, 3, 51, 0
5, 97440, Note_on_c, 3, 47, 100
5, 97545, Note_on_c, 3, 47, 0
5, 97560, Note_on_c, 3, 48, 100
5, 97665, Note_on_c, 3, 48, 0
5, 97680, Note_on_c, 3, 44, 100
5, 97785, Note_on_c, 3, 44, 0
5, 97800, Note_on_c, 3, 43, 100
5, 97905, Note_on_c, 3, 43, 0
5, 97950, Note_on_c, 3, 55, 100
5, 97976, Note_on_c, 3, 55, 0
5, 97980, Note_on_c, 3, 53, 100
5, 98006, Note_on_c, 3, 53, 0
5, 98010, Note_on_c, 3, 55, 100
5, 98036, Note_on_c, 3, 55, 0
5, 98040, Note_on_c, 3, 48, 100
5, 98066, Note_on_c, 3, 48, 0
5, 98070, Note_on_c, 3, 60, 100
5, 98096, Note_on_c, 3, 60, 0
5, 98100, Note_on_c, 3, 58, 100
5, 98126, Note_on_c, 3, 58, 0
5, 98130, Note_on_c, 3, 60, 100
5, 98156, Note_on_c, 3, 60, 0
5, 98160, Note_on_c, 3, 56, 100
5, 98186, Note_on_c, 3, 56, 0
5, 98190, Note_on_c, 3, 60, 100
5, 98216, Note_on_c, 3, 60, 0
5, 98220, Note_on_c, 3, 56, 100
5, 98246, Note_on_c, 3, 56, 0
5, 98250, Note_on_c, 3, 60, 100
5, 98276, Note_on_c, 3, 60, 0
5, 98280, Note_on_c, 3, 56, 100
5, 98306, Note_on_c, 3, 56, 0
5, 98310, Note_on_c, 3, 58, 100
5, 98336, Note_on_c, 3, 58, 0
5, 98340, Note_on_c, 3, 56, 100
5, 98366, Note_on_c, 3, 56, 0
5, 98370, Note_on_c, 3, 58, 100
5, 98396, Note_on_c, 3, 58, 0
5, 98400, Note_on_c, 3, 55, 100
5, 98426, Note_on_c, 3, 55, 0
5, 98430, Note_on_c, 3, 58, 100
5, 98456, Note_on_c, 3, 58, 0
5, 98460, Note_on_c, 3, 55, 100
5, 98486, Note_on_c, 3, 55, 0
5, 98490, Note_on_c, 3, 58, 100
5, 98516, Note_on_c, 3, 58, 0
5, 98520, Note_on_c, 3, 53, 100
5, 98546, Note_on_c, 3, 53, 0
5, 98550, Note_on_c, 3, 56, 100
5, 98576, Note_on_c, 3, 56, 0
5, 98580, Note_on_c, 3, 55, 100
5, 98606, Note_on_c, 3, 55, 0
5, 98610, Note_on_c, 3, 58, 100
5, 98636, Note_on_c, 3, 58, 0
5, 98640, Note_on_c, 3, 56, 100
5, 98666, Note_on_c, 3, 56, 0
5, 98670, Note_on_c, 3, 58, 100
5, 98696, Note_on_c, 3, 58, 0
5, 98700, Note_on_c, 3, 56, 100
5, 98726, Note_on_c, 3, 56, 0
5, 98730, Note_on_c, 3, 58, 100
5, 98756, Note_on_c, 3, 58, 0
5, 98760, Note_on_c, 3, 56, 100
5, 98786, Note_on_c, 3, 56, 0
5, 98790, Note_on_c, 3, 58, 100
5, 98816, Note_on_c, 3, 58, 0
5, 98820, Note_on_c, 3, 56, 100
5, 98846, Note_on_c, 3, 56, 0
5, 98850, Note_on_c, 3, 58, 100
5, 98876, Note_on_c, 3, 58, 0
5, 98880, Note_on_c, 3, 55, 100
5, 99266, Note_on_c, 3, 55, 0
5, 99270, Note_on_c, 3, 59, 100
5, 99296, Note_on_c, 3, 59, 0
5, 99300, Note_on_c, 3, 55, 100
5, 99326, Note_on_c, 3, 55, 0
5, 99330, Note_on_c, 3, 59, 100
5, 99356, Note_on_c, 3, 59, 0
5, 99360, Note_on_c, 3, 51, 100
5, 99386, Note_on_c, 3, 51, 0
5, 99390, Note_on_c, 3, 55, 100
5, 99416, Note_on_c, 3, 55, 0
5, 99420, Note_on_c, 3, 51, 100
5, 99446, Note_on_c, 3, 51, 0
5, 99450, Note_on_c, 3, 55, 100
5, 99476, Note_on_c, 3, 55, 0
5, 99480, Note_on_c, 3, 48, 100
5, 99506, Note_on_c, 3, 48, 0
5, 99510, Note_on_c, 3, 51, 100
5, 99536, Note_on_c, 3, 51, 0
5, 99540, Note_on_c, 3, 48, 100
5, 99566, Note_on_c, 3, 48, 0
5, 99570, Note_on_c, 3, 51, 100
5, 99596, Note_on_c, 3, 51, 0
5, 99600, Note_on_c, 3, 53, 100
5, 99626, Note_on_c, 3, 53, 0
5, 99630, Note_on_c, 3, 56, 100
5, 99656, Note_on_c, 3, 56, 0
5, 99660, Note_on_c, 3, 53, 100
5, 99686, Note_on_c, 3, 53, 0
5, 99690, Note_on_c, 3, 56, 100
5, 99716, Note_on_c, 3, 56, 0
5, 99720, Note_on_c, 3, 50, 100
5, 99746, Note_on_c, 3, 50, 0
5, 99750, Note_on_c, 3, 53, 100
5, 99776, Note_on_c, 3, 53, 0
5, 99780, Note_on_c, 3, 50, 100
5, 99806, Note_on_c, 3, 50, 0
5, 99810, Note_on_c, 3, 53, 100
5, 99836, Note_on_c, 3, 53, 0
5, 99840, Note_on_c, 3, 47, 100
5, 99866, Note_on_c, 3, 47, 0
5, 99870, Note_on_c, 3, 50, 100
5, 99896, Note_on_c, 3, 50, 0
5, 99900, Note_on_c, 3, 47, 100
5, 99926, Note_on_c, 3, 47, 0
5, 99930, Note_on_c, 3, 50, 100
5, 99956, Note_on_c, 3, 50, 0
5, 99960, Note_on_c, 3, 51, 100
5, 99986, Note_on_c, 3, 51, 0
5, 99990, Note_on_c, 3, 55, 100
5, 100016, Note_on_c, 3, 55, 0
5, 100020, Note_on_c, 3, 51, 100
5, 100046, Note_on_c, 3, 51, 0
5, 100050, Note_on_c, 3, 55, 100
5, 100076, Note_on_c, 3, 55, 0
5, 100080, Note_on_c, 3, 48, 100
5, 100106, Note_on_c, 3, 48, 0
5, 100110, Note_on_c, 3, 51, 100
5, 100136, Note_on_c, 3, 51, 0
5, 100140, Note_on_c, 3, 48, 100
5, 100166, Note_on_c, 3, 48, 0
5, 100170, Note_on_c, 3, 51, 100
5, 100196, Note_on_c, 3, 51, 0
5, 100200, Note_on_c, 3, 45, 100
5, 100226, Note_on_c, 3, 45, 0
5, 100230, Note_on_c, 3, 48, 100
5, 100256, Note_on_c, 3, 48, 0
5, 100260, Note_on_c, 3, 45, 100
5, 100286, Note_on_c, 3, 45, 0
5, 100290, Note_on_c, 3, 48, 100
5, 100316, Note_on_c, 3, 48, 0
5, 100320, Note_on_c, 3, 50, 100
5, 100346, Note_on_c, 3, 50, 0
5, 100350, Note_on_c, 3, 53, 100
5, 100376, Note_on_c, 3, 53, 0
5, 100380, Note_on_c, 3, 50, 100
5, 100406, Note_on_c, 3, 50, 0
5, 100410, Note_on_c, 3, 53, 100
5, 100436, Note_on_c, 3, 53, 0
5, 100440, Note_on_c, 3, 47, 100
5, 100466, Note_on_c, 3, 47, 0
5, 100470, Note_on_c, 3, 50, 100
5, 100496, Note_on_c, 3, 50, 0
5, 100500, Note_on_c, 3, 47, 100
5, 100526, Note_on_c, 3, 47, 0
5, 100530, Note_on_c, 3, 50, 100
5, 100556, Note_on_c, 3, 50, 0
5, 100560, Note_on_c, 3, 43, 100
5, 100586, Note_on_c, 3, 43, 0
5, 100590, Note_on_c, 3, 47, 100
5, 100616, Note_on_c, 3, 47, 0
5, 100620, Note_on_c, 3, 43, 100
5, 100646, Note_on_c, 3, 43, 0
5, 100650, Note_on_c, 3, 47, 100
5, 100676, Note_on_c, 3, 47, 0
5, 100680, Note_on_c, 3, 48, 100
5, 100706, Note_on_c, 3, 48, 0
5, 100710, Note_on_c, 3, 51, 100
5, 100736, Note_on_c, 3, 51, 0
5, 100740, Note_on_c, 3, 48, 100
5, 100766, Note_on_c, 3, 48, 0
5, 100770, Note_on_c, 3, 51, 100
5, 100796, Note_on_c, 3, 51, 0
5, 100800, Note_on_c, 3, 44, 100
5, 100826, Note_on_c, 3, 44, 0
5, 100830, Note_on_c, 3, 48, 100
5, 100856, Note_on_c, 3, 48, 0
5, 100860, Note_on_c, 3, 44, 100
5, 100886, Note_on_c, 3, 44, 0
5, 100890, Note_on_c, 3, 48, 100
5, 100916, Note_on_c, 3, 48, 0
5, 100920, Note_on_c, 3, 41, 100
5, 100946, Note_on_c, 3, 41, 0
5, 100950, Note_on_c, 3, 44, 100
5, 100976, Note_on_c, 3, 44, 0
5, 100980, Note_on_c, 3, 41, 100
5, 101006, Note_on_c, 3, 41, 0
5, 101010, Note_on_c, 3, 44, 100
5, 101036, Note_on_c, 3, 44, 0
5, 101040, Note_on_c, 3, 43, 100
5, 101145, Note_on_c, 3, 43, 0
5, 101190, Note_on_c, 3, 43, 100
5, 101216, Note_on_c, 3, 43, 0
5, 101220, Note_on_c, 3, 47, 100
5, 101246, Note_on_c, 3, 47, 0
5, 101250, Note_on_c, 3, 43, 100
5, 101276, Note_on_c, 3, 43, 0
5, 101280, Note_on_c, 3, 48, 100
5, 101306, Note_on_c, 3, 48, 0
5, 101310, Note_on_c, 3, 43, 100
5, 101336, Note_on_c, 3, 43, 0
5, 101340, Note_on_c, 3, 51, 100
5, 101366, Note_on_c, 3, 51, 0
5, 101370, Note_on_c, 3, 48, 100
5, 101396, Note_on_c, 3, 48, 0
5, 101400, Note_on_c, 3, 55, 100
5, 101505, Note_on_c, 3, 55, 0
5, 101550, Note_on_c, 3, 55, 100
5, 101576, Note_on_c, 3, 55, 0
5, 101580, Note_on_c, 3, 53, 100
5, 101606, Note_on_c, 3, 53, 0
5, 101610, Note_on_c, 3, 55, 100
5, 101636, Note_on_c, 3, 55, 0
5, 101640, Note_on_c, 3, 51, 100
5, 101666, Note_on_c, 3, 51, 0
5, 101670, Note_on_c, 3, 55, 100
5, 101696, Note_on_c, 3, 55, 0
5, 101700, Note_on_c, 3, 48, 100
5, 101726, Note_on_c, 3, 48, 0
5, 101730, Note_on_c, 3, 51, 100
5, 101756, Note_on_c, 3, 51, 0
5, 101760, Note_on_c, 3, 47, 100
5, 101865, Note_on_c, 3, 47, 0
5, 101910, Note_on_c, 3, 55, 100
5, 101936, Note_on_c, 3, 55, 0
5, 101940, Note_on_c, 3, 53, 100
5, 101966, Note_on_c, 3, 53, 0
5, 101970, Note_on_c, 3, 55, 100
5, 101996, Note_on_c, 3, 55, 0
5, 102000, Note_on_c, 3, 51, 100
5, 102026, Note_on_c, 3, 51, 0
5, 102030, Note_on_c, 3, 55, 100
5, 102056, Note_on_c, 3, 55, 0
5, 102060, Note_on_c, 3, 48, 100
5, 102086, Note_on_c, 3, 48, 0
5, 102090, Note_on_c, 3, 51, 100
5, 102116, Note_on_c, 3, 51, 0
5, 102120, Note_on_c, 3, 43, 100
5, 102225, Note_on_c, 3, 43, 0
5, 102270, Note_on_c, 3, 55, 100
5, 102296, Note_on_c, 3, 55, 0
5, 102300, Note_on_c, 3, 53, 100
5, 102326, Note_on_c, 3, 53, 0
5, 102330, Note_on_c, 3, 55, 100
5, 102356, Note_on_c, 3, 55, 0
5, 102360, Note_on_c, 3, 51, 100
5, 102386, Note_on_c, 3, 51, 0
5, 102390, Note_on_c, 3, 55, 100
5, 102416, Note_on_c, 3, 55, 0
5, 102420, Note_on_c, 3, 48, 100
5, 102446, Note_on_c, 3, 48, 0
5, 102450, Note_on_c, 3, 51, 100
5, 102476, Note_on_c, 3, 51, 0
5, 102480, Note_on_c, 3, 41, 100
5, 102602, Note_on_c, 3, 41, 0
5, 102660, Note_on_c, 3, 53, 100
5, 102712, Note_on_c, 3, 53, 0
5, 102720, Note_on_c, 3, 51, 100
5, 102772, Note_on_c, 3, 51, 0
5, 102780, Note_on_c, 3, 48, 100
5, 102832, Note_on_c, 3, 48, 0
5, 102840, Note_on_c, 3, 53, 100
5, 102945, Note_on_c, 3, 53, 0
5, 102960, Note_on_c, 3, 55, 100
5, 103065, Note_on_c, 3, 55, 0
5, 103080, Note_on_c, 3, 43, 100
5, 103185, Note_on_c, 3, 43, 0
5, 103200, Note_on_c, 3, 36, 100
5, 103305, Note_on_c, 3, 36, 0
5, 103350, Note_on_c, 3, 48, 100
5, 103376, Note_on_c, 3, 48, 0
5, 103380, Note_on_c, 3, 52, 100
5, 103406, Note_on_c, 3, 52, 0
5, 103410, Note_on_c, 3, 48, 100
5, 103436, Note_on_c, 3, 48, 0
5, 103440, Note_on_c, 3, 53, 100
5, 103466, Note_on_c, 3, 53, 0
5, 103470, Note_on_c, 3, 48, 100
5, 103496, Note_on_c, 3, 48, 0
5, 103500, Note_on_c, 3, 56, 100
5, 103526, Note_on_c, 3, 56, 0
5, 103530, Note_on_c, 3, 53, 100
5, 103556, Note_on_c, 3, 53, 0
5, 103560, Note_on_c, 3, 60, 100
5, 103665, Note_on_c, 3, 60, 0
5, 103710, Note_on_c, 3, 60, 100
5, 103736, Note_on_c, 3, 60, 0
5, 103740, Note_on_c, 3, 58, 100
5, 103766, Note_on_c, 3, 58, 0
5, 103770, Note_on_c, 3, 60, 100
5, 103796, Note_on_c, 3, 60, 0
5, 103800, Note_on_c, 3, 56, 100
5, 103826, Note_on_c, 3, 56, 0
5, 103830, Note_on_c, 3, 60, 100
5, 103856, Note_on_c, 3, 60, 0
5, 103860, Note_on_c, 3, 53, 100
5, 103886, Note_on_c, 3, 53, 0
5, 103890, Note_on_c, 3, 56, 100
5, 103916, Note_on_c, 3, 56, 0
5, 103920, Note_on_c, 3, 52, 100
5, 104025, Note_on_c, 3, 52, 0
5, 104070, Note_on_c, 3, 60, 100
5, 104096, Note_on_c, 3, 60, 0
5, 104100, Note_on_c, 3, 58, 100
5, 104126, Note_on_c, 3, 58, 0
5, 104130, Note_on_c, 3, 60, 100
5, 104156, Note_on_c, 3, 60, 0
5, 104160, Note_on_c, 3, 56, 100
5, 104186, Note_on_c, 3, 56, 0
5, 104190, Note_on_c, 3, 60, 100
5, 104216, Note_on_c, 3, 60, 0
5, 104220, Note_on_c, 3, 53, 100
5, 104246, Note_on_c, 3, 53, 0
5, 104250, Note_on_c, 3, 56, 100
5, 104276, Note_on_c, 3, 56, 0
5, 104280, Note_on_c, 3, 48, 100
5, 104385, Note_on_c, 3, 48, 0
5, 104430, Note_on_c, 3, 48, 100
5, 104456, Note_on_c, 3, 48, 0
5, 104460, Note_on_c, 3, 46, 100
5, 104486, Note_on_c, 3, 46, 0
5, 104490, Note_on_c, 3, 48, 100
5, 104516, Note_on_c, 3, 48, 0
5, 104520, Note_on_c, 3, 44, 100
5, 104546, Note_on_c, 3, 44, 0
5, 104550, Note_on_c, 3, 48, 100
5, 104576, Note_on_c, 3, 48, 0
5, 104580, Note_on_c, 3, 41, 100
5, 104606, Note_on_c, 3, 41, 0
5, 104610, Note_on_c, 3, 44, 100
5, 104636, Note_on_c, 3, 44, 0
5, 104640, Note_on_c, 3, 36, 114
5, 104880, Note_on_c, 3, 53, 100
5, 104985, Note_on_c, 3, 53, 0
5, 105000, Note_on_c, 3, 55, 100
5, 105242, Control_c, 3, 7, 121
5, 105243, Control_c, 3, 7, 119
5, 105244, Control_c, 3, 7, 118
5, 105245, Control_c, 3, 7, 117
5, 105246, Control_c, 3, 7, 116
5, 105247, Control_c, 3, 7, 115
5, 105248, Control_c, 3, 7, 114
5, 105249, Control_c, 3, 7, 113
5, 105250, Control_c, 3, 7, 112
5, 105251, Control_c, 3, 7, 111
5, 105252, Control_c, 3, 7, 110
5, 105253, Control_c, 3, 7, 109
5, 105254, Control_c, 3, 7, 108
5, 105255, Control_c, 3, 7, 107
5, 105256, Control_c, 3, 7, 106
5, 105257, Control_c, 3, 7, 105
5, 105258, Control_c, 3, 7, 104
5, 105259, Control_c, 3, 7, 103
5, 105260, Control_c, 3, 7, 102
5, 105261, Control_c, 3, 7, 101
5, 105262, Control_c, 3, 7, 100
5, 105263, Control_c, 3, 7, 99
5, 105264, Control_c, 3, 7, 98
5, 105265, Control_c, 3, 7, 97
5, 105266, Control_c, 3, 7, 96
5, 105267, Control_c, 3, 7, 95
5, 105268, Control_c, 3, 7, 94
5, 105269, Control_c, 3, 7, 93
5, 105270, Control_c, 3, 7, 92
5, 105271, Control_c, 3, 7, 91
5, 105272, Control_c, 3, 7, 90
5, 105273, Control_c, 3, 7, 89
5, 105274, Control_c, 3, 7, 88
5, 105275, Control_c, 3, 7, 87
5, 105276, Control_c, 3, 7, 86
5, 105277, Control_c, 3, 7, 85
5, 105278, Control_c, 3, 7, 84
5, 105279, Control_c, 3, 7, 83
5, 105280, Control_c, 3, 7, 82
5, 105281, Control_c, 3, 7, 81
5, 105282, Control_c, 3, 7, 79
5, 105283, Control_c, 3, 7, 78
5, 105284, Control_c, 3, 7, 77
5, 105285, Control_c, 3, 7, 76
5, 105286, Control_c, 3, 7, 75
5, 105287, Control_c, 3, 7, 74
5, 105288, Control_c, 3, 7, 73
5, 105289, Control_c, 3, 7, 72
5, 105290, Control_c, 3, 7, 71
5, 105291, Control_c, 3, 7, 70
5, 105292, Control_c, 3, 7, 69
5, 105293, Control_c, 3, 7, 68
5, 105294, Control_c, 3, 7, 67
5, 105295, Control_c, 3, 7, 66
5, 105296, Control_c, 3, 7, 65
5, 105297, Control_c, 3, 7, 64
5, 105298, Control_c, 3, 7, 63
5, 105299, Control_c, 3, 7, 62
5, 105300, Control_c, 3, 7, 61
5, 105301, Control_c, 3, 7, 60
5, 105302, Control_c, 3, 7, 59
5, 105303, Control_c, 3, 7, 58
5, 105304, Control_c, 3, 7, 57
5, 105305, Control_c, 3, 7, 56
5, 105306, Control_c, 3, 7, 55
5, 105307, Control_c, 3, 7, 54
5, 105308, Control_c, 3, 7, 53
5, 105309, Control_c, 3, 7, 52
5, 105310, Control_c, 3, 7, 51
5, 105311, Control_c, 3, 7, 50
5, 105312, Control_c, 3, 7, 49
5, 105313, Control_c, 3, 7, 48
5, 105314, Control_c, 3, 7, 47
5, 105315, Control_c, 3, 7, 46
5, 105316, Control_c, 3, 7, 45
5, 105317, Control_c, 3, 7, 44
5, 105318, Control_c, 3, 7, 43
5, 105319, Control_c, 3, 7, 42
5, 105320, Control_c, 3, 7, 41
5, 105321, Control_c, 3, 7, 39
5, 105322, Control_c, 3, 7, 38
5, 105323, Control_c, 3, 7, 37
5, 105324, Control_c, 3, 7, 36
5, 105325, Control_c, 3, 7, 35
5, 105326, Control_c, 3, 7, 34
5, 105327, Control_c, 3, 7, 33
5, 105328, Control_c, 3, 7, 32
5, 105329, Control_c, 3, 7, 31
5, 105330, Control_c, 3, 7, 30
5, 105331, Control_c, 3, 7, 29
5, 105332, Control_c, 3, 7, 28
5, 105333, Control_c, 3, 7, 27
5, 105334, Control_c, 3, 7, 26
5, 105335, Control_c, 3, 7, 25
5, 105336, Control_c, 3, 7, 24
5, 105337, Control_c, 3, 7, 23
5, 105338, Control_c, 3, 7, 22
5, 105339, Control_c, 3, 7, 21
5, 105340, Control_c, 3, 7, 20
5, 105341, Control_c, 3, 7, 19
5, 105342, Control_c, 3, 7, 18
5, 105343, Control_c, 3, 7, 17
5, 105344, Control_c, 3, 7, 16
5, 105345, Note_on_c, 3, 55, 0
5, 105345, Note_on_c, 3, 36, 0
5, 105345, Control_c, 3, 7, 15
5, 105346, Control_c, 3, 7, 14
5, 105347, Control_c, 3, 7, 13
5, 105348, Control_c, 3, 7, 12
5, 105349, Control_c, 3, 7, 11
5, 105350, Control_c, 3, 7, 10
5, 105351, Control_c, 3, 7, 9
5, 105352, Control_c, 3, 7, 8
5, 105353, Control_c, 3, 7, 7
5, 105354, Control_c, 3, 7, 6
5, 105355, Control_c, 3, 7, 5
5, 105356, Control_c, 3, 7, 4
5, 105357, Control_c, 3, 7, 3
5, 105358, Control_c, 3, 7, 2
5, 105359, Control_c, 3, 7, 1
5, 105360, Control_c, 3, 7, 0
5, 105360, End_track
6, 0, Start_track
6, 0, MIDI_port, 0
6, 0, Program_c, 4, 20
6, 0, Control_c, 4, 7, 120
6, 0, Control_c, 4, 10, 40
6, 60, Control_c, 4, 10, 39
6, 72, Control_c, 4, 7, 114
6, 57643, Program_c, 4, 20
6, 57960, Note_on_c, 4, 63, 80
6, 57986, Note_on_c, 4, 63, 0
6, 57990, Note_on_c, 4, 65, 80
6, 58016, Note_on_c, 4, 65, 0
6, 58020, Note_on_c, 4, 63, 80
6, 58046, Note_on_c, 4, 63, 0
6, 58050, Note_on_c, 4, 62, 80
6, 58076, Note_on_c, 4, 62, 0
6, 58080, Note_on_c, 4, 63, 80
6, 58226, Note_on_c, 4, 63, 0
6, 58230, Note_on_c, 4, 65, 80
6, 58256, Note_on_c, 4, 65, 0
6, 58260, Note_on_c, 4, 63, 80
6, 58286, Note_on_c, 4, 63, 0
6, 58290, Note_on_c, 4, 62, 80
6, 58316, Note_on_c, 4, 62, 0
6, 58320, Note_on_c, 4, 63, 80
6, 58466, Note_on_c, 4, 63, 0
6, 58470, Note_on_c, 4, 65, 80
6, 58496, Note_on_c, 4, 65, 0
6, 58500, Note_on_c, 4, 63, 80
6, 58526, Note_on_c, 4, 63, 0
6, 58530, Note_on_c, 4, 62, 80
6, 58556, Note_on_c, 4, 62, 0
6, 58560, Note_on_c, 4, 60, 80
6, 58638, Note_on_c, 4, 60, 0
6, 58650, Note_on_c, 4, 65, 80
6, 58676, Note_on_c, 4, 65, 0
6, 58680, Note_on_c, 4, 63, 80
6, 58706, Note_on_c, 4, 63, 0
6, 58710, Note_on_c, 4, 65, 80
6, 58736, Note_on_c, 4, 65, 0
6, 58740, Note_on_c, 4, 63, 80
6, 58766, Note_on_c, 4, 63, 0
6, 58770, Note_on_c, 4, 62, 80
6, 58796, Note_on_c, 4, 62, 0
6, 58800, Note_on_c, 4, 63, 80
6, 58946, Note_on_c, 4, 63, 0
6, 58950, Note_on_c, 4, 65, 80
6, 58976, Note_on_c, 4, 65, 0
6, 58980, Note_on_c, 4, 63, 80
6, 59006, Note_on_c, 4, 63, 0
6, 59010, Note_on_c, 4, 62, 80
6, 59036, Note_on_c, 4, 62, 0
6, 59040, Note_on_c, 4, 63, 80
6, 59066, Note_on_c, 4, 63, 0
6, 59070, Note_on_c, 4, 63, 80
6, 59096, Note_on_c, 4, 63, 0
6, 59100, Note_on_c, 4, 65, 80
6, 59126, Note_on_c, 4, 65, 0
6, 59130, Note_on_c, 4, 67, 80
6, 59156, Note_on_c, 4, 67, 0
6, 59160, Note_on_c, 4, 68, 80
6, 59212, Note_on_c, 4, 68, 0
6, 59220, Note_on_c, 4, 65, 80
6, 59272, Note_on_c, 4, 65, 0
6, 59280, Note_on_c, 4, 63, 80
6, 59306, Note_on_c, 4, 63, 0
6, 59310, Note_on_c, 4, 65, 80
6, 59336, Note_on_c, 4, 65, 0
6, 59340, Note_on_c, 4, 63, 80
6, 59366, Note_on_c, 4, 63, 0
6, 59370, Note_on_c, 4, 62, 80
6, 59396, Note_on_c, 4, 62, 0
6, 59400, Note_on_c, 4, 63, 80
6, 59505, Note_on_c, 4, 63, 0
6, 59520, Note_on_c, 4, 65, 80
6, 59546, Note_on_c, 4, 65, 0
6, 59550, Note_on_c, 4, 68, 80
6, 59576, Note_on_c, 4, 68, 0
6, 59580, Note_on_c, 4, 67, 80
6, 59606, Note_on_c, 4, 67, 0
6, 59610, Note_on_c, 4, 65, 80
6, 59636, Note_on_c, 4, 65, 0
6, 59640, Note_on_c, 4, 63, 80
6, 59666, Note_on_c, 4, 63, 0
6, 59670, Note_on_c, 4, 65, 80
6, 59696, Note_on_c, 4, 65, 0
6, 59700, Note_on_c, 4, 63, 80
6, 59726, Note_on_c, 4, 63, 0
6, 59730, Note_on_c, 4, 62, 80
6, 59756, Note_on_c, 4, 62, 0
6, 59760, Note_on_c, 4, 60, 80
6, 59906, Note_on_c, 4, 60, 0
6, 59910, Note_on_c, 4, 62, 80
6, 59936, Note_on_c, 4, 62, 0
6, 59940, Note_on_c, 4, 60, 80
6, 59966, Note_on_c, 4, 60, 0
6, 59970, Note_on_c, 4, 59, 80
6, 59996, Note_on_c, 4, 59, 0
6, 60000, Note_on_c, 4, 60, 80
6, 60146, Note_on_c, 4, 60, 0
6, 60150, Note_on_c, 4, 62, 80
6, 60176, Note_on_c, 4, 62, 0
6, 60180, Note_on_c, 4, 60, 80
6, 60206, Note_on_c, 4, 60, 0
6, 60210, Note_on_c, 4, 59, 80
6, 60236, Note_on_c, 4, 59, 0
6, 60240, Note_on_c, 4, 60, 80
6, 60266, Note_on_c, 4, 60, 0
6, 60270, Note_on_c, 4, 62, 80
6, 60296, Note_on_c, 4, 62, 0
6, 60300, Note_on_c, 4, 60, 80
6, 60326, Note_on_c, 4, 60, 0
6, 60330, Note_on_c, 4, 59, 80
6, 60356, Note_on_c, 4, 59, 0
6, 60360, Note_on_c, 4, 60, 80
6, 60506, Note_on_c, 4, 60, 0
6, 60510, Note_on_c, 4, 56, 80
6, 60536, Note_on_c, 4, 56, 0
6, 60540, Note_on_c, 4, 55, 80
6, 60566, Note_on_c, 4, 55, 0
6, 60570, Note_on_c, 4, 53, 80
6, 60596, Note_on_c, 4, 53, 0
6, 60600, Note_on_c, 4, 51, 80
6, 60600, Note_on_c, 4, 55, 80
6, 60600, Note_on_c, 4, 60, 80
6, 60705, Note_on_c, 4, 60, 0
6, 60705, Note_on_c, 4, 55, 0
6, 60705, Note_on_c, 4, 51, 0
6, 60720, Note_on_c, 4, 67, 80
6, 60945, Note_on_c, 4, 67, 0
6, 60960, Note_on_c, 4, 63, 80
6, 61065, Note_on_c, 4, 63, 0
6, 61080, Note_on_c, 4, 65, 80
6, 61305, Note_on_c, 4, 65, 0
6, 61320, Note_on_c, 4, 67, 80
6, 61425, Note_on_c, 4, 67, 0
6, 61440, Note_on_c, 4, 68, 80
6, 61665, Note_on_c, 4, 68, 0
6, 61680, Note_on_c, 4, 65, 80
6, 61785, Note_on_c, 4, 65, 0
6, 61800, Note_on_c, 4, 67, 80
6, 61965, Note_on_c, 4, 67, 0
6, 61980, Note_on_c, 4, 65, 80
6, 62032, Note_on_c, 4, 65, 0
6, 62040, Note_on_c, 4, 63, 80
6, 62066, Note_on_c, 4, 63, 0
6, 62070, Note_on_c, 4, 67, 80
6, 62096, Note_on_c, 4, 67, 0
6, 62100, Note_on_c, 4, 65, 80
6, 62126, Note_on_c, 4, 65, 0
6, 62130, Note_on_c, 4, 63, 80
6, 62156, Note_on_c, 4, 63, 0
6, 62160, Note_on_c, 4, 62, 80
6, 62306, Note_on_c, 4, 62, 0
6, 62310, Note_on_c, 4, 62, 80
6, 62336, Note_on_c, 4, 62, 0
6, 62340, Note_on_c, 4, 64, 80
6, 62366, Note_on_c, 4, 64, 0
6, 62370, Note_on_c, 4, 66, 80
6, 62396, Note_on_c, 4, 66, 0
6, 62400, Note_on_c, 4, 67, 80
6, 62505, Note_on_c, 4, 67, 0
6, 62580, Note_on_c, 4, 70, 80
6, 62632, Note_on_c, 4, 70, 0
6, 62640, Note_on_c, 4, 66, 80
6, 62692, Note_on_c, 4, 66, 0
6, 62700, Note_on_c, 4, 66, 80
6, 62752, Note_on_c, 4, 66, 0
6, 62760, Note_on_c, 4, 67, 80
6, 62812, Note_on_c, 4, 67, 0
6, 62820, Note_on_c, 4, 67, 80
6, 62872, Note_on_c, 4, 67, 0
6, 62940, Note_on_c, 4, 75, 80
6, 62992, Note_on_c, 4, 75, 0
6, 63000, Note_on_c, 4, 69, 80
6, 63052, Note_on_c, 4, 69, 0
6, 63060, Note_on_c, 4, 69, 80
6, 63112, Note_on_c, 4, 69, 0
6, 63120, Note_on_c, 4, 71, 80
6, 63172, Note_on_c, 4, 71, 0
6, 63180, Note_on_c, 4, 71, 80
6, 63232, Note_on_c, 4, 71, 0
6, 63300, Note_on_c, 4, 72, 80
6, 63352, Note_on_c, 4, 72, 0
6, 63360, Note_on_c, 4, 67, 80
6, 63412, Note_on_c, 4, 67, 0
6, 63420, Note_on_c, 4, 67, 80
6, 63472, Note_on_c, 4, 67, 0
6, 63480, Note_on_c, 4, 69, 80
6, 63532, Note_on_c, 4, 69, 0
6, 63540, Note_on_c, 4, 69, 80
6, 63592, Note_on_c, 4, 69, 0
6, 63660, Note_on_c, 4, 70, 80
6, 63712, Note_on_c, 4, 70, 0
6, 63720, Note_on_c, 4, 66, 80
6, 63772, Note_on_c, 4, 66, 0
6, 63780, Note_on_c, 4, 66, 80
6, 63832, Note_on_c, 4, 66, 0
6, 63840, Note_on_c, 4, 67, 80
6, 63892, Note_on_c, 4, 67, 0
6, 63900, Note_on_c, 4, 67, 80
6, 63952, Note_on_c, 4, 67, 0
6, 63990, Note_on_c, 4, 72, 80
6, 64016, Note_on_c, 4, 72, 0
6, 64020, Note_on_c, 4, 70, 80
6, 64046, Note_on_c, 4, 70, 0
6, 64050, Note_on_c, 4, 72, 80
6, 64076, Note_on_c, 4, 72, 0
6, 64080, Note_on_c, 4, 68, 80
6, 64185, Note_on_c, 4, 68, 0
6, 64230, Note_on_c, 4, 67, 80
6, 64256, Note_on_c, 4, 67, 0
6, 64260, Note_on_c, 4, 65, 80
6, 64286, Note_on_c, 4, 65, 0
6, 64290, Note_on_c, 4, 67, 80
6, 64316, Note_on_c, 4, 67, 0
6, 64320, Note_on_c, 4, 63, 80
6, 64425, Note_on_c, 4, 63, 0
6, 64440, Note_on_c, 4, 65, 80
6, 64492, Note_on_c, 4, 65, 0
6, 64500, Note_on_c, 4, 60, 80
6, 64552, Note_on_c, 4, 60, 0
6, 64560, Note_on_c, 4, 62, 80
6, 64732, Note_on_c, 4, 62, 0
6, 64740, Note_on_c, 4, 57, 80
6, 64792, Note_on_c, 4, 57, 0
6, 64800, Note_on_c, 4, 59, 80
6, 64905, Note_on_c, 4, 59, 0
6, 64914, Control_c, 4, 7, 126
6, 64920, Note_on_c, 4, 60, 80
6, 64946, Note_on_c, 4, 60, 0
6, 64950, Note_on_c, 4, 65, 80
6, 64976, Note_on_c, 4, 65, 0
6, 64980, Note_on_c, 4, 63, 80
6, 65006, Note_on_c, 4, 63, 0
6, 65010, Note_on_c, 4, 65, 80
6, 65036, Note_on_c, 4, 65, 0
6, 65040, Note_on_c, 4, 67, 80
6, 65092, Note_on_c, 4, 67, 0
6, 65190, Note_on_c, 4, 67, 80
6, 65216, Note_on_c, 4, 67, 0
6, 65220, Note_on_c, 4, 65, 80
6, 65246, Note_on_c, 4, 65, 0
6, 65250, Note_on_c, 4, 67, 80
6, 65276, Note_on_c, 4, 67, 0
6, 65280, Note_on_c, 4, 60, 80
6, 65306, Note_on_c, 4, 60, 0
6, 65310, Note_on_c, 4, 72, 80
6, 65336, Note_on_c, 4, 72, 0
6, 65340, Note_on_c, 4, 70, 80
6, 65366, Note_on_c, 4, 70, 0
6, 65370, Note_on_c, 4, 72, 80
6, 65396, Note_on_c, 4, 72, 0
6, 65400, Note_on_c, 4, 68, 80
6, 65426, Note_on_c, 4, 68, 0
6, 65430, Note_on_c, 4, 72, 80
6, 65456, Note_on_c, 4, 72, 0
6, 65460, Note_on_c, 4, 68, 80
6, 65486, Note_on_c, 4, 68, 0
6, 65490, Note_on_c, 4, 72, 80
6, 65516, Note_on_c, 4, 72, 0
6, 65520, Note_on_c, 4, 68, 80
6, 65546, Note_on_c, 4, 68, 0
6, 65550, Note_on_c, 4, 70, 80
6, 65576, Note_on_c, 4, 70, 0
6, 65580, Note_on_c, 4, 68, 80
6, 65606, Note_on_c, 4, 68, 0
6, 65610, Note_on_c, 4, 70, 80
6, 65636, Note_on_c, 4, 70, 0
6, 65640, Note_on_c, 4, 67, 80
6, 65666, Note_on_c, 4, 67, 0
6, 65670, Note_on_c, 4, 70, 80
6, 65696, Note_on_c, 4, 70, 0
6, 65700, Note_on_c, 4, 67, 80
6, 65726, Note_on_c, 4, 67, 0
6, 65730, Note_on_c, 4, 70, 80
6, 65756, Note_on_c, 4, 70, 0
6, 65760, Note_on_c, 4, 65, 80
6, 65786, Note_on_c, 4, 65, 0
6, 65790, Note_on_c, 4, 68, 80
6, 65816, Note_on_c, 4, 68, 0
6, 65820, Note_on_c, 4, 67, 80
6, 65846, Note_on_c, 4, 67, 0
6, 65850, Note_on_c, 4, 70, 80
6, 65876, Note_on_c, 4, 70, 0
6, 65880, Note_on_c, 4, 68, 80
6, 65906, Note_on_c, 4, 68, 0
6, 65910, Note_on_c, 4, 70, 80
6, 65936, Note_on_c, 4, 70, 0
6, 65940, Note_on_c, 4, 68, 80
6, 65966, Note_on_c, 4, 68, 0
6, 65970, Note_on_c, 4, 70, 80
6, 65996, Note_on_c, 4, 70, 0
6, 66000, Note_on_c, 4, 68, 80
6, 66026, Note_on_c, 4, 68, 0
6, 66030, Note_on_c, 4, 70, 80
6, 66056, Note_on_c, 4, 70, 0
6, 66060, Note_on_c, 4, 68, 80
6, 66086, Note_on_c, 4, 68, 0
6, 66090, Note_on_c, 4, 70, 80
6, 66116, Note_on_c, 4, 70, 0
6, 66120, Note_on_c, 4, 67, 80
6, 66146, Note_on_c, 4, 67, 0
6, 66150, Note_on_c, 4, 68, 80
6, 66176, Note_on_c, 4, 68, 0
6, 66180, Note_on_c, 4, 67, 80
6, 66206, Note_on_c, 4, 67, 0
6, 66210, Note_on_c, 4, 68, 80
6, 66236, Note_on_c, 4, 68, 0
6, 66240, Note_on_c, 4, 67, 80
6, 66266, Note_on_c, 4, 67, 0
6, 66270, Note_on_c, 4, 68, 80
6, 66296, Note_on_c, 4, 68, 0
6, 66300, Note_on_c, 4, 65, 80
6, 66326, Note_on_c, 4, 65, 0
6, 66330, Note_on_c, 4, 67, 80
6, 66356, Note_on_c, 4, 67, 0
6, 66360, Note_on_c, 4, 63, 80
6, 66386, Note_on_c, 4, 63, 0
6, 66390, Note_on_c, 4, 65, 80
6, 66416, Note_on_c, 4, 65, 0
6, 66420, Note_on_c, 4, 62, 80
6, 66446, Note_on_c, 4, 62, 0
6, 66450, Note_on_c, 4, 63, 80
6, 66476, Note_on_c, 4, 63, 0
6, 66480, Note_on_c, 4, 60, 80
6, 66506, Note_on_c, 4, 60, 0
6, 66510, Note_on_c, 4, 67, 80
6, 66536, Note_on_c, 4, 67, 0
6, 66540, Note_on_c, 4, 65, 80
6, 66566, Note_on_c, 4, 65, 0
6, 66570, Note_on_c, 4, 67, 80
6, 66596, Note_on_c, 4, 67, 0
6, 66600, Note_on_c, 4, 63, 80
6, 66626, Note_on_c, 4, 63, 0
6, 66630, Note_on_c, 4, 65, 80
6, 66656, Note_on_c, 4, 65, 0
6, 66660, Note_on_c, 4, 62, 80
6, 66686, Note_on_c, 4, 62, 0
6, 66690, Note_on_c, 4, 63, 80
6, 66716, Note_on_c, 4, 63, 0
6, 66720, Note_on_c, 4, 60, 80
6, 66746, Note_on_c, 4, 60, 0
6, 66750, Note_on_c, 4, 62, 80
6, 66776, Note_on_c, 4, 62, 0
6, 66780, Note_on_c, 4, 58, 80
6, 66806, Note_on_c, 4, 58, 0
6, 66810, Note_on_c, 4, 60, 80
6, 66836, Note_on_c, 4, 60, 0
6, 66840, Note_on_c, 4, 57, 80
6, 66892, Note_on_c, 4, 57, 0
6, 66900, Note_on_c, 4, 58, 80
6, 66952, Note_on_c, 4, 58, 0
6, 66960, Note_on_c, 4, 60, 80
6, 67012, Note_on_c, 4, 60, 0
6, 67020, Note_on_c, 4, 57, 80
6, 67072, Note_on_c, 4, 57, 0
6, 67080, Note_on_c, 4, 58, 80
6, 67132, Note_on_c, 4, 58, 0
6, 67140, Note_on_c, 4, 67, 80
6, 67192, Note_on_c, 4, 67, 0
6, 67200, Note_on_c, 4, 67, 80
6, 67305, Note_on_c, 4, 67, 0
6, 67320, Note_on_c, 4, 72, 80
6, 67425, Note_on_c, 4, 72, 0
6, 67440, Note_on_c, 4, 67, 80
6, 67545, Note_on_c, 4, 67, 0
6, 67560, Note_on_c, 4, 67, 80
6, 67665, Note_on_c, 4, 67, 0
6, 67680, Note_on_c, 4, 70, 80
6, 67785, Note_on_c, 4, 70, 0
6, 67800, Note_on_c, 4, 65, 80
6, 67972, Note_on_c, 4, 65, 0
6, 67980, Note_on_c, 4, 67, 80
6, 68032, Note_on_c, 4, 67, 0
6, 68040, Note_on_c, 4, 69, 80
6, 68145, Note_on_c, 4, 69, 0
6, 68160, Note_on_c, 4, 67, 80
6, 68212, Note_on_c, 4, 67, 0
6, 68220, Note_on_c, 4, 66, 80
6, 68272, Note_on_c, 4, 66, 0
6, 68280, Note_on_c, 4, 67, 80
6, 68306, Note_on_c, 4, 67, 0
6, 68310, Note_on_c, 4, 65, 80
6, 68336, Note_on_c, 4, 65, 0
6, 68340, Note_on_c, 4, 64, 80
6, 68366, Note_on_c, 4, 64, 0
6, 68370, Note_on_c, 4, 67, 80
6, 68396, Note_on_c, 4, 67, 0
6, 68400, Note_on_c, 4, 66, 80
6, 68452, Note_on_c, 4, 66, 0
6, 68460, Note_on_c, 4, 67, 80
6, 68565, Note_on_c, 4, 67, 0
6, 68580, Note_on_c, 4, 66, 80
6, 68632, Note_on_c, 4, 66, 0
6, 68640, Note_on_c, 4, 67, 80
6, 68745, Note_on_c, 4, 67, 0
6, 68880, Note_on_c, 4, 60, 80
6, 68985, Note_on_c, 4, 60, 0
6, 69000, Note_on_c, 4, 67, 80
6, 69225, Note_on_c, 4, 67, 0
6, 69240, Note_on_c, 4, 63, 80
6, 69345, Note_on_c, 4, 63, 0
6, 69360, Note_on_c, 4, 65, 80
6, 69585, Note_on_c, 4, 65, 0
6, 69600, Note_on_c, 4, 67, 80
6, 69705, Note_on_c, 4, 67, 0
6, 69720, Note_on_c, 4, 68, 80
6, 69945, Note_on_c, 4, 68, 0
6, 69960, Note_on_c, 4, 65, 80
6, 70065, Note_on_c, 4, 65, 0
6, 70080, Note_on_c, 4, 67, 80
6, 70305, Note_on_c, 4, 67, 0
6, 70320, Note_on_c, 4, 65, 80
6, 70492, Note_on_c, 4, 65, 0
6, 70500, Note_on_c, 4, 63, 80
6, 70526, Note_on_c, 4, 63, 0
6, 70530, Note_on_c, 4, 67, 80
6, 70556, Note_on_c, 4, 67, 0
6, 70560, Note_on_c, 4, 65, 80
6, 70586, Note_on_c, 4, 65, 0
6, 70590, Note_on_c, 4, 68, 80
6, 70616, Note_on_c, 4, 68, 0
6, 70620, Note_on_c, 4, 67, 80
6, 70646, Note_on_c, 4, 67, 0
6, 70650, Note_on_c, 4, 70, 80
6, 70676, Note_on_c, 4, 70, 0
6, 70680, Note_on_c, 4, 68, 80
6, 70706, Note_on_c, 4, 68, 0
6, 70710, Note_on_c, 4, 72, 80
6, 70736, Note_on_c, 4, 72, 0
6, 70740, Note_on_c, 4, 70, 80
6, 70766, Note_on_c, 4, 70, 0
6, 70770, Note_on_c, 4, 68, 80
6, 70796, Note_on_c, 4, 68, 0
6, 70800, Note_on_c, 4, 67, 80
6, 70905, Note_on_c, 4, 67, 0
6, 70926, Control_c, 4, 7, 114
6, 70950, Note_on_c, 4, 70, 80
6, 70976, Note_on_c, 4, 70, 0
6, 70980, Note_on_c, 4, 68, 80
6, 71006, Note_on_c, 4, 68, 0
6, 71010, Note_on_c, 4, 70, 80
6, 71036, Note_on_c, 4, 70, 0
6, 71040, Note_on_c, 4, 67, 80
6, 71145, Note_on_c, 4, 67, 0
6, 71220, Note_on_c, 4, 67, 80
6, 71272, Note_on_c, 4, 67, 0
6, 71280, Note_on_c, 4, 62, 80
6, 71332, Note_on_c, 4, 62, 0
6, 71340, Note_on_c, 4, 62, 80
6, 71392, Note_on_c, 4, 62, 0
6, 71400, Note_on_c, 4, 63, 80
6, 71452, Note_on_c, 4, 63, 0
6, 71460, Note_on_c, 4, 63, 80
6, 71512, Note_on_c, 4, 63, 0
6, 71580, Note_on_c, 4, 72, 80
6, 71632, Note_on_c, 4, 72, 0
6, 71640, Note_on_c, 4, 65, 80
6, 71692, Note_on_c, 4, 65, 0
6, 71700, Note_on_c, 4, 65, 80
6, 71752, Note_on_c, 4, 65, 0
6, 71760, Note_on_c, 4, 67, 80
6, 71812, Note_on_c, 4, 67, 0
6, 71820, Note_on_c, 4, 67, 80
6, 71872, Note_on_c, 4, 67, 0
6, 71940, Note_on_c, 4, 68, 80
6, 71992, Note_on_c, 4, 68, 0
6, 72000, Note_on_c, 4, 63, 80
6, 72052, Note_on_c, 4, 63, 0
6, 72060, Note_on_c, 4, 63, 80
6, 72112, Note_on_c, 4, 63, 0
6, 72120, Note_on_c, 4, 65, 80
6, 72172, Note_on_c, 4, 65, 0
6, 72180, Note_on_c, 4, 65, 80
6, 72232, Note_on_c, 4, 65, 0
6, 72300, Note_on_c, 4, 67, 80
6, 72352, Note_on_c, 4, 67, 0
6, 72360, Note_on_c, 4, 62, 80
6, 72412, Note_on_c, 4, 62, 0
6, 72420, Note_on_c, 4, 62, 80
6, 72472, Note_on_c, 4, 62, 0
6, 72480, Note_on_c, 4, 63, 80
6, 72532, Note_on_c, 4, 63, 0
6, 72540, Note_on_c, 4, 63, 80
6, 72592, Note_on_c, 4, 63, 0
6, 72660, Note_on_c, 4, 65, 80
6, 72712, Note_on_c, 4, 65, 0
6, 72720, Note_on_c, 4, 60, 80
6, 72772, Note_on_c, 4, 60, 0
6, 72780, Note_on_c, 4, 60, 80
6, 72832, Note_on_c, 4, 60, 0
6, 72840, Note_on_c, 4, 62, 80
6, 72892, Note_on_c, 4, 62, 0
6, 72900, Note_on_c, 4, 62, 80
6, 72952, Note_on_c, 4, 62, 0
6, 72960, Note_on_c, 4, 63, 80
6, 73012, Note_on_c, 4, 63, 0
6, 73020, Note_on_c, 4, 58, 80
6, 73072, Note_on_c, 4, 58, 0
6, 73080, Note_on_c, 4, 63, 80
6, 73185, Note_on_c, 4, 63, 0
6, 74996, Control_c, 4, 7, 119
6, 75000, Note_on_c, 4, 58, 80
6, 75105, Note_on_c, 4, 58, 0
6, 75120, Note_on_c, 4, 65, 80
6, 75345, Note_on_c, 4, 65, 0
6, 75360, Note_on_c, 4, 62, 80
6, 75465, Note_on_c, 4, 62, 0
6, 75480, Note_on_c, 4, 63, 80
6, 75705, Note_on_c, 4, 63, 0
6, 75720, Note_on_c, 4, 65, 80
6, 75825, Note_on_c, 4, 65, 0
6, 75840, Note_on_c, 4, 67, 80
6, 76065, Note_on_c, 4, 67, 0
6, 76080, Note_on_c, 4, 63, 80
6, 76185, Note_on_c, 4, 63, 0
6, 76200, Note_on_c, 4, 65, 80
6, 76305, Note_on_c, 4, 65, 0
6, 76350, Note_on_c, 4, 68, 80
6, 76376, Note_on_c, 4, 68, 0
6, 76380, Note_on_c, 4, 67, 80
6, 76406, Note_on_c, 4, 67, 0
6, 76410, Note_on_c, 4, 68, 80
6, 76436, Note_on_c, 4, 68, 0
6, 76440, Note_on_c, 4, 65, 80
6, 76466, Note_on_c, 4, 65, 0
6, 76470, Note_on_c, 4, 70, 80
6, 76496, Note_on_c, 4, 70, 0
6, 76500, Note_on_c, 4, 68, 80
6, 76526, Note_on_c, 4, 68, 0
6, 76530, Note_on_c, 4, 70, 80
6, 76556, Note_on_c, 4, 70, 0
6, 76560, Note_on_c, 4, 67, 80
6, 76665, Note_on_c, 4, 67, 0
6, 76710, Note_on_c, 4, 73, 80
6, 76736, Note_on_c, 4, 73, 0
6, 76740, Note_on_c, 4, 72, 80
6, 76766, Note_on_c, 4, 72, 0
6, 76770, Note_on_c, 4, 73, 80
6, 76796, Note_on_c, 4, 73, 0
6, 76800, Note_on_c, 4, 70, 80
6, 76826, Note_on_c, 4, 70, 0
6, 76830, Note_on_c, 4, 75, 80
6, 76856, Note_on_c, 4, 75, 0
6, 76860, Note_on_c, 4, 73, 80
6, 76886, Note_on_c, 4, 73, 0
6, 76890, Note_on_c, 4, 75, 80
6, 76916, Note_on_c, 4, 75, 0
6, 76920, Note_on_c, 4, 72, 80
6, 77025, Note_on_c, 4, 72, 0
6, 77070, Note_on_c, 4, 70, 80
6, 77096, Note_on_c, 4, 70, 0
6, 77100, Note_on_c, 4, 68, 80
6, 77126, Note_on_c, 4, 68, 0
6, 77130, Note_on_c, 4, 70, 80
6, 77156, Note_on_c, 4, 70, 0
6, 77160, Note_on_c, 4, 67, 80
6, 77186, Note_on_c, 4, 67, 0
6, 77190, Note_on_c, 4, 72, 80
6, 77216, Note_on_c, 4, 72, 0
6, 77220, Note_on_c, 4, 70, 80
6, 77246, Note_on_c, 4, 70, 0
6, 77250, Note_on_c, 4, 72, 80
6, 77276, Note_on_c, 4, 72, 0
6, 77280, Note_on_c, 4, 68, 80
6, 77332, Note_on_c, 4, 68, 0
6, 77340, Note_on_c, 4, 72, 80
6, 77392, Note_on_c, 4, 72, 0
6, 77400, Note_on_c, 4, 71, 80
6, 77452, Note_on_c, 4, 71, 0
6, 77460, Note_on_c, 4, 71, 80
6, 77512, Note_on_c, 4, 71, 0
6, 77520, Note_on_c, 4, 72, 80
6, 77572, Note_on_c, 4, 72, 0
6, 77580, Note_on_c, 4, 72, 80
6, 77632, Note_on_c, 4, 72, 0
6, 77670, Note_on_c, 4, 74, 80
6, 77696, Note_on_c, 4, 74, 0
6, 77700, Note_on_c, 4, 72, 80
6, 77726, Note_on_c, 4, 72, 0
6, 77730, Note_on_c, 4, 74, 80
6, 77756, Note_on_c, 4, 74, 0
6, 77760, Note_on_c, 4, 69, 80
6, 77812, Note_on_c, 4, 69, 0
6, 77820, Note_on_c, 4, 69, 80
6, 77872, Note_on_c, 4, 69, 0
6, 77880, Note_on_c, 4, 71, 80
6, 77932, Note_on_c, 4, 71, 0
6, 77940, Note_on_c, 4, 71, 80
6, 77992, Note_on_c, 4, 71, 0
6, 78030, Note_on_c, 4, 72, 80
6, 78056, Note_on_c, 4, 72, 0
6, 78060, Note_on_c, 4, 70, 80
6, 78086, Note_on_c, 4, 70, 0
6, 78090, Note_on_c, 4, 72, 80
6, 78116, Note_on_c, 4, 72, 0
6, 78150, Note_on_c, 4, 72, 80
6, 78176, Note_on_c, 4, 72, 0
6, 78180, Note_on_c, 4, 70, 80
6, 78206, Note_on_c, 4, 70, 0
6, 78210, Note_on_c, 4, 72, 80
6, 78236, Note_on_c, 4, 72, 0
6, 78270, Note_on_c, 4, 72, 80
6, 78296, Note_on_c, 4, 72, 0
6, 78300, Note_on_c, 4, 70, 80
6, 78326, Note_on_c, 4, 70, 0
6, 78330, Note_on_c, 4, 72, 80
6, 78356, Note_on_c, 4, 72, 0
6, 78390, Note_on_c, 4, 70, 80
6, 78416, Note_on_c, 4, 70, 0
6, 78420, Note_on_c, 4, 69, 80
6, 78446, Note_on_c, 4, 69, 0
6, 78450, Note_on_c, 4, 70, 80
6, 78476, Note_on_c, 4, 70, 0
6, 78510, Note_on_c, 4, 69, 80
6, 78536, Note_on_c, 4, 69, 0
6, 78540, Note_on_c, 4, 67, 80
6, 78566, Note_on_c, 4, 67, 0
6, 78570, Note_on_c, 4, 69, 80
6, 78596, Note_on_c, 4, 69, 0
6, 78630, Note_on_c, 4, 69, 80
6, 78656, Note_on_c, 4, 69, 0
6, 78660, Note_on_c, 4, 67, 80
6, 78686, Note_on_c, 4, 67, 0
6, 78690, Note_on_c, 4, 69, 80
6, 78716, Note_on_c, 4, 69, 0
6, 78750, Note_on_c, 4, 67, 80
6, 78776, Note_on_c, 4, 67, 0
6, 78780, Note_on_c, 4, 66, 80
6, 78806, Note_on_c, 4, 66, 0
6, 78810, Note_on_c, 4, 67, 80
6, 78836, Note_on_c, 4, 67, 0
6, 78870, Note_on_c, 4, 67, 80
6, 78896, Note_on_c, 4, 67, 0
6, 78900, Note_on_c, 4, 66, 80
6, 78926, Note_on_c, 4, 66, 0
6, 78930, Note_on_c, 4, 67, 80
6, 78956, Note_on_c, 4, 67, 0
6, 78990, Note_on_c, 4, 69, 80
6, 79016, Note_on_c, 4, 69, 0
6, 79020, Note_on_c, 4, 67, 80
6, 79046, Note_on_c, 4, 67, 0
6, 79050, Note_on_c, 4, 69, 80
6, 79076, Note_on_c, 4, 69, 0
6, 79110, Note_on_c, 4, 66, 80
6, 79136, Note_on_c, 4, 66, 0
6, 79140, Note_on_c, 4, 64, 80
6, 79166, Note_on_c, 4, 64, 0
6, 79170, Note_on_c, 4, 66, 80
6, 79196, Note_on_c, 4, 66, 0
6, 79230, Note_on_c, 4, 66, 80
6, 79256, Note_on_c, 4, 66, 0
6, 79260, Note_on_c, 4, 64, 80
6, 79286, Note_on_c, 4, 64, 0
6, 79290, Note_on_c, 4, 66, 80
6, 79316, Note_on_c, 4, 66, 0
6, 79320, Note_on_c, 4, 67, 80
6, 79492, Note_on_c, 4, 67, 0
6, 79500, Note_on_c, 4, 70, 80
6, 79552, Note_on_c, 4, 70, 0
6, 79560, Note_on_c, 4, 66, 80
6, 79612, Note_on_c, 4, 66, 0
6, 79620, Note_on_c, 4, 66, 80
6, 79672, Note_on_c, 4, 66, 0
6, 79680, Note_on_c, 4, 67, 80
6, 79732, Note_on_c, 4, 67, 0
6, 79740, Note_on_c, 4, 67, 80
6, 79792, Note_on_c, 4, 67, 0
6, 79860, Note_on_c, 4, 75, 80
6, 79912, Note_on_c, 4, 75, 0
6, 79920, Note_on_c, 4, 69, 80
6, 79972, Note_on_c, 4, 69, 0
6, 79980, Note_on_c, 4, 69, 80
6, 80032, Note_on_c, 4, 69, 0
6, 80040, Note_on_c, 4, 70, 80
6, 80092, Note_on_c, 4, 70, 0
6, 80100, Note_on_c, 4, 70, 80
6, 80152, Note_on_c, 4, 70, 0
6, 80220, Note_on_c, 4, 72, 80
6, 80272, Note_on_c, 4, 72, 0
6, 80280, Note_on_c, 4, 67, 80
6, 80332, Note_on_c, 4, 67, 0
6, 80340, Note_on_c, 4, 67, 80
6, 80392, Note_on_c, 4, 67, 0
6, 80400, Note_on_c, 4, 69, 80
6, 80452, Note_on_c, 4, 69, 0
6, 80460, Note_on_c, 4, 69, 80
6, 80512, Note_on_c, 4, 69, 0
6, 80580, Note_on_c, 4, 70, 80
6, 80632, Note_on_c, 4, 70, 0
6, 80640, Note_on_c, 4, 66, 80
6, 80666, Note_on_c, 4, 66, 0
6, 80670, Note_on_c, 4, 69, 80
6, 80696, Note_on_c, 4, 69, 0
6, 80700, Note_on_c, 4, 67, 80
6, 80726, Note_on_c, 4, 67, 0
6, 80730, Note_on_c, 4, 70, 80
6, 80756, Note_on_c, 4, 70, 0
6, 80760, Note_on_c, 4, 69, 80
6, 80786, Note_on_c, 4, 69, 0
6, 80790, Note_on_c, 4, 72, 80
6, 80816, Note_on_c, 4, 72, 0
6, 80820, Note_on_c, 4, 70, 80
6, 80846, Note_on_c, 4, 70, 0
6, 80850, Note_on_c, 4, 69, 80
6, 80876, Note_on_c, 4, 69, 0
6, 80880, Note_on_c, 4, 70, 80
6, 81146, Note_on_c, 4, 70, 0
6, 81150, Note_on_c, 4, 72, 80
6, 81176, Note_on_c, 4, 72, 0
6, 81180, Note_on_c, 4, 67, 80
6, 81206, Note_on_c, 4, 67, 0
6, 81210, Note_on_c, 4, 70, 80
6, 81236, Note_on_c, 4, 70, 0
6, 81240, Note_on_c, 4, 69, 80
6, 81506, Note_on_c, 4, 69, 0
6, 81510, Note_on_c, 4, 70, 80
6, 81536, Note_on_c, 4, 70, 0
6, 81540, Note_on_c, 4, 66, 80
6, 81566, Note_on_c, 4, 66, 0
6, 81570, Note_on_c, 4, 69, 80
6, 81596, Note_on_c, 4, 69, 0
6, 81600, Note_on_c, 4, 67, 80
6, 81866, Note_on_c, 4, 67, 0
6, 81870, Note_on_c, 4, 69, 80
6, 81896, Note_on_c, 4, 69, 0
6, 81900, Note_on_c, 4, 64, 80
6, 81926, Note_on_c, 4, 64, 0
6, 81930, Note_on_c, 4, 67, 80
6, 81956, Note_on_c, 4, 67, 0
6, 81960, Note_on_c, 4, 66, 80
6, 81986, Note_on_c, 4, 66, 0
6, 81990, Note_on_c, 4, 69, 80
6, 82016, Note_on_c, 4, 69, 0
6, 82020, Note_on_c, 4, 66, 80
6, 82046, Note_on_c, 4, 66, 0
6, 82050, Note_on_c, 4, 69, 80
6, 82076, Note_on_c, 4, 69, 0
6, 82080, Note_on_c, 4, 62, 80
6, 82106, Note_on_c, 4, 62, 0
6, 82110, Note_on_c, 4, 66, 80
6, 82136, Note_on_c, 4, 66, 0
6, 82140, Note_on_c, 4, 62, 80
6, 82166, Note_on_c, 4, 62, 0
6, 82170, Note_on_c, 4, 66, 80
6, 82196, Note_on_c, 4, 66, 0
6, 82200, Note_on_c, 4, 67, 80
6, 82252, Note_on_c, 4, 67, 0
6, 82260, Note_on_c, 4, 65, 80
6, 82312, Note_on_c, 4, 65, 0
6, 82320, Note_on_c, 4, 63, 80
6, 82586, Note_on_c, 4, 63, 0
6, 82590, Note_on_c, 4, 67, 80
6, 82616, Note_on_c, 4, 67, 0
6, 82620, Note_on_c, 4, 65, 80
6, 82646, Note_on_c, 4, 65, 0
6, 82650, Note_on_c, 4, 63, 80
6, 82676, Note_on_c, 4, 63, 0
6, 82680, Note_on_c, 4, 62, 80
6, 82706, Note_on_c, 4, 62, 0
6, 82710, Note_on_c, 4, 65, 80
6, 82736, Note_on_c, 4, 65, 0
6, 82740, Note_on_c, 4, 63, 80
6, 82766, Note_on_c, 4, 63, 0
6, 82770, Note_on_c, 4, 67, 80
6, 82796, Note_on_c, 4, 67, 0
6, 82800, Note_on_c, 4, 65, 80
6, 82826, Note_on_c, 4, 65, 0
6, 82830, Note_on_c, 4, 67, 80
6, 82856, Note_on_c, 4, 67, 0
6, 82860, Note_on_c, 4, 65, 80
6, 82886, Note_on_c, 4, 65, 0
6, 82890, Note_on_c, 4, 68, 80
6, 82916, Note_on_c, 4, 68, 0
6, 82920, Note_on_c, 4, 62, 80
6, 83145, Note_on_c, 4, 62, 0
6, 83160, Note_on_c, 4, 60, 80
6, 83306, Note_on_c, 4, 60, 0
6, 83310, Note_on_c, 4, 63, 80
6, 83336, Note_on_c, 4, 63, 0
6, 83340, Note_on_c, 4, 62, 80
6, 83366, Note_on_c, 4, 62, 0
6, 83370, Note_on_c, 4, 65, 80
6, 83396, Note_on_c, 4, 65, 0
6, 83400, Note_on_c, 4, 59, 80
6, 83426, Note_on_c, 4, 59, 0
6, 83430, Note_on_c, 4, 62, 80
6, 83456, Note_on_c, 4, 62, 0
6, 83460, Note_on_c, 4, 60, 80
6, 83486, Note_on_c, 4, 60, 0
6, 83490, Note_on_c, 4, 63, 80
6, 83516, Note_on_c, 4, 63, 0
6, 83520, Note_on_c, 4, 62, 80
6, 83546, Note_on_c, 4, 62, 0
6, 83550, Note_on_c, 4, 63, 80
6, 83576, Note_on_c, 4, 63, 0
6, 83580, Note_on_c, 4, 60, 80
6, 83606, Note_on_c, 4, 60, 0
6, 83610, Note_on_c, 4, 62, 80
6, 83636, Note_on_c, 4, 62, 0
6, 83640, Note_on_c, 4, 63, 80
6, 83666, Note_on_c, 4, 63, 0
6, 83670, Note_on_c, 4, 65, 80
6, 83696, Note_on_c, 4, 65, 0
6, 83700, Note_on_c, 4, 62, 80
6, 83726, Note_on_c, 4, 62, 0
6, 83730, Note_on_c, 4, 64, 80
6, 83756, Note_on_c, 4, 64, 0
6, 83760, Note_on_c, 4, 65, 80
6, 83786, Note_on_c, 4, 65, 0
6, 83790, Note_on_c, 4, 68, 80
6, 83816, Note_on_c, 4, 68, 0
6, 83820, Note_on_c, 4, 67, 80
6, 83846, Note_on_c, 4, 67, 0
6, 83850, Note_on_c, 4, 70, 80
6, 83876, Note_on_c, 4, 70, 0
6, 83880, Note_on_c, 4, 68, 80
6, 83906, Note_on_c, 4, 68, 0
6, 83910, Note_on_c, 4, 60, 80
6, 83936, Note_on_c, 4, 60, 0
6, 83940, Note_on_c, 4, 68, 80
6, 83966, Note_on_c, 4, 68, 0
6, 83970, Note_on_c, 4, 67, 80
6, 83996, Note_on_c, 4, 67, 0
6, 84000, Note_on_c, 4, 65, 80
6, 84026, Note_on_c, 4, 65, 0
6, 84030, Note_on_c, 4, 63, 80
6, 84056, Note_on_c, 4, 63, 0
6, 84060, Note_on_c, 4, 62, 80
6, 84086, Note_on_c, 4, 62, 0
6, 84090, Note_on_c, 4, 60, 80
6, 84116, Note_on_c, 4, 60, 0
6, 84120, Note_on_c, 4, 59, 80
6, 84146, Note_on_c, 4, 59, 0
6, 84150, Note_on_c, 4, 62, 80
6, 84176, Note_on_c, 4, 62, 0
6, 84180, Note_on_c, 4, 60, 80
6, 84206, Note_on_c, 4, 60, 0
6, 84210, Note_on_c, 4, 63, 80
6, 84236, Note_on_c, 4, 63, 0
6, 84240, Note_on_c, 4, 62, 80
6, 84266, Note_on_c, 4, 62, 0
6, 84270, Note_on_c, 4, 65, 80
6, 84296, Note_on_c, 4, 65, 0
6, 84300, Note_on_c, 4, 63, 80
6, 84326, Note_on_c, 4, 63, 0
6, 84330, Note_on_c, 4, 62, 80
6, 84356, Note_on_c, 4, 62, 0
6, 84360, Note_on_c, 4, 60, 80
6, 84386, Note_on_c, 4, 60, 0
6, 84390, Note_on_c, 4, 72, 80
6, 84416, Note_on_c, 4, 72, 0
6, 84420, Note_on_c, 4, 70, 80
6, 84446, Note_on_c, 4, 70, 0
6, 84450, Note_on_c, 4, 72, 80
6, 84476, Note_on_c, 4, 72, 0
6, 84480, Note_on_c, 4, 68, 80
6, 84506, Note_on_c, 4, 68, 0
6, 84510, Note_on_c, 4, 72, 80
6, 84536, Note_on_c, 4, 72, 0
6, 84540, Note_on_c, 4, 68, 80
6, 84566, Note_on_c, 4, 68, 0
6, 84570, Note_on_c, 4, 72, 80
6, 84596, Note_on_c, 4, 72, 0
6, 84600, Note_on_c, 4, 68, 80
6, 84626, Note_on_c, 4, 68, 0
6, 84630, Note_on_c, 4, 70, 80
6, 84656, Note_on_c, 4, 70, 0
6, 84660, Note_on_c, 4, 68, 80
6, 84686, Note_on_c, 4, 68, 0
6, 84690, Note_on_c, 4, 70, 80
6, 84716, Note_on_c, 4, 70, 0
6, 84720, Note_on_c, 4, 67, 80
6, 84746, Note_on_c, 4, 67, 0
6, 84750, Note_on_c, 4, 70, 80
6, 84776, Note_on_c, 4, 70, 0
6, 84780, Note_on_c, 4, 67, 80
6, 84806, Note_on_c, 4, 67, 0
6, 84810, Note_on_c, 4, 70, 80
6, 84836, Note_on_c, 4, 70, 0
6, 84840, Note_on_c, 4, 65, 80
6, 84866, Note_on_c, 4, 65, 0
6, 84870, Note_on_c, 4, 68, 80
6, 84896, Note_on_c, 4, 68, 0
6, 84900, Note_on_c, 4, 67, 80
6, 84926, Note_on_c, 4, 67, 0
6, 84930, Note_on_c, 4, 70, 80
6, 84956, Note_on_c, 4, 70, 0
6, 84960, Note_on_c, 4, 68, 80
6, 84986, Note_on_c, 4, 68, 0
6, 84990, Note_on_c, 4, 70, 80
6, 85016, Note_on_c, 4, 70, 0
6, 85020, Note_on_c, 4, 67, 80
6, 85046, Note_on_c, 4, 67, 0
6, 85050, Note_on_c, 4, 68, 80
6, 85076, Note_on_c, 4, 68, 0
6, 85080, Note_on_c, 4, 70, 80
6, 85106, Note_on_c, 4, 70, 0
6, 85110, Note_on_c, 4, 72, 80
6, 85136, Note_on_c, 4, 72, 0
6, 85140, Note_on_c, 4, 68, 80
6, 85166, Note_on_c, 4, 68, 0
6, 85170, Note_on_c, 4, 70, 80
6, 85196, Note_on_c, 4, 70, 0
6, 85200, Note_on_c, 4, 67, 80
6, 85226, Note_on_c, 4, 67, 0
6, 85230, Note_on_c, 4, 67, 80
6, 85256, Note_on_c, 4, 67, 0
6, 85260, Note_on_c, 4, 65, 80
6, 85286, Note_on_c, 4, 65, 0
6, 85290, Note_on_c, 4, 67, 80
6, 85316, Note_on_c, 4, 67, 0
6, 85350, Note_on_c, 4, 68, 80
6, 85376, Note_on_c, 4, 68, 0
6, 85380, Note_on_c, 4, 67, 80
6, 85406, Note_on_c, 4, 67, 0
6, 85410, Note_on_c, 4, 68, 80
6, 85436, Note_on_c, 4, 68, 0
6, 85470, Note_on_c, 4, 65, 80
6, 85496, Note_on_c, 4, 65, 0
6, 85500, Note_on_c, 4, 63, 80
6, 85526, Note_on_c, 4, 63, 0
6, 85530, Note_on_c, 4, 65, 80
6, 85556, Note_on_c, 4, 65, 0
6, 85590, Note_on_c, 4, 67, 80
6, 85616, Note_on_c, 4, 67, 0
6, 85620, Note_on_c, 4, 68, 80
6, 85646, Note_on_c, 4, 68, 0
6, 85650, Note_on_c, 4, 67, 80
6, 85676, Note_on_c, 4, 67, 0
6, 85710, Note_on_c, 4, 65, 80
6, 85736, Note_on_c, 4, 65, 0
6, 85740, Note_on_c, 4, 63, 80
6, 85766, Note_on_c, 4, 63, 0
6, 85770, Note_on_c, 4, 65, 80
6, 85796, Note_on_c, 4, 65, 0
6, 85830, Note_on_c, 4, 62, 80
6, 85856, Note_on_c, 4, 62, 0
6, 85860, Note_on_c, 4, 60, 80
6, 85886, Note_on_c, 4, 60, 0
6, 85890, Note_on_c, 4, 62, 80
6, 85916, Note_on_c, 4, 62, 0
6, 85920, Note_on_c, 4, 63, 80
6, 85972, Note_on_c, 4, 63, 0
6, 85980, Note_on_c, 4, 65, 80
6, 86032, Note_on_c, 4, 65, 0
6, 86040, Note_on_c, 4, 67, 80
6, 86092, Note_on_c, 4, 67, 0
6, 86100, Note_on_c, 4, 69, 80
6, 86152, Note_on_c, 4, 69, 0
6, 86160, Note_on_c, 4, 70, 80
6, 86212, Note_on_c, 4, 70, 0
6, 86220, Note_on_c, 4, 72, 80
6, 86272, Note_on_c, 4, 72, 0
6, 86280, Note_on_c, 4, 74, 80
6, 86332, Note_on_c, 4, 74, 0
6, 86340, Note_on_c, 4, 75, 80
6, 86392, Note_on_c, 4, 75, 0
6, 86400, Note_on_c, 4, 77, 80
6, 86452, Note_on_c, 4, 77, 0
6, 86460, Note_on_c, 4, 79, 80
6, 86512, Note_on_c, 4, 79, 0
6, 86520, Note_on_c, 4, 80, 80
6, 86572, Note_on_c, 4, 80, 0
6, 86580, Note_on_c, 4, 82, 80
6, 86632, Note_on_c, 4, 82, 0
6, 86640, Note_on_c, 4, 84, 80
6, 86692, Note_on_c, 4, 84, 0
6, 86700, Note_on_c, 4, 62, 80
6, 86752, Note_on_c, 4, 62, 0
6, 86760, Note_on_c, 4, 63, 80
6, 86812, Note_on_c, 4, 63, 0
6, 86820, Note_on_c, 4, 65, 80
6, 86872, Note_on_c, 4, 65, 0
6, 86880, Note_on_c, 4, 67, 80
6, 86932, Note_on_c, 4, 67, 0
6, 86940, Note_on_c, 4, 68, 80
6, 86992, Note_on_c, 4, 68, 0
6, 87000, Note_on_c, 4, 70, 80
6, 87052, Note_on_c, 4, 70, 0
6, 87060, Note_on_c, 4, 72, 80
6, 87112, Note_on_c, 4, 72, 0
6, 87120, Note_on_c, 4, 74, 80
6, 87172, Note_on_c, 4, 74, 0
6, 87180, Note_on_c, 4, 75, 80
6, 87232, Note_on_c, 4, 75, 0
6, 87240, Note_on_c, 4, 77, 80
6, 87292, Note_on_c, 4, 77, 0
6, 87300, Note_on_c, 4, 79, 80
6, 87352, Note_on_c, 4, 79, 0
6, 87360, Note_on_c, 4, 80, 80
6, 87412, Note_on_c, 4, 80, 0
6, 87420, Note_on_c, 4, 58, 80
6, 87472, Note_on_c, 4, 58, 0
6, 87480, Note_on_c, 4, 60, 80
6, 87532, Note_on_c, 4, 60, 0
6, 87540, Note_on_c, 4, 62, 80
6, 87592, Note_on_c, 4, 62, 0
6, 87600, Note_on_c, 4, 63, 80
6, 87652, Note_on_c, 4, 63, 0
6, 87660, Note_on_c, 4, 65, 80
6, 87712, Note_on_c, 4, 65, 0
6, 87720, Note_on_c, 4, 67, 80
6, 87885, Note_on_c, 4, 67, 0
6, 87900, Note_on_c, 4, 67, 80
6, 87952, Note_on_c, 4, 67, 0
6, 87960, Note_on_c, 4, 69, 80
6, 87986, Note_on_c, 4, 69, 0
6, 87990, Note_on_c, 4, 70, 80
6, 88016, Note_on_c, 4, 70, 0
6, 88020, Note_on_c, 4, 67, 80
6, 88046, Note_on_c, 4, 67, 0
6, 88050, Note_on_c, 4, 69, 80
6, 88076, Note_on_c, 4, 69, 0
6, 88080, Note_on_c, 4, 66, 80
6, 88106, Note_on_c, 4, 66, 0
6, 88110, Note_on_c, 4, 67, 80
6, 88136, Note_on_c, 4, 67, 0
6, 88140, Note_on_c, 4, 64, 80
6, 88166, Note_on_c, 4, 64, 0
6, 88170, Note_on_c, 4, 66, 80
6, 88196, Note_on_c, 4, 66, 0
6, 88200, Note_on_c, 4, 62, 80
6, 88466, Note_on_c, 4, 62, 0
6, 88470, Note_on_c, 4, 69, 80
6, 88496, Note_on_c, 4, 69, 0
6, 88500, Note_on_c, 4, 67, 80
6, 88526, Note_on_c, 4, 67, 0
6, 88530, Note_on_c, 4, 70, 80
6, 88556, Note_on_c, 4, 70, 0
6, 88560, Note_on_c, 4, 69, 80
6, 88586, Note_on_c, 4, 69, 0
6, 88590, Note_on_c, 4, 72, 80
6, 88616, Note_on_c, 4, 72, 0
6, 88620, Note_on_c, 4, 70, 80
6, 88646, Note_on_c, 4, 70, 0
6, 88650, Note_on_c, 4, 69, 80
6, 88676, Note_on_c, 4, 69, 0
6, 88680, Note_on_c, 4, 67, 80
6, 88732, Note_on_c, 4, 67, 0
6, 88740, Note_on_c, 4, 62, 80
6, 88792, Note_on_c, 4, 62, 0
6, 88800, Note_on_c, 4, 67, 80
6, 88905, Note_on_c, 4, 67, 0
6, 88920, Note_on_c, 4, 65, 80
6, 89025, Note_on_c, 4, 65, 0
6, 89040, Note_on_c, 4, 65, 80
6, 89145, Note_on_c, 4, 65, 0
6, 89160, Note_on_c, 4, 63, 80
6, 89212, Note_on_c, 4, 63, 0
6, 89220, Note_on_c, 4, 65, 80
6, 89272, Note_on_c, 4, 65, 0
6, 89280, Note_on_c, 4, 67, 80
6, 89332, Note_on_c, 4, 67, 0
6, 89340, Note_on_c, 4, 70, 80
6, 89392, Note_on_c, 4, 70, 0
6, 89400, Note_on_c, 4, 69, 80
6, 89452, Note_on_c, 4, 69, 0
6, 89460, Note_on_c, 4, 67, 80
6, 89512, Note_on_c, 4, 67, 0
6, 89520, Note_on_c, 4, 66, 80
6, 89546, Note_on_c, 4, 66, 0
6, 89550, Note_on_c, 4, 69, 80
6, 89576, Note_on_c, 4, 69, 0
6, 89580, Note_on_c, 4, 67, 80
6, 89606, Note_on_c, 4, 67, 0
6, 89610, Note_on_c, 4, 70, 80
6, 89636, Note_on_c, 4, 70, 0
6, 89640, Note_on_c, 4, 69, 80
6, 89692, Note_on_c, 4, 69, 0
6, 89700, Note_on_c, 4, 66, 80
6, 89752, Note_on_c, 4, 66, 0
6, 89760, Note_on_c, 4, 67, 80
6, 89932, Note_on_c, 4, 67, 0
6, 89940, Note_on_c, 4, 67, 80
6, 89992, Note_on_c, 4, 67, 0
6, 90000, Note_on_c, 4, 69, 80
6, 90105, Note_on_c, 4, 69, 0
6, 90120, Note_on_c, 4, 67, 80
6, 90292, Note_on_c, 4, 67, 0
6, 90300, Note_on_c, 4, 65, 80
6, 90405, Note_on_c, 4, 65, 0
6, 90420, Note_on_c, 4, 63, 80
6, 90525, Note_on_c, 4, 63, 0
6, 90540, Note_on_c, 4, 62, 80
6, 90652, Note_on_c, 4, 62, 0
6, 90660, Note_on_c, 4, 62, 80
6, 90712, Note_on_c, 4, 62, 0
6, 90720, Note_on_c, 4, 63, 80
6, 90825, Note_on_c, 4, 63, 0
6, 90840, Note_on_c, 4, 62, 80
6, 90892, Note_on_c, 4, 62, 0
6, 90900, Note_on_c, 4, 60, 80
6, 90952, Note_on_c, 4, 60, 0
6, 90960, Note_on_c, 4, 59, 80
6, 91012, Note_on_c, 4, 59, 0
6, 91020, Note_on_c, 4, 60, 80
6, 91072, Note_on_c, 4, 60, 0
6, 91080, Note_on_c, 4, 62, 80
6, 91252, Note_on_c, 4, 62, 0
6, 91260, Note_on_c, 4, 67, 80
6, 91312, Note_on_c, 4, 67, 0
6, 91320, Note_on_c, 4, 67, 80
6, 91425, Note_on_c, 4, 67, 0
6, 91440, Note_on_c, 4, 72, 80
6, 91605, Note_on_c, 4, 72, 0
6, 91620, Note_on_c, 4, 72, 80
6, 91672, Note_on_c, 4, 72, 0
6, 91680, Note_on_c, 4, 72, 80
6, 91785, Note_on_c, 4, 72, 0
6, 91950, Note_on_c, 4, 72, 80
6, 91976, Note_on_c, 4, 72, 0
6, 91980, Note_on_c, 4, 70, 80
6, 92006, Note_on_c, 4, 70, 0
6, 92010, Note_on_c, 4, 68, 80
6, 92036, Note_on_c, 4, 68, 0
6, 92040, Note_on_c, 4, 67, 80
6, 92092, Note_on_c, 4, 67, 0
6, 92100, Note_on_c, 4, 68, 80
6, 92152, Note_on_c, 4, 68, 0
6, 92160, Note_on_c, 4, 64, 80
6, 92212, Note_on_c, 4, 64, 0
6, 92220, Note_on_c, 4, 64, 80
6, 92272, Note_on_c, 4, 64, 0
6, 92280, Note_on_c, 4, 65, 80
6, 92332, Note_on_c, 4, 65, 0
6, 92340, Note_on_c, 4, 65, 80
6, 92392, Note_on_c, 4, 65, 0
6, 92460, Note_on_c, 4, 73, 80
6, 92512, Note_on_c, 4, 73, 0
6, 92520, Note_on_c, 4, 67, 80
6, 92572, Note_on_c, 4, 67, 0
6, 92580, Note_on_c, 4, 67, 80
6, 92632, Note_on_c, 4, 67, 0
6, 92640, Note_on_c, 4, 69, 80
6, 92692, Note_on_c, 4, 69, 0
6, 92700, Note_on_c, 4, 69, 80
6, 92752, Note_on_c, 4, 69, 0
6, 92820, Note_on_c, 4, 70, 80
6, 92872, Note_on_c, 4, 70, 0
6, 92880, Note_on_c, 4, 65, 80
6, 92932, Note_on_c, 4, 65, 0
6, 92940, Note_on_c, 4, 65, 80
6, 92992, Note_on_c, 4, 65, 0
6, 93000, Note_on_c, 4, 67, 80
6, 93052, Note_on_c, 4, 67, 0
6, 93060, Note_on_c, 4, 67, 80
6, 93112, Note_on_c, 4, 67, 0
6, 93120, Note_on_c, 4, 68, 80
6, 93172, Note_on_c, 4, 68, 0
6, 93180, Note_on_c, 4, 70, 80
6, 93206, Note_on_c, 4, 70, 0
6, 93210, Note_on_c, 4, 68, 80
6, 93236, Note_on_c, 4, 68, 0
6, 93240, Note_on_c, 4, 67, 80
6, 93405, Note_on_c, 4, 67, 0
6, 93420, Note_on_c, 4, 67, 80
6, 93472, Note_on_c, 4, 67, 0
6, 93480, Note_on_c, 4, 72, 80
6, 93645, Note_on_c, 4, 72, 0
6, 93660, Note_on_c, 4, 73, 80
6, 93712, Note_on_c, 4, 73, 0
6, 93720, Note_on_c, 4, 64, 80
6, 93825, Note_on_c, 4, 64, 0
6, 93840, Note_on_c, 4, 65, 80
6, 93892, Note_on_c, 4, 65, 0
6, 93900, Note_on_c, 4, 70, 80
6, 94005, Note_on_c, 4, 70, 0
6, 94020, Note_on_c, 4, 72, 80
6, 94072, Note_on_c, 4, 72, 0
6, 94080, Note_on_c, 4, 73, 80
6, 94252, Note_on_c, 4, 73, 0
6, 94260, Note_on_c, 4, 70, 80
6, 94312, Note_on_c, 4, 70, 0
6, 94320, Note_on_c, 4, 72, 80
6, 94586, Note_on_c, 4, 72, 0
6, 94590, Note_on_c, 4, 74, 80
6, 94616, Note_on_c, 4, 74, 0
6, 94620, Note_on_c, 4, 70, 80
6, 94646, Note_on_c, 4, 70, 0
6, 94650, Note_on_c, 4, 72, 80
6, 94676, Note_on_c, 4, 72, 0
6, 94680, Note_on_c, 4, 69, 80
6, 94706, Note_on_c, 4, 69, 0
6, 94710, Note_on_c, 4, 72, 80
6, 94736, Note_on_c, 4, 72, 0
6, 94740, Note_on_c, 4, 70, 80
6, 94766, Note_on_c, 4, 70, 0
6, 94770, Note_on_c, 4, 69, 80
6, 94796, Note_on_c, 4, 69, 0
6, 94800, Note_on_c, 4, 67, 80
6, 94905, Note_on_c, 4, 67, 0
6, 94950, Note_on_c, 4, 69, 80
6, 94976, Note_on_c, 4, 69, 0
6, 94980, Note_on_c, 4, 67, 80
6, 95006, Note_on_c, 4, 67, 0
6, 95010, Note_on_c, 4, 69, 80
6, 95036, Note_on_c, 4, 69, 0
6, 95040, Note_on_c, 4, 66, 80
6, 95145, Note_on_c, 4, 66, 0
6, 95190, Note_on_c, 4, 67, 80
6, 95216, Note_on_c, 4, 67, 0
6, 95220, Note_on_c, 4, 65, 80
6, 95246, Note_on_c, 4, 65, 0
6, 95250, Note_on_c, 4, 67, 80
6, 95276, Note_on_c, 4, 67, 0
6, 95280, Note_on_c, 4, 63, 80
6, 95385, Note_on_c, 4, 63, 0
6, 95430, Note_on_c, 4, 62, 80
6, 95456, Note_on_c, 4, 62, 0
6, 95460, Note_on_c, 4, 60, 80
6, 95486, Note_on_c, 4, 60, 0
6, 95490, Note_on_c, 4, 62, 80
6, 95516, Note_on_c, 4, 62, 0
6, 95520, Note_on_c, 4, 58, 80
6, 95625, Note_on_c, 4, 58, 0
6, 95640, Note_on_c, 4, 60, 80
6, 95745, Note_on_c, 4, 60, 0
6, 95790, Note_on_c, 4, 60, 80
6, 95816, Note_on_c, 4, 60, 0
6, 95820, Note_on_c, 4, 58, 80
6, 95846, Note_on_c, 4, 58, 0
6, 95850, Note_on_c, 4, 60, 80
6, 95876, Note_on_c, 4, 60, 0
6, 95880, Note_on_c, 4, 57, 80
6, 95985, Note_on_c, 4, 57, 0
6, 96000, Note_on_c, 4, 59, 80
6, 96026, Note_on_c, 4, 59, 0
6, 96030, Note_on_c, 4, 62, 80
6, 96056, Note_on_c, 4, 62, 0
6, 96060, Note_on_c, 4, 60, 80
6, 96086, Note_on_c, 4, 60, 0
6, 96090, Note_on_c, 4, 63, 80
6, 96116, Note_on_c, 4, 63, 0
6, 96120, Note_on_c, 4, 62, 80
6, 96146, Note_on_c, 4, 62, 0
6, 96150, Note_on_c, 4, 65, 80
6, 96176, Note_on_c, 4, 65, 0
6, 96180, Note_on_c, 4, 63, 80
6, 96206, Note_on_c, 4, 63, 0
6, 96210, Note_on_c, 4, 67, 80
6, 96236, Note_on_c, 4, 67, 0
6, 96240, Note_on_c, 4, 65, 80
6, 96266, Note_on_c, 4, 65, 0
6, 96270, Note_on_c, 4, 68, 80
6, 96296, Note_on_c, 4, 68, 0
6, 96300, Note_on_c, 4, 67, 80
6, 96326, Note_on_c, 4, 67, 0
6, 96330, Note_on_c, 4, 65, 80
6, 96356, Note_on_c, 4, 65, 0
6, 96360, Note_on_c, 4, 63, 80
6, 96386, Note_on_c, 4, 63, 0
6, 96390, Note_on_c, 4, 67, 80
6, 96416, Note_on_c, 4, 67, 0
6, 96420, Note_on_c, 4, 65, 80
6, 96446, Note_on_c, 4, 65, 0
6, 96450, Note_on_c, 4, 68, 80
6, 96476, Note_on_c, 4, 68, 0
6, 96480, Note_on_c, 4, 67, 80
6, 96506, Note_on_c, 4, 67, 0
6, 96510, Note_on_c, 4, 70, 80
6, 96536, Note_on_c, 4, 70, 0
6, 96540, Note_on_c, 4, 68, 80
6, 96566, Note_on_c, 4, 68, 0
6, 96570, Note_on_c, 4, 72, 80
6, 96596, Note_on_c, 4, 72, 0
6, 96600, Note_on_c, 4, 70, 80
6, 96626, Note_on_c, 4, 70, 0
6, 96630, Note_on_c, 4, 73, 80
6, 96656, Note_on_c, 4, 73, 0
6, 96660, Note_on_c, 4, 72, 80
6, 96686, Note_on_c, 4, 72, 0
6, 96690, Note_on_c, 4, 70, 80
6, 96716, Note_on_c, 4, 70, 0
6, 96720, Note_on_c, 4, 68, 80
6, 96726, Note_on_c, 4, 68, 0
6, 96727, Note_on_c, 4, 70, 80
6, 96734, Note_on_c, 4, 70, 0
6, 96735, Note_on_c, 4, 68, 80
6, 96741, Note_on_c, 4, 68, 0
6, 96742, Note_on_c, 4, 70, 80
6, 96749, Note_on_c, 4, 70, 0
6, 96750, Note_on_c, 4, 68, 80
6, 96756, Note_on_c, 4, 68, 0
6, 96757, Note_on_c, 4, 70, 80
6, 96764, Note_on_c, 4, 70, 0
6, 96765, Note_on_c, 4, 68, 80
6, 96771, Note_on_c, 4, 68, 0
6, 96772, Note_on_c, 4, 70, 80
6, 96779, Note_on_c, 4, 70, 0
6, 96780, Note_on_c, 4, 68, 80
6, 96786, Note_on_c, 4, 68, 0
6, 96787, Note_on_c, 4, 70, 80
6, 96794, Note_on_c, 4, 70, 0
6, 96795, Note_on_c, 4, 68, 80
6, 96801, Note_on_c, 4, 68, 0
6, 96802, Note_on_c, 4, 70, 80
6, 96809, Note_on_c, 4, 70, 0
6, 96810, Note_on_c, 4, 68, 80
6, 96816, Note_on_c, 4, 68, 0
6, 96817, Note_on_c, 4, 70, 80
6, 96824, Note_on_c, 4, 70, 0
6, 96825, Note_on_c, 4, 68, 80
6, 96831, Note_on_c, 4, 68, 0
6, 96832, Note_on_c, 4, 70, 80
6, 96839, Note_on_c, 4, 70, 0
6, 96840, Note_on_c, 4, 68, 80
6, 96846, Note_on_c, 4, 68, 0
6, 96847, Note_on_c, 4, 70, 80
6, 96854, Note_on_c, 4, 70, 0
6, 96855, Note_on_c, 4, 68, 80
6, 96861, Note_on_c, 4, 68, 0
6, 96862, Note_on_c, 4, 70, 80
6, 96869, Note_on_c, 4, 70, 0
6, 96870, Note_on_c, 4, 68, 80
6, 96876, Note_on_c, 4, 68, 0
6, 96877, Note_on_c, 4, 70, 80
6, 96884, Note_on_c, 4, 70, 0
6, 96885, Note_on_c, 4, 68, 80
6, 96891, Note_on_c, 4, 68, 0
6, 96892, Note_on_c, 4, 70, 80
6, 96899, Note_on_c, 4, 70, 0
6, 96900, Note_on_c, 4, 68, 80
6, 96906, Note_on_c, 4, 68, 0
6, 96907, Note_on_c, 4, 70, 80
6, 96914, Note_on_c, 4, 70, 0
6, 96915, Note_on_c, 4, 68, 80
6, 96921, Note_on_c, 4, 68, 0
6, 96922, Note_on_c, 4, 70, 80
6, 96929, Note_on_c, 4, 70, 0
6, 96930, Note_on_c, 4, 68, 80
6, 96936, Note_on_c, 4, 68, 0
6, 96937, Note_on_c, 4, 70, 80
6, 96944, Note_on_c, 4, 70, 0
6, 96945, Note_on_c, 4, 68, 80
6, 96951, Note_on_c, 4, 68, 0
6, 96952, Note_on_c, 4, 70, 80
6, 96959, Note_on_c, 4, 70, 0
6, 96960, Note_on_c, 4, 68, 80
6, 96966, Note_on_c, 4, 68, 0
6, 96967, Note_on_c, 4, 70, 80
6, 96974, Note_on_c, 4, 70, 0
6, 96975, Note_on_c, 4, 68, 80
6, 96981, Note_on_c, 4, 68, 0
6, 96982, Note_on_c, 4, 70, 80
6, 96989, Note_on_c, 4, 70, 0
6, 96990, Note_on_c, 4, 68, 80
6, 96996, Note_on_c, 4, 68, 0
6, 96997, Note_on_c, 4, 70, 80
6, 97004, Note_on_c, 4, 70, 0
6, 97005, Note_on_c, 4, 68, 80
6, 97011, Note_on_c, 4, 68, 0
6, 97012, Note_on_c, 4, 70, 80
6, 97019, Note_on_c, 4, 70, 0
6, 97020, Note_on_c, 4, 68, 80
6, 97026, Note_on_c, 4, 68, 0
6, 97027, Note_on_c, 4, 70, 80
6, 97034, Note_on_c, 4, 70, 0
6, 97035, Note_on_c, 4, 68, 80
6, 97041, Note_on_c, 4, 68, 0
6, 97042, Note_on_c, 4, 70, 80
6, 97049, Note_on_c, 4, 70, 0
6, 97050, Note_on_c, 4, 68, 80
6, 97056, Note_on_c, 4, 68, 0
6, 97057, Note_on_c, 4, 70, 80
6, 97064, Note_on_c, 4, 70, 0
6, 97065, Note_on_c, 4, 68, 80
6, 97071, Note_on_c, 4, 68, 0
6, 97072, Note_on_c, 4, 70, 80
6, 97079, Note_on_c, 4, 70, 0
6, 97080, Note_on_c, 4, 68, 80
6, 97086, Note_on_c, 4, 68, 0
6, 97087, Note_on_c, 4, 70, 80
6, 97094, Note_on_c, 4, 70, 0
6, 97095, Note_on_c, 4, 68, 80
6, 97101, Note_on_c, 4, 68, 0
6, 97102, Note_on_c, 4, 70, 80
6, 97109, Note_on_c, 4, 70, 0
6, 97110, Note_on_c, 4, 68, 80
6, 97116, Note_on_c, 4, 68, 0
6, 97117, Note_on_c, 4, 70, 80
6, 97124, Note_on_c, 4, 70, 0
6, 97125, Note_on_c, 4, 68, 80
6, 97131, Note_on_c, 4, 68, 0
6, 97132, Note_on_c, 4, 70, 80
6, 97139, Note_on_c, 4, 70, 0
6, 97140, Note_on_c, 4, 68, 80
6, 97146, Note_on_c, 4, 68, 0
6, 97147, Note_on_c, 4, 70, 80
6, 97154, Note_on_c, 4, 70, 0
6, 97155, Note_on_c, 4, 68, 80
6, 97161, Note_on_c, 4, 68, 0
6, 97162, Note_on_c, 4, 70, 80
6, 97169, Note_on_c, 4, 70, 0
6, 97170, Note_on_c, 4, 68, 80
6, 97176, Note_on_c, 4, 68, 0
6, 97177, Note_on_c, 4, 70, 80
6, 97184, Note_on_c, 4, 70, 0
6, 97185, Note_on_c, 4, 68, 80
6, 97191, Note_on_c, 4, 68, 0
6, 97192, Note_on_c, 4, 70, 80
6, 97199, Note_on_c, 4, 70, 0
6, 97200, Note_on_c, 4, 68, 80
6, 97206, Note_on_c, 4, 68, 0
6, 97207, Note_on_c, 4, 70, 80
6, 97214, Note_on_c, 4, 70, 0
6, 97215, Note_on_c, 4, 68, 80
6, 97221, Note_on_c, 4, 68, 0
6, 97222, Note_on_c, 4, 70, 80
6, 97229, Note_on_c, 4, 70, 0
6, 97230, Note_on_c, 4, 68, 80
6, 97236, Note_on_c, 4, 68, 0
6, 97237, Note_on_c, 4, 70, 80
6, 97244, Note_on_c, 4, 70, 0
6, 97245, Note_on_c, 4, 68, 80
6, 97251, Note_on_c, 4, 68, 0
6, 97252, Note_on_c, 4, 70, 80
6, 97259, Note_on_c, 4, 70, 0
6, 97260, Note_on_c, 4, 68, 80
6, 97266, Note_on_c, 4, 68, 0
6, 97267, Note_on_c, 4, 70, 80
6, 97274, Note_on_c, 4, 70, 0
6, 97275, Note_on_c, 4, 68, 80
6, 97281, Note_on_c, 4, 68, 0
6, 97282, Note_on_c, 4, 70, 80
6, 97289, Note_on_c, 4, 70, 0
6, 97290, Note_on_c, 4, 68, 80
6, 97296, Note_on_c, 4, 68, 0
6, 97297, Note_on_c, 4, 70, 80
6, 97304, Note_on_c, 4, 70, 0
6, 97305, Note_on_c, 4, 68, 80
6, 97311, Note_on_c, 4, 68, 0
6, 97312, Note_on_c, 4, 70, 80
6, 97319, Note_on_c, 4, 70, 0
6, 97320, Note_on_c, 4, 68, 80
6, 97326, Note_on_c, 4, 68, 0
6, 97327, Note_on_c, 4, 70, 80
6, 97334, Note_on_c, 4, 70, 0
6, 97335, Note_on_c, 4, 68, 80
6, 97341, Note_on_c, 4, 68, 0
6, 97342, Note_on_c, 4, 70, 80
6, 97349, Note_on_c, 4, 70, 0
6, 97350, Note_on_c, 4, 68, 80
6, 97356, Note_on_c, 4, 68, 0
6, 97357, Note_on_c, 4, 70, 80
6, 97364, Note_on_c, 4, 70, 0
6, 97365, Note_on_c, 4, 68, 80
6, 97371, Note_on_c, 4, 68, 0
6, 97372, Note_on_c, 4, 70, 80
6, 97379, Note_on_c, 4, 70, 0
6, 97380, Note_on_c, 4, 68, 80
6, 97386, Note_on_c, 4, 68, 0
6, 97387, Note_on_c, 4, 70, 80
6, 97394, Note_on_c, 4, 70, 0
6, 97395, Note_on_c, 4, 68, 80
6, 97401, Note_on_c, 4, 68, 0
6, 97402, Note_on_c, 4, 70, 80
6, 97409, Note_on_c, 4, 70, 0
6, 97410, Note_on_c, 4, 68, 80
6, 97436, Note_on_c, 4, 68, 0
6, 97440, Note_on_c, 4, 67, 80
6, 97586, Note_on_c, 4, 67, 0
6, 97590, Note_on_c, 4, 70, 80
6, 97616, Note_on_c, 4, 70, 0
6, 97620, Note_on_c, 4, 68, 80
6, 97646, Note_on_c, 4, 68, 0
6, 97650, Note_on_c, 4, 67, 80
6, 97676, Note_on_c, 4, 67, 0
6, 97680, Note_on_c, 4, 65, 80
6, 97852, Note_on_c, 4, 65, 0
6, 97860, Note_on_c, 4, 63, 80
6, 97912, Note_on_c, 4, 63, 0
6, 97920, Note_on_c, 4, 59, 80
6, 97972, Note_on_c, 4, 59, 0
6, 97980, Note_on_c, 4, 59, 80
6, 98032, Note_on_c, 4, 59, 0
6, 98040, Note_on_c, 4, 60, 80
6, 98092, Note_on_c, 4, 60, 0
6, 98100, Note_on_c, 4, 60, 80
6, 98152, Note_on_c, 4, 60, 0
6, 98220, Note_on_c, 4, 68, 80
6, 98272, Note_on_c, 4, 68, 0
6, 98280, Note_on_c, 4, 62, 80
6, 98332, Note_on_c, 4, 62, 0
6, 98340, Note_on_c, 4, 62, 80
6, 98392, Note_on_c, 4, 62, 0
6, 98400, Note_on_c, 4, 64, 80
6, 98452, Note_on_c, 4, 64, 0
6, 98460, Note_on_c, 4, 64, 80
6, 98512, Note_on_c, 4, 64, 0
6, 98580, Note_on_c, 4, 65, 80
6, 98632, Note_on_c, 4, 65, 0
6, 98640, Note_on_c, 4, 60, 80
6, 98692, Note_on_c, 4, 60, 0
6, 98700, Note_on_c, 4, 60, 80
6, 98752, Note_on_c, 4, 60, 0
6, 98760, Note_on_c, 4, 62, 80
6, 98812, Note_on_c, 4, 62, 0
6, 98820, Note_on_c, 4, 62, 80
6, 98872, Note_on_c, 4, 62, 0
6, 98880, Note_on_c, 4, 63, 80
6, 98958, Note_on_c, 4, 63, 0
6, 98970, Note_on_c, 4, 65, 80
6, 98996, Note_on_c, 4, 65, 0
6, 99000, Note_on_c, 4, 67, 80
6, 99052, Note_on_c, 4, 67, 0
6, 99060, Note_on_c, 4, 69, 80
6, 99086, Note_on_c, 4, 69, 0
6, 99090, Note_on_c, 4, 71, 80
6, 99116, Note_on_c, 4, 71, 0
6, 99120, Note_on_c, 4, 72, 80
6, 99146, Note_on_c, 4, 72, 0
6, 99150, Note_on_c, 4, 75, 80
6, 99176, Note_on_c, 4, 75, 0
6, 99180, Note_on_c, 4, 74, 80
6, 99206, Note_on_c, 4, 74, 0
6, 99210, Note_on_c, 4, 77, 80
6, 99236, Note_on_c, 4, 77, 0
6, 99240, Note_on_c, 4, 71, 80
6, 99345, Note_on_c, 4, 71, 0
6, 99360, Note_on_c, 4, 72, 80
6, 99525, Note_on_c, 4, 72, 0
6, 99540, Note_on_c, 4, 70, 80
6, 99592, Note_on_c, 4, 70, 0
6, 99600, Note_on_c, 4, 68, 80
6, 99945, Note_on_c, 4, 68, 0
6, 99960, Note_on_c, 4, 67, 80
6, 100305, Note_on_c, 4, 67, 0
6, 100320, Note_on_c, 4, 65, 80
6, 100665, Note_on_c, 4, 65, 0
6, 100680, Note_on_c, 4, 63, 80
6, 100905, Note_on_c, 4, 63, 0
6, 100920, Note_on_c, 4, 65, 80
6, 101066, Note_on_c, 4, 65, 0
6, 101070, Note_on_c, 4, 67, 80
6, 101096, Note_on_c, 4, 67, 0
6, 101100, Note_on_c, 4, 65, 80
6, 101126, Note_on_c, 4, 65, 0
6, 101130, Note_on_c, 4, 67, 80
6, 101156, Note_on_c, 4, 67, 0
6, 101160, Note_on_c, 4, 59, 80
6, 101212, Note_on_c, 4, 59, 0
6, 101220, Note_on_c, 4, 62, 80
6, 101272, Note_on_c, 4, 62, 0
6, 101280, Note_on_c, 4, 60, 80
6, 101332, Note_on_c, 4, 60, 0
6, 101340, Note_on_c, 4, 60, 80
6, 101392, Note_on_c, 4, 60, 0
6, 101400, Note_on_c, 4, 62, 80
6, 101426, Note_on_c, 4, 62, 0
6, 101430, Note_on_c, 4, 67, 80
6, 101456, Note_on_c, 4, 67, 0
6, 101460, Note_on_c, 4, 65, 80
6, 101486, Note_on_c, 4, 65, 0
6, 101490, Note_on_c, 4, 67, 80
6, 101516, Note_on_c, 4, 67, 0
6, 101520, Note_on_c, 4, 62, 80
6, 101572, Note_on_c, 4, 62, 0
6, 101580, Note_on_c, 4, 62, 80
6, 101632, Note_on_c, 4, 62, 0
6, 101640, Note_on_c, 4, 63, 80
6, 101692, Note_on_c, 4, 63, 0
6, 101700, Note_on_c, 4, 63, 80
6, 101752, Note_on_c, 4, 63, 0
6, 101760, Note_on_c, 4, 65, 80
6, 101786, Note_on_c, 4, 65, 0
6, 101790, Note_on_c, 4, 67, 80
6, 101816, Note_on_c, 4, 67, 0
6, 101820, Note_on_c, 4, 65, 80
6, 101846, Note_on_c, 4, 65, 0
6, 101850, Note_on_c, 4, 67, 80
6, 101876, Note_on_c, 4, 67, 0
6, 101880, Note_on_c, 4, 62, 80
6, 101932, Note_on_c, 4, 62, 0
6, 101940, Note_on_c, 4, 67, 80
6, 101992, Note_on_c, 4, 67, 0
6, 102000, Note_on_c, 4, 67, 80
6, 102052, Note_on_c, 4, 67, 0
6, 102060, Note_on_c, 4, 67, 80
6, 102112, Note_on_c, 4, 67, 0
6, 102120, Note_on_c, 4, 67, 80
6, 102146, Note_on_c, 4, 67, 0
6, 102150, Note_on_c, 4, 67, 80
6, 102176, Note_on_c, 4, 67, 0
6, 102180, Note_on_c, 4, 65, 80
6, 102206, Note_on_c, 4, 65, 0
6, 102210, Note_on_c, 4, 67, 80
6, 102236, Note_on_c, 4, 67, 0
6, 102240, Note_on_c, 4, 62, 80
6, 102292, Note_on_c, 4, 62, 0
6, 102300, Note_on_c, 4, 67, 80
6, 102352, Note_on_c, 4, 67, 0
6, 102360, Note_on_c, 4, 67, 80
6, 102412, Note_on_c, 4, 67, 0
6, 102420, Note_on_c, 4, 67, 80
6, 102472, Note_on_c, 4, 67, 0
6, 102480, Note_on_c, 4, 65, 80
6, 102601, Note_on_c, 4, 65, 0
6, 102660, Note_on_c, 4, 67, 80
6, 102712, Note_on_c, 4, 67, 0
6, 102720, Note_on_c, 4, 67, 80
6, 102746, Note_on_c, 4, 67, 0
6, 102750, Note_on_c, 4, 68, 80
6, 102776, Note_on_c, 4, 68, 0
6, 102780, Note_on_c, 4, 65, 80
6, 102806, Note_on_c, 4, 65, 0
6, 102810, Note_on_c, 4, 67, 80
6, 102836, Note_on_c, 4, 67, 0
6, 102840, Note_on_c, 4, 68, 80
6, 102945, Note_on_c, 4, 68, 0
6, 102960, Note_on_c, 4, 67, 80
6, 103125, Note_on_c, 4, 67, 0
6, 103140, Note_on_c, 4, 65, 80
6, 103192, Note_on_c, 4, 65, 0
6, 103200, Note_on_c, 4, 64, 80
6, 103226, Note_on_c, 4, 64, 0
6, 103230, Note_on_c, 4, 67, 80
6, 103256, Note_on_c, 4, 67, 0
6, 103260, Note_on_c, 4, 65, 80
6, 103286, Note_on_c, 4, 65, 0
6, 103290, Note_on_c, 4, 68, 80
6, 103316, Note_on_c, 4, 68, 0
6, 103320, Note_on_c, 4, 67, 80
6, 103372, Note_on_c, 4, 67, 0
6, 103380, Note_on_c, 4, 72, 80
6, 103432, Note_on_c, 4, 72, 0
6, 103440, Note_on_c, 4, 72, 80
6, 103492, Note_on_c, 4, 72, 0
6, 103500, Note_on_c, 4, 72, 80
6, 103552, Note_on_c, 4, 72, 0
6, 103560, Note_on_c, 4, 72, 80
6, 103586, Note_on_c, 4, 72, 0
6, 103590, Note_on_c, 4, 72, 80
6, 103616, Note_on_c, 4, 72, 0
6, 103620, Note_on_c, 4, 70, 80
6, 103646, Note_on_c, 4, 70, 0
6, 103650, Note_on_c, 4, 72, 80
6, 103676, Note_on_c, 4, 72, 0
6, 103680, Note_on_c, 4, 67, 80
6, 103732, Note_on_c, 4, 67, 0
6, 103740, Note_on_c, 4, 67, 80
6, 103792, Note_on_c, 4, 67, 0
6, 103800, Note_on_c, 4, 68, 80
6, 103852, Note_on_c, 4, 68, 0
6, 103860, Note_on_c, 4, 68, 80
6, 103912, Note_on_c, 4, 68, 0
6, 103920, Note_on_c, 4, 70, 80
6, 103946, Note_on_c, 4, 70, 0
6, 103950, Note_on_c, 4, 72, 80
6, 103976, Note_on_c, 4, 72, 0
6, 103980, Note_on_c, 4, 70, 80
6, 104006, Note_on_c, 4, 70, 0
6, 104010, Note_on_c, 4, 72, 80
6, 104036, Note_on_c, 4, 72, 0
6, 104040, Note_on_c, 4, 67, 80
6, 104092, Note_on_c, 4, 67, 0
6, 104100, Note_on_c, 4, 72, 80
6, 104152, Note_on_c, 4, 72, 0
6, 104160, Note_on_c, 4, 72, 80
6, 104212, Note_on_c, 4, 72, 0
6, 104220, Note_on_c, 4, 72, 80
6, 104272, Note_on_c, 4, 72, 0
6, 104280, Note_on_c, 4, 72, 80
6, 104306, Note_on_c, 4, 72, 0
6, 104310, Note_on_c, 4, 73, 80
6, 104336, Note_on_c, 4, 73, 0
6, 104340, Note_on_c, 4, 72, 80
6, 104366, Note_on_c, 4, 72, 0
6, 104370, Note_on_c, 4, 73, 80
6, 104396, Note_on_c, 4, 73, 0
6, 104400, Note_on_c, 4, 70, 80
6, 104565, Note_on_c, 4, 70, 0
6, 104580, Note_on_c, 4, 68, 80
6, 104666, Note_on_c, 4, 68, 0
6, 104670, Note_on_c, 4, 68, 80
6, 104696, Note_on_c, 4, 68, 0
6, 104700, Note_on_c, 4, 67, 80
6, 104726, Note_on_c, 4, 67, 0
6, 104730, Note_on_c, 4, 68, 80
6, 104756, Note_on_c, 4, 68, 0
6, 104760, Note_on_c, 4, 62, 80
6, 104786, Note_on_c, 4, 62, 0
6, 104790, Note_on_c, 4, 65, 80
6, 104816, Note_on_c, 4, 65, 0
6, 104820, Note_on_c, 4, 64, 80
6, 104846, Note_on_c, 4, 64, 0
6, 104850, Note_on_c, 4, 65, 80
6, 104876, Note_on_c, 4, 65, 0
6, 104880, Note_on_c, 4, 62, 80
6, 104906, Note_on_c, 4, 62, 0
6, 104910, Note_on_c, 4, 65, 80
6, 104936, Note_on_c, 4, 65, 0
6, 104940, Note_on_c, 4, 62, 80
6, 104966, Note_on_c, 4, 62, 0
6, 104970, Note_on_c, 4, 65, 80
6, 104996, Note_on_c, 4, 65, 0
6, 105000, Note_on_c, 4, 64, 80
6, 105242, Control_c, 4, 7, 119
6, 105243, Control_c, 4, 7, 117
6, 105244, Control_c, 4, 7, 116
6, 105245, Control_c, 4, 7, 115
6, 105246, Control_c, 4, 7, 114
6, 105247, Control_c, 4, 7, 113
6, 105248, Control_c, 4, 7, 112
6, 105249, Control_c, 4, 7, 111
6, 105250, Control_c, 4, 7, 110
6, 105251, Control_c, 4, 7, 109
6, 105252, Control_c, 4, 7, 108
6, 105253, Control_c, 4, 7, 107
6, 105254, Control_c, 4, 7, 106
6, 105255, Control_c, 4, 7, 105
6, 105256, Control_c, 4, 7, 104
6, 105257, Control_c, 4, 7, 103
6, 105258, Control_c, 4, 7, 102
6, 105259, Control_c, 4, 7, 101
6, 105260, Control_c, 4, 7, 100
6, 105261, Control_c, 4, 7, 99
6, 105262, Control_c, 4, 7, 98
6, 105263, Control_c, 4, 7, 97
6, 105264, Control_c, 4, 7, 96
6, 105265, Control_c, 4, 7, 95
6, 105266, Control_c, 4, 7, 94
6, 105267, Control_c, 4, 7, 93
6, 105268, Control_c, 4, 7, 92
6, 105269, Control_c, 4, 7, 91
6, 105270, Control_c, 4, 7, 90
6, 105271, Control_c, 4, 7, 89
6, 105272, Control_c, 4, 7, 88
6, 105273, Control_c, 4, 7, 87
6, 105274, Control_c, 4, 7, 86
6, 105275, Control_c, 4, 7, 85
6, 105276, Control_c, 4, 7, 84
6, 105277, Control_c, 4, 7, 83
6, 105278, Control_c, 4, 7, 82
6, 105279, Control_c, 4, 7, 81
6, 105280, Control_c, 4, 7, 80
6, 105281, Control_c, 4, 7, 79
6, 105282, Control_c, 4, 7, 78
6, 105283, Control_c, 4, 7, 77
6, 105284, Control_c, 4, 7, 76
6, 105285, Control_c, 4, 7, 75
6, 105286, Control_c, 4, 7, 74
6, 105287, Control_c, 4, 7, 73
6, 105288, Control_c, 4, 7, 72
6, 105289, Control_c, 4, 7, 71
6, 105290, Control_c, 4, 7, 70
6, 105291, Control_c, 4, 7, 69
6, 105292, Control_c, 4, 7, 68
6, 105293, Control_c, 4, 7, 67
6, 105294, Control_c, 4, 7, 66
6, 105295, Control_c, 4, 7, 65
6, 105296, Control_c, 4, 7, 64
6, 105297, Control_c, 4, 7, 63
6, 105298, Control_c, 4, 7, 62
6, 105299, Control_c, 4, 7, 61
6, 105300, Control_c, 4, 7, 60
6, 105301, Control_c, 4, 7, 59
6, 105302, Control_c, 4, 7, 58
6, 105303, Control_c, 4, 7, 57
6, 105304, Control_c, 4, 7, 56
6, 105305, Control_c, 4, 7, 55
6, 105306, Control_c, 4, 7, 54
6, 105307, Control_c, 4, 7, 53
6, 105308, Control_c, 4, 7, 52
6, 105309, Control_c, 4, 7, 51
6, 105310, Control_c, 4, 7, 50
6, 105311, Control_c, 4, 7, 49
6, 105312, Control_c, 4, 7, 48
6, 105313, Control_c, 4, 7, 47
6, 105314, Control_c, 4, 7, 46
6, 105315, Control_c, 4, 7, 45
6, 105316, Control_c, 4, 7, 44
6, 105317, Control_c, 4, 7, 43
6, 105318, Control_c, 4, 7, 42
6, 105319, Control_c, 4, 7, 41
6, 105320, Control_c, 4, 7, 40
6, 105321, Control_c, 4, 7, 39
6, 105322, Control_c, 4, 7, 38
6, 105323, Control_c, 4, 7, 37
6, 105324, Control_c, 4, 7, 36
6, 105325, Control_c, 4, 7, 35
6, 105326, Control_c, 4, 7, 34
6, 105327, Control_c, 4, 7, 33
6, 105328, Control_c, 4, 7, 32
6, 105329, Control_c, 4, 7, 31
6, 105330, Control_c, 4, 7, 30
6, 105331, Control_c, 4, 7, 29
6, 105332, Control_c, 4, 7, 28
6, 105333, Control_c, 4, 7, 27
6, 105334, Control_c, 4, 7, 26
6, 105335, Control_c, 4, 7, 25
6, 105336, Control_c, 4, 7, 24
6, 105337, Control_c, 4, 7, 23
6, 105338, Control_c, 4, 7, 22
6, 105339, Control_c, 4, 7, 21
6, 105340, Control_c, 4, 7, 20
6, 105341, Control_c, 4, 7, 19
6, 105342, Control_c, 4, 7, 18
6, 105343, Control_c, 4, 7, 17
6, 105344, Control_c, 4, 7, 16
6, 105345, Note_on_c, 4, 64, 0
6, 105345, Control_c, 4, 7, 15
6, 105346, Control_c, 4, 7, 14
6, 105347, Control_c, 4, 7, 13
6, 105348, Control_c, 4, 7, 12
6, 105349, Control_c, 4, 7, 11
6, 105350, Control_c, 4, 7, 10
6, 105351, Control_c, 4, 7, 9
6, 105352, Control_c, 4, 7, 8
6, 105353, Control_c, 4, 7, 7
6, 105354, Control_c, 4, 7, 6
6, 105355, Control_c, 4, 7, 5
6, 105356, Control_c, 4, 7, 4
6, 105357, Control_c, 4, 7, 3
6, 105358, Control_c, 4, 7, 2
6, 105359, Control_c, 4, 7, 1
6, 105360, Control_c, 4, 7, 0
6, 105360, End_track
0, 0, End_of_file
