0, 0, Header, 1, 5, 96
1, 0, Start_track
1, 0, Key_signature, -1, "major"
1, 0, Time_signature, 4, 2, 24, 8
1, 0, Tempo, 666337
1, 26544, Tempo, 799605
1, 26880, Tempo, 666337
1, 27888, Tempo, 799605
1, 28032, Tempo, 666337
1, 29376, Tempo, 799605
1, 29568, Tempo, 999506
1, 29664, Tempo, 1499259
1, 29952, End_track
2, 0, Start_track
2, 1536, Note_on_c, 0, 69, 88
2, 1728, Note_on_c, 0, 69, 0
2, 1728, Note_on_c, 0, 74, 88
2, 1920, Note_on_c, 0, 74, 0
2, 1920, Note_on_c, 0, 72, 88
2, 2112, Note_on_c, 0, 72, 0
2, 2112, Note_on_c, 0, 69, 88
2, 2304, Note_on_c, 0, 69, 0
2, 2304, Note_on_c, 0, 68, 88
2, 2496, Note_on_c, 0, 68, 0
2, 2496, Note_on_c, 0, 69, 88
2, 2592, Note_on_c, 0, 69, 0
2, 2592, Note_on_c, 0, 71, 88
2, 2688, Note_on_c, 0, 71, 0
2, 2688, Note_on_c, 0, 72, 88
2, 2880, Note_on_c, 0, 72, 0
2, 2880, Note_on_c, 0, 72, 88
2, 2928, Note_on_c, 0, 72, 0
2, 2928, Note_on_c, 0, 74, 88
2, 2976, Note_on_c, 0, 74, 0
2, 2976, Note_on_c, 0, 72, 88
2, 3024, Note_on_c, 0, 72, 0
2, 3024, Note_on_c, 0, 70, 88
2, 3072, Note_on_c, 0, 70, 0
2, 3072, Note_on_c, 0, 69, 88
2, 3120, Note_on_c, 0, 69, 0
2, 3120, Note_on_c, 0, 62, 72
2, 3168, Note_on_c, 0, 62, 0
2, 3168, Note_on_c, 0, 74, 72
2, 3360, Note_on_c, 0, 74, 0
2, 3360, Note_on_c, 0, 73, 72
2, 3456, Note_on_c, 0, 73, 0
2, 3456, Note_on_c, 0, 74, 72
2, 3504, Note_on_c, 0, 74, 0
2, 3504, Note_on_c, 0, 69, 72
2, 3552, Note_on_c, 0, 69, 0
2, 3552, Note_on_c, 0, 72, 72
2, 3696, Note_on_c, 0, 72, 0
2, 3696, Note_on_c, 0, 69, 72
2, 3744, Note_on_c, 0, 69, 0
2, 3744, Note_on_c, 0, 70, 72
2, 3840, Note_on_c, 0, 70, 0
2, 3840, Note_on_c, 0, 70, 72
2, 3888, Note_on_c, 0, 70, 0
2, 3888, Note_on_c, 0, 64, 72
2, 3936, Note_on_c, 0, 64, 0
2, 3936, Note_on_c, 0, 69, 72
2, 4224, Note_on_c, 0, 69, 0
2, 4224, Note_on_c, 0, 69, 72
2, 4272, Note_on_c, 0, 69, 0
2, 4272, Note_on_c, 0, 72, 72
2, 4368, Note_on_c, 0, 72, 0
2, 4368, Note_on_c, 0, 71, 72
2, 4416, Note_on_c, 0, 71, 0
2, 4416, Note_on_c, 0, 72, 72
2, 4608, Note_on_c, 0, 72, 0
2, 4608, Note_on_c, 0, 72, 72
2, 4656, Note_on_c, 0, 72, 0
2, 4656, Note_on_c, 0, 62, 72
2, 4704, Note_on_c, 0, 62, 0
2, 4704, Note_on_c, 0, 72, 72
2, 4848, Note_on_c, 0, 72, 0
2, 4848, Note_on_c, 0, 69, 72
2, 4896, Note_on_c, 0, 69, 0
2, 4896, Note_on_c, 0, 71, 72
2, 4992, Note_on_c, 0, 71, 0
2, 4992, Note_on_c, 0, 71, 72
2, 5088, Note_on_c, 0, 71, 0
2, 5088, Note_on_c, 0, 69, 72
2, 5136, Note_on_c, 0, 69, 0
2, 5136, Note_on_c, 0, 68, 72
2, 5184, Note_on_c, 0, 68, 0
2, 5184, Note_on_c, 0, 69, 72
2, 5376, Note_on_c, 0, 69, 0
2, 5376, Note_on_c, 0, 71, 72
2, 5568, Note_on_c, 0, 71, 0
2, 5568, Note_on_c, 0, 72, 72
2, 5664, Note_on_c, 0, 72, 0
2, 5664, Note_on_c, 0, 74, 72
2, 5760, Note_on_c, 0, 74, 0
2, 5760, Note_on_c, 0, 67, 72
2, 5808, Note_on_c, 0, 67, 0
2, 5808, Note_on_c, 0, 70, 72
2, 5856, Note_on_c, 0, 70, 0
2, 5856, Note_on_c, 0, 69, 72
2, 6000, Note_on_c, 0, 69, 0
2, 6000, Note_on_c, 0, 70, 72
2, 6048, Note_on_c, 0, 70, 0
2, 6048, Note_on_c, 0, 69, 72
2, 6096, Note_on_c, 0, 69, 0
2, 6096, Note_on_c, 0, 67, 72
2, 6144, Note_on_c, 0, 67, 0
2, 6144, Note_on_c, 0, 67, 72
2, 6192, Note_on_c, 0, 67, 0
2, 6192, Note_on_c, 0, 64, 72
2, 6240, Note_on_c, 0, 64, 0
2, 6240, Note_on_c, 0, 65, 72
2, 6288, Note_on_c, 0, 65, 0
2, 6288, Note_on_c, 0, 62, 72
2, 6336, Note_on_c, 0, 62, 0
2, 6336, Note_on_c, 0, 70, 72
2, 6528, Note_on_c, 0, 70, 0
2, 6528, Note_on_c, 0, 70, 72
2, 6576, Note_on_c, 0, 70, 0
2, 6576, Note_on_c, 0, 67, 72
2, 6624, Note_on_c, 0, 67, 0
2, 6624, Note_on_c, 0, 69, 72
2, 6720, Note_on_c, 0, 69, 0
2, 6720, Note_on_c, 0, 74, 72
2, 6912, Note_on_c, 0, 74, 0
2, 6912, Note_on_c, 0, 74, 72
2, 6960, Note_on_c, 0, 74, 0
2, 6960, Note_on_c, 0, 71, 72
2, 7008, Note_on_c, 0, 71, 0
2, 7008, Note_on_c, 0, 72, 72
2, 7104, Note_on_c, 0, 72, 0
2, 7104, Note_on_c, 0, 77, 72
2, 7296, Note_on_c, 0, 77, 0
2, 7296, Note_on_c, 0, 77, 72
2, 7344, Note_on_c, 0, 77, 0
2, 7344, Note_on_c, 0, 74, 72
2, 7392, Note_on_c, 0, 74, 0
2, 7392, Note_on_c, 0, 76, 72
2, 7488, Note_on_c, 0, 76, 0
2, 7488, Note_on_c, 0, 69, 72
2, 7584, Note_on_c, 0, 69, 0
2, 7584, Note_on_c, 0, 74, 72
2, 7680, Note_on_c, 0, 74, 0
2, 7680, Note_on_c, 0, 74, 72
2, 7728, Note_on_c, 0, 74, 0
2, 7728, Note_on_c, 0, 71, 72
2, 7776, Note_on_c, 0, 71, 0
2, 7776, Note_on_c, 0, 72, 72
2, 7872, Note_on_c, 0, 72, 0
2, 7872, Note_on_c, 0, 65, 72
2, 7968, Note_on_c, 0, 65, 0
2, 7968, Note_on_c, 0, 70, 72
2, 8064, Note_on_c, 0, 70, 0
2, 8064, Note_on_c, 0, 69, 72
2, 8256, Note_on_c, 0, 69, 0
2, 8256, Note_on_c, 0, 62, 72
2, 8352, Note_on_c, 0, 62, 0
2, 8352, Note_on_c, 0, 67, 72
2, 8448, Note_on_c, 0, 67, 0
2, 8448, Note_on_c, 0, 67, 72
2, 8496, Note_on_c, 0, 67, 0
2, 8496, Note_on_c, 0, 64, 72
2, 8544, Note_on_c, 0, 64, 0
2, 8544, Note_on_c, 0, 65, 72
2, 8592, Note_on_c, 0, 65, 0
2, 8592, Note_on_c, 0, 74, 72
2, 8640, Note_on_c, 0, 74, 0
2, 8640, Note_on_c, 0, 64, 72
2, 8832, Note_on_c, 0, 64, 0
2, 8832, Note_on_c, 0, 64, 72
2, 8880, Note_on_c, 0, 64, 0
2, 8880, Note_on_c, 0, 62, 72
2, 8928, Note_on_c, 0, 62, 0
2, 8928, Note_on_c, 0, 69, 72
2, 9120, Note_on_c, 0, 69, 0
2, 9120, Note_on_c, 0, 67, 72
2, 9216, Note_on_c, 0, 67, 0
2, 9216, Note_on_c, 0, 69, 72
2, 9408, Note_on_c, 0, 69, 0
2, 10752, Note_on_c, 0, 69, 88
2, 10944, Note_on_c, 0, 69, 0
2, 10944, Note_on_c, 0, 76, 88
2, 11136, Note_on_c, 0, 76, 0
2, 11136, Note_on_c, 0, 72, 88
2, 11328, Note_on_c, 0, 72, 0
2, 11328, Note_on_c, 0, 69, 88
2, 11520, Note_on_c, 0, 69, 0
2, 11520, Note_on_c, 0, 68, 88
2, 11712, Note_on_c, 0, 68, 0
2, 11712, Note_on_c, 0, 69, 88
2, 11808, Note_on_c, 0, 69, 0
2, 11808, Note_on_c, 0, 71, 88
2, 11904, Note_on_c, 0, 71, 0
2, 11904, Note_on_c, 0, 72, 88
2, 12096, Note_on_c, 0, 72, 0
2, 12096, Note_on_c, 0, 72, 88
2, 12144, Note_on_c, 0, 72, 0
2, 12144, Note_on_c, 0, 74, 88
2, 12192, Note_on_c, 0, 74, 0
2, 12192, Note_on_c, 0, 72, 88
2, 12240, Note_on_c, 0, 72, 0
2, 12240, Note_on_c, 0, 70, 88
2, 12288, Note_on_c, 0, 70, 0
2, 12288, Note_on_c, 0, 69, 88
2, 12384, Note_on_c, 0, 69, 0
2, 12576, Note_on_c, 0, 69, 72
2, 12672, Note_on_c, 0, 69, 0
2, 12672, Note_on_c, 0, 69, 72
2, 12720, Note_on_c, 0, 69, 0
2, 12720, Note_on_c, 0, 72, 72
2, 12768, Note_on_c, 0, 72, 0
2, 12768, Note_on_c, 0, 70, 72
2, 12816, Note_on_c, 0, 70, 0
2, 12816, Note_on_c, 0, 69, 72
2, 12864, Note_on_c, 0, 69, 0
2, 12864, Note_on_c, 0, 70, 72
2, 12912, Note_on_c, 0, 70, 0
2, 12912, Note_on_c, 0, 69, 72
2, 12960, Note_on_c, 0, 69, 0
2, 12960, Note_on_c, 0, 67, 72
2, 13008, Note_on_c, 0, 67, 0
2, 13008, Note_on_c, 0, 66, 72
2, 13056, Note_on_c, 0, 66, 0
2, 13056, Note_on_c, 0, 67, 72
2, 13200, Note_on_c, 0, 67, 0
2, 13200, Note_on_c, 0, 70, 72
2, 13248, Note_on_c, 0, 70, 0
2, 13248, Note_on_c, 0, 64, 72
2, 13392, Note_on_c, 0, 64, 0
2, 13392, Note_on_c, 0, 66, 72
2, 13440, Note_on_c, 0, 66, 0
2, 13440, Note_on_c, 0, 67, 72
2, 13584, Note_on_c, 0, 67, 0
2, 13584, Note_on_c, 0, 64, 72
2, 13632, Note_on_c, 0, 64, 0
2, 13632, Note_on_c, 0, 61, 72
2, 13776, Note_on_c, 0, 61, 0
2, 13776, Note_on_c, 0, 69, 72
2, 13824, Note_on_c, 0, 69, 0
2, 13824, Note_on_c, 0, 62, 72
2, 13968, Note_on_c, 0, 62, 0
2, 13968, Note_on_c, 0, 65, 72
2, 14016, Note_on_c, 0, 65, 0
2, 14016, Note_on_c, 0, 64, 72
2, 14160, Note_on_c, 0, 64, 0
2, 14160, Note_on_c, 0, 72, 72
2, 14208, Note_on_c, 0, 72, 0
2, 14208, Note_on_c, 0, 65, 72
2, 14352, Note_on_c, 0, 65, 0
2, 14352, Note_on_c, 0, 69, 72
2, 14400, Note_on_c, 0, 69, 0
2, 14400, Note_on_c, 0, 67, 72
2, 14544, Note_on_c, 0, 67, 0
2, 14544, Note_on_c, 0, 76, 72
2, 14592, Note_on_c, 0, 76, 0
2, 14592, Note_on_c, 0, 69, 72
2, 14736, Note_on_c, 0, 69, 0
2, 14736, Note_on_c, 0, 72, 72
2, 14784, Note_on_c, 0, 72, 0
2, 14784, Note_on_c, 0, 71, 72
2, 14928, Note_on_c, 0, 71, 0
2, 14928, Note_on_c, 0, 79, 72
2, 14976, Note_on_c, 0, 79, 0
2, 14976, Note_on_c, 0, 73, 72
2, 15168, Note_on_c, 0, 73, 0
2, 15168, Note_on_c, 0, 74, 72
2, 15264, Note_on_c, 0, 74, 0
2, 15264, Note_on_c, 0, 76, 72
2, 15360, Note_on_c, 0, 76, 0
2, 15360, Note_on_c, 0, 76, 72
2, 15408, Note_on_c, 0, 76, 0
2, 15408, Note_on_c, 0, 73, 72
2, 15456, Note_on_c, 0, 73, 0
2, 15456, Note_on_c, 0, 74, 72
2, 15648, Note_on_c, 0, 74, 0
2, 15648, Note_on_c, 0, 74, 72
2, 15696, Note_on_c, 0, 74, 0
2, 15696, Note_on_c, 0, 76, 72
2, 15744, Note_on_c, 0, 76, 0
2, 15744, Note_on_c, 0, 77, 72
2, 15792, Note_on_c, 0, 77, 0
2, 15792, Note_on_c, 0, 76, 72
2, 15840, Note_on_c, 0, 76, 0
2, 15840, Note_on_c, 0, 79, 72
2, 15984, Note_on_c, 0, 79, 0
2, 15984, Note_on_c, 0, 77, 72
2, 16032, Note_on_c, 0, 77, 0
2, 16032, Note_on_c, 0, 76, 72
2, 16080, Note_on_c, 0, 76, 0
2, 16080, Note_on_c, 0, 74, 72
2, 16128, Note_on_c, 0, 74, 0
2, 16128, Note_on_c, 0, 73, 72
2, 16176, Note_on_c, 0, 73, 0
2, 16176, Note_on_c, 0, 69, 72
2, 16224, Note_on_c, 0, 69, 0
2, 16224, Note_on_c, 0, 74, 72
2, 16368, Note_on_c, 0, 74, 0
2, 16368, Note_on_c, 0, 71, 72
2, 16416, Note_on_c, 0, 71, 0
2, 16416, Note_on_c, 0, 72, 72
2, 16512, Note_on_c, 0, 72, 0
2, 16512, Note_on_c, 0, 72, 72
2, 16608, Note_on_c, 0, 72, 0
2, 16608, Note_on_c, 0, 70, 72
2, 16704, Note_on_c, 0, 70, 0
2, 16704, Note_on_c, 0, 69, 72
2, 16800, Note_on_c, 0, 69, 0
2, 18432, Note_on_c, 0, 76, 88
2, 18624, Note_on_c, 0, 76, 0
2, 18624, Note_on_c, 0, 81, 88
2, 18816, Note_on_c, 0, 81, 0
2, 18816, Note_on_c, 0, 77, 88
2, 19008, Note_on_c, 0, 77, 0
2, 19008, Note_on_c, 0, 74, 88
2, 19200, Note_on_c, 0, 74, 0
2, 19200, Note_on_c, 0, 73, 88
2, 19392, Note_on_c, 0, 73, 0
2, 19392, Note_on_c, 0, 74, 88
2, 19488, Note_on_c, 0, 74, 0
2, 19488, Note_on_c, 0, 76, 88
2, 19584, Note_on_c, 0, 76, 0
2, 19584, Note_on_c, 0, 77, 88
2, 19776, Note_on_c, 0, 77, 0
2, 19776, Note_on_c, 0, 77, 88
2, 19824, Note_on_c, 0, 77, 0
2, 19824, Note_on_c, 0, 79, 88
2, 19872, Note_on_c, 0, 79, 0
2, 19872, Note_on_c, 0, 77, 88
2, 19920, Note_on_c, 0, 77, 0
2, 19920, Note_on_c, 0, 76, 88
2, 19968, Note_on_c, 0, 76, 0
2, 19968, Note_on_c, 0, 74, 88
2, 20112, Note_on_c, 0, 74, 0
2, 20112, Note_on_c, 0, 76, 72
2, 20160, Note_on_c, 0, 76, 0
2, 20160, Note_on_c, 0, 73, 72
2, 20256, Note_on_c, 0, 73, 0
2, 20256, Note_on_c, 0, 74, 72
2, 20304, Note_on_c, 0, 74, 0
2, 20304, Note_on_c, 0, 77, 72
2, 20352, Note_on_c, 0, 77, 0
2, 20352, Note_on_c, 0, 70, 72
2, 20544, Note_on_c, 0, 70, 0
2, 20544, Note_on_c, 0, 70, 72
2, 20592, Note_on_c, 0, 70, 0
2, 20592, Note_on_c, 0, 70, 72
2, 20640, Note_on_c, 0, 70, 0
2, 20640, Note_on_c, 0, 69, 72
2, 20688, Note_on_c, 0, 69, 0
2, 20688, Note_on_c, 0, 67, 72
2, 20736, Note_on_c, 0, 67, 0
2, 20736, Note_on_c, 0, 65, 72
2, 20928, Note_on_c, 0, 65, 0
2, 20928, Note_on_c, 0, 70, 72
2, 21120, Note_on_c, 0, 70, 0
2, 21120, Note_on_c, 0, 69, 72
2, 21408, Note_on_c, 0, 69, 0
2, 21408, Note_on_c, 0, 76, 72
2, 21504, Note_on_c, 0, 76, 0
2, 21504, Note_on_c, 0, 76, 72
2, 21552, Note_on_c, 0, 76, 0
2, 21552, Note_on_c, 0, 73, 72
2, 21600, Note_on_c, 0, 73, 0
2, 21600, Note_on_c, 0, 74, 72
2, 21648, Note_on_c, 0, 74, 0
2, 21648, Note_on_c, 0, 76, 72
2, 21696, Note_on_c, 0, 76, 0
2, 21696, Note_on_c, 0, 77, 72
2, 21744, Note_on_c, 0, 77, 0
2, 21744, Note_on_c, 0, 74, 72
2, 21792, Note_on_c, 0, 74, 0
2, 21792, Note_on_c, 0, 79, 72
2, 21888, Note_on_c, 0, 79, 0
2, 21888, Note_on_c, 0, 79, 72
2, 21936, Note_on_c, 0, 79, 0
2, 21936, Note_on_c, 0, 76, 72
2, 21984, Note_on_c, 0, 76, 0
2, 21984, Note_on_c, 0, 81, 72
2, 22032, Note_on_c, 0, 81, 0
2, 22032, Note_on_c, 0, 79, 72
2, 22080, Note_on_c, 0, 79, 0
2, 22080, Note_on_c, 0, 77, 72
2, 22128, Note_on_c, 0, 77, 0
2, 22128, Note_on_c, 0, 76, 72
2, 22176, Note_on_c, 0, 76, 0
2, 22176, Note_on_c, 0, 74, 72
2, 22224, Note_on_c, 0, 74, 0
2, 22224, Note_on_c, 0, 73, 72
2, 22272, Note_on_c, 0, 73, 0
2, 22272, Note_on_c, 0, 74, 72
2, 22320, Note_on_c, 0, 74, 0
2, 22320, Note_on_c, 0, 72, 72
2, 22368, Note_on_c, 0, 72, 0
2, 22368, Note_on_c, 0, 70, 72
2, 22416, Note_on_c, 0, 70, 0
2, 22416, Note_on_c, 0, 69, 72
2, 22464, Note_on_c, 0, 69, 0
2, 22464, Note_on_c, 0, 67, 72
2, 22656, Note_on_c, 0, 67, 0
2, 22656, Note_on_c, 0, 67, 72
2, 22704, Note_on_c, 0, 67, 0
2, 22704, Note_on_c, 0, 64, 72
2, 22752, Note_on_c, 0, 64, 0
2, 22752, Note_on_c, 0, 65, 72
2, 22800, Note_on_c, 0, 65, 0
2, 22800, Note_on_c, 0, 62, 72
2, 22848, Note_on_c, 0, 62, 0
2, 22848, Note_on_c, 0, 69, 72
2, 23040, Note_on_c, 0, 69, 0
2, 23040, Note_on_c, 0, 69, 72
2, 23088, Note_on_c, 0, 69, 0
2, 23088, Note_on_c, 0, 66, 72
2, 23136, Note_on_c, 0, 66, 0
2, 23136, Note_on_c, 0, 67, 72
2, 23184, Note_on_c, 0, 67, 0
2, 23184, Note_on_c, 0, 70, 72
2, 23232, Note_on_c, 0, 70, 0
2, 23232, Note_on_c, 0, 72, 72
2, 23424, Note_on_c, 0, 72, 0
2, 23424, Note_on_c, 0, 72, 72
2, 23472, Note_on_c, 0, 72, 0
2, 23472, Note_on_c, 0, 69, 72
2, 23520, Note_on_c, 0, 69, 0
2, 23520, Note_on_c, 0, 70, 72
2, 23568, Note_on_c, 0, 70, 0
2, 23568, Note_on_c, 0, 74, 72
2, 23616, Note_on_c, 0, 74, 0
2, 23616, Note_on_c, 0, 75, 72
2, 23712, Note_on_c, 0, 75, 0
2, 23712, Note_on_c, 0, 74, 72
2, 23808, Note_on_c, 0, 74, 0
2, 23808, Note_on_c, 0, 73, 72
2, 23904, Note_on_c, 0, 73, 0
2, 23904, Note_on_c, 0, 81, 72
2, 24048, Note_on_c, 0, 81, 0
2, 24048, Note_on_c, 0, 77, 72
2, 24096, Note_on_c, 0, 77, 0
2, 24096, Note_on_c, 0, 79, 72
2, 24192, Note_on_c, 0, 79, 0
2, 24192, Note_on_c, 0, 79, 72
2, 24240, Note_on_c, 0, 79, 0
2, 24240, Note_on_c, 0, 73, 72
2, 24288, Note_on_c, 0, 73, 0
2, 24288, Note_on_c, 0, 77, 72
2, 24432, Note_on_c, 0, 77, 0
2, 24432, Note_on_c, 0, 74, 72
2, 24480, Note_on_c, 0, 74, 0
2, 24480, Note_on_c, 0, 76, 72
2, 24576, Note_on_c, 0, 76, 0
2, 24576, Note_on_c, 0, 76, 72
2, 24624, Note_on_c, 0, 76, 0
2, 24624, Note_on_c, 0, 73, 72
2, 24672, Note_on_c, 0, 73, 0
2, 24672, Note_on_c, 0, 74, 72
2, 24816, Note_on_c, 0, 74, 0
2, 24816, Note_on_c, 0, 71, 72
2, 24864, Note_on_c, 0, 71, 0
2, 24864, Note_on_c, 0, 72, 72
2, 24960, Note_on_c, 0, 72, 0
2, 24960, Note_on_c, 0, 72, 72
2, 25056, Note_on_c, 0, 72, 0
2, 25056, Note_on_c, 0, 70, 72
2, 25152, Note_on_c, 0, 70, 0
2, 25152, Note_on_c, 0, 69, 72
2, 25296, Note_on_c, 0, 69, 0
2, 25296, Note_on_c, 0, 69, 72
2, 25344, Note_on_c, 0, 69, 0
2, 25344, Note_on_c, 0, 74, 72
2, 25392, Note_on_c, 0, 74, 0
2, 25392, Note_on_c, 0, 77, 72
2, 25440, Note_on_c, 0, 77, 0
2, 25440, Note_on_c, 0, 76, 72
2, 25488, Note_on_c, 0, 76, 0
2, 25488, Note_on_c, 0, 79, 72
2, 25536, Note_on_c, 0, 79, 0
2, 25536, Note_on_c, 0, 77, 72
2, 25584, Note_on_c, 0, 77, 0
2, 25584, Note_on_c, 0, 76, 72
2, 25632, Note_on_c, 0, 76, 0
2, 25632, Note_on_c, 0, 74, 72
2, 25728, Note_on_c, 0, 74, 0
2, 25728, Note_on_c, 0, 74, 72
2, 25776, Note_on_c, 0, 74, 0
2, 25776, Note_on_c, 0, 77, 72
2, 25872, Note_on_c, 0, 77, 0
2, 25872, Note_on_c, 0, 76, 72
2, 25920, Note_on_c, 0, 76, 0
2, 25920, Note_on_c, 0, 77, 72
2, 25968, Note_on_c, 0, 77, 0
2, 25968, Note_on_c, 0, 74, 72
2, 26016, Note_on_c, 0, 74, 0
2, 26016, Note_on_c, 0, 76, 72
2, 26112, Note_on_c, 0, 76, 0
2, 26112, Note_on_c, 0, 76, 72
2, 26160, Note_on_c, 0, 76, 0
2, 26160, Note_on_c, 0, 74, 72
2, 26208, Note_on_c, 0, 74, 0
2, 26208, Note_on_c, 0, 72, 72
2, 26256, Note_on_c, 0, 72, 0
2, 26256, Note_on_c, 0, 71, 72
2, 26304, Note_on_c, 0, 71, 0
2, 26304, Note_on_c, 0, 72, 72
2, 26448, Note_on_c, 0, 72, 0
2, 26448, Note_on_c, 0, 81, 72
2, 26496, Note_on_c, 0, 81, 0
2, 26496, Note_on_c, 0, 79, 72
2, 26544, Note_on_c, 0, 79, 0
2, 26544, Note_on_c, 0, 78, 72
2, 26592, Note_on_c, 0, 78, 0
2, 26592, Note_on_c, 0, 79, 72
2, 26640, Note_on_c, 0, 79, 0
2, 26640, Note_on_c, 0, 82, 72
2, 26688, Note_on_c, 0, 82, 0
2, 26688, Note_on_c, 0, 73, 72
2, 26784, Note_on_c, 0, 73, 0
2, 27072, Note_on_c, 0, 74, 72
2, 27168, Note_on_c, 0, 74, 0
2, 27456, Note_on_c, 0, 74, 72
2, 27648, Note_on_c, 0, 74, 0
2, 27648, Note_on_c, 0, 74, 72
2, 27840, Note_on_c, 0, 74, 0
2, 27840, Note_on_c, 0, 74, 72
2, 27888, Note_on_c, 0, 74, 0
2, 27888, Note_on_c, 0, 71, 72
2, 27936, Note_on_c, 0, 71, 0
2, 27936, Note_on_c, 0, 73, 72
2, 28032, Note_on_c, 0, 73, 0
2, 28032, Note_on_c, 0, 74, 72
2, 28176, Note_on_c, 0, 74, 0
2, 28176, Note_on_c, 0, 72, 72
2, 28224, Note_on_c, 0, 72, 0
2, 28224, Note_on_c, 0, 70, 72
2, 28368, Note_on_c, 0, 70, 0
2, 28368, Note_on_c, 0, 69, 72
2, 28416, Note_on_c, 0, 69, 0
2, 28416, Note_on_c, 0, 62, 72
2, 28608, Note_on_c, 0, 62, 0
2, 28656, Note_on_c, 0, 67, 72
2, 28704, Note_on_c, 0, 67, 0
2, 28704, Note_on_c, 0, 69, 72
2, 28752, Note_on_c, 0, 69, 0
2, 28752, Note_on_c, 0, 72, 72
2, 28800, Note_on_c, 0, 72, 0
2, 28800, Note_on_c, 0, 72, 72
2, 28848, Note_on_c, 0, 72, 0
2, 28848, Note_on_c, 0, 70, 72
2, 28896, Note_on_c, 0, 70, 0
2, 28896, Note_on_c, 0, 72, 72
2, 28944, Note_on_c, 0, 72, 0
2, 28944, Note_on_c, 0, 75, 72
2, 29040, Note_on_c, 0, 75, 0
2, 29040, Note_on_c, 0, 74, 72
2, 29088, Note_on_c, 0, 74, 0
2, 29088, Note_on_c, 0, 78, 72
2, 29136, Note_on_c, 0, 78, 0
2, 29136, Note_on_c, 0, 81, 72
2, 29184, Note_on_c, 0, 81, 0
2, 29184, Note_on_c, 0, 81, 72
2, 29232, Note_on_c, 0, 81, 0
2, 29232, Note_on_c, 0, 79, 72
2, 29256, Note_on_c, 0, 79, 0
2, 29256, Note_on_c, 0, 81, 72
2, 29280, Note_on_c, 0, 81, 0
2, 29280, Note_on_c, 0, 82, 72
2, 29328, Note_on_c, 0, 82, 0
2, 29328, Note_on_c, 0, 73, 72
2, 29376, Note_on_c, 0, 73, 0
2, 29376, Note_on_c, 0, 74, 72
2, 29568, Note_on_c, 0, 74, 0
2, 29568, Note_on_c, 0, 74, 72
2, 29664, Note_on_c, 0, 74, 0
2, 29664, Note_on_c, 0, 74, 72
2, 29952, Note_on_c, 0, 74, 0
2, 29952, End_track
3, 0, Start_track
3, 0, Note_on_c, 0, 62, 88
3, 192, Note_on_c, 0, 62, 0
3, 192, Note_on_c, 0, 69, 88
3, 384, Note_on_c, 0, 69, 0
3, 384, Note_on_c, 0, 65, 88
3, 576, Note_on_c, 0, 65, 0
3, 576, Note_on_c, 0, 62, 88
3, 768, Note_on_c, 0, 62, 0
3, 768, Note_on_c, 0, 61, 88
3, 960, Note_on_c, 0, 61, 0
3, 960, Note_on_c, 0, 62, 88
3, 1056, Note_on_c, 0, 62, 0
3, 1056, Note_on_c, 0, 64, 88
3, 1152, Note_on_c, 0, 64, 0
3, 1152, Note_on_c, 0, 65, 88
3, 1344, Note_on_c, 0, 65, 0
3, 1344, Note_on_c, 0, 65, 88
3, 1392, Note_on_c, 0, 65, 0
3, 1392, Note_on_c, 0, 67, 88
3, 1440, Note_on_c, 0, 67, 0
3, 1440, Note_on_c, 0, 65, 88
3, 1488, Note_on_c, 0, 65, 0
3, 1488, Note_on_c, 0, 64, 88
3, 1536, Note_on_c, 0, 64, 0
3, 1536, Note_on_c, 0, 62, 88
3, 1632, Note_on_c, 0, 62, 0
3, 1632, Note_on_c, 0, 64, 72
3, 1728, Note_on_c, 0, 64, 0
3, 1728, Note_on_c, 0, 65, 72
3, 1824, Note_on_c, 0, 65, 0
3, 1824, Note_on_c, 0, 67, 72
3, 1920, Note_on_c, 0, 67, 0
3, 1920, Note_on_c, 0, 69, 72
3, 2016, Note_on_c, 0, 69, 0
3, 2016, Note_on_c, 0, 57, 72
3, 2064, Note_on_c, 0, 57, 0
3, 2064, Note_on_c, 0, 59, 72
3, 2112, Note_on_c, 0, 59, 0
3, 2112, Note_on_c, 0, 60, 72
3, 2160, Note_on_c, 0, 60, 0
3, 2160, Note_on_c, 0, 57, 72
3, 2208, Note_on_c, 0, 57, 0
3, 2208, Note_on_c, 0, 65, 72
3, 2304, Note_on_c, 0, 65, 0
3, 2304, Note_on_c, 0, 65, 72
3, 2352, Note_on_c, 0, 65, 0
3, 2352, Note_on_c, 0, 59, 72
3, 2400, Note_on_c, 0, 59, 0
3, 2400, Note_on_c, 0, 64, 72
3, 2544, Note_on_c, 0, 64, 0
3, 2544, Note_on_c, 0, 65, 72
3, 2592, Note_on_c, 0, 65, 0
3, 2592, Note_on_c, 0, 64, 72
3, 2640, Note_on_c, 0, 64, 0
3, 2640, Note_on_c, 0, 62, 72
3, 2688, Note_on_c, 0, 62, 0
3, 2688, Note_on_c, 0, 64, 72
3, 2784, Note_on_c, 0, 64, 0
3, 2784, Note_on_c, 0, 66, 72
3, 2880, Note_on_c, 0, 66, 0
3, 2880, Note_on_c, 0, 67, 72
3, 3072, Note_on_c, 0, 67, 0
3, 3072, Note_on_c, 0, 67, 72
3, 3168, Note_on_c, 0, 67, 0
3, 3168, Note_on_c, 0, 65, 72
3, 3264, Note_on_c, 0, 65, 0
3, 3264, Note_on_c, 0, 64, 72
3, 3456, Note_on_c, 0, 64, 0
3, 3456, Note_on_c, 0, 62, 72
3, 3600, Note_on_c, 0, 62, 0
3, 3600, Note_on_c, 0, 64, 72
3, 3648, Note_on_c, 0, 64, 0
3, 3648, Note_on_c, 0, 65, 72
3, 3792, Note_on_c, 0, 65, 0
3, 3792, Note_on_c, 0, 62, 72
3, 3840, Note_on_c, 0, 62, 0
3, 3840, Note_on_c, 0, 67, 72
3, 3984, Note_on_c, 0, 67, 0
3, 3984, Note_on_c, 0, 67, 72
3, 4032, Note_on_c, 0, 67, 0
3, 4032, Note_on_c, 0, 65, 72
3, 4080, Note_on_c, 0, 65, 0
3, 4080, Note_on_c, 0, 64, 72
3, 4128, Note_on_c, 0, 64, 0
3, 4128, Note_on_c, 0, 62, 72
3, 4176, Note_on_c, 0, 62, 0
3, 4176, Note_on_c, 0, 61, 72
3, 4224, Note_on_c, 0, 61, 0
3, 4224, Note_on_c, 0, 62, 72
3, 4320, Note_on_c, 0, 62, 0
3, 4320, Note_on_c, 0, 67, 72
3, 4512, Note_on_c, 0, 67, 0
3, 4512, Note_on_c, 0, 60, 72
3, 4608, Note_on_c, 0, 60, 0
3, 4608, Note_on_c, 0, 65, 72
3, 4752, Note_on_c, 0, 65, 0
3, 4752, Note_on_c, 0, 64, 72
3, 4800, Note_on_c, 0, 64, 0
3, 4800, Note_on_c, 0, 65, 72
3, 4944, Note_on_c, 0, 65, 0
3, 4944, Note_on_c, 0, 56, 72
3, 4992, Note_on_c, 0, 56, 0
3, 4992, Note_on_c, 0, 64, 72
3, 5280, Note_on_c, 0, 64, 0
3, 5280, Note_on_c, 0, 62, 72
3, 5328, Note_on_c, 0, 62, 0
3, 5328, Note_on_c, 0, 60, 72
3, 5376, Note_on_c, 0, 60, 0
3, 5376, Note_on_c, 0, 62, 72
3, 5424, Note_on_c, 0, 62, 0
3, 5424, Note_on_c, 0, 65, 72
3, 5472, Note_on_c, 0, 65, 0
3, 5472, Note_on_c, 0, 64, 72
3, 5520, Note_on_c, 0, 64, 0
3, 5520, Note_on_c, 0, 62, 72
3, 5568, Note_on_c, 0, 62, 0
3, 5568, Note_on_c, 0, 60, 72
3, 5664, Note_on_c, 0, 60, 0
3, 8448, Note_on_c, 0, 62, 88
3, 8640, Note_on_c, 0, 62, 0
3, 8640, Note_on_c, 0, 69, 88
3, 8832, Note_on_c, 0, 69, 0
3, 8832, Note_on_c, 0, 65, 88
3, 9024, Note_on_c, 0, 65, 0
3, 9024, Note_on_c, 0, 62, 88
3, 9216, Note_on_c, 0, 62, 0
3, 9216, Note_on_c, 0, 61, 88
3, 9408, Note_on_c, 0, 61, 0
3, 9408, Note_on_c, 0, 62, 88
3, 9504, Note_on_c, 0, 62, 0
3, 9504, Note_on_c, 0, 64, 88
3, 9600, Note_on_c, 0, 64, 0
3, 9600, Note_on_c, 0, 65, 88
3, 9792, Note_on_c, 0, 65, 0
3, 9792, Note_on_c, 0, 65, 88
3, 9840, Note_on_c, 0, 65, 0
3, 9840, Note_on_c, 0, 67, 88
3, 9888, Note_on_c, 0, 67, 0
3, 9888, Note_on_c, 0, 65, 88
3, 9936, Note_on_c, 0, 65, 0
3, 9936, Note_on_c, 0, 64, 88
3, 9984, Note_on_c, 0, 64, 0
3, 9984, Note_on_c, 0, 62, 88
3, 10080, Note_on_c, 0, 62, 0
3, 10080, Note_on_c, 0, 67, 72
3, 10224, Note_on_c, 0, 67, 0
3, 10224, Note_on_c, 0, 64, 72
3, 10272, Note_on_c, 0, 64, 0
3, 10272, Note_on_c, 0, 65, 72
3, 10368, Note_on_c, 0, 65, 0
3, 10368, Note_on_c, 0, 64, 72
3, 10464, Note_on_c, 0, 64, 0
3, 10464, Note_on_c, 0, 69, 72
3, 10608, Note_on_c, 0, 69, 0
3, 10608, Note_on_c, 0, 66, 72
3, 10656, Note_on_c, 0, 66, 0
3, 10656, Note_on_c, 0, 67, 72
3, 10752, Note_on_c, 0, 67, 0
3, 10752, Note_on_c, 0, 66, 72
3, 10896, Note_on_c, 0, 66, 0
3, 10896, Note_on_c, 0, 74, 72
3, 10944, Note_on_c, 0, 74, 0
3, 10944, Note_on_c, 0, 68, 72
3, 11136, Note_on_c, 0, 68, 0
3, 11136, Note_on_c, 0, 69, 72
3, 11232, Note_on_c, 0, 69, 0
3, 11280, Note_on_c, 0, 57, 72
3, 11328, Note_on_c, 0, 57, 0
3, 11328, Note_on_c, 0, 60, 72
3, 11424, Note_on_c, 0, 60, 0
3, 11424, Note_on_c, 0, 57, 72
3, 11520, Note_on_c, 0, 57, 0
3, 11520, Note_on_c, 0, 62, 72
3, 11616, Note_on_c, 0, 62, 0
3, 11616, Note_on_c, 0, 65, 72
3, 11712, Note_on_c, 0, 65, 0
3, 11712, Note_on_c, 0, 64, 72
3, 11808, Note_on_c, 0, 64, 0
3, 11808, Note_on_c, 0, 62, 72
3, 11904, Note_on_c, 0, 62, 0
3, 11904, Note_on_c, 0, 60, 72
3, 12000, Note_on_c, 0, 60, 0
3, 12000, Note_on_c, 0, 69, 72
3, 12192, Note_on_c, 0, 69, 0
3, 12192, Note_on_c, 0, 62, 72
3, 12288, Note_on_c, 0, 62, 0
3, 12288, Note_on_c, 0, 64, 72
3, 12384, Note_on_c, 0, 64, 0
3, 12384, Note_on_c, 0, 69, 72
3, 12528, Note_on_c, 0, 69, 0
3, 12528, Note_on_c, 0, 67, 72
3, 12576, Note_on_c, 0, 67, 0
3, 12576, Note_on_c, 0, 65, 72
3, 12624, Note_on_c, 0, 65, 0
3, 12624, Note_on_c, 0, 64, 72
3, 12672, Note_on_c, 0, 64, 0
3, 12672, Note_on_c, 0, 62, 72
3, 13056, Note_on_c, 0, 62, 0
3, 13056, Note_on_c, 0, 62, 72
3, 13104, Note_on_c, 0, 62, 0
3, 13104, Note_on_c, 0, 62, 72
3, 13152, Note_on_c, 0, 62, 0
3, 13152, Note_on_c, 0, 67, 72
3, 13296, Note_on_c, 0, 67, 0
3, 13296, Note_on_c, 0, 67, 72
3, 13344, Note_on_c, 0, 67, 0
3, 13344, Note_on_c, 0, 60, 72
3, 13440, Note_on_c, 0, 60, 0
3, 13440, Note_on_c, 0, 60, 72
3, 13488, Note_on_c, 0, 60, 0
3, 13488, Note_on_c, 0, 57, 72
3, 13536, Note_on_c, 0, 57, 0
3, 13536, Note_on_c, 0, 58, 72
3, 13632, Note_on_c, 0, 58, 0
3, 13632, Note_on_c, 0, 57, 72
3, 13824, Note_on_c, 0, 57, 0
3, 13824, Note_on_c, 0, 57, 72
3, 13872, Note_on_c, 0, 57, 0
3, 13872, Note_on_c, 0, 53, 72
3, 13920, Note_on_c, 0, 53, 0
3, 13920, Note_on_c, 0, 55, 72
3, 14016, Note_on_c, 0, 55, 0
3, 14016, Note_on_c, 0, 60, 72
3, 14208, Note_on_c, 0, 60, 0
3, 14208, Note_on_c, 0, 60, 72
3, 14256, Note_on_c, 0, 60, 0
3, 14256, Note_on_c, 0, 57, 72
3, 14304, Note_on_c, 0, 57, 0
3, 14304, Note_on_c, 0, 59, 72
3, 14400, Note_on_c, 0, 59, 0
3, 14400, Note_on_c, 0, 64, 72
3, 14592, Note_on_c, 0, 64, 0
3, 14592, Note_on_c, 0, 64, 72
3, 14640, Note_on_c, 0, 64, 0
3, 14640, Note_on_c, 0, 61, 72
3, 14688, Note_on_c, 0, 61, 0
3, 14688, Note_on_c, 0, 62, 72
3, 14784, Note_on_c, 0, 62, 0
3, 14784, Note_on_c, 0, 67, 72
3, 14976, Note_on_c, 0, 67, 0
3, 14976, Note_on_c, 0, 67, 72
3, 15024, Note_on_c, 0, 67, 0
3, 15024, Note_on_c, 0, 69, 72
3, 15072, Note_on_c, 0, 69, 0
3, 15072, Note_on_c, 0, 70, 72
3, 15168, Note_on_c, 0, 70, 0
3, 15168, Note_on_c, 0, 69, 72
3, 15360, Note_on_c, 0, 69, 0
3, 15360, Note_on_c, 0, 69, 72
3, 15552, Note_on_c, 0, 69, 0
3, 15552, Note_on_c, 0, 69, 72
3, 15600, Note_on_c, 0, 69, 0
3, 15600, Note_on_c, 0, 65, 72
3, 15648, Note_on_c, 0, 65, 0
3, 15648, Note_on_c, 0, 67, 72
3, 15744, Note_on_c, 0, 67, 0
3, 15744, Note_on_c, 0, 69, 72
3, 15888, Note_on_c, 0, 69, 0
3, 15888, Note_on_c, 0, 70, 72
3, 15936, Note_on_c, 0, 70, 0
3, 15936, Note_on_c, 0, 69, 72
3, 16032, Note_on_c, 0, 69, 0
3, 16032, Note_on_c, 0, 67, 72
3, 16128, Note_on_c, 0, 67, 0
3, 16128, Note_on_c, 0, 67, 72
3, 16224, Note_on_c, 0, 67, 0
3, 16224, Note_on_c, 0, 65, 72
3, 16272, Note_on_c, 0, 65, 0
3, 16272, Note_on_c, 0, 62, 72
3, 16320, Note_on_c, 0, 62, 0
3, 16320, Note_on_c, 0, 69, 72
3, 16464, Note_on_c, 0, 69, 0
3, 16464, Note_on_c, 0, 67, 72
3, 16512, Note_on_c, 0, 67, 0
3, 16512, Note_on_c, 0, 66, 72
3, 16560, Note_on_c, 0, 66, 0
3, 16560, Note_on_c, 0, 62, 72
3, 16608, Note_on_c, 0, 62, 0
3, 16608, Note_on_c, 0, 67, 72
3, 16752, Note_on_c, 0, 67, 0
3, 16752, Note_on_c, 0, 64, 72
3, 16800, Note_on_c, 0, 64, 0
3, 16800, Note_on_c, 0, 65, 72
3, 16896, Note_on_c, 0, 65, 0
3, 16896, Note_on_c, 0, 65, 72
3, 16944, Note_on_c, 0, 65, 0
3, 16944, Note_on_c, 0, 62, 72
3, 16992, Note_on_c, 0, 62, 0
3, 16992, Note_on_c, 0, 67, 72
3, 17136, Note_on_c, 0, 67, 0
3, 17136, Note_on_c, 0, 64, 72
3, 17184, Note_on_c, 0, 64, 0
3, 17184, Note_on_c, 0, 69, 72
3, 17280, Note_on_c, 0, 69, 0
3, 17280, Note_on_c, 0, 69, 72
3, 17328, Note_on_c, 0, 69, 0
3, 17328, Note_on_c, 0, 65, 72
3, 17376, Note_on_c, 0, 65, 0
3, 17376, Note_on_c, 0, 70, 72
3, 17520, Note_on_c, 0, 70, 0
3, 17520, Note_on_c, 0, 67, 72
3, 17568, Note_on_c, 0, 67, 0
3, 17568, Note_on_c, 0, 69, 72
3, 17664, Note_on_c, 0, 69, 0
3, 17664, Note_on_c, 0, 69, 72
3, 17712, Note_on_c, 0, 69, 0
3, 17712, Note_on_c, 0, 65, 72
3, 17760, Note_on_c, 0, 65, 0
3, 17760, Note_on_c, 0, 67, 72
3, 17952, Note_on_c, 0, 67, 0
3, 17952, Note_on_c, 0, 65, 72
3, 18000, Note_on_c, 0, 65, 0
3, 18000, Note_on_c, 0, 62, 72
3, 18048, Note_on_c, 0, 62, 0
3, 18048, Note_on_c, 0, 69, 88
3, 18240, Note_on_c, 0, 69, 0
3, 18240, Note_on_c, 0, 74, 88
3, 18432, Note_on_c, 0, 74, 0
3, 18432, Note_on_c, 0, 74, 88
3, 18480, Note_on_c, 0, 74, 0
3, 18480, Note_on_c, 0, 73, 72
3, 18528, Note_on_c, 0, 73, 0
3, 18528, Note_on_c, 0, 71, 72
3, 18576, Note_on_c, 0, 71, 0
3, 18576, Note_on_c, 0, 73, 72
3, 18624, Note_on_c, 0, 73, 0
3, 18624, Note_on_c, 0, 74, 72
3, 18672, Note_on_c, 0, 74, 0
3, 18672, Note_on_c, 0, 69, 72
3, 18720, Note_on_c, 0, 69, 0
3, 18720, Note_on_c, 0, 76, 72
3, 18816, Note_on_c, 0, 76, 0
3, 18816, Note_on_c, 0, 76, 72
3, 18864, Note_on_c, 0, 76, 0
3, 18864, Note_on_c, 0, 69, 72
3, 18912, Note_on_c, 0, 69, 0
3, 18912, Note_on_c, 0, 74, 72
3, 19008, Note_on_c, 0, 74, 0
3, 19056, Note_on_c, 0, 65, 72
3, 19104, Note_on_c, 0, 65, 0
3, 19104, Note_on_c, 0, 70, 72
3, 19200, Note_on_c, 0, 70, 0
3, 19200, Note_on_c, 0, 70, 72
3, 19248, Note_on_c, 0, 70, 0
3, 19248, Note_on_c, 0, 64, 72
3, 19296, Note_on_c, 0, 64, 0
3, 19296, Note_on_c, 0, 69, 72
3, 19440, Note_on_c, 0, 69, 0
3, 19440, Note_on_c, 0, 67, 72
3, 19488, Note_on_c, 0, 67, 0
3, 19488, Note_on_c, 0, 65, 72
3, 19536, Note_on_c, 0, 65, 0
3, 19536, Note_on_c, 0, 64, 72
3, 19584, Note_on_c, 0, 64, 0
3, 19584, Note_on_c, 0, 62, 72
3, 19632, Note_on_c, 0, 62, 0
3, 19632, Note_on_c, 0, 69, 72
3, 19680, Note_on_c, 0, 69, 0
3, 19680, Note_on_c, 0, 74, 72
3, 19728, Note_on_c, 0, 74, 0
3, 19728, Note_on_c, 0, 71, 72
3, 19776, Note_on_c, 0, 71, 0
3, 19776, Note_on_c, 0, 67, 72
3, 19824, Note_on_c, 0, 67, 0
3, 19824, Note_on_c, 0, 64, 72
3, 19872, Note_on_c, 0, 64, 0
3, 19872, Note_on_c, 0, 72, 72
3, 19968, Note_on_c, 0, 72, 0
3, 19968, Note_on_c, 0, 72, 72
3, 20064, Note_on_c, 0, 72, 0
3, 20064, Note_on_c, 0, 70, 72
3, 20160, Note_on_c, 0, 70, 0
3, 20160, Note_on_c, 0, 69, 72
3, 20352, Note_on_c, 0, 69, 0
3, 20352, Note_on_c, 0, 67, 72
3, 20496, Note_on_c, 0, 67, 0
3, 20496, Note_on_c, 0, 65, 72
3, 20544, Note_on_c, 0, 65, 0
3, 20544, Note_on_c, 0, 64, 72
3, 20736, Note_on_c, 0, 64, 0
3, 20736, Note_on_c, 0, 64, 72
3, 20832, Note_on_c, 0, 64, 0
3, 20832, Note_on_c, 0, 62, 72
3, 20880, Note_on_c, 0, 62, 0
3, 20880, Note_on_c, 0, 61, 72
3, 20928, Note_on_c, 0, 61, 0
3, 20928, Note_on_c, 0, 62, 72
3, 21024, Note_on_c, 0, 62, 0
3, 21024, Note_on_c, 0, 67, 72
3, 21120, Note_on_c, 0, 67, 0
3, 21120, Note_on_c, 0, 67, 72
3, 21264, Note_on_c, 0, 67, 0
3, 21264, Note_on_c, 0, 65, 72
3, 21312, Note_on_c, 0, 65, 0
3, 21312, Note_on_c, 0, 64, 72
3, 21456, Note_on_c, 0, 64, 0
3, 21456, Note_on_c, 0, 64, 72
3, 21504, Note_on_c, 0, 64, 0
3, 21504, Note_on_c, 0, 69, 72
3, 21792, Note_on_c, 0, 69, 0
3, 21792, Note_on_c, 0, 67, 72
3, 21840, Note_on_c, 0, 67, 0
3, 21840, Note_on_c, 0, 70, 72
3, 21888, Note_on_c, 0, 70, 0
3, 21888, Note_on_c, 0, 69, 72
3, 22080, Note_on_c, 0, 69, 0
3, 22080, Note_on_c, 0, 69, 72
3, 22128, Note_on_c, 0, 69, 0
3, 22128, Note_on_c, 0, 67, 72
3, 22176, Note_on_c, 0, 67, 0
3, 22176, Note_on_c, 0, 65, 72
3, 22224, Note_on_c, 0, 65, 0
3, 22224, Note_on_c, 0, 64, 72
3, 22272, Note_on_c, 0, 64, 0
3, 22272, Note_on_c, 0, 62, 72
3, 22560, Note_on_c, 0, 62, 0
3, 22560, Note_on_c, 0, 64, 72
3, 22656, Note_on_c, 0, 64, 0
3, 22656, Note_on_c, 0, 57, 72
3, 22752, Note_on_c, 0, 57, 0
3, 22944, Note_on_c, 0, 63, 72
3, 23040, Note_on_c, 0, 63, 0
3, 23040, Note_on_c, 0, 62, 72
3, 23232, Note_on_c, 0, 62, 0
3, 23328, Note_on_c, 0, 66, 72
3, 23424, Note_on_c, 0, 66, 0
3, 23424, Note_on_c, 0, 67, 72
3, 23472, Note_on_c, 0, 67, 0
3, 23472, Note_on_c, 0, 66, 72
3, 23520, Note_on_c, 0, 66, 0
3, 23520, Note_on_c, 0, 67, 72
3, 23616, Note_on_c, 0, 67, 0
3, 23712, Note_on_c, 0, 70, 72
3, 23808, Note_on_c, 0, 70, 0
3, 23808, Note_on_c, 0, 70, 72
3, 23856, Note_on_c, 0, 70, 0
3, 23856, Note_on_c, 0, 69, 72
3, 23904, Note_on_c, 0, 69, 0
3, 23904, Note_on_c, 0, 77, 72
3, 23952, Note_on_c, 0, 77, 0
3, 23952, Note_on_c, 0, 74, 72
3, 24000, Note_on_c, 0, 74, 0
3, 24000, Note_on_c, 0, 71, 72
3, 24096, Note_on_c, 0, 71, 0
3, 24096, Note_on_c, 0, 76, 72
3, 24144, Note_on_c, 0, 76, 0
3, 24144, Note_on_c, 0, 73, 72
3, 24192, Note_on_c, 0, 73, 0
3, 24192, Note_on_c, 0, 69, 72
3, 24288, Note_on_c, 0, 69, 0
3, 24288, Note_on_c, 0, 74, 72
3, 24336, Note_on_c, 0, 74, 0
3, 24336, Note_on_c, 0, 69, 72
3, 24384, Note_on_c, 0, 69, 0
3, 24384, Note_on_c, 0, 70, 72
3, 24528, Note_on_c, 0, 70, 0
3, 24528, Note_on_c, 0, 67, 72
3, 24576, Note_on_c, 0, 67, 0
3, 24576, Note_on_c, 0, 69, 72
3, 24720, Note_on_c, 0, 69, 0
3, 24720, Note_on_c, 0, 65, 72
3, 24768, Note_on_c, 0, 65, 0
3, 24768, Note_on_c, 0, 64, 72
3, 24912, Note_on_c, 0, 64, 0
3, 24912, Note_on_c, 0, 67, 72
3, 24960, Note_on_c, 0, 67, 0
3, 24960, Note_on_c, 0, 66, 72
3, 25008, Note_on_c, 0, 66, 0
3, 25008, Note_on_c, 0, 62, 72
3, 25056, Note_on_c, 0, 62, 0
3, 25056, Note_on_c, 0, 67, 72
3, 25200, Note_on_c, 0, 67, 0
3, 25200, Note_on_c, 0, 64, 72
3, 25248, Note_on_c, 0, 64, 0
3, 25248, Note_on_c, 0, 65, 72
3, 25344, Note_on_c, 0, 65, 0
3, 25344, Note_on_c, 0, 65, 72
3, 25392, Note_on_c, 0, 65, 0
3, 25392, Note_on_c, 0, 74, 72
3, 25440, Note_on_c, 0, 74, 0
3, 25440, Note_on_c, 0, 72, 72
3, 25632, Note_on_c, 0, 72, 0
3, 25632, Note_on_c, 0, 72, 72
3, 25680, Note_on_c, 0, 72, 0
3, 25680, Note_on_c, 0, 72, 72
3, 25728, Note_on_c, 0, 72, 0
3, 25728, Note_on_c, 0, 70, 72
3, 25776, Note_on_c, 0, 70, 0
3, 25776, Note_on_c, 0, 69, 72
3, 25824, Note_on_c, 0, 69, 0
3, 25824, Note_on_c, 0, 68, 72
3, 25920, Note_on_c, 0, 68, 0
3, 25920, Note_on_c, 0, 69, 72
3, 26064, Note_on_c, 0, 69, 0
3, 26064, Note_on_c, 0, 64, 72
3, 26112, Note_on_c, 0, 64, 0
3, 26112, Note_on_c, 0, 69, 72
3, 26208, Note_on_c, 0, 69, 0
3, 26208, Note_on_c, 0, 67, 72
3, 26400, Note_on_c, 0, 67, 0
3, 26400, Note_on_c, 0, 67, 72
3, 26448, Note_on_c, 0, 67, 0
3, 26448, Note_on_c, 0, 72, 72
3, 26496, Note_on_c, 0, 72, 0
3, 26496, Note_on_c, 0, 69, 72
3, 26592, Note_on_c, 0, 69, 0
3, 26592, Note_on_c, 0, 67, 72
3, 26784, Note_on_c, 0, 67, 0
3, 27072, Note_on_c, 0, 69, 72
3, 27168, Note_on_c, 0, 69, 0
3, 27456, Note_on_c, 0, 71, 88
3, 27648, Note_on_c, 0, 71, 0
3, 27648, Note_on_c, 0, 69, 88
3, 27936, Note_on_c, 0, 69, 0
3, 27936, Note_on_c, 0, 69, 88
3, 27984, Note_on_c, 0, 69, 0
3, 27984, Note_on_c, 0, 67, 88
3, 28032, Note_on_c, 0, 67, 0
3, 28032, Note_on_c, 0, 66, 88
3, 28080, Note_on_c, 0, 66, 0
3, 28080, Note_on_c, 0, 67, 88
3, 28128, Note_on_c, 0, 67, 0
3, 28128, Note_on_c, 0, 69, 88
3, 28272, Note_on_c, 0, 69, 0
3, 28272, Note_on_c, 0, 67, 88
3, 28320, Note_on_c, 0, 67, 0
3, 28320, Note_on_c, 0, 72, 88
3, 28416, Note_on_c, 0, 72, 0
3, 28416, Note_on_c, 0, 72, 88
3, 28464, Note_on_c, 0, 72, 0
3, 28464, Note_on_c, 0, 66, 88
3, 28512, Note_on_c, 0, 66, 0
3, 28512, Note_on_c, 0, 67, 88
3, 28560, Note_on_c, 0, 67, 0
3, 28560, Note_on_c, 0, 70, 88
3, 28608, Note_on_c, 0, 70, 0
3, 28608, Note_on_c, 0, 63, 88
3, 28800, Note_on_c, 0, 63, 0
3, 28800, Note_on_c, 0, 62, 88
3, 28896, Note_on_c, 0, 62, 0
3, 28896, Note_on_c, 0, 57, 88
3, 28992, Note_on_c, 0, 57, 0
3, 28992, Note_on_c, 0, 58, 88
3, 29088, Note_on_c, 0, 58, 0
3, 29088, Note_on_c, 0, 60, 88
3, 29184, Note_on_c, 0, 60, 0
3, 29184, Note_on_c, 0, 62, 88
3, 29280, Note_on_c, 0, 62, 0
3, 29280, Note_on_c, 0, 55, 88
3, 29328, Note_on_c, 0, 55, 0
3, 29328, Note_on_c, 0, 55, 88
3, 29376, Note_on_c, 0, 55, 0
3, 29376, Note_on_c, 0, 55, 88
3, 29424, Note_on_c, 0, 55, 0
3, 29424, Note_on_c, 0, 70, 88
3, 29472, Note_on_c, 0, 70, 0
3, 29472, Note_on_c, 0, 69, 88
3, 29520, Note_on_c, 0, 69, 0
3, 29520, Note_on_c, 0, 67, 88
3, 29568, Note_on_c, 0, 67, 0
3, 29568, Note_on_c, 0, 67, 88
3, 29616, Note_on_c, 0, 67, 0
3, 29616, Note_on_c, 0, 66, 88
3, 29664, Note_on_c, 0, 66, 0
3, 29664, Note_on_c, 0, 64, 88
3, 29712, Note_on_c, 0, 64, 0
3, 29712, Note_on_c, 0, 67, 88
3, 29760, Note_on_c, 0, 67, 0
3, 29760, Note_on_c, 0, 66, 88
3, 29952, Note_on_c, 0, 66, 0
3, 29952, End_track
4, 0, Start_track
4, 4608, Note_on_c, 0, 57, 88
4, 4800, Note_on_c, 0, 57, 0
4, 4800, Note_on_c, 0, 62, 88
4, 4992, Note_on_c, 0, 62, 0
4, 4992, Note_on_c, 0, 60, 88
4, 5184, Note_on_c, 0, 60, 0
4, 5184, Note_on_c, 0, 57, 88
4, 5376, Note_on_c, 0, 57, 0
4, 5376, Note_on_c, 0, 56, 88
4, 5568, Note_on_c, 0, 56, 0
4, 5568, Note_on_c, 0, 57, 88
4, 5664, Note_on_c, 0, 57, 0
4, 5664, Note_on_c, 0, 59, 88
4, 5760, Note_on_c, 0, 59, 0
4, 5760, Note_on_c, 0, 60, 88
4, 5952, Note_on_c, 0, 60, 0
4, 5952, Note_on_c, 0, 60, 88
4, 6000, Note_on_c, 0, 60, 0
4, 6000, Note_on_c, 0, 62, 88
4, 6048, Note_on_c, 0, 62, 0
4, 6048, Note_on_c, 0, 60, 88
4, 6096, Note_on_c, 0, 60, 0
4, 6096, Note_on_c, 0, 58, 88
4, 6144, Note_on_c, 0, 58, 0
4, 6144, Note_on_c, 0, 57, 88
4, 6336, Note_on_c, 0, 57, 0
4, 6336, Note_on_c, 0, 57, 88
4, 6384, Note_on_c, 0, 57, 0
4, 6384, Note_on_c, 0, 53, 72
4, 6432, Note_on_c, 0, 53, 0
4, 6432, Note_on_c, 0, 55, 72
4, 6528, Note_on_c, 0, 55, 0
4, 6528, Note_on_c, 0, 60, 72
4, 6720, Note_on_c, 0, 60, 0
4, 6720, Note_on_c, 0, 60, 72
4, 6768, Note_on_c, 0, 60, 0
4, 6768, Note_on_c, 0, 57, 72
4, 6816, Note_on_c, 0, 57, 0
4, 6816, Note_on_c, 0, 59, 72
4, 6912, Note_on_c, 0, 59, 0
4, 6912, Note_on_c, 0, 64, 72
4, 7104, Note_on_c, 0, 64, 0
4, 7104, Note_on_c, 0, 64, 72
4, 7152, Note_on_c, 0, 64, 0
4, 7152, Note_on_c, 0, 61, 72
4, 7200, Note_on_c, 0, 61, 0
4, 7200, Note_on_c, 0, 62, 72
4, 7296, Note_on_c, 0, 62, 0
4, 7296, Note_on_c, 0, 67, 72
4, 7488, Note_on_c, 0, 67, 0
4, 7488, Note_on_c, 0, 67, 72
4, 7536, Note_on_c, 0, 67, 0
4, 7536, Note_on_c, 0, 64, 72
4, 7584, Note_on_c, 0, 64, 0
4, 7584, Note_on_c, 0, 65, 72
4, 7680, Note_on_c, 0, 65, 0
4, 7680, Note_on_c, 0, 64, 72
4, 7824, Note_on_c, 0, 64, 0
4, 7824, Note_on_c, 0, 69, 72
4, 7872, Note_on_c, 0, 69, 0
4, 7872, Note_on_c, 0, 62, 72
4, 8016, Note_on_c, 0, 62, 0
4, 8016, Note_on_c, 0, 64, 72
4, 8064, Note_on_c, 0, 64, 0
4, 8064, Note_on_c, 0, 61, 72
4, 8160, Note_on_c, 0, 61, 0
4, 8160, Note_on_c, 0, 62, 72
4, 8208, Note_on_c, 0, 62, 0
4, 8208, Note_on_c, 0, 57, 72
4, 8256, Note_on_c, 0, 57, 0
4, 8256, Note_on_c, 0, 59, 72
4, 8400, Note_on_c, 0, 59, 0
4, 8400, Note_on_c, 0, 61, 72
4, 8448, Note_on_c, 0, 61, 0
4, 8448, Note_on_c, 0, 62, 72
4, 8544, Note_on_c, 0, 62, 0
4, 8544, Note_on_c, 0, 57, 72
4, 8832, Note_on_c, 0, 57, 0
4, 8832, Note_on_c, 0, 57, 72
4, 9024, Note_on_c, 0, 57, 0
4, 9024, Note_on_c, 0, 58, 72
4, 9216, Note_on_c, 0, 58, 0
4, 9264, Note_on_c, 0, 52, 72
4, 9312, Note_on_c, 0, 52, 0
4, 9312, Note_on_c, 0, 57, 72
4, 9456, Note_on_c, 0, 57, 0
4, 9456, Note_on_c, 0, 58, 72
4, 9504, Note_on_c, 0, 58, 0
4, 9504, Note_on_c, 0, 57, 72
4, 9552, Note_on_c, 0, 57, 0
4, 9552, Note_on_c, 0, 55, 72
4, 9600, Note_on_c, 0, 55, 0
4, 9600, Note_on_c, 0, 57, 72
4, 9696, Note_on_c, 0, 57, 0
4, 9696, Note_on_c, 0, 59, 72
4, 9792, Note_on_c, 0, 59, 0
4, 9792, Note_on_c, 0, 60, 72
4, 9984, Note_on_c, 0, 60, 0
4, 9984, Note_on_c, 0, 60, 72
4, 10032, Note_on_c, 0, 60, 0
4, 10032, Note_on_c, 0, 57, 72
4, 10080, Note_on_c, 0, 57, 0
4, 10080, Note_on_c, 0, 58, 72
4, 10176, Note_on_c, 0, 58, 0
4, 10176, Note_on_c, 0, 57, 72
4, 10272, Note_on_c, 0, 57, 0
4, 10272, Note_on_c, 0, 62, 72
4, 10368, Note_on_c, 0, 62, 0
4, 10368, Note_on_c, 0, 62, 72
4, 10416, Note_on_c, 0, 62, 0
4, 10416, Note_on_c, 0, 59, 72
4, 10464, Note_on_c, 0, 59, 0
4, 10464, Note_on_c, 0, 60, 72
4, 10560, Note_on_c, 0, 60, 0
4, 10560, Note_on_c, 0, 59, 72
4, 10656, Note_on_c, 0, 59, 0
4, 10656, Note_on_c, 0, 64, 72
4, 10752, Note_on_c, 0, 64, 0
4, 10752, Note_on_c, 0, 64, 72
4, 10800, Note_on_c, 0, 64, 0
4, 10800, Note_on_c, 0, 57, 72
4, 10848, Note_on_c, 0, 57, 0
4, 10848, Note_on_c, 0, 62, 72
4, 10992, Note_on_c, 0, 62, 0
4, 10992, Note_on_c, 0, 62, 72
4, 11040, Note_on_c, 0, 62, 0
4, 11040, Note_on_c, 0, 60, 72
4, 11088, Note_on_c, 0, 60, 0
4, 11088, Note_on_c, 0, 59, 72
4, 11136, Note_on_c, 0, 59, 0
4, 11136, Note_on_c, 0, 60, 72
4, 11184, Note_on_c, 0, 60, 0
4, 11184, Note_on_c, 0, 62, 72
4, 11232, Note_on_c, 0, 62, 0
4, 11232, Note_on_c, 0, 64, 72
4, 11376, Note_on_c, 0, 64, 0
4, 11376, Note_on_c, 0, 64, 72
4, 11424, Note_on_c, 0, 64, 0
4, 11424, Note_on_c, 0, 62, 72
4, 11472, Note_on_c, 0, 62, 0
4, 11472, Note_on_c, 0, 60, 72
4, 11520, Note_on_c, 0, 60, 0
4, 11520, Note_on_c, 0, 59, 72
4, 11712, Note_on_c, 0, 59, 0
4, 11712, Note_on_c, 0, 60, 72
4, 11808, Note_on_c, 0, 60, 0
4, 11808, Note_on_c, 0, 56, 72
4, 11904, Note_on_c, 0, 56, 0
4, 11904, Note_on_c, 0, 57, 72
4, 11952, Note_on_c, 0, 57, 0
4, 11952, Note_on_c, 0, 55, 72
4, 12000, Note_on_c, 0, 55, 0
4, 12000, Note_on_c, 0, 54, 72
4, 12048, Note_on_c, 0, 54, 0
4, 12048, Note_on_c, 0, 52, 72
4, 12096, Note_on_c, 0, 52, 0
4, 12096, Note_on_c, 0, 54, 72
4, 12192, Note_on_c, 0, 54, 0
4, 12192, Note_on_c, 0, 55, 72
4, 12288, Note_on_c, 0, 55, 0
4, 12288, Note_on_c, 0, 55, 72
4, 12336, Note_on_c, 0, 55, 0
4, 12336, Note_on_c, 0, 55, 72
4, 12384, Note_on_c, 0, 55, 0
4, 12384, Note_on_c, 0, 53, 72
4, 12432, Note_on_c, 0, 53, 0
4, 12432, Note_on_c, 0, 52, 72
4, 12480, Note_on_c, 0, 52, 0
4, 12480, Note_on_c, 0, 53, 72
4, 12528, Note_on_c, 0, 53, 0
4, 12528, Note_on_c, 0, 52, 72
4, 12576, Note_on_c, 0, 52, 0
4, 12576, Note_on_c, 0, 50, 72
4, 12624, Note_on_c, 0, 50, 0
4, 12624, Note_on_c, 0, 49, 72
4, 12672, Note_on_c, 0, 49, 0
4, 12672, Note_on_c, 0, 50, 72
4, 12864, Note_on_c, 0, 50, 0
4, 14976, Note_on_c, 0, 52, 88
4, 15168, Note_on_c, 0, 52, 0
4, 15168, Note_on_c, 0, 57, 88
4, 15360, Note_on_c, 0, 57, 0
4, 15360, Note_on_c, 0, 53, 88
4, 15552, Note_on_c, 0, 53, 0
4, 15552, Note_on_c, 0, 50, 88
4, 15744, Note_on_c, 0, 50, 0
4, 15744, Note_on_c, 0, 49, 88
4, 15936, Note_on_c, 0, 49, 0
4, 15936, Note_on_c, 0, 50, 88
4, 16032, Note_on_c, 0, 50, 0
4, 16032, Note_on_c, 0, 52, 88
4, 16128, Note_on_c, 0, 52, 0
4, 16128, Note_on_c, 0, 53, 88
4, 16320, Note_on_c, 0, 53, 0
4, 16320, Note_on_c, 0, 53, 88
4, 16368, Note_on_c, 0, 53, 0
4, 16368, Note_on_c, 0, 55, 88
4, 16416, Note_on_c, 0, 55, 0
4, 16416, Note_on_c, 0, 53, 88
4, 16464, Note_on_c, 0, 53, 0
4, 16464, Note_on_c, 0, 52, 88
4, 16512, Note_on_c, 0, 52, 0
4, 16512, Note_on_c, 0, 50, 88
4, 16800, Note_on_c, 0, 50, 0
4, 16800, Note_on_c, 0, 57, 72
4, 16848, Note_on_c, 0, 57, 0
4, 16848, Note_on_c, 0, 53, 72
4, 16896, Note_on_c, 0, 53, 0
4, 16896, Note_on_c, 0, 58, 72
4, 17040, Note_on_c, 0, 58, 0
4, 17040, Note_on_c, 0, 55, 72
4, 17088, Note_on_c, 0, 55, 0
4, 17088, Note_on_c, 0, 60, 72
4, 17232, Note_on_c, 0, 60, 0
4, 17232, Note_on_c, 0, 57, 72
4, 17280, Note_on_c, 0, 57, 0
4, 17280, Note_on_c, 0, 62, 72
4, 17376, Note_on_c, 0, 62, 0
4, 17376, Note_on_c, 0, 55, 72
4, 17472, Note_on_c, 0, 55, 0
4, 17472, Note_on_c, 0, 60, 72
4, 17568, Note_on_c, 0, 60, 0
4, 17568, Note_on_c, 0, 53, 72
4, 17664, Note_on_c, 0, 53, 0
4, 17664, Note_on_c, 0, 58, 72
4, 17760, Note_on_c, 0, 58, 0
4, 17760, Note_on_c, 0, 52, 72
4, 17856, Note_on_c, 0, 52, 0
4, 17856, Note_on_c, 0, 57, 72
4, 18048, Note_on_c, 0, 57, 0
4, 18048, Note_on_c, 0, 52, 72
4, 18144, Note_on_c, 0, 52, 0
4, 18144, Note_on_c, 0, 57, 72
4, 18288, Note_on_c, 0, 57, 0
4, 18288, Note_on_c, 0, 56, 72
4, 18336, Note_on_c, 0, 56, 0
4, 18336, Note_on_c, 0, 54, 72
4, 18384, Note_on_c, 0, 54, 0
4, 18384, Note_on_c, 0, 56, 72
4, 18432, Note_on_c, 0, 56, 0
4, 18432, Note_on_c, 0, 57, 72
4, 18576, Note_on_c, 0, 57, 0
4, 18576, Note_on_c, 0, 55, 72
4, 18624, Note_on_c, 0, 55, 0
4, 18624, Note_on_c, 0, 53, 72
4, 18672, Note_on_c, 0, 53, 0
4, 18672, Note_on_c, 0, 52, 72
4, 18720, Note_on_c, 0, 52, 0
4, 18720, Note_on_c, 0, 50, 72
4, 18768, Note_on_c, 0, 50, 0
4, 18768, Note_on_c, 0, 49, 72
4, 18816, Note_on_c, 0, 49, 0
4, 18816, Note_on_c, 0, 50, 72
4, 18912, Note_on_c, 0, 50, 0
4, 18912, Note_on_c, 0, 53, 72
4, 18960, Note_on_c, 0, 53, 0
4, 18960, Note_on_c, 0, 50, 72
4, 19008, Note_on_c, 0, 50, 0
4, 19008, Note_on_c, 0, 58, 72
4, 19104, Note_on_c, 0, 58, 0
4, 19104, Note_on_c, 0, 55, 72
4, 19152, Note_on_c, 0, 55, 0
4, 19152, Note_on_c, 0, 52, 72
4, 19200, Note_on_c, 0, 52, 0
4, 19200, Note_on_c, 0, 57, 72
4, 19344, Note_on_c, 0, 57, 0
4, 19344, Note_on_c, 0, 65, 72
4, 19392, Note_on_c, 0, 65, 0
4, 19392, Note_on_c, 0, 59, 72
4, 19488, Note_on_c, 0, 59, 0
4, 19488, Note_on_c, 0, 61, 72
4, 19584, Note_on_c, 0, 61, 0
4, 19584, Note_on_c, 0, 62, 72
4, 19680, Note_on_c, 0, 62, 0
4, 19680, Note_on_c, 0, 59, 72
4, 19728, Note_on_c, 0, 59, 0
4, 19728, Note_on_c, 0, 55, 72
4, 19776, Note_on_c, 0, 55, 0
4, 19776, Note_on_c, 0, 60, 72
4, 19872, Note_on_c, 0, 60, 0
4, 19872, Note_on_c, 0, 57, 72
4, 19920, Note_on_c, 0, 57, 0
4, 19920, Note_on_c, 0, 53, 72
4, 19968, Note_on_c, 0, 53, 0
4, 19968, Note_on_c, 0, 58, 72
4, 20016, Note_on_c, 0, 58, 0
4, 20016, Note_on_c, 0, 62, 72
4, 20064, Note_on_c, 0, 62, 0
4, 20064, Note_on_c, 0, 67, 72
4, 20208, Note_on_c, 0, 67, 0
4, 20208, Note_on_c, 0, 64, 72
4, 20256, Note_on_c, 0, 64, 0
4, 20256, Note_on_c, 0, 65, 72
4, 20352, Note_on_c, 0, 65, 0
4, 20352, Note_on_c, 0, 65, 72
4, 20400, Note_on_c, 0, 65, 0
4, 20400, Note_on_c, 0, 65, 72
4, 20448, Note_on_c, 0, 65, 0
4, 20448, Note_on_c, 0, 64, 72
4, 20496, Note_on_c, 0, 64, 0
4, 20496, Note_on_c, 0, 62, 72
4, 20544, Note_on_c, 0, 62, 0
4, 20544, Note_on_c, 0, 61, 72
4, 20736, Note_on_c, 0, 61, 0
4, 20736, Note_on_c, 0, 62, 72
4, 20784, Note_on_c, 0, 62, 0
4, 20784, Note_on_c, 0, 60, 72
4, 20832, Note_on_c, 0, 60, 0
4, 20832, Note_on_c, 0, 58, 72
4, 20880, Note_on_c, 0, 58, 0
4, 20880, Note_on_c, 0, 57, 72
4, 20928, Note_on_c, 0, 57, 0
4, 20928, Note_on_c, 0, 55, 72
4, 20976, Note_on_c, 0, 55, 0
4, 20976, Note_on_c, 0, 57, 72
4, 21024, Note_on_c, 0, 57, 0
4, 21024, Note_on_c, 0, 58, 72
4, 21072, Note_on_c, 0, 58, 0
4, 21072, Note_on_c, 0, 60, 72
4, 21120, Note_on_c, 0, 60, 0
4, 21120, Note_on_c, 0, 62, 72
4, 21168, Note_on_c, 0, 62, 0
4, 21168, Note_on_c, 0, 57, 72
4, 21216, Note_on_c, 0, 57, 0
4, 21216, Note_on_c, 0, 62, 72
4, 21360, Note_on_c, 0, 62, 0
4, 21360, Note_on_c, 0, 59, 72
4, 21408, Note_on_c, 0, 59, 0
4, 21408, Note_on_c, 0, 61, 72
4, 21504, Note_on_c, 0, 61, 0
4, 21504, Note_on_c, 0, 61, 72
4, 21552, Note_on_c, 0, 61, 0
4, 21552, Note_on_c, 0, 64, 72
4, 21600, Note_on_c, 0, 64, 0
4, 21600, Note_on_c, 0, 57, 72
4, 21648, Note_on_c, 0, 57, 0
4, 21648, Note_on_c, 0, 61, 72
4, 21696, Note_on_c, 0, 61, 0
4, 21696, Note_on_c, 0, 62, 72
4, 21792, Note_on_c, 0, 62, 0
4, 21792, Note_on_c, 0, 58, 72
4, 21840, Note_on_c, 0, 58, 0
4, 21840, Note_on_c, 0, 55, 72
4, 21888, Note_on_c, 0, 55, 0
4, 21888, Note_on_c, 0, 52, 72
4, 22080, Note_on_c, 0, 52, 0
4, 22080, Note_on_c, 0, 53, 72
4, 22176, Note_on_c, 0, 53, 0
4, 22176, Note_on_c, 0, 55, 72
4, 22272, Note_on_c, 0, 55, 0
4, 22272, Note_on_c, 0, 57, 72
4, 22464, Note_on_c, 0, 57, 0
4, 22464, Note_on_c, 0, 59, 72
4, 22560, Note_on_c, 0, 59, 0
4, 22560, Note_on_c, 0, 61, 72
4, 22656, Note_on_c, 0, 61, 0
4, 22656, Note_on_c, 0, 62, 72
4, 22752, Note_on_c, 0, 62, 0
4, 22944, Note_on_c, 0, 54, 72
4, 23040, Note_on_c, 0, 54, 0
4, 23040, Note_on_c, 0, 55, 72
4, 23088, Note_on_c, 0, 55, 0
4, 23088, Note_on_c, 0, 57, 72
4, 23136, Note_on_c, 0, 57, 0
4, 23136, Note_on_c, 0, 58, 72
4, 23232, Note_on_c, 0, 58, 0
4, 23328, Note_on_c, 0, 60, 72
4, 23424, Note_on_c, 0, 60, 0
4, 23424, Note_on_c, 0, 62, 72
4, 23616, Note_on_c, 0, 62, 0
4, 23664, Note_on_c, 0, 55, 72
4, 23760, Note_on_c, 0, 55, 0
4, 23760, Note_on_c, 0, 53, 72
4, 23808, Note_on_c, 0, 53, 0
4, 23808, Note_on_c, 0, 52, 72
4, 24000, Note_on_c, 0, 52, 0
4, 24288, Note_on_c, 0, 53, 72
4, 24336, Note_on_c, 0, 53, 0
4, 24336, Note_on_c, 0, 50, 72
4, 24384, Note_on_c, 0, 50, 0
4, 24384, Note_on_c, 0, 55, 72
4, 24528, Note_on_c, 0, 55, 0
4, 24528, Note_on_c, 0, 49, 72
4, 24576, Note_on_c, 0, 49, 0
4, 24576, Note_on_c, 0, 53, 72
4, 24720, Note_on_c, 0, 53, 0
4, 24720, Note_on_c, 0, 50, 72
4, 24768, Note_on_c, 0, 50, 0
4, 24768, Note_on_c, 0, 57, 72
4, 24960, Note_on_c, 0, 57, 0
4, 24960, Note_on_c, 0, 50, 72
4, 25056, Note_on_c, 0, 50, 0
4, 25056, Note_on_c, 0, 62, 72
4, 25248, Note_on_c, 0, 62, 0
4, 25248, Note_on_c, 0, 57, 72
4, 25296, Note_on_c, 0, 57, 0
4, 25296, Note_on_c, 0, 53, 72
4, 25344, Note_on_c, 0, 53, 0
4, 25344, Note_on_c, 0, 58, 72
4, 25536, Note_on_c, 0, 58, 0
4, 25536, Note_on_c, 0, 58, 72
4, 25584, Note_on_c, 0, 58, 0
4, 25584, Note_on_c, 0, 56, 72
4, 25632, Note_on_c, 0, 56, 0
4, 25632, Note_on_c, 0, 57, 72
4, 25728, Note_on_c, 0, 57, 0
4, 25728, Note_on_c, 0, 62, 72
4, 25920, Note_on_c, 0, 62, 0
4, 25920, Note_on_c, 0, 62, 72
4, 25968, Note_on_c, 0, 62, 0
4, 25968, Note_on_c, 0, 59, 72
4, 26016, Note_on_c, 0, 59, 0
4, 26016, Note_on_c, 0, 60, 72
4, 26112, Note_on_c, 0, 60, 0
4, 26112, Note_on_c, 0, 65, 72
4, 26304, Note_on_c, 0, 65, 0
4, 26304, Note_on_c, 0, 65, 72
4, 26352, Note_on_c, 0, 65, 0
4, 26352, Note_on_c, 0, 62, 72
4, 26400, Note_on_c, 0, 62, 0
4, 26400, Note_on_c, 0, 63, 72
4, 26496, Note_on_c, 0, 63, 0
4, 26496, Note_on_c, 0, 62, 72
4, 26688, Note_on_c, 0, 62, 0
4, 26688, Note_on_c, 0, 64, 72
4, 26784, Note_on_c, 0, 64, 0
4, 27072, Note_on_c, 0, 65, 72
4, 27168, Note_on_c, 0, 65, 0
4, 27456, Note_on_c, 0, 65, 88
4, 27648, Note_on_c, 0, 65, 0
4, 27648, Note_on_c, 0, 65, 88
4, 27744, Note_on_c, 0, 65, 0
4, 27744, Note_on_c, 0, 64, 88
4, 27792, Note_on_c, 0, 64, 0
4, 27792, Note_on_c, 0, 62, 88
4, 27840, Note_on_c, 0, 62, 0
4, 27840, Note_on_c, 0, 64, 88
4, 27936, Note_on_c, 0, 64, 0
4, 28032, Note_on_c, 0, 57, 104
4, 28224, Note_on_c, 0, 57, 0
4, 28224, Note_on_c, 0, 62, 104
4, 28416, Note_on_c, 0, 62, 0
4, 28416, Note_on_c, 0, 58, 104
4, 28608, Note_on_c, 0, 58, 0
4, 28608, Note_on_c, 0, 55, 104
4, 28800, Note_on_c, 0, 55, 0
4, 28800, Note_on_c, 0, 54, 104
4, 28992, Note_on_c, 0, 54, 0
4, 28992, Note_on_c, 0, 55, 104
4, 29088, Note_on_c, 0, 55, 0
4, 29088, Note_on_c, 0, 57, 104
4, 29184, Note_on_c, 0, 57, 0
4, 29184, Note_on_c, 0, 58, 104
4, 29376, Note_on_c, 0, 58, 0
4, 29376, Note_on_c, 0, 58, 88
4, 29424, Note_on_c, 0, 58, 0
4, 29424, Note_on_c, 0, 62, 88
4, 29472, Note_on_c, 0, 62, 0
4, 29472, Note_on_c, 0, 60, 88
4, 29520, Note_on_c, 0, 60, 0
4, 29520, Note_on_c, 0, 58, 88
4, 29568, Note_on_c, 0, 58, 0
4, 29568, Note_on_c, 0, 57, 88
4, 29664, Note_on_c, 0, 57, 0
4, 29664, Note_on_c, 0, 57, 88
4, 29952, Note_on_c, 0, 57, 0
4, 29952, End_track
5, 0, Start_track
5, 3072, Note_on_c, 0, 50, 88
5, 3264, Note_on_c, 0, 50, 0
5, 3264, Note_on_c, 0, 57, 88
5, 3456, Note_on_c, 0, 57, 0
5, 3456, Note_on_c, 0, 53, 88
5, 3648, Note_on_c, 0, 53, 0
5, 3648, Note_on_c, 0, 50, 88
5, 3840, Note_on_c, 0, 50, 0
5, 3840, Note_on_c, 0, 49, 88
5, 4032, Note_on_c, 0, 49, 0
5, 4032, Note_on_c, 0, 50, 88
5, 4128, Note_on_c, 0, 50, 0
5, 4128, Note_on_c, 0, 52, 88
5, 4224, Note_on_c, 0, 52, 0
5, 4224, Note_on_c, 0, 53, 88
5, 4416, Note_on_c, 0, 53, 0
5, 4416, Note_on_c, 0, 53, 88
5, 4464, Note_on_c, 0, 53, 0
5, 4464, Note_on_c, 0, 55, 88
5, 4512, Note_on_c, 0, 55, 0
5, 4512, Note_on_c, 0, 53, 88
5, 4560, Note_on_c, 0, 53, 0
5, 4560, Note_on_c, 0, 52, 88
5, 4608, Note_on_c, 0, 52, 0
5, 4608, Note_on_c, 0, 50, 88
5, 4800, Note_on_c, 0, 50, 0
5, 5088, Note_on_c, 0, 45, 72
5, 5136, Note_on_c, 0, 45, 0
5, 5136, Note_on_c, 0, 47, 72
5, 5184, Note_on_c, 0, 47, 0
5, 5184, Note_on_c, 0, 48, 72
5, 5232, Note_on_c, 0, 48, 0
5, 5232, Note_on_c, 0, 45, 72
5, 5280, Note_on_c, 0, 45, 0
5, 5280, Note_on_c, 0, 53, 72
5, 5376, Note_on_c, 0, 53, 0
5, 5376, Note_on_c, 0, 53, 72
5, 5424, Note_on_c, 0, 53, 0
5, 5424, Note_on_c, 0, 47, 72
5, 5472, Note_on_c, 0, 47, 0
5, 5472, Note_on_c, 0, 52, 72
5, 5616, Note_on_c, 0, 52, 0
5, 5616, Note_on_c, 0, 53, 72
5, 5664, Note_on_c, 0, 53, 0
5, 5664, Note_on_c, 0, 52, 72
5, 5712, Note_on_c, 0, 52, 0
5, 5712, Note_on_c, 0, 50, 72
5, 5760, Note_on_c, 0, 50, 0
5, 5760, Note_on_c, 0, 52, 72
5, 5808, Note_on_c, 0, 52, 0
5, 5808, Note_on_c, 0, 55, 72
5, 5856, Note_on_c, 0, 55, 0
5, 5856, Note_on_c, 0, 54, 72
5, 5904, Note_on_c, 0, 54, 0
5, 5904, Note_on_c, 0, 57, 72
5, 5952, Note_on_c, 0, 57, 0
5, 5952, Note_on_c, 0, 55, 72
5, 6144, Note_on_c, 0, 55, 0
5, 6144, Note_on_c, 0, 50, 72
5, 6432, Note_on_c, 0, 50, 0
5, 6432, Note_on_c, 0, 52, 72
5, 6480, Note_on_c, 0, 52, 0
5, 6480, Note_on_c, 0, 50, 72
5, 6528, Note_on_c, 0, 50, 0
5, 6528, Note_on_c, 0, 52, 72
5, 6624, Note_on_c, 0, 52, 0
5, 6624, Note_on_c, 0, 53, 72
5, 6672, Note_on_c, 0, 53, 0
5, 6672, Note_on_c, 0, 52, 72
5, 6720, Note_on_c, 0, 52, 0
5, 6720, Note_on_c, 0, 54, 72
5, 6816, Note_on_c, 0, 54, 0
5, 6816, Note_on_c, 0, 55, 72
5, 6864, Note_on_c, 0, 55, 0
5, 6864, Note_on_c, 0, 54, 72
5, 6912, Note_on_c, 0, 54, 0
5, 6912, Note_on_c, 0, 56, 72
5, 7008, Note_on_c, 0, 56, 0
5, 7008, Note_on_c, 0, 57, 72
5, 7056, Note_on_c, 0, 57, 0
5, 7056, Note_on_c, 0, 56, 72
5, 7104, Note_on_c, 0, 56, 0
5, 7104, Note_on_c, 0, 57, 72
5, 7200, Note_on_c, 0, 57, 0
5, 7200, Note_on_c, 0, 58, 72
5, 7248, Note_on_c, 0, 58, 0
5, 7248, Note_on_c, 0, 57, 72
5, 7296, Note_on_c, 0, 57, 0
5, 7296, Note_on_c, 0, 59, 72
5, 7392, Note_on_c, 0, 59, 0
5, 7392, Note_on_c, 0, 60, 72
5, 7440, Note_on_c, 0, 60, 0
5, 7440, Note_on_c, 0, 59, 72
5, 7488, Note_on_c, 0, 59, 0
5, 7488, Note_on_c, 0, 61, 72
5, 7584, Note_on_c, 0, 61, 0
5, 7584, Note_on_c, 0, 62, 72
5, 7632, Note_on_c, 0, 62, 0
5, 7632, Note_on_c, 0, 56, 72
5, 7680, Note_on_c, 0, 56, 0
5, 7680, Note_on_c, 0, 57, 72
5, 7872, Note_on_c, 0, 57, 0
5, 7872, Note_on_c, 0, 57, 72
5, 7920, Note_on_c, 0, 57, 0
5, 7920, Note_on_c, 0, 53, 72
5, 7968, Note_on_c, 0, 53, 0
5, 7968, Note_on_c, 0, 55, 72
5, 8064, Note_on_c, 0, 55, 0
5, 8064, Note_on_c, 0, 55, 72
5, 8112, Note_on_c, 0, 55, 0
5, 8112, Note_on_c, 0, 52, 72
5, 8160, Note_on_c, 0, 52, 0
5, 8160, Note_on_c, 0, 53, 72
5, 8304, Note_on_c, 0, 53, 0
5, 8304, Note_on_c, 0, 50, 72
5, 8352, Note_on_c, 0, 50, 0
5, 8352, Note_on_c, 0, 52, 72
5, 8448, Note_on_c, 0, 52, 0
5, 8448, Note_on_c, 0, 50, 72
5, 8640, Note_on_c, 0, 50, 0
5, 8640, Note_on_c, 0, 50, 72
5, 8688, Note_on_c, 0, 50, 0
5, 8688, Note_on_c, 0, 47, 72
5, 8736, Note_on_c, 0, 47, 0
5, 8736, Note_on_c, 0, 49, 72
5, 8832, Note_on_c, 0, 49, 0
5, 8832, Note_on_c, 0, 50, 72
5, 8976, Note_on_c, 0, 50, 0
5, 8976, Note_on_c, 0, 48, 72
5, 9024, Note_on_c, 0, 48, 0
5, 9024, Note_on_c, 0, 46, 72
5, 9216, Note_on_c, 0, 46, 0
5, 9216, Note_on_c, 0, 45, 72
5, 9360, Note_on_c, 0, 45, 0
5, 9360, Note_on_c, 0, 43, 72
5, 9408, Note_on_c, 0, 43, 0
5, 9408, Note_on_c, 0, 41, 72
5, 9456, Note_on_c, 0, 41, 0
5, 9456, Note_on_c, 0, 43, 72
5, 9504, Note_on_c, 0, 43, 0
5, 9504, Note_on_c, 0, 41, 72
5, 9552, Note_on_c, 0, 41, 0
5, 9552, Note_on_c, 0, 40, 72
5, 9600, Note_on_c, 0, 40, 0
5, 9600, Note_on_c, 0, 38, 72
5, 9648, Note_on_c, 0, 38, 0
5, 9648, Note_on_c, 0, 41, 72
5, 9696, Note_on_c, 0, 41, 0
5, 9696, Note_on_c, 0, 40, 72
5, 9744, Note_on_c, 0, 40, 0
5, 9744, Note_on_c, 0, 38, 72
5, 9792, Note_on_c, 0, 38, 0
5, 9792, Note_on_c, 0, 45, 72
5, 9936, Note_on_c, 0, 45, 0
5, 9936, Note_on_c, 0, 41, 72
5, 9984, Note_on_c, 0, 41, 0
5, 9984, Note_on_c, 0, 46, 72
5, 10128, Note_on_c, 0, 46, 0
5, 10128, Note_on_c, 0, 43, 72
5, 10176, Note_on_c, 0, 43, 0
5, 10176, Note_on_c, 0, 50, 72
5, 10320, Note_on_c, 0, 50, 0
5, 10320, Note_on_c, 0, 53, 72
5, 10368, Note_on_c, 0, 53, 0
5, 10368, Note_on_c, 0, 57, 72
5, 10512, Note_on_c, 0, 57, 0
5, 10512, Note_on_c, 0, 45, 72
5, 10560, Note_on_c, 0, 45, 0
5, 10560, Note_on_c, 0, 40, 72
5, 10752, Note_on_c, 0, 40, 0
5, 10944, Note_on_c, 0, 52, 72
5, 11136, Note_on_c, 0, 52, 0
5, 11136, Note_on_c, 0, 57, 72
5, 11328, Note_on_c, 0, 57, 0
5, 11328, Note_on_c, 0, 53, 72
5, 11520, Note_on_c, 0, 53, 0
5, 11520, Note_on_c, 0, 53, 72
5, 11568, Note_on_c, 0, 53, 0
5, 11568, Note_on_c, 0, 53, 72
5, 11616, Note_on_c, 0, 53, 0
5, 11616, Note_on_c, 0, 52, 72
5, 11664, Note_on_c, 0, 52, 0
5, 11664, Note_on_c, 0, 50, 72
5, 11712, Note_on_c, 0, 50, 0
5, 11712, Note_on_c, 0, 48, 72
5, 11760, Note_on_c, 0, 48, 0
5, 11760, Note_on_c, 0, 50, 72
5, 11808, Note_on_c, 0, 50, 0
5, 11808, Note_on_c, 0, 48, 72
5, 11856, Note_on_c, 0, 48, 0
5, 11856, Note_on_c, 0, 47, 72
5, 11904, Note_on_c, 0, 47, 0
5, 11904, Note_on_c, 0, 45, 88
5, 12096, Note_on_c, 0, 45, 0
5, 12096, Note_on_c, 0, 50, 88
5, 12288, Note_on_c, 0, 50, 0
5, 12288, Note_on_c, 0, 49, 88
5, 12480, Note_on_c, 0, 49, 0
5, 12480, Note_on_c, 0, 45, 88
5, 12672, Note_on_c, 0, 45, 0
5, 12672, Note_on_c, 0, 42, 88
5, 12864, Note_on_c, 0, 42, 0
5, 12864, Note_on_c, 0, 43, 88
5, 12960, Note_on_c, 0, 43, 0
5, 12960, Note_on_c, 0, 45, 88
5, 13056, Note_on_c, 0, 45, 0
5, 13056, Note_on_c, 0, 46, 88
5, 13248, Note_on_c, 0, 46, 0
5, 13248, Note_on_c, 0, 46, 88
5, 13296, Note_on_c, 0, 46, 0
5, 13296, Note_on_c, 0, 48, 88
5, 13344, Note_on_c, 0, 48, 0
5, 13344, Note_on_c, 0, 46, 88
5, 13392, Note_on_c, 0, 46, 0
5, 13392, Note_on_c, 0, 45, 88
5, 13440, Note_on_c, 0, 45, 0
5, 13440, Note_on_c, 0, 43, 88
5, 13632, Note_on_c, 0, 43, 0
5, 13632, Note_on_c, 0, 43, 88
5, 13680, Note_on_c, 0, 43, 0
5, 13680, Note_on_c, 0, 40, 72
5, 13728, Note_on_c, 0, 40, 0
5, 13728, Note_on_c, 0, 41, 72
5, 13824, Note_on_c, 0, 41, 0
5, 13824, Note_on_c, 0, 46, 72
5, 14016, Note_on_c, 0, 46, 0
5, 14016, Note_on_c, 0, 46, 72
5, 14064, Note_on_c, 0, 46, 0
5, 14064, Note_on_c, 0, 43, 72
5, 14112, Note_on_c, 0, 43, 0
5, 14112, Note_on_c, 0, 45, 72
5, 14208, Note_on_c, 0, 45, 0
5, 14208, Note_on_c, 0, 50, 72
5, 14400, Note_on_c, 0, 50, 0
5, 14400, Note_on_c, 0, 50, 72
5, 14448, Note_on_c, 0, 50, 0
5, 14448, Note_on_c, 0, 47, 72
5, 14496, Note_on_c, 0, 47, 0
5, 14496, Note_on_c, 0, 48, 72
5, 14592, Note_on_c, 0, 48, 0
5, 14592, Note_on_c, 0, 53, 72
5, 14784, Note_on_c, 0, 53, 0
5, 14784, Note_on_c, 0, 53, 72
5, 14832, Note_on_c, 0, 53, 0
5, 14832, Note_on_c, 0, 50, 72
5, 14880, Note_on_c, 0, 50, 0
5, 14880, Note_on_c, 0, 52, 72
5, 14976, Note_on_c, 0, 52, 0
5, 14976, Note_on_c, 0, 45, 72
5, 15120, Note_on_c, 0, 45, 0
5, 15120, Note_on_c, 0, 55, 72
5, 15168, Note_on_c, 0, 55, 0
5, 15168, Note_on_c, 0, 53, 72
5, 15216, Note_on_c, 0, 53, 0
5, 15216, Note_on_c, 0, 52, 72
5, 15264, Note_on_c, 0, 52, 0
5, 15264, Note_on_c, 0, 50, 72
5, 15312, Note_on_c, 0, 50, 0
5, 15312, Note_on_c, 0, 49, 72
5, 15360, Note_on_c, 0, 49, 0
5, 15360, Note_on_c, 0, 50, 72
5, 15504, Note_on_c, 0, 50, 0
5, 15504, Note_on_c, 0, 41, 72
5, 15552, Note_on_c, 0, 41, 0
5, 15552, Note_on_c, 0, 46, 72
5, 15744, Note_on_c, 0, 46, 0
5, 15744, Note_on_c, 0, 45, 72
5, 16128, Note_on_c, 0, 45, 0
5, 16128, Note_on_c, 0, 45, 72
5, 16272, Note_on_c, 0, 45, 0
5, 16272, Note_on_c, 0, 46, 72
5, 16320, Note_on_c, 0, 46, 0
5, 16320, Note_on_c, 0, 45, 72
5, 16368, Note_on_c, 0, 45, 0
5, 16368, Note_on_c, 0, 43, 72
5, 16416, Note_on_c, 0, 43, 0
5, 16416, Note_on_c, 0, 45, 72
5, 16512, Note_on_c, 0, 45, 0
5, 16512, Note_on_c, 0, 46, 72
5, 16656, Note_on_c, 0, 46, 0
5, 16656, Note_on_c, 0, 43, 72
5, 16704, Note_on_c, 0, 43, 0
5, 16704, Note_on_c, 0, 50, 72
5, 16896, Note_on_c, 0, 50, 0
5, 16896, Note_on_c, 0, 50, 72
5, 16992, Note_on_c, 0, 50, 0
5, 16992, Note_on_c, 0, 52, 72
5, 17184, Note_on_c, 0, 52, 0
5, 17184, Note_on_c, 0, 53, 72
5, 17280, Note_on_c, 0, 53, 0
5, 17280, Note_on_c, 0, 53, 72
5, 17424, Note_on_c, 0, 53, 0
5, 17424, Note_on_c, 0, 50, 72
5, 17472, Note_on_c, 0, 50, 0
5, 17472, Note_on_c, 0, 52, 72
5, 17616, Note_on_c, 0, 52, 0
5, 17616, Note_on_c, 0, 49, 72
5, 17664, Note_on_c, 0, 49, 0
5, 17664, Note_on_c, 0, 50, 72
5, 17808, Note_on_c, 0, 50, 0
5, 17808, Note_on_c, 0, 47, 72
5, 17856, Note_on_c, 0, 47, 0
5, 17856, Note_on_c, 0, 49, 72
5, 17904, Note_on_c, 0, 49, 0
5, 17904, Note_on_c, 0, 45, 72
5, 17952, Note_on_c, 0, 45, 0
5, 17952, Note_on_c, 0, 50, 72
5, 18048, Note_on_c, 0, 50, 0
5, 18048, Note_on_c, 0, 50, 72
5, 18096, Note_on_c, 0, 50, 0
5, 18096, Note_on_c, 0, 48, 72
5, 18144, Note_on_c, 0, 48, 0
5, 18144, Note_on_c, 0, 47, 72
5, 18192, Note_on_c, 0, 47, 0
5, 18192, Note_on_c, 0, 45, 72
5, 18240, Note_on_c, 0, 45, 0
5, 18240, Note_on_c, 0, 47, 72
5, 18432, Note_on_c, 0, 47, 0
5, 18432, Note_on_c, 0, 45, 72
5, 18624, Note_on_c, 0, 45, 0
5, 21120, Note_on_c, 0, 50, 88
5, 21312, Note_on_c, 0, 50, 0
5, 21312, Note_on_c, 0, 57, 88
5, 21504, Note_on_c, 0, 57, 0
5, 21504, Note_on_c, 0, 53, 88
5, 21696, Note_on_c, 0, 53, 0
5, 21696, Note_on_c, 0, 50, 88
5, 21888, Note_on_c, 0, 50, 0
5, 21888, Note_on_c, 0, 49, 88
5, 22080, Note_on_c, 0, 49, 0
5, 22080, Note_on_c, 0, 50, 88
5, 22176, Note_on_c, 0, 50, 0
5, 22176, Note_on_c, 0, 52, 88
5, 22272, Note_on_c, 0, 52, 0
5, 22272, Note_on_c, 0, 53, 88
5, 22464, Note_on_c, 0, 53, 0
5, 22464, Note_on_c, 0, 53, 88
5, 22512, Note_on_c, 0, 53, 0
5, 22512, Note_on_c, 0, 55, 88
5, 22560, Note_on_c, 0, 55, 0
5, 22560, Note_on_c, 0, 53, 88
5, 22608, Note_on_c, 0, 53, 0
5, 22608, Note_on_c, 0, 52, 88
5, 22656, Note_on_c, 0, 52, 0
5, 22656, Note_on_c, 0, 50, 88
5, 22848, Note_on_c, 0, 50, 0
5, 22848, Note_on_c, 0, 50, 88
5, 22896, Note_on_c, 0, 50, 0
5, 22896, Note_on_c, 0, 51, 72
5, 22944, Note_on_c, 0, 51, 0
5, 22944, Note_on_c, 0, 50, 72
5, 22992, Note_on_c, 0, 50, 0
5, 22992, Note_on_c, 0, 48, 72
5, 23040, Note_on_c, 0, 48, 0
5, 23040, Note_on_c, 0, 46, 72
5, 23232, Note_on_c, 0, 46, 0
5, 23232, Note_on_c, 0, 46, 72
5, 23280, Note_on_c, 0, 46, 0
5, 23280, Note_on_c, 0, 48, 72
5, 23328, Note_on_c, 0, 48, 0
5, 23328, Note_on_c, 0, 46, 72
5, 23376, Note_on_c, 0, 46, 0
5, 23376, Note_on_c, 0, 45, 72
5, 23424, Note_on_c, 0, 45, 0
5, 23424, Note_on_c, 0, 43, 72
5, 23712, Note_on_c, 0, 43, 0
5, 23712, Note_on_c, 0, 43, 72
5, 23808, Note_on_c, 0, 43, 0
5, 23808, Note_on_c, 0, 45, 72
5, 24192, Note_on_c, 0, 45, 0
5, 24192, Note_on_c, 0, 45, 72
5, 24576, Note_on_c, 0, 45, 0
5, 24576, Note_on_c, 0, 45, 72
5, 24864, Note_on_c, 0, 45, 0
5, 24864, Note_on_c, 0, 45, 72
5, 24960, Note_on_c, 0, 45, 0
5, 24960, Note_on_c, 0, 46, 72
5, 25104, Note_on_c, 0, 46, 0
5, 25104, Note_on_c, 0, 43, 72
5, 25152, Note_on_c, 0, 43, 0
5, 25152, Note_on_c, 0, 50, 72
5, 25344, Note_on_c, 0, 50, 0
5, 25344, Note_on_c, 0, 50, 72
5, 25392, Note_on_c, 0, 50, 0
5, 25392, Note_on_c, 0, 46, 72
5, 25440, Note_on_c, 0, 46, 0
5, 25440, Note_on_c, 0, 48, 72
5, 25536, Note_on_c, 0, 48, 0
5, 25536, Note_on_c, 0, 53, 72
5, 25728, Note_on_c, 0, 53, 0
5, 25728, Note_on_c, 0, 53, 72
5, 25776, Note_on_c, 0, 53, 0
5, 25776, Note_on_c, 0, 50, 72
5, 25824, Note_on_c, 0, 50, 0
5, 25824, Note_on_c, 0, 52, 72
5, 25920, Note_on_c, 0, 52, 0
5, 25920, Note_on_c, 0, 57, 72
5, 26112, Note_on_c, 0, 57, 0
5, 26112, Note_on_c, 0, 57, 72
5, 26160, Note_on_c, 0, 57, 0
5, 26160, Note_on_c, 0, 53, 72
5, 26208, Note_on_c, 0, 53, 0
5, 26208, Note_on_c, 0, 55, 72
5, 26304, Note_on_c, 0, 55, 0
5, 26304, Note_on_c, 0, 60, 72
5, 26496, Note_on_c, 0, 60, 0
5, 26496, Note_on_c, 0, 60, 72
5, 26544, Note_on_c, 0, 60, 0
5, 26544, Note_on_c, 0, 57, 72
5, 26592, Note_on_c, 0, 57, 0
5, 26592, Note_on_c, 0, 58, 72
5, 26784, Note_on_c, 0, 58, 0
5, 27072, Note_on_c, 0, 57, 72
5, 27168, Note_on_c, 0, 57, 0
5, 27456, Note_on_c, 0, 56, 88
5, 27648, Note_on_c, 0, 56, 0
5, 27648, Note_on_c, 0, 57, 88
5, 27936, Note_on_c, 0, 57, 0
5, 27936, Note_on_c, 0, 45, 88
5, 28032, Note_on_c, 0, 45, 0
5, 28032, Note_on_c, 0, 50, 88
5, 28416, Note_on_c, 0, 50, 0
5, 28416, Note_on_c, 0, 50, 88
5, 28800, Note_on_c, 0, 50, 0
5, 28800, Note_on_c, 0, 50, 88
5, 29184, Note_on_c, 0, 50, 0
5, 29184, Note_on_c, 0, 50, 88
5, 29376, Note_on_c, 0, 50, 0
5, 29376, Note_on_c, 0, 50, 88
5, 29568, Note_on_c, 0, 50, 0
5, 29568, Note_on_c, 0, 50, 88
5, 29664, Note_on_c, 0, 50, 0
5, 29664, Note_on_c, 0, 50, 88
5, 29952, Note_on_c, 0, 50, 0
5, 29952, End_track
0, 0, End_of_file
