0, 0, Header, 1, 4, 120
1, 0, Start_track
1, 0, Time_signature, 3, 3, 12, 8
1, 0, Key_signature, -3, "major"
1, 0, Tempo, 571428
1, 19952, Tempo, 674157
1, 19980, Tempo, 779220
1, 20040, Tempo, 937500
1, 20042, Tempo, 1034482
1, 20160, Tempo, 1276595
1, 20160, End_track
2, 0, Start_track
2, 0, MIDI_port, 0
2, 0, Program_c, 0, 0
2, 60, Control_c, 0, 10, 120
2, 60, Control_c, 0, 7, 100
2, 60, Program_c, 0, 2
2, 120, Note_on_c, 0, 84, 115
2, 172, Note_on_c, 0, 84, 0
2, 180, Note_on_c, 0, 72, 115
2, 232, Note_on_c, 0, 72, 0
2, 240, Note_on_c, 0, 74, 115
2, 253, Note_on_c, 0, 74, 0
2, 255, Note_on_c, 0, 75, 115
2, 268, Note_on_c, 0, 75, 0
2, 270, Note_on_c, 0, 74, 115
2, 296, Note_on_c, 0, 74, 0
2, 300, Note_on_c, 0, 75, 115
2, 405, Note_on_c, 0, 75, 0
2, 420, Note_on_c, 0, 77, 115
2, 472, Note_on_c, 0, 77, 0
2, 480, Note_on_c, 0, 79, 115
2, 532, Note_on_c, 0, 79, 0
2, 660, Note_on_c, 0, 77, 115
2, 712, Note_on_c, 0, 77, 0
2, 840, Note_on_c, 0, 75, 115
2, 892, Note_on_c, 0, 75, 0
2, 1020, Note_on_c, 0, 74, 115
2, 1072, Note_on_c, 0, 74, 0
2, 1260, Note_on_c, 0, 72, 115
2, 1286, Note_on_c, 0, 72, 0
2, 1290, Note_on_c, 0, 71, 115
2, 1316, Note_on_c, 0, 71, 0
2, 1320, Note_on_c, 0, 72, 115
2, 1346, Note_on_c, 0, 72, 0
2, 1350, Note_on_c, 0, 74, 115
2, 1376, Note_on_c, 0, 74, 0
2, 1380, Note_on_c, 0, 71, 115
2, 1406, Note_on_c, 0, 71, 0
2, 1410, Note_on_c, 0, 69, 115
2, 1436, Note_on_c, 0, 69, 0
2, 1440, Note_on_c, 0, 67, 115
2, 1492, Note_on_c, 0, 67, 0
2, 1560, Note_on_c, 0, 84, 115
2, 1612, Note_on_c, 0, 84, 0
2, 1620, Note_on_c, 0, 72, 115
2, 1672, Note_on_c, 0, 72, 0
2, 1680, Note_on_c, 0, 74, 115
2, 1732, Note_on_c, 0, 74, 0
2, 1740, Note_on_c, 0, 75, 115
2, 1845, Note_on_c, 0, 75, 0
2, 1860, Note_on_c, 0, 77, 115
2, 1912, Note_on_c, 0, 77, 0
2, 1920, Note_on_c, 0, 79, 115
2, 1972, Note_on_c, 0, 79, 0
2, 2100, Note_on_c, 0, 77, 115
2, 2152, Note_on_c, 0, 77, 0
2, 2280, Note_on_c, 0, 75, 115
2, 2332, Note_on_c, 0, 75, 0
2, 2460, Note_on_c, 0, 74, 115
2, 2512, Note_on_c, 0, 74, 0
2, 2670, Note_on_c, 0, 72, 115
2, 2696, Note_on_c, 0, 72, 0
2, 2700, Note_on_c, 0, 62, 115
2, 2726, Note_on_c, 0, 62, 0
2, 2730, Note_on_c, 0, 65, 115
2, 2756, Note_on_c, 0, 65, 0
2, 2760, Note_on_c, 0, 72, 115
2, 2786, Note_on_c, 0, 72, 0
2, 2790, Note_on_c, 0, 71, 115
2, 2816, Note_on_c, 0, 71, 0
2, 2820, Note_on_c, 0, 72, 115
2, 2985, Note_on_c, 0, 72, 0
2, 2990, Program_c, 0, 4
2, 2998, Control_c, 0, 10, 64
2, 2998, Control_c, 0, 7, 110
2, 3000, Note_on_c, 0, 63, 115
2, 3026, Note_on_c, 0, 63, 0
2, 3030, Note_on_c, 0, 62, 115
2, 3056, Note_on_c, 0, 62, 0
2, 3060, Note_on_c, 0, 63, 115
2, 3086, Note_on_c, 0, 63, 0
2, 3090, Note_on_c, 0, 65, 115
2, 3116, Note_on_c, 0, 65, 0
2, 3120, Note_on_c, 0, 67, 115
2, 3146, Note_on_c, 0, 67, 0
2, 3150, Note_on_c, 0, 68, 115
2, 3176, Note_on_c, 0, 68, 0
2, 3180, Note_on_c, 0, 70, 115
2, 3206, Note_on_c, 0, 70, 0
2, 3210, Note_on_c, 0, 75, 115
2, 3236, Note_on_c, 0, 75, 0
2, 3240, Note_on_c, 0, 70, 115
2, 3266, Note_on_c, 0, 70, 0
2, 3270, Note_on_c, 0, 68, 115
2, 3296, Note_on_c, 0, 68, 0
2, 3300, Note_on_c, 0, 70, 115
2, 3386, Note_on_c, 0, 70, 0
2, 3390, Note_on_c, 0, 77, 115
2, 3416, Note_on_c, 0, 77, 0
2, 3420, Note_on_c, 0, 70, 115
2, 3446, Note_on_c, 0, 70, 0
2, 3450, Note_on_c, 0, 68, 115
2, 3476, Note_on_c, 0, 68, 0
2, 3480, Note_on_c, 0, 70, 115
2, 3566, Note_on_c, 0, 70, 0
2, 3570, Note_on_c, 0, 79, 115
2, 3596, Note_on_c, 0, 79, 0
2, 3600, Note_on_c, 0, 70, 115
2, 3626, Note_on_c, 0, 70, 0
2, 3630, Note_on_c, 0, 68, 115
2, 3656, Note_on_c, 0, 68, 0
2, 3660, Note_on_c, 0, 70, 115
2, 3746, Note_on_c, 0, 70, 0
2, 3750, Note_on_c, 0, 73, 115
2, 3776, Note_on_c, 0, 73, 0
2, 3780, Note_on_c, 0, 72, 115
2, 3806, Note_on_c, 0, 72, 0
2, 3810, Note_on_c, 0, 70, 115
2, 3836, Note_on_c, 0, 70, 0
2, 3840, Note_on_c, 0, 68, 115
2, 3866, Note_on_c, 0, 68, 0
2, 3870, Note_on_c, 0, 67, 115
2, 3896, Note_on_c, 0, 67, 0
2, 3900, Note_on_c, 0, 68, 115
2, 3926, Note_on_c, 0, 68, 0
2, 3930, Note_on_c, 0, 72, 115
2, 3956, Note_on_c, 0, 72, 0
2, 3960, Note_on_c, 0, 77, 115
2, 3986, Note_on_c, 0, 77, 0
2, 3990, Note_on_c, 0, 72, 115
2, 4016, Note_on_c, 0, 72, 0
2, 4020, Note_on_c, 0, 80, 115
2, 4106, Note_on_c, 0, 80, 0
2, 4110, Note_on_c, 0, 77, 115
2, 4136, Note_on_c, 0, 77, 0
2, 4140, Note_on_c, 0, 80, 115
2, 4166, Note_on_c, 0, 80, 0
2, 4170, Note_on_c, 0, 79, 115
2, 4196, Note_on_c, 0, 79, 0
2, 4200, Note_on_c, 0, 77, 115
2, 4226, Note_on_c, 0, 77, 0
2, 4230, Note_on_c, 0, 76, 115
2, 4256, Note_on_c, 0, 76, 0
2, 4260, Note_on_c, 0, 77, 115
2, 4466, Note_on_c, 0, 77, 0
2, 4470, Note_on_c, 0, 80, 115
2, 4496, Note_on_c, 0, 80, 0
2, 4500, Note_on_c, 0, 74, 115
2, 4526, Note_on_c, 0, 74, 0
2, 4530, Note_on_c, 0, 75, 115
2, 4556, Note_on_c, 0, 75, 0
2, 4560, Note_on_c, 0, 77, 115
2, 4586, Note_on_c, 0, 77, 0
2, 4590, Note_on_c, 0, 74, 115
2, 4616, Note_on_c, 0, 74, 0
2, 4620, Note_on_c, 0, 72, 115
2, 4646, Note_on_c, 0, 72, 0
2, 4650, Note_on_c, 0, 70, 115
2, 4676, Note_on_c, 0, 70, 0
2, 4680, Note_on_c, 0, 72, 115
2, 4706, Note_on_c, 0, 72, 0
2, 4710, Note_on_c, 0, 74, 115
2, 4736, Note_on_c, 0, 74, 0
2, 4740, Note_on_c, 0, 75, 115
2, 4766, Note_on_c, 0, 75, 0
2, 4770, Note_on_c, 0, 77, 115
2, 4796, Note_on_c, 0, 77, 0
2, 4800, Note_on_c, 0, 79, 115
2, 4826, Note_on_c, 0, 79, 0
2, 4830, Note_on_c, 0, 82, 115
2, 4856, Note_on_c, 0, 82, 0
2, 4860, Note_on_c, 0, 75, 115
2, 4886, Note_on_c, 0, 75, 0
2, 4890, Note_on_c, 0, 77, 115
2, 4916, Note_on_c, 0, 77, 0
2, 4920, Note_on_c, 0, 79, 115
2, 4946, Note_on_c, 0, 79, 0
2, 4950, Note_on_c, 0, 75, 115
2, 4976, Note_on_c, 0, 75, 0
2, 4980, Note_on_c, 0, 73, 115
2, 5006, Note_on_c, 0, 73, 0
2, 5010, Note_on_c, 0, 72, 115
2, 5036, Note_on_c, 0, 72, 0
2, 5040, Note_on_c, 0, 74, 115
2, 5066, Note_on_c, 0, 74, 0
2, 5070, Note_on_c, 0, 76, 115
2, 5096, Note_on_c, 0, 76, 0
2, 5100, Note_on_c, 0, 77, 115
2, 5126, Note_on_c, 0, 77, 0
2, 5130, Note_on_c, 0, 79, 115
2, 5156, Note_on_c, 0, 79, 0
2, 5160, Note_on_c, 0, 80, 115
2, 5186, Note_on_c, 0, 80, 0
2, 5190, Note_on_c, 0, 84, 115
2, 5216, Note_on_c, 0, 84, 0
2, 5220, Note_on_c, 0, 77, 115
2, 5246, Note_on_c, 0, 77, 0
2, 5250, Note_on_c, 0, 79, 115
2, 5276, Note_on_c, 0, 79, 0
2, 5280, Note_on_c, 0, 80, 115
2, 5306, Note_on_c, 0, 80, 0
2, 5310, Note_on_c, 0, 77, 115
2, 5336, Note_on_c, 0, 77, 0
2, 5340, Note_on_c, 0, 75, 115
2, 5366, Note_on_c, 0, 75, 0
2, 5370, Note_on_c, 0, 73, 115
2, 5396, Note_on_c, 0, 73, 0
2, 5400, Note_on_c, 0, 72, 115
2, 5426, Note_on_c, 0, 72, 0
2, 5430, Note_on_c, 0, 71, 115
2, 5456, Note_on_c, 0, 71, 0
2, 5460, Note_on_c, 0, 79, 115
2, 5546, Note_on_c, 0, 79, 0
2, 5550, Note_on_c, 0, 72, 115
2, 5576, Note_on_c, 0, 72, 0
2, 5580, Note_on_c, 0, 77, 115
2, 5606, Note_on_c, 0, 77, 0
2, 5610, Note_on_c, 0, 75, 115
2, 5636, Note_on_c, 0, 75, 0
2, 5640, Note_on_c, 0, 74, 115
2, 5666, Note_on_c, 0, 74, 0
2, 5670, Note_on_c, 0, 72, 115
2, 5696, Note_on_c, 0, 72, 0
2, 5700, Note_on_c, 0, 71, 115
2, 5726, Note_on_c, 0, 71, 0
2, 5730, Note_on_c, 0, 72, 115
2, 5756, Note_on_c, 0, 72, 0
2, 5760, Note_on_c, 0, 74, 115
2, 5786, Note_on_c, 0, 74, 0
2, 5790, Note_on_c, 0, 71, 115
2, 5816, Note_on_c, 0, 71, 0
2, 5820, Note_on_c, 0, 67, 115
2, 5870, Program_c, 0, 2
2, 5872, Note_on_c, 0, 67, 0
2, 5878, Control_c, 0, 10, 120
2, 5878, Control_c, 0, 7, 100
2, 5880, Note_on_c, 0, 84, 115
2, 5932, Note_on_c, 0, 84, 0
2, 5940, Note_on_c, 0, 72, 115
2, 5992, Note_on_c, 0, 72, 0
2, 6000, Note_on_c, 0, 74, 115
2, 6052, Note_on_c, 0, 74, 0
2, 6060, Note_on_c, 0, 75, 115
2, 6165, Note_on_c, 0, 75, 0
2, 6180, Note_on_c, 0, 77, 115
2, 6232, Note_on_c, 0, 77, 0
2, 6240, Note_on_c, 0, 79, 115
2, 6292, Note_on_c, 0, 79, 0
2, 6420, Note_on_c, 0, 77, 115
2, 6472, Note_on_c, 0, 77, 0
2, 6600, Note_on_c, 0, 75, 115
2, 6652, Note_on_c, 0, 75, 0
2, 6780, Note_on_c, 0, 74, 115
2, 6832, Note_on_c, 0, 74, 0
2, 7020, Note_on_c, 0, 72, 115
2, 7046, Note_on_c, 0, 72, 0
2, 7050, Note_on_c, 0, 71, 115
2, 7076, Note_on_c, 0, 71, 0
2, 7080, Note_on_c, 0, 72, 115
2, 7106, Note_on_c, 0, 72, 0
2, 7110, Note_on_c, 0, 74, 115
2, 7136, Note_on_c, 0, 74, 0
2, 7140, Note_on_c, 0, 71, 115
2, 7166, Note_on_c, 0, 71, 0
2, 7170, Note_on_c, 0, 69, 115
2, 7196, Note_on_c, 0, 69, 0
2, 7200, Note_on_c, 0, 67, 115
2, 7252, Note_on_c, 0, 67, 0
2, 7320, Note_on_c, 0, 84, 115
2, 7372, Note_on_c, 0, 84, 0
2, 7380, Note_on_c, 0, 72, 115
2, 7432, Note_on_c, 0, 72, 0
2, 7440, Note_on_c, 0, 74, 115
2, 7492, Note_on_c, 0, 74, 0
2, 7500, Note_on_c, 0, 75, 115
2, 7605, Note_on_c, 0, 75, 0
2, 7620, Note_on_c, 0, 77, 115
2, 7672, Note_on_c, 0, 77, 0
2, 7680, Note_on_c, 0, 79, 115
2, 7732, Note_on_c, 0, 79, 0
2, 7860, Note_on_c, 0, 77, 115
2, 7912, Note_on_c, 0, 77, 0
2, 8040, Note_on_c, 0, 75, 115
2, 8092, Note_on_c, 0, 75, 0
2, 8220, Note_on_c, 0, 74, 115
2, 8272, Note_on_c, 0, 74, 0
2, 8430, Note_on_c, 0, 72, 115
2, 8456, Note_on_c, 0, 72, 0
2, 8460, Note_on_c, 0, 62, 115
2, 8486, Note_on_c, 0, 62, 0
2, 8490, Note_on_c, 0, 65, 115
2, 8516, Note_on_c, 0, 65, 0
2, 8520, Note_on_c, 0, 72, 115
2, 8546, Note_on_c, 0, 72, 0
2, 8550, Note_on_c, 0, 71, 115
2, 8576, Note_on_c, 0, 71, 0
2, 8580, Note_on_c, 0, 72, 115
2, 8685, Note_on_c, 0, 72, 0
2, 8789, Control_c, 0, 10, 64
2, 8789, Control_c, 0, 7, 95
2, 8790, Program_c, 0, 10
2, 8790, Note_on_c, 0, 75, 115
2, 8816, Note_on_c, 0, 75, 0
2, 8820, Note_on_c, 0, 72, 115
2, 8846, Note_on_c, 0, 72, 0
2, 8850, Note_on_c, 0, 67, 115
2, 8876, Note_on_c, 0, 67, 0
2, 8880, Note_on_c, 0, 68, 115
2, 8906, Note_on_c, 0, 68, 0
2, 8910, Note_on_c, 0, 63, 115
2, 8936, Note_on_c, 0, 63, 0
2, 8940, Note_on_c, 0, 65, 115
2, 8966, Note_on_c, 0, 65, 0
2, 8970, Note_on_c, 0, 68, 115
2, 8996, Note_on_c, 0, 68, 0
2, 9000, Note_on_c, 0, 74, 115
2, 9052, Note_on_c, 0, 74, 0
2, 9150, Note_on_c, 0, 74, 115
2, 9176, Note_on_c, 0, 74, 0
2, 9180, Note_on_c, 0, 70, 115
2, 9206, Note_on_c, 0, 70, 0
2, 9210, Note_on_c, 0, 66, 115
2, 9236, Note_on_c, 0, 66, 0
2, 9240, Note_on_c, 0, 67, 115
2, 9266, Note_on_c, 0, 67, 0
2, 9270, Note_on_c, 0, 62, 115
2, 9296, Note_on_c, 0, 62, 0
2, 9300, Note_on_c, 0, 64, 115
2, 9326, Note_on_c, 0, 64, 0
2, 9330, Note_on_c, 0, 67, 115
2, 9356, Note_on_c, 0, 67, 0
2, 9360, Note_on_c, 0, 72, 115
2, 9412, Note_on_c, 0, 72, 0
2, 9510, Note_on_c, 0, 72, 115
2, 9536, Note_on_c, 0, 72, 0
2, 9540, Note_on_c, 0, 68, 115
2, 9566, Note_on_c, 0, 68, 0
2, 9570, Note_on_c, 0, 64, 115
2, 9596, Note_on_c, 0, 64, 0
2, 9600, Note_on_c, 0, 65, 115
2, 9626, Note_on_c, 0, 65, 0
2, 9630, Note_on_c, 0, 60, 115
2, 9656, Note_on_c, 0, 60, 0
2, 9660, Note_on_c, 0, 62, 115
2, 9686, Note_on_c, 0, 62, 0
2, 9690, Note_on_c, 0, 65, 115
2, 9716, Note_on_c, 0, 65, 0
2, 9720, Note_on_c, 0, 70, 115
2, 9772, Note_on_c, 0, 70, 0
2, 9870, Note_on_c, 0, 70, 115
2, 9896, Note_on_c, 0, 70, 0
2, 9900, Note_on_c, 0, 72, 115
2, 9926, Note_on_c, 0, 72, 0
2, 9930, Note_on_c, 0, 74, 115
2, 9956, Note_on_c, 0, 74, 0
2, 9960, Note_on_c, 0, 75, 115
2, 9986, Note_on_c, 0, 75, 0
2, 9990, Note_on_c, 0, 77, 115
2, 10016, Note_on_c, 0, 77, 0
2, 10020, Note_on_c, 0, 79, 115
2, 10046, Note_on_c, 0, 79, 0
2, 10050, Note_on_c, 0, 75, 115
2, 10076, Note_on_c, 0, 75, 0
2, 10080, Note_on_c, 0, 79, 115
2, 10106, Note_on_c, 0, 79, 0
2, 10110, Note_on_c, 0, 74, 115
2, 10136, Note_on_c, 0, 74, 0
2, 10140, Note_on_c, 0, 70, 115
2, 10166, Note_on_c, 0, 70, 0
2, 10170, Note_on_c, 0, 74, 115
2, 10196, Note_on_c, 0, 74, 0
2, 10200, Note_on_c, 0, 77, 115
2, 10226, Note_on_c, 0, 77, 0
2, 10230, Note_on_c, 0, 80, 115
2, 10256, Note_on_c, 0, 80, 0
2, 10260, Note_on_c, 0, 79, 115
2, 10286, Note_on_c, 0, 79, 0
2, 10290, Note_on_c, 0, 75, 115
2, 10316, Note_on_c, 0, 75, 0
2, 10320, Note_on_c, 0, 70, 115
2, 10346, Note_on_c, 0, 70, 0
2, 10350, Note_on_c, 0, 74, 115
2, 10376, Note_on_c, 0, 74, 0
2, 10380, Note_on_c, 0, 75, 115
2, 10406, Note_on_c, 0, 75, 0
2, 10410, Note_on_c, 0, 79, 115
2, 10436, Note_on_c, 0, 79, 0
2, 10440, Note_on_c, 0, 77, 115
2, 10466, Note_on_c, 0, 77, 0
2, 10470, Note_on_c, 0, 74, 115
2, 10496, Note_on_c, 0, 74, 0
2, 10500, Note_on_c, 0, 68, 115
2, 10526, Note_on_c, 0, 68, 0
2, 10530, Note_on_c, 0, 72, 115
2, 10556, Note_on_c, 0, 72, 0
2, 10560, Note_on_c, 0, 74, 115
2, 10586, Note_on_c, 0, 74, 0
2, 10590, Note_on_c, 0, 77, 115
2, 10616, Note_on_c, 0, 77, 0
2, 10620, Note_on_c, 0, 75, 115
2, 10646, Note_on_c, 0, 75, 0
2, 10650, Note_on_c, 0, 72, 115
2, 10676, Note_on_c, 0, 72, 0
2, 10680, Note_on_c, 0, 66, 115
2, 10706, Note_on_c, 0, 66, 0
2, 10710, Note_on_c, 0, 69, 115
2, 10736, Note_on_c, 0, 69, 0
2, 10740, Note_on_c, 0, 72, 115
2, 10766, Note_on_c, 0, 72, 0
2, 10770, Note_on_c, 0, 75, 115
2, 10796, Note_on_c, 0, 75, 0
2, 10800, Note_on_c, 0, 74, 115
2, 10826, Note_on_c, 0, 74, 0
2, 10830, Note_on_c, 0, 70, 115
2, 10856, Note_on_c, 0, 70, 0
2, 10860, Note_on_c, 0, 65, 115
2, 10886, Note_on_c, 0, 65, 0
2, 10890, Note_on_c, 0, 68, 115
2, 10916, Note_on_c, 0, 68, 0
2, 10920, Note_on_c, 0, 70, 115
2, 10946, Note_on_c, 0, 70, 0
2, 10950, Note_on_c, 0, 75, 115
2, 10976, Note_on_c, 0, 75, 0
2, 10980, Note_on_c, 0, 70, 115
2, 11006, Note_on_c, 0, 70, 0
2, 11010, Note_on_c, 0, 67, 115
2, 11036, Note_on_c, 0, 67, 0
2, 11040, Note_on_c, 0, 63, 115
2, 11066, Note_on_c, 0, 63, 0
2, 11070, Note_on_c, 0, 62, 115
2, 11096, Note_on_c, 0, 62, 0
2, 11100, Note_on_c, 0, 63, 115
2, 11126, Note_on_c, 0, 63, 0
2, 11130, Note_on_c, 0, 70, 115
2, 11156, Note_on_c, 0, 70, 0
2, 11160, Note_on_c, 0, 67, 115
2, 11186, Note_on_c, 0, 67, 0
2, 11190, Note_on_c, 0, 63, 115
2, 11216, Note_on_c, 0, 63, 0
2, 11220, Note_on_c, 0, 58, 115
2, 11246, Note_on_c, 0, 58, 0
2, 11250, Note_on_c, 0, 56, 115
2, 11276, Note_on_c, 0, 56, 0
2, 11280, Note_on_c, 0, 58, 115
2, 11306, Note_on_c, 0, 58, 0
2, 11310, Note_on_c, 0, 67, 115
2, 11336, Note_on_c, 0, 67, 0
2, 11340, Note_on_c, 0, 63, 115
2, 11366, Note_on_c, 0, 63, 0
2, 11370, Note_on_c, 0, 58, 115
2, 11396, Note_on_c, 0, 58, 0
2, 11400, Note_on_c, 0, 56, 115
2, 11426, Note_on_c, 0, 56, 0
2, 11430, Note_on_c, 0, 62, 115
2, 11456, Note_on_c, 0, 62, 0
2, 11460, Note_on_c, 0, 55, 115
2, 11486, Note_on_c, 0, 55, 0
2, 11490, Note_on_c, 0, 63, 115
2, 11516, Note_on_c, 0, 63, 0
2, 11520, Note_on_c, 0, 58, 115
2, 11546, Note_on_c, 0, 58, 0
2, 11550, Note_on_c, 0, 55, 115
2, 11576, Note_on_c, 0, 55, 0
2, 11580, Note_on_c, 0, 51, 115
2, 11606, Note_on_c, 0, 51, 0
2, 11610, Note_on_c, 0, 50, 115
2, 11636, Note_on_c, 0, 50, 0
2, 11665, Program_c, 0, 2
2, 11669, Control_c, 0, 10, 120
2, 11669, Control_c, 0, 7, 100
2, 11670, Note_on_c, 0, 67, 115
2, 11696, Note_on_c, 0, 67, 0
2, 11700, Note_on_c, 0, 69, 115
2, 11726, Note_on_c, 0, 69, 0
2, 11730, Note_on_c, 0, 71, 115
2, 11756, Note_on_c, 0, 71, 0
2, 11760, Note_on_c, 0, 72, 115
2, 11786, Note_on_c, 0, 72, 0
2, 11790, Note_on_c, 0, 74, 115
2, 11816, Note_on_c, 0, 74, 0
2, 11820, Note_on_c, 0, 75, 115
2, 11846, Note_on_c, 0, 75, 0
2, 11850, Note_on_c, 0, 74, 115
2, 11876, Note_on_c, 0, 74, 0
2, 11880, Note_on_c, 0, 72, 115
2, 11906, Note_on_c, 0, 72, 0
2, 11910, Note_on_c, 0, 74, 115
2, 11936, Note_on_c, 0, 74, 0
2, 11940, Note_on_c, 0, 75, 115
2, 11966, Note_on_c, 0, 75, 0
2, 11970, Note_on_c, 0, 77, 115
2, 11996, Note_on_c, 0, 77, 0
2, 12000, Note_on_c, 0, 79, 115
2, 12026, Note_on_c, 0, 79, 0
2, 12030, Note_on_c, 0, 67, 115
2, 12056, Note_on_c, 0, 67, 0
2, 12060, Note_on_c, 0, 68, 115
2, 12086, Note_on_c, 0, 68, 0
2, 12090, Note_on_c, 0, 72, 115
2, 12116, Note_on_c, 0, 72, 0
2, 12120, Note_on_c, 0, 77, 115
2, 12206, Note_on_c, 0, 77, 0
2, 12210, Note_on_c, 0, 65, 115
2, 12236, Note_on_c, 0, 65, 0
2, 12240, Note_on_c, 0, 67, 115
2, 12266, Note_on_c, 0, 67, 0
2, 12270, Note_on_c, 0, 70, 115
2, 12296, Note_on_c, 0, 70, 0
2, 12300, Note_on_c, 0, 75, 115
2, 12386, Note_on_c, 0, 75, 0
2, 12390, Note_on_c, 0, 63, 115
2, 12416, Note_on_c, 0, 63, 0
2, 12420, Note_on_c, 0, 65, 115
2, 12446, Note_on_c, 0, 65, 0
2, 12450, Note_on_c, 0, 71, 115
2, 12476, Note_on_c, 0, 71, 0
2, 12480, Note_on_c, 0, 74, 115
2, 12566, Note_on_c, 0, 74, 0
2, 12570, Note_on_c, 0, 62, 115
2, 12596, Note_on_c, 0, 62, 0
2, 12600, Note_on_c, 0, 63, 115
2, 12626, Note_on_c, 0, 63, 0
2, 12630, Note_on_c, 0, 67, 115
2, 12656, Note_on_c, 0, 67, 0
2, 12660, Note_on_c, 0, 72, 115
2, 12746, Note_on_c, 0, 72, 0
2, 12750, Note_on_c, 0, 71, 115
2, 12776, Note_on_c, 0, 71, 0
2, 12780, Note_on_c, 0, 72, 115
2, 12806, Note_on_c, 0, 72, 0
2, 12810, Note_on_c, 0, 75, 115
2, 12836, Note_on_c, 0, 75, 0
2, 12840, Note_on_c, 0, 80, 115
2, 12866, Note_on_c, 0, 80, 0
2, 12870, Note_on_c, 0, 72, 115
2, 12896, Note_on_c, 0, 72, 0
2, 12900, Note_on_c, 0, 71, 115
2, 12926, Note_on_c, 0, 71, 0
2, 12930, Note_on_c, 0, 69, 115
2, 12956, Note_on_c, 0, 69, 0
2, 12960, Note_on_c, 0, 67, 115
2, 13012, Note_on_c, 0, 67, 0
2, 13080, Note_on_c, 0, 84, 115
2, 13132, Note_on_c, 0, 84, 0
2, 13140, Note_on_c, 0, 72, 115
2, 13192, Note_on_c, 0, 72, 0
2, 13200, Note_on_c, 0, 74, 115
2, 13252, Note_on_c, 0, 74, 0
2, 13260, Note_on_c, 0, 75, 115
2, 13365, Note_on_c, 0, 75, 0
2, 13380, Note_on_c, 0, 77, 115
2, 13432, Note_on_c, 0, 77, 0
2, 13440, Note_on_c, 0, 79, 115
2, 13492, Note_on_c, 0, 79, 0
2, 13620, Note_on_c, 0, 77, 115
2, 13672, Note_on_c, 0, 77, 0
2, 13800, Note_on_c, 0, 75, 115
2, 13852, Note_on_c, 0, 75, 0
2, 13980, Note_on_c, 0, 74, 115
2, 14032, Note_on_c, 0, 74, 0
2, 14190, Note_on_c, 0, 72, 115
2, 14216, Note_on_c, 0, 72, 0
2, 14220, Note_on_c, 0, 62, 115
2, 14246, Note_on_c, 0, 62, 0
2, 14250, Note_on_c, 0, 65, 115
2, 14276, Note_on_c, 0, 65, 0
2, 14280, Note_on_c, 0, 72, 115
2, 14306, Note_on_c, 0, 72, 0
2, 14310, Note_on_c, 0, 71, 115
2, 14336, Note_on_c, 0, 71, 0
2, 14340, Note_on_c, 0, 72, 115
2, 14505, Note_on_c, 0, 72, 0
2, 14510, Program_c, 0, 24
2, 14519, Control_c, 0, 10, 64
2, 14519, Control_c, 0, 7, 127
2, 14520, Note_on_c, 0, 75, 127
2, 14805, Note_on_c, 0, 75, 0
2, 14820, Note_on_c, 0, 74, 127
2, 14846, Note_on_c, 0, 74, 0
2, 14850, Note_on_c, 0, 75, 127
2, 14863, Note_on_c, 0, 75, 0
2, 14865, Note_on_c, 0, 77, 127
2, 14878, Note_on_c, 0, 77, 0
2, 14880, Note_on_c, 0, 74, 127
2, 15060, Note_on_c, 0, 74, 0
2, 15060, Note_on_c, 0, 75, 127
2, 15112, Note_on_c, 0, 75, 0
2, 15120, Note_on_c, 0, 75, 127
2, 15146, Note_on_c, 0, 75, 0
2, 15150, Note_on_c, 0, 77, 127
2, 15176, Note_on_c, 0, 77, 0
2, 15180, Note_on_c, 0, 79, 127
2, 15206, Note_on_c, 0, 79, 0
2, 15210, Note_on_c, 0, 75, 127
2, 15236, Note_on_c, 0, 75, 0
2, 15240, Note_on_c, 0, 74, 127
2, 15300, Note_on_c, 0, 74, 0
2, 15300, Note_on_c, 0, 72, 127
2, 15472, Note_on_c, 0, 72, 0
2, 15480, Note_on_c, 0, 74, 127
2, 15497, Note_on_c, 0, 74, 0
2, 15499, Note_on_c, 0, 72, 127
2, 15517, Note_on_c, 0, 72, 0
2, 15519, Note_on_c, 0, 70, 127
2, 15537, Note_on_c, 0, 70, 0
2, 15540, Note_on_c, 0, 72, 127
2, 15557, Note_on_c, 0, 72, 0
2, 15559, Note_on_c, 0, 70, 127
2, 15577, Note_on_c, 0, 70, 0
2, 15579, Note_on_c, 0, 69, 127
2, 15597, Note_on_c, 0, 69, 0
2, 15600, Note_on_c, 0, 70, 127
2, 15617, Note_on_c, 0, 70, 0
2, 15619, Note_on_c, 0, 69, 127
2, 15637, Note_on_c, 0, 69, 0
2, 15639, Note_on_c, 0, 67, 127
2, 15657, Note_on_c, 0, 67, 0
2, 15660, Note_on_c, 0, 72, 127
2, 15677, Note_on_c, 0, 72, 0
2, 15679, Note_on_c, 0, 70, 127
2, 15697, Note_on_c, 0, 70, 0
2, 15699, Note_on_c, 0, 69, 127
2, 15717, Note_on_c, 0, 69, 0
2, 15720, Note_on_c, 0, 70, 127
2, 15737, Note_on_c, 0, 70, 0
2, 15739, Note_on_c, 0, 69, 127
2, 15757, Note_on_c, 0, 69, 0
2, 15759, Note_on_c, 0, 67, 127
2, 15777, Note_on_c, 0, 67, 0
2, 15780, Note_on_c, 0, 66, 127
2, 15858, Note_on_c, 0, 66, 0
2, 15870, Note_on_c, 0, 69, 127
2, 15896, Note_on_c, 0, 69, 0
2, 15900, Note_on_c, 0, 74, 127
2, 15926, Note_on_c, 0, 74, 0
2, 15930, Note_on_c, 0, 72, 127
2, 15956, Note_on_c, 0, 72, 0
2, 15960, Note_on_c, 0, 70, 127
2, 15986, Note_on_c, 0, 70, 0
2, 15990, Note_on_c, 0, 69, 127
2, 16016, Note_on_c, 0, 69, 0
2, 16020, Note_on_c, 0, 70, 127
2, 16046, Note_on_c, 0, 70, 0
2, 16050, Note_on_c, 0, 74, 127
2, 16076, Note_on_c, 0, 74, 0
2, 16080, Note_on_c, 0, 72, 127
2, 16106, Note_on_c, 0, 72, 0
2, 16110, Note_on_c, 0, 75, 127
2, 16136, Note_on_c, 0, 75, 0
2, 16140, Note_on_c, 0, 74, 127
2, 16166, Note_on_c, 0, 74, 0
2, 16170, Note_on_c, 0, 70, 127
2, 16196, Note_on_c, 0, 70, 0
2, 16200, Note_on_c, 0, 67, 127
2, 16226, Note_on_c, 0, 67, 0
2, 16230, Note_on_c, 0, 79, 127
2, 16256, Note_on_c, 0, 79, 0
2, 16260, Note_on_c, 0, 69, 127
2, 16286, Note_on_c, 0, 69, 0
2, 16290, Note_on_c, 0, 79, 127
2, 16316, Note_on_c, 0, 79, 0
2, 16320, Note_on_c, 0, 70, 127
2, 16346, Note_on_c, 0, 70, 0
2, 16350, Note_on_c, 0, 79, 127
2, 16376, Note_on_c, 0, 79, 0
2, 16380, Note_on_c, 0, 72, 127
2, 16406, Note_on_c, 0, 72, 0
2, 16410, Note_on_c, 0, 74, 127
2, 16436, Note_on_c, 0, 74, 0
2, 16440, Note_on_c, 0, 75, 127
2, 16466, Note_on_c, 0, 75, 0
2, 16470, Note_on_c, 0, 72, 127
2, 16496, Note_on_c, 0, 72, 0
2, 16500, Note_on_c, 0, 69, 127
2, 16526, Note_on_c, 0, 69, 0
2, 16530, Note_on_c, 0, 77, 127
2, 16556, Note_on_c, 0, 77, 0
2, 16560, Note_on_c, 0, 70, 127
2, 16586, Note_on_c, 0, 70, 0
2, 16590, Note_on_c, 0, 72, 127
2, 16616, Note_on_c, 0, 72, 0
2, 16620, Note_on_c, 0, 74, 127
2, 16646, Note_on_c, 0, 74, 0
2, 16650, Note_on_c, 0, 70, 127
2, 16676, Note_on_c, 0, 70, 0
2, 16680, Note_on_c, 0, 67, 127
2, 16706, Note_on_c, 0, 67, 0
2, 16710, Note_on_c, 0, 75, 127
2, 16736, Note_on_c, 0, 75, 0
2, 16740, Note_on_c, 0, 69, 127
2, 16766, Note_on_c, 0, 69, 0
2, 16770, Note_on_c, 0, 70, 127
2, 16796, Note_on_c, 0, 70, 0
2, 16800, Note_on_c, 0, 72, 127
2, 16826, Note_on_c, 0, 72, 0
2, 16830, Note_on_c, 0, 69, 127
2, 16856, Note_on_c, 0, 69, 0
2, 16860, Note_on_c, 0, 66, 127
2, 16886, Note_on_c, 0, 66, 0
2, 16890, Note_on_c, 0, 74, 127
2, 16916, Note_on_c, 0, 74, 0
2, 16920, Note_on_c, 0, 67, 127
2, 16946, Note_on_c, 0, 67, 0
2, 16950, Note_on_c, 0, 69, 127
2, 16976, Note_on_c, 0, 69, 0
2, 16980, Note_on_c, 0, 70, 127
2, 17006, Note_on_c, 0, 70, 0
2, 17010, Note_on_c, 0, 67, 127
2, 17036, Note_on_c, 0, 67, 0
2, 17040, Note_on_c, 0, 62, 127
2, 17066, Note_on_c, 0, 62, 0
2, 17070, Note_on_c, 0, 72, 127
2, 17096, Note_on_c, 0, 72, 0
2, 17100, Note_on_c, 0, 70, 127
2, 17126, Note_on_c, 0, 70, 0
2, 17130, Note_on_c, 0, 69, 127
2, 17156, Note_on_c, 0, 69, 0
2, 17160, Note_on_c, 0, 67, 127
2, 17186, Note_on_c, 0, 67, 0
2, 17190, Note_on_c, 0, 66, 127
2, 17216, Note_on_c, 0, 66, 0
2, 17220, Note_on_c, 0, 67, 127
2, 17426, Note_on_c, 0, 67, 0
2, 17426, Program_c, 0, 88
2, 17429, Control_c, 0, 10, 64
2, 17429, Control_c, 0, 7, 110
2, 17430, Note_on_c, 0, 84, 115
2, 17456, Note_on_c, 0, 84, 0
2, 17460, Note_on_c, 0, 83, 115
2, 17486, Note_on_c, 0, 83, 0
2, 17490, Note_on_c, 0, 81, 115
2, 17516, Note_on_c, 0, 81, 0
2, 17520, Note_on_c, 0, 79, 115
2, 17546, Note_on_c, 0, 79, 0
2, 17550, Note_on_c, 0, 77, 115
2, 17576, Note_on_c, 0, 77, 0
2, 17580, Note_on_c, 0, 75, 115
2, 17685, Note_on_c, 0, 75, 0
2, 17700, Note_on_c, 0, 77, 115
2, 17752, Note_on_c, 0, 77, 0
2, 17760, Note_on_c, 0, 79, 115
2, 17786, Note_on_c, 0, 79, 0
2, 17940, Note_on_c, 0, 77, 115
2, 17966, Note_on_c, 0, 77, 0
2, 18120, Note_on_c, 0, 75, 115
2, 18146, Note_on_c, 0, 75, 0
2, 18300, Note_on_c, 0, 74, 115
2, 18326, Note_on_c, 0, 74, 0
2, 18510, Note_on_c, 0, 79, 115
2, 18536, Note_on_c, 0, 79, 0
2, 18540, Note_on_c, 0, 77, 115
2, 18566, Note_on_c, 0, 77, 0
2, 18570, Note_on_c, 0, 75, 115
2, 18596, Note_on_c, 0, 75, 0
2, 18600, Note_on_c, 0, 74, 115
2, 18626, Note_on_c, 0, 74, 0
2, 18630, Note_on_c, 0, 72, 115
2, 18656, Note_on_c, 0, 72, 0
2, 18660, Note_on_c, 0, 71, 115
2, 18686, Note_on_c, 0, 71, 0
2, 18690, Note_on_c, 0, 72, 115
2, 18716, Note_on_c, 0, 72, 0
2, 18720, Note_on_c, 0, 74, 115
2, 18746, Note_on_c, 0, 74, 0
2, 18750, Note_on_c, 0, 71, 115
2, 18776, Note_on_c, 0, 71, 0
2, 18780, Note_on_c, 0, 67, 115
2, 18866, Note_on_c, 0, 67, 0
2, 18870, Note_on_c, 0, 72, 115
2, 18896, Note_on_c, 0, 72, 0
2, 18900, Note_on_c, 0, 70, 115
2, 18926, Note_on_c, 0, 70, 0
2, 18930, Note_on_c, 0, 68, 115
2, 18956, Note_on_c, 0, 68, 0
2, 18960, Note_on_c, 0, 67, 115
2, 18986, Note_on_c, 0, 67, 0
2, 18990, Note_on_c, 0, 65, 115
2, 19016, Note_on_c, 0, 65, 0
2, 19020, Note_on_c, 0, 63, 115
2, 19125, Note_on_c, 0, 63, 0
2, 19140, Note_on_c, 0, 65, 115
2, 19192, Note_on_c, 0, 65, 0
2, 19200, Note_on_c, 0, 67, 115
2, 19226, Note_on_c, 0, 67, 0
2, 19380, Note_on_c, 0, 65, 115
2, 19406, Note_on_c, 0, 65, 0
2, 19560, Note_on_c, 0, 63, 115
2, 19586, Note_on_c, 0, 63, 0
2, 19740, Note_on_c, 0, 62, 115
2, 19766, Note_on_c, 0, 62, 0
2, 19980, Note_on_c, 0, 60, 115
2, 20032, Note_on_c, 0, 60, 0
2, 20040, Note_on_c, 0, 59, 115
2, 20092, Note_on_c, 0, 59, 0
2, 20100, Note_on_c, 0, 60, 115
2, 20265, Note_on_c, 0, 60, 0
2, 20265, End_track
3, 0, Start_track
3, 0, MIDI_port, 0
3, 0, Program_c, 1, 1
3, 260, Control_c, 1, 10, 7
3, 260, Control_c, 1, 7, 100
3, 260, Program_c, 1, 114
3, 300, Note_on_c, 1, 72, 105
3, 352, Note_on_c, 1, 72, 0
3, 360, Note_on_c, 1, 60, 105
3, 412, Note_on_c, 1, 60, 0
3, 420, Note_on_c, 1, 62, 105
3, 472, Note_on_c, 1, 62, 0
3, 480, Note_on_c, 1, 63, 105
3, 532, Note_on_c, 1, 63, 0
3, 540, Note_on_c, 1, 68, 105
3, 592, Note_on_c, 1, 68, 0
3, 600, Note_on_c, 1, 65, 105
3, 652, Note_on_c, 1, 65, 0
3, 660, Note_on_c, 1, 62, 105
3, 712, Note_on_c, 1, 62, 0
3, 720, Note_on_c, 1, 67, 105
3, 772, Note_on_c, 1, 67, 0
3, 780, Note_on_c, 1, 63, 105
3, 832, Note_on_c, 1, 63, 0
3, 840, Note_on_c, 1, 60, 105
3, 892, Note_on_c, 1, 60, 0
3, 900, Note_on_c, 1, 65, 105
3, 952, Note_on_c, 1, 65, 0
3, 960, Note_on_c, 1, 62, 105
3, 1012, Note_on_c, 1, 62, 0
3, 1020, Note_on_c, 1, 59, 105
3, 1072, Note_on_c, 1, 59, 0
3, 1080, Note_on_c, 1, 63, 105
3, 1132, Note_on_c, 1, 63, 0
3, 1140, Note_on_c, 1, 60, 105
3, 1192, Note_on_c, 1, 60, 0
3, 1200, Note_on_c, 1, 56, 105
3, 1252, Note_on_c, 1, 56, 0
3, 1260, Note_on_c, 1, 53, 105
3, 1312, Note_on_c, 1, 53, 0
3, 1320, Note_on_c, 1, 50, 105
3, 1372, Note_on_c, 1, 50, 0
3, 1380, Note_on_c, 1, 55, 105
3, 1432, Note_on_c, 1, 55, 0
3, 1470, Note_on_c, 1, 65, 105
3, 1496, Note_on_c, 1, 65, 0
3, 1500, Note_on_c, 1, 63, 105
3, 1526, Note_on_c, 1, 63, 0
3, 1530, Note_on_c, 1, 62, 105
3, 1556, Note_on_c, 1, 62, 0
3, 1560, Note_on_c, 1, 60, 105
3, 1612, Note_on_c, 1, 60, 0
3, 1740, Note_on_c, 1, 72, 105
3, 1792, Note_on_c, 1, 72, 0
3, 1800, Note_on_c, 1, 60, 105
3, 1852, Note_on_c, 1, 60, 0
3, 1860, Note_on_c, 1, 62, 105
3, 1912, Note_on_c, 1, 62, 0
3, 1920, Note_on_c, 1, 63, 105
3, 1972, Note_on_c, 1, 63, 0
3, 1980, Note_on_c, 1, 68, 105
3, 2032, Note_on_c, 1, 68, 0
3, 2040, Note_on_c, 1, 65, 105
3, 2092, Note_on_c, 1, 65, 0
3, 2100, Note_on_c, 1, 62, 105
3, 2152, Note_on_c, 1, 62, 0
3, 2160, Note_on_c, 1, 67, 105
3, 2212, Note_on_c, 1, 67, 0
3, 2220, Note_on_c, 1, 63, 105
3, 2272, Note_on_c, 1, 63, 0
3, 2280, Note_on_c, 1, 60, 105
3, 2332, Note_on_c, 1, 60, 0
3, 2340, Note_on_c, 1, 65, 105
3, 2392, Note_on_c, 1, 65, 0
3, 2400, Note_on_c, 1, 62, 105
3, 2452, Note_on_c, 1, 62, 0
3, 2460, Note_on_c, 1, 59, 105
3, 2512, Note_on_c, 1, 59, 0
3, 2520, Note_on_c, 1, 63, 105
3, 2572, Note_on_c, 1, 63, 0
3, 2580, Note_on_c, 1, 60, 105
3, 2632, Note_on_c, 1, 60, 0
3, 2640, Note_on_c, 1, 56, 105
3, 2692, Note_on_c, 1, 56, 0
3, 2700, Note_on_c, 1, 53, 105
3, 2752, Note_on_c, 1, 53, 0
3, 2760, Note_on_c, 1, 55, 105
3, 2812, Note_on_c, 1, 55, 0
3, 2820, Note_on_c, 1, 48, 105
3, 2872, Note_on_c, 1, 48, 0
3, 2880, Note_on_c, 1, 43, 105
3, 2932, Note_on_c, 1, 43, 0
3, 2940, Note_on_c, 1, 39, 105
3, 2992, Note_on_c, 1, 39, 0
3, 3000, Note_on_c, 1, 36, 105
3, 3105, Note_on_c, 1, 36, 0
3, 3170, Program_c, 1, 0
3, 3179, Control_c, 1, 10, 64
3, 3179, Control_c, 1, 7, 110
3, 3180, Note_on_c, 1, 55, 105
3, 3232, Note_on_c, 1, 55, 0
3, 3240, Note_on_c, 1, 53, 105
3, 3292, Note_on_c, 1, 53, 0
3, 3300, Note_on_c, 1, 51, 105
3, 3352, Note_on_c, 1, 51, 0
3, 3360, Note_on_c, 1, 50, 105
3, 3412, Note_on_c, 1, 50, 0
3, 3420, Note_on_c, 1, 48, 105
3, 3472, Note_on_c, 1, 48, 0
3, 3480, Note_on_c, 1, 46, 105
3, 3532, Note_on_c, 1, 46, 0
3, 3540, Note_on_c, 1, 51, 105
3, 3592, Note_on_c, 1, 51, 0
3, 3600, Note_on_c, 1, 55, 105
3, 3652, Note_on_c, 1, 55, 0
3, 3660, Note_on_c, 1, 53, 105
3, 3712, Note_on_c, 1, 53, 0
3, 3720, Note_on_c, 1, 52, 105
3, 3772, Note_on_c, 1, 52, 0
3, 3780, Note_on_c, 1, 55, 105
3, 3832, Note_on_c, 1, 55, 0
3, 3840, Note_on_c, 1, 48, 105
3, 3892, Note_on_c, 1, 48, 0
3, 3900, Note_on_c, 1, 53, 105
3, 3952, Note_on_c, 1, 53, 0
3, 3960, Note_on_c, 1, 56, 105
3, 4012, Note_on_c, 1, 56, 0
3, 4020, Note_on_c, 1, 49, 105
3, 4072, Note_on_c, 1, 49, 0
3, 4080, Note_on_c, 1, 58, 105
3, 4132, Note_on_c, 1, 58, 0
3, 4140, Note_on_c, 1, 48, 105
3, 4192, Note_on_c, 1, 48, 0
3, 4200, Note_on_c, 1, 60, 105
3, 4252, Note_on_c, 1, 60, 0
3, 4260, Note_on_c, 1, 58, 105
3, 4286, Note_on_c, 1, 58, 0
3, 4290, Note_on_c, 1, 56, 105
3, 4316, Note_on_c, 1, 56, 0
3, 4320, Note_on_c, 1, 58, 105
3, 4346, Note_on_c, 1, 58, 0
3, 4350, Note_on_c, 1, 56, 105
3, 4376, Note_on_c, 1, 56, 0
3, 4380, Note_on_c, 1, 55, 105
3, 4406, Note_on_c, 1, 55, 0
3, 4410, Note_on_c, 1, 53, 105
3, 4436, Note_on_c, 1, 53, 0
3, 4440, Note_on_c, 1, 58, 105
3, 4492, Note_on_c, 1, 58, 0
3, 4500, Note_on_c, 1, 53, 105
3, 4552, Note_on_c, 1, 53, 0
3, 4560, Note_on_c, 1, 56, 105
3, 4612, Note_on_c, 1, 56, 0
3, 4620, Note_on_c, 1, 50, 105
3, 4672, Note_on_c, 1, 50, 0
3, 4680, Note_on_c, 1, 53, 105
3, 4732, Note_on_c, 1, 53, 0
3, 4740, Note_on_c, 1, 46, 105
3, 4792, Note_on_c, 1, 46, 0
3, 4800, Note_on_c, 1, 39, 105
3, 4852, Note_on_c, 1, 39, 0
3, 4860, Note_on_c, 1, 55, 105
3, 4912, Note_on_c, 1, 55, 0
3, 4920, Note_on_c, 1, 58, 105
3, 4972, Note_on_c, 1, 58, 0
3, 4980, Note_on_c, 1, 52, 105
3, 5032, Note_on_c, 1, 52, 0
3, 5040, Note_on_c, 1, 55, 105
3, 5092, Note_on_c, 1, 55, 0
3, 5100, Note_on_c, 1, 48, 105
3, 5152, Note_on_c, 1, 48, 0
3, 5160, Note_on_c, 1, 41, 105
3, 5212, Note_on_c, 1, 41, 0
3, 5220, Note_on_c, 1, 56, 105
3, 5272, Note_on_c, 1, 56, 0
3, 5280, Note_on_c, 1, 60, 105
3, 5332, Note_on_c, 1, 60, 0
3, 5340, Note_on_c, 1, 53, 105
3, 5392, Note_on_c, 1, 53, 0
3, 5400, Note_on_c, 1, 56, 105
3, 5452, Note_on_c, 1, 56, 0
3, 5460, Note_on_c, 1, 50, 105
3, 5512, Note_on_c, 1, 50, 0
3, 5520, Note_on_c, 1, 51, 105
3, 5572, Note_on_c, 1, 51, 0
3, 5580, Note_on_c, 1, 44, 105
3, 5632, Note_on_c, 1, 44, 0
3, 5640, Note_on_c, 1, 53, 105
3, 5692, Note_on_c, 1, 53, 0
3, 5700, Note_on_c, 1, 43, 105
3, 5752, Note_on_c, 1, 43, 0
3, 5760, Note_on_c, 1, 55, 105
3, 5812, Note_on_c, 1, 55, 0
3, 5845, Program_c, 1, 114
3, 5849, Control_c, 1, 10, 7
3, 5849, Control_c, 1, 7, 100
3, 5850, Note_on_c, 1, 65, 105
3, 5876, Note_on_c, 1, 65, 0
3, 5880, Note_on_c, 1, 63, 105
3, 5906, Note_on_c, 1, 63, 0
3, 5910, Note_on_c, 1, 65, 105
3, 5936, Note_on_c, 1, 65, 0
3, 5940, Note_on_c, 1, 67, 105
3, 5966, Note_on_c, 1, 67, 0
3, 5970, Note_on_c, 1, 69, 105
3, 5996, Note_on_c, 1, 69, 0
3, 6000, Note_on_c, 1, 71, 105
3, 6026, Note_on_c, 1, 71, 0
3, 6030, Note_on_c, 1, 67, 105
3, 6056, Note_on_c, 1, 67, 0
3, 6060, Note_on_c, 1, 72, 105
3, 6112, Note_on_c, 1, 72, 0
3, 6120, Note_on_c, 1, 60, 105
3, 6172, Note_on_c, 1, 60, 0
3, 6180, Note_on_c, 1, 62, 105
3, 6232, Note_on_c, 1, 62, 0
3, 6240, Note_on_c, 1, 63, 105
3, 6292, Note_on_c, 1, 63, 0
3, 6300, Note_on_c, 1, 68, 105
3, 6352, Note_on_c, 1, 68, 0
3, 6360, Note_on_c, 1, 65, 105
3, 6412, Note_on_c, 1, 65, 0
3, 6420, Note_on_c, 1, 62, 105
3, 6472, Note_on_c, 1, 62, 0
3, 6480, Note_on_c, 1, 67, 105
3, 6532, Note_on_c, 1, 67, 0
3, 6540, Note_on_c, 1, 63, 105
3, 6592, Note_on_c, 1, 63, 0
3, 6600, Note_on_c, 1, 60, 105
3, 6652, Note_on_c, 1, 60, 0
3, 6660, Note_on_c, 1, 65, 105
3, 6712, Note_on_c, 1, 65, 0
3, 6720, Note_on_c, 1, 62, 105
3, 6772, Note_on_c, 1, 62, 0
3, 6780, Note_on_c, 1, 59, 105
3, 6832, Note_on_c, 1, 59, 0
3, 6840, Note_on_c, 1, 63, 105
3, 6892, Note_on_c, 1, 63, 0
3, 6900, Note_on_c, 1, 60, 105
3, 6952, Note_on_c, 1, 60, 0
3, 6960, Note_on_c, 1, 56, 105
3, 7012, Note_on_c, 1, 56, 0
3, 7020, Note_on_c, 1, 53, 105
3, 7072, Note_on_c, 1, 53, 0
3, 7080, Note_on_c, 1, 50, 105
3, 7132, Note_on_c, 1, 50, 0
3, 7140, Note_on_c, 1, 55, 105
3, 7192, Note_on_c, 1, 55, 0
3, 7230, Note_on_c, 1, 65, 105
3, 7256, Note_on_c, 1, 65, 0
3, 7260, Note_on_c, 1, 63, 105
3, 7286, Note_on_c, 1, 63, 0
3, 7290, Note_on_c, 1, 62, 105
3, 7316, Note_on_c, 1, 62, 0
3, 7320, Note_on_c, 1, 60, 105
3, 7372, Note_on_c, 1, 60, 0
3, 7500, Note_on_c, 1, 72, 105
3, 7552, Note_on_c, 1, 72, 0
3, 7560, Note_on_c, 1, 60, 105
3, 7612, Note_on_c, 1, 60, 0
3, 7620, Note_on_c, 1, 62, 105
3, 7672, Note_on_c, 1, 62, 0
3, 7680, Note_on_c, 1, 63, 105
3, 7732, Note_on_c, 1, 63, 0
3, 7740, Note_on_c, 1, 68, 105
3, 7792, Note_on_c, 1, 68, 0
3, 7800, Note_on_c, 1, 65, 105
3, 7852, Note_on_c, 1, 65, 0
3, 7860, Note_on_c, 1, 62, 105
3, 7912, Note_on_c, 1, 62, 0
3, 7920, Note_on_c, 1, 67, 105
3, 7972, Note_on_c, 1, 67, 0
3, 7980, Note_on_c, 1, 63, 105
3, 8032, Note_on_c, 1, 63, 0
3, 8040, Note_on_c, 1, 60, 105
3, 8092, Note_on_c, 1, 60, 0
3, 8100, Note_on_c, 1, 65, 105
3, 8152, Note_on_c, 1, 65, 0
3, 8160, Note_on_c, 1, 62, 105
3, 8212, Note_on_c, 1, 62, 0
3, 8220, Note_on_c, 1, 59, 105
3, 8272, Note_on_c, 1, 59, 0
3, 8280, Note_on_c, 1, 63, 105
3, 8332, Note_on_c, 1, 63, 0
3, 8340, Note_on_c, 1, 60, 105
3, 8392, Note_on_c, 1, 60, 0
3, 8400, Note_on_c, 1, 56, 105
3, 8452, Note_on_c, 1, 56, 0
3, 8460, Note_on_c, 1, 53, 105
3, 8512, Note_on_c, 1, 53, 0
3, 8520, Note_on_c, 1, 55, 105
3, 8572, Note_on_c, 1, 55, 0
3, 8580, Note_on_c, 1, 48, 105
3, 8606, Note_on_c, 1, 48, 0
3, 8610, Note_on_c, 1, 51, 105
3, 8636, Note_on_c, 1, 51, 0
3, 8640, Note_on_c, 1, 55, 105
3, 8666, Note_on_c, 1, 55, 0
3, 8670, Note_on_c, 1, 48, 105
3, 8696, Note_on_c, 1, 48, 0
3, 8700, Note_on_c, 1, 51, 105
3, 8726, Note_on_c, 1, 51, 0
3, 8730, Note_on_c, 1, 55, 105
3, 8756, Note_on_c, 1, 55, 0
3, 8760, Note_on_c, 1, 60, 105
3, 8810, Program_c, 1, 11
3, 8812, Note_on_c, 1, 60, 0
3, 8819, Control_c, 1, 10, 64
3, 8819, Control_c, 1, 7, 90
3, 8820, Note_on_c, 1, 48, 105
3, 8872, Note_on_c, 1, 48, 0
3, 8880, Note_on_c, 1, 60, 105
3, 8992, Note_on_c, 1, 60, 0
3, 9000, Note_on_c, 1, 48, 105
3, 9026, Note_on_c, 1, 48, 0
3, 9030, Note_on_c, 1, 60, 105
3, 9056, Note_on_c, 1, 60, 0
3, 9060, Note_on_c, 1, 58, 105
3, 9086, Note_on_c, 1, 58, 0
3, 9090, Note_on_c, 1, 56, 105
3, 9116, Note_on_c, 1, 56, 0
3, 9120, Note_on_c, 1, 58, 105
3, 9172, Note_on_c, 1, 58, 0
3, 9180, Note_on_c, 1, 46, 105
3, 9232, Note_on_c, 1, 46, 0
3, 9240, Note_on_c, 1, 58, 105
3, 9352, Note_on_c, 1, 58, 0
3, 9360, Note_on_c, 1, 46, 105
3, 9386, Note_on_c, 1, 46, 0
3, 9390, Note_on_c, 1, 58, 105
3, 9416, Note_on_c, 1, 58, 0
3, 9420, Note_on_c, 1, 56, 105
3, 9446, Note_on_c, 1, 56, 0
3, 9450, Note_on_c, 1, 55, 105
3, 9476, Note_on_c, 1, 55, 0
3, 9480, Note_on_c, 1, 56, 105
3, 9532, Note_on_c, 1, 56, 0
3, 9540, Note_on_c, 1, 44, 105
3, 9592, Note_on_c, 1, 44, 0
3, 9600, Note_on_c, 1, 56, 105
3, 9712, Note_on_c, 1, 56, 0
3, 9720, Note_on_c, 1, 44, 105
3, 9746, Note_on_c, 1, 44, 0
3, 9750, Note_on_c, 1, 56, 105
3, 9776, Note_on_c, 1, 56, 0
3, 9780, Note_on_c, 1, 55, 105
3, 9806, Note_on_c, 1, 55, 0
3, 9810, Note_on_c, 1, 53, 105
3, 9836, Note_on_c, 1, 53, 0
3, 9840, Note_on_c, 1, 55, 105
3, 9892, Note_on_c, 1, 55, 0
3, 9900, Note_on_c, 1, 53, 105
3, 9952, Note_on_c, 1, 53, 0
3, 9960, Note_on_c, 1, 51, 105
3, 10012, Note_on_c, 1, 51, 0
3, 10020, Note_on_c, 1, 58, 105
3, 10072, Note_on_c, 1, 58, 0
3, 10080, Note_on_c, 1, 46, 105
3, 10132, Note_on_c, 1, 46, 0
3, 10140, Note_on_c, 1, 58, 105
3, 10252, Note_on_c, 1, 58, 0
3, 10260, Note_on_c, 1, 51, 105
3, 10312, Note_on_c, 1, 51, 0
3, 10320, Note_on_c, 1, 53, 105
3, 10372, Note_on_c, 1, 53, 0
3, 10380, Note_on_c, 1, 55, 105
3, 10432, Note_on_c, 1, 55, 0
3, 10440, Note_on_c, 1, 58, 105
3, 10492, Note_on_c, 1, 58, 0
3, 10560, Note_on_c, 1, 56, 105
3, 10612, Note_on_c, 1, 56, 0
3, 10620, Note_on_c, 1, 55, 105
3, 10672, Note_on_c, 1, 55, 0
3, 10680, Note_on_c, 1, 51, 105
3, 10732, Note_on_c, 1, 51, 0
3, 10740, Note_on_c, 1, 46, 105
3, 10792, Note_on_c, 1, 46, 0
3, 10800, Note_on_c, 1, 58, 105
3, 10852, Note_on_c, 1, 58, 0
3, 10860, Note_on_c, 1, 56, 105
3, 10912, Note_on_c, 1, 56, 0
3, 10920, Note_on_c, 1, 55, 105
3, 10972, Note_on_c, 1, 55, 0
3, 10980, Note_on_c, 1, 43, 105
3, 11032, Note_on_c, 1, 43, 0
3, 11040, Note_on_c, 1, 55, 105
3, 11152, Note_on_c, 1, 55, 0
3, 11160, Note_on_c, 1, 44, 105
3, 11212, Note_on_c, 1, 44, 0
3, 11220, Note_on_c, 1, 55, 105
3, 11332, Note_on_c, 1, 55, 0
3, 11340, Note_on_c, 1, 46, 105
3, 11392, Note_on_c, 1, 46, 0
3, 11400, Note_on_c, 1, 53, 105
3, 11452, Note_on_c, 1, 53, 0
3, 11460, Note_on_c, 1, 51, 105
3, 11565, Note_on_c, 1, 51, 0
3, 11610, Note_on_c, 1, 50, 105
3, 11636, Note_on_c, 1, 50, 0
3, 11640, Note_on_c, 1, 51, 105
3, 11665, Program_c, 1, 114
3, 11666, Note_on_c, 1, 51, 0
3, 11669, Control_c, 1, 10, 7
3, 11669, Control_c, 1, 7, 100
3, 11670, Note_on_c, 1, 53, 105
3, 11696, Note_on_c, 1, 53, 0
3, 11700, Note_on_c, 1, 51, 105
3, 11726, Note_on_c, 1, 51, 0
3, 11730, Note_on_c, 1, 50, 105
3, 11756, Note_on_c, 1, 50, 0
3, 11760, Note_on_c, 1, 48, 105
3, 11786, Note_on_c, 1, 48, 0
3, 11790, Note_on_c, 1, 47, 105
3, 11816, Note_on_c, 1, 47, 0
3, 11820, Note_on_c, 1, 48, 105
3, 11846, Note_on_c, 1, 48, 0
3, 11850, Note_on_c, 1, 55, 105
3, 11876, Note_on_c, 1, 55, 0
3, 11880, Note_on_c, 1, 57, 105
3, 11906, Note_on_c, 1, 57, 0
3, 11910, Note_on_c, 1, 59, 105
3, 11936, Note_on_c, 1, 59, 0
3, 11940, Note_on_c, 1, 60, 105
3, 11966, Note_on_c, 1, 60, 0
3, 11970, Note_on_c, 1, 62, 105
3, 11996, Note_on_c, 1, 62, 0
3, 12000, Note_on_c, 1, 63, 105
3, 12052, Note_on_c, 1, 63, 0
3, 12060, Note_on_c, 1, 53, 105
3, 12112, Note_on_c, 1, 53, 0
3, 12150, Note_on_c, 1, 63, 105
3, 12176, Note_on_c, 1, 63, 0
3, 12180, Note_on_c, 1, 62, 105
3, 12232, Note_on_c, 1, 62, 0
3, 12240, Note_on_c, 1, 51, 105
3, 12292, Note_on_c, 1, 51, 0
3, 12330, Note_on_c, 1, 62, 105
3, 12356, Note_on_c, 1, 62, 0
3, 12360, Note_on_c, 1, 60, 105
3, 12412, Note_on_c, 1, 60, 0
3, 12420, Note_on_c, 1, 50, 105
3, 12472, Note_on_c, 1, 50, 0
3, 12510, Note_on_c, 1, 60, 105
3, 12536, Note_on_c, 1, 60, 0
3, 12540, Note_on_c, 1, 59, 105
3, 12592, Note_on_c, 1, 59, 0
3, 12600, Note_on_c, 1, 48, 105
3, 12652, Note_on_c, 1, 48, 0
3, 12690, Note_on_c, 1, 51, 105
3, 12716, Note_on_c, 1, 51, 0
3, 12720, Note_on_c, 1, 56, 105
3, 12772, Note_on_c, 1, 56, 0
3, 12780, Note_on_c, 1, 55, 105
3, 12832, Note_on_c, 1, 55, 0
3, 12840, Note_on_c, 1, 53, 105
3, 12892, Note_on_c, 1, 53, 0
3, 12900, Note_on_c, 1, 55, 105
3, 12926, Note_on_c, 1, 55, 0
3, 12930, Note_on_c, 1, 53, 105
3, 12956, Note_on_c, 1, 53, 0
3, 12960, Note_on_c, 1, 55, 105
3, 12986, Note_on_c, 1, 55, 0
3, 12990, Note_on_c, 1, 56, 105
3, 13016, Note_on_c, 1, 56, 0
3, 13020, Note_on_c, 1, 53, 105
3, 13046, Note_on_c, 1, 53, 0
3, 13050, Note_on_c, 1, 55, 105
3, 13076, Note_on_c, 1, 55, 0
3, 13080, Note_on_c, 1, 51, 105
3, 13106, Note_on_c, 1, 51, 0
3, 13110, Note_on_c, 1, 50, 105
3, 13136, Note_on_c, 1, 50, 0
3, 13140, Note_on_c, 1, 51, 105
3, 13166, Note_on_c, 1, 51, 0
3, 13170, Note_on_c, 1, 53, 105
3, 13196, Note_on_c, 1, 53, 0
3, 13200, Note_on_c, 1, 50, 105
3, 13226, Note_on_c, 1, 50, 0
3, 13230, Note_on_c, 1, 51, 105
3, 13256, Note_on_c, 1, 51, 0
3, 13260, Note_on_c, 1, 48, 105
3, 13312, Note_on_c, 1, 48, 0
3, 13320, Note_on_c, 1, 60, 105
3, 13372, Note_on_c, 1, 60, 0
3, 13380, Note_on_c, 1, 62, 105
3, 13432, Note_on_c, 1, 62, 0
3, 13440, Note_on_c, 1, 63, 105
3, 13492, Note_on_c, 1, 63, 0
3, 13500, Note_on_c, 1, 68, 105
3, 13552, Note_on_c, 1, 68, 0
3, 13560, Note_on_c, 1, 65, 105
3, 13612, Note_on_c, 1, 65, 0
3, 13620, Note_on_c, 1, 62, 105
3, 13672, Note_on_c, 1, 62, 0
3, 13680, Note_on_c, 1, 67, 105
3, 13732, Note_on_c, 1, 67, 0
3, 13740, Note_on_c, 1, 63, 105
3, 13792, Note_on_c, 1, 63, 0
3, 13800, Note_on_c, 1, 60, 105
3, 13852, Note_on_c, 1, 60, 0
3, 13860, Note_on_c, 1, 65, 105
3, 13912, Note_on_c, 1, 65, 0
3, 13920, Note_on_c, 1, 62, 105
3, 13972, Note_on_c, 1, 62, 0
3, 13980, Note_on_c, 1, 59, 105
3, 14032, Note_on_c, 1, 59, 0
3, 14040, Note_on_c, 1, 63, 105
3, 14092, Note_on_c, 1, 63, 0
3, 14100, Note_on_c, 1, 60, 105
3, 14152, Note_on_c, 1, 60, 0
3, 14160, Note_on_c, 1, 56, 105
3, 14212, Note_on_c, 1, 56, 0
3, 14220, Note_on_c, 1, 53, 105
3, 14272, Note_on_c, 1, 53, 0
3, 14280, Note_on_c, 1, 55, 105
3, 14332, Note_on_c, 1, 55, 0
3, 14340, Note_on_c, 1, 48, 105
3, 14392, Note_on_c, 1, 48, 0
3, 14400, Note_on_c, 1, 43, 105
3, 14426, Note_on_c, 1, 43, 0
3, 14430, Note_on_c, 1, 41, 105
3, 14456, Note_on_c, 1, 41, 0
3, 14460, Note_on_c, 1, 39, 105
3, 14486, Note_on_c, 1, 39, 0
3, 14490, Note_on_c, 1, 38, 105
3, 14516, Note_on_c, 1, 38, 0
3, 14520, Note_on_c, 1, 36, 105
3, 14572, Note_on_c, 1, 36, 0
3, 14575, Program_c, 1, 28
3, 14579, Control_c, 1, 10, 64
3, 14579, Control_c, 1, 7, 110
3, 14580, Note_on_c, 1, 60, 105
3, 14632, Note_on_c, 1, 60, 0
3, 14640, Note_on_c, 1, 58, 105
3, 14692, Note_on_c, 1, 58, 0
3, 14700, Note_on_c, 1, 57, 105
3, 14752, Note_on_c, 1, 57, 0
3, 14760, Note_on_c, 1, 55, 105
3, 14812, Note_on_c, 1, 55, 0
3, 14820, Note_on_c, 1, 53, 105
3, 14872, Note_on_c, 1, 53, 0
3, 14880, Note_on_c, 1, 46, 105
3, 14932, Note_on_c, 1, 46, 0
3, 14940, Note_on_c, 1, 58, 105
3, 14992, Note_on_c, 1, 58, 0
3, 15000, Note_on_c, 1, 57, 105
3, 15052, Note_on_c, 1, 57, 0
3, 15060, Note_on_c, 1, 55, 105
3, 15112, Note_on_c, 1, 55, 0
3, 15120, Note_on_c, 1, 53, 105
3, 15172, Note_on_c, 1, 53, 0
3, 15180, Note_on_c, 1, 51, 105
3, 15232, Note_on_c, 1, 51, 0
3, 15240, Note_on_c, 1, 45, 105
3, 15292, Note_on_c, 1, 45, 0
3, 15300, Note_on_c, 1, 57, 105
3, 15352, Note_on_c, 1, 57, 0
3, 15360, Note_on_c, 1, 55, 105
3, 15412, Note_on_c, 1, 55, 0
3, 15420, Note_on_c, 1, 54, 105
3, 15472, Note_on_c, 1, 54, 0
3, 15480, Note_on_c, 1, 52, 105
3, 15532, Note_on_c, 1, 52, 0
3, 15540, Note_on_c, 1, 50, 105
3, 15592, Note_on_c, 1, 50, 0
3, 15600, Note_on_c, 1, 55, 105
3, 15652, Note_on_c, 1, 55, 0
3, 15660, Note_on_c, 1, 51, 105
3, 15712, Note_on_c, 1, 51, 0
3, 15720, Note_on_c, 1, 48, 105
3, 15772, Note_on_c, 1, 48, 0
3, 15780, Note_on_c, 1, 50, 105
3, 15806, Note_on_c, 1, 50, 0
3, 15810, Note_on_c, 1, 51, 105
3, 15836, Note_on_c, 1, 51, 0
3, 15840, Note_on_c, 1, 50, 105
3, 15866, Note_on_c, 1, 50, 0
3, 15870, Note_on_c, 1, 48, 105
3, 15896, Note_on_c, 1, 48, 0
3, 15900, Note_on_c, 1, 46, 105
3, 15926, Note_on_c, 1, 46, 0
3, 15930, Note_on_c, 1, 45, 105
3, 15956, Note_on_c, 1, 45, 0
3, 15960, Note_on_c, 1, 43, 105
3, 16012, Note_on_c, 1, 43, 0
3, 16020, Note_on_c, 1, 55, 105
3, 16072, Note_on_c, 1, 55, 0
3, 16080, Note_on_c, 1, 57, 105
3, 16132, Note_on_c, 1, 57, 0
3, 16140, Note_on_c, 1, 58, 105
3, 16245, Note_on_c, 1, 58, 0
3, 16260, Note_on_c, 1, 60, 105
3, 16312, Note_on_c, 1, 60, 0
3, 16320, Note_on_c, 1, 62, 105
3, 16372, Note_on_c, 1, 62, 0
3, 16380, Note_on_c, 1, 51, 105
3, 16432, Note_on_c, 1, 51, 0
3, 16500, Note_on_c, 1, 60, 105
3, 16552, Note_on_c, 1, 60, 0
3, 16560, Note_on_c, 1, 50, 105
3, 16612, Note_on_c, 1, 50, 0
3, 16680, Note_on_c, 1, 58, 105
3, 16732, Note_on_c, 1, 58, 0
3, 16740, Note_on_c, 1, 48, 105
3, 16792, Note_on_c, 1, 48, 0
3, 16860, Note_on_c, 1, 57, 105
3, 16912, Note_on_c, 1, 57, 0
3, 16920, Note_on_c, 1, 46, 105
3, 16972, Note_on_c, 1, 46, 0
3, 17100, Note_on_c, 1, 48, 105
3, 17152, Note_on_c, 1, 48, 0
3, 17160, Note_on_c, 1, 50, 105
3, 17212, Note_on_c, 1, 50, 0
3, 17220, Note_on_c, 1, 43, 105
3, 17240, Program_c, 1, 81
3, 17246, Note_on_c, 1, 43, 0
3, 17249, Control_c, 1, 10, 7
3, 17249, Control_c, 1, 7, 98
3, 17250, Note_on_c, 1, 56, 105
3, 17276, Note_on_c, 1, 56, 0
3, 17280, Note_on_c, 1, 55, 105
3, 17306, Note_on_c, 1, 55, 0
3, 17310, Note_on_c, 1, 53, 105
3, 17336, Note_on_c, 1, 53, 0
3, 17340, Note_on_c, 1, 51, 105
3, 17366, Note_on_c, 1, 51, 0
3, 17370, Note_on_c, 1, 50, 105
3, 17396, Note_on_c, 1, 50, 0
3, 17400, Note_on_c, 1, 51, 105
3, 17452, Note_on_c, 1, 51, 0
3, 17460, Note_on_c, 1, 53, 105
3, 17512, Note_on_c, 1, 53, 0
3, 17520, Note_on_c, 1, 55, 105
3, 17572, Note_on_c, 1, 55, 0
3, 17580, Note_on_c, 1, 48, 105
3, 17606, Note_on_c, 1, 48, 0
3, 17610, Note_on_c, 1, 72, 105
3, 17636, Note_on_c, 1, 72, 0
3, 17640, Note_on_c, 1, 71, 105
3, 17666, Note_on_c, 1, 71, 0
3, 17670, Note_on_c, 1, 69, 105
3, 17696, Note_on_c, 1, 69, 0
3, 17700, Note_on_c, 1, 67, 105
3, 17726, Note_on_c, 1, 67, 0
3, 17730, Note_on_c, 1, 65, 105
3, 17756, Note_on_c, 1, 65, 0
3, 17760, Note_on_c, 1, 63, 105
3, 17838, Note_on_c, 1, 63, 0
3, 17970, Note_on_c, 1, 68, 105
3, 17996, Note_on_c, 1, 68, 0
3, 18000, Note_on_c, 1, 67, 105
3, 18026, Note_on_c, 1, 67, 0
3, 18030, Note_on_c, 1, 65, 105
3, 18056, Note_on_c, 1, 65, 0
3, 18060, Note_on_c, 1, 63, 105
3, 18086, Note_on_c, 1, 63, 0
3, 18090, Note_on_c, 1, 62, 105
3, 18116, Note_on_c, 1, 62, 0
3, 18120, Note_on_c, 1, 60, 105
3, 18198, Note_on_c, 1, 60, 0
3, 18330, Note_on_c, 1, 65, 105
3, 18356, Note_on_c, 1, 65, 0
3, 18360, Note_on_c, 1, 63, 105
3, 18386, Note_on_c, 1, 63, 0
3, 18390, Note_on_c, 1, 62, 105
3, 18416, Note_on_c, 1, 62, 0
3, 18420, Note_on_c, 1, 60, 105
3, 18446, Note_on_c, 1, 60, 0
3, 18450, Note_on_c, 1, 58, 105
3, 18476, Note_on_c, 1, 58, 0
3, 18480, Note_on_c, 1, 56, 105
3, 18532, Note_on_c, 1, 56, 0
3, 18540, Note_on_c, 1, 68, 105
3, 18592, Note_on_c, 1, 68, 0
3, 18600, Note_on_c, 1, 65, 105
3, 18652, Note_on_c, 1, 65, 0
3, 18660, Note_on_c, 1, 67, 105
3, 18686, Note_on_c, 1, 67, 0
3, 18690, Note_on_c, 1, 68, 105
3, 18716, Note_on_c, 1, 68, 0
3, 18720, Note_on_c, 1, 67, 105
3, 18746, Note_on_c, 1, 67, 0
3, 18750, Note_on_c, 1, 65, 105
3, 18776, Note_on_c, 1, 65, 0
3, 18780, Note_on_c, 1, 63, 105
3, 18806, Note_on_c, 1, 63, 0
3, 18810, Note_on_c, 1, 62, 105
3, 18836, Note_on_c, 1, 62, 0
3, 18840, Note_on_c, 1, 60, 105
3, 18866, Note_on_c, 1, 60, 0
3, 18870, Note_on_c, 1, 63, 105
3, 18896, Note_on_c, 1, 63, 0
3, 18900, Note_on_c, 1, 62, 105
3, 18926, Note_on_c, 1, 62, 0
3, 18930, Note_on_c, 1, 60, 105
3, 18956, Note_on_c, 1, 60, 0
3, 18960, Note_on_c, 1, 58, 105
3, 18986, Note_on_c, 1, 58, 0
3, 18990, Note_on_c, 1, 56, 105
3, 19016, Note_on_c, 1, 56, 0
3, 19020, Note_on_c, 1, 55, 105
3, 19046, Note_on_c, 1, 55, 0
3, 19230, Note_on_c, 1, 58, 105
3, 19256, Note_on_c, 1, 58, 0
3, 19260, Note_on_c, 1, 56, 105
3, 19286, Note_on_c, 1, 56, 0
3, 19290, Note_on_c, 1, 55, 105
3, 19316, Note_on_c, 1, 55, 0
3, 19320, Note_on_c, 1, 53, 105
3, 19346, Note_on_c, 1, 53, 0
3, 19350, Note_on_c, 1, 51, 105
3, 19376, Note_on_c, 1, 51, 0
3, 19380, Note_on_c, 1, 50, 105
3, 19458, Note_on_c, 1, 50, 0
3, 19590, Note_on_c, 1, 55, 105
3, 19616, Note_on_c, 1, 55, 0
3, 19620, Note_on_c, 1, 53, 105
3, 19646, Note_on_c, 1, 53, 0
3, 19650, Note_on_c, 1, 51, 105
3, 19676, Note_on_c, 1, 51, 0
3, 19680, Note_on_c, 1, 50, 105
3, 19706, Note_on_c, 1, 50, 0
3, 19710, Note_on_c, 1, 48, 105
3, 19736, Note_on_c, 1, 48, 0
3, 19740, Note_on_c, 1, 47, 105
3, 19818, Note_on_c, 1, 47, 0
3, 19980, Note_on_c, 1, 51, 105
3, 19980, Note_on_c, 1, 56, 105
3, 20032, Note_on_c, 1, 56, 0
3, 20032, Note_on_c, 1, 51, 0
3, 20040, Note_on_c, 1, 50, 105
3, 20040, Note_on_c, 1, 55, 105
3, 20092, Note_on_c, 1, 55, 0
3, 20092, Note_on_c, 1, 50, 0
3, 20100, Note_on_c, 1, 51, 105
3, 20100, Note_on_c, 1, 55, 105
3, 20265, Note_on_c, 1, 55, 0
3, 20265, Note_on_c, 1, 51, 0
3, 20265, End_track
4, 0, Start_track
4, 0, MIDI_port, 0
4, 0, Program_c, 2, 2
4, 14630, Control_c, 2, 10, 64
4, 14630, Control_c, 2, 7, 100
4, 14630, Program_c, 2, 26
4, 14640, Note_on_c, 2, 67, 105
4, 14692, Note_on_c, 2, 67, 0
4, 14700, Note_on_c, 2, 72, 105
4, 14985, Note_on_c, 2, 72, 0
4, 15000, Note_on_c, 2, 65, 105
4, 15052, Note_on_c, 2, 65, 0
4, 15060, Note_on_c, 2, 70, 105
4, 15292, Note_on_c, 2, 70, 0
4, 15300, Note_on_c, 2, 69, 105
4, 15326, Note_on_c, 2, 69, 0
4, 15330, Note_on_c, 2, 67, 105
4, 15356, Note_on_c, 2, 67, 0
4, 15360, Note_on_c, 2, 66, 105
4, 15386, Note_on_c, 2, 66, 0
4, 15390, Note_on_c, 2, 67, 105
4, 15416, Note_on_c, 2, 67, 0
4, 15420, Note_on_c, 2, 69, 105
4, 15525, Note_on_c, 2, 69, 0
4, 17785, Program_c, 2, 114
4, 17789, Control_c, 2, 10, 120
4, 17789, Control_c, 2, 7, 110
4, 17790, Note_on_c, 2, 70, 105
4, 17816, Note_on_c, 2, 70, 0
4, 17820, Note_on_c, 2, 68, 105
4, 17846, Note_on_c, 2, 68, 0
4, 17850, Note_on_c, 2, 67, 105
4, 17876, Note_on_c, 2, 67, 0
4, 17880, Note_on_c, 2, 65, 105
4, 17906, Note_on_c, 2, 65, 0
4, 17910, Note_on_c, 2, 63, 105
4, 17936, Note_on_c, 2, 63, 0
4, 17940, Note_on_c, 2, 62, 105
4, 18018, Note_on_c, 2, 62, 0
4, 18150, Note_on_c, 2, 67, 105
4, 18176, Note_on_c, 2, 67, 0
4, 18180, Note_on_c, 2, 65, 105
4, 18206, Note_on_c, 2, 65, 0
4, 18210, Note_on_c, 2, 63, 105
4, 18236, Note_on_c, 2, 63, 0
4, 18240, Note_on_c, 2, 62, 105
4, 18266, Note_on_c, 2, 62, 0
4, 18270, Note_on_c, 2, 60, 105
4, 18296, Note_on_c, 2, 60, 0
4, 18300, Note_on_c, 2, 59, 105
4, 18378, Note_on_c, 2, 59, 0
4, 19050, Note_on_c, 2, 60, 105
4, 19076, Note_on_c, 2, 60, 0
4, 19080, Note_on_c, 2, 58, 105
4, 19106, Note_on_c, 2, 58, 0
4, 19110, Note_on_c, 2, 56, 105
4, 19136, Note_on_c, 2, 56, 0
4, 19140, Note_on_c, 2, 55, 105
4, 19166, Note_on_c, 2, 55, 0
4, 19170, Note_on_c, 2, 53, 105
4, 19196, Note_on_c, 2, 53, 0
4, 19200, Note_on_c, 2, 51, 105
4, 19278, Note_on_c, 2, 51, 0
4, 19410, Note_on_c, 2, 56, 105
4, 19436, Note_on_c, 2, 56, 0
4, 19440, Note_on_c, 2, 55, 105
4, 19466, Note_on_c, 2, 55, 0
4, 19470, Note_on_c, 2, 53, 105
4, 19496, Note_on_c, 2, 53, 0
4, 19500, Note_on_c, 2, 51, 105
4, 19526, Note_on_c, 2, 51, 0
4, 19530, Note_on_c, 2, 50, 105
4, 19556, Note_on_c, 2, 50, 0
4, 19560, Note_on_c, 2, 48, 105
4, 19638, Note_on_c, 2, 48, 0
4, 19770, Note_on_c, 2, 53, 105
4, 19796, Note_on_c, 2, 53, 0
4, 19800, Note_on_c, 2, 51, 105
4, 19826, Note_on_c, 2, 51, 0
4, 19830, Note_on_c, 2, 50, 105
4, 19856, Note_on_c, 2, 50, 0
4, 19860, Note_on_c, 2, 48, 105
4, 19886, Note_on_c, 2, 48, 0
4, 19890, Note_on_c, 2, 46, 105
4, 19916, Note_on_c, 2, 46, 0
4, 19920, Note_on_c, 2, 44, 105
4, 19946, Note_on_c, 2, 44, 0
4, 19950, Note_on_c, 2, 48, 105
4, 19976, Note_on_c, 2, 48, 0
4, 19980, Note_on_c, 2, 41, 105
4, 20032, Note_on_c, 2, 41, 0
4, 20040, Note_on_c, 2, 43, 105
4, 20092, Note_on_c, 2, 43, 0
4, 20100, Note_on_c, 2, 36, 105
4, 20265, Note_on_c, 2, 36, 0
4, 20265, End_track
0, 0, End_of_file
