0, 0, Header, 1, 7, 120
1, 0, Start_track
1, 0, Time_signature, 3, 1, 48, 8
1, 0, Key_signature, -2, "major"
1, 0, Tempo, 750000
1, 2522, Tempo, 882352
1, 2638, Tempo, 759493
1, 4511, Tempo, 1395348
1, 4512, Tempo, 2142857
1, 4513, Tempo, 1363636
1, 4562, Tempo, 759493
1, 5406, Tempo, 1052631
1, 5520, Tempo, 833333
1, 5521, Tempo, 759493
1, 5523, Tempo, 833333
1, 5677, Tempo, 779220
1, 5678, Tempo, 800000
1, 5871, Tempo, 750000
1, 5873, Tempo, 800000
1, 7647, Tempo, 1500000
1, 7681, Tempo, 740740
1, 7683, Tempo, 789473
1, 8643, Tempo, 750000
1, 13170, Tempo, 1276595
1, 13200, Tempo, 750000
1, 14050, Tempo, 1176470
1, 14163, Tempo, 800000
1, 14166, Tempo, 789473
1, 14186, Tempo, 800000
1, 14193, Tempo, 810810
1, 14206, Tempo, 821917
1, 14226, Tempo, 810810
1, 14516, Tempo, 779220
1, 16286, Tempo, 1200000
1, 16320, Tempo, 769230
1, 18082, Tempo, 967741
1, 18084, Tempo, 1224489
1, 18114, Tempo, 759493
1, 18694, Tempo, 1395348
1, 18860, Tempo, 800000
1, 18862, Tempo, 810810
1, 18888, Tempo, 800000
1, 18892, Tempo, 1090909
1, 18898, Tempo, 1111111
1, 18904, Tempo, 1090909
1, 18908, Tempo, 1071428
1, 18918, Tempo, 810810
1, 18974, Tempo, 821917
1, 18990, Tempo, 810810
1, 18998, Tempo, 800000
1, 19002, Tempo, 789473
1, 19006, Tempo, 800000
1, 19014, Tempo, 810810
1, 19036, Tempo, 810810
1, 19162, Tempo, 769230
1, 22718, Tempo, 1111111
1, 22836, Tempo, 740740
1, 23040, Time_signature, 1, 1, 48, 8
1, 23163, Tempo, 821917
1, 24480, Time_signature, 3, 1, 48, 8
1, 28910, Tempo, 759493
1, 29590, Tempo, 1363636
1, 29600, Tempo, 1333333
1, 29610, Tempo, 1363636
1, 29616, Tempo, 1276595
1, 29636, Tempo, 759493
1, 30001, Tempo, 845070
1, 30215, Tempo, 1395348
1, 30296, Tempo, 1935483
1, 30383, Tempo, 1428571
1, 30405, Tempo, 937500
1, 30406, Tempo, 1132075
1, 30408, Tempo, 923076
1, 30481, Tempo, 952380
1, 30630, Tempo, 845070
1, 30866, Tempo, 800000
1, 30871, Tempo, 800000
1, 30873, Tempo, 857142
1, 30875, Tempo, 800000
1, 31323, Tempo, 909090
1, 31455, Tempo, 800000
1, 31795, Tempo, 769230
1, 34201, Tempo, 923076
1, 34321, Tempo, 810810
1, 34560, Time_signature, 1, 1, 48, 8
1, 34690, Tempo, 857142
1, 36000, Time_signature, 3, 1, 48, 8
1, 39230, Tempo, 923076
1, 39477, Tempo, 983606
1, 39600, Tempo, 1428571
1, 39602, Tempo, 1200000
1, 39605, Tempo, 1463414
1, 39737, Tempo, 1071428
1, 39737, End_track
2, 0, Start_track
2, 0, MIDI_port, 0
2, 0, Program_c, 0, 68
2, 0, Control_c, 0, 7, 100
2, 0, Control_c, 0, 10, 45
2, 46, Control_c, 0, 7, 99
2, 56, Control_c, 0, 10, 44
2, 120, Program_c, 0, 79
2, 120, Note_on_c, 0, 74, 100
2, 285, Note_on_c, 0, 74, 0
2, 300, Note_on_c, 0, 74, 100
2, 352, Note_on_c, 0, 74, 0
2, 360, Note_on_c, 0, 74, 100
2, 506, Note_on_c, 0, 74, 0
2, 510, Note_on_c, 0, 72, 100
2, 536, Note_on_c, 0, 72, 0
2, 540, Note_on_c, 0, 70, 100
2, 566, Note_on_c, 0, 70, 0
2, 570, Note_on_c, 0, 69, 100
2, 596, Note_on_c, 0, 69, 0
2, 600, Note_on_c, 0, 70, 100
2, 652, Note_on_c, 0, 70, 0
2, 660, Note_on_c, 0, 74, 100
2, 712, Note_on_c, 0, 74, 0
2, 720, Note_on_c, 0, 77, 100
2, 772, Note_on_c, 0, 77, 0
2, 780, Note_on_c, 0, 67, 100
2, 832, Note_on_c, 0, 67, 0
2, 840, Note_on_c, 0, 68, 100
2, 853, Note_on_c, 0, 68, 0
2, 855, Note_on_c, 0, 67, 100
2, 868, Note_on_c, 0, 67, 0
2, 870, Note_on_c, 0, 68, 100
2, 1005, Note_on_c, 0, 68, 0
2, 1020, Note_on_c, 0, 68, 100
2, 1072, Note_on_c, 0, 68, 0
2, 1080, Note_on_c, 0, 68, 100
2, 1226, Note_on_c, 0, 68, 0
2, 1230, Note_on_c, 0, 70, 100
2, 1256, Note_on_c, 0, 70, 0
2, 1260, Note_on_c, 0, 68, 100
2, 1286, Note_on_c, 0, 68, 0
2, 1290, Note_on_c, 0, 67, 100
2, 1316, Note_on_c, 0, 67, 0
2, 1320, Note_on_c, 0, 68, 100
2, 1372, Note_on_c, 0, 68, 0
2, 1380, Note_on_c, 0, 74, 100
2, 1432, Note_on_c, 0, 74, 0
2, 1440, Note_on_c, 0, 77, 100
2, 1492, Note_on_c, 0, 77, 0
2, 1500, Note_on_c, 0, 68, 100
2, 1552, Note_on_c, 0, 68, 0
2, 1560, Note_on_c, 0, 67, 100
2, 1612, Note_on_c, 0, 67, 0
2, 1620, Note_on_c, 0, 75, 100
2, 1646, Note_on_c, 0, 75, 0
2, 1650, Note_on_c, 0, 74, 100
2, 1676, Note_on_c, 0, 74, 0
2, 1680, Note_on_c, 0, 72, 100
2, 1706, Note_on_c, 0, 72, 0
2, 1710, Note_on_c, 0, 74, 100
2, 1736, Note_on_c, 0, 74, 0
2, 1740, Note_on_c, 0, 75, 100
2, 1792, Note_on_c, 0, 75, 0
2, 1800, Note_on_c, 0, 65, 100
2, 1852, Note_on_c, 0, 65, 0
2, 1860, Note_on_c, 0, 74, 100
2, 1912, Note_on_c, 0, 74, 0
2, 1920, Note_on_c, 0, 69, 100
2, 1972, Note_on_c, 0, 69, 0
2, 1980, Note_on_c, 0, 70, 100
2, 2032, Note_on_c, 0, 70, 0
2, 2040, Note_on_c, 0, 63, 100
2, 2092, Note_on_c, 0, 63, 0
2, 2100, Note_on_c, 0, 69, 100
2, 2126, Note_on_c, 0, 69, 0
2, 2130, Note_on_c, 0, 70, 100
2, 2156, Note_on_c, 0, 70, 0
2, 2160, Note_on_c, 0, 72, 100
2, 2212, Note_on_c, 0, 72, 0
2, 2220, Note_on_c, 0, 63, 100
2, 2272, Note_on_c, 0, 63, 0
2, 2280, Note_on_c, 0, 65, 100
2, 2306, Note_on_c, 0, 65, 0
2, 2310, Note_on_c, 0, 63, 100
2, 2336, Note_on_c, 0, 63, 0
2, 2340, Note_on_c, 0, 65, 100
2, 2353, Note_on_c, 0, 65, 0
2, 2355, Note_on_c, 0, 63, 100
2, 2368, Note_on_c, 0, 63, 0
2, 2370, Note_on_c, 0, 65, 100
2, 2383, Note_on_c, 0, 65, 0
2, 2385, Note_on_c, 0, 63, 100
2, 2398, Note_on_c, 0, 63, 0
2, 2400, Note_on_c, 0, 65, 100
2, 2413, Note_on_c, 0, 65, 0
2, 2415, Note_on_c, 0, 63, 100
2, 2458, Note_on_c, 0, 63, 0
2, 2460, Note_on_c, 0, 62, 100
2, 2512, Note_on_c, 0, 62, 0
2, 2520, Note_on_c, 0, 62, 100
2, 2666, Note_on_c, 0, 62, 0
2, 2670, Note_on_c, 0, 65, 100
2, 2696, Note_on_c, 0, 65, 0
2, 2700, Note_on_c, 0, 63, 100
2, 2726, Note_on_c, 0, 63, 0
2, 2730, Note_on_c, 0, 62, 100
2, 2756, Note_on_c, 0, 62, 0
2, 2760, Note_on_c, 0, 63, 100
2, 2786, Note_on_c, 0, 63, 0
2, 2790, Note_on_c, 0, 65, 100
2, 2816, Note_on_c, 0, 65, 0
2, 2820, Note_on_c, 0, 67, 100
2, 2846, Note_on_c, 0, 67, 0
2, 2850, Note_on_c, 0, 69, 100
2, 2876, Note_on_c, 0, 69, 0
2, 2880, Note_on_c, 0, 70, 100
2, 2932, Note_on_c, 0, 70, 0
2, 2940, Note_on_c, 0, 67, 100
2, 2992, Note_on_c, 0, 67, 0
2, 3000, Note_on_c, 0, 65, 100
2, 3052, Note_on_c, 0, 65, 0
2, 3060, Note_on_c, 0, 64, 100
2, 3120, Note_on_c, 0, 67, 100
2, 3180, Note_on_c, 0, 72, 100
2, 3232, Note_on_c, 0, 72, 0
2, 3232, Note_on_c, 0, 67, 0
2, 3232, Note_on_c, 0, 64, 0
2, 3240, Note_on_c, 0, 72, 100
2, 3386, Note_on_c, 0, 72, 0
2, 3390, Note_on_c, 0, 74, 100
2, 3416, Note_on_c, 0, 74, 0
2, 3420, Note_on_c, 0, 75, 100
2, 3446, Note_on_c, 0, 75, 0
2, 3450, Note_on_c, 0, 74, 100
2, 3476, Note_on_c, 0, 74, 0
2, 3480, Note_on_c, 0, 72, 100
2, 3532, Note_on_c, 0, 72, 0
2, 3540, Note_on_c, 0, 70, 100
2, 3592, Note_on_c, 0, 70, 0
2, 3600, Note_on_c, 0, 69, 100
2, 3626, Note_on_c, 0, 69, 0
2, 3630, Note_on_c, 0, 70, 100
2, 3656, Note_on_c, 0, 70, 0
2, 3660, Note_on_c, 0, 67, 100
2, 3712, Note_on_c, 0, 67, 0
2, 3720, Note_on_c, 0, 67, 100
2, 3772, Note_on_c, 0, 67, 0
2, 3780, Note_on_c, 0, 66, 100
2, 3840, Note_on_c, 0, 69, 100
2, 3900, Note_on_c, 0, 72, 100
2, 3926, Note_on_c, 0, 69, 0
2, 3926, Note_on_c, 0, 66, 0
2, 3930, Note_on_c, 0, 75, 100
2, 3956, Note_on_c, 0, 75, 0
2, 3956, Note_on_c, 0, 72, 0
2, 3960, Note_on_c, 0, 75, 100
2, 4125, Note_on_c, 0, 75, 0
2, 4140, Note_on_c, 0, 74, 100
2, 4166, Note_on_c, 0, 74, 0
2, 4170, Note_on_c, 0, 72, 100
2, 4196, Note_on_c, 0, 72, 0
2, 4200, Note_on_c, 0, 74, 100
2, 4226, Note_on_c, 0, 74, 0
2, 4230, Note_on_c, 0, 72, 100
2, 4256, Note_on_c, 0, 72, 0
2, 4260, Note_on_c, 0, 70, 100
2, 4312, Note_on_c, 0, 70, 0
2, 4320, Note_on_c, 0, 72, 100
2, 4346, Note_on_c, 0, 72, 0
2, 4350, Note_on_c, 0, 70, 100
2, 4376, Note_on_c, 0, 70, 0
2, 4380, Note_on_c, 0, 69, 100
2, 4432, Note_on_c, 0, 69, 0
2, 4440, Note_on_c, 0, 70, 100
2, 4518, Note_on_c, 0, 70, 0
2, 4530, Note_on_c, 0, 69, 100
2, 4538, Note_on_c, 0, 69, 0
2, 4539, Note_on_c, 0, 67, 100
2, 4545, Note_on_c, 0, 66, 100
2, 4548, Note_on_c, 0, 67, 0
2, 4558, Note_on_c, 0, 66, 0
2, 4560, Note_on_c, 0, 67, 100
2, 4612, Note_on_c, 0, 67, 0
2, 4620, Note_on_c, 0, 69, 100
2, 4672, Note_on_c, 0, 69, 0
2, 4680, Note_on_c, 0, 70, 100
2, 4732, Note_on_c, 0, 70, 0
2, 4740, Note_on_c, 0, 67, 100
2, 4766, Note_on_c, 0, 67, 0
2, 4770, Note_on_c, 0, 69, 100
2, 4796, Note_on_c, 0, 69, 0
2, 4800, Note_on_c, 0, 70, 100
2, 4826, Note_on_c, 0, 70, 0
2, 4830, Note_on_c, 0, 72, 100
2, 4856, Note_on_c, 0, 72, 0
2, 4860, Note_on_c, 0, 74, 100
2, 4912, Note_on_c, 0, 74, 0
2, 4920, Note_on_c, 0, 74, 100
2, 4972, Note_on_c, 0, 74, 0
2, 4980, Note_on_c, 0, 76, 100
2, 5006, Note_on_c, 0, 76, 0
2, 5010, Note_on_c, 0, 77, 100
2, 5036, Note_on_c, 0, 77, 0
2, 5040, Note_on_c, 0, 79, 100
2, 5066, Note_on_c, 0, 79, 0
2, 5070, Note_on_c, 0, 77, 100
2, 5096, Note_on_c, 0, 77, 0
2, 5100, Note_on_c, 0, 76, 100
2, 5126, Note_on_c, 0, 76, 0
2, 5130, Note_on_c, 0, 77, 100
2, 5156, Note_on_c, 0, 77, 0
2, 5160, Note_on_c, 0, 79, 100
2, 5186, Note_on_c, 0, 79, 0
2, 5190, Note_on_c, 0, 72, 100
2, 5216, Note_on_c, 0, 72, 0
2, 5220, Note_on_c, 0, 70, 100
2, 5246, Note_on_c, 0, 70, 0
2, 5250, Note_on_c, 0, 69, 100
2, 5276, Note_on_c, 0, 69, 0
2, 5280, Note_on_c, 0, 70, 100
2, 5332, Note_on_c, 0, 70, 0
2, 5340, Note_on_c, 0, 79, 100
2, 5392, Note_on_c, 0, 79, 0
2, 5400, Note_on_c, 0, 79, 100
2, 5546, Note_on_c, 0, 79, 0
2, 5550, Note_on_c, 0, 77, 100
2, 5576, Note_on_c, 0, 77, 0
2, 5580, Note_on_c, 0, 76, 100
2, 5606, Note_on_c, 0, 76, 0
2, 5610, Note_on_c, 0, 74, 100
2, 5636, Note_on_c, 0, 74, 0
2, 5640, Note_on_c, 0, 72, 100
2, 5692, Note_on_c, 0, 72, 0
2, 5700, Note_on_c, 0, 70, 100
2, 5752, Note_on_c, 0, 70, 0
2, 5760, Note_on_c, 0, 70, 100
2, 5773, Note_on_c, 0, 70, 0
2, 5775, Note_on_c, 0, 72, 100
2, 5788, Note_on_c, 0, 72, 0
2, 5790, Note_on_c, 0, 70, 100
2, 5816, Note_on_c, 0, 70, 0
2, 5820, Note_on_c, 0, 69, 100
2, 5872, Note_on_c, 0, 69, 0
2, 5880, Note_on_c, 0, 69, 100
2, 5932, Note_on_c, 0, 69, 0
2, 5940, Note_on_c, 0, 60, 100
2, 5966, Note_on_c, 0, 60, 0
2, 5970, Note_on_c, 0, 64, 100
2, 5996, Note_on_c, 0, 64, 0
2, 6000, Note_on_c, 0, 65, 100
2, 6052, Note_on_c, 0, 65, 0
2, 6060, Note_on_c, 0, 69, 100
2, 6112, Note_on_c, 0, 69, 0
2, 6120, Note_on_c, 0, 69, 100
2, 6172, Note_on_c, 0, 69, 0
2, 6180, Note_on_c, 0, 65, 100
2, 6206, Note_on_c, 0, 65, 0
2, 6210, Note_on_c, 0, 67, 100
2, 6236, Note_on_c, 0, 67, 0
2, 6240, Note_on_c, 0, 69, 100
2, 6292, Note_on_c, 0, 69, 0
2, 6300, Note_on_c, 0, 72, 100
2, 6352, Note_on_c, 0, 72, 0
2, 6360, Note_on_c, 0, 72, 100
2, 6412, Note_on_c, 0, 72, 0
2, 6420, Note_on_c, 0, 69, 100
2, 6446, Note_on_c, 0, 69, 0
2, 6450, Note_on_c, 0, 70, 100
2, 6476, Note_on_c, 0, 70, 0
2, 6480, Note_on_c, 0, 72, 100
2, 6532, Note_on_c, 0, 72, 0
2, 6540, Note_on_c, 0, 77, 100
2, 6592, Note_on_c, 0, 77, 0
2, 6600, Note_on_c, 0, 77, 100
2, 6652, Note_on_c, 0, 77, 0
2, 6660, Note_on_c, 0, 81, 100
2, 6686, Note_on_c, 0, 81, 0
2, 6690, Note_on_c, 0, 79, 100
2, 6716, Note_on_c, 0, 79, 0
2, 6720, Note_on_c, 0, 77, 100
2, 6746, Note_on_c, 0, 77, 0
2, 6750, Note_on_c, 0, 76, 100
2, 6776, Note_on_c, 0, 76, 0
2, 6780, Note_on_c, 0, 74, 100
2, 6832, Note_on_c, 0, 74, 0
2, 6840, Note_on_c, 0, 72, 100
2, 6892, Note_on_c, 0, 72, 0
2, 6900, Note_on_c, 0, 77, 100
2, 6926, Note_on_c, 0, 77, 0
2, 6930, Note_on_c, 0, 76, 100
2, 6956, Note_on_c, 0, 76, 0
2, 6960, Note_on_c, 0, 74, 100
2, 6986, Note_on_c, 0, 74, 0
2, 6990, Note_on_c, 0, 72, 100
2, 7016, Note_on_c, 0, 72, 0
2, 7020, Note_on_c, 0, 70, 100
2, 7072, Note_on_c, 0, 70, 0
2, 7080, Note_on_c, 0, 69, 100
2, 7132, Note_on_c, 0, 69, 0
2, 7140, Note_on_c, 0, 72, 100
2, 7166, Note_on_c, 0, 72, 0
2, 7170, Note_on_c, 0, 70, 100
2, 7196, Note_on_c, 0, 70, 0
2, 7200, Note_on_c, 0, 69, 100
2, 7226, Note_on_c, 0, 69, 0
2, 7230, Note_on_c, 0, 67, 100
2, 7256, Note_on_c, 0, 67, 0
2, 7260, Note_on_c, 0, 65, 100
2, 7312, Note_on_c, 0, 65, 0
2, 7320, Note_on_c, 0, 74, 100
2, 7346, Note_on_c, 0, 74, 0
2, 7350, Note_on_c, 0, 72, 100
2, 7376, Note_on_c, 0, 72, 0
2, 7380, Note_on_c, 0, 70, 100
2, 7406, Note_on_c, 0, 70, 0
2, 7410, Note_on_c, 0, 69, 100
2, 7436, Note_on_c, 0, 69, 0
2, 7440, Note_on_c, 0, 70, 100
2, 7492, Note_on_c, 0, 70, 0
2, 7500, Note_on_c, 0, 67, 100
2, 7552, Note_on_c, 0, 67, 0
2, 7560, Note_on_c, 0, 65, 100
2, 7638, Note_on_c, 0, 65, 0
2, 7650, Note_on_c, 0, 67, 100
2, 7658, Note_on_c, 0, 67, 0
2, 7659, Note_on_c, 0, 65, 100
2, 7665, Note_on_c, 0, 64, 100
2, 7668, Note_on_c, 0, 65, 0
2, 7678, Note_on_c, 0, 64, 0
2, 7680, Note_on_c, 0, 65, 100
2, 7706, Note_on_c, 0, 65, 0
2, 7710, Note_on_c, 0, 62, 100
2, 7736, Note_on_c, 0, 62, 0
2, 7740, Note_on_c, 0, 70, 100
2, 7792, Note_on_c, 0, 70, 0
2, 7800, Note_on_c, 0, 64, 100
2, 7813, Note_on_c, 0, 64, 0
2, 7815, Note_on_c, 0, 65, 100
2, 7828, Note_on_c, 0, 65, 0
2, 7830, Note_on_c, 0, 64, 100
2, 7836, Note_on_c, 0, 64, 0
2, 7837, Note_on_c, 0, 65, 100
2, 7844, Note_on_c, 0, 65, 0
2, 7845, Note_on_c, 0, 64, 100
2, 7851, Note_on_c, 0, 64, 0
2, 7852, Note_on_c, 0, 65, 100
2, 7859, Note_on_c, 0, 65, 0
2, 7860, Note_on_c, 0, 64, 100
2, 7866, Note_on_c, 0, 64, 0
2, 7867, Note_on_c, 0, 65, 100
2, 7874, Note_on_c, 0, 65, 0
2, 7875, Note_on_c, 0, 64, 100
2, 7881, Note_on_c, 0, 64, 0
2, 7882, Note_on_c, 0, 65, 100
2, 7889, Note_on_c, 0, 65, 0
2, 7890, Note_on_c, 0, 64, 100
2, 7896, Note_on_c, 0, 64, 0
2, 7897, Note_on_c, 0, 65, 100
2, 7904, Note_on_c, 0, 65, 0
2, 7905, Note_on_c, 0, 64, 100
2, 7911, Note_on_c, 0, 64, 0
2, 7912, Note_on_c, 0, 65, 100
2, 7919, Note_on_c, 0, 65, 0
2, 7920, Note_on_c, 0, 64, 100
2, 7926, Note_on_c, 0, 64, 0
2, 7927, Note_on_c, 0, 65, 100
2, 7934, Note_on_c, 0, 65, 0
2, 7935, Note_on_c, 0, 64, 100
2, 7941, Note_on_c, 0, 64, 0
2, 7942, Note_on_c, 0, 65, 100
2, 7949, Note_on_c, 0, 65, 0
2, 7950, Note_on_c, 0, 64, 100
2, 7976, Note_on_c, 0, 64, 0
2, 7980, Note_on_c, 0, 65, 100
2, 8032, Note_on_c, 0, 65, 0
2, 8040, Note_on_c, 0, 65, 100
2, 8265, Note_on_c, 0, 65, 0
2, 8280, Note_on_c, 0, 65, 100
2, 8685, Note_on_c, 0, 65, 0
2, 8760, Program_c, 0, 68
2, 8760, Note_on_c, 0, 74, 100
2, 8925, Note_on_c, 0, 74, 0
2, 8940, Note_on_c, 0, 74, 100
2, 8992, Note_on_c, 0, 74, 0
2, 9000, Note_on_c, 0, 74, 100
2, 9146, Note_on_c, 0, 74, 0
2, 9150, Note_on_c, 0, 72, 100
2, 9176, Note_on_c, 0, 72, 0
2, 9180, Note_on_c, 0, 70, 100
2, 9206, Note_on_c, 0, 70, 0
2, 9210, Note_on_c, 0, 69, 100
2, 9236, Note_on_c, 0, 69, 0
2, 9240, Note_on_c, 0, 70, 100
2, 9292, Note_on_c, 0, 70, 0
2, 9300, Note_on_c, 0, 74, 100
2, 9352, Note_on_c, 0, 74, 0
2, 9360, Note_on_c, 0, 77, 100
2, 9412, Note_on_c, 0, 77, 0
2, 9420, Note_on_c, 0, 67, 100
2, 9472, Note_on_c, 0, 67, 0
2, 9480, Note_on_c, 0, 68, 100
2, 9493, Note_on_c, 0, 68, 0
2, 9495, Note_on_c, 0, 67, 100
2, 9508, Note_on_c, 0, 67, 0
2, 9510, Note_on_c, 0, 68, 100
2, 9645, Note_on_c, 0, 68, 0
2, 9660, Note_on_c, 0, 68, 100
2, 9712, Note_on_c, 0, 68, 0
2, 9720, Note_on_c, 0, 68, 100
2, 9866, Note_on_c, 0, 68, 0
2, 9870, Note_on_c, 0, 70, 100
2, 9896, Note_on_c, 0, 70, 0
2, 9900, Note_on_c, 0, 68, 100
2, 9926, Note_on_c, 0, 68, 0
2, 9930, Note_on_c, 0, 67, 100
2, 9956, Note_on_c, 0, 67, 0
2, 9960, Note_on_c, 0, 68, 100
2, 10012, Note_on_c, 0, 68, 0
2, 10020, Note_on_c, 0, 74, 100
2, 10072, Note_on_c, 0, 74, 0
2, 10080, Note_on_c, 0, 77, 100
2, 10132, Note_on_c, 0, 77, 0
2, 10140, Note_on_c, 0, 68, 100
2, 10192, Note_on_c, 0, 68, 0
2, 10200, Note_on_c, 0, 67, 100
2, 10252, Note_on_c, 0, 67, 0
2, 10260, Note_on_c, 0, 75, 100
2, 10286, Note_on_c, 0, 75, 0
2, 10290, Note_on_c, 0, 74, 100
2, 10316, Note_on_c, 0, 74, 0
2, 10320, Note_on_c, 0, 72, 100
2, 10346, Note_on_c, 0, 72, 0
2, 10350, Note_on_c, 0, 74, 100
2, 10376, Note_on_c, 0, 74, 0
2, 10380, Note_on_c, 0, 75, 100
2, 10432, Note_on_c, 0, 75, 0
2, 10440, Note_on_c, 0, 65, 100
2, 10492, Note_on_c, 0, 65, 0
2, 10500, Note_on_c, 0, 74, 100
2, 10552, Note_on_c, 0, 74, 0
2, 10560, Note_on_c, 0, 69, 100
2, 10612, Note_on_c, 0, 69, 0
2, 10620, Note_on_c, 0, 70, 100
2, 10672, Note_on_c, 0, 70, 0
2, 10680, Note_on_c, 0, 63, 100
2, 10732, Note_on_c, 0, 63, 0
2, 10740, Note_on_c, 0, 69, 100
2, 10766, Note_on_c, 0, 69, 0
2, 10770, Note_on_c, 0, 70, 100
2, 10796, Note_on_c, 0, 70, 0
2, 10800, Note_on_c, 0, 72, 100
2, 10852, Note_on_c, 0, 72, 0
2, 10860, Note_on_c, 0, 63, 100
2, 10912, Note_on_c, 0, 63, 0
2, 10920, Note_on_c, 0, 65, 100
2, 10946, Note_on_c, 0, 65, 0
2, 10950, Note_on_c, 0, 63, 100
2, 10976, Note_on_c, 0, 63, 0
2, 10980, Note_on_c, 0, 65, 100
2, 10993, Note_on_c, 0, 65, 0
2, 10995, Note_on_c, 0, 63, 100
2, 11008, Note_on_c, 0, 63, 0
2, 11010, Note_on_c, 0, 65, 100
2, 11023, Note_on_c, 0, 65, 0
2, 11025, Note_on_c, 0, 63, 100
2, 11038, Note_on_c, 0, 63, 0
2, 11040, Note_on_c, 0, 65, 100
2, 11053, Note_on_c, 0, 65, 0
2, 11055, Note_on_c, 0, 63, 100
2, 11098, Note_on_c, 0, 63, 0
2, 11100, Note_on_c, 0, 62, 100
2, 11152, Note_on_c, 0, 62, 0
2, 11160, Note_on_c, 0, 62, 100
2, 11306, Note_on_c, 0, 62, 0
2, 11310, Note_on_c, 0, 65, 100
2, 11336, Note_on_c, 0, 65, 0
2, 11340, Note_on_c, 0, 63, 100
2, 11366, Note_on_c, 0, 63, 0
2, 11370, Note_on_c, 0, 62, 100
2, 11396, Note_on_c, 0, 62, 0
2, 11400, Note_on_c, 0, 63, 100
2, 11426, Note_on_c, 0, 63, 0
2, 11430, Note_on_c, 0, 65, 100
2, 11456, Note_on_c, 0, 65, 0
2, 11460, Note_on_c, 0, 67, 100
2, 11486, Note_on_c, 0, 67, 0
2, 11490, Note_on_c, 0, 69, 100
2, 11516, Note_on_c, 0, 69, 0
2, 11520, Note_on_c, 0, 70, 100
2, 11572, Note_on_c, 0, 70, 0
2, 11580, Note_on_c, 0, 67, 100
2, 11632, Note_on_c, 0, 67, 0
2, 11640, Note_on_c, 0, 65, 100
2, 11692, Note_on_c, 0, 65, 0
2, 11700, Note_on_c, 0, 64, 100
2, 11760, Note_on_c, 0, 67, 100
2, 11820, Note_on_c, 0, 72, 100
2, 11872, Note_on_c, 0, 72, 0
2, 11872, Note_on_c, 0, 67, 0
2, 11872, Note_on_c, 0, 64, 0
2, 11880, Note_on_c, 0, 72, 100
2, 12026, Note_on_c, 0, 72, 0
2, 12030, Note_on_c, 0, 74, 100
2, 12056, Note_on_c, 0, 74, 0
2, 12060, Note_on_c, 0, 75, 100
2, 12086, Note_on_c, 0, 75, 0
2, 12090, Note_on_c, 0, 74, 100
2, 12116, Note_on_c, 0, 74, 0
2, 12120, Note_on_c, 0, 72, 100
2, 12172, Note_on_c, 0, 72, 0
2, 12180, Note_on_c, 0, 70, 100
2, 12232, Note_on_c, 0, 70, 0
2, 12240, Note_on_c, 0, 69, 100
2, 12266, Note_on_c, 0, 69, 0
2, 12270, Note_on_c, 0, 70, 100
2, 12296, Note_on_c, 0, 70, 0
2, 12300, Note_on_c, 0, 67, 100
2, 12352, Note_on_c, 0, 67, 0
2, 12360, Note_on_c, 0, 67, 100
2, 12412, Note_on_c, 0, 67, 0
2, 12420, Note_on_c, 0, 66, 100
2, 12480, Note_on_c, 0, 69, 100
2, 12540, Note_on_c, 0, 72, 100
2, 12566, Note_on_c, 0, 69, 0
2, 12566, Note_on_c, 0, 66, 0
2, 12570, Note_on_c, 0, 75, 100
2, 12596, Note_on_c, 0, 75, 0
2, 12596, Note_on_c, 0, 72, 0
2, 12600, Note_on_c, 0, 75, 100
2, 12765, Note_on_c, 0, 75, 0
2, 12780, Note_on_c, 0, 74, 100
2, 12806, Note_on_c, 0, 74, 0
2, 12810, Note_on_c, 0, 72, 100
2, 12836, Note_on_c, 0, 72, 0
2, 12840, Note_on_c, 0, 74, 100
2, 12866, Note_on_c, 0, 74, 0
2, 12870, Note_on_c, 0, 72, 100
2, 12896, Note_on_c, 0, 72, 0
2, 12900, Note_on_c, 0, 70, 100
2, 12952, Note_on_c, 0, 70, 0
2, 12960, Note_on_c, 0, 72, 100
2, 12986, Note_on_c, 0, 72, 0
2, 12990, Note_on_c, 0, 70, 100
2, 13016, Note_on_c, 0, 70, 0
2, 13020, Note_on_c, 0, 69, 100
2, 13072, Note_on_c, 0, 69, 0
2, 13080, Note_on_c, 0, 70, 100
2, 13158, Note_on_c, 0, 70, 0
2, 13170, Note_on_c, 0, 69, 100
2, 13178, Note_on_c, 0, 69, 0
2, 13179, Note_on_c, 0, 67, 100
2, 13185, Note_on_c, 0, 66, 100
2, 13188, Note_on_c, 0, 67, 0
2, 13198, Note_on_c, 0, 66, 0
2, 13200, Note_on_c, 0, 67, 100
2, 13252, Note_on_c, 0, 67, 0
2, 13260, Note_on_c, 0, 69, 100
2, 13312, Note_on_c, 0, 69, 0
2, 13320, Note_on_c, 0, 70, 100
2, 13372, Note_on_c, 0, 70, 0
2, 13380, Note_on_c, 0, 67, 100
2, 13406, Note_on_c, 0, 67, 0
2, 13410, Note_on_c, 0, 69, 100
2, 13436, Note_on_c, 0, 69, 0
2, 13440, Note_on_c, 0, 70, 100
2, 13466, Note_on_c, 0, 70, 0
2, 13470, Note_on_c, 0, 72, 100
2, 13496, Note_on_c, 0, 72, 0
2, 13500, Note_on_c, 0, 74, 100
2, 13552, Note_on_c, 0, 74, 0
2, 13560, Note_on_c, 0, 74, 100
2, 13612, Note_on_c, 0, 74, 0
2, 13620, Note_on_c, 0, 76, 100
2, 13646, Note_on_c, 0, 76, 0
2, 13650, Note_on_c, 0, 77, 100
2, 13676, Note_on_c, 0, 77, 0
2, 13680, Note_on_c, 0, 79, 100
2, 13706, Note_on_c, 0, 79, 0
2, 13710, Note_on_c, 0, 77, 100
2, 13736, Note_on_c, 0, 77, 0
2, 13740, Note_on_c, 0, 76, 100
2, 13766, Note_on_c, 0, 76, 0
2, 13770, Note_on_c, 0, 77, 100
2, 13796, Note_on_c, 0, 77, 0
2, 13800, Note_on_c, 0, 79, 100
2, 13826, Note_on_c, 0, 79, 0
2, 13830, Note_on_c, 0, 72, 100
2, 13856, Note_on_c, 0, 72, 0
2, 13860, Note_on_c, 0, 70, 100
2, 13886, Note_on_c, 0, 70, 0
2, 13890, Note_on_c, 0, 69, 100
2, 13916, Note_on_c, 0, 69, 0
2, 13920, Note_on_c, 0, 70, 100
2, 13972, Note_on_c, 0, 70, 0
2, 13980, Note_on_c, 0, 79, 100
2, 14032, Note_on_c, 0, 79, 0
2, 14040, Note_on_c, 0, 79, 100
2, 14186, Note_on_c, 0, 79, 0
2, 14190, Note_on_c, 0, 77, 100
2, 14216, Note_on_c, 0, 77, 0
2, 14220, Note_on_c, 0, 76, 100
2, 14246, Note_on_c, 0, 76, 0
2, 14250, Note_on_c, 0, 74, 100
2, 14276, Note_on_c, 0, 74, 0
2, 14280, Note_on_c, 0, 72, 100
2, 14332, Note_on_c, 0, 72, 0
2, 14340, Note_on_c, 0, 70, 100
2, 14392, Note_on_c, 0, 70, 0
2, 14400, Note_on_c, 0, 70, 100
2, 14413, Note_on_c, 0, 70, 0
2, 14415, Note_on_c, 0, 72, 100
2, 14428, Note_on_c, 0, 72, 0
2, 14430, Note_on_c, 0, 70, 100
2, 14456, Note_on_c, 0, 70, 0
2, 14460, Note_on_c, 0, 69, 100
2, 14512, Note_on_c, 0, 69, 0
2, 14520, Note_on_c, 0, 69, 100
2, 14572, Note_on_c, 0, 69, 0
2, 14580, Note_on_c, 0, 60, 100
2, 14606, Note_on_c, 0, 60, 0
2, 14610, Note_on_c, 0, 64, 100
2, 14636, Note_on_c, 0, 64, 0
2, 14640, Note_on_c, 0, 65, 100
2, 14692, Note_on_c, 0, 65, 0
2, 14700, Note_on_c, 0, 69, 100
2, 14752, Note_on_c, 0, 69, 0
2, 14760, Note_on_c, 0, 69, 100
2, 14812, Note_on_c, 0, 69, 0
2, 14820, Note_on_c, 0, 65, 100
2, 14846, Note_on_c, 0, 65, 0
2, 14850, Note_on_c, 0, 67, 100
2, 14876, Note_on_c, 0, 67, 0
2, 14880, Note_on_c, 0, 69, 100
2, 14932, Note_on_c, 0, 69, 0
2, 14940, Note_on_c, 0, 72, 100
2, 14992, Note_on_c, 0, 72, 0
2, 15000, Note_on_c, 0, 72, 100
2, 15052, Note_on_c, 0, 72, 0
2, 15060, Note_on_c, 0, 69, 100
2, 15086, Note_on_c, 0, 69, 0
2, 15090, Note_on_c, 0, 70, 100
2, 15116, Note_on_c, 0, 70, 0
2, 15120, Note_on_c, 0, 72, 100
2, 15172, Note_on_c, 0, 72, 0
2, 15180, Note_on_c, 0, 77, 100
2, 15232, Note_on_c, 0, 77, 0
2, 15240, Note_on_c, 0, 77, 100
2, 15292, Note_on_c, 0, 77, 0
2, 15300, Note_on_c, 0, 81, 100
2, 15326, Note_on_c, 0, 81, 0
2, 15330, Note_on_c, 0, 79, 100
2, 15356, Note_on_c, 0, 79, 0
2, 15360, Note_on_c, 0, 77, 100
2, 15386, Note_on_c, 0, 77, 0
2, 15390, Note_on_c, 0, 76, 100
2, 15416, Note_on_c, 0, 76, 0
2, 15420, Note_on_c, 0, 74, 100
2, 15472, Note_on_c, 0, 74, 0
2, 15480, Note_on_c, 0, 72, 100
2, 15532, Note_on_c, 0, 72, 0
2, 15540, Note_on_c, 0, 77, 100
2, 15566, Note_on_c, 0, 77, 0
2, 15570, Note_on_c, 0, 76, 100
2, 15596, Note_on_c, 0, 76, 0
2, 15600, Note_on_c, 0, 74, 100
2, 15626, Note_on_c, 0, 74, 0
2, 15630, Note_on_c, 0, 72, 100
2, 15656, Note_on_c, 0, 72, 0
2, 15660, Note_on_c, 0, 70, 100
2, 15712, Note_on_c, 0, 70, 0
2, 15720, Note_on_c, 0, 69, 100
2, 15772, Note_on_c, 0, 69, 0
2, 15780, Note_on_c, 0, 72, 100
2, 15806, Note_on_c, 0, 72, 0
2, 15810, Note_on_c, 0, 70, 100
2, 15836, Note_on_c, 0, 70, 0
2, 15840, Note_on_c, 0, 69, 100
2, 15866, Note_on_c, 0, 69, 0
2, 15870, Note_on_c, 0, 67, 100
2, 15896, Note_on_c, 0, 67, 0
2, 15900, Note_on_c, 0, 65, 100
2, 15952, Note_on_c, 0, 65, 0
2, 15960, Note_on_c, 0, 74, 100
2, 15986, Note_on_c, 0, 74, 0
2, 15990, Note_on_c, 0, 72, 100
2, 16016, Note_on_c, 0, 72, 0
2, 16020, Note_on_c, 0, 70, 100
2, 16046, Note_on_c, 0, 70, 0
2, 16050, Note_on_c, 0, 69, 100
2, 16076, Note_on_c, 0, 69, 0
2, 16080, Note_on_c, 0, 70, 100
2, 16132, Note_on_c, 0, 70, 0
2, 16140, Note_on_c, 0, 67, 100
2, 16192, Note_on_c, 0, 67, 0
2, 16200, Note_on_c, 0, 65, 100
2, 16278, Note_on_c, 0, 65, 0
2, 16290, Note_on_c, 0, 67, 100
2, 16298, Note_on_c, 0, 67, 0
2, 16299, Note_on_c, 0, 65, 100
2, 16305, Note_on_c, 0, 64, 100
2, 16308, Note_on_c, 0, 65, 0
2, 16318, Note_on_c, 0, 64, 0
2, 16320, Note_on_c, 0, 65, 100
2, 16346, Note_on_c, 0, 65, 0
2, 16350, Note_on_c, 0, 62, 100
2, 16376, Note_on_c, 0, 62, 0
2, 16380, Note_on_c, 0, 70, 100
2, 16432, Note_on_c, 0, 70, 0
2, 16440, Note_on_c, 0, 64, 100
2, 16453, Note_on_c, 0, 64, 0
2, 16455, Note_on_c, 0, 65, 100
2, 16468, Note_on_c, 0, 65, 0
2, 16470, Note_on_c, 0, 64, 100
2, 16476, Note_on_c, 0, 64, 0
2, 16477, Note_on_c, 0, 65, 100
2, 16484, Note_on_c, 0, 65, 0
2, 16485, Note_on_c, 0, 64, 100
2, 16491, Note_on_c, 0, 64, 0
2, 16492, Note_on_c, 0, 65, 100
2, 16499, Note_on_c, 0, 65, 0
2, 16500, Note_on_c, 0, 64, 100
2, 16506, Note_on_c, 0, 64, 0
2, 16507, Note_on_c, 0, 65, 100
2, 16514, Note_on_c, 0, 65, 0
2, 16515, Note_on_c, 0, 64, 100
2, 16521, Note_on_c, 0, 64, 0
2, 16522, Note_on_c, 0, 65, 100
2, 16529, Note_on_c, 0, 65, 0
2, 16530, Note_on_c, 0, 64, 100
2, 16536, Note_on_c, 0, 64, 0
2, 16537, Note_on_c, 0, 65, 100
2, 16544, Note_on_c, 0, 65, 0
2, 16545, Note_on_c, 0, 64, 100
2, 16551, Note_on_c, 0, 64, 0
2, 16552, Note_on_c, 0, 65, 100
2, 16559, Note_on_c, 0, 65, 0
2, 16560, Note_on_c, 0, 64, 100
2, 16566, Note_on_c, 0, 64, 0
2, 16567, Note_on_c, 0, 65, 100
2, 16574, Note_on_c, 0, 65, 0
2, 16575, Note_on_c, 0, 64, 100
2, 16581, Note_on_c, 0, 64, 0
2, 16582, Note_on_c, 0, 65, 100
2, 16589, Note_on_c, 0, 65, 0
2, 16590, Note_on_c, 0, 64, 100
2, 16616, Note_on_c, 0, 64, 0
2, 16620, Note_on_c, 0, 65, 100
2, 16672, Note_on_c, 0, 65, 0
2, 16680, Note_on_c, 0, 65, 100
2, 16905, Note_on_c, 0, 65, 0
2, 16920, Note_on_c, 0, 65, 100
2, 17325, Note_on_c, 0, 65, 0
2, 17400, Program_c, 0, 79
2, 17400, Note_on_c, 0, 72, 100
2, 17565, Note_on_c, 0, 72, 0
2, 17580, Note_on_c, 0, 72, 100
2, 17632, Note_on_c, 0, 72, 0
2, 17640, Note_on_c, 0, 72, 100
2, 17786, Note_on_c, 0, 72, 0
2, 17790, Note_on_c, 0, 74, 100
2, 17816, Note_on_c, 0, 74, 0
2, 17820, Note_on_c, 0, 72, 100
2, 17846, Note_on_c, 0, 72, 0
2, 17850, Note_on_c, 0, 70, 100
2, 17876, Note_on_c, 0, 70, 0
2, 17880, Note_on_c, 0, 72, 100
2, 17906, Note_on_c, 0, 72, 0
2, 17910, Note_on_c, 0, 70, 100
2, 17936, Note_on_c, 0, 70, 0
2, 17940, Note_on_c, 0, 69, 100
2, 17966, Note_on_c, 0, 69, 0
2, 17970, Note_on_c, 0, 70, 100
2, 17996, Note_on_c, 0, 70, 0
2, 18000, Note_on_c, 0, 69, 100
2, 18026, Note_on_c, 0, 69, 0
2, 18030, Note_on_c, 0, 67, 100
2, 18056, Note_on_c, 0, 67, 0
2, 18060, Note_on_c, 0, 69, 100
2, 18073, Note_on_c, 0, 69, 0
2, 18075, Note_on_c, 0, 67, 100
2, 18088, Note_on_c, 0, 67, 0
2, 18090, Note_on_c, 0, 65, 100
2, 18116, Note_on_c, 0, 65, 0
2, 18120, Note_on_c, 0, 77, 100
2, 18285, Note_on_c, 0, 77, 0
2, 18300, Note_on_c, 0, 77, 100
2, 18352, Note_on_c, 0, 77, 0
2, 18360, Note_on_c, 0, 77, 100
2, 18506, Note_on_c, 0, 77, 0
2, 18510, Note_on_c, 0, 79, 100
2, 18536, Note_on_c, 0, 79, 0
2, 18540, Note_on_c, 0, 77, 100
2, 18566, Note_on_c, 0, 77, 0
2, 18570, Note_on_c, 0, 75, 100
2, 18596, Note_on_c, 0, 75, 0
2, 18600, Note_on_c, 0, 77, 100
2, 18626, Note_on_c, 0, 77, 0
2, 18630, Note_on_c, 0, 75, 100
2, 18656, Note_on_c, 0, 75, 0
2, 18660, Note_on_c, 0, 74, 100
2, 18686, Note_on_c, 0, 74, 0
2, 18690, Note_on_c, 0, 75, 100
2, 18703, Note_on_c, 0, 75, 0
2, 18705, Note_on_c, 0, 74, 100
2, 18718, Note_on_c, 0, 74, 0
2, 18720, Note_on_c, 0, 72, 100
2, 18733, Note_on_c, 0, 72, 0
2, 18735, Note_on_c, 0, 74, 100
2, 18748, Note_on_c, 0, 74, 0
2, 18750, Note_on_c, 0, 72, 100
2, 18763, Note_on_c, 0, 72, 0
2, 18765, Note_on_c, 0, 70, 100
2, 18778, Note_on_c, 0, 70, 0
2, 18780, Note_on_c, 0, 72, 100
2, 18806, Note_on_c, 0, 72, 0
2, 18810, Note_on_c, 0, 69, 100
2, 18836, Note_on_c, 0, 69, 0
2, 18840, Note_on_c, 0, 70, 100
2, 18892, Note_on_c, 0, 70, 0
2, 18900, Note_on_c, 0, 65, 100
2, 18930, Note_on_c, 0, 69, 100
2, 18956, Note_on_c, 0, 69, 0
2, 18960, Note_on_c, 0, 70, 100
2, 19020, Note_on_c, 0, 74, 100
2, 19072, Note_on_c, 0, 74, 0
2, 19072, Note_on_c, 0, 70, 0
2, 19072, Note_on_c, 0, 65, 0
2, 19080, Note_on_c, 0, 75, 100
2, 19372, Note_on_c, 0, 75, 0
2, 19380, Note_on_c, 0, 72, 100
2, 19406, Note_on_c, 0, 72, 0
2, 19410, Note_on_c, 0, 74, 100
2, 19436, Note_on_c, 0, 74, 0
2, 19440, Note_on_c, 0, 75, 100
2, 19466, Note_on_c, 0, 75, 0
2, 19470, Note_on_c, 0, 74, 100
2, 19496, Note_on_c, 0, 74, 0
2, 19500, Note_on_c, 0, 72, 100
2, 19552, Note_on_c, 0, 72, 0
2, 19560, Note_on_c, 0, 74, 100
2, 19725, Note_on_c, 0, 74, 0
2, 19740, Note_on_c, 0, 74, 100
2, 19792, Note_on_c, 0, 74, 0
2, 19800, Note_on_c, 0, 74, 100
2, 19946, Note_on_c, 0, 74, 0
2, 19950, Note_on_c, 0, 72, 100
2, 19976, Note_on_c, 0, 72, 0
2, 19980, Note_on_c, 0, 70, 100
2, 20006, Note_on_c, 0, 70, 0
2, 20010, Note_on_c, 0, 69, 100
2, 20036, Note_on_c, 0, 69, 0
2, 20040, Note_on_c, 0, 70, 100
2, 20066, Note_on_c, 0, 70, 0
2, 20070, Note_on_c, 0, 65, 100
2, 20096, Note_on_c, 0, 65, 0
2, 20100, Note_on_c, 0, 70, 100
2, 20126, Note_on_c, 0, 70, 0
2, 20130, Note_on_c, 0, 72, 100
2, 20156, Note_on_c, 0, 72, 0
2, 20160, Note_on_c, 0, 74, 100
2, 20186, Note_on_c, 0, 74, 0
2, 20190, Note_on_c, 0, 75, 100
2, 20216, Note_on_c, 0, 75, 0
2, 20220, Note_on_c, 0, 77, 100
2, 20246, Note_on_c, 0, 77, 0
2, 20250, Note_on_c, 0, 79, 100
2, 20276, Note_on_c, 0, 79, 0
2, 20280, Note_on_c, 0, 80, 100
2, 20306, Note_on_c, 0, 80, 0
2, 20310, Note_on_c, 0, 79, 100
2, 20336, Note_on_c, 0, 79, 0
2, 20340, Note_on_c, 0, 77, 100
2, 20366, Note_on_c, 0, 77, 0
2, 20370, Note_on_c, 0, 75, 100
2, 20396, Note_on_c, 0, 75, 0
2, 20400, Note_on_c, 0, 74, 100
2, 20426, Note_on_c, 0, 74, 0
2, 20430, Note_on_c, 0, 75, 100
2, 20456, Note_on_c, 0, 75, 0
2, 20460, Note_on_c, 0, 77, 100
2, 20512, Note_on_c, 0, 77, 0
2, 20520, Note_on_c, 0, 71, 100
2, 20572, Note_on_c, 0, 71, 0
2, 20580, Note_on_c, 0, 74, 100
2, 20632, Note_on_c, 0, 74, 0
2, 20640, Note_on_c, 0, 77, 100
2, 20692, Note_on_c, 0, 77, 0
2, 20700, Note_on_c, 0, 80, 100
2, 20752, Note_on_c, 0, 80, 0
2, 20760, Note_on_c, 0, 79, 100
2, 20766, Note_on_c, 0, 79, 0
2, 20767, Note_on_c, 0, 80, 100
2, 20774, Note_on_c, 0, 80, 0
2, 20775, Note_on_c, 0, 79, 100
2, 20781, Note_on_c, 0, 79, 0
2, 20782, Note_on_c, 0, 80, 100
2, 20789, Note_on_c, 0, 80, 0
2, 20790, Note_on_c, 0, 79, 100
2, 20796, Note_on_c, 0, 79, 0
2, 20797, Note_on_c, 0, 80, 100
2, 20804, Note_on_c, 0, 80, 0
2, 20805, Note_on_c, 0, 79, 100
2, 20811, Note_on_c, 0, 79, 0
2, 20812, Note_on_c, 0, 80, 100
2, 20819, Note_on_c, 0, 80, 0
2, 20820, Note_on_c, 0, 79, 100
2, 20826, Note_on_c, 0, 79, 0
2, 20827, Note_on_c, 0, 80, 100
2, 20834, Note_on_c, 0, 80, 0
2, 20835, Note_on_c, 0, 79, 100
2, 20841, Note_on_c, 0, 79, 0
2, 20842, Note_on_c, 0, 80, 100
2, 20849, Note_on_c, 0, 80, 0
2, 20850, Note_on_c, 0, 79, 100
2, 20856, Note_on_c, 0, 79, 0
2, 20857, Note_on_c, 0, 80, 100
2, 20864, Note_on_c, 0, 80, 0
2, 20865, Note_on_c, 0, 79, 100
2, 20906, Note_on_c, 0, 79, 0
2, 20910, Note_on_c, 0, 77, 100
2, 20936, Note_on_c, 0, 77, 0
2, 20940, Note_on_c, 0, 75, 100
2, 20966, Note_on_c, 0, 75, 0
2, 20970, Note_on_c, 0, 74, 100
2, 20996, Note_on_c, 0, 74, 0
2, 21000, Note_on_c, 0, 75, 100
2, 21026, Note_on_c, 0, 75, 0
2, 21030, Note_on_c, 0, 74, 100
2, 21056, Note_on_c, 0, 74, 0
2, 21060, Note_on_c, 0, 72, 100
2, 21086, Note_on_c, 0, 72, 0
2, 21090, Note_on_c, 0, 70, 100
2, 21116, Note_on_c, 0, 70, 0
2, 21120, Note_on_c, 0, 68, 100
2, 21146, Note_on_c, 0, 68, 0
2, 21150, Note_on_c, 0, 70, 100
2, 21176, Note_on_c, 0, 70, 0
2, 21180, Note_on_c, 0, 72, 100
2, 21232, Note_on_c, 0, 72, 0
2, 21240, Note_on_c, 0, 65, 100
2, 21292, Note_on_c, 0, 65, 0
2, 21300, Note_on_c, 0, 68, 100
2, 21352, Note_on_c, 0, 68, 0
2, 21360, Note_on_c, 0, 72, 100
2, 21412, Note_on_c, 0, 72, 0
2, 21420, Note_on_c, 0, 75, 100
2, 21472, Note_on_c, 0, 75, 0
2, 21480, Note_on_c, 0, 74, 100
2, 21486, Note_on_c, 0, 74, 0
2, 21487, Note_on_c, 0, 75, 100
2, 21494, Note_on_c, 0, 75, 0
2, 21495, Note_on_c, 0, 74, 100
2, 21501, Note_on_c, 0, 74, 0
2, 21502, Note_on_c, 0, 75, 100
2, 21509, Note_on_c, 0, 75, 0
2, 21510, Note_on_c, 0, 74, 100
2, 21516, Note_on_c, 0, 74, 0
2, 21517, Note_on_c, 0, 75, 100
2, 21524, Note_on_c, 0, 75, 0
2, 21525, Note_on_c, 0, 74, 100
2, 21531, Note_on_c, 0, 74, 0
2, 21532, Note_on_c, 0, 75, 100
2, 21539, Note_on_c, 0, 75, 0
2, 21540, Note_on_c, 0, 74, 100
2, 21546, Note_on_c, 0, 74, 0
2, 21547, Note_on_c, 0, 75, 100
2, 21554, Note_on_c, 0, 75, 0
2, 21555, Note_on_c, 0, 74, 100
2, 21561, Note_on_c, 0, 74, 0
2, 21562, Note_on_c, 0, 75, 100
2, 21569, Note_on_c, 0, 75, 0
2, 21570, Note_on_c, 0, 74, 100
2, 21576, Note_on_c, 0, 74, 0
2, 21577, Note_on_c, 0, 75, 100
2, 21584, Note_on_c, 0, 75, 0
2, 21585, Note_on_c, 0, 74, 100
2, 21591, Note_on_c, 0, 74, 0
2, 21592, Note_on_c, 0, 75, 100
2, 21599, Note_on_c, 0, 75, 0
2, 21600, Note_on_c, 0, 74, 100
2, 21606, Note_on_c, 0, 74, 0
2, 21607, Note_on_c, 0, 75, 100
2, 21614, Note_on_c, 0, 75, 0
2, 21615, Note_on_c, 0, 74, 100
2, 21621, Note_on_c, 0, 74, 0
2, 21622, Note_on_c, 0, 75, 100
2, 21629, Note_on_c, 0, 75, 0
2, 21630, Note_on_c, 0, 74, 100
2, 21659, Note_on_c, 0, 74, 0
2, 21660, Note_on_c, 0, 72, 100
2, 21686, Note_on_c, 0, 72, 0
2, 21690, Note_on_c, 0, 71, 100
2, 21716, Note_on_c, 0, 71, 0
2, 21720, Note_on_c, 0, 72, 100
2, 21772, Note_on_c, 0, 72, 0
2, 21780, Note_on_c, 0, 63, 100
2, 21832, Note_on_c, 0, 63, 0
2, 21840, Note_on_c, 0, 63, 100
2, 21846, Note_on_c, 0, 63, 0
2, 21847, Note_on_c, 0, 65, 100
2, 21854, Note_on_c, 0, 65, 0
2, 21855, Note_on_c, 0, 63, 100
2, 21861, Note_on_c, 0, 63, 0
2, 21862, Note_on_c, 0, 65, 100
2, 21869, Note_on_c, 0, 65, 0
2, 21870, Note_on_c, 0, 62, 100
2, 21896, Note_on_c, 0, 62, 0
2, 21900, Note_on_c, 0, 63, 100
2, 21952, Note_on_c, 0, 63, 0
2, 21960, Note_on_c, 0, 69, 100
2, 22012, Note_on_c, 0, 69, 0
2, 22020, Note_on_c, 0, 66, 100
2, 22072, Note_on_c, 0, 66, 0
2, 22080, Note_on_c, 0, 66, 100
2, 22086, Note_on_c, 0, 66, 0
2, 22087, Note_on_c, 0, 67, 100
2, 22094, Note_on_c, 0, 67, 0
2, 22095, Note_on_c, 0, 66, 100
2, 22101, Note_on_c, 0, 66, 0
2, 22102, Note_on_c, 0, 67, 100
2, 22109, Note_on_c, 0, 67, 0
2, 22110, Note_on_c, 0, 64, 100
2, 22136, Note_on_c, 0, 64, 0
2, 22140, Note_on_c, 0, 66, 100
2, 22192, Note_on_c, 0, 66, 0
2, 22200, Note_on_c, 0, 75, 100
2, 22252, Note_on_c, 0, 75, 0
2, 22260, Note_on_c, 0, 71, 100
2, 22312, Note_on_c, 0, 71, 0
2, 22320, Note_on_c, 0, 71, 100
2, 22328, Note_on_c, 0, 71, 0
2, 22329, Note_on_c, 0, 72, 100
2, 22338, Note_on_c, 0, 72, 0
2, 22339, Note_on_c, 0, 71, 100
2, 22348, Note_on_c, 0, 71, 0
2, 22350, Note_on_c, 0, 69, 100
2, 22376, Note_on_c, 0, 69, 0
2, 22380, Note_on_c, 0, 71, 100
2, 22432, Note_on_c, 0, 71, 0
2, 22440, Note_on_c, 0, 72, 100
2, 22605, Note_on_c, 0, 72, 0
2, 22620, Note_on_c, 0, 72, 100
2, 22672, Note_on_c, 0, 72, 0
2, 22680, Note_on_c, 0, 72, 100
2, 22826, Note_on_c, 0, 72, 0
2, 22830, Note_on_c, 0, 67, 100
2, 22856, Note_on_c, 0, 67, 0
2, 22860, Note_on_c, 0, 69, 100
2, 22886, Note_on_c, 0, 69, 0
2, 22890, Note_on_c, 0, 71, 100
2, 22916, Note_on_c, 0, 71, 0
2, 22920, Note_on_c, 0, 72, 100
2, 22946, Note_on_c, 0, 72, 0
2, 22950, Note_on_c, 0, 74, 100
2, 22976, Note_on_c, 0, 74, 0
2, 22980, Note_on_c, 0, 72, 100
2, 23006, Note_on_c, 0, 72, 0
2, 23010, Note_on_c, 0, 71, 100
2, 23036, Note_on_c, 0, 71, 0
2, 23040, Note_on_c, 0, 72, 100
2, 23092, Note_on_c, 0, 72, 0
2, 23100, Note_on_c, 0, 74, 100
2, 23152, Note_on_c, 0, 74, 0
2, 23160, Note_on_c, 0, 74, 100
2, 23186, Note_on_c, 0, 74, 0
2, 23190, Note_on_c, 0, 75, 100
2, 23203, Note_on_c, 0, 75, 0
2, 23205, Note_on_c, 0, 77, 100
2, 23218, Note_on_c, 0, 77, 0
2, 23220, Note_on_c, 0, 75, 100
2, 23226, Note_on_c, 0, 75, 0
2, 23227, Note_on_c, 0, 77, 100
2, 23234, Note_on_c, 0, 77, 0
2, 23235, Note_on_c, 0, 75, 100
2, 23241, Note_on_c, 0, 75, 0
2, 23242, Note_on_c, 0, 77, 100
2, 23249, Note_on_c, 0, 77, 0
2, 23250, Note_on_c, 0, 75, 100
2, 23256, Note_on_c, 0, 75, 0
2, 23257, Note_on_c, 0, 77, 100
2, 23264, Note_on_c, 0, 77, 0
2, 23265, Note_on_c, 0, 75, 100
2, 23271, Note_on_c, 0, 75, 0
2, 23272, Note_on_c, 0, 77, 100
2, 23279, Note_on_c, 0, 77, 0
2, 23280, Note_on_c, 0, 75, 100
2, 23286, Note_on_c, 0, 75, 0
2, 23287, Note_on_c, 0, 77, 100
2, 23294, Note_on_c, 0, 77, 0
2, 23295, Note_on_c, 0, 75, 100
2, 23301, Note_on_c, 0, 75, 0
2, 23302, Note_on_c, 0, 77, 100
2, 23309, Note_on_c, 0, 77, 0
2, 23310, Note_on_c, 0, 75, 100
2, 23316, Note_on_c, 0, 75, 0
2, 23317, Note_on_c, 0, 77, 100
2, 23324, Note_on_c, 0, 77, 0
2, 23325, Note_on_c, 0, 75, 100
2, 23331, Note_on_c, 0, 75, 0
2, 23332, Note_on_c, 0, 77, 100
2, 23339, Note_on_c, 0, 77, 0
2, 23340, Note_on_c, 0, 75, 100
2, 23346, Note_on_c, 0, 75, 0
2, 23347, Note_on_c, 0, 77, 100
2, 23354, Note_on_c, 0, 77, 0
2, 23355, Note_on_c, 0, 75, 100
2, 23361, Note_on_c, 0, 75, 0
2, 23362, Note_on_c, 0, 77, 100
2, 23369, Note_on_c, 0, 77, 0
2, 23370, Note_on_c, 0, 75, 100
2, 23376, Note_on_c, 0, 75, 0
2, 23377, Note_on_c, 0, 77, 100
2, 23384, Note_on_c, 0, 77, 0
2, 23385, Note_on_c, 0, 75, 100
2, 23391, Note_on_c, 0, 75, 0
2, 23392, Note_on_c, 0, 77, 100
2, 23399, Note_on_c, 0, 77, 0
2, 23400, Note_on_c, 0, 75, 100
2, 23406, Note_on_c, 0, 75, 0
2, 23407, Note_on_c, 0, 77, 100
2, 23414, Note_on_c, 0, 77, 0
2, 23415, Note_on_c, 0, 75, 100
2, 23421, Note_on_c, 0, 75, 0
2, 23422, Note_on_c, 0, 77, 100
2, 23429, Note_on_c, 0, 77, 0
2, 23430, Note_on_c, 0, 75, 100
2, 23436, Note_on_c, 0, 75, 0
2, 23437, Note_on_c, 0, 77, 100
2, 23444, Note_on_c, 0, 77, 0
2, 23445, Note_on_c, 0, 75, 100
2, 23451, Note_on_c, 0, 75, 0
2, 23452, Note_on_c, 0, 77, 100
2, 23459, Note_on_c, 0, 77, 0
2, 23460, Note_on_c, 0, 75, 100
2, 23466, Note_on_c, 0, 75, 0
2, 23467, Note_on_c, 0, 77, 100
2, 23474, Note_on_c, 0, 77, 0
2, 23475, Note_on_c, 0, 75, 100
2, 23481, Note_on_c, 0, 75, 0
2, 23482, Note_on_c, 0, 77, 100
2, 23489, Note_on_c, 0, 77, 0
2, 23490, Note_on_c, 0, 75, 100
2, 23496, Note_on_c, 0, 75, 0
2, 23497, Note_on_c, 0, 77, 100
2, 23504, Note_on_c, 0, 77, 0
2, 23505, Note_on_c, 0, 75, 100
2, 23511, Note_on_c, 0, 75, 0
2, 23512, Note_on_c, 0, 77, 100
2, 23519, Note_on_c, 0, 77, 0
2, 23520, Note_on_c, 0, 75, 100
2, 23526, Note_on_c, 0, 75, 0
2, 23527, Note_on_c, 0, 77, 100
2, 23534, Note_on_c, 0, 77, 0
2, 23535, Note_on_c, 0, 75, 100
2, 23541, Note_on_c, 0, 75, 0
2, 23542, Note_on_c, 0, 77, 100
2, 23549, Note_on_c, 0, 77, 0
2, 23550, Note_on_c, 0, 75, 100
2, 23556, Note_on_c, 0, 75, 0
2, 23557, Note_on_c, 0, 77, 100
2, 23564, Note_on_c, 0, 77, 0
2, 23565, Note_on_c, 0, 75, 100
2, 23571, Note_on_c, 0, 75, 0
2, 23572, Note_on_c, 0, 77, 100
2, 23579, Note_on_c, 0, 77, 0
2, 23580, Note_on_c, 0, 75, 100
2, 23586, Note_on_c, 0, 75, 0
2, 23587, Note_on_c, 0, 77, 100
2, 23594, Note_on_c, 0, 77, 0
2, 23595, Note_on_c, 0, 75, 100
2, 23601, Note_on_c, 0, 75, 0
2, 23602, Note_on_c, 0, 77, 100
2, 23609, Note_on_c, 0, 77, 0
2, 23610, Note_on_c, 0, 75, 100
2, 23616, Note_on_c, 0, 75, 0
2, 23617, Note_on_c, 0, 77, 100
2, 23624, Note_on_c, 0, 77, 0
2, 23625, Note_on_c, 0, 75, 100
2, 23631, Note_on_c, 0, 75, 0
2, 23632, Note_on_c, 0, 77, 100
2, 23639, Note_on_c, 0, 77, 0
2, 23640, Note_on_c, 0, 75, 100
2, 23646, Note_on_c, 0, 75, 0
2, 23647, Note_on_c, 0, 77, 100
2, 23654, Note_on_c, 0, 77, 0
2, 23655, Note_on_c, 0, 75, 100
2, 23661, Note_on_c, 0, 75, 0
2, 23662, Note_on_c, 0, 77, 100
2, 23669, Note_on_c, 0, 77, 0
2, 23670, Note_on_c, 0, 75, 100
2, 23676, Note_on_c, 0, 75, 0
2, 23677, Note_on_c, 0, 77, 100
2, 23684, Note_on_c, 0, 77, 0
2, 23685, Note_on_c, 0, 75, 100
2, 23691, Note_on_c, 0, 75, 0
2, 23692, Note_on_c, 0, 77, 100
2, 23699, Note_on_c, 0, 77, 0
2, 23700, Note_on_c, 0, 75, 100
2, 23706, Note_on_c, 0, 75, 0
2, 23707, Note_on_c, 0, 77, 100
2, 23714, Note_on_c, 0, 77, 0
2, 23715, Note_on_c, 0, 75, 100
2, 23721, Note_on_c, 0, 75, 0
2, 23722, Note_on_c, 0, 77, 100
2, 23729, Note_on_c, 0, 77, 0
2, 23730, Note_on_c, 0, 75, 100
2, 23736, Note_on_c, 0, 75, 0
2, 23737, Note_on_c, 0, 77, 100
2, 23744, Note_on_c, 0, 77, 0
2, 23745, Note_on_c, 0, 75, 100
2, 23751, Note_on_c, 0, 75, 0
2, 23752, Note_on_c, 0, 77, 100
2, 23759, Note_on_c, 0, 77, 0
2, 23760, Note_on_c, 0, 75, 100
2, 23766, Note_on_c, 0, 75, 0
2, 23767, Note_on_c, 0, 77, 100
2, 23774, Note_on_c, 0, 77, 0
2, 23775, Note_on_c, 0, 75, 100
2, 23781, Note_on_c, 0, 75, 0
2, 23782, Note_on_c, 0, 77, 100
2, 23789, Note_on_c, 0, 77, 0
2, 23790, Note_on_c, 0, 75, 100
2, 23796, Note_on_c, 0, 75, 0
2, 23797, Note_on_c, 0, 77, 100
2, 23804, Note_on_c, 0, 77, 0
2, 23805, Note_on_c, 0, 75, 100
2, 23811, Note_on_c, 0, 75, 0
2, 23812, Note_on_c, 0, 77, 100
2, 23819, Note_on_c, 0, 77, 0
2, 23820, Note_on_c, 0, 75, 100
2, 23826, Note_on_c, 0, 75, 0
2, 23827, Note_on_c, 0, 77, 100
2, 23834, Note_on_c, 0, 77, 0
2, 23835, Note_on_c, 0, 75, 100
2, 23841, Note_on_c, 0, 75, 0
2, 23842, Note_on_c, 0, 77, 100
2, 23849, Note_on_c, 0, 77, 0
2, 23850, Note_on_c, 0, 75, 100
2, 23856, Note_on_c, 0, 75, 0
2, 23857, Note_on_c, 0, 77, 100
2, 23864, Note_on_c, 0, 77, 0
2, 23865, Note_on_c, 0, 75, 100
2, 23871, Note_on_c, 0, 75, 0
2, 23872, Note_on_c, 0, 77, 100
2, 23879, Note_on_c, 0, 77, 0
2, 23880, Note_on_c, 0, 75, 100
2, 23886, Note_on_c, 0, 75, 0
2, 23887, Note_on_c, 0, 77, 100
2, 23894, Note_on_c, 0, 77, 0
2, 23895, Note_on_c, 0, 75, 100
2, 23901, Note_on_c, 0, 75, 0
2, 23902, Note_on_c, 0, 77, 100
2, 23909, Note_on_c, 0, 77, 0
2, 23910, Note_on_c, 0, 75, 100
2, 23916, Note_on_c, 0, 75, 0
2, 23917, Note_on_c, 0, 77, 100
2, 23924, Note_on_c, 0, 77, 0
2, 23925, Note_on_c, 0, 75, 100
2, 23931, Note_on_c, 0, 75, 0
2, 23932, Note_on_c, 0, 77, 100
2, 23939, Note_on_c, 0, 77, 0
2, 23940, Note_on_c, 0, 75, 100
2, 23946, Note_on_c, 0, 75, 0
2, 23947, Note_on_c, 0, 77, 100
2, 23954, Note_on_c, 0, 77, 0
2, 23955, Note_on_c, 0, 75, 100
2, 23961, Note_on_c, 0, 75, 0
2, 23962, Note_on_c, 0, 77, 100
2, 23969, Note_on_c, 0, 77, 0
2, 23970, Note_on_c, 0, 75, 100
2, 23976, Note_on_c, 0, 75, 0
2, 23977, Note_on_c, 0, 77, 100
2, 23984, Note_on_c, 0, 77, 0
2, 23985, Note_on_c, 0, 75, 100
2, 23991, Note_on_c, 0, 75, 0
2, 23992, Note_on_c, 0, 77, 100
2, 23999, Note_on_c, 0, 77, 0
2, 24000, Note_on_c, 0, 75, 100
2, 24006, Note_on_c, 0, 75, 0
2, 24007, Note_on_c, 0, 77, 100
2, 24014, Note_on_c, 0, 77, 0
2, 24015, Note_on_c, 0, 75, 100
2, 24021, Note_on_c, 0, 75, 0
2, 24022, Note_on_c, 0, 77, 100
2, 24029, Note_on_c, 0, 77, 0
2, 24030, Note_on_c, 0, 75, 100
2, 24036, Note_on_c, 0, 75, 0
2, 24037, Note_on_c, 0, 77, 100
2, 24044, Note_on_c, 0, 77, 0
2, 24045, Note_on_c, 0, 75, 100
2, 24051, Note_on_c, 0, 75, 0
2, 24052, Note_on_c, 0, 77, 100
2, 24059, Note_on_c, 0, 77, 0
2, 24060, Note_on_c, 0, 75, 100
2, 24066, Note_on_c, 0, 75, 0
2, 24067, Note_on_c, 0, 77, 100
2, 24074, Note_on_c, 0, 77, 0
2, 24075, Note_on_c, 0, 75, 100
2, 24081, Note_on_c, 0, 75, 0
2, 24082, Note_on_c, 0, 77, 100
2, 24089, Note_on_c, 0, 77, 0
2, 24090, Note_on_c, 0, 75, 100
2, 24096, Note_on_c, 0, 75, 0
2, 24097, Note_on_c, 0, 77, 100
2, 24104, Note_on_c, 0, 77, 0
2, 24105, Note_on_c, 0, 75, 100
2, 24111, Note_on_c, 0, 75, 0
2, 24112, Note_on_c, 0, 77, 100
2, 24119, Note_on_c, 0, 77, 0
2, 24120, Note_on_c, 0, 75, 100
2, 24126, Note_on_c, 0, 75, 0
2, 24127, Note_on_c, 0, 77, 100
2, 24134, Note_on_c, 0, 77, 0
2, 24135, Note_on_c, 0, 75, 100
2, 24141, Note_on_c, 0, 75, 0
2, 24142, Note_on_c, 0, 77, 100
2, 24149, Note_on_c, 0, 77, 0
2, 24150, Note_on_c, 0, 75, 100
2, 24156, Note_on_c, 0, 75, 0
2, 24157, Note_on_c, 0, 77, 100
2, 24164, Note_on_c, 0, 77, 0
2, 24165, Note_on_c, 0, 75, 100
2, 24171, Note_on_c, 0, 75, 0
2, 24172, Note_on_c, 0, 77, 100
2, 24179, Note_on_c, 0, 77, 0
2, 24180, Note_on_c, 0, 75, 100
2, 24186, Note_on_c, 0, 75, 0
2, 24187, Note_on_c, 0, 77, 100
2, 24194, Note_on_c, 0, 77, 0
2, 24195, Note_on_c, 0, 75, 100
2, 24201, Note_on_c, 0, 75, 0
2, 24202, Note_on_c, 0, 77, 100
2, 24209, Note_on_c, 0, 77, 0
2, 24210, Note_on_c, 0, 75, 100
2, 24216, Note_on_c, 0, 75, 0
2, 24217, Note_on_c, 0, 77, 100
2, 24224, Note_on_c, 0, 77, 0
2, 24225, Note_on_c, 0, 75, 100
2, 24231, Note_on_c, 0, 75, 0
2, 24232, Note_on_c, 0, 77, 100
2, 24239, Note_on_c, 0, 77, 0
2, 24240, Note_on_c, 0, 75, 100
2, 24246, Note_on_c, 0, 75, 0
2, 24247, Note_on_c, 0, 77, 100
2, 24254, Note_on_c, 0, 77, 0
2, 24255, Note_on_c, 0, 75, 100
2, 24261, Note_on_c, 0, 75, 0
2, 24262, Note_on_c, 0, 77, 100
2, 24269, Note_on_c, 0, 77, 0
2, 24270, Note_on_c, 0, 75, 100
2, 24276, Note_on_c, 0, 75, 0
2, 24277, Note_on_c, 0, 77, 100
2, 24284, Note_on_c, 0, 77, 0
2, 24285, Note_on_c, 0, 75, 100
2, 24291, Note_on_c, 0, 75, 0
2, 24292, Note_on_c, 0, 77, 100
2, 24299, Note_on_c, 0, 77, 0
2, 24300, Note_on_c, 0, 75, 100
2, 24306, Note_on_c, 0, 75, 0
2, 24307, Note_on_c, 0, 77, 100
2, 24314, Note_on_c, 0, 77, 0
2, 24315, Note_on_c, 0, 75, 100
2, 24321, Note_on_c, 0, 75, 0
2, 24322, Note_on_c, 0, 77, 100
2, 24329, Note_on_c, 0, 77, 0
2, 24330, Note_on_c, 0, 75, 100
2, 24336, Note_on_c, 0, 75, 0
2, 24337, Note_on_c, 0, 77, 100
2, 24344, Note_on_c, 0, 77, 0
2, 24345, Note_on_c, 0, 75, 100
2, 24351, Note_on_c, 0, 75, 0
2, 24352, Note_on_c, 0, 77, 100
2, 24359, Note_on_c, 0, 77, 0
2, 24360, Note_on_c, 0, 75, 100
2, 24366, Note_on_c, 0, 75, 0
2, 24367, Note_on_c, 0, 77, 100
2, 24374, Note_on_c, 0, 77, 0
2, 24375, Note_on_c, 0, 75, 100
2, 24381, Note_on_c, 0, 75, 0
2, 24382, Note_on_c, 0, 77, 100
2, 24389, Note_on_c, 0, 77, 0
2, 24390, Note_on_c, 0, 75, 100
2, 24396, Note_on_c, 0, 75, 0
2, 24397, Note_on_c, 0, 77, 100
2, 24404, Note_on_c, 0, 77, 0
2, 24405, Note_on_c, 0, 75, 100
2, 24411, Note_on_c, 0, 75, 0
2, 24412, Note_on_c, 0, 77, 100
2, 24419, Note_on_c, 0, 77, 0
2, 24420, Note_on_c, 0, 75, 100
2, 24426, Note_on_c, 0, 75, 0
2, 24427, Note_on_c, 0, 77, 100
2, 24434, Note_on_c, 0, 77, 0
2, 24435, Note_on_c, 0, 75, 100
2, 24441, Note_on_c, 0, 75, 0
2, 24442, Note_on_c, 0, 77, 100
2, 24449, Note_on_c, 0, 77, 0
2, 24450, Note_on_c, 0, 75, 100
2, 24456, Note_on_c, 0, 75, 0
2, 24457, Note_on_c, 0, 77, 100
2, 24464, Note_on_c, 0, 77, 0
2, 24465, Note_on_c, 0, 75, 100
2, 24471, Note_on_c, 0, 75, 0
2, 24472, Note_on_c, 0, 77, 100
2, 24479, Note_on_c, 0, 77, 0
2, 24480, Note_on_c, 0, 75, 100
2, 24486, Note_on_c, 0, 75, 0
2, 24487, Note_on_c, 0, 77, 100
2, 24494, Note_on_c, 0, 77, 0
2, 24495, Note_on_c, 0, 75, 100
2, 24501, Note_on_c, 0, 75, 0
2, 24502, Note_on_c, 0, 77, 100
2, 24509, Note_on_c, 0, 77, 0
2, 24510, Note_on_c, 0, 75, 100
2, 24516, Note_on_c, 0, 75, 0
2, 24517, Note_on_c, 0, 77, 100
2, 24524, Note_on_c, 0, 77, 0
2, 24525, Note_on_c, 0, 75, 100
2, 24531, Note_on_c, 0, 75, 0
2, 24532, Note_on_c, 0, 77, 100
2, 24539, Note_on_c, 0, 77, 0
2, 24540, Note_on_c, 0, 75, 100
2, 24546, Note_on_c, 0, 75, 0
2, 24547, Note_on_c, 0, 77, 100
2, 24554, Note_on_c, 0, 77, 0
2, 24555, Note_on_c, 0, 75, 100
2, 24561, Note_on_c, 0, 75, 0
2, 24562, Note_on_c, 0, 77, 100
2, 24569, Note_on_c, 0, 77, 0
2, 24570, Note_on_c, 0, 75, 100
2, 24576, Note_on_c, 0, 75, 0
2, 24577, Note_on_c, 0, 77, 100
2, 24584, Note_on_c, 0, 77, 0
2, 24585, Note_on_c, 0, 75, 100
2, 24591, Note_on_c, 0, 75, 0
2, 24592, Note_on_c, 0, 77, 100
2, 24599, Note_on_c, 0, 77, 0
2, 24600, Note_on_c, 0, 75, 100
2, 24652, Note_on_c, 0, 75, 0
2, 24660, Note_on_c, 0, 74, 100
2, 24686, Note_on_c, 0, 74, 0
2, 24690, Note_on_c, 0, 72, 100
2, 24716, Note_on_c, 0, 72, 0
2, 24720, Note_on_c, 0, 74, 100
2, 24772, Note_on_c, 0, 74, 0
2, 24780, Note_on_c, 0, 82, 100
2, 24892, Note_on_c, 0, 82, 0
2, 24900, Note_on_c, 0, 81, 100
2, 24926, Note_on_c, 0, 81, 0
2, 24930, Note_on_c, 0, 79, 100
2, 24956, Note_on_c, 0, 79, 0
2, 24960, Note_on_c, 0, 81, 100
2, 25012, Note_on_c, 0, 81, 0
2, 25020, Note_on_c, 0, 72, 100
2, 25132, Note_on_c, 0, 72, 0
2, 25140, Note_on_c, 0, 70, 100
2, 25166, Note_on_c, 0, 70, 0
2, 25170, Note_on_c, 0, 69, 100
2, 25196, Note_on_c, 0, 69, 0
2, 25200, Note_on_c, 0, 70, 100
2, 25252, Note_on_c, 0, 70, 0
2, 25260, Note_on_c, 0, 79, 100
2, 25312, Note_on_c, 0, 79, 0
2, 25320, Note_on_c, 0, 70, 100
2, 25326, Note_on_c, 0, 70, 0
2, 25327, Note_on_c, 0, 72, 100
2, 25334, Note_on_c, 0, 72, 0
2, 25335, Note_on_c, 0, 70, 100
2, 25341, Note_on_c, 0, 70, 0
2, 25342, Note_on_c, 0, 72, 100
2, 25349, Note_on_c, 0, 72, 0
2, 25350, Note_on_c, 0, 70, 100
2, 25356, Note_on_c, 0, 70, 0
2, 25357, Note_on_c, 0, 72, 100
2, 25364, Note_on_c, 0, 72, 0
2, 25365, Note_on_c, 0, 70, 100
2, 25436, Note_on_c, 0, 70, 0
2, 25440, Note_on_c, 0, 70, 100
2, 25446, Note_on_c, 0, 70, 0
2, 25447, Note_on_c, 0, 69, 100
2, 25467, Note_on_c, 0, 69, 0
2, 25470, Note_on_c, 0, 67, 100
2, 25496, Note_on_c, 0, 67, 0
2, 25500, Note_on_c, 0, 69, 100
2, 25526, Note_on_c, 0, 69, 0
2, 25530, Note_on_c, 0, 72, 100
2, 25556, Note_on_c, 0, 72, 0
2, 25560, Note_on_c, 0, 65, 100
2, 26092, Note_on_c, 0, 65, 0
2, 26100, Note_on_c, 0, 58, 100
2, 26126, Note_on_c, 0, 58, 0
2, 26130, Note_on_c, 0, 60, 100
2, 26156, Note_on_c, 0, 60, 0
2, 26160, Note_on_c, 0, 62, 100
2, 26212, Note_on_c, 0, 62, 0
2, 26220, Note_on_c, 0, 65, 100
2, 26272, Note_on_c, 0, 65, 0
2, 26280, Note_on_c, 0, 65, 100
2, 26332, Note_on_c, 0, 65, 0
2, 26340, Note_on_c, 0, 62, 100
2, 26366, Note_on_c, 0, 62, 0
2, 26370, Note_on_c, 0, 63, 100
2, 26396, Note_on_c, 0, 63, 0
2, 26400, Note_on_c, 0, 65, 100
2, 26452, Note_on_c, 0, 65, 0
2, 26460, Note_on_c, 0, 68, 100
2, 26512, Note_on_c, 0, 68, 0
2, 26520, Note_on_c, 0, 68, 100
2, 26812, Note_on_c, 0, 68, 0
2, 26820, Note_on_c, 0, 67, 100
2, 26846, Note_on_c, 0, 67, 0
2, 26850, Note_on_c, 0, 68, 100
2, 26876, Note_on_c, 0, 68, 0
2, 26880, Note_on_c, 0, 70, 100
2, 26932, Note_on_c, 0, 70, 0
2, 26940, Note_on_c, 0, 73, 100
2, 26992, Note_on_c, 0, 73, 0
2, 27000, Note_on_c, 0, 73, 100
2, 27052, Note_on_c, 0, 73, 0
2, 27060, Note_on_c, 0, 70, 100
2, 27086, Note_on_c, 0, 70, 0
2, 27090, Note_on_c, 0, 72, 100
2, 27116, Note_on_c, 0, 72, 0
2, 27120, Note_on_c, 0, 73, 100
2, 27172, Note_on_c, 0, 73, 0
2, 27180, Note_on_c, 0, 79, 100
2, 27232, Note_on_c, 0, 79, 0
2, 27240, Note_on_c, 0, 79, 100
2, 27292, Note_on_c, 0, 79, 0
2, 27300, Note_on_c, 0, 70, 100
2, 27352, Note_on_c, 0, 70, 0
2, 27360, Note_on_c, 0, 69, 100
2, 27412, Note_on_c, 0, 69, 0
2, 27420, Note_on_c, 0, 70, 100
2, 27506, Note_on_c, 0, 70, 0
2, 27510, Note_on_c, 0, 62, 100
2, 27536, Note_on_c, 0, 62, 0
2, 27540, Note_on_c, 0, 63, 100
2, 27566, Note_on_c, 0, 63, 0
2, 27570, Note_on_c, 0, 65, 100
2, 27596, Note_on_c, 0, 65, 0
2, 27600, Note_on_c, 0, 67, 100
2, 27626, Note_on_c, 0, 67, 0
2, 27630, Note_on_c, 0, 69, 100
2, 27656, Note_on_c, 0, 69, 0
2, 27660, Note_on_c, 0, 70, 100
2, 27686, Note_on_c, 0, 70, 0
2, 27690, Note_on_c, 0, 72, 100
2, 27716, Note_on_c, 0, 72, 0
2, 27720, Note_on_c, 0, 74, 100
2, 27772, Note_on_c, 0, 74, 0
2, 27780, Note_on_c, 0, 75, 100
2, 27806, Note_on_c, 0, 75, 0
2, 27810, Note_on_c, 0, 74, 100
2, 27836, Note_on_c, 0, 74, 0
2, 27840, Note_on_c, 0, 72, 100
2, 27866, Note_on_c, 0, 72, 0
2, 27870, Note_on_c, 0, 74, 100
2, 27896, Note_on_c, 0, 74, 0
2, 27900, Note_on_c, 0, 75, 100
2, 27926, Note_on_c, 0, 75, 0
2, 27930, Note_on_c, 0, 72, 100
2, 27956, Note_on_c, 0, 72, 0
2, 27960, Note_on_c, 0, 70, 100
2, 28012, Note_on_c, 0, 70, 0
2, 28020, Note_on_c, 0, 67, 100
2, 28072, Note_on_c, 0, 67, 0
2, 28080, Note_on_c, 0, 69, 100
2, 28086, Note_on_c, 0, 69, 0
2, 28087, Note_on_c, 0, 70, 100
2, 28094, Note_on_c, 0, 70, 0
2, 28095, Note_on_c, 0, 69, 100
2, 28101, Note_on_c, 0, 69, 0
2, 28102, Note_on_c, 0, 70, 100
2, 28109, Note_on_c, 0, 70, 0
2, 28110, Note_on_c, 0, 69, 100
2, 28116, Note_on_c, 0, 69, 0
2, 28117, Note_on_c, 0, 70, 100
2, 28124, Note_on_c, 0, 70, 0
2, 28125, Note_on_c, 0, 69, 100
2, 28139, Note_on_c, 0, 69, 0
2, 28140, Note_on_c, 0, 70, 100
2, 28192, Note_on_c, 0, 70, 0
2, 28200, Note_on_c, 0, 70, 100
2, 28425, Note_on_c, 0, 70, 0
2, 28440, Note_on_c, 0, 70, 100
2, 28845, Note_on_c, 0, 70, 0
2, 28920, Program_c, 0, 68
2, 28920, Note_on_c, 0, 72, 100
2, 29085, Note_on_c, 0, 72, 0
2, 29100, Note_on_c, 0, 72, 100
2, 29152, Note_on_c, 0, 72, 0
2, 29160, Note_on_c, 0, 72, 100
2, 29306, Note_on_c, 0, 72, 0
2, 29310, Note_on_c, 0, 74, 100
2, 29336, Note_on_c, 0, 74, 0
2, 29340, Note_on_c, 0, 72, 100
2, 29366, Note_on_c, 0, 72, 0
2, 29370, Note_on_c, 0, 70, 100
2, 29396, Note_on_c, 0, 70, 0
2, 29400, Note_on_c, 0, 72, 100
2, 29426, Note_on_c, 0, 72, 0
2, 29430, Note_on_c, 0, 70, 100
2, 29456, Note_on_c, 0, 70, 0
2, 29460, Note_on_c, 0, 69, 100
2, 29486, Note_on_c, 0, 69, 0
2, 29490, Note_on_c, 0, 70, 100
2, 29516, Note_on_c, 0, 70, 0
2, 29520, Note_on_c, 0, 69, 100
2, 29546, Note_on_c, 0, 69, 0
2, 29550, Note_on_c, 0, 67, 100
2, 29576, Note_on_c, 0, 67, 0
2, 29580, Note_on_c, 0, 69, 100
2, 29593, Note_on_c, 0, 69, 0
2, 29595, Note_on_c, 0, 67, 100
2, 29608, Note_on_c, 0, 67, 0
2, 29610, Note_on_c, 0, 65, 100
2, 29636, Note_on_c, 0, 65, 0
2, 29640, Note_on_c, 0, 77, 100
2, 29805, Note_on_c, 0, 77, 0
2, 29820, Note_on_c, 0, 77, 100
2, 29872, Note_on_c, 0, 77, 0
2, 29880, Note_on_c, 0, 77, 100
2, 30026, Note_on_c, 0, 77, 0
2, 30030, Note_on_c, 0, 79, 100
2, 30056, Note_on_c, 0, 79, 0
2, 30060, Note_on_c, 0, 77, 100
2, 30086, Note_on_c, 0, 77, 0
2, 30090, Note_on_c, 0, 75, 100
2, 30116, Note_on_c, 0, 75, 0
2, 30120, Note_on_c, 0, 77, 100
2, 30146, Note_on_c, 0, 77, 0
2, 30150, Note_on_c, 0, 75, 100
2, 30176, Note_on_c, 0, 75, 0
2, 30180, Note_on_c, 0, 74, 100
2, 30206, Note_on_c, 0, 74, 0
2, 30210, Note_on_c, 0, 75, 100
2, 30223, Note_on_c, 0, 75, 0
2, 30225, Note_on_c, 0, 74, 100
2, 30238, Note_on_c, 0, 74, 0
2, 30240, Note_on_c, 0, 72, 100
2, 30253, Note_on_c, 0, 72, 0
2, 30255, Note_on_c, 0, 74, 100
2, 30268, Note_on_c, 0, 74, 0
2, 30270, Note_on_c, 0, 72, 100
2, 30283, Note_on_c, 0, 72, 0
2, 30285, Note_on_c, 0, 70, 100
2, 30298, Note_on_c, 0, 70, 0
2, 30300, Note_on_c, 0, 72, 100
2, 30326, Note_on_c, 0, 72, 0
2, 30330, Note_on_c, 0, 69, 100
2, 30356, Note_on_c, 0, 69, 0
2, 30360, Note_on_c, 0, 70, 100
2, 30412, Note_on_c, 0, 70, 0
2, 30420, Note_on_c, 0, 65, 100
2, 30450, Note_on_c, 0, 69, 100
2, 30476, Note_on_c, 0, 69, 0
2, 30480, Note_on_c, 0, 70, 100
2, 30540, Note_on_c, 0, 74, 100
2, 30592, Note_on_c, 0, 74, 0
2, 30592, Note_on_c, 0, 70, 0
2, 30592, Note_on_c, 0, 65, 0
2, 30600, Note_on_c, 0, 75, 100
2, 30892, Note_on_c, 0, 75, 0
2, 30900, Note_on_c, 0, 72, 100
2, 30926, Note_on_c, 0, 72, 0
2, 30930, Note_on_c, 0, 74, 100
2, 30956, Note_on_c, 0, 74, 0
2, 30960, Note_on_c, 0, 75, 100
2, 30986, Note_on_c, 0, 75, 0
2, 30990, Note_on_c, 0, 74, 100
2, 31016, Note_on_c, 0, 74, 0
2, 31020, Note_on_c, 0, 72, 100
2, 31072, Note_on_c, 0, 72, 0
2, 31080, Note_on_c, 0, 74, 100
2, 31245, Note_on_c, 0, 74, 0
2, 31260, Note_on_c, 0, 74, 100
2, 31312, Note_on_c, 0, 74, 0
2, 31320, Note_on_c, 0, 74, 100
2, 31466, Note_on_c, 0, 74, 0
2, 31470, Note_on_c, 0, 72, 100
2, 31496, Note_on_c, 0, 72, 0
2, 31500, Note_on_c, 0, 70, 100
2, 31526, Note_on_c, 0, 70, 0
2, 31530, Note_on_c, 0, 69, 100
2, 31556, Note_on_c, 0, 69, 0
2, 31560, Note_on_c, 0, 70, 100
2, 31586, Note_on_c, 0, 70, 0
2, 31590, Note_on_c, 0, 65, 100
2, 31616, Note_on_c, 0, 65, 0
2, 31620, Note_on_c, 0, 70, 100
2, 31646, Note_on_c, 0, 70, 0
2, 31650, Note_on_c, 0, 72, 100
2, 31676, Note_on_c, 0, 72, 0
2, 31680, Note_on_c, 0, 74, 100
2, 31706, Note_on_c, 0, 74, 0
2, 31710, Note_on_c, 0, 75, 100
2, 31736, Note_on_c, 0, 75, 0
2, 31740, Note_on_c, 0, 77, 100
2, 31766, Note_on_c, 0, 77, 0
2, 31770, Note_on_c, 0, 79, 100
2, 31796, Note_on_c, 0, 79, 0
2, 31800, Note_on_c, 0, 80, 100
2, 31826, Note_on_c, 0, 80, 0
2, 31830, Note_on_c, 0, 79, 100
2, 31856, Note_on_c, 0, 79, 0
2, 31860, Note_on_c, 0, 77, 100
2, 31886, Note_on_c, 0, 77, 0
2, 31890, Note_on_c, 0, 75, 100
2, 31916, Note_on_c, 0, 75, 0
2, 31920, Note_on_c, 0, 74, 100
2, 31946, Note_on_c, 0, 74, 0
2, 31950, Note_on_c, 0, 75, 100
2, 31976, Note_on_c, 0, 75, 0
2, 31980, Note_on_c, 0, 77, 100
2, 32032, Note_on_c, 0, 77, 0
2, 32040, Note_on_c, 0, 71, 100
2, 32092, Note_on_c, 0, 71, 0
2, 32100, Note_on_c, 0, 74, 100
2, 32152, Note_on_c, 0, 74, 0
2, 32160, Note_on_c, 0, 77, 100
2, 32212, Note_on_c, 0, 77, 0
2, 32220, Note_on_c, 0, 80, 100
2, 32272, Note_on_c, 0, 80, 0
2, 32280, Note_on_c, 0, 79, 100
2, 32286, Note_on_c, 0, 79, 0
2, 32287, Note_on_c, 0, 80, 100
2, 32294, Note_on_c, 0, 80, 0
2, 32295, Note_on_c, 0, 79, 100
2, 32301, Note_on_c, 0, 79, 0
2, 32302, Note_on_c, 0, 80, 100
2, 32309, Note_on_c, 0, 80, 0
2, 32310, Note_on_c, 0, 79, 100
2, 32316, Note_on_c, 0, 79, 0
2, 32317, Note_on_c, 0, 80, 100
2, 32324, Note_on_c, 0, 80, 0
2, 32325, Note_on_c, 0, 79, 100
2, 32331, Note_on_c, 0, 79, 0
2, 32332, Note_on_c, 0, 80, 100
2, 32339, Note_on_c, 0, 80, 0
2, 32340, Note_on_c, 0, 79, 100
2, 32346, Note_on_c, 0, 79, 0
2, 32347, Note_on_c, 0, 80, 100
2, 32354, Note_on_c, 0, 80, 0
2, 32355, Note_on_c, 0, 79, 100
2, 32361, Note_on_c, 0, 79, 0
2, 32362, Note_on_c, 0, 80, 100
2, 32369, Note_on_c, 0, 80, 0
2, 32370, Note_on_c, 0, 79, 100
2, 32376, Note_on_c, 0, 79, 0
2, 32377, Note_on_c, 0, 80, 100
2, 32384, Note_on_c, 0, 80, 0
2, 32385, Note_on_c, 0, 79, 100
2, 32426, Note_on_c, 0, 79, 0
2, 32430, Note_on_c, 0, 77, 100
2, 32456, Note_on_c, 0, 77, 0
2, 32460, Note_on_c, 0, 75, 100
2, 32486, Note_on_c, 0, 75, 0
2, 32490, Note_on_c, 0, 74, 100
2, 32516, Note_on_c, 0, 74, 0
2, 32520, Note_on_c, 0, 75, 100
2, 32546, Note_on_c, 0, 75, 0
2, 32550, Note_on_c, 0, 74, 100
2, 32576, Note_on_c, 0, 74, 0
2, 32580, Note_on_c, 0, 72, 100
2, 32606, Note_on_c, 0, 72, 0
2, 32610, Note_on_c, 0, 70, 100
2, 32636, Note_on_c, 0, 70, 0
2, 32640, Note_on_c, 0, 68, 100
2, 32666, Note_on_c, 0, 68, 0
2, 32670, Note_on_c, 0, 70, 100
2, 32696, Note_on_c, 0, 70, 0
2, 32700, Note_on_c, 0, 72, 100
2, 32752, Note_on_c, 0, 72, 0
2, 32760, Note_on_c, 0, 65, 100
2, 32812, Note_on_c, 0, 65, 0
2, 32820, Note_on_c, 0, 68, 100
2, 32872, Note_on_c, 0, 68, 0
2, 32880, Note_on_c, 0, 72, 100
2, 32932, Note_on_c, 0, 72, 0
2, 32940, Note_on_c, 0, 75, 100
2, 32992, Note_on_c, 0, 75, 0
2, 33000, Note_on_c, 0, 74, 100
2, 33006, Note_on_c, 0, 74, 0
2, 33007, Note_on_c, 0, 75, 100
2, 33014, Note_on_c, 0, 75, 0
2, 33015, Note_on_c, 0, 74, 100
2, 33021, Note_on_c, 0, 74, 0
2, 33022, Note_on_c, 0, 75, 100
2, 33029, Note_on_c, 0, 75, 0
2, 33030, Note_on_c, 0, 74, 100
2, 33036, Note_on_c, 0, 74, 0
2, 33037, Note_on_c, 0, 75, 100
2, 33044, Note_on_c, 0, 75, 0
2, 33045, Note_on_c, 0, 74, 100
2, 33051, Note_on_c, 0, 74, 0
2, 33052, Note_on_c, 0, 75, 100
2, 33059, Note_on_c, 0, 75, 0
2, 33060, Note_on_c, 0, 74, 100
2, 33066, Note_on_c, 0, 74, 0
2, 33067, Note_on_c, 0, 75, 100
2, 33074, Note_on_c, 0, 75, 0
2, 33075, Note_on_c, 0, 74, 100
2, 33081, Note_on_c, 0, 74, 0
2, 33082, Note_on_c, 0, 75, 100
2, 33089, Note_on_c, 0, 75, 0
2, 33090, Note_on_c, 0, 74, 100
2, 33096, Note_on_c, 0, 74, 0
2, 33097, Note_on_c, 0, 75, 100
2, 33104, Note_on_c, 0, 75, 0
2, 33105, Note_on_c, 0, 74, 100
2, 33111, Note_on_c, 0, 74, 0
2, 33112, Note_on_c, 0, 75, 100
2, 33119, Note_on_c, 0, 75, 0
2, 33120, Note_on_c, 0, 74, 100
2, 33126, Note_on_c, 0, 74, 0
2, 33127, Note_on_c, 0, 75, 100
2, 33134, Note_on_c, 0, 75, 0
2, 33135, Note_on_c, 0, 74, 100
2, 33141, Note_on_c, 0, 74, 0
2, 33142, Note_on_c, 0, 75, 100
2, 33149, Note_on_c, 0, 75, 0
2, 33150, Note_on_c, 0, 74, 100
2, 33179, Note_on_c, 0, 74, 0
2, 33180, Note_on_c, 0, 72, 100
2, 33206, Note_on_c, 0, 72, 0
2, 33210, Note_on_c, 0, 71, 100
2, 33236, Note_on_c, 0, 71, 0
2, 33240, Note_on_c, 0, 72, 100
2, 33292, Note_on_c, 0, 72, 0
2, 33300, Note_on_c, 0, 63, 100
2, 33352, Note_on_c, 0, 63, 0
2, 33360, Note_on_c, 0, 63, 100
2, 33366, Note_on_c, 0, 63, 0
2, 33367, Note_on_c, 0, 65, 100
2, 33374, Note_on_c, 0, 65, 0
2, 33375, Note_on_c, 0, 63, 100
2, 33381, Note_on_c, 0, 63, 0
2, 33382, Note_on_c, 0, 65, 100
2, 33389, Note_on_c, 0, 65, 0
2, 33390, Note_on_c, 0, 62, 100
2, 33416, Note_on_c, 0, 62, 0
2, 33420, Note_on_c, 0, 63, 100
2, 33472, Note_on_c, 0, 63, 0
2, 33480, Note_on_c, 0, 69, 100
2, 33532, Note_on_c, 0, 69, 0
2, 33540, Note_on_c, 0, 66, 100
2, 33592, Note_on_c, 0, 66, 0
2, 33600, Note_on_c, 0, 66, 100
2, 33606, Note_on_c, 0, 66, 0
2, 33607, Note_on_c, 0, 67, 100
2, 33614, Note_on_c, 0, 67, 0
2, 33615, Note_on_c, 0, 66, 100
2, 33621, Note_on_c, 0, 66, 0
2, 33622, Note_on_c, 0, 67, 100
2, 33629, Note_on_c, 0, 67, 0
2, 33630, Note_on_c, 0, 64, 100
2, 33656, Note_on_c, 0, 64, 0
2, 33660, Note_on_c, 0, 66, 100
2, 33712, Note_on_c, 0, 66, 0
2, 33720, Note_on_c, 0, 75, 100
2, 33772, Note_on_c, 0, 75, 0
2, 33780, Note_on_c, 0, 71, 100
2, 33832, Note_on_c, 0, 71, 0
2, 33840, Note_on_c, 0, 71, 100
2, 33848, Note_on_c, 0, 71, 0
2, 33849, Note_on_c, 0, 72, 100
2, 33858, Note_on_c, 0, 72, 0
2, 33859, Note_on_c, 0, 71, 100
2, 33868, Note_on_c, 0, 71, 0
2, 33870, Note_on_c, 0, 69, 100
2, 33896, Note_on_c, 0, 69, 0
2, 33900, Note_on_c, 0, 71, 100
2, 33952, Note_on_c, 0, 71, 0
2, 33960, Note_on_c, 0, 72, 100
2, 34125, Note_on_c, 0, 72, 0
2, 34140, Note_on_c, 0, 72, 100
2, 34192, Note_on_c, 0, 72, 0
2, 34200, Note_on_c, 0, 72, 100
2, 34346, Note_on_c, 0, 72, 0
2, 34350, Note_on_c, 0, 67, 100
2, 34376, Note_on_c, 0, 67, 0
2, 34380, Note_on_c, 0, 69, 100
2, 34406, Note_on_c, 0, 69, 0
2, 34410, Note_on_c, 0, 71, 100
2, 34436, Note_on_c, 0, 71, 0
2, 34440, Note_on_c, 0, 72, 100
2, 34466, Note_on_c, 0, 72, 0
2, 34470, Note_on_c, 0, 74, 100
2, 34496, Note_on_c, 0, 74, 0
2, 34500, Note_on_c, 0, 72, 100
2, 34526, Note_on_c, 0, 72, 0
2, 34530, Note_on_c, 0, 71, 100
2, 34556, Note_on_c, 0, 71, 0
2, 34560, Note_on_c, 0, 72, 100
2, 34612, Note_on_c, 0, 72, 0
2, 34620, Note_on_c, 0, 74, 100
2, 34672, Note_on_c, 0, 74, 0
2, 34680, Note_on_c, 0, 74, 100
2, 34706, Note_on_c, 0, 74, 0
2, 34710, Note_on_c, 0, 75, 100
2, 34723, Note_on_c, 0, 75, 0
2, 34725, Note_on_c, 0, 77, 100
2, 34738, Note_on_c, 0, 77, 0
2, 34740, Note_on_c, 0, 75, 100
2, 34746, Note_on_c, 0, 75, 0
2, 34747, Note_on_c, 0, 77, 100
2, 34754, Note_on_c, 0, 77, 0
2, 34755, Note_on_c, 0, 75, 100
2, 34761, Note_on_c, 0, 75, 0
2, 34762, Note_on_c, 0, 77, 100
2, 34769, Note_on_c, 0, 77, 0
2, 34770, Note_on_c, 0, 75, 100
2, 34776, Note_on_c, 0, 75, 0
2, 34777, Note_on_c, 0, 77, 100
2, 34784, Note_on_c, 0, 77, 0
2, 34785, Note_on_c, 0, 75, 100
2, 34791, Note_on_c, 0, 75, 0
2, 34792, Note_on_c, 0, 77, 100
2, 34799, Note_on_c, 0, 77, 0
2, 34800, Note_on_c, 0, 75, 100
2, 34806, Note_on_c, 0, 75, 0
2, 34807, Note_on_c, 0, 77, 100
2, 34814, Note_on_c, 0, 77, 0
2, 34815, Note_on_c, 0, 75, 100
2, 34821, Note_on_c, 0, 75, 0
2, 34822, Note_on_c, 0, 77, 100
2, 34829, Note_on_c, 0, 77, 0
2, 34830, Note_on_c, 0, 75, 100
2, 34836, Note_on_c, 0, 75, 0
2, 34837, Note_on_c, 0, 77, 100
2, 34844, Note_on_c, 0, 77, 0
2, 34845, Note_on_c, 0, 75, 100
2, 34851, Note_on_c, 0, 75, 0
2, 34852, Note_on_c, 0, 77, 100
2, 34859, Note_on_c, 0, 77, 0
2, 34860, Note_on_c, 0, 75, 100
2, 34866, Note_on_c, 0, 75, 0
2, 34867, Note_on_c, 0, 77, 100
2, 34874, Note_on_c, 0, 77, 0
2, 34875, Note_on_c, 0, 75, 100
2, 34881, Note_on_c, 0, 75, 0
2, 34882, Note_on_c, 0, 77, 100
2, 34889, Note_on_c, 0, 77, 0
2, 34890, Note_on_c, 0, 75, 100
2, 34896, Note_on_c, 0, 75, 0
2, 34897, Note_on_c, 0, 77, 100
2, 34904, Note_on_c, 0, 77, 0
2, 34905, Note_on_c, 0, 75, 100
2, 34911, Note_on_c, 0, 75, 0
2, 34912, Note_on_c, 0, 77, 100
2, 34919, Note_on_c, 0, 77, 0
2, 34920, Note_on_c, 0, 75, 100
2, 34926, Note_on_c, 0, 75, 0
2, 34927, Note_on_c, 0, 77, 100
2, 34934, Note_on_c, 0, 77, 0
2, 34935, Note_on_c, 0, 75, 100
2, 34941, Note_on_c, 0, 75, 0
2, 34942, Note_on_c, 0, 77, 100
2, 34949, Note_on_c, 0, 77, 0
2, 34950, Note_on_c, 0, 75, 100
2, 34956, Note_on_c, 0, 75, 0
2, 34957, Note_on_c, 0, 77, 100
2, 34964, Note_on_c, 0, 77, 0
2, 34965, Note_on_c, 0, 75, 100
2, 34971, Note_on_c, 0, 75, 0
2, 34972, Note_on_c, 0, 77, 100
2, 34979, Note_on_c, 0, 77, 0
2, 34980, Note_on_c, 0, 75, 100
2, 34986, Note_on_c, 0, 75, 0
2, 34987, Note_on_c, 0, 77, 100
2, 34994, Note_on_c, 0, 77, 0
2, 34995, Note_on_c, 0, 75, 100
2, 35001, Note_on_c, 0, 75, 0
2, 35002, Note_on_c, 0, 77, 100
2, 35009, Note_on_c, 0, 77, 0
2, 35010, Note_on_c, 0, 75, 100
2, 35016, Note_on_c, 0, 75, 0
2, 35017, Note_on_c, 0, 77, 100
2, 35024, Note_on_c, 0, 77, 0
2, 35025, Note_on_c, 0, 75, 100
2, 35031, Note_on_c, 0, 75, 0
2, 35032, Note_on_c, 0, 77, 100
2, 35039, Note_on_c, 0, 77, 0
2, 35040, Note_on_c, 0, 75, 100
2, 35046, Note_on_c, 0, 75, 0
2, 35047, Note_on_c, 0, 77, 100
2, 35054, Note_on_c, 0, 77, 0
2, 35055, Note_on_c, 0, 75, 100
2, 35061, Note_on_c, 0, 75, 0
2, 35062, Note_on_c, 0, 77, 100
2, 35069, Note_on_c, 0, 77, 0
2, 35070, Note_on_c, 0, 75, 100
2, 35076, Note_on_c, 0, 75, 0
2, 35077, Note_on_c, 0, 77, 100
2, 35084, Note_on_c, 0, 77, 0
2, 35085, Note_on_c, 0, 75, 100
2, 35091, Note_on_c, 0, 75, 0
2, 35092, Note_on_c, 0, 77, 100
2, 35099, Note_on_c, 0, 77, 0
2, 35100, Note_on_c, 0, 75, 100
2, 35106, Note_on_c, 0, 75, 0
2, 35107, Note_on_c, 0, 77, 100
2, 35114, Note_on_c, 0, 77, 0
2, 35115, Note_on_c, 0, 75, 100
2, 35121, Note_on_c, 0, 75, 0
2, 35122, Note_on_c, 0, 77, 100
2, 35129, Note_on_c, 0, 77, 0
2, 35130, Note_on_c, 0, 75, 100
2, 35136, Note_on_c, 0, 75, 0
2, 35137, Note_on_c, 0, 77, 100
2, 35144, Note_on_c, 0, 77, 0
2, 35145, Note_on_c, 0, 75, 100
2, 35151, Note_on_c, 0, 75, 0
2, 35152, Note_on_c, 0, 77, 100
2, 35159, Note_on_c, 0, 77, 0
2, 35160, Note_on_c, 0, 75, 100
2, 35166, Note_on_c, 0, 75, 0
2, 35167, Note_on_c, 0, 77, 100
2, 35174, Note_on_c, 0, 77, 0
2, 35175, Note_on_c, 0, 75, 100
2, 35181, Note_on_c, 0, 75, 0
2, 35182, Note_on_c, 0, 77, 100
2, 35189, Note_on_c, 0, 77, 0
2, 35190, Note_on_c, 0, 75, 100
2, 35196, Note_on_c, 0, 75, 0
2, 35197, Note_on_c, 0, 77, 100
2, 35204, Note_on_c, 0, 77, 0
2, 35205, Note_on_c, 0, 75, 100
2, 35211, Note_on_c, 0, 75, 0
2, 35212, Note_on_c, 0, 77, 100
2, 35219, Note_on_c, 0, 77, 0
2, 35220, Note_on_c, 0, 75, 100
2, 35226, Note_on_c, 0, 75, 0
2, 35227, Note_on_c, 0, 77, 100
2, 35234, Note_on_c, 0, 77, 0
2, 35235, Note_on_c, 0, 75, 100
2, 35241, Note_on_c, 0, 75, 0
2, 35242, Note_on_c, 0, 77, 100
2, 35249, Note_on_c, 0, 77, 0
2, 35250, Note_on_c, 0, 75, 100
2, 35256, Note_on_c, 0, 75, 0
2, 35257, Note_on_c, 0, 77, 100
2, 35264, Note_on_c, 0, 77, 0
2, 35265, Note_on_c, 0, 75, 100
2, 35271, Note_on_c, 0, 75, 0
2, 35272, Note_on_c, 0, 77, 100
2, 35279, Note_on_c, 0, 77, 0
2, 35280, Note_on_c, 0, 75, 100
2, 35286, Note_on_c, 0, 75, 0
2, 35287, Note_on_c, 0, 77, 100
2, 35294, Note_on_c, 0, 77, 0
2, 35295, Note_on_c, 0, 75, 100
2, 35301, Note_on_c, 0, 75, 0
2, 35302, Note_on_c, 0, 77, 100
2, 35309, Note_on_c, 0, 77, 0
2, 35310, Note_on_c, 0, 75, 100
2, 35316, Note_on_c, 0, 75, 0
2, 35317, Note_on_c, 0, 77, 100
2, 35324, Note_on_c, 0, 77, 0
2, 35325, Note_on_c, 0, 75, 100
2, 35331, Note_on_c, 0, 75, 0
2, 35332, Note_on_c, 0, 77, 100
2, 35339, Note_on_c, 0, 77, 0
2, 35340, Note_on_c, 0, 75, 100
2, 35346, Note_on_c, 0, 75, 0
2, 35347, Note_on_c, 0, 77, 100
2, 35354, Note_on_c, 0, 77, 0
2, 35355, Note_on_c, 0, 75, 100
2, 35361, Note_on_c, 0, 75, 0
2, 35362, Note_on_c, 0, 77, 100
2, 35369, Note_on_c, 0, 77, 0
2, 35370, Note_on_c, 0, 75, 100
2, 35376, Note_on_c, 0, 75, 0
2, 35377, Note_on_c, 0, 77, 100
2, 35384, Note_on_c, 0, 77, 0
2, 35385, Note_on_c, 0, 75, 100
2, 35391, Note_on_c, 0, 75, 0
2, 35392, Note_on_c, 0, 77, 100
2, 35399, Note_on_c, 0, 77, 0
2, 35400, Note_on_c, 0, 75, 100
2, 35406, Note_on_c, 0, 75, 0
2, 35407, Note_on_c, 0, 77, 100
2, 35414, Note_on_c, 0, 77, 0
2, 35415, Note_on_c, 0, 75, 100
2, 35421, Note_on_c, 0, 75, 0
2, 35422, Note_on_c, 0, 77, 100
2, 35429, Note_on_c, 0, 77, 0
2, 35430, Note_on_c, 0, 75, 100
2, 35436, Note_on_c, 0, 75, 0
2, 35437, Note_on_c, 0, 77, 100
2, 35444, Note_on_c, 0, 77, 0
2, 35445, Note_on_c, 0, 75, 100
2, 35451, Note_on_c, 0, 75, 0
2, 35452, Note_on_c, 0, 77, 100
2, 35459, Note_on_c, 0, 77, 0
2, 35460, Note_on_c, 0, 75, 100
2, 35466, Note_on_c, 0, 75, 0
2, 35467, Note_on_c, 0, 77, 100
2, 35474, Note_on_c, 0, 77, 0
2, 35475, Note_on_c, 0, 75, 100
2, 35481, Note_on_c, 0, 75, 0
2, 35482, Note_on_c, 0, 77, 100
2, 35489, Note_on_c, 0, 77, 0
2, 35490, Note_on_c, 0, 75, 100
2, 35496, Note_on_c, 0, 75, 0
2, 35497, Note_on_c, 0, 77, 100
2, 35504, Note_on_c, 0, 77, 0
2, 35505, Note_on_c, 0, 75, 100
2, 35511, Note_on_c, 0, 75, 0
2, 35512, Note_on_c, 0, 77, 100
2, 35519, Note_on_c, 0, 77, 0
2, 35520, Note_on_c, 0, 75, 100
2, 35526, Note_on_c, 0, 75, 0
2, 35527, Note_on_c, 0, 77, 100
2, 35534, Note_on_c, 0, 77, 0
2, 35535, Note_on_c, 0, 75, 100
2, 35541, Note_on_c, 0, 75, 0
2, 35542, Note_on_c, 0, 77, 100
2, 35549, Note_on_c, 0, 77, 0
2, 35550, Note_on_c, 0, 75, 100
2, 35556, Note_on_c, 0, 75, 0
2, 35557, Note_on_c, 0, 77, 100
2, 35564, Note_on_c, 0, 77, 0
2, 35565, Note_on_c, 0, 75, 100
2, 35571, Note_on_c, 0, 75, 0
2, 35572, Note_on_c, 0, 77, 100
2, 35579, Note_on_c, 0, 77, 0
2, 35580, Note_on_c, 0, 75, 100
2, 35586, Note_on_c, 0, 75, 0
2, 35587, Note_on_c, 0, 77, 100
2, 35594, Note_on_c, 0, 77, 0
2, 35595, Note_on_c, 0, 75, 100
2, 35601, Note_on_c, 0, 75, 0
2, 35602, Note_on_c, 0, 77, 100
2, 35609, Note_on_c, 0, 77, 0
2, 35610, Note_on_c, 0, 75, 100
2, 35616, Note_on_c, 0, 75, 0
2, 35617, Note_on_c, 0, 77, 100
2, 35624, Note_on_c, 0, 77, 0
2, 35625, Note_on_c, 0, 75, 100
2, 35631, Note_on_c, 0, 75, 0
2, 35632, Note_on_c, 0, 77, 100
2, 35639, Note_on_c, 0, 77, 0
2, 35640, Note_on_c, 0, 75, 100
2, 35646, Note_on_c, 0, 75, 0
2, 35647, Note_on_c, 0, 77, 100
2, 35654, Note_on_c, 0, 77, 0
2, 35655, Note_on_c, 0, 75, 100
2, 35661, Note_on_c, 0, 75, 0
2, 35662, Note_on_c, 0, 77, 100
2, 35669, Note_on_c, 0, 77, 0
2, 35670, Note_on_c, 0, 75, 100
2, 35676, Note_on_c, 0, 75, 0
2, 35677, Note_on_c, 0, 77, 100
2, 35684, Note_on_c, 0, 77, 0
2, 35685, Note_on_c, 0, 75, 100
2, 35691, Note_on_c, 0, 75, 0
2, 35692, Note_on_c, 0, 77, 100
2, 35699, Note_on_c, 0, 77, 0
2, 35700, Note_on_c, 0, 75, 100
2, 35706, Note_on_c, 0, 75, 0
2, 35707, Note_on_c, 0, 77, 100
2, 35714, Note_on_c, 0, 77, 0
2, 35715, Note_on_c, 0, 75, 100
2, 35721, Note_on_c, 0, 75, 0
2, 35722, Note_on_c, 0, 77, 100
2, 35729, Note_on_c, 0, 77, 0
2, 35730, Note_on_c, 0, 75, 100
2, 35736, Note_on_c, 0, 75, 0
2, 35737, Note_on_c, 0, 77, 100
2, 35744, Note_on_c, 0, 77, 0
2, 35745, Note_on_c, 0, 75, 100
2, 35751, Note_on_c, 0, 75, 0
2, 35752, Note_on_c, 0, 77, 100
2, 35759, Note_on_c, 0, 77, 0
2, 35760, Note_on_c, 0, 75, 100
2, 35766, Note_on_c, 0, 75, 0
2, 35767, Note_on_c, 0, 77, 100
2, 35774, Note_on_c, 0, 77, 0
2, 35775, Note_on_c, 0, 75, 100
2, 35781, Note_on_c, 0, 75, 0
2, 35782, Note_on_c, 0, 77, 100
2, 35789, Note_on_c, 0, 77, 0
2, 35790, Note_on_c, 0, 75, 100
2, 35796, Note_on_c, 0, 75, 0
2, 35797, Note_on_c, 0, 77, 100
2, 35804, Note_on_c, 0, 77, 0
2, 35805, Note_on_c, 0, 75, 100
2, 35811, Note_on_c, 0, 75, 0
2, 35812, Note_on_c, 0, 77, 100
2, 35819, Note_on_c, 0, 77, 0
2, 35820, Note_on_c, 0, 75, 100
2, 35826, Note_on_c, 0, 75, 0
2, 35827, Note_on_c, 0, 77, 100
2, 35834, Note_on_c, 0, 77, 0
2, 35835, Note_on_c, 0, 75, 100
2, 35841, Note_on_c, 0, 75, 0
2, 35842, Note_on_c, 0, 77, 100
2, 35849, Note_on_c, 0, 77, 0
2, 35850, Note_on_c, 0, 75, 100
2, 35856, Note_on_c, 0, 75, 0
2, 35857, Note_on_c, 0, 77, 100
2, 35864, Note_on_c, 0, 77, 0
2, 35865, Note_on_c, 0, 75, 100
2, 35871, Note_on_c, 0, 75, 0
2, 35872, Note_on_c, 0, 77, 100
2, 35879, Note_on_c, 0, 77, 0
2, 35880, Note_on_c, 0, 75, 100
2, 35886, Note_on_c, 0, 75, 0
2, 35887, Note_on_c, 0, 77, 100
2, 35894, Note_on_c, 0, 77, 0
2, 35895, Note_on_c, 0, 75, 100
2, 35901, Note_on_c, 0, 75, 0
2, 35902, Note_on_c, 0, 77, 100
2, 35909, Note_on_c, 0, 77, 0
2, 35910, Note_on_c, 0, 75, 100
2, 35916, Note_on_c, 0, 75, 0
2, 35917, Note_on_c, 0, 77, 100
2, 35924, Note_on_c, 0, 77, 0
2, 35925, Note_on_c, 0, 75, 100
2, 35931, Note_on_c, 0, 75, 0
2, 35932, Note_on_c, 0, 77, 100
2, 35939, Note_on_c, 0, 77, 0
2, 35940, Note_on_c, 0, 75, 100
2, 35946, Note_on_c, 0, 75, 0
2, 35947, Note_on_c, 0, 77, 100
2, 35954, Note_on_c, 0, 77, 0
2, 35955, Note_on_c, 0, 75, 100
2, 35961, Note_on_c, 0, 75, 0
2, 35962, Note_on_c, 0, 77, 100
2, 35969, Note_on_c, 0, 77, 0
2, 35970, Note_on_c, 0, 75, 100
2, 35976, Note_on_c, 0, 75, 0
2, 35977, Note_on_c, 0, 77, 100
2, 35984, Note_on_c, 0, 77, 0
2, 35985, Note_on_c, 0, 75, 100
2, 35991, Note_on_c, 0, 75, 0
2, 35992, Note_on_c, 0, 77, 100
2, 35999, Note_on_c, 0, 77, 0
2, 36000, Note_on_c, 0, 75, 100
2, 36006, Note_on_c, 0, 75, 0
2, 36007, Note_on_c, 0, 77, 100
2, 36014, Note_on_c, 0, 77, 0
2, 36015, Note_on_c, 0, 75, 100
2, 36021, Note_on_c, 0, 75, 0
2, 36022, Note_on_c, 0, 77, 100
2, 36029, Note_on_c, 0, 77, 0
2, 36030, Note_on_c, 0, 75, 100
2, 36036, Note_on_c, 0, 75, 0
2, 36037, Note_on_c, 0, 77, 100
2, 36044, Note_on_c, 0, 77, 0
2, 36045, Note_on_c, 0, 75, 100
2, 36051, Note_on_c, 0, 75, 0
2, 36052, Note_on_c, 0, 77, 100
2, 36059, Note_on_c, 0, 77, 0
2, 36060, Note_on_c, 0, 75, 100
2, 36066, Note_on_c, 0, 75, 0
2, 36067, Note_on_c, 0, 77, 100
2, 36074, Note_on_c, 0, 77, 0
2, 36075, Note_on_c, 0, 75, 100
2, 36081, Note_on_c, 0, 75, 0
2, 36082, Note_on_c, 0, 77, 100
2, 36089, Note_on_c, 0, 77, 0
2, 36090, Note_on_c, 0, 75, 100
2, 36096, Note_on_c, 0, 75, 0
2, 36097, Note_on_c, 0, 77, 100
2, 36104, Note_on_c, 0, 77, 0
2, 36105, Note_on_c, 0, 75, 100
2, 36111, Note_on_c, 0, 75, 0
2, 36112, Note_on_c, 0, 77, 100
2, 36119, Note_on_c, 0, 77, 0
2, 36120, Note_on_c, 0, 75, 100
2, 36172, Note_on_c, 0, 75, 0
2, 36180, Note_on_c, 0, 74, 100
2, 36206, Note_on_c, 0, 74, 0
2, 36210, Note_on_c, 0, 72, 100
2, 36236, Note_on_c, 0, 72, 0
2, 36240, Note_on_c, 0, 74, 100
2, 36292, Note_on_c, 0, 74, 0
2, 36300, Note_on_c, 0, 82, 100
2, 36412, Note_on_c, 0, 82, 0
2, 36420, Note_on_c, 0, 81, 100
2, 36446, Note_on_c, 0, 81, 0
2, 36450, Note_on_c, 0, 79, 100
2, 36476, Note_on_c, 0, 79, 0
2, 36480, Note_on_c, 0, 81, 100
2, 36532, Note_on_c, 0, 81, 0
2, 36540, Note_on_c, 0, 72, 100
2, 36652, Note_on_c, 0, 72, 0
2, 36660, Note_on_c, 0, 70, 100
2, 36686, Note_on_c, 0, 70, 0
2, 36690, Note_on_c, 0, 69, 100
2, 36716, Note_on_c, 0, 69, 0
2, 36720, Note_on_c, 0, 70, 100
2, 36772, Note_on_c, 0, 70, 0
2, 36780, Note_on_c, 0, 79, 100
2, 36832, Note_on_c, 0, 79, 0
2, 36840, Note_on_c, 0, 70, 100
2, 36846, Note_on_c, 0, 70, 0
2, 36847, Note_on_c, 0, 72, 100
2, 36854, Note_on_c, 0, 72, 0
2, 36855, Note_on_c, 0, 70, 100
2, 36861, Note_on_c, 0, 70, 0
2, 36862, Note_on_c, 0, 72, 100
2, 36869, Note_on_c, 0, 72, 0
2, 36870, Note_on_c, 0, 70, 100
2, 36876, Note_on_c, 0, 70, 0
2, 36877, Note_on_c, 0, 72, 100
2, 36884, Note_on_c, 0, 72, 0
2, 36885, Note_on_c, 0, 70, 100
2, 36956, Note_on_c, 0, 70, 0
2, 36960, Note_on_c, 0, 70, 100
2, 36966, Note_on_c, 0, 70, 0
2, 36967, Note_on_c, 0, 69, 100
2, 36987, Note_on_c, 0, 69, 0
2, 36990, Note_on_c, 0, 67, 100
2, 37016, Note_on_c, 0, 67, 0
2, 37020, Note_on_c, 0, 69, 100
2, 37046, Note_on_c, 0, 69, 0
2, 37050, Note_on_c, 0, 72, 100
2, 37076, Note_on_c, 0, 72, 0
2, 37080, Note_on_c, 0, 65, 100
2, 37612, Note_on_c, 0, 65, 0
2, 37620, Note_on_c, 0, 58, 100
2, 37646, Note_on_c, 0, 58, 0
2, 37650, Note_on_c, 0, 60, 100
2, 37676, Note_on_c, 0, 60, 0
2, 37680, Note_on_c, 0, 62, 100
2, 37732, Note_on_c, 0, 62, 0
2, 37740, Note_on_c, 0, 65, 100
2, 37792, Note_on_c, 0, 65, 0
2, 37800, Note_on_c, 0, 65, 100
2, 37852, Note_on_c, 0, 65, 0
2, 37860, Note_on_c, 0, 62, 100
2, 37886, Note_on_c, 0, 62, 0
2, 37890, Note_on_c, 0, 63, 100
2, 37916, Note_on_c, 0, 63, 0
2, 37920, Note_on_c, 0, 65, 100
2, 37972, Note_on_c, 0, 65, 0
2, 37980, Note_on_c, 0, 68, 100
2, 38032, Note_on_c, 0, 68, 0
2, 38040, Note_on_c, 0, 68, 100
2, 38332, Note_on_c, 0, 68, 0
2, 38340, Note_on_c, 0, 67, 100
2, 38366, Note_on_c, 0, 67, 0
2, 38370, Note_on_c, 0, 68, 100
2, 38396, Note_on_c, 0, 68, 0
2, 38400, Note_on_c, 0, 70, 100
2, 38452, Note_on_c, 0, 70, 0
2, 38460, Note_on_c, 0, 73, 100
2, 38512, Note_on_c, 0, 73, 0
2, 38520, Note_on_c, 0, 73, 100
2, 38572, Note_on_c, 0, 73, 0
2, 38580, Note_on_c, 0, 70, 100
2, 38606, Note_on_c, 0, 70, 0
2, 38610, Note_on_c, 0, 72, 100
2, 38636, Note_on_c, 0, 72, 0
2, 38640, Note_on_c, 0, 73, 100
2, 38692, Note_on_c, 0, 73, 0
2, 38700, Note_on_c, 0, 79, 100
2, 38752, Note_on_c, 0, 79, 0
2, 38760, Note_on_c, 0, 79, 100
2, 38812, Note_on_c, 0, 79, 0
2, 38820, Note_on_c, 0, 70, 100
2, 38872, Note_on_c, 0, 70, 0
2, 38880, Note_on_c, 0, 69, 100
2, 38932, Note_on_c, 0, 69, 0
2, 38940, Note_on_c, 0, 70, 100
2, 39026, Note_on_c, 0, 70, 0
2, 39030, Note_on_c, 0, 62, 100
2, 39056, Note_on_c, 0, 62, 0
2, 39060, Note_on_c, 0, 63, 100
2, 39086, Note_on_c, 0, 63, 0
2, 39090, Note_on_c, 0, 65, 100
2, 39116, Note_on_c, 0, 65, 0
2, 39120, Note_on_c, 0, 67, 100
2, 39146, Note_on_c, 0, 67, 0
2, 39150, Note_on_c, 0, 69, 100
2, 39176, Note_on_c, 0, 69, 0
2, 39180, Note_on_c, 0, 70, 100
2, 39206, Note_on_c, 0, 70, 0
2, 39210, Note_on_c, 0, 72, 100
2, 39236, Note_on_c, 0, 72, 0
2, 39240, Note_on_c, 0, 74, 100
2, 39292, Note_on_c, 0, 74, 0
2, 39300, Note_on_c, 0, 75, 100
2, 39326, Note_on_c, 0, 75, 0
2, 39330, Note_on_c, 0, 74, 100
2, 39356, Note_on_c, 0, 74, 0
2, 39360, Note_on_c, 0, 72, 100
2, 39386, Note_on_c, 0, 72, 0
2, 39390, Note_on_c, 0, 74, 100
2, 39416, Note_on_c, 0, 74, 0
2, 39420, Note_on_c, 0, 75, 100
2, 39446, Note_on_c, 0, 75, 0
2, 39450, Note_on_c, 0, 72, 100
2, 39476, Note_on_c, 0, 72, 0
2, 39480, Note_on_c, 0, 70, 100
2, 39532, Note_on_c, 0, 70, 0
2, 39540, Note_on_c, 0, 67, 100
2, 39592, Note_on_c, 0, 67, 0
2, 39600, Note_on_c, 0, 69, 100
2, 39606, Note_on_c, 0, 69, 0
2, 39607, Note_on_c, 0, 70, 100
2, 39614, Note_on_c, 0, 70, 0
2, 39615, Note_on_c, 0, 69, 100
2, 39621, Note_on_c, 0, 69, 0
2, 39622, Note_on_c, 0, 70, 100
2, 39629, Note_on_c, 0, 70, 0
2, 39630, Note_on_c, 0, 69, 100
2, 39636, Note_on_c, 0, 69, 0
2, 39637, Note_on_c, 0, 70, 100
2, 39644, Note_on_c, 0, 70, 0
2, 39645, Note_on_c, 0, 69, 100
2, 39659, Note_on_c, 0, 69, 0
2, 39660, Note_on_c, 0, 70, 100
2, 39712, Note_on_c, 0, 70, 0
2, 39720, Note_on_c, 0, 70, 100
2, 39945, Note_on_c, 0, 70, 0
2, 39960, Note_on_c, 0, 70, 100
2, 40425, Note_on_c, 0, 70, 0
2, 40425, End_track
3, 0, Start_track
3, 0, MIDI_port, 0
3, 0, Program_c, 1, 48
3, 0, Control_c, 1, 7, 110
3, 0, Control_c, 1, 10, 70
3, 32, Control_c, 1, 10, 69
3, 56, Control_c, 1, 7, 109
3, 120, Program_c, 1, 53
3, 120, Note_on_c, 1, 65, 90
3, 120, Note_on_c, 1, 70, 90
3, 345, Note_on_c, 1, 70, 0
3, 345, Note_on_c, 1, 65, 0
3, 360, Note_on_c, 1, 58, 90
3, 360, Note_on_c, 1, 65, 90
3, 465, Note_on_c, 1, 65, 0
3, 585, Note_on_c, 1, 58, 0
3, 840, Note_on_c, 1, 65, 90
3, 1065, Note_on_c, 1, 65, 0
3, 1080, Note_on_c, 1, 58, 90
3, 1080, Note_on_c, 1, 62, 90
3, 1080, Note_on_c, 1, 65, 90
3, 1185, Note_on_c, 1, 65, 0
3, 1185, Note_on_c, 1, 62, 0
3, 1305, Note_on_c, 1, 58, 0
3, 1560, Note_on_c, 1, 63, 90
3, 1785, Note_on_c, 1, 63, 0
3, 1800, Note_on_c, 1, 62, 90
3, 2025, Note_on_c, 1, 62, 0
3, 2040, Note_on_c, 1, 60, 90
3, 2265, Note_on_c, 1, 60, 0
3, 2280, Note_on_c, 1, 60, 90
3, 2505, Note_on_c, 1, 60, 0
3, 2520, Note_on_c, 1, 53, 90
3, 2520, Note_on_c, 1, 58, 90
3, 2745, Note_on_c, 1, 58, 0
3, 2745, Note_on_c, 1, 53, 0
3, 3000, Note_on_c, 1, 60, 90
3, 3225, Note_on_c, 1, 60, 0
3, 3240, Note_on_c, 1, 55, 90
3, 3465, Note_on_c, 1, 55, 0
3, 3720, Note_on_c, 1, 60, 90
3, 3945, Note_on_c, 1, 60, 0
3, 3960, Note_on_c, 1, 57, 90
3, 4185, Note_on_c, 1, 57, 0
3, 4440, Note_on_c, 1, 62, 90
3, 4665, Note_on_c, 1, 62, 0
3, 4680, Note_on_c, 1, 55, 90
3, 4905, Note_on_c, 1, 55, 0
3, 5160, Note_on_c, 1, 60, 90
3, 5385, Note_on_c, 1, 60, 0
3, 5400, Note_on_c, 1, 52, 90
3, 5625, Note_on_c, 1, 52, 0
3, 8280, Note_on_c, 1, 57, 90
3, 8280, Note_on_c, 1, 60, 90
3, 8685, Note_on_c, 1, 60, 0
3, 8685, Note_on_c, 1, 57, 0
3, 8760, Program_c, 1, 48
3, 8760, Note_on_c, 1, 65, 90
3, 8760, Note_on_c, 1, 70, 90
3, 8985, Note_on_c, 1, 70, 0
3, 8985, Note_on_c, 1, 65, 0
3, 9000, Note_on_c, 1, 58, 90
3, 9000, Note_on_c, 1, 65, 90
3, 9105, Note_on_c, 1, 65, 0
3, 9225, Note_on_c, 1, 58, 0
3, 9480, Note_on_c, 1, 65, 90
3, 9705, Note_on_c, 1, 65, 0
3, 9720, Note_on_c, 1, 58, 90
3, 9720, Note_on_c, 1, 62, 90
3, 9720, Note_on_c, 1, 65, 90
3, 9825, Note_on_c, 1, 65, 0
3, 9825, Note_on_c, 1, 62, 0
3, 9945, Note_on_c, 1, 58, 0
3, 10200, Note_on_c, 1, 63, 90
3, 10425, Note_on_c, 1, 63, 0
3, 10440, Note_on_c, 1, 62, 90
3, 10665, Note_on_c, 1, 62, 0
3, 10680, Note_on_c, 1, 60, 90
3, 10905, Note_on_c, 1, 60, 0
3, 10920, Note_on_c, 1, 60, 90
3, 11145, Note_on_c, 1, 60, 0
3, 11160, Note_on_c, 1, 53, 90
3, 11160, Note_on_c, 1, 58, 90
3, 11385, Note_on_c, 1, 58, 0
3, 11385, Note_on_c, 1, 53, 0
3, 11640, Note_on_c, 1, 60, 90
3, 11865, Note_on_c, 1, 60, 0
3, 11880, Note_on_c, 1, 55, 90
3, 12105, Note_on_c, 1, 55, 0
3, 12360, Note_on_c, 1, 60, 90
3, 12585, Note_on_c, 1, 60, 0
3, 12600, Note_on_c, 1, 57, 90
3, 12825, Note_on_c, 1, 57, 0
3, 13080, Note_on_c, 1, 62, 90
3, 13305, Note_on_c, 1, 62, 0
3, 13320, Note_on_c, 1, 55, 90
3, 13545, Note_on_c, 1, 55, 0
3, 13800, Note_on_c, 1, 60, 90
3, 14025, Note_on_c, 1, 60, 0
3, 14040, Note_on_c, 1, 52, 90
3, 14265, Note_on_c, 1, 52, 0
3, 16920, Note_on_c, 1, 57, 90
3, 16920, Note_on_c, 1, 60, 90
3, 17325, Note_on_c, 1, 60, 0
3, 17325, Note_on_c, 1, 57, 0
3, 17400, Program_c, 1, 53
3, 17400, Note_on_c, 1, 57, 90
3, 17400, Note_on_c, 1, 60, 90
3, 17400, Note_on_c, 1, 65, 90
3, 17400, Note_on_c, 1, 69, 90
3, 17625, Note_on_c, 1, 69, 0
3, 17625, Note_on_c, 1, 57, 0
3, 17625, Note_on_c, 1, 60, 0
3, 17625, Note_on_c, 1, 65, 0
3, 17640, Note_on_c, 1, 53, 90
3, 17640, Note_on_c, 1, 65, 90
3, 17640, Note_on_c, 1, 69, 90
3, 17745, Note_on_c, 1, 69, 0
3, 17745, Note_on_c, 1, 65, 0
3, 17745, Note_on_c, 1, 53, 0
3, 18120, Note_on_c, 1, 57, 90
3, 18345, Note_on_c, 1, 57, 0
3, 18360, Note_on_c, 1, 51, 90
3, 18360, Note_on_c, 1, 69, 90
3, 18360, Note_on_c, 1, 72, 90
3, 18465, Note_on_c, 1, 72, 0
3, 18465, Note_on_c, 1, 69, 0
3, 18585, Note_on_c, 1, 51, 0
3, 19800, Note_on_c, 1, 58, 90
3, 19800, Note_on_c, 1, 65, 90
3, 19800, Note_on_c, 1, 70, 90
3, 19905, Note_on_c, 1, 70, 0
3, 19905, Note_on_c, 1, 65, 0
3, 20025, Note_on_c, 1, 58, 0
3, 20280, Note_on_c, 1, 62, 90
3, 20505, Note_on_c, 1, 62, 0
3, 20520, Note_on_c, 1, 62, 90
3, 20745, Note_on_c, 1, 62, 0
3, 21000, Note_on_c, 1, 63, 90
3, 21225, Note_on_c, 1, 63, 0
3, 21240, Note_on_c, 1, 63, 90
3, 21465, Note_on_c, 1, 63, 0
3, 21720, Note_on_c, 1, 57, 90
3, 21945, Note_on_c, 1, 57, 0
3, 21960, Note_on_c, 1, 55, 90
3, 22185, Note_on_c, 1, 55, 0
3, 22200, Note_on_c, 1, 55, 90
3, 22665, Note_on_c, 1, 55, 0
3, 22680, Note_on_c, 1, 48, 90
3, 22680, Note_on_c, 1, 60, 90
3, 22680, Note_on_c, 1, 63, 90
3, 22680, Note_on_c, 1, 67, 90
3, 22785, Note_on_c, 1, 67, 0
3, 22785, Note_on_c, 1, 63, 0
3, 22785, Note_on_c, 1, 60, 0
3, 22905, Note_on_c, 1, 48, 0
3, 28440, Note_on_c, 1, 62, 90
3, 28440, Note_on_c, 1, 65, 90
3, 28845, Note_on_c, 1, 65, 0
3, 28845, Note_on_c, 1, 62, 0
3, 28920, Program_c, 1, 48
3, 28920, Note_on_c, 1, 57, 90
3, 28920, Note_on_c, 1, 60, 90
3, 28920, Note_on_c, 1, 65, 90
3, 28920, Note_on_c, 1, 69, 90
3, 29145, Note_on_c, 1, 69, 0
3, 29145, Note_on_c, 1, 57, 0
3, 29145, Note_on_c, 1, 60, 0
3, 29145, Note_on_c, 1, 65, 0
3, 29160, Note_on_c, 1, 53, 90
3, 29160, Note_on_c, 1, 65, 90
3, 29160, Note_on_c, 1, 69, 90
3, 29265, Note_on_c, 1, 69, 0
3, 29265, Note_on_c, 1, 65, 0
3, 29265, Note_on_c, 1, 53, 0
3, 29640, Note_on_c, 1, 57, 90
3, 29865, Note_on_c, 1, 57, 0
3, 29880, Note_on_c, 1, 51, 90
3, 29880, Note_on_c, 1, 69, 90
3, 29880, Note_on_c, 1, 72, 90
3, 29985, Note_on_c, 1, 72, 0
3, 29985, Note_on_c, 1, 69, 0
3, 30105, Note_on_c, 1, 51, 0
3, 31320, Note_on_c, 1, 58, 90
3, 31320, Note_on_c, 1, 65, 90
3, 31320, Note_on_c, 1, 70, 90
3, 31425, Note_on_c, 1, 70, 0
3, 31425, Note_on_c, 1, 65, 0
3, 31545, Note_on_c, 1, 58, 0
3, 31800, Note_on_c, 1, 62, 90
3, 32025, Note_on_c, 1, 62, 0
3, 32040, Note_on_c, 1, 62, 90
3, 32265, Note_on_c, 1, 62, 0
3, 32520, Note_on_c, 1, 63, 90
3, 32745, Note_on_c, 1, 63, 0
3, 32760, Note_on_c, 1, 63, 90
3, 32985, Note_on_c, 1, 63, 0
3, 33240, Note_on_c, 1, 57, 90
3, 33465, Note_on_c, 1, 57, 0
3, 33480, Note_on_c, 1, 55, 90
3, 33705, Note_on_c, 1, 55, 0
3, 33720, Note_on_c, 1, 55, 90
3, 34185, Note_on_c, 1, 55, 0
3, 34200, Note_on_c, 1, 48, 90
3, 34200, Note_on_c, 1, 60, 90
3, 34200, Note_on_c, 1, 63, 90
3, 34200, Note_on_c, 1, 67, 90
3, 34305, Note_on_c, 1, 67, 0
3, 34305, Note_on_c, 1, 63, 0
3, 34305, Note_on_c, 1, 60, 0
3, 34425, Note_on_c, 1, 48, 0
3, 39960, Note_on_c, 1, 62, 90
3, 39960, Note_on_c, 1, 65, 90
3, 40425, Note_on_c, 1, 65, 0
3, 40425, Note_on_c, 1, 62, 0
3, 40425, End_track
4, 0, Start_track
4, 0, MIDI_port, 0
4, 0, Program_c, 2, 70
4, 0, Control_c, 2, 7, 110
4, 0, Control_c, 2, 10, 55
4, 36, Control_c, 2, 7, 89
4, 40, Control_c, 2, 10, 54
4, 120, Program_c, 2, 43
4, 120, Note_on_c, 2, 58, 80
4, 345, Note_on_c, 2, 58, 0
4, 360, Note_on_c, 2, 46, 80
4, 585, Note_on_c, 2, 46, 0
4, 840, Note_on_c, 2, 58, 80
4, 1065, Note_on_c, 2, 58, 0
4, 1080, Note_on_c, 2, 46, 80
4, 1305, Note_on_c, 2, 46, 0
4, 1560, Note_on_c, 2, 58, 80
4, 1785, Note_on_c, 2, 58, 0
4, 1800, Note_on_c, 2, 58, 80
4, 2025, Note_on_c, 2, 58, 0
4, 2040, Note_on_c, 2, 58, 80
4, 2145, Note_on_c, 2, 58, 0
4, 2160, Note_on_c, 2, 57, 80
4, 2265, Note_on_c, 2, 57, 0
4, 2280, Note_on_c, 2, 58, 80
4, 2385, Note_on_c, 2, 58, 0
4, 2400, Note_on_c, 2, 50, 80
4, 2505, Note_on_c, 2, 50, 0
4, 2520, Note_on_c, 2, 46, 80
4, 2745, Note_on_c, 2, 46, 0
4, 3000, Note_on_c, 2, 58, 80
4, 3225, Note_on_c, 2, 58, 0
4, 3240, Note_on_c, 2, 46, 80
4, 3465, Note_on_c, 2, 46, 0
4, 3720, Note_on_c, 2, 57, 80
4, 3945, Note_on_c, 2, 57, 0
4, 3960, Note_on_c, 2, 45, 80
4, 4185, Note_on_c, 2, 45, 0
4, 4440, Note_on_c, 2, 55, 89
4, 4665, Note_on_c, 2, 55, 0
4, 4680, Note_on_c, 2, 43, 91
4, 4905, Note_on_c, 2, 43, 0
4, 4920, Note_on_c, 2, 53, 91
4, 5145, Note_on_c, 2, 53, 0
4, 5160, Note_on_c, 2, 52, 92
4, 5385, Note_on_c, 2, 52, 0
4, 5400, Note_on_c, 2, 40, 92
4, 5625, Note_on_c, 2, 40, 0
4, 5880, Note_on_c, 2, 53, 94
4, 6105, Note_on_c, 2, 53, 0
4, 6120, Note_on_c, 2, 41, 92
4, 6345, Note_on_c, 2, 41, 0
4, 6360, Note_on_c, 2, 52, 93
4, 6585, Note_on_c, 2, 52, 0
4, 6600, Note_on_c, 2, 50, 93
4, 6825, Note_on_c, 2, 50, 0
4, 6840, Note_on_c, 2, 38, 92
4, 7065, Note_on_c, 2, 38, 0
4, 7080, Note_on_c, 2, 48, 91
4, 7305, Note_on_c, 2, 48, 0
4, 7320, Note_on_c, 2, 46, 91
4, 7545, Note_on_c, 2, 46, 0
4, 7560, Note_on_c, 2, 48, 92
4, 7785, Note_on_c, 2, 48, 0
4, 7800, Note_on_c, 2, 36, 92
4, 8025, Note_on_c, 2, 36, 0
4, 8040, Note_on_c, 2, 41, 92
4, 8199, Note_on_c, 2, 45, 93
4, 8235, Note_on_c, 2, 45, 0
4, 8239, Note_on_c, 2, 48, 92
4, 8274, Note_on_c, 2, 48, 0
4, 8280, Note_on_c, 2, 53, 91
4, 8678, Control_c, 2, 7, 109
4, 8685, Note_on_c, 2, 53, 0
4, 8685, Note_on_c, 2, 41, 0
4, 8760, Program_c, 2, 70
4, 8760, Note_on_c, 2, 58, 80
4, 8985, Note_on_c, 2, 58, 0
4, 9000, Note_on_c, 2, 46, 80
4, 9225, Note_on_c, 2, 46, 0
4, 9480, Note_on_c, 2, 58, 80
4, 9705, Note_on_c, 2, 58, 0
4, 9720, Note_on_c, 2, 46, 80
4, 9945, Note_on_c, 2, 46, 0
4, 10200, Note_on_c, 2, 58, 80
4, 10425, Note_on_c, 2, 58, 0
4, 10440, Note_on_c, 2, 58, 80
4, 10665, Note_on_c, 2, 58, 0
4, 10680, Note_on_c, 2, 58, 80
4, 10785, Note_on_c, 2, 58, 0
4, 10800, Note_on_c, 2, 57, 80
4, 10905, Note_on_c, 2, 57, 0
4, 10920, Note_on_c, 2, 58, 80
4, 11025, Note_on_c, 2, 58, 0
4, 11040, Note_on_c, 2, 50, 80
4, 11145, Note_on_c, 2, 50, 0
4, 11160, Note_on_c, 2, 46, 80
4, 11385, Note_on_c, 2, 46, 0
4, 11640, Note_on_c, 2, 58, 80
4, 11865, Note_on_c, 2, 58, 0
4, 11880, Note_on_c, 2, 46, 80
4, 12105, Note_on_c, 2, 46, 0
4, 12360, Note_on_c, 2, 57, 80
4, 12585, Note_on_c, 2, 57, 0
4, 12600, Note_on_c, 2, 45, 80
4, 12825, Note_on_c, 2, 45, 0
4, 13080, Note_on_c, 2, 55, 80
4, 13305, Note_on_c, 2, 55, 0
4, 13320, Note_on_c, 2, 43, 80
4, 13545, Note_on_c, 2, 43, 0
4, 13560, Note_on_c, 2, 53, 80
4, 13785, Note_on_c, 2, 53, 0
4, 13800, Note_on_c, 2, 52, 80
4, 14025, Note_on_c, 2, 52, 0
4, 14040, Note_on_c, 2, 40, 80
4, 14265, Note_on_c, 2, 40, 0
4, 14520, Note_on_c, 2, 53, 93
4, 14745, Note_on_c, 2, 53, 0
4, 14760, Note_on_c, 2, 41, 94
4, 14985, Note_on_c, 2, 41, 0
4, 15000, Note_on_c, 2, 52, 95
4, 15225, Note_on_c, 2, 52, 0
4, 15240, Note_on_c, 2, 50, 94
4, 15465, Note_on_c, 2, 50, 0
4, 15480, Note_on_c, 2, 38, 94
4, 15705, Note_on_c, 2, 38, 0
4, 15720, Note_on_c, 2, 48, 93
4, 15945, Note_on_c, 2, 48, 0
4, 15960, Note_on_c, 2, 46, 92
4, 16185, Note_on_c, 2, 46, 0
4, 16200, Note_on_c, 2, 48, 92
4, 16425, Note_on_c, 2, 48, 0
4, 16440, Note_on_c, 2, 36, 93
4, 16665, Note_on_c, 2, 36, 0
4, 16680, Note_on_c, 2, 41, 95
4, 16839, Note_on_c, 2, 45, 94
4, 16875, Note_on_c, 2, 45, 0
4, 16879, Note_on_c, 2, 48, 94
4, 16914, Note_on_c, 2, 48, 0
4, 16920, Note_on_c, 2, 53, 94
4, 17325, Note_on_c, 2, 53, 0
4, 17325, Note_on_c, 2, 41, 0
4, 17342, Control_c, 2, 7, 89
4, 17400, Program_c, 2, 43
4, 17400, Note_on_c, 2, 53, 80
4, 17625, Note_on_c, 2, 53, 0
4, 17640, Note_on_c, 2, 41, 80
4, 17865, Note_on_c, 2, 41, 0
4, 18120, Note_on_c, 2, 51, 80
4, 18345, Note_on_c, 2, 51, 0
4, 18360, Note_on_c, 2, 39, 80
4, 18585, Note_on_c, 2, 39, 0
4, 18840, Note_on_c, 2, 50, 80
4, 19065, Note_on_c, 2, 50, 0
4, 19080, Note_on_c, 2, 48, 80
4, 19305, Note_on_c, 2, 48, 0
4, 19320, Note_on_c, 2, 53, 80
4, 19545, Note_on_c, 2, 53, 0
4, 19560, Note_on_c, 2, 58, 80
4, 19785, Note_on_c, 2, 58, 0
4, 19800, Note_on_c, 2, 46, 80
4, 20025, Note_on_c, 2, 46, 0
4, 20280, Note_on_c, 2, 59, 80
4, 20505, Note_on_c, 2, 59, 0
4, 20520, Note_on_c, 2, 55, 80
4, 20745, Note_on_c, 2, 55, 0
4, 21000, Note_on_c, 2, 48, 80
4, 21225, Note_on_c, 2, 48, 0
4, 21240, Note_on_c, 2, 56, 80
4, 21465, Note_on_c, 2, 56, 0
4, 21720, Note_on_c, 2, 54, 80
4, 21945, Note_on_c, 2, 54, 0
4, 21960, Note_on_c, 2, 55, 80
4, 22185, Note_on_c, 2, 55, 0
4, 22200, Note_on_c, 2, 43, 80
4, 22425, Note_on_c, 2, 43, 0
4, 22440, Note_on_c, 2, 48, 80
4, 22665, Note_on_c, 2, 48, 0
4, 22680, Note_on_c, 2, 36, 80
4, 22905, Note_on_c, 2, 36, 0
4, 23160, Note_on_c, 2, 48, 92
4, 23212, Note_on_c, 2, 48, 0
4, 23220, Note_on_c, 2, 50, 94
4, 23272, Note_on_c, 2, 50, 0
4, 23280, Note_on_c, 2, 51, 94
4, 23332, Note_on_c, 2, 51, 0
4, 23340, Note_on_c, 2, 55, 97
4, 23392, Note_on_c, 2, 55, 0
4, 23400, Note_on_c, 2, 60, 94
4, 23452, Note_on_c, 2, 60, 0
4, 23460, Note_on_c, 2, 55, 92
4, 23512, Note_on_c, 2, 55, 0
4, 23520, Note_on_c, 2, 53, 93
4, 23572, Note_on_c, 2, 53, 0
4, 23580, Note_on_c, 2, 51, 92
4, 23632, Note_on_c, 2, 51, 0
4, 23640, Note_on_c, 2, 50, 91
4, 23692, Note_on_c, 2, 50, 0
4, 23700, Note_on_c, 2, 48, 90
4, 23752, Note_on_c, 2, 48, 0
4, 23760, Note_on_c, 2, 46, 90
4, 23812, Note_on_c, 2, 46, 0
4, 23820, Note_on_c, 2, 55, 90
4, 23872, Note_on_c, 2, 55, 0
4, 23880, Note_on_c, 2, 45, 92
4, 23932, Note_on_c, 2, 45, 0
4, 23940, Note_on_c, 2, 46, 94
4, 23992, Note_on_c, 2, 46, 0
4, 24000, Note_on_c, 2, 48, 95
4, 24052, Note_on_c, 2, 48, 0
4, 24060, Note_on_c, 2, 53, 97
4, 24112, Note_on_c, 2, 53, 0
4, 24120, Note_on_c, 2, 57, 95
4, 24172, Note_on_c, 2, 57, 0
4, 24180, Note_on_c, 2, 60, 95
4, 24232, Note_on_c, 2, 60, 0
4, 24240, Note_on_c, 2, 58, 92
4, 24292, Note_on_c, 2, 58, 0
4, 24300, Note_on_c, 2, 57, 92
4, 24352, Note_on_c, 2, 57, 0
4, 24360, Note_on_c, 2, 55, 93
4, 24412, Note_on_c, 2, 55, 0
4, 24420, Note_on_c, 2, 53, 97
4, 24472, Note_on_c, 2, 53, 0
4, 24480, Note_on_c, 2, 65, 99
4, 24532, Note_on_c, 2, 65, 0
4, 24540, Note_on_c, 2, 57, 94
4, 24592, Note_on_c, 2, 57, 0
4, 24600, Note_on_c, 2, 58, 89
4, 24765, Note_on_c, 2, 58, 0
4, 24780, Note_on_c, 2, 67, 80
4, 24832, Note_on_c, 2, 67, 0
4, 24840, Note_on_c, 2, 64, 80
4, 25005, Note_on_c, 2, 64, 0
4, 25020, Note_on_c, 2, 65, 80
4, 25072, Note_on_c, 2, 65, 0
4, 25080, Note_on_c, 2, 55, 80
4, 25245, Note_on_c, 2, 55, 0
4, 25260, Note_on_c, 2, 64, 80
4, 25312, Note_on_c, 2, 64, 0
4, 25320, Note_on_c, 2, 53, 80
4, 25725, Note_on_c, 2, 53, 0
4, 25740, Note_on_c, 2, 55, 103
4, 25757, Note_on_c, 2, 55, 0
4, 25759, Note_on_c, 2, 53, 103
4, 25777, Note_on_c, 2, 53, 0
4, 25779, Note_on_c, 2, 51, 105
4, 25797, Note_on_c, 2, 51, 0
4, 25800, Note_on_c, 2, 51, 105
4, 25813, Note_on_c, 2, 51, 0
4, 25815, Note_on_c, 2, 53, 106
4, 25828, Note_on_c, 2, 53, 0
4, 25830, Note_on_c, 2, 51, 107
4, 25843, Note_on_c, 2, 51, 0
4, 25845, Note_on_c, 2, 53, 107
4, 25851, Note_on_c, 2, 53, 0
4, 25852, Note_on_c, 2, 51, 107
4, 25859, Note_on_c, 2, 51, 0
4, 25860, Note_on_c, 2, 53, 108
4, 25866, Note_on_c, 2, 53, 0
4, 25867, Note_on_c, 2, 51, 108
4, 25874, Note_on_c, 2, 51, 0
4, 25875, Note_on_c, 2, 53, 108
4, 25881, Note_on_c, 2, 53, 0
4, 25882, Note_on_c, 2, 51, 107
4, 25889, Note_on_c, 2, 51, 0
4, 25890, Note_on_c, 2, 53, 107
4, 25896, Note_on_c, 2, 53, 0
4, 25897, Note_on_c, 2, 51, 107
4, 25904, Note_on_c, 2, 51, 0
4, 25905, Note_on_c, 2, 53, 108
4, 25911, Note_on_c, 2, 53, 0
4, 25912, Note_on_c, 2, 51, 108
4, 25919, Note_on_c, 2, 51, 0
4, 25920, Note_on_c, 2, 53, 109
4, 25926, Note_on_c, 2, 53, 0
4, 25927, Note_on_c, 2, 51, 109
4, 25934, Note_on_c, 2, 51, 0
4, 25935, Note_on_c, 2, 53, 108
4, 25941, Note_on_c, 2, 53, 0
4, 25942, Note_on_c, 2, 51, 106
4, 25978, Note_on_c, 2, 51, 0
4, 25980, Note_on_c, 2, 50, 106
4, 26032, Note_on_c, 2, 50, 0
4, 26040, Note_on_c, 2, 50, 102
4, 26265, Note_on_c, 2, 50, 0
4, 26280, Note_on_c, 2, 38, 100
4, 26445, Note_on_c, 2, 38, 0
4, 26460, Note_on_c, 2, 50, 93
4, 26512, Note_on_c, 2, 50, 0
4, 26520, Note_on_c, 2, 50, 91
4, 26533, Note_on_c, 2, 50, 0
4, 26535, Note_on_c, 2, 48, 93
4, 26548, Note_on_c, 2, 48, 0
4, 26550, Note_on_c, 2, 50, 94
4, 26556, Note_on_c, 2, 50, 0
4, 26557, Note_on_c, 2, 48, 94
4, 26564, Note_on_c, 2, 48, 0
4, 26565, Note_on_c, 2, 50, 93
4, 26571, Note_on_c, 2, 50, 0
4, 26572, Note_on_c, 2, 48, 93
4, 26579, Note_on_c, 2, 48, 0
4, 26580, Note_on_c, 2, 50, 93
4, 26586, Note_on_c, 2, 50, 0
4, 26587, Note_on_c, 2, 48, 93
4, 26594, Note_on_c, 2, 48, 0
4, 26595, Note_on_c, 2, 50, 93
4, 26601, Note_on_c, 2, 50, 0
4, 26602, Note_on_c, 2, 48, 92
4, 26609, Note_on_c, 2, 48, 0
4, 26610, Note_on_c, 2, 50, 92
4, 26616, Note_on_c, 2, 50, 0
4, 26617, Note_on_c, 2, 48, 92
4, 26624, Note_on_c, 2, 48, 0
4, 26625, Note_on_c, 2, 50, 92
4, 26631, Note_on_c, 2, 50, 0
4, 26632, Note_on_c, 2, 48, 91
4, 26639, Note_on_c, 2, 48, 0
4, 26640, Note_on_c, 2, 50, 92
4, 26646, Note_on_c, 2, 50, 0
4, 26647, Note_on_c, 2, 48, 92
4, 26654, Note_on_c, 2, 48, 0
4, 26655, Note_on_c, 2, 50, 92
4, 26661, Note_on_c, 2, 50, 0
4, 26662, Note_on_c, 2, 48, 92
4, 26698, Note_on_c, 2, 48, 0
4, 26700, Note_on_c, 2, 46, 93
4, 26752, Note_on_c, 2, 46, 0
4, 26760, Note_on_c, 2, 51, 93
4, 26985, Note_on_c, 2, 51, 0
4, 27000, Note_on_c, 2, 50, 102
4, 27026, Note_on_c, 2, 50, 0
4, 27030, Note_on_c, 2, 52, 102
4, 27056, Note_on_c, 2, 52, 0
4, 27060, Note_on_c, 2, 53, 103
4, 27066, Note_on_c, 2, 53, 0
4, 27067, Note_on_c, 2, 52, 103
4, 27074, Note_on_c, 2, 52, 0
4, 27075, Note_on_c, 2, 53, 104
4, 27081, Note_on_c, 2, 53, 0
4, 27082, Note_on_c, 2, 52, 105
4, 27089, Note_on_c, 2, 52, 0
4, 27090, Note_on_c, 2, 53, 105
4, 27096, Note_on_c, 2, 53, 0
4, 27097, Note_on_c, 2, 52, 106
4, 27104, Note_on_c, 2, 52, 0
4, 27105, Note_on_c, 2, 53, 107
4, 27111, Note_on_c, 2, 53, 0
4, 27112, Note_on_c, 2, 52, 108
4, 27119, Note_on_c, 2, 52, 0
4, 27120, Note_on_c, 2, 53, 108
4, 27126, Note_on_c, 2, 53, 0
4, 27127, Note_on_c, 2, 52, 108
4, 27134, Note_on_c, 2, 52, 0
4, 27135, Note_on_c, 2, 53, 108
4, 27141, Note_on_c, 2, 53, 0
4, 27142, Note_on_c, 2, 52, 108
4, 27149, Note_on_c, 2, 52, 0
4, 27150, Note_on_c, 2, 53, 111
4, 27156, Note_on_c, 2, 53, 0
4, 27157, Note_on_c, 2, 52, 111
4, 27164, Note_on_c, 2, 52, 0
4, 27165, Note_on_c, 2, 53, 113
4, 27171, Note_on_c, 2, 53, 0
4, 27172, Note_on_c, 2, 52, 113
4, 27179, Note_on_c, 2, 52, 0
4, 27180, Note_on_c, 2, 53, 114
4, 27186, Note_on_c, 2, 53, 0
4, 27187, Note_on_c, 2, 52, 114
4, 27194, Note_on_c, 2, 52, 0
4, 27195, Note_on_c, 2, 53, 113
4, 27201, Note_on_c, 2, 53, 0
4, 27202, Note_on_c, 2, 52, 112
4, 27209, Note_on_c, 2, 52, 0
4, 27210, Note_on_c, 2, 53, 112
4, 27216, Note_on_c, 2, 53, 0
4, 27217, Note_on_c, 2, 52, 112
4, 27224, Note_on_c, 2, 52, 0
4, 27225, Note_on_c, 2, 53, 113
4, 27231, Note_on_c, 2, 53, 0
4, 27232, Note_on_c, 2, 52, 114
4, 27239, Note_on_c, 2, 52, 0
4, 27240, Note_on_c, 2, 53, 114
4, 27246, Note_on_c, 2, 53, 0
4, 27247, Note_on_c, 2, 52, 114
4, 27254, Note_on_c, 2, 52, 0
4, 27255, Note_on_c, 2, 53, 111
4, 27261, Note_on_c, 2, 53, 0
4, 27262, Note_on_c, 2, 52, 111
4, 27269, Note_on_c, 2, 52, 0
4, 27270, Note_on_c, 2, 53, 111
4, 27276, Note_on_c, 2, 53, 0
4, 27277, Note_on_c, 2, 52, 111
4, 27284, Note_on_c, 2, 52, 0
4, 27285, Note_on_c, 2, 53, 111
4, 27291, Note_on_c, 2, 53, 0
4, 27292, Note_on_c, 2, 52, 112
4, 27299, Note_on_c, 2, 52, 0
4, 27300, Note_on_c, 2, 53, 112
4, 27306, Note_on_c, 2, 53, 0
4, 27307, Note_on_c, 2, 52, 112
4, 27314, Note_on_c, 2, 52, 0
4, 27315, Note_on_c, 2, 53, 111
4, 27321, Note_on_c, 2, 53, 0
4, 27322, Note_on_c, 2, 52, 111
4, 27395, Note_on_c, 2, 52, 0
4, 27399, Note_on_c, 2, 50, 113
4, 27435, Note_on_c, 2, 50, 0
4, 27439, Note_on_c, 2, 52, 114
4, 27474, Note_on_c, 2, 52, 0
4, 27480, Note_on_c, 2, 53, 111
4, 27705, Note_on_c, 2, 53, 0
4, 27720, Note_on_c, 2, 51, 91
4, 27945, Note_on_c, 2, 51, 0
4, 27960, Note_on_c, 2, 53, 94
4, 28185, Note_on_c, 2, 53, 0
4, 28200, Note_on_c, 2, 46, 94
4, 28359, Note_on_c, 2, 50, 94
4, 28395, Note_on_c, 2, 50, 0
4, 28399, Note_on_c, 2, 53, 94
4, 28434, Note_on_c, 2, 53, 0
4, 28434, Note_on_c, 2, 46, 0
4, 28440, Note_on_c, 2, 58, 94
4, 28826, Control_c, 2, 7, 109
4, 28845, Note_on_c, 2, 58, 0
4, 28920, Program_c, 2, 70
4, 28920, Note_on_c, 2, 53, 80
4, 29145, Note_on_c, 2, 53, 0
4, 29160, Note_on_c, 2, 41, 80
4, 29385, Note_on_c, 2, 41, 0
4, 29640, Note_on_c, 2, 51, 80
4, 29865, Note_on_c, 2, 51, 0
4, 29880, Note_on_c, 2, 39, 80
4, 30105, Note_on_c, 2, 39, 0
4, 30360, Note_on_c, 2, 50, 80
4, 30585, Note_on_c, 2, 50, 0
4, 30600, Note_on_c, 2, 48, 80
4, 30825, Note_on_c, 2, 48, 0
4, 30840, Note_on_c, 2, 53, 80
4, 31065, Note_on_c, 2, 53, 0
4, 31080, Note_on_c, 2, 58, 80
4, 31305, Note_on_c, 2, 58, 0
4, 31320, Note_on_c, 2, 46, 80
4, 31545, Note_on_c, 2, 46, 0
4, 31800, Note_on_c, 2, 59, 80
4, 32025, Note_on_c, 2, 59, 0
4, 32040, Note_on_c, 2, 55, 80
4, 32265, Note_on_c, 2, 55, 0
4, 32520, Note_on_c, 2, 48, 80
4, 32745, Note_on_c, 2, 48, 0
4, 32760, Note_on_c, 2, 56, 80
4, 32985, Note_on_c, 2, 56, 0
4, 33240, Note_on_c, 2, 54, 80
4, 33465, Note_on_c, 2, 54, 0
4, 33480, Note_on_c, 2, 55, 80
4, 33705, Note_on_c, 2, 55, 0
4, 33720, Note_on_c, 2, 43, 80
4, 33945, Note_on_c, 2, 43, 0
4, 33960, Note_on_c, 2, 48, 80
4, 34185, Note_on_c, 2, 48, 0
4, 34200, Note_on_c, 2, 36, 80
4, 34425, Note_on_c, 2, 36, 0
4, 34680, Note_on_c, 2, 48, 91
4, 34732, Note_on_c, 2, 48, 0
4, 34740, Note_on_c, 2, 50, 94
4, 34792, Note_on_c, 2, 50, 0
4, 34800, Note_on_c, 2, 51, 98
4, 34852, Note_on_c, 2, 51, 0
4, 34860, Note_on_c, 2, 55, 100
4, 34912, Note_on_c, 2, 55, 0
4, 34920, Note_on_c, 2, 60, 105
4, 34972, Note_on_c, 2, 60, 0
4, 34980, Note_on_c, 2, 55, 102
4, 35032, Note_on_c, 2, 55, 0
4, 35040, Note_on_c, 2, 53, 100
4, 35092, Note_on_c, 2, 53, 0
4, 35100, Note_on_c, 2, 51, 101
4, 35152, Note_on_c, 2, 51, 0
4, 35160, Note_on_c, 2, 50, 101
4, 35212, Note_on_c, 2, 50, 0
4, 35220, Note_on_c, 2, 48, 95
4, 35272, Note_on_c, 2, 48, 0
4, 35280, Note_on_c, 2, 46, 94
4, 35332, Note_on_c, 2, 46, 0
4, 35340, Note_on_c, 2, 55, 108
4, 35392, Note_on_c, 2, 55, 0
4, 35400, Note_on_c, 2, 45, 98
4, 35452, Note_on_c, 2, 45, 0
4, 35460, Note_on_c, 2, 46, 94
4, 35512, Note_on_c, 2, 46, 0
4, 35520, Note_on_c, 2, 48, 93
4, 35572, Note_on_c, 2, 48, 0
4, 35580, Note_on_c, 2, 53, 96
4, 35632, Note_on_c, 2, 53, 0
4, 35640, Note_on_c, 2, 57, 98
4, 35692, Note_on_c, 2, 57, 0
4, 35700, Note_on_c, 2, 60, 106
4, 35752, Note_on_c, 2, 60, 0
4, 35760, Note_on_c, 2, 58, 101
4, 35812, Note_on_c, 2, 58, 0
4, 35820, Note_on_c, 2, 57, 99
4, 35872, Note_on_c, 2, 57, 0
4, 35880, Note_on_c, 2, 55, 96
4, 35932, Note_on_c, 2, 55, 0
4, 35940, Note_on_c, 2, 53, 93
4, 35992, Note_on_c, 2, 53, 0
4, 36000, Note_on_c, 2, 65, 102
4, 36052, Note_on_c, 2, 65, 0
4, 36060, Note_on_c, 2, 57, 93
4, 36112, Note_on_c, 2, 57, 0
4, 36120, Note_on_c, 2, 58, 94
4, 36285, Note_on_c, 2, 58, 0
4, 36300, Note_on_c, 2, 67, 80
4, 36352, Note_on_c, 2, 67, 0
4, 36360, Note_on_c, 2, 64, 80
4, 36525, Note_on_c, 2, 64, 0
4, 36540, Note_on_c, 2, 65, 80
4, 36592, Note_on_c, 2, 65, 0
4, 36600, Note_on_c, 2, 55, 80
4, 36765, Note_on_c, 2, 55, 0
4, 36780, Note_on_c, 2, 64, 80
4, 36832, Note_on_c, 2, 64, 0
4, 36840, Note_on_c, 2, 53, 80
4, 37245, Note_on_c, 2, 53, 0
4, 37260, Note_on_c, 2, 55, 91
4, 37277, Note_on_c, 2, 55, 0
4, 37279, Note_on_c, 2, 53, 93
4, 37297, Note_on_c, 2, 53, 0
4, 37299, Note_on_c, 2, 51, 93
4, 37317, Note_on_c, 2, 51, 0
4, 37320, Note_on_c, 2, 51, 93
4, 37333, Note_on_c, 2, 51, 0
4, 37335, Note_on_c, 2, 53, 95
4, 37348, Note_on_c, 2, 53, 0
4, 37350, Note_on_c, 2, 51, 96
4, 37363, Note_on_c, 2, 51, 0
4, 37365, Note_on_c, 2, 53, 96
4, 37371, Note_on_c, 2, 53, 0
4, 37372, Note_on_c, 2, 51, 96
4, 37379, Note_on_c, 2, 51, 0
4, 37380, Note_on_c, 2, 53, 96
4, 37386, Note_on_c, 2, 53, 0
4, 37387, Note_on_c, 2, 51, 95
4, 37394, Note_on_c, 2, 51, 0
4, 37395, Note_on_c, 2, 53, 94
4, 37401, Note_on_c, 2, 53, 0
4, 37402, Note_on_c, 2, 51, 94
4, 37409, Note_on_c, 2, 51, 0
4, 37410, Note_on_c, 2, 53, 94
4, 37416, Note_on_c, 2, 53, 0
4, 37417, Note_on_c, 2, 51, 95
4, 37424, Note_on_c, 2, 51, 0
4, 37425, Note_on_c, 2, 53, 95
4, 37431, Note_on_c, 2, 53, 0
4, 37432, Note_on_c, 2, 51, 96
4, 37439, Note_on_c, 2, 51, 0
4, 37440, Note_on_c, 2, 53, 96
4, 37446, Note_on_c, 2, 53, 0
4, 37447, Note_on_c, 2, 51, 96
4, 37454, Note_on_c, 2, 51, 0
4, 37455, Note_on_c, 2, 53, 96
4, 37461, Note_on_c, 2, 53, 0
4, 37462, Note_on_c, 2, 51, 96
4, 37498, Note_on_c, 2, 51, 0
4, 37500, Note_on_c, 2, 50, 96
4, 37552, Note_on_c, 2, 50, 0
4, 37560, Note_on_c, 2, 50, 94
4, 37785, Note_on_c, 2, 50, 0
4, 37800, Note_on_c, 2, 38, 94
4, 37965, Note_on_c, 2, 38, 0
4, 37980, Note_on_c, 2, 50, 99
4, 38032, Note_on_c, 2, 50, 0
4, 38040, Note_on_c, 2, 50, 100
4, 38053, Note_on_c, 2, 50, 0
4, 38055, Note_on_c, 2, 48, 100
4, 38068, Note_on_c, 2, 48, 0
4, 38070, Note_on_c, 2, 50, 99
4, 38076, Note_on_c, 2, 50, 0
4, 38077, Note_on_c, 2, 48, 98
4, 38084, Note_on_c, 2, 48, 0
4, 38085, Note_on_c, 2, 50, 99
4, 38091, Note_on_c, 2, 50, 0
4, 38092, Note_on_c, 2, 48, 99
4, 38099, Note_on_c, 2, 48, 0
4, 38100, Note_on_c, 2, 50, 100
4, 38106, Note_on_c, 2, 50, 0
4, 38107, Note_on_c, 2, 48, 100
4, 38114, Note_on_c, 2, 48, 0
4, 38115, Note_on_c, 2, 50, 101
4, 38121, Note_on_c, 2, 50, 0
4, 38122, Note_on_c, 2, 48, 102
4, 38129, Note_on_c, 2, 48, 0
4, 38130, Note_on_c, 2, 50, 102
4, 38136, Note_on_c, 2, 50, 0
4, 38137, Note_on_c, 2, 48, 101
4, 38144, Note_on_c, 2, 48, 0
4, 38145, Note_on_c, 2, 50, 101
4, 38151, Note_on_c, 2, 50, 0
4, 38152, Note_on_c, 2, 48, 100
4, 38159, Note_on_c, 2, 48, 0
4, 38160, Note_on_c, 2, 50, 99
4, 38166, Note_on_c, 2, 50, 0
4, 38167, Note_on_c, 2, 48, 99
4, 38174, Note_on_c, 2, 48, 0
4, 38175, Note_on_c, 2, 50, 99
4, 38181, Note_on_c, 2, 50, 0
4, 38182, Note_on_c, 2, 48, 99
4, 38218, Note_on_c, 2, 48, 0
4, 38220, Note_on_c, 2, 46, 97
4, 38272, Note_on_c, 2, 46, 0
4, 38280, Note_on_c, 2, 51, 100
4, 38505, Note_on_c, 2, 51, 0
4, 38520, Note_on_c, 2, 50, 96
4, 38546, Note_on_c, 2, 50, 0
4, 38550, Note_on_c, 2, 52, 96
4, 38576, Note_on_c, 2, 52, 0
4, 38580, Note_on_c, 2, 53, 95
4, 38586, Note_on_c, 2, 53, 0
4, 38587, Note_on_c, 2, 52, 95
4, 38594, Note_on_c, 2, 52, 0
4, 38595, Note_on_c, 2, 53, 95
4, 38601, Note_on_c, 2, 53, 0
4, 38602, Note_on_c, 2, 52, 97
4, 38609, Note_on_c, 2, 52, 0
4, 38610, Note_on_c, 2, 53, 99
4, 38616, Note_on_c, 2, 53, 0
4, 38617, Note_on_c, 2, 52, 99
4, 38624, Note_on_c, 2, 52, 0
4, 38625, Note_on_c, 2, 53, 101
4, 38631, Note_on_c, 2, 53, 0
4, 38632, Note_on_c, 2, 52, 101
4, 38639, Note_on_c, 2, 52, 0
4, 38640, Note_on_c, 2, 53, 102
4, 38646, Note_on_c, 2, 53, 0
4, 38647, Note_on_c, 2, 52, 102
4, 38654, Note_on_c, 2, 52, 0
4, 38655, Note_on_c, 2, 53, 104
4, 38661, Note_on_c, 2, 53, 0
4, 38662, Note_on_c, 2, 52, 105
4, 38669, Note_on_c, 2, 52, 0
4, 38670, Note_on_c, 2, 53, 107
4, 38676, Note_on_c, 2, 53, 0
4, 38677, Note_on_c, 2, 52, 107
4, 38684, Note_on_c, 2, 52, 0
4, 38685, Note_on_c, 2, 53, 107
4, 38691, Note_on_c, 2, 53, 0
4, 38692, Note_on_c, 2, 52, 107
4, 38699, Note_on_c, 2, 52, 0
4, 38700, Note_on_c, 2, 53, 105
4, 38706, Note_on_c, 2, 53, 0
4, 38707, Note_on_c, 2, 52, 105
4, 38714, Note_on_c, 2, 52, 0
4, 38715, Note_on_c, 2, 53, 105
4, 38721, Note_on_c, 2, 53, 0
4, 38722, Note_on_c, 2, 52, 107
4, 38729, Note_on_c, 2, 52, 0
4, 38730, Note_on_c, 2, 53, 109
4, 38736, Note_on_c, 2, 53, 0
4, 38737, Note_on_c, 2, 52, 109
4, 38744, Note_on_c, 2, 52, 0
4, 38745, Note_on_c, 2, 53, 109
4, 38751, Note_on_c, 2, 53, 0
4, 38752, Note_on_c, 2, 52, 108
4, 38759, Note_on_c, 2, 52, 0
4, 38760, Note_on_c, 2, 53, 107
4, 38766, Note_on_c, 2, 53, 0
4, 38767, Note_on_c, 2, 52, 107
4, 38774, Note_on_c, 2, 52, 0
4, 38775, Note_on_c, 2, 53, 107
4, 38781, Note_on_c, 2, 53, 0
4, 38782, Note_on_c, 2, 52, 107
4, 38789, Note_on_c, 2, 52, 0
4, 38790, Note_on_c, 2, 53, 107
4, 38796, Note_on_c, 2, 53, 0
4, 38797, Note_on_c, 2, 52, 107
4, 38804, Note_on_c, 2, 52, 0
4, 38805, Note_on_c, 2, 53, 107
4, 38811, Note_on_c, 2, 53, 0
4, 38812, Note_on_c, 2, 52, 107
4, 38819, Note_on_c, 2, 52, 0
4, 38820, Note_on_c, 2, 53, 106
4, 38826, Note_on_c, 2, 53, 0
4, 38827, Note_on_c, 2, 52, 106
4, 38834, Note_on_c, 2, 52, 0
4, 38835, Note_on_c, 2, 53, 106
4, 38841, Note_on_c, 2, 53, 0
4, 38842, Note_on_c, 2, 52, 107
4, 38915, Note_on_c, 2, 52, 0
4, 38919, Note_on_c, 2, 50, 107
4, 38955, Note_on_c, 2, 50, 0
4, 38959, Note_on_c, 2, 52, 107
4, 38994, Note_on_c, 2, 52, 0
4, 39000, Note_on_c, 2, 53, 105
4, 39225, Note_on_c, 2, 53, 0
4, 39240, Note_on_c, 2, 51, 98
4, 39465, Note_on_c, 2, 51, 0
4, 39480, Note_on_c, 2, 53, 102
4, 39705, Note_on_c, 2, 53, 0
4, 39720, Note_on_c, 2, 46, 101
4, 39879, Note_on_c, 2, 50, 96
4, 39915, Note_on_c, 2, 50, 0
4, 39919, Note_on_c, 2, 53, 97
4, 39954, Note_on_c, 2, 53, 0
4, 39954, Note_on_c, 2, 46, 0
4, 39960, Note_on_c, 2, 58, 99
4, 40425, Note_on_c, 2, 58, 0
4, 40425, End_track
5, 0, Start_track
5, 0, MIDI_port, 0
5, 0, Program_c, 3, 60
5, 0, Control_c, 3, 7, 100
5, 0, Control_c, 3, 10, 90
5, 34, Control_c, 3, 10, 89
5, 42, Control_c, 3, 7, 89
5, 120, Program_c, 3, 6
5, 3060, Note_on_c, 3, 64, 92
5, 3112, Note_on_c, 3, 64, 0
5, 3120, Note_on_c, 3, 67, 92
5, 3225, Note_on_c, 3, 67, 0
5, 3240, Note_on_c, 3, 64, 92
5, 3240, Note_on_c, 3, 67, 92
5, 3345, Note_on_c, 3, 67, 0
5, 3345, Note_on_c, 3, 64, 0
5, 3780, Note_on_c, 3, 66, 92
5, 3832, Note_on_c, 3, 66, 0
5, 3840, Note_on_c, 3, 69, 92
5, 3892, Note_on_c, 3, 69, 0
5, 3900, Note_on_c, 3, 72, 92
5, 3952, Note_on_c, 3, 72, 0
5, 3960, Note_on_c, 3, 66, 92
5, 3960, Note_on_c, 3, 72, 92
5, 4065, Note_on_c, 3, 72, 0
5, 4065, Note_on_c, 3, 66, 0
5, 5400, Note_on_c, 3, 67, 92
5, 5400, Note_on_c, 3, 70, 92
5, 5400, Note_on_c, 3, 72, 92
5, 5505, Note_on_c, 3, 72, 0
5, 5505, Note_on_c, 3, 70, 0
5, 5505, Note_on_c, 3, 67, 0
5, 8696, Control_c, 3, 7, 99
5, 8760, Program_c, 3, 60
5, 11700, Note_on_c, 3, 64, 92
5, 11752, Note_on_c, 3, 64, 0
5, 11760, Note_on_c, 3, 67, 92
5, 11865, Note_on_c, 3, 67, 0
5, 11880, Note_on_c, 3, 64, 92
5, 11880, Note_on_c, 3, 67, 92
5, 11985, Note_on_c, 3, 67, 0
5, 11985, Note_on_c, 3, 64, 0
5, 12420, Note_on_c, 3, 66, 92
5, 12472, Note_on_c, 3, 66, 0
5, 12480, Note_on_c, 3, 69, 92
5, 12532, Note_on_c, 3, 69, 0
5, 12540, Note_on_c, 3, 72, 92
5, 12592, Note_on_c, 3, 72, 0
5, 12600, Note_on_c, 3, 66, 92
5, 12600, Note_on_c, 3, 72, 92
5, 12705, Note_on_c, 3, 72, 0
5, 12705, Note_on_c, 3, 66, 0
5, 14040, Note_on_c, 3, 67, 92
5, 14040, Note_on_c, 3, 70, 92
5, 14040, Note_on_c, 3, 72, 92
5, 14145, Note_on_c, 3, 72, 0
5, 14145, Note_on_c, 3, 70, 0
5, 14145, Note_on_c, 3, 67, 0
5, 17322, Control_c, 3, 7, 89
5, 17400, Program_c, 3, 6
5, 18900, Note_on_c, 3, 65, 92
5, 18952, Note_on_c, 3, 65, 0
5, 18960, Note_on_c, 3, 70, 92
5, 19012, Note_on_c, 3, 70, 0
5, 19140, Note_on_c, 3, 67, 92
5, 19166, Note_on_c, 3, 67, 0
5, 19170, Note_on_c, 3, 69, 92
5, 19196, Note_on_c, 3, 69, 0
5, 19200, Note_on_c, 3, 70, 92
5, 19226, Note_on_c, 3, 70, 0
5, 19230, Note_on_c, 3, 69, 92
5, 19256, Note_on_c, 3, 69, 0
5, 19260, Note_on_c, 3, 67, 92
5, 19312, Note_on_c, 3, 67, 0
5, 19320, Note_on_c, 3, 69, 92
5, 19545, Note_on_c, 3, 69, 0
5, 19590, Note_on_c, 3, 72, 92
5, 19616, Note_on_c, 3, 72, 0
5, 19620, Note_on_c, 3, 70, 92
5, 19646, Note_on_c, 3, 70, 0
5, 19650, Note_on_c, 3, 69, 92
5, 19676, Note_on_c, 3, 69, 0
5, 19680, Note_on_c, 3, 70, 92
5, 19785, Note_on_c, 3, 70, 0
5, 28832, Control_c, 3, 7, 99
5, 28920, Program_c, 3, 60
5, 30420, Note_on_c, 3, 65, 92
5, 30472, Note_on_c, 3, 65, 0
5, 30480, Note_on_c, 3, 70, 92
5, 30532, Note_on_c, 3, 70, 0
5, 30660, Note_on_c, 3, 67, 92
5, 30686, Note_on_c, 3, 67, 0
5, 30690, Note_on_c, 3, 69, 92
5, 30716, Note_on_c, 3, 69, 0
5, 30720, Note_on_c, 3, 70, 92
5, 30746, Note_on_c, 3, 70, 0
5, 30750, Note_on_c, 3, 69, 92
5, 30776, Note_on_c, 3, 69, 0
5, 30780, Note_on_c, 3, 67, 92
5, 30832, Note_on_c, 3, 67, 0
5, 30840, Note_on_c, 3, 69, 92
5, 31065, Note_on_c, 3, 69, 0
5, 31110, Note_on_c, 3, 72, 92
5, 31136, Note_on_c, 3, 72, 0
5, 31140, Note_on_c, 3, 70, 92
5, 31166, Note_on_c, 3, 70, 0
5, 31170, Note_on_c, 3, 69, 92
5, 31196, Note_on_c, 3, 69, 0
5, 31200, Note_on_c, 3, 70, 92
5, 31305, Note_on_c, 3, 70, 0
5, 31305, End_track
6, 0, Start_track
6, 0, MIDI_port, 0
6, 0, Program_c, 4, 74
6, 0, Control_c, 4, 7, 119
6, 0, Control_c, 4, 10, 75
6, 40, Control_c, 4, 7, 119
6, 56, Control_c, 4, 10, 74
6, 120, Note_on_c, 4, 74, 90
6, 285, Note_on_c, 4, 74, 0
6, 300, Note_on_c, 4, 74, 90
6, 352, Note_on_c, 4, 74, 0
6, 360, Note_on_c, 4, 74, 90
6, 506, Note_on_c, 4, 74, 0
6, 510, Note_on_c, 4, 72, 90
6, 536, Note_on_c, 4, 72, 0
6, 540, Note_on_c, 4, 70, 90
6, 566, Note_on_c, 4, 70, 0
6, 570, Note_on_c, 4, 69, 90
6, 596, Note_on_c, 4, 69, 0
6, 600, Note_on_c, 4, 70, 90
6, 652, Note_on_c, 4, 70, 0
6, 660, Note_on_c, 4, 74, 90
6, 712, Note_on_c, 4, 74, 0
6, 720, Note_on_c, 4, 77, 90
6, 772, Note_on_c, 4, 77, 0
6, 780, Note_on_c, 4, 67, 90
6, 832, Note_on_c, 4, 67, 0
6, 840, Note_on_c, 4, 68, 90
6, 853, Note_on_c, 4, 68, 0
6, 855, Note_on_c, 4, 67, 90
6, 868, Note_on_c, 4, 67, 0
6, 870, Note_on_c, 4, 68, 90
6, 1005, Note_on_c, 4, 68, 0
6, 1020, Note_on_c, 4, 68, 90
6, 1072, Note_on_c, 4, 68, 0
6, 1080, Note_on_c, 4, 68, 90
6, 1226, Note_on_c, 4, 68, 0
6, 1230, Note_on_c, 4, 70, 90
6, 1256, Note_on_c, 4, 70, 0
6, 1260, Note_on_c, 4, 68, 90
6, 1286, Note_on_c, 4, 68, 0
6, 1290, Note_on_c, 4, 67, 90
6, 1316, Note_on_c, 4, 67, 0
6, 1320, Note_on_c, 4, 68, 90
6, 1372, Note_on_c, 4, 68, 0
6, 1380, Note_on_c, 4, 74, 90
6, 1432, Note_on_c, 4, 74, 0
6, 1440, Note_on_c, 4, 77, 90
6, 1492, Note_on_c, 4, 77, 0
6, 1500, Note_on_c, 4, 68, 90
6, 1552, Note_on_c, 4, 68, 0
6, 1560, Note_on_c, 4, 67, 90
6, 1612, Note_on_c, 4, 67, 0
6, 1620, Note_on_c, 4, 75, 90
6, 1646, Note_on_c, 4, 75, 0
6, 1650, Note_on_c, 4, 74, 90
6, 1676, Note_on_c, 4, 74, 0
6, 1680, Note_on_c, 4, 72, 90
6, 1706, Note_on_c, 4, 72, 0
6, 1710, Note_on_c, 4, 74, 90
6, 1736, Note_on_c, 4, 74, 0
6, 1740, Note_on_c, 4, 75, 90
6, 1792, Note_on_c, 4, 75, 0
6, 1800, Note_on_c, 4, 65, 90
6, 1852, Note_on_c, 4, 65, 0
6, 1860, Note_on_c, 4, 74, 90
6, 1912, Note_on_c, 4, 74, 0
6, 1920, Note_on_c, 4, 69, 90
6, 1972, Note_on_c, 4, 69, 0
6, 1980, Note_on_c, 4, 70, 90
6, 2032, Note_on_c, 4, 70, 0
6, 2040, Note_on_c, 4, 63, 90
6, 2092, Note_on_c, 4, 63, 0
6, 2100, Note_on_c, 4, 69, 90
6, 2126, Note_on_c, 4, 69, 0
6, 2130, Note_on_c, 4, 70, 90
6, 2156, Note_on_c, 4, 70, 0
6, 2160, Note_on_c, 4, 72, 90
6, 2212, Note_on_c, 4, 72, 0
6, 2220, Note_on_c, 4, 63, 90
6, 2272, Note_on_c, 4, 63, 0
6, 2280, Note_on_c, 4, 65, 90
6, 2306, Note_on_c, 4, 65, 0
6, 2310, Note_on_c, 4, 63, 90
6, 2336, Note_on_c, 4, 63, 0
6, 2340, Note_on_c, 4, 65, 90
6, 2353, Note_on_c, 4, 65, 0
6, 2355, Note_on_c, 4, 63, 90
6, 2368, Note_on_c, 4, 63, 0
6, 2370, Note_on_c, 4, 65, 90
6, 2383, Note_on_c, 4, 65, 0
6, 2385, Note_on_c, 4, 63, 90
6, 2398, Note_on_c, 4, 63, 0
6, 2400, Note_on_c, 4, 65, 90
6, 2413, Note_on_c, 4, 65, 0
6, 2415, Note_on_c, 4, 63, 90
6, 2458, Note_on_c, 4, 63, 0
6, 2460, Note_on_c, 4, 62, 90
6, 2512, Note_on_c, 4, 62, 0
6, 2520, Note_on_c, 4, 62, 90
6, 2666, Note_on_c, 4, 62, 0
6, 2670, Note_on_c, 4, 65, 90
6, 2696, Note_on_c, 4, 65, 0
6, 2700, Note_on_c, 4, 63, 90
6, 2726, Note_on_c, 4, 63, 0
6, 2730, Note_on_c, 4, 62, 90
6, 2756, Note_on_c, 4, 62, 0
6, 2760, Note_on_c, 4, 63, 90
6, 2786, Note_on_c, 4, 63, 0
6, 2790, Note_on_c, 4, 65, 90
6, 2816, Note_on_c, 4, 65, 0
6, 2820, Note_on_c, 4, 67, 90
6, 2846, Note_on_c, 4, 67, 0
6, 2850, Note_on_c, 4, 69, 90
6, 2876, Note_on_c, 4, 69, 0
6, 2880, Note_on_c, 4, 70, 90
6, 2932, Note_on_c, 4, 70, 0
6, 2940, Note_on_c, 4, 67, 90
6, 2992, Note_on_c, 4, 67, 0
6, 3000, Note_on_c, 4, 65, 90
6, 3052, Note_on_c, 4, 65, 0
6, 3060, Note_on_c, 4, 64, 90
6, 3120, Note_on_c, 4, 67, 90
6, 3180, Note_on_c, 4, 72, 90
6, 3232, Note_on_c, 4, 72, 0
6, 3232, Note_on_c, 4, 67, 0
6, 3232, Note_on_c, 4, 64, 0
6, 3240, Note_on_c, 4, 72, 90
6, 3386, Note_on_c, 4, 72, 0
6, 3390, Note_on_c, 4, 74, 90
6, 3416, Note_on_c, 4, 74, 0
6, 3420, Note_on_c, 4, 75, 90
6, 3446, Note_on_c, 4, 75, 0
6, 3450, Note_on_c, 4, 74, 90
6, 3476, Note_on_c, 4, 74, 0
6, 3480, Note_on_c, 4, 72, 90
6, 3532, Note_on_c, 4, 72, 0
6, 3540, Note_on_c, 4, 70, 90
6, 3592, Note_on_c, 4, 70, 0
6, 3600, Note_on_c, 4, 69, 90
6, 3626, Note_on_c, 4, 69, 0
6, 3630, Note_on_c, 4, 70, 90
6, 3656, Note_on_c, 4, 70, 0
6, 3660, Note_on_c, 4, 67, 90
6, 3712, Note_on_c, 4, 67, 0
6, 3720, Note_on_c, 4, 67, 90
6, 3772, Note_on_c, 4, 67, 0
6, 3780, Note_on_c, 4, 66, 90
6, 3840, Note_on_c, 4, 69, 90
6, 3900, Note_on_c, 4, 72, 90
6, 3926, Note_on_c, 4, 69, 0
6, 3926, Note_on_c, 4, 66, 0
6, 3930, Note_on_c, 4, 75, 90
6, 3956, Note_on_c, 4, 75, 0
6, 3956, Note_on_c, 4, 72, 0
6, 3960, Note_on_c, 4, 75, 90
6, 4125, Note_on_c, 4, 75, 0
6, 4140, Note_on_c, 4, 74, 90
6, 4166, Note_on_c, 4, 74, 0
6, 4170, Note_on_c, 4, 72, 90
6, 4196, Note_on_c, 4, 72, 0
6, 4200, Note_on_c, 4, 74, 90
6, 4226, Note_on_c, 4, 74, 0
6, 4230, Note_on_c, 4, 72, 90
6, 4256, Note_on_c, 4, 72, 0
6, 4260, Note_on_c, 4, 70, 90
6, 4312, Note_on_c, 4, 70, 0
6, 4320, Note_on_c, 4, 72, 90
6, 4346, Note_on_c, 4, 72, 0
6, 4350, Note_on_c, 4, 70, 90
6, 4376, Note_on_c, 4, 70, 0
6, 4380, Note_on_c, 4, 69, 90
6, 4432, Note_on_c, 4, 69, 0
6, 4440, Note_on_c, 4, 70, 90
6, 4518, Note_on_c, 4, 70, 0
6, 4530, Note_on_c, 4, 69, 90
6, 4538, Note_on_c, 4, 69, 0
6, 4539, Note_on_c, 4, 67, 90
6, 4545, Note_on_c, 4, 66, 90
6, 4548, Note_on_c, 4, 67, 0
6, 4558, Note_on_c, 4, 66, 0
6, 4560, Note_on_c, 4, 67, 90
6, 4612, Note_on_c, 4, 67, 0
6, 4620, Note_on_c, 4, 69, 90
6, 4672, Note_on_c, 4, 69, 0
6, 4680, Note_on_c, 4, 70, 90
6, 4732, Note_on_c, 4, 70, 0
6, 4740, Note_on_c, 4, 67, 90
6, 4766, Note_on_c, 4, 67, 0
6, 4770, Note_on_c, 4, 69, 90
6, 4796, Note_on_c, 4, 69, 0
6, 4800, Note_on_c, 4, 70, 90
6, 4826, Note_on_c, 4, 70, 0
6, 4830, Note_on_c, 4, 72, 90
6, 4856, Note_on_c, 4, 72, 0
6, 4860, Note_on_c, 4, 74, 90
6, 4912, Note_on_c, 4, 74, 0
6, 4920, Note_on_c, 4, 74, 90
6, 4972, Note_on_c, 4, 74, 0
6, 4980, Note_on_c, 4, 76, 90
6, 5006, Note_on_c, 4, 76, 0
6, 5010, Note_on_c, 4, 77, 90
6, 5036, Note_on_c, 4, 77, 0
6, 5040, Note_on_c, 4, 79, 90
6, 5066, Note_on_c, 4, 79, 0
6, 5070, Note_on_c, 4, 77, 90
6, 5096, Note_on_c, 4, 77, 0
6, 5100, Note_on_c, 4, 76, 90
6, 5126, Note_on_c, 4, 76, 0
6, 5130, Note_on_c, 4, 77, 90
6, 5156, Note_on_c, 4, 77, 0
6, 5160, Note_on_c, 4, 79, 90
6, 5186, Note_on_c, 4, 79, 0
6, 5190, Note_on_c, 4, 72, 90
6, 5216, Note_on_c, 4, 72, 0
6, 5220, Note_on_c, 4, 70, 90
6, 5246, Note_on_c, 4, 70, 0
6, 5250, Note_on_c, 4, 69, 90
6, 5276, Note_on_c, 4, 69, 0
6, 5280, Note_on_c, 4, 70, 90
6, 5332, Note_on_c, 4, 70, 0
6, 5340, Note_on_c, 4, 79, 90
6, 5392, Note_on_c, 4, 79, 0
6, 5400, Note_on_c, 4, 79, 90
6, 5546, Note_on_c, 4, 79, 0
6, 5550, Note_on_c, 4, 77, 90
6, 5576, Note_on_c, 4, 77, 0
6, 5580, Note_on_c, 4, 76, 90
6, 5606, Note_on_c, 4, 76, 0
6, 5610, Note_on_c, 4, 74, 90
6, 5636, Note_on_c, 4, 74, 0
6, 5640, Note_on_c, 4, 72, 90
6, 5692, Note_on_c, 4, 72, 0
6, 5700, Note_on_c, 4, 70, 90
6, 5752, Note_on_c, 4, 70, 0
6, 5760, Note_on_c, 4, 70, 90
6, 5773, Note_on_c, 4, 70, 0
6, 5775, Note_on_c, 4, 72, 90
6, 5788, Note_on_c, 4, 72, 0
6, 5790, Note_on_c, 4, 70, 90
6, 5816, Note_on_c, 4, 70, 0
6, 5820, Note_on_c, 4, 69, 90
6, 5872, Note_on_c, 4, 69, 0
6, 5880, Note_on_c, 4, 69, 90
6, 5932, Note_on_c, 4, 69, 0
6, 5940, Note_on_c, 4, 60, 90
6, 5966, Note_on_c, 4, 60, 0
6, 5970, Note_on_c, 4, 64, 90
6, 5996, Note_on_c, 4, 64, 0
6, 6000, Note_on_c, 4, 65, 90
6, 6052, Note_on_c, 4, 65, 0
6, 6060, Note_on_c, 4, 69, 90
6, 6112, Note_on_c, 4, 69, 0
6, 6120, Note_on_c, 4, 69, 90
6, 6172, Note_on_c, 4, 69, 0
6, 6180, Note_on_c, 4, 65, 90
6, 6206, Note_on_c, 4, 65, 0
6, 6210, Note_on_c, 4, 67, 90
6, 6236, Note_on_c, 4, 67, 0
6, 6240, Note_on_c, 4, 69, 90
6, 6292, Note_on_c, 4, 69, 0
6, 6300, Note_on_c, 4, 72, 90
6, 6352, Note_on_c, 4, 72, 0
6, 6360, Note_on_c, 4, 72, 90
6, 6412, Note_on_c, 4, 72, 0
6, 6420, Note_on_c, 4, 69, 90
6, 6446, Note_on_c, 4, 69, 0
6, 6450, Note_on_c, 4, 70, 90
6, 6476, Note_on_c, 4, 70, 0
6, 6480, Note_on_c, 4, 72, 90
6, 6532, Note_on_c, 4, 72, 0
6, 6540, Note_on_c, 4, 77, 90
6, 6592, Note_on_c, 4, 77, 0
6, 6600, Note_on_c, 4, 77, 90
6, 6652, Note_on_c, 4, 77, 0
6, 6660, Note_on_c, 4, 81, 90
6, 6686, Note_on_c, 4, 81, 0
6, 6690, Note_on_c, 4, 79, 90
6, 6716, Note_on_c, 4, 79, 0
6, 6720, Note_on_c, 4, 77, 90
6, 6746, Note_on_c, 4, 77, 0
6, 6750, Note_on_c, 4, 76, 90
6, 6776, Note_on_c, 4, 76, 0
6, 6780, Note_on_c, 4, 74, 90
6, 6832, Note_on_c, 4, 74, 0
6, 6840, Note_on_c, 4, 72, 90
6, 6892, Note_on_c, 4, 72, 0
6, 6900, Note_on_c, 4, 77, 90
6, 6926, Note_on_c, 4, 77, 0
6, 6930, Note_on_c, 4, 76, 90
6, 6956, Note_on_c, 4, 76, 0
6, 6960, Note_on_c, 4, 74, 90
6, 6986, Note_on_c, 4, 74, 0
6, 6990, Note_on_c, 4, 72, 90
6, 7016, Note_on_c, 4, 72, 0
6, 7020, Note_on_c, 4, 70, 90
6, 7072, Note_on_c, 4, 70, 0
6, 7080, Note_on_c, 4, 69, 90
6, 7132, Note_on_c, 4, 69, 0
6, 7140, Note_on_c, 4, 72, 90
6, 7166, Note_on_c, 4, 72, 0
6, 7170, Note_on_c, 4, 70, 90
6, 7196, Note_on_c, 4, 70, 0
6, 7200, Note_on_c, 4, 69, 90
6, 7226, Note_on_c, 4, 69, 0
6, 7230, Note_on_c, 4, 67, 90
6, 7256, Note_on_c, 4, 67, 0
6, 7260, Note_on_c, 4, 65, 90
6, 7312, Note_on_c, 4, 65, 0
6, 7320, Note_on_c, 4, 74, 90
6, 7346, Note_on_c, 4, 74, 0
6, 7350, Note_on_c, 4, 72, 90
6, 7376, Note_on_c, 4, 72, 0
6, 7380, Note_on_c, 4, 70, 90
6, 7406, Note_on_c, 4, 70, 0
6, 7410, Note_on_c, 4, 69, 90
6, 7436, Note_on_c, 4, 69, 0
6, 7440, Note_on_c, 4, 70, 90
6, 7492, Note_on_c, 4, 70, 0
6, 7500, Note_on_c, 4, 67, 90
6, 7552, Note_on_c, 4, 67, 0
6, 7560, Note_on_c, 4, 65, 90
6, 7638, Note_on_c, 4, 65, 0
6, 7650, Note_on_c, 4, 67, 90
6, 7658, Note_on_c, 4, 67, 0
6, 7659, Note_on_c, 4, 65, 90
6, 7665, Note_on_c, 4, 64, 90
6, 7668, Note_on_c, 4, 65, 0
6, 7678, Note_on_c, 4, 64, 0
6, 7680, Note_on_c, 4, 65, 90
6, 7706, Note_on_c, 4, 65, 0
6, 7710, Note_on_c, 4, 62, 90
6, 7736, Note_on_c, 4, 62, 0
6, 7740, Note_on_c, 4, 70, 90
6, 7792, Note_on_c, 4, 70, 0
6, 7800, Note_on_c, 4, 64, 90
6, 7813, Note_on_c, 4, 64, 0
6, 7815, Note_on_c, 4, 65, 90
6, 7828, Note_on_c, 4, 65, 0
6, 7830, Note_on_c, 4, 64, 90
6, 7836, Note_on_c, 4, 64, 0
6, 7837, Note_on_c, 4, 65, 90
6, 7844, Note_on_c, 4, 65, 0
6, 7845, Note_on_c, 4, 64, 90
6, 7851, Note_on_c, 4, 64, 0
6, 7852, Note_on_c, 4, 65, 90
6, 7859, Note_on_c, 4, 65, 0
6, 7860, Note_on_c, 4, 64, 90
6, 7866, Note_on_c, 4, 64, 0
6, 7867, Note_on_c, 4, 65, 90
6, 7874, Note_on_c, 4, 65, 0
6, 7875, Note_on_c, 4, 64, 90
6, 7881, Note_on_c, 4, 64, 0
6, 7882, Note_on_c, 4, 65, 90
6, 7889, Note_on_c, 4, 65, 0
6, 7890, Note_on_c, 4, 64, 90
6, 7896, Note_on_c, 4, 64, 0
6, 7897, Note_on_c, 4, 65, 90
6, 7904, Note_on_c, 4, 65, 0
6, 7905, Note_on_c, 4, 64, 90
6, 7911, Note_on_c, 4, 64, 0
6, 7912, Note_on_c, 4, 65, 90
6, 7919, Note_on_c, 4, 65, 0
6, 7920, Note_on_c, 4, 64, 90
6, 7926, Note_on_c, 4, 64, 0
6, 7927, Note_on_c, 4, 65, 90
6, 7934, Note_on_c, 4, 65, 0
6, 7935, Note_on_c, 4, 64, 90
6, 7941, Note_on_c, 4, 64, 0
6, 7942, Note_on_c, 4, 65, 90
6, 7949, Note_on_c, 4, 65, 0
6, 7950, Note_on_c, 4, 64, 90
6, 7976, Note_on_c, 4, 64, 0
6, 7980, Note_on_c, 4, 65, 90
6, 8032, Note_on_c, 4, 65, 0
6, 8040, Note_on_c, 4, 65, 90
6, 8265, Note_on_c, 4, 65, 0
6, 8280, Note_on_c, 4, 65, 90
6, 8685, Note_on_c, 4, 65, 0
6, 8740, Control_c, 4, 7, 0
6, 8760, Note_on_c, 4, 74, 90
6, 8925, Note_on_c, 4, 74, 0
6, 8940, Note_on_c, 4, 74, 90
6, 8992, Note_on_c, 4, 74, 0
6, 9000, Note_on_c, 4, 74, 90
6, 9146, Note_on_c, 4, 74, 0
6, 9150, Note_on_c, 4, 72, 90
6, 9176, Note_on_c, 4, 72, 0
6, 9180, Note_on_c, 4, 70, 90
6, 9206, Note_on_c, 4, 70, 0
6, 9210, Note_on_c, 4, 69, 90
6, 9236, Note_on_c, 4, 69, 0
6, 9240, Note_on_c, 4, 70, 90
6, 9292, Note_on_c, 4, 70, 0
6, 9300, Note_on_c, 4, 74, 90
6, 9352, Note_on_c, 4, 74, 0
6, 9360, Note_on_c, 4, 77, 90
6, 9412, Note_on_c, 4, 77, 0
6, 9420, Note_on_c, 4, 67, 90
6, 9472, Note_on_c, 4, 67, 0
6, 9480, Note_on_c, 4, 68, 90
6, 9493, Note_on_c, 4, 68, 0
6, 9495, Note_on_c, 4, 67, 90
6, 9508, Note_on_c, 4, 67, 0
6, 9510, Note_on_c, 4, 68, 90
6, 9645, Note_on_c, 4, 68, 0
6, 9660, Note_on_c, 4, 68, 90
6, 9712, Note_on_c, 4, 68, 0
6, 9720, Note_on_c, 4, 68, 90
6, 9866, Note_on_c, 4, 68, 0
6, 9870, Note_on_c, 4, 70, 90
6, 9896, Note_on_c, 4, 70, 0
6, 9900, Note_on_c, 4, 68, 90
6, 9926, Note_on_c, 4, 68, 0
6, 9930, Note_on_c, 4, 67, 90
6, 9956, Note_on_c, 4, 67, 0
6, 9960, Note_on_c, 4, 68, 90
6, 10012, Note_on_c, 4, 68, 0
6, 10020, Note_on_c, 4, 74, 90
6, 10072, Note_on_c, 4, 74, 0
6, 10080, Note_on_c, 4, 77, 90
6, 10132, Note_on_c, 4, 77, 0
6, 10140, Note_on_c, 4, 68, 90
6, 10192, Note_on_c, 4, 68, 0
6, 10200, Note_on_c, 4, 67, 90
6, 10252, Note_on_c, 4, 67, 0
6, 10260, Note_on_c, 4, 75, 90
6, 10286, Note_on_c, 4, 75, 0
6, 10290, Note_on_c, 4, 74, 90
6, 10316, Note_on_c, 4, 74, 0
6, 10320, Note_on_c, 4, 72, 90
6, 10346, Note_on_c, 4, 72, 0
6, 10350, Note_on_c, 4, 74, 90
6, 10376, Note_on_c, 4, 74, 0
6, 10380, Note_on_c, 4, 75, 90
6, 10432, Note_on_c, 4, 75, 0
6, 10440, Note_on_c, 4, 65, 90
6, 10492, Note_on_c, 4, 65, 0
6, 10500, Note_on_c, 4, 74, 90
6, 10552, Note_on_c, 4, 74, 0
6, 10560, Note_on_c, 4, 69, 90
6, 10612, Note_on_c, 4, 69, 0
6, 10620, Note_on_c, 4, 70, 90
6, 10672, Note_on_c, 4, 70, 0
6, 10680, Note_on_c, 4, 63, 90
6, 10732, Note_on_c, 4, 63, 0
6, 10740, Note_on_c, 4, 69, 90
6, 10766, Note_on_c, 4, 69, 0
6, 10770, Note_on_c, 4, 70, 90
6, 10796, Note_on_c, 4, 70, 0
6, 10800, Note_on_c, 4, 72, 90
6, 10852, Note_on_c, 4, 72, 0
6, 10860, Note_on_c, 4, 63, 90
6, 10912, Note_on_c, 4, 63, 0
6, 10920, Note_on_c, 4, 65, 90
6, 10946, Note_on_c, 4, 65, 0
6, 10950, Note_on_c, 4, 63, 90
6, 10976, Note_on_c, 4, 63, 0
6, 10980, Note_on_c, 4, 65, 90
6, 10993, Note_on_c, 4, 65, 0
6, 10995, Note_on_c, 4, 63, 90
6, 11008, Note_on_c, 4, 63, 0
6, 11010, Note_on_c, 4, 65, 90
6, 11023, Note_on_c, 4, 65, 0
6, 11025, Note_on_c, 4, 63, 90
6, 11038, Note_on_c, 4, 63, 0
6, 11040, Note_on_c, 4, 65, 90
6, 11053, Note_on_c, 4, 65, 0
6, 11055, Note_on_c, 4, 63, 90
6, 11098, Note_on_c, 4, 63, 0
6, 11100, Note_on_c, 4, 62, 90
6, 11152, Note_on_c, 4, 62, 0
6, 11160, Note_on_c, 4, 62, 90
6, 11306, Note_on_c, 4, 62, 0
6, 11310, Note_on_c, 4, 65, 90
6, 11336, Note_on_c, 4, 65, 0
6, 11340, Note_on_c, 4, 63, 90
6, 11366, Note_on_c, 4, 63, 0
6, 11370, Note_on_c, 4, 62, 90
6, 11396, Note_on_c, 4, 62, 0
6, 11400, Note_on_c, 4, 63, 90
6, 11426, Note_on_c, 4, 63, 0
6, 11430, Note_on_c, 4, 65, 90
6, 11456, Note_on_c, 4, 65, 0
6, 11460, Note_on_c, 4, 67, 90
6, 11486, Note_on_c, 4, 67, 0
6, 11490, Note_on_c, 4, 69, 90
6, 11516, Note_on_c, 4, 69, 0
6, 11520, Note_on_c, 4, 70, 90
6, 11572, Note_on_c, 4, 70, 0
6, 11580, Note_on_c, 4, 67, 90
6, 11632, Note_on_c, 4, 67, 0
6, 11640, Note_on_c, 4, 65, 90
6, 11692, Note_on_c, 4, 65, 0
6, 11700, Note_on_c, 4, 64, 90
6, 11760, Note_on_c, 4, 67, 90
6, 11820, Note_on_c, 4, 72, 90
6, 11872, Note_on_c, 4, 72, 0
6, 11872, Note_on_c, 4, 67, 0
6, 11872, Note_on_c, 4, 64, 0
6, 11880, Note_on_c, 4, 72, 90
6, 12026, Note_on_c, 4, 72, 0
6, 12030, Note_on_c, 4, 74, 90
6, 12056, Note_on_c, 4, 74, 0
6, 12060, Note_on_c, 4, 75, 90
6, 12086, Note_on_c, 4, 75, 0
6, 12090, Note_on_c, 4, 74, 90
6, 12116, Note_on_c, 4, 74, 0
6, 12120, Note_on_c, 4, 72, 90
6, 12172, Note_on_c, 4, 72, 0
6, 12180, Note_on_c, 4, 70, 90
6, 12232, Note_on_c, 4, 70, 0
6, 12240, Note_on_c, 4, 69, 90
6, 12266, Note_on_c, 4, 69, 0
6, 12270, Note_on_c, 4, 70, 90
6, 12296, Note_on_c, 4, 70, 0
6, 12300, Note_on_c, 4, 67, 90
6, 12352, Note_on_c, 4, 67, 0
6, 12360, Note_on_c, 4, 67, 90
6, 12412, Note_on_c, 4, 67, 0
6, 12420, Note_on_c, 4, 66, 90
6, 12480, Note_on_c, 4, 69, 90
6, 12540, Note_on_c, 4, 72, 90
6, 12566, Note_on_c, 4, 69, 0
6, 12566, Note_on_c, 4, 66, 0
6, 12570, Note_on_c, 4, 75, 90
6, 12596, Note_on_c, 4, 75, 0
6, 12596, Note_on_c, 4, 72, 0
6, 12600, Note_on_c, 4, 75, 90
6, 12765, Note_on_c, 4, 75, 0
6, 12780, Note_on_c, 4, 74, 90
6, 12806, Note_on_c, 4, 74, 0
6, 12810, Note_on_c, 4, 72, 90
6, 12836, Note_on_c, 4, 72, 0
6, 12840, Note_on_c, 4, 74, 90
6, 12866, Note_on_c, 4, 74, 0
6, 12870, Note_on_c, 4, 72, 90
6, 12896, Note_on_c, 4, 72, 0
6, 12900, Note_on_c, 4, 70, 90
6, 12952, Note_on_c, 4, 70, 0
6, 12960, Note_on_c, 4, 72, 90
6, 12986, Note_on_c, 4, 72, 0
6, 12990, Note_on_c, 4, 70, 90
6, 13016, Note_on_c, 4, 70, 0
6, 13020, Note_on_c, 4, 69, 90
6, 13072, Note_on_c, 4, 69, 0
6, 13080, Note_on_c, 4, 70, 90
6, 13158, Note_on_c, 4, 70, 0
6, 13170, Note_on_c, 4, 69, 90
6, 13178, Note_on_c, 4, 69, 0
6, 13179, Note_on_c, 4, 67, 90
6, 13185, Note_on_c, 4, 66, 90
6, 13188, Note_on_c, 4, 67, 0
6, 13198, Note_on_c, 4, 66, 0
6, 13200, Note_on_c, 4, 67, 90
6, 13252, Note_on_c, 4, 67, 0
6, 13260, Note_on_c, 4, 69, 90
6, 13312, Note_on_c, 4, 69, 0
6, 13320, Note_on_c, 4, 70, 90
6, 13372, Note_on_c, 4, 70, 0
6, 13380, Note_on_c, 4, 67, 90
6, 13406, Note_on_c, 4, 67, 0
6, 13410, Note_on_c, 4, 69, 90
6, 13436, Note_on_c, 4, 69, 0
6, 13440, Note_on_c, 4, 70, 90
6, 13466, Note_on_c, 4, 70, 0
6, 13470, Note_on_c, 4, 72, 90
6, 13496, Note_on_c, 4, 72, 0
6, 13500, Note_on_c, 4, 74, 90
6, 13552, Note_on_c, 4, 74, 0
6, 13560, Note_on_c, 4, 74, 90
6, 13612, Note_on_c, 4, 74, 0
6, 13620, Note_on_c, 4, 76, 90
6, 13646, Note_on_c, 4, 76, 0
6, 13650, Note_on_c, 4, 77, 90
6, 13676, Note_on_c, 4, 77, 0
6, 13680, Note_on_c, 4, 79, 90
6, 13706, Note_on_c, 4, 79, 0
6, 13710, Note_on_c, 4, 77, 90
6, 13736, Note_on_c, 4, 77, 0
6, 13740, Note_on_c, 4, 76, 90
6, 13766, Note_on_c, 4, 76, 0
6, 13770, Note_on_c, 4, 77, 90
6, 13796, Note_on_c, 4, 77, 0
6, 13800, Note_on_c, 4, 79, 90
6, 13826, Note_on_c, 4, 79, 0
6, 13830, Note_on_c, 4, 72, 90
6, 13856, Note_on_c, 4, 72, 0
6, 13860, Note_on_c, 4, 70, 90
6, 13886, Note_on_c, 4, 70, 0
6, 13890, Note_on_c, 4, 69, 90
6, 13916, Note_on_c, 4, 69, 0
6, 13920, Note_on_c, 4, 70, 90
6, 13972, Note_on_c, 4, 70, 0
6, 13980, Note_on_c, 4, 79, 90
6, 14032, Note_on_c, 4, 79, 0
6, 14040, Note_on_c, 4, 79, 90
6, 14186, Note_on_c, 4, 79, 0
6, 14190, Note_on_c, 4, 77, 90
6, 14216, Note_on_c, 4, 77, 0
6, 14220, Note_on_c, 4, 76, 90
6, 14246, Note_on_c, 4, 76, 0
6, 14250, Note_on_c, 4, 74, 90
6, 14276, Note_on_c, 4, 74, 0
6, 14280, Note_on_c, 4, 72, 90
6, 14332, Note_on_c, 4, 72, 0
6, 14340, Note_on_c, 4, 70, 90
6, 14392, Note_on_c, 4, 70, 0
6, 14400, Note_on_c, 4, 70, 90
6, 14413, Note_on_c, 4, 70, 0
6, 14415, Note_on_c, 4, 72, 90
6, 14428, Note_on_c, 4, 72, 0
6, 14430, Note_on_c, 4, 70, 90
6, 14456, Note_on_c, 4, 70, 0
6, 14460, Note_on_c, 4, 69, 90
6, 14512, Note_on_c, 4, 69, 0
6, 14520, Note_on_c, 4, 69, 90
6, 14572, Note_on_c, 4, 69, 0
6, 14580, Note_on_c, 4, 60, 90
6, 14606, Note_on_c, 4, 60, 0
6, 14610, Note_on_c, 4, 64, 90
6, 14636, Note_on_c, 4, 64, 0
6, 14640, Note_on_c, 4, 65, 90
6, 14692, Note_on_c, 4, 65, 0
6, 14700, Note_on_c, 4, 69, 90
6, 14752, Note_on_c, 4, 69, 0
6, 14760, Note_on_c, 4, 69, 90
6, 14812, Note_on_c, 4, 69, 0
6, 14820, Note_on_c, 4, 65, 90
6, 14846, Note_on_c, 4, 65, 0
6, 14850, Note_on_c, 4, 67, 90
6, 14876, Note_on_c, 4, 67, 0
6, 14880, Note_on_c, 4, 69, 90
6, 14932, Note_on_c, 4, 69, 0
6, 14940, Note_on_c, 4, 72, 90
6, 14992, Note_on_c, 4, 72, 0
6, 15000, Note_on_c, 4, 72, 90
6, 15052, Note_on_c, 4, 72, 0
6, 15060, Note_on_c, 4, 69, 90
6, 15086, Note_on_c, 4, 69, 0
6, 15090, Note_on_c, 4, 70, 90
6, 15116, Note_on_c, 4, 70, 0
6, 15120, Note_on_c, 4, 72, 90
6, 15172, Note_on_c, 4, 72, 0
6, 15180, Note_on_c, 4, 77, 90
6, 15232, Note_on_c, 4, 77, 0
6, 15240, Note_on_c, 4, 77, 90
6, 15292, Note_on_c, 4, 77, 0
6, 15300, Note_on_c, 4, 81, 90
6, 15326, Note_on_c, 4, 81, 0
6, 15330, Note_on_c, 4, 79, 90
6, 15356, Note_on_c, 4, 79, 0
6, 15360, Note_on_c, 4, 77, 90
6, 15386, Note_on_c, 4, 77, 0
6, 15390, Note_on_c, 4, 76, 90
6, 15416, Note_on_c, 4, 76, 0
6, 15420, Note_on_c, 4, 74, 90
6, 15472, Note_on_c, 4, 74, 0
6, 15480, Note_on_c, 4, 72, 90
6, 15532, Note_on_c, 4, 72, 0
6, 15540, Note_on_c, 4, 77, 90
6, 15566, Note_on_c, 4, 77, 0
6, 15570, Note_on_c, 4, 76, 90
6, 15596, Note_on_c, 4, 76, 0
6, 15600, Note_on_c, 4, 74, 90
6, 15626, Note_on_c, 4, 74, 0
6, 15630, Note_on_c, 4, 72, 90
6, 15656, Note_on_c, 4, 72, 0
6, 15660, Note_on_c, 4, 70, 90
6, 15712, Note_on_c, 4, 70, 0
6, 15720, Note_on_c, 4, 69, 90
6, 15772, Note_on_c, 4, 69, 0
6, 15780, Note_on_c, 4, 72, 90
6, 15806, Note_on_c, 4, 72, 0
6, 15810, Note_on_c, 4, 70, 90
6, 15836, Note_on_c, 4, 70, 0
6, 15840, Note_on_c, 4, 69, 90
6, 15866, Note_on_c, 4, 69, 0
6, 15870, Note_on_c, 4, 67, 90
6, 15896, Note_on_c, 4, 67, 0
6, 15900, Note_on_c, 4, 65, 90
6, 15952, Note_on_c, 4, 65, 0
6, 15960, Note_on_c, 4, 74, 90
6, 15986, Note_on_c, 4, 74, 0
6, 15990, Note_on_c, 4, 72, 90
6, 16016, Note_on_c, 4, 72, 0
6, 16020, Note_on_c, 4, 70, 90
6, 16046, Note_on_c, 4, 70, 0
6, 16050, Note_on_c, 4, 69, 90
6, 16076, Note_on_c, 4, 69, 0
6, 16080, Note_on_c, 4, 70, 90
6, 16132, Note_on_c, 4, 70, 0
6, 16140, Note_on_c, 4, 67, 90
6, 16192, Note_on_c, 4, 67, 0
6, 16200, Note_on_c, 4, 65, 90
6, 16278, Note_on_c, 4, 65, 0
6, 16290, Note_on_c, 4, 67, 90
6, 16298, Note_on_c, 4, 67, 0
6, 16299, Note_on_c, 4, 65, 90
6, 16305, Note_on_c, 4, 64, 90
6, 16308, Note_on_c, 4, 65, 0
6, 16318, Note_on_c, 4, 64, 0
6, 16320, Note_on_c, 4, 65, 90
6, 16346, Note_on_c, 4, 65, 0
6, 16350, Note_on_c, 4, 62, 90
6, 16376, Note_on_c, 4, 62, 0
6, 16380, Note_on_c, 4, 70, 90
6, 16432, Note_on_c, 4, 70, 0
6, 16440, Note_on_c, 4, 64, 90
6, 16453, Note_on_c, 4, 64, 0
6, 16455, Note_on_c, 4, 65, 90
6, 16468, Note_on_c, 4, 65, 0
6, 16470, Note_on_c, 4, 64, 90
6, 16476, Note_on_c, 4, 64, 0
6, 16477, Note_on_c, 4, 65, 90
6, 16484, Note_on_c, 4, 65, 0
6, 16485, Note_on_c, 4, 64, 90
6, 16491, Note_on_c, 4, 64, 0
6, 16492, Note_on_c, 4, 65, 90
6, 16499, Note_on_c, 4, 65, 0
6, 16500, Note_on_c, 4, 64, 90
6, 16506, Note_on_c, 4, 64, 0
6, 16507, Note_on_c, 4, 65, 90
6, 16514, Note_on_c, 4, 65, 0
6, 16515, Note_on_c, 4, 64, 90
6, 16521, Note_on_c, 4, 64, 0
6, 16522, Note_on_c, 4, 65, 90
6, 16529, Note_on_c, 4, 65, 0
6, 16530, Note_on_c, 4, 64, 90
6, 16536, Note_on_c, 4, 64, 0
6, 16537, Note_on_c, 4, 65, 90
6, 16544, Note_on_c, 4, 65, 0
6, 16545, Note_on_c, 4, 64, 90
6, 16551, Note_on_c, 4, 64, 0
6, 16552, Note_on_c, 4, 65, 90
6, 16559, Note_on_c, 4, 65, 0
6, 16560, Note_on_c, 4, 64, 90
6, 16566, Note_on_c, 4, 64, 0
6, 16567, Note_on_c, 4, 65, 90
6, 16574, Note_on_c, 4, 65, 0
6, 16575, Note_on_c, 4, 64, 90
6, 16581, Note_on_c, 4, 64, 0
6, 16582, Note_on_c, 4, 65, 90
6, 16589, Note_on_c, 4, 65, 0
6, 16590, Note_on_c, 4, 64, 90
6, 16616, Note_on_c, 4, 64, 0
6, 16620, Note_on_c, 4, 65, 90
6, 16672, Note_on_c, 4, 65, 0
6, 16680, Note_on_c, 4, 65, 90
6, 16905, Note_on_c, 4, 65, 0
6, 16920, Note_on_c, 4, 65, 90
6, 17302, Control_c, 4, 7, 117
6, 17325, Note_on_c, 4, 65, 0
6, 17400, Note_on_c, 4, 72, 90
6, 17565, Note_on_c, 4, 72, 0
6, 17580, Note_on_c, 4, 72, 90
6, 17632, Note_on_c, 4, 72, 0
6, 17640, Note_on_c, 4, 72, 90
6, 17786, Note_on_c, 4, 72, 0
6, 17790, Note_on_c, 4, 74, 90
6, 17816, Note_on_c, 4, 74, 0
6, 17820, Note_on_c, 4, 72, 90
6, 17846, Note_on_c, 4, 72, 0
6, 17850, Note_on_c, 4, 70, 90
6, 17876, Note_on_c, 4, 70, 0
6, 17880, Note_on_c, 4, 72, 90
6, 17906, Note_on_c, 4, 72, 0
6, 17910, Note_on_c, 4, 70, 90
6, 17936, Note_on_c, 4, 70, 0
6, 17940, Note_on_c, 4, 69, 90
6, 17966, Note_on_c, 4, 69, 0
6, 17970, Note_on_c, 4, 70, 90
6, 17996, Note_on_c, 4, 70, 0
6, 18000, Note_on_c, 4, 69, 90
6, 18026, Note_on_c, 4, 69, 0
6, 18030, Note_on_c, 4, 67, 90
6, 18056, Note_on_c, 4, 67, 0
6, 18060, Note_on_c, 4, 69, 90
6, 18073, Note_on_c, 4, 69, 0
6, 18075, Note_on_c, 4, 67, 90
6, 18088, Note_on_c, 4, 67, 0
6, 18090, Note_on_c, 4, 65, 90
6, 18116, Note_on_c, 4, 65, 0
6, 18120, Note_on_c, 4, 77, 90
6, 18285, Note_on_c, 4, 77, 0
6, 18300, Note_on_c, 4, 77, 90
6, 18352, Note_on_c, 4, 77, 0
6, 18360, Note_on_c, 4, 77, 90
6, 18506, Note_on_c, 4, 77, 0
6, 18510, Note_on_c, 4, 79, 90
6, 18536, Note_on_c, 4, 79, 0
6, 18540, Note_on_c, 4, 77, 90
6, 18566, Note_on_c, 4, 77, 0
6, 18570, Note_on_c, 4, 75, 90
6, 18596, Note_on_c, 4, 75, 0
6, 18600, Note_on_c, 4, 77, 90
6, 18626, Note_on_c, 4, 77, 0
6, 18630, Note_on_c, 4, 75, 90
6, 18656, Note_on_c, 4, 75, 0
6, 18660, Note_on_c, 4, 74, 90
6, 18686, Note_on_c, 4, 74, 0
6, 18690, Note_on_c, 4, 75, 90
6, 18703, Note_on_c, 4, 75, 0
6, 18705, Note_on_c, 4, 74, 90
6, 18718, Note_on_c, 4, 74, 0
6, 18720, Note_on_c, 4, 72, 90
6, 18733, Note_on_c, 4, 72, 0
6, 18735, Note_on_c, 4, 74, 90
6, 18748, Note_on_c, 4, 74, 0
6, 18750, Note_on_c, 4, 72, 90
6, 18763, Note_on_c, 4, 72, 0
6, 18765, Note_on_c, 4, 70, 90
6, 18778, Note_on_c, 4, 70, 0
6, 18780, Note_on_c, 4, 72, 90
6, 18806, Note_on_c, 4, 72, 0
6, 18810, Note_on_c, 4, 69, 90
6, 18836, Note_on_c, 4, 69, 0
6, 18840, Note_on_c, 4, 70, 90
6, 18892, Note_on_c, 4, 70, 0
6, 18900, Note_on_c, 4, 65, 90
6, 18930, Note_on_c, 4, 69, 90
6, 18956, Note_on_c, 4, 69, 0
6, 18960, Note_on_c, 4, 70, 90
6, 19020, Note_on_c, 4, 74, 90
6, 19072, Note_on_c, 4, 74, 0
6, 19072, Note_on_c, 4, 70, 0
6, 19072, Note_on_c, 4, 65, 0
6, 19080, Note_on_c, 4, 75, 90
6, 19372, Note_on_c, 4, 75, 0
6, 19380, Note_on_c, 4, 72, 90
6, 19406, Note_on_c, 4, 72, 0
6, 19410, Note_on_c, 4, 74, 90
6, 19436, Note_on_c, 4, 74, 0
6, 19440, Note_on_c, 4, 75, 90
6, 19466, Note_on_c, 4, 75, 0
6, 19470, Note_on_c, 4, 74, 90
6, 19496, Note_on_c, 4, 74, 0
6, 19500, Note_on_c, 4, 72, 90
6, 19552, Note_on_c, 4, 72, 0
6, 19560, Note_on_c, 4, 74, 90
6, 19725, Note_on_c, 4, 74, 0
6, 19740, Note_on_c, 4, 74, 90
6, 19792, Note_on_c, 4, 74, 0
6, 19800, Note_on_c, 4, 74, 90
6, 19946, Note_on_c, 4, 74, 0
6, 19950, Note_on_c, 4, 72, 90
6, 19976, Note_on_c, 4, 72, 0
6, 19980, Note_on_c, 4, 70, 90
6, 20006, Note_on_c, 4, 70, 0
6, 20010, Note_on_c, 4, 69, 90
6, 20036, Note_on_c, 4, 69, 0
6, 20040, Note_on_c, 4, 70, 90
6, 20066, Note_on_c, 4, 70, 0
6, 20070, Note_on_c, 4, 65, 90
6, 20096, Note_on_c, 4, 65, 0
6, 20100, Note_on_c, 4, 70, 90
6, 20126, Note_on_c, 4, 70, 0
6, 20130, Note_on_c, 4, 72, 90
6, 20156, Note_on_c, 4, 72, 0
6, 20160, Note_on_c, 4, 74, 90
6, 20186, Note_on_c, 4, 74, 0
6, 20190, Note_on_c, 4, 75, 90
6, 20216, Note_on_c, 4, 75, 0
6, 20220, Note_on_c, 4, 77, 90
6, 20246, Note_on_c, 4, 77, 0
6, 20250, Note_on_c, 4, 79, 90
6, 20276, Note_on_c, 4, 79, 0
6, 20280, Note_on_c, 4, 80, 90
6, 20306, Note_on_c, 4, 80, 0
6, 20310, Note_on_c, 4, 79, 90
6, 20336, Note_on_c, 4, 79, 0
6, 20340, Note_on_c, 4, 77, 90
6, 20366, Note_on_c, 4, 77, 0
6, 20370, Note_on_c, 4, 75, 90
6, 20396, Note_on_c, 4, 75, 0
6, 20400, Note_on_c, 4, 74, 90
6, 20426, Note_on_c, 4, 74, 0
6, 20430, Note_on_c, 4, 75, 90
6, 20456, Note_on_c, 4, 75, 0
6, 20460, Note_on_c, 4, 77, 90
6, 20512, Note_on_c, 4, 77, 0
6, 20520, Note_on_c, 4, 71, 90
6, 20572, Note_on_c, 4, 71, 0
6, 20580, Note_on_c, 4, 74, 90
6, 20632, Note_on_c, 4, 74, 0
6, 20640, Note_on_c, 4, 77, 90
6, 20692, Note_on_c, 4, 77, 0
6, 20700, Note_on_c, 4, 80, 90
6, 20752, Note_on_c, 4, 80, 0
6, 20760, Note_on_c, 4, 79, 90
6, 20766, Note_on_c, 4, 79, 0
6, 20767, Note_on_c, 4, 80, 90
6, 20774, Note_on_c, 4, 80, 0
6, 20775, Note_on_c, 4, 79, 90
6, 20781, Note_on_c, 4, 79, 0
6, 20782, Note_on_c, 4, 80, 90
6, 20789, Note_on_c, 4, 80, 0
6, 20790, Note_on_c, 4, 79, 90
6, 20796, Note_on_c, 4, 79, 0
6, 20797, Note_on_c, 4, 80, 90
6, 20804, Note_on_c, 4, 80, 0
6, 20805, Note_on_c, 4, 79, 90
6, 20811, Note_on_c, 4, 79, 0
6, 20812, Note_on_c, 4, 80, 90
6, 20819, Note_on_c, 4, 80, 0
6, 20820, Note_on_c, 4, 79, 90
6, 20826, Note_on_c, 4, 79, 0
6, 20827, Note_on_c, 4, 80, 90
6, 20834, Note_on_c, 4, 80, 0
6, 20835, Note_on_c, 4, 79, 90
6, 20841, Note_on_c, 4, 79, 0
6, 20842, Note_on_c, 4, 80, 90
6, 20849, Note_on_c, 4, 80, 0
6, 20850, Note_on_c, 4, 79, 90
6, 20856, Note_on_c, 4, 79, 0
6, 20857, Note_on_c, 4, 80, 90
6, 20864, Note_on_c, 4, 80, 0
6, 20865, Note_on_c, 4, 79, 90
6, 20906, Note_on_c, 4, 79, 0
6, 20910, Note_on_c, 4, 77, 90
6, 20936, Note_on_c, 4, 77, 0
6, 20940, Note_on_c, 4, 75, 90
6, 20966, Note_on_c, 4, 75, 0
6, 20970, Note_on_c, 4, 74, 90
6, 20996, Note_on_c, 4, 74, 0
6, 21000, Note_on_c, 4, 75, 90
6, 21026, Note_on_c, 4, 75, 0
6, 21030, Note_on_c, 4, 74, 90
6, 21056, Note_on_c, 4, 74, 0
6, 21060, Note_on_c, 4, 72, 90
6, 21086, Note_on_c, 4, 72, 0
6, 21090, Note_on_c, 4, 70, 90
6, 21116, Note_on_c, 4, 70, 0
6, 21120, Note_on_c, 4, 68, 90
6, 21146, Note_on_c, 4, 68, 0
6, 21150, Note_on_c, 4, 70, 90
6, 21176, Note_on_c, 4, 70, 0
6, 21180, Note_on_c, 4, 72, 90
6, 21232, Note_on_c, 4, 72, 0
6, 21240, Note_on_c, 4, 65, 90
6, 21292, Note_on_c, 4, 65, 0
6, 21300, Note_on_c, 4, 68, 90
6, 21352, Note_on_c, 4, 68, 0
6, 21360, Note_on_c, 4, 72, 90
6, 21412, Note_on_c, 4, 72, 0
6, 21420, Note_on_c, 4, 75, 90
6, 21472, Note_on_c, 4, 75, 0
6, 21480, Note_on_c, 4, 74, 90
6, 21486, Note_on_c, 4, 74, 0
6, 21487, Note_on_c, 4, 75, 90
6, 21494, Note_on_c, 4, 75, 0
6, 21495, Note_on_c, 4, 74, 90
6, 21501, Note_on_c, 4, 74, 0
6, 21502, Note_on_c, 4, 75, 90
6, 21509, Note_on_c, 4, 75, 0
6, 21510, Note_on_c, 4, 74, 90
6, 21516, Note_on_c, 4, 74, 0
6, 21517, Note_on_c, 4, 75, 90
6, 21524, Note_on_c, 4, 75, 0
6, 21525, Note_on_c, 4, 74, 90
6, 21531, Note_on_c, 4, 74, 0
6, 21532, Note_on_c, 4, 75, 90
6, 21539, Note_on_c, 4, 75, 0
6, 21540, Note_on_c, 4, 74, 90
6, 21546, Note_on_c, 4, 74, 0
6, 21547, Note_on_c, 4, 75, 90
6, 21554, Note_on_c, 4, 75, 0
6, 21555, Note_on_c, 4, 74, 90
6, 21561, Note_on_c, 4, 74, 0
6, 21562, Note_on_c, 4, 75, 90
6, 21569, Note_on_c, 4, 75, 0
6, 21570, Note_on_c, 4, 74, 90
6, 21576, Note_on_c, 4, 74, 0
6, 21577, Note_on_c, 4, 75, 90
6, 21584, Note_on_c, 4, 75, 0
6, 21585, Note_on_c, 4, 74, 90
6, 21591, Note_on_c, 4, 74, 0
6, 21592, Note_on_c, 4, 75, 90
6, 21599, Note_on_c, 4, 75, 0
6, 21600, Note_on_c, 4, 74, 90
6, 21606, Note_on_c, 4, 74, 0
6, 21607, Note_on_c, 4, 75, 90
6, 21614, Note_on_c, 4, 75, 0
6, 21615, Note_on_c, 4, 74, 90
6, 21621, Note_on_c, 4, 74, 0
6, 21622, Note_on_c, 4, 75, 90
6, 21629, Note_on_c, 4, 75, 0
6, 21630, Note_on_c, 4, 74, 90
6, 21659, Note_on_c, 4, 74, 0
6, 21660, Note_on_c, 4, 72, 90
6, 21686, Note_on_c, 4, 72, 0
6, 21690, Note_on_c, 4, 71, 90
6, 21716, Note_on_c, 4, 71, 0
6, 21720, Note_on_c, 4, 72, 90
6, 21772, Note_on_c, 4, 72, 0
6, 21780, Note_on_c, 4, 63, 90
6, 21832, Note_on_c, 4, 63, 0
6, 21840, Note_on_c, 4, 63, 90
6, 21846, Note_on_c, 4, 63, 0
6, 21847, Note_on_c, 4, 65, 90
6, 21854, Note_on_c, 4, 65, 0
6, 21855, Note_on_c, 4, 63, 90
6, 21861, Note_on_c, 4, 63, 0
6, 21862, Note_on_c, 4, 65, 90
6, 21869, Note_on_c, 4, 65, 0
6, 21870, Note_on_c, 4, 62, 90
6, 21896, Note_on_c, 4, 62, 0
6, 21900, Note_on_c, 4, 63, 90
6, 21952, Note_on_c, 4, 63, 0
6, 21960, Note_on_c, 4, 69, 90
6, 22012, Note_on_c, 4, 69, 0
6, 22020, Note_on_c, 4, 66, 90
6, 22072, Note_on_c, 4, 66, 0
6, 22080, Note_on_c, 4, 66, 90
6, 22086, Note_on_c, 4, 66, 0
6, 22087, Note_on_c, 4, 67, 90
6, 22094, Note_on_c, 4, 67, 0
6, 22095, Note_on_c, 4, 66, 90
6, 22101, Note_on_c, 4, 66, 0
6, 22102, Note_on_c, 4, 67, 90
6, 22109, Note_on_c, 4, 67, 0
6, 22110, Note_on_c, 4, 64, 90
6, 22136, Note_on_c, 4, 64, 0
6, 22140, Note_on_c, 4, 66, 90
6, 22192, Note_on_c, 4, 66, 0
6, 22200, Note_on_c, 4, 75, 90
6, 22252, Note_on_c, 4, 75, 0
6, 22260, Note_on_c, 4, 71, 90
6, 22312, Note_on_c, 4, 71, 0
6, 22320, Note_on_c, 4, 71, 90
6, 22328, Note_on_c, 4, 71, 0
6, 22329, Note_on_c, 4, 72, 90
6, 22338, Note_on_c, 4, 72, 0
6, 22339, Note_on_c, 4, 71, 90
6, 22348, Note_on_c, 4, 71, 0
6, 22350, Note_on_c, 4, 69, 90
6, 22376, Note_on_c, 4, 69, 0
6, 22380, Note_on_c, 4, 71, 90
6, 22432, Note_on_c, 4, 71, 0
6, 22440, Note_on_c, 4, 72, 90
6, 22605, Note_on_c, 4, 72, 0
6, 22620, Note_on_c, 4, 72, 90
6, 22672, Note_on_c, 4, 72, 0
6, 22680, Note_on_c, 4, 72, 90
6, 22826, Note_on_c, 4, 72, 0
6, 22830, Note_on_c, 4, 67, 90
6, 22856, Note_on_c, 4, 67, 0
6, 22860, Note_on_c, 4, 69, 90
6, 22886, Note_on_c, 4, 69, 0
6, 22890, Note_on_c, 4, 71, 90
6, 22916, Note_on_c, 4, 71, 0
6, 22920, Note_on_c, 4, 72, 90
6, 22946, Note_on_c, 4, 72, 0
6, 22950, Note_on_c, 4, 74, 90
6, 22976, Note_on_c, 4, 74, 0
6, 22980, Note_on_c, 4, 72, 90
6, 23006, Note_on_c, 4, 72, 0
6, 23010, Note_on_c, 4, 71, 90
6, 23036, Note_on_c, 4, 71, 0
6, 23040, Note_on_c, 4, 72, 90
6, 23092, Note_on_c, 4, 72, 0
6, 23100, Note_on_c, 4, 74, 90
6, 23152, Note_on_c, 4, 74, 0
6, 23160, Note_on_c, 4, 74, 90
6, 23186, Note_on_c, 4, 74, 0
6, 23190, Note_on_c, 4, 75, 90
6, 23203, Note_on_c, 4, 75, 0
6, 23205, Note_on_c, 4, 77, 90
6, 23218, Note_on_c, 4, 77, 0
6, 23220, Note_on_c, 4, 75, 90
6, 23226, Note_on_c, 4, 75, 0
6, 23227, Note_on_c, 4, 77, 90
6, 23234, Note_on_c, 4, 77, 0
6, 23235, Note_on_c, 4, 75, 90
6, 23241, Note_on_c, 4, 75, 0
6, 23242, Note_on_c, 4, 77, 90
6, 23249, Note_on_c, 4, 77, 0
6, 23250, Note_on_c, 4, 75, 90
6, 23256, Note_on_c, 4, 75, 0
6, 23257, Note_on_c, 4, 77, 90
6, 23264, Note_on_c, 4, 77, 0
6, 23265, Note_on_c, 4, 75, 90
6, 23271, Note_on_c, 4, 75, 0
6, 23272, Note_on_c, 4, 77, 90
6, 23279, Note_on_c, 4, 77, 0
6, 23280, Note_on_c, 4, 75, 90
6, 23286, Note_on_c, 4, 75, 0
6, 23287, Note_on_c, 4, 77, 90
6, 23294, Note_on_c, 4, 77, 0
6, 23295, Note_on_c, 4, 75, 90
6, 23301, Note_on_c, 4, 75, 0
6, 23302, Note_on_c, 4, 77, 90
6, 23309, Note_on_c, 4, 77, 0
6, 23310, Note_on_c, 4, 75, 90
6, 23316, Note_on_c, 4, 75, 0
6, 23317, Note_on_c, 4, 77, 90
6, 23324, Note_on_c, 4, 77, 0
6, 23325, Note_on_c, 4, 75, 90
6, 23331, Note_on_c, 4, 75, 0
6, 23332, Note_on_c, 4, 77, 90
6, 23339, Note_on_c, 4, 77, 0
6, 23340, Note_on_c, 4, 75, 90
6, 23346, Note_on_c, 4, 75, 0
6, 23347, Note_on_c, 4, 77, 90
6, 23354, Note_on_c, 4, 77, 0
6, 23355, Note_on_c, 4, 75, 90
6, 23361, Note_on_c, 4, 75, 0
6, 23362, Note_on_c, 4, 77, 90
6, 23369, Note_on_c, 4, 77, 0
6, 23370, Note_on_c, 4, 75, 90
6, 23376, Note_on_c, 4, 75, 0
6, 23377, Note_on_c, 4, 77, 90
6, 23384, Note_on_c, 4, 77, 0
6, 23385, Note_on_c, 4, 75, 90
6, 23391, Note_on_c, 4, 75, 0
6, 23392, Note_on_c, 4, 77, 90
6, 23399, Note_on_c, 4, 77, 0
6, 23400, Note_on_c, 4, 75, 90
6, 23406, Note_on_c, 4, 75, 0
6, 23407, Note_on_c, 4, 77, 90
6, 23414, Note_on_c, 4, 77, 0
6, 23415, Note_on_c, 4, 75, 90
6, 23421, Note_on_c, 4, 75, 0
6, 23422, Note_on_c, 4, 77, 90
6, 23429, Note_on_c, 4, 77, 0
6, 23430, Note_on_c, 4, 75, 90
6, 23436, Note_on_c, 4, 75, 0
6, 23437, Note_on_c, 4, 77, 90
6, 23444, Note_on_c, 4, 77, 0
6, 23445, Note_on_c, 4, 75, 90
6, 23451, Note_on_c, 4, 75, 0
6, 23452, Note_on_c, 4, 77, 90
6, 23459, Note_on_c, 4, 77, 0
6, 23460, Note_on_c, 4, 75, 90
6, 23466, Note_on_c, 4, 75, 0
6, 23467, Note_on_c, 4, 77, 90
6, 23474, Note_on_c, 4, 77, 0
6, 23475, Note_on_c, 4, 75, 90
6, 23481, Note_on_c, 4, 75, 0
6, 23482, Note_on_c, 4, 77, 90
6, 23489, Note_on_c, 4, 77, 0
6, 23490, Note_on_c, 4, 75, 90
6, 23496, Note_on_c, 4, 75, 0
6, 23497, Note_on_c, 4, 77, 90
6, 23504, Note_on_c, 4, 77, 0
6, 23505, Note_on_c, 4, 75, 90
6, 23511, Note_on_c, 4, 75, 0
6, 23512, Note_on_c, 4, 77, 90
6, 23519, Note_on_c, 4, 77, 0
6, 23520, Note_on_c, 4, 75, 90
6, 23526, Note_on_c, 4, 75, 0
6, 23527, Note_on_c, 4, 77, 90
6, 23534, Note_on_c, 4, 77, 0
6, 23535, Note_on_c, 4, 75, 90
6, 23541, Note_on_c, 4, 75, 0
6, 23542, Note_on_c, 4, 77, 90
6, 23549, Note_on_c, 4, 77, 0
6, 23550, Note_on_c, 4, 75, 90
6, 23556, Note_on_c, 4, 75, 0
6, 23557, Note_on_c, 4, 77, 90
6, 23564, Note_on_c, 4, 77, 0
6, 23565, Note_on_c, 4, 75, 90
6, 23571, Note_on_c, 4, 75, 0
6, 23572, Note_on_c, 4, 77, 90
6, 23579, Note_on_c, 4, 77, 0
6, 23580, Note_on_c, 4, 75, 90
6, 23586, Note_on_c, 4, 75, 0
6, 23587, Note_on_c, 4, 77, 90
6, 23594, Note_on_c, 4, 77, 0
6, 23595, Note_on_c, 4, 75, 90
6, 23601, Note_on_c, 4, 75, 0
6, 23602, Note_on_c, 4, 77, 90
6, 23609, Note_on_c, 4, 77, 0
6, 23610, Note_on_c, 4, 75, 90
6, 23616, Note_on_c, 4, 75, 0
6, 23617, Note_on_c, 4, 77, 90
6, 23624, Note_on_c, 4, 77, 0
6, 23625, Note_on_c, 4, 75, 90
6, 23631, Note_on_c, 4, 75, 0
6, 23632, Note_on_c, 4, 77, 90
6, 23639, Note_on_c, 4, 77, 0
6, 23640, Note_on_c, 4, 75, 90
6, 23646, Note_on_c, 4, 75, 0
6, 23647, Note_on_c, 4, 77, 90
6, 23654, Note_on_c, 4, 77, 0
6, 23655, Note_on_c, 4, 75, 90
6, 23661, Note_on_c, 4, 75, 0
6, 23662, Note_on_c, 4, 77, 90
6, 23669, Note_on_c, 4, 77, 0
6, 23670, Note_on_c, 4, 75, 90
6, 23676, Note_on_c, 4, 75, 0
6, 23677, Note_on_c, 4, 77, 90
6, 23684, Note_on_c, 4, 77, 0
6, 23685, Note_on_c, 4, 75, 90
6, 23691, Note_on_c, 4, 75, 0
6, 23692, Note_on_c, 4, 77, 90
6, 23699, Note_on_c, 4, 77, 0
6, 23700, Note_on_c, 4, 75, 90
6, 23706, Note_on_c, 4, 75, 0
6, 23707, Note_on_c, 4, 77, 90
6, 23714, Note_on_c, 4, 77, 0
6, 23715, Note_on_c, 4, 75, 90
6, 23721, Note_on_c, 4, 75, 0
6, 23722, Note_on_c, 4, 77, 90
6, 23729, Note_on_c, 4, 77, 0
6, 23730, Note_on_c, 4, 75, 90
6, 23736, Note_on_c, 4, 75, 0
6, 23737, Note_on_c, 4, 77, 90
6, 23744, Note_on_c, 4, 77, 0
6, 23745, Note_on_c, 4, 75, 90
6, 23751, Note_on_c, 4, 75, 0
6, 23752, Note_on_c, 4, 77, 90
6, 23759, Note_on_c, 4, 77, 0
6, 23760, Note_on_c, 4, 75, 90
6, 23766, Note_on_c, 4, 75, 0
6, 23767, Note_on_c, 4, 77, 90
6, 23774, Note_on_c, 4, 77, 0
6, 23775, Note_on_c, 4, 75, 90
6, 23781, Note_on_c, 4, 75, 0
6, 23782, Note_on_c, 4, 77, 90
6, 23789, Note_on_c, 4, 77, 0
6, 23790, Note_on_c, 4, 75, 90
6, 23796, Note_on_c, 4, 75, 0
6, 23797, Note_on_c, 4, 77, 90
6, 23804, Note_on_c, 4, 77, 0
6, 23805, Note_on_c, 4, 75, 90
6, 23811, Note_on_c, 4, 75, 0
6, 23812, Note_on_c, 4, 77, 90
6, 23819, Note_on_c, 4, 77, 0
6, 23820, Note_on_c, 4, 75, 90
6, 23826, Note_on_c, 4, 75, 0
6, 23827, Note_on_c, 4, 77, 90
6, 23834, Note_on_c, 4, 77, 0
6, 23835, Note_on_c, 4, 75, 90
6, 23841, Note_on_c, 4, 75, 0
6, 23842, Note_on_c, 4, 77, 90
6, 23849, Note_on_c, 4, 77, 0
6, 23850, Note_on_c, 4, 75, 90
6, 23856, Note_on_c, 4, 75, 0
6, 23857, Note_on_c, 4, 77, 90
6, 23864, Note_on_c, 4, 77, 0
6, 23865, Note_on_c, 4, 75, 90
6, 23871, Note_on_c, 4, 75, 0
6, 23872, Note_on_c, 4, 77, 90
6, 23879, Note_on_c, 4, 77, 0
6, 23880, Note_on_c, 4, 75, 90
6, 23886, Note_on_c, 4, 75, 0
6, 23887, Note_on_c, 4, 77, 90
6, 23894, Note_on_c, 4, 77, 0
6, 23895, Note_on_c, 4, 75, 90
6, 23901, Note_on_c, 4, 75, 0
6, 23902, Note_on_c, 4, 77, 90
6, 23909, Note_on_c, 4, 77, 0
6, 23910, Note_on_c, 4, 75, 90
6, 23916, Note_on_c, 4, 75, 0
6, 23917, Note_on_c, 4, 77, 90
6, 23924, Note_on_c, 4, 77, 0
6, 23925, Note_on_c, 4, 75, 90
6, 23931, Note_on_c, 4, 75, 0
6, 23932, Note_on_c, 4, 77, 90
6, 23939, Note_on_c, 4, 77, 0
6, 23940, Note_on_c, 4, 75, 90
6, 23946, Note_on_c, 4, 75, 0
6, 23947, Note_on_c, 4, 77, 90
6, 23954, Note_on_c, 4, 77, 0
6, 23955, Note_on_c, 4, 75, 90
6, 23961, Note_on_c, 4, 75, 0
6, 23962, Note_on_c, 4, 77, 90
6, 23969, Note_on_c, 4, 77, 0
6, 23970, Note_on_c, 4, 75, 90
6, 23976, Note_on_c, 4, 75, 0
6, 23977, Note_on_c, 4, 77, 90
6, 23984, Note_on_c, 4, 77, 0
6, 23985, Note_on_c, 4, 75, 90
6, 23991, Note_on_c, 4, 75, 0
6, 23992, Note_on_c, 4, 77, 90
6, 23999, Note_on_c, 4, 77, 0
6, 24000, Note_on_c, 4, 75, 90
6, 24006, Note_on_c, 4, 75, 0
6, 24007, Note_on_c, 4, 77, 90
6, 24014, Note_on_c, 4, 77, 0
6, 24015, Note_on_c, 4, 75, 90
6, 24021, Note_on_c, 4, 75, 0
6, 24022, Note_on_c, 4, 77, 90
6, 24029, Note_on_c, 4, 77, 0
6, 24030, Note_on_c, 4, 75, 90
6, 24036, Note_on_c, 4, 75, 0
6, 24037, Note_on_c, 4, 77, 90
6, 24044, Note_on_c, 4, 77, 0
6, 24045, Note_on_c, 4, 75, 90
6, 24051, Note_on_c, 4, 75, 0
6, 24052, Note_on_c, 4, 77, 90
6, 24059, Note_on_c, 4, 77, 0
6, 24060, Note_on_c, 4, 75, 90
6, 24066, Note_on_c, 4, 75, 0
6, 24067, Note_on_c, 4, 77, 90
6, 24074, Note_on_c, 4, 77, 0
6, 24075, Note_on_c, 4, 75, 90
6, 24081, Note_on_c, 4, 75, 0
6, 24082, Note_on_c, 4, 77, 90
6, 24089, Note_on_c, 4, 77, 0
6, 24090, Note_on_c, 4, 75, 90
6, 24096, Note_on_c, 4, 75, 0
6, 24097, Note_on_c, 4, 77, 90
6, 24104, Note_on_c, 4, 77, 0
6, 24105, Note_on_c, 4, 75, 90
6, 24111, Note_on_c, 4, 75, 0
6, 24112, Note_on_c, 4, 77, 90
6, 24119, Note_on_c, 4, 77, 0
6, 24120, Note_on_c, 4, 75, 90
6, 24126, Note_on_c, 4, 75, 0
6, 24127, Note_on_c, 4, 77, 90
6, 24134, Note_on_c, 4, 77, 0
6, 24135, Note_on_c, 4, 75, 90
6, 24141, Note_on_c, 4, 75, 0
6, 24142, Note_on_c, 4, 77, 90
6, 24149, Note_on_c, 4, 77, 0
6, 24150, Note_on_c, 4, 75, 90
6, 24156, Note_on_c, 4, 75, 0
6, 24157, Note_on_c, 4, 77, 90
6, 24164, Note_on_c, 4, 77, 0
6, 24165, Note_on_c, 4, 75, 90
6, 24171, Note_on_c, 4, 75, 0
6, 24172, Note_on_c, 4, 77, 90
6, 24179, Note_on_c, 4, 77, 0
6, 24180, Note_on_c, 4, 75, 90
6, 24186, Note_on_c, 4, 75, 0
6, 24187, Note_on_c, 4, 77, 90
6, 24194, Note_on_c, 4, 77, 0
6, 24195, Note_on_c, 4, 75, 90
6, 24201, Note_on_c, 4, 75, 0
6, 24202, Note_on_c, 4, 77, 90
6, 24209, Note_on_c, 4, 77, 0
6, 24210, Note_on_c, 4, 75, 90
6, 24216, Note_on_c, 4, 75, 0
6, 24217, Note_on_c, 4, 77, 90
6, 24224, Note_on_c, 4, 77, 0
6, 24225, Note_on_c, 4, 75, 90
6, 24231, Note_on_c, 4, 75, 0
6, 24232, Note_on_c, 4, 77, 90
6, 24239, Note_on_c, 4, 77, 0
6, 24240, Note_on_c, 4, 75, 90
6, 24246, Note_on_c, 4, 75, 0
6, 24247, Note_on_c, 4, 77, 90
6, 24254, Note_on_c, 4, 77, 0
6, 24255, Note_on_c, 4, 75, 90
6, 24261, Note_on_c, 4, 75, 0
6, 24262, Note_on_c, 4, 77, 90
6, 24269, Note_on_c, 4, 77, 0
6, 24270, Note_on_c, 4, 75, 90
6, 24276, Note_on_c, 4, 75, 0
6, 24277, Note_on_c, 4, 77, 90
6, 24284, Note_on_c, 4, 77, 0
6, 24285, Note_on_c, 4, 75, 90
6, 24291, Note_on_c, 4, 75, 0
6, 24292, Note_on_c, 4, 77, 90
6, 24299, Note_on_c, 4, 77, 0
6, 24300, Note_on_c, 4, 75, 90
6, 24306, Note_on_c, 4, 75, 0
6, 24307, Note_on_c, 4, 77, 90
6, 24314, Note_on_c, 4, 77, 0
6, 24315, Note_on_c, 4, 75, 90
6, 24321, Note_on_c, 4, 75, 0
6, 24322, Note_on_c, 4, 77, 90
6, 24329, Note_on_c, 4, 77, 0
6, 24330, Note_on_c, 4, 75, 90
6, 24336, Note_on_c, 4, 75, 0
6, 24337, Note_on_c, 4, 77, 90
6, 24344, Note_on_c, 4, 77, 0
6, 24345, Note_on_c, 4, 75, 90
6, 24351, Note_on_c, 4, 75, 0
6, 24352, Note_on_c, 4, 77, 90
6, 24359, Note_on_c, 4, 77, 0
6, 24360, Note_on_c, 4, 75, 90
6, 24366, Note_on_c, 4, 75, 0
6, 24367, Note_on_c, 4, 77, 90
6, 24374, Note_on_c, 4, 77, 0
6, 24375, Note_on_c, 4, 75, 90
6, 24381, Note_on_c, 4, 75, 0
6, 24382, Note_on_c, 4, 77, 90
6, 24389, Note_on_c, 4, 77, 0
6, 24390, Note_on_c, 4, 75, 90
6, 24396, Note_on_c, 4, 75, 0
6, 24397, Note_on_c, 4, 77, 90
6, 24404, Note_on_c, 4, 77, 0
6, 24405, Note_on_c, 4, 75, 90
6, 24411, Note_on_c, 4, 75, 0
6, 24412, Note_on_c, 4, 77, 90
6, 24419, Note_on_c, 4, 77, 0
6, 24420, Note_on_c, 4, 75, 90
6, 24426, Note_on_c, 4, 75, 0
6, 24427, Note_on_c, 4, 77, 90
6, 24434, Note_on_c, 4, 77, 0
6, 24435, Note_on_c, 4, 75, 90
6, 24441, Note_on_c, 4, 75, 0
6, 24442, Note_on_c, 4, 77, 90
6, 24449, Note_on_c, 4, 77, 0
6, 24450, Note_on_c, 4, 75, 90
6, 24456, Note_on_c, 4, 75, 0
6, 24457, Note_on_c, 4, 77, 90
6, 24464, Note_on_c, 4, 77, 0
6, 24465, Note_on_c, 4, 75, 90
6, 24471, Note_on_c, 4, 75, 0
6, 24472, Note_on_c, 4, 77, 90
6, 24479, Note_on_c, 4, 77, 0
6, 24480, Note_on_c, 4, 75, 90
6, 24486, Note_on_c, 4, 75, 0
6, 24487, Note_on_c, 4, 77, 90
6, 24494, Note_on_c, 4, 77, 0
6, 24495, Note_on_c, 4, 75, 90
6, 24501, Note_on_c, 4, 75, 0
6, 24502, Note_on_c, 4, 77, 90
6, 24509, Note_on_c, 4, 77, 0
6, 24510, Note_on_c, 4, 75, 90
6, 24516, Note_on_c, 4, 75, 0
6, 24517, Note_on_c, 4, 77, 90
6, 24524, Note_on_c, 4, 77, 0
6, 24525, Note_on_c, 4, 75, 90
6, 24531, Note_on_c, 4, 75, 0
6, 24532, Note_on_c, 4, 77, 90
6, 24539, Note_on_c, 4, 77, 0
6, 24540, Note_on_c, 4, 75, 90
6, 24546, Note_on_c, 4, 75, 0
6, 24547, Note_on_c, 4, 77, 90
6, 24554, Note_on_c, 4, 77, 0
6, 24555, Note_on_c, 4, 75, 90
6, 24561, Note_on_c, 4, 75, 0
6, 24562, Note_on_c, 4, 77, 90
6, 24569, Note_on_c, 4, 77, 0
6, 24570, Note_on_c, 4, 75, 90
6, 24576, Note_on_c, 4, 75, 0
6, 24577, Note_on_c, 4, 77, 90
6, 24584, Note_on_c, 4, 77, 0
6, 24585, Note_on_c, 4, 75, 90
6, 24591, Note_on_c, 4, 75, 0
6, 24592, Note_on_c, 4, 77, 90
6, 24599, Note_on_c, 4, 77, 0
6, 24600, Note_on_c, 4, 75, 90
6, 24652, Note_on_c, 4, 75, 0
6, 24660, Note_on_c, 4, 74, 90
6, 24686, Note_on_c, 4, 74, 0
6, 24690, Note_on_c, 4, 72, 90
6, 24716, Note_on_c, 4, 72, 0
6, 24720, Note_on_c, 4, 74, 90
6, 24772, Note_on_c, 4, 74, 0
6, 24780, Note_on_c, 4, 82, 90
6, 24892, Note_on_c, 4, 82, 0
6, 24900, Note_on_c, 4, 81, 90
6, 24926, Note_on_c, 4, 81, 0
6, 24930, Note_on_c, 4, 79, 90
6, 24956, Note_on_c, 4, 79, 0
6, 24960, Note_on_c, 4, 81, 90
6, 25012, Note_on_c, 4, 81, 0
6, 25020, Note_on_c, 4, 72, 90
6, 25132, Note_on_c, 4, 72, 0
6, 25140, Note_on_c, 4, 70, 90
6, 25166, Note_on_c, 4, 70, 0
6, 25170, Note_on_c, 4, 69, 90
6, 25196, Note_on_c, 4, 69, 0
6, 25200, Note_on_c, 4, 70, 90
6, 25252, Note_on_c, 4, 70, 0
6, 25260, Note_on_c, 4, 79, 90
6, 25312, Note_on_c, 4, 79, 0
6, 25320, Note_on_c, 4, 70, 90
6, 25326, Note_on_c, 4, 70, 0
6, 25327, Note_on_c, 4, 72, 90
6, 25334, Note_on_c, 4, 72, 0
6, 25335, Note_on_c, 4, 70, 90
6, 25341, Note_on_c, 4, 70, 0
6, 25342, Note_on_c, 4, 72, 90
6, 25349, Note_on_c, 4, 72, 0
6, 25350, Note_on_c, 4, 70, 90
6, 25356, Note_on_c, 4, 70, 0
6, 25357, Note_on_c, 4, 72, 90
6, 25364, Note_on_c, 4, 72, 0
6, 25365, Note_on_c, 4, 70, 90
6, 25436, Note_on_c, 4, 70, 0
6, 25440, Note_on_c, 4, 70, 90
6, 25446, Note_on_c, 4, 70, 0
6, 25447, Note_on_c, 4, 69, 90
6, 25467, Note_on_c, 4, 69, 0
6, 25470, Note_on_c, 4, 67, 90
6, 25496, Note_on_c, 4, 67, 0
6, 25500, Note_on_c, 4, 69, 90
6, 25526, Note_on_c, 4, 69, 0
6, 25530, Note_on_c, 4, 72, 90
6, 25556, Note_on_c, 4, 72, 0
6, 25560, Note_on_c, 4, 65, 90
6, 26092, Note_on_c, 4, 65, 0
6, 26100, Note_on_c, 4, 58, 90
6, 26126, Note_on_c, 4, 58, 0
6, 26130, Note_on_c, 4, 60, 90
6, 26156, Note_on_c, 4, 60, 0
6, 26160, Note_on_c, 4, 62, 90
6, 26212, Note_on_c, 4, 62, 0
6, 26220, Note_on_c, 4, 65, 90
6, 26272, Note_on_c, 4, 65, 0
6, 26280, Note_on_c, 4, 65, 90
6, 26332, Note_on_c, 4, 65, 0
6, 26340, Note_on_c, 4, 62, 90
6, 26366, Note_on_c, 4, 62, 0
6, 26370, Note_on_c, 4, 63, 90
6, 26396, Note_on_c, 4, 63, 0
6, 26400, Note_on_c, 4, 65, 90
6, 26452, Note_on_c, 4, 65, 0
6, 26460, Note_on_c, 4, 68, 90
6, 26512, Note_on_c, 4, 68, 0
6, 26520, Note_on_c, 4, 68, 90
6, 26812, Note_on_c, 4, 68, 0
6, 26820, Note_on_c, 4, 67, 90
6, 26846, Note_on_c, 4, 67, 0
6, 26850, Note_on_c, 4, 68, 90
6, 26876, Note_on_c, 4, 68, 0
6, 26880, Note_on_c, 4, 70, 90
6, 26932, Note_on_c, 4, 70, 0
6, 26940, Note_on_c, 4, 73, 90
6, 26992, Note_on_c, 4, 73, 0
6, 27000, Note_on_c, 4, 73, 90
6, 27052, Note_on_c, 4, 73, 0
6, 27060, Note_on_c, 4, 70, 90
6, 27086, Note_on_c, 4, 70, 0
6, 27090, Note_on_c, 4, 72, 90
6, 27116, Note_on_c, 4, 72, 0
6, 27120, Note_on_c, 4, 73, 90
6, 27172, Note_on_c, 4, 73, 0
6, 27180, Note_on_c, 4, 79, 90
6, 27232, Note_on_c, 4, 79, 0
6, 27240, Note_on_c, 4, 79, 90
6, 27292, Note_on_c, 4, 79, 0
6, 27300, Note_on_c, 4, 70, 90
6, 27352, Note_on_c, 4, 70, 0
6, 27360, Note_on_c, 4, 69, 90
6, 27412, Note_on_c, 4, 69, 0
6, 27420, Note_on_c, 4, 70, 90
6, 27506, Note_on_c, 4, 70, 0
6, 27510, Note_on_c, 4, 62, 90
6, 27536, Note_on_c, 4, 62, 0
6, 27540, Note_on_c, 4, 63, 90
6, 27566, Note_on_c, 4, 63, 0
6, 27570, Note_on_c, 4, 65, 90
6, 27596, Note_on_c, 4, 65, 0
6, 27600, Note_on_c, 4, 67, 90
6, 27626, Note_on_c, 4, 67, 0
6, 27630, Note_on_c, 4, 69, 90
6, 27656, Note_on_c, 4, 69, 0
6, 27660, Note_on_c, 4, 70, 90
6, 27686, Note_on_c, 4, 70, 0
6, 27690, Note_on_c, 4, 72, 90
6, 27716, Note_on_c, 4, 72, 0
6, 27720, Note_on_c, 4, 74, 90
6, 27772, Note_on_c, 4, 74, 0
6, 27780, Note_on_c, 4, 75, 90
6, 27806, Note_on_c, 4, 75, 0
6, 27810, Note_on_c, 4, 74, 90
6, 27836, Note_on_c, 4, 74, 0
6, 27840, Note_on_c, 4, 72, 90
6, 27866, Note_on_c, 4, 72, 0
6, 27870, Note_on_c, 4, 74, 90
6, 27896, Note_on_c, 4, 74, 0
6, 27900, Note_on_c, 4, 75, 90
6, 27926, Note_on_c, 4, 75, 0
6, 27930, Note_on_c, 4, 72, 90
6, 27956, Note_on_c, 4, 72, 0
6, 27960, Note_on_c, 4, 70, 90
6, 28012, Note_on_c, 4, 70, 0
6, 28020, Note_on_c, 4, 67, 90
6, 28072, Note_on_c, 4, 67, 0
6, 28080, Note_on_c, 4, 69, 90
6, 28086, Note_on_c, 4, 69, 0
6, 28087, Note_on_c, 4, 70, 90
6, 28094, Note_on_c, 4, 70, 0
6, 28095, Note_on_c, 4, 69, 90
6, 28101, Note_on_c, 4, 69, 0
6, 28102, Note_on_c, 4, 70, 90
6, 28109, Note_on_c, 4, 70, 0
6, 28110, Note_on_c, 4, 69, 90
6, 28116, Note_on_c, 4, 69, 0
6, 28117, Note_on_c, 4, 70, 90
6, 28124, Note_on_c, 4, 70, 0
6, 28125, Note_on_c, 4, 69, 90
6, 28139, Note_on_c, 4, 69, 0
6, 28140, Note_on_c, 4, 70, 90
6, 28192, Note_on_c, 4, 70, 0
6, 28200, Note_on_c, 4, 70, 90
6, 28425, Note_on_c, 4, 70, 0
6, 28440, Note_on_c, 4, 70, 90
6, 28845, Note_on_c, 4, 70, 0
6, 28890, Control_c, 4, 7, 0
6, 28920, Note_on_c, 4, 72, 90
6, 29085, Note_on_c, 4, 72, 0
6, 29100, Note_on_c, 4, 72, 90
6, 29152, Note_on_c, 4, 72, 0
6, 29160, Note_on_c, 4, 72, 90
6, 29306, Note_on_c, 4, 72, 0
6, 29310, Note_on_c, 4, 74, 90
6, 29336, Note_on_c, 4, 74, 0
6, 29340, Note_on_c, 4, 72, 90
6, 29366, Note_on_c, 4, 72, 0
6, 29370, Note_on_c, 4, 70, 90
6, 29396, Note_on_c, 4, 70, 0
6, 29400, Note_on_c, 4, 72, 90
6, 29426, Note_on_c, 4, 72, 0
6, 29430, Note_on_c, 4, 70, 90
6, 29456, Note_on_c, 4, 70, 0
6, 29460, Note_on_c, 4, 69, 90
6, 29486, Note_on_c, 4, 69, 0
6, 29490, Note_on_c, 4, 70, 90
6, 29516, Note_on_c, 4, 70, 0
6, 29520, Note_on_c, 4, 69, 90
6, 29546, Note_on_c, 4, 69, 0
6, 29550, Note_on_c, 4, 67, 90
6, 29576, Note_on_c, 4, 67, 0
6, 29580, Note_on_c, 4, 69, 90
6, 29593, Note_on_c, 4, 69, 0
6, 29595, Note_on_c, 4, 67, 90
6, 29608, Note_on_c, 4, 67, 0
6, 29610, Note_on_c, 4, 65, 90
6, 29636, Note_on_c, 4, 65, 0
6, 29640, Note_on_c, 4, 77, 90
6, 29805, Note_on_c, 4, 77, 0
6, 29820, Note_on_c, 4, 77, 90
6, 29872, Note_on_c, 4, 77, 0
6, 29880, Note_on_c, 4, 77, 90
6, 30026, Note_on_c, 4, 77, 0
6, 30030, Note_on_c, 4, 79, 90
6, 30056, Note_on_c, 4, 79, 0
6, 30060, Note_on_c, 4, 77, 90
6, 30086, Note_on_c, 4, 77, 0
6, 30090, Note_on_c, 4, 75, 90
6, 30116, Note_on_c, 4, 75, 0
6, 30120, Note_on_c, 4, 77, 90
6, 30146, Note_on_c, 4, 77, 0
6, 30150, Note_on_c, 4, 75, 90
6, 30176, Note_on_c, 4, 75, 0
6, 30180, Note_on_c, 4, 74, 90
6, 30206, Note_on_c, 4, 74, 0
6, 30210, Note_on_c, 4, 75, 90
6, 30223, Note_on_c, 4, 75, 0
6, 30225, Note_on_c, 4, 74, 90
6, 30238, Note_on_c, 4, 74, 0
6, 30240, Note_on_c, 4, 72, 90
6, 30253, Note_on_c, 4, 72, 0
6, 30255, Note_on_c, 4, 74, 90
6, 30268, Note_on_c, 4, 74, 0
6, 30270, Note_on_c, 4, 72, 90
6, 30283, Note_on_c, 4, 72, 0
6, 30285, Note_on_c, 4, 70, 90
6, 30298, Note_on_c, 4, 70, 0
6, 30300, Note_on_c, 4, 72, 90
6, 30326, Note_on_c, 4, 72, 0
6, 30330, Note_on_c, 4, 69, 90
6, 30356, Note_on_c, 4, 69, 0
6, 30360, Note_on_c, 4, 70, 90
6, 30412, Note_on_c, 4, 70, 0
6, 30420, Note_on_c, 4, 65, 90
6, 30450, Note_on_c, 4, 69, 90
6, 30476, Note_on_c, 4, 69, 0
6, 30480, Note_on_c, 4, 70, 90
6, 30540, Note_on_c, 4, 74, 90
6, 30592, Note_on_c, 4, 74, 0
6, 30592, Note_on_c, 4, 70, 0
6, 30592, Note_on_c, 4, 65, 0
6, 30600, Note_on_c, 4, 75, 90
6, 30892, Note_on_c, 4, 75, 0
6, 30900, Note_on_c, 4, 72, 90
6, 30926, Note_on_c, 4, 72, 0
6, 30930, Note_on_c, 4, 74, 90
6, 30956, Note_on_c, 4, 74, 0
6, 30960, Note_on_c, 4, 75, 90
6, 30986, Note_on_c, 4, 75, 0
6, 30990, Note_on_c, 4, 74, 90
6, 31016, Note_on_c, 4, 74, 0
6, 31020, Note_on_c, 4, 72, 90
6, 31072, Note_on_c, 4, 72, 0
6, 31080, Note_on_c, 4, 74, 90
6, 31245, Note_on_c, 4, 74, 0
6, 31260, Note_on_c, 4, 74, 90
6, 31312, Note_on_c, 4, 74, 0
6, 31320, Note_on_c, 4, 74, 90
6, 31466, Note_on_c, 4, 74, 0
6, 31470, Note_on_c, 4, 72, 90
6, 31496, Note_on_c, 4, 72, 0
6, 31500, Note_on_c, 4, 70, 90
6, 31526, Note_on_c, 4, 70, 0
6, 31530, Note_on_c, 4, 69, 90
6, 31556, Note_on_c, 4, 69, 0
6, 31560, Note_on_c, 4, 70, 90
6, 31586, Note_on_c, 4, 70, 0
6, 31590, Note_on_c, 4, 65, 90
6, 31616, Note_on_c, 4, 65, 0
6, 31620, Note_on_c, 4, 70, 90
6, 31646, Note_on_c, 4, 70, 0
6, 31650, Note_on_c, 4, 72, 90
6, 31676, Note_on_c, 4, 72, 0
6, 31680, Note_on_c, 4, 74, 90
6, 31706, Note_on_c, 4, 74, 0
6, 31710, Note_on_c, 4, 75, 90
6, 31736, Note_on_c, 4, 75, 0
6, 31740, Note_on_c, 4, 77, 90
6, 31766, Note_on_c, 4, 77, 0
6, 31770, Note_on_c, 4, 79, 90
6, 31796, Note_on_c, 4, 79, 0
6, 31800, Note_on_c, 4, 80, 90
6, 31826, Note_on_c, 4, 80, 0
6, 31830, Note_on_c, 4, 79, 90
6, 31856, Note_on_c, 4, 79, 0
6, 31860, Note_on_c, 4, 77, 90
6, 31886, Note_on_c, 4, 77, 0
6, 31890, Note_on_c, 4, 75, 90
6, 31916, Note_on_c, 4, 75, 0
6, 31920, Note_on_c, 4, 74, 90
6, 31946, Note_on_c, 4, 74, 0
6, 31950, Note_on_c, 4, 75, 90
6, 31976, Note_on_c, 4, 75, 0
6, 31980, Note_on_c, 4, 77, 90
6, 32032, Note_on_c, 4, 77, 0
6, 32040, Note_on_c, 4, 71, 90
6, 32092, Note_on_c, 4, 71, 0
6, 32100, Note_on_c, 4, 74, 90
6, 32152, Note_on_c, 4, 74, 0
6, 32160, Note_on_c, 4, 77, 90
6, 32212, Note_on_c, 4, 77, 0
6, 32220, Note_on_c, 4, 80, 90
6, 32272, Note_on_c, 4, 80, 0
6, 32280, Note_on_c, 4, 79, 90
6, 32286, Note_on_c, 4, 79, 0
6, 32287, Note_on_c, 4, 80, 90
6, 32294, Note_on_c, 4, 80, 0
6, 32295, Note_on_c, 4, 79, 90
6, 32301, Note_on_c, 4, 79, 0
6, 32302, Note_on_c, 4, 80, 90
6, 32309, Note_on_c, 4, 80, 0
6, 32310, Note_on_c, 4, 79, 90
6, 32316, Note_on_c, 4, 79, 0
6, 32317, Note_on_c, 4, 80, 90
6, 32324, Note_on_c, 4, 80, 0
6, 32325, Note_on_c, 4, 79, 90
6, 32331, Note_on_c, 4, 79, 0
6, 32332, Note_on_c, 4, 80, 90
6, 32339, Note_on_c, 4, 80, 0
6, 32340, Note_on_c, 4, 79, 90
6, 32346, Note_on_c, 4, 79, 0
6, 32347, Note_on_c, 4, 80, 90
6, 32354, Note_on_c, 4, 80, 0
6, 32355, Note_on_c, 4, 79, 90
6, 32361, Note_on_c, 4, 79, 0
6, 32362, Note_on_c, 4, 80, 90
6, 32369, Note_on_c, 4, 80, 0
6, 32370, Note_on_c, 4, 79, 90
6, 32376, Note_on_c, 4, 79, 0
6, 32377, Note_on_c, 4, 80, 90
6, 32384, Note_on_c, 4, 80, 0
6, 32385, Note_on_c, 4, 79, 90
6, 32426, Note_on_c, 4, 79, 0
6, 32430, Note_on_c, 4, 77, 90
6, 32456, Note_on_c, 4, 77, 0
6, 32460, Note_on_c, 4, 75, 90
6, 32486, Note_on_c, 4, 75, 0
6, 32490, Note_on_c, 4, 74, 90
6, 32516, Note_on_c, 4, 74, 0
6, 32520, Note_on_c, 4, 75, 90
6, 32546, Note_on_c, 4, 75, 0
6, 32550, Note_on_c, 4, 74, 90
6, 32576, Note_on_c, 4, 74, 0
6, 32580, Note_on_c, 4, 72, 90
6, 32606, Note_on_c, 4, 72, 0
6, 32610, Note_on_c, 4, 70, 90
6, 32636, Note_on_c, 4, 70, 0
6, 32640, Note_on_c, 4, 68, 90
6, 32666, Note_on_c, 4, 68, 0
6, 32670, Note_on_c, 4, 70, 90
6, 32696, Note_on_c, 4, 70, 0
6, 32700, Note_on_c, 4, 72, 90
6, 32752, Note_on_c, 4, 72, 0
6, 32760, Note_on_c, 4, 65, 90
6, 32812, Note_on_c, 4, 65, 0
6, 32820, Note_on_c, 4, 68, 90
6, 32872, Note_on_c, 4, 68, 0
6, 32880, Note_on_c, 4, 72, 90
6, 32932, Note_on_c, 4, 72, 0
6, 32940, Note_on_c, 4, 75, 90
6, 32992, Note_on_c, 4, 75, 0
6, 33000, Note_on_c, 4, 74, 90
6, 33006, Note_on_c, 4, 74, 0
6, 33007, Note_on_c, 4, 75, 90
6, 33014, Note_on_c, 4, 75, 0
6, 33015, Note_on_c, 4, 74, 90
6, 33021, Note_on_c, 4, 74, 0
6, 33022, Note_on_c, 4, 75, 90
6, 33029, Note_on_c, 4, 75, 0
6, 33030, Note_on_c, 4, 74, 90
6, 33036, Note_on_c, 4, 74, 0
6, 33037, Note_on_c, 4, 75, 90
6, 33044, Note_on_c, 4, 75, 0
6, 33045, Note_on_c, 4, 74, 90
6, 33051, Note_on_c, 4, 74, 0
6, 33052, Note_on_c, 4, 75, 90
6, 33059, Note_on_c, 4, 75, 0
6, 33060, Note_on_c, 4, 74, 90
6, 33066, Note_on_c, 4, 74, 0
6, 33067, Note_on_c, 4, 75, 90
6, 33074, Note_on_c, 4, 75, 0
6, 33075, Note_on_c, 4, 74, 90
6, 33081, Note_on_c, 4, 74, 0
6, 33082, Note_on_c, 4, 75, 90
6, 33089, Note_on_c, 4, 75, 0
6, 33090, Note_on_c, 4, 74, 90
6, 33096, Note_on_c, 4, 74, 0
6, 33097, Note_on_c, 4, 75, 90
6, 33104, Note_on_c, 4, 75, 0
6, 33105, Note_on_c, 4, 74, 90
6, 33111, Note_on_c, 4, 74, 0
6, 33112, Note_on_c, 4, 75, 90
6, 33119, Note_on_c, 4, 75, 0
6, 33120, Note_on_c, 4, 74, 90
6, 33126, Note_on_c, 4, 74, 0
6, 33127, Note_on_c, 4, 75, 90
6, 33134, Note_on_c, 4, 75, 0
6, 33135, Note_on_c, 4, 74, 90
6, 33141, Note_on_c, 4, 74, 0
6, 33142, Note_on_c, 4, 75, 90
6, 33149, Note_on_c, 4, 75, 0
6, 33150, Note_on_c, 4, 74, 90
6, 33179, Note_on_c, 4, 74, 0
6, 33180, Note_on_c, 4, 72, 90
6, 33206, Note_on_c, 4, 72, 0
6, 33210, Note_on_c, 4, 71, 90
6, 33236, Note_on_c, 4, 71, 0
6, 33240, Note_on_c, 4, 72, 90
6, 33292, Note_on_c, 4, 72, 0
6, 33300, Note_on_c, 4, 63, 90
6, 33352, Note_on_c, 4, 63, 0
6, 33360, Note_on_c, 4, 63, 90
6, 33366, Note_on_c, 4, 63, 0
6, 33367, Note_on_c, 4, 65, 90
6, 33374, Note_on_c, 4, 65, 0
6, 33375, Note_on_c, 4, 63, 90
6, 33381, Note_on_c, 4, 63, 0
6, 33382, Note_on_c, 4, 65, 90
6, 33389, Note_on_c, 4, 65, 0
6, 33390, Note_on_c, 4, 62, 90
6, 33416, Note_on_c, 4, 62, 0
6, 33420, Note_on_c, 4, 63, 90
6, 33472, Note_on_c, 4, 63, 0
6, 33480, Note_on_c, 4, 69, 90
6, 33532, Note_on_c, 4, 69, 0
6, 33540, Note_on_c, 4, 66, 90
6, 33592, Note_on_c, 4, 66, 0
6, 33600, Note_on_c, 4, 66, 90
6, 33606, Note_on_c, 4, 66, 0
6, 33607, Note_on_c, 4, 67, 90
6, 33614, Note_on_c, 4, 67, 0
6, 33615, Note_on_c, 4, 66, 90
6, 33621, Note_on_c, 4, 66, 0
6, 33622, Note_on_c, 4, 67, 90
6, 33629, Note_on_c, 4, 67, 0
6, 33630, Note_on_c, 4, 64, 90
6, 33656, Note_on_c, 4, 64, 0
6, 33660, Note_on_c, 4, 66, 90
6, 33712, Note_on_c, 4, 66, 0
6, 33720, Note_on_c, 4, 75, 90
6, 33772, Note_on_c, 4, 75, 0
6, 33780, Note_on_c, 4, 71, 90
6, 33832, Note_on_c, 4, 71, 0
6, 33840, Note_on_c, 4, 71, 90
6, 33848, Note_on_c, 4, 71, 0
6, 33849, Note_on_c, 4, 72, 90
6, 33858, Note_on_c, 4, 72, 0
6, 33859, Note_on_c, 4, 71, 90
6, 33868, Note_on_c, 4, 71, 0
6, 33870, Note_on_c, 4, 69, 90
6, 33896, Note_on_c, 4, 69, 0
6, 33900, Note_on_c, 4, 71, 90
6, 33952, Note_on_c, 4, 71, 0
6, 33960, Note_on_c, 4, 72, 90
6, 34125, Note_on_c, 4, 72, 0
6, 34140, Note_on_c, 4, 72, 90
6, 34192, Note_on_c, 4, 72, 0
6, 34200, Note_on_c, 4, 72, 90
6, 34346, Note_on_c, 4, 72, 0
6, 34350, Note_on_c, 4, 67, 90
6, 34376, Note_on_c, 4, 67, 0
6, 34380, Note_on_c, 4, 69, 90
6, 34406, Note_on_c, 4, 69, 0
6, 34410, Note_on_c, 4, 71, 90
6, 34436, Note_on_c, 4, 71, 0
6, 34440, Note_on_c, 4, 72, 90
6, 34466, Note_on_c, 4, 72, 0
6, 34470, Note_on_c, 4, 74, 90
6, 34496, Note_on_c, 4, 74, 0
6, 34500, Note_on_c, 4, 72, 90
6, 34526, Note_on_c, 4, 72, 0
6, 34530, Note_on_c, 4, 71, 90
6, 34556, Note_on_c, 4, 71, 0
6, 34560, Note_on_c, 4, 72, 90
6, 34612, Note_on_c, 4, 72, 0
6, 34620, Note_on_c, 4, 74, 90
6, 34672, Note_on_c, 4, 74, 0
6, 34680, Note_on_c, 4, 74, 90
6, 34706, Note_on_c, 4, 74, 0
6, 34710, Note_on_c, 4, 75, 90
6, 34723, Note_on_c, 4, 75, 0
6, 34725, Note_on_c, 4, 77, 90
6, 34738, Note_on_c, 4, 77, 0
6, 34740, Note_on_c, 4, 75, 90
6, 34746, Note_on_c, 4, 75, 0
6, 34747, Note_on_c, 4, 77, 90
6, 34754, Note_on_c, 4, 77, 0
6, 34755, Note_on_c, 4, 75, 90
6, 34761, Note_on_c, 4, 75, 0
6, 34762, Note_on_c, 4, 77, 90
6, 34769, Note_on_c, 4, 77, 0
6, 34770, Note_on_c, 4, 75, 90
6, 34776, Note_on_c, 4, 75, 0
6, 34777, Note_on_c, 4, 77, 90
6, 34784, Note_on_c, 4, 77, 0
6, 34785, Note_on_c, 4, 75, 90
6, 34791, Note_on_c, 4, 75, 0
6, 34792, Note_on_c, 4, 77, 90
6, 34799, Note_on_c, 4, 77, 0
6, 34800, Note_on_c, 4, 75, 90
6, 34806, Note_on_c, 4, 75, 0
6, 34807, Note_on_c, 4, 77, 90
6, 34814, Note_on_c, 4, 77, 0
6, 34815, Note_on_c, 4, 75, 90
6, 34821, Note_on_c, 4, 75, 0
6, 34822, Note_on_c, 4, 77, 90
6, 34829, Note_on_c, 4, 77, 0
6, 34830, Note_on_c, 4, 75, 90
6, 34836, Note_on_c, 4, 75, 0
6, 34837, Note_on_c, 4, 77, 90
6, 34844, Note_on_c, 4, 77, 0
6, 34845, Note_on_c, 4, 75, 90
6, 34851, Note_on_c, 4, 75, 0
6, 34852, Note_on_c, 4, 77, 90
6, 34859, Note_on_c, 4, 77, 0
6, 34860, Note_on_c, 4, 75, 90
6, 34866, Note_on_c, 4, 75, 0
6, 34867, Note_on_c, 4, 77, 90
6, 34874, Note_on_c, 4, 77, 0
6, 34875, Note_on_c, 4, 75, 90
6, 34881, Note_on_c, 4, 75, 0
6, 34882, Note_on_c, 4, 77, 90
6, 34889, Note_on_c, 4, 77, 0
6, 34890, Note_on_c, 4, 75, 90
6, 34896, Note_on_c, 4, 75, 0
6, 34897, Note_on_c, 4, 77, 90
6, 34904, Note_on_c, 4, 77, 0
6, 34905, Note_on_c, 4, 75, 90
6, 34911, Note_on_c, 4, 75, 0
6, 34912, Note_on_c, 4, 77, 90
6, 34919, Note_on_c, 4, 77, 0
6, 34920, Note_on_c, 4, 75, 90
6, 34926, Note_on_c, 4, 75, 0
6, 34927, Note_on_c, 4, 77, 90
6, 34934, Note_on_c, 4, 77, 0
6, 34935, Note_on_c, 4, 75, 90
6, 34941, Note_on_c, 4, 75, 0
6, 34942, Note_on_c, 4, 77, 90
6, 34949, Note_on_c, 4, 77, 0
6, 34950, Note_on_c, 4, 75, 90
6, 34956, Note_on_c, 4, 75, 0
6, 34957, Note_on_c, 4, 77, 90
6, 34964, Note_on_c, 4, 77, 0
6, 34965, Note_on_c, 4, 75, 90
6, 34971, Note_on_c, 4, 75, 0
6, 34972, Note_on_c, 4, 77, 90
6, 34979, Note_on_c, 4, 77, 0
6, 34980, Note_on_c, 4, 75, 90
6, 34986, Note_on_c, 4, 75, 0
6, 34987, Note_on_c, 4, 77, 90
6, 34994, Note_on_c, 4, 77, 0
6, 34995, Note_on_c, 4, 75, 90
6, 35001, Note_on_c, 4, 75, 0
6, 35002, Note_on_c, 4, 77, 90
6, 35009, Note_on_c, 4, 77, 0
6, 35010, Note_on_c, 4, 75, 90
6, 35016, Note_on_c, 4, 75, 0
6, 35017, Note_on_c, 4, 77, 90
6, 35024, Note_on_c, 4, 77, 0
6, 35025, Note_on_c, 4, 75, 90
6, 35031, Note_on_c, 4, 75, 0
6, 35032, Note_on_c, 4, 77, 90
6, 35039, Note_on_c, 4, 77, 0
6, 35040, Note_on_c, 4, 75, 90
6, 35046, Note_on_c, 4, 75, 0
6, 35047, Note_on_c, 4, 77, 90
6, 35054, Note_on_c, 4, 77, 0
6, 35055, Note_on_c, 4, 75, 90
6, 35061, Note_on_c, 4, 75, 0
6, 35062, Note_on_c, 4, 77, 90
6, 35069, Note_on_c, 4, 77, 0
6, 35070, Note_on_c, 4, 75, 90
6, 35076, Note_on_c, 4, 75, 0
6, 35077, Note_on_c, 4, 77, 90
6, 35084, Note_on_c, 4, 77, 0
6, 35085, Note_on_c, 4, 75, 90
6, 35091, Note_on_c, 4, 75, 0
6, 35092, Note_on_c, 4, 77, 90
6, 35099, Note_on_c, 4, 77, 0
6, 35100, Note_on_c, 4, 75, 90
6, 35106, Note_on_c, 4, 75, 0
6, 35107, Note_on_c, 4, 77, 90
6, 35114, Note_on_c, 4, 77, 0
6, 35115, Note_on_c, 4, 75, 90
6, 35121, Note_on_c, 4, 75, 0
6, 35122, Note_on_c, 4, 77, 90
6, 35129, Note_on_c, 4, 77, 0
6, 35130, Note_on_c, 4, 75, 90
6, 35136, Note_on_c, 4, 75, 0
6, 35137, Note_on_c, 4, 77, 90
6, 35144, Note_on_c, 4, 77, 0
6, 35145, Note_on_c, 4, 75, 90
6, 35151, Note_on_c, 4, 75, 0
6, 35152, Note_on_c, 4, 77, 90
6, 35159, Note_on_c, 4, 77, 0
6, 35160, Note_on_c, 4, 75, 90
6, 35166, Note_on_c, 4, 75, 0
6, 35167, Note_on_c, 4, 77, 90
6, 35174, Note_on_c, 4, 77, 0
6, 35175, Note_on_c, 4, 75, 90
6, 35181, Note_on_c, 4, 75, 0
6, 35182, Note_on_c, 4, 77, 90
6, 35189, Note_on_c, 4, 77, 0
6, 35190, Note_on_c, 4, 75, 90
6, 35196, Note_on_c, 4, 75, 0
6, 35197, Note_on_c, 4, 77, 90
6, 35204, Note_on_c, 4, 77, 0
6, 35205, Note_on_c, 4, 75, 90
6, 35211, Note_on_c, 4, 75, 0
6, 35212, Note_on_c, 4, 77, 90
6, 35219, Note_on_c, 4, 77, 0
6, 35220, Note_on_c, 4, 75, 90
6, 35226, Note_on_c, 4, 75, 0
6, 35227, Note_on_c, 4, 77, 90
6, 35234, Note_on_c, 4, 77, 0
6, 35235, Note_on_c, 4, 75, 90
6, 35241, Note_on_c, 4, 75, 0
6, 35242, Note_on_c, 4, 77, 90
6, 35249, Note_on_c, 4, 77, 0
6, 35250, Note_on_c, 4, 75, 90
6, 35256, Note_on_c, 4, 75, 0
6, 35257, Note_on_c, 4, 77, 90
6, 35264, Note_on_c, 4, 77, 0
6, 35265, Note_on_c, 4, 75, 90
6, 35271, Note_on_c, 4, 75, 0
6, 35272, Note_on_c, 4, 77, 90
6, 35279, Note_on_c, 4, 77, 0
6, 35280, Note_on_c, 4, 75, 90
6, 35286, Note_on_c, 4, 75, 0
6, 35287, Note_on_c, 4, 77, 90
6, 35294, Note_on_c, 4, 77, 0
6, 35295, Note_on_c, 4, 75, 90
6, 35301, Note_on_c, 4, 75, 0
6, 35302, Note_on_c, 4, 77, 90
6, 35309, Note_on_c, 4, 77, 0
6, 35310, Note_on_c, 4, 75, 90
6, 35316, Note_on_c, 4, 75, 0
6, 35317, Note_on_c, 4, 77, 90
6, 35324, Note_on_c, 4, 77, 0
6, 35325, Note_on_c, 4, 75, 90
6, 35331, Note_on_c, 4, 75, 0
6, 35332, Note_on_c, 4, 77, 90
6, 35339, Note_on_c, 4, 77, 0
6, 35340, Note_on_c, 4, 75, 90
6, 35346, Note_on_c, 4, 75, 0
6, 35347, Note_on_c, 4, 77, 90
6, 35354, Note_on_c, 4, 77, 0
6, 35355, Note_on_c, 4, 75, 90
6, 35361, Note_on_c, 4, 75, 0
6, 35362, Note_on_c, 4, 77, 90
6, 35369, Note_on_c, 4, 77, 0
6, 35370, Note_on_c, 4, 75, 90
6, 35376, Note_on_c, 4, 75, 0
6, 35377, Note_on_c, 4, 77, 90
6, 35384, Note_on_c, 4, 77, 0
6, 35385, Note_on_c, 4, 75, 90
6, 35391, Note_on_c, 4, 75, 0
6, 35392, Note_on_c, 4, 77, 90
6, 35399, Note_on_c, 4, 77, 0
6, 35400, Note_on_c, 4, 75, 90
6, 35406, Note_on_c, 4, 75, 0
6, 35407, Note_on_c, 4, 77, 90
6, 35414, Note_on_c, 4, 77, 0
6, 35415, Note_on_c, 4, 75, 90
6, 35421, Note_on_c, 4, 75, 0
6, 35422, Note_on_c, 4, 77, 90
6, 35429, Note_on_c, 4, 77, 0
6, 35430, Note_on_c, 4, 75, 90
6, 35436, Note_on_c, 4, 75, 0
6, 35437, Note_on_c, 4, 77, 90
6, 35444, Note_on_c, 4, 77, 0
6, 35445, Note_on_c, 4, 75, 90
6, 35451, Note_on_c, 4, 75, 0
6, 35452, Note_on_c, 4, 77, 90
6, 35459, Note_on_c, 4, 77, 0
6, 35460, Note_on_c, 4, 75, 90
6, 35466, Note_on_c, 4, 75, 0
6, 35467, Note_on_c, 4, 77, 90
6, 35474, Note_on_c, 4, 77, 0
6, 35475, Note_on_c, 4, 75, 90
6, 35481, Note_on_c, 4, 75, 0
6, 35482, Note_on_c, 4, 77, 90
6, 35489, Note_on_c, 4, 77, 0
6, 35490, Note_on_c, 4, 75, 90
6, 35496, Note_on_c, 4, 75, 0
6, 35497, Note_on_c, 4, 77, 90
6, 35504, Note_on_c, 4, 77, 0
6, 35505, Note_on_c, 4, 75, 90
6, 35511, Note_on_c, 4, 75, 0
6, 35512, Note_on_c, 4, 77, 90
6, 35519, Note_on_c, 4, 77, 0
6, 35520, Note_on_c, 4, 75, 90
6, 35526, Note_on_c, 4, 75, 0
6, 35527, Note_on_c, 4, 77, 90
6, 35534, Note_on_c, 4, 77, 0
6, 35535, Note_on_c, 4, 75, 90
6, 35541, Note_on_c, 4, 75, 0
6, 35542, Note_on_c, 4, 77, 90
6, 35549, Note_on_c, 4, 77, 0
6, 35550, Note_on_c, 4, 75, 90
6, 35556, Note_on_c, 4, 75, 0
6, 35557, Note_on_c, 4, 77, 90
6, 35564, Note_on_c, 4, 77, 0
6, 35565, Note_on_c, 4, 75, 90
6, 35571, Note_on_c, 4, 75, 0
6, 35572, Note_on_c, 4, 77, 90
6, 35579, Note_on_c, 4, 77, 0
6, 35580, Note_on_c, 4, 75, 90
6, 35586, Note_on_c, 4, 75, 0
6, 35587, Note_on_c, 4, 77, 90
6, 35594, Note_on_c, 4, 77, 0
6, 35595, Note_on_c, 4, 75, 90
6, 35601, Note_on_c, 4, 75, 0
6, 35602, Note_on_c, 4, 77, 90
6, 35609, Note_on_c, 4, 77, 0
6, 35610, Note_on_c, 4, 75, 90
6, 35616, Note_on_c, 4, 75, 0
6, 35617, Note_on_c, 4, 77, 90
6, 35624, Note_on_c, 4, 77, 0
6, 35625, Note_on_c, 4, 75, 90
6, 35631, Note_on_c, 4, 75, 0
6, 35632, Note_on_c, 4, 77, 90
6, 35639, Note_on_c, 4, 77, 0
6, 35640, Note_on_c, 4, 75, 90
6, 35646, Note_on_c, 4, 75, 0
6, 35647, Note_on_c, 4, 77, 90
6, 35654, Note_on_c, 4, 77, 0
6, 35655, Note_on_c, 4, 75, 90
6, 35661, Note_on_c, 4, 75, 0
6, 35662, Note_on_c, 4, 77, 90
6, 35669, Note_on_c, 4, 77, 0
6, 35670, Note_on_c, 4, 75, 90
6, 35676, Note_on_c, 4, 75, 0
6, 35677, Note_on_c, 4, 77, 90
6, 35684, Note_on_c, 4, 77, 0
6, 35685, Note_on_c, 4, 75, 90
6, 35691, Note_on_c, 4, 75, 0
6, 35692, Note_on_c, 4, 77, 90
6, 35699, Note_on_c, 4, 77, 0
6, 35700, Note_on_c, 4, 75, 90
6, 35706, Note_on_c, 4, 75, 0
6, 35707, Note_on_c, 4, 77, 90
6, 35714, Note_on_c, 4, 77, 0
6, 35715, Note_on_c, 4, 75, 90
6, 35721, Note_on_c, 4, 75, 0
6, 35722, Note_on_c, 4, 77, 90
6, 35729, Note_on_c, 4, 77, 0
6, 35730, Note_on_c, 4, 75, 90
6, 35736, Note_on_c, 4, 75, 0
6, 35737, Note_on_c, 4, 77, 90
6, 35744, Note_on_c, 4, 77, 0
6, 35745, Note_on_c, 4, 75, 90
6, 35751, Note_on_c, 4, 75, 0
6, 35752, Note_on_c, 4, 77, 90
6, 35759, Note_on_c, 4, 77, 0
6, 35760, Note_on_c, 4, 75, 90
6, 35766, Note_on_c, 4, 75, 0
6, 35767, Note_on_c, 4, 77, 90
6, 35774, Note_on_c, 4, 77, 0
6, 35775, Note_on_c, 4, 75, 90
6, 35781, Note_on_c, 4, 75, 0
6, 35782, Note_on_c, 4, 77, 90
6, 35789, Note_on_c, 4, 77, 0
6, 35790, Note_on_c, 4, 75, 90
6, 35796, Note_on_c, 4, 75, 0
6, 35797, Note_on_c, 4, 77, 90
6, 35804, Note_on_c, 4, 77, 0
6, 35805, Note_on_c, 4, 75, 90
6, 35811, Note_on_c, 4, 75, 0
6, 35812, Note_on_c, 4, 77, 90
6, 35819, Note_on_c, 4, 77, 0
6, 35820, Note_on_c, 4, 75, 90
6, 35826, Note_on_c, 4, 75, 0
6, 35827, Note_on_c, 4, 77, 90
6, 35834, Note_on_c, 4, 77, 0
6, 35835, Note_on_c, 4, 75, 90
6, 35841, Note_on_c, 4, 75, 0
6, 35842, Note_on_c, 4, 77, 90
6, 35849, Note_on_c, 4, 77, 0
6, 35850, Note_on_c, 4, 75, 90
6, 35856, Note_on_c, 4, 75, 0
6, 35857, Note_on_c, 4, 77, 90
6, 35864, Note_on_c, 4, 77, 0
6, 35865, Note_on_c, 4, 75, 90
6, 35871, Note_on_c, 4, 75, 0
6, 35872, Note_on_c, 4, 77, 90
6, 35879, Note_on_c, 4, 77, 0
6, 35880, Note_on_c, 4, 75, 90
6, 35886, Note_on_c, 4, 75, 0
6, 35887, Note_on_c, 4, 77, 90
6, 35894, Note_on_c, 4, 77, 0
6, 35895, Note_on_c, 4, 75, 90
6, 35901, Note_on_c, 4, 75, 0
6, 35902, Note_on_c, 4, 77, 90
6, 35909, Note_on_c, 4, 77, 0
6, 35910, Note_on_c, 4, 75, 90
6, 35916, Note_on_c, 4, 75, 0
6, 35917, Note_on_c, 4, 77, 90
6, 35924, Note_on_c, 4, 77, 0
6, 35925, Note_on_c, 4, 75, 90
6, 35931, Note_on_c, 4, 75, 0
6, 35932, Note_on_c, 4, 77, 90
6, 35939, Note_on_c, 4, 77, 0
6, 35940, Note_on_c, 4, 75, 90
6, 35946, Note_on_c, 4, 75, 0
6, 35947, Note_on_c, 4, 77, 90
6, 35954, Note_on_c, 4, 77, 0
6, 35955, Note_on_c, 4, 75, 90
6, 35961, Note_on_c, 4, 75, 0
6, 35962, Note_on_c, 4, 77, 90
6, 35969, Note_on_c, 4, 77, 0
6, 35970, Note_on_c, 4, 75, 90
6, 35976, Note_on_c, 4, 75, 0
6, 35977, Note_on_c, 4, 77, 90
6, 35984, Note_on_c, 4, 77, 0
6, 35985, Note_on_c, 4, 75, 90
6, 35991, Note_on_c, 4, 75, 0
6, 35992, Note_on_c, 4, 77, 90
6, 35999, Note_on_c, 4, 77, 0
6, 36000, Note_on_c, 4, 75, 90
6, 36006, Note_on_c, 4, 75, 0
6, 36007, Note_on_c, 4, 77, 90
6, 36014, Note_on_c, 4, 77, 0
6, 36015, Note_on_c, 4, 75, 90
6, 36021, Note_on_c, 4, 75, 0
6, 36022, Note_on_c, 4, 77, 90
6, 36029, Note_on_c, 4, 77, 0
6, 36030, Note_on_c, 4, 75, 90
6, 36036, Note_on_c, 4, 75, 0
6, 36037, Note_on_c, 4, 77, 90
6, 36044, Note_on_c, 4, 77, 0
6, 36045, Note_on_c, 4, 75, 90
6, 36051, Note_on_c, 4, 75, 0
6, 36052, Note_on_c, 4, 77, 90
6, 36059, Note_on_c, 4, 77, 0
6, 36060, Note_on_c, 4, 75, 90
6, 36066, Note_on_c, 4, 75, 0
6, 36067, Note_on_c, 4, 77, 90
6, 36074, Note_on_c, 4, 77, 0
6, 36075, Note_on_c, 4, 75, 90
6, 36081, Note_on_c, 4, 75, 0
6, 36082, Note_on_c, 4, 77, 90
6, 36089, Note_on_c, 4, 77, 0
6, 36090, Note_on_c, 4, 75, 90
6, 36096, Note_on_c, 4, 75, 0
6, 36097, Note_on_c, 4, 77, 90
6, 36104, Note_on_c, 4, 77, 0
6, 36105, Note_on_c, 4, 75, 90
6, 36111, Note_on_c, 4, 75, 0
6, 36112, Note_on_c, 4, 77, 90
6, 36119, Note_on_c, 4, 77, 0
6, 36120, Note_on_c, 4, 75, 90
6, 36172, Note_on_c, 4, 75, 0
6, 36180, Note_on_c, 4, 74, 90
6, 36206, Note_on_c, 4, 74, 0
6, 36210, Note_on_c, 4, 72, 90
6, 36236, Note_on_c, 4, 72, 0
6, 36240, Note_on_c, 4, 74, 90
6, 36292, Note_on_c, 4, 74, 0
6, 36300, Note_on_c, 4, 82, 90
6, 36412, Note_on_c, 4, 82, 0
6, 36420, Note_on_c, 4, 81, 90
6, 36446, Note_on_c, 4, 81, 0
6, 36450, Note_on_c, 4, 79, 90
6, 36476, Note_on_c, 4, 79, 0
6, 36480, Note_on_c, 4, 81, 90
6, 36532, Note_on_c, 4, 81, 0
6, 36540, Note_on_c, 4, 72, 90
6, 36652, Note_on_c, 4, 72, 0
6, 36660, Note_on_c, 4, 70, 90
6, 36686, Note_on_c, 4, 70, 0
6, 36690, Note_on_c, 4, 69, 90
6, 36716, Note_on_c, 4, 69, 0
6, 36720, Note_on_c, 4, 70, 90
6, 36772, Note_on_c, 4, 70, 0
6, 36780, Note_on_c, 4, 79, 90
6, 36832, Note_on_c, 4, 79, 0
6, 36840, Note_on_c, 4, 70, 90
6, 36846, Note_on_c, 4, 70, 0
6, 36847, Note_on_c, 4, 72, 90
6, 36854, Note_on_c, 4, 72, 0
6, 36855, Note_on_c, 4, 70, 90
6, 36861, Note_on_c, 4, 70, 0
6, 36862, Note_on_c, 4, 72, 90
6, 36869, Note_on_c, 4, 72, 0
6, 36870, Note_on_c, 4, 70, 90
6, 36876, Note_on_c, 4, 70, 0
6, 36877, Note_on_c, 4, 72, 90
6, 36884, Note_on_c, 4, 72, 0
6, 36885, Note_on_c, 4, 70, 90
6, 36956, Note_on_c, 4, 70, 0
6, 36960, Note_on_c, 4, 70, 90
6, 36966, Note_on_c, 4, 70, 0
6, 36967, Note_on_c, 4, 69, 90
6, 36987, Note_on_c, 4, 69, 0
6, 36990, Note_on_c, 4, 67, 90
6, 37016, Note_on_c, 4, 67, 0
6, 37020, Note_on_c, 4, 69, 90
6, 37046, Note_on_c, 4, 69, 0
6, 37050, Note_on_c, 4, 72, 90
6, 37076, Note_on_c, 4, 72, 0
6, 37080, Note_on_c, 4, 65, 90
6, 37612, Note_on_c, 4, 65, 0
6, 37620, Note_on_c, 4, 58, 90
6, 37646, Note_on_c, 4, 58, 0
6, 37650, Note_on_c, 4, 60, 90
6, 37676, Note_on_c, 4, 60, 0
6, 37680, Note_on_c, 4, 62, 90
6, 37732, Note_on_c, 4, 62, 0
6, 37740, Note_on_c, 4, 65, 90
6, 37792, Note_on_c, 4, 65, 0
6, 37800, Note_on_c, 4, 65, 90
6, 37852, Note_on_c, 4, 65, 0
6, 37860, Note_on_c, 4, 62, 90
6, 37886, Note_on_c, 4, 62, 0
6, 37890, Note_on_c, 4, 63, 90
6, 37916, Note_on_c, 4, 63, 0
6, 37920, Note_on_c, 4, 65, 90
6, 37972, Note_on_c, 4, 65, 0
6, 37980, Note_on_c, 4, 68, 90
6, 38032, Note_on_c, 4, 68, 0
6, 38040, Note_on_c, 4, 68, 90
6, 38332, Note_on_c, 4, 68, 0
6, 38340, Note_on_c, 4, 67, 90
6, 38366, Note_on_c, 4, 67, 0
6, 38370, Note_on_c, 4, 68, 90
6, 38396, Note_on_c, 4, 68, 0
6, 38400, Note_on_c, 4, 70, 90
6, 38452, Note_on_c, 4, 70, 0
6, 38460, Note_on_c, 4, 73, 90
6, 38512, Note_on_c, 4, 73, 0
6, 38520, Note_on_c, 4, 73, 90
6, 38572, Note_on_c, 4, 73, 0
6, 38580, Note_on_c, 4, 70, 90
6, 38606, Note_on_c, 4, 70, 0
6, 38610, Note_on_c, 4, 72, 90
6, 38636, Note_on_c, 4, 72, 0
6, 38640, Note_on_c, 4, 73, 90
6, 38692, Note_on_c, 4, 73, 0
6, 38700, Note_on_c, 4, 79, 90
6, 38752, Note_on_c, 4, 79, 0
6, 38760, Note_on_c, 4, 79, 90
6, 38812, Note_on_c, 4, 79, 0
6, 38820, Note_on_c, 4, 70, 90
6, 38872, Note_on_c, 4, 70, 0
6, 38880, Note_on_c, 4, 69, 90
6, 38932, Note_on_c, 4, 69, 0
6, 38940, Note_on_c, 4, 70, 90
6, 39026, Note_on_c, 4, 70, 0
6, 39030, Note_on_c, 4, 62, 90
6, 39056, Note_on_c, 4, 62, 0
6, 39060, Note_on_c, 4, 63, 90
6, 39086, Note_on_c, 4, 63, 0
6, 39090, Note_on_c, 4, 65, 90
6, 39116, Note_on_c, 4, 65, 0
6, 39120, Note_on_c, 4, 67, 90
6, 39146, Note_on_c, 4, 67, 0
6, 39150, Note_on_c, 4, 69, 90
6, 39176, Note_on_c, 4, 69, 0
6, 39180, Note_on_c, 4, 70, 90
6, 39206, Note_on_c, 4, 70, 0
6, 39210, Note_on_c, 4, 72, 90
6, 39236, Note_on_c, 4, 72, 0
6, 39240, Note_on_c, 4, 74, 90
6, 39292, Note_on_c, 4, 74, 0
6, 39300, Note_on_c, 4, 75, 90
6, 39326, Note_on_c, 4, 75, 0
6, 39330, Note_on_c, 4, 74, 90
6, 39356, Note_on_c, 4, 74, 0
6, 39360, Note_on_c, 4, 72, 90
6, 39386, Note_on_c, 4, 72, 0
6, 39390, Note_on_c, 4, 74, 90
6, 39416, Note_on_c, 4, 74, 0
6, 39420, Note_on_c, 4, 75, 90
6, 39446, Note_on_c, 4, 75, 0
6, 39450, Note_on_c, 4, 72, 90
6, 39476, Note_on_c, 4, 72, 0
6, 39480, Note_on_c, 4, 70, 90
6, 39532, Note_on_c, 4, 70, 0
6, 39540, Note_on_c, 4, 67, 90
6, 39592, Note_on_c, 4, 67, 0
6, 39600, Note_on_c, 4, 69, 90
6, 39606, Note_on_c, 4, 69, 0
6, 39607, Note_on_c, 4, 70, 90
6, 39614, Note_on_c, 4, 70, 0
6, 39615, Note_on_c, 4, 69, 90
6, 39621, Note_on_c, 4, 69, 0
6, 39622, Note_on_c, 4, 70, 90
6, 39629, Note_on_c, 4, 70, 0
6, 39630, Note_on_c, 4, 69, 90
6, 39636, Note_on_c, 4, 69, 0
6, 39637, Note_on_c, 4, 70, 90
6, 39644, Note_on_c, 4, 70, 0
6, 39645, Note_on_c, 4, 69, 90
6, 39659, Note_on_c, 4, 69, 0
6, 39660, Note_on_c, 4, 70, 90
6, 39712, Note_on_c, 4, 70, 0
6, 39720, Note_on_c, 4, 70, 90
6, 39945, Note_on_c, 4, 70, 0
6, 39960, Note_on_c, 4, 70, 90
6, 40425, Note_on_c, 4, 70, 0
6, 40425, End_track
7, 0, Start_track
7, 0, MIDI_port, 0
7, 0, Program_c, 5, 48
7, 0, Control_c, 5, 7, 110
7, 0, Control_c, 5, 10, 80
7, 34570, Control_c, 5, 7, 109
7, 34588, Control_c, 5, 10, 79
7, 34680, Note_on_c, 5, 48, 89
7, 34732, Note_on_c, 5, 48, 0
7, 34740, Note_on_c, 5, 50, 90
7, 34792, Note_on_c, 5, 50, 0
7, 34800, Note_on_c, 5, 51, 93
7, 34852, Note_on_c, 5, 51, 0
7, 34860, Note_on_c, 5, 55, 100
7, 34912, Note_on_c, 5, 55, 0
7, 34920, Note_on_c, 5, 60, 104
7, 34972, Note_on_c, 5, 60, 0
7, 34980, Note_on_c, 5, 55, 99
7, 35032, Note_on_c, 5, 55, 0
7, 35040, Note_on_c, 5, 53, 92
7, 35092, Note_on_c, 5, 53, 0
7, 35100, Note_on_c, 5, 51, 89
7, 35152, Note_on_c, 5, 51, 0
7, 35160, Note_on_c, 5, 50, 87
7, 35212, Note_on_c, 5, 50, 0
7, 35220, Note_on_c, 5, 48, 88
7, 35272, Note_on_c, 5, 48, 0
7, 35280, Note_on_c, 5, 46, 90
7, 35332, Note_on_c, 5, 46, 0
7, 35340, Note_on_c, 5, 55, 104
7, 35392, Note_on_c, 5, 55, 0
7, 35400, Note_on_c, 5, 45, 96
7, 35452, Note_on_c, 5, 45, 0
7, 35460, Note_on_c, 5, 46, 93
7, 35512, Note_on_c, 5, 46, 0
7, 35520, Note_on_c, 5, 48, 94
7, 35572, Note_on_c, 5, 48, 0
7, 35580, Note_on_c, 5, 53, 98
7, 35632, Note_on_c, 5, 53, 0
7, 35640, Note_on_c, 5, 57, 102
7, 35692, Note_on_c, 5, 57, 0
7, 35700, Note_on_c, 5, 60, 106
7, 35752, Note_on_c, 5, 60, 0
7, 35760, Note_on_c, 5, 58, 102
7, 35812, Note_on_c, 5, 58, 0
7, 35820, Note_on_c, 5, 57, 98
7, 35872, Note_on_c, 5, 57, 0
7, 35880, Note_on_c, 5, 55, 100
7, 35932, Note_on_c, 5, 55, 0
7, 35940, Note_on_c, 5, 53, 98
7, 35992, Note_on_c, 5, 53, 0
7, 36000, Note_on_c, 5, 65, 98
7, 36052, Note_on_c, 5, 65, 0
7, 36060, Note_on_c, 5, 57, 101
7, 36112, Note_on_c, 5, 57, 0
7, 36120, Note_on_c, 5, 58, 95
7, 36285, Note_on_c, 5, 58, 0
7, 36300, Note_on_c, 5, 67, 94
7, 36352, Note_on_c, 5, 67, 0
7, 36360, Note_on_c, 5, 64, 93
7, 36525, Note_on_c, 5, 64, 0
7, 36540, Note_on_c, 5, 65, 90
7, 36592, Note_on_c, 5, 65, 0
7, 36600, Note_on_c, 5, 55, 91
7, 36765, Note_on_c, 5, 55, 0
7, 36780, Note_on_c, 5, 64, 95
7, 36832, Note_on_c, 5, 64, 0
7, 36840, Note_on_c, 5, 53, 95
7, 37245, Note_on_c, 5, 53, 0
7, 37260, Note_on_c, 5, 55, 92
7, 37277, Note_on_c, 5, 55, 0
7, 37279, Note_on_c, 5, 53, 92
7, 37297, Note_on_c, 5, 53, 0
7, 37299, Note_on_c, 5, 51, 92
7, 37317, Note_on_c, 5, 51, 0
7, 37320, Note_on_c, 5, 51, 93
7, 37333, Note_on_c, 5, 51, 0
7, 37335, Note_on_c, 5, 53, 95
7, 37348, Note_on_c, 5, 53, 0
7, 37350, Note_on_c, 5, 51, 95
7, 37363, Note_on_c, 5, 51, 0
7, 37365, Note_on_c, 5, 53, 94
7, 37371, Note_on_c, 5, 53, 0
7, 37372, Note_on_c, 5, 51, 94
7, 37379, Note_on_c, 5, 51, 0
7, 37380, Note_on_c, 5, 53, 95
7, 37386, Note_on_c, 5, 53, 0
7, 37387, Note_on_c, 5, 51, 95
7, 37394, Note_on_c, 5, 51, 0
7, 37395, Note_on_c, 5, 53, 97
7, 37401, Note_on_c, 5, 53, 0
7, 37402, Note_on_c, 5, 51, 97
7, 37409, Note_on_c, 5, 51, 0
7, 37410, Note_on_c, 5, 53, 97
7, 37416, Note_on_c, 5, 53, 0
7, 37417, Note_on_c, 5, 51, 97
7, 37424, Note_on_c, 5, 51, 0
7, 37425, Note_on_c, 5, 53, 96
7, 37431, Note_on_c, 5, 53, 0
7, 37432, Note_on_c, 5, 51, 95
7, 37439, Note_on_c, 5, 51, 0
7, 37440, Note_on_c, 5, 53, 95
7, 37446, Note_on_c, 5, 53, 0
7, 37447, Note_on_c, 5, 51, 95
7, 37454, Note_on_c, 5, 51, 0
7, 37455, Note_on_c, 5, 53, 95
7, 37461, Note_on_c, 5, 53, 0
7, 37462, Note_on_c, 5, 51, 95
7, 37498, Note_on_c, 5, 51, 0
7, 37500, Note_on_c, 5, 50, 99
7, 37552, Note_on_c, 5, 50, 0
7, 37560, Note_on_c, 5, 50, 95
7, 37785, Note_on_c, 5, 50, 0
7, 37800, Note_on_c, 5, 38, 94
7, 37965, Note_on_c, 5, 38, 0
7, 37980, Note_on_c, 5, 50, 97
7, 38032, Note_on_c, 5, 50, 0
7, 38040, Note_on_c, 5, 50, 99
7, 38053, Note_on_c, 5, 50, 0
7, 38055, Note_on_c, 5, 48, 97
7, 38068, Note_on_c, 5, 48, 0
7, 38070, Note_on_c, 5, 50, 97
7, 38076, Note_on_c, 5, 50, 0
7, 38077, Note_on_c, 5, 48, 97
7, 38084, Note_on_c, 5, 48, 0
7, 38085, Note_on_c, 5, 50, 98
7, 38091, Note_on_c, 5, 50, 0
7, 38092, Note_on_c, 5, 48, 98
7, 38099, Note_on_c, 5, 48, 0
7, 38100, Note_on_c, 5, 50, 98
7, 38106, Note_on_c, 5, 50, 0
7, 38107, Note_on_c, 5, 48, 98
7, 38114, Note_on_c, 5, 48, 0
7, 38115, Note_on_c, 5, 50, 98
7, 38121, Note_on_c, 5, 50, 0
7, 38122, Note_on_c, 5, 48, 99
7, 38129, Note_on_c, 5, 48, 0
7, 38130, Note_on_c, 5, 50, 99
7, 38136, Note_on_c, 5, 50, 0
7, 38137, Note_on_c, 5, 48, 100
7, 38144, Note_on_c, 5, 48, 0
7, 38145, Note_on_c, 5, 50, 101
7, 38151, Note_on_c, 5, 50, 0
7, 38152, Note_on_c, 5, 48, 101
7, 38159, Note_on_c, 5, 48, 0
7, 38160, Note_on_c, 5, 50, 101
7, 38166, Note_on_c, 5, 50, 0
7, 38167, Note_on_c, 5, 48, 99
7, 38174, Note_on_c, 5, 48, 0
7, 38175, Note_on_c, 5, 50, 98
7, 38181, Note_on_c, 5, 50, 0
7, 38182, Note_on_c, 5, 48, 97
7, 38218, Note_on_c, 5, 48, 0
7, 38220, Note_on_c, 5, 46, 97
7, 38272, Note_on_c, 5, 46, 0
7, 38280, Note_on_c, 5, 51, 98
7, 38505, Note_on_c, 5, 51, 0
7, 38520, Note_on_c, 5, 50, 97
7, 38546, Note_on_c, 5, 50, 0
7, 38550, Note_on_c, 5, 52, 97
7, 38576, Note_on_c, 5, 52, 0
7, 38580, Note_on_c, 5, 53, 99
7, 38586, Note_on_c, 5, 53, 0
7, 38587, Note_on_c, 5, 52, 98
7, 38594, Note_on_c, 5, 52, 0
7, 38595, Note_on_c, 5, 53, 98
7, 38601, Note_on_c, 5, 53, 0
7, 38602, Note_on_c, 5, 52, 97
7, 38609, Note_on_c, 5, 52, 0
7, 38610, Note_on_c, 5, 53, 98
7, 38616, Note_on_c, 5, 53, 0
7, 38617, Note_on_c, 5, 52, 99
7, 38624, Note_on_c, 5, 52, 0
7, 38625, Note_on_c, 5, 53, 100
7, 38631, Note_on_c, 5, 53, 0
7, 38632, Note_on_c, 5, 52, 102
7, 38639, Note_on_c, 5, 52, 0
7, 38640, Note_on_c, 5, 53, 102
7, 38646, Note_on_c, 5, 53, 0
7, 38647, Note_on_c, 5, 52, 102
7, 38654, Note_on_c, 5, 52, 0
7, 38655, Note_on_c, 5, 53, 102
7, 38661, Note_on_c, 5, 53, 0
7, 38662, Note_on_c, 5, 52, 102
7, 38669, Note_on_c, 5, 52, 0
7, 38670, Note_on_c, 5, 53, 101
7, 38676, Note_on_c, 5, 53, 0
7, 38677, Note_on_c, 5, 52, 101
7, 38684, Note_on_c, 5, 52, 0
7, 38685, Note_on_c, 5, 53, 102
7, 38691, Note_on_c, 5, 53, 0
7, 38692, Note_on_c, 5, 52, 104
7, 38699, Note_on_c, 5, 52, 0
7, 38700, Note_on_c, 5, 53, 106
7, 38706, Note_on_c, 5, 53, 0
7, 38707, Note_on_c, 5, 52, 107
7, 38714, Note_on_c, 5, 52, 0
7, 38715, Note_on_c, 5, 53, 106
7, 38721, Note_on_c, 5, 53, 0
7, 38722, Note_on_c, 5, 52, 106
7, 38729, Note_on_c, 5, 52, 0
7, 38730, Note_on_c, 5, 53, 107
7, 38736, Note_on_c, 5, 53, 0
7, 38737, Note_on_c, 5, 52, 107
7, 38744, Note_on_c, 5, 52, 0
7, 38745, Note_on_c, 5, 53, 108
7, 38751, Note_on_c, 5, 53, 0
7, 38752, Note_on_c, 5, 52, 109
7, 38759, Note_on_c, 5, 52, 0
7, 38760, Note_on_c, 5, 53, 108
7, 38766, Note_on_c, 5, 53, 0
7, 38767, Note_on_c, 5, 52, 108
7, 38774, Note_on_c, 5, 52, 0
7, 38775, Note_on_c, 5, 53, 106
7, 38781, Note_on_c, 5, 53, 0
7, 38782, Note_on_c, 5, 52, 106
7, 38789, Note_on_c, 5, 52, 0
7, 38790, Note_on_c, 5, 53, 106
7, 38796, Note_on_c, 5, 53, 0
7, 38797, Note_on_c, 5, 52, 106
7, 38804, Note_on_c, 5, 52, 0
7, 38805, Note_on_c, 5, 53, 106
7, 38811, Note_on_c, 5, 53, 0
7, 38812, Note_on_c, 5, 52, 106
7, 38819, Note_on_c, 5, 52, 0
7, 38820, Note_on_c, 5, 53, 106
7, 38826, Note_on_c, 5, 53, 0
7, 38827, Note_on_c, 5, 52, 106
7, 38834, Note_on_c, 5, 52, 0
7, 38835, Note_on_c, 5, 53, 107
7, 38841, Note_on_c, 5, 53, 0
7, 38842, Note_on_c, 5, 52, 107
7, 38915, Note_on_c, 5, 52, 0
7, 38919, Note_on_c, 5, 50, 106
7, 38955, Note_on_c, 5, 50, 0
7, 38959, Note_on_c, 5, 52, 101
7, 38994, Note_on_c, 5, 52, 0
7, 39000, Note_on_c, 5, 53, 104
7, 39225, Note_on_c, 5, 53, 0
7, 39240, Note_on_c, 5, 51, 95
7, 39465, Note_on_c, 5, 51, 0
7, 39480, Note_on_c, 5, 53, 93
7, 39705, Note_on_c, 5, 53, 0
7, 39720, Note_on_c, 5, 46, 93
7, 39879, Note_on_c, 5, 50, 94
7, 39915, Note_on_c, 5, 50, 0
7, 39919, Note_on_c, 5, 53, 93
7, 39954, Note_on_c, 5, 53, 0
7, 39954, Note_on_c, 5, 46, 0
7, 39960, Note_on_c, 5, 58, 93
7, 40425, Note_on_c, 5, 58, 0
7, 40425, End_track
0, 0, End_of_file
