0, 0, Header, 1, 6, 120
1, 0, Start_track
1, 0, Time_signature, 3, 1, 48, 8
1, 0, Key_signature, -3, "major"
1, 0, Tempo, 750000
1, 5396, Tempo, 833333
1, 5853, Tempo, 759493
1, 11153, Tempo, 869565
1, 11630, Tempo, 759493
1, 21843, Tempo, 869565
1, 21845, Tempo, 800000
1, 22080, Tempo, 857142
1, 22320, Tempo, 909090
1, 22470, Tempo, 857142
1, 22685, Tempo, 983606
1, 22690, Tempo, 857142
1, 23155, Tempo, 750000
1, 33365, Tempo, 800000
1, 33605, Tempo, 845070
1, 33845, Tempo, 895522
1, 34080, Tempo, 833333
1, 34320, Tempo, 869565
1, 34560, Tempo, 1111111
1, 34565, Tempo, 952380
1, 34570, Tempo, 1090909
1, 34570, End_track
2, 0, Start_track
2, 0, MIDI_port, 0
2, 0, Program_c, 0, 51
2, 0, Control_c, 0, 7, 125
2, 0, Control_c, 0, 10, 40
2, 100, Control_c, 0, 7, 125
2, 102, Control_c, 0, 10, 40
2, 104, Program_c, 0, 51
2, 120, Note_on_c, 0, 67, 100
2, 179, Note_on_c, 0, 67, 0
2, 180, Note_on_c, 0, 72, 100
2, 239, Note_on_c, 0, 72, 0
2, 240, Note_on_c, 0, 74, 100
2, 299, Note_on_c, 0, 74, 0
2, 300, Note_on_c, 0, 75, 100
2, 359, Note_on_c, 0, 75, 0
2, 360, Note_on_c, 0, 65, 100
2, 419, Note_on_c, 0, 65, 0
2, 420, Note_on_c, 0, 75, 100
2, 479, Note_on_c, 0, 75, 0
2, 480, Note_on_c, 0, 74, 100
2, 659, Note_on_c, 0, 74, 0
2, 660, Note_on_c, 0, 65, 100
2, 719, Note_on_c, 0, 65, 0
2, 720, Note_on_c, 0, 67, 100
2, 779, Note_on_c, 0, 67, 0
2, 780, Note_on_c, 0, 68, 100
2, 839, Note_on_c, 0, 68, 0
2, 840, Note_on_c, 0, 67, 100
2, 899, Note_on_c, 0, 67, 0
2, 900, Note_on_c, 0, 74, 100
2, 959, Note_on_c, 0, 74, 0
2, 960, Note_on_c, 0, 75, 100
2, 1019, Note_on_c, 0, 75, 0
2, 1020, Note_on_c, 0, 77, 100
2, 1079, Note_on_c, 0, 77, 0
2, 1080, Note_on_c, 0, 75, 100
2, 1139, Note_on_c, 0, 75, 0
2, 1140, Note_on_c, 0, 71, 100
2, 1199, Note_on_c, 0, 71, 0
2, 1200, Note_on_c, 0, 72, 100
2, 1379, Note_on_c, 0, 72, 0
2, 1380, Note_on_c, 0, 67, 100
2, 1439, Note_on_c, 0, 67, 0
2, 1440, Note_on_c, 0, 68, 100
2, 1499, Note_on_c, 0, 68, 0
2, 1500, Note_on_c, 0, 70, 100
2, 1559, Note_on_c, 0, 70, 0
2, 1560, Note_on_c, 0, 69, 100
2, 1619, Note_on_c, 0, 69, 0
2, 1620, Note_on_c, 0, 75, 100
2, 1679, Note_on_c, 0, 75, 0
2, 1680, Note_on_c, 0, 77, 100
2, 1739, Note_on_c, 0, 77, 0
2, 1740, Note_on_c, 0, 79, 100
2, 1799, Note_on_c, 0, 79, 0
2, 1800, Note_on_c, 0, 71, 100
2, 1859, Note_on_c, 0, 71, 0
2, 1860, Note_on_c, 0, 77, 100
2, 1919, Note_on_c, 0, 77, 0
2, 1920, Note_on_c, 0, 79, 100
2, 1979, Note_on_c, 0, 79, 0
2, 1980, Note_on_c, 0, 80, 100
2, 2039, Note_on_c, 0, 80, 0
2, 2040, Note_on_c, 0, 72, 100
2, 2099, Note_on_c, 0, 72, 0
2, 2100, Note_on_c, 0, 79, 100
2, 2159, Note_on_c, 0, 79, 0
2, 2160, Note_on_c, 0, 77, 100
2, 2219, Note_on_c, 0, 77, 0
2, 2220, Note_on_c, 0, 75, 100
2, 2279, Note_on_c, 0, 75, 0
2, 2280, Note_on_c, 0, 74, 100
2, 2339, Note_on_c, 0, 74, 0
2, 2340, Note_on_c, 0, 75, 100
2, 2399, Note_on_c, 0, 75, 0
2, 2400, Note_on_c, 0, 77, 100
2, 2459, Note_on_c, 0, 77, 0
2, 2460, Note_on_c, 0, 74, 100
2, 2519, Note_on_c, 0, 74, 0
2, 2520, Note_on_c, 0, 71, 110
2, 2549, Note_on_c, 0, 71, 0
2, 2550, Note_on_c, 0, 72, 127
2, 2563, Note_on_c, 0, 72, 0
2, 2565, Note_on_c, 0, 71, 127
2, 2578, Note_on_c, 0, 71, 0
2, 2580, Note_on_c, 0, 72, 127
2, 2586, Note_on_c, 0, 72, 0
2, 2587, Note_on_c, 0, 71, 127
2, 2594, Note_on_c, 0, 71, 0
2, 2595, Note_on_c, 0, 72, 127
2, 2601, Note_on_c, 0, 72, 0
2, 2602, Note_on_c, 0, 71, 127
2, 2609, Note_on_c, 0, 71, 0
2, 2610, Note_on_c, 0, 72, 127
2, 2616, Note_on_c, 0, 72, 0
2, 2617, Note_on_c, 0, 71, 127
2, 2624, Note_on_c, 0, 71, 0
2, 2625, Note_on_c, 0, 72, 127
2, 2631, Note_on_c, 0, 72, 0
2, 2632, Note_on_c, 0, 71, 127
2, 2639, Note_on_c, 0, 71, 0
2, 2640, Note_on_c, 0, 72, 127
2, 2646, Note_on_c, 0, 72, 0
2, 2647, Note_on_c, 0, 71, 88
2, 2698, Note_on_c, 0, 71, 0
2, 2700, Note_on_c, 0, 69, 107
2, 2759, Note_on_c, 0, 69, 0
2, 2760, Note_on_c, 0, 67, 100
2, 2999, Note_on_c, 0, 67, 0
2, 3000, Note_on_c, 0, 75, 100
2, 3059, Note_on_c, 0, 75, 0
2, 3060, Note_on_c, 0, 67, 100
2, 3119, Note_on_c, 0, 67, 0
2, 3120, Note_on_c, 0, 68, 100
2, 3179, Note_on_c, 0, 68, 0
2, 3180, Note_on_c, 0, 70, 100
2, 3239, Note_on_c, 0, 70, 0
2, 3240, Note_on_c, 0, 68, 100
2, 3299, Note_on_c, 0, 68, 0
2, 3300, Note_on_c, 0, 67, 100
2, 3359, Note_on_c, 0, 67, 0
2, 3360, Note_on_c, 0, 65, 100
2, 3539, Note_on_c, 0, 65, 0
2, 3540, Note_on_c, 0, 72, 100
2, 3599, Note_on_c, 0, 72, 0
2, 3600, Note_on_c, 0, 74, 100
2, 3659, Note_on_c, 0, 74, 0
2, 3660, Note_on_c, 0, 75, 100
2, 3719, Note_on_c, 0, 75, 0
2, 3720, Note_on_c, 0, 74, 100
2, 3779, Note_on_c, 0, 74, 0
2, 3780, Note_on_c, 0, 65, 100
2, 3839, Note_on_c, 0, 65, 0
2, 3840, Note_on_c, 0, 67, 100
2, 3899, Note_on_c, 0, 67, 0
2, 3900, Note_on_c, 0, 68, 100
2, 3959, Note_on_c, 0, 68, 0
2, 3960, Note_on_c, 0, 67, 100
2, 4019, Note_on_c, 0, 67, 0
2, 4020, Note_on_c, 0, 65, 100
2, 4079, Note_on_c, 0, 65, 0
2, 4080, Note_on_c, 0, 63, 100
2, 4259, Note_on_c, 0, 63, 0
2, 4260, Note_on_c, 0, 70, 100
2, 4319, Note_on_c, 0, 70, 0
2, 4320, Note_on_c, 0, 72, 100
2, 4379, Note_on_c, 0, 72, 0
2, 4380, Note_on_c, 0, 73, 100
2, 4439, Note_on_c, 0, 73, 0
2, 4440, Note_on_c, 0, 72, 100
2, 4499, Note_on_c, 0, 72, 0
2, 4500, Note_on_c, 0, 67, 100
2, 4559, Note_on_c, 0, 67, 0
2, 4560, Note_on_c, 0, 65, 100
2, 4619, Note_on_c, 0, 65, 0
2, 4620, Note_on_c, 0, 63, 100
2, 4679, Note_on_c, 0, 63, 0
2, 4680, Note_on_c, 0, 62, 100
2, 4739, Note_on_c, 0, 62, 0
2, 4740, Note_on_c, 0, 72, 100
2, 4799, Note_on_c, 0, 72, 0
2, 4800, Note_on_c, 0, 70, 100
2, 4859, Note_on_c, 0, 70, 0
2, 4860, Note_on_c, 0, 68, 100
2, 4919, Note_on_c, 0, 68, 0
2, 4920, Note_on_c, 0, 77, 100
2, 5099, Note_on_c, 0, 77, 0
2, 5100, Note_on_c, 0, 65, 100
2, 5100, Note_on_c, 0, 68, 100
2, 5159, Note_on_c, 0, 68, 0
2, 5159, Note_on_c, 0, 65, 0
2, 5160, Note_on_c, 0, 65, 100
2, 5160, Note_on_c, 0, 68, 100
2, 5399, Note_on_c, 0, 68, 0
2, 5399, Note_on_c, 0, 65, 0
2, 5400, Note_on_c, 0, 63, 100
2, 5400, Note_on_c, 0, 67, 100
2, 5879, Note_on_c, 0, 67, 0
2, 5879, Note_on_c, 0, 63, 0
2, 5900, Control_c, 0, 7, 110
2, 5902, Control_c, 0, 10, 40
2, 5904, Program_c, 0, 11
2, 5940, Note_on_c, 0, 72, 100
2, 5992, Note_on_c, 0, 72, 0
2, 6000, Note_on_c, 0, 74, 100
2, 6052, Note_on_c, 0, 74, 0
2, 6060, Note_on_c, 0, 75, 100
2, 6112, Note_on_c, 0, 75, 0
2, 6180, Note_on_c, 0, 75, 100
2, 6232, Note_on_c, 0, 75, 0
2, 6240, Note_on_c, 0, 74, 100
2, 6412, Note_on_c, 0, 74, 0
2, 6660, Note_on_c, 0, 74, 100
2, 6712, Note_on_c, 0, 74, 0
2, 6720, Note_on_c, 0, 75, 100
2, 6772, Note_on_c, 0, 75, 0
2, 6780, Note_on_c, 0, 77, 100
2, 6832, Note_on_c, 0, 77, 0
2, 6840, Note_on_c, 0, 75, 100
2, 6892, Note_on_c, 0, 75, 0
2, 7380, Note_on_c, 0, 75, 100
2, 7432, Note_on_c, 0, 75, 0
2, 7440, Note_on_c, 0, 77, 100
2, 7492, Note_on_c, 0, 77, 0
2, 7500, Note_on_c, 0, 79, 100
2, 7552, Note_on_c, 0, 79, 0
2, 7620, Note_on_c, 0, 77, 100
2, 7672, Note_on_c, 0, 77, 0
2, 7680, Note_on_c, 0, 79, 100
2, 7732, Note_on_c, 0, 79, 0
2, 7740, Note_on_c, 0, 80, 100
2, 7792, Note_on_c, 0, 80, 0
2, 7860, Note_on_c, 0, 79, 100
2, 7912, Note_on_c, 0, 79, 0
2, 7920, Note_on_c, 0, 77, 100
2, 7972, Note_on_c, 0, 77, 0
2, 7980, Note_on_c, 0, 75, 100
2, 8032, Note_on_c, 0, 75, 0
2, 8040, Note_on_c, 0, 74, 100
2, 8092, Note_on_c, 0, 74, 0
2, 8100, Note_on_c, 0, 75, 100
2, 8152, Note_on_c, 0, 75, 0
2, 8160, Note_on_c, 0, 77, 100
2, 8212, Note_on_c, 0, 77, 0
2, 8220, Note_on_c, 0, 74, 100
2, 8272, Note_on_c, 0, 74, 0
2, 8280, Note_on_c, 0, 71, 100
2, 8306, Note_on_c, 0, 71, 0
2, 8310, Note_on_c, 0, 72, 100
2, 8323, Note_on_c, 0, 72, 0
2, 8325, Note_on_c, 0, 71, 100
2, 8338, Note_on_c, 0, 71, 0
2, 8340, Note_on_c, 0, 72, 100
2, 8346, Note_on_c, 0, 72, 0
2, 8347, Note_on_c, 0, 71, 100
2, 8354, Note_on_c, 0, 71, 0
2, 8355, Note_on_c, 0, 72, 100
2, 8361, Note_on_c, 0, 72, 0
2, 8362, Note_on_c, 0, 71, 100
2, 8369, Note_on_c, 0, 71, 0
2, 8370, Note_on_c, 0, 72, 100
2, 8376, Note_on_c, 0, 72, 0
2, 8377, Note_on_c, 0, 71, 100
2, 8384, Note_on_c, 0, 71, 0
2, 8385, Note_on_c, 0, 72, 100
2, 8391, Note_on_c, 0, 72, 0
2, 8392, Note_on_c, 0, 71, 100
2, 8399, Note_on_c, 0, 71, 0
2, 8400, Note_on_c, 0, 72, 100
2, 8406, Note_on_c, 0, 72, 0
2, 8407, Note_on_c, 0, 71, 100
2, 8458, Note_on_c, 0, 71, 0
2, 8460, Note_on_c, 0, 69, 100
2, 8512, Note_on_c, 0, 69, 0
2, 8520, Note_on_c, 0, 67, 100
2, 8745, Note_on_c, 0, 67, 0
2, 8760, Note_on_c, 0, 75, 100
2, 8812, Note_on_c, 0, 75, 0
2, 9300, Note_on_c, 0, 72, 100
2, 9352, Note_on_c, 0, 72, 0
2, 9360, Note_on_c, 0, 74, 100
2, 9412, Note_on_c, 0, 74, 0
2, 9420, Note_on_c, 0, 75, 100
2, 9472, Note_on_c, 0, 75, 0
2, 9480, Note_on_c, 0, 74, 100
2, 9532, Note_on_c, 0, 74, 0
2, 10020, Note_on_c, 0, 70, 100
2, 10072, Note_on_c, 0, 70, 0
2, 10080, Note_on_c, 0, 72, 100
2, 10132, Note_on_c, 0, 72, 0
2, 10140, Note_on_c, 0, 73, 100
2, 10192, Note_on_c, 0, 73, 0
2, 10200, Note_on_c, 0, 72, 100
2, 10252, Note_on_c, 0, 72, 0
2, 10500, Note_on_c, 0, 72, 100
2, 10552, Note_on_c, 0, 72, 0
2, 10560, Note_on_c, 0, 70, 100
2, 10612, Note_on_c, 0, 70, 0
2, 10620, Note_on_c, 0, 68, 100
2, 10672, Note_on_c, 0, 68, 0
2, 10680, Note_on_c, 0, 77, 100
2, 10845, Note_on_c, 0, 77, 0
2, 10860, Note_on_c, 0, 65, 100
2, 10860, Note_on_c, 0, 68, 100
2, 10912, Note_on_c, 0, 68, 0
2, 10912, Note_on_c, 0, 65, 0
2, 10920, Note_on_c, 0, 65, 100
2, 10920, Note_on_c, 0, 68, 100
2, 11145, Note_on_c, 0, 68, 0
2, 11145, Note_on_c, 0, 65, 0
2, 11160, Note_on_c, 0, 63, 100
2, 11160, Note_on_c, 0, 67, 100
2, 11625, Note_on_c, 0, 67, 0
2, 11625, Note_on_c, 0, 63, 0
2, 11630, Control_c, 0, 7, 125
2, 11632, Control_c, 0, 10, 40
2, 11634, Program_c, 0, 51
2, 11640, Note_on_c, 0, 70, 100
2, 11699, Note_on_c, 0, 70, 0
2, 11700, Note_on_c, 0, 75, 100
2, 11759, Note_on_c, 0, 75, 0
2, 11760, Note_on_c, 0, 79, 100
2, 11939, Note_on_c, 0, 79, 0
2, 11940, Note_on_c, 0, 72, 100
2, 11999, Note_on_c, 0, 72, 0
2, 12000, Note_on_c, 0, 70, 100
2, 12059, Note_on_c, 0, 70, 0
2, 12060, Note_on_c, 0, 68, 100
2, 12119, Note_on_c, 0, 68, 0
2, 12120, Note_on_c, 0, 70, 100
2, 12179, Note_on_c, 0, 70, 0
2, 12180, Note_on_c, 0, 75, 100
2, 12239, Note_on_c, 0, 75, 0
2, 12240, Note_on_c, 0, 77, 100
2, 12299, Note_on_c, 0, 77, 0
2, 12300, Note_on_c, 0, 79, 100
2, 12359, Note_on_c, 0, 79, 0
2, 12360, Note_on_c, 0, 77, 100
2, 12419, Note_on_c, 0, 77, 0
2, 12420, Note_on_c, 0, 81, 100
2, 12479, Note_on_c, 0, 81, 0
2, 12480, Note_on_c, 0, 82, 100
2, 12659, Note_on_c, 0, 82, 0
2, 12660, Note_on_c, 0, 79, 100
2, 12719, Note_on_c, 0, 79, 0
2, 12720, Note_on_c, 0, 77, 100
2, 12779, Note_on_c, 0, 77, 0
2, 12780, Note_on_c, 0, 75, 100
2, 12839, Note_on_c, 0, 75, 0
2, 12840, Note_on_c, 0, 77, 100
2, 12899, Note_on_c, 0, 77, 0
2, 12900, Note_on_c, 0, 70, 100
2, 12959, Note_on_c, 0, 70, 0
2, 12960, Note_on_c, 0, 69, 100
2, 13019, Note_on_c, 0, 69, 0
2, 13020, Note_on_c, 0, 70, 100
2, 13079, Note_on_c, 0, 70, 0
2, 13080, Note_on_c, 0, 75, 100
2, 13139, Note_on_c, 0, 75, 0
2, 13140, Note_on_c, 0, 74, 100
2, 13199, Note_on_c, 0, 74, 0
2, 13200, Note_on_c, 0, 72, 100
2, 13379, Note_on_c, 0, 72, 0
2, 13380, Note_on_c, 0, 79, 100
2, 13439, Note_on_c, 0, 79, 0
2, 13440, Note_on_c, 0, 77, 100
2, 13499, Note_on_c, 0, 77, 0
2, 13500, Note_on_c, 0, 75, 100
2, 13559, Note_on_c, 0, 75, 0
2, 13560, Note_on_c, 0, 81, 100
2, 13619, Note_on_c, 0, 81, 0
2, 13620, Note_on_c, 0, 82, 100
2, 13679, Note_on_c, 0, 82, 0
2, 13680, Note_on_c, 0, 84, 100
2, 13859, Note_on_c, 0, 84, 0
2, 13860, Note_on_c, 0, 75, 100
2, 13919, Note_on_c, 0, 75, 0
2, 13920, Note_on_c, 0, 74, 100
2, 13979, Note_on_c, 0, 74, 0
2, 13980, Note_on_c, 0, 72, 100
2, 14039, Note_on_c, 0, 72, 0
2, 14040, Note_on_c, 0, 74, 100
2, 14099, Note_on_c, 0, 74, 0
2, 14100, Note_on_c, 0, 77, 100
2, 14159, Note_on_c, 0, 77, 0
2, 14160, Note_on_c, 0, 74, 100
2, 14219, Note_on_c, 0, 74, 0
2, 14220, Note_on_c, 0, 69, 100
2, 14279, Note_on_c, 0, 69, 0
2, 14280, Note_on_c, 0, 70, 100
2, 14579, Note_on_c, 0, 70, 0
2, 14580, Note_on_c, 0, 73, 100
2, 14639, Note_on_c, 0, 73, 0
2, 14640, Note_on_c, 0, 72, 100
2, 14699, Note_on_c, 0, 72, 0
2, 14700, Note_on_c, 0, 70, 100
2, 14759, Note_on_c, 0, 70, 0
2, 14760, Note_on_c, 0, 79, 100
2, 14819, Note_on_c, 0, 79, 0
2, 14820, Note_on_c, 0, 70, 100
2, 14879, Note_on_c, 0, 70, 0
2, 14880, Note_on_c, 0, 68, 100
2, 14939, Note_on_c, 0, 68, 0
2, 14940, Note_on_c, 0, 67, 100
2, 14999, Note_on_c, 0, 67, 0
2, 15000, Note_on_c, 0, 68, 100
2, 15059, Note_on_c, 0, 68, 0
2, 15060, Note_on_c, 0, 72, 100
2, 15119, Note_on_c, 0, 72, 0
2, 15120, Note_on_c, 0, 77, 100
2, 15179, Note_on_c, 0, 77, 0
2, 15180, Note_on_c, 0, 79, 100
2, 15239, Note_on_c, 0, 79, 0
2, 15240, Note_on_c, 0, 81, 100
2, 15299, Note_on_c, 0, 81, 0
2, 15300, Note_on_c, 0, 78, 100
2, 15359, Note_on_c, 0, 78, 0
2, 15360, Note_on_c, 0, 77, 100
2, 15419, Note_on_c, 0, 77, 0
2, 15420, Note_on_c, 0, 75, 100
2, 15479, Note_on_c, 0, 75, 0
2, 15480, Note_on_c, 0, 84, 100
2, 15539, Note_on_c, 0, 84, 0
2, 15540, Note_on_c, 0, 75, 100
2, 15599, Note_on_c, 0, 75, 0
2, 15600, Note_on_c, 0, 73, 100
2, 15659, Note_on_c, 0, 73, 0
2, 15660, Note_on_c, 0, 72, 100
2, 15719, Note_on_c, 0, 72, 0
2, 15720, Note_on_c, 0, 73, 100
2, 15779, Note_on_c, 0, 73, 0
2, 15780, Note_on_c, 0, 77, 100
2, 15839, Note_on_c, 0, 77, 0
2, 15840, Note_on_c, 0, 82, 100
2, 15899, Note_on_c, 0, 82, 0
2, 15900, Note_on_c, 0, 80, 100
2, 15959, Note_on_c, 0, 80, 0
2, 15960, Note_on_c, 0, 78, 100
2, 16019, Note_on_c, 0, 78, 0
2, 16020, Note_on_c, 0, 77, 100
2, 16079, Note_on_c, 0, 77, 0
2, 16080, Note_on_c, 0, 76, 100
2, 16139, Note_on_c, 0, 76, 0
2, 16140, Note_on_c, 0, 77, 100
2, 16199, Note_on_c, 0, 77, 0
2, 16200, Note_on_c, 0, 73, 100
2, 16259, Note_on_c, 0, 73, 0
2, 16260, Note_on_c, 0, 72, 100
2, 16319, Note_on_c, 0, 72, 0
2, 16320, Note_on_c, 0, 71, 100
2, 16379, Note_on_c, 0, 71, 0
2, 16380, Note_on_c, 0, 72, 100
2, 16439, Note_on_c, 0, 72, 0
2, 16440, Note_on_c, 0, 80, 100
2, 16499, Note_on_c, 0, 80, 0
2, 16500, Note_on_c, 0, 79, 100
2, 16559, Note_on_c, 0, 79, 0
2, 16560, Note_on_c, 0, 77, 100
2, 16619, Note_on_c, 0, 77, 0
2, 16620, Note_on_c, 0, 76, 100
2, 16679, Note_on_c, 0, 76, 0
2, 16680, Note_on_c, 0, 77, 100
2, 16739, Note_on_c, 0, 77, 0
2, 16740, Note_on_c, 0, 72, 100
2, 16799, Note_on_c, 0, 72, 0
2, 16800, Note_on_c, 0, 73, 100
2, 16859, Note_on_c, 0, 73, 0
2, 16860, Note_on_c, 0, 76, 100
2, 16919, Note_on_c, 0, 76, 0
2, 16920, Note_on_c, 0, 77, 100
2, 16979, Note_on_c, 0, 77, 0
2, 16980, Note_on_c, 0, 70, 100
2, 17039, Note_on_c, 0, 70, 0
2, 17040, Note_on_c, 0, 68, 100
2, 17099, Note_on_c, 0, 68, 0
2, 17100, Note_on_c, 0, 67, 100
2, 17159, Note_on_c, 0, 67, 0
2, 17160, Note_on_c, 0, 65, 100
2, 17459, Note_on_c, 0, 65, 0
2, 17460, Note_on_c, 0, 75, 100
2, 17519, Note_on_c, 0, 75, 0
2, 17520, Note_on_c, 0, 74, 100
2, 17579, Note_on_c, 0, 74, 0
2, 17580, Note_on_c, 0, 72, 100
2, 17639, Note_on_c, 0, 72, 0
2, 17640, Note_on_c, 0, 74, 100
2, 17699, Note_on_c, 0, 74, 0
2, 17700, Note_on_c, 0, 80, 100
2, 17759, Note_on_c, 0, 80, 0
2, 17760, Note_on_c, 0, 70, 100
2, 17819, Note_on_c, 0, 70, 0
2, 17820, Note_on_c, 0, 77, 100
2, 17879, Note_on_c, 0, 77, 0
2, 17880, Note_on_c, 0, 79, 100
2, 17939, Note_on_c, 0, 79, 0
2, 17940, Note_on_c, 0, 68, 100
2, 17999, Note_on_c, 0, 68, 0
2, 18000, Note_on_c, 0, 67, 100
2, 18059, Note_on_c, 0, 67, 0
2, 18060, Note_on_c, 0, 65, 100
2, 18119, Note_on_c, 0, 65, 0
2, 18120, Note_on_c, 0, 63, 100
2, 18179, Note_on_c, 0, 63, 0
2, 18180, Note_on_c, 0, 74, 100
2, 18239, Note_on_c, 0, 74, 0
2, 18240, Note_on_c, 0, 72, 100
2, 18299, Note_on_c, 0, 72, 0
2, 18300, Note_on_c, 0, 71, 100
2, 18359, Note_on_c, 0, 71, 0
2, 18360, Note_on_c, 0, 72, 100
2, 18419, Note_on_c, 0, 72, 0
2, 18420, Note_on_c, 0, 79, 100
2, 18479, Note_on_c, 0, 79, 0
2, 18480, Note_on_c, 0, 68, 100
2, 18539, Note_on_c, 0, 68, 0
2, 18540, Note_on_c, 0, 75, 100
2, 18599, Note_on_c, 0, 75, 0
2, 18600, Note_on_c, 0, 77, 100
2, 18659, Note_on_c, 0, 77, 0
2, 18660, Note_on_c, 0, 67, 100
2, 18719, Note_on_c, 0, 67, 0
2, 18720, Note_on_c, 0, 65, 100
2, 18779, Note_on_c, 0, 65, 0
2, 18780, Note_on_c, 0, 63, 100
2, 18839, Note_on_c, 0, 63, 0
2, 18840, Note_on_c, 0, 62, 100
2, 18899, Note_on_c, 0, 62, 0
2, 18900, Note_on_c, 0, 72, 100
2, 18959, Note_on_c, 0, 72, 0
2, 18960, Note_on_c, 0, 71, 100
2, 19019, Note_on_c, 0, 71, 0
2, 19020, Note_on_c, 0, 69, 100
2, 19079, Note_on_c, 0, 69, 0
2, 19080, Note_on_c, 0, 71, 100
2, 19139, Note_on_c, 0, 71, 0
2, 19140, Note_on_c, 0, 77, 100
2, 19199, Note_on_c, 0, 77, 0
2, 19200, Note_on_c, 0, 67, 100
2, 19259, Note_on_c, 0, 67, 0
2, 19260, Note_on_c, 0, 74, 100
2, 19319, Note_on_c, 0, 74, 0
2, 19320, Note_on_c, 0, 75, 100
2, 19379, Note_on_c, 0, 75, 0
2, 19380, Note_on_c, 0, 65, 100
2, 19439, Note_on_c, 0, 65, 0
2, 19440, Note_on_c, 0, 63, 100
2, 19499, Note_on_c, 0, 63, 0
2, 19500, Note_on_c, 0, 62, 100
2, 19559, Note_on_c, 0, 62, 0
2, 19560, Note_on_c, 0, 60, 100
2, 19619, Note_on_c, 0, 60, 0
2, 19620, Note_on_c, 0, 67, 100
2, 19679, Note_on_c, 0, 67, 0
2, 19680, Note_on_c, 0, 66, 100
2, 19739, Note_on_c, 0, 66, 0
2, 19740, Note_on_c, 0, 69, 100
2, 19799, Note_on_c, 0, 69, 0
2, 19800, Note_on_c, 0, 72, 100
2, 19859, Note_on_c, 0, 72, 0
2, 19860, Note_on_c, 0, 69, 100
2, 19919, Note_on_c, 0, 69, 0
2, 19920, Note_on_c, 0, 71, 100
2, 19979, Note_on_c, 0, 71, 0
2, 19980, Note_on_c, 0, 74, 100
2, 20039, Note_on_c, 0, 74, 0
2, 20040, Note_on_c, 0, 67, 100
2, 20099, Note_on_c, 0, 67, 0
2, 20100, Note_on_c, 0, 77, 100
2, 20159, Note_on_c, 0, 77, 0
2, 20160, Note_on_c, 0, 75, 100
2, 20219, Note_on_c, 0, 75, 0
2, 20220, Note_on_c, 0, 74, 100
2, 20279, Note_on_c, 0, 74, 0
2, 20280, Note_on_c, 0, 75, 100
2, 20339, Note_on_c, 0, 75, 0
2, 20340, Note_on_c, 0, 79, 100
2, 20399, Note_on_c, 0, 79, 0
2, 20400, Note_on_c, 0, 72, 100
2, 20459, Note_on_c, 0, 72, 0
2, 20460, Note_on_c, 0, 71, 100
2, 20519, Note_on_c, 0, 71, 0
2, 20520, Note_on_c, 0, 72, 100
2, 20819, Note_on_c, 0, 72, 0
2, 20820, Note_on_c, 0, 75, 100
2, 20879, Note_on_c, 0, 75, 0
2, 20880, Note_on_c, 0, 68, 100
2, 20939, Note_on_c, 0, 68, 0
2, 20940, Note_on_c, 0, 67, 100
2, 20999, Note_on_c, 0, 67, 0
2, 21000, Note_on_c, 0, 68, 100
2, 21299, Note_on_c, 0, 68, 0
2, 21300, Note_on_c, 0, 72, 100
2, 21359, Note_on_c, 0, 72, 0
2, 21360, Note_on_c, 0, 65, 100
2, 21419, Note_on_c, 0, 65, 0
2, 21420, Note_on_c, 0, 64, 100
2, 21479, Note_on_c, 0, 64, 0
2, 21480, Note_on_c, 0, 65, 100
2, 21779, Note_on_c, 0, 65, 0
2, 21780, Note_on_c, 0, 68, 100
2, 21839, Note_on_c, 0, 68, 0
2, 21840, Note_on_c, 0, 73, 100
2, 21899, Note_on_c, 0, 73, 0
2, 21900, Note_on_c, 0, 72, 100
2, 21959, Note_on_c, 0, 72, 0
2, 21960, Note_on_c, 0, 76, 100
2, 22019, Note_on_c, 0, 76, 0
2, 22020, Note_on_c, 0, 77, 100
2, 22079, Note_on_c, 0, 77, 0
2, 22080, Note_on_c, 0, 71, 100
2, 22139, Note_on_c, 0, 71, 0
2, 22140, Note_on_c, 0, 72, 100
2, 22199, Note_on_c, 0, 72, 0
2, 22200, Note_on_c, 0, 66, 100
2, 22259, Note_on_c, 0, 66, 0
2, 22260, Note_on_c, 0, 67, 100
2, 22319, Note_on_c, 0, 67, 0
2, 22320, Note_on_c, 0, 75, 100
2, 22379, Note_on_c, 0, 75, 0
2, 22380, Note_on_c, 0, 71, 100
2, 22439, Note_on_c, 0, 71, 0
2, 22440, Note_on_c, 0, 72, 100
2, 22499, Note_on_c, 0, 72, 0
2, 22500, Note_on_c, 0, 65, 100
2, 22559, Note_on_c, 0, 65, 0
2, 22560, Note_on_c, 0, 63, 100
2, 22619, Note_on_c, 0, 63, 0
2, 22620, Note_on_c, 0, 62, 100
2, 22679, Note_on_c, 0, 62, 0
2, 22680, Note_on_c, 0, 63, 100
2, 23150, Control_c, 0, 7, 110
2, 23152, Control_c, 0, 10, 40
2, 23154, Program_c, 0, 11
2, 23159, Note_on_c, 0, 63, 0
2, 23220, Note_on_c, 0, 70, 100
2, 23272, Note_on_c, 0, 70, 0
2, 23280, Note_on_c, 0, 75, 100
2, 23332, Note_on_c, 0, 75, 0
2, 23340, Note_on_c, 0, 79, 100
2, 23512, Note_on_c, 0, 79, 0
2, 23760, Note_on_c, 0, 75, 100
2, 23812, Note_on_c, 0, 75, 0
2, 23820, Note_on_c, 0, 77, 100
2, 23872, Note_on_c, 0, 77, 0
2, 23880, Note_on_c, 0, 79, 100
2, 23932, Note_on_c, 0, 79, 0
2, 23940, Note_on_c, 0, 77, 100
2, 23992, Note_on_c, 0, 77, 0
2, 24000, Note_on_c, 0, 81, 100
2, 24052, Note_on_c, 0, 81, 0
2, 24060, Note_on_c, 0, 82, 100
2, 24232, Note_on_c, 0, 82, 0
2, 24480, Note_on_c, 0, 70, 100
2, 24532, Note_on_c, 0, 70, 0
2, 24540, Note_on_c, 0, 69, 100
2, 24592, Note_on_c, 0, 69, 0
2, 24600, Note_on_c, 0, 70, 100
2, 24652, Note_on_c, 0, 70, 0
2, 24660, Note_on_c, 0, 75, 100
2, 24712, Note_on_c, 0, 75, 0
2, 24720, Note_on_c, 0, 74, 100
2, 24772, Note_on_c, 0, 74, 0
2, 24780, Note_on_c, 0, 72, 100
2, 24952, Note_on_c, 0, 72, 0
2, 25440, Note_on_c, 0, 75, 100
2, 25492, Note_on_c, 0, 75, 0
2, 25500, Note_on_c, 0, 74, 100
2, 25552, Note_on_c, 0, 74, 0
2, 25560, Note_on_c, 0, 72, 100
2, 25612, Note_on_c, 0, 72, 0
2, 25620, Note_on_c, 0, 74, 100
2, 25672, Note_on_c, 0, 74, 0
2, 25680, Note_on_c, 0, 77, 100
2, 25732, Note_on_c, 0, 77, 0
2, 25740, Note_on_c, 0, 74, 100
2, 25792, Note_on_c, 0, 74, 0
2, 25800, Note_on_c, 0, 69, 100
2, 25852, Note_on_c, 0, 69, 0
2, 25860, Note_on_c, 0, 70, 100
2, 26152, Note_on_c, 0, 70, 0
2, 26160, Note_on_c, 0, 73, 100
2, 26212, Note_on_c, 0, 73, 0
2, 26220, Note_on_c, 0, 72, 100
2, 26272, Note_on_c, 0, 72, 0
2, 26280, Note_on_c, 0, 70, 100
2, 26332, Note_on_c, 0, 70, 0
2, 26340, Note_on_c, 0, 79, 100
2, 26392, Note_on_c, 0, 79, 0
2, 26640, Note_on_c, 0, 72, 100
2, 26692, Note_on_c, 0, 72, 0
2, 26700, Note_on_c, 0, 77, 100
2, 26752, Note_on_c, 0, 77, 0
2, 26760, Note_on_c, 0, 79, 100
2, 26812, Note_on_c, 0, 79, 0
2, 26820, Note_on_c, 0, 81, 100
2, 26872, Note_on_c, 0, 81, 0
2, 27120, Note_on_c, 0, 75, 100
2, 27172, Note_on_c, 0, 75, 0
2, 27180, Note_on_c, 0, 73, 100
2, 27232, Note_on_c, 0, 73, 0
2, 27240, Note_on_c, 0, 72, 100
2, 27292, Note_on_c, 0, 72, 0
2, 27300, Note_on_c, 0, 73, 100
2, 27352, Note_on_c, 0, 73, 0
2, 28320, Note_on_c, 0, 72, 100
2, 28372, Note_on_c, 0, 72, 0
2, 28380, Note_on_c, 0, 73, 100
2, 28432, Note_on_c, 0, 73, 0
2, 28440, Note_on_c, 0, 76, 100
2, 28492, Note_on_c, 0, 76, 0
2, 28500, Note_on_c, 0, 77, 100
2, 28552, Note_on_c, 0, 77, 0
2, 29040, Note_on_c, 0, 75, 100
2, 29092, Note_on_c, 0, 75, 0
2, 29100, Note_on_c, 0, 74, 100
2, 29152, Note_on_c, 0, 74, 0
2, 29160, Note_on_c, 0, 72, 100
2, 29212, Note_on_c, 0, 72, 0
2, 29220, Note_on_c, 0, 74, 100
2, 29272, Note_on_c, 0, 74, 0
2, 29280, Note_on_c, 0, 80, 100
2, 29332, Note_on_c, 0, 80, 0
2, 29400, Note_on_c, 0, 77, 100
2, 29452, Note_on_c, 0, 77, 0
2, 29460, Note_on_c, 0, 79, 100
2, 29512, Note_on_c, 0, 79, 0
2, 29760, Note_on_c, 0, 74, 100
2, 29812, Note_on_c, 0, 74, 0
2, 29820, Note_on_c, 0, 72, 100
2, 29872, Note_on_c, 0, 72, 0
2, 29880, Note_on_c, 0, 71, 100
2, 29932, Note_on_c, 0, 71, 0
2, 29940, Note_on_c, 0, 72, 100
2, 29992, Note_on_c, 0, 72, 0
2, 30000, Note_on_c, 0, 79, 100
2, 30052, Note_on_c, 0, 79, 0
2, 30120, Note_on_c, 0, 75, 100
2, 30172, Note_on_c, 0, 75, 0
2, 30180, Note_on_c, 0, 77, 100
2, 30232, Note_on_c, 0, 77, 0
2, 30480, Note_on_c, 0, 72, 100
2, 30532, Note_on_c, 0, 72, 0
2, 30540, Note_on_c, 0, 71, 100
2, 30592, Note_on_c, 0, 71, 0
2, 30600, Note_on_c, 0, 69, 100
2, 30652, Note_on_c, 0, 69, 0
2, 30660, Note_on_c, 0, 71, 100
2, 30712, Note_on_c, 0, 71, 0
2, 30720, Note_on_c, 0, 77, 100
2, 30772, Note_on_c, 0, 77, 0
2, 30840, Note_on_c, 0, 74, 100
2, 30892, Note_on_c, 0, 74, 0
2, 30900, Note_on_c, 0, 75, 100
2, 30952, Note_on_c, 0, 75, 0
2, 31200, Note_on_c, 0, 67, 100
2, 31252, Note_on_c, 0, 67, 0
2, 31260, Note_on_c, 0, 66, 100
2, 31312, Note_on_c, 0, 66, 0
2, 31320, Note_on_c, 0, 69, 100
2, 31372, Note_on_c, 0, 69, 0
2, 31380, Note_on_c, 0, 72, 100
2, 31432, Note_on_c, 0, 72, 0
2, 31440, Note_on_c, 0, 69, 100
2, 31492, Note_on_c, 0, 69, 0
2, 31500, Note_on_c, 0, 71, 100
2, 31552, Note_on_c, 0, 71, 0
2, 31560, Note_on_c, 0, 74, 100
2, 31612, Note_on_c, 0, 74, 0
2, 31620, Note_on_c, 0, 67, 100
2, 31672, Note_on_c, 0, 67, 0
2, 31680, Note_on_c, 0, 77, 100
2, 31732, Note_on_c, 0, 77, 0
2, 31740, Note_on_c, 0, 75, 100
2, 31792, Note_on_c, 0, 75, 0
2, 31800, Note_on_c, 0, 74, 100
2, 31852, Note_on_c, 0, 74, 0
2, 31860, Note_on_c, 0, 75, 100
2, 31912, Note_on_c, 0, 75, 0
2, 31920, Note_on_c, 0, 79, 100
2, 31972, Note_on_c, 0, 79, 0
2, 31980, Note_on_c, 0, 72, 100
2, 32032, Note_on_c, 0, 72, 0
2, 32040, Note_on_c, 0, 71, 100
2, 32092, Note_on_c, 0, 71, 0
2, 32100, Note_on_c, 0, 72, 100
2, 32392, Note_on_c, 0, 72, 0
2, 32400, Note_on_c, 0, 75, 100
2, 32452, Note_on_c, 0, 75, 0
2, 32460, Note_on_c, 0, 68, 100
2, 32512, Note_on_c, 0, 68, 0
2, 32520, Note_on_c, 0, 67, 100
2, 32572, Note_on_c, 0, 67, 0
2, 32580, Note_on_c, 0, 68, 100
2, 32872, Note_on_c, 0, 68, 0
2, 32880, Note_on_c, 0, 72, 100
2, 32932, Note_on_c, 0, 72, 0
2, 32940, Note_on_c, 0, 65, 100
2, 32992, Note_on_c, 0, 65, 0
2, 33000, Note_on_c, 0, 64, 100
2, 33052, Note_on_c, 0, 64, 0
2, 33060, Note_on_c, 0, 65, 100
2, 33352, Note_on_c, 0, 65, 0
2, 33360, Note_on_c, 0, 68, 100
2, 33412, Note_on_c, 0, 68, 0
2, 33420, Note_on_c, 0, 73, 100
2, 33472, Note_on_c, 0, 73, 0
2, 33480, Note_on_c, 0, 72, 100
2, 33532, Note_on_c, 0, 72, 0
2, 33540, Note_on_c, 0, 76, 100
2, 33592, Note_on_c, 0, 76, 0
2, 33600, Note_on_c, 0, 77, 100
2, 33652, Note_on_c, 0, 77, 0
2, 33660, Note_on_c, 0, 71, 100
2, 33712, Note_on_c, 0, 71, 0
2, 33720, Note_on_c, 0, 72, 100
2, 33772, Note_on_c, 0, 72, 0
2, 33780, Note_on_c, 0, 66, 100
2, 33832, Note_on_c, 0, 66, 0
2, 33840, Note_on_c, 0, 67, 100
2, 33892, Note_on_c, 0, 67, 0
2, 33900, Note_on_c, 0, 75, 100
2, 33952, Note_on_c, 0, 75, 0
2, 33960, Note_on_c, 0, 71, 100
2, 34012, Note_on_c, 0, 71, 0
2, 34020, Note_on_c, 0, 72, 100
2, 34072, Note_on_c, 0, 72, 0
2, 34260, Note_on_c, 0, 67, 100
2, 34260, Note_on_c, 0, 72, 100
2, 34725, Note_on_c, 0, 72, 0
2, 34725, Note_on_c, 0, 67, 0
2, 34725, End_track
3, 0, Start_track
3, 0, MIDI_port, 0
3, 0, Program_c, 1, 48
3, 0, Control_c, 1, 7, 120
3, 0, Control_c, 1, 10, 80
3, 106, Control_c, 1, 7, 120
3, 108, Control_c, 1, 10, 80
3, 110, Program_c, 1, 48
3, 120, Note_on_c, 1, 48, 90
3, 239, Note_on_c, 1, 48, 0
3, 240, Note_on_c, 1, 60, 90
3, 419, Note_on_c, 1, 60, 0
3, 420, Note_on_c, 1, 58, 90
3, 479, Note_on_c, 1, 58, 0
3, 480, Note_on_c, 1, 56, 90
3, 539, Note_on_c, 1, 56, 0
3, 540, Note_on_c, 1, 55, 90
3, 599, Note_on_c, 1, 55, 0
3, 600, Note_on_c, 1, 56, 90
3, 719, Note_on_c, 1, 56, 0
3, 720, Note_on_c, 1, 48, 90
3, 839, Note_on_c, 1, 48, 0
3, 840, Note_on_c, 1, 47, 90
3, 959, Note_on_c, 1, 47, 0
3, 960, Note_on_c, 1, 55, 90
3, 1139, Note_on_c, 1, 55, 0
3, 1140, Note_on_c, 1, 53, 90
3, 1199, Note_on_c, 1, 53, 0
3, 1200, Note_on_c, 1, 51, 90
3, 1259, Note_on_c, 1, 51, 0
3, 1260, Note_on_c, 1, 50, 90
3, 1319, Note_on_c, 1, 50, 0
3, 1320, Note_on_c, 1, 51, 90
3, 1439, Note_on_c, 1, 51, 0
3, 1440, Note_on_c, 1, 43, 90
3, 1559, Note_on_c, 1, 43, 0
3, 1560, Note_on_c, 1, 36, 90
3, 1679, Note_on_c, 1, 36, 0
3, 1680, Note_on_c, 1, 48, 90
3, 1799, Note_on_c, 1, 48, 0
3, 1800, Note_on_c, 1, 50, 90
3, 1919, Note_on_c, 1, 50, 0
3, 1920, Note_on_c, 1, 38, 90
3, 2039, Note_on_c, 1, 38, 0
3, 2040, Note_on_c, 1, 39, 90
3, 2159, Note_on_c, 1, 39, 0
3, 2160, Note_on_c, 1, 51, 90
3, 2279, Note_on_c, 1, 51, 0
3, 2280, Note_on_c, 1, 53, 90
3, 2339, Note_on_c, 1, 53, 0
3, 2340, Note_on_c, 1, 55, 90
3, 2399, Note_on_c, 1, 55, 0
3, 2400, Note_on_c, 1, 56, 90
3, 2459, Note_on_c, 1, 56, 0
3, 2460, Note_on_c, 1, 53, 90
3, 2519, Note_on_c, 1, 53, 0
3, 2520, Note_on_c, 1, 55, 90
3, 2579, Note_on_c, 1, 55, 0
3, 2580, Note_on_c, 1, 57, 90
3, 2639, Note_on_c, 1, 57, 0
3, 2640, Note_on_c, 1, 59, 90
3, 2699, Note_on_c, 1, 59, 0
3, 2700, Note_on_c, 1, 60, 90
3, 2759, Note_on_c, 1, 60, 0
3, 2760, Note_on_c, 1, 62, 90
3, 2819, Note_on_c, 1, 62, 0
3, 2820, Note_on_c, 1, 65, 90
3, 2879, Note_on_c, 1, 65, 0
3, 2880, Note_on_c, 1, 63, 90
3, 2939, Note_on_c, 1, 63, 0
3, 2940, Note_on_c, 1, 62, 90
3, 2999, Note_on_c, 1, 62, 0
3, 3000, Note_on_c, 1, 60, 90
3, 3119, Note_on_c, 1, 60, 0
3, 3120, Note_on_c, 1, 48, 90
3, 3239, Note_on_c, 1, 48, 0
3, 3240, Note_on_c, 1, 53, 90
3, 3299, Note_on_c, 1, 53, 0
3, 3300, Note_on_c, 1, 55, 90
3, 3359, Note_on_c, 1, 55, 0
3, 3360, Note_on_c, 1, 56, 90
3, 3419, Note_on_c, 1, 56, 0
3, 3420, Note_on_c, 1, 58, 90
3, 3479, Note_on_c, 1, 58, 0
3, 3480, Note_on_c, 1, 60, 90
3, 3599, Note_on_c, 1, 60, 0
3, 3600, Note_on_c, 1, 53, 90
3, 3719, Note_on_c, 1, 53, 0
3, 3720, Note_on_c, 1, 58, 90
3, 3839, Note_on_c, 1, 58, 0
3, 3840, Note_on_c, 1, 46, 90
3, 3959, Note_on_c, 1, 46, 0
3, 3960, Note_on_c, 1, 51, 90
3, 4019, Note_on_c, 1, 51, 0
3, 4020, Note_on_c, 1, 53, 90
3, 4079, Note_on_c, 1, 53, 0
3, 4080, Note_on_c, 1, 55, 90
3, 4139, Note_on_c, 1, 55, 0
3, 4140, Note_on_c, 1, 56, 90
3, 4199, Note_on_c, 1, 56, 0
3, 4200, Note_on_c, 1, 58, 90
3, 4319, Note_on_c, 1, 58, 0
3, 4320, Note_on_c, 1, 51, 90
3, 4439, Note_on_c, 1, 51, 0
3, 4440, Note_on_c, 1, 56, 90
3, 4559, Note_on_c, 1, 56, 0
3, 4560, Note_on_c, 1, 44, 90
3, 4679, Note_on_c, 1, 44, 0
3, 4680, Note_on_c, 1, 46, 90
3, 4739, Note_on_c, 1, 46, 0
3, 4740, Note_on_c, 1, 56, 90
3, 4799, Note_on_c, 1, 56, 0
3, 4800, Note_on_c, 1, 55, 90
3, 4859, Note_on_c, 1, 55, 0
3, 4860, Note_on_c, 1, 53, 90
3, 4919, Note_on_c, 1, 53, 0
3, 4920, Note_on_c, 1, 51, 90
3, 4979, Note_on_c, 1, 51, 0
3, 4980, Note_on_c, 1, 50, 90
3, 5039, Note_on_c, 1, 50, 0
3, 5040, Note_on_c, 1, 48, 90
3, 5099, Note_on_c, 1, 48, 0
3, 5100, Note_on_c, 1, 46, 90
3, 5159, Note_on_c, 1, 46, 0
3, 5160, Note_on_c, 1, 51, 90
3, 5219, Note_on_c, 1, 51, 0
3, 5220, Note_on_c, 1, 43, 90
3, 5279, Note_on_c, 1, 43, 0
3, 5280, Note_on_c, 1, 44, 90
3, 5339, Note_on_c, 1, 44, 0
3, 5340, Note_on_c, 1, 46, 90
3, 5399, Note_on_c, 1, 46, 0
3, 5400, Note_on_c, 1, 39, 90
3, 5519, Note_on_c, 1, 39, 0
3, 5520, Note_on_c, 1, 43, 90
3, 5579, Note_on_c, 1, 43, 0
3, 5580, Note_on_c, 1, 46, 90
3, 5639, Note_on_c, 1, 46, 0
3, 5640, Note_on_c, 1, 51, 90
3, 5879, Note_on_c, 1, 51, 0
3, 5880, Note_on_c, 1, 48, 90
3, 5900, Control_c, 1, 7, 100
3, 5902, Control_c, 1, 10, 80
3, 5904, Program_c, 1, 87
3, 5999, Note_on_c, 1, 48, 0
3, 6000, Note_on_c, 1, 60, 90
3, 6172, Note_on_c, 1, 60, 0
3, 6180, Note_on_c, 1, 58, 90
3, 6232, Note_on_c, 1, 58, 0
3, 6240, Note_on_c, 1, 56, 90
3, 6292, Note_on_c, 1, 56, 0
3, 6300, Note_on_c, 1, 55, 90
3, 6352, Note_on_c, 1, 55, 0
3, 6360, Note_on_c, 1, 56, 90
3, 6465, Note_on_c, 1, 56, 0
3, 6480, Note_on_c, 1, 48, 90
3, 6585, Note_on_c, 1, 48, 0
3, 6600, Note_on_c, 1, 47, 90
3, 6705, Note_on_c, 1, 47, 0
3, 6720, Note_on_c, 1, 55, 90
3, 6892, Note_on_c, 1, 55, 0
3, 6900, Note_on_c, 1, 53, 90
3, 6952, Note_on_c, 1, 53, 0
3, 6960, Note_on_c, 1, 51, 90
3, 7012, Note_on_c, 1, 51, 0
3, 7020, Note_on_c, 1, 50, 90
3, 7072, Note_on_c, 1, 50, 0
3, 7080, Note_on_c, 1, 51, 90
3, 7185, Note_on_c, 1, 51, 0
3, 7200, Note_on_c, 1, 43, 90
3, 7305, Note_on_c, 1, 43, 0
3, 7320, Note_on_c, 1, 36, 90
3, 7425, Note_on_c, 1, 36, 0
3, 7440, Note_on_c, 1, 48, 90
3, 7545, Note_on_c, 1, 48, 0
3, 7560, Note_on_c, 1, 50, 90
3, 7665, Note_on_c, 1, 50, 0
3, 7680, Note_on_c, 1, 38, 90
3, 7785, Note_on_c, 1, 38, 0
3, 7800, Note_on_c, 1, 39, 90
3, 7905, Note_on_c, 1, 39, 0
3, 7920, Note_on_c, 1, 51, 90
3, 8025, Note_on_c, 1, 51, 0
3, 8040, Note_on_c, 1, 53, 90
3, 8092, Note_on_c, 1, 53, 0
3, 8100, Note_on_c, 1, 55, 90
3, 8152, Note_on_c, 1, 55, 0
3, 8160, Note_on_c, 1, 56, 90
3, 8212, Note_on_c, 1, 56, 0
3, 8220, Note_on_c, 1, 53, 90
3, 8272, Note_on_c, 1, 53, 0
3, 8280, Note_on_c, 1, 55, 90
3, 8332, Note_on_c, 1, 55, 0
3, 8340, Note_on_c, 1, 57, 90
3, 8392, Note_on_c, 1, 57, 0
3, 8400, Note_on_c, 1, 59, 90
3, 8452, Note_on_c, 1, 59, 0
3, 8460, Note_on_c, 1, 60, 90
3, 8512, Note_on_c, 1, 60, 0
3, 8520, Note_on_c, 1, 62, 90
3, 8572, Note_on_c, 1, 62, 0
3, 8580, Note_on_c, 1, 65, 90
3, 8632, Note_on_c, 1, 65, 0
3, 8640, Note_on_c, 1, 63, 90
3, 8692, Note_on_c, 1, 63, 0
3, 8700, Note_on_c, 1, 62, 90
3, 8752, Note_on_c, 1, 62, 0
3, 8760, Note_on_c, 1, 60, 90
3, 8865, Note_on_c, 1, 60, 0
3, 8880, Note_on_c, 1, 48, 90
3, 8985, Note_on_c, 1, 48, 0
3, 9000, Note_on_c, 1, 53, 90
3, 9052, Note_on_c, 1, 53, 0
3, 9060, Note_on_c, 1, 55, 90
3, 9112, Note_on_c, 1, 55, 0
3, 9120, Note_on_c, 1, 56, 90
3, 9172, Note_on_c, 1, 56, 0
3, 9180, Note_on_c, 1, 58, 90
3, 9232, Note_on_c, 1, 58, 0
3, 9240, Note_on_c, 1, 60, 90
3, 9345, Note_on_c, 1, 60, 0
3, 9360, Note_on_c, 1, 53, 90
3, 9465, Note_on_c, 1, 53, 0
3, 9480, Note_on_c, 1, 58, 90
3, 9585, Note_on_c, 1, 58, 0
3, 9600, Note_on_c, 1, 46, 90
3, 9705, Note_on_c, 1, 46, 0
3, 9720, Note_on_c, 1, 51, 90
3, 9772, Note_on_c, 1, 51, 0
3, 9780, Note_on_c, 1, 53, 90
3, 9832, Note_on_c, 1, 53, 0
3, 9840, Note_on_c, 1, 55, 90
3, 9892, Note_on_c, 1, 55, 0
3, 9900, Note_on_c, 1, 56, 90
3, 9952, Note_on_c, 1, 56, 0
3, 9960, Note_on_c, 1, 58, 90
3, 10065, Note_on_c, 1, 58, 0
3, 10080, Note_on_c, 1, 51, 90
3, 10185, Note_on_c, 1, 51, 0
3, 10200, Note_on_c, 1, 56, 90
3, 10305, Note_on_c, 1, 56, 0
3, 10320, Note_on_c, 1, 44, 90
3, 10425, Note_on_c, 1, 44, 0
3, 10440, Note_on_c, 1, 46, 90
3, 10492, Note_on_c, 1, 46, 0
3, 10500, Note_on_c, 1, 56, 90
3, 10552, Note_on_c, 1, 56, 0
3, 10560, Note_on_c, 1, 55, 90
3, 10612, Note_on_c, 1, 55, 0
3, 10620, Note_on_c, 1, 53, 90
3, 10672, Note_on_c, 1, 53, 0
3, 10680, Note_on_c, 1, 51, 90
3, 10732, Note_on_c, 1, 51, 0
3, 10740, Note_on_c, 1, 50, 90
3, 10792, Note_on_c, 1, 50, 0
3, 10800, Note_on_c, 1, 48, 90
3, 10852, Note_on_c, 1, 48, 0
3, 10860, Note_on_c, 1, 46, 90
3, 10912, Note_on_c, 1, 46, 0
3, 10920, Note_on_c, 1, 51, 90
3, 10972, Note_on_c, 1, 51, 0
3, 10980, Note_on_c, 1, 43, 90
3, 11032, Note_on_c, 1, 43, 0
3, 11040, Note_on_c, 1, 44, 90
3, 11092, Note_on_c, 1, 44, 0
3, 11100, Note_on_c, 1, 46, 90
3, 11152, Note_on_c, 1, 46, 0
3, 11160, Note_on_c, 1, 39, 90
3, 11265, Note_on_c, 1, 39, 0
3, 11280, Note_on_c, 1, 43, 90
3, 11332, Note_on_c, 1, 43, 0
3, 11340, Note_on_c, 1, 46, 90
3, 11392, Note_on_c, 1, 46, 0
3, 11400, Note_on_c, 1, 51, 90
3, 11625, Note_on_c, 1, 51, 0
3, 11630, Control_c, 1, 7, 120
3, 11632, Control_c, 1, 10, 80
3, 11634, Program_c, 1, 48
3, 11640, Note_on_c, 1, 51, 90
3, 11699, Note_on_c, 1, 51, 0
3, 11700, Note_on_c, 1, 55, 90
3, 11759, Note_on_c, 1, 55, 0
3, 11760, Note_on_c, 1, 58, 90
3, 11819, Note_on_c, 1, 58, 0
3, 11820, Note_on_c, 1, 62, 90
3, 11879, Note_on_c, 1, 62, 0
3, 11880, Note_on_c, 1, 63, 90
3, 11939, Note_on_c, 1, 63, 0
3, 11940, Note_on_c, 1, 67, 90
3, 11999, Note_on_c, 1, 67, 0
3, 12000, Note_on_c, 1, 51, 90
3, 12179, Note_on_c, 1, 51, 0
3, 12180, Note_on_c, 1, 55, 90
3, 12239, Note_on_c, 1, 55, 0
3, 12240, Note_on_c, 1, 53, 90
3, 12299, Note_on_c, 1, 53, 0
3, 12300, Note_on_c, 1, 51, 90
3, 12359, Note_on_c, 1, 51, 0
3, 12360, Note_on_c, 1, 50, 90
3, 12419, Note_on_c, 1, 50, 0
3, 12420, Note_on_c, 1, 53, 90
3, 12479, Note_on_c, 1, 53, 0
3, 12480, Note_on_c, 1, 55, 90
3, 12539, Note_on_c, 1, 55, 0
3, 12540, Note_on_c, 1, 57, 90
3, 12599, Note_on_c, 1, 57, 0
3, 12600, Note_on_c, 1, 58, 90
3, 12659, Note_on_c, 1, 58, 0
3, 12660, Note_on_c, 1, 62, 90
3, 12719, Note_on_c, 1, 62, 0
3, 12720, Note_on_c, 1, 50, 90
3, 12899, Note_on_c, 1, 50, 0
3, 12900, Note_on_c, 1, 53, 90
3, 12959, Note_on_c, 1, 53, 0
3, 12960, Note_on_c, 1, 51, 90
3, 13019, Note_on_c, 1, 51, 0
3, 13020, Note_on_c, 1, 50, 90
3, 13079, Note_on_c, 1, 50, 0
3, 13080, Note_on_c, 1, 48, 90
3, 13139, Note_on_c, 1, 48, 0
3, 13140, Note_on_c, 1, 55, 90
3, 13199, Note_on_c, 1, 55, 0
3, 13200, Note_on_c, 1, 57, 90
3, 13259, Note_on_c, 1, 57, 0
3, 13260, Note_on_c, 1, 58, 90
3, 13319, Note_on_c, 1, 58, 0
3, 13320, Note_on_c, 1, 57, 90
3, 13379, Note_on_c, 1, 57, 0
3, 13380, Note_on_c, 1, 58, 90
3, 13439, Note_on_c, 1, 58, 0
3, 13440, Note_on_c, 1, 60, 90
3, 13619, Note_on_c, 1, 60, 0
3, 13620, Note_on_c, 1, 51, 90
3, 13679, Note_on_c, 1, 51, 0
3, 13680, Note_on_c, 1, 50, 90
3, 13739, Note_on_c, 1, 50, 0
3, 13740, Note_on_c, 1, 48, 90
3, 13799, Note_on_c, 1, 48, 0
3, 13800, Note_on_c, 1, 46, 90
3, 13859, Note_on_c, 1, 46, 0
3, 13860, Note_on_c, 1, 53, 90
3, 13919, Note_on_c, 1, 53, 0
3, 13920, Note_on_c, 1, 55, 90
3, 13979, Note_on_c, 1, 55, 0
3, 13980, Note_on_c, 1, 57, 90
3, 14039, Note_on_c, 1, 57, 0
3, 14040, Note_on_c, 1, 58, 90
3, 14099, Note_on_c, 1, 58, 0
3, 14100, Note_on_c, 1, 62, 90
3, 14159, Note_on_c, 1, 62, 0
3, 14160, Note_on_c, 1, 46, 90
3, 14339, Note_on_c, 1, 46, 0
3, 14340, Note_on_c, 1, 56, 90
3, 14399, Note_on_c, 1, 56, 0
3, 14400, Note_on_c, 1, 55, 90
3, 14459, Note_on_c, 1, 55, 0
3, 14460, Note_on_c, 1, 53, 90
3, 14519, Note_on_c, 1, 53, 0
3, 14520, Note_on_c, 1, 52, 90
3, 14639, Note_on_c, 1, 52, 0
3, 14640, Note_on_c, 1, 55, 90
3, 14759, Note_on_c, 1, 55, 0
3, 14760, Note_on_c, 1, 60, 90
3, 14879, Note_on_c, 1, 60, 0
3, 14880, Note_on_c, 1, 52, 90
3, 14999, Note_on_c, 1, 52, 0
3, 15000, Note_on_c, 1, 53, 90
3, 15119, Note_on_c, 1, 53, 0
3, 15120, Note_on_c, 1, 60, 90
3, 15239, Note_on_c, 1, 60, 0
3, 15240, Note_on_c, 1, 63, 90
3, 15359, Note_on_c, 1, 63, 0
3, 15360, Note_on_c, 1, 66, 90
3, 15479, Note_on_c, 1, 66, 0
3, 15480, Note_on_c, 1, 57, 90
3, 15599, Note_on_c, 1, 57, 0
3, 15600, Note_on_c, 1, 65, 90
3, 15719, Note_on_c, 1, 65, 0
3, 15720, Note_on_c, 1, 58, 90
3, 15839, Note_on_c, 1, 58, 0
3, 15840, Note_on_c, 1, 61, 90
3, 15959, Note_on_c, 1, 61, 0
3, 15960, Note_on_c, 1, 58, 90
3, 16079, Note_on_c, 1, 58, 0
3, 16080, Note_on_c, 1, 55, 90
3, 16199, Note_on_c, 1, 55, 0
3, 16200, Note_on_c, 1, 56, 90
3, 16319, Note_on_c, 1, 56, 0
3, 16320, Note_on_c, 1, 53, 90
3, 16439, Note_on_c, 1, 53, 0
3, 16440, Note_on_c, 1, 60, 90
3, 16559, Note_on_c, 1, 60, 0
3, 16560, Note_on_c, 1, 48, 90
3, 16679, Note_on_c, 1, 48, 0
3, 16680, Note_on_c, 1, 53, 90
3, 16799, Note_on_c, 1, 53, 0
3, 16800, Note_on_c, 1, 41, 90
3, 16919, Note_on_c, 1, 41, 0
3, 16920, Note_on_c, 1, 44, 90
3, 17039, Note_on_c, 1, 44, 0
3, 17040, Note_on_c, 1, 48, 90
3, 17159, Note_on_c, 1, 48, 0
3, 17160, Note_on_c, 1, 53, 90
3, 17279, Note_on_c, 1, 53, 0
3, 17280, Note_on_c, 1, 51, 90
3, 17399, Note_on_c, 1, 51, 0
3, 17400, Note_on_c, 1, 50, 90
3, 17519, Note_on_c, 1, 50, 0
3, 17520, Note_on_c, 1, 53, 90
3, 17639, Note_on_c, 1, 53, 0
3, 17640, Note_on_c, 1, 46, 90
3, 17759, Note_on_c, 1, 46, 0
3, 17760, Note_on_c, 1, 50, 90
3, 17879, Note_on_c, 1, 50, 0
3, 17880, Note_on_c, 1, 39, 90
3, 17999, Note_on_c, 1, 39, 0
3, 18000, Note_on_c, 1, 50, 90
3, 18119, Note_on_c, 1, 50, 0
3, 18120, Note_on_c, 1, 48, 90
3, 18239, Note_on_c, 1, 48, 0
3, 18240, Note_on_c, 1, 51, 90
3, 18359, Note_on_c, 1, 51, 0
3, 18360, Note_on_c, 1, 44, 90
3, 18479, Note_on_c, 1, 44, 0
3, 18480, Note_on_c, 1, 48, 90
3, 18599, Note_on_c, 1, 48, 0
3, 18600, Note_on_c, 1, 38, 90
3, 18719, Note_on_c, 1, 38, 0
3, 18720, Note_on_c, 1, 48, 90
3, 18839, Note_on_c, 1, 48, 0
3, 18840, Note_on_c, 1, 47, 90
3, 18959, Note_on_c, 1, 47, 0
3, 18960, Note_on_c, 1, 50, 90
3, 19079, Note_on_c, 1, 50, 0
3, 19080, Note_on_c, 1, 43, 90
3, 19199, Note_on_c, 1, 43, 0
3, 19200, Note_on_c, 1, 47, 90
3, 19319, Note_on_c, 1, 47, 0
3, 19320, Note_on_c, 1, 36, 90
3, 19439, Note_on_c, 1, 36, 0
3, 19440, Note_on_c, 1, 47, 90
3, 19559, Note_on_c, 1, 47, 0
3, 19560, Note_on_c, 1, 45, 90
3, 19679, Note_on_c, 1, 45, 0
3, 19680, Note_on_c, 1, 38, 90
3, 19799, Note_on_c, 1, 38, 0
3, 19800, Note_on_c, 1, 50, 90
3, 19919, Note_on_c, 1, 50, 0
3, 19920, Note_on_c, 1, 43, 90
3, 20039, Note_on_c, 1, 43, 0
3, 20040, Note_on_c, 1, 55, 90
3, 20159, Note_on_c, 1, 55, 0
3, 20160, Note_on_c, 1, 59, 90
3, 20279, Note_on_c, 1, 59, 0
3, 20280, Note_on_c, 1, 60, 90
3, 20399, Note_on_c, 1, 60, 0
3, 20400, Note_on_c, 1, 62, 90
3, 20519, Note_on_c, 1, 62, 0
3, 20520, Note_on_c, 1, 63, 90
3, 20579, Note_on_c, 1, 63, 0
3, 20580, Note_on_c, 1, 67, 90
3, 20639, Note_on_c, 1, 67, 0
3, 20640, Note_on_c, 1, 60, 90
3, 20699, Note_on_c, 1, 60, 0
3, 20700, Note_on_c, 1, 58, 90
3, 20759, Note_on_c, 1, 58, 0
3, 20760, Note_on_c, 1, 56, 90
3, 20879, Note_on_c, 1, 56, 0
3, 20880, Note_on_c, 1, 58, 90
3, 20999, Note_on_c, 1, 58, 0
3, 21000, Note_on_c, 1, 60, 90
3, 21059, Note_on_c, 1, 60, 0
3, 21060, Note_on_c, 1, 63, 90
3, 21119, Note_on_c, 1, 63, 0
3, 21120, Note_on_c, 1, 56, 90
3, 21179, Note_on_c, 1, 56, 0
3, 21180, Note_on_c, 1, 55, 90
3, 21239, Note_on_c, 1, 55, 0
3, 21240, Note_on_c, 1, 53, 90
3, 21359, Note_on_c, 1, 53, 0
3, 21360, Note_on_c, 1, 55, 90
3, 21479, Note_on_c, 1, 55, 0
3, 21480, Note_on_c, 1, 56, 90
3, 21539, Note_on_c, 1, 56, 0
3, 21540, Note_on_c, 1, 60, 90
3, 21599, Note_on_c, 1, 60, 0
3, 21600, Note_on_c, 1, 53, 90
3, 21659, Note_on_c, 1, 53, 0
3, 21660, Note_on_c, 1, 51, 90
3, 21719, Note_on_c, 1, 51, 0
3, 21720, Note_on_c, 1, 49, 90
3, 21839, Note_on_c, 1, 49, 0
3, 21840, Note_on_c, 1, 53, 90
3, 21959, Note_on_c, 1, 53, 0
3, 21960, Note_on_c, 1, 44, 90
3, 22079, Note_on_c, 1, 44, 0
3, 22080, Note_on_c, 1, 54, 90
3, 22199, Note_on_c, 1, 54, 0
3, 22200, Note_on_c, 1, 55, 90
3, 22319, Note_on_c, 1, 55, 0
3, 22320, Note_on_c, 1, 43, 90
3, 22439, Note_on_c, 1, 43, 0
3, 22440, Note_on_c, 1, 48, 90
3, 22739, Note_on_c, 1, 48, 0
3, 22740, Note_on_c, 1, 39, 90
3, 22799, Note_on_c, 1, 39, 0
3, 22800, Note_on_c, 1, 41, 90
3, 22859, Note_on_c, 1, 41, 0
3, 22860, Note_on_c, 1, 43, 90
3, 22919, Note_on_c, 1, 43, 0
3, 22920, Note_on_c, 1, 36, 90
3, 23150, Control_c, 1, 7, 100
3, 23152, Control_c, 1, 10, 80
3, 23154, Program_c, 1, 87
3, 23159, Note_on_c, 1, 36, 0
3, 23220, Note_on_c, 1, 51, 90
3, 23272, Note_on_c, 1, 51, 0
3, 23280, Note_on_c, 1, 55, 90
3, 23332, Note_on_c, 1, 55, 0
3, 23340, Note_on_c, 1, 58, 90
3, 23392, Note_on_c, 1, 58, 0
3, 23400, Note_on_c, 1, 62, 90
3, 23452, Note_on_c, 1, 62, 0
3, 23460, Note_on_c, 1, 63, 90
3, 23512, Note_on_c, 1, 63, 0
3, 23520, Note_on_c, 1, 67, 90
3, 23572, Note_on_c, 1, 67, 0
3, 23580, Note_on_c, 1, 51, 90
3, 23752, Note_on_c, 1, 51, 0
3, 23760, Note_on_c, 1, 55, 90
3, 23812, Note_on_c, 1, 55, 0
3, 23820, Note_on_c, 1, 53, 90
3, 23872, Note_on_c, 1, 53, 0
3, 23880, Note_on_c, 1, 51, 90
3, 23932, Note_on_c, 1, 51, 0
3, 23940, Note_on_c, 1, 50, 90
3, 23992, Note_on_c, 1, 50, 0
3, 24000, Note_on_c, 1, 53, 90
3, 24052, Note_on_c, 1, 53, 0
3, 24060, Note_on_c, 1, 55, 90
3, 24112, Note_on_c, 1, 55, 0
3, 24120, Note_on_c, 1, 57, 90
3, 24172, Note_on_c, 1, 57, 0
3, 24180, Note_on_c, 1, 58, 90
3, 24232, Note_on_c, 1, 58, 0
3, 24240, Note_on_c, 1, 62, 90
3, 24292, Note_on_c, 1, 62, 0
3, 24300, Note_on_c, 1, 50, 90
3, 24472, Note_on_c, 1, 50, 0
3, 24480, Note_on_c, 1, 53, 90
3, 24532, Note_on_c, 1, 53, 0
3, 24540, Note_on_c, 1, 51, 90
3, 24592, Note_on_c, 1, 51, 0
3, 24600, Note_on_c, 1, 50, 90
3, 24652, Note_on_c, 1, 50, 0
3, 24660, Note_on_c, 1, 48, 90
3, 24712, Note_on_c, 1, 48, 0
3, 24720, Note_on_c, 1, 55, 90
3, 24772, Note_on_c, 1, 55, 0
3, 24780, Note_on_c, 1, 57, 90
3, 24832, Note_on_c, 1, 57, 0
3, 24840, Note_on_c, 1, 58, 90
3, 24892, Note_on_c, 1, 58, 0
3, 24900, Note_on_c, 1, 57, 90
3, 24952, Note_on_c, 1, 57, 0
3, 24960, Note_on_c, 1, 58, 90
3, 25012, Note_on_c, 1, 58, 0
3, 25020, Note_on_c, 1, 60, 90
3, 25192, Note_on_c, 1, 60, 0
3, 25200, Note_on_c, 1, 51, 90
3, 25252, Note_on_c, 1, 51, 0
3, 25260, Note_on_c, 1, 50, 90
3, 25312, Note_on_c, 1, 50, 0
3, 25320, Note_on_c, 1, 48, 90
3, 25372, Note_on_c, 1, 48, 0
3, 25380, Note_on_c, 1, 46, 90
3, 25432, Note_on_c, 1, 46, 0
3, 25440, Note_on_c, 1, 53, 90
3, 25492, Note_on_c, 1, 53, 0
3, 25500, Note_on_c, 1, 55, 90
3, 25552, Note_on_c, 1, 55, 0
3, 25560, Note_on_c, 1, 57, 90
3, 25612, Note_on_c, 1, 57, 0
3, 25620, Note_on_c, 1, 58, 90
3, 25672, Note_on_c, 1, 58, 0
3, 25680, Note_on_c, 1, 62, 90
3, 25732, Note_on_c, 1, 62, 0
3, 25740, Note_on_c, 1, 46, 90
3, 25912, Note_on_c, 1, 46, 0
3, 25920, Note_on_c, 1, 56, 90
3, 25972, Note_on_c, 1, 56, 0
3, 25980, Note_on_c, 1, 55, 90
3, 26032, Note_on_c, 1, 55, 0
3, 26040, Note_on_c, 1, 53, 90
3, 26092, Note_on_c, 1, 53, 0
3, 26100, Note_on_c, 1, 52, 90
3, 26205, Note_on_c, 1, 52, 0
3, 26220, Note_on_c, 1, 55, 90
3, 26325, Note_on_c, 1, 55, 0
3, 26340, Note_on_c, 1, 60, 90
3, 26445, Note_on_c, 1, 60, 0
3, 26460, Note_on_c, 1, 52, 90
3, 26565, Note_on_c, 1, 52, 0
3, 26580, Note_on_c, 1, 53, 90
3, 26685, Note_on_c, 1, 53, 0
3, 26700, Note_on_c, 1, 60, 90
3, 26805, Note_on_c, 1, 60, 0
3, 26820, Note_on_c, 1, 63, 90
3, 26925, Note_on_c, 1, 63, 0
3, 26940, Note_on_c, 1, 66, 90
3, 27045, Note_on_c, 1, 66, 0
3, 27060, Note_on_c, 1, 57, 90
3, 27165, Note_on_c, 1, 57, 0
3, 27180, Note_on_c, 1, 65, 90
3, 27285, Note_on_c, 1, 65, 0
3, 27300, Note_on_c, 1, 58, 90
3, 27405, Note_on_c, 1, 58, 0
3, 27420, Note_on_c, 1, 61, 90
3, 27525, Note_on_c, 1, 61, 0
3, 27540, Note_on_c, 1, 58, 90
3, 27645, Note_on_c, 1, 58, 0
3, 27660, Note_on_c, 1, 55, 90
3, 27765, Note_on_c, 1, 55, 0
3, 27780, Note_on_c, 1, 56, 90
3, 27885, Note_on_c, 1, 56, 0
3, 27900, Note_on_c, 1, 53, 90
3, 28005, Note_on_c, 1, 53, 0
3, 28020, Note_on_c, 1, 60, 90
3, 28125, Note_on_c, 1, 60, 0
3, 28140, Note_on_c, 1, 48, 90
3, 28245, Note_on_c, 1, 48, 0
3, 28260, Note_on_c, 1, 53, 90
3, 28365, Note_on_c, 1, 53, 0
3, 28380, Note_on_c, 1, 41, 90
3, 28485, Note_on_c, 1, 41, 0
3, 28500, Note_on_c, 1, 44, 90
3, 28605, Note_on_c, 1, 44, 0
3, 28620, Note_on_c, 1, 48, 90
3, 28725, Note_on_c, 1, 48, 0
3, 28740, Note_on_c, 1, 53, 90
3, 28845, Note_on_c, 1, 53, 0
3, 28860, Note_on_c, 1, 51, 90
3, 28965, Note_on_c, 1, 51, 0
3, 28980, Note_on_c, 1, 50, 90
3, 29085, Note_on_c, 1, 50, 0
3, 29100, Note_on_c, 1, 53, 90
3, 29205, Note_on_c, 1, 53, 0
3, 29220, Note_on_c, 1, 46, 90
3, 29325, Note_on_c, 1, 46, 0
3, 29340, Note_on_c, 1, 50, 90
3, 29445, Note_on_c, 1, 50, 0
3, 29460, Note_on_c, 1, 39, 90
3, 29565, Note_on_c, 1, 39, 0
3, 29580, Note_on_c, 1, 50, 90
3, 29685, Note_on_c, 1, 50, 0
3, 29700, Note_on_c, 1, 48, 90
3, 29805, Note_on_c, 1, 48, 0
3, 29820, Note_on_c, 1, 51, 90
3, 29925, Note_on_c, 1, 51, 0
3, 29940, Note_on_c, 1, 44, 90
3, 30045, Note_on_c, 1, 44, 0
3, 30060, Note_on_c, 1, 48, 90
3, 30165, Note_on_c, 1, 48, 0
3, 30180, Note_on_c, 1, 38, 90
3, 30285, Note_on_c, 1, 38, 0
3, 30300, Note_on_c, 1, 48, 90
3, 30405, Note_on_c, 1, 48, 0
3, 30420, Note_on_c, 1, 47, 90
3, 30525, Note_on_c, 1, 47, 0
3, 30540, Note_on_c, 1, 50, 90
3, 30645, Note_on_c, 1, 50, 0
3, 30660, Note_on_c, 1, 43, 90
3, 30765, Note_on_c, 1, 43, 0
3, 30780, Note_on_c, 1, 47, 90
3, 30885, Note_on_c, 1, 47, 0
3, 30900, Note_on_c, 1, 36, 90
3, 31005, Note_on_c, 1, 36, 0
3, 31020, Note_on_c, 1, 47, 90
3, 31125, Note_on_c, 1, 47, 0
3, 31140, Note_on_c, 1, 45, 90
3, 31245, Note_on_c, 1, 45, 0
3, 31260, Note_on_c, 1, 38, 90
3, 31365, Note_on_c, 1, 38, 0
3, 31380, Note_on_c, 1, 50, 90
3, 31485, Note_on_c, 1, 50, 0
3, 31500, Note_on_c, 1, 43, 90
3, 31605, Note_on_c, 1, 43, 0
3, 31620, Note_on_c, 1, 55, 90
3, 31725, Note_on_c, 1, 55, 0
3, 31740, Note_on_c, 1, 59, 90
3, 31845, Note_on_c, 1, 59, 0
3, 31860, Note_on_c, 1, 60, 90
3, 31965, Note_on_c, 1, 60, 0
3, 31980, Note_on_c, 1, 62, 90
3, 32085, Note_on_c, 1, 62, 0
3, 32100, Note_on_c, 1, 63, 90
3, 32152, Note_on_c, 1, 63, 0
3, 32160, Note_on_c, 1, 67, 90
3, 32212, Note_on_c, 1, 67, 0
3, 32220, Note_on_c, 1, 60, 90
3, 32272, Note_on_c, 1, 60, 0
3, 32280, Note_on_c, 1, 58, 90
3, 32332, Note_on_c, 1, 58, 0
3, 32340, Note_on_c, 1, 56, 90
3, 32445, Note_on_c, 1, 56, 0
3, 32460, Note_on_c, 1, 58, 90
3, 32565, Note_on_c, 1, 58, 0
3, 32580, Note_on_c, 1, 60, 90
3, 32632, Note_on_c, 1, 60, 0
3, 32640, Note_on_c, 1, 63, 90
3, 32692, Note_on_c, 1, 63, 0
3, 32700, Note_on_c, 1, 56, 90
3, 32752, Note_on_c, 1, 56, 0
3, 32760, Note_on_c, 1, 55, 90
3, 32812, Note_on_c, 1, 55, 0
3, 32820, Note_on_c, 1, 53, 90
3, 32925, Note_on_c, 1, 53, 0
3, 32940, Note_on_c, 1, 55, 90
3, 33045, Note_on_c, 1, 55, 0
3, 33060, Note_on_c, 1, 56, 90
3, 33112, Note_on_c, 1, 56, 0
3, 33120, Note_on_c, 1, 60, 90
3, 33172, Note_on_c, 1, 60, 0
3, 33180, Note_on_c, 1, 53, 90
3, 33232, Note_on_c, 1, 53, 0
3, 33240, Note_on_c, 1, 51, 90
3, 33292, Note_on_c, 1, 51, 0
3, 33300, Note_on_c, 1, 49, 90
3, 33405, Note_on_c, 1, 49, 0
3, 33420, Note_on_c, 1, 53, 90
3, 33525, Note_on_c, 1, 53, 0
3, 33540, Note_on_c, 1, 44, 90
3, 33645, Note_on_c, 1, 44, 0
3, 33660, Note_on_c, 1, 54, 90
3, 33765, Note_on_c, 1, 54, 0
3, 33780, Note_on_c, 1, 55, 90
3, 33885, Note_on_c, 1, 55, 0
3, 33900, Note_on_c, 1, 43, 90
3, 34005, Note_on_c, 1, 43, 0
3, 34020, Note_on_c, 1, 48, 90
3, 34312, Note_on_c, 1, 48, 0
3, 34320, Note_on_c, 1, 39, 90
3, 34372, Note_on_c, 1, 39, 0
3, 34380, Note_on_c, 1, 41, 90
3, 34432, Note_on_c, 1, 41, 0
3, 34440, Note_on_c, 1, 43, 90
3, 34492, Note_on_c, 1, 43, 0
3, 34500, Note_on_c, 1, 36, 90
3, 34725, Note_on_c, 1, 36, 0
3, 34725, End_track
4, 0, Start_track
4, 0, MIDI_port, 0
4, 0, Program_c, 2, 71
4, 0, Control_c, 2, 7, 95
4, 0, Control_c, 2, 10, 64
4, 80, Control_c, 2, 7, 95
4, 82, Control_c, 2, 10, 64
4, 84, Program_c, 2, 71
4, 120, Note_on_c, 2, 67, 90
4, 345, Note_on_c, 2, 67, 0
4, 360, Note_on_c, 2, 65, 90
4, 585, Note_on_c, 2, 65, 0
4, 840, Note_on_c, 2, 67, 90
4, 1065, Note_on_c, 2, 67, 0
4, 1080, Note_on_c, 2, 75, 90
4, 1305, Note_on_c, 2, 75, 0
4, 1560, Note_on_c, 2, 69, 90
4, 1785, Note_on_c, 2, 69, 0
4, 1800, Note_on_c, 2, 71, 90
4, 2025, Note_on_c, 2, 71, 0
4, 2040, Note_on_c, 2, 72, 90
4, 2265, Note_on_c, 2, 72, 0
4, 5100, Note_on_c, 2, 58, 90
4, 5100, Note_on_c, 2, 62, 90
4, 5152, Note_on_c, 2, 62, 0
4, 5152, Note_on_c, 2, 58, 0
4, 5160, Note_on_c, 2, 58, 90
4, 5160, Note_on_c, 2, 62, 90
4, 5385, Note_on_c, 2, 62, 0
4, 5385, Note_on_c, 2, 58, 0
4, 5400, Note_on_c, 2, 58, 90
4, 5865, Note_on_c, 2, 58, 0
4, 5880, Note_on_c, 2, 67, 90
4, 5900, Control_c, 2, 7, 120
4, 5902, Control_c, 2, 10, 90
4, 5904, Program_c, 2, 82
4, 6105, Note_on_c, 2, 67, 0
4, 6120, Note_on_c, 2, 65, 90
4, 6345, Note_on_c, 2, 65, 0
4, 6420, Note_on_c, 2, 65, 90
4, 6472, Note_on_c, 2, 65, 0
4, 6480, Note_on_c, 2, 67, 90
4, 6532, Note_on_c, 2, 67, 0
4, 6540, Note_on_c, 2, 68, 90
4, 6592, Note_on_c, 2, 68, 0
4, 6600, Note_on_c, 2, 67, 90
4, 6825, Note_on_c, 2, 67, 0
4, 6900, Note_on_c, 2, 71, 90
4, 6952, Note_on_c, 2, 71, 0
4, 6960, Note_on_c, 2, 72, 90
4, 7132, Note_on_c, 2, 72, 0
4, 7140, Note_on_c, 2, 67, 90
4, 7192, Note_on_c, 2, 67, 0
4, 7200, Note_on_c, 2, 68, 90
4, 7252, Note_on_c, 2, 68, 0
4, 7260, Note_on_c, 2, 70, 90
4, 7312, Note_on_c, 2, 70, 0
4, 7320, Note_on_c, 2, 69, 90
4, 7545, Note_on_c, 2, 69, 0
4, 7560, Note_on_c, 2, 71, 90
4, 7785, Note_on_c, 2, 71, 0
4, 7800, Note_on_c, 2, 72, 90
4, 8025, Note_on_c, 2, 72, 0
4, 8820, Note_on_c, 2, 67, 90
4, 8872, Note_on_c, 2, 67, 0
4, 8880, Note_on_c, 2, 68, 90
4, 8932, Note_on_c, 2, 68, 0
4, 8940, Note_on_c, 2, 70, 90
4, 8992, Note_on_c, 2, 70, 0
4, 9000, Note_on_c, 2, 68, 90
4, 9052, Note_on_c, 2, 68, 0
4, 9060, Note_on_c, 2, 67, 90
4, 9112, Note_on_c, 2, 67, 0
4, 9120, Note_on_c, 2, 65, 90
4, 9292, Note_on_c, 2, 65, 0
4, 9540, Note_on_c, 2, 65, 90
4, 9592, Note_on_c, 2, 65, 0
4, 9600, Note_on_c, 2, 67, 90
4, 9652, Note_on_c, 2, 67, 0
4, 9660, Note_on_c, 2, 68, 90
4, 9712, Note_on_c, 2, 68, 0
4, 9720, Note_on_c, 2, 67, 90
4, 9772, Note_on_c, 2, 67, 0
4, 9780, Note_on_c, 2, 65, 90
4, 9832, Note_on_c, 2, 65, 0
4, 9840, Note_on_c, 2, 63, 90
4, 10012, Note_on_c, 2, 63, 0
4, 10260, Note_on_c, 2, 67, 90
4, 10312, Note_on_c, 2, 67, 0
4, 10320, Note_on_c, 2, 65, 90
4, 10372, Note_on_c, 2, 65, 0
4, 10380, Note_on_c, 2, 63, 90
4, 10432, Note_on_c, 2, 63, 0
4, 10440, Note_on_c, 2, 62, 90
4, 10492, Note_on_c, 2, 62, 0
4, 10860, Note_on_c, 2, 58, 90
4, 10860, Note_on_c, 2, 62, 90
4, 10912, Note_on_c, 2, 62, 0
4, 10912, Note_on_c, 2, 58, 0
4, 10920, Note_on_c, 2, 58, 90
4, 10920, Note_on_c, 2, 62, 90
4, 11145, Note_on_c, 2, 62, 0
4, 11145, Note_on_c, 2, 58, 0
4, 11160, Note_on_c, 2, 58, 90
4, 11625, Note_on_c, 2, 58, 0
4, 11630, Control_c, 2, 7, 95
4, 11632, Control_c, 2, 10, 64
4, 11634, Program_c, 2, 71
4, 22680, Note_on_c, 2, 67, 90
4, 22680, Note_on_c, 2, 72, 90
4, 23145, Note_on_c, 2, 72, 0
4, 23145, Note_on_c, 2, 67, 0
4, 23150, Control_c, 2, 7, 120
4, 23152, Control_c, 2, 10, 90
4, 23154, Program_c, 2, 82
4, 23520, Note_on_c, 2, 72, 90
4, 23572, Note_on_c, 2, 72, 0
4, 23580, Note_on_c, 2, 70, 90
4, 23632, Note_on_c, 2, 70, 0
4, 23640, Note_on_c, 2, 68, 90
4, 23692, Note_on_c, 2, 68, 0
4, 23700, Note_on_c, 2, 70, 90
4, 23752, Note_on_c, 2, 70, 0
4, 24240, Note_on_c, 2, 79, 90
4, 24292, Note_on_c, 2, 79, 0
4, 24300, Note_on_c, 2, 77, 90
4, 24352, Note_on_c, 2, 77, 0
4, 24360, Note_on_c, 2, 75, 90
4, 24412, Note_on_c, 2, 75, 0
4, 24420, Note_on_c, 2, 77, 90
4, 24472, Note_on_c, 2, 77, 0
4, 24960, Note_on_c, 2, 79, 90
4, 25012, Note_on_c, 2, 79, 0
4, 25020, Note_on_c, 2, 77, 90
4, 25072, Note_on_c, 2, 77, 0
4, 25080, Note_on_c, 2, 75, 90
4, 25132, Note_on_c, 2, 75, 0
4, 25140, Note_on_c, 2, 81, 90
4, 25192, Note_on_c, 2, 81, 0
4, 25200, Note_on_c, 2, 82, 90
4, 25252, Note_on_c, 2, 82, 0
4, 25260, Note_on_c, 2, 84, 90
4, 25432, Note_on_c, 2, 84, 0
4, 26400, Note_on_c, 2, 70, 90
4, 26452, Note_on_c, 2, 70, 0
4, 26460, Note_on_c, 2, 68, 90
4, 26512, Note_on_c, 2, 68, 0
4, 26520, Note_on_c, 2, 67, 90
4, 26572, Note_on_c, 2, 67, 0
4, 26580, Note_on_c, 2, 68, 90
4, 26632, Note_on_c, 2, 68, 0
4, 26880, Note_on_c, 2, 78, 90
4, 26932, Note_on_c, 2, 78, 0
4, 26940, Note_on_c, 2, 77, 90
4, 26992, Note_on_c, 2, 77, 0
4, 27000, Note_on_c, 2, 75, 90
4, 27052, Note_on_c, 2, 75, 0
4, 27060, Note_on_c, 2, 84, 90
4, 27112, Note_on_c, 2, 84, 0
4, 27360, Note_on_c, 2, 77, 90
4, 27412, Note_on_c, 2, 77, 0
4, 27420, Note_on_c, 2, 82, 90
4, 27472, Note_on_c, 2, 82, 0
4, 27480, Note_on_c, 2, 80, 90
4, 27532, Note_on_c, 2, 80, 0
4, 27540, Note_on_c, 2, 78, 90
4, 27592, Note_on_c, 2, 78, 0
4, 27600, Note_on_c, 2, 77, 90
4, 27652, Note_on_c, 2, 77, 0
4, 27660, Note_on_c, 2, 76, 90
4, 27712, Note_on_c, 2, 76, 0
4, 27720, Note_on_c, 2, 77, 90
4, 27772, Note_on_c, 2, 77, 0
4, 27780, Note_on_c, 2, 73, 90
4, 27832, Note_on_c, 2, 73, 0
4, 27840, Note_on_c, 2, 72, 90
4, 27892, Note_on_c, 2, 72, 0
4, 27900, Note_on_c, 2, 71, 90
4, 27952, Note_on_c, 2, 71, 0
4, 27960, Note_on_c, 2, 72, 90
4, 28012, Note_on_c, 2, 72, 0
4, 28020, Note_on_c, 2, 80, 90
4, 28072, Note_on_c, 2, 80, 0
4, 28080, Note_on_c, 2, 79, 90
4, 28132, Note_on_c, 2, 79, 0
4, 28140, Note_on_c, 2, 77, 90
4, 28192, Note_on_c, 2, 77, 0
4, 28200, Note_on_c, 2, 76, 90
4, 28252, Note_on_c, 2, 76, 0
4, 28260, Note_on_c, 2, 77, 90
4, 28312, Note_on_c, 2, 77, 0
4, 28560, Note_on_c, 2, 70, 90
4, 28612, Note_on_c, 2, 70, 0
4, 28620, Note_on_c, 2, 68, 90
4, 28672, Note_on_c, 2, 68, 0
4, 28680, Note_on_c, 2, 67, 90
4, 28732, Note_on_c, 2, 67, 0
4, 28740, Note_on_c, 2, 65, 90
4, 29032, Note_on_c, 2, 65, 0
4, 29340, Note_on_c, 2, 70, 90
4, 29505, Note_on_c, 2, 70, 0
4, 29520, Note_on_c, 2, 68, 90
4, 29572, Note_on_c, 2, 68, 0
4, 29580, Note_on_c, 2, 67, 90
4, 29632, Note_on_c, 2, 67, 0
4, 29640, Note_on_c, 2, 65, 90
4, 29692, Note_on_c, 2, 65, 0
4, 29700, Note_on_c, 2, 63, 90
4, 29752, Note_on_c, 2, 63, 0
4, 30060, Note_on_c, 2, 68, 90
4, 30225, Note_on_c, 2, 68, 0
4, 30240, Note_on_c, 2, 67, 90
4, 30292, Note_on_c, 2, 67, 0
4, 30300, Note_on_c, 2, 65, 90
4, 30352, Note_on_c, 2, 65, 0
4, 30360, Note_on_c, 2, 63, 90
4, 30412, Note_on_c, 2, 63, 0
4, 30420, Note_on_c, 2, 62, 90
4, 30472, Note_on_c, 2, 62, 0
4, 30780, Note_on_c, 2, 67, 90
4, 30945, Note_on_c, 2, 67, 0
4, 30960, Note_on_c, 2, 65, 90
4, 31012, Note_on_c, 2, 65, 0
4, 31020, Note_on_c, 2, 63, 90
4, 31072, Note_on_c, 2, 63, 0
4, 31080, Note_on_c, 2, 62, 90
4, 31132, Note_on_c, 2, 62, 0
4, 31140, Note_on_c, 2, 60, 90
4, 31192, Note_on_c, 2, 60, 0
4, 34080, Note_on_c, 2, 65, 90
4, 34132, Note_on_c, 2, 65, 0
4, 34140, Note_on_c, 2, 63, 90
4, 34192, Note_on_c, 2, 63, 0
4, 34200, Note_on_c, 2, 62, 90
4, 34252, Note_on_c, 2, 62, 0
4, 34260, Note_on_c, 2, 63, 90
4, 34725, Note_on_c, 2, 63, 0
4, 34725, End_track
5, 0, Start_track
5, 0, MIDI_port, 0
5, 0, Program_c, 3, 52
5, 0, Control_c, 3, 7, 95
5, 0, Control_c, 3, 10, 90
5, 40, Control_c, 3, 7, 95
5, 42, Control_c, 3, 10, 90
5, 44, Program_c, 3, 52
5, 120, Note_on_c, 3, 67, 100
5, 172, Note_on_c, 3, 67, 0
5, 180, Note_on_c, 3, 72, 100
5, 232, Note_on_c, 3, 72, 0
5, 240, Note_on_c, 3, 74, 100
5, 292, Note_on_c, 3, 74, 0
5, 300, Note_on_c, 3, 75, 100
5, 352, Note_on_c, 3, 75, 0
5, 360, Note_on_c, 3, 65, 100
5, 412, Note_on_c, 3, 65, 0
5, 420, Note_on_c, 3, 75, 100
5, 472, Note_on_c, 3, 75, 0
5, 480, Note_on_c, 3, 74, 100
5, 652, Note_on_c, 3, 74, 0
5, 660, Note_on_c, 3, 65, 100
5, 712, Note_on_c, 3, 65, 0
5, 720, Note_on_c, 3, 67, 100
5, 772, Note_on_c, 3, 67, 0
5, 780, Note_on_c, 3, 68, 100
5, 832, Note_on_c, 3, 68, 0
5, 840, Note_on_c, 3, 67, 100
5, 892, Note_on_c, 3, 67, 0
5, 900, Note_on_c, 3, 74, 100
5, 952, Note_on_c, 3, 74, 0
5, 960, Note_on_c, 3, 75, 100
5, 1012, Note_on_c, 3, 75, 0
5, 1020, Note_on_c, 3, 77, 100
5, 1072, Note_on_c, 3, 77, 0
5, 1080, Note_on_c, 3, 75, 100
5, 1132, Note_on_c, 3, 75, 0
5, 1140, Note_on_c, 3, 71, 100
5, 1192, Note_on_c, 3, 71, 0
5, 1200, Note_on_c, 3, 72, 100
5, 1372, Note_on_c, 3, 72, 0
5, 1380, Note_on_c, 3, 67, 100
5, 1432, Note_on_c, 3, 67, 0
5, 1440, Note_on_c, 3, 68, 100
5, 1492, Note_on_c, 3, 68, 0
5, 1500, Note_on_c, 3, 70, 100
5, 1552, Note_on_c, 3, 70, 0
5, 1560, Note_on_c, 3, 69, 100
5, 1612, Note_on_c, 3, 69, 0
5, 1620, Note_on_c, 3, 75, 100
5, 1672, Note_on_c, 3, 75, 0
5, 1680, Note_on_c, 3, 77, 100
5, 1732, Note_on_c, 3, 77, 0
5, 1740, Note_on_c, 3, 79, 100
5, 1792, Note_on_c, 3, 79, 0
5, 1800, Note_on_c, 3, 71, 100
5, 1852, Note_on_c, 3, 71, 0
5, 1860, Note_on_c, 3, 77, 100
5, 1912, Note_on_c, 3, 77, 0
5, 1920, Note_on_c, 3, 79, 100
5, 1972, Note_on_c, 3, 79, 0
5, 1980, Note_on_c, 3, 80, 100
5, 2032, Note_on_c, 3, 80, 0
5, 2040, Note_on_c, 3, 72, 100
5, 2092, Note_on_c, 3, 72, 0
5, 2100, Note_on_c, 3, 79, 100
5, 2152, Note_on_c, 3, 79, 0
5, 2160, Note_on_c, 3, 77, 100
5, 2212, Note_on_c, 3, 77, 0
5, 2220, Note_on_c, 3, 75, 100
5, 2272, Note_on_c, 3, 75, 0
5, 2280, Note_on_c, 3, 74, 100
5, 2332, Note_on_c, 3, 74, 0
5, 2340, Note_on_c, 3, 75, 100
5, 2392, Note_on_c, 3, 75, 0
5, 2400, Note_on_c, 3, 77, 100
5, 2452, Note_on_c, 3, 77, 0
5, 2460, Note_on_c, 3, 74, 100
5, 2512, Note_on_c, 3, 74, 0
5, 2520, Note_on_c, 3, 71, 102
5, 2546, Note_on_c, 3, 71, 0
5, 2550, Note_on_c, 3, 72, 99
5, 2563, Note_on_c, 3, 72, 0
5, 2565, Note_on_c, 3, 71, 116
5, 2578, Note_on_c, 3, 71, 0
5, 2580, Note_on_c, 3, 72, 120
5, 2586, Note_on_c, 3, 72, 0
5, 2587, Note_on_c, 3, 71, 122
5, 2594, Note_on_c, 3, 71, 0
5, 2595, Note_on_c, 3, 72, 122
5, 2601, Note_on_c, 3, 72, 0
5, 2602, Note_on_c, 3, 71, 122
5, 2609, Note_on_c, 3, 71, 0
5, 2610, Note_on_c, 3, 72, 123
5, 2616, Note_on_c, 3, 72, 0
5, 2617, Note_on_c, 3, 71, 123
5, 2624, Note_on_c, 3, 71, 0
5, 2625, Note_on_c, 3, 72, 123
5, 2631, Note_on_c, 3, 72, 0
5, 2632, Note_on_c, 3, 71, 122
5, 2639, Note_on_c, 3, 71, 0
5, 2640, Note_on_c, 3, 72, 122
5, 2646, Note_on_c, 3, 72, 0
5, 2647, Note_on_c, 3, 71, 107
5, 2698, Note_on_c, 3, 71, 0
5, 2700, Note_on_c, 3, 69, 100
5, 2752, Note_on_c, 3, 69, 0
5, 2760, Note_on_c, 3, 67, 100
5, 2985, Note_on_c, 3, 67, 0
5, 3000, Note_on_c, 3, 75, 100
5, 3052, Note_on_c, 3, 75, 0
5, 3060, Note_on_c, 3, 67, 100
5, 3112, Note_on_c, 3, 67, 0
5, 3120, Note_on_c, 3, 68, 100
5, 3172, Note_on_c, 3, 68, 0
5, 3180, Note_on_c, 3, 70, 100
5, 3232, Note_on_c, 3, 70, 0
5, 3240, Note_on_c, 3, 68, 100
5, 3292, Note_on_c, 3, 68, 0
5, 3300, Note_on_c, 3, 67, 100
5, 3352, Note_on_c, 3, 67, 0
5, 3360, Note_on_c, 3, 65, 100
5, 3532, Note_on_c, 3, 65, 0
5, 3540, Note_on_c, 3, 72, 100
5, 3592, Note_on_c, 3, 72, 0
5, 3600, Note_on_c, 3, 74, 100
5, 3652, Note_on_c, 3, 74, 0
5, 3660, Note_on_c, 3, 75, 100
5, 3712, Note_on_c, 3, 75, 0
5, 3720, Note_on_c, 3, 74, 100
5, 3772, Note_on_c, 3, 74, 0
5, 3780, Note_on_c, 3, 65, 100
5, 3832, Note_on_c, 3, 65, 0
5, 3840, Note_on_c, 3, 67, 100
5, 3892, Note_on_c, 3, 67, 0
5, 3900, Note_on_c, 3, 68, 100
5, 3952, Note_on_c, 3, 68, 0
5, 3960, Note_on_c, 3, 67, 100
5, 4012, Note_on_c, 3, 67, 0
5, 4020, Note_on_c, 3, 65, 100
5, 4072, Note_on_c, 3, 65, 0
5, 4080, Note_on_c, 3, 63, 100
5, 4252, Note_on_c, 3, 63, 0
5, 4260, Note_on_c, 3, 70, 100
5, 4312, Note_on_c, 3, 70, 0
5, 4320, Note_on_c, 3, 72, 100
5, 4372, Note_on_c, 3, 72, 0
5, 4380, Note_on_c, 3, 73, 100
5, 4432, Note_on_c, 3, 73, 0
5, 4440, Note_on_c, 3, 72, 100
5, 4492, Note_on_c, 3, 72, 0
5, 4500, Note_on_c, 3, 67, 100
5, 4552, Note_on_c, 3, 67, 0
5, 4560, Note_on_c, 3, 65, 100
5, 4612, Note_on_c, 3, 65, 0
5, 4620, Note_on_c, 3, 63, 100
5, 4672, Note_on_c, 3, 63, 0
5, 4680, Note_on_c, 3, 62, 100
5, 4732, Note_on_c, 3, 62, 0
5, 4740, Note_on_c, 3, 72, 100
5, 4792, Note_on_c, 3, 72, 0
5, 4800, Note_on_c, 3, 70, 100
5, 4852, Note_on_c, 3, 70, 0
5, 4860, Note_on_c, 3, 68, 100
5, 4912, Note_on_c, 3, 68, 0
5, 4920, Note_on_c, 3, 77, 100
5, 5085, Note_on_c, 3, 77, 0
5, 5100, Note_on_c, 3, 65, 100
5, 5100, Note_on_c, 3, 68, 100
5, 5152, Note_on_c, 3, 68, 0
5, 5152, Note_on_c, 3, 65, 0
5, 5160, Note_on_c, 3, 65, 100
5, 5160, Note_on_c, 3, 68, 100
5, 5385, Note_on_c, 3, 68, 0
5, 5385, Note_on_c, 3, 65, 0
5, 5400, Note_on_c, 3, 63, 100
5, 5400, Note_on_c, 3, 67, 100
5, 5865, Note_on_c, 3, 67, 0
5, 5865, Note_on_c, 3, 63, 0
5, 5900, Control_c, 3, 7, 120
5, 5902, Control_c, 3, 10, 90
5, 5904, Program_c, 3, 4
5, 5940, Note_on_c, 3, 72, 100
5, 5992, Note_on_c, 3, 72, 0
5, 6000, Note_on_c, 3, 74, 100
5, 6052, Note_on_c, 3, 74, 0
5, 6060, Note_on_c, 3, 75, 100
5, 6112, Note_on_c, 3, 75, 0
5, 6180, Note_on_c, 3, 75, 100
5, 6232, Note_on_c, 3, 75, 0
5, 6240, Note_on_c, 3, 74, 100
5, 6412, Note_on_c, 3, 74, 0
5, 6660, Note_on_c, 3, 74, 100
5, 6712, Note_on_c, 3, 74, 0
5, 6720, Note_on_c, 3, 75, 100
5, 6772, Note_on_c, 3, 75, 0
5, 6780, Note_on_c, 3, 77, 100
5, 6832, Note_on_c, 3, 77, 0
5, 6840, Note_on_c, 3, 75, 100
5, 6892, Note_on_c, 3, 75, 0
5, 7380, Note_on_c, 3, 75, 100
5, 7432, Note_on_c, 3, 75, 0
5, 7440, Note_on_c, 3, 77, 100
5, 7492, Note_on_c, 3, 77, 0
5, 7500, Note_on_c, 3, 79, 100
5, 7552, Note_on_c, 3, 79, 0
5, 7620, Note_on_c, 3, 77, 100
5, 7672, Note_on_c, 3, 77, 0
5, 7680, Note_on_c, 3, 79, 100
5, 7732, Note_on_c, 3, 79, 0
5, 7740, Note_on_c, 3, 80, 100
5, 7792, Note_on_c, 3, 80, 0
5, 7860, Note_on_c, 3, 79, 100
5, 7912, Note_on_c, 3, 79, 0
5, 7920, Note_on_c, 3, 77, 100
5, 7972, Note_on_c, 3, 77, 0
5, 7980, Note_on_c, 3, 75, 100
5, 8032, Note_on_c, 3, 75, 0
5, 8040, Note_on_c, 3, 74, 100
5, 8092, Note_on_c, 3, 74, 0
5, 8100, Note_on_c, 3, 75, 100
5, 8152, Note_on_c, 3, 75, 0
5, 8160, Note_on_c, 3, 77, 100
5, 8212, Note_on_c, 3, 77, 0
5, 8220, Note_on_c, 3, 74, 100
5, 8272, Note_on_c, 3, 74, 0
5, 8280, Note_on_c, 3, 71, 100
5, 8306, Note_on_c, 3, 71, 0
5, 8310, Note_on_c, 3, 72, 100
5, 8323, Note_on_c, 3, 72, 0
5, 8325, Note_on_c, 3, 71, 100
5, 8338, Note_on_c, 3, 71, 0
5, 8340, Note_on_c, 3, 72, 100
5, 8346, Note_on_c, 3, 72, 0
5, 8347, Note_on_c, 3, 71, 100
5, 8354, Note_on_c, 3, 71, 0
5, 8355, Note_on_c, 3, 72, 100
5, 8361, Note_on_c, 3, 72, 0
5, 8362, Note_on_c, 3, 71, 100
5, 8369, Note_on_c, 3, 71, 0
5, 8370, Note_on_c, 3, 72, 100
5, 8376, Note_on_c, 3, 72, 0
5, 8377, Note_on_c, 3, 71, 100
5, 8384, Note_on_c, 3, 71, 0
5, 8385, Note_on_c, 3, 72, 100
5, 8391, Note_on_c, 3, 72, 0
5, 8392, Note_on_c, 3, 71, 100
5, 8399, Note_on_c, 3, 71, 0
5, 8400, Note_on_c, 3, 72, 100
5, 8406, Note_on_c, 3, 72, 0
5, 8407, Note_on_c, 3, 71, 100
5, 8458, Note_on_c, 3, 71, 0
5, 8460, Note_on_c, 3, 69, 100
5, 8512, Note_on_c, 3, 69, 0
5, 8520, Note_on_c, 3, 67, 100
5, 8745, Note_on_c, 3, 67, 0
5, 8760, Note_on_c, 3, 75, 100
5, 8812, Note_on_c, 3, 75, 0
5, 9300, Note_on_c, 3, 72, 100
5, 9352, Note_on_c, 3, 72, 0
5, 9360, Note_on_c, 3, 74, 100
5, 9412, Note_on_c, 3, 74, 0
5, 9420, Note_on_c, 3, 75, 100
5, 9472, Note_on_c, 3, 75, 0
5, 9480, Note_on_c, 3, 74, 100
5, 9532, Note_on_c, 3, 74, 0
5, 10020, Note_on_c, 3, 70, 100
5, 10072, Note_on_c, 3, 70, 0
5, 10080, Note_on_c, 3, 72, 100
5, 10132, Note_on_c, 3, 72, 0
5, 10140, Note_on_c, 3, 73, 100
5, 10192, Note_on_c, 3, 73, 0
5, 10200, Note_on_c, 3, 72, 100
5, 10252, Note_on_c, 3, 72, 0
5, 10500, Note_on_c, 3, 72, 100
5, 10552, Note_on_c, 3, 72, 0
5, 10560, Note_on_c, 3, 70, 100
5, 10612, Note_on_c, 3, 70, 0
5, 10620, Note_on_c, 3, 68, 100
5, 10672, Note_on_c, 3, 68, 0
5, 10680, Note_on_c, 3, 77, 100
5, 10845, Note_on_c, 3, 77, 0
5, 10860, Note_on_c, 3, 65, 100
5, 10860, Note_on_c, 3, 68, 100
5, 10912, Note_on_c, 3, 68, 0
5, 10912, Note_on_c, 3, 65, 0
5, 10920, Note_on_c, 3, 65, 100
5, 10920, Note_on_c, 3, 68, 100
5, 11145, Note_on_c, 3, 68, 0
5, 11145, Note_on_c, 3, 65, 0
5, 11160, Note_on_c, 3, 63, 100
5, 11160, Note_on_c, 3, 67, 100
5, 11625, Note_on_c, 3, 67, 0
5, 11625, Note_on_c, 3, 63, 0
5, 11630, Control_c, 3, 7, 95
5, 11632, Control_c, 3, 10, 90
5, 11634, Program_c, 3, 52
5, 11640, Note_on_c, 3, 70, 100
5, 11692, Note_on_c, 3, 70, 0
5, 11700, Note_on_c, 3, 75, 100
5, 11752, Note_on_c, 3, 75, 0
5, 11760, Note_on_c, 3, 79, 100
5, 11932, Note_on_c, 3, 79, 0
5, 11940, Note_on_c, 3, 72, 100
5, 11992, Note_on_c, 3, 72, 0
5, 12000, Note_on_c, 3, 70, 100
5, 12052, Note_on_c, 3, 70, 0
5, 12060, Note_on_c, 3, 68, 100
5, 12112, Note_on_c, 3, 68, 0
5, 12120, Note_on_c, 3, 70, 100
5, 12172, Note_on_c, 3, 70, 0
5, 12180, Note_on_c, 3, 75, 100
5, 12232, Note_on_c, 3, 75, 0
5, 12240, Note_on_c, 3, 77, 100
5, 12292, Note_on_c, 3, 77, 0
5, 12300, Note_on_c, 3, 79, 100
5, 12352, Note_on_c, 3, 79, 0
5, 12360, Note_on_c, 3, 77, 100
5, 12412, Note_on_c, 3, 77, 0
5, 12420, Note_on_c, 3, 81, 100
5, 12472, Note_on_c, 3, 81, 0
5, 12480, Note_on_c, 3, 82, 100
5, 12652, Note_on_c, 3, 82, 0
5, 12660, Note_on_c, 3, 79, 100
5, 12712, Note_on_c, 3, 79, 0
5, 12720, Note_on_c, 3, 77, 100
5, 12772, Note_on_c, 3, 77, 0
5, 12780, Note_on_c, 3, 75, 100
5, 12832, Note_on_c, 3, 75, 0
5, 12840, Note_on_c, 3, 77, 100
5, 12892, Note_on_c, 3, 77, 0
5, 12900, Note_on_c, 3, 70, 100
5, 12952, Note_on_c, 3, 70, 0
5, 12960, Note_on_c, 3, 69, 100
5, 13012, Note_on_c, 3, 69, 0
5, 13020, Note_on_c, 3, 70, 100
5, 13072, Note_on_c, 3, 70, 0
5, 13080, Note_on_c, 3, 75, 100
5, 13132, Note_on_c, 3, 75, 0
5, 13140, Note_on_c, 3, 74, 100
5, 13192, Note_on_c, 3, 74, 0
5, 13200, Note_on_c, 3, 72, 100
5, 13372, Note_on_c, 3, 72, 0
5, 13380, Note_on_c, 3, 79, 100
5, 13432, Note_on_c, 3, 79, 0
5, 13440, Note_on_c, 3, 77, 100
5, 13492, Note_on_c, 3, 77, 0
5, 13500, Note_on_c, 3, 75, 100
5, 13552, Note_on_c, 3, 75, 0
5, 13560, Note_on_c, 3, 81, 100
5, 13612, Note_on_c, 3, 81, 0
5, 13620, Note_on_c, 3, 82, 100
5, 13672, Note_on_c, 3, 82, 0
5, 13680, Note_on_c, 3, 84, 100
5, 13852, Note_on_c, 3, 84, 0
5, 13860, Note_on_c, 3, 75, 100
5, 13912, Note_on_c, 3, 75, 0
5, 13920, Note_on_c, 3, 74, 100
5, 13972, Note_on_c, 3, 74, 0
5, 13980, Note_on_c, 3, 72, 100
5, 14032, Note_on_c, 3, 72, 0
5, 14040, Note_on_c, 3, 74, 100
5, 14092, Note_on_c, 3, 74, 0
5, 14100, Note_on_c, 3, 77, 100
5, 14152, Note_on_c, 3, 77, 0
5, 14160, Note_on_c, 3, 74, 100
5, 14212, Note_on_c, 3, 74, 0
5, 14220, Note_on_c, 3, 69, 100
5, 14272, Note_on_c, 3, 69, 0
5, 14280, Note_on_c, 3, 70, 100
5, 14572, Note_on_c, 3, 70, 0
5, 14580, Note_on_c, 3, 73, 100
5, 14632, Note_on_c, 3, 73, 0
5, 14640, Note_on_c, 3, 72, 100
5, 14692, Note_on_c, 3, 72, 0
5, 14700, Note_on_c, 3, 70, 100
5, 14752, Note_on_c, 3, 70, 0
5, 14760, Note_on_c, 3, 79, 100
5, 14812, Note_on_c, 3, 79, 0
5, 14820, Note_on_c, 3, 70, 100
5, 14872, Note_on_c, 3, 70, 0
5, 14880, Note_on_c, 3, 68, 100
5, 14932, Note_on_c, 3, 68, 0
5, 14940, Note_on_c, 3, 67, 100
5, 14992, Note_on_c, 3, 67, 0
5, 15000, Note_on_c, 3, 68, 100
5, 15052, Note_on_c, 3, 68, 0
5, 15060, Note_on_c, 3, 72, 100
5, 15112, Note_on_c, 3, 72, 0
5, 15120, Note_on_c, 3, 77, 100
5, 15172, Note_on_c, 3, 77, 0
5, 15180, Note_on_c, 3, 79, 100
5, 15232, Note_on_c, 3, 79, 0
5, 15240, Note_on_c, 3, 81, 100
5, 15292, Note_on_c, 3, 81, 0
5, 15300, Note_on_c, 3, 78, 100
5, 15352, Note_on_c, 3, 78, 0
5, 15360, Note_on_c, 3, 77, 100
5, 15412, Note_on_c, 3, 77, 0
5, 15420, Note_on_c, 3, 75, 100
5, 15472, Note_on_c, 3, 75, 0
5, 15480, Note_on_c, 3, 84, 100
5, 15532, Note_on_c, 3, 84, 0
5, 15540, Note_on_c, 3, 75, 100
5, 15592, Note_on_c, 3, 75, 0
5, 15600, Note_on_c, 3, 73, 100
5, 15652, Note_on_c, 3, 73, 0
5, 15660, Note_on_c, 3, 72, 100
5, 15712, Note_on_c, 3, 72, 0
5, 15720, Note_on_c, 3, 73, 100
5, 15772, Note_on_c, 3, 73, 0
5, 15780, Note_on_c, 3, 77, 100
5, 15832, Note_on_c, 3, 77, 0
5, 15840, Note_on_c, 3, 82, 100
5, 15892, Note_on_c, 3, 82, 0
5, 15900, Note_on_c, 3, 80, 100
5, 15952, Note_on_c, 3, 80, 0
5, 15960, Note_on_c, 3, 78, 100
5, 16012, Note_on_c, 3, 78, 0
5, 16020, Note_on_c, 3, 77, 100
5, 16072, Note_on_c, 3, 77, 0
5, 16080, Note_on_c, 3, 76, 100
5, 16132, Note_on_c, 3, 76, 0
5, 16140, Note_on_c, 3, 77, 100
5, 16192, Note_on_c, 3, 77, 0
5, 16200, Note_on_c, 3, 73, 100
5, 16252, Note_on_c, 3, 73, 0
5, 16260, Note_on_c, 3, 72, 100
5, 16312, Note_on_c, 3, 72, 0
5, 16320, Note_on_c, 3, 71, 100
5, 16372, Note_on_c, 3, 71, 0
5, 16380, Note_on_c, 3, 72, 100
5, 16432, Note_on_c, 3, 72, 0
5, 16440, Note_on_c, 3, 80, 100
5, 16492, Note_on_c, 3, 80, 0
5, 16500, Note_on_c, 3, 79, 100
5, 16552, Note_on_c, 3, 79, 0
5, 16560, Note_on_c, 3, 77, 100
5, 16612, Note_on_c, 3, 77, 0
5, 16620, Note_on_c, 3, 76, 100
5, 16672, Note_on_c, 3, 76, 0
5, 16680, Note_on_c, 3, 77, 100
5, 16732, Note_on_c, 3, 77, 0
5, 16740, Note_on_c, 3, 72, 100
5, 16792, Note_on_c, 3, 72, 0
5, 16800, Note_on_c, 3, 73, 100
5, 16852, Note_on_c, 3, 73, 0
5, 16860, Note_on_c, 3, 76, 100
5, 16912, Note_on_c, 3, 76, 0
5, 16920, Note_on_c, 3, 77, 100
5, 16972, Note_on_c, 3, 77, 0
5, 16980, Note_on_c, 3, 70, 100
5, 17032, Note_on_c, 3, 70, 0
5, 17040, Note_on_c, 3, 68, 100
5, 17092, Note_on_c, 3, 68, 0
5, 17100, Note_on_c, 3, 67, 100
5, 17152, Note_on_c, 3, 67, 0
5, 17160, Note_on_c, 3, 65, 100
5, 17452, Note_on_c, 3, 65, 0
5, 17460, Note_on_c, 3, 75, 100
5, 17512, Note_on_c, 3, 75, 0
5, 17520, Note_on_c, 3, 74, 100
5, 17572, Note_on_c, 3, 74, 0
5, 17580, Note_on_c, 3, 72, 100
5, 17632, Note_on_c, 3, 72, 0
5, 17640, Note_on_c, 3, 74, 100
5, 17692, Note_on_c, 3, 74, 0
5, 17700, Note_on_c, 3, 80, 100
5, 17752, Note_on_c, 3, 80, 0
5, 17760, Note_on_c, 3, 70, 100
5, 17812, Note_on_c, 3, 70, 0
5, 17820, Note_on_c, 3, 77, 100
5, 17872, Note_on_c, 3, 77, 0
5, 17880, Note_on_c, 3, 79, 100
5, 17932, Note_on_c, 3, 79, 0
5, 17940, Note_on_c, 3, 68, 100
5, 17992, Note_on_c, 3, 68, 0
5, 18000, Note_on_c, 3, 67, 100
5, 18052, Note_on_c, 3, 67, 0
5, 18060, Note_on_c, 3, 65, 100
5, 18112, Note_on_c, 3, 65, 0
5, 18120, Note_on_c, 3, 63, 100
5, 18172, Note_on_c, 3, 63, 0
5, 18180, Note_on_c, 3, 74, 100
5, 18232, Note_on_c, 3, 74, 0
5, 18240, Note_on_c, 3, 72, 100
5, 18292, Note_on_c, 3, 72, 0
5, 18300, Note_on_c, 3, 71, 100
5, 18352, Note_on_c, 3, 71, 0
5, 18360, Note_on_c, 3, 72, 100
5, 18412, Note_on_c, 3, 72, 0
5, 18420, Note_on_c, 3, 79, 100
5, 18472, Note_on_c, 3, 79, 0
5, 18480, Note_on_c, 3, 68, 100
5, 18532, Note_on_c, 3, 68, 0
5, 18540, Note_on_c, 3, 75, 100
5, 18592, Note_on_c, 3, 75, 0
5, 18600, Note_on_c, 3, 77, 100
5, 18652, Note_on_c, 3, 77, 0
5, 18660, Note_on_c, 3, 67, 100
5, 18712, Note_on_c, 3, 67, 0
5, 18720, Note_on_c, 3, 65, 100
5, 18772, Note_on_c, 3, 65, 0
5, 18780, Note_on_c, 3, 63, 100
5, 18832, Note_on_c, 3, 63, 0
5, 18840, Note_on_c, 3, 62, 100
5, 18892, Note_on_c, 3, 62, 0
5, 18900, Note_on_c, 3, 72, 100
5, 18952, Note_on_c, 3, 72, 0
5, 18960, Note_on_c, 3, 71, 100
5, 19012, Note_on_c, 3, 71, 0
5, 19020, Note_on_c, 3, 69, 100
5, 19072, Note_on_c, 3, 69, 0
5, 19080, Note_on_c, 3, 71, 100
5, 19132, Note_on_c, 3, 71, 0
5, 19140, Note_on_c, 3, 77, 100
5, 19192, Note_on_c, 3, 77, 0
5, 19200, Note_on_c, 3, 67, 100
5, 19252, Note_on_c, 3, 67, 0
5, 19260, Note_on_c, 3, 74, 100
5, 19312, Note_on_c, 3, 74, 0
5, 19320, Note_on_c, 3, 75, 100
5, 19372, Note_on_c, 3, 75, 0
5, 19380, Note_on_c, 3, 65, 100
5, 19432, Note_on_c, 3, 65, 0
5, 19440, Note_on_c, 3, 63, 100
5, 19492, Note_on_c, 3, 63, 0
5, 19500, Note_on_c, 3, 62, 100
5, 19552, Note_on_c, 3, 62, 0
5, 19560, Note_on_c, 3, 60, 100
5, 19612, Note_on_c, 3, 60, 0
5, 19620, Note_on_c, 3, 67, 100
5, 19672, Note_on_c, 3, 67, 0
5, 19680, Note_on_c, 3, 66, 100
5, 19732, Note_on_c, 3, 66, 0
5, 19740, Note_on_c, 3, 69, 100
5, 19792, Note_on_c, 3, 69, 0
5, 19800, Note_on_c, 3, 72, 100
5, 19852, Note_on_c, 3, 72, 0
5, 19860, Note_on_c, 3, 69, 100
5, 19912, Note_on_c, 3, 69, 0
5, 19920, Note_on_c, 3, 71, 100
5, 19972, Note_on_c, 3, 71, 0
5, 19980, Note_on_c, 3, 74, 100
5, 20032, Note_on_c, 3, 74, 0
5, 20040, Note_on_c, 3, 67, 100
5, 20092, Note_on_c, 3, 67, 0
5, 20100, Note_on_c, 3, 77, 100
5, 20152, Note_on_c, 3, 77, 0
5, 20160, Note_on_c, 3, 75, 100
5, 20212, Note_on_c, 3, 75, 0
5, 20220, Note_on_c, 3, 74, 100
5, 20272, Note_on_c, 3, 74, 0
5, 20280, Note_on_c, 3, 75, 100
5, 20332, Note_on_c, 3, 75, 0
5, 20340, Note_on_c, 3, 79, 100
5, 20392, Note_on_c, 3, 79, 0
5, 20400, Note_on_c, 3, 72, 100
5, 20452, Note_on_c, 3, 72, 0
5, 20460, Note_on_c, 3, 71, 100
5, 20512, Note_on_c, 3, 71, 0
5, 20520, Note_on_c, 3, 72, 100
5, 20812, Note_on_c, 3, 72, 0
5, 20820, Note_on_c, 3, 75, 100
5, 20872, Note_on_c, 3, 75, 0
5, 20880, Note_on_c, 3, 68, 100
5, 20932, Note_on_c, 3, 68, 0
5, 20940, Note_on_c, 3, 67, 100
5, 20992, Note_on_c, 3, 67, 0
5, 21000, Note_on_c, 3, 68, 100
5, 21292, Note_on_c, 3, 68, 0
5, 21300, Note_on_c, 3, 72, 100
5, 21352, Note_on_c, 3, 72, 0
5, 21360, Note_on_c, 3, 65, 100
5, 21412, Note_on_c, 3, 65, 0
5, 21420, Note_on_c, 3, 64, 100
5, 21472, Note_on_c, 3, 64, 0
5, 21480, Note_on_c, 3, 65, 100
5, 21772, Note_on_c, 3, 65, 0
5, 21780, Note_on_c, 3, 68, 100
5, 21832, Note_on_c, 3, 68, 0
5, 21840, Note_on_c, 3, 73, 100
5, 21892, Note_on_c, 3, 73, 0
5, 21900, Note_on_c, 3, 72, 100
5, 21952, Note_on_c, 3, 72, 0
5, 21960, Note_on_c, 3, 76, 100
5, 22012, Note_on_c, 3, 76, 0
5, 22020, Note_on_c, 3, 77, 100
5, 22072, Note_on_c, 3, 77, 0
5, 22080, Note_on_c, 3, 71, 100
5, 22132, Note_on_c, 3, 71, 0
5, 22140, Note_on_c, 3, 72, 100
5, 22192, Note_on_c, 3, 72, 0
5, 22200, Note_on_c, 3, 66, 100
5, 22252, Note_on_c, 3, 66, 0
5, 22260, Note_on_c, 3, 67, 100
5, 22312, Note_on_c, 3, 67, 0
5, 22320, Note_on_c, 3, 75, 100
5, 22372, Note_on_c, 3, 75, 0
5, 22380, Note_on_c, 3, 71, 100
5, 22432, Note_on_c, 3, 71, 0
5, 22440, Note_on_c, 3, 72, 100
5, 22492, Note_on_c, 3, 72, 0
5, 22500, Note_on_c, 3, 65, 100
5, 22552, Note_on_c, 3, 65, 0
5, 22560, Note_on_c, 3, 63, 100
5, 22612, Note_on_c, 3, 63, 0
5, 22620, Note_on_c, 3, 62, 100
5, 22672, Note_on_c, 3, 62, 0
5, 22680, Note_on_c, 3, 63, 100
5, 23145, Note_on_c, 3, 63, 0
5, 23150, Control_c, 3, 7, 120
5, 23152, Control_c, 3, 10, 90
5, 23154, Program_c, 3, 4
5, 23220, Note_on_c, 3, 70, 100
5, 23272, Note_on_c, 3, 70, 0
5, 23280, Note_on_c, 3, 75, 100
5, 23332, Note_on_c, 3, 75, 0
5, 23340, Note_on_c, 3, 79, 100
5, 23512, Note_on_c, 3, 79, 0
5, 23760, Note_on_c, 3, 75, 100
5, 23812, Note_on_c, 3, 75, 0
5, 23820, Note_on_c, 3, 77, 100
5, 23872, Note_on_c, 3, 77, 0
5, 23880, Note_on_c, 3, 79, 100
5, 23932, Note_on_c, 3, 79, 0
5, 23940, Note_on_c, 3, 77, 100
5, 23992, Note_on_c, 3, 77, 0
5, 24000, Note_on_c, 3, 81, 100
5, 24052, Note_on_c, 3, 81, 0
5, 24060, Note_on_c, 3, 82, 100
5, 24232, Note_on_c, 3, 82, 0
5, 24480, Note_on_c, 3, 70, 100
5, 24532, Note_on_c, 3, 70, 0
5, 24540, Note_on_c, 3, 69, 100
5, 24592, Note_on_c, 3, 69, 0
5, 24600, Note_on_c, 3, 70, 100
5, 24652, Note_on_c, 3, 70, 0
5, 24660, Note_on_c, 3, 75, 100
5, 24712, Note_on_c, 3, 75, 0
5, 24720, Note_on_c, 3, 74, 100
5, 24772, Note_on_c, 3, 74, 0
5, 24780, Note_on_c, 3, 72, 100
5, 24952, Note_on_c, 3, 72, 0
5, 25440, Note_on_c, 3, 75, 100
5, 25492, Note_on_c, 3, 75, 0
5, 25500, Note_on_c, 3, 74, 100
5, 25552, Note_on_c, 3, 74, 0
5, 25560, Note_on_c, 3, 72, 100
5, 25612, Note_on_c, 3, 72, 0
5, 25620, Note_on_c, 3, 74, 100
5, 25672, Note_on_c, 3, 74, 0
5, 25680, Note_on_c, 3, 77, 100
5, 25732, Note_on_c, 3, 77, 0
5, 25740, Note_on_c, 3, 74, 100
5, 25792, Note_on_c, 3, 74, 0
5, 25800, Note_on_c, 3, 69, 100
5, 25852, Note_on_c, 3, 69, 0
5, 25860, Note_on_c, 3, 70, 100
5, 26152, Note_on_c, 3, 70, 0
5, 26160, Note_on_c, 3, 73, 100
5, 26212, Note_on_c, 3, 73, 0
5, 26220, Note_on_c, 3, 72, 100
5, 26272, Note_on_c, 3, 72, 0
5, 26280, Note_on_c, 3, 70, 100
5, 26332, Note_on_c, 3, 70, 0
5, 26340, Note_on_c, 3, 79, 100
5, 26392, Note_on_c, 3, 79, 0
5, 26640, Note_on_c, 3, 72, 100
5, 26692, Note_on_c, 3, 72, 0
5, 26700, Note_on_c, 3, 77, 100
5, 26752, Note_on_c, 3, 77, 0
5, 26760, Note_on_c, 3, 79, 100
5, 26812, Note_on_c, 3, 79, 0
5, 26820, Note_on_c, 3, 81, 100
5, 26872, Note_on_c, 3, 81, 0
5, 27120, Note_on_c, 3, 75, 100
5, 27172, Note_on_c, 3, 75, 0
5, 27180, Note_on_c, 3, 73, 100
5, 27232, Note_on_c, 3, 73, 0
5, 27240, Note_on_c, 3, 72, 100
5, 27292, Note_on_c, 3, 72, 0
5, 27300, Note_on_c, 3, 73, 100
5, 27352, Note_on_c, 3, 73, 0
5, 28320, Note_on_c, 3, 72, 100
5, 28372, Note_on_c, 3, 72, 0
5, 28380, Note_on_c, 3, 73, 100
5, 28432, Note_on_c, 3, 73, 0
5, 28440, Note_on_c, 3, 76, 100
5, 28492, Note_on_c, 3, 76, 0
5, 28500, Note_on_c, 3, 77, 100
5, 28552, Note_on_c, 3, 77, 0
5, 29040, Note_on_c, 3, 75, 100
5, 29092, Note_on_c, 3, 75, 0
5, 29100, Note_on_c, 3, 74, 100
5, 29152, Note_on_c, 3, 74, 0
5, 29160, Note_on_c, 3, 72, 100
5, 29212, Note_on_c, 3, 72, 0
5, 29220, Note_on_c, 3, 74, 100
5, 29272, Note_on_c, 3, 74, 0
5, 29280, Note_on_c, 3, 80, 100
5, 29332, Note_on_c, 3, 80, 0
5, 29400, Note_on_c, 3, 77, 100
5, 29452, Note_on_c, 3, 77, 0
5, 29460, Note_on_c, 3, 79, 100
5, 29512, Note_on_c, 3, 79, 0
5, 29760, Note_on_c, 3, 74, 100
5, 29812, Note_on_c, 3, 74, 0
5, 29820, Note_on_c, 3, 72, 100
5, 29872, Note_on_c, 3, 72, 0
5, 29880, Note_on_c, 3, 71, 100
5, 29932, Note_on_c, 3, 71, 0
5, 29940, Note_on_c, 3, 72, 100
5, 29992, Note_on_c, 3, 72, 0
5, 30000, Note_on_c, 3, 79, 100
5, 30052, Note_on_c, 3, 79, 0
5, 30120, Note_on_c, 3, 75, 100
5, 30172, Note_on_c, 3, 75, 0
5, 30180, Note_on_c, 3, 77, 100
5, 30232, Note_on_c, 3, 77, 0
5, 30480, Note_on_c, 3, 72, 100
5, 30532, Note_on_c, 3, 72, 0
5, 30540, Note_on_c, 3, 71, 100
5, 30592, Note_on_c, 3, 71, 0
5, 30600, Note_on_c, 3, 69, 100
5, 30652, Note_on_c, 3, 69, 0
5, 30660, Note_on_c, 3, 71, 100
5, 30712, Note_on_c, 3, 71, 0
5, 30720, Note_on_c, 3, 77, 100
5, 30772, Note_on_c, 3, 77, 0
5, 30840, Note_on_c, 3, 74, 100
5, 30892, Note_on_c, 3, 74, 0
5, 30900, Note_on_c, 3, 75, 100
5, 30952, Note_on_c, 3, 75, 0
5, 31200, Note_on_c, 3, 67, 100
5, 31252, Note_on_c, 3, 67, 0
5, 31260, Note_on_c, 3, 66, 100
5, 31312, Note_on_c, 3, 66, 0
5, 31320, Note_on_c, 3, 69, 100
5, 31372, Note_on_c, 3, 69, 0
5, 31380, Note_on_c, 3, 72, 100
5, 31432, Note_on_c, 3, 72, 0
5, 31440, Note_on_c, 3, 69, 100
5, 31492, Note_on_c, 3, 69, 0
5, 31500, Note_on_c, 3, 71, 100
5, 31552, Note_on_c, 3, 71, 0
5, 31560, Note_on_c, 3, 74, 100
5, 31612, Note_on_c, 3, 74, 0
5, 31620, Note_on_c, 3, 67, 100
5, 31672, Note_on_c, 3, 67, 0
5, 31680, Note_on_c, 3, 77, 100
5, 31732, Note_on_c, 3, 77, 0
5, 31740, Note_on_c, 3, 75, 100
5, 31792, Note_on_c, 3, 75, 0
5, 31800, Note_on_c, 3, 74, 100
5, 31852, Note_on_c, 3, 74, 0
5, 31860, Note_on_c, 3, 75, 100
5, 31912, Note_on_c, 3, 75, 0
5, 31920, Note_on_c, 3, 79, 100
5, 31972, Note_on_c, 3, 79, 0
5, 31980, Note_on_c, 3, 72, 100
5, 32032, Note_on_c, 3, 72, 0
5, 32040, Note_on_c, 3, 71, 100
5, 32092, Note_on_c, 3, 71, 0
5, 32100, Note_on_c, 3, 72, 100
5, 32392, Note_on_c, 3, 72, 0
5, 32400, Note_on_c, 3, 75, 100
5, 32452, Note_on_c, 3, 75, 0
5, 32460, Note_on_c, 3, 68, 100
5, 32512, Note_on_c, 3, 68, 0
5, 32520, Note_on_c, 3, 67, 100
5, 32572, Note_on_c, 3, 67, 0
5, 32580, Note_on_c, 3, 68, 100
5, 32872, Note_on_c, 3, 68, 0
5, 32880, Note_on_c, 3, 72, 100
5, 32932, Note_on_c, 3, 72, 0
5, 32940, Note_on_c, 3, 65, 100
5, 32992, Note_on_c, 3, 65, 0
5, 33000, Note_on_c, 3, 64, 100
5, 33052, Note_on_c, 3, 64, 0
5, 33060, Note_on_c, 3, 65, 100
5, 33352, Note_on_c, 3, 65, 0
5, 33360, Note_on_c, 3, 68, 100
5, 33412, Note_on_c, 3, 68, 0
5, 33420, Note_on_c, 3, 73, 100
5, 33472, Note_on_c, 3, 73, 0
5, 33480, Note_on_c, 3, 72, 100
5, 33532, Note_on_c, 3, 72, 0
5, 33540, Note_on_c, 3, 76, 100
5, 33592, Note_on_c, 3, 76, 0
5, 33600, Note_on_c, 3, 77, 100
5, 33652, Note_on_c, 3, 77, 0
5, 33660, Note_on_c, 3, 71, 100
5, 33712, Note_on_c, 3, 71, 0
5, 33720, Note_on_c, 3, 72, 100
5, 33772, Note_on_c, 3, 72, 0
5, 33780, Note_on_c, 3, 66, 100
5, 33832, Note_on_c, 3, 66, 0
5, 33840, Note_on_c, 3, 67, 100
5, 33892, Note_on_c, 3, 67, 0
5, 33900, Note_on_c, 3, 75, 100
5, 33952, Note_on_c, 3, 75, 0
5, 33960, Note_on_c, 3, 71, 100
5, 34012, Note_on_c, 3, 71, 0
5, 34020, Note_on_c, 3, 72, 100
5, 34072, Note_on_c, 3, 72, 0
5, 34260, Note_on_c, 3, 67, 100
5, 34260, Note_on_c, 3, 72, 100
5, 34725, Note_on_c, 3, 72, 0
5, 34725, Note_on_c, 3, 67, 0
5, 34725, End_track
6, 0, Start_track
6, 0, MIDI_port, 0
6, 0, Program_c, 4, 46
6, 0, Control_c, 4, 7, 120
6, 0, Control_c, 4, 10, 40
6, 20, Control_c, 4, 7, 0
6, 120, Note_on_c, 4, 67, 100
6, 345, Note_on_c, 4, 67, 0
6, 360, Note_on_c, 4, 65, 100
6, 585, Note_on_c, 4, 65, 0
6, 840, Note_on_c, 4, 67, 100
6, 1065, Note_on_c, 4, 67, 0
6, 1080, Note_on_c, 4, 75, 100
6, 1305, Note_on_c, 4, 75, 0
6, 1560, Note_on_c, 4, 69, 100
6, 1785, Note_on_c, 4, 69, 0
6, 1800, Note_on_c, 4, 71, 100
6, 2025, Note_on_c, 4, 71, 0
6, 2040, Note_on_c, 4, 72, 100
6, 2265, Note_on_c, 4, 72, 0
6, 5100, Note_on_c, 4, 58, 100
6, 5100, Note_on_c, 4, 62, 100
6, 5152, Note_on_c, 4, 62, 0
6, 5152, Note_on_c, 4, 58, 0
6, 5160, Note_on_c, 4, 58, 100
6, 5160, Note_on_c, 4, 62, 100
6, 5385, Note_on_c, 4, 62, 0
6, 5385, Note_on_c, 4, 58, 0
6, 5400, Note_on_c, 4, 58, 100
6, 5865, Note_on_c, 4, 58, 0
6, 5880, Note_on_c, 4, 67, 100
6, 5900, Control_c, 4, 7, 120
6, 5902, Control_c, 4, 10, 40
6, 5904, Program_c, 4, 46
6, 6105, Note_on_c, 4, 67, 0
6, 6120, Note_on_c, 4, 65, 100
6, 6345, Note_on_c, 4, 65, 0
6, 6420, Note_on_c, 4, 65, 100
6, 6472, Note_on_c, 4, 65, 0
6, 6480, Note_on_c, 4, 67, 100
6, 6532, Note_on_c, 4, 67, 0
6, 6540, Note_on_c, 4, 68, 100
6, 6592, Note_on_c, 4, 68, 0
6, 6600, Note_on_c, 4, 67, 100
6, 6825, Note_on_c, 4, 67, 0
6, 6900, Note_on_c, 4, 71, 100
6, 6952, Note_on_c, 4, 71, 0
6, 6960, Note_on_c, 4, 72, 100
6, 7132, Note_on_c, 4, 72, 0
6, 7140, Note_on_c, 4, 67, 100
6, 7192, Note_on_c, 4, 67, 0
6, 7200, Note_on_c, 4, 68, 100
6, 7252, Note_on_c, 4, 68, 0
6, 7260, Note_on_c, 4, 70, 100
6, 7312, Note_on_c, 4, 70, 0
6, 7320, Note_on_c, 4, 69, 100
6, 7545, Note_on_c, 4, 69, 0
6, 7560, Note_on_c, 4, 71, 100
6, 7785, Note_on_c, 4, 71, 0
6, 7800, Note_on_c, 4, 72, 100
6, 8025, Note_on_c, 4, 72, 0
6, 8820, Note_on_c, 4, 67, 100
6, 8872, Note_on_c, 4, 67, 0
6, 8880, Note_on_c, 4, 68, 100
6, 8932, Note_on_c, 4, 68, 0
6, 8940, Note_on_c, 4, 70, 100
6, 8992, Note_on_c, 4, 70, 0
6, 9000, Note_on_c, 4, 68, 100
6, 9052, Note_on_c, 4, 68, 0
6, 9060, Note_on_c, 4, 67, 100
6, 9112, Note_on_c, 4, 67, 0
6, 9120, Note_on_c, 4, 65, 100
6, 9292, Note_on_c, 4, 65, 0
6, 9540, Note_on_c, 4, 65, 100
6, 9592, Note_on_c, 4, 65, 0
6, 9600, Note_on_c, 4, 67, 100
6, 9652, Note_on_c, 4, 67, 0
6, 9660, Note_on_c, 4, 68, 100
6, 9712, Note_on_c, 4, 68, 0
6, 9720, Note_on_c, 4, 67, 100
6, 9772, Note_on_c, 4, 67, 0
6, 9780, Note_on_c, 4, 65, 100
6, 9832, Note_on_c, 4, 65, 0
6, 9840, Note_on_c, 4, 63, 100
6, 10012, Note_on_c, 4, 63, 0
6, 10260, Note_on_c, 4, 67, 100
6, 10312, Note_on_c, 4, 67, 0
6, 10320, Note_on_c, 4, 65, 100
6, 10372, Note_on_c, 4, 65, 0
6, 10380, Note_on_c, 4, 63, 100
6, 10432, Note_on_c, 4, 63, 0
6, 10440, Note_on_c, 4, 62, 100
6, 10492, Note_on_c, 4, 62, 0
6, 10860, Note_on_c, 4, 58, 100
6, 10860, Note_on_c, 4, 62, 100
6, 10912, Note_on_c, 4, 62, 0
6, 10912, Note_on_c, 4, 58, 0
6, 10920, Note_on_c, 4, 58, 100
6, 10920, Note_on_c, 4, 62, 100
6, 11145, Note_on_c, 4, 62, 0
6, 11145, Note_on_c, 4, 58, 0
6, 11160, Note_on_c, 4, 58, 100
6, 11625, Note_on_c, 4, 58, 0
6, 11630, Control_c, 4, 7, 0
6, 22680, Note_on_c, 4, 67, 100
6, 22680, Note_on_c, 4, 72, 100
6, 23145, Note_on_c, 4, 72, 0
6, 23145, Note_on_c, 4, 67, 0
6, 23150, Control_c, 4, 7, 120
6, 23152, Control_c, 4, 10, 40
6, 23154, Program_c, 4, 46
6, 23520, Note_on_c, 4, 72, 100
6, 23572, Note_on_c, 4, 72, 0
6, 23580, Note_on_c, 4, 70, 100
6, 23632, Note_on_c, 4, 70, 0
6, 23640, Note_on_c, 4, 68, 100
6, 23692, Note_on_c, 4, 68, 0
6, 23700, Note_on_c, 4, 70, 100
6, 23752, Note_on_c, 4, 70, 0
6, 24240, Note_on_c, 4, 79, 100
6, 24292, Note_on_c, 4, 79, 0
6, 24300, Note_on_c, 4, 77, 100
6, 24352, Note_on_c, 4, 77, 0
6, 24360, Note_on_c, 4, 75, 100
6, 24412, Note_on_c, 4, 75, 0
6, 24420, Note_on_c, 4, 77, 100
6, 24472, Note_on_c, 4, 77, 0
6, 24960, Note_on_c, 4, 79, 100
6, 25012, Note_on_c, 4, 79, 0
6, 25020, Note_on_c, 4, 77, 100
6, 25072, Note_on_c, 4, 77, 0
6, 25080, Note_on_c, 4, 75, 100
6, 25132, Note_on_c, 4, 75, 0
6, 25140, Note_on_c, 4, 81, 100
6, 25192, Note_on_c, 4, 81, 0
6, 25200, Note_on_c, 4, 82, 100
6, 25252, Note_on_c, 4, 82, 0
6, 25260, Note_on_c, 4, 84, 100
6, 25432, Note_on_c, 4, 84, 0
6, 26400, Note_on_c, 4, 70, 100
6, 26452, Note_on_c, 4, 70, 0
6, 26460, Note_on_c, 4, 68, 100
6, 26512, Note_on_c, 4, 68, 0
6, 26520, Note_on_c, 4, 67, 100
6, 26572, Note_on_c, 4, 67, 0
6, 26580, Note_on_c, 4, 68, 100
6, 26632, Note_on_c, 4, 68, 0
6, 26880, Note_on_c, 4, 78, 100
6, 26932, Note_on_c, 4, 78, 0
6, 26940, Note_on_c, 4, 77, 100
6, 26992, Note_on_c, 4, 77, 0
6, 27000, Note_on_c, 4, 75, 100
6, 27052, Note_on_c, 4, 75, 0
6, 27060, Note_on_c, 4, 84, 100
6, 27112, Note_on_c, 4, 84, 0
6, 27360, Note_on_c, 4, 77, 100
6, 27412, Note_on_c, 4, 77, 0
6, 27420, Note_on_c, 4, 82, 100
6, 27472, Note_on_c, 4, 82, 0
6, 27480, Note_on_c, 4, 80, 100
6, 27532, Note_on_c, 4, 80, 0
6, 27540, Note_on_c, 4, 78, 100
6, 27592, Note_on_c, 4, 78, 0
6, 27600, Note_on_c, 4, 77, 100
6, 27652, Note_on_c, 4, 77, 0
6, 27660, Note_on_c, 4, 76, 100
6, 27712, Note_on_c, 4, 76, 0
6, 27720, Note_on_c, 4, 77, 100
6, 27772, Note_on_c, 4, 77, 0
6, 27780, Note_on_c, 4, 73, 100
6, 27832, Note_on_c, 4, 73, 0
6, 27840, Note_on_c, 4, 72, 100
6, 27892, Note_on_c, 4, 72, 0
6, 27900, Note_on_c, 4, 71, 100
6, 27952, Note_on_c, 4, 71, 0
6, 27960, Note_on_c, 4, 72, 100
6, 28012, Note_on_c, 4, 72, 0
6, 28020, Note_on_c, 4, 80, 100
6, 28072, Note_on_c, 4, 80, 0
6, 28080, Note_on_c, 4, 79, 100
6, 28132, Note_on_c, 4, 79, 0
6, 28140, Note_on_c, 4, 77, 100
6, 28192, Note_on_c, 4, 77, 0
6, 28200, Note_on_c, 4, 76, 100
6, 28252, Note_on_c, 4, 76, 0
6, 28260, Note_on_c, 4, 77, 100
6, 28312, Note_on_c, 4, 77, 0
6, 28560, Note_on_c, 4, 70, 100
6, 28612, Note_on_c, 4, 70, 0
6, 28620, Note_on_c, 4, 68, 100
6, 28672, Note_on_c, 4, 68, 0
6, 28680, Note_on_c, 4, 67, 100
6, 28732, Note_on_c, 4, 67, 0
6, 28740, Note_on_c, 4, 65, 100
6, 29032, Note_on_c, 4, 65, 0
6, 29340, Note_on_c, 4, 70, 100
6, 29505, Note_on_c, 4, 70, 0
6, 29520, Note_on_c, 4, 68, 100
6, 29572, Note_on_c, 4, 68, 0
6, 29580, Note_on_c, 4, 67, 100
6, 29632, Note_on_c, 4, 67, 0
6, 29640, Note_on_c, 4, 65, 100
6, 29692, Note_on_c, 4, 65, 0
6, 29700, Note_on_c, 4, 63, 100
6, 29752, Note_on_c, 4, 63, 0
6, 30060, Note_on_c, 4, 68, 100
6, 30225, Note_on_c, 4, 68, 0
6, 30240, Note_on_c, 4, 67, 100
6, 30292, Note_on_c, 4, 67, 0
6, 30300, Note_on_c, 4, 65, 100
6, 30352, Note_on_c, 4, 65, 0
6, 30360, Note_on_c, 4, 63, 100
6, 30412, Note_on_c, 4, 63, 0
6, 30420, Note_on_c, 4, 62, 100
6, 30472, Note_on_c, 4, 62, 0
6, 30780, Note_on_c, 4, 67, 100
6, 30945, Note_on_c, 4, 67, 0
6, 30960, Note_on_c, 4, 65, 100
6, 31012, Note_on_c, 4, 65, 0
6, 31020, Note_on_c, 4, 63, 100
6, 31072, Note_on_c, 4, 63, 0
6, 31080, Note_on_c, 4, 62, 100
6, 31132, Note_on_c, 4, 62, 0
6, 31140, Note_on_c, 4, 60, 100
6, 31192, Note_on_c, 4, 60, 0
6, 34080, Note_on_c, 4, 65, 100
6, 34132, Note_on_c, 4, 65, 0
6, 34140, Note_on_c, 4, 63, 100
6, 34192, Note_on_c, 4, 63, 0
6, 34200, Note_on_c, 4, 62, 100
6, 34252, Note_on_c, 4, 62, 0
6, 34260, Note_on_c, 4, 63, 100
6, 34725, Note_on_c, 4, 63, 0
6, 34725, End_track
0, 0, End_of_file
