0, 0, Header, 1, 8, 120
1, 0, Start_track
1, 0, Time_signature, 4, 2, 24, 8
1, 0, Key_signature, 0, "major"
1, 0, Tempo, 631578
1, 34682, Tempo, 681818
1, 34908, Tempo, 731707
1, 34910, Tempo, 759493
1, 35038, Tempo, 869565
1, 35040, Tempo, 789473
1, 35042, Tempo, 882352
1, 35046, Tempo, 882352
1, 35160, Tempo, 1111111
1, 35282, Tempo, 638297
1, 35282, End_track
2, 0, Start_track
2, 0, MIDI_port, 0
2, 0, Title_t, "Pad 1(new age)"
2, 0, Program_c, 0, 88
2, 0, Control_c, 0, 7, 100
2, 0, Control_c, 0, 10, 64
2, 6600, Note_on_c, 0, 67, 90
2, 6765, Note_on_c, 0, 67, 0
2, 6780, Note_on_c, 0, 67, 90
2, 6945, Note_on_c, 0, 67, 0
2, 6960, Note_on_c, 0, 71, 90
2, 7065, Note_on_c, 0, 71, 0
2, 7080, Note_on_c, 0, 72, 90
2, 7106, Note_on_c, 0, 72, 0
2, 7110, Note_on_c, 0, 74, 90
2, 7136, Note_on_c, 0, 74, 0
2, 7140, Note_on_c, 0, 71, 90
2, 7305, Note_on_c, 0, 71, 0
2, 7440, Note_on_c, 0, 69, 90
2, 7492, Note_on_c, 0, 69, 0
2, 7500, Note_on_c, 0, 67, 90
2, 7605, Note_on_c, 0, 67, 0
2, 7620, Note_on_c, 0, 66, 90
2, 7646, Note_on_c, 0, 66, 0
2, 7650, Note_on_c, 0, 67, 90
2, 7676, Note_on_c, 0, 67, 0
2, 7680, Note_on_c, 0, 66, 90
2, 7693, Note_on_c, 0, 66, 0
2, 7695, Note_on_c, 0, 67, 90
2, 7708, Note_on_c, 0, 67, 0
2, 7710, Note_on_c, 0, 66, 90
2, 7723, Note_on_c, 0, 66, 0
2, 7725, Note_on_c, 0, 67, 90
2, 7738, Note_on_c, 0, 67, 0
2, 7740, Note_on_c, 0, 66, 90
2, 7753, Note_on_c, 0, 66, 0
2, 7755, Note_on_c, 0, 67, 90
2, 7768, Note_on_c, 0, 67, 0
2, 7770, Note_on_c, 0, 66, 90
2, 7783, Note_on_c, 0, 66, 0
2, 7785, Note_on_c, 0, 67, 90
2, 7798, Note_on_c, 0, 67, 0
2, 7800, Note_on_c, 0, 66, 90
2, 7813, Note_on_c, 0, 66, 0
2, 7815, Note_on_c, 0, 67, 90
2, 7828, Note_on_c, 0, 67, 0
2, 7830, Note_on_c, 0, 66, 90
2, 7843, Note_on_c, 0, 66, 0
2, 7845, Note_on_c, 0, 67, 90
2, 7860, Note_on_c, 0, 67, 0
2, 7860, Note_on_c, 0, 66, 90
2, 7873, Note_on_c, 0, 66, 0
2, 7875, Note_on_c, 0, 67, 90
2, 7888, Note_on_c, 0, 67, 0
2, 7890, Note_on_c, 0, 66, 90
2, 7903, Note_on_c, 0, 66, 0
2, 7905, Note_on_c, 0, 67, 90
2, 7918, Note_on_c, 0, 67, 0
2, 7920, Note_on_c, 0, 66, 90
2, 7972, Note_on_c, 0, 66, 0
2, 7980, Note_on_c, 0, 64, 90
2, 8032, Note_on_c, 0, 64, 0
2, 8040, Note_on_c, 0, 62, 90
2, 8145, Note_on_c, 0, 62, 0
2, 8220, Note_on_c, 0, 64, 90
2, 8325, Note_on_c, 0, 64, 0
2, 8340, Note_on_c, 0, 66, 90
2, 8392, Note_on_c, 0, 66, 0
2, 8400, Note_on_c, 0, 67, 90
2, 8505, Note_on_c, 0, 67, 0
2, 8520, Note_on_c, 0, 66, 90
2, 8572, Note_on_c, 0, 66, 0
2, 8580, Note_on_c, 0, 67, 90
2, 8685, Note_on_c, 0, 67, 0
2, 8700, Note_on_c, 0, 69, 90
2, 8752, Note_on_c, 0, 69, 0
2, 8760, Note_on_c, 0, 66, 90
2, 8773, Note_on_c, 0, 66, 0
2, 8775, Note_on_c, 0, 67, 90
2, 8788, Note_on_c, 0, 67, 0
2, 8790, Note_on_c, 0, 66, 90
2, 8803, Note_on_c, 0, 66, 0
2, 8805, Note_on_c, 0, 67, 90
2, 8818, Note_on_c, 0, 67, 0
2, 8820, Note_on_c, 0, 66, 90
2, 8833, Note_on_c, 0, 66, 0
2, 8835, Note_on_c, 0, 67, 90
2, 8848, Note_on_c, 0, 67, 0
2, 8850, Note_on_c, 0, 66, 90
2, 8863, Note_on_c, 0, 66, 0
2, 8865, Note_on_c, 0, 67, 90
2, 8878, Note_on_c, 0, 67, 0
2, 8880, Note_on_c, 0, 66, 90
2, 8893, Note_on_c, 0, 66, 0
2, 8895, Note_on_c, 0, 67, 90
2, 8908, Note_on_c, 0, 67, 0
2, 8910, Note_on_c, 0, 66, 90
2, 8923, Note_on_c, 0, 66, 0
2, 8925, Note_on_c, 0, 67, 90
2, 8938, Note_on_c, 0, 67, 0
2, 8940, Note_on_c, 0, 66, 90
2, 8953, Note_on_c, 0, 66, 0
2, 8955, Note_on_c, 0, 67, 90
2, 8968, Note_on_c, 0, 67, 0
2, 8970, Note_on_c, 0, 66, 90
2, 8983, Note_on_c, 0, 66, 0
2, 8985, Note_on_c, 0, 67, 90
2, 8998, Note_on_c, 0, 67, 0
2, 9000, Note_on_c, 0, 66, 90
2, 9013, Note_on_c, 0, 66, 0
2, 9015, Note_on_c, 0, 67, 90
2, 9028, Note_on_c, 0, 67, 0
2, 9030, Note_on_c, 0, 66, 90
2, 9043, Note_on_c, 0, 66, 0
2, 9045, Note_on_c, 0, 67, 90
2, 9058, Note_on_c, 0, 67, 0
2, 9060, Note_on_c, 0, 66, 90
2, 9073, Note_on_c, 0, 66, 0
2, 9075, Note_on_c, 0, 67, 90
2, 9088, Note_on_c, 0, 67, 0
2, 9090, Note_on_c, 0, 66, 90
2, 9103, Note_on_c, 0, 66, 0
2, 9105, Note_on_c, 0, 67, 90
2, 9118, Note_on_c, 0, 67, 0
2, 9120, Note_on_c, 0, 66, 90
2, 9292, Note_on_c, 0, 66, 0
2, 9300, Note_on_c, 0, 67, 90
2, 9465, Note_on_c, 0, 67, 0
2, 12000, Note_on_c, 0, 67, 90
2, 12165, Note_on_c, 0, 67, 0
2, 12180, Note_on_c, 0, 67, 90
2, 12345, Note_on_c, 0, 67, 0
2, 12360, Note_on_c, 0, 71, 90
2, 12465, Note_on_c, 0, 71, 0
2, 12480, Note_on_c, 0, 72, 90
2, 12506, Note_on_c, 0, 72, 0
2, 12510, Note_on_c, 0, 74, 90
2, 12536, Note_on_c, 0, 74, 0
2, 12540, Note_on_c, 0, 71, 90
2, 12705, Note_on_c, 0, 71, 0
2, 12840, Note_on_c, 0, 69, 90
2, 12892, Note_on_c, 0, 69, 0
2, 12900, Note_on_c, 0, 67, 90
2, 13072, Note_on_c, 0, 67, 0
2, 13080, Note_on_c, 0, 66, 90
2, 13245, Note_on_c, 0, 66, 0
2, 13380, Note_on_c, 0, 64, 90
2, 13432, Note_on_c, 0, 64, 0
2, 13440, Note_on_c, 0, 62, 90
2, 13612, Note_on_c, 0, 62, 0
2, 13620, Note_on_c, 0, 64, 90
2, 13725, Note_on_c, 0, 64, 0
2, 13740, Note_on_c, 0, 66, 90
2, 13792, Note_on_c, 0, 66, 0
2, 13800, Note_on_c, 0, 67, 90
2, 13905, Note_on_c, 0, 67, 0
2, 13920, Note_on_c, 0, 66, 90
2, 13972, Note_on_c, 0, 66, 0
2, 13980, Note_on_c, 0, 67, 90
2, 14085, Note_on_c, 0, 67, 0
2, 14100, Note_on_c, 0, 69, 90
2, 14152, Note_on_c, 0, 69, 0
2, 14160, Note_on_c, 0, 66, 90
2, 14173, Note_on_c, 0, 66, 0
2, 14175, Note_on_c, 0, 67, 90
2, 14188, Note_on_c, 0, 67, 0
2, 14190, Note_on_c, 0, 66, 90
2, 14203, Note_on_c, 0, 66, 0
2, 14205, Note_on_c, 0, 67, 90
2, 14218, Note_on_c, 0, 67, 0
2, 14220, Note_on_c, 0, 66, 90
2, 14233, Note_on_c, 0, 66, 0
2, 14235, Note_on_c, 0, 67, 90
2, 14248, Note_on_c, 0, 67, 0
2, 14250, Note_on_c, 0, 66, 90
2, 14263, Note_on_c, 0, 66, 0
2, 14265, Note_on_c, 0, 67, 90
2, 14278, Note_on_c, 0, 67, 0
2, 14280, Note_on_c, 0, 66, 90
2, 14293, Note_on_c, 0, 66, 0
2, 14295, Note_on_c, 0, 67, 90
2, 14308, Note_on_c, 0, 67, 0
2, 14310, Note_on_c, 0, 66, 90
2, 14323, Note_on_c, 0, 66, 0
2, 14325, Note_on_c, 0, 67, 90
2, 14338, Note_on_c, 0, 67, 0
2, 14340, Note_on_c, 0, 66, 90
2, 14353, Note_on_c, 0, 66, 0
2, 14355, Note_on_c, 0, 67, 90
2, 14368, Note_on_c, 0, 67, 0
2, 14370, Note_on_c, 0, 66, 90
2, 14383, Note_on_c, 0, 66, 0
2, 14385, Note_on_c, 0, 67, 90
2, 14398, Note_on_c, 0, 67, 0
2, 14400, Note_on_c, 0, 66, 90
2, 14413, Note_on_c, 0, 66, 0
2, 14415, Note_on_c, 0, 67, 90
2, 14428, Note_on_c, 0, 67, 0
2, 14430, Note_on_c, 0, 66, 90
2, 14443, Note_on_c, 0, 66, 0
2, 14445, Note_on_c, 0, 67, 90
2, 14458, Note_on_c, 0, 67, 0
2, 14460, Note_on_c, 0, 66, 90
2, 14473, Note_on_c, 0, 66, 0
2, 14475, Note_on_c, 0, 67, 90
2, 14488, Note_on_c, 0, 67, 0
2, 14490, Note_on_c, 0, 66, 90
2, 14503, Note_on_c, 0, 66, 0
2, 14505, Note_on_c, 0, 67, 90
2, 14518, Note_on_c, 0, 67, 0
2, 14520, Note_on_c, 0, 66, 90
2, 14692, Note_on_c, 0, 66, 0
2, 14700, Note_on_c, 0, 67, 90
2, 14865, Note_on_c, 0, 67, 0
2, 20100, Note_on_c, 0, 71, 90
2, 20272, Note_on_c, 0, 71, 0
2, 20280, Note_on_c, 0, 72, 90
2, 20385, Note_on_c, 0, 72, 0
2, 20400, Note_on_c, 0, 71, 90
2, 20452, Note_on_c, 0, 71, 0
2, 20460, Note_on_c, 0, 69, 90
2, 20565, Note_on_c, 0, 69, 0
2, 20580, Note_on_c, 0, 71, 90
2, 20632, Note_on_c, 0, 71, 0
2, 20640, Note_on_c, 0, 72, 90
2, 21712, Note_on_c, 0, 72, 0
2, 21720, Note_on_c, 0, 71, 90
2, 22005, Note_on_c, 0, 71, 0
2, 22020, Note_on_c, 0, 72, 90
2, 22072, Note_on_c, 0, 72, 0
2, 22080, Note_on_c, 0, 74, 90
2, 22252, Note_on_c, 0, 74, 0
2, 22260, Note_on_c, 0, 74, 90
2, 22432, Note_on_c, 0, 74, 0
2, 22440, Note_on_c, 0, 67, 90
2, 22545, Note_on_c, 0, 67, 0
2, 22560, Note_on_c, 0, 66, 90
2, 22612, Note_on_c, 0, 66, 0
2, 22620, Note_on_c, 0, 67, 90
2, 22725, Note_on_c, 0, 67, 0
2, 22740, Note_on_c, 0, 72, 90
2, 22792, Note_on_c, 0, 72, 0
2, 22800, Note_on_c, 0, 69, 90
2, 22972, Note_on_c, 0, 69, 0
2, 27120, Note_on_c, 0, 74, 90
2, 27292, Note_on_c, 0, 74, 0
2, 27300, Note_on_c, 0, 76, 90
2, 27472, Note_on_c, 0, 76, 0
2, 27480, Note_on_c, 0, 78, 90
2, 27652, Note_on_c, 0, 78, 0
2, 27660, Note_on_c, 0, 79, 90
2, 27832, Note_on_c, 0, 79, 0
2, 27840, Note_on_c, 0, 81, 90
2, 28012, Note_on_c, 0, 81, 0
2, 28020, Note_on_c, 0, 83, 90
2, 28072, Note_on_c, 0, 83, 0
2, 28080, Note_on_c, 0, 84, 90
2, 28132, Note_on_c, 0, 84, 0
2, 28140, Note_on_c, 0, 86, 90
2, 28192, Note_on_c, 0, 86, 0
2, 28200, Note_on_c, 0, 81, 90
2, 28213, Note_on_c, 0, 81, 0
2, 28215, Note_on_c, 0, 83, 90
2, 28228, Note_on_c, 0, 83, 0
2, 28230, Note_on_c, 0, 81, 90
2, 28243, Note_on_c, 0, 81, 0
2, 28245, Note_on_c, 0, 83, 90
2, 28258, Note_on_c, 0, 83, 0
2, 28260, Note_on_c, 0, 81, 90
2, 28273, Note_on_c, 0, 81, 0
2, 28275, Note_on_c, 0, 83, 90
2, 28288, Note_on_c, 0, 83, 0
2, 28290, Note_on_c, 0, 81, 90
2, 28303, Note_on_c, 0, 81, 0
2, 28305, Note_on_c, 0, 83, 90
2, 28318, Note_on_c, 0, 83, 0
2, 28320, Note_on_c, 0, 81, 90
2, 28333, Note_on_c, 0, 81, 0
2, 28335, Note_on_c, 0, 83, 90
2, 28348, Note_on_c, 0, 83, 0
2, 28350, Note_on_c, 0, 81, 90
2, 28363, Note_on_c, 0, 81, 0
2, 28365, Note_on_c, 0, 83, 90
2, 28378, Note_on_c, 0, 83, 0
2, 28380, Note_on_c, 0, 81, 90
2, 28393, Note_on_c, 0, 81, 0
2, 28395, Note_on_c, 0, 83, 90
2, 28408, Note_on_c, 0, 83, 0
2, 28410, Note_on_c, 0, 81, 90
2, 28423, Note_on_c, 0, 81, 0
2, 28425, Note_on_c, 0, 83, 90
2, 28438, Note_on_c, 0, 83, 0
2, 28440, Note_on_c, 0, 81, 90
2, 28453, Note_on_c, 0, 81, 0
2, 28455, Note_on_c, 0, 83, 90
2, 28468, Note_on_c, 0, 83, 0
2, 28470, Note_on_c, 0, 81, 90
2, 28483, Note_on_c, 0, 81, 0
2, 28485, Note_on_c, 0, 83, 90
2, 28498, Note_on_c, 0, 83, 0
2, 28500, Note_on_c, 0, 81, 90
2, 28513, Note_on_c, 0, 81, 0
2, 28515, Note_on_c, 0, 83, 90
2, 28528, Note_on_c, 0, 83, 0
2, 28530, Note_on_c, 0, 81, 90
2, 28543, Note_on_c, 0, 81, 0
2, 28545, Note_on_c, 0, 83, 90
2, 28558, Note_on_c, 0, 83, 0
2, 28560, Note_on_c, 0, 81, 90
2, 28732, Note_on_c, 0, 81, 0
2, 28740, Note_on_c, 0, 79, 90
2, 28912, Note_on_c, 0, 79, 0
2, 28912, End_track
3, 0, Start_track
3, 0, MIDI_port, 0
3, 0, Title_t, "Trumpet"
3, 0, Program_c, 1, 56
3, 0, Control_c, 1, 7, 80
3, 0, Control_c, 1, 10, 1
3, 6600, Note_on_c, 1, 79, 90
3, 6765, Note_on_c, 1, 79, 0
3, 6780, Note_on_c, 1, 79, 90
3, 6945, Note_on_c, 1, 79, 0
3, 6960, Note_on_c, 1, 83, 90
3, 7065, Note_on_c, 1, 83, 0
3, 7080, Note_on_c, 1, 84, 90
3, 7106, Note_on_c, 1, 84, 0
3, 7110, Note_on_c, 1, 86, 90
3, 7136, Note_on_c, 1, 86, 0
3, 7140, Note_on_c, 1, 83, 90
3, 7305, Note_on_c, 1, 83, 0
3, 7440, Note_on_c, 1, 81, 90
3, 7492, Note_on_c, 1, 81, 0
3, 7500, Note_on_c, 1, 79, 90
3, 7605, Note_on_c, 1, 79, 0
3, 7620, Note_on_c, 1, 78, 90
3, 7646, Note_on_c, 1, 78, 0
3, 7650, Note_on_c, 1, 79, 90
3, 7676, Note_on_c, 1, 79, 0
3, 7680, Note_on_c, 1, 78, 90
3, 7693, Note_on_c, 1, 78, 0
3, 7695, Note_on_c, 1, 79, 90
3, 7708, Note_on_c, 1, 79, 0
3, 7710, Note_on_c, 1, 78, 90
3, 7723, Note_on_c, 1, 78, 0
3, 7725, Note_on_c, 1, 79, 90
3, 7738, Note_on_c, 1, 79, 0
3, 7740, Note_on_c, 1, 78, 90
3, 7753, Note_on_c, 1, 78, 0
3, 7755, Note_on_c, 1, 79, 90
3, 7768, Note_on_c, 1, 79, 0
3, 7770, Note_on_c, 1, 78, 90
3, 7783, Note_on_c, 1, 78, 0
3, 7785, Note_on_c, 1, 79, 90
3, 7798, Note_on_c, 1, 79, 0
3, 7800, Note_on_c, 1, 78, 90
3, 7813, Note_on_c, 1, 78, 0
3, 7815, Note_on_c, 1, 79, 90
3, 7828, Note_on_c, 1, 79, 0
3, 7830, Note_on_c, 1, 78, 90
3, 7843, Note_on_c, 1, 78, 0
3, 7845, Note_on_c, 1, 79, 90
3, 7860, Note_on_c, 1, 79, 0
3, 7860, Note_on_c, 1, 78, 90
3, 7873, Note_on_c, 1, 78, 0
3, 7875, Note_on_c, 1, 79, 90
3, 7888, Note_on_c, 1, 79, 0
3, 7890, Note_on_c, 1, 78, 90
3, 7903, Note_on_c, 1, 78, 0
3, 7905, Note_on_c, 1, 79, 90
3, 7918, Note_on_c, 1, 79, 0
3, 7920, Note_on_c, 1, 78, 90
3, 7972, Note_on_c, 1, 78, 0
3, 7980, Note_on_c, 1, 76, 90
3, 8032, Note_on_c, 1, 76, 0
3, 8040, Note_on_c, 1, 74, 90
3, 8145, Note_on_c, 1, 74, 0
3, 8220, Note_on_c, 1, 76, 90
3, 8325, Note_on_c, 1, 76, 0
3, 8340, Note_on_c, 1, 78, 90
3, 8392, Note_on_c, 1, 78, 0
3, 8400, Note_on_c, 1, 79, 90
3, 8505, Note_on_c, 1, 79, 0
3, 8520, Note_on_c, 1, 78, 90
3, 8572, Note_on_c, 1, 78, 0
3, 8580, Note_on_c, 1, 79, 90
3, 8685, Note_on_c, 1, 79, 0
3, 8700, Note_on_c, 1, 81, 90
3, 8752, Note_on_c, 1, 81, 0
3, 8760, Note_on_c, 1, 78, 90
3, 8773, Note_on_c, 1, 78, 0
3, 8775, Note_on_c, 1, 79, 90
3, 8788, Note_on_c, 1, 79, 0
3, 8790, Note_on_c, 1, 78, 90
3, 8803, Note_on_c, 1, 78, 0
3, 8805, Note_on_c, 1, 79, 90
3, 8818, Note_on_c, 1, 79, 0
3, 8820, Note_on_c, 1, 78, 90
3, 8833, Note_on_c, 1, 78, 0
3, 8835, Note_on_c, 1, 79, 90
3, 8848, Note_on_c, 1, 79, 0
3, 8850, Note_on_c, 1, 78, 90
3, 8863, Note_on_c, 1, 78, 0
3, 8865, Note_on_c, 1, 79, 90
3, 8878, Note_on_c, 1, 79, 0
3, 8880, Note_on_c, 1, 78, 90
3, 8893, Note_on_c, 1, 78, 0
3, 8895, Note_on_c, 1, 79, 90
3, 8908, Note_on_c, 1, 79, 0
3, 8910, Note_on_c, 1, 78, 90
3, 8923, Note_on_c, 1, 78, 0
3, 8925, Note_on_c, 1, 79, 90
3, 8938, Note_on_c, 1, 79, 0
3, 8940, Note_on_c, 1, 78, 90
3, 8953, Note_on_c, 1, 78, 0
3, 8955, Note_on_c, 1, 79, 90
3, 8968, Note_on_c, 1, 79, 0
3, 8970, Note_on_c, 1, 78, 90
3, 8983, Note_on_c, 1, 78, 0
3, 8985, Note_on_c, 1, 79, 90
3, 8998, Note_on_c, 1, 79, 0
3, 9000, Note_on_c, 1, 78, 90
3, 9013, Note_on_c, 1, 78, 0
3, 9015, Note_on_c, 1, 79, 90
3, 9028, Note_on_c, 1, 79, 0
3, 9030, Note_on_c, 1, 78, 90
3, 9043, Note_on_c, 1, 78, 0
3, 9045, Note_on_c, 1, 79, 90
3, 9058, Note_on_c, 1, 79, 0
3, 9060, Note_on_c, 1, 78, 90
3, 9073, Note_on_c, 1, 78, 0
3, 9075, Note_on_c, 1, 79, 90
3, 9088, Note_on_c, 1, 79, 0
3, 9090, Note_on_c, 1, 78, 90
3, 9103, Note_on_c, 1, 78, 0
3, 9105, Note_on_c, 1, 79, 90
3, 9118, Note_on_c, 1, 79, 0
3, 9120, Note_on_c, 1, 78, 90
3, 9292, Note_on_c, 1, 78, 0
3, 9300, Note_on_c, 1, 79, 90
3, 9465, Note_on_c, 1, 79, 0
3, 12000, Note_on_c, 1, 79, 90
3, 12165, Note_on_c, 1, 79, 0
3, 12180, Note_on_c, 1, 79, 90
3, 12345, Note_on_c, 1, 79, 0
3, 12360, Note_on_c, 1, 83, 90
3, 12465, Note_on_c, 1, 83, 0
3, 12480, Note_on_c, 1, 84, 90
3, 12506, Note_on_c, 1, 84, 0
3, 12510, Note_on_c, 1, 86, 90
3, 12536, Note_on_c, 1, 86, 0
3, 12540, Note_on_c, 1, 83, 90
3, 12705, Note_on_c, 1, 83, 0
3, 12840, Note_on_c, 1, 81, 90
3, 12892, Note_on_c, 1, 81, 0
3, 12900, Note_on_c, 1, 79, 90
3, 13072, Note_on_c, 1, 79, 0
3, 13080, Note_on_c, 1, 78, 90
3, 13245, Note_on_c, 1, 78, 0
3, 13380, Note_on_c, 1, 76, 90
3, 13432, Note_on_c, 1, 76, 0
3, 13440, Note_on_c, 1, 74, 90
3, 13612, Note_on_c, 1, 74, 0
3, 13620, Note_on_c, 1, 76, 90
3, 13725, Note_on_c, 1, 76, 0
3, 13740, Note_on_c, 1, 78, 90
3, 13792, Note_on_c, 1, 78, 0
3, 13800, Note_on_c, 1, 79, 90
3, 13905, Note_on_c, 1, 79, 0
3, 13920, Note_on_c, 1, 78, 90
3, 13972, Note_on_c, 1, 78, 0
3, 13980, Note_on_c, 1, 79, 90
3, 14085, Note_on_c, 1, 79, 0
3, 14100, Note_on_c, 1, 81, 90
3, 14152, Note_on_c, 1, 81, 0
3, 14160, Note_on_c, 1, 78, 90
3, 14173, Note_on_c, 1, 78, 0
3, 14175, Note_on_c, 1, 79, 90
3, 14188, Note_on_c, 1, 79, 0
3, 14190, Note_on_c, 1, 78, 90
3, 14203, Note_on_c, 1, 78, 0
3, 14205, Note_on_c, 1, 79, 90
3, 14218, Note_on_c, 1, 79, 0
3, 14220, Note_on_c, 1, 78, 90
3, 14233, Note_on_c, 1, 78, 0
3, 14235, Note_on_c, 1, 79, 90
3, 14248, Note_on_c, 1, 79, 0
3, 14250, Note_on_c, 1, 78, 90
3, 14263, Note_on_c, 1, 78, 0
3, 14265, Note_on_c, 1, 79, 90
3, 14278, Note_on_c, 1, 79, 0
3, 14280, Note_on_c, 1, 78, 90
3, 14293, Note_on_c, 1, 78, 0
3, 14295, Note_on_c, 1, 79, 90
3, 14308, Note_on_c, 1, 79, 0
3, 14310, Note_on_c, 1, 78, 90
3, 14323, Note_on_c, 1, 78, 0
3, 14325, Note_on_c, 1, 79, 90
3, 14338, Note_on_c, 1, 79, 0
3, 14340, Note_on_c, 1, 78, 90
3, 14353, Note_on_c, 1, 78, 0
3, 14355, Note_on_c, 1, 79, 90
3, 14368, Note_on_c, 1, 79, 0
3, 14370, Note_on_c, 1, 78, 90
3, 14383, Note_on_c, 1, 78, 0
3, 14385, Note_on_c, 1, 79, 90
3, 14398, Note_on_c, 1, 79, 0
3, 14400, Note_on_c, 1, 78, 90
3, 14413, Note_on_c, 1, 78, 0
3, 14415, Note_on_c, 1, 79, 90
3, 14428, Note_on_c, 1, 79, 0
3, 14430, Note_on_c, 1, 78, 90
3, 14443, Note_on_c, 1, 78, 0
3, 14445, Note_on_c, 1, 79, 90
3, 14458, Note_on_c, 1, 79, 0
3, 14460, Note_on_c, 1, 78, 90
3, 14473, Note_on_c, 1, 78, 0
3, 14475, Note_on_c, 1, 79, 90
3, 14488, Note_on_c, 1, 79, 0
3, 14490, Note_on_c, 1, 78, 90
3, 14503, Note_on_c, 1, 78, 0
3, 14505, Note_on_c, 1, 79, 90
3, 14518, Note_on_c, 1, 79, 0
3, 14520, Note_on_c, 1, 78, 90
3, 14692, Note_on_c, 1, 78, 0
3, 14700, Note_on_c, 1, 79, 90
3, 14865, Note_on_c, 1, 79, 0
3, 20100, Note_on_c, 1, 83, 90
3, 20272, Note_on_c, 1, 83, 0
3, 20280, Note_on_c, 1, 84, 90
3, 20385, Note_on_c, 1, 84, 0
3, 20400, Note_on_c, 1, 83, 90
3, 20452, Note_on_c, 1, 83, 0
3, 20460, Note_on_c, 1, 81, 90
3, 20565, Note_on_c, 1, 81, 0
3, 20580, Note_on_c, 1, 83, 90
3, 20632, Note_on_c, 1, 83, 0
3, 20640, Note_on_c, 1, 84, 90
3, 21712, Note_on_c, 1, 84, 0
3, 21720, Note_on_c, 1, 83, 90
3, 22005, Note_on_c, 1, 83, 0
3, 22020, Note_on_c, 1, 84, 90
3, 22072, Note_on_c, 1, 84, 0
3, 22080, Note_on_c, 1, 86, 90
3, 22252, Note_on_c, 1, 86, 0
3, 22260, Note_on_c, 1, 86, 90
3, 22432, Note_on_c, 1, 86, 0
3, 22440, Note_on_c, 1, 79, 90
3, 22545, Note_on_c, 1, 79, 0
3, 22560, Note_on_c, 1, 78, 90
3, 22612, Note_on_c, 1, 78, 0
3, 22620, Note_on_c, 1, 79, 90
3, 22725, Note_on_c, 1, 79, 0
3, 22740, Note_on_c, 1, 84, 90
3, 22792, Note_on_c, 1, 84, 0
3, 22800, Note_on_c, 1, 81, 90
3, 22972, Note_on_c, 1, 81, 0
3, 27120, Note_on_c, 1, 86, 90
3, 27292, Note_on_c, 1, 86, 0
3, 27300, Note_on_c, 1, 88, 90
3, 27472, Note_on_c, 1, 88, 0
3, 27480, Note_on_c, 1, 90, 90
3, 27652, Note_on_c, 1, 90, 0
3, 27660, Note_on_c, 1, 91, 90
3, 27832, Note_on_c, 1, 91, 0
3, 27840, Note_on_c, 1, 93, 90
3, 28012, Note_on_c, 1, 93, 0
3, 28020, Note_on_c, 1, 95, 90
3, 28072, Note_on_c, 1, 95, 0
3, 28080, Note_on_c, 1, 96, 90
3, 28132, Note_on_c, 1, 96, 0
3, 28140, Note_on_c, 1, 98, 90
3, 28192, Note_on_c, 1, 98, 0
3, 28200, Note_on_c, 1, 93, 90
3, 28213, Note_on_c, 1, 93, 0
3, 28215, Note_on_c, 1, 95, 90
3, 28228, Note_on_c, 1, 95, 0
3, 28230, Note_on_c, 1, 93, 90
3, 28243, Note_on_c, 1, 93, 0
3, 28245, Note_on_c, 1, 95, 90
3, 28258, Note_on_c, 1, 95, 0
3, 28260, Note_on_c, 1, 93, 90
3, 28273, Note_on_c, 1, 93, 0
3, 28275, Note_on_c, 1, 95, 90
3, 28288, Note_on_c, 1, 95, 0
3, 28290, Note_on_c, 1, 93, 90
3, 28303, Note_on_c, 1, 93, 0
3, 28305, Note_on_c, 1, 95, 90
3, 28318, Note_on_c, 1, 95, 0
3, 28320, Note_on_c, 1, 93, 90
3, 28333, Note_on_c, 1, 93, 0
3, 28335, Note_on_c, 1, 95, 90
3, 28348, Note_on_c, 1, 95, 0
3, 28350, Note_on_c, 1, 93, 90
3, 28363, Note_on_c, 1, 93, 0
3, 28365, Note_on_c, 1, 95, 90
3, 28378, Note_on_c, 1, 95, 0
3, 28380, Note_on_c, 1, 93, 90
3, 28393, Note_on_c, 1, 93, 0
3, 28395, Note_on_c, 1, 95, 90
3, 28408, Note_on_c, 1, 95, 0
3, 28410, Note_on_c, 1, 93, 90
3, 28423, Note_on_c, 1, 93, 0
3, 28425, Note_on_c, 1, 95, 90
3, 28438, Note_on_c, 1, 95, 0
3, 28440, Note_on_c, 1, 93, 90
3, 28453, Note_on_c, 1, 93, 0
3, 28455, Note_on_c, 1, 95, 90
3, 28468, Note_on_c, 1, 95, 0
3, 28470, Note_on_c, 1, 93, 90
3, 28483, Note_on_c, 1, 93, 0
3, 28485, Note_on_c, 1, 95, 90
3, 28498, Note_on_c, 1, 95, 0
3, 28500, Note_on_c, 1, 93, 90
3, 28513, Note_on_c, 1, 93, 0
3, 28515, Note_on_c, 1, 95, 90
3, 28528, Note_on_c, 1, 95, 0
3, 28530, Note_on_c, 1, 93, 90
3, 28543, Note_on_c, 1, 93, 0
3, 28545, Note_on_c, 1, 95, 90
3, 28558, Note_on_c, 1, 95, 0
3, 28560, Note_on_c, 1, 93, 90
3, 28732, Note_on_c, 1, 93, 0
3, 28740, Note_on_c, 1, 91, 90
3, 28912, Note_on_c, 1, 91, 0
3, 28912, End_track
4, 0, Start_track
4, 0, MIDI_port, 0
4, 0, Title_t, "Trombone"
4, 0, Program_c, 2, 57
4, 0, Control_c, 2, 7, 110
4, 0, Control_c, 2, 10, 126
4, 6600, Note_on_c, 2, 55, 90
4, 6765, Note_on_c, 2, 55, 0
4, 6780, Note_on_c, 2, 55, 90
4, 6945, Note_on_c, 2, 55, 0
4, 6960, Note_on_c, 2, 59, 90
4, 7065, Note_on_c, 2, 59, 0
4, 7080, Note_on_c, 2, 60, 90
4, 7106, Note_on_c, 2, 60, 0
4, 7110, Note_on_c, 2, 62, 90
4, 7136, Note_on_c, 2, 62, 0
4, 7140, Note_on_c, 2, 59, 90
4, 7305, Note_on_c, 2, 59, 0
4, 7440, Note_on_c, 2, 57, 90
4, 7492, Note_on_c, 2, 57, 0
4, 7500, Note_on_c, 2, 55, 90
4, 7605, Note_on_c, 2, 55, 0
4, 7620, Note_on_c, 2, 54, 90
4, 7646, Note_on_c, 2, 54, 0
4, 7650, Note_on_c, 2, 55, 90
4, 7676, Note_on_c, 2, 55, 0
4, 7680, Note_on_c, 2, 54, 90
4, 7693, Note_on_c, 2, 54, 0
4, 7695, Note_on_c, 2, 55, 90
4, 7708, Note_on_c, 2, 55, 0
4, 7710, Note_on_c, 2, 54, 90
4, 7723, Note_on_c, 2, 54, 0
4, 7725, Note_on_c, 2, 55, 90
4, 7738, Note_on_c, 2, 55, 0
4, 7740, Note_on_c, 2, 54, 90
4, 7753, Note_on_c, 2, 54, 0
4, 7755, Note_on_c, 2, 55, 90
4, 7768, Note_on_c, 2, 55, 0
4, 7770, Note_on_c, 2, 54, 90
4, 7783, Note_on_c, 2, 54, 0
4, 7785, Note_on_c, 2, 55, 90
4, 7798, Note_on_c, 2, 55, 0
4, 7800, Note_on_c, 2, 54, 90
4, 7813, Note_on_c, 2, 54, 0
4, 7815, Note_on_c, 2, 55, 90
4, 7828, Note_on_c, 2, 55, 0
4, 7830, Note_on_c, 2, 54, 90
4, 7843, Note_on_c, 2, 54, 0
4, 7845, Note_on_c, 2, 55, 90
4, 7860, Note_on_c, 2, 55, 0
4, 7860, Note_on_c, 2, 54, 90
4, 7873, Note_on_c, 2, 54, 0
4, 7875, Note_on_c, 2, 55, 90
4, 7888, Note_on_c, 2, 55, 0
4, 7890, Note_on_c, 2, 54, 90
4, 7903, Note_on_c, 2, 54, 0
4, 7905, Note_on_c, 2, 55, 90
4, 7918, Note_on_c, 2, 55, 0
4, 7920, Note_on_c, 2, 54, 90
4, 7972, Note_on_c, 2, 54, 0
4, 7980, Note_on_c, 2, 52, 90
4, 8032, Note_on_c, 2, 52, 0
4, 8040, Note_on_c, 2, 50, 90
4, 8145, Note_on_c, 2, 50, 0
4, 8220, Note_on_c, 2, 52, 90
4, 8325, Note_on_c, 2, 52, 0
4, 8340, Note_on_c, 2, 54, 90
4, 8392, Note_on_c, 2, 54, 0
4, 8400, Note_on_c, 2, 55, 90
4, 8505, Note_on_c, 2, 55, 0
4, 8520, Note_on_c, 2, 54, 90
4, 8572, Note_on_c, 2, 54, 0
4, 8580, Note_on_c, 2, 55, 90
4, 8685, Note_on_c, 2, 55, 0
4, 8700, Note_on_c, 2, 57, 90
4, 8752, Note_on_c, 2, 57, 0
4, 8760, Note_on_c, 2, 54, 90
4, 8773, Note_on_c, 2, 54, 0
4, 8775, Note_on_c, 2, 55, 90
4, 8788, Note_on_c, 2, 55, 0
4, 8790, Note_on_c, 2, 54, 90
4, 8803, Note_on_c, 2, 54, 0
4, 8805, Note_on_c, 2, 55, 90
4, 8818, Note_on_c, 2, 55, 0
4, 8820, Note_on_c, 2, 54, 90
4, 8833, Note_on_c, 2, 54, 0
4, 8835, Note_on_c, 2, 55, 90
4, 8848, Note_on_c, 2, 55, 0
4, 8850, Note_on_c, 2, 54, 90
4, 8863, Note_on_c, 2, 54, 0
4, 8865, Note_on_c, 2, 55, 90
4, 8878, Note_on_c, 2, 55, 0
4, 8880, Note_on_c, 2, 54, 90
4, 8893, Note_on_c, 2, 54, 0
4, 8895, Note_on_c, 2, 55, 90
4, 8908, Note_on_c, 2, 55, 0
4, 8910, Note_on_c, 2, 54, 90
4, 8923, Note_on_c, 2, 54, 0
4, 8925, Note_on_c, 2, 55, 90
4, 8938, Note_on_c, 2, 55, 0
4, 8940, Note_on_c, 2, 54, 90
4, 8953, Note_on_c, 2, 54, 0
4, 8955, Note_on_c, 2, 55, 90
4, 8968, Note_on_c, 2, 55, 0
4, 8970, Note_on_c, 2, 54, 90
4, 8983, Note_on_c, 2, 54, 0
4, 8985, Note_on_c, 2, 55, 90
4, 8998, Note_on_c, 2, 55, 0
4, 9000, Note_on_c, 2, 54, 90
4, 9013, Note_on_c, 2, 54, 0
4, 9015, Note_on_c, 2, 55, 90
4, 9028, Note_on_c, 2, 55, 0
4, 9030, Note_on_c, 2, 54, 90
4, 9043, Note_on_c, 2, 54, 0
4, 9045, Note_on_c, 2, 55, 90
4, 9058, Note_on_c, 2, 55, 0
4, 9060, Note_on_c, 2, 54, 90
4, 9073, Note_on_c, 2, 54, 0
4, 9075, Note_on_c, 2, 55, 90
4, 9088, Note_on_c, 2, 55, 0
4, 9090, Note_on_c, 2, 54, 90
4, 9103, Note_on_c, 2, 54, 0
4, 9105, Note_on_c, 2, 55, 90
4, 9118, Note_on_c, 2, 55, 0
4, 9120, Note_on_c, 2, 54, 90
4, 9292, Note_on_c, 2, 54, 0
4, 9300, Note_on_c, 2, 55, 90
4, 9465, Note_on_c, 2, 55, 0
4, 12000, Note_on_c, 2, 55, 90
4, 12165, Note_on_c, 2, 55, 0
4, 12180, Note_on_c, 2, 55, 90
4, 12345, Note_on_c, 2, 55, 0
4, 12360, Note_on_c, 2, 59, 90
4, 12465, Note_on_c, 2, 59, 0
4, 12480, Note_on_c, 2, 60, 90
4, 12506, Note_on_c, 2, 60, 0
4, 12510, Note_on_c, 2, 62, 90
4, 12536, Note_on_c, 2, 62, 0
4, 12540, Note_on_c, 2, 59, 90
4, 12705, Note_on_c, 2, 59, 0
4, 12840, Note_on_c, 2, 57, 90
4, 12892, Note_on_c, 2, 57, 0
4, 12900, Note_on_c, 2, 55, 90
4, 13072, Note_on_c, 2, 55, 0
4, 13080, Note_on_c, 2, 54, 90
4, 13245, Note_on_c, 2, 54, 0
4, 13380, Note_on_c, 2, 52, 90
4, 13432, Note_on_c, 2, 52, 0
4, 13440, Note_on_c, 2, 50, 90
4, 13612, Note_on_c, 2, 50, 0
4, 13620, Note_on_c, 2, 52, 90
4, 13725, Note_on_c, 2, 52, 0
4, 13740, Note_on_c, 2, 54, 90
4, 13792, Note_on_c, 2, 54, 0
4, 13800, Note_on_c, 2, 55, 90
4, 13905, Note_on_c, 2, 55, 0
4, 13920, Note_on_c, 2, 54, 90
4, 13972, Note_on_c, 2, 54, 0
4, 13980, Note_on_c, 2, 55, 90
4, 14085, Note_on_c, 2, 55, 0
4, 14100, Note_on_c, 2, 57, 90
4, 14152, Note_on_c, 2, 57, 0
4, 14160, Note_on_c, 2, 54, 90
4, 14173, Note_on_c, 2, 54, 0
4, 14175, Note_on_c, 2, 55, 90
4, 14188, Note_on_c, 2, 55, 0
4, 14190, Note_on_c, 2, 54, 90
4, 14203, Note_on_c, 2, 54, 0
4, 14205, Note_on_c, 2, 55, 90
4, 14218, Note_on_c, 2, 55, 0
4, 14220, Note_on_c, 2, 54, 90
4, 14233, Note_on_c, 2, 54, 0
4, 14235, Note_on_c, 2, 55, 90
4, 14248, Note_on_c, 2, 55, 0
4, 14250, Note_on_c, 2, 54, 90
4, 14263, Note_on_c, 2, 54, 0
4, 14265, Note_on_c, 2, 55, 90
4, 14278, Note_on_c, 2, 55, 0
4, 14280, Note_on_c, 2, 54, 90
4, 14293, Note_on_c, 2, 54, 0
4, 14295, Note_on_c, 2, 55, 90
4, 14308, Note_on_c, 2, 55, 0
4, 14310, Note_on_c, 2, 54, 90
4, 14323, Note_on_c, 2, 54, 0
4, 14325, Note_on_c, 2, 55, 90
4, 14338, Note_on_c, 2, 55, 0
4, 14340, Note_on_c, 2, 54, 90
4, 14353, Note_on_c, 2, 54, 0
4, 14355, Note_on_c, 2, 55, 90
4, 14368, Note_on_c, 2, 55, 0
4, 14370, Note_on_c, 2, 54, 90
4, 14383, Note_on_c, 2, 54, 0
4, 14385, Note_on_c, 2, 55, 90
4, 14398, Note_on_c, 2, 55, 0
4, 14400, Note_on_c, 2, 54, 90
4, 14413, Note_on_c, 2, 54, 0
4, 14415, Note_on_c, 2, 55, 90
4, 14428, Note_on_c, 2, 55, 0
4, 14430, Note_on_c, 2, 54, 90
4, 14443, Note_on_c, 2, 54, 0
4, 14445, Note_on_c, 2, 55, 90
4, 14458, Note_on_c, 2, 55, 0
4, 14460, Note_on_c, 2, 54, 90
4, 14473, Note_on_c, 2, 54, 0
4, 14475, Note_on_c, 2, 55, 90
4, 14488, Note_on_c, 2, 55, 0
4, 14490, Note_on_c, 2, 54, 90
4, 14503, Note_on_c, 2, 54, 0
4, 14505, Note_on_c, 2, 55, 90
4, 14518, Note_on_c, 2, 55, 0
4, 14520, Note_on_c, 2, 54, 90
4, 14692, Note_on_c, 2, 54, 0
4, 14700, Note_on_c, 2, 55, 90
4, 14865, Note_on_c, 2, 55, 0
4, 20100, Note_on_c, 2, 59, 90
4, 20272, Note_on_c, 2, 59, 0
4, 20280, Note_on_c, 2, 60, 90
4, 20385, Note_on_c, 2, 60, 0
4, 20400, Note_on_c, 2, 59, 90
4, 20452, Note_on_c, 2, 59, 0
4, 20460, Note_on_c, 2, 57, 90
4, 20565, Note_on_c, 2, 57, 0
4, 20580, Note_on_c, 2, 59, 90
4, 20632, Note_on_c, 2, 59, 0
4, 20640, Note_on_c, 2, 60, 90
4, 21712, Note_on_c, 2, 60, 0
4, 21720, Note_on_c, 2, 59, 90
4, 22005, Note_on_c, 2, 59, 0
4, 22020, Note_on_c, 2, 60, 90
4, 22072, Note_on_c, 2, 60, 0
4, 22080, Note_on_c, 2, 62, 90
4, 22252, Note_on_c, 2, 62, 0
4, 22260, Note_on_c, 2, 62, 90
4, 22432, Note_on_c, 2, 62, 0
4, 22440, Note_on_c, 2, 55, 90
4, 22545, Note_on_c, 2, 55, 0
4, 22560, Note_on_c, 2, 54, 90
4, 22612, Note_on_c, 2, 54, 0
4, 22620, Note_on_c, 2, 55, 90
4, 22725, Note_on_c, 2, 55, 0
4, 22740, Note_on_c, 2, 60, 90
4, 22792, Note_on_c, 2, 60, 0
4, 22800, Note_on_c, 2, 57, 90
4, 22972, Note_on_c, 2, 57, 0
4, 27120, Note_on_c, 2, 62, 90
4, 27292, Note_on_c, 2, 62, 0
4, 27300, Note_on_c, 2, 64, 90
4, 27472, Note_on_c, 2, 64, 0
4, 27480, Note_on_c, 2, 66, 90
4, 27652, Note_on_c, 2, 66, 0
4, 27660, Note_on_c, 2, 67, 90
4, 27832, Note_on_c, 2, 67, 0
4, 27840, Note_on_c, 2, 69, 90
4, 28012, Note_on_c, 2, 69, 0
4, 28020, Note_on_c, 2, 71, 90
4, 28072, Note_on_c, 2, 71, 0
4, 28080, Note_on_c, 2, 72, 90
4, 28132, Note_on_c, 2, 72, 0
4, 28140, Note_on_c, 2, 74, 90
4, 28192, Note_on_c, 2, 74, 0
4, 28200, Note_on_c, 2, 69, 90
4, 28213, Note_on_c, 2, 69, 0
4, 28215, Note_on_c, 2, 71, 90
4, 28228, Note_on_c, 2, 71, 0
4, 28230, Note_on_c, 2, 69, 90
4, 28243, Note_on_c, 2, 69, 0
4, 28245, Note_on_c, 2, 71, 90
4, 28258, Note_on_c, 2, 71, 0
4, 28260, Note_on_c, 2, 69, 90
4, 28273, Note_on_c, 2, 69, 0
4, 28275, Note_on_c, 2, 71, 90
4, 28288, Note_on_c, 2, 71, 0
4, 28290, Note_on_c, 2, 69, 90
4, 28303, Note_on_c, 2, 69, 0
4, 28305, Note_on_c, 2, 71, 90
4, 28318, Note_on_c, 2, 71, 0
4, 28320, Note_on_c, 2, 69, 90
4, 28333, Note_on_c, 2, 69, 0
4, 28335, Note_on_c, 2, 71, 90
4, 28348, Note_on_c, 2, 71, 0
4, 28350, Note_on_c, 2, 69, 90
4, 28363, Note_on_c, 2, 69, 0
4, 28365, Note_on_c, 2, 71, 90
4, 28378, Note_on_c, 2, 71, 0
4, 28380, Note_on_c, 2, 69, 90
4, 28393, Note_on_c, 2, 69, 0
4, 28395, Note_on_c, 2, 71, 90
4, 28408, Note_on_c, 2, 71, 0
4, 28410, Note_on_c, 2, 69, 90
4, 28423, Note_on_c, 2, 69, 0
4, 28425, Note_on_c, 2, 71, 90
4, 28438, Note_on_c, 2, 71, 0
4, 28440, Note_on_c, 2, 69, 90
4, 28453, Note_on_c, 2, 69, 0
4, 28455, Note_on_c, 2, 71, 90
4, 28468, Note_on_c, 2, 71, 0
4, 28470, Note_on_c, 2, 69, 90
4, 28483, Note_on_c, 2, 69, 0
4, 28485, Note_on_c, 2, 71, 90
4, 28498, Note_on_c, 2, 71, 0
4, 28500, Note_on_c, 2, 69, 90
4, 28513, Note_on_c, 2, 69, 0
4, 28515, Note_on_c, 2, 71, 90
4, 28528, Note_on_c, 2, 71, 0
4, 28530, Note_on_c, 2, 69, 90
4, 28543, Note_on_c, 2, 69, 0
4, 28545, Note_on_c, 2, 71, 90
4, 28558, Note_on_c, 2, 71, 0
4, 28560, Note_on_c, 2, 69, 90
4, 28732, Note_on_c, 2, 69, 0
4, 28740, Note_on_c, 2, 67, 90
4, 28912, Note_on_c, 2, 67, 0
4, 28912, End_track
5, 0, Start_track
5, 0, MIDI_port, 0
5, 0, Title_t, "Cello"
5, 0, Program_c, 3, 74
5, 0, Control_c, 3, 7, 121
5, 0, Control_c, 3, 10, 64
5, 120, Note_on_c, 3, 67, 90
5, 146, Note_on_c, 3, 67, 0
5, 150, Note_on_c, 3, 71, 90
5, 176, Note_on_c, 3, 71, 0
5, 180, Note_on_c, 3, 74, 90
5, 206, Note_on_c, 3, 74, 0
5, 210, Note_on_c, 3, 71, 90
5, 236, Note_on_c, 3, 71, 0
5, 240, Note_on_c, 3, 67, 90
5, 266, Note_on_c, 3, 67, 0
5, 270, Note_on_c, 3, 66, 90
5, 296, Note_on_c, 3, 66, 0
5, 300, Note_on_c, 3, 67, 90
5, 326, Note_on_c, 3, 67, 0
5, 330, Note_on_c, 3, 71, 90
5, 356, Note_on_c, 3, 71, 0
5, 360, Note_on_c, 3, 74, 90
5, 386, Note_on_c, 3, 74, 0
5, 390, Note_on_c, 3, 71, 90
5, 416, Note_on_c, 3, 71, 0
5, 420, Note_on_c, 3, 67, 90
5, 446, Note_on_c, 3, 67, 0
5, 450, Note_on_c, 3, 66, 90
5, 476, Note_on_c, 3, 66, 0
5, 480, Note_on_c, 3, 67, 90
5, 532, Note_on_c, 3, 67, 0
5, 540, Note_on_c, 3, 76, 90
5, 592, Note_on_c, 3, 76, 0
5, 600, Note_on_c, 3, 74, 90
5, 652, Note_on_c, 3, 74, 0
5, 660, Note_on_c, 3, 74, 90
5, 866, Note_on_c, 3, 74, 0
5, 870, Note_on_c, 3, 79, 90
5, 896, Note_on_c, 3, 79, 0
5, 900, Note_on_c, 3, 83, 90
5, 926, Note_on_c, 3, 83, 0
5, 930, Note_on_c, 3, 79, 90
5, 956, Note_on_c, 3, 79, 0
5, 960, Note_on_c, 3, 76, 90
5, 986, Note_on_c, 3, 76, 0
5, 990, Note_on_c, 3, 74, 90
5, 1016, Note_on_c, 3, 74, 0
5, 1020, Note_on_c, 3, 72, 90
5, 1046, Note_on_c, 3, 72, 0
5, 1050, Note_on_c, 3, 78, 90
5, 1076, Note_on_c, 3, 78, 0
5, 1080, Note_on_c, 3, 81, 90
5, 1106, Note_on_c, 3, 81, 0
5, 1110, Note_on_c, 3, 78, 90
5, 1136, Note_on_c, 3, 78, 0
5, 1140, Note_on_c, 3, 74, 90
5, 1166, Note_on_c, 3, 74, 0
5, 1170, Note_on_c, 3, 72, 90
5, 1196, Note_on_c, 3, 72, 0
5, 1200, Note_on_c, 3, 71, 90
5, 1226, Note_on_c, 3, 71, 0
5, 1230, Note_on_c, 3, 74, 90
5, 1256, Note_on_c, 3, 74, 0
5, 1260, Note_on_c, 3, 79, 90
5, 1286, Note_on_c, 3, 79, 0
5, 1290, Note_on_c, 3, 74, 90
5, 1316, Note_on_c, 3, 74, 0
5, 1320, Note_on_c, 3, 71, 90
5, 1346, Note_on_c, 3, 71, 0
5, 1350, Note_on_c, 3, 69, 90
5, 1376, Note_on_c, 3, 69, 0
5, 1380, Note_on_c, 3, 67, 90
5, 1406, Note_on_c, 3, 67, 0
5, 1410, Note_on_c, 3, 71, 90
5, 1436, Note_on_c, 3, 71, 0
5, 1440, Note_on_c, 3, 74, 90
5, 1466, Note_on_c, 3, 74, 0
5, 1470, Note_on_c, 3, 71, 90
5, 1496, Note_on_c, 3, 71, 0
5, 1500, Note_on_c, 3, 67, 90
5, 1526, Note_on_c, 3, 67, 0
5, 1530, Note_on_c, 3, 66, 90
5, 1556, Note_on_c, 3, 66, 0
5, 1560, Note_on_c, 3, 64, 90
5, 1612, Note_on_c, 3, 64, 0
5, 1620, Note_on_c, 3, 72, 90
5, 1672, Note_on_c, 3, 72, 0
5, 1680, Note_on_c, 3, 69, 90
5, 1732, Note_on_c, 3, 69, 0
5, 1740, Note_on_c, 3, 66, 90
5, 1753, Note_on_c, 3, 66, 0
5, 1755, Note_on_c, 3, 67, 90
5, 1768, Note_on_c, 3, 67, 0
5, 1770, Note_on_c, 3, 66, 90
5, 1852, Note_on_c, 3, 66, 0
5, 1860, Note_on_c, 3, 64, 90
5, 1912, Note_on_c, 3, 64, 0
5, 1920, Note_on_c, 3, 62, 90
5, 2085, Note_on_c, 3, 62, 0
5, 2100, Note_on_c, 3, 74, 90
5, 2306, Note_on_c, 3, 74, 0
5, 2310, Note_on_c, 3, 64, 90
5, 2336, Note_on_c, 3, 64, 0
5, 2340, Note_on_c, 3, 68, 90
5, 2366, Note_on_c, 3, 68, 0
5, 2370, Note_on_c, 3, 71, 90
5, 2396, Note_on_c, 3, 71, 0
5, 2400, Note_on_c, 3, 74, 90
5, 2426, Note_on_c, 3, 74, 0
5, 2430, Note_on_c, 3, 72, 90
5, 2456, Note_on_c, 3, 72, 0
5, 2460, Note_on_c, 3, 74, 90
5, 2486, Note_on_c, 3, 74, 0
5, 2490, Note_on_c, 3, 80, 90
5, 2516, Note_on_c, 3, 80, 0
5, 2520, Note_on_c, 3, 83, 90
5, 2546, Note_on_c, 3, 83, 0
5, 2550, Note_on_c, 3, 80, 90
5, 2576, Note_on_c, 3, 80, 0
5, 2580, Note_on_c, 3, 76, 90
5, 2606, Note_on_c, 3, 76, 0
5, 2610, Note_on_c, 3, 74, 90
5, 2636, Note_on_c, 3, 74, 0
5, 2640, Note_on_c, 3, 72, 90
5, 2653, Note_on_c, 3, 72, 0
5, 2655, Note_on_c, 3, 74, 90
5, 2668, Note_on_c, 3, 74, 0
5, 2670, Note_on_c, 3, 72, 90
5, 2748, Note_on_c, 3, 72, 0
5, 2760, Note_on_c, 3, 71, 90
5, 2812, Note_on_c, 3, 71, 0
5, 2820, Note_on_c, 3, 72, 90
5, 3026, Note_on_c, 3, 72, 0
5, 3030, Note_on_c, 3, 69, 90
5, 3056, Note_on_c, 3, 69, 0
5, 3060, Note_on_c, 3, 68, 90
5, 3086, Note_on_c, 3, 68, 0
5, 3090, Note_on_c, 3, 69, 90
5, 3116, Note_on_c, 3, 69, 0
5, 3120, Note_on_c, 3, 64, 90
5, 3146, Note_on_c, 3, 64, 0
5, 3150, Note_on_c, 3, 69, 90
5, 3176, Note_on_c, 3, 69, 0
5, 3180, Note_on_c, 3, 60, 90
5, 3206, Note_on_c, 3, 60, 0
5, 3210, Note_on_c, 3, 64, 90
5, 3236, Note_on_c, 3, 64, 0
5, 3240, Note_on_c, 3, 57, 90
5, 3266, Note_on_c, 3, 57, 0
5, 3270, Note_on_c, 3, 60, 90
5, 3296, Note_on_c, 3, 60, 0
5, 3300, Note_on_c, 3, 64, 90
5, 3326, Note_on_c, 3, 64, 0
5, 3330, Note_on_c, 3, 69, 90
5, 3356, Note_on_c, 3, 69, 0
5, 3360, Note_on_c, 3, 72, 90
5, 3386, Note_on_c, 3, 72, 0
5, 3390, Note_on_c, 3, 62, 90
5, 3416, Note_on_c, 3, 62, 0
5, 3420, Note_on_c, 3, 66, 90
5, 3446, Note_on_c, 3, 66, 0
5, 3450, Note_on_c, 3, 69, 90
5, 3476, Note_on_c, 3, 69, 0
5, 3480, Note_on_c, 3, 72, 90
5, 3506, Note_on_c, 3, 72, 0
5, 3510, Note_on_c, 3, 71, 90
5, 3536, Note_on_c, 3, 71, 0
5, 3540, Note_on_c, 3, 72, 90
5, 3566, Note_on_c, 3, 72, 0
5, 3570, Note_on_c, 3, 78, 90
5, 3596, Note_on_c, 3, 78, 0
5, 3600, Note_on_c, 3, 81, 90
5, 3626, Note_on_c, 3, 81, 0
5, 3630, Note_on_c, 3, 78, 90
5, 3656, Note_on_c, 3, 78, 0
5, 3660, Note_on_c, 3, 74, 90
5, 3686, Note_on_c, 3, 74, 0
5, 3690, Note_on_c, 3, 72, 90
5, 3716, Note_on_c, 3, 72, 0
5, 3720, Note_on_c, 3, 71, 90
5, 3825, Note_on_c, 3, 71, 0
5, 3840, Note_on_c, 3, 69, 90
5, 3892, Note_on_c, 3, 69, 0
5, 3900, Note_on_c, 3, 71, 90
5, 4106, Note_on_c, 3, 71, 0
5, 4110, Note_on_c, 3, 67, 90
5, 4136, Note_on_c, 3, 67, 0
5, 4140, Note_on_c, 3, 66, 90
5, 4166, Note_on_c, 3, 66, 0
5, 4170, Note_on_c, 3, 67, 90
5, 4196, Note_on_c, 3, 67, 0
5, 4200, Note_on_c, 3, 62, 90
5, 4226, Note_on_c, 3, 62, 0
5, 4230, Note_on_c, 3, 67, 90
5, 4256, Note_on_c, 3, 67, 0
5, 4260, Note_on_c, 3, 59, 90
5, 4286, Note_on_c, 3, 59, 0
5, 4290, Note_on_c, 3, 62, 90
5, 4316, Note_on_c, 3, 62, 0
5, 4320, Note_on_c, 3, 55, 90
5, 4346, Note_on_c, 3, 55, 0
5, 4350, Note_on_c, 3, 59, 90
5, 4376, Note_on_c, 3, 59, 0
5, 4380, Note_on_c, 3, 62, 90
5, 4406, Note_on_c, 3, 62, 0
5, 4410, Note_on_c, 3, 65, 90
5, 4436, Note_on_c, 3, 65, 0
5, 4440, Note_on_c, 3, 64, 90
5, 4646, Note_on_c, 3, 64, 0
5, 4650, Note_on_c, 3, 72, 90
5, 4676, Note_on_c, 3, 72, 0
5, 4680, Note_on_c, 3, 71, 90
5, 4706, Note_on_c, 3, 71, 0
5, 4710, Note_on_c, 3, 72, 90
5, 4736, Note_on_c, 3, 72, 0
5, 4740, Note_on_c, 3, 81, 90
5, 4766, Note_on_c, 3, 81, 0
5, 4770, Note_on_c, 3, 72, 90
5, 4796, Note_on_c, 3, 72, 0
5, 4800, Note_on_c, 3, 64, 90
5, 4826, Note_on_c, 3, 64, 0
5, 4830, Note_on_c, 3, 72, 90
5, 4856, Note_on_c, 3, 72, 0
5, 4860, Note_on_c, 3, 71, 90
5, 4886, Note_on_c, 3, 71, 0
5, 4890, Note_on_c, 3, 72, 90
5, 4916, Note_on_c, 3, 72, 0
5, 4920, Note_on_c, 3, 79, 90
5, 4946, Note_on_c, 3, 79, 0
5, 4950, Note_on_c, 3, 72, 90
5, 4976, Note_on_c, 3, 72, 0
5, 4980, Note_on_c, 3, 62, 90
5, 5006, Note_on_c, 3, 62, 0
5, 5010, Note_on_c, 3, 72, 90
5, 5036, Note_on_c, 3, 72, 0
5, 5040, Note_on_c, 3, 71, 90
5, 5066, Note_on_c, 3, 71, 0
5, 5070, Note_on_c, 3, 72, 90
5, 5096, Note_on_c, 3, 72, 0
5, 5100, Note_on_c, 3, 78, 90
5, 5126, Note_on_c, 3, 78, 0
5, 5130, Note_on_c, 3, 72, 90
5, 5156, Note_on_c, 3, 72, 0
5, 5160, Note_on_c, 3, 62, 90
5, 5186, Note_on_c, 3, 62, 0
5, 5190, Note_on_c, 3, 72, 90
5, 5216, Note_on_c, 3, 72, 0
5, 5220, Note_on_c, 3, 71, 90
5, 5246, Note_on_c, 3, 71, 0
5, 5250, Note_on_c, 3, 72, 90
5, 5276, Note_on_c, 3, 72, 0
5, 5280, Note_on_c, 3, 81, 90
5, 5306, Note_on_c, 3, 81, 0
5, 5310, Note_on_c, 3, 72, 90
5, 5336, Note_on_c, 3, 72, 0
5, 5340, Note_on_c, 3, 62, 90
5, 5366, Note_on_c, 3, 62, 0
5, 5370, Note_on_c, 3, 72, 90
5, 5396, Note_on_c, 3, 72, 0
5, 5400, Note_on_c, 3, 71, 90
5, 5426, Note_on_c, 3, 71, 0
5, 5430, Note_on_c, 3, 72, 90
5, 5456, Note_on_c, 3, 72, 0
5, 5460, Note_on_c, 3, 78, 90
5, 5486, Note_on_c, 3, 78, 0
5, 5490, Note_on_c, 3, 72, 90
5, 5516, Note_on_c, 3, 72, 0
5, 5520, Note_on_c, 3, 62, 90
5, 5546, Note_on_c, 3, 62, 0
5, 5550, Note_on_c, 3, 71, 90
5, 5576, Note_on_c, 3, 71, 0
5, 5580, Note_on_c, 3, 69, 90
5, 5606, Note_on_c, 3, 69, 0
5, 5610, Note_on_c, 3, 71, 90
5, 5636, Note_on_c, 3, 71, 0
5, 5640, Note_on_c, 3, 79, 90
5, 5666, Note_on_c, 3, 79, 0
5, 5670, Note_on_c, 3, 71, 90
5, 5696, Note_on_c, 3, 71, 0
5, 5700, Note_on_c, 3, 62, 90
5, 5726, Note_on_c, 3, 62, 0
5, 5730, Note_on_c, 3, 71, 90
5, 5756, Note_on_c, 3, 71, 0
5, 5760, Note_on_c, 3, 69, 90
5, 5786, Note_on_c, 3, 69, 0
5, 5790, Note_on_c, 3, 71, 90
5, 5816, Note_on_c, 3, 71, 0
5, 5820, Note_on_c, 3, 74, 90
5, 5846, Note_on_c, 3, 74, 0
5, 5850, Note_on_c, 3, 71, 90
5, 5876, Note_on_c, 3, 71, 0
5, 5880, Note_on_c, 3, 62, 90
5, 5906, Note_on_c, 3, 62, 0
5, 5910, Note_on_c, 3, 71, 90
5, 5936, Note_on_c, 3, 71, 0
5, 5940, Note_on_c, 3, 69, 90
5, 5966, Note_on_c, 3, 69, 0
5, 5970, Note_on_c, 3, 71, 90
5, 5996, Note_on_c, 3, 71, 0
5, 6000, Note_on_c, 3, 79, 90
5, 6026, Note_on_c, 3, 79, 0
5, 6030, Note_on_c, 3, 71, 90
5, 6056, Note_on_c, 3, 71, 0
5, 6060, Note_on_c, 3, 73, 90
5, 6086, Note_on_c, 3, 73, 0
5, 6090, Note_on_c, 3, 82, 90
5, 6116, Note_on_c, 3, 82, 0
5, 6120, Note_on_c, 3, 81, 90
5, 6146, Note_on_c, 3, 81, 0
5, 6150, Note_on_c, 3, 79, 90
5, 6176, Note_on_c, 3, 79, 0
5, 6180, Note_on_c, 3, 78, 90
5, 6206, Note_on_c, 3, 78, 0
5, 6210, Note_on_c, 3, 79, 90
5, 6236, Note_on_c, 3, 79, 0
5, 6240, Note_on_c, 3, 72, 90
5, 6266, Note_on_c, 3, 72, 0
5, 6270, Note_on_c, 3, 83, 90
5, 6296, Note_on_c, 3, 83, 0
5, 6300, Note_on_c, 3, 81, 90
5, 6326, Note_on_c, 3, 81, 0
5, 6330, Note_on_c, 3, 79, 90
5, 6356, Note_on_c, 3, 79, 0
5, 6360, Note_on_c, 3, 78, 90
5, 6386, Note_on_c, 3, 78, 0
5, 6390, Note_on_c, 3, 79, 90
5, 6416, Note_on_c, 3, 79, 0
5, 6420, Note_on_c, 3, 71, 90
5, 6472, Note_on_c, 3, 71, 0
5, 6480, Note_on_c, 3, 72, 90
5, 6532, Note_on_c, 3, 72, 0
5, 6540, Note_on_c, 3, 69, 90
5, 6592, Note_on_c, 3, 69, 0
5, 6600, Note_on_c, 3, 67, 90
5, 6765, Note_on_c, 3, 67, 0
5, 7140, Note_on_c, 3, 67, 90
5, 7166, Note_on_c, 3, 67, 0
5, 7170, Note_on_c, 3, 71, 90
5, 7196, Note_on_c, 3, 71, 0
5, 7200, Note_on_c, 3, 74, 90
5, 7226, Note_on_c, 3, 74, 0
5, 7230, Note_on_c, 3, 71, 90
5, 7256, Note_on_c, 3, 71, 0
5, 7260, Note_on_c, 3, 67, 90
5, 7286, Note_on_c, 3, 67, 0
5, 7290, Note_on_c, 3, 66, 90
5, 7316, Note_on_c, 3, 66, 0
5, 7320, Note_on_c, 3, 67, 90
5, 7346, Note_on_c, 3, 67, 0
5, 7350, Note_on_c, 3, 71, 90
5, 7376, Note_on_c, 3, 71, 0
5, 7380, Note_on_c, 3, 74, 90
5, 7406, Note_on_c, 3, 74, 0
5, 7410, Note_on_c, 3, 71, 90
5, 7436, Note_on_c, 3, 71, 0
5, 7440, Note_on_c, 3, 67, 90
5, 7466, Note_on_c, 3, 67, 0
5, 7470, Note_on_c, 3, 66, 90
5, 7496, Note_on_c, 3, 66, 0
5, 7500, Note_on_c, 3, 67, 90
5, 7552, Note_on_c, 3, 67, 0
5, 7560, Note_on_c, 3, 76, 90
5, 7612, Note_on_c, 3, 76, 0
5, 7620, Note_on_c, 3, 74, 90
5, 7672, Note_on_c, 3, 74, 0
5, 7680, Note_on_c, 3, 74, 90
5, 7886, Note_on_c, 3, 74, 0
5, 7890, Note_on_c, 3, 78, 90
5, 7916, Note_on_c, 3, 78, 0
5, 7920, Note_on_c, 3, 81, 90
5, 7946, Note_on_c, 3, 81, 0
5, 7950, Note_on_c, 3, 78, 90
5, 7976, Note_on_c, 3, 78, 0
5, 7980, Note_on_c, 3, 72, 90
5, 8006, Note_on_c, 3, 72, 0
5, 8010, Note_on_c, 3, 71, 90
5, 8036, Note_on_c, 3, 71, 0
5, 8040, Note_on_c, 3, 72, 90
5, 8066, Note_on_c, 3, 72, 0
5, 8070, Note_on_c, 3, 78, 90
5, 8096, Note_on_c, 3, 78, 0
5, 8100, Note_on_c, 3, 81, 90
5, 8126, Note_on_c, 3, 81, 0
5, 8130, Note_on_c, 3, 78, 90
5, 8156, Note_on_c, 3, 78, 0
5, 8160, Note_on_c, 3, 71, 90
5, 8186, Note_on_c, 3, 71, 0
5, 8190, Note_on_c, 3, 69, 90
5, 8216, Note_on_c, 3, 69, 0
5, 8220, Note_on_c, 3, 67, 90
5, 8272, Note_on_c, 3, 67, 0
5, 8790, Note_on_c, 3, 62, 90
5, 8816, Note_on_c, 3, 62, 0
5, 8820, Note_on_c, 3, 66, 90
5, 8846, Note_on_c, 3, 66, 0
5, 8850, Note_on_c, 3, 69, 90
5, 8876, Note_on_c, 3, 69, 0
5, 8880, Note_on_c, 3, 72, 90
5, 8906, Note_on_c, 3, 72, 0
5, 8910, Note_on_c, 3, 71, 90
5, 8936, Note_on_c, 3, 71, 0
5, 8940, Note_on_c, 3, 72, 90
5, 8966, Note_on_c, 3, 72, 0
5, 8970, Note_on_c, 3, 78, 90
5, 8996, Note_on_c, 3, 78, 0
5, 9000, Note_on_c, 3, 81, 90
5, 9026, Note_on_c, 3, 81, 0
5, 9030, Note_on_c, 3, 78, 90
5, 9056, Note_on_c, 3, 78, 0
5, 9060, Note_on_c, 3, 74, 90
5, 9086, Note_on_c, 3, 74, 0
5, 9090, Note_on_c, 3, 72, 90
5, 9116, Note_on_c, 3, 72, 0
5, 9120, Note_on_c, 3, 71, 90
5, 9225, Note_on_c, 3, 71, 0
5, 9240, Note_on_c, 3, 69, 90
5, 9292, Note_on_c, 3, 69, 0
5, 9300, Note_on_c, 3, 71, 90
5, 9506, Note_on_c, 3, 71, 0
5, 9510, Note_on_c, 3, 67, 90
5, 9536, Note_on_c, 3, 67, 0
5, 9540, Note_on_c, 3, 66, 90
5, 9566, Note_on_c, 3, 66, 0
5, 9570, Note_on_c, 3, 67, 90
5, 9596, Note_on_c, 3, 67, 0
5, 9600, Note_on_c, 3, 62, 90
5, 9626, Note_on_c, 3, 62, 0
5, 9630, Note_on_c, 3, 67, 90
5, 9656, Note_on_c, 3, 67, 0
5, 9660, Note_on_c, 3, 59, 90
5, 9686, Note_on_c, 3, 59, 0
5, 9690, Note_on_c, 3, 62, 90
5, 9716, Note_on_c, 3, 62, 0
5, 9720, Note_on_c, 3, 55, 90
5, 9746, Note_on_c, 3, 55, 0
5, 9750, Note_on_c, 3, 59, 90
5, 9776, Note_on_c, 3, 59, 0
5, 9780, Note_on_c, 3, 62, 90
5, 9806, Note_on_c, 3, 62, 0
5, 9810, Note_on_c, 3, 65, 90
5, 9836, Note_on_c, 3, 65, 0
5, 9840, Note_on_c, 3, 64, 90
5, 10046, Note_on_c, 3, 64, 0
5, 10050, Note_on_c, 3, 72, 90
5, 10076, Note_on_c, 3, 72, 0
5, 10080, Note_on_c, 3, 71, 90
5, 10106, Note_on_c, 3, 71, 0
5, 10110, Note_on_c, 3, 72, 90
5, 10136, Note_on_c, 3, 72, 0
5, 10140, Note_on_c, 3, 81, 90
5, 10166, Note_on_c, 3, 81, 0
5, 10170, Note_on_c, 3, 72, 90
5, 10196, Note_on_c, 3, 72, 0
5, 10200, Note_on_c, 3, 64, 90
5, 10226, Note_on_c, 3, 64, 0
5, 10230, Note_on_c, 3, 72, 90
5, 10256, Note_on_c, 3, 72, 0
5, 10260, Note_on_c, 3, 71, 90
5, 10286, Note_on_c, 3, 71, 0
5, 10290, Note_on_c, 3, 72, 90
5, 10316, Note_on_c, 3, 72, 0
5, 10320, Note_on_c, 3, 79, 90
5, 10346, Note_on_c, 3, 79, 0
5, 10350, Note_on_c, 3, 72, 90
5, 10376, Note_on_c, 3, 72, 0
5, 10380, Note_on_c, 3, 62, 90
5, 10406, Note_on_c, 3, 62, 0
5, 10410, Note_on_c, 3, 72, 90
5, 10436, Note_on_c, 3, 72, 0
5, 10440, Note_on_c, 3, 71, 90
5, 10466, Note_on_c, 3, 71, 0
5, 10470, Note_on_c, 3, 72, 90
5, 10496, Note_on_c, 3, 72, 0
5, 10500, Note_on_c, 3, 78, 90
5, 10526, Note_on_c, 3, 78, 0
5, 10530, Note_on_c, 3, 72, 90
5, 10556, Note_on_c, 3, 72, 0
5, 10560, Note_on_c, 3, 62, 90
5, 10586, Note_on_c, 3, 62, 0
5, 10590, Note_on_c, 3, 72, 90
5, 10616, Note_on_c, 3, 72, 0
5, 10620, Note_on_c, 3, 71, 90
5, 10646, Note_on_c, 3, 71, 0
5, 10650, Note_on_c, 3, 72, 90
5, 10676, Note_on_c, 3, 72, 0
5, 10680, Note_on_c, 3, 81, 90
5, 10706, Note_on_c, 3, 81, 0
5, 10710, Note_on_c, 3, 72, 90
5, 10736, Note_on_c, 3, 72, 0
5, 10740, Note_on_c, 3, 62, 90
5, 10766, Note_on_c, 3, 62, 0
5, 10770, Note_on_c, 3, 72, 90
5, 10796, Note_on_c, 3, 72, 0
5, 10800, Note_on_c, 3, 71, 90
5, 10826, Note_on_c, 3, 71, 0
5, 10830, Note_on_c, 3, 72, 90
5, 10856, Note_on_c, 3, 72, 0
5, 10860, Note_on_c, 3, 78, 90
5, 10886, Note_on_c, 3, 78, 0
5, 10890, Note_on_c, 3, 72, 90
5, 10916, Note_on_c, 3, 72, 0
5, 10920, Note_on_c, 3, 62, 90
5, 10946, Note_on_c, 3, 62, 0
5, 10950, Note_on_c, 3, 71, 90
5, 10976, Note_on_c, 3, 71, 0
5, 10980, Note_on_c, 3, 69, 90
5, 11006, Note_on_c, 3, 69, 0
5, 11010, Note_on_c, 3, 71, 90
5, 11036, Note_on_c, 3, 71, 0
5, 11040, Note_on_c, 3, 79, 90
5, 11066, Note_on_c, 3, 79, 0
5, 11070, Note_on_c, 3, 71, 90
5, 11096, Note_on_c, 3, 71, 0
5, 11100, Note_on_c, 3, 62, 90
5, 11126, Note_on_c, 3, 62, 0
5, 11130, Note_on_c, 3, 71, 90
5, 11156, Note_on_c, 3, 71, 0
5, 11160, Note_on_c, 3, 69, 90
5, 11186, Note_on_c, 3, 69, 0
5, 11190, Note_on_c, 3, 71, 90
5, 11216, Note_on_c, 3, 71, 0
5, 11220, Note_on_c, 3, 74, 90
5, 11246, Note_on_c, 3, 74, 0
5, 11250, Note_on_c, 3, 71, 90
5, 11276, Note_on_c, 3, 71, 0
5, 11280, Note_on_c, 3, 62, 90
5, 11306, Note_on_c, 3, 62, 0
5, 11310, Note_on_c, 3, 71, 90
5, 11336, Note_on_c, 3, 71, 0
5, 11340, Note_on_c, 3, 69, 90
5, 11366, Note_on_c, 3, 69, 0
5, 11370, Note_on_c, 3, 71, 90
5, 11396, Note_on_c, 3, 71, 0
5, 11400, Note_on_c, 3, 79, 90
5, 11426, Note_on_c, 3, 79, 0
5, 11430, Note_on_c, 3, 71, 90
5, 11456, Note_on_c, 3, 71, 0
5, 11460, Note_on_c, 3, 73, 90
5, 11486, Note_on_c, 3, 73, 0
5, 11490, Note_on_c, 3, 82, 90
5, 11516, Note_on_c, 3, 82, 0
5, 11520, Note_on_c, 3, 81, 90
5, 11546, Note_on_c, 3, 81, 0
5, 11550, Note_on_c, 3, 79, 90
5, 11576, Note_on_c, 3, 79, 0
5, 11580, Note_on_c, 3, 78, 90
5, 11606, Note_on_c, 3, 78, 0
5, 11610, Note_on_c, 3, 79, 90
5, 11636, Note_on_c, 3, 79, 0
5, 11640, Note_on_c, 3, 72, 90
5, 11666, Note_on_c, 3, 72, 0
5, 11670, Note_on_c, 3, 83, 90
5, 11696, Note_on_c, 3, 83, 0
5, 11700, Note_on_c, 3, 81, 90
5, 11726, Note_on_c, 3, 81, 0
5, 11730, Note_on_c, 3, 79, 90
5, 11756, Note_on_c, 3, 79, 0
5, 11760, Note_on_c, 3, 78, 90
5, 11786, Note_on_c, 3, 78, 0
5, 11790, Note_on_c, 3, 79, 90
5, 11816, Note_on_c, 3, 79, 0
5, 11820, Note_on_c, 3, 71, 90
5, 11872, Note_on_c, 3, 71, 0
5, 11880, Note_on_c, 3, 72, 90
5, 11932, Note_on_c, 3, 72, 0
5, 11940, Note_on_c, 3, 69, 90
5, 11992, Note_on_c, 3, 69, 0
5, 12000, Note_on_c, 3, 67, 90
5, 12165, Note_on_c, 3, 67, 0
5, 12540, Note_on_c, 3, 67, 90
5, 12566, Note_on_c, 3, 67, 0
5, 12570, Note_on_c, 3, 71, 90
5, 12596, Note_on_c, 3, 71, 0
5, 12600, Note_on_c, 3, 74, 90
5, 12626, Note_on_c, 3, 74, 0
5, 12630, Note_on_c, 3, 71, 90
5, 12656, Note_on_c, 3, 71, 0
5, 12660, Note_on_c, 3, 67, 90
5, 12686, Note_on_c, 3, 67, 0
5, 12690, Note_on_c, 3, 66, 90
5, 12716, Note_on_c, 3, 66, 0
5, 12720, Note_on_c, 3, 67, 90
5, 12746, Note_on_c, 3, 67, 0
5, 12750, Note_on_c, 3, 71, 90
5, 12776, Note_on_c, 3, 71, 0
5, 12780, Note_on_c, 3, 74, 90
5, 12806, Note_on_c, 3, 74, 0
5, 12810, Note_on_c, 3, 71, 90
5, 12836, Note_on_c, 3, 71, 0
5, 12840, Note_on_c, 3, 67, 90
5, 12866, Note_on_c, 3, 67, 0
5, 12870, Note_on_c, 3, 66, 90
5, 12896, Note_on_c, 3, 66, 0
5, 12900, Note_on_c, 3, 67, 90
5, 12952, Note_on_c, 3, 67, 0
5, 12960, Note_on_c, 3, 76, 90
5, 13012, Note_on_c, 3, 76, 0
5, 13020, Note_on_c, 3, 74, 90
5, 13072, Note_on_c, 3, 74, 0
5, 13080, Note_on_c, 3, 74, 90
5, 13286, Note_on_c, 3, 74, 0
5, 13290, Note_on_c, 3, 78, 90
5, 13316, Note_on_c, 3, 78, 0
5, 13320, Note_on_c, 3, 81, 90
5, 13346, Note_on_c, 3, 81, 0
5, 13350, Note_on_c, 3, 78, 90
5, 13376, Note_on_c, 3, 78, 0
5, 13380, Note_on_c, 3, 72, 90
5, 13406, Note_on_c, 3, 72, 0
5, 13410, Note_on_c, 3, 71, 90
5, 13436, Note_on_c, 3, 71, 0
5, 13440, Note_on_c, 3, 72, 90
5, 13466, Note_on_c, 3, 72, 0
5, 13470, Note_on_c, 3, 78, 90
5, 13496, Note_on_c, 3, 78, 0
5, 13500, Note_on_c, 3, 81, 90
5, 13526, Note_on_c, 3, 81, 0
5, 13530, Note_on_c, 3, 78, 90
5, 13556, Note_on_c, 3, 78, 0
5, 13560, Note_on_c, 3, 71, 90
5, 13586, Note_on_c, 3, 71, 0
5, 13590, Note_on_c, 3, 69, 90
5, 13616, Note_on_c, 3, 69, 0
5, 13620, Note_on_c, 3, 67, 90
5, 13672, Note_on_c, 3, 67, 0
5, 14190, Note_on_c, 3, 62, 90
5, 14216, Note_on_c, 3, 62, 0
5, 14220, Note_on_c, 3, 66, 90
5, 14246, Note_on_c, 3, 66, 0
5, 14250, Note_on_c, 3, 69, 90
5, 14276, Note_on_c, 3, 69, 0
5, 14280, Note_on_c, 3, 72, 90
5, 14306, Note_on_c, 3, 72, 0
5, 14310, Note_on_c, 3, 71, 90
5, 14336, Note_on_c, 3, 71, 0
5, 14340, Note_on_c, 3, 72, 90
5, 14366, Note_on_c, 3, 72, 0
5, 14370, Note_on_c, 3, 78, 90
5, 14396, Note_on_c, 3, 78, 0
5, 14400, Note_on_c, 3, 81, 90
5, 14426, Note_on_c, 3, 81, 0
5, 14430, Note_on_c, 3, 78, 90
5, 14456, Note_on_c, 3, 78, 0
5, 14460, Note_on_c, 3, 74, 90
5, 14486, Note_on_c, 3, 74, 0
5, 14490, Note_on_c, 3, 72, 90
5, 14516, Note_on_c, 3, 72, 0
5, 14520, Note_on_c, 3, 71, 90
5, 14625, Note_on_c, 3, 71, 0
5, 14640, Note_on_c, 3, 69, 90
5, 14692, Note_on_c, 3, 69, 0
5, 14700, Note_on_c, 3, 71, 90
5, 14726, Note_on_c, 3, 71, 0
5, 14730, Note_on_c, 3, 74, 90
5, 14756, Note_on_c, 3, 74, 0
5, 14760, Note_on_c, 3, 79, 90
5, 14786, Note_on_c, 3, 79, 0
5, 14790, Note_on_c, 3, 74, 90
5, 14816, Note_on_c, 3, 74, 0
5, 14820, Note_on_c, 3, 71, 90
5, 14846, Note_on_c, 3, 71, 0
5, 14850, Note_on_c, 3, 69, 90
5, 14876, Note_on_c, 3, 69, 0
5, 14880, Note_on_c, 3, 67, 90
5, 14906, Note_on_c, 3, 67, 0
5, 14910, Note_on_c, 3, 71, 90
5, 14936, Note_on_c, 3, 71, 0
5, 14940, Note_on_c, 3, 74, 90
5, 14966, Note_on_c, 3, 74, 0
5, 14970, Note_on_c, 3, 71, 90
5, 14996, Note_on_c, 3, 71, 0
5, 15000, Note_on_c, 3, 67, 90
5, 15026, Note_on_c, 3, 67, 0
5, 15030, Note_on_c, 3, 66, 90
5, 15056, Note_on_c, 3, 66, 0
5, 15060, Note_on_c, 3, 64, 90
5, 15112, Note_on_c, 3, 64, 0
5, 15120, Note_on_c, 3, 72, 90
5, 15172, Note_on_c, 3, 72, 0
5, 15180, Note_on_c, 3, 69, 90
5, 15232, Note_on_c, 3, 69, 0
5, 15240, Note_on_c, 3, 66, 90
5, 15253, Note_on_c, 3, 66, 0
5, 15255, Note_on_c, 3, 67, 90
5, 15268, Note_on_c, 3, 67, 0
5, 15270, Note_on_c, 3, 66, 90
5, 15348, Note_on_c, 3, 66, 0
5, 15360, Note_on_c, 3, 64, 90
5, 15412, Note_on_c, 3, 64, 0
5, 15420, Note_on_c, 3, 62, 90
5, 15585, Note_on_c, 3, 62, 0
5, 15600, Note_on_c, 3, 74, 90
5, 15806, Note_on_c, 3, 74, 0
5, 15810, Note_on_c, 3, 64, 90
5, 15836, Note_on_c, 3, 64, 0
5, 15840, Note_on_c, 3, 68, 90
5, 15866, Note_on_c, 3, 68, 0
5, 15870, Note_on_c, 3, 71, 90
5, 15896, Note_on_c, 3, 71, 0
5, 15900, Note_on_c, 3, 74, 90
5, 15926, Note_on_c, 3, 74, 0
5, 15930, Note_on_c, 3, 72, 90
5, 15956, Note_on_c, 3, 72, 0
5, 15960, Note_on_c, 3, 74, 90
5, 15986, Note_on_c, 3, 74, 0
5, 15990, Note_on_c, 3, 80, 90
5, 16016, Note_on_c, 3, 80, 0
5, 16020, Note_on_c, 3, 83, 90
5, 16046, Note_on_c, 3, 83, 0
5, 16050, Note_on_c, 3, 80, 90
5, 16076, Note_on_c, 3, 80, 0
5, 16080, Note_on_c, 3, 76, 90
5, 16106, Note_on_c, 3, 76, 0
5, 16110, Note_on_c, 3, 74, 90
5, 16136, Note_on_c, 3, 74, 0
5, 16140, Note_on_c, 3, 72, 90
5, 16153, Note_on_c, 3, 72, 0
5, 16155, Note_on_c, 3, 74, 90
5, 16168, Note_on_c, 3, 74, 0
5, 16170, Note_on_c, 3, 72, 90
5, 16248, Note_on_c, 3, 72, 0
5, 16260, Note_on_c, 3, 71, 90
5, 16312, Note_on_c, 3, 71, 0
5, 16320, Note_on_c, 3, 72, 90
5, 16526, Note_on_c, 3, 72, 0
5, 16530, Note_on_c, 3, 69, 90
5, 16556, Note_on_c, 3, 69, 0
5, 16560, Note_on_c, 3, 68, 90
5, 16586, Note_on_c, 3, 68, 0
5, 16590, Note_on_c, 3, 69, 90
5, 16616, Note_on_c, 3, 69, 0
5, 16620, Note_on_c, 3, 64, 90
5, 16646, Note_on_c, 3, 64, 0
5, 16650, Note_on_c, 3, 69, 90
5, 16676, Note_on_c, 3, 69, 0
5, 16680, Note_on_c, 3, 60, 90
5, 16706, Note_on_c, 3, 60, 0
5, 16710, Note_on_c, 3, 64, 90
5, 16736, Note_on_c, 3, 64, 0
5, 16740, Note_on_c, 3, 57, 90
5, 16766, Note_on_c, 3, 57, 0
5, 16770, Note_on_c, 3, 60, 90
5, 16796, Note_on_c, 3, 60, 0
5, 16800, Note_on_c, 3, 64, 90
5, 16826, Note_on_c, 3, 64, 0
5, 16830, Note_on_c, 3, 69, 90
5, 16856, Note_on_c, 3, 69, 0
5, 16860, Note_on_c, 3, 72, 90
5, 16886, Note_on_c, 3, 72, 0
5, 16890, Note_on_c, 3, 63, 90
5, 16916, Note_on_c, 3, 63, 0
5, 16920, Note_on_c, 3, 66, 90
5, 16946, Note_on_c, 3, 66, 0
5, 16950, Note_on_c, 3, 69, 90
5, 16976, Note_on_c, 3, 69, 0
5, 16980, Note_on_c, 3, 72, 90
5, 17006, Note_on_c, 3, 72, 0
5, 17010, Note_on_c, 3, 71, 90
5, 17036, Note_on_c, 3, 71, 0
5, 17040, Note_on_c, 3, 72, 90
5, 17066, Note_on_c, 3, 72, 0
5, 17070, Note_on_c, 3, 78, 90
5, 17096, Note_on_c, 3, 78, 0
5, 17100, Note_on_c, 3, 81, 90
5, 17126, Note_on_c, 3, 81, 0
5, 17130, Note_on_c, 3, 78, 90
5, 17156, Note_on_c, 3, 78, 0
5, 17160, Note_on_c, 3, 72, 90
5, 17186, Note_on_c, 3, 72, 0
5, 17190, Note_on_c, 3, 71, 90
5, 17216, Note_on_c, 3, 71, 0
5, 17220, Note_on_c, 3, 69, 90
5, 17272, Note_on_c, 3, 69, 0
5, 17280, Note_on_c, 3, 67, 90
5, 17332, Note_on_c, 3, 67, 0
5, 17340, Note_on_c, 3, 66, 90
5, 17392, Note_on_c, 3, 66, 0
5, 17400, Note_on_c, 3, 67, 90
5, 17606, Note_on_c, 3, 67, 0
5, 17610, Note_on_c, 3, 64, 90
5, 17636, Note_on_c, 3, 64, 0
5, 17640, Note_on_c, 3, 63, 90
5, 17666, Note_on_c, 3, 63, 0
5, 17670, Note_on_c, 3, 64, 90
5, 17696, Note_on_c, 3, 64, 0
5, 17700, Note_on_c, 3, 59, 90
5, 17726, Note_on_c, 3, 59, 0
5, 17730, Note_on_c, 3, 64, 90
5, 17756, Note_on_c, 3, 64, 0
5, 17760, Note_on_c, 3, 55, 90
5, 17786, Note_on_c, 3, 55, 0
5, 17790, Note_on_c, 3, 59, 90
5, 17816, Note_on_c, 3, 59, 0
5, 17820, Note_on_c, 3, 64, 90
5, 17846, Note_on_c, 3, 64, 0
5, 17850, Note_on_c, 3, 67, 90
5, 17876, Note_on_c, 3, 67, 0
5, 17880, Note_on_c, 3, 71, 90
5, 17906, Note_on_c, 3, 71, 0
5, 17910, Note_on_c, 3, 74, 90
5, 17936, Note_on_c, 3, 74, 0
5, 17940, Note_on_c, 3, 72, 90
5, 18146, Note_on_c, 3, 72, 0
5, 18150, Note_on_c, 3, 77, 90
5, 18176, Note_on_c, 3, 77, 0
5, 18180, Note_on_c, 3, 76, 90
5, 18206, Note_on_c, 3, 76, 0
5, 18210, Note_on_c, 3, 77, 90
5, 18236, Note_on_c, 3, 77, 0
5, 18240, Note_on_c, 3, 81, 90
5, 18266, Note_on_c, 3, 81, 0
5, 18270, Note_on_c, 3, 77, 90
5, 18296, Note_on_c, 3, 77, 0
5, 18300, Note_on_c, 3, 72, 90
5, 18326, Note_on_c, 3, 72, 0
5, 18330, Note_on_c, 3, 77, 90
5, 18356, Note_on_c, 3, 77, 0
5, 18360, Note_on_c, 3, 76, 90
5, 18386, Note_on_c, 3, 76, 0
5, 18390, Note_on_c, 3, 77, 90
5, 18416, Note_on_c, 3, 77, 0
5, 18420, Note_on_c, 3, 84, 90
5, 18446, Note_on_c, 3, 84, 0
5, 18450, Note_on_c, 3, 76, 90
5, 18476, Note_on_c, 3, 76, 0
5, 18480, Note_on_c, 3, 75, 90
5, 18506, Note_on_c, 3, 75, 0
5, 18510, Note_on_c, 3, 71, 90
5, 18536, Note_on_c, 3, 71, 0
5, 18540, Note_on_c, 3, 69, 90
5, 18566, Note_on_c, 3, 69, 0
5, 18570, Note_on_c, 3, 71, 90
5, 18596, Note_on_c, 3, 71, 0
5, 18600, Note_on_c, 3, 73, 90
5, 18626, Note_on_c, 3, 73, 0
5, 18630, Note_on_c, 3, 71, 90
5, 18656, Note_on_c, 3, 71, 0
5, 18660, Note_on_c, 3, 75, 90
5, 18686, Note_on_c, 3, 75, 0
5, 18690, Note_on_c, 3, 71, 90
5, 18716, Note_on_c, 3, 71, 0
5, 18720, Note_on_c, 3, 69, 90
5, 18746, Note_on_c, 3, 69, 0
5, 18750, Note_on_c, 3, 71, 90
5, 18776, Note_on_c, 3, 71, 0
5, 18780, Note_on_c, 3, 76, 90
5, 18806, Note_on_c, 3, 76, 0
5, 18810, Note_on_c, 3, 71, 90
5, 18836, Note_on_c, 3, 71, 0
5, 18840, Note_on_c, 3, 78, 90
5, 18866, Note_on_c, 3, 78, 0
5, 18870, Note_on_c, 3, 71, 90
5, 18896, Note_on_c, 3, 71, 0
5, 18900, Note_on_c, 3, 69, 90
5, 18926, Note_on_c, 3, 69, 0
5, 18930, Note_on_c, 3, 71, 90
5, 18956, Note_on_c, 3, 71, 0
5, 18960, Note_on_c, 3, 81, 90
5, 18986, Note_on_c, 3, 81, 0
5, 18990, Note_on_c, 3, 71, 90
5, 19016, Note_on_c, 3, 71, 0
5, 19020, Note_on_c, 3, 79, 90
5, 19046, Note_on_c, 3, 79, 0
5, 19050, Note_on_c, 3, 71, 90
5, 19076, Note_on_c, 3, 71, 0
5, 19080, Note_on_c, 3, 69, 90
5, 19106, Note_on_c, 3, 69, 0
5, 19110, Note_on_c, 3, 71, 90
5, 19136, Note_on_c, 3, 71, 0
5, 19140, Note_on_c, 3, 76, 90
5, 19166, Note_on_c, 3, 76, 0
5, 19170, Note_on_c, 3, 71, 90
5, 19196, Note_on_c, 3, 71, 0
5, 19200, Note_on_c, 3, 79, 90
5, 19226, Note_on_c, 3, 79, 0
5, 19230, Note_on_c, 3, 71, 90
5, 19256, Note_on_c, 3, 71, 0
5, 19260, Note_on_c, 3, 69, 90
5, 19286, Note_on_c, 3, 69, 0
5, 19290, Note_on_c, 3, 71, 90
5, 19316, Note_on_c, 3, 71, 0
5, 19320, Note_on_c, 3, 83, 90
5, 19346, Note_on_c, 3, 83, 0
5, 19350, Note_on_c, 3, 71, 90
5, 19376, Note_on_c, 3, 71, 0
5, 19380, Note_on_c, 3, 79, 90
5, 19406, Note_on_c, 3, 79, 0
5, 19410, Note_on_c, 3, 71, 90
5, 19436, Note_on_c, 3, 71, 0
5, 19440, Note_on_c, 3, 69, 90
5, 19466, Note_on_c, 3, 69, 0
5, 19470, Note_on_c, 3, 71, 90
5, 19496, Note_on_c, 3, 71, 0
5, 19500, Note_on_c, 3, 79, 90
5, 19526, Note_on_c, 3, 79, 0
5, 19530, Note_on_c, 3, 76, 90
5, 19556, Note_on_c, 3, 76, 0
5, 19560, Note_on_c, 3, 70, 90
5, 19586, Note_on_c, 3, 70, 0
5, 19590, Note_on_c, 3, 79, 90
5, 19616, Note_on_c, 3, 79, 0
5, 19620, Note_on_c, 3, 78, 90
5, 19646, Note_on_c, 3, 78, 0
5, 19650, Note_on_c, 3, 76, 90
5, 19676, Note_on_c, 3, 76, 0
5, 19680, Note_on_c, 3, 75, 90
5, 19706, Note_on_c, 3, 75, 0
5, 19710, Note_on_c, 3, 76, 90
5, 19736, Note_on_c, 3, 76, 0
5, 19740, Note_on_c, 3, 69, 90
5, 19766, Note_on_c, 3, 69, 0
5, 19770, Note_on_c, 3, 79, 90
5, 19796, Note_on_c, 3, 79, 0
5, 19800, Note_on_c, 3, 78, 90
5, 19826, Note_on_c, 3, 78, 0
5, 19830, Note_on_c, 3, 76, 90
5, 19856, Note_on_c, 3, 76, 0
5, 19860, Note_on_c, 3, 75, 90
5, 19886, Note_on_c, 3, 75, 0
5, 19890, Note_on_c, 3, 76, 90
5, 19916, Note_on_c, 3, 76, 0
5, 19920, Note_on_c, 3, 67, 90
5, 19972, Note_on_c, 3, 67, 0
5, 19980, Note_on_c, 3, 69, 90
5, 20032, Note_on_c, 3, 69, 0
5, 20040, Note_on_c, 3, 66, 90
5, 20092, Note_on_c, 3, 66, 0
5, 20100, Note_on_c, 3, 64, 90
5, 20265, Note_on_c, 3, 64, 0
5, 20670, Note_on_c, 3, 72, 90
5, 20696, Note_on_c, 3, 72, 0
5, 20700, Note_on_c, 3, 71, 90
5, 20726, Note_on_c, 3, 71, 0
5, 20730, Note_on_c, 3, 72, 90
5, 20756, Note_on_c, 3, 72, 0
5, 20760, Note_on_c, 3, 81, 90
5, 20786, Note_on_c, 3, 81, 0
5, 20790, Note_on_c, 3, 72, 90
5, 20816, Note_on_c, 3, 72, 0
5, 20820, Note_on_c, 3, 64, 90
5, 20846, Note_on_c, 3, 64, 0
5, 20850, Note_on_c, 3, 72, 90
5, 20876, Note_on_c, 3, 72, 0
5, 20880, Note_on_c, 3, 71, 90
5, 20906, Note_on_c, 3, 71, 0
5, 20910, Note_on_c, 3, 72, 90
5, 20936, Note_on_c, 3, 72, 0
5, 20940, Note_on_c, 3, 76, 90
5, 20966, Note_on_c, 3, 76, 0
5, 20970, Note_on_c, 3, 72, 90
5, 20996, Note_on_c, 3, 72, 0
5, 21000, Note_on_c, 3, 64, 90
5, 21026, Note_on_c, 3, 64, 0
5, 21030, Note_on_c, 3, 72, 90
5, 21056, Note_on_c, 3, 72, 0
5, 21060, Note_on_c, 3, 71, 90
5, 21086, Note_on_c, 3, 71, 0
5, 21090, Note_on_c, 3, 72, 90
5, 21116, Note_on_c, 3, 72, 0
5, 21120, Note_on_c, 3, 79, 90
5, 21146, Note_on_c, 3, 79, 0
5, 21150, Note_on_c, 3, 72, 90
5, 21176, Note_on_c, 3, 72, 0
5, 21180, Note_on_c, 3, 62, 90
5, 21206, Note_on_c, 3, 62, 0
5, 21210, Note_on_c, 3, 72, 90
5, 21236, Note_on_c, 3, 72, 0
5, 21240, Note_on_c, 3, 71, 90
5, 21266, Note_on_c, 3, 71, 0
5, 21270, Note_on_c, 3, 72, 90
5, 21296, Note_on_c, 3, 72, 0
5, 21300, Note_on_c, 3, 78, 90
5, 21326, Note_on_c, 3, 78, 0
5, 21330, Note_on_c, 3, 72, 90
5, 21356, Note_on_c, 3, 72, 0
5, 21360, Note_on_c, 3, 62, 90
5, 21386, Note_on_c, 3, 62, 0
5, 21390, Note_on_c, 3, 72, 90
5, 21416, Note_on_c, 3, 72, 0
5, 21420, Note_on_c, 3, 71, 90
5, 21446, Note_on_c, 3, 71, 0
5, 21450, Note_on_c, 3, 72, 90
5, 21476, Note_on_c, 3, 72, 0
5, 21480, Note_on_c, 3, 81, 90
5, 21506, Note_on_c, 3, 81, 0
5, 21510, Note_on_c, 3, 72, 90
5, 21536, Note_on_c, 3, 72, 0
5, 21540, Note_on_c, 3, 62, 90
5, 21566, Note_on_c, 3, 62, 0
5, 21570, Note_on_c, 3, 72, 90
5, 21596, Note_on_c, 3, 72, 0
5, 21600, Note_on_c, 3, 71, 90
5, 21626, Note_on_c, 3, 71, 0
5, 21630, Note_on_c, 3, 72, 90
5, 21656, Note_on_c, 3, 72, 0
5, 21660, Note_on_c, 3, 78, 90
5, 21686, Note_on_c, 3, 78, 0
5, 21690, Note_on_c, 3, 72, 90
5, 21716, Note_on_c, 3, 72, 0
5, 21720, Note_on_c, 3, 62, 90
5, 21746, Note_on_c, 3, 62, 0
5, 21750, Note_on_c, 3, 71, 90
5, 21776, Note_on_c, 3, 71, 0
5, 21780, Note_on_c, 3, 69, 90
5, 21806, Note_on_c, 3, 69, 0
5, 21810, Note_on_c, 3, 71, 90
5, 21836, Note_on_c, 3, 71, 0
5, 21840, Note_on_c, 3, 79, 90
5, 21866, Note_on_c, 3, 79, 0
5, 21870, Note_on_c, 3, 71, 90
5, 21896, Note_on_c, 3, 71, 0
5, 21900, Note_on_c, 3, 62, 90
5, 21926, Note_on_c, 3, 62, 0
5, 21930, Note_on_c, 3, 72, 90
5, 21956, Note_on_c, 3, 72, 0
5, 21960, Note_on_c, 3, 71, 90
5, 21986, Note_on_c, 3, 71, 0
5, 21990, Note_on_c, 3, 72, 90
5, 22016, Note_on_c, 3, 72, 0
5, 22020, Note_on_c, 3, 81, 90
5, 22046, Note_on_c, 3, 81, 0
5, 22050, Note_on_c, 3, 72, 90
5, 22076, Note_on_c, 3, 72, 0
5, 22080, Note_on_c, 3, 62, 90
5, 22106, Note_on_c, 3, 62, 0
5, 22110, Note_on_c, 3, 74, 90
5, 22136, Note_on_c, 3, 74, 0
5, 22140, Note_on_c, 3, 72, 90
5, 22166, Note_on_c, 3, 72, 0
5, 22170, Note_on_c, 3, 74, 90
5, 22196, Note_on_c, 3, 74, 0
5, 22200, Note_on_c, 3, 83, 90
5, 22226, Note_on_c, 3, 83, 0
5, 22230, Note_on_c, 3, 74, 90
5, 22256, Note_on_c, 3, 74, 0
5, 22260, Note_on_c, 3, 67, 90
5, 22312, Note_on_c, 3, 67, 0
5, 22800, Note_on_c, 3, 62, 90
5, 22826, Note_on_c, 3, 62, 0
5, 22830, Note_on_c, 3, 66, 90
5, 22856, Note_on_c, 3, 66, 0
5, 22860, Note_on_c, 3, 69, 90
5, 22886, Note_on_c, 3, 69, 0
5, 22890, Note_on_c, 3, 66, 90
5, 22916, Note_on_c, 3, 66, 0
5, 22920, Note_on_c, 3, 62, 90
5, 22946, Note_on_c, 3, 62, 0
5, 22950, Note_on_c, 3, 61, 90
5, 22976, Note_on_c, 3, 61, 0
5, 22980, Note_on_c, 3, 62, 90
5, 23006, Note_on_c, 3, 62, 0
5, 23010, Note_on_c, 3, 66, 90
5, 23036, Note_on_c, 3, 66, 0
5, 23040, Note_on_c, 3, 69, 90
5, 23066, Note_on_c, 3, 69, 0
5, 23070, Note_on_c, 3, 66, 90
5, 23096, Note_on_c, 3, 66, 0
5, 23100, Note_on_c, 3, 62, 90
5, 23126, Note_on_c, 3, 62, 0
5, 23130, Note_on_c, 3, 61, 90
5, 23156, Note_on_c, 3, 61, 0
5, 23160, Note_on_c, 3, 62, 90
5, 23212, Note_on_c, 3, 62, 0
5, 23220, Note_on_c, 3, 71, 90
5, 23272, Note_on_c, 3, 71, 0
5, 23280, Note_on_c, 3, 69, 90
5, 23332, Note_on_c, 3, 69, 0
5, 23340, Note_on_c, 3, 69, 90
5, 23546, Note_on_c, 3, 69, 0
5, 23550, Note_on_c, 3, 73, 90
5, 23576, Note_on_c, 3, 73, 0
5, 23580, Note_on_c, 3, 76, 90
5, 23606, Note_on_c, 3, 76, 0
5, 23610, Note_on_c, 3, 73, 90
5, 23636, Note_on_c, 3, 73, 0
5, 23640, Note_on_c, 3, 67, 90
5, 23666, Note_on_c, 3, 67, 0
5, 23670, Note_on_c, 3, 66, 90
5, 23696, Note_on_c, 3, 66, 0
5, 23700, Note_on_c, 3, 67, 90
5, 23726, Note_on_c, 3, 67, 0
5, 23730, Note_on_c, 3, 73, 90
5, 23756, Note_on_c, 3, 73, 0
5, 23760, Note_on_c, 3, 76, 90
5, 23786, Note_on_c, 3, 76, 0
5, 23790, Note_on_c, 3, 73, 90
5, 23816, Note_on_c, 3, 73, 0
5, 23820, Note_on_c, 3, 66, 90
5, 23846, Note_on_c, 3, 66, 0
5, 23850, Note_on_c, 3, 64, 90
5, 23876, Note_on_c, 3, 64, 0
5, 23880, Note_on_c, 3, 66, 90
5, 23906, Note_on_c, 3, 66, 0
5, 23910, Note_on_c, 3, 69, 90
5, 23936, Note_on_c, 3, 69, 0
5, 23940, Note_on_c, 3, 74, 90
5, 23966, Note_on_c, 3, 74, 0
5, 23970, Note_on_c, 3, 69, 90
5, 23996, Note_on_c, 3, 69, 0
5, 24000, Note_on_c, 3, 66, 90
5, 24026, Note_on_c, 3, 66, 0
5, 24030, Note_on_c, 3, 64, 90
5, 24056, Note_on_c, 3, 64, 0
5, 24060, Note_on_c, 3, 62, 90
5, 24086, Note_on_c, 3, 62, 0
5, 24090, Note_on_c, 3, 66, 90
5, 24116, Note_on_c, 3, 66, 0
5, 24120, Note_on_c, 3, 69, 90
5, 24146, Note_on_c, 3, 69, 0
5, 24150, Note_on_c, 3, 66, 90
5, 24176, Note_on_c, 3, 66, 0
5, 24180, Note_on_c, 3, 62, 90
5, 24206, Note_on_c, 3, 62, 0
5, 24210, Note_on_c, 3, 61, 90
5, 24236, Note_on_c, 3, 61, 0
5, 24240, Note_on_c, 3, 59, 90
5, 24292, Note_on_c, 3, 59, 0
5, 24300, Note_on_c, 3, 67, 90
5, 24352, Note_on_c, 3, 67, 0
5, 24360, Note_on_c, 3, 64, 90
5, 24412, Note_on_c, 3, 64, 0
5, 24420, Note_on_c, 3, 61, 90
5, 24525, Note_on_c, 3, 61, 0
5, 24540, Note_on_c, 3, 59, 90
5, 24592, Note_on_c, 3, 59, 0
5, 24600, Note_on_c, 3, 57, 90
5, 24765, Note_on_c, 3, 57, 0
5, 24780, Note_on_c, 3, 67, 90
5, 24986, Note_on_c, 3, 67, 0
5, 24990, Note_on_c, 3, 67, 90
5, 25016, Note_on_c, 3, 67, 0
5, 25020, Note_on_c, 3, 66, 90
5, 25046, Note_on_c, 3, 66, 0
5, 25050, Note_on_c, 3, 67, 90
5, 25076, Note_on_c, 3, 67, 0
5, 25080, Note_on_c, 3, 73, 90
5, 25106, Note_on_c, 3, 73, 0
5, 25110, Note_on_c, 3, 67, 90
5, 25136, Note_on_c, 3, 67, 0
5, 25140, Note_on_c, 3, 57, 90
5, 25166, Note_on_c, 3, 57, 0
5, 25170, Note_on_c, 3, 67, 90
5, 25196, Note_on_c, 3, 67, 0
5, 25200, Note_on_c, 3, 66, 90
5, 25226, Note_on_c, 3, 66, 0
5, 25230, Note_on_c, 3, 67, 90
5, 25256, Note_on_c, 3, 67, 0
5, 25260, Note_on_c, 3, 76, 90
5, 25286, Note_on_c, 3, 76, 0
5, 25290, Note_on_c, 3, 67, 90
5, 25316, Note_on_c, 3, 67, 0
5, 25320, Note_on_c, 3, 57, 90
5, 25346, Note_on_c, 3, 57, 0
5, 25350, Note_on_c, 3, 67, 90
5, 25376, Note_on_c, 3, 67, 0
5, 25380, Note_on_c, 3, 66, 90
5, 25406, Note_on_c, 3, 66, 0
5, 25410, Note_on_c, 3, 67, 90
5, 25436, Note_on_c, 3, 67, 0
5, 25440, Note_on_c, 3, 73, 90
5, 25466, Note_on_c, 3, 73, 0
5, 25470, Note_on_c, 3, 67, 90
5, 25496, Note_on_c, 3, 67, 0
5, 25500, Note_on_c, 3, 57, 90
5, 25526, Note_on_c, 3, 57, 0
5, 25530, Note_on_c, 3, 66, 90
5, 25556, Note_on_c, 3, 66, 0
5, 25560, Note_on_c, 3, 64, 90
5, 25586, Note_on_c, 3, 64, 0
5, 25590, Note_on_c, 3, 66, 90
5, 25616, Note_on_c, 3, 66, 0
5, 25620, Note_on_c, 3, 74, 90
5, 25646, Note_on_c, 3, 74, 0
5, 25650, Note_on_c, 3, 66, 90
5, 25676, Note_on_c, 3, 66, 0
5, 25680, Note_on_c, 3, 57, 90
5, 25706, Note_on_c, 3, 57, 0
5, 25710, Note_on_c, 3, 66, 90
5, 25736, Note_on_c, 3, 66, 0
5, 25740, Note_on_c, 3, 64, 90
5, 25766, Note_on_c, 3, 64, 0
5, 25770, Note_on_c, 3, 66, 90
5, 25796, Note_on_c, 3, 66, 0
5, 25800, Note_on_c, 3, 69, 90
5, 25826, Note_on_c, 3, 69, 0
5, 25830, Note_on_c, 3, 66, 90
5, 25856, Note_on_c, 3, 66, 0
5, 25860, Note_on_c, 3, 57, 90
5, 25886, Note_on_c, 3, 57, 0
5, 25890, Note_on_c, 3, 66, 90
5, 25916, Note_on_c, 3, 66, 0
5, 25920, Note_on_c, 3, 64, 90
5, 25946, Note_on_c, 3, 64, 0
5, 25950, Note_on_c, 3, 66, 90
5, 25976, Note_on_c, 3, 66, 0
5, 25980, Note_on_c, 3, 74, 90
5, 26006, Note_on_c, 3, 74, 0
5, 26010, Note_on_c, 3, 66, 90
5, 26036, Note_on_c, 3, 66, 0
5, 26040, Note_on_c, 3, 68, 90
5, 26066, Note_on_c, 3, 68, 0
5, 26070, Note_on_c, 3, 77, 90
5, 26096, Note_on_c, 3, 77, 0
5, 26100, Note_on_c, 3, 76, 90
5, 26126, Note_on_c, 3, 76, 0
5, 26130, Note_on_c, 3, 74, 90
5, 26156, Note_on_c, 3, 74, 0
5, 26160, Note_on_c, 3, 73, 90
5, 26186, Note_on_c, 3, 73, 0
5, 26190, Note_on_c, 3, 74, 90
5, 26216, Note_on_c, 3, 74, 0
5, 26220, Note_on_c, 3, 67, 90
5, 26246, Note_on_c, 3, 67, 0
5, 26250, Note_on_c, 3, 78, 90
5, 26276, Note_on_c, 3, 78, 0
5, 26280, Note_on_c, 3, 76, 90
5, 26306, Note_on_c, 3, 76, 0
5, 26310, Note_on_c, 3, 74, 90
5, 26336, Note_on_c, 3, 74, 0
5, 26340, Note_on_c, 3, 73, 90
5, 26366, Note_on_c, 3, 73, 0
5, 26370, Note_on_c, 3, 74, 90
5, 26396, Note_on_c, 3, 74, 0
5, 26400, Note_on_c, 3, 66, 90
5, 26452, Note_on_c, 3, 66, 0
5, 26460, Note_on_c, 3, 67, 90
5, 26512, Note_on_c, 3, 67, 0
5, 26520, Note_on_c, 3, 64, 90
5, 26572, Note_on_c, 3, 64, 0
5, 26580, Note_on_c, 3, 62, 90
5, 26606, Note_on_c, 3, 62, 0
5, 26610, Note_on_c, 3, 66, 90
5, 26636, Note_on_c, 3, 66, 0
5, 26640, Note_on_c, 3, 69, 90
5, 26666, Note_on_c, 3, 69, 0
5, 26670, Note_on_c, 3, 74, 90
5, 26696, Note_on_c, 3, 74, 0
5, 26700, Note_on_c, 3, 72, 90
5, 26726, Note_on_c, 3, 72, 0
5, 26730, Note_on_c, 3, 71, 90
5, 26756, Note_on_c, 3, 71, 0
5, 26760, Note_on_c, 3, 72, 90
5, 26786, Note_on_c, 3, 72, 0
5, 26790, Note_on_c, 3, 78, 90
5, 26816, Note_on_c, 3, 78, 0
5, 26820, Note_on_c, 3, 81, 90
5, 26846, Note_on_c, 3, 81, 0
5, 26850, Note_on_c, 3, 78, 90
5, 26876, Note_on_c, 3, 78, 0
5, 26880, Note_on_c, 3, 74, 90
5, 26906, Note_on_c, 3, 74, 0
5, 26910, Note_on_c, 3, 72, 90
5, 26936, Note_on_c, 3, 72, 0
5, 26940, Note_on_c, 3, 71, 90
5, 27045, Note_on_c, 3, 71, 0
5, 27060, Note_on_c, 3, 69, 90
5, 27112, Note_on_c, 3, 69, 0
5, 27120, Note_on_c, 3, 71, 90
5, 27686, Note_on_c, 3, 71, 0
5, 27690, Note_on_c, 3, 76, 90
5, 27716, Note_on_c, 3, 76, 0
5, 27720, Note_on_c, 3, 79, 90
5, 27746, Note_on_c, 3, 79, 0
5, 27750, Note_on_c, 3, 76, 90
5, 27776, Note_on_c, 3, 76, 0
5, 27780, Note_on_c, 3, 72, 90
5, 27806, Note_on_c, 3, 72, 0
5, 27810, Note_on_c, 3, 71, 90
5, 27836, Note_on_c, 3, 71, 0
5, 27840, Note_on_c, 3, 69, 90
5, 27866, Note_on_c, 3, 69, 0
5, 27870, Note_on_c, 3, 74, 90
5, 27896, Note_on_c, 3, 74, 0
5, 27900, Note_on_c, 3, 81, 90
5, 27926, Note_on_c, 3, 81, 0
5, 27930, Note_on_c, 3, 72, 90
5, 27956, Note_on_c, 3, 72, 0
5, 27960, Note_on_c, 3, 71, 90
5, 27986, Note_on_c, 3, 71, 0
5, 27990, Note_on_c, 3, 69, 90
5, 28016, Note_on_c, 3, 69, 0
5, 28020, Note_on_c, 3, 67, 90
5, 28072, Note_on_c, 3, 67, 0
5, 28410, Note_on_c, 3, 62, 90
5, 28436, Note_on_c, 3, 62, 0
5, 28440, Note_on_c, 3, 66, 90
5, 28466, Note_on_c, 3, 66, 0
5, 28470, Note_on_c, 3, 69, 90
5, 28496, Note_on_c, 3, 69, 0
5, 28500, Note_on_c, 3, 72, 90
5, 28526, Note_on_c, 3, 72, 0
5, 28530, Note_on_c, 3, 71, 90
5, 28556, Note_on_c, 3, 71, 0
5, 28560, Note_on_c, 3, 72, 90
5, 28586, Note_on_c, 3, 72, 0
5, 28590, Note_on_c, 3, 78, 90
5, 28616, Note_on_c, 3, 78, 0
5, 28620, Note_on_c, 3, 81, 90
5, 28646, Note_on_c, 3, 81, 0
5, 28650, Note_on_c, 3, 78, 90
5, 28676, Note_on_c, 3, 78, 0
5, 28680, Note_on_c, 3, 74, 90
5, 28706, Note_on_c, 3, 74, 0
5, 28710, Note_on_c, 3, 72, 90
5, 28736, Note_on_c, 3, 72, 0
5, 28740, Note_on_c, 3, 71, 90
5, 28766, Note_on_c, 3, 71, 0
5, 28770, Note_on_c, 3, 74, 90
5, 28796, Note_on_c, 3, 74, 0
5, 28800, Note_on_c, 3, 79, 90
5, 28826, Note_on_c, 3, 79, 0
5, 28830, Note_on_c, 3, 74, 90
5, 28856, Note_on_c, 3, 74, 0
5, 28860, Note_on_c, 3, 71, 90
5, 28886, Note_on_c, 3, 71, 0
5, 28890, Note_on_c, 3, 69, 90
5, 28916, Note_on_c, 3, 69, 0
5, 28920, Note_on_c, 3, 67, 90
5, 28946, Note_on_c, 3, 67, 0
5, 28950, Note_on_c, 3, 71, 90
5, 28976, Note_on_c, 3, 71, 0
5, 28980, Note_on_c, 3, 74, 90
5, 29006, Note_on_c, 3, 74, 0
5, 29010, Note_on_c, 3, 71, 90
5, 29036, Note_on_c, 3, 71, 0
5, 29040, Note_on_c, 3, 67, 90
5, 29066, Note_on_c, 3, 67, 0
5, 29070, Note_on_c, 3, 66, 90
5, 29096, Note_on_c, 3, 66, 0
5, 29100, Note_on_c, 3, 67, 90
5, 29152, Note_on_c, 3, 67, 0
5, 29160, Note_on_c, 3, 76, 90
5, 29212, Note_on_c, 3, 76, 0
5, 29220, Note_on_c, 3, 74, 90
5, 29272, Note_on_c, 3, 74, 0
5, 29280, Note_on_c, 3, 74, 90
5, 29486, Note_on_c, 3, 74, 0
5, 29490, Note_on_c, 3, 79, 90
5, 29516, Note_on_c, 3, 79, 0
5, 29520, Note_on_c, 3, 83, 90
5, 29546, Note_on_c, 3, 83, 0
5, 29550, Note_on_c, 3, 79, 90
5, 29576, Note_on_c, 3, 79, 0
5, 29580, Note_on_c, 3, 76, 90
5, 29606, Note_on_c, 3, 76, 0
5, 29610, Note_on_c, 3, 74, 90
5, 29636, Note_on_c, 3, 74, 0
5, 29640, Note_on_c, 3, 72, 90
5, 29666, Note_on_c, 3, 72, 0
5, 29670, Note_on_c, 3, 78, 90
5, 29696, Note_on_c, 3, 78, 0
5, 29700, Note_on_c, 3, 81, 90
5, 29726, Note_on_c, 3, 81, 0
5, 29730, Note_on_c, 3, 78, 90
5, 29756, Note_on_c, 3, 78, 0
5, 29760, Note_on_c, 3, 74, 90
5, 29786, Note_on_c, 3, 74, 0
5, 29790, Note_on_c, 3, 72, 90
5, 29816, Note_on_c, 3, 72, 0
5, 29820, Note_on_c, 3, 71, 90
5, 29846, Note_on_c, 3, 71, 0
5, 29850, Note_on_c, 3, 74, 90
5, 29876, Note_on_c, 3, 74, 0
5, 29880, Note_on_c, 3, 79, 90
5, 29906, Note_on_c, 3, 79, 0
5, 29910, Note_on_c, 3, 74, 90
5, 29936, Note_on_c, 3, 74, 0
5, 29940, Note_on_c, 3, 71, 90
5, 29966, Note_on_c, 3, 71, 0
5, 29970, Note_on_c, 3, 69, 90
5, 29996, Note_on_c, 3, 69, 0
5, 30000, Note_on_c, 3, 67, 90
5, 30026, Note_on_c, 3, 67, 0
5, 30030, Note_on_c, 3, 71, 90
5, 30056, Note_on_c, 3, 71, 0
5, 30060, Note_on_c, 3, 74, 90
5, 30086, Note_on_c, 3, 74, 0
5, 30090, Note_on_c, 3, 71, 90
5, 30116, Note_on_c, 3, 71, 0
5, 30120, Note_on_c, 3, 67, 90
5, 30146, Note_on_c, 3, 67, 0
5, 30150, Note_on_c, 3, 66, 90
5, 30176, Note_on_c, 3, 66, 0
5, 30180, Note_on_c, 3, 64, 90
5, 30232, Note_on_c, 3, 64, 0
5, 30240, Note_on_c, 3, 72, 90
5, 30292, Note_on_c, 3, 72, 0
5, 30300, Note_on_c, 3, 69, 90
5, 30352, Note_on_c, 3, 69, 0
5, 30360, Note_on_c, 3, 66, 90
5, 30373, Note_on_c, 3, 66, 0
5, 30375, Note_on_c, 3, 67, 90
5, 30388, Note_on_c, 3, 67, 0
5, 30390, Note_on_c, 3, 66, 90
5, 30468, Note_on_c, 3, 66, 0
5, 30480, Note_on_c, 3, 64, 90
5, 30532, Note_on_c, 3, 64, 0
5, 30540, Note_on_c, 3, 62, 90
5, 30705, Note_on_c, 3, 62, 0
5, 30720, Note_on_c, 3, 74, 90
5, 30926, Note_on_c, 3, 74, 0
5, 30930, Note_on_c, 3, 64, 90
5, 30956, Note_on_c, 3, 64, 0
5, 30960, Note_on_c, 3, 68, 90
5, 30986, Note_on_c, 3, 68, 0
5, 30990, Note_on_c, 3, 71, 90
5, 31016, Note_on_c, 3, 71, 0
5, 31020, Note_on_c, 3, 74, 90
5, 31046, Note_on_c, 3, 74, 0
5, 31050, Note_on_c, 3, 72, 90
5, 31076, Note_on_c, 3, 72, 0
5, 31080, Note_on_c, 3, 74, 90
5, 31106, Note_on_c, 3, 74, 0
5, 31110, Note_on_c, 3, 80, 90
5, 31136, Note_on_c, 3, 80, 0
5, 31140, Note_on_c, 3, 83, 90
5, 31166, Note_on_c, 3, 83, 0
5, 31170, Note_on_c, 3, 80, 90
5, 31196, Note_on_c, 3, 80, 0
5, 31200, Note_on_c, 3, 76, 90
5, 31226, Note_on_c, 3, 76, 0
5, 31230, Note_on_c, 3, 74, 90
5, 31256, Note_on_c, 3, 74, 0
5, 31260, Note_on_c, 3, 72, 90
5, 31273, Note_on_c, 3, 72, 0
5, 31275, Note_on_c, 3, 74, 90
5, 31288, Note_on_c, 3, 74, 0
5, 31290, Note_on_c, 3, 72, 90
5, 31368, Note_on_c, 3, 72, 0
5, 31380, Note_on_c, 3, 71, 90
5, 31432, Note_on_c, 3, 71, 0
5, 31440, Note_on_c, 3, 72, 90
5, 31646, Note_on_c, 3, 72, 0
5, 31650, Note_on_c, 3, 69, 90
5, 31676, Note_on_c, 3, 69, 0
5, 31680, Note_on_c, 3, 68, 90
5, 31706, Note_on_c, 3, 68, 0
5, 31710, Note_on_c, 3, 69, 90
5, 31736, Note_on_c, 3, 69, 0
5, 31740, Note_on_c, 3, 64, 90
5, 31766, Note_on_c, 3, 64, 0
5, 31770, Note_on_c, 3, 69, 90
5, 31796, Note_on_c, 3, 69, 0
5, 31800, Note_on_c, 3, 60, 90
5, 31826, Note_on_c, 3, 60, 0
5, 31830, Note_on_c, 3, 64, 90
5, 31856, Note_on_c, 3, 64, 0
5, 31860, Note_on_c, 3, 57, 90
5, 31886, Note_on_c, 3, 57, 0
5, 31890, Note_on_c, 3, 60, 90
5, 31916, Note_on_c, 3, 60, 0
5, 31920, Note_on_c, 3, 64, 90
5, 31946, Note_on_c, 3, 64, 0
5, 31950, Note_on_c, 3, 69, 90
5, 31976, Note_on_c, 3, 69, 0
5, 31980, Note_on_c, 3, 72, 90
5, 32006, Note_on_c, 3, 72, 0
5, 32010, Note_on_c, 3, 62, 90
5, 32036, Note_on_c, 3, 62, 0
5, 32040, Note_on_c, 3, 66, 90
5, 32066, Note_on_c, 3, 66, 0
5, 32070, Note_on_c, 3, 69, 90
5, 32096, Note_on_c, 3, 69, 0
5, 32100, Note_on_c, 3, 72, 90
5, 32126, Note_on_c, 3, 72, 0
5, 32130, Note_on_c, 3, 71, 90
5, 32156, Note_on_c, 3, 71, 0
5, 32160, Note_on_c, 3, 72, 90
5, 32186, Note_on_c, 3, 72, 0
5, 32190, Note_on_c, 3, 78, 90
5, 32216, Note_on_c, 3, 78, 0
5, 32220, Note_on_c, 3, 81, 90
5, 32246, Note_on_c, 3, 81, 0
5, 32250, Note_on_c, 3, 78, 90
5, 32276, Note_on_c, 3, 78, 0
5, 32280, Note_on_c, 3, 74, 90
5, 32306, Note_on_c, 3, 74, 0
5, 32310, Note_on_c, 3, 72, 90
5, 32336, Note_on_c, 3, 72, 0
5, 32340, Note_on_c, 3, 72, 90
5, 32392, Note_on_c, 3, 72, 0
5, 32400, Note_on_c, 3, 71, 90
5, 32452, Note_on_c, 3, 71, 0
5, 32460, Note_on_c, 3, 69, 90
5, 32512, Note_on_c, 3, 69, 0
5, 32520, Note_on_c, 3, 71, 90
5, 32726, Note_on_c, 3, 71, 0
5, 32730, Note_on_c, 3, 67, 90
5, 32756, Note_on_c, 3, 67, 0
5, 32760, Note_on_c, 3, 66, 90
5, 32786, Note_on_c, 3, 66, 0
5, 32790, Note_on_c, 3, 67, 90
5, 32816, Note_on_c, 3, 67, 0
5, 32820, Note_on_c, 3, 62, 90
5, 32846, Note_on_c, 3, 62, 0
5, 32850, Note_on_c, 3, 67, 90
5, 32876, Note_on_c, 3, 67, 0
5, 32880, Note_on_c, 3, 59, 90
5, 32906, Note_on_c, 3, 59, 0
5, 32910, Note_on_c, 3, 62, 90
5, 32936, Note_on_c, 3, 62, 0
5, 32940, Note_on_c, 3, 55, 90
5, 32966, Note_on_c, 3, 55, 0
5, 32970, Note_on_c, 3, 59, 90
5, 32996, Note_on_c, 3, 59, 0
5, 33000, Note_on_c, 3, 62, 90
5, 33026, Note_on_c, 3, 62, 0
5, 33030, Note_on_c, 3, 65, 90
5, 33056, Note_on_c, 3, 65, 0
5, 33060, Note_on_c, 3, 64, 90
5, 33266, Note_on_c, 3, 64, 0
5, 33270, Note_on_c, 3, 72, 90
5, 33296, Note_on_c, 3, 72, 0
5, 33300, Note_on_c, 3, 71, 90
5, 33326, Note_on_c, 3, 71, 0
5, 33330, Note_on_c, 3, 72, 90
5, 33356, Note_on_c, 3, 72, 0
5, 33360, Note_on_c, 3, 81, 90
5, 33386, Note_on_c, 3, 81, 0
5, 33390, Note_on_c, 3, 72, 90
5, 33416, Note_on_c, 3, 72, 0
5, 33420, Note_on_c, 3, 64, 90
5, 33446, Note_on_c, 3, 64, 0
5, 33450, Note_on_c, 3, 72, 90
5, 33476, Note_on_c, 3, 72, 0
5, 33480, Note_on_c, 3, 71, 90
5, 33506, Note_on_c, 3, 71, 0
5, 33510, Note_on_c, 3, 72, 90
5, 33536, Note_on_c, 3, 72, 0
5, 33540, Note_on_c, 3, 79, 90
5, 33566, Note_on_c, 3, 79, 0
5, 33570, Note_on_c, 3, 72, 90
5, 33596, Note_on_c, 3, 72, 0
5, 33600, Note_on_c, 3, 62, 90
5, 33626, Note_on_c, 3, 62, 0
5, 33630, Note_on_c, 3, 72, 90
5, 33656, Note_on_c, 3, 72, 0
5, 33660, Note_on_c, 3, 71, 90
5, 33686, Note_on_c, 3, 71, 0
5, 33690, Note_on_c, 3, 72, 90
5, 33716, Note_on_c, 3, 72, 0
5, 33720, Note_on_c, 3, 78, 90
5, 33746, Note_on_c, 3, 78, 0
5, 33750, Note_on_c, 3, 72, 90
5, 33776, Note_on_c, 3, 72, 0
5, 33780, Note_on_c, 3, 62, 90
5, 33806, Note_on_c, 3, 62, 0
5, 33810, Note_on_c, 3, 72, 90
5, 33836, Note_on_c, 3, 72, 0
5, 33840, Note_on_c, 3, 71, 90
5, 33866, Note_on_c, 3, 71, 0
5, 33870, Note_on_c, 3, 72, 90
5, 33896, Note_on_c, 3, 72, 0
5, 33900, Note_on_c, 3, 81, 90
5, 33926, Note_on_c, 3, 81, 0
5, 33930, Note_on_c, 3, 72, 90
5, 33956, Note_on_c, 3, 72, 0
5, 33960, Note_on_c, 3, 62, 90
5, 33986, Note_on_c, 3, 62, 0
5, 33990, Note_on_c, 3, 72, 90
5, 34016, Note_on_c, 3, 72, 0
5, 34020, Note_on_c, 3, 71, 90
5, 34046, Note_on_c, 3, 71, 0
5, 34050, Note_on_c, 3, 72, 90
5, 34076, Note_on_c, 3, 72, 0
5, 34080, Note_on_c, 3, 78, 90
5, 34106, Note_on_c, 3, 78, 0
5, 34110, Note_on_c, 3, 72, 90
5, 34136, Note_on_c, 3, 72, 0
5, 34140, Note_on_c, 3, 62, 90
5, 34166, Note_on_c, 3, 62, 0
5, 34170, Note_on_c, 3, 71, 90
5, 34196, Note_on_c, 3, 71, 0
5, 34200, Note_on_c, 3, 69, 90
5, 34226, Note_on_c, 3, 69, 0
5, 34230, Note_on_c, 3, 71, 90
5, 34256, Note_on_c, 3, 71, 0
5, 34260, Note_on_c, 3, 79, 90
5, 34286, Note_on_c, 3, 79, 0
5, 34290, Note_on_c, 3, 71, 90
5, 34316, Note_on_c, 3, 71, 0
5, 34320, Note_on_c, 3, 62, 90
5, 34346, Note_on_c, 3, 62, 0
5, 34350, Note_on_c, 3, 71, 90
5, 34376, Note_on_c, 3, 71, 0
5, 34380, Note_on_c, 3, 69, 90
5, 34406, Note_on_c, 3, 69, 0
5, 34410, Note_on_c, 3, 71, 90
5, 34436, Note_on_c, 3, 71, 0
5, 34440, Note_on_c, 3, 74, 90
5, 34466, Note_on_c, 3, 74, 0
5, 34470, Note_on_c, 3, 71, 90
5, 34496, Note_on_c, 3, 71, 0
5, 34500, Note_on_c, 3, 62, 90
5, 34526, Note_on_c, 3, 62, 0
5, 34530, Note_on_c, 3, 71, 90
5, 34556, Note_on_c, 3, 71, 0
5, 34560, Note_on_c, 3, 69, 90
5, 34586, Note_on_c, 3, 69, 0
5, 34590, Note_on_c, 3, 71, 90
5, 34616, Note_on_c, 3, 71, 0
5, 34620, Note_on_c, 3, 79, 90
5, 34646, Note_on_c, 3, 79, 0
5, 34650, Note_on_c, 3, 71, 90
5, 34676, Note_on_c, 3, 71, 0
5, 34680, Note_on_c, 3, 73, 90
5, 34706, Note_on_c, 3, 73, 0
5, 34710, Note_on_c, 3, 82, 90
5, 34736, Note_on_c, 3, 82, 0
5, 34740, Note_on_c, 3, 81, 90
5, 34766, Note_on_c, 3, 81, 0
5, 34770, Note_on_c, 3, 79, 90
5, 34796, Note_on_c, 3, 79, 0
5, 34800, Note_on_c, 3, 78, 90
5, 34826, Note_on_c, 3, 78, 0
5, 34830, Note_on_c, 3, 79, 90
5, 34856, Note_on_c, 3, 79, 0
5, 34860, Note_on_c, 3, 72, 90
5, 34886, Note_on_c, 3, 72, 0
5, 34890, Note_on_c, 3, 83, 90
5, 34916, Note_on_c, 3, 83, 0
5, 34920, Note_on_c, 3, 81, 90
5, 34946, Note_on_c, 3, 81, 0
5, 34950, Note_on_c, 3, 79, 90
5, 34976, Note_on_c, 3, 79, 0
5, 34980, Note_on_c, 3, 78, 90
5, 35006, Note_on_c, 3, 78, 0
5, 35010, Note_on_c, 3, 79, 90
5, 35036, Note_on_c, 3, 79, 0
5, 35040, Note_on_c, 3, 71, 90
5, 35092, Note_on_c, 3, 71, 0
5, 35100, Note_on_c, 3, 72, 90
5, 35152, Note_on_c, 3, 72, 0
5, 35160, Note_on_c, 3, 69, 90
5, 35212, Note_on_c, 3, 69, 0
5, 35220, Note_on_c, 3, 67, 90
5, 35745, Note_on_c, 3, 67, 0
5, 35745, End_track
6, 0, Start_track
6, 0, MIDI_port, 0
6, 0, Title_t, "Contrabass"
6, 0, Program_c, 4, 43
6, 0, Control_c, 4, 7, 80
6, 0, Control_c, 4, 10, 64
6, 120, Note_on_c, 4, 55, 90
6, 225, Note_on_c, 4, 55, 0
6, 300, Note_on_c, 4, 52, 90
6, 405, Note_on_c, 4, 52, 0
6, 480, Note_on_c, 4, 48, 90
6, 585, Note_on_c, 4, 48, 0
6, 660, Note_on_c, 4, 60, 90
6, 712, Note_on_c, 4, 60, 0
6, 720, Note_on_c, 4, 59, 90
6, 772, Note_on_c, 4, 59, 0
6, 780, Note_on_c, 4, 57, 90
6, 832, Note_on_c, 4, 57, 0
6, 840, Note_on_c, 4, 59, 90
6, 892, Note_on_c, 4, 59, 0
6, 900, Note_on_c, 4, 57, 90
6, 952, Note_on_c, 4, 57, 0
6, 960, Note_on_c, 4, 55, 90
6, 1012, Note_on_c, 4, 55, 0
6, 1020, Note_on_c, 4, 57, 90
6, 1072, Note_on_c, 4, 57, 0
6, 1080, Note_on_c, 4, 55, 90
6, 1132, Note_on_c, 4, 55, 0
6, 1140, Note_on_c, 4, 54, 90
6, 1192, Note_on_c, 4, 54, 0
6, 1200, Note_on_c, 4, 55, 90
6, 1305, Note_on_c, 4, 55, 0
6, 1380, Note_on_c, 4, 47, 90
6, 1485, Note_on_c, 4, 47, 0
6, 1560, Note_on_c, 4, 48, 90
6, 1612, Note_on_c, 4, 48, 0
6, 1620, Note_on_c, 4, 45, 90
6, 1672, Note_on_c, 4, 45, 0
6, 1680, Note_on_c, 4, 48, 90
6, 1732, Note_on_c, 4, 48, 0
6, 1740, Note_on_c, 4, 50, 90
6, 1946, Note_on_c, 4, 50, 0
6, 1950, Note_on_c, 4, 52, 90
6, 1976, Note_on_c, 4, 52, 0
6, 1980, Note_on_c, 4, 54, 90
6, 2032, Note_on_c, 4, 54, 0
6, 2040, Note_on_c, 4, 50, 90
6, 2092, Note_on_c, 4, 50, 0
6, 2100, Note_on_c, 4, 47, 90
6, 2126, Note_on_c, 4, 47, 0
6, 2130, Note_on_c, 4, 48, 90
6, 2156, Note_on_c, 4, 48, 0
6, 2160, Note_on_c, 4, 50, 90
6, 2212, Note_on_c, 4, 50, 0
6, 2220, Note_on_c, 4, 47, 90
6, 2272, Note_on_c, 4, 47, 0
6, 2280, Note_on_c, 4, 44, 90
6, 2306, Note_on_c, 4, 44, 0
6, 2310, Note_on_c, 4, 45, 90
6, 2336, Note_on_c, 4, 45, 0
6, 2340, Note_on_c, 4, 47, 90
6, 2392, Note_on_c, 4, 47, 0
6, 2400, Note_on_c, 4, 44, 90
6, 2452, Note_on_c, 4, 44, 0
6, 2460, Note_on_c, 4, 40, 90
6, 2565, Note_on_c, 4, 40, 0
6, 2640, Note_on_c, 4, 52, 90
6, 2745, Note_on_c, 4, 52, 0
6, 2820, Note_on_c, 4, 45, 90
6, 2872, Note_on_c, 4, 45, 0
6, 2880, Note_on_c, 4, 48, 90
6, 2932, Note_on_c, 4, 48, 0
6, 2940, Note_on_c, 4, 52, 90
6, 2992, Note_on_c, 4, 52, 0
6, 3000, Note_on_c, 4, 57, 90
6, 3206, Note_on_c, 4, 57, 0
6, 3210, Note_on_c, 4, 59, 90
6, 3236, Note_on_c, 4, 59, 0
6, 3240, Note_on_c, 4, 60, 90
6, 3292, Note_on_c, 4, 60, 0
6, 3300, Note_on_c, 4, 57, 90
6, 3352, Note_on_c, 4, 57, 0
6, 3360, Note_on_c, 4, 54, 90
6, 3386, Note_on_c, 4, 54, 0
6, 3390, Note_on_c, 4, 55, 90
6, 3416, Note_on_c, 4, 55, 0
6, 3420, Note_on_c, 4, 57, 90
6, 3472, Note_on_c, 4, 57, 0
6, 3480, Note_on_c, 4, 54, 90
6, 3532, Note_on_c, 4, 54, 0
6, 3540, Note_on_c, 4, 50, 90
6, 3645, Note_on_c, 4, 50, 0
6, 3720, Note_on_c, 4, 38, 90
6, 3825, Note_on_c, 4, 38, 0
6, 3900, Note_on_c, 4, 43, 90
6, 3952, Note_on_c, 4, 43, 0
6, 3960, Note_on_c, 4, 47, 90
6, 4012, Note_on_c, 4, 47, 0
6, 4020, Note_on_c, 4, 50, 90
6, 4072, Note_on_c, 4, 50, 0
6, 4080, Note_on_c, 4, 55, 90
6, 4286, Note_on_c, 4, 55, 0
6, 4290, Note_on_c, 4, 57, 90
6, 4316, Note_on_c, 4, 57, 0
6, 4320, Note_on_c, 4, 59, 90
6, 4372, Note_on_c, 4, 59, 0
6, 4380, Note_on_c, 4, 55, 90
6, 4432, Note_on_c, 4, 55, 0
6, 4440, Note_on_c, 4, 48, 90
6, 4466, Note_on_c, 4, 48, 0
6, 4470, Note_on_c, 4, 50, 90
6, 4496, Note_on_c, 4, 50, 0
6, 4500, Note_on_c, 4, 52, 90
6, 4552, Note_on_c, 4, 52, 0
6, 4560, Note_on_c, 4, 48, 90
6, 4612, Note_on_c, 4, 48, 0
6, 4620, Note_on_c, 4, 45, 90
6, 4672, Note_on_c, 4, 45, 0
6, 4680, Note_on_c, 4, 48, 90
6, 4732, Note_on_c, 4, 48, 0
6, 4740, Note_on_c, 4, 52, 90
6, 4792, Note_on_c, 4, 52, 0
6, 4800, Note_on_c, 4, 57, 90
6, 4852, Note_on_c, 4, 57, 0
6, 4860, Note_on_c, 4, 55, 90
6, 4912, Note_on_c, 4, 55, 0
6, 4920, Note_on_c, 4, 57, 90
6, 4972, Note_on_c, 4, 57, 0
6, 4980, Note_on_c, 4, 50, 90
6, 5032, Note_on_c, 4, 50, 0
6, 5040, Note_on_c, 4, 54, 90
6, 5092, Note_on_c, 4, 54, 0
6, 5100, Note_on_c, 4, 57, 90
6, 5152, Note_on_c, 4, 57, 0
6, 5160, Note_on_c, 4, 54, 90
6, 5392, Note_on_c, 4, 54, 0
6, 5400, Note_on_c, 4, 55, 90
6, 5452, Note_on_c, 4, 55, 0
6, 5460, Note_on_c, 4, 57, 90
6, 5512, Note_on_c, 4, 57, 0
6, 5520, Note_on_c, 4, 50, 90
6, 5572, Note_on_c, 4, 50, 0
6, 5580, Note_on_c, 4, 55, 90
6, 5632, Note_on_c, 4, 55, 0
6, 5640, Note_on_c, 4, 59, 90
6, 5692, Note_on_c, 4, 59, 0
6, 5700, Note_on_c, 4, 55, 90
6, 5932, Note_on_c, 4, 55, 0
6, 5940, Note_on_c, 4, 57, 90
6, 5992, Note_on_c, 4, 57, 0
6, 6000, Note_on_c, 4, 59, 90
6, 6052, Note_on_c, 4, 59, 0
6, 6060, Note_on_c, 4, 52, 90
6, 6165, Note_on_c, 4, 52, 0
6, 6240, Note_on_c, 4, 54, 90
6, 6345, Note_on_c, 4, 54, 0
6, 6420, Note_on_c, 4, 55, 90
6, 6472, Note_on_c, 4, 55, 0
6, 6480, Note_on_c, 4, 48, 90
6, 6532, Note_on_c, 4, 48, 0
6, 6540, Note_on_c, 4, 50, 90
6, 6592, Note_on_c, 4, 50, 0
6, 6600, Note_on_c, 4, 43, 90
6, 6652, Note_on_c, 4, 43, 0
6, 6660, Note_on_c, 4, 47, 90
6, 6712, Note_on_c, 4, 47, 0
6, 6720, Note_on_c, 4, 50, 90
6, 6772, Note_on_c, 4, 50, 0
6, 6780, Note_on_c, 4, 55, 90
6, 6806, Note_on_c, 4, 55, 0
6, 6810, Note_on_c, 4, 57, 90
6, 6836, Note_on_c, 4, 57, 0
6, 6840, Note_on_c, 4, 59, 90
6, 6892, Note_on_c, 4, 59, 0
6, 6900, Note_on_c, 4, 55, 90
6, 6952, Note_on_c, 4, 55, 0
6, 6960, Note_on_c, 4, 54, 90
6, 7012, Note_on_c, 4, 54, 0
6, 7020, Note_on_c, 4, 52, 90
6, 7072, Note_on_c, 4, 52, 0
6, 7080, Note_on_c, 4, 50, 90
6, 7132, Note_on_c, 4, 50, 0
6, 7140, Note_on_c, 4, 55, 90
6, 7245, Note_on_c, 4, 55, 0
6, 7320, Note_on_c, 4, 47, 90
6, 7425, Note_on_c, 4, 47, 0
6, 7500, Note_on_c, 4, 49, 90
6, 7605, Note_on_c, 4, 49, 0
6, 7680, Note_on_c, 4, 60, 90
6, 7732, Note_on_c, 4, 60, 0
6, 7740, Note_on_c, 4, 59, 90
6, 7792, Note_on_c, 4, 59, 0
6, 7800, Note_on_c, 4, 57, 90
6, 7852, Note_on_c, 4, 57, 0
6, 7860, Note_on_c, 4, 59, 90
6, 7912, Note_on_c, 4, 59, 0
6, 7920, Note_on_c, 4, 57, 90
6, 7972, Note_on_c, 4, 57, 0
6, 7980, Note_on_c, 4, 55, 90
6, 8032, Note_on_c, 4, 55, 0
6, 8040, Note_on_c, 4, 54, 90
6, 8092, Note_on_c, 4, 54, 0
6, 8100, Note_on_c, 4, 50, 90
6, 8152, Note_on_c, 4, 50, 0
6, 8160, Note_on_c, 4, 55, 90
6, 8212, Note_on_c, 4, 55, 0
6, 8220, Note_on_c, 4, 48, 90
6, 8272, Note_on_c, 4, 48, 0
6, 8280, Note_on_c, 4, 47, 90
6, 8332, Note_on_c, 4, 47, 0
6, 8340, Note_on_c, 4, 45, 90
6, 8392, Note_on_c, 4, 45, 0
6, 8400, Note_on_c, 4, 47, 90
6, 8452, Note_on_c, 4, 47, 0
6, 8460, Note_on_c, 4, 48, 90
6, 8512, Note_on_c, 4, 48, 0
6, 8520, Note_on_c, 4, 50, 90
6, 8572, Note_on_c, 4, 50, 0
6, 8580, Note_on_c, 4, 52, 90
6, 8632, Note_on_c, 4, 52, 0
6, 8640, Note_on_c, 4, 50, 90
6, 8692, Note_on_c, 4, 50, 0
6, 8700, Note_on_c, 4, 48, 90
6, 8752, Note_on_c, 4, 48, 0
6, 8760, Note_on_c, 4, 50, 90
6, 8992, Note_on_c, 4, 50, 0
6, 9000, Note_on_c, 4, 54, 90
6, 9052, Note_on_c, 4, 54, 0
6, 9060, Note_on_c, 4, 57, 90
6, 9112, Note_on_c, 4, 57, 0
6, 9120, Note_on_c, 4, 62, 90
6, 9225, Note_on_c, 4, 62, 0
6, 9240, Note_on_c, 4, 50, 90
6, 9292, Note_on_c, 4, 50, 0
6, 9300, Note_on_c, 4, 55, 90
6, 9352, Note_on_c, 4, 55, 0
6, 9360, Note_on_c, 4, 50, 90
6, 9412, Note_on_c, 4, 50, 0
6, 9420, Note_on_c, 4, 47, 90
6, 9472, Note_on_c, 4, 47, 0
6, 9480, Note_on_c, 4, 43, 90
6, 9686, Note_on_c, 4, 43, 0
6, 9690, Note_on_c, 4, 45, 90
6, 9716, Note_on_c, 4, 45, 0
6, 9720, Note_on_c, 4, 47, 90
6, 9772, Note_on_c, 4, 47, 0
6, 9780, Note_on_c, 4, 43, 90
6, 9832, Note_on_c, 4, 43, 0
6, 9840, Note_on_c, 4, 48, 90
6, 9866, Note_on_c, 4, 48, 0
6, 9870, Note_on_c, 4, 50, 90
6, 9896, Note_on_c, 4, 50, 0
6, 9900, Note_on_c, 4, 52, 90
6, 9952, Note_on_c, 4, 52, 0
6, 9960, Note_on_c, 4, 48, 90
6, 10012, Note_on_c, 4, 48, 0
6, 10020, Note_on_c, 4, 45, 90
6, 10072, Note_on_c, 4, 45, 0
6, 10080, Note_on_c, 4, 48, 90
6, 10132, Note_on_c, 4, 48, 0
6, 10140, Note_on_c, 4, 52, 90
6, 10192, Note_on_c, 4, 52, 0
6, 10200, Note_on_c, 4, 57, 90
6, 10252, Note_on_c, 4, 57, 0
6, 10260, Note_on_c, 4, 55, 90
6, 10312, Note_on_c, 4, 55, 0
6, 10320, Note_on_c, 4, 57, 90
6, 10372, Note_on_c, 4, 57, 0
6, 10380, Note_on_c, 4, 50, 90
6, 10432, Note_on_c, 4, 50, 0
6, 10440, Note_on_c, 4, 54, 90
6, 10492, Note_on_c, 4, 54, 0
6, 10500, Note_on_c, 4, 57, 90
6, 10552, Note_on_c, 4, 57, 0
6, 10560, Note_on_c, 4, 54, 90
6, 10792, Note_on_c, 4, 54, 0
6, 10800, Note_on_c, 4, 55, 90
6, 10852, Note_on_c, 4, 55, 0
6, 10860, Note_on_c, 4, 57, 90
6, 10912, Note_on_c, 4, 57, 0
6, 10920, Note_on_c, 4, 50, 90
6, 10972, Note_on_c, 4, 50, 0
6, 10980, Note_on_c, 4, 55, 90
6, 11032, Note_on_c, 4, 55, 0
6, 11040, Note_on_c, 4, 59, 90
6, 11092, Note_on_c, 4, 59, 0
6, 11100, Note_on_c, 4, 55, 90
6, 11332, Note_on_c, 4, 55, 0
6, 11340, Note_on_c, 4, 57, 90
6, 11392, Note_on_c, 4, 57, 0
6, 11400, Note_on_c, 4, 59, 90
6, 11452, Note_on_c, 4, 59, 0
6, 11460, Note_on_c, 4, 52, 90
6, 11565, Note_on_c, 4, 52, 0
6, 11640, Note_on_c, 4, 54, 90
6, 11745, Note_on_c, 4, 54, 0
6, 11820, Note_on_c, 4, 55, 90
6, 11872, Note_on_c, 4, 55, 0
6, 11880, Note_on_c, 4, 48, 90
6, 11932, Note_on_c, 4, 48, 0
6, 11940, Note_on_c, 4, 50, 90
6, 11992, Note_on_c, 4, 50, 0
6, 12000, Note_on_c, 4, 43, 90
6, 12052, Note_on_c, 4, 43, 0
6, 12060, Note_on_c, 4, 47, 90
6, 12112, Note_on_c, 4, 47, 0
6, 12120, Note_on_c, 4, 50, 90
6, 12172, Note_on_c, 4, 50, 0
6, 12180, Note_on_c, 4, 55, 90
6, 12206, Note_on_c, 4, 55, 0
6, 12210, Note_on_c, 4, 57, 90
6, 12236, Note_on_c, 4, 57, 0
6, 12240, Note_on_c, 4, 59, 90
6, 12292, Note_on_c, 4, 59, 0
6, 12300, Note_on_c, 4, 55, 90
6, 12352, Note_on_c, 4, 55, 0
6, 12360, Note_on_c, 4, 54, 90
6, 12412, Note_on_c, 4, 54, 0
6, 12420, Note_on_c, 4, 52, 90
6, 12472, Note_on_c, 4, 52, 0
6, 12480, Note_on_c, 4, 50, 90
6, 12532, Note_on_c, 4, 50, 0
6, 12540, Note_on_c, 4, 55, 90
6, 12645, Note_on_c, 4, 55, 0
6, 12720, Note_on_c, 4, 57, 90
6, 12825, Note_on_c, 4, 57, 0
6, 12900, Note_on_c, 4, 59, 90
6, 13005, Note_on_c, 4, 59, 0
6, 13080, Note_on_c, 4, 60, 90
6, 13132, Note_on_c, 4, 60, 0
6, 13140, Note_on_c, 4, 59, 90
6, 13192, Note_on_c, 4, 59, 0
6, 13200, Note_on_c, 4, 57, 90
6, 13252, Note_on_c, 4, 57, 0
6, 13260, Note_on_c, 4, 59, 90
6, 13312, Note_on_c, 4, 59, 0
6, 13320, Note_on_c, 4, 57, 90
6, 13372, Note_on_c, 4, 57, 0
6, 13380, Note_on_c, 4, 55, 90
6, 13432, Note_on_c, 4, 55, 0
6, 13440, Note_on_c, 4, 54, 90
6, 13492, Note_on_c, 4, 54, 0
6, 13500, Note_on_c, 4, 50, 90
6, 13552, Note_on_c, 4, 50, 0
6, 13560, Note_on_c, 4, 55, 90
6, 13612, Note_on_c, 4, 55, 0
6, 13620, Note_on_c, 4, 48, 90
6, 13672, Note_on_c, 4, 48, 0
6, 13680, Note_on_c, 4, 47, 90
6, 13732, Note_on_c, 4, 47, 0
6, 13740, Note_on_c, 4, 45, 90
6, 13792, Note_on_c, 4, 45, 0
6, 13800, Note_on_c, 4, 47, 90
6, 13852, Note_on_c, 4, 47, 0
6, 13860, Note_on_c, 4, 48, 90
6, 13912, Note_on_c, 4, 48, 0
6, 13920, Note_on_c, 4, 50, 90
6, 13972, Note_on_c, 4, 50, 0
6, 13980, Note_on_c, 4, 52, 90
6, 14032, Note_on_c, 4, 52, 0
6, 14040, Note_on_c, 4, 50, 90
6, 14092, Note_on_c, 4, 50, 0
6, 14100, Note_on_c, 4, 48, 90
6, 14152, Note_on_c, 4, 48, 0
6, 14160, Note_on_c, 4, 50, 90
6, 14392, Note_on_c, 4, 50, 0
6, 14400, Note_on_c, 4, 54, 90
6, 14452, Note_on_c, 4, 54, 0
6, 14460, Note_on_c, 4, 57, 90
6, 14512, Note_on_c, 4, 57, 0
6, 14520, Note_on_c, 4, 62, 90
6, 14625, Note_on_c, 4, 62, 0
6, 14640, Note_on_c, 4, 50, 90
6, 14692, Note_on_c, 4, 50, 0
6, 14700, Note_on_c, 4, 55, 90
6, 14805, Note_on_c, 4, 55, 0
6, 14880, Note_on_c, 4, 47, 90
6, 14985, Note_on_c, 4, 47, 0
6, 15060, Note_on_c, 4, 48, 90
6, 15112, Note_on_c, 4, 48, 0
6, 15120, Note_on_c, 4, 45, 90
6, 15172, Note_on_c, 4, 45, 0
6, 15180, Note_on_c, 4, 48, 90
6, 15232, Note_on_c, 4, 48, 0
6, 15240, Note_on_c, 4, 50, 90
6, 15446, Note_on_c, 4, 50, 0
6, 15450, Note_on_c, 4, 52, 90
6, 15476, Note_on_c, 4, 52, 0
6, 15480, Note_on_c, 4, 54, 90
6, 15532, Note_on_c, 4, 54, 0
6, 15540, Note_on_c, 4, 50, 90
6, 15592, Note_on_c, 4, 50, 0
6, 15600, Note_on_c, 4, 47, 90
6, 15626, Note_on_c, 4, 47, 0
6, 15630, Note_on_c, 4, 48, 90
6, 15656, Note_on_c, 4, 48, 0
6, 15660, Note_on_c, 4, 50, 90
6, 15712, Note_on_c, 4, 50, 0
6, 15720, Note_on_c, 4, 47, 90
6, 15772, Note_on_c, 4, 47, 0
6, 15780, Note_on_c, 4, 44, 90
6, 15806, Note_on_c, 4, 44, 0
6, 15810, Note_on_c, 4, 45, 90
6, 15836, Note_on_c, 4, 45, 0
6, 15840, Note_on_c, 4, 47, 90
6, 15892, Note_on_c, 4, 47, 0
6, 15900, Note_on_c, 4, 44, 90
6, 15952, Note_on_c, 4, 44, 0
6, 15960, Note_on_c, 4, 40, 90
6, 16065, Note_on_c, 4, 40, 0
6, 16140, Note_on_c, 4, 52, 90
6, 16245, Note_on_c, 4, 52, 0
6, 16320, Note_on_c, 4, 45, 90
6, 16372, Note_on_c, 4, 45, 0
6, 16380, Note_on_c, 4, 48, 90
6, 16432, Note_on_c, 4, 48, 0
6, 16440, Note_on_c, 4, 52, 90
6, 16492, Note_on_c, 4, 52, 0
6, 16500, Note_on_c, 4, 57, 90
6, 16706, Note_on_c, 4, 57, 0
6, 16710, Note_on_c, 4, 59, 90
6, 16736, Note_on_c, 4, 59, 0
6, 16740, Note_on_c, 4, 60, 90
6, 16792, Note_on_c, 4, 60, 0
6, 16800, Note_on_c, 4, 57, 90
6, 16852, Note_on_c, 4, 57, 0
6, 16860, Note_on_c, 4, 54, 90
6, 16886, Note_on_c, 4, 54, 0
6, 16890, Note_on_c, 4, 55, 90
6, 16916, Note_on_c, 4, 55, 0
6, 16920, Note_on_c, 4, 57, 90
6, 16972, Note_on_c, 4, 57, 0
6, 16980, Note_on_c, 4, 54, 90
6, 17032, Note_on_c, 4, 54, 0
6, 17040, Note_on_c, 4, 51, 90
6, 17145, Note_on_c, 4, 51, 0
6, 17220, Note_on_c, 4, 47, 90
6, 17325, Note_on_c, 4, 47, 0
6, 17400, Note_on_c, 4, 40, 90
6, 17452, Note_on_c, 4, 40, 0
6, 17460, Note_on_c, 4, 43, 90
6, 17512, Note_on_c, 4, 43, 0
6, 17520, Note_on_c, 4, 47, 90
6, 17572, Note_on_c, 4, 47, 0
6, 17580, Note_on_c, 4, 52, 90
6, 17786, Note_on_c, 4, 52, 0
6, 17790, Note_on_c, 4, 54, 90
6, 17816, Note_on_c, 4, 54, 0
6, 17820, Note_on_c, 4, 55, 90
6, 17872, Note_on_c, 4, 55, 0
6, 17880, Note_on_c, 4, 52, 90
6, 17932, Note_on_c, 4, 52, 0
6, 17940, Note_on_c, 4, 57, 90
6, 17966, Note_on_c, 4, 57, 0
6, 17970, Note_on_c, 4, 59, 90
6, 17996, Note_on_c, 4, 59, 0
6, 18000, Note_on_c, 4, 60, 90
6, 18052, Note_on_c, 4, 60, 0
6, 18060, Note_on_c, 4, 57, 90
6, 18112, Note_on_c, 4, 57, 0
6, 18120, Note_on_c, 4, 45, 90
6, 18172, Note_on_c, 4, 45, 0
6, 18180, Note_on_c, 4, 48, 90
6, 18232, Note_on_c, 4, 48, 0
6, 18240, Note_on_c, 4, 53, 90
6, 18292, Note_on_c, 4, 53, 0
6, 18300, Note_on_c, 4, 57, 90
6, 18352, Note_on_c, 4, 57, 0
6, 18360, Note_on_c, 4, 55, 90
6, 18412, Note_on_c, 4, 55, 0
6, 18420, Note_on_c, 4, 57, 90
6, 18472, Note_on_c, 4, 57, 0
6, 18480, Note_on_c, 4, 47, 90
6, 18532, Note_on_c, 4, 47, 0
6, 18540, Note_on_c, 4, 51, 90
6, 18592, Note_on_c, 4, 51, 0
6, 18600, Note_on_c, 4, 54, 90
6, 18652, Note_on_c, 4, 54, 0
6, 18660, Note_on_c, 4, 57, 90
6, 18892, Note_on_c, 4, 57, 0
6, 18900, Note_on_c, 4, 54, 90
6, 18952, Note_on_c, 4, 54, 0
6, 18960, Note_on_c, 4, 51, 90
6, 19012, Note_on_c, 4, 51, 0
6, 19020, Note_on_c, 4, 47, 90
6, 19072, Note_on_c, 4, 47, 0
6, 19080, Note_on_c, 4, 52, 90
6, 19132, Note_on_c, 4, 52, 0
6, 19140, Note_on_c, 4, 55, 90
6, 19192, Note_on_c, 4, 55, 0
6, 19200, Note_on_c, 4, 59, 90
6, 19432, Note_on_c, 4, 59, 0
6, 19440, Note_on_c, 4, 55, 90
6, 19492, Note_on_c, 4, 55, 0
6, 19500, Note_on_c, 4, 52, 90
6, 19552, Note_on_c, 4, 52, 0
6, 19560, Note_on_c, 4, 49, 90
6, 19665, Note_on_c, 4, 49, 0
6, 19740, Note_on_c, 4, 51, 90
6, 19845, Note_on_c, 4, 51, 0
6, 19920, Note_on_c, 4, 52, 90
6, 19972, Note_on_c, 4, 52, 0
6, 19980, Note_on_c, 4, 45, 90
6, 20032, Note_on_c, 4, 45, 0
6, 20040, Note_on_c, 4, 47, 90
6, 20092, Note_on_c, 4, 47, 0
6, 20100, Note_on_c, 4, 40, 90
6, 20152, Note_on_c, 4, 40, 0
6, 20160, Note_on_c, 4, 43, 90
6, 20212, Note_on_c, 4, 43, 0
6, 20220, Note_on_c, 4, 47, 90
6, 20272, Note_on_c, 4, 47, 0
6, 20280, Note_on_c, 4, 52, 90
6, 20306, Note_on_c, 4, 52, 0
6, 20310, Note_on_c, 4, 54, 90
6, 20336, Note_on_c, 4, 54, 0
6, 20340, Note_on_c, 4, 55, 90
6, 20392, Note_on_c, 4, 55, 0
6, 20400, Note_on_c, 4, 52, 90
6, 20452, Note_on_c, 4, 52, 0
6, 20460, Note_on_c, 4, 48, 90
6, 20486, Note_on_c, 4, 48, 0
6, 20490, Note_on_c, 4, 50, 90
6, 20516, Note_on_c, 4, 50, 0
6, 20520, Note_on_c, 4, 52, 90
6, 20572, Note_on_c, 4, 52, 0
6, 20580, Note_on_c, 4, 48, 90
6, 20632, Note_on_c, 4, 48, 0
6, 20640, Note_on_c, 4, 45, 90
6, 20692, Note_on_c, 4, 45, 0
6, 20700, Note_on_c, 4, 48, 90
6, 20752, Note_on_c, 4, 48, 0
6, 20760, Note_on_c, 4, 52, 90
6, 20812, Note_on_c, 4, 52, 0
6, 20820, Note_on_c, 4, 57, 90
6, 21052, Note_on_c, 4, 57, 0
6, 21060, Note_on_c, 4, 55, 90
6, 21112, Note_on_c, 4, 55, 0
6, 21120, Note_on_c, 4, 57, 90
6, 21172, Note_on_c, 4, 57, 0
6, 21180, Note_on_c, 4, 50, 90
6, 21232, Note_on_c, 4, 50, 0
6, 21240, Note_on_c, 4, 54, 90
6, 21292, Note_on_c, 4, 54, 0
6, 21300, Note_on_c, 4, 57, 90
6, 21352, Note_on_c, 4, 57, 0
6, 21360, Note_on_c, 4, 62, 90
6, 21592, Note_on_c, 4, 62, 0
6, 21600, Note_on_c, 4, 60, 90
6, 21652, Note_on_c, 4, 60, 0
6, 21660, Note_on_c, 4, 62, 90
6, 21712, Note_on_c, 4, 62, 0
6, 21720, Note_on_c, 4, 55, 90
6, 21772, Note_on_c, 4, 55, 0
6, 21780, Note_on_c, 4, 50, 90
6, 21832, Note_on_c, 4, 50, 0
6, 21840, Note_on_c, 4, 47, 90
6, 21892, Note_on_c, 4, 47, 0
6, 21900, Note_on_c, 4, 43, 90
6, 22132, Note_on_c, 4, 43, 0
6, 22140, Note_on_c, 4, 47, 90
6, 22192, Note_on_c, 4, 47, 0
6, 22200, Note_on_c, 4, 45, 90
6, 22252, Note_on_c, 4, 45, 0
6, 22260, Note_on_c, 4, 47, 90
6, 22312, Note_on_c, 4, 47, 0
6, 22320, Note_on_c, 4, 48, 90
6, 22372, Note_on_c, 4, 48, 0
6, 22380, Note_on_c, 4, 50, 90
6, 22432, Note_on_c, 4, 50, 0
6, 22440, Note_on_c, 4, 52, 90
6, 22492, Note_on_c, 4, 52, 0
6, 22500, Note_on_c, 4, 55, 90
6, 22552, Note_on_c, 4, 55, 0
6, 22560, Note_on_c, 4, 59, 90
6, 22612, Note_on_c, 4, 59, 0
6, 22620, Note_on_c, 4, 64, 90
6, 22672, Note_on_c, 4, 64, 0
6, 22680, Note_on_c, 4, 62, 90
6, 22732, Note_on_c, 4, 62, 0
6, 22740, Note_on_c, 4, 60, 90
6, 22792, Note_on_c, 4, 60, 0
6, 22800, Note_on_c, 4, 62, 90
6, 22905, Note_on_c, 4, 62, 0
6, 22980, Note_on_c, 4, 59, 90
6, 23085, Note_on_c, 4, 59, 0
6, 23160, Note_on_c, 4, 55, 90
6, 23392, Note_on_c, 4, 55, 0
6, 23400, Note_on_c, 4, 54, 90
6, 23452, Note_on_c, 4, 54, 0
6, 23460, Note_on_c, 4, 52, 90
6, 23512, Note_on_c, 4, 52, 0
6, 23520, Note_on_c, 4, 54, 90
6, 23572, Note_on_c, 4, 54, 0
6, 23580, Note_on_c, 4, 52, 90
6, 23632, Note_on_c, 4, 52, 0
6, 23640, Note_on_c, 4, 50, 90
6, 23692, Note_on_c, 4, 50, 0
6, 23700, Note_on_c, 4, 52, 90
6, 23752, Note_on_c, 4, 52, 0
6, 23760, Note_on_c, 4, 50, 90
6, 23812, Note_on_c, 4, 50, 0
6, 23820, Note_on_c, 4, 49, 90
6, 23872, Note_on_c, 4, 49, 0
6, 23880, Note_on_c, 4, 50, 90
6, 23985, Note_on_c, 4, 50, 0
6, 24060, Note_on_c, 4, 42, 90
6, 24165, Note_on_c, 4, 42, 0
6, 24240, Note_on_c, 4, 43, 90
6, 24345, Note_on_c, 4, 43, 0
6, 24420, Note_on_c, 4, 57, 90
6, 24446, Note_on_c, 4, 57, 0
6, 24450, Note_on_c, 4, 59, 90
6, 24476, Note_on_c, 4, 59, 0
6, 24480, Note_on_c, 4, 61, 90
6, 24532, Note_on_c, 4, 61, 0
6, 24540, Note_on_c, 4, 57, 90
6, 24592, Note_on_c, 4, 57, 0
6, 24600, Note_on_c, 4, 52, 90
6, 24626, Note_on_c, 4, 52, 0
6, 24630, Note_on_c, 4, 54, 90
6, 24656, Note_on_c, 4, 54, 0
6, 24660, Note_on_c, 4, 55, 90
6, 24712, Note_on_c, 4, 55, 0
6, 24720, Note_on_c, 4, 52, 90
6, 24772, Note_on_c, 4, 52, 0
6, 24780, Note_on_c, 4, 49, 90
6, 24806, Note_on_c, 4, 49, 0
6, 24810, Note_on_c, 4, 50, 90
6, 24836, Note_on_c, 4, 50, 0
6, 24840, Note_on_c, 4, 52, 90
6, 24892, Note_on_c, 4, 52, 0
6, 24900, Note_on_c, 4, 49, 90
6, 24952, Note_on_c, 4, 49, 0
6, 24960, Note_on_c, 4, 45, 90
6, 25012, Note_on_c, 4, 45, 0
6, 25020, Note_on_c, 4, 49, 90
6, 25072, Note_on_c, 4, 49, 0
6, 25080, Note_on_c, 4, 52, 90
6, 25132, Note_on_c, 4, 52, 0
6, 25140, Note_on_c, 4, 49, 90
6, 25372, Note_on_c, 4, 49, 0
6, 25380, Note_on_c, 4, 50, 90
6, 25432, Note_on_c, 4, 50, 0
6, 25440, Note_on_c, 4, 52, 90
6, 25492, Note_on_c, 4, 52, 0
6, 25500, Note_on_c, 4, 45, 90
6, 25552, Note_on_c, 4, 45, 0
6, 25560, Note_on_c, 4, 50, 90
6, 25612, Note_on_c, 4, 50, 0
6, 25620, Note_on_c, 4, 54, 90
6, 25672, Note_on_c, 4, 54, 0
6, 25680, Note_on_c, 4, 50, 90
6, 25912, Note_on_c, 4, 50, 0
6, 25920, Note_on_c, 4, 52, 90
6, 25972, Note_on_c, 4, 52, 0
6, 25980, Note_on_c, 4, 54, 90
6, 26032, Note_on_c, 4, 54, 0
6, 26040, Note_on_c, 4, 47, 90
6, 26145, Note_on_c, 4, 47, 0
6, 26220, Note_on_c, 4, 49, 90
6, 26325, Note_on_c, 4, 49, 0
6, 26400, Note_on_c, 4, 50, 90
6, 26452, Note_on_c, 4, 50, 0
6, 26460, Note_on_c, 4, 43, 90
6, 26512, Note_on_c, 4, 43, 0
6, 26520, Note_on_c, 4, 45, 90
6, 26572, Note_on_c, 4, 45, 0
6, 26580, Note_on_c, 4, 38, 90
6, 26632, Note_on_c, 4, 38, 0
6, 26640, Note_on_c, 4, 42, 90
6, 26692, Note_on_c, 4, 42, 0
6, 26700, Note_on_c, 4, 45, 90
6, 26752, Note_on_c, 4, 45, 0
6, 26760, Note_on_c, 4, 50, 90
6, 26992, Note_on_c, 4, 50, 0
6, 27000, Note_on_c, 4, 52, 90
6, 27052, Note_on_c, 4, 52, 0
6, 27060, Note_on_c, 4, 54, 90
6, 27112, Note_on_c, 4, 54, 0
6, 27120, Note_on_c, 4, 55, 90
6, 27146, Note_on_c, 4, 55, 0
6, 27150, Note_on_c, 4, 57, 90
6, 27176, Note_on_c, 4, 57, 0
6, 27180, Note_on_c, 4, 59, 90
6, 27232, Note_on_c, 4, 59, 0
6, 27240, Note_on_c, 4, 57, 90
6, 27292, Note_on_c, 4, 57, 0
6, 27300, Note_on_c, 4, 55, 90
6, 27352, Note_on_c, 4, 55, 0
6, 27360, Note_on_c, 4, 54, 90
6, 27412, Note_on_c, 4, 54, 0
6, 27420, Note_on_c, 4, 52, 90
6, 27472, Note_on_c, 4, 52, 0
6, 27480, Note_on_c, 4, 51, 90
6, 27532, Note_on_c, 4, 51, 0
6, 27540, Note_on_c, 4, 49, 90
6, 27592, Note_on_c, 4, 49, 0
6, 27600, Note_on_c, 4, 47, 90
6, 27652, Note_on_c, 4, 47, 0
6, 27660, Note_on_c, 4, 52, 90
6, 27765, Note_on_c, 4, 52, 0
6, 27840, Note_on_c, 4, 54, 90
6, 27945, Note_on_c, 4, 54, 0
6, 28020, Note_on_c, 4, 55, 90
6, 28072, Note_on_c, 4, 55, 0
6, 28080, Note_on_c, 4, 57, 90
6, 28132, Note_on_c, 4, 57, 0
6, 28140, Note_on_c, 4, 59, 90
6, 28192, Note_on_c, 4, 59, 0
6, 28200, Note_on_c, 4, 60, 90
6, 28252, Note_on_c, 4, 60, 0
6, 28260, Note_on_c, 4, 59, 90
6, 28312, Note_on_c, 4, 59, 0
6, 28320, Note_on_c, 4, 57, 90
6, 28372, Note_on_c, 4, 57, 0
6, 28380, Note_on_c, 4, 62, 90
6, 28485, Note_on_c, 4, 62, 0
6, 28560, Note_on_c, 4, 50, 90
6, 28665, Note_on_c, 4, 50, 0
6, 28740, Note_on_c, 4, 55, 90
6, 28845, Note_on_c, 4, 55, 0
6, 28920, Note_on_c, 4, 52, 90
6, 29025, Note_on_c, 4, 52, 0
6, 29100, Note_on_c, 4, 48, 90
6, 29205, Note_on_c, 4, 48, 0
6, 29280, Note_on_c, 4, 60, 90
6, 29332, Note_on_c, 4, 60, 0
6, 29340, Note_on_c, 4, 59, 90
6, 29392, Note_on_c, 4, 59, 0
6, 29400, Note_on_c, 4, 57, 90
6, 29452, Note_on_c, 4, 57, 0
6, 29460, Note_on_c, 4, 59, 90
6, 29512, Note_on_c, 4, 59, 0
6, 29520, Note_on_c, 4, 57, 90
6, 29572, Note_on_c, 4, 57, 0
6, 29580, Note_on_c, 4, 55, 90
6, 29632, Note_on_c, 4, 55, 0
6, 29640, Note_on_c, 4, 57, 90
6, 29692, Note_on_c, 4, 57, 0
6, 29700, Note_on_c, 4, 55, 90
6, 29752, Note_on_c, 4, 55, 0
6, 29760, Note_on_c, 4, 54, 90
6, 29812, Note_on_c, 4, 54, 0
6, 29820, Note_on_c, 4, 55, 90
6, 29925, Note_on_c, 4, 55, 0
6, 30000, Note_on_c, 4, 47, 90
6, 30105, Note_on_c, 4, 47, 0
6, 30180, Note_on_c, 4, 48, 90
6, 30232, Note_on_c, 4, 48, 0
6, 30240, Note_on_c, 4, 45, 90
6, 30292, Note_on_c, 4, 45, 0
6, 30300, Note_on_c, 4, 48, 90
6, 30352, Note_on_c, 4, 48, 0
6, 30360, Note_on_c, 4, 50, 90
6, 30566, Note_on_c, 4, 50, 0
6, 30570, Note_on_c, 4, 52, 90
6, 30596, Note_on_c, 4, 52, 0
6, 30600, Note_on_c, 4, 54, 90
6, 30652, Note_on_c, 4, 54, 0
6, 30660, Note_on_c, 4, 50, 90
6, 30712, Note_on_c, 4, 50, 0
6, 30720, Note_on_c, 4, 47, 90
6, 30746, Note_on_c, 4, 47, 0
6, 30750, Note_on_c, 4, 48, 90
6, 30776, Note_on_c, 4, 48, 0
6, 30780, Note_on_c, 4, 50, 90
6, 30832, Note_on_c, 4, 50, 0
6, 30840, Note_on_c, 4, 47, 90
6, 30892, Note_on_c, 4, 47, 0
6, 30900, Note_on_c, 4, 44, 90
6, 30926, Note_on_c, 4, 44, 0
6, 30930, Note_on_c, 4, 45, 90
6, 30956, Note_on_c, 4, 45, 0
6, 30960, Note_on_c, 4, 47, 90
6, 31012, Note_on_c, 4, 47, 0
6, 31020, Note_on_c, 4, 44, 90
6, 31072, Note_on_c, 4, 44, 0
6, 31080, Note_on_c, 4, 40, 90
6, 31185, Note_on_c, 4, 40, 0
6, 31260, Note_on_c, 4, 52, 90
6, 31365, Note_on_c, 4, 52, 0
6, 31440, Note_on_c, 4, 45, 90
6, 31492, Note_on_c, 4, 45, 0
6, 31500, Note_on_c, 4, 48, 90
6, 31552, Note_on_c, 4, 48, 0
6, 31560, Note_on_c, 4, 52, 90
6, 31612, Note_on_c, 4, 52, 0
6, 31620, Note_on_c, 4, 57, 90
6, 31826, Note_on_c, 4, 57, 0
6, 31830, Note_on_c, 4, 59, 90
6, 31856, Note_on_c, 4, 59, 0
6, 31860, Note_on_c, 4, 60, 90
6, 31912, Note_on_c, 4, 60, 0
6, 31920, Note_on_c, 4, 57, 90
6, 31972, Note_on_c, 4, 57, 0
6, 31980, Note_on_c, 4, 54, 90
6, 32006, Note_on_c, 4, 54, 0
6, 32010, Note_on_c, 4, 55, 90
6, 32036, Note_on_c, 4, 55, 0
6, 32040, Note_on_c, 4, 57, 90
6, 32092, Note_on_c, 4, 57, 0
6, 32100, Note_on_c, 4, 54, 90
6, 32152, Note_on_c, 4, 54, 0
6, 32160, Note_on_c, 4, 50, 90
6, 32265, Note_on_c, 4, 50, 0
6, 32340, Note_on_c, 4, 38, 90
6, 32445, Note_on_c, 4, 38, 0
6, 32520, Note_on_c, 4, 43, 90
6, 32572, Note_on_c, 4, 43, 0
6, 32580, Note_on_c, 4, 47, 90
6, 32632, Note_on_c, 4, 47, 0
6, 32640, Note_on_c, 4, 50, 90
6, 32692, Note_on_c, 4, 50, 0
6, 32700, Note_on_c, 4, 55, 90
6, 32906, Note_on_c, 4, 55, 0
6, 32910, Note_on_c, 4, 57, 90
6, 32936, Note_on_c, 4, 57, 0
6, 32940, Note_on_c, 4, 59, 90
6, 32992, Note_on_c, 4, 59, 0
6, 33000, Note_on_c, 4, 55, 90
6, 33052, Note_on_c, 4, 55, 0
6, 33060, Note_on_c, 4, 48, 90
6, 33086, Note_on_c, 4, 48, 0
6, 33090, Note_on_c, 4, 50, 90
6, 33116, Note_on_c, 4, 50, 0
6, 33120, Note_on_c, 4, 52, 90
6, 33172, Note_on_c, 4, 52, 0
6, 33180, Note_on_c, 4, 48, 90
6, 33232, Note_on_c, 4, 48, 0
6, 33240, Note_on_c, 4, 45, 90
6, 33292, Note_on_c, 4, 45, 0
6, 33300, Note_on_c, 4, 48, 90
6, 33352, Note_on_c, 4, 48, 0
6, 33360, Note_on_c, 4, 52, 90
6, 33412, Note_on_c, 4, 52, 0
6, 33420, Note_on_c, 4, 57, 90
6, 33472, Note_on_c, 4, 57, 0
6, 33480, Note_on_c, 4, 55, 90
6, 33532, Note_on_c, 4, 55, 0
6, 33540, Note_on_c, 4, 57, 90
6, 33592, Note_on_c, 4, 57, 0
6, 33600, Note_on_c, 4, 50, 90
6, 33652, Note_on_c, 4, 50, 0
6, 33660, Note_on_c, 4, 54, 90
6, 33712, Note_on_c, 4, 54, 0
6, 33720, Note_on_c, 4, 57, 90
6, 33772, Note_on_c, 4, 57, 0
6, 33780, Note_on_c, 4, 54, 90
6, 34012, Note_on_c, 4, 54, 0
6, 34020, Note_on_c, 4, 55, 90
6, 34072, Note_on_c, 4, 55, 0
6, 34080, Note_on_c, 4, 57, 90
6, 34132, Note_on_c, 4, 57, 0
6, 34140, Note_on_c, 4, 50, 90
6, 34192, Note_on_c, 4, 50, 0
6, 34200, Note_on_c, 4, 55, 90
6, 34252, Note_on_c, 4, 55, 0
6, 34260, Note_on_c, 4, 59, 90
6, 34312, Note_on_c, 4, 59, 0
6, 34320, Note_on_c, 4, 55, 90
6, 34552, Note_on_c, 4, 55, 0
6, 34560, Note_on_c, 4, 57, 90
6, 34612, Note_on_c, 4, 57, 0
6, 34620, Note_on_c, 4, 59, 90
6, 34672, Note_on_c, 4, 59, 0
6, 34680, Note_on_c, 4, 52, 90
6, 34785, Note_on_c, 4, 52, 0
6, 34860, Note_on_c, 4, 54, 90
6, 34965, Note_on_c, 4, 54, 0
6, 35040, Note_on_c, 4, 55, 90
6, 35092, Note_on_c, 4, 55, 0
6, 35100, Note_on_c, 4, 48, 90
6, 35152, Note_on_c, 4, 48, 0
6, 35160, Note_on_c, 4, 50, 90
6, 35212, Note_on_c, 4, 50, 0
6, 35220, Note_on_c, 4, 43, 90
6, 35745, Note_on_c, 4, 43, 0
6, 35745, End_track
7, 0, Start_track
7, 0, MIDI_port, 0
7, 0, Title_t, "Clarinet"
7, 0, Program_c, 5, 71
7, 0, Control_c, 5, 7, 78
7, 0, Control_c, 5, 10, 64
7, 120, Note_on_c, 5, 67, 90
7, 146, Note_on_c, 5, 67, 0
7, 150, Note_on_c, 5, 71, 90
7, 176, Note_on_c, 5, 71, 0
7, 180, Note_on_c, 5, 74, 90
7, 206, Note_on_c, 5, 74, 0
7, 210, Note_on_c, 5, 71, 90
7, 236, Note_on_c, 5, 71, 0
7, 240, Note_on_c, 5, 67, 90
7, 266, Note_on_c, 5, 67, 0
7, 270, Note_on_c, 5, 66, 90
7, 296, Note_on_c, 5, 66, 0
7, 300, Note_on_c, 5, 67, 90
7, 326, Note_on_c, 5, 67, 0
7, 330, Note_on_c, 5, 71, 90
7, 356, Note_on_c, 5, 71, 0
7, 360, Note_on_c, 5, 74, 90
7, 386, Note_on_c, 5, 74, 0
7, 390, Note_on_c, 5, 71, 90
7, 416, Note_on_c, 5, 71, 0
7, 420, Note_on_c, 5, 67, 90
7, 446, Note_on_c, 5, 67, 0
7, 450, Note_on_c, 5, 66, 90
7, 476, Note_on_c, 5, 66, 0
7, 480, Note_on_c, 5, 67, 90
7, 532, Note_on_c, 5, 67, 0
7, 540, Note_on_c, 5, 76, 90
7, 592, Note_on_c, 5, 76, 0
7, 600, Note_on_c, 5, 74, 90
7, 652, Note_on_c, 5, 74, 0
7, 660, Note_on_c, 5, 74, 90
7, 866, Note_on_c, 5, 74, 0
7, 870, Note_on_c, 5, 79, 90
7, 896, Note_on_c, 5, 79, 0
7, 900, Note_on_c, 5, 83, 90
7, 926, Note_on_c, 5, 83, 0
7, 930, Note_on_c, 5, 79, 90
7, 956, Note_on_c, 5, 79, 0
7, 960, Note_on_c, 5, 76, 90
7, 986, Note_on_c, 5, 76, 0
7, 990, Note_on_c, 5, 74, 90
7, 1016, Note_on_c, 5, 74, 0
7, 1020, Note_on_c, 5, 72, 90
7, 1046, Note_on_c, 5, 72, 0
7, 1050, Note_on_c, 5, 78, 90
7, 1076, Note_on_c, 5, 78, 0
7, 1080, Note_on_c, 5, 81, 90
7, 1106, Note_on_c, 5, 81, 0
7, 1110, Note_on_c, 5, 78, 90
7, 1136, Note_on_c, 5, 78, 0
7, 1140, Note_on_c, 5, 74, 90
7, 1166, Note_on_c, 5, 74, 0
7, 1170, Note_on_c, 5, 72, 90
7, 1196, Note_on_c, 5, 72, 0
7, 1200, Note_on_c, 5, 71, 90
7, 1226, Note_on_c, 5, 71, 0
7, 1230, Note_on_c, 5, 74, 90
7, 1256, Note_on_c, 5, 74, 0
7, 1260, Note_on_c, 5, 79, 90
7, 1286, Note_on_c, 5, 79, 0
7, 1290, Note_on_c, 5, 74, 90
7, 1316, Note_on_c, 5, 74, 0
7, 1320, Note_on_c, 5, 71, 90
7, 1346, Note_on_c, 5, 71, 0
7, 1350, Note_on_c, 5, 69, 90
7, 1376, Note_on_c, 5, 69, 0
7, 1380, Note_on_c, 5, 67, 90
7, 1406, Note_on_c, 5, 67, 0
7, 1410, Note_on_c, 5, 71, 90
7, 1436, Note_on_c, 5, 71, 0
7, 1440, Note_on_c, 5, 74, 90
7, 1466, Note_on_c, 5, 74, 0
7, 1470, Note_on_c, 5, 71, 90
7, 1496, Note_on_c, 5, 71, 0
7, 1500, Note_on_c, 5, 67, 90
7, 1526, Note_on_c, 5, 67, 0
7, 1530, Note_on_c, 5, 66, 90
7, 1556, Note_on_c, 5, 66, 0
7, 1560, Note_on_c, 5, 64, 90
7, 1612, Note_on_c, 5, 64, 0
7, 1620, Note_on_c, 5, 72, 90
7, 1672, Note_on_c, 5, 72, 0
7, 1680, Note_on_c, 5, 69, 90
7, 1732, Note_on_c, 5, 69, 0
7, 1740, Note_on_c, 5, 66, 90
7, 1753, Note_on_c, 5, 66, 0
7, 1755, Note_on_c, 5, 67, 90
7, 1768, Note_on_c, 5, 67, 0
7, 1770, Note_on_c, 5, 66, 90
7, 1852, Note_on_c, 5, 66, 0
7, 1860, Note_on_c, 5, 64, 90
7, 1912, Note_on_c, 5, 64, 0
7, 1920, Note_on_c, 5, 62, 90
7, 2085, Note_on_c, 5, 62, 0
7, 2100, Note_on_c, 5, 74, 90
7, 2306, Note_on_c, 5, 74, 0
7, 2310, Note_on_c, 5, 64, 90
7, 2336, Note_on_c, 5, 64, 0
7, 2340, Note_on_c, 5, 68, 90
7, 2366, Note_on_c, 5, 68, 0
7, 2370, Note_on_c, 5, 71, 90
7, 2396, Note_on_c, 5, 71, 0
7, 2400, Note_on_c, 5, 74, 90
7, 2426, Note_on_c, 5, 74, 0
7, 2430, Note_on_c, 5, 72, 90
7, 2456, Note_on_c, 5, 72, 0
7, 2460, Note_on_c, 5, 74, 90
7, 2486, Note_on_c, 5, 74, 0
7, 2490, Note_on_c, 5, 80, 90
7, 2516, Note_on_c, 5, 80, 0
7, 2520, Note_on_c, 5, 83, 90
7, 2546, Note_on_c, 5, 83, 0
7, 2550, Note_on_c, 5, 80, 90
7, 2576, Note_on_c, 5, 80, 0
7, 2580, Note_on_c, 5, 76, 90
7, 2606, Note_on_c, 5, 76, 0
7, 2610, Note_on_c, 5, 74, 90
7, 2636, Note_on_c, 5, 74, 0
7, 2640, Note_on_c, 5, 72, 90
7, 2653, Note_on_c, 5, 72, 0
7, 2655, Note_on_c, 5, 74, 90
7, 2668, Note_on_c, 5, 74, 0
7, 2670, Note_on_c, 5, 72, 90
7, 2748, Note_on_c, 5, 72, 0
7, 2760, Note_on_c, 5, 71, 90
7, 2812, Note_on_c, 5, 71, 0
7, 2820, Note_on_c, 5, 72, 90
7, 3026, Note_on_c, 5, 72, 0
7, 3030, Note_on_c, 5, 69, 90
7, 3056, Note_on_c, 5, 69, 0
7, 3060, Note_on_c, 5, 68, 90
7, 3086, Note_on_c, 5, 68, 0
7, 3090, Note_on_c, 5, 69, 90
7, 3116, Note_on_c, 5, 69, 0
7, 3120, Note_on_c, 5, 64, 90
7, 3146, Note_on_c, 5, 64, 0
7, 3150, Note_on_c, 5, 69, 90
7, 3176, Note_on_c, 5, 69, 0
7, 3180, Note_on_c, 5, 60, 90
7, 3206, Note_on_c, 5, 60, 0
7, 3210, Note_on_c, 5, 64, 90
7, 3236, Note_on_c, 5, 64, 0
7, 3240, Note_on_c, 5, 57, 90
7, 3266, Note_on_c, 5, 57, 0
7, 3270, Note_on_c, 5, 60, 90
7, 3296, Note_on_c, 5, 60, 0
7, 3300, Note_on_c, 5, 64, 90
7, 3326, Note_on_c, 5, 64, 0
7, 3330, Note_on_c, 5, 69, 90
7, 3356, Note_on_c, 5, 69, 0
7, 3360, Note_on_c, 5, 72, 90
7, 3386, Note_on_c, 5, 72, 0
7, 3390, Note_on_c, 5, 62, 90
7, 3416, Note_on_c, 5, 62, 0
7, 3420, Note_on_c, 5, 66, 90
7, 3446, Note_on_c, 5, 66, 0
7, 3450, Note_on_c, 5, 69, 90
7, 3476, Note_on_c, 5, 69, 0
7, 3480, Note_on_c, 5, 72, 90
7, 3506, Note_on_c, 5, 72, 0
7, 3510, Note_on_c, 5, 71, 90
7, 3536, Note_on_c, 5, 71, 0
7, 3540, Note_on_c, 5, 72, 90
7, 3566, Note_on_c, 5, 72, 0
7, 3570, Note_on_c, 5, 78, 90
7, 3596, Note_on_c, 5, 78, 0
7, 3600, Note_on_c, 5, 81, 90
7, 3626, Note_on_c, 5, 81, 0
7, 3630, Note_on_c, 5, 78, 90
7, 3656, Note_on_c, 5, 78, 0
7, 3660, Note_on_c, 5, 74, 90
7, 3686, Note_on_c, 5, 74, 0
7, 3690, Note_on_c, 5, 72, 90
7, 3716, Note_on_c, 5, 72, 0
7, 3720, Note_on_c, 5, 71, 90
7, 3825, Note_on_c, 5, 71, 0
7, 3840, Note_on_c, 5, 69, 90
7, 3892, Note_on_c, 5, 69, 0
7, 3900, Note_on_c, 5, 71, 90
7, 4106, Note_on_c, 5, 71, 0
7, 4110, Note_on_c, 5, 67, 90
7, 4136, Note_on_c, 5, 67, 0
7, 4140, Note_on_c, 5, 66, 90
7, 4166, Note_on_c, 5, 66, 0
7, 4170, Note_on_c, 5, 67, 90
7, 4196, Note_on_c, 5, 67, 0
7, 4200, Note_on_c, 5, 62, 90
7, 4226, Note_on_c, 5, 62, 0
7, 4230, Note_on_c, 5, 67, 90
7, 4256, Note_on_c, 5, 67, 0
7, 4260, Note_on_c, 5, 59, 90
7, 4286, Note_on_c, 5, 59, 0
7, 4290, Note_on_c, 5, 62, 90
7, 4316, Note_on_c, 5, 62, 0
7, 4320, Note_on_c, 5, 55, 90
7, 4346, Note_on_c, 5, 55, 0
7, 4350, Note_on_c, 5, 59, 90
7, 4376, Note_on_c, 5, 59, 0
7, 4380, Note_on_c, 5, 62, 90
7, 4406, Note_on_c, 5, 62, 0
7, 4410, Note_on_c, 5, 65, 90
7, 4436, Note_on_c, 5, 65, 0
7, 4440, Note_on_c, 5, 64, 90
7, 4646, Note_on_c, 5, 64, 0
7, 4650, Note_on_c, 5, 72, 90
7, 4676, Note_on_c, 5, 72, 0
7, 4680, Note_on_c, 5, 71, 90
7, 4706, Note_on_c, 5, 71, 0
7, 4710, Note_on_c, 5, 72, 90
7, 4736, Note_on_c, 5, 72, 0
7, 4740, Note_on_c, 5, 81, 90
7, 4766, Note_on_c, 5, 81, 0
7, 4770, Note_on_c, 5, 72, 90
7, 4796, Note_on_c, 5, 72, 0
7, 4800, Note_on_c, 5, 64, 90
7, 4826, Note_on_c, 5, 64, 0
7, 4830, Note_on_c, 5, 72, 90
7, 4856, Note_on_c, 5, 72, 0
7, 4860, Note_on_c, 5, 71, 90
7, 4886, Note_on_c, 5, 71, 0
7, 4890, Note_on_c, 5, 72, 90
7, 4916, Note_on_c, 5, 72, 0
7, 4920, Note_on_c, 5, 79, 90
7, 4946, Note_on_c, 5, 79, 0
7, 4950, Note_on_c, 5, 72, 90
7, 4976, Note_on_c, 5, 72, 0
7, 4980, Note_on_c, 5, 62, 90
7, 5006, Note_on_c, 5, 62, 0
7, 5010, Note_on_c, 5, 72, 90
7, 5036, Note_on_c, 5, 72, 0
7, 5040, Note_on_c, 5, 71, 90
7, 5066, Note_on_c, 5, 71, 0
7, 5070, Note_on_c, 5, 72, 90
7, 5096, Note_on_c, 5, 72, 0
7, 5100, Note_on_c, 5, 78, 90
7, 5126, Note_on_c, 5, 78, 0
7, 5130, Note_on_c, 5, 72, 90
7, 5156, Note_on_c, 5, 72, 0
7, 5160, Note_on_c, 5, 62, 90
7, 5186, Note_on_c, 5, 62, 0
7, 5190, Note_on_c, 5, 72, 90
7, 5216, Note_on_c, 5, 72, 0
7, 5220, Note_on_c, 5, 71, 90
7, 5246, Note_on_c, 5, 71, 0
7, 5250, Note_on_c, 5, 72, 90
7, 5276, Note_on_c, 5, 72, 0
7, 5280, Note_on_c, 5, 81, 90
7, 5306, Note_on_c, 5, 81, 0
7, 5310, Note_on_c, 5, 72, 90
7, 5336, Note_on_c, 5, 72, 0
7, 5340, Note_on_c, 5, 62, 90
7, 5366, Note_on_c, 5, 62, 0
7, 5370, Note_on_c, 5, 72, 90
7, 5396, Note_on_c, 5, 72, 0
7, 5400, Note_on_c, 5, 71, 90
7, 5426, Note_on_c, 5, 71, 0
7, 5430, Note_on_c, 5, 72, 90
7, 5456, Note_on_c, 5, 72, 0
7, 5460, Note_on_c, 5, 78, 90
7, 5486, Note_on_c, 5, 78, 0
7, 5490, Note_on_c, 5, 72, 90
7, 5516, Note_on_c, 5, 72, 0
7, 5520, Note_on_c, 5, 62, 90
7, 5546, Note_on_c, 5, 62, 0
7, 5550, Note_on_c, 5, 71, 90
7, 5576, Note_on_c, 5, 71, 0
7, 5580, Note_on_c, 5, 69, 90
7, 5606, Note_on_c, 5, 69, 0
7, 5610, Note_on_c, 5, 71, 90
7, 5636, Note_on_c, 5, 71, 0
7, 5640, Note_on_c, 5, 79, 90
7, 5666, Note_on_c, 5, 79, 0
7, 5670, Note_on_c, 5, 71, 90
7, 5696, Note_on_c, 5, 71, 0
7, 5700, Note_on_c, 5, 62, 90
7, 5726, Note_on_c, 5, 62, 0
7, 5730, Note_on_c, 5, 71, 90
7, 5756, Note_on_c, 5, 71, 0
7, 5760, Note_on_c, 5, 69, 90
7, 5786, Note_on_c, 5, 69, 0
7, 5790, Note_on_c, 5, 71, 90
7, 5816, Note_on_c, 5, 71, 0
7, 5820, Note_on_c, 5, 74, 90
7, 5846, Note_on_c, 5, 74, 0
7, 5850, Note_on_c, 5, 71, 90
7, 5876, Note_on_c, 5, 71, 0
7, 5880, Note_on_c, 5, 62, 90
7, 5906, Note_on_c, 5, 62, 0
7, 5910, Note_on_c, 5, 71, 90
7, 5936, Note_on_c, 5, 71, 0
7, 5940, Note_on_c, 5, 69, 90
7, 5966, Note_on_c, 5, 69, 0
7, 5970, Note_on_c, 5, 71, 90
7, 5996, Note_on_c, 5, 71, 0
7, 6000, Note_on_c, 5, 79, 90
7, 6026, Note_on_c, 5, 79, 0
7, 6030, Note_on_c, 5, 71, 90
7, 6056, Note_on_c, 5, 71, 0
7, 6060, Note_on_c, 5, 73, 90
7, 6086, Note_on_c, 5, 73, 0
7, 6090, Note_on_c, 5, 82, 90
7, 6116, Note_on_c, 5, 82, 0
7, 6120, Note_on_c, 5, 81, 90
7, 6146, Note_on_c, 5, 81, 0
7, 6150, Note_on_c, 5, 79, 90
7, 6176, Note_on_c, 5, 79, 0
7, 6180, Note_on_c, 5, 78, 90
7, 6206, Note_on_c, 5, 78, 0
7, 6210, Note_on_c, 5, 79, 90
7, 6236, Note_on_c, 5, 79, 0
7, 6240, Note_on_c, 5, 72, 90
7, 6266, Note_on_c, 5, 72, 0
7, 6270, Note_on_c, 5, 83, 90
7, 6296, Note_on_c, 5, 83, 0
7, 6300, Note_on_c, 5, 81, 90
7, 6326, Note_on_c, 5, 81, 0
7, 6330, Note_on_c, 5, 79, 90
7, 6356, Note_on_c, 5, 79, 0
7, 6360, Note_on_c, 5, 78, 90
7, 6386, Note_on_c, 5, 78, 0
7, 6390, Note_on_c, 5, 79, 90
7, 6416, Note_on_c, 5, 79, 0
7, 6420, Note_on_c, 5, 71, 90
7, 6472, Note_on_c, 5, 71, 0
7, 6480, Note_on_c, 5, 72, 90
7, 6532, Note_on_c, 5, 72, 0
7, 6540, Note_on_c, 5, 69, 90
7, 6592, Note_on_c, 5, 69, 0
7, 6600, Note_on_c, 5, 67, 90
7, 6765, Note_on_c, 5, 67, 0
7, 7140, Note_on_c, 5, 67, 90
7, 7166, Note_on_c, 5, 67, 0
7, 7170, Note_on_c, 5, 71, 90
7, 7196, Note_on_c, 5, 71, 0
7, 7200, Note_on_c, 5, 74, 90
7, 7226, Note_on_c, 5, 74, 0
7, 7230, Note_on_c, 5, 71, 90
7, 7256, Note_on_c, 5, 71, 0
7, 7260, Note_on_c, 5, 67, 90
7, 7286, Note_on_c, 5, 67, 0
7, 7290, Note_on_c, 5, 66, 90
7, 7316, Note_on_c, 5, 66, 0
7, 7320, Note_on_c, 5, 67, 90
7, 7346, Note_on_c, 5, 67, 0
7, 7350, Note_on_c, 5, 71, 90
7, 7376, Note_on_c, 5, 71, 0
7, 7380, Note_on_c, 5, 74, 90
7, 7406, Note_on_c, 5, 74, 0
7, 7410, Note_on_c, 5, 71, 90
7, 7436, Note_on_c, 5, 71, 0
7, 7440, Note_on_c, 5, 67, 90
7, 7466, Note_on_c, 5, 67, 0
7, 7470, Note_on_c, 5, 66, 90
7, 7496, Note_on_c, 5, 66, 0
7, 7500, Note_on_c, 5, 67, 90
7, 7552, Note_on_c, 5, 67, 0
7, 7560, Note_on_c, 5, 76, 90
7, 7612, Note_on_c, 5, 76, 0
7, 7620, Note_on_c, 5, 74, 90
7, 7672, Note_on_c, 5, 74, 0
7, 7680, Note_on_c, 5, 74, 90
7, 7886, Note_on_c, 5, 74, 0
7, 7890, Note_on_c, 5, 78, 90
7, 7916, Note_on_c, 5, 78, 0
7, 7920, Note_on_c, 5, 81, 90
7, 7946, Note_on_c, 5, 81, 0
7, 7950, Note_on_c, 5, 78, 90
7, 7976, Note_on_c, 5, 78, 0
7, 7980, Note_on_c, 5, 72, 90
7, 8006, Note_on_c, 5, 72, 0
7, 8010, Note_on_c, 5, 71, 90
7, 8036, Note_on_c, 5, 71, 0
7, 8040, Note_on_c, 5, 72, 90
7, 8066, Note_on_c, 5, 72, 0
7, 8070, Note_on_c, 5, 78, 90
7, 8096, Note_on_c, 5, 78, 0
7, 8100, Note_on_c, 5, 81, 90
7, 8126, Note_on_c, 5, 81, 0
7, 8130, Note_on_c, 5, 78, 90
7, 8156, Note_on_c, 5, 78, 0
7, 8160, Note_on_c, 5, 71, 90
7, 8186, Note_on_c, 5, 71, 0
7, 8190, Note_on_c, 5, 69, 90
7, 8216, Note_on_c, 5, 69, 0
7, 8220, Note_on_c, 5, 67, 90
7, 8272, Note_on_c, 5, 67, 0
7, 8790, Note_on_c, 5, 62, 90
7, 8816, Note_on_c, 5, 62, 0
7, 8820, Note_on_c, 5, 66, 90
7, 8846, Note_on_c, 5, 66, 0
7, 8850, Note_on_c, 5, 69, 90
7, 8876, Note_on_c, 5, 69, 0
7, 8880, Note_on_c, 5, 72, 90
7, 8906, Note_on_c, 5, 72, 0
7, 8910, Note_on_c, 5, 71, 90
7, 8936, Note_on_c, 5, 71, 0
7, 8940, Note_on_c, 5, 72, 90
7, 8966, Note_on_c, 5, 72, 0
7, 8970, Note_on_c, 5, 78, 90
7, 8996, Note_on_c, 5, 78, 0
7, 9000, Note_on_c, 5, 81, 90
7, 9026, Note_on_c, 5, 81, 0
7, 9030, Note_on_c, 5, 78, 90
7, 9056, Note_on_c, 5, 78, 0
7, 9060, Note_on_c, 5, 74, 90
7, 9086, Note_on_c, 5, 74, 0
7, 9090, Note_on_c, 5, 72, 90
7, 9116, Note_on_c, 5, 72, 0
7, 9120, Note_on_c, 5, 71, 90
7, 9225, Note_on_c, 5, 71, 0
7, 9240, Note_on_c, 5, 69, 90
7, 9292, Note_on_c, 5, 69, 0
7, 9300, Note_on_c, 5, 71, 90
7, 9506, Note_on_c, 5, 71, 0
7, 9510, Note_on_c, 5, 67, 90
7, 9536, Note_on_c, 5, 67, 0
7, 9540, Note_on_c, 5, 66, 90
7, 9566, Note_on_c, 5, 66, 0
7, 9570, Note_on_c, 5, 67, 90
7, 9596, Note_on_c, 5, 67, 0
7, 9600, Note_on_c, 5, 62, 90
7, 9626, Note_on_c, 5, 62, 0
7, 9630, Note_on_c, 5, 67, 90
7, 9656, Note_on_c, 5, 67, 0
7, 9660, Note_on_c, 5, 59, 90
7, 9686, Note_on_c, 5, 59, 0
7, 9690, Note_on_c, 5, 62, 90
7, 9716, Note_on_c, 5, 62, 0
7, 9720, Note_on_c, 5, 55, 90
7, 9746, Note_on_c, 5, 55, 0
7, 9750, Note_on_c, 5, 59, 90
7, 9776, Note_on_c, 5, 59, 0
7, 9780, Note_on_c, 5, 62, 90
7, 9806, Note_on_c, 5, 62, 0
7, 9810, Note_on_c, 5, 65, 90
7, 9836, Note_on_c, 5, 65, 0
7, 9840, Note_on_c, 5, 64, 90
7, 10046, Note_on_c, 5, 64, 0
7, 10050, Note_on_c, 5, 72, 90
7, 10076, Note_on_c, 5, 72, 0
7, 10080, Note_on_c, 5, 71, 90
7, 10106, Note_on_c, 5, 71, 0
7, 10110, Note_on_c, 5, 72, 90
7, 10136, Note_on_c, 5, 72, 0
7, 10140, Note_on_c, 5, 81, 90
7, 10166, Note_on_c, 5, 81, 0
7, 10170, Note_on_c, 5, 72, 90
7, 10196, Note_on_c, 5, 72, 0
7, 10200, Note_on_c, 5, 64, 90
7, 10226, Note_on_c, 5, 64, 0
7, 10230, Note_on_c, 5, 72, 90
7, 10256, Note_on_c, 5, 72, 0
7, 10260, Note_on_c, 5, 71, 90
7, 10286, Note_on_c, 5, 71, 0
7, 10290, Note_on_c, 5, 72, 90
7, 10316, Note_on_c, 5, 72, 0
7, 10320, Note_on_c, 5, 79, 90
7, 10346, Note_on_c, 5, 79, 0
7, 10350, Note_on_c, 5, 72, 90
7, 10376, Note_on_c, 5, 72, 0
7, 10380, Note_on_c, 5, 62, 90
7, 10406, Note_on_c, 5, 62, 0
7, 10410, Note_on_c, 5, 72, 90
7, 10436, Note_on_c, 5, 72, 0
7, 10440, Note_on_c, 5, 71, 90
7, 10466, Note_on_c, 5, 71, 0
7, 10470, Note_on_c, 5, 72, 90
7, 10496, Note_on_c, 5, 72, 0
7, 10500, Note_on_c, 5, 78, 90
7, 10526, Note_on_c, 5, 78, 0
7, 10530, Note_on_c, 5, 72, 90
7, 10556, Note_on_c, 5, 72, 0
7, 10560, Note_on_c, 5, 62, 90
7, 10586, Note_on_c, 5, 62, 0
7, 10590, Note_on_c, 5, 72, 90
7, 10616, Note_on_c, 5, 72, 0
7, 10620, Note_on_c, 5, 71, 90
7, 10646, Note_on_c, 5, 71, 0
7, 10650, Note_on_c, 5, 72, 90
7, 10676, Note_on_c, 5, 72, 0
7, 10680, Note_on_c, 5, 81, 90
7, 10706, Note_on_c, 5, 81, 0
7, 10710, Note_on_c, 5, 72, 90
7, 10736, Note_on_c, 5, 72, 0
7, 10740, Note_on_c, 5, 62, 90
7, 10766, Note_on_c, 5, 62, 0
7, 10770, Note_on_c, 5, 72, 90
7, 10796, Note_on_c, 5, 72, 0
7, 10800, Note_on_c, 5, 71, 90
7, 10826, Note_on_c, 5, 71, 0
7, 10830, Note_on_c, 5, 72, 90
7, 10856, Note_on_c, 5, 72, 0
7, 10860, Note_on_c, 5, 78, 90
7, 10886, Note_on_c, 5, 78, 0
7, 10890, Note_on_c, 5, 72, 90
7, 10916, Note_on_c, 5, 72, 0
7, 10920, Note_on_c, 5, 62, 90
7, 10946, Note_on_c, 5, 62, 0
7, 10950, Note_on_c, 5, 71, 90
7, 10976, Note_on_c, 5, 71, 0
7, 10980, Note_on_c, 5, 69, 90
7, 11006, Note_on_c, 5, 69, 0
7, 11010, Note_on_c, 5, 71, 90
7, 11036, Note_on_c, 5, 71, 0
7, 11040, Note_on_c, 5, 79, 90
7, 11066, Note_on_c, 5, 79, 0
7, 11070, Note_on_c, 5, 71, 90
7, 11096, Note_on_c, 5, 71, 0
7, 11100, Note_on_c, 5, 62, 90
7, 11126, Note_on_c, 5, 62, 0
7, 11130, Note_on_c, 5, 71, 90
7, 11156, Note_on_c, 5, 71, 0
7, 11160, Note_on_c, 5, 69, 90
7, 11186, Note_on_c, 5, 69, 0
7, 11190, Note_on_c, 5, 71, 90
7, 11216, Note_on_c, 5, 71, 0
7, 11220, Note_on_c, 5, 74, 90
7, 11246, Note_on_c, 5, 74, 0
7, 11250, Note_on_c, 5, 71, 90
7, 11276, Note_on_c, 5, 71, 0
7, 11280, Note_on_c, 5, 62, 90
7, 11306, Note_on_c, 5, 62, 0
7, 11310, Note_on_c, 5, 71, 90
7, 11336, Note_on_c, 5, 71, 0
7, 11340, Note_on_c, 5, 69, 90
7, 11366, Note_on_c, 5, 69, 0
7, 11370, Note_on_c, 5, 71, 90
7, 11396, Note_on_c, 5, 71, 0
7, 11400, Note_on_c, 5, 79, 90
7, 11426, Note_on_c, 5, 79, 0
7, 11430, Note_on_c, 5, 71, 90
7, 11456, Note_on_c, 5, 71, 0
7, 11460, Note_on_c, 5, 73, 90
7, 11486, Note_on_c, 5, 73, 0
7, 11490, Note_on_c, 5, 82, 90
7, 11516, Note_on_c, 5, 82, 0
7, 11520, Note_on_c, 5, 81, 90
7, 11546, Note_on_c, 5, 81, 0
7, 11550, Note_on_c, 5, 79, 90
7, 11576, Note_on_c, 5, 79, 0
7, 11580, Note_on_c, 5, 78, 90
7, 11606, Note_on_c, 5, 78, 0
7, 11610, Note_on_c, 5, 79, 90
7, 11636, Note_on_c, 5, 79, 0
7, 11640, Note_on_c, 5, 72, 90
7, 11666, Note_on_c, 5, 72, 0
7, 11670, Note_on_c, 5, 83, 90
7, 11696, Note_on_c, 5, 83, 0
7, 11700, Note_on_c, 5, 81, 90
7, 11726, Note_on_c, 5, 81, 0
7, 11730, Note_on_c, 5, 79, 90
7, 11756, Note_on_c, 5, 79, 0
7, 11760, Note_on_c, 5, 78, 90
7, 11786, Note_on_c, 5, 78, 0
7, 11790, Note_on_c, 5, 79, 90
7, 11816, Note_on_c, 5, 79, 0
7, 11820, Note_on_c, 5, 71, 90
7, 11872, Note_on_c, 5, 71, 0
7, 11880, Note_on_c, 5, 72, 90
7, 11932, Note_on_c, 5, 72, 0
7, 11940, Note_on_c, 5, 69, 90
7, 11992, Note_on_c, 5, 69, 0
7, 12000, Note_on_c, 5, 67, 90
7, 12165, Note_on_c, 5, 67, 0
7, 12540, Note_on_c, 5, 67, 90
7, 12566, Note_on_c, 5, 67, 0
7, 12570, Note_on_c, 5, 71, 90
7, 12596, Note_on_c, 5, 71, 0
7, 12600, Note_on_c, 5, 74, 90
7, 12626, Note_on_c, 5, 74, 0
7, 12630, Note_on_c, 5, 71, 90
7, 12656, Note_on_c, 5, 71, 0
7, 12660, Note_on_c, 5, 67, 90
7, 12686, Note_on_c, 5, 67, 0
7, 12690, Note_on_c, 5, 66, 90
7, 12716, Note_on_c, 5, 66, 0
7, 12720, Note_on_c, 5, 67, 90
7, 12746, Note_on_c, 5, 67, 0
7, 12750, Note_on_c, 5, 71, 90
7, 12776, Note_on_c, 5, 71, 0
7, 12780, Note_on_c, 5, 74, 90
7, 12806, Note_on_c, 5, 74, 0
7, 12810, Note_on_c, 5, 71, 90
7, 12836, Note_on_c, 5, 71, 0
7, 12840, Note_on_c, 5, 67, 90
7, 12866, Note_on_c, 5, 67, 0
7, 12870, Note_on_c, 5, 66, 90
7, 12896, Note_on_c, 5, 66, 0
7, 12900, Note_on_c, 5, 67, 90
7, 12952, Note_on_c, 5, 67, 0
7, 12960, Note_on_c, 5, 76, 90
7, 13012, Note_on_c, 5, 76, 0
7, 13020, Note_on_c, 5, 74, 90
7, 13072, Note_on_c, 5, 74, 0
7, 13080, Note_on_c, 5, 74, 90
7, 13286, Note_on_c, 5, 74, 0
7, 13290, Note_on_c, 5, 78, 90
7, 13316, Note_on_c, 5, 78, 0
7, 13320, Note_on_c, 5, 81, 90
7, 13346, Note_on_c, 5, 81, 0
7, 13350, Note_on_c, 5, 78, 90
7, 13376, Note_on_c, 5, 78, 0
7, 13380, Note_on_c, 5, 72, 90
7, 13406, Note_on_c, 5, 72, 0
7, 13410, Note_on_c, 5, 71, 90
7, 13436, Note_on_c, 5, 71, 0
7, 13440, Note_on_c, 5, 72, 90
7, 13466, Note_on_c, 5, 72, 0
7, 13470, Note_on_c, 5, 78, 90
7, 13496, Note_on_c, 5, 78, 0
7, 13500, Note_on_c, 5, 81, 90
7, 13526, Note_on_c, 5, 81, 0
7, 13530, Note_on_c, 5, 78, 90
7, 13556, Note_on_c, 5, 78, 0
7, 13560, Note_on_c, 5, 71, 90
7, 13586, Note_on_c, 5, 71, 0
7, 13590, Note_on_c, 5, 69, 90
7, 13616, Note_on_c, 5, 69, 0
7, 13620, Note_on_c, 5, 67, 90
7, 13672, Note_on_c, 5, 67, 0
7, 14190, Note_on_c, 5, 62, 90
7, 14216, Note_on_c, 5, 62, 0
7, 14220, Note_on_c, 5, 66, 90
7, 14246, Note_on_c, 5, 66, 0
7, 14250, Note_on_c, 5, 69, 90
7, 14276, Note_on_c, 5, 69, 0
7, 14280, Note_on_c, 5, 72, 90
7, 14306, Note_on_c, 5, 72, 0
7, 14310, Note_on_c, 5, 71, 90
7, 14336, Note_on_c, 5, 71, 0
7, 14340, Note_on_c, 5, 72, 90
7, 14366, Note_on_c, 5, 72, 0
7, 14370, Note_on_c, 5, 78, 90
7, 14396, Note_on_c, 5, 78, 0
7, 14400, Note_on_c, 5, 81, 90
7, 14426, Note_on_c, 5, 81, 0
7, 14430, Note_on_c, 5, 78, 90
7, 14456, Note_on_c, 5, 78, 0
7, 14460, Note_on_c, 5, 74, 90
7, 14486, Note_on_c, 5, 74, 0
7, 14490, Note_on_c, 5, 72, 90
7, 14516, Note_on_c, 5, 72, 0
7, 14520, Note_on_c, 5, 71, 90
7, 14625, Note_on_c, 5, 71, 0
7, 14640, Note_on_c, 5, 69, 90
7, 14692, Note_on_c, 5, 69, 0
7, 14700, Note_on_c, 5, 71, 90
7, 14726, Note_on_c, 5, 71, 0
7, 14730, Note_on_c, 5, 74, 90
7, 14756, Note_on_c, 5, 74, 0
7, 14760, Note_on_c, 5, 79, 90
7, 14786, Note_on_c, 5, 79, 0
7, 14790, Note_on_c, 5, 74, 90
7, 14816, Note_on_c, 5, 74, 0
7, 14820, Note_on_c, 5, 71, 90
7, 14846, Note_on_c, 5, 71, 0
7, 14850, Note_on_c, 5, 69, 90
7, 14876, Note_on_c, 5, 69, 0
7, 14880, Note_on_c, 5, 67, 90
7, 14906, Note_on_c, 5, 67, 0
7, 14910, Note_on_c, 5, 71, 90
7, 14936, Note_on_c, 5, 71, 0
7, 14940, Note_on_c, 5, 74, 90
7, 14966, Note_on_c, 5, 74, 0
7, 14970, Note_on_c, 5, 71, 90
7, 14996, Note_on_c, 5, 71, 0
7, 15000, Note_on_c, 5, 67, 90
7, 15026, Note_on_c, 5, 67, 0
7, 15030, Note_on_c, 5, 66, 90
7, 15056, Note_on_c, 5, 66, 0
7, 15060, Note_on_c, 5, 64, 90
7, 15112, Note_on_c, 5, 64, 0
7, 15120, Note_on_c, 5, 72, 90
7, 15172, Note_on_c, 5, 72, 0
7, 15180, Note_on_c, 5, 69, 90
7, 15232, Note_on_c, 5, 69, 0
7, 15240, Note_on_c, 5, 66, 90
7, 15253, Note_on_c, 5, 66, 0
7, 15255, Note_on_c, 5, 67, 90
7, 15268, Note_on_c, 5, 67, 0
7, 15270, Note_on_c, 5, 66, 90
7, 15348, Note_on_c, 5, 66, 0
7, 15360, Note_on_c, 5, 64, 90
7, 15412, Note_on_c, 5, 64, 0
7, 15420, Note_on_c, 5, 62, 90
7, 15585, Note_on_c, 5, 62, 0
7, 15600, Note_on_c, 5, 74, 90
7, 15806, Note_on_c, 5, 74, 0
7, 15810, Note_on_c, 5, 64, 90
7, 15836, Note_on_c, 5, 64, 0
7, 15840, Note_on_c, 5, 68, 90
7, 15866, Note_on_c, 5, 68, 0
7, 15870, Note_on_c, 5, 71, 90
7, 15896, Note_on_c, 5, 71, 0
7, 15900, Note_on_c, 5, 74, 90
7, 15926, Note_on_c, 5, 74, 0
7, 15930, Note_on_c, 5, 72, 90
7, 15956, Note_on_c, 5, 72, 0
7, 15960, Note_on_c, 5, 74, 90
7, 15986, Note_on_c, 5, 74, 0
7, 15990, Note_on_c, 5, 80, 90
7, 16016, Note_on_c, 5, 80, 0
7, 16020, Note_on_c, 5, 83, 90
7, 16046, Note_on_c, 5, 83, 0
7, 16050, Note_on_c, 5, 80, 90
7, 16076, Note_on_c, 5, 80, 0
7, 16080, Note_on_c, 5, 76, 90
7, 16106, Note_on_c, 5, 76, 0
7, 16110, Note_on_c, 5, 74, 90
7, 16136, Note_on_c, 5, 74, 0
7, 16140, Note_on_c, 5, 72, 90
7, 16153, Note_on_c, 5, 72, 0
7, 16155, Note_on_c, 5, 74, 90
7, 16168, Note_on_c, 5, 74, 0
7, 16170, Note_on_c, 5, 72, 90
7, 16248, Note_on_c, 5, 72, 0
7, 16260, Note_on_c, 5, 71, 90
7, 16312, Note_on_c, 5, 71, 0
7, 16320, Note_on_c, 5, 72, 90
7, 16526, Note_on_c, 5, 72, 0
7, 16530, Note_on_c, 5, 69, 90
7, 16556, Note_on_c, 5, 69, 0
7, 16560, Note_on_c, 5, 68, 90
7, 16586, Note_on_c, 5, 68, 0
7, 16590, Note_on_c, 5, 69, 90
7, 16616, Note_on_c, 5, 69, 0
7, 16620, Note_on_c, 5, 64, 90
7, 16646, Note_on_c, 5, 64, 0
7, 16650, Note_on_c, 5, 69, 90
7, 16676, Note_on_c, 5, 69, 0
7, 16680, Note_on_c, 5, 60, 90
7, 16706, Note_on_c, 5, 60, 0
7, 16710, Note_on_c, 5, 64, 90
7, 16736, Note_on_c, 5, 64, 0
7, 16740, Note_on_c, 5, 57, 90
7, 16766, Note_on_c, 5, 57, 0
7, 16770, Note_on_c, 5, 60, 90
7, 16796, Note_on_c, 5, 60, 0
7, 16800, Note_on_c, 5, 64, 90
7, 16826, Note_on_c, 5, 64, 0
7, 16830, Note_on_c, 5, 69, 90
7, 16856, Note_on_c, 5, 69, 0
7, 16860, Note_on_c, 5, 72, 90
7, 16886, Note_on_c, 5, 72, 0
7, 16890, Note_on_c, 5, 63, 90
7, 16916, Note_on_c, 5, 63, 0
7, 16920, Note_on_c, 5, 66, 90
7, 16946, Note_on_c, 5, 66, 0
7, 16950, Note_on_c, 5, 69, 90
7, 16976, Note_on_c, 5, 69, 0
7, 16980, Note_on_c, 5, 72, 90
7, 17006, Note_on_c, 5, 72, 0
7, 17010, Note_on_c, 5, 71, 90
7, 17036, Note_on_c, 5, 71, 0
7, 17040, Note_on_c, 5, 72, 90
7, 17066, Note_on_c, 5, 72, 0
7, 17070, Note_on_c, 5, 78, 90
7, 17096, Note_on_c, 5, 78, 0
7, 17100, Note_on_c, 5, 81, 90
7, 17126, Note_on_c, 5, 81, 0
7, 17130, Note_on_c, 5, 78, 90
7, 17156, Note_on_c, 5, 78, 0
7, 17160, Note_on_c, 5, 72, 90
7, 17186, Note_on_c, 5, 72, 0
7, 17190, Note_on_c, 5, 71, 90
7, 17216, Note_on_c, 5, 71, 0
7, 17220, Note_on_c, 5, 69, 90
7, 17272, Note_on_c, 5, 69, 0
7, 17280, Note_on_c, 5, 67, 90
7, 17332, Note_on_c, 5, 67, 0
7, 17340, Note_on_c, 5, 66, 90
7, 17392, Note_on_c, 5, 66, 0
7, 17400, Note_on_c, 5, 67, 90
7, 17606, Note_on_c, 5, 67, 0
7, 17610, Note_on_c, 5, 64, 90
7, 17636, Note_on_c, 5, 64, 0
7, 17640, Note_on_c, 5, 63, 90
7, 17666, Note_on_c, 5, 63, 0
7, 17670, Note_on_c, 5, 64, 90
7, 17696, Note_on_c, 5, 64, 0
7, 17700, Note_on_c, 5, 59, 90
7, 17726, Note_on_c, 5, 59, 0
7, 17730, Note_on_c, 5, 64, 90
7, 17756, Note_on_c, 5, 64, 0
7, 17760, Note_on_c, 5, 55, 90
7, 17786, Note_on_c, 5, 55, 0
7, 17790, Note_on_c, 5, 59, 90
7, 17816, Note_on_c, 5, 59, 0
7, 17820, Note_on_c, 5, 64, 90
7, 17846, Note_on_c, 5, 64, 0
7, 17850, Note_on_c, 5, 67, 90
7, 17876, Note_on_c, 5, 67, 0
7, 17880, Note_on_c, 5, 71, 90
7, 17906, Note_on_c, 5, 71, 0
7, 17910, Note_on_c, 5, 74, 90
7, 17936, Note_on_c, 5, 74, 0
7, 17940, Note_on_c, 5, 72, 90
7, 18146, Note_on_c, 5, 72, 0
7, 18150, Note_on_c, 5, 77, 90
7, 18176, Note_on_c, 5, 77, 0
7, 18180, Note_on_c, 5, 76, 90
7, 18206, Note_on_c, 5, 76, 0
7, 18210, Note_on_c, 5, 77, 90
7, 18236, Note_on_c, 5, 77, 0
7, 18240, Note_on_c, 5, 81, 90
7, 18266, Note_on_c, 5, 81, 0
7, 18270, Note_on_c, 5, 77, 90
7, 18296, Note_on_c, 5, 77, 0
7, 18300, Note_on_c, 5, 72, 90
7, 18326, Note_on_c, 5, 72, 0
7, 18330, Note_on_c, 5, 77, 90
7, 18356, Note_on_c, 5, 77, 0
7, 18360, Note_on_c, 5, 76, 90
7, 18386, Note_on_c, 5, 76, 0
7, 18390, Note_on_c, 5, 77, 90
7, 18416, Note_on_c, 5, 77, 0
7, 18420, Note_on_c, 5, 84, 90
7, 18446, Note_on_c, 5, 84, 0
7, 18450, Note_on_c, 5, 76, 90
7, 18476, Note_on_c, 5, 76, 0
7, 18480, Note_on_c, 5, 75, 90
7, 18506, Note_on_c, 5, 75, 0
7, 18510, Note_on_c, 5, 71, 90
7, 18536, Note_on_c, 5, 71, 0
7, 18540, Note_on_c, 5, 69, 90
7, 18566, Note_on_c, 5, 69, 0
7, 18570, Note_on_c, 5, 71, 90
7, 18596, Note_on_c, 5, 71, 0
7, 18600, Note_on_c, 5, 73, 90
7, 18626, Note_on_c, 5, 73, 0
7, 18630, Note_on_c, 5, 71, 90
7, 18656, Note_on_c, 5, 71, 0
7, 18660, Note_on_c, 5, 75, 90
7, 18686, Note_on_c, 5, 75, 0
7, 18690, Note_on_c, 5, 71, 90
7, 18716, Note_on_c, 5, 71, 0
7, 18720, Note_on_c, 5, 69, 90
7, 18746, Note_on_c, 5, 69, 0
7, 18750, Note_on_c, 5, 71, 90
7, 18776, Note_on_c, 5, 71, 0
7, 18780, Note_on_c, 5, 76, 90
7, 18806, Note_on_c, 5, 76, 0
7, 18810, Note_on_c, 5, 71, 90
7, 18836, Note_on_c, 5, 71, 0
7, 18840, Note_on_c, 5, 78, 90
7, 18866, Note_on_c, 5, 78, 0
7, 18870, Note_on_c, 5, 71, 90
7, 18896, Note_on_c, 5, 71, 0
7, 18900, Note_on_c, 5, 69, 90
7, 18926, Note_on_c, 5, 69, 0
7, 18930, Note_on_c, 5, 71, 90
7, 18956, Note_on_c, 5, 71, 0
7, 18960, Note_on_c, 5, 81, 90
7, 18986, Note_on_c, 5, 81, 0
7, 18990, Note_on_c, 5, 71, 90
7, 19016, Note_on_c, 5, 71, 0
7, 19020, Note_on_c, 5, 79, 90
7, 19046, Note_on_c, 5, 79, 0
7, 19050, Note_on_c, 5, 71, 90
7, 19076, Note_on_c, 5, 71, 0
7, 19080, Note_on_c, 5, 69, 90
7, 19106, Note_on_c, 5, 69, 0
7, 19110, Note_on_c, 5, 71, 90
7, 19136, Note_on_c, 5, 71, 0
7, 19140, Note_on_c, 5, 76, 90
7, 19166, Note_on_c, 5, 76, 0
7, 19170, Note_on_c, 5, 71, 90
7, 19196, Note_on_c, 5, 71, 0
7, 19200, Note_on_c, 5, 79, 90
7, 19226, Note_on_c, 5, 79, 0
7, 19230, Note_on_c, 5, 71, 90
7, 19256, Note_on_c, 5, 71, 0
7, 19260, Note_on_c, 5, 69, 90
7, 19286, Note_on_c, 5, 69, 0
7, 19290, Note_on_c, 5, 71, 90
7, 19316, Note_on_c, 5, 71, 0
7, 19320, Note_on_c, 5, 83, 90
7, 19346, Note_on_c, 5, 83, 0
7, 19350, Note_on_c, 5, 71, 90
7, 19376, Note_on_c, 5, 71, 0
7, 19380, Note_on_c, 5, 79, 90
7, 19406, Note_on_c, 5, 79, 0
7, 19410, Note_on_c, 5, 71, 90
7, 19436, Note_on_c, 5, 71, 0
7, 19440, Note_on_c, 5, 69, 90
7, 19466, Note_on_c, 5, 69, 0
7, 19470, Note_on_c, 5, 71, 90
7, 19496, Note_on_c, 5, 71, 0
7, 19500, Note_on_c, 5, 79, 90
7, 19526, Note_on_c, 5, 79, 0
7, 19530, Note_on_c, 5, 76, 90
7, 19556, Note_on_c, 5, 76, 0
7, 19560, Note_on_c, 5, 70, 90
7, 19586, Note_on_c, 5, 70, 0
7, 19590, Note_on_c, 5, 79, 90
7, 19616, Note_on_c, 5, 79, 0
7, 19620, Note_on_c, 5, 78, 90
7, 19646, Note_on_c, 5, 78, 0
7, 19650, Note_on_c, 5, 76, 90
7, 19676, Note_on_c, 5, 76, 0
7, 19680, Note_on_c, 5, 75, 90
7, 19706, Note_on_c, 5, 75, 0
7, 19710, Note_on_c, 5, 76, 90
7, 19736, Note_on_c, 5, 76, 0
7, 19740, Note_on_c, 5, 69, 90
7, 19766, Note_on_c, 5, 69, 0
7, 19770, Note_on_c, 5, 79, 90
7, 19796, Note_on_c, 5, 79, 0
7, 19800, Note_on_c, 5, 78, 90
7, 19826, Note_on_c, 5, 78, 0
7, 19830, Note_on_c, 5, 76, 90
7, 19856, Note_on_c, 5, 76, 0
7, 19860, Note_on_c, 5, 75, 90
7, 19886, Note_on_c, 5, 75, 0
7, 19890, Note_on_c, 5, 76, 90
7, 19916, Note_on_c, 5, 76, 0
7, 19920, Note_on_c, 5, 67, 90
7, 19972, Note_on_c, 5, 67, 0
7, 19980, Note_on_c, 5, 69, 90
7, 20032, Note_on_c, 5, 69, 0
7, 20040, Note_on_c, 5, 66, 90
7, 20092, Note_on_c, 5, 66, 0
7, 20100, Note_on_c, 5, 64, 90
7, 20265, Note_on_c, 5, 64, 0
7, 20670, Note_on_c, 5, 72, 90
7, 20696, Note_on_c, 5, 72, 0
7, 20700, Note_on_c, 5, 71, 90
7, 20726, Note_on_c, 5, 71, 0
7, 20730, Note_on_c, 5, 72, 90
7, 20756, Note_on_c, 5, 72, 0
7, 20760, Note_on_c, 5, 81, 90
7, 20786, Note_on_c, 5, 81, 0
7, 20790, Note_on_c, 5, 72, 90
7, 20816, Note_on_c, 5, 72, 0
7, 20820, Note_on_c, 5, 64, 90
7, 20846, Note_on_c, 5, 64, 0
7, 20850, Note_on_c, 5, 72, 90
7, 20876, Note_on_c, 5, 72, 0
7, 20880, Note_on_c, 5, 71, 90
7, 20906, Note_on_c, 5, 71, 0
7, 20910, Note_on_c, 5, 72, 90
7, 20936, Note_on_c, 5, 72, 0
7, 20940, Note_on_c, 5, 76, 90
7, 20966, Note_on_c, 5, 76, 0
7, 20970, Note_on_c, 5, 72, 90
7, 20996, Note_on_c, 5, 72, 0
7, 21000, Note_on_c, 5, 64, 90
7, 21026, Note_on_c, 5, 64, 0
7, 21030, Note_on_c, 5, 72, 90
7, 21056, Note_on_c, 5, 72, 0
7, 21060, Note_on_c, 5, 71, 90
7, 21086, Note_on_c, 5, 71, 0
7, 21090, Note_on_c, 5, 72, 90
7, 21116, Note_on_c, 5, 72, 0
7, 21120, Note_on_c, 5, 79, 90
7, 21146, Note_on_c, 5, 79, 0
7, 21150, Note_on_c, 5, 72, 90
7, 21176, Note_on_c, 5, 72, 0
7, 21180, Note_on_c, 5, 62, 90
7, 21206, Note_on_c, 5, 62, 0
7, 21210, Note_on_c, 5, 72, 90
7, 21236, Note_on_c, 5, 72, 0
7, 21240, Note_on_c, 5, 71, 90
7, 21266, Note_on_c, 5, 71, 0
7, 21270, Note_on_c, 5, 72, 90
7, 21296, Note_on_c, 5, 72, 0
7, 21300, Note_on_c, 5, 78, 90
7, 21326, Note_on_c, 5, 78, 0
7, 21330, Note_on_c, 5, 72, 90
7, 21356, Note_on_c, 5, 72, 0
7, 21360, Note_on_c, 5, 62, 90
7, 21386, Note_on_c, 5, 62, 0
7, 21390, Note_on_c, 5, 72, 90
7, 21416, Note_on_c, 5, 72, 0
7, 21420, Note_on_c, 5, 71, 90
7, 21446, Note_on_c, 5, 71, 0
7, 21450, Note_on_c, 5, 72, 90
7, 21476, Note_on_c, 5, 72, 0
7, 21480, Note_on_c, 5, 81, 90
7, 21506, Note_on_c, 5, 81, 0
7, 21510, Note_on_c, 5, 72, 90
7, 21536, Note_on_c, 5, 72, 0
7, 21540, Note_on_c, 5, 62, 90
7, 21566, Note_on_c, 5, 62, 0
7, 21570, Note_on_c, 5, 72, 90
7, 21596, Note_on_c, 5, 72, 0
7, 21600, Note_on_c, 5, 71, 90
7, 21626, Note_on_c, 5, 71, 0
7, 21630, Note_on_c, 5, 72, 90
7, 21656, Note_on_c, 5, 72, 0
7, 21660, Note_on_c, 5, 78, 90
7, 21686, Note_on_c, 5, 78, 0
7, 21690, Note_on_c, 5, 72, 90
7, 21716, Note_on_c, 5, 72, 0
7, 21720, Note_on_c, 5, 62, 90
7, 21746, Note_on_c, 5, 62, 0
7, 21750, Note_on_c, 5, 71, 90
7, 21776, Note_on_c, 5, 71, 0
7, 21780, Note_on_c, 5, 69, 90
7, 21806, Note_on_c, 5, 69, 0
7, 21810, Note_on_c, 5, 71, 90
7, 21836, Note_on_c, 5, 71, 0
7, 21840, Note_on_c, 5, 79, 90
7, 21866, Note_on_c, 5, 79, 0
7, 21870, Note_on_c, 5, 71, 90
7, 21896, Note_on_c, 5, 71, 0
7, 21900, Note_on_c, 5, 62, 90
7, 21926, Note_on_c, 5, 62, 0
7, 21930, Note_on_c, 5, 72, 90
7, 21956, Note_on_c, 5, 72, 0
7, 21960, Note_on_c, 5, 71, 90
7, 21986, Note_on_c, 5, 71, 0
7, 21990, Note_on_c, 5, 72, 90
7, 22016, Note_on_c, 5, 72, 0
7, 22020, Note_on_c, 5, 81, 90
7, 22046, Note_on_c, 5, 81, 0
7, 22050, Note_on_c, 5, 72, 90
7, 22076, Note_on_c, 5, 72, 0
7, 22080, Note_on_c, 5, 62, 90
7, 22106, Note_on_c, 5, 62, 0
7, 22110, Note_on_c, 5, 74, 90
7, 22136, Note_on_c, 5, 74, 0
7, 22140, Note_on_c, 5, 72, 90
7, 22166, Note_on_c, 5, 72, 0
7, 22170, Note_on_c, 5, 74, 90
7, 22196, Note_on_c, 5, 74, 0
7, 22200, Note_on_c, 5, 83, 90
7, 22226, Note_on_c, 5, 83, 0
7, 22230, Note_on_c, 5, 74, 90
7, 22256, Note_on_c, 5, 74, 0
7, 22260, Note_on_c, 5, 67, 90
7, 22312, Note_on_c, 5, 67, 0
7, 22800, Note_on_c, 5, 62, 90
7, 22826, Note_on_c, 5, 62, 0
7, 22830, Note_on_c, 5, 66, 90
7, 22856, Note_on_c, 5, 66, 0
7, 22860, Note_on_c, 5, 69, 90
7, 22886, Note_on_c, 5, 69, 0
7, 22890, Note_on_c, 5, 66, 90
7, 22916, Note_on_c, 5, 66, 0
7, 22920, Note_on_c, 5, 62, 90
7, 22946, Note_on_c, 5, 62, 0
7, 22950, Note_on_c, 5, 61, 90
7, 22976, Note_on_c, 5, 61, 0
7, 22980, Note_on_c, 5, 62, 90
7, 23006, Note_on_c, 5, 62, 0
7, 23010, Note_on_c, 5, 66, 90
7, 23036, Note_on_c, 5, 66, 0
7, 23040, Note_on_c, 5, 69, 90
7, 23066, Note_on_c, 5, 69, 0
7, 23070, Note_on_c, 5, 66, 90
7, 23096, Note_on_c, 5, 66, 0
7, 23100, Note_on_c, 5, 62, 90
7, 23126, Note_on_c, 5, 62, 0
7, 23130, Note_on_c, 5, 61, 90
7, 23156, Note_on_c, 5, 61, 0
7, 23160, Note_on_c, 5, 62, 90
7, 23212, Note_on_c, 5, 62, 0
7, 23220, Note_on_c, 5, 71, 90
7, 23272, Note_on_c, 5, 71, 0
7, 23280, Note_on_c, 5, 69, 90
7, 23332, Note_on_c, 5, 69, 0
7, 23340, Note_on_c, 5, 69, 90
7, 23546, Note_on_c, 5, 69, 0
7, 23550, Note_on_c, 5, 73, 90
7, 23576, Note_on_c, 5, 73, 0
7, 23580, Note_on_c, 5, 76, 90
7, 23606, Note_on_c, 5, 76, 0
7, 23610, Note_on_c, 5, 73, 90
7, 23636, Note_on_c, 5, 73, 0
7, 23640, Note_on_c, 5, 67, 90
7, 23666, Note_on_c, 5, 67, 0
7, 23670, Note_on_c, 5, 66, 90
7, 23696, Note_on_c, 5, 66, 0
7, 23700, Note_on_c, 5, 67, 90
7, 23726, Note_on_c, 5, 67, 0
7, 23730, Note_on_c, 5, 73, 90
7, 23756, Note_on_c, 5, 73, 0
7, 23760, Note_on_c, 5, 76, 90
7, 23786, Note_on_c, 5, 76, 0
7, 23790, Note_on_c, 5, 73, 90
7, 23816, Note_on_c, 5, 73, 0
7, 23820, Note_on_c, 5, 66, 90
7, 23846, Note_on_c, 5, 66, 0
7, 23850, Note_on_c, 5, 64, 90
7, 23876, Note_on_c, 5, 64, 0
7, 23880, Note_on_c, 5, 66, 90
7, 23906, Note_on_c, 5, 66, 0
7, 23910, Note_on_c, 5, 69, 90
7, 23936, Note_on_c, 5, 69, 0
7, 23940, Note_on_c, 5, 74, 90
7, 23966, Note_on_c, 5, 74, 0
7, 23970, Note_on_c, 5, 69, 90
7, 23996, Note_on_c, 5, 69, 0
7, 24000, Note_on_c, 5, 66, 90
7, 24026, Note_on_c, 5, 66, 0
7, 24030, Note_on_c, 5, 64, 90
7, 24056, Note_on_c, 5, 64, 0
7, 24060, Note_on_c, 5, 62, 90
7, 24086, Note_on_c, 5, 62, 0
7, 24090, Note_on_c, 5, 66, 90
7, 24116, Note_on_c, 5, 66, 0
7, 24120, Note_on_c, 5, 69, 90
7, 24146, Note_on_c, 5, 69, 0
7, 24150, Note_on_c, 5, 66, 90
7, 24176, Note_on_c, 5, 66, 0
7, 24180, Note_on_c, 5, 62, 90
7, 24206, Note_on_c, 5, 62, 0
7, 24210, Note_on_c, 5, 61, 90
7, 24236, Note_on_c, 5, 61, 0
7, 24240, Note_on_c, 5, 59, 90
7, 24292, Note_on_c, 5, 59, 0
7, 24300, Note_on_c, 5, 67, 90
7, 24352, Note_on_c, 5, 67, 0
7, 24360, Note_on_c, 5, 64, 90
7, 24412, Note_on_c, 5, 64, 0
7, 24420, Note_on_c, 5, 61, 90
7, 24525, Note_on_c, 5, 61, 0
7, 24540, Note_on_c, 5, 59, 90
7, 24592, Note_on_c, 5, 59, 0
7, 24600, Note_on_c, 5, 57, 90
7, 24765, Note_on_c, 5, 57, 0
7, 24780, Note_on_c, 5, 67, 90
7, 24986, Note_on_c, 5, 67, 0
7, 24990, Note_on_c, 5, 67, 90
7, 25016, Note_on_c, 5, 67, 0
7, 25020, Note_on_c, 5, 66, 90
7, 25046, Note_on_c, 5, 66, 0
7, 25050, Note_on_c, 5, 67, 90
7, 25076, Note_on_c, 5, 67, 0
7, 25080, Note_on_c, 5, 73, 90
7, 25106, Note_on_c, 5, 73, 0
7, 25110, Note_on_c, 5, 67, 90
7, 25136, Note_on_c, 5, 67, 0
7, 25140, Note_on_c, 5, 57, 90
7, 25166, Note_on_c, 5, 57, 0
7, 25170, Note_on_c, 5, 67, 90
7, 25196, Note_on_c, 5, 67, 0
7, 25200, Note_on_c, 5, 66, 90
7, 25226, Note_on_c, 5, 66, 0
7, 25230, Note_on_c, 5, 67, 90
7, 25256, Note_on_c, 5, 67, 0
7, 25260, Note_on_c, 5, 76, 90
7, 25286, Note_on_c, 5, 76, 0
7, 25290, Note_on_c, 5, 67, 90
7, 25316, Note_on_c, 5, 67, 0
7, 25320, Note_on_c, 5, 57, 90
7, 25346, Note_on_c, 5, 57, 0
7, 25350, Note_on_c, 5, 67, 90
7, 25376, Note_on_c, 5, 67, 0
7, 25380, Note_on_c, 5, 66, 90
7, 25406, Note_on_c, 5, 66, 0
7, 25410, Note_on_c, 5, 67, 90
7, 25436, Note_on_c, 5, 67, 0
7, 25440, Note_on_c, 5, 73, 90
7, 25466, Note_on_c, 5, 73, 0
7, 25470, Note_on_c, 5, 67, 90
7, 25496, Note_on_c, 5, 67, 0
7, 25500, Note_on_c, 5, 57, 90
7, 25526, Note_on_c, 5, 57, 0
7, 25530, Note_on_c, 5, 66, 90
7, 25556, Note_on_c, 5, 66, 0
7, 25560, Note_on_c, 5, 64, 90
7, 25586, Note_on_c, 5, 64, 0
7, 25590, Note_on_c, 5, 66, 90
7, 25616, Note_on_c, 5, 66, 0
7, 25620, Note_on_c, 5, 74, 90
7, 25646, Note_on_c, 5, 74, 0
7, 25650, Note_on_c, 5, 66, 90
7, 25676, Note_on_c, 5, 66, 0
7, 25680, Note_on_c, 5, 57, 90
7, 25706, Note_on_c, 5, 57, 0
7, 25710, Note_on_c, 5, 66, 90
7, 25736, Note_on_c, 5, 66, 0
7, 25740, Note_on_c, 5, 64, 90
7, 25766, Note_on_c, 5, 64, 0
7, 25770, Note_on_c, 5, 66, 90
7, 25796, Note_on_c, 5, 66, 0
7, 25800, Note_on_c, 5, 69, 90
7, 25826, Note_on_c, 5, 69, 0
7, 25830, Note_on_c, 5, 66, 90
7, 25856, Note_on_c, 5, 66, 0
7, 25860, Note_on_c, 5, 57, 90
7, 25886, Note_on_c, 5, 57, 0
7, 25890, Note_on_c, 5, 66, 90
7, 25916, Note_on_c, 5, 66, 0
7, 25920, Note_on_c, 5, 64, 90
7, 25946, Note_on_c, 5, 64, 0
7, 25950, Note_on_c, 5, 66, 90
7, 25976, Note_on_c, 5, 66, 0
7, 25980, Note_on_c, 5, 74, 90
7, 26006, Note_on_c, 5, 74, 0
7, 26010, Note_on_c, 5, 66, 90
7, 26036, Note_on_c, 5, 66, 0
7, 26040, Note_on_c, 5, 68, 90
7, 26066, Note_on_c, 5, 68, 0
7, 26070, Note_on_c, 5, 77, 90
7, 26096, Note_on_c, 5, 77, 0
7, 26100, Note_on_c, 5, 76, 90
7, 26126, Note_on_c, 5, 76, 0
7, 26130, Note_on_c, 5, 74, 90
7, 26156, Note_on_c, 5, 74, 0
7, 26160, Note_on_c, 5, 73, 90
7, 26186, Note_on_c, 5, 73, 0
7, 26190, Note_on_c, 5, 74, 90
7, 26216, Note_on_c, 5, 74, 0
7, 26220, Note_on_c, 5, 67, 90
7, 26246, Note_on_c, 5, 67, 0
7, 26250, Note_on_c, 5, 78, 90
7, 26276, Note_on_c, 5, 78, 0
7, 26280, Note_on_c, 5, 76, 90
7, 26306, Note_on_c, 5, 76, 0
7, 26310, Note_on_c, 5, 74, 90
7, 26336, Note_on_c, 5, 74, 0
7, 26340, Note_on_c, 5, 73, 90
7, 26366, Note_on_c, 5, 73, 0
7, 26370, Note_on_c, 5, 74, 90
7, 26396, Note_on_c, 5, 74, 0
7, 26400, Note_on_c, 5, 66, 90
7, 26452, Note_on_c, 5, 66, 0
7, 26460, Note_on_c, 5, 67, 90
7, 26512, Note_on_c, 5, 67, 0
7, 26520, Note_on_c, 5, 64, 90
7, 26572, Note_on_c, 5, 64, 0
7, 26580, Note_on_c, 5, 62, 90
7, 26606, Note_on_c, 5, 62, 0
7, 26610, Note_on_c, 5, 66, 90
7, 26636, Note_on_c, 5, 66, 0
7, 26640, Note_on_c, 5, 69, 90
7, 26666, Note_on_c, 5, 69, 0
7, 26670, Note_on_c, 5, 74, 90
7, 26696, Note_on_c, 5, 74, 0
7, 26700, Note_on_c, 5, 72, 90
7, 26726, Note_on_c, 5, 72, 0
7, 26730, Note_on_c, 5, 71, 90
7, 26756, Note_on_c, 5, 71, 0
7, 26760, Note_on_c, 5, 72, 90
7, 26786, Note_on_c, 5, 72, 0
7, 26790, Note_on_c, 5, 78, 90
7, 26816, Note_on_c, 5, 78, 0
7, 26820, Note_on_c, 5, 81, 90
7, 26846, Note_on_c, 5, 81, 0
7, 26850, Note_on_c, 5, 78, 90
7, 26876, Note_on_c, 5, 78, 0
7, 26880, Note_on_c, 5, 74, 90
7, 26906, Note_on_c, 5, 74, 0
7, 26910, Note_on_c, 5, 72, 90
7, 26936, Note_on_c, 5, 72, 0
7, 26940, Note_on_c, 5, 71, 90
7, 27045, Note_on_c, 5, 71, 0
7, 27060, Note_on_c, 5, 69, 90
7, 27112, Note_on_c, 5, 69, 0
7, 27120, Note_on_c, 5, 71, 90
7, 27686, Note_on_c, 5, 71, 0
7, 27690, Note_on_c, 5, 76, 90
7, 27716, Note_on_c, 5, 76, 0
7, 27720, Note_on_c, 5, 79, 90
7, 27746, Note_on_c, 5, 79, 0
7, 27750, Note_on_c, 5, 76, 90
7, 27776, Note_on_c, 5, 76, 0
7, 27780, Note_on_c, 5, 72, 90
7, 27806, Note_on_c, 5, 72, 0
7, 27810, Note_on_c, 5, 71, 90
7, 27836, Note_on_c, 5, 71, 0
7, 27840, Note_on_c, 5, 69, 90
7, 27866, Note_on_c, 5, 69, 0
7, 27870, Note_on_c, 5, 74, 90
7, 27896, Note_on_c, 5, 74, 0
7, 27900, Note_on_c, 5, 81, 90
7, 27926, Note_on_c, 5, 81, 0
7, 27930, Note_on_c, 5, 72, 90
7, 27956, Note_on_c, 5, 72, 0
7, 27960, Note_on_c, 5, 71, 90
7, 27986, Note_on_c, 5, 71, 0
7, 27990, Note_on_c, 5, 69, 90
7, 28016, Note_on_c, 5, 69, 0
7, 28020, Note_on_c, 5, 67, 90
7, 28072, Note_on_c, 5, 67, 0
7, 28410, Note_on_c, 5, 62, 90
7, 28436, Note_on_c, 5, 62, 0
7, 28440, Note_on_c, 5, 66, 90
7, 28466, Note_on_c, 5, 66, 0
7, 28470, Note_on_c, 5, 69, 90
7, 28496, Note_on_c, 5, 69, 0
7, 28500, Note_on_c, 5, 72, 90
7, 28526, Note_on_c, 5, 72, 0
7, 28530, Note_on_c, 5, 71, 90
7, 28556, Note_on_c, 5, 71, 0
7, 28560, Note_on_c, 5, 72, 90
7, 28586, Note_on_c, 5, 72, 0
7, 28590, Note_on_c, 5, 78, 90
7, 28616, Note_on_c, 5, 78, 0
7, 28620, Note_on_c, 5, 81, 90
7, 28646, Note_on_c, 5, 81, 0
7, 28650, Note_on_c, 5, 78, 90
7, 28676, Note_on_c, 5, 78, 0
7, 28680, Note_on_c, 5, 74, 90
7, 28706, Note_on_c, 5, 74, 0
7, 28710, Note_on_c, 5, 72, 90
7, 28736, Note_on_c, 5, 72, 0
7, 28740, Note_on_c, 5, 71, 90
7, 28766, Note_on_c, 5, 71, 0
7, 28770, Note_on_c, 5, 74, 90
7, 28796, Note_on_c, 5, 74, 0
7, 28800, Note_on_c, 5, 79, 90
7, 28826, Note_on_c, 5, 79, 0
7, 28830, Note_on_c, 5, 74, 90
7, 28856, Note_on_c, 5, 74, 0
7, 28860, Note_on_c, 5, 71, 90
7, 28886, Note_on_c, 5, 71, 0
7, 28890, Note_on_c, 5, 69, 90
7, 28916, Note_on_c, 5, 69, 0
7, 28920, Note_on_c, 5, 67, 90
7, 28946, Note_on_c, 5, 67, 0
7, 28950, Note_on_c, 5, 71, 90
7, 28976, Note_on_c, 5, 71, 0
7, 28980, Note_on_c, 5, 74, 90
7, 29006, Note_on_c, 5, 74, 0
7, 29010, Note_on_c, 5, 71, 90
7, 29036, Note_on_c, 5, 71, 0
7, 29040, Note_on_c, 5, 67, 90
7, 29066, Note_on_c, 5, 67, 0
7, 29070, Note_on_c, 5, 66, 90
7, 29096, Note_on_c, 5, 66, 0
7, 29100, Note_on_c, 5, 67, 90
7, 29152, Note_on_c, 5, 67, 0
7, 29160, Note_on_c, 5, 76, 90
7, 29212, Note_on_c, 5, 76, 0
7, 29220, Note_on_c, 5, 74, 90
7, 29272, Note_on_c, 5, 74, 0
7, 29280, Note_on_c, 5, 74, 90
7, 29486, Note_on_c, 5, 74, 0
7, 29490, Note_on_c, 5, 79, 90
7, 29516, Note_on_c, 5, 79, 0
7, 29520, Note_on_c, 5, 83, 90
7, 29546, Note_on_c, 5, 83, 0
7, 29550, Note_on_c, 5, 79, 90
7, 29576, Note_on_c, 5, 79, 0
7, 29580, Note_on_c, 5, 76, 90
7, 29606, Note_on_c, 5, 76, 0
7, 29610, Note_on_c, 5, 74, 90
7, 29636, Note_on_c, 5, 74, 0
7, 29640, Note_on_c, 5, 72, 90
7, 29666, Note_on_c, 5, 72, 0
7, 29670, Note_on_c, 5, 78, 90
7, 29696, Note_on_c, 5, 78, 0
7, 29700, Note_on_c, 5, 81, 90
7, 29726, Note_on_c, 5, 81, 0
7, 29730, Note_on_c, 5, 78, 90
7, 29756, Note_on_c, 5, 78, 0
7, 29760, Note_on_c, 5, 74, 90
7, 29786, Note_on_c, 5, 74, 0
7, 29790, Note_on_c, 5, 72, 90
7, 29816, Note_on_c, 5, 72, 0
7, 29820, Note_on_c, 5, 71, 90
7, 29846, Note_on_c, 5, 71, 0
7, 29850, Note_on_c, 5, 74, 90
7, 29876, Note_on_c, 5, 74, 0
7, 29880, Note_on_c, 5, 79, 90
7, 29906, Note_on_c, 5, 79, 0
7, 29910, Note_on_c, 5, 74, 90
7, 29936, Note_on_c, 5, 74, 0
7, 29940, Note_on_c, 5, 71, 90
7, 29966, Note_on_c, 5, 71, 0
7, 29970, Note_on_c, 5, 69, 90
7, 29996, Note_on_c, 5, 69, 0
7, 30000, Note_on_c, 5, 67, 90
7, 30026, Note_on_c, 5, 67, 0
7, 30030, Note_on_c, 5, 71, 90
7, 30056, Note_on_c, 5, 71, 0
7, 30060, Note_on_c, 5, 74, 90
7, 30086, Note_on_c, 5, 74, 0
7, 30090, Note_on_c, 5, 71, 90
7, 30116, Note_on_c, 5, 71, 0
7, 30120, Note_on_c, 5, 67, 90
7, 30146, Note_on_c, 5, 67, 0
7, 30150, Note_on_c, 5, 66, 90
7, 30176, Note_on_c, 5, 66, 0
7, 30180, Note_on_c, 5, 64, 90
7, 30232, Note_on_c, 5, 64, 0
7, 30240, Note_on_c, 5, 72, 90
7, 30292, Note_on_c, 5, 72, 0
7, 30300, Note_on_c, 5, 69, 90
7, 30352, Note_on_c, 5, 69, 0
7, 30360, Note_on_c, 5, 66, 90
7, 30373, Note_on_c, 5, 66, 0
7, 30375, Note_on_c, 5, 67, 90
7, 30388, Note_on_c, 5, 67, 0
7, 30390, Note_on_c, 5, 66, 90
7, 30468, Note_on_c, 5, 66, 0
7, 30480, Note_on_c, 5, 64, 90
7, 30532, Note_on_c, 5, 64, 0
7, 30540, Note_on_c, 5, 62, 90
7, 30705, Note_on_c, 5, 62, 0
7, 30720, Note_on_c, 5, 74, 90
7, 30926, Note_on_c, 5, 74, 0
7, 30930, Note_on_c, 5, 64, 90
7, 30956, Note_on_c, 5, 64, 0
7, 30960, Note_on_c, 5, 68, 90
7, 30986, Note_on_c, 5, 68, 0
7, 30990, Note_on_c, 5, 71, 90
7, 31016, Note_on_c, 5, 71, 0
7, 31020, Note_on_c, 5, 74, 90
7, 31046, Note_on_c, 5, 74, 0
7, 31050, Note_on_c, 5, 72, 90
7, 31076, Note_on_c, 5, 72, 0
7, 31080, Note_on_c, 5, 74, 90
7, 31106, Note_on_c, 5, 74, 0
7, 31110, Note_on_c, 5, 80, 90
7, 31136, Note_on_c, 5, 80, 0
7, 31140, Note_on_c, 5, 83, 90
7, 31166, Note_on_c, 5, 83, 0
7, 31170, Note_on_c, 5, 80, 90
7, 31196, Note_on_c, 5, 80, 0
7, 31200, Note_on_c, 5, 76, 90
7, 31226, Note_on_c, 5, 76, 0
7, 31230, Note_on_c, 5, 74, 90
7, 31256, Note_on_c, 5, 74, 0
7, 31260, Note_on_c, 5, 72, 90
7, 31273, Note_on_c, 5, 72, 0
7, 31275, Note_on_c, 5, 74, 90
7, 31288, Note_on_c, 5, 74, 0
7, 31290, Note_on_c, 5, 72, 90
7, 31368, Note_on_c, 5, 72, 0
7, 31380, Note_on_c, 5, 71, 90
7, 31432, Note_on_c, 5, 71, 0
7, 31440, Note_on_c, 5, 72, 90
7, 31646, Note_on_c, 5, 72, 0
7, 31650, Note_on_c, 5, 69, 90
7, 31676, Note_on_c, 5, 69, 0
7, 31680, Note_on_c, 5, 68, 90
7, 31706, Note_on_c, 5, 68, 0
7, 31710, Note_on_c, 5, 69, 90
7, 31736, Note_on_c, 5, 69, 0
7, 31740, Note_on_c, 5, 64, 90
7, 31766, Note_on_c, 5, 64, 0
7, 31770, Note_on_c, 5, 69, 90
7, 31796, Note_on_c, 5, 69, 0
7, 31800, Note_on_c, 5, 60, 90
7, 31826, Note_on_c, 5, 60, 0
7, 31830, Note_on_c, 5, 64, 90
7, 31856, Note_on_c, 5, 64, 0
7, 31860, Note_on_c, 5, 57, 90
7, 31886, Note_on_c, 5, 57, 0
7, 31890, Note_on_c, 5, 60, 90
7, 31916, Note_on_c, 5, 60, 0
7, 31920, Note_on_c, 5, 64, 90
7, 31946, Note_on_c, 5, 64, 0
7, 31950, Note_on_c, 5, 69, 90
7, 31976, Note_on_c, 5, 69, 0
7, 31980, Note_on_c, 5, 72, 90
7, 32006, Note_on_c, 5, 72, 0
7, 32010, Note_on_c, 5, 62, 90
7, 32036, Note_on_c, 5, 62, 0
7, 32040, Note_on_c, 5, 66, 90
7, 32066, Note_on_c, 5, 66, 0
7, 32070, Note_on_c, 5, 69, 90
7, 32096, Note_on_c, 5, 69, 0
7, 32100, Note_on_c, 5, 72, 90
7, 32126, Note_on_c, 5, 72, 0
7, 32130, Note_on_c, 5, 71, 90
7, 32156, Note_on_c, 5, 71, 0
7, 32160, Note_on_c, 5, 72, 90
7, 32186, Note_on_c, 5, 72, 0
7, 32190, Note_on_c, 5, 78, 90
7, 32216, Note_on_c, 5, 78, 0
7, 32220, Note_on_c, 5, 81, 90
7, 32246, Note_on_c, 5, 81, 0
7, 32250, Note_on_c, 5, 78, 90
7, 32276, Note_on_c, 5, 78, 0
7, 32280, Note_on_c, 5, 74, 90
7, 32306, Note_on_c, 5, 74, 0
7, 32310, Note_on_c, 5, 72, 90
7, 32336, Note_on_c, 5, 72, 0
7, 32340, Note_on_c, 5, 72, 90
7, 32392, Note_on_c, 5, 72, 0
7, 32400, Note_on_c, 5, 71, 90
7, 32452, Note_on_c, 5, 71, 0
7, 32460, Note_on_c, 5, 69, 90
7, 32512, Note_on_c, 5, 69, 0
7, 32520, Note_on_c, 5, 71, 90
7, 32726, Note_on_c, 5, 71, 0
7, 32730, Note_on_c, 5, 67, 90
7, 32756, Note_on_c, 5, 67, 0
7, 32760, Note_on_c, 5, 66, 90
7, 32786, Note_on_c, 5, 66, 0
7, 32790, Note_on_c, 5, 67, 90
7, 32816, Note_on_c, 5, 67, 0
7, 32820, Note_on_c, 5, 62, 90
7, 32846, Note_on_c, 5, 62, 0
7, 32850, Note_on_c, 5, 67, 90
7, 32876, Note_on_c, 5, 67, 0
7, 32880, Note_on_c, 5, 59, 90
7, 32906, Note_on_c, 5, 59, 0
7, 32910, Note_on_c, 5, 62, 90
7, 32936, Note_on_c, 5, 62, 0
7, 32940, Note_on_c, 5, 55, 90
7, 32966, Note_on_c, 5, 55, 0
7, 32970, Note_on_c, 5, 59, 90
7, 32996, Note_on_c, 5, 59, 0
7, 33000, Note_on_c, 5, 62, 90
7, 33026, Note_on_c, 5, 62, 0
7, 33030, Note_on_c, 5, 65, 90
7, 33056, Note_on_c, 5, 65, 0
7, 33060, Note_on_c, 5, 64, 90
7, 33266, Note_on_c, 5, 64, 0
7, 33270, Note_on_c, 5, 72, 90
7, 33296, Note_on_c, 5, 72, 0
7, 33300, Note_on_c, 5, 71, 90
7, 33326, Note_on_c, 5, 71, 0
7, 33330, Note_on_c, 5, 72, 90
7, 33356, Note_on_c, 5, 72, 0
7, 33360, Note_on_c, 5, 81, 90
7, 33386, Note_on_c, 5, 81, 0
7, 33390, Note_on_c, 5, 72, 90
7, 33416, Note_on_c, 5, 72, 0
7, 33420, Note_on_c, 5, 64, 90
7, 33446, Note_on_c, 5, 64, 0
7, 33450, Note_on_c, 5, 72, 90
7, 33476, Note_on_c, 5, 72, 0
7, 33480, Note_on_c, 5, 71, 90
7, 33506, Note_on_c, 5, 71, 0
7, 33510, Note_on_c, 5, 72, 90
7, 33536, Note_on_c, 5, 72, 0
7, 33540, Note_on_c, 5, 79, 90
7, 33566, Note_on_c, 5, 79, 0
7, 33570, Note_on_c, 5, 72, 90
7, 33596, Note_on_c, 5, 72, 0
7, 33600, Note_on_c, 5, 62, 90
7, 33626, Note_on_c, 5, 62, 0
7, 33630, Note_on_c, 5, 72, 90
7, 33656, Note_on_c, 5, 72, 0
7, 33660, Note_on_c, 5, 71, 90
7, 33686, Note_on_c, 5, 71, 0
7, 33690, Note_on_c, 5, 72, 90
7, 33716, Note_on_c, 5, 72, 0
7, 33720, Note_on_c, 5, 78, 90
7, 33746, Note_on_c, 5, 78, 0
7, 33750, Note_on_c, 5, 72, 90
7, 33776, Note_on_c, 5, 72, 0
7, 33780, Note_on_c, 5, 62, 90
7, 33806, Note_on_c, 5, 62, 0
7, 33810, Note_on_c, 5, 72, 90
7, 33836, Note_on_c, 5, 72, 0
7, 33840, Note_on_c, 5, 71, 90
7, 33866, Note_on_c, 5, 71, 0
7, 33870, Note_on_c, 5, 72, 90
7, 33896, Note_on_c, 5, 72, 0
7, 33900, Note_on_c, 5, 81, 90
7, 33926, Note_on_c, 5, 81, 0
7, 33930, Note_on_c, 5, 72, 90
7, 33956, Note_on_c, 5, 72, 0
7, 33960, Note_on_c, 5, 62, 90
7, 33986, Note_on_c, 5, 62, 0
7, 33990, Note_on_c, 5, 72, 90
7, 34016, Note_on_c, 5, 72, 0
7, 34020, Note_on_c, 5, 71, 90
7, 34046, Note_on_c, 5, 71, 0
7, 34050, Note_on_c, 5, 72, 90
7, 34076, Note_on_c, 5, 72, 0
7, 34080, Note_on_c, 5, 78, 90
7, 34106, Note_on_c, 5, 78, 0
7, 34110, Note_on_c, 5, 72, 90
7, 34136, Note_on_c, 5, 72, 0
7, 34140, Note_on_c, 5, 62, 90
7, 34166, Note_on_c, 5, 62, 0
7, 34170, Note_on_c, 5, 71, 90
7, 34196, Note_on_c, 5, 71, 0
7, 34200, Note_on_c, 5, 69, 90
7, 34226, Note_on_c, 5, 69, 0
7, 34230, Note_on_c, 5, 71, 90
7, 34256, Note_on_c, 5, 71, 0
7, 34260, Note_on_c, 5, 79, 90
7, 34286, Note_on_c, 5, 79, 0
7, 34290, Note_on_c, 5, 71, 90
7, 34316, Note_on_c, 5, 71, 0
7, 34320, Note_on_c, 5, 62, 90
7, 34346, Note_on_c, 5, 62, 0
7, 34350, Note_on_c, 5, 71, 90
7, 34376, Note_on_c, 5, 71, 0
7, 34380, Note_on_c, 5, 69, 90
7, 34406, Note_on_c, 5, 69, 0
7, 34410, Note_on_c, 5, 71, 90
7, 34436, Note_on_c, 5, 71, 0
7, 34440, Note_on_c, 5, 74, 90
7, 34466, Note_on_c, 5, 74, 0
7, 34470, Note_on_c, 5, 71, 90
7, 34496, Note_on_c, 5, 71, 0
7, 34500, Note_on_c, 5, 62, 90
7, 34526, Note_on_c, 5, 62, 0
7, 34530, Note_on_c, 5, 71, 90
7, 34556, Note_on_c, 5, 71, 0
7, 34560, Note_on_c, 5, 69, 90
7, 34586, Note_on_c, 5, 69, 0
7, 34590, Note_on_c, 5, 71, 90
7, 34616, Note_on_c, 5, 71, 0
7, 34620, Note_on_c, 5, 79, 90
7, 34646, Note_on_c, 5, 79, 0
7, 34650, Note_on_c, 5, 71, 90
7, 34676, Note_on_c, 5, 71, 0
7, 34680, Note_on_c, 5, 73, 90
7, 34706, Note_on_c, 5, 73, 0
7, 34710, Note_on_c, 5, 82, 90
7, 34736, Note_on_c, 5, 82, 0
7, 34740, Note_on_c, 5, 81, 90
7, 34766, Note_on_c, 5, 81, 0
7, 34770, Note_on_c, 5, 79, 90
7, 34796, Note_on_c, 5, 79, 0
7, 34800, Note_on_c, 5, 78, 90
7, 34826, Note_on_c, 5, 78, 0
7, 34830, Note_on_c, 5, 79, 90
7, 34856, Note_on_c, 5, 79, 0
7, 34860, Note_on_c, 5, 72, 90
7, 34886, Note_on_c, 5, 72, 0
7, 34890, Note_on_c, 5, 83, 90
7, 34916, Note_on_c, 5, 83, 0
7, 34920, Note_on_c, 5, 81, 90
7, 34946, Note_on_c, 5, 81, 0
7, 34950, Note_on_c, 5, 79, 90
7, 34976, Note_on_c, 5, 79, 0
7, 34980, Note_on_c, 5, 78, 90
7, 35006, Note_on_c, 5, 78, 0
7, 35010, Note_on_c, 5, 79, 90
7, 35036, Note_on_c, 5, 79, 0
7, 35040, Note_on_c, 5, 71, 90
7, 35092, Note_on_c, 5, 71, 0
7, 35100, Note_on_c, 5, 72, 90
7, 35152, Note_on_c, 5, 72, 0
7, 35160, Note_on_c, 5, 69, 90
7, 35212, Note_on_c, 5, 69, 0
7, 35220, Note_on_c, 5, 67, 90
7, 35745, Note_on_c, 5, 67, 0
7, 35745, End_track
8, 0, Start_track
8, 0, MIDI_port, 0
8, 0, Control_c, 0, 7, 1
8, 0, End_track
0, 0, End_of_file
