0, 0, Header, 1, 6, 120
1, 0, Start_track
1, 0, Time_signature, 4, 2, 24, 8
1, 0, Key_signature, 0, "major"
1, 0, Tempo, 705882
1, 0, End_track
2, 0, Start_track
2, 0, MIDI_port, 0
2, 0, Title_t, "Pad 1(new age)"
2, 0, Program_c, 0, 88
2, 0, Control_c, 0, 7, 110
2, 0, Control_c, 0, 10, 64
2, 58, Control_c, 0, 7, 119
2, 7080, Note_on_c, 0, 74, 80
2, 7305, Note_on_c, 0, 74, 0
2, 7320, Note_on_c, 0, 74, 80
2, 7545, Note_on_c, 0, 74, 0
2, 7560, Note_on_c, 0, 77, 80
2, 7785, Note_on_c, 0, 77, 0
2, 7800, Note_on_c, 0, 74, 80
2, 8025, Note_on_c, 0, 74, 0
2, 8040, Note_on_c, 0, 70, 80
2, 8265, Note_on_c, 0, 70, 0
2, 8280, Note_on_c, 0, 72, 80
2, 8505, Note_on_c, 0, 72, 0
2, 8520, Note_on_c, 0, 74, 80
2, 8745, Note_on_c, 0, 74, 0
2, 8760, Note_on_c, 0, 75, 80
2, 9225, Note_on_c, 0, 75, 0
2, 10440, Note_on_c, 0, 74, 80
2, 10665, Note_on_c, 0, 74, 0
2, 10680, Note_on_c, 0, 72, 80
2, 10905, Note_on_c, 0, 72, 0
2, 10920, Note_on_c, 0, 70, 80
2, 11145, Note_on_c, 0, 70, 0
2, 11160, Note_on_c, 0, 70, 80
2, 11265, Note_on_c, 0, 70, 0
2, 11280, Note_on_c, 0, 72, 80
2, 11385, Note_on_c, 0, 72, 0
2, 11400, Note_on_c, 0, 74, 80
2, 11625, Note_on_c, 0, 74, 0
2, 11640, Note_on_c, 0, 72, 80
2, 11745, Note_on_c, 0, 72, 0
2, 11760, Note_on_c, 0, 70, 80
2, 11865, Note_on_c, 0, 70, 0
2, 11880, Note_on_c, 0, 72, 80
2, 12105, Note_on_c, 0, 72, 0
2, 12120, Note_on_c, 0, 70, 80
2, 12585, Note_on_c, 0, 70, 0
2, 14760, Note_on_c, 0, 74, 80
2, 14985, Note_on_c, 0, 74, 0
2, 15000, Note_on_c, 0, 72, 80
2, 15225, Note_on_c, 0, 72, 0
2, 15240, Note_on_c, 0, 74, 80
2, 15465, Note_on_c, 0, 74, 0
2, 15480, Note_on_c, 0, 70, 80
2, 15705, Note_on_c, 0, 70, 0
2, 15720, Note_on_c, 0, 67, 80
2, 15945, Note_on_c, 0, 67, 0
2, 15960, Note_on_c, 0, 69, 80
2, 16185, Note_on_c, 0, 69, 0
2, 16200, Note_on_c, 0, 70, 80
2, 16425, Note_on_c, 0, 70, 0
2, 16440, Note_on_c, 0, 72, 80
2, 16905, Note_on_c, 0, 72, 0
2, 18120, Note_on_c, 0, 74, 80
2, 18345, Note_on_c, 0, 74, 0
2, 18360, Note_on_c, 0, 72, 80
2, 18585, Note_on_c, 0, 72, 0
2, 18600, Note_on_c, 0, 70, 80
2, 18825, Note_on_c, 0, 70, 0
2, 18840, Note_on_c, 0, 70, 80
2, 18945, Note_on_c, 0, 70, 0
2, 18960, Note_on_c, 0, 72, 80
2, 19065, Note_on_c, 0, 72, 0
2, 19080, Note_on_c, 0, 74, 80
2, 19305, Note_on_c, 0, 74, 0
2, 19320, Note_on_c, 0, 72, 80
2, 19425, Note_on_c, 0, 72, 0
2, 19440, Note_on_c, 0, 70, 80
2, 19545, Note_on_c, 0, 70, 0
2, 19560, Note_on_c, 0, 72, 80
2, 19785, Note_on_c, 0, 72, 0
2, 19800, Note_on_c, 0, 70, 80
2, 20265, Note_on_c, 0, 70, 0
2, 20265, End_track
3, 0, Start_track
3, 0, MIDI_port, 0
3, 0, Title_t, "Clarinet"
3, 0, Program_c, 1, 71
3, 0, Control_c, 1, 7, 86
3, 0, Control_c, 1, 10, 64
3, 56, Control_c, 1, 7, 99
3, 240, Note_on_c, 1, 62, 80
3, 345, Note_on_c, 1, 62, 0
3, 360, Note_on_c, 1, 62, 80
3, 465, Note_on_c, 1, 62, 0
3, 480, Note_on_c, 1, 65, 80
3, 506, Note_on_c, 1, 65, 0
3, 510, Note_on_c, 1, 63, 80
3, 536, Note_on_c, 1, 63, 0
3, 540, Note_on_c, 1, 62, 80
3, 566, Note_on_c, 1, 62, 0
3, 570, Note_on_c, 1, 63, 80
3, 596, Note_on_c, 1, 63, 0
3, 600, Note_on_c, 1, 62, 80
3, 765, Note_on_c, 1, 62, 0
3, 780, Note_on_c, 1, 58, 80
3, 832, Note_on_c, 1, 58, 0
3, 840, Note_on_c, 1, 67, 80
3, 892, Note_on_c, 1, 67, 0
3, 900, Note_on_c, 1, 62, 80
3, 952, Note_on_c, 1, 62, 0
3, 960, Note_on_c, 1, 70, 80
3, 1012, Note_on_c, 1, 70, 0
3, 1020, Note_on_c, 1, 62, 80
3, 1072, Note_on_c, 1, 62, 0
3, 1080, Note_on_c, 1, 64, 80
3, 1132, Note_on_c, 1, 64, 0
3, 1140, Note_on_c, 1, 60, 80
3, 1166, Note_on_c, 1, 60, 0
3, 1170, Note_on_c, 1, 55, 80
3, 1196, Note_on_c, 1, 55, 0
3, 1200, Note_on_c, 1, 48, 80
3, 1252, Note_on_c, 1, 48, 0
3, 1260, Note_on_c, 1, 60, 80
3, 1312, Note_on_c, 1, 60, 0
3, 1320, Note_on_c, 1, 65, 80
3, 1372, Note_on_c, 1, 65, 0
3, 1380, Note_on_c, 1, 60, 80
3, 1432, Note_on_c, 1, 60, 0
3, 1440, Note_on_c, 1, 68, 80
3, 1492, Note_on_c, 1, 68, 0
3, 1500, Note_on_c, 1, 60, 80
3, 1552, Note_on_c, 1, 60, 0
3, 1560, Note_on_c, 1, 62, 80
3, 1612, Note_on_c, 1, 62, 0
3, 1620, Note_on_c, 1, 58, 80
3, 1646, Note_on_c, 1, 58, 0
3, 1650, Note_on_c, 1, 53, 80
3, 1676, Note_on_c, 1, 53, 0
3, 1680, Note_on_c, 1, 46, 80
3, 1732, Note_on_c, 1, 46, 0
3, 1740, Note_on_c, 1, 58, 80
3, 1792, Note_on_c, 1, 58, 0
3, 1800, Note_on_c, 1, 63, 80
3, 1852, Note_on_c, 1, 63, 0
3, 1860, Note_on_c, 1, 58, 80
3, 1912, Note_on_c, 1, 58, 0
3, 1920, Note_on_c, 1, 67, 80
3, 1972, Note_on_c, 1, 67, 0
3, 1980, Note_on_c, 1, 58, 80
3, 2032, Note_on_c, 1, 58, 0
3, 2040, Note_on_c, 1, 60, 80
3, 2092, Note_on_c, 1, 60, 0
3, 2100, Note_on_c, 1, 53, 80
3, 2152, Note_on_c, 1, 53, 0
3, 2160, Note_on_c, 1, 63, 80
3, 2212, Note_on_c, 1, 63, 0
3, 2220, Note_on_c, 1, 60, 80
3, 2272, Note_on_c, 1, 60, 0
3, 2280, Note_on_c, 1, 62, 80
3, 2332, Note_on_c, 1, 62, 0
3, 2340, Note_on_c, 1, 58, 80
3, 2392, Note_on_c, 1, 58, 0
3, 2400, Note_on_c, 1, 65, 80
3, 2452, Note_on_c, 1, 65, 0
3, 2460, Note_on_c, 1, 58, 80
3, 2512, Note_on_c, 1, 58, 0
3, 2520, Note_on_c, 1, 60, 80
3, 2546, Note_on_c, 1, 60, 0
3, 2550, Note_on_c, 1, 58, 80
3, 2576, Note_on_c, 1, 58, 0
3, 2580, Note_on_c, 1, 57, 80
3, 2606, Note_on_c, 1, 57, 0
3, 2610, Note_on_c, 1, 55, 80
3, 2636, Note_on_c, 1, 55, 0
3, 2640, Note_on_c, 1, 53, 80
3, 2692, Note_on_c, 1, 53, 0
3, 2700, Note_on_c, 1, 60, 80
3, 2752, Note_on_c, 1, 60, 0
3, 2760, Note_on_c, 1, 63, 80
3, 2812, Note_on_c, 1, 63, 0
3, 2820, Note_on_c, 1, 60, 80
3, 2872, Note_on_c, 1, 60, 0
3, 2880, Note_on_c, 1, 69, 80
3, 2932, Note_on_c, 1, 69, 0
3, 2940, Note_on_c, 1, 60, 80
3, 2992, Note_on_c, 1, 60, 0
3, 3000, Note_on_c, 1, 62, 80
3, 3026, Note_on_c, 1, 62, 0
3, 3030, Note_on_c, 1, 60, 80
3, 3056, Note_on_c, 1, 60, 0
3, 3060, Note_on_c, 1, 58, 80
3, 3086, Note_on_c, 1, 58, 0
3, 3090, Note_on_c, 1, 57, 80
3, 3116, Note_on_c, 1, 57, 0
3, 3120, Note_on_c, 1, 58, 80
3, 3172, Note_on_c, 1, 58, 0
3, 3180, Note_on_c, 1, 62, 80
3, 3232, Note_on_c, 1, 62, 0
3, 3240, Note_on_c, 1, 65, 80
3, 3292, Note_on_c, 1, 65, 0
3, 3300, Note_on_c, 1, 62, 80
3, 3352, Note_on_c, 1, 62, 0
3, 3360, Note_on_c, 1, 70, 80
3, 3412, Note_on_c, 1, 70, 0
3, 3420, Note_on_c, 1, 62, 80
3, 3472, Note_on_c, 1, 62, 0
3, 3480, Note_on_c, 1, 63, 80
3, 3506, Note_on_c, 1, 63, 0
3, 3510, Note_on_c, 1, 62, 80
3, 3536, Note_on_c, 1, 62, 0
3, 3540, Note_on_c, 1, 60, 80
3, 3566, Note_on_c, 1, 60, 0
3, 3570, Note_on_c, 1, 58, 80
3, 3596, Note_on_c, 1, 58, 0
3, 3600, Note_on_c, 1, 60, 80
3, 3652, Note_on_c, 1, 60, 0
3, 3660, Note_on_c, 1, 63, 80
3, 3712, Note_on_c, 1, 63, 0
3, 3720, Note_on_c, 1, 69, 80
3, 3772, Note_on_c, 1, 69, 0
3, 3780, Note_on_c, 1, 63, 80
3, 3832, Note_on_c, 1, 63, 0
3, 3840, Note_on_c, 1, 72, 80
3, 3892, Note_on_c, 1, 72, 0
3, 3900, Note_on_c, 1, 63, 80
3, 3952, Note_on_c, 1, 63, 0
3, 3960, Note_on_c, 1, 65, 80
3, 3986, Note_on_c, 1, 65, 0
3, 3990, Note_on_c, 1, 63, 80
3, 4016, Note_on_c, 1, 63, 0
3, 4020, Note_on_c, 1, 62, 80
3, 4046, Note_on_c, 1, 62, 0
3, 4050, Note_on_c, 1, 60, 80
3, 4076, Note_on_c, 1, 60, 0
3, 4080, Note_on_c, 1, 62, 80
3, 4132, Note_on_c, 1, 62, 0
3, 4140, Note_on_c, 1, 65, 80
3, 4192, Note_on_c, 1, 65, 0
3, 4200, Note_on_c, 1, 70, 80
3, 4226, Note_on_c, 1, 70, 0
3, 4230, Note_on_c, 1, 62, 80
3, 4256, Note_on_c, 1, 62, 0
3, 4260, Note_on_c, 1, 70, 80
3, 4286, Note_on_c, 1, 70, 0
3, 4290, Note_on_c, 1, 62, 80
3, 4316, Note_on_c, 1, 62, 0
3, 4320, Note_on_c, 1, 60, 80
3, 4346, Note_on_c, 1, 60, 0
3, 4350, Note_on_c, 1, 70, 80
3, 4376, Note_on_c, 1, 70, 0
3, 4380, Note_on_c, 1, 60, 80
3, 4406, Note_on_c, 1, 60, 0
3, 4410, Note_on_c, 1, 70, 80
3, 4436, Note_on_c, 1, 70, 0
3, 4440, Note_on_c, 1, 69, 80
3, 4466, Note_on_c, 1, 69, 0
3, 4470, Note_on_c, 1, 60, 80
3, 4496, Note_on_c, 1, 60, 0
3, 4500, Note_on_c, 1, 69, 80
3, 4526, Note_on_c, 1, 69, 0
3, 4530, Note_on_c, 1, 60, 80
3, 4556, Note_on_c, 1, 60, 0
3, 4560, Note_on_c, 1, 58, 80
3, 4586, Note_on_c, 1, 58, 0
3, 4590, Note_on_c, 1, 68, 80
3, 4616, Note_on_c, 1, 68, 0
3, 4620, Note_on_c, 1, 58, 80
3, 4646, Note_on_c, 1, 58, 0
3, 4650, Note_on_c, 1, 68, 80
3, 4676, Note_on_c, 1, 68, 0
3, 4680, Note_on_c, 1, 67, 80
3, 4706, Note_on_c, 1, 67, 0
3, 4710, Note_on_c, 1, 58, 80
3, 4736, Note_on_c, 1, 58, 0
3, 4740, Note_on_c, 1, 67, 80
3, 4766, Note_on_c, 1, 67, 0
3, 4770, Note_on_c, 1, 58, 80
3, 4796, Note_on_c, 1, 58, 0
3, 4800, Note_on_c, 1, 57, 80
3, 4826, Note_on_c, 1, 57, 0
3, 4830, Note_on_c, 1, 67, 80
3, 4856, Note_on_c, 1, 67, 0
3, 4860, Note_on_c, 1, 57, 80
3, 4886, Note_on_c, 1, 57, 0
3, 4890, Note_on_c, 1, 67, 80
3, 4916, Note_on_c, 1, 67, 0
3, 4920, Note_on_c, 1, 65, 80
3, 4946, Note_on_c, 1, 65, 0
3, 4950, Note_on_c, 1, 57, 80
3, 4976, Note_on_c, 1, 57, 0
3, 4980, Note_on_c, 1, 65, 80
3, 5006, Note_on_c, 1, 65, 0
3, 5010, Note_on_c, 1, 57, 80
3, 5036, Note_on_c, 1, 57, 0
3, 5040, Note_on_c, 1, 55, 80
3, 5066, Note_on_c, 1, 55, 0
3, 5070, Note_on_c, 1, 58, 80
3, 5096, Note_on_c, 1, 58, 0
3, 5100, Note_on_c, 1, 60, 80
3, 5126, Note_on_c, 1, 60, 0
3, 5130, Note_on_c, 1, 62, 80
3, 5156, Note_on_c, 1, 62, 0
3, 5160, Note_on_c, 1, 63, 80
3, 5186, Note_on_c, 1, 63, 0
3, 5190, Note_on_c, 1, 55, 80
3, 5216, Note_on_c, 1, 55, 0
3, 5220, Note_on_c, 1, 63, 80
3, 5246, Note_on_c, 1, 63, 0
3, 5250, Note_on_c, 1, 55, 80
3, 5276, Note_on_c, 1, 55, 0
3, 5280, Note_on_c, 1, 53, 80
3, 5306, Note_on_c, 1, 53, 0
3, 5310, Note_on_c, 1, 63, 80
3, 5336, Note_on_c, 1, 63, 0
3, 5340, Note_on_c, 1, 53, 80
3, 5366, Note_on_c, 1, 53, 0
3, 5370, Note_on_c, 1, 63, 80
3, 5396, Note_on_c, 1, 63, 0
3, 5400, Note_on_c, 1, 62, 80
3, 5426, Note_on_c, 1, 62, 0
3, 5430, Note_on_c, 1, 53, 80
3, 5456, Note_on_c, 1, 53, 0
3, 5460, Note_on_c, 1, 62, 80
3, 5486, Note_on_c, 1, 62, 0
3, 5490, Note_on_c, 1, 53, 80
3, 5516, Note_on_c, 1, 53, 0
3, 5520, Note_on_c, 1, 51, 80
3, 5546, Note_on_c, 1, 51, 0
3, 5550, Note_on_c, 1, 62, 80
3, 5576, Note_on_c, 1, 62, 0
3, 5580, Note_on_c, 1, 51, 80
3, 5606, Note_on_c, 1, 51, 0
3, 5610, Note_on_c, 1, 62, 80
3, 5636, Note_on_c, 1, 62, 0
3, 5640, Note_on_c, 1, 51, 80
3, 5666, Note_on_c, 1, 51, 0
3, 5670, Note_on_c, 1, 60, 80
3, 5696, Note_on_c, 1, 60, 0
3, 5700, Note_on_c, 1, 51, 80
3, 5726, Note_on_c, 1, 51, 0
3, 5730, Note_on_c, 1, 60, 80
3, 5756, Note_on_c, 1, 60, 0
3, 5760, Note_on_c, 1, 51, 80
3, 5786, Note_on_c, 1, 51, 0
3, 5790, Note_on_c, 1, 58, 80
3, 5816, Note_on_c, 1, 58, 0
3, 5820, Note_on_c, 1, 51, 80
3, 5846, Note_on_c, 1, 51, 0
3, 5850, Note_on_c, 1, 58, 80
3, 5876, Note_on_c, 1, 58, 0
3, 5880, Note_on_c, 1, 51, 80
3, 5906, Note_on_c, 1, 51, 0
3, 5910, Note_on_c, 1, 57, 80
3, 5936, Note_on_c, 1, 57, 0
3, 5940, Note_on_c, 1, 50, 80
3, 5966, Note_on_c, 1, 50, 0
3, 5970, Note_on_c, 1, 57, 80
3, 5996, Note_on_c, 1, 57, 0
3, 6000, Note_on_c, 1, 51, 80
3, 6026, Note_on_c, 1, 51, 0
3, 6030, Note_on_c, 1, 57, 80
3, 6056, Note_on_c, 1, 57, 0
3, 6060, Note_on_c, 1, 55, 80
3, 6086, Note_on_c, 1, 55, 0
3, 6090, Note_on_c, 1, 57, 80
3, 6116, Note_on_c, 1, 57, 0
3, 6120, Note_on_c, 1, 53, 80
3, 6146, Note_on_c, 1, 53, 0
3, 6150, Note_on_c, 1, 57, 80
3, 6176, Note_on_c, 1, 57, 0
3, 6180, Note_on_c, 1, 51, 80
3, 6206, Note_on_c, 1, 51, 0
3, 6210, Note_on_c, 1, 57, 80
3, 6236, Note_on_c, 1, 57, 0
3, 6240, Note_on_c, 1, 50, 80
3, 6266, Note_on_c, 1, 50, 0
3, 6270, Note_on_c, 1, 57, 80
3, 6296, Note_on_c, 1, 57, 0
3, 6300, Note_on_c, 1, 51, 80
3, 6326, Note_on_c, 1, 51, 0
3, 6330, Note_on_c, 1, 57, 80
3, 6356, Note_on_c, 1, 57, 0
3, 6360, Note_on_c, 1, 50, 80
3, 6386, Note_on_c, 1, 50, 0
3, 6390, Note_on_c, 1, 53, 80
3, 6416, Note_on_c, 1, 53, 0
3, 6420, Note_on_c, 1, 55, 80
3, 6446, Note_on_c, 1, 55, 0
3, 6450, Note_on_c, 1, 57, 80
3, 6476, Note_on_c, 1, 57, 0
3, 6480, Note_on_c, 1, 58, 80
3, 6506, Note_on_c, 1, 58, 0
3, 6510, Note_on_c, 1, 60, 80
3, 6536, Note_on_c, 1, 60, 0
3, 6540, Note_on_c, 1, 62, 80
3, 6566, Note_on_c, 1, 62, 0
3, 6570, Note_on_c, 1, 63, 80
3, 6596, Note_on_c, 1, 63, 0
3, 6600, Note_on_c, 1, 65, 80
3, 6652, Note_on_c, 1, 65, 0
3, 6660, Note_on_c, 1, 62, 80
3, 6686, Note_on_c, 1, 62, 0
3, 6690, Note_on_c, 1, 58, 80
3, 6716, Note_on_c, 1, 58, 0
3, 6720, Note_on_c, 1, 53, 80
3, 6772, Note_on_c, 1, 53, 0
3, 6780, Note_on_c, 1, 57, 80
3, 6832, Note_on_c, 1, 57, 0
3, 6840, Note_on_c, 1, 46, 80
3, 6945, Note_on_c, 1, 46, 0
3, 6960, Note_on_c, 1, 62, 80
3, 7065, Note_on_c, 1, 62, 0
3, 7080, Note_on_c, 1, 62, 80
3, 7185, Note_on_c, 1, 62, 0
3, 7200, Note_on_c, 1, 65, 80
3, 7226, Note_on_c, 1, 65, 0
3, 7230, Note_on_c, 1, 63, 80
3, 7256, Note_on_c, 1, 63, 0
3, 7260, Note_on_c, 1, 62, 80
3, 7286, Note_on_c, 1, 62, 0
3, 7290, Note_on_c, 1, 63, 80
3, 7316, Note_on_c, 1, 63, 0
3, 7320, Note_on_c, 1, 62, 80
3, 7485, Note_on_c, 1, 62, 0
3, 7500, Note_on_c, 1, 58, 80
3, 7552, Note_on_c, 1, 58, 0
3, 7560, Note_on_c, 1, 62, 80
3, 7612, Note_on_c, 1, 62, 0
3, 7620, Note_on_c, 1, 58, 80
3, 7672, Note_on_c, 1, 58, 0
3, 7680, Note_on_c, 1, 65, 80
3, 7732, Note_on_c, 1, 65, 0
3, 7740, Note_on_c, 1, 62, 80
3, 7792, Note_on_c, 1, 62, 0
3, 7800, Note_on_c, 1, 58, 80
3, 7852, Note_on_c, 1, 58, 0
3, 7860, Note_on_c, 1, 53, 80
3, 7886, Note_on_c, 1, 53, 0
3, 7890, Note_on_c, 1, 50, 80
3, 7916, Note_on_c, 1, 50, 0
3, 7920, Note_on_c, 1, 46, 80
3, 7972, Note_on_c, 1, 46, 0
3, 7980, Note_on_c, 1, 65, 80
3, 8092, Note_on_c, 1, 65, 0
3, 8100, Note_on_c, 1, 58, 80
3, 8152, Note_on_c, 1, 58, 0
3, 8160, Note_on_c, 1, 67, 80
3, 8212, Note_on_c, 1, 67, 0
3, 8220, Note_on_c, 1, 63, 80
3, 8272, Note_on_c, 1, 63, 0
3, 8280, Note_on_c, 1, 60, 80
3, 8332, Note_on_c, 1, 60, 0
3, 8340, Note_on_c, 1, 56, 80
3, 8366, Note_on_c, 1, 56, 0
3, 8370, Note_on_c, 1, 53, 80
3, 8396, Note_on_c, 1, 53, 0
3, 8400, Note_on_c, 1, 44, 80
3, 8452, Note_on_c, 1, 44, 0
3, 8460, Note_on_c, 1, 68, 80
3, 8572, Note_on_c, 1, 68, 0
3, 8580, Note_on_c, 1, 65, 80
3, 8632, Note_on_c, 1, 65, 0
3, 8640, Note_on_c, 1, 70, 80
3, 8692, Note_on_c, 1, 70, 0
3, 8700, Note_on_c, 1, 65, 80
3, 8752, Note_on_c, 1, 65, 0
3, 8760, Note_on_c, 1, 67, 80
3, 8812, Note_on_c, 1, 67, 0
3, 8820, Note_on_c, 1, 63, 80
3, 8846, Note_on_c, 1, 63, 0
3, 8850, Note_on_c, 1, 58, 80
3, 8876, Note_on_c, 1, 58, 0
3, 8880, Note_on_c, 1, 51, 80
3, 8932, Note_on_c, 1, 51, 0
3, 8940, Note_on_c, 1, 58, 80
3, 8992, Note_on_c, 1, 58, 0
3, 9000, Note_on_c, 1, 63, 80
3, 9052, Note_on_c, 1, 63, 0
3, 9060, Note_on_c, 1, 58, 80
3, 9112, Note_on_c, 1, 58, 0
3, 9120, Note_on_c, 1, 67, 80
3, 9172, Note_on_c, 1, 67, 0
3, 9180, Note_on_c, 1, 58, 80
3, 9232, Note_on_c, 1, 58, 0
3, 9240, Note_on_c, 1, 60, 80
3, 9292, Note_on_c, 1, 60, 0
3, 9300, Note_on_c, 1, 53, 80
3, 9352, Note_on_c, 1, 53, 0
3, 9360, Note_on_c, 1, 63, 80
3, 9412, Note_on_c, 1, 63, 0
3, 9420, Note_on_c, 1, 60, 80
3, 9472, Note_on_c, 1, 60, 0
3, 9480, Note_on_c, 1, 62, 80
3, 9532, Note_on_c, 1, 62, 0
3, 9540, Note_on_c, 1, 58, 80
3, 9592, Note_on_c, 1, 58, 0
3, 9600, Note_on_c, 1, 65, 80
3, 9652, Note_on_c, 1, 65, 0
3, 9660, Note_on_c, 1, 58, 80
3, 9712, Note_on_c, 1, 58, 0
3, 9720, Note_on_c, 1, 60, 80
3, 9746, Note_on_c, 1, 60, 0
3, 9750, Note_on_c, 1, 58, 80
3, 9776, Note_on_c, 1, 58, 0
3, 9780, Note_on_c, 1, 57, 80
3, 9806, Note_on_c, 1, 57, 0
3, 9810, Note_on_c, 1, 55, 80
3, 9836, Note_on_c, 1, 55, 0
3, 9840, Note_on_c, 1, 53, 80
3, 9892, Note_on_c, 1, 53, 0
3, 9900, Note_on_c, 1, 60, 80
3, 9952, Note_on_c, 1, 60, 0
3, 9960, Note_on_c, 1, 63, 80
3, 10012, Note_on_c, 1, 63, 0
3, 10020, Note_on_c, 1, 60, 80
3, 10072, Note_on_c, 1, 60, 0
3, 10080, Note_on_c, 1, 69, 80
3, 10132, Note_on_c, 1, 69, 0
3, 10140, Note_on_c, 1, 60, 80
3, 10192, Note_on_c, 1, 60, 0
3, 10200, Note_on_c, 1, 62, 80
3, 10226, Note_on_c, 1, 62, 0
3, 10230, Note_on_c, 1, 60, 80
3, 10256, Note_on_c, 1, 60, 0
3, 10260, Note_on_c, 1, 58, 80
3, 10286, Note_on_c, 1, 58, 0
3, 10290, Note_on_c, 1, 57, 80
3, 10316, Note_on_c, 1, 57, 0
3, 10320, Note_on_c, 1, 58, 80
3, 10372, Note_on_c, 1, 58, 0
3, 10380, Note_on_c, 1, 62, 80
3, 10432, Note_on_c, 1, 62, 0
3, 10440, Note_on_c, 1, 65, 80
3, 10492, Note_on_c, 1, 65, 0
3, 10500, Note_on_c, 1, 62, 80
3, 10552, Note_on_c, 1, 62, 0
3, 10560, Note_on_c, 1, 70, 80
3, 10612, Note_on_c, 1, 70, 0
3, 10620, Note_on_c, 1, 62, 80
3, 10672, Note_on_c, 1, 62, 0
3, 10680, Note_on_c, 1, 63, 80
3, 10706, Note_on_c, 1, 63, 0
3, 10710, Note_on_c, 1, 62, 80
3, 10736, Note_on_c, 1, 62, 0
3, 10740, Note_on_c, 1, 60, 80
3, 10766, Note_on_c, 1, 60, 0
3, 10770, Note_on_c, 1, 58, 80
3, 10796, Note_on_c, 1, 58, 0
3, 10800, Note_on_c, 1, 57, 80
3, 10852, Note_on_c, 1, 57, 0
3, 10860, Note_on_c, 1, 62, 80
3, 10912, Note_on_c, 1, 62, 0
3, 10920, Note_on_c, 1, 70, 80
3, 10946, Note_on_c, 1, 70, 0
3, 10950, Note_on_c, 1, 62, 80
3, 10976, Note_on_c, 1, 62, 0
3, 10980, Note_on_c, 1, 70, 80
3, 11006, Note_on_c, 1, 70, 0
3, 11010, Note_on_c, 1, 62, 80
3, 11036, Note_on_c, 1, 62, 0
3, 11040, Note_on_c, 1, 68, 80
3, 11066, Note_on_c, 1, 68, 0
3, 11070, Note_on_c, 1, 62, 80
3, 11096, Note_on_c, 1, 62, 0
3, 11100, Note_on_c, 1, 68, 80
3, 11126, Note_on_c, 1, 68, 0
3, 11130, Note_on_c, 1, 62, 80
3, 11156, Note_on_c, 1, 62, 0
3, 11160, Note_on_c, 1, 67, 80
3, 11186, Note_on_c, 1, 67, 0
3, 11190, Note_on_c, 1, 63, 80
3, 11216, Note_on_c, 1, 63, 0
3, 11220, Note_on_c, 1, 67, 80
3, 11246, Note_on_c, 1, 67, 0
3, 11250, Note_on_c, 1, 63, 80
3, 11276, Note_on_c, 1, 63, 0
3, 11280, Note_on_c, 1, 69, 80
3, 11306, Note_on_c, 1, 69, 0
3, 11310, Note_on_c, 1, 63, 80
3, 11336, Note_on_c, 1, 63, 0
3, 11340, Note_on_c, 1, 69, 80
3, 11366, Note_on_c, 1, 69, 0
3, 11370, Note_on_c, 1, 63, 80
3, 11396, Note_on_c, 1, 63, 0
3, 11400, Note_on_c, 1, 70, 80
3, 11426, Note_on_c, 1, 70, 0
3, 11430, Note_on_c, 1, 69, 80
3, 11456, Note_on_c, 1, 69, 0
3, 11460, Note_on_c, 1, 67, 80
3, 11486, Note_on_c, 1, 67, 0
3, 11490, Note_on_c, 1, 65, 80
3, 11516, Note_on_c, 1, 65, 0
3, 11520, Note_on_c, 1, 63, 80
3, 11546, Note_on_c, 1, 63, 0
3, 11550, Note_on_c, 1, 62, 80
3, 11576, Note_on_c, 1, 62, 0
3, 11580, Note_on_c, 1, 60, 80
3, 11606, Note_on_c, 1, 60, 0
3, 11610, Note_on_c, 1, 58, 80
3, 11636, Note_on_c, 1, 58, 0
3, 11640, Note_on_c, 1, 67, 80
3, 11666, Note_on_c, 1, 67, 0
3, 11670, Note_on_c, 1, 65, 80
3, 11696, Note_on_c, 1, 65, 0
3, 11700, Note_on_c, 1, 63, 80
3, 11726, Note_on_c, 1, 63, 0
3, 11730, Note_on_c, 1, 62, 80
3, 11756, Note_on_c, 1, 62, 0
3, 11760, Note_on_c, 1, 60, 80
3, 11786, Note_on_c, 1, 60, 0
3, 11790, Note_on_c, 1, 58, 80
3, 11816, Note_on_c, 1, 58, 0
3, 11820, Note_on_c, 1, 57, 80
3, 11846, Note_on_c, 1, 57, 0
3, 11850, Note_on_c, 1, 55, 80
3, 11876, Note_on_c, 1, 55, 0
3, 11880, Note_on_c, 1, 57, 80
3, 11906, Note_on_c, 1, 57, 0
3, 11910, Note_on_c, 1, 58, 80
3, 11936, Note_on_c, 1, 58, 0
3, 11940, Note_on_c, 1, 60, 80
3, 11966, Note_on_c, 1, 60, 0
3, 11970, Note_on_c, 1, 62, 80
3, 11996, Note_on_c, 1, 62, 0
3, 12000, Note_on_c, 1, 63, 80
3, 12052, Note_on_c, 1, 63, 0
3, 12060, Note_on_c, 1, 60, 80
3, 12112, Note_on_c, 1, 60, 0
3, 12120, Note_on_c, 1, 62, 80
3, 12172, Note_on_c, 1, 62, 0
3, 12180, Note_on_c, 1, 58, 80
3, 12232, Note_on_c, 1, 58, 0
3, 12240, Note_on_c, 1, 65, 80
3, 12292, Note_on_c, 1, 65, 0
3, 12300, Note_on_c, 1, 56, 80
3, 12352, Note_on_c, 1, 56, 0
3, 12360, Note_on_c, 1, 55, 80
3, 12386, Note_on_c, 1, 55, 0
3, 12390, Note_on_c, 1, 53, 80
3, 12416, Note_on_c, 1, 53, 0
3, 12420, Note_on_c, 1, 51, 80
3, 12446, Note_on_c, 1, 51, 0
3, 12450, Note_on_c, 1, 50, 80
3, 12476, Note_on_c, 1, 50, 0
3, 12480, Note_on_c, 1, 51, 80
3, 12532, Note_on_c, 1, 51, 0
3, 12540, Note_on_c, 1, 58, 80
3, 12592, Note_on_c, 1, 58, 0
3, 12600, Note_on_c, 1, 63, 80
3, 12652, Note_on_c, 1, 63, 0
3, 12660, Note_on_c, 1, 60, 80
3, 12712, Note_on_c, 1, 60, 0
3, 12720, Note_on_c, 1, 69, 80
3, 12772, Note_on_c, 1, 69, 0
3, 12780, Note_on_c, 1, 58, 80
3, 12832, Note_on_c, 1, 58, 0
3, 12840, Note_on_c, 1, 57, 80
3, 12866, Note_on_c, 1, 57, 0
3, 12870, Note_on_c, 1, 55, 80
3, 12896, Note_on_c, 1, 55, 0
3, 12900, Note_on_c, 1, 53, 80
3, 12926, Note_on_c, 1, 53, 0
3, 12930, Note_on_c, 1, 52, 80
3, 12956, Note_on_c, 1, 52, 0
3, 12960, Note_on_c, 1, 53, 80
3, 12986, Note_on_c, 1, 53, 0
3, 12990, Note_on_c, 1, 55, 80
3, 13016, Note_on_c, 1, 55, 0
3, 13020, Note_on_c, 1, 57, 80
3, 13046, Note_on_c, 1, 57, 0
3, 13050, Note_on_c, 1, 58, 80
3, 13076, Note_on_c, 1, 58, 0
3, 13080, Note_on_c, 1, 60, 80
3, 13106, Note_on_c, 1, 60, 0
3, 13110, Note_on_c, 1, 51, 80
3, 13136, Note_on_c, 1, 51, 0
3, 13140, Note_on_c, 1, 60, 80
3, 13166, Note_on_c, 1, 60, 0
3, 13170, Note_on_c, 1, 51, 80
3, 13196, Note_on_c, 1, 51, 0
3, 13200, Note_on_c, 1, 62, 80
3, 13226, Note_on_c, 1, 62, 0
3, 13230, Note_on_c, 1, 51, 80
3, 13256, Note_on_c, 1, 51, 0
3, 13260, Note_on_c, 1, 62, 80
3, 13286, Note_on_c, 1, 62, 0
3, 13290, Note_on_c, 1, 51, 80
3, 13316, Note_on_c, 1, 51, 0
3, 13320, Note_on_c, 1, 60, 80
3, 13346, Note_on_c, 1, 60, 0
3, 13350, Note_on_c, 1, 51, 80
3, 13376, Note_on_c, 1, 51, 0
3, 13380, Note_on_c, 1, 60, 80
3, 13406, Note_on_c, 1, 60, 0
3, 13410, Note_on_c, 1, 51, 80
3, 13436, Note_on_c, 1, 51, 0
3, 13440, Note_on_c, 1, 58, 80
3, 13466, Note_on_c, 1, 58, 0
3, 13470, Note_on_c, 1, 51, 80
3, 13496, Note_on_c, 1, 51, 0
3, 13500, Note_on_c, 1, 58, 80
3, 13526, Note_on_c, 1, 58, 0
3, 13530, Note_on_c, 1, 51, 80
3, 13556, Note_on_c, 1, 51, 0
3, 13560, Note_on_c, 1, 51, 80
3, 13586, Note_on_c, 1, 51, 0
3, 13590, Note_on_c, 1, 57, 80
3, 13616, Note_on_c, 1, 57, 0
3, 13620, Note_on_c, 1, 50, 80
3, 13646, Note_on_c, 1, 50, 0
3, 13650, Note_on_c, 1, 57, 80
3, 13676, Note_on_c, 1, 57, 0
3, 13680, Note_on_c, 1, 51, 80
3, 13706, Note_on_c, 1, 51, 0
3, 13710, Note_on_c, 1, 57, 80
3, 13736, Note_on_c, 1, 57, 0
3, 13740, Note_on_c, 1, 55, 80
3, 13766, Note_on_c, 1, 55, 0
3, 13770, Note_on_c, 1, 57, 80
3, 13796, Note_on_c, 1, 57, 0
3, 13800, Note_on_c, 1, 53, 80
3, 13826, Note_on_c, 1, 53, 0
3, 13830, Note_on_c, 1, 57, 80
3, 13856, Note_on_c, 1, 57, 0
3, 13860, Note_on_c, 1, 51, 80
3, 13886, Note_on_c, 1, 51, 0
3, 13890, Note_on_c, 1, 57, 80
3, 13916, Note_on_c, 1, 57, 0
3, 13920, Note_on_c, 1, 50, 80
3, 13946, Note_on_c, 1, 50, 0
3, 13950, Note_on_c, 1, 57, 80
3, 13976, Note_on_c, 1, 57, 0
3, 13980, Note_on_c, 1, 51, 80
3, 14006, Note_on_c, 1, 51, 0
3, 14010, Note_on_c, 1, 57, 80
3, 14036, Note_on_c, 1, 57, 0
3, 14040, Note_on_c, 1, 50, 80
3, 14066, Note_on_c, 1, 50, 0
3, 14070, Note_on_c, 1, 53, 80
3, 14096, Note_on_c, 1, 53, 0
3, 14100, Note_on_c, 1, 55, 80
3, 14126, Note_on_c, 1, 55, 0
3, 14130, Note_on_c, 1, 57, 80
3, 14156, Note_on_c, 1, 57, 0
3, 14160, Note_on_c, 1, 58, 80
3, 14186, Note_on_c, 1, 58, 0
3, 14190, Note_on_c, 1, 60, 80
3, 14216, Note_on_c, 1, 60, 0
3, 14220, Note_on_c, 1, 62, 80
3, 14246, Note_on_c, 1, 62, 0
3, 14250, Note_on_c, 1, 63, 80
3, 14276, Note_on_c, 1, 63, 0
3, 14280, Note_on_c, 1, 65, 80
3, 14332, Note_on_c, 1, 65, 0
3, 14340, Note_on_c, 1, 62, 80
3, 14366, Note_on_c, 1, 62, 0
3, 14370, Note_on_c, 1, 58, 80
3, 14396, Note_on_c, 1, 58, 0
3, 14400, Note_on_c, 1, 53, 80
3, 14452, Note_on_c, 1, 53, 0
3, 14460, Note_on_c, 1, 57, 80
3, 14512, Note_on_c, 1, 57, 0
3, 14520, Note_on_c, 1, 46, 80
3, 14625, Note_on_c, 1, 46, 0
3, 14640, Note_on_c, 1, 65, 80
3, 14745, Note_on_c, 1, 65, 0
3, 14760, Note_on_c, 1, 65, 80
3, 14865, Note_on_c, 1, 65, 0
3, 14880, Note_on_c, 1, 69, 80
3, 14906, Note_on_c, 1, 69, 0
3, 14910, Note_on_c, 1, 67, 80
3, 14936, Note_on_c, 1, 67, 0
3, 14940, Note_on_c, 1, 66, 80
3, 14966, Note_on_c, 1, 66, 0
3, 14970, Note_on_c, 1, 67, 80
3, 14996, Note_on_c, 1, 67, 0
3, 15000, Note_on_c, 1, 66, 80
3, 15105, Note_on_c, 1, 66, 0
3, 15120, Note_on_c, 1, 57, 80
3, 15225, Note_on_c, 1, 57, 0
3, 15240, Note_on_c, 1, 57, 80
3, 15345, Note_on_c, 1, 57, 0
3, 15360, Note_on_c, 1, 60, 80
3, 15386, Note_on_c, 1, 60, 0
3, 15390, Note_on_c, 1, 58, 80
3, 15416, Note_on_c, 1, 58, 0
3, 15420, Note_on_c, 1, 57, 80
3, 15446, Note_on_c, 1, 57, 0
3, 15450, Note_on_c, 1, 58, 80
3, 15476, Note_on_c, 1, 58, 0
3, 15480, Note_on_c, 1, 55, 80
3, 15532, Note_on_c, 1, 55, 0
3, 15540, Note_on_c, 1, 50, 80
3, 15592, Note_on_c, 1, 50, 0
3, 15600, Note_on_c, 1, 58, 80
3, 15652, Note_on_c, 1, 58, 0
3, 15660, Note_on_c, 1, 55, 80
3, 15712, Note_on_c, 1, 55, 0
3, 15720, Note_on_c, 1, 63, 80
3, 15772, Note_on_c, 1, 63, 0
3, 15780, Note_on_c, 1, 60, 80
3, 15832, Note_on_c, 1, 60, 0
3, 15840, Note_on_c, 1, 67, 80
3, 15892, Note_on_c, 1, 67, 0
3, 15900, Note_on_c, 1, 58, 80
3, 15952, Note_on_c, 1, 58, 0
3, 15960, Note_on_c, 1, 57, 80
3, 16012, Note_on_c, 1, 57, 0
3, 16020, Note_on_c, 1, 53, 80
3, 16072, Note_on_c, 1, 53, 0
3, 16080, Note_on_c, 1, 60, 80
3, 16132, Note_on_c, 1, 60, 0
3, 16140, Note_on_c, 1, 51, 80
3, 16192, Note_on_c, 1, 51, 0
3, 16200, Note_on_c, 1, 50, 80
3, 16226, Note_on_c, 1, 50, 0
3, 16230, Note_on_c, 1, 54, 80
3, 16256, Note_on_c, 1, 54, 0
3, 16260, Note_on_c, 1, 55, 80
3, 16286, Note_on_c, 1, 55, 0
3, 16290, Note_on_c, 1, 57, 80
3, 16316, Note_on_c, 1, 57, 0
3, 16320, Note_on_c, 1, 58, 80
3, 16346, Note_on_c, 1, 58, 0
3, 16350, Note_on_c, 1, 60, 80
3, 16376, Note_on_c, 1, 60, 0
3, 16380, Note_on_c, 1, 62, 80
3, 16406, Note_on_c, 1, 62, 0
3, 16410, Note_on_c, 1, 64, 80
3, 16436, Note_on_c, 1, 64, 0
3, 16440, Note_on_c, 1, 65, 80
3, 16466, Note_on_c, 1, 65, 0
3, 16470, Note_on_c, 1, 64, 80
3, 16496, Note_on_c, 1, 64, 0
3, 16500, Note_on_c, 1, 62, 80
3, 16526, Note_on_c, 1, 62, 0
3, 16530, Note_on_c, 1, 64, 80
3, 16556, Note_on_c, 1, 64, 0
3, 16560, Note_on_c, 1, 60, 80
3, 16586, Note_on_c, 1, 60, 0
3, 16590, Note_on_c, 1, 70, 80
3, 16616, Note_on_c, 1, 70, 0
3, 16620, Note_on_c, 1, 60, 80
3, 16646, Note_on_c, 1, 60, 0
3, 16650, Note_on_c, 1, 70, 80
3, 16676, Note_on_c, 1, 70, 0
3, 16680, Note_on_c, 1, 69, 80
3, 16706, Note_on_c, 1, 69, 0
3, 16710, Note_on_c, 1, 60, 80
3, 16736, Note_on_c, 1, 60, 0
3, 16740, Note_on_c, 1, 69, 80
3, 16766, Note_on_c, 1, 69, 0
3, 16770, Note_on_c, 1, 60, 80
3, 16796, Note_on_c, 1, 60, 0
3, 16800, Note_on_c, 1, 58, 80
3, 16826, Note_on_c, 1, 58, 0
3, 16830, Note_on_c, 1, 69, 80
3, 16856, Note_on_c, 1, 69, 0
3, 16860, Note_on_c, 1, 58, 80
3, 16886, Note_on_c, 1, 58, 0
3, 16890, Note_on_c, 1, 69, 80
3, 16916, Note_on_c, 1, 69, 0
3, 16920, Note_on_c, 1, 67, 80
3, 16946, Note_on_c, 1, 67, 0
3, 16950, Note_on_c, 1, 58, 80
3, 16976, Note_on_c, 1, 58, 0
3, 16980, Note_on_c, 1, 67, 80
3, 17006, Note_on_c, 1, 67, 0
3, 17010, Note_on_c, 1, 58, 80
3, 17036, Note_on_c, 1, 58, 0
3, 17040, Note_on_c, 1, 57, 80
3, 17066, Note_on_c, 1, 57, 0
3, 17070, Note_on_c, 1, 67, 80
3, 17096, Note_on_c, 1, 67, 0
3, 17100, Note_on_c, 1, 57, 80
3, 17126, Note_on_c, 1, 57, 0
3, 17130, Note_on_c, 1, 67, 80
3, 17156, Note_on_c, 1, 67, 0
3, 17160, Note_on_c, 1, 65, 80
3, 17186, Note_on_c, 1, 65, 0
3, 17190, Note_on_c, 1, 57, 80
3, 17216, Note_on_c, 1, 57, 0
3, 17220, Note_on_c, 1, 65, 80
3, 17246, Note_on_c, 1, 65, 0
3, 17250, Note_on_c, 1, 57, 80
3, 17276, Note_on_c, 1, 57, 0
3, 17280, Note_on_c, 1, 55, 80
3, 17306, Note_on_c, 1, 55, 0
3, 17310, Note_on_c, 1, 65, 80
3, 17336, Note_on_c, 1, 65, 0
3, 17340, Note_on_c, 1, 57, 80
3, 17366, Note_on_c, 1, 57, 0
3, 17370, Note_on_c, 1, 65, 80
3, 17396, Note_on_c, 1, 65, 0
3, 17400, Note_on_c, 1, 58, 80
3, 17426, Note_on_c, 1, 58, 0
3, 17430, Note_on_c, 1, 64, 80
3, 17456, Note_on_c, 1, 64, 0
3, 17460, Note_on_c, 1, 57, 80
3, 17486, Note_on_c, 1, 57, 0
3, 17490, Note_on_c, 1, 64, 80
3, 17516, Note_on_c, 1, 64, 0
3, 17520, Note_on_c, 1, 58, 80
3, 17546, Note_on_c, 1, 58, 0
3, 17550, Note_on_c, 1, 64, 80
3, 17576, Note_on_c, 1, 64, 0
3, 17580, Note_on_c, 1, 62, 80
3, 17606, Note_on_c, 1, 62, 0
3, 17610, Note_on_c, 1, 64, 80
3, 17636, Note_on_c, 1, 64, 0
3, 17640, Note_on_c, 1, 60, 80
3, 17666, Note_on_c, 1, 60, 0
3, 17670, Note_on_c, 1, 64, 80
3, 17696, Note_on_c, 1, 64, 0
3, 17700, Note_on_c, 1, 58, 80
3, 17726, Note_on_c, 1, 58, 0
3, 17730, Note_on_c, 1, 64, 80
3, 17756, Note_on_c, 1, 64, 0
3, 17760, Note_on_c, 1, 57, 80
3, 17786, Note_on_c, 1, 57, 0
3, 17790, Note_on_c, 1, 64, 80
3, 17816, Note_on_c, 1, 64, 0
3, 17820, Note_on_c, 1, 58, 80
3, 17846, Note_on_c, 1, 58, 0
3, 17850, Note_on_c, 1, 64, 80
3, 17876, Note_on_c, 1, 64, 0
3, 17880, Note_on_c, 1, 57, 80
3, 17906, Note_on_c, 1, 57, 0
3, 17910, Note_on_c, 1, 60, 80
3, 17936, Note_on_c, 1, 60, 0
3, 17940, Note_on_c, 1, 62, 80
3, 17966, Note_on_c, 1, 62, 0
3, 17970, Note_on_c, 1, 64, 80
3, 17996, Note_on_c, 1, 64, 0
3, 18000, Note_on_c, 1, 65, 80
3, 18026, Note_on_c, 1, 65, 0
3, 18030, Note_on_c, 1, 67, 80
3, 18056, Note_on_c, 1, 67, 0
3, 18060, Note_on_c, 1, 69, 80
3, 18086, Note_on_c, 1, 69, 0
3, 18090, Note_on_c, 1, 70, 80
3, 18116, Note_on_c, 1, 70, 0
3, 18120, Note_on_c, 1, 69, 80
3, 18146, Note_on_c, 1, 69, 0
3, 18150, Note_on_c, 1, 67, 80
3, 18176, Note_on_c, 1, 67, 0
3, 18180, Note_on_c, 1, 66, 80
3, 18206, Note_on_c, 1, 66, 0
3, 18210, Note_on_c, 1, 64, 80
3, 18236, Note_on_c, 1, 64, 0
3, 18240, Note_on_c, 1, 62, 80
3, 18266, Note_on_c, 1, 62, 0
3, 18270, Note_on_c, 1, 60, 80
3, 18296, Note_on_c, 1, 60, 0
3, 18300, Note_on_c, 1, 58, 80
3, 18326, Note_on_c, 1, 58, 0
3, 18330, Note_on_c, 1, 57, 80
3, 18356, Note_on_c, 1, 57, 0
3, 18360, Note_on_c, 1, 55, 80
3, 18465, Note_on_c, 1, 55, 0
3, 18480, Note_on_c, 1, 62, 80
3, 18585, Note_on_c, 1, 62, 0
3, 18600, Note_on_c, 1, 62, 80
3, 18705, Note_on_c, 1, 62, 0
3, 18720, Note_on_c, 1, 65, 80
3, 18746, Note_on_c, 1, 65, 0
3, 18750, Note_on_c, 1, 63, 80
3, 18776, Note_on_c, 1, 63, 0
3, 18780, Note_on_c, 1, 62, 80
3, 18806, Note_on_c, 1, 62, 0
3, 18810, Note_on_c, 1, 63, 80
3, 18836, Note_on_c, 1, 63, 0
3, 18840, Note_on_c, 1, 62, 80
3, 18866, Note_on_c, 1, 62, 0
3, 18870, Note_on_c, 1, 58, 80
3, 18896, Note_on_c, 1, 58, 0
3, 18900, Note_on_c, 1, 62, 80
3, 18926, Note_on_c, 1, 62, 0
3, 18930, Note_on_c, 1, 58, 80
3, 18956, Note_on_c, 1, 58, 0
3, 18960, Note_on_c, 1, 63, 80
3, 18986, Note_on_c, 1, 63, 0
3, 18990, Note_on_c, 1, 58, 80
3, 19016, Note_on_c, 1, 58, 0
3, 19020, Note_on_c, 1, 63, 80
3, 19046, Note_on_c, 1, 63, 0
3, 19050, Note_on_c, 1, 58, 80
3, 19076, Note_on_c, 1, 58, 0
3, 19080, Note_on_c, 1, 65, 80
3, 19132, Note_on_c, 1, 65, 0
3, 19140, Note_on_c, 1, 58, 80
3, 19192, Note_on_c, 1, 58, 0
3, 19200, Note_on_c, 1, 70, 80
3, 19226, Note_on_c, 1, 70, 0
3, 19230, Note_on_c, 1, 68, 80
3, 19256, Note_on_c, 1, 68, 0
3, 19260, Note_on_c, 1, 67, 80
3, 19286, Note_on_c, 1, 67, 0
3, 19290, Note_on_c, 1, 68, 80
3, 19316, Note_on_c, 1, 68, 0
3, 19320, Note_on_c, 1, 67, 80
3, 19372, Note_on_c, 1, 67, 0
3, 19380, Note_on_c, 1, 57, 80
3, 19432, Note_on_c, 1, 57, 0
3, 19440, Note_on_c, 1, 58, 80
3, 19665, Note_on_c, 1, 58, 0
3, 19680, Note_on_c, 1, 57, 80
3, 19785, Note_on_c, 1, 57, 0
3, 19800, Note_on_c, 1, 58, 80
3, 19852, Note_on_c, 1, 58, 0
3, 19860, Note_on_c, 1, 53, 80
3, 19912, Note_on_c, 1, 53, 0
3, 19920, Note_on_c, 1, 62, 80
3, 19972, Note_on_c, 1, 62, 0
3, 19980, Note_on_c, 1, 56, 80
3, 20032, Note_on_c, 1, 56, 0
3, 20040, Note_on_c, 1, 55, 80
3, 20066, Note_on_c, 1, 55, 0
3, 20070, Note_on_c, 1, 53, 80
3, 20096, Note_on_c, 1, 53, 0
3, 20100, Note_on_c, 1, 51, 80
3, 20126, Note_on_c, 1, 51, 0
3, 20130, Note_on_c, 1, 48, 80
3, 20156, Note_on_c, 1, 48, 0
3, 20160, Note_on_c, 1, 51, 80
3, 20186, Note_on_c, 1, 51, 0
3, 20190, Note_on_c, 1, 46, 80
3, 20216, Note_on_c, 1, 46, 0
3, 20220, Note_on_c, 1, 51, 80
3, 20246, Note_on_c, 1, 51, 0
3, 20250, Note_on_c, 1, 46, 80
3, 20276, Note_on_c, 1, 46, 0
3, 20280, Note_on_c, 1, 56, 80
3, 20306, Note_on_c, 1, 56, 0
3, 20310, Note_on_c, 1, 46, 80
3, 20336, Note_on_c, 1, 46, 0
3, 20340, Note_on_c, 1, 56, 80
3, 20366, Note_on_c, 1, 56, 0
3, 20370, Note_on_c, 1, 46, 80
3, 20396, Note_on_c, 1, 46, 0
3, 20400, Note_on_c, 1, 55, 80
3, 20426, Note_on_c, 1, 55, 0
3, 20430, Note_on_c, 1, 46, 80
3, 20456, Note_on_c, 1, 46, 0
3, 20460, Note_on_c, 1, 55, 80
3, 20486, Note_on_c, 1, 55, 0
3, 20490, Note_on_c, 1, 46, 80
3, 20516, Note_on_c, 1, 46, 0
3, 20520, Note_on_c, 1, 53, 80
3, 20546, Note_on_c, 1, 53, 0
3, 20550, Note_on_c, 1, 46, 80
3, 20576, Note_on_c, 1, 46, 0
3, 20580, Note_on_c, 1, 53, 80
3, 20606, Note_on_c, 1, 53, 0
3, 20610, Note_on_c, 1, 46, 80
3, 20636, Note_on_c, 1, 46, 0
3, 20640, Note_on_c, 1, 51, 80
3, 20666, Note_on_c, 1, 51, 0
3, 20670, Note_on_c, 1, 46, 80
3, 20696, Note_on_c, 1, 46, 0
3, 20700, Note_on_c, 1, 51, 80
3, 20726, Note_on_c, 1, 51, 0
3, 20730, Note_on_c, 1, 46, 80
3, 20756, Note_on_c, 1, 46, 0
3, 20760, Note_on_c, 1, 44, 80
3, 20786, Note_on_c, 1, 44, 0
3, 20790, Note_on_c, 1, 50, 80
3, 20816, Note_on_c, 1, 50, 0
3, 20820, Note_on_c, 1, 43, 80
3, 20846, Note_on_c, 1, 43, 0
3, 20850, Note_on_c, 1, 50, 80
3, 20876, Note_on_c, 1, 50, 0
3, 20880, Note_on_c, 1, 44, 80
3, 20906, Note_on_c, 1, 44, 0
3, 20910, Note_on_c, 1, 50, 80
3, 20936, Note_on_c, 1, 50, 0
3, 20940, Note_on_c, 1, 48, 80
3, 20966, Note_on_c, 1, 48, 0
3, 20970, Note_on_c, 1, 50, 80
3, 20996, Note_on_c, 1, 50, 0
3, 21000, Note_on_c, 1, 46, 80
3, 21026, Note_on_c, 1, 46, 0
3, 21030, Note_on_c, 1, 50, 80
3, 21056, Note_on_c, 1, 50, 0
3, 21060, Note_on_c, 1, 44, 80
3, 21086, Note_on_c, 1, 44, 0
3, 21090, Note_on_c, 1, 50, 80
3, 21116, Note_on_c, 1, 50, 0
3, 21120, Note_on_c, 1, 43, 80
3, 21146, Note_on_c, 1, 43, 0
3, 21150, Note_on_c, 1, 50, 80
3, 21176, Note_on_c, 1, 50, 0
3, 21180, Note_on_c, 1, 44, 80
3, 21206, Note_on_c, 1, 44, 0
3, 21210, Note_on_c, 1, 50, 80
3, 21236, Note_on_c, 1, 50, 0
3, 21240, Note_on_c, 1, 43, 80
3, 21266, Note_on_c, 1, 43, 0
3, 21270, Note_on_c, 1, 46, 80
3, 21296, Note_on_c, 1, 46, 0
3, 21300, Note_on_c, 1, 48, 80
3, 21326, Note_on_c, 1, 48, 0
3, 21330, Note_on_c, 1, 50, 80
3, 21356, Note_on_c, 1, 50, 0
3, 21360, Note_on_c, 1, 51, 80
3, 21386, Note_on_c, 1, 51, 0
3, 21390, Note_on_c, 1, 53, 80
3, 21416, Note_on_c, 1, 53, 0
3, 21420, Note_on_c, 1, 55, 80
3, 21446, Note_on_c, 1, 55, 0
3, 21450, Note_on_c, 1, 57, 80
3, 21476, Note_on_c, 1, 57, 0
3, 21480, Note_on_c, 1, 58, 80
3, 21506, Note_on_c, 1, 58, 0
3, 21510, Note_on_c, 1, 60, 80
3, 21536, Note_on_c, 1, 60, 0
3, 21540, Note_on_c, 1, 62, 80
3, 21566, Note_on_c, 1, 62, 0
3, 21570, Note_on_c, 1, 63, 80
3, 21596, Note_on_c, 1, 63, 0
3, 21600, Note_on_c, 1, 65, 80
3, 21626, Note_on_c, 1, 65, 0
3, 21630, Note_on_c, 1, 63, 80
3, 21656, Note_on_c, 1, 63, 0
3, 21660, Note_on_c, 1, 62, 80
3, 21686, Note_on_c, 1, 62, 0
3, 21690, Note_on_c, 1, 63, 80
3, 21716, Note_on_c, 1, 63, 0
3, 21720, Note_on_c, 1, 62, 80
3, 21885, Note_on_c, 1, 62, 0
3, 21900, Note_on_c, 1, 58, 80
3, 21952, Note_on_c, 1, 58, 0
3, 21960, Note_on_c, 1, 67, 80
3, 22012, Note_on_c, 1, 67, 0
3, 22020, Note_on_c, 1, 62, 80
3, 22072, Note_on_c, 1, 62, 0
3, 22080, Note_on_c, 1, 70, 80
3, 22132, Note_on_c, 1, 70, 0
3, 22140, Note_on_c, 1, 62, 80
3, 22192, Note_on_c, 1, 62, 0
3, 22200, Note_on_c, 1, 64, 80
3, 22252, Note_on_c, 1, 64, 0
3, 22260, Note_on_c, 1, 60, 80
3, 22286, Note_on_c, 1, 60, 0
3, 22290, Note_on_c, 1, 55, 80
3, 22316, Note_on_c, 1, 55, 0
3, 22320, Note_on_c, 1, 48, 80
3, 22372, Note_on_c, 1, 48, 0
3, 22380, Note_on_c, 1, 60, 80
3, 22432, Note_on_c, 1, 60, 0
3, 22440, Note_on_c, 1, 65, 80
3, 22492, Note_on_c, 1, 65, 0
3, 22500, Note_on_c, 1, 60, 80
3, 22552, Note_on_c, 1, 60, 0
3, 22560, Note_on_c, 1, 68, 80
3, 22612, Note_on_c, 1, 68, 0
3, 22620, Note_on_c, 1, 60, 80
3, 22672, Note_on_c, 1, 60, 0
3, 22680, Note_on_c, 1, 62, 80
3, 22732, Note_on_c, 1, 62, 0
3, 22740, Note_on_c, 1, 58, 80
3, 22766, Note_on_c, 1, 58, 0
3, 22770, Note_on_c, 1, 53, 80
3, 22796, Note_on_c, 1, 53, 0
3, 22800, Note_on_c, 1, 46, 80
3, 22852, Note_on_c, 1, 46, 0
3, 22860, Note_on_c, 1, 58, 80
3, 22912, Note_on_c, 1, 58, 0
3, 22920, Note_on_c, 1, 63, 80
3, 22972, Note_on_c, 1, 63, 0
3, 22980, Note_on_c, 1, 58, 80
3, 23032, Note_on_c, 1, 58, 0
3, 23040, Note_on_c, 1, 67, 80
3, 23092, Note_on_c, 1, 67, 0
3, 23100, Note_on_c, 1, 58, 80
3, 23152, Note_on_c, 1, 58, 0
3, 23160, Note_on_c, 1, 60, 80
3, 23212, Note_on_c, 1, 60, 0
3, 23220, Note_on_c, 1, 53, 80
3, 23272, Note_on_c, 1, 53, 0
3, 23280, Note_on_c, 1, 63, 80
3, 23332, Note_on_c, 1, 63, 0
3, 23340, Note_on_c, 1, 60, 80
3, 23392, Note_on_c, 1, 60, 0
3, 23400, Note_on_c, 1, 62, 80
3, 23452, Note_on_c, 1, 62, 0
3, 23460, Note_on_c, 1, 58, 80
3, 23512, Note_on_c, 1, 58, 0
3, 23520, Note_on_c, 1, 65, 80
3, 23572, Note_on_c, 1, 65, 0
3, 23580, Note_on_c, 1, 58, 80
3, 23632, Note_on_c, 1, 58, 0
3, 23640, Note_on_c, 1, 60, 80
3, 23666, Note_on_c, 1, 60, 0
3, 23670, Note_on_c, 1, 58, 80
3, 23696, Note_on_c, 1, 58, 0
3, 23700, Note_on_c, 1, 57, 80
3, 23726, Note_on_c, 1, 57, 0
3, 23730, Note_on_c, 1, 55, 80
3, 23756, Note_on_c, 1, 55, 0
3, 23760, Note_on_c, 1, 53, 80
3, 23812, Note_on_c, 1, 53, 0
3, 23820, Note_on_c, 1, 60, 80
3, 23872, Note_on_c, 1, 60, 0
3, 23880, Note_on_c, 1, 63, 80
3, 23932, Note_on_c, 1, 63, 0
3, 23940, Note_on_c, 1, 60, 80
3, 23992, Note_on_c, 1, 60, 0
3, 24000, Note_on_c, 1, 69, 80
3, 24052, Note_on_c, 1, 69, 0
3, 24060, Note_on_c, 1, 60, 80
3, 24112, Note_on_c, 1, 60, 0
3, 24120, Note_on_c, 1, 62, 80
3, 24146, Note_on_c, 1, 62, 0
3, 24150, Note_on_c, 1, 60, 80
3, 24176, Note_on_c, 1, 60, 0
3, 24180, Note_on_c, 1, 58, 80
3, 24206, Note_on_c, 1, 58, 0
3, 24210, Note_on_c, 1, 57, 80
3, 24236, Note_on_c, 1, 57, 0
3, 24240, Note_on_c, 1, 58, 80
3, 24292, Note_on_c, 1, 58, 0
3, 24300, Note_on_c, 1, 62, 80
3, 24352, Note_on_c, 1, 62, 0
3, 24360, Note_on_c, 1, 65, 80
3, 24412, Note_on_c, 1, 65, 0
3, 24420, Note_on_c, 1, 62, 80
3, 24472, Note_on_c, 1, 62, 0
3, 24480, Note_on_c, 1, 70, 80
3, 24532, Note_on_c, 1, 70, 0
3, 24540, Note_on_c, 1, 62, 80
3, 24592, Note_on_c, 1, 62, 0
3, 24600, Note_on_c, 1, 63, 80
3, 24626, Note_on_c, 1, 63, 0
3, 24630, Note_on_c, 1, 62, 80
3, 24656, Note_on_c, 1, 62, 0
3, 24660, Note_on_c, 1, 60, 80
3, 24686, Note_on_c, 1, 60, 0
3, 24690, Note_on_c, 1, 58, 80
3, 24716, Note_on_c, 1, 58, 0
3, 24720, Note_on_c, 1, 60, 80
3, 24772, Note_on_c, 1, 60, 0
3, 24780, Note_on_c, 1, 63, 80
3, 24832, Note_on_c, 1, 63, 0
3, 24840, Note_on_c, 1, 69, 80
3, 24892, Note_on_c, 1, 69, 0
3, 24900, Note_on_c, 1, 63, 80
3, 24952, Note_on_c, 1, 63, 0
3, 24960, Note_on_c, 1, 72, 80
3, 25012, Note_on_c, 1, 72, 0
3, 25020, Note_on_c, 1, 63, 80
3, 25072, Note_on_c, 1, 63, 0
3, 25080, Note_on_c, 1, 65, 80
3, 25106, Note_on_c, 1, 65, 0
3, 25110, Note_on_c, 1, 63, 80
3, 25136, Note_on_c, 1, 63, 0
3, 25140, Note_on_c, 1, 62, 80
3, 25166, Note_on_c, 1, 62, 0
3, 25170, Note_on_c, 1, 60, 80
3, 25196, Note_on_c, 1, 60, 0
3, 25200, Note_on_c, 1, 62, 80
3, 25252, Note_on_c, 1, 62, 0
3, 25260, Note_on_c, 1, 65, 80
3, 25312, Note_on_c, 1, 65, 0
3, 25320, Note_on_c, 1, 70, 80
3, 25346, Note_on_c, 1, 70, 0
3, 25350, Note_on_c, 1, 62, 80
3, 25376, Note_on_c, 1, 62, 0
3, 25380, Note_on_c, 1, 70, 80
3, 25406, Note_on_c, 1, 70, 0
3, 25410, Note_on_c, 1, 62, 80
3, 25436, Note_on_c, 1, 62, 0
3, 25440, Note_on_c, 1, 60, 80
3, 25466, Note_on_c, 1, 60, 0
3, 25470, Note_on_c, 1, 70, 80
3, 25496, Note_on_c, 1, 70, 0
3, 25500, Note_on_c, 1, 60, 80
3, 25526, Note_on_c, 1, 60, 0
3, 25530, Note_on_c, 1, 70, 80
3, 25556, Note_on_c, 1, 70, 0
3, 25560, Note_on_c, 1, 69, 80
3, 25586, Note_on_c, 1, 69, 0
3, 25590, Note_on_c, 1, 60, 80
3, 25616, Note_on_c, 1, 60, 0
3, 25620, Note_on_c, 1, 69, 80
3, 25646, Note_on_c, 1, 69, 0
3, 25650, Note_on_c, 1, 60, 80
3, 25676, Note_on_c, 1, 60, 0
3, 25680, Note_on_c, 1, 58, 80
3, 25706, Note_on_c, 1, 58, 0
3, 25710, Note_on_c, 1, 68, 80
3, 25736, Note_on_c, 1, 68, 0
3, 25740, Note_on_c, 1, 58, 80
3, 25766, Note_on_c, 1, 58, 0
3, 25770, Note_on_c, 1, 68, 80
3, 25796, Note_on_c, 1, 68, 0
3, 25800, Note_on_c, 1, 67, 80
3, 25826, Note_on_c, 1, 67, 0
3, 25830, Note_on_c, 1, 58, 80
3, 25856, Note_on_c, 1, 58, 0
3, 25860, Note_on_c, 1, 67, 80
3, 25886, Note_on_c, 1, 67, 0
3, 25890, Note_on_c, 1, 58, 80
3, 25916, Note_on_c, 1, 58, 0
3, 25920, Note_on_c, 1, 57, 80
3, 25946, Note_on_c, 1, 57, 0
3, 25950, Note_on_c, 1, 67, 80
3, 25976, Note_on_c, 1, 67, 0
3, 25980, Note_on_c, 1, 57, 80
3, 26006, Note_on_c, 1, 57, 0
3, 26010, Note_on_c, 1, 67, 80
3, 26036, Note_on_c, 1, 67, 0
3, 26040, Note_on_c, 1, 65, 80
3, 26066, Note_on_c, 1, 65, 0
3, 26070, Note_on_c, 1, 57, 80
3, 26096, Note_on_c, 1, 57, 0
3, 26100, Note_on_c, 1, 65, 80
3, 26126, Note_on_c, 1, 65, 0
3, 26130, Note_on_c, 1, 57, 80
3, 26156, Note_on_c, 1, 57, 0
3, 26160, Note_on_c, 1, 55, 80
3, 26186, Note_on_c, 1, 55, 0
3, 26190, Note_on_c, 1, 58, 80
3, 26216, Note_on_c, 1, 58, 0
3, 26220, Note_on_c, 1, 60, 80
3, 26246, Note_on_c, 1, 60, 0
3, 26250, Note_on_c, 1, 62, 80
3, 26276, Note_on_c, 1, 62, 0
3, 26280, Note_on_c, 1, 63, 80
3, 26306, Note_on_c, 1, 63, 0
3, 26310, Note_on_c, 1, 55, 80
3, 26336, Note_on_c, 1, 55, 0
3, 26340, Note_on_c, 1, 63, 80
3, 26366, Note_on_c, 1, 63, 0
3, 26370, Note_on_c, 1, 55, 80
3, 26396, Note_on_c, 1, 55, 0
3, 26400, Note_on_c, 1, 53, 80
3, 26426, Note_on_c, 1, 53, 0
3, 26430, Note_on_c, 1, 63, 80
3, 26456, Note_on_c, 1, 63, 0
3, 26460, Note_on_c, 1, 53, 80
3, 26486, Note_on_c, 1, 53, 0
3, 26490, Note_on_c, 1, 63, 80
3, 26516, Note_on_c, 1, 63, 0
3, 26520, Note_on_c, 1, 62, 80
3, 26546, Note_on_c, 1, 62, 0
3, 26550, Note_on_c, 1, 53, 80
3, 26576, Note_on_c, 1, 53, 0
3, 26580, Note_on_c, 1, 62, 80
3, 26606, Note_on_c, 1, 62, 0
3, 26610, Note_on_c, 1, 53, 80
3, 26636, Note_on_c, 1, 53, 0
3, 26640, Note_on_c, 1, 51, 80
3, 26666, Note_on_c, 1, 51, 0
3, 26670, Note_on_c, 1, 62, 80
3, 26696, Note_on_c, 1, 62, 0
3, 26700, Note_on_c, 1, 51, 80
3, 26726, Note_on_c, 1, 51, 0
3, 26730, Note_on_c, 1, 62, 80
3, 26756, Note_on_c, 1, 62, 0
3, 26760, Note_on_c, 1, 51, 80
3, 26786, Note_on_c, 1, 51, 0
3, 26790, Note_on_c, 1, 60, 80
3, 26816, Note_on_c, 1, 60, 0
3, 26820, Note_on_c, 1, 51, 80
3, 26846, Note_on_c, 1, 51, 0
3, 26850, Note_on_c, 1, 60, 80
3, 26876, Note_on_c, 1, 60, 0
3, 26880, Note_on_c, 1, 51, 80
3, 26906, Note_on_c, 1, 51, 0
3, 26910, Note_on_c, 1, 58, 80
3, 26936, Note_on_c, 1, 58, 0
3, 26940, Note_on_c, 1, 51, 80
3, 26966, Note_on_c, 1, 51, 0
3, 26970, Note_on_c, 1, 58, 80
3, 26996, Note_on_c, 1, 58, 0
3, 27000, Note_on_c, 1, 51, 80
3, 27026, Note_on_c, 1, 51, 0
3, 27030, Note_on_c, 1, 57, 80
3, 27056, Note_on_c, 1, 57, 0
3, 27060, Note_on_c, 1, 50, 80
3, 27086, Note_on_c, 1, 50, 0
3, 27090, Note_on_c, 1, 57, 80
3, 27116, Note_on_c, 1, 57, 0
3, 27120, Note_on_c, 1, 51, 80
3, 27146, Note_on_c, 1, 51, 0
3, 27150, Note_on_c, 1, 57, 80
3, 27176, Note_on_c, 1, 57, 0
3, 27180, Note_on_c, 1, 55, 80
3, 27206, Note_on_c, 1, 55, 0
3, 27210, Note_on_c, 1, 57, 80
3, 27236, Note_on_c, 1, 57, 0
3, 27240, Note_on_c, 1, 53, 80
3, 27266, Note_on_c, 1, 53, 0
3, 27270, Note_on_c, 1, 57, 80
3, 27296, Note_on_c, 1, 57, 0
3, 27300, Note_on_c, 1, 51, 80
3, 27326, Note_on_c, 1, 51, 0
3, 27330, Note_on_c, 1, 57, 80
3, 27356, Note_on_c, 1, 57, 0
3, 27360, Note_on_c, 1, 50, 80
3, 27386, Note_on_c, 1, 50, 0
3, 27390, Note_on_c, 1, 57, 80
3, 27416, Note_on_c, 1, 57, 0
3, 27420, Note_on_c, 1, 51, 80
3, 27446, Note_on_c, 1, 51, 0
3, 27450, Note_on_c, 1, 57, 80
3, 27476, Note_on_c, 1, 57, 0
3, 27480, Note_on_c, 1, 50, 80
3, 27506, Note_on_c, 1, 50, 0
3, 27510, Note_on_c, 1, 53, 80
3, 27536, Note_on_c, 1, 53, 0
3, 27540, Note_on_c, 1, 55, 80
3, 27566, Note_on_c, 1, 55, 0
3, 27570, Note_on_c, 1, 57, 80
3, 27596, Note_on_c, 1, 57, 0
3, 27600, Note_on_c, 1, 58, 80
3, 27626, Note_on_c, 1, 58, 0
3, 27630, Note_on_c, 1, 60, 80
3, 27656, Note_on_c, 1, 60, 0
3, 27660, Note_on_c, 1, 62, 80
3, 27686, Note_on_c, 1, 62, 0
3, 27690, Note_on_c, 1, 63, 80
3, 27716, Note_on_c, 1, 63, 0
3, 27720, Note_on_c, 1, 65, 80
3, 27772, Note_on_c, 1, 65, 0
3, 27780, Note_on_c, 1, 62, 80
3, 27806, Note_on_c, 1, 62, 0
3, 27810, Note_on_c, 1, 58, 80
3, 27836, Note_on_c, 1, 58, 0
3, 27840, Note_on_c, 1, 53, 80
3, 27892, Note_on_c, 1, 53, 0
3, 27900, Note_on_c, 1, 57, 80
3, 27952, Note_on_c, 1, 57, 0
3, 27960, Note_on_c, 1, 46, 80
3, 28185, Note_on_c, 1, 46, 0
3, 28185, End_track
4, 0, Start_track
4, 0, MIDI_port, 0
4, 0, Title_t, "Hammond Organ"
4, 0, Program_c, 2, 16
4, 0, Control_c, 2, 7, 100
4, 0, Control_c, 2, 10, 64
4, 120, Control_c, 2, 7, 70
4, 120, Note_on_c, 2, 46, 122
4, 122, Control_c, 2, 7, 71
4, 124, Control_c, 2, 7, 72
4, 126, Control_c, 2, 7, 73
4, 128, Control_c, 2, 7, 74
4, 130, Control_c, 2, 7, 75
4, 132, Control_c, 2, 7, 76
4, 134, Control_c, 2, 7, 77
4, 136, Control_c, 2, 7, 78
4, 138, Control_c, 2, 7, 79
4, 140, Control_c, 2, 7, 80
4, 142, Control_c, 2, 7, 81
4, 144, Control_c, 2, 7, 82
4, 146, Control_c, 2, 7, 83
4, 148, Control_c, 2, 7, 84
4, 150, Control_c, 2, 7, 85
4, 152, Control_c, 2, 7, 86
4, 154, Control_c, 2, 7, 87
4, 156, Control_c, 2, 7, 88
4, 158, Control_c, 2, 7, 89
4, 160, Control_c, 2, 7, 90
4, 162, Control_c, 2, 7, 91
4, 164, Control_c, 2, 7, 92
4, 166, Control_c, 2, 7, 93
4, 168, Control_c, 2, 7, 94
4, 170, Control_c, 2, 7, 95
4, 172, Control_c, 2, 7, 96
4, 174, Control_c, 2, 7, 97
4, 176, Control_c, 2, 7, 98
4, 178, Control_c, 2, 7, 99
4, 180, Control_c, 2, 7, 100
4, 360, Note_on_c, 2, 46, 0
4, 480, Note_on_c, 2, 58, 80
4, 585, Note_on_c, 2, 58, 0
4, 600, Note_on_c, 2, 58, 80
4, 705, Note_on_c, 2, 58, 0
4, 720, Note_on_c, 2, 62, 80
4, 825, Note_on_c, 2, 62, 0
4, 840, Note_on_c, 2, 58, 80
4, 1185, Note_on_c, 2, 58, 0
4, 1200, Note_on_c, 2, 56, 80
4, 1252, Note_on_c, 2, 56, 0
4, 1260, Note_on_c, 2, 55, 80
4, 1312, Note_on_c, 2, 55, 0
4, 1320, Note_on_c, 2, 56, 80
4, 1665, Note_on_c, 2, 56, 0
4, 1680, Note_on_c, 2, 55, 80
4, 1732, Note_on_c, 2, 55, 0
4, 1740, Note_on_c, 2, 53, 80
4, 1792, Note_on_c, 2, 53, 0
4, 1800, Note_on_c, 2, 55, 80
4, 1905, Note_on_c, 2, 55, 0
4, 2040, Note_on_c, 2, 57, 80
4, 2145, Note_on_c, 2, 57, 0
4, 2280, Note_on_c, 2, 58, 80
4, 2385, Note_on_c, 2, 58, 0
4, 2400, Note_on_c, 2, 46, 80
4, 2505, Note_on_c, 2, 46, 0
4, 2520, Note_on_c, 2, 53, 80
4, 2625, Note_on_c, 2, 53, 0
4, 2640, Note_on_c, 2, 57, 80
4, 2745, Note_on_c, 2, 57, 0
4, 2760, Note_on_c, 2, 53, 80
4, 3105, Note_on_c, 2, 53, 0
4, 3120, Note_on_c, 2, 62, 80
4, 3225, Note_on_c, 2, 62, 0
4, 3240, Note_on_c, 2, 53, 80
4, 3585, Note_on_c, 2, 53, 0
4, 3600, Note_on_c, 2, 60, 80
4, 3705, Note_on_c, 2, 60, 0
4, 3720, Note_on_c, 2, 53, 80
4, 4065, Note_on_c, 2, 53, 0
4, 4080, Note_on_c, 2, 58, 80
4, 4185, Note_on_c, 2, 58, 0
4, 4200, Note_on_c, 2, 55, 80
4, 4305, Note_on_c, 2, 55, 0
4, 4320, Note_on_c, 2, 51, 80
4, 4372, Note_on_c, 2, 51, 0
4, 4380, Note_on_c, 2, 48, 80
4, 4432, Note_on_c, 2, 48, 0
4, 4440, Note_on_c, 2, 53, 80
4, 4545, Note_on_c, 2, 53, 0
4, 4560, Note_on_c, 2, 50, 80
4, 4612, Note_on_c, 2, 50, 0
4, 4620, Note_on_c, 2, 46, 80
4, 4672, Note_on_c, 2, 46, 0
4, 4680, Note_on_c, 2, 51, 80
4, 4785, Note_on_c, 2, 51, 0
4, 4800, Note_on_c, 2, 48, 80
4, 4852, Note_on_c, 2, 48, 0
4, 4860, Note_on_c, 2, 45, 80
4, 4912, Note_on_c, 2, 45, 0
4, 4920, Note_on_c, 2, 50, 80
4, 5025, Note_on_c, 2, 50, 0
4, 5040, Note_on_c, 2, 46, 80
4, 5092, Note_on_c, 2, 46, 0
4, 5100, Note_on_c, 2, 43, 80
4, 5152, Note_on_c, 2, 43, 0
4, 5160, Note_on_c, 2, 48, 80
4, 5265, Note_on_c, 2, 48, 0
4, 5280, Note_on_c, 2, 45, 80
4, 5332, Note_on_c, 2, 45, 0
4, 5340, Note_on_c, 2, 41, 80
4, 5392, Note_on_c, 2, 41, 0
4, 5400, Note_on_c, 2, 46, 80
4, 5505, Note_on_c, 2, 46, 0
4, 5520, Note_on_c, 2, 43, 80
4, 5625, Note_on_c, 2, 43, 0
4, 5640, Note_on_c, 2, 45, 80
4, 5745, Note_on_c, 2, 45, 0
4, 5760, Note_on_c, 2, 48, 80
4, 5865, Note_on_c, 2, 48, 0
4, 5880, Note_on_c, 2, 41, 80
4, 6105, Note_on_c, 2, 41, 0
4, 6240, Note_on_c, 2, 53, 80
4, 6345, Note_on_c, 2, 53, 0
4, 6360, Note_on_c, 2, 58, 80
4, 6465, Note_on_c, 2, 58, 0
4, 6480, Note_on_c, 2, 55, 80
4, 6532, Note_on_c, 2, 55, 0
4, 6540, Note_on_c, 2, 51, 80
4, 6592, Note_on_c, 2, 51, 0
4, 6600, Note_on_c, 2, 50, 80
4, 6705, Note_on_c, 2, 50, 0
4, 6720, Note_on_c, 2, 53, 80
4, 6825, Note_on_c, 2, 53, 0
4, 6840, Note_on_c, 2, 46, 80
4, 6945, Note_on_c, 2, 46, 0
4, 7200, Note_on_c, 2, 58, 80
4, 7305, Note_on_c, 2, 58, 0
4, 7320, Note_on_c, 2, 58, 80
4, 7425, Note_on_c, 2, 58, 0
4, 7440, Note_on_c, 2, 62, 80
4, 7545, Note_on_c, 2, 62, 0
4, 7560, Note_on_c, 2, 58, 80
4, 7665, Note_on_c, 2, 58, 0
4, 7680, Note_on_c, 2, 56, 80
4, 7732, Note_on_c, 2, 56, 0
4, 7740, Note_on_c, 2, 55, 80
4, 7792, Note_on_c, 2, 55, 0
4, 7800, Note_on_c, 2, 56, 80
4, 7905, Note_on_c, 2, 56, 0
4, 7920, Note_on_c, 2, 55, 80
4, 7972, Note_on_c, 2, 55, 0
4, 7980, Note_on_c, 2, 53, 80
4, 8032, Note_on_c, 2, 53, 0
4, 8040, Note_on_c, 2, 55, 80
4, 8145, Note_on_c, 2, 55, 0
4, 8160, Note_on_c, 2, 51, 80
4, 8265, Note_on_c, 2, 51, 0
4, 8280, Note_on_c, 2, 56, 80
4, 8385, Note_on_c, 2, 56, 0
4, 8400, Note_on_c, 2, 53, 80
4, 8505, Note_on_c, 2, 53, 0
4, 8520, Note_on_c, 2, 58, 80
4, 8625, Note_on_c, 2, 58, 0
4, 8640, Note_on_c, 2, 46, 80
4, 8745, Note_on_c, 2, 46, 0
4, 8760, Note_on_c, 2, 51, 80
4, 8865, Note_on_c, 2, 51, 0
4, 9000, Note_on_c, 2, 55, 80
4, 9105, Note_on_c, 2, 55, 0
4, 9240, Note_on_c, 2, 57, 80
4, 9345, Note_on_c, 2, 57, 0
4, 9480, Note_on_c, 2, 58, 80
4, 9585, Note_on_c, 2, 58, 0
4, 9600, Note_on_c, 2, 46, 80
4, 9705, Note_on_c, 2, 46, 0
4, 9720, Note_on_c, 2, 53, 80
4, 9825, Note_on_c, 2, 53, 0
4, 9840, Note_on_c, 2, 57, 80
4, 9945, Note_on_c, 2, 57, 0
4, 9960, Note_on_c, 2, 53, 80
4, 10305, Note_on_c, 2, 53, 0
4, 10320, Note_on_c, 2, 62, 80
4, 10425, Note_on_c, 2, 62, 0
4, 10440, Note_on_c, 2, 53, 80
4, 10785, Note_on_c, 2, 53, 0
4, 10800, Note_on_c, 2, 54, 80
4, 10905, Note_on_c, 2, 54, 0
4, 10920, Note_on_c, 2, 55, 80
4, 11025, Note_on_c, 2, 55, 0
4, 11040, Note_on_c, 2, 53, 80
4, 11145, Note_on_c, 2, 53, 0
4, 11160, Note_on_c, 2, 51, 80
4, 11265, Note_on_c, 2, 51, 0
4, 11280, Note_on_c, 2, 50, 80
4, 11332, Note_on_c, 2, 50, 0
4, 11340, Note_on_c, 2, 48, 80
4, 11392, Note_on_c, 2, 48, 0
4, 11400, Note_on_c, 2, 46, 80
4, 11505, Note_on_c, 2, 46, 0
4, 11520, Note_on_c, 2, 50, 80
4, 11625, Note_on_c, 2, 50, 0
4, 11640, Note_on_c, 2, 51, 80
4, 11745, Note_on_c, 2, 51, 0
4, 11760, Note_on_c, 2, 55, 80
4, 11865, Note_on_c, 2, 55, 0
4, 11880, Note_on_c, 2, 53, 80
4, 11985, Note_on_c, 2, 53, 0
4, 12000, Note_on_c, 2, 41, 80
4, 12105, Note_on_c, 2, 41, 0
4, 12120, Note_on_c, 2, 46, 80
4, 12225, Note_on_c, 2, 46, 0
4, 12240, Note_on_c, 2, 50, 80
4, 12345, Note_on_c, 2, 50, 0
4, 12360, Note_on_c, 2, 51, 80
4, 12465, Note_on_c, 2, 51, 0
4, 12480, Note_on_c, 2, 55, 80
4, 12585, Note_on_c, 2, 55, 0
4, 12600, Note_on_c, 2, 48, 80
4, 12705, Note_on_c, 2, 48, 0
4, 12720, Note_on_c, 2, 51, 80
4, 12825, Note_on_c, 2, 51, 0
4, 12840, Note_on_c, 2, 53, 80
4, 12945, Note_on_c, 2, 53, 0
4, 12960, Note_on_c, 2, 55, 80
4, 13065, Note_on_c, 2, 55, 0
4, 13080, Note_on_c, 2, 57, 80
4, 13185, Note_on_c, 2, 57, 0
4, 13200, Note_on_c, 2, 58, 80
4, 13305, Note_on_c, 2, 58, 0
4, 13320, Note_on_c, 2, 57, 80
4, 13425, Note_on_c, 2, 57, 0
4, 13440, Note_on_c, 2, 55, 80
4, 13545, Note_on_c, 2, 55, 0
4, 13560, Note_on_c, 2, 53, 80
4, 13785, Note_on_c, 2, 53, 0
4, 13920, Note_on_c, 2, 53, 80
4, 14025, Note_on_c, 2, 53, 0
4, 14040, Note_on_c, 2, 58, 80
4, 14145, Note_on_c, 2, 58, 0
4, 14160, Note_on_c, 2, 55, 80
4, 14212, Note_on_c, 2, 55, 0
4, 14220, Note_on_c, 2, 51, 80
4, 14272, Note_on_c, 2, 51, 0
4, 14280, Note_on_c, 2, 50, 80
4, 14385, Note_on_c, 2, 50, 0
4, 14400, Note_on_c, 2, 53, 80
4, 14505, Note_on_c, 2, 53, 0
4, 14520, Note_on_c, 2, 46, 80
4, 14745, Note_on_c, 2, 46, 0
4, 14880, Note_on_c, 2, 58, 80
4, 14985, Note_on_c, 2, 58, 0
4, 15000, Note_on_c, 2, 57, 80
4, 15105, Note_on_c, 2, 57, 0
4, 15120, Note_on_c, 2, 60, 80
4, 15172, Note_on_c, 2, 60, 0
4, 15180, Note_on_c, 2, 57, 80
4, 15232, Note_on_c, 2, 57, 0
4, 15240, Note_on_c, 2, 54, 80
4, 15345, Note_on_c, 2, 54, 0
4, 15360, Note_on_c, 2, 50, 80
4, 15465, Note_on_c, 2, 50, 0
4, 15480, Note_on_c, 2, 55, 80
4, 15585, Note_on_c, 2, 55, 0
4, 15720, Note_on_c, 2, 48, 80
4, 15825, Note_on_c, 2, 48, 0
4, 15960, Note_on_c, 2, 53, 80
4, 16065, Note_on_c, 2, 53, 0
4, 16200, Note_on_c, 2, 55, 80
4, 16305, Note_on_c, 2, 55, 0
4, 16440, Note_on_c, 2, 48, 80
4, 16545, Note_on_c, 2, 48, 0
4, 16560, Note_on_c, 2, 52, 80
4, 16665, Note_on_c, 2, 52, 0
4, 16680, Note_on_c, 2, 53, 80
4, 16785, Note_on_c, 2, 53, 0
4, 16800, Note_on_c, 2, 55, 80
4, 16852, Note_on_c, 2, 55, 0
4, 16860, Note_on_c, 2, 57, 80
4, 16912, Note_on_c, 2, 57, 0
4, 16920, Note_on_c, 2, 58, 80
4, 17025, Note_on_c, 2, 58, 0
4, 17040, Note_on_c, 2, 60, 80
4, 17145, Note_on_c, 2, 60, 0
4, 17160, Note_on_c, 2, 62, 80
4, 17265, Note_on_c, 2, 62, 0
4, 17280, Note_on_c, 2, 58, 80
4, 17385, Note_on_c, 2, 58, 0
4, 17400, Note_on_c, 2, 60, 80
4, 17625, Note_on_c, 2, 60, 0
4, 17760, Note_on_c, 2, 48, 80
4, 17865, Note_on_c, 2, 48, 0
4, 17880, Note_on_c, 2, 53, 80
4, 17985, Note_on_c, 2, 53, 0
4, 18000, Note_on_c, 2, 45, 80
4, 18052, Note_on_c, 2, 45, 0
4, 18060, Note_on_c, 2, 43, 80
4, 18112, Note_on_c, 2, 43, 0
4, 18120, Note_on_c, 2, 42, 80
4, 18225, Note_on_c, 2, 42, 0
4, 18240, Note_on_c, 2, 50, 80
4, 18345, Note_on_c, 2, 50, 0
4, 18360, Note_on_c, 2, 52, 80
4, 18465, Note_on_c, 2, 52, 0
4, 18480, Note_on_c, 2, 54, 80
4, 18585, Note_on_c, 2, 54, 0
4, 18600, Note_on_c, 2, 55, 80
4, 18652, Note_on_c, 2, 55, 0
4, 18660, Note_on_c, 2, 54, 80
4, 18712, Note_on_c, 2, 54, 0
4, 18720, Note_on_c, 2, 55, 80
4, 18772, Note_on_c, 2, 55, 0
4, 18780, Note_on_c, 2, 57, 80
4, 18832, Note_on_c, 2, 57, 0
4, 18840, Note_on_c, 2, 58, 80
4, 19132, Note_on_c, 2, 58, 0
4, 19140, Note_on_c, 2, 56, 80
4, 19192, Note_on_c, 2, 56, 0
4, 19200, Note_on_c, 2, 55, 80
4, 19252, Note_on_c, 2, 55, 0
4, 19260, Note_on_c, 2, 53, 80
4, 19312, Note_on_c, 2, 53, 0
4, 19320, Note_on_c, 2, 51, 80
4, 19372, Note_on_c, 2, 51, 0
4, 19380, Note_on_c, 2, 53, 80
4, 19432, Note_on_c, 2, 53, 0
4, 19440, Note_on_c, 2, 55, 80
4, 19492, Note_on_c, 2, 55, 0
4, 19500, Note_on_c, 2, 53, 80
4, 19552, Note_on_c, 2, 53, 0
4, 19560, Note_on_c, 2, 51, 80
4, 19612, Note_on_c, 2, 51, 0
4, 19620, Note_on_c, 2, 48, 80
4, 19672, Note_on_c, 2, 48, 0
4, 19680, Note_on_c, 2, 53, 80
4, 19732, Note_on_c, 2, 53, 0
4, 19740, Note_on_c, 2, 51, 80
4, 19792, Note_on_c, 2, 51, 0
4, 19800, Note_on_c, 2, 50, 80
4, 19905, Note_on_c, 2, 50, 0
4, 19920, Note_on_c, 2, 46, 80
4, 20025, Note_on_c, 2, 46, 0
4, 20040, Note_on_c, 2, 51, 80
4, 20145, Note_on_c, 2, 51, 0
4, 20160, Note_on_c, 2, 55, 80
4, 20265, Note_on_c, 2, 55, 0
4, 20280, Note_on_c, 2, 53, 80
4, 20385, Note_on_c, 2, 53, 0
4, 20400, Note_on_c, 2, 51, 80
4, 20505, Note_on_c, 2, 51, 0
4, 20520, Note_on_c, 2, 56, 80
4, 20625, Note_on_c, 2, 56, 0
4, 20640, Note_on_c, 2, 55, 80
4, 20745, Note_on_c, 2, 55, 0
4, 20760, Note_on_c, 2, 53, 80
4, 20985, Note_on_c, 2, 53, 0
4, 21120, Note_on_c, 2, 46, 80
4, 21225, Note_on_c, 2, 46, 0
4, 21240, Note_on_c, 2, 51, 80
4, 21405, Note_on_c, 2, 51, 0
4, 21420, Note_on_c, 2, 53, 80
4, 21472, Note_on_c, 2, 53, 0
4, 21480, Note_on_c, 2, 55, 80
4, 21532, Note_on_c, 2, 55, 0
4, 21540, Note_on_c, 2, 53, 80
4, 21592, Note_on_c, 2, 53, 0
4, 21600, Note_on_c, 2, 55, 80
4, 21652, Note_on_c, 2, 55, 0
4, 21660, Note_on_c, 2, 57, 80
4, 21712, Note_on_c, 2, 57, 0
4, 21720, Note_on_c, 2, 58, 80
4, 21825, Note_on_c, 2, 58, 0
4, 21840, Note_on_c, 2, 62, 80
4, 21945, Note_on_c, 2, 62, 0
4, 21960, Note_on_c, 2, 58, 80
4, 22305, Note_on_c, 2, 58, 0
4, 22320, Note_on_c, 2, 56, 80
4, 22372, Note_on_c, 2, 56, 0
4, 22380, Note_on_c, 2, 55, 80
4, 22432, Note_on_c, 2, 55, 0
4, 22440, Note_on_c, 2, 56, 80
4, 22785, Note_on_c, 2, 56, 0
4, 22800, Note_on_c, 2, 55, 80
4, 22852, Note_on_c, 2, 55, 0
4, 22860, Note_on_c, 2, 53, 80
4, 22912, Note_on_c, 2, 53, 0
4, 22920, Note_on_c, 2, 55, 80
4, 23025, Note_on_c, 2, 55, 0
4, 23160, Note_on_c, 2, 57, 80
4, 23265, Note_on_c, 2, 57, 0
4, 23400, Note_on_c, 2, 58, 80
4, 23505, Note_on_c, 2, 58, 0
4, 23520, Note_on_c, 2, 46, 80
4, 23625, Note_on_c, 2, 46, 0
4, 23640, Note_on_c, 2, 53, 80
4, 23745, Note_on_c, 2, 53, 0
4, 23760, Note_on_c, 2, 57, 80
4, 23865, Note_on_c, 2, 57, 0
4, 23880, Note_on_c, 2, 53, 80
4, 24225, Note_on_c, 2, 53, 0
4, 24240, Note_on_c, 2, 62, 80
4, 24345, Note_on_c, 2, 62, 0
4, 24360, Note_on_c, 2, 53, 80
4, 24705, Note_on_c, 2, 53, 0
4, 24720, Note_on_c, 2, 60, 80
4, 24825, Note_on_c, 2, 60, 0
4, 24840, Note_on_c, 2, 53, 80
4, 25185, Note_on_c, 2, 53, 0
4, 25200, Note_on_c, 2, 58, 80
4, 25305, Note_on_c, 2, 58, 0
4, 25320, Note_on_c, 2, 55, 80
4, 25425, Note_on_c, 2, 55, 0
4, 25440, Note_on_c, 2, 51, 80
4, 25492, Note_on_c, 2, 51, 0
4, 25500, Note_on_c, 2, 48, 80
4, 25552, Note_on_c, 2, 48, 0
4, 25560, Note_on_c, 2, 53, 80
4, 25665, Note_on_c, 2, 53, 0
4, 25680, Note_on_c, 2, 50, 80
4, 25732, Note_on_c, 2, 50, 0
4, 25740, Note_on_c, 2, 46, 80
4, 25792, Note_on_c, 2, 46, 0
4, 25800, Note_on_c, 2, 51, 80
4, 25905, Note_on_c, 2, 51, 0
4, 25920, Note_on_c, 2, 48, 80
4, 25972, Note_on_c, 2, 48, 0
4, 25980, Note_on_c, 2, 45, 80
4, 26032, Note_on_c, 2, 45, 0
4, 26040, Note_on_c, 2, 50, 80
4, 26145, Note_on_c, 2, 50, 0
4, 26160, Note_on_c, 2, 46, 80
4, 26212, Note_on_c, 2, 46, 0
4, 26220, Note_on_c, 2, 43, 80
4, 26272, Note_on_c, 2, 43, 0
4, 26280, Note_on_c, 2, 48, 80
4, 26385, Note_on_c, 2, 48, 0
4, 26400, Note_on_c, 2, 45, 80
4, 26452, Note_on_c, 2, 45, 0
4, 26460, Note_on_c, 2, 41, 80
4, 26512, Note_on_c, 2, 41, 0
4, 26520, Note_on_c, 2, 46, 80
4, 26625, Note_on_c, 2, 46, 0
4, 26640, Note_on_c, 2, 43, 80
4, 26745, Note_on_c, 2, 43, 0
4, 26760, Note_on_c, 2, 45, 80
4, 26865, Note_on_c, 2, 45, 0
4, 26880, Note_on_c, 2, 48, 80
4, 26985, Note_on_c, 2, 48, 0
4, 27000, Note_on_c, 2, 41, 80
4, 27225, Note_on_c, 2, 41, 0
4, 27360, Note_on_c, 2, 53, 80
4, 27465, Note_on_c, 2, 53, 0
4, 27480, Note_on_c, 2, 58, 80
4, 27585, Note_on_c, 2, 58, 0
4, 27600, Note_on_c, 2, 55, 80
4, 27652, Note_on_c, 2, 55, 0
4, 27660, Note_on_c, 2, 51, 80
4, 27712, Note_on_c, 2, 51, 0
4, 27720, Note_on_c, 2, 50, 80
4, 27825, Note_on_c, 2, 50, 0
4, 27840, Note_on_c, 2, 53, 80
4, 27945, Note_on_c, 2, 53, 0
4, 27960, Note_on_c, 2, 46, 80
4, 28185, Note_on_c, 2, 46, 0
4, 28185, End_track
5, 0, Start_track
5, 0, MIDI_port, 0
5, 0, Title_t, "Music Box"
5, 0, Program_c, 3, 10
5, 0, Control_c, 3, 7, 96
5, 0, Control_c, 3, 10, 64
5, 58, Control_c, 3, 7, 110
5, 4200, Note_on_c, 3, 70, 80
5, 4200, Note_on_c, 3, 82, 80
5, 4226, Note_on_c, 3, 82, 0
5, 4226, Note_on_c, 3, 70, 0
5, 4260, Note_on_c, 3, 70, 80
5, 4260, Note_on_c, 3, 82, 80
5, 4286, Note_on_c, 3, 82, 0
5, 4286, Note_on_c, 3, 70, 0
5, 4350, Note_on_c, 3, 70, 80
5, 4350, Note_on_c, 3, 82, 80
5, 4376, Note_on_c, 3, 82, 0
5, 4376, Note_on_c, 3, 70, 0
5, 4410, Note_on_c, 3, 70, 80
5, 4410, Note_on_c, 3, 82, 80
5, 4436, Note_on_c, 3, 82, 0
5, 4436, Note_on_c, 3, 70, 0
5, 4440, Note_on_c, 3, 69, 80
5, 4440, Note_on_c, 3, 81, 80
5, 4466, Note_on_c, 3, 81, 0
5, 4466, Note_on_c, 3, 69, 0
5, 4500, Note_on_c, 3, 69, 80
5, 4500, Note_on_c, 3, 81, 80
5, 4526, Note_on_c, 3, 81, 0
5, 4526, Note_on_c, 3, 69, 0
5, 4590, Note_on_c, 3, 68, 80
5, 4590, Note_on_c, 3, 80, 80
5, 4616, Note_on_c, 3, 80, 0
5, 4616, Note_on_c, 3, 68, 0
5, 4650, Note_on_c, 3, 68, 80
5, 4650, Note_on_c, 3, 80, 80
5, 4676, Note_on_c, 3, 80, 0
5, 4676, Note_on_c, 3, 68, 0
5, 4680, Note_on_c, 3, 67, 80
5, 4680, Note_on_c, 3, 79, 80
5, 4706, Note_on_c, 3, 79, 0
5, 4706, Note_on_c, 3, 67, 0
5, 4740, Note_on_c, 3, 67, 80
5, 4740, Note_on_c, 3, 79, 80
5, 4766, Note_on_c, 3, 79, 0
5, 4766, Note_on_c, 3, 67, 0
5, 4830, Note_on_c, 3, 67, 80
5, 4830, Note_on_c, 3, 79, 80
5, 4856, Note_on_c, 3, 79, 0
5, 4856, Note_on_c, 3, 67, 0
5, 4890, Note_on_c, 3, 67, 80
5, 4890, Note_on_c, 3, 79, 80
5, 4916, Note_on_c, 3, 79, 0
5, 4916, Note_on_c, 3, 67, 0
5, 4920, Note_on_c, 3, 65, 80
5, 4920, Note_on_c, 3, 77, 80
5, 4946, Note_on_c, 3, 77, 0
5, 4946, Note_on_c, 3, 65, 0
5, 4980, Note_on_c, 3, 65, 80
5, 4980, Note_on_c, 3, 77, 80
5, 5006, Note_on_c, 3, 77, 0
5, 5006, Note_on_c, 3, 65, 0
5, 5160, Note_on_c, 3, 63, 80
5, 5160, Note_on_c, 3, 75, 80
5, 5186, Note_on_c, 3, 75, 0
5, 5186, Note_on_c, 3, 63, 0
5, 5220, Note_on_c, 3, 63, 80
5, 5220, Note_on_c, 3, 75, 80
5, 5246, Note_on_c, 3, 75, 0
5, 5246, Note_on_c, 3, 63, 0
5, 5310, Note_on_c, 3, 63, 80
5, 5310, Note_on_c, 3, 75, 80
5, 5336, Note_on_c, 3, 75, 0
5, 5336, Note_on_c, 3, 63, 0
5, 5370, Note_on_c, 3, 63, 80
5, 5370, Note_on_c, 3, 75, 80
5, 5396, Note_on_c, 3, 75, 0
5, 5396, Note_on_c, 3, 63, 0
5, 5400, Note_on_c, 3, 62, 80
5, 5400, Note_on_c, 3, 74, 80
5, 5426, Note_on_c, 3, 74, 0
5, 5426, Note_on_c, 3, 62, 0
5, 5460, Note_on_c, 3, 62, 80
5, 5460, Note_on_c, 3, 74, 80
5, 5486, Note_on_c, 3, 74, 0
5, 5486, Note_on_c, 3, 62, 0
5, 5880, Note_on_c, 3, 75, 80
5, 5906, Note_on_c, 3, 75, 0
5, 5940, Note_on_c, 3, 74, 80
5, 5966, Note_on_c, 3, 74, 0
5, 6000, Note_on_c, 3, 75, 80
5, 6026, Note_on_c, 3, 75, 0
5, 6060, Note_on_c, 3, 79, 80
5, 6086, Note_on_c, 3, 79, 0
5, 6120, Note_on_c, 3, 77, 80
5, 6146, Note_on_c, 3, 77, 0
5, 6180, Note_on_c, 3, 75, 80
5, 6206, Note_on_c, 3, 75, 0
5, 6240, Note_on_c, 3, 74, 80
5, 6266, Note_on_c, 3, 74, 0
5, 6300, Note_on_c, 3, 75, 80
5, 6326, Note_on_c, 3, 75, 0
5, 6360, Note_on_c, 3, 74, 80
5, 6386, Note_on_c, 3, 74, 0
5, 10920, Note_on_c, 3, 82, 80
5, 10946, Note_on_c, 3, 82, 0
5, 10980, Note_on_c, 3, 82, 80
5, 11006, Note_on_c, 3, 82, 0
5, 11040, Note_on_c, 3, 80, 80
5, 11066, Note_on_c, 3, 80, 0
5, 11100, Note_on_c, 3, 80, 80
5, 11126, Note_on_c, 3, 80, 0
5, 11160, Note_on_c, 3, 79, 80
5, 11186, Note_on_c, 3, 79, 0
5, 11220, Note_on_c, 3, 79, 80
5, 11246, Note_on_c, 3, 79, 0
5, 11280, Note_on_c, 3, 81, 80
5, 11306, Note_on_c, 3, 81, 0
5, 11340, Note_on_c, 3, 81, 80
5, 11366, Note_on_c, 3, 81, 0
5, 11400, Note_on_c, 3, 82, 80
5, 11426, Note_on_c, 3, 82, 0
5, 13080, Note_on_c, 3, 72, 80
5, 13106, Note_on_c, 3, 72, 0
5, 13140, Note_on_c, 3, 72, 80
5, 13166, Note_on_c, 3, 72, 0
5, 13200, Note_on_c, 3, 74, 80
5, 13226, Note_on_c, 3, 74, 0
5, 13260, Note_on_c, 3, 74, 80
5, 13286, Note_on_c, 3, 74, 0
5, 13320, Note_on_c, 3, 72, 80
5, 13346, Note_on_c, 3, 72, 0
5, 13380, Note_on_c, 3, 72, 80
5, 13406, Note_on_c, 3, 72, 0
5, 13440, Note_on_c, 3, 70, 80
5, 13466, Note_on_c, 3, 70, 0
5, 13500, Note_on_c, 3, 70, 80
5, 13526, Note_on_c, 3, 70, 0
5, 13560, Note_on_c, 3, 75, 80
5, 13586, Note_on_c, 3, 75, 0
5, 13620, Note_on_c, 3, 74, 80
5, 13646, Note_on_c, 3, 74, 0
5, 13680, Note_on_c, 3, 75, 80
5, 13706, Note_on_c, 3, 75, 0
5, 13740, Note_on_c, 3, 79, 80
5, 13766, Note_on_c, 3, 79, 0
5, 13800, Note_on_c, 3, 77, 80
5, 13826, Note_on_c, 3, 77, 0
5, 13860, Note_on_c, 3, 75, 80
5, 13886, Note_on_c, 3, 75, 0
5, 13920, Note_on_c, 3, 74, 80
5, 13946, Note_on_c, 3, 74, 0
5, 13980, Note_on_c, 3, 75, 80
5, 14006, Note_on_c, 3, 75, 0
5, 14040, Note_on_c, 3, 74, 80
5, 14066, Note_on_c, 3, 74, 0
5, 16590, Note_on_c, 3, 82, 80
5, 16616, Note_on_c, 3, 82, 0
5, 16650, Note_on_c, 3, 82, 80
5, 16676, Note_on_c, 3, 82, 0
5, 16680, Note_on_c, 3, 81, 80
5, 16706, Note_on_c, 3, 81, 0
5, 16740, Note_on_c, 3, 81, 80
5, 16766, Note_on_c, 3, 81, 0
5, 16830, Note_on_c, 3, 81, 80
5, 16856, Note_on_c, 3, 81, 0
5, 16890, Note_on_c, 3, 81, 80
5, 16916, Note_on_c, 3, 81, 0
5, 16920, Note_on_c, 3, 79, 80
5, 16946, Note_on_c, 3, 79, 0
5, 16980, Note_on_c, 3, 79, 80
5, 17006, Note_on_c, 3, 79, 0
5, 17070, Note_on_c, 3, 79, 80
5, 17096, Note_on_c, 3, 79, 0
5, 17130, Note_on_c, 3, 79, 80
5, 17156, Note_on_c, 3, 79, 0
5, 17160, Note_on_c, 3, 77, 80
5, 17186, Note_on_c, 3, 77, 0
5, 17220, Note_on_c, 3, 77, 80
5, 17246, Note_on_c, 3, 77, 0
5, 17400, Note_on_c, 3, 82, 80
5, 17426, Note_on_c, 3, 82, 0
5, 17460, Note_on_c, 3, 81, 80
5, 17486, Note_on_c, 3, 81, 0
5, 17520, Note_on_c, 3, 82, 80
5, 17546, Note_on_c, 3, 82, 0
5, 17580, Note_on_c, 3, 86, 80
5, 17606, Note_on_c, 3, 86, 0
5, 17640, Note_on_c, 3, 84, 80
5, 17666, Note_on_c, 3, 84, 0
5, 17700, Note_on_c, 3, 82, 80
5, 17726, Note_on_c, 3, 82, 0
5, 17760, Note_on_c, 3, 81, 80
5, 17786, Note_on_c, 3, 81, 0
5, 17820, Note_on_c, 3, 82, 80
5, 17846, Note_on_c, 3, 82, 0
5, 17880, Note_on_c, 3, 81, 80
5, 17906, Note_on_c, 3, 81, 0
5, 20280, Note_on_c, 3, 68, 80
5, 20306, Note_on_c, 3, 68, 0
5, 20340, Note_on_c, 3, 68, 80
5, 20366, Note_on_c, 3, 68, 0
5, 20400, Note_on_c, 3, 67, 80
5, 20426, Note_on_c, 3, 67, 0
5, 20460, Note_on_c, 3, 67, 80
5, 20486, Note_on_c, 3, 67, 0
5, 20520, Note_on_c, 3, 65, 80
5, 20546, Note_on_c, 3, 65, 0
5, 20580, Note_on_c, 3, 65, 80
5, 20606, Note_on_c, 3, 65, 0
5, 20640, Note_on_c, 3, 63, 80
5, 20666, Note_on_c, 3, 63, 0
5, 20700, Note_on_c, 3, 63, 80
5, 20726, Note_on_c, 3, 63, 0
5, 20760, Note_on_c, 3, 80, 80
5, 20786, Note_on_c, 3, 80, 0
5, 20820, Note_on_c, 3, 79, 80
5, 20846, Note_on_c, 3, 79, 0
5, 20880, Note_on_c, 3, 80, 80
5, 20906, Note_on_c, 3, 80, 0
5, 20940, Note_on_c, 3, 84, 80
5, 20966, Note_on_c, 3, 84, 0
5, 21000, Note_on_c, 3, 82, 80
5, 21026, Note_on_c, 3, 82, 0
5, 21060, Note_on_c, 3, 80, 80
5, 21086, Note_on_c, 3, 80, 0
5, 21120, Note_on_c, 3, 79, 80
5, 21146, Note_on_c, 3, 79, 0
5, 21180, Note_on_c, 3, 80, 80
5, 21206, Note_on_c, 3, 80, 0
5, 21240, Note_on_c, 3, 79, 80
5, 21266, Note_on_c, 3, 79, 0
5, 25320, Note_on_c, 3, 70, 80
5, 25320, Note_on_c, 3, 82, 80
5, 25346, Note_on_c, 3, 82, 0
5, 25346, Note_on_c, 3, 70, 0
5, 25380, Note_on_c, 3, 70, 80
5, 25380, Note_on_c, 3, 82, 80
5, 25406, Note_on_c, 3, 82, 0
5, 25406, Note_on_c, 3, 70, 0
5, 25470, Note_on_c, 3, 70, 80
5, 25470, Note_on_c, 3, 82, 80
5, 25496, Note_on_c, 3, 82, 0
5, 25496, Note_on_c, 3, 70, 0
5, 25530, Note_on_c, 3, 70, 80
5, 25530, Note_on_c, 3, 82, 80
5, 25556, Note_on_c, 3, 82, 0
5, 25556, Note_on_c, 3, 70, 0
5, 25560, Note_on_c, 3, 69, 80
5, 25560, Note_on_c, 3, 81, 80
5, 25586, Note_on_c, 3, 81, 0
5, 25586, Note_on_c, 3, 69, 0
5, 25620, Note_on_c, 3, 69, 80
5, 25620, Note_on_c, 3, 81, 80
5, 25646, Note_on_c, 3, 81, 0
5, 25646, Note_on_c, 3, 69, 0
5, 25710, Note_on_c, 3, 68, 80
5, 25710, Note_on_c, 3, 80, 80
5, 25736, Note_on_c, 3, 80, 0
5, 25736, Note_on_c, 3, 68, 0
5, 25770, Note_on_c, 3, 68, 80
5, 25770, Note_on_c, 3, 80, 80
5, 25796, Note_on_c, 3, 80, 0
5, 25796, Note_on_c, 3, 68, 0
5, 25800, Note_on_c, 3, 67, 80
5, 25800, Note_on_c, 3, 79, 80
5, 25826, Note_on_c, 3, 79, 0
5, 25826, Note_on_c, 3, 67, 0
5, 25860, Note_on_c, 3, 67, 80
5, 25860, Note_on_c, 3, 79, 80
5, 25886, Note_on_c, 3, 79, 0
5, 25886, Note_on_c, 3, 67, 0
5, 25950, Note_on_c, 3, 67, 80
5, 25950, Note_on_c, 3, 79, 80
5, 25976, Note_on_c, 3, 79, 0
5, 25976, Note_on_c, 3, 67, 0
5, 26010, Note_on_c, 3, 67, 80
5, 26010, Note_on_c, 3, 79, 80
5, 26036, Note_on_c, 3, 79, 0
5, 26036, Note_on_c, 3, 67, 0
5, 26040, Note_on_c, 3, 65, 80
5, 26040, Note_on_c, 3, 77, 80
5, 26066, Note_on_c, 3, 77, 0
5, 26066, Note_on_c, 3, 65, 0
5, 26100, Note_on_c, 3, 65, 80
5, 26100, Note_on_c, 3, 77, 80
5, 26126, Note_on_c, 3, 77, 0
5, 26126, Note_on_c, 3, 65, 0
5, 26280, Note_on_c, 3, 63, 80
5, 26280, Note_on_c, 3, 75, 80
5, 26306, Note_on_c, 3, 75, 0
5, 26306, Note_on_c, 3, 63, 0
5, 26340, Note_on_c, 3, 63, 80
5, 26340, Note_on_c, 3, 75, 80
5, 26366, Note_on_c, 3, 75, 0
5, 26366, Note_on_c, 3, 63, 0
5, 26430, Note_on_c, 3, 63, 80
5, 26430, Note_on_c, 3, 75, 80
5, 26456, Note_on_c, 3, 75, 0
5, 26456, Note_on_c, 3, 63, 0
5, 26490, Note_on_c, 3, 63, 80
5, 26490, Note_on_c, 3, 75, 80
5, 26516, Note_on_c, 3, 75, 0
5, 26516, Note_on_c, 3, 63, 0
5, 26520, Note_on_c, 3, 62, 80
5, 26520, Note_on_c, 3, 74, 80
5, 26546, Note_on_c, 3, 74, 0
5, 26546, Note_on_c, 3, 62, 0
5, 26580, Note_on_c, 3, 62, 80
5, 26580, Note_on_c, 3, 74, 80
5, 26606, Note_on_c, 3, 74, 0
5, 26606, Note_on_c, 3, 62, 0
5, 27000, Note_on_c, 3, 75, 80
5, 27026, Note_on_c, 3, 75, 0
5, 27060, Note_on_c, 3, 74, 80
5, 27086, Note_on_c, 3, 74, 0
5, 27120, Note_on_c, 3, 75, 80
5, 27146, Note_on_c, 3, 75, 0
5, 27180, Note_on_c, 3, 79, 80
5, 27206, Note_on_c, 3, 79, 0
5, 27240, Note_on_c, 3, 77, 80
5, 27266, Note_on_c, 3, 77, 0
5, 27300, Note_on_c, 3, 75, 80
5, 27326, Note_on_c, 3, 75, 0
5, 27360, Note_on_c, 3, 74, 80
5, 27386, Note_on_c, 3, 74, 0
5, 27420, Note_on_c, 3, 75, 80
5, 27446, Note_on_c, 3, 75, 0
5, 27480, Note_on_c, 3, 74, 80
5, 27506, Note_on_c, 3, 74, 0
5, 27506, End_track
6, 0, Start_track
6, 0, MIDI_port, 0
6, 0, End_track
0, 0, End_of_file
