0, 0, Header, 1, 9, 120
1, 0, Start_track
1, 0, Time_signature, 4, 2, 24, 8
1, 0, Key_signature, -3, "major"
1, 0, Tempo, 625000
1, 117, Tempo, 697674
1, 602, Tempo, 625000
1, 606, Tempo, 638297
1, 1080, Tempo, 666666
1, 1086, Tempo, 689655
1, 1560, Tempo, 618556
1, 1580, Tempo, 1250000
1, 1620, Tempo, 625000
1, 1623, Tempo, 645161
1, 2520, Tempo, 666666
1, 2526, Tempo, 697674
1, 2880, Tempo, 618556
1, 3000, Tempo, 652173
1, 3006, Tempo, 674157
1, 3475, Tempo, 618556
1, 3495, Tempo, 1304347
1, 3550, Tempo, 625000
1, 3556, Tempo, 645161
1, 4560, Tempo, 625000
1, 5400, Tempo, 659340
1, 5523, Tempo, 714285
1, 5885, Tempo, 674157
1, 5886, Tempo, 697674
1, 5890, Tempo, 674157
1, 5900, Tempo, 689655
1, 6360, Tempo, 618556
1, 6380, Tempo, 1200000
1, 6445, Tempo, 625000
1, 6450, Tempo, 659340
1, 6960, Tempo, 697674
1, 7320, Tempo, 618556
1, 7326, Tempo, 645161
1, 8280, Tempo, 666666
1, 8760, Tempo, 652173
1, 12125, Tempo, 750000
1, 13440, Tempo, 1200000
1, 13560, Tempo, 333333
1, 51483, Tempo, 359281
1, 51723, Tempo, 394736
1, 51903, Tempo, 441176
1, 51960, Tempo, 535714
1, 52246, Tempo, 372670
1, 52253, Tempo, 372670
1, 53940, Tempo, 400000
1, 54360, Tempo, 375000
1, 54970, Tempo, 387096
1, 55320, Tempo, 402684
1, 55680, Time_signature, 3, 2, 24, 8
1, 55690, Tempo, 444444
1, 55800, Tempo, 560747
1, 77400, Tempo, 1000000
1, 77643, Tempo, 1200000
1, 77743, Tempo, 1538461
1, 77760, Tempo, 1200000
1, 77763, Tempo, 1176470
1, 77766, Tempo, 1224489
1, 77766, End_track
2, 0, Start_track
2, 0, MIDI_port, 0
2, 0, Program_c, 0, 40
2, 0, Control_c, 0, 7, 125
2, 0, Control_c, 0, 10, 35
2, 130, Note_on_c, 0, 75, 127
2, 595, Note_on_c, 0, 75, 0
2, 720, Note_on_c, 0, 75, 116
2, 825, Note_on_c, 0, 75, 0
2, 840, Note_on_c, 0, 74, 114
2, 985, Note_on_c, 0, 74, 0
2, 1020, Note_on_c, 0, 75, 114
2, 1080, Note_on_c, 0, 75, 0
2, 1100, Note_on_c, 0, 77, 119
2, 1565, Note_on_c, 0, 77, 0
2, 1680, Note_on_c, 0, 77, 112
2, 1785, Note_on_c, 0, 77, 0
2, 1800, Note_on_c, 0, 77, 111
2, 1945, Note_on_c, 0, 77, 0
2, 1980, Note_on_c, 0, 79, 113
2, 2032, Note_on_c, 0, 79, 0
2, 2060, Note_on_c, 0, 80, 113
2, 2352, Note_on_c, 0, 80, 0
2, 2400, Note_on_c, 0, 80, 112
2, 2505, Note_on_c, 0, 80, 0
2, 2540, Note_on_c, 0, 80, 114
2, 2635, Note_on_c, 0, 80, 0
2, 2640, Note_on_c, 0, 79, 120
2, 2700, Note_on_c, 0, 77, 124
2, 2705, Note_on_c, 0, 79, 0
2, 2760, Note_on_c, 0, 79, 122
2, 2762, Note_on_c, 0, 77, 0
2, 2925, Note_on_c, 0, 79, 0
2, 2940, Note_on_c, 0, 74, 119
2, 2992, Note_on_c, 0, 74, 0
2, 3030, Note_on_c, 0, 75, 114
2, 3495, Note_on_c, 0, 75, 0
2, 3600, Note_on_c, 0, 79, 111
2, 3705, Note_on_c, 0, 79, 0
2, 3720, Note_on_c, 0, 79, 112
2, 3865, Note_on_c, 0, 79, 0
2, 3900, Note_on_c, 0, 80, 110
2, 3957, Note_on_c, 0, 80, 0
2, 3985, Note_on_c, 0, 82, 123
2, 4450, Note_on_c, 0, 82, 0
2, 4560, Note_on_c, 0, 70, 111
2, 4665, Note_on_c, 0, 70, 0
2, 4680, Note_on_c, 0, 70, 112
2, 4845, Note_on_c, 0, 70, 0
2, 4860, Note_on_c, 0, 72, 113
2, 4912, Note_on_c, 0, 72, 0
2, 4920, Note_on_c, 0, 73, 111
2, 5265, Note_on_c, 0, 73, 0
2, 5280, Note_on_c, 0, 73, 110
2, 5357, Note_on_c, 0, 73, 0
2, 5400, Note_on_c, 0, 73, 117
2, 5400, Note_on_c, 0, 76, 117
2, 5505, Note_on_c, 0, 73, 0
2, 5520, Note_on_c, 0, 72, 127
2, 5572, Note_on_c, 0, 72, 0
2, 5580, Note_on_c, 0, 70, 127
2, 5632, Note_on_c, 0, 70, 0
2, 5640, Note_on_c, 0, 72, 127
2, 5805, Note_on_c, 0, 72, 0
2, 5820, Note_on_c, 0, 67, 122
2, 5872, Note_on_c, 0, 67, 0
2, 5872, Note_on_c, 0, 76, 0
2, 5900, Note_on_c, 0, 77, 123
2, 6365, Note_on_c, 0, 77, 0
2, 6480, Note_on_c, 0, 77, 113
2, 6585, Note_on_c, 0, 77, 0
2, 6600, Note_on_c, 0, 79, 113
2, 6765, Note_on_c, 0, 79, 0
2, 6780, Note_on_c, 0, 80, 120
2, 6832, Note_on_c, 0, 80, 0
2, 6840, Note_on_c, 0, 74, 118
2, 7305, Note_on_c, 0, 74, 0
2, 7440, Note_on_c, 0, 74, 110
2, 7545, Note_on_c, 0, 74, 0
2, 7560, Note_on_c, 0, 79, 120
2, 7725, Note_on_c, 0, 79, 0
2, 7740, Note_on_c, 0, 75, 117
2, 7792, Note_on_c, 0, 75, 0
2, 7800, Note_on_c, 0, 72, 124
2, 8332, Note_on_c, 0, 72, 0
2, 8340, Note_on_c, 0, 75, 125
2, 8392, Note_on_c, 0, 75, 0
2, 8400, Note_on_c, 0, 73, 122
2, 8452, Note_on_c, 0, 73, 0
2, 8460, Note_on_c, 0, 72, 121
2, 8512, Note_on_c, 0, 72, 0
2, 8520, Note_on_c, 0, 73, 121
2, 8657, Note_on_c, 0, 73, 0
2, 8700, Note_on_c, 0, 77, 127
2, 8752, Note_on_c, 0, 77, 0
2, 8760, Note_on_c, 0, 71, 122
2, 8925, Note_on_c, 0, 71, 0
2, 8940, Note_on_c, 0, 72, 123
2, 8992, Note_on_c, 0, 72, 0
2, 9000, Note_on_c, 0, 71, 120
2, 9165, Note_on_c, 0, 71, 0
2, 9180, Note_on_c, 0, 72, 119
2, 9212, Note_on_c, 0, 72, 0
2, 9240, Note_on_c, 0, 74, 126
2, 10845, Note_on_c, 0, 74, 0
2, 10860, Note_on_c, 0, 67, 120
2, 10912, Note_on_c, 0, 67, 0
2, 10920, Note_on_c, 0, 69, 125
2, 11085, Note_on_c, 0, 69, 0
2, 11100, Note_on_c, 0, 71, 119
2, 11152, Note_on_c, 0, 71, 0
2, 11160, Note_on_c, 0, 72, 124
2, 11325, Note_on_c, 0, 72, 0
2, 11340, Note_on_c, 0, 67, 119
2, 11340, Note_on_c, 0, 71, 119
2, 11392, Note_on_c, 0, 71, 0
2, 11392, Note_on_c, 0, 67, 0
2, 11400, Note_on_c, 0, 69, 126
2, 11400, Note_on_c, 0, 72, 126
2, 11565, Note_on_c, 0, 72, 0
2, 11565, Note_on_c, 0, 69, 0
2, 11580, Note_on_c, 0, 71, 120
2, 11580, Note_on_c, 0, 74, 120
2, 11632, Note_on_c, 0, 74, 0
2, 11632, Note_on_c, 0, 71, 0
2, 11640, Note_on_c, 0, 75, 127
2, 11985, Note_on_c, 0, 75, 0
2, 12000, Note_on_c, 0, 75, 127
2, 12105, Note_on_c, 0, 75, 0
2, 12140, Note_on_c, 0, 75, 127
2, 12143, Note_on_c, 0, 78, 127
2, 12240, Note_on_c, 0, 74, 127
2, 12245, Note_on_c, 0, 75, 0
2, 12292, Note_on_c, 0, 74, 0
2, 12300, Note_on_c, 0, 72, 127
2, 12352, Note_on_c, 0, 72, 0
2, 12360, Note_on_c, 0, 74, 127
2, 12525, Note_on_c, 0, 74, 0
2, 12540, Note_on_c, 0, 69, 127
2, 12582, Note_on_c, 0, 69, 0
2, 12597, Note_on_c, 0, 78, 0
2, 12625, Note_on_c, 0, 79, 127
2, 13440, Note_on_c, 0, 79, 0
2, 13440, Program_c, 0, 1
2, 13458, Control_c, 0, 7, 119
2, 13462, Control_c, 0, 10, 119
2, 13560, Note_on_c, 0, 67, 100
2, 13665, Note_on_c, 0, 67, 0
2, 13680, Note_on_c, 0, 72, 100
2, 13732, Note_on_c, 0, 72, 0
2, 13740, Note_on_c, 0, 74, 100
2, 13792, Note_on_c, 0, 74, 0
2, 13800, Note_on_c, 0, 75, 100
2, 14145, Note_on_c, 0, 75, 0
2, 14160, Note_on_c, 0, 74, 100
2, 14212, Note_on_c, 0, 74, 0
2, 14220, Note_on_c, 0, 72, 100
2, 14272, Note_on_c, 0, 72, 0
2, 14280, Note_on_c, 0, 75, 100
2, 14332, Note_on_c, 0, 75, 0
2, 14340, Note_on_c, 0, 74, 100
2, 14392, Note_on_c, 0, 74, 0
2, 14400, Note_on_c, 0, 72, 100
2, 14452, Note_on_c, 0, 72, 0
2, 14460, Note_on_c, 0, 71, 100
2, 14512, Note_on_c, 0, 71, 0
2, 14520, Note_on_c, 0, 72, 100
2, 14625, Note_on_c, 0, 72, 0
2, 14640, Note_on_c, 0, 67, 100
2, 14745, Note_on_c, 0, 67, 0
2, 14760, Note_on_c, 0, 68, 100
2, 14865, Note_on_c, 0, 68, 0
2, 14880, Note_on_c, 0, 65, 100
2, 14985, Note_on_c, 0, 65, 0
2, 15000, Note_on_c, 0, 67, 100
2, 15105, Note_on_c, 0, 67, 0
2, 15120, Note_on_c, 0, 72, 100
2, 15225, Note_on_c, 0, 72, 0
2, 15240, Note_on_c, 0, 67, 100
2, 15345, Note_on_c, 0, 67, 0
2, 15360, Note_on_c, 0, 65, 100
2, 15465, Note_on_c, 0, 65, 0
2, 15480, Note_on_c, 0, 63, 100
2, 15585, Note_on_c, 0, 63, 0
2, 15600, Note_on_c, 0, 72, 100
2, 15652, Note_on_c, 0, 72, 0
2, 15660, Note_on_c, 0, 74, 100
2, 15712, Note_on_c, 0, 74, 0
2, 15720, Note_on_c, 0, 75, 100
2, 15772, Note_on_c, 0, 75, 0
2, 15780, Note_on_c, 0, 74, 100
2, 15832, Note_on_c, 0, 74, 0
2, 15840, Note_on_c, 0, 72, 100
2, 15945, Note_on_c, 0, 72, 0
2, 15960, Note_on_c, 0, 79, 100
2, 16065, Note_on_c, 0, 79, 0
2, 16080, Note_on_c, 0, 72, 100
2, 16185, Note_on_c, 0, 72, 0
2, 16200, Note_on_c, 0, 80, 100
2, 16305, Note_on_c, 0, 80, 0
2, 16320, Note_on_c, 0, 72, 100
2, 16425, Note_on_c, 0, 72, 0
2, 16440, Note_on_c, 0, 71, 100
2, 16545, Note_on_c, 0, 71, 0
2, 16560, Note_on_c, 0, 72, 100
2, 16665, Note_on_c, 0, 72, 0
2, 16680, Note_on_c, 0, 74, 100
2, 16785, Note_on_c, 0, 74, 0
2, 16800, Note_on_c, 0, 71, 100
2, 16905, Note_on_c, 0, 71, 0
2, 16920, Note_on_c, 0, 67, 100
2, 17025, Note_on_c, 0, 67, 0
2, 17400, Note_on_c, 0, 79, 100
2, 17452, Note_on_c, 0, 79, 0
2, 17460, Note_on_c, 0, 77, 100
2, 17512, Note_on_c, 0, 77, 0
2, 17520, Note_on_c, 0, 75, 100
2, 17572, Note_on_c, 0, 75, 0
2, 17580, Note_on_c, 0, 74, 100
2, 17632, Note_on_c, 0, 74, 0
2, 17640, Note_on_c, 0, 72, 100
2, 17745, Note_on_c, 0, 72, 0
2, 17760, Note_on_c, 0, 70, 100
2, 17985, Note_on_c, 0, 70, 0
2, 18000, Note_on_c, 0, 73, 100
2, 18225, Note_on_c, 0, 73, 0
2, 18240, Note_on_c, 0, 72, 100
2, 18345, Note_on_c, 0, 72, 0
2, 18360, Note_on_c, 0, 80, 100
2, 18412, Note_on_c, 0, 80, 0
2, 18420, Note_on_c, 0, 79, 100
2, 18472, Note_on_c, 0, 79, 0
2, 18480, Note_on_c, 0, 77, 100
2, 18532, Note_on_c, 0, 77, 0
2, 18540, Note_on_c, 0, 76, 100
2, 18592, Note_on_c, 0, 76, 0
2, 18600, Note_on_c, 0, 77, 100
2, 18892, Note_on_c, 0, 77, 0
2, 18900, Note_on_c, 0, 79, 100
2, 18952, Note_on_c, 0, 79, 0
2, 18960, Note_on_c, 0, 80, 100
2, 19012, Note_on_c, 0, 80, 0
2, 19020, Note_on_c, 0, 79, 100
2, 19072, Note_on_c, 0, 79, 0
2, 19080, Note_on_c, 0, 77, 100
2, 19132, Note_on_c, 0, 77, 0
2, 19140, Note_on_c, 0, 75, 100
2, 19192, Note_on_c, 0, 75, 0
2, 19200, Note_on_c, 0, 74, 100
2, 19252, Note_on_c, 0, 74, 0
2, 19260, Note_on_c, 0, 75, 100
2, 19312, Note_on_c, 0, 75, 0
2, 19320, Note_on_c, 0, 77, 100
2, 19372, Note_on_c, 0, 77, 0
2, 19380, Note_on_c, 0, 75, 100
2, 19432, Note_on_c, 0, 75, 0
2, 19440, Note_on_c, 0, 74, 100
2, 19492, Note_on_c, 0, 74, 0
2, 19500, Note_on_c, 0, 72, 100
2, 19552, Note_on_c, 0, 72, 0
2, 19560, Note_on_c, 0, 70, 100
2, 19665, Note_on_c, 0, 70, 0
2, 19680, Note_on_c, 0, 68, 100
2, 19905, Note_on_c, 0, 68, 0
2, 19920, Note_on_c, 0, 72, 100
2, 20145, Note_on_c, 0, 72, 0
2, 20160, Note_on_c, 0, 70, 100
2, 20265, Note_on_c, 0, 70, 0
2, 20280, Note_on_c, 0, 79, 100
2, 20332, Note_on_c, 0, 79, 0
2, 20340, Note_on_c, 0, 77, 100
2, 20392, Note_on_c, 0, 77, 0
2, 20400, Note_on_c, 0, 75, 100
2, 20452, Note_on_c, 0, 75, 0
2, 20460, Note_on_c, 0, 74, 100
2, 20512, Note_on_c, 0, 74, 0
2, 20520, Note_on_c, 0, 75, 100
2, 20812, Note_on_c, 0, 75, 0
2, 20820, Note_on_c, 0, 77, 100
2, 20872, Note_on_c, 0, 77, 0
2, 20880, Note_on_c, 0, 79, 100
2, 20932, Note_on_c, 0, 79, 0
2, 20940, Note_on_c, 0, 77, 100
2, 20992, Note_on_c, 0, 77, 0
2, 21000, Note_on_c, 0, 75, 100
2, 21052, Note_on_c, 0, 75, 0
2, 21060, Note_on_c, 0, 74, 100
2, 21112, Note_on_c, 0, 74, 0
2, 21120, Note_on_c, 0, 72, 100
2, 21172, Note_on_c, 0, 72, 0
2, 21180, Note_on_c, 0, 71, 100
2, 21232, Note_on_c, 0, 71, 0
2, 21240, Note_on_c, 0, 72, 100
2, 21292, Note_on_c, 0, 72, 0
2, 21300, Note_on_c, 0, 70, 100
2, 21352, Note_on_c, 0, 70, 0
2, 21360, Note_on_c, 0, 68, 100
2, 21412, Note_on_c, 0, 68, 0
2, 21420, Note_on_c, 0, 67, 100
2, 21472, Note_on_c, 0, 67, 0
2, 21480, Note_on_c, 0, 65, 100
2, 21585, Note_on_c, 0, 65, 0
2, 21600, Note_on_c, 0, 75, 100
2, 21825, Note_on_c, 0, 75, 0
2, 21840, Note_on_c, 0, 74, 100
2, 21892, Note_on_c, 0, 74, 0
2, 21900, Note_on_c, 0, 72, 100
2, 21952, Note_on_c, 0, 72, 0
2, 21960, Note_on_c, 0, 75, 100
2, 22012, Note_on_c, 0, 75, 0
2, 22020, Note_on_c, 0, 74, 100
2, 22072, Note_on_c, 0, 74, 0
2, 22080, Note_on_c, 0, 72, 100
2, 22132, Note_on_c, 0, 72, 0
2, 22140, Note_on_c, 0, 71, 100
2, 22192, Note_on_c, 0, 71, 0
2, 22200, Note_on_c, 0, 72, 100
2, 22252, Note_on_c, 0, 72, 0
2, 22260, Note_on_c, 0, 74, 100
2, 22312, Note_on_c, 0, 74, 0
2, 22320, Note_on_c, 0, 75, 100
2, 22372, Note_on_c, 0, 75, 0
2, 22380, Note_on_c, 0, 77, 100
2, 22432, Note_on_c, 0, 77, 0
2, 22440, Note_on_c, 0, 79, 100
2, 22545, Note_on_c, 0, 79, 0
2, 22560, Note_on_c, 0, 72, 100
2, 22785, Note_on_c, 0, 72, 0
2, 22800, Note_on_c, 0, 71, 100
2, 22852, Note_on_c, 0, 71, 0
2, 22860, Note_on_c, 0, 72, 100
2, 22912, Note_on_c, 0, 72, 0
2, 22920, Note_on_c, 0, 74, 100
2, 22972, Note_on_c, 0, 74, 0
2, 22980, Note_on_c, 0, 72, 100
2, 23032, Note_on_c, 0, 72, 0
2, 23040, Note_on_c, 0, 71, 100
2, 23092, Note_on_c, 0, 71, 0
2, 23100, Note_on_c, 0, 72, 100
2, 23152, Note_on_c, 0, 72, 0
2, 23160, Note_on_c, 0, 80, 100
2, 23212, Note_on_c, 0, 80, 0
2, 23220, Note_on_c, 0, 79, 100
2, 23272, Note_on_c, 0, 79, 0
2, 23280, Note_on_c, 0, 77, 100
2, 23332, Note_on_c, 0, 77, 0
2, 23340, Note_on_c, 0, 76, 100
2, 23392, Note_on_c, 0, 76, 0
2, 23400, Note_on_c, 0, 77, 100
2, 23505, Note_on_c, 0, 77, 0
2, 23520, Note_on_c, 0, 73, 100
2, 23745, Note_on_c, 0, 73, 0
2, 23760, Note_on_c, 0, 72, 100
2, 23812, Note_on_c, 0, 72, 0
2, 23820, Note_on_c, 0, 73, 100
2, 23872, Note_on_c, 0, 73, 0
2, 23880, Note_on_c, 0, 75, 100
2, 23932, Note_on_c, 0, 75, 0
2, 23940, Note_on_c, 0, 73, 100
2, 23992, Note_on_c, 0, 73, 0
2, 24000, Note_on_c, 0, 72, 100
2, 24052, Note_on_c, 0, 72, 0
2, 24060, Note_on_c, 0, 73, 100
2, 24112, Note_on_c, 0, 73, 0
2, 24120, Note_on_c, 0, 79, 100
2, 24172, Note_on_c, 0, 79, 0
2, 24180, Note_on_c, 0, 77, 100
2, 24232, Note_on_c, 0, 77, 0
2, 24240, Note_on_c, 0, 75, 100
2, 24292, Note_on_c, 0, 75, 0
2, 24300, Note_on_c, 0, 74, 100
2, 24352, Note_on_c, 0, 74, 0
2, 24360, Note_on_c, 0, 75, 100
2, 24465, Note_on_c, 0, 75, 0
2, 24480, Note_on_c, 0, 72, 100
2, 24705, Note_on_c, 0, 72, 0
2, 24720, Note_on_c, 0, 71, 100
2, 24772, Note_on_c, 0, 71, 0
2, 24780, Note_on_c, 0, 72, 100
2, 24832, Note_on_c, 0, 72, 0
2, 24840, Note_on_c, 0, 74, 100
2, 24892, Note_on_c, 0, 74, 0
2, 24900, Note_on_c, 0, 72, 100
2, 24952, Note_on_c, 0, 72, 0
2, 24960, Note_on_c, 0, 71, 100
2, 25012, Note_on_c, 0, 71, 0
2, 25020, Note_on_c, 0, 72, 100
2, 25072, Note_on_c, 0, 72, 0
2, 25080, Note_on_c, 0, 77, 100
2, 25132, Note_on_c, 0, 77, 0
2, 25140, Note_on_c, 0, 72, 100
2, 25192, Note_on_c, 0, 72, 0
2, 25200, Note_on_c, 0, 71, 100
2, 25252, Note_on_c, 0, 71, 0
2, 25260, Note_on_c, 0, 69, 100
2, 25312, Note_on_c, 0, 69, 0
2, 25320, Note_on_c, 0, 71, 100
2, 25425, Note_on_c, 0, 71, 0
2, 25440, Note_on_c, 0, 74, 100
2, 25545, Note_on_c, 0, 74, 0
2, 25560, Note_on_c, 0, 77, 100
2, 25612, Note_on_c, 0, 77, 0
2, 25620, Note_on_c, 0, 70, 100
2, 25672, Note_on_c, 0, 70, 0
2, 25680, Note_on_c, 0, 68, 100
2, 25732, Note_on_c, 0, 68, 0
2, 25740, Note_on_c, 0, 67, 100
2, 25792, Note_on_c, 0, 67, 0
2, 25800, Note_on_c, 0, 68, 100
2, 25905, Note_on_c, 0, 68, 0
2, 25920, Note_on_c, 0, 72, 100
2, 26025, Note_on_c, 0, 72, 0
2, 26040, Note_on_c, 0, 77, 100
2, 26092, Note_on_c, 0, 77, 0
2, 26100, Note_on_c, 0, 68, 100
2, 26152, Note_on_c, 0, 68, 0
2, 26160, Note_on_c, 0, 67, 100
2, 26212, Note_on_c, 0, 67, 0
2, 26220, Note_on_c, 0, 65, 100
2, 26272, Note_on_c, 0, 65, 0
2, 26280, Note_on_c, 0, 67, 100
2, 26572, Note_on_c, 0, 67, 0
2, 26580, Note_on_c, 0, 77, 100
2, 26632, Note_on_c, 0, 77, 0
2, 26640, Note_on_c, 0, 79, 100
2, 26692, Note_on_c, 0, 79, 0
2, 26700, Note_on_c, 0, 80, 100
2, 26752, Note_on_c, 0, 80, 0
2, 26760, Note_on_c, 0, 79, 100
2, 26865, Note_on_c, 0, 79, 0
2, 26880, Note_on_c, 0, 77, 100
2, 26985, Note_on_c, 0, 77, 0
2, 27000, Note_on_c, 0, 79, 100
2, 27105, Note_on_c, 0, 79, 0
2, 27120, Note_on_c, 0, 71, 100
2, 27345, Note_on_c, 0, 71, 0
2, 27360, Note_on_c, 0, 72, 100
2, 27585, Note_on_c, 0, 72, 0
2, 27600, Note_on_c, 0, 70, 100
2, 27652, Note_on_c, 0, 70, 0
2, 27660, Note_on_c, 0, 68, 100
2, 27712, Note_on_c, 0, 68, 0
2, 27720, Note_on_c, 0, 67, 100
2, 27772, Note_on_c, 0, 67, 0
2, 27780, Note_on_c, 0, 65, 100
2, 27832, Note_on_c, 0, 65, 0
2, 27840, Note_on_c, 0, 63, 100
2, 27892, Note_on_c, 0, 63, 0
2, 27900, Note_on_c, 0, 62, 100
2, 27952, Note_on_c, 0, 62, 0
2, 27960, Note_on_c, 0, 63, 100
2, 28012, Note_on_c, 0, 63, 0
2, 28020, Note_on_c, 0, 67, 100
2, 28072, Note_on_c, 0, 67, 0
2, 28080, Note_on_c, 0, 65, 100
2, 28132, Note_on_c, 0, 65, 0
2, 28140, Note_on_c, 0, 63, 100
2, 28192, Note_on_c, 0, 63, 0
2, 28200, Note_on_c, 0, 65, 100
2, 28252, Note_on_c, 0, 65, 0
2, 28260, Note_on_c, 0, 63, 100
2, 28312, Note_on_c, 0, 63, 0
2, 28320, Note_on_c, 0, 62, 100
2, 28372, Note_on_c, 0, 62, 0
2, 28380, Note_on_c, 0, 63, 100
2, 28432, Note_on_c, 0, 63, 0
2, 28440, Note_on_c, 0, 62, 100
2, 28665, Note_on_c, 0, 62, 0
2, 28680, Note_on_c, 0, 60, 100
2, 28905, Note_on_c, 0, 60, 0
2, 29160, Note_on_c, 0, 67, 100
2, 29452, Note_on_c, 0, 67, 0
2, 29460, Note_on_c, 0, 68, 100
2, 29512, Note_on_c, 0, 68, 0
2, 29520, Note_on_c, 0, 67, 100
2, 29572, Note_on_c, 0, 67, 0
2, 29580, Note_on_c, 0, 65, 100
2, 29632, Note_on_c, 0, 65, 0
2, 29640, Note_on_c, 0, 67, 100
2, 29745, Note_on_c, 0, 67, 0
2, 29760, Note_on_c, 0, 68, 100
2, 29865, Note_on_c, 0, 68, 0
2, 29880, Note_on_c, 0, 70, 100
2, 29985, Note_on_c, 0, 70, 0
2, 30000, Note_on_c, 0, 74, 100
2, 30105, Note_on_c, 0, 74, 0
2, 30120, Note_on_c, 0, 75, 100
2, 30412, Note_on_c, 0, 75, 0
2, 30420, Note_on_c, 0, 70, 100
2, 30472, Note_on_c, 0, 70, 0
2, 30480, Note_on_c, 0, 75, 100
2, 30532, Note_on_c, 0, 75, 0
2, 30540, Note_on_c, 0, 77, 100
2, 30592, Note_on_c, 0, 77, 0
2, 30600, Note_on_c, 0, 79, 100
2, 30705, Note_on_c, 0, 79, 0
2, 30720, Note_on_c, 0, 75, 100
2, 30825, Note_on_c, 0, 75, 0
2, 30840, Note_on_c, 0, 73, 100
2, 30945, Note_on_c, 0, 73, 0
2, 30960, Note_on_c, 0, 72, 100
2, 31065, Note_on_c, 0, 72, 0
2, 31080, Note_on_c, 0, 77, 100
2, 31372, Note_on_c, 0, 77, 0
2, 31380, Note_on_c, 0, 72, 100
2, 31432, Note_on_c, 0, 72, 0
2, 31440, Note_on_c, 0, 77, 100
2, 31492, Note_on_c, 0, 77, 0
2, 31500, Note_on_c, 0, 79, 100
2, 31552, Note_on_c, 0, 79, 0
2, 31560, Note_on_c, 0, 80, 100
2, 31665, Note_on_c, 0, 80, 0
2, 31680, Note_on_c, 0, 77, 100
2, 31785, Note_on_c, 0, 77, 0
2, 31800, Note_on_c, 0, 75, 100
2, 31905, Note_on_c, 0, 75, 0
2, 31920, Note_on_c, 0, 72, 100
2, 32025, Note_on_c, 0, 72, 0
2, 32040, Note_on_c, 0, 74, 100
2, 32332, Note_on_c, 0, 74, 0
2, 32340, Note_on_c, 0, 77, 100
2, 32392, Note_on_c, 0, 77, 0
2, 32400, Note_on_c, 0, 79, 100
2, 32452, Note_on_c, 0, 79, 0
2, 32460, Note_on_c, 0, 80, 100
2, 32512, Note_on_c, 0, 80, 0
2, 32520, Note_on_c, 0, 82, 100
2, 32572, Note_on_c, 0, 82, 0
2, 32580, Note_on_c, 0, 80, 100
2, 32632, Note_on_c, 0, 80, 0
2, 32640, Note_on_c, 0, 79, 100
2, 32692, Note_on_c, 0, 79, 0
2, 32700, Note_on_c, 0, 80, 100
2, 32752, Note_on_c, 0, 80, 0
2, 32760, Note_on_c, 0, 82, 100
2, 32812, Note_on_c, 0, 82, 0
2, 32820, Note_on_c, 0, 80, 100
2, 32872, Note_on_c, 0, 80, 0
2, 32880, Note_on_c, 0, 79, 100
2, 33052, Note_on_c, 0, 79, 0
2, 33060, Note_on_c, 0, 77, 100
2, 33112, Note_on_c, 0, 77, 0
2, 33120, Note_on_c, 0, 76, 100
2, 33292, Note_on_c, 0, 76, 0
2, 33300, Note_on_c, 0, 74, 100
2, 33352, Note_on_c, 0, 74, 0
2, 33360, Note_on_c, 0, 72, 100
2, 33532, Note_on_c, 0, 72, 0
2, 33540, Note_on_c, 0, 79, 100
2, 33592, Note_on_c, 0, 79, 0
2, 33600, Note_on_c, 0, 80, 100
2, 33652, Note_on_c, 0, 80, 0
2, 33660, Note_on_c, 0, 82, 100
2, 33712, Note_on_c, 0, 82, 0
2, 33720, Note_on_c, 0, 80, 100
2, 33772, Note_on_c, 0, 80, 0
2, 33780, Note_on_c, 0, 79, 100
2, 33832, Note_on_c, 0, 79, 0
2, 33840, Note_on_c, 0, 77, 100
2, 34012, Note_on_c, 0, 77, 0
2, 34020, Note_on_c, 0, 75, 100
2, 34072, Note_on_c, 0, 75, 0
2, 34080, Note_on_c, 0, 73, 100
2, 34252, Note_on_c, 0, 73, 0
2, 34260, Note_on_c, 0, 72, 100
2, 34312, Note_on_c, 0, 72, 0
2, 34320, Note_on_c, 0, 70, 100
2, 34492, Note_on_c, 0, 70, 0
2, 34500, Note_on_c, 0, 77, 100
2, 34552, Note_on_c, 0, 77, 0
2, 34560, Note_on_c, 0, 79, 100
2, 34612, Note_on_c, 0, 79, 0
2, 34620, Note_on_c, 0, 80, 100
2, 34672, Note_on_c, 0, 80, 0
2, 34680, Note_on_c, 0, 79, 100
2, 34732, Note_on_c, 0, 79, 0
2, 34740, Note_on_c, 0, 77, 100
2, 34792, Note_on_c, 0, 77, 0
2, 34800, Note_on_c, 0, 76, 100
2, 34852, Note_on_c, 0, 76, 0
2, 34860, Note_on_c, 0, 77, 100
2, 34912, Note_on_c, 0, 77, 0
2, 34920, Note_on_c, 0, 82, 100
2, 34972, Note_on_c, 0, 82, 0
2, 34980, Note_on_c, 0, 77, 100
2, 35032, Note_on_c, 0, 77, 0
2, 35040, Note_on_c, 0, 76, 100
2, 35092, Note_on_c, 0, 76, 0
2, 35100, Note_on_c, 0, 77, 100
2, 35152, Note_on_c, 0, 77, 0
2, 35160, Note_on_c, 0, 80, 100
2, 35212, Note_on_c, 0, 80, 0
2, 35220, Note_on_c, 0, 77, 100
2, 35272, Note_on_c, 0, 77, 0
2, 35280, Note_on_c, 0, 76, 100
2, 35332, Note_on_c, 0, 76, 0
2, 35340, Note_on_c, 0, 77, 100
2, 35392, Note_on_c, 0, 77, 0
2, 35400, Note_on_c, 0, 79, 100
2, 35452, Note_on_c, 0, 79, 0
2, 35460, Note_on_c, 0, 77, 100
2, 35512, Note_on_c, 0, 77, 0
2, 35520, Note_on_c, 0, 76, 100
2, 35572, Note_on_c, 0, 76, 0
2, 35580, Note_on_c, 0, 77, 100
2, 35632, Note_on_c, 0, 77, 0
2, 35640, Note_on_c, 0, 77, 100
2, 36172, Note_on_c, 0, 77, 0
2, 36180, Note_on_c, 0, 75, 100
2, 36232, Note_on_c, 0, 75, 0
2, 36240, Note_on_c, 0, 74, 100
2, 36292, Note_on_c, 0, 74, 0
2, 36300, Note_on_c, 0, 75, 100
2, 36352, Note_on_c, 0, 75, 0
2, 36360, Note_on_c, 0, 77, 100
2, 36412, Note_on_c, 0, 77, 0
2, 36420, Note_on_c, 0, 74, 100
2, 36472, Note_on_c, 0, 74, 0
2, 36480, Note_on_c, 0, 75, 100
2, 36532, Note_on_c, 0, 75, 0
2, 36540, Note_on_c, 0, 77, 100
2, 36592, Note_on_c, 0, 77, 0
2, 36600, Note_on_c, 0, 70, 100
2, 36652, Note_on_c, 0, 70, 0
2, 36660, Note_on_c, 0, 74, 100
2, 36712, Note_on_c, 0, 74, 0
2, 36720, Note_on_c, 0, 77, 100
2, 36772, Note_on_c, 0, 77, 0
2, 36780, Note_on_c, 0, 79, 100
2, 36832, Note_on_c, 0, 79, 0
2, 36840, Note_on_c, 0, 80, 100
2, 37132, Note_on_c, 0, 80, 0
2, 37140, Note_on_c, 0, 79, 100
2, 37192, Note_on_c, 0, 79, 0
2, 37200, Note_on_c, 0, 77, 100
2, 37252, Note_on_c, 0, 77, 0
2, 37260, Note_on_c, 0, 80, 100
2, 37312, Note_on_c, 0, 80, 0
2, 37320, Note_on_c, 0, 79, 100
2, 37372, Note_on_c, 0, 79, 0
2, 37380, Note_on_c, 0, 77, 100
2, 37432, Note_on_c, 0, 77, 0
2, 37440, Note_on_c, 0, 75, 100
2, 37492, Note_on_c, 0, 75, 0
2, 37500, Note_on_c, 0, 74, 100
2, 37552, Note_on_c, 0, 74, 0
2, 37560, Note_on_c, 0, 75, 100
2, 37612, Note_on_c, 0, 75, 0
2, 37620, Note_on_c, 0, 70, 100
2, 37672, Note_on_c, 0, 70, 0
2, 37680, Note_on_c, 0, 75, 100
2, 37732, Note_on_c, 0, 75, 0
2, 37740, Note_on_c, 0, 77, 100
2, 37792, Note_on_c, 0, 77, 0
2, 37800, Note_on_c, 0, 79, 100
2, 38092, Note_on_c, 0, 79, 0
2, 38100, Note_on_c, 0, 77, 100
2, 38152, Note_on_c, 0, 77, 0
2, 38160, Note_on_c, 0, 75, 100
2, 38212, Note_on_c, 0, 75, 0
2, 38220, Note_on_c, 0, 79, 100
2, 38272, Note_on_c, 0, 79, 0
2, 38280, Note_on_c, 0, 77, 100
2, 38332, Note_on_c, 0, 77, 0
2, 38340, Note_on_c, 0, 75, 100
2, 38392, Note_on_c, 0, 75, 0
2, 38400, Note_on_c, 0, 74, 100
2, 38452, Note_on_c, 0, 74, 0
2, 38460, Note_on_c, 0, 72, 100
2, 38512, Note_on_c, 0, 72, 0
2, 38520, Note_on_c, 0, 82, 100
2, 38572, Note_on_c, 0, 82, 0
2, 38580, Note_on_c, 0, 81, 100
2, 38632, Note_on_c, 0, 81, 0
2, 38640, Note_on_c, 0, 79, 100
2, 38692, Note_on_c, 0, 79, 0
2, 38700, Note_on_c, 0, 78, 100
2, 38752, Note_on_c, 0, 78, 0
2, 38760, Note_on_c, 0, 75, 100
2, 38865, Note_on_c, 0, 75, 0
2, 38880, Note_on_c, 0, 74, 100
2, 39052, Note_on_c, 0, 74, 0
2, 39060, Note_on_c, 0, 79, 100
2, 39112, Note_on_c, 0, 79, 0
2, 39120, Note_on_c, 0, 81, 100
2, 39172, Note_on_c, 0, 81, 0
2, 39180, Note_on_c, 0, 82, 100
2, 39232, Note_on_c, 0, 82, 0
2, 39240, Note_on_c, 0, 73, 100
2, 39345, Note_on_c, 0, 73, 0
2, 39360, Note_on_c, 0, 74, 100
2, 39532, Note_on_c, 0, 74, 0
2, 39540, Note_on_c, 0, 78, 100
2, 39592, Note_on_c, 0, 78, 0
2, 39600, Note_on_c, 0, 79, 100
2, 39652, Note_on_c, 0, 79, 0
2, 39660, Note_on_c, 0, 81, 100
2, 39712, Note_on_c, 0, 81, 0
2, 39720, Note_on_c, 0, 72, 100
2, 39772, Note_on_c, 0, 72, 0
2, 39780, Note_on_c, 0, 75, 100
2, 39832, Note_on_c, 0, 75, 0
2, 39840, Note_on_c, 0, 74, 100
2, 39892, Note_on_c, 0, 74, 0
2, 39900, Note_on_c, 0, 72, 100
2, 39952, Note_on_c, 0, 72, 0
2, 39960, Note_on_c, 0, 78, 100
2, 40012, Note_on_c, 0, 78, 0
2, 40020, Note_on_c, 0, 74, 100
2, 40072, Note_on_c, 0, 74, 0
2, 40080, Note_on_c, 0, 76, 100
2, 40132, Note_on_c, 0, 76, 0
2, 40140, Note_on_c, 0, 78, 100
2, 40192, Note_on_c, 0, 78, 0
2, 40200, Note_on_c, 0, 79, 100
2, 40252, Note_on_c, 0, 79, 0
2, 40260, Note_on_c, 0, 81, 100
2, 40312, Note_on_c, 0, 81, 0
2, 40320, Note_on_c, 0, 82, 100
2, 40372, Note_on_c, 0, 82, 0
2, 40380, Note_on_c, 0, 84, 100
2, 40432, Note_on_c, 0, 84, 0
2, 40440, Note_on_c, 0, 82, 100
2, 40492, Note_on_c, 0, 82, 0
2, 40500, Note_on_c, 0, 81, 100
2, 40552, Note_on_c, 0, 81, 0
2, 40560, Note_on_c, 0, 79, 100
2, 40612, Note_on_c, 0, 79, 0
2, 40620, Note_on_c, 0, 78, 100
2, 40785, Note_on_c, 0, 78, 0
2, 40800, Note_on_c, 0, 79, 100
2, 41025, Note_on_c, 0, 79, 0
2, 41040, Note_on_c, 0, 74, 100
2, 41265, Note_on_c, 0, 74, 0
2, 41280, Note_on_c, 0, 75, 100
2, 41505, Note_on_c, 0, 75, 0
2, 41520, Note_on_c, 0, 71, 100
2, 41745, Note_on_c, 0, 71, 0
2, 41760, Note_on_c, 0, 72, 100
2, 41932, Note_on_c, 0, 72, 0
2, 41940, Note_on_c, 0, 70, 100
2, 41992, Note_on_c, 0, 70, 0
2, 42000, Note_on_c, 0, 68, 100
2, 42052, Note_on_c, 0, 68, 0
2, 42060, Note_on_c, 0, 67, 100
2, 42112, Note_on_c, 0, 67, 0
2, 42120, Note_on_c, 0, 68, 100
2, 42225, Note_on_c, 0, 68, 0
2, 42240, Note_on_c, 0, 72, 100
2, 42345, Note_on_c, 0, 72, 0
2, 42360, Note_on_c, 0, 66, 100
2, 42412, Note_on_c, 0, 66, 0
2, 42420, Note_on_c, 0, 75, 100
2, 42472, Note_on_c, 0, 75, 0
2, 42480, Note_on_c, 0, 74, 100
2, 42532, Note_on_c, 0, 74, 0
2, 42540, Note_on_c, 0, 72, 100
2, 42592, Note_on_c, 0, 72, 0
2, 42600, Note_on_c, 0, 82, 100
2, 42765, Note_on_c, 0, 82, 0
2, 42780, Note_on_c, 0, 81, 100
2, 42832, Note_on_c, 0, 81, 0
2, 42840, Note_on_c, 0, 79, 100
2, 43065, Note_on_c, 0, 79, 0
2, 43080, Note_on_c, 0, 78, 95
2, 43097, Note_on_c, 0, 78, 0
2, 43099, Note_on_c, 0, 79, 95
2, 43117, Note_on_c, 0, 79, 0
2, 43119, Note_on_c, 0, 78, 94
2, 43137, Note_on_c, 0, 78, 0
2, 43140, Note_on_c, 0, 79, 95
2, 43157, Note_on_c, 0, 79, 0
2, 43159, Note_on_c, 0, 78, 95
2, 43177, Note_on_c, 0, 78, 0
2, 43179, Note_on_c, 0, 79, 94
2, 43197, Note_on_c, 0, 79, 0
2, 43200, Note_on_c, 0, 78, 100
2, 43237, Note_on_c, 0, 78, 0
2, 43260, Note_on_c, 0, 79, 100
2, 43312, Note_on_c, 0, 79, 0
2, 43320, Note_on_c, 0, 79, 100
2, 43852, Note_on_c, 0, 79, 0
2, 43860, Note_on_c, 0, 77, 100
2, 43912, Note_on_c, 0, 77, 0
2, 43920, Note_on_c, 0, 79, 100
2, 43972, Note_on_c, 0, 79, 0
2, 43980, Note_on_c, 0, 80, 100
2, 44032, Note_on_c, 0, 80, 0
2, 44040, Note_on_c, 0, 79, 100
2, 44092, Note_on_c, 0, 79, 0
2, 44100, Note_on_c, 0, 77, 100
2, 44152, Note_on_c, 0, 77, 0
2, 44160, Note_on_c, 0, 75, 100
2, 44212, Note_on_c, 0, 75, 0
2, 44220, Note_on_c, 0, 74, 100
2, 44272, Note_on_c, 0, 74, 0
2, 44280, Note_on_c, 0, 77, 100
2, 44332, Note_on_c, 0, 77, 0
2, 44340, Note_on_c, 0, 75, 100
2, 44392, Note_on_c, 0, 75, 0
2, 44400, Note_on_c, 0, 74, 100
2, 44452, Note_on_c, 0, 74, 0
2, 44460, Note_on_c, 0, 72, 100
2, 44512, Note_on_c, 0, 72, 0
2, 44520, Note_on_c, 0, 79, 100
2, 44812, Note_on_c, 0, 79, 0
2, 44820, Note_on_c, 0, 75, 100
2, 44872, Note_on_c, 0, 75, 0
2, 44880, Note_on_c, 0, 77, 100
2, 44932, Note_on_c, 0, 77, 0
2, 44940, Note_on_c, 0, 79, 100
2, 44992, Note_on_c, 0, 79, 0
2, 45000, Note_on_c, 0, 77, 100
2, 45052, Note_on_c, 0, 77, 0
2, 45060, Note_on_c, 0, 75, 100
2, 45112, Note_on_c, 0, 75, 0
2, 45120, Note_on_c, 0, 74, 100
2, 45172, Note_on_c, 0, 74, 0
2, 45180, Note_on_c, 0, 72, 100
2, 45232, Note_on_c, 0, 72, 0
2, 45240, Note_on_c, 0, 75, 100
2, 45292, Note_on_c, 0, 75, 0
2, 45300, Note_on_c, 0, 74, 100
2, 45352, Note_on_c, 0, 74, 0
2, 45360, Note_on_c, 0, 72, 100
2, 45412, Note_on_c, 0, 72, 0
2, 45420, Note_on_c, 0, 70, 100
2, 45472, Note_on_c, 0, 70, 0
2, 45480, Note_on_c, 0, 79, 100
2, 45772, Note_on_c, 0, 79, 0
2, 45780, Note_on_c, 0, 74, 100
2, 45832, Note_on_c, 0, 74, 0
2, 45840, Note_on_c, 0, 75, 100
2, 45892, Note_on_c, 0, 75, 0
2, 45900, Note_on_c, 0, 77, 100
2, 45952, Note_on_c, 0, 77, 0
2, 45960, Note_on_c, 0, 75, 100
2, 46012, Note_on_c, 0, 75, 0
2, 46020, Note_on_c, 0, 74, 100
2, 46072, Note_on_c, 0, 74, 0
2, 46080, Note_on_c, 0, 72, 100
2, 46132, Note_on_c, 0, 72, 0
2, 46140, Note_on_c, 0, 70, 100
2, 46192, Note_on_c, 0, 70, 0
2, 46200, Note_on_c, 0, 74, 100
2, 46252, Note_on_c, 0, 74, 0
2, 46260, Note_on_c, 0, 72, 100
2, 46312, Note_on_c, 0, 72, 0
2, 46320, Note_on_c, 0, 70, 100
2, 46372, Note_on_c, 0, 70, 0
2, 46380, Note_on_c, 0, 69, 100
2, 46432, Note_on_c, 0, 69, 0
2, 46440, Note_on_c, 0, 79, 100
2, 46732, Note_on_c, 0, 79, 0
2, 46740, Note_on_c, 0, 72, 100
2, 46792, Note_on_c, 0, 72, 0
2, 46800, Note_on_c, 0, 74, 100
2, 46852, Note_on_c, 0, 74, 0
2, 46860, Note_on_c, 0, 75, 100
2, 46912, Note_on_c, 0, 75, 0
2, 46920, Note_on_c, 0, 74, 100
2, 46972, Note_on_c, 0, 74, 0
2, 46980, Note_on_c, 0, 72, 100
2, 47032, Note_on_c, 0, 72, 0
2, 47040, Note_on_c, 0, 70, 100
2, 47092, Note_on_c, 0, 70, 0
2, 47100, Note_on_c, 0, 69, 100
2, 47152, Note_on_c, 0, 69, 0
2, 47160, Note_on_c, 0, 72, 100
2, 47212, Note_on_c, 0, 72, 0
2, 47220, Note_on_c, 0, 70, 100
2, 47272, Note_on_c, 0, 70, 0
2, 47280, Note_on_c, 0, 69, 100
2, 47332, Note_on_c, 0, 69, 0
2, 47340, Note_on_c, 0, 67, 100
2, 47392, Note_on_c, 0, 67, 0
2, 47400, Note_on_c, 0, 79, 100
2, 47692, Note_on_c, 0, 79, 0
2, 47700, Note_on_c, 0, 70, 100
2, 47752, Note_on_c, 0, 70, 0
2, 47760, Note_on_c, 0, 72, 100
2, 47812, Note_on_c, 0, 72, 0
2, 47820, Note_on_c, 0, 74, 100
2, 47872, Note_on_c, 0, 74, 0
2, 47880, Note_on_c, 0, 72, 100
2, 47932, Note_on_c, 0, 72, 0
2, 47940, Note_on_c, 0, 70, 100
2, 47992, Note_on_c, 0, 70, 0
2, 48000, Note_on_c, 0, 68, 100
2, 48052, Note_on_c, 0, 68, 0
2, 48060, Note_on_c, 0, 67, 100
2, 48112, Note_on_c, 0, 67, 0
2, 48120, Note_on_c, 0, 68, 100
2, 48652, Note_on_c, 0, 68, 0
2, 48660, Note_on_c, 0, 68, 100
2, 48712, Note_on_c, 0, 68, 0
2, 48720, Note_on_c, 0, 67, 100
2, 48772, Note_on_c, 0, 67, 0
2, 48780, Note_on_c, 0, 68, 100
2, 48832, Note_on_c, 0, 68, 0
2, 48840, Note_on_c, 0, 70, 100
2, 48892, Note_on_c, 0, 70, 0
2, 48900, Note_on_c, 0, 68, 100
2, 48952, Note_on_c, 0, 68, 0
2, 48960, Note_on_c, 0, 67, 100
2, 49012, Note_on_c, 0, 67, 0
2, 49020, Note_on_c, 0, 68, 100
2, 49072, Note_on_c, 0, 68, 0
2, 49080, Note_on_c, 0, 75, 100
2, 49612, Note_on_c, 0, 75, 0
2, 49620, Note_on_c, 0, 72, 100
2, 49672, Note_on_c, 0, 72, 0
2, 49680, Note_on_c, 0, 71, 100
2, 49732, Note_on_c, 0, 71, 0
2, 49740, Note_on_c, 0, 72, 100
2, 49792, Note_on_c, 0, 72, 0
2, 49800, Note_on_c, 0, 74, 100
2, 49852, Note_on_c, 0, 74, 0
2, 49860, Note_on_c, 0, 72, 100
2, 49912, Note_on_c, 0, 72, 0
2, 49920, Note_on_c, 0, 71, 100
2, 49972, Note_on_c, 0, 71, 0
2, 49980, Note_on_c, 0, 72, 100
2, 50032, Note_on_c, 0, 72, 0
2, 50040, Note_on_c, 0, 78, 100
2, 50145, Note_on_c, 0, 78, 0
2, 50160, Note_on_c, 0, 75, 100
2, 50385, Note_on_c, 0, 75, 0
2, 50400, Note_on_c, 0, 74, 100
2, 50505, Note_on_c, 0, 74, 0
2, 50520, Note_on_c, 0, 79, 100
2, 50625, Note_on_c, 0, 79, 0
2, 50640, Note_on_c, 0, 74, 100
2, 50865, Note_on_c, 0, 74, 0
2, 50880, Note_on_c, 0, 72, 100
2, 50985, Note_on_c, 0, 72, 0
2, 51000, Note_on_c, 0, 81, 100
2, 51105, Note_on_c, 0, 81, 0
2, 51120, Note_on_c, 0, 72, 100
2, 51345, Note_on_c, 0, 72, 0
2, 51360, Note_on_c, 0, 70, 100
2, 51532, Note_on_c, 0, 70, 0
2, 51540, Note_on_c, 0, 74, 100
2, 51592, Note_on_c, 0, 74, 0
2, 51600, Note_on_c, 0, 72, 100
2, 51652, Note_on_c, 0, 72, 0
2, 51660, Note_on_c, 0, 70, 100
2, 51712, Note_on_c, 0, 70, 0
2, 51720, Note_on_c, 0, 79, 100
2, 51772, Note_on_c, 0, 79, 0
2, 51780, Note_on_c, 0, 70, 100
2, 51832, Note_on_c, 0, 70, 0
2, 51840, Note_on_c, 0, 69, 100
2, 51892, Note_on_c, 0, 69, 0
2, 51900, Note_on_c, 0, 67, 100
2, 51952, Note_on_c, 0, 67, 0
2, 51960, Note_on_c, 0, 82, 100
2, 52252, Note_on_c, 0, 82, 0
2, 52260, Note_on_c, 0, 81, 100
2, 52312, Note_on_c, 0, 81, 0
2, 52320, Note_on_c, 0, 79, 100
2, 52372, Note_on_c, 0, 79, 0
2, 52380, Note_on_c, 0, 78, 100
2, 52432, Note_on_c, 0, 78, 0
2, 52440, Note_on_c, 0, 79, 100
2, 52492, Note_on_c, 0, 79, 0
2, 52500, Note_on_c, 0, 82, 100
2, 52552, Note_on_c, 0, 82, 0
2, 52560, Note_on_c, 0, 81, 100
2, 52612, Note_on_c, 0, 81, 0
2, 52620, Note_on_c, 0, 79, 100
2, 52672, Note_on_c, 0, 79, 0
2, 52680, Note_on_c, 0, 78, 100
2, 52732, Note_on_c, 0, 78, 0
2, 52740, Note_on_c, 0, 76, 100
2, 52792, Note_on_c, 0, 76, 0
2, 52800, Note_on_c, 0, 74, 100
2, 52852, Note_on_c, 0, 74, 0
2, 52860, Note_on_c, 0, 72, 100
2, 52912, Note_on_c, 0, 72, 0
2, 52920, Note_on_c, 0, 70, 100
2, 52972, Note_on_c, 0, 70, 0
2, 52980, Note_on_c, 0, 74, 100
2, 53032, Note_on_c, 0, 74, 0
2, 53040, Note_on_c, 0, 72, 100
2, 53092, Note_on_c, 0, 72, 0
2, 53100, Note_on_c, 0, 75, 100
2, 53152, Note_on_c, 0, 75, 0
2, 53160, Note_on_c, 0, 74, 100
2, 53212, Note_on_c, 0, 74, 0
2, 53220, Note_on_c, 0, 79, 100
2, 53272, Note_on_c, 0, 79, 0
2, 53280, Note_on_c, 0, 78, 100
2, 53332, Note_on_c, 0, 78, 0
2, 53340, Note_on_c, 0, 76, 100
2, 53392, Note_on_c, 0, 76, 0
2, 53400, Note_on_c, 0, 74, 100
2, 53452, Note_on_c, 0, 74, 0
2, 53460, Note_on_c, 0, 72, 100
2, 53512, Note_on_c, 0, 72, 0
2, 53520, Note_on_c, 0, 70, 100
2, 53572, Note_on_c, 0, 70, 0
2, 53580, Note_on_c, 0, 69, 100
2, 53632, Note_on_c, 0, 69, 0
2, 53640, Note_on_c, 0, 70, 100
2, 53692, Note_on_c, 0, 70, 0
2, 53700, Note_on_c, 0, 74, 100
2, 53752, Note_on_c, 0, 74, 0
2, 53760, Note_on_c, 0, 70, 100
2, 53812, Note_on_c, 0, 70, 0
2, 53820, Note_on_c, 0, 67, 100
2, 53872, Note_on_c, 0, 67, 0
2, 54000, Note_on_c, 0, 76, 100
2, 54052, Note_on_c, 0, 76, 0
2, 54060, Note_on_c, 0, 78, 100
2, 54112, Note_on_c, 0, 78, 0
2, 54120, Note_on_c, 0, 78, 93
2, 54133, Note_on_c, 0, 78, 0
2, 54135, Note_on_c, 0, 79, 94
2, 54148, Note_on_c, 0, 79, 0
2, 54150, Note_on_c, 0, 78, 94
2, 54163, Note_on_c, 0, 78, 0
2, 54165, Note_on_c, 0, 79, 94
2, 54178, Note_on_c, 0, 79, 0
2, 54180, Note_on_c, 0, 78, 93
2, 54193, Note_on_c, 0, 78, 0
2, 54195, Note_on_c, 0, 79, 93
2, 54208, Note_on_c, 0, 79, 0
2, 54210, Note_on_c, 0, 76, 100
2, 54236, Note_on_c, 0, 76, 0
2, 54240, Note_on_c, 0, 78, 100
2, 54292, Note_on_c, 0, 78, 0
2, 54300, Note_on_c, 0, 79, 100
2, 54352, Note_on_c, 0, 79, 0
2, 54360, Note_on_c, 0, 70, 100
2, 54412, Note_on_c, 0, 70, 0
2, 54420, Note_on_c, 0, 69, 100
2, 54472, Note_on_c, 0, 69, 0
2, 54480, Note_on_c, 0, 67, 100
2, 54532, Note_on_c, 0, 67, 0
2, 54540, Note_on_c, 0, 66, 100
2, 54592, Note_on_c, 0, 66, 0
2, 54600, Note_on_c, 0, 67, 100
2, 54720, Note_on_c, 0, 70, 100
2, 54945, Note_on_c, 0, 70, 0
2, 54960, Note_on_c, 0, 72, 100
2, 55012, Note_on_c, 0, 72, 0
2, 55020, Note_on_c, 0, 70, 100
2, 55072, Note_on_c, 0, 70, 0
2, 55080, Note_on_c, 0, 69, 100
2, 55132, Note_on_c, 0, 69, 0
2, 55140, Note_on_c, 0, 70, 100
2, 55192, Note_on_c, 0, 70, 0
2, 55200, Note_on_c, 0, 72, 100
2, 55252, Note_on_c, 0, 72, 0
2, 55260, Note_on_c, 0, 69, 100
2, 55312, Note_on_c, 0, 69, 0
2, 55312, Note_on_c, 0, 67, 0
2, 55320, Note_on_c, 0, 66, 100
2, 55377, Note_on_c, 0, 66, 0
2, 55380, Note_on_c, 0, 67, 92
2, 55397, Note_on_c, 0, 67, 0
2, 55399, Note_on_c, 0, 66, 91
2, 55417, Note_on_c, 0, 66, 0
2, 55419, Note_on_c, 0, 67, 93
2, 55437, Note_on_c, 0, 67, 0
2, 55440, Note_on_c, 0, 66, 93
2, 55457, Note_on_c, 0, 66, 0
2, 55459, Note_on_c, 0, 67, 93
2, 55477, Note_on_c, 0, 67, 0
2, 55479, Note_on_c, 0, 66, 94
2, 55497, Note_on_c, 0, 66, 0
2, 55500, Note_on_c, 0, 67, 93
2, 55517, Note_on_c, 0, 67, 0
2, 55519, Note_on_c, 0, 66, 94
2, 55537, Note_on_c, 0, 66, 0
2, 55539, Note_on_c, 0, 67, 94
2, 55557, Note_on_c, 0, 67, 0
2, 55560, Note_on_c, 0, 66, 94
2, 55577, Note_on_c, 0, 66, 0
2, 55579, Note_on_c, 0, 67, 94
2, 55597, Note_on_c, 0, 67, 0
2, 55599, Note_on_c, 0, 66, 100
2, 55637, Note_on_c, 0, 66, 0
2, 55680, Note_on_c, 0, 67, 100
2, 55785, Note_on_c, 0, 67, 0
2, 55800, Note_on_c, 0, 62, 100
2, 55800, Note_on_c, 0, 67, 100
2, 55852, Note_on_c, 0, 67, 0
2, 55852, Note_on_c, 0, 62, 0
2, 55852, End_track
3, 0, Start_track
3, 0, MIDI_port, 0
3, 0, Program_c, 1, 41
3, 0, Control_c, 1, 7, 125
3, 0, Control_c, 1, 10, 80
3, 126, Note_on_c, 1, 67, 124
3, 130, Note_on_c, 1, 72, 125
3, 591, Note_on_c, 1, 67, 0
3, 595, Note_on_c, 1, 72, 0
3, 720, Note_on_c, 1, 72, 112
3, 825, Note_on_c, 1, 72, 0
3, 840, Note_on_c, 1, 71, 112
3, 985, Note_on_c, 1, 71, 0
3, 1020, Note_on_c, 1, 72, 112
3, 1082, Note_on_c, 1, 72, 0
3, 1095, Note_on_c, 1, 74, 119
3, 1560, Note_on_c, 1, 74, 0
3, 1680, Note_on_c, 1, 74, 114
3, 1785, Note_on_c, 1, 74, 0
3, 1800, Note_on_c, 1, 74, 113
3, 1945, Note_on_c, 1, 74, 0
3, 1980, Note_on_c, 1, 75, 116
3, 2032, Note_on_c, 1, 75, 0
3, 2038, Note_on_c, 1, 77, 115
3, 2352, Note_on_c, 1, 77, 0
3, 2400, Note_on_c, 1, 77, 115
3, 2505, Note_on_c, 1, 77, 0
3, 2523, Note_on_c, 1, 77, 115
3, 2760, Note_on_c, 1, 77, 0
3, 3020, Note_on_c, 1, 67, 120
3, 3027, Note_on_c, 1, 72, 119
3, 3485, Note_on_c, 1, 67, 0
3, 3492, Note_on_c, 1, 72, 0
3, 3600, Note_on_c, 1, 75, 113
3, 3705, Note_on_c, 1, 75, 0
3, 3720, Note_on_c, 1, 75, 113
3, 3867, Note_on_c, 1, 75, 0
3, 3900, Note_on_c, 1, 77, 113
3, 3952, Note_on_c, 1, 77, 0
3, 3970, Note_on_c, 1, 72, 122
3, 3975, Note_on_c, 1, 79, 124
3, 4435, Note_on_c, 1, 72, 0
3, 4440, Note_on_c, 1, 79, 0
3, 4560, Note_on_c, 1, 67, 113
3, 4665, Note_on_c, 1, 67, 0
3, 4680, Note_on_c, 1, 67, 114
3, 4845, Note_on_c, 1, 67, 0
3, 4860, Note_on_c, 1, 68, 112
3, 4912, Note_on_c, 1, 68, 0
3, 4920, Note_on_c, 1, 70, 113
3, 5265, Note_on_c, 1, 70, 0
3, 5280, Note_on_c, 1, 70, 111
3, 5362, Note_on_c, 1, 70, 0
3, 5400, Note_on_c, 1, 70, 122
3, 5625, Note_on_c, 1, 70, 0
3, 5892, Note_on_c, 1, 68, 122
3, 5895, Note_on_c, 1, 72, 122
3, 6357, Note_on_c, 1, 68, 0
3, 6360, Note_on_c, 1, 72, 0
3, 6960, Note_on_c, 1, 65, 112
3, 7065, Note_on_c, 1, 65, 0
3, 7080, Note_on_c, 1, 65, 119
3, 7245, Note_on_c, 1, 65, 0
3, 7260, Note_on_c, 1, 67, 112
3, 7312, Note_on_c, 1, 67, 0
3, 7320, Note_on_c, 1, 67, 120
3, 7785, Note_on_c, 1, 67, 0
3, 7920, Note_on_c, 1, 63, 112
3, 8025, Note_on_c, 1, 63, 0
3, 8040, Note_on_c, 1, 63, 119
3, 8205, Note_on_c, 1, 63, 0
3, 8220, Note_on_c, 1, 65, 114
3, 8272, Note_on_c, 1, 65, 0
3, 8280, Note_on_c, 1, 65, 115
3, 8745, Note_on_c, 1, 65, 0
3, 8760, Note_on_c, 1, 67, 114
3, 8925, Note_on_c, 1, 67, 0
3, 8940, Note_on_c, 1, 69, 122
3, 8992, Note_on_c, 1, 69, 0
3, 9000, Note_on_c, 1, 67, 119
3, 9165, Note_on_c, 1, 67, 0
3, 9180, Note_on_c, 1, 69, 113
3, 9220, Note_on_c, 1, 69, 0
3, 9240, Note_on_c, 1, 71, 123
3, 10065, Note_on_c, 1, 71, 0
3, 10080, Note_on_c, 1, 62, 127
3, 10185, Note_on_c, 1, 62, 0
3, 10200, Note_on_c, 1, 65, 127
3, 10545, Note_on_c, 1, 65, 0
3, 10560, Note_on_c, 1, 68, 127
3, 10665, Note_on_c, 1, 68, 0
3, 10680, Note_on_c, 1, 67, 126
3, 10845, Note_on_c, 1, 67, 0
3, 10860, Note_on_c, 1, 65, 119
3, 10912, Note_on_c, 1, 65, 0
3, 10920, Note_on_c, 1, 63, 119
3, 11085, Note_on_c, 1, 63, 0
3, 11100, Note_on_c, 1, 62, 117
3, 11152, Note_on_c, 1, 62, 0
3, 11160, Note_on_c, 1, 63, 123
3, 11325, Note_on_c, 1, 63, 0
3, 11340, Note_on_c, 1, 62, 115
3, 11392, Note_on_c, 1, 62, 0
3, 11400, Note_on_c, 1, 63, 123
3, 11565, Note_on_c, 1, 63, 0
3, 11580, Note_on_c, 1, 65, 116
3, 11632, Note_on_c, 1, 65, 0
3, 11640, Note_on_c, 1, 67, 123
3, 11640, Note_on_c, 1, 72, 123
3, 11985, Note_on_c, 1, 72, 0
3, 12000, Note_on_c, 1, 72, 124
3, 12075, Note_on_c, 1, 72, 0
3, 12105, Note_on_c, 1, 67, 0
3, 12135, Note_on_c, 1, 69, 127
3, 12137, Note_on_c, 1, 72, 127
3, 12360, Note_on_c, 1, 69, 0
3, 12362, Note_on_c, 1, 72, 0
3, 12540, Note_on_c, 1, 69, 124
3, 12592, Note_on_c, 1, 69, 0
3, 12620, Note_on_c, 1, 71, 127
3, 12623, Note_on_c, 1, 74, 127
3, 13440, Program_c, 1, 6
3, 13445, Note_on_c, 1, 71, 0
3, 13447, Note_on_c, 1, 74, 0
3, 13460, Control_c, 1, 10, 10
3, 13470, Control_c, 1, 7, 110
3, 13474, Control_c, 1, 7, 119
3, 13560, Note_on_c, 1, 48, 100
3, 13785, Note_on_c, 1, 48, 0
3, 13800, Note_on_c, 1, 60, 100
3, 14025, Note_on_c, 1, 60, 0
3, 14040, Note_on_c, 1, 53, 100
3, 14265, Note_on_c, 1, 53, 0
3, 14280, Note_on_c, 1, 55, 100
3, 14505, Note_on_c, 1, 55, 0
3, 14520, Note_on_c, 1, 51, 100
3, 14745, Note_on_c, 1, 51, 0
3, 14760, Note_on_c, 1, 48, 100
3, 14985, Note_on_c, 1, 48, 0
3, 15000, Note_on_c, 1, 51, 100
3, 15225, Note_on_c, 1, 51, 0
3, 15240, Note_on_c, 1, 55, 100
3, 15465, Note_on_c, 1, 55, 0
3, 15480, Note_on_c, 1, 60, 100
3, 15705, Note_on_c, 1, 60, 0
3, 15720, Note_on_c, 1, 56, 100
3, 15945, Note_on_c, 1, 56, 0
3, 15960, Note_on_c, 1, 51, 100
3, 16185, Note_on_c, 1, 51, 0
3, 16200, Note_on_c, 1, 53, 100
3, 16425, Note_on_c, 1, 53, 0
3, 16440, Note_on_c, 1, 55, 100
3, 16665, Note_on_c, 1, 55, 0
3, 16680, Note_on_c, 1, 43, 100
3, 16905, Note_on_c, 1, 43, 0
3, 17040, Note_on_c, 1, 65, 100
3, 17145, Note_on_c, 1, 65, 0
3, 17160, Note_on_c, 1, 63, 100
3, 17265, Note_on_c, 1, 63, 0
3, 17280, Note_on_c, 1, 62, 100
3, 17385, Note_on_c, 1, 62, 0
3, 17400, Note_on_c, 1, 63, 100
3, 17625, Note_on_c, 1, 63, 0
3, 17640, Note_on_c, 1, 67, 100
3, 17865, Note_on_c, 1, 67, 0
3, 17880, Note_on_c, 1, 64, 100
3, 18105, Note_on_c, 1, 64, 0
3, 18120, Note_on_c, 1, 60, 100
3, 18345, Note_on_c, 1, 60, 0
3, 18360, Note_on_c, 1, 65, 100
3, 18585, Note_on_c, 1, 65, 0
3, 18600, Note_on_c, 1, 68, 100
3, 18825, Note_on_c, 1, 68, 0
3, 18840, Note_on_c, 1, 65, 100
3, 19065, Note_on_c, 1, 65, 0
3, 19080, Note_on_c, 1, 60, 100
3, 19305, Note_on_c, 1, 60, 0
3, 19320, Note_on_c, 1, 62, 100
3, 19545, Note_on_c, 1, 62, 0
3, 19560, Note_on_c, 1, 65, 100
3, 19785, Note_on_c, 1, 65, 0
3, 19800, Note_on_c, 1, 62, 100
3, 20025, Note_on_c, 1, 62, 0
3, 20040, Note_on_c, 1, 58, 100
3, 20265, Note_on_c, 1, 58, 0
3, 20280, Note_on_c, 1, 63, 100
3, 20505, Note_on_c, 1, 63, 0
3, 20520, Note_on_c, 1, 67, 100
3, 20745, Note_on_c, 1, 67, 0
3, 20760, Note_on_c, 1, 63, 100
3, 20985, Note_on_c, 1, 63, 0
3, 21000, Note_on_c, 1, 60, 100
3, 21225, Note_on_c, 1, 60, 0
3, 21240, Note_on_c, 1, 56, 100
3, 21465, Note_on_c, 1, 56, 0
3, 21480, Note_on_c, 1, 60, 100
3, 21705, Note_on_c, 1, 60, 0
3, 21720, Note_on_c, 1, 65, 100
3, 21945, Note_on_c, 1, 65, 0
3, 21960, Note_on_c, 1, 56, 100
3, 22185, Note_on_c, 1, 56, 0
3, 22200, Note_on_c, 1, 55, 100
3, 22425, Note_on_c, 1, 55, 0
3, 22440, Note_on_c, 1, 60, 100
3, 22665, Note_on_c, 1, 60, 0
3, 22680, Note_on_c, 1, 63, 100
3, 22905, Note_on_c, 1, 63, 0
3, 22920, Note_on_c, 1, 55, 100
3, 23145, Note_on_c, 1, 55, 0
3, 23160, Note_on_c, 1, 53, 100
3, 23385, Note_on_c, 1, 53, 0
3, 23400, Note_on_c, 1, 56, 100
3, 23625, Note_on_c, 1, 56, 0
3, 23640, Note_on_c, 1, 55, 100
3, 23865, Note_on_c, 1, 55, 0
3, 23880, Note_on_c, 1, 53, 100
3, 24105, Note_on_c, 1, 53, 0
3, 24120, Note_on_c, 1, 51, 100
3, 24345, Note_on_c, 1, 51, 0
3, 24360, Note_on_c, 1, 55, 100
3, 24585, Note_on_c, 1, 55, 0
3, 24600, Note_on_c, 1, 53, 100
3, 24825, Note_on_c, 1, 53, 0
3, 24840, Note_on_c, 1, 51, 100
3, 25065, Note_on_c, 1, 51, 0
3, 25080, Note_on_c, 1, 50, 100
3, 25305, Note_on_c, 1, 50, 0
3, 25320, Note_on_c, 1, 53, 100
3, 25545, Note_on_c, 1, 53, 0
3, 25560, Note_on_c, 1, 56, 100
3, 25785, Note_on_c, 1, 56, 0
3, 25800, Note_on_c, 1, 48, 100
3, 26025, Note_on_c, 1, 48, 0
3, 26040, Note_on_c, 1, 47, 100
3, 26265, Note_on_c, 1, 47, 0
3, 26280, Note_on_c, 1, 50, 100
3, 26505, Note_on_c, 1, 50, 0
3, 26520, Note_on_c, 1, 55, 100
3, 26745, Note_on_c, 1, 55, 0
3, 26760, Note_on_c, 1, 50, 100
3, 26985, Note_on_c, 1, 50, 0
3, 27000, Note_on_c, 1, 51, 100
3, 27225, Note_on_c, 1, 51, 0
3, 27240, Note_on_c, 1, 44, 100
3, 27465, Note_on_c, 1, 44, 0
3, 27480, Note_on_c, 1, 41, 100
3, 27705, Note_on_c, 1, 41, 0
3, 27720, Note_on_c, 1, 43, 100
3, 27945, Note_on_c, 1, 43, 0
3, 27960, Note_on_c, 1, 36, 100
3, 28545, Note_on_c, 1, 36, 0
3, 28560, Note_on_c, 1, 38, 100
3, 28612, Note_on_c, 1, 38, 0
3, 28620, Note_on_c, 1, 39, 100
3, 28672, Note_on_c, 1, 39, 0
3, 28680, Note_on_c, 1, 41, 100
3, 28732, Note_on_c, 1, 41, 0
3, 28740, Note_on_c, 1, 43, 100
3, 28792, Note_on_c, 1, 43, 0
3, 28800, Note_on_c, 1, 45, 100
3, 28852, Note_on_c, 1, 45, 0
3, 28860, Note_on_c, 1, 47, 100
3, 28912, Note_on_c, 1, 47, 0
3, 28920, Note_on_c, 1, 48, 100
3, 29145, Note_on_c, 1, 48, 0
3, 29160, Note_on_c, 1, 60, 100
3, 29385, Note_on_c, 1, 60, 0
3, 29400, Note_on_c, 1, 58, 100
3, 29625, Note_on_c, 1, 58, 0
3, 29640, Note_on_c, 1, 56, 100
3, 29865, Note_on_c, 1, 56, 0
3, 29880, Note_on_c, 1, 55, 100
3, 30105, Note_on_c, 1, 55, 0
3, 30120, Note_on_c, 1, 58, 100
3, 30345, Note_on_c, 1, 58, 0
3, 30360, Note_on_c, 1, 55, 100
3, 30585, Note_on_c, 1, 55, 0
3, 30600, Note_on_c, 1, 51, 100
3, 30825, Note_on_c, 1, 51, 0
3, 30840, Note_on_c, 1, 56, 100
3, 31065, Note_on_c, 1, 56, 0
3, 31080, Note_on_c, 1, 60, 100
3, 31305, Note_on_c, 1, 60, 0
3, 31320, Note_on_c, 1, 56, 100
3, 31545, Note_on_c, 1, 56, 0
3, 31560, Note_on_c, 1, 53, 100
3, 31785, Note_on_c, 1, 53, 0
3, 31800, Note_on_c, 1, 58, 100
3, 32025, Note_on_c, 1, 58, 0
3, 32040, Note_on_c, 1, 56, 100
3, 32265, Note_on_c, 1, 56, 0
3, 32280, Note_on_c, 1, 55, 100
3, 32505, Note_on_c, 1, 55, 0
3, 32520, Note_on_c, 1, 53, 100
3, 32745, Note_on_c, 1, 53, 0
3, 32760, Note_on_c, 1, 52, 100
3, 32985, Note_on_c, 1, 52, 0
3, 33000, Note_on_c, 1, 55, 100
3, 33225, Note_on_c, 1, 55, 0
3, 33240, Note_on_c, 1, 60, 100
3, 33465, Note_on_c, 1, 60, 0
3, 33480, Note_on_c, 1, 52, 100
3, 33705, Note_on_c, 1, 52, 0
3, 33720, Note_on_c, 1, 53, 100
3, 33945, Note_on_c, 1, 53, 0
3, 33960, Note_on_c, 1, 56, 100
3, 34185, Note_on_c, 1, 56, 0
3, 34200, Note_on_c, 1, 53, 100
3, 34425, Note_on_c, 1, 53, 0
3, 34440, Note_on_c, 1, 49, 100
3, 34665, Note_on_c, 1, 49, 0
3, 34680, Note_on_c, 1, 46, 100
3, 34905, Note_on_c, 1, 46, 0
3, 34920, Note_on_c, 1, 43, 100
3, 35145, Note_on_c, 1, 43, 0
3, 35160, Note_on_c, 1, 48, 100
3, 35385, Note_on_c, 1, 48, 0
3, 35400, Note_on_c, 1, 36, 100
3, 35625, Note_on_c, 1, 36, 0
3, 35640, Note_on_c, 1, 41, 100
3, 35745, Note_on_c, 1, 41, 0
3, 35760, Note_on_c, 1, 43, 100
3, 35812, Note_on_c, 1, 43, 0
3, 35820, Note_on_c, 1, 44, 100
3, 35872, Note_on_c, 1, 44, 0
3, 35880, Note_on_c, 1, 46, 100
3, 35932, Note_on_c, 1, 46, 0
3, 35940, Note_on_c, 1, 48, 100
3, 35992, Note_on_c, 1, 48, 0
3, 36000, Note_on_c, 1, 50, 100
3, 36052, Note_on_c, 1, 50, 0
3, 36060, Note_on_c, 1, 52, 100
3, 36112, Note_on_c, 1, 52, 0
3, 36120, Note_on_c, 1, 53, 100
3, 36345, Note_on_c, 1, 53, 0
3, 36360, Note_on_c, 1, 51, 100
3, 36585, Note_on_c, 1, 51, 0
3, 36600, Note_on_c, 1, 50, 100
3, 36825, Note_on_c, 1, 50, 0
3, 36840, Note_on_c, 1, 53, 100
3, 37065, Note_on_c, 1, 53, 0
3, 37080, Note_on_c, 1, 50, 100
3, 37305, Note_on_c, 1, 50, 0
3, 37320, Note_on_c, 1, 46, 100
3, 37545, Note_on_c, 1, 46, 0
3, 37560, Note_on_c, 1, 55, 100
3, 37785, Note_on_c, 1, 55, 0
3, 37800, Note_on_c, 1, 58, 100
3, 38025, Note_on_c, 1, 58, 0
3, 38040, Note_on_c, 1, 51, 100
3, 38265, Note_on_c, 1, 51, 0
3, 38280, Note_on_c, 1, 55, 100
3, 38505, Note_on_c, 1, 55, 0
3, 38520, Note_on_c, 1, 45, 100
3, 38745, Note_on_c, 1, 45, 0
3, 38760, Note_on_c, 1, 54, 100
3, 38985, Note_on_c, 1, 54, 0
3, 39000, Note_on_c, 1, 55, 100
3, 39225, Note_on_c, 1, 55, 0
3, 39240, Note_on_c, 1, 43, 100
3, 39465, Note_on_c, 1, 43, 0
3, 39480, Note_on_c, 1, 50, 100
3, 39705, Note_on_c, 1, 50, 0
3, 39720, Note_on_c, 1, 57, 100
3, 39945, Note_on_c, 1, 57, 0
3, 39960, Note_on_c, 1, 60, 100
3, 40185, Note_on_c, 1, 60, 0
3, 40200, Note_on_c, 1, 50, 100
3, 40425, Note_on_c, 1, 50, 0
3, 40440, Note_on_c, 1, 55, 100
3, 40665, Note_on_c, 1, 55, 0
3, 40680, Note_on_c, 1, 57, 100
3, 40905, Note_on_c, 1, 57, 0
3, 40920, Note_on_c, 1, 58, 100
3, 41145, Note_on_c, 1, 58, 0
3, 41160, Note_on_c, 1, 59, 100
3, 41385, Note_on_c, 1, 59, 0
3, 41400, Note_on_c, 1, 60, 100
3, 41625, Note_on_c, 1, 60, 0
3, 41640, Note_on_c, 1, 62, 100
3, 41865, Note_on_c, 1, 62, 0
3, 41880, Note_on_c, 1, 63, 100
3, 42105, Note_on_c, 1, 63, 0
3, 42120, Note_on_c, 1, 60, 100
3, 42345, Note_on_c, 1, 60, 0
3, 42360, Note_on_c, 1, 57, 100
3, 42585, Note_on_c, 1, 57, 0
3, 42600, Note_on_c, 1, 55, 100
3, 42825, Note_on_c, 1, 55, 0
3, 42840, Note_on_c, 1, 62, 100
3, 43065, Note_on_c, 1, 62, 0
3, 43080, Note_on_c, 1, 50, 100
3, 43305, Note_on_c, 1, 50, 0
3, 43320, Note_on_c, 1, 55, 100
3, 43545, Note_on_c, 1, 55, 0
3, 43560, Note_on_c, 1, 57, 100
3, 43785, Note_on_c, 1, 57, 0
3, 43800, Note_on_c, 1, 59, 100
3, 44025, Note_on_c, 1, 59, 0
3, 44040, Note_on_c, 1, 55, 100
3, 44265, Note_on_c, 1, 55, 0
3, 44280, Note_on_c, 1, 60, 100
3, 44505, Note_on_c, 1, 60, 0
3, 44520, Note_on_c, 1, 63, 100
3, 44745, Note_on_c, 1, 63, 0
3, 44760, Note_on_c, 1, 60, 100
3, 44985, Note_on_c, 1, 60, 0
3, 45000, Note_on_c, 1, 57, 100
3, 45225, Note_on_c, 1, 57, 0
3, 45240, Note_on_c, 1, 58, 100
3, 45465, Note_on_c, 1, 58, 0
3, 45480, Note_on_c, 1, 62, 100
3, 45705, Note_on_c, 1, 62, 0
3, 45720, Note_on_c, 1, 58, 100
3, 45945, Note_on_c, 1, 58, 0
3, 45960, Note_on_c, 1, 55, 100
3, 46185, Note_on_c, 1, 55, 0
3, 46200, Note_on_c, 1, 57, 100
3, 46425, Note_on_c, 1, 57, 0
3, 46440, Note_on_c, 1, 60, 100
3, 46665, Note_on_c, 1, 60, 0
3, 46680, Note_on_c, 1, 57, 100
3, 46905, Note_on_c, 1, 57, 0
3, 46920, Note_on_c, 1, 54, 100
3, 47145, Note_on_c, 1, 54, 0
3, 47160, Note_on_c, 1, 55, 100
3, 47385, Note_on_c, 1, 55, 0
3, 47400, Note_on_c, 1, 58, 100
3, 47625, Note_on_c, 1, 58, 0
3, 47640, Note_on_c, 1, 55, 100
3, 47865, Note_on_c, 1, 55, 0
3, 47880, Note_on_c, 1, 51, 100
3, 48105, Note_on_c, 1, 51, 0
3, 48120, Note_on_c, 1, 48, 100
3, 48225, Note_on_c, 1, 48, 0
3, 48240, Note_on_c, 1, 50, 100
3, 48292, Note_on_c, 1, 50, 0
3, 48300, Note_on_c, 1, 51, 100
3, 48352, Note_on_c, 1, 51, 0
3, 48360, Note_on_c, 1, 53, 100
3, 48412, Note_on_c, 1, 53, 0
3, 48420, Note_on_c, 1, 55, 100
3, 48472, Note_on_c, 1, 55, 0
3, 48480, Note_on_c, 1, 56, 100
3, 48532, Note_on_c, 1, 56, 0
3, 48540, Note_on_c, 1, 58, 100
3, 48592, Note_on_c, 1, 58, 0
3, 48600, Note_on_c, 1, 60, 100
3, 48705, Note_on_c, 1, 60, 0
3, 48720, Note_on_c, 1, 48, 100
3, 48825, Note_on_c, 1, 48, 0
3, 48840, Note_on_c, 1, 60, 100
3, 49132, Note_on_c, 1, 60, 0
3, 49140, Note_on_c, 1, 48, 100
3, 49192, Note_on_c, 1, 48, 0
3, 49200, Note_on_c, 1, 50, 100
3, 49252, Note_on_c, 1, 50, 0
3, 49260, Note_on_c, 1, 51, 100
3, 49312, Note_on_c, 1, 51, 0
3, 49320, Note_on_c, 1, 53, 100
3, 49372, Note_on_c, 1, 53, 0
3, 49380, Note_on_c, 1, 55, 100
3, 49432, Note_on_c, 1, 55, 0
3, 49440, Note_on_c, 1, 56, 100
3, 49492, Note_on_c, 1, 56, 0
3, 49500, Note_on_c, 1, 58, 100
3, 49552, Note_on_c, 1, 58, 0
3, 49560, Note_on_c, 1, 60, 100
3, 49665, Note_on_c, 1, 60, 0
3, 49680, Note_on_c, 1, 48, 100
3, 49785, Note_on_c, 1, 48, 0
3, 49800, Note_on_c, 1, 60, 100
3, 50265, Note_on_c, 1, 60, 0
3, 50280, Note_on_c, 1, 48, 100
3, 50505, Note_on_c, 1, 48, 0
3, 50520, Note_on_c, 1, 46, 100
3, 50745, Note_on_c, 1, 46, 0
3, 50760, Note_on_c, 1, 58, 100
3, 50985, Note_on_c, 1, 58, 0
3, 51000, Note_on_c, 1, 54, 100
3, 51225, Note_on_c, 1, 54, 0
3, 51240, Note_on_c, 1, 50, 100
3, 51465, Note_on_c, 1, 50, 0
3, 51480, Note_on_c, 1, 55, 100
3, 51705, Note_on_c, 1, 55, 0
3, 51720, Note_on_c, 1, 51, 100
3, 51945, Note_on_c, 1, 51, 0
3, 51960, Note_on_c, 1, 49, 100
3, 51960, Note_on_c, 1, 52, 100
3, 51960, Note_on_c, 1, 55, 100
3, 52425, Note_on_c, 1, 55, 0
3, 52425, Note_on_c, 1, 52, 0
3, 52425, Note_on_c, 1, 49, 0
3, 52920, Note_on_c, 1, 50, 100
3, 52920, Note_on_c, 1, 55, 100
3, 52920, Note_on_c, 1, 58, 100
3, 52920, Note_on_c, 1, 62, 100
3, 53865, Note_on_c, 1, 62, 0
3, 53865, Note_on_c, 1, 58, 0
3, 53865, Note_on_c, 1, 55, 0
3, 53880, Note_on_c, 1, 61, 100
3, 54585, Note_on_c, 1, 50, 0
3, 54705, Note_on_c, 1, 61, 0
3, 54720, Note_on_c, 1, 61, 100
3, 54825, Note_on_c, 1, 61, 0
3, 54840, Note_on_c, 1, 62, 100
3, 55065, Note_on_c, 1, 62, 0
3, 55080, Note_on_c, 1, 60, 100
3, 55185, Note_on_c, 1, 60, 0
3, 55200, Note_on_c, 1, 58, 100
3, 55305, Note_on_c, 1, 58, 0
3, 55320, Note_on_c, 1, 57, 100
3, 55425, Note_on_c, 1, 57, 0
3, 55440, Note_on_c, 1, 58, 100
3, 55545, Note_on_c, 1, 58, 0
3, 55560, Note_on_c, 1, 60, 100
3, 55785, Note_on_c, 1, 60, 0
3, 55800, Note_on_c, 1, 43, 100
3, 55800, Note_on_c, 1, 55, 100
3, 55800, Note_on_c, 1, 59, 100
3, 55852, Note_on_c, 1, 59, 0
3, 55852, Note_on_c, 1, 55, 0
3, 55852, Note_on_c, 1, 43, 0
3, 55852, End_track
4, 0, Start_track
4, 0, MIDI_port, 0
4, 0, Program_c, 2, 42
4, 0, Control_c, 2, 7, 120
4, 0, Control_c, 2, 10, 30
4, 127, Note_on_c, 2, 60, 116
4, 592, Note_on_c, 2, 60, 0
4, 1090, Note_on_c, 2, 56, 98
4, 1092, Note_on_c, 2, 59, 98
4, 1555, Note_on_c, 2, 56, 0
4, 1557, Note_on_c, 2, 59, 0
4, 2520, Note_on_c, 2, 59, 90
4, 2985, Note_on_c, 2, 59, 0
4, 3015, Note_on_c, 2, 60, 99
4, 3480, Note_on_c, 2, 60, 0
4, 3968, Note_on_c, 2, 60, 101
4, 4433, Note_on_c, 2, 60, 0
4, 5400, Note_on_c, 2, 60, 96
4, 5865, Note_on_c, 2, 60, 0
4, 5890, Note_on_c, 2, 60, 99
4, 6355, Note_on_c, 2, 60, 0
4, 6960, Note_on_c, 2, 56, 90
4, 7065, Note_on_c, 2, 56, 0
4, 7080, Note_on_c, 2, 56, 95
4, 7245, Note_on_c, 2, 56, 0
4, 7260, Note_on_c, 2, 55, 90
4, 7312, Note_on_c, 2, 55, 0
4, 7320, Note_on_c, 2, 55, 97
4, 7785, Note_on_c, 2, 55, 0
4, 7920, Note_on_c, 2, 55, 90
4, 8025, Note_on_c, 2, 55, 0
4, 8040, Note_on_c, 2, 55, 99
4, 8205, Note_on_c, 2, 55, 0
4, 8220, Note_on_c, 2, 53, 90
4, 8272, Note_on_c, 2, 53, 0
4, 8280, Note_on_c, 2, 53, 80
4, 9225, Note_on_c, 2, 53, 0
4, 9360, Note_on_c, 2, 53, 111
4, 9465, Note_on_c, 2, 53, 0
4, 9480, Note_on_c, 2, 53, 110
4, 9645, Note_on_c, 2, 53, 0
4, 9660, Note_on_c, 2, 55, 110
4, 9712, Note_on_c, 2, 55, 0
4, 9720, Note_on_c, 2, 56, 109
4, 10065, Note_on_c, 2, 56, 0
4, 10080, Note_on_c, 2, 56, 110
4, 10305, Note_on_c, 2, 56, 0
4, 10320, Note_on_c, 2, 55, 111
4, 10372, Note_on_c, 2, 55, 0
4, 10380, Note_on_c, 2, 53, 111
4, 10432, Note_on_c, 2, 53, 0
4, 10440, Note_on_c, 2, 55, 111
4, 10545, Note_on_c, 2, 55, 0
4, 10560, Note_on_c, 2, 50, 111
4, 10665, Note_on_c, 2, 50, 0
4, 10680, Note_on_c, 2, 51, 112
4, 11145, Note_on_c, 2, 51, 0
4, 12130, Note_on_c, 2, 57, 99
4, 12595, Note_on_c, 2, 57, 0
4, 12615, Note_on_c, 2, 55, 106
4, 13442, Note_on_c, 2, 55, 0
4, 13442, End_track
5, 0, Start_track
5, 0, MIDI_port, 0
5, 0, Program_c, 3, 43
5, 0, Control_c, 3, 7, 120
5, 0, Control_c, 3, 10, 90
5, 124, Note_on_c, 3, 51, 109
5, 127, Note_on_c, 3, 55, 109
5, 589, Note_on_c, 3, 51, 0
5, 592, Note_on_c, 3, 55, 0
5, 1085, Note_on_c, 3, 50, 100
5, 1085, Note_on_c, 3, 53, 100
5, 1550, Note_on_c, 3, 53, 0
5, 1550, Note_on_c, 3, 50, 0
5, 2520, Note_on_c, 3, 50, 90
5, 2520, Note_on_c, 3, 53, 90
5, 2985, Note_on_c, 3, 53, 0
5, 2985, Note_on_c, 3, 50, 0
5, 3005, Note_on_c, 3, 51, 100
5, 3010, Note_on_c, 3, 55, 100
5, 3470, Note_on_c, 3, 51, 0
5, 3475, Note_on_c, 3, 55, 0
5, 3960, Note_on_c, 3, 52, 100
5, 3960, Note_on_c, 3, 55, 100
5, 4425, Note_on_c, 3, 55, 0
5, 4425, Note_on_c, 3, 52, 0
5, 5400, Note_on_c, 3, 55, 96
5, 5865, Note_on_c, 3, 55, 0
5, 5886, Note_on_c, 3, 53, 100
5, 5888, Note_on_c, 3, 56, 100
5, 6351, Note_on_c, 3, 53, 0
5, 6353, Note_on_c, 3, 56, 0
5, 6960, Note_on_c, 3, 50, 90
5, 7065, Note_on_c, 3, 50, 0
5, 7080, Note_on_c, 3, 50, 98
5, 7245, Note_on_c, 3, 50, 0
5, 7260, Note_on_c, 3, 50, 90
5, 7312, Note_on_c, 3, 50, 0
5, 7320, Note_on_c, 3, 50, 96
5, 7785, Note_on_c, 3, 50, 0
5, 7920, Note_on_c, 3, 48, 90
5, 8025, Note_on_c, 3, 48, 0
5, 8040, Note_on_c, 3, 48, 96
5, 8205, Note_on_c, 3, 48, 0
5, 8220, Note_on_c, 3, 48, 90
5, 8272, Note_on_c, 3, 48, 0
5, 8280, Note_on_c, 3, 48, 81
5, 8745, Note_on_c, 3, 48, 0
5, 8760, Note_on_c, 3, 50, 90
5, 9225, Note_on_c, 3, 50, 0
5, 9360, Note_on_c, 3, 50, 108
5, 9465, Note_on_c, 3, 50, 0
5, 9480, Note_on_c, 3, 50, 109
5, 9645, Note_on_c, 3, 50, 0
5, 9660, Note_on_c, 3, 51, 110
5, 9712, Note_on_c, 3, 51, 0
5, 9720, Note_on_c, 3, 53, 112
5, 10065, Note_on_c, 3, 53, 0
5, 10080, Note_on_c, 3, 53, 90
5, 10185, Note_on_c, 3, 53, 0
5, 10200, Note_on_c, 3, 47, 90
5, 10545, Note_on_c, 3, 47, 0
5, 10560, Note_on_c, 3, 47, 90
5, 10665, Note_on_c, 3, 47, 0
5, 10680, Note_on_c, 3, 48, 90
5, 11145, Note_on_c, 3, 48, 0
5, 12126, Note_on_c, 3, 51, 99
5, 12126, Note_on_c, 3, 48, 99
5, 12591, Note_on_c, 3, 48, 0
5, 12591, Note_on_c, 3, 51, 0
5, 12608, Note_on_c, 3, 50, 111
5, 13440, Note_on_c, 3, 50, 0
5, 13440, End_track
6, 0, Start_track
6, 0, MIDI_port, 0
6, 0, Program_c, 4, 19
6, 0, Control_c, 4, 7, 120
6, 0, Control_c, 4, 10, 64
6, 120, Note_on_c, 4, 48, 111
6, 585, Note_on_c, 4, 48, 0
6, 1080, Note_on_c, 4, 48, 99
6, 1545, Note_on_c, 4, 48, 0
6, 2520, Note_on_c, 4, 48, 90
6, 2985, Note_on_c, 4, 48, 0
6, 3000, Note_on_c, 4, 48, 100
6, 3465, Note_on_c, 4, 48, 0
6, 3960, Note_on_c, 4, 48, 99
6, 4425, Note_on_c, 4, 48, 0
6, 5400, Note_on_c, 4, 48, 96
6, 5865, Note_on_c, 4, 48, 0
6, 5880, Note_on_c, 4, 48, 102
6, 6345, Note_on_c, 4, 48, 0
6, 6960, Note_on_c, 4, 48, 90
6, 7065, Note_on_c, 4, 48, 0
6, 7080, Note_on_c, 4, 48, 97
6, 7245, Note_on_c, 4, 48, 0
6, 7260, Note_on_c, 4, 46, 90
6, 7312, Note_on_c, 4, 46, 0
6, 7320, Note_on_c, 4, 46, 96
6, 7785, Note_on_c, 4, 46, 0
6, 7918, Control_c, 4, 7, 119
6, 7920, Note_on_c, 4, 46, 90
6, 8025, Note_on_c, 4, 46, 0
6, 8040, Note_on_c, 4, 46, 97
6, 8205, Note_on_c, 4, 46, 0
6, 8220, Note_on_c, 4, 44, 96
6, 8272, Note_on_c, 4, 44, 0
6, 8280, Note_on_c, 4, 44, 75
6, 8280, Control_c, 4, 7, 127
6, 8280, Control_c, 4, 10, 100
6, 8284, Control_c, 4, 10, 121
6, 8288, Note_on_c, 4, 44, 0
6, 8289, Note_on_c, 4, 46, 75
6, 8297, Note_on_c, 4, 46, 0
6, 8299, Note_on_c, 4, 44, 75
6, 8307, Note_on_c, 4, 44, 0
6, 8310, Note_on_c, 4, 46, 75
6, 8318, Note_on_c, 4, 46, 0
6, 8319, Note_on_c, 4, 44, 75
6, 8327, Note_on_c, 4, 44, 0
6, 8329, Note_on_c, 4, 46, 75
6, 8337, Note_on_c, 4, 46, 0
6, 8340, Note_on_c, 4, 44, 75
6, 8348, Note_on_c, 4, 44, 0
6, 8349, Note_on_c, 4, 46, 75
6, 8357, Note_on_c, 4, 46, 0
6, 8359, Note_on_c, 4, 44, 75
6, 8367, Note_on_c, 4, 44, 0
6, 8370, Note_on_c, 4, 46, 75
6, 8378, Note_on_c, 4, 46, 0
6, 8379, Note_on_c, 4, 44, 75
6, 8387, Note_on_c, 4, 44, 0
6, 8389, Note_on_c, 4, 46, 75
6, 8397, Note_on_c, 4, 46, 0
6, 8400, Note_on_c, 4, 44, 75
6, 8408, Note_on_c, 4, 44, 0
6, 8409, Note_on_c, 4, 46, 75
6, 8417, Note_on_c, 4, 46, 0
6, 8419, Note_on_c, 4, 44, 75
6, 8427, Note_on_c, 4, 44, 0
6, 8430, Note_on_c, 4, 46, 74
6, 8438, Note_on_c, 4, 46, 0
6, 8439, Note_on_c, 4, 44, 74
6, 8447, Note_on_c, 4, 44, 0
6, 8449, Note_on_c, 4, 46, 74
6, 8457, Note_on_c, 4, 46, 0
6, 8460, Note_on_c, 4, 44, 74
6, 8468, Note_on_c, 4, 44, 0
6, 8469, Note_on_c, 4, 46, 74
6, 8477, Note_on_c, 4, 46, 0
6, 8479, Note_on_c, 4, 44, 74
6, 8487, Note_on_c, 4, 44, 0
6, 8490, Note_on_c, 4, 46, 74
6, 8498, Note_on_c, 4, 46, 0
6, 8499, Note_on_c, 4, 44, 74
6, 8507, Note_on_c, 4, 44, 0
6, 8509, Note_on_c, 4, 46, 74
6, 8517, Note_on_c, 4, 46, 0
6, 8520, Note_on_c, 4, 44, 74
6, 8528, Note_on_c, 4, 44, 0
6, 8529, Note_on_c, 4, 46, 74
6, 8537, Note_on_c, 4, 46, 0
6, 8539, Note_on_c, 4, 44, 74
6, 8547, Note_on_c, 4, 44, 0
6, 8550, Note_on_c, 4, 46, 74
6, 8558, Note_on_c, 4, 46, 0
6, 8559, Note_on_c, 4, 44, 74
6, 8567, Note_on_c, 4, 44, 0
6, 8569, Note_on_c, 4, 46, 74
6, 8577, Note_on_c, 4, 46, 0
6, 8580, Note_on_c, 4, 44, 74
6, 8588, Note_on_c, 4, 44, 0
6, 8589, Note_on_c, 4, 46, 74
6, 8597, Note_on_c, 4, 46, 0
6, 8599, Note_on_c, 4, 44, 74
6, 8607, Note_on_c, 4, 44, 0
6, 8610, Note_on_c, 4, 46, 74
6, 8618, Note_on_c, 4, 46, 0
6, 8619, Note_on_c, 4, 44, 74
6, 8627, Note_on_c, 4, 44, 0
6, 8629, Note_on_c, 4, 46, 74
6, 8637, Note_on_c, 4, 46, 0
6, 8640, Note_on_c, 4, 44, 75
6, 8648, Note_on_c, 4, 44, 0
6, 8649, Note_on_c, 4, 46, 75
6, 8657, Note_on_c, 4, 46, 0
6, 8659, Note_on_c, 4, 44, 75
6, 8667, Note_on_c, 4, 44, 0
6, 8670, Note_on_c, 4, 46, 74
6, 8678, Note_on_c, 4, 46, 0
6, 8679, Note_on_c, 4, 44, 74
6, 8687, Note_on_c, 4, 44, 0
6, 8689, Note_on_c, 4, 46, 74
6, 8697, Note_on_c, 4, 46, 0
6, 8700, Note_on_c, 4, 44, 74
6, 8708, Note_on_c, 4, 44, 0
6, 8709, Note_on_c, 4, 46, 74
6, 8717, Note_on_c, 4, 46, 0
6, 8719, Note_on_c, 4, 44, 74
6, 8727, Note_on_c, 4, 44, 0
6, 8730, Note_on_c, 4, 46, 74
6, 8738, Note_on_c, 4, 46, 0
6, 8739, Note_on_c, 4, 44, 74
6, 8747, Note_on_c, 4, 44, 0
6, 8749, Note_on_c, 4, 46, 75
6, 8757, Note_on_c, 4, 46, 0
6, 8760, Note_on_c, 4, 43, 75
6, 8760, Control_c, 4, 7, 119
6, 8760, Control_c, 4, 10, 63
6, 9225, Note_on_c, 4, 43, 0
6, 10200, Note_on_c, 4, 43, 90
6, 10665, Note_on_c, 4, 43, 0
6, 10680, Note_on_c, 4, 43, 90
6, 11145, Note_on_c, 4, 43, 0
6, 12120, Note_on_c, 4, 43, 99
6, 12585, Note_on_c, 4, 43, 0
6, 12600, Note_on_c, 4, 43, 113
6, 13440, Note_on_c, 4, 43, 0
6, 13440, End_track
7, 0, Start_track
7, 0, MIDI_port, 0
7, 0, Program_c, 5, 11
7, 0, Control_c, 5, 7, 78
7, 0, Control_c, 5, 10, 40
7, 120, Note_on_c, 5, 48, 112
7, 585, Note_on_c, 5, 48, 0
7, 1080, Note_on_c, 5, 48, 99
7, 1545, Note_on_c, 5, 48, 0
7, 2520, Note_on_c, 5, 48, 90
7, 2985, Note_on_c, 5, 48, 0
7, 3000, Note_on_c, 5, 48, 100
7, 3465, Note_on_c, 5, 48, 0
7, 3960, Note_on_c, 5, 48, 99
7, 4425, Note_on_c, 5, 48, 0
7, 5400, Note_on_c, 5, 48, 96
7, 5865, Note_on_c, 5, 48, 0
7, 5880, Note_on_c, 5, 48, 102
7, 6345, Note_on_c, 5, 48, 0
7, 6960, Note_on_c, 5, 48, 90
7, 7065, Note_on_c, 5, 48, 0
7, 7080, Note_on_c, 5, 48, 97
7, 7245, Note_on_c, 5, 48, 0
7, 7260, Note_on_c, 5, 46, 90
7, 7312, Note_on_c, 5, 46, 0
7, 7320, Note_on_c, 5, 46, 96
7, 7785, Note_on_c, 5, 46, 0
7, 7918, Control_c, 5, 7, 119
7, 7920, Note_on_c, 5, 46, 90
7, 8025, Note_on_c, 5, 46, 0
7, 8040, Note_on_c, 5, 46, 91
7, 8205, Note_on_c, 5, 46, 0
7, 8220, Note_on_c, 5, 44, 89
7, 8272, Note_on_c, 5, 44, 0
7, 8280, Note_on_c, 5, 44, 101
7, 8282, Control_c, 5, 7, 100
7, 8284, Control_c, 5, 10, 40
7, 8288, Note_on_c, 5, 44, 0
7, 8289, Note_on_c, 5, 46, 101
7, 8297, Note_on_c, 5, 46, 0
7, 8299, Note_on_c, 5, 44, 101
7, 8307, Note_on_c, 5, 44, 0
7, 8310, Note_on_c, 5, 46, 101
7, 8318, Note_on_c, 5, 46, 0
7, 8319, Note_on_c, 5, 44, 101
7, 8327, Note_on_c, 5, 44, 0
7, 8329, Note_on_c, 5, 46, 101
7, 8337, Note_on_c, 5, 46, 0
7, 8340, Note_on_c, 5, 44, 101
7, 8348, Note_on_c, 5, 44, 0
7, 8349, Note_on_c, 5, 46, 101
7, 8357, Note_on_c, 5, 46, 0
7, 8359, Note_on_c, 5, 44, 101
7, 8367, Note_on_c, 5, 44, 0
7, 8370, Note_on_c, 5, 46, 102
7, 8378, Note_on_c, 5, 46, 0
7, 8379, Note_on_c, 5, 44, 102
7, 8387, Note_on_c, 5, 44, 0
7, 8389, Note_on_c, 5, 46, 103
7, 8397, Note_on_c, 5, 46, 0
7, 8400, Note_on_c, 5, 44, 104
7, 8408, Note_on_c, 5, 44, 0
7, 8409, Note_on_c, 5, 46, 104
7, 8417, Note_on_c, 5, 46, 0
7, 8419, Note_on_c, 5, 44, 104
7, 8427, Note_on_c, 5, 44, 0
7, 8430, Note_on_c, 5, 46, 104
7, 8438, Note_on_c, 5, 46, 0
7, 8439, Note_on_c, 5, 44, 104
7, 8447, Note_on_c, 5, 44, 0
7, 8449, Note_on_c, 5, 46, 103
7, 8457, Note_on_c, 5, 46, 0
7, 8460, Note_on_c, 5, 44, 103
7, 8468, Note_on_c, 5, 44, 0
7, 8469, Note_on_c, 5, 46, 103
7, 8477, Note_on_c, 5, 46, 0
7, 8479, Note_on_c, 5, 44, 103
7, 8487, Note_on_c, 5, 44, 0
7, 8490, Note_on_c, 5, 46, 104
7, 8498, Note_on_c, 5, 46, 0
7, 8499, Note_on_c, 5, 44, 104
7, 8507, Note_on_c, 5, 44, 0
7, 8509, Note_on_c, 5, 46, 105
7, 8517, Note_on_c, 5, 46, 0
7, 8520, Note_on_c, 5, 44, 105
7, 8528, Note_on_c, 5, 44, 0
7, 8529, Note_on_c, 5, 46, 105
7, 8537, Note_on_c, 5, 46, 0
7, 8539, Note_on_c, 5, 44, 105
7, 8547, Note_on_c, 5, 44, 0
7, 8550, Note_on_c, 5, 46, 105
7, 8558, Note_on_c, 5, 46, 0
7, 8559, Note_on_c, 5, 44, 105
7, 8567, Note_on_c, 5, 44, 0
7, 8569, Note_on_c, 5, 46, 105
7, 8577, Note_on_c, 5, 46, 0
7, 8580, Note_on_c, 5, 44, 105
7, 8588, Note_on_c, 5, 44, 0
7, 8589, Note_on_c, 5, 46, 105
7, 8597, Note_on_c, 5, 46, 0
7, 8599, Note_on_c, 5, 44, 103
7, 8607, Note_on_c, 5, 44, 0
7, 8610, Note_on_c, 5, 46, 102
7, 8618, Note_on_c, 5, 46, 0
7, 8619, Note_on_c, 5, 44, 102
7, 8627, Note_on_c, 5, 44, 0
7, 8629, Note_on_c, 5, 46, 103
7, 8637, Note_on_c, 5, 46, 0
7, 8640, Note_on_c, 5, 44, 103
7, 8648, Note_on_c, 5, 44, 0
7, 8649, Note_on_c, 5, 46, 103
7, 8657, Note_on_c, 5, 46, 0
7, 8659, Note_on_c, 5, 44, 103
7, 8667, Note_on_c, 5, 44, 0
7, 8670, Note_on_c, 5, 46, 103
7, 8678, Note_on_c, 5, 46, 0
7, 8679, Note_on_c, 5, 44, 103
7, 8687, Note_on_c, 5, 44, 0
7, 8689, Note_on_c, 5, 46, 104
7, 8697, Note_on_c, 5, 46, 0
7, 8700, Note_on_c, 5, 44, 105
7, 8708, Note_on_c, 5, 44, 0
7, 8709, Note_on_c, 5, 46, 105
7, 8717, Note_on_c, 5, 46, 0
7, 8719, Note_on_c, 5, 44, 105
7, 8727, Note_on_c, 5, 44, 0
7, 8730, Note_on_c, 5, 46, 107
7, 8738, Note_on_c, 5, 46, 0
7, 8739, Note_on_c, 5, 44, 107
7, 8747, Note_on_c, 5, 44, 0
7, 8749, Note_on_c, 5, 46, 107
7, 8757, Note_on_c, 5, 46, 0
7, 8760, Note_on_c, 5, 43, 107
7, 8760, Control_c, 5, 7, 119
7, 8760, Control_c, 5, 10, 63
7, 8762, Control_c, 5, 7, 51
7, 9225, Note_on_c, 5, 43, 0
7, 10200, Note_on_c, 5, 43, 90
7, 10665, Note_on_c, 5, 43, 0
7, 10680, Note_on_c, 5, 43, 90
7, 11145, Note_on_c, 5, 43, 0
7, 12120, Note_on_c, 5, 43, 100
7, 12585, Note_on_c, 5, 43, 0
7, 12600, Note_on_c, 5, 43, 112
7, 13440, Note_on_c, 5, 43, 0
7, 13440, End_track
8, 0, Start_track
8, 0, MIDI_port, 0
8, 0, Program_c, 6, 3
8, 0, Control_c, 6, 7, 127
8, 0, Control_c, 6, 10, 10
8, 55850, Program_c, 6, 3
8, 55852, Control_c, 6, 10, 10
8, 55854, Control_c, 6, 7, 127
8, 55860, Note_on_c, 6, 67, 120
8, 55886, Note_on_c, 6, 67, 0
8, 55890, Note_on_c, 6, 69, 120
8, 55916, Note_on_c, 6, 69, 0
8, 55920, Note_on_c, 6, 71, 120
8, 55972, Note_on_c, 6, 71, 0
8, 55980, Note_on_c, 6, 72, 120
8, 56032, Note_on_c, 6, 72, 0
8, 56040, Note_on_c, 6, 74, 120
8, 56092, Note_on_c, 6, 74, 0
8, 56100, Note_on_c, 6, 75, 120
8, 56152, Note_on_c, 6, 75, 0
8, 56160, Note_on_c, 6, 77, 120
8, 56186, Note_on_c, 6, 77, 0
8, 56190, Note_on_c, 6, 75, 120
8, 56216, Note_on_c, 6, 75, 0
8, 56220, Note_on_c, 6, 74, 120
8, 56246, Note_on_c, 6, 74, 0
8, 56250, Note_on_c, 6, 75, 120
8, 56276, Note_on_c, 6, 75, 0
8, 56280, Note_on_c, 6, 77, 120
8, 56332, Note_on_c, 6, 77, 0
8, 56340, Note_on_c, 6, 79, 120
8, 56392, Note_on_c, 6, 79, 0
8, 56400, Note_on_c, 6, 80, 120
8, 56452, Note_on_c, 6, 80, 0
8, 56460, Note_on_c, 6, 74, 120
8, 56512, Note_on_c, 6, 74, 0
8, 56520, Note_on_c, 6, 77, 120
8, 56572, Note_on_c, 6, 77, 0
8, 56580, Note_on_c, 6, 71, 120
8, 56632, Note_on_c, 6, 71, 0
8, 56640, Note_on_c, 6, 74, 120
8, 56692, Note_on_c, 6, 74, 0
8, 56700, Note_on_c, 6, 67, 120
8, 56752, Note_on_c, 6, 67, 0
8, 56760, Note_on_c, 6, 79, 120
8, 56786, Note_on_c, 6, 79, 0
8, 56790, Note_on_c, 6, 77, 120
8, 56816, Note_on_c, 6, 77, 0
8, 56820, Note_on_c, 6, 75, 120
8, 56846, Note_on_c, 6, 75, 0
8, 56850, Note_on_c, 6, 74, 120
8, 56876, Note_on_c, 6, 74, 0
8, 56880, Note_on_c, 6, 75, 120
8, 56932, Note_on_c, 6, 75, 0
8, 56940, Note_on_c, 6, 84, 120
8, 57045, Note_on_c, 6, 84, 0
8, 57060, Note_on_c, 6, 82, 120
8, 57086, Note_on_c, 6, 82, 0
8, 57090, Note_on_c, 6, 80, 120
8, 57116, Note_on_c, 6, 80, 0
8, 57120, Note_on_c, 6, 79, 120
8, 57146, Note_on_c, 6, 79, 0
8, 57150, Note_on_c, 6, 77, 120
8, 57176, Note_on_c, 6, 77, 0
8, 57180, Note_on_c, 6, 75, 120
8, 57206, Note_on_c, 6, 75, 0
8, 57210, Note_on_c, 6, 74, 120
8, 57236, Note_on_c, 6, 74, 0
8, 57240, Note_on_c, 6, 72, 120
8, 57386, Note_on_c, 6, 72, 0
8, 57390, Note_on_c, 6, 74, 120
8, 57416, Note_on_c, 6, 74, 0
8, 57420, Note_on_c, 6, 76, 120
8, 57446, Note_on_c, 6, 76, 0
8, 57450, Note_on_c, 6, 77, 120
8, 57476, Note_on_c, 6, 77, 0
8, 57480, Note_on_c, 6, 79, 120
8, 57506, Note_on_c, 6, 79, 0
8, 57510, Note_on_c, 6, 80, 120
8, 57536, Note_on_c, 6, 80, 0
8, 57540, Note_on_c, 6, 82, 120
8, 57566, Note_on_c, 6, 82, 0
8, 57570, Note_on_c, 6, 79, 120
8, 57596, Note_on_c, 6, 79, 0
8, 57600, Note_on_c, 6, 76, 120
8, 57652, Note_on_c, 6, 76, 0
8, 57660, Note_on_c, 6, 85, 120
8, 57746, Note_on_c, 6, 85, 0
8, 57750, Note_on_c, 6, 79, 120
8, 57776, Note_on_c, 6, 79, 0
8, 57780, Note_on_c, 6, 80, 120
8, 57806, Note_on_c, 6, 80, 0
8, 57810, Note_on_c, 6, 82, 120
8, 57836, Note_on_c, 6, 82, 0
8, 57840, Note_on_c, 6, 80, 120
8, 57866, Note_on_c, 6, 80, 0
8, 57870, Note_on_c, 6, 79, 120
8, 57896, Note_on_c, 6, 79, 0
8, 57900, Note_on_c, 6, 77, 120
8, 57926, Note_on_c, 6, 77, 0
8, 57930, Note_on_c, 6, 76, 120
8, 57956, Note_on_c, 6, 76, 0
8, 57960, Note_on_c, 6, 77, 120
8, 57986, Note_on_c, 6, 77, 0
8, 57990, Note_on_c, 6, 79, 120
8, 58016, Note_on_c, 6, 79, 0
8, 58020, Note_on_c, 6, 80, 120
8, 58106, Note_on_c, 6, 80, 0
8, 58110, Note_on_c, 6, 79, 120
8, 58136, Note_on_c, 6, 79, 0
8, 58140, Note_on_c, 6, 77, 120
8, 58166, Note_on_c, 6, 77, 0
8, 58170, Note_on_c, 6, 75, 120
8, 58196, Note_on_c, 6, 75, 0
8, 58200, Note_on_c, 6, 74, 120
8, 58226, Note_on_c, 6, 74, 0
8, 58230, Note_on_c, 6, 72, 120
8, 58256, Note_on_c, 6, 72, 0
8, 58260, Note_on_c, 6, 74, 120
8, 58286, Note_on_c, 6, 74, 0
8, 58290, Note_on_c, 6, 77, 120
8, 58316, Note_on_c, 6, 77, 0
8, 58320, Note_on_c, 6, 75, 120
8, 58346, Note_on_c, 6, 75, 0
8, 58350, Note_on_c, 6, 77, 120
8, 58376, Note_on_c, 6, 77, 0
8, 58380, Note_on_c, 6, 79, 120
8, 58466, Note_on_c, 6, 79, 0
8, 58470, Note_on_c, 6, 77, 120
8, 58496, Note_on_c, 6, 77, 0
8, 58500, Note_on_c, 6, 75, 120
8, 58526, Note_on_c, 6, 75, 0
8, 58530, Note_on_c, 6, 74, 120
8, 58556, Note_on_c, 6, 74, 0
8, 58560, Note_on_c, 6, 72, 120
8, 58586, Note_on_c, 6, 72, 0
8, 58590, Note_on_c, 6, 71, 120
8, 58616, Note_on_c, 6, 71, 0
8, 58620, Note_on_c, 6, 72, 120
8, 58646, Note_on_c, 6, 72, 0
8, 58650, Note_on_c, 6, 75, 120
8, 58676, Note_on_c, 6, 75, 0
8, 58680, Note_on_c, 6, 74, 120
8, 58706, Note_on_c, 6, 74, 0
8, 58710, Note_on_c, 6, 80, 120
8, 58736, Note_on_c, 6, 80, 0
8, 58740, Note_on_c, 6, 74, 120
8, 58766, Note_on_c, 6, 74, 0
8, 58770, Note_on_c, 6, 72, 120
8, 58796, Note_on_c, 6, 72, 0
8, 58800, Note_on_c, 6, 74, 120
8, 58826, Note_on_c, 6, 74, 0
8, 58830, Note_on_c, 6, 75, 120
8, 58856, Note_on_c, 6, 75, 0
8, 58860, Note_on_c, 6, 77, 120
8, 58886, Note_on_c, 6, 77, 0
8, 58890, Note_on_c, 6, 79, 120
8, 58916, Note_on_c, 6, 79, 0
8, 58920, Note_on_c, 6, 77, 120
8, 58946, Note_on_c, 6, 77, 0
8, 58950, Note_on_c, 6, 75, 120
8, 58976, Note_on_c, 6, 75, 0
8, 58980, Note_on_c, 6, 74, 120
8, 59006, Note_on_c, 6, 74, 0
8, 59010, Note_on_c, 6, 72, 120
8, 59036, Note_on_c, 6, 72, 0
8, 59040, Note_on_c, 6, 71, 120
8, 59066, Note_on_c, 6, 71, 0
8, 59070, Note_on_c, 6, 79, 120
8, 59096, Note_on_c, 6, 79, 0
8, 59100, Note_on_c, 6, 77, 120
8, 59126, Note_on_c, 6, 77, 0
8, 59130, Note_on_c, 6, 75, 120
8, 59156, Note_on_c, 6, 75, 0
8, 59160, Note_on_c, 6, 74, 120
8, 59186, Note_on_c, 6, 74, 0
8, 59190, Note_on_c, 6, 77, 120
8, 59216, Note_on_c, 6, 77, 0
8, 59220, Note_on_c, 6, 74, 120
8, 59246, Note_on_c, 6, 74, 0
8, 59250, Note_on_c, 6, 72, 120
8, 59276, Note_on_c, 6, 72, 0
8, 59280, Note_on_c, 6, 71, 120
8, 59306, Note_on_c, 6, 71, 0
8, 59310, Note_on_c, 6, 74, 120
8, 59336, Note_on_c, 6, 74, 0
8, 59340, Note_on_c, 6, 71, 120
8, 59366, Note_on_c, 6, 71, 0
8, 59370, Note_on_c, 6, 69, 120
8, 59396, Note_on_c, 6, 69, 0
8, 59400, Note_on_c, 6, 67, 120
8, 59426, Note_on_c, 6, 67, 0
8, 59430, Note_on_c, 6, 69, 120
8, 59456, Note_on_c, 6, 69, 0
8, 59460, Note_on_c, 6, 71, 120
8, 59486, Note_on_c, 6, 71, 0
8, 59490, Note_on_c, 6, 72, 120
8, 59516, Note_on_c, 6, 72, 0
8, 59520, Note_on_c, 6, 74, 120
8, 59546, Note_on_c, 6, 74, 0
8, 59550, Note_on_c, 6, 72, 120
8, 59576, Note_on_c, 6, 72, 0
8, 59580, Note_on_c, 6, 71, 120
8, 59606, Note_on_c, 6, 71, 0
8, 59610, Note_on_c, 6, 72, 120
8, 59636, Note_on_c, 6, 72, 0
8, 59640, Note_on_c, 6, 74, 120
8, 59666, Note_on_c, 6, 74, 0
8, 59670, Note_on_c, 6, 75, 120
8, 59696, Note_on_c, 6, 75, 0
8, 59700, Note_on_c, 6, 77, 120
8, 59726, Note_on_c, 6, 77, 0
8, 59730, Note_on_c, 6, 74, 120
8, 59756, Note_on_c, 6, 74, 0
8, 59760, Note_on_c, 6, 71, 120
8, 59786, Note_on_c, 6, 71, 0
8, 59790, Note_on_c, 6, 72, 120
8, 59816, Note_on_c, 6, 72, 0
8, 59820, Note_on_c, 6, 74, 120
8, 59846, Note_on_c, 6, 74, 0
8, 59850, Note_on_c, 6, 75, 120
8, 59876, Note_on_c, 6, 75, 0
8, 59880, Note_on_c, 6, 77, 120
8, 59906, Note_on_c, 6, 77, 0
8, 59910, Note_on_c, 6, 80, 120
8, 59936, Note_on_c, 6, 80, 0
8, 59940, Note_on_c, 6, 79, 120
8, 59966, Note_on_c, 6, 79, 0
8, 59970, Note_on_c, 6, 77, 120
8, 59996, Note_on_c, 6, 77, 0
8, 60000, Note_on_c, 6, 75, 120
8, 60026, Note_on_c, 6, 75, 0
8, 60030, Note_on_c, 6, 74, 120
8, 60056, Note_on_c, 6, 74, 0
8, 60060, Note_on_c, 6, 72, 120
8, 60086, Note_on_c, 6, 72, 0
8, 60090, Note_on_c, 6, 71, 120
8, 60116, Note_on_c, 6, 71, 0
8, 60120, Note_on_c, 6, 72, 120
8, 60146, Note_on_c, 6, 72, 0
8, 60150, Note_on_c, 6, 74, 120
8, 60176, Note_on_c, 6, 74, 0
8, 60180, Note_on_c, 6, 75, 120
8, 60206, Note_on_c, 6, 75, 0
8, 60210, Note_on_c, 6, 72, 120
8, 60236, Note_on_c, 6, 72, 0
8, 60240, Note_on_c, 6, 69, 120
8, 60292, Note_on_c, 6, 69, 0
8, 60300, Note_on_c, 6, 72, 120
8, 60352, Note_on_c, 6, 72, 0
8, 60360, Note_on_c, 6, 65, 120
8, 60412, Note_on_c, 6, 65, 0
8, 60420, Note_on_c, 6, 75, 120
8, 60472, Note_on_c, 6, 75, 0
8, 60480, Note_on_c, 6, 70, 120
8, 60506, Note_on_c, 6, 70, 0
8, 60510, Note_on_c, 6, 72, 120
8, 60536, Note_on_c, 6, 72, 0
8, 60540, Note_on_c, 6, 74, 120
8, 60566, Note_on_c, 6, 74, 0
8, 60570, Note_on_c, 6, 70, 120
8, 60596, Note_on_c, 6, 70, 0
8, 60600, Note_on_c, 6, 67, 120
8, 60652, Note_on_c, 6, 67, 0
8, 60660, Note_on_c, 6, 70, 120
8, 60712, Note_on_c, 6, 70, 0
8, 60720, Note_on_c, 6, 63, 120
8, 60772, Note_on_c, 6, 63, 0
8, 60780, Note_on_c, 6, 74, 120
8, 60832, Note_on_c, 6, 74, 0
8, 60840, Note_on_c, 6, 69, 120
8, 60866, Note_on_c, 6, 69, 0
8, 60870, Note_on_c, 6, 70, 120
8, 60896, Note_on_c, 6, 70, 0
8, 60900, Note_on_c, 6, 72, 120
8, 60926, Note_on_c, 6, 72, 0
8, 60930, Note_on_c, 6, 69, 120
8, 60956, Note_on_c, 6, 69, 0
8, 60960, Note_on_c, 6, 66, 120
8, 61012, Note_on_c, 6, 66, 0
8, 61020, Note_on_c, 6, 69, 120
8, 61072, Note_on_c, 6, 69, 0
8, 61080, Note_on_c, 6, 62, 120
8, 61132, Note_on_c, 6, 62, 0
8, 61140, Note_on_c, 6, 72, 120
8, 61192, Note_on_c, 6, 72, 0
8, 61200, Note_on_c, 6, 67, 120
8, 61226, Note_on_c, 6, 67, 0
8, 61230, Note_on_c, 6, 69, 120
8, 61256, Note_on_c, 6, 69, 0
8, 61260, Note_on_c, 6, 70, 120
8, 61286, Note_on_c, 6, 70, 0
8, 61290, Note_on_c, 6, 67, 120
8, 61316, Note_on_c, 6, 67, 0
8, 61320, Note_on_c, 6, 63, 120
8, 61346, Note_on_c, 6, 63, 0
8, 61350, Note_on_c, 6, 67, 120
8, 61376, Note_on_c, 6, 67, 0
8, 61380, Note_on_c, 6, 62, 120
8, 61406, Note_on_c, 6, 62, 0
8, 61410, Note_on_c, 6, 67, 120
8, 61436, Note_on_c, 6, 67, 0
8, 61440, Note_on_c, 6, 61, 120
8, 61466, Note_on_c, 6, 61, 0
8, 61470, Note_on_c, 6, 70, 120
8, 61496, Note_on_c, 6, 70, 0
8, 61500, Note_on_c, 6, 69, 120
8, 61526, Note_on_c, 6, 69, 0
8, 61530, Note_on_c, 6, 67, 120
8, 61556, Note_on_c, 6, 67, 0
8, 61560, Note_on_c, 6, 66, 120
8, 61586, Note_on_c, 6, 66, 0
8, 61590, Note_on_c, 6, 64, 120
8, 61616, Note_on_c, 6, 64, 0
8, 61620, Note_on_c, 6, 62, 120
8, 61646, Note_on_c, 6, 62, 0
8, 61650, Note_on_c, 6, 64, 120
8, 61676, Note_on_c, 6, 64, 0
8, 61680, Note_on_c, 6, 66, 120
8, 61732, Note_on_c, 6, 66, 0
8, 61740, Note_on_c, 6, 67, 120
8, 61792, Note_on_c, 6, 67, 0
8, 61800, Note_on_c, 6, 69, 120
8, 61852, Note_on_c, 6, 69, 0
8, 61860, Note_on_c, 6, 70, 120
8, 61912, Note_on_c, 6, 70, 0
8, 61920, Note_on_c, 6, 72, 120
8, 61946, Note_on_c, 6, 72, 0
8, 61950, Note_on_c, 6, 70, 120
8, 61976, Note_on_c, 6, 70, 0
8, 61980, Note_on_c, 6, 69, 120
8, 62006, Note_on_c, 6, 69, 0
8, 62010, Note_on_c, 6, 70, 120
8, 62036, Note_on_c, 6, 70, 0
8, 62040, Note_on_c, 6, 72, 120
8, 62092, Note_on_c, 6, 72, 0
8, 62100, Note_on_c, 6, 74, 120
8, 62152, Note_on_c, 6, 74, 0
8, 62160, Note_on_c, 6, 75, 120
8, 62212, Note_on_c, 6, 75, 0
8, 62220, Note_on_c, 6, 69, 120
8, 62272, Note_on_c, 6, 69, 0
8, 62280, Note_on_c, 6, 72, 120
8, 62332, Note_on_c, 6, 72, 0
8, 62340, Note_on_c, 6, 66, 120
8, 62392, Note_on_c, 6, 66, 0
8, 62400, Note_on_c, 6, 69, 120
8, 62452, Note_on_c, 6, 69, 0
8, 62460, Note_on_c, 6, 62, 120
8, 62512, Note_on_c, 6, 62, 0
8, 62520, Note_on_c, 6, 74, 120
8, 62546, Note_on_c, 6, 74, 0
8, 62550, Note_on_c, 6, 72, 120
8, 62576, Note_on_c, 6, 72, 0
8, 62580, Note_on_c, 6, 70, 120
8, 62606, Note_on_c, 6, 70, 0
8, 62610, Note_on_c, 6, 69, 120
8, 62636, Note_on_c, 6, 69, 0
8, 62640, Note_on_c, 6, 70, 120
8, 62666, Note_on_c, 6, 70, 0
8, 62670, Note_on_c, 6, 69, 120
8, 62696, Note_on_c, 6, 69, 0
8, 62700, Note_on_c, 6, 67, 120
8, 62726, Note_on_c, 6, 67, 0
8, 62730, Note_on_c, 6, 69, 120
8, 62756, Note_on_c, 6, 69, 0
8, 62760, Note_on_c, 6, 70, 120
8, 62812, Note_on_c, 6, 70, 0
8, 62820, Note_on_c, 6, 72, 120
8, 62872, Note_on_c, 6, 72, 0
8, 62880, Note_on_c, 6, 74, 120
8, 62932, Note_on_c, 6, 74, 0
8, 62940, Note_on_c, 6, 75, 120
8, 62992, Note_on_c, 6, 75, 0
8, 63000, Note_on_c, 6, 77, 120
8, 63026, Note_on_c, 6, 77, 0
8, 63030, Note_on_c, 6, 75, 120
8, 63056, Note_on_c, 6, 75, 0
8, 63060, Note_on_c, 6, 74, 120
8, 63086, Note_on_c, 6, 74, 0
8, 63090, Note_on_c, 6, 72, 120
8, 63116, Note_on_c, 6, 72, 0
8, 63120, Note_on_c, 6, 70, 120
8, 63146, Note_on_c, 6, 70, 0
8, 63150, Note_on_c, 6, 77, 120
8, 63176, Note_on_c, 6, 77, 0
8, 63180, Note_on_c, 6, 72, 120
8, 63206, Note_on_c, 6, 72, 0
8, 63210, Note_on_c, 6, 70, 120
8, 63236, Note_on_c, 6, 70, 0
8, 63240, Note_on_c, 6, 68, 120
8, 63266, Note_on_c, 6, 68, 0
8, 63270, Note_on_c, 6, 77, 120
8, 63296, Note_on_c, 6, 77, 0
8, 63300, Note_on_c, 6, 70, 120
8, 63326, Note_on_c, 6, 70, 0
8, 63330, Note_on_c, 6, 68, 120
8, 63356, Note_on_c, 6, 68, 0
8, 63360, Note_on_c, 6, 67, 120
8, 63386, Note_on_c, 6, 67, 0
8, 63390, Note_on_c, 6, 65, 120
8, 63416, Note_on_c, 6, 65, 0
8, 63420, Note_on_c, 6, 63, 120
8, 63446, Note_on_c, 6, 63, 0
8, 63450, Note_on_c, 6, 65, 120
8, 63476, Note_on_c, 6, 65, 0
8, 63480, Note_on_c, 6, 67, 120
8, 63532, Note_on_c, 6, 67, 0
8, 63540, Note_on_c, 6, 69, 120
8, 63592, Note_on_c, 6, 69, 0
8, 63600, Note_on_c, 6, 71, 120
8, 63652, Note_on_c, 6, 71, 0
8, 63660, Note_on_c, 6, 72, 120
8, 63712, Note_on_c, 6, 72, 0
8, 63720, Note_on_c, 6, 74, 120
8, 63746, Note_on_c, 6, 74, 0
8, 63750, Note_on_c, 6, 72, 120
8, 63776, Note_on_c, 6, 72, 0
8, 63780, Note_on_c, 6, 71, 120
8, 63806, Note_on_c, 6, 71, 0
8, 63810, Note_on_c, 6, 69, 120
8, 63836, Note_on_c, 6, 69, 0
8, 63840, Note_on_c, 6, 67, 120
8, 63866, Note_on_c, 6, 67, 0
8, 63870, Note_on_c, 6, 74, 120
8, 63896, Note_on_c, 6, 74, 0
8, 63900, Note_on_c, 6, 69, 120
8, 63926, Note_on_c, 6, 69, 0
8, 63930, Note_on_c, 6, 67, 120
8, 63956, Note_on_c, 6, 67, 0
8, 63960, Note_on_c, 6, 65, 120
8, 63986, Note_on_c, 6, 65, 0
8, 63990, Note_on_c, 6, 74, 120
8, 64016, Note_on_c, 6, 74, 0
8, 64020, Note_on_c, 6, 67, 120
8, 64046, Note_on_c, 6, 67, 0
8, 64050, Note_on_c, 6, 65, 120
8, 64076, Note_on_c, 6, 65, 0
8, 64080, Note_on_c, 6, 63, 120
8, 64106, Note_on_c, 6, 63, 0
8, 64110, Note_on_c, 6, 72, 120
8, 64136, Note_on_c, 6, 72, 0
8, 64140, Note_on_c, 6, 67, 120
8, 64166, Note_on_c, 6, 67, 0
8, 64170, Note_on_c, 6, 65, 120
8, 64196, Note_on_c, 6, 65, 0
8, 64200, Note_on_c, 6, 63, 120
8, 64226, Note_on_c, 6, 63, 0
8, 64230, Note_on_c, 6, 65, 120
8, 64256, Note_on_c, 6, 65, 0
8, 64260, Note_on_c, 6, 67, 120
8, 64286, Note_on_c, 6, 67, 0
8, 64290, Note_on_c, 6, 68, 120
8, 64316, Note_on_c, 6, 68, 0
8, 64320, Note_on_c, 6, 67, 120
8, 64346, Note_on_c, 6, 67, 0
8, 64350, Note_on_c, 6, 72, 120
8, 64376, Note_on_c, 6, 72, 0
8, 64380, Note_on_c, 6, 67, 120
8, 64406, Note_on_c, 6, 67, 0
8, 64410, Note_on_c, 6, 65, 120
8, 64436, Note_on_c, 6, 65, 0
8, 64440, Note_on_c, 6, 63, 120
8, 64466, Note_on_c, 6, 63, 0
8, 64470, Note_on_c, 6, 72, 120
8, 64496, Note_on_c, 6, 72, 0
8, 64500, Note_on_c, 6, 67, 120
8, 64526, Note_on_c, 6, 67, 0
8, 64530, Note_on_c, 6, 65, 120
8, 64556, Note_on_c, 6, 65, 0
8, 64560, Note_on_c, 6, 63, 120
8, 64586, Note_on_c, 6, 63, 0
8, 64590, Note_on_c, 6, 65, 120
8, 64616, Note_on_c, 6, 65, 0
8, 64620, Note_on_c, 6, 67, 120
8, 64646, Note_on_c, 6, 67, 0
8, 64650, Note_on_c, 6, 68, 120
8, 64676, Note_on_c, 6, 68, 0
8, 64680, Note_on_c, 6, 67, 120
8, 64706, Note_on_c, 6, 67, 0
8, 64710, Note_on_c, 6, 72, 120
8, 64736, Note_on_c, 6, 72, 0
8, 64740, Note_on_c, 6, 67, 120
8, 64766, Note_on_c, 6, 67, 0
8, 64770, Note_on_c, 6, 65, 120
8, 64796, Note_on_c, 6, 65, 0
8, 64800, Note_on_c, 6, 64, 120
8, 64826, Note_on_c, 6, 64, 0
8, 64830, Note_on_c, 6, 70, 120
8, 64856, Note_on_c, 6, 70, 0
8, 64860, Note_on_c, 6, 67, 120
8, 64886, Note_on_c, 6, 67, 0
8, 64890, Note_on_c, 6, 65, 120
8, 64916, Note_on_c, 6, 65, 0
8, 64920, Note_on_c, 6, 64, 120
8, 64946, Note_on_c, 6, 64, 0
8, 64950, Note_on_c, 6, 65, 120
8, 64976, Note_on_c, 6, 65, 0
8, 64980, Note_on_c, 6, 67, 120
8, 65006, Note_on_c, 6, 67, 0
8, 65010, Note_on_c, 6, 68, 120
8, 65036, Note_on_c, 6, 68, 0
8, 65040, Note_on_c, 6, 67, 120
8, 65066, Note_on_c, 6, 67, 0
8, 65070, Note_on_c, 6, 70, 120
8, 65096, Note_on_c, 6, 70, 0
8, 65100, Note_on_c, 6, 67, 120
8, 65126, Note_on_c, 6, 67, 0
8, 65130, Note_on_c, 6, 65, 120
8, 65156, Note_on_c, 6, 65, 0
8, 65160, Note_on_c, 6, 64, 120
8, 65186, Note_on_c, 6, 64, 0
8, 65190, Note_on_c, 6, 70, 120
8, 65216, Note_on_c, 6, 70, 0
8, 65220, Note_on_c, 6, 67, 120
8, 65246, Note_on_c, 6, 67, 0
8, 65250, Note_on_c, 6, 65, 120
8, 65276, Note_on_c, 6, 65, 0
8, 65280, Note_on_c, 6, 64, 120
8, 65306, Note_on_c, 6, 64, 0
8, 65310, Note_on_c, 6, 67, 120
8, 65336, Note_on_c, 6, 67, 0
8, 65340, Note_on_c, 6, 70, 120
8, 65366, Note_on_c, 6, 70, 0
8, 65370, Note_on_c, 6, 73, 120
8, 65396, Note_on_c, 6, 73, 0
8, 65400, Note_on_c, 6, 72, 120
8, 65426, Note_on_c, 6, 72, 0
8, 65430, Note_on_c, 6, 70, 120
8, 65456, Note_on_c, 6, 70, 0
8, 65460, Note_on_c, 6, 68, 120
8, 65486, Note_on_c, 6, 68, 0
8, 65490, Note_on_c, 6, 67, 120
8, 65516, Note_on_c, 6, 67, 0
8, 65520, Note_on_c, 6, 68, 120
8, 65546, Note_on_c, 6, 68, 0
8, 65550, Note_on_c, 6, 77, 120
8, 65576, Note_on_c, 6, 77, 0
8, 65580, Note_on_c, 6, 72, 120
8, 65606, Note_on_c, 6, 72, 0
8, 65610, Note_on_c, 6, 70, 120
8, 65636, Note_on_c, 6, 70, 0
8, 65640, Note_on_c, 6, 68, 120
8, 65666, Note_on_c, 6, 68, 0
8, 65670, Note_on_c, 6, 70, 120
8, 65696, Note_on_c, 6, 70, 0
8, 65700, Note_on_c, 6, 72, 120
8, 65726, Note_on_c, 6, 72, 0
8, 65730, Note_on_c, 6, 73, 120
8, 65756, Note_on_c, 6, 73, 0
8, 65760, Note_on_c, 6, 72, 120
8, 65786, Note_on_c, 6, 72, 0
8, 65790, Note_on_c, 6, 77, 120
8, 65816, Note_on_c, 6, 77, 0
8, 65820, Note_on_c, 6, 72, 120
8, 65846, Note_on_c, 6, 72, 0
8, 65850, Note_on_c, 6, 70, 120
8, 65876, Note_on_c, 6, 70, 0
8, 65880, Note_on_c, 6, 68, 120
8, 65906, Note_on_c, 6, 68, 0
8, 65910, Note_on_c, 6, 77, 120
8, 65936, Note_on_c, 6, 77, 0
8, 65940, Note_on_c, 6, 72, 120
8, 65966, Note_on_c, 6, 72, 0
8, 65970, Note_on_c, 6, 70, 120
8, 65996, Note_on_c, 6, 70, 0
8, 66000, Note_on_c, 6, 68, 120
8, 66026, Note_on_c, 6, 68, 0
8, 66030, Note_on_c, 6, 70, 120
8, 66056, Note_on_c, 6, 70, 0
8, 66060, Note_on_c, 6, 72, 120
8, 66086, Note_on_c, 6, 72, 0
8, 66090, Note_on_c, 6, 73, 120
8, 66116, Note_on_c, 6, 73, 0
8, 66120, Note_on_c, 6, 72, 120
8, 66146, Note_on_c, 6, 72, 0
8, 66150, Note_on_c, 6, 77, 120
8, 66176, Note_on_c, 6, 77, 0
8, 66180, Note_on_c, 6, 72, 120
8, 66206, Note_on_c, 6, 72, 0
8, 66210, Note_on_c, 6, 70, 120
8, 66236, Note_on_c, 6, 70, 0
8, 66240, Note_on_c, 6, 69, 120
8, 66266, Note_on_c, 6, 69, 0
8, 66270, Note_on_c, 6, 75, 120
8, 66296, Note_on_c, 6, 75, 0
8, 66300, Note_on_c, 6, 72, 120
8, 66326, Note_on_c, 6, 72, 0
8, 66330, Note_on_c, 6, 70, 120
8, 66356, Note_on_c, 6, 70, 0
8, 66360, Note_on_c, 6, 69, 120
8, 66386, Note_on_c, 6, 69, 0
8, 66390, Note_on_c, 6, 70, 120
8, 66416, Note_on_c, 6, 70, 0
8, 66420, Note_on_c, 6, 72, 120
8, 66446, Note_on_c, 6, 72, 0
8, 66450, Note_on_c, 6, 73, 120
8, 66476, Note_on_c, 6, 73, 0
8, 66480, Note_on_c, 6, 72, 120
8, 66506, Note_on_c, 6, 72, 0
8, 66510, Note_on_c, 6, 75, 120
8, 66536, Note_on_c, 6, 75, 0
8, 66540, Note_on_c, 6, 72, 120
8, 66566, Note_on_c, 6, 72, 0
8, 66570, Note_on_c, 6, 70, 120
8, 66596, Note_on_c, 6, 70, 0
8, 66600, Note_on_c, 6, 69, 120
8, 66626, Note_on_c, 6, 69, 0
8, 66630, Note_on_c, 6, 75, 120
8, 66656, Note_on_c, 6, 75, 0
8, 66660, Note_on_c, 6, 72, 120
8, 66686, Note_on_c, 6, 72, 0
8, 66690, Note_on_c, 6, 70, 120
8, 66716, Note_on_c, 6, 70, 0
8, 66720, Note_on_c, 6, 69, 120
8, 66746, Note_on_c, 6, 69, 0
8, 66750, Note_on_c, 6, 72, 120
8, 66776, Note_on_c, 6, 72, 0
8, 66780, Note_on_c, 6, 75, 120
8, 66806, Note_on_c, 6, 75, 0
8, 66810, Note_on_c, 6, 78, 120
8, 66836, Note_on_c, 6, 78, 0
8, 66840, Note_on_c, 6, 77, 120
8, 66866, Note_on_c, 6, 77, 0
8, 66870, Note_on_c, 6, 75, 120
8, 66896, Note_on_c, 6, 75, 0
8, 66900, Note_on_c, 6, 73, 120
8, 66926, Note_on_c, 6, 73, 0
8, 66930, Note_on_c, 6, 72, 120
8, 66956, Note_on_c, 6, 72, 0
8, 66960, Note_on_c, 6, 73, 120
8, 67012, Note_on_c, 6, 73, 0
8, 67020, Note_on_c, 6, 70, 120
8, 67072, Note_on_c, 6, 70, 0
8, 67080, Note_on_c, 6, 72, 120
8, 67132, Note_on_c, 6, 72, 0
8, 67140, Note_on_c, 6, 73, 120
8, 67192, Note_on_c, 6, 73, 0
8, 67200, Note_on_c, 6, 75, 120
8, 67252, Note_on_c, 6, 75, 0
8, 67260, Note_on_c, 6, 73, 120
8, 67312, Note_on_c, 6, 73, 0
8, 67320, Note_on_c, 6, 72, 120
8, 67372, Note_on_c, 6, 72, 0
8, 67380, Note_on_c, 6, 68, 120
8, 67432, Note_on_c, 6, 68, 0
8, 67440, Note_on_c, 6, 70, 120
8, 67492, Note_on_c, 6, 70, 0
8, 67500, Note_on_c, 6, 72, 120
8, 67552, Note_on_c, 6, 72, 0
8, 67560, Note_on_c, 6, 73, 120
8, 67612, Note_on_c, 6, 73, 0
8, 67620, Note_on_c, 6, 72, 120
8, 67672, Note_on_c, 6, 72, 0
8, 67680, Note_on_c, 6, 70, 120
8, 67732, Note_on_c, 6, 70, 0
8, 67740, Note_on_c, 6, 68, 120
8, 67792, Note_on_c, 6, 68, 0
8, 67800, Note_on_c, 6, 70, 120
8, 67852, Note_on_c, 6, 70, 0
8, 67860, Note_on_c, 6, 67, 120
8, 67912, Note_on_c, 6, 67, 0
8, 67920, Note_on_c, 6, 68, 120
8, 67972, Note_on_c, 6, 68, 0
8, 67980, Note_on_c, 6, 70, 120
8, 68032, Note_on_c, 6, 70, 0
8, 68040, Note_on_c, 6, 64, 120
8, 68066, Note_on_c, 6, 64, 0
8, 68070, Note_on_c, 6, 62, 120
8, 68096, Note_on_c, 6, 62, 0
8, 68100, Note_on_c, 6, 60, 120
8, 68126, Note_on_c, 6, 60, 0
8, 68130, Note_on_c, 6, 62, 120
8, 68156, Note_on_c, 6, 62, 0
8, 68160, Note_on_c, 6, 64, 120
8, 68212, Note_on_c, 6, 64, 0
8, 68220, Note_on_c, 6, 65, 120
8, 68272, Note_on_c, 6, 65, 0
8, 68280, Note_on_c, 6, 67, 120
8, 68332, Note_on_c, 6, 67, 0
8, 68340, Note_on_c, 6, 68, 120
8, 68392, Note_on_c, 6, 68, 0
8, 68400, Note_on_c, 6, 70, 120
8, 68426, Note_on_c, 6, 70, 0
8, 68430, Note_on_c, 6, 68, 120
8, 68456, Note_on_c, 6, 68, 0
8, 68460, Note_on_c, 6, 67, 120
8, 68486, Note_on_c, 6, 67, 0
8, 68490, Note_on_c, 6, 68, 120
8, 68516, Note_on_c, 6, 68, 0
8, 68520, Note_on_c, 6, 70, 120
8, 68572, Note_on_c, 6, 70, 0
8, 68580, Note_on_c, 6, 72, 120
8, 68632, Note_on_c, 6, 72, 0
8, 68640, Note_on_c, 6, 73, 120
8, 68692, Note_on_c, 6, 73, 0
8, 68700, Note_on_c, 6, 67, 120
8, 68752, Note_on_c, 6, 67, 0
8, 68760, Note_on_c, 6, 70, 120
8, 68812, Note_on_c, 6, 70, 0
8, 68820, Note_on_c, 6, 64, 120
8, 68872, Note_on_c, 6, 64, 0
8, 68880, Note_on_c, 6, 67, 120
8, 68932, Note_on_c, 6, 67, 0
8, 68940, Note_on_c, 6, 60, 120
8, 68992, Note_on_c, 6, 60, 0
8, 69000, Note_on_c, 6, 72, 120
8, 69026, Note_on_c, 6, 72, 0
8, 69030, Note_on_c, 6, 70, 120
8, 69056, Note_on_c, 6, 70, 0
8, 69060, Note_on_c, 6, 68, 120
8, 69086, Note_on_c, 6, 68, 0
8, 69090, Note_on_c, 6, 67, 120
8, 69116, Note_on_c, 6, 67, 0
8, 69120, Note_on_c, 6, 68, 120
8, 69146, Note_on_c, 6, 68, 0
8, 69150, Note_on_c, 6, 67, 120
8, 69176, Note_on_c, 6, 67, 0
8, 69180, Note_on_c, 6, 65, 120
8, 69266, Note_on_c, 6, 65, 0
8, 69270, Note_on_c, 6, 68, 120
8, 69296, Note_on_c, 6, 68, 0
8, 69300, Note_on_c, 6, 67, 120
8, 69326, Note_on_c, 6, 67, 0
8, 69330, Note_on_c, 6, 65, 120
8, 69356, Note_on_c, 6, 65, 0
8, 69360, Note_on_c, 6, 63, 120
8, 69386, Note_on_c, 6, 63, 0
8, 69390, Note_on_c, 6, 62, 120
8, 69416, Note_on_c, 6, 62, 0
8, 69420, Note_on_c, 6, 60, 120
8, 69446, Note_on_c, 6, 60, 0
8, 69450, Note_on_c, 6, 58, 120
8, 69476, Note_on_c, 6, 58, 0
8, 69480, Note_on_c, 6, 67, 120
8, 69506, Note_on_c, 6, 67, 0
8, 69510, Note_on_c, 6, 65, 120
8, 69536, Note_on_c, 6, 65, 0
8, 69540, Note_on_c, 6, 63, 120
8, 69626, Note_on_c, 6, 63, 0
8, 69630, Note_on_c, 6, 67, 120
8, 69656, Note_on_c, 6, 67, 0
8, 69660, Note_on_c, 6, 65, 120
8, 69686, Note_on_c, 6, 65, 0
8, 69690, Note_on_c, 6, 63, 120
8, 69716, Note_on_c, 6, 63, 0
8, 69720, Note_on_c, 6, 62, 120
8, 69746, Note_on_c, 6, 62, 0
8, 69750, Note_on_c, 6, 60, 120
8, 69776, Note_on_c, 6, 60, 0
8, 69780, Note_on_c, 6, 59, 120
8, 69806, Note_on_c, 6, 59, 0
8, 69810, Note_on_c, 6, 60, 120
8, 69836, Note_on_c, 6, 60, 0
8, 69840, Note_on_c, 6, 65, 120
8, 69866, Note_on_c, 6, 65, 0
8, 69870, Note_on_c, 6, 63, 120
8, 69896, Note_on_c, 6, 63, 0
8, 69900, Note_on_c, 6, 62, 120
8, 69986, Note_on_c, 6, 62, 0
8, 69990, Note_on_c, 6, 65, 120
8, 70016, Note_on_c, 6, 65, 0
8, 70020, Note_on_c, 6, 63, 120
8, 70046, Note_on_c, 6, 63, 0
8, 70050, Note_on_c, 6, 62, 120
8, 70076, Note_on_c, 6, 62, 0
8, 70080, Note_on_c, 6, 60, 120
8, 70106, Note_on_c, 6, 60, 0
8, 70110, Note_on_c, 6, 59, 120
8, 70136, Note_on_c, 6, 59, 0
8, 70140, Note_on_c, 6, 57, 120
8, 70166, Note_on_c, 6, 57, 0
8, 70170, Note_on_c, 6, 55, 120
8, 70196, Note_on_c, 6, 55, 0
8, 70200, Note_on_c, 6, 63, 120
8, 70226, Note_on_c, 6, 63, 0
8, 70230, Note_on_c, 6, 65, 120
8, 70256, Note_on_c, 6, 65, 0
8, 70260, Note_on_c, 6, 67, 120
8, 70372, Note_on_c, 6, 67, 0
8, 70380, Note_on_c, 6, 65, 120
8, 70406, Note_on_c, 6, 65, 0
8, 70410, Note_on_c, 6, 63, 120
8, 70436, Note_on_c, 6, 63, 0
8, 70440, Note_on_c, 6, 62, 120
8, 70466, Note_on_c, 6, 62, 0
8, 70470, Note_on_c, 6, 69, 120
8, 70496, Note_on_c, 6, 69, 0
8, 70500, Note_on_c, 6, 71, 120
8, 70526, Note_on_c, 6, 71, 0
8, 70530, Note_on_c, 6, 72, 120
8, 70556, Note_on_c, 6, 72, 0
8, 70560, Note_on_c, 6, 74, 120
8, 70586, Note_on_c, 6, 74, 0
8, 70590, Note_on_c, 6, 72, 120
8, 70616, Note_on_c, 6, 72, 0
8, 70620, Note_on_c, 6, 71, 120
8, 70646, Note_on_c, 6, 71, 0
8, 70650, Note_on_c, 6, 72, 120
8, 70676, Note_on_c, 6, 72, 0
8, 70680, Note_on_c, 6, 74, 120
8, 70706, Note_on_c, 6, 74, 0
8, 70710, Note_on_c, 6, 79, 120
8, 70736, Note_on_c, 6, 79, 0
8, 70740, Note_on_c, 6, 77, 120
8, 70766, Note_on_c, 6, 77, 0
8, 70770, Note_on_c, 6, 75, 120
8, 70796, Note_on_c, 6, 75, 0
8, 70800, Note_on_c, 6, 74, 120
8, 70826, Note_on_c, 6, 74, 0
8, 70830, Note_on_c, 6, 72, 120
8, 70856, Note_on_c, 6, 72, 0
8, 70860, Note_on_c, 6, 71, 120
8, 70886, Note_on_c, 6, 71, 0
8, 70890, Note_on_c, 6, 69, 120
8, 70916, Note_on_c, 6, 69, 0
8, 70920, Note_on_c, 6, 67, 120
8, 71066, Note_on_c, 6, 67, 0
8, 71070, Note_on_c, 6, 69, 120
8, 71096, Note_on_c, 6, 69, 0
8, 71100, Note_on_c, 6, 71, 120
8, 71126, Note_on_c, 6, 71, 0
8, 71130, Note_on_c, 6, 72, 120
8, 71156, Note_on_c, 6, 72, 0
8, 71160, Note_on_c, 6, 74, 120
8, 71186, Note_on_c, 6, 74, 0
8, 71190, Note_on_c, 6, 75, 120
8, 71216, Note_on_c, 6, 75, 0
8, 71220, Note_on_c, 6, 77, 120
8, 71246, Note_on_c, 6, 77, 0
8, 71250, Note_on_c, 6, 74, 120
8, 71276, Note_on_c, 6, 74, 0
8, 71280, Note_on_c, 6, 71, 120
8, 71332, Note_on_c, 6, 71, 0
8, 71340, Note_on_c, 6, 80, 120
8, 71426, Note_on_c, 6, 80, 0
8, 71430, Note_on_c, 6, 74, 120
8, 71456, Note_on_c, 6, 74, 0
8, 71460, Note_on_c, 6, 75, 120
8, 71486, Note_on_c, 6, 75, 0
8, 71490, Note_on_c, 6, 77, 120
8, 71516, Note_on_c, 6, 77, 0
8, 71520, Note_on_c, 6, 75, 120
8, 71546, Note_on_c, 6, 75, 0
8, 71550, Note_on_c, 6, 74, 120
8, 71576, Note_on_c, 6, 74, 0
8, 71580, Note_on_c, 6, 72, 120
8, 71606, Note_on_c, 6, 72, 0
8, 71610, Note_on_c, 6, 71, 120
8, 71636, Note_on_c, 6, 71, 0
8, 71640, Note_on_c, 6, 72, 120
8, 71786, Note_on_c, 6, 72, 0
8, 71790, Note_on_c, 6, 79, 120
8, 71816, Note_on_c, 6, 79, 0
8, 71820, Note_on_c, 6, 73, 120
8, 71846, Note_on_c, 6, 73, 0
8, 71850, Note_on_c, 6, 72, 120
8, 71876, Note_on_c, 6, 72, 0
8, 71880, Note_on_c, 6, 70, 120
8, 71906, Note_on_c, 6, 70, 0
8, 71910, Note_on_c, 6, 75, 120
8, 71936, Note_on_c, 6, 75, 0
8, 71940, Note_on_c, 6, 70, 120
8, 71966, Note_on_c, 6, 70, 0
8, 71970, Note_on_c, 6, 68, 120
8, 71996, Note_on_c, 6, 68, 0
8, 72000, Note_on_c, 6, 67, 120
8, 72026, Note_on_c, 6, 67, 0
8, 72030, Note_on_c, 6, 68, 120
8, 72056, Note_on_c, 6, 68, 0
8, 72060, Note_on_c, 6, 70, 120
8, 72086, Note_on_c, 6, 70, 0
8, 72090, Note_on_c, 6, 72, 120
8, 72116, Note_on_c, 6, 72, 0
8, 72120, Note_on_c, 6, 73, 120
8, 72172, Note_on_c, 6, 73, 0
8, 72180, Note_on_c, 6, 70, 120
8, 72232, Note_on_c, 6, 70, 0
8, 72240, Note_on_c, 6, 79, 120
8, 72412, Note_on_c, 6, 79, 0
8, 72420, Note_on_c, 6, 72, 120
8, 72446, Note_on_c, 6, 72, 0
8, 72450, Note_on_c, 6, 70, 120
8, 72476, Note_on_c, 6, 70, 0
8, 72480, Note_on_c, 6, 68, 120
8, 72506, Note_on_c, 6, 68, 0
8, 72510, Note_on_c, 6, 77, 120
8, 72536, Note_on_c, 6, 77, 0
8, 72540, Note_on_c, 6, 70, 120
8, 72566, Note_on_c, 6, 70, 0
8, 72570, Note_on_c, 6, 68, 120
8, 72596, Note_on_c, 6, 68, 0
8, 72600, Note_on_c, 6, 67, 120
8, 72626, Note_on_c, 6, 67, 0
8, 72630, Note_on_c, 6, 73, 120
8, 72656, Note_on_c, 6, 73, 0
8, 72660, Note_on_c, 6, 67, 120
8, 72686, Note_on_c, 6, 67, 0
8, 72690, Note_on_c, 6, 65, 120
8, 72716, Note_on_c, 6, 65, 0
8, 72720, Note_on_c, 6, 64, 120
8, 72746, Note_on_c, 6, 64, 0
8, 72750, Note_on_c, 6, 65, 120
8, 72776, Note_on_c, 6, 65, 0
8, 72780, Note_on_c, 6, 67, 120
8, 72806, Note_on_c, 6, 67, 0
8, 72810, Note_on_c, 6, 68, 120
8, 72836, Note_on_c, 6, 68, 0
8, 72840, Note_on_c, 6, 70, 120
8, 72892, Note_on_c, 6, 70, 0
8, 72900, Note_on_c, 6, 67, 120
8, 72952, Note_on_c, 6, 67, 0
8, 72960, Note_on_c, 6, 76, 120
8, 72973, Note_on_c, 6, 76, 0
8, 72975, Note_on_c, 6, 77, 116
8, 72982, Note_on_c, 6, 77, 0
8, 72983, Note_on_c, 6, 76, 117
8, 72991, Note_on_c, 6, 76, 0
8, 72992, Note_on_c, 6, 77, 117
8, 72999, Note_on_c, 6, 77, 0
8, 73000, Note_on_c, 6, 76, 116
8, 73008, Note_on_c, 6, 76, 0
8, 73009, Note_on_c, 6, 77, 116
8, 73016, Note_on_c, 6, 77, 0
8, 73017, Note_on_c, 6, 76, 117
8, 73025, Note_on_c, 6, 76, 0
8, 73026, Note_on_c, 6, 77, 116
8, 73033, Note_on_c, 6, 77, 0
8, 73035, Note_on_c, 6, 76, 115
8, 73048, Note_on_c, 6, 76, 0
8, 73050, Note_on_c, 6, 74, 115
8, 73063, Note_on_c, 6, 74, 0
8, 73065, Note_on_c, 6, 76, 115
8, 73078, Note_on_c, 6, 76, 0
8, 73080, Note_on_c, 6, 77, 120
8, 73132, Note_on_c, 6, 77, 0
8, 73140, Note_on_c, 6, 65, 120
8, 73166, Note_on_c, 6, 65, 0
8, 73170, Note_on_c, 6, 67, 120
8, 73196, Note_on_c, 6, 67, 0
8, 73200, Note_on_c, 6, 68, 120
8, 73252, Note_on_c, 6, 68, 0
8, 73260, Note_on_c, 6, 70, 120
8, 73312, Note_on_c, 6, 70, 0
8, 73320, Note_on_c, 6, 72, 120
8, 73372, Note_on_c, 6, 72, 0
8, 73380, Note_on_c, 6, 74, 120
8, 73432, Note_on_c, 6, 74, 0
8, 73440, Note_on_c, 6, 75, 120
8, 73466, Note_on_c, 6, 75, 0
8, 73470, Note_on_c, 6, 74, 120
8, 73496, Note_on_c, 6, 74, 0
8, 73500, Note_on_c, 6, 72, 120
8, 73526, Note_on_c, 6, 72, 0
8, 73530, Note_on_c, 6, 74, 120
8, 73556, Note_on_c, 6, 74, 0
8, 73560, Note_on_c, 6, 75, 120
8, 73612, Note_on_c, 6, 75, 0
8, 73620, Note_on_c, 6, 77, 120
8, 73672, Note_on_c, 6, 77, 0
8, 73680, Note_on_c, 6, 79, 120
8, 73732, Note_on_c, 6, 79, 0
8, 73740, Note_on_c, 6, 80, 120
8, 73792, Note_on_c, 6, 80, 0
8, 73800, Note_on_c, 6, 71, 120
8, 73826, Note_on_c, 6, 71, 0
8, 73830, Note_on_c, 6, 79, 120
8, 73856, Note_on_c, 6, 79, 0
8, 73860, Note_on_c, 6, 74, 120
8, 73886, Note_on_c, 6, 74, 0
8, 73890, Note_on_c, 6, 72, 120
8, 73916, Note_on_c, 6, 72, 0
8, 73920, Note_on_c, 6, 71, 120
8, 73946, Note_on_c, 6, 71, 0
8, 73950, Note_on_c, 6, 72, 120
8, 73976, Note_on_c, 6, 72, 0
8, 73980, Note_on_c, 6, 74, 120
8, 74006, Note_on_c, 6, 74, 0
8, 74010, Note_on_c, 6, 75, 120
8, 74036, Note_on_c, 6, 75, 0
8, 74040, Note_on_c, 6, 74, 120
8, 74066, Note_on_c, 6, 74, 0
8, 74070, Note_on_c, 6, 79, 120
8, 74096, Note_on_c, 6, 79, 0
8, 74100, Note_on_c, 6, 74, 120
8, 74126, Note_on_c, 6, 74, 0
8, 74130, Note_on_c, 6, 72, 120
8, 74156, Note_on_c, 6, 72, 0
8, 74160, Note_on_c, 6, 71, 120
8, 74186, Note_on_c, 6, 71, 0
8, 74190, Note_on_c, 6, 79, 120
8, 74216, Note_on_c, 6, 79, 0
8, 74220, Note_on_c, 6, 74, 120
8, 74246, Note_on_c, 6, 74, 0
8, 74250, Note_on_c, 6, 72, 120
8, 74276, Note_on_c, 6, 72, 0
8, 74280, Note_on_c, 6, 71, 120
8, 74306, Note_on_c, 6, 71, 0
8, 74310, Note_on_c, 6, 72, 120
8, 74336, Note_on_c, 6, 72, 0
8, 74340, Note_on_c, 6, 74, 120
8, 74366, Note_on_c, 6, 74, 0
8, 74370, Note_on_c, 6, 75, 120
8, 74396, Note_on_c, 6, 75, 0
8, 74400, Note_on_c, 6, 74, 120
8, 74426, Note_on_c, 6, 74, 0
8, 74430, Note_on_c, 6, 79, 120
8, 74456, Note_on_c, 6, 79, 0
8, 74460, Note_on_c, 6, 74, 120
8, 74486, Note_on_c, 6, 74, 0
8, 74490, Note_on_c, 6, 72, 120
8, 74516, Note_on_c, 6, 72, 0
8, 74520, Note_on_c, 6, 71, 120
8, 74546, Note_on_c, 6, 71, 0
8, 74550, Note_on_c, 6, 77, 120
8, 74576, Note_on_c, 6, 77, 0
8, 74580, Note_on_c, 6, 74, 120
8, 74606, Note_on_c, 6, 74, 0
8, 74610, Note_on_c, 6, 72, 120
8, 74636, Note_on_c, 6, 72, 0
8, 74640, Note_on_c, 6, 71, 120
8, 74666, Note_on_c, 6, 71, 0
8, 74670, Note_on_c, 6, 72, 120
8, 74696, Note_on_c, 6, 72, 0
8, 74700, Note_on_c, 6, 74, 120
8, 74726, Note_on_c, 6, 74, 0
8, 74730, Note_on_c, 6, 75, 120
8, 74756, Note_on_c, 6, 75, 0
8, 74760, Note_on_c, 6, 74, 120
8, 74786, Note_on_c, 6, 74, 0
8, 74790, Note_on_c, 6, 77, 120
8, 74816, Note_on_c, 6, 77, 0
8, 74820, Note_on_c, 6, 74, 120
8, 74846, Note_on_c, 6, 74, 0
8, 74850, Note_on_c, 6, 72, 120
8, 74876, Note_on_c, 6, 72, 0
8, 74880, Note_on_c, 6, 71, 120
8, 74906, Note_on_c, 6, 71, 0
8, 74910, Note_on_c, 6, 77, 120
8, 74936, Note_on_c, 6, 77, 0
8, 74940, Note_on_c, 6, 74, 120
8, 74966, Note_on_c, 6, 74, 0
8, 74970, Note_on_c, 6, 72, 120
8, 74996, Note_on_c, 6, 72, 0
8, 75000, Note_on_c, 6, 71, 120
8, 75026, Note_on_c, 6, 71, 0
8, 75030, Note_on_c, 6, 74, 120
8, 75056, Note_on_c, 6, 74, 0
8, 75060, Note_on_c, 6, 77, 120
8, 75086, Note_on_c, 6, 77, 0
8, 75090, Note_on_c, 6, 80, 120
8, 75116, Note_on_c, 6, 80, 0
8, 75120, Note_on_c, 6, 79, 120
8, 75146, Note_on_c, 6, 79, 0
8, 75150, Note_on_c, 6, 77, 120
8, 75176, Note_on_c, 6, 77, 0
8, 75180, Note_on_c, 6, 75, 120
8, 75206, Note_on_c, 6, 75, 0
8, 75210, Note_on_c, 6, 74, 120
8, 75236, Note_on_c, 6, 74, 0
8, 75240, Note_on_c, 6, 75, 120
8, 75266, Note_on_c, 6, 75, 0
8, 75270, Note_on_c, 6, 77, 120
8, 75296, Note_on_c, 6, 77, 0
8, 75300, Note_on_c, 6, 79, 120
8, 75326, Note_on_c, 6, 79, 0
8, 75330, Note_on_c, 6, 75, 120
8, 75356, Note_on_c, 6, 75, 0
8, 75360, Note_on_c, 6, 72, 120
8, 75386, Note_on_c, 6, 72, 0
8, 75390, Note_on_c, 6, 79, 120
8, 75416, Note_on_c, 6, 79, 0
8, 75420, Note_on_c, 6, 77, 120
8, 75446, Note_on_c, 6, 77, 0
8, 75450, Note_on_c, 6, 75, 120
8, 75476, Note_on_c, 6, 75, 0
8, 75480, Note_on_c, 6, 74, 120
8, 75506, Note_on_c, 6, 74, 0
8, 75510, Note_on_c, 6, 72, 120
8, 75536, Note_on_c, 6, 72, 0
8, 75540, Note_on_c, 6, 70, 120
8, 75566, Note_on_c, 6, 70, 0
8, 75570, Note_on_c, 6, 68, 120
8, 75596, Note_on_c, 6, 68, 0
8, 75600, Note_on_c, 6, 67, 120
8, 75626, Note_on_c, 6, 67, 0
8, 75630, Note_on_c, 6, 68, 120
8, 75656, Note_on_c, 6, 68, 0
8, 75660, Note_on_c, 6, 70, 120
8, 75746, Note_on_c, 6, 70, 0
8, 75750, Note_on_c, 6, 72, 120
8, 75776, Note_on_c, 6, 72, 0
8, 75780, Note_on_c, 6, 70, 120
8, 75806, Note_on_c, 6, 70, 0
8, 75810, Note_on_c, 6, 68, 120
8, 75836, Note_on_c, 6, 68, 0
8, 75840, Note_on_c, 6, 67, 120
8, 75866, Note_on_c, 6, 67, 0
8, 75870, Note_on_c, 6, 65, 120
8, 75896, Note_on_c, 6, 65, 0
8, 75900, Note_on_c, 6, 64, 120
8, 75926, Note_on_c, 6, 64, 0
8, 75930, Note_on_c, 6, 62, 120
8, 75956, Note_on_c, 6, 62, 0
8, 75960, Note_on_c, 6, 60, 120
8, 75986, Note_on_c, 6, 60, 0
8, 75990, Note_on_c, 6, 67, 120
8, 76016, Note_on_c, 6, 67, 0
8, 76020, Note_on_c, 6, 60, 120
8, 76046, Note_on_c, 6, 60, 0
8, 76050, Note_on_c, 6, 58, 120
8, 76076, Note_on_c, 6, 58, 0
8, 76080, Note_on_c, 6, 60, 120
8, 76106, Note_on_c, 6, 60, 0
8, 76110, Note_on_c, 6, 62, 120
8, 76136, Note_on_c, 6, 62, 0
8, 76140, Note_on_c, 6, 64, 120
8, 76166, Note_on_c, 6, 64, 0
8, 76170, Note_on_c, 6, 65, 120
8, 76196, Note_on_c, 6, 65, 0
8, 76200, Note_on_c, 6, 64, 120
8, 76226, Note_on_c, 6, 64, 0
8, 76230, Note_on_c, 6, 67, 120
8, 76256, Note_on_c, 6, 67, 0
8, 76260, Note_on_c, 6, 60, 120
8, 76286, Note_on_c, 6, 60, 0
8, 76290, Note_on_c, 6, 58, 120
8, 76316, Note_on_c, 6, 58, 0
8, 76320, Note_on_c, 6, 60, 120
8, 76346, Note_on_c, 6, 60, 0
8, 76350, Note_on_c, 6, 67, 120
8, 76376, Note_on_c, 6, 67, 0
8, 76380, Note_on_c, 6, 65, 120
8, 76406, Note_on_c, 6, 65, 0
8, 76410, Note_on_c, 6, 64, 120
8, 76436, Note_on_c, 6, 64, 0
8, 76440, Note_on_c, 6, 65, 120
8, 76466, Note_on_c, 6, 65, 0
8, 76470, Note_on_c, 6, 60, 120
8, 76496, Note_on_c, 6, 60, 0
8, 76500, Note_on_c, 6, 65, 120
8, 76526, Note_on_c, 6, 65, 0
8, 76530, Note_on_c, 6, 67, 120
8, 76556, Note_on_c, 6, 67, 0
8, 76560, Note_on_c, 6, 68, 120
8, 76586, Note_on_c, 6, 68, 0
8, 76590, Note_on_c, 6, 70, 120
8, 76616, Note_on_c, 6, 70, 0
8, 76620, Note_on_c, 6, 72, 120
8, 76646, Note_on_c, 6, 72, 0
8, 76650, Note_on_c, 6, 74, 120
8, 76676, Note_on_c, 6, 74, 0
8, 76680, Note_on_c, 6, 75, 120
8, 76706, Note_on_c, 6, 75, 0
8, 76710, Note_on_c, 6, 74, 120
8, 76736, Note_on_c, 6, 74, 0
8, 76740, Note_on_c, 6, 72, 120
8, 76766, Note_on_c, 6, 72, 0
8, 76770, Note_on_c, 6, 74, 120
8, 76796, Note_on_c, 6, 74, 0
8, 76800, Note_on_c, 6, 75, 120
8, 76852, Note_on_c, 6, 75, 0
8, 76860, Note_on_c, 6, 77, 120
8, 76886, Note_on_c, 6, 77, 0
8, 76890, Note_on_c, 6, 79, 120
8, 76916, Note_on_c, 6, 79, 0
8, 76920, Note_on_c, 6, 80, 120
8, 76972, Note_on_c, 6, 80, 0
8, 76980, Note_on_c, 6, 73, 120
8, 77032, Note_on_c, 6, 73, 0
8, 77040, Note_on_c, 6, 77, 120
8, 77092, Note_on_c, 6, 77, 0
8, 77100, Note_on_c, 6, 71, 120
8, 77152, Note_on_c, 6, 71, 0
8, 77160, Note_on_c, 6, 74, 120
8, 77212, Note_on_c, 6, 74, 0
8, 77220, Note_on_c, 6, 67, 120
8, 77272, Note_on_c, 6, 67, 0
8, 77280, Note_on_c, 6, 79, 120
8, 77306, Note_on_c, 6, 79, 0
8, 77310, Note_on_c, 6, 77, 120
8, 77336, Note_on_c, 6, 77, 0
8, 77340, Note_on_c, 6, 75, 120
8, 77366, Note_on_c, 6, 75, 0
8, 77370, Note_on_c, 6, 74, 120
8, 77396, Note_on_c, 6, 74, 0
8, 77400, Note_on_c, 6, 75, 120
8, 77478, Note_on_c, 6, 75, 0
8, 77490, Note_on_c, 6, 69, 120
8, 77490, Note_on_c, 6, 72, 120
8, 77516, Note_on_c, 6, 72, 0
8, 77516, Note_on_c, 6, 69, 0
8, 77520, Note_on_c, 6, 67, 120
8, 77520, Note_on_c, 6, 72, 120
8, 77625, Note_on_c, 6, 72, 0
8, 77640, Note_on_c, 6, 71, 120
8, 77653, Note_on_c, 6, 71, 0
8, 77655, Note_on_c, 6, 72, 115
8, 77661, Note_on_c, 6, 72, 0
8, 77662, Note_on_c, 6, 71, 115
8, 77669, Note_on_c, 6, 71, 0
8, 77670, Note_on_c, 6, 72, 116
8, 77676, Note_on_c, 6, 72, 0
8, 77677, Note_on_c, 6, 71, 115
8, 77684, Note_on_c, 6, 71, 0
8, 77685, Note_on_c, 6, 72, 116
8, 77691, Note_on_c, 6, 72, 0
8, 77692, Note_on_c, 6, 71, 116
8, 77699, Note_on_c, 6, 71, 0
8, 77700, Note_on_c, 6, 72, 115
8, 77706, Note_on_c, 6, 72, 0
8, 77707, Note_on_c, 6, 71, 120
8, 77714, Note_on_c, 6, 71, 0
8, 77730, Note_on_c, 6, 72, 120
8, 77756, Note_on_c, 6, 72, 0
8, 77756, Note_on_c, 6, 67, 0
8, 77760, Note_on_c, 6, 67, 120
8, 77760, Note_on_c, 6, 72, 120
8, 78000, Control_c, 6, 7, 110
8, 78000, Control_c, 6, 7, 127
8, 78001, Control_c, 6, 7, 109
8, 78001, Control_c, 6, 7, 125
8, 78002, Control_c, 6, 7, 108
8, 78002, Control_c, 6, 7, 124
8, 78003, Control_c, 6, 7, 107
8, 78003, Control_c, 6, 7, 123
8, 78004, Control_c, 6, 7, 106
8, 78004, Control_c, 6, 7, 122
8, 78005, Control_c, 6, 7, 105
8, 78005, Control_c, 6, 7, 121
8, 78006, Control_c, 6, 7, 104
8, 78006, Control_c, 6, 7, 120
8, 78007, Control_c, 6, 7, 103
8, 78007, Control_c, 6, 7, 119
8, 78008, Control_c, 6, 7, 102
8, 78008, Control_c, 6, 7, 118
8, 78009, Control_c, 6, 7, 101
8, 78009, Control_c, 6, 7, 117
8, 78010, Control_c, 6, 7, 100
8, 78010, Control_c, 6, 7, 116
8, 78011, Control_c, 6, 7, 115
8, 78012, Control_c, 6, 7, 99
8, 78012, Control_c, 6, 7, 114
8, 78013, Control_c, 6, 7, 98
8, 78013, Control_c, 6, 7, 113
8, 78014, Control_c, 6, 7, 97
8, 78014, Control_c, 6, 7, 112
8, 78015, Control_c, 6, 7, 96
8, 78015, Control_c, 6, 7, 111
8, 78016, Control_c, 6, 7, 95
8, 78016, Control_c, 6, 7, 110
8, 78017, Control_c, 6, 7, 94
8, 78017, Control_c, 6, 7, 109
8, 78018, Control_c, 6, 7, 93
8, 78018, Control_c, 6, 7, 107
8, 78019, Control_c, 6, 7, 92
8, 78019, Control_c, 6, 7, 106
8, 78020, Control_c, 6, 7, 91
8, 78020, Control_c, 6, 7, 105
8, 78021, Control_c, 6, 7, 90
8, 78021, Control_c, 6, 7, 104
8, 78022, Control_c, 6, 7, 89
8, 78022, Control_c, 6, 7, 103
8, 78023, Control_c, 6, 7, 102
8, 78024, Control_c, 6, 7, 88
8, 78024, Control_c, 6, 7, 101
8, 78025, Control_c, 6, 7, 87
8, 78025, Control_c, 6, 7, 100
8, 78026, Control_c, 6, 7, 86
8, 78026, Control_c, 6, 7, 99
8, 78027, Control_c, 6, 7, 85
8, 78027, Control_c, 6, 7, 98
8, 78028, Control_c, 6, 7, 84
8, 78028, Control_c, 6, 7, 97
8, 78029, Control_c, 6, 7, 83
8, 78029, Control_c, 6, 7, 96
8, 78030, Control_c, 6, 7, 82
8, 78030, Control_c, 6, 7, 95
8, 78031, Control_c, 6, 7, 81
8, 78031, Control_c, 6, 7, 94
8, 78032, Control_c, 6, 7, 80
8, 78032, Control_c, 6, 7, 93
8, 78033, Control_c, 6, 7, 79
8, 78033, Control_c, 6, 7, 92
8, 78034, Control_c, 6, 7, 78
8, 78034, Control_c, 6, 7, 91
8, 78035, Control_c, 6, 7, 89
8, 78036, Control_c, 6, 7, 77
8, 78036, Control_c, 6, 7, 88
8, 78037, Control_c, 6, 7, 76
8, 78037, Control_c, 6, 7, 87
8, 78038, Control_c, 6, 7, 75
8, 78038, Control_c, 6, 7, 86
8, 78039, Control_c, 6, 7, 74
8, 78039, Control_c, 6, 7, 85
8, 78040, Control_c, 6, 7, 73
8, 78040, Control_c, 6, 7, 84
8, 78041, Control_c, 6, 7, 72
8, 78041, Control_c, 6, 7, 83
8, 78042, Control_c, 6, 7, 71
8, 78042, Control_c, 6, 7, 82
8, 78043, Control_c, 6, 7, 70
8, 78043, Control_c, 6, 7, 81
8, 78044, Control_c, 6, 7, 69
8, 78044, Control_c, 6, 7, 80
8, 78045, Control_c, 6, 7, 68
8, 78045, Control_c, 6, 7, 79
8, 78046, Control_c, 6, 7, 67
8, 78046, Control_c, 6, 7, 78
8, 78047, Control_c, 6, 7, 77
8, 78048, Control_c, 6, 7, 66
8, 78048, Control_c, 6, 7, 76
8, 78049, Control_c, 6, 7, 65
8, 78049, Control_c, 6, 7, 75
8, 78050, Control_c, 6, 7, 64
8, 78050, Control_c, 6, 7, 74
8, 78051, Control_c, 6, 7, 63
8, 78051, Control_c, 6, 7, 73
8, 78052, Control_c, 6, 7, 62
8, 78052, Control_c, 6, 7, 71
8, 78053, Control_c, 6, 7, 61
8, 78053, Control_c, 6, 7, 70
8, 78054, Control_c, 6, 7, 60
8, 78054, Control_c, 6, 7, 69
8, 78055, Control_c, 6, 7, 59
8, 78055, Control_c, 6, 7, 68
8, 78056, Control_c, 6, 7, 58
8, 78056, Control_c, 6, 7, 67
8, 78057, Control_c, 6, 7, 57
8, 78057, Control_c, 6, 7, 66
8, 78058, Control_c, 6, 7, 56
8, 78058, Control_c, 6, 7, 65
8, 78059, Control_c, 6, 7, 64
8, 78060, Control_c, 6, 7, 55
8, 78060, Control_c, 6, 7, 63
8, 78061, Control_c, 6, 7, 54
8, 78061, Control_c, 6, 7, 62
8, 78062, Control_c, 6, 7, 53
8, 78062, Control_c, 6, 7, 61
8, 78063, Control_c, 6, 7, 52
8, 78063, Control_c, 6, 7, 60
8, 78064, Control_c, 6, 7, 51
8, 78064, Control_c, 6, 7, 59
8, 78065, Control_c, 6, 7, 50
8, 78065, Control_c, 6, 7, 58
8, 78066, Control_c, 6, 7, 49
8, 78066, Control_c, 6, 7, 57
8, 78067, Control_c, 6, 7, 48
8, 78067, Control_c, 6, 7, 56
8, 78068, Control_c, 6, 7, 47
8, 78068, Control_c, 6, 7, 55
8, 78069, Control_c, 6, 7, 46
8, 78069, Control_c, 6, 7, 53
8, 78070, Control_c, 6, 7, 45
8, 78070, Control_c, 6, 7, 52
8, 78071, Control_c, 6, 7, 51
8, 78072, Control_c, 6, 7, 44
8, 78072, Control_c, 6, 7, 50
8, 78073, Control_c, 6, 7, 43
8, 78073, Control_c, 6, 7, 49
8, 78074, Control_c, 6, 7, 42
8, 78074, Control_c, 6, 7, 48
8, 78075, Control_c, 6, 7, 41
8, 78075, Control_c, 6, 7, 47
8, 78076, Control_c, 6, 7, 40
8, 78076, Control_c, 6, 7, 46
8, 78077, Control_c, 6, 7, 39
8, 78077, Control_c, 6, 7, 45
8, 78078, Control_c, 6, 7, 38
8, 78078, Control_c, 6, 7, 44
8, 78079, Control_c, 6, 7, 37
8, 78079, Control_c, 6, 7, 43
8, 78080, Control_c, 6, 7, 36
8, 78080, Control_c, 6, 7, 42
8, 78081, Control_c, 6, 7, 35
8, 78081, Control_c, 6, 7, 41
8, 78082, Control_c, 6, 7, 34
8, 78082, Control_c, 6, 7, 40
8, 78083, Control_c, 6, 7, 39
8, 78084, Control_c, 6, 7, 33
8, 78084, Control_c, 6, 7, 38
8, 78085, Control_c, 6, 7, 32
8, 78085, Control_c, 6, 7, 37
8, 78086, Control_c, 6, 7, 31
8, 78086, Control_c, 6, 7, 35
8, 78087, Control_c, 6, 7, 30
8, 78087, Control_c, 6, 7, 34
8, 78088, Control_c, 6, 7, 29
8, 78088, Control_c, 6, 7, 33
8, 78089, Control_c, 6, 7, 28
8, 78089, Control_c, 6, 7, 32
8, 78090, Control_c, 6, 7, 27
8, 78090, Control_c, 6, 7, 31
8, 78091, Control_c, 6, 7, 26
8, 78091, Control_c, 6, 7, 30
8, 78092, Control_c, 6, 7, 25
8, 78092, Control_c, 6, 7, 29
8, 78093, Control_c, 6, 7, 24
8, 78093, Control_c, 6, 7, 28
8, 78094, Control_c, 6, 7, 23
8, 78094, Control_c, 6, 7, 27
8, 78095, Control_c, 6, 7, 26
8, 78096, Control_c, 6, 7, 22
8, 78096, Control_c, 6, 7, 25
8, 78097, Control_c, 6, 7, 21
8, 78097, Control_c, 6, 7, 24
8, 78098, Control_c, 6, 7, 20
8, 78098, Control_c, 6, 7, 23
8, 78099, Control_c, 6, 7, 19
8, 78099, Control_c, 6, 7, 22
8, 78100, Control_c, 6, 7, 18
8, 78100, Control_c, 6, 7, 21
8, 78101, Control_c, 6, 7, 17
8, 78101, Control_c, 6, 7, 20
8, 78102, Control_c, 6, 7, 16
8, 78102, Control_c, 6, 7, 19
8, 78103, Control_c, 6, 7, 15
8, 78103, Control_c, 6, 7, 17
8, 78104, Control_c, 6, 7, 14
8, 78104, Control_c, 6, 7, 16
8, 78105, Note_on_c, 6, 72, 0
8, 78105, Note_on_c, 6, 67, 0
8, 78105, Control_c, 6, 7, 13
8, 78105, Control_c, 6, 7, 15
8, 78106, Control_c, 6, 7, 12
8, 78106, Control_c, 6, 7, 14
8, 78107, Control_c, 6, 7, 13
8, 78108, Control_c, 6, 7, 11
8, 78108, Control_c, 6, 7, 12
8, 78109, Control_c, 6, 7, 10
8, 78109, Control_c, 6, 7, 11
8, 78110, Control_c, 6, 7, 9
8, 78110, Control_c, 6, 7, 10
8, 78111, Control_c, 6, 7, 8
8, 78111, Control_c, 6, 7, 9
8, 78112, Control_c, 6, 7, 7
8, 78112, Control_c, 6, 7, 8
8, 78113, Control_c, 6, 7, 6
8, 78113, Control_c, 6, 7, 7
8, 78114, Control_c, 6, 7, 5
8, 78114, Control_c, 6, 7, 6
8, 78115, Control_c, 6, 7, 4
8, 78115, Control_c, 6, 7, 5
8, 78116, Control_c, 6, 7, 3
8, 78116, Control_c, 6, 7, 4
8, 78117, Control_c, 6, 7, 2
8, 78117, Control_c, 6, 7, 3
8, 78118, Control_c, 6, 7, 1
8, 78118, Control_c, 6, 7, 2
8, 78119, Control_c, 6, 7, 1
8, 78119, End_track
9, 0, Start_track
9, 0, MIDI_port, 0
9, 0, Program_c, 7, 62
9, 0, Control_c, 7, 7, 120
9, 0, Control_c, 7, 10, 120
9, 56040, Program_c, 7, 62
9, 56160, Control_c, 7, 10, 120
9, 56220, Control_c, 7, 7, 120
9, 56940, Note_on_c, 7, 60, 120
9, 56966, Note_on_c, 7, 60, 0
9, 56970, Note_on_c, 7, 62, 120
9, 56996, Note_on_c, 7, 62, 0
9, 57000, Note_on_c, 7, 63, 120
9, 57052, Note_on_c, 7, 63, 0
9, 57060, Note_on_c, 7, 65, 120
9, 57112, Note_on_c, 7, 65, 0
9, 57120, Note_on_c, 7, 67, 120
9, 57172, Note_on_c, 7, 67, 0
9, 57180, Note_on_c, 7, 68, 120
9, 57232, Note_on_c, 7, 68, 0
9, 57240, Note_on_c, 7, 70, 120
9, 57266, Note_on_c, 7, 70, 0
9, 57270, Note_on_c, 7, 68, 120
9, 57296, Note_on_c, 7, 68, 0
9, 57300, Note_on_c, 7, 67, 120
9, 57326, Note_on_c, 7, 67, 0
9, 57330, Note_on_c, 7, 68, 120
9, 57356, Note_on_c, 7, 68, 0
9, 57360, Note_on_c, 7, 70, 120
9, 57412, Note_on_c, 7, 70, 0
9, 57420, Note_on_c, 7, 72, 120
9, 57472, Note_on_c, 7, 72, 0
9, 57480, Note_on_c, 7, 73, 120
9, 57532, Note_on_c, 7, 73, 0
9, 57540, Note_on_c, 7, 67, 120
9, 57592, Note_on_c, 7, 67, 0
9, 57600, Note_on_c, 7, 70, 120
9, 57652, Note_on_c, 7, 70, 0
9, 57660, Note_on_c, 7, 64, 120
9, 57712, Note_on_c, 7, 64, 0
9, 57720, Note_on_c, 7, 67, 120
9, 57772, Note_on_c, 7, 67, 0
9, 57780, Note_on_c, 7, 60, 120
9, 57832, Note_on_c, 7, 60, 0
9, 57840, Note_on_c, 7, 72, 120
9, 57866, Note_on_c, 7, 72, 0
9, 57870, Note_on_c, 7, 70, 120
9, 57896, Note_on_c, 7, 70, 0
9, 57900, Note_on_c, 7, 68, 120
9, 57926, Note_on_c, 7, 68, 0
9, 57930, Note_on_c, 7, 67, 120
9, 57956, Note_on_c, 7, 67, 0
9, 57960, Note_on_c, 7, 68, 120
9, 58012, Note_on_c, 7, 68, 0
9, 58020, Note_on_c, 7, 65, 120
9, 58072, Note_on_c, 7, 65, 0
9, 58080, Note_on_c, 7, 67, 120
9, 58132, Note_on_c, 7, 67, 0
9, 58140, Note_on_c, 7, 68, 120
9, 58192, Note_on_c, 7, 68, 0
9, 58200, Note_on_c, 7, 70, 120
9, 58252, Note_on_c, 7, 70, 0
9, 58260, Note_on_c, 7, 68, 120
9, 58312, Note_on_c, 7, 68, 0
9, 58320, Note_on_c, 7, 67, 120
9, 58372, Note_on_c, 7, 67, 0
9, 58380, Note_on_c, 7, 63, 120
9, 58432, Note_on_c, 7, 63, 0
9, 58440, Note_on_c, 7, 65, 120
9, 58492, Note_on_c, 7, 65, 0
9, 58500, Note_on_c, 7, 67, 120
9, 58552, Note_on_c, 7, 67, 0
9, 58560, Note_on_c, 7, 68, 120
9, 58612, Note_on_c, 7, 68, 0
9, 58620, Note_on_c, 7, 67, 120
9, 58672, Note_on_c, 7, 67, 0
9, 58680, Note_on_c, 7, 65, 120
9, 58732, Note_on_c, 7, 65, 0
9, 58740, Note_on_c, 7, 63, 120
9, 58792, Note_on_c, 7, 63, 0
9, 58800, Note_on_c, 7, 65, 120
9, 58852, Note_on_c, 7, 65, 0
9, 58860, Note_on_c, 7, 62, 120
9, 58912, Note_on_c, 7, 62, 0
9, 58920, Note_on_c, 7, 63, 120
9, 58972, Note_on_c, 7, 63, 0
9, 58980, Note_on_c, 7, 65, 120
9, 59032, Note_on_c, 7, 65, 0
9, 59040, Note_on_c, 7, 67, 120
9, 59092, Note_on_c, 7, 67, 0
9, 59100, Note_on_c, 7, 55, 120
9, 59126, Note_on_c, 7, 55, 0
9, 59130, Note_on_c, 7, 57, 120
9, 59156, Note_on_c, 7, 57, 0
9, 59160, Note_on_c, 7, 59, 120
9, 59212, Note_on_c, 7, 59, 0
9, 59220, Note_on_c, 7, 60, 120
9, 59272, Note_on_c, 7, 60, 0
9, 59280, Note_on_c, 7, 62, 120
9, 59332, Note_on_c, 7, 62, 0
9, 59340, Note_on_c, 7, 63, 120
9, 59392, Note_on_c, 7, 63, 0
9, 59400, Note_on_c, 7, 65, 120
9, 59426, Note_on_c, 7, 65, 0
9, 59430, Note_on_c, 7, 63, 120
9, 59456, Note_on_c, 7, 63, 0
9, 59460, Note_on_c, 7, 62, 120
9, 59486, Note_on_c, 7, 62, 0
9, 59490, Note_on_c, 7, 63, 120
9, 59516, Note_on_c, 7, 63, 0
9, 59520, Note_on_c, 7, 65, 120
9, 59572, Note_on_c, 7, 65, 0
9, 59580, Note_on_c, 7, 67, 120
9, 59632, Note_on_c, 7, 67, 0
9, 59640, Note_on_c, 7, 68, 120
9, 59692, Note_on_c, 7, 68, 0
9, 59700, Note_on_c, 7, 62, 120
9, 59752, Note_on_c, 7, 62, 0
9, 59760, Note_on_c, 7, 65, 120
9, 59812, Note_on_c, 7, 65, 0
9, 59820, Note_on_c, 7, 59, 120
9, 59872, Note_on_c, 7, 59, 0
9, 59880, Note_on_c, 7, 62, 120
9, 59932, Note_on_c, 7, 62, 0
9, 59940, Note_on_c, 7, 55, 120
9, 59992, Note_on_c, 7, 55, 0
9, 60000, Note_on_c, 7, 67, 120
9, 60026, Note_on_c, 7, 67, 0
9, 60030, Note_on_c, 7, 65, 120
9, 60056, Note_on_c, 7, 65, 0
9, 60060, Note_on_c, 7, 63, 120
9, 60086, Note_on_c, 7, 63, 0
9, 60090, Note_on_c, 7, 62, 120
9, 60116, Note_on_c, 7, 62, 0
9, 60120, Note_on_c, 7, 63, 120
9, 60146, Note_on_c, 7, 63, 0
9, 60150, Note_on_c, 7, 62, 120
9, 60176, Note_on_c, 7, 62, 0
9, 60180, Note_on_c, 7, 60, 120
9, 60266, Note_on_c, 7, 60, 0
9, 60270, Note_on_c, 7, 63, 120
9, 60296, Note_on_c, 7, 63, 0
9, 60300, Note_on_c, 7, 62, 120
9, 60326, Note_on_c, 7, 62, 0
9, 60330, Note_on_c, 7, 60, 120
9, 60356, Note_on_c, 7, 60, 0
9, 60360, Note_on_c, 7, 58, 120
9, 60386, Note_on_c, 7, 58, 0
9, 60390, Note_on_c, 7, 57, 120
9, 60416, Note_on_c, 7, 57, 0
9, 60420, Note_on_c, 7, 55, 120
9, 60446, Note_on_c, 7, 55, 0
9, 60450, Note_on_c, 7, 53, 120
9, 60476, Note_on_c, 7, 53, 0
9, 60480, Note_on_c, 7, 62, 120
9, 60506, Note_on_c, 7, 62, 0
9, 60510, Note_on_c, 7, 60, 120
9, 60536, Note_on_c, 7, 60, 0
9, 60540, Note_on_c, 7, 58, 120
9, 60626, Note_on_c, 7, 58, 0
9, 60630, Note_on_c, 7, 62, 120
9, 60656, Note_on_c, 7, 62, 0
9, 60660, Note_on_c, 7, 60, 120
9, 60686, Note_on_c, 7, 60, 0
9, 60690, Note_on_c, 7, 58, 120
9, 60716, Note_on_c, 7, 58, 0
9, 60720, Note_on_c, 7, 57, 120
9, 60746, Note_on_c, 7, 57, 0
9, 60750, Note_on_c, 7, 55, 120
9, 60776, Note_on_c, 7, 55, 0
9, 60780, Note_on_c, 7, 54, 120
9, 60806, Note_on_c, 7, 54, 0
9, 60810, Note_on_c, 7, 55, 120
9, 60836, Note_on_c, 7, 55, 0
9, 60840, Note_on_c, 7, 60, 120
9, 60866, Note_on_c, 7, 60, 0
9, 60870, Note_on_c, 7, 58, 120
9, 60896, Note_on_c, 7, 58, 0
9, 60900, Note_on_c, 7, 57, 120
9, 60986, Note_on_c, 7, 57, 0
9, 60990, Note_on_c, 7, 60, 120
9, 61016, Note_on_c, 7, 60, 0
9, 61020, Note_on_c, 7, 58, 120
9, 61046, Note_on_c, 7, 58, 0
9, 61050, Note_on_c, 7, 57, 120
9, 61076, Note_on_c, 7, 57, 0
9, 61080, Note_on_c, 7, 55, 120
9, 61106, Note_on_c, 7, 55, 0
9, 61110, Note_on_c, 7, 54, 120
9, 61136, Note_on_c, 7, 54, 0
9, 61140, Note_on_c, 7, 52, 120
9, 61166, Note_on_c, 7, 52, 0
9, 61170, Note_on_c, 7, 50, 120
9, 61196, Note_on_c, 7, 50, 0
9, 61200, Note_on_c, 7, 58, 120
9, 61252, Note_on_c, 7, 58, 0
9, 61260, Note_on_c, 7, 62, 120
9, 61312, Note_on_c, 7, 62, 0
9, 61320, Note_on_c, 7, 55, 120
9, 61372, Note_on_c, 7, 55, 0
9, 61380, Note_on_c, 7, 58, 120
9, 61432, Note_on_c, 7, 58, 0
9, 61440, Note_on_c, 7, 52, 120
9, 61492, Note_on_c, 7, 52, 0
9, 61500, Note_on_c, 7, 61, 120
9, 61552, Note_on_c, 7, 61, 0
9, 61560, Note_on_c, 7, 62, 120
9, 61612, Note_on_c, 7, 62, 0
9, 61620, Note_on_c, 7, 50, 120
9, 61732, Note_on_c, 7, 50, 0
9, 61740, Note_on_c, 7, 48, 120
9, 61766, Note_on_c, 7, 48, 0
9, 61770, Note_on_c, 7, 46, 120
9, 61796, Note_on_c, 7, 46, 0
9, 61800, Note_on_c, 7, 45, 120
9, 61826, Note_on_c, 7, 45, 0
9, 61830, Note_on_c, 7, 43, 120
9, 61856, Note_on_c, 7, 43, 0
9, 61860, Note_on_c, 7, 42, 120
9, 61886, Note_on_c, 7, 42, 0
9, 61890, Note_on_c, 7, 40, 120
9, 61916, Note_on_c, 7, 40, 0
9, 61920, Note_on_c, 7, 38, 120
9, 62066, Note_on_c, 7, 38, 0
9, 62070, Note_on_c, 7, 40, 120
9, 62096, Note_on_c, 7, 40, 0
9, 62100, Note_on_c, 7, 42, 120
9, 62126, Note_on_c, 7, 42, 0
9, 62130, Note_on_c, 7, 43, 120
9, 62156, Note_on_c, 7, 43, 0
9, 62160, Note_on_c, 7, 45, 120
9, 62186, Note_on_c, 7, 45, 0
9, 62190, Note_on_c, 7, 46, 120
9, 62216, Note_on_c, 7, 46, 0
9, 62220, Note_on_c, 7, 48, 120
9, 62246, Note_on_c, 7, 48, 0
9, 62250, Note_on_c, 7, 45, 120
9, 62276, Note_on_c, 7, 45, 0
9, 62280, Note_on_c, 7, 42, 120
9, 62332, Note_on_c, 7, 42, 0
9, 62340, Note_on_c, 7, 51, 120
9, 62426, Note_on_c, 7, 51, 0
9, 62430, Note_on_c, 7, 45, 120
9, 62456, Note_on_c, 7, 45, 0
9, 62460, Note_on_c, 7, 46, 120
9, 62486, Note_on_c, 7, 46, 0
9, 62490, Note_on_c, 7, 48, 120
9, 62516, Note_on_c, 7, 48, 0
9, 62520, Note_on_c, 7, 46, 120
9, 62546, Note_on_c, 7, 46, 0
9, 62550, Note_on_c, 7, 45, 120
9, 62576, Note_on_c, 7, 45, 0
9, 62580, Note_on_c, 7, 43, 120
9, 62606, Note_on_c, 7, 43, 0
9, 62610, Note_on_c, 7, 42, 120
9, 62636, Note_on_c, 7, 42, 0
9, 62640, Note_on_c, 7, 43, 120
9, 62745, Note_on_c, 7, 43, 0
9, 62790, Note_on_c, 7, 55, 120
9, 62816, Note_on_c, 7, 55, 0
9, 62820, Note_on_c, 7, 56, 120
9, 62846, Note_on_c, 7, 56, 0
9, 62850, Note_on_c, 7, 58, 120
9, 62876, Note_on_c, 7, 58, 0
9, 62880, Note_on_c, 7, 56, 120
9, 62906, Note_on_c, 7, 56, 0
9, 62910, Note_on_c, 7, 55, 120
9, 62936, Note_on_c, 7, 55, 0
9, 62940, Note_on_c, 7, 53, 120
9, 62966, Note_on_c, 7, 53, 0
9, 62970, Note_on_c, 7, 51, 120
9, 62996, Note_on_c, 7, 51, 0
9, 63000, Note_on_c, 7, 50, 120
9, 63052, Note_on_c, 7, 50, 0
9, 63060, Note_on_c, 7, 53, 120
9, 63112, Note_on_c, 7, 53, 0
9, 63120, Note_on_c, 7, 50, 120
9, 63172, Note_on_c, 7, 50, 0
9, 63180, Note_on_c, 7, 46, 120
9, 63232, Note_on_c, 7, 46, 0
9, 63240, Note_on_c, 7, 48, 120
9, 63292, Note_on_c, 7, 48, 0
9, 63300, Note_on_c, 7, 50, 120
9, 63352, Note_on_c, 7, 50, 0
9, 63360, Note_on_c, 7, 51, 120
9, 63412, Note_on_c, 7, 51, 0
9, 63420, Note_on_c, 7, 39, 120
9, 63472, Note_on_c, 7, 39, 0
9, 63510, Note_on_c, 7, 51, 120
9, 63536, Note_on_c, 7, 51, 0
9, 63540, Note_on_c, 7, 53, 120
9, 63566, Note_on_c, 7, 53, 0
9, 63570, Note_on_c, 7, 55, 120
9, 63596, Note_on_c, 7, 55, 0
9, 63600, Note_on_c, 7, 53, 120
9, 63626, Note_on_c, 7, 53, 0
9, 63630, Note_on_c, 7, 51, 120
9, 63656, Note_on_c, 7, 51, 0
9, 63660, Note_on_c, 7, 50, 120
9, 63686, Note_on_c, 7, 50, 0
9, 63690, Note_on_c, 7, 48, 120
9, 63716, Note_on_c, 7, 48, 0
9, 63720, Note_on_c, 7, 47, 120
9, 63772, Note_on_c, 7, 47, 0
9, 63780, Note_on_c, 7, 50, 120
9, 63832, Note_on_c, 7, 50, 0
9, 63840, Note_on_c, 7, 47, 120
9, 63892, Note_on_c, 7, 47, 0
9, 63900, Note_on_c, 7, 43, 120
9, 63952, Note_on_c, 7, 43, 0
9, 63960, Note_on_c, 7, 45, 120
9, 64012, Note_on_c, 7, 45, 0
9, 64020, Note_on_c, 7, 47, 120
9, 64072, Note_on_c, 7, 47, 0
9, 64080, Note_on_c, 7, 48, 120
9, 64132, Note_on_c, 7, 48, 0
9, 64140, Note_on_c, 7, 36, 120
9, 64192, Note_on_c, 7, 36, 0
9, 64230, Note_on_c, 7, 62, 120
9, 64256, Note_on_c, 7, 62, 0
9, 64260, Note_on_c, 7, 63, 120
9, 64286, Note_on_c, 7, 63, 0
9, 64290, Note_on_c, 7, 65, 120
9, 64316, Note_on_c, 7, 65, 0
9, 64320, Note_on_c, 7, 63, 120
9, 64372, Note_on_c, 7, 63, 0
9, 64380, Note_on_c, 7, 62, 120
9, 64432, Note_on_c, 7, 62, 0
9, 64440, Note_on_c, 7, 60, 120
9, 64492, Note_on_c, 7, 60, 0
9, 64500, Note_on_c, 7, 48, 120
9, 64552, Note_on_c, 7, 48, 0
9, 64590, Note_on_c, 7, 56, 120
9, 64616, Note_on_c, 7, 56, 0
9, 64620, Note_on_c, 7, 58, 120
9, 64646, Note_on_c, 7, 58, 0
9, 64650, Note_on_c, 7, 60, 120
9, 64676, Note_on_c, 7, 60, 0
9, 64680, Note_on_c, 7, 58, 120
9, 64732, Note_on_c, 7, 58, 0
9, 64740, Note_on_c, 7, 56, 120
9, 64792, Note_on_c, 7, 56, 0
9, 64800, Note_on_c, 7, 55, 120
9, 64852, Note_on_c, 7, 55, 0
9, 64860, Note_on_c, 7, 48, 120
9, 64912, Note_on_c, 7, 48, 0
9, 64950, Note_on_c, 7, 62, 120
9, 64976, Note_on_c, 7, 62, 0
9, 64980, Note_on_c, 7, 64, 120
9, 65006, Note_on_c, 7, 64, 0
9, 65010, Note_on_c, 7, 65, 120
9, 65036, Note_on_c, 7, 65, 0
9, 65040, Note_on_c, 7, 64, 120
9, 65092, Note_on_c, 7, 64, 0
9, 65100, Note_on_c, 7, 62, 120
9, 65152, Note_on_c, 7, 62, 0
9, 65160, Note_on_c, 7, 60, 120
9, 65212, Note_on_c, 7, 60, 0
9, 65220, Note_on_c, 7, 48, 120
9, 65272, Note_on_c, 7, 48, 0
9, 65310, Note_on_c, 7, 50, 120
9, 65336, Note_on_c, 7, 50, 0
9, 65340, Note_on_c, 7, 52, 120
9, 65366, Note_on_c, 7, 52, 0
9, 65370, Note_on_c, 7, 53, 120
9, 65396, Note_on_c, 7, 53, 0
9, 65400, Note_on_c, 7, 52, 120
9, 65452, Note_on_c, 7, 52, 0
9, 65460, Note_on_c, 7, 48, 120
9, 65512, Note_on_c, 7, 48, 0
9, 65520, Note_on_c, 7, 53, 120
9, 65572, Note_on_c, 7, 53, 0
9, 65580, Note_on_c, 7, 41, 120
9, 65632, Note_on_c, 7, 41, 0
9, 65670, Note_on_c, 7, 67, 120
9, 65696, Note_on_c, 7, 67, 0
9, 65700, Note_on_c, 7, 68, 120
9, 65726, Note_on_c, 7, 68, 0
9, 65730, Note_on_c, 7, 70, 120
9, 65756, Note_on_c, 7, 70, 0
9, 65760, Note_on_c, 7, 68, 120
9, 65812, Note_on_c, 7, 68, 0
9, 65820, Note_on_c, 7, 67, 120
9, 65872, Note_on_c, 7, 67, 0
9, 65880, Note_on_c, 7, 65, 120
9, 65932, Note_on_c, 7, 65, 0
9, 65940, Note_on_c, 7, 53, 120
9, 65992, Note_on_c, 7, 53, 0
9, 66030, Note_on_c, 7, 61, 120
9, 66056, Note_on_c, 7, 61, 0
9, 66060, Note_on_c, 7, 63, 120
9, 66086, Note_on_c, 7, 63, 0
9, 66090, Note_on_c, 7, 65, 120
9, 66116, Note_on_c, 7, 65, 0
9, 66120, Note_on_c, 7, 63, 120
9, 66172, Note_on_c, 7, 63, 0
9, 66180, Note_on_c, 7, 61, 120
9, 66232, Note_on_c, 7, 61, 0
9, 66240, Note_on_c, 7, 60, 120
9, 66292, Note_on_c, 7, 60, 0
9, 66300, Note_on_c, 7, 53, 120
9, 66352, Note_on_c, 7, 53, 0
9, 66390, Note_on_c, 7, 67, 120
9, 66416, Note_on_c, 7, 67, 0
9, 66420, Note_on_c, 7, 69, 120
9, 66446, Note_on_c, 7, 69, 0
9, 66450, Note_on_c, 7, 70, 120
9, 66476, Note_on_c, 7, 70, 0
9, 66480, Note_on_c, 7, 69, 120
9, 66532, Note_on_c, 7, 69, 0
9, 66540, Note_on_c, 7, 67, 120
9, 66592, Note_on_c, 7, 67, 0
9, 66600, Note_on_c, 7, 65, 120
9, 66652, Note_on_c, 7, 65, 0
9, 66660, Note_on_c, 7, 53, 120
9, 66712, Note_on_c, 7, 53, 0
9, 66750, Note_on_c, 7, 55, 120
9, 66776, Note_on_c, 7, 55, 0
9, 66780, Note_on_c, 7, 57, 120
9, 66806, Note_on_c, 7, 57, 0
9, 66810, Note_on_c, 7, 58, 120
9, 66836, Note_on_c, 7, 58, 0
9, 66840, Note_on_c, 7, 57, 120
9, 66892, Note_on_c, 7, 57, 0
9, 66900, Note_on_c, 7, 53, 120
9, 66952, Note_on_c, 7, 53, 0
9, 66960, Note_on_c, 7, 58, 120
9, 66986, Note_on_c, 7, 58, 0
9, 66990, Note_on_c, 7, 60, 120
9, 67016, Note_on_c, 7, 60, 0
9, 67020, Note_on_c, 7, 61, 120
9, 67106, Note_on_c, 7, 61, 0
9, 67110, Note_on_c, 7, 60, 120
9, 67136, Note_on_c, 7, 60, 0
9, 67140, Note_on_c, 7, 58, 120
9, 67166, Note_on_c, 7, 58, 0
9, 67170, Note_on_c, 7, 56, 120
9, 67196, Note_on_c, 7, 56, 0
9, 67200, Note_on_c, 7, 55, 120
9, 67226, Note_on_c, 7, 55, 0
9, 67230, Note_on_c, 7, 53, 120
9, 67256, Note_on_c, 7, 53, 0
9, 67260, Note_on_c, 7, 55, 120
9, 67286, Note_on_c, 7, 55, 0
9, 67290, Note_on_c, 7, 58, 120
9, 67316, Note_on_c, 7, 58, 0
9, 67320, Note_on_c, 7, 56, 120
9, 67346, Note_on_c, 7, 56, 0
9, 67350, Note_on_c, 7, 58, 120
9, 67376, Note_on_c, 7, 58, 0
9, 67380, Note_on_c, 7, 60, 120
9, 67466, Note_on_c, 7, 60, 0
9, 67470, Note_on_c, 7, 58, 120
9, 67496, Note_on_c, 7, 58, 0
9, 67500, Note_on_c, 7, 56, 120
9, 67526, Note_on_c, 7, 56, 0
9, 67530, Note_on_c, 7, 55, 120
9, 67556, Note_on_c, 7, 55, 0
9, 67560, Note_on_c, 7, 53, 120
9, 67586, Note_on_c, 7, 53, 0
9, 67590, Note_on_c, 7, 52, 120
9, 67616, Note_on_c, 7, 52, 0
9, 67620, Note_on_c, 7, 53, 120
9, 67646, Note_on_c, 7, 53, 0
9, 67650, Note_on_c, 7, 56, 120
9, 67676, Note_on_c, 7, 56, 0
9, 67680, Note_on_c, 7, 55, 120
9, 67706, Note_on_c, 7, 55, 0
9, 67710, Note_on_c, 7, 61, 120
9, 67736, Note_on_c, 7, 61, 0
9, 67740, Note_on_c, 7, 55, 120
9, 67766, Note_on_c, 7, 55, 0
9, 67770, Note_on_c, 7, 53, 120
9, 67796, Note_on_c, 7, 53, 0
9, 67800, Note_on_c, 7, 55, 120
9, 67826, Note_on_c, 7, 55, 0
9, 67830, Note_on_c, 7, 56, 120
9, 67856, Note_on_c, 7, 56, 0
9, 67860, Note_on_c, 7, 58, 120
9, 67886, Note_on_c, 7, 58, 0
9, 67890, Note_on_c, 7, 60, 120
9, 67916, Note_on_c, 7, 60, 0
9, 67920, Note_on_c, 7, 58, 120
9, 67946, Note_on_c, 7, 58, 0
9, 67950, Note_on_c, 7, 56, 120
9, 67976, Note_on_c, 7, 56, 0
9, 67980, Note_on_c, 7, 55, 120
9, 68006, Note_on_c, 7, 55, 0
9, 68010, Note_on_c, 7, 53, 120
9, 68036, Note_on_c, 7, 53, 0
9, 68040, Note_on_c, 7, 60, 120
9, 68092, Note_on_c, 7, 60, 0
9, 68100, Note_on_c, 7, 58, 120
9, 68126, Note_on_c, 7, 58, 0
9, 68130, Note_on_c, 7, 56, 120
9, 68156, Note_on_c, 7, 56, 0
9, 68160, Note_on_c, 7, 55, 120
9, 68186, Note_on_c, 7, 55, 0
9, 68190, Note_on_c, 7, 60, 120
9, 68216, Note_on_c, 7, 60, 0
9, 68220, Note_on_c, 7, 58, 120
9, 68246, Note_on_c, 7, 58, 0
9, 68250, Note_on_c, 7, 56, 120
9, 68276, Note_on_c, 7, 56, 0
9, 68280, Note_on_c, 7, 55, 120
9, 68306, Note_on_c, 7, 55, 0
9, 68310, Note_on_c, 7, 53, 120
9, 68336, Note_on_c, 7, 53, 0
9, 68340, Note_on_c, 7, 52, 120
9, 68366, Note_on_c, 7, 52, 0
9, 68370, Note_on_c, 7, 50, 120
9, 68396, Note_on_c, 7, 50, 0
9, 68400, Note_on_c, 7, 48, 120
9, 68546, Note_on_c, 7, 48, 0
9, 68550, Note_on_c, 7, 50, 120
9, 68576, Note_on_c, 7, 50, 0
9, 68580, Note_on_c, 7, 52, 120
9, 68606, Note_on_c, 7, 52, 0
9, 68610, Note_on_c, 7, 53, 120
9, 68636, Note_on_c, 7, 53, 0
9, 68640, Note_on_c, 7, 55, 120
9, 68666, Note_on_c, 7, 55, 0
9, 68670, Note_on_c, 7, 56, 120
9, 68696, Note_on_c, 7, 56, 0
9, 68700, Note_on_c, 7, 58, 120
9, 68726, Note_on_c, 7, 58, 0
9, 68730, Note_on_c, 7, 55, 120
9, 68756, Note_on_c, 7, 55, 0
9, 68760, Note_on_c, 7, 52, 120
9, 68812, Note_on_c, 7, 52, 0
9, 68820, Note_on_c, 7, 61, 120
9, 68906, Note_on_c, 7, 61, 0
9, 68910, Note_on_c, 7, 55, 120
9, 68936, Note_on_c, 7, 55, 0
9, 68940, Note_on_c, 7, 56, 120
9, 68966, Note_on_c, 7, 56, 0
9, 68970, Note_on_c, 7, 58, 120
9, 68996, Note_on_c, 7, 58, 0
9, 69000, Note_on_c, 7, 56, 120
9, 69026, Note_on_c, 7, 56, 0
9, 69030, Note_on_c, 7, 55, 120
9, 69056, Note_on_c, 7, 55, 0
9, 69060, Note_on_c, 7, 53, 120
9, 69086, Note_on_c, 7, 53, 0
9, 69090, Note_on_c, 7, 52, 120
9, 69116, Note_on_c, 7, 52, 0
9, 69120, Note_on_c, 7, 53, 120
9, 69146, Note_on_c, 7, 53, 0
9, 69150, Note_on_c, 7, 55, 120
9, 69176, Note_on_c, 7, 55, 0
9, 69180, Note_on_c, 7, 56, 120
9, 69206, Note_on_c, 7, 56, 0
9, 69210, Note_on_c, 7, 53, 120
9, 69236, Note_on_c, 7, 53, 0
9, 69240, Note_on_c, 7, 50, 120
9, 69292, Note_on_c, 7, 50, 0
9, 69300, Note_on_c, 7, 53, 120
9, 69352, Note_on_c, 7, 53, 0
9, 69360, Note_on_c, 7, 46, 120
9, 69412, Note_on_c, 7, 46, 0
9, 69420, Note_on_c, 7, 56, 120
9, 69472, Note_on_c, 7, 56, 0
9, 69480, Note_on_c, 7, 51, 120
9, 69506, Note_on_c, 7, 51, 0
9, 69510, Note_on_c, 7, 53, 120
9, 69536, Note_on_c, 7, 53, 0
9, 69540, Note_on_c, 7, 55, 120
9, 69566, Note_on_c, 7, 55, 0
9, 69570, Note_on_c, 7, 51, 120
9, 69596, Note_on_c, 7, 51, 0
9, 69600, Note_on_c, 7, 48, 120
9, 69652, Note_on_c, 7, 48, 0
9, 69660, Note_on_c, 7, 51, 120
9, 69712, Note_on_c, 7, 51, 0
9, 69720, Note_on_c, 7, 44, 120
9, 69772, Note_on_c, 7, 44, 0
9, 69780, Note_on_c, 7, 55, 120
9, 69832, Note_on_c, 7, 55, 0
9, 69840, Note_on_c, 7, 50, 120
9, 69866, Note_on_c, 7, 50, 0
9, 69870, Note_on_c, 7, 51, 120
9, 69896, Note_on_c, 7, 51, 0
9, 69900, Note_on_c, 7, 53, 120
9, 69926, Note_on_c, 7, 53, 0
9, 69930, Note_on_c, 7, 50, 120
9, 69956, Note_on_c, 7, 50, 0
9, 69960, Note_on_c, 7, 47, 120
9, 70012, Note_on_c, 7, 47, 0
9, 70020, Note_on_c, 7, 50, 120
9, 70072, Note_on_c, 7, 50, 0
9, 70080, Note_on_c, 7, 43, 120
9, 70132, Note_on_c, 7, 43, 0
9, 70140, Note_on_c, 7, 53, 120
9, 70192, Note_on_c, 7, 53, 0
9, 70200, Note_on_c, 7, 48, 120
9, 70226, Note_on_c, 7, 48, 0
9, 70230, Note_on_c, 7, 50, 120
9, 70256, Note_on_c, 7, 50, 0
9, 70260, Note_on_c, 7, 51, 120
9, 70286, Note_on_c, 7, 51, 0
9, 70290, Note_on_c, 7, 48, 120
9, 70316, Note_on_c, 7, 48, 0
9, 70320, Note_on_c, 7, 44, 120
9, 70346, Note_on_c, 7, 44, 0
9, 70350, Note_on_c, 7, 48, 120
9, 70376, Note_on_c, 7, 48, 0
9, 70380, Note_on_c, 7, 43, 120
9, 70406, Note_on_c, 7, 43, 0
9, 70410, Note_on_c, 7, 48, 120
9, 70436, Note_on_c, 7, 48, 0
9, 70440, Note_on_c, 7, 42, 120
9, 70466, Note_on_c, 7, 42, 0
9, 70470, Note_on_c, 7, 51, 120
9, 70496, Note_on_c, 7, 51, 0
9, 70500, Note_on_c, 7, 50, 120
9, 70526, Note_on_c, 7, 50, 0
9, 70530, Note_on_c, 7, 48, 120
9, 70556, Note_on_c, 7, 48, 0
9, 70560, Note_on_c, 7, 47, 120
9, 70586, Note_on_c, 7, 47, 0
9, 70590, Note_on_c, 7, 45, 120
9, 70616, Note_on_c, 7, 45, 0
9, 70620, Note_on_c, 7, 43, 120
9, 70646, Note_on_c, 7, 43, 0
9, 70650, Note_on_c, 7, 45, 120
9, 70676, Note_on_c, 7, 45, 0
9, 70680, Note_on_c, 7, 47, 120
9, 70732, Note_on_c, 7, 47, 0
9, 70740, Note_on_c, 7, 48, 120
9, 70792, Note_on_c, 7, 48, 0
9, 70800, Note_on_c, 7, 50, 120
9, 70852, Note_on_c, 7, 50, 0
9, 70860, Note_on_c, 7, 51, 120
9, 70912, Note_on_c, 7, 51, 0
9, 70920, Note_on_c, 7, 53, 120
9, 70946, Note_on_c, 7, 53, 0
9, 70950, Note_on_c, 7, 51, 120
9, 70976, Note_on_c, 7, 51, 0
9, 70980, Note_on_c, 7, 50, 120
9, 71006, Note_on_c, 7, 50, 0
9, 71010, Note_on_c, 7, 51, 120
9, 71036, Note_on_c, 7, 51, 0
9, 71040, Note_on_c, 7, 53, 120
9, 71092, Note_on_c, 7, 53, 0
9, 71100, Note_on_c, 7, 55, 120
9, 71152, Note_on_c, 7, 55, 0
9, 71160, Note_on_c, 7, 56, 120
9, 71212, Note_on_c, 7, 56, 0
9, 71220, Note_on_c, 7, 50, 120
9, 71272, Note_on_c, 7, 50, 0
9, 71280, Note_on_c, 7, 53, 120
9, 71332, Note_on_c, 7, 53, 0
9, 71340, Note_on_c, 7, 47, 120
9, 71392, Note_on_c, 7, 47, 0
9, 71400, Note_on_c, 7, 50, 120
9, 71452, Note_on_c, 7, 50, 0
9, 71460, Note_on_c, 7, 43, 120
9, 71512, Note_on_c, 7, 43, 0
9, 71520, Note_on_c, 7, 55, 120
9, 71546, Note_on_c, 7, 55, 0
9, 71550, Note_on_c, 7, 53, 120
9, 71576, Note_on_c, 7, 53, 0
9, 71580, Note_on_c, 7, 51, 120
9, 71606, Note_on_c, 7, 51, 0
9, 71610, Note_on_c, 7, 50, 120
9, 71636, Note_on_c, 7, 50, 0
9, 71640, Note_on_c, 7, 51, 120
9, 71666, Note_on_c, 7, 51, 0
9, 71670, Note_on_c, 7, 50, 120
9, 71696, Note_on_c, 7, 50, 0
9, 71700, Note_on_c, 7, 48, 120
9, 71726, Note_on_c, 7, 48, 0
9, 71730, Note_on_c, 7, 50, 120
9, 71756, Note_on_c, 7, 50, 0
9, 71760, Note_on_c, 7, 51, 120
9, 71812, Note_on_c, 7, 51, 0
9, 71820, Note_on_c, 7, 53, 120
9, 71872, Note_on_c, 7, 53, 0
9, 71880, Note_on_c, 7, 55, 120
9, 71932, Note_on_c, 7, 55, 0
9, 71940, Note_on_c, 7, 56, 120
9, 71992, Note_on_c, 7, 56, 0
9, 72000, Note_on_c, 7, 58, 120
9, 72026, Note_on_c, 7, 58, 0
9, 72030, Note_on_c, 7, 56, 120
9, 72056, Note_on_c, 7, 56, 0
9, 72060, Note_on_c, 7, 55, 120
9, 72086, Note_on_c, 7, 55, 0
9, 72090, Note_on_c, 7, 53, 120
9, 72116, Note_on_c, 7, 53, 0
9, 72120, Note_on_c, 7, 51, 120
9, 72146, Note_on_c, 7, 51, 0
9, 72150, Note_on_c, 7, 58, 120
9, 72176, Note_on_c, 7, 58, 0
9, 72180, Note_on_c, 7, 53, 120
9, 72206, Note_on_c, 7, 53, 0
9, 72210, Note_on_c, 7, 51, 120
9, 72236, Note_on_c, 7, 51, 0
9, 72240, Note_on_c, 7, 49, 120
9, 72266, Note_on_c, 7, 49, 0
9, 72270, Note_on_c, 7, 58, 120
9, 72296, Note_on_c, 7, 58, 0
9, 72300, Note_on_c, 7, 51, 120
9, 72326, Note_on_c, 7, 51, 0
9, 72330, Note_on_c, 7, 49, 120
9, 72356, Note_on_c, 7, 49, 0
9, 72360, Note_on_c, 7, 48, 120
9, 72386, Note_on_c, 7, 48, 0
9, 72390, Note_on_c, 7, 46, 120
9, 72416, Note_on_c, 7, 46, 0
9, 72420, Note_on_c, 7, 44, 120
9, 72446, Note_on_c, 7, 44, 0
9, 72450, Note_on_c, 7, 46, 120
9, 72476, Note_on_c, 7, 46, 0
9, 72480, Note_on_c, 7, 48, 120
9, 72532, Note_on_c, 7, 48, 0
9, 72540, Note_on_c, 7, 50, 120
9, 72592, Note_on_c, 7, 50, 0
9, 72600, Note_on_c, 7, 52, 120
9, 72652, Note_on_c, 7, 52, 0
9, 72660, Note_on_c, 7, 53, 120
9, 72712, Note_on_c, 7, 53, 0
9, 72720, Note_on_c, 7, 55, 120
9, 72746, Note_on_c, 7, 55, 0
9, 72750, Note_on_c, 7, 53, 120
9, 72776, Note_on_c, 7, 53, 0
9, 72780, Note_on_c, 7, 52, 120
9, 72806, Note_on_c, 7, 52, 0
9, 72810, Note_on_c, 7, 50, 120
9, 72836, Note_on_c, 7, 50, 0
9, 72840, Note_on_c, 7, 48, 120
9, 72866, Note_on_c, 7, 48, 0
9, 72870, Note_on_c, 7, 55, 120
9, 72896, Note_on_c, 7, 55, 0
9, 72900, Note_on_c, 7, 49, 120
9, 72926, Note_on_c, 7, 49, 0
9, 72930, Note_on_c, 7, 48, 120
9, 72956, Note_on_c, 7, 48, 0
9, 72960, Note_on_c, 7, 46, 120
9, 72986, Note_on_c, 7, 46, 0
9, 72990, Note_on_c, 7, 55, 120
9, 73016, Note_on_c, 7, 55, 0
9, 73020, Note_on_c, 7, 48, 120
9, 73046, Note_on_c, 7, 48, 0
9, 73050, Note_on_c, 7, 46, 120
9, 73076, Note_on_c, 7, 46, 0
9, 73080, Note_on_c, 7, 44, 120
9, 73106, Note_on_c, 7, 44, 0
9, 73110, Note_on_c, 7, 53, 120
9, 73136, Note_on_c, 7, 53, 0
9, 73140, Note_on_c, 7, 44, 120
9, 73166, Note_on_c, 7, 44, 0
9, 73170, Note_on_c, 7, 43, 120
9, 73196, Note_on_c, 7, 43, 0
9, 73200, Note_on_c, 7, 41, 120
9, 73226, Note_on_c, 7, 41, 0
9, 73230, Note_on_c, 7, 48, 120
9, 73256, Note_on_c, 7, 48, 0
9, 73260, Note_on_c, 7, 49, 120
9, 73286, Note_on_c, 7, 49, 0
9, 73290, Note_on_c, 7, 43, 120
9, 73316, Note_on_c, 7, 43, 0
9, 73320, Note_on_c, 7, 45, 120
9, 73346, Note_on_c, 7, 45, 0
9, 73350, Note_on_c, 7, 51, 120
9, 73376, Note_on_c, 7, 51, 0
9, 73380, Note_on_c, 7, 53, 120
9, 73406, Note_on_c, 7, 53, 0
9, 73410, Note_on_c, 7, 47, 120
9, 73436, Note_on_c, 7, 47, 0
9, 73440, Note_on_c, 7, 48, 120
9, 73466, Note_on_c, 7, 48, 0
9, 73470, Note_on_c, 7, 53, 120
9, 73496, Note_on_c, 7, 53, 0
9, 73500, Note_on_c, 7, 51, 120
9, 73526, Note_on_c, 7, 51, 0
9, 73530, Note_on_c, 7, 50, 120
9, 73556, Note_on_c, 7, 50, 0
9, 73560, Note_on_c, 7, 48, 120
9, 73586, Note_on_c, 7, 48, 0
9, 73590, Note_on_c, 7, 55, 120
9, 73616, Note_on_c, 7, 55, 0
9, 73620, Note_on_c, 7, 56, 120
9, 73646, Note_on_c, 7, 56, 0
9, 73650, Note_on_c, 7, 50, 120
9, 73676, Note_on_c, 7, 50, 0
9, 73680, Note_on_c, 7, 51, 120
9, 73706, Note_on_c, 7, 51, 0
9, 73710, Note_on_c, 7, 59, 120
9, 73736, Note_on_c, 7, 59, 0
9, 73740, Note_on_c, 7, 60, 120
9, 73766, Note_on_c, 7, 60, 0
9, 73770, Note_on_c, 7, 53, 120
9, 73796, Note_on_c, 7, 53, 0
9, 73800, Note_on_c, 7, 55, 120
9, 73852, Note_on_c, 7, 55, 0
9, 73860, Note_on_c, 7, 43, 120
9, 73912, Note_on_c, 7, 43, 0
9, 73950, Note_on_c, 7, 69, 120
9, 73976, Note_on_c, 7, 69, 0
9, 73980, Note_on_c, 7, 71, 120
9, 74006, Note_on_c, 7, 71, 0
9, 74010, Note_on_c, 7, 72, 120
9, 74036, Note_on_c, 7, 72, 0
9, 74040, Note_on_c, 7, 71, 120
9, 74092, Note_on_c, 7, 71, 0
9, 74100, Note_on_c, 7, 69, 120
9, 74152, Note_on_c, 7, 69, 0
9, 74160, Note_on_c, 7, 67, 120
9, 74212, Note_on_c, 7, 67, 0
9, 74220, Note_on_c, 7, 55, 120
9, 74272, Note_on_c, 7, 55, 0
9, 74310, Note_on_c, 7, 63, 120
9, 74336, Note_on_c, 7, 63, 0
9, 74340, Note_on_c, 7, 65, 120
9, 74366, Note_on_c, 7, 65, 0
9, 74370, Note_on_c, 7, 67, 120
9, 74396, Note_on_c, 7, 67, 0
9, 74400, Note_on_c, 7, 65, 120
9, 74452, Note_on_c, 7, 65, 0
9, 74460, Note_on_c, 7, 63, 120
9, 74512, Note_on_c, 7, 63, 0
9, 74520, Note_on_c, 7, 62, 120
9, 74572, Note_on_c, 7, 62, 0
9, 74580, Note_on_c, 7, 55, 120
9, 74632, Note_on_c, 7, 55, 0
9, 74670, Note_on_c, 7, 57, 120
9, 74696, Note_on_c, 7, 57, 0
9, 74700, Note_on_c, 7, 59, 120
9, 74726, Note_on_c, 7, 59, 0
9, 74730, Note_on_c, 7, 60, 120
9, 74756, Note_on_c, 7, 60, 0
9, 74760, Note_on_c, 7, 59, 120
9, 74812, Note_on_c, 7, 59, 0
9, 74820, Note_on_c, 7, 57, 120
9, 74872, Note_on_c, 7, 57, 0
9, 74880, Note_on_c, 7, 55, 120
9, 74932, Note_on_c, 7, 55, 0
9, 74940, Note_on_c, 7, 43, 120
9, 74992, Note_on_c, 7, 43, 0
9, 75060, Note_on_c, 7, 67, 120
9, 75086, Note_on_c, 7, 67, 0
9, 75090, Note_on_c, 7, 65, 120
9, 75116, Note_on_c, 7, 65, 0
9, 75120, Note_on_c, 7, 63, 120
9, 75146, Note_on_c, 7, 63, 0
9, 75150, Note_on_c, 7, 62, 120
9, 75176, Note_on_c, 7, 62, 0
9, 75180, Note_on_c, 7, 60, 120
9, 75206, Note_on_c, 7, 60, 0
9, 75210, Note_on_c, 7, 59, 120
9, 75236, Note_on_c, 7, 59, 0
9, 75240, Note_on_c, 7, 60, 120
9, 75292, Note_on_c, 7, 60, 0
9, 75300, Note_on_c, 7, 48, 120
9, 75326, Note_on_c, 7, 48, 0
9, 75330, Note_on_c, 7, 50, 120
9, 75356, Note_on_c, 7, 50, 0
9, 75360, Note_on_c, 7, 51, 120
9, 75412, Note_on_c, 7, 51, 0
9, 75420, Note_on_c, 7, 53, 120
9, 75472, Note_on_c, 7, 53, 0
9, 75480, Note_on_c, 7, 55, 120
9, 75532, Note_on_c, 7, 55, 0
9, 75540, Note_on_c, 7, 56, 120
9, 75592, Note_on_c, 7, 56, 0
9, 75600, Note_on_c, 7, 58, 120
9, 75626, Note_on_c, 7, 58, 0
9, 75630, Note_on_c, 7, 56, 120
9, 75656, Note_on_c, 7, 56, 0
9, 75660, Note_on_c, 7, 55, 120
9, 75686, Note_on_c, 7, 55, 0
9, 75690, Note_on_c, 7, 56, 120
9, 75716, Note_on_c, 7, 56, 0
9, 75720, Note_on_c, 7, 58, 120
9, 75772, Note_on_c, 7, 58, 0
9, 75780, Note_on_c, 7, 60, 120
9, 75832, Note_on_c, 7, 60, 0
9, 75840, Note_on_c, 7, 61, 120
9, 75892, Note_on_c, 7, 61, 0
9, 75900, Note_on_c, 7, 55, 120
9, 75952, Note_on_c, 7, 55, 0
9, 75960, Note_on_c, 7, 58, 120
9, 76012, Note_on_c, 7, 58, 0
9, 76020, Note_on_c, 7, 52, 120
9, 76072, Note_on_c, 7, 52, 0
9, 76080, Note_on_c, 7, 55, 120
9, 76132, Note_on_c, 7, 55, 0
9, 76140, Note_on_c, 7, 48, 120
9, 76192, Note_on_c, 7, 48, 0
9, 76200, Note_on_c, 7, 60, 120
9, 76226, Note_on_c, 7, 60, 0
9, 76230, Note_on_c, 7, 58, 120
9, 76256, Note_on_c, 7, 58, 0
9, 76260, Note_on_c, 7, 56, 120
9, 76286, Note_on_c, 7, 56, 0
9, 76290, Note_on_c, 7, 55, 120
9, 76316, Note_on_c, 7, 55, 0
9, 76320, Note_on_c, 7, 56, 120
9, 76466, Note_on_c, 7, 56, 0
9, 76470, Note_on_c, 7, 58, 120
9, 76496, Note_on_c, 7, 58, 0
9, 76500, Note_on_c, 7, 56, 120
9, 76526, Note_on_c, 7, 56, 0
9, 76530, Note_on_c, 7, 55, 120
9, 76556, Note_on_c, 7, 55, 0
9, 76560, Note_on_c, 7, 53, 120
9, 76586, Note_on_c, 7, 53, 0
9, 76590, Note_on_c, 7, 55, 120
9, 76616, Note_on_c, 7, 55, 0
9, 76620, Note_on_c, 7, 56, 120
9, 76646, Note_on_c, 7, 56, 0
9, 76650, Note_on_c, 7, 53, 120
9, 76676, Note_on_c, 7, 53, 0
9, 76680, Note_on_c, 7, 55, 120
9, 76706, Note_on_c, 7, 55, 0
9, 76710, Note_on_c, 7, 53, 120
9, 76736, Note_on_c, 7, 53, 0
9, 76740, Note_on_c, 7, 51, 120
9, 76766, Note_on_c, 7, 51, 0
9, 76770, Note_on_c, 7, 50, 120
9, 76796, Note_on_c, 7, 50, 0
9, 76800, Note_on_c, 7, 48, 120
9, 76826, Note_on_c, 7, 48, 0
9, 76830, Note_on_c, 7, 46, 120
9, 76856, Note_on_c, 7, 46, 0
9, 76860, Note_on_c, 7, 44, 120
9, 76886, Note_on_c, 7, 44, 0
9, 76890, Note_on_c, 7, 43, 120
9, 76916, Note_on_c, 7, 43, 0
9, 76920, Note_on_c, 7, 41, 120
9, 76946, Note_on_c, 7, 41, 0
9, 76950, Note_on_c, 7, 53, 120
9, 76976, Note_on_c, 7, 53, 0
9, 76980, Note_on_c, 7, 52, 120
9, 77006, Note_on_c, 7, 52, 0
9, 77010, Note_on_c, 7, 53, 120
9, 77036, Note_on_c, 7, 53, 0
9, 77040, Note_on_c, 7, 56, 120
9, 77066, Note_on_c, 7, 56, 0
9, 77070, Note_on_c, 7, 53, 120
9, 77096, Note_on_c, 7, 53, 0
9, 77100, Note_on_c, 7, 52, 120
9, 77126, Note_on_c, 7, 52, 0
9, 77130, Note_on_c, 7, 53, 120
9, 77156, Note_on_c, 7, 53, 0
9, 77160, Note_on_c, 7, 47, 120
9, 77186, Note_on_c, 7, 47, 0
9, 77190, Note_on_c, 7, 53, 120
9, 77216, Note_on_c, 7, 53, 0
9, 77220, Note_on_c, 7, 51, 120
9, 77246, Note_on_c, 7, 51, 0
9, 77250, Note_on_c, 7, 50, 120
9, 77276, Note_on_c, 7, 50, 0
9, 77280, Note_on_c, 7, 51, 120
9, 77306, Note_on_c, 7, 51, 0
9, 77310, Note_on_c, 7, 55, 120
9, 77336, Note_on_c, 7, 55, 0
9, 77340, Note_on_c, 7, 48, 120
9, 77366, Note_on_c, 7, 48, 0
9, 77370, Note_on_c, 7, 51, 120
9, 77396, Note_on_c, 7, 51, 0
9, 77400, Note_on_c, 7, 42, 120
9, 77478, Note_on_c, 7, 42, 0
9, 77490, Note_on_c, 7, 54, 120
9, 77490, Note_on_c, 7, 63, 120
9, 77516, Note_on_c, 7, 63, 0
9, 77516, Note_on_c, 7, 54, 0
9, 77520, Note_on_c, 7, 55, 120
9, 77520, Note_on_c, 7, 62, 120
9, 77625, Note_on_c, 7, 55, 0
9, 77640, Note_on_c, 7, 43, 120
9, 77745, Note_on_c, 7, 43, 0
9, 77745, Note_on_c, 7, 62, 0
9, 77760, Note_on_c, 7, 36, 120
9, 77760, Note_on_c, 7, 63, 120
9, 78000, Control_c, 7, 7, 110
9, 78001, Control_c, 7, 7, 109
9, 78002, Control_c, 7, 7, 108
9, 78003, Control_c, 7, 7, 107
9, 78004, Control_c, 7, 7, 106
9, 78005, Control_c, 7, 7, 105
9, 78006, Control_c, 7, 7, 104
9, 78007, Control_c, 7, 7, 103
9, 78008, Control_c, 7, 7, 102
9, 78009, Control_c, 7, 7, 101
9, 78010, Control_c, 7, 7, 100
9, 78012, Control_c, 7, 7, 99
9, 78013, Control_c, 7, 7, 98
9, 78014, Control_c, 7, 7, 97
9, 78015, Control_c, 7, 7, 96
9, 78016, Control_c, 7, 7, 95
9, 78017, Control_c, 7, 7, 94
9, 78018, Control_c, 7, 7, 93
9, 78019, Control_c, 7, 7, 92
9, 78020, Control_c, 7, 7, 91
9, 78021, Control_c, 7, 7, 90
9, 78022, Control_c, 7, 7, 89
9, 78024, Control_c, 7, 7, 88
9, 78025, Control_c, 7, 7, 87
9, 78026, Control_c, 7, 7, 86
9, 78027, Control_c, 7, 7, 85
9, 78028, Control_c, 7, 7, 84
9, 78029, Control_c, 7, 7, 83
9, 78030, Control_c, 7, 7, 82
9, 78031, Control_c, 7, 7, 81
9, 78032, Control_c, 7, 7, 80
9, 78033, Control_c, 7, 7, 79
9, 78034, Control_c, 7, 7, 78
9, 78036, Control_c, 7, 7, 77
9, 78037, Control_c, 7, 7, 76
9, 78038, Control_c, 7, 7, 75
9, 78039, Control_c, 7, 7, 74
9, 78040, Control_c, 7, 7, 73
9, 78041, Control_c, 7, 7, 72
9, 78042, Control_c, 7, 7, 71
9, 78043, Control_c, 7, 7, 70
9, 78044, Control_c, 7, 7, 69
9, 78045, Control_c, 7, 7, 68
9, 78046, Control_c, 7, 7, 67
9, 78048, Control_c, 7, 7, 66
9, 78049, Control_c, 7, 7, 65
9, 78050, Control_c, 7, 7, 64
9, 78051, Control_c, 7, 7, 63
9, 78052, Control_c, 7, 7, 62
9, 78053, Control_c, 7, 7, 61
9, 78054, Control_c, 7, 7, 60
9, 78055, Control_c, 7, 7, 59
9, 78056, Control_c, 7, 7, 58
9, 78057, Control_c, 7, 7, 57
9, 78058, Control_c, 7, 7, 56
9, 78060, Control_c, 7, 7, 55
9, 78061, Control_c, 7, 7, 54
9, 78062, Control_c, 7, 7, 53
9, 78063, Control_c, 7, 7, 52
9, 78064, Control_c, 7, 7, 51
9, 78065, Control_c, 7, 7, 50
9, 78066, Control_c, 7, 7, 49
9, 78067, Control_c, 7, 7, 48
9, 78068, Control_c, 7, 7, 47
9, 78069, Control_c, 7, 7, 46
9, 78070, Control_c, 7, 7, 45
9, 78072, Control_c, 7, 7, 44
9, 78073, Control_c, 7, 7, 43
9, 78074, Control_c, 7, 7, 42
9, 78075, Control_c, 7, 7, 41
9, 78076, Control_c, 7, 7, 40
9, 78077, Control_c, 7, 7, 39
9, 78078, Control_c, 7, 7, 38
9, 78079, Control_c, 7, 7, 37
9, 78080, Control_c, 7, 7, 36
9, 78081, Control_c, 7, 7, 35
9, 78082, Control_c, 7, 7, 34
9, 78084, Control_c, 7, 7, 33
9, 78085, Control_c, 7, 7, 32
9, 78086, Control_c, 7, 7, 31
9, 78087, Control_c, 7, 7, 30
9, 78088, Control_c, 7, 7, 29
9, 78089, Control_c, 7, 7, 28
9, 78090, Control_c, 7, 7, 27
9, 78091, Control_c, 7, 7, 26
9, 78092, Control_c, 7, 7, 25
9, 78093, Control_c, 7, 7, 24
9, 78094, Control_c, 7, 7, 23
9, 78096, Control_c, 7, 7, 22
9, 78097, Control_c, 7, 7, 21
9, 78098, Control_c, 7, 7, 20
9, 78099, Control_c, 7, 7, 19
9, 78100, Control_c, 7, 7, 18
9, 78101, Control_c, 7, 7, 17
9, 78102, Control_c, 7, 7, 16
9, 78103, Control_c, 7, 7, 15
9, 78104, Control_c, 7, 7, 14
9, 78105, Note_on_c, 7, 63, 0
9, 78105, Note_on_c, 7, 36, 0
9, 78105, Control_c, 7, 7, 13
9, 78106, Control_c, 7, 7, 12
9, 78108, Control_c, 7, 7, 11
9, 78109, Control_c, 7, 7, 10
9, 78110, Control_c, 7, 7, 9
9, 78111, Control_c, 7, 7, 8
9, 78112, Control_c, 7, 7, 7
9, 78113, Control_c, 7, 7, 6
9, 78114, Control_c, 7, 7, 5
9, 78115, Control_c, 7, 7, 4
9, 78116, Control_c, 7, 7, 3
9, 78117, Control_c, 7, 7, 2
9, 78118, Control_c, 7, 7, 1
9, 78118, End_track
0, 0, End_of_file
