0, 0, Header, 1, 4, 240
1, 0, Start_track
1, 0, Time_signature, 4, 2, 24, 8
1, 0, Tempo, 714286
1, 32168, Tempo, 731707
1, 32296, Tempo, 750000
1, 32408, Tempo, 789474
1, 32504, Tempo, 821918
1, 32600, Tempo, 923077
1, 32640, Tempo, 714286
1, 32640, End_track
2, 0, Start_track
2, 0, Text_t, "RH"
2, 2040, Note_on_c, 0, 72, 64
2, 2160, Note_off_c, 0, 72, 64
2, 2160, Note_on_c, 0, 75, 64
2, 2280, Note_off_c, 0, 75, 64
2, 2280, Note_on_c, 0, 74, 64
2, 2400, Note_off_c, 0, 74, 64
2, 2520, Note_on_c, 0, 74, 64
2, 2640, Note_off_c, 0, 74, 64
2, 2640, Note_on_c, 0, 77, 64
2, 2760, Note_off_c, 0, 77, 64
2, 2760, Note_on_c, 0, 76, 64
2, 2880, Note_off_c, 0, 76, 64
2, 3000, Note_on_c, 0, 77, 64
2, 3120, Note_off_c, 0, 77, 64
2, 3120, Note_on_c, 0, 83, 64
2, 3240, Note_off_c, 0, 83, 64
2, 3240, Note_on_c, 0, 84, 64
2, 3480, Note_off_c, 0, 84, 64
2, 3480, Note_on_c, 0, 82, 64
2, 3540, Note_off_c, 0, 82, 64
2, 3540, Note_on_c, 0, 80, 64
2, 3600, Note_off_c, 0, 80, 64
2, 3600, Note_on_c, 0, 79, 64
2, 3720, Note_off_c, 0, 79, 64
2, 3720, Note_on_c, 0, 77, 64
2, 3840, Note_off_c, 0, 77, 64
2, 3840, Note_on_c, 0, 75, 64
2, 3960, Note_off_c, 0, 75, 64
2, 3960, Note_on_c, 0, 79, 64
2, 4080, Note_off_c, 0, 79, 64
2, 4080, Note_on_c, 0, 80, 64
2, 4200, Note_off_c, 0, 80, 64
2, 4200, Note_on_c, 0, 79, 64
2, 4320, Note_off_c, 0, 79, 64
2, 4320, Note_on_c, 0, 77, 64
2, 4610, Note_off_c, 0, 77, 64
2, 4620, Note_on_c, 0, 78, 64
2, 4680, Note_off_c, 0, 78, 64
2, 4680, Note_on_c, 0, 76, 64
2, 4740, Note_off_c, 0, 76, 64
2, 4740, Note_on_c, 0, 77, 64
2, 4800, Note_off_c, 0, 77, 64
2, 4800, Note_on_c, 0, 76, 64
2, 5040, Note_off_c, 0, 76, 64
2, 5100, Note_on_c, 0, 84, 64
2, 5160, Note_off_c, 0, 84, 64
2, 5160, Note_on_c, 0, 77, 64
2, 5220, Note_off_c, 0, 77, 64
2, 5220, Note_on_c, 0, 75, 64
2, 5280, Note_off_c, 0, 75, 64
2, 5280, Note_on_c, 0, 73, 64
2, 5570, Note_off_c, 0, 73, 64
2, 5580, Note_on_c, 0, 79, 64
2, 5640, Note_off_c, 0, 79, 64
2, 5640, Note_on_c, 0, 72, 64
2, 5700, Note_off_c, 0, 72, 64
2, 5700, Note_on_c, 0, 70, 64
2, 5760, Note_off_c, 0, 70, 64
2, 5760, Note_on_c, 0, 68, 64
2, 6000, Note_off_c, 0, 68, 64
2, 6000, Note_on_c, 0, 77, 64
2, 6240, Note_off_c, 0, 77, 64
2, 6240, Note_on_c, 0, 76, 64
2, 6480, Note_off_c, 0, 76, 64
2, 6480, Note_on_c, 0, 75, 64
2, 6720, Note_off_c, 0, 75, 64
2, 6720, Note_on_c, 0, 74, 64
2, 6960, Note_off_c, 0, 74, 64
2, 6960, Note_on_c, 0, 73, 64
2, 7200, Note_off_c, 0, 73, 64
2, 7200, Note_on_c, 0, 72, 64
2, 7320, Note_off_c, 0, 72, 64
2, 7320, Note_on_c, 0, 77, 64
2, 7560, Note_off_c, 0, 77, 64
2, 7560, Note_on_c, 0, 76, 64
2, 7680, Note_off_c, 0, 76, 64
2, 7680, Note_on_c, 0, 77, 64
2, 7800, Note_off_c, 0, 77, 64
2, 7800, Note_on_c, 0, 75, 64
2, 8040, Note_off_c, 0, 75, 64
2, 8040, Note_on_c, 0, 73, 64
2, 8100, Note_off_c, 0, 73, 64
2, 8100, Note_on_c, 0, 72, 64
2, 8160, Note_off_c, 0, 72, 64
2, 8160, Note_on_c, 0, 73, 64
2, 8400, Note_off_c, 0, 73, 64
2, 8400, Note_on_c, 0, 74, 64
2, 8640, Note_off_c, 0, 74, 64
2, 8640, Note_on_c, 0, 75, 64
2, 8760, Note_off_c, 0, 75, 64
2, 8760, Note_on_c, 0, 75, 64
2, 8880, Note_off_c, 0, 75, 64
2, 8880, Note_on_c, 0, 83, 64
2, 9000, Note_off_c, 0, 83, 64
2, 9000, Note_on_c, 0, 82, 64
2, 9120, Note_off_c, 0, 82, 64
2, 9240, Note_on_c, 0, 70, 64
2, 9360, Note_off_c, 0, 70, 64
2, 9360, Note_on_c, 0, 76, 64
2, 9480, Note_off_c, 0, 76, 64
2, 9480, Note_on_c, 0, 75, 64
2, 9660, Note_off_c, 0, 75, 64
2, 9660, Note_on_c, 0, 70, 64
2, 9720, Note_off_c, 0, 70, 64
2, 9720, Note_on_c, 0, 72, 64
2, 9780, Note_off_c, 0, 72, 64
2, 9780, Note_on_c, 0, 68, 64
2, 9840, Note_off_c, 0, 68, 64
2, 9840, Note_on_c, 0, 65, 64
2, 9960, Note_off_c, 0, 65, 64
2, 9960, Note_on_c, 0, 74, 64
2, 10020, Note_off_c, 0, 74, 64
2, 10020, Note_on_c, 0, 75, 64
2, 10050, Note_off_c, 0, 75, 64
2, 10050, Note_on_c, 0, 77, 64
2, 10080, Note_off_c, 0, 77, 64
2, 10080, Note_on_c, 0, 77, 64
2, 10140, Note_off_c, 0, 77, 64
2, 10140, Note_on_c, 0, 74, 64
2, 10200, Note_off_c, 0, 74, 64
2, 10200, Note_on_c, 0, 75, 64
2, 10320, Note_off_c, 0, 75, 64
2, 10440, Note_on_c, 0, 75, 64
2, 10500, Note_off_c, 0, 75, 64
2, 10500, Note_on_c, 0, 72, 64
2, 10560, Note_off_c, 0, 72, 64
2, 10560, Note_on_c, 0, 69, 64
2, 10620, Note_off_c, 0, 69, 64
2, 10620, Note_on_c, 0, 67, 64
2, 10680, Note_off_c, 0, 67, 64
2, 10680, Note_on_c, 0, 68, 64
2, 10800, Note_off_c, 0, 68, 64
2, 10920, Note_on_c, 0, 70, 64
2, 10980, Note_off_c, 0, 70, 64
2, 10980, Note_on_c, 0, 72, 64
2, 11010, Note_off_c, 0, 72, 64
2, 11010, Note_on_c, 0, 73, 64
2, 11040, Note_off_c, 0, 73, 64
2, 11040, Note_on_c, 0, 72, 64
2, 11220, Note_off_c, 0, 72, 64
2, 11220, Note_on_c, 0, 70, 64
2, 11280, Note_off_c, 0, 70, 64
2, 11280, Note_on_c, 0, 68, 70
2, 11300, Note_off_c, 0, 68, 64
2, 11300, Note_on_c, 0, 67, 48
2, 11320, Note_off_c, 0, 67, 64
2, 11320, Note_on_c, 0, 68, 51
2, 11340, Note_off_c, 0, 68, 64
2, 11340, Note_on_c, 0, 67, 54
2, 11360, Note_off_c, 0, 67, 64
2, 11360, Note_on_c, 0, 68, 57
2, 11380, Note_off_c, 0, 68, 64
2, 11380, Note_on_c, 0, 67, 60
2, 11520, Note_off_c, 0, 67, 64
2, 11520, Note_on_c, 0, 68, 64
2, 11640, Note_off_c, 0, 68, 64
2, 11640, Note_on_c, 0, 63, 64
2, 11760, Note_off_c, 0, 63, 64
2, 11760, Note_on_c, 0, 67, 64
2, 11880, Note_off_c, 0, 67, 64
2, 11880, Note_on_c, 0, 65, 64
2, 12000, Note_off_c, 0, 65, 64
2, 12120, Note_on_c, 0, 65, 64
2, 12240, Note_off_c, 0, 65, 64
2, 12240, Note_on_c, 0, 68, 64
2, 12360, Note_off_c, 0, 68, 64
2, 12360, Note_on_c, 0, 67, 64
2, 12480, Note_off_c, 0, 67, 64
2, 12600, Note_on_c, 0, 68, 64
2, 12720, Note_off_c, 0, 68, 64
2, 12720, Note_on_c, 0, 74, 64
2, 12840, Note_off_c, 0, 74, 64
2, 12840, Note_on_c, 0, 75, 64
2, 13080, Note_off_c, 0, 75, 64
2, 13080, Note_on_c, 0, 74, 64
2, 13140, Note_off_c, 0, 74, 64
2, 13140, Note_on_c, 0, 72, 64
2, 13200, Note_off_c, 0, 72, 64
2, 13200, Note_on_c, 0, 70, 64
2, 13320, Note_off_c, 0, 70, 64
2, 13320, Note_on_c, 0, 68, 64
2, 13440, Note_off_c, 0, 68, 64
2, 13440, Note_on_c, 0, 67, 64
2, 13560, Note_off_c, 0, 67, 64
2, 13560, Note_on_c, 0, 70, 64
2, 13680, Note_off_c, 0, 70, 64
2, 13680, Note_on_c, 0, 73, 64
2, 13800, Note_off_c, 0, 73, 64
2, 13800, Note_on_c, 0, 72, 64
2, 13920, Note_off_c, 0, 72, 64
2, 14040, Note_on_c, 0, 72, 64
2, 14160, Note_off_c, 0, 72, 64
2, 14160, Note_on_c, 0, 75, 64
2, 14280, Note_off_c, 0, 75, 64
2, 14280, Note_on_c, 0, 74, 64
2, 14400, Note_off_c, 0, 74, 64
2, 14520, Note_on_c, 0, 74, 64
2, 14640, Note_off_c, 0, 74, 64
2, 14640, Note_on_c, 0, 77, 64
2, 14760, Note_off_c, 0, 77, 64
2, 14760, Note_on_c, 0, 76, 64
2, 15000, Note_off_c, 0, 76, 64
2, 15000, Note_on_c, 0, 72, 64
2, 15120, Note_off_c, 0, 72, 64
2, 15120, Note_on_c, 0, 77, 64
2, 15360, Note_off_c, 0, 77, 64
2, 15360, Note_on_c, 0, 76, 64
2, 15600, Note_off_c, 0, 76, 64
2, 15600, Note_on_c, 0, 79, 64
2, 15840, Note_off_c, 0, 79, 64
2, 15840, Note_on_c, 0, 77, 64
2, 16080, Note_off_c, 0, 77, 64
2, 16080, Note_on_c, 0, 80, 64
2, 16320, Note_off_c, 0, 80, 64
2, 16320, Note_on_c, 0, 79, 64
2, 16560, Note_off_c, 0, 79, 64
2, 16560, Note_on_c, 0, 72, 64
2, 16800, Note_off_c, 0, 72, 64
2, 16800, Note_on_c, 0, 71, 64
2, 17040, Note_off_c, 0, 71, 64
2, 17040, Note_on_c, 0, 70, 64
2, 17280, Note_off_c, 0, 70, 64
2, 17280, Note_on_c, 0, 69, 64
2, 17520, Note_off_c, 0, 69, 64
2, 17520, Note_on_c, 0, 68, 64
2, 17760, Note_off_c, 0, 68, 64
2, 17760, Note_on_c, 0, 67, 64
2, 17880, Note_off_c, 0, 67, 64
2, 17880, Note_on_c, 0, 72, 64
2, 18120, Note_off_c, 0, 72, 64
2, 18120, Note_on_c, 0, 71, 64
2, 18240, Note_off_c, 0, 71, 64
2, 18240, Note_on_c, 0, 72, 64
2, 18360, Note_off_c, 0, 72, 64
2, 18360, Note_on_c, 0, 70, 64
2, 18600, Note_off_c, 0, 70, 64
2, 18600, Note_on_c, 0, 68, 64
2, 18660, Note_off_c, 0, 68, 64
2, 18660, Note_on_c, 0, 67, 64
2, 18720, Note_off_c, 0, 67, 64
2, 18720, Note_on_c, 0, 68, 64
2, 18960, Note_off_c, 0, 68, 64
2, 18960, Note_on_c, 0, 69, 64
2, 19200, Note_off_c, 0, 69, 64
2, 19200, Note_on_c, 0, 70, 64
2, 19320, Note_off_c, 0, 70, 64
2, 19320, Note_on_c, 0, 70, 64
2, 19440, Note_off_c, 0, 70, 64
2, 19440, Note_on_c, 0, 78, 64
2, 19560, Note_off_c, 0, 78, 64
2, 19560, Note_on_c, 0, 77, 64
2, 19680, Note_off_c, 0, 77, 64
2, 19800, Note_on_c, 0, 65, 64
2, 19920, Note_off_c, 0, 65, 64
2, 19920, Note_on_c, 0, 71, 64
2, 20040, Note_off_c, 0, 71, 64
2, 20040, Note_on_c, 0, 70, 64
2, 20280, Note_off_c, 0, 70, 64
2, 20280, Note_on_c, 0, 68, 64
2, 20520, Note_off_c, 0, 68, 64
2, 20520, Note_on_c, 0, 66, 64
2, 20580, Note_off_c, 0, 66, 64
2, 20580, Note_on_c, 0, 65, 64
2, 20640, Note_off_c, 0, 65, 64
2, 20640, Note_on_c, 0, 66, 64
2, 20880, Note_off_c, 0, 66, 64
2, 20880, Note_on_c, 0, 67, 64
2, 21120, Note_off_c, 0, 67, 64
2, 21120, Note_on_c, 0, 68, 64
2, 21240, Note_off_c, 0, 68, 64
2, 21240, Note_on_c, 0, 68, 64
2, 21360, Note_off_c, 0, 68, 64
2, 21360, Note_on_c, 0, 76, 64
2, 21480, Note_off_c, 0, 76, 64
2, 21480, Note_on_c, 0, 75, 64
2, 21600, Note_off_c, 0, 75, 64
2, 21720, Note_on_c, 0, 63, 64
2, 21840, Note_off_c, 0, 63, 64
2, 21840, Note_on_c, 0, 69, 64
2, 21960, Note_off_c, 0, 69, 64
2, 21960, Note_on_c, 0, 68, 64
2, 22200, Note_off_c, 0, 68, 64
2, 22200, Note_on_c, 0, 68, 64
2, 22320, Note_off_c, 0, 68, 64
2, 22320, Note_on_c, 0, 73, 64
2, 22560, Note_off_c, 0, 73, 64
2, 22560, Note_on_c, 0, 72, 64
2, 22800, Note_off_c, 0, 72, 64
2, 22800, Note_on_c, 0, 71, 64
2, 23040, Note_off_c, 0, 71, 64
2, 23040, Note_on_c, 0, 70, 64
2, 23280, Note_off_c, 0, 70, 64
2, 23280, Note_on_c, 0, 69, 64
2, 23520, Note_off_c, 0, 69, 64
2, 23520, Note_on_c, 0, 68, 64
2, 23640, Note_off_c, 0, 68, 64
2, 23640, Note_on_c, 0, 73, 64
2, 23880, Note_off_c, 0, 73, 64
2, 23880, Note_on_c, 0, 72, 64
2, 24000, Note_off_c, 0, 72, 64
2, 24000, Note_on_c, 0, 73, 64
2, 24120, Note_off_c, 0, 73, 64
2, 24120, Note_on_c, 0, 68, 64
2, 24240, Note_off_c, 0, 68, 64
2, 24240, Note_on_c, 0, 72, 64
2, 24360, Note_off_c, 0, 72, 64
2, 24360, Note_on_c, 0, 70, 64
2, 24480, Note_off_c, 0, 70, 64
2, 24600, Note_on_c, 0, 70, 64
2, 24720, Note_off_c, 0, 70, 64
2, 24720, Note_on_c, 0, 73, 64
2, 24840, Note_off_c, 0, 73, 64
2, 24840, Note_on_c, 0, 72, 64
2, 24960, Note_off_c, 0, 72, 64
2, 25080, Note_on_c, 0, 73, 64
2, 25200, Note_off_c, 0, 73, 64
2, 25200, Note_on_c, 0, 79, 64
2, 25320, Note_off_c, 0, 79, 64
2, 25320, Note_on_c, 0, 80, 64
2, 25560, Note_off_c, 0, 80, 64
2, 25560, Note_on_c, 0, 79, 64
2, 25620, Note_off_c, 0, 79, 64
2, 25620, Note_on_c, 0, 77, 64
2, 25680, Note_off_c, 0, 77, 64
2, 25680, Note_on_c, 0, 75, 64
2, 25800, Note_off_c, 0, 75, 64
2, 25800, Note_on_c, 0, 73, 64
2, 25920, Note_off_c, 0, 73, 64
2, 25920, Note_on_c, 0, 72, 64
2, 26160, Note_off_c, 0, 72, 64
2, 26160, Note_on_c, 0, 75, 64
2, 26400, Note_off_c, 0, 75, 64
2, 26400, Note_on_c, 0, 74, 64
2, 26640, Note_off_c, 0, 74, 64
2, 26640, Note_on_c, 0, 77, 64
2, 26880, Note_off_c, 0, 77, 64
2, 26880, Note_on_c, 0, 75, 64
2, 27120, Note_off_c, 0, 75, 64
2, 27120, Note_on_c, 0, 78, 64
2, 27360, Note_off_c, 0, 78, 64
2, 27360, Note_on_c, 0, 77, 64
2, 27480, Note_off_c, 0, 77, 64
2, 27480, Note_on_c, 0, 70, 64
2, 27600, Note_off_c, 0, 70, 64
2, 27600, Note_on_c, 0, 73, 64
2, 27720, Note_off_c, 0, 73, 64
2, 27720, Note_on_c, 0, 72, 64
2, 27840, Note_off_c, 0, 72, 64
2, 27960, Note_on_c, 0, 72, 64
2, 28080, Note_off_c, 0, 72, 64
2, 28080, Note_on_c, 0, 75, 64
2, 28200, Note_off_c, 0, 75, 64
2, 28200, Note_on_c, 0, 74, 64
2, 28320, Note_off_c, 0, 74, 64
2, 28440, Note_on_c, 0, 74, 64
2, 28560, Note_off_c, 0, 74, 64
2, 28560, Note_on_c, 0, 77, 64
2, 28680, Note_off_c, 0, 77, 64
2, 28680, Note_on_c, 0, 76, 64
2, 28920, Note_off_c, 0, 76, 64
2, 28920, Note_on_c, 0, 65, 64
2, 29040, Note_off_c, 0, 65, 64
2, 29040, Note_on_c, 0, 68, 64
2, 29160, Note_off_c, 0, 68, 64
2, 29160, Note_on_c, 0, 67, 64
2, 29280, Note_off_c, 0, 67, 64
2, 29400, Note_on_c, 0, 67, 64
2, 29520, Note_off_c, 0, 67, 64
2, 29520, Note_on_c, 0, 70, 64
2, 29640, Note_off_c, 0, 70, 64
2, 29640, Note_on_c, 0, 69, 64
2, 29760, Note_off_c, 0, 69, 64
2, 29880, Note_on_c, 0, 70, 64
2, 30000, Note_off_c, 0, 70, 64
2, 30000, Note_on_c, 0, 76, 64
2, 30120, Note_off_c, 0, 76, 64
2, 30120, Note_on_c, 0, 77, 64
2, 30360, Note_off_c, 0, 77, 64
2, 30360, Note_on_c, 0, 75, 64
2, 30420, Note_off_c, 0, 75, 64
2, 30420, Note_on_c, 0, 73, 64
2, 30480, Note_off_c, 0, 73, 64
2, 30480, Note_on_c, 0, 72, 64
2, 30600, Note_off_c, 0, 72, 64
2, 30600, Note_on_c, 0, 70, 64
2, 30720, Note_off_c, 0, 70, 64
2, 30720, Note_on_c, 0, 68, 64
2, 30960, Note_off_c, 0, 68, 64
2, 31080, Note_on_c, 0, 70, 64
2, 31140, Note_off_c, 0, 70, 64
2, 31140, Note_on_c, 0, 72, 64
2, 31170, Note_off_c, 0, 72, 64
2, 31170, Note_on_c, 0, 73, 64
2, 31200, Note_off_c, 0, 73, 64
2, 31200, Note_on_c, 0, 73, 64
2, 31260, Note_off_c, 0, 73, 64
2, 31260, Note_on_c, 0, 71, 64
2, 31320, Note_off_c, 0, 71, 64
2, 31320, Note_on_c, 0, 72, 64
2, 31440, Note_off_c, 0, 72, 64
2, 31560, Note_on_c, 0, 84, 64
2, 31620, Note_off_c, 0, 84, 64
2, 31620, Note_on_c, 0, 81, 64
2, 31680, Note_off_c, 0, 81, 64
2, 31680, Note_on_c, 0, 78, 64
2, 31740, Note_off_c, 0, 78, 64
2, 31740, Note_on_c, 0, 76, 64
2, 31800, Note_off_c, 0, 76, 64
2, 31800, Note_on_c, 0, 77, 64
2, 31920, Note_off_c, 0, 77, 64
2, 32040, Note_on_c, 0, 67, 64
2, 32100, Note_off_c, 0, 67, 64
2, 32100, Note_on_c, 0, 68, 64
2, 32130, Note_off_c, 0, 68, 64
2, 32130, Note_on_c, 0, 70, 64
2, 32160, Note_off_c, 0, 70, 64
2, 32160, Note_on_c, 0, 68, 64
2, 32340, Note_off_c, 0, 68, 64
2, 32340, Note_on_c, 0, 67, 64
2, 32400, Note_off_c, 0, 67, 64
2, 32400, Note_on_c, 0, 64, 64
2, 32580, Note_off_c, 0, 64, 64
2, 32580, Note_on_c, 0, 65, 64
2, 32640, Note_off_c, 0, 65, 64
2, 32640, Note_on_c, 0, 65, 64
2, 34080, Note_off_c, 0, 65, 64
2, 34080, End_track
3, 0, Start_track
3, 0, Text_t, "RH/LH"
3, 120, Note_on_c, 0, 65, 64
3, 240, Note_off_c, 0, 65, 64
3, 240, Note_on_c, 0, 68, 64
3, 360, Note_off_c, 0, 68, 64
3, 360, Note_on_c, 0, 67, 64
3, 480, Note_off_c, 0, 67, 64
3, 600, Note_on_c, 0, 67, 64
3, 720, Note_off_c, 0, 67, 64
3, 720, Note_on_c, 0, 70, 64
3, 840, Note_off_c, 0, 70, 64
3, 840, Note_on_c, 0, 69, 64
3, 960, Note_off_c, 0, 69, 64
3, 1080, Note_on_c, 0, 70, 64
3, 1200, Note_off_c, 0, 70, 64
3, 1200, Note_on_c, 0, 76, 64
3, 1320, Note_off_c, 0, 76, 64
3, 1320, Note_on_c, 0, 77, 64
3, 1560, Note_off_c, 0, 77, 64
3, 1560, Note_on_c, 0, 75, 64
3, 1620, Note_off_c, 0, 75, 64
3, 1620, Note_on_c, 0, 73, 64
3, 1680, Note_off_c, 0, 73, 64
3, 1680, Note_on_c, 0, 72, 64
3, 1800, Note_off_c, 0, 72, 64
3, 1800, Note_on_c, 0, 70, 64
3, 1920, Note_off_c, 0, 70, 64
3, 1920, Note_on_c, 0, 68, 64
3, 2160, Note_off_c, 0, 68, 64
3, 2160, Note_on_c, 0, 72, 64
3, 2400, Note_off_c, 0, 72, 64
3, 2400, Note_on_c, 0, 71, 64
3, 2640, Note_off_c, 0, 71, 64
3, 2640, Note_on_c, 0, 70, 64
3, 2880, Note_off_c, 0, 70, 64
3, 2880, Note_on_c, 0, 69, 64
3, 3120, Note_off_c, 0, 69, 64
3, 3120, Note_on_c, 0, 68, 64
3, 3360, Note_off_c, 0, 68, 64
3, 3360, Note_on_c, 0, 67, 64
3, 3480, Note_off_c, 0, 67, 64
3, 3480, Note_on_c, 0, 72, 64
3, 3720, Note_off_c, 0, 72, 64
3, 3720, Note_on_c, 0, 71, 64
3, 3840, Note_off_c, 0, 71, 64
3, 3840, Note_on_c, 0, 72, 64
3, 4080, Note_off_c, 0, 72, 64
3, 4200, Note_on_c, 0, 72, 64
3, 4320, Note_off_c, 0, 72, 64
3, 4320, Note_on_c, 0, 73, 64
3, 4440, Note_off_c, 0, 73, 64
3, 4440, Note_on_c, 0, 72, 64
3, 4560, Note_off_c, 0, 72, 64
3, 4560, Note_on_c, 0, 70, 64
3, 4850, Note_off_c, 0, 70, 64
3, 4860, Note_on_c, 0, 72, 64
3, 4920, Note_off_c, 0, 72, 64
3, 4920, Note_on_c, 0, 69, 64
3, 4980, Note_off_c, 0, 69, 64
3, 4980, Note_on_c, 0, 70, 64
3, 5040, Note_off_c, 0, 70, 64
3, 5040, Note_on_c, 0, 69, 64
3, 5280, Note_off_c, 0, 69, 64
3, 5280, Note_on_c, 0, 70, 64
3, 5340, Note_off_c, 0, 70, 64
3, 5340, Note_on_c, 0, 66, 64
3, 5400, Note_off_c, 0, 66, 64
3, 5400, Note_on_c, 0, 64, 64
3, 5460, Note_off_c, 0, 64, 64
3, 5460, Note_on_c, 0, 65, 64
3, 5520, Note_off_c, 0, 65, 64
3, 5520, Note_on_c, 0, 64, 64
3, 5760, Note_off_c, 0, 64, 64
3, 5760, Note_on_c, 0, 65, 64
3, 6000, Note_off_c, 0, 65, 64
3, 6120, Note_on_c, 0, 70, 64
3, 6180, Note_off_c, 0, 70, 64
3, 6180, Note_on_c, 0, 72, 64
3, 6210, Note_off_c, 0, 72, 64
3, 6210, Note_on_c, 0, 73, 64
3, 6240, Note_off_c, 0, 73, 64
3, 6240, Note_on_c, 0, 73, 64
3, 6300, Note_off_c, 0, 73, 64
3, 6300, Note_on_c, 0, 71, 64
3, 6360, Note_off_c, 0, 71, 64
3, 6360, Note_on_c, 0, 72, 64
3, 6480, Note_off_c, 0, 72, 64
3, 6600, Note_on_c, 0, 72, 64
3, 6660, Note_off_c, 0, 72, 64
3, 6660, Note_on_c, 0, 69, 64
3, 6720, Note_off_c, 0, 69, 64
3, 6720, Note_on_c, 0, 66, 64
3, 6780, Note_off_c, 0, 66, 64
3, 6780, Note_on_c, 0, 64, 64
3, 6840, Note_off_c, 0, 64, 64
3, 6840, Note_on_c, 0, 65, 64
3, 6960, Note_off_c, 0, 65, 64
3, 7080, Note_on_c, 0, 67, 64
3, 7140, Note_off_c, 0, 67, 64
3, 7140, Note_on_c, 0, 68, 64
3, 7170, Note_off_c, 0, 68, 64
3, 7170, Note_on_c, 0, 70, 64
3, 7200, Note_off_c, 0, 70, 64
3, 7200, Note_on_c, 0, 68, 64
3, 7380, Note_off_c, 0, 68, 64
3, 7380, Note_on_c, 0, 70, 64
3, 7440, Note_off_c, 0, 70, 64
3, 7440, Note_on_c, 0, 68, 64
3, 7560, Note_off_c, 0, 68, 64
3, 7560, Note_on_c, 0, 67, 64
3, 7680, Note_off_c, 0, 67, 64
3, 7680, Note_on_c, 0, 65, 64
3, 7800, Note_off_c, 0, 65, 64
3, 7800, Note_on_c, 0, 60, 64
3, 7920, Note_off_c, 0, 60, 64
3, 7920, Note_on_c, 0, 66, 64
3, 8040, Note_off_c, 0, 66, 64
3, 8040, Note_on_c, 0, 65, 64
3, 8160, Note_off_c, 0, 65, 64
3, 8280, Note_on_c, 0, 65, 64
3, 8400, Note_off_c, 0, 65, 64
3, 8400, Note_on_c, 0, 71, 64
3, 8520, Note_off_c, 0, 71, 64
3, 8520, Note_on_c, 0, 70, 64
3, 8760, Note_off_c, 0, 70, 64
3, 8760, Note_on_c, 0, 68, 64
3, 9000, Note_off_c, 0, 68, 64
3, 9000, Note_on_c, 0, 66, 64
3, 9060, Note_off_c, 0, 66, 64
3, 9060, Note_on_c, 0, 65, 64
3, 9120, Note_off_c, 0, 65, 64
3, 9120, Note_on_c, 0, 66, 64
3, 9360, Note_off_c, 0, 66, 64
3, 9360, Note_on_c, 0, 67, 64
3, 9600, Note_off_c, 0, 67, 64
3, 9600, Note_on_c, 0, 68, 64
3, 9720, Note_off_c, 0, 68, 64
3, 9720, Note_on_c, 0, 56, 64
3, 9840, Note_off_c, 0, 56, 64
3, 9840, Note_on_c, 0, 60, 64
3, 9960, Note_off_c, 0, 60, 64
3, 9960, Note_on_c, 0, 58, 64
3, 10080, Note_off_c, 0, 58, 64
3, 10200, Note_on_c, 0, 58, 64
3, 10320, Note_off_c, 0, 58, 64
3, 10320, Note_on_c, 0, 61, 64
3, 10440, Note_off_c, 0, 61, 64
3, 10440, Note_on_c, 0, 60, 64
3, 10560, Note_off_c, 0, 60, 64
3, 10680, Note_on_c, 0, 61, 64
3, 10800, Note_off_c, 0, 61, 64
3, 10800, Note_on_c, 0, 67, 64
3, 10920, Note_off_c, 0, 67, 64
3, 10920, Note_on_c, 0, 68, 64
3, 11160, Note_off_c, 0, 68, 64
3, 11160, Note_on_c, 0, 67, 64
3, 11220, Note_off_c, 0, 67, 64
3, 11220, Note_on_c, 0, 65, 64
3, 11280, Note_off_c, 0, 65, 64
3, 11280, Note_on_c, 0, 63, 64
3, 11400, Note_off_c, 0, 63, 64
3, 11400, Note_on_c, 0, 61, 64
3, 11520, Note_off_c, 0, 61, 64
3, 11520, Note_on_c, 0, 60, 64
3, 11760, Note_off_c, 0, 60, 64
3, 11760, Note_on_c, 0, 63, 64
3, 12000, Note_off_c, 0, 63, 64
3, 12000, Note_on_c, 0, 62, 64
3, 12240, Note_off_c, 0, 62, 64
3, 12240, Note_on_c, 0, 61, 64
3, 12480, Note_off_c, 0, 61, 64
3, 12480, Note_on_c, 0, 60, 64
3, 12720, Note_off_c, 0, 60, 64
3, 12720, Note_on_c, 0, 59, 64
3, 12960, Note_off_c, 0, 59, 64
3, 12960, Note_on_c, 0, 58, 64
3, 13080, Note_off_c, 0, 58, 64
3, 13080, Note_on_c, 0, 63, 64
3, 13320, Note_off_c, 0, 63, 64
3, 13320, Note_on_c, 0, 62, 64
3, 13440, Note_off_c, 0, 62, 64
3, 13440, Note_on_c, 0, 63, 64
3, 13680, Note_off_c, 0, 63, 64
3, 13680, Note_on_c, 0, 70, 64
3, 13920, Note_off_c, 0, 70, 64
3, 13920, Note_on_c, 0, 69, 64
3, 14160, Note_off_c, 0, 69, 64
3, 14160, Note_on_c, 0, 72, 64
3, 14400, Note_off_c, 0, 72, 64
3, 14400, Note_on_c, 0, 70, 64
3, 14640, Note_off_c, 0, 70, 64
3, 14640, Note_on_c, 0, 73, 64
3, 14880, Note_off_c, 0, 73, 64
3, 14880, Note_on_c, 0, 72, 64
3, 15000, Note_off_c, 0, 72, 64
3, 15000, Note_on_c, 0, 65, 64
3, 15120, Note_off_c, 0, 65, 64
3, 15120, Note_on_c, 0, 68, 64
3, 15240, Note_off_c, 0, 68, 64
3, 15240, Note_on_c, 0, 67, 64
3, 15360, Note_off_c, 0, 67, 64
3, 15480, Note_on_c, 0, 67, 64
3, 15600, Note_off_c, 0, 67, 64
3, 15600, Note_on_c, 0, 70, 64
3, 15720, Note_off_c, 0, 70, 64
3, 15720, Note_on_c, 0, 69, 64
3, 15840, Note_off_c, 0, 69, 64
3, 15960, Note_on_c, 0, 69, 64
3, 16080, Note_off_c, 0, 69, 64
3, 16080, Note_on_c, 0, 72, 64
3, 16200, Note_off_c, 0, 72, 64
3, 16200, Note_on_c, 0, 71, 64
3, 16320, Note_off_c, 0, 71, 64
3, 16440, Note_on_c, 0, 60, 64
3, 16560, Note_off_c, 0, 60, 64
3, 16560, Note_on_c, 0, 63, 64
3, 16680, Note_off_c, 0, 63, 64
3, 16680, Note_on_c, 0, 62, 64
3, 16800, Note_off_c, 0, 62, 64
3, 16920, Note_on_c, 0, 62, 64
3, 17040, Note_off_c, 0, 62, 64
3, 17040, Note_on_c, 0, 65, 64
3, 17160, Note_off_c, 0, 65, 64
3, 17160, Note_on_c, 0, 64, 64
3, 17280, Note_off_c, 0, 64, 64
3, 17400, Note_on_c, 0, 65, 64
3, 17520, Note_off_c, 0, 65, 64
3, 17520, Note_on_c, 0, 71, 64
3, 17640, Note_off_c, 0, 71, 64
3, 17640, Note_on_c, 0, 72, 64
3, 17880, Note_off_c, 0, 72, 64
3, 17880, Note_on_c, 0, 70, 64
3, 17940, Note_off_c, 0, 70, 64
3, 17940, Note_on_c, 0, 68, 64
3, 18000, Note_off_c, 0, 68, 64
3, 18000, Note_on_c, 0, 67, 64
3, 18120, Note_off_c, 0, 67, 64
3, 18120, Note_on_c, 0, 65, 64
3, 18240, Note_off_c, 0, 65, 64
3, 18240, Note_on_c, 0, 63, 64
3, 18480, Note_off_c, 0, 63, 64
3, 18480, Note_on_c, 0, 64, 64
3, 18720, Note_off_c, 0, 64, 64
3, 18720, Note_on_c, 0, 65, 64
3, 18840, Note_off_c, 0, 65, 64
3, 18840, Note_on_c, 0, 63, 64
3, 19080, Note_off_c, 0, 63, 64
3, 19080, Note_on_c, 0, 62, 64
3, 19140, Note_off_c, 0, 62, 64
3, 19140, Note_on_c, 0, 60, 64
3, 19200, Note_off_c, 0, 60, 64
3, 19200, Note_on_c, 0, 62, 64
3, 19320, Note_off_c, 0, 62, 64
3, 19320, Note_on_c, 0, 67, 64
3, 19440, Note_off_c, 0, 67, 64
3, 19440, Note_on_c, 0, 69, 64
3, 19680, Note_off_c, 0, 69, 64
3, 19680, Note_on_c, 0, 70, 64
3, 19800, Note_off_c, 0, 70, 64
3, 19800, Note_on_c, 0, 68, 64
3, 20040, Note_off_c, 0, 68, 64
3, 20040, Note_on_c, 0, 67, 64
3, 20100, Note_off_c, 0, 67, 64
3, 20100, Note_on_c, 0, 65, 64
3, 20160, Note_off_c, 0, 65, 64
3, 20160, Note_on_c, 0, 67, 64
3, 20280, Note_off_c, 0, 67, 64
3, 20280, Note_on_c, 0, 65, 64
3, 20340, Note_off_c, 0, 65, 64
3, 20340, Note_on_c, 0, 63, 64
3, 20400, Note_off_c, 0, 63, 64
3, 20400, Note_on_c, 0, 62, 64
3, 20640, Note_off_c, 0, 62, 64
3, 20640, Note_on_c, 0, 63, 64
3, 20760, Note_off_c, 0, 63, 64
3, 20760, Note_on_c, 0, 61, 64
3, 21000, Note_off_c, 0, 61, 64
3, 21000, Note_on_c, 0, 60, 64
3, 21060, Note_off_c, 0, 60, 64
3, 21060, Note_on_c, 0, 58, 64
3, 21120, Note_off_c, 0, 58, 64
3, 21120, Note_on_c, 0, 60, 64
3, 21240, Note_off_c, 0, 60, 64
3, 21240, Note_on_c, 0, 65, 64
3, 21360, Note_off_c, 0, 65, 64
3, 21360, Note_on_c, 0, 67, 64
3, 21600, Note_off_c, 0, 67, 64
3, 21600, Note_on_c, 0, 68, 64
3, 21720, Note_off_c, 0, 68, 64
3, 21720, Note_on_c, 0, 66, 64
3, 21960, Note_off_c, 0, 66, 64
3, 21960, Note_on_c, 0, 65, 64
3, 22020, Note_off_c, 0, 65, 64
3, 22020, Note_on_c, 0, 63, 64
3, 22080, Note_off_c, 0, 63, 64
3, 22080, Note_on_c, 0, 65, 64
3, 22320, Note_off_c, 0, 65, 64
3, 22440, Note_on_c, 0, 67, 64
3, 22500, Note_off_c, 0, 67, 64
3, 22500, Note_on_c, 0, 68, 64
3, 22530, Note_off_c, 0, 68, 64
3, 22530, Note_on_c, 0, 70, 64
3, 22560, Note_off_c, 0, 70, 64
3, 22560, Note_on_c, 0, 70, 64
3, 22620, Note_off_c, 0, 70, 64
3, 22620, Note_on_c, 0, 67, 64
3, 22680, Note_off_c, 0, 67, 64
3, 22680, Note_on_c, 0, 68, 64
3, 22800, Note_off_c, 0, 68, 64
3, 22920, Note_on_c, 0, 68, 64
3, 22980, Note_off_c, 0, 68, 64
3, 22980, Note_on_c, 0, 65, 64
3, 23040, Note_off_c, 0, 65, 64
3, 23040, Note_on_c, 0, 62, 64
3, 23100, Note_off_c, 0, 62, 64
3, 23100, Note_on_c, 0, 60, 64
3, 23160, Note_off_c, 0, 60, 64
3, 23160, Note_on_c, 0, 61, 64
3, 23280, Note_off_c, 0, 61, 64
3, 23400, Note_on_c, 0, 63, 64
3, 23460, Note_off_c, 0, 63, 64
3, 23460, Note_on_c, 0, 65, 64
3, 23490, Note_off_c, 0, 65, 64
3, 23490, Note_on_c, 0, 66, 64
3, 23520, Note_off_c, 0, 66, 64
3, 23520, Note_on_c, 0, 65, 64
3, 23700, Note_off_c, 0, 65, 64
3, 23700, Note_on_c, 0, 66, 64
3, 23760, Note_off_c, 0, 66, 64
3, 23760, Note_on_c, 0, 65, 64
3, 23880, Note_off_c, 0, 65, 64
3, 23880, Note_on_c, 0, 63, 64
3, 24000, Note_off_c, 0, 63, 64
3, 24000, Note_on_c, 0, 61, 64
3, 24240, Note_off_c, 0, 61, 64
3, 24240, Note_on_c, 0, 68, 64
3, 24480, Note_off_c, 0, 68, 64
3, 24480, Note_on_c, 0, 67, 64
3, 24720, Note_off_c, 0, 67, 64
3, 24720, Note_on_c, 0, 66, 64
3, 24960, Note_off_c, 0, 66, 64
3, 24960, Note_on_c, 0, 65, 64
3, 25200, Note_off_c, 0, 65, 64
3, 25200, Note_on_c, 0, 64, 64
3, 25440, Note_off_c, 0, 64, 64
3, 25440, Note_on_c, 0, 63, 64
3, 25560, Note_off_c, 0, 63, 64
3, 25560, Note_on_c, 0, 68, 64
3, 25800, Note_off_c, 0, 68, 64
3, 25800, Note_on_c, 0, 67, 64
3, 25920, Note_off_c, 0, 67, 64
3, 25920, Note_on_c, 0, 68, 64
3, 26040, Note_off_c, 0, 68, 64
3, 26040, Note_on_c, 0, 63, 64
3, 26160, Note_off_c, 0, 63, 64
3, 26160, Note_on_c, 0, 66, 64
3, 26280, Note_off_c, 0, 66, 64
3, 26280, Note_on_c, 0, 65, 64
3, 26400, Note_off_c, 0, 65, 64
3, 26520, Note_on_c, 0, 65, 64
3, 26640, Note_off_c, 0, 65, 64
3, 26640, Note_on_c, 0, 68, 64
3, 26760, Note_off_c, 0, 68, 64
3, 26760, Note_on_c, 0, 67, 64
3, 26880, Note_off_c, 0, 67, 64
3, 27000, Note_on_c, 0, 67, 64
3, 27120, Note_off_c, 0, 67, 64
3, 27120, Note_on_c, 0, 70, 64
3, 27240, Note_off_c, 0, 70, 64
3, 27240, Note_on_c, 0, 69, 64
3, 27480, Note_off_c, 0, 69, 64
3, 27480, Note_on_c, 0, 65, 64
3, 27600, Note_off_c, 0, 65, 64
3, 27600, Note_on_c, 0, 70, 64
3, 27840, Note_off_c, 0, 70, 64
3, 27840, Note_on_c, 0, 69, 64
3, 28080, Note_off_c, 0, 69, 64
3, 28080, Note_on_c, 0, 72, 64
3, 28320, Note_off_c, 0, 72, 64
3, 28320, Note_on_c, 0, 70, 64
3, 28560, Note_off_c, 0, 70, 64
3, 28560, Note_on_c, 0, 73, 64
3, 28800, Note_off_c, 0, 73, 64
3, 28800, Note_on_c, 0, 72, 64
3, 29040, Note_off_c, 0, 72, 64
3, 29040, Note_on_c, 0, 65, 64
3, 29280, Note_off_c, 0, 65, 64
3, 29280, Note_on_c, 0, 64, 64
3, 29520, Note_off_c, 0, 64, 64
3, 29520, Note_on_c, 0, 63, 64
3, 29760, Note_off_c, 0, 63, 64
3, 29760, Note_on_c, 0, 62, 64
3, 30000, Note_off_c, 0, 62, 64
3, 30000, Note_on_c, 0, 61, 64
3, 30240, Note_off_c, 0, 61, 64
3, 30240, Note_on_c, 0, 60, 64
3, 30360, Note_off_c, 0, 60, 64
3, 30360, Note_on_c, 0, 65, 64
3, 30600, Note_off_c, 0, 65, 64
3, 30600, Note_on_c, 0, 64, 64
3, 30720, Note_off_c, 0, 64, 64
3, 30720, Note_on_c, 0, 65, 64
3, 30840, Note_off_c, 0, 65, 64
3, 30840, Note_on_c, 0, 53, 64
3, 30960, Note_off_c, 0, 53, 64
3, 30960, Note_on_c, 0, 56, 64
3, 31080, Note_off_c, 0, 56, 64
3, 31080, Note_on_c, 0, 55, 64
3, 31200, Note_off_c, 0, 55, 64
3, 31320, Note_on_c, 0, 55, 64
3, 31440, Note_off_c, 0, 55, 64
3, 31440, Note_on_c, 0, 58, 64
3, 31560, Note_off_c, 0, 58, 64
3, 31560, Note_on_c, 0, 57, 64
3, 31680, Note_off_c, 0, 57, 64
3, 31800, Note_on_c, 0, 58, 64
3, 31920, Note_off_c, 0, 58, 64
3, 31920, Note_on_c, 0, 64, 64
3, 32040, Note_off_c, 0, 64, 64
3, 32040, Note_on_c, 0, 65, 64
3, 32280, Note_off_c, 0, 65, 64
3, 32280, Note_on_c, 0, 63, 64
3, 32340, Note_off_c, 0, 63, 64
3, 32340, Note_on_c, 0, 61, 64
3, 32400, Note_off_c, 0, 61, 64
3, 32400, Note_on_c, 0, 60, 64
3, 32520, Note_off_c, 0, 60, 64
3, 32520, Note_on_c, 0, 58, 64
3, 32640, Note_off_c, 0, 58, 64
3, 32640, Note_on_c, 0, 57, 64
3, 34080, Note_off_c, 0, 57, 64
3, 34080, End_track
4, 0, Start_track
4, 0, Text_t, "LH"
4, 0, Note_on_c, 0, 41, 64
4, 240, Note_off_c, 0, 41, 64
4, 240, Note_on_c, 0, 53, 64
4, 480, Note_off_c, 0, 53, 64
4, 480, Note_on_c, 0, 52, 64
4, 720, Note_off_c, 0, 52, 64
4, 720, Note_on_c, 0, 51, 64
4, 960, Note_off_c, 0, 51, 64
4, 960, Note_on_c, 0, 50, 64
4, 1200, Note_off_c, 0, 50, 64
4, 1200, Note_on_c, 0, 49, 64
4, 1440, Note_off_c, 0, 49, 64
4, 1440, Note_on_c, 0, 48, 64
4, 1560, Note_off_c, 0, 48, 64
4, 1560, Note_on_c, 0, 46, 64
4, 1680, Note_off_c, 0, 46, 64
4, 1680, Note_on_c, 0, 48, 64
4, 1800, Note_off_c, 0, 48, 64
4, 1800, Note_on_c, 0, 36, 64
4, 1920, Note_off_c, 0, 36, 64
4, 1920, Note_on_c, 0, 41, 64
4, 2160, Note_off_c, 0, 41, 64
4, 2280, Note_on_c, 0, 53, 64
4, 2340, Note_off_c, 0, 53, 64
4, 2340, Note_on_c, 0, 55, 64
4, 2370, Note_off_c, 0, 55, 64
4, 2370, Note_on_c, 0, 56, 64
4, 2400, Note_off_c, 0, 56, 64
4, 2400, Note_on_c, 0, 56, 64
4, 2460, Note_off_c, 0, 56, 64
4, 2460, Note_on_c, 0, 54, 64
4, 2520, Note_off_c, 0, 54, 64
4, 2520, Note_on_c, 0, 55, 64
4, 2640, Note_off_c, 0, 55, 64
4, 2760, Note_on_c, 0, 67, 64
4, 2820, Note_off_c, 0, 67, 64
4, 2820, Note_on_c, 0, 64, 64
4, 2880, Note_off_c, 0, 64, 64
4, 2880, Note_on_c, 0, 61, 64
4, 2940, Note_off_c, 0, 61, 64
4, 2940, Note_on_c, 0, 59, 64
4, 3000, Note_off_c, 0, 59, 64
4, 3000, Note_on_c, 0, 60, 64
4, 3120, Note_off_c, 0, 60, 64
4, 3240, Note_on_c, 0, 62, 64
4, 3300, Note_off_c, 0, 62, 64
4, 3300, Note_on_c, 0, 63, 64
4, 3330, Note_off_c, 0, 63, 64
4, 3330, Note_on_c, 0, 65, 64
4, 3360, Note_off_c, 0, 65, 64
4, 3360, Note_on_c, 0, 63, 64
4, 3480, Note_off_c, 0, 63, 64
4, 3480, Note_on_c, 0, 65, 64
4, 3600, Note_off_c, 0, 65, 64
4, 3600, Note_on_c, 0, 67, 64
4, 3720, Note_off_c, 0, 67, 64
4, 3720, Note_on_c, 0, 55, 64
4, 3840, Note_off_c, 0, 55, 64
4, 3840, Note_on_c, 0, 60, 64
4, 4080, Note_off_c, 0, 60, 64
4, 5880, Note_on_c, 0, 53, 64
4, 6000, Note_off_c, 0, 53, 64
4, 6000, Note_on_c, 0, 56, 64
4, 6120, Note_off_c, 0, 56, 64
4, 6120, Note_on_c, 0, 55, 64
4, 6240, Note_off_c, 0, 55, 64
4, 6360, Note_on_c, 0, 55, 64
4, 6480, Note_off_c, 0, 55, 64
4, 6480, Note_on_c, 0, 58, 64
4, 6600, Note_off_c, 0, 58, 64
4, 6600, Note_on_c, 0, 57, 64
4, 6720, Note_off_c, 0, 57, 64
4, 6840, Note_on_c, 0, 58, 64
4, 6960, Note_off_c, 0, 58, 64
4, 6960, Note_on_c, 0, 64, 64
4, 7080, Note_off_c, 0, 64, 64
4, 7080, Note_on_c, 0, 65, 64
4, 7320, Note_off_c, 0, 65, 64
4, 7320, Note_on_c, 0, 63, 64
4, 7380, Note_off_c, 0, 63, 64
4, 7380, Note_on_c, 0, 61, 64
4, 7440, Note_off_c, 0, 61, 64
4, 7440, Note_on_c, 0, 60, 64
4, 7560, Note_off_c, 0, 60, 64
4, 7560, Note_on_c, 0, 58, 64
4, 7680, Note_off_c, 0, 58, 64
4, 7680, Note_on_c, 0, 56, 64
4, 7920, Note_off_c, 0, 56, 64
4, 7920, Note_on_c, 0, 57, 64
4, 8160, Note_off_c, 0, 57, 64
4, 8160, Note_on_c, 0, 58, 64
4, 8280, Note_off_c, 0, 58, 64
4, 8280, Note_on_c, 0, 56, 64
4, 8520, Note_off_c, 0, 56, 64
4, 8520, Note_on_c, 0, 55, 64
4, 8580, Note_off_c, 0, 55, 64
4, 8580, Note_on_c, 0, 53, 64
4, 8640, Note_off_c, 0, 53, 64
4, 8640, Note_on_c, 0, 55, 64
4, 8760, Note_off_c, 0, 55, 64
4, 8760, Note_on_c, 0, 60, 64
4, 8880, Note_off_c, 0, 60, 64
4, 8880, Note_on_c, 0, 62, 64
4, 9120, Note_off_c, 0, 62, 64
4, 9120, Note_on_c, 0, 63, 64
4, 9240, Note_off_c, 0, 63, 64
4, 9240, Note_on_c, 0, 61, 64
4, 9480, Note_off_c, 0, 61, 64
4, 9480, Note_on_c, 0, 60, 64
4, 9540, Note_off_c, 0, 60, 64
4, 9540, Note_on_c, 0, 58, 64
4, 9600, Note_off_c, 0, 58, 64
4, 9600, Note_on_c, 0, 60, 64
4, 9840, Note_off_c, 0, 60, 64
4, 9840, Note_on_c, 0, 56, 64
4, 10080, Note_off_c, 0, 56, 64
4, 10080, Note_on_c, 0, 55, 64
4, 10320, Note_off_c, 0, 55, 64
4, 10320, Note_on_c, 0, 54, 64
4, 10560, Note_off_c, 0, 54, 64
4, 10560, Note_on_c, 0, 53, 64
4, 10800, Note_off_c, 0, 53, 64
4, 10800, Note_on_c, 0, 52, 64
4, 11040, Note_off_c, 0, 52, 64
4, 11040, Note_on_c, 0, 51, 64
4, 11160, Note_off_c, 0, 51, 64
4, 11160, Note_on_c, 0, 49, 64
4, 11280, Note_off_c, 0, 49, 64
4, 11280, Note_on_c, 0, 51, 64
4, 11400, Note_off_c, 0, 51, 64
4, 11400, Note_on_c, 0, 39, 64
4, 11520, Note_off_c, 0, 39, 64
4, 11520, Note_on_c, 0, 44, 64
4, 11760, Note_off_c, 0, 44, 64
4, 11880, Note_on_c, 0, 57, 64
4, 11940, Note_off_c, 0, 57, 64
4, 11940, Note_on_c, 0, 58, 64
4, 11970, Note_off_c, 0, 58, 64
4, 11970, Note_on_c, 0, 60, 64
4, 12000, Note_off_c, 0, 60, 64
4, 12000, Note_on_c, 0, 60, 64
4, 12060, Note_off_c, 0, 60, 64
4, 12060, Note_on_c, 0, 57, 64
4, 12120, Note_off_c, 0, 57, 64
4, 12120, Note_on_c, 0, 58, 64
4, 12240, Note_off_c, 0, 58, 64
4, 12360, Note_on_c, 0, 58, 64
4, 12420, Note_off_c, 0, 58, 64
4, 12420, Note_on_c, 0, 55, 64
4, 12480, Note_off_c, 0, 55, 64
4, 12480, Note_on_c, 0, 52, 64
4, 12540, Note_off_c, 0, 52, 64
4, 12540, Note_on_c, 0, 50, 64
4, 12600, Note_off_c, 0, 50, 64
4, 12600, Note_on_c, 0, 51, 64
4, 12720, Note_off_c, 0, 51, 64
4, 12840, Note_on_c, 0, 53, 64
4, 12900, Note_off_c, 0, 53, 64
4, 12900, Note_on_c, 0, 55, 64
4, 12930, Note_off_c, 0, 55, 64
4, 12930, Note_on_c, 0, 56, 64
4, 12960, Note_off_c, 0, 56, 64
4, 12960, Note_on_c, 0, 55, 64
4, 13080, Note_off_c, 0, 55, 64
4, 13080, Note_on_c, 0, 56, 64
4, 13200, Note_off_c, 0, 56, 64
4, 13200, Note_on_c, 0, 58, 64
4, 13320, Note_off_c, 0, 58, 64
4, 13320, Note_on_c, 0, 46, 64
4, 13440, Note_off_c, 0, 46, 64
4, 13440, Note_on_c, 0, 51, 64
4, 13680, Note_off_c, 0, 51, 64
4, 13800, Note_on_c, 0, 51, 64
4, 13920, Note_off_c, 0, 51, 64
4, 13920, Note_on_c, 0, 54, 64
4, 14040, Note_off_c, 0, 54, 64
4, 14040, Note_on_c, 0, 53, 64
4, 14160, Note_off_c, 0, 53, 64
4, 14280, Note_on_c, 0, 53, 64
4, 14400, Note_off_c, 0, 53, 64
4, 14400, Note_on_c, 0, 56, 64
4, 14520, Note_off_c, 0, 56, 64
4, 14520, Note_on_c, 0, 55, 64
4, 14640, Note_off_c, 0, 55, 64
4, 14760, Note_on_c, 0, 55, 64
4, 14880, Note_off_c, 0, 55, 64
4, 14880, Note_on_c, 0, 58, 64
4, 15000, Note_off_c, 0, 58, 64
4, 15000, Note_on_c, 0, 56, 64
4, 15120, Note_off_c, 0, 56, 64
4, 15240, Note_on_c, 0, 58, 64
4, 15360, Note_off_c, 0, 58, 64
4, 15360, Note_on_c, 0, 49, 64
4, 15480, Note_off_c, 0, 49, 64
4, 15480, Note_on_c, 0, 48, 64
4, 15600, Note_off_c, 0, 48, 64
4, 15720, Note_on_c, 0, 60, 64
4, 15840, Note_off_c, 0, 60, 64
4, 15840, Note_on_c, 0, 51, 64
4, 15960, Note_off_c, 0, 51, 64
4, 15960, Note_on_c, 0, 50, 64
4, 16080, Note_off_c, 0, 50, 64
4, 16200, Note_on_c, 0, 62, 64
4, 16320, Note_off_c, 0, 62, 64
4, 16320, Note_on_c, 0, 53, 64
4, 16440, Note_off_c, 0, 53, 64
4, 16440, Note_on_c, 0, 51, 64
4, 16560, Note_off_c, 0, 51, 64
4, 16680, Note_on_c, 0, 41, 64
4, 16740, Note_off_c, 0, 41, 64
4, 16740, Note_on_c, 0, 43, 64
4, 16770, Note_off_c, 0, 43, 64
4, 16770, Note_on_c, 0, 44, 64
4, 16800, Note_off_c, 0, 44, 64
4, 16800, Note_on_c, 0, 44, 64
4, 16860, Note_off_c, 0, 44, 64
4, 16860, Note_on_c, 0, 42, 64
4, 16920, Note_off_c, 0, 42, 64
4, 16920, Note_on_c, 0, 43, 64
4, 17040, Note_off_c, 0, 43, 64
4, 17160, Note_on_c, 0, 55, 64
4, 17220, Note_off_c, 0, 55, 64
4, 17220, Note_on_c, 0, 52, 64
4, 17280, Note_off_c, 0, 52, 64
4, 17280, Note_on_c, 0, 49, 64
4, 17340, Note_off_c, 0, 49, 64
4, 17340, Note_on_c, 0, 47, 64
4, 17400, Note_off_c, 0, 47, 64
4, 17400, Note_on_c, 0, 48, 64
4, 17520, Note_off_c, 0, 48, 64
4, 17640, Note_on_c, 0, 50, 64
4, 17700, Note_off_c, 0, 50, 64
4, 17700, Note_on_c, 0, 51, 64
4, 17730, Note_off_c, 0, 51, 64
4, 17730, Note_on_c, 0, 53, 64
4, 17760, Note_off_c, 0, 53, 64
4, 17760, Note_on_c, 0, 51, 64
4, 17880, Note_off_c, 0, 51, 64
4, 17880, Note_on_c, 0, 53, 64
4, 18000, Note_off_c, 0, 53, 64
4, 18000, Note_on_c, 0, 55, 64
4, 18120, Note_off_c, 0, 55, 64
4, 18120, Note_on_c, 0, 43, 64
4, 18240, Note_off_c, 0, 43, 64
4, 18240, Note_on_c, 0, 48, 64
4, 18360, Note_off_c, 0, 48, 64
4, 18360, Note_on_c, 0, 36, 64
4, 18480, Note_off_c, 0, 36, 64
4, 18480, Note_on_c, 0, 49, 64
4, 18600, Note_off_c, 0, 49, 64
4, 18600, Note_on_c, 0, 48, 64
4, 18720, Note_off_c, 0, 48, 64
4, 18840, Note_on_c, 0, 48, 64
4, 18960, Note_off_c, 0, 48, 64
4, 18960, Note_on_c, 0, 54, 64
4, 19080, Note_off_c, 0, 54, 64
4, 19080, Note_on_c, 0, 53, 64
4, 19320, Note_off_c, 0, 53, 64
4, 19320, Note_on_c, 0, 51, 64
4, 19560, Note_off_c, 0, 51, 64
4, 19560, Note_on_c, 0, 49, 64
4, 19620, Note_off_c, 0, 49, 64
4, 19620, Note_on_c, 0, 48, 64
4, 19680, Note_off_c, 0, 48, 64
4, 19680, Note_on_c, 0, 49, 64
4, 19920, Note_off_c, 0, 49, 64
4, 19920, Note_on_c, 0, 50, 64
4, 20160, Note_off_c, 0, 50, 64
4, 20160, Note_on_c, 0, 51, 64
4, 20280, Note_off_c, 0, 51, 64
4, 20280, Note_on_c, 0, 46, 64
4, 20400, Note_off_c, 0, 46, 64
4, 20400, Note_on_c, 0, 59, 64
4, 20520, Note_off_c, 0, 59, 64
4, 20520, Note_on_c, 0, 58, 64
4, 20640, Note_off_c, 0, 58, 64
4, 20760, Note_on_c, 0, 46, 64
4, 20880, Note_off_c, 0, 46, 64
4, 20880, Note_on_c, 0, 52, 64
4, 21000, Note_off_c, 0, 52, 64
4, 21000, Note_on_c, 0, 51, 64
4, 21240, Note_off_c, 0, 51, 64
4, 21240, Note_on_c, 0, 49, 64
4, 21480, Note_off_c, 0, 49, 64
4, 21480, Note_on_c, 0, 47, 64
4, 21540, Note_off_c, 0, 47, 64
4, 21540, Note_on_c, 0, 46, 64
4, 21600, Note_off_c, 0, 46, 64
4, 21600, Note_on_c, 0, 47, 64
4, 21840, Note_off_c, 0, 47, 64
4, 21840, Note_on_c, 0, 48, 64
4, 22080, Note_off_c, 0, 48, 64
4, 22080, Note_on_c, 0, 49, 64
4, 22200, Note_off_c, 0, 49, 64
4, 22200, Note_on_c, 0, 49, 64
4, 22320, Note_off_c, 0, 49, 64
4, 22320, Note_on_c, 0, 53, 64
4, 22440, Note_off_c, 0, 53, 64
4, 22440, Note_on_c, 0, 51, 64
4, 22560, Note_off_c, 0, 51, 64
4, 22680, Note_on_c, 0, 51, 64
4, 22800, Note_off_c, 0, 51, 64
4, 22800, Note_on_c, 0, 54, 64
4, 22920, Note_off_c, 0, 54, 64
4, 22920, Note_on_c, 0, 53, 64
4, 23040, Note_off_c, 0, 53, 64
4, 23160, Note_on_c, 0, 54, 64
4, 23280, Note_off_c, 0, 54, 64
4, 23280, Note_on_c, 0, 60, 64
4, 23400, Note_off_c, 0, 60, 64
4, 23400, Note_on_c, 0, 61, 64
4, 23640, Note_off_c, 0, 61, 64
4, 23640, Note_on_c, 0, 60, 64
4, 23700, Note_off_c, 0, 60, 64
4, 23700, Note_on_c, 0, 58, 64
4, 23760, Note_off_c, 0, 58, 64
4, 23760, Note_on_c, 0, 56, 64
4, 23880, Note_off_c, 0, 56, 64
4, 23880, Note_on_c, 0, 54, 64
4, 24000, Note_off_c, 0, 54, 64
4, 24000, Note_on_c, 0, 53, 64
4, 24240, Note_off_c, 0, 53, 64
4, 24360, Note_on_c, 0, 50, 64
4, 24420, Note_off_c, 0, 50, 64
4, 24420, Note_on_c, 0, 51, 64
4, 24450, Note_off_c, 0, 51, 64
4, 24450, Note_on_c, 0, 53, 64
4, 24480, Note_off_c, 0, 53, 64
4, 24480, Note_on_c, 0, 53, 64
4, 24540, Note_off_c, 0, 53, 64
4, 24540, Note_on_c, 0, 50, 64
4, 24600, Note_off_c, 0, 50, 64
4, 24600, Note_on_c, 0, 51, 64
4, 24720, Note_off_c, 0, 51, 64
4, 24840, Note_on_c, 0, 51, 64
4, 24900, Note_off_c, 0, 51, 64
4, 24900, Note_on_c, 0, 48, 64
4, 24960, Note_off_c, 0, 48, 64
4, 24960, Note_on_c, 0, 45, 64
4, 25020, Note_off_c, 0, 45, 64
4, 25020, Note_on_c, 0, 43, 64
4, 25080, Note_off_c, 0, 43, 64
4, 25080, Note_on_c, 0, 44, 64
4, 25200, Note_off_c, 0, 44, 64
4, 25320, Note_on_c, 0, 58, 64
4, 25380, Note_off_c, 0, 58, 64
4, 25380, Note_on_c, 0, 60, 64
4, 25410, Note_off_c, 0, 60, 64
4, 25410, Note_on_c, 0, 61, 64
4, 25440, Note_off_c, 0, 61, 64
4, 25440, Note_on_c, 0, 60, 64
4, 25560, Note_off_c, 0, 60, 64
4, 25560, Note_on_c, 0, 61, 64
4, 25680, Note_off_c, 0, 61, 64
4, 25680, Note_on_c, 0, 63, 64
4, 25800, Note_off_c, 0, 63, 64
4, 25800, Note_on_c, 0, 51, 64
4, 25920, Note_off_c, 0, 51, 64
4, 25920, Note_on_c, 0, 56, 64
4, 26160, Note_off_c, 0, 56, 64
4, 26280, Note_on_c, 0, 56, 64
4, 26400, Note_off_c, 0, 56, 64
4, 26400, Note_on_c, 0, 59, 64
4, 26520, Note_off_c, 0, 59, 64
4, 26520, Note_on_c, 0, 58, 64
4, 26640, Note_off_c, 0, 58, 64
4, 26760, Note_on_c, 0, 58, 64
4, 26880, Note_off_c, 0, 58, 64
4, 26880, Note_on_c, 0, 61, 64
4, 27000, Note_off_c, 0, 61, 64
4, 27000, Note_on_c, 0, 60, 64
4, 27120, Note_off_c, 0, 60, 64
4, 27240, Note_on_c, 0, 60, 64
4, 27360, Note_off_c, 0, 60, 64
4, 27360, Note_on_c, 0, 63, 64
4, 27480, Note_off_c, 0, 63, 64
4, 27480, Note_on_c, 0, 61, 64
4, 27600, Note_off_c, 0, 61, 64
4, 27720, Note_on_c, 0, 63, 64
4, 27840, Note_off_c, 0, 63, 64
4, 27840, Note_on_c, 0, 54, 64
4, 27960, Note_off_c, 0, 54, 64
4, 27960, Note_on_c, 0, 53, 64
4, 28080, Note_off_c, 0, 53, 64
4, 28200, Note_on_c, 0, 65, 64
4, 28320, Note_off_c, 0, 65, 64
4, 28320, Note_on_c, 0, 56, 64
4, 28440, Note_off_c, 0, 56, 64
4, 28440, Note_on_c, 0, 55, 64
4, 28560, Note_off_c, 0, 55, 64
4, 28680, Note_on_c, 0, 67, 64
4, 28800, Note_off_c, 0, 67, 64
4, 28800, Note_on_c, 0, 58, 64
4, 28920, Note_off_c, 0, 58, 64
4, 28920, Note_on_c, 0, 56, 64
4, 29040, Note_off_c, 0, 56, 64
4, 29160, Note_on_c, 0, 58, 64
4, 29220, Note_off_c, 0, 58, 64
4, 29220, Note_on_c, 0, 60, 64
4, 29250, Note_off_c, 0, 60, 64
4, 29250, Note_on_c, 0, 61, 64
4, 29280, Note_off_c, 0, 61, 64
4, 29280, Note_on_c, 0, 61, 64
4, 29340, Note_off_c, 0, 61, 64
4, 29340, Note_on_c, 0, 59, 64
4, 29400, Note_off_c, 0, 59, 64
4, 29400, Note_on_c, 0, 60, 64
4, 29520, Note_off_c, 0, 60, 64
4, 29640, Note_on_c, 0, 60, 64
4, 29700, Note_off_c, 0, 60, 64
4, 29700, Note_on_c, 0, 57, 64
4, 29760, Note_off_c, 0, 57, 64
4, 29760, Note_on_c, 0, 54, 64
4, 29820, Note_off_c, 0, 54, 64
4, 29820, Note_on_c, 0, 52, 64
4, 29880, Note_off_c, 0, 52, 64
4, 29880, Note_on_c, 0, 53, 64
4, 30000, Note_off_c, 0, 53, 64
4, 30120, Note_on_c, 0, 55, 64
4, 30180, Note_off_c, 0, 55, 64
4, 30180, Note_on_c, 0, 56, 64
4, 30210, Note_off_c, 0, 56, 64
4, 30210, Note_on_c, 0, 58, 64
4, 30240, Note_off_c, 0, 58, 64
4, 30240, Note_on_c, 0, 56, 64
4, 30360, Note_off_c, 0, 56, 64
4, 30360, Note_on_c, 0, 58, 64
4, 30480, Note_off_c, 0, 58, 64
4, 30480, Note_on_c, 0, 60, 64
4, 30600, Note_off_c, 0, 60, 64
4, 30600, Note_on_c, 0, 48, 64
4, 30720, Note_off_c, 0, 48, 64
4, 30720, Note_on_c, 0, 41, 64
4, 30960, Note_off_c, 0, 41, 64
4, 30960, Note_on_c, 0, 53, 64
4, 31200, Note_off_c, 0, 53, 64
4, 31200, Note_on_c, 0, 52, 64
4, 31440, Note_off_c, 0, 52, 64
4, 31440, Note_on_c, 0, 51, 64
4, 31680, Note_off_c, 0, 51, 64
4, 31680, Note_on_c, 0, 50, 64
4, 31920, Note_off_c, 0, 50, 64
4, 31920, Note_on_c, 0, 49, 64
4, 32160, Note_off_c, 0, 49, 64
4, 32160, Note_on_c, 0, 48, 64
4, 32280, Note_off_c, 0, 48, 64
4, 32280, Note_on_c, 0, 46, 64
4, 32400, Note_off_c, 0, 46, 64
4, 32400, Note_on_c, 0, 48, 64
4, 32520, Note_off_c, 0, 48, 64
4, 32520, Note_on_c, 0, 36, 64
4, 32640, Note_off_c, 0, 36, 64
4, 32640, Note_on_c, 0, 41, 64
4, 34080, Note_off_c, 0, 41, 64
4, 34080, End_track
0, 0, End_of_file
