0, 0, Header, 1, 4, 240
1, 0, Start_track
1, 0, Time_signature, 3, 3, 12, 8
1, 0, Tempo, 750000
1, 22432, Tempo, 789474
1, 22520, Tempo, 833333
1, 22600, Tempo, 909091
1, 22680, Tempo, 1000000
1, 23040, Tempo, 750000
1, 23040, End_track
2, 0, Start_track
2, 0, Text_t, "RH"
2, 0, Note_on_c, 0, 69, 64
2, 240, Note_off_c, 0, 69, 64
2, 240, Note_on_c, 0, 71, 64
2, 360, Note_off_c, 0, 71, 64
2, 360, Note_on_c, 0, 72, 64
2, 600, Note_off_c, 0, 72, 64
2, 600, Note_on_c, 0, 74, 64
2, 720, Note_off_c, 0, 74, 64
2, 720, Note_on_c, 0, 72, 64
2, 830, Note_off_c, 0, 72, 64
2, 840, Note_on_c, 0, 72, 70
2, 860, Note_off_c, 0, 72, 64
2, 860, Note_on_c, 0, 71, 49
2, 880, Note_off_c, 0, 71, 64
2, 880, Note_on_c, 0, 72, 52
2, 900, Note_off_c, 0, 72, 64
2, 900, Note_on_c, 0, 71, 54
2, 920, Note_off_c, 0, 71, 64
2, 920, Note_on_c, 0, 72, 57
2, 940, Note_off_c, 0, 72, 64
2, 940, Note_on_c, 0, 71, 60
2, 1080, Note_off_c, 0, 71, 64
2, 1080, Note_on_c, 0, 69, 64
2, 1140, Note_off_c, 0, 69, 64
2, 1140, Note_on_c, 0, 71, 64
2, 1200, Note_off_c, 0, 71, 64
2, 1200, Note_on_c, 0, 72, 64
2, 1260, Note_off_c, 0, 72, 64
2, 1260, Note_on_c, 0, 74, 64
2, 1320, Note_off_c, 0, 74, 64
2, 1320, Note_on_c, 0, 76, 64
2, 1380, Note_off_c, 0, 76, 64
2, 1380, Note_on_c, 0, 78, 64
2, 1440, Note_off_c, 0, 78, 64
2, 1440, Note_on_c, 0, 79, 64
2, 1500, Note_off_c, 0, 79, 64
2, 1500, Note_on_c, 0, 78, 64
2, 1560, Note_off_c, 0, 78, 64
2, 1560, Note_on_c, 0, 79, 64
2, 1620, Note_off_c, 0, 79, 64
2, 1620, Note_on_c, 0, 81, 64
2, 1680, Note_off_c, 0, 81, 64
2, 1680, Note_on_c, 0, 83, 64
2, 1740, Note_off_c, 0, 83, 64
2, 1740, Note_on_c, 0, 84, 64
2, 1800, Note_off_c, 0, 84, 64
2, 1800, Note_on_c, 0, 83, 64
2, 1860, Note_off_c, 0, 83, 64
2, 1860, Note_on_c, 0, 81, 64
2, 1920, Note_off_c, 0, 81, 64
2, 1920, Note_on_c, 0, 79, 64
2, 1980, Note_off_c, 0, 79, 64
2, 1980, Note_on_c, 0, 78, 64
2, 2040, Note_off_c, 0, 78, 64
2, 2040, Note_on_c, 0, 76, 64
2, 2100, Note_off_c, 0, 76, 64
2, 2100, Note_on_c, 0, 75, 64
2, 2160, Note_off_c, 0, 75, 64
2, 2160, Note_on_c, 0, 76, 64
2, 2220, Note_off_c, 0, 76, 64
2, 2220, Note_on_c, 0, 78, 64
2, 2280, Note_off_c, 0, 78, 64
2, 2280, Note_on_c, 0, 75, 64
2, 2460, Note_off_c, 0, 75, 64
2, 2460, Note_on_c, 0, 76, 64
2, 2520, Note_off_c, 0, 76, 64
2, 2520, Note_on_c, 0, 76, 64
2, 2760, Note_off_c, 0, 76, 64
2, 2760, Note_on_c, 0, 79, 64
2, 2940, Note_off_c, 0, 79, 64
2, 2940, Note_on_c, 0, 82, 64
2, 3000, Note_off_c, 0, 82, 64
2, 3000, Note_on_c, 0, 81, 64
2, 3060, Note_off_c, 0, 81, 64
2, 3060, Note_on_c, 0, 79, 64
2, 3120, Note_off_c, 0, 79, 64
2, 3120, Note_on_c, 0, 77, 64
2, 3180, Note_off_c, 0, 77, 64
2, 3180, Note_on_c, 0, 76, 64
2, 3240, Note_off_c, 0, 76, 64
2, 3240, Note_on_c, 0, 77, 64
2, 3650, Note_off_c, 0, 77, 64
2, 3660, Note_on_c, 0, 77, 64
2, 3720, Note_off_c, 0, 77, 64
2, 3720, Note_on_c, 0, 76, 64
2, 3780, Note_off_c, 0, 76, 64
2, 3780, Note_on_c, 0, 74, 64
2, 3840, Note_off_c, 0, 74, 64
2, 3840, Note_on_c, 0, 72, 64
2, 3900, Note_off_c, 0, 72, 64
2, 3900, Note_on_c, 0, 71, 64
2, 3960, Note_off_c, 0, 71, 64
2, 3960, Note_on_c, 0, 72, 64
2, 4020, Note_off_c, 0, 72, 64
2, 4020, Note_on_c, 0, 74, 64
2, 4080, Note_off_c, 0, 74, 64
2, 4080, Note_on_c, 0, 72, 64
2, 4140, Note_off_c, 0, 72, 64
2, 4140, Note_on_c, 0, 71, 64
2, 4200, Note_off_c, 0, 71, 64
2, 4200, Note_on_c, 0, 69, 64
2, 4260, Note_off_c, 0, 69, 64
2, 4260, Note_on_c, 0, 68, 64
2, 4320, Note_off_c, 0, 68, 64
2, 4320, Note_on_c, 0, 69, 64
2, 4850, Note_off_c, 0, 69, 64
2, 4860, Note_on_c, 0, 71, 64
2, 4920, Note_off_c, 0, 71, 64
2, 4920, Note_on_c, 0, 72, 64
2, 4980, Note_off_c, 0, 72, 64
2, 4980, Note_on_c, 0, 74, 64
2, 5040, Note_off_c, 0, 74, 64
2, 5040, Note_on_c, 0, 76, 64
2, 5100, Note_off_c, 0, 76, 64
2, 5100, Note_on_c, 0, 77, 64
2, 5160, Note_off_c, 0, 77, 64
2, 5160, Note_on_c, 0, 76, 64
2, 5220, Note_off_c, 0, 76, 64
2, 5220, Note_on_c, 0, 74, 64
2, 5280, Note_off_c, 0, 74, 64
2, 5280, Note_on_c, 0, 72, 64
2, 5340, Note_off_c, 0, 72, 64
2, 5340, Note_on_c, 0, 71, 64
2, 5400, Note_off_c, 0, 71, 64
2, 5400, Note_on_c, 0, 72, 64
2, 5760, Note_off_c, 0, 72, 64
2, 5760, Note_on_c, 0, 71, 64
2, 6120, Note_off_c, 0, 71, 64
2, 6120, Note_on_c, 0, 69, 64
2, 6180, Note_off_c, 0, 69, 64
2, 6180, Note_on_c, 0, 67, 64
2, 6240, Note_off_c, 0, 67, 64
2, 6240, Note_on_c, 0, 69, 64
2, 6300, Note_off_c, 0, 69, 64
2, 6300, Note_on_c, 0, 71, 64
2, 6360, Note_off_c, 0, 71, 64
2, 6360, Note_on_c, 0, 72, 64
2, 6420, Note_off_c, 0, 72, 64
2, 6420, Note_on_c, 0, 74, 64
2, 6480, Note_off_c, 0, 74, 64
2, 6480, Note_on_c, 0, 76, 64
2, 6540, Note_off_c, 0, 76, 64
2, 6540, Note_on_c, 0, 77, 64
2, 6600, Note_off_c, 0, 77, 64
2, 6600, Note_on_c, 0, 79, 64
2, 6660, Note_off_c, 0, 79, 64
2, 6660, Note_on_c, 0, 81, 64
2, 6720, Note_off_c, 0, 81, 64
2, 6720, Note_on_c, 0, 83, 64
2, 6780, Note_off_c, 0, 83, 64
2, 6780, Note_on_c, 0, 84, 64
2, 6840, Note_off_c, 0, 84, 64
2, 6840, Note_on_c, 0, 77, 64
2, 6900, Note_off_c, 0, 77, 64
2, 6900, Note_on_c, 0, 81, 64
2, 6960, Note_off_c, 0, 81, 64
2, 6960, Note_on_c, 0, 79, 64
2, 7020, Note_off_c, 0, 79, 64
2, 7020, Note_on_c, 0, 77, 64
2, 7080, Note_off_c, 0, 77, 64
2, 7080, Note_on_c, 0, 76, 64
2, 7140, Note_off_c, 0, 76, 64
2, 7140, Note_on_c, 0, 74, 64
2, 7200, Note_off_c, 0, 74, 64
2, 7200, Note_on_c, 0, 76, 64
2, 7320, Note_off_c, 0, 76, 64
2, 7320, Note_on_c, 0, 72, 64
2, 7440, Note_off_c, 0, 72, 64
2, 7440, Note_on_c, 0, 74, 64
2, 7560, Note_off_c, 0, 74, 64
2, 7560, Note_on_c, 0, 76, 64
2, 7800, Note_off_c, 0, 76, 64
2, 7800, Note_on_c, 0, 77, 64
2, 7920, Note_off_c, 0, 77, 64
2, 7920, Note_on_c, 0, 76, 64
2, 8040, Note_off_c, 0, 76, 64
2, 8040, Note_on_c, 0, 74, 64
2, 8280, Note_off_c, 0, 74, 64
2, 8280, Note_on_c, 0, 72, 64
2, 8340, Note_off_c, 0, 72, 64
2, 8340, Note_on_c, 0, 67, 64
2, 8400, Note_off_c, 0, 67, 64
2, 8400, Note_on_c, 0, 69, 64
2, 8460, Note_off_c, 0, 69, 64
2, 8460, Note_on_c, 0, 71, 64
2, 8520, Note_off_c, 0, 71, 64
2, 8520, Note_on_c, 0, 72, 64
2, 8580, Note_off_c, 0, 72, 64
2, 8580, Note_on_c, 0, 74, 64
2, 8640, Note_off_c, 0, 74, 64
2, 8640, Note_on_c, 0, 76, 64
2, 8880, Note_off_c, 0, 76, 64
2, 8880, Note_on_c, 0, 77, 64
2, 9000, Note_off_c, 0, 77, 64
2, 9000, Note_on_c, 0, 79, 64
2, 9240, Note_off_c, 0, 79, 64
2, 9240, Note_on_c, 0, 81, 64
2, 9360, Note_off_c, 0, 81, 64
2, 9360, Note_on_c, 0, 79, 64
2, 9480, Note_off_c, 0, 79, 64
2, 9480, Note_on_c, 0, 77, 64
2, 9720, Note_off_c, 0, 77, 64
2, 9720, Note_on_c, 0, 76, 64
2, 10200, Note_off_c, 0, 76, 64
2, 10200, Note_on_c, 0, 74, 64
2, 10320, Note_off_c, 0, 74, 64
2, 10320, Note_on_c, 0, 76, 64
2, 10440, Note_off_c, 0, 76, 64
2, 10440, Note_on_c, 0, 77, 64
2, 10680, Note_off_c, 0, 77, 64
2, 10680, Note_on_c, 0, 79, 64
2, 10800, Note_off_c, 0, 79, 64
2, 10800, Note_on_c, 0, 77, 64
2, 10920, Note_off_c, 0, 77, 64
2, 10920, Note_on_c, 0, 76, 64
2, 11160, Note_off_c, 0, 76, 64
2, 11220, Note_on_c, 0, 69, 64
2, 11280, Note_off_c, 0, 69, 64
2, 11280, Note_on_c, 0, 71, 64
2, 11340, Note_off_c, 0, 71, 64
2, 11340, Note_on_c, 0, 73, 64
2, 11400, Note_off_c, 0, 73, 64
2, 11400, Note_on_c, 0, 74, 64
2, 11460, Note_off_c, 0, 74, 64
2, 11460, Note_on_c, 0, 76, 64
2, 11520, Note_off_c, 0, 76, 64
2, 11520, Note_on_c, 0, 77, 64
2, 11760, Note_off_c, 0, 77, 64
2, 11760, Note_on_c, 0, 79, 64
2, 11880, Note_off_c, 0, 79, 64
2, 11880, Note_on_c, 0, 81, 64
2, 12120, Note_off_c, 0, 81, 64
2, 12120, Note_on_c, 0, 82, 64
2, 12240, Note_off_c, 0, 82, 64
2, 12240, Note_on_c, 0, 81, 64
2, 12350, Note_off_c, 0, 81, 64
2, 12360, Note_on_c, 0, 81, 69
2, 12380, Note_off_c, 0, 81, 64
2, 12380, Note_on_c, 0, 79, 49
2, 12400, Note_off_c, 0, 79, 64
2, 12400, Note_on_c, 0, 81, 51
2, 12420, Note_off_c, 0, 81, 64
2, 12420, Note_on_c, 0, 79, 54
2, 12440, Note_off_c, 0, 79, 64
2, 12440, Note_on_c, 0, 81, 56
2, 12460, Note_off_c, 0, 81, 64
2, 12465, Note_on_c, 0, 79, 59
2, 12599, Note_off_c, 0, 79, 64
2, 12600, Note_on_c, 0, 77, 64
2, 12660, Note_off_c, 0, 77, 64
2, 12660, Note_on_c, 0, 81, 64
2, 12690, Note_off_c, 0, 81, 64
2, 12690, Note_on_c, 0, 79, 64
2, 12720, Note_off_c, 0, 79, 64
2, 12720, Note_on_c, 0, 77, 64
2, 12780, Note_off_c, 0, 77, 64
2, 12780, Note_on_c, 0, 81, 64
2, 12840, Note_off_c, 0, 81, 64
2, 12840, Note_on_c, 0, 76, 64
2, 12900, Note_off_c, 0, 76, 64
2, 12900, Note_on_c, 0, 81, 64
2, 12960, Note_off_c, 0, 81, 64
2, 12960, Note_on_c, 0, 77, 64
2, 13370, Note_off_c, 0, 77, 64
2, 13380, Note_on_c, 0, 79, 64
2, 13410, Note_off_c, 0, 79, 64
2, 13410, Note_on_c, 0, 77, 64
2, 13440, Note_off_c, 0, 77, 64
2, 13440, Note_on_c, 0, 76, 64
2, 13500, Note_off_c, 0, 76, 64
2, 13500, Note_on_c, 0, 79, 64
2, 13560, Note_off_c, 0, 79, 64
2, 13560, Note_on_c, 0, 74, 64
2, 13620, Note_off_c, 0, 74, 64
2, 13620, Note_on_c, 0, 79, 64
2, 13680, Note_off_c, 0, 79, 64
2, 13680, Note_on_c, 0, 76, 64
2, 14090, Note_off_c, 0, 76, 64
2, 14100, Note_on_c, 0, 74, 64
2, 14130, Note_off_c, 0, 74, 64
2, 14130, Note_on_c, 0, 72, 64
2, 14160, Note_off_c, 0, 72, 64
2, 14160, Note_on_c, 0, 71, 64
2, 14220, Note_off_c, 0, 71, 64
2, 14220, Note_on_c, 0, 74, 64
2, 14280, Note_off_c, 0, 74, 64
2, 14280, Note_on_c, 0, 69, 64
2, 14340, Note_off_c, 0, 69, 64
2, 14340, Note_on_c, 0, 74, 64
2, 14400, Note_off_c, 0, 74, 64
2, 14400, Note_on_c, 0, 71, 64
2, 14460, Note_off_c, 0, 71, 64
2, 14460, Note_on_c, 0, 71, 64
2, 14520, Note_off_c, 0, 71, 64
2, 14520, Note_on_c, 0, 74, 64
2, 14580, Note_off_c, 0, 74, 64
2, 14580, Note_on_c, 0, 79, 64
2, 14700, Note_off_c, 0, 79, 64
2, 14700, Note_on_c, 0, 78, 64
2, 14760, Note_off_c, 0, 78, 64
2, 14760, Note_on_c, 0, 79, 64
2, 14820, Note_off_c, 0, 79, 64
2, 14820, Note_on_c, 0, 74, 64
2, 14880, Note_off_c, 0, 74, 64
2, 14880, Note_on_c, 0, 71, 64
2, 14940, Note_off_c, 0, 71, 64
2, 14940, Note_on_c, 0, 67, 64
2, 15060, Note_off_c, 0, 67, 64
2, 15060, Note_on_c, 0, 66, 64
2, 15120, Note_off_c, 0, 66, 64
2, 15120, Note_on_c, 0, 67, 64
2, 15180, Note_off_c, 0, 67, 64
2, 15180, Note_on_c, 0, 62, 64
2, 15240, Note_off_c, 0, 62, 64
2, 15240, Note_on_c, 0, 64, 64
2, 15300, Note_off_c, 0, 64, 64
2, 15300, Note_on_c, 0, 62, 64
2, 15360, Note_off_c, 0, 62, 64
2, 15360, Note_on_c, 0, 64, 64
2, 15420, Note_off_c, 0, 64, 64
2, 15420, Note_on_c, 0, 66, 64
2, 15480, Note_off_c, 0, 66, 64
2, 15480, Note_on_c, 0, 67, 64
2, 15540, Note_off_c, 0, 67, 64
2, 15540, Note_on_c, 0, 74, 64
2, 15600, Note_off_c, 0, 74, 64
2, 15600, Note_on_c, 0, 72, 64
2, 15660, Note_off_c, 0, 72, 64
2, 15660, Note_on_c, 0, 71, 64
2, 15720, Note_off_c, 0, 71, 64
2, 15720, Note_on_c, 0, 72, 64
2, 15780, Note_off_c, 0, 72, 64
2, 15780, Note_on_c, 0, 74, 64
2, 15840, Note_off_c, 0, 74, 64
2, 15840, Note_on_c, 0, 71, 64
2, 15960, Note_off_c, 0, 71, 64
2, 15960, Note_on_c, 0, 72, 64
2, 16080, Note_off_c, 0, 72, 64
2, 16080, Note_on_c, 0, 74, 64
2, 16200, Note_off_c, 0, 74, 64
2, 16200, Note_on_c, 0, 67, 64
2, 16320, Note_off_c, 0, 67, 64
2, 16320, Note_on_c, 0, 69, 64
2, 16440, Note_off_c, 0, 69, 64
2, 16440, Note_on_c, 0, 71, 64
2, 16560, Note_off_c, 0, 71, 64
2, 16560, Note_on_c, 0, 72, 64
2, 16800, Note_off_c, 0, 72, 64
2, 16800, Note_on_c, 0, 71, 64
2, 16980, Note_off_c, 0, 71, 64
2, 16980, Note_on_c, 0, 69, 64
2, 17100, Note_off_c, 0, 69, 64
2, 17100, Note_on_c, 0, 69, 64
2, 17220, Note_off_c, 0, 69, 64
2, 17220, Note_on_c, 0, 68, 64
2, 17280, Note_off_c, 0, 68, 64
2, 17280, Note_on_c, 0, 69, 64
2, 17340, Note_off_c, 0, 69, 64
2, 17340, Note_on_c, 0, 72, 64
2, 17400, Note_off_c, 0, 72, 64
2, 17400, Note_on_c, 0, 76, 64
2, 17460, Note_off_c, 0, 76, 64
2, 17460, Note_on_c, 0, 81, 64
2, 17580, Note_off_c, 0, 81, 64
2, 17580, Note_on_c, 0, 80, 64
2, 17640, Note_off_c, 0, 80, 64
2, 17640, Note_on_c, 0, 81, 64
2, 17700, Note_off_c, 0, 81, 64
2, 17700, Note_on_c, 0, 76, 64
2, 17760, Note_off_c, 0, 76, 64
2, 17760, Note_on_c, 0, 72, 64
2, 17820, Note_off_c, 0, 72, 64
2, 17820, Note_on_c, 0, 69, 64
2, 17940, Note_off_c, 0, 69, 64
2, 17940, Note_on_c, 0, 68, 64
2, 18000, Note_off_c, 0, 68, 64
2, 18000, Note_on_c, 0, 69, 64
2, 18060, Note_off_c, 0, 69, 64
2, 18060, Note_on_c, 0, 72, 64
2, 18120, Note_off_c, 0, 72, 64
2, 18120, Note_on_c, 0, 76, 64
2, 18180, Note_off_c, 0, 76, 64
2, 18180, Note_on_c, 0, 81, 64
2, 18240, Note_off_c, 0, 81, 64
2, 18240, Note_on_c, 0, 80, 64
2, 18300, Note_off_c, 0, 80, 64
2, 18300, Note_on_c, 0, 81, 64
2, 18360, Note_off_c, 0, 81, 64
2, 18360, Note_on_c, 0, 76, 64
2, 18480, Note_off_c, 0, 76, 64
2, 18480, Note_on_c, 0, 69, 64
2, 18600, Note_off_c, 0, 69, 64
2, 18600, Note_on_c, 0, 71, 64
2, 18720, Note_off_c, 0, 71, 64
2, 18720, Note_on_c, 0, 72, 64
2, 18960, Note_off_c, 0, 72, 64
2, 18960, Note_on_c, 0, 74, 64
2, 19080, Note_off_c, 0, 74, 64
2, 19080, Note_on_c, 0, 76, 64
2, 19320, Note_off_c, 0, 76, 64
2, 19320, Note_on_c, 0, 77, 64
2, 19440, Note_off_c, 0, 77, 64
2, 19440, Note_on_c, 0, 76, 64
2, 19560, Note_off_c, 0, 76, 64
2, 19560, Note_on_c, 0, 74, 64
2, 19800, Note_off_c, 0, 74, 64
2, 19800, Note_on_c, 0, 72, 64
2, 19920, Note_off_c, 0, 72, 64
2, 19920, Note_on_c, 0, 76, 64
2, 20280, Note_off_c, 0, 76, 64
2, 20280, Note_on_c, 0, 74, 64
2, 20570, Note_off_c, 0, 74, 64
2, 20580, Note_on_c, 0, 76, 64
2, 20610, Note_off_c, 0, 76, 64
2, 20610, Note_on_c, 0, 74, 64
2, 20640, Note_off_c, 0, 74, 64
2, 20640, Note_on_c, 0, 72, 64
2, 20700, Note_off_c, 0, 72, 64
2, 20700, Note_on_c, 0, 76, 64
2, 20760, Note_off_c, 0, 76, 64
2, 20760, Note_on_c, 0, 71, 64
2, 20820, Note_off_c, 0, 71, 64
2, 20820, Note_on_c, 0, 76, 64
2, 20880, Note_off_c, 0, 76, 64
2, 20880, Note_on_c, 0, 69, 64
2, 20940, Note_off_c, 0, 69, 64
2, 20940, Note_on_c, 0, 74, 64
2, 20970, Note_off_c, 0, 74, 64
2, 20970, Note_on_c, 0, 72, 64
2, 21000, Note_off_c, 0, 72, 64
2, 21000, Note_on_c, 0, 71, 64
2, 21060, Note_off_c, 0, 71, 64
2, 21060, Note_on_c, 0, 74, 64
2, 21120, Note_off_c, 0, 74, 64
2, 21120, Note_on_c, 0, 69, 64
2, 21180, Note_off_c, 0, 69, 64
2, 21180, Note_on_c, 0, 74, 64
2, 21240, Note_off_c, 0, 74, 64
2, 21240, Note_on_c, 0, 68, 64
2, 21360, Note_off_c, 0, 68, 64
2, 21360, Note_on_c, 0, 69, 64
2, 21480, Note_off_c, 0, 69, 64
2, 21480, Note_on_c, 0, 71, 64
2, 21600, Note_off_c, 0, 71, 64
2, 21600, Note_on_c, 0, 72, 64
2, 21840, Note_off_c, 0, 72, 64
2, 21840, Note_on_c, 0, 74, 64
2, 21960, Note_off_c, 0, 74, 64
2, 21960, Note_on_c, 0, 72, 64
2, 22080, Note_off_c, 0, 72, 64
2, 22080, Note_on_c, 0, 71, 64
2, 22440, Note_off_c, 0, 71, 64
2, 22440, Note_on_c, 0, 81, 64
2, 22560, Note_off_c, 0, 81, 64
2, 22560, Note_on_c, 0, 80, 64
2, 22680, Note_off_c, 0, 80, 64
2, 22680, Note_on_c, 0, 81, 64
2, 23400, Note_off_c, 0, 81, 64
2, 23400, End_track
3, 0, Start_track
3, 0, Text_t, "RH/LH"
3, 1440, Note_on_c, 0, 64, 64
3, 1680, Note_off_c, 0, 64, 64
3, 1680, Note_on_c, 0, 66, 64
3, 1800, Note_off_c, 0, 66, 64
3, 1800, Note_on_c, 0, 67, 64
3, 2040, Note_off_c, 0, 67, 64
3, 2040, Note_on_c, 0, 69, 64
3, 2160, Note_off_c, 0, 69, 64
3, 2160, Note_on_c, 0, 67, 64
3, 2270, Note_off_c, 0, 67, 64
3, 2280, Note_on_c, 0, 67, 70
3, 2300, Note_off_c, 0, 67, 64
3, 2300, Note_on_c, 0, 66, 49
3, 2320, Note_off_c, 0, 66, 64
3, 2320, Note_on_c, 0, 67, 52
3, 2340, Note_off_c, 0, 67, 64
3, 2340, Note_on_c, 0, 66, 54
3, 2360, Note_off_c, 0, 66, 64
3, 2360, Note_on_c, 0, 67, 57
3, 2380, Note_off_c, 0, 67, 64
3, 2380, Note_on_c, 0, 66, 60
3, 2520, Note_off_c, 0, 66, 64
3, 2520, Note_on_c, 0, 64, 64
3, 2580, Note_off_c, 0, 64, 64
3, 2580, Note_on_c, 0, 66, 64
3, 2640, Note_off_c, 0, 66, 64
3, 2640, Note_on_c, 0, 67, 64
3, 2700, Note_off_c, 0, 67, 64
3, 2700, Note_on_c, 0, 69, 64
3, 2760, Note_off_c, 0, 69, 64
3, 2760, Note_on_c, 0, 71, 64
3, 2820, Note_off_c, 0, 71, 64
3, 2820, Note_on_c, 0, 73, 64
3, 2880, Note_off_c, 0, 73, 64
3, 2880, Note_on_c, 0, 74, 64
3, 3290, Note_off_c, 0, 74, 64
3, 3300, Note_on_c, 0, 76, 64
3, 3360, Note_off_c, 0, 76, 64
3, 3360, Note_on_c, 0, 74, 64
3, 3420, Note_off_c, 0, 74, 64
3, 3420, Note_on_c, 0, 72, 64
3, 3480, Note_off_c, 0, 72, 64
3, 3480, Note_on_c, 0, 71, 64
3, 3540, Note_off_c, 0, 71, 64
3, 3540, Note_on_c, 0, 69, 64
3, 3600, Note_off_c, 0, 69, 64
3, 3600, Note_on_c, 0, 68, 64
3, 3960, Note_off_c, 0, 68, 64
3, 3960, Note_on_c, 0, 69, 64
3, 4020, Note_off_c, 0, 69, 64
3, 4020, Note_on_c, 0, 65, 64
3, 4080, Note_off_c, 0, 65, 64
3, 4080, Note_on_c, 0, 64, 64
3, 4140, Note_off_c, 0, 64, 64
3, 4140, Note_on_c, 0, 62, 64
3, 4200, Note_off_c, 0, 62, 64
3, 4200, Note_on_c, 0, 60, 64
3, 4260, Note_off_c, 0, 60, 64
3, 4260, Note_on_c, 0, 59, 64
3, 4320, Note_off_c, 0, 59, 64
3, 4320, Note_on_c, 0, 60, 64
3, 4380, Note_off_c, 0, 60, 64
3, 4380, Note_on_c, 0, 59, 64
3, 4440, Note_off_c, 0, 59, 64
3, 4440, Note_on_c, 0, 60, 64
3, 4500, Note_off_c, 0, 60, 64
3, 4500, Note_on_c, 0, 62, 64
3, 4560, Note_off_c, 0, 62, 64
3, 4560, Note_on_c, 0, 64, 64
3, 4620, Note_off_c, 0, 64, 64
3, 4620, Note_on_c, 0, 65, 64
3, 4680, Note_off_c, 0, 65, 64
3, 4680, Note_on_c, 0, 64, 64
3, 4740, Note_off_c, 0, 64, 64
3, 4740, Note_on_c, 0, 62, 64
3, 4800, Note_off_c, 0, 62, 64
3, 4800, Note_on_c, 0, 60, 64
3, 4860, Note_off_c, 0, 60, 64
3, 4860, Note_on_c, 0, 59, 64
3, 4920, Note_off_c, 0, 59, 64
3, 4920, Note_on_c, 0, 57, 64
3, 4980, Note_off_c, 0, 57, 64
3, 4980, Note_on_c, 0, 56, 64
3, 5040, Note_off_c, 0, 56, 64
3, 5040, Note_on_c, 0, 57, 64
3, 5100, Note_off_c, 0, 57, 64
3, 5100, Note_on_c, 0, 59, 64
3, 5160, Note_off_c, 0, 59, 64
3, 5160, Note_on_c, 0, 57, 68
3, 5180, Note_off_c, 0, 57, 64
3, 5180, Note_on_c, 0, 56, 48
3, 5200, Note_off_c, 0, 56, 64
3, 5200, Note_on_c, 0, 57, 51
3, 5220, Note_off_c, 0, 57, 64
3, 5220, Note_on_c, 0, 56, 53
3, 5240, Note_off_c, 0, 56, 64
3, 5240, Note_on_c, 0, 57, 56
3, 5260, Note_off_c, 0, 57, 64
3, 5260, Note_on_c, 0, 56, 59
3, 5400, Note_off_c, 0, 56, 64
3, 5400, Note_on_c, 0, 57, 64
3, 5520, Note_off_c, 0, 57, 64
3, 5520, Note_on_c, 0, 64, 64
3, 5640, Note_off_c, 0, 64, 64
3, 5640, Note_on_c, 0, 69, 64
3, 5880, Note_off_c, 0, 69, 64
3, 5880, Note_on_c, 0, 62, 64
3, 6000, Note_off_c, 0, 62, 64
3, 6000, Note_on_c, 0, 67, 64
3, 6240, Note_off_c, 0, 67, 64
3, 6240, Note_on_c, 0, 65, 64
3, 6300, Note_off_c, 0, 65, 64
3, 6300, Note_on_c, 0, 67, 64
3, 6360, Note_off_c, 0, 67, 64
3, 6360, Note_on_c, 0, 69, 64
3, 6420, Note_off_c, 0, 69, 64
3, 6420, Note_on_c, 0, 71, 64
3, 6480, Note_off_c, 0, 71, 64
3, 6480, Note_on_c, 0, 72, 64
3, 6600, Note_off_c, 0, 72, 64
3, 6600, Note_on_c, 0, 64, 64
3, 6660, Note_off_c, 0, 64, 64
3, 6660, Note_on_c, 0, 65, 64
3, 6720, Note_off_c, 0, 65, 64
3, 6720, Note_on_c, 0, 67, 64
3, 6780, Note_off_c, 0, 67, 64
3, 6780, Note_on_c, 0, 69, 64
3, 6840, Note_off_c, 0, 69, 64
3, 6840, Note_on_c, 0, 71, 64
3, 6960, Note_off_c, 0, 71, 64
3, 6960, Note_on_c, 0, 69, 64
3, 7080, Note_off_c, 0, 69, 64
3, 7080, Note_on_c, 0, 71, 64
3, 7200, Note_off_c, 0, 71, 64
3, 7200, Note_on_c, 0, 72, 64
3, 7320, Note_off_c, 0, 72, 64
3, 7320, Note_on_c, 0, 64, 64
3, 7440, Note_off_c, 0, 64, 64
3, 7440, Note_on_c, 0, 65, 64
3, 7560, Note_off_c, 0, 65, 64
3, 7560, Note_on_c, 0, 67, 64
3, 7800, Note_off_c, 0, 67, 64
3, 7800, Note_on_c, 0, 69, 64
3, 7920, Note_off_c, 0, 69, 64
3, 7920, Note_on_c, 0, 67, 64
3, 8040, Note_off_c, 0, 67, 64
3, 8040, Note_on_c, 0, 65, 64
3, 8280, Note_off_c, 0, 65, 64
3, 8280, Note_on_c, 0, 64, 64
3, 8400, Note_off_c, 0, 64, 64
3, 8760, Note_on_c, 0, 72, 64
3, 8880, Note_off_c, 0, 72, 64
3, 8880, Note_on_c, 0, 74, 64
3, 9000, Note_off_c, 0, 74, 64
3, 9000, Note_on_c, 0, 76, 64
3, 9240, Note_off_c, 0, 76, 64
3, 9240, Note_on_c, 0, 77, 64
3, 9360, Note_off_c, 0, 77, 64
3, 9360, Note_on_c, 0, 76, 64
3, 9480, Note_off_c, 0, 76, 64
3, 9480, Note_on_c, 0, 74, 64
3, 9770, Note_off_c, 0, 74, 64
3, 9780, Note_on_c, 0, 74, 64
3, 9840, Note_off_c, 0, 74, 64
3, 9840, Note_on_c, 0, 72, 64
3, 9900, Note_off_c, 0, 72, 64
3, 9900, Note_on_c, 0, 70, 64
3, 9960, Note_off_c, 0, 70, 64
3, 9960, Note_on_c, 0, 69, 64
3, 10020, Note_off_c, 0, 69, 64
3, 10020, Note_on_c, 0, 67, 64
3, 10080, Note_off_c, 0, 67, 64
3, 10080, Note_on_c, 0, 65, 64
3, 10200, Note_off_c, 0, 65, 64
3, 10200, Note_on_c, 0, 69, 64
3, 10560, Note_off_c, 0, 69, 64
3, 10560, Note_on_c, 0, 69, 64
3, 10680, Note_off_c, 0, 69, 64
3, 10680, Note_on_c, 0, 73, 64
3, 10800, Note_off_c, 0, 73, 64
3, 10800, Note_on_c, 0, 74, 64
3, 11040, Note_off_c, 0, 74, 64
3, 11040, Note_on_c, 0, 73, 64
3, 11160, Note_off_c, 0, 73, 64
3, 11160, Note_on_c, 0, 74, 64
3, 11280, Note_off_c, 0, 74, 64
3, 11640, Note_on_c, 0, 74, 64
3, 11760, Note_off_c, 0, 74, 64
3, 11760, Note_on_c, 0, 76, 64
3, 11880, Note_off_c, 0, 76, 64
3, 11880, Note_on_c, 0, 77, 64
3, 12120, Note_off_c, 0, 77, 64
3, 12120, Note_on_c, 0, 79, 64
3, 12240, Note_off_c, 0, 79, 64
3, 12240, Note_on_c, 0, 77, 64
3, 12360, Note_off_c, 0, 77, 64
3, 12360, Note_on_c, 0, 76, 64
3, 12720, Note_off_c, 0, 76, 64
3, 12720, Note_on_c, 0, 74, 64
3, 12840, Note_off_c, 0, 74, 64
3, 12840, Note_on_c, 0, 73, 64
3, 12960, Note_off_c, 0, 73, 64
3, 12960, Note_on_c, 0, 74, 64
3, 13020, Note_off_c, 0, 74, 64
3, 13020, Note_on_c, 0, 74, 64
3, 13050, Note_off_c, 0, 74, 64
3, 13050, Note_on_c, 0, 72, 64
3, 13080, Note_off_c, 0, 72, 64
3, 13080, Note_on_c, 0, 71, 64
3, 13140, Note_off_c, 0, 71, 64
3, 13140, Note_on_c, 0, 74, 64
3, 13200, Note_off_c, 0, 74, 64
3, 13200, Note_on_c, 0, 69, 64
3, 13260, Note_off_c, 0, 69, 64
3, 13260, Note_on_c, 0, 74, 64
3, 13320, Note_off_c, 0, 74, 64
3, 13320, Note_on_c, 0, 67, 64
3, 13440, Note_off_c, 0, 67, 64
3, 13440, Note_on_c, 0, 72, 64
3, 13560, Note_off_c, 0, 72, 64
3, 13560, Note_on_c, 0, 71, 64
3, 13680, Note_off_c, 0, 71, 64
3, 13680, Note_on_c, 0, 72, 64
3, 13740, Note_off_c, 0, 72, 64
3, 13740, Note_on_c, 0, 72, 64
3, 13770, Note_off_c, 0, 72, 64
3, 13770, Note_on_c, 0, 71, 64
3, 13800, Note_off_c, 0, 71, 64
3, 13800, Note_on_c, 0, 69, 64
3, 13860, Note_off_c, 0, 69, 64
3, 13860, Note_on_c, 0, 72, 64
3, 13920, Note_off_c, 0, 72, 64
3, 13920, Note_on_c, 0, 67, 64
3, 13980, Note_off_c, 0, 67, 64
3, 13980, Note_on_c, 0, 72, 64
3, 14040, Note_off_c, 0, 72, 64
3, 14040, Note_on_c, 0, 66, 64
3, 14160, Note_off_c, 0, 66, 64
3, 14160, Note_on_c, 0, 67, 64
3, 14280, Note_off_c, 0, 67, 64
3, 14280, Note_on_c, 0, 66, 64
3, 14400, Note_off_c, 0, 66, 64
3, 14400, Note_on_c, 0, 67, 64
3, 14640, Note_off_c, 0, 67, 64
3, 14880, Note_on_c, 0, 55, 64
3, 15000, Note_off_c, 0, 55, 64
3, 15000, Note_on_c, 0, 57, 64
3, 15120, Note_off_c, 0, 57, 64
3, 15120, Note_on_c, 0, 59, 64
3, 15360, Note_off_c, 0, 59, 64
3, 15360, Note_on_c, 0, 60, 64
3, 15480, Note_off_c, 0, 60, 64
3, 15480, Note_on_c, 0, 59, 64
3, 15600, Note_off_c, 0, 59, 64
3, 15600, Note_on_c, 0, 57, 64
3, 15890, Note_off_c, 0, 57, 64
3, 15900, Note_on_c, 0, 55, 64
3, 15960, Note_off_c, 0, 55, 64
3, 15960, Note_on_c, 0, 57, 64
3, 16020, Note_off_c, 0, 57, 64
3, 16020, Note_on_c, 0, 55, 64
3, 16080, Note_off_c, 0, 55, 64
3, 16080, Note_on_c, 0, 57, 64
3, 16140, Note_off_c, 0, 57, 64
3, 16140, Note_on_c, 0, 59, 64
3, 16200, Note_off_c, 0, 59, 64
3, 16200, Note_on_c, 0, 60, 64
3, 16260, Note_off_c, 0, 60, 64
3, 16260, Note_on_c, 0, 67, 64
3, 16320, Note_off_c, 0, 67, 64
3, 16320, Note_on_c, 0, 65, 64
3, 16380, Note_off_c, 0, 65, 64
3, 16380, Note_on_c, 0, 64, 64
3, 16440, Note_off_c, 0, 64, 64
3, 16440, Note_on_c, 0, 65, 64
3, 16500, Note_off_c, 0, 65, 64
3, 16500, Note_on_c, 0, 67, 64
3, 16560, Note_off_c, 0, 67, 64
3, 16560, Note_on_c, 0, 64, 64
3, 16680, Note_off_c, 0, 64, 64
3, 16680, Note_on_c, 0, 62, 64
3, 16920, Note_off_c, 0, 62, 64
3, 16920, Note_on_c, 0, 60, 64
3, 17040, Note_off_c, 0, 60, 64
3, 17040, Note_on_c, 0, 59, 64
3, 17160, Note_off_c, 0, 59, 64
3, 17160, Note_on_c, 0, 57, 64
3, 17280, Note_off_c, 0, 57, 64
3, 17280, Note_on_c, 0, 52, 64
3, 17400, Note_off_c, 0, 52, 64
3, 17400, Note_on_c, 0, 57, 64
3, 17520, Note_off_c, 0, 57, 64
3, 17520, Note_on_c, 0, 59, 64
3, 17640, Note_off_c, 0, 59, 64
3, 17640, Note_on_c, 0, 60, 64
3, 17880, Note_off_c, 0, 60, 64
3, 17880, Note_on_c, 0, 62, 64
3, 18000, Note_off_c, 0, 62, 64
3, 18000, Note_on_c, 0, 60, 64
3, 18120, Note_off_c, 0, 60, 64
3, 18120, Note_on_c, 0, 59, 64
3, 18410, Note_off_c, 0, 59, 64
3, 18420, Note_on_c, 0, 52, 64
3, 18480, Note_off_c, 0, 52, 64
3, 18480, Note_on_c, 0, 54, 64
3, 18540, Note_off_c, 0, 54, 64
3, 18540, Note_on_c, 0, 56, 64
3, 18600, Note_off_c, 0, 56, 64
3, 18600, Note_on_c, 0, 57, 64
3, 18660, Note_off_c, 0, 57, 64
3, 18660, Note_on_c, 0, 56, 64
3, 18720, Note_off_c, 0, 56, 64
3, 18720, Note_on_c, 0, 57, 64
3, 18780, Note_off_c, 0, 57, 64
3, 18780, Note_on_c, 0, 60, 64
3, 18840, Note_off_c, 0, 60, 64
3, 18840, Note_on_c, 0, 64, 64
3, 18900, Note_off_c, 0, 64, 64
3, 18900, Note_on_c, 0, 69, 64
3, 19020, Note_off_c, 0, 69, 64
3, 19020, Note_on_c, 0, 68, 64
3, 19080, Note_off_c, 0, 68, 64
3, 19080, Note_on_c, 0, 69, 64
3, 19140, Note_off_c, 0, 69, 64
3, 19140, Note_on_c, 0, 64, 64
3, 19200, Note_off_c, 0, 64, 64
3, 19200, Note_on_c, 0, 60, 64
3, 19260, Note_off_c, 0, 60, 64
3, 19260, Note_on_c, 0, 57, 64
3, 19380, Note_off_c, 0, 57, 64
3, 19380, Note_on_c, 0, 56, 64
3, 19440, Note_off_c, 0, 56, 64
3, 19440, Note_on_c, 0, 57, 64
3, 19500, Note_off_c, 0, 57, 64
3, 19500, Note_on_c, 0, 60, 64
3, 19560, Note_off_c, 0, 60, 64
3, 19560, Note_on_c, 0, 64, 64
3, 19620, Note_off_c, 0, 64, 64
3, 19620, Note_on_c, 0, 69, 64
3, 19680, Note_off_c, 0, 69, 64
3, 19680, Note_on_c, 0, 68, 64
3, 19740, Note_off_c, 0, 68, 64
3, 19740, Note_on_c, 0, 69, 64
3, 19800, Note_off_c, 0, 69, 64
3, 19800, Note_on_c, 0, 57, 64
3, 19860, Note_off_c, 0, 57, 64
3, 19860, Note_on_c, 0, 72, 64
3, 19890, Note_off_c, 0, 72, 64
3, 19890, Note_on_c, 0, 71, 64
3, 19920, Note_off_c, 0, 71, 64
3, 19920, Note_on_c, 0, 69, 64
3, 19980, Note_off_c, 0, 69, 64
3, 19980, Note_on_c, 0, 72, 64
3, 20040, Note_off_c, 0, 72, 64
3, 20040, Note_on_c, 0, 67, 64
3, 20100, Note_off_c, 0, 67, 64
3, 20100, Note_on_c, 0, 72, 64
3, 20160, Note_off_c, 0, 72, 64
3, 20160, Note_on_c, 0, 66, 64
3, 20220, Note_off_c, 0, 66, 64
3, 20220, Note_on_c, 0, 71, 64
3, 20250, Note_off_c, 0, 71, 64
3, 20250, Note_on_c, 0, 69, 64
3, 20280, Note_off_c, 0, 69, 64
3, 20280, Note_on_c, 0, 68, 64
3, 20340, Note_off_c, 0, 68, 64
3, 20340, Note_on_c, 0, 71, 64
3, 20400, Note_off_c, 0, 71, 64
3, 20400, Note_on_c, 0, 66, 64
3, 20460, Note_off_c, 0, 66, 64
3, 20460, Note_on_c, 0, 71, 64
3, 20520, Note_off_c, 0, 71, 64
3, 20520, Note_on_c, 0, 64, 64
3, 21000, Note_off_c, 0, 64, 64
3, 21000, Note_on_c, 0, 62, 64
3, 21290, Note_off_c, 0, 62, 64
3, 21300, Note_on_c, 0, 64, 64
3, 21330, Note_off_c, 0, 64, 64
3, 21330, Note_on_c, 0, 62, 64
3, 21360, Note_off_c, 0, 62, 64
3, 21360, Note_on_c, 0, 60, 64
3, 21420, Note_off_c, 0, 60, 64
3, 21420, Note_on_c, 0, 64, 64
3, 21480, Note_off_c, 0, 64, 64
3, 21480, Note_on_c, 0, 59, 64
3, 21540, Note_off_c, 0, 59, 64
3, 21540, Note_on_c, 0, 64, 64
3, 21600, Note_off_c, 0, 64, 64
3, 21600, Note_on_c, 0, 57, 64
3, 21720, Note_off_c, 0, 57, 64
3, 21720, Note_on_c, 0, 69, 64
3, 21840, Note_off_c, 0, 69, 64
3, 21840, Note_on_c, 0, 68, 64
3, 21960, Note_off_c, 0, 68, 64
3, 21960, Note_on_c, 0, 69, 64
3, 22080, Note_off_c, 0, 69, 64
3, 22080, Note_on_c, 0, 62, 64
3, 22370, Note_off_c, 0, 62, 64
3, 22380, Note_on_c, 0, 76, 64
3, 22410, Note_off_c, 0, 76, 64
3, 22410, Note_on_c, 0, 74, 64
3, 22440, Note_off_c, 0, 74, 64
3, 22440, Note_on_c, 0, 72, 64
3, 22500, Note_off_c, 0, 72, 64
3, 22500, Note_on_c, 0, 76, 64
3, 22560, Note_off_c, 0, 76, 64
3, 22560, Note_on_c, 0, 71, 64
3, 22620, Note_off_c, 0, 71, 64
3, 22620, Note_on_c, 0, 76, 64
3, 22680, Note_off_c, 0, 76, 64
3, 22680, Note_on_c, 0, 73, 64
3, 23400, Note_off_c, 0, 73, 64
3, 23400, End_track
4, 0, Start_track
4, 0, Text_t, "LH"
4, 0, Note_on_c, 0, 45, 64
4, 120, Note_off_c, 0, 45, 64
4, 120, Note_on_c, 0, 57, 64
4, 240, Note_off_c, 0, 57, 64
4, 240, Note_on_c, 0, 56, 64
4, 360, Note_off_c, 0, 56, 64
4, 360, Note_on_c, 0, 57, 64
4, 480, Note_off_c, 0, 57, 64
4, 480, Note_on_c, 0, 52, 64
4, 600, Note_off_c, 0, 52, 64
4, 600, Note_on_c, 0, 53, 64
4, 720, Note_off_c, 0, 53, 64
4, 720, Note_on_c, 0, 50, 64
4, 840, Note_off_c, 0, 50, 64
4, 840, Note_on_c, 0, 52, 64
4, 960, Note_off_c, 0, 52, 64
4, 960, Note_on_c, 0, 40, 64
4, 1080, Note_off_c, 0, 40, 64
4, 1080, Note_on_c, 0, 45, 64
4, 1200, Note_off_c, 0, 45, 64
4, 1200, Note_on_c, 0, 57, 64
4, 1260, Note_off_c, 0, 57, 64
4, 1260, Note_on_c, 0, 59, 64
4, 1320, Note_off_c, 0, 59, 64
4, 1320, Note_on_c, 0, 60, 64
4, 1380, Note_off_c, 0, 60, 64
4, 1380, Note_on_c, 0, 57, 64
4, 1440, Note_off_c, 0, 57, 64
4, 1560, Note_on_c, 0, 52, 64
4, 1680, Note_off_c, 0, 52, 64
4, 1680, Note_on_c, 0, 63, 64
4, 1800, Note_off_c, 0, 63, 64
4, 1800, Note_on_c, 0, 64, 64
4, 1920, Note_off_c, 0, 64, 64
4, 1920, Note_on_c, 0, 59, 64
4, 2040, Note_off_c, 0, 59, 64
4, 2040, Note_on_c, 0, 60, 64
4, 2160, Note_off_c, 0, 60, 64
4, 2160, Note_on_c, 0, 57, 64
4, 2280, Note_off_c, 0, 57, 64
4, 2280, Note_on_c, 0, 59, 64
4, 2400, Note_off_c, 0, 59, 64
4, 2400, Note_on_c, 0, 47, 64
4, 2520, Note_off_c, 0, 47, 64
4, 2520, Note_on_c, 0, 52, 64
4, 2760, Note_off_c, 0, 52, 64
4, 4320, Note_on_c, 0, 45, 64
4, 4560, Note_off_c, 0, 45, 64
4, 4560, Note_on_c, 0, 47, 64
4, 4680, Note_off_c, 0, 47, 64
4, 4680, Note_on_c, 0, 48, 64
4, 4920, Note_off_c, 0, 48, 64
4, 4920, Note_on_c, 0, 50, 64
4, 5040, Note_off_c, 0, 50, 64
4, 5040, Note_on_c, 0, 48, 64
4, 5160, Note_off_c, 0, 48, 64
4, 5160, Note_on_c, 0, 47, 64
4, 5400, Note_off_c, 0, 47, 64
4, 5400, Note_on_c, 0, 45, 64
4, 5460, Note_off_c, 0, 45, 64
4, 5460, Note_on_c, 0, 47, 64
4, 5520, Note_off_c, 0, 47, 64
4, 5520, Note_on_c, 0, 48, 64
4, 5580, Note_off_c, 0, 48, 64
4, 5580, Note_on_c, 0, 50, 64
4, 5640, Note_off_c, 0, 50, 64
4, 5640, Note_on_c, 0, 52, 64
4, 5700, Note_off_c, 0, 52, 64
4, 5700, Note_on_c, 0, 54, 64
4, 5760, Note_off_c, 0, 54, 64
4, 5760, Note_on_c, 0, 55, 64
4, 5820, Note_off_c, 0, 55, 64
4, 5820, Note_on_c, 0, 57, 64
4, 5880, Note_off_c, 0, 57, 64
4, 5880, Note_on_c, 0, 59, 64
4, 5940, Note_off_c, 0, 59, 64
4, 5940, Note_on_c, 0, 60, 64
4, 6000, Note_off_c, 0, 60, 64
4, 6000, Note_on_c, 0, 62, 64
4, 6060, Note_off_c, 0, 62, 64
4, 6060, Note_on_c, 0, 64, 64
4, 6120, Note_off_c, 0, 64, 64
4, 6120, Note_on_c, 0, 65, 64
4, 6480, Note_off_c, 0, 65, 64
4, 6480, Note_on_c, 0, 64, 64
4, 6840, Note_off_c, 0, 64, 64
4, 6840, Note_on_c, 0, 62, 64
4, 7200, Note_off_c, 0, 62, 64
4, 7200, Note_on_c, 0, 48, 64
4, 7260, Note_off_c, 0, 48, 64
4, 7260, Note_on_c, 0, 52, 64
4, 7320, Note_off_c, 0, 52, 64
4, 7320, Note_on_c, 0, 55, 64
4, 7380, Note_off_c, 0, 55, 64
4, 7380, Note_on_c, 0, 60, 64
4, 7500, Note_off_c, 0, 60, 64
4, 7500, Note_on_c, 0, 59, 64
4, 7560, Note_off_c, 0, 59, 64
4, 7560, Note_on_c, 0, 60, 64
4, 7620, Note_off_c, 0, 60, 64
4, 7620, Note_on_c, 0, 55, 64
4, 7680, Note_off_c, 0, 55, 64
4, 7680, Note_on_c, 0, 52, 64
4, 7740, Note_off_c, 0, 52, 64
4, 7740, Note_on_c, 0, 48, 64
4, 7860, Note_off_c, 0, 48, 64
4, 7860, Note_on_c, 0, 47, 64
4, 7920, Note_off_c, 0, 47, 64
4, 7920, Note_on_c, 0, 48, 64
4, 7980, Note_off_c, 0, 48, 64
4, 7980, Note_on_c, 0, 52, 64
4, 8040, Note_off_c, 0, 52, 64
4, 8040, Note_on_c, 0, 55, 64
4, 8100, Note_off_c, 0, 55, 64
4, 8100, Note_on_c, 0, 60, 64
4, 8160, Note_off_c, 0, 60, 64
4, 8160, Note_on_c, 0, 59, 64
4, 8220, Note_off_c, 0, 59, 64
4, 8220, Note_on_c, 0, 60, 64
4, 8280, Note_off_c, 0, 60, 64
4, 8280, Note_on_c, 0, 48, 64
4, 8400, Note_off_c, 0, 48, 64
4, 8400, Note_on_c, 0, 60, 64
4, 8520, Note_off_c, 0, 60, 64
4, 8520, Note_on_c, 0, 59, 64
4, 8640, Note_off_c, 0, 59, 64
4, 8640, Note_on_c, 0, 57, 64
4, 8700, Note_off_c, 0, 57, 64
4, 8700, Note_on_c, 0, 69, 64
4, 8760, Note_off_c, 0, 69, 64
4, 8760, Note_on_c, 0, 67, 64
4, 8820, Note_off_c, 0, 67, 64
4, 8820, Note_on_c, 0, 65, 64
4, 8880, Note_off_c, 0, 65, 64
4, 8880, Note_on_c, 0, 64, 64
4, 8940, Note_off_c, 0, 64, 64
4, 8940, Note_on_c, 0, 62, 64
4, 9000, Note_off_c, 0, 62, 64
4, 9000, Note_on_c, 0, 60, 64
4, 9060, Note_off_c, 0, 60, 64
4, 9060, Note_on_c, 0, 64, 64
4, 9120, Note_off_c, 0, 64, 64
4, 9120, Note_on_c, 0, 67, 64
4, 9180, Note_off_c, 0, 67, 64
4, 9180, Note_on_c, 0, 72, 64
4, 9300, Note_off_c, 0, 72, 64
4, 9300, Note_on_c, 0, 71, 64
4, 9360, Note_off_c, 0, 71, 64
4, 9360, Note_on_c, 0, 72, 64
4, 9420, Note_off_c, 0, 72, 64
4, 9420, Note_on_c, 0, 60, 64
4, 9480, Note_off_c, 0, 60, 64
4, 9480, Note_on_c, 0, 72, 64
4, 9540, Note_off_c, 0, 72, 64
4, 9540, Note_on_c, 0, 71, 64
4, 9600, Note_off_c, 0, 71, 64
4, 9600, Note_on_c, 0, 69, 64
4, 9660, Note_off_c, 0, 69, 64
4, 9660, Note_on_c, 0, 71, 64
4, 9720, Note_off_c, 0, 71, 64
4, 9720, Note_on_c, 0, 72, 64
4, 9840, Note_off_c, 0, 72, 64
4, 9840, Note_on_c, 0, 60, 64
4, 9960, Note_off_c, 0, 60, 64
4, 9960, Note_on_c, 0, 61, 64
4, 10080, Note_off_c, 0, 61, 64
4, 10080, Note_on_c, 0, 62, 64
4, 10140, Note_off_c, 0, 62, 64
4, 10140, Note_on_c, 0, 67, 64
4, 10200, Note_off_c, 0, 67, 64
4, 10200, Note_on_c, 0, 65, 64
4, 10260, Note_off_c, 0, 65, 64
4, 10260, Note_on_c, 0, 64, 64
4, 10320, Note_off_c, 0, 64, 64
4, 10320, Note_on_c, 0, 62, 64
4, 10380, Note_off_c, 0, 62, 64
4, 10380, Note_on_c, 0, 61, 64
4, 10440, Note_off_c, 0, 61, 64
4, 10440, Note_on_c, 0, 62, 64
4, 10500, Note_off_c, 0, 62, 64
4, 10500, Note_on_c, 0, 64, 64
4, 10560, Note_off_c, 0, 64, 64
4, 10560, Note_on_c, 0, 62, 64
4, 10620, Note_off_c, 0, 62, 64
4, 10620, Note_on_c, 0, 60, 64
4, 10680, Note_off_c, 0, 60, 64
4, 10680, Note_on_c, 0, 58, 64
4, 10740, Note_off_c, 0, 58, 64
4, 10740, Note_on_c, 0, 57, 64
4, 10800, Note_off_c, 0, 57, 64
4, 10800, Note_on_c, 0, 55, 64
4, 10860, Note_off_c, 0, 55, 64
4, 10860, Note_on_c, 0, 53, 64
4, 10920, Note_off_c, 0, 53, 64
4, 10920, Note_on_c, 0, 55, 64
4, 10980, Note_off_c, 0, 55, 64
4, 10980, Note_on_c, 0, 58, 64
4, 11040, Note_off_c, 0, 58, 64
4, 11040, Note_on_c, 0, 57, 64
4, 11100, Note_off_c, 0, 57, 64
4, 11100, Note_on_c, 0, 55, 64
4, 11160, Note_off_c, 0, 55, 64
4, 11160, Note_on_c, 0, 53, 64
4, 11220, Note_off_c, 0, 53, 64
4, 11220, Note_on_c, 0, 55, 64
4, 11280, Note_off_c, 0, 55, 64
4, 11280, Note_on_c, 0, 53, 64
4, 11340, Note_off_c, 0, 53, 64
4, 11340, Note_on_c, 0, 52, 64
4, 11400, Note_off_c, 0, 52, 64
4, 11400, Note_on_c, 0, 50, 64
4, 11460, Note_off_c, 0, 50, 64
4, 11460, Note_on_c, 0, 49, 64
4, 11520, Note_off_c, 0, 49, 64
4, 11520, Note_on_c, 0, 50, 64
4, 11580, Note_off_c, 0, 50, 64
4, 11580, Note_on_c, 0, 53, 64
4, 11640, Note_off_c, 0, 53, 64
4, 11640, Note_on_c, 0, 57, 64
4, 11700, Note_off_c, 0, 57, 64
4, 11700, Note_on_c, 0, 62, 64
4, 11820, Note_off_c, 0, 62, 64
4, 11820, Note_on_c, 0, 61, 64
4, 11880, Note_off_c, 0, 61, 64
4, 11880, Note_on_c, 0, 62, 64
4, 11940, Note_off_c, 0, 62, 64
4, 11940, Note_on_c, 0, 57, 64
4, 12000, Note_off_c, 0, 57, 64
4, 12000, Note_on_c, 0, 53, 64
4, 12060, Note_off_c, 0, 53, 64
4, 12060, Note_on_c, 0, 50, 64
4, 12180, Note_off_c, 0, 50, 64
4, 12180, Note_on_c, 0, 49, 64
4, 12240, Note_off_c, 0, 49, 64
4, 12240, Note_on_c, 0, 50, 64
4, 12300, Note_off_c, 0, 50, 64
4, 12300, Note_on_c, 0, 53, 64
4, 12360, Note_off_c, 0, 53, 64
4, 12360, Note_on_c, 0, 57, 64
4, 12420, Note_off_c, 0, 57, 64
4, 12420, Note_on_c, 0, 62, 64
4, 12480, Note_off_c, 0, 62, 64
4, 12480, Note_on_c, 0, 61, 64
4, 12540, Note_off_c, 0, 61, 64
4, 12540, Note_on_c, 0, 62, 64
4, 12600, Note_off_c, 0, 62, 64
4, 12600, Note_on_c, 0, 50, 64
4, 12720, Note_off_c, 0, 50, 64
4, 12720, Note_on_c, 0, 53, 64
4, 12840, Note_off_c, 0, 53, 64
4, 12840, Note_on_c, 0, 57, 64
4, 12960, Note_off_c, 0, 57, 64
4, 12960, Note_on_c, 0, 50, 64
4, 13020, Note_off_c, 0, 50, 64
4, 13020, Note_on_c, 0, 53, 64
4, 13050, Note_off_c, 0, 53, 64
4, 13050, Note_on_c, 0, 52, 64
4, 13080, Note_off_c, 0, 52, 64
4, 13080, Note_on_c, 0, 50, 64
4, 13140, Note_off_c, 0, 50, 64
4, 13140, Note_on_c, 0, 53, 64
4, 13200, Note_off_c, 0, 53, 64
4, 13200, Note_on_c, 0, 48, 64
4, 13260, Note_off_c, 0, 48, 64
4, 13260, Note_on_c, 0, 53, 64
4, 13320, Note_off_c, 0, 53, 64
4, 13320, Note_on_c, 0, 47, 64
4, 13440, Note_off_c, 0, 47, 64
4, 13440, Note_on_c, 0, 48, 64
4, 13560, Note_off_c, 0, 48, 64
4, 13560, Note_on_c, 0, 55, 64
4, 13680, Note_off_c, 0, 55, 64
4, 13680, Note_on_c, 0, 60, 64
4, 13740, Note_off_c, 0, 60, 64
4, 13740, Note_on_c, 0, 64, 64
4, 13770, Note_off_c, 0, 64, 64
4, 13770, Note_on_c, 0, 62, 64
4, 13800, Note_off_c, 0, 62, 64
4, 13800, Note_on_c, 0, 60, 64
4, 13860, Note_off_c, 0, 60, 64
4, 13860, Note_on_c, 0, 64, 64
4, 13920, Note_off_c, 0, 64, 64
4, 13920, Note_on_c, 0, 59, 64
4, 13980, Note_off_c, 0, 59, 64
4, 13980, Note_on_c, 0, 64, 64
4, 14040, Note_off_c, 0, 64, 64
4, 14040, Note_on_c, 0, 57, 64
4, 14160, Note_off_c, 0, 57, 64
4, 14160, Note_on_c, 0, 59, 64
4, 14280, Note_off_c, 0, 59, 64
4, 14280, Note_on_c, 0, 62, 64
4, 14400, Note_off_c, 0, 62, 64
4, 14400, Note_on_c, 0, 55, 64
4, 14520, Note_off_c, 0, 55, 64
4, 14520, Note_on_c, 0, 43, 64
4, 14640, Note_off_c, 0, 43, 64
4, 14640, Note_on_c, 0, 45, 64
4, 14760, Note_off_c, 0, 45, 64
4, 14760, Note_on_c, 0, 47, 64
4, 15000, Note_off_c, 0, 47, 64
4, 15000, Note_on_c, 0, 48, 64
4, 15120, Note_off_c, 0, 48, 64
4, 15120, Note_on_c, 0, 47, 64
4, 15240, Note_off_c, 0, 47, 64
4, 15240, Note_on_c, 0, 45, 64
4, 15480, Note_off_c, 0, 45, 64
4, 15480, Note_on_c, 0, 43, 64
4, 15600, Note_off_c, 0, 43, 64
4, 15600, Note_on_c, 0, 55, 64
4, 15720, Note_off_c, 0, 55, 64
4, 15720, Note_on_c, 0, 54, 64
4, 15840, Note_off_c, 0, 54, 64
4, 15840, Note_on_c, 0, 55, 64
4, 16080, Note_off_c, 0, 55, 64
4, 16080, Note_on_c, 0, 53, 64
4, 16200, Note_off_c, 0, 53, 64
4, 16200, Note_on_c, 0, 52, 64
4, 16440, Note_off_c, 0, 52, 64
4, 16440, Note_on_c, 0, 50, 64
4, 16560, Note_off_c, 0, 50, 64
4, 16560, Note_on_c, 0, 48, 64
4, 16620, Note_off_c, 0, 48, 64
4, 16620, Note_on_c, 0, 52, 64
4, 16680, Note_off_c, 0, 52, 64
4, 16680, Note_on_c, 0, 54, 64
4, 16740, Note_off_c, 0, 54, 64
4, 16740, Note_on_c, 0, 52, 64
4, 16800, Note_off_c, 0, 52, 64
4, 16800, Note_on_c, 0, 54, 64
4, 16860, Note_off_c, 0, 54, 64
4, 16860, Note_on_c, 0, 56, 64
4, 16920, Note_off_c, 0, 56, 64
4, 16920, Note_on_c, 0, 57, 64
4, 16980, Note_off_c, 0, 57, 64
4, 16980, Note_on_c, 0, 52, 64
4, 17040, Note_off_c, 0, 52, 64
4, 17040, Note_on_c, 0, 50, 64
4, 17100, Note_off_c, 0, 50, 64
4, 17100, Note_on_c, 0, 48, 64
4, 17160, Note_off_c, 0, 48, 64
4, 17160, Note_on_c, 0, 50, 64
4, 17220, Note_off_c, 0, 50, 64
4, 17220, Note_on_c, 0, 52, 64
4, 17280, Note_off_c, 0, 52, 64
4, 17280, Note_on_c, 0, 48, 64
4, 17520, Note_off_c, 0, 48, 64
4, 17520, Note_on_c, 0, 52, 64
4, 17640, Note_off_c, 0, 52, 64
4, 17640, Note_on_c, 0, 57, 64
4, 17760, Note_off_c, 0, 57, 64
4, 17760, Note_on_c, 0, 55, 64
4, 17880, Note_off_c, 0, 55, 64
4, 17880, Note_on_c, 0, 53, 64
4, 18000, Note_off_c, 0, 53, 64
4, 18000, Note_on_c, 0, 52, 64
4, 18240, Note_off_c, 0, 52, 64
4, 18240, Note_on_c, 0, 50, 64
4, 18360, Note_off_c, 0, 50, 64
4, 18360, Note_on_c, 0, 48, 64
4, 18600, Note_off_c, 0, 48, 64
4, 18600, Note_on_c, 0, 47, 64
4, 18720, Note_off_c, 0, 47, 64
4, 18720, Note_on_c, 0, 45, 64
4, 18960, Note_off_c, 0, 45, 64
4, 18960, Note_on_c, 0, 47, 64
4, 19080, Note_off_c, 0, 47, 64
4, 19080, Note_on_c, 0, 48, 64
4, 19320, Note_off_c, 0, 48, 64
4, 19320, Note_on_c, 0, 50, 64
4, 19440, Note_off_c, 0, 50, 64
4, 19440, Note_on_c, 0, 48, 64
4, 19560, Note_off_c, 0, 48, 64
4, 19560, Note_on_c, 0, 47, 64
4, 19800, Note_off_c, 0, 47, 64
4, 19800, Note_on_c, 0, 45, 64
4, 19920, Note_off_c, 0, 45, 64
4, 19920, Note_on_c, 0, 48, 64
4, 20040, Note_off_c, 0, 48, 64
4, 20040, Note_on_c, 0, 45, 64
4, 20160, Note_off_c, 0, 45, 64
4, 20160, Note_on_c, 0, 50, 64
4, 20280, Note_off_c, 0, 50, 64
4, 20280, Note_on_c, 0, 47, 64
4, 20400, Note_off_c, 0, 47, 64
4, 20400, Note_on_c, 0, 45, 64
4, 20520, Note_off_c, 0, 45, 64
4, 20520, Note_on_c, 0, 44, 64
4, 20640, Note_off_c, 0, 44, 64
4, 20640, Note_on_c, 0, 45, 64
4, 20760, Note_off_c, 0, 45, 64
4, 20760, Note_on_c, 0, 43, 64
4, 20880, Note_off_c, 0, 43, 64
4, 20880, Note_on_c, 0, 42, 64
4, 21000, Note_off_c, 0, 42, 64
4, 21000, Note_on_c, 0, 41, 64
4, 21120, Note_off_c, 0, 41, 64
4, 21120, Note_on_c, 0, 53, 64
4, 21240, Note_off_c, 0, 53, 64
4, 21240, Note_on_c, 0, 52, 64
4, 21650, Note_off_c, 0, 52, 64
4, 21660, Note_on_c, 0, 52, 64
4, 21690, Note_off_c, 0, 52, 64
4, 21690, Note_on_c, 0, 50, 64
4, 21720, Note_off_c, 0, 50, 64
4, 21720, Note_on_c, 0, 48, 64
4, 21780, Note_off_c, 0, 48, 64
4, 21780, Note_on_c, 0, 52, 64
4, 21840, Note_off_c, 0, 52, 64
4, 21840, Note_on_c, 0, 47, 64
4, 21900, Note_off_c, 0, 47, 64
4, 21900, Note_on_c, 0, 52, 64
4, 21960, Note_off_c, 0, 52, 64
4, 21960, Note_on_c, 0, 45, 64
4, 22020, Note_off_c, 0, 45, 64
4, 22020, Note_on_c, 0, 59, 64
4, 22050, Note_off_c, 0, 59, 64
4, 22050, Note_on_c, 0, 57, 64
4, 22080, Note_off_c, 0, 57, 64
4, 22080, Note_on_c, 0, 56, 64
4, 22140, Note_off_c, 0, 56, 64
4, 22140, Note_on_c, 0, 59, 64
4, 22200, Note_off_c, 0, 59, 64
4, 22200, Note_on_c, 0, 52, 64
4, 22260, Note_off_c, 0, 52, 64
4, 22260, Note_on_c, 0, 56, 64
4, 22320, Note_off_c, 0, 56, 64
4, 22320, Note_on_c, 0, 48, 64
4, 22440, Note_off_c, 0, 48, 64
4, 22440, Note_on_c, 0, 50, 64
4, 22560, Note_off_c, 0, 50, 64
4, 22560, Note_on_c, 0, 52, 64
4, 22680, Note_off_c, 0, 52, 64
4, 22680, Note_on_c, 0, 45, 64
4, 23400, Note_off_c, 0, 45, 64
4, 23400, End_track
0, 0, End_of_file
