0, 0, Header, 1, 5, 120
1, 0, Start_track
1, 0, Key_signature, -1, "major"
1, 0, Tempo, 1200000
1, 0, Time_signature, 4, 2, 24, 8
1, 507, Tempo, 2400000
1, 658, Tempo, 1200000
1, 785, Tempo, 2400000
1, 982, Tempo, 1200000
1, 1271, Tempo, 2400000
1, 1545, Tempo, 1200000
1, 1871, Tempo, 2400000
1, 2048, Tempo, 1200000
1, 3285, Tempo, 800000
1, 6045, Tempo, 1000000
1, 14256, Tempo, 2000000
1, 14761, Tempo, 750000
1, 16800, Time_signature, 3, 2, 24, 8
1, 16909, Tempo, 1714285
1, 17160, Time_signature, 4, 2, 24, 8
1, 17400, Tempo, 1333333
1, 17850, Tempo, 2400000
1, 18180, Tempo, 3333333
1, 18360, Tempo, 750000
1, 39240, Tempo, 750000
1, 39336, Tempo, 740740
1, 39432, Tempo, 731707
1, 39528, Tempo, 722891
1, 39624, Tempo, 714285
1, 39720, Tempo, 705882
1, 44520, Tempo, 750000
1, 64200, Tempo, 750000
1, 64209, Tempo, 759493
1, 64219, Tempo, 769230
1, 64228, Tempo, 779220
1, 64238, Tempo, 789473
1, 64248, Tempo, 800000
1, 64257, Tempo, 810810
1, 64267, Tempo, 821917
1, 64276, Tempo, 833333
1, 64286, Tempo, 845070
1, 64296, Tempo, 857142
1, 64305, Tempo, 869565
1, 64315, Tempo, 882352
1, 64324, Tempo, 895522
1, 64334, Tempo, 909090
1, 64344, Tempo, 923076
1, 64353, Tempo, 937500
1, 64363, Tempo, 952380
1, 64372, Tempo, 967741
1, 64382, Tempo, 983606
1, 64392, Tempo, 1000000
1, 64401, Tempo, 1016949
1, 64411, Tempo, 1034482
1, 64420, Tempo, 1052631
1, 64430, Tempo, 1071428
1, 64440, Tempo, 1090909
1, 64449, Tempo, 1111111
1, 64459, Tempo, 1132075
1, 64468, Tempo, 1153846
1, 64478, Tempo, 1176470
1, 64488, Tempo, 1200000
1, 64497, Tempo, 1224489
1, 64507, Tempo, 1250000
1, 64516, Tempo, 1276595
1, 64526, Tempo, 1304347
1, 64536, Tempo, 1333333
1, 64545, Tempo, 1363636
1, 64555, Tempo, 1395348
1, 64564, Tempo, 1428571
1, 64574, Tempo, 1463414
1, 64584, Tempo, 1500000
1, 64593, Tempo, 1538461
1, 64603, Tempo, 1578947
1, 64612, Tempo, 1621621
1, 64622, Tempo, 1666666
1, 64632, Tempo, 1714285
1, 64641, Tempo, 1764705
1, 64651, Tempo, 1818181
1, 64660, Tempo, 1875000
1, 64670, Tempo, 1935483
1, 64680, Tempo, 2000000
1, 65040, Tempo, 666666
1, 66600, Tempo, 2000000
1, 68040, Time_signature, 8, 2, 24, 8
1, 68280, Tempo, 521739
1, 71550, Tempo, 1200000
1, 71880, Time_signature, 4, 2, 24, 8
1, 71910, Tempo, 800000
1, 73740, Tempo, 1333333
1, 74520, Tempo, 2000000
1, 74640, Tempo, 3000000
1, 74640, End_track
2, 0, Start_track
2, 0, Title_t, "Swell"
2, 0, Control_c, 0, 7, 127
2, 7824, Note_on_c, 0, 69, 72
2, 7843, Note_on_c, 0, 69, 0
2, 7860, Note_on_c, 0, 69, 68
2, 7881, Note_on_c, 0, 69, 0
2, 7899, Note_on_c, 0, 69, 64
2, 7920, Note_on_c, 0, 69, 0
2, 7937, Note_on_c, 0, 69, 70
2, 7954, Note_on_c, 0, 69, 0
2, 7975, Note_on_c, 0, 69, 74
2, 7989, Note_on_c, 0, 69, 0
2, 8010, Note_on_c, 0, 69, 82
2, 8025, Note_on_c, 0, 69, 0
2, 8046, Note_on_c, 0, 69, 80
2, 8061, Note_on_c, 0, 69, 0
2, 8081, Note_on_c, 0, 69, 82
2, 8097, Note_on_c, 0, 69, 0
2, 8119, Note_on_c, 0, 69, 68
2, 8137, Note_on_c, 0, 69, 0
2, 8159, Note_on_c, 0, 69, 80
2, 8175, Note_on_c, 0, 69, 0
2, 8198, Note_on_c, 0, 69, 68
2, 8214, Note_on_c, 0, 69, 0
2, 8240, Note_on_c, 0, 69, 82
2, 8252, Note_on_c, 0, 69, 0
2, 8275, Note_on_c, 0, 69, 78
2, 8289, Note_on_c, 0, 69, 0
2, 8309, Note_on_c, 0, 69, 78
2, 8323, Note_on_c, 0, 69, 0
2, 8347, Note_on_c, 0, 69, 82
2, 8360, Note_on_c, 0, 69, 0
2, 8380, Note_on_c, 0, 69, 78
2, 8392, Note_on_c, 0, 69, 0
2, 8413, Note_on_c, 0, 69, 72
2, 8427, Note_on_c, 0, 69, 0
2, 8451, Note_on_c, 0, 69, 80
2, 8464, Note_on_c, 0, 69, 0
2, 8486, Note_on_c, 0, 69, 78
2, 8500, Note_on_c, 0, 69, 0
2, 8523, Note_on_c, 0, 69, 80
2, 8537, Note_on_c, 0, 69, 0
2, 8558, Note_on_c, 0, 69, 76
2, 8573, Note_on_c, 0, 69, 0
2, 8599, Note_on_c, 0, 69, 82
2, 8614, Note_on_c, 0, 69, 0
2, 8637, Note_on_c, 0, 69, 78
2, 8650, Note_on_c, 0, 69, 0
2, 8673, Note_on_c, 0, 69, 76
2, 8686, Note_on_c, 0, 69, 0
2, 8706, Note_on_c, 0, 69, 66
2, 8721, Note_on_c, 0, 69, 0
2, 8743, Note_on_c, 0, 69, 72
2, 8756, Note_on_c, 0, 69, 0
2, 8779, Note_on_c, 0, 69, 70
2, 8792, Note_on_c, 0, 69, 0
2, 8817, Note_on_c, 0, 69, 68
2, 8829, Note_on_c, 0, 69, 0
2, 8853, Note_on_c, 0, 69, 82
2, 8864, Note_on_c, 0, 69, 0
2, 8888, Note_on_c, 0, 69, 80
2, 8900, Note_on_c, 0, 69, 0
2, 8922, Note_on_c, 0, 69, 82
2, 8933, Note_on_c, 0, 69, 0
2, 8956, Note_on_c, 0, 69, 80
2, 8968, Note_on_c, 0, 69, 0
2, 8992, Note_on_c, 0, 69, 78
2, 9005, Note_on_c, 0, 69, 0
2, 9031, Note_on_c, 0, 69, 80
2, 9042, Note_on_c, 0, 69, 0
2, 9066, Note_on_c, 0, 69, 82
2, 9078, Note_on_c, 0, 69, 0
2, 9100, Note_on_c, 0, 69, 82
2, 9111, Note_on_c, 0, 69, 0
2, 9133, Note_on_c, 0, 69, 76
2, 9144, Note_on_c, 0, 69, 0
2, 9167, Note_on_c, 0, 69, 78
2, 9178, Note_on_c, 0, 69, 0
2, 9202, Note_on_c, 0, 69, 80
2, 9213, Note_on_c, 0, 69, 0
2, 9237, Note_on_c, 0, 69, 82
2, 9248, Note_on_c, 0, 69, 0
2, 9271, Note_on_c, 0, 69, 78
2, 9281, Note_on_c, 0, 69, 0
2, 9305, Note_on_c, 0, 69, 78
2, 9316, Note_on_c, 0, 69, 0
2, 9340, Note_on_c, 0, 69, 80
2, 9352, Note_on_c, 0, 69, 0
2, 9377, Note_on_c, 0, 69, 74
2, 9389, Note_on_c, 0, 69, 0
2, 9415, Note_on_c, 0, 69, 76
2, 9426, Note_on_c, 0, 69, 0
2, 9451, Note_on_c, 0, 69, 80
2, 9462, Note_on_c, 0, 69, 0
2, 9486, Note_on_c, 0, 69, 82
2, 9498, Note_on_c, 0, 69, 0
2, 9521, Note_on_c, 0, 69, 80
2, 9531, Note_on_c, 0, 69, 0
2, 9564, Note_on_c, 0, 69, 85
2, 9572, Note_on_c, 0, 69, 0
2, 9594, Note_on_c, 0, 69, 80
2, 9605, Note_on_c, 0, 69, 0
2, 9629, Note_on_c, 0, 69, 87
2, 9640, Note_on_c, 0, 69, 0
2, 9661, Note_on_c, 0, 69, 78
2, 9673, Note_on_c, 0, 69, 0
2, 9696, Note_on_c, 0, 69, 78
2, 9707, Note_on_c, 0, 69, 0
2, 9731, Note_on_c, 0, 69, 80
2, 9743, Note_on_c, 0, 69, 0
2, 9766, Note_on_c, 0, 69, 78
2, 9777, Note_on_c, 0, 69, 0
2, 9802, Note_on_c, 0, 69, 78
2, 9824, Note_on_c, 0, 69, 0
2, 10673, Note_on_c, 0, 62, 70
2, 10691, Note_on_c, 0, 65, 66
2, 10707, Note_on_c, 0, 70, 64
2, 10711, Note_on_c, 0, 62, 0
2, 10713, Note_on_c, 0, 65, 0
2, 10726, Note_on_c, 0, 65, 59
2, 10739, Note_on_c, 0, 70, 0
2, 10742, Note_on_c, 0, 60, 66
2, 10742, Note_on_c, 0, 65, 0
2, 10759, Note_on_c, 0, 64, 82
2, 10775, Note_on_c, 0, 69, 72
2, 10779, Note_on_c, 0, 64, 0
2, 10791, Note_on_c, 0, 64, 68
2, 10795, Note_on_c, 0, 60, 0
2, 10801, Note_on_c, 0, 69, 0
2, 10807, Note_on_c, 0, 64, 0
2, 10809, Note_on_c, 0, 58, 78
2, 10825, Note_on_c, 0, 62, 85
2, 10838, Note_on_c, 0, 67, 78
2, 10840, Note_on_c, 0, 62, 0
2, 10842, Note_on_c, 0, 58, 0
2, 10855, Note_on_c, 0, 62, 87
2, 10868, Note_on_c, 0, 67, 0
2, 10872, Note_on_c, 0, 62, 0
2, 10876, Note_on_c, 0, 57, 85
2, 10893, Note_on_c, 0, 61, 87
2, 10903, Note_on_c, 0, 57, 0
2, 10912, Note_on_c, 0, 64, 80
2, 10923, Note_on_c, 0, 61, 0
2, 10930, Note_on_c, 0, 69, 87
2, 10935, Note_on_c, 0, 64, 0
2, 10956, Note_on_c, 0, 69, 0
2, 18390, Note_on_c, 0, 69, 91
2, 18419, Note_on_c, 0, 69, 0
2, 18420, Note_on_c, 0, 67, 87
2, 18449, Note_on_c, 0, 67, 0
2, 18450, Note_on_c, 0, 69, 89
2, 18479, Note_on_c, 0, 69, 0
2, 18480, Note_on_c, 0, 65, 102
2, 18509, Note_on_c, 0, 65, 0
2, 18510, Note_on_c, 0, 69, 85
2, 18539, Note_on_c, 0, 69, 0
2, 18540, Note_on_c, 0, 64, 100
2, 18569, Note_on_c, 0, 64, 0
2, 18570, Note_on_c, 0, 69, 82
2, 18599, Note_on_c, 0, 69, 0
2, 18600, Note_on_c, 0, 62, 87
2, 18629, Note_on_c, 0, 62, 0
2, 18630, Note_on_c, 0, 69, 87
2, 18659, Note_on_c, 0, 69, 0
2, 18660, Note_on_c, 0, 61, 98
2, 18689, Note_on_c, 0, 61, 0
2, 18690, Note_on_c, 0, 69, 91
2, 18719, Note_on_c, 0, 69, 0
2, 18720, Note_on_c, 0, 62, 100
2, 18749, Note_on_c, 0, 62, 0
2, 18750, Note_on_c, 0, 69, 87
2, 18779, Note_on_c, 0, 69, 0
2, 18780, Note_on_c, 0, 64, 91
2, 18809, Note_on_c, 0, 64, 0
2, 18810, Note_on_c, 0, 69, 82
2, 18839, Note_on_c, 0, 69, 0
2, 18840, Note_on_c, 0, 65, 98
2, 18869, Note_on_c, 0, 65, 0
2, 18870, Note_on_c, 0, 69, 85
2, 18899, Note_on_c, 0, 69, 0
2, 18900, Note_on_c, 0, 57, 78
2, 18929, Note_on_c, 0, 57, 0
2, 18930, Note_on_c, 0, 69, 76
2, 18959, Note_on_c, 0, 69, 0
2, 18960, Note_on_c, 0, 59, 89
2, 18989, Note_on_c, 0, 59, 0
2, 18990, Note_on_c, 0, 69, 85
2, 19019, Note_on_c, 0, 69, 0
2, 19020, Note_on_c, 0, 61, 87
2, 19049, Note_on_c, 0, 61, 0
2, 19050, Note_on_c, 0, 69, 80
2, 19079, Note_on_c, 0, 69, 0
2, 19080, Note_on_c, 0, 62, 98
2, 19109, Note_on_c, 0, 62, 0
2, 19110, Note_on_c, 0, 69, 82
2, 19139, Note_on_c, 0, 69, 0
2, 19140, Note_on_c, 0, 61, 102
2, 19169, Note_on_c, 0, 61, 0
2, 19170, Note_on_c, 0, 69, 76
2, 19199, Note_on_c, 0, 69, 0
2, 19200, Note_on_c, 0, 62, 100
2, 19229, Note_on_c, 0, 62, 0
2, 19230, Note_on_c, 0, 69, 85
2, 19259, Note_on_c, 0, 69, 0
2, 19260, Note_on_c, 0, 64, 63
2, 19290, Note_on_c, 0, 69, 80
2, 19319, Note_on_c, 0, 69, 0
2, 19319, Note_on_c, 0, 64, 0
2, 19320, Note_on_c, 0, 65, 85
2, 19350, Note_on_c, 0, 74, 89
2, 19376, Note_on_c, 0, 74, 0
2, 19379, Note_on_c, 0, 65, 0
2, 19380, Note_on_c, 0, 72, 82
2, 19380, Note_on_c, 0, 66, 105
2, 19410, Note_on_c, 0, 74, 85
2, 19414, Note_on_c, 0, 72, 0
2, 19439, Note_on_c, 0, 66, 0
2, 19440, Note_on_c, 0, 70, 85
2, 19440, Note_on_c, 0, 67, 89
2, 19443, Note_on_c, 0, 74, 0
2, 19470, Note_on_c, 0, 74, 82
2, 19474, Note_on_c, 0, 70, 0
2, 19499, Note_on_c, 0, 67, 0
2, 19500, Note_on_c, 0, 69, 85
2, 19500, Note_on_c, 0, 60, 78
2, 19504, Note_on_c, 0, 74, 0
2, 19530, Note_on_c, 0, 74, 82
2, 19533, Note_on_c, 0, 69, 0
2, 19559, Note_on_c, 0, 60, 0
2, 19560, Note_on_c, 0, 67, 80
2, 19560, Note_on_c, 0, 58, 87
2, 19561, Note_on_c, 0, 74, 0
2, 19590, Note_on_c, 0, 74, 80
2, 19593, Note_on_c, 0, 67, 0
2, 19619, Note_on_c, 0, 58, 0
2, 19620, Note_on_c, 0, 66, 80
2, 19620, Note_on_c, 0, 57, 80
2, 19622, Note_on_c, 0, 74, 0
2, 19650, Note_on_c, 0, 74, 87
2, 19654, Note_on_c, 0, 66, 0
2, 19679, Note_on_c, 0, 57, 0
2, 19680, Note_on_c, 0, 67, 82
2, 19680, Note_on_c, 0, 58, 85
2, 19681, Note_on_c, 0, 74, 0
2, 19710, Note_on_c, 0, 74, 85
2, 19713, Note_on_c, 0, 67, 0
2, 19739, Note_on_c, 0, 58, 0
2, 19740, Note_on_c, 0, 69, 89
2, 19740, Note_on_c, 0, 60, 85
2, 19745, Note_on_c, 0, 74, 0
2, 19770, Note_on_c, 0, 74, 87
2, 19772, Note_on_c, 0, 69, 0
2, 19799, Note_on_c, 0, 60, 0
2, 19800, Note_on_c, 0, 70, 100
2, 19800, Note_on_c, 0, 62, 89
2, 19806, Note_on_c, 0, 74, 0
2, 19830, Note_on_c, 0, 74, 85
2, 19833, Note_on_c, 0, 70, 0
2, 19859, Note_on_c, 0, 62, 0
2, 19860, Note_on_c, 0, 62, 72
2, 19860, Note_on_c, 0, 54, 100
2, 19865, Note_on_c, 0, 74, 0
2, 19890, Note_on_c, 0, 74, 87
2, 19894, Note_on_c, 0, 62, 0
2, 19919, Note_on_c, 0, 54, 0
2, 19920, Note_on_c, 0, 64, 82
2, 19920, Note_on_c, 0, 55, 85
2, 19929, Note_on_c, 0, 74, 0
2, 19950, Note_on_c, 0, 74, 89
2, 19958, Note_on_c, 0, 64, 0
2, 19979, Note_on_c, 0, 55, 0
2, 19980, Note_on_c, 0, 66, 87
2, 19980, Note_on_c, 0, 57, 85
2, 19986, Note_on_c, 0, 74, 0
2, 20010, Note_on_c, 0, 74, 89
2, 20019, Note_on_c, 0, 66, 0
2, 20039, Note_on_c, 0, 57, 0
2, 20040, Note_on_c, 0, 67, 87
2, 20040, Note_on_c, 0, 58, 87
2, 20046, Note_on_c, 0, 74, 0
2, 20070, Note_on_c, 0, 74, 93
2, 20073, Note_on_c, 0, 67, 0
2, 20099, Note_on_c, 0, 58, 0
2, 20100, Note_on_c, 0, 66, 93
2, 20100, Note_on_c, 0, 57, 82
2, 20104, Note_on_c, 0, 74, 0
2, 20130, Note_on_c, 0, 74, 85
2, 20132, Note_on_c, 0, 66, 0
2, 20159, Note_on_c, 0, 57, 0
2, 20160, Note_on_c, 0, 67, 72
2, 20160, Note_on_c, 0, 58, 78
2, 20166, Note_on_c, 0, 74, 0
2, 20190, Note_on_c, 0, 74, 91
2, 20195, Note_on_c, 0, 67, 0
2, 20219, Note_on_c, 0, 58, 0
2, 20220, Note_on_c, 0, 69, 93
2, 20220, Note_on_c, 0, 54, 102
2, 20224, Note_on_c, 0, 74, 0
2, 20250, Note_on_c, 0, 74, 87
2, 20252, Note_on_c, 0, 69, 0
2, 20279, Note_on_c, 0, 54, 0
2, 20280, Note_on_c, 0, 70, 100
2, 20280, Note_on_c, 0, 55, 70
2, 20286, Note_on_c, 0, 74, 0
2, 20309, Note_on_c, 0, 55, 0
2, 20310, Note_on_c, 0, 67, 78
2, 20328, Note_on_c, 0, 70, 0
2, 20339, Note_on_c, 0, 67, 0
2, 20340, Note_on_c, 0, 74, 89
2, 20340, Note_on_c, 0, 55, 78
2, 20369, Note_on_c, 0, 55, 0
2, 20370, Note_on_c, 0, 67, 85
2, 20384, Note_on_c, 0, 74, 0
2, 20399, Note_on_c, 0, 67, 0
2, 20400, Note_on_c, 0, 70, 74
2, 20400, Note_on_c, 0, 62, 87
2, 20429, Note_on_c, 0, 62, 0
2, 20430, Note_on_c, 0, 67, 89
2, 20446, Note_on_c, 0, 70, 0
2, 20459, Note_on_c, 0, 67, 0
2, 20460, Note_on_c, 0, 74, 91
2, 20460, Note_on_c, 0, 62, 91
2, 20489, Note_on_c, 0, 62, 0
2, 20490, Note_on_c, 0, 67, 85
2, 20505, Note_on_c, 0, 74, 0
2, 20519, Note_on_c, 0, 67, 0
2, 20520, Note_on_c, 0, 75, 78
2, 20520, Note_on_c, 0, 60, 87
2, 20549, Note_on_c, 0, 60, 0
2, 20550, Note_on_c, 0, 63, 78
2, 20568, Note_on_c, 0, 75, 0
2, 20579, Note_on_c, 0, 63, 0
2, 20580, Note_on_c, 0, 67, 82
2, 20580, Note_on_c, 0, 60, 66
2, 20609, Note_on_c, 0, 60, 0
2, 20610, Note_on_c, 0, 63, 70
2, 20623, Note_on_c, 0, 67, 0
2, 20639, Note_on_c, 0, 63, 0
2, 20640, Note_on_c, 0, 75, 78
2, 20640, Note_on_c, 0, 60, 82
2, 20669, Note_on_c, 0, 60, 0
2, 20670, Note_on_c, 0, 63, 66
2, 20692, Note_on_c, 0, 75, 0
2, 20699, Note_on_c, 0, 63, 0
2, 20700, Note_on_c, 0, 67, 80
2, 20700, Note_on_c, 0, 60, 78
2, 20729, Note_on_c, 0, 60, 0
2, 20730, Note_on_c, 0, 63, 70
2, 20744, Note_on_c, 0, 67, 0
2, 20759, Note_on_c, 0, 63, 0
2, 20760, Note_on_c, 0, 72, 82
2, 20760, Note_on_c, 0, 60, 82
2, 20789, Note_on_c, 0, 60, 0
2, 20790, Note_on_c, 0, 65, 87
2, 20801, Note_on_c, 0, 72, 0
2, 20819, Note_on_c, 0, 65, 0
2, 20820, Note_on_c, 0, 69, 82
2, 20820, Note_on_c, 0, 60, 80
2, 20849, Note_on_c, 0, 60, 0
2, 20850, Note_on_c, 0, 65, 78
2, 20863, Note_on_c, 0, 69, 0
2, 20879, Note_on_c, 0, 65, 0
2, 20880, Note_on_c, 0, 72, 80
2, 20880, Note_on_c, 0, 60, 85
2, 20909, Note_on_c, 0, 60, 0
2, 20910, Note_on_c, 0, 65, 72
2, 20919, Note_on_c, 0, 72, 0
2, 20939, Note_on_c, 0, 65, 0
2, 20940, Note_on_c, 0, 69, 80
2, 20940, Note_on_c, 0, 60, 66
2, 20969, Note_on_c, 0, 60, 0
2, 20970, Note_on_c, 0, 65, 70
2, 20988, Note_on_c, 0, 69, 0
2, 20999, Note_on_c, 0, 65, 0
2, 21000, Note_on_c, 0, 74, 89
2, 21000, Note_on_c, 0, 58, 91
2, 21029, Note_on_c, 0, 58, 0
2, 21030, Note_on_c, 0, 62, 82
2, 21046, Note_on_c, 0, 74, 0
2, 21059, Note_on_c, 0, 62, 0
2, 21060, Note_on_c, 0, 65, 68
2, 21060, Note_on_c, 0, 58, 87
2, 21089, Note_on_c, 0, 58, 0
2, 21090, Note_on_c, 0, 62, 70
2, 21107, Note_on_c, 0, 65, 0
2, 21119, Note_on_c, 0, 62, 0
2, 21120, Note_on_c, 0, 74, 87
2, 21120, Note_on_c, 0, 58, 95
2, 21149, Note_on_c, 0, 58, 0
2, 21150, Note_on_c, 0, 62, 72
2, 21164, Note_on_c, 0, 74, 0
2, 21179, Note_on_c, 0, 62, 0
2, 21180, Note_on_c, 0, 65, 80
2, 21180, Note_on_c, 0, 58, 85
2, 21209, Note_on_c, 0, 58, 0
2, 21210, Note_on_c, 0, 62, 72
2, 21225, Note_on_c, 0, 65, 0
2, 21239, Note_on_c, 0, 62, 0
2, 21240, Note_on_c, 0, 70, 85
2, 21240, Note_on_c, 0, 58, 100
2, 21269, Note_on_c, 0, 58, 0
2, 21270, Note_on_c, 0, 64, 82
2, 21283, Note_on_c, 0, 70, 0
2, 21299, Note_on_c, 0, 64, 0
2, 21300, Note_on_c, 0, 67, 87
2, 21300, Note_on_c, 0, 58, 80
2, 21329, Note_on_c, 0, 58, 0
2, 21330, Note_on_c, 0, 64, 78
2, 21345, Note_on_c, 0, 67, 0
2, 21359, Note_on_c, 0, 64, 0
2, 21360, Note_on_c, 0, 70, 72
2, 21360, Note_on_c, 0, 58, 98
2, 21389, Note_on_c, 0, 58, 0
2, 21390, Note_on_c, 0, 64, 80
2, 21409, Note_on_c, 0, 70, 0
2, 21419, Note_on_c, 0, 64, 0
2, 21420, Note_on_c, 0, 67, 80
2, 21420, Note_on_c, 0, 58, 89
2, 21449, Note_on_c, 0, 58, 0
2, 21450, Note_on_c, 0, 64, 76
2, 21462, Note_on_c, 0, 67, 0
2, 21479, Note_on_c, 0, 64, 0
2, 21480, Note_on_c, 0, 73, 87
2, 21480, Note_on_c, 0, 57, 87
2, 21509, Note_on_c, 0, 57, 0
2, 21510, Note_on_c, 0, 61, 87
2, 21526, Note_on_c, 0, 73, 0
2, 21539, Note_on_c, 0, 61, 0
2, 21540, Note_on_c, 0, 64, 78
2, 21540, Note_on_c, 0, 57, 89
2, 21569, Note_on_c, 0, 57, 0
2, 21570, Note_on_c, 0, 61, 89
2, 21589, Note_on_c, 0, 64, 0
2, 21599, Note_on_c, 0, 61, 0
2, 21600, Note_on_c, 0, 73, 82
2, 21600, Note_on_c, 0, 57, 91
2, 21629, Note_on_c, 0, 57, 0
2, 21630, Note_on_c, 0, 61, 85
2, 21645, Note_on_c, 0, 73, 0
2, 21659, Note_on_c, 0, 61, 0
2, 21660, Note_on_c, 0, 64, 78
2, 21660, Note_on_c, 0, 57, 82
2, 21689, Note_on_c, 0, 57, 0
2, 21690, Note_on_c, 0, 61, 76
2, 21706, Note_on_c, 0, 64, 0
2, 21719, Note_on_c, 0, 61, 0
2, 21720, Note_on_c, 0, 69, 80
2, 21720, Note_on_c, 0, 53, 87
2, 21749, Note_on_c, 0, 53, 0
2, 21750, Note_on_c, 0, 62, 82
2, 21762, Note_on_c, 0, 69, 0
2, 21779, Note_on_c, 0, 62, 0
2, 21780, Note_on_c, 0, 65, 80
2, 21780, Note_on_c, 0, 53, 70
2, 21809, Note_on_c, 0, 53, 0
2, 21810, Note_on_c, 0, 62, 80
2, 21825, Note_on_c, 0, 65, 0
2, 21839, Note_on_c, 0, 62, 0
2, 21840, Note_on_c, 0, 69, 87
2, 21840, Note_on_c, 0, 53, 80
2, 21869, Note_on_c, 0, 53, 0
2, 21870, Note_on_c, 0, 62, 82
2, 21882, Note_on_c, 0, 69, 0
2, 21899, Note_on_c, 0, 62, 0
2, 21900, Note_on_c, 0, 65, 85
2, 21900, Note_on_c, 0, 53, 74
2, 21929, Note_on_c, 0, 53, 0
2, 21930, Note_on_c, 0, 62, 80
2, 21939, Note_on_c, 0, 65, 0
2, 21959, Note_on_c, 0, 62, 0
2, 21960, Note_on_c, 0, 67, 85
2, 21960, Note_on_c, 0, 52, 85
2, 21960, Note_on_c, 0, 52, 80
2, 21989, Note_on_c, 0, 52, 0
2, 21989, Note_on_c, 0, 52, 0
2, 21990, Note_on_c, 0, 58, 61
2, 21998, Note_on_c, 0, 67, 0
2, 22019, Note_on_c, 0, 58, 0
2, 22020, Note_on_c, 0, 61, 63
2, 22020, Note_on_c, 0, 52, 78
2, 22049, Note_on_c, 0, 52, 0
2, 22050, Note_on_c, 0, 58, 78
2, 22066, Note_on_c, 0, 61, 0
2, 22079, Note_on_c, 0, 58, 0
2, 22080, Note_on_c, 0, 67, 82
2, 22080, Note_on_c, 0, 52, 76
2, 22109, Note_on_c, 0, 52, 0
2, 22110, Note_on_c, 0, 58, 78
2, 22122, Note_on_c, 0, 67, 0
2, 22139, Note_on_c, 0, 58, 0
2, 22140, Note_on_c, 0, 61, 62
2, 22140, Note_on_c, 0, 52, 78
2, 22169, Note_on_c, 0, 52, 0
2, 22170, Note_on_c, 0, 58, 82
2, 22177, Note_on_c, 0, 61, 0
2, 22199, Note_on_c, 0, 58, 0
2, 22200, Note_on_c, 0, 65, 76
2, 22200, Note_on_c, 0, 50, 85
2, 22229, Note_on_c, 0, 50, 0
2, 22230, Note_on_c, 0, 57, 70
2, 22244, Note_on_c, 0, 65, 0
2, 22259, Note_on_c, 0, 57, 0
2, 22260, Note_on_c, 0, 62, 85
2, 22260, Note_on_c, 0, 50, 91
2, 22289, Note_on_c, 0, 50, 0
2, 22290, Note_on_c, 0, 57, 63
2, 22304, Note_on_c, 0, 62, 0
2, 22319, Note_on_c, 0, 57, 0
2, 22320, Note_on_c, 0, 65, 91
2, 22320, Note_on_c, 0, 50, 85
2, 22349, Note_on_c, 0, 50, 0
2, 22350, Note_on_c, 0, 57, 74
2, 22364, Note_on_c, 0, 65, 0
2, 22379, Note_on_c, 0, 57, 0
2, 22380, Note_on_c, 0, 62, 85
2, 22380, Note_on_c, 0, 50, 85
2, 22409, Note_on_c, 0, 50, 0
2, 22410, Note_on_c, 0, 57, 70
2, 22412, Note_on_c, 0, 62, 0
2, 22439, Note_on_c, 0, 57, 0
2, 22440, Note_on_c, 0, 64, 91
2, 22440, Note_on_c, 0, 52, 98
2, 22469, Note_on_c, 0, 52, 0
2, 22470, Note_on_c, 0, 55, 70
2, 22489, Note_on_c, 0, 64, 0
2, 22499, Note_on_c, 0, 55, 0
2, 22500, Note_on_c, 0, 58, 76
2, 22500, Note_on_c, 0, 58, 66
2, 22500, Note_on_c, 0, 52, 82
2, 22529, Note_on_c, 0, 52, 0
2, 22530, Note_on_c, 0, 55, 76
2, 22546, Note_on_c, 0, 58, 0
2, 22559, Note_on_c, 0, 55, 0
2, 22559, Note_on_c, 0, 58, 0
2, 22560, Note_on_c, 0, 64, 87
2, 22560, Note_on_c, 0, 52, 70
2, 22589, Note_on_c, 0, 52, 0
2, 22590, Note_on_c, 0, 55, 72
2, 22604, Note_on_c, 0, 64, 0
2, 22618, Note_on_c, 0, 58, 74
2, 22619, Note_on_c, 0, 55, 0
2, 22620, Note_on_c, 0, 58, 87
2, 22620, Note_on_c, 0, 52, 64
2, 22650, Note_on_c, 0, 55, 85
2, 22670, Note_on_c, 0, 58, 0
2, 22678, Note_on_c, 0, 57, 80
2, 22679, Note_on_c, 0, 58, 0
2, 22679, Note_on_c, 0, 55, 0
2, 22679, Note_on_c, 0, 52, 0
2, 22680, Note_on_c, 0, 57, 87
2, 22680, Note_on_c, 0, 53, 70
2, 22713, Note_on_c, 0, 57, 0
2, 22739, Note_on_c, 0, 53, 0
2, 22739, Note_on_c, 0, 57, 0
2, 22740, Note_on_c, 0, 52, 85
2, 22740, Note_on_c, 0, 57, 82
2, 22799, Note_on_c, 0, 57, 0
2, 22799, Note_on_c, 0, 52, 0
2, 22800, Note_on_c, 0, 57, 80
2, 22800, Note_on_c, 0, 50, 72
2, 22859, Note_on_c, 0, 50, 0
2, 22859, Note_on_c, 0, 57, 0
2, 22860, Note_on_c, 0, 57, 78
2, 22860, Note_on_c, 0, 55, 80
2, 22919, Note_on_c, 0, 55, 0
2, 22919, Note_on_c, 0, 57, 0
2, 22920, Note_on_c, 0, 57, 82
2, 22920, Note_on_c, 0, 53, 89
2, 22979, Note_on_c, 0, 53, 0
2, 22979, Note_on_c, 0, 57, 0
2, 22980, Note_on_c, 0, 52, 80
2, 22980, Note_on_c, 0, 57, 70
2, 23039, Note_on_c, 0, 57, 0
2, 23039, Note_on_c, 0, 52, 0
2, 23040, Note_on_c, 0, 57, 72
2, 23040, Note_on_c, 0, 53, 80
2, 23099, Note_on_c, 0, 53, 0
2, 23099, Note_on_c, 0, 57, 0
2, 23100, Note_on_c, 0, 49, 80
2, 23100, Note_on_c, 0, 57, 70
2, 23159, Note_on_c, 0, 57, 0
2, 23159, Note_on_c, 0, 49, 0
2, 23160, Note_on_c, 0, 57, 70
2, 23160, Note_on_c, 0, 50, 87
2, 23219, Note_on_c, 0, 50, 0
2, 23219, Note_on_c, 0, 57, 0
2, 23220, Note_on_c, 0, 49, 80
2, 23220, Note_on_c, 0, 57, 70
2, 23279, Note_on_c, 0, 57, 0
2, 23279, Note_on_c, 0, 49, 0
2, 23280, Note_on_c, 0, 50, 89
2, 23280, Note_on_c, 0, 57, 68
2, 23339, Note_on_c, 0, 57, 0
2, 23339, Note_on_c, 0, 50, 0
2, 23340, Note_on_c, 0, 52, 82
2, 23340, Note_on_c, 0, 57, 80
2, 23399, Note_on_c, 0, 57, 0
2, 23399, Note_on_c, 0, 52, 0
2, 23400, Note_on_c, 0, 57, 80
2, 23400, Note_on_c, 0, 53, 80
2, 23459, Note_on_c, 0, 53, 0
2, 23459, Note_on_c, 0, 57, 0
2, 23460, Note_on_c, 0, 57, 72
2, 23460, Note_on_c, 0, 52, 76
2, 23519, Note_on_c, 0, 52, 0
2, 23519, Note_on_c, 0, 57, 0
2, 23520, Note_on_c, 0, 57, 76
2, 23520, Note_on_c, 0, 53, 85
2, 23549, Note_on_c, 0, 57, 0
2, 23579, Note_on_c, 0, 53, 0
2, 23580, Note_on_c, 0, 57, 87
2, 23580, Note_on_c, 0, 49, 85
2, 23639, Note_on_c, 0, 49, 0
2, 23639, Note_on_c, 0, 57, 0
2, 23640, Note_on_c, 0, 57, 85
2, 23640, Note_on_c, 0, 50, 87
2, 23759, Note_on_c, 0, 50, 0
2, 23759, Note_on_c, 0, 57, 0
2, 23760, Note_on_c, 0, 62, 98
2, 23760, Note_on_c, 0, 53, 89
2, 23879, Note_on_c, 0, 53, 0
2, 23879, Note_on_c, 0, 62, 0
2, 23880, Note_on_c, 0, 55, 89
2, 23880, Note_on_c, 0, 62, 89
2, 23999, Note_on_c, 0, 62, 0
2, 23999, Note_on_c, 0, 55, 0
2, 24120, Note_on_c, 0, 60, 82
2, 24120, Note_on_c, 0, 48, 80
2, 24239, Note_on_c, 0, 60, 0
2, 24240, Note_on_c, 0, 60, 76
2, 24240, Note_on_c, 0, 52, 85
2, 24269, Note_on_c, 0, 48, 0
2, 24359, Note_on_c, 0, 52, 0
2, 24359, Note_on_c, 0, 60, 0
2, 24360, Note_on_c, 0, 60, 72
2, 24360, Note_on_c, 0, 53, 85
2, 24509, Note_on_c, 0, 53, 0
2, 24509, Note_on_c, 0, 60, 0
2, 24600, Note_on_c, 0, 58, 91
2, 24600, Note_on_c, 0, 46, 85
2, 24719, Note_on_c, 0, 46, 0
2, 24719, Note_on_c, 0, 58, 0
2, 24720, Note_on_c, 0, 58, 72
2, 24720, Note_on_c, 0, 50, 85
2, 24839, Note_on_c, 0, 50, 0
2, 24839, Note_on_c, 0, 58, 0
2, 24840, Note_on_c, 0, 58, 62
2, 24840, Note_on_c, 0, 52, 93
2, 24959, Note_on_c, 0, 58, 0
2, 24989, Note_on_c, 0, 52, 0
2, 25080, Note_on_c, 0, 57, 85
2, 25080, Note_on_c, 0, 45, 80
2, 25199, Note_on_c, 0, 45, 0
2, 25199, Note_on_c, 0, 57, 0
2, 25200, Note_on_c, 0, 57, 76
2, 25200, Note_on_c, 0, 49, 70
2, 25319, Note_on_c, 0, 49, 0
2, 25319, Note_on_c, 0, 57, 0
2, 25320, Note_on_c, 0, 57, 78
2, 25320, Note_on_c, 0, 50, 85
2, 25439, Note_on_c, 0, 50, 0
2, 25439, Note_on_c, 0, 57, 0
2, 25500, Note_on_c, 0, 62, 82
2, 25500, Note_on_c, 0, 53, 85
2, 25559, Note_on_c, 0, 53, 0
2, 25559, Note_on_c, 0, 62, 0
2, 25560, Note_on_c, 0, 61, 87
2, 25560, Note_on_c, 0, 58, 85
2, 25619, Note_on_c, 0, 58, 0
2, 25619, Note_on_c, 0, 61, 0
2, 25620, Note_on_c, 0, 61, 87
2, 25620, Note_on_c, 0, 58, 85
2, 25679, Note_on_c, 0, 58, 0
2, 25679, Note_on_c, 0, 61, 0
2, 25680, Note_on_c, 0, 62, 80
2, 25680, Note_on_c, 0, 57, 82
2, 25739, Note_on_c, 0, 57, 0
2, 25739, Note_on_c, 0, 62, 0
2, 25740, Note_on_c, 0, 62, 87
2, 25740, Note_on_c, 0, 57, 74
2, 25799, Note_on_c, 0, 57, 0
2, 25799, Note_on_c, 0, 62, 0
2, 25800, Note_on_c, 0, 64, 89
2, 25800, Note_on_c, 0, 55, 80
2, 25919, Note_on_c, 0, 55, 0
2, 25919, Note_on_c, 0, 64, 0
2, 25980, Note_on_c, 0, 62, 89
2, 25980, Note_on_c, 0, 57, 72
2, 26039, Note_on_c, 0, 57, 0
2, 26039, Note_on_c, 0, 62, 0
2, 26040, Note_on_c, 0, 61, 105
2, 26040, Note_on_c, 0, 58, 98
2, 26099, Note_on_c, 0, 58, 0
2, 26099, Note_on_c, 0, 61, 0
2, 26100, Note_on_c, 0, 61, 82
2, 26100, Note_on_c, 0, 58, 80
2, 26159, Note_on_c, 0, 58, 0
2, 26159, Note_on_c, 0, 61, 0
2, 26160, Note_on_c, 0, 62, 82
2, 26160, Note_on_c, 0, 57, 80
2, 26219, Note_on_c, 0, 57, 0
2, 26219, Note_on_c, 0, 62, 0
2, 26220, Note_on_c, 0, 62, 87
2, 26220, Note_on_c, 0, 57, 72
2, 26279, Note_on_c, 0, 57, 0
2, 26279, Note_on_c, 0, 62, 0
2, 26280, Note_on_c, 0, 64, 78
2, 26280, Note_on_c, 0, 56, 85
2, 26399, Note_on_c, 0, 56, 0
2, 26399, Note_on_c, 0, 64, 0
2, 33480, Note_on_c, 0, 65, 85
2, 33549, Note_on_c, 0, 65, 0
2, 33599, Note_on_c, 0, 72, 95
2, 33685, Note_on_c, 0, 72, 0
2, 33716, Note_on_c, 0, 65, 98
2, 33796, Note_on_c, 0, 65, 0
2, 33836, Note_on_c, 0, 72, 85
2, 33911, Note_on_c, 0, 72, 0
2, 33958, Note_on_c, 0, 64, 85
2, 34037, Note_on_c, 0, 64, 0
2, 34075, Note_on_c, 0, 72, 85
2, 34158, Note_on_c, 0, 72, 0
2, 34195, Note_on_c, 0, 64, 80
2, 34296, Note_on_c, 0, 64, 0
2, 34322, Note_on_c, 0, 72, 89
2, 34393, Note_on_c, 0, 72, 0
2, 34440, Note_on_c, 0, 65, 70
2, 34440, Note_on_c, 0, 81, 102
2, 34469, Note_on_c, 0, 81, 0
2, 34470, Note_on_c, 0, 77, 89
2, 34499, Note_on_c, 0, 77, 0
2, 34499, Note_on_c, 0, 65, 0
2, 34500, Note_on_c, 0, 76, 85
2, 34529, Note_on_c, 0, 76, 0
2, 34530, Note_on_c, 0, 77, 87
2, 34559, Note_on_c, 0, 77, 0
2, 34560, Note_on_c, 0, 72, 66
2, 34590, Note_on_c, 0, 77, 85
2, 34619, Note_on_c, 0, 77, 0
2, 34619, Note_on_c, 0, 72, 0
2, 34620, Note_on_c, 0, 76, 82
2, 34649, Note_on_c, 0, 76, 0
2, 34650, Note_on_c, 0, 77, 89
2, 34679, Note_on_c, 0, 77, 0
2, 34680, Note_on_c, 0, 65, 66
2, 34680, Note_on_c, 0, 81, 100
2, 34709, Note_on_c, 0, 81, 0
2, 34710, Note_on_c, 0, 77, 100
2, 34739, Note_on_c, 0, 77, 0
2, 34739, Note_on_c, 0, 65, 0
2, 34740, Note_on_c, 0, 76, 80
2, 34769, Note_on_c, 0, 76, 0
2, 34770, Note_on_c, 0, 77, 89
2, 34799, Note_on_c, 0, 77, 0
2, 34800, Note_on_c, 0, 72, 64
2, 34830, Note_on_c, 0, 77, 85
2, 34859, Note_on_c, 0, 77, 0
2, 34859, Note_on_c, 0, 72, 0
2, 34860, Note_on_c, 0, 76, 68
2, 34889, Note_on_c, 0, 76, 0
2, 34890, Note_on_c, 0, 77, 78
2, 34919, Note_on_c, 0, 77, 0
2, 34920, Note_on_c, 0, 64, 74
2, 34920, Note_on_c, 0, 79, 82
2, 34949, Note_on_c, 0, 79, 0
2, 34950, Note_on_c, 0, 76, 72
2, 34979, Note_on_c, 0, 76, 0
2, 34979, Note_on_c, 0, 64, 0
2, 34980, Note_on_c, 0, 74, 68
2, 35009, Note_on_c, 0, 74, 0
2, 35010, Note_on_c, 0, 76, 74
2, 35039, Note_on_c, 0, 76, 0
2, 35040, Note_on_c, 0, 72, 78
2, 35070, Note_on_c, 0, 76, 82
2, 35099, Note_on_c, 0, 76, 0
2, 35099, Note_on_c, 0, 72, 0
2, 35100, Note_on_c, 0, 74, 70
2, 35129, Note_on_c, 0, 74, 0
2, 35130, Note_on_c, 0, 76, 82
2, 35159, Note_on_c, 0, 76, 0
2, 35160, Note_on_c, 0, 64, 66
2, 35160, Note_on_c, 0, 79, 82
2, 35189, Note_on_c, 0, 79, 0
2, 35190, Note_on_c, 0, 76, 89
2, 35219, Note_on_c, 0, 76, 0
2, 35219, Note_on_c, 0, 64, 0
2, 35220, Note_on_c, 0, 74, 91
2, 35249, Note_on_c, 0, 74, 0
2, 35250, Note_on_c, 0, 76, 85
2, 35279, Note_on_c, 0, 76, 0
2, 35280, Note_on_c, 0, 72, 78
2, 35310, Note_on_c, 0, 76, 91
2, 35339, Note_on_c, 0, 76, 0
2, 35339, Note_on_c, 0, 72, 0
2, 35340, Note_on_c, 0, 74, 85
2, 35369, Note_on_c, 0, 74, 0
2, 35370, Note_on_c, 0, 76, 89
2, 35399, Note_on_c, 0, 76, 0
2, 35400, Note_on_c, 0, 62, 80
2, 35429, Note_on_c, 0, 62, 0
2, 35880, Note_on_c, 0, 71, 105
2, 35909, Note_on_c, 0, 71, 0
2, 35910, Note_on_c, 0, 67, 89
2, 35939, Note_on_c, 0, 67, 0
2, 35940, Note_on_c, 0, 71, 100
2, 35969, Note_on_c, 0, 71, 0
2, 35970, Note_on_c, 0, 74, 87
2, 35999, Note_on_c, 0, 74, 0
2, 36000, Note_on_c, 0, 77, 89
2, 36029, Note_on_c, 0, 77, 0
2, 36030, Note_on_c, 0, 81, 98
2, 36059, Note_on_c, 0, 81, 0
2, 36060, Note_on_c, 0, 77, 107
2, 36089, Note_on_c, 0, 77, 0
2, 36090, Note_on_c, 0, 74, 100
2, 36119, Note_on_c, 0, 74, 0
2, 36360, Note_on_c, 0, 70, 95
2, 36389, Note_on_c, 0, 70, 0
2, 36390, Note_on_c, 0, 67, 76
2, 36419, Note_on_c, 0, 67, 0
2, 36420, Note_on_c, 0, 70, 85
2, 36449, Note_on_c, 0, 70, 0
2, 36450, Note_on_c, 0, 72, 76
2, 36479, Note_on_c, 0, 72, 0
2, 36480, Note_on_c, 0, 76, 87
2, 36509, Note_on_c, 0, 76, 0
2, 36510, Note_on_c, 0, 79, 78
2, 36539, Note_on_c, 0, 79, 0
2, 36540, Note_on_c, 0, 76, 98
2, 36569, Note_on_c, 0, 76, 0
2, 36570, Note_on_c, 0, 72, 89
2, 36599, Note_on_c, 0, 72, 0
2, 36840, Note_on_c, 0, 69, 100
2, 36869, Note_on_c, 0, 69, 0
2, 36870, Note_on_c, 0, 65, 64
2, 36899, Note_on_c, 0, 65, 0
2, 36900, Note_on_c, 0, 69, 82
2, 36929, Note_on_c, 0, 69, 0
2, 36930, Note_on_c, 0, 72, 78
2, 36959, Note_on_c, 0, 72, 0
2, 36960, Note_on_c, 0, 74, 100
2, 36989, Note_on_c, 0, 74, 0
2, 36990, Note_on_c, 0, 77, 82
2, 37019, Note_on_c, 0, 77, 0
2, 37020, Note_on_c, 0, 74, 102
2, 37049, Note_on_c, 0, 74, 0
2, 37050, Note_on_c, 0, 70, 82
2, 37079, Note_on_c, 0, 70, 0
2, 37320, Note_on_c, 0, 67, 91
2, 37344, Note_on_c, 0, 64, 85
2, 37349, Note_on_c, 0, 67, 0
2, 37374, Note_on_c, 0, 67, 91
2, 37375, Note_on_c, 0, 64, 0
2, 37401, Note_on_c, 0, 70, 91
2, 37405, Note_on_c, 0, 67, 0
2, 37432, Note_on_c, 0, 73, 98
2, 37441, Note_on_c, 0, 70, 0
2, 37460, Note_on_c, 0, 76, 87
2, 37463, Note_on_c, 0, 73, 0
2, 37493, Note_on_c, 0, 73, 107
2, 37499, Note_on_c, 0, 76, 0
2, 37522, Note_on_c, 0, 70, 95
2, 37525, Note_on_c, 0, 73, 0
2, 37555, Note_on_c, 0, 70, 0
2, 39240, Note_on_c, 0, 49, 107
2, 39269, Note_on_c, 0, 49, 0
2, 39270, Note_on_c, 0, 45, 89
2, 39299, Note_on_c, 0, 45, 0
2, 39300, Note_on_c, 0, 49, 102
2, 39329, Note_on_c, 0, 49, 0
2, 39330, Note_on_c, 0, 52, 87
2, 39359, Note_on_c, 0, 52, 0
2, 39360, Note_on_c, 0, 55, 105
2, 39389, Note_on_c, 0, 55, 0
2, 39390, Note_on_c, 0, 58, 82
2, 39419, Note_on_c, 0, 58, 0
2, 39420, Note_on_c, 0, 55, 91
2, 39449, Note_on_c, 0, 55, 0
2, 39450, Note_on_c, 0, 52, 87
2, 39479, Note_on_c, 0, 52, 0
2, 39720, Note_on_c, 0, 50, 91
2, 39749, Note_on_c, 0, 50, 0
2, 39750, Note_on_c, 0, 45, 85
2, 39779, Note_on_c, 0, 45, 0
2, 39780, Note_on_c, 0, 50, 87
2, 39809, Note_on_c, 0, 50, 0
2, 39810, Note_on_c, 0, 53, 89
2, 39839, Note_on_c, 0, 53, 0
2, 39840, Note_on_c, 0, 57, 82
2, 39869, Note_on_c, 0, 57, 0
2, 39870, Note_on_c, 0, 62, 91
2, 39899, Note_on_c, 0, 62, 0
2, 39900, Note_on_c, 0, 57, 85
2, 39929, Note_on_c, 0, 57, 0
2, 39930, Note_on_c, 0, 53, 82
2, 39959, Note_on_c, 0, 53, 0
2, 40200, Note_on_c, 0, 49, 105
2, 40229, Note_on_c, 0, 49, 0
2, 40230, Note_on_c, 0, 45, 78
2, 40259, Note_on_c, 0, 45, 0
2, 40260, Note_on_c, 0, 49, 100
2, 40289, Note_on_c, 0, 49, 0
2, 40290, Note_on_c, 0, 52, 85
2, 40319, Note_on_c, 0, 52, 0
2, 40320, Note_on_c, 0, 55, 105
2, 40349, Note_on_c, 0, 55, 0
2, 40350, Note_on_c, 0, 58, 95
2, 40379, Note_on_c, 0, 58, 0
2, 40380, Note_on_c, 0, 55, 82
2, 40409, Note_on_c, 0, 55, 0
2, 40410, Note_on_c, 0, 52, 80
2, 40430, Note_on_c, 0, 52, 0
2, 40680, Note_on_c, 0, 50, 98
2, 40709, Note_on_c, 0, 50, 0
2, 40710, Note_on_c, 0, 45, 78
2, 40739, Note_on_c, 0, 45, 0
2, 40740, Note_on_c, 0, 50, 91
2, 40769, Note_on_c, 0, 50, 0
2, 40770, Note_on_c, 0, 53, 80
2, 40799, Note_on_c, 0, 53, 0
2, 40800, Note_on_c, 0, 57, 85
2, 40829, Note_on_c, 0, 57, 0
2, 40830, Note_on_c, 0, 62, 91
2, 40859, Note_on_c, 0, 62, 0
2, 40860, Note_on_c, 0, 57, 93
2, 40889, Note_on_c, 0, 57, 0
2, 40890, Note_on_c, 0, 53, 89
2, 40919, Note_on_c, 0, 53, 0
2, 41160, Note_on_c, 0, 52, 78
2, 41189, Note_on_c, 0, 52, 0
2, 41190, Note_on_c, 0, 49, 76
2, 41219, Note_on_c, 0, 49, 0
2, 41220, Note_on_c, 0, 52, 87
2, 41249, Note_on_c, 0, 52, 0
2, 41250, Note_on_c, 0, 55, 87
2, 41279, Note_on_c, 0, 55, 0
2, 41280, Note_on_c, 0, 58, 95
2, 41309, Note_on_c, 0, 58, 0
2, 41310, Note_on_c, 0, 61, 87
2, 41339, Note_on_c, 0, 61, 0
2, 41340, Note_on_c, 0, 58, 89
2, 41369, Note_on_c, 0, 58, 0
2, 41370, Note_on_c, 0, 55, 80
2, 41399, Note_on_c, 0, 55, 0
2, 41640, Note_on_c, 0, 53, 95
2, 41669, Note_on_c, 0, 53, 0
2, 41670, Note_on_c, 0, 50, 82
2, 41699, Note_on_c, 0, 50, 0
2, 41700, Note_on_c, 0, 53, 82
2, 41729, Note_on_c, 0, 53, 0
2, 41730, Note_on_c, 0, 57, 82
2, 41759, Note_on_c, 0, 57, 0
2, 41760, Note_on_c, 0, 62, 87
2, 41789, Note_on_c, 0, 62, 0
2, 41790, Note_on_c, 0, 65, 85
2, 41819, Note_on_c, 0, 65, 0
2, 41820, Note_on_c, 0, 62, 85
2, 41849, Note_on_c, 0, 62, 0
2, 41850, Note_on_c, 0, 57, 78
2, 41879, Note_on_c, 0, 57, 0
2, 42120, Note_on_c, 0, 52, 93
2, 42149, Note_on_c, 0, 52, 0
2, 42150, Note_on_c, 0, 49, 72
2, 42179, Note_on_c, 0, 49, 0
2, 42180, Note_on_c, 0, 52, 85
2, 42209, Note_on_c, 0, 52, 0
2, 42210, Note_on_c, 0, 55, 80
2, 42239, Note_on_c, 0, 55, 0
2, 42240, Note_on_c, 0, 58, 100
2, 42269, Note_on_c, 0, 58, 0
2, 42270, Note_on_c, 0, 61, 82
2, 42299, Note_on_c, 0, 61, 0
2, 42300, Note_on_c, 0, 58, 87
2, 42329, Note_on_c, 0, 58, 0
2, 42330, Note_on_c, 0, 55, 85
2, 42359, Note_on_c, 0, 55, 0
2, 42600, Note_on_c, 0, 53, 102
2, 42629, Note_on_c, 0, 53, 0
2, 42630, Note_on_c, 0, 50, 85
2, 42659, Note_on_c, 0, 50, 0
2, 42660, Note_on_c, 0, 53, 80
2, 42689, Note_on_c, 0, 53, 0
2, 42690, Note_on_c, 0, 57, 85
2, 42719, Note_on_c, 0, 57, 0
2, 42720, Note_on_c, 0, 62, 89
2, 42749, Note_on_c, 0, 62, 0
2, 42750, Note_on_c, 0, 65, 85
2, 42779, Note_on_c, 0, 65, 0
2, 42780, Note_on_c, 0, 62, 80
2, 42809, Note_on_c, 0, 62, 0
2, 42810, Note_on_c, 0, 57, 72
2, 42839, Note_on_c, 0, 57, 0
2, 43080, Note_on_c, 0, 55, 78
2, 43109, Note_on_c, 0, 55, 0
2, 43110, Note_on_c, 0, 52, 72
2, 43139, Note_on_c, 0, 52, 0
2, 43140, Note_on_c, 0, 55, 85
2, 43169, Note_on_c, 0, 55, 0
2, 43170, Note_on_c, 0, 58, 70
2, 43199, Note_on_c, 0, 58, 0
2, 43200, Note_on_c, 0, 61, 82
2, 43229, Note_on_c, 0, 61, 0
2, 43230, Note_on_c, 0, 64, 82
2, 43259, Note_on_c, 0, 64, 0
2, 43260, Note_on_c, 0, 61, 68
2, 43289, Note_on_c, 0, 61, 0
2, 43290, Note_on_c, 0, 58, 80
2, 43319, Note_on_c, 0, 58, 0
2, 59160, Note_on_c, 0, 54, 91
2, 59189, Note_on_c, 0, 54, 0
2, 59190, Note_on_c, 0, 50, 78
2, 59219, Note_on_c, 0, 50, 0
2, 59220, Note_on_c, 0, 54, 76
2, 59249, Note_on_c, 0, 54, 0
2, 59250, Note_on_c, 0, 55, 85
2, 59279, Note_on_c, 0, 55, 0
2, 59280, Note_on_c, 0, 57, 82
2, 59309, Note_on_c, 0, 57, 0
2, 59310, Note_on_c, 0, 62, 87
2, 59339, Note_on_c, 0, 62, 0
2, 59340, Note_on_c, 0, 57, 98
2, 59369, Note_on_c, 0, 57, 0
2, 59370, Note_on_c, 0, 54, 87
2, 59399, Note_on_c, 0, 54, 0
2, 59640, Note_on_c, 0, 55, 98
2, 59669, Note_on_c, 0, 55, 0
2, 59670, Note_on_c, 0, 50, 80
2, 59699, Note_on_c, 0, 50, 0
2, 59700, Note_on_c, 0, 55, 89
2, 59729, Note_on_c, 0, 55, 0
2, 59730, Note_on_c, 0, 57, 85
2, 59759, Note_on_c, 0, 57, 0
2, 59760, Note_on_c, 0, 58, 85
2, 59789, Note_on_c, 0, 58, 0
2, 59790, Note_on_c, 0, 62, 85
2, 59819, Note_on_c, 0, 62, 0
2, 59820, Note_on_c, 0, 60, 82
2, 59849, Note_on_c, 0, 60, 0
2, 59850, Note_on_c, 0, 58, 102
2, 59879, Note_on_c, 0, 58, 0
2, 60120, Note_on_c, 0, 57, 72
2, 60149, Note_on_c, 0, 57, 0
2, 60150, Note_on_c, 0, 54, 66
2, 60179, Note_on_c, 0, 54, 0
2, 60180, Note_on_c, 0, 57, 72
2, 60209, Note_on_c, 0, 57, 0
2, 60210, Note_on_c, 0, 58, 85
2, 60239, Note_on_c, 0, 58, 0
2, 60240, Note_on_c, 0, 60, 82
2, 60269, Note_on_c, 0, 60, 0
2, 60270, Note_on_c, 0, 63, 107
2, 60299, Note_on_c, 0, 63, 0
2, 60300, Note_on_c, 0, 60, 95
2, 60329, Note_on_c, 0, 60, 0
2, 60330, Note_on_c, 0, 58, 80
2, 60359, Note_on_c, 0, 58, 0
2, 60600, Note_on_c, 0, 58, 82
2, 60629, Note_on_c, 0, 58, 0
2, 60630, Note_on_c, 0, 55, 76
2, 60659, Note_on_c, 0, 55, 0
2, 60660, Note_on_c, 0, 58, 74
2, 60689, Note_on_c, 0, 58, 0
2, 60690, Note_on_c, 0, 62, 87
2, 60719, Note_on_c, 0, 62, 0
2, 60720, Note_on_c, 0, 67, 80
2, 60749, Note_on_c, 0, 67, 0
2, 60750, Note_on_c, 0, 70, 80
2, 60779, Note_on_c, 0, 70, 0
2, 60780, Note_on_c, 0, 67, 76
2, 60809, Note_on_c, 0, 67, 0
2, 60810, Note_on_c, 0, 62, 85
2, 60839, Note_on_c, 0, 62, 0
2, 61080, Note_on_c, 0, 60, 95
2, 61109, Note_on_c, 0, 60, 0
2, 61110, Note_on_c, 0, 57, 68
2, 61139, Note_on_c, 0, 57, 0
2, 61140, Note_on_c, 0, 60, 80
2, 61169, Note_on_c, 0, 60, 0
2, 61170, Note_on_c, 0, 63, 68
2, 61199, Note_on_c, 0, 63, 0
2, 61200, Note_on_c, 0, 66, 82
2, 61229, Note_on_c, 0, 66, 0
2, 61230, Note_on_c, 0, 69, 78
2, 61259, Note_on_c, 0, 69, 0
2, 61260, Note_on_c, 0, 66, 98
2, 61289, Note_on_c, 0, 66, 0
2, 61290, Note_on_c, 0, 63, 78
2, 61319, Note_on_c, 0, 63, 0
2, 61320, Note_on_c, 0, 62, 93
2, 61320, Note_on_c, 0, 54, 72
2, 61379, Note_on_c, 0, 54, 0
2, 61379, Note_on_c, 0, 62, 0
2, 61379, End_track
3, 0, Start_track
3, 0, Title_t, "Great"
3, 0, Control_c, 1, 7, 127
3, 476, Note_on_c, 1, 81, 102
3, 477, Note_on_c, 1, 69, 100
3, 493, Note_on_c, 1, 79, 98
3, 495, Note_on_c, 1, 67, 87
3, 497, Note_on_c, 1, 81, 0
3, 498, Note_on_c, 1, 69, 0
3, 506, Note_on_c, 1, 81, 100
3, 506, Note_on_c, 1, 67, 0
3, 507, Note_on_c, 1, 69, 102
3, 509, Note_on_c, 1, 79, 0
3, 611, Note_on_c, 1, 69, 0
3, 611, Note_on_c, 1, 81, 0
3, 658, Note_on_c, 1, 79, 107
3, 658, Note_on_c, 1, 67, 87
3, 673, Note_on_c, 1, 77, 98
3, 674, Note_on_c, 1, 65, 87
3, 678, Note_on_c, 1, 67, 0
3, 679, Note_on_c, 1, 79, 0
3, 686, Note_on_c, 1, 64, 70
3, 687, Note_on_c, 1, 76, 78
3, 688, Note_on_c, 1, 65, 0
3, 694, Note_on_c, 1, 77, 0
3, 695, Note_on_c, 1, 62, 85
3, 699, Note_on_c, 1, 74, 85
3, 701, Note_on_c, 1, 64, 0
3, 701, Note_on_c, 1, 76, 0
3, 712, Note_on_c, 1, 61, 80
3, 714, Note_on_c, 1, 73, 93
3, 714, Note_on_c, 1, 62, 0
3, 716, Note_on_c, 1, 74, 0
3, 781, Note_on_c, 1, 61, 0
3, 784, Note_on_c, 1, 73, 0
3, 785, Note_on_c, 1, 62, 105
3, 786, Note_on_c, 1, 74, 93
3, 885, Note_on_c, 1, 74, 0
3, 887, Note_on_c, 1, 62, 0
3, 982, Note_on_c, 1, 69, 116
3, 983, Note_on_c, 1, 57, 107
3, 997, Note_on_c, 1, 67, 89
3, 998, Note_on_c, 1, 55, 85
3, 1000, Note_on_c, 1, 69, 0
3, 1001, Note_on_c, 1, 57, 0
3, 1016, Note_on_c, 1, 69, 100
3, 1016, Note_on_c, 1, 67, 0
3, 1017, Note_on_c, 1, 57, 100
3, 1017, Note_on_c, 1, 55, 0
3, 1127, Note_on_c, 1, 57, 0
3, 1129, Note_on_c, 1, 69, 0
3, 1172, Note_on_c, 1, 52, 110
3, 1172, Note_on_c, 1, 64, 110
3, 1208, Note_on_c, 1, 65, 100
3, 1208, Note_on_c, 1, 53, 107
3, 1209, Note_on_c, 1, 52, 0
3, 1212, Note_on_c, 1, 64, 0
3, 1236, Note_on_c, 1, 61, 98
3, 1238, Note_on_c, 1, 49, 72
3, 1238, Note_on_c, 1, 65, 0
3, 1239, Note_on_c, 1, 53, 0
3, 1271, Note_on_c, 1, 50, 105
3, 1273, Note_on_c, 1, 62, 89
3, 1274, Note_on_c, 1, 49, 0
3, 1276, Note_on_c, 1, 61, 0
3, 1457, Note_on_c, 1, 50, 0
3, 1457, Note_on_c, 1, 62, 0
3, 1545, Note_on_c, 1, 57, 110
3, 1545, Note_on_c, 1, 45, 105
3, 1560, Note_on_c, 1, 43, 95
3, 1560, Note_on_c, 1, 55, 107
3, 1561, Note_on_c, 1, 57, 0
3, 1562, Note_on_c, 1, 45, 0
3, 1573, Note_on_c, 1, 45, 100
3, 1574, Note_on_c, 1, 43, 0
3, 1576, Note_on_c, 1, 57, 98
3, 1578, Note_on_c, 1, 55, 0
3, 1699, Note_on_c, 1, 45, 0
3, 1705, Note_on_c, 1, 57, 0
3, 1733, Note_on_c, 1, 55, 87
3, 1735, Note_on_c, 1, 43, 105
3, 1748, Note_on_c, 1, 53, 82
3, 1749, Note_on_c, 1, 41, 93
3, 1755, Note_on_c, 1, 43, 0
3, 1755, Note_on_c, 1, 55, 0
3, 1761, Note_on_c, 1, 40, 68
3, 1762, Note_on_c, 1, 52, 72
3, 1764, Note_on_c, 1, 41, 0
3, 1770, Note_on_c, 1, 53, 0
3, 1772, Note_on_c, 1, 38, 80
3, 1774, Note_on_c, 1, 40, 0
3, 1776, Note_on_c, 1, 50, 74
3, 1777, Note_on_c, 1, 52, 0
3, 1790, Note_on_c, 1, 38, 0
3, 1791, Note_on_c, 1, 37, 93
3, 1793, Note_on_c, 1, 49, 89
3, 1795, Note_on_c, 1, 50, 0
3, 1841, Note_on_c, 1, 37, 0
3, 1844, Note_on_c, 1, 49, 0
3, 1871, Note_on_c, 1, 38, 93
3, 1871, Note_on_c, 1, 50, 98
3, 2006, Note_on_c, 1, 50, 0
3, 2024, Note_on_c, 1, 38, 0
3, 2140, Note_on_c, 1, 49, 87
3, 2196, Note_on_c, 1, 52, 82
3, 2247, Note_on_c, 1, 55, 82
3, 2300, Note_on_c, 1, 58, 87
3, 2357, Note_on_c, 1, 61, 87
3, 2435, Note_on_c, 1, 64, 85
3, 2644, Note_on_c, 1, 62, 85
3, 2645, Note_on_c, 1, 50, 85
3, 2645, Note_on_c, 1, 57, 58
3, 2647, Note_on_c, 1, 58, 0
3, 2649, Note_on_c, 1, 52, 0
3, 2650, Note_on_c, 1, 64, 0
3, 2653, Note_on_c, 1, 49, 0
3, 2656, Note_on_c, 1, 61, 0
3, 2754, Note_on_c, 1, 52, 85
3, 2760, Note_on_c, 1, 55, 0
3, 2839, Note_on_c, 1, 54, 85
3, 2844, Note_on_c, 1, 52, 0
3, 3196, Note_on_c, 1, 57, 0
3, 3198, Note_on_c, 1, 54, 0
3, 3198, Note_on_c, 1, 62, 0
3, 3199, Note_on_c, 1, 50, 0
3, 3285, Note_on_c, 1, 61, 82
3, 3286, Note_on_c, 1, 49, 102
3, 3332, Note_on_c, 1, 61, 0
3, 3337, Note_on_c, 1, 50, 89
3, 3337, Note_on_c, 1, 49, 0
3, 3338, Note_on_c, 1, 62, 85
3, 3356, Note_on_c, 1, 64, 85
3, 3358, Note_on_c, 1, 52, 74
3, 3358, Note_on_c, 1, 50, 0
3, 3360, Note_on_c, 1, 62, 0
3, 3373, Note_on_c, 1, 61, 100
3, 3374, Note_on_c, 1, 49, 82
3, 3377, Note_on_c, 1, 64, 0
3, 3381, Note_on_c, 1, 52, 0
3, 3389, Note_on_c, 1, 62, 89
3, 3392, Note_on_c, 1, 50, 85
3, 3392, Note_on_c, 1, 61, 0
3, 3393, Note_on_c, 1, 49, 0
3, 3403, Note_on_c, 1, 64, 82
3, 3406, Note_on_c, 1, 52, 87
3, 3408, Note_on_c, 1, 62, 0
3, 3408, Note_on_c, 1, 50, 0
3, 3418, Note_on_c, 1, 61, 85
3, 3421, Note_on_c, 1, 49, 78
3, 3423, Note_on_c, 1, 64, 0
3, 3428, Note_on_c, 1, 52, 0
3, 3434, Note_on_c, 1, 62, 93
3, 3435, Note_on_c, 1, 50, 95
3, 3436, Note_on_c, 1, 61, 0
3, 3437, Note_on_c, 1, 49, 0
3, 3450, Note_on_c, 1, 64, 82
3, 3451, Note_on_c, 1, 52, 100
3, 3454, Note_on_c, 1, 62, 0
3, 3454, Note_on_c, 1, 50, 0
3, 3467, Note_on_c, 1, 49, 85
3, 3468, Note_on_c, 1, 61, 105
3, 3469, Note_on_c, 1, 52, 0
3, 3472, Note_on_c, 1, 64, 0
3, 3478, Note_on_c, 1, 50, 87
3, 3481, Note_on_c, 1, 49, 0
3, 3482, Note_on_c, 1, 62, 89
3, 3487, Note_on_c, 1, 61, 0
3, 3518, Note_on_c, 1, 52, 85
3, 3519, Note_on_c, 1, 64, 98
3, 3519, Note_on_c, 1, 50, 0
3, 3523, Note_on_c, 1, 62, 0
3, 3551, Note_on_c, 1, 53, 80
3, 3551, Note_on_c, 1, 65, 87
3, 3552, Note_on_c, 1, 52, 0
3, 3553, Note_on_c, 1, 64, 0
3, 3575, Note_on_c, 1, 55, 93
3, 3577, Note_on_c, 1, 67, 91
3, 3579, Note_on_c, 1, 53, 0
3, 3580, Note_on_c, 1, 65, 0
3, 3592, Note_on_c, 1, 64, 89
3, 3593, Note_on_c, 1, 52, 82
3, 3596, Note_on_c, 1, 55, 0
3, 3597, Note_on_c, 1, 67, 0
3, 3611, Note_on_c, 1, 53, 95
3, 3612, Note_on_c, 1, 65, 93
3, 3615, Note_on_c, 1, 52, 0
3, 3616, Note_on_c, 1, 64, 0
3, 3627, Note_on_c, 1, 67, 100
3, 3627, Note_on_c, 1, 55, 98
3, 3630, Note_on_c, 1, 65, 0
3, 3631, Note_on_c, 1, 53, 0
3, 3641, Note_on_c, 1, 64, 82
3, 3642, Note_on_c, 1, 52, 87
3, 3645, Note_on_c, 1, 67, 0
3, 3646, Note_on_c, 1, 55, 0
3, 3658, Note_on_c, 1, 53, 98
3, 3658, Note_on_c, 1, 65, 91
3, 3662, Note_on_c, 1, 52, 0
3, 3664, Note_on_c, 1, 64, 0
3, 3673, Note_on_c, 1, 55, 105
3, 3673, Note_on_c, 1, 67, 93
3, 3675, Note_on_c, 1, 53, 0
3, 3678, Note_on_c, 1, 65, 0
3, 3688, Note_on_c, 1, 64, 105
3, 3689, Note_on_c, 1, 52, 87
3, 3692, Note_on_c, 1, 55, 0
3, 3692, Note_on_c, 1, 67, 0
3, 3704, Note_on_c, 1, 53, 105
3, 3704, Note_on_c, 1, 65, 102
3, 3706, Note_on_c, 1, 52, 0
3, 3709, Note_on_c, 1, 64, 0
3, 3733, Note_on_c, 1, 67, 80
3, 3733, Note_on_c, 1, 55, 89
3, 3735, Note_on_c, 1, 53, 0
3, 3739, Note_on_c, 1, 65, 0
3, 3764, Note_on_c, 1, 69, 95
3, 3765, Note_on_c, 1, 57, 78
3, 3766, Note_on_c, 1, 55, 0
3, 3767, Note_on_c, 1, 67, 0
3, 3785, Note_on_c, 1, 70, 93
3, 3787, Note_on_c, 1, 69, 0
3, 3789, Note_on_c, 1, 58, 78
3, 3795, Note_on_c, 1, 57, 0
3, 3804, Note_on_c, 1, 55, 76
3, 3806, Note_on_c, 1, 67, 87
3, 3807, Note_on_c, 1, 70, 0
3, 3809, Note_on_c, 1, 58, 0
3, 3822, Note_on_c, 1, 57, 85
3, 3824, Note_on_c, 1, 69, 91
3, 3826, Note_on_c, 1, 55, 0
3, 3832, Note_on_c, 1, 67, 0
3, 3836, Note_on_c, 1, 58, 89
3, 3837, Note_on_c, 1, 70, 105
3, 3840, Note_on_c, 1, 57, 0
3, 3841, Note_on_c, 1, 69, 0
3, 3851, Note_on_c, 1, 55, 80
3, 3852, Note_on_c, 1, 67, 102
3, 3856, Note_on_c, 1, 58, 0
3, 3856, Note_on_c, 1, 70, 0
3, 3867, Note_on_c, 1, 57, 85
3, 3868, Note_on_c, 1, 69, 105
3, 3870, Note_on_c, 1, 55, 0
3, 3873, Note_on_c, 1, 67, 0
3, 3881, Note_on_c, 1, 70, 105
3, 3882, Note_on_c, 1, 58, 105
3, 3884, Note_on_c, 1, 57, 0
3, 3886, Note_on_c, 1, 69, 0
3, 3898, Note_on_c, 1, 55, 85
3, 3898, Note_on_c, 1, 67, 102
3, 3903, Note_on_c, 1, 58, 0
3, 3904, Note_on_c, 1, 70, 0
3, 3918, Note_on_c, 1, 69, 105
3, 3918, Note_on_c, 1, 57, 102
3, 3921, Note_on_c, 1, 55, 0
3, 3921, Note_on_c, 1, 67, 0
3, 4041, Note_on_c, 1, 69, 0
3, 4041, Note_on_c, 1, 57, 0
3, 4168, Note_on_c, 1, 73, 87
3, 4168, Note_on_c, 1, 61, 72
3, 4217, Note_on_c, 1, 73, 0
3, 4218, Note_on_c, 1, 61, 0
3, 4222, Note_on_c, 1, 62, 78
3, 4224, Note_on_c, 1, 74, 98
3, 4247, Note_on_c, 1, 64, 93
3, 4247, Note_on_c, 1, 76, 87
3, 4250, Note_on_c, 1, 62, 0
3, 4252, Note_on_c, 1, 74, 0
3, 4264, Note_on_c, 1, 61, 80
3, 4265, Note_on_c, 1, 73, 107
3, 4268, Note_on_c, 1, 64, 0
3, 4270, Note_on_c, 1, 76, 0
3, 4280, Note_on_c, 1, 73, 0
3, 4281, Note_on_c, 1, 74, 102
3, 4281, Note_on_c, 1, 62, 85
3, 4284, Note_on_c, 1, 61, 0
3, 4296, Note_on_c, 1, 64, 87
3, 4296, Note_on_c, 1, 76, 89
3, 4299, Note_on_c, 1, 62, 0
3, 4301, Note_on_c, 1, 74, 0
3, 4310, Note_on_c, 1, 61, 85
3, 4312, Note_on_c, 1, 73, 107
3, 4313, Note_on_c, 1, 64, 0
3, 4316, Note_on_c, 1, 76, 0
3, 4326, Note_on_c, 1, 74, 98
3, 4326, Note_on_c, 1, 62, 87
3, 4329, Note_on_c, 1, 61, 0
3, 4329, Note_on_c, 1, 73, 0
3, 4338, Note_on_c, 1, 64, 91
3, 4340, Note_on_c, 1, 76, 95
3, 4342, Note_on_c, 1, 62, 0
3, 4344, Note_on_c, 1, 74, 0
3, 4354, Note_on_c, 1, 61, 100
3, 4355, Note_on_c, 1, 73, 113
3, 4357, Note_on_c, 1, 64, 0
3, 4360, Note_on_c, 1, 76, 0
3, 4369, Note_on_c, 1, 74, 102
3, 4370, Note_on_c, 1, 62, 102
3, 4373, Note_on_c, 1, 61, 0
3, 4374, Note_on_c, 1, 73, 0
3, 4397, Note_on_c, 1, 76, 35
3, 4405, Note_on_c, 1, 64, 95
3, 4406, Note_on_c, 1, 76, 0
3, 4406, Note_on_c, 1, 62, 0
3, 4407, Note_on_c, 1, 76, 80
3, 4409, Note_on_c, 1, 74, 0
3, 4435, Note_on_c, 1, 77, 102
3, 4437, Note_on_c, 1, 65, 93
3, 4437, Note_on_c, 1, 64, 0
3, 4455, Note_on_c, 1, 79, 98
3, 4456, Note_on_c, 1, 67, 102
3, 4457, Note_on_c, 1, 76, 0
3, 4459, Note_on_c, 1, 77, 0
3, 4471, Note_on_c, 1, 76, 100
3, 4471, Note_on_c, 1, 65, 0
3, 4473, Note_on_c, 1, 64, 82
3, 4474, Note_on_c, 1, 79, 0
3, 4475, Note_on_c, 1, 67, 0
3, 4488, Note_on_c, 1, 77, 107
3, 4489, Note_on_c, 1, 65, 98
3, 4492, Note_on_c, 1, 64, 0
3, 4493, Note_on_c, 1, 76, 0
3, 4503, Note_on_c, 1, 79, 100
3, 4503, Note_on_c, 1, 67, 100
3, 4505, Note_on_c, 1, 65, 0
3, 4507, Note_on_c, 1, 77, 0
3, 4518, Note_on_c, 1, 64, 93
3, 4518, Note_on_c, 1, 76, 105
3, 4520, Note_on_c, 1, 67, 0
3, 4522, Note_on_c, 1, 79, 0
3, 4533, Note_on_c, 1, 65, 95
3, 4534, Note_on_c, 1, 77, 107
3, 4537, Note_on_c, 1, 64, 0
3, 4548, Note_on_c, 1, 67, 93
3, 4548, Note_on_c, 1, 79, 100
3, 4549, Note_on_c, 1, 76, 0
3, 4551, Note_on_c, 1, 65, 0
3, 4553, Note_on_c, 1, 77, 0
3, 4562, Note_on_c, 1, 76, 98
3, 4564, Note_on_c, 1, 64, 87
3, 4566, Note_on_c, 1, 79, 0
3, 4567, Note_on_c, 1, 67, 0
3, 4578, Note_on_c, 1, 77, 105
3, 4579, Note_on_c, 1, 65, 98
3, 4583, Note_on_c, 1, 76, 0
3, 4583, Note_on_c, 1, 64, 0
3, 4606, Note_on_c, 1, 79, 85
3, 4607, Note_on_c, 1, 67, 87
3, 4608, Note_on_c, 1, 65, 0
3, 4611, Note_on_c, 1, 77, 0
3, 4633, Note_on_c, 1, 81, 91
3, 4635, Note_on_c, 1, 69, 87
3, 4636, Note_on_c, 1, 79, 0
3, 4636, Note_on_c, 1, 67, 0
3, 4653, Note_on_c, 1, 82, 85
3, 4654, Note_on_c, 1, 81, 0
3, 4655, Note_on_c, 1, 70, 76
3, 4662, Note_on_c, 1, 69, 0
3, 4671, Note_on_c, 1, 67, 68
3, 4672, Note_on_c, 1, 79, 95
3, 4673, Note_on_c, 1, 70, 0
3, 4673, Note_on_c, 1, 82, 0
3, 4688, Note_on_c, 1, 69, 87
3, 4690, Note_on_c, 1, 81, 91
3, 4692, Note_on_c, 1, 67, 0
3, 4695, Note_on_c, 1, 79, 0
3, 4703, Note_on_c, 1, 70, 102
3, 4704, Note_on_c, 1, 82, 95
3, 4705, Note_on_c, 1, 69, 0
3, 4709, Note_on_c, 1, 81, 0
3, 4719, Note_on_c, 1, 67, 82
3, 4719, Note_on_c, 1, 79, 105
3, 4722, Note_on_c, 1, 70, 0
3, 4722, Note_on_c, 1, 82, 0
3, 4735, Note_on_c, 1, 69, 91
3, 4735, Note_on_c, 1, 81, 98
3, 4738, Note_on_c, 1, 67, 0
3, 4742, Note_on_c, 1, 79, 0
3, 4749, Note_on_c, 1, 70, 102
3, 4750, Note_on_c, 1, 82, 100
3, 4752, Note_on_c, 1, 69, 0
3, 4756, Note_on_c, 1, 81, 0
3, 4766, Note_on_c, 1, 79, 102
3, 4766, Note_on_c, 1, 67, 80
3, 4770, Note_on_c, 1, 70, 0
3, 4771, Note_on_c, 1, 82, 0
3, 4786, Note_on_c, 1, 81, 102
3, 4786, Note_on_c, 1, 69, 100
3, 4788, Note_on_c, 1, 67, 0
3, 4789, Note_on_c, 1, 79, 0
3, 4934, Note_on_c, 1, 69, 0
3, 4936, Note_on_c, 1, 81, 0
3, 5016, Note_on_c, 1, 69, 82
3, 5016, Note_on_c, 1, 81, 87
3, 5055, Note_on_c, 1, 79, 85
3, 5056, Note_on_c, 1, 67, 87
3, 5058, Note_on_c, 1, 69, 0
3, 5059, Note_on_c, 1, 81, 0
3, 5087, Note_on_c, 1, 82, 82
3, 5089, Note_on_c, 1, 70, 80
3, 5089, Note_on_c, 1, 67, 0
3, 5091, Note_on_c, 1, 79, 0
3, 5112, Note_on_c, 1, 76, 80
3, 5113, Note_on_c, 1, 64, 82
3, 5115, Note_on_c, 1, 70, 0
3, 5120, Note_on_c, 1, 82, 0
3, 5136, Note_on_c, 1, 79, 85
3, 5136, Note_on_c, 1, 67, 82
3, 5140, Note_on_c, 1, 64, 0
3, 5141, Note_on_c, 1, 76, 0
3, 5160, Note_on_c, 1, 82, 82
3, 5161, Note_on_c, 1, 70, 68
3, 5164, Note_on_c, 1, 67, 0
3, 5166, Note_on_c, 1, 79, 0
3, 5180, Note_on_c, 1, 64, 78
3, 5181, Note_on_c, 1, 76, 80
3, 5182, Note_on_c, 1, 70, 0
3, 5187, Note_on_c, 1, 82, 0
3, 5199, Note_on_c, 1, 65, 70
3, 5200, Note_on_c, 1, 77, 95
3, 5201, Note_on_c, 1, 64, 0
3, 5203, Note_on_c, 1, 76, 0
3, 5220, Note_on_c, 1, 81, 102
3, 5220, Note_on_c, 1, 69, 62
3, 5223, Note_on_c, 1, 65, 0
3, 5223, Note_on_c, 1, 77, 0
3, 5238, Note_on_c, 1, 74, 85
3, 5238, Note_on_c, 1, 62, 82
3, 5243, Note_on_c, 1, 69, 0
3, 5245, Note_on_c, 1, 81, 0
3, 5255, Note_on_c, 1, 77, 102
3, 5256, Note_on_c, 1, 65, 82
3, 5258, Note_on_c, 1, 74, 0
3, 5259, Note_on_c, 1, 62, 0
3, 5274, Note_on_c, 1, 69, 80
3, 5275, Note_on_c, 1, 81, 89
3, 5277, Note_on_c, 1, 65, 0
3, 5280, Note_on_c, 1, 77, 0
3, 5284, Note_on_c, 1, 62, 63
3, 5290, Note_on_c, 1, 74, 85
3, 5294, Note_on_c, 1, 69, 0
3, 5295, Note_on_c, 1, 81, 0
3, 5302, Note_on_c, 1, 64, 68
3, 5304, Note_on_c, 1, 76, 87
3, 5306, Note_on_c, 1, 74, 0
3, 5307, Note_on_c, 1, 62, 0
3, 5320, Note_on_c, 1, 67, 85
3, 5320, Note_on_c, 1, 79, 98
3, 5321, Note_on_c, 1, 76, 0
3, 5322, Note_on_c, 1, 64, 0
3, 5336, Note_on_c, 1, 72, 82
3, 5336, Note_on_c, 1, 60, 87
3, 5341, Note_on_c, 1, 67, 0
3, 5343, Note_on_c, 1, 79, 0
3, 5350, Note_on_c, 1, 76, 100
3, 5352, Note_on_c, 1, 64, 89
3, 5355, Note_on_c, 1, 72, 0
3, 5355, Note_on_c, 1, 60, 0
3, 5369, Note_on_c, 1, 67, 82
3, 5369, Note_on_c, 1, 79, 98
3, 5373, Note_on_c, 1, 76, 0
3, 5375, Note_on_c, 1, 64, 0
3, 5382, Note_on_c, 1, 60, 87
3, 5385, Note_on_c, 1, 72, 85
3, 5389, Note_on_c, 1, 67, 0
3, 5390, Note_on_c, 1, 79, 0
3, 5398, Note_on_c, 1, 62, 91
3, 5399, Note_on_c, 1, 74, 105
3, 5401, Note_on_c, 1, 72, 0
3, 5402, Note_on_c, 1, 60, 0
3, 5414, Note_on_c, 1, 74, 0
3, 5415, Note_on_c, 1, 77, 110
3, 5415, Note_on_c, 1, 65, 85
3, 5415, Note_on_c, 1, 62, 0
3, 5430, Note_on_c, 1, 70, 95
3, 5430, Note_on_c, 1, 58, 85
3, 5431, Note_on_c, 1, 77, 0
3, 5439, Note_on_c, 1, 65, 0
3, 5445, Note_on_c, 1, 74, 105
3, 5445, Note_on_c, 1, 62, 85
3, 5445, Note_on_c, 1, 70, 0
3, 5448, Note_on_c, 1, 58, 0
3, 5460, Note_on_c, 1, 77, 107
3, 5462, Note_on_c, 1, 65, 89
3, 5464, Note_on_c, 1, 74, 0
3, 5468, Note_on_c, 1, 62, 0
3, 5472, Note_on_c, 1, 58, 62
3, 5477, Note_on_c, 1, 70, 98
3, 5481, Note_on_c, 1, 77, 0
3, 5482, Note_on_c, 1, 65, 0
3, 5486, Note_on_c, 1, 60, 70
3, 5487, Note_on_c, 1, 58, 0
3, 5489, Note_on_c, 1, 72, 98
3, 5492, Note_on_c, 1, 70, 0
3, 5505, Note_on_c, 1, 64, 76
3, 5506, Note_on_c, 1, 76, 102
3, 5508, Note_on_c, 1, 60, 0
3, 5509, Note_on_c, 1, 72, 0
3, 5521, Note_on_c, 1, 57, 82
3, 5521, Note_on_c, 1, 69, 76
3, 5524, Note_on_c, 1, 64, 0
3, 5529, Note_on_c, 1, 76, 0
3, 5534, Note_on_c, 1, 72, 102
3, 5536, Note_on_c, 1, 60, 85
3, 5538, Note_on_c, 1, 69, 0
3, 5539, Note_on_c, 1, 57, 0
3, 5552, Note_on_c, 1, 76, 100
3, 5552, Note_on_c, 1, 64, 68
3, 5555, Note_on_c, 1, 72, 0
3, 5556, Note_on_c, 1, 60, 0
3, 5561, Note_on_c, 1, 57, 76
3, 5565, Note_on_c, 1, 69, 68
3, 5566, Note_on_c, 1, 71, 68
3, 5568, Note_on_c, 1, 64, 0
3, 5569, Note_on_c, 1, 76, 0
3, 5573, Note_on_c, 1, 71, 0
3, 5578, Note_on_c, 1, 58, 91
3, 5579, Note_on_c, 1, 70, 110
3, 5580, Note_on_c, 1, 57, 0
3, 5582, Note_on_c, 1, 69, 0
3, 5594, Note_on_c, 1, 62, 87
3, 5595, Note_on_c, 1, 74, 98
3, 5595, Note_on_c, 1, 58, 0
3, 5598, Note_on_c, 1, 70, 0
3, 5609, Note_on_c, 1, 55, 85
3, 5610, Note_on_c, 1, 67, 80
3, 5611, Note_on_c, 1, 74, 0
3, 5614, Note_on_c, 1, 62, 0
3, 5626, Note_on_c, 1, 70, 113
3, 5626, Note_on_c, 1, 58, 105
3, 5629, Note_on_c, 1, 55, 0
3, 5629, Note_on_c, 1, 67, 0
3, 5642, Note_on_c, 1, 74, 102
3, 5643, Note_on_c, 1, 62, 98
3, 5645, Note_on_c, 1, 58, 0
3, 5646, Note_on_c, 1, 70, 0
3, 5657, Note_on_c, 1, 55, 85
3, 5657, Note_on_c, 1, 67, 80
3, 5661, Note_on_c, 1, 62, 0
3, 5663, Note_on_c, 1, 74, 0
3, 5670, Note_on_c, 1, 69, 107
3, 5672, Note_on_c, 1, 57, 78
3, 5673, Note_on_c, 1, 67, 0
3, 5676, Note_on_c, 1, 55, 0
3, 5687, Note_on_c, 1, 72, 105
3, 5688, Note_on_c, 1, 60, 87
3, 5688, Note_on_c, 1, 57, 0
3, 5690, Note_on_c, 1, 69, 0
3, 5702, Note_on_c, 1, 65, 87
3, 5703, Note_on_c, 1, 53, 80
3, 5704, Note_on_c, 1, 72, 0
3, 5710, Note_on_c, 1, 60, 0
3, 5717, Note_on_c, 1, 57, 87
3, 5718, Note_on_c, 1, 69, 102
3, 5720, Note_on_c, 1, 53, 0
3, 5721, Note_on_c, 1, 65, 0
3, 5735, Note_on_c, 1, 72, 78
3, 5735, Note_on_c, 1, 60, 85
3, 5737, Note_on_c, 1, 57, 0
3, 5739, Note_on_c, 1, 69, 0
3, 5747, Note_on_c, 1, 53, 46
3, 5750, Note_on_c, 1, 65, 87
3, 5755, Note_on_c, 1, 72, 0
3, 5757, Note_on_c, 1, 60, 0
3, 5761, Note_on_c, 1, 55, 85
3, 5764, Note_on_c, 1, 67, 102
3, 5765, Note_on_c, 1, 53, 0
3, 5769, Note_on_c, 1, 65, 0
3, 5780, Note_on_c, 1, 58, 105
3, 5781, Note_on_c, 1, 70, 95
3, 5782, Note_on_c, 1, 55, 0
3, 5785, Note_on_c, 1, 67, 0
3, 5796, Note_on_c, 1, 64, 87
3, 5797, Note_on_c, 1, 52, 89
3, 5800, Note_on_c, 1, 58, 0
3, 5803, Note_on_c, 1, 70, 0
3, 5810, Note_on_c, 1, 67, 80
3, 5811, Note_on_c, 1, 55, 80
3, 5815, Note_on_c, 1, 52, 0
3, 5817, Note_on_c, 1, 64, 0
3, 5827, Note_on_c, 1, 58, 102
3, 5828, Note_on_c, 1, 70, 87
3, 5830, Note_on_c, 1, 55, 0
3, 5832, Note_on_c, 1, 67, 0
3, 5839, Note_on_c, 1, 52, 66
3, 5843, Note_on_c, 1, 64, 87
3, 5846, Note_on_c, 1, 58, 0
3, 5846, Note_on_c, 1, 70, 0
3, 5851, Note_on_c, 1, 53, 82
3, 5854, Note_on_c, 1, 52, 0
3, 5856, Note_on_c, 1, 65, 89
3, 5859, Note_on_c, 1, 64, 0
3, 5872, Note_on_c, 1, 69, 105
3, 5872, Note_on_c, 1, 57, 74
3, 5872, Note_on_c, 1, 53, 0
3, 5874, Note_on_c, 1, 65, 0
3, 5885, Note_on_c, 1, 62, 87
3, 5886, Note_on_c, 1, 50, 87
3, 5891, Note_on_c, 1, 57, 0
3, 5893, Note_on_c, 1, 69, 0
3, 5898, Note_on_c, 1, 65, 100
3, 5902, Note_on_c, 1, 53, 93
3, 5903, Note_on_c, 1, 62, 0
3, 5906, Note_on_c, 1, 50, 0
3, 5916, Note_on_c, 1, 69, 102
3, 5921, Note_on_c, 1, 65, 0
3, 5922, Note_on_c, 1, 57, 87
3, 5927, Note_on_c, 1, 53, 0
3, 5932, Note_on_c, 1, 50, 85
3, 5932, Note_on_c, 1, 62, 85
3, 5938, Note_on_c, 1, 69, 0
3, 5940, Note_on_c, 1, 57, 0
3, 5947, Note_on_c, 1, 64, 105
3, 5947, Note_on_c, 1, 52, 78
3, 5949, Note_on_c, 1, 62, 0
3, 5953, Note_on_c, 1, 50, 0
3, 5964, Note_on_c, 1, 67, 105
3, 5965, Note_on_c, 1, 55, 89
3, 5966, Note_on_c, 1, 64, 0
3, 5966, Note_on_c, 1, 52, 0
3, 5981, Note_on_c, 1, 49, 80
3, 5981, Note_on_c, 1, 61, 110
3, 5983, Note_on_c, 1, 67, 0
3, 5988, Note_on_c, 1, 55, 0
3, 5999, Note_on_c, 1, 64, 100
3, 6001, Note_on_c, 1, 52, 87
3, 6002, Note_on_c, 1, 61, 0
3, 6004, Note_on_c, 1, 49, 0
3, 6021, Note_on_c, 1, 67, 107
3, 6022, Note_on_c, 1, 55, 93
3, 6023, Note_on_c, 1, 52, 0
3, 6024, Note_on_c, 1, 64, 0
3, 6044, Note_on_c, 1, 61, 107
3, 6044, Note_on_c, 1, 67, 0
3, 6045, Note_on_c, 1, 49, 93
3, 6046, Note_on_c, 1, 55, 0
3, 6098, Note_on_c, 1, 49, 0
3, 6098, Note_on_c, 1, 61, 0
3, 6200, Note_on_c, 1, 49, 100
3, 6228, Note_on_c, 1, 52, 89
3, 6244, Note_on_c, 1, 55, 89
3, 6260, Note_on_c, 1, 58, 100
3, 6276, Note_on_c, 1, 61, 91
3, 6290, Note_on_c, 1, 64, 85
3, 6302, Note_on_c, 1, 67, 82
3, 6323, Note_on_c, 1, 70, 98
3, 6647, Note_on_c, 1, 64, 0
3, 6652, Note_on_c, 1, 67, 0
3, 6652, Note_on_c, 1, 61, 0
3, 6663, Note_on_c, 1, 58, 0
3, 6666, Note_on_c, 1, 55, 0
3, 6666, Note_on_c, 1, 52, 0
3, 6668, Note_on_c, 1, 49, 0
3, 6703, Note_on_c, 1, 69, 60
3, 6722, Note_on_c, 1, 70, 0
3, 6741, Note_on_c, 1, 67, 89
3, 6750, Note_on_c, 1, 69, 0
3, 6771, Note_on_c, 1, 65, 89
3, 6777, Note_on_c, 1, 67, 0
3, 6793, Note_on_c, 1, 64, 87
3, 6798, Note_on_c, 1, 65, 0
3, 6808, Note_on_c, 1, 62, 89
3, 6811, Note_on_c, 1, 64, 0
3, 6826, Note_on_c, 1, 61, 78
3, 6831, Note_on_c, 1, 62, 0
3, 6843, Note_on_c, 1, 59, 82
3, 6847, Note_on_c, 1, 61, 0
3, 6863, Note_on_c, 1, 61, 95
3, 6866, Note_on_c, 1, 59, 0
3, 6883, Note_on_c, 1, 57, 80
3, 6885, Note_on_c, 1, 61, 0
3, 6901, Note_on_c, 1, 61, 110
3, 6906, Note_on_c, 1, 57, 0
3, 6918, Note_on_c, 1, 64, 70
3, 6927, Note_on_c, 1, 61, 0
3, 6938, Note_on_c, 1, 67, 107
3, 6940, Note_on_c, 1, 64, 0
3, 6966, Note_on_c, 1, 65, 116
3, 6968, Note_on_c, 1, 67, 0
3, 6976, Note_on_c, 1, 67, 87
3, 6977, Note_on_c, 1, 65, 0
3, 6985, Note_on_c, 1, 65, 74
3, 6987, Note_on_c, 1, 67, 0
3, 6992, Note_on_c, 1, 67, 74
3, 6993, Note_on_c, 1, 65, 0
3, 7000, Note_on_c, 1, 65, 70
3, 7002, Note_on_c, 1, 67, 0
3, 7008, Note_on_c, 1, 67, 74
3, 7010, Note_on_c, 1, 65, 0
3, 7014, Note_on_c, 1, 65, 64
3, 7017, Note_on_c, 1, 67, 0
3, 7024, Note_on_c, 1, 67, 85
3, 7025, Note_on_c, 1, 65, 0
3, 7030, Note_on_c, 1, 65, 66
3, 7033, Note_on_c, 1, 67, 0
3, 7038, Note_on_c, 1, 67, 82
3, 7041, Note_on_c, 1, 65, 0
3, 7045, Note_on_c, 1, 65, 70
3, 7050, Note_on_c, 1, 67, 0
3, 7090, Note_on_c, 1, 64, 100
3, 7090, Note_on_c, 1, 65, 0
3, 7137, Note_on_c, 1, 64, 0
3, 7168, Note_on_c, 1, 65, 102
3, 7169, Note_on_c, 1, 62, 102
3, 7170, Note_on_c, 1, 57, 80
3, 7171, Note_on_c, 1, 53, 85
3, 7171, Note_on_c, 1, 50, 82
3, 7621, Note_on_c, 1, 62, 0
3, 7622, Note_on_c, 1, 57, 0
3, 7623, Note_on_c, 1, 50, 0
3, 7623, Note_on_c, 1, 65, 0
3, 7624, Note_on_c, 1, 53, 0
3, 7754, Note_on_c, 1, 69, 59
3, 7802, Note_on_c, 1, 74, 85
3, 7808, Note_on_c, 1, 69, 0
3, 7842, Note_on_c, 1, 76, 82
3, 7849, Note_on_c, 1, 74, 0
3, 7880, Note_on_c, 1, 77, 85
3, 7886, Note_on_c, 1, 76, 0
3, 7920, Note_on_c, 1, 74, 82
3, 7922, Note_on_c, 1, 77, 0
3, 7957, Note_on_c, 1, 76, 89
3, 7965, Note_on_c, 1, 74, 0
3, 7989, Note_on_c, 1, 77, 66
3, 7995, Note_on_c, 1, 76, 0
3, 8028, Note_on_c, 1, 79, 85
3, 8031, Note_on_c, 1, 77, 0
3, 8069, Note_on_c, 1, 76, 87
3, 8071, Note_on_c, 1, 79, 0
3, 8109, Note_on_c, 1, 77, 95
3, 8116, Note_on_c, 1, 76, 0
3, 8145, Note_on_c, 1, 79, 85
3, 8150, Note_on_c, 1, 77, 0
3, 8181, Note_on_c, 1, 81, 85
3, 8185, Note_on_c, 1, 79, 0
3, 8217, Note_on_c, 1, 77, 80
3, 8222, Note_on_c, 1, 81, 0
3, 8253, Note_on_c, 1, 79, 80
3, 8261, Note_on_c, 1, 77, 0
3, 8289, Note_on_c, 1, 81, 80
3, 8295, Note_on_c, 1, 79, 0
3, 8321, Note_on_c, 1, 82, 76
3, 8325, Note_on_c, 1, 81, 0
3, 8359, Note_on_c, 1, 79, 68
3, 8362, Note_on_c, 1, 82, 0
3, 8397, Note_on_c, 1, 81, 85
3, 8402, Note_on_c, 1, 79, 0
3, 8433, Note_on_c, 1, 77, 87
3, 8436, Note_on_c, 1, 81, 0
3, 8469, Note_on_c, 1, 79, 76
3, 8475, Note_on_c, 1, 77, 0
3, 8505, Note_on_c, 1, 76, 80
3, 8509, Note_on_c, 1, 79, 0
3, 8542, Note_on_c, 1, 77, 56
3, 8546, Note_on_c, 1, 76, 0
3, 8579, Note_on_c, 1, 74, 85
3, 8583, Note_on_c, 1, 77, 0
3, 8614, Note_on_c, 1, 76, 87
3, 8615, Note_on_c, 1, 76, 85
3, 8618, Note_on_c, 1, 74, 0
3, 8651, Note_on_c, 1, 73, 82
3, 8653, Note_on_c, 1, 76, 0
3, 8653, Note_on_c, 1, 76, 0
3, 8687, Note_on_c, 1, 74, 85
3, 8691, Note_on_c, 1, 73, 0
3, 8725, Note_on_c, 1, 69, 82
3, 8727, Note_on_c, 1, 74, 0
3, 8761, Note_on_c, 1, 70, 87
3, 8765, Note_on_c, 1, 69, 0
3, 8795, Note_on_c, 1, 67, 82
3, 8797, Note_on_c, 1, 70, 0
3, 8830, Note_on_c, 1, 69, 80
3, 8834, Note_on_c, 1, 67, 0
3, 8865, Note_on_c, 1, 65, 78
3, 8867, Note_on_c, 1, 69, 0
3, 8900, Note_on_c, 1, 67, 68
3, 8905, Note_on_c, 1, 65, 0
3, 8937, Note_on_c, 1, 64, 87
3, 8939, Note_on_c, 1, 67, 0
3, 8971, Note_on_c, 1, 65, 78
3, 8977, Note_on_c, 1, 64, 0
3, 9007, Note_on_c, 1, 62, 87
3, 9010, Note_on_c, 1, 65, 0
3, 9042, Note_on_c, 1, 67, 80
3, 9049, Note_on_c, 1, 62, 0
3, 9075, Note_on_c, 1, 64, 80
3, 9080, Note_on_c, 1, 67, 0
3, 9111, Note_on_c, 1, 65, 82
3, 9116, Note_on_c, 1, 64, 0
3, 9146, Note_on_c, 1, 62, 72
3, 9151, Note_on_c, 1, 65, 0
3, 9180, Note_on_c, 1, 64, 80
3, 9185, Note_on_c, 1, 62, 0
3, 9214, Note_on_c, 1, 61, 66
3, 9217, Note_on_c, 1, 64, 0
3, 9250, Note_on_c, 1, 62, 80
3, 9255, Note_on_c, 1, 61, 0
3, 9289, Note_on_c, 1, 57, 78
3, 9293, Note_on_c, 1, 62, 0
3, 9325, Note_on_c, 1, 58, 89
3, 9329, Note_on_c, 1, 57, 0
3, 9361, Note_on_c, 1, 55, 82
3, 9363, Note_on_c, 1, 58, 0
3, 9396, Note_on_c, 1, 57, 78
3, 9401, Note_on_c, 1, 55, 0
3, 9433, Note_on_c, 1, 53, 78
3, 9434, Note_on_c, 1, 57, 0
3, 9465, Note_on_c, 1, 55, 68
3, 9471, Note_on_c, 1, 53, 0
3, 9501, Note_on_c, 1, 52, 85
3, 9502, Note_on_c, 1, 55, 0
3, 9536, Note_on_c, 1, 53, 87
3, 9540, Note_on_c, 1, 52, 0
3, 9572, Note_on_c, 1, 50, 85
3, 9576, Note_on_c, 1, 53, 0
3, 9606, Note_on_c, 1, 55, 87
3, 9611, Note_on_c, 1, 50, 0
3, 9640, Note_on_c, 1, 52, 82
3, 9645, Note_on_c, 1, 55, 0
3, 9677, Note_on_c, 1, 53, 80
3, 9682, Note_on_c, 1, 52, 0
3, 9712, Note_on_c, 1, 50, 85
3, 9716, Note_on_c, 1, 53, 0
3, 9748, Note_on_c, 1, 52, 87
3, 9751, Note_on_c, 1, 50, 0
3, 9786, Note_on_c, 1, 49, 82
3, 9789, Note_on_c, 1, 52, 0
3, 9832, Note_on_c, 1, 50, 85
3, 9833, Note_on_c, 1, 49, 0
3, 9920, Note_on_c, 1, 50, 0
3, 9992, Note_on_c, 1, 62, 87
3, 10011, Note_on_c, 1, 65, 76
3, 10027, Note_on_c, 1, 70, 68
3, 10030, Note_on_c, 1, 65, 0
3, 10044, Note_on_c, 1, 65, 66
3, 10054, Note_on_c, 1, 70, 0
3, 10059, Note_on_c, 1, 60, 80
3, 10059, Note_on_c, 1, 65, 0
3, 10060, Note_on_c, 1, 62, 0
3, 10076, Note_on_c, 1, 64, 78
3, 10090, Note_on_c, 1, 69, 85
3, 10093, Note_on_c, 1, 64, 0
3, 10104, Note_on_c, 1, 64, 68
3, 10113, Note_on_c, 1, 69, 0
3, 10117, Note_on_c, 1, 64, 0
3, 10119, Note_on_c, 1, 58, 85
3, 10124, Note_on_c, 1, 60, 0
3, 10134, Note_on_c, 1, 62, 85
3, 10146, Note_on_c, 1, 67, 76
3, 10147, Note_on_c, 1, 62, 0
3, 10161, Note_on_c, 1, 62, 70
3, 10171, Note_on_c, 1, 67, 0
3, 10174, Note_on_c, 1, 62, 0
3, 10178, Note_on_c, 1, 57, 78
3, 10181, Note_on_c, 1, 58, 0
3, 10195, Note_on_c, 1, 61, 82
3, 10199, Note_on_c, 1, 57, 0
3, 10213, Note_on_c, 1, 64, 85
3, 10231, Note_on_c, 1, 69, 80
3, 10231, Note_on_c, 1, 61, 0
3, 10237, Note_on_c, 1, 64, 0
3, 10251, Note_on_c, 1, 69, 0
3, 10257, Note_on_c, 1, 62, 102
3, 10306, Note_on_c, 1, 70, 89
3, 10306, Note_on_c, 1, 65, 87
3, 10309, Note_on_c, 1, 62, 0
3, 10348, Note_on_c, 1, 70, 0
3, 10349, Note_on_c, 1, 57, 98
3, 10350, Note_on_c, 1, 65, 0
3, 10391, Note_on_c, 1, 69, 98
3, 10391, Note_on_c, 1, 64, 100
3, 10392, Note_on_c, 1, 57, 0
3, 10433, Note_on_c, 1, 69, 0
3, 10434, Note_on_c, 1, 58, 102
3, 10435, Note_on_c, 1, 64, 0
3, 10472, Note_on_c, 1, 67, 78
3, 10473, Note_on_c, 1, 62, 82
3, 10523, Note_on_c, 1, 62, 0
3, 10526, Note_on_c, 1, 58, 0
3, 10527, Note_on_c, 1, 69, 85
3, 10528, Note_on_c, 1, 64, 85
3, 10528, Note_on_c, 1, 57, 85
3, 10530, Note_on_c, 1, 61, 78
3, 10532, Note_on_c, 1, 67, 0
3, 10635, Note_on_c, 1, 61, 0
3, 10643, Note_on_c, 1, 64, 0
3, 10646, Note_on_c, 1, 57, 0
3, 10647, Note_on_c, 1, 69, 0
3, 10958, Note_on_c, 1, 62, 91
3, 11011, Note_on_c, 1, 70, 82
3, 11011, Note_on_c, 1, 65, 82
3, 11012, Note_on_c, 1, 62, 0
3, 11056, Note_on_c, 1, 57, 100
3, 11057, Note_on_c, 1, 70, 0
3, 11059, Note_on_c, 1, 65, 0
3, 11100, Note_on_c, 1, 69, 87
3, 11100, Note_on_c, 1, 64, 89
3, 11106, Note_on_c, 1, 57, 0
3, 11143, Note_on_c, 1, 69, 0
3, 11144, Note_on_c, 1, 58, 105
3, 11145, Note_on_c, 1, 64, 0
3, 11190, Note_on_c, 1, 67, 100
3, 11191, Note_on_c, 1, 62, 85
3, 11254, Note_on_c, 1, 69, 82
3, 11254, Note_on_c, 1, 64, 80
3, 11255, Note_on_c, 1, 61, 85
3, 11256, Note_on_c, 1, 58, 0
3, 11257, Note_on_c, 1, 52, 93
3, 11259, Note_on_c, 1, 67, 0
3, 11259, Note_on_c, 1, 62, 0
3, 11511, Note_on_c, 1, 64, 0
3, 11512, Note_on_c, 1, 67, 80
3, 11512, Note_on_c, 1, 61, 0
3, 11516, Note_on_c, 1, 52, 0
3, 11526, Note_on_c, 1, 69, 0
3, 11555, Note_on_c, 1, 65, 102
3, 11563, Note_on_c, 1, 67, 0
3, 11581, Note_on_c, 1, 64, 102
3, 11586, Note_on_c, 1, 65, 0
3, 11600, Note_on_c, 1, 62, 89
3, 11602, Note_on_c, 1, 64, 0
3, 11620, Note_on_c, 1, 61, 85
3, 11626, Note_on_c, 1, 62, 0
3, 11639, Note_on_c, 1, 59, 80
3, 11642, Note_on_c, 1, 61, 0
3, 11657, Note_on_c, 1, 61, 98
3, 11660, Note_on_c, 1, 59, 0
3, 11677, Note_on_c, 1, 57, 95
3, 11678, Note_on_c, 1, 61, 0
3, 11697, Note_on_c, 1, 59, 80
3, 11704, Note_on_c, 1, 57, 0
3, 11711, Note_on_c, 1, 61, 82
3, 11716, Note_on_c, 1, 59, 0
3, 11724, Note_on_c, 1, 62, 93
3, 11728, Note_on_c, 1, 61, 0
3, 11738, Note_on_c, 1, 62, 0
3, 11739, Note_on_c, 1, 64, 87
3, 11752, Note_on_c, 1, 65, 95
3, 11758, Note_on_c, 1, 64, 0
3, 11765, Note_on_c, 1, 67, 87
3, 11775, Note_on_c, 1, 65, 0
3, 11777, Note_on_c, 1, 69, 93
3, 11779, Note_on_c, 1, 67, 0
3, 11788, Note_on_c, 1, 67, 82
3, 11794, Note_on_c, 1, 69, 0
3, 11798, Note_on_c, 1, 65, 85
3, 11801, Note_on_c, 1, 67, 0
3, 11811, Note_on_c, 1, 64, 87
3, 11811, Note_on_c, 1, 65, 0
3, 11823, Note_on_c, 1, 65, 102
3, 11838, Note_on_c, 1, 64, 0
3, 11844, Note_on_c, 1, 62, 82
3, 11846, Note_on_c, 1, 65, 0
3, 11866, Note_on_c, 1, 65, 85
3, 11875, Note_on_c, 1, 62, 0
3, 11884, Note_on_c, 1, 69, 100
3, 11898, Note_on_c, 1, 65, 0
3, 11904, Note_on_c, 1, 73, 95
3, 11913, Note_on_c, 1, 69, 0
3, 11925, Note_on_c, 1, 74, 91
3, 11928, Note_on_c, 1, 73, 0
3, 11957, Note_on_c, 1, 69, 80
3, 11959, Note_on_c, 1, 74, 0
3, 11977, Note_on_c, 1, 71, 70
3, 11993, Note_on_c, 1, 73, 68
3, 11994, Note_on_c, 1, 69, 0
3, 12000, Note_on_c, 1, 71, 0
3, 12013, Note_on_c, 1, 74, 98
3, 12016, Note_on_c, 1, 73, 0
3, 12036, Note_on_c, 1, 76, 93
3, 12044, Note_on_c, 1, 74, 0
3, 12053, Note_on_c, 1, 77, 110
3, 12056, Note_on_c, 1, 76, 0
3, 12065, Note_on_c, 1, 79, 100
3, 12071, Note_on_c, 1, 77, 0
3, 12075, Note_on_c, 1, 81, 89
3, 12084, Note_on_c, 1, 79, 0
3, 12091, Note_on_c, 1, 82, 105
3, 12093, Note_on_c, 1, 81, 0
3, 12224, Note_on_c, 1, 82, 0
3, 12238, Note_on_c, 1, 74, 107
3, 12289, Note_on_c, 1, 77, 91
3, 12290, Note_on_c, 1, 82, 95
3, 12295, Note_on_c, 1, 74, 0
3, 12333, Note_on_c, 1, 69, 107
3, 12338, Note_on_c, 1, 77, 0
3, 12339, Note_on_c, 1, 82, 0
3, 12370, Note_on_c, 1, 76, 98
3, 12370, Note_on_c, 1, 81, 98
3, 12375, Note_on_c, 1, 69, 0
3, 12410, Note_on_c, 1, 70, 110
3, 12412, Note_on_c, 1, 81, 0
3, 12413, Note_on_c, 1, 76, 0
3, 12454, Note_on_c, 1, 79, 102
3, 12455, Note_on_c, 1, 74, 82
3, 12505, Note_on_c, 1, 74, 0
3, 12510, Note_on_c, 1, 76, 78
3, 12510, Note_on_c, 1, 81, 82
3, 12510, Note_on_c, 1, 73, 66
3, 12511, Note_on_c, 1, 64, 93
3, 12511, Note_on_c, 1, 70, 0
3, 12515, Note_on_c, 1, 79, 0
3, 12650, Note_on_c, 1, 64, 0
3, 12653, Note_on_c, 1, 73, 0
3, 12656, Note_on_c, 1, 76, 0
3, 12660, Note_on_c, 1, 81, 0
3, 12694, Note_on_c, 1, 74, 85
3, 12721, Note_on_c, 1, 77, 82
3, 12735, Note_on_c, 1, 82, 70
3, 12737, Note_on_c, 1, 77, 0
3, 12751, Note_on_c, 1, 77, 61
3, 12762, Note_on_c, 1, 82, 0
3, 12764, Note_on_c, 1, 72, 93
3, 12765, Note_on_c, 1, 77, 0
3, 12767, Note_on_c, 1, 74, 0
3, 12779, Note_on_c, 1, 76, 60
3, 12794, Note_on_c, 1, 81, 80
3, 12797, Note_on_c, 1, 76, 0
3, 12808, Note_on_c, 1, 76, 58
3, 12818, Note_on_c, 1, 81, 0
3, 12821, Note_on_c, 1, 76, 0
3, 12822, Note_on_c, 1, 70, 70
3, 12825, Note_on_c, 1, 72, 0
3, 12836, Note_on_c, 1, 74, 85
3, 12851, Note_on_c, 1, 79, 80
3, 12852, Note_on_c, 1, 74, 0
3, 12863, Note_on_c, 1, 74, 82
3, 12878, Note_on_c, 1, 74, 0
3, 12879, Note_on_c, 1, 69, 70
3, 12880, Note_on_c, 1, 79, 0
3, 12882, Note_on_c, 1, 70, 0
3, 12898, Note_on_c, 1, 73, 64
3, 12905, Note_on_c, 1, 69, 0
3, 12918, Note_on_c, 1, 76, 98
3, 12937, Note_on_c, 1, 81, 102
3, 12965, Note_on_c, 1, 76, 0
3, 12967, Note_on_c, 1, 73, 0
3, 12970, Note_on_c, 1, 81, 0
3, 12975, Note_on_c, 1, 74, 93
3, 13031, Note_on_c, 1, 82, 98
3, 13031, Note_on_c, 1, 77, 87
3, 13046, Note_on_c, 1, 74, 0
3, 13079, Note_on_c, 1, 69, 107
3, 13080, Note_on_c, 1, 77, 0
3, 13083, Note_on_c, 1, 82, 0
3, 13117, Note_on_c, 1, 81, 93
3, 13118, Note_on_c, 1, 76, 95
3, 13157, Note_on_c, 1, 70, 80
3, 13157, Note_on_c, 1, 69, 0
3, 13159, Note_on_c, 1, 81, 0
3, 13159, Note_on_c, 1, 76, 0
3, 13201, Note_on_c, 1, 79, 98
3, 13202, Note_on_c, 1, 74, 80
3, 13255, Note_on_c, 1, 74, 0
3, 13257, Note_on_c, 1, 81, 82
3, 13258, Note_on_c, 1, 76, 85
3, 13258, Note_on_c, 1, 73, 74
3, 13259, Note_on_c, 1, 64, 87
3, 13262, Note_on_c, 1, 70, 0
3, 13263, Note_on_c, 1, 79, 0
3, 13373, Note_on_c, 1, 81, 0
3, 13375, Note_on_c, 1, 76, 0
3, 13382, Note_on_c, 1, 73, 0
3, 13388, Note_on_c, 1, 64, 0
3, 13420, Note_on_c, 1, 71, 85
3, 13421, Note_on_c, 1, 65, 82
3, 13421, Note_on_c, 1, 62, 80
3, 13421, Note_on_c, 1, 59, 80
3, 13553, Note_on_c, 1, 65, 0
3, 13565, Note_on_c, 1, 71, 0
3, 13566, Note_on_c, 1, 62, 0
3, 13566, Note_on_c, 1, 59, 0
3, 13567, Note_on_c, 1, 73, 98
3, 13568, Note_on_c, 1, 57, 95
3, 13568, Note_on_c, 1, 69, 100
3, 13569, Note_on_c, 1, 64, 91
3, 13738, Note_on_c, 1, 71, 87
3, 13738, Note_on_c, 1, 57, 0
3, 13739, Note_on_c, 1, 64, 0
3, 13742, Note_on_c, 1, 73, 0
3, 13743, Note_on_c, 1, 69, 0
3, 13785, Note_on_c, 1, 69, 91
3, 13789, Note_on_c, 1, 71, 0
3, 13819, Note_on_c, 1, 73, 95
3, 13827, Note_on_c, 1, 69, 0
3, 13849, Note_on_c, 1, 76, 89
3, 13854, Note_on_c, 1, 73, 0
3, 13862, Note_on_c, 1, 79, 107
3, 13867, Note_on_c, 1, 76, 0
3, 13876, Note_on_c, 1, 82, 102
3, 13879, Note_on_c, 1, 79, 0
3, 13956, Note_on_c, 1, 81, 91
3, 13962, Note_on_c, 1, 82, 0
3, 13985, Note_on_c, 1, 79, 91
3, 13989, Note_on_c, 1, 81, 0
3, 14004, Note_on_c, 1, 77, 68
3, 14005, Note_on_c, 1, 79, 0
3, 14023, Note_on_c, 1, 76, 95
3, 14027, Note_on_c, 1, 77, 0
3, 14042, Note_on_c, 1, 77, 91
3, 14046, Note_on_c, 1, 76, 0
3, 14059, Note_on_c, 1, 76, 98
3, 14067, Note_on_c, 1, 77, 0
3, 14075, Note_on_c, 1, 74, 85
3, 14076, Note_on_c, 1, 76, 0
3, 14090, Note_on_c, 1, 73, 102
3, 14093, Note_on_c, 1, 74, 0
3, 14106, Note_on_c, 1, 74, 89
3, 14109, Note_on_c, 1, 73, 0
3, 14123, Note_on_c, 1, 72, 80
3, 14130, Note_on_c, 1, 74, 0
3, 14138, Note_on_c, 1, 70, 100
3, 14141, Note_on_c, 1, 72, 0
3, 14152, Note_on_c, 1, 69, 87
3, 14157, Note_on_c, 1, 70, 0
3, 14167, Note_on_c, 1, 67, 87
3, 14169, Note_on_c, 1, 69, 0
3, 14187, Note_on_c, 1, 65, 70
3, 14193, Note_on_c, 1, 67, 0
3, 14205, Note_on_c, 1, 64, 85
3, 14210, Note_on_c, 1, 65, 0
3, 14222, Note_on_c, 1, 62, 89
3, 14226, Note_on_c, 1, 64, 0
3, 14256, Note_on_c, 1, 76, 74
3, 14256, Note_on_c, 1, 73, 80
3, 14256, Note_on_c, 1, 64, 85
3, 14256, Note_on_c, 1, 61, 78
3, 14257, Note_on_c, 1, 67, 87
3, 14260, Note_on_c, 1, 62, 0
3, 14273, Note_on_c, 1, 70, 33
3, 14649, Note_on_c, 1, 76, 0
3, 14649, Note_on_c, 1, 67, 0
3, 14651, Note_on_c, 1, 61, 0
3, 14654, Note_on_c, 1, 70, 0
3, 14761, Note_on_c, 1, 76, 80
3, 14765, Note_on_c, 1, 67, 63
3, 14767, Note_on_c, 1, 64, 0
3, 14769, Note_on_c, 1, 73, 0
3, 14804, Note_on_c, 1, 64, 85
3, 14804, Note_on_c, 1, 73, 85
3, 14809, Note_on_c, 1, 67, 0
3, 14810, Note_on_c, 1, 76, 0
3, 14834, Note_on_c, 1, 61, 76
3, 14836, Note_on_c, 1, 70, 80
3, 14838, Note_on_c, 1, 64, 0
3, 14839, Note_on_c, 1, 73, 0
3, 14859, Note_on_c, 1, 64, 78
3, 14861, Note_on_c, 1, 73, 80
3, 14862, Note_on_c, 1, 61, 0
3, 14867, Note_on_c, 1, 70, 0
3, 14878, Note_on_c, 1, 61, 87
3, 14880, Note_on_c, 1, 70, 82
3, 14881, Note_on_c, 1, 64, 0
3, 14882, Note_on_c, 1, 73, 0
3, 14897, Note_on_c, 1, 73, 89
3, 14898, Note_on_c, 1, 64, 85
3, 14903, Note_on_c, 1, 61, 0
3, 14904, Note_on_c, 1, 70, 0
3, 14914, Note_on_c, 1, 76, 72
3, 14919, Note_on_c, 1, 73, 0
3, 14919, Note_on_c, 1, 64, 0
3, 14920, Note_on_c, 1, 67, 80
3, 14933, Note_on_c, 1, 64, 70
3, 14933, Note_on_c, 1, 73, 82
3, 14940, Note_on_c, 1, 67, 0
3, 14940, Note_on_c, 1, 76, 0
3, 14949, Note_on_c, 1, 61, 87
3, 14950, Note_on_c, 1, 70, 85
3, 14953, Note_on_c, 1, 64, 0
3, 14954, Note_on_c, 1, 73, 0
3, 14964, Note_on_c, 1, 64, 82
3, 14966, Note_on_c, 1, 73, 91
3, 14967, Note_on_c, 1, 61, 0
3, 14970, Note_on_c, 1, 70, 0
3, 14980, Note_on_c, 1, 61, 98
3, 14982, Note_on_c, 1, 70, 89
3, 14982, Note_on_c, 1, 64, 0
3, 14982, Note_on_c, 1, 73, 0
3, 15007, Note_on_c, 1, 73, 68
3, 15007, Note_on_c, 1, 64, 57
3, 15009, Note_on_c, 1, 70, 0
3, 15010, Note_on_c, 1, 61, 0
3, 15030, Note_on_c, 1, 76, 82
3, 15030, Note_on_c, 1, 67, 85
3, 15030, Note_on_c, 1, 64, 0
3, 15034, Note_on_c, 1, 73, 0
3, 15049, Note_on_c, 1, 73, 100
3, 15049, Note_on_c, 1, 64, 68
3, 15051, Note_on_c, 1, 76, 0
3, 15052, Note_on_c, 1, 67, 0
3, 15067, Note_on_c, 1, 61, 78
3, 15068, Note_on_c, 1, 70, 87
3, 15069, Note_on_c, 1, 73, 0
3, 15069, Note_on_c, 1, 64, 0
3, 15084, Note_on_c, 1, 64, 80
3, 15084, Note_on_c, 1, 73, 68
3, 15085, Note_on_c, 1, 61, 0
3, 15087, Note_on_c, 1, 70, 0
3, 15097, Note_on_c, 1, 70, 80
3, 15097, Note_on_c, 1, 73, 0
3, 15100, Note_on_c, 1, 61, 80
3, 15101, Note_on_c, 1, 64, 0
3, 15110, Note_on_c, 1, 73, 85
3, 15112, Note_on_c, 1, 64, 62
3, 15113, Note_on_c, 1, 70, 0
3, 15115, Note_on_c, 1, 61, 0
3, 15126, Note_on_c, 1, 76, 74
3, 15128, Note_on_c, 1, 73, 0
3, 15131, Note_on_c, 1, 67, 87
3, 15131, Note_on_c, 1, 64, 0
3, 15141, Note_on_c, 1, 73, 102
3, 15143, Note_on_c, 1, 64, 72
3, 15143, Note_on_c, 1, 76, 0
3, 15148, Note_on_c, 1, 67, 0
3, 15159, Note_on_c, 1, 70, 89
3, 15160, Note_on_c, 1, 73, 0
3, 15161, Note_on_c, 1, 61, 78
3, 15162, Note_on_c, 1, 64, 0
3, 15174, Note_on_c, 1, 64, 74
3, 15175, Note_on_c, 1, 73, 76
3, 15175, Note_on_c, 1, 61, 0
3, 15175, Note_on_c, 1, 70, 0
3, 15187, Note_on_c, 1, 61, 82
3, 15188, Note_on_c, 1, 70, 85
3, 15189, Note_on_c, 1, 64, 0
3, 15193, Note_on_c, 1, 73, 0
3, 15205, Note_on_c, 1, 61, 0
3, 15206, Note_on_c, 1, 70, 0
3, 15207, Note_on_c, 1, 67, 85
3, 15209, Note_on_c, 1, 58, 64
3, 15223, Note_on_c, 1, 70, 87
3, 15224, Note_on_c, 1, 61, 95
3, 15225, Note_on_c, 1, 58, 0
3, 15225, Note_on_c, 1, 67, 0
3, 15241, Note_on_c, 1, 58, 85
3, 15241, Note_on_c, 1, 67, 85
3, 15244, Note_on_c, 1, 61, 0
3, 15245, Note_on_c, 1, 70, 0
3, 15257, Note_on_c, 1, 64, 82
3, 15258, Note_on_c, 1, 55, 80
3, 15259, Note_on_c, 1, 58, 0
3, 15260, Note_on_c, 1, 67, 0
3, 15271, Note_on_c, 1, 58, 98
3, 15272, Note_on_c, 1, 67, 82
3, 15274, Note_on_c, 1, 55, 0
3, 15276, Note_on_c, 1, 64, 0
3, 15284, Note_on_c, 1, 64, 91
3, 15284, Note_on_c, 1, 55, 85
3, 15285, Note_on_c, 1, 58, 0
3, 15285, Note_on_c, 1, 67, 0
3, 15298, Note_on_c, 1, 67, 102
3, 15300, Note_on_c, 1, 58, 98
3, 15301, Note_on_c, 1, 64, 0
3, 15303, Note_on_c, 1, 55, 0
3, 15313, Note_on_c, 1, 70, 87
3, 15315, Note_on_c, 1, 61, 100
3, 15316, Note_on_c, 1, 58, 0
3, 15318, Note_on_c, 1, 67, 0
3, 15328, Note_on_c, 1, 67, 87
3, 15330, Note_on_c, 1, 58, 89
3, 15332, Note_on_c, 1, 70, 0
3, 15334, Note_on_c, 1, 61, 0
3, 15344, Note_on_c, 1, 64, 87
3, 15344, Note_on_c, 1, 55, 72
3, 15345, Note_on_c, 1, 67, 0
3, 15346, Note_on_c, 1, 58, 0
3, 15360, Note_on_c, 1, 67, 80
3, 15362, Note_on_c, 1, 58, 82
3, 15364, Note_on_c, 1, 64, 0
3, 15365, Note_on_c, 1, 55, 0
3, 15374, Note_on_c, 1, 64, 87
3, 15376, Note_on_c, 1, 67, 0
3, 15379, Note_on_c, 1, 55, 70
3, 15381, Note_on_c, 1, 58, 0
3, 15392, Note_on_c, 1, 67, 102
3, 15394, Note_on_c, 1, 58, 87
3, 15394, Note_on_c, 1, 55, 0
3, 15396, Note_on_c, 1, 64, 0
3, 15410, Note_on_c, 1, 70, 98
3, 15412, Note_on_c, 1, 61, 64
3, 15413, Note_on_c, 1, 67, 0
3, 15413, Note_on_c, 1, 58, 0
3, 15425, Note_on_c, 1, 67, 93
3, 15427, Note_on_c, 1, 61, 0
3, 15430, Note_on_c, 1, 70, 0
3, 15432, Note_on_c, 1, 58, 28
3, 15440, Note_on_c, 1, 58, 0
3, 15442, Note_on_c, 1, 64, 87
3, 15445, Note_on_c, 1, 67, 0
3, 15446, Note_on_c, 1, 55, 87
3, 15460, Note_on_c, 1, 67, 82
3, 15462, Note_on_c, 1, 58, 98
3, 15464, Note_on_c, 1, 55, 0
3, 15464, Note_on_c, 1, 64, 0
3, 15474, Note_on_c, 1, 55, 85
3, 15475, Note_on_c, 1, 64, 98
3, 15476, Note_on_c, 1, 67, 0
3, 15476, Note_on_c, 1, 58, 0
3, 15490, Note_on_c, 1, 58, 87
3, 15490, Note_on_c, 1, 67, 105
3, 15491, Note_on_c, 1, 55, 0
3, 15493, Note_on_c, 1, 64, 0
3, 15505, Note_on_c, 1, 70, 93
3, 15508, Note_on_c, 1, 61, 70
3, 15508, Note_on_c, 1, 58, 0
3, 15509, Note_on_c, 1, 67, 0
3, 15522, Note_on_c, 1, 67, 95
3, 15524, Note_on_c, 1, 58, 66
3, 15527, Note_on_c, 1, 70, 0
3, 15529, Note_on_c, 1, 61, 0
3, 15539, Note_on_c, 1, 64, 85
3, 15539, Note_on_c, 1, 55, 82
3, 15540, Note_on_c, 1, 67, 0
3, 15540, Note_on_c, 1, 58, 0
3, 15554, Note_on_c, 1, 58, 85
3, 15555, Note_on_c, 1, 55, 0
3, 15556, Note_on_c, 1, 67, 78
3, 15560, Note_on_c, 1, 64, 0
3, 15571, Note_on_c, 1, 55, 72
3, 15573, Note_on_c, 1, 64, 82
3, 15573, Note_on_c, 1, 67, 0
3, 15575, Note_on_c, 1, 58, 0
3, 15590, Note_on_c, 1, 61, 100
3, 15592, Note_on_c, 1, 52, 87
3, 15594, Note_on_c, 1, 64, 0
3, 15595, Note_on_c, 1, 55, 0
3, 15607, Note_on_c, 1, 64, 78
3, 15609, Note_on_c, 1, 55, 70
3, 15610, Note_on_c, 1, 61, 0
3, 15610, Note_on_c, 1, 52, 0
3, 15626, Note_on_c, 1, 61, 105
3, 15626, Note_on_c, 1, 52, 66
3, 15628, Note_on_c, 1, 64, 0
3, 15629, Note_on_c, 1, 55, 0
3, 15643, Note_on_c, 1, 49, 85
3, 15644, Note_on_c, 1, 58, 89
3, 15644, Note_on_c, 1, 61, 0
3, 15645, Note_on_c, 1, 52, 0
3, 15658, Note_on_c, 1, 52, 74
3, 15658, Note_on_c, 1, 61, 85
3, 15662, Note_on_c, 1, 49, 0
3, 15662, Note_on_c, 1, 58, 0
3, 15672, Note_on_c, 1, 58, 87
3, 15672, Note_on_c, 1, 61, 0
3, 15673, Note_on_c, 1, 49, 87
3, 15674, Note_on_c, 1, 52, 0
3, 15686, Note_on_c, 1, 61, 82
3, 15690, Note_on_c, 1, 58, 0
3, 15691, Note_on_c, 1, 52, 80
3, 15695, Note_on_c, 1, 49, 0
3, 15702, Note_on_c, 1, 64, 68
3, 15706, Note_on_c, 1, 55, 85
3, 15706, Note_on_c, 1, 52, 0
3, 15706, Note_on_c, 1, 61, 0
3, 15721, Note_on_c, 1, 61, 98
3, 15721, Note_on_c, 1, 52, 85
3, 15724, Note_on_c, 1, 64, 0
3, 15729, Note_on_c, 1, 55, 0
3, 15737, Note_on_c, 1, 49, 87
3, 15738, Note_on_c, 1, 52, 0
3, 15739, Note_on_c, 1, 58, 93
3, 15741, Note_on_c, 1, 61, 0
3, 15753, Note_on_c, 1, 52, 85
3, 15754, Note_on_c, 1, 61, 82
3, 15755, Note_on_c, 1, 49, 0
3, 15758, Note_on_c, 1, 58, 0
3, 15769, Note_on_c, 1, 49, 98
3, 15770, Note_on_c, 1, 58, 87
3, 15770, Note_on_c, 1, 52, 0
3, 15770, Note_on_c, 1, 61, 0
3, 15784, Note_on_c, 1, 61, 87
3, 15787, Note_on_c, 1, 52, 82
3, 15788, Note_on_c, 1, 58, 0
3, 15791, Note_on_c, 1, 49, 0
3, 15801, Note_on_c, 1, 64, 72
3, 15805, Note_on_c, 1, 61, 0
3, 15805, Note_on_c, 1, 52, 0
3, 15806, Note_on_c, 1, 55, 85
3, 15820, Note_on_c, 1, 61, 85
3, 15822, Note_on_c, 1, 52, 78
3, 15825, Note_on_c, 1, 64, 0
3, 15829, Note_on_c, 1, 55, 0
3, 15840, Note_on_c, 1, 49, 87
3, 15840, Note_on_c, 1, 58, 85
3, 15842, Note_on_c, 1, 52, 0
3, 15843, Note_on_c, 1, 61, 0
3, 15858, Note_on_c, 1, 52, 82
3, 15859, Note_on_c, 1, 61, 89
3, 15861, Note_on_c, 1, 49, 0
3, 15863, Note_on_c, 1, 58, 0
3, 15874, Note_on_c, 1, 58, 89
3, 15874, Note_on_c, 1, 49, 93
3, 15874, Note_on_c, 1, 61, 0
3, 15876, Note_on_c, 1, 52, 0
3, 15888, Note_on_c, 1, 61, 89
3, 15889, Note_on_c, 1, 52, 78
3, 15891, Note_on_c, 1, 58, 0
3, 15893, Note_on_c, 1, 49, 0
3, 15903, Note_on_c, 1, 64, 80
3, 15904, Note_on_c, 1, 52, 0
3, 15906, Note_on_c, 1, 55, 85
3, 15906, Note_on_c, 1, 61, 0
3, 15918, Note_on_c, 1, 61, 89
3, 15918, Note_on_c, 1, 52, 70
3, 15921, Note_on_c, 1, 64, 0
3, 15925, Note_on_c, 1, 55, 0
3, 15933, Note_on_c, 1, 49, 89
3, 15935, Note_on_c, 1, 58, 93
3, 15935, Note_on_c, 1, 52, 0
3, 15936, Note_on_c, 1, 61, 0
3, 15949, Note_on_c, 1, 52, 82
3, 15949, Note_on_c, 1, 61, 82
3, 15952, Note_on_c, 1, 49, 0
3, 15952, Note_on_c, 1, 58, 0
3, 15962, Note_on_c, 1, 49, 93
3, 15963, Note_on_c, 1, 58, 87
3, 15964, Note_on_c, 1, 61, 0
3, 15965, Note_on_c, 1, 52, 0
3, 15977, Note_on_c, 1, 61, 98
3, 15978, Note_on_c, 1, 52, 85
3, 15981, Note_on_c, 1, 58, 0
3, 15982, Note_on_c, 1, 49, 0
3, 15997, Note_on_c, 1, 64, 74
3, 15999, Note_on_c, 1, 55, 74
3, 16000, Note_on_c, 1, 61, 0
3, 16002, Note_on_c, 1, 52, 0
3, 16013, Note_on_c, 1, 61, 100
3, 16014, Note_on_c, 1, 52, 85
3, 16017, Note_on_c, 1, 64, 0
3, 16018, Note_on_c, 1, 55, 0
3, 16029, Note_on_c, 1, 55, 59
3, 16029, Note_on_c, 1, 64, 80
3, 16031, Note_on_c, 1, 61, 0
3, 16033, Note_on_c, 1, 52, 0
3, 16049, Note_on_c, 1, 67, 98
3, 16052, Note_on_c, 1, 58, 85
3, 16052, Note_on_c, 1, 64, 0
3, 16053, Note_on_c, 1, 55, 0
3, 16064, Note_on_c, 1, 64, 70
3, 16067, Note_on_c, 1, 55, 80
3, 16069, Note_on_c, 1, 67, 0
3, 16074, Note_on_c, 1, 58, 0
3, 16083, Note_on_c, 1, 61, 93
3, 16083, Note_on_c, 1, 52, 85
3, 16085, Note_on_c, 1, 55, 0
3, 16086, Note_on_c, 1, 64, 0
3, 16095, Note_on_c, 1, 64, 82
3, 16097, Note_on_c, 1, 61, 0
3, 16098, Note_on_c, 1, 55, 82
3, 16099, Note_on_c, 1, 52, 0
3, 16110, Note_on_c, 1, 52, 87
3, 16111, Note_on_c, 1, 61, 107
3, 16112, Note_on_c, 1, 55, 0
3, 16113, Note_on_c, 1, 64, 0
3, 16126, Note_on_c, 1, 64, 91
3, 16127, Note_on_c, 1, 55, 85
3, 16129, Note_on_c, 1, 61, 0
3, 16130, Note_on_c, 1, 52, 0
3, 16143, Note_on_c, 1, 67, 89
3, 16144, Note_on_c, 1, 58, 66
3, 16146, Note_on_c, 1, 64, 0
3, 16146, Note_on_c, 1, 55, 0
3, 16157, Note_on_c, 1, 64, 82
3, 16160, Note_on_c, 1, 55, 82
3, 16161, Note_on_c, 1, 67, 0
3, 16171, Note_on_c, 1, 58, 0
3, 16177, Note_on_c, 1, 61, 89
3, 16178, Note_on_c, 1, 52, 87
3, 16180, Note_on_c, 1, 64, 0
3, 16180, Note_on_c, 1, 55, 0
3, 16189, Note_on_c, 1, 64, 82
3, 16193, Note_on_c, 1, 61, 0
3, 16195, Note_on_c, 1, 55, 82
3, 16197, Note_on_c, 1, 52, 0
3, 16203, Note_on_c, 1, 61, 102
3, 16205, Note_on_c, 1, 52, 85
3, 16207, Note_on_c, 1, 64, 0
3, 16208, Note_on_c, 1, 55, 0
3, 16219, Note_on_c, 1, 64, 95
3, 16221, Note_on_c, 1, 55, 89
3, 16222, Note_on_c, 1, 61, 0
3, 16224, Note_on_c, 1, 52, 0
3, 16238, Note_on_c, 1, 67, 93
3, 16240, Note_on_c, 1, 58, 78
3, 16240, Note_on_c, 1, 55, 0
3, 16241, Note_on_c, 1, 64, 0
3, 16252, Note_on_c, 1, 64, 85
3, 16257, Note_on_c, 1, 55, 85
3, 16258, Note_on_c, 1, 67, 0
3, 16271, Note_on_c, 1, 64, 0
3, 16273, Note_on_c, 1, 61, 93
3, 16274, Note_on_c, 1, 58, 0
3, 16275, Note_on_c, 1, 52, 89
3, 16277, Note_on_c, 1, 55, 0
3, 16292, Note_on_c, 1, 64, 85
3, 16292, Note_on_c, 1, 55, 87
3, 16295, Note_on_c, 1, 52, 0
3, 16295, Note_on_c, 1, 61, 0
3, 16305, Note_on_c, 1, 61, 82
3, 16306, Note_on_c, 1, 52, 87
3, 16309, Note_on_c, 1, 64, 0
3, 16309, Note_on_c, 1, 55, 0
3, 16320, Note_on_c, 1, 64, 70
3, 16323, Note_on_c, 1, 61, 0
3, 16325, Note_on_c, 1, 55, 87
3, 16327, Note_on_c, 1, 52, 0
3, 16340, Note_on_c, 1, 67, 64
3, 16343, Note_on_c, 1, 58, 80
3, 16346, Note_on_c, 1, 55, 0
3, 16346, Note_on_c, 1, 64, 0
3, 16356, Note_on_c, 1, 64, 91
3, 16358, Note_on_c, 1, 55, 87
3, 16361, Note_on_c, 1, 67, 0
3, 16362, Note_on_c, 1, 58, 0
3, 16377, Note_on_c, 1, 67, 89
3, 16378, Note_on_c, 1, 52, 85
3, 16381, Note_on_c, 1, 55, 0
3, 16382, Note_on_c, 1, 64, 0
3, 16397, Note_on_c, 1, 70, 95
3, 16399, Note_on_c, 1, 52, 0
3, 16400, Note_on_c, 1, 55, 78
3, 16403, Note_on_c, 1, 67, 0
3, 16417, Note_on_c, 1, 52, 85
3, 16417, Note_on_c, 1, 67, 85
3, 16418, Note_on_c, 1, 70, 0
3, 16422, Note_on_c, 1, 55, 0
3, 16438, Note_on_c, 1, 55, 76
3, 16438, Note_on_c, 1, 70, 100
3, 16438, Note_on_c, 1, 52, 0
3, 16443, Note_on_c, 1, 67, 0
3, 16455, Note_on_c, 1, 67, 89
3, 16456, Note_on_c, 1, 52, 87
3, 16456, Note_on_c, 1, 70, 0
3, 16463, Note_on_c, 1, 55, 0
3, 16471, Note_on_c, 1, 70, 95
3, 16473, Note_on_c, 1, 55, 70
3, 16476, Note_on_c, 1, 67, 0
3, 16476, Note_on_c, 1, 52, 0
3, 16494, Note_on_c, 1, 58, 82
3, 16494, Note_on_c, 1, 67, 100
3, 16495, Note_on_c, 1, 70, 0
3, 16497, Note_on_c, 1, 55, 0
3, 16513, Note_on_c, 1, 70, 105
3, 16516, Note_on_c, 1, 61, 89
3, 16517, Note_on_c, 1, 58, 0
3, 16518, Note_on_c, 1, 67, 0
3, 16532, Note_on_c, 1, 58, 91
3, 16532, Note_on_c, 1, 67, 98
3, 16534, Note_on_c, 1, 70, 0
3, 16535, Note_on_c, 1, 61, 0
3, 16548, Note_on_c, 1, 61, 98
3, 16549, Note_on_c, 1, 70, 107
3, 16549, Note_on_c, 1, 58, 0
3, 16553, Note_on_c, 1, 67, 0
3, 16562, Note_on_c, 1, 58, 89
3, 16564, Note_on_c, 1, 61, 0
3, 16566, Note_on_c, 1, 67, 100
3, 16566, Note_on_c, 1, 70, 0
3, 16577, Note_on_c, 1, 61, 100
3, 16577, Note_on_c, 1, 58, 0
3, 16581, Note_on_c, 1, 70, 110
3, 16585, Note_on_c, 1, 67, 0
3, 16592, Note_on_c, 1, 58, 60
3, 16598, Note_on_c, 1, 73, 107
3, 16600, Note_on_c, 1, 61, 0
3, 16602, Note_on_c, 1, 70, 0
3, 16603, Note_on_c, 1, 64, 89
3, 16611, Note_on_c, 1, 58, 0
3, 16623, Note_on_c, 1, 61, 100
3, 16624, Note_on_c, 1, 70, 113
3, 16626, Note_on_c, 1, 73, 0
3, 16628, Note_on_c, 1, 64, 0
3, 16642, Note_on_c, 1, 73, 102
3, 16643, Note_on_c, 1, 58, 87
3, 16646, Note_on_c, 1, 70, 0
3, 16648, Note_on_c, 1, 61, 0
3, 16661, Note_on_c, 1, 61, 102
3, 16661, Note_on_c, 1, 76, 105
3, 16663, Note_on_c, 1, 58, 0
3, 16664, Note_on_c, 1, 73, 0
3, 16676, Note_on_c, 1, 58, 98
3, 16679, Note_on_c, 1, 73, 105
3, 16680, Note_on_c, 1, 61, 0
3, 16682, Note_on_c, 1, 76, 0
3, 16690, Note_on_c, 1, 61, 87
3, 16693, Note_on_c, 1, 58, 0
3, 16695, Note_on_c, 1, 76, 93
3, 16696, Note_on_c, 1, 73, 0
3, 16708, Note_on_c, 1, 58, 91
3, 16711, Note_on_c, 1, 73, 113
3, 16711, Note_on_c, 1, 61, 0
3, 16714, Note_on_c, 1, 76, 0
3, 16729, Note_on_c, 1, 76, 93
3, 16730, Note_on_c, 1, 61, 85
3, 16731, Note_on_c, 1, 73, 0
3, 16733, Note_on_c, 1, 58, 0
3, 16747, Note_on_c, 1, 73, 107
3, 16748, Note_on_c, 1, 58, 93
3, 16748, Note_on_c, 1, 76, 0
3, 16752, Note_on_c, 1, 61, 0
3, 16768, Note_on_c, 1, 76, 85
3, 16771, Note_on_c, 1, 61, 105
3, 16771, Note_on_c, 1, 73, 0
3, 16773, Note_on_c, 1, 58, 0
3, 16796, Note_on_c, 1, 58, 95
3, 16796, Note_on_c, 1, 73, 110
3, 16798, Note_on_c, 1, 76, 0
3, 16799, Note_on_c, 1, 61, 0
3, 16826, Note_on_c, 1, 76, 87
3, 16826, Note_on_c, 1, 61, 107
3, 16832, Note_on_c, 1, 73, 0
3, 16873, Note_on_c, 1, 58, 0
3, 16877, Note_on_c, 1, 61, 0
3, 16894, Note_on_c, 1, 76, 0
3, 16909, Note_on_c, 1, 76, 98
3, 16909, Note_on_c, 1, 81, 100
3, 16910, Note_on_c, 1, 73, 100
3, 16910, Note_on_c, 1, 61, 82
3, 16910, Note_on_c, 1, 69, 87
3, 16911, Note_on_c, 1, 57, 76
3, 16911, Note_on_c, 1, 64, 80
3, 17020, Note_on_c, 1, 57, 0
3, 17024, Note_on_c, 1, 76, 0
3, 17026, Note_on_c, 1, 61, 0
3, 17026, Note_on_c, 1, 73, 0
3, 17027, Note_on_c, 1, 69, 0
3, 17028, Note_on_c, 1, 64, 0
3, 17034, Note_on_c, 1, 81, 0
3, 17040, Note_on_c, 1, 74, 93
3, 17040, Note_on_c, 1, 57, 68
3, 17040, Note_on_c, 1, 65, 72
3, 17040, Note_on_c, 1, 81, 89
3, 17040, Note_on_c, 1, 77, 93
3, 17040, Note_on_c, 1, 69, 85
3, 17040, Note_on_c, 1, 62, 89
3, 17159, Note_on_c, 1, 62, 0
3, 17159, Note_on_c, 1, 77, 0
3, 17159, Note_on_c, 1, 57, 0
3, 17159, Note_on_c, 1, 65, 0
3, 17159, Note_on_c, 1, 74, 0
3, 17159, Note_on_c, 1, 69, 0
3, 17159, Note_on_c, 1, 81, 0
3, 17160, Note_on_c, 1, 67, 89
3, 17160, Note_on_c, 1, 74, 95
3, 17160, Note_on_c, 1, 79, 89
3, 17160, Note_on_c, 1, 70, 85
3, 17160, Note_on_c, 1, 62, 93
3, 17280, Note_on_c, 1, 62, 0
3, 17280, Note_on_c, 1, 79, 0
3, 17280, Note_on_c, 1, 67, 0
3, 17280, Note_on_c, 1, 74, 0
3, 17280, Note_on_c, 1, 70, 0
3, 17400, Note_on_c, 1, 76, 74
3, 17400, Note_on_c, 1, 79, 82
3, 17400, Note_on_c, 1, 67, 70
3, 17400, Note_on_c, 1, 73, 80
3, 17400, Note_on_c, 1, 64, 85
3, 17400, Note_on_c, 1, 61, 80
3, 17400, Note_on_c, 1, 69, 64
3, 17519, Note_on_c, 1, 69, 0
3, 17519, Note_on_c, 1, 64, 0
3, 17519, Note_on_c, 1, 79, 0
3, 17519, Note_on_c, 1, 67, 0
3, 17519, Note_on_c, 1, 76, 0
3, 17519, Note_on_c, 1, 61, 0
3, 17519, Note_on_c, 1, 73, 0
3, 17850, Note_on_c, 1, 64, 82
3, 17850, Note_on_c, 1, 73, 80
3, 17850, Note_on_c, 1, 69, 89
3, 17850, Note_on_c, 1, 67, 80
3, 17853, Note_on_c, 1, 57, 89
3, 17873, Note_on_c, 1, 57, 0
3, 17879, Note_on_c, 1, 57, 100
3, 17879, Note_on_c, 1, 73, 0
3, 17879, Note_on_c, 1, 67, 0
3, 17879, Note_on_c, 1, 64, 0
3, 17880, Note_on_c, 1, 74, 93
3, 17880, Note_on_c, 1, 62, 100
3, 17880, Note_on_c, 1, 65, 89
3, 17930, Note_on_c, 1, 57, 0
3, 17939, Note_on_c, 1, 62, 0
3, 17939, Note_on_c, 1, 69, 0
3, 17939, Note_on_c, 1, 74, 0
3, 17939, Note_on_c, 1, 65, 0
3, 17940, Note_on_c, 1, 62, 105
3, 17940, Note_on_c, 1, 65, 102
3, 17941, Note_on_c, 1, 57, 105
3, 17999, Note_on_c, 1, 65, 0
3, 18000, Note_on_c, 1, 64, 116
3, 18059, Note_on_c, 1, 62, 0
3, 18060, Note_on_c, 1, 61, 93
3, 18090, Note_on_c, 1, 55, 80
3, 18095, Note_on_c, 1, 57, 0
3, 18119, Note_on_c, 1, 64, 0
3, 18119, Note_on_c, 1, 61, 0
3, 18120, Note_on_c, 1, 62, 100
3, 18120, Note_on_c, 1, 50, 85
3, 18120, Note_on_c, 1, 57, 82
3, 18180, Note_on_c, 1, 53, 82
3, 18182, Note_on_c, 1, 55, 0
3, 18209, Note_on_c, 1, 53, 0
3, 18210, Note_on_c, 1, 52, 82
3, 18239, Note_on_c, 1, 52, 0
3, 18240, Note_on_c, 1, 53, 100
3, 18359, Note_on_c, 1, 53, 0
3, 18359, Note_on_c, 1, 62, 0
3, 18359, Note_on_c, 1, 50, 0
3, 18359, Note_on_c, 1, 57, 0
3, 22710, Note_on_c, 1, 81, 95
3, 22740, Note_on_c, 1, 79, 102
3, 22743, Note_on_c, 1, 81, 0
3, 22770, Note_on_c, 1, 81, 100
3, 22773, Note_on_c, 1, 79, 0
3, 22800, Note_on_c, 1, 77, 105
3, 22803, Note_on_c, 1, 81, 0
3, 22829, Note_on_c, 1, 77, 0
3, 22830, Note_on_c, 1, 81, 95
3, 22860, Note_on_c, 1, 76, 102
3, 22862, Note_on_c, 1, 81, 0
3, 22890, Note_on_c, 1, 81, 85
3, 22892, Note_on_c, 1, 76, 0
3, 22920, Note_on_c, 1, 74, 102
3, 22927, Note_on_c, 1, 81, 0
3, 22950, Note_on_c, 1, 81, 95
3, 22952, Note_on_c, 1, 74, 0
3, 22980, Note_on_c, 1, 73, 107
3, 22983, Note_on_c, 1, 81, 0
3, 23010, Note_on_c, 1, 81, 98
3, 23014, Note_on_c, 1, 73, 0
3, 23040, Note_on_c, 1, 74, 105
3, 23047, Note_on_c, 1, 81, 0
3, 23070, Note_on_c, 1, 81, 93
3, 23071, Note_on_c, 1, 74, 0
3, 23100, Note_on_c, 1, 76, 102
3, 23102, Note_on_c, 1, 81, 0
3, 23130, Note_on_c, 1, 81, 98
3, 23132, Note_on_c, 1, 76, 0
3, 23160, Note_on_c, 1, 77, 105
3, 23165, Note_on_c, 1, 81, 0
3, 23190, Note_on_c, 1, 81, 95
3, 23196, Note_on_c, 1, 77, 0
3, 23220, Note_on_c, 1, 69, 72
3, 23225, Note_on_c, 1, 81, 0
3, 23250, Note_on_c, 1, 81, 93
3, 23256, Note_on_c, 1, 69, 0
3, 23280, Note_on_c, 1, 71, 85
3, 23287, Note_on_c, 1, 81, 0
3, 23310, Note_on_c, 1, 81, 98
3, 23315, Note_on_c, 1, 71, 0
3, 23340, Note_on_c, 1, 73, 93
3, 23345, Note_on_c, 1, 81, 0
3, 23370, Note_on_c, 1, 81, 91
3, 23374, Note_on_c, 1, 73, 0
3, 23400, Note_on_c, 1, 74, 91
3, 23405, Note_on_c, 1, 81, 0
3, 23430, Note_on_c, 1, 81, 82
3, 23432, Note_on_c, 1, 74, 0
3, 23460, Note_on_c, 1, 73, 98
3, 23466, Note_on_c, 1, 81, 0
3, 23490, Note_on_c, 1, 81, 85
3, 23492, Note_on_c, 1, 73, 0
3, 23520, Note_on_c, 1, 74, 93
3, 23525, Note_on_c, 1, 81, 0
3, 23550, Note_on_c, 1, 81, 85
3, 23551, Note_on_c, 1, 74, 0
3, 23580, Note_on_c, 1, 76, 98
3, 23584, Note_on_c, 1, 81, 0
3, 23610, Note_on_c, 1, 81, 87
3, 23612, Note_on_c, 1, 76, 0
3, 23640, Note_on_c, 1, 77, 105
3, 23647, Note_on_c, 1, 81, 0
3, 23670, Note_on_c, 1, 81, 98
3, 23673, Note_on_c, 1, 77, 0
3, 23700, Note_on_c, 1, 76, 100
3, 23702, Note_on_c, 1, 81, 0
3, 23730, Note_on_c, 1, 81, 82
3, 23734, Note_on_c, 1, 76, 0
3, 23760, Note_on_c, 1, 74, 100
3, 23768, Note_on_c, 1, 81, 0
3, 23790, Note_on_c, 1, 81, 95
3, 23795, Note_on_c, 1, 74, 0
3, 23820, Note_on_c, 1, 72, 66
3, 23827, Note_on_c, 1, 81, 0
3, 23850, Note_on_c, 1, 81, 100
3, 23851, Note_on_c, 1, 72, 0
3, 23880, Note_on_c, 1, 70, 95
3, 23890, Note_on_c, 1, 81, 0
3, 23910, Note_on_c, 1, 81, 85
3, 23920, Note_on_c, 1, 70, 0
3, 23940, Note_on_c, 1, 72, 82
3, 23950, Note_on_c, 1, 81, 0
3, 23970, Note_on_c, 1, 81, 80
3, 23988, Note_on_c, 1, 72, 0
3, 24000, Note_on_c, 1, 74, 82
3, 24003, Note_on_c, 1, 81, 0
3, 24030, Note_on_c, 1, 79, 85
3, 24054, Note_on_c, 1, 79, 0
3, 24060, Note_on_c, 1, 70, 82
3, 24062, Note_on_c, 1, 74, 0
3, 24090, Note_on_c, 1, 79, 87
3, 24103, Note_on_c, 1, 70, 0
3, 24120, Note_on_c, 1, 76, 80
3, 24127, Note_on_c, 1, 79, 0
3, 24150, Note_on_c, 1, 79, 85
3, 24157, Note_on_c, 1, 76, 0
3, 24180, Note_on_c, 1, 74, 102
3, 24188, Note_on_c, 1, 79, 0
3, 24210, Note_on_c, 1, 79, 102
3, 24216, Note_on_c, 1, 74, 0
3, 24240, Note_on_c, 1, 72, 105
3, 24245, Note_on_c, 1, 79, 0
3, 24270, Note_on_c, 1, 79, 85
3, 24276, Note_on_c, 1, 72, 0
3, 24300, Note_on_c, 1, 70, 107
3, 24305, Note_on_c, 1, 79, 0
3, 24330, Note_on_c, 1, 79, 82
3, 24351, Note_on_c, 1, 70, 0
3, 24357, Note_on_c, 1, 79, 0
3, 24360, Note_on_c, 1, 69, 87
3, 24390, Note_on_c, 1, 79, 98
3, 24396, Note_on_c, 1, 69, 0
3, 24420, Note_on_c, 1, 70, 102
3, 24425, Note_on_c, 1, 79, 0
3, 24450, Note_on_c, 1, 79, 89
3, 24455, Note_on_c, 1, 70, 0
3, 24480, Note_on_c, 1, 72, 95
3, 24482, Note_on_c, 1, 79, 0
3, 24510, Note_on_c, 1, 77, 91
3, 24518, Note_on_c, 1, 72, 0
3, 24540, Note_on_c, 1, 69, 70
3, 24541, Note_on_c, 1, 77, 0
3, 24570, Note_on_c, 1, 77, 102
3, 24578, Note_on_c, 1, 69, 0
3, 24600, Note_on_c, 1, 74, 95
3, 24605, Note_on_c, 1, 77, 0
3, 24630, Note_on_c, 1, 77, 98
3, 24637, Note_on_c, 1, 74, 0
3, 24660, Note_on_c, 1, 72, 98
3, 24666, Note_on_c, 1, 77, 0
3, 24690, Note_on_c, 1, 77, 76
3, 24697, Note_on_c, 1, 72, 0
3, 24720, Note_on_c, 1, 70, 107
3, 24725, Note_on_c, 1, 77, 0
3, 24750, Note_on_c, 1, 77, 91
3, 24756, Note_on_c, 1, 70, 0
3, 24780, Note_on_c, 1, 69, 98
3, 24783, Note_on_c, 1, 77, 0
3, 24810, Note_on_c, 1, 77, 91
3, 24816, Note_on_c, 1, 69, 0
3, 24840, Note_on_c, 1, 67, 82
3, 24844, Note_on_c, 1, 77, 0
3, 24870, Note_on_c, 1, 77, 89
3, 24879, Note_on_c, 1, 67, 0
3, 24900, Note_on_c, 1, 69, 95
3, 24908, Note_on_c, 1, 77, 0
3, 24930, Note_on_c, 1, 77, 85
3, 24951, Note_on_c, 1, 69, 0
3, 24960, Note_on_c, 1, 70, 98
3, 24964, Note_on_c, 1, 77, 0
3, 24990, Note_on_c, 1, 76, 85
3, 25017, Note_on_c, 1, 70, 0
3, 25020, Note_on_c, 1, 67, 85
3, 25021, Note_on_c, 1, 76, 0
3, 25050, Note_on_c, 1, 76, 100
3, 25054, Note_on_c, 1, 67, 0
3, 25080, Note_on_c, 1, 73, 107
3, 25086, Note_on_c, 1, 76, 0
3, 25110, Note_on_c, 1, 76, 80
3, 25119, Note_on_c, 1, 73, 0
3, 25140, Note_on_c, 1, 70, 105
3, 25146, Note_on_c, 1, 76, 0
3, 25170, Note_on_c, 1, 76, 91
3, 25173, Note_on_c, 1, 70, 0
3, 25200, Note_on_c, 1, 69, 102
3, 25204, Note_on_c, 1, 76, 0
3, 25230, Note_on_c, 1, 76, 98
3, 25255, Note_on_c, 1, 69, 0
3, 25260, Note_on_c, 1, 67, 82
3, 25264, Note_on_c, 1, 76, 0
3, 25290, Note_on_c, 1, 76, 89
3, 25320, Note_on_c, 1, 65, 87
3, 25320, Note_on_c, 1, 67, 0
3, 25322, Note_on_c, 1, 76, 0
3, 25350, Note_on_c, 1, 76, 93
3, 25370, Note_on_c, 1, 65, 0
3, 25380, Note_on_c, 1, 67, 102
3, 25383, Note_on_c, 1, 76, 0
3, 25410, Note_on_c, 1, 76, 85
3, 25413, Note_on_c, 1, 67, 0
3, 25440, Note_on_c, 1, 69, 98
3, 25443, Note_on_c, 1, 76, 0
3, 25470, Note_on_c, 1, 74, 95
3, 25476, Note_on_c, 1, 69, 0
3, 25500, Note_on_c, 1, 65, 85
3, 25506, Note_on_c, 1, 74, 0
3, 25530, Note_on_c, 1, 74, 89
3, 25542, Note_on_c, 1, 65, 0
3, 25560, Note_on_c, 1, 64, 87
3, 25573, Note_on_c, 1, 74, 0
3, 25590, Note_on_c, 1, 76, 100
3, 25595, Note_on_c, 1, 64, 0
3, 25620, Note_on_c, 1, 64, 89
3, 25627, Note_on_c, 1, 76, 0
3, 25650, Note_on_c, 1, 76, 100
3, 25657, Note_on_c, 1, 64, 0
3, 25680, Note_on_c, 1, 65, 87
3, 25684, Note_on_c, 1, 76, 0
3, 25710, Note_on_c, 1, 74, 100
3, 25716, Note_on_c, 1, 65, 0
3, 25740, Note_on_c, 1, 65, 85
3, 25746, Note_on_c, 1, 74, 0
3, 25770, Note_on_c, 1, 74, 100
3, 25780, Note_on_c, 1, 65, 0
3, 25800, Note_on_c, 1, 70, 100
3, 25810, Note_on_c, 1, 74, 0
3, 25830, Note_on_c, 1, 73, 87
3, 25837, Note_on_c, 1, 70, 0
3, 25860, Note_on_c, 1, 70, 102
3, 25866, Note_on_c, 1, 73, 0
3, 25890, Note_on_c, 1, 73, 100
3, 25896, Note_on_c, 1, 70, 0
3, 25920, Note_on_c, 1, 69, 89
3, 25921, Note_on_c, 1, 73, 0
3, 25950, Note_on_c, 1, 74, 82
3, 25955, Note_on_c, 1, 69, 0
3, 25980, Note_on_c, 1, 65, 85
3, 25984, Note_on_c, 1, 74, 0
3, 26010, Note_on_c, 1, 74, 93
3, 26019, Note_on_c, 1, 65, 0
3, 26040, Note_on_c, 1, 64, 82
3, 26045, Note_on_c, 1, 74, 0
3, 26070, Note_on_c, 1, 76, 100
3, 26073, Note_on_c, 1, 64, 0
3, 26100, Note_on_c, 1, 64, 87
3, 26106, Note_on_c, 1, 76, 0
3, 26130, Note_on_c, 1, 76, 98
3, 26137, Note_on_c, 1, 64, 0
3, 26160, Note_on_c, 1, 65, 87
3, 26168, Note_on_c, 1, 76, 0
3, 26190, Note_on_c, 1, 74, 102
3, 26195, Note_on_c, 1, 65, 0
3, 26220, Note_on_c, 1, 65, 93
3, 26224, Note_on_c, 1, 74, 0
3, 26250, Note_on_c, 1, 74, 107
3, 26253, Note_on_c, 1, 65, 0
3, 26283, Note_on_c, 1, 74, 0
3, 26310, Note_on_c, 1, 74, 95
3, 26339, Note_on_c, 1, 74, 0
3, 26340, Note_on_c, 1, 73, 98
3, 26369, Note_on_c, 1, 73, 0
3, 26370, Note_on_c, 1, 74, 85
3, 26399, Note_on_c, 1, 74, 0
3, 26400, Note_on_c, 1, 71, 105
3, 26429, Note_on_c, 1, 71, 0
3, 26430, Note_on_c, 1, 74, 89
3, 26459, Note_on_c, 1, 74, 0
3, 26460, Note_on_c, 1, 73, 100
3, 26489, Note_on_c, 1, 73, 0
3, 26490, Note_on_c, 1, 71, 98
3, 26519, Note_on_c, 1, 71, 0
3, 26520, Note_on_c, 1, 73, 110
3, 26550, Note_on_c, 1, 69, 82
3, 26579, Note_on_c, 1, 69, 0
3, 26580, Note_on_c, 1, 67, 85
3, 26609, Note_on_c, 1, 67, 0
3, 26610, Note_on_c, 1, 69, 82
3, 26639, Note_on_c, 1, 69, 0
3, 26639, Note_on_c, 1, 73, 0
3, 26640, Note_on_c, 1, 64, 100
3, 26669, Note_on_c, 1, 64, 0
3, 26670, Note_on_c, 1, 67, 102
3, 26699, Note_on_c, 1, 67, 0
3, 26700, Note_on_c, 1, 65, 102
3, 26729, Note_on_c, 1, 65, 0
3, 26730, Note_on_c, 1, 64, 82
3, 26759, Note_on_c, 1, 64, 0
3, 26760, Note_on_c, 1, 65, 102
3, 26790, Note_on_c, 1, 74, 102
3, 26819, Note_on_c, 1, 74, 0
3, 26820, Note_on_c, 1, 73, 102
3, 26849, Note_on_c, 1, 73, 0
3, 26850, Note_on_c, 1, 74, 105
3, 26879, Note_on_c, 1, 74, 0
3, 26879, Note_on_c, 1, 65, 0
3, 26880, Note_on_c, 1, 62, 87
3, 26880, Note_on_c, 1, 77, 102
3, 26909, Note_on_c, 1, 77, 0
3, 26910, Note_on_c, 1, 74, 100
3, 26939, Note_on_c, 1, 74, 0
3, 26940, Note_on_c, 1, 73, 110
3, 26969, Note_on_c, 1, 73, 0
3, 26970, Note_on_c, 1, 74, 100
3, 26999, Note_on_c, 1, 74, 0
3, 26999, Note_on_c, 1, 62, 0
3, 27000, Note_on_c, 1, 57, 85
3, 27000, Note_on_c, 1, 73, 110
3, 27029, Note_on_c, 1, 57, 0
3, 27030, Note_on_c, 1, 69, 68
3, 27059, Note_on_c, 1, 69, 0
3, 27060, Note_on_c, 1, 67, 87
3, 27089, Note_on_c, 1, 67, 0
3, 27090, Note_on_c, 1, 69, 87
3, 27119, Note_on_c, 1, 69, 0
3, 27119, Note_on_c, 1, 73, 0
3, 27120, Note_on_c, 1, 76, 89
3, 27120, Note_on_c, 1, 61, 72
3, 27149, Note_on_c, 1, 61, 0
3, 27150, Note_on_c, 1, 67, 91
3, 27179, Note_on_c, 1, 67, 0
3, 27180, Note_on_c, 1, 65, 68
3, 27209, Note_on_c, 1, 65, 0
3, 27210, Note_on_c, 1, 64, 100
3, 27239, Note_on_c, 1, 64, 0
3, 27240, Note_on_c, 1, 65, 105
3, 27270, Note_on_c, 1, 62, 100
3, 27299, Note_on_c, 1, 76, 0
3, 27300, Note_on_c, 1, 61, 100
3, 27300, Note_on_c, 1, 74, 105
3, 27303, Note_on_c, 1, 62, 0
3, 27330, Note_on_c, 1, 62, 98
3, 27333, Note_on_c, 1, 61, 0
3, 27359, Note_on_c, 1, 65, 0
3, 27360, Note_on_c, 1, 57, 95
3, 27360, Note_on_c, 1, 64, 85
3, 27364, Note_on_c, 1, 62, 0
3, 27385, Note_on_c, 1, 57, 0
3, 27390, Note_on_c, 1, 57, 102
3, 27419, Note_on_c, 1, 74, 0
3, 27420, Note_on_c, 1, 55, 107
3, 27420, Note_on_c, 1, 73, 113
3, 27424, Note_on_c, 1, 57, 0
3, 27450, Note_on_c, 1, 57, 87
3, 27453, Note_on_c, 1, 55, 0
3, 27479, Note_on_c, 1, 73, 0
3, 27479, Note_on_c, 1, 64, 0
3, 27480, Note_on_c, 1, 54, 102
3, 27480, Note_on_c, 1, 62, 85
3, 27480, Note_on_c, 1, 72, 89
3, 27484, Note_on_c, 1, 57, 0
3, 27502, Note_on_c, 1, 54, 0
3, 27510, Note_on_c, 1, 62, 107
3, 27539, Note_on_c, 1, 62, 0
3, 27540, Note_on_c, 1, 61, 98
3, 27540, Note_on_c, 1, 69, 87
3, 27545, Note_on_c, 1, 62, 0
3, 27570, Note_on_c, 1, 62, 91
3, 27573, Note_on_c, 1, 61, 0
3, 27599, Note_on_c, 1, 72, 0
3, 27600, Note_on_c, 1, 55, 72
3, 27600, Note_on_c, 1, 70, 107
3, 27602, Note_on_c, 1, 62, 0
3, 27630, Note_on_c, 1, 65, 95
3, 27633, Note_on_c, 1, 55, 0
3, 27659, Note_on_c, 1, 69, 0
3, 27660, Note_on_c, 1, 63, 89
3, 27660, Note_on_c, 1, 67, 98
3, 27668, Note_on_c, 1, 65, 0
3, 27690, Note_on_c, 1, 62, 87
3, 27694, Note_on_c, 1, 63, 0
3, 27719, Note_on_c, 1, 70, 0
3, 27720, Note_on_c, 1, 61, 105
3, 27720, Note_on_c, 1, 69, 95
3, 27722, Note_on_c, 1, 62, 0
3, 27750, Note_on_c, 1, 64, 87
3, 27750, Note_on_c, 1, 61, 0
3, 27780, Note_on_c, 1, 57, 85
3, 27784, Note_on_c, 1, 64, 0
3, 27810, Note_on_c, 1, 61, 89
3, 27817, Note_on_c, 1, 57, 0
3, 27838, Note_on_c, 1, 61, 0
3, 27839, Note_on_c, 1, 67, 0
3, 27839, Note_on_c, 1, 69, 0
3, 27840, Note_on_c, 1, 50, 102
3, 27840, Note_on_c, 1, 69, 82
3, 27840, Note_on_c, 1, 66, 85
3, 27870, Note_on_c, 1, 63, 91
3, 27873, Note_on_c, 1, 50, 0
3, 27900, Note_on_c, 1, 62, 85
3, 27904, Note_on_c, 1, 63, 0
3, 27930, Note_on_c, 1, 60, 91
3, 27936, Note_on_c, 1, 62, 0
3, 27959, Note_on_c, 1, 69, 0
3, 27959, Note_on_c, 1, 66, 0
3, 27960, Note_on_c, 1, 59, 105
3, 27960, Note_on_c, 1, 67, 87
3, 27960, Note_on_c, 1, 65, 66
3, 27965, Note_on_c, 1, 60, 0
3, 27990, Note_on_c, 1, 62, 89
3, 27992, Note_on_c, 1, 59, 0
3, 28020, Note_on_c, 1, 55, 87
3, 28020, Note_on_c, 1, 62, 0
3, 28050, Note_on_c, 1, 59, 91
3, 28053, Note_on_c, 1, 55, 0
3, 28079, Note_on_c, 1, 65, 0
3, 28079, Note_on_c, 1, 67, 0
3, 28079, Note_on_c, 1, 59, 0
3, 28080, Note_on_c, 1, 48, 102
3, 28080, Note_on_c, 1, 67, 100
3, 28080, Note_on_c, 1, 63, 89
3, 28110, Note_on_c, 1, 62, 98
3, 28117, Note_on_c, 1, 48, 0
3, 28140, Note_on_c, 1, 60, 89
3, 28147, Note_on_c, 1, 62, 0
3, 28170, Note_on_c, 1, 58, 102
3, 28177, Note_on_c, 1, 60, 0
3, 28199, Note_on_c, 1, 67, 0
3, 28200, Note_on_c, 1, 57, 98
3, 28200, Note_on_c, 1, 66, 100
3, 28205, Note_on_c, 1, 58, 0
3, 28230, Note_on_c, 1, 60, 66
3, 28231, Note_on_c, 1, 57, 0
3, 28257, Note_on_c, 1, 60, 0
3, 28259, Note_on_c, 1, 63, 0
3, 28259, Note_on_c, 1, 66, 0
3, 28260, Note_on_c, 1, 54, 100
3, 28260, Note_on_c, 1, 69, 80
3, 28260, Note_on_c, 1, 62, 85
3, 28290, Note_on_c, 1, 60, 95
3, 28292, Note_on_c, 1, 54, 0
3, 28319, Note_on_c, 1, 62, 0
3, 28320, Note_on_c, 1, 50, 107
3, 28320, Note_on_c, 1, 66, 78
3, 28323, Note_on_c, 1, 60, 0
3, 28350, Note_on_c, 1, 60, 91
3, 28360, Note_on_c, 1, 50, 0
3, 28379, Note_on_c, 1, 66, 0
3, 28379, Note_on_c, 1, 69, 0
3, 28380, Note_on_c, 1, 58, 98
3, 28380, Note_on_c, 1, 72, 87
3, 28380, Note_on_c, 1, 75, 82
3, 28391, Note_on_c, 1, 60, 0
3, 28410, Note_on_c, 1, 57, 91
3, 28422, Note_on_c, 1, 58, 0
3, 28433, Note_on_c, 1, 57, 0
3, 28439, Note_on_c, 1, 75, 0
3, 28440, Note_on_c, 1, 58, 105
3, 28440, Note_on_c, 1, 74, 82
3, 28470, Note_on_c, 1, 69, 93
3, 28476, Note_on_c, 1, 58, 0
3, 28499, Note_on_c, 1, 72, 0
3, 28500, Note_on_c, 1, 67, 98
3, 28500, Note_on_c, 1, 70, 87
3, 28505, Note_on_c, 1, 69, 0
3, 28529, Note_on_c, 1, 70, 0
3, 28530, Note_on_c, 1, 66, 105
3, 28530, Note_on_c, 1, 69, 82
3, 28534, Note_on_c, 1, 67, 0
3, 28559, Note_on_c, 1, 69, 0
3, 28560, Note_on_c, 1, 67, 100
3, 28560, Note_on_c, 1, 70, 110
3, 28566, Note_on_c, 1, 66, 0
3, 28589, Note_on_c, 1, 74, 0
3, 28590, Note_on_c, 1, 58, 85
3, 28597, Note_on_c, 1, 67, 0
3, 28619, Note_on_c, 1, 70, 0
3, 28620, Note_on_c, 1, 57, 82
3, 28620, Note_on_c, 1, 79, 102
3, 28620, Note_on_c, 1, 70, 100
3, 28627, Note_on_c, 1, 58, 0
3, 28650, Note_on_c, 1, 55, 85
3, 28654, Note_on_c, 1, 57, 0
3, 28679, Note_on_c, 1, 70, 0
3, 28680, Note_on_c, 1, 62, 100
3, 28680, Note_on_c, 1, 69, 80
3, 28684, Note_on_c, 1, 55, 0
3, 28739, Note_on_c, 1, 79, 0
3, 28740, Note_on_c, 1, 78, 102
3, 28786, Note_on_c, 1, 62, 0
3, 28799, Note_on_c, 1, 78, 0
3, 28799, Note_on_c, 1, 69, 0
3, 28800, Note_on_c, 1, 79, 82
3, 28800, Note_on_c, 1, 74, 74
3, 28859, Note_on_c, 1, 74, 0
3, 28860, Note_on_c, 1, 62, 100
3, 28860, Note_on_c, 1, 72, 107
3, 28912, Note_on_c, 1, 62, 0
3, 28919, Note_on_c, 1, 72, 0
3, 28919, Note_on_c, 1, 79, 0
3, 28920, Note_on_c, 1, 62, 100
3, 28920, Note_on_c, 1, 70, 95
3, 28973, Note_on_c, 1, 62, 0
3, 28979, Note_on_c, 1, 70, 0
3, 28980, Note_on_c, 1, 62, 85
3, 28980, Note_on_c, 1, 74, 85
3, 28980, Note_on_c, 1, 69, 82
3, 29028, Note_on_c, 1, 62, 0
3, 29039, Note_on_c, 1, 69, 0
3, 29040, Note_on_c, 1, 62, 100
3, 29040, Note_on_c, 1, 70, 110
3, 29099, Note_on_c, 1, 70, 0
3, 29099, Note_on_c, 1, 74, 0
3, 29100, Note_on_c, 1, 60, 100
3, 29100, Note_on_c, 1, 74, 93
3, 29100, Note_on_c, 1, 66, 95
3, 29100, Note_on_c, 1, 62, 0
3, 29159, Note_on_c, 1, 66, 0
3, 29159, Note_on_c, 1, 74, 0
3, 29160, Note_on_c, 1, 58, 107
3, 29160, Note_on_c, 1, 67, 85
3, 29160, Note_on_c, 1, 74, 87
3, 29163, Note_on_c, 1, 60, 0
3, 29219, Note_on_c, 1, 74, 0
3, 29219, Note_on_c, 1, 67, 0
3, 29220, Note_on_c, 1, 62, 105
3, 29220, Note_on_c, 1, 66, 87
3, 29220, Note_on_c, 1, 74, 87
3, 29223, Note_on_c, 1, 58, 0
3, 29272, Note_on_c, 1, 62, 0
3, 29279, Note_on_c, 1, 66, 0
3, 29279, Note_on_c, 1, 74, 0
3, 29280, Note_on_c, 1, 62, 102
3, 29280, Note_on_c, 1, 67, 89
3, 29280, Note_on_c, 1, 74, 89
3, 29339, Note_on_c, 1, 74, 0
3, 29339, Note_on_c, 1, 67, 0
3, 29340, Note_on_c, 1, 60, 102
3, 29340, Note_on_c, 1, 74, 89
3, 29340, Note_on_c, 1, 69, 98
3, 29344, Note_on_c, 1, 62, 0
3, 29399, Note_on_c, 1, 69, 0
3, 29399, Note_on_c, 1, 74, 0
3, 29400, Note_on_c, 1, 58, 105
3, 29400, Note_on_c, 1, 70, 95
3, 29400, Note_on_c, 1, 74, 87
3, 29405, Note_on_c, 1, 60, 0
3, 29458, Note_on_c, 1, 58, 0
3, 29459, Note_on_c, 1, 70, 0
3, 29460, Note_on_c, 1, 62, 98
3, 29460, Note_on_c, 1, 69, 102
3, 29513, Note_on_c, 1, 62, 0
3, 29519, Note_on_c, 1, 69, 0
3, 29519, Note_on_c, 1, 74, 0
3, 29520, Note_on_c, 1, 62, 98
3, 29520, Note_on_c, 1, 74, 91
3, 29520, Note_on_c, 1, 70, 91
3, 29579, Note_on_c, 1, 70, 0
3, 29579, Note_on_c, 1, 74, 0
3, 29580, Note_on_c, 1, 60, 100
3, 29580, Note_on_c, 1, 74, 89
3, 29580, Note_on_c, 1, 66, 82
3, 29581, Note_on_c, 1, 62, 0
3, 29639, Note_on_c, 1, 66, 0
3, 29639, Note_on_c, 1, 74, 0
3, 29640, Note_on_c, 1, 58, 110
3, 29640, Note_on_c, 1, 67, 78
3, 29640, Note_on_c, 1, 74, 98
3, 29644, Note_on_c, 1, 60, 0
3, 29669, Note_on_c, 1, 74, 0
3, 29669, Note_on_c, 1, 67, 0
3, 29670, Note_on_c, 1, 79, 82
3, 29670, Note_on_c, 1, 70, 63
3, 29699, Note_on_c, 1, 70, 0
3, 29699, Note_on_c, 1, 79, 0
3, 29700, Note_on_c, 1, 69, 78
3, 29700, Note_on_c, 1, 77, 102
3, 29729, Note_on_c, 1, 77, 0
3, 29729, Note_on_c, 1, 69, 0
3, 29730, Note_on_c, 1, 70, 91
3, 29730, Note_on_c, 1, 79, 100
3, 29750, Note_on_c, 1, 58, 0
3, 29759, Note_on_c, 1, 79, 0
3, 29759, Note_on_c, 1, 70, 0
3, 29760, Note_on_c, 1, 76, 113
3, 29760, Note_on_c, 1, 67, 74
3, 29789, Note_on_c, 1, 67, 0
3, 29789, Note_on_c, 1, 76, 0
3, 29790, Note_on_c, 1, 69, 85
3, 29790, Note_on_c, 1, 77, 95
3, 29819, Note_on_c, 1, 77, 0
3, 29819, Note_on_c, 1, 69, 0
3, 29820, Note_on_c, 1, 65, 68
3, 29820, Note_on_c, 1, 74, 105
3, 29849, Note_on_c, 1, 74, 0
3, 29850, Note_on_c, 1, 67, 80
3, 29850, Note_on_c, 1, 76, 91
3, 29879, Note_on_c, 1, 76, 0
3, 29879, Note_on_c, 1, 67, 0
3, 29879, Note_on_c, 1, 65, 0
3, 29880, Note_on_c, 1, 64, 85
3, 29880, Note_on_c, 1, 72, 93
3, 29909, Note_on_c, 1, 64, 0
3, 29910, Note_on_c, 1, 81, 95
3, 29939, Note_on_c, 1, 81, 0
3, 29939, Note_on_c, 1, 72, 0
3, 29940, Note_on_c, 1, 70, 87
3, 29940, Note_on_c, 1, 79, 91
3, 29969, Note_on_c, 1, 79, 0
3, 29969, Note_on_c, 1, 70, 0
3, 29970, Note_on_c, 1, 81, 89
3, 29970, Note_on_c, 1, 72, 82
3, 29999, Note_on_c, 1, 72, 0
3, 29999, Note_on_c, 1, 81, 0
3, 30000, Note_on_c, 1, 69, 87
3, 30000, Note_on_c, 1, 77, 110
3, 30029, Note_on_c, 1, 77, 0
3, 30029, Note_on_c, 1, 69, 0
3, 30030, Note_on_c, 1, 79, 89
3, 30030, Note_on_c, 1, 70, 89
3, 30059, Note_on_c, 1, 70, 0
3, 30059, Note_on_c, 1, 79, 0
3, 30060, Note_on_c, 1, 76, 105
3, 30060, Note_on_c, 1, 67, 72
3, 30089, Note_on_c, 1, 67, 0
3, 30089, Note_on_c, 1, 76, 0
3, 30090, Note_on_c, 1, 77, 89
3, 30090, Note_on_c, 1, 69, 80
3, 30119, Note_on_c, 1, 69, 0
3, 30119, Note_on_c, 1, 77, 0
3, 30120, Note_on_c, 1, 65, 82
3, 30120, Note_on_c, 1, 74, 87
3, 30149, Note_on_c, 1, 74, 0
3, 30149, Note_on_c, 1, 65, 0
3, 30150, Note_on_c, 1, 82, 87
3, 30150, Note_on_c, 1, 74, 78
3, 30179, Note_on_c, 1, 74, 0
3, 30179, Note_on_c, 1, 82, 0
3, 30180, Note_on_c, 1, 81, 85
3, 30180, Note_on_c, 1, 72, 72
3, 30209, Note_on_c, 1, 72, 0
3, 30209, Note_on_c, 1, 81, 0
3, 30210, Note_on_c, 1, 82, 98
3, 30210, Note_on_c, 1, 74, 85
3, 30239, Note_on_c, 1, 74, 0
3, 30239, Note_on_c, 1, 82, 0
3, 30240, Note_on_c, 1, 79, 95
3, 30240, Note_on_c, 1, 70, 102
3, 30269, Note_on_c, 1, 70, 0
3, 30269, Note_on_c, 1, 79, 0
3, 30270, Note_on_c, 1, 81, 89
3, 30270, Note_on_c, 1, 72, 82
3, 30299, Note_on_c, 1, 72, 0
3, 30299, Note_on_c, 1, 81, 0
3, 30300, Note_on_c, 1, 77, 102
3, 30300, Note_on_c, 1, 69, 85
3, 30329, Note_on_c, 1, 69, 0
3, 30329, Note_on_c, 1, 77, 0
3, 30330, Note_on_c, 1, 79, 93
3, 30330, Note_on_c, 1, 70, 98
3, 30359, Note_on_c, 1, 70, 0
3, 30359, Note_on_c, 1, 79, 0
3, 30360, Note_on_c, 1, 67, 80
3, 30360, Note_on_c, 1, 76, 85
3, 30389, Note_on_c, 1, 76, 0
3, 30389, Note_on_c, 1, 67, 0
3, 30390, Note_on_c, 1, 84, 100
3, 30390, Note_on_c, 1, 76, 74
3, 30419, Note_on_c, 1, 76, 0
3, 30419, Note_on_c, 1, 84, 0
3, 30420, Note_on_c, 1, 82, 93
3, 30420, Note_on_c, 1, 74, 91
3, 30449, Note_on_c, 1, 74, 0
3, 30449, Note_on_c, 1, 82, 0
3, 30450, Note_on_c, 1, 84, 95
3, 30450, Note_on_c, 1, 76, 87
3, 30479, Note_on_c, 1, 76, 0
3, 30479, Note_on_c, 1, 84, 0
3, 30480, Note_on_c, 1, 81, 95
3, 30480, Note_on_c, 1, 72, 74
3, 30509, Note_on_c, 1, 72, 0
3, 30509, Note_on_c, 1, 81, 0
3, 30510, Note_on_c, 1, 82, 95
3, 30510, Note_on_c, 1, 74, 68
3, 30539, Note_on_c, 1, 74, 0
3, 30539, Note_on_c, 1, 82, 0
3, 30540, Note_on_c, 1, 79, 89
3, 30540, Note_on_c, 1, 70, 82
3, 30569, Note_on_c, 1, 70, 0
3, 30569, Note_on_c, 1, 79, 0
3, 30570, Note_on_c, 1, 81, 100
3, 30570, Note_on_c, 1, 72, 87
3, 30599, Note_on_c, 1, 72, 0
3, 30599, Note_on_c, 1, 81, 0
3, 30600, Note_on_c, 1, 77, 98
3, 30600, Note_on_c, 1, 69, 70
3, 30629, Note_on_c, 1, 77, 0
3, 30630, Note_on_c, 1, 75, 102
3, 30659, Note_on_c, 1, 75, 0
3, 30659, Note_on_c, 1, 69, 0
3, 30660, Note_on_c, 1, 74, 98
3, 30660, Note_on_c, 1, 65, 72
3, 30689, Note_on_c, 1, 74, 0
3, 30690, Note_on_c, 1, 72, 82
3, 30719, Note_on_c, 1, 72, 0
3, 30719, Note_on_c, 1, 65, 0
3, 30720, Note_on_c, 1, 70, 80
3, 30720, Note_on_c, 1, 74, 80
3, 30749, Note_on_c, 1, 74, 0
3, 30749, Note_on_c, 1, 70, 0
3, 30750, Note_on_c, 1, 69, 68
3, 30750, Note_on_c, 1, 72, 85
3, 30779, Note_on_c, 1, 72, 0
3, 30779, Note_on_c, 1, 69, 0
3, 30780, Note_on_c, 1, 70, 105
3, 30780, Note_on_c, 1, 67, 78
3, 30809, Note_on_c, 1, 67, 0
3, 30809, Note_on_c, 1, 70, 0
3, 30810, Note_on_c, 1, 65, 93
3, 30810, Note_on_c, 1, 69, 95
3, 30839, Note_on_c, 1, 69, 0
3, 30839, Note_on_c, 1, 65, 0
3, 30840, Note_on_c, 1, 70, 110
3, 30840, Note_on_c, 1, 67, 91
3, 30869, Note_on_c, 1, 67, 0
3, 30869, Note_on_c, 1, 70, 0
3, 30870, Note_on_c, 1, 74, 100
3, 30870, Note_on_c, 1, 70, 95
3, 30899, Note_on_c, 1, 70, 0
3, 30899, Note_on_c, 1, 74, 0
3, 30900, Note_on_c, 1, 67, 102
3, 30900, Note_on_c, 1, 70, 116
3, 30929, Note_on_c, 1, 70, 0
3, 30929, Note_on_c, 1, 67, 0
3, 30930, Note_on_c, 1, 65, 102
3, 30930, Note_on_c, 1, 69, 91
3, 30959, Note_on_c, 1, 69, 0
3, 30959, Note_on_c, 1, 65, 0
3, 30960, Note_on_c, 1, 64, 85
3, 30960, Note_on_c, 1, 67, 87
3, 30989, Note_on_c, 1, 67, 0
3, 30989, Note_on_c, 1, 64, 0
3, 30990, Note_on_c, 1, 67, 91
3, 30990, Note_on_c, 1, 70, 102
3, 31019, Note_on_c, 1, 70, 0
3, 31019, Note_on_c, 1, 67, 0
3, 31020, Note_on_c, 1, 67, 82
3, 31020, Note_on_c, 1, 64, 87
3, 31049, Note_on_c, 1, 64, 0
3, 31049, Note_on_c, 1, 67, 0
3, 31050, Note_on_c, 1, 62, 87
3, 31050, Note_on_c, 1, 65, 76
3, 31079, Note_on_c, 1, 65, 0
3, 31079, Note_on_c, 1, 62, 0
3, 31080, Note_on_c, 1, 60, 80
3, 31080, Note_on_c, 1, 64, 100
3, 31109, Note_on_c, 1, 64, 0
3, 31109, Note_on_c, 1, 60, 0
3, 31110, Note_on_c, 1, 62, 87
3, 31110, Note_on_c, 1, 65, 91
3, 31139, Note_on_c, 1, 65, 0
3, 31139, Note_on_c, 1, 62, 0
3, 31140, Note_on_c, 1, 67, 100
3, 31140, Note_on_c, 1, 64, 102
3, 31169, Note_on_c, 1, 64, 0
3, 31169, Note_on_c, 1, 67, 0
3, 31170, Note_on_c, 1, 69, 100
3, 31170, Note_on_c, 1, 65, 95
3, 31199, Note_on_c, 1, 65, 0
3, 31199, Note_on_c, 1, 69, 0
3, 31200, Note_on_c, 1, 70, 105
3, 31200, Note_on_c, 1, 67, 87
3, 31229, Note_on_c, 1, 70, 0
3, 31230, Note_on_c, 1, 74, 91
3, 31259, Note_on_c, 1, 74, 0
3, 31259, Note_on_c, 1, 67, 0
3, 31260, Note_on_c, 1, 72, 100
3, 31260, Note_on_c, 1, 64, 82
3, 31289, Note_on_c, 1, 72, 0
3, 31290, Note_on_c, 1, 70, 107
3, 31319, Note_on_c, 1, 70, 0
3, 31319, Note_on_c, 1, 64, 0
3, 31320, Note_on_c, 1, 69, 107
3, 31320, Note_on_c, 1, 65, 98
3, 31350, Note_on_c, 1, 60, 100
3, 31379, Note_on_c, 1, 60, 0
3, 31380, Note_on_c, 1, 58, 100
3, 31409, Note_on_c, 1, 58, 0
3, 31410, Note_on_c, 1, 60, 91
3, 31439, Note_on_c, 1, 60, 0
3, 31439, Note_on_c, 1, 65, 0
3, 31439, Note_on_c, 1, 69, 0
3, 31440, Note_on_c, 1, 57, 100
3, 31440, Note_on_c, 1, 72, 82
3, 31469, Note_on_c, 1, 57, 0
3, 31470, Note_on_c, 1, 60, 91
3, 31499, Note_on_c, 1, 60, 0
3, 31499, Note_on_c, 1, 72, 0
3, 31500, Note_on_c, 1, 55, 102
3, 31500, Note_on_c, 1, 70, 85
3, 31529, Note_on_c, 1, 55, 0
3, 31530, Note_on_c, 1, 60, 100
3, 31559, Note_on_c, 1, 60, 0
3, 31559, Note_on_c, 1, 70, 0
3, 31560, Note_on_c, 1, 53, 100
3, 31560, Note_on_c, 1, 69, 85
3, 31589, Note_on_c, 1, 53, 0
3, 31590, Note_on_c, 1, 60, 87
3, 31619, Note_on_c, 1, 60, 0
3, 31619, Note_on_c, 1, 69, 0
3, 31620, Note_on_c, 1, 52, 102
3, 31620, Note_on_c, 1, 67, 85
3, 31650, Note_on_c, 1, 60, 85
3, 31679, Note_on_c, 1, 60, 0
3, 31679, Note_on_c, 1, 67, 0
3, 31679, Note_on_c, 1, 52, 0
3, 31680, Note_on_c, 1, 53, 105
3, 31680, Note_on_c, 1, 69, 102
3, 31709, Note_on_c, 1, 53, 0
3, 31710, Note_on_c, 1, 60, 95
3, 31739, Note_on_c, 1, 60, 0
3, 31739, Note_on_c, 1, 69, 0
3, 31740, Note_on_c, 1, 55, 102
3, 31740, Note_on_c, 1, 70, 89
3, 31769, Note_on_c, 1, 55, 0
3, 31770, Note_on_c, 1, 60, 100
3, 31799, Note_on_c, 1, 60, 0
3, 31799, Note_on_c, 1, 70, 0
3, 31800, Note_on_c, 1, 57, 98
3, 31800, Note_on_c, 1, 72, 85
3, 31829, Note_on_c, 1, 57, 0
3, 31830, Note_on_c, 1, 60, 100
3, 31859, Note_on_c, 1, 60, 0
3, 31859, Note_on_c, 1, 72, 0
3, 31860, Note_on_c, 1, 48, 70
3, 31860, Note_on_c, 1, 64, 74
3, 31889, Note_on_c, 1, 48, 0
3, 31890, Note_on_c, 1, 60, 98
3, 31919, Note_on_c, 1, 60, 0
3, 31919, Note_on_c, 1, 64, 0
3, 31920, Note_on_c, 1, 50, 85
3, 31920, Note_on_c, 1, 65, 87
3, 31949, Note_on_c, 1, 50, 0
3, 31950, Note_on_c, 1, 60, 100
3, 31979, Note_on_c, 1, 60, 0
3, 31979, Note_on_c, 1, 65, 0
3, 31980, Note_on_c, 1, 52, 85
3, 31980, Note_on_c, 1, 67, 95
3, 32009, Note_on_c, 1, 52, 0
3, 32010, Note_on_c, 1, 60, 89
3, 32039, Note_on_c, 1, 60, 0
3, 32039, Note_on_c, 1, 67, 0
3, 32040, Note_on_c, 1, 53, 89
3, 32040, Note_on_c, 1, 69, 87
3, 32069, Note_on_c, 1, 53, 0
3, 32070, Note_on_c, 1, 60, 87
3, 32099, Note_on_c, 1, 60, 0
3, 32099, Note_on_c, 1, 69, 0
3, 32100, Note_on_c, 1, 52, 78
3, 32100, Note_on_c, 1, 67, 64
3, 32129, Note_on_c, 1, 52, 0
3, 32130, Note_on_c, 1, 60, 98
3, 32159, Note_on_c, 1, 60, 0
3, 32159, Note_on_c, 1, 67, 0
3, 32160, Note_on_c, 1, 53, 102
3, 32160, Note_on_c, 1, 69, 105
3, 32189, Note_on_c, 1, 53, 0
3, 32190, Note_on_c, 1, 60, 87
3, 32219, Note_on_c, 1, 60, 0
3, 32219, Note_on_c, 1, 69, 0
3, 32220, Note_on_c, 1, 55, 102
3, 32220, Note_on_c, 1, 70, 89
3, 32249, Note_on_c, 1, 55, 0
3, 32250, Note_on_c, 1, 60, 91
3, 32279, Note_on_c, 1, 60, 0
3, 32279, Note_on_c, 1, 70, 0
3, 32280, Note_on_c, 1, 57, 110
3, 32280, Note_on_c, 1, 72, 95
3, 32309, Note_on_c, 1, 72, 0
3, 32310, Note_on_c, 1, 70, 100
3, 32339, Note_on_c, 1, 70, 0
3, 32340, Note_on_c, 1, 69, 85
3, 32369, Note_on_c, 1, 69, 0
3, 32370, Note_on_c, 1, 67, 89
3, 32399, Note_on_c, 1, 67, 0
3, 32399, Note_on_c, 1, 57, 0
3, 32400, Note_on_c, 1, 65, 91
3, 32429, Note_on_c, 1, 65, 0
3, 32430, Note_on_c, 1, 63, 82
3, 32459, Note_on_c, 1, 63, 0
3, 32460, Note_on_c, 1, 62, 82
3, 32489, Note_on_c, 1, 62, 0
3, 32490, Note_on_c, 1, 60, 76
3, 32519, Note_on_c, 1, 60, 0
3, 32520, Note_on_c, 1, 58, 64
3, 32520, Note_on_c, 1, 74, 91
3, 32549, Note_on_c, 1, 74, 0
3, 32550, Note_on_c, 1, 72, 91
3, 32579, Note_on_c, 1, 72, 0
3, 32579, Note_on_c, 1, 58, 0
3, 32580, Note_on_c, 1, 70, 98
3, 32609, Note_on_c, 1, 70, 0
3, 32610, Note_on_c, 1, 69, 87
3, 32640, Note_on_c, 1, 67, 87
3, 32669, Note_on_c, 1, 67, 0
3, 32669, Note_on_c, 1, 69, 0
3, 32670, Note_on_c, 1, 65, 91
3, 32699, Note_on_c, 1, 65, 0
3, 32700, Note_on_c, 1, 64, 89
3, 32729, Note_on_c, 1, 64, 0
3, 32730, Note_on_c, 1, 62, 91
3, 32759, Note_on_c, 1, 62, 0
3, 32760, Note_on_c, 1, 60, 87
3, 32760, Note_on_c, 1, 76, 93
3, 32789, Note_on_c, 1, 76, 0
3, 32790, Note_on_c, 1, 74, 95
3, 32819, Note_on_c, 1, 74, 0
3, 32819, Note_on_c, 1, 60, 0
3, 32820, Note_on_c, 1, 72, 78
3, 32849, Note_on_c, 1, 72, 0
3, 32850, Note_on_c, 1, 70, 98
3, 32879, Note_on_c, 1, 70, 0
3, 32880, Note_on_c, 1, 69, 85
3, 32909, Note_on_c, 1, 69, 0
3, 32910, Note_on_c, 1, 67, 85
3, 32939, Note_on_c, 1, 67, 0
3, 32940, Note_on_c, 1, 65, 87
3, 32969, Note_on_c, 1, 65, 0
3, 32970, Note_on_c, 1, 64, 89
3, 32999, Note_on_c, 1, 64, 0
3, 33000, Note_on_c, 1, 77, 91
3, 33000, Note_on_c, 1, 62, 80
3, 33029, Note_on_c, 1, 77, 0
3, 33030, Note_on_c, 1, 76, 85
3, 33059, Note_on_c, 1, 76, 0
3, 33059, Note_on_c, 1, 62, 0
3, 33060, Note_on_c, 1, 74, 82
3, 33089, Note_on_c, 1, 74, 0
3, 33090, Note_on_c, 1, 72, 82
3, 33119, Note_on_c, 1, 72, 0
3, 33120, Note_on_c, 1, 70, 80
3, 33149, Note_on_c, 1, 70, 0
3, 33150, Note_on_c, 1, 69, 82
3, 33179, Note_on_c, 1, 69, 0
3, 33180, Note_on_c, 1, 67, 89
3, 33209, Note_on_c, 1, 67, 0
3, 33210, Note_on_c, 1, 65, 93
3, 33239, Note_on_c, 1, 65, 0
3, 33240, Note_on_c, 1, 79, 87
3, 33240, Note_on_c, 1, 64, 80
3, 33269, Note_on_c, 1, 79, 0
3, 33270, Note_on_c, 1, 77, 87
3, 33299, Note_on_c, 1, 77, 0
3, 33299, Note_on_c, 1, 64, 0
3, 33300, Note_on_c, 1, 76, 87
3, 33329, Note_on_c, 1, 76, 0
3, 33330, Note_on_c, 1, 74, 87
3, 33359, Note_on_c, 1, 74, 0
3, 33360, Note_on_c, 1, 72, 85
3, 33389, Note_on_c, 1, 72, 0
3, 33390, Note_on_c, 1, 70, 80
3, 33419, Note_on_c, 1, 70, 0
3, 33420, Note_on_c, 1, 69, 82
3, 33449, Note_on_c, 1, 69, 0
3, 33450, Note_on_c, 1, 67, 85
3, 33479, Note_on_c, 1, 67, 0
3, 33480, Note_on_c, 1, 81, 87
3, 33480, Note_on_c, 1, 65, 82
3, 33509, Note_on_c, 1, 81, 0
3, 33510, Note_on_c, 1, 77, 93
3, 33539, Note_on_c, 1, 77, 0
3, 33539, Note_on_c, 1, 65, 0
3, 33540, Note_on_c, 1, 76, 85
3, 33569, Note_on_c, 1, 76, 0
3, 33570, Note_on_c, 1, 77, 87
3, 33599, Note_on_c, 1, 77, 0
3, 33600, Note_on_c, 1, 72, 85
3, 33629, Note_on_c, 1, 72, 0
3, 33630, Note_on_c, 1, 77, 85
3, 33659, Note_on_c, 1, 77, 0
3, 33660, Note_on_c, 1, 76, 64
3, 33689, Note_on_c, 1, 76, 0
3, 33690, Note_on_c, 1, 77, 76
3, 33719, Note_on_c, 1, 77, 0
3, 33720, Note_on_c, 1, 81, 98
3, 33749, Note_on_c, 1, 81, 0
3, 33750, Note_on_c, 1, 77, 85
3, 33779, Note_on_c, 1, 77, 0
3, 33780, Note_on_c, 1, 76, 85
3, 33809, Note_on_c, 1, 76, 0
3, 33810, Note_on_c, 1, 77, 87
3, 33839, Note_on_c, 1, 77, 0
3, 33840, Note_on_c, 1, 72, 89
3, 33869, Note_on_c, 1, 72, 0
3, 33870, Note_on_c, 1, 77, 89
3, 33899, Note_on_c, 1, 77, 0
3, 33900, Note_on_c, 1, 76, 82
3, 33929, Note_on_c, 1, 76, 0
3, 33930, Note_on_c, 1, 77, 80
3, 33959, Note_on_c, 1, 77, 0
3, 33960, Note_on_c, 1, 79, 98
3, 33989, Note_on_c, 1, 79, 0
3, 33990, Note_on_c, 1, 76, 85
3, 34019, Note_on_c, 1, 76, 0
3, 34020, Note_on_c, 1, 74, 72
3, 34049, Note_on_c, 1, 74, 0
3, 34050, Note_on_c, 1, 76, 78
3, 34079, Note_on_c, 1, 76, 0
3, 34080, Note_on_c, 1, 72, 100
3, 34109, Note_on_c, 1, 72, 0
3, 34110, Note_on_c, 1, 76, 98
3, 34139, Note_on_c, 1, 76, 0
3, 34140, Note_on_c, 1, 74, 82
3, 34169, Note_on_c, 1, 74, 0
3, 34170, Note_on_c, 1, 76, 89
3, 34199, Note_on_c, 1, 76, 0
3, 34200, Note_on_c, 1, 79, 87
3, 34229, Note_on_c, 1, 79, 0
3, 34230, Note_on_c, 1, 76, 87
3, 34259, Note_on_c, 1, 76, 0
3, 34260, Note_on_c, 1, 74, 95
3, 34289, Note_on_c, 1, 74, 0
3, 34290, Note_on_c, 1, 76, 87
3, 34319, Note_on_c, 1, 76, 0
3, 34320, Note_on_c, 1, 72, 105
3, 34349, Note_on_c, 1, 72, 0
3, 34350, Note_on_c, 1, 76, 68
3, 34379, Note_on_c, 1, 76, 0
3, 34380, Note_on_c, 1, 74, 91
3, 34409, Note_on_c, 1, 74, 0
3, 34410, Note_on_c, 1, 76, 80
3, 34439, Note_on_c, 1, 76, 0
3, 35400, Note_on_c, 1, 77, 85
3, 35429, Note_on_c, 1, 77, 0
3, 35430, Note_on_c, 1, 79, 85
3, 35459, Note_on_c, 1, 79, 0
3, 35460, Note_on_c, 1, 77, 82
3, 35489, Note_on_c, 1, 77, 0
3, 35490, Note_on_c, 1, 76, 100
3, 35519, Note_on_c, 1, 76, 0
3, 35520, Note_on_c, 1, 74, 102
3, 35549, Note_on_c, 1, 74, 0
3, 35550, Note_on_c, 1, 72, 78
3, 35579, Note_on_c, 1, 72, 0
3, 35580, Note_on_c, 1, 71, 72
3, 35609, Note_on_c, 1, 71, 0
3, 35610, Note_on_c, 1, 69, 82
3, 35639, Note_on_c, 1, 69, 0
3, 35640, Note_on_c, 1, 71, 102
3, 35669, Note_on_c, 1, 71, 0
3, 35670, Note_on_c, 1, 67, 89
3, 35699, Note_on_c, 1, 67, 0
3, 35700, Note_on_c, 1, 71, 100
3, 35729, Note_on_c, 1, 71, 0
3, 35730, Note_on_c, 1, 74, 72
3, 35759, Note_on_c, 1, 74, 0
3, 35760, Note_on_c, 1, 77, 91
3, 35789, Note_on_c, 1, 77, 0
3, 35790, Note_on_c, 1, 81, 87
3, 35819, Note_on_c, 1, 81, 0
3, 35820, Note_on_c, 1, 77, 100
3, 35849, Note_on_c, 1, 77, 0
3, 35850, Note_on_c, 1, 74, 100
3, 35879, Note_on_c, 1, 74, 0
3, 36120, Note_on_c, 1, 70, 100
3, 36149, Note_on_c, 1, 70, 0
3, 36150, Note_on_c, 1, 67, 72
3, 36179, Note_on_c, 1, 67, 0
3, 36180, Note_on_c, 1, 70, 100
3, 36209, Note_on_c, 1, 70, 0
3, 36210, Note_on_c, 1, 72, 82
3, 36239, Note_on_c, 1, 72, 0
3, 36240, Note_on_c, 1, 76, 102
3, 36269, Note_on_c, 1, 76, 0
3, 36270, Note_on_c, 1, 79, 82
3, 36299, Note_on_c, 1, 79, 0
3, 36300, Note_on_c, 1, 76, 105
3, 36329, Note_on_c, 1, 76, 0
3, 36330, Note_on_c, 1, 72, 89
3, 36359, Note_on_c, 1, 72, 0
3, 36600, Note_on_c, 1, 69, 98
3, 36629, Note_on_c, 1, 69, 0
3, 36630, Note_on_c, 1, 65, 85
3, 36659, Note_on_c, 1, 65, 0
3, 36660, Note_on_c, 1, 69, 100
3, 36689, Note_on_c, 1, 69, 0
3, 36690, Note_on_c, 1, 72, 98
3, 36719, Note_on_c, 1, 72, 0
3, 36720, Note_on_c, 1, 74, 100
3, 36749, Note_on_c, 1, 74, 0
3, 36750, Note_on_c, 1, 77, 87
3, 36779, Note_on_c, 1, 77, 0
3, 36780, Note_on_c, 1, 74, 105
3, 36809, Note_on_c, 1, 74, 0
3, 36810, Note_on_c, 1, 70, 72
3, 36839, Note_on_c, 1, 70, 0
3, 37080, Note_on_c, 1, 67, 80
3, 37109, Note_on_c, 1, 67, 0
3, 37110, Note_on_c, 1, 64, 74
3, 37139, Note_on_c, 1, 64, 0
3, 37140, Note_on_c, 1, 67, 89
3, 37169, Note_on_c, 1, 67, 0
3, 37170, Note_on_c, 1, 70, 78
3, 37199, Note_on_c, 1, 70, 0
3, 37200, Note_on_c, 1, 73, 95
3, 37229, Note_on_c, 1, 73, 0
3, 37230, Note_on_c, 1, 76, 72
3, 37259, Note_on_c, 1, 76, 0
3, 37260, Note_on_c, 1, 73, 102
3, 37289, Note_on_c, 1, 73, 0
3, 37290, Note_on_c, 1, 70, 80
3, 37319, Note_on_c, 1, 70, 0
3, 37560, Note_on_c, 1, 69, 93
3, 37590, Note_on_c, 1, 81, 91
3, 37619, Note_on_c, 1, 81, 0
3, 37619, Note_on_c, 1, 69, 0
3, 37620, Note_on_c, 1, 79, 91
3, 37620, Note_on_c, 1, 73, 95
3, 37649, Note_on_c, 1, 79, 0
3, 37650, Note_on_c, 1, 81, 93
3, 37679, Note_on_c, 1, 81, 0
3, 37679, Note_on_c, 1, 73, 0
3, 37680, Note_on_c, 1, 77, 100
3, 37680, Note_on_c, 1, 74, 87
3, 37709, Note_on_c, 1, 77, 0
3, 37710, Note_on_c, 1, 81, 85
3, 37739, Note_on_c, 1, 81, 0
3, 37739, Note_on_c, 1, 74, 0
3, 37740, Note_on_c, 1, 76, 91
3, 37740, Note_on_c, 1, 67, 87
3, 37769, Note_on_c, 1, 76, 0
3, 37770, Note_on_c, 1, 81, 78
3, 37799, Note_on_c, 1, 81, 0
3, 37799, Note_on_c, 1, 67, 0
3, 37800, Note_on_c, 1, 74, 87
3, 37800, Note_on_c, 1, 65, 82
3, 37829, Note_on_c, 1, 74, 0
3, 37830, Note_on_c, 1, 81, 82
3, 37859, Note_on_c, 1, 81, 0
3, 37859, Note_on_c, 1, 65, 0
3, 37860, Note_on_c, 1, 73, 100
3, 37860, Note_on_c, 1, 69, 87
3, 37889, Note_on_c, 1, 73, 0
3, 37890, Note_on_c, 1, 81, 82
3, 37919, Note_on_c, 1, 81, 0
3, 37919, Note_on_c, 1, 69, 0
3, 37920, Note_on_c, 1, 74, 87
3, 37920, Note_on_c, 1, 71, 89
3, 37949, Note_on_c, 1, 74, 0
3, 37950, Note_on_c, 1, 81, 82
3, 37979, Note_on_c, 1, 81, 0
3, 37979, Note_on_c, 1, 71, 0
3, 37980, Note_on_c, 1, 76, 89
3, 37980, Note_on_c, 1, 73, 95
3, 38009, Note_on_c, 1, 76, 0
3, 38010, Note_on_c, 1, 81, 82
3, 38039, Note_on_c, 1, 81, 0
3, 38039, Note_on_c, 1, 73, 0
3, 38040, Note_on_c, 1, 77, 85
3, 38040, Note_on_c, 1, 74, 87
3, 38069, Note_on_c, 1, 77, 0
3, 38070, Note_on_c, 1, 81, 82
3, 38099, Note_on_c, 1, 81, 0
3, 38099, Note_on_c, 1, 74, 0
3, 38100, Note_on_c, 1, 69, 64
3, 38100, Note_on_c, 1, 73, 95
3, 38129, Note_on_c, 1, 69, 0
3, 38130, Note_on_c, 1, 81, 87
3, 38159, Note_on_c, 1, 81, 0
3, 38159, Note_on_c, 1, 73, 0
3, 38160, Note_on_c, 1, 71, 87
3, 38160, Note_on_c, 1, 74, 89
3, 38189, Note_on_c, 1, 71, 0
3, 38190, Note_on_c, 1, 81, 95
3, 38219, Note_on_c, 1, 81, 0
3, 38219, Note_on_c, 1, 74, 0
3, 38220, Note_on_c, 1, 73, 95
3, 38220, Note_on_c, 1, 76, 91
3, 38249, Note_on_c, 1, 73, 0
3, 38250, Note_on_c, 1, 81, 82
3, 38279, Note_on_c, 1, 81, 0
3, 38279, Note_on_c, 1, 76, 0
3, 38280, Note_on_c, 1, 74, 85
3, 38280, Note_on_c, 1, 77, 89
3, 38309, Note_on_c, 1, 74, 0
3, 38310, Note_on_c, 1, 81, 80
3, 38339, Note_on_c, 1, 81, 0
3, 38339, Note_on_c, 1, 77, 0
3, 38340, Note_on_c, 1, 73, 95
3, 38340, Note_on_c, 1, 76, 98
3, 38369, Note_on_c, 1, 73, 0
3, 38370, Note_on_c, 1, 81, 82
3, 38399, Note_on_c, 1, 81, 0
3, 38399, Note_on_c, 1, 76, 0
3, 38400, Note_on_c, 1, 74, 85
3, 38400, Note_on_c, 1, 77, 91
3, 38430, Note_on_c, 1, 69, 100
3, 38459, Note_on_c, 1, 69, 0
3, 38459, Note_on_c, 1, 77, 0
3, 38459, Note_on_c, 1, 74, 0
3, 38460, Note_on_c, 1, 76, 89
3, 38460, Note_on_c, 1, 73, 95
3, 38460, Note_on_c, 1, 67, 102
3, 38489, Note_on_c, 1, 67, 0
3, 38490, Note_on_c, 1, 69, 102
3, 38519, Note_on_c, 1, 69, 0
3, 38519, Note_on_c, 1, 73, 0
3, 38519, Note_on_c, 1, 76, 0
3, 38520, Note_on_c, 1, 74, 82
3, 38550, Note_on_c, 1, 66, 102
3, 38579, Note_on_c, 1, 66, 0
3, 38579, Note_on_c, 1, 74, 0
3, 38580, Note_on_c, 1, 72, 85
3, 38580, Note_on_c, 1, 69, 80
3, 38580, Note_on_c, 1, 64, 102
3, 38609, Note_on_c, 1, 64, 0
3, 38610, Note_on_c, 1, 66, 100
3, 38639, Note_on_c, 1, 66, 0
3, 38639, Note_on_c, 1, 69, 0
3, 38639, Note_on_c, 1, 72, 0
3, 38640, Note_on_c, 1, 70, 82
3, 38640, Note_on_c, 1, 67, 64
3, 38670, Note_on_c, 1, 62, 89
3, 38699, Note_on_c, 1, 62, 0
3, 38699, Note_on_c, 1, 67, 0
3, 38699, Note_on_c, 1, 70, 0
3, 38700, Note_on_c, 1, 66, 78
3, 38700, Note_on_c, 1, 69, 85
3, 38700, Note_on_c, 1, 60, 100
3, 38729, Note_on_c, 1, 60, 0
3, 38730, Note_on_c, 1, 62, 87
3, 38759, Note_on_c, 1, 62, 0
3, 38759, Note_on_c, 1, 69, 0
3, 38759, Note_on_c, 1, 66, 0
3, 38760, Note_on_c, 1, 67, 74
3, 38760, Note_on_c, 1, 70, 74
3, 38760, Note_on_c, 1, 58, 102
3, 38789, Note_on_c, 1, 58, 0
3, 38789, Note_on_c, 1, 70, 0
3, 38790, Note_on_c, 1, 69, 85
3, 38790, Note_on_c, 1, 60, 95
3, 38819, Note_on_c, 1, 60, 0
3, 38819, Note_on_c, 1, 67, 0
3, 38820, Note_on_c, 1, 67, 85
3, 38820, Note_on_c, 1, 58, 107
3, 38849, Note_on_c, 1, 58, 0
3, 38849, Note_on_c, 1, 67, 0
3, 38849, Note_on_c, 1, 69, 0
3, 38850, Note_on_c, 1, 65, 93
3, 38850, Note_on_c, 1, 57, 93
3, 38879, Note_on_c, 1, 57, 0
3, 38879, Note_on_c, 1, 65, 0
3, 38880, Note_on_c, 1, 64, 80
3, 38880, Note_on_c, 1, 55, 85
3, 38909, Note_on_c, 1, 55, 0
3, 38909, Note_on_c, 1, 64, 0
3, 38910, Note_on_c, 1, 62, 85
3, 38910, Note_on_c, 1, 53, 93
3, 38939, Note_on_c, 1, 53, 0
3, 38939, Note_on_c, 1, 62, 0
3, 38940, Note_on_c, 1, 61, 72
3, 38940, Note_on_c, 1, 52, 100
3, 38969, Note_on_c, 1, 52, 0
3, 38969, Note_on_c, 1, 61, 0
3, 38970, Note_on_c, 1, 59, 82
3, 38970, Note_on_c, 1, 50, 87
3, 38999, Note_on_c, 1, 50, 0
3, 38999, Note_on_c, 1, 59, 0
3, 39000, Note_on_c, 1, 57, 85
3, 39000, Note_on_c, 1, 49, 95
3, 39029, Note_on_c, 1, 49, 0
3, 39030, Note_on_c, 1, 45, 98
3, 39059, Note_on_c, 1, 45, 0
3, 39059, Note_on_c, 1, 57, 0
3, 39060, Note_on_c, 1, 49, 85
3, 39089, Note_on_c, 1, 49, 0
3, 39090, Note_on_c, 1, 52, 89
3, 39119, Note_on_c, 1, 52, 0
3, 39120, Note_on_c, 1, 55, 93
3, 39149, Note_on_c, 1, 55, 0
3, 39150, Note_on_c, 1, 58, 89
3, 39179, Note_on_c, 1, 58, 0
3, 39180, Note_on_c, 1, 55, 68
3, 39209, Note_on_c, 1, 55, 0
3, 39210, Note_on_c, 1, 52, 87
3, 39239, Note_on_c, 1, 52, 0
3, 39480, Note_on_c, 1, 50, 91
3, 39509, Note_on_c, 1, 50, 0
3, 39510, Note_on_c, 1, 45, 85
3, 39539, Note_on_c, 1, 45, 0
3, 39540, Note_on_c, 1, 50, 87
3, 39569, Note_on_c, 1, 50, 0
3, 39570, Note_on_c, 1, 53, 89
3, 39599, Note_on_c, 1, 53, 0
3, 39600, Note_on_c, 1, 57, 82
3, 39629, Note_on_c, 1, 57, 0
3, 39630, Note_on_c, 1, 62, 91
3, 39659, Note_on_c, 1, 62, 0
3, 39660, Note_on_c, 1, 57, 85
3, 39689, Note_on_c, 1, 57, 0
3, 39690, Note_on_c, 1, 53, 82
3, 39719, Note_on_c, 1, 53, 0
3, 39960, Note_on_c, 1, 49, 105
3, 39989, Note_on_c, 1, 49, 0
3, 39990, Note_on_c, 1, 45, 78
3, 40019, Note_on_c, 1, 45, 0
3, 40020, Note_on_c, 1, 49, 100
3, 40049, Note_on_c, 1, 49, 0
3, 40050, Note_on_c, 1, 52, 85
3, 40079, Note_on_c, 1, 52, 0
3, 40080, Note_on_c, 1, 55, 105
3, 40109, Note_on_c, 1, 55, 0
3, 40110, Note_on_c, 1, 58, 95
3, 40139, Note_on_c, 1, 58, 0
3, 40140, Note_on_c, 1, 55, 82
3, 40169, Note_on_c, 1, 55, 0
3, 40170, Note_on_c, 1, 52, 80
3, 40199, Note_on_c, 1, 52, 0
3, 40440, Note_on_c, 1, 50, 102
3, 40469, Note_on_c, 1, 50, 0
3, 40470, Note_on_c, 1, 45, 82
3, 40499, Note_on_c, 1, 45, 0
3, 40500, Note_on_c, 1, 50, 102
3, 40530, Note_on_c, 1, 53, 89
3, 40559, Note_on_c, 1, 53, 0
3, 40559, Note_on_c, 1, 50, 0
3, 40560, Note_on_c, 1, 57, 93
3, 40589, Note_on_c, 1, 57, 0
3, 40590, Note_on_c, 1, 62, 89
3, 40619, Note_on_c, 1, 62, 0
3, 40620, Note_on_c, 1, 57, 91
3, 40649, Note_on_c, 1, 57, 0
3, 40650, Note_on_c, 1, 53, 89
3, 40679, Note_on_c, 1, 53, 0
3, 40920, Note_on_c, 1, 52, 95
3, 40949, Note_on_c, 1, 52, 0
3, 40950, Note_on_c, 1, 49, 102
3, 40979, Note_on_c, 1, 49, 0
3, 40980, Note_on_c, 1, 52, 85
3, 41009, Note_on_c, 1, 52, 0
3, 41010, Note_on_c, 1, 55, 80
3, 41039, Note_on_c, 1, 55, 0
3, 41040, Note_on_c, 1, 58, 89
3, 41069, Note_on_c, 1, 58, 0
3, 41070, Note_on_c, 1, 61, 85
3, 41099, Note_on_c, 1, 61, 0
3, 41100, Note_on_c, 1, 58, 100
3, 41129, Note_on_c, 1, 58, 0
3, 41130, Note_on_c, 1, 55, 85
3, 41159, Note_on_c, 1, 55, 0
3, 41400, Note_on_c, 1, 53, 85
3, 41429, Note_on_c, 1, 53, 0
3, 41430, Note_on_c, 1, 50, 82
3, 41459, Note_on_c, 1, 50, 0
3, 41460, Note_on_c, 1, 53, 87
3, 41489, Note_on_c, 1, 53, 0
3, 41490, Note_on_c, 1, 57, 87
3, 41519, Note_on_c, 1, 57, 0
3, 41520, Note_on_c, 1, 62, 91
3, 41549, Note_on_c, 1, 62, 0
3, 41550, Note_on_c, 1, 65, 85
3, 41579, Note_on_c, 1, 65, 0
3, 41580, Note_on_c, 1, 62, 80
3, 41609, Note_on_c, 1, 62, 0
3, 41610, Note_on_c, 1, 57, 82
3, 41639, Note_on_c, 1, 57, 0
3, 41880, Note_on_c, 1, 52, 87
3, 41909, Note_on_c, 1, 52, 0
3, 41910, Note_on_c, 1, 49, 68
3, 41939, Note_on_c, 1, 49, 0
3, 41940, Note_on_c, 1, 52, 82
3, 41969, Note_on_c, 1, 52, 0
3, 41970, Note_on_c, 1, 55, 87
3, 41999, Note_on_c, 1, 55, 0
3, 42000, Note_on_c, 1, 58, 100
3, 42029, Note_on_c, 1, 58, 0
3, 42030, Note_on_c, 1, 61, 85
3, 42059, Note_on_c, 1, 61, 0
3, 42060, Note_on_c, 1, 58, 91
3, 42089, Note_on_c, 1, 58, 0
3, 42090, Note_on_c, 1, 55, 82
3, 42119, Note_on_c, 1, 55, 0
3, 42360, Note_on_c, 1, 53, 85
3, 42389, Note_on_c, 1, 53, 0
3, 42390, Note_on_c, 1, 50, 76
3, 42419, Note_on_c, 1, 50, 0
3, 42420, Note_on_c, 1, 53, 91
3, 42449, Note_on_c, 1, 53, 0
3, 42450, Note_on_c, 1, 57, 87
3, 42479, Note_on_c, 1, 57, 0
3, 42480, Note_on_c, 1, 62, 93
3, 42509, Note_on_c, 1, 62, 0
3, 42510, Note_on_c, 1, 65, 85
3, 42539, Note_on_c, 1, 65, 0
3, 42540, Note_on_c, 1, 62, 87
3, 42569, Note_on_c, 1, 62, 0
3, 42570, Note_on_c, 1, 57, 68
3, 42599, Note_on_c, 1, 57, 0
3, 42840, Note_on_c, 1, 55, 87
3, 42869, Note_on_c, 1, 55, 0
3, 42870, Note_on_c, 1, 52, 68
3, 42899, Note_on_c, 1, 52, 0
3, 42900, Note_on_c, 1, 55, 70
3, 42929, Note_on_c, 1, 55, 0
3, 42930, Note_on_c, 1, 58, 68
3, 42959, Note_on_c, 1, 58, 0
3, 42960, Note_on_c, 1, 61, 98
3, 42989, Note_on_c, 1, 61, 0
3, 42990, Note_on_c, 1, 64, 78
3, 43019, Note_on_c, 1, 64, 0
3, 43020, Note_on_c, 1, 61, 74
3, 43050, Note_on_c, 1, 58, 74
3, 43079, Note_on_c, 1, 58, 0
3, 43079, Note_on_c, 1, 61, 0
3, 43320, Note_on_c, 1, 57, 85
3, 43349, Note_on_c, 1, 57, 0
3, 43350, Note_on_c, 1, 53, 74
3, 43379, Note_on_c, 1, 53, 0
3, 43380, Note_on_c, 1, 57, 76
3, 43409, Note_on_c, 1, 57, 0
3, 43410, Note_on_c, 1, 61, 82
3, 43439, Note_on_c, 1, 61, 0
3, 43440, Note_on_c, 1, 62, 95
3, 43469, Note_on_c, 1, 62, 0
3, 43470, Note_on_c, 1, 65, 85
3, 43499, Note_on_c, 1, 65, 0
3, 43500, Note_on_c, 1, 62, 93
3, 43529, Note_on_c, 1, 62, 0
3, 43530, Note_on_c, 1, 57, 91
3, 43559, Note_on_c, 1, 57, 0
3, 43560, Note_on_c, 1, 58, 98
3, 43589, Note_on_c, 1, 58, 0
3, 43590, Note_on_c, 1, 62, 87
3, 43619, Note_on_c, 1, 62, 0
3, 43620, Note_on_c, 1, 58, 100
3, 43649, Note_on_c, 1, 58, 0
3, 43650, Note_on_c, 1, 55, 91
3, 43679, Note_on_c, 1, 55, 0
3, 43680, Note_on_c, 1, 53, 89
3, 43709, Note_on_c, 1, 53, 0
3, 43710, Note_on_c, 1, 57, 91
3, 43739, Note_on_c, 1, 57, 0
3, 43740, Note_on_c, 1, 53, 98
3, 43769, Note_on_c, 1, 53, 0
3, 43770, Note_on_c, 1, 50, 87
3, 43799, Note_on_c, 1, 50, 0
3, 43800, Note_on_c, 1, 45, 87
3, 43829, Note_on_c, 1, 45, 0
3, 43830, Note_on_c, 1, 50, 87
3, 43859, Note_on_c, 1, 50, 0
3, 43860, Note_on_c, 1, 45, 74
3, 43889, Note_on_c, 1, 45, 0
3, 43890, Note_on_c, 1, 41, 85
3, 43919, Note_on_c, 1, 41, 0
3, 43920, Note_on_c, 1, 38, 80
3, 43949, Note_on_c, 1, 38, 0
3, 43950, Note_on_c, 1, 50, 87
3, 43979, Note_on_c, 1, 50, 0
3, 43980, Note_on_c, 1, 49, 102
3, 44009, Note_on_c, 1, 49, 0
3, 44010, Note_on_c, 1, 47, 91
3, 44039, Note_on_c, 1, 47, 0
3, 44040, Note_on_c, 1, 49, 107
3, 44069, Note_on_c, 1, 49, 0
3, 44070, Note_on_c, 1, 58, 98
3, 44099, Note_on_c, 1, 58, 0
3, 44100, Note_on_c, 1, 57, 93
3, 44129, Note_on_c, 1, 57, 0
3, 44130, Note_on_c, 1, 55, 100
3, 44159, Note_on_c, 1, 55, 0
3, 44160, Note_on_c, 1, 53, 98
3, 44189, Note_on_c, 1, 53, 0
3, 44190, Note_on_c, 1, 55, 82
3, 44219, Note_on_c, 1, 55, 0
3, 44220, Note_on_c, 1, 53, 91
3, 44249, Note_on_c, 1, 53, 0
3, 44250, Note_on_c, 1, 52, 87
3, 44279, Note_on_c, 1, 52, 0
3, 44280, Note_on_c, 1, 50, 110
3, 44309, Note_on_c, 1, 50, 0
3, 44310, Note_on_c, 1, 58, 98
3, 44339, Note_on_c, 1, 58, 0
3, 44340, Note_on_c, 1, 57, 87
3, 44369, Note_on_c, 1, 57, 0
3, 44370, Note_on_c, 1, 55, 89
3, 44399, Note_on_c, 1, 55, 0
3, 44400, Note_on_c, 1, 53, 105
3, 44429, Note_on_c, 1, 53, 0
3, 44430, Note_on_c, 1, 55, 91
3, 44459, Note_on_c, 1, 55, 0
3, 44460, Note_on_c, 1, 53, 91
3, 44489, Note_on_c, 1, 53, 0
3, 44490, Note_on_c, 1, 52, 91
3, 44519, Note_on_c, 1, 52, 0
3, 44520, Note_on_c, 1, 50, 87
3, 44550, Note_on_c, 1, 52, 93
3, 44564, Note_on_c, 1, 50, 0
3, 44565, Note_on_c, 1, 53, 100
3, 44579, Note_on_c, 1, 53, 0
3, 44579, Note_on_c, 1, 52, 0
3, 44580, Note_on_c, 1, 55, 91
3, 44594, Note_on_c, 1, 55, 0
3, 44595, Note_on_c, 1, 57, 82
3, 44609, Note_on_c, 1, 57, 0
3, 44610, Note_on_c, 1, 59, 100
3, 44624, Note_on_c, 1, 59, 0
3, 44625, Note_on_c, 1, 61, 100
3, 44639, Note_on_c, 1, 61, 0
3, 44640, Note_on_c, 1, 62, 105
3, 44669, Note_on_c, 1, 62, 0
3, 44670, Note_on_c, 1, 65, 105
3, 44699, Note_on_c, 1, 65, 0
3, 44700, Note_on_c, 1, 64, 105
3, 44729, Note_on_c, 1, 64, 0
3, 44730, Note_on_c, 1, 62, 87
3, 44759, Note_on_c, 1, 62, 0
3, 44760, Note_on_c, 1, 69, 95
3, 44760, Note_on_c, 1, 57, 80
3, 44789, Note_on_c, 1, 57, 0
3, 44789, Note_on_c, 1, 69, 0
3, 44790, Note_on_c, 1, 59, 87
3, 44804, Note_on_c, 1, 59, 0
3, 44805, Note_on_c, 1, 61, 93
3, 44819, Note_on_c, 1, 61, 0
3, 44820, Note_on_c, 1, 62, 80
3, 44834, Note_on_c, 1, 62, 0
3, 44835, Note_on_c, 1, 64, 85
3, 44849, Note_on_c, 1, 64, 0
3, 44850, Note_on_c, 1, 65, 89
3, 44864, Note_on_c, 1, 65, 0
3, 44865, Note_on_c, 1, 67, 72
3, 44879, Note_on_c, 1, 67, 0
3, 44880, Note_on_c, 1, 69, 102
3, 44909, Note_on_c, 1, 69, 0
3, 44910, Note_on_c, 1, 76, 91
3, 44910, Note_on_c, 1, 67, 87
3, 44939, Note_on_c, 1, 67, 0
3, 44939, Note_on_c, 1, 76, 0
3, 44940, Note_on_c, 1, 74, 102
3, 44940, Note_on_c, 1, 65, 102
3, 44969, Note_on_c, 1, 65, 0
3, 44969, Note_on_c, 1, 74, 0
3, 44970, Note_on_c, 1, 64, 85
3, 44970, Note_on_c, 1, 73, 102
3, 44999, Note_on_c, 1, 73, 0
3, 44999, Note_on_c, 1, 64, 0
3, 45000, Note_on_c, 1, 65, 102
3, 45000, Note_on_c, 1, 74, 105
3, 45029, Note_on_c, 1, 65, 0
3, 45030, Note_on_c, 1, 75, 100
3, 45044, Note_on_c, 1, 75, 0
3, 45044, Note_on_c, 1, 74, 0
3, 45045, Note_on_c, 1, 74, 85
3, 45059, Note_on_c, 1, 74, 0
3, 45060, Note_on_c, 1, 72, 89
3, 45074, Note_on_c, 1, 72, 0
3, 45075, Note_on_c, 1, 70, 98
3, 45089, Note_on_c, 1, 70, 0
3, 45090, Note_on_c, 1, 69, 87
3, 45104, Note_on_c, 1, 69, 0
3, 45105, Note_on_c, 1, 67, 82
3, 45119, Note_on_c, 1, 67, 0
3, 45120, Note_on_c, 1, 66, 107
3, 45153, Note_on_c, 1, 63, 82
3, 45179, Note_on_c, 1, 66, 0
3, 45180, Note_on_c, 1, 69, 102
3, 45184, Note_on_c, 1, 62, 89
3, 45188, Note_on_c, 1, 63, 0
3, 45213, Note_on_c, 1, 60, 78
3, 45215, Note_on_c, 1, 62, 0
3, 45244, Note_on_c, 1, 58, 100
3, 45248, Note_on_c, 1, 60, 0
3, 45299, Note_on_c, 1, 69, 0
3, 45300, Note_on_c, 1, 59, 91
3, 45300, Note_on_c, 1, 67, 85
3, 45301, Note_on_c, 1, 58, 0
3, 45359, Note_on_c, 1, 67, 0
3, 45360, Note_on_c, 1, 72, 98
3, 45361, Note_on_c, 1, 60, 95
3, 45365, Note_on_c, 1, 59, 0
3, 45419, Note_on_c, 1, 72, 0
3, 45420, Note_on_c, 1, 71, 100
3, 45425, Note_on_c, 1, 67, 87
3, 45430, Note_on_c, 1, 60, 0
3, 45479, Note_on_c, 1, 67, 0
3, 45479, Note_on_c, 1, 71, 0
3, 45480, Note_on_c, 1, 75, 98
3, 45483, Note_on_c, 1, 67, 93
3, 45505, Note_on_c, 1, 68, 80
3, 45509, Note_on_c, 1, 67, 0
3, 45523, Note_on_c, 1, 67, 78
3, 45524, Note_on_c, 1, 68, 0
3, 45538, Note_on_c, 1, 68, 80
3, 45539, Note_on_c, 1, 67, 0
3, 45539, Note_on_c, 1, 75, 0
3, 45540, Note_on_c, 1, 74, 89
3, 45555, Note_on_c, 1, 68, 0
3, 45556, Note_on_c, 1, 67, 95
3, 45575, Note_on_c, 1, 68, 82
3, 45576, Note_on_c, 1, 67, 0
3, 45591, Note_on_c, 1, 67, 85
3, 45592, Note_on_c, 1, 68, 0
3, 45599, Note_on_c, 1, 74, 0
3, 45600, Note_on_c, 1, 75, 98
3, 45604, Note_on_c, 1, 68, 80
3, 45607, Note_on_c, 1, 67, 0
3, 45620, Note_on_c, 1, 67, 82
3, 45622, Note_on_c, 1, 68, 0
3, 45636, Note_on_c, 1, 68, 78
3, 45637, Note_on_c, 1, 67, 0
3, 45651, Note_on_c, 1, 67, 72
3, 45653, Note_on_c, 1, 68, 0
3, 45659, Note_on_c, 1, 75, 0
3, 45660, Note_on_c, 1, 71, 98
3, 45666, Note_on_c, 1, 68, 80
3, 45668, Note_on_c, 1, 67, 0
3, 45682, Note_on_c, 1, 67, 80
3, 45683, Note_on_c, 1, 68, 0
3, 45697, Note_on_c, 1, 68, 76
3, 45698, Note_on_c, 1, 67, 0
3, 45710, Note_on_c, 1, 67, 76
3, 45713, Note_on_c, 1, 68, 0
3, 45719, Note_on_c, 1, 71, 0
3, 45720, Note_on_c, 1, 72, 91
3, 45726, Note_on_c, 1, 68, 80
3, 45728, Note_on_c, 1, 67, 0
3, 45741, Note_on_c, 1, 67, 76
3, 45742, Note_on_c, 1, 68, 0
3, 45757, Note_on_c, 1, 68, 78
3, 45758, Note_on_c, 1, 67, 0
3, 45772, Note_on_c, 1, 67, 70
3, 45773, Note_on_c, 1, 68, 0
3, 45779, Note_on_c, 1, 72, 0
3, 45780, Note_on_c, 1, 71, 80
3, 45786, Note_on_c, 1, 68, 76
3, 45788, Note_on_c, 1, 67, 0
3, 45801, Note_on_c, 1, 67, 80
3, 45802, Note_on_c, 1, 68, 0
3, 45819, Note_on_c, 1, 68, 87
3, 45820, Note_on_c, 1, 67, 0
3, 45836, Note_on_c, 1, 67, 80
3, 45836, Note_on_c, 1, 68, 0
3, 45839, Note_on_c, 1, 71, 0
3, 45840, Note_on_c, 1, 72, 93
3, 45851, Note_on_c, 1, 68, 80
3, 45852, Note_on_c, 1, 67, 0
3, 45866, Note_on_c, 1, 67, 82
3, 45867, Note_on_c, 1, 68, 0
3, 45882, Note_on_c, 1, 68, 74
3, 45882, Note_on_c, 1, 67, 0
3, 45896, Note_on_c, 1, 67, 82
3, 45898, Note_on_c, 1, 68, 0
3, 45899, Note_on_c, 1, 72, 0
3, 45900, Note_on_c, 1, 74, 102
3, 45911, Note_on_c, 1, 68, 76
3, 45912, Note_on_c, 1, 67, 0
3, 45926, Note_on_c, 1, 67, 76
3, 45927, Note_on_c, 1, 68, 0
3, 45944, Note_on_c, 1, 68, 87
3, 45946, Note_on_c, 1, 67, 0
3, 45959, Note_on_c, 1, 74, 0
3, 45960, Note_on_c, 1, 75, 87
3, 45961, Note_on_c, 1, 67, 85
3, 45961, Note_on_c, 1, 68, 0
3, 45978, Note_on_c, 1, 68, 82
3, 45979, Note_on_c, 1, 67, 0
3, 45991, Note_on_c, 1, 67, 78
3, 45993, Note_on_c, 1, 68, 0
3, 46008, Note_on_c, 1, 68, 80
3, 46009, Note_on_c, 1, 67, 0
3, 46019, Note_on_c, 1, 75, 0
3, 46020, Note_on_c, 1, 74, 82
3, 46023, Note_on_c, 1, 67, 72
3, 46024, Note_on_c, 1, 68, 0
3, 46039, Note_on_c, 1, 68, 78
3, 46040, Note_on_c, 1, 67, 0
3, 46054, Note_on_c, 1, 67, 76
3, 46057, Note_on_c, 1, 68, 0
3, 46071, Note_on_c, 1, 68, 85
3, 46072, Note_on_c, 1, 67, 0
3, 46079, Note_on_c, 1, 74, 0
3, 46080, Note_on_c, 1, 75, 100
3, 46088, Note_on_c, 1, 67, 82
3, 46090, Note_on_c, 1, 68, 0
3, 46105, Note_on_c, 1, 68, 85
3, 46105, Note_on_c, 1, 67, 0
3, 46121, Note_on_c, 1, 67, 82
3, 46123, Note_on_c, 1, 68, 0
3, 46138, Note_on_c, 1, 68, 93
3, 46138, Note_on_c, 1, 67, 0
3, 46139, Note_on_c, 1, 75, 0
3, 46140, Note_on_c, 1, 77, 89
3, 46154, Note_on_c, 1, 67, 87
3, 46157, Note_on_c, 1, 68, 0
3, 46168, Note_on_c, 1, 68, 82
3, 46169, Note_on_c, 1, 67, 0
3, 46184, Note_on_c, 1, 67, 82
3, 46186, Note_on_c, 1, 68, 0
3, 46199, Note_on_c, 1, 79, 91
3, 46199, Note_on_c, 1, 77, 0
3, 46218, Note_on_c, 1, 80, 89
3, 46222, Note_on_c, 1, 79, 0
3, 46222, Note_on_c, 1, 67, 0
3, 46230, Note_on_c, 1, 67, 85
3, 46237, Note_on_c, 1, 79, 74
3, 46238, Note_on_c, 1, 80, 0
3, 46248, Note_on_c, 1, 79, 0
3, 46249, Note_on_c, 1, 80, 61
3, 46259, Note_on_c, 1, 67, 0
3, 46260, Note_on_c, 1, 65, 91
3, 46265, Note_on_c, 1, 79, 70
3, 46266, Note_on_c, 1, 80, 0
3, 46278, Note_on_c, 1, 80, 66
3, 46278, Note_on_c, 1, 79, 0
3, 46289, Note_on_c, 1, 65, 0
3, 46290, Note_on_c, 1, 67, 93
3, 46293, Note_on_c, 1, 79, 64
3, 46294, Note_on_c, 1, 80, 0
3, 46307, Note_on_c, 1, 80, 66
3, 46307, Note_on_c, 1, 79, 0
3, 46319, Note_on_c, 1, 67, 0
3, 46320, Note_on_c, 1, 63, 113
3, 46322, Note_on_c, 1, 79, 64
3, 46323, Note_on_c, 1, 80, 0
3, 46335, Note_on_c, 1, 80, 63
3, 46336, Note_on_c, 1, 79, 0
3, 46349, Note_on_c, 1, 63, 0
3, 46350, Note_on_c, 1, 67, 89
3, 46350, Note_on_c, 1, 79, 60
3, 46351, Note_on_c, 1, 80, 0
3, 46364, Note_on_c, 1, 80, 68
3, 46365, Note_on_c, 1, 79, 0
3, 46379, Note_on_c, 1, 67, 0
3, 46380, Note_on_c, 1, 62, 105
3, 46380, Note_on_c, 1, 79, 62
3, 46380, Note_on_c, 1, 80, 0
3, 46395, Note_on_c, 1, 80, 64
3, 46395, Note_on_c, 1, 79, 0
3, 46409, Note_on_c, 1, 79, 59
3, 46409, Note_on_c, 1, 80, 0
3, 46409, Note_on_c, 1, 62, 0
3, 46410, Note_on_c, 1, 67, 82
3, 46423, Note_on_c, 1, 80, 66
3, 46424, Note_on_c, 1, 79, 0
3, 46439, Note_on_c, 1, 80, 0
3, 46439, Note_on_c, 1, 67, 0
3, 46440, Note_on_c, 1, 60, 105
3, 46440, Note_on_c, 1, 79, 60
3, 46452, Note_on_c, 1, 80, 58
3, 46452, Note_on_c, 1, 79, 0
3, 46465, Note_on_c, 1, 80, 0
3, 46466, Note_on_c, 1, 79, 57
3, 46469, Note_on_c, 1, 60, 0
3, 46470, Note_on_c, 1, 67, 95
3, 46480, Note_on_c, 1, 80, 68
3, 46481, Note_on_c, 1, 79, 0
3, 46494, Note_on_c, 1, 80, 0
3, 46496, Note_on_c, 1, 79, 52
3, 46499, Note_on_c, 1, 67, 0
3, 46500, Note_on_c, 1, 59, 82
3, 46507, Note_on_c, 1, 80, 63
3, 46508, Note_on_c, 1, 79, 0
3, 46523, Note_on_c, 1, 80, 0
3, 46524, Note_on_c, 1, 79, 57
3, 46529, Note_on_c, 1, 59, 0
3, 46530, Note_on_c, 1, 67, 98
3, 46536, Note_on_c, 1, 80, 60
3, 46537, Note_on_c, 1, 79, 0
3, 46549, Note_on_c, 1, 80, 0
3, 46551, Note_on_c, 1, 79, 51
3, 46559, Note_on_c, 1, 67, 0
3, 46560, Note_on_c, 1, 60, 98
3, 46563, Note_on_c, 1, 80, 63
3, 46564, Note_on_c, 1, 79, 0
3, 46578, Note_on_c, 1, 80, 0
3, 46579, Note_on_c, 1, 79, 56
3, 46589, Note_on_c, 1, 60, 0
3, 46590, Note_on_c, 1, 67, 87
3, 46590, Note_on_c, 1, 80, 60
3, 46591, Note_on_c, 1, 79, 0
3, 46605, Note_on_c, 1, 79, 57
3, 46605, Note_on_c, 1, 80, 0
3, 46618, Note_on_c, 1, 80, 60
3, 46618, Note_on_c, 1, 79, 0
3, 46619, Note_on_c, 1, 67, 0
3, 46620, Note_on_c, 1, 62, 100
3, 46633, Note_on_c, 1, 80, 0
3, 46635, Note_on_c, 1, 79, 56
3, 46647, Note_on_c, 1, 80, 58
3, 46647, Note_on_c, 1, 79, 0
3, 46649, Note_on_c, 1, 62, 0
3, 46650, Note_on_c, 1, 67, 95
3, 46662, Note_on_c, 1, 79, 53
3, 46662, Note_on_c, 1, 80, 0
3, 46676, Note_on_c, 1, 80, 63
3, 46676, Note_on_c, 1, 79, 0
3, 46679, Note_on_c, 1, 67, 0
3, 46680, Note_on_c, 1, 63, 110
3, 46692, Note_on_c, 1, 79, 57
3, 46692, Note_on_c, 1, 80, 0
3, 46705, Note_on_c, 1, 80, 60
3, 46705, Note_on_c, 1, 79, 0
3, 46709, Note_on_c, 1, 63, 0
3, 46710, Note_on_c, 1, 67, 85
3, 46721, Note_on_c, 1, 80, 0
3, 46722, Note_on_c, 1, 79, 53
3, 46735, Note_on_c, 1, 80, 59
3, 46735, Note_on_c, 1, 79, 0
3, 46739, Note_on_c, 1, 67, 0
3, 46740, Note_on_c, 1, 55, 82
3, 46749, Note_on_c, 1, 79, 57
3, 46750, Note_on_c, 1, 80, 0
3, 46765, Note_on_c, 1, 80, 68
3, 46766, Note_on_c, 1, 79, 0
3, 46769, Note_on_c, 1, 55, 0
3, 46770, Note_on_c, 1, 67, 87
3, 46781, Note_on_c, 1, 79, 60
3, 46781, Note_on_c, 1, 80, 0
3, 46796, Note_on_c, 1, 80, 60
3, 46796, Note_on_c, 1, 79, 0
3, 46799, Note_on_c, 1, 67, 0
3, 46800, Note_on_c, 1, 57, 87
3, 46810, Note_on_c, 1, 80, 0
3, 46811, Note_on_c, 1, 79, 54
3, 46824, Note_on_c, 1, 80, 63
3, 46824, Note_on_c, 1, 79, 0
3, 46829, Note_on_c, 1, 57, 0
3, 46830, Note_on_c, 1, 67, 93
3, 46841, Note_on_c, 1, 79, 57
3, 46841, Note_on_c, 1, 80, 0
3, 46854, Note_on_c, 1, 80, 59
3, 46854, Note_on_c, 1, 79, 0
3, 46859, Note_on_c, 1, 67, 0
3, 46860, Note_on_c, 1, 59, 87
3, 46870, Note_on_c, 1, 80, 0
3, 46871, Note_on_c, 1, 79, 58
3, 46884, Note_on_c, 1, 80, 62
3, 46884, Note_on_c, 1, 79, 0
3, 46889, Note_on_c, 1, 59, 0
3, 46890, Note_on_c, 1, 67, 93
3, 46901, Note_on_c, 1, 79, 58
3, 46901, Note_on_c, 1, 80, 0
3, 46913, Note_on_c, 1, 80, 58
3, 46913, Note_on_c, 1, 79, 0
3, 46919, Note_on_c, 1, 67, 0
3, 46920, Note_on_c, 1, 60, 98
3, 46928, Note_on_c, 1, 79, 56
3, 46928, Note_on_c, 1, 80, 0
3, 46941, Note_on_c, 1, 79, 0
3, 46942, Note_on_c, 1, 80, 60
3, 46949, Note_on_c, 1, 60, 0
3, 46950, Note_on_c, 1, 67, 98
3, 46958, Note_on_c, 1, 79, 52
3, 46958, Note_on_c, 1, 80, 0
3, 46969, Note_on_c, 1, 80, 57
3, 46969, Note_on_c, 1, 79, 0
3, 46979, Note_on_c, 1, 67, 0
3, 46980, Note_on_c, 1, 59, 98
3, 46985, Note_on_c, 1, 79, 55
3, 46986, Note_on_c, 1, 80, 0
3, 47000, Note_on_c, 1, 80, 59
3, 47000, Note_on_c, 1, 79, 0
3, 47009, Note_on_c, 1, 59, 0
3, 47010, Note_on_c, 1, 67, 105
3, 47014, Note_on_c, 1, 80, 0
3, 47015, Note_on_c, 1, 79, 52
3, 47028, Note_on_c, 1, 80, 57
3, 47028, Note_on_c, 1, 79, 0
3, 47039, Note_on_c, 1, 67, 0
3, 47040, Note_on_c, 1, 60, 105
3, 47043, Note_on_c, 1, 80, 0
3, 47044, Note_on_c, 1, 79, 51
3, 47056, Note_on_c, 1, 79, 0
3, 47057, Note_on_c, 1, 80, 57
3, 47069, Note_on_c, 1, 60, 0
3, 47070, Note_on_c, 1, 67, 89
3, 47072, Note_on_c, 1, 80, 0
3, 47073, Note_on_c, 1, 79, 49
3, 47085, Note_on_c, 1, 80, 58
3, 47085, Note_on_c, 1, 79, 0
3, 47099, Note_on_c, 1, 67, 0
3, 47100, Note_on_c, 1, 62, 102
3, 47100, Note_on_c, 1, 79, 56
3, 47101, Note_on_c, 1, 80, 0
3, 47114, Note_on_c, 1, 79, 0
3, 47116, Note_on_c, 1, 80, 58
3, 47129, Note_on_c, 1, 79, 49
3, 47129, Note_on_c, 1, 80, 0
3, 47129, Note_on_c, 1, 62, 0
3, 47130, Note_on_c, 1, 67, 95
3, 47142, Note_on_c, 1, 79, 0
3, 47143, Note_on_c, 1, 80, 66
3, 47157, Note_on_c, 1, 79, 80
3, 47158, Note_on_c, 1, 80, 0
3, 47159, Note_on_c, 1, 67, 0
3, 47160, Note_on_c, 1, 63, 110
3, 47160, Note_on_c, 1, 79, 47
3, 47187, Note_on_c, 1, 79, 0
3, 47189, Note_on_c, 1, 79, 0
3, 47190, Note_on_c, 1, 79, 95
3, 47219, Note_on_c, 1, 79, 0
3, 47219, Note_on_c, 1, 63, 0
3, 47220, Note_on_c, 1, 62, 82
3, 47220, Note_on_c, 1, 77, 102
3, 47249, Note_on_c, 1, 77, 0
3, 47250, Note_on_c, 1, 79, 102
3, 47279, Note_on_c, 1, 79, 0
3, 47279, Note_on_c, 1, 62, 0
3, 47280, Note_on_c, 1, 67, 98
3, 47280, Note_on_c, 1, 75, 113
3, 47309, Note_on_c, 1, 75, 0
3, 47309, Note_on_c, 1, 67, 0
3, 47310, Note_on_c, 1, 68, 102
3, 47310, Note_on_c, 1, 77, 91
3, 47339, Note_on_c, 1, 77, 0
3, 47339, Note_on_c, 1, 68, 0
3, 47340, Note_on_c, 1, 65, 85
3, 47340, Note_on_c, 1, 74, 102
3, 47369, Note_on_c, 1, 74, 0
3, 47369, Note_on_c, 1, 65, 0
3, 47370, Note_on_c, 1, 67, 95
3, 47370, Note_on_c, 1, 75, 105
3, 47399, Note_on_c, 1, 75, 0
3, 47399, Note_on_c, 1, 67, 0
3, 47400, Note_on_c, 1, 63, 100
3, 47400, Note_on_c, 1, 72, 100
3, 47429, Note_on_c, 1, 72, 0
3, 47430, Note_on_c, 1, 77, 100
3, 47459, Note_on_c, 1, 77, 0
3, 47459, Note_on_c, 1, 63, 0
3, 47460, Note_on_c, 1, 60, 89
3, 47460, Note_on_c, 1, 75, 107
3, 47489, Note_on_c, 1, 75, 0
3, 47490, Note_on_c, 1, 77, 87
3, 47519, Note_on_c, 1, 77, 0
3, 47519, Note_on_c, 1, 60, 0
3, 47520, Note_on_c, 1, 65, 102
3, 47520, Note_on_c, 1, 74, 91
3, 47549, Note_on_c, 1, 74, 0
3, 47549, Note_on_c, 1, 65, 0
3, 47550, Note_on_c, 1, 67, 98
3, 47550, Note_on_c, 1, 75, 68
3, 47579, Note_on_c, 1, 75, 0
3, 47579, Note_on_c, 1, 67, 0
3, 47580, Note_on_c, 1, 63, 105
3, 47580, Note_on_c, 1, 72, 87
3, 47609, Note_on_c, 1, 72, 0
3, 47609, Note_on_c, 1, 63, 0
3, 47610, Note_on_c, 1, 65, 78
3, 47610, Note_on_c, 1, 74, 72
3, 47639, Note_on_c, 1, 74, 0
3, 47639, Note_on_c, 1, 65, 0
3, 47640, Note_on_c, 1, 62, 85
3, 47640, Note_on_c, 1, 70, 98
3, 47669, Note_on_c, 1, 70, 0
3, 47670, Note_on_c, 1, 75, 85
3, 47699, Note_on_c, 1, 75, 0
3, 47699, Note_on_c, 1, 62, 0
3, 47700, Note_on_c, 1, 58, 72
3, 47700, Note_on_c, 1, 74, 82
3, 47729, Note_on_c, 1, 74, 0
3, 47730, Note_on_c, 1, 75, 95
3, 47759, Note_on_c, 1, 75, 0
3, 47759, Note_on_c, 1, 58, 0
3, 47760, Note_on_c, 1, 63, 87
3, 47760, Note_on_c, 1, 72, 93
3, 47789, Note_on_c, 1, 72, 0
3, 47789, Note_on_c, 1, 63, 0
3, 47790, Note_on_c, 1, 65, 87
3, 47790, Note_on_c, 1, 74, 85
3, 47819, Note_on_c, 1, 74, 0
3, 47819, Note_on_c, 1, 65, 0
3, 47820, Note_on_c, 1, 62, 87
3, 47820, Note_on_c, 1, 70, 89
3, 47849, Note_on_c, 1, 70, 0
3, 47849, Note_on_c, 1, 62, 0
3, 47850, Note_on_c, 1, 63, 82
3, 47850, Note_on_c, 1, 72, 68
3, 47879, Note_on_c, 1, 72, 0
3, 47879, Note_on_c, 1, 63, 0
3, 47880, Note_on_c, 1, 60, 78
3, 47880, Note_on_c, 1, 69, 89
3, 47909, Note_on_c, 1, 69, 0
3, 47910, Note_on_c, 1, 74, 91
3, 47939, Note_on_c, 1, 74, 0
3, 47939, Note_on_c, 1, 60, 0
3, 47940, Note_on_c, 1, 66, 107
3, 47940, Note_on_c, 1, 72, 95
3, 47969, Note_on_c, 1, 72, 0
3, 47970, Note_on_c, 1, 74, 87
3, 47999, Note_on_c, 1, 74, 0
3, 47999, Note_on_c, 1, 66, 0
3, 48000, Note_on_c, 1, 67, 89
3, 48000, Note_on_c, 1, 70, 110
3, 48029, Note_on_c, 1, 70, 0
3, 48029, Note_on_c, 1, 67, 0
3, 48030, Note_on_c, 1, 69, 98
3, 48030, Note_on_c, 1, 72, 85
3, 48059, Note_on_c, 1, 72, 0
3, 48059, Note_on_c, 1, 69, 0
3, 48060, Note_on_c, 1, 65, 102
3, 48060, Note_on_c, 1, 69, 105
3, 48089, Note_on_c, 1, 69, 0
3, 48089, Note_on_c, 1, 65, 0
3, 48090, Note_on_c, 1, 67, 95
3, 48090, Note_on_c, 1, 70, 98
3, 48119, Note_on_c, 1, 70, 0
3, 48119, Note_on_c, 1, 67, 0
3, 48120, Note_on_c, 1, 63, 98
3, 48120, Note_on_c, 1, 67, 93
3, 48149, Note_on_c, 1, 67, 0
3, 48149, Note_on_c, 1, 63, 0
3, 48150, Note_on_c, 1, 67, 100
3, 48150, Note_on_c, 1, 70, 107
3, 48179, Note_on_c, 1, 70, 0
3, 48179, Note_on_c, 1, 67, 0
3, 48180, Note_on_c, 1, 66, 105
3, 48180, Note_on_c, 1, 69, 95
3, 48209, Note_on_c, 1, 69, 0
3, 48209, Note_on_c, 1, 66, 0
3, 48210, Note_on_c, 1, 67, 98
3, 48210, Note_on_c, 1, 70, 102
3, 48239, Note_on_c, 1, 70, 0
3, 48239, Note_on_c, 1, 67, 0
3, 48240, Note_on_c, 1, 69, 100
3, 48240, Note_on_c, 1, 72, 89
3, 48269, Note_on_c, 1, 72, 0
3, 48269, Note_on_c, 1, 69, 0
3, 48270, Note_on_c, 1, 67, 100
3, 48270, Note_on_c, 1, 70, 107
3, 48299, Note_on_c, 1, 70, 0
3, 48299, Note_on_c, 1, 67, 0
3, 48300, Note_on_c, 1, 66, 105
3, 48300, Note_on_c, 1, 69, 98
3, 48329, Note_on_c, 1, 69, 0
3, 48329, Note_on_c, 1, 66, 0
3, 48330, Note_on_c, 1, 64, 95
3, 48330, Note_on_c, 1, 67, 87
3, 48359, Note_on_c, 1, 67, 0
3, 48359, Note_on_c, 1, 64, 0
3, 48360, Note_on_c, 1, 66, 105
3, 48390, Note_on_c, 1, 62, 98
3, 48419, Note_on_c, 1, 62, 0
3, 48419, Note_on_c, 1, 66, 0
3, 48420, Note_on_c, 1, 60, 100
3, 48420, Note_on_c, 1, 69, 91
3, 48449, Note_on_c, 1, 60, 0
3, 48450, Note_on_c, 1, 62, 102
3, 48479, Note_on_c, 1, 62, 0
3, 48479, Note_on_c, 1, 69, 0
3, 48480, Note_on_c, 1, 58, 110
3, 48480, Note_on_c, 1, 74, 91
3, 48509, Note_on_c, 1, 74, 0
3, 48509, Note_on_c, 1, 58, 0
3, 48510, Note_on_c, 1, 62, 91
3, 48510, Note_on_c, 1, 67, 98
3, 48539, Note_on_c, 1, 67, 0
3, 48539, Note_on_c, 1, 62, 0
3, 48540, Note_on_c, 1, 57, 100
3, 48540, Note_on_c, 1, 72, 85
3, 48569, Note_on_c, 1, 72, 0
3, 48569, Note_on_c, 1, 57, 0
3, 48570, Note_on_c, 1, 62, 100
3, 48570, Note_on_c, 1, 66, 102
3, 48599, Note_on_c, 1, 66, 0
3, 48599, Note_on_c, 1, 62, 0
3, 48600, Note_on_c, 1, 55, 89
3, 48600, Note_on_c, 1, 70, 95
3, 48629, Note_on_c, 1, 70, 0
3, 48629, Note_on_c, 1, 55, 0
3, 48630, Note_on_c, 1, 62, 87
3, 48630, Note_on_c, 1, 67, 89
3, 48659, Note_on_c, 1, 67, 0
3, 48659, Note_on_c, 1, 62, 0
3, 48660, Note_on_c, 1, 54, 89
3, 48660, Note_on_c, 1, 74, 98
3, 48689, Note_on_c, 1, 74, 0
3, 48689, Note_on_c, 1, 54, 0
3, 48690, Note_on_c, 1, 62, 87
3, 48690, Note_on_c, 1, 69, 100
3, 48719, Note_on_c, 1, 69, 0
3, 48719, Note_on_c, 1, 62, 0
3, 48720, Note_on_c, 1, 55, 78
3, 48720, Note_on_c, 1, 70, 105
3, 48749, Note_on_c, 1, 70, 0
3, 48749, Note_on_c, 1, 55, 0
3, 48750, Note_on_c, 1, 62, 85
3, 48750, Note_on_c, 1, 66, 107
3, 48779, Note_on_c, 1, 66, 0
3, 48779, Note_on_c, 1, 62, 0
3, 48780, Note_on_c, 1, 57, 85
3, 48780, Note_on_c, 1, 69, 93
3, 48809, Note_on_c, 1, 69, 0
3, 48809, Note_on_c, 1, 57, 0
3, 48810, Note_on_c, 1, 62, 89
3, 48810, Note_on_c, 1, 66, 102
3, 48839, Note_on_c, 1, 66, 0
3, 48839, Note_on_c, 1, 62, 0
3, 48840, Note_on_c, 1, 58, 102
3, 48840, Note_on_c, 1, 67, 85
3, 48840, Note_on_c, 1, 67, 70
3, 48869, Note_on_c, 1, 67, 0
3, 48869, Note_on_c, 1, 67, 0
3, 48869, Note_on_c, 1, 58, 0
3, 48870, Note_on_c, 1, 62, 85
3, 48870, Note_on_c, 1, 74, 82
3, 48899, Note_on_c, 1, 74, 0
3, 48899, Note_on_c, 1, 62, 0
3, 48900, Note_on_c, 1, 50, 72
3, 48900, Note_on_c, 1, 66, 80
3, 48929, Note_on_c, 1, 66, 0
3, 48930, Note_on_c, 1, 62, 82
3, 48930, Note_on_c, 1, 74, 82
3, 48959, Note_on_c, 1, 74, 0
3, 48959, Note_on_c, 1, 62, 0
3, 48959, Note_on_c, 1, 50, 0
3, 48960, Note_on_c, 1, 52, 80
3, 48960, Note_on_c, 1, 67, 82
3, 48989, Note_on_c, 1, 67, 0
3, 48989, Note_on_c, 1, 52, 0
3, 48990, Note_on_c, 1, 62, 89
3, 48990, Note_on_c, 1, 74, 82
3, 49019, Note_on_c, 1, 74, 0
3, 49019, Note_on_c, 1, 62, 0
3, 49020, Note_on_c, 1, 54, 85
3, 49020, Note_on_c, 1, 69, 87
3, 49049, Note_on_c, 1, 69, 0
3, 49049, Note_on_c, 1, 54, 0
3, 49050, Note_on_c, 1, 62, 87
3, 49050, Note_on_c, 1, 74, 80
3, 49079, Note_on_c, 1, 74, 0
3, 49079, Note_on_c, 1, 62, 0
3, 49080, Note_on_c, 1, 55, 85
3, 49080, Note_on_c, 1, 70, 100
3, 49109, Note_on_c, 1, 70, 0
3, 49109, Note_on_c, 1, 55, 0
3, 49110, Note_on_c, 1, 62, 85
3, 49110, Note_on_c, 1, 67, 85
3, 49139, Note_on_c, 1, 67, 0
3, 49139, Note_on_c, 1, 62, 0
3, 49140, Note_on_c, 1, 54, 87
3, 49140, Note_on_c, 1, 74, 82
3, 49169, Note_on_c, 1, 74, 0
3, 49170, Note_on_c, 1, 62, 82
3, 49170, Note_on_c, 1, 69, 89
3, 49199, Note_on_c, 1, 69, 0
3, 49199, Note_on_c, 1, 62, 0
3, 49199, Note_on_c, 1, 54, 0
3, 49200, Note_on_c, 1, 55, 80
3, 49200, Note_on_c, 1, 70, 82
3, 49229, Note_on_c, 1, 70, 0
3, 49229, Note_on_c, 1, 55, 0
3, 49230, Note_on_c, 1, 62, 93
3, 49230, Note_on_c, 1, 67, 82
3, 49259, Note_on_c, 1, 67, 0
3, 49259, Note_on_c, 1, 62, 0
3, 49260, Note_on_c, 1, 57, 91
3, 49260, Note_on_c, 1, 72, 82
3, 49289, Note_on_c, 1, 72, 0
3, 49289, Note_on_c, 1, 57, 0
3, 49290, Note_on_c, 1, 62, 80
3, 49290, Note_on_c, 1, 69, 85
3, 49319, Note_on_c, 1, 69, 0
3, 49319, Note_on_c, 1, 62, 0
3, 49320, Note_on_c, 1, 58, 105
3, 49320, Note_on_c, 1, 74, 80
3, 49349, Note_on_c, 1, 74, 0
3, 49350, Note_on_c, 1, 72, 80
3, 49379, Note_on_c, 1, 72, 0
3, 49379, Note_on_c, 1, 58, 0
3, 49380, Note_on_c, 1, 57, 93
3, 49380, Note_on_c, 1, 70, 76
3, 49409, Note_on_c, 1, 70, 0
3, 49410, Note_on_c, 1, 69, 82
3, 49439, Note_on_c, 1, 69, 0
3, 49439, Note_on_c, 1, 57, 0
3, 49440, Note_on_c, 1, 55, 107
3, 49440, Note_on_c, 1, 70, 82
3, 49469, Note_on_c, 1, 70, 0
3, 49470, Note_on_c, 1, 69, 89
3, 49499, Note_on_c, 1, 69, 0
3, 49500, Note_on_c, 1, 70, 82
3, 49529, Note_on_c, 1, 70, 0
3, 49530, Note_on_c, 1, 67, 80
3, 49559, Note_on_c, 1, 67, 0
3, 49560, Note_on_c, 1, 69, 91
3, 49589, Note_on_c, 1, 69, 0
3, 49590, Note_on_c, 1, 70, 87
3, 49619, Note_on_c, 1, 70, 0
3, 49620, Note_on_c, 1, 72, 78
3, 49649, Note_on_c, 1, 72, 0
3, 49650, Note_on_c, 1, 74, 100
3, 49679, Note_on_c, 1, 74, 0
3, 49679, Note_on_c, 1, 55, 0
3, 49680, Note_on_c, 1, 54, 102
3, 49680, Note_on_c, 1, 75, 85
3, 49709, Note_on_c, 1, 75, 0
3, 49710, Note_on_c, 1, 74, 80
3, 49739, Note_on_c, 1, 74, 0
3, 49740, Note_on_c, 1, 72, 80
3, 49769, Note_on_c, 1, 72, 0
3, 49770, Note_on_c, 1, 74, 82
3, 49799, Note_on_c, 1, 74, 0
3, 49799, Note_on_c, 1, 54, 0
3, 49800, Note_on_c, 1, 55, 87
3, 49800, Note_on_c, 1, 70, 80
3, 49829, Note_on_c, 1, 70, 0
3, 49830, Note_on_c, 1, 72, 80
3, 49859, Note_on_c, 1, 72, 0
3, 49859, Note_on_c, 1, 55, 0
3, 49860, Note_on_c, 1, 57, 98
3, 49860, Note_on_c, 1, 69, 89
3, 49889, Note_on_c, 1, 69, 0
3, 49890, Note_on_c, 1, 70, 82
3, 49919, Note_on_c, 1, 70, 0
3, 49919, Note_on_c, 1, 57, 0
3, 49920, Note_on_c, 1, 58, 91
3, 49920, Note_on_c, 1, 67, 85
3, 49949, Note_on_c, 1, 67, 0
3, 49949, Note_on_c, 1, 58, 0
3, 49950, Note_on_c, 1, 57, 98
3, 49979, Note_on_c, 1, 57, 0
3, 49980, Note_on_c, 1, 55, 107
3, 49980, Note_on_c, 1, 71, 85
3, 50009, Note_on_c, 1, 55, 0
3, 50010, Note_on_c, 1, 53, 85
3, 50039, Note_on_c, 1, 53, 0
3, 50039, Note_on_c, 1, 71, 0
3, 50040, Note_on_c, 1, 51, 98
3, 50040, Note_on_c, 1, 72, 72
3, 50069, Note_on_c, 1, 72, 0
3, 50070, Note_on_c, 1, 75, 93
3, 50099, Note_on_c, 1, 75, 0
3, 50099, Note_on_c, 1, 51, 0
3, 50100, Note_on_c, 1, 63, 102
3, 50100, Note_on_c, 1, 77, 87
3, 50129, Note_on_c, 1, 77, 0
3, 50130, Note_on_c, 1, 79, 85
3, 50159, Note_on_c, 1, 79, 0
3, 50159, Note_on_c, 1, 63, 0
3, 50160, Note_on_c, 1, 62, 87
3, 50160, Note_on_c, 1, 80, 85
3, 50189, Note_on_c, 1, 80, 0
3, 50190, Note_on_c, 1, 79, 72
3, 50219, Note_on_c, 1, 79, 0
3, 50220, Note_on_c, 1, 77, 87
3, 50249, Note_on_c, 1, 77, 0
3, 50250, Note_on_c, 1, 79, 78
3, 50279, Note_on_c, 1, 79, 0
3, 50279, Note_on_c, 1, 62, 0
3, 50280, Note_on_c, 1, 60, 107
3, 50280, Note_on_c, 1, 75, 85
3, 50309, Note_on_c, 1, 75, 0
3, 50310, Note_on_c, 1, 77, 68
3, 50339, Note_on_c, 1, 77, 0
3, 50339, Note_on_c, 1, 60, 0
3, 50340, Note_on_c, 1, 62, 105
3, 50340, Note_on_c, 1, 74, 105
3, 50369, Note_on_c, 1, 74, 0
3, 50370, Note_on_c, 1, 75, 100
3, 50399, Note_on_c, 1, 75, 0
3, 50399, Note_on_c, 1, 62, 0
3, 50400, Note_on_c, 1, 63, 110
3, 50400, Note_on_c, 1, 72, 89
3, 50429, Note_on_c, 1, 63, 0
3, 50430, Note_on_c, 1, 65, 87
3, 50459, Note_on_c, 1, 65, 0
3, 50459, Note_on_c, 1, 72, 0
3, 50460, Note_on_c, 1, 62, 105
3, 50460, Note_on_c, 1, 70, 110
3, 50489, Note_on_c, 1, 62, 0
3, 50490, Note_on_c, 1, 63, 95
3, 50519, Note_on_c, 1, 63, 0
3, 50519, Note_on_c, 1, 70, 0
3, 50520, Note_on_c, 1, 60, 87
3, 50520, Note_on_c, 1, 69, 102
3, 50549, Note_on_c, 1, 60, 0
3, 50550, Note_on_c, 1, 63, 107
3, 50579, Note_on_c, 1, 63, 0
3, 50579, Note_on_c, 1, 69, 0
3, 50580, Note_on_c, 1, 62, 98
3, 50580, Note_on_c, 1, 70, 105
3, 50609, Note_on_c, 1, 62, 0
3, 50610, Note_on_c, 1, 65, 102
3, 50639, Note_on_c, 1, 65, 0
3, 50640, Note_on_c, 1, 67, 100
3, 50669, Note_on_c, 1, 67, 0
3, 50670, Note_on_c, 1, 65, 100
3, 50699, Note_on_c, 1, 65, 0
3, 50699, Note_on_c, 1, 70, 0
3, 50700, Note_on_c, 1, 63, 105
3, 50700, Note_on_c, 1, 69, 105
3, 50729, Note_on_c, 1, 63, 0
3, 50730, Note_on_c, 1, 65, 85
3, 50759, Note_on_c, 1, 65, 0
3, 50760, Note_on_c, 1, 62, 95
3, 50789, Note_on_c, 1, 62, 0
3, 50790, Note_on_c, 1, 58, 82
3, 50819, Note_on_c, 1, 58, 0
3, 50819, Note_on_c, 1, 69, 0
3, 50820, Note_on_c, 1, 63, 80
3, 50820, Note_on_c, 1, 67, 110
3, 50849, Note_on_c, 1, 63, 0
3, 50850, Note_on_c, 1, 62, 87
3, 50879, Note_on_c, 1, 62, 0
3, 50880, Note_on_c, 1, 61, 80
3, 50909, Note_on_c, 1, 61, 0
3, 50910, Note_on_c, 1, 57, 80
3, 50939, Note_on_c, 1, 57, 0
3, 50939, Note_on_c, 1, 67, 0
3, 50940, Note_on_c, 1, 62, 91
3, 50940, Note_on_c, 1, 66, 105
3, 50969, Note_on_c, 1, 62, 0
3, 50970, Note_on_c, 1, 60, 87
3, 50999, Note_on_c, 1, 60, 0
3, 50999, Note_on_c, 1, 66, 0
3, 51000, Note_on_c, 1, 59, 87
3, 51000, Note_on_c, 1, 65, 89
3, 51029, Note_on_c, 1, 59, 0
3, 51030, Note_on_c, 1, 55, 85
3, 51059, Note_on_c, 1, 55, 0
3, 51059, Note_on_c, 1, 65, 0
3, 51060, Note_on_c, 1, 60, 80
3, 51060, Note_on_c, 1, 63, 93
3, 51089, Note_on_c, 1, 60, 0
3, 51090, Note_on_c, 1, 58, 85
3, 51119, Note_on_c, 1, 58, 0
3, 51120, Note_on_c, 1, 57, 82
3, 51149, Note_on_c, 1, 57, 0
3, 51150, Note_on_c, 1, 53, 82
3, 51175, Note_on_c, 1, 62, 85
3, 51179, Note_on_c, 1, 53, 0
3, 51179, Note_on_c, 1, 63, 0
3, 51180, Note_on_c, 1, 58, 74
3, 51207, Note_on_c, 1, 70, 95
3, 51209, Note_on_c, 1, 58, 0
3, 51210, Note_on_c, 1, 62, 85
3, 51213, Note_on_c, 1, 62, 0
3, 51238, Note_on_c, 1, 69, 91
3, 51239, Note_on_c, 1, 62, 0
3, 51239, Note_on_c, 1, 70, 0
3, 51240, Note_on_c, 1, 60, 91
3, 51240, Note_on_c, 1, 69, 102
3, 51269, Note_on_c, 1, 69, 0
3, 51269, Note_on_c, 1, 60, 0
3, 51270, Note_on_c, 1, 62, 93
3, 51270, Note_on_c, 1, 70, 93
3, 51274, Note_on_c, 1, 69, 0
3, 51299, Note_on_c, 1, 70, 0
3, 51299, Note_on_c, 1, 62, 0
3, 51300, Note_on_c, 1, 60, 80
3, 51300, Note_on_c, 1, 69, 91
3, 51329, Note_on_c, 1, 69, 0
3, 51329, Note_on_c, 1, 60, 0
3, 51330, Note_on_c, 1, 58, 102
3, 51330, Note_on_c, 1, 67, 82
3, 51359, Note_on_c, 1, 67, 0
3, 51359, Note_on_c, 1, 58, 0
3, 51360, Note_on_c, 1, 57, 72
3, 51360, Note_on_c, 1, 66, 82
3, 51389, Note_on_c, 1, 66, 0
3, 51389, Note_on_c, 1, 57, 0
3, 51390, Note_on_c, 1, 60, 85
3, 51390, Note_on_c, 1, 75, 105
3, 51419, Note_on_c, 1, 75, 0
3, 51419, Note_on_c, 1, 60, 0
3, 51420, Note_on_c, 1, 58, 95
3, 51420, Note_on_c, 1, 74, 89
3, 51449, Note_on_c, 1, 74, 0
3, 51449, Note_on_c, 1, 58, 0
3, 51450, Note_on_c, 1, 57, 87
3, 51450, Note_on_c, 1, 72, 82
3, 51479, Note_on_c, 1, 72, 0
3, 51479, Note_on_c, 1, 57, 0
3, 51480, Note_on_c, 1, 55, 82
3, 51480, Note_on_c, 1, 70, 107
3, 51509, Note_on_c, 1, 70, 0
3, 51509, Note_on_c, 1, 55, 0
3, 51510, Note_on_c, 1, 60, 100
3, 51510, Note_on_c, 1, 81, 89
3, 51539, Note_on_c, 1, 81, 0
3, 51539, Note_on_c, 1, 60, 0
3, 51540, Note_on_c, 1, 58, 89
3, 51540, Note_on_c, 1, 79, 89
3, 51569, Note_on_c, 1, 79, 0
3, 51569, Note_on_c, 1, 58, 0
3, 51570, Note_on_c, 1, 57, 87
3, 51570, Note_on_c, 1, 78, 102
3, 51599, Note_on_c, 1, 78, 0
3, 51599, Note_on_c, 1, 57, 0
3, 51600, Note_on_c, 1, 58, 91
3, 51600, Note_on_c, 1, 79, 100
3, 51629, Note_on_c, 1, 58, 0
3, 51630, Note_on_c, 1, 60, 87
3, 51659, Note_on_c, 1, 60, 0
3, 51660, Note_on_c, 1, 58, 98
3, 51689, Note_on_c, 1, 58, 0
3, 51689, Note_on_c, 1, 79, 0
3, 51690, Note_on_c, 1, 57, 87
3, 51690, Note_on_c, 1, 77, 98
3, 51719, Note_on_c, 1, 77, 0
3, 51719, Note_on_c, 1, 57, 0
3, 51720, Note_on_c, 1, 55, 87
3, 51720, Note_on_c, 1, 75, 110
3, 51749, Note_on_c, 1, 75, 0
3, 51749, Note_on_c, 1, 55, 0
3, 51750, Note_on_c, 1, 57, 82
3, 51750, Note_on_c, 1, 77, 82
3, 51779, Note_on_c, 1, 77, 0
3, 51779, Note_on_c, 1, 57, 0
3, 51780, Note_on_c, 1, 53, 80
3, 51780, Note_on_c, 1, 74, 105
3, 51809, Note_on_c, 1, 74, 0
3, 51809, Note_on_c, 1, 53, 0
3, 51810, Note_on_c, 1, 55, 91
3, 51810, Note_on_c, 1, 75, 98
3, 51839, Note_on_c, 1, 75, 0
3, 51839, Note_on_c, 1, 55, 0
3, 51840, Note_on_c, 1, 52, 102
3, 51840, Note_on_c, 1, 73, 107
3, 51870, Note_on_c, 1, 70, 93
3, 51899, Note_on_c, 1, 70, 0
3, 51900, Note_on_c, 1, 69, 66
3, 51929, Note_on_c, 1, 69, 0
3, 51930, Note_on_c, 1, 67, 80
3, 51959, Note_on_c, 1, 67, 0
3, 51959, Note_on_c, 1, 73, 0
3, 51959, Note_on_c, 1, 52, 0
3, 51960, Note_on_c, 1, 54, 113
3, 51960, Note_on_c, 1, 74, 98
3, 51960, Note_on_c, 1, 69, 82
3, 51990, Note_on_c, 1, 63, 80
3, 52019, Note_on_c, 1, 63, 0
3, 52020, Note_on_c, 1, 62, 87
3, 52049, Note_on_c, 1, 62, 0
3, 52050, Note_on_c, 1, 60, 80
3, 52079, Note_on_c, 1, 60, 0
3, 52079, Note_on_c, 1, 54, 0
3, 52079, Note_on_c, 1, 74, 0
3, 52079, Note_on_c, 1, 69, 0
3, 52080, Note_on_c, 1, 50, 95
3, 52080, Note_on_c, 1, 62, 87
3, 52080, Note_on_c, 1, 72, 87
3, 52080, Note_on_c, 1, 66, 105
3, 52109, Note_on_c, 1, 62, 0
3, 52110, Note_on_c, 1, 60, 85
3, 52139, Note_on_c, 1, 60, 0
3, 52140, Note_on_c, 1, 58, 100
3, 52169, Note_on_c, 1, 58, 0
3, 52170, Note_on_c, 1, 57, 91
3, 52199, Note_on_c, 1, 57, 0
3, 52199, Note_on_c, 1, 66, 0
3, 52199, Note_on_c, 1, 72, 0
3, 52199, Note_on_c, 1, 50, 0
3, 52200, Note_on_c, 1, 70, 110
3, 52200, Note_on_c, 1, 55, 100
3, 52201, Note_on_c, 1, 67, 82
3, 52227, Note_on_c, 1, 65, 85
3, 52233, Note_on_c, 1, 67, 0
3, 52259, Note_on_c, 1, 63, 70
3, 52267, Note_on_c, 1, 65, 0
3, 52286, Note_on_c, 1, 62, 85
3, 52292, Note_on_c, 1, 63, 0
3, 52319, Note_on_c, 1, 70, 0
3, 52319, Note_on_c, 1, 55, 0
3, 52320, Note_on_c, 1, 69, 93
3, 52320, Note_on_c, 1, 57, 100
3, 52321, Note_on_c, 1, 61, 78
3, 52324, Note_on_c, 1, 62, 0
3, 52349, Note_on_c, 1, 57, 0
3, 52350, Note_on_c, 1, 58, 100
3, 52379, Note_on_c, 1, 58, 0
3, 52379, Note_on_c, 1, 69, 0
3, 52380, Note_on_c, 1, 73, 107
3, 52380, Note_on_c, 1, 57, 100
3, 52382, Note_on_c, 1, 64, 85
3, 52386, Note_on_c, 1, 61, 0
3, 52409, Note_on_c, 1, 57, 0
3, 52410, Note_on_c, 1, 55, 105
3, 52427, Note_on_c, 1, 64, 0
3, 52439, Note_on_c, 1, 55, 0
3, 52439, Note_on_c, 1, 73, 0
3, 52440, Note_on_c, 1, 74, 105
3, 52440, Note_on_c, 1, 53, 95
3, 52469, Note_on_c, 1, 53, 0
3, 52470, Note_on_c, 1, 55, 80
3, 52499, Note_on_c, 1, 55, 0
3, 52499, Note_on_c, 1, 74, 0
3, 52500, Note_on_c, 1, 76, 102
3, 52500, Note_on_c, 1, 52, 100
3, 52529, Note_on_c, 1, 52, 0
3, 52530, Note_on_c, 1, 57, 87
3, 52559, Note_on_c, 1, 57, 0
3, 52559, Note_on_c, 1, 76, 0
3, 52560, Note_on_c, 1, 69, 95
3, 52560, Note_on_c, 1, 77, 102
3, 52560, Note_on_c, 1, 50, 100
3, 52590, Note_on_c, 1, 67, 95
3, 52594, Note_on_c, 1, 69, 0
3, 52619, Note_on_c, 1, 69, 98
3, 52622, Note_on_c, 1, 74, 100
3, 52622, Note_on_c, 1, 67, 0
3, 52649, Note_on_c, 1, 65, 89
3, 52651, Note_on_c, 1, 69, 0
3, 52679, Note_on_c, 1, 77, 0
3, 52679, Note_on_c, 1, 50, 0
3, 52680, Note_on_c, 1, 76, 105
3, 52681, Note_on_c, 1, 67, 100
3, 52686, Note_on_c, 1, 65, 0
3, 52713, Note_on_c, 1, 69, 95
3, 52716, Note_on_c, 1, 67, 0
3, 52744, Note_on_c, 1, 67, 102
3, 52747, Note_on_c, 1, 69, 0
3, 52773, Note_on_c, 1, 69, 95
3, 52778, Note_on_c, 1, 67, 0
3, 52802, Note_on_c, 1, 70, 100
3, 52804, Note_on_c, 1, 73, 102
3, 52807, Note_on_c, 1, 69, 0
3, 52810, Note_on_c, 1, 74, 0
3, 52831, Note_on_c, 1, 69, 82
3, 52835, Note_on_c, 1, 70, 0
3, 52862, Note_on_c, 1, 67, 102
3, 52866, Note_on_c, 1, 69, 0
3, 52893, Note_on_c, 1, 69, 95
3, 52898, Note_on_c, 1, 67, 0
3, 52919, Note_on_c, 1, 69, 105
3, 52919, Note_on_c, 1, 76, 0
3, 52920, Note_on_c, 1, 74, 107
3, 52920, Note_on_c, 1, 73, 0
3, 52924, Note_on_c, 1, 65, 100
3, 52925, Note_on_c, 1, 69, 0
3, 52950, Note_on_c, 1, 70, 95
3, 52950, Note_on_c, 1, 67, 82
3, 52955, Note_on_c, 1, 65, 0
3, 52956, Note_on_c, 1, 69, 0
3, 52979, Note_on_c, 1, 67, 82
3, 52979, Note_on_c, 1, 70, 0
3, 52980, Note_on_c, 1, 64, 102
3, 52984, Note_on_c, 1, 67, 0
3, 53007, Note_on_c, 1, 69, 102
3, 53008, Note_on_c, 1, 65, 82
3, 53011, Note_on_c, 1, 67, 0
3, 53015, Note_on_c, 1, 64, 0
3, 53038, Note_on_c, 1, 65, 87
3, 53038, Note_on_c, 1, 69, 0
3, 53040, Note_on_c, 1, 62, 87
3, 53041, Note_on_c, 1, 65, 0
3, 53069, Note_on_c, 1, 60, 82
3, 53076, Note_on_c, 1, 62, 0
3, 53097, Note_on_c, 1, 69, 105
3, 53098, Note_on_c, 1, 58, 78
3, 53099, Note_on_c, 1, 74, 0
3, 53100, Note_on_c, 1, 77, 102
3, 53100, Note_on_c, 1, 65, 0
3, 53106, Note_on_c, 1, 60, 0
3, 53130, Note_on_c, 1, 57, 78
3, 53135, Note_on_c, 1, 58, 0
3, 53159, Note_on_c, 1, 77, 0
3, 53160, Note_on_c, 1, 58, 91
3, 53160, Note_on_c, 1, 79, 100
3, 53162, Note_on_c, 1, 67, 107
3, 53162, Note_on_c, 1, 57, 0
3, 53163, Note_on_c, 1, 69, 0
3, 53190, Note_on_c, 1, 57, 82
3, 53190, Note_on_c, 1, 58, 0
3, 53219, Note_on_c, 1, 55, 85
3, 53219, Note_on_c, 1, 79, 0
3, 53220, Note_on_c, 1, 69, 100
3, 53220, Note_on_c, 1, 74, 100
3, 53224, Note_on_c, 1, 57, 0
3, 53224, Note_on_c, 1, 67, 0
3, 53250, Note_on_c, 1, 53, 74
3, 53256, Note_on_c, 1, 55, 0
3, 53278, Note_on_c, 1, 67, 105
3, 53279, Note_on_c, 1, 74, 0
3, 53280, Note_on_c, 1, 73, 100
3, 53281, Note_on_c, 1, 52, 82
3, 53281, Note_on_c, 1, 69, 0
3, 53286, Note_on_c, 1, 53, 0
3, 53309, Note_on_c, 1, 53, 74
3, 53309, Note_on_c, 1, 52, 0
3, 53339, Note_on_c, 1, 52, 82
3, 53339, Note_on_c, 1, 73, 0
3, 53340, Note_on_c, 1, 74, 91
3, 53342, Note_on_c, 1, 65, 102
3, 53343, Note_on_c, 1, 53, 0
3, 53345, Note_on_c, 1, 67, 0
3, 53367, Note_on_c, 1, 50, 85
3, 53371, Note_on_c, 1, 52, 0
3, 53398, Note_on_c, 1, 49, 70
3, 53399, Note_on_c, 1, 74, 0
3, 53400, Note_on_c, 1, 76, 98
3, 53403, Note_on_c, 1, 67, 85
3, 53403, Note_on_c, 1, 50, 0
3, 53407, Note_on_c, 1, 65, 0
3, 53428, Note_on_c, 1, 45, 85
3, 53430, Note_on_c, 1, 49, 0
3, 53458, Note_on_c, 1, 50, 91
3, 53459, Note_on_c, 1, 76, 0
3, 53460, Note_on_c, 1, 74, 100
3, 53462, Note_on_c, 1, 45, 0
3, 53463, Note_on_c, 1, 65, 98
3, 53466, Note_on_c, 1, 67, 0
3, 53490, Note_on_c, 1, 45, 87
3, 53493, Note_on_c, 1, 50, 0
3, 53519, Note_on_c, 1, 74, 0
3, 53520, Note_on_c, 1, 52, 87
3, 53520, Note_on_c, 1, 73, 102
3, 53523, Note_on_c, 1, 64, 85
3, 53525, Note_on_c, 1, 65, 0
3, 53525, Note_on_c, 1, 45, 0
3, 53549, Note_on_c, 1, 45, 70
3, 53555, Note_on_c, 1, 52, 0
3, 53579, Note_on_c, 1, 73, 0
3, 53580, Note_on_c, 1, 53, 82
3, 53580, Note_on_c, 1, 74, 93
3, 53584, Note_on_c, 1, 45, 0
3, 53586, Note_on_c, 1, 69, 91
3, 53591, Note_on_c, 1, 64, 0
3, 53609, Note_on_c, 1, 45, 80
3, 53614, Note_on_c, 1, 53, 0
3, 53639, Note_on_c, 1, 55, 82
3, 53639, Note_on_c, 1, 74, 0
3, 53640, Note_on_c, 1, 76, 93
3, 53644, Note_on_c, 1, 70, 82
3, 53645, Note_on_c, 1, 45, 0
3, 53651, Note_on_c, 1, 69, 0
3, 53666, Note_on_c, 1, 45, 82
3, 53672, Note_on_c, 1, 55, 0
3, 53696, Note_on_c, 1, 53, 78
3, 53699, Note_on_c, 1, 69, 89
3, 53699, Note_on_c, 1, 76, 0
3, 53700, Note_on_c, 1, 74, 100
3, 53701, Note_on_c, 1, 45, 0
3, 53704, Note_on_c, 1, 70, 0
3, 53725, Note_on_c, 1, 45, 70
3, 53737, Note_on_c, 1, 53, 0
3, 53756, Note_on_c, 1, 67, 91
3, 53756, Note_on_c, 1, 52, 85
3, 53759, Note_on_c, 1, 74, 0
3, 53760, Note_on_c, 1, 73, 105
3, 53760, Note_on_c, 1, 69, 0
3, 53761, Note_on_c, 1, 45, 0
3, 53786, Note_on_c, 1, 45, 72
3, 53791, Note_on_c, 1, 52, 0
3, 53815, Note_on_c, 1, 65, 78
3, 53816, Note_on_c, 1, 50, 85
3, 53816, Note_on_c, 1, 67, 0
3, 53819, Note_on_c, 1, 73, 0
3, 53820, Note_on_c, 1, 74, 89
3, 53820, Note_on_c, 1, 45, 0
3, 53844, Note_on_c, 1, 45, 68
3, 53850, Note_on_c, 1, 50, 0
3, 53873, Note_on_c, 1, 69, 80
3, 53879, Note_on_c, 1, 49, 82
3, 53879, Note_on_c, 1, 74, 0
3, 53879, Note_on_c, 1, 65, 0
3, 53880, Note_on_c, 1, 76, 93
3, 53884, Note_on_c, 1, 45, 0
3, 53906, Note_on_c, 1, 57, 72
3, 53909, Note_on_c, 1, 49, 0
3, 53934, Note_on_c, 1, 76, 89
3, 53937, Note_on_c, 1, 45, 78
3, 53938, Note_on_c, 1, 69, 0
3, 53939, Note_on_c, 1, 76, 0
3, 53940, Note_on_c, 1, 79, 87
3, 53941, Note_on_c, 1, 57, 0
3, 53965, Note_on_c, 1, 57, 82
3, 53968, Note_on_c, 1, 45, 0
3, 53994, Note_on_c, 1, 74, 87
3, 53995, Note_on_c, 1, 50, 80
3, 53999, Note_on_c, 1, 79, 0
3, 53999, Note_on_c, 1, 57, 0
3, 54000, Note_on_c, 1, 77, 91
3, 54001, Note_on_c, 1, 76, 0
3, 54025, Note_on_c, 1, 57, 70
3, 54030, Note_on_c, 1, 50, 0
3, 54054, Note_on_c, 1, 53, 74
3, 54055, Note_on_c, 1, 69, 82
3, 54058, Note_on_c, 1, 57, 0
3, 54059, Note_on_c, 1, 77, 0
3, 54060, Note_on_c, 1, 74, 87
3, 54060, Note_on_c, 1, 74, 0
3, 54083, Note_on_c, 1, 53, 0
3, 54085, Note_on_c, 1, 62, 76
3, 54114, Note_on_c, 1, 55, 76
3, 54116, Note_on_c, 1, 67, 82
3, 54117, Note_on_c, 1, 69, 0
3, 54118, Note_on_c, 1, 62, 0
3, 54119, Note_on_c, 1, 74, 0
3, 54120, Note_on_c, 1, 70, 82
3, 54145, Note_on_c, 1, 62, 68
3, 54153, Note_on_c, 1, 55, 0
3, 54172, Note_on_c, 1, 67, 0
3, 54174, Note_on_c, 1, 52, 70
3, 54178, Note_on_c, 1, 67, 85
3, 54178, Note_on_c, 1, 62, 0
3, 54179, Note_on_c, 1, 70, 0
3, 54180, Note_on_c, 1, 76, 85
3, 54204, Note_on_c, 1, 61, 80
3, 54207, Note_on_c, 1, 52, 0
3, 54235, Note_on_c, 1, 69, 82
3, 54235, Note_on_c, 1, 53, 72
3, 54239, Note_on_c, 1, 76, 0
3, 54240, Note_on_c, 1, 74, 95
3, 54240, Note_on_c, 1, 61, 0
3, 54242, Note_on_c, 1, 67, 0
3, 54266, Note_on_c, 1, 62, 72
3, 54267, Note_on_c, 1, 53, 0
3, 54295, Note_on_c, 1, 65, 85
3, 54295, Note_on_c, 1, 50, 85
3, 54298, Note_on_c, 1, 69, 0
3, 54298, Note_on_c, 1, 62, 0
3, 54299, Note_on_c, 1, 74, 0
3, 54300, Note_on_c, 1, 74, 105
3, 54323, Note_on_c, 1, 62, 82
3, 54352, Note_on_c, 1, 62, 0
3, 54356, Note_on_c, 1, 57, 87
3, 54356, Note_on_c, 1, 64, 89
3, 54356, Note_on_c, 1, 50, 0
3, 54358, Note_on_c, 1, 65, 0
3, 54359, Note_on_c, 1, 74, 0
3, 54360, Note_on_c, 1, 73, 102
3, 54387, Note_on_c, 1, 69, 82
3, 54394, Note_on_c, 1, 64, 0
3, 54419, Note_on_c, 1, 67, 91
3, 54424, Note_on_c, 1, 69, 0
3, 54449, Note_on_c, 1, 69, 100
3, 54454, Note_on_c, 1, 67, 0
3, 54478, Note_on_c, 1, 65, 102
3, 54479, Note_on_c, 1, 73, 0
3, 54480, Note_on_c, 1, 74, 98
3, 54483, Note_on_c, 1, 69, 0
3, 54508, Note_on_c, 1, 69, 98
3, 54512, Note_on_c, 1, 65, 0
3, 54539, Note_on_c, 1, 64, 102
3, 54539, Note_on_c, 1, 74, 0
3, 54540, Note_on_c, 1, 76, 105
3, 54544, Note_on_c, 1, 69, 0
3, 54568, Note_on_c, 1, 69, 89
3, 54576, Note_on_c, 1, 64, 0
3, 54598, Note_on_c, 1, 62, 89
3, 54599, Note_on_c, 1, 76, 0
3, 54600, Note_on_c, 1, 77, 100
3, 54601, Note_on_c, 1, 69, 0
3, 54626, Note_on_c, 1, 69, 87
3, 54630, Note_on_c, 1, 69, 93
3, 54632, Note_on_c, 1, 62, 0
3, 54656, Note_on_c, 1, 61, 89
3, 54659, Note_on_c, 1, 77, 0
3, 54659, Note_on_c, 1, 69, 0
3, 54660, Note_on_c, 1, 61, 91
3, 54660, Note_on_c, 1, 76, 102
3, 54660, Note_on_c, 1, 69, 0
3, 54686, Note_on_c, 1, 69, 82
3, 54689, Note_on_c, 1, 61, 0
3, 54690, Note_on_c, 1, 69, 85
3, 54693, Note_on_c, 1, 61, 0
3, 54701, Note_on_c, 1, 69, 0
3, 54719, Note_on_c, 1, 76, 0
3, 54719, Note_on_c, 1, 69, 0
3, 54720, Note_on_c, 1, 62, 87
3, 54720, Note_on_c, 1, 77, 98
3, 54749, Note_on_c, 1, 62, 0
3, 54750, Note_on_c, 1, 69, 98
3, 54779, Note_on_c, 1, 69, 0
3, 54779, Note_on_c, 1, 77, 0
3, 54780, Note_on_c, 1, 64, 102
3, 54780, Note_on_c, 1, 73, 100
3, 54804, Note_on_c, 1, 57, 0
3, 54809, Note_on_c, 1, 64, 0
3, 54810, Note_on_c, 1, 69, 95
3, 54839, Note_on_c, 1, 69, 0
3, 54839, Note_on_c, 1, 73, 0
3, 54840, Note_on_c, 1, 65, 102
3, 54840, Note_on_c, 1, 74, 91
3, 54869, Note_on_c, 1, 65, 0
3, 54870, Note_on_c, 1, 69, 102
3, 54899, Note_on_c, 1, 69, 0
3, 54899, Note_on_c, 1, 74, 0
3, 54900, Note_on_c, 1, 57, 89
3, 54900, Note_on_c, 1, 73, 100
3, 54930, Note_on_c, 1, 69, 100
3, 54959, Note_on_c, 1, 69, 0
3, 54959, Note_on_c, 1, 73, 0
3, 54960, Note_on_c, 1, 59, 91
3, 54960, Note_on_c, 1, 74, 89
3, 54989, Note_on_c, 1, 59, 0
3, 54990, Note_on_c, 1, 69, 102
3, 55019, Note_on_c, 1, 69, 0
3, 55019, Note_on_c, 1, 74, 0
3, 55020, Note_on_c, 1, 61, 105
3, 55020, Note_on_c, 1, 76, 98
3, 55049, Note_on_c, 1, 61, 0
3, 55050, Note_on_c, 1, 69, 93
3, 55079, Note_on_c, 1, 69, 0
3, 55079, Note_on_c, 1, 76, 0
3, 55080, Note_on_c, 1, 62, 105
3, 55080, Note_on_c, 1, 77, 89
3, 55109, Note_on_c, 1, 62, 0
3, 55110, Note_on_c, 1, 69, 87
3, 55139, Note_on_c, 1, 69, 0
3, 55139, Note_on_c, 1, 77, 0
3, 55140, Note_on_c, 1, 61, 105
3, 55140, Note_on_c, 1, 76, 78
3, 55169, Note_on_c, 1, 61, 0
3, 55170, Note_on_c, 1, 69, 89
3, 55199, Note_on_c, 1, 69, 0
3, 55199, Note_on_c, 1, 76, 0
3, 55200, Note_on_c, 1, 62, 82
3, 55200, Note_on_c, 1, 77, 95
3, 55229, Note_on_c, 1, 62, 0
3, 55230, Note_on_c, 1, 69, 98
3, 55259, Note_on_c, 1, 69, 0
3, 55259, Note_on_c, 1, 77, 0
3, 55260, Note_on_c, 1, 64, 98
3, 55260, Note_on_c, 1, 79, 98
3, 55289, Note_on_c, 1, 64, 0
3, 55290, Note_on_c, 1, 69, 93
3, 55319, Note_on_c, 1, 69, 0
3, 55319, Note_on_c, 1, 79, 0
3, 55320, Note_on_c, 1, 65, 102
3, 55320, Note_on_c, 1, 81, 100
3, 55349, Note_on_c, 1, 81, 0
3, 55350, Note_on_c, 1, 82, 95
3, 55379, Note_on_c, 1, 82, 0
3, 55379, Note_on_c, 1, 65, 0
3, 55380, Note_on_c, 1, 64, 98
3, 55380, Note_on_c, 1, 79, 95
3, 55409, Note_on_c, 1, 79, 0
3, 55410, Note_on_c, 1, 81, 102
3, 55439, Note_on_c, 1, 81, 0
3, 55439, Note_on_c, 1, 64, 0
3, 55440, Note_on_c, 1, 62, 102
3, 55440, Note_on_c, 1, 77, 107
3, 55469, Note_on_c, 1, 77, 0
3, 55470, Note_on_c, 1, 79, 78
3, 55499, Note_on_c, 1, 79, 0
3, 55499, Note_on_c, 1, 62, 0
3, 55500, Note_on_c, 1, 67, 82
3, 55500, Note_on_c, 1, 76, 89
3, 55529, Note_on_c, 1, 76, 0
3, 55530, Note_on_c, 1, 77, 80
3, 55559, Note_on_c, 1, 77, 0
3, 55559, Note_on_c, 1, 67, 0
3, 55560, Note_on_c, 1, 65, 98
3, 55560, Note_on_c, 1, 74, 80
3, 55589, Note_on_c, 1, 74, 0
3, 55590, Note_on_c, 1, 69, 76
3, 55619, Note_on_c, 1, 69, 0
3, 55619, Note_on_c, 1, 65, 0
3, 55620, Note_on_c, 1, 64, 100
3, 55620, Note_on_c, 1, 73, 95
3, 55649, Note_on_c, 1, 73, 0
3, 55650, Note_on_c, 1, 69, 82
3, 55679, Note_on_c, 1, 69, 0
3, 55679, Note_on_c, 1, 64, 0
3, 55680, Note_on_c, 1, 65, 100
3, 55680, Note_on_c, 1, 74, 100
3, 55709, Note_on_c, 1, 74, 0
3, 55710, Note_on_c, 1, 69, 93
3, 55739, Note_on_c, 1, 69, 0
3, 55739, Note_on_c, 1, 65, 0
3, 55740, Note_on_c, 1, 61, 89
3, 55740, Note_on_c, 1, 76, 102
3, 55769, Note_on_c, 1, 76, 0
3, 55770, Note_on_c, 1, 69, 98
3, 55799, Note_on_c, 1, 69, 0
3, 55799, Note_on_c, 1, 61, 0
3, 55800, Note_on_c, 1, 62, 85
3, 55800, Note_on_c, 1, 77, 100
3, 55829, Note_on_c, 1, 77, 0
3, 55830, Note_on_c, 1, 69, 85
3, 55859, Note_on_c, 1, 69, 0
3, 55859, Note_on_c, 1, 62, 0
3, 55860, Note_on_c, 1, 61, 107
3, 55860, Note_on_c, 1, 76, 95
3, 55889, Note_on_c, 1, 76, 0
3, 55890, Note_on_c, 1, 69, 89
3, 55919, Note_on_c, 1, 69, 0
3, 55919, Note_on_c, 1, 61, 0
3, 55920, Note_on_c, 1, 62, 87
3, 55920, Note_on_c, 1, 77, 95
3, 55949, Note_on_c, 1, 77, 0
3, 55950, Note_on_c, 1, 69, 80
3, 55979, Note_on_c, 1, 69, 0
3, 55979, Note_on_c, 1, 62, 0
3, 55980, Note_on_c, 1, 59, 85
3, 55980, Note_on_c, 1, 79, 100
3, 56009, Note_on_c, 1, 79, 0
3, 56010, Note_on_c, 1, 69, 74
3, 56039, Note_on_c, 1, 69, 0
3, 56039, Note_on_c, 1, 59, 0
3, 56040, Note_on_c, 1, 61, 78
3, 56040, Note_on_c, 1, 81, 102
3, 56069, Note_on_c, 1, 81, 0
3, 56070, Note_on_c, 1, 69, 82
3, 56099, Note_on_c, 1, 69, 0
3, 56099, Note_on_c, 1, 61, 0
3, 56100, Note_on_c, 1, 67, 85
3, 56100, Note_on_c, 1, 76, 98
3, 56129, Note_on_c, 1, 76, 0
3, 56130, Note_on_c, 1, 69, 100
3, 56159, Note_on_c, 1, 69, 0
3, 56159, Note_on_c, 1, 67, 0
3, 56160, Note_on_c, 1, 65, 85
3, 56160, Note_on_c, 1, 77, 100
3, 56189, Note_on_c, 1, 77, 0
3, 56190, Note_on_c, 1, 69, 80
3, 56219, Note_on_c, 1, 69, 0
3, 56219, Note_on_c, 1, 65, 0
3, 56220, Note_on_c, 1, 62, 80
3, 56220, Note_on_c, 1, 79, 98
3, 56249, Note_on_c, 1, 79, 0
3, 56250, Note_on_c, 1, 69, 80
3, 56279, Note_on_c, 1, 69, 0
3, 56279, Note_on_c, 1, 62, 0
3, 56280, Note_on_c, 1, 61, 87
3, 56280, Note_on_c, 1, 81, 107
3, 56399, Note_on_c, 1, 81, 0
3, 56399, Note_on_c, 1, 61, 0
3, 56399, Note_on_c, 1, 57, 0
3, 57270, Note_on_c, 1, 67, 76
3, 57270, Note_on_c, 1, 76, 89
3, 57299, Note_on_c, 1, 76, 0
3, 57299, Note_on_c, 1, 67, 0
3, 57300, Note_on_c, 1, 65, 78
3, 57300, Note_on_c, 1, 74, 105
3, 57329, Note_on_c, 1, 74, 0
3, 57329, Note_on_c, 1, 65, 0
3, 57330, Note_on_c, 1, 64, 80
3, 57330, Note_on_c, 1, 73, 105
3, 57359, Note_on_c, 1, 73, 0
3, 57359, Note_on_c, 1, 64, 0
3, 57360, Note_on_c, 1, 65, 80
3, 57360, Note_on_c, 1, 74, 100
3, 57389, Note_on_c, 1, 65, 0
3, 57390, Note_on_c, 1, 61, 78
3, 57419, Note_on_c, 1, 61, 0
3, 57419, Note_on_c, 1, 74, 0
3, 57420, Note_on_c, 1, 62, 95
3, 57450, Note_on_c, 1, 77, 87
3, 57479, Note_on_c, 1, 77, 0
3, 57480, Note_on_c, 1, 76, 80
3, 57509, Note_on_c, 1, 76, 0
3, 57510, Note_on_c, 1, 77, 91
3, 57539, Note_on_c, 1, 77, 0
3, 57540, Note_on_c, 1, 79, 98
3, 57569, Note_on_c, 1, 79, 0
3, 57570, Note_on_c, 1, 81, 95
3, 57599, Note_on_c, 1, 81, 0
3, 57599, Note_on_c, 1, 62, 0
3, 57600, Note_on_c, 1, 61, 82
3, 57600, Note_on_c, 1, 82, 100
3, 57629, Note_on_c, 1, 82, 0
3, 57630, Note_on_c, 1, 81, 78
3, 57659, Note_on_c, 1, 81, 0
3, 57660, Note_on_c, 1, 79, 91
3, 57689, Note_on_c, 1, 79, 0
3, 57690, Note_on_c, 1, 81, 89
3, 57719, Note_on_c, 1, 81, 0
3, 57719, Note_on_c, 1, 61, 0
3, 57720, Note_on_c, 1, 62, 82
3, 57720, Note_on_c, 1, 77, 76
3, 57749, Note_on_c, 1, 62, 0
3, 57750, Note_on_c, 1, 69, 87
3, 57779, Note_on_c, 1, 69, 0
3, 57779, Note_on_c, 1, 77, 0
3, 57780, Note_on_c, 1, 71, 100
3, 57780, Note_on_c, 1, 76, 102
3, 57809, Note_on_c, 1, 71, 0
3, 57810, Note_on_c, 1, 73, 107
3, 57839, Note_on_c, 1, 73, 0
3, 57839, Note_on_c, 1, 76, 0
3, 57840, Note_on_c, 1, 74, 91
3, 57840, Note_on_c, 1, 74, 100
3, 57869, Note_on_c, 1, 74, 0
3, 57870, Note_on_c, 1, 76, 95
3, 57899, Note_on_c, 1, 76, 0
3, 57899, Note_on_c, 1, 74, 0
3, 57900, Note_on_c, 1, 72, 102
3, 57900, Note_on_c, 1, 77, 87
3, 57929, Note_on_c, 1, 77, 0
3, 57930, Note_on_c, 1, 75, 95
3, 57959, Note_on_c, 1, 75, 0
3, 57959, Note_on_c, 1, 72, 0
3, 57960, Note_on_c, 1, 65, 89
3, 57960, Note_on_c, 1, 74, 85
3, 57989, Note_on_c, 1, 74, 0
3, 57990, Note_on_c, 1, 72, 66
3, 58019, Note_on_c, 1, 72, 0
3, 58020, Note_on_c, 1, 70, 89
3, 58049, Note_on_c, 1, 70, 0
3, 58050, Note_on_c, 1, 69, 82
3, 58079, Note_on_c, 1, 69, 0
3, 58080, Note_on_c, 1, 67, 78
3, 58109, Note_on_c, 1, 67, 0
3, 58109, Note_on_c, 1, 65, 0
3, 58110, Note_on_c, 1, 69, 98
3, 58139, Note_on_c, 1, 69, 0
3, 58140, Note_on_c, 1, 63, 110
3, 58140, Note_on_c, 1, 70, 93
3, 58169, Note_on_c, 1, 70, 0
3, 58170, Note_on_c, 1, 72, 82
3, 58199, Note_on_c, 1, 72, 0
3, 58200, Note_on_c, 1, 69, 100
3, 58229, Note_on_c, 1, 63, 0
3, 58230, Note_on_c, 1, 60, 91
3, 58259, Note_on_c, 1, 60, 0
3, 58260, Note_on_c, 1, 57, 82
3, 58289, Note_on_c, 1, 57, 0
3, 58290, Note_on_c, 1, 53, 87
3, 58319, Note_on_c, 1, 53, 0
3, 58319, Note_on_c, 1, 69, 0
3, 58320, Note_on_c, 1, 57, 80
3, 58349, Note_on_c, 1, 57, 0
3, 58350, Note_on_c, 1, 60, 100
3, 58379, Note_on_c, 1, 60, 0
3, 58380, Note_on_c, 1, 63, 98
3, 58380, Note_on_c, 1, 72, 93
3, 58409, Note_on_c, 1, 63, 0
3, 58410, Note_on_c, 1, 60, 105
3, 58439, Note_on_c, 1, 60, 0
3, 58440, Note_on_c, 1, 62, 76
3, 58469, Note_on_c, 1, 62, 0
3, 58470, Note_on_c, 1, 58, 102
3, 58499, Note_on_c, 1, 58, 0
3, 58499, Note_on_c, 1, 72, 0
3, 58500, Note_on_c, 1, 55, 85
3, 58500, Note_on_c, 1, 70, 105
3, 58529, Note_on_c, 1, 55, 0
3, 58530, Note_on_c, 1, 50, 85
3, 58559, Note_on_c, 1, 50, 0
3, 58559, Note_on_c, 1, 70, 0
3, 58560, Note_on_c, 1, 55, 82
3, 58589, Note_on_c, 1, 55, 0
3, 58590, Note_on_c, 1, 58, 89
3, 58619, Note_on_c, 1, 58, 0
3, 58620, Note_on_c, 1, 62, 82
3, 58620, Note_on_c, 1, 79, 89
3, 58649, Note_on_c, 1, 62, 0
3, 58650, Note_on_c, 1, 67, 87
3, 58679, Note_on_c, 1, 67, 0
3, 58679, Note_on_c, 1, 79, 0
3, 58680, Note_on_c, 1, 60, 82
3, 58680, Note_on_c, 1, 75, 110
3, 58709, Note_on_c, 1, 75, 0
3, 58709, Note_on_c, 1, 60, 0
3, 58710, Note_on_c, 1, 62, 87
3, 58710, Note_on_c, 1, 77, 80
3, 58739, Note_on_c, 1, 77, 0
3, 58739, Note_on_c, 1, 62, 0
3, 58740, Note_on_c, 1, 58, 98
3, 58740, Note_on_c, 1, 74, 98
3, 58769, Note_on_c, 1, 74, 0
3, 58769, Note_on_c, 1, 58, 0
3, 58770, Note_on_c, 1, 60, 87
3, 58770, Note_on_c, 1, 75, 95
3, 58799, Note_on_c, 1, 75, 0
3, 58799, Note_on_c, 1, 60, 0
3, 58800, Note_on_c, 1, 57, 85
3, 58800, Note_on_c, 1, 72, 78
3, 58829, Note_on_c, 1, 72, 0
3, 58829, Note_on_c, 1, 57, 0
3, 58830, Note_on_c, 1, 55, 85
3, 58830, Note_on_c, 1, 70, 89
3, 58859, Note_on_c, 1, 70, 0
3, 58859, Note_on_c, 1, 55, 0
3, 58860, Note_on_c, 1, 54, 100
3, 58860, Note_on_c, 1, 69, 82
3, 58889, Note_on_c, 1, 69, 0
3, 58889, Note_on_c, 1, 54, 0
3, 58890, Note_on_c, 1, 52, 87
3, 58890, Note_on_c, 1, 67, 76
3, 58919, Note_on_c, 1, 67, 0
3, 58919, Note_on_c, 1, 52, 0
3, 58920, Note_on_c, 1, 54, 107
3, 58920, Note_on_c, 1, 69, 102
3, 58949, Note_on_c, 1, 54, 0
3, 58950, Note_on_c, 1, 50, 91
3, 58979, Note_on_c, 1, 50, 0
3, 58980, Note_on_c, 1, 54, 80
3, 59009, Note_on_c, 1, 54, 0
3, 59010, Note_on_c, 1, 55, 82
3, 59039, Note_on_c, 1, 55, 0
3, 59039, Note_on_c, 1, 69, 0
3, 59040, Note_on_c, 1, 57, 85
3, 59069, Note_on_c, 1, 57, 0
3, 59070, Note_on_c, 1, 62, 95
3, 59099, Note_on_c, 1, 62, 0
3, 59100, Note_on_c, 1, 57, 100
3, 59129, Note_on_c, 1, 57, 0
3, 59130, Note_on_c, 1, 55, 105
3, 59159, Note_on_c, 1, 55, 0
3, 59400, Note_on_c, 1, 55, 85
3, 59429, Note_on_c, 1, 55, 0
3, 59430, Note_on_c, 1, 50, 76
3, 59459, Note_on_c, 1, 50, 0
3, 59460, Note_on_c, 1, 55, 82
3, 59489, Note_on_c, 1, 55, 0
3, 59490, Note_on_c, 1, 57, 89
3, 59519, Note_on_c, 1, 57, 0
3, 59520, Note_on_c, 1, 58, 105
3, 59549, Note_on_c, 1, 58, 0
3, 59550, Note_on_c, 1, 62, 95
3, 59579, Note_on_c, 1, 62, 0
3, 59580, Note_on_c, 1, 58, 95
3, 59609, Note_on_c, 1, 58, 0
3, 59610, Note_on_c, 1, 57, 95
3, 59639, Note_on_c, 1, 57, 0
3, 59880, Note_on_c, 1, 57, 91
3, 59909, Note_on_c, 1, 57, 0
3, 59910, Note_on_c, 1, 54, 72
3, 59939, Note_on_c, 1, 54, 0
3, 59940, Note_on_c, 1, 57, 89
3, 59969, Note_on_c, 1, 57, 0
3, 59970, Note_on_c, 1, 58, 80
3, 59999, Note_on_c, 1, 58, 0
3, 60000, Note_on_c, 1, 60, 80
3, 60029, Note_on_c, 1, 60, 0
3, 60030, Note_on_c, 1, 63, 78
3, 60059, Note_on_c, 1, 63, 0
3, 60060, Note_on_c, 1, 60, 85
3, 60089, Note_on_c, 1, 60, 0
3, 60090, Note_on_c, 1, 58, 89
3, 60119, Note_on_c, 1, 58, 0
3, 60360, Note_on_c, 1, 57, 87
3, 60389, Note_on_c, 1, 57, 0
3, 60390, Note_on_c, 1, 58, 89
3, 60419, Note_on_c, 1, 58, 0
3, 60420, Note_on_c, 1, 62, 93
3, 60449, Note_on_c, 1, 62, 0
3, 60450, Note_on_c, 1, 66, 82
3, 60479, Note_on_c, 1, 66, 0
3, 60480, Note_on_c, 1, 67, 85
3, 60509, Note_on_c, 1, 67, 0
3, 60510, Note_on_c, 1, 70, 91
3, 60539, Note_on_c, 1, 70, 0
3, 60540, Note_on_c, 1, 67, 82
3, 60569, Note_on_c, 1, 67, 0
3, 60570, Note_on_c, 1, 62, 82
3, 60599, Note_on_c, 1, 62, 0
3, 60840, Note_on_c, 1, 60, 102
3, 60869, Note_on_c, 1, 60, 0
3, 60870, Note_on_c, 1, 57, 82
3, 60899, Note_on_c, 1, 57, 0
3, 60900, Note_on_c, 1, 60, 89
3, 60929, Note_on_c, 1, 60, 0
3, 60930, Note_on_c, 1, 63, 89
3, 60959, Note_on_c, 1, 63, 0
3, 60960, Note_on_c, 1, 66, 110
3, 60989, Note_on_c, 1, 66, 0
3, 60990, Note_on_c, 1, 69, 89
3, 61019, Note_on_c, 1, 69, 0
3, 61020, Note_on_c, 1, 66, 107
3, 61049, Note_on_c, 1, 66, 0
3, 61050, Note_on_c, 1, 63, 107
3, 61079, Note_on_c, 1, 63, 0
3, 61440, Note_on_c, 1, 74, 87
3, 61440, Note_on_c, 1, 67, 87
3, 61499, Note_on_c, 1, 67, 0
3, 61499, Note_on_c, 1, 74, 0
3, 61500, Note_on_c, 1, 72, 76
3, 61500, Note_on_c, 1, 66, 87
3, 61559, Note_on_c, 1, 66, 0
3, 61559, Note_on_c, 1, 72, 0
3, 61560, Note_on_c, 1, 70, 89
3, 61560, Note_on_c, 1, 67, 70
3, 61649, Note_on_c, 1, 67, 0
3, 61649, Note_on_c, 1, 70, 0
3, 61680, Note_on_c, 1, 72, 89
3, 61680, Note_on_c, 1, 67, 85
3, 61739, Note_on_c, 1, 67, 0
3, 61739, Note_on_c, 1, 72, 0
3, 61740, Note_on_c, 1, 74, 93
3, 61740, Note_on_c, 1, 71, 98
3, 61799, Note_on_c, 1, 71, 0
3, 61799, Note_on_c, 1, 74, 0
3, 61800, Note_on_c, 1, 72, 93
3, 61800, Note_on_c, 1, 75, 85
3, 61889, Note_on_c, 1, 75, 0
3, 61919, Note_on_c, 1, 72, 0
3, 61920, Note_on_c, 1, 77, 89
3, 61920, Note_on_c, 1, 72, 76
3, 61979, Note_on_c, 1, 72, 0
3, 61979, Note_on_c, 1, 77, 0
3, 61980, Note_on_c, 1, 79, 87
3, 61980, Note_on_c, 1, 76, 98
3, 62039, Note_on_c, 1, 76, 0
3, 62039, Note_on_c, 1, 79, 0
3, 62040, Note_on_c, 1, 77, 95
3, 62040, Note_on_c, 1, 81, 85
3, 62129, Note_on_c, 1, 81, 0
3, 62129, Note_on_c, 1, 77, 0
3, 62160, Note_on_c, 1, 77, 74
3, 62160, Note_on_c, 1, 70, 66
3, 62219, Note_on_c, 1, 70, 0
3, 62219, Note_on_c, 1, 77, 0
3, 62220, Note_on_c, 1, 75, 85
3, 62220, Note_on_c, 1, 69, 85
3, 62279, Note_on_c, 1, 69, 0
3, 62279, Note_on_c, 1, 75, 0
3, 62280, Note_on_c, 1, 62, 102
3, 62280, Note_on_c, 1, 74, 78
3, 62280, Note_on_c, 1, 70, 87
3, 62280, Note_on_c, 1, 74, 105
3, 62309, Note_on_c, 1, 74, 0
3, 62309, Note_on_c, 1, 62, 0
3, 62309, Note_on_c, 1, 74, 0
3, 62309, Note_on_c, 1, 70, 0
3, 62310, Note_on_c, 1, 67, 91
3, 62310, Note_on_c, 1, 75, 82
3, 62339, Note_on_c, 1, 75, 0
3, 62339, Note_on_c, 1, 67, 0
3, 62340, Note_on_c, 1, 65, 95
3, 62340, Note_on_c, 1, 74, 105
3, 62369, Note_on_c, 1, 74, 0
3, 62369, Note_on_c, 1, 65, 0
3, 62370, Note_on_c, 1, 63, 102
3, 62370, Note_on_c, 1, 72, 85
3, 62399, Note_on_c, 1, 72, 0
3, 62399, Note_on_c, 1, 63, 0
3, 62400, Note_on_c, 1, 62, 102
3, 62400, Note_on_c, 1, 70, 91
3, 62429, Note_on_c, 1, 70, 0
3, 62429, Note_on_c, 1, 62, 0
3, 62430, Note_on_c, 1, 63, 100
3, 62430, Note_on_c, 1, 72, 85
3, 62459, Note_on_c, 1, 72, 0
3, 62459, Note_on_c, 1, 63, 0
3, 62460, Note_on_c, 1, 62, 95
3, 62460, Note_on_c, 1, 70, 102
3, 62489, Note_on_c, 1, 70, 0
3, 62489, Note_on_c, 1, 62, 0
3, 62490, Note_on_c, 1, 60, 66
3, 62490, Note_on_c, 1, 69, 98
3, 62519, Note_on_c, 1, 69, 0
3, 62519, Note_on_c, 1, 60, 0
3, 62520, Note_on_c, 1, 58, 100
3, 62520, Note_on_c, 1, 67, 85
3, 62549, Note_on_c, 1, 67, 0
3, 62549, Note_on_c, 1, 58, 0
3, 62550, Note_on_c, 1, 63, 80
3, 62550, Note_on_c, 1, 72, 102
3, 62579, Note_on_c, 1, 72, 0
3, 62579, Note_on_c, 1, 63, 0
3, 62580, Note_on_c, 1, 62, 80
3, 62580, Note_on_c, 1, 70, 102
3, 62609, Note_on_c, 1, 70, 0
3, 62609, Note_on_c, 1, 62, 0
3, 62610, Note_on_c, 1, 60, 72
3, 62610, Note_on_c, 1, 69, 95
3, 62639, Note_on_c, 1, 69, 0
3, 62639, Note_on_c, 1, 60, 0
3, 62640, Note_on_c, 1, 58, 102
3, 62640, Note_on_c, 1, 67, 82
3, 62669, Note_on_c, 1, 67, 0
3, 62669, Note_on_c, 1, 58, 0
3, 62670, Note_on_c, 1, 60, 85
3, 62670, Note_on_c, 1, 69, 100
3, 62699, Note_on_c, 1, 69, 0
3, 62699, Note_on_c, 1, 60, 0
3, 62700, Note_on_c, 1, 58, 98
3, 62700, Note_on_c, 1, 67, 78
3, 62729, Note_on_c, 1, 67, 0
3, 62729, Note_on_c, 1, 58, 0
3, 62730, Note_on_c, 1, 57, 87
3, 62730, Note_on_c, 1, 66, 93
3, 62759, Note_on_c, 1, 66, 0
3, 62759, Note_on_c, 1, 57, 0
3, 62760, Note_on_c, 1, 58, 98
3, 62760, Note_on_c, 1, 67, 80
3, 62789, Note_on_c, 1, 67, 0
3, 62789, Note_on_c, 1, 58, 0
3, 62790, Note_on_c, 1, 57, 91
3, 62790, Note_on_c, 1, 65, 87
3, 62819, Note_on_c, 1, 65, 0
3, 62819, Note_on_c, 1, 57, 0
3, 62820, Note_on_c, 1, 55, 72
3, 62820, Note_on_c, 1, 64, 100
3, 62849, Note_on_c, 1, 64, 0
3, 62849, Note_on_c, 1, 55, 0
3, 62850, Note_on_c, 1, 53, 89
3, 62850, Note_on_c, 1, 62, 87
3, 62879, Note_on_c, 1, 62, 0
3, 62879, Note_on_c, 1, 53, 0
3, 62880, Note_on_c, 1, 52, 85
3, 62880, Note_on_c, 1, 61, 91
3, 62939, Note_on_c, 1, 61, 0
3, 62939, Note_on_c, 1, 52, 0
3, 62940, Note_on_c, 1, 55, 85
3, 62940, Note_on_c, 1, 64, 82
3, 62999, Note_on_c, 1, 64, 0
3, 62999, Note_on_c, 1, 55, 0
3, 63000, Note_on_c, 1, 57, 82
3, 63000, Note_on_c, 1, 65, 89
3, 63029, Note_on_c, 1, 65, 0
3, 63029, Note_on_c, 1, 57, 0
3, 63030, Note_on_c, 1, 59, 80
3, 63030, Note_on_c, 1, 67, 80
3, 63059, Note_on_c, 1, 67, 0
3, 63059, Note_on_c, 1, 59, 0
3, 63060, Note_on_c, 1, 61, 74
3, 63060, Note_on_c, 1, 69, 87
3, 63089, Note_on_c, 1, 69, 0
3, 63089, Note_on_c, 1, 61, 0
3, 63090, Note_on_c, 1, 62, 72
3, 63090, Note_on_c, 1, 71, 78
3, 63119, Note_on_c, 1, 71, 0
3, 63119, Note_on_c, 1, 62, 0
3, 63120, Note_on_c, 1, 64, 87
3, 63120, Note_on_c, 1, 73, 82
3, 63149, Note_on_c, 1, 73, 0
3, 63149, Note_on_c, 1, 64, 0
3, 63150, Note_on_c, 1, 65, 89
3, 63150, Note_on_c, 1, 74, 82
3, 63179, Note_on_c, 1, 74, 0
3, 63179, Note_on_c, 1, 65, 0
3, 63180, Note_on_c, 1, 67, 85
3, 63180, Note_on_c, 1, 76, 105
3, 63209, Note_on_c, 1, 76, 0
3, 63209, Note_on_c, 1, 67, 0
3, 63210, Note_on_c, 1, 69, 80
3, 63210, Note_on_c, 1, 77, 102
3, 63239, Note_on_c, 1, 77, 0
3, 63239, Note_on_c, 1, 69, 0
3, 63240, Note_on_c, 1, 70, 74
3, 63240, Note_on_c, 1, 79, 102
3, 63299, Note_on_c, 1, 79, 0
3, 63299, Note_on_c, 1, 70, 0
3, 63300, Note_on_c, 1, 69, 85
3, 63300, Note_on_c, 1, 77, 102
3, 63329, Note_on_c, 1, 77, 0
3, 63329, Note_on_c, 1, 69, 0
3, 63330, Note_on_c, 1, 67, 98
3, 63330, Note_on_c, 1, 76, 102
3, 63359, Note_on_c, 1, 76, 0
3, 63359, Note_on_c, 1, 67, 0
3, 63360, Note_on_c, 1, 65, 95
3, 63360, Note_on_c, 1, 74, 85
3, 63389, Note_on_c, 1, 65, 0
3, 63390, Note_on_c, 1, 69, 85
3, 63419, Note_on_c, 1, 69, 0
3, 63419, Note_on_c, 1, 74, 0
3, 63420, Note_on_c, 1, 64, 95
3, 63420, Note_on_c, 1, 73, 93
3, 63449, Note_on_c, 1, 64, 0
3, 63450, Note_on_c, 1, 69, 80
3, 63479, Note_on_c, 1, 69, 0
3, 63479, Note_on_c, 1, 73, 0
3, 63480, Note_on_c, 1, 62, 100
3, 63480, Note_on_c, 1, 74, 85
3, 63509, Note_on_c, 1, 62, 0
3, 63510, Note_on_c, 1, 69, 87
3, 63539, Note_on_c, 1, 69, 0
3, 63539, Note_on_c, 1, 74, 0
3, 63540, Note_on_c, 1, 61, 98
3, 63540, Note_on_c, 1, 76, 100
3, 63569, Note_on_c, 1, 61, 0
3, 63570, Note_on_c, 1, 69, 80
3, 63599, Note_on_c, 1, 69, 0
3, 63599, Note_on_c, 1, 76, 0
3, 63600, Note_on_c, 1, 62, 78
3, 63600, Note_on_c, 1, 77, 100
3, 63629, Note_on_c, 1, 62, 0
3, 63630, Note_on_c, 1, 69, 87
3, 63659, Note_on_c, 1, 69, 0
3, 63659, Note_on_c, 1, 77, 0
3, 63660, Note_on_c, 1, 64, 95
3, 63660, Note_on_c, 1, 79, 85
3, 63689, Note_on_c, 1, 64, 0
3, 63690, Note_on_c, 1, 69, 82
3, 63719, Note_on_c, 1, 69, 0
3, 63719, Note_on_c, 1, 79, 0
3, 63720, Note_on_c, 1, 65, 78
3, 63720, Note_on_c, 1, 81, 85
3, 63749, Note_on_c, 1, 65, 0
3, 63750, Note_on_c, 1, 69, 82
3, 63779, Note_on_c, 1, 69, 0
3, 63779, Note_on_c, 1, 81, 0
3, 63780, Note_on_c, 1, 57, 68
3, 63780, Note_on_c, 1, 73, 82
3, 63809, Note_on_c, 1, 57, 0
3, 63810, Note_on_c, 1, 69, 80
3, 63839, Note_on_c, 1, 69, 0
3, 63839, Note_on_c, 1, 73, 0
3, 63840, Note_on_c, 1, 59, 70
3, 63840, Note_on_c, 1, 74, 82
3, 63869, Note_on_c, 1, 59, 0
3, 63870, Note_on_c, 1, 69, 82
3, 63899, Note_on_c, 1, 69, 0
3, 63899, Note_on_c, 1, 74, 0
3, 63900, Note_on_c, 1, 61, 72
3, 63900, Note_on_c, 1, 76, 95
3, 63929, Note_on_c, 1, 61, 0
3, 63930, Note_on_c, 1, 69, 80
3, 63959, Note_on_c, 1, 69, 0
3, 63959, Note_on_c, 1, 76, 0
3, 63960, Note_on_c, 1, 62, 89
3, 63960, Note_on_c, 1, 77, 89
3, 63989, Note_on_c, 1, 62, 0
3, 63990, Note_on_c, 1, 69, 78
3, 64019, Note_on_c, 1, 69, 0
3, 64019, Note_on_c, 1, 77, 0
3, 64020, Note_on_c, 1, 61, 105
3, 64020, Note_on_c, 1, 76, 102
3, 64049, Note_on_c, 1, 61, 0
3, 64050, Note_on_c, 1, 69, 82
3, 64079, Note_on_c, 1, 69, 0
3, 64079, Note_on_c, 1, 76, 0
3, 64080, Note_on_c, 1, 62, 95
3, 64080, Note_on_c, 1, 77, 98
3, 64110, Note_on_c, 1, 69, 82
3, 64139, Note_on_c, 1, 69, 0
3, 64139, Note_on_c, 1, 77, 0
3, 64139, Note_on_c, 1, 62, 0
3, 64140, Note_on_c, 1, 59, 78
3, 64140, Note_on_c, 1, 74, 102
3, 64169, Note_on_c, 1, 59, 0
3, 64170, Note_on_c, 1, 69, 98
3, 64199, Note_on_c, 1, 69, 0
3, 64199, Note_on_c, 1, 74, 0
3, 64200, Note_on_c, 1, 61, 87
3, 64200, Note_on_c, 1, 76, 98
3, 64259, Note_on_c, 1, 76, 0
3, 64259, Note_on_c, 1, 61, 0
3, 64260, Note_on_c, 1, 62, 85
3, 64260, Note_on_c, 1, 74, 89
3, 64260, Note_on_c, 1, 69, 85
3, 64319, Note_on_c, 1, 69, 0
3, 64319, Note_on_c, 1, 74, 0
3, 64319, Note_on_c, 1, 62, 0
3, 64320, Note_on_c, 1, 67, 85
3, 64320, Note_on_c, 1, 70, 85
3, 64320, Note_on_c, 1, 74, 87
3, 64379, Note_on_c, 1, 74, 0
3, 64379, Note_on_c, 1, 70, 0
3, 64379, Note_on_c, 1, 67, 0
3, 64380, Note_on_c, 1, 64, 85
3, 64380, Note_on_c, 1, 73, 80
3, 64380, Note_on_c, 1, 69, 80
3, 64439, Note_on_c, 1, 73, 0
3, 64439, Note_on_c, 1, 64, 0
3, 64440, Note_on_c, 1, 65, 82
3, 64440, Note_on_c, 1, 74, 89
3, 64499, Note_on_c, 1, 65, 0
3, 64499, Note_on_c, 1, 69, 0
3, 64500, Note_on_c, 1, 69, 80
3, 64500, Note_on_c, 1, 77, 95
3, 64559, Note_on_c, 1, 77, 0
3, 64559, Note_on_c, 1, 69, 0
3, 64560, Note_on_c, 1, 70, 82
3, 64560, Note_on_c, 1, 76, 87
3, 64619, Note_on_c, 1, 70, 0
3, 64619, Note_on_c, 1, 74, 0
3, 64620, Note_on_c, 1, 69, 85
3, 64620, Note_on_c, 1, 72, 91
3, 64679, Note_on_c, 1, 72, 0
3, 64679, Note_on_c, 1, 69, 0
3, 64679, Note_on_c, 1, 76, 0
3, 64680, Note_on_c, 1, 58, 74
3, 64680, Note_on_c, 1, 62, 80
3, 64680, Note_on_c, 1, 53, 72
3, 64680, Note_on_c, 1, 70, 78
3, 64680, Note_on_c, 1, 74, 93
3, 64680, Note_on_c, 1, 65, 87
3, 64928, Note_on_c, 1, 58, 0
3, 64929, Note_on_c, 1, 70, 0
3, 64929, Note_on_c, 1, 62, 0
3, 64929, Note_on_c, 1, 65, 0
3, 64931, Note_on_c, 1, 53, 0
3, 64931, Note_on_c, 1, 74, 0
3, 65048, Note_on_c, 1, 77, 87
3, 65078, Note_on_c, 1, 79, 100
3, 65086, Note_on_c, 1, 77, 0
3, 65099, Note_on_c, 1, 81, 82
3, 65108, Note_on_c, 1, 79, 0
3, 65127, Note_on_c, 1, 82, 82
3, 65129, Note_on_c, 1, 81, 0
3, 65144, Note_on_c, 1, 69, 43
3, 65153, Note_on_c, 1, 82, 0
3, 65163, Note_on_c, 1, 70, 63
3, 65175, Note_on_c, 1, 69, 0
3, 65182, Note_on_c, 1, 72, 70
3, 65189, Note_on_c, 1, 70, 0
3, 65201, Note_on_c, 1, 72, 0
3, 65202, Note_on_c, 1, 74, 85
3, 65210, Note_on_c, 1, 74, 0
3, 65218, Note_on_c, 1, 72, 82
3, 65235, Note_on_c, 1, 74, 89
3, 65242, Note_on_c, 1, 72, 0
3, 65254, Note_on_c, 1, 75, 78
3, 65270, Note_on_c, 1, 77, 82
3, 65273, Note_on_c, 1, 74, 0
3, 65281, Note_on_c, 1, 75, 0
3, 65289, Note_on_c, 1, 65, 82
3, 65290, Note_on_c, 1, 77, 0
3, 65306, Note_on_c, 1, 67, 70
3, 65321, Note_on_c, 1, 65, 0
3, 65324, Note_on_c, 1, 69, 93
3, 65329, Note_on_c, 1, 67, 0
3, 65340, Note_on_c, 1, 69, 0
3, 65342, Note_on_c, 1, 70, 66
3, 65357, Note_on_c, 1, 69, 70
3, 65361, Note_on_c, 1, 70, 0
3, 65375, Note_on_c, 1, 70, 100
3, 65383, Note_on_c, 1, 69, 0
3, 65391, Note_on_c, 1, 72, 82
3, 65402, Note_on_c, 1, 70, 0
3, 65413, Note_on_c, 1, 74, 98
3, 65418, Note_on_c, 1, 72, 0
3, 65431, Note_on_c, 1, 69, 76
3, 65442, Note_on_c, 1, 74, 0
3, 65455, Note_on_c, 1, 67, 63
3, 65460, Note_on_c, 1, 69, 0
3, 65474, Note_on_c, 1, 65, 74
3, 65479, Note_on_c, 1, 67, 0
3, 65496, Note_on_c, 1, 63, 70
3, 65499, Note_on_c, 1, 65, 0
3, 65516, Note_on_c, 1, 67, 63
3, 65530, Note_on_c, 1, 63, 0
3, 65533, Note_on_c, 1, 69, 85
3, 65539, Note_on_c, 1, 67, 0
3, 65552, Note_on_c, 1, 70, 91
3, 65569, Note_on_c, 1, 69, 0
3, 65570, Note_on_c, 1, 72, 82
3, 65576, Note_on_c, 1, 70, 0
3, 65588, Note_on_c, 1, 67, 70
3, 65603, Note_on_c, 1, 72, 0
3, 65606, Note_on_c, 1, 65, 78
3, 65611, Note_on_c, 1, 67, 0
3, 65623, Note_on_c, 1, 63, 87
3, 65626, Note_on_c, 1, 65, 0
3, 65639, Note_on_c, 1, 62, 82
3, 65643, Note_on_c, 1, 63, 0
3, 65656, Note_on_c, 1, 65, 80
3, 65665, Note_on_c, 1, 62, 0
3, 65672, Note_on_c, 1, 67, 102
3, 65675, Note_on_c, 1, 65, 0
3, 65688, Note_on_c, 1, 69, 102
3, 65696, Note_on_c, 1, 67, 0
3, 65708, Note_on_c, 1, 70, 110
3, 65714, Note_on_c, 1, 69, 0
3, 65721, Note_on_c, 1, 57, 66
3, 65729, Note_on_c, 1, 70, 0
3, 65739, Note_on_c, 1, 58, 87
3, 65748, Note_on_c, 1, 57, 0
3, 65758, Note_on_c, 1, 60, 78
3, 65764, Note_on_c, 1, 58, 0
3, 65775, Note_on_c, 1, 62, 68
3, 65776, Note_on_c, 1, 60, 0
3, 65784, Note_on_c, 1, 62, 0
3, 65795, Note_on_c, 1, 60, 82
3, 65813, Note_on_c, 1, 62, 98
3, 65820, Note_on_c, 1, 60, 0
3, 65833, Note_on_c, 1, 63, 80
3, 65851, Note_on_c, 1, 65, 91
3, 65851, Note_on_c, 1, 62, 0
3, 65861, Note_on_c, 1, 63, 0
3, 65872, Note_on_c, 1, 53, 85
3, 65877, Note_on_c, 1, 65, 0
3, 65888, Note_on_c, 1, 55, 72
3, 65905, Note_on_c, 1, 53, 0
3, 65908, Note_on_c, 1, 57, 72
3, 65915, Note_on_c, 1, 55, 0
3, 65924, Note_on_c, 1, 58, 100
3, 65927, Note_on_c, 1, 57, 0
3, 65938, Note_on_c, 1, 58, 0
3, 65942, Note_on_c, 1, 57, 85
3, 65957, Note_on_c, 1, 58, 89
3, 65966, Note_on_c, 1, 57, 0
3, 65974, Note_on_c, 1, 60, 82
3, 65979, Note_on_c, 1, 58, 0
3, 65993, Note_on_c, 1, 62, 100
3, 65996, Note_on_c, 1, 60, 0
3, 66012, Note_on_c, 1, 60, 82
3, 66019, Note_on_c, 1, 62, 0
3, 66030, Note_on_c, 1, 58, 68
3, 66038, Note_on_c, 1, 60, 0
3, 66049, Note_on_c, 1, 57, 78
3, 66053, Note_on_c, 1, 58, 0
3, 66067, Note_on_c, 1, 55, 89
3, 66070, Note_on_c, 1, 57, 0
3, 66086, Note_on_c, 1, 58, 82
3, 66094, Note_on_c, 1, 55, 0
3, 66102, Note_on_c, 1, 60, 87
3, 66108, Note_on_c, 1, 58, 0
3, 66119, Note_on_c, 1, 62, 85
3, 66124, Note_on_c, 1, 60, 0
3, 66137, Note_on_c, 1, 63, 91
3, 66139, Note_on_c, 1, 62, 0
3, 66157, Note_on_c, 1, 62, 87
3, 66166, Note_on_c, 1, 63, 0
3, 66176, Note_on_c, 1, 60, 82
3, 66181, Note_on_c, 1, 62, 0
3, 66194, Note_on_c, 1, 58, 91
3, 66197, Note_on_c, 1, 60, 0
3, 66212, Note_on_c, 1, 57, 85
3, 66216, Note_on_c, 1, 58, 0
3, 66234, Note_on_c, 1, 60, 87
3, 66239, Note_on_c, 1, 57, 0
3, 66261, Note_on_c, 1, 62, 113
3, 66264, Note_on_c, 1, 60, 0
3, 66284, Note_on_c, 1, 64, 93
3, 66291, Note_on_c, 1, 62, 0
3, 66309, Note_on_c, 1, 66, 105
3, 66315, Note_on_c, 1, 64, 0
3, 66336, Note_on_c, 1, 63, 85
3, 66357, Note_on_c, 1, 66, 0
3, 66359, Note_on_c, 1, 63, 0
3, 66360, Note_on_c, 1, 62, 82
3, 66377, Note_on_c, 1, 60, 70
3, 66383, Note_on_c, 1, 62, 0
3, 66398, Note_on_c, 1, 58, 89
3, 66401, Note_on_c, 1, 60, 0
3, 66415, Note_on_c, 1, 66, 82
3, 66425, Note_on_c, 1, 58, 0
3, 66433, Note_on_c, 1, 67, 70
3, 66433, Note_on_c, 1, 66, 0
3, 66452, Note_on_c, 1, 69, 89
3, 66456, Note_on_c, 1, 67, 0
3, 66475, Note_on_c, 1, 70, 93
3, 66486, Note_on_c, 1, 69, 0
3, 66497, Note_on_c, 1, 72, 85
3, 66505, Note_on_c, 1, 70, 0
3, 66523, Note_on_c, 1, 74, 89
3, 66528, Note_on_c, 1, 72, 0
3, 66555, Note_on_c, 1, 67, 76
3, 66558, Note_on_c, 1, 74, 0
3, 66590, Note_on_c, 1, 67, 0
3, 66600, Note_on_c, 1, 61, 113
3, 66600, Note_on_c, 1, 64, 64
3, 66600, Note_on_c, 1, 70, 59
3, 66600, Note_on_c, 1, 76, 87
3, 66600, Note_on_c, 1, 67, 55
3, 66600, Note_on_c, 1, 61, 82
3, 66959, Note_on_c, 1, 61, 0
3, 66959, Note_on_c, 1, 64, 0
3, 66959, Note_on_c, 1, 70, 0
3, 66959, Note_on_c, 1, 76, 0
3, 66959, Note_on_c, 1, 67, 0
3, 66960, Note_on_c, 1, 69, 82
3, 66960, Note_on_c, 1, 65, 87
3, 66960, Note_on_c, 1, 62, 89
3, 66960, Note_on_c, 1, 74, 85
3, 66965, Note_on_c, 1, 62, 102
3, 66965, Note_on_c, 1, 61, 0
3, 67079, Note_on_c, 1, 62, 0
3, 67079, Note_on_c, 1, 69, 0
3, 67079, Note_on_c, 1, 65, 0
3, 67080, Note_on_c, 1, 71, 87
3, 67080, Note_on_c, 1, 59, 85
3, 67080, Note_on_c, 1, 65, 85
3, 67080, Note_on_c, 1, 62, 85
3, 67083, Note_on_c, 1, 59, 102
3, 67086, Note_on_c, 1, 62, 0
3, 67319, Note_on_c, 1, 65, 0
3, 67319, Note_on_c, 1, 71, 0
3, 67319, Note_on_c, 1, 59, 0
3, 67319, Note_on_c, 1, 74, 0
3, 67319, Note_on_c, 1, 62, 0
3, 67332, Note_on_c, 1, 59, 0
3, 67738, Note_on_c, 1, 59, 89
3, 67738, Note_on_c, 1, 52, 70
3, 67739, Note_on_c, 1, 56, 85
3, 67740, Note_on_c, 1, 74, 98
3, 67740, Note_on_c, 1, 71, 102
3, 67740, Note_on_c, 1, 68, 102
3, 67740, Note_on_c, 1, 64, 85
3, 67788, Note_on_c, 1, 52, 0
3, 67791, Note_on_c, 1, 59, 0
3, 67793, Note_on_c, 1, 56, 0
3, 67799, Note_on_c, 1, 60, 98
3, 67799, Note_on_c, 1, 57, 93
3, 67799, Note_on_c, 1, 71, 0
3, 67799, Note_on_c, 1, 64, 0
3, 67799, Note_on_c, 1, 74, 0
3, 67799, Note_on_c, 1, 68, 0
3, 67800, Note_on_c, 1, 52, 82
3, 67800, Note_on_c, 1, 72, 91
3, 67800, Note_on_c, 1, 69, 105
3, 67979, Note_on_c, 1, 69, 0
3, 67980, Note_on_c, 1, 67, 105
3, 68009, Note_on_c, 1, 67, 0
3, 68010, Note_on_c, 1, 65, 102
3, 68038, Note_on_c, 1, 57, 0
3, 68039, Note_on_c, 1, 65, 0
3, 68040, Note_on_c, 1, 64, 107
3, 68045, Note_on_c, 1, 55, 98
3, 68519, Note_on_c, 1, 64, 0
3, 68519, Note_on_c, 1, 60, 0
3, 68520, Note_on_c, 1, 72, 0
3, 68520, Note_on_c, 1, 52, 0
3, 68525, Note_on_c, 1, 55, 0
3, 68548, Note_on_c, 1, 67, 89
3, 68575, Note_on_c, 1, 65, 102
3, 68580, Note_on_c, 1, 67, 0
3, 68602, Note_on_c, 1, 67, 85
3, 68608, Note_on_c, 1, 65, 0
3, 68631, Note_on_c, 1, 64, 91
3, 68632, Note_on_c, 1, 67, 0
3, 68650, Note_on_c, 1, 64, 0
3, 68658, Note_on_c, 1, 64, 82
3, 68688, Note_on_c, 1, 62, 85
3, 68692, Note_on_c, 1, 64, 0
3, 68717, Note_on_c, 1, 64, 85
3, 68721, Note_on_c, 1, 62, 0
3, 68749, Note_on_c, 1, 60, 89
3, 68751, Note_on_c, 1, 64, 0
3, 68784, Note_on_c, 1, 60, 0
3, 68785, Note_on_c, 1, 69, 105
3, 68814, Note_on_c, 1, 67, 105
3, 68818, Note_on_c, 1, 69, 0
3, 68847, Note_on_c, 1, 69, 102
3, 68850, Note_on_c, 1, 67, 0
3, 68877, Note_on_c, 1, 65, 100
3, 68878, Note_on_c, 1, 69, 0
3, 68901, Note_on_c, 1, 65, 0
3, 68907, Note_on_c, 1, 65, 89
3, 68938, Note_on_c, 1, 64, 85
3, 68941, Note_on_c, 1, 65, 0
3, 68969, Note_on_c, 1, 65, 102
3, 68973, Note_on_c, 1, 64, 0
3, 68996, Note_on_c, 1, 65, 0
3, 68998, Note_on_c, 1, 62, 98
3, 69028, Note_on_c, 1, 71, 107
3, 69050, Note_on_c, 1, 62, 0
3, 69058, Note_on_c, 1, 69, 102
3, 69063, Note_on_c, 1, 71, 0
3, 69086, Note_on_c, 1, 71, 102
3, 69092, Note_on_c, 1, 69, 0
3, 69115, Note_on_c, 1, 67, 85
3, 69117, Note_on_c, 1, 71, 0
3, 69138, Note_on_c, 1, 67, 0
3, 69145, Note_on_c, 1, 67, 89
3, 69176, Note_on_c, 1, 65, 87
3, 69177, Note_on_c, 1, 67, 0
3, 69203, Note_on_c, 1, 67, 85
3, 69208, Note_on_c, 1, 65, 0
3, 69235, Note_on_c, 1, 64, 102
3, 69235, Note_on_c, 1, 67, 0
3, 69264, Note_on_c, 1, 72, 102
3, 69266, Note_on_c, 1, 64, 0
3, 69295, Note_on_c, 1, 71, 105
3, 69300, Note_on_c, 1, 72, 0
3, 69326, Note_on_c, 1, 72, 100
3, 69331, Note_on_c, 1, 71, 0
3, 69353, Note_on_c, 1, 72, 0
3, 69358, Note_on_c, 1, 69, 87
3, 69387, Note_on_c, 1, 74, 105
3, 69392, Note_on_c, 1, 69, 0
3, 69417, Note_on_c, 1, 72, 105
3, 69422, Note_on_c, 1, 74, 0
3, 69448, Note_on_c, 1, 74, 102
3, 69453, Note_on_c, 1, 72, 0
3, 69474, Note_on_c, 1, 74, 0
3, 69476, Note_on_c, 1, 71, 85
3, 69506, Note_on_c, 1, 76, 100
3, 69506, Note_on_c, 1, 71, 0
3, 69534, Note_on_c, 1, 74, 100
3, 69538, Note_on_c, 1, 76, 0
3, 69563, Note_on_c, 1, 76, 98
3, 69569, Note_on_c, 1, 74, 0
3, 69589, Note_on_c, 1, 76, 0
3, 69593, Note_on_c, 1, 72, 100
3, 69622, Note_on_c, 1, 77, 100
3, 69623, Note_on_c, 1, 72, 0
3, 69651, Note_on_c, 1, 76, 98
3, 69655, Note_on_c, 1, 77, 0
3, 69681, Note_on_c, 1, 77, 100
3, 69686, Note_on_c, 1, 76, 0
3, 69712, Note_on_c, 1, 77, 0
3, 69715, Note_on_c, 1, 74, 102
3, 69743, Note_on_c, 1, 79, 82
3, 69747, Note_on_c, 1, 74, 0
3, 69774, Note_on_c, 1, 77, 100
3, 69778, Note_on_c, 1, 79, 0
3, 69803, Note_on_c, 1, 79, 82
3, 69808, Note_on_c, 1, 77, 0
3, 69833, Note_on_c, 1, 76, 107
3, 69835, Note_on_c, 1, 79, 0
3, 69863, Note_on_c, 1, 72, 100
3, 69865, Note_on_c, 1, 76, 0
3, 69893, Note_on_c, 1, 71, 91
3, 69897, Note_on_c, 1, 72, 0
3, 69925, Note_on_c, 1, 72, 82
3, 69930, Note_on_c, 1, 71, 0
3, 69954, Note_on_c, 1, 69, 85
3, 69957, Note_on_c, 1, 72, 0
3, 69984, Note_on_c, 1, 69, 0
3, 69985, Note_on_c, 1, 74, 102
3, 70012, Note_on_c, 1, 72, 102
3, 70016, Note_on_c, 1, 74, 0
3, 70043, Note_on_c, 1, 74, 91
3, 70048, Note_on_c, 1, 72, 0
3, 70073, Note_on_c, 1, 71, 85
3, 70075, Note_on_c, 1, 74, 0
3, 70103, Note_on_c, 1, 68, 87
3, 70103, Note_on_c, 1, 71, 0
3, 70133, Note_on_c, 1, 66, 85
3, 70136, Note_on_c, 1, 68, 0
3, 70165, Note_on_c, 1, 68, 78
3, 70169, Note_on_c, 1, 66, 0
3, 70194, Note_on_c, 1, 68, 0
3, 70195, Note_on_c, 1, 64, 78
3, 70227, Note_on_c, 1, 72, 89
3, 70231, Note_on_c, 1, 64, 0
3, 70256, Note_on_c, 1, 71, 105
3, 70261, Note_on_c, 1, 72, 0
3, 70287, Note_on_c, 1, 72, 95
3, 70292, Note_on_c, 1, 71, 0
3, 70318, Note_on_c, 1, 69, 105
3, 70320, Note_on_c, 1, 72, 0
3, 70348, Note_on_c, 1, 65, 100
3, 70350, Note_on_c, 1, 69, 0
3, 70377, Note_on_c, 1, 64, 91
3, 70381, Note_on_c, 1, 65, 0
3, 70408, Note_on_c, 1, 65, 100
3, 70411, Note_on_c, 1, 64, 0
3, 70437, Note_on_c, 1, 62, 87
3, 70440, Note_on_c, 1, 65, 0
3, 70466, Note_on_c, 1, 71, 102
3, 70472, Note_on_c, 1, 62, 0
3, 70495, Note_on_c, 1, 69, 100
3, 70500, Note_on_c, 1, 71, 0
3, 70528, Note_on_c, 1, 71, 87
3, 70533, Note_on_c, 1, 69, 0
3, 70559, Note_on_c, 1, 71, 0
3, 70560, Note_on_c, 1, 60, 98
3, 70591, Note_on_c, 1, 69, 93
3, 70596, Note_on_c, 1, 60, 0
3, 70618, Note_on_c, 1, 67, 102
3, 70623, Note_on_c, 1, 69, 0
3, 70648, Note_on_c, 1, 69, 87
3, 70654, Note_on_c, 1, 67, 0
3, 70673, Note_on_c, 1, 69, 0
3, 70677, Note_on_c, 1, 59, 105
3, 70708, Note_on_c, 1, 68, 100
3, 70717, Note_on_c, 1, 59, 0
3, 70738, Note_on_c, 1, 66, 107
3, 70743, Note_on_c, 1, 68, 0
3, 70769, Note_on_c, 1, 68, 70
3, 70776, Note_on_c, 1, 66, 0
3, 70803, Note_on_c, 1, 64, 89
3, 70804, Note_on_c, 1, 68, 0
3, 70832, Note_on_c, 1, 60, 87
3, 70832, Note_on_c, 1, 64, 0
3, 70860, Note_on_c, 1, 59, 89
3, 70866, Note_on_c, 1, 60, 0
3, 70889, Note_on_c, 1, 57, 82
3, 70893, Note_on_c, 1, 59, 0
3, 70919, Note_on_c, 1, 56, 91
3, 70921, Note_on_c, 1, 57, 0
3, 70950, Note_on_c, 1, 62, 87
3, 70968, Note_on_c, 1, 56, 0
3, 70979, Note_on_c, 1, 62, 0
3, 70980, Note_on_c, 1, 60, 100
3, 71009, Note_on_c, 1, 60, 0
3, 71010, Note_on_c, 1, 59, 91
3, 71039, Note_on_c, 1, 59, 0
3, 71040, Note_on_c, 1, 57, 98
3, 71070, Note_on_c, 1, 64, 91
3, 71099, Note_on_c, 1, 64, 0
3, 71099, Note_on_c, 1, 57, 0
3, 71100, Note_on_c, 1, 62, 98
3, 71129, Note_on_c, 1, 62, 0
3, 71130, Note_on_c, 1, 60, 89
3, 71159, Note_on_c, 1, 60, 0
3, 71160, Note_on_c, 1, 59, 102
3, 71189, Note_on_c, 1, 59, 0
3, 71190, Note_on_c, 1, 65, 87
3, 71219, Note_on_c, 1, 65, 0
3, 71220, Note_on_c, 1, 64, 82
3, 71249, Note_on_c, 1, 64, 0
3, 71250, Note_on_c, 1, 62, 87
3, 71279, Note_on_c, 1, 62, 0
3, 71280, Note_on_c, 1, 60, 98
3, 71309, Note_on_c, 1, 60, 0
3, 71310, Note_on_c, 1, 67, 100
3, 71339, Note_on_c, 1, 67, 0
3, 71340, Note_on_c, 1, 65, 98
3, 71369, Note_on_c, 1, 65, 0
3, 71370, Note_on_c, 1, 64, 82
3, 71399, Note_on_c, 1, 64, 0
3, 71400, Note_on_c, 1, 62, 110
3, 71429, Note_on_c, 1, 62, 0
3, 71430, Note_on_c, 1, 69, 87
3, 71459, Note_on_c, 1, 69, 0
3, 71460, Note_on_c, 1, 67, 89
3, 71489, Note_on_c, 1, 67, 0
3, 71490, Note_on_c, 1, 65, 78
3, 71519, Note_on_c, 1, 65, 0
3, 71520, Note_on_c, 1, 64, 91
3, 71549, Note_on_c, 1, 64, 0
3, 71550, Note_on_c, 1, 67, 105
3, 71579, Note_on_c, 1, 67, 0
3, 71580, Note_on_c, 1, 69, 100
3, 71609, Note_on_c, 1, 69, 0
3, 71610, Note_on_c, 1, 71, 105
3, 71639, Note_on_c, 1, 71, 0
3, 71640, Note_on_c, 1, 72, 102
3, 71760, Note_on_c, 1, 67, 80
3, 71760, Note_on_c, 1, 64, 85
3, 71760, Note_on_c, 1, 60, 70
3, 71760, Note_on_c, 1, 55, 82
3, 71879, Note_on_c, 1, 69, 89
3, 71879, Note_on_c, 1, 73, 89
3, 71879, Note_on_c, 1, 55, 0
3, 71879, Note_on_c, 1, 60, 0
3, 71879, Note_on_c, 1, 72, 0
3, 71879, Note_on_c, 1, 64, 0
3, 71879, Note_on_c, 1, 67, 0
3, 71880, Note_on_c, 1, 57, 85
3, 71881, Note_on_c, 1, 64, 87
3, 71918, Note_on_c, 1, 57, 0
3, 71934, Note_on_c, 1, 64, 0
3, 71934, Note_on_c, 1, 69, 0
3, 71938, Note_on_c, 1, 73, 0
3, 71947, Note_on_c, 1, 57, 89
3, 71960, Note_on_c, 1, 61, 100
3, 71966, Note_on_c, 1, 57, 0
3, 71976, Note_on_c, 1, 64, 89
3, 71983, Note_on_c, 1, 61, 0
3, 71989, Note_on_c, 1, 69, 82
3, 71996, Note_on_c, 1, 64, 0
3, 72002, Note_on_c, 1, 73, 110
3, 72005, Note_on_c, 1, 69, 0
3, 72041, Note_on_c, 1, 73, 0
3, 72060, Note_on_c, 1, 73, 95
3, 72060, Note_on_c, 1, 69, 80
3, 72061, Note_on_c, 1, 64, 72
3, 72063, Note_on_c, 1, 57, 87
3, 72095, Note_on_c, 1, 64, 0
3, 72104, Note_on_c, 1, 57, 0
3, 72108, Note_on_c, 1, 73, 0
3, 72109, Note_on_c, 1, 69, 0
3, 72118, Note_on_c, 1, 69, 89
3, 72119, Note_on_c, 1, 74, 98
3, 72119, Note_on_c, 1, 65, 85
3, 72120, Note_on_c, 1, 57, 82
3, 72159, Note_on_c, 1, 69, 0
3, 72161, Note_on_c, 1, 74, 0
3, 72164, Note_on_c, 1, 65, 0
3, 72168, Note_on_c, 1, 57, 0
3, 72177, Note_on_c, 1, 57, 100
3, 72192, Note_on_c, 1, 62, 80
3, 72199, Note_on_c, 1, 57, 0
3, 72205, Note_on_c, 1, 65, 80
3, 72210, Note_on_c, 1, 62, 0
3, 72219, Note_on_c, 1, 69, 93
3, 72223, Note_on_c, 1, 65, 0
3, 72232, Note_on_c, 1, 69, 0
3, 72235, Note_on_c, 1, 74, 113
3, 72270, Note_on_c, 1, 74, 0
3, 72293, Note_on_c, 1, 69, 89
3, 72293, Note_on_c, 1, 74, 98
3, 72293, Note_on_c, 1, 65, 78
3, 72294, Note_on_c, 1, 57, 98
3, 72327, Note_on_c, 1, 65, 0
3, 72337, Note_on_c, 1, 74, 0
3, 72338, Note_on_c, 1, 57, 0
3, 72340, Note_on_c, 1, 69, 0
3, 72351, Note_on_c, 1, 71, 95
3, 72352, Note_on_c, 1, 67, 95
3, 72352, Note_on_c, 1, 62, 82
3, 72353, Note_on_c, 1, 59, 89
3, 72398, Note_on_c, 1, 59, 0
3, 72400, Note_on_c, 1, 62, 0
3, 72404, Note_on_c, 1, 67, 0
3, 72404, Note_on_c, 1, 71, 0
3, 72415, Note_on_c, 1, 55, 76
3, 72430, Note_on_c, 1, 59, 85
3, 72433, Note_on_c, 1, 55, 0
3, 72445, Note_on_c, 1, 62, 80
3, 72446, Note_on_c, 1, 59, 0
3, 72458, Note_on_c, 1, 67, 98
3, 72462, Note_on_c, 1, 62, 0
3, 72470, Note_on_c, 1, 67, 0
3, 72471, Note_on_c, 1, 71, 107
3, 72519, Note_on_c, 1, 71, 0
3, 72534, Note_on_c, 1, 71, 102
3, 72534, Note_on_c, 1, 67, 100
3, 72535, Note_on_c, 1, 62, 76
3, 72537, Note_on_c, 1, 55, 89
3, 72572, Note_on_c, 1, 62, 0
3, 72580, Note_on_c, 1, 67, 0
3, 72582, Note_on_c, 1, 55, 0
3, 72588, Note_on_c, 1, 71, 0
3, 72595, Note_on_c, 1, 67, 95
3, 72595, Note_on_c, 1, 72, 95
3, 72595, Note_on_c, 1, 64, 82
3, 72596, Note_on_c, 1, 55, 85
3, 72631, Note_on_c, 1, 55, 0
3, 72645, Note_on_c, 1, 64, 0
3, 72648, Note_on_c, 1, 67, 0
3, 72651, Note_on_c, 1, 72, 0
3, 72661, Note_on_c, 1, 55, 85
3, 72674, Note_on_c, 1, 60, 100
3, 72679, Note_on_c, 1, 55, 0
3, 72691, Note_on_c, 1, 60, 0
3, 72692, Note_on_c, 1, 64, 85
3, 72704, Note_on_c, 1, 67, 95
3, 72707, Note_on_c, 1, 64, 0
3, 72717, Note_on_c, 1, 67, 0
3, 72719, Note_on_c, 1, 72, 116
3, 72762, Note_on_c, 1, 72, 0
3, 72779, Note_on_c, 1, 67, 98
3, 72779, Note_on_c, 1, 64, 85
3, 72779, Note_on_c, 1, 72, 105
3, 72780, Note_on_c, 1, 55, 95
3, 72825, Note_on_c, 1, 64, 0
3, 72829, Note_on_c, 1, 72, 0
3, 72830, Note_on_c, 1, 67, 0
3, 72832, Note_on_c, 1, 55, 0
3, 72842, Note_on_c, 1, 65, 100
3, 72842, Note_on_c, 1, 69, 105
3, 72843, Note_on_c, 1, 60, 85
3, 72844, Note_on_c, 1, 57, 82
3, 72891, Note_on_c, 1, 57, 0
3, 72891, Note_on_c, 1, 60, 0
3, 72893, Note_on_c, 1, 65, 0
3, 72895, Note_on_c, 1, 69, 0
3, 72900, Note_on_c, 1, 53, 72
3, 72916, Note_on_c, 1, 57, 89
3, 72919, Note_on_c, 1, 53, 0
3, 72932, Note_on_c, 1, 60, 87
3, 72934, Note_on_c, 1, 57, 0
3, 72947, Note_on_c, 1, 65, 100
3, 72952, Note_on_c, 1, 60, 0
3, 72961, Note_on_c, 1, 69, 116
3, 72961, Note_on_c, 1, 65, 0
3, 73001, Note_on_c, 1, 69, 0
3, 73020, Note_on_c, 1, 69, 98
3, 73021, Note_on_c, 1, 65, 89
3, 73021, Note_on_c, 1, 60, 80
3, 73022, Note_on_c, 1, 53, 91
3, 73059, Note_on_c, 1, 60, 0
3, 73067, Note_on_c, 1, 69, 0
3, 73069, Note_on_c, 1, 53, 0
3, 73074, Note_on_c, 1, 65, 0
3, 73083, Note_on_c, 1, 65, 91
3, 73083, Note_on_c, 1, 70, 100
3, 73083, Note_on_c, 1, 62, 72
3, 73084, Note_on_c, 1, 53, 82
3, 73116, Note_on_c, 1, 53, 0
3, 73137, Note_on_c, 1, 62, 0
3, 73137, Note_on_c, 1, 65, 0
3, 73138, Note_on_c, 1, 70, 0
3, 73143, Note_on_c, 1, 53, 87
3, 73157, Note_on_c, 1, 58, 95
3, 73162, Note_on_c, 1, 53, 0
3, 73170, Note_on_c, 1, 62, 78
3, 73180, Note_on_c, 1, 58, 0
3, 73182, Note_on_c, 1, 65, 89
3, 73188, Note_on_c, 1, 62, 0
3, 73197, Note_on_c, 1, 70, 110
3, 73199, Note_on_c, 1, 65, 0
3, 73236, Note_on_c, 1, 70, 0
3, 73254, Note_on_c, 1, 65, 89
3, 73254, Note_on_c, 1, 70, 93
3, 73255, Note_on_c, 1, 62, 78
3, 73257, Note_on_c, 1, 53, 82
3, 73295, Note_on_c, 1, 62, 0
3, 73300, Note_on_c, 1, 70, 0
3, 73306, Note_on_c, 1, 53, 0
3, 73307, Note_on_c, 1, 65, 0
3, 73316, Note_on_c, 1, 67, 95
3, 73317, Note_on_c, 1, 70, 100
3, 73317, Note_on_c, 1, 64, 80
3, 73318, Note_on_c, 1, 52, 80
3, 73354, Note_on_c, 1, 52, 0
3, 73369, Note_on_c, 1, 64, 0
3, 73372, Note_on_c, 1, 70, 0
3, 73373, Note_on_c, 1, 67, 0
3, 73377, Note_on_c, 1, 52, 80
3, 73391, Note_on_c, 1, 55, 85
3, 73400, Note_on_c, 1, 52, 0
3, 73406, Note_on_c, 1, 58, 82
3, 73412, Note_on_c, 1, 55, 0
3, 73422, Note_on_c, 1, 61, 100
3, 73427, Note_on_c, 1, 58, 0
3, 73436, Note_on_c, 1, 70, 107
3, 73441, Note_on_c, 1, 61, 0
3, 73477, Note_on_c, 1, 70, 0
3, 73496, Note_on_c, 1, 70, 98
3, 73497, Note_on_c, 1, 67, 100
3, 73497, Note_on_c, 1, 61, 87
3, 73497, Note_on_c, 1, 52, 72
3, 73542, Note_on_c, 1, 61, 0
3, 73547, Note_on_c, 1, 70, 0
3, 73548, Note_on_c, 1, 67, 0
3, 73556, Note_on_c, 1, 69, 87
3, 73556, Note_on_c, 1, 66, 82
3, 73558, Note_on_c, 1, 62, 89
3, 73558, Note_on_c, 1, 54, 91
3, 73560, Note_on_c, 1, 52, 0
3, 73611, Note_on_c, 1, 54, 0
3, 73612, Note_on_c, 1, 62, 0
3, 73612, Note_on_c, 1, 66, 0
3, 73613, Note_on_c, 1, 69, 0
3, 73617, Note_on_c, 1, 50, 70
3, 73631, Note_on_c, 1, 57, 89
3, 73637, Note_on_c, 1, 50, 0
3, 73648, Note_on_c, 1, 62, 87
3, 73661, Note_on_c, 1, 66, 107
3, 73669, Note_on_c, 1, 62, 0
3, 73672, Note_on_c, 1, 57, 0
3, 73675, Note_on_c, 1, 66, 0
3, 73680, Note_on_c, 1, 69, 105
3, 73739, Note_on_c, 1, 69, 0
3, 73740, Note_on_c, 1, 69, 91
3, 73740, Note_on_c, 1, 66, 82
3, 73740, Note_on_c, 1, 62, 95
3, 73740, Note_on_c, 1, 54, 100
3, 73799, Note_on_c, 1, 54, 0
3, 73799, Note_on_c, 1, 66, 0
3, 73800, Note_on_c, 1, 58, 78
3, 73800, Note_on_c, 1, 55, 89
3, 73919, Note_on_c, 1, 69, 0
3, 73920, Note_on_c, 1, 67, 87
3, 73979, Note_on_c, 1, 62, 0
3, 74039, Note_on_c, 1, 55, 0
3, 74040, Note_on_c, 1, 61, 76
3, 74040, Note_on_c, 1, 64, 82
3, 74159, Note_on_c, 1, 64, 0
3, 74159, Note_on_c, 1, 67, 0
3, 74159, Note_on_c, 1, 58, 0
3, 74159, Note_on_c, 1, 61, 0
3, 74160, Note_on_c, 1, 65, 85
3, 74160, Note_on_c, 1, 62, 87
3, 74160, Note_on_c, 1, 57, 82
3, 74279, Note_on_c, 1, 65, 0
3, 74280, Note_on_c, 1, 64, 85
3, 74399, Note_on_c, 1, 62, 0
3, 74400, Note_on_c, 1, 60, 95
3, 74519, Note_on_c, 1, 64, 0
3, 74519, Note_on_c, 1, 57, 0
3, 74520, Note_on_c, 1, 53, 91
3, 74520, Note_on_c, 1, 62, 85
3, 74639, Note_on_c, 1, 53, 0
3, 74639, Note_on_c, 1, 60, 0
3, 74640, Note_on_c, 1, 58, 87
3, 74640, Note_on_c, 1, 55, 100
3, 74759, Note_on_c, 1, 55, 0
3, 74759, Note_on_c, 1, 58, 0
3, 74760, Note_on_c, 1, 57, 95
3, 74760, Note_on_c, 1, 53, 102
3, 75239, Note_on_c, 1, 53, 0
3, 75239, Note_on_c, 1, 57, 0
3, 75239, Note_on_c, 1, 62, 0
3, 75239, End_track
4, 0, Start_track
4, 0, Title_t, "Pedal"
4, 2048, Note_on_c, 2, 38, 102
4, 3193, Note_on_c, 2, 38, 0
4, 6094, Note_on_c, 2, 38, 102
4, 6671, Note_on_c, 2, 38, 0
4, 7189, Note_on_c, 2, 38, 100
4, 7619, Note_on_c, 2, 38, 0
4, 10257, Note_on_c, 2, 50, 100
4, 10349, Note_on_c, 2, 48, 89
4, 10353, Note_on_c, 2, 50, 0
4, 10436, Note_on_c, 2, 48, 0
4, 10439, Note_on_c, 2, 46, 91
4, 10533, Note_on_c, 2, 46, 0
4, 10539, Note_on_c, 2, 45, 89
4, 10635, Note_on_c, 2, 45, 0
4, 10958, Note_on_c, 2, 50, 102
4, 11056, Note_on_c, 2, 48, 107
4, 11065, Note_on_c, 2, 50, 0
4, 11144, Note_on_c, 2, 48, 0
4, 11149, Note_on_c, 2, 46, 110
4, 11252, Note_on_c, 2, 46, 0
4, 11265, Note_on_c, 2, 45, 89
4, 11553, Note_on_c, 2, 45, 0
4, 12251, Note_on_c, 2, 50, 98
4, 12335, Note_on_c, 2, 48, 105
4, 12341, Note_on_c, 2, 50, 0
4, 12419, Note_on_c, 2, 46, 105
4, 12423, Note_on_c, 2, 48, 0
4, 12507, Note_on_c, 2, 45, 76
4, 12514, Note_on_c, 2, 46, 0
4, 12658, Note_on_c, 2, 45, 0
4, 12989, Note_on_c, 2, 50, 110
4, 13078, Note_on_c, 2, 48, 110
4, 13082, Note_on_c, 2, 50, 0
4, 13165, Note_on_c, 2, 46, 105
4, 13169, Note_on_c, 2, 48, 0
4, 13256, Note_on_c, 2, 45, 89
4, 13260, Note_on_c, 2, 46, 0
4, 13405, Note_on_c, 2, 44, 107
4, 13407, Note_on_c, 2, 45, 0
4, 13590, Note_on_c, 2, 43, 89
4, 13594, Note_on_c, 2, 44, 0
4, 13802, Note_on_c, 2, 43, 0
4, 14264, Note_on_c, 2, 55, 58
4, 14643, Note_on_c, 2, 55, 0
4, 17160, Note_on_c, 2, 58, 116
4, 17339, Note_on_c, 2, 58, 0
4, 17340, Note_on_c, 2, 57, 82
4, 17369, Note_on_c, 2, 57, 0
4, 17370, Note_on_c, 2, 55, 85
4, 17399, Note_on_c, 2, 55, 0
4, 17400, Note_on_c, 2, 57, 95
4, 17489, Note_on_c, 2, 57, 0
4, 17490, Note_on_c, 2, 52, 87
4, 17519, Note_on_c, 2, 52, 0
4, 17520, Note_on_c, 2, 53, 89
4, 17549, Note_on_c, 2, 53, 0
4, 17550, Note_on_c, 2, 50, 85
4, 17579, Note_on_c, 2, 50, 0
4, 17580, Note_on_c, 2, 52, 85
4, 17609, Note_on_c, 2, 52, 0
4, 17610, Note_on_c, 2, 49, 82
4, 17639, Note_on_c, 2, 49, 0
4, 17640, Note_on_c, 2, 50, 72
4, 17669, Note_on_c, 2, 50, 0
4, 17670, Note_on_c, 2, 47, 87
4, 17699, Note_on_c, 2, 47, 0
4, 17700, Note_on_c, 2, 49, 82
4, 17729, Note_on_c, 2, 49, 0
4, 17730, Note_on_c, 2, 45, 85
4, 17759, Note_on_c, 2, 45, 0
4, 17760, Note_on_c, 2, 46, 82
4, 17789, Note_on_c, 2, 46, 0
4, 17790, Note_on_c, 2, 44, 74
4, 17819, Note_on_c, 2, 44, 0
4, 17820, Note_on_c, 2, 45, 85
4, 17849, Note_on_c, 2, 45, 0
4, 17850, Note_on_c, 2, 55, 95
4, 17879, Note_on_c, 2, 55, 0
4, 17880, Note_on_c, 2, 53, 113
4, 17939, Note_on_c, 2, 53, 0
4, 17940, Note_on_c, 2, 50, 95
4, 17999, Note_on_c, 2, 50, 0
4, 18000, Note_on_c, 2, 45, 85
4, 18119, Note_on_c, 2, 45, 0
4, 18120, Note_on_c, 2, 38, 98
4, 18359, Note_on_c, 2, 38, 0
4, 28710, Note_on_c, 2, 50, 89
4, 28739, Note_on_c, 2, 50, 0
4, 28740, Note_on_c, 2, 48, 98
4, 28769, Note_on_c, 2, 48, 0
4, 28770, Note_on_c, 2, 50, 91
4, 28799, Note_on_c, 2, 50, 0
4, 28800, Note_on_c, 2, 46, 105
4, 28829, Note_on_c, 2, 46, 0
4, 28830, Note_on_c, 2, 50, 105
4, 28859, Note_on_c, 2, 50, 0
4, 28860, Note_on_c, 2, 45, 102
4, 28889, Note_on_c, 2, 45, 0
4, 28890, Note_on_c, 2, 50, 100
4, 28919, Note_on_c, 2, 50, 0
4, 28920, Note_on_c, 2, 43, 100
4, 28949, Note_on_c, 2, 43, 0
4, 28950, Note_on_c, 2, 50, 85
4, 28979, Note_on_c, 2, 50, 0
4, 28980, Note_on_c, 2, 42, 95
4, 29009, Note_on_c, 2, 42, 0
4, 29010, Note_on_c, 2, 50, 87
4, 29039, Note_on_c, 2, 50, 0
4, 29040, Note_on_c, 2, 43, 82
4, 29069, Note_on_c, 2, 43, 0
4, 29070, Note_on_c, 2, 50, 80
4, 29099, Note_on_c, 2, 50, 0
4, 29100, Note_on_c, 2, 45, 82
4, 29129, Note_on_c, 2, 45, 0
4, 29130, Note_on_c, 2, 50, 98
4, 29159, Note_on_c, 2, 50, 0
4, 29160, Note_on_c, 2, 46, 102
4, 29189, Note_on_c, 2, 46, 0
4, 29190, Note_on_c, 2, 50, 85
4, 29219, Note_on_c, 2, 50, 0
4, 29220, Note_on_c, 2, 38, 95
4, 29249, Note_on_c, 2, 38, 0
4, 29250, Note_on_c, 2, 50, 89
4, 29279, Note_on_c, 2, 50, 0
4, 29280, Note_on_c, 2, 40, 87
4, 29309, Note_on_c, 2, 40, 0
4, 29310, Note_on_c, 2, 50, 89
4, 29339, Note_on_c, 2, 50, 0
4, 29340, Note_on_c, 2, 42, 93
4, 29370, Note_on_c, 2, 50, 89
4, 29399, Note_on_c, 2, 50, 0
4, 29399, Note_on_c, 2, 42, 0
4, 29400, Note_on_c, 2, 43, 89
4, 29429, Note_on_c, 2, 43, 0
4, 29430, Note_on_c, 2, 50, 93
4, 29459, Note_on_c, 2, 50, 0
4, 29460, Note_on_c, 2, 42, 89
4, 29489, Note_on_c, 2, 42, 0
4, 29490, Note_on_c, 2, 50, 91
4, 29519, Note_on_c, 2, 50, 0
4, 29520, Note_on_c, 2, 43, 78
4, 29549, Note_on_c, 2, 43, 0
4, 29550, Note_on_c, 2, 50, 91
4, 29579, Note_on_c, 2, 50, 0
4, 29580, Note_on_c, 2, 45, 85
4, 29609, Note_on_c, 2, 45, 0
4, 29610, Note_on_c, 2, 50, 89
4, 29639, Note_on_c, 2, 50, 0
4, 29640, Note_on_c, 2, 46, 110
4, 29759, Note_on_c, 2, 46, 0
4, 29820, Note_on_c, 2, 47, 102
4, 29879, Note_on_c, 2, 47, 0
4, 29880, Note_on_c, 2, 48, 105
4, 29999, Note_on_c, 2, 48, 0
4, 30060, Note_on_c, 2, 49, 102
4, 30119, Note_on_c, 2, 49, 0
4, 30120, Note_on_c, 2, 50, 107
4, 30239, Note_on_c, 2, 50, 0
4, 30300, Note_on_c, 2, 50, 102
4, 30359, Note_on_c, 2, 50, 0
4, 30360, Note_on_c, 2, 52, 95
4, 30479, Note_on_c, 2, 52, 0
4, 30540, Note_on_c, 2, 52, 95
4, 30599, Note_on_c, 2, 52, 0
4, 30600, Note_on_c, 2, 53, 91
4, 30659, Note_on_c, 2, 53, 0
4, 30660, Note_on_c, 2, 45, 91
4, 30719, Note_on_c, 2, 45, 0
4, 30720, Note_on_c, 2, 46, 89
4, 30779, Note_on_c, 2, 46, 0
4, 30780, Note_on_c, 2, 50, 87
4, 30839, Note_on_c, 2, 50, 0
4, 30840, Note_on_c, 2, 43, 100
4, 30959, Note_on_c, 2, 43, 0
4, 31020, Note_on_c, 2, 46, 110
4, 31139, Note_on_c, 2, 46, 0
4, 31140, Note_on_c, 2, 45, 87
4, 31199, Note_on_c, 2, 45, 0
4, 31200, Note_on_c, 2, 43, 89
4, 31259, Note_on_c, 2, 43, 0
4, 31260, Note_on_c, 2, 48, 89
4, 31319, Note_on_c, 2, 48, 0
4, 31320, Note_on_c, 2, 41, 91
4, 31439, Note_on_c, 2, 41, 0
4, 45270, Note_on_c, 2, 55, 85
4, 45299, Note_on_c, 2, 55, 0
4, 45300, Note_on_c, 2, 53, 87
4, 45329, Note_on_c, 2, 53, 0
4, 45330, Note_on_c, 2, 55, 85
4, 45359, Note_on_c, 2, 55, 0
4, 45360, Note_on_c, 2, 51, 98
4, 45389, Note_on_c, 2, 51, 0
4, 45390, Note_on_c, 2, 55, 91
4, 45419, Note_on_c, 2, 55, 0
4, 45420, Note_on_c, 2, 50, 98
4, 45449, Note_on_c, 2, 50, 0
4, 45450, Note_on_c, 2, 55, 85
4, 45479, Note_on_c, 2, 55, 0
4, 45480, Note_on_c, 2, 48, 95
4, 45509, Note_on_c, 2, 48, 0
4, 45510, Note_on_c, 2, 55, 78
4, 45539, Note_on_c, 2, 55, 0
4, 45540, Note_on_c, 2, 47, 85
4, 45569, Note_on_c, 2, 47, 0
4, 45570, Note_on_c, 2, 55, 85
4, 45599, Note_on_c, 2, 55, 0
4, 45600, Note_on_c, 2, 48, 95
4, 45629, Note_on_c, 2, 48, 0
4, 45630, Note_on_c, 2, 55, 78
4, 45659, Note_on_c, 2, 55, 0
4, 45660, Note_on_c, 2, 50, 87
4, 45689, Note_on_c, 2, 50, 0
4, 45690, Note_on_c, 2, 55, 74
4, 45719, Note_on_c, 2, 55, 0
4, 45720, Note_on_c, 2, 51, 64
4, 45749, Note_on_c, 2, 51, 0
4, 45750, Note_on_c, 2, 55, 78
4, 45779, Note_on_c, 2, 55, 0
4, 45780, Note_on_c, 2, 43, 87
4, 45809, Note_on_c, 2, 43, 0
4, 45810, Note_on_c, 2, 55, 70
4, 45839, Note_on_c, 2, 55, 0
4, 45840, Note_on_c, 2, 45, 76
4, 45869, Note_on_c, 2, 45, 0
4, 45870, Note_on_c, 2, 55, 78
4, 45899, Note_on_c, 2, 55, 0
4, 45900, Note_on_c, 2, 47, 80
4, 45930, Note_on_c, 2, 55, 66
4, 45959, Note_on_c, 2, 55, 0
4, 45959, Note_on_c, 2, 47, 0
4, 45960, Note_on_c, 2, 48, 64
4, 45989, Note_on_c, 2, 48, 0
4, 45990, Note_on_c, 2, 55, 63
4, 46019, Note_on_c, 2, 55, 0
4, 46020, Note_on_c, 2, 47, 87
4, 46049, Note_on_c, 2, 47, 0
4, 46050, Note_on_c, 2, 55, 62
4, 46079, Note_on_c, 2, 55, 0
4, 46080, Note_on_c, 2, 48, 72
4, 46109, Note_on_c, 2, 48, 0
4, 46110, Note_on_c, 2, 55, 70
4, 46139, Note_on_c, 2, 55, 0
4, 46140, Note_on_c, 2, 50, 80
4, 46169, Note_on_c, 2, 50, 0
4, 46170, Note_on_c, 2, 55, 82
4, 46199, Note_on_c, 2, 55, 0
4, 46200, Note_on_c, 2, 51, 80
4, 46259, Note_on_c, 2, 51, 0
4, 46260, Note_on_c, 2, 50, 89
4, 46319, Note_on_c, 2, 50, 0
4, 46320, Note_on_c, 2, 48, 85
4, 46379, Note_on_c, 2, 48, 0
4, 46380, Note_on_c, 2, 47, 74
4, 46439, Note_on_c, 2, 47, 0
4, 46440, Note_on_c, 2, 48, 82
4, 46499, Note_on_c, 2, 48, 0
4, 46500, Note_on_c, 2, 50, 87
4, 46559, Note_on_c, 2, 50, 0
4, 46560, Note_on_c, 2, 51, 89
4, 46619, Note_on_c, 2, 51, 0
4, 46620, Note_on_c, 2, 53, 89
4, 46679, Note_on_c, 2, 53, 0
4, 46680, Note_on_c, 2, 55, 87
4, 46739, Note_on_c, 2, 55, 0
4, 46740, Note_on_c, 2, 47, 93
4, 46799, Note_on_c, 2, 47, 0
4, 46800, Note_on_c, 2, 48, 91
4, 46859, Note_on_c, 2, 48, 0
4, 46860, Note_on_c, 2, 50, 89
4, 46919, Note_on_c, 2, 50, 0
4, 46920, Note_on_c, 2, 51, 80
4, 46979, Note_on_c, 2, 51, 0
4, 46980, Note_on_c, 2, 50, 60
4, 47039, Note_on_c, 2, 50, 0
4, 47040, Note_on_c, 2, 51, 82
4, 47099, Note_on_c, 2, 51, 0
4, 47100, Note_on_c, 2, 53, 87
4, 47159, Note_on_c, 2, 53, 0
4, 47160, Note_on_c, 2, 55, 85
4, 47219, Note_on_c, 2, 55, 0
4, 47220, Note_on_c, 2, 47, 93
4, 47279, Note_on_c, 2, 47, 0
4, 47280, Note_on_c, 2, 48, 85
4, 47339, Note_on_c, 2, 48, 0
4, 47340, Note_on_c, 2, 50, 89
4, 47399, Note_on_c, 2, 50, 0
4, 47400, Note_on_c, 2, 51, 76
4, 47459, Note_on_c, 2, 51, 0
4, 47460, Note_on_c, 2, 45, 89
4, 47519, Note_on_c, 2, 45, 0
4, 47520, Note_on_c, 2, 46, 78
4, 47579, Note_on_c, 2, 46, 0
4, 47580, Note_on_c, 2, 48, 87
4, 47639, Note_on_c, 2, 48, 0
4, 47640, Note_on_c, 2, 50, 85
4, 47699, Note_on_c, 2, 50, 0
4, 47700, Note_on_c, 2, 43, 95
4, 47759, Note_on_c, 2, 43, 0
4, 47760, Note_on_c, 2, 45, 91
4, 47819, Note_on_c, 2, 45, 0
4, 47820, Note_on_c, 2, 46, 89
4, 47879, Note_on_c, 2, 46, 0
4, 47880, Note_on_c, 2, 48, 91
4, 47939, Note_on_c, 2, 48, 0
4, 47940, Note_on_c, 2, 50, 87
4, 47999, Note_on_c, 2, 50, 0
4, 48000, Note_on_c, 2, 55, 82
4, 48059, Note_on_c, 2, 55, 0
4, 48060, Note_on_c, 2, 50, 89
4, 48119, Note_on_c, 2, 50, 0
4, 48120, Note_on_c, 2, 51, 80
4, 48179, Note_on_c, 2, 51, 0
4, 48180, Note_on_c, 2, 46, 98
4, 48239, Note_on_c, 2, 46, 0
4, 48240, Note_on_c, 2, 45, 85
4, 48299, Note_on_c, 2, 45, 0
4, 48300, Note_on_c, 2, 48, 100
4, 48359, Note_on_c, 2, 48, 0
4, 48360, Note_on_c, 2, 50, 89
4, 49379, Note_on_c, 2, 50, 0
4, 49505, Note_on_c, 2, 43, 87
4, 49561, Note_on_c, 2, 48, 87
4, 49562, Note_on_c, 2, 43, 0
4, 49621, Note_on_c, 2, 45, 89
4, 49626, Note_on_c, 2, 48, 0
4, 49682, Note_on_c, 2, 50, 98
4, 49690, Note_on_c, 2, 45, 0
4, 49738, Note_on_c, 2, 38, 87
4, 49745, Note_on_c, 2, 50, 0
4, 49800, Note_on_c, 2, 43, 98
4, 49806, Note_on_c, 2, 38, 0
4, 49922, Note_on_c, 2, 43, 0
4, 49983, Note_on_c, 2, 43, 93
4, 50041, Note_on_c, 2, 48, 85
4, 50041, Note_on_c, 2, 43, 0
4, 50221, Note_on_c, 2, 47, 100
4, 50226, Note_on_c, 2, 48, 0
4, 50283, Note_on_c, 2, 48, 98
4, 50291, Note_on_c, 2, 47, 0
4, 50394, Note_on_c, 2, 48, 0
4, 56310, Note_on_c, 2, 57, 82
4, 56339, Note_on_c, 2, 57, 0
4, 56340, Note_on_c, 2, 55, 82
4, 56369, Note_on_c, 2, 55, 0
4, 56370, Note_on_c, 2, 57, 76
4, 56399, Note_on_c, 2, 57, 0
4, 56400, Note_on_c, 2, 53, 98
4, 56429, Note_on_c, 2, 53, 0
4, 56430, Note_on_c, 2, 57, 85
4, 56459, Note_on_c, 2, 57, 0
4, 56460, Note_on_c, 2, 52, 100
4, 56489, Note_on_c, 2, 52, 0
4, 56490, Note_on_c, 2, 57, 89
4, 56519, Note_on_c, 2, 57, 0
4, 56520, Note_on_c, 2, 50, 89
4, 56549, Note_on_c, 2, 50, 0
4, 56550, Note_on_c, 2, 57, 72
4, 56579, Note_on_c, 2, 57, 0
4, 56580, Note_on_c, 2, 49, 89
4, 56609, Note_on_c, 2, 49, 0
4, 56610, Note_on_c, 2, 57, 70
4, 56639, Note_on_c, 2, 57, 0
4, 56640, Note_on_c, 2, 50, 95
4, 56669, Note_on_c, 2, 50, 0
4, 56670, Note_on_c, 2, 57, 66
4, 56699, Note_on_c, 2, 57, 0
4, 56700, Note_on_c, 2, 52, 102
4, 56729, Note_on_c, 2, 52, 0
4, 56730, Note_on_c, 2, 57, 89
4, 56759, Note_on_c, 2, 57, 0
4, 56760, Note_on_c, 2, 53, 95
4, 56789, Note_on_c, 2, 53, 0
4, 56790, Note_on_c, 2, 57, 87
4, 56819, Note_on_c, 2, 57, 0
4, 56820, Note_on_c, 2, 45, 74
4, 56849, Note_on_c, 2, 45, 0
4, 56850, Note_on_c, 2, 57, 80
4, 56879, Note_on_c, 2, 57, 0
4, 56880, Note_on_c, 2, 47, 105
4, 56909, Note_on_c, 2, 47, 0
4, 56910, Note_on_c, 2, 57, 78
4, 56939, Note_on_c, 2, 57, 0
4, 56940, Note_on_c, 2, 49, 102
4, 56969, Note_on_c, 2, 49, 0
4, 56970, Note_on_c, 2, 57, 82
4, 56999, Note_on_c, 2, 57, 0
4, 57000, Note_on_c, 2, 50, 98
4, 57029, Note_on_c, 2, 50, 0
4, 57030, Note_on_c, 2, 57, 74
4, 57059, Note_on_c, 2, 57, 0
4, 57060, Note_on_c, 2, 49, 95
4, 57089, Note_on_c, 2, 49, 0
4, 57090, Note_on_c, 2, 57, 80
4, 57119, Note_on_c, 2, 57, 0
4, 57120, Note_on_c, 2, 50, 87
4, 57149, Note_on_c, 2, 50, 0
4, 57150, Note_on_c, 2, 57, 89
4, 57179, Note_on_c, 2, 57, 0
4, 57180, Note_on_c, 2, 52, 87
4, 57209, Note_on_c, 2, 52, 0
4, 57210, Note_on_c, 2, 57, 91
4, 57239, Note_on_c, 2, 57, 0
4, 57240, Note_on_c, 2, 53, 105
4, 57359, Note_on_c, 2, 53, 0
4, 57420, Note_on_c, 2, 53, 95
4, 57479, Note_on_c, 2, 53, 0
4, 57480, Note_on_c, 2, 55, 100
4, 57539, Note_on_c, 2, 55, 0
4, 57540, Note_on_c, 2, 52, 95
4, 57599, Note_on_c, 2, 52, 0
4, 57600, Note_on_c, 2, 57, 87
4, 57659, Note_on_c, 2, 57, 0
4, 57660, Note_on_c, 2, 45, 93
4, 57719, Note_on_c, 2, 45, 0
4, 57720, Note_on_c, 2, 50, 100
4, 57899, Note_on_c, 2, 50, 0
4, 57900, Note_on_c, 2, 45, 85
4, 57959, Note_on_c, 2, 45, 0
4, 57960, Note_on_c, 2, 46, 100
4, 58019, Note_on_c, 2, 46, 0
4, 58020, Note_on_c, 2, 43, 87
4, 58079, Note_on_c, 2, 43, 0
4, 58080, Note_on_c, 2, 48, 93
4, 58139, Note_on_c, 2, 48, 0
4, 58140, Note_on_c, 2, 36, 89
4, 58199, Note_on_c, 2, 36, 0
4, 58200, Note_on_c, 2, 41, 98
4, 58319, Note_on_c, 2, 41, 0
4, 58380, Note_on_c, 2, 45, 93
4, 58439, Note_on_c, 2, 45, 0
4, 58440, Note_on_c, 2, 46, 89
4, 58559, Note_on_c, 2, 46, 0
4, 58620, Note_on_c, 2, 46, 98
4, 58679, Note_on_c, 2, 46, 0
4, 58680, Note_on_c, 2, 48, 95
4, 58799, Note_on_c, 2, 48, 0
4, 58860, Note_on_c, 2, 45, 82
4, 58919, Note_on_c, 2, 45, 0
4, 58920, Note_on_c, 2, 50, 98
4, 59039, Note_on_c, 2, 50, 0
4, 59160, Note_on_c, 2, 50, 89
4, 59279, Note_on_c, 2, 50, 0
4, 59400, Note_on_c, 2, 50, 89
4, 59519, Note_on_c, 2, 50, 0
4, 59640, Note_on_c, 2, 50, 95
4, 59819, Note_on_c, 2, 50, 0
4, 59880, Note_on_c, 2, 50, 105
4, 59999, Note_on_c, 2, 50, 0
4, 60120, Note_on_c, 2, 50, 82
4, 60239, Note_on_c, 2, 50, 0
4, 60360, Note_on_c, 2, 50, 87
4, 60479, Note_on_c, 2, 50, 0
4, 60600, Note_on_c, 2, 50, 74
4, 60779, Note_on_c, 2, 50, 0
4, 60840, Note_on_c, 2, 50, 100
4, 60959, Note_on_c, 2, 50, 0
4, 61080, Note_on_c, 2, 50, 105
4, 61199, Note_on_c, 2, 50, 0
4, 61350, Note_on_c, 2, 50, 98
4, 61379, Note_on_c, 2, 50, 0
4, 61380, Note_on_c, 2, 48, 89
4, 61409, Note_on_c, 2, 48, 0
4, 61410, Note_on_c, 2, 50, 87
4, 61439, Note_on_c, 2, 50, 0
4, 61440, Note_on_c, 2, 46, 105
4, 61469, Note_on_c, 2, 46, 0
4, 61470, Note_on_c, 2, 50, 89
4, 61499, Note_on_c, 2, 50, 0
4, 61500, Note_on_c, 2, 45, 76
4, 61529, Note_on_c, 2, 45, 0
4, 61530, Note_on_c, 2, 50, 78
4, 61559, Note_on_c, 2, 50, 0
4, 61560, Note_on_c, 2, 43, 89
4, 61589, Note_on_c, 2, 43, 0
4, 61590, Note_on_c, 2, 55, 70
4, 61619, Note_on_c, 2, 55, 0
4, 61620, Note_on_c, 2, 53, 85
4, 61649, Note_on_c, 2, 53, 0
4, 61650, Note_on_c, 2, 55, 87
4, 61679, Note_on_c, 2, 55, 0
4, 61680, Note_on_c, 2, 51, 105
4, 61709, Note_on_c, 2, 51, 0
4, 61710, Note_on_c, 2, 55, 85
4, 61739, Note_on_c, 2, 55, 0
4, 61740, Note_on_c, 2, 50, 87
4, 61769, Note_on_c, 2, 50, 0
4, 61770, Note_on_c, 2, 55, 68
4, 61799, Note_on_c, 2, 55, 0
4, 61800, Note_on_c, 2, 48, 85
4, 61829, Note_on_c, 2, 48, 0
4, 61830, Note_on_c, 2, 48, 89
4, 61859, Note_on_c, 2, 48, 0
4, 61860, Note_on_c, 2, 46, 89
4, 61889, Note_on_c, 2, 46, 0
4, 61890, Note_on_c, 2, 48, 87
4, 61919, Note_on_c, 2, 48, 0
4, 61920, Note_on_c, 2, 45, 100
4, 61949, Note_on_c, 2, 45, 0
4, 61950, Note_on_c, 2, 48, 98
4, 61979, Note_on_c, 2, 48, 0
4, 61980, Note_on_c, 2, 43, 87
4, 62009, Note_on_c, 2, 43, 0
4, 62010, Note_on_c, 2, 48, 82
4, 62039, Note_on_c, 2, 48, 0
4, 62040, Note_on_c, 2, 41, 85
4, 62069, Note_on_c, 2, 41, 0
4, 62070, Note_on_c, 2, 53, 68
4, 62099, Note_on_c, 2, 53, 0
4, 62100, Note_on_c, 2, 51, 57
4, 62129, Note_on_c, 2, 51, 0
4, 62130, Note_on_c, 2, 53, 85
4, 62159, Note_on_c, 2, 53, 0
4, 62160, Note_on_c, 2, 50, 105
4, 62189, Note_on_c, 2, 50, 0
4, 62190, Note_on_c, 2, 53, 100
4, 62219, Note_on_c, 2, 53, 0
4, 62220, Note_on_c, 2, 48, 98
4, 62249, Note_on_c, 2, 48, 0
4, 62250, Note_on_c, 2, 53, 82
4, 62279, Note_on_c, 2, 53, 0
4, 62280, Note_on_c, 2, 46, 85
4, 62339, Note_on_c, 2, 46, 0
4, 62340, Note_on_c, 2, 51, 93
4, 62399, Note_on_c, 2, 51, 0
4, 62400, Note_on_c, 2, 53, 91
4, 62459, Note_on_c, 2, 53, 0
4, 62460, Note_on_c, 2, 41, 91
4, 62519, Note_on_c, 2, 41, 0
4, 62520, Note_on_c, 2, 43, 80
4, 62579, Note_on_c, 2, 43, 0
4, 62580, Note_on_c, 2, 48, 87
4, 62639, Note_on_c, 2, 48, 0
4, 62640, Note_on_c, 2, 50, 85
4, 62699, Note_on_c, 2, 50, 0
4, 62700, Note_on_c, 2, 38, 85
4, 62759, Note_on_c, 2, 38, 0
4, 62760, Note_on_c, 2, 43, 93
4, 62879, Note_on_c, 2, 43, 0
4, 62910, Note_on_c, 2, 45, 98
4, 62939, Note_on_c, 2, 45, 0
4, 62940, Note_on_c, 2, 43, 107
4, 62969, Note_on_c, 2, 43, 0
4, 62970, Note_on_c, 2, 45, 87
4, 62999, Note_on_c, 2, 45, 0
4, 63000, Note_on_c, 2, 41, 105
4, 63059, Note_on_c, 2, 41, 0
4, 63060, Note_on_c, 2, 38, 91
4, 63119, Note_on_c, 2, 38, 0
4, 63120, Note_on_c, 2, 45, 100
4, 63239, Note_on_c, 2, 45, 0
4, 63240, Note_on_c, 2, 38, 95
4, 63959, Note_on_c, 2, 38, 0
4, 64140, Note_on_c, 2, 50, 89
4, 64199, Note_on_c, 2, 50, 0
4, 64200, Note_on_c, 2, 45, 85
4, 64259, Note_on_c, 2, 45, 0
4, 64260, Note_on_c, 2, 41, 87
4, 64319, Note_on_c, 2, 41, 0
4, 64320, Note_on_c, 2, 43, 87
4, 64379, Note_on_c, 2, 43, 0
4, 64380, Note_on_c, 2, 45, 85
4, 64439, Note_on_c, 2, 45, 0
4, 64440, Note_on_c, 2, 41, 89
4, 64499, Note_on_c, 2, 41, 0
4, 64500, Note_on_c, 2, 38, 82
4, 64559, Note_on_c, 2, 38, 0
4, 64560, Note_on_c, 2, 43, 80
4, 64619, Note_on_c, 2, 43, 0
4, 64620, Note_on_c, 2, 45, 80
4, 64679, Note_on_c, 2, 45, 0
4, 64680, Note_on_c, 2, 46, 113
4, 64919, Note_on_c, 2, 46, 0
4, 66600, Note_on_c, 2, 49, 113
4, 66839, Note_on_c, 2, 53, 98
4, 66845, Note_on_c, 2, 49, 0
4, 67025, Note_on_c, 2, 50, 107
4, 67027, Note_on_c, 2, 53, 0
4, 67085, Note_on_c, 2, 44, 110
4, 67085, Note_on_c, 2, 50, 0
4, 67329, Note_on_c, 2, 44, 0
4, 67357, Note_on_c, 2, 56, 100
4, 67387, Note_on_c, 2, 59, 85
4, 67392, Note_on_c, 2, 56, 0
4, 67417, Note_on_c, 2, 53, 87
4, 67421, Note_on_c, 2, 59, 0
4, 67446, Note_on_c, 2, 56, 100
4, 67449, Note_on_c, 2, 53, 0
4, 67474, Note_on_c, 2, 50, 76
4, 67479, Note_on_c, 2, 56, 0
4, 67504, Note_on_c, 2, 53, 89
4, 67508, Note_on_c, 2, 50, 0
4, 67528, Note_on_c, 2, 53, 0
4, 67530, Note_on_c, 2, 47, 87
4, 67557, Note_on_c, 2, 47, 0
4, 67559, Note_on_c, 2, 50, 89
4, 67587, Note_on_c, 2, 44, 91
4, 67589, Note_on_c, 2, 50, 0
4, 67614, Note_on_c, 2, 45, 98
4, 67616, Note_on_c, 2, 44, 0
4, 67668, Note_on_c, 2, 40, 91
4, 67669, Note_on_c, 2, 45, 0
4, 68364, Note_on_c, 2, 40, 0
4, 71760, Note_on_c, 2, 52, 102
4, 71880, Note_on_c, 2, 55, 105
4, 71896, Note_on_c, 2, 52, 0
4, 71939, Note_on_c, 2, 55, 0
4, 72060, Note_on_c, 2, 55, 105
4, 72119, Note_on_c, 2, 55, 0
4, 72120, Note_on_c, 2, 53, 110
4, 72179, Note_on_c, 2, 53, 0
4, 72300, Note_on_c, 2, 53, 110
4, 72359, Note_on_c, 2, 53, 0
4, 72360, Note_on_c, 2, 53, 102
4, 72419, Note_on_c, 2, 53, 0
4, 72540, Note_on_c, 2, 53, 100
4, 72599, Note_on_c, 2, 53, 0
4, 72600, Note_on_c, 2, 52, 107
4, 72659, Note_on_c, 2, 52, 0
4, 72780, Note_on_c, 2, 52, 102
4, 72839, Note_on_c, 2, 52, 0
4, 72840, Note_on_c, 2, 52, 105
4, 72899, Note_on_c, 2, 52, 0
4, 73020, Note_on_c, 2, 52, 98
4, 73079, Note_on_c, 2, 52, 0
4, 73080, Note_on_c, 2, 50, 105
4, 73139, Note_on_c, 2, 50, 0
4, 73260, Note_on_c, 2, 50, 87
4, 73319, Note_on_c, 2, 50, 0
4, 73320, Note_on_c, 2, 49, 87
4, 73379, Note_on_c, 2, 49, 0
4, 73500, Note_on_c, 2, 49, 102
4, 73559, Note_on_c, 2, 49, 0
4, 73560, Note_on_c, 2, 48, 100
4, 73619, Note_on_c, 2, 48, 0
4, 73740, Note_on_c, 2, 48, 91
4, 73799, Note_on_c, 2, 48, 0
4, 73800, Note_on_c, 2, 43, 100
4, 73919, Note_on_c, 2, 43, 0
4, 73920, Note_on_c, 2, 46, 107
4, 74039, Note_on_c, 2, 46, 0
4, 74040, Note_on_c, 2, 40, 98
4, 74159, Note_on_c, 2, 40, 0
4, 74160, Note_on_c, 2, 41, 91
4, 74279, Note_on_c, 2, 41, 0
4, 74280, Note_on_c, 2, 45, 82
4, 74519, Note_on_c, 2, 45, 0
4, 74520, Note_on_c, 2, 46, 82
4, 74639, Note_on_c, 2, 46, 0
4, 74640, Note_on_c, 2, 43, 87
4, 74759, Note_on_c, 2, 43, 0
4, 74761, Note_on_c, 2, 50, 72
4, 74761, Note_on_c, 2, 38, 87
4, 75240, Note_on_c, 2, 38, 0
4, 75240, Note_on_c, 2, 50, 0
4, 75240, End_track
5, 0, Start_track
5, 0, Title_t, "Main Piston"
5, 0, Program_c, 7, 6
5, 7745, Program_c, 7, 3
5, 10256, Program_c, 7, 4
5, 12960, Program_c, 7, 6
5, 16906, Program_c, 7, 8
5, 18360, Program_c, 7, 3
5, 44640, Program_c, 7, 4
5, 56280, Program_c, 7, 6
5, 64920, Program_c, 7, 8
5, 73739, Program_c, 7, 9
5, 73739, End_track
0, 0, End_of_file
