0, 0, Header, 1, 11, 48
1, 0, Start_track
1, 0, Time_signature, 4, 2, 24, 8
1, 0, Tempo, 340909
1, 24, Tempo, 340909
1, 36, Tempo, 340909
1, 48, Tempo, 340909
1, 66, Tempo, 340909
1, 78, Tempo, 340909
1, 96, Tempo, 340909
1, 108, Tempo, 340909
1, 120, Tempo, 340909
1, 126, Tempo, 340909
1, 138, Tempo, 340909
1, 150, Tempo, 340909
1, 156, Tempo, 750000
1, 168, Tempo, 750000
1, 180, Tempo, 750000
1, 192, Tempo, 750000
1, 204, Tempo, 2000000
1, 216, Tempo, 800000
1, 228, Tempo, 800000
1, 240, Tempo, 800000
1, 252, Tempo, 800000
1, 258, Tempo, 2000000
1, 270, Tempo, 2000000
1, 276, Tempo, 2000000
1, 288, Tempo, 606060
1, 300, Tempo, 2000000
1, 312, Tempo, 2000000
1, 318, Tempo, 1395348
1, 330, Tempo, 1304347
1, 342, Tempo, 1304347
1, 348, Tempo, 2000000
1, 360, Tempo, 2000000
1, 384, Tempo, 2000000
1, 408, Tempo, 983606
1, 420, Tempo, 983606
1, 432, Tempo, 1250000
1, 444, Tempo, 1250000
1, 450, Tempo, 2000000
1, 462, Tempo, 2000000
1, 528, Tempo, 2000000
1, 540, Tempo, 2000000
1, 576, Tempo, 2000000
1, 588, Tempo, 2000000
1, 600, Tempo, 2000000
1, 612, Tempo, 2000000
1, 624, Tempo, 2000000
1, 636, Tempo, 2000000
1, 648, Tempo, 2000000
1, 672, Tempo, 2000000
1, 684, Tempo, 2000000
1, 696, Tempo, 2000000
1, 708, Tempo, 2000000
1, 720, Tempo, 666666
1, 732, Tempo, 666666
1, 744, Tempo, 666666
1, 768, Tempo, 845070
1, 780, Tempo, 769230
1, 792, Tempo, 697674
1, 804, Tempo, 631578
1, 816, Tempo, 582524
1, 828, Tempo, 545454
1, 840, Tempo, 666666
1, 864, Tempo, 845070
1, 876, Tempo, 769230
1, 888, Tempo, 697674
1, 900, Tempo, 631578
1, 912, Tempo, 582524
1, 924, Tempo, 545454
1, 936, Tempo, 500000
1, 960, Tempo, 666666
1, 984, Tempo, 666666
1, 996, Tempo, 666666
1, 1008, Tempo, 666666
1, 1020, Tempo, 666666
1, 1032, Tempo, 666666
1, 1056, Tempo, 666666
1, 1068, Tempo, 666666
1, 1080, Tempo, 666666
1, 1092, Tempo, 666666
1, 1104, Tempo, 666666
1, 1116, Tempo, 666666
1, 1128, Tempo, 666666
1, 1152, Tempo, 750000
1, 1164, Tempo, 697674
1, 1176, Tempo, 645161
1, 1188, Tempo, 606060
1, 1200, Tempo, 566037
1, 1212, Tempo, 535714
1, 1224, Tempo, 666666
1, 1248, Tempo, 750000
1, 1260, Tempo, 697674
1, 1272, Tempo, 645161
1, 1284, Tempo, 606060
1, 1296, Tempo, 566037
1, 1308, Tempo, 535714
1, 1320, Tempo, 666666
1, 1344, Tempo, 666666
1, 1536, Tempo, 666666
1, 1728, Tempo, 666666
1, 1752, Tempo, 666666
1, 1764, Tempo, 666666
1, 1776, Tempo, 666666
1, 1788, Tempo, 666666
1, 1800, Tempo, 666666
1, 1812, Tempo, 666666
1, 1824, Tempo, 666666
1, 1848, Tempo, 666666
1, 1920, Tempo, 666666
1, 1932, Tempo, 666666
1, 1944, Tempo, 666666
1, 1956, Tempo, 714285
1, 1968, Tempo, 789473
1, 1980, Tempo, 845070
1, 1992, Tempo, 952380
1, 2004, Tempo, 1034482
1, 2016, Tempo, 666666
1, 2040, Tempo, 666666
1, 2052, Tempo, 666666
1, 2064, Tempo, 666666
1, 2088, Tempo, 666666
1, 2112, Tempo, 869565
1, 2124, Tempo, 869565
1, 2160, Tempo, 869565
1, 2172, Tempo, 952380
1, 2184, Tempo, 1071428
1, 2196, Tempo, 1200000
1, 2208, Tempo, 1395348
1, 2232, Tempo, 2000000
1, 2244, Tempo, 1250000
1, 2256, Tempo, 869565
1, 2280, Tempo, 2000000
1, 2304, Tempo, 2000000
1, 2316, Tempo, 2000000
1, 2328, Tempo, 2000000
1, 2340, Tempo, 2000000
1, 2352, Tempo, 2000000
1, 2364, Tempo, 2000000
1, 2376, Tempo, 845070
1, 2388, Tempo, 845070
1, 2400, Tempo, 1153846
1, 2424, Tempo, 1153846
1, 2436, Tempo, 1153846
1, 2448, Tempo, 1153846
1, 2460, Tempo, 1153846
1, 2472, Tempo, 1153846
1, 2484, Tempo, 1153846
1, 2496, Tempo, 1153846
1, 2508, Tempo, 1111111
1, 2520, Tempo, 1071428
1, 2532, Tempo, 1034482
1, 2544, Tempo, 1000000
1, 2556, Tempo, 983606
1, 2568, Tempo, 952380
1, 2580, Tempo, 923076
1, 2592, Tempo, 895522
1, 2604, Tempo, 869565
1, 2616, Tempo, 845070
1, 2628, Tempo, 821917
1, 2640, Tempo, 800000
1, 2652, Tempo, 789473
1, 2664, Tempo, 769230
1, 2676, Tempo, 750000
1, 2688, Tempo, 714285
1, 2712, Tempo, 714285
1, 2724, Tempo, 714285
1, 2736, Tempo, 714285
1, 2748, Tempo, 714285
1, 2760, Tempo, 714285
1, 2772, Tempo, 714285
1, 2784, Tempo, 714285
1, 2796, Tempo, 714285
1, 2808, Tempo, 714285
1, 2820, Tempo, 714285
1, 2832, Tempo, 714285
1, 2844, Tempo, 714285
1, 2856, Tempo, 714285
1, 2868, Tempo, 714285
1, 2880, Tempo, 714285
1, 2904, Tempo, 731707
1, 2916, Tempo, 750000
1, 2928, Tempo, 769230
1, 2940, Tempo, 789473
1, 2952, Tempo, 800000
1, 2964, Tempo, 821917
1, 2976, Tempo, 845070
1, 2988, Tempo, 869565
1, 3000, Tempo, 895522
1, 3012, Tempo, 923076
1, 3024, Tempo, 952380
1, 3036, Tempo, 983606
1, 3048, Tempo, 1000000
1, 3060, Tempo, 1034482
1, 3072, Tempo, 800000
1, 3084, Tempo, 800000
1, 3096, Tempo, 800000
1, 3192, Tempo, 1071428
1, 3216, Tempo, 1071428
1, 3264, Tempo, 800000
1, 3288, Tempo, 800000
1, 3312, Tempo, 800000
1, 3324, Tempo, 800000
1, 3336, Tempo, 800000
1, 3360, Tempo, 800000
1, 3372, Tempo, 800000
1, 3384, Tempo, 1071428
1, 3408, Tempo, 1071428
1, 3420, Tempo, 1071428
1, 3432, Tempo, 1071428
1, 3456, Tempo, 1071428
1, 3504, Tempo, 1071428
1, 3516, Tempo, 1071428
1, 3528, Tempo, 1071428
1, 3534, Tempo, 1818181
1, 3546, Tempo, 1818181
1, 3552, Tempo, 1463414
1, 3564, Tempo, 1304347
1, 3576, Tempo, 1153846
1, 3588, Tempo, 1034482
1, 3600, Tempo, 952380
1, 3612, Tempo, 869565
1, 3624, Tempo, 800000
1, 3648, Tempo, 800000
1, 3720, Tempo, 1071428
1, 3744, Tempo, 1071428
1, 3792, Tempo, 1071428
1, 3804, Tempo, 1071428
1, 3816, Tempo, 800000
1, 3840, Tempo, 800000
1, 3888, Tempo, 800000
1, 3900, Tempo, 800000
1, 3912, Tempo, 1071428
1, 3936, Tempo, 1071428
1, 3948, Tempo, 1071428
1, 3960, Tempo, 1071428
1, 3972, Tempo, 1071428
1, 3984, Tempo, 1071428
1, 3996, Tempo, 1250000
1, 4008, Tempo, 1538461
1, 4032, Tempo, 1538461
1, 4080, Tempo, 1538461
1, 4092, Tempo, 1395348
1, 4104, Tempo, 1304347
1, 4116, Tempo, 1153846
1, 4128, Tempo, 1071428
1, 4140, Tempo, 1000000
1, 4152, Tempo, 923076
1, 4164, Tempo, 869565
1, 4176, Tempo, 800000
1, 4224, Tempo, 800000
1, 4320, Tempo, 526315
1, 4332, Tempo, 526315
1, 4416, Tempo, 526315
1, 4608, Tempo, 526315
1, 4800, Tempo, 526315
1, 4992, Tempo, 526315
1, 5088, Tempo, 526315
1, 5100, Tempo, 526315
1, 5184, Tempo, 526315
1, 5196, Tempo, 526315
1, 5256, Tempo, 526315
1, 5268, Tempo, 526315
1, 5280, Tempo, 714285
1, 5292, Tempo, 714285
1, 5304, Tempo, 714285
1, 5316, Tempo, 714285
1, 5328, Tempo, 714285
1, 5340, Tempo, 714285
1, 5352, Tempo, 714285
1, 5364, Tempo, 714285
1, 5376, Tempo, 1463414
1, 5388, Tempo, 1463414
1, 5448, Tempo, 666666
1, 5460, Tempo, 666666
1, 5472, Tempo, 666666
1, 5484, Tempo, 681818
1, 5496, Tempo, 714285
1, 5508, Tempo, 750000
1, 5520, Tempo, 789473
1, 5532, Tempo, 821917
1, 5544, Tempo, 869565
1, 5556, Tempo, 923076
1, 5568, Tempo, 983606
1, 5664, Tempo, 983606
1, 5676, Tempo, 1034482
1, 5688, Tempo, 1111111
1, 5700, Tempo, 1200000
1, 5712, Tempo, 1304347
1, 5724, Tempo, 1395348
1, 5736, Tempo, 1538461
1, 5748, Tempo, 1714285
1, 5760, Tempo, 2000000
1, 5772, Tempo, 2000000
1, 5784, Tempo, 2000000
1, 5796, Tempo, 2000000
1, 5808, Tempo, 2000000
1, 5820, Tempo, 2000000
1, 5832, Tempo, 2000000
1, 5844, Tempo, 2000000
1, 5856, Tempo, 1071428
1, 5868, Tempo, 1034482
1, 5880, Tempo, 1000000
1, 5892, Tempo, 952380
1, 5904, Tempo, 923076
1, 5916, Tempo, 869565
1, 5928, Tempo, 845070
1, 5940, Tempo, 800000
1, 5952, Tempo, 789473
1, 5964, Tempo, 769230
1, 5976, Tempo, 731707
1, 5988, Tempo, 714285
1, 6000, Tempo, 681818
1, 6012, Tempo, 666666
1, 6024, Tempo, 645161
1, 6036, Tempo, 631578
1, 6048, Tempo, 606060
1, 6144, Tempo, 606060
1, 6336, Tempo, 606060
1, 6528, Tempo, 606060
1, 6720, Tempo, 606060
1, 6912, Tempo, 606060
1, 7104, Tempo, 606060
1, 7296, Tempo, 606060
1, 7488, Tempo, 606060
1, 7680, Tempo, 606060
1, 7872, Tempo, 606060
1, 8064, Tempo, 606060
1, 8256, Tempo, 606060
1, 8448, Tempo, 606060
1, 8640, Tempo, 606060
1, 8832, Tempo, 606060
1, 9024, Tempo, 606060
1, 9216, Tempo, 606060
1, 9408, Tempo, 606060
1, 9600, Tempo, 606060
1, 9792, Tempo, 606060
1, 9984, Tempo, 606060
1, 10176, Tempo, 606060
1, 10368, Tempo, 606060
1, 10560, Tempo, 606060
1, 10752, Tempo, 606060
1, 10944, Tempo, 606060
1, 11136, Tempo, 606060
1, 11328, Tempo, 606060
1, 11520, Tempo, 606060
1, 11712, Tempo, 606060
1, 11904, Tempo, 606060
1, 12096, Tempo, 606060
1, 12288, Tempo, 606060
1, 12480, Tempo, 606060
1, 12672, Tempo, 606060
1, 12864, Tempo, 606060
1, 13056, Tempo, 606060
1, 13248, Tempo, 606060
1, 13440, Tempo, 606060
1, 13632, Tempo, 606060
1, 13824, Tempo, 606060
1, 14016, Tempo, 606060
1, 14208, Tempo, 606060
1, 14400, Tempo, 606060
1, 14592, Tempo, 606060
1, 14784, Tempo, 606060
1, 14976, Tempo, 606060
1, 15168, Tempo, 606060
1, 15360, Tempo, 606060
1, 15552, Tempo, 606060
1, 15744, Tempo, 606060
1, 15936, Tempo, 606060
1, 16128, Tempo, 606060
1, 16188, Tempo, 606060
1, 16200, Tempo, 606060
1, 16224, Tempo, 606060
1, 16236, Tempo, 606060
1, 16272, Tempo, 606060
1, 16284, Tempo, 606060
1, 16320, Tempo, 606060
1, 16332, Tempo, 606060
1, 16380, Tempo, 750000
1, 16392, Tempo, 750000
1, 16416, Tempo, 618556
1, 16428, Tempo, 618556
1, 16440, Tempo, 618556
1, 16452, Tempo, 618556
1, 16464, Tempo, 750000
1, 16476, Tempo, 750000
1, 16488, Tempo, 750000
1, 16500, Tempo, 750000
1, 16512, Tempo, 618556
1, 16524, Tempo, 618556
1, 16536, Tempo, 618556
1, 16548, Tempo, 618556
1, 16560, Tempo, 618556
1, 16608, Tempo, 606060
1, 16620, Tempo, 618556
1, 16632, Tempo, 631578
1, 16644, Tempo, 659340
1, 16656, Tempo, 666666
1, 16668, Tempo, 681818
1, 16680, Tempo, 714285
1, 16692, Tempo, 731707
1, 16704, Tempo, 769230
1, 16716, Tempo, 731707
1, 16728, Tempo, 681818
1, 16740, Tempo, 659340
1, 16752, Tempo, 618556
1, 16896, Tempo, 618556
1, 17088, Tempo, 618556
1, 17280, Tempo, 618556
1, 17472, Tempo, 618556
1, 17664, Tempo, 618556
1, 17856, Tempo, 618556
1, 18048, Tempo, 618556
1, 18240, Tempo, 618556
1, 18432, Tempo, 618556
1, 18624, Tempo, 618556
1, 18816, Tempo, 618556
1, 19008, Tempo, 618556
1, 19200, Tempo, 618556
1, 19392, Tempo, 618556
1, 19584, Tempo, 618556
1, 19776, Tempo, 618556
1, 19968, Tempo, 618556
1, 20160, Tempo, 618556
1, 20352, Tempo, 618556
1, 20544, Tempo, 618556
1, 20736, Tempo, 618556
1, 20928, Tempo, 618556
1, 21120, Tempo, 618556
1, 21312, Tempo, 618556
1, 21504, Tempo, 618556
1, 21696, Tempo, 618556
1, 21888, Tempo, 618556
1, 22080, Tempo, 618556
1, 22272, Tempo, 618556
1, 22464, Tempo, 618556
1, 22656, Tempo, 618556
1, 22848, Tempo, 618556
1, 23040, Tempo, 618556
1, 23232, Tempo, 618556
1, 23424, Tempo, 618556
1, 23520, Tempo, 618556
1, 23532, Tempo, 618556
1, 23544, Tempo, 618556
1, 23556, Tempo, 618556
1, 23568, Tempo, 618556
1, 23580, Tempo, 618556
1, 23592, Tempo, 618556
1, 23604, Tempo, 618556
1, 23616, Tempo, 618556
1, 23712, Tempo, 618556
1, 23724, Tempo, 659340
1, 23736, Tempo, 697674
1, 23748, Tempo, 750000
1, 23760, Tempo, 800000
1, 23772, Tempo, 869565
1, 23784, Tempo, 952380
1, 23796, Tempo, 1034482
1, 23808, Tempo, 1200000
1, 24000, Tempo, 1200000
1, 24024, Tempo, 1200000
1, 24036, Tempo, 1200000
1, 24060, Tempo, 1200000
1, 24072, Tempo, 1200000
1, 24096, Tempo, 1200000
1, 24108, Tempo, 1200000
1, 24132, Tempo, 1200000
1, 24144, Tempo, 1200000
1, 24168, Tempo, 1200000
1, 24180, Tempo, 1200000
1, 24192, Tempo, 1200000
1, 24216, Tempo, 1250000
1, 24228, Tempo, 1304347
1, 24252, Tempo, 1333333
1, 24264, Tempo, 1395348
1, 24288, Tempo, 1463414
1, 24300, Tempo, 1538461
1, 24324, Tempo, 1621621
1, 24336, Tempo, 1714285
1, 24360, Tempo, 1818181
1, 24372, Tempo, 1935483
1, 24384, Tempo, 2000000
1, 24396, Tempo, 2000000
1, 24420, Tempo, 2000000
1, 24432, Tempo, 2000000
1, 24444, Tempo, 2000000
1, 24456, Tempo, 2000000
1, 24480, Tempo, 1071428
1, 24504, Tempo, 1034482
1, 24516, Tempo, 1000000
1, 24528, Tempo, 983606
1, 24552, Tempo, 952380
1, 24564, Tempo, 923076
1, 24576, Tempo, 895522
1, 24588, Tempo, 869565
1, 24612, Tempo, 845070
1, 24624, Tempo, 821917
1, 24636, Tempo, 800000
1, 24648, Tempo, 789473
1, 24672, Tempo, 769230
1, 24684, Tempo, 750000
1, 24696, Tempo, 731707
1, 24708, Tempo, 714285
1, 24732, Tempo, 697674
1, 24744, Tempo, 681818
1, 24756, Tempo, 666666
1, 24768, Tempo, 659340
1, 24792, Tempo, 659340
1, 24864, Tempo, 659340
1, 24876, Tempo, 697674
1, 24888, Tempo, 769230
1, 24900, Tempo, 821917
1, 24912, Tempo, 923076
1, 24924, Tempo, 1034482
1, 24936, Tempo, 1153846
1, 24948, Tempo, 1333333
1, 24960, Tempo, 1200000
1, 24984, Tempo, 1200000
1, 25152, Tempo, 1200000
1, 25344, Tempo, 1200000
1, 25356, Tempo, 1200000
1, 25440, Tempo, 1200000
1, 25452, Tempo, 1200000
1, 25464, Tempo, 1200000
1, 25476, Tempo, 1200000
1, 25488, Tempo, 1200000
1, 25500, Tempo, 1200000
1, 25512, Tempo, 1200000
1, 25524, Tempo, 1200000
1, 25536, Tempo, 2000000
1, 25548, Tempo, 2000000
1, 25560, Tempo, 2000000
1, 25572, Tempo, 2000000
1, 25584, Tempo, 2000000
1, 25596, Tempo, 2000000
1, 25608, Tempo, 2000000
1, 25620, Tempo, 2000000
1, 25632, Tempo, 1935483
1, 25644, Tempo, 1714285
1, 25656, Tempo, 1463414
1, 25668, Tempo, 1333333
1, 25680, Tempo, 1200000
1, 25692, Tempo, 1111111
1, 25704, Tempo, 1000000
1, 25716, Tempo, 923076
1, 25728, Tempo, 869565
1, 25740, Tempo, 800000
1, 25752, Tempo, 769230
1, 25764, Tempo, 714285
1, 25776, Tempo, 666666
1, 25920, Tempo, 666666
1, 25968, Tempo, 666666
1, 25980, Tempo, 666666
1, 25992, Tempo, 666666
1, 26004, Tempo, 666666
1, 26016, Tempo, 666666
1, 26028, Tempo, 666666
1, 26040, Tempo, 666666
1, 26052, Tempo, 666666
1, 26064, Tempo, 666666
1, 26076, Tempo, 666666
1, 26112, Tempo, 666666
1, 26124, Tempo, 666666
1, 26160, Tempo, 666666
1, 26172, Tempo, 731707
1, 26184, Tempo, 800000
1, 26196, Tempo, 895522
1, 26208, Tempo, 1000000
1, 26220, Tempo, 1153846
1, 26232, Tempo, 1395348
1, 26256, Tempo, 2000000
1, 26268, Tempo, 2000000
1, 26280, Tempo, 2000000
1, 26304, Tempo, 606060
1, 26316, Tempo, 606060
1, 26364, Tempo, 869565
1, 26376, Tempo, 869565
1, 26400, Tempo, 606060
1, 26412, Tempo, 606060
1, 26460, Tempo, 869565
1, 26472, Tempo, 869565
1, 26496, Tempo, 606060
1, 26508, Tempo, 606060
1, 26556, Tempo, 869565
1, 26568, Tempo, 869565
1, 26592, Tempo, 606060
1, 26604, Tempo, 606060
1, 26652, Tempo, 869565
1, 26664, Tempo, 869565
1, 26688, Tempo, 606060
1, 26700, Tempo, 606060
1, 26748, Tempo, 869565
1, 26760, Tempo, 869565
1, 26784, Tempo, 606060
1, 26796, Tempo, 606060
1, 26832, Tempo, 606060
1, 26844, Tempo, 869565
1, 26856, Tempo, 869565
1, 26868, Tempo, 869565
1, 26880, Tempo, 681818
1, 26892, Tempo, 681818
1, 27024, Tempo, 2000000
1, 27036, Tempo, 2000000
1, 27072, Tempo, 2000000
1, 27264, Tempo, 2000000
1, 27456, Tempo, 2000000
1, 27456, End_track
2, 0, Start_track
2, 0, Title_t, "Keyboard"
2, 192, Control_c, 0, 7, 96
2, 192, Pitch_bend_c, 0, 8192
2, 192, Control_c, 0, 1, 0
2, 192, Program_c, 0, 0
2, 192, Control_c, 0, 64, 0
2, 192, Control_c, 0, 10, 64
2, 192, End_track
3, 0, Start_track
3, 0, Title_t, "Organ"
3, 0, Program_c, 1, 12
3, 180, Note_on_c, 1, 69, 79
3, 180, Note_on_c, 1, 81, 79
3, 185, Note_on_c, 1, 69, 0
3, 185, Note_on_c, 1, 81, 0
3, 186, Note_on_c, 1, 67, 79
3, 186, Note_on_c, 1, 79, 79
3, 191, Note_on_c, 1, 67, 0
3, 191, Note_on_c, 1, 79, 0
3, 192, Control_c, 1, 7, 127
3, 192, Pitch_bend_c, 1, 8192
3, 192, Control_c, 1, 1, 0
3, 192, Program_c, 1, 12
3, 192, Control_c, 1, 64, 0
3, 192, Control_c, 1, 10, 64
3, 192, Note_on_c, 1, 69, 79
3, 192, Note_on_c, 1, 81, 79
3, 198, Control_c, 1, 7, 127
3, 210, Note_on_c, 1, 69, 0
3, 210, Note_on_c, 1, 81, 0
3, 216, Note_on_c, 1, 67, 79
3, 216, Note_on_c, 1, 79, 79
3, 220, Note_on_c, 1, 67, 0
3, 220, Note_on_c, 1, 79, 0
3, 222, Note_on_c, 1, 65, 79
3, 222, Note_on_c, 1, 77, 79
3, 226, Note_on_c, 1, 65, 0
3, 226, Note_on_c, 1, 77, 0
3, 228, Note_on_c, 1, 64, 79
3, 228, Note_on_c, 1, 76, 79
3, 232, Note_on_c, 1, 64, 0
3, 232, Note_on_c, 1, 76, 0
3, 234, Note_on_c, 1, 62, 79
3, 234, Note_on_c, 1, 74, 79
3, 238, Note_on_c, 1, 62, 0
3, 238, Note_on_c, 1, 74, 0
3, 240, Note_on_c, 1, 61, 79
3, 240, Note_on_c, 1, 73, 79
3, 244, Note_on_c, 1, 61, 0
3, 244, Note_on_c, 1, 73, 0
3, 264, Note_on_c, 1, 62, 79
3, 264, Note_on_c, 1, 74, 79
3, 280, Note_on_c, 1, 62, 0
3, 280, Note_on_c, 1, 74, 0
3, 288, Note_on_c, 1, 57, 79
3, 288, Note_on_c, 1, 69, 79
3, 292, Note_on_c, 1, 57, 0
3, 292, Note_on_c, 1, 69, 0
3, 294, Note_on_c, 1, 55, 79
3, 294, Note_on_c, 1, 67, 79
3, 298, Note_on_c, 1, 55, 0
3, 298, Note_on_c, 1, 67, 0
3, 300, Note_on_c, 1, 57, 79
3, 300, Note_on_c, 1, 69, 79
3, 300, Note_on_c, 1, 57, 79
3, 300, Note_on_c, 1, 69, 79
3, 306, Note_on_c, 1, 69, 0
3, 318, Note_on_c, 1, 57, 0
3, 318, Note_on_c, 1, 52, 79
3, 318, Note_on_c, 1, 64, 79
3, 322, Note_on_c, 1, 52, 0
3, 322, Note_on_c, 1, 64, 0
3, 324, Note_on_c, 1, 53, 79
3, 324, Note_on_c, 1, 65, 79
3, 328, Note_on_c, 1, 53, 0
3, 328, Note_on_c, 1, 65, 0
3, 330, Note_on_c, 1, 49, 79
3, 330, Note_on_c, 1, 61, 79
3, 336, Note_on_c, 1, 49, 0
3, 336, Note_on_c, 1, 61, 0
3, 342, Note_on_c, 1, 50, 111
3, 342, Note_on_c, 1, 62, 111
3, 372, Note_on_c, 1, 50, 0
3, 372, Note_on_c, 1, 62, 0
3, 384, Note_on_c, 1, 45, 79
3, 384, Note_on_c, 1, 57, 79
3, 408, Note_on_c, 1, 45, 0
3, 408, Note_on_c, 1, 57, 0
3, 408, Note_on_c, 1, 43, 79
3, 408, Note_on_c, 1, 55, 79
3, 414, Note_on_c, 1, 43, 0
3, 414, Note_on_c, 1, 55, 0
3, 414, Note_on_c, 1, 41, 79
3, 414, Note_on_c, 1, 53, 79
3, 420, Note_on_c, 1, 41, 0
3, 420, Note_on_c, 1, 53, 0
3, 420, Note_on_c, 1, 40, 79
3, 420, Note_on_c, 1, 52, 79
3, 426, Note_on_c, 1, 40, 0
3, 426, Note_on_c, 1, 52, 0
3, 426, Note_on_c, 1, 38, 79
3, 426, Note_on_c, 1, 50, 79
3, 432, Note_on_c, 1, 38, 0
3, 432, Note_on_c, 1, 50, 0
3, 432, Note_on_c, 1, 37, 79
3, 432, Note_on_c, 1, 49, 79
3, 438, Note_on_c, 1, 37, 0
3, 438, Note_on_c, 1, 49, 0
3, 456, Note_on_c, 1, 38, 79
3, 456, Note_on_c, 1, 50, 79
3, 476, Note_on_c, 1, 38, 0
3, 476, Note_on_c, 1, 50, 0
3, 480, Note_on_c, 1, 38, 79
3, 492, Note_on_c, 1, 49, 79
3, 504, Note_on_c, 1, 52, 79
3, 516, Note_on_c, 1, 55, 79
3, 528, Note_on_c, 1, 58, 79
3, 540, Note_on_c, 1, 61, 79
3, 552, Note_on_c, 1, 64, 79
3, 564, Note_on_c, 1, 55, 0
3, 576, Note_on_c, 1, 55, 79
3, 624, Note_on_c, 1, 49, 0
3, 624, Note_on_c, 1, 52, 0
3, 624, Note_on_c, 1, 58, 0
3, 624, Note_on_c, 1, 61, 0
3, 624, Note_on_c, 1, 64, 0
3, 624, Note_on_c, 1, 50, 79
3, 624, Note_on_c, 1, 57, 79
3, 624, Note_on_c, 1, 62, 79
3, 636, Note_on_c, 1, 52, 111
3, 648, Note_on_c, 1, 52, 0
3, 648, Note_on_c, 1, 54, 111
3, 672, Note_on_c, 1, 38, 0
3, 720, Note_on_c, 1, 50, 0
3, 720, Note_on_c, 1, 54, 0
3, 720, Note_on_c, 1, 55, 0
3, 720, Note_on_c, 1, 57, 0
3, 720, Note_on_c, 1, 62, 0
3, 756, Note_on_c, 1, 49, 79
3, 756, Note_on_c, 1, 61, 79
3, 768, Note_on_c, 1, 49, 0
3, 768, Note_on_c, 1, 61, 0
3, 768, Note_on_c, 1, 50, 79
3, 768, Note_on_c, 1, 62, 79
3, 776, Note_on_c, 1, 50, 0
3, 776, Note_on_c, 1, 62, 0
3, 776, Note_on_c, 1, 52, 79
3, 776, Note_on_c, 1, 64, 79
3, 784, Note_on_c, 1, 52, 0
3, 784, Note_on_c, 1, 64, 0
3, 784, Note_on_c, 1, 49, 79
3, 784, Note_on_c, 1, 61, 79
3, 792, Note_on_c, 1, 49, 0
3, 792, Note_on_c, 1, 61, 0
3, 792, Note_on_c, 1, 50, 79
3, 792, Note_on_c, 1, 62, 79
3, 800, Note_on_c, 1, 50, 0
3, 800, Note_on_c, 1, 62, 0
3, 800, Note_on_c, 1, 52, 79
3, 800, Note_on_c, 1, 64, 79
3, 808, Note_on_c, 1, 52, 0
3, 808, Note_on_c, 1, 64, 0
3, 808, Note_on_c, 1, 49, 79
3, 808, Note_on_c, 1, 61, 79
3, 816, Note_on_c, 1, 49, 0
3, 816, Note_on_c, 1, 61, 0
3, 816, Note_on_c, 1, 50, 79
3, 816, Note_on_c, 1, 62, 79
3, 824, Note_on_c, 1, 50, 0
3, 824, Note_on_c, 1, 62, 0
3, 824, Note_on_c, 1, 52, 79
3, 824, Note_on_c, 1, 64, 79
3, 832, Note_on_c, 1, 52, 0
3, 832, Note_on_c, 1, 64, 0
3, 832, Note_on_c, 1, 49, 79
3, 832, Note_on_c, 1, 61, 79
3, 840, Note_on_c, 1, 49, 0
3, 840, Note_on_c, 1, 61, 0
3, 840, Note_on_c, 1, 50, 79
3, 840, Note_on_c, 1, 62, 79
3, 852, Note_on_c, 1, 50, 0
3, 852, Note_on_c, 1, 62, 0
3, 852, Note_on_c, 1, 52, 79
3, 852, Note_on_c, 1, 64, 79
3, 864, Note_on_c, 1, 52, 0
3, 864, Note_on_c, 1, 64, 0
3, 864, Note_on_c, 1, 53, 79
3, 864, Note_on_c, 1, 65, 79
3, 872, Note_on_c, 1, 53, 0
3, 872, Note_on_c, 1, 65, 0
3, 872, Note_on_c, 1, 55, 79
3, 872, Note_on_c, 1, 67, 79
3, 880, Note_on_c, 1, 55, 0
3, 880, Note_on_c, 1, 67, 0
3, 880, Note_on_c, 1, 52, 79
3, 880, Note_on_c, 1, 62, 79
3, 888, Note_on_c, 1, 52, 0
3, 888, Note_on_c, 1, 62, 0
3, 888, Note_on_c, 1, 53, 79
3, 888, Note_on_c, 1, 65, 79
3, 896, Note_on_c, 1, 53, 0
3, 896, Note_on_c, 1, 65, 0
3, 896, Note_on_c, 1, 55, 79
3, 896, Note_on_c, 1, 67, 79
3, 904, Note_on_c, 1, 55, 0
3, 904, Note_on_c, 1, 67, 0
3, 904, Note_on_c, 1, 52, 79
3, 904, Note_on_c, 1, 64, 79
3, 912, Note_on_c, 1, 52, 0
3, 912, Note_on_c, 1, 64, 0
3, 912, Note_on_c, 1, 53, 79
3, 912, Note_on_c, 1, 65, 79
3, 920, Note_on_c, 1, 53, 0
3, 920, Note_on_c, 1, 65, 0
3, 920, Note_on_c, 1, 55, 79
3, 920, Note_on_c, 1, 67, 79
3, 928, Note_on_c, 1, 55, 0
3, 928, Note_on_c, 1, 67, 0
3, 928, Note_on_c, 1, 52, 79
3, 928, Note_on_c, 1, 64, 79
3, 936, Note_on_c, 1, 52, 0
3, 936, Note_on_c, 1, 64, 0
3, 936, Note_on_c, 1, 53, 79
3, 936, Note_on_c, 1, 65, 79
3, 948, Note_on_c, 1, 53, 0
3, 948, Note_on_c, 1, 65, 0
3, 948, Note_on_c, 1, 55, 79
3, 948, Note_on_c, 1, 67, 79
3, 960, Note_on_c, 1, 55, 0
3, 960, Note_on_c, 1, 67, 0
3, 960, Note_on_c, 1, 57, 79
3, 960, Note_on_c, 1, 69, 79
3, 968, Note_on_c, 1, 57, 0
3, 968, Note_on_c, 1, 69, 0
3, 968, Note_on_c, 1, 58, 79
3, 968, Note_on_c, 1, 70, 79
3, 976, Note_on_c, 1, 58, 0
3, 976, Note_on_c, 1, 70, 0
3, 976, Note_on_c, 1, 55, 79
3, 976, Note_on_c, 1, 67, 79
3, 984, Note_on_c, 1, 55, 0
3, 984, Note_on_c, 1, 67, 0
3, 984, Note_on_c, 1, 57, 79
3, 984, Note_on_c, 1, 69, 79
3, 992, Note_on_c, 1, 57, 0
3, 992, Note_on_c, 1, 69, 0
3, 992, Note_on_c, 1, 58, 79
3, 992, Note_on_c, 1, 70, 79
3, 1000, Note_on_c, 1, 58, 0
3, 1000, Note_on_c, 1, 70, 0
3, 1000, Note_on_c, 1, 55, 79
3, 1000, Note_on_c, 1, 67, 79
3, 1008, Note_on_c, 1, 55, 0
3, 1008, Note_on_c, 1, 67, 0
3, 1008, Note_on_c, 1, 57, 79
3, 1008, Note_on_c, 1, 69, 79
3, 1016, Note_on_c, 1, 57, 0
3, 1016, Note_on_c, 1, 69, 0
3, 1016, Note_on_c, 1, 58, 79
3, 1016, Note_on_c, 1, 70, 79
3, 1024, Note_on_c, 1, 58, 0
3, 1024, Note_on_c, 1, 70, 0
3, 1024, Note_on_c, 1, 55, 79
3, 1024, Note_on_c, 1, 67, 79
3, 1032, Note_on_c, 1, 55, 0
3, 1032, Note_on_c, 1, 67, 0
3, 1032, Note_on_c, 1, 57, 79
3, 1032, Note_on_c, 1, 69, 79
3, 1056, Note_on_c, 1, 57, 0
3, 1056, Note_on_c, 1, 69, 0
3, 1140, Note_on_c, 1, 61, 79
3, 1140, Note_on_c, 1, 73, 79
3, 1148, Note_on_c, 1, 61, 0
3, 1148, Note_on_c, 1, 73, 0
3, 1152, Note_on_c, 1, 62, 79
3, 1152, Note_on_c, 1, 74, 79
3, 1157, Note_on_c, 1, 62, 0
3, 1157, Note_on_c, 1, 74, 0
3, 1160, Note_on_c, 1, 64, 79
3, 1160, Note_on_c, 1, 76, 79
3, 1165, Note_on_c, 1, 64, 0
3, 1165, Note_on_c, 1, 76, 0
3, 1168, Note_on_c, 1, 61, 79
3, 1168, Note_on_c, 1, 73, 79
3, 1173, Note_on_c, 1, 61, 0
3, 1173, Note_on_c, 1, 73, 0
3, 1176, Note_on_c, 1, 62, 79
3, 1176, Note_on_c, 1, 74, 79
3, 1181, Note_on_c, 1, 62, 0
3, 1181, Note_on_c, 1, 74, 0
3, 1184, Note_on_c, 1, 64, 79
3, 1184, Note_on_c, 1, 76, 79
3, 1189, Note_on_c, 1, 64, 0
3, 1189, Note_on_c, 1, 76, 0
3, 1192, Note_on_c, 1, 61, 79
3, 1192, Note_on_c, 1, 73, 79
3, 1197, Note_on_c, 1, 61, 0
3, 1197, Note_on_c, 1, 73, 0
3, 1200, Note_on_c, 1, 62, 79
3, 1200, Note_on_c, 1, 74, 79
3, 1205, Note_on_c, 1, 62, 0
3, 1205, Note_on_c, 1, 74, 0
3, 1208, Note_on_c, 1, 64, 79
3, 1208, Note_on_c, 1, 76, 79
3, 1213, Note_on_c, 1, 64, 0
3, 1213, Note_on_c, 1, 76, 0
3, 1216, Note_on_c, 1, 61, 79
3, 1216, Note_on_c, 1, 73, 79
3, 1221, Note_on_c, 1, 61, 0
3, 1221, Note_on_c, 1, 73, 0
3, 1224, Note_on_c, 1, 62, 79
3, 1224, Note_on_c, 1, 74, 79
3, 1231, Note_on_c, 1, 62, 0
3, 1231, Note_on_c, 1, 74, 0
3, 1236, Note_on_c, 1, 64, 79
3, 1236, Note_on_c, 1, 76, 79
3, 1243, Note_on_c, 1, 64, 0
3, 1243, Note_on_c, 1, 76, 0
3, 1248, Note_on_c, 1, 65, 79
3, 1248, Note_on_c, 1, 77, 79
3, 1253, Note_on_c, 1, 65, 0
3, 1253, Note_on_c, 1, 77, 0
3, 1256, Note_on_c, 1, 67, 79
3, 1256, Note_on_c, 1, 79, 79
3, 1261, Note_on_c, 1, 67, 0
3, 1261, Note_on_c, 1, 79, 0
3, 1264, Note_on_c, 1, 64, 79
3, 1264, Note_on_c, 1, 76, 79
3, 1269, Note_on_c, 1, 64, 0
3, 1269, Note_on_c, 1, 76, 0
3, 1272, Note_on_c, 1, 65, 79
3, 1272, Note_on_c, 1, 77, 79
3, 1277, Note_on_c, 1, 65, 0
3, 1277, Note_on_c, 1, 77, 0
3, 1280, Note_on_c, 1, 67, 79
3, 1280, Note_on_c, 1, 79, 79
3, 1285, Note_on_c, 1, 67, 0
3, 1285, Note_on_c, 1, 79, 0
3, 1288, Note_on_c, 1, 64, 79
3, 1288, Note_on_c, 1, 76, 79
3, 1293, Note_on_c, 1, 64, 0
3, 1293, Note_on_c, 1, 76, 0
3, 1296, Note_on_c, 1, 65, 79
3, 1296, Note_on_c, 1, 77, 79
3, 1301, Note_on_c, 1, 65, 0
3, 1301, Note_on_c, 1, 77, 0
3, 1304, Note_on_c, 1, 67, 79
3, 1304, Note_on_c, 1, 79, 79
3, 1309, Note_on_c, 1, 67, 0
3, 1309, Note_on_c, 1, 79, 0
3, 1312, Note_on_c, 1, 64, 79
3, 1312, Note_on_c, 1, 76, 79
3, 1317, Note_on_c, 1, 64, 0
3, 1317, Note_on_c, 1, 76, 0
3, 1320, Note_on_c, 1, 65, 79
3, 1320, Note_on_c, 1, 77, 79
3, 1327, Note_on_c, 1, 65, 0
3, 1327, Note_on_c, 1, 77, 0
3, 1332, Note_on_c, 1, 67, 79
3, 1332, Note_on_c, 1, 79, 79
3, 1339, Note_on_c, 1, 67, 0
3, 1339, Note_on_c, 1, 79, 0
3, 1344, Note_on_c, 1, 69, 79
3, 1344, Note_on_c, 1, 81, 79
3, 1349, Note_on_c, 1, 81, 0
3, 1352, Note_on_c, 1, 69, 0
3, 1352, Note_on_c, 1, 70, 79
3, 1352, Note_on_c, 1, 82, 79
3, 1357, Note_on_c, 1, 82, 0
3, 1360, Note_on_c, 1, 70, 0
3, 1360, Note_on_c, 1, 67, 79
3, 1360, Note_on_c, 1, 79, 79
3, 1365, Note_on_c, 1, 79, 0
3, 1368, Note_on_c, 1, 67, 0
3, 1368, Note_on_c, 1, 69, 79
3, 1368, Note_on_c, 1, 81, 79
3, 1373, Note_on_c, 1, 81, 0
3, 1376, Note_on_c, 1, 69, 0
3, 1376, Note_on_c, 1, 70, 79
3, 1376, Note_on_c, 1, 82, 79
3, 1381, Note_on_c, 1, 82, 0
3, 1384, Note_on_c, 1, 70, 0
3, 1384, Note_on_c, 1, 67, 79
3, 1384, Note_on_c, 1, 79, 79
3, 1389, Note_on_c, 1, 79, 0
3, 1392, Note_on_c, 1, 67, 0
3, 1392, Note_on_c, 1, 69, 79
3, 1392, Note_on_c, 1, 81, 79
3, 1397, Note_on_c, 1, 81, 0
3, 1400, Note_on_c, 1, 69, 0
3, 1400, Note_on_c, 1, 70, 79
3, 1400, Note_on_c, 1, 82, 79
3, 1405, Note_on_c, 1, 82, 0
3, 1408, Note_on_c, 1, 70, 0
3, 1408, Note_on_c, 1, 67, 79
3, 1408, Note_on_c, 1, 79, 79
3, 1413, Note_on_c, 1, 79, 0
3, 1416, Note_on_c, 1, 67, 0
3, 1416, Note_on_c, 1, 69, 79
3, 1416, Note_on_c, 1, 81, 79
3, 1432, Note_on_c, 1, 69, 0
3, 1432, Note_on_c, 1, 81, 0
3, 1524, Note_on_c, 1, 69, 79
3, 1524, Note_on_c, 1, 81, 79
3, 1536, Note_on_c, 1, 69, 0
3, 1536, Note_on_c, 1, 81, 0
3, 1536, Note_on_c, 1, 67, 79
3, 1536, Note_on_c, 1, 79, 79
3, 1541, Note_on_c, 1, 67, 0
3, 1541, Note_on_c, 1, 79, 0
3, 1544, Note_on_c, 1, 70, 79
3, 1544, Note_on_c, 1, 82, 79
3, 1549, Note_on_c, 1, 70, 0
3, 1549, Note_on_c, 1, 82, 0
3, 1552, Note_on_c, 1, 64, 79
3, 1552, Note_on_c, 1, 76, 79
3, 1557, Note_on_c, 1, 64, 0
3, 1557, Note_on_c, 1, 76, 0
3, 1560, Note_on_c, 1, 67, 79
3, 1560, Note_on_c, 1, 79, 79
3, 1565, Note_on_c, 1, 67, 0
3, 1565, Note_on_c, 1, 79, 0
3, 1568, Note_on_c, 1, 70, 79
3, 1568, Note_on_c, 1, 82, 79
3, 1573, Note_on_c, 1, 70, 0
3, 1573, Note_on_c, 1, 82, 0
3, 1576, Note_on_c, 1, 64, 79
3, 1576, Note_on_c, 1, 76, 79
3, 1581, Note_on_c, 1, 64, 0
3, 1581, Note_on_c, 1, 76, 0
3, 1584, Note_on_c, 1, 65, 79
3, 1584, Note_on_c, 1, 77, 79
3, 1589, Note_on_c, 1, 65, 0
3, 1589, Note_on_c, 1, 77, 0
3, 1592, Note_on_c, 1, 69, 79
3, 1592, Note_on_c, 1, 81, 79
3, 1597, Note_on_c, 1, 69, 0
3, 1597, Note_on_c, 1, 81, 0
3, 1600, Note_on_c, 1, 62, 79
3, 1600, Note_on_c, 1, 74, 79
3, 1605, Note_on_c, 1, 62, 0
3, 1605, Note_on_c, 1, 74, 0
3, 1608, Note_on_c, 1, 65, 79
3, 1608, Note_on_c, 1, 77, 79
3, 1613, Note_on_c, 1, 65, 0
3, 1613, Note_on_c, 1, 77, 0
3, 1616, Note_on_c, 1, 69, 79
3, 1616, Note_on_c, 1, 81, 79
3, 1621, Note_on_c, 1, 69, 0
3, 1621, Note_on_c, 1, 81, 0
3, 1624, Note_on_c, 1, 62, 79
3, 1624, Note_on_c, 1, 74, 79
3, 1629, Note_on_c, 1, 62, 0
3, 1629, Note_on_c, 1, 74, 0
3, 1632, Note_on_c, 1, 64, 79
3, 1632, Note_on_c, 1, 76, 79
3, 1637, Note_on_c, 1, 64, 0
3, 1637, Note_on_c, 1, 76, 0
3, 1640, Note_on_c, 1, 67, 79
3, 1640, Note_on_c, 1, 79, 79
3, 1645, Note_on_c, 1, 67, 0
3, 1645, Note_on_c, 1, 79, 0
3, 1648, Note_on_c, 1, 60, 79
3, 1648, Note_on_c, 1, 72, 79
3, 1653, Note_on_c, 1, 60, 0
3, 1653, Note_on_c, 1, 72, 0
3, 1656, Note_on_c, 1, 64, 79
3, 1656, Note_on_c, 1, 76, 79
3, 1661, Note_on_c, 1, 64, 0
3, 1661, Note_on_c, 1, 76, 0
3, 1664, Note_on_c, 1, 67, 79
3, 1664, Note_on_c, 1, 79, 79
3, 1669, Note_on_c, 1, 67, 0
3, 1669, Note_on_c, 1, 79, 0
3, 1672, Note_on_c, 1, 60, 79
3, 1672, Note_on_c, 1, 72, 79
3, 1677, Note_on_c, 1, 60, 0
3, 1677, Note_on_c, 1, 72, 0
3, 1680, Note_on_c, 1, 62, 79
3, 1680, Note_on_c, 1, 74, 79
3, 1685, Note_on_c, 1, 62, 0
3, 1685, Note_on_c, 1, 74, 0
3, 1688, Note_on_c, 1, 65, 79
3, 1688, Note_on_c, 1, 77, 79
3, 1693, Note_on_c, 1, 65, 0
3, 1693, Note_on_c, 1, 77, 0
3, 1696, Note_on_c, 1, 58, 79
3, 1696, Note_on_c, 1, 70, 79
3, 1701, Note_on_c, 1, 58, 0
3, 1701, Note_on_c, 1, 70, 0
3, 1704, Note_on_c, 1, 62, 79
3, 1704, Note_on_c, 1, 74, 79
3, 1709, Note_on_c, 1, 62, 0
3, 1709, Note_on_c, 1, 74, 0
3, 1712, Note_on_c, 1, 65, 79
3, 1712, Note_on_c, 1, 77, 79
3, 1717, Note_on_c, 1, 65, 0
3, 1717, Note_on_c, 1, 77, 0
3, 1720, Note_on_c, 1, 58, 79
3, 1720, Note_on_c, 1, 70, 79
3, 1725, Note_on_c, 1, 58, 0
3, 1725, Note_on_c, 1, 70, 0
3, 1728, Note_on_c, 1, 60, 79
3, 1728, Note_on_c, 1, 72, 79
3, 1733, Note_on_c, 1, 60, 0
3, 1733, Note_on_c, 1, 72, 0
3, 1736, Note_on_c, 1, 64, 79
3, 1736, Note_on_c, 1, 76, 79
3, 1741, Note_on_c, 1, 64, 0
3, 1741, Note_on_c, 1, 76, 0
3, 1744, Note_on_c, 1, 57, 79
3, 1744, Note_on_c, 1, 69, 79
3, 1749, Note_on_c, 1, 57, 0
3, 1749, Note_on_c, 1, 69, 0
3, 1752, Note_on_c, 1, 60, 79
3, 1752, Note_on_c, 1, 72, 79
3, 1757, Note_on_c, 1, 60, 0
3, 1757, Note_on_c, 1, 72, 0
3, 1760, Note_on_c, 1, 64, 79
3, 1760, Note_on_c, 1, 76, 79
3, 1765, Note_on_c, 1, 64, 0
3, 1765, Note_on_c, 1, 76, 0
3, 1768, Note_on_c, 1, 57, 79
3, 1768, Note_on_c, 1, 69, 79
3, 1773, Note_on_c, 1, 57, 0
3, 1773, Note_on_c, 1, 69, 0
3, 1776, Note_on_c, 1, 58, 79
3, 1776, Note_on_c, 1, 70, 79
3, 1781, Note_on_c, 1, 58, 0
3, 1781, Note_on_c, 1, 70, 0
3, 1784, Note_on_c, 1, 62, 79
3, 1784, Note_on_c, 1, 74, 79
3, 1789, Note_on_c, 1, 62, 0
3, 1789, Note_on_c, 1, 74, 0
3, 1792, Note_on_c, 1, 55, 79
3, 1792, Note_on_c, 1, 67, 79
3, 1797, Note_on_c, 1, 55, 0
3, 1797, Note_on_c, 1, 67, 0
3, 1800, Note_on_c, 1, 58, 79
3, 1800, Note_on_c, 1, 70, 79
3, 1805, Note_on_c, 1, 58, 0
3, 1805, Note_on_c, 1, 70, 0
3, 1808, Note_on_c, 1, 62, 79
3, 1808, Note_on_c, 1, 74, 79
3, 1813, Note_on_c, 1, 62, 0
3, 1813, Note_on_c, 1, 74, 0
3, 1816, Note_on_c, 1, 55, 79
3, 1816, Note_on_c, 1, 67, 79
3, 1821, Note_on_c, 1, 55, 0
3, 1821, Note_on_c, 1, 67, 0
3, 1824, Note_on_c, 1, 57, 79
3, 1824, Note_on_c, 1, 69, 79
3, 1829, Note_on_c, 1, 57, 0
3, 1829, Note_on_c, 1, 69, 0
3, 1832, Note_on_c, 1, 60, 79
3, 1832, Note_on_c, 1, 72, 79
3, 1837, Note_on_c, 1, 60, 0
3, 1837, Note_on_c, 1, 72, 0
3, 1840, Note_on_c, 1, 53, 79
3, 1840, Note_on_c, 1, 65, 79
3, 1845, Note_on_c, 1, 53, 0
3, 1845, Note_on_c, 1, 65, 0
3, 1848, Note_on_c, 1, 57, 79
3, 1848, Note_on_c, 1, 69, 79
3, 1853, Note_on_c, 1, 57, 0
3, 1853, Note_on_c, 1, 69, 0
3, 1856, Note_on_c, 1, 60, 79
3, 1856, Note_on_c, 1, 72, 79
3, 1861, Note_on_c, 1, 60, 0
3, 1861, Note_on_c, 1, 72, 0
3, 1864, Note_on_c, 1, 53, 79
3, 1864, Note_on_c, 1, 65, 79
3, 1869, Note_on_c, 1, 53, 0
3, 1869, Note_on_c, 1, 65, 0
3, 1872, Note_on_c, 1, 55, 79
3, 1872, Note_on_c, 1, 67, 79
3, 1877, Note_on_c, 1, 55, 0
3, 1877, Note_on_c, 1, 67, 0
3, 1880, Note_on_c, 1, 58, 79
3, 1880, Note_on_c, 1, 70, 79
3, 1885, Note_on_c, 1, 58, 0
3, 1885, Note_on_c, 1, 70, 0
3, 1888, Note_on_c, 1, 52, 79
3, 1888, Note_on_c, 1, 64, 79
3, 1893, Note_on_c, 1, 52, 0
3, 1893, Note_on_c, 1, 64, 0
3, 1896, Note_on_c, 1, 55, 79
3, 1896, Note_on_c, 1, 67, 79
3, 1901, Note_on_c, 1, 55, 0
3, 1901, Note_on_c, 1, 67, 0
3, 1904, Note_on_c, 1, 58, 79
3, 1904, Note_on_c, 1, 70, 79
3, 1909, Note_on_c, 1, 58, 0
3, 1909, Note_on_c, 1, 70, 0
3, 1912, Note_on_c, 1, 52, 79
3, 1912, Note_on_c, 1, 64, 79
3, 1917, Note_on_c, 1, 52, 0
3, 1917, Note_on_c, 1, 64, 0
3, 1920, Note_on_c, 1, 53, 79
3, 1920, Note_on_c, 1, 65, 79
3, 1925, Note_on_c, 1, 53, 0
3, 1925, Note_on_c, 1, 65, 0
3, 1928, Note_on_c, 1, 57, 79
3, 1928, Note_on_c, 1, 69, 79
3, 1933, Note_on_c, 1, 57, 0
3, 1933, Note_on_c, 1, 69, 0
3, 1936, Note_on_c, 1, 50, 79
3, 1936, Note_on_c, 1, 62, 79
3, 1941, Note_on_c, 1, 50, 0
3, 1941, Note_on_c, 1, 62, 0
3, 1944, Note_on_c, 1, 53, 79
3, 1944, Note_on_c, 1, 65, 79
3, 1949, Note_on_c, 1, 53, 0
3, 1949, Note_on_c, 1, 65, 0
3, 1952, Note_on_c, 1, 57, 79
3, 1952, Note_on_c, 1, 69, 79
3, 1957, Note_on_c, 1, 57, 0
3, 1957, Note_on_c, 1, 69, 0
3, 1960, Note_on_c, 1, 50, 79
3, 1960, Note_on_c, 1, 62, 79
3, 1965, Note_on_c, 1, 50, 0
3, 1965, Note_on_c, 1, 62, 0
3, 1968, Note_on_c, 1, 52, 79
3, 1968, Note_on_c, 1, 64, 79
3, 1973, Note_on_c, 1, 52, 0
3, 1973, Note_on_c, 1, 64, 0
3, 1976, Note_on_c, 1, 55, 79
3, 1976, Note_on_c, 1, 67, 79
3, 1981, Note_on_c, 1, 55, 0
3, 1981, Note_on_c, 1, 67, 0
3, 1984, Note_on_c, 1, 49, 79
3, 1984, Note_on_c, 1, 61, 79
3, 1989, Note_on_c, 1, 49, 0
3, 1989, Note_on_c, 1, 61, 0
3, 1992, Note_on_c, 1, 52, 79
3, 1992, Note_on_c, 1, 64, 79
3, 1997, Note_on_c, 1, 52, 0
3, 1997, Note_on_c, 1, 64, 0
3, 2000, Note_on_c, 1, 55, 79
3, 2000, Note_on_c, 1, 67, 79
3, 2005, Note_on_c, 1, 55, 0
3, 2005, Note_on_c, 1, 67, 0
3, 2008, Note_on_c, 1, 49, 79
3, 2008, Note_on_c, 1, 61, 79
3, 2013, Note_on_c, 1, 49, 0
3, 2013, Note_on_c, 1, 61, 0
3, 2016, Note_on_c, 1, 38, 79
3, 2064, Note_on_c, 1, 67, 79
3, 2064, Note_on_c, 1, 64, 79
3, 2064, Note_on_c, 1, 61, 79
3, 2064, Note_on_c, 1, 49, 79
3, 2064, Note_on_c, 1, 58, 79
3, 2064, Note_on_c, 1, 55, 79
3, 2064, Note_on_c, 1, 52, 79
3, 2064, Note_on_c, 1, 70, 79
3, 2144, Note_on_c, 1, 38, 0
3, 2144, Note_on_c, 1, 49, 0
3, 2144, Note_on_c, 1, 52, 0
3, 2144, Note_on_c, 1, 55, 0
3, 2144, Note_on_c, 1, 58, 0
3, 2144, Note_on_c, 1, 61, 0
3, 2144, Note_on_c, 1, 64, 0
3, 2144, Note_on_c, 1, 67, 0
3, 2164, Note_on_c, 1, 70, 0
3, 2166, Note_on_c, 1, 69, 79
3, 2170, Note_on_c, 1, 69, 0
3, 2172, Note_on_c, 1, 67, 79
3, 2176, Note_on_c, 1, 67, 0
3, 2178, Note_on_c, 1, 65, 79
3, 2182, Note_on_c, 1, 65, 0
3, 2184, Note_on_c, 1, 64, 79
3, 2188, Note_on_c, 1, 64, 0
3, 2190, Note_on_c, 1, 62, 79
3, 2194, Note_on_c, 1, 62, 0
3, 2196, Note_on_c, 1, 61, 79
3, 2200, Note_on_c, 1, 61, 0
3, 2202, Note_on_c, 1, 59, 79
3, 2206, Note_on_c, 1, 59, 0
3, 2208, Note_on_c, 1, 61, 79
3, 2216, Note_on_c, 1, 61, 0
3, 2220, Note_on_c, 1, 57, 79
3, 2228, Note_on_c, 1, 57, 0
3, 2232, Note_on_c, 1, 61, 79
3, 2240, Note_on_c, 1, 61, 0
3, 2244, Note_on_c, 1, 64, 79
3, 2248, Note_on_c, 1, 64, 0
3, 2250, Note_on_c, 1, 67, 79
3, 2254, Note_on_c, 1, 67, 0
3, 2256, Note_on_c, 1, 65, 79
3, 2259, Note_on_c, 1, 65, 0
3, 2260, Note_on_c, 1, 64, 79
3, 2263, Note_on_c, 1, 64, 0
3, 2264, Note_on_c, 1, 65, 79
3, 2267, Note_on_c, 1, 65, 0
3, 2268, Note_on_c, 1, 64, 79
3, 2271, Note_on_c, 1, 64, 0
3, 2272, Note_on_c, 1, 65, 79
3, 2275, Note_on_c, 1, 65, 0
3, 2276, Note_on_c, 1, 64, 79
3, 2279, Note_on_c, 1, 64, 0
3, 2280, Note_on_c, 1, 65, 79
3, 2283, Note_on_c, 1, 65, 0
3, 2292, Note_on_c, 1, 64, 79
3, 2300, Note_on_c, 1, 64, 0
3, 2304, Note_on_c, 1, 62, 95
3, 2304, Note_on_c, 1, 57, 95
3, 2304, Note_on_c, 1, 53, 95
3, 2304, Note_on_c, 1, 50, 95
3, 2304, Note_on_c, 1, 38, 95
3, 2304, Note_on_c, 1, 65, 95
3, 2364, Note_on_c, 1, 38, 0
3, 2364, Note_on_c, 1, 50, 0
3, 2364, Note_on_c, 1, 53, 0
3, 2364, Note_on_c, 1, 57, 0
3, 2364, Note_on_c, 1, 62, 0
3, 2364, Note_on_c, 1, 65, 0
3, 2388, Note_on_c, 1, 69, 79
3, 2396, Note_on_c, 1, 69, 0
3, 2400, Note_on_c, 1, 74, 79
3, 2408, Note_on_c, 1, 74, 0
3, 2412, Note_on_c, 1, 69, 79
3, 2412, Note_on_c, 1, 76, 79
3, 2420, Note_on_c, 1, 69, 0
3, 2420, Note_on_c, 1, 76, 0
3, 2424, Note_on_c, 1, 69, 79
3, 2424, Note_on_c, 1, 77, 79
3, 2432, Note_on_c, 1, 69, 0
3, 2432, Note_on_c, 1, 77, 0
3, 2436, Note_on_c, 1, 69, 79
3, 2436, Note_on_c, 1, 74, 79
3, 2444, Note_on_c, 1, 69, 0
3, 2444, Note_on_c, 1, 74, 0
3, 2448, Note_on_c, 1, 69, 79
3, 2448, Note_on_c, 1, 76, 79
3, 2456, Note_on_c, 1, 69, 0
3, 2456, Note_on_c, 1, 76, 0
3, 2460, Note_on_c, 1, 69, 79
3, 2460, Note_on_c, 1, 77, 79
3, 2468, Note_on_c, 1, 69, 0
3, 2468, Note_on_c, 1, 77, 0
3, 2472, Note_on_c, 1, 69, 79
3, 2472, Note_on_c, 1, 79, 79
3, 2480, Note_on_c, 1, 69, 0
3, 2480, Note_on_c, 1, 79, 0
3, 2484, Note_on_c, 1, 69, 79
3, 2484, Note_on_c, 1, 76, 79
3, 2492, Note_on_c, 1, 69, 0
3, 2492, Note_on_c, 1, 76, 0
3, 2496, Note_on_c, 1, 77, 79
3, 2504, Note_on_c, 1, 77, 0
3, 2508, Note_on_c, 1, 69, 79
3, 2508, Note_on_c, 1, 79, 79
3, 2516, Note_on_c, 1, 69, 0
3, 2516, Note_on_c, 1, 79, 0
3, 2520, Note_on_c, 1, 69, 79
3, 2520, Note_on_c, 1, 81, 79
3, 2528, Note_on_c, 1, 69, 0
3, 2528, Note_on_c, 1, 81, 0
3, 2532, Note_on_c, 1, 69, 79
3, 2532, Note_on_c, 1, 77, 79
3, 2540, Note_on_c, 1, 69, 0
3, 2540, Note_on_c, 1, 77, 0
3, 2544, Note_on_c, 1, 69, 79
3, 2544, Note_on_c, 1, 79, 79
3, 2552, Note_on_c, 1, 69, 0
3, 2552, Note_on_c, 1, 79, 0
3, 2556, Note_on_c, 1, 69, 79
3, 2556, Note_on_c, 1, 81, 79
3, 2564, Note_on_c, 1, 69, 0
3, 2564, Note_on_c, 1, 81, 0
3, 2568, Note_on_c, 1, 69, 79
3, 2568, Note_on_c, 1, 82, 79
3, 2576, Note_on_c, 1, 69, 0
3, 2576, Note_on_c, 1, 82, 0
3, 2580, Note_on_c, 1, 69, 79
3, 2580, Note_on_c, 1, 79, 79
3, 2588, Note_on_c, 1, 69, 0
3, 2588, Note_on_c, 1, 79, 0
3, 2592, Note_on_c, 1, 69, 79
3, 2592, Note_on_c, 1, 81, 79
3, 2600, Note_on_c, 1, 69, 0
3, 2600, Note_on_c, 1, 81, 0
3, 2604, Note_on_c, 1, 69, 79
3, 2604, Note_on_c, 1, 77, 79
3, 2612, Note_on_c, 1, 69, 0
3, 2612, Note_on_c, 1, 77, 0
3, 2616, Note_on_c, 1, 69, 79
3, 2616, Note_on_c, 1, 79, 79
3, 2624, Note_on_c, 1, 69, 0
3, 2624, Note_on_c, 1, 79, 0
3, 2628, Note_on_c, 1, 69, 79
3, 2628, Note_on_c, 1, 76, 79
3, 2636, Note_on_c, 1, 69, 0
3, 2636, Note_on_c, 1, 76, 0
3, 2640, Note_on_c, 1, 69, 79
3, 2640, Note_on_c, 1, 77, 79
3, 2648, Note_on_c, 1, 69, 0
3, 2648, Note_on_c, 1, 77, 0
3, 2652, Note_on_c, 1, 69, 79
3, 2652, Note_on_c, 1, 74, 79
3, 2660, Note_on_c, 1, 69, 0
3, 2660, Note_on_c, 1, 74, 0
3, 2664, Note_on_c, 1, 69, 79
3, 2664, Note_on_c, 1, 76, 79
3, 2672, Note_on_c, 1, 69, 0
3, 2672, Note_on_c, 1, 76, 0
3, 2676, Note_on_c, 1, 69, 79
3, 2676, Note_on_c, 1, 73, 79
3, 2682, Note_on_c, 1, 69, 79
3, 2684, Note_on_c, 1, 73, 0
3, 2686, Note_on_c, 1, 69, 0
3, 2688, Note_on_c, 1, 74, 79
3, 2696, Note_on_c, 1, 74, 0
3, 2700, Note_on_c, 1, 69, 79
3, 2700, Note_on_c, 1, 69, 79
3, 2708, Note_on_c, 1, 69, 0
3, 2712, Note_on_c, 1, 69, 79
3, 2712, Note_on_c, 1, 70, 79
3, 2720, Note_on_c, 1, 69, 0
3, 2720, Note_on_c, 1, 70, 0
3, 2724, Note_on_c, 1, 67, 79
3, 2724, Note_on_c, 1, 69, 79
3, 2732, Note_on_c, 1, 67, 0
3, 2732, Note_on_c, 1, 69, 0
3, 2736, Note_on_c, 1, 69, 79
3, 2736, Note_on_c, 1, 69, 79
3, 2744, Note_on_c, 1, 69, 0
3, 2748, Note_on_c, 1, 65, 79
3, 2748, Note_on_c, 1, 69, 79
3, 2756, Note_on_c, 1, 65, 0
3, 2756, Note_on_c, 1, 69, 0
3, 2760, Note_on_c, 1, 67, 79
3, 2760, Note_on_c, 1, 69, 79
3, 2768, Note_on_c, 1, 67, 0
3, 2768, Note_on_c, 1, 69, 0
3, 2772, Note_on_c, 1, 64, 79
3, 2772, Note_on_c, 1, 69, 79
3, 2780, Note_on_c, 1, 64, 0
3, 2780, Note_on_c, 1, 69, 0
3, 2784, Note_on_c, 1, 65, 79
3, 2784, Note_on_c, 1, 69, 79
3, 2792, Note_on_c, 1, 65, 0
3, 2792, Note_on_c, 1, 69, 0
3, 2796, Note_on_c, 1, 62, 79
3, 2796, Note_on_c, 1, 69, 79
3, 2804, Note_on_c, 1, 62, 0
3, 2804, Note_on_c, 1, 69, 0
3, 2808, Note_on_c, 1, 67, 79
3, 2808, Note_on_c, 1, 69, 79
3, 2816, Note_on_c, 1, 67, 0
3, 2816, Note_on_c, 1, 69, 0
3, 2820, Note_on_c, 1, 64, 79
3, 2820, Note_on_c, 1, 69, 79
3, 2828, Note_on_c, 1, 64, 0
3, 2828, Note_on_c, 1, 69, 0
3, 2832, Note_on_c, 1, 65, 79
3, 2832, Note_on_c, 1, 69, 79
3, 2840, Note_on_c, 1, 65, 0
3, 2840, Note_on_c, 1, 69, 0
3, 2844, Note_on_c, 1, 62, 79
3, 2844, Note_on_c, 1, 69, 79
3, 2852, Note_on_c, 1, 62, 0
3, 2852, Note_on_c, 1, 69, 0
3, 2856, Note_on_c, 1, 64, 79
3, 2856, Note_on_c, 1, 69, 79
3, 2864, Note_on_c, 1, 64, 0
3, 2864, Note_on_c, 1, 69, 0
3, 2868, Note_on_c, 1, 61, 79
3, 2868, Note_on_c, 1, 69, 79
3, 2874, Note_on_c, 1, 69, 79
3, 2876, Note_on_c, 1, 61, 0
3, 2878, Note_on_c, 1, 69, 0
3, 2880, Note_on_c, 1, 62, 79
3, 2888, Note_on_c, 1, 62, 0
3, 2892, Note_on_c, 1, 57, 79
3, 2892, Note_on_c, 1, 69, 79
3, 2900, Note_on_c, 1, 57, 0
3, 2900, Note_on_c, 1, 69, 0
3, 2904, Note_on_c, 1, 58, 79
3, 2904, Note_on_c, 1, 69, 79
3, 2912, Note_on_c, 1, 58, 0
3, 2912, Note_on_c, 1, 69, 0
3, 2916, Note_on_c, 1, 55, 79
3, 2916, Note_on_c, 1, 69, 79
3, 2924, Note_on_c, 1, 55, 0
3, 2924, Note_on_c, 1, 69, 0
3, 2928, Note_on_c, 1, 57, 79
3, 2928, Note_on_c, 1, 69, 79
3, 2936, Note_on_c, 1, 57, 0
3, 2936, Note_on_c, 1, 69, 0
3, 2940, Note_on_c, 1, 53, 79
3, 2940, Note_on_c, 1, 69, 79
3, 2948, Note_on_c, 1, 53, 0
3, 2948, Note_on_c, 1, 69, 0
3, 2952, Note_on_c, 1, 55, 79
3, 2952, Note_on_c, 1, 69, 79
3, 2960, Note_on_c, 1, 55, 0
3, 2960, Note_on_c, 1, 69, 0
3, 2964, Note_on_c, 1, 52, 79
3, 2964, Note_on_c, 1, 69, 79
3, 2972, Note_on_c, 1, 52, 0
3, 2972, Note_on_c, 1, 69, 0
3, 2976, Note_on_c, 1, 53, 79
3, 2976, Note_on_c, 1, 69, 79
3, 2984, Note_on_c, 1, 53, 0
3, 2984, Note_on_c, 1, 69, 0
3, 2988, Note_on_c, 1, 50, 79
3, 2988, Note_on_c, 1, 69, 79
3, 2996, Note_on_c, 1, 50, 0
3, 2996, Note_on_c, 1, 69, 0
3, 3000, Note_on_c, 1, 55, 79
3, 3000, Note_on_c, 1, 69, 79
3, 3008, Note_on_c, 1, 55, 0
3, 3008, Note_on_c, 1, 69, 0
3, 3012, Note_on_c, 1, 52, 79
3, 3012, Note_on_c, 1, 69, 79
3, 3020, Note_on_c, 1, 52, 0
3, 3020, Note_on_c, 1, 69, 0
3, 3024, Note_on_c, 1, 53, 79
3, 3024, Note_on_c, 1, 69, 79
3, 3032, Note_on_c, 1, 53, 0
3, 3032, Note_on_c, 1, 69, 0
3, 3036, Note_on_c, 1, 50, 79
3, 3036, Note_on_c, 1, 69, 79
3, 3044, Note_on_c, 1, 50, 0
3, 3044, Note_on_c, 1, 69, 0
3, 3048, Note_on_c, 1, 52, 79
3, 3048, Note_on_c, 1, 69, 79
3, 3056, Note_on_c, 1, 52, 0
3, 3056, Note_on_c, 1, 69, 0
3, 3060, Note_on_c, 1, 49, 79
3, 3060, Note_on_c, 1, 69, 79
3, 3066, Note_on_c, 1, 69, 79
3, 3068, Note_on_c, 1, 49, 0
3, 3070, Note_on_c, 1, 69, 0
3, 3072, Note_on_c, 1, 50, 79
3, 3088, Note_on_c, 1, 50, 0
3, 3096, Note_on_c, 1, 62, 79
3, 3100, Note_on_c, 1, 62, 0
3, 3102, Note_on_c, 1, 65, 79
3, 3106, Note_on_c, 1, 65, 0
3, 3108, Note_on_c, 1, 70, 79
3, 3112, Note_on_c, 1, 70, 0
3, 3114, Note_on_c, 1, 65, 79
3, 3118, Note_on_c, 1, 65, 0
3, 3120, Note_on_c, 1, 60, 79
3, 3124, Note_on_c, 1, 60, 0
3, 3126, Note_on_c, 1, 64, 79
3, 3130, Note_on_c, 1, 64, 0
3, 3132, Note_on_c, 1, 69, 79
3, 3136, Note_on_c, 1, 69, 0
3, 3138, Note_on_c, 1, 64, 79
3, 3142, Note_on_c, 1, 64, 0
3, 3144, Note_on_c, 1, 58, 79
3, 3148, Note_on_c, 1, 58, 0
3, 3150, Note_on_c, 1, 62, 79
3, 3154, Note_on_c, 1, 62, 0
3, 3156, Note_on_c, 1, 67, 79
3, 3160, Note_on_c, 1, 67, 0
3, 3162, Note_on_c, 1, 62, 79
3, 3166, Note_on_c, 1, 62, 0
3, 3168, Note_on_c, 1, 57, 79
3, 3172, Note_on_c, 1, 57, 0
3, 3174, Note_on_c, 1, 61, 79
3, 3178, Note_on_c, 1, 61, 0
3, 3180, Note_on_c, 1, 64, 79
3, 3184, Note_on_c, 1, 64, 0
3, 3186, Note_on_c, 1, 69, 79
3, 3190, Note_on_c, 1, 69, 0
3, 3192, Note_on_c, 1, 50, 79
3, 3192, Note_on_c, 1, 62, 79
3, 3200, Note_on_c, 1, 62, 0
3, 3204, Note_on_c, 1, 65, 79
3, 3204, Note_on_c, 1, 70, 79
3, 3208, Note_on_c, 1, 50, 0
3, 3212, Note_on_c, 1, 65, 0
3, 3212, Note_on_c, 1, 70, 0
3, 3216, Note_on_c, 1, 48, 79
3, 3216, Note_on_c, 1, 57, 79
3, 3224, Note_on_c, 1, 57, 0
3, 3228, Note_on_c, 1, 64, 79
3, 3228, Note_on_c, 1, 69, 79
3, 3232, Note_on_c, 1, 48, 0
3, 3236, Note_on_c, 1, 64, 0
3, 3236, Note_on_c, 1, 69, 0
3, 3240, Note_on_c, 1, 46, 79
3, 3240, Note_on_c, 1, 58, 79
3, 3248, Note_on_c, 1, 58, 0
3, 3252, Note_on_c, 1, 62, 79
3, 3252, Note_on_c, 1, 67, 79
3, 3256, Note_on_c, 1, 46, 0
3, 3260, Note_on_c, 1, 62, 0
3, 3260, Note_on_c, 1, 67, 0
3, 3264, Note_on_c, 1, 64, 79
3, 3264, Note_on_c, 1, 61, 79
3, 3264, Note_on_c, 1, 52, 79
3, 3264, Note_on_c, 1, 45, 79
3, 3264, Note_on_c, 1, 69, 79
3, 3280, Note_on_c, 1, 45, 0
3, 3280, Note_on_c, 1, 52, 0
3, 3280, Note_on_c, 1, 61, 0
3, 3280, Note_on_c, 1, 64, 0
3, 3280, Note_on_c, 1, 69, 0
3, 3288, Note_on_c, 1, 62, 79
3, 3292, Note_on_c, 1, 62, 0
3, 3294, Note_on_c, 1, 65, 79
3, 3298, Note_on_c, 1, 65, 0
3, 3300, Note_on_c, 1, 70, 79
3, 3304, Note_on_c, 1, 70, 0
3, 3306, Note_on_c, 1, 65, 79
3, 3310, Note_on_c, 1, 65, 0
3, 3312, Note_on_c, 1, 60, 79
3, 3316, Note_on_c, 1, 60, 0
3, 3318, Note_on_c, 1, 64, 79
3, 3322, Note_on_c, 1, 64, 0
3, 3324, Note_on_c, 1, 69, 79
3, 3328, Note_on_c, 1, 69, 0
3, 3330, Note_on_c, 1, 64, 79
3, 3334, Note_on_c, 1, 64, 0
3, 3336, Note_on_c, 1, 58, 79
3, 3340, Note_on_c, 1, 58, 0
3, 3342, Note_on_c, 1, 62, 79
3, 3346, Note_on_c, 1, 62, 0
3, 3348, Note_on_c, 1, 67, 79
3, 3352, Note_on_c, 1, 67, 0
3, 3354, Note_on_c, 1, 62, 79
3, 3358, Note_on_c, 1, 62, 0
3, 3360, Note_on_c, 1, 57, 79
3, 3364, Note_on_c, 1, 57, 0
3, 3366, Note_on_c, 1, 61, 79
3, 3370, Note_on_c, 1, 61, 0
3, 3372, Note_on_c, 1, 64, 79
3, 3376, Note_on_c, 1, 64, 0
3, 3378, Note_on_c, 1, 69, 79
3, 3382, Note_on_c, 1, 69, 0
3, 3384, Note_on_c, 1, 50, 79
3, 3384, Note_on_c, 1, 62, 79
3, 3392, Note_on_c, 1, 62, 0
3, 3396, Note_on_c, 1, 65, 79
3, 3396, Note_on_c, 1, 70, 79
3, 3400, Note_on_c, 1, 50, 0
3, 3404, Note_on_c, 1, 65, 0
3, 3404, Note_on_c, 1, 70, 0
3, 3408, Note_on_c, 1, 48, 79
3, 3408, Note_on_c, 1, 57, 79
3, 3416, Note_on_c, 1, 57, 0
3, 3420, Note_on_c, 1, 64, 79
3, 3420, Note_on_c, 1, 69, 79
3, 3424, Note_on_c, 1, 48, 0
3, 3428, Note_on_c, 1, 64, 0
3, 3428, Note_on_c, 1, 69, 0
3, 3432, Note_on_c, 1, 46, 79
3, 3432, Note_on_c, 1, 58, 79
3, 3440, Note_on_c, 1, 58, 0
3, 3444, Note_on_c, 1, 62, 79
3, 3444, Note_on_c, 1, 67, 79
3, 3448, Note_on_c, 1, 46, 0
3, 3452, Note_on_c, 1, 62, 0
3, 3452, Note_on_c, 1, 67, 0
3, 3456, Note_on_c, 1, 64, 79
3, 3456, Note_on_c, 1, 61, 79
3, 3456, Note_on_c, 1, 52, 79
3, 3456, Note_on_c, 1, 45, 79
3, 3456, Note_on_c, 1, 69, 79
3, 3488, Note_on_c, 1, 45, 0
3, 3488, Note_on_c, 1, 52, 0
3, 3488, Note_on_c, 1, 61, 0
3, 3488, Note_on_c, 1, 64, 0
3, 3508, Note_on_c, 1, 69, 0
3, 3510, Note_on_c, 1, 67, 79
3, 3514, Note_on_c, 1, 67, 0
3, 3516, Note_on_c, 1, 65, 79
3, 3520, Note_on_c, 1, 65, 0
3, 3522, Note_on_c, 1, 64, 79
3, 3526, Note_on_c, 1, 64, 0
3, 3528, Note_on_c, 1, 62, 79
3, 3532, Note_on_c, 1, 62, 0
3, 3534, Note_on_c, 1, 61, 79
3, 3538, Note_on_c, 1, 61, 0
3, 3540, Note_on_c, 1, 59, 79
3, 3544, Note_on_c, 1, 59, 0
3, 3546, Note_on_c, 1, 61, 79
3, 3550, Note_on_c, 1, 61, 0
3, 3552, Note_on_c, 1, 57, 79
3, 3556, Note_on_c, 1, 57, 0
3, 3558, Note_on_c, 1, 59, 79
3, 3562, Note_on_c, 1, 59, 0
3, 3564, Note_on_c, 1, 61, 79
3, 3568, Note_on_c, 1, 61, 0
3, 3570, Note_on_c, 1, 62, 79
3, 3574, Note_on_c, 1, 62, 0
3, 3576, Note_on_c, 1, 64, 79
3, 3580, Note_on_c, 1, 64, 0
3, 3582, Note_on_c, 1, 65, 79
3, 3586, Note_on_c, 1, 65, 0
3, 3588, Note_on_c, 1, 67, 79
3, 3592, Note_on_c, 1, 67, 0
3, 3594, Note_on_c, 1, 69, 79
3, 3598, Note_on_c, 1, 69, 0
3, 3600, Note_on_c, 1, 67, 79
3, 3604, Note_on_c, 1, 67, 0
3, 3606, Note_on_c, 1, 65, 79
3, 3610, Note_on_c, 1, 65, 0
3, 3612, Note_on_c, 1, 64, 79
3, 3616, Note_on_c, 1, 64, 0
3, 3618, Note_on_c, 1, 65, 79
3, 3622, Note_on_c, 1, 65, 0
3, 3624, Note_on_c, 1, 62, 79
3, 3628, Note_on_c, 1, 62, 0
3, 3630, Note_on_c, 1, 65, 79
3, 3634, Note_on_c, 1, 65, 0
3, 3636, Note_on_c, 1, 69, 79
3, 3640, Note_on_c, 1, 69, 0
3, 3642, Note_on_c, 1, 73, 79
3, 3646, Note_on_c, 1, 73, 0
3, 3648, Note_on_c, 1, 74, 79
3, 3652, Note_on_c, 1, 74, 0
3, 3654, Note_on_c, 1, 69, 79
3, 3658, Note_on_c, 1, 69, 0
3, 3660, Note_on_c, 1, 71, 79
3, 3664, Note_on_c, 1, 71, 0
3, 3666, Note_on_c, 1, 73, 79
3, 3670, Note_on_c, 1, 73, 0
3, 3672, Note_on_c, 1, 74, 79
3, 3676, Note_on_c, 1, 74, 0
3, 3678, Note_on_c, 1, 76, 79
3, 3682, Note_on_c, 1, 76, 0
3, 3684, Note_on_c, 1, 77, 79
3, 3688, Note_on_c, 1, 77, 0
3, 3690, Note_on_c, 1, 81, 79
3, 3694, Note_on_c, 1, 81, 0
3, 3696, Note_on_c, 1, 82, 79
3, 3712, Note_on_c, 1, 82, 0
3, 3720, Note_on_c, 1, 50, 79
3, 3720, Note_on_c, 1, 74, 79
3, 3728, Note_on_c, 1, 74, 0
3, 3732, Note_on_c, 1, 77, 79
3, 3732, Note_on_c, 1, 82, 79
3, 3736, Note_on_c, 1, 50, 0
3, 3740, Note_on_c, 1, 77, 0
3, 3740, Note_on_c, 1, 82, 0
3, 3744, Note_on_c, 1, 48, 79
3, 3744, Note_on_c, 1, 69, 79
3, 3752, Note_on_c, 1, 69, 0
3, 3756, Note_on_c, 1, 76, 79
3, 3756, Note_on_c, 1, 81, 79
3, 3760, Note_on_c, 1, 48, 0
3, 3764, Note_on_c, 1, 76, 0
3, 3764, Note_on_c, 1, 81, 0
3, 3768, Note_on_c, 1, 46, 79
3, 3768, Note_on_c, 1, 70, 79
3, 3776, Note_on_c, 1, 70, 0
3, 3780, Note_on_c, 1, 74, 79
3, 3780, Note_on_c, 1, 79, 79
3, 3784, Note_on_c, 1, 46, 0
3, 3788, Note_on_c, 1, 74, 0
3, 3788, Note_on_c, 1, 79, 0
3, 3792, Note_on_c, 1, 76, 79
3, 3792, Note_on_c, 1, 73, 79
3, 3792, Note_on_c, 1, 64, 79
3, 3792, Note_on_c, 1, 45, 79
3, 3792, Note_on_c, 1, 81, 79
3, 3808, Note_on_c, 1, 45, 0
3, 3808, Note_on_c, 1, 64, 0
3, 3808, Note_on_c, 1, 73, 0
3, 3808, Note_on_c, 1, 76, 0
3, 3808, Note_on_c, 1, 81, 0
3, 3816, Note_on_c, 1, 74, 79
3, 3820, Note_on_c, 1, 74, 0
3, 3822, Note_on_c, 1, 77, 79
3, 3826, Note_on_c, 1, 77, 0
3, 3828, Note_on_c, 1, 82, 79
3, 3832, Note_on_c, 1, 82, 0
3, 3834, Note_on_c, 1, 77, 79
3, 3838, Note_on_c, 1, 77, 0
3, 3840, Note_on_c, 1, 72, 79
3, 3844, Note_on_c, 1, 72, 0
3, 3846, Note_on_c, 1, 76, 79
3, 3850, Note_on_c, 1, 76, 0
3, 3852, Note_on_c, 1, 81, 79
3, 3856, Note_on_c, 1, 81, 0
3, 3858, Note_on_c, 1, 76, 79
3, 3862, Note_on_c, 1, 76, 0
3, 3864, Note_on_c, 1, 70, 79
3, 3868, Note_on_c, 1, 70, 0
3, 3870, Note_on_c, 1, 74, 79
3, 3874, Note_on_c, 1, 74, 0
3, 3876, Note_on_c, 1, 79, 79
3, 3880, Note_on_c, 1, 79, 0
3, 3882, Note_on_c, 1, 74, 79
3, 3886, Note_on_c, 1, 74, 0
3, 3888, Note_on_c, 1, 69, 79
3, 3892, Note_on_c, 1, 69, 0
3, 3894, Note_on_c, 1, 73, 79
3, 3898, Note_on_c, 1, 73, 0
3, 3900, Note_on_c, 1, 76, 79
3, 3904, Note_on_c, 1, 76, 0
3, 3906, Note_on_c, 1, 81, 79
3, 3910, Note_on_c, 1, 81, 0
3, 3912, Note_on_c, 1, 50, 79
3, 3912, Note_on_c, 1, 74, 79
3, 3920, Note_on_c, 1, 74, 0
3, 3924, Note_on_c, 1, 77, 79
3, 3924, Note_on_c, 1, 82, 79
3, 3928, Note_on_c, 1, 50, 0
3, 3932, Note_on_c, 1, 77, 0
3, 3932, Note_on_c, 1, 82, 0
3, 3936, Note_on_c, 1, 48, 79
3, 3936, Note_on_c, 1, 69, 79
3, 3944, Note_on_c, 1, 69, 0
3, 3948, Note_on_c, 1, 76, 79
3, 3948, Note_on_c, 1, 81, 79
3, 3952, Note_on_c, 1, 48, 0
3, 3956, Note_on_c, 1, 76, 0
3, 3956, Note_on_c, 1, 81, 0
3, 3960, Note_on_c, 1, 46, 79
3, 3960, Note_on_c, 1, 70, 79
3, 3968, Note_on_c, 1, 70, 0
3, 3972, Note_on_c, 1, 74, 79
3, 3972, Note_on_c, 1, 79, 79
3, 3976, Note_on_c, 1, 46, 0
3, 3980, Note_on_c, 1, 74, 0
3, 3980, Note_on_c, 1, 79, 0
3, 3984, Note_on_c, 1, 76, 79
3, 3984, Note_on_c, 1, 73, 79
3, 3984, Note_on_c, 1, 64, 79
3, 3984, Note_on_c, 1, 45, 79
3, 3984, Note_on_c, 1, 81, 79
3, 4000, Note_on_c, 1, 45, 0
3, 4000, Note_on_c, 1, 64, 0
3, 4000, Note_on_c, 1, 73, 0
3, 4000, Note_on_c, 1, 76, 0
3, 4000, Note_on_c, 1, 81, 0
3, 4008, Note_on_c, 1, 65, 79
3, 4008, Note_on_c, 1, 62, 79
3, 4008, Note_on_c, 1, 59, 79
3, 4008, Note_on_c, 1, 44, 79
3, 4008, Note_on_c, 1, 71, 79
3, 4024, Note_on_c, 1, 44, 0
3, 4024, Note_on_c, 1, 59, 0
3, 4024, Note_on_c, 1, 62, 0
3, 4024, Note_on_c, 1, 65, 0
3, 4024, Note_on_c, 1, 71, 0
3, 4032, Note_on_c, 1, 69, 79
3, 4032, Note_on_c, 1, 64, 79
3, 4032, Note_on_c, 1, 57, 79
3, 4032, Note_on_c, 1, 43, 79
3, 4032, Note_on_c, 1, 73, 79
3, 4056, Note_on_c, 1, 73, 0
3, 4064, Note_on_c, 1, 57, 0
3, 4064, Note_on_c, 1, 64, 0
3, 4064, Note_on_c, 1, 69, 0
3, 4064, Note_on_c, 1, 43, 0
3, 4068, Note_on_c, 1, 71, 79
3, 4076, Note_on_c, 1, 71, 0
3, 4080, Note_on_c, 1, 69, 79
3, 4088, Note_on_c, 1, 69, 0
3, 4092, Note_on_c, 1, 73, 79
3, 4100, Note_on_c, 1, 73, 0
3, 4104, Note_on_c, 1, 76, 79
3, 4108, Note_on_c, 1, 76, 0
3, 4110, Note_on_c, 1, 79, 79
3, 4114, Note_on_c, 1, 79, 0
3, 4116, Note_on_c, 1, 82, 79
3, 4124, Note_on_c, 1, 82, 0
3, 4128, Note_on_c, 1, 81, 79
3, 4132, Note_on_c, 1, 81, 0
3, 4134, Note_on_c, 1, 79, 79
3, 4138, Note_on_c, 1, 79, 0
3, 4140, Note_on_c, 1, 77, 79
3, 4144, Note_on_c, 1, 77, 0
3, 4146, Note_on_c, 1, 76, 79
3, 4150, Note_on_c, 1, 76, 0
3, 4152, Note_on_c, 1, 77, 79
3, 4156, Note_on_c, 1, 77, 0
3, 4158, Note_on_c, 1, 76, 79
3, 4162, Note_on_c, 1, 76, 0
3, 4164, Note_on_c, 1, 74, 79
3, 4168, Note_on_c, 1, 74, 0
3, 4170, Note_on_c, 1, 73, 79
3, 4174, Note_on_c, 1, 73, 0
3, 4176, Note_on_c, 1, 74, 79
3, 4180, Note_on_c, 1, 74, 0
3, 4182, Note_on_c, 1, 72, 79
3, 4186, Note_on_c, 1, 72, 0
3, 4188, Note_on_c, 1, 70, 79
3, 4192, Note_on_c, 1, 70, 0
3, 4194, Note_on_c, 1, 69, 79
3, 4198, Note_on_c, 1, 69, 0
3, 4200, Note_on_c, 1, 67, 79
3, 4204, Note_on_c, 1, 67, 0
3, 4206, Note_on_c, 1, 65, 79
3, 4210, Note_on_c, 1, 65, 0
3, 4212, Note_on_c, 1, 64, 79
3, 4216, Note_on_c, 1, 64, 0
3, 4218, Note_on_c, 1, 62, 79
3, 4222, Note_on_c, 1, 62, 0
3, 4224, Note_on_c, 1, 73, 79
3, 4224, Note_on_c, 1, 70, 79
3, 4224, Note_on_c, 1, 67, 79
3, 4224, Note_on_c, 1, 64, 79
3, 4224, Note_on_c, 1, 61, 79
3, 4224, Note_on_c, 1, 55, 79
3, 4224, Note_on_c, 1, 76, 79
3, 4287, Note_on_c, 1, 55, 0
3, 4287, Note_on_c, 1, 61, 0
3, 4287, Note_on_c, 1, 64, 0
3, 4287, Note_on_c, 1, 67, 0
3, 4287, Note_on_c, 1, 70, 0
3, 4287, Note_on_c, 1, 73, 0
3, 4287, Note_on_c, 1, 76, 0
3, 4320, Note_on_c, 1, 64, 79
3, 4320, Note_on_c, 1, 73, 79
3, 4325, Note_on_c, 1, 64, 0
3, 4325, Note_on_c, 1, 73, 0
3, 4328, Note_on_c, 1, 67, 79
3, 4328, Note_on_c, 1, 76, 79
3, 4333, Note_on_c, 1, 67, 0
3, 4333, Note_on_c, 1, 76, 0
3, 4336, Note_on_c, 1, 64, 79
3, 4336, Note_on_c, 1, 73, 79
3, 4341, Note_on_c, 1, 64, 0
3, 4341, Note_on_c, 1, 73, 0
3, 4344, Note_on_c, 1, 61, 79
3, 4344, Note_on_c, 1, 70, 79
3, 4349, Note_on_c, 1, 61, 0
3, 4349, Note_on_c, 1, 70, 0
3, 4352, Note_on_c, 1, 64, 79
3, 4352, Note_on_c, 1, 73, 79
3, 4357, Note_on_c, 1, 64, 0
3, 4357, Note_on_c, 1, 73, 0
3, 4360, Note_on_c, 1, 61, 79
3, 4360, Note_on_c, 1, 70, 79
3, 4365, Note_on_c, 1, 61, 0
3, 4365, Note_on_c, 1, 70, 0
3, 4368, Note_on_c, 1, 64, 79
3, 4368, Note_on_c, 1, 73, 79
3, 4373, Note_on_c, 1, 64, 0
3, 4373, Note_on_c, 1, 73, 0
3, 4376, Note_on_c, 1, 67, 79
3, 4376, Note_on_c, 1, 76, 79
3, 4381, Note_on_c, 1, 67, 0
3, 4381, Note_on_c, 1, 76, 0
3, 4384, Note_on_c, 1, 64, 79
3, 4384, Note_on_c, 1, 73, 79
3, 4389, Note_on_c, 1, 64, 0
3, 4389, Note_on_c, 1, 73, 0
3, 4392, Note_on_c, 1, 61, 79
3, 4392, Note_on_c, 1, 70, 79
3, 4397, Note_on_c, 1, 61, 0
3, 4397, Note_on_c, 1, 70, 0
3, 4400, Note_on_c, 1, 64, 79
3, 4400, Note_on_c, 1, 73, 79
3, 4405, Note_on_c, 1, 64, 0
3, 4405, Note_on_c, 1, 73, 0
3, 4408, Note_on_c, 1, 61, 79
3, 4408, Note_on_c, 1, 70, 79
3, 4413, Note_on_c, 1, 61, 0
3, 4413, Note_on_c, 1, 70, 0
3, 4416, Note_on_c, 1, 64, 79
3, 4416, Note_on_c, 1, 73, 79
3, 4421, Note_on_c, 1, 64, 0
3, 4421, Note_on_c, 1, 73, 0
3, 4424, Note_on_c, 1, 67, 79
3, 4424, Note_on_c, 1, 76, 79
3, 4429, Note_on_c, 1, 67, 0
3, 4429, Note_on_c, 1, 76, 0
3, 4432, Note_on_c, 1, 64, 79
3, 4432, Note_on_c, 1, 73, 79
3, 4437, Note_on_c, 1, 64, 0
3, 4437, Note_on_c, 1, 73, 0
3, 4440, Note_on_c, 1, 61, 79
3, 4440, Note_on_c, 1, 70, 79
3, 4445, Note_on_c, 1, 61, 0
3, 4445, Note_on_c, 1, 70, 0
3, 4448, Note_on_c, 1, 64, 79
3, 4448, Note_on_c, 1, 73, 79
3, 4453, Note_on_c, 1, 64, 0
3, 4453, Note_on_c, 1, 73, 0
3, 4456, Note_on_c, 1, 61, 79
3, 4456, Note_on_c, 1, 70, 79
3, 4461, Note_on_c, 1, 61, 0
3, 4461, Note_on_c, 1, 70, 0
3, 4464, Note_on_c, 1, 64, 79
3, 4464, Note_on_c, 1, 73, 79
3, 4469, Note_on_c, 1, 64, 0
3, 4469, Note_on_c, 1, 73, 0
3, 4472, Note_on_c, 1, 67, 79
3, 4472, Note_on_c, 1, 76, 79
3, 4477, Note_on_c, 1, 67, 0
3, 4477, Note_on_c, 1, 76, 0
3, 4480, Note_on_c, 1, 64, 79
3, 4480, Note_on_c, 1, 73, 79
3, 4485, Note_on_c, 1, 64, 0
3, 4485, Note_on_c, 1, 73, 0
3, 4488, Note_on_c, 1, 61, 79
3, 4488, Note_on_c, 1, 70, 79
3, 4493, Note_on_c, 1, 61, 0
3, 4493, Note_on_c, 1, 70, 0
3, 4496, Note_on_c, 1, 64, 79
3, 4496, Note_on_c, 1, 73, 79
3, 4501, Note_on_c, 1, 64, 0
3, 4501, Note_on_c, 1, 73, 0
3, 4504, Note_on_c, 1, 61, 79
3, 4504, Note_on_c, 1, 70, 79
3, 4509, Note_on_c, 1, 61, 0
3, 4509, Note_on_c, 1, 70, 0
3, 4512, Note_on_c, 1, 58, 79
3, 4512, Note_on_c, 1, 67, 79
3, 4517, Note_on_c, 1, 58, 0
3, 4517, Note_on_c, 1, 67, 0
3, 4520, Note_on_c, 1, 61, 79
3, 4520, Note_on_c, 1, 70, 79
3, 4525, Note_on_c, 1, 61, 0
3, 4525, Note_on_c, 1, 70, 0
3, 4528, Note_on_c, 1, 58, 79
3, 4528, Note_on_c, 1, 67, 79
3, 4533, Note_on_c, 1, 58, 0
3, 4533, Note_on_c, 1, 67, 0
3, 4536, Note_on_c, 1, 55, 79
3, 4536, Note_on_c, 1, 64, 79
3, 4541, Note_on_c, 1, 55, 0
3, 4541, Note_on_c, 1, 64, 0
3, 4544, Note_on_c, 1, 58, 79
3, 4544, Note_on_c, 1, 67, 79
3, 4549, Note_on_c, 1, 58, 0
3, 4549, Note_on_c, 1, 67, 0
3, 4552, Note_on_c, 1, 55, 79
3, 4552, Note_on_c, 1, 64, 79
3, 4557, Note_on_c, 1, 55, 0
3, 4557, Note_on_c, 1, 64, 0
3, 4560, Note_on_c, 1, 58, 79
3, 4560, Note_on_c, 1, 67, 79
3, 4565, Note_on_c, 1, 58, 0
3, 4565, Note_on_c, 1, 67, 0
3, 4568, Note_on_c, 1, 61, 79
3, 4568, Note_on_c, 1, 70, 79
3, 4573, Note_on_c, 1, 61, 0
3, 4573, Note_on_c, 1, 70, 0
3, 4576, Note_on_c, 1, 58, 79
3, 4576, Note_on_c, 1, 67, 79
3, 4581, Note_on_c, 1, 58, 0
3, 4581, Note_on_c, 1, 67, 0
3, 4584, Note_on_c, 1, 55, 79
3, 4584, Note_on_c, 1, 64, 79
3, 4589, Note_on_c, 1, 55, 0
3, 4589, Note_on_c, 1, 64, 0
3, 4592, Note_on_c, 1, 58, 79
3, 4592, Note_on_c, 1, 67, 79
3, 4597, Note_on_c, 1, 58, 0
3, 4597, Note_on_c, 1, 67, 0
3, 4600, Note_on_c, 1, 55, 79
3, 4600, Note_on_c, 1, 64, 79
3, 4605, Note_on_c, 1, 55, 0
3, 4605, Note_on_c, 1, 64, 0
3, 4608, Note_on_c, 1, 58, 79
3, 4608, Note_on_c, 1, 67, 79
3, 4613, Note_on_c, 1, 67, 0
3, 4616, Note_on_c, 1, 61, 79
3, 4616, Note_on_c, 1, 70, 79
3, 4618, Note_on_c, 1, 58, 0
3, 4621, Note_on_c, 1, 70, 0
3, 4624, Note_on_c, 1, 58, 79
3, 4624, Note_on_c, 1, 67, 79
3, 4626, Note_on_c, 1, 61, 0
3, 4629, Note_on_c, 1, 67, 0
3, 4632, Note_on_c, 1, 55, 79
3, 4632, Note_on_c, 1, 64, 79
3, 4634, Note_on_c, 1, 58, 0
3, 4637, Note_on_c, 1, 64, 0
3, 4640, Note_on_c, 1, 58, 79
3, 4640, Note_on_c, 1, 67, 79
3, 4642, Note_on_c, 1, 55, 0
3, 4645, Note_on_c, 1, 67, 0
3, 4648, Note_on_c, 1, 55, 79
3, 4648, Note_on_c, 1, 64, 79
3, 4650, Note_on_c, 1, 58, 0
3, 4653, Note_on_c, 1, 64, 0
3, 4656, Note_on_c, 1, 58, 79
3, 4656, Note_on_c, 1, 67, 79
3, 4658, Note_on_c, 1, 55, 0
3, 4661, Note_on_c, 1, 58, 0
3, 4661, Note_on_c, 1, 67, 0
3, 4664, Note_on_c, 1, 61, 79
3, 4664, Note_on_c, 1, 70, 79
3, 4669, Note_on_c, 1, 61, 0
3, 4669, Note_on_c, 1, 70, 0
3, 4672, Note_on_c, 1, 58, 79
3, 4672, Note_on_c, 1, 67, 79
3, 4677, Note_on_c, 1, 58, 0
3, 4677, Note_on_c, 1, 67, 0
3, 4680, Note_on_c, 1, 55, 79
3, 4680, Note_on_c, 1, 64, 79
3, 4685, Note_on_c, 1, 55, 0
3, 4685, Note_on_c, 1, 64, 0
3, 4688, Note_on_c, 1, 58, 79
3, 4688, Note_on_c, 1, 67, 79
3, 4693, Note_on_c, 1, 58, 0
3, 4693, Note_on_c, 1, 67, 0
3, 4696, Note_on_c, 1, 55, 79
3, 4696, Note_on_c, 1, 64, 79
3, 4701, Note_on_c, 1, 55, 0
3, 4701, Note_on_c, 1, 64, 0
3, 4704, Note_on_c, 1, 52, 79
3, 4704, Note_on_c, 1, 61, 79
3, 4709, Note_on_c, 1, 61, 0
3, 4712, Note_on_c, 1, 55, 79
3, 4712, Note_on_c, 1, 64, 79
3, 4714, Note_on_c, 1, 52, 0
3, 4717, Note_on_c, 1, 64, 0
3, 4720, Note_on_c, 1, 52, 79
3, 4720, Note_on_c, 1, 61, 79
3, 4722, Note_on_c, 1, 55, 0
3, 4725, Note_on_c, 1, 61, 0
3, 4728, Note_on_c, 1, 49, 79
3, 4728, Note_on_c, 1, 58, 79
3, 4730, Note_on_c, 1, 52, 0
3, 4733, Note_on_c, 1, 58, 0
3, 4736, Note_on_c, 1, 52, 79
3, 4736, Note_on_c, 1, 61, 79
3, 4738, Note_on_c, 1, 49, 0
3, 4741, Note_on_c, 1, 61, 0
3, 4744, Note_on_c, 1, 49, 79
3, 4744, Note_on_c, 1, 58, 79
3, 4746, Note_on_c, 1, 52, 0
3, 4749, Note_on_c, 1, 58, 0
3, 4752, Note_on_c, 1, 52, 79
3, 4752, Note_on_c, 1, 61, 79
3, 4754, Note_on_c, 1, 49, 0
3, 4757, Note_on_c, 1, 61, 0
3, 4760, Note_on_c, 1, 55, 79
3, 4760, Note_on_c, 1, 64, 79
3, 4762, Note_on_c, 1, 52, 0
3, 4765, Note_on_c, 1, 64, 0
3, 4768, Note_on_c, 1, 52, 79
3, 4768, Note_on_c, 1, 61, 79
3, 4770, Note_on_c, 1, 55, 0
3, 4773, Note_on_c, 1, 61, 0
3, 4776, Note_on_c, 1, 49, 79
3, 4776, Note_on_c, 1, 58, 79
3, 4778, Note_on_c, 1, 52, 0
3, 4781, Note_on_c, 1, 58, 0
3, 4784, Note_on_c, 1, 52, 79
3, 4784, Note_on_c, 1, 61, 79
3, 4786, Note_on_c, 1, 49, 0
3, 4789, Note_on_c, 1, 61, 0
3, 4792, Note_on_c, 1, 49, 79
3, 4792, Note_on_c, 1, 58, 79
3, 4794, Note_on_c, 1, 52, 0
3, 4797, Note_on_c, 1, 58, 0
3, 4800, Note_on_c, 1, 52, 79
3, 4800, Note_on_c, 1, 61, 79
3, 4802, Note_on_c, 1, 49, 0
3, 4805, Note_on_c, 1, 52, 0
3, 4808, Note_on_c, 1, 55, 79
3, 4808, Note_on_c, 1, 64, 79
3, 4810, Note_on_c, 1, 61, 0
3, 4813, Note_on_c, 1, 55, 0
3, 4816, Note_on_c, 1, 52, 79
3, 4816, Note_on_c, 1, 61, 79
3, 4818, Note_on_c, 1, 64, 0
3, 4821, Note_on_c, 1, 52, 0
3, 4824, Note_on_c, 1, 49, 79
3, 4824, Note_on_c, 1, 58, 79
3, 4826, Note_on_c, 1, 61, 0
3, 4829, Note_on_c, 1, 49, 0
3, 4832, Note_on_c, 1, 52, 79
3, 4832, Note_on_c, 1, 61, 79
3, 4834, Note_on_c, 1, 58, 0
3, 4837, Note_on_c, 1, 52, 0
3, 4840, Note_on_c, 1, 49, 79
3, 4840, Note_on_c, 1, 58, 79
3, 4842, Note_on_c, 1, 61, 0
3, 4845, Note_on_c, 1, 49, 0
3, 4848, Note_on_c, 1, 52, 79
3, 4848, Note_on_c, 1, 61, 79
3, 4850, Note_on_c, 1, 58, 0
3, 4853, Note_on_c, 1, 52, 0
3, 4856, Note_on_c, 1, 55, 79
3, 4856, Note_on_c, 1, 64, 79
3, 4858, Note_on_c, 1, 61, 0
3, 4861, Note_on_c, 1, 55, 0
3, 4864, Note_on_c, 1, 52, 79
3, 4864, Note_on_c, 1, 61, 79
3, 4866, Note_on_c, 1, 64, 0
3, 4869, Note_on_c, 1, 52, 0
3, 4872, Note_on_c, 1, 49, 79
3, 4872, Note_on_c, 1, 58, 79
3, 4874, Note_on_c, 1, 61, 0
3, 4877, Note_on_c, 1, 49, 0
3, 4880, Note_on_c, 1, 52, 79
3, 4880, Note_on_c, 1, 61, 79
3, 4882, Note_on_c, 1, 58, 0
3, 4885, Note_on_c, 1, 52, 0
3, 4888, Note_on_c, 1, 49, 79
3, 4888, Note_on_c, 1, 58, 79
3, 4890, Note_on_c, 1, 61, 0
3, 4893, Note_on_c, 1, 49, 0
3, 4896, Note_on_c, 1, 52, 79
3, 4896, Note_on_c, 1, 61, 79
3, 4898, Note_on_c, 1, 58, 0
3, 4901, Note_on_c, 1, 52, 0
3, 4904, Note_on_c, 1, 55, 79
3, 4904, Note_on_c, 1, 64, 79
3, 4906, Note_on_c, 1, 61, 0
3, 4909, Note_on_c, 1, 55, 0
3, 4912, Note_on_c, 1, 52, 79
3, 4912, Note_on_c, 1, 61, 79
3, 4914, Note_on_c, 1, 64, 0
3, 4917, Note_on_c, 1, 52, 0
3, 4920, Note_on_c, 1, 55, 79
3, 4920, Note_on_c, 1, 64, 79
3, 4922, Note_on_c, 1, 61, 0
3, 4925, Note_on_c, 1, 55, 0
3, 4928, Note_on_c, 1, 58, 79
3, 4928, Note_on_c, 1, 67, 79
3, 4930, Note_on_c, 1, 64, 0
3, 4933, Note_on_c, 1, 58, 0
3, 4936, Note_on_c, 1, 55, 79
3, 4936, Note_on_c, 1, 64, 79
3, 4938, Note_on_c, 1, 67, 0
3, 4941, Note_on_c, 1, 55, 0
3, 4944, Note_on_c, 1, 52, 79
3, 4944, Note_on_c, 1, 61, 79
3, 4946, Note_on_c, 1, 64, 0
3, 4949, Note_on_c, 1, 52, 0
3, 4952, Note_on_c, 1, 55, 79
3, 4952, Note_on_c, 1, 64, 79
3, 4954, Note_on_c, 1, 61, 0
3, 4957, Note_on_c, 1, 55, 0
3, 4960, Note_on_c, 1, 52, 79
3, 4960, Note_on_c, 1, 61, 79
3, 4962, Note_on_c, 1, 64, 0
3, 4965, Note_on_c, 1, 52, 0
3, 4968, Note_on_c, 1, 55, 79
3, 4968, Note_on_c, 1, 64, 79
3, 4970, Note_on_c, 1, 61, 0
3, 4973, Note_on_c, 1, 55, 0
3, 4976, Note_on_c, 1, 58, 79
3, 4976, Note_on_c, 1, 67, 79
3, 4978, Note_on_c, 1, 64, 0
3, 4981, Note_on_c, 1, 58, 0
3, 4984, Note_on_c, 1, 55, 79
3, 4984, Note_on_c, 1, 64, 79
3, 4986, Note_on_c, 1, 67, 0
3, 4989, Note_on_c, 1, 55, 0
3, 4992, Note_on_c, 1, 52, 79
3, 4992, Note_on_c, 1, 61, 79
3, 4994, Note_on_c, 1, 64, 0
3, 4997, Note_on_c, 1, 61, 0
3, 4997, Note_on_c, 1, 52, 0
3, 5000, Note_on_c, 1, 55, 79
3, 5000, Note_on_c, 1, 64, 79
3, 5005, Note_on_c, 1, 55, 0
3, 5005, Note_on_c, 1, 64, 0
3, 5008, Note_on_c, 1, 52, 79
3, 5008, Note_on_c, 1, 61, 79
3, 5013, Note_on_c, 1, 52, 0
3, 5013, Note_on_c, 1, 61, 0
3, 5016, Note_on_c, 1, 55, 79
3, 5016, Note_on_c, 1, 64, 79
3, 5021, Note_on_c, 1, 55, 0
3, 5021, Note_on_c, 1, 64, 0
3, 5024, Note_on_c, 1, 58, 79
3, 5024, Note_on_c, 1, 67, 79
3, 5029, Note_on_c, 1, 58, 0
3, 5029, Note_on_c, 1, 67, 0
3, 5032, Note_on_c, 1, 55, 79
3, 5032, Note_on_c, 1, 64, 79
3, 5037, Note_on_c, 1, 55, 0
3, 5037, Note_on_c, 1, 64, 0
3, 5040, Note_on_c, 1, 52, 79
3, 5040, Note_on_c, 1, 61, 79
3, 5045, Note_on_c, 1, 52, 0
3, 5045, Note_on_c, 1, 61, 0
3, 5048, Note_on_c, 1, 55, 79
3, 5048, Note_on_c, 1, 64, 79
3, 5053, Note_on_c, 1, 55, 0
3, 5053, Note_on_c, 1, 64, 0
3, 5056, Note_on_c, 1, 52, 79
3, 5056, Note_on_c, 1, 61, 79
3, 5061, Note_on_c, 1, 52, 0
3, 5061, Note_on_c, 1, 61, 0
3, 5064, Note_on_c, 1, 55, 79
3, 5064, Note_on_c, 1, 64, 79
3, 5069, Note_on_c, 1, 55, 0
3, 5069, Note_on_c, 1, 64, 0
3, 5072, Note_on_c, 1, 58, 79
3, 5072, Note_on_c, 1, 67, 79
3, 5077, Note_on_c, 1, 58, 0
3, 5077, Note_on_c, 1, 67, 0
3, 5080, Note_on_c, 1, 55, 79
3, 5080, Note_on_c, 1, 64, 79
3, 5085, Note_on_c, 1, 55, 0
3, 5085, Note_on_c, 1, 64, 0
3, 5088, Note_on_c, 1, 52, 79
3, 5088, Note_on_c, 1, 67, 79
3, 5093, Note_on_c, 1, 52, 0
3, 5093, Note_on_c, 1, 67, 0
3, 5096, Note_on_c, 1, 55, 79
3, 5096, Note_on_c, 1, 70, 79
3, 5101, Note_on_c, 1, 55, 0
3, 5101, Note_on_c, 1, 70, 0
3, 5104, Note_on_c, 1, 52, 79
3, 5104, Note_on_c, 1, 67, 79
3, 5109, Note_on_c, 1, 52, 0
3, 5109, Note_on_c, 1, 67, 0
3, 5112, Note_on_c, 1, 55, 79
3, 5112, Note_on_c, 1, 70, 79
3, 5117, Note_on_c, 1, 55, 0
3, 5117, Note_on_c, 1, 70, 0
3, 5120, Note_on_c, 1, 52, 79
3, 5120, Note_on_c, 1, 67, 79
3, 5125, Note_on_c, 1, 52, 0
3, 5125, Note_on_c, 1, 67, 0
3, 5128, Note_on_c, 1, 55, 79
3, 5128, Note_on_c, 1, 70, 79
3, 5133, Note_on_c, 1, 55, 0
3, 5133, Note_on_c, 1, 70, 0
3, 5136, Note_on_c, 1, 58, 79
3, 5136, Note_on_c, 1, 67, 79
3, 5141, Note_on_c, 1, 58, 0
3, 5141, Note_on_c, 1, 67, 0
3, 5144, Note_on_c, 1, 61, 79
3, 5144, Note_on_c, 1, 70, 79
3, 5149, Note_on_c, 1, 61, 0
3, 5149, Note_on_c, 1, 70, 0
3, 5152, Note_on_c, 1, 58, 79
3, 5152, Note_on_c, 1, 67, 79
3, 5157, Note_on_c, 1, 58, 0
3, 5157, Note_on_c, 1, 67, 0
3, 5160, Note_on_c, 1, 61, 79
3, 5160, Note_on_c, 1, 70, 79
3, 5165, Note_on_c, 1, 61, 0
3, 5165, Note_on_c, 1, 70, 0
3, 5168, Note_on_c, 1, 58, 79
3, 5168, Note_on_c, 1, 67, 79
3, 5173, Note_on_c, 1, 58, 0
3, 5173, Note_on_c, 1, 67, 0
3, 5176, Note_on_c, 1, 61, 79
3, 5176, Note_on_c, 1, 70, 79
3, 5181, Note_on_c, 1, 61, 0
3, 5181, Note_on_c, 1, 70, 0
3, 5184, Note_on_c, 1, 64, 79
3, 5184, Note_on_c, 1, 73, 79
3, 5189, Note_on_c, 1, 64, 0
3, 5189, Note_on_c, 1, 73, 0
3, 5192, Note_on_c, 1, 61, 79
3, 5192, Note_on_c, 1, 70, 79
3, 5197, Note_on_c, 1, 61, 0
3, 5197, Note_on_c, 1, 70, 0
3, 5200, Note_on_c, 1, 64, 79
3, 5200, Note_on_c, 1, 73, 79
3, 5205, Note_on_c, 1, 64, 0
3, 5205, Note_on_c, 1, 73, 0
3, 5208, Note_on_c, 1, 61, 79
3, 5208, Note_on_c, 1, 76, 79
3, 5213, Note_on_c, 1, 61, 0
3, 5213, Note_on_c, 1, 76, 0
3, 5216, Note_on_c, 1, 64, 79
3, 5216, Note_on_c, 1, 73, 79
3, 5221, Note_on_c, 1, 64, 0
3, 5221, Note_on_c, 1, 73, 0
3, 5224, Note_on_c, 1, 61, 79
3, 5224, Note_on_c, 1, 76, 79
3, 5229, Note_on_c, 1, 61, 0
3, 5229, Note_on_c, 1, 76, 0
3, 5232, Note_on_c, 1, 64, 79
3, 5232, Note_on_c, 1, 73, 79
3, 5237, Note_on_c, 1, 64, 0
3, 5237, Note_on_c, 1, 73, 0
3, 5240, Note_on_c, 1, 61, 79
3, 5240, Note_on_c, 1, 76, 79
3, 5245, Note_on_c, 1, 61, 0
3, 5245, Note_on_c, 1, 76, 0
3, 5248, Note_on_c, 1, 64, 79
3, 5248, Note_on_c, 1, 73, 79
3, 5253, Note_on_c, 1, 64, 0
3, 5253, Note_on_c, 1, 73, 0
3, 5256, Note_on_c, 1, 61, 79
3, 5256, Note_on_c, 1, 76, 79
3, 5261, Note_on_c, 1, 61, 0
3, 5261, Note_on_c, 1, 76, 0
3, 5264, Note_on_c, 1, 64, 79
3, 5264, Note_on_c, 1, 73, 79
3, 5269, Note_on_c, 1, 64, 0
3, 5269, Note_on_c, 1, 73, 0
3, 5272, Note_on_c, 1, 61, 79
3, 5272, Note_on_c, 1, 76, 79
3, 5277, Note_on_c, 1, 61, 0
3, 5277, Note_on_c, 1, 76, 0
3, 5280, Note_on_c, 1, 76, 79
3, 5280, Note_on_c, 1, 69, 79
3, 5280, Note_on_c, 1, 73, 79
3, 5280, Note_on_c, 1, 64, 79
3, 5280, Note_on_c, 1, 61, 79
3, 5280, Note_on_c, 1, 57, 79
3, 5280, Note_on_c, 1, 55, 79
3, 5280, Note_on_c, 1, 81, 79
3, 5312, Note_on_c, 1, 55, 0
3, 5312, Note_on_c, 1, 57, 0
3, 5312, Note_on_c, 1, 61, 0
3, 5312, Note_on_c, 1, 64, 0
3, 5312, Note_on_c, 1, 69, 0
3, 5312, Note_on_c, 1, 73, 0
3, 5312, Note_on_c, 1, 76, 0
3, 5312, Note_on_c, 1, 81, 0
3, 5328, Note_on_c, 1, 77, 79
3, 5328, Note_on_c, 1, 74, 79
3, 5328, Note_on_c, 1, 69, 79
3, 5328, Note_on_c, 1, 65, 79
3, 5328, Note_on_c, 1, 62, 79
3, 5328, Note_on_c, 1, 57, 79
3, 5328, Note_on_c, 1, 53, 79
3, 5328, Note_on_c, 1, 81, 79
3, 5360, Note_on_c, 1, 53, 0
3, 5360, Note_on_c, 1, 57, 0
3, 5360, Note_on_c, 1, 62, 0
3, 5360, Note_on_c, 1, 65, 0
3, 5360, Note_on_c, 1, 69, 0
3, 5360, Note_on_c, 1, 74, 0
3, 5360, Note_on_c, 1, 77, 0
3, 5360, Note_on_c, 1, 81, 0
3, 5376, Note_on_c, 1, 74, 79
3, 5376, Note_on_c, 1, 70, 79
3, 5376, Note_on_c, 1, 67, 79
3, 5376, Note_on_c, 1, 62, 79
3, 5376, Note_on_c, 1, 58, 79
3, 5376, Note_on_c, 1, 79, 79
3, 5408, Note_on_c, 1, 62, 0
3, 5408, Note_on_c, 1, 67, 0
3, 5408, Note_on_c, 1, 70, 0
3, 5408, Note_on_c, 1, 74, 0
3, 5408, Note_on_c, 1, 79, 0
3, 5424, Note_on_c, 1, 58, 0
3, 5448, Note_on_c, 1, 57, 79
3, 5456, Note_on_c, 1, 57, 0
3, 5460, Note_on_c, 1, 55, 79
3, 5468, Note_on_c, 1, 55, 0
3, 5472, Note_on_c, 1, 76, 79
3, 5472, Note_on_c, 1, 73, 79
3, 5472, Note_on_c, 1, 61, 79
3, 5472, Note_on_c, 1, 69, 79
3, 5472, Note_on_c, 1, 64, 79
3, 5472, Note_on_c, 1, 57, 79
3, 5472, Note_on_c, 1, 55, 79
3, 5472, Note_on_c, 1, 57, 79
3, 5472, Note_on_c, 1, 79, 79
3, 5496, Note_on_c, 1, 57, 0
3, 5504, Note_on_c, 1, 61, 0
3, 5504, Note_on_c, 1, 64, 0
3, 5504, Note_on_c, 1, 69, 0
3, 5504, Note_on_c, 1, 73, 0
3, 5504, Note_on_c, 1, 76, 0
3, 5504, Note_on_c, 1, 79, 0
3, 5508, Note_on_c, 1, 52, 79
3, 5516, Note_on_c, 1, 52, 0
3, 5520, Note_on_c, 1, 55, 0
3, 5520, Note_on_c, 1, 53, 79
3, 5528, Note_on_c, 1, 53, 0
3, 5532, Note_on_c, 1, 50, 79
3, 5540, Note_on_c, 1, 50, 0
3, 5544, Note_on_c, 1, 52, 79
3, 5552, Note_on_c, 1, 52, 0
3, 5556, Note_on_c, 1, 49, 79
3, 5564, Note_on_c, 1, 49, 0
3, 5568, Note_on_c, 1, 50, 79
3, 5576, Note_on_c, 1, 50, 0
3, 5580, Note_on_c, 1, 50, 79
3, 5588, Note_on_c, 1, 50, 0
3, 5592, Note_on_c, 1, 47, 79
3, 5600, Note_on_c, 1, 47, 0
3, 5604, Note_on_c, 1, 49, 79
3, 5612, Note_on_c, 1, 49, 0
3, 5616, Note_on_c, 1, 46, 79
3, 5624, Note_on_c, 1, 46, 0
3, 5628, Note_on_c, 1, 44, 79
3, 5636, Note_on_c, 1, 44, 0
3, 5640, Note_on_c, 1, 45, 79
3, 5648, Note_on_c, 1, 45, 0
3, 5652, Note_on_c, 1, 55, 79
3, 5652, Note_on_c, 1, 69, 79
3, 5652, Note_on_c, 1, 64, 79
3, 5652, Note_on_c, 1, 57, 79
3, 5652, Note_on_c, 1, 73, 79
3, 5660, Note_on_c, 1, 55, 0
3, 5660, Note_on_c, 1, 57, 0
3, 5660, Note_on_c, 1, 64, 0
3, 5660, Note_on_c, 1, 69, 0
3, 5660, Note_on_c, 1, 73, 0
3, 5664, Note_on_c, 1, 53, 79
3, 5664, Note_on_c, 1, 69, 79
3, 5664, Note_on_c, 1, 65, 79
3, 5664, Note_on_c, 1, 62, 79
3, 5664, Note_on_c, 1, 57, 79
3, 5664, Note_on_c, 1, 74, 79
3, 5680, Note_on_c, 1, 53, 0
3, 5680, Note_on_c, 1, 57, 0
3, 5680, Note_on_c, 1, 62, 0
3, 5680, Note_on_c, 1, 65, 0
3, 5680, Note_on_c, 1, 69, 0
3, 5680, Note_on_c, 1, 74, 0
3, 5688, Note_on_c, 1, 62, 79
3, 5688, Note_on_c, 1, 57, 79
3, 5688, Note_on_c, 1, 50, 79
3, 5688, Note_on_c, 1, 65, 79
3, 5704, Note_on_c, 1, 50, 0
3, 5704, Note_on_c, 1, 65, 0
3, 5712, Note_on_c, 1, 45, 79
3, 5712, Note_on_c, 1, 64, 79
3, 5728, Note_on_c, 1, 62, 0
3, 5736, Note_on_c, 1, 57, 0
3, 5736, Note_on_c, 1, 61, 79
3, 5744, Note_on_c, 1, 45, 0
3, 5744, Note_on_c, 1, 64, 0
3, 5748, Note_on_c, 1, 55, 79
3, 5752, Note_on_c, 1, 61, 0
3, 5760, Note_on_c, 1, 57, 79
3, 5760, Note_on_c, 1, 50, 79
3, 5760, Note_on_c, 1, 38, 79
3, 5760, Note_on_c, 1, 62, 79
3, 5780, Note_on_c, 1, 55, 0
3, 5784, Note_on_c, 1, 53, 79
3, 5794, Note_on_c, 1, 53, 0
3, 5796, Note_on_c, 1, 52, 79
3, 5806, Note_on_c, 1, 52, 0
3, 5808, Note_on_c, 1, 53, 79
3, 5840, Note_on_c, 1, 38, 0
3, 5840, Note_on_c, 1, 50, 0
3, 5840, Note_on_c, 1, 53, 0
3, 5840, Note_on_c, 1, 57, 0
3, 5840, Note_on_c, 1, 62, 0
3, 5868, Note_on_c, 1, 69, 79
3, 5878, Note_on_c, 1, 69, 0
3, 5880, Note_on_c, 1, 67, 79
3, 5890, Note_on_c, 1, 67, 0
3, 5892, Note_on_c, 1, 69, 79
3, 5902, Note_on_c, 1, 69, 0
3, 5904, Note_on_c, 1, 65, 79
3, 5914, Note_on_c, 1, 65, 0
3, 5916, Note_on_c, 1, 69, 79
3, 5926, Note_on_c, 1, 69, 0
3, 5928, Note_on_c, 1, 64, 79
3, 5938, Note_on_c, 1, 64, 0
3, 5940, Note_on_c, 1, 69, 79
3, 5950, Note_on_c, 1, 69, 0
3, 5952, Note_on_c, 1, 62, 79
3, 5962, Note_on_c, 1, 62, 0
3, 5964, Note_on_c, 1, 69, 79
3, 5974, Note_on_c, 1, 69, 0
3, 5976, Note_on_c, 1, 61, 79
3, 5986, Note_on_c, 1, 61, 0
3, 5988, Note_on_c, 1, 69, 79
3, 5998, Note_on_c, 1, 69, 0
3, 6000, Note_on_c, 1, 62, 79
3, 6010, Note_on_c, 1, 62, 0
3, 6012, Note_on_c, 1, 69, 79
3, 6022, Note_on_c, 1, 69, 0
3, 6024, Note_on_c, 1, 64, 79
3, 6034, Note_on_c, 1, 64, 0
3, 6036, Note_on_c, 1, 69, 79
3, 6046, Note_on_c, 1, 69, 0
3, 6048, Note_on_c, 1, 65, 79
3, 6058, Note_on_c, 1, 65, 0
3, 6060, Note_on_c, 1, 69, 79
3, 6070, Note_on_c, 1, 69, 0
3, 6072, Note_on_c, 1, 57, 79
3, 6082, Note_on_c, 1, 57, 0
3, 6084, Note_on_c, 1, 69, 79
3, 6094, Note_on_c, 1, 69, 0
3, 6096, Note_on_c, 1, 59, 79
3, 6106, Note_on_c, 1, 59, 0
3, 6108, Note_on_c, 1, 69, 79
3, 6118, Note_on_c, 1, 69, 0
3, 6120, Note_on_c, 1, 61, 79
3, 6130, Note_on_c, 1, 61, 0
3, 6132, Note_on_c, 1, 69, 79
3, 6142, Note_on_c, 1, 69, 0
3, 6144, Note_on_c, 1, 62, 79
3, 6154, Note_on_c, 1, 62, 0
3, 6156, Note_on_c, 1, 69, 79
3, 6166, Note_on_c, 1, 69, 0
3, 6168, Note_on_c, 1, 61, 79
3, 6178, Note_on_c, 1, 61, 0
3, 6180, Note_on_c, 1, 69, 79
3, 6190, Note_on_c, 1, 69, 0
3, 6192, Note_on_c, 1, 62, 79
3, 6202, Note_on_c, 1, 62, 0
3, 6204, Note_on_c, 1, 69, 79
3, 6214, Note_on_c, 1, 69, 0
3, 6216, Note_on_c, 1, 64, 79
3, 6226, Note_on_c, 1, 64, 0
3, 6228, Note_on_c, 1, 69, 79
3, 6238, Note_on_c, 1, 69, 0
3, 6240, Note_on_c, 1, 65, 79
3, 6252, Note_on_c, 1, 74, 79
3, 6256, Note_on_c, 1, 65, 0
3, 6262, Note_on_c, 1, 74, 0
3, 6264, Note_on_c, 1, 66, 79
3, 6264, Note_on_c, 1, 72, 79
3, 6274, Note_on_c, 1, 72, 0
3, 6276, Note_on_c, 1, 74, 79
3, 6280, Note_on_c, 1, 66, 0
3, 6286, Note_on_c, 1, 74, 0
3, 6288, Note_on_c, 1, 67, 79
3, 6288, Note_on_c, 1, 70, 79
3, 6298, Note_on_c, 1, 70, 0
3, 6300, Note_on_c, 1, 74, 79
3, 6304, Note_on_c, 1, 67, 0
3, 6310, Note_on_c, 1, 74, 0
3, 6312, Note_on_c, 1, 60, 79
3, 6312, Note_on_c, 1, 69, 79
3, 6322, Note_on_c, 1, 69, 0
3, 6324, Note_on_c, 1, 74, 79
3, 6328, Note_on_c, 1, 60, 0
3, 6334, Note_on_c, 1, 74, 0
3, 6336, Note_on_c, 1, 58, 79
3, 6336, Note_on_c, 1, 67, 79
3, 6346, Note_on_c, 1, 67, 0
3, 6348, Note_on_c, 1, 74, 79
3, 6356, Note_on_c, 1, 58, 0
3, 6358, Note_on_c, 1, 74, 0
3, 6360, Note_on_c, 1, 57, 79
3, 6360, Note_on_c, 1, 66, 79
3, 6370, Note_on_c, 1, 66, 0
3, 6372, Note_on_c, 1, 74, 79
3, 6380, Note_on_c, 1, 57, 0
3, 6382, Note_on_c, 1, 74, 0
3, 6384, Note_on_c, 1, 58, 79
3, 6384, Note_on_c, 1, 67, 79
3, 6394, Note_on_c, 1, 67, 0
3, 6396, Note_on_c, 1, 74, 79
3, 6404, Note_on_c, 1, 58, 0
3, 6406, Note_on_c, 1, 74, 0
3, 6408, Note_on_c, 1, 60, 79
3, 6408, Note_on_c, 1, 69, 79
3, 6418, Note_on_c, 1, 69, 0
3, 6420, Note_on_c, 1, 74, 79
3, 6428, Note_on_c, 1, 60, 0
3, 6430, Note_on_c, 1, 74, 0
3, 6432, Note_on_c, 1, 62, 79
3, 6432, Note_on_c, 1, 70, 79
3, 6442, Note_on_c, 1, 70, 0
3, 6444, Note_on_c, 1, 74, 79
3, 6452, Note_on_c, 1, 62, 0
3, 6454, Note_on_c, 1, 74, 0
3, 6456, Note_on_c, 1, 54, 79
3, 6456, Note_on_c, 1, 62, 79
3, 6466, Note_on_c, 1, 62, 0
3, 6468, Note_on_c, 1, 74, 79
3, 6476, Note_on_c, 1, 54, 0
3, 6478, Note_on_c, 1, 74, 0
3, 6480, Note_on_c, 1, 55, 79
3, 6480, Note_on_c, 1, 64, 79
3, 6490, Note_on_c, 1, 64, 0
3, 6492, Note_on_c, 1, 74, 79
3, 6500, Note_on_c, 1, 55, 0
3, 6502, Note_on_c, 1, 74, 0
3, 6504, Note_on_c, 1, 57, 79
3, 6504, Note_on_c, 1, 66, 79
3, 6514, Note_on_c, 1, 66, 0
3, 6516, Note_on_c, 1, 74, 79
3, 6524, Note_on_c, 1, 57, 0
3, 6526, Note_on_c, 1, 74, 0
3, 6528, Note_on_c, 1, 58, 79
3, 6528, Note_on_c, 1, 67, 79
3, 6538, Note_on_c, 1, 67, 0
3, 6540, Note_on_c, 1, 74, 79
3, 6548, Note_on_c, 1, 58, 0
3, 6550, Note_on_c, 1, 74, 0
3, 6552, Note_on_c, 1, 57, 79
3, 6552, Note_on_c, 1, 66, 79
3, 6562, Note_on_c, 1, 66, 0
3, 6564, Note_on_c, 1, 74, 79
3, 6572, Note_on_c, 1, 57, 0
3, 6574, Note_on_c, 1, 74, 0
3, 6576, Note_on_c, 1, 58, 79
3, 6576, Note_on_c, 1, 67, 79
3, 6586, Note_on_c, 1, 67, 0
3, 6588, Note_on_c, 1, 74, 79
3, 6596, Note_on_c, 1, 58, 0
3, 6598, Note_on_c, 1, 74, 0
3, 6600, Note_on_c, 1, 54, 79
3, 6600, Note_on_c, 1, 69, 79
3, 6610, Note_on_c, 1, 69, 0
3, 6612, Note_on_c, 1, 74, 79
3, 6620, Note_on_c, 1, 54, 0
3, 6622, Note_on_c, 1, 74, 0
3, 6624, Note_on_c, 1, 55, 79
3, 6624, Note_on_c, 1, 70, 79
3, 6634, Note_on_c, 1, 55, 0
3, 6636, Note_on_c, 1, 67, 79
3, 6644, Note_on_c, 1, 70, 0
3, 6646, Note_on_c, 1, 67, 0
3, 6648, Note_on_c, 1, 55, 79
3, 6648, Note_on_c, 1, 74, 79
3, 6658, Note_on_c, 1, 55, 0
3, 6660, Note_on_c, 1, 67, 79
3, 6668, Note_on_c, 1, 74, 0
3, 6670, Note_on_c, 1, 67, 0
3, 6672, Note_on_c, 1, 62, 79
3, 6672, Note_on_c, 1, 70, 79
3, 6682, Note_on_c, 1, 62, 0
3, 6684, Note_on_c, 1, 67, 79
3, 6692, Note_on_c, 1, 70, 0
3, 6694, Note_on_c, 1, 67, 0
3, 6696, Note_on_c, 1, 62, 79
3, 6696, Note_on_c, 1, 74, 79
3, 6706, Note_on_c, 1, 62, 0
3, 6708, Note_on_c, 1, 67, 79
3, 6716, Note_on_c, 1, 74, 0
3, 6718, Note_on_c, 1, 67, 0
3, 6720, Note_on_c, 1, 60, 79
3, 6720, Note_on_c, 1, 75, 79
3, 6730, Note_on_c, 1, 60, 0
3, 6732, Note_on_c, 1, 63, 79
3, 6740, Note_on_c, 1, 75, 0
3, 6742, Note_on_c, 1, 63, 0
3, 6744, Note_on_c, 1, 60, 79
3, 6744, Note_on_c, 1, 67, 79
3, 6754, Note_on_c, 1, 60, 0
3, 6756, Note_on_c, 1, 63, 79
3, 6764, Note_on_c, 1, 67, 0
3, 6766, Note_on_c, 1, 63, 0
3, 6768, Note_on_c, 1, 60, 79
3, 6768, Note_on_c, 1, 75, 79
3, 6778, Note_on_c, 1, 60, 0
3, 6780, Note_on_c, 1, 63, 79
3, 6788, Note_on_c, 1, 75, 0
3, 6790, Note_on_c, 1, 63, 0
3, 6792, Note_on_c, 1, 60, 79
3, 6792, Note_on_c, 1, 67, 79
3, 6802, Note_on_c, 1, 60, 0
3, 6804, Note_on_c, 1, 63, 79
3, 6812, Note_on_c, 1, 67, 0
3, 6814, Note_on_c, 1, 63, 0
3, 6816, Note_on_c, 1, 60, 79
3, 6816, Note_on_c, 1, 72, 79
3, 6826, Note_on_c, 1, 60, 0
3, 6828, Note_on_c, 1, 65, 79
3, 6836, Note_on_c, 1, 72, 0
3, 6838, Note_on_c, 1, 65, 0
3, 6840, Note_on_c, 1, 60, 79
3, 6840, Note_on_c, 1, 69, 79
3, 6850, Note_on_c, 1, 60, 0
3, 6852, Note_on_c, 1, 65, 79
3, 6860, Note_on_c, 1, 69, 0
3, 6862, Note_on_c, 1, 65, 0
3, 6864, Note_on_c, 1, 60, 79
3, 6864, Note_on_c, 1, 72, 79
3, 6874, Note_on_c, 1, 60, 0
3, 6876, Note_on_c, 1, 65, 79
3, 6884, Note_on_c, 1, 72, 0
3, 6886, Note_on_c, 1, 65, 0
3, 6888, Note_on_c, 1, 60, 79
3, 6888, Note_on_c, 1, 69, 79
3, 6898, Note_on_c, 1, 60, 0
3, 6900, Note_on_c, 1, 65, 79
3, 6908, Note_on_c, 1, 69, 0
3, 6910, Note_on_c, 1, 65, 0
3, 6912, Note_on_c, 1, 58, 79
3, 6912, Note_on_c, 1, 74, 79
3, 6922, Note_on_c, 1, 58, 0
3, 6924, Note_on_c, 1, 62, 79
3, 6932, Note_on_c, 1, 74, 0
3, 6934, Note_on_c, 1, 62, 0
3, 6936, Note_on_c, 1, 58, 79
3, 6936, Note_on_c, 1, 65, 79
3, 6946, Note_on_c, 1, 58, 0
3, 6948, Note_on_c, 1, 62, 79
3, 6956, Note_on_c, 1, 65, 0
3, 6958, Note_on_c, 1, 62, 0
3, 6960, Note_on_c, 1, 58, 79
3, 6960, Note_on_c, 1, 74, 79
3, 6970, Note_on_c, 1, 58, 0
3, 6972, Note_on_c, 1, 62, 79
3, 6980, Note_on_c, 1, 74, 0
3, 6982, Note_on_c, 1, 62, 0
3, 6984, Note_on_c, 1, 58, 79
3, 6984, Note_on_c, 1, 65, 79
3, 6994, Note_on_c, 1, 58, 0
3, 6996, Note_on_c, 1, 62, 79
3, 7004, Note_on_c, 1, 65, 0
3, 7006, Note_on_c, 1, 62, 0
3, 7008, Note_on_c, 1, 58, 79
3, 7008, Note_on_c, 1, 70, 79
3, 7018, Note_on_c, 1, 58, 0
3, 7020, Note_on_c, 1, 64, 79
3, 7028, Note_on_c, 1, 70, 0
3, 7030, Note_on_c, 1, 64, 0
3, 7032, Note_on_c, 1, 58, 79
3, 7032, Note_on_c, 1, 67, 79
3, 7042, Note_on_c, 1, 58, 0
3, 7044, Note_on_c, 1, 64, 79
3, 7052, Note_on_c, 1, 67, 0
3, 7054, Note_on_c, 1, 64, 0
3, 7056, Note_on_c, 1, 58, 79
3, 7056, Note_on_c, 1, 70, 79
3, 7066, Note_on_c, 1, 58, 0
3, 7068, Note_on_c, 1, 64, 79
3, 7076, Note_on_c, 1, 70, 0
3, 7078, Note_on_c, 1, 64, 0
3, 7080, Note_on_c, 1, 58, 79
3, 7080, Note_on_c, 1, 67, 79
3, 7090, Note_on_c, 1, 58, 0
3, 7092, Note_on_c, 1, 64, 79
3, 7100, Note_on_c, 1, 67, 0
3, 7102, Note_on_c, 1, 64, 0
3, 7104, Note_on_c, 1, 57, 79
3, 7104, Note_on_c, 1, 73, 79
3, 7114, Note_on_c, 1, 57, 0
3, 7116, Note_on_c, 1, 61, 79
3, 7124, Note_on_c, 1, 73, 0
3, 7126, Note_on_c, 1, 61, 0
3, 7128, Note_on_c, 1, 57, 79
3, 7128, Note_on_c, 1, 64, 79
3, 7138, Note_on_c, 1, 57, 0
3, 7140, Note_on_c, 1, 61, 79
3, 7148, Note_on_c, 1, 64, 0
3, 7150, Note_on_c, 1, 61, 0
3, 7152, Note_on_c, 1, 57, 79
3, 7152, Note_on_c, 1, 73, 79
3, 7162, Note_on_c, 1, 57, 0
3, 7164, Note_on_c, 1, 61, 79
3, 7172, Note_on_c, 1, 73, 0
3, 7174, Note_on_c, 1, 61, 0
3, 7176, Note_on_c, 1, 57, 79
3, 7176, Note_on_c, 1, 64, 79
3, 7186, Note_on_c, 1, 57, 0
3, 7188, Note_on_c, 1, 61, 79
3, 7196, Note_on_c, 1, 64, 0
3, 7198, Note_on_c, 1, 61, 0
3, 7200, Note_on_c, 1, 53, 79
3, 7200, Note_on_c, 1, 69, 79
3, 7210, Note_on_c, 1, 53, 0
3, 7212, Note_on_c, 1, 62, 79
3, 7220, Note_on_c, 1, 69, 0
3, 7222, Note_on_c, 1, 62, 0
3, 7224, Note_on_c, 1, 53, 79
3, 7224, Note_on_c, 1, 65, 79
3, 7234, Note_on_c, 1, 53, 0
3, 7236, Note_on_c, 1, 62, 79
3, 7244, Note_on_c, 1, 65, 0
3, 7246, Note_on_c, 1, 62, 0
3, 7248, Note_on_c, 1, 53, 79
3, 7248, Note_on_c, 1, 69, 79
3, 7258, Note_on_c, 1, 53, 0
3, 7260, Note_on_c, 1, 62, 79
3, 7268, Note_on_c, 1, 69, 0
3, 7270, Note_on_c, 1, 62, 0
3, 7272, Note_on_c, 1, 53, 79
3, 7272, Note_on_c, 1, 65, 79
3, 7282, Note_on_c, 1, 53, 0
3, 7284, Note_on_c, 1, 62, 79
3, 7292, Note_on_c, 1, 65, 0
3, 7294, Note_on_c, 1, 62, 0
3, 7296, Note_on_c, 1, 52, 79
3, 7296, Note_on_c, 1, 67, 79
3, 7306, Note_on_c, 1, 52, 0
3, 7308, Note_on_c, 1, 58, 79
3, 7316, Note_on_c, 1, 67, 0
3, 7318, Note_on_c, 1, 58, 0
3, 7320, Note_on_c, 1, 52, 79
3, 7320, Note_on_c, 1, 61, 79
3, 7330, Note_on_c, 1, 52, 0
3, 7332, Note_on_c, 1, 58, 79
3, 7340, Note_on_c, 1, 61, 0
3, 7342, Note_on_c, 1, 58, 0
3, 7344, Note_on_c, 1, 52, 79
3, 7344, Note_on_c, 1, 67, 79
3, 7354, Note_on_c, 1, 52, 0
3, 7356, Note_on_c, 1, 58, 79
3, 7364, Note_on_c, 1, 67, 0
3, 7366, Note_on_c, 1, 58, 0
3, 7368, Note_on_c, 1, 52, 79
3, 7368, Note_on_c, 1, 61, 79
3, 7378, Note_on_c, 1, 52, 0
3, 7380, Note_on_c, 1, 58, 79
3, 7388, Note_on_c, 1, 61, 0
3, 7390, Note_on_c, 1, 58, 0
3, 7392, Note_on_c, 1, 50, 79
3, 7392, Note_on_c, 1, 65, 79
3, 7402, Note_on_c, 1, 50, 0
3, 7404, Note_on_c, 1, 57, 79
3, 7412, Note_on_c, 1, 65, 0
3, 7414, Note_on_c, 1, 57, 0
3, 7416, Note_on_c, 1, 50, 79
3, 7416, Note_on_c, 1, 62, 79
3, 7426, Note_on_c, 1, 50, 0
3, 7428, Note_on_c, 1, 57, 79
3, 7436, Note_on_c, 1, 62, 0
3, 7438, Note_on_c, 1, 57, 0
3, 7440, Note_on_c, 1, 50, 79
3, 7440, Note_on_c, 1, 65, 79
3, 7450, Note_on_c, 1, 50, 0
3, 7452, Note_on_c, 1, 57, 79
3, 7460, Note_on_c, 1, 65, 0
3, 7462, Note_on_c, 1, 57, 0
3, 7464, Note_on_c, 1, 50, 79
3, 7464, Note_on_c, 1, 62, 79
3, 7474, Note_on_c, 1, 50, 0
3, 7476, Note_on_c, 1, 57, 79
3, 7484, Note_on_c, 1, 62, 0
3, 7486, Note_on_c, 1, 57, 0
3, 7488, Note_on_c, 1, 52, 79
3, 7488, Note_on_c, 1, 64, 79
3, 7498, Note_on_c, 1, 52, 0
3, 7500, Note_on_c, 1, 55, 79
3, 7508, Note_on_c, 1, 64, 0
3, 7510, Note_on_c, 1, 55, 0
3, 7512, Note_on_c, 1, 52, 79
3, 7512, Note_on_c, 1, 58, 79
3, 7522, Note_on_c, 1, 52, 0
3, 7524, Note_on_c, 1, 55, 79
3, 7532, Note_on_c, 1, 58, 0
3, 7534, Note_on_c, 1, 55, 0
3, 7536, Note_on_c, 1, 52, 79
3, 7536, Note_on_c, 1, 64, 79
3, 7546, Note_on_c, 1, 52, 0
3, 7548, Note_on_c, 1, 55, 79
3, 7556, Note_on_c, 1, 64, 0
3, 7558, Note_on_c, 1, 55, 0
3, 7560, Note_on_c, 1, 52, 79
3, 7560, Note_on_c, 1, 58, 79
3, 7570, Note_on_c, 1, 52, 0
3, 7572, Note_on_c, 1, 55, 79
3, 7580, Note_on_c, 1, 58, 0
3, 7582, Note_on_c, 1, 55, 0
3, 7584, Note_on_c, 1, 53, 79
3, 7584, Note_on_c, 1, 57, 79
3, 7596, Note_on_c, 1, 81, 79
3, 7604, Note_on_c, 1, 53, 0
3, 7604, Note_on_c, 1, 57, 0
3, 7606, Note_on_c, 1, 81, 0
3, 7608, Note_on_c, 1, 57, 79
3, 7608, Note_on_c, 1, 52, 79
3, 7608, Note_on_c, 1, 79, 79
3, 7618, Note_on_c, 1, 79, 0
3, 7620, Note_on_c, 1, 81, 79
3, 7628, Note_on_c, 1, 52, 0
3, 7628, Note_on_c, 1, 57, 0
3, 7630, Note_on_c, 1, 81, 0
3, 7632, Note_on_c, 1, 57, 79
3, 7632, Note_on_c, 1, 50, 79
3, 7632, Note_on_c, 1, 77, 79
3, 7642, Note_on_c, 1, 77, 0
3, 7644, Note_on_c, 1, 81, 79
3, 7652, Note_on_c, 1, 50, 0
3, 7652, Note_on_c, 1, 57, 0
3, 7654, Note_on_c, 1, 81, 0
3, 7656, Note_on_c, 1, 57, 79
3, 7656, Note_on_c, 1, 55, 79
3, 7656, Note_on_c, 1, 76, 79
3, 7666, Note_on_c, 1, 76, 0
3, 7668, Note_on_c, 1, 81, 79
3, 7676, Note_on_c, 1, 55, 0
3, 7676, Note_on_c, 1, 57, 0
3, 7678, Note_on_c, 1, 81, 0
3, 7680, Note_on_c, 1, 57, 79
3, 7680, Note_on_c, 1, 53, 79
3, 7680, Note_on_c, 1, 74, 79
3, 7690, Note_on_c, 1, 74, 0
3, 7692, Note_on_c, 1, 81, 79
3, 7700, Note_on_c, 1, 53, 0
3, 7700, Note_on_c, 1, 57, 0
3, 7702, Note_on_c, 1, 81, 0
3, 7704, Note_on_c, 1, 57, 79
3, 7704, Note_on_c, 1, 52, 79
3, 7704, Note_on_c, 1, 73, 79
3, 7714, Note_on_c, 1, 73, 0
3, 7716, Note_on_c, 1, 81, 79
3, 7724, Note_on_c, 1, 52, 0
3, 7724, Note_on_c, 1, 57, 0
3, 7726, Note_on_c, 1, 81, 0
3, 7728, Note_on_c, 1, 57, 79
3, 7728, Note_on_c, 1, 53, 79
3, 7728, Note_on_c, 1, 74, 79
3, 7738, Note_on_c, 1, 74, 0
3, 7740, Note_on_c, 1, 81, 79
3, 7748, Note_on_c, 1, 53, 0
3, 7748, Note_on_c, 1, 57, 0
3, 7750, Note_on_c, 1, 81, 0
3, 7752, Note_on_c, 1, 57, 79
3, 7752, Note_on_c, 1, 49, 79
3, 7752, Note_on_c, 1, 76, 79
3, 7762, Note_on_c, 1, 76, 0
3, 7764, Note_on_c, 1, 81, 79
3, 7772, Note_on_c, 1, 49, 0
3, 7772, Note_on_c, 1, 57, 0
3, 7774, Note_on_c, 1, 81, 0
3, 7776, Note_on_c, 1, 57, 79
3, 7776, Note_on_c, 1, 50, 79
3, 7776, Note_on_c, 1, 77, 79
3, 7786, Note_on_c, 1, 77, 0
3, 7788, Note_on_c, 1, 81, 79
3, 7796, Note_on_c, 1, 50, 0
3, 7796, Note_on_c, 1, 57, 0
3, 7798, Note_on_c, 1, 81, 0
3, 7800, Note_on_c, 1, 57, 79
3, 7800, Note_on_c, 1, 49, 79
3, 7800, Note_on_c, 1, 69, 79
3, 7810, Note_on_c, 1, 69, 0
3, 7812, Note_on_c, 1, 81, 79
3, 7820, Note_on_c, 1, 49, 0
3, 7820, Note_on_c, 1, 57, 0
3, 7822, Note_on_c, 1, 81, 0
3, 7824, Note_on_c, 1, 57, 79
3, 7824, Note_on_c, 1, 50, 79
3, 7824, Note_on_c, 1, 71, 79
3, 7834, Note_on_c, 1, 71, 0
3, 7836, Note_on_c, 1, 81, 79
3, 7844, Note_on_c, 1, 50, 0
3, 7844, Note_on_c, 1, 57, 0
3, 7846, Note_on_c, 1, 81, 0
3, 7848, Note_on_c, 1, 57, 79
3, 7848, Note_on_c, 1, 52, 79
3, 7848, Note_on_c, 1, 73, 79
3, 7858, Note_on_c, 1, 73, 0
3, 7860, Note_on_c, 1, 81, 79
3, 7868, Note_on_c, 1, 52, 0
3, 7868, Note_on_c, 1, 57, 0
3, 7870, Note_on_c, 1, 81, 0
3, 7872, Note_on_c, 1, 57, 79
3, 7872, Note_on_c, 1, 53, 79
3, 7872, Note_on_c, 1, 74, 79
3, 7882, Note_on_c, 1, 74, 0
3, 7884, Note_on_c, 1, 81, 79
3, 7892, Note_on_c, 1, 53, 0
3, 7892, Note_on_c, 1, 57, 0
3, 7894, Note_on_c, 1, 81, 0
3, 7896, Note_on_c, 1, 57, 79
3, 7896, Note_on_c, 1, 52, 79
3, 7896, Note_on_c, 1, 73, 79
3, 7906, Note_on_c, 1, 73, 0
3, 7908, Note_on_c, 1, 81, 79
3, 7916, Note_on_c, 1, 52, 0
3, 7916, Note_on_c, 1, 57, 0
3, 7918, Note_on_c, 1, 81, 0
3, 7920, Note_on_c, 1, 57, 79
3, 7920, Note_on_c, 1, 53, 79
3, 7920, Note_on_c, 1, 74, 79
3, 7930, Note_on_c, 1, 74, 0
3, 7932, Note_on_c, 1, 81, 79
3, 7940, Note_on_c, 1, 53, 0
3, 7940, Note_on_c, 1, 57, 0
3, 7942, Note_on_c, 1, 81, 0
3, 7944, Note_on_c, 1, 57, 79
3, 7944, Note_on_c, 1, 49, 79
3, 7944, Note_on_c, 1, 76, 79
3, 7954, Note_on_c, 1, 76, 0
3, 7956, Note_on_c, 1, 81, 79
3, 7964, Note_on_c, 1, 49, 0
3, 7964, Note_on_c, 1, 57, 0
3, 7966, Note_on_c, 1, 81, 0
3, 7968, Note_on_c, 1, 57, 79
3, 7968, Note_on_c, 1, 50, 79
3, 7968, Note_on_c, 1, 77, 79
3, 7978, Note_on_c, 1, 77, 0
3, 7980, Note_on_c, 1, 81, 79
3, 7990, Note_on_c, 1, 81, 0
3, 7992, Note_on_c, 1, 76, 79
3, 8002, Note_on_c, 1, 76, 0
3, 8004, Note_on_c, 1, 81, 79
3, 8008, Note_on_c, 1, 50, 0
3, 8008, Note_on_c, 1, 57, 0
3, 8014, Note_on_c, 1, 81, 0
3, 8016, Note_on_c, 1, 62, 79
3, 8016, Note_on_c, 1, 53, 79
3, 8016, Note_on_c, 1, 74, 79
3, 8026, Note_on_c, 1, 74, 0
3, 8028, Note_on_c, 1, 81, 79
3, 8038, Note_on_c, 1, 81, 0
3, 8040, Note_on_c, 1, 72, 79
3, 8050, Note_on_c, 1, 72, 0
3, 8052, Note_on_c, 1, 81, 79
3, 8056, Note_on_c, 1, 53, 0
3, 8056, Note_on_c, 1, 62, 0
3, 8062, Note_on_c, 1, 81, 0
3, 8064, Note_on_c, 1, 55, 79
3, 8064, Note_on_c, 1, 62, 79
3, 8064, Note_on_c, 1, 70, 79
3, 8074, Note_on_c, 1, 70, 0
3, 8076, Note_on_c, 1, 81, 79
3, 8086, Note_on_c, 1, 81, 0
3, 8088, Note_on_c, 1, 72, 79
3, 8098, Note_on_c, 1, 72, 0
3, 8100, Note_on_c, 1, 81, 79
3, 8104, Note_on_c, 1, 55, 0
3, 8104, Note_on_c, 1, 62, 0
3, 8110, Note_on_c, 1, 81, 0
3, 8112, Note_on_c, 1, 74, 79
3, 8122, Note_on_c, 1, 74, 0
3, 8124, Note_on_c, 1, 79, 79
3, 8134, Note_on_c, 1, 79, 0
3, 8136, Note_on_c, 1, 70, 79
3, 8146, Note_on_c, 1, 70, 0
3, 8148, Note_on_c, 1, 79, 79
3, 8158, Note_on_c, 1, 79, 0
3, 8160, Note_on_c, 1, 60, 79
3, 8160, Note_on_c, 1, 48, 79
3, 8160, Note_on_c, 1, 76, 79
3, 8170, Note_on_c, 1, 76, 0
3, 8172, Note_on_c, 1, 79, 79
3, 8182, Note_on_c, 1, 79, 0
3, 8184, Note_on_c, 1, 74, 79
3, 8194, Note_on_c, 1, 74, 0
3, 8196, Note_on_c, 1, 79, 79
3, 8200, Note_on_c, 1, 48, 0
3, 8200, Note_on_c, 1, 60, 0
3, 8206, Note_on_c, 1, 79, 0
3, 8208, Note_on_c, 1, 60, 79
3, 8208, Note_on_c, 1, 52, 79
3, 8208, Note_on_c, 1, 72, 79
3, 8218, Note_on_c, 1, 72, 0
3, 8220, Note_on_c, 1, 79, 79
3, 8230, Note_on_c, 1, 79, 0
3, 8232, Note_on_c, 1, 70, 79
3, 8242, Note_on_c, 1, 70, 0
3, 8244, Note_on_c, 1, 79, 79
3, 8248, Note_on_c, 1, 52, 0
3, 8248, Note_on_c, 1, 60, 0
3, 8254, Note_on_c, 1, 79, 0
3, 8256, Note_on_c, 1, 60, 79
3, 8256, Note_on_c, 1, 53, 79
3, 8256, Note_on_c, 1, 69, 79
3, 8266, Note_on_c, 1, 69, 0
3, 8268, Note_on_c, 1, 79, 79
3, 8278, Note_on_c, 1, 79, 0
3, 8280, Note_on_c, 1, 70, 79
3, 8290, Note_on_c, 1, 70, 0
3, 8292, Note_on_c, 1, 79, 79
3, 8296, Note_on_c, 1, 53, 0
3, 8296, Note_on_c, 1, 60, 0
3, 8302, Note_on_c, 1, 79, 0
3, 8304, Note_on_c, 1, 72, 79
3, 8314, Note_on_c, 1, 72, 0
3, 8316, Note_on_c, 1, 77, 79
3, 8326, Note_on_c, 1, 77, 0
3, 8328, Note_on_c, 1, 69, 79
3, 8338, Note_on_c, 1, 69, 0
3, 8340, Note_on_c, 1, 77, 79
3, 8350, Note_on_c, 1, 77, 0
3, 8352, Note_on_c, 1, 58, 79
3, 8352, Note_on_c, 1, 46, 79
3, 8352, Note_on_c, 1, 74, 79
3, 8362, Note_on_c, 1, 74, 0
3, 8364, Note_on_c, 1, 77, 79
3, 8374, Note_on_c, 1, 77, 0
3, 8376, Note_on_c, 1, 72, 79
3, 8386, Note_on_c, 1, 72, 0
3, 8388, Note_on_c, 1, 77, 79
3, 8392, Note_on_c, 1, 46, 0
3, 8392, Note_on_c, 1, 58, 0
3, 8398, Note_on_c, 1, 77, 0
3, 8400, Note_on_c, 1, 50, 79
3, 8400, Note_on_c, 1, 58, 79
3, 8400, Note_on_c, 1, 70, 79
3, 8410, Note_on_c, 1, 70, 0
3, 8412, Note_on_c, 1, 77, 79
3, 8422, Note_on_c, 1, 77, 0
3, 8424, Note_on_c, 1, 69, 79
3, 8434, Note_on_c, 1, 69, 0
3, 8436, Note_on_c, 1, 77, 79
3, 8440, Note_on_c, 1, 50, 0
3, 8440, Note_on_c, 1, 58, 0
3, 8446, Note_on_c, 1, 77, 0
3, 8448, Note_on_c, 1, 52, 79
3, 8448, Note_on_c, 1, 58, 79
3, 8448, Note_on_c, 1, 67, 79
3, 8458, Note_on_c, 1, 67, 0
3, 8460, Note_on_c, 1, 77, 79
3, 8470, Note_on_c, 1, 77, 0
3, 8472, Note_on_c, 1, 69, 79
3, 8482, Note_on_c, 1, 69, 0
3, 8484, Note_on_c, 1, 77, 79
3, 8488, Note_on_c, 1, 52, 0
3, 8488, Note_on_c, 1, 58, 0
3, 8494, Note_on_c, 1, 77, 0
3, 8496, Note_on_c, 1, 70, 79
3, 8506, Note_on_c, 1, 70, 0
3, 8508, Note_on_c, 1, 76, 79
3, 8518, Note_on_c, 1, 76, 0
3, 8520, Note_on_c, 1, 67, 79
3, 8530, Note_on_c, 1, 67, 0
3, 8532, Note_on_c, 1, 76, 79
3, 8542, Note_on_c, 1, 76, 0
3, 8544, Note_on_c, 1, 57, 79
3, 8544, Note_on_c, 1, 45, 79
3, 8544, Note_on_c, 1, 73, 79
3, 8554, Note_on_c, 1, 73, 0
3, 8556, Note_on_c, 1, 76, 79
3, 8566, Note_on_c, 1, 76, 0
3, 8568, Note_on_c, 1, 70, 79
3, 8578, Note_on_c, 1, 70, 0
3, 8580, Note_on_c, 1, 76, 79
3, 8584, Note_on_c, 1, 45, 0
3, 8584, Note_on_c, 1, 57, 0
3, 8590, Note_on_c, 1, 76, 0
3, 8592, Note_on_c, 1, 49, 79
3, 8592, Note_on_c, 1, 57, 79
3, 8592, Note_on_c, 1, 69, 79
3, 8602, Note_on_c, 1, 69, 0
3, 8604, Note_on_c, 1, 76, 79
3, 8614, Note_on_c, 1, 76, 0
3, 8616, Note_on_c, 1, 67, 79
3, 8626, Note_on_c, 1, 67, 0
3, 8628, Note_on_c, 1, 76, 79
3, 8632, Note_on_c, 1, 49, 0
3, 8632, Note_on_c, 1, 57, 0
3, 8638, Note_on_c, 1, 76, 0
3, 8640, Note_on_c, 1, 50, 79
3, 8640, Note_on_c, 1, 57, 79
3, 8640, Note_on_c, 1, 65, 79
3, 8650, Note_on_c, 1, 65, 0
3, 8652, Note_on_c, 1, 76, 79
3, 8662, Note_on_c, 1, 76, 0
3, 8664, Note_on_c, 1, 67, 79
3, 8674, Note_on_c, 1, 67, 0
3, 8676, Note_on_c, 1, 76, 79
3, 8680, Note_on_c, 1, 50, 0
3, 8680, Note_on_c, 1, 57, 0
3, 8686, Note_on_c, 1, 76, 0
3, 8688, Note_on_c, 1, 69, 79
3, 8698, Note_on_c, 1, 69, 0
3, 8700, Note_on_c, 1, 74, 79
3, 8710, Note_on_c, 1, 74, 0
3, 8712, Note_on_c, 1, 62, 79
3, 8712, Note_on_c, 1, 53, 79
3, 8712, Note_on_c, 1, 65, 79
3, 8722, Note_on_c, 1, 65, 0
3, 8724, Note_on_c, 1, 74, 79
3, 8732, Note_on_c, 1, 53, 0
3, 8732, Note_on_c, 1, 62, 0
3, 8734, Note_on_c, 1, 74, 0
3, 8736, Note_on_c, 1, 61, 79
3, 8736, Note_on_c, 1, 58, 79
3, 8736, Note_on_c, 1, 64, 79
3, 8746, Note_on_c, 1, 64, 0
3, 8748, Note_on_c, 1, 76, 79
3, 8756, Note_on_c, 1, 58, 0
3, 8756, Note_on_c, 1, 61, 0
3, 8758, Note_on_c, 1, 76, 0
3, 8760, Note_on_c, 1, 61, 79
3, 8760, Note_on_c, 1, 58, 79
3, 8760, Note_on_c, 1, 64, 79
3, 8770, Note_on_c, 1, 64, 0
3, 8772, Note_on_c, 1, 76, 79
3, 8780, Note_on_c, 1, 58, 0
3, 8780, Note_on_c, 1, 61, 0
3, 8782, Note_on_c, 1, 76, 0
3, 8784, Note_on_c, 1, 62, 79
3, 8784, Note_on_c, 1, 57, 79
3, 8784, Note_on_c, 1, 65, 79
3, 8794, Note_on_c, 1, 65, 0
3, 8796, Note_on_c, 1, 74, 79
3, 8804, Note_on_c, 1, 57, 0
3, 8804, Note_on_c, 1, 62, 0
3, 8806, Note_on_c, 1, 74, 0
3, 8808, Note_on_c, 1, 57, 79
3, 8808, Note_on_c, 1, 62, 79
3, 8808, Note_on_c, 1, 65, 79
3, 8818, Note_on_c, 1, 65, 0
3, 8820, Note_on_c, 1, 74, 79
3, 8828, Note_on_c, 1, 57, 0
3, 8828, Note_on_c, 1, 62, 0
3, 8830, Note_on_c, 1, 74, 0
3, 8832, Note_on_c, 1, 64, 79
3, 8832, Note_on_c, 1, 55, 79
3, 8832, Note_on_c, 1, 70, 79
3, 8842, Note_on_c, 1, 70, 0
3, 8844, Note_on_c, 1, 73, 79
3, 8854, Note_on_c, 1, 73, 0
3, 8856, Note_on_c, 1, 70, 79
3, 8866, Note_on_c, 1, 70, 0
3, 8868, Note_on_c, 1, 73, 79
3, 8872, Note_on_c, 1, 55, 0
3, 8872, Note_on_c, 1, 64, 0
3, 8878, Note_on_c, 1, 73, 0
3, 8880, Note_on_c, 1, 69, 79
3, 8890, Note_on_c, 1, 69, 0
3, 8892, Note_on_c, 1, 74, 79
3, 8902, Note_on_c, 1, 74, 0
3, 8904, Note_on_c, 1, 62, 79
3, 8904, Note_on_c, 1, 57, 79
3, 8904, Note_on_c, 1, 65, 79
3, 8914, Note_on_c, 1, 65, 0
3, 8916, Note_on_c, 1, 74, 79
3, 8924, Note_on_c, 1, 57, 0
3, 8924, Note_on_c, 1, 62, 0
3, 8926, Note_on_c, 1, 74, 0
3, 8928, Note_on_c, 1, 61, 79
3, 8928, Note_on_c, 1, 58, 79
3, 8928, Note_on_c, 1, 64, 79
3, 8938, Note_on_c, 1, 64, 0
3, 8940, Note_on_c, 1, 76, 79
3, 8948, Note_on_c, 1, 58, 0
3, 8948, Note_on_c, 1, 61, 0
3, 8950, Note_on_c, 1, 76, 0
3, 8952, Note_on_c, 1, 58, 79
3, 8952, Note_on_c, 1, 61, 79
3, 8952, Note_on_c, 1, 64, 79
3, 8962, Note_on_c, 1, 64, 0
3, 8964, Note_on_c, 1, 76, 79
3, 8972, Note_on_c, 1, 58, 0
3, 8972, Note_on_c, 1, 61, 0
3, 8974, Note_on_c, 1, 76, 0
3, 8976, Note_on_c, 1, 57, 79
3, 8976, Note_on_c, 1, 62, 79
3, 8976, Note_on_c, 1, 65, 79
3, 8986, Note_on_c, 1, 65, 0
3, 8988, Note_on_c, 1, 74, 79
3, 8996, Note_on_c, 1, 57, 0
3, 8996, Note_on_c, 1, 62, 0
3, 8998, Note_on_c, 1, 74, 0
3, 9000, Note_on_c, 1, 57, 79
3, 9000, Note_on_c, 1, 62, 79
3, 9000, Note_on_c, 1, 65, 79
3, 9010, Note_on_c, 1, 65, 0
3, 9012, Note_on_c, 1, 74, 79
3, 9020, Note_on_c, 1, 57, 0
3, 9020, Note_on_c, 1, 62, 0
3, 9022, Note_on_c, 1, 74, 0
3, 9024, Note_on_c, 1, 56, 79
3, 9024, Note_on_c, 1, 64, 79
3, 9036, Note_on_c, 1, 74, 79
3, 9046, Note_on_c, 1, 74, 0
3, 9048, Note_on_c, 1, 73, 79
3, 9058, Note_on_c, 1, 73, 0
3, 9060, Note_on_c, 1, 74, 79
3, 9064, Note_on_c, 1, 56, 0
3, 9064, Note_on_c, 1, 64, 0
3, 9070, Note_on_c, 1, 74, 0
3, 9072, Note_on_c, 1, 71, 79
3, 9082, Note_on_c, 1, 71, 0
3, 9084, Note_on_c, 1, 74, 79
3, 9094, Note_on_c, 1, 74, 0
3, 9096, Note_on_c, 1, 73, 79
3, 9106, Note_on_c, 1, 73, 0
3, 9108, Note_on_c, 1, 71, 79
3, 9118, Note_on_c, 1, 71, 0
3, 9120, Note_on_c, 1, 73, 79
3, 9132, Note_on_c, 1, 69, 79
3, 9142, Note_on_c, 1, 69, 0
3, 9144, Note_on_c, 1, 67, 79
3, 9154, Note_on_c, 1, 67, 0
3, 9156, Note_on_c, 1, 69, 79
3, 9160, Note_on_c, 1, 73, 0
3, 9166, Note_on_c, 1, 69, 0
3, 9168, Note_on_c, 1, 64, 79
3, 9178, Note_on_c, 1, 64, 0
3, 9180, Note_on_c, 1, 67, 79
3, 9190, Note_on_c, 1, 67, 0
3, 9192, Note_on_c, 1, 65, 79
3, 9202, Note_on_c, 1, 65, 0
3, 9204, Note_on_c, 1, 64, 79
3, 9214, Note_on_c, 1, 64, 0
3, 9216, Note_on_c, 1, 65, 79
3, 9228, Note_on_c, 1, 74, 79
3, 9238, Note_on_c, 1, 74, 0
3, 9240, Note_on_c, 1, 73, 79
3, 9250, Note_on_c, 1, 73, 0
3, 9252, Note_on_c, 1, 74, 79
3, 9256, Note_on_c, 1, 65, 0
3, 9262, Note_on_c, 1, 74, 0
3, 9264, Note_on_c, 1, 62, 79
3, 9264, Note_on_c, 1, 77, 79
3, 9274, Note_on_c, 1, 77, 0
3, 9276, Note_on_c, 1, 74, 79
3, 9286, Note_on_c, 1, 74, 0
3, 9288, Note_on_c, 1, 73, 79
3, 9298, Note_on_c, 1, 73, 0
3, 9300, Note_on_c, 1, 71, 79
3, 9304, Note_on_c, 1, 62, 0
3, 9310, Note_on_c, 1, 71, 0
3, 9312, Note_on_c, 1, 57, 79
3, 9312, Note_on_c, 1, 73, 79
3, 9322, Note_on_c, 1, 57, 0
3, 9324, Note_on_c, 1, 69, 79
3, 9334, Note_on_c, 1, 69, 0
3, 9336, Note_on_c, 1, 67, 79
3, 9346, Note_on_c, 1, 67, 0
3, 9348, Note_on_c, 1, 69, 79
3, 9352, Note_on_c, 1, 73, 0
3, 9358, Note_on_c, 1, 69, 0
3, 9360, Note_on_c, 1, 61, 79
3, 9360, Note_on_c, 1, 76, 79
3, 9370, Note_on_c, 1, 61, 0
3, 9372, Note_on_c, 1, 67, 79
3, 9382, Note_on_c, 1, 67, 0
3, 9384, Note_on_c, 1, 65, 79
3, 9394, Note_on_c, 1, 65, 0
3, 9396, Note_on_c, 1, 64, 79
3, 9406, Note_on_c, 1, 64, 0
3, 9408, Note_on_c, 1, 65, 79
3, 9420, Note_on_c, 1, 62, 79
3, 9428, Note_on_c, 1, 76, 0
3, 9430, Note_on_c, 1, 62, 0
3, 9432, Note_on_c, 1, 61, 79
3, 9432, Note_on_c, 1, 74, 79
3, 9442, Note_on_c, 1, 61, 0
3, 9444, Note_on_c, 1, 62, 79
3, 9448, Note_on_c, 1, 65, 0
3, 9454, Note_on_c, 1, 62, 0
3, 9456, Note_on_c, 1, 57, 79
3, 9456, Note_on_c, 1, 64, 79
3, 9466, Note_on_c, 1, 57, 0
3, 9468, Note_on_c, 1, 57, 79
3, 9476, Note_on_c, 1, 74, 0
3, 9478, Note_on_c, 1, 57, 0
3, 9480, Note_on_c, 1, 55, 79
3, 9480, Note_on_c, 1, 73, 79
3, 9490, Note_on_c, 1, 55, 0
3, 9492, Note_on_c, 1, 57, 79
3, 9496, Note_on_c, 1, 64, 0
3, 9500, Note_on_c, 1, 73, 0
3, 9502, Note_on_c, 1, 57, 0
3, 9504, Note_on_c, 1, 54, 79
3, 9504, Note_on_c, 1, 62, 79
3, 9504, Note_on_c, 1, 72, 79
3, 9514, Note_on_c, 1, 54, 0
3, 9516, Note_on_c, 1, 62, 79
3, 9526, Note_on_c, 1, 62, 0
3, 9528, Note_on_c, 1, 61, 79
3, 9528, Note_on_c, 1, 69, 79
3, 9538, Note_on_c, 1, 61, 0
3, 9540, Note_on_c, 1, 62, 79
3, 9544, Note_on_c, 1, 72, 0
3, 9550, Note_on_c, 1, 62, 0
3, 9552, Note_on_c, 1, 55, 79
3, 9552, Note_on_c, 1, 70, 79
3, 9562, Note_on_c, 1, 55, 0
3, 9564, Note_on_c, 1, 65, 79
3, 9572, Note_on_c, 1, 69, 0
3, 9574, Note_on_c, 1, 65, 0
3, 9576, Note_on_c, 1, 63, 79
3, 9576, Note_on_c, 1, 67, 79
3, 9586, Note_on_c, 1, 63, 0
3, 9588, Note_on_c, 1, 62, 79
3, 9592, Note_on_c, 1, 70, 0
3, 9598, Note_on_c, 1, 62, 0
3, 9600, Note_on_c, 1, 61, 79
3, 9600, Note_on_c, 1, 69, 79
3, 9610, Note_on_c, 1, 61, 0
3, 9612, Note_on_c, 1, 64, 79
3, 9622, Note_on_c, 1, 64, 0
3, 9624, Note_on_c, 1, 57, 79
3, 9632, Note_on_c, 1, 67, 0
3, 9634, Note_on_c, 1, 57, 0
3, 9636, Note_on_c, 1, 61, 79
3, 9640, Note_on_c, 1, 69, 0
3, 9646, Note_on_c, 1, 61, 0
3, 9648, Note_on_c, 1, 66, 79
3, 9648, Note_on_c, 1, 50, 79
3, 9648, Note_on_c, 1, 69, 79
3, 9658, Note_on_c, 1, 50, 0
3, 9660, Note_on_c, 1, 63, 79
3, 9670, Note_on_c, 1, 63, 0
3, 9672, Note_on_c, 1, 62, 79
3, 9682, Note_on_c, 1, 62, 0
3, 9684, Note_on_c, 1, 60, 79
3, 9688, Note_on_c, 1, 66, 0
3, 9688, Note_on_c, 1, 69, 0
3, 9694, Note_on_c, 1, 60, 0
3, 9696, Note_on_c, 1, 65, 79
3, 9696, Note_on_c, 1, 59, 79
3, 9696, Note_on_c, 1, 67, 79
3, 9706, Note_on_c, 1, 59, 0
3, 9708, Note_on_c, 1, 62, 79
3, 9718, Note_on_c, 1, 62, 0
3, 9720, Note_on_c, 1, 55, 79
3, 9730, Note_on_c, 1, 55, 0
3, 9732, Note_on_c, 1, 59, 79
3, 9736, Note_on_c, 1, 65, 0
3, 9736, Note_on_c, 1, 67, 0
3, 9742, Note_on_c, 1, 59, 0
3, 9744, Note_on_c, 1, 63, 79
3, 9744, Note_on_c, 1, 48, 79
3, 9744, Note_on_c, 1, 67, 79
3, 9754, Note_on_c, 1, 48, 0
3, 9756, Note_on_c, 1, 62, 79
3, 9766, Note_on_c, 1, 62, 0
3, 9768, Note_on_c, 1, 60, 79
3, 9778, Note_on_c, 1, 60, 0
3, 9780, Note_on_c, 1, 58, 79
3, 9784, Note_on_c, 1, 67, 0
3, 9790, Note_on_c, 1, 58, 0
3, 9792, Note_on_c, 1, 57, 79
3, 9792, Note_on_c, 1, 66, 79
3, 9802, Note_on_c, 1, 57, 0
3, 9804, Note_on_c, 1, 60, 79
3, 9812, Note_on_c, 1, 63, 0
3, 9812, Note_on_c, 1, 66, 0
3, 9814, Note_on_c, 1, 60, 0
3, 9816, Note_on_c, 1, 62, 79
3, 9816, Note_on_c, 1, 54, 79
3, 9816, Note_on_c, 1, 69, 79
3, 9826, Note_on_c, 1, 54, 0
3, 9828, Note_on_c, 1, 57, 79
3, 9836, Note_on_c, 1, 62, 0
3, 9836, Note_on_c, 1, 69, 0
3, 9838, Note_on_c, 1, 57, 0
3, 9840, Note_on_c, 1, 50, 79
3, 9840, Note_on_c, 1, 66, 79
3, 9850, Note_on_c, 1, 50, 0
3, 9852, Note_on_c, 1, 60, 79
3, 9860, Note_on_c, 1, 66, 0
3, 9862, Note_on_c, 1, 60, 0
3, 9864, Note_on_c, 1, 72, 79
3, 9864, Note_on_c, 1, 58, 79
3, 9864, Note_on_c, 1, 75, 79
3, 9874, Note_on_c, 1, 58, 0
3, 9876, Note_on_c, 1, 57, 79
3, 9884, Note_on_c, 1, 75, 0
3, 9886, Note_on_c, 1, 57, 0
3, 9888, Note_on_c, 1, 58, 79
3, 9888, Note_on_c, 1, 74, 79
3, 9898, Note_on_c, 1, 58, 0
3, 9900, Note_on_c, 1, 69, 79
3, 9908, Note_on_c, 1, 72, 0
3, 9910, Note_on_c, 1, 69, 0
3, 9912, Note_on_c, 1, 67, 79
3, 9912, Note_on_c, 1, 70, 79
3, 9922, Note_on_c, 1, 67, 0
3, 9922, Note_on_c, 1, 70, 0
3, 9924, Note_on_c, 1, 69, 79
3, 9928, Note_on_c, 1, 74, 0
3, 9934, Note_on_c, 1, 69, 0
3, 9936, Note_on_c, 1, 66, 79
3, 9936, Note_on_c, 1, 67, 79
3, 9936, Note_on_c, 1, 70, 79
3, 9946, Note_on_c, 1, 66, 0
3, 9946, Note_on_c, 1, 67, 0
3, 9948, Note_on_c, 1, 58, 79
3, 9956, Note_on_c, 1, 70, 0
3, 9958, Note_on_c, 1, 58, 0
3, 9960, Note_on_c, 1, 70, 79
3, 9960, Note_on_c, 1, 57, 79
3, 9960, Note_on_c, 1, 79, 79
3, 9970, Note_on_c, 1, 57, 0
3, 9972, Note_on_c, 1, 55, 79
3, 9980, Note_on_c, 1, 70, 0
3, 9982, Note_on_c, 1, 55, 0
3, 9984, Note_on_c, 1, 62, 79
3, 9984, Note_on_c, 1, 69, 79
3, 9996, Note_on_c, 1, 50, 79
3, 10004, Note_on_c, 1, 79, 0
3, 10006, Note_on_c, 1, 50, 0
3, 10008, Note_on_c, 1, 48, 79
3, 10008, Note_on_c, 1, 78, 79
3, 10018, Note_on_c, 1, 48, 0
3, 10020, Note_on_c, 1, 50, 79
3, 10024, Note_on_c, 1, 62, 0
3, 10024, Note_on_c, 1, 69, 0
3, 10028, Note_on_c, 1, 78, 0
3, 10030, Note_on_c, 1, 50, 0
3, 10032, Note_on_c, 1, 46, 79
3, 10032, Note_on_c, 1, 74, 79
3, 10032, Note_on_c, 1, 79, 79
3, 10042, Note_on_c, 1, 46, 0
3, 10044, Note_on_c, 1, 50, 79
3, 10052, Note_on_c, 1, 74, 0
3, 10054, Note_on_c, 1, 50, 0
3, 10056, Note_on_c, 1, 45, 79
3, 10056, Note_on_c, 1, 62, 79
3, 10056, Note_on_c, 1, 72, 79
3, 10066, Note_on_c, 1, 45, 0
3, 10068, Note_on_c, 1, 50, 79
3, 10072, Note_on_c, 1, 79, 0
3, 10076, Note_on_c, 1, 72, 0
3, 10076, Note_on_c, 1, 62, 0
3, 10078, Note_on_c, 1, 50, 0
3, 10080, Note_on_c, 1, 43, 79
3, 10080, Note_on_c, 1, 70, 79
3, 10080, Note_on_c, 1, 62, 79
3, 10080, Note_on_c, 1, 70, 79
3, 10090, Note_on_c, 1, 43, 0
3, 10092, Note_on_c, 1, 50, 79
3, 10100, Note_on_c, 1, 62, 0
3, 10100, Note_on_c, 1, 70, 0
3, 10102, Note_on_c, 1, 50, 0
3, 10104, Note_on_c, 1, 42, 79
3, 10104, Note_on_c, 1, 69, 79
3, 10104, Note_on_c, 1, 62, 79
3, 10104, Note_on_c, 1, 74, 79
3, 10114, Note_on_c, 1, 42, 0
3, 10116, Note_on_c, 1, 50, 79
3, 10124, Note_on_c, 1, 62, 0
3, 10124, Note_on_c, 1, 69, 0
3, 10124, Note_on_c, 1, 74, 0
3, 10126, Note_on_c, 1, 50, 0
3, 10128, Note_on_c, 1, 43, 79
3, 10128, Note_on_c, 1, 70, 79
3, 10128, Note_on_c, 1, 62, 79
3, 10128, Note_on_c, 1, 74, 79
3, 10138, Note_on_c, 1, 43, 0
3, 10140, Note_on_c, 1, 50, 79
3, 10148, Note_on_c, 1, 62, 0
3, 10148, Note_on_c, 1, 70, 0
3, 10148, Note_on_c, 1, 74, 0
3, 10150, Note_on_c, 1, 50, 0
3, 10152, Note_on_c, 1, 45, 79
3, 10152, Note_on_c, 1, 66, 79
3, 10152, Note_on_c, 1, 60, 79
3, 10152, Note_on_c, 1, 74, 79
3, 10162, Note_on_c, 1, 45, 0
3, 10164, Note_on_c, 1, 50, 79
3, 10172, Note_on_c, 1, 60, 0
3, 10172, Note_on_c, 1, 66, 0
3, 10172, Note_on_c, 1, 74, 0
3, 10174, Note_on_c, 1, 50, 0
3, 10176, Note_on_c, 1, 46, 79
3, 10176, Note_on_c, 1, 58, 79
3, 10176, Note_on_c, 1, 67, 79
3, 10176, Note_on_c, 1, 74, 79
3, 10186, Note_on_c, 1, 46, 0
3, 10188, Note_on_c, 1, 50, 79
3, 10196, Note_on_c, 1, 58, 0
3, 10196, Note_on_c, 1, 67, 0
3, 10196, Note_on_c, 1, 74, 0
3, 10198, Note_on_c, 1, 50, 0
3, 10200, Note_on_c, 1, 38, 79
3, 10200, Note_on_c, 1, 62, 79
3, 10200, Note_on_c, 1, 66, 79
3, 10200, Note_on_c, 1, 74, 79
3, 10210, Note_on_c, 1, 38, 0
3, 10212, Note_on_c, 1, 50, 79
3, 10220, Note_on_c, 1, 62, 0
3, 10220, Note_on_c, 1, 66, 0
3, 10220, Note_on_c, 1, 74, 0
3, 10222, Note_on_c, 1, 50, 0
3, 10224, Note_on_c, 1, 40, 79
3, 10224, Note_on_c, 1, 62, 79
3, 10224, Note_on_c, 1, 67, 79
3, 10224, Note_on_c, 1, 74, 79
3, 10234, Note_on_c, 1, 40, 0
3, 10236, Note_on_c, 1, 50, 79
3, 10244, Note_on_c, 1, 62, 0
3, 10244, Note_on_c, 1, 67, 0
3, 10244, Note_on_c, 1, 74, 0
3, 10246, Note_on_c, 1, 50, 0
3, 10248, Note_on_c, 1, 42, 79
3, 10248, Note_on_c, 1, 60, 79
3, 10248, Note_on_c, 1, 69, 79
3, 10248, Note_on_c, 1, 74, 79
3, 10258, Note_on_c, 1, 42, 0
3, 10260, Note_on_c, 1, 50, 79
3, 10268, Note_on_c, 1, 60, 0
3, 10268, Note_on_c, 1, 69, 0
3, 10268, Note_on_c, 1, 74, 0
3, 10270, Note_on_c, 1, 50, 0
3, 10272, Note_on_c, 1, 43, 79
3, 10272, Note_on_c, 1, 58, 79
3, 10272, Note_on_c, 1, 70, 79
3, 10272, Note_on_c, 1, 74, 79
3, 10282, Note_on_c, 1, 43, 0
3, 10284, Note_on_c, 1, 50, 79
3, 10292, Note_on_c, 1, 58, 0
3, 10292, Note_on_c, 1, 70, 0
3, 10292, Note_on_c, 1, 74, 0
3, 10294, Note_on_c, 1, 50, 0
3, 10296, Note_on_c, 1, 42, 79
3, 10296, Note_on_c, 1, 62, 79
3, 10296, Note_on_c, 1, 69, 79
3, 10296, Note_on_c, 1, 74, 79
3, 10306, Note_on_c, 1, 42, 0
3, 10308, Note_on_c, 1, 50, 79
3, 10316, Note_on_c, 1, 62, 0
3, 10316, Note_on_c, 1, 69, 0
3, 10316, Note_on_c, 1, 74, 0
3, 10318, Note_on_c, 1, 50, 0
3, 10320, Note_on_c, 1, 43, 79
3, 10320, Note_on_c, 1, 62, 79
3, 10320, Note_on_c, 1, 70, 79
3, 10320, Note_on_c, 1, 74, 79
3, 10330, Note_on_c, 1, 43, 0
3, 10332, Note_on_c, 1, 50, 79
3, 10340, Note_on_c, 1, 62, 0
3, 10340, Note_on_c, 1, 70, 0
3, 10340, Note_on_c, 1, 74, 0
3, 10342, Note_on_c, 1, 50, 0
3, 10344, Note_on_c, 1, 45, 79
3, 10344, Note_on_c, 1, 60, 79
3, 10344, Note_on_c, 1, 66, 79
3, 10344, Note_on_c, 1, 74, 79
3, 10354, Note_on_c, 1, 45, 0
3, 10356, Note_on_c, 1, 50, 79
3, 10364, Note_on_c, 1, 60, 0
3, 10364, Note_on_c, 1, 66, 0
3, 10364, Note_on_c, 1, 74, 0
3, 10366, Note_on_c, 1, 50, 0
3, 10368, Note_on_c, 1, 46, 79
3, 10368, Note_on_c, 1, 58, 79
3, 10368, Note_on_c, 1, 67, 79
3, 10368, Note_on_c, 1, 74, 79
3, 10378, Note_on_c, 1, 67, 0
3, 10378, Note_on_c, 1, 74, 0
3, 10380, Note_on_c, 1, 70, 79
3, 10380, Note_on_c, 1, 79, 79
3, 10390, Note_on_c, 1, 70, 0
3, 10390, Note_on_c, 1, 79, 0
3, 10392, Note_on_c, 1, 69, 79
3, 10392, Note_on_c, 1, 77, 79
3, 10402, Note_on_c, 1, 69, 0
3, 10402, Note_on_c, 1, 77, 0
3, 10404, Note_on_c, 1, 70, 79
3, 10404, Note_on_c, 1, 79, 79
3, 10408, Note_on_c, 1, 46, 0
3, 10408, Note_on_c, 1, 58, 0
3, 10414, Note_on_c, 1, 70, 0
3, 10414, Note_on_c, 1, 79, 0
3, 10416, Note_on_c, 1, 67, 79
3, 10416, Note_on_c, 1, 76, 79
3, 10426, Note_on_c, 1, 67, 0
3, 10426, Note_on_c, 1, 76, 0
3, 10428, Note_on_c, 1, 69, 79
3, 10428, Note_on_c, 1, 77, 79
3, 10438, Note_on_c, 1, 69, 0
3, 10438, Note_on_c, 1, 77, 0
3, 10440, Note_on_c, 1, 47, 79
3, 10440, Note_on_c, 1, 65, 79
3, 10440, Note_on_c, 1, 74, 79
3, 10450, Note_on_c, 1, 65, 0
3, 10450, Note_on_c, 1, 74, 0
3, 10452, Note_on_c, 1, 67, 79
3, 10452, Note_on_c, 1, 76, 79
3, 10460, Note_on_c, 1, 47, 0
3, 10462, Note_on_c, 1, 67, 0
3, 10462, Note_on_c, 1, 76, 0
3, 10464, Note_on_c, 1, 48, 79
3, 10464, Note_on_c, 1, 64, 79
3, 10464, Note_on_c, 1, 72, 79
3, 10474, Note_on_c, 1, 64, 0
3, 10474, Note_on_c, 1, 72, 0
3, 10476, Note_on_c, 1, 72, 79
3, 10476, Note_on_c, 1, 81, 79
3, 10486, Note_on_c, 1, 72, 0
3, 10486, Note_on_c, 1, 81, 0
3, 10488, Note_on_c, 1, 70, 79
3, 10488, Note_on_c, 1, 79, 79
3, 10498, Note_on_c, 1, 70, 0
3, 10498, Note_on_c, 1, 79, 0
3, 10500, Note_on_c, 1, 72, 79
3, 10500, Note_on_c, 1, 81, 79
3, 10504, Note_on_c, 1, 48, 0
3, 10510, Note_on_c, 1, 72, 0
3, 10510, Note_on_c, 1, 81, 0
3, 10512, Note_on_c, 1, 69, 79
3, 10512, Note_on_c, 1, 77, 79
3, 10522, Note_on_c, 1, 69, 0
3, 10522, Note_on_c, 1, 77, 0
3, 10524, Note_on_c, 1, 70, 79
3, 10524, Note_on_c, 1, 79, 79
3, 10534, Note_on_c, 1, 70, 0
3, 10534, Note_on_c, 1, 79, 0
3, 10536, Note_on_c, 1, 49, 79
3, 10536, Note_on_c, 1, 67, 79
3, 10536, Note_on_c, 1, 76, 79
3, 10546, Note_on_c, 1, 67, 0
3, 10546, Note_on_c, 1, 76, 0
3, 10548, Note_on_c, 1, 69, 79
3, 10548, Note_on_c, 1, 77, 79
3, 10556, Note_on_c, 1, 49, 0
3, 10558, Note_on_c, 1, 69, 0
3, 10558, Note_on_c, 1, 77, 0
3, 10560, Note_on_c, 1, 65, 79
3, 10560, Note_on_c, 1, 50, 79
3, 10560, Note_on_c, 1, 74, 79
3, 10570, Note_on_c, 1, 65, 0
3, 10570, Note_on_c, 1, 74, 0
3, 10572, Note_on_c, 1, 74, 79
3, 10572, Note_on_c, 1, 82, 79
3, 10582, Note_on_c, 1, 74, 0
3, 10582, Note_on_c, 1, 82, 0
3, 10584, Note_on_c, 1, 72, 79
3, 10584, Note_on_c, 1, 81, 79
3, 10594, Note_on_c, 1, 72, 0
3, 10594, Note_on_c, 1, 81, 0
3, 10596, Note_on_c, 1, 74, 79
3, 10596, Note_on_c, 1, 82, 79
3, 10600, Note_on_c, 1, 50, 0
3, 10606, Note_on_c, 1, 74, 0
3, 10606, Note_on_c, 1, 82, 0
3, 10608, Note_on_c, 1, 70, 79
3, 10608, Note_on_c, 1, 79, 79
3, 10618, Note_on_c, 1, 70, 0
3, 10618, Note_on_c, 1, 79, 0
3, 10620, Note_on_c, 1, 72, 79
3, 10620, Note_on_c, 1, 81, 79
3, 10630, Note_on_c, 1, 72, 0
3, 10630, Note_on_c, 1, 81, 0
3, 10632, Note_on_c, 1, 69, 79
3, 10632, Note_on_c, 1, 50, 79
3, 10632, Note_on_c, 1, 77, 79
3, 10642, Note_on_c, 1, 69, 0
3, 10642, Note_on_c, 1, 77, 0
3, 10644, Note_on_c, 1, 70, 79
3, 10644, Note_on_c, 1, 79, 79
3, 10652, Note_on_c, 1, 50, 0
3, 10654, Note_on_c, 1, 70, 0
3, 10654, Note_on_c, 1, 79, 0
3, 10656, Note_on_c, 1, 67, 79
3, 10656, Note_on_c, 1, 52, 79
3, 10656, Note_on_c, 1, 76, 79
3, 10666, Note_on_c, 1, 67, 0
3, 10666, Note_on_c, 1, 76, 0
3, 10668, Note_on_c, 1, 76, 79
3, 10668, Note_on_c, 1, 84, 79
3, 10678, Note_on_c, 1, 76, 0
3, 10678, Note_on_c, 1, 84, 0
3, 10680, Note_on_c, 1, 74, 79
3, 10680, Note_on_c, 1, 82, 79
3, 10690, Note_on_c, 1, 74, 0
3, 10690, Note_on_c, 1, 82, 0
3, 10692, Note_on_c, 1, 76, 79
3, 10692, Note_on_c, 1, 84, 79
3, 10696, Note_on_c, 1, 52, 0
3, 10702, Note_on_c, 1, 76, 0
3, 10702, Note_on_c, 1, 84, 0
3, 10704, Note_on_c, 1, 72, 79
3, 10704, Note_on_c, 1, 81, 79
3, 10714, Note_on_c, 1, 72, 0
3, 10714, Note_on_c, 1, 81, 0
3, 10716, Note_on_c, 1, 74, 79
3, 10716, Note_on_c, 1, 82, 79
3, 10726, Note_on_c, 1, 74, 0
3, 10726, Note_on_c, 1, 82, 0
3, 10728, Note_on_c, 1, 70, 79
3, 10728, Note_on_c, 1, 52, 79
3, 10728, Note_on_c, 1, 79, 79
3, 10738, Note_on_c, 1, 70, 0
3, 10738, Note_on_c, 1, 79, 0
3, 10740, Note_on_c, 1, 72, 79
3, 10740, Note_on_c, 1, 81, 79
3, 10748, Note_on_c, 1, 52, 0
3, 10750, Note_on_c, 1, 72, 0
3, 10750, Note_on_c, 1, 81, 0
3, 10752, Note_on_c, 1, 69, 79
3, 10752, Note_on_c, 1, 53, 79
3, 10752, Note_on_c, 1, 77, 79
3, 10762, Note_on_c, 1, 77, 0
3, 10764, Note_on_c, 1, 75, 79
3, 10772, Note_on_c, 1, 53, 0
3, 10772, Note_on_c, 1, 69, 0
3, 10774, Note_on_c, 1, 75, 0
3, 10776, Note_on_c, 1, 65, 79
3, 10776, Note_on_c, 1, 45, 79
3, 10776, Note_on_c, 1, 74, 79
3, 10786, Note_on_c, 1, 74, 0
3, 10788, Note_on_c, 1, 72, 79
3, 10796, Note_on_c, 1, 45, 0
3, 10796, Note_on_c, 1, 65, 0
3, 10798, Note_on_c, 1, 72, 0
3, 10800, Note_on_c, 1, 70, 79
3, 10800, Note_on_c, 1, 46, 79
3, 10800, Note_on_c, 1, 74, 79
3, 10810, Note_on_c, 1, 70, 0
3, 10810, Note_on_c, 1, 74, 0
3, 10812, Note_on_c, 1, 69, 79
3, 10812, Note_on_c, 1, 72, 79
3, 10820, Note_on_c, 1, 46, 0
3, 10822, Note_on_c, 1, 69, 0
3, 10822, Note_on_c, 1, 72, 0
3, 10824, Note_on_c, 1, 67, 79
3, 10824, Note_on_c, 1, 50, 79
3, 10824, Note_on_c, 1, 70, 79
3, 10834, Note_on_c, 1, 67, 0
3, 10834, Note_on_c, 1, 70, 0
3, 10836, Note_on_c, 1, 65, 79
3, 10836, Note_on_c, 1, 69, 79
3, 10844, Note_on_c, 1, 50, 0
3, 10846, Note_on_c, 1, 65, 0
3, 10846, Note_on_c, 1, 69, 0
3, 10848, Note_on_c, 1, 67, 79
3, 10848, Note_on_c, 1, 43, 79
3, 10848, Note_on_c, 1, 70, 79
3, 10858, Note_on_c, 1, 67, 0
3, 10858, Note_on_c, 1, 70, 0
3, 10860, Note_on_c, 1, 70, 79
3, 10860, Note_on_c, 1, 74, 79
3, 10870, Note_on_c, 1, 70, 0
3, 10870, Note_on_c, 1, 74, 0
3, 10872, Note_on_c, 1, 67, 79
3, 10872, Note_on_c, 1, 70, 79
3, 10882, Note_on_c, 1, 67, 0
3, 10882, Note_on_c, 1, 70, 0
3, 10884, Note_on_c, 1, 65, 79
3, 10884, Note_on_c, 1, 69, 79
3, 10888, Note_on_c, 1, 43, 0
3, 10894, Note_on_c, 1, 65, 0
3, 10894, Note_on_c, 1, 69, 0
3, 10896, Note_on_c, 1, 64, 79
3, 10896, Note_on_c, 1, 67, 79
3, 10906, Note_on_c, 1, 64, 0
3, 10906, Note_on_c, 1, 67, 0
3, 10908, Note_on_c, 1, 67, 79
3, 10908, Note_on_c, 1, 70, 79
3, 10918, Note_on_c, 1, 67, 0
3, 10918, Note_on_c, 1, 70, 0
3, 10920, Note_on_c, 1, 64, 79
3, 10920, Note_on_c, 1, 46, 79
3, 10920, Note_on_c, 1, 67, 79
3, 10930, Note_on_c, 1, 64, 0
3, 10930, Note_on_c, 1, 67, 0
3, 10932, Note_on_c, 1, 62, 79
3, 10932, Note_on_c, 1, 65, 79
3, 10942, Note_on_c, 1, 62, 0
3, 10942, Note_on_c, 1, 65, 0
3, 10944, Note_on_c, 1, 60, 79
3, 10944, Note_on_c, 1, 64, 79
3, 10954, Note_on_c, 1, 60, 0
3, 10954, Note_on_c, 1, 64, 0
3, 10956, Note_on_c, 1, 62, 79
3, 10956, Note_on_c, 1, 65, 79
3, 10964, Note_on_c, 1, 46, 0
3, 10966, Note_on_c, 1, 62, 0
3, 10966, Note_on_c, 1, 65, 0
3, 10968, Note_on_c, 1, 64, 79
3, 10968, Note_on_c, 1, 45, 79
3, 10968, Note_on_c, 1, 67, 79
3, 10978, Note_on_c, 1, 64, 0
3, 10978, Note_on_c, 1, 67, 0
3, 10980, Note_on_c, 1, 65, 79
3, 10980, Note_on_c, 1, 69, 79
3, 10988, Note_on_c, 1, 45, 0
3, 10990, Note_on_c, 1, 65, 0
3, 10990, Note_on_c, 1, 69, 0
3, 10992, Note_on_c, 1, 67, 79
3, 10992, Note_on_c, 1, 43, 79
3, 10992, Note_on_c, 1, 70, 79
3, 11002, Note_on_c, 1, 70, 0
3, 11004, Note_on_c, 1, 74, 79
3, 11012, Note_on_c, 1, 43, 0
3, 11012, Note_on_c, 1, 67, 0
3, 11014, Note_on_c, 1, 74, 0
3, 11016, Note_on_c, 1, 64, 79
3, 11016, Note_on_c, 1, 48, 79
3, 11016, Note_on_c, 1, 72, 79
3, 11026, Note_on_c, 1, 72, 0
3, 11028, Note_on_c, 1, 70, 79
3, 11036, Note_on_c, 1, 48, 0
3, 11036, Note_on_c, 1, 64, 0
3, 11038, Note_on_c, 1, 70, 0
3, 11040, Note_on_c, 1, 65, 79
3, 11040, Note_on_c, 1, 41, 79
3, 11040, Note_on_c, 1, 69, 79
3, 11052, Note_on_c, 1, 60, 79
3, 11062, Note_on_c, 1, 60, 0
3, 11064, Note_on_c, 1, 58, 79
3, 11074, Note_on_c, 1, 58, 0
3, 11076, Note_on_c, 1, 60, 79
3, 11080, Note_on_c, 1, 41, 0
3, 11080, Note_on_c, 1, 65, 0
3, 11080, Note_on_c, 1, 69, 0
3, 11086, Note_on_c, 1, 60, 0
3, 11088, Note_on_c, 1, 57, 79
3, 11088, Note_on_c, 1, 72, 79
3, 11098, Note_on_c, 1, 57, 0
3, 11100, Note_on_c, 1, 60, 79
3, 11108, Note_on_c, 1, 72, 0
3, 11110, Note_on_c, 1, 60, 0
3, 11112, Note_on_c, 1, 55, 79
3, 11112, Note_on_c, 1, 70, 79
3, 11122, Note_on_c, 1, 55, 0
3, 11124, Note_on_c, 1, 60, 79
3, 11132, Note_on_c, 1, 70, 0
3, 11134, Note_on_c, 1, 60, 0
3, 11136, Note_on_c, 1, 53, 79
3, 11136, Note_on_c, 1, 69, 79
3, 11146, Note_on_c, 1, 53, 0
3, 11148, Note_on_c, 1, 60, 79
3, 11156, Note_on_c, 1, 69, 0
3, 11158, Note_on_c, 1, 60, 0
3, 11160, Note_on_c, 1, 52, 79
3, 11160, Note_on_c, 1, 67, 79
3, 11170, Note_on_c, 1, 52, 0
3, 11172, Note_on_c, 1, 60, 79
3, 11180, Note_on_c, 1, 67, 0
3, 11182, Note_on_c, 1, 60, 0
3, 11184, Note_on_c, 1, 53, 79
3, 11184, Note_on_c, 1, 69, 79
3, 11194, Note_on_c, 1, 53, 0
3, 11196, Note_on_c, 1, 60, 79
3, 11204, Note_on_c, 1, 69, 0
3, 11206, Note_on_c, 1, 60, 0
3, 11208, Note_on_c, 1, 55, 79
3, 11208, Note_on_c, 1, 70, 79
3, 11218, Note_on_c, 1, 55, 0
3, 11220, Note_on_c, 1, 60, 79
3, 11228, Note_on_c, 1, 70, 0
3, 11230, Note_on_c, 1, 60, 0
3, 11232, Note_on_c, 1, 57, 79
3, 11232, Note_on_c, 1, 72, 79
3, 11242, Note_on_c, 1, 57, 0
3, 11244, Note_on_c, 1, 60, 79
3, 11252, Note_on_c, 1, 72, 0
3, 11254, Note_on_c, 1, 60, 0
3, 11256, Note_on_c, 1, 48, 79
3, 11256, Note_on_c, 1, 64, 79
3, 11266, Note_on_c, 1, 48, 0
3, 11268, Note_on_c, 1, 60, 79
3, 11276, Note_on_c, 1, 64, 0
3, 11278, Note_on_c, 1, 60, 0
3, 11280, Note_on_c, 1, 50, 79
3, 11280, Note_on_c, 1, 65, 79
3, 11290, Note_on_c, 1, 50, 0
3, 11292, Note_on_c, 1, 60, 79
3, 11300, Note_on_c, 1, 65, 0
3, 11302, Note_on_c, 1, 60, 0
3, 11304, Note_on_c, 1, 52, 79
3, 11304, Note_on_c, 1, 67, 79
3, 11314, Note_on_c, 1, 52, 0
3, 11316, Note_on_c, 1, 60, 79
3, 11324, Note_on_c, 1, 67, 0
3, 11326, Note_on_c, 1, 60, 0
3, 11328, Note_on_c, 1, 53, 79
3, 11328, Note_on_c, 1, 69, 79
3, 11338, Note_on_c, 1, 53, 0
3, 11340, Note_on_c, 1, 60, 79
3, 11348, Note_on_c, 1, 69, 0
3, 11350, Note_on_c, 1, 60, 0
3, 11352, Note_on_c, 1, 52, 79
3, 11352, Note_on_c, 1, 67, 79
3, 11362, Note_on_c, 1, 52, 0
3, 11364, Note_on_c, 1, 60, 79
3, 11372, Note_on_c, 1, 67, 0
3, 11374, Note_on_c, 1, 60, 0
3, 11376, Note_on_c, 1, 53, 79
3, 11376, Note_on_c, 1, 69, 79
3, 11386, Note_on_c, 1, 53, 0
3, 11388, Note_on_c, 1, 60, 79
3, 11396, Note_on_c, 1, 69, 0
3, 11398, Note_on_c, 1, 60, 0
3, 11400, Note_on_c, 1, 55, 79
3, 11400, Note_on_c, 1, 70, 79
3, 11410, Note_on_c, 1, 55, 0
3, 11412, Note_on_c, 1, 60, 79
3, 11420, Note_on_c, 1, 70, 0
3, 11422, Note_on_c, 1, 60, 0
3, 11424, Note_on_c, 1, 57, 79
3, 11424, Note_on_c, 1, 72, 79
3, 11434, Note_on_c, 1, 72, 0
3, 11436, Note_on_c, 1, 70, 79
3, 11446, Note_on_c, 1, 70, 0
3, 11448, Note_on_c, 1, 69, 79
3, 11458, Note_on_c, 1, 69, 0
3, 11460, Note_on_c, 1, 67, 79
3, 11464, Note_on_c, 1, 57, 0
3, 11470, Note_on_c, 1, 67, 0
3, 11472, Note_on_c, 1, 65, 79
3, 11482, Note_on_c, 1, 65, 0
3, 11484, Note_on_c, 1, 63, 79
3, 11494, Note_on_c, 1, 63, 0
3, 11496, Note_on_c, 1, 62, 79
3, 11506, Note_on_c, 1, 62, 0
3, 11508, Note_on_c, 1, 60, 79
3, 11518, Note_on_c, 1, 60, 0
3, 11520, Note_on_c, 1, 58, 79
3, 11520, Note_on_c, 1, 74, 79
3, 11530, Note_on_c, 1, 74, 0
3, 11532, Note_on_c, 1, 72, 79
3, 11540, Note_on_c, 1, 58, 0
3, 11542, Note_on_c, 1, 72, 0
3, 11544, Note_on_c, 1, 70, 79
3, 11554, Note_on_c, 1, 70, 0
3, 11556, Note_on_c, 1, 69, 79
3, 11566, Note_on_c, 1, 69, 0
3, 11568, Note_on_c, 1, 67, 79
3, 11578, Note_on_c, 1, 67, 0
3, 11580, Note_on_c, 1, 65, 79
3, 11590, Note_on_c, 1, 65, 0
3, 11592, Note_on_c, 1, 64, 79
3, 11602, Note_on_c, 1, 64, 0
3, 11604, Note_on_c, 1, 62, 79
3, 11614, Note_on_c, 1, 62, 0
3, 11616, Note_on_c, 1, 60, 79
3, 11616, Note_on_c, 1, 76, 79
3, 11626, Note_on_c, 1, 76, 0
3, 11628, Note_on_c, 1, 74, 79
3, 11636, Note_on_c, 1, 60, 0
3, 11638, Note_on_c, 1, 74, 0
3, 11640, Note_on_c, 1, 72, 79
3, 11650, Note_on_c, 1, 72, 0
3, 11652, Note_on_c, 1, 70, 79
3, 11662, Note_on_c, 1, 70, 0
3, 11664, Note_on_c, 1, 69, 79
3, 11674, Note_on_c, 1, 69, 0
3, 11676, Note_on_c, 1, 67, 79
3, 11686, Note_on_c, 1, 67, 0
3, 11688, Note_on_c, 1, 65, 79
3, 11698, Note_on_c, 1, 65, 0
3, 11700, Note_on_c, 1, 64, 79
3, 11710, Note_on_c, 1, 64, 0
3, 11712, Note_on_c, 1, 62, 79
3, 11712, Note_on_c, 1, 77, 79
3, 11722, Note_on_c, 1, 77, 0
3, 11724, Note_on_c, 1, 76, 79
3, 11732, Note_on_c, 1, 62, 0
3, 11734, Note_on_c, 1, 76, 0
3, 11736, Note_on_c, 1, 74, 79
3, 11746, Note_on_c, 1, 74, 0
3, 11748, Note_on_c, 1, 72, 79
3, 11758, Note_on_c, 1, 72, 0
3, 11760, Note_on_c, 1, 70, 79
3, 11770, Note_on_c, 1, 70, 0
3, 11772, Note_on_c, 1, 69, 79
3, 11782, Note_on_c, 1, 69, 0
3, 11784, Note_on_c, 1, 67, 79
3, 11794, Note_on_c, 1, 67, 0
3, 11796, Note_on_c, 1, 65, 79
3, 11806, Note_on_c, 1, 65, 0
3, 11808, Note_on_c, 1, 64, 79
3, 11808, Note_on_c, 1, 79, 79
3, 11818, Note_on_c, 1, 79, 0
3, 11820, Note_on_c, 1, 77, 79
3, 11828, Note_on_c, 1, 64, 0
3, 11830, Note_on_c, 1, 77, 0
3, 11832, Note_on_c, 1, 76, 79
3, 11842, Note_on_c, 1, 76, 0
3, 11844, Note_on_c, 1, 74, 79
3, 11854, Note_on_c, 1, 74, 0
3, 11856, Note_on_c, 1, 72, 79
3, 11866, Note_on_c, 1, 72, 0
3, 11868, Note_on_c, 1, 70, 79
3, 11878, Note_on_c, 1, 70, 0
3, 11880, Note_on_c, 1, 69, 79
3, 11890, Note_on_c, 1, 69, 0
3, 11892, Note_on_c, 1, 67, 79
3, 11902, Note_on_c, 1, 67, 0
3, 11904, Note_on_c, 1, 65, 79
3, 11904, Note_on_c, 1, 81, 79
3, 11914, Note_on_c, 1, 81, 0
3, 11916, Note_on_c, 1, 77, 79
3, 11924, Note_on_c, 1, 65, 0
3, 11926, Note_on_c, 1, 77, 0
3, 11928, Note_on_c, 1, 76, 79
3, 11938, Note_on_c, 1, 76, 0
3, 11940, Note_on_c, 1, 77, 79
3, 11950, Note_on_c, 1, 77, 0
3, 11952, Note_on_c, 1, 72, 79
3, 11952, Note_on_c, 1, 72, 79
3, 11964, Note_on_c, 1, 77, 79
3, 11972, Note_on_c, 1, 72, 0
3, 11974, Note_on_c, 1, 77, 0
3, 11976, Note_on_c, 1, 76, 79
3, 11986, Note_on_c, 1, 76, 0
3, 11988, Note_on_c, 1, 77, 79
3, 11998, Note_on_c, 1, 77, 0
3, 12000, Note_on_c, 1, 65, 79
3, 12000, Note_on_c, 1, 81, 79
3, 12010, Note_on_c, 1, 81, 0
3, 12012, Note_on_c, 1, 77, 79
3, 12020, Note_on_c, 1, 65, 0
3, 12022, Note_on_c, 1, 77, 0
3, 12024, Note_on_c, 1, 76, 79
3, 12034, Note_on_c, 1, 76, 0
3, 12036, Note_on_c, 1, 77, 79
3, 12046, Note_on_c, 1, 77, 0
3, 12048, Note_on_c, 1, 72, 79
3, 12048, Note_on_c, 1, 72, 79
3, 12060, Note_on_c, 1, 77, 79
3, 12068, Note_on_c, 1, 72, 0
3, 12070, Note_on_c, 1, 77, 0
3, 12072, Note_on_c, 1, 76, 79
3, 12082, Note_on_c, 1, 76, 0
3, 12084, Note_on_c, 1, 77, 79
3, 12094, Note_on_c, 1, 77, 0
3, 12096, Control_c, 1, 7, 98
3, 12096, Note_on_c, 1, 64, 79
3, 12096, Note_on_c, 1, 79, 79
3, 12106, Note_on_c, 1, 79, 0
3, 12108, Note_on_c, 1, 76, 79
3, 12116, Note_on_c, 1, 64, 0
3, 12118, Note_on_c, 1, 76, 0
3, 12120, Control_c, 1, 7, 98
3, 12120, Note_on_c, 1, 74, 79
3, 12130, Note_on_c, 1, 74, 0
3, 12132, Note_on_c, 1, 76, 79
3, 12142, Note_on_c, 1, 76, 0
3, 12144, Note_on_c, 1, 72, 79
3, 12144, Note_on_c, 1, 72, 79
3, 12156, Note_on_c, 1, 76, 79
3, 12164, Note_on_c, 1, 72, 0
3, 12166, Note_on_c, 1, 76, 0
3, 12168, Note_on_c, 1, 74, 79
3, 12178, Note_on_c, 1, 74, 0
3, 12180, Note_on_c, 1, 76, 79
3, 12190, Note_on_c, 1, 76, 0
3, 12192, Note_on_c, 1, 64, 79
3, 12192, Note_on_c, 1, 79, 79
3, 12202, Note_on_c, 1, 79, 0
3, 12204, Note_on_c, 1, 76, 79
3, 12212, Note_on_c, 1, 64, 0
3, 12214, Note_on_c, 1, 76, 0
3, 12216, Note_on_c, 1, 74, 79
3, 12226, Note_on_c, 1, 74, 0
3, 12228, Note_on_c, 1, 76, 79
3, 12238, Note_on_c, 1, 76, 0
3, 12240, Note_on_c, 1, 72, 79
3, 12240, Note_on_c, 1, 72, 79
3, 12252, Note_on_c, 1, 76, 79
3, 12260, Note_on_c, 1, 72, 0
3, 12262, Note_on_c, 1, 76, 0
3, 12264, Note_on_c, 1, 74, 79
3, 12274, Note_on_c, 1, 74, 0
3, 12276, Note_on_c, 1, 76, 79
3, 12286, Note_on_c, 1, 76, 0
3, 12288, Control_c, 1, 7, 127
3, 12288, Note_on_c, 1, 65, 79
3, 12288, Note_on_c, 1, 81, 79
3, 12298, Note_on_c, 1, 81, 0
3, 12300, Note_on_c, 1, 77, 79
3, 12308, Note_on_c, 1, 65, 0
3, 12310, Note_on_c, 1, 77, 0
3, 12312, Control_c, 1, 7, 127
3, 12312, Note_on_c, 1, 76, 79
3, 12322, Note_on_c, 1, 76, 0
3, 12324, Note_on_c, 1, 77, 79
3, 12334, Note_on_c, 1, 77, 0
3, 12336, Note_on_c, 1, 72, 79
3, 12336, Note_on_c, 1, 72, 79
3, 12348, Note_on_c, 1, 77, 79
3, 12356, Note_on_c, 1, 72, 0
3, 12358, Note_on_c, 1, 77, 0
3, 12360, Note_on_c, 1, 76, 79
3, 12370, Note_on_c, 1, 76, 0
3, 12372, Note_on_c, 1, 77, 79
3, 12382, Note_on_c, 1, 77, 0
3, 12384, Note_on_c, 1, 65, 79
3, 12384, Note_on_c, 1, 81, 79
3, 12394, Note_on_c, 1, 81, 0
3, 12396, Note_on_c, 1, 77, 79
3, 12404, Note_on_c, 1, 65, 0
3, 12406, Note_on_c, 1, 77, 0
3, 12408, Note_on_c, 1, 76, 79
3, 12418, Note_on_c, 1, 76, 0
3, 12420, Note_on_c, 1, 77, 79
3, 12430, Note_on_c, 1, 77, 0
3, 12432, Note_on_c, 1, 72, 79
3, 12432, Note_on_c, 1, 72, 79
3, 12444, Note_on_c, 1, 77, 79
3, 12452, Note_on_c, 1, 72, 0
3, 12454, Note_on_c, 1, 77, 0
3, 12456, Note_on_c, 1, 76, 79
3, 12466, Note_on_c, 1, 76, 0
3, 12468, Note_on_c, 1, 77, 79
3, 12478, Note_on_c, 1, 77, 0
3, 12480, Control_c, 1, 7, 98
3, 12480, Note_on_c, 1, 64, 79
3, 12480, Note_on_c, 1, 79, 79
3, 12490, Note_on_c, 1, 79, 0
3, 12492, Note_on_c, 1, 76, 79
3, 12500, Note_on_c, 1, 64, 0
3, 12502, Note_on_c, 1, 76, 0
3, 12504, Control_c, 1, 7, 98
3, 12504, Note_on_c, 1, 74, 79
3, 12514, Note_on_c, 1, 74, 0
3, 12516, Note_on_c, 1, 76, 79
3, 12526, Note_on_c, 1, 76, 0
3, 12528, Note_on_c, 1, 72, 79
3, 12528, Note_on_c, 1, 72, 79
3, 12540, Note_on_c, 1, 76, 79
3, 12548, Note_on_c, 1, 72, 0
3, 12550, Note_on_c, 1, 76, 0
3, 12552, Note_on_c, 1, 74, 79
3, 12562, Note_on_c, 1, 74, 0
3, 12564, Note_on_c, 1, 76, 79
3, 12574, Note_on_c, 1, 76, 0
3, 12576, Note_on_c, 1, 64, 79
3, 12576, Note_on_c, 1, 79, 79
3, 12586, Note_on_c, 1, 79, 0
3, 12588, Note_on_c, 1, 76, 79
3, 12596, Note_on_c, 1, 64, 0
3, 12598, Note_on_c, 1, 76, 0
3, 12600, Note_on_c, 1, 74, 79
3, 12610, Note_on_c, 1, 74, 0
3, 12612, Note_on_c, 1, 76, 79
3, 12622, Note_on_c, 1, 76, 0
3, 12624, Note_on_c, 1, 72, 79
3, 12624, Note_on_c, 1, 72, 79
3, 12636, Note_on_c, 1, 76, 79
3, 12644, Note_on_c, 1, 72, 0
3, 12646, Note_on_c, 1, 76, 0
3, 12648, Note_on_c, 1, 74, 79
3, 12658, Note_on_c, 1, 74, 0
3, 12660, Note_on_c, 1, 76, 79
3, 12670, Note_on_c, 1, 76, 0
3, 12672, Control_c, 1, 7, 127
3, 12672, Note_on_c, 1, 62, 79
3, 12672, Note_on_c, 1, 77, 79
3, 12682, Note_on_c, 1, 77, 0
3, 12684, Note_on_c, 1, 79, 79
3, 12692, Note_on_c, 1, 62, 0
3, 12694, Note_on_c, 1, 79, 0
3, 12696, Control_c, 1, 7, 127
3, 12696, Note_on_c, 1, 77, 79
3, 12706, Note_on_c, 1, 77, 0
3, 12708, Note_on_c, 1, 76, 79
3, 12718, Note_on_c, 1, 76, 0
3, 12720, Note_on_c, 1, 74, 79
3, 12730, Note_on_c, 1, 74, 0
3, 12732, Note_on_c, 1, 72, 79
3, 12742, Note_on_c, 1, 72, 0
3, 12744, Note_on_c, 1, 71, 79
3, 12754, Note_on_c, 1, 71, 0
3, 12756, Note_on_c, 1, 69, 79
3, 12766, Note_on_c, 1, 69, 0
3, 12768, Note_on_c, 1, 71, 79
3, 12778, Note_on_c, 1, 71, 0
3, 12780, Note_on_c, 1, 67, 79
3, 12790, Note_on_c, 1, 67, 0
3, 12792, Note_on_c, 1, 71, 79
3, 12802, Note_on_c, 1, 71, 0
3, 12804, Note_on_c, 1, 74, 79
3, 12814, Note_on_c, 1, 74, 0
3, 12816, Note_on_c, 1, 77, 79
3, 12826, Note_on_c, 1, 77, 0
3, 12828, Note_on_c, 1, 81, 79
3, 12838, Note_on_c, 1, 81, 0
3, 12840, Note_on_c, 1, 77, 79
3, 12850, Note_on_c, 1, 77, 0
3, 12852, Note_on_c, 1, 74, 79
3, 12862, Note_on_c, 1, 74, 0
3, 12864, Note_on_c, 1, 71, 79
3, 12874, Note_on_c, 1, 71, 0
3, 12876, Note_on_c, 1, 67, 79
3, 12886, Note_on_c, 1, 67, 0
3, 12888, Note_on_c, 1, 71, 79
3, 12898, Note_on_c, 1, 71, 0
3, 12900, Note_on_c, 1, 74, 79
3, 12910, Note_on_c, 1, 74, 0
3, 12912, Note_on_c, 1, 77, 79
3, 12922, Note_on_c, 1, 77, 0
3, 12924, Note_on_c, 1, 81, 79
3, 12934, Note_on_c, 1, 81, 0
3, 12936, Note_on_c, 1, 77, 79
3, 12946, Note_on_c, 1, 77, 0
3, 12948, Note_on_c, 1, 74, 79
3, 12958, Note_on_c, 1, 74, 0
3, 12960, Note_on_c, 1, 70, 79
3, 12970, Note_on_c, 1, 70, 0
3, 12972, Note_on_c, 1, 67, 79
3, 12982, Note_on_c, 1, 67, 0
3, 12984, Note_on_c, 1, 70, 79
3, 12994, Note_on_c, 1, 70, 0
3, 12996, Note_on_c, 1, 72, 79
3, 13006, Note_on_c, 1, 72, 0
3, 13008, Note_on_c, 1, 76, 79
3, 13018, Note_on_c, 1, 76, 0
3, 13020, Note_on_c, 1, 79, 79
3, 13030, Note_on_c, 1, 79, 0
3, 13032, Note_on_c, 1, 76, 79
3, 13042, Note_on_c, 1, 76, 0
3, 13044, Note_on_c, 1, 72, 79
3, 13054, Note_on_c, 1, 72, 0
3, 13056, Note_on_c, 1, 70, 79
3, 13066, Note_on_c, 1, 70, 0
3, 13068, Note_on_c, 1, 67, 79
3, 13078, Note_on_c, 1, 67, 0
3, 13080, Note_on_c, 1, 70, 79
3, 13090, Note_on_c, 1, 70, 0
3, 13092, Note_on_c, 1, 72, 79
3, 13102, Note_on_c, 1, 72, 0
3, 13104, Note_on_c, 1, 76, 79
3, 13114, Note_on_c, 1, 76, 0
3, 13116, Note_on_c, 1, 79, 79
3, 13126, Note_on_c, 1, 79, 0
3, 13128, Note_on_c, 1, 76, 79
3, 13138, Note_on_c, 1, 76, 0
3, 13140, Note_on_c, 1, 72, 79
3, 13150, Note_on_c, 1, 72, 0
3, 13152, Note_on_c, 1, 69, 79
3, 13162, Note_on_c, 1, 69, 0
3, 13164, Note_on_c, 1, 65, 79
3, 13174, Note_on_c, 1, 65, 0
3, 13176, Note_on_c, 1, 69, 79
3, 13186, Note_on_c, 1, 69, 0
3, 13188, Note_on_c, 1, 72, 79
3, 13198, Note_on_c, 1, 72, 0
3, 13200, Note_on_c, 1, 74, 79
3, 13210, Note_on_c, 1, 74, 0
3, 13212, Note_on_c, 1, 77, 79
3, 13222, Note_on_c, 1, 77, 0
3, 13224, Note_on_c, 1, 74, 79
3, 13234, Note_on_c, 1, 74, 0
3, 13236, Note_on_c, 1, 70, 79
3, 13246, Note_on_c, 1, 70, 0
3, 13248, Note_on_c, 1, 69, 79
3, 13258, Note_on_c, 1, 69, 0
3, 13260, Note_on_c, 1, 65, 79
3, 13270, Note_on_c, 1, 65, 0
3, 13272, Note_on_c, 1, 69, 79
3, 13282, Note_on_c, 1, 69, 0
3, 13284, Note_on_c, 1, 72, 79
3, 13294, Note_on_c, 1, 72, 0
3, 13296, Note_on_c, 1, 74, 79
3, 13306, Note_on_c, 1, 74, 0
3, 13308, Note_on_c, 1, 77, 79
3, 13318, Note_on_c, 1, 77, 0
3, 13320, Note_on_c, 1, 74, 79
3, 13330, Note_on_c, 1, 74, 0
3, 13332, Note_on_c, 1, 70, 79
3, 13342, Note_on_c, 1, 70, 0
3, 13344, Note_on_c, 1, 67, 79
3, 13354, Note_on_c, 1, 67, 0
3, 13356, Note_on_c, 1, 64, 79
3, 13366, Note_on_c, 1, 64, 0
3, 13368, Note_on_c, 1, 67, 79
3, 13378, Note_on_c, 1, 67, 0
3, 13380, Note_on_c, 1, 70, 79
3, 13390, Note_on_c, 1, 70, 0
3, 13392, Note_on_c, 1, 73, 79
3, 13402, Note_on_c, 1, 73, 0
3, 13404, Note_on_c, 1, 76, 79
3, 13414, Note_on_c, 1, 76, 0
3, 13416, Note_on_c, 1, 73, 79
3, 13426, Note_on_c, 1, 73, 0
3, 13428, Note_on_c, 1, 70, 79
3, 13438, Note_on_c, 1, 70, 0
3, 13440, Note_on_c, 1, 67, 79
3, 13450, Note_on_c, 1, 67, 0
3, 13452, Note_on_c, 1, 64, 79
3, 13462, Note_on_c, 1, 64, 0
3, 13464, Note_on_c, 1, 67, 79
3, 13474, Note_on_c, 1, 67, 0
3, 13476, Note_on_c, 1, 70, 79
3, 13486, Note_on_c, 1, 70, 0
3, 13488, Note_on_c, 1, 73, 79
3, 13498, Note_on_c, 1, 73, 0
3, 13500, Note_on_c, 1, 76, 79
3, 13510, Note_on_c, 1, 76, 0
3, 13512, Note_on_c, 1, 73, 79
3, 13522, Note_on_c, 1, 73, 0
3, 13524, Note_on_c, 1, 70, 79
3, 13534, Note_on_c, 1, 70, 0
3, 13536, Note_on_c, 1, 69, 79
3, 13548, Note_on_c, 1, 81, 79
3, 13556, Note_on_c, 1, 69, 0
3, 13558, Note_on_c, 1, 81, 0
3, 13560, Note_on_c, 1, 73, 79
3, 13560, Note_on_c, 1, 79, 79
3, 13570, Note_on_c, 1, 79, 0
3, 13572, Note_on_c, 1, 81, 79
3, 13580, Note_on_c, 1, 73, 0
3, 13582, Note_on_c, 1, 81, 0
3, 13584, Note_on_c, 1, 74, 79
3, 13584, Note_on_c, 1, 77, 79
3, 13594, Note_on_c, 1, 77, 0
3, 13596, Note_on_c, 1, 81, 79
3, 13604, Note_on_c, 1, 74, 0
3, 13606, Note_on_c, 1, 81, 0
3, 13608, Note_on_c, 1, 67, 79
3, 13608, Note_on_c, 1, 76, 79
3, 13618, Note_on_c, 1, 76, 0
3, 13620, Note_on_c, 1, 81, 79
3, 13628, Note_on_c, 1, 67, 0
3, 13630, Note_on_c, 1, 81, 0
3, 13632, Note_on_c, 1, 65, 79
3, 13632, Note_on_c, 1, 74, 79
3, 13642, Note_on_c, 1, 74, 0
3, 13644, Note_on_c, 1, 81, 79
3, 13652, Note_on_c, 1, 65, 0
3, 13654, Note_on_c, 1, 81, 0
3, 13656, Note_on_c, 1, 69, 79
3, 13656, Note_on_c, 1, 73, 79
3, 13666, Note_on_c, 1, 73, 0
3, 13668, Note_on_c, 1, 81, 79
3, 13676, Note_on_c, 1, 69, 0
3, 13678, Note_on_c, 1, 81, 0
3, 13680, Note_on_c, 1, 71, 79
3, 13680, Note_on_c, 1, 74, 79
3, 13690, Note_on_c, 1, 74, 0
3, 13692, Note_on_c, 1, 81, 79
3, 13700, Note_on_c, 1, 71, 0
3, 13702, Note_on_c, 1, 81, 0
3, 13704, Note_on_c, 1, 73, 79
3, 13704, Note_on_c, 1, 76, 79
3, 13714, Note_on_c, 1, 76, 0
3, 13716, Note_on_c, 1, 81, 79
3, 13724, Note_on_c, 1, 73, 0
3, 13726, Note_on_c, 1, 81, 0
3, 13728, Note_on_c, 1, 74, 79
3, 13728, Note_on_c, 1, 77, 79
3, 13738, Note_on_c, 1, 77, 0
3, 13740, Note_on_c, 1, 81, 79
3, 13748, Note_on_c, 1, 74, 0
3, 13750, Note_on_c, 1, 81, 0
3, 13752, Note_on_c, 1, 69, 79
3, 13752, Note_on_c, 1, 73, 79
3, 13762, Note_on_c, 1, 69, 0
3, 13764, Note_on_c, 1, 81, 79
3, 13772, Note_on_c, 1, 73, 0
3, 13774, Note_on_c, 1, 81, 0
3, 13776, Note_on_c, 1, 71, 79
3, 13776, Note_on_c, 1, 74, 79
3, 13786, Note_on_c, 1, 71, 0
3, 13788, Note_on_c, 1, 81, 79
3, 13796, Note_on_c, 1, 74, 0
3, 13798, Note_on_c, 1, 81, 0
3, 13800, Note_on_c, 1, 73, 79
3, 13800, Note_on_c, 1, 76, 79
3, 13810, Note_on_c, 1, 73, 0
3, 13812, Note_on_c, 1, 81, 79
3, 13820, Note_on_c, 1, 76, 0
3, 13822, Note_on_c, 1, 81, 0
3, 13824, Note_on_c, 1, 74, 79
3, 13824, Note_on_c, 1, 77, 79
3, 13834, Note_on_c, 1, 74, 0
3, 13836, Note_on_c, 1, 81, 79
3, 13844, Note_on_c, 1, 77, 0
3, 13846, Note_on_c, 1, 81, 0
3, 13848, Note_on_c, 1, 73, 79
3, 13848, Note_on_c, 1, 76, 79
3, 13858, Note_on_c, 1, 73, 0
3, 13860, Note_on_c, 1, 81, 79
3, 13868, Note_on_c, 1, 76, 0
3, 13870, Note_on_c, 1, 81, 0
3, 13872, Note_on_c, 1, 74, 79
3, 13872, Note_on_c, 1, 77, 79
3, 13884, Note_on_c, 1, 69, 79
3, 13892, Note_on_c, 1, 74, 0
3, 13892, Note_on_c, 1, 77, 0
3, 13894, Note_on_c, 1, 69, 0
3, 13896, Note_on_c, 1, 67, 79
3, 13896, Note_on_c, 1, 73, 79
3, 13896, Note_on_c, 1, 76, 79
3, 13906, Note_on_c, 1, 67, 0
3, 13908, Note_on_c, 1, 69, 79
3, 13916, Note_on_c, 1, 73, 0
3, 13916, Note_on_c, 1, 76, 0
3, 13918, Note_on_c, 1, 69, 0
3, 13920, Note_on_c, 1, 74, 79
3, 13920, Note_on_c, 1, 74, 79
3, 13932, Note_on_c, 1, 66, 79
3, 13940, Note_on_c, 1, 74, 0
3, 13942, Note_on_c, 1, 66, 0
3, 13944, Note_on_c, 1, 64, 79
3, 13944, Note_on_c, 1, 69, 79
3, 13944, Note_on_c, 1, 72, 79
3, 13954, Note_on_c, 1, 64, 0
3, 13956, Note_on_c, 1, 66, 79
3, 13964, Note_on_c, 1, 69, 0
3, 13964, Note_on_c, 1, 72, 0
3, 13966, Note_on_c, 1, 66, 0
3, 13968, Note_on_c, 1, 67, 79
3, 13968, Note_on_c, 1, 70, 79
3, 13980, Note_on_c, 1, 62, 79
3, 13988, Note_on_c, 1, 67, 0
3, 13988, Note_on_c, 1, 70, 0
3, 13990, Note_on_c, 1, 62, 0
3, 13992, Note_on_c, 1, 60, 79
3, 13992, Note_on_c, 1, 66, 79
3, 13992, Note_on_c, 1, 69, 79
3, 14002, Note_on_c, 1, 60, 0
3, 14004, Note_on_c, 1, 62, 79
3, 14012, Note_on_c, 1, 66, 0
3, 14012, Note_on_c, 1, 69, 0
3, 14014, Note_on_c, 1, 62, 0
3, 14016, Note_on_c, 1, 67, 79
3, 14016, Note_on_c, 1, 58, 79
3, 14016, Note_on_c, 1, 70, 79
3, 14026, Note_on_c, 1, 58, 0
3, 14026, Note_on_c, 1, 70, 0
3, 14028, Note_on_c, 1, 60, 79
3, 14028, Note_on_c, 1, 69, 79
3, 14036, Note_on_c, 1, 67, 0
3, 14038, Note_on_c, 1, 60, 0
3, 14038, Note_on_c, 1, 69, 0
3, 14040, Note_on_c, 1, 58, 79
3, 14040, Note_on_c, 1, 67, 79
3, 14050, Note_on_c, 1, 58, 0
3, 14050, Note_on_c, 1, 67, 0
3, 14052, Note_on_c, 1, 57, 79
3, 14052, Note_on_c, 1, 65, 79
3, 14062, Note_on_c, 1, 57, 0
3, 14062, Note_on_c, 1, 65, 0
3, 14064, Note_on_c, 1, 55, 79
3, 14064, Note_on_c, 1, 64, 79
3, 14074, Note_on_c, 1, 55, 0
3, 14074, Note_on_c, 1, 64, 0
3, 14076, Note_on_c, 1, 53, 79
3, 14076, Note_on_c, 1, 62, 79
3, 14086, Note_on_c, 1, 53, 0
3, 14086, Note_on_c, 1, 62, 0
3, 14088, Note_on_c, 1, 52, 79
3, 14088, Note_on_c, 1, 61, 79
3, 14098, Note_on_c, 1, 52, 0
3, 14098, Note_on_c, 1, 61, 0
3, 14100, Note_on_c, 1, 50, 79
3, 14100, Note_on_c, 1, 59, 79
3, 14110, Note_on_c, 1, 50, 0
3, 14110, Note_on_c, 1, 59, 0
3, 14112, Note_on_c, 1, 49, 79
3, 14112, Note_on_c, 1, 57, 79
3, 14122, Note_on_c, 1, 49, 0
3, 14122, Note_on_c, 1, 57, 0
3, 14124, Note_on_c, 1, 45, 79
3, 14134, Note_on_c, 1, 45, 0
3, 14136, Note_on_c, 1, 49, 79
3, 14146, Note_on_c, 1, 49, 0
3, 14148, Note_on_c, 1, 52, 79
3, 14158, Note_on_c, 1, 52, 0
3, 14160, Note_on_c, 1, 55, 79
3, 14170, Note_on_c, 1, 55, 0
3, 14172, Note_on_c, 1, 58, 79
3, 14182, Note_on_c, 1, 58, 0
3, 14184, Note_on_c, 1, 55, 79
3, 14194, Note_on_c, 1, 55, 0
3, 14196, Note_on_c, 1, 52, 79
3, 14206, Note_on_c, 1, 52, 0
3, 14208, Note_on_c, 1, 49, 79
3, 14218, Note_on_c, 1, 49, 0
3, 14220, Note_on_c, 1, 45, 79
3, 14230, Note_on_c, 1, 45, 0
3, 14232, Note_on_c, 1, 49, 79
3, 14242, Note_on_c, 1, 49, 0
3, 14244, Note_on_c, 1, 52, 79
3, 14254, Note_on_c, 1, 52, 0
3, 14256, Note_on_c, 1, 55, 79
3, 14266, Note_on_c, 1, 55, 0
3, 14268, Note_on_c, 1, 58, 79
3, 14278, Note_on_c, 1, 58, 0
3, 14280, Note_on_c, 1, 55, 79
3, 14290, Note_on_c, 1, 55, 0
3, 14292, Note_on_c, 1, 52, 79
3, 14302, Note_on_c, 1, 52, 0
3, 14304, Note_on_c, 1, 50, 79
3, 14314, Note_on_c, 1, 50, 0
3, 14316, Note_on_c, 1, 45, 79
3, 14326, Note_on_c, 1, 45, 0
3, 14328, Note_on_c, 1, 50, 79
3, 14338, Note_on_c, 1, 50, 0
3, 14340, Note_on_c, 1, 53, 79
3, 14350, Note_on_c, 1, 53, 0
3, 14352, Note_on_c, 1, 57, 79
3, 14362, Note_on_c, 1, 57, 0
3, 14364, Note_on_c, 1, 62, 79
3, 14374, Note_on_c, 1, 62, 0
3, 14376, Note_on_c, 1, 57, 79
3, 14386, Note_on_c, 1, 57, 0
3, 14388, Note_on_c, 1, 53, 79
3, 14398, Note_on_c, 1, 53, 0
3, 14400, Note_on_c, 1, 50, 47
3, 14408, Note_on_c, 1, 50, 0
3, 14412, Note_on_c, 1, 45, 47
3, 14420, Note_on_c, 1, 45, 0
3, 14424, Note_on_c, 1, 50, 47
3, 14432, Note_on_c, 1, 50, 0
3, 14436, Note_on_c, 1, 53, 47
3, 14444, Note_on_c, 1, 53, 0
3, 14448, Note_on_c, 1, 57, 47
3, 14456, Note_on_c, 1, 57, 0
3, 14460, Note_on_c, 1, 62, 47
3, 14468, Note_on_c, 1, 62, 0
3, 14472, Note_on_c, 1, 57, 47
3, 14480, Note_on_c, 1, 57, 0
3, 14484, Note_on_c, 1, 53, 47
3, 14492, Note_on_c, 1, 53, 0
3, 14496, Note_on_c, 1, 49, 47
3, 14504, Note_on_c, 1, 49, 0
3, 14508, Note_on_c, 1, 45, 47
3, 14516, Note_on_c, 1, 45, 0
3, 14520, Note_on_c, 1, 49, 47
3, 14528, Note_on_c, 1, 49, 0
3, 14532, Note_on_c, 1, 52, 47
3, 14540, Note_on_c, 1, 52, 0
3, 14544, Note_on_c, 1, 55, 47
3, 14552, Note_on_c, 1, 55, 0
3, 14556, Note_on_c, 1, 58, 47
3, 14564, Note_on_c, 1, 58, 0
3, 14568, Note_on_c, 1, 55, 47
3, 14576, Note_on_c, 1, 55, 0
3, 14580, Note_on_c, 1, 52, 47
3, 14588, Note_on_c, 1, 52, 0
3, 14592, Note_on_c, 1, 49, 79
3, 14602, Note_on_c, 1, 49, 0
3, 14604, Note_on_c, 1, 45, 79
3, 14614, Note_on_c, 1, 45, 0
3, 14616, Note_on_c, 1, 49, 79
3, 14626, Note_on_c, 1, 49, 0
3, 14628, Note_on_c, 1, 52, 79
3, 14638, Note_on_c, 1, 52, 0
3, 14640, Note_on_c, 1, 55, 79
3, 14650, Note_on_c, 1, 55, 0
3, 14652, Note_on_c, 1, 58, 79
3, 14662, Note_on_c, 1, 58, 0
3, 14664, Note_on_c, 1, 55, 79
3, 14674, Note_on_c, 1, 55, 0
3, 14676, Note_on_c, 1, 52, 79
3, 14686, Note_on_c, 1, 52, 0
3, 14688, Note_on_c, 1, 50, 79
3, 14698, Note_on_c, 1, 50, 0
3, 14700, Note_on_c, 1, 45, 79
3, 14710, Note_on_c, 1, 45, 0
3, 14712, Note_on_c, 1, 50, 79
3, 14722, Note_on_c, 1, 50, 0
3, 14724, Note_on_c, 1, 53, 79
3, 14734, Note_on_c, 1, 53, 0
3, 14736, Note_on_c, 1, 57, 79
3, 14746, Note_on_c, 1, 57, 0
3, 14748, Note_on_c, 1, 62, 79
3, 14758, Note_on_c, 1, 62, 0
3, 14760, Note_on_c, 1, 57, 79
3, 14770, Note_on_c, 1, 57, 0
3, 14772, Note_on_c, 1, 53, 79
3, 14782, Note_on_c, 1, 53, 0
3, 14784, Note_on_c, 1, 50, 47
3, 14794, Note_on_c, 1, 50, 0
3, 14796, Note_on_c, 1, 45, 47
3, 14806, Note_on_c, 1, 45, 0
3, 14808, Note_on_c, 1, 50, 47
3, 14818, Note_on_c, 1, 50, 0
3, 14820, Note_on_c, 1, 53, 47
3, 14830, Note_on_c, 1, 53, 0
3, 14832, Note_on_c, 1, 57, 47
3, 14842, Note_on_c, 1, 57, 0
3, 14844, Note_on_c, 1, 62, 47
3, 14854, Note_on_c, 1, 62, 0
3, 14856, Note_on_c, 1, 57, 47
3, 14866, Note_on_c, 1, 57, 0
3, 14868, Note_on_c, 1, 53, 47
3, 14878, Note_on_c, 1, 53, 0
3, 14880, Note_on_c, 1, 52, 47
3, 14890, Note_on_c, 1, 52, 0
3, 14892, Note_on_c, 1, 49, 47
3, 14902, Note_on_c, 1, 49, 0
3, 14904, Note_on_c, 1, 52, 47
3, 14914, Note_on_c, 1, 52, 0
3, 14916, Note_on_c, 1, 55, 47
3, 14926, Note_on_c, 1, 55, 0
3, 14928, Note_on_c, 1, 58, 47
3, 14938, Note_on_c, 1, 58, 0
3, 14940, Note_on_c, 1, 61, 47
3, 14950, Note_on_c, 1, 61, 0
3, 14952, Note_on_c, 1, 58, 47
3, 14962, Note_on_c, 1, 58, 0
3, 14964, Note_on_c, 1, 55, 47
3, 14974, Note_on_c, 1, 55, 0
3, 14976, Note_on_c, 1, 52, 79
3, 14986, Note_on_c, 1, 52, 0
3, 14988, Note_on_c, 1, 49, 79
3, 14998, Note_on_c, 1, 49, 0
3, 15000, Note_on_c, 1, 52, 79
3, 15010, Note_on_c, 1, 52, 0
3, 15012, Note_on_c, 1, 55, 79
3, 15022, Note_on_c, 1, 55, 0
3, 15024, Note_on_c, 1, 58, 79
3, 15034, Note_on_c, 1, 58, 0
3, 15036, Note_on_c, 1, 61, 79
3, 15046, Note_on_c, 1, 61, 0
3, 15048, Note_on_c, 1, 58, 79
3, 15058, Note_on_c, 1, 58, 0
3, 15060, Note_on_c, 1, 55, 79
3, 15070, Note_on_c, 1, 55, 0
3, 15072, Note_on_c, 1, 53, 79
3, 15082, Note_on_c, 1, 53, 0
3, 15084, Note_on_c, 1, 50, 79
3, 15094, Note_on_c, 1, 50, 0
3, 15096, Note_on_c, 1, 53, 79
3, 15106, Note_on_c, 1, 53, 0
3, 15108, Note_on_c, 1, 57, 79
3, 15118, Note_on_c, 1, 57, 0
3, 15120, Note_on_c, 1, 62, 79
3, 15130, Note_on_c, 1, 62, 0
3, 15132, Note_on_c, 1, 65, 79
3, 15142, Note_on_c, 1, 65, 0
3, 15144, Note_on_c, 1, 62, 79
3, 15154, Note_on_c, 1, 62, 0
3, 15156, Note_on_c, 1, 57, 79
3, 15166, Note_on_c, 1, 57, 0
3, 15168, Note_on_c, 1, 53, 47
3, 15178, Note_on_c, 1, 53, 0
3, 15180, Note_on_c, 1, 50, 47
3, 15190, Note_on_c, 1, 50, 0
3, 15192, Note_on_c, 1, 53, 47
3, 15202, Note_on_c, 1, 53, 0
3, 15204, Note_on_c, 1, 57, 47
3, 15214, Note_on_c, 1, 57, 0
3, 15216, Note_on_c, 1, 62, 47
3, 15226, Note_on_c, 1, 62, 0
3, 15228, Note_on_c, 1, 65, 47
3, 15238, Note_on_c, 1, 65, 0
3, 15240, Note_on_c, 1, 62, 47
3, 15250, Note_on_c, 1, 62, 0
3, 15252, Note_on_c, 1, 57, 47
3, 15262, Note_on_c, 1, 57, 0
3, 15264, Note_on_c, 1, 52, 47
3, 15274, Note_on_c, 1, 52, 0
3, 15276, Note_on_c, 1, 49, 47
3, 15286, Note_on_c, 1, 49, 0
3, 15288, Note_on_c, 1, 52, 47
3, 15298, Note_on_c, 1, 52, 0
3, 15300, Note_on_c, 1, 55, 47
3, 15310, Note_on_c, 1, 55, 0
3, 15312, Note_on_c, 1, 58, 47
3, 15322, Note_on_c, 1, 58, 0
3, 15324, Note_on_c, 1, 61, 47
3, 15334, Note_on_c, 1, 61, 0
3, 15336, Note_on_c, 1, 58, 47
3, 15346, Note_on_c, 1, 58, 0
3, 15348, Note_on_c, 1, 55, 47
3, 15358, Note_on_c, 1, 55, 0
3, 15360, Note_on_c, 1, 52, 79
3, 15370, Note_on_c, 1, 52, 0
3, 15372, Note_on_c, 1, 49, 79
3, 15382, Note_on_c, 1, 49, 0
3, 15384, Note_on_c, 1, 52, 79
3, 15394, Note_on_c, 1, 52, 0
3, 15396, Note_on_c, 1, 55, 79
3, 15406, Note_on_c, 1, 55, 0
3, 15408, Note_on_c, 1, 58, 79
3, 15418, Note_on_c, 1, 58, 0
3, 15420, Note_on_c, 1, 61, 79
3, 15430, Note_on_c, 1, 61, 0
3, 15432, Note_on_c, 1, 58, 79
3, 15442, Note_on_c, 1, 58, 0
3, 15444, Note_on_c, 1, 55, 79
3, 15454, Note_on_c, 1, 55, 0
3, 15456, Note_on_c, 1, 53, 79
3, 15466, Note_on_c, 1, 53, 0
3, 15468, Note_on_c, 1, 50, 79
3, 15478, Note_on_c, 1, 50, 0
3, 15480, Note_on_c, 1, 53, 79
3, 15490, Note_on_c, 1, 53, 0
3, 15492, Note_on_c, 1, 57, 79
3, 15502, Note_on_c, 1, 57, 0
3, 15504, Note_on_c, 1, 62, 79
3, 15514, Note_on_c, 1, 62, 0
3, 15516, Note_on_c, 1, 65, 79
3, 15526, Note_on_c, 1, 65, 0
3, 15528, Note_on_c, 1, 62, 79
3, 15538, Note_on_c, 1, 62, 0
3, 15540, Note_on_c, 1, 57, 79
3, 15550, Note_on_c, 1, 57, 0
3, 15552, Note_on_c, 1, 53, 79
3, 15562, Note_on_c, 1, 53, 0
3, 15564, Note_on_c, 1, 50, 79
3, 15574, Note_on_c, 1, 50, 0
3, 15576, Note_on_c, 1, 53, 79
3, 15586, Note_on_c, 1, 53, 0
3, 15588, Note_on_c, 1, 57, 79
3, 15598, Note_on_c, 1, 57, 0
3, 15600, Note_on_c, 1, 62, 79
3, 15610, Note_on_c, 1, 62, 0
3, 15612, Note_on_c, 1, 65, 79
3, 15622, Note_on_c, 1, 65, 0
3, 15624, Note_on_c, 1, 62, 79
3, 15634, Note_on_c, 1, 62, 0
3, 15636, Note_on_c, 1, 57, 79
3, 15646, Note_on_c, 1, 57, 0
3, 15648, Note_on_c, 1, 55, 79
3, 15658, Note_on_c, 1, 55, 0
3, 15660, Note_on_c, 1, 52, 79
3, 15670, Note_on_c, 1, 52, 0
3, 15672, Note_on_c, 1, 55, 79
3, 15682, Note_on_c, 1, 55, 0
3, 15684, Note_on_c, 1, 58, 79
3, 15694, Note_on_c, 1, 58, 0
3, 15696, Note_on_c, 1, 61, 79
3, 15706, Note_on_c, 1, 61, 0
3, 15708, Note_on_c, 1, 64, 79
3, 15718, Note_on_c, 1, 64, 0
3, 15720, Note_on_c, 1, 61, 79
3, 15730, Note_on_c, 1, 61, 0
3, 15732, Note_on_c, 1, 58, 79
3, 15742, Note_on_c, 1, 58, 0
3, 15744, Note_on_c, 1, 55, 79
3, 15754, Note_on_c, 1, 55, 0
3, 15756, Note_on_c, 1, 52, 79
3, 15766, Note_on_c, 1, 52, 0
3, 15768, Note_on_c, 1, 55, 79
3, 15778, Note_on_c, 1, 55, 0
3, 15780, Note_on_c, 1, 58, 79
3, 15790, Note_on_c, 1, 58, 0
3, 15792, Note_on_c, 1, 61, 79
3, 15802, Note_on_c, 1, 61, 0
3, 15804, Note_on_c, 1, 64, 79
3, 15814, Note_on_c, 1, 64, 0
3, 15816, Note_on_c, 1, 61, 79
3, 15826, Note_on_c, 1, 61, 0
3, 15828, Note_on_c, 1, 58, 79
3, 15838, Note_on_c, 1, 58, 0
3, 15840, Note_on_c, 1, 57, 79
3, 15850, Note_on_c, 1, 57, 0
3, 15852, Note_on_c, 1, 53, 79
3, 15862, Note_on_c, 1, 53, 0
3, 15864, Note_on_c, 1, 57, 79
3, 15874, Note_on_c, 1, 57, 0
3, 15876, Note_on_c, 1, 61, 79
3, 15886, Note_on_c, 1, 61, 0
3, 15888, Note_on_c, 1, 62, 79
3, 15898, Note_on_c, 1, 62, 0
3, 15900, Note_on_c, 1, 65, 79
3, 15910, Note_on_c, 1, 65, 0
3, 15912, Note_on_c, 1, 62, 79
3, 15922, Note_on_c, 1, 62, 0
3, 15924, Note_on_c, 1, 57, 79
3, 15934, Note_on_c, 1, 57, 0
3, 15936, Note_on_c, 1, 58, 79
3, 15946, Note_on_c, 1, 58, 0
3, 15948, Note_on_c, 1, 62, 79
3, 15958, Note_on_c, 1, 62, 0
3, 15960, Note_on_c, 1, 58, 79
3, 15970, Note_on_c, 1, 58, 0
3, 15972, Note_on_c, 1, 55, 79
3, 15982, Note_on_c, 1, 55, 0
3, 15984, Note_on_c, 1, 53, 79
3, 15994, Note_on_c, 1, 53, 0
3, 15996, Note_on_c, 1, 57, 79
3, 16006, Note_on_c, 1, 57, 0
3, 16008, Note_on_c, 1, 53, 79
3, 16018, Note_on_c, 1, 53, 0
3, 16020, Note_on_c, 1, 50, 79
3, 16030, Note_on_c, 1, 50, 0
3, 16032, Note_on_c, 1, 45, 79
3, 16042, Note_on_c, 1, 45, 0
3, 16044, Note_on_c, 1, 50, 79
3, 16054, Note_on_c, 1, 50, 0
3, 16056, Note_on_c, 1, 45, 79
3, 16066, Note_on_c, 1, 45, 0
3, 16068, Note_on_c, 1, 41, 79
3, 16078, Note_on_c, 1, 41, 0
3, 16080, Note_on_c, 1, 38, 79
3, 16090, Note_on_c, 1, 38, 0
3, 16092, Note_on_c, 1, 50, 79
3, 16102, Note_on_c, 1, 50, 0
3, 16104, Note_on_c, 1, 49, 79
3, 16114, Note_on_c, 1, 49, 0
3, 16116, Note_on_c, 1, 47, 79
3, 16126, Note_on_c, 1, 47, 0
3, 16128, Note_on_c, 1, 49, 79
3, 16138, Note_on_c, 1, 49, 0
3, 16140, Note_on_c, 1, 58, 79
3, 16150, Note_on_c, 1, 58, 0
3, 16152, Note_on_c, 1, 57, 79
3, 16162, Note_on_c, 1, 57, 0
3, 16164, Note_on_c, 1, 55, 79
3, 16174, Note_on_c, 1, 55, 0
3, 16176, Note_on_c, 1, 53, 79
3, 16186, Note_on_c, 1, 53, 0
3, 16188, Note_on_c, 1, 55, 79
3, 16198, Note_on_c, 1, 55, 0
3, 16200, Note_on_c, 1, 53, 79
3, 16210, Note_on_c, 1, 53, 0
3, 16212, Note_on_c, 1, 52, 79
3, 16222, Note_on_c, 1, 52, 0
3, 16224, Note_on_c, 1, 50, 79
3, 16234, Note_on_c, 1, 50, 0
3, 16236, Note_on_c, 1, 58, 79
3, 16246, Note_on_c, 1, 58, 0
3, 16248, Note_on_c, 1, 57, 79
3, 16258, Note_on_c, 1, 57, 0
3, 16260, Note_on_c, 1, 55, 79
3, 16270, Note_on_c, 1, 55, 0
3, 16272, Note_on_c, 1, 53, 79
3, 16282, Note_on_c, 1, 53, 0
3, 16284, Note_on_c, 1, 55, 79
3, 16294, Note_on_c, 1, 55, 0
3, 16296, Note_on_c, 1, 53, 79
3, 16306, Note_on_c, 1, 53, 0
3, 16308, Note_on_c, 1, 52, 79
3, 16318, Note_on_c, 1, 52, 0
3, 16320, Note_on_c, 1, 50, 79
3, 16330, Note_on_c, 1, 50, 0
3, 16332, Note_on_c, 1, 52, 79
3, 16337, Note_on_c, 1, 52, 0
3, 16338, Note_on_c, 1, 53, 79
3, 16343, Note_on_c, 1, 53, 0
3, 16344, Note_on_c, 1, 55, 79
3, 16349, Note_on_c, 1, 55, 0
3, 16350, Note_on_c, 1, 57, 79
3, 16355, Note_on_c, 1, 57, 0
3, 16356, Note_on_c, 1, 59, 79
3, 16361, Note_on_c, 1, 59, 0
3, 16362, Note_on_c, 1, 61, 79
3, 16367, Note_on_c, 1, 61, 0
3, 16368, Note_on_c, 1, 62, 79
3, 16378, Note_on_c, 1, 62, 0
3, 16380, Note_on_c, 1, 65, 79
3, 16390, Note_on_c, 1, 65, 0
3, 16392, Note_on_c, 1, 64, 79
3, 16402, Note_on_c, 1, 64, 0
3, 16404, Note_on_c, 1, 62, 79
3, 16414, Note_on_c, 1, 62, 0
3, 16416, Note_on_c, 1, 57, 79
3, 16416, Note_on_c, 1, 69, 79
3, 16426, Note_on_c, 1, 57, 0
3, 16426, Note_on_c, 1, 69, 0
3, 16428, Note_on_c, 1, 59, 79
3, 16433, Note_on_c, 1, 59, 0
3, 16434, Note_on_c, 1, 61, 79
3, 16439, Note_on_c, 1, 61, 0
3, 16440, Note_on_c, 1, 62, 79
3, 16445, Note_on_c, 1, 62, 0
3, 16446, Note_on_c, 1, 64, 79
3, 16451, Note_on_c, 1, 64, 0
3, 16452, Note_on_c, 1, 65, 79
3, 16457, Note_on_c, 1, 65, 0
3, 16458, Note_on_c, 1, 67, 79
3, 16463, Note_on_c, 1, 67, 0
3, 16464, Note_on_c, 1, 69, 79
3, 16474, Note_on_c, 1, 69, 0
3, 16476, Note_on_c, 1, 67, 79
3, 16476, Note_on_c, 1, 76, 79
3, 16486, Note_on_c, 1, 67, 0
3, 16486, Note_on_c, 1, 76, 0
3, 16488, Note_on_c, 1, 65, 79
3, 16488, Note_on_c, 1, 74, 79
3, 16498, Note_on_c, 1, 65, 0
3, 16498, Note_on_c, 1, 74, 0
3, 16500, Note_on_c, 1, 64, 79
3, 16500, Note_on_c, 1, 73, 79
3, 16510, Note_on_c, 1, 64, 0
3, 16510, Note_on_c, 1, 73, 0
3, 16512, Note_on_c, 1, 65, 79
3, 16512, Note_on_c, 1, 74, 79
3, 16522, Note_on_c, 1, 74, 0
3, 16524, Note_on_c, 1, 75, 79
3, 16529, Note_on_c, 1, 75, 0
3, 16530, Note_on_c, 1, 74, 79
3, 16532, Note_on_c, 1, 65, 0
3, 16535, Note_on_c, 1, 74, 0
3, 16536, Note_on_c, 1, 72, 79
3, 16541, Note_on_c, 1, 72, 0
3, 16542, Note_on_c, 1, 70, 79
3, 16547, Note_on_c, 1, 70, 0
3, 16548, Note_on_c, 1, 69, 79
3, 16553, Note_on_c, 1, 69, 0
3, 16554, Note_on_c, 1, 67, 79
3, 16559, Note_on_c, 1, 67, 0
3, 16560, Note_on_c, 1, 66, 79
3, 16572, Note_on_c, 1, 63, 79
3, 16580, Note_on_c, 1, 66, 0
3, 16582, Note_on_c, 1, 63, 0
3, 16584, Note_on_c, 1, 62, 79
3, 16584, Note_on_c, 1, 69, 79
3, 16594, Note_on_c, 1, 62, 0
3, 16596, Note_on_c, 1, 60, 79
3, 16606, Note_on_c, 1, 60, 0
3, 16608, Note_on_c, 1, 58, 79
3, 16620, Note_on_c, 1, 55, 79
3, 16624, Note_on_c, 1, 69, 0
3, 16628, Note_on_c, 1, 58, 0
3, 16630, Note_on_c, 1, 55, 0
3, 16632, Note_on_c, 1, 59, 79
3, 16632, Note_on_c, 1, 53, 79
3, 16632, Note_on_c, 1, 67, 79
3, 16642, Note_on_c, 1, 53, 0
3, 16644, Note_on_c, 1, 55, 79
3, 16652, Note_on_c, 1, 59, 0
3, 16652, Note_on_c, 1, 67, 0
3, 16654, Note_on_c, 1, 55, 0
3, 16656, Note_on_c, 1, 60, 79
3, 16656, Note_on_c, 1, 51, 79
3, 16656, Note_on_c, 1, 72, 79
3, 16666, Note_on_c, 1, 51, 0
3, 16668, Note_on_c, 1, 55, 79
3, 16676, Note_on_c, 1, 60, 0
3, 16676, Note_on_c, 1, 72, 0
3, 16678, Note_on_c, 1, 55, 0
3, 16680, Note_on_c, 1, 67, 79
3, 16680, Note_on_c, 1, 50, 79
3, 16680, Note_on_c, 1, 71, 79
3, 16690, Note_on_c, 1, 50, 0
3, 16692, Note_on_c, 1, 55, 79
3, 16700, Note_on_c, 1, 67, 0
3, 16700, Note_on_c, 1, 71, 0
3, 16702, Note_on_c, 1, 55, 0
3, 16704, Note_on_c, 1, 67, 79
3, 16704, Note_on_c, 1, 48, 79
3, 16704, Note_on_c, 1, 75, 79
3, 16707, Note_on_c, 1, 67, 0
3, 16708, Note_on_c, 1, 69, 79
3, 16711, Note_on_c, 1, 69, 0
3, 16712, Note_on_c, 1, 67, 79
3, 16714, Note_on_c, 1, 48, 0
3, 16715, Note_on_c, 1, 67, 0
3, 16716, Note_on_c, 1, 55, 79
3, 16716, Note_on_c, 1, 69, 79
3, 16719, Note_on_c, 1, 69, 0
3, 16720, Note_on_c, 1, 67, 79
3, 16723, Note_on_c, 1, 67, 0
3, 16724, Note_on_c, 1, 75, 0
3, 16724, Note_on_c, 1, 69, 79
3, 16726, Note_on_c, 1, 55, 0
3, 16727, Note_on_c, 1, 69, 0
3, 16728, Note_on_c, 1, 67, 79
3, 16728, Note_on_c, 1, 47, 79
3, 16728, Note_on_c, 1, 74, 79
3, 16731, Note_on_c, 1, 67, 0
3, 16732, Note_on_c, 1, 69, 79
3, 16735, Note_on_c, 1, 69, 0
3, 16736, Note_on_c, 1, 67, 79
3, 16738, Note_on_c, 1, 47, 0
3, 16739, Note_on_c, 1, 67, 0
3, 16740, Note_on_c, 1, 55, 79
3, 16740, Note_on_c, 1, 69, 79
3, 16743, Note_on_c, 1, 69, 0
3, 16744, Note_on_c, 1, 67, 79
3, 16747, Note_on_c, 1, 67, 0
3, 16748, Note_on_c, 1, 74, 0
3, 16748, Note_on_c, 1, 69, 79
3, 16750, Note_on_c, 1, 55, 0
3, 16751, Note_on_c, 1, 69, 0
3, 16752, Note_on_c, 1, 67, 79
3, 16752, Note_on_c, 1, 48, 79
3, 16752, Note_on_c, 1, 75, 79
3, 16755, Note_on_c, 1, 67, 0
3, 16756, Note_on_c, 1, 69, 79
3, 16759, Note_on_c, 1, 69, 0
3, 16760, Note_on_c, 1, 67, 79
3, 16762, Note_on_c, 1, 48, 0
3, 16763, Note_on_c, 1, 67, 0
3, 16764, Note_on_c, 1, 55, 79
3, 16764, Note_on_c, 1, 69, 79
3, 16767, Note_on_c, 1, 69, 0
3, 16768, Note_on_c, 1, 67, 79
3, 16771, Note_on_c, 1, 67, 0
3, 16772, Note_on_c, 1, 75, 0
3, 16772, Note_on_c, 1, 69, 79
3, 16774, Note_on_c, 1, 55, 0
3, 16775, Note_on_c, 1, 69, 0
3, 16776, Note_on_c, 1, 67, 79
3, 16776, Note_on_c, 1, 50, 79
3, 16776, Note_on_c, 1, 71, 79
3, 16779, Note_on_c, 1, 67, 0
3, 16780, Note_on_c, 1, 69, 79
3, 16783, Note_on_c, 1, 69, 0
3, 16784, Note_on_c, 1, 67, 79
3, 16786, Note_on_c, 1, 50, 0
3, 16787, Note_on_c, 1, 67, 0
3, 16788, Note_on_c, 1, 55, 79
3, 16788, Note_on_c, 1, 69, 79
3, 16791, Note_on_c, 1, 69, 0
3, 16792, Note_on_c, 1, 67, 79
3, 16795, Note_on_c, 1, 67, 0
3, 16796, Note_on_c, 1, 71, 0
3, 16796, Note_on_c, 1, 69, 79
3, 16798, Note_on_c, 1, 55, 0
3, 16799, Note_on_c, 1, 69, 0
3, 16800, Note_on_c, 1, 67, 79
3, 16800, Note_on_c, 1, 51, 79
3, 16800, Note_on_c, 1, 72, 79
3, 16803, Note_on_c, 1, 67, 0
3, 16804, Note_on_c, 1, 69, 79
3, 16807, Note_on_c, 1, 69, 0
3, 16808, Note_on_c, 1, 67, 79
3, 16810, Note_on_c, 1, 51, 0
3, 16811, Note_on_c, 1, 67, 0
3, 16812, Note_on_c, 1, 55, 79
3, 16812, Note_on_c, 1, 69, 79
3, 16815, Note_on_c, 1, 69, 0
3, 16816, Note_on_c, 1, 67, 79
3, 16819, Note_on_c, 1, 67, 0
3, 16820, Note_on_c, 1, 72, 0
3, 16820, Note_on_c, 1, 69, 79
3, 16822, Note_on_c, 1, 55, 0
3, 16823, Note_on_c, 1, 69, 0
3, 16824, Note_on_c, 1, 67, 79
3, 16824, Note_on_c, 1, 43, 79
3, 16824, Note_on_c, 1, 71, 79
3, 16827, Note_on_c, 1, 67, 0
3, 16828, Note_on_c, 1, 69, 79
3, 16831, Note_on_c, 1, 69, 0
3, 16832, Note_on_c, 1, 67, 79
3, 16834, Note_on_c, 1, 43, 0
3, 16835, Note_on_c, 1, 67, 0
3, 16836, Note_on_c, 1, 55, 79
3, 16836, Note_on_c, 1, 69, 79
3, 16839, Note_on_c, 1, 69, 0
3, 16840, Note_on_c, 1, 67, 79
3, 16843, Note_on_c, 1, 67, 0
3, 16844, Note_on_c, 1, 71, 0
3, 16844, Note_on_c, 1, 69, 79
3, 16846, Note_on_c, 1, 55, 0
3, 16847, Note_on_c, 1, 69, 0
3, 16848, Note_on_c, 1, 67, 79
3, 16848, Note_on_c, 1, 45, 79
3, 16848, Note_on_c, 1, 72, 79
3, 16851, Note_on_c, 1, 67, 0
3, 16852, Note_on_c, 1, 69, 79
3, 16855, Note_on_c, 1, 69, 0
3, 16856, Note_on_c, 1, 67, 79
3, 16858, Note_on_c, 1, 45, 0
3, 16859, Note_on_c, 1, 67, 0
3, 16860, Note_on_c, 1, 55, 79
3, 16860, Note_on_c, 1, 69, 79
3, 16863, Note_on_c, 1, 69, 0
3, 16864, Note_on_c, 1, 67, 79
3, 16867, Note_on_c, 1, 67, 0
3, 16868, Note_on_c, 1, 72, 0
3, 16868, Note_on_c, 1, 69, 79
3, 16870, Note_on_c, 1, 55, 0
3, 16871, Note_on_c, 1, 69, 0
3, 16872, Note_on_c, 1, 67, 79
3, 16872, Note_on_c, 1, 47, 79
3, 16872, Note_on_c, 1, 74, 79
3, 16875, Note_on_c, 1, 67, 0
3, 16876, Note_on_c, 1, 69, 79
3, 16879, Note_on_c, 1, 69, 0
3, 16880, Note_on_c, 1, 67, 79
3, 16882, Note_on_c, 1, 47, 0
3, 16883, Note_on_c, 1, 67, 0
3, 16884, Note_on_c, 1, 55, 79
3, 16884, Note_on_c, 1, 69, 79
3, 16887, Note_on_c, 1, 69, 0
3, 16888, Note_on_c, 1, 67, 79
3, 16891, Note_on_c, 1, 67, 0
3, 16892, Note_on_c, 1, 74, 0
3, 16892, Note_on_c, 1, 69, 79
3, 16894, Note_on_c, 1, 55, 0
3, 16895, Note_on_c, 1, 69, 0
3, 16896, Note_on_c, 1, 67, 79
3, 16896, Note_on_c, 1, 48, 79
3, 16896, Note_on_c, 1, 75, 79
3, 16899, Note_on_c, 1, 67, 0
3, 16900, Note_on_c, 1, 69, 79
3, 16903, Note_on_c, 1, 69, 0
3, 16904, Note_on_c, 1, 67, 79
3, 16906, Note_on_c, 1, 48, 0
3, 16907, Note_on_c, 1, 67, 0
3, 16908, Note_on_c, 1, 55, 79
3, 16908, Note_on_c, 1, 69, 79
3, 16911, Note_on_c, 1, 69, 0
3, 16912, Note_on_c, 1, 67, 79
3, 16915, Note_on_c, 1, 67, 0
3, 16916, Note_on_c, 1, 75, 0
3, 16916, Note_on_c, 1, 69, 79
3, 16918, Note_on_c, 1, 55, 0
3, 16919, Note_on_c, 1, 69, 0
3, 16920, Note_on_c, 1, 67, 79
3, 16920, Note_on_c, 1, 47, 79
3, 16920, Note_on_c, 1, 74, 79
3, 16923, Note_on_c, 1, 67, 0
3, 16924, Note_on_c, 1, 69, 79
3, 16927, Note_on_c, 1, 69, 0
3, 16928, Note_on_c, 1, 67, 79
3, 16930, Note_on_c, 1, 47, 0
3, 16931, Note_on_c, 1, 67, 0
3, 16932, Note_on_c, 1, 55, 79
3, 16932, Note_on_c, 1, 69, 79
3, 16935, Note_on_c, 1, 69, 0
3, 16936, Note_on_c, 1, 67, 79
3, 16939, Note_on_c, 1, 67, 0
3, 16940, Note_on_c, 1, 74, 0
3, 16940, Note_on_c, 1, 69, 79
3, 16942, Note_on_c, 1, 55, 0
3, 16943, Note_on_c, 1, 69, 0
3, 16944, Note_on_c, 1, 67, 79
3, 16944, Note_on_c, 1, 48, 79
3, 16944, Note_on_c, 1, 75, 79
3, 16947, Note_on_c, 1, 67, 0
3, 16948, Note_on_c, 1, 69, 79
3, 16951, Note_on_c, 1, 69, 0
3, 16952, Note_on_c, 1, 67, 79
3, 16954, Note_on_c, 1, 48, 0
3, 16955, Note_on_c, 1, 67, 0
3, 16956, Note_on_c, 1, 55, 79
3, 16956, Note_on_c, 1, 69, 79
3, 16959, Note_on_c, 1, 69, 0
3, 16960, Note_on_c, 1, 67, 79
3, 16963, Note_on_c, 1, 67, 0
3, 16964, Note_on_c, 1, 75, 0
3, 16964, Note_on_c, 1, 69, 79
3, 16966, Note_on_c, 1, 55, 0
3, 16967, Note_on_c, 1, 69, 0
3, 16968, Note_on_c, 1, 67, 79
3, 16968, Note_on_c, 1, 50, 79
3, 16968, Note_on_c, 1, 77, 79
3, 16971, Note_on_c, 1, 67, 0
3, 16972, Note_on_c, 1, 69, 79
3, 16975, Note_on_c, 1, 69, 0
3, 16976, Note_on_c, 1, 67, 79
3, 16978, Note_on_c, 1, 50, 0
3, 16979, Note_on_c, 1, 67, 0
3, 16980, Note_on_c, 1, 55, 79
3, 16980, Note_on_c, 1, 69, 79
3, 16983, Note_on_c, 1, 69, 0
3, 16984, Note_on_c, 1, 67, 79
3, 16987, Note_on_c, 1, 67, 0
3, 16988, Note_on_c, 1, 77, 0
3, 16988, Note_on_c, 1, 69, 79
3, 16990, Note_on_c, 1, 55, 0
3, 16991, Note_on_c, 1, 69, 0
3, 16992, Note_on_c, 1, 51, 79
3, 16992, Note_on_c, 1, 67, 79
3, 16992, Note_on_c, 1, 79, 79
3, 16995, Note_on_c, 1, 79, 0
3, 16996, Note_on_c, 1, 75, 79
3, 16999, Note_on_c, 1, 75, 0
3, 17000, Note_on_c, 1, 79, 79
3, 17002, Note_on_c, 1, 67, 0
3, 17003, Note_on_c, 1, 79, 0
3, 17004, Note_on_c, 1, 67, 79
3, 17004, Note_on_c, 1, 75, 79
3, 17007, Note_on_c, 1, 75, 0
3, 17008, Note_on_c, 1, 79, 79
3, 17011, Note_on_c, 1, 79, 0
3, 17012, Note_on_c, 1, 51, 0
3, 17012, Note_on_c, 1, 75, 79
3, 17014, Note_on_c, 1, 67, 0
3, 17015, Note_on_c, 1, 75, 0
3, 17016, Note_on_c, 1, 50, 79
3, 17016, Note_on_c, 1, 64, 79
3, 17016, Note_on_c, 1, 79, 79
3, 17019, Note_on_c, 1, 79, 0
3, 17020, Note_on_c, 1, 75, 79
3, 17023, Note_on_c, 1, 75, 0
3, 17024, Note_on_c, 1, 79, 79
3, 17026, Note_on_c, 1, 64, 0
3, 17027, Note_on_c, 1, 79, 0
3, 17028, Note_on_c, 1, 67, 79
3, 17028, Note_on_c, 1, 75, 79
3, 17031, Note_on_c, 1, 75, 0
3, 17032, Note_on_c, 1, 79, 79
3, 17035, Note_on_c, 1, 79, 0
3, 17036, Note_on_c, 1, 50, 0
3, 17036, Note_on_c, 1, 75, 79
3, 17038, Note_on_c, 1, 67, 0
3, 17039, Note_on_c, 1, 75, 0
3, 17040, Note_on_c, 1, 48, 79
3, 17040, Note_on_c, 1, 63, 79
3, 17040, Note_on_c, 1, 79, 79
3, 17043, Note_on_c, 1, 79, 0
3, 17044, Note_on_c, 1, 75, 79
3, 17047, Note_on_c, 1, 75, 0
3, 17048, Note_on_c, 1, 79, 79
3, 17050, Note_on_c, 1, 63, 0
3, 17051, Note_on_c, 1, 79, 0
3, 17052, Note_on_c, 1, 67, 79
3, 17052, Note_on_c, 1, 75, 79
3, 17055, Note_on_c, 1, 75, 0
3, 17056, Note_on_c, 1, 79, 79
3, 17059, Note_on_c, 1, 79, 0
3, 17060, Note_on_c, 1, 48, 0
3, 17060, Note_on_c, 1, 75, 79
3, 17062, Note_on_c, 1, 67, 0
3, 17063, Note_on_c, 1, 75, 0
3, 17064, Note_on_c, 1, 47, 79
3, 17064, Note_on_c, 1, 62, 79
3, 17064, Note_on_c, 1, 79, 79
3, 17067, Note_on_c, 1, 79, 0
3, 17068, Note_on_c, 1, 75, 79
3, 17071, Note_on_c, 1, 75, 0
3, 17072, Note_on_c, 1, 79, 79
3, 17074, Note_on_c, 1, 62, 0
3, 17075, Note_on_c, 1, 79, 0
3, 17076, Note_on_c, 1, 67, 79
3, 17076, Note_on_c, 1, 75, 79
3, 17079, Note_on_c, 1, 75, 0
3, 17080, Note_on_c, 1, 79, 79
3, 17083, Note_on_c, 1, 79, 0
3, 17084, Note_on_c, 1, 47, 0
3, 17084, Note_on_c, 1, 75, 79
3, 17086, Note_on_c, 1, 67, 0
3, 17087, Note_on_c, 1, 75, 0
3, 17088, Note_on_c, 1, 60, 79
3, 17088, Note_on_c, 1, 48, 79
3, 17088, Note_on_c, 1, 79, 79
3, 17091, Note_on_c, 1, 79, 0
3, 17092, Note_on_c, 1, 77, 79
3, 17095, Note_on_c, 1, 77, 0
3, 17096, Note_on_c, 1, 79, 79
3, 17097, Note_on_c, 1, 60, 0
3, 17099, Note_on_c, 1, 79, 0
3, 17100, Note_on_c, 1, 67, 79
3, 17100, Note_on_c, 1, 77, 79
3, 17103, Note_on_c, 1, 77, 0
3, 17104, Note_on_c, 1, 79, 79
3, 17106, Note_on_c, 1, 48, 0
3, 17107, Note_on_c, 1, 79, 0
3, 17108, Note_on_c, 1, 77, 79
3, 17109, Note_on_c, 1, 67, 0
3, 17111, Note_on_c, 1, 77, 0
3, 17112, Note_on_c, 1, 59, 79
3, 17112, Note_on_c, 1, 50, 79
3, 17112, Note_on_c, 1, 79, 79
3, 17115, Note_on_c, 1, 79, 0
3, 17116, Note_on_c, 1, 77, 79
3, 17119, Note_on_c, 1, 77, 0
3, 17120, Note_on_c, 1, 79, 79
3, 17121, Note_on_c, 1, 59, 0
3, 17123, Note_on_c, 1, 79, 0
3, 17124, Note_on_c, 1, 67, 79
3, 17124, Note_on_c, 1, 77, 79
3, 17127, Note_on_c, 1, 77, 0
3, 17128, Note_on_c, 1, 79, 79
3, 17130, Note_on_c, 1, 50, 0
3, 17131, Note_on_c, 1, 79, 0
3, 17132, Note_on_c, 1, 77, 79
3, 17133, Note_on_c, 1, 67, 0
3, 17135, Note_on_c, 1, 77, 0
3, 17136, Note_on_c, 1, 60, 79
3, 17136, Note_on_c, 1, 51, 79
3, 17136, Note_on_c, 1, 79, 79
3, 17139, Note_on_c, 1, 79, 0
3, 17140, Note_on_c, 1, 77, 79
3, 17143, Note_on_c, 1, 77, 0
3, 17144, Note_on_c, 1, 79, 79
3, 17145, Note_on_c, 1, 60, 0
3, 17147, Note_on_c, 1, 79, 0
3, 17148, Note_on_c, 1, 67, 79
3, 17148, Note_on_c, 1, 77, 79
3, 17151, Note_on_c, 1, 77, 0
3, 17152, Note_on_c, 1, 79, 79
3, 17154, Note_on_c, 1, 51, 0
3, 17155, Note_on_c, 1, 79, 0
3, 17156, Note_on_c, 1, 77, 79
3, 17157, Note_on_c, 1, 67, 0
3, 17159, Note_on_c, 1, 77, 0
3, 17160, Note_on_c, 1, 62, 79
3, 17160, Note_on_c, 1, 53, 79
3, 17160, Note_on_c, 1, 79, 79
3, 17163, Note_on_c, 1, 79, 0
3, 17164, Note_on_c, 1, 77, 79
3, 17167, Note_on_c, 1, 77, 0
3, 17168, Note_on_c, 1, 79, 79
3, 17169, Note_on_c, 1, 62, 0
3, 17171, Note_on_c, 1, 79, 0
3, 17172, Note_on_c, 1, 67, 79
3, 17172, Note_on_c, 1, 77, 79
3, 17175, Note_on_c, 1, 77, 0
3, 17176, Note_on_c, 1, 79, 79
3, 17178, Note_on_c, 1, 53, 0
3, 17179, Note_on_c, 1, 79, 0
3, 17180, Note_on_c, 1, 77, 79
3, 17181, Note_on_c, 1, 67, 0
3, 17183, Note_on_c, 1, 77, 0
3, 17184, Note_on_c, 1, 63, 79
3, 17184, Note_on_c, 1, 55, 79
3, 17184, Note_on_c, 1, 79, 79
3, 17187, Note_on_c, 1, 79, 0
3, 17188, Note_on_c, 1, 77, 79
3, 17191, Note_on_c, 1, 77, 0
3, 17192, Note_on_c, 1, 79, 79
3, 17193, Note_on_c, 1, 63, 0
3, 17195, Note_on_c, 1, 79, 0
3, 17196, Note_on_c, 1, 67, 79
3, 17196, Note_on_c, 1, 77, 79
3, 17199, Note_on_c, 1, 77, 0
3, 17200, Note_on_c, 1, 79, 79
3, 17202, Note_on_c, 1, 55, 0
3, 17203, Note_on_c, 1, 79, 0
3, 17204, Note_on_c, 1, 77, 79
3, 17205, Note_on_c, 1, 67, 0
3, 17207, Note_on_c, 1, 77, 0
3, 17208, Note_on_c, 1, 55, 79
3, 17208, Note_on_c, 1, 47, 79
3, 17208, Note_on_c, 1, 79, 79
3, 17211, Note_on_c, 1, 79, 0
3, 17212, Note_on_c, 1, 77, 79
3, 17215, Note_on_c, 1, 77, 0
3, 17216, Note_on_c, 1, 79, 79
3, 17217, Note_on_c, 1, 55, 0
3, 17219, Note_on_c, 1, 79, 0
3, 17220, Note_on_c, 1, 67, 79
3, 17220, Note_on_c, 1, 77, 79
3, 17223, Note_on_c, 1, 77, 0
3, 17224, Note_on_c, 1, 79, 79
3, 17226, Note_on_c, 1, 47, 0
3, 17227, Note_on_c, 1, 79, 0
3, 17228, Note_on_c, 1, 77, 79
3, 17229, Note_on_c, 1, 67, 0
3, 17231, Note_on_c, 1, 77, 0
3, 17232, Note_on_c, 1, 57, 79
3, 17232, Note_on_c, 1, 48, 79
3, 17232, Note_on_c, 1, 79, 79
3, 17235, Note_on_c, 1, 79, 0
3, 17236, Note_on_c, 1, 77, 79
3, 17239, Note_on_c, 1, 77, 0
3, 17240, Note_on_c, 1, 79, 79
3, 17241, Note_on_c, 1, 57, 0
3, 17243, Note_on_c, 1, 79, 0
3, 17244, Note_on_c, 1, 67, 79
3, 17244, Note_on_c, 1, 77, 79
3, 17247, Note_on_c, 1, 77, 0
3, 17248, Note_on_c, 1, 79, 79
3, 17250, Note_on_c, 1, 48, 0
3, 17251, Note_on_c, 1, 79, 0
3, 17252, Note_on_c, 1, 77, 79
3, 17253, Note_on_c, 1, 67, 0
3, 17255, Note_on_c, 1, 77, 0
3, 17256, Note_on_c, 1, 59, 79
3, 17256, Note_on_c, 1, 50, 79
3, 17256, Note_on_c, 1, 79, 79
3, 17259, Note_on_c, 1, 79, 0
3, 17260, Note_on_c, 1, 77, 79
3, 17263, Note_on_c, 1, 77, 0
3, 17264, Note_on_c, 1, 79, 79
3, 17265, Note_on_c, 1, 59, 0
3, 17267, Note_on_c, 1, 79, 0
3, 17268, Note_on_c, 1, 67, 79
3, 17268, Note_on_c, 1, 77, 79
3, 17271, Note_on_c, 1, 77, 0
3, 17272, Note_on_c, 1, 79, 79
3, 17274, Note_on_c, 1, 50, 0
3, 17275, Note_on_c, 1, 79, 0
3, 17276, Note_on_c, 1, 77, 79
3, 17277, Note_on_c, 1, 67, 0
3, 17279, Note_on_c, 1, 77, 0
3, 17280, Note_on_c, 1, 60, 79
3, 17280, Note_on_c, 1, 51, 79
3, 17280, Note_on_c, 1, 79, 79
3, 17283, Note_on_c, 1, 79, 0
3, 17284, Note_on_c, 1, 77, 79
3, 17287, Note_on_c, 1, 77, 0
3, 17288, Note_on_c, 1, 79, 79
3, 17289, Note_on_c, 1, 60, 0
3, 17291, Note_on_c, 1, 79, 0
3, 17292, Note_on_c, 1, 67, 79
3, 17292, Note_on_c, 1, 77, 79
3, 17295, Note_on_c, 1, 77, 0
3, 17296, Note_on_c, 1, 79, 79
3, 17298, Note_on_c, 1, 51, 0
3, 17299, Note_on_c, 1, 79, 0
3, 17300, Note_on_c, 1, 77, 79
3, 17301, Note_on_c, 1, 67, 0
3, 17303, Note_on_c, 1, 77, 0
3, 17304, Note_on_c, 1, 59, 79
3, 17304, Note_on_c, 1, 50, 79
3, 17304, Note_on_c, 1, 79, 79
3, 17307, Note_on_c, 1, 79, 0
3, 17308, Note_on_c, 1, 77, 79
3, 17311, Note_on_c, 1, 77, 0
3, 17312, Note_on_c, 1, 79, 79
3, 17313, Note_on_c, 1, 59, 0
3, 17315, Note_on_c, 1, 79, 0
3, 17316, Note_on_c, 1, 67, 79
3, 17316, Note_on_c, 1, 77, 79
3, 17319, Note_on_c, 1, 77, 0
3, 17320, Note_on_c, 1, 79, 79
3, 17322, Note_on_c, 1, 50, 0
3, 17323, Note_on_c, 1, 79, 0
3, 17324, Note_on_c, 1, 77, 79
3, 17325, Note_on_c, 1, 67, 0
3, 17327, Note_on_c, 1, 77, 0
3, 17328, Note_on_c, 1, 60, 79
3, 17328, Note_on_c, 1, 51, 79
3, 17328, Note_on_c, 1, 79, 79
3, 17331, Note_on_c, 1, 79, 0
3, 17332, Note_on_c, 1, 77, 79
3, 17335, Note_on_c, 1, 77, 0
3, 17336, Note_on_c, 1, 79, 79
3, 17337, Note_on_c, 1, 60, 0
3, 17339, Note_on_c, 1, 79, 0
3, 17340, Note_on_c, 1, 67, 79
3, 17340, Note_on_c, 1, 77, 79
3, 17343, Note_on_c, 1, 77, 0
3, 17344, Note_on_c, 1, 79, 79
3, 17346, Note_on_c, 1, 51, 0
3, 17347, Note_on_c, 1, 79, 0
3, 17348, Note_on_c, 1, 77, 79
3, 17349, Note_on_c, 1, 67, 0
3, 17351, Note_on_c, 1, 77, 0
3, 17352, Note_on_c, 1, 62, 79
3, 17352, Note_on_c, 1, 53, 79
3, 17352, Note_on_c, 1, 79, 79
3, 17355, Note_on_c, 1, 79, 0
3, 17356, Note_on_c, 1, 77, 79
3, 17359, Note_on_c, 1, 77, 0
3, 17360, Note_on_c, 1, 79, 79
3, 17361, Note_on_c, 1, 62, 0
3, 17363, Note_on_c, 1, 79, 0
3, 17364, Note_on_c, 1, 67, 79
3, 17364, Note_on_c, 1, 77, 79
3, 17367, Note_on_c, 1, 77, 0
3, 17368, Note_on_c, 1, 79, 79
3, 17370, Note_on_c, 1, 53, 0
3, 17371, Note_on_c, 1, 79, 0
3, 17372, Note_on_c, 1, 77, 79
3, 17373, Note_on_c, 1, 67, 0
3, 17375, Note_on_c, 1, 77, 0
3, 17376, Note_on_c, 1, 63, 79
3, 17376, Note_on_c, 1, 55, 79
3, 17376, Note_on_c, 1, 79, 79
3, 17385, Note_on_c, 1, 79, 0
3, 17388, Note_on_c, 1, 79, 79
3, 17394, Note_on_c, 1, 55, 0
3, 17394, Note_on_c, 1, 63, 0
3, 17397, Note_on_c, 1, 79, 0
3, 17400, Note_on_c, 1, 62, 79
3, 17400, Note_on_c, 1, 47, 79
3, 17400, Note_on_c, 1, 77, 79
3, 17409, Note_on_c, 1, 77, 0
3, 17412, Note_on_c, 1, 79, 79
3, 17418, Note_on_c, 1, 47, 0
3, 17418, Note_on_c, 1, 62, 0
3, 17421, Note_on_c, 1, 79, 0
3, 17424, Note_on_c, 1, 67, 79
3, 17424, Note_on_c, 1, 48, 79
3, 17424, Note_on_c, 1, 75, 79
3, 17433, Note_on_c, 1, 67, 0
3, 17433, Note_on_c, 1, 75, 0
3, 17436, Note_on_c, 1, 68, 79
3, 17436, Note_on_c, 1, 77, 79
3, 17442, Note_on_c, 1, 48, 0
3, 17445, Note_on_c, 1, 68, 0
3, 17445, Note_on_c, 1, 77, 0
3, 17448, Note_on_c, 1, 65, 79
3, 17448, Note_on_c, 1, 50, 79
3, 17448, Note_on_c, 1, 74, 79
3, 17457, Note_on_c, 1, 65, 0
3, 17457, Note_on_c, 1, 74, 0
3, 17460, Note_on_c, 1, 67, 79
3, 17460, Note_on_c, 1, 75, 79
3, 17466, Note_on_c, 1, 50, 0
3, 17469, Note_on_c, 1, 67, 0
3, 17469, Note_on_c, 1, 75, 0
3, 17472, Note_on_c, 1, 63, 79
3, 17472, Note_on_c, 1, 51, 79
3, 17472, Note_on_c, 1, 72, 79
3, 17482, Note_on_c, 1, 72, 0
3, 17484, Note_on_c, 1, 77, 79
3, 17492, Note_on_c, 1, 51, 0
3, 17492, Note_on_c, 1, 63, 0
3, 17494, Note_on_c, 1, 77, 0
3, 17496, Note_on_c, 1, 60, 79
3, 17496, Note_on_c, 1, 45, 79
3, 17496, Note_on_c, 1, 75, 79
3, 17506, Note_on_c, 1, 75, 0
3, 17508, Note_on_c, 1, 77, 79
3, 17516, Note_on_c, 1, 45, 0
3, 17516, Note_on_c, 1, 60, 0
3, 17518, Note_on_c, 1, 77, 0
3, 17520, Note_on_c, 1, 65, 79
3, 17520, Note_on_c, 1, 46, 79
3, 17520, Note_on_c, 1, 74, 79
3, 17530, Note_on_c, 1, 65, 0
3, 17530, Note_on_c, 1, 74, 0
3, 17532, Note_on_c, 1, 67, 79
3, 17532, Note_on_c, 1, 75, 79
3, 17540, Note_on_c, 1, 46, 0
3, 17542, Note_on_c, 1, 67, 0
3, 17542, Note_on_c, 1, 75, 0
3, 17544, Note_on_c, 1, 64, 79
3, 17544, Note_on_c, 1, 48, 79
3, 17544, Note_on_c, 1, 72, 79
3, 17554, Note_on_c, 1, 64, 0
3, 17554, Note_on_c, 1, 72, 0
3, 17556, Note_on_c, 1, 65, 79
3, 17556, Note_on_c, 1, 74, 79
3, 17564, Note_on_c, 1, 48, 0
3, 17566, Note_on_c, 1, 65, 0
3, 17566, Note_on_c, 1, 74, 0
3, 17568, Note_on_c, 1, 62, 79
3, 17568, Note_on_c, 1, 50, 79
3, 17568, Note_on_c, 1, 70, 79
3, 17578, Note_on_c, 1, 70, 0
3, 17580, Note_on_c, 1, 75, 79
3, 17588, Note_on_c, 1, 50, 0
3, 17588, Note_on_c, 1, 62, 0
3, 17590, Note_on_c, 1, 75, 0
3, 17592, Note_on_c, 1, 58, 79
3, 17592, Note_on_c, 1, 43, 79
3, 17592, Note_on_c, 1, 74, 79
3, 17602, Note_on_c, 1, 74, 0
3, 17604, Note_on_c, 1, 75, 79
3, 17612, Note_on_c, 1, 43, 0
3, 17612, Note_on_c, 1, 58, 0
3, 17614, Note_on_c, 1, 75, 0
3, 17616, Note_on_c, 1, 64, 79
3, 17616, Note_on_c, 1, 45, 79
3, 17616, Note_on_c, 1, 72, 79
3, 17626, Note_on_c, 1, 64, 0
3, 17626, Note_on_c, 1, 72, 0
3, 17628, Note_on_c, 1, 65, 79
3, 17628, Note_on_c, 1, 74, 79
3, 17636, Note_on_c, 1, 45, 0
3, 17638, Note_on_c, 1, 65, 0
3, 17638, Note_on_c, 1, 74, 0
3, 17640, Note_on_c, 1, 62, 79
3, 17640, Note_on_c, 1, 46, 79
3, 17640, Note_on_c, 1, 70, 79
3, 17650, Note_on_c, 1, 62, 0
3, 17650, Note_on_c, 1, 70, 0
3, 17652, Note_on_c, 1, 64, 79
3, 17652, Note_on_c, 1, 72, 79
3, 17660, Note_on_c, 1, 46, 0
3, 17662, Note_on_c, 1, 64, 0
3, 17662, Note_on_c, 1, 72, 0
3, 17664, Note_on_c, 1, 60, 79
3, 17664, Note_on_c, 1, 48, 79
3, 17664, Note_on_c, 1, 69, 79
3, 17674, Note_on_c, 1, 69, 0
3, 17676, Note_on_c, 1, 74, 79
3, 17684, Note_on_c, 1, 48, 0
3, 17684, Note_on_c, 1, 60, 0
3, 17686, Note_on_c, 1, 74, 0
3, 17688, Note_on_c, 1, 66, 79
3, 17688, Note_on_c, 1, 50, 79
3, 17688, Note_on_c, 1, 72, 79
3, 17698, Note_on_c, 1, 72, 0
3, 17700, Note_on_c, 1, 74, 79
3, 17708, Note_on_c, 1, 50, 0
3, 17708, Note_on_c, 1, 66, 0
3, 17710, Note_on_c, 1, 74, 0
3, 17712, Note_on_c, 1, 67, 79
3, 17712, Note_on_c, 1, 55, 79
3, 17712, Note_on_c, 1, 70, 79
3, 17722, Note_on_c, 1, 67, 0
3, 17722, Note_on_c, 1, 70, 0
3, 17724, Note_on_c, 1, 69, 79
3, 17724, Note_on_c, 1, 72, 79
3, 17732, Note_on_c, 1, 55, 0
3, 17734, Note_on_c, 1, 69, 0
3, 17734, Note_on_c, 1, 72, 0
3, 17736, Note_on_c, 1, 65, 79
3, 17736, Note_on_c, 1, 50, 79
3, 17736, Note_on_c, 1, 69, 79
3, 17746, Note_on_c, 1, 65, 0
3, 17746, Note_on_c, 1, 69, 0
3, 17748, Note_on_c, 1, 67, 79
3, 17748, Note_on_c, 1, 70, 79
3, 17756, Note_on_c, 1, 50, 0
3, 17758, Note_on_c, 1, 67, 0
3, 17758, Note_on_c, 1, 70, 0
3, 17760, Note_on_c, 1, 63, 79
3, 17760, Note_on_c, 1, 51, 79
3, 17760, Note_on_c, 1, 67, 79
3, 17770, Note_on_c, 1, 63, 0
3, 17770, Note_on_c, 1, 67, 0
3, 17772, Note_on_c, 1, 67, 79
3, 17772, Note_on_c, 1, 70, 79
3, 17780, Note_on_c, 1, 51, 0
3, 17782, Note_on_c, 1, 67, 0
3, 17782, Note_on_c, 1, 70, 0
3, 17784, Note_on_c, 1, 66, 79
3, 17784, Note_on_c, 1, 46, 79
3, 17784, Note_on_c, 1, 69, 79
3, 17794, Note_on_c, 1, 66, 0
3, 17794, Note_on_c, 1, 69, 0
3, 17796, Note_on_c, 1, 67, 79
3, 17796, Note_on_c, 1, 70, 79
3, 17804, Note_on_c, 1, 46, 0
3, 17806, Note_on_c, 1, 67, 0
3, 17806, Note_on_c, 1, 70, 0
3, 17808, Note_on_c, 1, 69, 79
3, 17808, Note_on_c, 1, 45, 79
3, 17808, Note_on_c, 1, 72, 79
3, 17818, Note_on_c, 1, 69, 0
3, 17818, Note_on_c, 1, 72, 0
3, 17820, Note_on_c, 1, 67, 79
3, 17820, Note_on_c, 1, 70, 79
3, 17828, Note_on_c, 1, 45, 0
3, 17830, Note_on_c, 1, 67, 0
3, 17830, Note_on_c, 1, 70, 0
3, 17832, Note_on_c, 1, 66, 79
3, 17832, Note_on_c, 1, 48, 79
3, 17832, Note_on_c, 1, 69, 79
3, 17842, Note_on_c, 1, 66, 0
3, 17842, Note_on_c, 1, 69, 0
3, 17844, Note_on_c, 1, 64, 79
3, 17844, Note_on_c, 1, 67, 79
3, 17852, Note_on_c, 1, 48, 0
3, 17854, Note_on_c, 1, 64, 0
3, 17854, Note_on_c, 1, 67, 0
3, 17856, Note_on_c, 1, 50, 79
3, 17856, Note_on_c, 1, 66, 79
3, 17868, Note_on_c, 1, 62, 79
3, 17876, Note_on_c, 1, 66, 0
3, 17878, Note_on_c, 1, 62, 0
3, 17880, Note_on_c, 1, 60, 79
3, 17880, Note_on_c, 1, 69, 79
3, 17890, Note_on_c, 1, 60, 0
3, 17892, Note_on_c, 1, 62, 79
3, 17900, Note_on_c, 1, 69, 0
3, 17902, Note_on_c, 1, 62, 0
3, 17904, Note_on_c, 1, 58, 79
3, 17904, Note_on_c, 1, 74, 79
3, 17914, Note_on_c, 1, 58, 0
3, 17914, Note_on_c, 1, 74, 0
3, 17916, Note_on_c, 1, 62, 79
3, 17916, Note_on_c, 1, 67, 79
3, 17926, Note_on_c, 1, 62, 0
3, 17926, Note_on_c, 1, 67, 0
3, 17928, Note_on_c, 1, 57, 79
3, 17928, Note_on_c, 1, 72, 79
3, 17938, Note_on_c, 1, 57, 0
3, 17938, Note_on_c, 1, 72, 0
3, 17940, Note_on_c, 1, 62, 79
3, 17940, Note_on_c, 1, 66, 79
3, 17950, Note_on_c, 1, 62, 0
3, 17950, Note_on_c, 1, 66, 0
3, 17952, Note_on_c, 1, 55, 79
3, 17952, Note_on_c, 1, 70, 79
3, 17962, Note_on_c, 1, 55, 0
3, 17962, Note_on_c, 1, 70, 0
3, 17964, Note_on_c, 1, 62, 79
3, 17964, Note_on_c, 1, 67, 79
3, 17974, Note_on_c, 1, 62, 0
3, 17974, Note_on_c, 1, 67, 0
3, 17976, Note_on_c, 1, 54, 79
3, 17976, Note_on_c, 1, 74, 79
3, 17986, Note_on_c, 1, 54, 0
3, 17986, Note_on_c, 1, 74, 0
3, 17988, Note_on_c, 1, 62, 79
3, 17988, Note_on_c, 1, 69, 79
3, 17998, Note_on_c, 1, 62, 0
3, 17998, Note_on_c, 1, 69, 0
3, 18000, Note_on_c, 1, 55, 79
3, 18000, Note_on_c, 1, 70, 79
3, 18010, Note_on_c, 1, 55, 0
3, 18010, Note_on_c, 1, 70, 0
3, 18012, Note_on_c, 1, 62, 79
3, 18012, Note_on_c, 1, 67, 79
3, 18022, Note_on_c, 1, 62, 0
3, 18022, Note_on_c, 1, 67, 0
3, 18024, Note_on_c, 1, 57, 79
3, 18024, Note_on_c, 1, 69, 79
3, 18034, Note_on_c, 1, 57, 0
3, 18034, Note_on_c, 1, 69, 0
3, 18036, Note_on_c, 1, 62, 79
3, 18036, Note_on_c, 1, 66, 79
3, 18046, Note_on_c, 1, 62, 0
3, 18046, Note_on_c, 1, 66, 0
3, 18048, Note_on_c, 1, 58, 79
3, 18048, Note_on_c, 1, 67, 79
3, 18058, Note_on_c, 1, 58, 0
3, 18058, Note_on_c, 1, 67, 0
3, 18060, Note_on_c, 1, 62, 79
3, 18060, Note_on_c, 1, 74, 79
3, 18070, Note_on_c, 1, 62, 0
3, 18070, Note_on_c, 1, 74, 0
3, 18072, Note_on_c, 1, 50, 79
3, 18072, Note_on_c, 1, 66, 79
3, 18082, Note_on_c, 1, 50, 0
3, 18082, Note_on_c, 1, 66, 0
3, 18084, Note_on_c, 1, 62, 79
3, 18084, Note_on_c, 1, 74, 79
3, 18094, Note_on_c, 1, 62, 0
3, 18094, Note_on_c, 1, 74, 0
3, 18096, Note_on_c, 1, 52, 79
3, 18096, Note_on_c, 1, 67, 79
3, 18106, Note_on_c, 1, 52, 0
3, 18106, Note_on_c, 1, 67, 0
3, 18108, Note_on_c, 1, 62, 79
3, 18108, Note_on_c, 1, 74, 79
3, 18118, Note_on_c, 1, 62, 0
3, 18118, Note_on_c, 1, 74, 0
3, 18120, Note_on_c, 1, 54, 79
3, 18120, Note_on_c, 1, 69, 79
3, 18130, Note_on_c, 1, 54, 0
3, 18130, Note_on_c, 1, 69, 0
3, 18132, Note_on_c, 1, 62, 79
3, 18132, Note_on_c, 1, 74, 79
3, 18142, Note_on_c, 1, 62, 0
3, 18142, Note_on_c, 1, 74, 0
3, 18144, Note_on_c, 1, 55, 79
3, 18144, Note_on_c, 1, 70, 79
3, 18154, Note_on_c, 1, 55, 0
3, 18154, Note_on_c, 1, 70, 0
3, 18156, Note_on_c, 1, 62, 79
3, 18156, Note_on_c, 1, 67, 79
3, 18166, Note_on_c, 1, 62, 0
3, 18166, Note_on_c, 1, 67, 0
3, 18168, Note_on_c, 1, 54, 79
3, 18168, Note_on_c, 1, 74, 79
3, 18178, Note_on_c, 1, 54, 0
3, 18178, Note_on_c, 1, 74, 0
3, 18180, Note_on_c, 1, 62, 79
3, 18180, Note_on_c, 1, 69, 79
3, 18190, Note_on_c, 1, 62, 0
3, 18190, Note_on_c, 1, 69, 0
3, 18192, Note_on_c, 1, 55, 79
3, 18192, Note_on_c, 1, 70, 79
3, 18202, Note_on_c, 1, 55, 0
3, 18202, Note_on_c, 1, 70, 0
3, 18204, Note_on_c, 1, 62, 79
3, 18204, Note_on_c, 1, 67, 79
3, 18214, Note_on_c, 1, 62, 0
3, 18214, Note_on_c, 1, 67, 0
3, 18216, Note_on_c, 1, 57, 79
3, 18216, Note_on_c, 1, 72, 79
3, 18226, Note_on_c, 1, 57, 0
3, 18226, Note_on_c, 1, 72, 0
3, 18228, Note_on_c, 1, 62, 79
3, 18228, Note_on_c, 1, 69, 79
3, 18238, Note_on_c, 1, 62, 0
3, 18238, Note_on_c, 1, 69, 0
3, 18240, Note_on_c, 1, 58, 79
3, 18240, Note_on_c, 1, 74, 79
3, 18250, Note_on_c, 1, 74, 0
3, 18252, Note_on_c, 1, 72, 79
3, 18260, Note_on_c, 1, 58, 0
3, 18262, Note_on_c, 1, 72, 0
3, 18264, Note_on_c, 1, 57, 79
3, 18264, Note_on_c, 1, 70, 79
3, 18274, Note_on_c, 1, 70, 0
3, 18276, Note_on_c, 1, 69, 79
3, 18280, Note_on_c, 1, 50, 0
3, 18284, Note_on_c, 1, 57, 0
3, 18286, Note_on_c, 1, 69, 0
3, 18288, Note_on_c, 1, 55, 79
3, 18288, Note_on_c, 1, 70, 79
3, 18298, Note_on_c, 1, 70, 0
3, 18300, Note_on_c, 1, 69, 79
3, 18310, Note_on_c, 1, 69, 0
3, 18312, Note_on_c, 1, 43, 79
3, 18312, Note_on_c, 1, 70, 79
3, 18322, Note_on_c, 1, 70, 0
3, 18324, Note_on_c, 1, 67, 79
3, 18332, Note_on_c, 1, 43, 0
3, 18334, Note_on_c, 1, 67, 0
3, 18336, Note_on_c, 1, 48, 79
3, 18336, Note_on_c, 1, 69, 79
3, 18346, Note_on_c, 1, 69, 0
3, 18348, Note_on_c, 1, 70, 79
3, 18356, Note_on_c, 1, 48, 0
3, 18358, Note_on_c, 1, 70, 0
3, 18360, Note_on_c, 1, 45, 79
3, 18360, Note_on_c, 1, 72, 79
3, 18368, Note_on_c, 1, 55, 0
3, 18370, Note_on_c, 1, 72, 0
3, 18372, Note_on_c, 1, 74, 79
3, 18380, Note_on_c, 1, 45, 0
3, 18382, Note_on_c, 1, 74, 0
3, 18384, Note_on_c, 1, 54, 79
3, 18384, Note_on_c, 1, 50, 79
3, 18384, Note_on_c, 1, 75, 79
3, 18394, Note_on_c, 1, 75, 0
3, 18396, Note_on_c, 1, 74, 79
3, 18404, Note_on_c, 1, 50, 0
3, 18406, Note_on_c, 1, 74, 0
3, 18408, Note_on_c, 1, 38, 79
3, 18408, Note_on_c, 1, 72, 79
3, 18418, Note_on_c, 1, 72, 0
3, 18420, Note_on_c, 1, 74, 79
3, 18424, Note_on_c, 1, 54, 0
3, 18428, Note_on_c, 1, 38, 0
3, 18430, Note_on_c, 1, 74, 0
3, 18432, Note_on_c, 1, 55, 79
3, 18432, Note_on_c, 1, 43, 79
3, 18432, Note_on_c, 1, 70, 79
3, 18442, Note_on_c, 1, 70, 0
3, 18444, Note_on_c, 1, 72, 79
3, 18452, Note_on_c, 1, 55, 0
3, 18454, Note_on_c, 1, 72, 0
3, 18456, Note_on_c, 1, 57, 79
3, 18456, Note_on_c, 1, 69, 79
3, 18466, Note_on_c, 1, 69, 0
3, 18468, Note_on_c, 1, 70, 79
3, 18472, Note_on_c, 1, 43, 0
3, 18476, Note_on_c, 1, 57, 0
3, 18478, Note_on_c, 1, 70, 0
3, 18480, Note_on_c, 1, 58, 79
3, 18480, Note_on_c, 1, 67, 79
3, 18490, Note_on_c, 1, 58, 0
3, 18492, Note_on_c, 1, 57, 79
3, 18500, Note_on_c, 1, 67, 0
3, 18502, Note_on_c, 1, 57, 0
3, 18504, Note_on_c, 1, 43, 79
3, 18504, Note_on_c, 1, 55, 79
3, 18504, Note_on_c, 1, 71, 79
3, 18514, Note_on_c, 1, 55, 0
3, 18516, Note_on_c, 1, 53, 79
3, 18524, Note_on_c, 1, 43, 0
3, 18524, Note_on_c, 1, 71, 0
3, 18526, Note_on_c, 1, 53, 0
3, 18528, Note_on_c, 1, 51, 79
3, 18528, Note_on_c, 1, 48, 79
3, 18528, Note_on_c, 1, 72, 79
3, 18538, Note_on_c, 1, 72, 0
3, 18540, Note_on_c, 1, 75, 79
3, 18548, Note_on_c, 1, 51, 0
3, 18550, Note_on_c, 1, 75, 0
3, 18552, Note_on_c, 1, 63, 79
3, 18552, Note_on_c, 1, 77, 79
3, 18562, Note_on_c, 1, 77, 0
3, 18564, Note_on_c, 1, 79, 79
3, 18572, Note_on_c, 1, 63, 0
3, 18574, Note_on_c, 1, 79, 0
3, 18576, Note_on_c, 1, 62, 79
3, 18576, Note_on_c, 1, 80, 79
3, 18586, Note_on_c, 1, 80, 0
3, 18588, Note_on_c, 1, 48, 0
3, 18588, Note_on_c, 1, 79, 79
3, 18598, Note_on_c, 1, 79, 0
3, 18600, Note_on_c, 1, 47, 79
3, 18600, Note_on_c, 1, 77, 79
3, 18610, Note_on_c, 1, 77, 0
3, 18612, Note_on_c, 1, 79, 79
3, 18616, Note_on_c, 1, 62, 0
3, 18620, Note_on_c, 1, 47, 0
3, 18622, Note_on_c, 1, 79, 0
3, 18624, Note_on_c, 1, 48, 79
3, 18624, Note_on_c, 1, 60, 79
3, 18624, Note_on_c, 1, 75, 79
3, 18634, Note_on_c, 1, 75, 0
3, 18636, Note_on_c, 1, 77, 79
3, 18644, Note_on_c, 1, 60, 0
3, 18646, Note_on_c, 1, 77, 0
3, 18648, Note_on_c, 1, 62, 79
3, 18648, Note_on_c, 1, 74, 79
3, 18658, Note_on_c, 1, 74, 0
3, 18660, Note_on_c, 1, 75, 79
3, 18664, Note_on_c, 1, 48, 0
3, 18668, Note_on_c, 1, 62, 0
3, 18670, Note_on_c, 1, 75, 0
3, 18672, Note_on_c, 1, 63, 79
3, 18672, Note_on_c, 1, 72, 79
3, 18682, Note_on_c, 1, 63, 0
3, 18684, Note_on_c, 1, 65, 79
3, 18692, Note_on_c, 1, 72, 0
3, 18694, Note_on_c, 1, 65, 0
3, 18696, Note_on_c, 1, 62, 79
3, 18696, Note_on_c, 1, 70, 79
3, 18706, Note_on_c, 1, 62, 0
3, 18708, Note_on_c, 1, 63, 79
3, 18716, Note_on_c, 1, 70, 0
3, 18718, Note_on_c, 1, 63, 0
3, 18720, Note_on_c, 1, 60, 79
3, 18720, Note_on_c, 1, 69, 79
3, 18730, Note_on_c, 1, 60, 0
3, 18732, Note_on_c, 1, 63, 79
3, 18740, Note_on_c, 1, 69, 0
3, 18742, Note_on_c, 1, 63, 0
3, 18744, Note_on_c, 1, 62, 79
3, 18744, Note_on_c, 1, 70, 79
3, 18754, Note_on_c, 1, 62, 0
3, 18756, Note_on_c, 1, 65, 79
3, 18766, Note_on_c, 1, 65, 0
3, 18768, Note_on_c, 1, 67, 79
3, 18778, Note_on_c, 1, 67, 0
3, 18780, Note_on_c, 1, 65, 79
3, 18784, Note_on_c, 1, 70, 0
3, 18790, Note_on_c, 1, 65, 0
3, 18792, Note_on_c, 1, 62, 79
3, 18792, Note_on_c, 1, 69, 79
3, 18802, Note_on_c, 1, 62, 0
3, 18804, Note_on_c, 1, 65, 79
3, 18814, Note_on_c, 1, 65, 0
3, 18816, Note_on_c, 1, 62, 79
3, 18826, Note_on_c, 1, 62, 0
3, 18828, Note_on_c, 1, 58, 79
3, 18832, Note_on_c, 1, 69, 0
3, 18838, Note_on_c, 1, 58, 0
3, 18840, Note_on_c, 1, 63, 79
3, 18840, Note_on_c, 1, 67, 79
3, 18850, Note_on_c, 1, 63, 0
3, 18852, Note_on_c, 1, 62, 79
3, 18862, Note_on_c, 1, 62, 0
3, 18864, Note_on_c, 1, 61, 79
3, 18874, Note_on_c, 1, 61, 0
3, 18876, Note_on_c, 1, 57, 79
3, 18880, Note_on_c, 1, 67, 0
3, 18886, Note_on_c, 1, 57, 0
3, 18888, Note_on_c, 1, 62, 79
3, 18888, Note_on_c, 1, 66, 79
3, 18898, Note_on_c, 1, 62, 0
3, 18900, Note_on_c, 1, 60, 79
3, 18908, Note_on_c, 1, 66, 0
3, 18910, Note_on_c, 1, 60, 0
3, 18912, Note_on_c, 1, 59, 79
3, 18912, Note_on_c, 1, 65, 79
3, 18922, Note_on_c, 1, 59, 0
3, 18924, Note_on_c, 1, 55, 79
3, 18932, Note_on_c, 1, 65, 0
3, 18934, Note_on_c, 1, 55, 0
3, 18936, Note_on_c, 1, 60, 79
3, 18936, Note_on_c, 1, 63, 79
3, 18946, Note_on_c, 1, 60, 0
3, 18948, Note_on_c, 1, 58, 79
3, 18958, Note_on_c, 1, 58, 0
3, 18960, Note_on_c, 1, 57, 79
3, 18970, Note_on_c, 1, 57, 0
3, 18972, Note_on_c, 1, 53, 79
3, 18976, Note_on_c, 1, 63, 0
3, 18982, Note_on_c, 1, 53, 0
3, 18984, Note_on_c, 1, 58, 79
3, 18984, Note_on_c, 1, 62, 79
3, 18994, Note_on_c, 1, 58, 0
3, 18994, Note_on_c, 1, 62, 0
3, 18996, Note_on_c, 1, 62, 79
3, 18996, Note_on_c, 1, 70, 79
3, 19006, Note_on_c, 1, 62, 0
3, 19006, Note_on_c, 1, 70, 0
3, 19008, Note_on_c, 1, 60, 79
3, 19008, Note_on_c, 1, 69, 79
3, 19018, Note_on_c, 1, 60, 0
3, 19018, Note_on_c, 1, 69, 0
3, 19020, Note_on_c, 1, 62, 79
3, 19020, Note_on_c, 1, 70, 79
3, 19030, Note_on_c, 1, 62, 0
3, 19030, Note_on_c, 1, 70, 0
3, 19032, Note_on_c, 1, 60, 79
3, 19032, Note_on_c, 1, 69, 79
3, 19042, Note_on_c, 1, 60, 0
3, 19042, Note_on_c, 1, 69, 0
3, 19044, Note_on_c, 1, 58, 79
3, 19044, Note_on_c, 1, 67, 79
3, 19054, Note_on_c, 1, 58, 0
3, 19054, Note_on_c, 1, 67, 0
3, 19056, Note_on_c, 1, 57, 79
3, 19056, Note_on_c, 1, 66, 79
3, 19066, Note_on_c, 1, 57, 0
3, 19066, Note_on_c, 1, 66, 0
3, 19068, Note_on_c, 1, 60, 79
3, 19068, Note_on_c, 1, 75, 79
3, 19078, Note_on_c, 1, 60, 0
3, 19078, Note_on_c, 1, 75, 0
3, 19080, Note_on_c, 1, 58, 79
3, 19080, Note_on_c, 1, 74, 79
3, 19090, Note_on_c, 1, 58, 0
3, 19090, Note_on_c, 1, 74, 0
3, 19092, Note_on_c, 1, 57, 79
3, 19092, Note_on_c, 1, 72, 79
3, 19102, Note_on_c, 1, 57, 0
3, 19102, Note_on_c, 1, 72, 0
3, 19104, Note_on_c, 1, 55, 79
3, 19104, Note_on_c, 1, 70, 79
3, 19114, Note_on_c, 1, 55, 0
3, 19114, Note_on_c, 1, 70, 0
3, 19116, Note_on_c, 1, 60, 79
3, 19116, Note_on_c, 1, 81, 79
3, 19126, Note_on_c, 1, 60, 0
3, 19126, Note_on_c, 1, 81, 0
3, 19128, Note_on_c, 1, 58, 79
3, 19128, Note_on_c, 1, 79, 79
3, 19138, Note_on_c, 1, 58, 0
3, 19138, Note_on_c, 1, 79, 0
3, 19140, Note_on_c, 1, 57, 79
3, 19140, Note_on_c, 1, 78, 79
3, 19150, Note_on_c, 1, 57, 0
3, 19150, Note_on_c, 1, 78, 0
3, 19152, Note_on_c, 1, 58, 79
3, 19152, Note_on_c, 1, 79, 79
3, 19162, Note_on_c, 1, 58, 0
3, 19164, Note_on_c, 1, 60, 79
3, 19174, Note_on_c, 1, 60, 0
3, 19176, Note_on_c, 1, 58, 79
3, 19182, Note_on_c, 1, 79, 0
3, 19186, Note_on_c, 1, 58, 0
3, 19188, Note_on_c, 1, 57, 79
3, 19188, Note_on_c, 1, 77, 79
3, 19198, Note_on_c, 1, 57, 0
3, 19198, Note_on_c, 1, 77, 0
3, 19200, Note_on_c, 1, 55, 79
3, 19200, Note_on_c, 1, 75, 79
3, 19210, Note_on_c, 1, 55, 0
3, 19210, Note_on_c, 1, 75, 0
3, 19212, Note_on_c, 1, 57, 79
3, 19212, Note_on_c, 1, 77, 79
3, 19222, Note_on_c, 1, 57, 0
3, 19222, Note_on_c, 1, 77, 0
3, 19224, Note_on_c, 1, 53, 79
3, 19224, Note_on_c, 1, 72, 79
3, 19234, Note_on_c, 1, 53, 0
3, 19234, Note_on_c, 1, 72, 0
3, 19236, Note_on_c, 1, 55, 79
3, 19236, Note_on_c, 1, 75, 79
3, 19246, Note_on_c, 1, 55, 0
3, 19246, Note_on_c, 1, 75, 0
3, 19248, Note_on_c, 1, 52, 79
3, 19248, Note_on_c, 1, 73, 79
3, 19258, Note_on_c, 1, 73, 0
3, 19260, Note_on_c, 1, 70, 79
3, 19270, Note_on_c, 1, 70, 0
3, 19272, Note_on_c, 1, 69, 79
3, 19282, Note_on_c, 1, 69, 0
3, 19284, Note_on_c, 1, 67, 79
3, 19288, Note_on_c, 1, 52, 0
3, 19294, Note_on_c, 1, 67, 0
3, 19296, Note_on_c, 1, 69, 79
3, 19296, Note_on_c, 1, 54, 79
3, 19296, Note_on_c, 1, 74, 79
3, 19308, Note_on_c, 1, 63, 79
3, 19318, Note_on_c, 1, 63, 0
3, 19320, Note_on_c, 1, 62, 79
3, 19330, Note_on_c, 1, 62, 0
3, 19332, Note_on_c, 1, 60, 79
3, 19336, Note_on_c, 1, 54, 0
3, 19336, Note_on_c, 1, 69, 0
3, 19336, Note_on_c, 1, 74, 0
3, 19342, Note_on_c, 1, 60, 0
3, 19344, Note_on_c, 1, 66, 79
3, 19344, Note_on_c, 1, 50, 79
3, 19344, Note_on_c, 1, 62, 79
3, 19344, Note_on_c, 1, 72, 79
3, 19354, Note_on_c, 1, 62, 0
3, 19356, Note_on_c, 1, 60, 79
3, 19366, Note_on_c, 1, 60, 0
3, 19368, Note_on_c, 1, 58, 79
3, 19378, Note_on_c, 1, 58, 0
3, 19380, Note_on_c, 1, 57, 79
3, 19384, Note_on_c, 1, 50, 0
3, 19384, Note_on_c, 1, 66, 0
3, 19384, Note_on_c, 1, 72, 0
3, 19390, Note_on_c, 1, 57, 0
3, 19392, Note_on_c, 1, 55, 79
3, 19392, Note_on_c, 1, 55, 79
3, 19392, Note_on_c, 1, 67, 79
3, 19392, Note_on_c, 1, 70, 79
3, 19402, Note_on_c, 1, 67, 0
3, 19404, Note_on_c, 1, 65, 79
3, 19414, Note_on_c, 1, 65, 0
3, 19416, Note_on_c, 1, 63, 79
3, 19426, Note_on_c, 1, 63, 0
3, 19428, Note_on_c, 1, 62, 79
3, 19432, Note_on_c, 1, 55, 0
3, 19432, Note_on_c, 1, 70, 0
3, 19438, Note_on_c, 1, 62, 0
3, 19440, Note_on_c, 1, 61, 79
3, 19440, Note_on_c, 1, 57, 79
3, 19440, Note_on_c, 1, 69, 79
3, 19450, Note_on_c, 1, 57, 0
3, 19452, Note_on_c, 1, 58, 79
3, 19460, Note_on_c, 1, 61, 0
3, 19460, Note_on_c, 1, 69, 0
3, 19462, Note_on_c, 1, 58, 0
3, 19464, Note_on_c, 1, 64, 79
3, 19464, Note_on_c, 1, 57, 79
3, 19464, Note_on_c, 1, 73, 79
3, 19474, Note_on_c, 1, 57, 0
3, 19476, Note_on_c, 1, 55, 79
3, 19484, Note_on_c, 1, 64, 0
3, 19484, Note_on_c, 1, 73, 0
3, 19486, Note_on_c, 1, 55, 0
3, 19488, Note_on_c, 1, 65, 79
3, 19488, Note_on_c, 1, 53, 79
3, 19488, Note_on_c, 1, 74, 79
3, 19498, Note_on_c, 1, 53, 0
3, 19500, Note_on_c, 1, 55, 79
3, 19508, Note_on_c, 1, 65, 0
3, 19508, Note_on_c, 1, 74, 0
3, 19510, Note_on_c, 1, 55, 0
3, 19512, Note_on_c, 1, 67, 79
3, 19512, Note_on_c, 1, 52, 79
3, 19512, Note_on_c, 1, 76, 79
3, 19522, Note_on_c, 1, 52, 0
3, 19524, Note_on_c, 1, 57, 79
3, 19532, Note_on_c, 1, 67, 0
3, 19532, Note_on_c, 1, 76, 0
3, 19534, Note_on_c, 1, 57, 0
3, 19536, Note_on_c, 1, 50, 79
3, 19536, Note_on_c, 1, 69, 79
3, 19536, Note_on_c, 1, 77, 79
3, 19546, Note_on_c, 1, 69, 0
3, 19548, Note_on_c, 1, 67, 79
3, 19558, Note_on_c, 1, 67, 0
3, 19560, Note_on_c, 1, 67, 79
3, 19560, Note_on_c, 1, 74, 79
3, 19570, Note_on_c, 1, 67, 0
3, 19572, Note_on_c, 1, 65, 79
3, 19576, Note_on_c, 1, 50, 0
3, 19576, Note_on_c, 1, 77, 0
3, 19582, Note_on_c, 1, 65, 0
3, 19584, Note_on_c, 1, 67, 79
3, 19584, Note_on_c, 1, 76, 79
3, 19594, Note_on_c, 1, 67, 0
3, 19596, Note_on_c, 1, 69, 79
3, 19606, Note_on_c, 1, 69, 0
3, 19608, Note_on_c, 1, 67, 79
3, 19615, Note_on_c, 1, 74, 0
3, 19618, Note_on_c, 1, 67, 0
3, 19620, Note_on_c, 1, 69, 79
3, 19630, Note_on_c, 1, 69, 0
3, 19632, Note_on_c, 1, 70, 79
3, 19632, Note_on_c, 1, 73, 79
3, 19642, Note_on_c, 1, 70, 0
3, 19644, Note_on_c, 1, 69, 79
3, 19654, Note_on_c, 1, 69, 0
3, 19656, Note_on_c, 1, 67, 79
3, 19664, Note_on_c, 1, 76, 0
3, 19666, Note_on_c, 1, 67, 0
3, 19668, Note_on_c, 1, 69, 79
3, 19672, Note_on_c, 1, 73, 0
3, 19678, Note_on_c, 1, 69, 0
3, 19680, Note_on_c, 1, 65, 79
3, 19680, Note_on_c, 1, 74, 79
3, 19690, Note_on_c, 1, 65, 0
3, 19692, Note_on_c, 1, 67, 79
3, 19702, Note_on_c, 1, 67, 0
3, 19704, Note_on_c, 1, 64, 79
3, 19714, Note_on_c, 1, 64, 0
3, 19716, Note_on_c, 1, 65, 79
3, 19726, Note_on_c, 1, 65, 0
3, 19728, Note_on_c, 1, 65, 79
3, 19728, Note_on_c, 1, 62, 79
3, 19738, Note_on_c, 1, 62, 0
3, 19740, Note_on_c, 1, 74, 0
3, 19740, Note_on_c, 1, 60, 79
3, 19748, Note_on_c, 1, 65, 0
3, 19750, Note_on_c, 1, 60, 0
3, 19752, Note_on_c, 1, 69, 79
3, 19752, Note_on_c, 1, 58, 79
3, 19752, Note_on_c, 1, 77, 79
3, 19762, Note_on_c, 1, 58, 0
3, 19764, Note_on_c, 1, 57, 79
3, 19772, Note_on_c, 1, 69, 0
3, 19772, Note_on_c, 1, 77, 0
3, 19774, Note_on_c, 1, 57, 0
3, 19776, Note_on_c, 1, 67, 79
3, 19776, Note_on_c, 1, 58, 79
3, 19776, Note_on_c, 1, 79, 79
3, 19786, Note_on_c, 1, 58, 0
3, 19788, Note_on_c, 1, 57, 79
3, 19796, Note_on_c, 1, 67, 0
3, 19796, Note_on_c, 1, 79, 0
3, 19798, Note_on_c, 1, 57, 0
3, 19800, Note_on_c, 1, 69, 79
3, 19800, Note_on_c, 1, 55, 79
3, 19800, Note_on_c, 1, 74, 79
3, 19810, Note_on_c, 1, 55, 0
3, 19812, Note_on_c, 1, 53, 79
3, 19820, Note_on_c, 1, 69, 0
3, 19820, Note_on_c, 1, 74, 0
3, 19822, Note_on_c, 1, 53, 0
3, 19824, Note_on_c, 1, 67, 79
3, 19824, Note_on_c, 1, 52, 79
3, 19824, Note_on_c, 1, 73, 79
3, 19834, Note_on_c, 1, 52, 0
3, 19836, Note_on_c, 1, 53, 79
3, 19844, Note_on_c, 1, 67, 0
3, 19844, Note_on_c, 1, 73, 0
3, 19846, Note_on_c, 1, 53, 0
3, 19848, Note_on_c, 1, 65, 79
3, 19848, Note_on_c, 1, 52, 79
3, 19848, Note_on_c, 1, 74, 79
3, 19858, Note_on_c, 1, 52, 0
3, 19860, Note_on_c, 1, 50, 79
3, 19868, Note_on_c, 1, 65, 0
3, 19868, Note_on_c, 1, 74, 0
3, 19870, Note_on_c, 1, 50, 0
3, 19872, Note_on_c, 1, 67, 79
3, 19872, Note_on_c, 1, 49, 79
3, 19872, Note_on_c, 1, 76, 79
3, 19882, Note_on_c, 1, 49, 0
3, 19884, Note_on_c, 1, 45, 79
3, 19892, Note_on_c, 1, 67, 0
3, 19892, Note_on_c, 1, 76, 0
3, 19894, Note_on_c, 1, 45, 0
3, 19896, Note_on_c, 1, 65, 79
3, 19896, Note_on_c, 1, 50, 79
3, 19896, Note_on_c, 1, 74, 79
3, 19906, Note_on_c, 1, 50, 0
3, 19908, Note_on_c, 1, 45, 79
3, 19916, Note_on_c, 1, 65, 0
3, 19916, Note_on_c, 1, 74, 0
3, 19918, Note_on_c, 1, 45, 0
3, 19920, Note_on_c, 1, 64, 79
3, 19920, Note_on_c, 1, 52, 79
3, 19920, Note_on_c, 1, 73, 79
3, 19930, Note_on_c, 1, 52, 0
3, 19932, Note_on_c, 1, 45, 79
3, 19940, Note_on_c, 1, 64, 0
3, 19940, Note_on_c, 1, 73, 0
3, 19942, Note_on_c, 1, 45, 0
3, 19944, Note_on_c, 1, 69, 79
3, 19944, Note_on_c, 1, 53, 79
3, 19944, Note_on_c, 1, 74, 79
3, 19954, Note_on_c, 1, 53, 0
3, 19956, Note_on_c, 1, 45, 79
3, 19964, Note_on_c, 1, 69, 0
3, 19964, Note_on_c, 1, 74, 0
3, 19966, Note_on_c, 1, 45, 0
3, 19968, Note_on_c, 1, 70, 79
3, 19968, Note_on_c, 1, 55, 79
3, 19968, Note_on_c, 1, 76, 79
3, 19978, Note_on_c, 1, 55, 0
3, 19980, Note_on_c, 1, 45, 79
3, 19988, Note_on_c, 1, 70, 0
3, 19988, Note_on_c, 1, 76, 0
3, 19990, Note_on_c, 1, 45, 0
3, 19992, Note_on_c, 1, 69, 79
3, 19992, Note_on_c, 1, 53, 79
3, 19992, Note_on_c, 1, 74, 79
3, 20002, Note_on_c, 1, 53, 0
3, 20004, Note_on_c, 1, 45, 79
3, 20012, Note_on_c, 1, 69, 0
3, 20012, Note_on_c, 1, 74, 0
3, 20014, Note_on_c, 1, 45, 0
3, 20016, Note_on_c, 1, 67, 79
3, 20016, Note_on_c, 1, 52, 79
3, 20016, Note_on_c, 1, 73, 79
3, 20026, Note_on_c, 1, 52, 0
3, 20028, Note_on_c, 1, 45, 79
3, 20036, Note_on_c, 1, 67, 0
3, 20036, Note_on_c, 1, 73, 0
3, 20038, Note_on_c, 1, 45, 0
3, 20040, Note_on_c, 1, 65, 79
3, 20040, Note_on_c, 1, 50, 79
3, 20040, Note_on_c, 1, 74, 79
3, 20050, Note_on_c, 1, 50, 0
3, 20052, Note_on_c, 1, 45, 79
3, 20060, Note_on_c, 1, 65, 0
3, 20060, Note_on_c, 1, 74, 0
3, 20062, Note_on_c, 1, 45, 0
3, 20064, Note_on_c, 1, 69, 79
3, 20064, Note_on_c, 1, 49, 79
3, 20064, Note_on_c, 1, 76, 79
3, 20074, Note_on_c, 1, 49, 0
3, 20076, Note_on_c, 1, 57, 79
3, 20084, Note_on_c, 1, 69, 0
3, 20084, Note_on_c, 1, 76, 0
3, 20086, Note_on_c, 1, 57, 0
3, 20088, Note_on_c, 1, 76, 79
3, 20088, Note_on_c, 1, 45, 79
3, 20088, Note_on_c, 1, 79, 79
3, 20098, Note_on_c, 1, 45, 0
3, 20100, Note_on_c, 1, 57, 79
3, 20108, Note_on_c, 1, 76, 0
3, 20108, Note_on_c, 1, 79, 0
3, 20110, Note_on_c, 1, 57, 0
3, 20112, Note_on_c, 1, 74, 79
3, 20112, Note_on_c, 1, 50, 79
3, 20112, Note_on_c, 1, 77, 79
3, 20122, Note_on_c, 1, 50, 0
3, 20124, Note_on_c, 1, 57, 79
3, 20132, Note_on_c, 1, 74, 0
3, 20132, Note_on_c, 1, 77, 0
3, 20134, Note_on_c, 1, 57, 0
3, 20136, Note_on_c, 1, 69, 79
3, 20136, Note_on_c, 1, 53, 79
3, 20136, Note_on_c, 1, 74, 79
3, 20146, Note_on_c, 1, 53, 0
3, 20148, Note_on_c, 1, 62, 79
3, 20156, Note_on_c, 1, 69, 0
3, 20156, Note_on_c, 1, 74, 0
3, 20158, Note_on_c, 1, 62, 0
3, 20160, Note_on_c, 1, 67, 79
3, 20160, Note_on_c, 1, 55, 79
3, 20160, Note_on_c, 1, 70, 79
3, 20170, Note_on_c, 1, 55, 0
3, 20172, Note_on_c, 1, 62, 79
3, 20180, Note_on_c, 1, 67, 0
3, 20180, Note_on_c, 1, 70, 0
3, 20182, Note_on_c, 1, 62, 0
3, 20184, Note_on_c, 1, 67, 79
3, 20184, Note_on_c, 1, 52, 79
3, 20184, Note_on_c, 1, 76, 79
3, 20194, Note_on_c, 1, 52, 0
3, 20196, Note_on_c, 1, 61, 79
3, 20204, Note_on_c, 1, 67, 0
3, 20204, Note_on_c, 1, 76, 0
3, 20206, Note_on_c, 1, 61, 0
3, 20208, Note_on_c, 1, 69, 79
3, 20208, Note_on_c, 1, 53, 79
3, 20208, Note_on_c, 1, 74, 79
3, 20218, Note_on_c, 1, 53, 0
3, 20220, Note_on_c, 1, 62, 79
3, 20228, Note_on_c, 1, 69, 0
3, 20228, Note_on_c, 1, 74, 0
3, 20230, Note_on_c, 1, 62, 0
3, 20232, Note_on_c, 1, 65, 79
3, 20232, Note_on_c, 1, 50, 79
3, 20232, Note_on_c, 1, 74, 79
3, 20242, Note_on_c, 1, 50, 0
3, 20244, Note_on_c, 1, 62, 79
3, 20252, Note_on_c, 1, 65, 0
3, 20252, Note_on_c, 1, 74, 0
3, 20254, Note_on_c, 1, 62, 0
3, 20256, Note_on_c, 1, 64, 79
3, 20256, Note_on_c, 1, 57, 79
3, 20256, Note_on_c, 1, 73, 79
3, 20266, Note_on_c, 1, 64, 0
3, 20268, Note_on_c, 1, 69, 79
3, 20278, Note_on_c, 1, 69, 0
3, 20280, Note_on_c, 1, 67, 79
3, 20290, Note_on_c, 1, 67, 0
3, 20292, Note_on_c, 1, 69, 79
3, 20296, Note_on_c, 1, 73, 0
3, 20302, Note_on_c, 1, 69, 0
3, 20304, Note_on_c, 1, 65, 79
3, 20304, Note_on_c, 1, 74, 79
3, 20314, Note_on_c, 1, 65, 0
3, 20316, Note_on_c, 1, 69, 79
3, 20324, Note_on_c, 1, 74, 0
3, 20326, Note_on_c, 1, 69, 0
3, 20328, Note_on_c, 1, 64, 79
3, 20328, Note_on_c, 1, 76, 79
3, 20336, Note_on_c, 1, 57, 0
3, 20338, Note_on_c, 1, 64, 0
3, 20340, Note_on_c, 1, 69, 79
3, 20348, Note_on_c, 1, 76, 0
3, 20350, Note_on_c, 1, 69, 0
3, 20352, Note_on_c, 1, 57, 79
3, 20352, Note_on_c, 1, 62, 79
3, 20352, Note_on_c, 1, 77, 79
3, 20362, Note_on_c, 1, 62, 0
3, 20364, Note_on_c, 1, 69, 79
3, 20372, Note_on_c, 1, 77, 0
3, 20374, Note_on_c, 1, 69, 0
3, 20376, Note_on_c, 1, 61, 79
3, 20376, Note_on_c, 1, 76, 79
3, 20386, Note_on_c, 1, 61, 0
3, 20388, Note_on_c, 1, 69, 79
3, 20396, Note_on_c, 1, 76, 0
3, 20398, Note_on_c, 1, 69, 0
3, 20400, Note_on_c, 1, 62, 79
3, 20400, Note_on_c, 1, 77, 79
3, 20410, Note_on_c, 1, 62, 0
3, 20412, Note_on_c, 1, 69, 79
3, 20420, Note_on_c, 1, 77, 0
3, 20422, Note_on_c, 1, 69, 0
3, 20424, Note_on_c, 1, 64, 79
3, 20424, Note_on_c, 1, 73, 79
3, 20434, Note_on_c, 1, 64, 0
3, 20436, Note_on_c, 1, 69, 79
3, 20444, Note_on_c, 1, 73, 0
3, 20446, Note_on_c, 1, 69, 0
3, 20448, Note_on_c, 1, 65, 79
3, 20448, Note_on_c, 1, 74, 79
3, 20458, Note_on_c, 1, 65, 0
3, 20460, Note_on_c, 1, 69, 79
3, 20468, Note_on_c, 1, 74, 0
3, 20470, Note_on_c, 1, 69, 0
3, 20472, Note_on_c, 1, 57, 79
3, 20472, Note_on_c, 1, 73, 79
3, 20482, Note_on_c, 1, 57, 0
3, 20484, Note_on_c, 1, 69, 79
3, 20492, Note_on_c, 1, 73, 0
3, 20494, Note_on_c, 1, 69, 0
3, 20496, Note_on_c, 1, 59, 79
3, 20496, Note_on_c, 1, 74, 79
3, 20506, Note_on_c, 1, 59, 0
3, 20508, Note_on_c, 1, 69, 79
3, 20516, Note_on_c, 1, 74, 0
3, 20518, Note_on_c, 1, 69, 0
3, 20520, Note_on_c, 1, 61, 79
3, 20520, Note_on_c, 1, 76, 79
3, 20530, Note_on_c, 1, 61, 0
3, 20532, Note_on_c, 1, 69, 79
3, 20540, Note_on_c, 1, 76, 0
3, 20542, Note_on_c, 1, 69, 0
3, 20544, Note_on_c, 1, 62, 79
3, 20544, Note_on_c, 1, 77, 79
3, 20554, Note_on_c, 1, 62, 0
3, 20556, Note_on_c, 1, 69, 79
3, 20564, Note_on_c, 1, 77, 0
3, 20566, Note_on_c, 1, 69, 0
3, 20568, Note_on_c, 1, 61, 79
3, 20568, Note_on_c, 1, 76, 79
3, 20578, Note_on_c, 1, 61, 0
3, 20580, Note_on_c, 1, 69, 79
3, 20588, Note_on_c, 1, 76, 0
3, 20590, Note_on_c, 1, 69, 0
3, 20592, Note_on_c, 1, 62, 79
3, 20592, Note_on_c, 1, 77, 79
3, 20602, Note_on_c, 1, 62, 0
3, 20604, Note_on_c, 1, 69, 79
3, 20612, Note_on_c, 1, 77, 0
3, 20614, Note_on_c, 1, 69, 0
3, 20616, Note_on_c, 1, 64, 79
3, 20616, Note_on_c, 1, 79, 79
3, 20626, Note_on_c, 1, 64, 0
3, 20628, Note_on_c, 1, 69, 79
3, 20636, Note_on_c, 1, 79, 0
3, 20638, Note_on_c, 1, 69, 0
3, 20640, Note_on_c, 1, 65, 79
3, 20640, Note_on_c, 1, 81, 79
3, 20650, Note_on_c, 1, 81, 0
3, 20652, Note_on_c, 1, 82, 79
3, 20660, Note_on_c, 1, 65, 0
3, 20662, Note_on_c, 1, 82, 0
3, 20664, Note_on_c, 1, 64, 79
3, 20664, Note_on_c, 1, 79, 79
3, 20674, Note_on_c, 1, 79, 0
3, 20676, Note_on_c, 1, 81, 79
3, 20684, Note_on_c, 1, 64, 0
3, 20686, Note_on_c, 1, 81, 0
3, 20688, Note_on_c, 1, 62, 79
3, 20688, Note_on_c, 1, 77, 79
3, 20698, Note_on_c, 1, 77, 0
3, 20700, Note_on_c, 1, 79, 79
3, 20708, Note_on_c, 1, 62, 0
3, 20710, Note_on_c, 1, 79, 0
3, 20712, Note_on_c, 1, 67, 79
3, 20712, Note_on_c, 1, 76, 79
3, 20722, Note_on_c, 1, 76, 0
3, 20724, Note_on_c, 1, 77, 79
3, 20732, Note_on_c, 1, 67, 0
3, 20734, Note_on_c, 1, 77, 0
3, 20736, Note_on_c, 1, 65, 79
3, 20736, Note_on_c, 1, 74, 79
3, 20748, Note_on_c, 1, 74, 0
3, 20748, Note_on_c, 1, 69, 79
3, 20760, Note_on_c, 1, 65, 0
3, 20760, Note_on_c, 1, 69, 0
3, 20760, Note_on_c, 1, 64, 79
3, 20760, Note_on_c, 1, 73, 79
3, 20772, Note_on_c, 1, 73, 0
3, 20772, Note_on_c, 1, 69, 79
3, 20784, Note_on_c, 1, 64, 0
3, 20784, Note_on_c, 1, 69, 0
3, 20784, Note_on_c, 1, 65, 79
3, 20784, Note_on_c, 1, 74, 79
3, 20796, Note_on_c, 1, 74, 0
3, 20796, Note_on_c, 1, 69, 79
3, 20808, Note_on_c, 1, 65, 0
3, 20808, Note_on_c, 1, 69, 0
3, 20808, Note_on_c, 1, 61, 79
3, 20808, Note_on_c, 1, 76, 79
3, 20820, Note_on_c, 1, 76, 0
3, 20820, Note_on_c, 1, 69, 79
3, 20832, Note_on_c, 1, 61, 0
3, 20832, Note_on_c, 1, 69, 0
3, 20832, Note_on_c, 1, 62, 79
3, 20832, Note_on_c, 1, 77, 79
3, 20844, Note_on_c, 1, 77, 0
3, 20844, Note_on_c, 1, 69, 79
3, 20856, Note_on_c, 1, 62, 0
3, 20856, Note_on_c, 1, 69, 0
3, 20856, Note_on_c, 1, 61, 79
3, 20856, Note_on_c, 1, 76, 79
3, 20868, Note_on_c, 1, 76, 0
3, 20868, Note_on_c, 1, 69, 79
3, 20880, Note_on_c, 1, 61, 0
3, 20880, Note_on_c, 1, 69, 0
3, 20880, Note_on_c, 1, 62, 79
3, 20880, Note_on_c, 1, 77, 79
3, 20892, Note_on_c, 1, 77, 0
3, 20892, Note_on_c, 1, 69, 79
3, 20904, Note_on_c, 1, 62, 0
3, 20904, Note_on_c, 1, 69, 0
3, 20904, Note_on_c, 1, 59, 79
3, 20904, Note_on_c, 1, 79, 79
3, 20916, Note_on_c, 1, 79, 0
3, 20916, Note_on_c, 1, 69, 79
3, 20928, Note_on_c, 1, 59, 0
3, 20928, Note_on_c, 1, 69, 0
3, 20928, Note_on_c, 1, 61, 79
3, 20928, Note_on_c, 1, 81, 79
3, 20938, Note_on_c, 1, 81, 0
3, 20940, Note_on_c, 1, 69, 79
3, 20948, Note_on_c, 1, 61, 0
3, 20950, Note_on_c, 1, 69, 0
3, 20952, Note_on_c, 1, 67, 79
3, 20952, Note_on_c, 1, 76, 79
3, 20962, Note_on_c, 1, 76, 0
3, 20964, Note_on_c, 1, 69, 79
3, 20972, Note_on_c, 1, 67, 0
3, 20974, Note_on_c, 1, 69, 0
3, 20976, Note_on_c, 1, 65, 79
3, 20976, Note_on_c, 1, 77, 79
3, 20986, Note_on_c, 1, 77, 0
3, 20988, Note_on_c, 1, 69, 79
3, 20996, Note_on_c, 1, 65, 0
3, 20998, Note_on_c, 1, 69, 0
3, 21000, Note_on_c, 1, 62, 79
3, 21000, Note_on_c, 1, 79, 79
3, 21010, Note_on_c, 1, 79, 0
3, 21012, Note_on_c, 1, 69, 79
3, 21020, Note_on_c, 1, 62, 0
3, 21022, Note_on_c, 1, 69, 0
3, 21024, Note_on_c, 1, 61, 79
3, 21024, Note_on_c, 1, 81, 79
3, 21036, Note_on_c, 1, 57, 79
3, 21046, Note_on_c, 1, 57, 0
3, 21048, Note_on_c, 1, 55, 79
3, 21058, Note_on_c, 1, 55, 0
3, 21060, Note_on_c, 1, 57, 79
3, 21064, Note_on_c, 1, 61, 0
3, 21064, Note_on_c, 1, 81, 0
3, 21070, Note_on_c, 1, 57, 0
3, 21072, Note_on_c, 1, 53, 79
3, 21082, Note_on_c, 1, 53, 0
3, 21084, Note_on_c, 1, 57, 79
3, 21094, Note_on_c, 1, 57, 0
3, 21096, Note_on_c, 1, 52, 79
3, 21106, Note_on_c, 1, 52, 0
3, 21108, Note_on_c, 1, 57, 79
3, 21118, Note_on_c, 1, 57, 0
3, 21120, Note_on_c, 1, 50, 79
3, 21130, Note_on_c, 1, 50, 0
3, 21132, Note_on_c, 1, 57, 79
3, 21142, Note_on_c, 1, 57, 0
3, 21144, Note_on_c, 1, 49, 79
3, 21154, Note_on_c, 1, 49, 0
3, 21156, Note_on_c, 1, 57, 79
3, 21166, Note_on_c, 1, 57, 0
3, 21168, Note_on_c, 1, 50, 79
3, 21178, Note_on_c, 1, 50, 0
3, 21180, Note_on_c, 1, 57, 79
3, 21190, Note_on_c, 1, 57, 0
3, 21192, Note_on_c, 1, 52, 79
3, 21202, Note_on_c, 1, 52, 0
3, 21204, Note_on_c, 1, 57, 79
3, 21214, Note_on_c, 1, 57, 0
3, 21216, Note_on_c, 1, 53, 79
3, 21226, Note_on_c, 1, 53, 0
3, 21228, Note_on_c, 1, 57, 79
3, 21238, Note_on_c, 1, 57, 0
3, 21240, Note_on_c, 1, 49, 79
3, 21250, Note_on_c, 1, 49, 0
3, 21252, Note_on_c, 1, 57, 79
3, 21262, Note_on_c, 1, 57, 0
3, 21264, Note_on_c, 1, 47, 79
3, 21274, Note_on_c, 1, 47, 0
3, 21276, Note_on_c, 1, 57, 79
3, 21286, Note_on_c, 1, 57, 0
3, 21288, Note_on_c, 1, 49, 79
3, 21298, Note_on_c, 1, 49, 0
3, 21300, Note_on_c, 1, 57, 79
3, 21310, Note_on_c, 1, 57, 0
3, 21312, Note_on_c, 1, 50, 79
3, 21322, Note_on_c, 1, 50, 0
3, 21324, Note_on_c, 1, 57, 79
3, 21334, Note_on_c, 1, 57, 0
3, 21336, Note_on_c, 1, 49, 79
3, 21346, Note_on_c, 1, 49, 0
3, 21348, Note_on_c, 1, 57, 79
3, 21358, Note_on_c, 1, 57, 0
3, 21360, Note_on_c, 1, 50, 79
3, 21370, Note_on_c, 1, 50, 0
3, 21372, Note_on_c, 1, 57, 79
3, 21382, Note_on_c, 1, 57, 0
3, 21384, Note_on_c, 1, 52, 79
3, 21394, Note_on_c, 1, 52, 0
3, 21396, Note_on_c, 1, 57, 79
3, 21406, Note_on_c, 1, 57, 0
3, 21408, Note_on_c, 1, 53, 79
3, 21420, Note_on_c, 1, 67, 79
3, 21420, Note_on_c, 1, 76, 79
3, 21430, Note_on_c, 1, 67, 0
3, 21430, Note_on_c, 1, 76, 0
3, 21432, Note_on_c, 1, 65, 79
3, 21432, Note_on_c, 1, 74, 79
3, 21442, Note_on_c, 1, 65, 0
3, 21442, Note_on_c, 1, 74, 0
3, 21444, Note_on_c, 1, 64, 79
3, 21444, Note_on_c, 1, 73, 79
3, 21448, Note_on_c, 1, 53, 0
3, 21454, Note_on_c, 1, 64, 0
3, 21454, Note_on_c, 1, 73, 0
3, 21456, Note_on_c, 1, 65, 79
3, 21456, Note_on_c, 1, 74, 79
3, 21466, Note_on_c, 1, 65, 0
3, 21468, Note_on_c, 1, 61, 79
3, 21476, Note_on_c, 1, 74, 0
3, 21478, Note_on_c, 1, 61, 0
3, 21480, Note_on_c, 1, 53, 79
3, 21480, Note_on_c, 1, 62, 79
3, 21492, Note_on_c, 1, 77, 79
3, 21500, Note_on_c, 1, 53, 0
3, 21502, Note_on_c, 1, 77, 0
3, 21504, Note_on_c, 1, 55, 79
3, 21504, Note_on_c, 1, 76, 79
3, 21514, Note_on_c, 1, 76, 0
3, 21516, Note_on_c, 1, 77, 79
3, 21524, Note_on_c, 1, 55, 0
3, 21526, Note_on_c, 1, 77, 0
3, 21528, Note_on_c, 1, 52, 79
3, 21528, Note_on_c, 1, 79, 79
3, 21538, Note_on_c, 1, 79, 0
3, 21540, Note_on_c, 1, 62, 0
3, 21540, Note_on_c, 1, 81, 79
3, 21548, Note_on_c, 1, 52, 0
3, 21550, Note_on_c, 1, 81, 0
3, 21552, Note_on_c, 1, 61, 79
3, 21552, Note_on_c, 1, 57, 79
3, 21552, Note_on_c, 1, 82, 79
3, 21562, Note_on_c, 1, 82, 0
3, 21564, Note_on_c, 1, 81, 79
3, 21572, Note_on_c, 1, 57, 0
3, 21574, Note_on_c, 1, 81, 0
3, 21576, Note_on_c, 1, 45, 79
3, 21576, Note_on_c, 1, 79, 79
3, 21586, Note_on_c, 1, 79, 0
3, 21588, Note_on_c, 1, 81, 79
3, 21592, Note_on_c, 1, 61, 0
3, 21596, Note_on_c, 1, 45, 0
3, 21598, Note_on_c, 1, 81, 0
3, 21600, Note_on_c, 1, 62, 79
3, 21600, Note_on_c, 1, 50, 79
3, 21600, Note_on_c, 1, 77, 79
3, 21610, Note_on_c, 1, 62, 0
3, 21612, Note_on_c, 1, 69, 79
3, 21620, Note_on_c, 1, 77, 0
3, 21622, Note_on_c, 1, 69, 0
3, 21624, Note_on_c, 1, 71, 79
3, 21624, Note_on_c, 1, 76, 79
3, 21634, Note_on_c, 1, 71, 0
3, 21636, Note_on_c, 1, 73, 79
3, 21640, Note_on_c, 1, 50, 0
3, 21644, Note_on_c, 1, 76, 0
3, 21646, Note_on_c, 1, 73, 0
3, 21648, Note_on_c, 1, 74, 79
3, 21648, Note_on_c, 1, 74, 79
3, 21658, Note_on_c, 1, 74, 0
3, 21660, Note_on_c, 1, 76, 79
3, 21670, Note_on_c, 1, 76, 0
3, 21672, Note_on_c, 1, 72, 79
3, 21672, Note_on_c, 1, 45, 79
3, 21672, Note_on_c, 1, 77, 79
3, 21682, Note_on_c, 1, 77, 0
3, 21684, Note_on_c, 1, 75, 79
3, 21692, Note_on_c, 1, 45, 0
3, 21692, Note_on_c, 1, 72, 0
3, 21694, Note_on_c, 1, 75, 0
3, 21696, Note_on_c, 1, 65, 79
3, 21696, Note_on_c, 1, 46, 79
3, 21696, Note_on_c, 1, 74, 79
3, 21706, Note_on_c, 1, 74, 0
3, 21708, Note_on_c, 1, 72, 79
3, 21716, Note_on_c, 1, 46, 0
3, 21718, Note_on_c, 1, 72, 0
3, 21720, Note_on_c, 1, 43, 79
3, 21720, Note_on_c, 1, 70, 79
3, 21730, Note_on_c, 1, 70, 0
3, 21732, Note_on_c, 1, 69, 79
3, 21740, Note_on_c, 1, 43, 0
3, 21742, Note_on_c, 1, 69, 0
3, 21744, Note_on_c, 1, 48, 79
3, 21744, Note_on_c, 1, 67, 79
3, 21754, Note_on_c, 1, 67, 0
3, 21756, Note_on_c, 1, 65, 0
3, 21756, Note_on_c, 1, 69, 79
3, 21764, Note_on_c, 1, 48, 0
3, 21766, Note_on_c, 1, 69, 0
3, 21768, Note_on_c, 1, 64, 79
3, 21768, Note_on_c, 1, 36, 79
3, 21768, Note_on_c, 1, 70, 79
3, 21778, Note_on_c, 1, 70, 0
3, 21780, Note_on_c, 1, 72, 79
3, 21788, Note_on_c, 1, 36, 0
3, 21790, Note_on_c, 1, 72, 0
3, 21792, Note_on_c, 1, 41, 79
3, 21792, Note_on_c, 1, 69, 79
3, 21802, Note_on_c, 1, 64, 0
3, 21804, Note_on_c, 1, 60, 79
3, 21814, Note_on_c, 1, 60, 0
3, 21816, Note_on_c, 1, 57, 79
3, 21826, Note_on_c, 1, 57, 0
3, 21828, Note_on_c, 1, 53, 79
3, 21832, Note_on_c, 1, 41, 0
3, 21832, Note_on_c, 1, 69, 0
3, 21838, Note_on_c, 1, 53, 0
3, 21840, Note_on_c, 1, 57, 79
3, 21850, Note_on_c, 1, 57, 0
3, 21852, Note_on_c, 1, 60, 79
3, 21862, Note_on_c, 1, 60, 0
3, 21864, Note_on_c, 1, 63, 79
3, 21864, Note_on_c, 1, 45, 79
3, 21864, Note_on_c, 1, 72, 79
3, 21874, Note_on_c, 1, 63, 0
3, 21876, Note_on_c, 1, 60, 79
3, 21884, Note_on_c, 1, 45, 0
3, 21886, Note_on_c, 1, 60, 0
3, 21888, Note_on_c, 1, 46, 79
3, 21888, Note_on_c, 1, 62, 79
3, 21898, Note_on_c, 1, 62, 0
3, 21900, Note_on_c, 1, 58, 79
3, 21904, Note_on_c, 1, 72, 0
3, 21910, Note_on_c, 1, 58, 0
3, 21912, Note_on_c, 1, 55, 79
3, 21912, Note_on_c, 1, 70, 79
3, 21922, Note_on_c, 1, 55, 0
3, 21924, Note_on_c, 1, 50, 79
3, 21928, Note_on_c, 1, 46, 0
3, 21932, Note_on_c, 1, 70, 0
3, 21934, Note_on_c, 1, 50, 0
3, 21936, Note_on_c, 1, 55, 79
3, 21946, Note_on_c, 1, 55, 0
3, 21948, Note_on_c, 1, 58, 79
3, 21958, Note_on_c, 1, 58, 0
3, 21960, Note_on_c, 1, 46, 79
3, 21960, Note_on_c, 1, 62, 79
3, 21960, Note_on_c, 1, 79, 79
3, 21970, Note_on_c, 1, 62, 0
3, 21972, Note_on_c, 1, 67, 79
3, 21980, Note_on_c, 1, 46, 0
3, 21980, Note_on_c, 1, 79, 0
3, 21982, Note_on_c, 1, 67, 0
3, 21984, Note_on_c, 1, 48, 79
3, 21984, Note_on_c, 1, 60, 79
3, 21984, Note_on_c, 1, 75, 79
3, 21994, Note_on_c, 1, 60, 0
3, 21994, Note_on_c, 1, 75, 0
3, 21996, Note_on_c, 1, 62, 79
3, 21996, Note_on_c, 1, 77, 79
3, 22006, Note_on_c, 1, 62, 0
3, 22006, Note_on_c, 1, 77, 0
3, 22008, Note_on_c, 1, 58, 79
3, 22008, Note_on_c, 1, 74, 79
3, 22018, Note_on_c, 1, 58, 0
3, 22018, Note_on_c, 1, 74, 0
3, 22020, Note_on_c, 1, 60, 79
3, 22020, Note_on_c, 1, 75, 79
3, 22024, Note_on_c, 1, 48, 0
3, 22030, Note_on_c, 1, 60, 0
3, 22030, Note_on_c, 1, 75, 0
3, 22032, Note_on_c, 1, 57, 79
3, 22032, Note_on_c, 1, 72, 79
3, 22042, Note_on_c, 1, 57, 0
3, 22042, Note_on_c, 1, 72, 0
3, 22044, Note_on_c, 1, 55, 79
3, 22044, Note_on_c, 1, 70, 79
3, 22054, Note_on_c, 1, 55, 0
3, 22054, Note_on_c, 1, 70, 0
3, 22056, Note_on_c, 1, 45, 79
3, 22056, Note_on_c, 1, 54, 79
3, 22056, Note_on_c, 1, 69, 79
3, 22066, Note_on_c, 1, 54, 0
3, 22066, Note_on_c, 1, 69, 0
3, 22068, Note_on_c, 1, 52, 79
3, 22068, Note_on_c, 1, 67, 79
3, 22076, Note_on_c, 1, 45, 0
3, 22078, Note_on_c, 1, 52, 0
3, 22078, Note_on_c, 1, 67, 0
3, 22080, Note_on_c, 1, 50, 79
3, 22080, Note_on_c, 1, 54, 79
3, 22080, Note_on_c, 1, 69, 79
3, 22090, Note_on_c, 1, 54, 0
3, 22092, Note_on_c, 1, 50, 79
3, 22102, Note_on_c, 1, 50, 0
3, 22104, Note_on_c, 1, 54, 79
3, 22114, Note_on_c, 1, 54, 0
3, 22116, Note_on_c, 1, 55, 79
3, 22120, Note_on_c, 1, 69, 0
3, 22126, Note_on_c, 1, 55, 0
3, 22128, Note_on_c, 1, 57, 79
3, 22138, Note_on_c, 1, 57, 0
3, 22140, Note_on_c, 1, 62, 79
3, 22150, Note_on_c, 1, 62, 0
3, 22152, Note_on_c, 1, 57, 79
3, 22162, Note_on_c, 1, 57, 0
3, 22164, Note_on_c, 1, 55, 79
3, 22174, Note_on_c, 1, 55, 0
3, 22176, Note_on_c, 1, 50, 79
3, 22176, Note_on_c, 1, 54, 79
3, 22186, Note_on_c, 1, 54, 0
3, 22188, Note_on_c, 1, 50, 79
3, 22198, Note_on_c, 1, 50, 0
3, 22200, Note_on_c, 1, 54, 79
3, 22210, Note_on_c, 1, 54, 0
3, 22212, Note_on_c, 1, 55, 79
3, 22222, Note_on_c, 1, 55, 0
3, 22224, Note_on_c, 1, 57, 79
3, 22234, Note_on_c, 1, 57, 0
3, 22236, Note_on_c, 1, 62, 79
3, 22246, Note_on_c, 1, 62, 0
3, 22248, Note_on_c, 1, 57, 79
3, 22258, Note_on_c, 1, 57, 0
3, 22260, Note_on_c, 1, 54, 79
3, 22270, Note_on_c, 1, 54, 0
3, 22272, Note_on_c, 1, 50, 79
3, 22272, Note_on_c, 1, 55, 79
3, 22282, Note_on_c, 1, 55, 0
3, 22284, Note_on_c, 1, 50, 79
3, 22294, Note_on_c, 1, 50, 0
3, 22296, Note_on_c, 1, 55, 79
3, 22306, Note_on_c, 1, 55, 0
3, 22308, Note_on_c, 1, 57, 79
3, 22318, Note_on_c, 1, 57, 0
3, 22320, Note_on_c, 1, 58, 79
3, 22330, Note_on_c, 1, 58, 0
3, 22332, Note_on_c, 1, 62, 79
3, 22342, Note_on_c, 1, 62, 0
3, 22344, Note_on_c, 1, 58, 79
3, 22354, Note_on_c, 1, 58, 0
3, 22356, Note_on_c, 1, 57, 79
3, 22366, Note_on_c, 1, 57, 0
3, 22368, Note_on_c, 1, 50, 79
3, 22368, Note_on_c, 1, 55, 79
3, 22378, Note_on_c, 1, 55, 0
3, 22380, Note_on_c, 1, 50, 79
3, 22390, Note_on_c, 1, 50, 0
3, 22392, Note_on_c, 1, 55, 79
3, 22402, Note_on_c, 1, 55, 0
3, 22404, Note_on_c, 1, 57, 79
3, 22414, Note_on_c, 1, 57, 0
3, 22416, Note_on_c, 1, 58, 79
3, 22426, Note_on_c, 1, 58, 0
3, 22428, Note_on_c, 1, 62, 79
3, 22438, Note_on_c, 1, 62, 0
3, 22440, Note_on_c, 1, 60, 79
3, 22450, Note_on_c, 1, 60, 0
3, 22452, Note_on_c, 1, 58, 79
3, 22462, Note_on_c, 1, 58, 0
3, 22464, Note_on_c, 1, 50, 79
3, 22464, Note_on_c, 1, 57, 79
3, 22474, Note_on_c, 1, 57, 0
3, 22476, Note_on_c, 1, 54, 79
3, 22486, Note_on_c, 1, 54, 0
3, 22488, Note_on_c, 1, 57, 79
3, 22498, Note_on_c, 1, 57, 0
3, 22500, Note_on_c, 1, 58, 79
3, 22504, Note_on_c, 1, 50, 0
3, 22510, Note_on_c, 1, 58, 0
3, 22512, Note_on_c, 1, 60, 79
3, 22522, Note_on_c, 1, 60, 0
3, 22524, Note_on_c, 1, 63, 79
3, 22534, Note_on_c, 1, 63, 0
3, 22536, Note_on_c, 1, 60, 79
3, 22546, Note_on_c, 1, 60, 0
3, 22548, Note_on_c, 1, 58, 79
3, 22558, Note_on_c, 1, 58, 0
3, 22560, Note_on_c, 1, 50, 79
3, 22560, Note_on_c, 1, 57, 79
3, 22570, Note_on_c, 1, 57, 0
3, 22572, Note_on_c, 1, 54, 79
3, 22582, Note_on_c, 1, 54, 0
3, 22584, Note_on_c, 1, 57, 79
3, 22594, Note_on_c, 1, 57, 0
3, 22596, Note_on_c, 1, 58, 79
3, 22600, Note_on_c, 1, 50, 0
3, 22606, Note_on_c, 1, 58, 0
3, 22608, Note_on_c, 1, 60, 79
3, 22618, Note_on_c, 1, 60, 0
3, 22620, Note_on_c, 1, 63, 79
3, 22630, Note_on_c, 1, 63, 0
3, 22632, Note_on_c, 1, 60, 79
3, 22642, Note_on_c, 1, 60, 0
3, 22644, Note_on_c, 1, 58, 79
3, 22654, Note_on_c, 1, 58, 0
3, 22656, Note_on_c, 1, 50, 79
3, 22656, Note_on_c, 1, 57, 79
3, 22666, Note_on_c, 1, 57, 0
3, 22668, Note_on_c, 1, 58, 79
3, 22678, Note_on_c, 1, 58, 0
3, 22680, Note_on_c, 1, 62, 79
3, 22690, Note_on_c, 1, 62, 0
3, 22692, Note_on_c, 1, 66, 79
3, 22696, Note_on_c, 1, 50, 0
3, 22702, Note_on_c, 1, 66, 0
3, 22704, Note_on_c, 1, 67, 79
3, 22714, Note_on_c, 1, 67, 0
3, 22716, Note_on_c, 1, 70, 79
3, 22726, Note_on_c, 1, 70, 0
3, 22728, Note_on_c, 1, 67, 79
3, 22738, Note_on_c, 1, 67, 0
3, 22740, Note_on_c, 1, 62, 79
3, 22750, Note_on_c, 1, 62, 0
3, 22752, Note_on_c, 1, 50, 79
3, 22752, Note_on_c, 1, 58, 79
3, 22762, Note_on_c, 1, 58, 0
3, 22764, Note_on_c, 1, 55, 79
3, 22774, Note_on_c, 1, 55, 0
3, 22776, Note_on_c, 1, 58, 79
3, 22786, Note_on_c, 1, 58, 0
3, 22788, Note_on_c, 1, 62, 79
3, 22792, Note_on_c, 1, 50, 0
3, 22798, Note_on_c, 1, 62, 0
3, 22800, Note_on_c, 1, 67, 79
3, 22810, Note_on_c, 1, 67, 0
3, 22812, Note_on_c, 1, 70, 79
3, 22822, Note_on_c, 1, 70, 0
3, 22824, Note_on_c, 1, 67, 79
3, 22834, Note_on_c, 1, 67, 0
3, 22836, Note_on_c, 1, 62, 79
3, 22846, Note_on_c, 1, 62, 0
3, 22848, Note_on_c, 1, 50, 79
3, 22848, Note_on_c, 1, 60, 79
3, 22858, Note_on_c, 1, 60, 0
3, 22860, Note_on_c, 1, 57, 79
3, 22870, Note_on_c, 1, 57, 0
3, 22872, Note_on_c, 1, 60, 79
3, 22882, Note_on_c, 1, 60, 0
3, 22884, Note_on_c, 1, 63, 79
3, 22888, Note_on_c, 1, 50, 0
3, 22894, Note_on_c, 1, 63, 0
3, 22896, Note_on_c, 1, 66, 79
3, 22906, Note_on_c, 1, 66, 0
3, 22908, Note_on_c, 1, 69, 79
3, 22918, Note_on_c, 1, 69, 0
3, 22920, Note_on_c, 1, 66, 79
3, 22930, Note_on_c, 1, 66, 0
3, 22932, Note_on_c, 1, 63, 79
3, 22942, Note_on_c, 1, 63, 0
3, 22944, Note_on_c, 1, 50, 79
3, 22944, Note_on_c, 1, 60, 79
3, 22954, Note_on_c, 1, 60, 0
3, 22956, Note_on_c, 1, 57, 79
3, 22966, Note_on_c, 1, 57, 0
3, 22968, Note_on_c, 1, 60, 79
3, 22978, Note_on_c, 1, 60, 0
3, 22980, Note_on_c, 1, 63, 79
3, 22984, Note_on_c, 1, 50, 0
3, 22990, Note_on_c, 1, 63, 0
3, 22992, Note_on_c, 1, 66, 79
3, 23002, Note_on_c, 1, 66, 0
3, 23004, Note_on_c, 1, 69, 79
3, 23014, Note_on_c, 1, 69, 0
3, 23016, Note_on_c, 1, 66, 79
3, 23026, Note_on_c, 1, 66, 0
3, 23028, Note_on_c, 1, 63, 79
3, 23038, Note_on_c, 1, 63, 0
3, 23040, Note_on_c, 1, 54, 79
3, 23040, Note_on_c, 1, 62, 79
3, 23052, Note_on_c, 1, 50, 79
3, 23060, Note_on_c, 1, 54, 0
3, 23060, Note_on_c, 1, 62, 0
3, 23062, Note_on_c, 1, 50, 0
3, 23064, Note_on_c, 1, 48, 79
3, 23074, Note_on_c, 1, 48, 0
3, 23076, Note_on_c, 1, 50, 79
3, 23086, Note_on_c, 1, 50, 0
3, 23088, Note_on_c, 1, 67, 79
3, 23088, Note_on_c, 1, 55, 79
3, 23088, Note_on_c, 1, 46, 79
3, 23088, Note_on_c, 1, 74, 79
3, 23098, Note_on_c, 1, 46, 0
3, 23100, Note_on_c, 1, 50, 79
3, 23108, Note_on_c, 1, 55, 0
3, 23108, Note_on_c, 1, 67, 0
3, 23108, Note_on_c, 1, 74, 0
3, 23110, Note_on_c, 1, 50, 0
3, 23112, Note_on_c, 1, 66, 79
3, 23112, Note_on_c, 1, 57, 79
3, 23112, Note_on_c, 1, 45, 79
3, 23112, Note_on_c, 1, 72, 79
3, 23122, Note_on_c, 1, 45, 0
3, 23124, Note_on_c, 1, 50, 79
3, 23132, Note_on_c, 1, 57, 0
3, 23132, Note_on_c, 1, 66, 0
3, 23132, Note_on_c, 1, 72, 0
3, 23134, Note_on_c, 1, 50, 0
3, 23136, Note_on_c, 1, 67, 79
3, 23136, Note_on_c, 1, 58, 79
3, 23136, Note_on_c, 1, 43, 79
3, 23136, Note_on_c, 1, 70, 79
3, 23146, Note_on_c, 1, 43, 0
3, 23148, Note_on_c, 1, 55, 79
3, 23158, Note_on_c, 1, 55, 0
3, 23160, Note_on_c, 1, 53, 79
3, 23170, Note_on_c, 1, 53, 0
3, 23172, Note_on_c, 1, 55, 79
3, 23176, Note_on_c, 1, 58, 0
3, 23176, Note_on_c, 1, 67, 0
3, 23176, Note_on_c, 1, 70, 0
3, 23182, Note_on_c, 1, 55, 0
3, 23184, Note_on_c, 1, 67, 79
3, 23184, Note_on_c, 1, 63, 79
3, 23184, Note_on_c, 1, 51, 79
3, 23184, Note_on_c, 1, 72, 79
3, 23194, Note_on_c, 1, 51, 0
3, 23196, Note_on_c, 1, 55, 79
3, 23204, Note_on_c, 1, 63, 0
3, 23204, Note_on_c, 1, 67, 0
3, 23204, Note_on_c, 1, 72, 0
3, 23206, Note_on_c, 1, 55, 0
3, 23208, Note_on_c, 1, 59, 79
3, 23208, Note_on_c, 1, 71, 79
3, 23208, Note_on_c, 1, 50, 79
3, 23208, Note_on_c, 1, 74, 79
3, 23218, Note_on_c, 1, 50, 0
3, 23220, Note_on_c, 1, 55, 79
3, 23228, Note_on_c, 1, 59, 0
3, 23228, Note_on_c, 1, 71, 0
3, 23228, Note_on_c, 1, 74, 0
3, 23230, Note_on_c, 1, 55, 0
3, 23232, Note_on_c, 1, 72, 79
3, 23232, Note_on_c, 1, 55, 79
3, 23232, Note_on_c, 1, 48, 79
3, 23232, Note_on_c, 1, 75, 79
3, 23242, Note_on_c, 1, 48, 0
3, 23244, Note_on_c, 1, 48, 79
3, 23254, Note_on_c, 1, 48, 0
3, 23256, Note_on_c, 1, 46, 79
3, 23266, Note_on_c, 1, 46, 0
3, 23268, Note_on_c, 1, 48, 79
3, 23272, Note_on_c, 1, 55, 0
3, 23272, Note_on_c, 1, 72, 0
3, 23272, Note_on_c, 1, 75, 0
3, 23278, Note_on_c, 1, 48, 0
3, 23280, Note_on_c, 1, 72, 79
3, 23280, Note_on_c, 1, 60, 79
3, 23280, Note_on_c, 1, 45, 79
3, 23280, Note_on_c, 1, 77, 79
3, 23290, Note_on_c, 1, 45, 0
3, 23292, Note_on_c, 1, 48, 79
3, 23300, Note_on_c, 1, 60, 0
3, 23300, Note_on_c, 1, 72, 0
3, 23300, Note_on_c, 1, 77, 0
3, 23302, Note_on_c, 1, 48, 0
3, 23304, Note_on_c, 1, 76, 79
3, 23304, Note_on_c, 1, 58, 79
3, 23304, Note_on_c, 1, 43, 79
3, 23304, Note_on_c, 1, 79, 79
3, 23314, Note_on_c, 1, 43, 0
3, 23316, Note_on_c, 1, 48, 79
3, 23324, Note_on_c, 1, 58, 0
3, 23324, Note_on_c, 1, 76, 0
3, 23324, Note_on_c, 1, 79, 0
3, 23326, Note_on_c, 1, 48, 0
3, 23328, Note_on_c, 1, 57, 79
3, 23328, Note_on_c, 1, 77, 79
3, 23328, Note_on_c, 1, 41, 79
3, 23328, Note_on_c, 1, 81, 79
3, 23338, Note_on_c, 1, 41, 0
3, 23340, Note_on_c, 1, 53, 79
3, 23350, Note_on_c, 1, 53, 0
3, 23352, Note_on_c, 1, 51, 79
3, 23362, Note_on_c, 1, 51, 0
3, 23364, Note_on_c, 1, 53, 79
3, 23368, Note_on_c, 1, 57, 0
3, 23368, Note_on_c, 1, 77, 0
3, 23368, Note_on_c, 1, 81, 0
3, 23374, Note_on_c, 1, 53, 0
3, 23376, Note_on_c, 1, 70, 79
3, 23376, Note_on_c, 1, 58, 79
3, 23376, Note_on_c, 1, 50, 79
3, 23376, Note_on_c, 1, 77, 79
3, 23386, Note_on_c, 1, 50, 0
3, 23388, Note_on_c, 1, 53, 79
3, 23396, Note_on_c, 1, 58, 0
3, 23396, Note_on_c, 1, 70, 0
3, 23396, Note_on_c, 1, 77, 0
3, 23398, Note_on_c, 1, 53, 0
3, 23400, Note_on_c, 1, 69, 79
3, 23400, Note_on_c, 1, 60, 79
3, 23400, Note_on_c, 1, 48, 79
3, 23400, Note_on_c, 1, 75, 79
3, 23410, Note_on_c, 1, 48, 0
3, 23412, Note_on_c, 1, 53, 79
3, 23420, Note_on_c, 1, 60, 0
3, 23420, Note_on_c, 1, 69, 0
3, 23420, Note_on_c, 1, 75, 0
3, 23422, Note_on_c, 1, 53, 0
3, 23424, Note_on_c, 1, 46, 79
3, 23424, Note_on_c, 1, 70, 79
3, 23424, Note_on_c, 1, 62, 79
3, 23424, Note_on_c, 1, 74, 79
3, 23434, Note_on_c, 1, 62, 0
3, 23434, Note_on_c, 1, 74, 0
3, 23436, Note_on_c, 1, 67, 79
3, 23436, Note_on_c, 1, 75, 79
3, 23444, Note_on_c, 1, 46, 0
3, 23444, Note_on_c, 1, 70, 0
3, 23446, Note_on_c, 1, 67, 0
3, 23446, Note_on_c, 1, 75, 0
3, 23448, Note_on_c, 1, 51, 79
3, 23448, Note_on_c, 1, 65, 79
3, 23448, Note_on_c, 1, 74, 79
3, 23458, Note_on_c, 1, 65, 0
3, 23458, Note_on_c, 1, 74, 0
3, 23460, Note_on_c, 1, 63, 79
3, 23460, Note_on_c, 1, 72, 79
3, 23468, Note_on_c, 1, 51, 0
3, 23470, Note_on_c, 1, 63, 0
3, 23470, Note_on_c, 1, 72, 0
3, 23472, Note_on_c, 1, 53, 79
3, 23472, Note_on_c, 1, 62, 79
3, 23472, Note_on_c, 1, 70, 79
3, 23482, Note_on_c, 1, 62, 0
3, 23482, Note_on_c, 1, 70, 0
3, 23484, Note_on_c, 1, 63, 79
3, 23484, Note_on_c, 1, 72, 79
3, 23492, Note_on_c, 1, 53, 0
3, 23494, Note_on_c, 1, 63, 0
3, 23494, Note_on_c, 1, 72, 0
3, 23496, Note_on_c, 1, 41, 79
3, 23496, Note_on_c, 1, 62, 79
3, 23496, Note_on_c, 1, 70, 79
3, 23506, Note_on_c, 1, 62, 0
3, 23506, Note_on_c, 1, 70, 0
3, 23508, Note_on_c, 1, 60, 79
3, 23508, Note_on_c, 1, 69, 79
3, 23516, Note_on_c, 1, 41, 0
3, 23518, Note_on_c, 1, 60, 0
3, 23518, Note_on_c, 1, 69, 0
3, 23520, Note_on_c, 1, 43, 79
3, 23520, Note_on_c, 1, 58, 79
3, 23520, Note_on_c, 1, 67, 79
3, 23530, Note_on_c, 1, 58, 0
3, 23530, Note_on_c, 1, 67, 0
3, 23532, Note_on_c, 1, 63, 79
3, 23532, Note_on_c, 1, 72, 79
3, 23540, Note_on_c, 1, 43, 0
3, 23542, Note_on_c, 1, 63, 0
3, 23542, Note_on_c, 1, 72, 0
3, 23544, Note_on_c, 1, 48, 79
3, 23544, Note_on_c, 1, 62, 79
3, 23544, Note_on_c, 1, 70, 79
3, 23554, Note_on_c, 1, 62, 0
3, 23554, Note_on_c, 1, 70, 0
3, 23556, Note_on_c, 1, 60, 79
3, 23556, Note_on_c, 1, 69, 79
3, 23564, Note_on_c, 1, 48, 0
3, 23566, Note_on_c, 1, 60, 0
3, 23566, Note_on_c, 1, 69, 0
3, 23568, Note_on_c, 1, 50, 79
3, 23568, Note_on_c, 1, 58, 79
3, 23568, Note_on_c, 1, 67, 79
3, 23578, Note_on_c, 1, 58, 0
3, 23578, Note_on_c, 1, 67, 0
3, 23580, Note_on_c, 1, 60, 79
3, 23580, Note_on_c, 1, 69, 79
3, 23588, Note_on_c, 1, 50, 0
3, 23590, Note_on_c, 1, 60, 0
3, 23590, Note_on_c, 1, 69, 0
3, 23592, Note_on_c, 1, 38, 79
3, 23592, Note_on_c, 1, 58, 79
3, 23592, Note_on_c, 1, 67, 79
3, 23602, Note_on_c, 1, 58, 0
3, 23602, Note_on_c, 1, 67, 0
3, 23604, Note_on_c, 1, 57, 79
3, 23604, Note_on_c, 1, 66, 79
3, 23612, Note_on_c, 1, 38, 0
3, 23614, Note_on_c, 1, 57, 0
3, 23614, Note_on_c, 1, 66, 0
3, 23616, Note_on_c, 1, 58, 79
3, 23616, Note_on_c, 1, 43, 79
3, 23616, Note_on_c, 1, 67, 79
3, 23626, Note_on_c, 1, 58, 0
3, 23626, Note_on_c, 1, 67, 0
3, 23628, Note_on_c, 1, 57, 79
3, 23628, Note_on_c, 1, 65, 79
3, 23638, Note_on_c, 1, 57, 0
3, 23638, Note_on_c, 1, 65, 0
3, 23640, Note_on_c, 1, 55, 79
3, 23640, Note_on_c, 1, 64, 79
3, 23650, Note_on_c, 1, 55, 0
3, 23650, Note_on_c, 1, 64, 0
3, 23652, Note_on_c, 1, 53, 79
3, 23652, Note_on_c, 1, 62, 79
3, 23656, Note_on_c, 1, 43, 0
3, 23662, Note_on_c, 1, 53, 0
3, 23662, Note_on_c, 1, 62, 0
3, 23664, Note_on_c, 1, 52, 79
3, 23664, Note_on_c, 1, 61, 79
3, 23676, Note_on_c, 1, 45, 79
3, 23684, Note_on_c, 1, 52, 0
3, 23684, Note_on_c, 1, 61, 0
3, 23686, Note_on_c, 1, 45, 0
3, 23688, Note_on_c, 1, 55, 79
3, 23688, Note_on_c, 1, 43, 79
3, 23688, Note_on_c, 1, 64, 79
3, 23698, Note_on_c, 1, 43, 0
3, 23700, Note_on_c, 1, 45, 79
3, 23708, Note_on_c, 1, 55, 0
3, 23708, Note_on_c, 1, 64, 0
3, 23710, Note_on_c, 1, 45, 0
3, 23712, Note_on_c, 1, 57, 79
3, 23712, Note_on_c, 1, 41, 79
3, 23712, Note_on_c, 1, 65, 79
3, 23722, Note_on_c, 1, 57, 0
3, 23722, Note_on_c, 1, 65, 0
3, 23724, Note_on_c, 1, 59, 79
3, 23724, Note_on_c, 1, 67, 79
3, 23732, Note_on_c, 1, 41, 0
3, 23734, Note_on_c, 1, 59, 0
3, 23734, Note_on_c, 1, 67, 0
3, 23736, Note_on_c, 1, 61, 79
3, 23736, Note_on_c, 1, 38, 79
3, 23736, Note_on_c, 1, 69, 79
3, 23746, Note_on_c, 1, 61, 0
3, 23746, Note_on_c, 1, 69, 0
3, 23748, Note_on_c, 1, 62, 79
3, 23748, Note_on_c, 1, 71, 79
3, 23756, Note_on_c, 1, 38, 0
3, 23758, Note_on_c, 1, 62, 0
3, 23758, Note_on_c, 1, 71, 0
3, 23760, Note_on_c, 1, 64, 79
3, 23760, Note_on_c, 1, 45, 79
3, 23760, Note_on_c, 1, 73, 79
3, 23770, Note_on_c, 1, 64, 0
3, 23770, Note_on_c, 1, 73, 0
3, 23772, Note_on_c, 1, 65, 79
3, 23772, Note_on_c, 1, 74, 79
3, 23782, Note_on_c, 1, 65, 0
3, 23782, Note_on_c, 1, 74, 0
3, 23784, Note_on_c, 1, 67, 79
3, 23784, Note_on_c, 1, 76, 79
3, 23794, Note_on_c, 1, 67, 0
3, 23794, Note_on_c, 1, 76, 0
3, 23796, Note_on_c, 1, 69, 79
3, 23796, Note_on_c, 1, 77, 79
3, 23800, Note_on_c, 1, 45, 0
3, 23806, Note_on_c, 1, 69, 0
3, 23806, Note_on_c, 1, 77, 0
3, 23808, Note_on_c, 1, 70, 79
3, 23808, Note_on_c, 1, 38, 79
3, 23808, Note_on_c, 1, 79, 79
3, 23828, Note_on_c, 1, 70, 0
3, 23828, Note_on_c, 1, 79, 0
3, 23832, Note_on_c, 1, 69, 79
3, 23832, Note_on_c, 1, 77, 79
3, 23842, Note_on_c, 1, 69, 0
3, 23842, Note_on_c, 1, 77, 0
3, 23844, Note_on_c, 1, 67, 79
3, 23844, Note_on_c, 1, 76, 79
3, 23854, Note_on_c, 1, 67, 0
3, 23854, Note_on_c, 1, 76, 0
3, 23856, Note_on_c, 1, 65, 79
3, 23856, Note_on_c, 1, 74, 79
3, 23866, Note_on_c, 1, 65, 0
3, 23868, Note_on_c, 1, 69, 79
3, 23876, Note_on_c, 1, 74, 0
3, 23878, Note_on_c, 1, 69, 0
3, 23880, Note_on_c, 1, 64, 79
3, 23880, Note_on_c, 1, 73, 79
3, 23890, Note_on_c, 1, 64, 0
3, 23892, Note_on_c, 1, 69, 79
3, 23900, Note_on_c, 1, 73, 0
3, 23902, Note_on_c, 1, 69, 0
3, 23904, Note_on_c, 1, 62, 79
3, 23904, Note_on_c, 1, 74, 79
3, 23914, Note_on_c, 1, 62, 0
3, 23916, Note_on_c, 1, 69, 79
3, 23924, Note_on_c, 1, 74, 0
3, 23926, Note_on_c, 1, 69, 0
3, 23928, Note_on_c, 1, 61, 79
3, 23928, Note_on_c, 1, 76, 79
3, 23938, Note_on_c, 1, 61, 0
3, 23940, Note_on_c, 1, 69, 79
3, 23948, Note_on_c, 1, 76, 0
3, 23950, Note_on_c, 1, 69, 0
3, 23952, Note_on_c, 1, 62, 79
3, 23952, Note_on_c, 1, 77, 79
3, 23962, Note_on_c, 1, 62, 0
3, 23964, Note_on_c, 1, 69, 79
3, 23972, Note_on_c, 1, 77, 0
3, 23974, Note_on_c, 1, 69, 0
3, 23976, Note_on_c, 1, 64, 79
3, 23976, Note_on_c, 1, 79, 79
3, 23986, Note_on_c, 1, 64, 0
3, 23988, Note_on_c, 1, 69, 79
3, 23996, Note_on_c, 1, 79, 0
3, 23998, Note_on_c, 1, 69, 0
3, 24000, Note_on_c, 1, 65, 79
3, 24000, Note_on_c, 1, 81, 79
3, 24010, Note_on_c, 1, 65, 0
3, 24012, Note_on_c, 1, 69, 79
3, 24020, Note_on_c, 1, 81, 0
3, 24022, Note_on_c, 1, 69, 0
3, 24024, Note_on_c, 1, 57, 79
3, 24024, Note_on_c, 1, 73, 79
3, 24034, Note_on_c, 1, 57, 0
3, 24036, Note_on_c, 1, 69, 79
3, 24044, Note_on_c, 1, 73, 0
3, 24046, Note_on_c, 1, 69, 0
3, 24048, Note_on_c, 1, 59, 79
3, 24048, Note_on_c, 1, 74, 79
3, 24058, Note_on_c, 1, 59, 0
3, 24060, Note_on_c, 1, 69, 79
3, 24068, Note_on_c, 1, 74, 0
3, 24070, Note_on_c, 1, 69, 0
3, 24072, Note_on_c, 1, 61, 79
3, 24072, Note_on_c, 1, 76, 79
3, 24080, Note_on_c, 1, 38, 0
3, 24082, Note_on_c, 1, 61, 0
3, 24084, Note_on_c, 1, 69, 79
3, 24092, Note_on_c, 1, 76, 0
3, 24094, Note_on_c, 1, 69, 0
3, 24096, Note_on_c, 1, 62, 79
3, 24096, Note_on_c, 1, 77, 79
3, 24106, Note_on_c, 1, 62, 0
3, 24108, Note_on_c, 1, 69, 79
3, 24116, Note_on_c, 1, 77, 0
3, 24118, Note_on_c, 1, 69, 0
3, 24120, Note_on_c, 1, 61, 79
3, 24120, Note_on_c, 1, 76, 79
3, 24130, Note_on_c, 1, 61, 0
3, 24132, Note_on_c, 1, 69, 79
3, 24140, Note_on_c, 1, 76, 0
3, 24142, Note_on_c, 1, 69, 0
3, 24144, Note_on_c, 1, 62, 79
3, 24144, Note_on_c, 1, 77, 79
3, 24154, Note_on_c, 1, 62, 0
3, 24156, Note_on_c, 1, 69, 79
3, 24164, Note_on_c, 1, 77, 0
3, 24166, Note_on_c, 1, 69, 0
3, 24168, Note_on_c, 1, 59, 79
3, 24168, Note_on_c, 1, 50, 79
3, 24168, Note_on_c, 1, 74, 79
3, 24178, Note_on_c, 1, 59, 0
3, 24180, Note_on_c, 1, 69, 79
3, 24188, Note_on_c, 1, 50, 0
3, 24188, Note_on_c, 1, 74, 0
3, 24190, Note_on_c, 1, 69, 0
3, 24192, Note_on_c, 1, 61, 79
3, 24192, Note_on_c, 1, 45, 79
3, 24192, Note_on_c, 1, 76, 79
3, 24212, Note_on_c, 1, 45, 0
3, 24212, Note_on_c, 1, 61, 0
3, 24212, Note_on_c, 1, 76, 0
3, 24216, Note_on_c, 1, 69, 79
3, 24216, Note_on_c, 1, 62, 79
3, 24216, Note_on_c, 1, 41, 79
3, 24216, Note_on_c, 1, 74, 79
3, 24236, Note_on_c, 1, 41, 0
3, 24236, Note_on_c, 1, 62, 0
3, 24236, Note_on_c, 1, 69, 0
3, 24236, Note_on_c, 1, 74, 0
3, 24240, Note_on_c, 1, 70, 79
3, 24240, Note_on_c, 1, 67, 79
3, 24240, Note_on_c, 1, 43, 79
3, 24240, Note_on_c, 1, 74, 79
3, 24260, Note_on_c, 1, 43, 0
3, 24260, Note_on_c, 1, 67, 0
3, 24260, Note_on_c, 1, 70, 0
3, 24260, Note_on_c, 1, 74, 0
3, 24264, Note_on_c, 1, 69, 79
3, 24264, Note_on_c, 1, 64, 79
3, 24264, Note_on_c, 1, 45, 79
3, 24264, Note_on_c, 1, 73, 79
3, 24284, Note_on_c, 1, 45, 0
3, 24284, Note_on_c, 1, 64, 0
3, 24284, Note_on_c, 1, 69, 0
3, 24284, Note_on_c, 1, 73, 0
3, 24288, Note_on_c, 1, 69, 79
3, 24288, Note_on_c, 1, 65, 79
3, 24288, Note_on_c, 1, 41, 79
3, 24288, Note_on_c, 1, 74, 79
3, 24308, Note_on_c, 1, 41, 0
3, 24308, Note_on_c, 1, 65, 0
3, 24308, Note_on_c, 1, 69, 0
3, 24308, Note_on_c, 1, 74, 0
3, 24312, Note_on_c, 1, 74, 79
3, 24312, Note_on_c, 1, 69, 79
3, 24312, Note_on_c, 1, 38, 79
3, 24312, Note_on_c, 1, 77, 79
3, 24332, Note_on_c, 1, 38, 0
3, 24332, Note_on_c, 1, 69, 0
3, 24332, Note_on_c, 1, 74, 0
3, 24332, Note_on_c, 1, 77, 0
3, 24336, Note_on_c, 1, 74, 79
3, 24336, Note_on_c, 1, 70, 79
3, 24336, Note_on_c, 1, 43, 79
3, 24336, Note_on_c, 1, 76, 79
3, 24356, Note_on_c, 1, 43, 0
3, 24356, Note_on_c, 1, 70, 0
3, 24356, Note_on_c, 1, 74, 0
3, 24360, Note_on_c, 1, 69, 79
3, 24360, Note_on_c, 1, 45, 79
3, 24360, Note_on_c, 1, 72, 79
3, 24376, Note_on_c, 1, 76, 0
3, 24380, Note_on_c, 1, 69, 0
3, 24380, Note_on_c, 1, 72, 0
3, 24380, Note_on_c, 1, 45, 0
3, 24384, Note_on_c, 1, 70, 79
3, 24384, Note_on_c, 1, 65, 79
3, 24384, Note_on_c, 1, 62, 79
3, 24384, Note_on_c, 1, 58, 79
3, 24384, Note_on_c, 1, 53, 79
3, 24384, Note_on_c, 1, 46, 79
3, 24384, Note_on_c, 1, 74, 79
3, 24480, Note_on_c, 1, 46, 0
3, 24480, Note_on_c, 1, 53, 0
3, 24480, Note_on_c, 1, 58, 0
3, 24480, Note_on_c, 1, 62, 0
3, 24480, Note_on_c, 1, 65, 0
3, 24480, Note_on_c, 1, 70, 0
3, 24480, Note_on_c, 1, 74, 0
3, 24486, Note_on_c, 1, 77, 79
3, 24491, Note_on_c, 1, 77, 0
3, 24492, Note_on_c, 1, 79, 79
3, 24497, Note_on_c, 1, 79, 0
3, 24498, Note_on_c, 1, 81, 79
3, 24503, Note_on_c, 1, 81, 0
3, 24504, Note_on_c, 1, 82, 79
3, 24509, Note_on_c, 1, 82, 0
3, 24510, Note_on_c, 1, 69, 79
3, 24515, Note_on_c, 1, 69, 0
3, 24516, Note_on_c, 1, 70, 79
3, 24521, Note_on_c, 1, 70, 0
3, 24522, Note_on_c, 1, 72, 79
3, 24527, Note_on_c, 1, 72, 0
3, 24528, Note_on_c, 1, 74, 79
3, 24533, Note_on_c, 1, 74, 0
3, 24534, Note_on_c, 1, 72, 79
3, 24539, Note_on_c, 1, 72, 0
3, 24540, Note_on_c, 1, 74, 79
3, 24545, Note_on_c, 1, 74, 0
3, 24546, Note_on_c, 1, 75, 79
3, 24551, Note_on_c, 1, 75, 0
3, 24552, Note_on_c, 1, 77, 79
3, 24557, Note_on_c, 1, 77, 0
3, 24558, Note_on_c, 1, 65, 79
3, 24563, Note_on_c, 1, 65, 0
3, 24564, Note_on_c, 1, 67, 79
3, 24569, Note_on_c, 1, 67, 0
3, 24570, Note_on_c, 1, 69, 79
3, 24575, Note_on_c, 1, 69, 0
3, 24576, Note_on_c, 1, 70, 79
3, 24581, Note_on_c, 1, 70, 0
3, 24582, Note_on_c, 1, 69, 79
3, 24587, Note_on_c, 1, 69, 0
3, 24588, Note_on_c, 1, 70, 79
3, 24593, Note_on_c, 1, 70, 0
3, 24594, Note_on_c, 1, 72, 79
3, 24599, Note_on_c, 1, 72, 0
3, 24600, Note_on_c, 1, 74, 79
3, 24605, Note_on_c, 1, 74, 0
3, 24606, Note_on_c, 1, 69, 79
3, 24611, Note_on_c, 1, 69, 0
3, 24612, Note_on_c, 1, 67, 79
3, 24617, Note_on_c, 1, 67, 0
3, 24618, Note_on_c, 1, 65, 79
3, 24623, Note_on_c, 1, 65, 0
3, 24624, Note_on_c, 1, 63, 79
3, 24629, Note_on_c, 1, 63, 0
3, 24630, Note_on_c, 1, 67, 79
3, 24635, Note_on_c, 1, 67, 0
3, 24636, Note_on_c, 1, 69, 79
3, 24641, Note_on_c, 1, 69, 0
3, 24642, Note_on_c, 1, 70, 79
3, 24647, Note_on_c, 1, 70, 0
3, 24648, Note_on_c, 1, 72, 79
3, 24653, Note_on_c, 1, 72, 0
3, 24654, Note_on_c, 1, 67, 79
3, 24659, Note_on_c, 1, 67, 0
3, 24660, Note_on_c, 1, 65, 79
3, 24665, Note_on_c, 1, 65, 0
3, 24666, Note_on_c, 1, 63, 79
3, 24671, Note_on_c, 1, 63, 0
3, 24672, Note_on_c, 1, 62, 79
3, 24677, Note_on_c, 1, 62, 0
3, 24678, Note_on_c, 1, 65, 79
3, 24683, Note_on_c, 1, 65, 0
3, 24684, Note_on_c, 1, 67, 79
3, 24689, Note_on_c, 1, 67, 0
3, 24690, Note_on_c, 1, 69, 79
3, 24695, Note_on_c, 1, 69, 0
3, 24696, Note_on_c, 1, 70, 79
3, 24701, Note_on_c, 1, 70, 0
3, 24702, Note_on_c, 1, 57, 79
3, 24707, Note_on_c, 1, 57, 0
3, 24708, Note_on_c, 1, 58, 79
3, 24713, Note_on_c, 1, 58, 0
3, 24714, Note_on_c, 1, 60, 79
3, 24719, Note_on_c, 1, 60, 0
3, 24720, Note_on_c, 1, 62, 79
3, 24725, Note_on_c, 1, 62, 0
3, 24726, Note_on_c, 1, 60, 79
3, 24731, Note_on_c, 1, 60, 0
3, 24732, Note_on_c, 1, 62, 79
3, 24737, Note_on_c, 1, 62, 0
3, 24738, Note_on_c, 1, 63, 79
3, 24743, Note_on_c, 1, 63, 0
3, 24744, Note_on_c, 1, 65, 79
3, 24749, Note_on_c, 1, 65, 0
3, 24750, Note_on_c, 1, 53, 79
3, 24755, Note_on_c, 1, 53, 0
3, 24756, Note_on_c, 1, 55, 79
3, 24761, Note_on_c, 1, 55, 0
3, 24762, Note_on_c, 1, 57, 79
3, 24767, Note_on_c, 1, 57, 0
3, 24768, Note_on_c, 1, 58, 79
3, 24773, Note_on_c, 1, 58, 0
3, 24774, Note_on_c, 1, 57, 79
3, 24779, Note_on_c, 1, 57, 0
3, 24780, Note_on_c, 1, 58, 79
3, 24785, Note_on_c, 1, 58, 0
3, 24786, Note_on_c, 1, 60, 79
3, 24791, Note_on_c, 1, 60, 0
3, 24792, Note_on_c, 1, 62, 79
3, 24797, Note_on_c, 1, 62, 0
3, 24798, Note_on_c, 1, 60, 79
3, 24803, Note_on_c, 1, 60, 0
3, 24804, Note_on_c, 1, 58, 79
3, 24809, Note_on_c, 1, 58, 0
3, 24810, Note_on_c, 1, 57, 79
3, 24815, Note_on_c, 1, 57, 0
3, 24816, Note_on_c, 1, 55, 79
3, 24821, Note_on_c, 1, 55, 0
3, 24822, Note_on_c, 1, 58, 79
3, 24827, Note_on_c, 1, 58, 0
3, 24828, Note_on_c, 1, 60, 79
3, 24833, Note_on_c, 1, 60, 0
3, 24834, Note_on_c, 1, 62, 79
3, 24839, Note_on_c, 1, 62, 0
3, 24840, Note_on_c, 1, 63, 79
3, 24845, Note_on_c, 1, 63, 0
3, 24846, Note_on_c, 1, 62, 79
3, 24851, Note_on_c, 1, 62, 0
3, 24852, Note_on_c, 1, 60, 79
3, 24857, Note_on_c, 1, 60, 0
3, 24858, Note_on_c, 1, 58, 79
3, 24863, Note_on_c, 1, 58, 0
3, 24864, Note_on_c, 1, 57, 79
3, 24869, Note_on_c, 1, 57, 0
3, 24870, Note_on_c, 1, 60, 79
3, 24875, Note_on_c, 1, 60, 0
3, 24876, Note_on_c, 1, 62, 79
3, 24881, Note_on_c, 1, 62, 0
3, 24882, Note_on_c, 1, 64, 79
3, 24887, Note_on_c, 1, 64, 0
3, 24888, Note_on_c, 1, 66, 79
3, 24893, Note_on_c, 1, 66, 0
3, 24894, Note_on_c, 1, 63, 79
3, 24899, Note_on_c, 1, 63, 0
3, 24900, Note_on_c, 1, 62, 79
3, 24905, Note_on_c, 1, 62, 0
3, 24906, Note_on_c, 1, 60, 79
3, 24911, Note_on_c, 1, 60, 0
3, 24912, Note_on_c, 1, 58, 79
3, 24917, Note_on_c, 1, 58, 0
3, 24918, Note_on_c, 1, 66, 79
3, 24923, Note_on_c, 1, 66, 0
3, 24924, Note_on_c, 1, 67, 79
3, 24929, Note_on_c, 1, 67, 0
3, 24930, Note_on_c, 1, 69, 79
3, 24935, Note_on_c, 1, 69, 0
3, 24936, Note_on_c, 1, 70, 79
3, 24941, Note_on_c, 1, 70, 0
3, 24942, Note_on_c, 1, 72, 79
3, 24947, Note_on_c, 1, 72, 0
3, 24948, Note_on_c, 1, 55, 79
3, 24948, Note_on_c, 1, 74, 79
3, 24953, Note_on_c, 1, 74, 0
3, 24954, Note_on_c, 1, 67, 79
3, 24958, Note_on_c, 1, 55, 0
3, 24959, Note_on_c, 1, 67, 0
3, 24960, Note_on_c, 1, 64, 79
3, 24960, Note_on_c, 1, 70, 79
3, 24960, Note_on_c, 1, 67, 79
3, 24960, Note_on_c, 1, 61, 79
3, 24960, Note_on_c, 1, 49, 79
3, 24960, Note_on_c, 1, 76, 79
3, 25040, Note_on_c, 1, 49, 0
3, 25056, Note_on_c, 1, 54, 79
3, 25080, Note_on_c, 1, 61, 0
3, 25080, Note_on_c, 1, 64, 0
3, 25080, Note_on_c, 1, 67, 0
3, 25080, Note_on_c, 1, 70, 0
3, 25080, Note_on_c, 1, 76, 0
3, 25104, Note_on_c, 1, 69, 79
3, 25104, Note_on_c, 1, 65, 79
3, 25104, Note_on_c, 1, 62, 79
3, 25104, Note_on_c, 1, 74, 79
3, 25116, Note_on_c, 1, 54, 0
3, 25128, Note_on_c, 1, 50, 79
3, 25144, Note_on_c, 1, 62, 0
3, 25144, Note_on_c, 1, 65, 0
3, 25144, Note_on_c, 1, 69, 0
3, 25148, Note_on_c, 1, 50, 0
3, 25152, Note_on_c, 1, 71, 79
3, 25152, Note_on_c, 1, 65, 79
3, 25152, Note_on_c, 1, 62, 79
3, 25152, Note_on_c, 1, 59, 79
3, 25152, Note_on_c, 1, 44, 79
3, 25224, Note_on_c, 1, 74, 0
3, 25232, Note_on_c, 1, 59, 0
3, 25232, Note_on_c, 1, 62, 0
3, 25232, Note_on_c, 1, 65, 0
3, 25232, Note_on_c, 1, 71, 0
3, 25232, Note_on_c, 1, 44, 0
3, 25260, Note_on_c, 1, 56, 79
3, 25270, Note_on_c, 1, 56, 0
3, 25272, Note_on_c, 1, 59, 79
3, 25282, Note_on_c, 1, 59, 0
3, 25284, Note_on_c, 1, 53, 79
3, 25294, Note_on_c, 1, 53, 0
3, 25296, Note_on_c, 1, 56, 79
3, 25306, Note_on_c, 1, 56, 0
3, 25308, Note_on_c, 1, 50, 79
3, 25318, Note_on_c, 1, 50, 0
3, 25320, Note_on_c, 1, 53, 79
3, 25330, Note_on_c, 1, 53, 0
3, 25332, Note_on_c, 1, 47, 79
3, 25342, Note_on_c, 1, 47, 0
3, 25344, Note_on_c, 1, 50, 79
3, 25354, Note_on_c, 1, 50, 0
3, 25356, Note_on_c, 1, 44, 79
3, 25366, Note_on_c, 1, 44, 0
3, 25368, Note_on_c, 1, 45, 79
3, 25388, Note_on_c, 1, 45, 0
3, 25392, Note_on_c, 1, 40, 79
3, 25416, Note_on_c, 1, 71, 79
3, 25416, Note_on_c, 1, 67, 79
3, 25416, Note_on_c, 1, 64, 79
3, 25416, Note_on_c, 1, 59, 79
3, 25416, Note_on_c, 1, 55, 79
3, 25416, Note_on_c, 1, 52, 79
3, 25416, Note_on_c, 1, 74, 79
3, 25436, Note_on_c, 1, 52, 0
3, 25436, Note_on_c, 1, 55, 0
3, 25436, Note_on_c, 1, 59, 0
3, 25436, Note_on_c, 1, 64, 0
3, 25436, Note_on_c, 1, 67, 0
3, 25436, Note_on_c, 1, 71, 0
3, 25436, Note_on_c, 1, 74, 0
3, 25440, Note_on_c, 1, 69, 79
3, 25440, Note_on_c, 1, 64, 79
3, 25440, Note_on_c, 1, 60, 79
3, 25440, Note_on_c, 1, 57, 79
3, 25440, Note_on_c, 1, 52, 79
3, 25440, Note_on_c, 1, 72, 79
3, 25500, Note_on_c, 1, 69, 0
3, 25512, Note_on_c, 1, 67, 79
3, 25520, Note_on_c, 1, 57, 0
3, 25520, Note_on_c, 1, 64, 0
3, 25522, Note_on_c, 1, 67, 0
3, 25524, Note_on_c, 1, 65, 79
3, 25534, Note_on_c, 1, 65, 0
3, 25536, Note_on_c, 1, 64, 79
3, 25536, Note_on_c, 1, 55, 79
3, 25632, Note_on_c, 1, 40, 0
3, 25632, Note_on_c, 1, 52, 0
3, 25632, Note_on_c, 1, 55, 0
3, 25632, Note_on_c, 1, 60, 0
3, 25632, Note_on_c, 1, 64, 0
3, 25632, Note_on_c, 1, 72, 0
3, 25638, Note_on_c, 1, 67, 79
3, 25642, Note_on_c, 1, 67, 0
3, 25644, Note_on_c, 1, 65, 79
3, 25648, Note_on_c, 1, 65, 0
3, 25650, Note_on_c, 1, 67, 79
3, 25654, Note_on_c, 1, 67, 0
3, 25656, Note_on_c, 1, 64, 79
3, 25660, Note_on_c, 1, 64, 0
3, 25662, Note_on_c, 1, 64, 79
3, 25666, Note_on_c, 1, 64, 0
3, 25668, Note_on_c, 1, 62, 79
3, 25672, Note_on_c, 1, 62, 0
3, 25674, Note_on_c, 1, 64, 79
3, 25678, Note_on_c, 1, 64, 0
3, 25680, Note_on_c, 1, 60, 79
3, 25684, Note_on_c, 1, 60, 0
3, 25686, Note_on_c, 1, 69, 79
3, 25690, Note_on_c, 1, 69, 0
3, 25692, Note_on_c, 1, 67, 79
3, 25696, Note_on_c, 1, 67, 0
3, 25698, Note_on_c, 1, 69, 79
3, 25702, Note_on_c, 1, 69, 0
3, 25704, Note_on_c, 1, 65, 79
3, 25708, Note_on_c, 1, 65, 0
3, 25710, Note_on_c, 1, 65, 79
3, 25714, Note_on_c, 1, 65, 0
3, 25716, Note_on_c, 1, 64, 79
3, 25720, Note_on_c, 1, 64, 0
3, 25722, Note_on_c, 1, 65, 79
3, 25726, Note_on_c, 1, 65, 0
3, 25728, Note_on_c, 1, 62, 79
3, 25732, Note_on_c, 1, 62, 0
3, 25734, Note_on_c, 1, 71, 79
3, 25738, Note_on_c, 1, 71, 0
3, 25740, Note_on_c, 1, 69, 79
3, 25744, Note_on_c, 1, 69, 0
3, 25746, Note_on_c, 1, 71, 79
3, 25750, Note_on_c, 1, 71, 0
3, 25752, Note_on_c, 1, 67, 79
3, 25756, Note_on_c, 1, 67, 0
3, 25758, Note_on_c, 1, 67, 79
3, 25762, Note_on_c, 1, 67, 0
3, 25764, Note_on_c, 1, 65, 79
3, 25768, Note_on_c, 1, 65, 0
3, 25770, Note_on_c, 1, 67, 79
3, 25774, Note_on_c, 1, 67, 0
3, 25776, Note_on_c, 1, 64, 79
3, 25780, Note_on_c, 1, 64, 0
3, 25782, Note_on_c, 1, 72, 79
3, 25786, Note_on_c, 1, 72, 0
3, 25788, Note_on_c, 1, 71, 79
3, 25792, Note_on_c, 1, 71, 0
3, 25794, Note_on_c, 1, 72, 79
3, 25798, Note_on_c, 1, 72, 0
3, 25800, Note_on_c, 1, 69, 79
3, 25804, Note_on_c, 1, 69, 0
3, 25806, Note_on_c, 1, 74, 79
3, 25810, Note_on_c, 1, 74, 0
3, 25812, Note_on_c, 1, 72, 79
3, 25816, Note_on_c, 1, 72, 0
3, 25818, Note_on_c, 1, 74, 79
3, 25822, Note_on_c, 1, 74, 0
3, 25824, Note_on_c, 1, 71, 79
3, 25828, Note_on_c, 1, 71, 0
3, 25830, Note_on_c, 1, 76, 79
3, 25834, Note_on_c, 1, 76, 0
3, 25836, Note_on_c, 1, 74, 79
3, 25840, Note_on_c, 1, 74, 0
3, 25842, Note_on_c, 1, 76, 79
3, 25846, Note_on_c, 1, 76, 0
3, 25848, Note_on_c, 1, 72, 79
3, 25852, Note_on_c, 1, 72, 0
3, 25854, Note_on_c, 1, 77, 79
3, 25858, Note_on_c, 1, 77, 0
3, 25860, Note_on_c, 1, 74, 79
3, 25864, Note_on_c, 1, 74, 0
3, 25866, Note_on_c, 1, 77, 79
3, 25870, Note_on_c, 1, 77, 0
3, 25872, Note_on_c, 1, 74, 79
3, 25876, Note_on_c, 1, 74, 0
3, 25878, Note_on_c, 1, 79, 79
3, 25882, Note_on_c, 1, 79, 0
3, 25884, Note_on_c, 1, 76, 79
3, 25888, Note_on_c, 1, 76, 0
3, 25890, Note_on_c, 1, 79, 79
3, 25894, Note_on_c, 1, 79, 0
3, 25896, Note_on_c, 1, 76, 79
3, 25900, Note_on_c, 1, 76, 0
3, 25902, Note_on_c, 1, 72, 79
3, 25906, Note_on_c, 1, 72, 0
3, 25908, Note_on_c, 1, 71, 79
3, 25912, Note_on_c, 1, 71, 0
3, 25914, Note_on_c, 1, 72, 79
3, 25918, Note_on_c, 1, 72, 0
3, 25920, Note_on_c, 1, 69, 79
3, 25924, Note_on_c, 1, 69, 0
3, 25926, Note_on_c, 1, 74, 79
3, 25930, Note_on_c, 1, 74, 0
3, 25932, Note_on_c, 1, 72, 79
3, 25936, Note_on_c, 1, 72, 0
3, 25938, Note_on_c, 1, 74, 79
3, 25942, Note_on_c, 1, 74, 0
3, 25944, Note_on_c, 1, 71, 79
3, 25948, Note_on_c, 1, 71, 0
3, 25950, Note_on_c, 1, 68, 79
3, 25954, Note_on_c, 1, 68, 0
3, 25956, Note_on_c, 1, 66, 79
3, 25960, Note_on_c, 1, 66, 0
3, 25962, Note_on_c, 1, 68, 79
3, 25966, Note_on_c, 1, 68, 0
3, 25968, Note_on_c, 1, 64, 79
3, 25972, Note_on_c, 1, 64, 0
3, 25974, Note_on_c, 1, 72, 79
3, 25978, Note_on_c, 1, 72, 0
3, 25980, Note_on_c, 1, 71, 79
3, 25984, Note_on_c, 1, 71, 0
3, 25986, Note_on_c, 1, 72, 79
3, 25990, Note_on_c, 1, 72, 0
3, 25992, Note_on_c, 1, 69, 79
3, 25996, Note_on_c, 1, 69, 0
3, 25998, Note_on_c, 1, 65, 79
3, 26002, Note_on_c, 1, 65, 0
3, 26004, Note_on_c, 1, 64, 79
3, 26008, Note_on_c, 1, 64, 0
3, 26010, Note_on_c, 1, 65, 79
3, 26014, Note_on_c, 1, 65, 0
3, 26016, Note_on_c, 1, 62, 79
3, 26020, Note_on_c, 1, 62, 0
3, 26022, Note_on_c, 1, 71, 79
3, 26026, Note_on_c, 1, 71, 0
3, 26028, Note_on_c, 1, 69, 79
3, 26032, Note_on_c, 1, 69, 0
3, 26034, Note_on_c, 1, 71, 79
3, 26038, Note_on_c, 1, 71, 0
3, 26040, Note_on_c, 1, 60, 79
3, 26044, Note_on_c, 1, 60, 0
3, 26046, Note_on_c, 1, 69, 79
3, 26050, Note_on_c, 1, 69, 0
3, 26052, Note_on_c, 1, 67, 79
3, 26056, Note_on_c, 1, 67, 0
3, 26058, Note_on_c, 1, 69, 79
3, 26062, Note_on_c, 1, 69, 0
3, 26064, Note_on_c, 1, 59, 79
3, 26068, Note_on_c, 1, 59, 0
3, 26070, Note_on_c, 1, 68, 79
3, 26074, Note_on_c, 1, 68, 0
3, 26076, Note_on_c, 1, 66, 79
3, 26080, Note_on_c, 1, 66, 0
3, 26082, Note_on_c, 1, 68, 79
3, 26086, Note_on_c, 1, 68, 0
3, 26088, Note_on_c, 1, 64, 79
3, 26092, Note_on_c, 1, 64, 0
3, 26094, Note_on_c, 1, 60, 79
3, 26098, Note_on_c, 1, 60, 0
3, 26100, Note_on_c, 1, 59, 79
3, 26104, Note_on_c, 1, 59, 0
3, 26106, Note_on_c, 1, 57, 79
3, 26110, Note_on_c, 1, 57, 0
3, 26112, Note_on_c, 1, 56, 79
3, 26116, Note_on_c, 1, 56, 0
3, 26118, Note_on_c, 1, 62, 79
3, 26122, Note_on_c, 1, 62, 0
3, 26124, Note_on_c, 1, 60, 79
3, 26128, Note_on_c, 1, 60, 0
3, 26130, Note_on_c, 1, 59, 79
3, 26134, Note_on_c, 1, 59, 0
3, 26136, Note_on_c, 1, 57, 79
3, 26140, Note_on_c, 1, 57, 0
3, 26142, Note_on_c, 1, 64, 79
3, 26146, Note_on_c, 1, 64, 0
3, 26148, Note_on_c, 1, 62, 79
3, 26152, Note_on_c, 1, 62, 0
3, 26154, Note_on_c, 1, 60, 79
3, 26158, Note_on_c, 1, 60, 0
3, 26160, Note_on_c, 1, 59, 79
3, 26164, Note_on_c, 1, 59, 0
3, 26166, Note_on_c, 1, 65, 79
3, 26170, Note_on_c, 1, 65, 0
3, 26172, Note_on_c, 1, 64, 79
3, 26176, Note_on_c, 1, 64, 0
3, 26178, Note_on_c, 1, 62, 79
3, 26182, Note_on_c, 1, 62, 0
3, 26184, Note_on_c, 1, 60, 79
3, 26188, Note_on_c, 1, 60, 0
3, 26190, Note_on_c, 1, 67, 79
3, 26194, Note_on_c, 1, 67, 0
3, 26196, Note_on_c, 1, 65, 79
3, 26200, Note_on_c, 1, 65, 0
3, 26202, Note_on_c, 1, 64, 79
3, 26206, Note_on_c, 1, 64, 0
3, 26208, Note_on_c, 1, 62, 79
3, 26212, Note_on_c, 1, 62, 0
3, 26214, Note_on_c, 1, 69, 79
3, 26218, Note_on_c, 1, 69, 0
3, 26220, Note_on_c, 1, 67, 79
3, 26224, Note_on_c, 1, 67, 0
3, 26226, Note_on_c, 1, 65, 79
3, 26230, Note_on_c, 1, 65, 0
3, 26232, Note_on_c, 1, 64, 79
3, 26236, Note_on_c, 1, 64, 0
3, 26238, Note_on_c, 1, 67, 79
3, 26242, Note_on_c, 1, 67, 0
3, 26244, Note_on_c, 1, 69, 79
3, 26248, Note_on_c, 1, 69, 0
3, 26250, Note_on_c, 1, 71, 79
3, 26254, Note_on_c, 1, 71, 0
3, 26256, Note_on_c, 1, 72, 79
3, 26280, Note_on_c, 1, 64, 79
3, 26280, Note_on_c, 1, 60, 79
3, 26280, Note_on_c, 1, 55, 79
3, 26280, Note_on_c, 1, 52, 79
3, 26280, Note_on_c, 1, 67, 79
3, 26288, Note_on_c, 1, 72, 0
3, 26296, Note_on_c, 1, 55, 0
3, 26296, Note_on_c, 1, 60, 0
3, 26296, Note_on_c, 1, 64, 0
3, 26296, Note_on_c, 1, 67, 0
3, 26296, Note_on_c, 1, 52, 0
3, 26304, Note_on_c, 1, 69, 111
3, 26304, Note_on_c, 1, 64, 111
3, 26304, Note_on_c, 1, 57, 111
3, 26304, Note_on_c, 1, 55, 111
3, 26304, Note_on_c, 1, 73, 111
3, 26320, Note_on_c, 1, 55, 0
3, 26320, Note_on_c, 1, 57, 0
3, 26320, Note_on_c, 1, 64, 0
3, 26320, Note_on_c, 1, 69, 0
3, 26320, Note_on_c, 1, 73, 0
3, 26328, Note_on_c, 1, 57, 79
3, 26332, Note_on_c, 1, 57, 0
3, 26334, Note_on_c, 1, 61, 79
3, 26338, Note_on_c, 1, 61, 0
3, 26340, Note_on_c, 1, 64, 79
3, 26344, Note_on_c, 1, 64, 0
3, 26346, Note_on_c, 1, 69, 79
3, 26350, Note_on_c, 1, 69, 0
3, 26352, Note_on_c, 1, 73, 79
3, 26368, Note_on_c, 1, 73, 0
3, 26376, Note_on_c, 1, 69, 111
3, 26376, Note_on_c, 1, 64, 111
3, 26376, Note_on_c, 1, 57, 111
3, 26376, Note_on_c, 1, 55, 111
3, 26376, Note_on_c, 1, 73, 111
3, 26392, Note_on_c, 1, 55, 0
3, 26392, Note_on_c, 1, 57, 0
3, 26392, Note_on_c, 1, 64, 0
3, 26392, Note_on_c, 1, 69, 0
3, 26392, Note_on_c, 1, 73, 0
3, 26400, Note_on_c, 1, 69, 111
3, 26400, Note_on_c, 1, 65, 111
3, 26400, Note_on_c, 1, 57, 111
3, 26400, Note_on_c, 1, 53, 111
3, 26400, Note_on_c, 1, 74, 111
3, 26416, Note_on_c, 1, 53, 0
3, 26416, Note_on_c, 1, 57, 0
3, 26416, Note_on_c, 1, 65, 0
3, 26416, Note_on_c, 1, 69, 0
3, 26416, Note_on_c, 1, 74, 0
3, 26424, Note_on_c, 1, 57, 79
3, 26428, Note_on_c, 1, 57, 0
3, 26430, Note_on_c, 1, 62, 79
3, 26434, Note_on_c, 1, 62, 0
3, 26436, Note_on_c, 1, 65, 79
3, 26440, Note_on_c, 1, 65, 0
3, 26442, Note_on_c, 1, 69, 79
3, 26446, Note_on_c, 1, 69, 0
3, 26448, Note_on_c, 1, 74, 79
3, 26464, Note_on_c, 1, 74, 0
3, 26472, Note_on_c, 1, 69, 111
3, 26472, Note_on_c, 1, 65, 111
3, 26472, Note_on_c, 1, 57, 111
3, 26472, Note_on_c, 1, 53, 111
3, 26472, Note_on_c, 1, 74, 111
3, 26488, Note_on_c, 1, 53, 0
3, 26488, Note_on_c, 1, 57, 0
3, 26488, Note_on_c, 1, 65, 0
3, 26488, Note_on_c, 1, 69, 0
3, 26488, Note_on_c, 1, 74, 0
3, 26496, Note_on_c, 1, 67, 111
3, 26496, Note_on_c, 1, 62, 111
3, 26496, Note_on_c, 1, 59, 111
3, 26496, Note_on_c, 1, 71, 111
3, 26512, Note_on_c, 1, 59, 0
3, 26512, Note_on_c, 1, 62, 0
3, 26512, Note_on_c, 1, 67, 0
3, 26512, Note_on_c, 1, 71, 0
3, 26520, Note_on_c, 1, 55, 79
3, 26524, Note_on_c, 1, 55, 0
3, 26526, Note_on_c, 1, 59, 79
3, 26530, Note_on_c, 1, 59, 0
3, 26532, Note_on_c, 1, 62, 79
3, 26536, Note_on_c, 1, 62, 0
3, 26538, Note_on_c, 1, 67, 79
3, 26542, Note_on_c, 1, 67, 0
3, 26544, Note_on_c, 1, 71, 79
3, 26560, Note_on_c, 1, 71, 0
3, 26568, Note_on_c, 1, 67, 111
3, 26568, Note_on_c, 1, 62, 111
3, 26568, Note_on_c, 1, 55, 111
3, 26568, Note_on_c, 1, 53, 111
3, 26568, Note_on_c, 1, 71, 111
3, 26584, Note_on_c, 1, 53, 0
3, 26584, Note_on_c, 1, 55, 0
3, 26584, Note_on_c, 1, 62, 0
3, 26584, Note_on_c, 1, 67, 0
3, 26584, Note_on_c, 1, 71, 0
3, 26592, Note_on_c, 1, 55, 111
3, 26592, Note_on_c, 1, 64, 111
3, 26592, Note_on_c, 1, 67, 111
3, 26592, Note_on_c, 1, 52, 111
3, 26592, Note_on_c, 1, 72, 111
3, 26608, Note_on_c, 1, 52, 0
3, 26608, Note_on_c, 1, 55, 0
3, 26608, Note_on_c, 1, 64, 0
3, 26608, Note_on_c, 1, 67, 0
3, 26608, Note_on_c, 1, 72, 0
3, 26616, Note_on_c, 1, 55, 79
3, 26620, Note_on_c, 1, 55, 0
3, 26622, Note_on_c, 1, 60, 79
3, 26626, Note_on_c, 1, 60, 0
3, 26628, Note_on_c, 1, 64, 79
3, 26632, Note_on_c, 1, 64, 0
3, 26634, Note_on_c, 1, 67, 79
3, 26638, Note_on_c, 1, 67, 0
3, 26640, Note_on_c, 1, 72, 79
3, 26656, Note_on_c, 1, 72, 0
3, 26664, Note_on_c, 1, 67, 111
3, 26664, Note_on_c, 1, 64, 111
3, 26664, Note_on_c, 1, 55, 111
3, 26664, Note_on_c, 1, 52, 111
3, 26664, Note_on_c, 1, 72, 111
3, 26680, Note_on_c, 1, 52, 0
3, 26680, Note_on_c, 1, 55, 0
3, 26680, Note_on_c, 1, 64, 0
3, 26680, Note_on_c, 1, 67, 0
3, 26680, Note_on_c, 1, 72, 0
3, 26688, Note_on_c, 1, 65, 111
3, 26688, Note_on_c, 1, 60, 111
3, 26688, Note_on_c, 1, 57, 111
3, 26688, Note_on_c, 1, 52, 111
3, 26688, Note_on_c, 1, 69, 111
3, 26704, Note_on_c, 1, 52, 0
3, 26704, Note_on_c, 1, 57, 0
3, 26704, Note_on_c, 1, 60, 0
3, 26704, Note_on_c, 1, 65, 0
3, 26704, Note_on_c, 1, 69, 0
3, 26712, Note_on_c, 1, 53, 79
3, 26716, Note_on_c, 1, 53, 0
3, 26718, Note_on_c, 1, 57, 79
3, 26722, Note_on_c, 1, 57, 0
3, 26724, Note_on_c, 1, 60, 79
3, 26728, Note_on_c, 1, 60, 0
3, 26730, Note_on_c, 1, 65, 79
3, 26734, Note_on_c, 1, 65, 0
3, 26736, Note_on_c, 1, 69, 79
3, 26752, Note_on_c, 1, 69, 0
3, 26760, Note_on_c, 1, 65, 95
3, 26760, Note_on_c, 1, 60, 95
3, 26760, Note_on_c, 1, 53, 95
3, 26760, Note_on_c, 1, 52, 95
3, 26760, Note_on_c, 1, 69, 95
3, 26776, Note_on_c, 1, 52, 0
3, 26776, Note_on_c, 1, 53, 0
3, 26776, Note_on_c, 1, 60, 0
3, 26776, Note_on_c, 1, 65, 0
3, 26776, Note_on_c, 1, 69, 0
3, 26784, Note_on_c, 1, 65, 95
3, 26784, Note_on_c, 1, 62, 95
3, 26784, Note_on_c, 1, 53, 95
3, 26784, Note_on_c, 1, 50, 95
3, 26784, Note_on_c, 1, 70, 95
3, 26800, Note_on_c, 1, 50, 0
3, 26800, Note_on_c, 1, 53, 0
3, 26800, Note_on_c, 1, 62, 0
3, 26800, Note_on_c, 1, 65, 0
3, 26800, Note_on_c, 1, 70, 0
3, 26808, Note_on_c, 1, 53, 79
3, 26812, Note_on_c, 1, 53, 0
3, 26814, Note_on_c, 1, 58, 79
3, 26818, Note_on_c, 1, 58, 0
3, 26820, Note_on_c, 1, 62, 79
3, 26824, Note_on_c, 1, 62, 0
3, 26826, Note_on_c, 1, 65, 79
3, 26830, Note_on_c, 1, 65, 0
3, 26832, Note_on_c, 1, 70, 79
3, 26848, Note_on_c, 1, 70, 0
3, 26856, Note_on_c, 1, 65, 111
3, 26856, Note_on_c, 1, 62, 111
3, 26856, Note_on_c, 1, 53, 111
3, 26856, Note_on_c, 1, 50, 111
3, 26856, Note_on_c, 1, 70, 111
3, 26872, Note_on_c, 1, 50, 0
3, 26872, Note_on_c, 1, 53, 0
3, 26872, Note_on_c, 1, 62, 0
3, 26872, Note_on_c, 1, 65, 0
3, 26872, Note_on_c, 1, 70, 0
3, 26880, Note_on_c, 1, 67, 111
3, 26880, Note_on_c, 1, 64, 111
3, 26880, Note_on_c, 1, 52, 111
3, 26880, Note_on_c, 1, 49, 111
3, 26880, Note_on_c, 1, 70, 111
3, 26896, Note_on_c, 1, 49, 0
3, 26896, Note_on_c, 1, 52, 0
3, 26896, Note_on_c, 1, 64, 0
3, 26896, Note_on_c, 1, 67, 0
3, 26896, Note_on_c, 1, 70, 0
3, 26904, Note_on_c, 1, 52, 79
3, 26908, Note_on_c, 1, 52, 0
3, 26910, Note_on_c, 1, 55, 79
3, 26914, Note_on_c, 1, 55, 0
3, 26916, Note_on_c, 1, 58, 79
3, 26920, Note_on_c, 1, 58, 0
3, 26922, Note_on_c, 1, 61, 79
3, 26926, Note_on_c, 1, 61, 0
3, 26928, Note_on_c, 1, 70, 79
3, 26944, Note_on_c, 1, 70, 0
3, 26952, Note_on_c, 1, 67, 111
3, 26952, Note_on_c, 1, 64, 111
3, 26952, Note_on_c, 1, 61, 111
3, 26952, Note_on_c, 1, 52, 111
3, 26952, Note_on_c, 1, 49, 111
3, 26952, Note_on_c, 1, 70, 111
3, 26968, Note_on_c, 1, 49, 0
3, 26968, Note_on_c, 1, 52, 0
3, 26968, Note_on_c, 1, 61, 0
3, 26968, Note_on_c, 1, 64, 0
3, 26968, Note_on_c, 1, 67, 0
3, 26968, Note_on_c, 1, 70, 0
3, 26976, Note_on_c, 1, 66, 111
3, 26976, Note_on_c, 1, 54, 111
3, 26976, Note_on_c, 1, 62, 111
3, 26976, Note_on_c, 1, 48, 111
3, 26976, Note_on_c, 1, 69, 111
3, 26992, Note_on_c, 1, 48, 0
3, 26992, Note_on_c, 1, 54, 0
3, 26992, Note_on_c, 1, 62, 0
3, 26992, Note_on_c, 1, 66, 0
3, 26992, Note_on_c, 1, 69, 0
3, 27000, Note_on_c, 1, 50, 79
3, 27004, Note_on_c, 1, 50, 0
3, 27006, Note_on_c, 1, 57, 79
3, 27010, Note_on_c, 1, 57, 0
3, 27012, Note_on_c, 1, 62, 79
3, 27016, Note_on_c, 1, 62, 0
3, 27018, Note_on_c, 1, 66, 79
3, 27022, Note_on_c, 1, 66, 0
3, 27024, Note_on_c, 1, 69, 79
3, 27040, Note_on_c, 1, 69, 0
3, 27048, Note_on_c, 1, 66, 79
3, 27048, Note_on_c, 1, 62, 79
3, 27048, Note_on_c, 1, 54, 79
3, 27048, Note_on_c, 1, 48, 79
3, 27048, Note_on_c, 1, 69, 79
3, 27064, Note_on_c, 1, 48, 0
3, 27064, Note_on_c, 1, 54, 0
3, 27064, Note_on_c, 1, 62, 0
3, 27064, Note_on_c, 1, 66, 0
3, 27072, Note_on_c, 1, 12, 79
3, 27072, Note_on_c, 1, 43, 79
3, 27072, Note_on_c, 1, 55, 79
3, 27072, Note_on_c, 1, 62, 79
3, 27072, Note_on_c, 1, 58, 79
3, 27076, Note_on_c, 1, 12, 0
3, 27120, Note_on_c, 1, 43, 0
3, 27120, Note_on_c, 1, 69, 0
3, 27120, Note_on_c, 1, 46, 79
3, 27120, Note_on_c, 1, 67, 79
3, 27168, Note_on_c, 1, 46, 0
3, 27168, Note_on_c, 1, 55, 0
3, 27168, Note_on_c, 1, 58, 0
3, 27168, Note_on_c, 1, 62, 0
3, 27168, Note_on_c, 1, 40, 79
3, 27168, Note_on_c, 1, 58, 79
3, 27168, Note_on_c, 1, 64, 79
3, 27168, Note_on_c, 1, 61, 79
3, 27216, Note_on_c, 1, 40, 0
3, 27216, Note_on_c, 1, 58, 0
3, 27216, Note_on_c, 1, 61, 0
3, 27216, Note_on_c, 1, 64, 0
3, 27216, Note_on_c, 1, 67, 0
3, 27216, Note_on_c, 1, 41, 79
3, 27216, Note_on_c, 1, 57, 79
3, 27216, Note_on_c, 1, 62, 79
3, 27216, Note_on_c, 1, 65, 79
3, 27264, Note_on_c, 1, 41, 0
3, 27264, Note_on_c, 1, 57, 0
3, 27264, Note_on_c, 1, 65, 0
3, 27264, Note_on_c, 1, 57, 79
3, 27264, Note_on_c, 1, 45, 79
3, 27264, Note_on_c, 1, 64, 79
3, 27312, Note_on_c, 1, 62, 0
3, 27312, Note_on_c, 1, 60, 79
3, 27360, Note_on_c, 1, 45, 0
3, 27360, Note_on_c, 1, 57, 0
3, 27360, Note_on_c, 1, 64, 0
3, 27360, Note_on_c, 1, 53, 79
3, 27360, Note_on_c, 1, 46, 79
3, 27360, Note_on_c, 1, 62, 79
3, 27408, Note_on_c, 1, 46, 0
3, 27408, Note_on_c, 1, 53, 0
3, 27408, Note_on_c, 1, 60, 0
3, 27408, Note_on_c, 1, 43, 79
3, 27408, Note_on_c, 1, 55, 79
3, 27408, Note_on_c, 1, 58, 79
3, 27456, Note_on_c, 1, 43, 0
3, 27456, Note_on_c, 1, 55, 0
3, 27456, Note_on_c, 1, 58, 0
3, 27456, Note_on_c, 1, 62, 0
3, 27456, Note_on_c, 1, 57, 79
3, 27456, Note_on_c, 1, 53, 79
3, 27456, Note_on_c, 1, 50, 79
3, 27456, Note_on_c, 1, 38, 79
3, 27456, Note_on_c, 1, 62, 79
3, 27615, Note_on_c, 1, 38, 0
3, 27615, Note_on_c, 1, 50, 0
3, 27615, Note_on_c, 1, 53, 0
3, 27615, Note_on_c, 1, 57, 0
3, 27615, Note_on_c, 1, 62, 0
3, 27615, End_track
4, 0, Start_track
4, 0, Title_t, "Unnamed"
4, 192, Control_c, 2, 7, 96
4, 192, Pitch_bend_c, 2, 8192
4, 192, Control_c, 2, 1, 0
4, 192, Program_c, 2, 48
4, 192, Control_c, 2, 64, 0
4, 192, Control_c, 2, 10, 64
4, 192, End_track
5, 0, Start_track
5, 0, Title_t, "Unnamed"
5, 192, Control_c, 3, 7, 96
5, 192, Pitch_bend_c, 3, 8192
5, 192, Control_c, 3, 1, 0
5, 192, Program_c, 3, 95
5, 192, Control_c, 3, 64, 0
5, 192, Control_c, 3, 10, 64
5, 192, End_track
6, 0, Start_track
6, 0, Title_t, "Unnamed"
6, 192, Control_c, 4, 7, 96
6, 192, Pitch_bend_c, 4, 8192
6, 192, Control_c, 4, 1, 0
6, 192, Program_c, 4, 78
6, 192, Control_c, 4, 64, 0
6, 192, Control_c, 4, 10, 64
6, 192, End_track
7, 0, Start_track
7, 0, Title_t, "Unnamed"
7, 192, Control_c, 5, 7, 96
7, 192, Pitch_bend_c, 5, 8192
7, 192, Control_c, 5, 1, 0
7, 192, Program_c, 5, 43
7, 192, Control_c, 5, 64, 0
7, 192, Control_c, 5, 10, 64
7, 192, End_track
8, 0, Start_track
8, 0, Title_t, "Unnamed"
8, 192, Control_c, 6, 7, 96
8, 192, Pitch_bend_c, 6, 8192
8, 192, Control_c, 6, 1, 0
8, 192, Program_c, 6, 3
8, 192, Control_c, 6, 64, 0
8, 192, Control_c, 6, 10, 64
8, 192, End_track
9, 0, Start_track
9, 0, Title_t, "Unnamed"
9, 192, Control_c, 7, 7, 96
9, 192, Pitch_bend_c, 7, 8192
9, 192, Control_c, 7, 1, 0
9, 192, Program_c, 7, 110
9, 192, Control_c, 7, 64, 0
9, 192, Control_c, 7, 10, 64
9, 192, End_track
10, 0, Start_track
10, 0, Title_t, "Unnamed"
10, 192, Control_c, 8, 7, 96
10, 192, Pitch_bend_c, 8, 8192
10, 192, Control_c, 8, 1, 0
10, 192, Program_c, 8, 122
10, 192, Control_c, 8, 64, 0
10, 192, Control_c, 8, 10, 64
10, 192, End_track
11, 0, Start_track
11, 0, Title_t, "Drum&SE"
11, 192, Control_c, 9, 7, 96
11, 192, End_track
0, 0, End_of_file
