0, 0, Header, 1, 4, 96
1, 0, Start_track
1, 0, Key_signature, -1, "major"
1, 0, Time_signature, 4, 2, 24, 8
1, 0, Tempo, 468519
1, 14448, Tempo, 535450
1, 14544, Tempo, 599704
1, 14784, Tempo, 468519
1, 34800, Tempo, 535450
1, 34944, Tempo, 599704
1, 35040, Tempo, 468519
1, 35208, Tempo, 535450
1, 35328, Tempo, 468519
1, 47136, Tempo, 535450
1, 47232, Tempo, 468519
1, 68160, Tempo, 535450
1, 68304, Tempo, 599704
1, 68448, Tempo, 666337
1, 68544, Tempo, 799605
1, 68736, Tempo, 599704
1, 69024, Tempo, 666337
1, 69120, Tempo, 599704
1, 69312, Tempo, 535450
1, 70896, Tempo, 599704
1, 71448, Tempo, 666337
1, 71568, Tempo, 799605
1, 71664, Tempo, 999506
1, 71760, Tempo, 1199407
1, 71808, Tempo, 1999012
1, 72192, End_track
2, 0, Start_track
2, 0, Program_c, 0, 0
2, 3840, Program_c, 0, 0
2, 4032, Note_on_c, 0, 74, 88
2, 4224, Note_on_c, 0, 74, 0
2, 4224, Program_c, 0, 0
2, 4224, Note_on_c, 0, 72, 88
2, 4320, Note_on_c, 0, 72, 0
2, 4320, Note_on_c, 0, 77, 88
2, 4416, Note_on_c, 0, 77, 0
2, 4416, Program_c, 0, 0
2, 4416, Note_on_c, 0, 71, 88
2, 4512, Note_on_c, 0, 71, 0
2, 4512, Note_on_c, 0, 70, 88
2, 4608, Note_on_c, 0, 70, 0
2, 4608, Program_c, 0, 0
2, 4608, Note_on_c, 0, 69, 88
2, 4704, Note_on_c, 0, 69, 0
2, 4704, Note_on_c, 0, 74, 88
2, 4800, Note_on_c, 0, 74, 0
2, 4800, Note_on_c, 0, 69, 88
2, 4824, Note_on_c, 0, 69, 0
2, 4824, Note_on_c, 0, 67, 88
2, 4848, Note_on_c, 0, 67, 0
2, 4848, Note_on_c, 0, 69, 88
2, 4872, Note_on_c, 0, 69, 0
2, 4872, Note_on_c, 0, 67, 88
2, 4896, Note_on_c, 0, 67, 0
2, 4896, Note_on_c, 0, 69, 88
2, 4920, Note_on_c, 0, 69, 0
2, 4920, Note_on_c, 0, 67, 88
2, 4944, Note_on_c, 0, 67, 0
2, 4944, Note_on_c, 0, 65, 88
2, 4968, Note_on_c, 0, 65, 0
2, 4968, Note_on_c, 0, 67, 88
2, 4992, Note_on_c, 0, 67, 0
2, 4992, Program_c, 0, 0
2, 4992, Note_on_c, 0, 65, 88
2, 5088, Note_on_c, 0, 65, 0
2, 5088, Note_on_c, 0, 67, 88
2, 5184, Note_on_c, 0, 67, 0
2, 5184, Program_c, 0, 0
2, 5184, Note_on_c, 0, 69, 88
2, 5232, Note_on_c, 0, 69, 0
2, 5232, Note_on_c, 0, 67, 88
2, 5280, Note_on_c, 0, 67, 0
2, 5280, Note_on_c, 0, 69, 88
2, 5376, Note_on_c, 0, 69, 0
2, 5376, Program_c, 0, 0
2, 5376, Note_on_c, 0, 62, 88
2, 5472, Note_on_c, 0, 62, 0
2, 5472, Note_on_c, 0, 74, 72
2, 5568, Note_on_c, 0, 74, 0
2, 5568, Note_on_c, 0, 72, 72
2, 5664, Note_on_c, 0, 72, 0
2, 5664, Note_on_c, 0, 70, 72
2, 5760, Note_on_c, 0, 70, 0
2, 5760, Note_on_c, 0, 69, 72
2, 5856, Note_on_c, 0, 69, 0
2, 5856, Note_on_c, 0, 77, 72
2, 5952, Note_on_c, 0, 77, 0
2, 5952, Note_on_c, 0, 76, 72
2, 6048, Note_on_c, 0, 76, 0
2, 6048, Note_on_c, 0, 74, 72
2, 6144, Note_on_c, 0, 74, 0
2, 6144, Note_on_c, 0, 73, 72
2, 6336, Note_on_c, 0, 73, 0
2, 6336, Program_c, 0, 0
2, 6432, Note_on_c, 0, 73, 72
2, 6480, Note_on_c, 0, 73, 0
2, 6480, Note_on_c, 0, 74, 72
2, 6504, Note_on_c, 0, 74, 0
2, 6504, Note_on_c, 0, 76, 72
2, 6528, Note_on_c, 0, 76, 0
2, 6528, Note_on_c, 0, 69, 72
2, 6576, Note_on_c, 0, 69, 0
2, 6576, Note_on_c, 0, 74, 72
2, 6624, Note_on_c, 0, 74, 0
2, 6624, Note_on_c, 0, 72, 72
2, 6672, Note_on_c, 0, 72, 0
2, 6672, Note_on_c, 0, 70, 72
2, 6720, Note_on_c, 0, 70, 0
2, 6720, Note_on_c, 0, 72, 72
2, 6768, Note_on_c, 0, 72, 0
2, 6768, Note_on_c, 0, 69, 72
2, 6816, Note_on_c, 0, 69, 0
2, 6816, Note_on_c, 0, 70, 72
2, 6864, Note_on_c, 0, 70, 0
2, 6864, Note_on_c, 0, 67, 72
2, 6912, Note_on_c, 0, 67, 0
2, 6912, Program_c, 0, 0
2, 6912, Note_on_c, 0, 69, 72
2, 7296, Note_on_c, 0, 69, 0
2, 7296, Program_c, 0, 0
2, 7296, Note_on_c, 0, 69, 72
2, 7344, Note_on_c, 0, 69, 0
2, 7344, Note_on_c, 0, 69, 72
2, 7392, Note_on_c, 0, 69, 0
2, 7392, Note_on_c, 0, 67, 72
2, 7440, Note_on_c, 0, 67, 0
2, 7440, Note_on_c, 0, 65, 72
2, 7488, Note_on_c, 0, 65, 0
2, 7488, Note_on_c, 0, 67, 72
2, 7536, Note_on_c, 0, 67, 0
2, 7536, Note_on_c, 0, 64, 72
2, 7584, Note_on_c, 0, 64, 0
2, 7584, Note_on_c, 0, 65, 72
2, 7632, Note_on_c, 0, 65, 0
2, 7632, Note_on_c, 0, 74, 72
2, 7680, Note_on_c, 0, 74, 0
2, 7680, Note_on_c, 0, 65, 72
2, 7704, Note_on_c, 0, 65, 0
2, 7704, Note_on_c, 0, 64, 72
2, 7728, Note_on_c, 0, 64, 0
2, 7728, Note_on_c, 0, 65, 72
2, 7776, Note_on_c, 0, 65, 0
2, 7776, Program_c, 0, 0
2, 7776, Note_on_c, 0, 64, 72
2, 7872, Note_on_c, 0, 64, 0
2, 7920, Note_on_c, 0, 73, 72
2, 7968, Note_on_c, 0, 73, 0
2, 7968, Note_on_c, 0, 74, 72
2, 8064, Note_on_c, 0, 74, 0
2, 8064, Note_on_c, 0, 74, 72
2, 8112, Note_on_c, 0, 74, 0
2, 8112, Program_c, 0, 0
2, 8112, Note_on_c, 0, 71, 72
2, 8160, Note_on_c, 0, 71, 0
2, 8160, Note_on_c, 0, 69, 72
2, 8208, Note_on_c, 0, 69, 0
2, 8208, Note_on_c, 0, 67, 72
2, 8256, Note_on_c, 0, 67, 0
2, 8256, Note_on_c, 0, 69, 72
2, 8304, Note_on_c, 0, 69, 0
2, 8304, Note_on_c, 0, 72, 72
2, 8352, Note_on_c, 0, 72, 0
2, 8352, Program_c, 0, 0
2, 8352, Note_on_c, 0, 71, 72
2, 8448, Note_on_c, 0, 71, 0
2, 8448, Note_on_c, 0, 71, 72
2, 8496, Note_on_c, 0, 71, 0
2, 8496, Program_c, 0, 0
2, 8496, Note_on_c, 0, 68, 72
2, 8544, Note_on_c, 0, 68, 0
2, 8544, Note_on_c, 0, 66, 72
2, 8592, Note_on_c, 0, 66, 0
2, 8592, Note_on_c, 0, 64, 72
2, 8640, Note_on_c, 0, 64, 0
2, 8640, Note_on_c, 0, 66, 72
2, 8688, Note_on_c, 0, 66, 0
2, 8688, Note_on_c, 0, 69, 72
2, 8736, Note_on_c, 0, 69, 0
2, 8736, Note_on_c, 0, 68, 72
2, 8784, Note_on_c, 0, 68, 0
2, 8784, Note_on_c, 0, 71, 72
2, 8832, Note_on_c, 0, 71, 0
2, 8832, Note_on_c, 0, 69, 72
2, 8880, Note_on_c, 0, 69, 0
2, 8880, Note_on_c, 0, 72, 72
2, 8928, Note_on_c, 0, 72, 0
2, 8928, Note_on_c, 0, 71, 72
2, 8976, Note_on_c, 0, 71, 0
2, 8976, Note_on_c, 0, 74, 72
2, 9024, Note_on_c, 0, 74, 0
2, 9024, Program_c, 0, 0
2, 9024, Note_on_c, 0, 72, 72
2, 9216, Note_on_c, 0, 72, 0
2, 9216, Program_c, 0, 0
2, 9216, Note_on_c, 0, 72, 72
2, 9264, Note_on_c, 0, 72, 0
2, 9264, Note_on_c, 0, 75, 72
2, 9312, Note_on_c, 0, 75, 0
2, 9312, Note_on_c, 0, 74, 72
2, 9360, Note_on_c, 0, 74, 0
2, 9360, Note_on_c, 0, 72, 72
2, 9408, Note_on_c, 0, 72, 0
2, 9408, Note_on_c, 0, 74, 72
2, 9456, Note_on_c, 0, 74, 0
2, 9456, Note_on_c, 0, 70, 72
2, 9504, Note_on_c, 0, 70, 0
2, 9504, Note_on_c, 0, 72, 72
2, 9552, Note_on_c, 0, 72, 0
2, 9552, Note_on_c, 0, 69, 72
2, 9600, Note_on_c, 0, 69, 0
2, 9600, Program_c, 0, 0
2, 9600, Note_on_c, 0, 70, 72
2, 9984, Note_on_c, 0, 70, 0
2, 9984, Program_c, 0, 0
2, 9984, Note_on_c, 0, 70, 72
2, 10032, Note_on_c, 0, 70, 0
2, 10032, Note_on_c, 0, 74, 72
2, 10080, Note_on_c, 0, 74, 0
2, 10080, Note_on_c, 0, 72, 72
2, 10128, Note_on_c, 0, 72, 0
2, 10128, Note_on_c, 0, 70, 72
2, 10176, Note_on_c, 0, 70, 0
2, 10176, Note_on_c, 0, 72, 72
2, 10224, Note_on_c, 0, 72, 0
2, 10224, Note_on_c, 0, 69, 72
2, 10272, Note_on_c, 0, 69, 0
2, 10272, Note_on_c, 0, 70, 72
2, 10320, Note_on_c, 0, 70, 0
2, 10320, Note_on_c, 0, 67, 72
2, 10368, Note_on_c, 0, 67, 0
2, 10368, Note_on_c, 0, 69, 72
2, 10464, Note_on_c, 0, 69, 0
2, 10464, Note_on_c, 0, 74, 72
2, 10560, Note_on_c, 0, 74, 0
2, 10560, Program_c, 0, 0
2, 10560, Note_on_c, 0, 68, 72
2, 10656, Note_on_c, 0, 68, 0
2, 10656, Note_on_c, 0, 67, 72
2, 10752, Note_on_c, 0, 67, 0
2, 10752, Program_c, 0, 0
2, 10752, Note_on_c, 0, 65, 72
2, 10848, Note_on_c, 0, 65, 0
2, 10848, Note_on_c, 0, 70, 72
2, 10944, Note_on_c, 0, 70, 0
2, 10944, Program_c, 0, 0
2, 10944, Note_on_c, 0, 64, 72
2, 11040, Note_on_c, 0, 64, 0
2, 11040, Note_on_c, 0, 63, 72
2, 11136, Note_on_c, 0, 63, 0
2, 11136, Program_c, 0, 0
2, 11136, Note_on_c, 0, 62, 72
2, 11232, Note_on_c, 0, 62, 0
2, 11232, Note_on_c, 0, 67, 72
2, 11328, Note_on_c, 0, 67, 0
2, 11328, Program_c, 0, 0
2, 11328, Note_on_c, 0, 61, 72
2, 11424, Note_on_c, 0, 61, 0
2, 11424, Note_on_c, 0, 60, 72
2, 11520, Note_on_c, 0, 60, 0
2, 11520, Note_on_c, 0, 60, 72
2, 11568, Note_on_c, 0, 60, 0
2, 11568, Program_c, 0, 0
2, 11568, Note_on_c, 0, 60, 72
2, 11616, Note_on_c, 0, 60, 0
2, 11616, Note_on_c, 0, 58, 72
2, 11664, Note_on_c, 0, 58, 0
2, 11664, Note_on_c, 0, 57, 72
2, 11712, Note_on_c, 0, 57, 0
2, 11712, Note_on_c, 0, 58, 72
2, 11760, Note_on_c, 0, 58, 0
2, 11760, Note_on_c, 0, 62, 72
2, 11808, Note_on_c, 0, 62, 0
2, 11808, Note_on_c, 0, 60, 72
2, 11856, Note_on_c, 0, 60, 0
2, 11856, Note_on_c, 0, 63, 72
2, 11904, Note_on_c, 0, 63, 0
2, 11904, Note_on_c, 0, 62, 72
2, 11952, Note_on_c, 0, 62, 0
2, 11952, Note_on_c, 0, 69, 72
2, 12000, Note_on_c, 0, 69, 0
2, 12000, Note_on_c, 0, 67, 72
2, 12048, Note_on_c, 0, 67, 0
2, 12048, Note_on_c, 0, 66, 72
2, 12096, Note_on_c, 0, 66, 0
2, 12096, Note_on_c, 0, 67, 72
2, 12144, Note_on_c, 0, 67, 0
2, 12144, Note_on_c, 0, 70, 72
2, 12192, Note_on_c, 0, 70, 0
2, 12192, Note_on_c, 0, 69, 72
2, 12240, Note_on_c, 0, 69, 0
2, 12240, Note_on_c, 0, 72, 72
2, 12288, Note_on_c, 0, 72, 0
2, 12288, Program_c, 0, 0
2, 12288, Note_on_c, 0, 70, 72
2, 12480, Note_on_c, 0, 70, 0
2, 12480, Note_on_c, 0, 70, 72
2, 12528, Note_on_c, 0, 70, 0
2, 12528, Program_c, 0, 0
2, 12528, Note_on_c, 0, 67, 72
2, 12576, Note_on_c, 0, 67, 0
2, 12576, Note_on_c, 0, 69, 72
2, 12624, Note_on_c, 0, 69, 0
2, 12624, Note_on_c, 0, 65, 72
2, 12672, Note_on_c, 0, 65, 0
2, 12672, Program_c, 0, 0
2, 12672, Note_on_c, 0, 67, 72
2, 12864, Note_on_c, 0, 67, 0
2, 12960, Note_on_c, 0, 73, 72
2, 13056, Note_on_c, 0, 73, 0
2, 13056, Program_c, 0, 0
2, 13056, Note_on_c, 0, 74, 72
2, 13104, Note_on_c, 0, 74, 0
2, 13104, Note_on_c, 0, 67, 72
2, 13152, Note_on_c, 0, 67, 0
2, 13152, Note_on_c, 0, 65, 72
2, 13200, Note_on_c, 0, 65, 0
2, 13200, Note_on_c, 0, 64, 72
2, 13248, Note_on_c, 0, 64, 0
2, 13248, Note_on_c, 0, 65, 72
2, 13296, Note_on_c, 0, 65, 0
2, 13296, Note_on_c, 0, 69, 72
2, 13344, Note_on_c, 0, 69, 0
2, 13344, Note_on_c, 0, 67, 72
2, 13392, Note_on_c, 0, 67, 0
2, 13392, Note_on_c, 0, 70, 72
2, 13440, Note_on_c, 0, 70, 0
2, 13440, Note_on_c, 0, 69, 72
2, 13488, Note_on_c, 0, 69, 0
2, 13488, Note_on_c, 0, 64, 72
2, 13536, Note_on_c, 0, 64, 0
2, 13536, Note_on_c, 0, 62, 72
2, 13584, Note_on_c, 0, 62, 0
2, 13584, Note_on_c, 0, 61, 72
2, 13632, Note_on_c, 0, 61, 0
2, 13632, Note_on_c, 0, 62, 72
2, 13680, Note_on_c, 0, 62, 0
2, 13680, Note_on_c, 0, 65, 72
2, 13728, Note_on_c, 0, 65, 0
2, 13728, Note_on_c, 0, 64, 72
2, 13776, Note_on_c, 0, 64, 0
2, 13776, Note_on_c, 0, 67, 72
2, 13824, Note_on_c, 0, 67, 0
2, 13824, Note_on_c, 0, 65, 72
2, 13872, Note_on_c, 0, 65, 0
2, 13872, Note_on_c, 0, 60, 72
2, 13920, Note_on_c, 0, 60, 0
2, 13920, Note_on_c, 0, 59, 72
2, 13968, Note_on_c, 0, 59, 0
2, 13968, Note_on_c, 0, 57, 72
2, 14016, Note_on_c, 0, 57, 0
2, 14016, Note_on_c, 0, 59, 72
2, 14064, Note_on_c, 0, 59, 0
2, 14064, Note_on_c, 0, 62, 72
2, 14112, Note_on_c, 0, 62, 0
2, 14112, Note_on_c, 0, 61, 72
2, 14160, Note_on_c, 0, 61, 0
2, 14160, Note_on_c, 0, 64, 72
2, 14208, Note_on_c, 0, 64, 0
2, 14208, Note_on_c, 0, 62, 72
2, 14256, Note_on_c, 0, 62, 0
2, 14256, Note_on_c, 0, 65, 72
2, 14304, Note_on_c, 0, 65, 0
2, 14304, Note_on_c, 0, 64, 72
2, 14352, Note_on_c, 0, 64, 0
2, 14352, Note_on_c, 0, 67, 72
2, 14400, Note_on_c, 0, 67, 0
2, 14400, Note_on_c, 0, 65, 72
2, 14448, Note_on_c, 0, 65, 0
2, 14448, Program_c, 0, 0
2, 14448, Note_on_c, 0, 64, 72
2, 14496, Note_on_c, 0, 64, 0
2, 14496, Note_on_c, 0, 62, 72
2, 14544, Note_on_c, 0, 62, 0
2, 14544, Note_on_c, 0, 61, 72
2, 14592, Note_on_c, 0, 61, 0
2, 14592, Note_on_c, 0, 62, 72
2, 14784, Note_on_c, 0, 62, 0
2, 14784, Program_c, 0, 13
2, 14784, Note_on_c, 0, 74, 88
2, 14976, Note_on_c, 0, 74, 0
2, 14976, Program_c, 0, 0
2, 14976, Note_on_c, 0, 72, 88
2, 15072, Note_on_c, 0, 72, 0
2, 15072, Note_on_c, 0, 77, 88
2, 15168, Note_on_c, 0, 77, 0
2, 15168, Program_c, 0, 13
2, 15168, Note_on_c, 0, 71, 88
2, 15264, Note_on_c, 0, 71, 0
2, 15264, Note_on_c, 0, 70, 88
2, 15360, Note_on_c, 0, 70, 0
2, 15360, Program_c, 0, 0
2, 15360, Note_on_c, 0, 69, 88
2, 15456, Note_on_c, 0, 69, 0
2, 15456, Note_on_c, 0, 74, 88
2, 15552, Note_on_c, 0, 74, 0
2, 15552, Note_on_c, 0, 69, 88
2, 15576, Note_on_c, 0, 69, 0
2, 15576, Note_on_c, 0, 67, 88
2, 15600, Note_on_c, 0, 67, 0
2, 15600, Note_on_c, 0, 69, 88
2, 15624, Note_on_c, 0, 69, 0
2, 15624, Note_on_c, 0, 67, 88
2, 15648, Note_on_c, 0, 67, 0
2, 15648, Note_on_c, 0, 69, 88
2, 15672, Note_on_c, 0, 69, 0
2, 15672, Note_on_c, 0, 67, 88
2, 15696, Note_on_c, 0, 67, 0
2, 15696, Note_on_c, 0, 65, 88
2, 15720, Note_on_c, 0, 65, 0
2, 15720, Note_on_c, 0, 67, 88
2, 15744, Note_on_c, 0, 67, 0
2, 15744, Program_c, 0, 13
2, 15744, Note_on_c, 0, 65, 88
2, 15840, Note_on_c, 0, 65, 0
2, 15840, Note_on_c, 0, 67, 88
2, 15936, Note_on_c, 0, 67, 0
2, 15936, Note_on_c, 0, 69, 88
2, 15984, Note_on_c, 0, 69, 0
2, 15984, Note_on_c, 0, 67, 88
2, 16032, Note_on_c, 0, 67, 0
2, 16032, Note_on_c, 0, 69, 88
2, 16128, Note_on_c, 0, 69, 0
2, 16128, Note_on_c, 0, 62, 88
2, 16320, Note_on_c, 0, 62, 0
2, 16416, Note_on_c, 0, 75, 88
2, 16512, Note_on_c, 0, 75, 0
2, 16512, Note_on_c, 0, 75, 88
2, 16560, Note_on_c, 0, 75, 0
2, 16560, Program_c, 0, 0
2, 16560, Note_on_c, 0, 73, 88
2, 16608, Note_on_c, 0, 73, 0
2, 16608, Note_on_c, 0, 74, 88
2, 16656, Note_on_c, 0, 74, 0
2, 16656, Note_on_c, 0, 74, 88
2, 16704, Note_on_c, 0, 74, 0
2, 16704, Note_on_c, 0, 74, 88
2, 16752, Note_on_c, 0, 74, 0
2, 16752, Note_on_c, 0, 71, 88
2, 16800, Note_on_c, 0, 71, 0
2, 16800, Note_on_c, 0, 72, 88
2, 16848, Note_on_c, 0, 72, 0
2, 16848, Note_on_c, 0, 72, 88
2, 16896, Note_on_c, 0, 72, 0
2, 16896, Note_on_c, 0, 72, 88
2, 16944, Note_on_c, 0, 72, 0
2, 16944, Note_on_c, 0, 69, 88
2, 16992, Note_on_c, 0, 69, 0
2, 16992, Note_on_c, 0, 70, 88
2, 17040, Note_on_c, 0, 70, 0
2, 17040, Note_on_c, 0, 70, 88
2, 17088, Note_on_c, 0, 70, 0
2, 17088, Note_on_c, 0, 70, 88
2, 17136, Note_on_c, 0, 70, 0
2, 17136, Note_on_c, 0, 69, 88
2, 17184, Note_on_c, 0, 69, 0
2, 17184, Note_on_c, 0, 67, 88
2, 17232, Note_on_c, 0, 67, 0
2, 17232, Note_on_c, 0, 66, 88
2, 17280, Note_on_c, 0, 66, 0
2, 17280, Program_c, 0, 13
2, 17280, Note_on_c, 0, 67, 88
2, 17568, Note_on_c, 0, 67, 0
2, 17568, Note_on_c, 0, 65, 72
2, 17664, Note_on_c, 0, 65, 0
2, 17664, Note_on_c, 0, 65, 72
2, 17712, Note_on_c, 0, 65, 0
2, 17712, Program_c, 0, 0
2, 17712, Note_on_c, 0, 67, 72
2, 17760, Note_on_c, 0, 67, 0
2, 17760, Note_on_c, 0, 65, 72
2, 17808, Note_on_c, 0, 65, 0
2, 17808, Note_on_c, 0, 63, 72
2, 17856, Note_on_c, 0, 63, 0
2, 17856, Note_on_c, 0, 62, 72
2, 17904, Note_on_c, 0, 62, 0
2, 17904, Note_on_c, 0, 63, 72
2, 17952, Note_on_c, 0, 63, 0
2, 17952, Note_on_c, 0, 60, 72
2, 18000, Note_on_c, 0, 60, 0
2, 18000, Note_on_c, 0, 62, 72
2, 18048, Note_on_c, 0, 62, 0
2, 18048, Note_on_c, 0, 64, 72
2, 18096, Note_on_c, 0, 64, 0
2, 18096, Note_on_c, 0, 72, 72
2, 18144, Note_on_c, 0, 72, 0
2, 18144, Note_on_c, 0, 70, 72
2, 18192, Note_on_c, 0, 70, 0
2, 18192, Note_on_c, 0, 69, 72
2, 18240, Note_on_c, 0, 69, 0
2, 18240, Note_on_c, 0, 67, 72
2, 18288, Note_on_c, 0, 67, 0
2, 18288, Note_on_c, 0, 69, 72
2, 18336, Note_on_c, 0, 69, 0
2, 18336, Note_on_c, 0, 65, 72
2, 18384, Note_on_c, 0, 65, 0
2, 18384, Note_on_c, 0, 67, 72
2, 18432, Note_on_c, 0, 67, 0
2, 18432, Note_on_c, 0, 69, 72
2, 18480, Note_on_c, 0, 69, 0
2, 18480, Note_on_c, 0, 67, 72
2, 18528, Note_on_c, 0, 67, 0
2, 18528, Note_on_c, 0, 65, 72
2, 18576, Note_on_c, 0, 65, 0
2, 18576, Note_on_c, 0, 64, 72
2, 18624, Note_on_c, 0, 64, 0
2, 18624, Note_on_c, 0, 62, 72
2, 18672, Note_on_c, 0, 62, 0
2, 18672, Note_on_c, 0, 64, 72
2, 18720, Note_on_c, 0, 64, 0
2, 18720, Note_on_c, 0, 60, 72
2, 18768, Note_on_c, 0, 60, 0
2, 18768, Note_on_c, 0, 62, 72
2, 18816, Note_on_c, 0, 62, 0
2, 18816, Program_c, 0, 13
2, 18816, Note_on_c, 0, 59, 72
2, 18912, Note_on_c, 0, 59, 0
2, 18912, Note_on_c, 0, 67, 72
2, 19008, Note_on_c, 0, 67, 0
2, 19008, Note_on_c, 0, 69, 72
2, 19104, Note_on_c, 0, 69, 0
2, 19104, Note_on_c, 0, 70, 72
2, 19200, Note_on_c, 0, 70, 0
2, 19200, Note_on_c, 0, 68, 72
2, 19296, Note_on_c, 0, 68, 0
2, 19296, Note_on_c, 0, 76, 72
2, 19392, Note_on_c, 0, 76, 0
2, 19584, Program_c, 0, 0
2, 19632, Note_on_c, 0, 76, 72
2, 19680, Note_on_c, 0, 76, 0
2, 19680, Note_on_c, 0, 74, 72
2, 19728, Note_on_c, 0, 74, 0
2, 19728, Note_on_c, 0, 72, 72
2, 19776, Note_on_c, 0, 72, 0
2, 19776, Note_on_c, 0, 71, 72
2, 19824, Note_on_c, 0, 71, 0
2, 19824, Note_on_c, 0, 72, 72
2, 19872, Note_on_c, 0, 72, 0
2, 19872, Note_on_c, 0, 69, 72
2, 19920, Note_on_c, 0, 69, 0
2, 19920, Note_on_c, 0, 71, 72
2, 19968, Note_on_c, 0, 71, 0
2, 19968, Program_c, 0, 13
2, 19968, Note_on_c, 0, 73, 72
2, 20064, Note_on_c, 0, 73, 0
2, 20064, Note_on_c, 0, 74, 72
2, 20160, Note_on_c, 0, 74, 0
2, 20160, Program_c, 0, 0
2, 20160, Note_on_c, 0, 76, 72
2, 20208, Note_on_c, 0, 76, 0
2, 20208, Note_on_c, 0, 74, 72
2, 20256, Note_on_c, 0, 74, 0
2, 20256, Program_c, 0, 13
2, 20256, Note_on_c, 0, 76, 72
2, 20352, Note_on_c, 0, 76, 0
2, 20352, Note_on_c, 0, 69, 72
2, 20448, Note_on_c, 0, 69, 0
2, 20448, Program_c, 0, 0
2, 20448, Note_on_c, 0, 70, 72
2, 20496, Note_on_c, 0, 70, 0
2, 20496, Note_on_c, 0, 69, 72
2, 20544, Note_on_c, 0, 69, 0
2, 20544, Note_on_c, 0, 67, 72
2, 20592, Note_on_c, 0, 67, 0
2, 20592, Note_on_c, 0, 65, 72
2, 20640, Note_on_c, 0, 65, 0
2, 20640, Program_c, 0, 13
2, 20640, Note_on_c, 0, 67, 72
2, 20736, Note_on_c, 0, 67, 0
2, 20736, Note_on_c, 0, 67, 72
2, 20784, Note_on_c, 0, 67, 0
2, 20784, Program_c, 0, 0
2, 20784, Note_on_c, 0, 60, 72
2, 20832, Note_on_c, 0, 60, 0
2, 20832, Note_on_c, 0, 62, 72
2, 20880, Note_on_c, 0, 62, 0
2, 20880, Note_on_c, 0, 64, 72
2, 20928, Note_on_c, 0, 64, 0
2, 20928, Note_on_c, 0, 65, 72
2, 20976, Note_on_c, 0, 65, 0
2, 20976, Note_on_c, 0, 64, 72
2, 21024, Note_on_c, 0, 64, 0
2, 21024, Note_on_c, 0, 67, 72
2, 21072, Note_on_c, 0, 67, 0
2, 21072, Note_on_c, 0, 65, 72
2, 21120, Note_on_c, 0, 65, 0
2, 21120, Program_c, 0, 13
2, 21120, Note_on_c, 0, 64, 72
2, 21312, Note_on_c, 0, 64, 0
2, 21408, Note_on_c, 0, 69, 72
2, 21504, Note_on_c, 0, 69, 0
2, 21504, Note_on_c, 0, 69, 72
2, 21552, Note_on_c, 0, 69, 0
2, 21552, Program_c, 0, 0
2, 21552, Note_on_c, 0, 62, 72
2, 21600, Note_on_c, 0, 62, 0
2, 21600, Note_on_c, 0, 64, 72
2, 21648, Note_on_c, 0, 64, 0
2, 21648, Note_on_c, 0, 65, 72
2, 21696, Note_on_c, 0, 65, 0
2, 21696, Note_on_c, 0, 67, 72
2, 21744, Note_on_c, 0, 67, 0
2, 21744, Note_on_c, 0, 65, 72
2, 21792, Note_on_c, 0, 65, 0
2, 21792, Note_on_c, 0, 69, 72
2, 21840, Note_on_c, 0, 69, 0
2, 21840, Note_on_c, 0, 67, 72
2, 21888, Note_on_c, 0, 67, 0
2, 21888, Program_c, 0, 13
2, 21888, Note_on_c, 0, 65, 72
2, 22080, Note_on_c, 0, 65, 0
2, 22176, Note_on_c, 0, 74, 72
2, 22272, Note_on_c, 0, 74, 0
2, 22272, Note_on_c, 0, 74, 72
2, 22368, Note_on_c, 0, 74, 0
2, 22368, Note_on_c, 0, 72, 72
2, 22560, Note_on_c, 0, 72, 0
2, 22560, Note_on_c, 0, 70, 72
2, 22656, Note_on_c, 0, 70, 0
2, 22656, Note_on_c, 0, 70, 72
2, 22752, Note_on_c, 0, 70, 0
2, 22752, Note_on_c, 0, 69, 72
2, 22848, Note_on_c, 0, 69, 0
2, 22848, Note_on_c, 0, 67, 72
2, 23040, Note_on_c, 0, 67, 0
2, 23040, Program_c, 0, 0
2, 23040, Note_on_c, 0, 65, 72
2, 23088, Note_on_c, 0, 65, 0
2, 23088, Note_on_c, 0, 72, 72
2, 23136, Note_on_c, 0, 72, 0
2, 23136, Note_on_c, 0, 74, 72
2, 23184, Note_on_c, 0, 74, 0
2, 23184, Note_on_c, 0, 76, 72
2, 23232, Note_on_c, 0, 76, 0
2, 23232, Program_c, 0, 13
2, 23232, Note_on_c, 0, 77, 88
2, 23424, Note_on_c, 0, 77, 0
2, 23424, Program_c, 0, 0
2, 23424, Note_on_c, 0, 76, 88
2, 23520, Note_on_c, 0, 76, 0
2, 23520, Note_on_c, 0, 81, 88
2, 23616, Note_on_c, 0, 81, 0
2, 23616, Program_c, 0, 13
2, 23616, Note_on_c, 0, 74, 88
2, 23712, Note_on_c, 0, 74, 0
2, 23712, Note_on_c, 0, 73, 88
2, 23808, Note_on_c, 0, 73, 0
2, 23808, Program_c, 0, 0
2, 23808, Note_on_c, 0, 72, 88
2, 23904, Note_on_c, 0, 72, 0
2, 23904, Note_on_c, 0, 77, 88
2, 24000, Note_on_c, 0, 77, 0
2, 24000, Note_on_c, 0, 72, 88
2, 24024, Note_on_c, 0, 72, 0
2, 24024, Note_on_c, 0, 70, 88
2, 24048, Note_on_c, 0, 70, 0
2, 24048, Note_on_c, 0, 72, 88
2, 24072, Note_on_c, 0, 72, 0
2, 24072, Note_on_c, 0, 70, 88
2, 24096, Note_on_c, 0, 70, 0
2, 24096, Note_on_c, 0, 72, 88
2, 24120, Note_on_c, 0, 72, 0
2, 24120, Note_on_c, 0, 70, 88
2, 24144, Note_on_c, 0, 70, 0
2, 24144, Note_on_c, 0, 69, 88
2, 24168, Note_on_c, 0, 69, 0
2, 24168, Note_on_c, 0, 70, 88
2, 24192, Note_on_c, 0, 70, 0
2, 24192, Program_c, 0, 13
2, 24192, Note_on_c, 0, 69, 88
2, 24288, Note_on_c, 0, 69, 0
2, 24288, Note_on_c, 0, 70, 88
2, 24384, Note_on_c, 0, 70, 0
2, 24384, Note_on_c, 0, 72, 88
2, 24432, Note_on_c, 0, 72, 0
2, 24432, Note_on_c, 0, 70, 88
2, 24480, Note_on_c, 0, 70, 0
2, 24480, Note_on_c, 0, 72, 88
2, 24576, Note_on_c, 0, 72, 0
2, 24576, Note_on_c, 0, 65, 88
2, 24672, Note_on_c, 0, 65, 0
2, 24864, Note_on_c, 0, 70, 72
2, 24960, Note_on_c, 0, 70, 0
2, 24960, Note_on_c, 0, 70, 72
2, 25008, Note_on_c, 0, 70, 0
2, 25008, Program_c, 0, 0
2, 25008, Note_on_c, 0, 69, 72
2, 25056, Note_on_c, 0, 69, 0
2, 25056, Note_on_c, 0, 71, 72
2, 25104, Note_on_c, 0, 71, 0
2, 25104, Note_on_c, 0, 72, 72
2, 25152, Note_on_c, 0, 72, 0
2, 25152, Note_on_c, 0, 74, 72
2, 25200, Note_on_c, 0, 74, 0
2, 25200, Note_on_c, 0, 72, 72
2, 25248, Note_on_c, 0, 72, 0
2, 25248, Program_c, 0, 13
2, 25248, Note_on_c, 0, 74, 72
2, 25344, Note_on_c, 0, 74, 0
2, 25344, Program_c, 0, 0
2, 25344, Note_on_c, 0, 67, 88
2, 25392, Note_on_c, 0, 67, 0
2, 25392, Note_on_c, 0, 71, 88
2, 25440, Note_on_c, 0, 71, 0
2, 25440, Note_on_c, 0, 72, 88
2, 25488, Note_on_c, 0, 72, 0
2, 25488, Note_on_c, 0, 74, 88
2, 25536, Note_on_c, 0, 74, 0
2, 25536, Note_on_c, 0, 76, 88
2, 25584, Note_on_c, 0, 76, 0
2, 25584, Note_on_c, 0, 77, 88
2, 25632, Note_on_c, 0, 77, 0
2, 25632, Note_on_c, 0, 79, 88
2, 25680, Note_on_c, 0, 79, 0
2, 25680, Note_on_c, 0, 79, 88
2, 25728, Note_on_c, 0, 79, 0
2, 25728, Note_on_c, 0, 79, 88
2, 25776, Note_on_c, 0, 79, 0
2, 25776, Note_on_c, 0, 76, 88
2, 25824, Note_on_c, 0, 76, 0
2, 25824, Note_on_c, 0, 77, 88
2, 25872, Note_on_c, 0, 77, 0
2, 25872, Note_on_c, 0, 77, 88
2, 25920, Note_on_c, 0, 77, 0
2, 25920, Note_on_c, 0, 77, 88
2, 25968, Note_on_c, 0, 77, 0
2, 25968, Note_on_c, 0, 74, 88
2, 26016, Note_on_c, 0, 74, 0
2, 26016, Note_on_c, 0, 75, 88
2, 26064, Note_on_c, 0, 75, 0
2, 26064, Note_on_c, 0, 75, 88
2, 26112, Note_on_c, 0, 75, 0
2, 26112, Note_on_c, 0, 75, 88
2, 26160, Note_on_c, 0, 75, 0
2, 26160, Note_on_c, 0, 73, 88
2, 26208, Note_on_c, 0, 73, 0
2, 26208, Note_on_c, 0, 74, 88
2, 26256, Note_on_c, 0, 74, 0
2, 26256, Note_on_c, 0, 74, 88
2, 26304, Note_on_c, 0, 74, 0
2, 26304, Note_on_c, 0, 74, 88
2, 26352, Note_on_c, 0, 74, 0
2, 26352, Note_on_c, 0, 72, 88
2, 26400, Note_on_c, 0, 72, 0
2, 26400, Note_on_c, 0, 70, 88
2, 26448, Note_on_c, 0, 70, 0
2, 26448, Note_on_c, 0, 69, 88
2, 26496, Note_on_c, 0, 69, 0
2, 26496, Note_on_c, 0, 70, 88
2, 26544, Note_on_c, 0, 70, 0
2, 26544, Note_on_c, 0, 65, 88
2, 26592, Note_on_c, 0, 65, 0
2, 26592, Program_c, 0, 13
2, 26592, Note_on_c, 0, 70, 88
2, 26784, Note_on_c, 0, 70, 0
2, 26784, Note_on_c, 0, 69, 72
2, 26880, Note_on_c, 0, 69, 0
2, 26880, Program_c, 0, 0
2, 26880, Note_on_c, 0, 70, 72
2, 26928, Note_on_c, 0, 70, 0
2, 26928, Note_on_c, 0, 77, 72
2, 26976, Note_on_c, 0, 77, 0
2, 26976, Note_on_c, 0, 75, 72
2, 27024, Note_on_c, 0, 75, 0
2, 27024, Note_on_c, 0, 74, 72
2, 27072, Note_on_c, 0, 74, 0
2, 27072, Note_on_c, 0, 72, 72
2, 27120, Note_on_c, 0, 72, 0
2, 27120, Note_on_c, 0, 74, 72
2, 27168, Note_on_c, 0, 74, 0
2, 27168, Note_on_c, 0, 70, 72
2, 27216, Note_on_c, 0, 70, 0
2, 27216, Note_on_c, 0, 72, 72
2, 27264, Note_on_c, 0, 72, 0
2, 27264, Program_c, 0, 13
2, 27264, Note_on_c, 0, 74, 72
2, 27360, Note_on_c, 0, 74, 0
2, 27360, Note_on_c, 0, 79, 72
2, 27552, Note_on_c, 0, 79, 0
2, 27552, Note_on_c, 0, 78, 72
2, 27648, Note_on_c, 0, 78, 0
2, 27648, Program_c, 0, 0
2, 27648, Note_on_c, 0, 79, 72
2, 27696, Note_on_c, 0, 79, 0
2, 27696, Note_on_c, 0, 74, 72
2, 27744, Note_on_c, 0, 74, 0
2, 27744, Note_on_c, 0, 72, 72
2, 27792, Note_on_c, 0, 72, 0
2, 27792, Note_on_c, 0, 70, 72
2, 27840, Note_on_c, 0, 70, 0
2, 27840, Note_on_c, 0, 69, 72
2, 27888, Note_on_c, 0, 69, 0
2, 27888, Note_on_c, 0, 70, 72
2, 27936, Note_on_c, 0, 70, 0
2, 27936, Note_on_c, 0, 67, 72
2, 27984, Note_on_c, 0, 67, 0
2, 27984, Note_on_c, 0, 69, 72
2, 28032, Note_on_c, 0, 69, 0
2, 28032, Program_c, 0, 13
2, 28032, Note_on_c, 0, 70, 72
2, 28224, Note_on_c, 0, 70, 0
2, 28224, Note_on_c, 0, 69, 72
2, 28416, Note_on_c, 0, 69, 0
2, 28416, Note_on_c, 0, 74, 72
2, 28512, Note_on_c, 0, 74, 0
2, 28512, Note_on_c, 0, 67, 72
2, 28608, Note_on_c, 0, 67, 0
2, 28608, Note_on_c, 0, 65, 72
2, 28800, Note_on_c, 0, 65, 0
2, 28800, Note_on_c, 0, 63, 72
2, 28992, Note_on_c, 0, 63, 0
2, 28992, Note_on_c, 0, 62, 72
2, 29088, Note_on_c, 0, 62, 0
2, 29088, Note_on_c, 0, 63, 72
2, 29184, Note_on_c, 0, 63, 0
2, 29184, Note_on_c, 0, 61, 72
2, 29280, Note_on_c, 0, 61, 0
2, 29280, Note_on_c, 0, 62, 72
2, 29376, Note_on_c, 0, 62, 0
2, 29376, Note_on_c, 0, 67, 72
2, 29568, Note_on_c, 0, 67, 0
2, 29568, Note_on_c, 0, 67, 72
2, 29616, Note_on_c, 0, 67, 0
2, 29616, Program_c, 0, 0
2, 29616, Note_on_c, 0, 64, 72
2, 29664, Note_on_c, 0, 64, 0
2, 29664, Note_on_c, 0, 65, 72
2, 29712, Note_on_c, 0, 65, 0
2, 29712, Note_on_c, 0, 65, 72
2, 29760, Note_on_c, 0, 65, 0
2, 29760, Program_c, 0, 13
2, 29760, Note_on_c, 0, 64, 72
2, 29856, Note_on_c, 0, 64, 0
2, 29856, Note_on_c, 0, 69, 72
2, 29952, Note_on_c, 0, 69, 0
2, 29952, Note_on_c, 0, 74, 72
2, 30096, Note_on_c, 0, 74, 0
2, 30096, Program_c, 0, 0
2, 30096, Note_on_c, 0, 76, 72
2, 30144, Note_on_c, 0, 76, 0
2, 30144, Program_c, 0, 13
2, 30144, Note_on_c, 0, 73, 72
2, 30240, Note_on_c, 0, 73, 0
2, 30240, Note_on_c, 0, 74, 72
2, 30336, Note_on_c, 0, 74, 0
2, 30336, Note_on_c, 0, 71, 72
2, 30432, Note_on_c, 0, 71, 0
2, 30432, Note_on_c, 0, 72, 72
2, 30528, Note_on_c, 0, 72, 0
2, 30624, Note_on_c, 0, 70, 72
2, 30720, Note_on_c, 0, 70, 0
2, 30720, Note_on_c, 0, 68, 72
2, 30816, Note_on_c, 0, 68, 0
2, 30816, Note_on_c, 0, 69, 72
2, 30912, Note_on_c, 0, 69, 0
2, 31008, Note_on_c, 0, 74, 88
2, 31104, Note_on_c, 0, 74, 0
2, 31104, Program_c, 0, 0
2, 31104, Note_on_c, 0, 72, 88
2, 31200, Note_on_c, 0, 72, 0
2, 31200, Note_on_c, 0, 77, 88
2, 31296, Note_on_c, 0, 77, 0
2, 31296, Program_c, 0, 13
2, 31296, Note_on_c, 0, 71, 88
2, 31392, Note_on_c, 0, 71, 0
2, 31392, Note_on_c, 0, 70, 88
2, 31488, Note_on_c, 0, 70, 0
2, 31488, Program_c, 0, 0
2, 31488, Note_on_c, 0, 69, 88
2, 31584, Note_on_c, 0, 69, 0
2, 31584, Note_on_c, 0, 74, 88
2, 31680, Note_on_c, 0, 74, 0
2, 31680, Note_on_c, 0, 69, 88
2, 31704, Note_on_c, 0, 69, 0
2, 31704, Note_on_c, 0, 67, 88
2, 31728, Note_on_c, 0, 67, 0
2, 31728, Note_on_c, 0, 69, 88
2, 31752, Note_on_c, 0, 69, 0
2, 31752, Note_on_c, 0, 67, 88
2, 31776, Note_on_c, 0, 67, 0
2, 31776, Note_on_c, 0, 69, 88
2, 31800, Note_on_c, 0, 69, 0
2, 31800, Note_on_c, 0, 67, 88
2, 31824, Note_on_c, 0, 67, 0
2, 31824, Note_on_c, 0, 66, 88
2, 31848, Note_on_c, 0, 66, 0
2, 31848, Note_on_c, 0, 67, 88
2, 31872, Note_on_c, 0, 67, 0
2, 31872, Program_c, 0, 13
2, 31872, Note_on_c, 0, 66, 88
2, 31968, Note_on_c, 0, 66, 0
2, 31968, Note_on_c, 0, 67, 88
2, 32064, Note_on_c, 0, 67, 0
2, 32064, Note_on_c, 0, 69, 88
2, 32112, Note_on_c, 0, 69, 0
2, 32112, Note_on_c, 0, 67, 88
2, 32160, Note_on_c, 0, 67, 0
2, 32160, Note_on_c, 0, 69, 88
2, 32256, Note_on_c, 0, 69, 0
2, 32256, Program_c, 0, 0
2, 32256, Note_on_c, 0, 62, 88
2, 32304, Note_on_c, 0, 62, 0
2, 32304, Note_on_c, 0, 64, 72
2, 32352, Note_on_c, 0, 64, 0
2, 32352, Note_on_c, 0, 66, 72
2, 32400, Note_on_c, 0, 66, 0
2, 32400, Note_on_c, 0, 67, 72
2, 32448, Note_on_c, 0, 67, 0
2, 32448, Program_c, 0, 13
2, 32448, Note_on_c, 0, 69, 72
2, 32496, Note_on_c, 0, 69, 0
2, 32496, Note_on_c, 0, 67, 72
2, 32544, Note_on_c, 0, 67, 0
2, 32544, Note_on_c, 0, 70, 72
2, 32592, Note_on_c, 0, 70, 0
2, 32592, Note_on_c, 0, 69, 72
2, 32640, Note_on_c, 0, 69, 0
2, 32640, Note_on_c, 0, 72, 72
2, 32688, Note_on_c, 0, 72, 0
2, 32688, Note_on_c, 0, 71, 72
2, 32736, Note_on_c, 0, 71, 0
2, 32736, Note_on_c, 0, 74, 72
2, 32784, Note_on_c, 0, 74, 0
2, 32784, Note_on_c, 0, 73, 72
2, 32832, Note_on_c, 0, 73, 0
2, 32832, Note_on_c, 0, 76, 72
2, 32880, Note_on_c, 0, 76, 0
2, 32880, Note_on_c, 0, 74, 72
2, 32928, Note_on_c, 0, 74, 0
2, 32928, Note_on_c, 0, 77, 72
2, 32976, Note_on_c, 0, 77, 0
2, 32976, Note_on_c, 0, 76, 72
2, 33024, Note_on_c, 0, 76, 0
2, 33024, Program_c, 0, 0
2, 33024, Note_on_c, 0, 79, 72
2, 33072, Note_on_c, 0, 79, 0
2, 33072, Note_on_c, 0, 74, 72
2, 33120, Note_on_c, 0, 74, 0
2, 33120, Note_on_c, 0, 73, 72
2, 33168, Note_on_c, 0, 73, 0
2, 33168, Note_on_c, 0, 76, 72
2, 33216, Note_on_c, 0, 76, 0
2, 33216, Program_c, 0, 13
2, 33216, Note_on_c, 0, 69, 72
2, 33312, Note_on_c, 0, 69, 0
2, 33312, Note_on_c, 0, 79, 72
2, 33408, Note_on_c, 0, 79, 0
2, 33408, Note_on_c, 0, 77, 72
2, 33504, Note_on_c, 0, 77, 0
2, 33504, Note_on_c, 0, 81, 72
2, 33600, Note_on_c, 0, 81, 0
2, 33600, Program_c, 0, 0
2, 33600, Note_on_c, 0, 74, 88
2, 33648, Note_on_c, 0, 74, 0
2, 33648, Note_on_c, 0, 76, 88
2, 33696, Note_on_c, 0, 76, 0
2, 33696, Note_on_c, 0, 77, 88
2, 33744, Note_on_c, 0, 77, 0
2, 33744, Note_on_c, 0, 77, 88
2, 33792, Note_on_c, 0, 77, 0
2, 33792, Note_on_c, 0, 77, 88
2, 33840, Note_on_c, 0, 77, 0
2, 33840, Note_on_c, 0, 75, 88
2, 33888, Note_on_c, 0, 75, 0
2, 33888, Note_on_c, 0, 76, 88
2, 33936, Note_on_c, 0, 76, 0
2, 33936, Note_on_c, 0, 76, 88
2, 33984, Note_on_c, 0, 76, 0
2, 33984, Note_on_c, 0, 76, 88
2, 34032, Note_on_c, 0, 76, 0
2, 34032, Note_on_c, 0, 73, 88
2, 34080, Note_on_c, 0, 73, 0
2, 34080, Note_on_c, 0, 74, 88
2, 34128, Note_on_c, 0, 74, 0
2, 34128, Note_on_c, 0, 74, 88
2, 34176, Note_on_c, 0, 74, 0
2, 34176, Note_on_c, 0, 74, 88
2, 34224, Note_on_c, 0, 74, 0
2, 34224, Note_on_c, 0, 71, 88
2, 34272, Note_on_c, 0, 71, 0
2, 34272, Note_on_c, 0, 72, 88
2, 34320, Note_on_c, 0, 72, 0
2, 34320, Note_on_c, 0, 72, 88
2, 34368, Note_on_c, 0, 72, 0
2, 34368, Note_on_c, 0, 72, 88
2, 34416, Note_on_c, 0, 72, 0
2, 34416, Note_on_c, 0, 69, 88
2, 34464, Note_on_c, 0, 69, 0
2, 34464, Note_on_c, 0, 70, 88
2, 34512, Note_on_c, 0, 70, 0
2, 34512, Note_on_c, 0, 70, 88
2, 34560, Note_on_c, 0, 70, 0
2, 34560, Note_on_c, 0, 70, 88
2, 34608, Note_on_c, 0, 70, 0
2, 34608, Note_on_c, 0, 67, 88
2, 34656, Note_on_c, 0, 67, 0
2, 34656, Note_on_c, 0, 73, 88
2, 34704, Note_on_c, 0, 73, 0
2, 34704, Note_on_c, 0, 73, 88
2, 34752, Note_on_c, 0, 73, 0
2, 34752, Note_on_c, 0, 73, 88
2, 34800, Note_on_c, 0, 73, 0
2, 34800, Note_on_c, 0, 67, 88
2, 34848, Note_on_c, 0, 67, 0
2, 34848, Note_on_c, 0, 76, 88
2, 34896, Note_on_c, 0, 76, 0
2, 34896, Note_on_c, 0, 76, 88
2, 34944, Note_on_c, 0, 76, 0
2, 34944, Note_on_c, 0, 76, 88
2, 34992, Note_on_c, 0, 76, 0
2, 34992, Note_on_c, 0, 73, 88
2, 35040, Note_on_c, 0, 73, 0
2, 35040, Program_c, 0, 13
2, 35040, Note_on_c, 0, 74, 88
2, 35136, Note_on_c, 0, 74, 0
2, 35136, Program_c, 0, 0
2, 35160, Note_on_c, 0, 72, 88
2, 35184, Note_on_c, 0, 72, 0
2, 35184, Note_on_c, 0, 70, 88
2, 35208, Note_on_c, 0, 70, 0
2, 35208, Note_on_c, 0, 69, 88
2, 35232, Note_on_c, 0, 69, 0
2, 35232, Note_on_c, 0, 67, 88
2, 35256, Note_on_c, 0, 67, 0
2, 35256, Note_on_c, 0, 77, 88
2, 35280, Note_on_c, 0, 77, 0
2, 35280, Note_on_c, 0, 76, 88
2, 35304, Note_on_c, 0, 76, 0
2, 35304, Note_on_c, 0, 74, 88
2, 35328, Note_on_c, 0, 74, 0
2, 35328, Program_c, 0, 13
2, 35328, Note_on_c, 0, 73, 88
2, 35520, Note_on_c, 0, 73, 0
2, 35568, Program_c, 0, 0
2, 35568, Note_on_c, 0, 69, 72
2, 35616, Note_on_c, 0, 69, 0
2, 35616, Note_on_c, 0, 71, 72
2, 35664, Note_on_c, 0, 71, 0
2, 35664, Note_on_c, 0, 73, 72
2, 35712, Note_on_c, 0, 73, 0
2, 35712, Program_c, 0, 13
2, 35712, Note_on_c, 0, 74, 72
2, 35760, Note_on_c, 0, 74, 0
2, 35760, Note_on_c, 0, 73, 72
2, 35808, Note_on_c, 0, 73, 0
2, 35808, Note_on_c, 0, 76, 72
2, 35856, Note_on_c, 0, 76, 0
2, 35856, Note_on_c, 0, 74, 72
2, 35904, Note_on_c, 0, 74, 0
2, 35904, Note_on_c, 0, 77, 72
2, 36000, Note_on_c, 0, 77, 0
2, 36000, Note_on_c, 0, 70, 72
2, 36096, Note_on_c, 0, 70, 0
2, 36096, Note_on_c, 0, 70, 72
2, 36144, Note_on_c, 0, 70, 0
2, 36144, Program_c, 0, 0
2, 36144, Note_on_c, 0, 69, 72
2, 36192, Note_on_c, 0, 69, 0
2, 36192, Note_on_c, 0, 74, 72
2, 36240, Note_on_c, 0, 74, 0
2, 36240, Note_on_c, 0, 72, 72
2, 36288, Note_on_c, 0, 72, 0
2, 36288, Note_on_c, 0, 75, 72
2, 36336, Note_on_c, 0, 75, 0
2, 36336, Note_on_c, 0, 74, 72
2, 36384, Note_on_c, 0, 74, 0
2, 36384, Note_on_c, 0, 66, 72
2, 36432, Note_on_c, 0, 66, 0
2, 36432, Note_on_c, 0, 72, 72
2, 36480, Note_on_c, 0, 72, 0
2, 36480, Note_on_c, 0, 70, 72
2, 36528, Note_on_c, 0, 70, 0
2, 36528, Note_on_c, 0, 74, 72
2, 36576, Note_on_c, 0, 74, 0
2, 36576, Note_on_c, 0, 75, 72
2, 36624, Note_on_c, 0, 75, 0
2, 36624, Note_on_c, 0, 79, 72
2, 36672, Note_on_c, 0, 79, 0
2, 36672, Note_on_c, 0, 77, 72
2, 36720, Note_on_c, 0, 77, 0
2, 36720, Note_on_c, 0, 74, 72
2, 36768, Note_on_c, 0, 74, 0
2, 36768, Note_on_c, 0, 76, 72
2, 36816, Note_on_c, 0, 76, 0
2, 36816, Note_on_c, 0, 73, 72
2, 36864, Note_on_c, 0, 73, 0
2, 36864, Note_on_c, 0, 73, 72
2, 36912, Note_on_c, 0, 73, 0
2, 36912, Note_on_c, 0, 74, 72
2, 36960, Note_on_c, 0, 74, 0
2, 36960, Program_c, 0, 13
2, 36960, Note_on_c, 0, 62, 72
2, 37056, Note_on_c, 0, 62, 0
2, 37056, Note_on_c, 0, 74, 72
2, 37152, Note_on_c, 0, 74, 0
2, 37152, Note_on_c, 0, 76, 72
2, 37248, Note_on_c, 0, 76, 0
2, 37248, Note_on_c, 0, 73, 72
2, 37344, Note_on_c, 0, 73, 0
2, 37344, Note_on_c, 0, 74, 72
2, 37440, Note_on_c, 0, 74, 0
2, 37440, Note_on_c, 0, 79, 72
2, 37632, Note_on_c, 0, 79, 0
2, 37632, Note_on_c, 0, 79, 72
2, 37680, Note_on_c, 0, 79, 0
2, 37680, Program_c, 0, 0
2, 37680, Note_on_c, 0, 76, 72
2, 37728, Note_on_c, 0, 76, 0
2, 37728, Note_on_c, 0, 77, 72
2, 37776, Note_on_c, 0, 77, 0
2, 37776, Note_on_c, 0, 77, 72
2, 37824, Note_on_c, 0, 77, 0
2, 37824, Program_c, 0, 13
2, 37824, Note_on_c, 0, 77, 72
2, 38016, Note_on_c, 0, 77, 0
2, 38016, Note_on_c, 0, 77, 72
2, 38064, Note_on_c, 0, 77, 0
2, 38064, Program_c, 0, 0
2, 38064, Note_on_c, 0, 76, 72
2, 38112, Note_on_c, 0, 76, 0
2, 38112, Note_on_c, 0, 81, 72
2, 38160, Note_on_c, 0, 81, 0
2, 38160, Note_on_c, 0, 81, 72
2, 38208, Note_on_c, 0, 81, 0
2, 38208, Program_c, 0, 13
2, 38208, Note_on_c, 0, 81, 72
2, 38304, Note_on_c, 0, 81, 0
2, 38304, Note_on_c, 0, 80, 72
2, 38400, Note_on_c, 0, 80, 0
2, 38400, Note_on_c, 0, 81, 72
2, 38496, Note_on_c, 0, 81, 0
2, 38496, Note_on_c, 0, 74, 72
2, 38544, Note_on_c, 0, 74, 0
2, 38544, Note_on_c, 0, 71, 72
2, 38592, Note_on_c, 0, 71, 0
2, 38592, Note_on_c, 0, 72, 72
2, 38688, Note_on_c, 0, 72, 0
2, 38688, Note_on_c, 0, 71, 72
2, 38784, Note_on_c, 0, 71, 0
2, 38784, Note_on_c, 0, 69, 72
2, 38880, Note_on_c, 0, 69, 0
2, 39264, Program_c, 0, 0
2, 39264, Note_on_c, 0, 84, 72
2, 39312, Note_on_c, 0, 84, 0
2, 39312, Note_on_c, 0, 81, 72
2, 39360, Note_on_c, 0, 81, 0
2, 39360, Note_on_c, 0, 83, 72
2, 39408, Note_on_c, 0, 83, 0
2, 39408, Note_on_c, 0, 80, 72
2, 39456, Note_on_c, 0, 80, 0
2, 39456, Note_on_c, 0, 81, 72
2, 39504, Note_on_c, 0, 81, 0
2, 39504, Note_on_c, 0, 78, 72
2, 39552, Note_on_c, 0, 78, 0
2, 39552, Note_on_c, 0, 80, 72
2, 39600, Note_on_c, 0, 80, 0
2, 39600, Note_on_c, 0, 76, 72
2, 39648, Note_on_c, 0, 76, 0
2, 40032, Program_c, 0, 13
2, 40032, Note_on_c, 0, 76, 88
2, 40128, Note_on_c, 0, 76, 0
2, 40128, Note_on_c, 0, 69, 88
2, 40224, Note_on_c, 0, 69, 0
2, 40224, Note_on_c, 0, 71, 88
2, 40320, Note_on_c, 0, 71, 0
2, 40416, Note_on_c, 0, 72, 88
2, 40512, Note_on_c, 0, 72, 0
2, 40512, Note_on_c, 0, 74, 88
2, 40608, Note_on_c, 0, 74, 0
2, 40608, Note_on_c, 0, 76, 88
2, 40704, Note_on_c, 0, 76, 0
2, 40800, Note_on_c, 0, 77, 88
2, 40896, Note_on_c, 0, 77, 0
2, 40896, Note_on_c, 0, 76, 88
2, 40992, Note_on_c, 0, 76, 0
2, 40992, Note_on_c, 0, 74, 88
2, 41088, Note_on_c, 0, 74, 0
2, 41184, Note_on_c, 0, 72, 88
2, 41232, Note_on_c, 0, 72, 0
2, 41232, Note_on_c, 0, 71, 88
2, 41280, Note_on_c, 0, 71, 0
2, 41280, Note_on_c, 0, 72, 88
2, 41376, Note_on_c, 0, 72, 0
2, 41376, Note_on_c, 0, 74, 88
2, 41472, Note_on_c, 0, 74, 0
2, 41472, Note_on_c, 0, 76, 88
2, 41856, Note_on_c, 0, 76, 0
2, 41856, Note_on_c, 0, 76, 88
2, 41904, Note_on_c, 0, 76, 0
2, 41904, Program_c, 0, 0
2, 41904, Note_on_c, 0, 69, 72
2, 41952, Note_on_c, 0, 69, 0
2, 41952, Note_on_c, 0, 72, 72
2, 42000, Note_on_c, 0, 72, 0
2, 42000, Note_on_c, 0, 75, 72
2, 42048, Note_on_c, 0, 75, 0
2, 42048, Note_on_c, 0, 74, 72
2, 42096, Note_on_c, 0, 74, 0
2, 42096, Note_on_c, 0, 70, 72
2, 42144, Note_on_c, 0, 70, 0
2, 42144, Note_on_c, 0, 72, 72
2, 42192, Note_on_c, 0, 72, 0
2, 42192, Note_on_c, 0, 69, 72
2, 42240, Note_on_c, 0, 69, 0
2, 42240, Program_c, 0, 13
2, 42240, Note_on_c, 0, 70, 72
2, 42336, Note_on_c, 0, 70, 0
2, 42384, Note_on_c, 0, 79, 72
2, 42432, Note_on_c, 0, 79, 0
2, 42432, Note_on_c, 0, 78, 72
2, 42528, Note_on_c, 0, 78, 0
2, 42528, Note_on_c, 0, 77, 72
2, 42624, Note_on_c, 0, 77, 0
2, 42672, Note_on_c, 0, 75, 72
2, 42720, Note_on_c, 0, 75, 0
2, 42720, Note_on_c, 0, 74, 72
2, 42768, Note_on_c, 0, 74, 0
2, 42768, Note_on_c, 0, 72, 72
2, 42816, Note_on_c, 0, 72, 0
2, 42816, Note_on_c, 0, 74, 72
2, 42912, Note_on_c, 0, 74, 0
2, 42912, Note_on_c, 0, 75, 72
2, 43008, Note_on_c, 0, 75, 0
2, 43008, Note_on_c, 0, 75, 72
2, 43056, Note_on_c, 0, 75, 0
2, 43056, Program_c, 0, 0
2, 43056, Note_on_c, 0, 74, 72
2, 43104, Note_on_c, 0, 74, 0
2, 43104, Note_on_c, 0, 73, 72
2, 43152, Note_on_c, 0, 73, 0
2, 43152, Note_on_c, 0, 74, 72
2, 43200, Note_on_c, 0, 74, 0
2, 43200, Note_on_c, 0, 76, 72
2, 43248, Note_on_c, 0, 76, 0
2, 43248, Note_on_c, 0, 78, 72
2, 43296, Note_on_c, 0, 78, 0
2, 43296, Note_on_c, 0, 79, 88
2, 43344, Note_on_c, 0, 79, 0
2, 43344, Note_on_c, 0, 79, 88
2, 43392, Note_on_c, 0, 79, 0
2, 43392, Note_on_c, 0, 79, 88
2, 43440, Note_on_c, 0, 79, 0
2, 43440, Note_on_c, 0, 76, 88
2, 43488, Note_on_c, 0, 76, 0
2, 43488, Note_on_c, 0, 77, 88
2, 43536, Note_on_c, 0, 77, 0
2, 43536, Note_on_c, 0, 77, 88
2, 43584, Note_on_c, 0, 77, 0
2, 43584, Note_on_c, 0, 77, 88
2, 43632, Note_on_c, 0, 77, 0
2, 43632, Note_on_c, 0, 74, 88
2, 43680, Note_on_c, 0, 74, 0
2, 43680, Note_on_c, 0, 75, 88
2, 43728, Note_on_c, 0, 75, 0
2, 43728, Note_on_c, 0, 75, 88
2, 43776, Note_on_c, 0, 75, 0
2, 43776, Note_on_c, 0, 75, 88
2, 43824, Note_on_c, 0, 75, 0
2, 43824, Note_on_c, 0, 73, 88
2, 43872, Note_on_c, 0, 73, 0
2, 43872, Note_on_c, 0, 74, 88
2, 43920, Note_on_c, 0, 74, 0
2, 43920, Note_on_c, 0, 74, 88
2, 43968, Note_on_c, 0, 74, 0
2, 43968, Note_on_c, 0, 74, 88
2, 44016, Note_on_c, 0, 74, 0
2, 44016, Note_on_c, 0, 71, 88
2, 44064, Note_on_c, 0, 71, 0
2, 44064, Note_on_c, 0, 72, 88
2, 44112, Note_on_c, 0, 72, 0
2, 44112, Note_on_c, 0, 72, 88
2, 44160, Note_on_c, 0, 72, 0
2, 44160, Note_on_c, 0, 72, 88
2, 44208, Note_on_c, 0, 72, 0
2, 44208, Note_on_c, 0, 69, 88
2, 44256, Note_on_c, 0, 69, 0
2, 44256, Note_on_c, 0, 70, 88
2, 44304, Note_on_c, 0, 70, 0
2, 44304, Note_on_c, 0, 70, 88
2, 44352, Note_on_c, 0, 70, 0
2, 44352, Note_on_c, 0, 70, 88
2, 44400, Note_on_c, 0, 70, 0
2, 44400, Note_on_c, 0, 67, 88
2, 44448, Note_on_c, 0, 67, 0
2, 44448, Note_on_c, 0, 68, 88
2, 44496, Note_on_c, 0, 68, 0
2, 44496, Note_on_c, 0, 68, 88
2, 44544, Note_on_c, 0, 68, 0
2, 44544, Note_on_c, 0, 68, 88
2, 44592, Note_on_c, 0, 68, 0
2, 44592, Note_on_c, 0, 66, 88
2, 44640, Note_on_c, 0, 66, 0
2, 44640, Program_c, 0, 13
2, 44640, Note_on_c, 0, 67, 88
2, 44832, Note_on_c, 0, 67, 0
2, 44832, Note_on_c, 0, 66, 88
2, 44928, Note_on_c, 0, 66, 0
2, 44928, Note_on_c, 0, 67, 88
2, 45120, Note_on_c, 0, 67, 0
2, 45120, Program_c, 0, 0
2, 45120, Note_on_c, 0, 66, 72
2, 45168, Note_on_c, 0, 66, 0
2, 45168, Note_on_c, 0, 67, 72
2, 45216, Note_on_c, 0, 67, 0
2, 45216, Program_c, 0, 13
2, 45216, Note_on_c, 0, 69, 72
2, 45312, Note_on_c, 0, 69, 0
2, 45312, Note_on_c, 0, 69, 72
2, 45408, Note_on_c, 0, 69, 0
2, 45408, Program_c, 0, 0
2, 45408, Note_on_c, 0, 67, 72
2, 45456, Note_on_c, 0, 67, 0
2, 45456, Note_on_c, 0, 67, 72
2, 45504, Note_on_c, 0, 67, 0
2, 45504, Note_on_c, 0, 67, 72
2, 45552, Note_on_c, 0, 67, 0
2, 45552, Note_on_c, 0, 64, 72
2, 45600, Note_on_c, 0, 64, 0
2, 45600, Note_on_c, 0, 65, 72
2, 45648, Note_on_c, 0, 65, 0
2, 45648, Note_on_c, 0, 65, 72
2, 45696, Note_on_c, 0, 65, 0
2, 45696, Note_on_c, 0, 63, 72
2, 45792, Note_on_c, 0, 63, 0
2, 45792, Note_on_c, 0, 69, 72
2, 45840, Note_on_c, 0, 69, 0
2, 45840, Note_on_c, 0, 69, 72
2, 45888, Note_on_c, 0, 69, 0
2, 45888, Note_on_c, 0, 69, 72
2, 45936, Note_on_c, 0, 69, 0
2, 45936, Note_on_c, 0, 67, 72
2, 45984, Note_on_c, 0, 67, 0
2, 45984, Note_on_c, 0, 70, 72
2, 46032, Note_on_c, 0, 70, 0
2, 46032, Note_on_c, 0, 70, 72
2, 46080, Note_on_c, 0, 70, 0
2, 46080, Note_on_c, 0, 69, 72
2, 46176, Note_on_c, 0, 69, 0
2, 46176, Note_on_c, 0, 74, 72
2, 46224, Note_on_c, 0, 74, 0
2, 46224, Note_on_c, 0, 74, 72
2, 46272, Note_on_c, 0, 74, 0
2, 46272, Note_on_c, 0, 74, 72
2, 46320, Note_on_c, 0, 74, 0
2, 46320, Note_on_c, 0, 71, 72
2, 46368, Note_on_c, 0, 71, 0
2, 46368, Note_on_c, 0, 72, 72
2, 46416, Note_on_c, 0, 72, 0
2, 46416, Note_on_c, 0, 72, 72
2, 46464, Note_on_c, 0, 72, 0
2, 46464, Program_c, 0, 13
2, 46464, Note_on_c, 0, 71, 72
2, 46560, Note_on_c, 0, 71, 0
2, 46560, Note_on_c, 0, 76, 72
2, 46656, Note_on_c, 0, 76, 0
2, 46656, Note_on_c, 0, 78, 72
2, 46752, Note_on_c, 0, 78, 0
2, 46752, Note_on_c, 0, 80, 72
2, 46848, Note_on_c, 0, 80, 0
2, 46848, Note_on_c, 0, 81, 72
2, 46944, Note_on_c, 0, 81, 0
2, 46944, Note_on_c, 0, 83, 72
2, 47040, Note_on_c, 0, 83, 0
2, 47040, Note_on_c, 0, 76, 72
2, 47136, Note_on_c, 0, 76, 0
2, 47136, Note_on_c, 0, 80, 72
2, 47232, Note_on_c, 0, 80, 0
2, 47232, Note_on_c, 0, 81, 72
2, 47424, Note_on_c, 0, 81, 0
2, 47712, Program_c, 0, 0
2, 47712, Note_on_c, 0, 81, 88
2, 47760, Note_on_c, 0, 81, 0
2, 47760, Note_on_c, 0, 81, 88
2, 47808, Note_on_c, 0, 81, 0
2, 47808, Note_on_c, 0, 81, 88
2, 47856, Note_on_c, 0, 81, 0
2, 47856, Note_on_c, 0, 77, 88
2, 47904, Note_on_c, 0, 77, 0
2, 47904, Note_on_c, 0, 79, 88
2, 47952, Note_on_c, 0, 79, 0
2, 47952, Note_on_c, 0, 79, 88
2, 48000, Note_on_c, 0, 79, 0
2, 48000, Note_on_c, 0, 79, 88
2, 48048, Note_on_c, 0, 79, 0
2, 48048, Note_on_c, 0, 76, 88
2, 48096, Note_on_c, 0, 76, 0
2, 48096, Note_on_c, 0, 77, 88
2, 48144, Note_on_c, 0, 77, 0
2, 48144, Note_on_c, 0, 77, 88
2, 48192, Note_on_c, 0, 77, 0
2, 48192, Note_on_c, 0, 77, 88
2, 48240, Note_on_c, 0, 77, 0
2, 48240, Note_on_c, 0, 76, 88
2, 48288, Note_on_c, 0, 76, 0
2, 48288, Note_on_c, 0, 74, 88
2, 48336, Note_on_c, 0, 74, 0
2, 48336, Note_on_c, 0, 73, 88
2, 48384, Note_on_c, 0, 73, 0
2, 48384, Note_on_c, 0, 74, 88
2, 48432, Note_on_c, 0, 74, 0
2, 48432, Note_on_c, 0, 77, 72
2, 48480, Note_on_c, 0, 77, 0
2, 48480, Note_on_c, 0, 76, 72
2, 48528, Note_on_c, 0, 76, 0
2, 48528, Note_on_c, 0, 74, 72
2, 48576, Note_on_c, 0, 74, 0
2, 48576, Note_on_c, 0, 73, 72
2, 48624, Note_on_c, 0, 73, 0
2, 48624, Note_on_c, 0, 74, 72
2, 48672, Note_on_c, 0, 74, 0
2, 48672, Note_on_c, 0, 71, 72
2, 48720, Note_on_c, 0, 71, 0
2, 48720, Note_on_c, 0, 73, 72
2, 48768, Note_on_c, 0, 73, 0
2, 48768, Note_on_c, 0, 74, 72
2, 48816, Note_on_c, 0, 74, 0
2, 48816, Note_on_c, 0, 69, 72
2, 48864, Note_on_c, 0, 69, 0
2, 48864, Note_on_c, 0, 70, 72
2, 48912, Note_on_c, 0, 70, 0
2, 48912, Note_on_c, 0, 67, 72
2, 48960, Note_on_c, 0, 67, 0
2, 48960, Program_c, 0, 13
2, 48960, Note_on_c, 0, 64, 72
2, 49056, Note_on_c, 0, 64, 0
2, 49056, Note_on_c, 0, 67, 72
2, 49152, Note_on_c, 0, 67, 0
2, 49152, Note_on_c, 0, 67, 72
2, 49200, Note_on_c, 0, 67, 0
2, 49200, Program_c, 0, 0
2, 49200, Note_on_c, 0, 67, 72
2, 49248, Note_on_c, 0, 67, 0
2, 49248, Note_on_c, 0, 65, 72
2, 49296, Note_on_c, 0, 65, 0
2, 49296, Note_on_c, 0, 64, 72
2, 49344, Note_on_c, 0, 64, 0
2, 49344, Note_on_c, 0, 66, 72
2, 49392, Note_on_c, 0, 66, 0
2, 49392, Note_on_c, 0, 74, 72
2, 49440, Note_on_c, 0, 74, 0
2, 49440, Note_on_c, 0, 68, 72
2, 49488, Note_on_c, 0, 68, 0
2, 49488, Program_c, 0, 13
2, 49488, Note_on_c, 0, 71, 72
2, 49536, Note_on_c, 0, 71, 0
2, 49536, Note_on_c, 0, 71, 72
2, 49584, Note_on_c, 0, 71, 0
2, 49584, Program_c, 0, 0
2, 49584, Note_on_c, 0, 71, 72
2, 49632, Note_on_c, 0, 71, 0
2, 49632, Note_on_c, 0, 69, 72
2, 49680, Note_on_c, 0, 69, 0
2, 49680, Note_on_c, 0, 68, 72
2, 49728, Note_on_c, 0, 68, 0
2, 49728, Note_on_c, 0, 69, 72
2, 49776, Note_on_c, 0, 69, 0
2, 49776, Note_on_c, 0, 77, 72
2, 49824, Note_on_c, 0, 77, 0
2, 49824, Note_on_c, 0, 71, 72
2, 49872, Note_on_c, 0, 71, 0
2, 49872, Program_c, 0, 13
2, 49872, Note_on_c, 0, 74, 72
2, 49920, Note_on_c, 0, 74, 0
2, 49920, Note_on_c, 0, 74, 72
2, 49968, Note_on_c, 0, 74, 0
2, 49968, Program_c, 0, 0
2, 49968, Note_on_c, 0, 74, 72
2, 50016, Note_on_c, 0, 74, 0
2, 50016, Note_on_c, 0, 72, 72
2, 50064, Note_on_c, 0, 72, 0
2, 50064, Note_on_c, 0, 71, 72
2, 50112, Note_on_c, 0, 71, 0
2, 50112, Note_on_c, 0, 73, 72
2, 50160, Note_on_c, 0, 73, 0
2, 50160, Note_on_c, 0, 81, 72
2, 50208, Note_on_c, 0, 81, 0
2, 50208, Note_on_c, 0, 74, 72
2, 50256, Note_on_c, 0, 74, 0
2, 50256, Note_on_c, 0, 77, 72
2, 50304, Note_on_c, 0, 77, 0
2, 50304, Program_c, 0, 13
2, 50304, Note_on_c, 0, 71, 72
2, 50400, Note_on_c, 0, 71, 0
2, 50400, Note_on_c, 0, 76, 72
2, 50496, Note_on_c, 0, 76, 0
2, 50496, Note_on_c, 0, 81, 72
2, 50592, Note_on_c, 0, 81, 0
2, 50592, Note_on_c, 0, 69, 72
2, 50688, Note_on_c, 0, 69, 0
2, 50688, Note_on_c, 0, 67, 72
2, 50784, Note_on_c, 0, 67, 0
2, 50784, Note_on_c, 0, 72, 72
2, 50880, Note_on_c, 0, 72, 0
2, 50880, Note_on_c, 0, 77, 72
2, 50976, Note_on_c, 0, 77, 0
2, 50976, Note_on_c, 0, 65, 72
2, 51072, Note_on_c, 0, 65, 0
2, 51072, Program_c, 0, 0
2, 51072, Note_on_c, 0, 64, 72
2, 51120, Note_on_c, 0, 64, 0
2, 51120, Note_on_c, 0, 76, 72
2, 51168, Note_on_c, 0, 76, 0
2, 51168, Note_on_c, 0, 74, 72
2, 51216, Note_on_c, 0, 74, 0
2, 51216, Note_on_c, 0, 72, 72
2, 51264, Note_on_c, 0, 72, 0
2, 51264, Note_on_c, 0, 71, 72
2, 51312, Note_on_c, 0, 71, 0
2, 51312, Note_on_c, 0, 72, 72
2, 51360, Note_on_c, 0, 72, 0
2, 51360, Note_on_c, 0, 69, 72
2, 51408, Note_on_c, 0, 69, 0
2, 51408, Note_on_c, 0, 71, 72
2, 51456, Note_on_c, 0, 71, 0
2, 51456, Note_on_c, 0, 72, 72
2, 51504, Note_on_c, 0, 72, 0
2, 51504, Note_on_c, 0, 76, 72
2, 51552, Note_on_c, 0, 76, 0
2, 51552, Note_on_c, 0, 74, 72
2, 51600, Note_on_c, 0, 74, 0
2, 51600, Note_on_c, 0, 77, 72
2, 51648, Note_on_c, 0, 77, 0
2, 51648, Program_c, 0, 13
2, 51648, Note_on_c, 0, 76, 72
2, 51744, Note_on_c, 0, 76, 0
2, 51744, Note_on_c, 0, 74, 72
2, 51840, Note_on_c, 0, 74, 0
2, 51840, Note_on_c, 0, 74, 72
2, 51936, Note_on_c, 0, 74, 0
2, 51936, Note_on_c, 0, 72, 72
2, 52032, Note_on_c, 0, 72, 0
2, 52032, Note_on_c, 0, 71, 72
2, 52128, Note_on_c, 0, 71, 0
2, 52128, Note_on_c, 0, 73, 72
2, 52224, Note_on_c, 0, 73, 0
2, 52224, Program_c, 0, 0
2, 52224, Note_on_c, 0, 74, 72
2, 52272, Note_on_c, 0, 74, 0
2, 52272, Note_on_c, 0, 69, 72
2, 52320, Note_on_c, 0, 69, 0
2, 52320, Note_on_c, 0, 67, 72
2, 52368, Note_on_c, 0, 67, 0
2, 52368, Note_on_c, 0, 65, 72
2, 52416, Note_on_c, 0, 65, 0
2, 52416, Note_on_c, 0, 64, 72
2, 52464, Note_on_c, 0, 64, 0
2, 52464, Note_on_c, 0, 62, 72
2, 52512, Note_on_c, 0, 62, 0
2, 52512, Note_on_c, 0, 64, 72
2, 52608, Note_on_c, 0, 64, 0
2, 52608, Note_on_c, 0, 62, 72
2, 52656, Note_on_c, 0, 62, 0
2, 52656, Note_on_c, 0, 64, 72
2, 52704, Note_on_c, 0, 64, 0
2, 52704, Note_on_c, 0, 65, 72
2, 52752, Note_on_c, 0, 65, 0
2, 52752, Note_on_c, 0, 67, 72
2, 52800, Note_on_c, 0, 67, 0
2, 52800, Note_on_c, 0, 69, 72
2, 52848, Note_on_c, 0, 69, 0
2, 52848, Note_on_c, 0, 67, 72
2, 52896, Note_on_c, 0, 67, 0
2, 52896, Note_on_c, 0, 70, 72
2, 52944, Note_on_c, 0, 70, 0
2, 52944, Note_on_c, 0, 69, 72
2, 52992, Note_on_c, 0, 69, 0
2, 52992, Program_c, 0, 13
2, 52992, Note_on_c, 0, 70, 72
2, 53184, Note_on_c, 0, 70, 0
2, 53184, Program_c, 0, 0
2, 53184, Note_on_c, 0, 72, 72
2, 53208, Note_on_c, 0, 72, 0
2, 53208, Note_on_c, 0, 71, 72
2, 53232, Note_on_c, 0, 71, 0
2, 53232, Note_on_c, 0, 72, 72
2, 53256, Note_on_c, 0, 72, 0
2, 53256, Note_on_c, 0, 71, 72
2, 53280, Note_on_c, 0, 71, 0
2, 53280, Note_on_c, 0, 72, 72
2, 53304, Note_on_c, 0, 72, 0
2, 53304, Note_on_c, 0, 71, 72
2, 53328, Note_on_c, 0, 71, 0
2, 53328, Note_on_c, 0, 69, 72
2, 53352, Note_on_c, 0, 69, 0
2, 53352, Note_on_c, 0, 71, 72
2, 53376, Note_on_c, 0, 71, 0
2, 53376, Program_c, 0, 13
2, 53376, Note_on_c, 0, 72, 72
2, 53568, Note_on_c, 0, 72, 0
2, 53808, Program_c, 0, 0
2, 53808, Note_on_c, 0, 77, 72
2, 53856, Note_on_c, 0, 77, 0
2, 53856, Note_on_c, 0, 76, 72
2, 53904, Note_on_c, 0, 76, 0
2, 53904, Note_on_c, 0, 74, 72
2, 53952, Note_on_c, 0, 74, 0
2, 53952, Note_on_c, 0, 72, 72
2, 54000, Note_on_c, 0, 72, 0
2, 54000, Note_on_c, 0, 74, 72
2, 54048, Note_on_c, 0, 74, 0
2, 54048, Note_on_c, 0, 70, 72
2, 54096, Note_on_c, 0, 70, 0
2, 54096, Note_on_c, 0, 72, 72
2, 54144, Note_on_c, 0, 72, 0
2, 54144, Note_on_c, 0, 69, 72
2, 54192, Note_on_c, 0, 69, 0
2, 54192, Note_on_c, 0, 72, 72
2, 54240, Note_on_c, 0, 72, 0
2, 54240, Note_on_c, 0, 70, 72
2, 54288, Note_on_c, 0, 70, 0
2, 54288, Note_on_c, 0, 69, 72
2, 54336, Note_on_c, 0, 69, 0
2, 54336, Note_on_c, 0, 67, 72
2, 54384, Note_on_c, 0, 67, 0
2, 54384, Note_on_c, 0, 69, 72
2, 54432, Note_on_c, 0, 69, 0
2, 54432, Note_on_c, 0, 65, 72
2, 54480, Note_on_c, 0, 65, 0
2, 54480, Note_on_c, 0, 67, 72
2, 54528, Note_on_c, 0, 67, 0
2, 54528, Program_c, 0, 13
2, 54528, Note_on_c, 0, 69, 72
2, 54720, Note_on_c, 0, 69, 0
2, 54720, Note_on_c, 0, 67, 72
2, 54912, Note_on_c, 0, 67, 0
2, 54912, Note_on_c, 0, 65, 72
2, 55104, Note_on_c, 0, 65, 0
2, 55104, Note_on_c, 0, 64, 72
2, 55296, Note_on_c, 0, 64, 0
2, 55296, Note_on_c, 0, 62, 72
2, 55488, Note_on_c, 0, 62, 0
2, 56256, Note_on_c, 0, 77, 88
2, 56448, Note_on_c, 0, 77, 0
2, 56448, Note_on_c, 0, 76, 88
2, 56544, Note_on_c, 0, 76, 0
2, 56544, Note_on_c, 0, 81, 88
2, 56640, Note_on_c, 0, 81, 0
2, 56640, Note_on_c, 0, 75, 88
2, 56736, Note_on_c, 0, 75, 0
2, 56736, Note_on_c, 0, 74, 88
2, 56832, Note_on_c, 0, 74, 0
2, 56832, Note_on_c, 0, 72, 88
2, 56928, Note_on_c, 0, 72, 0
2, 56928, Note_on_c, 0, 77, 88
2, 57024, Note_on_c, 0, 77, 0
2, 57024, Note_on_c, 0, 72, 88
2, 57048, Note_on_c, 0, 72, 0
2, 57048, Note_on_c, 0, 71, 88
2, 57072, Note_on_c, 0, 71, 0
2, 57072, Note_on_c, 0, 72, 88
2, 57096, Note_on_c, 0, 72, 0
2, 57096, Note_on_c, 0, 71, 88
2, 57120, Note_on_c, 0, 71, 0
2, 57120, Note_on_c, 0, 72, 88
2, 57144, Note_on_c, 0, 72, 0
2, 57144, Note_on_c, 0, 71, 88
2, 57168, Note_on_c, 0, 71, 0
2, 57168, Note_on_c, 0, 69, 88
2, 57192, Note_on_c, 0, 69, 0
2, 57192, Note_on_c, 0, 71, 88
2, 57216, Note_on_c, 0, 71, 0
2, 57216, Note_on_c, 0, 69, 88
2, 57312, Note_on_c, 0, 69, 0
2, 57312, Note_on_c, 0, 70, 88
2, 57408, Note_on_c, 0, 70, 0
2, 57408, Note_on_c, 0, 72, 88
2, 57456, Note_on_c, 0, 72, 0
2, 57456, Note_on_c, 0, 70, 88
2, 57504, Note_on_c, 0, 70, 0
2, 57504, Note_on_c, 0, 72, 88
2, 57600, Note_on_c, 0, 72, 0
2, 57600, Note_on_c, 0, 65, 88
2, 57696, Note_on_c, 0, 65, 0
2, 57696, Note_on_c, 0, 77, 72
2, 57840, Note_on_c, 0, 77, 0
2, 57840, Note_on_c, 0, 76, 72
2, 57888, Note_on_c, 0, 76, 0
2, 57888, Note_on_c, 0, 74, 72
2, 57936, Note_on_c, 0, 74, 0
2, 57936, Note_on_c, 0, 77, 72
2, 57984, Note_on_c, 0, 77, 0
2, 57984, Note_on_c, 0, 76, 72
2, 58080, Note_on_c, 0, 76, 0
2, 58080, Note_on_c, 0, 81, 72
2, 58128, Note_on_c, 0, 81, 0
2, 58128, Note_on_c, 0, 80, 72
2, 58176, Note_on_c, 0, 80, 0
2, 58176, Note_on_c, 0, 81, 72
2, 58272, Note_on_c, 0, 81, 0
2, 58272, Note_on_c, 0, 75, 72
2, 58368, Note_on_c, 0, 75, 0
2, 58368, Note_on_c, 0, 76, 72
2, 58464, Note_on_c, 0, 76, 0
2, 58464, Note_on_c, 0, 79, 72
2, 58560, Note_on_c, 0, 79, 0
2, 58560, Note_on_c, 0, 73, 72
2, 58656, Note_on_c, 0, 73, 0
2, 58656, Note_on_c, 0, 74, 72
2, 58752, Note_on_c, 0, 74, 0
2, 58848, Note_on_c, 0, 76, 88
2, 58944, Note_on_c, 0, 76, 0
2, 58944, Note_on_c, 0, 77, 88
2, 59040, Note_on_c, 0, 77, 0
2, 59040, Note_on_c, 0, 79, 88
2, 59136, Note_on_c, 0, 79, 0
2, 59232, Note_on_c, 0, 81, 88
2, 59328, Note_on_c, 0, 81, 0
2, 59328, Note_on_c, 0, 79, 88
2, 59424, Note_on_c, 0, 79, 0
2, 59424, Note_on_c, 0, 77, 88
2, 59520, Note_on_c, 0, 77, 0
2, 59616, Note_on_c, 0, 76, 88
2, 59664, Note_on_c, 0, 76, 0
2, 59664, Note_on_c, 0, 74, 88
2, 59712, Note_on_c, 0, 74, 0
2, 59712, Note_on_c, 0, 76, 88
2, 59808, Note_on_c, 0, 76, 0
2, 59808, Note_on_c, 0, 78, 88
2, 59904, Note_on_c, 0, 78, 0
2, 59904, Note_on_c, 0, 79, 88
2, 59952, Note_on_c, 0, 79, 0
2, 59952, Note_on_c, 0, 74, 72
2, 60000, Note_on_c, 0, 74, 0
2, 60000, Note_on_c, 0, 76, 72
2, 60048, Note_on_c, 0, 76, 0
2, 60048, Note_on_c, 0, 78, 72
2, 60096, Note_on_c, 0, 78, 0
2, 60096, Note_on_c, 0, 79, 72
2, 60144, Note_on_c, 0, 79, 0
2, 60144, Note_on_c, 0, 78, 72
2, 60192, Note_on_c, 0, 78, 0
2, 60192, Note_on_c, 0, 81, 72
2, 60240, Note_on_c, 0, 81, 0
2, 60240, Note_on_c, 0, 79, 72
2, 60288, Note_on_c, 0, 79, 0
2, 60288, Note_on_c, 0, 82, 72
2, 60336, Note_on_c, 0, 82, 0
2, 60336, Note_on_c, 0, 81, 72
2, 60384, Note_on_c, 0, 81, 0
2, 60384, Note_on_c, 0, 79, 72
2, 60432, Note_on_c, 0, 79, 0
2, 60432, Note_on_c, 0, 77, 72
2, 60480, Note_on_c, 0, 77, 0
2, 60480, Note_on_c, 0, 75, 72
2, 60528, Note_on_c, 0, 75, 0
2, 60528, Note_on_c, 0, 74, 88
2, 60576, Note_on_c, 0, 74, 0
2, 60576, Note_on_c, 0, 75, 88
2, 60624, Note_on_c, 0, 75, 0
2, 60624, Note_on_c, 0, 75, 88
2, 60672, Note_on_c, 0, 75, 0
2, 60672, Note_on_c, 0, 75, 88
2, 60720, Note_on_c, 0, 75, 0
2, 60720, Note_on_c, 0, 73, 88
2, 60768, Note_on_c, 0, 73, 0
2, 60768, Note_on_c, 0, 74, 88
2, 60816, Note_on_c, 0, 74, 0
2, 60816, Note_on_c, 0, 74, 88
2, 60864, Note_on_c, 0, 74, 0
2, 60864, Note_on_c, 0, 74, 88
2, 60912, Note_on_c, 0, 74, 0
2, 60912, Note_on_c, 0, 71, 88
2, 60960, Note_on_c, 0, 71, 0
2, 60960, Note_on_c, 0, 72, 88
2, 61008, Note_on_c, 0, 72, 0
2, 61008, Note_on_c, 0, 72, 88
2, 61056, Note_on_c, 0, 72, 0
2, 61056, Note_on_c, 0, 72, 88
2, 61104, Note_on_c, 0, 72, 0
2, 61104, Note_on_c, 0, 69, 88
2, 61152, Note_on_c, 0, 69, 0
2, 61152, Note_on_c, 0, 70, 88
2, 61200, Note_on_c, 0, 70, 0
2, 61200, Note_on_c, 0, 70, 88
2, 61248, Note_on_c, 0, 70, 0
2, 61248, Note_on_c, 0, 70, 88
2, 61296, Note_on_c, 0, 70, 0
2, 61296, Note_on_c, 0, 69, 88
2, 61344, Note_on_c, 0, 69, 0
2, 61344, Note_on_c, 0, 67, 88
2, 61392, Note_on_c, 0, 67, 0
2, 61392, Note_on_c, 0, 66, 88
2, 61440, Note_on_c, 0, 66, 0
2, 61440, Note_on_c, 0, 67, 88
2, 61488, Note_on_c, 0, 67, 0
2, 61488, Note_on_c, 0, 70, 72
2, 61536, Note_on_c, 0, 70, 0
2, 61536, Note_on_c, 0, 69, 72
2, 61584, Note_on_c, 0, 69, 0
2, 61584, Note_on_c, 0, 67, 72
2, 61632, Note_on_c, 0, 67, 0
2, 61632, Note_on_c, 0, 66, 72
2, 61680, Note_on_c, 0, 66, 0
2, 61680, Note_on_c, 0, 67, 72
2, 61728, Note_on_c, 0, 67, 0
2, 61728, Note_on_c, 0, 63, 72
2, 61776, Note_on_c, 0, 63, 0
2, 61776, Note_on_c, 0, 66, 72
2, 61824, Note_on_c, 0, 66, 0
2, 61824, Note_on_c, 0, 67, 72
2, 61872, Note_on_c, 0, 67, 0
2, 61872, Note_on_c, 0, 62, 72
2, 61920, Note_on_c, 0, 62, 0
2, 61920, Note_on_c, 0, 67, 72
2, 62064, Note_on_c, 0, 67, 0
2, 62064, Note_on_c, 0, 70, 72
2, 62112, Note_on_c, 0, 70, 0
2, 62112, Note_on_c, 0, 69, 72
2, 62160, Note_on_c, 0, 69, 0
2, 62160, Note_on_c, 0, 72, 72
2, 62208, Note_on_c, 0, 72, 0
2, 62208, Note_on_c, 0, 70, 72
2, 62592, Note_on_c, 0, 70, 0
2, 62592, Note_on_c, 0, 70, 72
2, 62688, Note_on_c, 0, 70, 0
2, 62688, Note_on_c, 0, 69, 72
2, 62736, Note_on_c, 0, 69, 0
2, 62736, Note_on_c, 0, 67, 72
2, 62784, Note_on_c, 0, 67, 0
2, 62784, Note_on_c, 0, 69, 72
2, 62880, Note_on_c, 0, 69, 0
2, 62880, Note_on_c, 0, 74, 72
2, 62976, Note_on_c, 0, 74, 0
2, 62976, Note_on_c, 0, 74, 72
2, 63024, Note_on_c, 0, 74, 0
2, 63024, Note_on_c, 0, 72, 72
2, 63072, Note_on_c, 0, 72, 0
2, 63072, Note_on_c, 0, 71, 72
2, 63120, Note_on_c, 0, 71, 0
2, 63120, Note_on_c, 0, 74, 72
2, 63168, Note_on_c, 0, 74, 0
2, 63168, Note_on_c, 0, 73, 72
2, 63216, Note_on_c, 0, 73, 0
2, 63216, Note_on_c, 0, 74, 72
2, 63264, Note_on_c, 0, 74, 0
2, 63264, Note_on_c, 0, 76, 72
2, 63360, Note_on_c, 0, 76, 0
2, 63360, Note_on_c, 0, 76, 72
2, 63408, Note_on_c, 0, 76, 0
2, 63408, Note_on_c, 0, 74, 72
2, 63456, Note_on_c, 0, 74, 0
2, 63456, Note_on_c, 0, 73, 72
2, 63504, Note_on_c, 0, 73, 0
2, 63504, Note_on_c, 0, 76, 72
2, 63552, Note_on_c, 0, 76, 0
2, 63552, Note_on_c, 0, 74, 72
2, 63600, Note_on_c, 0, 74, 0
2, 63600, Note_on_c, 0, 76, 72
2, 63648, Note_on_c, 0, 76, 0
2, 63648, Note_on_c, 0, 77, 72
2, 63744, Note_on_c, 0, 77, 0
2, 63744, Note_on_c, 0, 77, 72
2, 63792, Note_on_c, 0, 77, 0
2, 63792, Note_on_c, 0, 76, 72
2, 63840, Note_on_c, 0, 76, 0
2, 63840, Note_on_c, 0, 74, 72
2, 63888, Note_on_c, 0, 74, 0
2, 63888, Note_on_c, 0, 77, 72
2, 63936, Note_on_c, 0, 77, 0
2, 63936, Note_on_c, 0, 76, 72
2, 63984, Note_on_c, 0, 76, 0
2, 63984, Note_on_c, 0, 74, 72
2, 64032, Note_on_c, 0, 74, 0
2, 64032, Note_on_c, 0, 73, 72
2, 64080, Note_on_c, 0, 73, 0
2, 64080, Note_on_c, 0, 71, 72
2, 64128, Note_on_c, 0, 71, 0
2, 64128, Note_on_c, 0, 73, 72
2, 64224, Note_on_c, 0, 73, 0
2, 64224, Note_on_c, 0, 77, 72
2, 64320, Note_on_c, 0, 77, 0
2, 64320, Note_on_c, 0, 71, 72
2, 64368, Note_on_c, 0, 71, 0
2, 64368, Note_on_c, 0, 74, 72
2, 64416, Note_on_c, 0, 74, 0
2, 64416, Note_on_c, 0, 73, 72
2, 64464, Note_on_c, 0, 73, 0
2, 64464, Note_on_c, 0, 76, 72
2, 64512, Note_on_c, 0, 76, 0
2, 64512, Note_on_c, 0, 69, 72
2, 64608, Note_on_c, 0, 69, 0
2, 64608, Note_on_c, 0, 81, 88
2, 64656, Note_on_c, 0, 81, 0
2, 64656, Note_on_c, 0, 81, 88
2, 64704, Note_on_c, 0, 81, 0
2, 64704, Note_on_c, 0, 81, 88
2, 64752, Note_on_c, 0, 81, 0
2, 64752, Note_on_c, 0, 78, 88
2, 64800, Note_on_c, 0, 78, 0
2, 64800, Note_on_c, 0, 79, 88
2, 64848, Note_on_c, 0, 79, 0
2, 64848, Note_on_c, 0, 79, 88
2, 64896, Note_on_c, 0, 79, 0
2, 64896, Note_on_c, 0, 79, 88
2, 64944, Note_on_c, 0, 79, 0
2, 64944, Note_on_c, 0, 76, 88
2, 64992, Note_on_c, 0, 76, 0
2, 64992, Note_on_c, 0, 77, 88
2, 65040, Note_on_c, 0, 77, 0
2, 65040, Note_on_c, 0, 77, 88
2, 65088, Note_on_c, 0, 77, 0
2, 65088, Note_on_c, 0, 77, 88
2, 65136, Note_on_c, 0, 77, 0
2, 65136, Note_on_c, 0, 74, 88
2, 65184, Note_on_c, 0, 74, 0
2, 65184, Note_on_c, 0, 76, 88
2, 65232, Note_on_c, 0, 76, 0
2, 65232, Note_on_c, 0, 76, 88
2, 65280, Note_on_c, 0, 76, 0
2, 65280, Note_on_c, 0, 76, 88
2, 65376, Note_on_c, 0, 76, 0
2, 65376, Program_c, 0, 0
2, 65376, Note_on_c, 0, 69, 88
2, 65472, Note_on_c, 0, 69, 0
2, 65472, Note_on_c, 0, 62, 88
2, 65568, Note_on_c, 0, 62, 0
2, 65568, Note_on_c, 0, 64, 88
2, 65664, Note_on_c, 0, 64, 0
2, 65760, Note_on_c, 0, 65, 88
2, 65856, Note_on_c, 0, 65, 0
2, 65856, Note_on_c, 0, 67, 88
2, 65952, Note_on_c, 0, 67, 0
2, 65952, Note_on_c, 0, 69, 88
2, 66048, Note_on_c, 0, 69, 0
2, 66144, Note_on_c, 0, 70, 88
2, 66240, Note_on_c, 0, 70, 0
2, 66240, Note_on_c, 0, 69, 88
2, 66336, Note_on_c, 0, 69, 0
2, 66336, Note_on_c, 0, 67, 88
2, 66432, Note_on_c, 0, 67, 0
2, 66528, Note_on_c, 0, 65, 88
2, 66576, Note_on_c, 0, 65, 0
2, 66576, Note_on_c, 0, 64, 88
2, 66624, Note_on_c, 0, 64, 0
2, 66624, Note_on_c, 0, 65, 88
2, 66720, Note_on_c, 0, 65, 0
2, 66720, Note_on_c, 0, 67, 88
2, 66816, Note_on_c, 0, 67, 0
2, 66816, Note_on_c, 0, 69, 88
2, 66864, Note_on_c, 0, 69, 0
2, 66864, Note_on_c, 0, 67, 72
2, 66912, Note_on_c, 0, 67, 0
2, 66912, Note_on_c, 0, 66, 72
2, 66960, Note_on_c, 0, 66, 0
2, 66960, Note_on_c, 0, 69, 72
2, 67008, Note_on_c, 0, 69, 0
2, 67008, Note_on_c, 0, 62, 72
2, 67104, Note_on_c, 0, 62, 0
2, 67104, Note_on_c, 0, 74, 72
2, 67200, Note_on_c, 0, 74, 0
2, 67200, Note_on_c, 0, 74, 72
2, 67248, Note_on_c, 0, 74, 0
2, 67248, Note_on_c, 0, 72, 72
2, 67296, Note_on_c, 0, 72, 0
2, 67296, Note_on_c, 0, 70, 72
2, 67344, Note_on_c, 0, 70, 0
2, 67344, Note_on_c, 0, 74, 72
2, 67392, Note_on_c, 0, 74, 0
2, 67392, Note_on_c, 0, 67, 72
2, 67488, Note_on_c, 0, 67, 0
2, 67488, Note_on_c, 0, 72, 72
2, 67584, Note_on_c, 0, 72, 0
2, 67584, Note_on_c, 0, 72, 72
2, 67632, Note_on_c, 0, 72, 0
2, 67632, Note_on_c, 0, 70, 72
2, 67680, Note_on_c, 0, 70, 0
2, 67680, Note_on_c, 0, 69, 72
2, 67728, Note_on_c, 0, 69, 0
2, 67728, Note_on_c, 0, 72, 72
2, 67776, Note_on_c, 0, 72, 0
2, 67776, Note_on_c, 0, 70, 72
2, 67872, Note_on_c, 0, 70, 0
2, 67872, Note_on_c, 0, 70, 72
2, 67968, Note_on_c, 0, 70, 0
2, 67968, Note_on_c, 0, 70, 72
2, 67992, Note_on_c, 0, 70, 0
2, 67992, Note_on_c, 0, 72, 72
2, 68016, Note_on_c, 0, 72, 0
2, 68016, Note_on_c, 0, 70, 72
2, 68040, Note_on_c, 0, 70, 0
2, 68040, Note_on_c, 0, 69, 72
2, 68064, Note_on_c, 0, 69, 0
2, 68064, Note_on_c, 0, 67, 72
2, 68088, Note_on_c, 0, 67, 0
2, 68088, Note_on_c, 0, 70, 72
2, 68112, Note_on_c, 0, 70, 0
2, 68112, Note_on_c, 0, 72, 72
2, 68136, Note_on_c, 0, 72, 0
2, 68136, Note_on_c, 0, 74, 72
2, 68160, Note_on_c, 0, 74, 0
2, 68160, Note_on_c, 0, 75, 72
2, 68184, Note_on_c, 0, 75, 0
2, 68184, Note_on_c, 0, 77, 72
2, 68208, Note_on_c, 0, 77, 0
2, 68208, Note_on_c, 0, 75, 72
2, 68232, Note_on_c, 0, 75, 0
2, 68232, Note_on_c, 0, 74, 72
2, 68256, Note_on_c, 0, 74, 0
2, 68256, Note_on_c, 0, 73, 72
2, 68280, Note_on_c, 0, 73, 0
2, 68280, Note_on_c, 0, 74, 72
2, 68304, Note_on_c, 0, 74, 0
2, 68304, Note_on_c, 0, 76, 72
2, 68328, Note_on_c, 0, 76, 0
2, 68328, Note_on_c, 0, 77, 72
2, 68352, Note_on_c, 0, 77, 0
2, 68352, Note_on_c, 0, 79, 72
2, 68376, Note_on_c, 0, 79, 0
2, 68376, Note_on_c, 0, 81, 72
2, 68400, Note_on_c, 0, 81, 0
2, 68400, Note_on_c, 0, 79, 72
2, 68424, Note_on_c, 0, 79, 0
2, 68424, Note_on_c, 0, 77, 72
2, 68448, Note_on_c, 0, 77, 0
2, 68448, Note_on_c, 0, 76, 72
2, 68472, Note_on_c, 0, 76, 0
2, 68472, Note_on_c, 0, 77, 72
2, 68496, Note_on_c, 0, 77, 0
2, 68496, Note_on_c, 0, 79, 72
2, 68520, Note_on_c, 0, 79, 0
2, 68520, Note_on_c, 0, 81, 72
2, 68544, Note_on_c, 0, 81, 0
2, 68544, Note_on_c, 0, 82, 72
2, 68592, Note_on_c, 0, 82, 0
2, 68592, Note_on_c, 0, 81, 72
2, 68616, Note_on_c, 0, 81, 0
2, 68616, Note_on_c, 0, 79, 72
2, 68640, Note_on_c, 0, 79, 0
2, 68640, Note_on_c, 0, 77, 72
2, 68664, Note_on_c, 0, 77, 0
2, 68664, Note_on_c, 0, 76, 72
2, 68688, Note_on_c, 0, 76, 0
2, 68688, Note_on_c, 0, 74, 72
2, 68712, Note_on_c, 0, 74, 0
2, 68712, Note_on_c, 0, 73, 72
2, 68736, Note_on_c, 0, 73, 0
2, 68736, Note_on_c, 0, 74, 72
2, 69024, Note_on_c, 0, 74, 0
2, 69024, Note_on_c, 0, 73, 72
2, 69120, Note_on_c, 0, 73, 0
2, 69120, Note_on_c, 0, 74, 72
2, 69216, Note_on_c, 0, 74, 0
2, 69216, Note_on_c, 0, 72, 72
2, 69312, Note_on_c, 0, 72, 0
2, 69312, Note_on_c, 0, 71, 72
2, 69360, Note_on_c, 0, 71, 0
2, 69360, Note_on_c, 0, 79, 72
2, 69408, Note_on_c, 0, 79, 0
2, 69408, Note_on_c, 0, 79, 72
2, 69456, Note_on_c, 0, 79, 0
2, 69456, Note_on_c, 0, 78, 72
2, 69504, Note_on_c, 0, 78, 0
2, 69504, Note_on_c, 0, 78, 72
2, 69552, Note_on_c, 0, 78, 0
2, 69552, Note_on_c, 0, 81, 72
2, 69600, Note_on_c, 0, 81, 0
2, 69600, Note_on_c, 0, 81, 72
2, 69648, Note_on_c, 0, 81, 0
2, 69648, Note_on_c, 0, 79, 72
2, 69696, Note_on_c, 0, 79, 0
2, 69696, Note_on_c, 0, 79, 72
2, 69744, Note_on_c, 0, 79, 0
2, 69744, Note_on_c, 0, 77, 72
2, 69792, Note_on_c, 0, 77, 0
2, 69792, Note_on_c, 0, 75, 72
2, 69840, Note_on_c, 0, 75, 0
2, 69840, Note_on_c, 0, 74, 72
2, 69888, Note_on_c, 0, 74, 0
2, 69888, Note_on_c, 0, 73, 88
2, 69984, Note_on_c, 0, 73, 0
2, 69984, Note_on_c, 0, 77, 88
2, 70080, Note_on_c, 0, 77, 0
2, 70080, Note_on_c, 0, 71, 88
2, 70176, Note_on_c, 0, 71, 0
2, 70176, Note_on_c, 0, 70, 88
2, 70272, Note_on_c, 0, 70, 0
2, 70272, Note_on_c, 0, 69, 88
2, 70368, Note_on_c, 0, 69, 0
2, 70368, Note_on_c, 0, 74, 88
2, 70464, Note_on_c, 0, 74, 0
2, 70464, Note_on_c, 0, 69, 88
2, 70488, Note_on_c, 0, 69, 0
2, 70488, Note_on_c, 0, 67, 88
2, 70512, Note_on_c, 0, 67, 0
2, 70512, Note_on_c, 0, 69, 88
2, 70536, Note_on_c, 0, 69, 0
2, 70536, Note_on_c, 0, 67, 88
2, 70560, Note_on_c, 0, 67, 0
2, 70560, Note_on_c, 0, 69, 88
2, 70584, Note_on_c, 0, 69, 0
2, 70584, Note_on_c, 0, 67, 88
2, 70608, Note_on_c, 0, 67, 0
2, 70608, Note_on_c, 0, 65, 88
2, 70632, Note_on_c, 0, 65, 0
2, 70632, Note_on_c, 0, 67, 88
2, 70656, Note_on_c, 0, 67, 0
2, 70656, Note_on_c, 0, 65, 88
2, 70752, Note_on_c, 0, 65, 0
2, 70752, Note_on_c, 0, 67, 88
2, 70848, Note_on_c, 0, 67, 0
2, 70848, Note_on_c, 0, 69, 88
2, 70896, Note_on_c, 0, 69, 0
2, 70896, Note_on_c, 0, 67, 88
2, 70944, Note_on_c, 0, 67, 0
2, 70944, Note_on_c, 0, 69, 88
2, 71040, Note_on_c, 0, 69, 0
2, 71040, Note_on_c, 0, 62, 88
2, 71424, Note_on_c, 0, 62, 0
2, 71424, Note_on_c, 0, 62, 88
2, 71448, Note_on_c, 0, 62, 0
2, 71448, Note_on_c, 0, 59, 88
2, 71472, Note_on_c, 0, 59, 0
2, 71472, Note_on_c, 0, 61, 88
2, 71496, Note_on_c, 0, 61, 0
2, 71496, Note_on_c, 0, 62, 88
2, 71520, Note_on_c, 0, 62, 0
2, 71520, Note_on_c, 0, 64, 88
2, 71544, Note_on_c, 0, 64, 0
2, 71544, Note_on_c, 0, 65, 88
2, 71568, Note_on_c, 0, 65, 0
2, 71568, Note_on_c, 0, 67, 88
2, 71592, Note_on_c, 0, 67, 0
2, 71592, Note_on_c, 0, 64, 88
2, 71616, Note_on_c, 0, 64, 0
2, 71616, Note_on_c, 0, 62, 88
2, 71640, Note_on_c, 0, 62, 0
2, 71640, Note_on_c, 0, 61, 88
2, 71664, Note_on_c, 0, 61, 0
2, 71664, Note_on_c, 0, 62, 88
2, 71688, Note_on_c, 0, 62, 0
2, 71688, Note_on_c, 0, 61, 88
2, 71712, Note_on_c, 0, 61, 0
2, 71712, Note_on_c, 0, 62, 88
2, 71736, Note_on_c, 0, 62, 0
2, 71736, Note_on_c, 0, 61, 88
2, 71760, Note_on_c, 0, 61, 0
2, 71760, Note_on_c, 0, 59, 88
2, 71784, Note_on_c, 0, 59, 0
2, 71784, Note_on_c, 0, 61, 88
2, 71808, Note_on_c, 0, 61, 0
2, 71808, Note_on_c, 0, 62, 88
2, 72096, Note_on_c, 0, 62, 0
2, 72192, End_track
3, 0, Start_track
3, 0, Program_c, 0, 0
3, 192, Program_c, 0, 0
3, 192, Note_on_c, 0, 62, 88
3, 384, Note_on_c, 0, 62, 0
3, 384, Program_c, 0, 0
3, 384, Note_on_c, 0, 60, 88
3, 480, Note_on_c, 0, 60, 0
3, 480, Note_on_c, 0, 65, 88
3, 576, Note_on_c, 0, 65, 0
3, 576, Program_c, 0, 0
3, 576, Note_on_c, 0, 59, 88
3, 672, Note_on_c, 0, 59, 0
3, 672, Note_on_c, 0, 58, 88
3, 768, Note_on_c, 0, 58, 0
3, 768, Program_c, 0, 0
3, 768, Note_on_c, 0, 57, 88
3, 864, Note_on_c, 0, 57, 0
3, 864, Note_on_c, 0, 62, 88
3, 960, Note_on_c, 0, 62, 0
3, 960, Note_on_c, 0, 57, 88
3, 984, Note_on_c, 0, 57, 0
3, 984, Note_on_c, 0, 55, 88
3, 1008, Note_on_c, 0, 55, 0
3, 1008, Note_on_c, 0, 57, 88
3, 1032, Note_on_c, 0, 57, 0
3, 1032, Note_on_c, 0, 55, 88
3, 1056, Note_on_c, 0, 55, 0
3, 1056, Note_on_c, 0, 57, 88
3, 1080, Note_on_c, 0, 57, 0
3, 1080, Note_on_c, 0, 55, 88
3, 1104, Note_on_c, 0, 55, 0
3, 1104, Note_on_c, 0, 53, 88
3, 1128, Note_on_c, 0, 53, 0
3, 1128, Note_on_c, 0, 55, 88
3, 1152, Note_on_c, 0, 55, 0
3, 1152, Program_c, 0, 0
3, 1152, Note_on_c, 0, 53, 88
3, 1248, Note_on_c, 0, 53, 0
3, 1248, Note_on_c, 0, 55, 88
3, 1344, Note_on_c, 0, 55, 0
3, 1344, Program_c, 0, 0
3, 1344, Note_on_c, 0, 57, 88
3, 1392, Note_on_c, 0, 57, 0
3, 1392, Note_on_c, 0, 55, 88
3, 1440, Note_on_c, 0, 55, 0
3, 1440, Program_c, 0, 0
3, 1440, Note_on_c, 0, 57, 88
3, 1536, Note_on_c, 0, 57, 0
3, 1536, Note_on_c, 0, 50, 88
3, 1632, Note_on_c, 0, 50, 0
3, 1632, Note_on_c, 0, 62, 72
3, 1728, Note_on_c, 0, 62, 0
3, 1728, Note_on_c, 0, 60, 72
3, 1824, Note_on_c, 0, 60, 0
3, 1824, Note_on_c, 0, 59, 72
3, 1920, Note_on_c, 0, 59, 0
3, 1920, Note_on_c, 0, 60, 72
3, 2016, Note_on_c, 0, 60, 0
3, 2016, Note_on_c, 0, 65, 72
3, 2112, Note_on_c, 0, 65, 0
3, 2112, Note_on_c, 0, 64, 72
3, 2208, Note_on_c, 0, 64, 0
3, 2208, Note_on_c, 0, 63, 72
3, 2304, Note_on_c, 0, 63, 0
3, 2304, Note_on_c, 0, 64, 72
3, 2496, Note_on_c, 0, 64, 0
3, 2496, Program_c, 0, 0
3, 2544, Note_on_c, 0, 62, 72
3, 2592, Note_on_c, 0, 62, 0
3, 2592, Note_on_c, 0, 60, 72
3, 2640, Note_on_c, 0, 60, 0
3, 2640, Note_on_c, 0, 59, 72
3, 2688, Note_on_c, 0, 59, 0
3, 2688, Program_c, 0, 0
3, 2688, Note_on_c, 0, 60, 72
3, 2880, Note_on_c, 0, 60, 0
3, 2880, Program_c, 0, 0
3, 2928, Note_on_c, 0, 59, 72
3, 2976, Note_on_c, 0, 59, 0
3, 2976, Note_on_c, 0, 57, 72
3, 3024, Note_on_c, 0, 57, 0
3, 3024, Note_on_c, 0, 56, 72
3, 3072, Note_on_c, 0, 56, 0
3, 3072, Note_on_c, 0, 57, 72
3, 3120, Note_on_c, 0, 57, 0
3, 3120, Note_on_c, 0, 60, 72
3, 3168, Note_on_c, 0, 60, 0
3, 3168, Note_on_c, 0, 59, 72
3, 3216, Note_on_c, 0, 59, 0
3, 3216, Note_on_c, 0, 62, 72
3, 3264, Note_on_c, 0, 62, 0
3, 3264, Note_on_c, 0, 56, 72
3, 3312, Note_on_c, 0, 56, 0
3, 3312, Note_on_c, 0, 65, 72
3, 3360, Note_on_c, 0, 65, 0
3, 3360, Note_on_c, 0, 64, 72
3, 3408, Note_on_c, 0, 64, 0
3, 3408, Note_on_c, 0, 62, 72
3, 3456, Note_on_c, 0, 62, 0
3, 3456, Note_on_c, 0, 60, 72
3, 3504, Note_on_c, 0, 60, 0
3, 3504, Note_on_c, 0, 59, 72
3, 3552, Note_on_c, 0, 59, 0
3, 3552, Note_on_c, 0, 60, 72
3, 3600, Note_on_c, 0, 60, 0
3, 3600, Note_on_c, 0, 64, 72
3, 3648, Note_on_c, 0, 64, 0
3, 3648, Note_on_c, 0, 69, 72
3, 3696, Note_on_c, 0, 69, 0
3, 3696, Note_on_c, 0, 62, 72
3, 3744, Note_on_c, 0, 62, 0
3, 3744, Note_on_c, 0, 61, 72
3, 3792, Note_on_c, 0, 61, 0
3, 3792, Note_on_c, 0, 64, 72
3, 3840, Note_on_c, 0, 64, 0
3, 3840, Note_on_c, 0, 62, 72
3, 3888, Note_on_c, 0, 62, 0
3, 3888, Note_on_c, 0, 65, 72
3, 3936, Note_on_c, 0, 65, 0
3, 3936, Note_on_c, 0, 64, 72
3, 3984, Note_on_c, 0, 64, 0
3, 3984, Note_on_c, 0, 67, 72
3, 4032, Note_on_c, 0, 67, 0
3, 4032, Note_on_c, 0, 65, 72
3, 4080, Note_on_c, 0, 65, 0
3, 4080, Note_on_c, 0, 60, 72
3, 4128, Note_on_c, 0, 60, 0
3, 4128, Note_on_c, 0, 59, 72
3, 4176, Note_on_c, 0, 59, 0
3, 4176, Note_on_c, 0, 65, 72
3, 4224, Note_on_c, 0, 65, 0
3, 4224, Program_c, 0, 0
3, 4224, Note_on_c, 0, 64, 72
3, 4320, Note_on_c, 0, 64, 0
3, 4320, Note_on_c, 0, 60, 72
3, 4416, Note_on_c, 0, 60, 0
3, 4416, Note_on_c, 0, 62, 72
3, 4512, Note_on_c, 0, 62, 0
3, 4512, Note_on_c, 0, 67, 72
3, 4608, Note_on_c, 0, 67, 0
3, 4608, Note_on_c, 0, 60, 72
3, 4704, Note_on_c, 0, 60, 0
3, 4704, Note_on_c, 0, 57, 72
3, 4800, Note_on_c, 0, 57, 0
3, 4800, Note_on_c, 0, 59, 72
3, 4896, Note_on_c, 0, 59, 0
3, 4896, Note_on_c, 0, 64, 72
3, 4992, Note_on_c, 0, 64, 0
3, 4992, Program_c, 0, 0
3, 4992, Note_on_c, 0, 57, 72
3, 5040, Note_on_c, 0, 57, 0
3, 5040, Note_on_c, 0, 60, 72
3, 5088, Note_on_c, 0, 60, 0
3, 5088, Note_on_c, 0, 58, 72
3, 5136, Note_on_c, 0, 58, 0
3, 5136, Note_on_c, 0, 62, 72
3, 5184, Note_on_c, 0, 62, 0
3, 5184, Program_c, 0, 0
3, 5184, Note_on_c, 0, 60, 72
3, 5376, Note_on_c, 0, 60, 0
3, 5376, Program_c, 0, 0
3, 5376, Note_on_c, 0, 60, 72
3, 5424, Note_on_c, 0, 60, 0
3, 5424, Note_on_c, 0, 58, 72
3, 5472, Note_on_c, 0, 58, 0
3, 5472, Note_on_c, 0, 57, 72
3, 5520, Note_on_c, 0, 57, 0
3, 5520, Note_on_c, 0, 55, 72
3, 5568, Note_on_c, 0, 55, 0
3, 5568, Note_on_c, 0, 57, 72
3, 5616, Note_on_c, 0, 57, 0
3, 5616, Note_on_c, 0, 53, 72
3, 5664, Note_on_c, 0, 53, 0
3, 5664, Note_on_c, 0, 55, 72
3, 5712, Note_on_c, 0, 55, 0
3, 5712, Note_on_c, 0, 52, 72
3, 5760, Note_on_c, 0, 52, 0
3, 5760, Note_on_c, 0, 53, 72
3, 5808, Note_on_c, 0, 53, 0
3, 5808, Note_on_c, 0, 72, 72
3, 5856, Note_on_c, 0, 72, 0
3, 5856, Note_on_c, 0, 70, 72
3, 5904, Note_on_c, 0, 70, 0
3, 5904, Note_on_c, 0, 69, 72
3, 5952, Note_on_c, 0, 69, 0
3, 5952, Note_on_c, 0, 70, 72
3, 6000, Note_on_c, 0, 70, 0
3, 6000, Note_on_c, 0, 67, 72
3, 6048, Note_on_c, 0, 67, 0
3, 6048, Note_on_c, 0, 69, 72
3, 6096, Note_on_c, 0, 69, 0
3, 6096, Note_on_c, 0, 65, 72
3, 6144, Note_on_c, 0, 65, 0
3, 6144, Program_c, 0, 0
3, 6144, Note_on_c, 0, 64, 72
3, 6240, Note_on_c, 0, 64, 0
3, 6240, Note_on_c, 0, 70, 72
3, 6336, Note_on_c, 0, 70, 0
3, 6336, Note_on_c, 0, 69, 72
3, 6432, Note_on_c, 0, 69, 0
3, 6432, Note_on_c, 0, 67, 72
3, 6528, Note_on_c, 0, 67, 0
3, 6528, Note_on_c, 0, 65, 72
3, 6624, Note_on_c, 0, 65, 0
3, 6624, Note_on_c, 0, 52, 72
3, 6720, Note_on_c, 0, 52, 0
3, 6720, Note_on_c, 0, 54, 72
3, 6816, Note_on_c, 0, 54, 0
3, 6816, Note_on_c, 0, 55, 72
3, 6912, Note_on_c, 0, 55, 0
3, 6912, Note_on_c, 0, 55, 72
3, 6960, Note_on_c, 0, 55, 0
3, 6960, Program_c, 0, 0
3, 6960, Note_on_c, 0, 67, 72
3, 7008, Note_on_c, 0, 67, 0
3, 7008, Note_on_c, 0, 65, 72
3, 7056, Note_on_c, 0, 65, 0
3, 7056, Note_on_c, 0, 64, 72
3, 7104, Note_on_c, 0, 64, 0
3, 7104, Note_on_c, 0, 65, 72
3, 7152, Note_on_c, 0, 65, 0
3, 7152, Note_on_c, 0, 62, 72
3, 7200, Note_on_c, 0, 62, 0
3, 7200, Note_on_c, 0, 64, 72
3, 7248, Note_on_c, 0, 64, 0
3, 7248, Note_on_c, 0, 61, 72
3, 7296, Note_on_c, 0, 61, 0
3, 7296, Program_c, 0, 0
3, 7296, Note_on_c, 0, 62, 72
3, 7680, Note_on_c, 0, 62, 0
3, 7680, Note_on_c, 0, 62, 72
3, 7776, Note_on_c, 0, 62, 0
3, 7776, Note_on_c, 0, 61, 72
3, 7872, Note_on_c, 0, 61, 0
3, 7872, Note_on_c, 0, 69, 88
3, 8064, Note_on_c, 0, 69, 0
3, 8064, Program_c, 0, 0
3, 8064, Note_on_c, 0, 67, 88
3, 8160, Note_on_c, 0, 67, 0
3, 8160, Note_on_c, 0, 72, 88
3, 8256, Note_on_c, 0, 72, 0
3, 8256, Program_c, 0, 0
3, 8256, Note_on_c, 0, 66, 88
3, 8352, Note_on_c, 0, 66, 0
3, 8352, Note_on_c, 0, 65, 88
3, 8448, Note_on_c, 0, 65, 0
3, 8448, Program_c, 0, 0
3, 8448, Note_on_c, 0, 64, 88
3, 8544, Note_on_c, 0, 64, 0
3, 8544, Note_on_c, 0, 69, 88
3, 8640, Note_on_c, 0, 69, 0
3, 8640, Note_on_c, 0, 64, 88
3, 8664, Note_on_c, 0, 64, 0
3, 8664, Note_on_c, 0, 62, 88
3, 8688, Note_on_c, 0, 62, 0
3, 8688, Note_on_c, 0, 64, 88
3, 8712, Note_on_c, 0, 64, 0
3, 8712, Note_on_c, 0, 62, 88
3, 8736, Note_on_c, 0, 62, 0
3, 8736, Note_on_c, 0, 64, 88
3, 8760, Note_on_c, 0, 64, 0
3, 8760, Note_on_c, 0, 62, 88
3, 8784, Note_on_c, 0, 62, 0
3, 8784, Note_on_c, 0, 60, 88
3, 8808, Note_on_c, 0, 60, 0
3, 8808, Note_on_c, 0, 62, 88
3, 8832, Note_on_c, 0, 62, 0
3, 8832, Program_c, 0, 0
3, 8832, Note_on_c, 0, 60, 88
3, 8928, Note_on_c, 0, 60, 0
3, 8928, Note_on_c, 0, 62, 88
3, 9024, Note_on_c, 0, 62, 0
3, 9024, Program_c, 0, 0
3, 9024, Note_on_c, 0, 64, 88
3, 9072, Note_on_c, 0, 64, 0
3, 9072, Note_on_c, 0, 62, 88
3, 9120, Note_on_c, 0, 62, 0
3, 9120, Program_c, 0, 0
3, 9120, Note_on_c, 0, 64, 88
3, 9216, Note_on_c, 0, 64, 0
3, 9216, Note_on_c, 0, 57, 88
3, 9312, Note_on_c, 0, 57, 0
3, 9312, Note_on_c, 0, 54, 72
3, 9408, Note_on_c, 0, 54, 0
3, 9408, Note_on_c, 0, 55, 72
3, 9504, Note_on_c, 0, 55, 0
3, 9504, Note_on_c, 0, 57, 72
3, 9600, Note_on_c, 0, 57, 0
3, 9600, Note_on_c, 0, 57, 72
3, 9648, Note_on_c, 0, 57, 0
3, 9648, Program_c, 0, 0
3, 9648, Note_on_c, 0, 69, 72
3, 9696, Note_on_c, 0, 69, 0
3, 9696, Note_on_c, 0, 67, 72
3, 9744, Note_on_c, 0, 67, 0
3, 9744, Note_on_c, 0, 66, 72
3, 9792, Note_on_c, 0, 66, 0
3, 9792, Note_on_c, 0, 67, 72
3, 9840, Note_on_c, 0, 67, 0
3, 9840, Note_on_c, 0, 64, 72
3, 9888, Note_on_c, 0, 64, 0
3, 9888, Note_on_c, 0, 65, 72
3, 9936, Note_on_c, 0, 65, 0
3, 9936, Note_on_c, 0, 62, 72
3, 9984, Note_on_c, 0, 62, 0
3, 9984, Program_c, 0, 0
3, 9984, Note_on_c, 0, 64, 72
3, 10080, Note_on_c, 0, 64, 0
3, 10080, Note_on_c, 0, 65, 72
3, 10176, Note_on_c, 0, 65, 0
3, 10176, Note_on_c, 0, 67, 72
3, 10272, Note_on_c, 0, 67, 0
3, 10272, Note_on_c, 0, 64, 72
3, 10368, Note_on_c, 0, 64, 0
3, 10368, Note_on_c, 0, 65, 72
3, 10464, Note_on_c, 0, 65, 0
3, 10464, Note_on_c, 0, 69, 72
3, 10560, Note_on_c, 0, 69, 0
3, 10560, Program_c, 0, 0
3, 10608, Note_on_c, 0, 59, 72
3, 10656, Note_on_c, 0, 59, 0
3, 10656, Note_on_c, 0, 61, 72
3, 10704, Note_on_c, 0, 61, 0
3, 10704, Note_on_c, 0, 64, 72
3, 10752, Note_on_c, 0, 64, 0
3, 10752, Note_on_c, 0, 57, 72
3, 10848, Note_on_c, 0, 57, 0
3, 10848, Program_c, 0, 0
3, 10848, Note_on_c, 0, 65, 72
3, 10944, Note_on_c, 0, 65, 0
3, 10944, Program_c, 0, 0
3, 10992, Note_on_c, 0, 55, 72
3, 11040, Note_on_c, 0, 55, 0
3, 11040, Note_on_c, 0, 57, 72
3, 11088, Note_on_c, 0, 57, 0
3, 11088, Note_on_c, 0, 60, 72
3, 11136, Note_on_c, 0, 60, 0
3, 11136, Note_on_c, 0, 53, 72
3, 11232, Note_on_c, 0, 53, 0
3, 11232, Program_c, 0, 0
3, 11232, Note_on_c, 0, 62, 72
3, 11328, Note_on_c, 0, 62, 0
3, 11328, Program_c, 0, 0
3, 11376, Note_on_c, 0, 52, 72
3, 11424, Note_on_c, 0, 52, 0
3, 11424, Note_on_c, 0, 54, 72
3, 11472, Note_on_c, 0, 54, 0
3, 11472, Note_on_c, 0, 57, 72
3, 11520, Note_on_c, 0, 57, 0
3, 11520, Program_c, 0, 0
3, 11520, Note_on_c, 0, 50, 72
3, 11616, Note_on_c, 0, 50, 0
3, 11616, Note_on_c, 0, 54, 72
3, 11712, Note_on_c, 0, 54, 0
3, 11712, Note_on_c, 0, 55, 72
3, 11808, Note_on_c, 0, 55, 0
3, 11808, Note_on_c, 0, 57, 72
3, 11904, Note_on_c, 0, 57, 0
3, 11904, Note_on_c, 0, 58, 72
3, 12000, Note_on_c, 0, 58, 0
3, 12000, Note_on_c, 0, 57, 72
3, 12096, Note_on_c, 0, 57, 0
3, 12096, Note_on_c, 0, 58, 72
3, 12192, Note_on_c, 0, 58, 0
3, 12192, Note_on_c, 0, 60, 72
3, 12288, Note_on_c, 0, 60, 0
3, 12288, Program_c, 0, 0
3, 12288, Note_on_c, 0, 62, 72
3, 12336, Note_on_c, 0, 62, 0
3, 12336, Note_on_c, 0, 65, 72
3, 12384, Note_on_c, 0, 65, 0
3, 12384, Note_on_c, 0, 64, 72
3, 12432, Note_on_c, 0, 64, 0
3, 12432, Note_on_c, 0, 62, 72
3, 12480, Note_on_c, 0, 62, 0
3, 12480, Program_c, 0, 0
3, 12480, Note_on_c, 0, 61, 72
3, 12576, Note_on_c, 0, 61, 0
3, 12576, Note_on_c, 0, 62, 72
3, 12672, Note_on_c, 0, 62, 0
3, 12672, Program_c, 0, 0
3, 12672, Note_on_c, 0, 64, 72
3, 12720, Note_on_c, 0, 64, 0
3, 12720, Note_on_c, 0, 62, 72
3, 12768, Note_on_c, 0, 62, 0
3, 12768, Note_on_c, 0, 61, 72
3, 12816, Note_on_c, 0, 61, 0
3, 12816, Note_on_c, 0, 59, 72
3, 12864, Note_on_c, 0, 59, 0
3, 12864, Program_c, 0, 0
3, 12864, Note_on_c, 0, 61, 72
3, 12960, Note_on_c, 0, 61, 0
3, 12960, Note_on_c, 0, 64, 72
3, 13056, Note_on_c, 0, 64, 0
3, 13056, Note_on_c, 0, 69, 72
3, 13152, Note_on_c, 0, 69, 0
3, 13152, Note_on_c, 0, 49, 72
3, 13248, Note_on_c, 0, 49, 0
3, 13248, Program_c, 0, 0
3, 13248, Note_on_c, 0, 50, 72
3, 13344, Note_on_c, 0, 50, 0
3, 13344, Note_on_c, 0, 58, 72
3, 13440, Note_on_c, 0, 58, 0
3, 13440, Program_c, 0, 0
3, 13440, Note_on_c, 0, 52, 72
3, 13536, Note_on_c, 0, 52, 0
3, 13536, Note_on_c, 0, 57, 72
3, 13728, Note_on_c, 0, 57, 0
3, 13728, Note_on_c, 0, 55, 72
3, 13824, Note_on_c, 0, 55, 0
3, 13824, Note_on_c, 0, 48, 72
3, 13920, Note_on_c, 0, 48, 0
3, 13920, Note_on_c, 0, 53, 72
3, 14112, Note_on_c, 0, 53, 0
3, 14112, Note_on_c, 0, 52, 72
3, 14208, Note_on_c, 0, 52, 0
3, 14208, Note_on_c, 0, 57, 72
3, 14304, Note_on_c, 0, 57, 0
3, 14496, Note_on_c, 0, 55, 72
3, 14592, Note_on_c, 0, 55, 0
3, 14592, Note_on_c, 0, 53, 72
3, 14784, Note_on_c, 0, 53, 0
3, 14784, Program_c, 0, 13
3, 14880, Note_on_c, 0, 70, 88
3, 14976, Note_on_c, 0, 70, 0
3, 14976, Note_on_c, 0, 70, 88
3, 15024, Note_on_c, 0, 70, 0
3, 15024, Program_c, 0, 0
3, 15024, Note_on_c, 0, 68, 88
3, 15072, Note_on_c, 0, 68, 0
3, 15072, Note_on_c, 0, 69, 88
3, 15120, Note_on_c, 0, 69, 0
3, 15120, Note_on_c, 0, 69, 88
3, 15168, Note_on_c, 0, 69, 0
3, 15168, Note_on_c, 0, 69, 88
3, 15216, Note_on_c, 0, 69, 0
3, 15216, Note_on_c, 0, 66, 88
3, 15264, Note_on_c, 0, 66, 0
3, 15264, Note_on_c, 0, 67, 88
3, 15312, Note_on_c, 0, 67, 0
3, 15312, Note_on_c, 0, 67, 88
3, 15360, Note_on_c, 0, 67, 0
3, 15360, Note_on_c, 0, 67, 88
3, 15408, Note_on_c, 0, 67, 0
3, 15408, Note_on_c, 0, 64, 88
3, 15456, Note_on_c, 0, 64, 0
3, 15456, Note_on_c, 0, 65, 88
3, 15504, Note_on_c, 0, 65, 0
3, 15504, Note_on_c, 0, 65, 88
3, 15552, Note_on_c, 0, 65, 0
3, 15552, Note_on_c, 0, 65, 88
3, 15600, Note_on_c, 0, 65, 0
3, 15600, Note_on_c, 0, 64, 88
3, 15648, Note_on_c, 0, 64, 0
3, 15648, Note_on_c, 0, 62, 88
3, 15696, Note_on_c, 0, 62, 0
3, 15696, Note_on_c, 0, 61, 88
3, 15744, Note_on_c, 0, 61, 0
3, 15744, Program_c, 0, 13
3, 15744, Note_on_c, 0, 62, 88
3, 16032, Note_on_c, 0, 62, 0
3, 16032, Note_on_c, 0, 60, 72
3, 16128, Note_on_c, 0, 60, 0
3, 16128, Note_on_c, 0, 60, 72
3, 16176, Note_on_c, 0, 60, 0
3, 16176, Program_c, 0, 0
3, 16176, Note_on_c, 0, 60, 72
3, 16224, Note_on_c, 0, 60, 0
3, 16224, Note_on_c, 0, 58, 72
3, 16272, Note_on_c, 0, 58, 0
3, 16272, Note_on_c, 0, 57, 72
3, 16320, Note_on_c, 0, 57, 0
3, 16320, Note_on_c, 0, 58, 72
3, 16368, Note_on_c, 0, 58, 0
3, 16368, Note_on_c, 0, 62, 72
3, 16416, Note_on_c, 0, 62, 0
3, 16416, Note_on_c, 0, 60, 72
3, 16464, Note_on_c, 0, 60, 0
3, 16464, Note_on_c, 0, 58, 72
3, 16512, Note_on_c, 0, 58, 0
3, 16512, Program_c, 0, 13
3, 16512, Note_on_c, 0, 57, 72
3, 16608, Note_on_c, 0, 57, 0
3, 16704, Note_on_c, 0, 67, 72
3, 16896, Note_on_c, 0, 67, 0
3, 16896, Note_on_c, 0, 65, 72
3, 16992, Note_on_c, 0, 65, 0
3, 16992, Note_on_c, 0, 62, 72
3, 17088, Note_on_c, 0, 62, 0
3, 17088, Note_on_c, 0, 63, 72
3, 17280, Note_on_c, 0, 63, 0
3, 17280, Note_on_c, 0, 63, 72
3, 17328, Note_on_c, 0, 63, 0
3, 17328, Program_c, 0, 0
3, 17328, Note_on_c, 0, 62, 72
3, 17376, Note_on_c, 0, 62, 0
3, 17376, Note_on_c, 0, 60, 72
3, 17424, Note_on_c, 0, 60, 0
3, 17424, Note_on_c, 0, 58, 72
3, 17472, Note_on_c, 0, 58, 0
3, 17472, Note_on_c, 0, 57, 72
3, 17520, Note_on_c, 0, 57, 0
3, 17520, Note_on_c, 0, 58, 72
3, 17568, Note_on_c, 0, 58, 0
3, 17568, Note_on_c, 0, 55, 72
3, 17616, Note_on_c, 0, 55, 0
3, 17616, Note_on_c, 0, 57, 72
3, 17664, Note_on_c, 0, 57, 0
3, 17664, Program_c, 0, 13
3, 17664, Note_on_c, 0, 59, 72
3, 17760, Note_on_c, 0, 59, 0
3, 17760, Note_on_c, 0, 60, 72
3, 17952, Note_on_c, 0, 60, 0
3, 17952, Note_on_c, 0, 58, 72
3, 18048, Note_on_c, 0, 58, 0
3, 18048, Note_on_c, 0, 58, 72
3, 18096, Note_on_c, 0, 58, 0
3, 18096, Program_c, 0, 0
3, 18096, Note_on_c, 0, 57, 72
3, 18144, Note_on_c, 0, 57, 0
3, 18144, Note_on_c, 0, 55, 72
3, 18192, Note_on_c, 0, 55, 0
3, 18192, Note_on_c, 0, 53, 72
3, 18240, Note_on_c, 0, 53, 0
3, 18240, Note_on_c, 0, 52, 72
3, 18288, Note_on_c, 0, 52, 0
3, 18288, Note_on_c, 0, 53, 72
3, 18336, Note_on_c, 0, 53, 0
3, 18336, Note_on_c, 0, 50, 72
3, 18384, Note_on_c, 0, 50, 0
3, 18384, Note_on_c, 0, 52, 72
3, 18432, Note_on_c, 0, 52, 0
3, 18432, Program_c, 0, 13
3, 18432, Note_on_c, 0, 53, 72
3, 18528, Note_on_c, 0, 53, 0
3, 18624, Note_on_c, 0, 69, 88
3, 18816, Note_on_c, 0, 69, 0
3, 18816, Program_c, 0, 0
3, 18816, Note_on_c, 0, 67, 88
3, 18912, Note_on_c, 0, 67, 0
3, 18912, Note_on_c, 0, 72, 88
3, 19008, Note_on_c, 0, 72, 0
3, 19008, Program_c, 0, 13
3, 19008, Note_on_c, 0, 66, 88
3, 19104, Note_on_c, 0, 66, 0
3, 19104, Note_on_c, 0, 65, 88
3, 19200, Note_on_c, 0, 65, 0
3, 19200, Program_c, 0, 0
3, 19200, Note_on_c, 0, 64, 88
3, 19296, Note_on_c, 0, 64, 0
3, 19296, Note_on_c, 0, 69, 88
3, 19392, Note_on_c, 0, 69, 0
3, 19392, Note_on_c, 0, 64, 88
3, 19416, Note_on_c, 0, 64, 0
3, 19416, Note_on_c, 0, 62, 88
3, 19440, Note_on_c, 0, 62, 0
3, 19440, Note_on_c, 0, 64, 88
3, 19464, Note_on_c, 0, 64, 0
3, 19464, Note_on_c, 0, 62, 88
3, 19488, Note_on_c, 0, 62, 0
3, 19488, Note_on_c, 0, 64, 88
3, 19512, Note_on_c, 0, 64, 0
3, 19512, Note_on_c, 0, 62, 88
3, 19536, Note_on_c, 0, 62, 0
3, 19536, Note_on_c, 0, 60, 88
3, 19560, Note_on_c, 0, 60, 0
3, 19560, Note_on_c, 0, 62, 88
3, 19584, Note_on_c, 0, 62, 0
3, 19584, Program_c, 0, 13
3, 19584, Note_on_c, 0, 60, 88
3, 19680, Note_on_c, 0, 60, 0
3, 19680, Note_on_c, 0, 62, 88
3, 19776, Note_on_c, 0, 62, 0
3, 19776, Note_on_c, 0, 64, 88
3, 19824, Note_on_c, 0, 64, 0
3, 19824, Note_on_c, 0, 62, 88
3, 19872, Note_on_c, 0, 62, 0
3, 19872, Note_on_c, 0, 64, 88
3, 19968, Note_on_c, 0, 64, 0
3, 19968, Note_on_c, 0, 57, 88
3, 20160, Note_on_c, 0, 57, 0
3, 20256, Note_on_c, 0, 55, 72
3, 20352, Note_on_c, 0, 55, 0
3, 20352, Note_on_c, 0, 55, 72
3, 20400, Note_on_c, 0, 55, 0
3, 20400, Program_c, 0, 0
3, 20400, Note_on_c, 0, 53, 72
3, 20448, Note_on_c, 0, 53, 0
3, 20448, Note_on_c, 0, 55, 72
3, 20496, Note_on_c, 0, 55, 0
3, 20496, Note_on_c, 0, 57, 72
3, 20544, Note_on_c, 0, 57, 0
3, 20544, Note_on_c, 0, 58, 72
3, 20592, Note_on_c, 0, 58, 0
3, 20592, Note_on_c, 0, 57, 72
3, 20640, Note_on_c, 0, 57, 0
3, 20640, Note_on_c, 0, 60, 72
3, 20688, Note_on_c, 0, 60, 0
3, 20688, Note_on_c, 0, 58, 72
3, 20736, Note_on_c, 0, 58, 0
3, 20736, Program_c, 0, 13
3, 20736, Note_on_c, 0, 57, 72
3, 20928, Note_on_c, 0, 57, 0
3, 21024, Note_on_c, 0, 62, 72
3, 21120, Note_on_c, 0, 62, 0
3, 21120, Note_on_c, 0, 62, 72
3, 21168, Note_on_c, 0, 62, 0
3, 21168, Program_c, 0, 0
3, 21168, Note_on_c, 0, 55, 72
3, 21216, Note_on_c, 0, 55, 0
3, 21216, Note_on_c, 0, 57, 72
3, 21264, Note_on_c, 0, 57, 0
3, 21264, Note_on_c, 0, 58, 72
3, 21312, Note_on_c, 0, 58, 0
3, 21312, Note_on_c, 0, 60, 72
3, 21360, Note_on_c, 0, 60, 0
3, 21360, Note_on_c, 0, 58, 72
3, 21408, Note_on_c, 0, 58, 0
3, 21408, Note_on_c, 0, 62, 72
3, 21456, Note_on_c, 0, 62, 0
3, 21456, Note_on_c, 0, 60, 72
3, 21504, Note_on_c, 0, 60, 0
3, 21504, Program_c, 0, 13
3, 21504, Note_on_c, 0, 58, 72
3, 21696, Note_on_c, 0, 58, 0
3, 21792, Note_on_c, 0, 64, 72
3, 21888, Note_on_c, 0, 64, 0
3, 21888, Note_on_c, 0, 64, 72
3, 21936, Note_on_c, 0, 64, 0
3, 21936, Program_c, 0, 0
3, 21936, Note_on_c, 0, 61, 72
3, 21984, Note_on_c, 0, 61, 0
3, 21984, Note_on_c, 0, 62, 72
3, 22032, Note_on_c, 0, 62, 0
3, 22032, Note_on_c, 0, 64, 72
3, 22080, Note_on_c, 0, 64, 0
3, 22080, Note_on_c, 0, 65, 72
3, 22128, Note_on_c, 0, 65, 0
3, 22128, Note_on_c, 0, 64, 72
3, 22176, Note_on_c, 0, 64, 0
3, 22176, Note_on_c, 0, 67, 72
3, 22224, Note_on_c, 0, 67, 0
3, 22224, Note_on_c, 0, 65, 72
3, 22272, Note_on_c, 0, 65, 0
3, 22272, Program_c, 0, 13
3, 22272, Note_on_c, 0, 64, 72
3, 22464, Note_on_c, 0, 64, 0
3, 22464, Note_on_c, 0, 62, 72
3, 22656, Note_on_c, 0, 62, 0
3, 22656, Note_on_c, 0, 60, 72
3, 22752, Note_on_c, 0, 60, 0
3, 22752, Note_on_c, 0, 65, 72
3, 22944, Note_on_c, 0, 65, 0
3, 22944, Note_on_c, 0, 64, 72
3, 23040, Note_on_c, 0, 64, 0
3, 23040, Note_on_c, 0, 65, 72
3, 23232, Note_on_c, 0, 65, 0
3, 23328, Note_on_c, 0, 74, 88
3, 23424, Note_on_c, 0, 74, 0
3, 23424, Note_on_c, 0, 74, 88
3, 23472, Note_on_c, 0, 74, 0
3, 23472, Program_c, 0, 0
3, 23472, Note_on_c, 0, 71, 88
3, 23520, Note_on_c, 0, 71, 0
3, 23520, Note_on_c, 0, 72, 88
3, 23568, Note_on_c, 0, 72, 0
3, 23568, Note_on_c, 0, 72, 88
3, 23616, Note_on_c, 0, 72, 0
3, 23616, Note_on_c, 0, 72, 88
3, 23664, Note_on_c, 0, 72, 0
3, 23664, Note_on_c, 0, 69, 88
3, 23712, Note_on_c, 0, 69, 0
3, 23712, Note_on_c, 0, 70, 88
3, 23760, Note_on_c, 0, 70, 0
3, 23760, Note_on_c, 0, 70, 88
3, 23808, Note_on_c, 0, 70, 0
3, 23808, Note_on_c, 0, 70, 88
3, 23856, Note_on_c, 0, 70, 0
3, 23856, Note_on_c, 0, 68, 88
3, 23904, Note_on_c, 0, 68, 0
3, 23904, Note_on_c, 0, 69, 88
3, 23952, Note_on_c, 0, 69, 0
3, 23952, Note_on_c, 0, 69, 88
3, 24000, Note_on_c, 0, 69, 0
3, 24000, Note_on_c, 0, 69, 88
3, 24048, Note_on_c, 0, 69, 0
3, 24048, Note_on_c, 0, 67, 88
3, 24096, Note_on_c, 0, 67, 0
3, 24096, Note_on_c, 0, 65, 88
3, 24144, Note_on_c, 0, 65, 0
3, 24144, Note_on_c, 0, 64, 88
3, 24192, Note_on_c, 0, 64, 0
3, 24192, Program_c, 0, 13
3, 24192, Note_on_c, 0, 65, 88
3, 24480, Note_on_c, 0, 65, 0
3, 24480, Note_on_c, 0, 63, 72
3, 24576, Note_on_c, 0, 63, 0
3, 24576, Note_on_c, 0, 63, 72
3, 24624, Note_on_c, 0, 63, 0
3, 24624, Program_c, 0, 0
3, 24624, Note_on_c, 0, 62, 72
3, 24672, Note_on_c, 0, 62, 0
3, 24672, Note_on_c, 0, 64, 72
3, 24720, Note_on_c, 0, 64, 0
3, 24720, Note_on_c, 0, 65, 72
3, 24768, Note_on_c, 0, 65, 0
3, 24768, Note_on_c, 0, 67, 72
3, 24816, Note_on_c, 0, 67, 0
3, 24816, Note_on_c, 0, 65, 72
3, 24864, Note_on_c, 0, 65, 0
3, 24864, Program_c, 0, 13
3, 24864, Note_on_c, 0, 67, 72
3, 24960, Note_on_c, 0, 67, 0
3, 24960, Note_on_c, 0, 60, 72
3, 25056, Note_on_c, 0, 60, 0
3, 25056, Program_c, 0, 0
3, 25056, Note_on_c, 0, 62, 72
3, 25104, Note_on_c, 0, 62, 0
3, 25104, Note_on_c, 0, 64, 72
3, 25152, Note_on_c, 0, 64, 0
3, 25152, Note_on_c, 0, 65, 72
3, 25200, Note_on_c, 0, 65, 0
3, 25200, Note_on_c, 0, 64, 72
3, 25248, Note_on_c, 0, 64, 0
3, 25248, Program_c, 0, 13
3, 25248, Note_on_c, 0, 65, 72
3, 25344, Note_on_c, 0, 65, 0
3, 25344, Note_on_c, 0, 64, 72
3, 25440, Note_on_c, 0, 64, 0
3, 25632, Note_on_c, 0, 62, 72
3, 25728, Note_on_c, 0, 62, 0
3, 25728, Note_on_c, 0, 60, 72
3, 25824, Note_on_c, 0, 60, 0
3, 25824, Note_on_c, 0, 69, 72
3, 25920, Note_on_c, 0, 69, 0
3, 25920, Note_on_c, 0, 70, 72
3, 26016, Note_on_c, 0, 70, 0
3, 26016, Note_on_c, 0, 58, 72
3, 26112, Note_on_c, 0, 58, 0
3, 26112, Note_on_c, 0, 57, 72
3, 26208, Note_on_c, 0, 57, 0
3, 26208, Note_on_c, 0, 65, 72
3, 26304, Note_on_c, 0, 65, 0
3, 26304, Note_on_c, 0, 67, 72
3, 26400, Note_on_c, 0, 67, 0
3, 26400, Note_on_c, 0, 55, 72
3, 26496, Note_on_c, 0, 55, 0
3, 26496, Program_c, 0, 0
3, 26496, Note_on_c, 0, 53, 72
3, 26544, Note_on_c, 0, 53, 0
3, 26544, Note_on_c, 0, 65, 72
3, 26592, Note_on_c, 0, 65, 0
3, 26592, Note_on_c, 0, 63, 72
3, 26640, Note_on_c, 0, 63, 0
3, 26640, Note_on_c, 0, 62, 72
3, 26688, Note_on_c, 0, 62, 0
3, 26688, Note_on_c, 0, 60, 72
3, 26736, Note_on_c, 0, 60, 0
3, 26736, Note_on_c, 0, 62, 72
3, 26784, Note_on_c, 0, 62, 0
3, 26784, Note_on_c, 0, 58, 72
3, 26832, Note_on_c, 0, 58, 0
3, 26832, Note_on_c, 0, 60, 72
3, 26880, Note_on_c, 0, 60, 0
3, 26880, Program_c, 0, 13
3, 26880, Note_on_c, 0, 62, 72
3, 27072, Note_on_c, 0, 62, 0
3, 27360, Note_on_c, 0, 70, 72
3, 27456, Note_on_c, 0, 70, 0
3, 27456, Note_on_c, 0, 69, 72
3, 27648, Note_on_c, 0, 69, 0
3, 27648, Note_on_c, 0, 62, 72
3, 27744, Note_on_c, 0, 62, 0
3, 27744, Note_on_c, 0, 67, 72
3, 27936, Note_on_c, 0, 67, 0
3, 27936, Note_on_c, 0, 66, 72
3, 28032, Note_on_c, 0, 66, 0
3, 28032, Program_c, 0, 0
3, 28032, Note_on_c, 0, 67, 88
3, 28080, Note_on_c, 0, 67, 0
3, 28080, Note_on_c, 0, 62, 88
3, 28128, Note_on_c, 0, 62, 0
3, 28128, Note_on_c, 0, 67, 88
3, 28176, Note_on_c, 0, 67, 0
3, 28176, Note_on_c, 0, 67, 88
3, 28224, Note_on_c, 0, 67, 0
3, 28224, Note_on_c, 0, 67, 88
3, 28272, Note_on_c, 0, 67, 0
3, 28272, Note_on_c, 0, 64, 88
3, 28320, Note_on_c, 0, 64, 0
3, 28320, Note_on_c, 0, 65, 88
3, 28368, Note_on_c, 0, 65, 0
3, 28368, Note_on_c, 0, 65, 88
3, 28416, Note_on_c, 0, 65, 0
3, 28416, Note_on_c, 0, 65, 88
3, 28464, Note_on_c, 0, 65, 0
3, 28464, Note_on_c, 0, 62, 88
3, 28512, Note_on_c, 0, 62, 0
3, 28512, Note_on_c, 0, 63, 88
3, 28560, Note_on_c, 0, 63, 0
3, 28560, Note_on_c, 0, 63, 88
3, 28608, Note_on_c, 0, 63, 0
3, 28608, Note_on_c, 0, 63, 88
3, 28656, Note_on_c, 0, 63, 0
3, 28656, Note_on_c, 0, 61, 88
3, 28704, Note_on_c, 0, 61, 0
3, 28704, Note_on_c, 0, 62, 88
3, 28752, Note_on_c, 0, 62, 0
3, 28752, Note_on_c, 0, 62, 88
3, 28800, Note_on_c, 0, 62, 0
3, 28800, Note_on_c, 0, 62, 88
3, 28848, Note_on_c, 0, 62, 0
3, 28848, Note_on_c, 0, 59, 88
3, 28896, Note_on_c, 0, 59, 0
3, 28896, Note_on_c, 0, 60, 88
3, 28944, Note_on_c, 0, 60, 0
3, 28944, Note_on_c, 0, 60, 88
3, 28992, Note_on_c, 0, 60, 0
3, 28992, Note_on_c, 0, 60, 88
3, 29040, Note_on_c, 0, 60, 0
3, 29040, Note_on_c, 0, 58, 88
3, 29088, Note_on_c, 0, 58, 0
3, 29088, Note_on_c, 0, 57, 88
3, 29136, Note_on_c, 0, 57, 0
3, 29136, Note_on_c, 0, 55, 88
3, 29184, Note_on_c, 0, 55, 0
3, 29184, Program_c, 0, 13
3, 29184, Note_on_c, 0, 57, 88
3, 29376, Note_on_c, 0, 57, 0
3, 29376, Note_on_c, 0, 59, 72
3, 29472, Note_on_c, 0, 59, 0
3, 29472, Note_on_c, 0, 61, 72
3, 29568, Note_on_c, 0, 61, 0
3, 29568, Program_c, 0, 0
3, 29568, Note_on_c, 0, 62, 72
3, 29616, Note_on_c, 0, 62, 0
3, 29616, Note_on_c, 0, 57, 72
3, 29664, Note_on_c, 0, 57, 0
3, 29664, Program_c, 0, 13
3, 29664, Note_on_c, 0, 62, 72
3, 29808, Note_on_c, 0, 62, 0
3, 29808, Program_c, 0, 0
3, 29808, Note_on_c, 0, 59, 72
3, 29856, Note_on_c, 0, 59, 0
3, 29856, Note_on_c, 0, 60, 72
3, 29904, Note_on_c, 0, 60, 0
3, 29904, Note_on_c, 0, 60, 72
3, 29952, Note_on_c, 0, 60, 0
3, 29952, Note_on_c, 0, 60, 72
3, 30000, Note_on_c, 0, 60, 0
3, 30000, Note_on_c, 0, 57, 72
3, 30048, Note_on_c, 0, 57, 0
3, 30048, Note_on_c, 0, 58, 72
3, 30096, Note_on_c, 0, 58, 0
3, 30096, Note_on_c, 0, 58, 72
3, 30144, Note_on_c, 0, 58, 0
3, 30144, Program_c, 0, 13
3, 30144, Note_on_c, 0, 57, 72
3, 30240, Note_on_c, 0, 57, 0
3, 30240, Note_on_c, 0, 69, 88
3, 30336, Note_on_c, 0, 69, 0
3, 30336, Program_c, 0, 0
3, 30336, Note_on_c, 0, 67, 88
3, 30432, Note_on_c, 0, 67, 0
3, 30432, Note_on_c, 0, 72, 88
3, 30528, Note_on_c, 0, 72, 0
3, 30528, Program_c, 0, 13
3, 30528, Note_on_c, 0, 66, 88
3, 30624, Note_on_c, 0, 66, 0
3, 30624, Note_on_c, 0, 65, 88
3, 30720, Note_on_c, 0, 65, 0
3, 30720, Program_c, 0, 0
3, 30720, Note_on_c, 0, 64, 88
3, 30816, Note_on_c, 0, 64, 0
3, 30816, Note_on_c, 0, 69, 88
3, 30912, Note_on_c, 0, 69, 0
3, 30912, Program_c, 0, 13
3, 30912, Note_on_c, 0, 62, 88
3, 31008, Note_on_c, 0, 62, 0
3, 31008, Note_on_c, 0, 71, 88
3, 31104, Note_on_c, 0, 71, 0
3, 31104, Note_on_c, 0, 71, 88
3, 31152, Note_on_c, 0, 71, 0
3, 31152, Program_c, 0, 0
3, 31152, Note_on_c, 0, 68, 88
3, 31200, Note_on_c, 0, 68, 0
3, 31200, Note_on_c, 0, 69, 88
3, 31248, Note_on_c, 0, 69, 0
3, 31248, Note_on_c, 0, 69, 88
3, 31296, Note_on_c, 0, 69, 0
3, 31296, Note_on_c, 0, 69, 88
3, 31344, Note_on_c, 0, 69, 0
3, 31344, Note_on_c, 0, 66, 88
3, 31392, Note_on_c, 0, 66, 0
3, 31392, Note_on_c, 0, 67, 88
3, 31440, Note_on_c, 0, 67, 0
3, 31440, Note_on_c, 0, 67, 88
3, 31488, Note_on_c, 0, 67, 0
3, 31488, Note_on_c, 0, 67, 88
3, 31536, Note_on_c, 0, 67, 0
3, 31536, Note_on_c, 0, 64, 88
3, 31584, Note_on_c, 0, 64, 0
3, 31584, Note_on_c, 0, 65, 88
3, 31632, Note_on_c, 0, 65, 0
3, 31632, Note_on_c, 0, 65, 88
3, 31680, Note_on_c, 0, 65, 0
3, 31680, Note_on_c, 0, 65, 88
3, 31728, Note_on_c, 0, 65, 0
3, 31728, Note_on_c, 0, 63, 88
3, 31776, Note_on_c, 0, 63, 0
3, 31776, Note_on_c, 0, 62, 88
3, 31824, Note_on_c, 0, 62, 0
3, 31824, Note_on_c, 0, 60, 88
3, 31872, Note_on_c, 0, 60, 0
3, 31872, Program_c, 0, 13
3, 31872, Note_on_c, 0, 62, 88
3, 32064, Note_on_c, 0, 62, 0
3, 32160, Note_on_c, 0, 60, 72
3, 32256, Note_on_c, 0, 60, 0
3, 32256, Note_on_c, 0, 60, 72
3, 32352, Note_on_c, 0, 60, 0
3, 32352, Note_on_c, 0, 58, 72
3, 32448, Note_on_c, 0, 58, 0
3, 32448, Note_on_c, 0, 60, 72
3, 32544, Note_on_c, 0, 60, 0
3, 32544, Note_on_c, 0, 62, 72
3, 32640, Note_on_c, 0, 62, 0
3, 32640, Note_on_c, 0, 55, 72
3, 32736, Note_on_c, 0, 55, 0
3, 32736, Note_on_c, 0, 59, 72
3, 32832, Note_on_c, 0, 59, 0
3, 32832, Note_on_c, 0, 61, 72
3, 32928, Note_on_c, 0, 61, 0
3, 32928, Note_on_c, 0, 62, 72
3, 33024, Note_on_c, 0, 62, 0
3, 33024, Program_c, 0, 0
3, 33024, Note_on_c, 0, 57, 72
3, 33072, Note_on_c, 0, 57, 0
3, 33264, Program_c, 0, 13
3, 33312, Note_on_c, 0, 73, 72
3, 33408, Note_on_c, 0, 73, 0
3, 33408, Note_on_c, 0, 74, 72
3, 33504, Note_on_c, 0, 74, 0
3, 33696, Note_on_c, 0, 72, 88
3, 33792, Note_on_c, 0, 72, 0
3, 33792, Program_c, 0, 0
3, 33792, Note_on_c, 0, 70, 88
3, 33840, Note_on_c, 0, 70, 0
3, 33840, Note_on_c, 0, 70, 88
3, 33888, Note_on_c, 0, 70, 0
3, 33888, Note_on_c, 0, 70, 88
3, 33936, Note_on_c, 0, 70, 0
3, 33936, Note_on_c, 0, 67, 88
3, 33984, Note_on_c, 0, 67, 0
3, 33984, Note_on_c, 0, 69, 88
3, 34032, Note_on_c, 0, 69, 0
3, 34032, Note_on_c, 0, 69, 88
3, 34080, Note_on_c, 0, 69, 0
3, 34080, Note_on_c, 0, 69, 88
3, 34128, Note_on_c, 0, 69, 0
3, 34128, Note_on_c, 0, 65, 88
3, 34176, Note_on_c, 0, 65, 0
3, 34176, Note_on_c, 0, 67, 88
3, 34224, Note_on_c, 0, 67, 0
3, 34224, Note_on_c, 0, 67, 88
3, 34272, Note_on_c, 0, 67, 0
3, 34272, Note_on_c, 0, 67, 88
3, 34320, Note_on_c, 0, 67, 0
3, 34320, Note_on_c, 0, 64, 88
3, 34368, Note_on_c, 0, 64, 0
3, 34368, Program_c, 0, 13
3, 34368, Note_on_c, 0, 65, 88
3, 34464, Note_on_c, 0, 65, 0
3, 34464, Program_c, 0, 0
3, 34464, Note_on_c, 0, 62, 88
3, 34512, Note_on_c, 0, 62, 0
3, 34512, Note_on_c, 0, 67, 88
3, 34560, Note_on_c, 0, 67, 0
3, 34560, Program_c, 0, 13
3, 34560, Note_on_c, 0, 64, 88
3, 34656, Note_on_c, 0, 64, 0
3, 34848, Program_c, 0, 0
3, 34848, Note_on_c, 0, 67, 88
3, 34896, Note_on_c, 0, 67, 0
3, 34896, Note_on_c, 0, 67, 88
3, 34944, Note_on_c, 0, 67, 0
3, 34944, Note_on_c, 0, 67, 88
3, 34992, Note_on_c, 0, 67, 0
3, 34992, Note_on_c, 0, 64, 88
3, 35040, Note_on_c, 0, 64, 0
3, 35040, Program_c, 0, 13
3, 35040, Note_on_c, 0, 65, 88
3, 35136, Note_on_c, 0, 65, 0
3, 35232, Note_on_c, 0, 67, 88
3, 35328, Note_on_c, 0, 67, 0
3, 35328, Note_on_c, 0, 69, 88
3, 35520, Note_on_c, 0, 69, 0
3, 35808, Program_c, 0, 0
3, 35808, Note_on_c, 0, 69, 88
3, 35904, Note_on_c, 0, 69, 0
3, 35904, Note_on_c, 0, 62, 88
3, 36000, Note_on_c, 0, 62, 0
3, 36000, Note_on_c, 0, 64, 88
3, 36096, Note_on_c, 0, 64, 0
3, 36192, Note_on_c, 0, 65, 88
3, 36288, Note_on_c, 0, 65, 0
3, 36288, Note_on_c, 0, 67, 88
3, 36384, Note_on_c, 0, 67, 0
3, 36384, Note_on_c, 0, 69, 88
3, 36480, Note_on_c, 0, 69, 0
3, 36576, Note_on_c, 0, 70, 88
3, 36672, Note_on_c, 0, 70, 0
3, 36672, Note_on_c, 0, 69, 88
3, 36768, Note_on_c, 0, 69, 0
3, 36768, Note_on_c, 0, 67, 88
3, 36864, Note_on_c, 0, 67, 0
3, 36960, Note_on_c, 0, 65, 88
3, 37008, Note_on_c, 0, 65, 0
3, 37008, Note_on_c, 0, 64, 88
3, 37056, Note_on_c, 0, 64, 0
3, 37056, Note_on_c, 0, 65, 88
3, 37152, Note_on_c, 0, 65, 0
3, 37152, Note_on_c, 0, 67, 88
3, 37248, Note_on_c, 0, 67, 0
3, 37248, Note_on_c, 0, 69, 88
3, 37440, Note_on_c, 0, 69, 0
3, 37440, Note_on_c, 0, 71, 72
3, 37536, Note_on_c, 0, 71, 0
3, 37536, Note_on_c, 0, 73, 72
3, 37632, Note_on_c, 0, 73, 0
3, 37632, Note_on_c, 0, 74, 72
3, 37728, Note_on_c, 0, 74, 0
3, 37728, Note_on_c, 0, 69, 72
3, 37872, Note_on_c, 0, 69, 0
3, 37872, Note_on_c, 0, 65, 72
3, 37920, Note_on_c, 0, 65, 0
3, 37920, Note_on_c, 0, 67, 72
3, 37968, Note_on_c, 0, 67, 0
3, 37968, Note_on_c, 0, 67, 72
3, 38016, Note_on_c, 0, 67, 0
3, 38016, Note_on_c, 0, 67, 72
3, 38112, Note_on_c, 0, 67, 0
3, 38112, Note_on_c, 0, 64, 72
3, 38208, Note_on_c, 0, 64, 0
3, 38256, Note_on_c, 0, 77, 72
3, 38304, Note_on_c, 0, 77, 0
3, 38304, Note_on_c, 0, 76, 72
3, 38352, Note_on_c, 0, 76, 0
3, 38352, Note_on_c, 0, 74, 72
3, 38400, Note_on_c, 0, 74, 0
3, 38400, Note_on_c, 0, 72, 72
3, 38448, Note_on_c, 0, 72, 0
3, 38448, Note_on_c, 0, 71, 72
3, 38496, Note_on_c, 0, 71, 0
3, 38496, Note_on_c, 0, 69, 72
3, 38640, Note_on_c, 0, 69, 0
3, 38640, Note_on_c, 0, 69, 72
3, 38736, Note_on_c, 0, 69, 0
3, 38736, Note_on_c, 0, 68, 72
3, 38784, Note_on_c, 0, 68, 0
3, 38784, Note_on_c, 0, 69, 72
3, 38832, Note_on_c, 0, 69, 0
3, 38832, Note_on_c, 0, 64, 72
3, 38880, Note_on_c, 0, 64, 0
3, 38880, Note_on_c, 0, 69, 72
3, 38928, Note_on_c, 0, 69, 0
3, 38928, Note_on_c, 0, 68, 72
3, 38976, Note_on_c, 0, 68, 0
3, 38976, Note_on_c, 0, 69, 72
3, 39024, Note_on_c, 0, 69, 0
3, 39024, Note_on_c, 0, 72, 72
3, 39072, Note_on_c, 0, 72, 0
3, 39072, Note_on_c, 0, 71, 72
3, 39120, Note_on_c, 0, 71, 0
3, 39120, Note_on_c, 0, 74, 72
3, 39168, Note_on_c, 0, 74, 0
3, 39168, Note_on_c, 0, 72, 72
3, 39216, Note_on_c, 0, 72, 0
3, 39216, Note_on_c, 0, 76, 72
3, 39264, Note_on_c, 0, 76, 0
3, 39264, Note_on_c, 0, 69, 72
3, 39360, Note_on_c, 0, 69, 0
3, 39360, Note_on_c, 0, 74, 72
3, 39456, Note_on_c, 0, 74, 0
3, 39456, Note_on_c, 0, 72, 72
3, 39552, Note_on_c, 0, 72, 0
3, 39552, Note_on_c, 0, 71, 72
3, 39648, Note_on_c, 0, 71, 0
3, 39648, Note_on_c, 0, 74, 72
3, 39696, Note_on_c, 0, 74, 0
3, 39696, Note_on_c, 0, 71, 72
3, 39744, Note_on_c, 0, 71, 0
3, 39744, Note_on_c, 0, 72, 72
3, 39792, Note_on_c, 0, 72, 0
3, 39792, Note_on_c, 0, 69, 72
3, 39840, Note_on_c, 0, 69, 0
3, 39840, Note_on_c, 0, 71, 72
3, 39888, Note_on_c, 0, 71, 0
3, 39888, Note_on_c, 0, 68, 72
3, 39936, Note_on_c, 0, 68, 0
3, 39936, Note_on_c, 0, 69, 72
3, 40080, Note_on_c, 0, 69, 0
3, 40080, Note_on_c, 0, 67, 72
3, 40128, Note_on_c, 0, 67, 0
3, 40128, Note_on_c, 0, 66, 72
3, 40224, Note_on_c, 0, 66, 0
3, 40224, Note_on_c, 0, 65, 72
3, 40320, Note_on_c, 0, 65, 0
3, 40320, Note_on_c, 0, 65, 72
3, 40368, Note_on_c, 0, 65, 0
3, 40368, Note_on_c, 0, 62, 72
3, 40416, Note_on_c, 0, 62, 0
3, 40416, Note_on_c, 0, 64, 72
3, 40512, Note_on_c, 0, 64, 0
3, 40608, Note_on_c, 0, 69, 72
3, 40704, Note_on_c, 0, 69, 0
3, 40704, Note_on_c, 0, 69, 72
3, 40752, Note_on_c, 0, 69, 0
3, 40752, Note_on_c, 0, 68, 72
3, 40800, Note_on_c, 0, 68, 0
3, 40800, Note_on_c, 0, 74, 72
3, 40848, Note_on_c, 0, 74, 0
3, 40848, Note_on_c, 0, 68, 72
3, 40896, Note_on_c, 0, 68, 0
3, 40896, Note_on_c, 0, 69, 72
3, 40944, Note_on_c, 0, 69, 0
3, 40944, Note_on_c, 0, 72, 72
3, 40992, Note_on_c, 0, 72, 0
3, 40992, Note_on_c, 0, 71, 72
3, 41040, Note_on_c, 0, 71, 0
3, 41040, Note_on_c, 0, 65, 72
3, 41088, Note_on_c, 0, 65, 0
3, 41088, Note_on_c, 0, 64, 72
3, 41136, Note_on_c, 0, 64, 0
3, 41136, Note_on_c, 0, 63, 72
3, 41184, Note_on_c, 0, 63, 0
3, 41184, Note_on_c, 0, 64, 72
3, 41280, Note_on_c, 0, 64, 0
3, 41520, Note_on_c, 0, 64, 72
3, 41568, Note_on_c, 0, 64, 0
3, 41568, Note_on_c, 0, 68, 72
3, 41616, Note_on_c, 0, 68, 0
3, 41616, Note_on_c, 0, 71, 72
3, 41664, Note_on_c, 0, 71, 0
3, 41664, Note_on_c, 0, 69, 72
3, 41712, Note_on_c, 0, 69, 0
3, 41712, Note_on_c, 0, 66, 72
3, 41760, Note_on_c, 0, 66, 0
3, 41760, Note_on_c, 0, 67, 72
3, 41808, Note_on_c, 0, 67, 0
3, 41808, Note_on_c, 0, 64, 72
3, 41856, Note_on_c, 0, 64, 0
3, 41856, Note_on_c, 0, 65, 72
3, 41952, Note_on_c, 0, 65, 0
3, 41952, Note_on_c, 0, 66, 72
3, 42048, Note_on_c, 0, 66, 0
3, 42048, Note_on_c, 0, 67, 72
3, 42192, Note_on_c, 0, 67, 0
3, 42192, Note_on_c, 0, 66, 72
3, 42240, Note_on_c, 0, 66, 0
3, 42240, Note_on_c, 0, 67, 72
3, 42336, Note_on_c, 0, 67, 0
3, 42384, Note_on_c, 0, 74, 72
3, 42432, Note_on_c, 0, 74, 0
3, 42432, Note_on_c, 0, 72, 72
3, 42480, Note_on_c, 0, 72, 0
3, 42480, Note_on_c, 0, 69, 72
3, 42528, Note_on_c, 0, 69, 0
3, 42528, Note_on_c, 0, 74, 72
3, 42576, Note_on_c, 0, 74, 0
3, 42576, Note_on_c, 0, 68, 72
3, 42624, Note_on_c, 0, 68, 0
3, 42624, Note_on_c, 0, 67, 72
3, 42720, Note_on_c, 0, 67, 0
3, 42720, Note_on_c, 0, 68, 72
3, 42864, Note_on_c, 0, 68, 0
3, 42864, Note_on_c, 0, 67, 72
3, 42912, Note_on_c, 0, 67, 0
3, 42912, Note_on_c, 0, 66, 72
3, 42960, Note_on_c, 0, 66, 0
3, 42960, Note_on_c, 0, 67, 72
3, 43008, Note_on_c, 0, 67, 0
3, 43008, Note_on_c, 0, 69, 72
3, 43104, Note_on_c, 0, 69, 0
3, 43104, Note_on_c, 0, 70, 72
3, 43200, Note_on_c, 0, 70, 0
3, 43296, Note_on_c, 0, 70, 88
3, 43392, Note_on_c, 0, 70, 0
3, 43392, Note_on_c, 0, 69, 88
3, 43488, Note_on_c, 0, 69, 0
3, 43488, Note_on_c, 0, 74, 88
3, 43584, Note_on_c, 0, 74, 0
3, 43584, Note_on_c, 0, 68, 88
3, 43680, Note_on_c, 0, 68, 0
3, 43680, Note_on_c, 0, 67, 88
3, 43776, Note_on_c, 0, 67, 0
3, 43776, Note_on_c, 0, 65, 88
3, 43872, Note_on_c, 0, 65, 0
3, 43872, Note_on_c, 0, 70, 88
3, 43968, Note_on_c, 0, 70, 0
3, 43968, Note_on_c, 0, 64, 88
3, 44064, Note_on_c, 0, 64, 0
3, 44064, Note_on_c, 0, 63, 88
3, 44160, Note_on_c, 0, 63, 0
3, 44160, Note_on_c, 0, 62, 88
3, 44256, Note_on_c, 0, 62, 0
3, 44256, Note_on_c, 0, 67, 88
3, 44352, Note_on_c, 0, 67, 0
3, 44352, Note_on_c, 0, 61, 88
3, 44448, Note_on_c, 0, 61, 0
3, 44448, Note_on_c, 0, 60, 88
3, 44544, Note_on_c, 0, 60, 0
3, 44544, Note_on_c, 0, 59, 88
3, 44640, Note_on_c, 0, 59, 0
3, 44640, Note_on_c, 0, 58, 88
3, 44736, Note_on_c, 0, 58, 0
3, 44736, Note_on_c, 0, 58, 88
3, 44760, Note_on_c, 0, 58, 0
3, 44760, Note_on_c, 0, 57, 88
3, 44784, Note_on_c, 0, 57, 0
3, 44784, Note_on_c, 0, 58, 88
3, 44808, Note_on_c, 0, 58, 0
3, 44808, Note_on_c, 0, 57, 88
3, 44832, Note_on_c, 0, 57, 0
3, 44832, Note_on_c, 0, 58, 88
3, 44856, Note_on_c, 0, 58, 0
3, 44856, Note_on_c, 0, 57, 88
3, 44880, Note_on_c, 0, 57, 0
3, 44880, Note_on_c, 0, 55, 88
3, 44904, Note_on_c, 0, 55, 0
3, 44904, Note_on_c, 0, 57, 88
3, 44928, Note_on_c, 0, 57, 0
3, 44928, Note_on_c, 0, 55, 88
3, 45024, Note_on_c, 0, 55, 0
3, 45024, Note_on_c, 0, 62, 72
3, 45072, Note_on_c, 0, 62, 0
3, 45072, Note_on_c, 0, 62, 72
3, 45120, Note_on_c, 0, 62, 0
3, 45120, Note_on_c, 0, 62, 72
3, 45168, Note_on_c, 0, 62, 0
3, 45168, Note_on_c, 0, 58, 72
3, 45216, Note_on_c, 0, 58, 0
3, 45216, Note_on_c, 0, 60, 72
3, 45264, Note_on_c, 0, 60, 0
3, 45264, Note_on_c, 0, 60, 72
3, 45312, Note_on_c, 0, 60, 0
3, 45312, Note_on_c, 0, 60, 72
3, 45360, Note_on_c, 0, 60, 0
3, 45360, Note_on_c, 0, 57, 72
3, 45408, Note_on_c, 0, 57, 0
3, 45408, Note_on_c, 0, 58, 72
3, 45456, Note_on_c, 0, 58, 0
3, 45456, Note_on_c, 0, 58, 72
3, 45504, Note_on_c, 0, 58, 0
3, 45504, Note_on_c, 0, 57, 72
3, 45600, Note_on_c, 0, 57, 0
3, 45600, Note_on_c, 0, 62, 72
3, 45648, Note_on_c, 0, 62, 0
3, 45648, Note_on_c, 0, 62, 72
3, 45696, Note_on_c, 0, 62, 0
3, 45696, Note_on_c, 0, 62, 72
3, 45744, Note_on_c, 0, 62, 0
3, 45744, Note_on_c, 0, 59, 72
3, 45792, Note_on_c, 0, 59, 0
3, 45792, Note_on_c, 0, 60, 72
3, 45840, Note_on_c, 0, 60, 0
3, 45840, Note_on_c, 0, 60, 72
3, 45888, Note_on_c, 0, 60, 0
3, 45888, Note_on_c, 0, 58, 72
3, 45984, Note_on_c, 0, 58, 0
3, 45984, Note_on_c, 0, 67, 72
3, 46032, Note_on_c, 0, 67, 0
3, 46032, Note_on_c, 0, 67, 72
3, 46080, Note_on_c, 0, 67, 0
3, 46080, Note_on_c, 0, 67, 72
3, 46128, Note_on_c, 0, 67, 0
3, 46128, Note_on_c, 0, 64, 72
3, 46176, Note_on_c, 0, 64, 0
3, 46176, Note_on_c, 0, 65, 72
3, 46224, Note_on_c, 0, 65, 0
3, 46224, Note_on_c, 0, 65, 72
3, 46272, Note_on_c, 0, 65, 0
3, 46272, Note_on_c, 0, 64, 72
3, 46368, Note_on_c, 0, 64, 0
3, 46368, Note_on_c, 0, 69, 72
3, 46416, Note_on_c, 0, 69, 0
3, 46416, Note_on_c, 0, 69, 72
3, 46464, Note_on_c, 0, 69, 0
3, 46464, Note_on_c, 0, 69, 72
3, 46512, Note_on_c, 0, 69, 0
3, 46512, Note_on_c, 0, 68, 72
3, 46560, Note_on_c, 0, 68, 0
3, 46560, Note_on_c, 0, 71, 72
3, 46608, Note_on_c, 0, 71, 0
3, 46608, Note_on_c, 0, 69, 72
3, 46656, Note_on_c, 0, 69, 0
3, 46656, Note_on_c, 0, 72, 72
3, 46704, Note_on_c, 0, 72, 0
3, 46704, Note_on_c, 0, 71, 72
3, 46752, Note_on_c, 0, 71, 0
3, 46752, Note_on_c, 0, 74, 72
3, 46800, Note_on_c, 0, 74, 0
3, 46800, Note_on_c, 0, 72, 72
3, 46848, Note_on_c, 0, 72, 0
3, 46848, Note_on_c, 0, 76, 72
3, 46896, Note_on_c, 0, 76, 0
3, 46896, Note_on_c, 0, 74, 72
3, 46944, Note_on_c, 0, 74, 0
3, 46944, Note_on_c, 0, 77, 72
3, 46992, Note_on_c, 0, 77, 0
3, 46992, Note_on_c, 0, 76, 72
3, 47040, Note_on_c, 0, 76, 0
3, 47040, Note_on_c, 0, 74, 72
3, 47088, Note_on_c, 0, 74, 0
3, 47088, Note_on_c, 0, 72, 72
3, 47136, Note_on_c, 0, 72, 0
3, 47136, Note_on_c, 0, 71, 72
3, 47184, Note_on_c, 0, 71, 0
3, 47184, Note_on_c, 0, 72, 72
3, 47232, Note_on_c, 0, 72, 0
3, 47232, Note_on_c, 0, 69, 72
3, 47424, Note_on_c, 0, 69, 0
3, 47808, Note_on_c, 0, 62, 88
3, 48000, Note_on_c, 0, 62, 0
3, 48000, Note_on_c, 0, 60, 88
3, 48096, Note_on_c, 0, 60, 0
3, 48096, Note_on_c, 0, 65, 88
3, 48192, Note_on_c, 0, 65, 0
3, 48192, Note_on_c, 0, 59, 88
3, 48288, Note_on_c, 0, 59, 0
3, 48288, Note_on_c, 0, 58, 88
3, 48384, Note_on_c, 0, 58, 0
3, 48384, Note_on_c, 0, 57, 88
3, 48480, Note_on_c, 0, 57, 0
3, 48480, Note_on_c, 0, 62, 88
3, 48576, Note_on_c, 0, 62, 0
3, 48576, Note_on_c, 0, 57, 88
3, 48600, Note_on_c, 0, 57, 0
3, 48600, Note_on_c, 0, 55, 88
3, 48624, Note_on_c, 0, 55, 0
3, 48624, Note_on_c, 0, 57, 88
3, 48648, Note_on_c, 0, 57, 0
3, 48648, Note_on_c, 0, 55, 88
3, 48672, Note_on_c, 0, 55, 0
3, 48672, Note_on_c, 0, 57, 88
3, 48696, Note_on_c, 0, 57, 0
3, 48696, Note_on_c, 0, 55, 88
3, 48720, Note_on_c, 0, 55, 0
3, 48720, Note_on_c, 0, 53, 88
3, 48744, Note_on_c, 0, 53, 0
3, 48744, Note_on_c, 0, 55, 88
3, 48768, Note_on_c, 0, 55, 0
3, 48768, Note_on_c, 0, 53, 88
3, 48864, Note_on_c, 0, 53, 0
3, 48864, Note_on_c, 0, 55, 88
3, 48960, Note_on_c, 0, 55, 0
3, 48960, Note_on_c, 0, 57, 88
3, 49008, Note_on_c, 0, 57, 0
3, 49008, Note_on_c, 0, 55, 88
3, 49056, Note_on_c, 0, 55, 0
3, 49056, Note_on_c, 0, 57, 88
3, 49152, Note_on_c, 0, 57, 0
3, 49152, Note_on_c, 0, 50, 88
3, 49248, Note_on_c, 0, 50, 0
3, 49248, Note_on_c, 0, 62, 88
3, 49344, Note_on_c, 0, 62, 0
3, 49344, Note_on_c, 0, 60, 88
3, 49440, Note_on_c, 0, 60, 0
3, 49440, Note_on_c, 0, 59, 88
3, 49536, Note_on_c, 0, 59, 0
3, 49536, Note_on_c, 0, 60, 88
3, 49632, Note_on_c, 0, 60, 0
3, 49632, Note_on_c, 0, 65, 88
3, 49728, Note_on_c, 0, 65, 0
3, 49728, Note_on_c, 0, 64, 88
3, 49824, Note_on_c, 0, 64, 0
3, 49824, Note_on_c, 0, 62, 88
3, 49920, Note_on_c, 0, 62, 0
3, 49920, Note_on_c, 0, 64, 88
3, 50016, Note_on_c, 0, 64, 0
3, 50016, Note_on_c, 0, 69, 88
3, 50112, Note_on_c, 0, 69, 0
3, 50112, Note_on_c, 0, 67, 88
3, 50208, Note_on_c, 0, 67, 0
3, 50208, Note_on_c, 0, 65, 88
3, 50304, Note_on_c, 0, 65, 0
3, 50304, Note_on_c, 0, 65, 88
3, 50352, Note_on_c, 0, 65, 0
3, 50352, Note_on_c, 0, 63, 88
3, 50400, Note_on_c, 0, 63, 0
3, 50400, Note_on_c, 0, 64, 88
3, 50448, Note_on_c, 0, 64, 0
3, 50448, Note_on_c, 0, 64, 88
3, 50496, Note_on_c, 0, 64, 0
3, 50496, Note_on_c, 0, 64, 88
3, 50544, Note_on_c, 0, 64, 0
3, 50544, Note_on_c, 0, 61, 88
3, 50592, Note_on_c, 0, 61, 0
3, 50592, Note_on_c, 0, 62, 88
3, 50640, Note_on_c, 0, 62, 0
3, 50640, Note_on_c, 0, 62, 88
3, 50688, Note_on_c, 0, 62, 0
3, 50688, Note_on_c, 0, 62, 88
3, 50736, Note_on_c, 0, 62, 0
3, 50736, Note_on_c, 0, 59, 88
3, 50784, Note_on_c, 0, 59, 0
3, 50784, Note_on_c, 0, 60, 88
3, 50832, Note_on_c, 0, 60, 0
3, 50832, Note_on_c, 0, 60, 88
3, 50880, Note_on_c, 0, 60, 0
3, 50880, Note_on_c, 0, 60, 88
3, 50928, Note_on_c, 0, 60, 0
3, 50928, Note_on_c, 0, 59, 88
3, 50976, Note_on_c, 0, 59, 0
3, 50976, Note_on_c, 0, 57, 88
3, 51024, Note_on_c, 0, 57, 0
3, 51024, Note_on_c, 0, 56, 88
3, 51072, Note_on_c, 0, 56, 0
3, 51072, Note_on_c, 0, 57, 88
3, 51360, Note_on_c, 0, 57, 0
3, 51360, Note_on_c, 0, 56, 72
3, 51456, Note_on_c, 0, 56, 0
3, 51456, Note_on_c, 0, 57, 72
3, 51504, Note_on_c, 0, 57, 0
3, 51504, Note_on_c, 0, 60, 72
3, 51552, Note_on_c, 0, 60, 0
3, 51552, Note_on_c, 0, 59, 72
3, 51600, Note_on_c, 0, 59, 0
3, 51600, Note_on_c, 0, 57, 72
3, 51648, Note_on_c, 0, 57, 0
3, 51648, Note_on_c, 0, 56, 72
3, 51696, Note_on_c, 0, 56, 0
3, 51696, Note_on_c, 0, 57, 72
3, 51744, Note_on_c, 0, 57, 0
3, 51744, Note_on_c, 0, 54, 72
3, 51792, Note_on_c, 0, 54, 0
3, 51792, Note_on_c, 0, 56, 72
3, 51840, Note_on_c, 0, 56, 0
3, 51840, Note_on_c, 0, 57, 72
3, 51888, Note_on_c, 0, 57, 0
3, 51888, Note_on_c, 0, 64, 72
3, 51936, Note_on_c, 0, 64, 0
3, 51936, Note_on_c, 0, 69, 72
3, 52128, Note_on_c, 0, 69, 0
3, 52128, Note_on_c, 0, 67, 72
3, 52224, Note_on_c, 0, 67, 0
3, 52224, Note_on_c, 0, 67, 72
3, 52272, Note_on_c, 0, 67, 0
3, 52272, Note_on_c, 0, 65, 72
3, 52320, Note_on_c, 0, 65, 0
3, 52320, Note_on_c, 0, 64, 72
3, 52368, Note_on_c, 0, 64, 0
3, 52368, Note_on_c, 0, 62, 72
3, 52416, Note_on_c, 0, 62, 0
3, 52416, Note_on_c, 0, 61, 72
3, 52464, Note_on_c, 0, 61, 0
3, 52464, Note_on_c, 0, 62, 72
3, 52512, Note_on_c, 0, 62, 0
3, 52512, Note_on_c, 0, 59, 72
3, 52560, Note_on_c, 0, 59, 0
3, 52560, Note_on_c, 0, 61, 72
3, 52608, Note_on_c, 0, 61, 0
3, 52608, Note_on_c, 0, 62, 72
3, 52704, Note_on_c, 0, 62, 0
3, 52896, Note_on_c, 0, 54, 72
3, 52992, Note_on_c, 0, 54, 0
3, 52992, Note_on_c, 0, 55, 72
3, 53040, Note_on_c, 0, 55, 0
3, 53040, Note_on_c, 0, 57, 72
3, 53088, Note_on_c, 0, 57, 0
3, 53088, Note_on_c, 0, 58, 72
3, 53136, Note_on_c, 0, 58, 0
3, 53136, Note_on_c, 0, 60, 72
3, 53184, Note_on_c, 0, 60, 0
3, 53184, Note_on_c, 0, 62, 72
3, 53232, Note_on_c, 0, 62, 0
3, 53232, Note_on_c, 0, 60, 72
3, 53280, Note_on_c, 0, 60, 0
3, 53280, Note_on_c, 0, 64, 72
3, 53328, Note_on_c, 0, 64, 0
3, 53328, Note_on_c, 0, 62, 72
3, 53376, Note_on_c, 0, 62, 0
3, 53376, Note_on_c, 0, 64, 72
3, 53424, Note_on_c, 0, 64, 0
3, 53424, Note_on_c, 0, 65, 72
3, 53472, Note_on_c, 0, 65, 0
3, 53472, Note_on_c, 0, 67, 72
3, 53520, Note_on_c, 0, 67, 0
3, 53520, Note_on_c, 0, 69, 72
3, 53568, Note_on_c, 0, 69, 0
3, 53568, Note_on_c, 0, 70, 72
3, 53616, Note_on_c, 0, 70, 0
3, 53616, Note_on_c, 0, 69, 72
3, 53664, Note_on_c, 0, 69, 0
3, 53664, Note_on_c, 0, 72, 72
3, 53712, Note_on_c, 0, 72, 0
3, 53712, Note_on_c, 0, 70, 72
3, 53760, Note_on_c, 0, 70, 0
3, 53760, Note_on_c, 0, 72, 72
3, 53856, Note_on_c, 0, 72, 0
3, 54192, Note_on_c, 0, 69, 72
3, 54240, Note_on_c, 0, 69, 0
3, 54240, Note_on_c, 0, 67, 72
3, 54288, Note_on_c, 0, 67, 0
3, 54288, Note_on_c, 0, 65, 72
3, 54336, Note_on_c, 0, 65, 0
3, 54336, Note_on_c, 0, 64, 72
3, 54384, Note_on_c, 0, 64, 0
3, 54384, Note_on_c, 0, 65, 72
3, 54432, Note_on_c, 0, 65, 0
3, 54432, Note_on_c, 0, 62, 72
3, 54480, Note_on_c, 0, 62, 0
3, 54480, Note_on_c, 0, 64, 72
3, 54528, Note_on_c, 0, 64, 0
3, 54528, Note_on_c, 0, 65, 72
3, 54576, Note_on_c, 0, 65, 0
3, 54576, Note_on_c, 0, 60, 72
3, 54624, Note_on_c, 0, 60, 0
3, 54624, Note_on_c, 0, 65, 72
3, 54816, Note_on_c, 0, 65, 0
3, 54816, Note_on_c, 0, 64, 72
3, 54912, Note_on_c, 0, 64, 0
3, 54912, Note_on_c, 0, 64, 72
3, 55008, Note_on_c, 0, 64, 0
3, 55008, Note_on_c, 0, 62, 72
3, 55152, Note_on_c, 0, 62, 0
3, 55152, Note_on_c, 0, 59, 72
3, 55200, Note_on_c, 0, 59, 0
3, 55200, Note_on_c, 0, 61, 72
3, 55248, Note_on_c, 0, 61, 0
3, 55248, Note_on_c, 0, 64, 72
3, 55296, Note_on_c, 0, 64, 0
3, 55296, Note_on_c, 0, 57, 72
3, 55344, Note_on_c, 0, 57, 0
3, 55344, Note_on_c, 0, 59, 72
3, 55392, Note_on_c, 0, 59, 0
3, 55392, Note_on_c, 0, 61, 72
3, 55440, Note_on_c, 0, 61, 0
3, 55440, Note_on_c, 0, 62, 72
3, 55488, Note_on_c, 0, 62, 0
3, 55488, Note_on_c, 0, 64, 72
3, 55536, Note_on_c, 0, 64, 0
3, 55536, Note_on_c, 0, 62, 72
3, 55584, Note_on_c, 0, 62, 0
3, 55584, Note_on_c, 0, 65, 72
3, 55632, Note_on_c, 0, 65, 0
3, 55632, Note_on_c, 0, 64, 72
3, 55680, Note_on_c, 0, 64, 0
3, 55680, Note_on_c, 0, 67, 72
3, 55728, Note_on_c, 0, 67, 0
3, 55728, Note_on_c, 0, 66, 72
3, 55776, Note_on_c, 0, 66, 0
3, 55776, Note_on_c, 0, 68, 72
3, 55824, Note_on_c, 0, 68, 0
3, 55824, Note_on_c, 0, 69, 72
3, 55872, Note_on_c, 0, 69, 0
3, 55872, Note_on_c, 0, 71, 72
3, 55920, Note_on_c, 0, 71, 0
3, 55920, Note_on_c, 0, 69, 72
3, 55968, Note_on_c, 0, 69, 0
3, 55968, Note_on_c, 0, 72, 72
3, 56016, Note_on_c, 0, 72, 0
3, 56016, Note_on_c, 0, 71, 72
3, 56064, Note_on_c, 0, 71, 0
3, 56064, Note_on_c, 0, 74, 72
3, 56112, Note_on_c, 0, 74, 0
3, 56112, Note_on_c, 0, 72, 72
3, 56160, Note_on_c, 0, 72, 0
3, 56160, Note_on_c, 0, 71, 72
3, 56208, Note_on_c, 0, 71, 0
3, 56208, Note_on_c, 0, 69, 72
3, 56256, Note_on_c, 0, 69, 0
3, 56256, Note_on_c, 0, 71, 72
3, 56304, Note_on_c, 0, 71, 0
3, 56304, Note_on_c, 0, 72, 72
3, 56352, Note_on_c, 0, 72, 0
3, 56352, Note_on_c, 0, 71, 72
3, 56400, Note_on_c, 0, 71, 0
3, 56400, Note_on_c, 0, 74, 72
3, 56448, Note_on_c, 0, 74, 0
3, 56448, Note_on_c, 0, 74, 72
3, 56496, Note_on_c, 0, 74, 0
3, 56496, Note_on_c, 0, 71, 72
3, 56544, Note_on_c, 0, 71, 0
3, 56544, Note_on_c, 0, 72, 72
3, 56592, Note_on_c, 0, 72, 0
3, 56592, Note_on_c, 0, 72, 72
3, 56640, Note_on_c, 0, 72, 0
3, 56640, Note_on_c, 0, 72, 72
3, 56688, Note_on_c, 0, 72, 0
3, 56688, Note_on_c, 0, 70, 72
3, 56736, Note_on_c, 0, 70, 0
3, 56736, Note_on_c, 0, 71, 72
3, 56784, Note_on_c, 0, 71, 0
3, 56784, Note_on_c, 0, 71, 72
3, 56832, Note_on_c, 0, 71, 0
3, 56832, Note_on_c, 0, 71, 72
3, 56880, Note_on_c, 0, 71, 0
3, 56880, Note_on_c, 0, 68, 72
3, 56928, Note_on_c, 0, 68, 0
3, 56928, Note_on_c, 0, 69, 72
3, 56976, Note_on_c, 0, 69, 0
3, 56976, Note_on_c, 0, 69, 72
3, 57024, Note_on_c, 0, 69, 0
3, 57024, Note_on_c, 0, 69, 72
3, 57072, Note_on_c, 0, 69, 0
3, 57072, Note_on_c, 0, 67, 72
3, 57120, Note_on_c, 0, 67, 0
3, 57120, Note_on_c, 0, 65, 72
3, 57168, Note_on_c, 0, 65, 0
3, 57168, Note_on_c, 0, 64, 72
3, 57216, Note_on_c, 0, 64, 0
3, 57216, Note_on_c, 0, 65, 72
3, 57264, Note_on_c, 0, 65, 0
3, 57264, Note_on_c, 0, 69, 72
3, 57312, Note_on_c, 0, 69, 0
3, 57312, Note_on_c, 0, 67, 72
3, 57360, Note_on_c, 0, 67, 0
3, 57360, Note_on_c, 0, 65, 72
3, 57408, Note_on_c, 0, 65, 0
3, 57408, Note_on_c, 0, 64, 72
3, 57456, Note_on_c, 0, 64, 0
3, 57456, Note_on_c, 0, 65, 72
3, 57504, Note_on_c, 0, 65, 0
3, 57504, Note_on_c, 0, 62, 72
3, 57552, Note_on_c, 0, 62, 0
3, 57552, Note_on_c, 0, 64, 72
3, 57600, Note_on_c, 0, 64, 0
3, 57600, Note_on_c, 0, 65, 72
3, 57648, Note_on_c, 0, 65, 0
3, 57648, Note_on_c, 0, 69, 72
3, 57696, Note_on_c, 0, 69, 0
3, 57696, Note_on_c, 0, 72, 72
3, 57744, Note_on_c, 0, 72, 0
3, 57744, Note_on_c, 0, 70, 72
3, 57792, Note_on_c, 0, 70, 0
3, 57792, Note_on_c, 0, 72, 72
3, 57888, Note_on_c, 0, 72, 0
3, 58176, Note_on_c, 0, 72, 88
3, 58368, Note_on_c, 0, 72, 0
3, 58368, Note_on_c, 0, 71, 88
3, 58464, Note_on_c, 0, 71, 0
3, 58464, Note_on_c, 0, 76, 88
3, 58560, Note_on_c, 0, 76, 0
3, 58560, Note_on_c, 0, 70, 88
3, 58656, Note_on_c, 0, 70, 0
3, 58656, Note_on_c, 0, 69, 88
3, 58752, Note_on_c, 0, 69, 0
3, 58752, Note_on_c, 0, 67, 88
3, 58848, Note_on_c, 0, 67, 0
3, 58848, Note_on_c, 0, 72, 88
3, 58944, Note_on_c, 0, 72, 0
3, 58944, Note_on_c, 0, 67, 88
3, 58968, Note_on_c, 0, 67, 0
3, 58968, Note_on_c, 0, 65, 88
3, 58992, Note_on_c, 0, 65, 0
3, 58992, Note_on_c, 0, 67, 88
3, 59016, Note_on_c, 0, 67, 0
3, 59016, Note_on_c, 0, 65, 88
3, 59040, Note_on_c, 0, 65, 0
3, 59040, Note_on_c, 0, 67, 88
3, 59064, Note_on_c, 0, 67, 0
3, 59064, Note_on_c, 0, 65, 88
3, 59088, Note_on_c, 0, 65, 0
3, 59088, Note_on_c, 0, 64, 88
3, 59112, Note_on_c, 0, 64, 0
3, 59112, Note_on_c, 0, 65, 88
3, 59136, Note_on_c, 0, 65, 0
3, 59136, Note_on_c, 0, 64, 88
3, 59232, Note_on_c, 0, 64, 0
3, 59232, Note_on_c, 0, 65, 88
3, 59328, Note_on_c, 0, 65, 0
3, 59328, Note_on_c, 0, 67, 88
3, 59376, Note_on_c, 0, 67, 0
3, 59376, Note_on_c, 0, 65, 88
3, 59424, Note_on_c, 0, 65, 0
3, 59424, Note_on_c, 0, 67, 88
3, 59520, Note_on_c, 0, 67, 0
3, 59520, Note_on_c, 0, 60, 88
3, 59616, Note_on_c, 0, 60, 0
3, 59616, Note_on_c, 0, 72, 72
3, 59760, Note_on_c, 0, 72, 0
3, 59760, Note_on_c, 0, 70, 72
3, 59808, Note_on_c, 0, 70, 0
3, 59808, Note_on_c, 0, 69, 72
3, 59856, Note_on_c, 0, 69, 0
3, 59856, Note_on_c, 0, 72, 72
3, 59904, Note_on_c, 0, 72, 0
3, 59904, Note_on_c, 0, 70, 72
3, 60000, Note_on_c, 0, 70, 0
3, 60000, Note_on_c, 0, 69, 72
3, 60096, Note_on_c, 0, 69, 0
3, 60096, Note_on_c, 0, 67, 72
3, 60192, Note_on_c, 0, 67, 0
3, 60192, Note_on_c, 0, 66, 72
3, 60288, Note_on_c, 0, 66, 0
3, 60288, Note_on_c, 0, 67, 72
3, 60336, Note_on_c, 0, 67, 0
3, 60336, Note_on_c, 0, 65, 72
3, 60384, Note_on_c, 0, 65, 0
3, 60384, Note_on_c, 0, 63, 72
3, 60432, Note_on_c, 0, 63, 0
3, 60432, Note_on_c, 0, 62, 72
3, 60480, Note_on_c, 0, 62, 0
3, 60480, Note_on_c, 0, 60, 72
3, 60576, Note_on_c, 0, 60, 0
3, 60768, Note_on_c, 0, 62, 88
3, 60864, Note_on_c, 0, 62, 0
3, 60864, Note_on_c, 0, 55, 88
3, 60960, Note_on_c, 0, 55, 0
3, 60960, Note_on_c, 0, 57, 88
3, 61056, Note_on_c, 0, 57, 0
3, 61152, Note_on_c, 0, 58, 88
3, 61248, Note_on_c, 0, 58, 0
3, 61248, Note_on_c, 0, 60, 88
3, 61344, Note_on_c, 0, 60, 0
3, 61344, Note_on_c, 0, 62, 88
3, 61440, Note_on_c, 0, 62, 0
3, 61536, Note_on_c, 0, 63, 88
3, 61632, Note_on_c, 0, 63, 0
3, 61632, Note_on_c, 0, 62, 88
3, 61728, Note_on_c, 0, 62, 0
3, 61728, Note_on_c, 0, 60, 88
3, 61824, Note_on_c, 0, 60, 0
3, 61920, Note_on_c, 0, 58, 88
3, 61968, Note_on_c, 0, 58, 0
3, 61968, Note_on_c, 0, 57, 88
3, 62016, Note_on_c, 0, 57, 0
3, 62016, Note_on_c, 0, 58, 88
3, 62112, Note_on_c, 0, 58, 0
3, 62112, Note_on_c, 0, 60, 88
3, 62208, Note_on_c, 0, 60, 0
3, 62208, Note_on_c, 0, 62, 88
3, 62256, Note_on_c, 0, 62, 0
3, 62256, Note_on_c, 0, 63, 72
3, 62304, Note_on_c, 0, 63, 0
3, 62304, Note_on_c, 0, 62, 72
3, 62352, Note_on_c, 0, 62, 0
3, 62352, Note_on_c, 0, 61, 72
3, 62400, Note_on_c, 0, 61, 0
3, 62400, Note_on_c, 0, 62, 72
3, 62448, Note_on_c, 0, 62, 0
3, 62448, Note_on_c, 0, 65, 72
3, 62496, Note_on_c, 0, 65, 0
3, 62496, Note_on_c, 0, 64, 72
3, 62544, Note_on_c, 0, 64, 0
3, 62544, Note_on_c, 0, 67, 72
3, 62592, Note_on_c, 0, 67, 0
3, 62592, Note_on_c, 0, 65, 72
3, 62640, Note_on_c, 0, 65, 0
3, 62640, Note_on_c, 0, 64, 72
3, 62688, Note_on_c, 0, 64, 0
3, 62688, Note_on_c, 0, 65, 72
3, 62832, Note_on_c, 0, 65, 0
3, 62832, Note_on_c, 0, 64, 72
3, 62880, Note_on_c, 0, 64, 0
3, 62880, Note_on_c, 0, 62, 72
3, 62928, Note_on_c, 0, 62, 0
3, 62928, Note_on_c, 0, 65, 72
3, 62976, Note_on_c, 0, 65, 0
3, 62976, Note_on_c, 0, 64, 72
3, 63024, Note_on_c, 0, 64, 0
3, 63024, Note_on_c, 0, 66, 72
3, 63072, Note_on_c, 0, 66, 0
3, 63072, Note_on_c, 0, 67, 72
3, 63216, Note_on_c, 0, 67, 0
3, 63216, Note_on_c, 0, 65, 72
3, 63264, Note_on_c, 0, 65, 0
3, 63264, Note_on_c, 0, 64, 72
3, 63312, Note_on_c, 0, 64, 0
3, 63312, Note_on_c, 0, 67, 72
3, 63360, Note_on_c, 0, 67, 0
3, 63360, Note_on_c, 0, 65, 72
3, 63408, Note_on_c, 0, 65, 0
3, 63408, Note_on_c, 0, 67, 72
3, 63456, Note_on_c, 0, 67, 0
3, 63456, Note_on_c, 0, 69, 72
3, 63600, Note_on_c, 0, 69, 0
3, 63600, Note_on_c, 0, 67, 72
3, 63648, Note_on_c, 0, 67, 0
3, 63648, Note_on_c, 0, 65, 72
3, 63696, Note_on_c, 0, 65, 0
3, 63696, Note_on_c, 0, 69, 72
3, 63744, Note_on_c, 0, 69, 0
3, 63744, Note_on_c, 0, 68, 72
3, 63792, Note_on_c, 0, 68, 0
3, 63792, Note_on_c, 0, 69, 72
3, 63840, Note_on_c, 0, 69, 0
3, 63840, Note_on_c, 0, 71, 72
3, 64032, Note_on_c, 0, 71, 0
3, 64032, Note_on_c, 0, 69, 72
3, 64080, Note_on_c, 0, 69, 0
3, 64080, Note_on_c, 0, 68, 72
3, 64128, Note_on_c, 0, 68, 0
3, 64128, Note_on_c, 0, 69, 72
3, 64176, Note_on_c, 0, 69, 0
3, 64176, Note_on_c, 0, 64, 72
3, 64224, Note_on_c, 0, 64, 0
3, 64224, Note_on_c, 0, 69, 72
3, 64272, Note_on_c, 0, 69, 0
3, 64272, Note_on_c, 0, 69, 72
3, 64320, Note_on_c, 0, 69, 0
3, 64320, Note_on_c, 0, 69, 72
3, 64368, Note_on_c, 0, 69, 0
3, 64368, Note_on_c, 0, 66, 72
3, 64416, Note_on_c, 0, 66, 0
3, 64416, Note_on_c, 0, 67, 72
3, 64464, Note_on_c, 0, 67, 0
3, 64464, Note_on_c, 0, 67, 72
3, 64512, Note_on_c, 0, 67, 0
3, 64512, Note_on_c, 0, 67, 72
3, 64560, Note_on_c, 0, 67, 0
3, 64560, Note_on_c, 0, 64, 72
3, 64608, Note_on_c, 0, 64, 0
3, 64608, Note_on_c, 0, 65, 72
3, 64656, Note_on_c, 0, 65, 0
3, 64656, Note_on_c, 0, 62, 72
3, 64704, Note_on_c, 0, 62, 0
3, 64704, Note_on_c, 0, 59, 72
3, 64752, Note_on_c, 0, 59, 0
3, 64752, Note_on_c, 0, 62, 72
3, 64800, Note_on_c, 0, 62, 0
3, 64800, Note_on_c, 0, 61, 72
3, 64848, Note_on_c, 0, 61, 0
3, 64848, Note_on_c, 0, 64, 72
3, 64896, Note_on_c, 0, 64, 0
3, 64896, Note_on_c, 0, 57, 72
3, 64992, Note_on_c, 0, 57, 0
3, 64992, Note_on_c, 0, 62, 72
3, 65040, Note_on_c, 0, 62, 0
3, 65040, Note_on_c, 0, 60, 72
3, 65088, Note_on_c, 0, 60, 0
3, 65088, Note_on_c, 0, 59, 72
3, 65184, Note_on_c, 0, 59, 0
3, 65184, Note_on_c, 0, 58, 88
3, 65280, Note_on_c, 0, 58, 0
3, 65280, Note_on_c, 0, 58, 88
3, 65328, Note_on_c, 0, 58, 0
3, 65328, Note_on_c, 0, 56, 88
3, 65376, Note_on_c, 0, 56, 0
3, 65376, Note_on_c, 0, 57, 88
3, 65424, Note_on_c, 0, 57, 0
3, 65424, Note_on_c, 0, 57, 88
3, 65472, Note_on_c, 0, 57, 0
3, 65472, Note_on_c, 0, 57, 88
3, 65520, Note_on_c, 0, 57, 0
3, 65520, Note_on_c, 0, 54, 88
3, 65568, Note_on_c, 0, 54, 0
3, 65568, Note_on_c, 0, 55, 88
3, 65616, Note_on_c, 0, 55, 0
3, 65616, Note_on_c, 0, 55, 88
3, 65664, Note_on_c, 0, 55, 0
3, 65664, Note_on_c, 0, 55, 88
3, 65712, Note_on_c, 0, 55, 0
3, 65712, Note_on_c, 0, 52, 88
3, 65760, Note_on_c, 0, 52, 0
3, 65760, Note_on_c, 0, 53, 88
3, 65808, Note_on_c, 0, 53, 0
3, 65808, Note_on_c, 0, 53, 88
3, 65856, Note_on_c, 0, 53, 0
3, 65856, Note_on_c, 0, 53, 88
3, 65904, Note_on_c, 0, 53, 0
3, 65904, Note_on_c, 0, 51, 88
3, 65952, Note_on_c, 0, 51, 0
3, 65952, Note_on_c, 0, 50, 88
3, 66000, Note_on_c, 0, 50, 0
3, 66000, Note_on_c, 0, 49, 88
3, 66048, Note_on_c, 0, 49, 0
3, 66048, Note_on_c, 0, 50, 88
3, 66096, Note_on_c, 0, 50, 0
3, 66096, Note_on_c, 0, 53, 72
3, 66144, Note_on_c, 0, 53, 0
3, 66144, Note_on_c, 0, 52, 72
3, 66192, Note_on_c, 0, 52, 0
3, 66192, Note_on_c, 0, 50, 72
3, 66240, Note_on_c, 0, 50, 0
3, 66240, Note_on_c, 0, 49, 72
3, 66288, Note_on_c, 0, 49, 0
3, 66288, Note_on_c, 0, 50, 72
3, 66336, Note_on_c, 0, 50, 0
3, 66336, Note_on_c, 0, 47, 72
3, 66384, Note_on_c, 0, 47, 0
3, 66384, Note_on_c, 0, 49, 72
3, 66432, Note_on_c, 0, 49, 0
3, 66432, Note_on_c, 0, 50, 72
3, 66480, Note_on_c, 0, 50, 0
3, 66480, Note_on_c, 0, 52, 72
3, 66528, Note_on_c, 0, 52, 0
3, 66528, Note_on_c, 0, 53, 72
3, 66576, Note_on_c, 0, 53, 0
3, 66576, Note_on_c, 0, 55, 72
3, 66624, Note_on_c, 0, 55, 0
3, 66624, Note_on_c, 0, 57, 72
3, 66720, Note_on_c, 0, 57, 0
3, 66720, Note_on_c, 0, 62, 72
3, 66816, Note_on_c, 0, 62, 0
3, 66816, Note_on_c, 0, 54, 72
3, 66912, Note_on_c, 0, 54, 0
3, 66912, Note_on_c, 0, 57, 72
3, 67008, Note_on_c, 0, 57, 0
3, 67008, Note_on_c, 0, 62, 72
3, 67104, Note_on_c, 0, 62, 0
3, 67104, Note_on_c, 0, 66, 72
3, 67200, Note_on_c, 0, 66, 0
3, 67200, Note_on_c, 0, 67, 72
3, 67344, Note_on_c, 0, 67, 0
3, 67344, Note_on_c, 0, 65, 72
3, 67392, Note_on_c, 0, 65, 0
3, 67392, Note_on_c, 0, 64, 72
3, 67488, Note_on_c, 0, 64, 0
3, 67488, Note_on_c, 0, 63, 72
3, 67584, Note_on_c, 0, 63, 0
3, 67584, Note_on_c, 0, 63, 72
3, 67632, Note_on_c, 0, 63, 0
3, 67632, Note_on_c, 0, 62, 72
3, 67680, Note_on_c, 0, 62, 0
3, 67680, Note_on_c, 0, 60, 72
3, 67728, Note_on_c, 0, 60, 0
3, 67728, Note_on_c, 0, 63, 72
3, 67776, Note_on_c, 0, 63, 0
3, 67776, Note_on_c, 0, 62, 72
3, 67872, Note_on_c, 0, 62, 0
3, 67872, Note_on_c, 0, 62, 72
3, 67968, Note_on_c, 0, 62, 0
3, 67968, Note_on_c, 0, 62, 72
3, 68064, Note_on_c, 0, 62, 0
3, 68064, Note_on_c, 0, 58, 72
3, 68112, Note_on_c, 0, 58, 0
3, 68112, Note_on_c, 0, 58, 72
3, 68160, Note_on_c, 0, 58, 0
3, 68160, Note_on_c, 0, 58, 72
3, 68256, Note_on_c, 0, 58, 0
3, 68256, Note_on_c, 0, 55, 72
3, 68304, Note_on_c, 0, 55, 0
3, 68304, Note_on_c, 0, 55, 72
3, 68352, Note_on_c, 0, 55, 0
3, 68352, Note_on_c, 0, 55, 72
3, 68448, Note_on_c, 0, 55, 0
3, 68448, Note_on_c, 0, 58, 72
3, 68496, Note_on_c, 0, 58, 0
3, 68496, Note_on_c, 0, 58, 72
3, 68544, Note_on_c, 0, 58, 0
3, 68544, Note_on_c, 0, 52, 72
3, 68640, Note_on_c, 0, 52, 0
3, 68784, Note_on_c, 0, 65, 72
3, 68832, Note_on_c, 0, 65, 0
3, 68832, Note_on_c, 0, 65, 72
3, 68880, Note_on_c, 0, 65, 0
3, 68880, Note_on_c, 0, 64, 72
3, 68928, Note_on_c, 0, 64, 0
3, 68928, Note_on_c, 0, 64, 72
3, 68976, Note_on_c, 0, 64, 0
3, 68976, Note_on_c, 0, 67, 72
3, 69024, Note_on_c, 0, 67, 0
3, 69024, Note_on_c, 0, 67, 72
3, 69072, Note_on_c, 0, 67, 0
3, 69072, Note_on_c, 0, 66, 72
3, 69120, Note_on_c, 0, 66, 0
3, 69120, Note_on_c, 0, 66, 72
3, 69168, Note_on_c, 0, 66, 0
3, 69168, Note_on_c, 0, 69, 72
3, 69216, Note_on_c, 0, 69, 0
3, 69216, Note_on_c, 0, 69, 72
3, 69264, Note_on_c, 0, 69, 0
3, 69264, Note_on_c, 0, 67, 72
3, 69312, Note_on_c, 0, 67, 0
3, 69312, Note_on_c, 0, 67, 72
3, 69408, Note_on_c, 0, 67, 0
3, 69408, Note_on_c, 0, 70, 72
3, 69504, Note_on_c, 0, 70, 0
3, 69504, Note_on_c, 0, 69, 72
3, 69600, Note_on_c, 0, 69, 0
3, 69600, Note_on_c, 0, 72, 72
3, 69696, Note_on_c, 0, 72, 0
3, 69696, Note_on_c, 0, 70, 72
3, 69744, Note_on_c, 0, 70, 0
3, 69744, Note_on_c, 0, 69, 72
3, 69792, Note_on_c, 0, 69, 0
3, 69792, Note_on_c, 0, 70, 88
3, 69888, Note_on_c, 0, 70, 0
3, 69888, Note_on_c, 0, 70, 88
3, 69936, Note_on_c, 0, 70, 0
3, 69936, Note_on_c, 0, 68, 88
3, 69984, Note_on_c, 0, 68, 0
3, 69984, Note_on_c, 0, 69, 88
3, 70032, Note_on_c, 0, 69, 0
3, 70032, Note_on_c, 0, 69, 88
3, 70080, Note_on_c, 0, 69, 0
3, 70080, Note_on_c, 0, 69, 88
3, 70128, Note_on_c, 0, 69, 0
3, 70128, Note_on_c, 0, 66, 88
3, 70176, Note_on_c, 0, 66, 0
3, 70176, Note_on_c, 0, 67, 88
3, 70224, Note_on_c, 0, 67, 0
3, 70224, Note_on_c, 0, 67, 88
3, 70272, Note_on_c, 0, 67, 0
3, 70272, Note_on_c, 0, 67, 88
3, 70320, Note_on_c, 0, 67, 0
3, 70320, Note_on_c, 0, 64, 88
3, 70368, Note_on_c, 0, 64, 0
3, 70368, Note_on_c, 0, 65, 88
3, 70416, Note_on_c, 0, 65, 0
3, 70416, Note_on_c, 0, 65, 88
3, 70464, Note_on_c, 0, 65, 0
3, 70464, Note_on_c, 0, 65, 88
3, 70512, Note_on_c, 0, 65, 0
3, 70512, Note_on_c, 0, 63, 88
3, 70560, Note_on_c, 0, 63, 0
3, 70560, Note_on_c, 0, 62, 88
3, 70608, Note_on_c, 0, 62, 0
3, 70608, Note_on_c, 0, 61, 88
3, 70656, Note_on_c, 0, 61, 0
3, 70656, Note_on_c, 0, 62, 88
3, 70704, Note_on_c, 0, 62, 0
3, 70704, Note_on_c, 0, 65, 88
3, 70752, Note_on_c, 0, 65, 0
3, 70752, Note_on_c, 0, 64, 88
3, 70800, Note_on_c, 0, 64, 0
3, 70800, Note_on_c, 0, 62, 88
3, 70848, Note_on_c, 0, 62, 0
3, 70848, Note_on_c, 0, 61, 88
3, 70896, Note_on_c, 0, 61, 0
3, 70896, Note_on_c, 0, 62, 88
3, 70944, Note_on_c, 0, 62, 0
3, 70944, Note_on_c, 0, 59, 88
3, 70992, Note_on_c, 0, 59, 0
3, 70992, Note_on_c, 0, 61, 88
3, 71040, Note_on_c, 0, 61, 0
3, 71040, Note_on_c, 0, 62, 88
3, 71088, Note_on_c, 0, 62, 0
3, 71088, Note_on_c, 0, 58, 88
3, 71136, Note_on_c, 0, 58, 0
3, 71136, Note_on_c, 0, 57, 88
3, 71184, Note_on_c, 0, 57, 0
3, 71184, Note_on_c, 0, 55, 88
3, 71232, Note_on_c, 0, 55, 0
3, 71232, Note_on_c, 0, 57, 88
3, 71280, Note_on_c, 0, 57, 0
3, 71280, Note_on_c, 0, 62, 88
3, 71304, Note_on_c, 0, 62, 0
3, 71304, Note_on_c, 0, 60, 88
3, 71328, Note_on_c, 0, 60, 0
3, 71328, Note_on_c, 0, 58, 88
3, 71352, Note_on_c, 0, 58, 0
3, 71352, Note_on_c, 0, 57, 88
3, 71376, Note_on_c, 0, 57, 0
3, 71376, Note_on_c, 0, 55, 88
3, 71424, Note_on_c, 0, 55, 0
3, 71424, Note_on_c, 0, 53, 88
3, 71520, Note_on_c, 0, 53, 0
3, 71520, Note_on_c, 0, 52, 88
3, 71568, Note_on_c, 0, 52, 0
3, 71568, Note_on_c, 0, 50, 88
3, 71616, Note_on_c, 0, 50, 0
3, 71616, Note_on_c, 0, 52, 88
3, 71664, Note_on_c, 0, 52, 0
3, 71664, Note_on_c, 0, 53, 88
3, 71712, Note_on_c, 0, 53, 0
3, 71712, Note_on_c, 0, 55, 88
3, 71808, Note_on_c, 0, 55, 0
3, 71808, Note_on_c, 0, 55, 88
3, 71904, Note_on_c, 0, 55, 0
3, 71904, Note_on_c, 0, 54, 88
3, 72096, Note_on_c, 0, 54, 0
3, 72192, End_track
4, 0, Start_track
4, 0, Program_c, 0, 0
4, 2112, Program_c, 0, 0
4, 2112, Note_on_c, 0, 57, 88
4, 2304, Note_on_c, 0, 57, 0
4, 2304, Program_c, 0, 0
4, 2304, Note_on_c, 0, 55, 88
4, 2400, Note_on_c, 0, 55, 0
4, 2400, Note_on_c, 0, 60, 88
4, 2496, Note_on_c, 0, 60, 0
4, 2496, Program_c, 0, 0
4, 2496, Note_on_c, 0, 54, 88
4, 2592, Note_on_c, 0, 54, 0
4, 2592, Note_on_c, 0, 53, 88
4, 2688, Note_on_c, 0, 53, 0
4, 2688, Program_c, 0, 0
4, 2688, Note_on_c, 0, 52, 88
4, 2784, Note_on_c, 0, 52, 0
4, 2784, Note_on_c, 0, 57, 88
4, 2880, Note_on_c, 0, 57, 0
4, 2880, Note_on_c, 0, 52, 88
4, 2904, Note_on_c, 0, 52, 0
4, 2904, Note_on_c, 0, 50, 88
4, 2928, Note_on_c, 0, 50, 0
4, 2928, Note_on_c, 0, 52, 88
4, 2952, Note_on_c, 0, 52, 0
4, 2952, Note_on_c, 0, 50, 88
4, 2976, Note_on_c, 0, 50, 0
4, 2976, Note_on_c, 0, 52, 88
4, 3000, Note_on_c, 0, 52, 0
4, 3000, Note_on_c, 0, 50, 88
4, 3024, Note_on_c, 0, 50, 0
4, 3024, Note_on_c, 0, 48, 88
4, 3048, Note_on_c, 0, 48, 0
4, 3048, Note_on_c, 0, 50, 88
4, 3072, Note_on_c, 0, 50, 0
4, 3072, Program_c, 0, 0
4, 3072, Note_on_c, 0, 48, 88
4, 3168, Note_on_c, 0, 48, 0
4, 3168, Note_on_c, 0, 50, 88
4, 3264, Note_on_c, 0, 50, 0
4, 3264, Program_c, 0, 0
4, 3264, Note_on_c, 0, 52, 88
4, 3312, Note_on_c, 0, 52, 0
4, 3312, Note_on_c, 0, 50, 88
4, 3360, Note_on_c, 0, 50, 0
4, 3360, Note_on_c, 0, 52, 88
4, 3456, Note_on_c, 0, 52, 0
4, 3456, Program_c, 0, 0
4, 3456, Note_on_c, 0, 45, 88
4, 3552, Note_on_c, 0, 45, 0
4, 3552, Note_on_c, 0, 55, 72
4, 3648, Note_on_c, 0, 55, 0
4, 3648, Note_on_c, 0, 53, 72
4, 3744, Note_on_c, 0, 53, 0
4, 3744, Note_on_c, 0, 52, 72
4, 3840, Note_on_c, 0, 52, 0
4, 3840, Note_on_c, 0, 53, 72
4, 3936, Note_on_c, 0, 53, 0
4, 3936, Note_on_c, 0, 58, 72
4, 4032, Note_on_c, 0, 58, 0
4, 4032, Note_on_c, 0, 57, 72
4, 4128, Note_on_c, 0, 57, 0
4, 4128, Note_on_c, 0, 56, 72
4, 4224, Note_on_c, 0, 56, 0
4, 4224, Note_on_c, 0, 57, 72
4, 4416, Note_on_c, 0, 57, 0
4, 4416, Program_c, 0, 0
4, 4464, Note_on_c, 0, 55, 72
4, 4512, Note_on_c, 0, 55, 0
4, 4512, Note_on_c, 0, 53, 72
4, 4560, Note_on_c, 0, 53, 0
4, 4560, Note_on_c, 0, 52, 72
4, 4608, Note_on_c, 0, 52, 0
4, 4608, Program_c, 0, 0
4, 4608, Note_on_c, 0, 53, 72
4, 4800, Note_on_c, 0, 53, 0
4, 4848, Program_c, 0, 0
4, 4848, Note_on_c, 0, 52, 72
4, 4896, Note_on_c, 0, 52, 0
4, 4896, Note_on_c, 0, 50, 72
4, 4944, Note_on_c, 0, 50, 0
4, 4944, Note_on_c, 0, 49, 72
4, 4992, Note_on_c, 0, 49, 0
4, 4992, Program_c, 0, 0
4, 4992, Note_on_c, 0, 50, 72
4, 5184, Note_on_c, 0, 50, 0
4, 5232, Program_c, 0, 0
4, 5232, Note_on_c, 0, 48, 72
4, 5280, Note_on_c, 0, 48, 0
4, 5280, Note_on_c, 0, 46, 72
4, 5328, Note_on_c, 0, 46, 0
4, 5328, Note_on_c, 0, 45, 72
4, 5376, Note_on_c, 0, 45, 0
4, 5376, Program_c, 0, 0
4, 5376, Note_on_c, 0, 46, 72
4, 5568, Note_on_c, 0, 46, 0
4, 5568, Note_on_c, 0, 48, 72
4, 5760, Note_on_c, 0, 48, 0
4, 5760, Program_c, 0, 0
4, 5760, Note_on_c, 0, 41, 72
4, 5808, Note_on_c, 0, 41, 0
4, 5808, Note_on_c, 0, 45, 72
4, 5856, Note_on_c, 0, 45, 0
4, 5856, Note_on_c, 0, 43, 72
4, 5904, Note_on_c, 0, 43, 0
4, 5904, Note_on_c, 0, 41, 72
4, 5952, Note_on_c, 0, 41, 0
4, 5952, Note_on_c, 0, 43, 72
4, 6000, Note_on_c, 0, 43, 0
4, 6000, Note_on_c, 0, 40, 72
4, 6048, Note_on_c, 0, 40, 0
4, 6048, Note_on_c, 0, 41, 72
4, 6096, Note_on_c, 0, 41, 0
4, 6096, Note_on_c, 0, 38, 72
4, 6144, Note_on_c, 0, 38, 0
4, 6144, Note_on_c, 0, 45, 72
4, 6192, Note_on_c, 0, 45, 0
4, 6192, Note_on_c, 0, 55, 72
4, 6240, Note_on_c, 0, 55, 0
4, 6240, Note_on_c, 0, 53, 72
4, 6288, Note_on_c, 0, 53, 0
4, 6288, Note_on_c, 0, 52, 72
4, 6336, Note_on_c, 0, 52, 0
4, 6336, Note_on_c, 0, 53, 72
4, 6384, Note_on_c, 0, 53, 0
4, 6384, Note_on_c, 0, 50, 72
4, 6432, Note_on_c, 0, 50, 0
4, 6432, Note_on_c, 0, 52, 72
4, 6480, Note_on_c, 0, 52, 0
4, 6480, Note_on_c, 0, 49, 72
4, 6528, Note_on_c, 0, 49, 0
4, 6528, Program_c, 0, 0
4, 6528, Note_on_c, 0, 50, 72
4, 6912, Note_on_c, 0, 50, 0
4, 6912, Program_c, 0, 0
4, 6912, Note_on_c, 0, 49, 72
4, 7008, Note_on_c, 0, 49, 0
4, 7008, Note_on_c, 0, 57, 72
4, 7104, Note_on_c, 0, 57, 0
4, 7104, Program_c, 0, 0
4, 7104, Note_on_c, 0, 50, 72
4, 7200, Note_on_c, 0, 50, 0
4, 7200, Note_on_c, 0, 53, 72
4, 7296, Note_on_c, 0, 53, 0
4, 7296, Program_c, 0, 0
4, 7296, Note_on_c, 0, 46, 72
4, 7392, Note_on_c, 0, 46, 0
4, 7392, Note_on_c, 0, 45, 72
4, 7488, Note_on_c, 0, 45, 0
4, 7488, Note_on_c, 0, 46, 72
4, 7584, Note_on_c, 0, 46, 0
4, 7584, Note_on_c, 0, 43, 72
4, 7680, Note_on_c, 0, 43, 0
4, 7680, Note_on_c, 0, 45, 72
4, 7728, Note_on_c, 0, 45, 0
4, 7728, Note_on_c, 0, 57, 72
4, 7776, Note_on_c, 0, 57, 0
4, 7776, Note_on_c, 0, 55, 72
4, 7824, Note_on_c, 0, 55, 0
4, 7824, Note_on_c, 0, 53, 72
4, 7872, Note_on_c, 0, 53, 0
4, 7872, Note_on_c, 0, 55, 72
4, 7920, Note_on_c, 0, 55, 0
4, 7920, Note_on_c, 0, 52, 72
4, 7968, Note_on_c, 0, 52, 0
4, 7968, Note_on_c, 0, 53, 72
4, 8016, Note_on_c, 0, 53, 0
4, 8016, Note_on_c, 0, 50, 72
4, 8064, Note_on_c, 0, 50, 0
4, 8064, Program_c, 0, 0
4, 8064, Note_on_c, 0, 52, 88
4, 8256, Note_on_c, 0, 52, 0
4, 8256, Program_c, 0, 0
4, 8256, Note_on_c, 0, 50, 88
4, 8352, Note_on_c, 0, 50, 0
4, 8352, Note_on_c, 0, 55, 88
4, 8448, Note_on_c, 0, 55, 0
4, 8448, Program_c, 0, 0
4, 8448, Note_on_c, 0, 49, 88
4, 8544, Note_on_c, 0, 49, 0
4, 8544, Note_on_c, 0, 48, 88
4, 8640, Note_on_c, 0, 48, 0
4, 8640, Program_c, 0, 0
4, 8640, Note_on_c, 0, 47, 88
4, 8736, Note_on_c, 0, 47, 0
4, 8736, Note_on_c, 0, 52, 88
4, 8832, Note_on_c, 0, 52, 0
4, 8832, Program_c, 0, 0
4, 8832, Note_on_c, 0, 45, 88
4, 9024, Note_on_c, 0, 45, 0
4, 9024, Program_c, 0, 0
4, 9120, Note_on_c, 0, 57, 72
4, 9168, Note_on_c, 0, 57, 0
4, 9168, Note_on_c, 0, 55, 72
4, 9216, Note_on_c, 0, 55, 0
4, 9216, Program_c, 0, 0
4, 9216, Note_on_c, 0, 54, 72
4, 9312, Note_on_c, 0, 54, 0
4, 9312, Note_on_c, 0, 50, 72
4, 9408, Note_on_c, 0, 50, 0
4, 9408, Note_on_c, 0, 52, 72
4, 9504, Note_on_c, 0, 52, 0
4, 9504, Note_on_c, 0, 54, 72
4, 9600, Note_on_c, 0, 54, 0
4, 9600, Note_on_c, 0, 43, 72
4, 9696, Note_on_c, 0, 43, 0
4, 9696, Note_on_c, 0, 45, 72
4, 9792, Note_on_c, 0, 45, 0
4, 9792, Note_on_c, 0, 46, 72
4, 9888, Note_on_c, 0, 46, 0
4, 9888, Note_on_c, 0, 43, 72
4, 9984, Note_on_c, 0, 43, 0
4, 9984, Note_on_c, 0, 48, 72
4, 10080, Note_on_c, 0, 48, 0
4, 10080, Note_on_c, 0, 50, 72
4, 10176, Note_on_c, 0, 50, 0
4, 10176, Note_on_c, 0, 52, 72
4, 10272, Note_on_c, 0, 52, 0
4, 10272, Note_on_c, 0, 48, 72
4, 10368, Note_on_c, 0, 48, 0
4, 10368, Program_c, 0, 0
4, 10368, Note_on_c, 0, 41, 72
4, 10416, Note_on_c, 0, 41, 0
4, 10416, Note_on_c, 0, 55, 72
4, 10464, Note_on_c, 0, 55, 0
4, 10464, Note_on_c, 0, 53, 72
4, 10512, Note_on_c, 0, 53, 0
4, 10512, Note_on_c, 0, 52, 72
4, 10560, Note_on_c, 0, 52, 0
4, 10560, Note_on_c, 0, 53, 72
4, 10608, Note_on_c, 0, 53, 0
4, 10608, Note_on_c, 0, 50, 72
4, 10656, Note_on_c, 0, 50, 0
4, 10656, Note_on_c, 0, 52, 72
4, 10704, Note_on_c, 0, 52, 0
4, 10704, Note_on_c, 0, 49, 72
4, 10752, Note_on_c, 0, 49, 0
4, 10752, Note_on_c, 0, 50, 72
4, 10800, Note_on_c, 0, 50, 0
4, 10800, Note_on_c, 0, 51, 72
4, 10848, Note_on_c, 0, 51, 0
4, 10848, Note_on_c, 0, 50, 72
4, 10896, Note_on_c, 0, 50, 0
4, 10896, Note_on_c, 0, 48, 72
4, 10944, Note_on_c, 0, 48, 0
4, 10944, Note_on_c, 0, 50, 72
4, 10992, Note_on_c, 0, 50, 0
4, 10992, Note_on_c, 0, 46, 72
4, 11040, Note_on_c, 0, 46, 0
4, 11040, Note_on_c, 0, 48, 72
4, 11088, Note_on_c, 0, 48, 0
4, 11088, Note_on_c, 0, 45, 72
4, 11136, Note_on_c, 0, 45, 0
4, 11136, Note_on_c, 0, 46, 72
4, 11184, Note_on_c, 0, 46, 0
4, 11184, Note_on_c, 0, 48, 72
4, 11232, Note_on_c, 0, 48, 0
4, 11232, Note_on_c, 0, 46, 72
4, 11280, Note_on_c, 0, 46, 0
4, 11280, Note_on_c, 0, 45, 72
4, 11328, Note_on_c, 0, 45, 0
4, 11328, Note_on_c, 0, 46, 72
4, 11376, Note_on_c, 0, 46, 0
4, 11376, Note_on_c, 0, 43, 72
4, 11424, Note_on_c, 0, 43, 0
4, 11424, Note_on_c, 0, 45, 72
4, 11472, Note_on_c, 0, 45, 0
4, 11472, Note_on_c, 0, 42, 72
4, 11520, Note_on_c, 0, 42, 0
4, 11520, Program_c, 0, 0
4, 11520, Note_on_c, 0, 43, 72
4, 11904, Note_on_c, 0, 43, 0
4, 11904, Note_on_c, 0, 43, 72
4, 12288, Note_on_c, 0, 43, 0
4, 12288, Program_c, 0, 0
4, 12288, Note_on_c, 0, 43, 72
4, 12336, Note_on_c, 0, 43, 0
4, 12336, Note_on_c, 0, 45, 72
4, 12384, Note_on_c, 0, 45, 0
4, 12384, Note_on_c, 0, 43, 72
4, 12432, Note_on_c, 0, 43, 0
4, 12432, Note_on_c, 0, 41, 72
4, 12480, Note_on_c, 0, 41, 0
4, 12480, Note_on_c, 0, 43, 72
4, 12528, Note_on_c, 0, 43, 0
4, 12528, Note_on_c, 0, 40, 72
4, 12576, Note_on_c, 0, 40, 0
4, 12576, Note_on_c, 0, 41, 72
4, 12624, Note_on_c, 0, 41, 0
4, 12624, Note_on_c, 0, 38, 72
4, 12672, Note_on_c, 0, 38, 0
4, 12672, Note_on_c, 0, 37, 72
4, 12720, Note_on_c, 0, 37, 0
4, 12720, Note_on_c, 0, 46, 72
4, 12768, Note_on_c, 0, 46, 0
4, 12768, Note_on_c, 0, 45, 72
4, 12816, Note_on_c, 0, 45, 0
4, 12816, Note_on_c, 0, 43, 72
4, 12864, Note_on_c, 0, 43, 0
4, 12864, Note_on_c, 0, 45, 72
4, 12912, Note_on_c, 0, 45, 0
4, 12912, Note_on_c, 0, 41, 72
4, 12960, Note_on_c, 0, 41, 0
4, 12960, Note_on_c, 0, 43, 72
4, 13008, Note_on_c, 0, 43, 0
4, 13008, Note_on_c, 0, 40, 72
4, 13056, Note_on_c, 0, 40, 0
4, 13056, Note_on_c, 0, 41, 72
4, 13152, Note_on_c, 0, 41, 0
4, 13152, Note_on_c, 0, 45, 72
4, 13248, Note_on_c, 0, 45, 0
4, 13248, Program_c, 0, 0
4, 13248, Note_on_c, 0, 50, 88
4, 13440, Note_on_c, 0, 50, 0
4, 13440, Program_c, 0, 0
4, 13440, Note_on_c, 0, 48, 88
4, 13536, Note_on_c, 0, 48, 0
4, 13536, Note_on_c, 0, 53, 88
4, 13632, Note_on_c, 0, 53, 0
4, 13632, Program_c, 0, 0
4, 13632, Note_on_c, 0, 47, 88
4, 13728, Note_on_c, 0, 47, 0
4, 13728, Note_on_c, 0, 46, 88
4, 13824, Note_on_c, 0, 46, 0
4, 13824, Program_c, 0, 0
4, 13824, Note_on_c, 0, 45, 88
4, 13920, Note_on_c, 0, 45, 0
4, 13920, Note_on_c, 0, 50, 88
4, 14016, Note_on_c, 0, 50, 0
4, 14016, Note_on_c, 0, 45, 88
4, 14040, Note_on_c, 0, 45, 0
4, 14040, Note_on_c, 0, 43, 88
4, 14064, Note_on_c, 0, 43, 0
4, 14064, Note_on_c, 0, 45, 88
4, 14088, Note_on_c, 0, 45, 0
4, 14088, Note_on_c, 0, 43, 88
4, 14112, Note_on_c, 0, 43, 0
4, 14112, Note_on_c, 0, 45, 88
4, 14136, Note_on_c, 0, 45, 0
4, 14136, Note_on_c, 0, 43, 88
4, 14160, Note_on_c, 0, 43, 0
4, 14160, Note_on_c, 0, 41, 88
4, 14184, Note_on_c, 0, 41, 0
4, 14184, Note_on_c, 0, 43, 88
4, 14208, Note_on_c, 0, 43, 0
4, 14208, Program_c, 0, 0
4, 14208, Note_on_c, 0, 41, 88
4, 14304, Note_on_c, 0, 41, 0
4, 14304, Note_on_c, 0, 43, 88
4, 14400, Note_on_c, 0, 43, 0
4, 14400, Note_on_c, 0, 45, 88
4, 14448, Note_on_c, 0, 45, 0
4, 14448, Note_on_c, 0, 43, 88
4, 14496, Note_on_c, 0, 43, 0
4, 14496, Note_on_c, 0, 45, 88
4, 14592, Note_on_c, 0, 45, 0
4, 14592, Note_on_c, 0, 38, 88
4, 14784, Note_on_c, 0, 38, 0
4, 14784, Program_c, 0, 13
4, 15792, Note_on_c, 0, 58, 72
4, 15840, Note_on_c, 0, 58, 0
4, 15840, Note_on_c, 0, 57, 72
4, 15888, Note_on_c, 0, 57, 0
4, 15888, Note_on_c, 0, 55, 72
4, 15936, Note_on_c, 0, 55, 0
4, 15936, Note_on_c, 0, 54, 72
4, 15984, Note_on_c, 0, 54, 0
4, 15984, Note_on_c, 0, 55, 72
4, 16032, Note_on_c, 0, 55, 0
4, 16032, Note_on_c, 0, 52, 72
4, 16080, Note_on_c, 0, 52, 0
4, 16080, Note_on_c, 0, 54, 72
4, 16128, Note_on_c, 0, 54, 0
4, 16128, Note_on_c, 0, 55, 72
4, 16224, Note_on_c, 0, 55, 0
4, 16224, Note_on_c, 0, 50, 72
4, 16320, Note_on_c, 0, 50, 0
4, 16320, Note_on_c, 0, 55, 88
4, 16512, Note_on_c, 0, 55, 0
4, 16512, Program_c, 0, 0
4, 16512, Note_on_c, 0, 53, 88
4, 16608, Note_on_c, 0, 53, 0
4, 16608, Note_on_c, 0, 58, 88
4, 16704, Note_on_c, 0, 58, 0
4, 16704, Program_c, 0, 13
4, 16704, Note_on_c, 0, 52, 88
4, 16800, Note_on_c, 0, 52, 0
4, 16800, Note_on_c, 0, 51, 88
4, 16896, Note_on_c, 0, 51, 0
4, 16896, Program_c, 0, 0
4, 16896, Note_on_c, 0, 50, 88
4, 16992, Note_on_c, 0, 50, 0
4, 16992, Note_on_c, 0, 55, 88
4, 17088, Note_on_c, 0, 55, 0
4, 17088, Note_on_c, 0, 50, 88
4, 17112, Note_on_c, 0, 50, 0
4, 17112, Note_on_c, 0, 48, 88
4, 17136, Note_on_c, 0, 48, 0
4, 17136, Note_on_c, 0, 50, 88
4, 17160, Note_on_c, 0, 50, 0
4, 17160, Note_on_c, 0, 48, 88
4, 17184, Note_on_c, 0, 48, 0
4, 17184, Note_on_c, 0, 50, 88
4, 17208, Note_on_c, 0, 50, 0
4, 17208, Note_on_c, 0, 48, 88
4, 17232, Note_on_c, 0, 48, 0
4, 17232, Note_on_c, 0, 46, 88
4, 17256, Note_on_c, 0, 46, 0
4, 17256, Note_on_c, 0, 48, 88
4, 17280, Note_on_c, 0, 48, 0
4, 17280, Program_c, 0, 13
4, 17280, Note_on_c, 0, 46, 88
4, 17376, Note_on_c, 0, 46, 0
4, 17376, Note_on_c, 0, 48, 88
4, 17472, Note_on_c, 0, 48, 0
4, 17472, Note_on_c, 0, 50, 88
4, 17520, Note_on_c, 0, 50, 0
4, 17520, Note_on_c, 0, 48, 88
4, 17568, Note_on_c, 0, 48, 0
4, 17568, Note_on_c, 0, 50, 88
4, 17664, Note_on_c, 0, 50, 0
4, 17664, Note_on_c, 0, 43, 88
4, 17856, Note_on_c, 0, 43, 0
4, 17952, Note_on_c, 0, 55, 72
4, 18048, Note_on_c, 0, 55, 0
4, 18048, Note_on_c, 0, 48, 72
4, 18240, Note_on_c, 0, 48, 0
4, 18336, Note_on_c, 0, 48, 72
4, 18432, Note_on_c, 0, 48, 0
4, 18432, Note_on_c, 0, 41, 72
4, 18624, Note_on_c, 0, 41, 0
4, 18720, Note_on_c, 0, 53, 88
4, 18816, Note_on_c, 0, 53, 0
4, 18816, Note_on_c, 0, 53, 88
4, 18864, Note_on_c, 0, 53, 0
4, 18864, Program_c, 0, 0
4, 18864, Note_on_c, 0, 51, 88
4, 18912, Note_on_c, 0, 51, 0
4, 18912, Note_on_c, 0, 52, 88
4, 18960, Note_on_c, 0, 52, 0
4, 18960, Note_on_c, 0, 52, 88
4, 19008, Note_on_c, 0, 52, 0
4, 19008, Note_on_c, 0, 52, 88
4, 19056, Note_on_c, 0, 52, 0
4, 19056, Note_on_c, 0, 49, 88
4, 19104, Note_on_c, 0, 49, 0
4, 19104, Note_on_c, 0, 50, 88
4, 19152, Note_on_c, 0, 50, 0
4, 19152, Note_on_c, 0, 50, 88
4, 19200, Note_on_c, 0, 50, 0
4, 19200, Note_on_c, 0, 50, 88
4, 19248, Note_on_c, 0, 50, 0
4, 19248, Note_on_c, 0, 47, 88
4, 19296, Note_on_c, 0, 47, 0
4, 19296, Note_on_c, 0, 48, 88
4, 19344, Note_on_c, 0, 48, 0
4, 19344, Note_on_c, 0, 48, 88
4, 19392, Note_on_c, 0, 48, 0
4, 19392, Note_on_c, 0, 48, 88
4, 19440, Note_on_c, 0, 48, 0
4, 19440, Note_on_c, 0, 47, 88
4, 19488, Note_on_c, 0, 47, 0
4, 19488, Note_on_c, 0, 45, 88
4, 19536, Note_on_c, 0, 45, 0
4, 19536, Note_on_c, 0, 44, 88
4, 19584, Note_on_c, 0, 44, 0
4, 19584, Program_c, 0, 13
4, 19584, Note_on_c, 0, 45, 88
4, 19776, Note_on_c, 0, 45, 0
4, 19872, Note_on_c, 0, 55, 88
4, 19968, Note_on_c, 0, 55, 0
4, 19968, Note_on_c, 0, 55, 88
4, 20016, Note_on_c, 0, 55, 0
4, 20016, Program_c, 0, 0
4, 20016, Note_on_c, 0, 53, 88
4, 20064, Note_on_c, 0, 53, 0
4, 20064, Note_on_c, 0, 52, 88
4, 20112, Note_on_c, 0, 52, 0
4, 20112, Note_on_c, 0, 50, 88
4, 20160, Note_on_c, 0, 50, 0
4, 20160, Note_on_c, 0, 49, 88
4, 20208, Note_on_c, 0, 49, 0
4, 20208, Note_on_c, 0, 50, 88
4, 20256, Note_on_c, 0, 50, 0
4, 20256, Note_on_c, 0, 47, 88
4, 20304, Note_on_c, 0, 47, 0
4, 20304, Note_on_c, 0, 49, 88
4, 20352, Note_on_c, 0, 49, 0
4, 20352, Program_c, 0, 13
4, 20352, Note_on_c, 0, 50, 88
4, 20544, Note_on_c, 0, 50, 0
4, 20640, Note_on_c, 0, 52, 72
4, 20736, Note_on_c, 0, 52, 0
4, 20736, Note_on_c, 0, 53, 72
4, 20832, Note_on_c, 0, 53, 0
4, 20832, Note_on_c, 0, 41, 72
4, 20880, Note_on_c, 0, 41, 0
4, 20880, Note_on_c, 0, 43, 72
4, 20928, Note_on_c, 0, 43, 0
4, 20928, Note_on_c, 0, 45, 72
4, 21024, Note_on_c, 0, 45, 0
4, 21024, Note_on_c, 0, 47, 72
4, 21120, Note_on_c, 0, 47, 0
4, 21120, Note_on_c, 0, 48, 72
4, 21216, Note_on_c, 0, 48, 0
4, 21216, Note_on_c, 0, 46, 72
4, 21312, Note_on_c, 0, 46, 0
4, 21312, Note_on_c, 0, 45, 72
4, 21408, Note_on_c, 0, 45, 0
4, 21408, Note_on_c, 0, 54, 72
4, 21504, Note_on_c, 0, 54, 0
4, 21504, Program_c, 0, 0
4, 21504, Note_on_c, 0, 43, 72
4, 21552, Note_on_c, 0, 43, 0
4, 21552, Note_on_c, 0, 53, 72
4, 21600, Note_on_c, 0, 53, 0
4, 21600, Note_on_c, 0, 52, 72
4, 21648, Note_on_c, 0, 52, 0
4, 21648, Note_on_c, 0, 50, 72
4, 21696, Note_on_c, 0, 50, 0
4, 21696, Note_on_c, 0, 49, 72
4, 21744, Note_on_c, 0, 49, 0
4, 21744, Note_on_c, 0, 50, 72
4, 21792, Note_on_c, 0, 50, 0
4, 21792, Note_on_c, 0, 47, 72
4, 21840, Note_on_c, 0, 47, 0
4, 21840, Note_on_c, 0, 49, 72
4, 21888, Note_on_c, 0, 49, 0
4, 21888, Note_on_c, 0, 50, 72
4, 21936, Note_on_c, 0, 50, 0
4, 21936, Note_on_c, 0, 52, 72
4, 21984, Note_on_c, 0, 52, 0
4, 21984, Note_on_c, 0, 53, 72
4, 22032, Note_on_c, 0, 53, 0
4, 22032, Note_on_c, 0, 55, 72
4, 22080, Note_on_c, 0, 55, 0
4, 22080, Note_on_c, 0, 57, 72
4, 22128, Note_on_c, 0, 57, 0
4, 22128, Note_on_c, 0, 55, 72
4, 22176, Note_on_c, 0, 55, 0
4, 22176, Note_on_c, 0, 58, 72
4, 22224, Note_on_c, 0, 58, 0
4, 22224, Note_on_c, 0, 57, 72
4, 22272, Note_on_c, 0, 57, 0
4, 22272, Note_on_c, 0, 55, 72
4, 22320, Note_on_c, 0, 55, 0
4, 22320, Note_on_c, 0, 53, 72
4, 22368, Note_on_c, 0, 53, 0
4, 22368, Note_on_c, 0, 57, 72
4, 22416, Note_on_c, 0, 57, 0
4, 22416, Note_on_c, 0, 55, 72
4, 22464, Note_on_c, 0, 55, 0
4, 22464, Note_on_c, 0, 53, 72
4, 22512, Note_on_c, 0, 53, 0
4, 22512, Note_on_c, 0, 52, 72
4, 22560, Note_on_c, 0, 52, 0
4, 22560, Note_on_c, 0, 55, 72
4, 22608, Note_on_c, 0, 55, 0
4, 22608, Note_on_c, 0, 53, 72
4, 22656, Note_on_c, 0, 53, 0
4, 22656, Note_on_c, 0, 52, 72
4, 22704, Note_on_c, 0, 52, 0
4, 22704, Note_on_c, 0, 53, 72
4, 22752, Note_on_c, 0, 53, 0
4, 22752, Note_on_c, 0, 55, 72
4, 22800, Note_on_c, 0, 55, 0
4, 22800, Note_on_c, 0, 57, 72
4, 22848, Note_on_c, 0, 57, 0
4, 22848, Note_on_c, 0, 58, 72
4, 22896, Note_on_c, 0, 58, 0
4, 22896, Note_on_c, 0, 57, 72
4, 22944, Note_on_c, 0, 57, 0
4, 22944, Note_on_c, 0, 60, 72
4, 22992, Note_on_c, 0, 60, 0
4, 22992, Note_on_c, 0, 58, 72
4, 23040, Note_on_c, 0, 58, 0
4, 23040, Note_on_c, 0, 57, 72
4, 23088, Note_on_c, 0, 57, 0
4, 23088, Note_on_c, 0, 55, 72
4, 23136, Note_on_c, 0, 55, 0
4, 23136, Note_on_c, 0, 53, 72
4, 23184, Note_on_c, 0, 53, 0
4, 23184, Note_on_c, 0, 52, 72
4, 23232, Note_on_c, 0, 52, 0
4, 23232, Note_on_c, 0, 50, 72
4, 23280, Note_on_c, 0, 50, 0
4, 23280, Note_on_c, 0, 57, 72
4, 23328, Note_on_c, 0, 57, 0
4, 23328, Note_on_c, 0, 48, 72
4, 23376, Note_on_c, 0, 48, 0
4, 23376, Note_on_c, 0, 47, 72
4, 23424, Note_on_c, 0, 47, 0
4, 23424, Program_c, 0, 13
4, 23424, Note_on_c, 0, 48, 72
4, 23808, Note_on_c, 0, 48, 0
4, 23808, Note_on_c, 0, 48, 72
4, 24000, Note_on_c, 0, 48, 0
4, 24096, Note_on_c, 0, 49, 72
4, 24192, Note_on_c, 0, 49, 0
4, 24192, Program_c, 0, 0
4, 24192, Note_on_c, 0, 50, 72
4, 24240, Note_on_c, 0, 50, 0
4, 24240, Note_on_c, 0, 62, 72
4, 24288, Note_on_c, 0, 62, 0
4, 24288, Note_on_c, 0, 60, 72
4, 24336, Note_on_c, 0, 60, 0
4, 24336, Note_on_c, 0, 58, 72
4, 24384, Note_on_c, 0, 58, 0
4, 24384, Note_on_c, 0, 57, 72
4, 24432, Note_on_c, 0, 57, 0
4, 24432, Note_on_c, 0, 58, 72
4, 24480, Note_on_c, 0, 58, 0
4, 24480, Note_on_c, 0, 55, 72
4, 24528, Note_on_c, 0, 55, 0
4, 24528, Note_on_c, 0, 57, 72
4, 24576, Note_on_c, 0, 57, 0
4, 24576, Note_on_c, 0, 58, 72
4, 24624, Note_on_c, 0, 58, 0
4, 24624, Note_on_c, 0, 57, 72
4, 24672, Note_on_c, 0, 57, 0
4, 24672, Note_on_c, 0, 55, 72
4, 24720, Note_on_c, 0, 55, 0
4, 24720, Note_on_c, 0, 53, 72
4, 24768, Note_on_c, 0, 53, 0
4, 24768, Note_on_c, 0, 52, 72
4, 24816, Note_on_c, 0, 52, 0
4, 24816, Note_on_c, 0, 53, 72
4, 24864, Note_on_c, 0, 53, 0
4, 24864, Note_on_c, 0, 50, 72
4, 24912, Note_on_c, 0, 50, 0
4, 24912, Note_on_c, 0, 52, 72
4, 24960, Note_on_c, 0, 52, 0
4, 24960, Note_on_c, 0, 53, 72
4, 25008, Note_on_c, 0, 53, 0
4, 25008, Note_on_c, 0, 52, 72
4, 25056, Note_on_c, 0, 52, 0
4, 25056, Note_on_c, 0, 50, 72
4, 25104, Note_on_c, 0, 50, 0
4, 25104, Note_on_c, 0, 48, 72
4, 25152, Note_on_c, 0, 48, 0
4, 25152, Note_on_c, 0, 47, 72
4, 25200, Note_on_c, 0, 47, 0
4, 25200, Note_on_c, 0, 48, 72
4, 25248, Note_on_c, 0, 48, 0
4, 25248, Note_on_c, 0, 45, 72
4, 25296, Note_on_c, 0, 45, 0
4, 25296, Note_on_c, 0, 47, 72
4, 25344, Note_on_c, 0, 47, 0
4, 25344, Note_on_c, 0, 48, 72
4, 25392, Note_on_c, 0, 48, 0
4, 25392, Note_on_c, 0, 50, 72
4, 25440, Note_on_c, 0, 50, 0
4, 25440, Note_on_c, 0, 52, 72
4, 25488, Note_on_c, 0, 52, 0
4, 25488, Note_on_c, 0, 53, 72
4, 25536, Note_on_c, 0, 53, 0
4, 25536, Note_on_c, 0, 55, 72
4, 25584, Note_on_c, 0, 55, 0
4, 25584, Note_on_c, 0, 57, 72
4, 25632, Note_on_c, 0, 57, 0
4, 25632, Note_on_c, 0, 58, 72
4, 25680, Note_on_c, 0, 58, 0
4, 25680, Note_on_c, 0, 55, 72
4, 25728, Note_on_c, 0, 55, 0
4, 25728, Note_on_c, 0, 57, 88
4, 25824, Note_on_c, 0, 57, 0
4, 25824, Note_on_c, 0, 62, 88
4, 25920, Note_on_c, 0, 62, 0
4, 25920, Program_c, 0, 13
4, 25920, Note_on_c, 0, 55, 88
4, 26016, Note_on_c, 0, 55, 0
4, 26016, Note_on_c, 0, 54, 88
4, 26112, Note_on_c, 0, 54, 0
4, 26112, Program_c, 0, 0
4, 26112, Note_on_c, 0, 53, 88
4, 26208, Note_on_c, 0, 53, 0
4, 26208, Note_on_c, 0, 58, 88
4, 26304, Note_on_c, 0, 58, 0
4, 26304, Note_on_c, 0, 53, 88
4, 26328, Note_on_c, 0, 53, 0
4, 26328, Note_on_c, 0, 51, 88
4, 26352, Note_on_c, 0, 51, 0
4, 26352, Note_on_c, 0, 53, 88
4, 26376, Note_on_c, 0, 53, 0
4, 26376, Note_on_c, 0, 51, 88
4, 26400, Note_on_c, 0, 51, 0
4, 26400, Note_on_c, 0, 53, 88
4, 26424, Note_on_c, 0, 53, 0
4, 26424, Note_on_c, 0, 51, 88
4, 26448, Note_on_c, 0, 51, 0
4, 26448, Note_on_c, 0, 50, 88
4, 26472, Note_on_c, 0, 50, 0
4, 26472, Note_on_c, 0, 51, 88
4, 26496, Note_on_c, 0, 51, 0
4, 26496, Program_c, 0, 13
4, 26496, Note_on_c, 0, 50, 88
4, 26592, Note_on_c, 0, 50, 0
4, 26592, Note_on_c, 0, 51, 88
4, 26688, Note_on_c, 0, 51, 0
4, 26688, Note_on_c, 0, 53, 88
4, 26736, Note_on_c, 0, 53, 0
4, 26736, Note_on_c, 0, 51, 88
4, 26784, Note_on_c, 0, 51, 0
4, 26784, Note_on_c, 0, 53, 88
4, 26880, Note_on_c, 0, 53, 0
4, 26880, Note_on_c, 0, 46, 88
4, 26976, Note_on_c, 0, 46, 0
4, 26976, Note_on_c, 0, 58, 72
4, 27168, Note_on_c, 0, 58, 0
4, 27168, Note_on_c, 0, 57, 72
4, 27264, Note_on_c, 0, 57, 0
4, 27264, Program_c, 0, 0
4, 27264, Note_on_c, 0, 58, 72
4, 27312, Note_on_c, 0, 58, 0
4, 27312, Note_on_c, 0, 55, 72
4, 27360, Note_on_c, 0, 55, 0
4, 27360, Note_on_c, 0, 57, 72
4, 27408, Note_on_c, 0, 57, 0
4, 27408, Note_on_c, 0, 58, 72
4, 27456, Note_on_c, 0, 58, 0
4, 27456, Note_on_c, 0, 60, 72
4, 27504, Note_on_c, 0, 60, 0
4, 27504, Note_on_c, 0, 58, 72
4, 27552, Note_on_c, 0, 58, 0
4, 27552, Note_on_c, 0, 62, 72
4, 27600, Note_on_c, 0, 62, 0
4, 27600, Note_on_c, 0, 60, 72
4, 27648, Note_on_c, 0, 60, 0
4, 27648, Note_on_c, 0, 58, 72
4, 27744, Note_on_c, 0, 58, 0
4, 27744, Note_on_c, 0, 63, 72
4, 27840, Note_on_c, 0, 63, 0
4, 27840, Program_c, 0, 13
4, 27840, Note_on_c, 0, 60, 72
4, 27936, Note_on_c, 0, 60, 0
4, 27936, Note_on_c, 0, 62, 72
4, 28032, Note_on_c, 0, 62, 0
4, 28032, Note_on_c, 0, 55, 72
4, 28128, Note_on_c, 0, 55, 0
4, 28128, Note_on_c, 0, 51, 72
4, 28224, Note_on_c, 0, 51, 0
4, 28224, Note_on_c, 0, 49, 72
4, 28320, Note_on_c, 0, 49, 0
4, 28320, Note_on_c, 0, 50, 72
4, 28416, Note_on_c, 0, 50, 0
4, 28416, Note_on_c, 0, 47, 72
4, 28512, Note_on_c, 0, 47, 0
4, 28512, Note_on_c, 0, 48, 72
4, 28608, Note_on_c, 0, 48, 0
4, 28608, Note_on_c, 0, 45, 72
4, 28704, Note_on_c, 0, 45, 0
4, 28704, Note_on_c, 0, 46, 72
4, 28800, Note_on_c, 0, 46, 0
4, 28800, Note_on_c, 0, 43, 72
4, 28896, Note_on_c, 0, 43, 0
4, 28896, Note_on_c, 0, 44, 72
4, 28992, Note_on_c, 0, 44, 0
4, 28992, Note_on_c, 0, 42, 72
4, 29088, Note_on_c, 0, 42, 0
4, 29088, Note_on_c, 0, 43, 88
4, 29184, Note_on_c, 0, 43, 0
4, 29184, Note_on_c, 0, 43, 88
4, 29232, Note_on_c, 0, 43, 0
4, 29232, Program_c, 0, 0
4, 29232, Note_on_c, 0, 40, 88
4, 29280, Note_on_c, 0, 40, 0
4, 29280, Note_on_c, 0, 41, 88
4, 29328, Note_on_c, 0, 41, 0
4, 29328, Note_on_c, 0, 41, 88
4, 29376, Note_on_c, 0, 41, 0
4, 29376, Note_on_c, 0, 41, 88
4, 29424, Note_on_c, 0, 41, 0
4, 29424, Note_on_c, 0, 38, 88
4, 29472, Note_on_c, 0, 38, 0
4, 29472, Note_on_c, 0, 40, 88
4, 29520, Note_on_c, 0, 40, 0
4, 29520, Note_on_c, 0, 40, 88
4, 29568, Note_on_c, 0, 40, 0
4, 29568, Program_c, 0, 13
4, 29568, Note_on_c, 0, 38, 88
4, 29760, Note_on_c, 0, 38, 0
4, 30048, Note_on_c, 0, 55, 88
4, 30192, Note_on_c, 0, 55, 0
4, 30192, Program_c, 0, 0
4, 30192, Note_on_c, 0, 52, 88
4, 30240, Note_on_c, 0, 52, 0
4, 30240, Note_on_c, 0, 53, 88
4, 30288, Note_on_c, 0, 53, 0
4, 30288, Note_on_c, 0, 53, 88
4, 30336, Note_on_c, 0, 53, 0
4, 30336, Note_on_c, 0, 53, 88
4, 30384, Note_on_c, 0, 53, 0
4, 30384, Note_on_c, 0, 51, 88
4, 30432, Note_on_c, 0, 51, 0
4, 30432, Note_on_c, 0, 52, 88
4, 30480, Note_on_c, 0, 52, 0
4, 30480, Note_on_c, 0, 52, 88
4, 30528, Note_on_c, 0, 52, 0
4, 30528, Note_on_c, 0, 52, 88
4, 30576, Note_on_c, 0, 52, 0
4, 30576, Note_on_c, 0, 49, 88
4, 30624, Note_on_c, 0, 49, 0
4, 30624, Note_on_c, 0, 50, 88
4, 30672, Note_on_c, 0, 50, 0
4, 30672, Note_on_c, 0, 50, 88
4, 30720, Note_on_c, 0, 50, 0
4, 30720, Note_on_c, 0, 50, 88
4, 30768, Note_on_c, 0, 50, 0
4, 30768, Note_on_c, 0, 47, 88
4, 30816, Note_on_c, 0, 47, 0
4, 30816, Note_on_c, 0, 48, 88
4, 30864, Note_on_c, 0, 48, 0
4, 30864, Note_on_c, 0, 48, 88
4, 30912, Note_on_c, 0, 48, 0
4, 30912, Note_on_c, 0, 48, 88
4, 30960, Note_on_c, 0, 48, 0
4, 30960, Note_on_c, 0, 47, 88
4, 31008, Note_on_c, 0, 47, 0
4, 31008, Note_on_c, 0, 45, 88
4, 31056, Note_on_c, 0, 45, 0
4, 31056, Note_on_c, 0, 44, 88
4, 31104, Note_on_c, 0, 44, 0
4, 31104, Program_c, 0, 13
4, 31104, Note_on_c, 0, 45, 88
4, 31296, Note_on_c, 0, 45, 0
4, 31392, Note_on_c, 0, 50, 72
4, 31488, Note_on_c, 0, 50, 0
4, 31488, Note_on_c, 0, 49, 72
4, 31584, Note_on_c, 0, 49, 0
4, 31584, Note_on_c, 0, 48, 72
4, 31680, Note_on_c, 0, 48, 0
4, 31680, Note_on_c, 0, 47, 72
4, 31776, Note_on_c, 0, 47, 0
4, 31776, Note_on_c, 0, 48, 72
4, 31872, Note_on_c, 0, 48, 0
4, 31872, Note_on_c, 0, 48, 72
4, 31920, Note_on_c, 0, 48, 0
4, 31920, Program_c, 0, 0
4, 31920, Note_on_c, 0, 46, 72
4, 31968, Note_on_c, 0, 46, 0
4, 31968, Note_on_c, 0, 45, 72
4, 32016, Note_on_c, 0, 45, 0
4, 32016, Note_on_c, 0, 43, 72
4, 32064, Note_on_c, 0, 43, 0
4, 32064, Note_on_c, 0, 42, 72
4, 32112, Note_on_c, 0, 42, 0
4, 32112, Note_on_c, 0, 43, 72
4, 32160, Note_on_c, 0, 43, 0
4, 32160, Note_on_c, 0, 40, 72
4, 32208, Note_on_c, 0, 40, 0
4, 32208, Note_on_c, 0, 42, 72
4, 32256, Note_on_c, 0, 42, 0
4, 32256, Program_c, 0, 13
4, 32256, Note_on_c, 0, 43, 72
4, 32352, Note_on_c, 0, 43, 0
4, 32352, Note_on_c, 0, 55, 72
4, 32544, Note_on_c, 0, 55, 0
4, 32544, Note_on_c, 0, 54, 72
4, 32640, Note_on_c, 0, 54, 0
4, 32640, Note_on_c, 0, 55, 72
4, 32736, Note_on_c, 0, 55, 0
4, 32736, Note_on_c, 0, 53, 72
4, 32832, Note_on_c, 0, 53, 0
4, 32832, Note_on_c, 0, 52, 72
4, 32928, Note_on_c, 0, 52, 0
4, 32928, Note_on_c, 0, 50, 72
4, 33024, Note_on_c, 0, 50, 0
4, 33024, Program_c, 0, 0
4, 33024, Note_on_c, 0, 49, 72
4, 33072, Note_on_c, 0, 49, 0
4, 33072, Note_on_c, 0, 58, 72
4, 33120, Note_on_c, 0, 58, 0
4, 33120, Note_on_c, 0, 57, 72
4, 33168, Note_on_c, 0, 57, 0
4, 33168, Note_on_c, 0, 55, 72
4, 33216, Note_on_c, 0, 55, 0
4, 33216, Note_on_c, 0, 53, 72
4, 33264, Note_on_c, 0, 53, 0
4, 33264, Note_on_c, 0, 55, 72
4, 33312, Note_on_c, 0, 55, 0
4, 33312, Note_on_c, 0, 52, 72
4, 33360, Note_on_c, 0, 52, 0
4, 33360, Note_on_c, 0, 53, 72
4, 33408, Note_on_c, 0, 53, 0
4, 33408, Note_on_c, 0, 50, 72
4, 33456, Note_on_c, 0, 50, 0
4, 33456, Note_on_c, 0, 52, 72
4, 33504, Note_on_c, 0, 52, 0
4, 33504, Note_on_c, 0, 48, 72
4, 33552, Note_on_c, 0, 48, 0
4, 33552, Note_on_c, 0, 50, 72
4, 33600, Note_on_c, 0, 50, 0
4, 33600, Note_on_c, 0, 46, 72
4, 33648, Note_on_c, 0, 46, 0
4, 33648, Note_on_c, 0, 48, 72
4, 33696, Note_on_c, 0, 48, 0
4, 33696, Note_on_c, 0, 45, 72
4, 33744, Note_on_c, 0, 45, 0
4, 33744, Note_on_c, 0, 46, 72
4, 33792, Note_on_c, 0, 46, 0
4, 33792, Note_on_c, 0, 43, 88
4, 33888, Note_on_c, 0, 43, 0
4, 33888, Note_on_c, 0, 48, 88
4, 33984, Note_on_c, 0, 48, 0
4, 33984, Program_c, 0, 13
4, 33984, Note_on_c, 0, 42, 88
4, 34080, Note_on_c, 0, 42, 0
4, 34080, Note_on_c, 0, 41, 88
4, 34176, Note_on_c, 0, 41, 0
4, 34176, Program_c, 0, 0
4, 34176, Note_on_c, 0, 40, 88
4, 34272, Note_on_c, 0, 40, 0
4, 34272, Note_on_c, 0, 45, 88
4, 34368, Note_on_c, 0, 45, 0
4, 34368, Program_c, 0, 13
4, 34368, Note_on_c, 0, 38, 88
4, 34464, Note_on_c, 0, 38, 0
4, 34464, Program_c, 0, 0
4, 34464, Note_on_c, 0, 55, 88
4, 34488, Note_on_c, 0, 55, 0
4, 34488, Note_on_c, 0, 53, 88
4, 34512, Note_on_c, 0, 53, 0
4, 34512, Note_on_c, 0, 52, 88
4, 34536, Note_on_c, 0, 52, 0
4, 34536, Note_on_c, 0, 50, 88
4, 34560, Note_on_c, 0, 50, 0
4, 34560, Note_on_c, 0, 49, 88
4, 34584, Note_on_c, 0, 49, 0
4, 34584, Note_on_c, 0, 50, 88
4, 34608, Note_on_c, 0, 50, 0
4, 34608, Note_on_c, 0, 52, 88
4, 34632, Note_on_c, 0, 52, 0
4, 34632, Note_on_c, 0, 53, 88
4, 34656, Note_on_c, 0, 53, 0
4, 34656, Note_on_c, 0, 52, 88
4, 34680, Note_on_c, 0, 52, 0
4, 34680, Note_on_c, 0, 50, 88
4, 34704, Note_on_c, 0, 50, 0
4, 34704, Note_on_c, 0, 49, 88
4, 34728, Note_on_c, 0, 49, 0
4, 34728, Note_on_c, 0, 47, 88
4, 34752, Note_on_c, 0, 47, 0
4, 34752, Note_on_c, 0, 45, 88
4, 34776, Note_on_c, 0, 45, 0
4, 34776, Note_on_c, 0, 47, 88
4, 34800, Note_on_c, 0, 47, 0
4, 34800, Note_on_c, 0, 49, 88
4, 34824, Note_on_c, 0, 49, 0
4, 34824, Note_on_c, 0, 50, 88
4, 34848, Note_on_c, 0, 50, 0
4, 34848, Note_on_c, 0, 49, 88
4, 34872, Note_on_c, 0, 49, 0
4, 34872, Note_on_c, 0, 47, 88
4, 34896, Note_on_c, 0, 47, 0
4, 34896, Note_on_c, 0, 45, 88
4, 34920, Note_on_c, 0, 45, 0
4, 34920, Note_on_c, 0, 43, 88
4, 34944, Note_on_c, 0, 43, 0
4, 34944, Program_c, 0, 13
4, 34944, Note_on_c, 0, 41, 88
4, 35040, Note_on_c, 0, 41, 0
4, 35064, Note_on_c, 0, 38, 88
4, 35088, Note_on_c, 0, 38, 0
4, 35088, Note_on_c, 0, 41, 88
4, 35112, Note_on_c, 0, 41, 0
4, 35112, Note_on_c, 0, 45, 88
4, 35136, Note_on_c, 0, 45, 0
4, 35136, Note_on_c, 0, 48, 88
4, 35160, Note_on_c, 0, 48, 0
4, 35160, Note_on_c, 0, 46, 88
4, 35184, Note_on_c, 0, 46, 0
4, 35184, Note_on_c, 0, 48, 88
4, 35208, Note_on_c, 0, 48, 0
4, 35208, Note_on_c, 0, 46, 88
4, 35232, Note_on_c, 0, 46, 0
4, 35232, Note_on_c, 0, 48, 88
4, 35256, Note_on_c, 0, 48, 0
4, 35256, Note_on_c, 0, 46, 88
4, 35280, Note_on_c, 0, 46, 0
4, 35280, Note_on_c, 0, 45, 88
4, 35304, Note_on_c, 0, 45, 0
4, 35304, Note_on_c, 0, 46, 88
4, 35328, Note_on_c, 0, 46, 0
4, 35328, Program_c, 0, 0
4, 35328, Note_on_c, 0, 45, 88
4, 35376, Note_on_c, 0, 45, 0
4, 35376, Note_on_c, 0, 57, 72
4, 35424, Note_on_c, 0, 57, 0
4, 35424, Note_on_c, 0, 55, 72
4, 35472, Note_on_c, 0, 55, 0
4, 35472, Note_on_c, 0, 53, 72
4, 35520, Note_on_c, 0, 53, 0
4, 35520, Note_on_c, 0, 52, 72
4, 35568, Note_on_c, 0, 52, 0
4, 35568, Note_on_c, 0, 53, 72
4, 35616, Note_on_c, 0, 53, 0
4, 35616, Note_on_c, 0, 50, 72
4, 35664, Note_on_c, 0, 50, 0
4, 35664, Note_on_c, 0, 52, 72
4, 35712, Note_on_c, 0, 52, 0
4, 35712, Note_on_c, 0, 53, 72
4, 35904, Note_on_c, 0, 53, 0
4, 35952, Note_on_c, 0, 52, 72
4, 36000, Note_on_c, 0, 52, 0
4, 36000, Note_on_c, 0, 50, 72
4, 36048, Note_on_c, 0, 50, 0
4, 36048, Note_on_c, 0, 49, 72
4, 36096, Note_on_c, 0, 49, 0
4, 36096, Note_on_c, 0, 50, 72
4, 36288, Note_on_c, 0, 50, 0
4, 36336, Note_on_c, 0, 48, 72
4, 36384, Note_on_c, 0, 48, 0
4, 36384, Note_on_c, 0, 46, 72
4, 36432, Note_on_c, 0, 46, 0
4, 36432, Note_on_c, 0, 45, 72
4, 36480, Note_on_c, 0, 45, 0
4, 36480, Note_on_c, 0, 43, 72
4, 36576, Note_on_c, 0, 43, 0
4, 36576, Note_on_c, 0, 55, 72
4, 36672, Note_on_c, 0, 55, 0
4, 36672, Note_on_c, 0, 57, 72
4, 36768, Note_on_c, 0, 57, 0
4, 36768, Note_on_c, 0, 45, 72
4, 36864, Note_on_c, 0, 45, 0
4, 36864, Note_on_c, 0, 46, 72
4, 37056, Note_on_c, 0, 46, 0
4, 37104, Note_on_c, 0, 58, 72
4, 37152, Note_on_c, 0, 58, 0
4, 37152, Note_on_c, 0, 57, 72
4, 37200, Note_on_c, 0, 57, 0
4, 37200, Note_on_c, 0, 55, 72
4, 37248, Note_on_c, 0, 55, 0
4, 37248, Note_on_c, 0, 55, 72
4, 37296, Note_on_c, 0, 55, 0
4, 37296, Note_on_c, 0, 52, 72
4, 37344, Note_on_c, 0, 52, 0
4, 37344, Note_on_c, 0, 53, 72
4, 37392, Note_on_c, 0, 53, 0
4, 37392, Note_on_c, 0, 53, 72
4, 37440, Note_on_c, 0, 53, 0
4, 37440, Note_on_c, 0, 53, 72
4, 37488, Note_on_c, 0, 53, 0
4, 37488, Note_on_c, 0, 50, 72
4, 37536, Note_on_c, 0, 50, 0
4, 37536, Note_on_c, 0, 52, 72
4, 37584, Note_on_c, 0, 52, 0
4, 37584, Note_on_c, 0, 52, 72
4, 37632, Note_on_c, 0, 52, 0
4, 37632, Note_on_c, 0, 50, 72
4, 37728, Note_on_c, 0, 50, 0
4, 37728, Note_on_c, 0, 62, 88
4, 37824, Note_on_c, 0, 62, 0
4, 37824, Note_on_c, 0, 57, 88
4, 37920, Note_on_c, 0, 57, 0
4, 37920, Note_on_c, 0, 59, 88
4, 38016, Note_on_c, 0, 59, 0
4, 38112, Note_on_c, 0, 60, 88
4, 38208, Note_on_c, 0, 60, 0
4, 38208, Note_on_c, 0, 62, 88
4, 38304, Note_on_c, 0, 62, 0
4, 38304, Note_on_c, 0, 64, 88
4, 38400, Note_on_c, 0, 64, 0
4, 38496, Note_on_c, 0, 65, 88
4, 38592, Note_on_c, 0, 65, 0
4, 38592, Note_on_c, 0, 64, 88
4, 38688, Note_on_c, 0, 64, 0
4, 38688, Note_on_c, 0, 62, 88
4, 38784, Note_on_c, 0, 62, 0
4, 38880, Note_on_c, 0, 60, 88
4, 38928, Note_on_c, 0, 60, 0
4, 38928, Note_on_c, 0, 59, 88
4, 38976, Note_on_c, 0, 59, 0
4, 38976, Note_on_c, 0, 60, 88
4, 39072, Note_on_c, 0, 60, 0
4, 39072, Note_on_c, 0, 62, 88
4, 39168, Note_on_c, 0, 62, 0
4, 39168, Note_on_c, 0, 64, 88
4, 39552, Note_on_c, 0, 64, 0
4, 39552, Note_on_c, 0, 64, 88
4, 39648, Note_on_c, 0, 64, 0
4, 39648, Note_on_c, 0, 56, 72
4, 39696, Note_on_c, 0, 56, 0
4, 39696, Note_on_c, 0, 65, 72
4, 39744, Note_on_c, 0, 65, 0
4, 39744, Note_on_c, 0, 57, 72
4, 39792, Note_on_c, 0, 57, 0
4, 39792, Note_on_c, 0, 64, 72
4, 39840, Note_on_c, 0, 64, 0
4, 39840, Note_on_c, 0, 59, 72
4, 39888, Note_on_c, 0, 59, 0
4, 39888, Note_on_c, 0, 62, 72
4, 39936, Note_on_c, 0, 62, 0
4, 39936, Note_on_c, 0, 60, 72
4, 39984, Note_on_c, 0, 60, 0
4, 39984, Note_on_c, 0, 59, 72
4, 40032, Note_on_c, 0, 59, 0
4, 40032, Note_on_c, 0, 60, 72
4, 40176, Note_on_c, 0, 60, 0
4, 40176, Note_on_c, 0, 59, 72
4, 40224, Note_on_c, 0, 59, 0
4, 40224, Note_on_c, 0, 57, 72
4, 40272, Note_on_c, 0, 57, 0
4, 40272, Note_on_c, 0, 56, 72
4, 40320, Note_on_c, 0, 56, 0
4, 40320, Note_on_c, 0, 57, 72
4, 40464, Note_on_c, 0, 57, 0
4, 40464, Note_on_c, 0, 55, 72
4, 40512, Note_on_c, 0, 55, 0
4, 40512, Note_on_c, 0, 53, 72
4, 40560, Note_on_c, 0, 53, 0
4, 40560, Note_on_c, 0, 52, 72
4, 40608, Note_on_c, 0, 52, 0
4, 40608, Note_on_c, 0, 50, 72
4, 40656, Note_on_c, 0, 50, 0
4, 40656, Note_on_c, 0, 48, 72
4, 40704, Note_on_c, 0, 48, 0
4, 40704, Note_on_c, 0, 47, 72
4, 40800, Note_on_c, 0, 47, 0
4, 40800, Note_on_c, 0, 40, 72
4, 40896, Note_on_c, 0, 40, 0
4, 40896, Note_on_c, 0, 42, 72
4, 40992, Note_on_c, 0, 42, 0
4, 40992, Note_on_c, 0, 44, 72
4, 41088, Note_on_c, 0, 44, 0
4, 41088, Note_on_c, 0, 45, 72
4, 41232, Note_on_c, 0, 45, 0
4, 41232, Note_on_c, 0, 44, 72
4, 41280, Note_on_c, 0, 44, 0
4, 41280, Note_on_c, 0, 45, 72
4, 41328, Note_on_c, 0, 45, 0
4, 41328, Note_on_c, 0, 48, 72
4, 41376, Note_on_c, 0, 48, 0
4, 41376, Note_on_c, 0, 47, 72
4, 41424, Note_on_c, 0, 47, 0
4, 41424, Note_on_c, 0, 50, 72
4, 41472, Note_on_c, 0, 50, 0
4, 41472, Note_on_c, 0, 48, 72
4, 41664, Note_on_c, 0, 48, 0
4, 41760, Note_on_c, 0, 49, 72
4, 41856, Note_on_c, 0, 49, 0
4, 41856, Note_on_c, 0, 50, 72
4, 41952, Note_on_c, 0, 50, 0
4, 41952, Note_on_c, 0, 45, 72
4, 42048, Note_on_c, 0, 45, 0
4, 42048, Note_on_c, 0, 46, 72
4, 42144, Note_on_c, 0, 46, 0
4, 42144, Note_on_c, 0, 50, 72
4, 42240, Note_on_c, 0, 50, 0
4, 42240, Note_on_c, 0, 43, 72
4, 42288, Note_on_c, 0, 43, 0
4, 42288, Note_on_c, 0, 50, 72
4, 42336, Note_on_c, 0, 50, 0
4, 42336, Note_on_c, 0, 55, 72
4, 42384, Note_on_c, 0, 55, 0
4, 42384, Note_on_c, 0, 58, 72
4, 42432, Note_on_c, 0, 58, 0
4, 42432, Note_on_c, 0, 57, 72
4, 42480, Note_on_c, 0, 57, 0
4, 42480, Note_on_c, 0, 60, 72
4, 42528, Note_on_c, 0, 60, 0
4, 42528, Note_on_c, 0, 59, 72
4, 42576, Note_on_c, 0, 59, 0
4, 42576, Note_on_c, 0, 62, 72
4, 42624, Note_on_c, 0, 62, 0
4, 42624, Note_on_c, 0, 51, 72
4, 42672, Note_on_c, 0, 51, 0
4, 42672, Note_on_c, 0, 55, 72
4, 42720, Note_on_c, 0, 55, 0
4, 42720, Note_on_c, 0, 53, 72
4, 42768, Note_on_c, 0, 53, 0
4, 42768, Note_on_c, 0, 56, 72
4, 42816, Note_on_c, 0, 56, 0
4, 42816, Note_on_c, 0, 47, 72
4, 42864, Note_on_c, 0, 47, 0
4, 42864, Note_on_c, 0, 50, 72
4, 42912, Note_on_c, 0, 50, 0
4, 42912, Note_on_c, 0, 48, 72
4, 42960, Note_on_c, 0, 48, 0
4, 42960, Note_on_c, 0, 51, 72
4, 43008, Note_on_c, 0, 51, 0
4, 43008, Note_on_c, 0, 42, 72
4, 43056, Note_on_c, 0, 42, 0
4, 43056, Note_on_c, 0, 45, 72
4, 43104, Note_on_c, 0, 45, 0
4, 43104, Note_on_c, 0, 43, 72
4, 43152, Note_on_c, 0, 43, 0
4, 43152, Note_on_c, 0, 46, 72
4, 43200, Note_on_c, 0, 46, 0
4, 43200, Note_on_c, 0, 37, 72
4, 43392, Note_on_c, 0, 37, 0
4, 43392, Note_on_c, 0, 38, 72
4, 43776, Note_on_c, 0, 38, 0
4, 43776, Note_on_c, 0, 38, 72
4, 44160, Note_on_c, 0, 38, 0
4, 44160, Note_on_c, 0, 38, 72
4, 44544, Note_on_c, 0, 38, 0
4, 44544, Note_on_c, 0, 38, 72
4, 44640, Note_on_c, 0, 38, 0
4, 44640, Note_on_c, 0, 50, 72
4, 44688, Note_on_c, 0, 50, 0
4, 44688, Note_on_c, 0, 50, 72
4, 44736, Note_on_c, 0, 50, 0
4, 44736, Note_on_c, 0, 50, 72
4, 44784, Note_on_c, 0, 50, 0
4, 44784, Note_on_c, 0, 47, 72
4, 44832, Note_on_c, 0, 47, 0
4, 44832, Note_on_c, 0, 48, 72
4, 44880, Note_on_c, 0, 48, 0
4, 44880, Note_on_c, 0, 48, 72
4, 44928, Note_on_c, 0, 48, 0
4, 44928, Note_on_c, 0, 48, 72
4, 44976, Note_on_c, 0, 48, 0
4, 44976, Note_on_c, 0, 45, 72
4, 45024, Note_on_c, 0, 45, 0
4, 45024, Note_on_c, 0, 46, 72
4, 45072, Note_on_c, 0, 46, 0
4, 45072, Note_on_c, 0, 43, 72
4, 45120, Note_on_c, 0, 43, 0
4, 45120, Note_on_c, 0, 50, 72
4, 45216, Note_on_c, 0, 50, 0
4, 45216, Note_on_c, 0, 38, 72
4, 45312, Note_on_c, 0, 38, 0
4, 45312, Note_on_c, 0, 43, 72
4, 45408, Note_on_c, 0, 43, 0
4, 45408, Note_on_c, 0, 43, 72
4, 45432, Note_on_c, 0, 43, 0
4, 45432, Note_on_c, 0, 45, 72
4, 45456, Note_on_c, 0, 45, 0
4, 45456, Note_on_c, 0, 46, 72
4, 45480, Note_on_c, 0, 46, 0
4, 45480, Note_on_c, 0, 48, 72
4, 45504, Note_on_c, 0, 48, 0
4, 45504, Note_on_c, 0, 50, 72
4, 45600, Note_on_c, 0, 50, 0
4, 45600, Note_on_c, 0, 48, 72
4, 45624, Note_on_c, 0, 48, 0
4, 45624, Note_on_c, 0, 47, 72
4, 45648, Note_on_c, 0, 47, 0
4, 45648, Note_on_c, 0, 45, 72
4, 45672, Note_on_c, 0, 45, 0
4, 45672, Note_on_c, 0, 43, 72
4, 45696, Note_on_c, 0, 43, 0
4, 45696, Note_on_c, 0, 48, 72
4, 45792, Note_on_c, 0, 48, 0
4, 45792, Note_on_c, 0, 43, 72
4, 45816, Note_on_c, 0, 43, 0
4, 45816, Note_on_c, 0, 42, 72
4, 45840, Note_on_c, 0, 42, 0
4, 45840, Note_on_c, 0, 40, 72
4, 45864, Note_on_c, 0, 40, 0
4, 45864, Note_on_c, 0, 38, 72
4, 45888, Note_on_c, 0, 38, 0
4, 45888, Note_on_c, 0, 43, 72
4, 45984, Note_on_c, 0, 43, 0
4, 45984, Note_on_c, 0, 55, 72
4, 46008, Note_on_c, 0, 55, 0
4, 46008, Note_on_c, 0, 53, 72
4, 46032, Note_on_c, 0, 53, 0
4, 46032, Note_on_c, 0, 52, 72
4, 46056, Note_on_c, 0, 52, 0
4, 46056, Note_on_c, 0, 50, 72
4, 46080, Note_on_c, 0, 50, 0
4, 46080, Note_on_c, 0, 49, 72
4, 46176, Note_on_c, 0, 49, 0
4, 46176, Note_on_c, 0, 50, 72
4, 46200, Note_on_c, 0, 50, 0
4, 46200, Note_on_c, 0, 48, 72
4, 46224, Note_on_c, 0, 48, 0
4, 46224, Note_on_c, 0, 47, 72
4, 46248, Note_on_c, 0, 47, 0
4, 46248, Note_on_c, 0, 45, 72
4, 46272, Note_on_c, 0, 45, 0
4, 46272, Note_on_c, 0, 44, 72
4, 46368, Note_on_c, 0, 44, 0
4, 46368, Note_on_c, 0, 45, 72
4, 46392, Note_on_c, 0, 45, 0
4, 46392, Note_on_c, 0, 43, 72
4, 46416, Note_on_c, 0, 43, 0
4, 46416, Note_on_c, 0, 41, 72
4, 46440, Note_on_c, 0, 41, 0
4, 46440, Note_on_c, 0, 40, 72
4, 46464, Note_on_c, 0, 40, 0
4, 46464, Note_on_c, 0, 38, 72
4, 46560, Note_on_c, 0, 38, 0
4, 46560, Note_on_c, 0, 36, 72
4, 46656, Note_on_c, 0, 36, 0
4, 46656, Note_on_c, 0, 38, 72
4, 46752, Note_on_c, 0, 38, 0
4, 46752, Note_on_c, 0, 40, 72
4, 46848, Note_on_c, 0, 40, 0
4, 46848, Note_on_c, 0, 41, 72
4, 46944, Note_on_c, 0, 41, 0
4, 46944, Note_on_c, 0, 38, 72
4, 47040, Note_on_c, 0, 38, 0
4, 47040, Note_on_c, 0, 40, 72
4, 47136, Note_on_c, 0, 40, 0
4, 47136, Note_on_c, 0, 52, 72
4, 47232, Note_on_c, 0, 52, 0
4, 47232, Program_c, 0, 0
4, 47232, Note_on_c, 0, 45, 88
4, 47280, Note_on_c, 0, 45, 0
4, 47280, Note_on_c, 0, 52, 88
4, 47328, Note_on_c, 0, 52, 0
4, 47328, Note_on_c, 0, 57, 88
4, 47376, Note_on_c, 0, 57, 0
4, 47376, Note_on_c, 0, 57, 88
4, 47424, Note_on_c, 0, 57, 0
4, 47424, Note_on_c, 0, 57, 88
4, 47472, Note_on_c, 0, 57, 0
4, 47472, Note_on_c, 0, 53, 88
4, 47520, Note_on_c, 0, 53, 0
4, 47520, Note_on_c, 0, 55, 88
4, 47568, Note_on_c, 0, 55, 0
4, 47568, Note_on_c, 0, 55, 88
4, 47616, Note_on_c, 0, 55, 0
4, 47616, Note_on_c, 0, 55, 88
4, 47664, Note_on_c, 0, 55, 0
4, 47664, Note_on_c, 0, 52, 88
4, 47712, Note_on_c, 0, 52, 0
4, 47712, Note_on_c, 0, 53, 88
4, 47760, Note_on_c, 0, 53, 0
4, 47760, Note_on_c, 0, 53, 88
4, 47808, Note_on_c, 0, 53, 0
4, 47808, Note_on_c, 0, 53, 88
4, 47856, Note_on_c, 0, 53, 0
4, 47856, Note_on_c, 0, 50, 88
4, 47904, Note_on_c, 0, 50, 0
4, 47904, Note_on_c, 0, 58, 88
4, 48000, Note_on_c, 0, 58, 0
4, 48000, Note_on_c, 0, 57, 88
4, 48096, Note_on_c, 0, 57, 0
4, 48096, Note_on_c, 0, 62, 88
4, 48192, Note_on_c, 0, 62, 0
4, 48192, Note_on_c, 0, 56, 88
4, 48288, Note_on_c, 0, 56, 0
4, 48288, Note_on_c, 0, 55, 88
4, 48384, Note_on_c, 0, 55, 0
4, 48384, Note_on_c, 0, 53, 88
4, 48480, Note_on_c, 0, 53, 0
4, 48480, Note_on_c, 0, 58, 72
4, 48576, Note_on_c, 0, 58, 0
4, 48576, Note_on_c, 0, 52, 72
4, 48768, Note_on_c, 0, 52, 0
4, 48768, Note_on_c, 0, 52, 72
4, 48864, Note_on_c, 0, 52, 0
4, 48864, Note_on_c, 0, 50, 72
4, 49056, Note_on_c, 0, 50, 0
4, 49056, Note_on_c, 0, 50, 72
4, 49104, Note_on_c, 0, 50, 0
4, 49104, Note_on_c, 0, 49, 72
4, 49152, Note_on_c, 0, 49, 0
4, 49152, Note_on_c, 0, 50, 72
4, 49344, Note_on_c, 0, 50, 0
4, 50112, Note_on_c, 0, 57, 88
4, 50304, Note_on_c, 0, 57, 0
4, 50304, Note_on_c, 0, 55, 88
4, 50400, Note_on_c, 0, 55, 0
4, 50400, Note_on_c, 0, 60, 88
4, 50496, Note_on_c, 0, 60, 0
4, 50496, Note_on_c, 0, 54, 88
4, 50592, Note_on_c, 0, 54, 0
4, 50592, Note_on_c, 0, 53, 88
4, 50688, Note_on_c, 0, 53, 0
4, 50688, Note_on_c, 0, 52, 88
4, 50784, Note_on_c, 0, 52, 0
4, 50784, Note_on_c, 0, 57, 88
4, 50880, Note_on_c, 0, 57, 0
4, 50880, Note_on_c, 0, 52, 88
4, 50904, Note_on_c, 0, 52, 0
4, 50904, Note_on_c, 0, 50, 88
4, 50928, Note_on_c, 0, 50, 0
4, 50928, Note_on_c, 0, 52, 88
4, 50952, Note_on_c, 0, 52, 0
4, 50952, Note_on_c, 0, 50, 88
4, 50976, Note_on_c, 0, 50, 0
4, 50976, Note_on_c, 0, 52, 88
4, 51000, Note_on_c, 0, 52, 0
4, 51000, Note_on_c, 0, 50, 88
4, 51024, Note_on_c, 0, 50, 0
4, 51024, Note_on_c, 0, 48, 88
4, 51048, Note_on_c, 0, 48, 0
4, 51048, Note_on_c, 0, 50, 88
4, 51072, Note_on_c, 0, 50, 0
4, 51072, Note_on_c, 0, 48, 88
4, 51168, Note_on_c, 0, 48, 0
4, 51168, Note_on_c, 0, 50, 88
4, 51264, Note_on_c, 0, 50, 0
4, 51264, Note_on_c, 0, 52, 88
4, 51312, Note_on_c, 0, 52, 0
4, 51312, Note_on_c, 0, 50, 88
4, 51360, Note_on_c, 0, 50, 0
4, 51360, Note_on_c, 0, 52, 88
4, 51456, Note_on_c, 0, 52, 0
4, 51456, Note_on_c, 0, 45, 88
4, 51648, Note_on_c, 0, 45, 0
4, 51744, Note_on_c, 0, 47, 72
4, 51840, Note_on_c, 0, 47, 0
4, 51840, Note_on_c, 0, 48, 72
4, 51888, Note_on_c, 0, 48, 0
4, 51888, Note_on_c, 0, 47, 72
4, 51936, Note_on_c, 0, 47, 0
4, 51936, Note_on_c, 0, 48, 72
4, 51984, Note_on_c, 0, 48, 0
4, 51984, Note_on_c, 0, 50, 72
4, 52032, Note_on_c, 0, 50, 0
4, 52032, Note_on_c, 0, 52, 72
4, 52080, Note_on_c, 0, 52, 0
4, 52080, Note_on_c, 0, 50, 72
4, 52128, Note_on_c, 0, 50, 0
4, 52128, Note_on_c, 0, 53, 72
4, 52176, Note_on_c, 0, 53, 0
4, 52176, Note_on_c, 0, 52, 72
4, 52224, Note_on_c, 0, 52, 0
4, 52224, Note_on_c, 0, 53, 72
4, 52272, Note_on_c, 0, 53, 0
4, 52272, Note_on_c, 0, 50, 72
4, 52320, Note_on_c, 0, 50, 0
4, 52320, Note_on_c, 0, 55, 72
4, 52512, Note_on_c, 0, 55, 0
4, 52512, Note_on_c, 0, 53, 72
4, 52560, Note_on_c, 0, 53, 0
4, 52560, Note_on_c, 0, 52, 72
4, 52608, Note_on_c, 0, 52, 0
4, 52608, Note_on_c, 0, 53, 72
4, 52704, Note_on_c, 0, 53, 0
4, 52704, Note_on_c, 0, 57, 72
4, 52800, Note_on_c, 0, 57, 0
4, 52800, Note_on_c, 0, 54, 72
4, 52896, Note_on_c, 0, 54, 0
4, 52896, Note_on_c, 0, 50, 72
4, 52992, Note_on_c, 0, 50, 0
4, 52992, Note_on_c, 0, 55, 72
4, 53184, Note_on_c, 0, 55, 0
4, 53280, Note_on_c, 0, 55, 72
4, 53376, Note_on_c, 0, 55, 0
4, 53376, Note_on_c, 0, 48, 72
4, 53424, Note_on_c, 0, 48, 0
4, 53424, Note_on_c, 0, 60, 72
4, 53472, Note_on_c, 0, 60, 0
4, 53472, Note_on_c, 0, 58, 72
4, 53520, Note_on_c, 0, 58, 0
4, 53520, Note_on_c, 0, 57, 72
4, 53568, Note_on_c, 0, 57, 0
4, 53568, Note_on_c, 0, 55, 72
4, 53616, Note_on_c, 0, 55, 0
4, 53616, Note_on_c, 0, 57, 72
4, 53664, Note_on_c, 0, 57, 0
4, 53664, Note_on_c, 0, 53, 72
4, 53712, Note_on_c, 0, 53, 0
4, 53712, Note_on_c, 0, 55, 72
4, 53760, Note_on_c, 0, 55, 0
4, 53760, Note_on_c, 0, 57, 72
4, 53808, Note_on_c, 0, 57, 0
4, 53808, Note_on_c, 0, 58, 72
4, 53856, Note_on_c, 0, 58, 0
4, 53856, Note_on_c, 0, 60, 72
4, 53904, Note_on_c, 0, 60, 0
4, 53904, Note_on_c, 0, 62, 72
4, 53952, Note_on_c, 0, 62, 0
4, 53952, Note_on_c, 0, 64, 72
4, 54000, Note_on_c, 0, 64, 0
4, 54000, Note_on_c, 0, 62, 72
4, 54048, Note_on_c, 0, 62, 0
4, 54048, Note_on_c, 0, 65, 72
4, 54096, Note_on_c, 0, 65, 0
4, 54096, Note_on_c, 0, 64, 72
4, 54144, Note_on_c, 0, 64, 0
4, 54144, Note_on_c, 0, 65, 72
4, 54240, Note_on_c, 0, 65, 0
4, 54240, Note_on_c, 0, 58, 72
4, 54336, Note_on_c, 0, 58, 0
4, 54336, Note_on_c, 0, 60, 72
4, 54432, Note_on_c, 0, 60, 0
4, 54432, Note_on_c, 0, 48, 72
4, 54528, Note_on_c, 0, 48, 0
4, 54528, Note_on_c, 0, 53, 72
4, 54576, Note_on_c, 0, 53, 0
4, 54576, Note_on_c, 0, 55, 72
4, 54624, Note_on_c, 0, 55, 0
4, 54624, Note_on_c, 0, 57, 72
4, 54672, Note_on_c, 0, 57, 0
4, 54672, Note_on_c, 0, 58, 72
4, 54720, Note_on_c, 0, 58, 0
4, 54720, Note_on_c, 0, 60, 72
4, 54768, Note_on_c, 0, 60, 0
4, 54768, Note_on_c, 0, 59, 72
4, 54816, Note_on_c, 0, 59, 0
4, 54816, Note_on_c, 0, 62, 72
4, 54864, Note_on_c, 0, 62, 0
4, 54864, Note_on_c, 0, 61, 72
4, 54912, Note_on_c, 0, 61, 0
4, 54912, Note_on_c, 0, 62, 72
4, 54960, Note_on_c, 0, 62, 0
4, 54960, Note_on_c, 0, 47, 72
4, 55008, Note_on_c, 0, 47, 0
4, 55008, Note_on_c, 0, 49, 72
4, 55056, Note_on_c, 0, 49, 0
4, 55056, Note_on_c, 0, 50, 72
4, 55104, Note_on_c, 0, 50, 0
4, 55104, Note_on_c, 0, 52, 72
4, 55152, Note_on_c, 0, 52, 0
4, 55152, Note_on_c, 0, 50, 72
4, 55200, Note_on_c, 0, 50, 0
4, 55200, Note_on_c, 0, 53, 72
4, 55248, Note_on_c, 0, 53, 0
4, 55248, Note_on_c, 0, 52, 72
4, 55296, Note_on_c, 0, 52, 0
4, 55296, Note_on_c, 0, 55, 72
4, 55344, Note_on_c, 0, 55, 0
4, 55344, Note_on_c, 0, 53, 72
4, 55392, Note_on_c, 0, 53, 0
4, 55392, Note_on_c, 0, 52, 72
4, 55440, Note_on_c, 0, 52, 0
4, 55440, Note_on_c, 0, 50, 72
4, 55488, Note_on_c, 0, 50, 0
4, 55488, Note_on_c, 0, 49, 72
4, 55536, Note_on_c, 0, 49, 0
4, 55536, Note_on_c, 0, 50, 72
4, 55584, Note_on_c, 0, 50, 0
4, 55584, Note_on_c, 0, 47, 72
4, 55632, Note_on_c, 0, 47, 0
4, 55632, Note_on_c, 0, 49, 72
4, 55680, Note_on_c, 0, 49, 0
4, 55680, Note_on_c, 0, 50, 72
4, 55728, Note_on_c, 0, 50, 0
4, 55728, Note_on_c, 0, 48, 72
4, 55776, Note_on_c, 0, 48, 0
4, 55776, Note_on_c, 0, 47, 72
4, 55824, Note_on_c, 0, 47, 0
4, 55824, Note_on_c, 0, 45, 72
4, 55872, Note_on_c, 0, 45, 0
4, 55872, Note_on_c, 0, 44, 72
4, 55920, Note_on_c, 0, 44, 0
4, 55920, Note_on_c, 0, 45, 72
4, 55968, Note_on_c, 0, 45, 0
4, 55968, Note_on_c, 0, 42, 72
4, 56016, Note_on_c, 0, 42, 0
4, 56016, Note_on_c, 0, 44, 72
4, 56064, Note_on_c, 0, 44, 0
4, 56064, Note_on_c, 0, 45, 72
4, 56160, Note_on_c, 0, 45, 0
4, 56160, Note_on_c, 0, 57, 72
4, 56352, Note_on_c, 0, 57, 0
4, 56352, Note_on_c, 0, 56, 72
4, 56448, Note_on_c, 0, 56, 0
4, 56448, Note_on_c, 0, 57, 72
4, 56544, Note_on_c, 0, 57, 0
4, 56544, Note_on_c, 0, 60, 88
4, 56640, Note_on_c, 0, 60, 0
4, 56640, Note_on_c, 0, 54, 88
4, 56736, Note_on_c, 0, 54, 0
4, 56736, Note_on_c, 0, 56, 88
4, 56832, Note_on_c, 0, 56, 0
4, 56928, Note_on_c, 0, 57, 88
4, 57024, Note_on_c, 0, 57, 0
4, 57024, Note_on_c, 0, 58, 88
4, 57120, Note_on_c, 0, 58, 0
4, 57120, Note_on_c, 0, 60, 88
4, 57216, Note_on_c, 0, 60, 0
4, 57312, Note_on_c, 0, 62, 88
4, 57408, Note_on_c, 0, 62, 0
4, 57408, Note_on_c, 0, 60, 88
4, 57504, Note_on_c, 0, 60, 0
4, 57504, Note_on_c, 0, 58, 88
4, 57600, Note_on_c, 0, 58, 0
4, 57696, Note_on_c, 0, 57, 88
4, 57744, Note_on_c, 0, 57, 0
4, 57744, Note_on_c, 0, 55, 88
4, 57792, Note_on_c, 0, 55, 0
4, 57792, Note_on_c, 0, 57, 88
4, 57888, Note_on_c, 0, 57, 0
4, 57888, Note_on_c, 0, 59, 88
4, 57984, Note_on_c, 0, 59, 0
4, 57984, Note_on_c, 0, 60, 88
4, 58032, Note_on_c, 0, 60, 0
4, 58032, Note_on_c, 0, 62, 72
4, 58080, Note_on_c, 0, 62, 0
4, 58080, Note_on_c, 0, 60, 72
4, 58128, Note_on_c, 0, 60, 0
4, 58128, Note_on_c, 0, 59, 72
4, 58176, Note_on_c, 0, 59, 0
4, 58176, Note_on_c, 0, 57, 72
4, 58224, Note_on_c, 0, 57, 0
4, 58224, Note_on_c, 0, 60, 72
4, 58272, Note_on_c, 0, 60, 0
4, 58272, Note_on_c, 0, 66, 72
4, 58320, Note_on_c, 0, 66, 0
4, 58320, Note_on_c, 0, 69, 72
4, 58368, Note_on_c, 0, 69, 0
4, 58368, Note_on_c, 0, 69, 72
4, 58416, Note_on_c, 0, 69, 0
4, 58416, Note_on_c, 0, 66, 72
4, 58464, Note_on_c, 0, 66, 0
4, 58464, Note_on_c, 0, 67, 72
4, 58512, Note_on_c, 0, 67, 0
4, 58512, Note_on_c, 0, 67, 72
4, 58560, Note_on_c, 0, 67, 0
4, 58560, Note_on_c, 0, 67, 72
4, 58608, Note_on_c, 0, 67, 0
4, 58608, Note_on_c, 0, 64, 72
4, 58656, Note_on_c, 0, 64, 0
4, 58656, Note_on_c, 0, 65, 72
4, 58704, Note_on_c, 0, 65, 0
4, 58704, Note_on_c, 0, 65, 72
4, 58752, Note_on_c, 0, 65, 0
4, 58752, Note_on_c, 0, 65, 72
4, 58800, Note_on_c, 0, 65, 0
4, 58800, Note_on_c, 0, 63, 72
4, 58848, Note_on_c, 0, 63, 0
4, 58848, Note_on_c, 0, 64, 72
4, 58896, Note_on_c, 0, 64, 0
4, 58896, Note_on_c, 0, 64, 72
4, 58944, Note_on_c, 0, 64, 0
4, 58944, Note_on_c, 0, 64, 72
4, 58992, Note_on_c, 0, 64, 0
4, 58992, Note_on_c, 0, 62, 72
4, 59040, Note_on_c, 0, 62, 0
4, 59040, Note_on_c, 0, 60, 72
4, 59088, Note_on_c, 0, 60, 0
4, 59088, Note_on_c, 0, 59, 72
4, 59136, Note_on_c, 0, 59, 0
4, 59136, Note_on_c, 0, 60, 72
4, 59184, Note_on_c, 0, 60, 0
4, 59184, Note_on_c, 0, 64, 72
4, 59232, Note_on_c, 0, 64, 0
4, 59232, Note_on_c, 0, 62, 72
4, 59280, Note_on_c, 0, 62, 0
4, 59280, Note_on_c, 0, 60, 72
4, 59328, Note_on_c, 0, 60, 0
4, 59328, Note_on_c, 0, 59, 72
4, 59376, Note_on_c, 0, 59, 0
4, 59376, Note_on_c, 0, 60, 72
4, 59424, Note_on_c, 0, 60, 0
4, 59424, Note_on_c, 0, 57, 72
4, 59472, Note_on_c, 0, 57, 0
4, 59472, Note_on_c, 0, 59, 72
4, 59520, Note_on_c, 0, 59, 0
4, 59520, Note_on_c, 0, 60, 72
4, 59568, Note_on_c, 0, 60, 0
4, 59568, Note_on_c, 0, 62, 72
4, 59616, Note_on_c, 0, 62, 0
4, 59616, Note_on_c, 0, 60, 72
4, 59664, Note_on_c, 0, 60, 0
4, 59664, Note_on_c, 0, 58, 72
4, 59712, Note_on_c, 0, 58, 0
4, 59712, Note_on_c, 0, 57, 72
4, 59808, Note_on_c, 0, 57, 0
4, 59808, Note_on_c, 0, 62, 72
4, 59904, Note_on_c, 0, 62, 0
4, 59904, Note_on_c, 0, 67, 72
4, 60000, Note_on_c, 0, 67, 0
4, 60000, Note_on_c, 0, 60, 72
4, 60096, Note_on_c, 0, 60, 0
4, 60096, Note_on_c, 0, 58, 72
4, 60192, Note_on_c, 0, 58, 0
4, 60192, Note_on_c, 0, 57, 72
4, 60288, Note_on_c, 0, 57, 0
4, 60288, Note_on_c, 0, 55, 72
4, 60480, Note_on_c, 0, 55, 0
4, 60528, Note_on_c, 0, 58, 72
4, 60576, Note_on_c, 0, 58, 0
4, 60576, Note_on_c, 0, 57, 72
4, 60624, Note_on_c, 0, 57, 0
4, 60624, Note_on_c, 0, 55, 72
4, 60672, Note_on_c, 0, 55, 0
4, 60672, Note_on_c, 0, 53, 88
4, 60768, Note_on_c, 0, 53, 0
4, 60768, Note_on_c, 0, 58, 88
4, 60864, Note_on_c, 0, 58, 0
4, 60864, Note_on_c, 0, 52, 88
4, 60960, Note_on_c, 0, 52, 0
4, 60960, Note_on_c, 0, 51, 88
4, 61056, Note_on_c, 0, 51, 0
4, 61056, Note_on_c, 0, 50, 88
4, 61152, Note_on_c, 0, 50, 0
4, 61152, Note_on_c, 0, 55, 88
4, 61248, Note_on_c, 0, 55, 0
4, 61248, Note_on_c, 0, 50, 88
4, 61272, Note_on_c, 0, 50, 0
4, 61272, Note_on_c, 0, 48, 88
4, 61296, Note_on_c, 0, 48, 0
4, 61296, Note_on_c, 0, 50, 88
4, 61320, Note_on_c, 0, 50, 0
4, 61320, Note_on_c, 0, 48, 88
4, 61344, Note_on_c, 0, 48, 0
4, 61344, Note_on_c, 0, 50, 88
4, 61368, Note_on_c, 0, 50, 0
4, 61368, Note_on_c, 0, 48, 88
4, 61392, Note_on_c, 0, 48, 0
4, 61392, Note_on_c, 0, 46, 88
4, 61416, Note_on_c, 0, 46, 0
4, 61416, Note_on_c, 0, 48, 88
4, 61440, Note_on_c, 0, 48, 0
4, 61440, Note_on_c, 0, 46, 88
4, 61536, Note_on_c, 0, 46, 0
4, 61536, Note_on_c, 0, 48, 88
4, 61632, Note_on_c, 0, 48, 0
4, 61632, Note_on_c, 0, 50, 88
4, 61680, Note_on_c, 0, 50, 0
4, 61680, Note_on_c, 0, 48, 88
4, 61728, Note_on_c, 0, 48, 0
4, 61728, Note_on_c, 0, 50, 88
4, 61824, Note_on_c, 0, 50, 0
4, 61824, Note_on_c, 0, 43, 88
4, 62016, Note_on_c, 0, 43, 0
4, 62304, Note_on_c, 0, 55, 72
4, 62352, Note_on_c, 0, 55, 0
4, 62352, Note_on_c, 0, 57, 72
4, 62400, Note_on_c, 0, 57, 0
4, 62400, Note_on_c, 0, 55, 72
4, 62496, Note_on_c, 0, 55, 0
4, 62496, Note_on_c, 0, 49, 72
4, 62592, Note_on_c, 0, 49, 0
4, 62592, Note_on_c, 0, 50, 72
4, 62688, Note_on_c, 0, 50, 0
4, 62688, Note_on_c, 0, 62, 72
4, 62832, Note_on_c, 0, 62, 0
4, 62832, Note_on_c, 0, 60, 72
4, 62880, Note_on_c, 0, 60, 0
4, 62880, Note_on_c, 0, 58, 72
4, 62928, Note_on_c, 0, 58, 0
4, 62928, Note_on_c, 0, 57, 72
4, 62976, Note_on_c, 0, 57, 0
4, 62976, Note_on_c, 0, 55, 72
4, 63120, Note_on_c, 0, 55, 0
4, 63120, Note_on_c, 0, 53, 72
4, 63168, Note_on_c, 0, 53, 0
4, 63168, Note_on_c, 0, 52, 72
4, 63216, Note_on_c, 0, 52, 0
4, 63216, Note_on_c, 0, 50, 72
4, 63264, Note_on_c, 0, 50, 0
4, 63264, Note_on_c, 0, 49, 72
4, 63312, Note_on_c, 0, 49, 0
4, 63312, Note_on_c, 0, 58, 72
4, 63360, Note_on_c, 0, 58, 0
4, 63360, Note_on_c, 0, 57, 72
4, 63504, Note_on_c, 0, 57, 0
4, 63504, Note_on_c, 0, 55, 72
4, 63552, Note_on_c, 0, 55, 0
4, 63552, Note_on_c, 0, 53, 72
4, 63600, Note_on_c, 0, 53, 0
4, 63600, Note_on_c, 0, 52, 72
4, 63648, Note_on_c, 0, 52, 0
4, 63648, Note_on_c, 0, 50, 72
4, 63696, Note_on_c, 0, 50, 0
4, 63696, Note_on_c, 0, 60, 72
4, 63744, Note_on_c, 0, 60, 0
4, 63744, Note_on_c, 0, 59, 72
4, 63888, Note_on_c, 0, 59, 0
4, 63888, Note_on_c, 0, 57, 72
4, 63936, Note_on_c, 0, 57, 0
4, 63936, Note_on_c, 0, 56, 72
4, 63984, Note_on_c, 0, 56, 0
4, 63984, Note_on_c, 0, 59, 72
4, 64032, Note_on_c, 0, 59, 0
4, 64032, Note_on_c, 0, 52, 72
4, 64128, Note_on_c, 0, 52, 0
4, 64128, Note_on_c, 0, 57, 72
4, 64512, Note_on_c, 0, 57, 0
4, 64512, Note_on_c, 0, 57, 72
4, 64896, Note_on_c, 0, 57, 0
4, 65088, Note_on_c, 0, 50, 88
4, 65280, Note_on_c, 0, 50, 0
4, 65280, Note_on_c, 0, 48, 88
4, 65376, Note_on_c, 0, 48, 0
4, 65376, Note_on_c, 0, 53, 88
4, 65472, Note_on_c, 0, 53, 0
4, 65472, Note_on_c, 0, 47, 88
4, 65568, Note_on_c, 0, 47, 0
4, 65568, Note_on_c, 0, 46, 88
4, 65664, Note_on_c, 0, 46, 0
4, 65664, Note_on_c, 0, 45, 88
4, 65760, Note_on_c, 0, 45, 0
4, 65760, Note_on_c, 0, 50, 88
4, 65856, Note_on_c, 0, 50, 0
4, 65856, Note_on_c, 0, 45, 88
4, 65880, Note_on_c, 0, 45, 0
4, 65880, Note_on_c, 0, 43, 88
4, 65904, Note_on_c, 0, 43, 0
4, 65904, Note_on_c, 0, 45, 88
4, 65928, Note_on_c, 0, 45, 0
4, 65928, Note_on_c, 0, 43, 88
4, 65952, Note_on_c, 0, 43, 0
4, 65952, Note_on_c, 0, 45, 88
4, 65976, Note_on_c, 0, 45, 0
4, 65976, Note_on_c, 0, 43, 88
4, 66000, Note_on_c, 0, 43, 0
4, 66000, Note_on_c, 0, 41, 88
4, 66024, Note_on_c, 0, 41, 0
4, 66024, Note_on_c, 0, 43, 88
4, 66048, Note_on_c, 0, 43, 0
4, 66048, Note_on_c, 0, 41, 88
4, 66144, Note_on_c, 0, 41, 0
4, 66144, Note_on_c, 0, 43, 88
4, 66240, Note_on_c, 0, 43, 0
4, 66240, Note_on_c, 0, 45, 88
4, 66288, Note_on_c, 0, 45, 0
4, 66288, Note_on_c, 0, 43, 88
4, 66336, Note_on_c, 0, 43, 0
4, 66336, Note_on_c, 0, 45, 88
4, 66432, Note_on_c, 0, 45, 0
4, 66432, Note_on_c, 0, 38, 88
4, 66528, Note_on_c, 0, 38, 0
4, 66528, Note_on_c, 0, 50, 72
4, 66672, Note_on_c, 0, 50, 0
4, 66672, Note_on_c, 0, 48, 72
4, 66720, Note_on_c, 0, 48, 0
4, 66720, Note_on_c, 0, 46, 72
4, 66768, Note_on_c, 0, 46, 0
4, 66768, Note_on_c, 0, 50, 72
4, 66816, Note_on_c, 0, 50, 0
4, 66816, Note_on_c, 0, 48, 72
4, 66912, Note_on_c, 0, 48, 0
4, 66912, Note_on_c, 0, 60, 72
4, 67056, Note_on_c, 0, 60, 0
4, 67056, Note_on_c, 0, 58, 72
4, 67104, Note_on_c, 0, 58, 0
4, 67104, Note_on_c, 0, 57, 72
4, 67152, Note_on_c, 0, 57, 0
4, 67152, Note_on_c, 0, 60, 72
4, 67200, Note_on_c, 0, 60, 0
4, 67200, Note_on_c, 0, 58, 72
4, 67296, Note_on_c, 0, 58, 0
4, 67296, Note_on_c, 0, 46, 72
4, 67440, Note_on_c, 0, 46, 0
4, 67440, Note_on_c, 0, 45, 72
4, 67488, Note_on_c, 0, 45, 0
4, 67488, Note_on_c, 0, 43, 72
4, 67536, Note_on_c, 0, 43, 0
4, 67536, Note_on_c, 0, 46, 72
4, 67584, Note_on_c, 0, 46, 0
4, 67584, Note_on_c, 0, 45, 72
4, 67680, Note_on_c, 0, 45, 0
4, 67680, Note_on_c, 0, 57, 72
4, 67824, Note_on_c, 0, 57, 0
4, 67824, Note_on_c, 0, 55, 72
4, 67872, Note_on_c, 0, 55, 0
4, 67872, Note_on_c, 0, 54, 72
4, 67920, Note_on_c, 0, 54, 0
4, 67920, Note_on_c, 0, 57, 72
4, 67968, Note_on_c, 0, 57, 0
4, 67968, Note_on_c, 0, 55, 72
4, 68064, Note_on_c, 0, 55, 0
4, 68064, Note_on_c, 0, 55, 72
4, 68112, Note_on_c, 0, 55, 0
4, 68112, Note_on_c, 0, 55, 72
4, 68160, Note_on_c, 0, 55, 0
4, 68160, Note_on_c, 0, 55, 72
4, 68256, Note_on_c, 0, 55, 0
4, 68256, Note_on_c, 0, 52, 72
4, 68304, Note_on_c, 0, 52, 0
4, 68304, Note_on_c, 0, 52, 72
4, 68352, Note_on_c, 0, 52, 0
4, 68352, Note_on_c, 0, 52, 72
4, 68448, Note_on_c, 0, 52, 0
4, 68448, Note_on_c, 0, 49, 72
4, 68496, Note_on_c, 0, 49, 0
4, 68496, Note_on_c, 0, 49, 72
4, 68544, Note_on_c, 0, 49, 0
4, 68544, Note_on_c, 0, 49, 72
4, 68640, Note_on_c, 0, 49, 0
4, 68832, Note_on_c, 0, 56, 72
4, 68928, Note_on_c, 0, 56, 0
4, 68928, Note_on_c, 0, 57, 72
4, 69024, Note_on_c, 0, 57, 0
4, 69024, Note_on_c, 0, 45, 72
4, 69120, Note_on_c, 0, 45, 0
4, 69120, Note_on_c, 0, 50, 72
4, 69504, Note_on_c, 0, 50, 0
4, 69504, Note_on_c, 0, 50, 72
4, 69696, Note_on_c, 0, 50, 0
4, 69984, Note_on_c, 0, 45, 88
4, 70080, Note_on_c, 0, 45, 0
4, 70080, Note_on_c, 0, 38, 88
4, 70176, Note_on_c, 0, 38, 0
4, 70176, Note_on_c, 0, 40, 88
4, 70272, Note_on_c, 0, 40, 0
4, 70368, Note_on_c, 0, 41, 88
4, 70464, Note_on_c, 0, 41, 0
4, 70464, Note_on_c, 0, 43, 88
4, 70560, Note_on_c, 0, 43, 0
4, 70560, Note_on_c, 0, 45, 88
4, 70656, Note_on_c, 0, 45, 0
4, 70752, Note_on_c, 0, 46, 88
4, 70848, Note_on_c, 0, 46, 0
4, 70848, Note_on_c, 0, 45, 88
4, 70944, Note_on_c, 0, 45, 0
4, 70944, Note_on_c, 0, 43, 88
4, 71040, Note_on_c, 0, 43, 0
4, 71136, Note_on_c, 0, 41, 88
4, 71184, Note_on_c, 0, 41, 0
4, 71184, Note_on_c, 0, 40, 88
4, 71232, Note_on_c, 0, 40, 0
4, 71232, Note_on_c, 0, 41, 88
4, 71328, Note_on_c, 0, 41, 0
4, 71328, Note_on_c, 0, 43, 88
4, 71424, Note_on_c, 0, 43, 0
4, 71424, Note_on_c, 0, 45, 88
4, 71808, Note_on_c, 0, 45, 0
4, 71808, Note_on_c, 0, 38, 88
4, 72096, Note_on_c, 0, 38, 0
4, 72192, End_track
0, 0, End_of_file
