0, 0, Header, 1, 5, 96
1, 0, Start_track
1, 0, Key_signature, -1, "major"
1, 0, Time_signature, 4, 2, 24, 8
1, 0, Tempo, 535450
1, 9504, Tempo, 599704
1, 9792, Tempo, 666337
1, 9888, Tempo, 799605
1, 9984, Time_signature, 5, 2, 24, 8
1, 10224, Tempo, 535450
1, 10464, Time_signature, 4, 2, 24, 8
1, 26496, Tempo, 599704
1, 26784, Tempo, 666337
1, 26880, Tempo, 799605
1, 26976, Tempo, 1499259
1, 27072, Tempo, 599704
1, 27456, Tempo, 535450
1, 33600, Tempo, 599704
1, 33792, Tempo, 666337
1, 33888, Tempo, 799605
1, 34080, Tempo, 535450
1, 60288, Tempo, 599704
1, 60384, Tempo, 666337
1, 60480, Tempo, 535450
1, 68736, Tempo, 599704
1, 68832, Tempo, 666337
1, 68928, Tempo, 535450
1, 69312, Tempo, 599704
1, 69696, Tempo, 666337
1, 69984, Tempo, 799605
1, 70080, Tempo, 999506
1, 70272, Tempo, 1199407
1, 70368, Tempo, 1499259
1, 70752, End_track
2, 0, Start_track
2, 0, Program_c, 0, 5
2, 1632, Note_on_c, 0, 69, 88
2, 1728, Note_on_c, 0, 69, 0
2, 1728, Note_on_c, 0, 76, 88
2, 1824, Note_on_c, 0, 76, 0
2, 1824, Note_on_c, 0, 74, 88
2, 1920, Note_on_c, 0, 74, 0
2, 2016, Note_on_c, 0, 72, 88
2, 2112, Note_on_c, 0, 72, 0
2, 2112, Note_on_c, 0, 71, 88
2, 2208, Note_on_c, 0, 71, 0
2, 2208, Note_on_c, 0, 69, 88
2, 2304, Note_on_c, 0, 69, 0
2, 2400, Note_on_c, 0, 68, 88
2, 2496, Note_on_c, 0, 68, 0
2, 2496, Note_on_c, 0, 69, 88
2, 2592, Note_on_c, 0, 69, 0
2, 2592, Note_on_c, 0, 71, 88
2, 2688, Note_on_c, 0, 71, 0
2, 2784, Note_on_c, 0, 72, 88
2, 2832, Note_on_c, 0, 72, 0
2, 2832, Note_on_c, 0, 74, 88
2, 2880, Note_on_c, 0, 74, 0
2, 2880, Note_on_c, 0, 72, 88
2, 2976, Note_on_c, 0, 72, 0
2, 2976, Note_on_c, 0, 71, 88
2, 3072, Note_on_c, 0, 71, 0
2, 3072, Note_on_c, 0, 69, 88
2, 3168, Note_on_c, 0, 69, 0
2, 3168, Note_on_c, 0, 71, 72
2, 3264, Note_on_c, 0, 71, 0
2, 3264, Note_on_c, 0, 72, 72
2, 3360, Note_on_c, 0, 72, 0
2, 3360, Note_on_c, 0, 73, 72
2, 3456, Note_on_c, 0, 73, 0
2, 3456, Note_on_c, 0, 74, 72
2, 3552, Note_on_c, 0, 74, 0
2, 3552, Note_on_c, 0, 73, 72
2, 3600, Note_on_c, 0, 73, 0
2, 3600, Note_on_c, 0, 71, 72
2, 3648, Note_on_c, 0, 71, 0
2, 3648, Note_on_c, 0, 73, 72
2, 3744, Note_on_c, 0, 73, 0
2, 3744, Note_on_c, 0, 74, 72
2, 3840, Note_on_c, 0, 74, 0
2, 3840, Note_on_c, 0, 76, 72
2, 3936, Note_on_c, 0, 76, 0
2, 3936, Note_on_c, 0, 79, 72
2, 4032, Note_on_c, 0, 79, 0
2, 4032, Note_on_c, 0, 77, 72
2, 4128, Note_on_c, 0, 77, 0
2, 4128, Note_on_c, 0, 76, 72
2, 4224, Note_on_c, 0, 76, 0
2, 4224, Note_on_c, 0, 81, 72
2, 4320, Note_on_c, 0, 81, 0
2, 4320, Note_on_c, 0, 74, 72
2, 4416, Note_on_c, 0, 74, 0
2, 4416, Note_on_c, 0, 71, 72
2, 4512, Note_on_c, 0, 71, 0
2, 4512, Note_on_c, 0, 73, 72
2, 4608, Note_on_c, 0, 73, 0
2, 4608, Note_on_c, 0, 74, 72
2, 4800, Note_on_c, 0, 74, 0
2, 4800, Note_on_c, 0, 72, 72
2, 4896, Note_on_c, 0, 72, 0
2, 4896, Note_on_c, 0, 71, 72
2, 4992, Note_on_c, 0, 71, 0
2, 4992, Note_on_c, 0, 69, 72
2, 5088, Note_on_c, 0, 69, 0
2, 5088, Note_on_c, 0, 76, 72
2, 5184, Note_on_c, 0, 76, 0
2, 5184, Note_on_c, 0, 74, 72
2, 5280, Note_on_c, 0, 74, 0
2, 5280, Note_on_c, 0, 72, 72
2, 5376, Note_on_c, 0, 72, 0
2, 5376, Note_on_c, 0, 72, 72
2, 5472, Note_on_c, 0, 72, 0
2, 5472, Note_on_c, 0, 71, 72
2, 5568, Note_on_c, 0, 71, 0
2, 5568, Note_on_c, 0, 69, 72
2, 5664, Note_on_c, 0, 69, 0
2, 5664, Note_on_c, 0, 68, 72
2, 5760, Note_on_c, 0, 68, 0
2, 5760, Note_on_c, 0, 69, 72
2, 5856, Note_on_c, 0, 69, 0
2, 5856, Note_on_c, 0, 64, 72
2, 5952, Note_on_c, 0, 64, 0
2, 6048, Note_on_c, 0, 71, 72
2, 6144, Note_on_c, 0, 71, 0
2, 6144, Note_on_c, 0, 73, 72
2, 6240, Note_on_c, 0, 73, 0
2, 6240, Note_on_c, 0, 74, 72
2, 6432, Note_on_c, 0, 74, 0
2, 6432, Note_on_c, 0, 76, 72
2, 6528, Note_on_c, 0, 76, 0
2, 6528, Note_on_c, 0, 69, 72
2, 6624, Note_on_c, 0, 69, 0
2, 6624, Note_on_c, 0, 81, 72
2, 6672, Note_on_c, 0, 81, 0
2, 6672, Note_on_c, 0, 82, 72
2, 6720, Note_on_c, 0, 82, 0
2, 6720, Note_on_c, 0, 81, 72
2, 6816, Note_on_c, 0, 81, 0
2, 6816, Note_on_c, 0, 79, 72
2, 6912, Note_on_c, 0, 79, 0
2, 6912, Note_on_c, 0, 77, 72
2, 7008, Note_on_c, 0, 77, 0
2, 7008, Note_on_c, 0, 73, 72
2, 7104, Note_on_c, 0, 73, 0
2, 7104, Note_on_c, 0, 74, 72
2, 7200, Note_on_c, 0, 74, 0
2, 7776, Note_on_c, 0, 76, 72
2, 7824, Note_on_c, 0, 76, 0
2, 7824, Note_on_c, 0, 77, 72
2, 7872, Note_on_c, 0, 77, 0
2, 7872, Note_on_c, 0, 76, 72
2, 7968, Note_on_c, 0, 76, 0
2, 7968, Note_on_c, 0, 74, 72
2, 8064, Note_on_c, 0, 74, 0
2, 8064, Note_on_c, 0, 73, 72
2, 8160, Note_on_c, 0, 73, 0
2, 8160, Note_on_c, 0, 76, 88
2, 8256, Note_on_c, 0, 76, 0
2, 8256, Note_on_c, 0, 81, 88
2, 8352, Note_on_c, 0, 81, 0
2, 8352, Note_on_c, 0, 79, 88
2, 8448, Note_on_c, 0, 79, 0
2, 8544, Note_on_c, 0, 77, 88
2, 8640, Note_on_c, 0, 77, 0
2, 8640, Note_on_c, 0, 76, 88
2, 8736, Note_on_c, 0, 76, 0
2, 8736, Note_on_c, 0, 74, 88
2, 8832, Note_on_c, 0, 74, 0
2, 8928, Note_on_c, 0, 73, 88
2, 9024, Note_on_c, 0, 73, 0
2, 9024, Note_on_c, 0, 74, 88
2, 9120, Note_on_c, 0, 74, 0
2, 9120, Note_on_c, 0, 76, 88
2, 9216, Note_on_c, 0, 76, 0
2, 9312, Note_on_c, 0, 77, 56
2, 9360, Note_on_c, 0, 77, 0
2, 9360, Note_on_c, 0, 79, 56
2, 9408, Note_on_c, 0, 79, 0
2, 9408, Note_on_c, 0, 77, 56
2, 9504, Note_on_c, 0, 77, 0
2, 9504, Note_on_c, 0, 76, 56
2, 9600, Note_on_c, 0, 76, 0
2, 9600, Note_on_c, 0, 74, 56
2, 9696, Note_on_c, 0, 74, 0
2, 9696, Note_on_c, 0, 74, 56
2, 9792, Note_on_c, 0, 74, 0
2, 9792, Note_on_c, 0, 74, 56
2, 9888, Note_on_c, 0, 74, 0
2, 9888, Note_on_c, 0, 73, 56
2, 9984, Note_on_c, 0, 73, 0
2, 9984, Note_on_c, 0, 74, 56
2, 10176, Note_on_c, 0, 74, 0
2, 10176, Note_on_c, 0, 74, 56
2, 10224, Note_on_c, 0, 74, 0
2, 10560, Program_c, 0, 13
2, 10560, Note_on_c, 0, 62, 72
2, 10656, Note_on_c, 0, 62, 0
2, 10656, Note_on_c, 0, 63, 72
2, 10752, Note_on_c, 0, 63, 0
2, 10752, Note_on_c, 0, 64, 72
2, 10848, Note_on_c, 0, 64, 0
2, 10848, Note_on_c, 0, 65, 72
2, 10944, Note_on_c, 0, 65, 0
2, 10944, Note_on_c, 0, 66, 72
2, 11040, Note_on_c, 0, 66, 0
2, 11040, Note_on_c, 0, 67, 72
2, 11136, Note_on_c, 0, 67, 0
2, 11136, Note_on_c, 0, 68, 72
2, 11232, Note_on_c, 0, 68, 0
2, 11232, Note_on_c, 0, 69, 72
2, 11280, Note_on_c, 0, 69, 0
2, 11280, Note_on_c, 0, 71, 72
2, 11328, Note_on_c, 0, 71, 0
2, 11328, Note_on_c, 0, 72, 72
2, 11376, Note_on_c, 0, 72, 0
2, 11376, Note_on_c, 0, 69, 72
2, 11424, Note_on_c, 0, 69, 0
2, 11424, Note_on_c, 0, 77, 72
2, 11568, Note_on_c, 0, 77, 0
2, 11568, Note_on_c, 0, 76, 72
2, 11592, Note_on_c, 0, 76, 0
2, 11592, Note_on_c, 0, 74, 72
2, 11616, Note_on_c, 0, 74, 0
2, 11616, Note_on_c, 0, 73, 72
2, 11712, Note_on_c, 0, 73, 0
2, 11712, Note_on_c, 0, 74, 72
2, 11808, Note_on_c, 0, 74, 0
2, 11808, Note_on_c, 0, 79, 72
2, 12000, Note_on_c, 0, 79, 0
2, 12000, Note_on_c, 0, 79, 72
2, 12096, Note_on_c, 0, 79, 0
2, 12096, Note_on_c, 0, 77, 72
2, 12144, Note_on_c, 0, 77, 0
2, 12144, Note_on_c, 0, 76, 72
2, 12192, Note_on_c, 0, 76, 0
2, 12192, Note_on_c, 0, 77, 72
2, 12240, Note_on_c, 0, 77, 0
2, 12240, Note_on_c, 0, 79, 72
2, 12288, Note_on_c, 0, 79, 0
2, 12288, Note_on_c, 0, 77, 72
2, 12336, Note_on_c, 0, 77, 0
2, 12336, Note_on_c, 0, 76, 72
2, 12384, Note_on_c, 0, 76, 0
2, 12384, Note_on_c, 0, 74, 72
2, 12480, Note_on_c, 0, 74, 0
2, 12480, Note_on_c, 0, 79, 72
2, 12528, Note_on_c, 0, 79, 0
2, 12528, Note_on_c, 0, 78, 72
2, 12576, Note_on_c, 0, 78, 0
2, 12576, Note_on_c, 0, 79, 72
2, 12624, Note_on_c, 0, 79, 0
2, 12624, Note_on_c, 0, 81, 72
2, 12672, Note_on_c, 0, 81, 0
2, 12672, Note_on_c, 0, 79, 72
2, 12720, Note_on_c, 0, 79, 0
2, 12720, Note_on_c, 0, 77, 72
2, 12768, Note_on_c, 0, 77, 0
2, 12768, Note_on_c, 0, 76, 72
2, 12864, Note_on_c, 0, 76, 0
2, 12864, Note_on_c, 0, 78, 72
2, 12960, Note_on_c, 0, 78, 0
2, 12960, Note_on_c, 0, 79, 72
2, 13056, Note_on_c, 0, 79, 0
2, 13056, Note_on_c, 0, 80, 72
2, 13152, Note_on_c, 0, 80, 0
2, 13152, Note_on_c, 0, 81, 72
2, 13200, Note_on_c, 0, 81, 0
2, 13200, Note_on_c, 0, 79, 72
2, 13248, Note_on_c, 0, 79, 0
2, 13248, Note_on_c, 0, 77, 72
2, 13296, Note_on_c, 0, 77, 0
2, 13296, Note_on_c, 0, 76, 72
2, 13344, Note_on_c, 0, 76, 0
2, 13344, Note_on_c, 0, 74, 72
2, 13392, Note_on_c, 0, 74, 0
2, 13392, Note_on_c, 0, 73, 72
2, 13440, Note_on_c, 0, 73, 0
2, 13440, Note_on_c, 0, 74, 72
2, 13536, Note_on_c, 0, 74, 0
2, 13536, Note_on_c, 0, 74, 72
2, 13584, Note_on_c, 0, 74, 0
2, 13584, Note_on_c, 0, 72, 72
2, 13632, Note_on_c, 0, 72, 0
2, 13632, Note_on_c, 0, 70, 72
2, 13680, Note_on_c, 0, 70, 0
2, 13680, Note_on_c, 0, 69, 72
2, 13728, Note_on_c, 0, 69, 0
2, 13728, Note_on_c, 0, 68, 72
2, 13776, Note_on_c, 0, 68, 0
2, 13776, Note_on_c, 0, 69, 72
2, 13824, Note_on_c, 0, 69, 0
2, 13824, Note_on_c, 0, 68, 72
2, 13872, Note_on_c, 0, 68, 0
2, 13872, Note_on_c, 0, 69, 72
2, 13920, Note_on_c, 0, 69, 0
2, 13920, Note_on_c, 0, 68, 72
2, 14016, Note_on_c, 0, 68, 0
2, 14016, Note_on_c, 0, 76, 72
2, 14208, Note_on_c, 0, 76, 0
2, 14208, Note_on_c, 0, 75, 72
2, 14304, Note_on_c, 0, 75, 0
2, 14304, Note_on_c, 0, 74, 72
2, 14400, Note_on_c, 0, 74, 0
2, 14400, Note_on_c, 0, 73, 72
2, 14496, Note_on_c, 0, 73, 0
2, 14496, Note_on_c, 0, 72, 72
2, 14592, Note_on_c, 0, 72, 0
2, 14592, Note_on_c, 0, 71, 72
2, 14688, Note_on_c, 0, 71, 0
2, 14688, Note_on_c, 0, 71, 72
2, 14736, Note_on_c, 0, 71, 0
2, 14736, Note_on_c, 0, 69, 72
2, 14784, Note_on_c, 0, 69, 0
2, 14832, Note_on_c, 0, 81, 72
2, 14880, Note_on_c, 0, 81, 0
2, 14880, Note_on_c, 0, 71, 72
2, 14928, Note_on_c, 0, 71, 0
2, 14928, Note_on_c, 0, 69, 72
2, 14976, Note_on_c, 0, 69, 0
2, 14976, Note_on_c, 0, 71, 72
2, 15024, Note_on_c, 0, 71, 0
2, 15024, Note_on_c, 0, 73, 72
2, 15072, Note_on_c, 0, 73, 0
2, 15072, Note_on_c, 0, 74, 72
2, 15168, Note_on_c, 0, 74, 0
2, 15216, Note_on_c, 0, 74, 72
2, 15264, Note_on_c, 0, 74, 0
2, 15264, Note_on_c, 0, 76, 72
2, 15312, Note_on_c, 0, 76, 0
2, 15312, Note_on_c, 0, 74, 72
2, 15360, Note_on_c, 0, 74, 0
2, 15360, Note_on_c, 0, 76, 72
2, 15408, Note_on_c, 0, 76, 0
2, 15408, Note_on_c, 0, 78, 72
2, 15456, Note_on_c, 0, 78, 0
2, 15456, Note_on_c, 0, 79, 72
2, 15504, Note_on_c, 0, 79, 0
2, 15504, Note_on_c, 0, 67, 72
2, 15552, Note_on_c, 0, 67, 0
2, 15552, Note_on_c, 0, 79, 72
2, 15648, Note_on_c, 0, 79, 0
2, 15648, Note_on_c, 0, 78, 72
2, 15744, Note_on_c, 0, 78, 0
2, 15744, Note_on_c, 0, 77, 72
2, 15840, Note_on_c, 0, 77, 0
2, 15840, Note_on_c, 0, 77, 72
2, 15888, Note_on_c, 0, 77, 0
2, 15888, Note_on_c, 0, 74, 72
2, 15936, Note_on_c, 0, 74, 0
2, 15936, Note_on_c, 0, 76, 72
2, 16032, Note_on_c, 0, 76, 0
2, 16032, Note_on_c, 0, 77, 72
2, 16128, Note_on_c, 0, 77, 0
2, 16128, Note_on_c, 0, 79, 72
2, 16224, Note_on_c, 0, 79, 0
2, 16224, Note_on_c, 0, 72, 72
2, 16320, Note_on_c, 0, 72, 0
2, 16320, Note_on_c, 0, 77, 72
2, 16416, Note_on_c, 0, 77, 0
2, 16416, Note_on_c, 0, 76, 72
2, 16512, Note_on_c, 0, 76, 0
2, 16512, Note_on_c, 0, 75, 72
2, 16608, Note_on_c, 0, 75, 0
2, 16608, Note_on_c, 0, 75, 72
2, 16656, Note_on_c, 0, 75, 0
2, 16656, Note_on_c, 0, 74, 72
2, 16704, Note_on_c, 0, 74, 0
2, 16704, Note_on_c, 0, 72, 72
2, 16752, Note_on_c, 0, 72, 0
2, 16752, Note_on_c, 0, 71, 72
2, 16800, Note_on_c, 0, 71, 0
2, 16800, Note_on_c, 0, 72, 72
2, 16848, Note_on_c, 0, 72, 0
2, 16848, Note_on_c, 0, 70, 72
2, 16896, Note_on_c, 0, 70, 0
2, 16896, Note_on_c, 0, 69, 72
2, 16992, Note_on_c, 0, 69, 0
2, 16992, Note_on_c, 0, 69, 72
2, 17040, Note_on_c, 0, 69, 0
2, 17040, Note_on_c, 0, 71, 72
2, 17088, Note_on_c, 0, 71, 0
2, 17088, Note_on_c, 0, 72, 72
2, 17232, Note_on_c, 0, 72, 0
2, 17232, Note_on_c, 0, 71, 72
2, 17280, Note_on_c, 0, 71, 0
2, 17280, Note_on_c, 0, 73, 72
2, 17328, Note_on_c, 0, 73, 0
2, 17328, Note_on_c, 0, 76, 72
2, 17376, Note_on_c, 0, 76, 0
2, 17376, Note_on_c, 0, 76, 72
2, 17424, Note_on_c, 0, 76, 0
2, 17424, Note_on_c, 0, 74, 72
2, 17520, Note_on_c, 0, 74, 0
2, 17520, Note_on_c, 0, 73, 72
2, 17568, Note_on_c, 0, 73, 0
2, 17568, Note_on_c, 0, 74, 72
2, 17616, Note_on_c, 0, 74, 0
2, 17616, Note_on_c, 0, 69, 72
2, 17712, Note_on_c, 0, 69, 0
2, 17712, Note_on_c, 0, 68, 72
2, 17760, Note_on_c, 0, 68, 0
2, 17760, Note_on_c, 0, 69, 72
2, 17952, Note_on_c, 0, 69, 0
2, 18096, Note_on_c, 0, 69, 72
2, 18144, Note_on_c, 0, 69, 0
2, 18144, Note_on_c, 0, 70, 72
2, 18240, Note_on_c, 0, 70, 0
2, 18240, Note_on_c, 0, 71, 72
2, 18336, Note_on_c, 0, 71, 0
2, 18336, Note_on_c, 0, 72, 72
2, 18528, Note_on_c, 0, 72, 0
2, 18528, Note_on_c, 0, 72, 72
2, 18576, Note_on_c, 0, 72, 0
2, 18576, Note_on_c, 0, 74, 72
2, 18624, Note_on_c, 0, 74, 0
2, 18624, Note_on_c, 0, 72, 72
2, 18672, Note_on_c, 0, 72, 0
2, 18672, Note_on_c, 0, 70, 72
2, 18720, Note_on_c, 0, 70, 0
2, 18720, Note_on_c, 0, 69, 72
2, 18816, Note_on_c, 0, 69, 0
2, 18816, Note_on_c, 0, 74, 72
2, 18912, Note_on_c, 0, 74, 0
2, 18912, Note_on_c, 0, 74, 72
2, 18960, Note_on_c, 0, 74, 0
2, 18960, Note_on_c, 0, 76, 72
2, 19008, Note_on_c, 0, 76, 0
2, 19008, Note_on_c, 0, 74, 72
2, 19056, Note_on_c, 0, 74, 0
2, 19056, Note_on_c, 0, 72, 72
2, 19104, Note_on_c, 0, 72, 0
2, 19104, Note_on_c, 0, 71, 72
2, 19200, Note_on_c, 0, 71, 0
2, 19200, Note_on_c, 0, 76, 72
2, 19296, Note_on_c, 0, 76, 0
2, 19296, Note_on_c, 0, 76, 72
2, 19344, Note_on_c, 0, 76, 0
2, 19344, Note_on_c, 0, 81, 72
2, 19392, Note_on_c, 0, 81, 0
2, 19392, Note_on_c, 0, 76, 72
2, 19440, Note_on_c, 0, 76, 0
2, 19440, Note_on_c, 0, 74, 72
2, 19488, Note_on_c, 0, 74, 0
2, 19488, Note_on_c, 0, 72, 72
2, 19584, Note_on_c, 0, 72, 0
2, 19584, Note_on_c, 0, 73, 72
2, 19680, Note_on_c, 0, 73, 0
2, 19680, Note_on_c, 0, 74, 72
2, 19776, Note_on_c, 0, 74, 0
2, 19776, Note_on_c, 0, 76, 72
2, 19872, Note_on_c, 0, 76, 0
2, 19872, Note_on_c, 0, 77, 72
2, 19968, Note_on_c, 0, 77, 0
2, 19968, Note_on_c, 0, 78, 72
2, 20064, Note_on_c, 0, 78, 0
2, 20064, Note_on_c, 0, 79, 72
2, 20160, Note_on_c, 0, 79, 0
2, 20160, Note_on_c, 0, 81, 72
2, 20256, Note_on_c, 0, 81, 0
2, 20256, Note_on_c, 0, 82, 72
2, 20448, Note_on_c, 0, 82, 0
2, 20448, Note_on_c, 0, 82, 72
2, 20496, Note_on_c, 0, 82, 0
2, 20496, Note_on_c, 0, 76, 72
2, 20544, Note_on_c, 0, 76, 0
2, 20544, Note_on_c, 0, 81, 72
2, 20640, Note_on_c, 0, 81, 0
2, 20640, Note_on_c, 0, 80, 72
2, 20736, Note_on_c, 0, 80, 0
2, 20736, Note_on_c, 0, 79, 72
2, 20832, Note_on_c, 0, 79, 0
2, 20832, Note_on_c, 0, 78, 72
2, 20928, Note_on_c, 0, 78, 0
2, 20928, Note_on_c, 0, 77, 72
2, 21024, Note_on_c, 0, 77, 0
2, 21024, Note_on_c, 0, 76, 72
2, 21120, Note_on_c, 0, 76, 0
2, 21120, Note_on_c, 0, 75, 72
2, 21216, Note_on_c, 0, 75, 0
2, 21216, Note_on_c, 0, 74, 72
2, 21360, Note_on_c, 0, 74, 0
2, 21360, Note_on_c, 0, 73, 72
2, 21408, Note_on_c, 0, 73, 0
2, 21408, Note_on_c, 0, 74, 72
2, 21552, Note_on_c, 0, 74, 0
2, 21552, Note_on_c, 0, 76, 72
2, 21600, Note_on_c, 0, 76, 0
2, 21600, Note_on_c, 0, 73, 88
2, 21696, Note_on_c, 0, 73, 0
2, 21696, Note_on_c, 0, 77, 88
2, 21792, Note_on_c, 0, 77, 0
2, 21792, Note_on_c, 0, 71, 88
2, 21888, Note_on_c, 0, 71, 0
2, 21888, Note_on_c, 0, 70, 88
2, 21984, Note_on_c, 0, 70, 0
2, 21984, Note_on_c, 0, 69, 88
2, 22080, Note_on_c, 0, 69, 0
2, 22080, Note_on_c, 0, 74, 88
2, 22176, Note_on_c, 0, 74, 0
2, 22176, Note_on_c, 0, 67, 88
2, 22368, Note_on_c, 0, 67, 0
2, 22368, Note_on_c, 0, 65, 88
2, 22464, Note_on_c, 0, 65, 0
2, 22464, Note_on_c, 0, 67, 88
2, 22560, Note_on_c, 0, 67, 0
2, 22560, Note_on_c, 0, 69, 88
2, 22608, Note_on_c, 0, 69, 0
2, 22608, Note_on_c, 0, 67, 88
2, 22656, Note_on_c, 0, 67, 0
2, 22656, Note_on_c, 0, 69, 88
2, 22752, Note_on_c, 0, 69, 0
2, 22752, Note_on_c, 0, 62, 88
2, 22848, Note_on_c, 0, 62, 0
2, 22848, Note_on_c, 0, 67, 72
2, 22944, Note_on_c, 0, 67, 0
2, 22944, Note_on_c, 0, 66, 72
2, 23040, Note_on_c, 0, 66, 0
2, 23040, Note_on_c, 0, 65, 72
2, 23136, Note_on_c, 0, 65, 0
2, 23136, Note_on_c, 0, 65, 72
2, 23232, Note_on_c, 0, 65, 0
2, 23232, Note_on_c, 0, 64, 72
2, 23328, Note_on_c, 0, 64, 0
2, 23328, Note_on_c, 0, 65, 72
2, 23424, Note_on_c, 0, 65, 0
2, 23424, Note_on_c, 0, 67, 72
2, 23520, Note_on_c, 0, 67, 0
2, 23520, Note_on_c, 0, 60, 72
2, 23616, Note_on_c, 0, 60, 0
2, 23664, Note_on_c, 0, 72, 72
2, 23712, Note_on_c, 0, 72, 0
2, 23712, Note_on_c, 0, 74, 72
2, 23760, Note_on_c, 0, 74, 0
2, 23760, Note_on_c, 0, 72, 72
2, 23808, Note_on_c, 0, 72, 0
2, 23808, Note_on_c, 0, 74, 72
2, 23856, Note_on_c, 0, 74, 0
2, 23856, Note_on_c, 0, 76, 72
2, 23904, Note_on_c, 0, 76, 0
2, 23904, Note_on_c, 0, 69, 72
2, 24000, Note_on_c, 0, 69, 0
2, 24000, Note_on_c, 0, 77, 72
2, 24096, Note_on_c, 0, 77, 0
2, 24096, Note_on_c, 0, 76, 72
2, 24192, Note_on_c, 0, 76, 0
2, 24192, Note_on_c, 0, 75, 72
2, 24288, Note_on_c, 0, 75, 0
2, 24288, Note_on_c, 0, 75, 72
2, 24336, Note_on_c, 0, 75, 0
2, 24336, Note_on_c, 0, 74, 72
2, 24384, Note_on_c, 0, 74, 0
2, 24432, Note_on_c, 0, 74, 72
2, 24480, Note_on_c, 0, 74, 0
2, 24480, Note_on_c, 0, 75, 72
2, 24528, Note_on_c, 0, 75, 0
2, 24528, Note_on_c, 0, 74, 72
2, 24576, Note_on_c, 0, 74, 0
2, 24576, Note_on_c, 0, 75, 72
2, 24624, Note_on_c, 0, 75, 0
2, 24624, Note_on_c, 0, 77, 72
2, 24672, Note_on_c, 0, 77, 0
2, 24672, Note_on_c, 0, 79, 72
2, 24768, Note_on_c, 0, 79, 0
2, 24816, Note_on_c, 0, 79, 72
2, 24864, Note_on_c, 0, 79, 0
2, 24864, Note_on_c, 0, 81, 72
2, 24912, Note_on_c, 0, 81, 0
2, 24912, Note_on_c, 0, 80, 72
2, 24960, Note_on_c, 0, 80, 0
2, 24960, Note_on_c, 0, 81, 72
2, 25008, Note_on_c, 0, 81, 0
2, 25008, Note_on_c, 0, 83, 72
2, 25056, Note_on_c, 0, 83, 0
2, 25056, Note_on_c, 0, 80, 72
2, 25104, Note_on_c, 0, 80, 0
2, 25104, Note_on_c, 0, 83, 72
2, 25152, Note_on_c, 0, 83, 0
2, 25152, Note_on_c, 0, 76, 72
2, 25248, Note_on_c, 0, 76, 0
2, 25248, Note_on_c, 0, 75, 72
2, 25344, Note_on_c, 0, 75, 0
2, 25344, Note_on_c, 0, 74, 72
2, 25440, Note_on_c, 0, 74, 0
2, 25440, Note_on_c, 0, 73, 72
2, 25536, Note_on_c, 0, 73, 0
2, 25536, Note_on_c, 0, 77, 72
2, 25632, Note_on_c, 0, 77, 0
2, 25632, Note_on_c, 0, 76, 72
2, 25728, Note_on_c, 0, 76, 0
2, 25728, Note_on_c, 0, 75, 72
2, 25824, Note_on_c, 0, 75, 0
2, 25824, Note_on_c, 0, 76, 72
2, 25920, Note_on_c, 0, 76, 0
2, 25920, Note_on_c, 0, 76, 72
2, 26016, Note_on_c, 0, 76, 0
2, 26016, Note_on_c, 0, 75, 72
2, 26112, Note_on_c, 0, 75, 0
2, 26112, Note_on_c, 0, 74, 72
2, 26208, Note_on_c, 0, 74, 0
2, 26208, Note_on_c, 0, 73, 88
2, 26304, Note_on_c, 0, 73, 0
2, 26304, Note_on_c, 0, 72, 88
2, 26400, Note_on_c, 0, 72, 0
2, 26400, Note_on_c, 0, 71, 88
2, 26496, Note_on_c, 0, 71, 0
2, 26496, Note_on_c, 0, 70, 88
2, 26592, Note_on_c, 0, 70, 0
2, 26592, Note_on_c, 0, 69, 88
2, 26688, Note_on_c, 0, 69, 0
2, 26688, Note_on_c, 0, 69, 88
2, 26784, Note_on_c, 0, 69, 0
2, 26784, Note_on_c, 0, 69, 88
2, 26880, Note_on_c, 0, 69, 0
2, 26880, Note_on_c, 0, 68, 88
2, 26976, Note_on_c, 0, 68, 0
2, 26976, Note_on_c, 0, 69, 88
2, 27072, Note_on_c, 0, 69, 0
2, 27264, Program_c, 0, 41
2, 27264, Note_on_c, 0, 74, 72
2, 27360, Note_on_c, 0, 74, 0
2, 27360, Note_on_c, 0, 74, 72
2, 27456, Note_on_c, 0, 74, 0
2, 27456, Note_on_c, 0, 72, 72
2, 27552, Note_on_c, 0, 72, 0
2, 27648, Note_on_c, 0, 70, 72
2, 27744, Note_on_c, 0, 70, 0
2, 27744, Note_on_c, 0, 70, 72
2, 27840, Note_on_c, 0, 70, 0
2, 27840, Note_on_c, 0, 69, 72
2, 27888, Note_on_c, 0, 69, 0
2, 27888, Note_on_c, 0, 71, 72
2, 27936, Note_on_c, 0, 71, 0
2, 27936, Note_on_c, 0, 72, 72
2, 28032, Note_on_c, 0, 72, 0
2, 28032, Note_on_c, 0, 71, 72
2, 28080, Note_on_c, 0, 71, 0
2, 28080, Note_on_c, 0, 72, 72
2, 28128, Note_on_c, 0, 72, 0
2, 28128, Note_on_c, 0, 74, 72
2, 28224, Note_on_c, 0, 74, 0
2, 28224, Note_on_c, 0, 72, 72
2, 28272, Note_on_c, 0, 72, 0
2, 28272, Note_on_c, 0, 74, 72
2, 28320, Note_on_c, 0, 74, 0
2, 28320, Note_on_c, 0, 76, 72
2, 28416, Note_on_c, 0, 76, 0
2, 28416, Note_on_c, 0, 74, 72
2, 28512, Note_on_c, 0, 74, 0
2, 28512, Note_on_c, 0, 74, 72
2, 28608, Note_on_c, 0, 74, 0
2, 28608, Note_on_c, 0, 72, 72
2, 28704, Note_on_c, 0, 72, 0
2, 28704, Note_on_c, 0, 71, 72
2, 28800, Note_on_c, 0, 71, 0
2, 28800, Note_on_c, 0, 73, 72
2, 28896, Note_on_c, 0, 73, 0
2, 28896, Note_on_c, 0, 74, 72
2, 28992, Note_on_c, 0, 74, 0
2, 28992, Note_on_c, 0, 81, 88
2, 29088, Note_on_c, 0, 81, 0
2, 29088, Note_on_c, 0, 74, 88
2, 29184, Note_on_c, 0, 74, 0
2, 29184, Note_on_c, 0, 76, 88
2, 29280, Note_on_c, 0, 76, 0
2, 29376, Note_on_c, 0, 77, 88
2, 29472, Note_on_c, 0, 77, 0
2, 29472, Note_on_c, 0, 79, 88
2, 29568, Note_on_c, 0, 79, 0
2, 29568, Note_on_c, 0, 81, 88
2, 29664, Note_on_c, 0, 81, 0
2, 29760, Note_on_c, 0, 82, 88
2, 29856, Note_on_c, 0, 82, 0
2, 29856, Note_on_c, 0, 81, 88
2, 29952, Note_on_c, 0, 81, 0
2, 29952, Note_on_c, 0, 79, 88
2, 30048, Note_on_c, 0, 79, 0
2, 30144, Note_on_c, 0, 77, 88
2, 30192, Note_on_c, 0, 77, 0
2, 30192, Note_on_c, 0, 76, 88
2, 30240, Note_on_c, 0, 76, 0
2, 30240, Note_on_c, 0, 77, 88
2, 30336, Note_on_c, 0, 77, 0
2, 30336, Note_on_c, 0, 79, 88
2, 30432, Note_on_c, 0, 79, 0
2, 30432, Note_on_c, 0, 81, 88
2, 30576, Note_on_c, 0, 81, 0
2, 30576, Note_on_c, 0, 79, 72
2, 30624, Note_on_c, 0, 79, 0
2, 30624, Note_on_c, 0, 78, 72
2, 30720, Note_on_c, 0, 78, 0
2, 30720, Note_on_c, 0, 77, 72
2, 30816, Note_on_c, 0, 77, 0
2, 30816, Note_on_c, 0, 76, 72
2, 30912, Note_on_c, 0, 76, 0
2, 30912, Note_on_c, 0, 75, 72
2, 31008, Note_on_c, 0, 75, 0
2, 31008, Note_on_c, 0, 74, 72
2, 31104, Note_on_c, 0, 74, 0
2, 31104, Note_on_c, 0, 73, 72
2, 31200, Note_on_c, 0, 73, 0
2, 31200, Note_on_c, 0, 72, 72
2, 31296, Note_on_c, 0, 72, 0
2, 31296, Note_on_c, 0, 71, 72
2, 31392, Note_on_c, 0, 71, 0
2, 31392, Note_on_c, 0, 73, 72
2, 31488, Note_on_c, 0, 73, 0
2, 31488, Note_on_c, 0, 74, 72
2, 31584, Note_on_c, 0, 74, 0
2, 31584, Note_on_c, 0, 76, 72
2, 31968, Note_on_c, 0, 76, 0
2, 31968, Note_on_c, 0, 76, 72
2, 32016, Note_on_c, 0, 76, 0
2, 32016, Note_on_c, 0, 74, 72
2, 32064, Note_on_c, 0, 74, 0
2, 32064, Note_on_c, 0, 73, 72
2, 32112, Note_on_c, 0, 73, 0
2, 32112, Note_on_c, 0, 76, 72
2, 32160, Note_on_c, 0, 76, 0
2, 32160, Note_on_c, 0, 74, 72
2, 32208, Note_on_c, 0, 74, 0
2, 32208, Note_on_c, 0, 72, 72
2, 32256, Note_on_c, 0, 72, 0
2, 32256, Note_on_c, 0, 70, 72
2, 32304, Note_on_c, 0, 70, 0
2, 32304, Note_on_c, 0, 74, 72
2, 32352, Note_on_c, 0, 74, 0
2, 32352, Note_on_c, 0, 72, 72
2, 32400, Note_on_c, 0, 72, 0
2, 32400, Note_on_c, 0, 70, 72
2, 32448, Note_on_c, 0, 70, 0
2, 32448, Note_on_c, 0, 69, 72
2, 32496, Note_on_c, 0, 69, 0
2, 32496, Note_on_c, 0, 72, 72
2, 32544, Note_on_c, 0, 72, 0
2, 32544, Note_on_c, 0, 70, 72
2, 32592, Note_on_c, 0, 70, 0
2, 32592, Note_on_c, 0, 79, 72
2, 32688, Note_on_c, 0, 79, 0
2, 32688, Note_on_c, 0, 78, 72
2, 32736, Note_on_c, 0, 78, 0
2, 32736, Note_on_c, 0, 79, 72
2, 32784, Note_on_c, 0, 79, 0
2, 32784, Note_on_c, 0, 77, 72
2, 32832, Note_on_c, 0, 77, 0
2, 32832, Note_on_c, 0, 76, 72
2, 32880, Note_on_c, 0, 76, 0
2, 32880, Note_on_c, 0, 74, 72
2, 32928, Note_on_c, 0, 74, 0
2, 32928, Note_on_c, 0, 72, 72
2, 32976, Note_on_c, 0, 72, 0
2, 32976, Note_on_c, 0, 74, 72
2, 33024, Note_on_c, 0, 74, 0
2, 33024, Note_on_c, 0, 70, 72
2, 33072, Note_on_c, 0, 70, 0
2, 33072, Note_on_c, 0, 72, 72
2, 33120, Note_on_c, 0, 72, 0
2, 33120, Note_on_c, 0, 69, 88
2, 33312, Note_on_c, 0, 69, 0
2, 33312, Note_on_c, 0, 69, 88
2, 33360, Note_on_c, 0, 69, 0
2, 33360, Note_on_c, 0, 70, 88
2, 33408, Note_on_c, 0, 70, 0
2, 33408, Note_on_c, 0, 69, 88
2, 33456, Note_on_c, 0, 69, 0
2, 33456, Note_on_c, 0, 70, 88
2, 33504, Note_on_c, 0, 70, 0
2, 33504, Note_on_c, 0, 72, 88
2, 33600, Note_on_c, 0, 72, 0
2, 33600, Note_on_c, 0, 77, 88
2, 33792, Note_on_c, 0, 77, 0
2, 33792, Note_on_c, 0, 76, 88
2, 33888, Note_on_c, 0, 76, 0
2, 33888, Note_on_c, 0, 77, 88
2, 34080, Note_on_c, 0, 77, 0
2, 35712, Program_c, 0, 13
2, 35712, Note_on_c, 0, 70, 88
2, 35808, Note_on_c, 0, 70, 0
2, 35808, Note_on_c, 0, 70, 88
2, 35856, Note_on_c, 0, 70, 0
2, 35856, Note_on_c, 0, 69, 88
2, 35904, Note_on_c, 0, 69, 0
2, 35904, Note_on_c, 0, 72, 88
2, 35952, Note_on_c, 0, 72, 0
2, 35952, Note_on_c, 0, 72, 88
2, 36000, Note_on_c, 0, 72, 0
2, 36000, Note_on_c, 0, 72, 88
2, 36048, Note_on_c, 0, 72, 0
2, 36048, Note_on_c, 0, 71, 88
2, 36096, Note_on_c, 0, 71, 0
2, 36096, Note_on_c, 0, 74, 88
2, 36144, Note_on_c, 0, 74, 0
2, 36144, Note_on_c, 0, 74, 88
2, 36192, Note_on_c, 0, 74, 0
2, 36192, Note_on_c, 0, 74, 88
2, 36240, Note_on_c, 0, 74, 0
2, 36240, Note_on_c, 0, 73, 88
2, 36288, Note_on_c, 0, 73, 0
2, 36288, Note_on_c, 0, 76, 88
2, 36336, Note_on_c, 0, 76, 0
2, 36336, Note_on_c, 0, 76, 88
2, 36384, Note_on_c, 0, 76, 0
2, 36384, Note_on_c, 0, 76, 88
2, 36432, Note_on_c, 0, 76, 0
2, 36432, Note_on_c, 0, 74, 88
2, 36480, Note_on_c, 0, 74, 0
2, 36480, Note_on_c, 0, 77, 88
2, 36528, Note_on_c, 0, 77, 0
2, 36528, Note_on_c, 0, 77, 88
2, 36576, Note_on_c, 0, 77, 0
2, 36576, Note_on_c, 0, 77, 88
2, 36624, Note_on_c, 0, 77, 0
2, 36624, Note_on_c, 0, 76, 88
2, 36672, Note_on_c, 0, 76, 0
2, 36672, Note_on_c, 0, 78, 88
2, 36720, Note_on_c, 0, 78, 0
2, 36720, Note_on_c, 0, 80, 88
2, 36768, Note_on_c, 0, 80, 0
2, 36768, Note_on_c, 0, 81, 88
2, 36816, Note_on_c, 0, 81, 0
2, 36816, Note_on_c, 0, 80, 88
2, 36864, Note_on_c, 0, 80, 0
2, 36864, Note_on_c, 0, 81, 88
2, 36960, Note_on_c, 0, 81, 0
2, 36960, Note_on_c, 0, 81, 88
2, 37008, Note_on_c, 0, 81, 0
2, 37008, Note_on_c, 0, 78, 88
2, 37056, Note_on_c, 0, 78, 0
2, 37056, Note_on_c, 0, 79, 88
2, 37104, Note_on_c, 0, 79, 0
2, 37104, Note_on_c, 0, 79, 88
2, 37152, Note_on_c, 0, 79, 0
2, 37152, Note_on_c, 0, 79, 88
2, 37200, Note_on_c, 0, 79, 0
2, 37200, Note_on_c, 0, 76, 88
2, 37248, Note_on_c, 0, 76, 0
2, 37248, Note_on_c, 0, 78, 88
2, 37296, Note_on_c, 0, 78, 0
2, 37296, Note_on_c, 0, 78, 88
2, 37344, Note_on_c, 0, 78, 0
2, 37344, Note_on_c, 0, 76, 88
2, 37536, Note_on_c, 0, 76, 0
2, 37536, Note_on_c, 0, 75, 72
2, 37632, Note_on_c, 0, 75, 0
2, 37632, Note_on_c, 0, 74, 72
2, 37728, Note_on_c, 0, 74, 0
2, 37728, Note_on_c, 0, 74, 72
2, 37776, Note_on_c, 0, 74, 0
2, 37776, Note_on_c, 0, 71, 72
2, 37824, Note_on_c, 0, 71, 0
2, 37824, Note_on_c, 0, 72, 72
2, 37872, Note_on_c, 0, 72, 0
2, 37872, Note_on_c, 0, 76, 72
2, 37920, Note_on_c, 0, 76, 0
2, 37920, Note_on_c, 0, 69, 72
2, 38016, Note_on_c, 0, 69, 0
2, 38016, Note_on_c, 0, 71, 72
2, 38112, Note_on_c, 0, 71, 0
2, 38112, Note_on_c, 0, 71, 72
2, 38160, Note_on_c, 0, 71, 0
2, 38160, Note_on_c, 0, 68, 72
2, 38208, Note_on_c, 0, 68, 0
2, 38208, Note_on_c, 0, 69, 72
2, 38256, Note_on_c, 0, 69, 0
2, 38256, Note_on_c, 0, 72, 72
2, 38304, Note_on_c, 0, 72, 0
2, 38304, Note_on_c, 0, 71, 72
2, 38352, Note_on_c, 0, 71, 0
2, 38352, Note_on_c, 0, 74, 72
2, 38400, Note_on_c, 0, 74, 0
2, 38400, Note_on_c, 0, 73, 72
2, 38448, Note_on_c, 0, 73, 0
2, 38448, Note_on_c, 0, 76, 72
2, 38496, Note_on_c, 0, 76, 0
2, 38496, Note_on_c, 0, 74, 72
2, 38544, Note_on_c, 0, 74, 0
2, 38544, Note_on_c, 0, 73, 72
2, 38592, Note_on_c, 0, 73, 0
2, 38592, Note_on_c, 0, 74, 72
2, 38784, Note_on_c, 0, 74, 0
2, 38784, Note_on_c, 0, 79, 72
2, 38816, Note_on_c, 0, 79, 0
2, 38816, Note_on_c, 0, 77, 72
2, 38848, Note_on_c, 0, 77, 0
2, 38848, Note_on_c, 0, 76, 72
2, 38880, Note_on_c, 0, 76, 0
2, 38880, Note_on_c, 0, 77, 72
2, 38976, Note_on_c, 0, 77, 0
2, 38976, Note_on_c, 0, 69, 72
2, 39024, Note_on_c, 0, 69, 0
2, 39024, Note_on_c, 0, 67, 72
2, 39072, Note_on_c, 0, 67, 0
2, 39072, Note_on_c, 0, 69, 72
2, 39168, Note_on_c, 0, 69, 0
2, 39168, Note_on_c, 0, 70, 72
2, 39264, Note_on_c, 0, 70, 0
2, 39264, Note_on_c, 0, 70, 72
2, 39312, Note_on_c, 0, 70, 0
2, 39312, Note_on_c, 0, 67, 72
2, 39360, Note_on_c, 0, 67, 0
2, 39360, Note_on_c, 0, 69, 72
2, 39408, Note_on_c, 0, 69, 0
2, 39408, Note_on_c, 0, 69, 72
2, 39456, Note_on_c, 0, 69, 0
2, 39456, Note_on_c, 0, 69, 72
2, 39504, Note_on_c, 0, 69, 0
2, 39504, Note_on_c, 0, 65, 72
2, 39552, Note_on_c, 0, 65, 0
2, 39552, Note_on_c, 0, 67, 72
2, 39600, Note_on_c, 0, 67, 0
2, 39600, Note_on_c, 0, 67, 72
2, 39648, Note_on_c, 0, 67, 0
2, 39648, Note_on_c, 0, 65, 72
2, 39696, Note_on_c, 0, 65, 0
2, 39696, Note_on_c, 0, 64, 72
2, 39720, Note_on_c, 0, 64, 0
2, 39720, Note_on_c, 0, 62, 72
2, 39744, Note_on_c, 0, 62, 0
2, 39744, Note_on_c, 0, 74, 72
2, 39840, Note_on_c, 0, 74, 0
2, 39840, Note_on_c, 0, 71, 72
2, 39936, Note_on_c, 0, 71, 0
2, 39936, Note_on_c, 0, 73, 72
2, 40032, Note_on_c, 0, 73, 0
2, 40032, Note_on_c, 0, 74, 72
2, 40128, Note_on_c, 0, 74, 0
2, 40128, Note_on_c, 0, 72, 72
2, 40224, Note_on_c, 0, 72, 0
2, 40224, Note_on_c, 0, 71, 72
2, 40320, Note_on_c, 0, 71, 0
2, 40320, Note_on_c, 0, 70, 72
2, 40416, Note_on_c, 0, 70, 0
2, 40416, Note_on_c, 0, 70, 72
2, 40464, Note_on_c, 0, 70, 0
2, 40464, Note_on_c, 0, 69, 72
2, 40512, Note_on_c, 0, 69, 0
2, 40512, Note_on_c, 0, 74, 72
2, 40656, Note_on_c, 0, 74, 0
2, 40656, Note_on_c, 0, 71, 72
2, 40704, Note_on_c, 0, 71, 0
2, 40704, Note_on_c, 0, 73, 72
2, 40752, Note_on_c, 0, 73, 0
2, 40752, Note_on_c, 0, 76, 72
2, 40800, Note_on_c, 0, 76, 0
2, 40800, Note_on_c, 0, 81, 72
2, 40896, Note_on_c, 0, 81, 0
2, 40896, Note_on_c, 0, 69, 72
2, 40944, Note_on_c, 0, 69, 0
2, 40944, Note_on_c, 0, 74, 72
2, 40992, Note_on_c, 0, 74, 0
2, 40992, Note_on_c, 0, 74, 72
2, 41040, Note_on_c, 0, 74, 0
2, 41040, Note_on_c, 0, 71, 72
2, 41088, Note_on_c, 0, 71, 0
2, 41088, Note_on_c, 0, 72, 72
2, 41136, Note_on_c, 0, 72, 0
2, 41136, Note_on_c, 0, 72, 72
2, 41184, Note_on_c, 0, 72, 0
2, 41184, Note_on_c, 0, 72, 72
2, 41232, Note_on_c, 0, 72, 0
2, 41232, Note_on_c, 0, 69, 72
2, 41280, Note_on_c, 0, 69, 0
2, 41280, Note_on_c, 0, 70, 72
2, 41328, Note_on_c, 0, 70, 0
2, 41328, Note_on_c, 0, 70, 72
2, 41376, Note_on_c, 0, 70, 0
2, 41376, Note_on_c, 0, 72, 72
2, 41424, Note_on_c, 0, 72, 0
2, 41424, Note_on_c, 0, 74, 72
2, 41472, Note_on_c, 0, 74, 0
2, 41472, Note_on_c, 0, 75, 72
2, 41568, Note_on_c, 0, 75, 0
2, 41568, Note_on_c, 0, 75, 72
2, 41664, Note_on_c, 0, 75, 0
2, 41664, Note_on_c, 0, 74, 72
2, 41760, Note_on_c, 0, 74, 0
2, 41760, Note_on_c, 0, 76, 72
2, 41856, Note_on_c, 0, 76, 0
2, 41856, Note_on_c, 0, 77, 72
2, 41952, Note_on_c, 0, 77, 0
2, 41952, Note_on_c, 0, 77, 72
2, 42000, Note_on_c, 0, 77, 0
2, 42000, Note_on_c, 0, 74, 72
2, 42048, Note_on_c, 0, 74, 0
2, 42048, Note_on_c, 0, 75, 72
2, 42096, Note_on_c, 0, 75, 0
2, 42096, Note_on_c, 0, 75, 72
2, 42144, Note_on_c, 0, 75, 0
2, 42144, Note_on_c, 0, 75, 72
2, 42192, Note_on_c, 0, 75, 0
2, 42192, Note_on_c, 0, 72, 72
2, 42240, Note_on_c, 0, 72, 0
2, 42240, Note_on_c, 0, 74, 72
2, 42288, Note_on_c, 0, 74, 0
2, 42288, Note_on_c, 0, 74, 72
2, 42336, Note_on_c, 0, 74, 0
2, 42336, Note_on_c, 0, 76, 72
2, 42432, Note_on_c, 0, 76, 0
2, 42432, Note_on_c, 0, 78, 72
2, 42528, Note_on_c, 0, 78, 0
2, 42528, Note_on_c, 0, 79, 72
2, 42624, Note_on_c, 0, 79, 0
2, 42624, Note_on_c, 0, 75, 72
2, 42720, Note_on_c, 0, 75, 0
2, 42720, Note_on_c, 0, 73, 72
2, 42816, Note_on_c, 0, 73, 0
2, 42816, Note_on_c, 0, 74, 72
2, 42912, Note_on_c, 0, 74, 0
2, 42912, Note_on_c, 0, 71, 72
2, 43008, Note_on_c, 0, 71, 0
2, 43008, Note_on_c, 0, 72, 72
2, 43104, Note_on_c, 0, 72, 0
2, 43104, Note_on_c, 0, 69, 72
2, 43200, Note_on_c, 0, 69, 0
2, 43200, Note_on_c, 0, 70, 72
2, 43392, Note_on_c, 0, 70, 0
2, 43392, Program_c, 0, 5
2, 43392, Note_on_c, 0, 69, 88
2, 43488, Note_on_c, 0, 69, 0
2, 43488, Note_on_c, 0, 70, 88
2, 43584, Note_on_c, 0, 70, 0
2, 43584, Note_on_c, 0, 65, 88
2, 43680, Note_on_c, 0, 65, 0
2, 43680, Note_on_c, 0, 72, 88
2, 43776, Note_on_c, 0, 72, 0
2, 43776, Note_on_c, 0, 73, 88
2, 43872, Note_on_c, 0, 73, 0
2, 43872, Note_on_c, 0, 74, 88
2, 43968, Note_on_c, 0, 74, 0
2, 43968, Note_on_c, 0, 69, 88
2, 44064, Note_on_c, 0, 69, 0
2, 44064, Note_on_c, 0, 76, 88
2, 44256, Note_on_c, 0, 76, 0
2, 44256, Note_on_c, 0, 77, 88
2, 44352, Note_on_c, 0, 77, 0
2, 44352, Note_on_c, 0, 76, 88
2, 44448, Note_on_c, 0, 76, 0
2, 44448, Note_on_c, 0, 74, 88
2, 44496, Note_on_c, 0, 74, 0
2, 44496, Note_on_c, 0, 76, 88
2, 44544, Note_on_c, 0, 76, 0
2, 44544, Note_on_c, 0, 74, 88
2, 44640, Note_on_c, 0, 74, 0
2, 44640, Note_on_c, 0, 81, 88
2, 44736, Note_on_c, 0, 81, 0
2, 44736, Note_on_c, 0, 79, 88
2, 44880, Note_on_c, 0, 79, 0
2, 44880, Note_on_c, 0, 76, 88
2, 44928, Note_on_c, 0, 76, 0
2, 44928, Note_on_c, 0, 77, 88
2, 44976, Note_on_c, 0, 77, 0
2, 44976, Note_on_c, 0, 77, 88
2, 45024, Note_on_c, 0, 77, 0
2, 45024, Note_on_c, 0, 77, 88
2, 45072, Note_on_c, 0, 77, 0
2, 45072, Note_on_c, 0, 75, 88
2, 45120, Note_on_c, 0, 75, 0
2, 45120, Note_on_c, 0, 76, 88
2, 45168, Note_on_c, 0, 76, 0
2, 45168, Note_on_c, 0, 76, 88
2, 45216, Note_on_c, 0, 76, 0
2, 45216, Note_on_c, 0, 76, 88
2, 45264, Note_on_c, 0, 76, 0
2, 45264, Note_on_c, 0, 73, 88
2, 45312, Note_on_c, 0, 73, 0
2, 45312, Note_on_c, 0, 74, 88
2, 45360, Note_on_c, 0, 74, 0
2, 45360, Note_on_c, 0, 74, 88
2, 45408, Note_on_c, 0, 74, 0
2, 45408, Note_on_c, 0, 74, 88
2, 45456, Note_on_c, 0, 74, 0
2, 45456, Note_on_c, 0, 71, 88
2, 45504, Note_on_c, 0, 71, 0
2, 45504, Note_on_c, 0, 72, 88
2, 45552, Note_on_c, 0, 72, 0
2, 45552, Note_on_c, 0, 72, 88
2, 45600, Note_on_c, 0, 72, 0
2, 45600, Note_on_c, 0, 72, 88
2, 45648, Note_on_c, 0, 72, 0
2, 45648, Note_on_c, 0, 69, 88
2, 45696, Note_on_c, 0, 69, 0
2, 45696, Note_on_c, 0, 71, 88
2, 45744, Note_on_c, 0, 71, 0
2, 45744, Note_on_c, 0, 71, 88
2, 45792, Note_on_c, 0, 71, 0
2, 45792, Note_on_c, 0, 71, 88
2, 45840, Note_on_c, 0, 71, 0
2, 45840, Note_on_c, 0, 76, 88
2, 45888, Note_on_c, 0, 76, 0
2, 45888, Note_on_c, 0, 69, 72
2, 46032, Note_on_c, 0, 69, 0
2, 46032, Note_on_c, 0, 72, 72
2, 46080, Note_on_c, 0, 72, 0
2, 46080, Note_on_c, 0, 71, 72
2, 46128, Note_on_c, 0, 71, 0
2, 46128, Note_on_c, 0, 69, 72
2, 46176, Note_on_c, 0, 69, 0
2, 46176, Note_on_c, 0, 68, 72
2, 46272, Note_on_c, 0, 68, 0
2, 46272, Note_on_c, 0, 71, 72
2, 46368, Note_on_c, 0, 71, 0
2, 46368, Note_on_c, 0, 69, 72
2, 46464, Note_on_c, 0, 69, 0
2, 46464, Note_on_c, 0, 72, 72
2, 46560, Note_on_c, 0, 72, 0
2, 46560, Note_on_c, 0, 71, 72
2, 46656, Note_on_c, 0, 71, 0
2, 46656, Note_on_c, 0, 74, 88
2, 46800, Note_on_c, 0, 74, 0
2, 46800, Note_on_c, 0, 72, 88
2, 46848, Note_on_c, 0, 72, 0
2, 46848, Note_on_c, 0, 75, 88
2, 46896, Note_on_c, 0, 75, 0
2, 46896, Note_on_c, 0, 75, 88
2, 46944, Note_on_c, 0, 75, 0
2, 46944, Note_on_c, 0, 75, 88
2, 46992, Note_on_c, 0, 75, 0
2, 46992, Note_on_c, 0, 74, 88
2, 47040, Note_on_c, 0, 74, 0
2, 47040, Note_on_c, 0, 77, 88
2, 47088, Note_on_c, 0, 77, 0
2, 47088, Note_on_c, 0, 77, 88
2, 47136, Note_on_c, 0, 77, 0
2, 47136, Note_on_c, 0, 77, 88
2, 47184, Note_on_c, 0, 77, 0
2, 47184, Note_on_c, 0, 76, 88
2, 47232, Note_on_c, 0, 76, 0
2, 47232, Note_on_c, 0, 79, 88
2, 47280, Note_on_c, 0, 79, 0
2, 47280, Note_on_c, 0, 79, 88
2, 47328, Note_on_c, 0, 79, 0
2, 47328, Note_on_c, 0, 79, 88
2, 47376, Note_on_c, 0, 79, 0
2, 47376, Note_on_c, 0, 77, 88
2, 47424, Note_on_c, 0, 77, 0
2, 47424, Note_on_c, 0, 84, 72
2, 47472, Note_on_c, 0, 84, 0
2, 47472, Note_on_c, 0, 84, 72
2, 47520, Note_on_c, 0, 84, 0
2, 47520, Note_on_c, 0, 84, 72
2, 47568, Note_on_c, 0, 84, 0
2, 47568, Note_on_c, 0, 82, 72
2, 47616, Note_on_c, 0, 82, 0
2, 47616, Note_on_c, 0, 77, 72
2, 47664, Note_on_c, 0, 77, 0
2, 47664, Note_on_c, 0, 77, 72
2, 47712, Note_on_c, 0, 77, 0
2, 47712, Note_on_c, 0, 77, 72
2, 47760, Note_on_c, 0, 77, 0
2, 47760, Note_on_c, 0, 76, 72
2, 47808, Note_on_c, 0, 76, 0
2, 47808, Note_on_c, 0, 76, 72
2, 47856, Note_on_c, 0, 76, 0
2, 47856, Note_on_c, 0, 76, 72
2, 47904, Note_on_c, 0, 76, 0
2, 47904, Note_on_c, 0, 76, 72
2, 47952, Note_on_c, 0, 76, 0
2, 47952, Note_on_c, 0, 74, 72
2, 48000, Note_on_c, 0, 74, 0
2, 48000, Note_on_c, 0, 82, 72
2, 48048, Note_on_c, 0, 82, 0
2, 48048, Note_on_c, 0, 82, 72
2, 48096, Note_on_c, 0, 82, 0
2, 48096, Note_on_c, 0, 73, 72
2, 48192, Note_on_c, 0, 73, 0
2, 48192, Note_on_c, 0, 74, 72
2, 48288, Note_on_c, 0, 74, 0
2, 48288, Note_on_c, 0, 71, 72
2, 48384, Note_on_c, 0, 71, 0
2, 48384, Note_on_c, 0, 76, 72
2, 48480, Note_on_c, 0, 76, 0
2, 48480, Note_on_c, 0, 69, 72
2, 48576, Note_on_c, 0, 69, 0
2, 48576, Note_on_c, 0, 74, 72
2, 48624, Note_on_c, 0, 74, 0
2, 48624, Note_on_c, 0, 76, 72
2, 48672, Note_on_c, 0, 76, 0
2, 48672, Note_on_c, 0, 77, 72
2, 48864, Note_on_c, 0, 77, 0
2, 48864, Note_on_c, 0, 77, 72
2, 48912, Note_on_c, 0, 77, 0
2, 48912, Note_on_c, 0, 76, 72
2, 49008, Note_on_c, 0, 76, 0
2, 49008, Note_on_c, 0, 74, 72
2, 49056, Note_on_c, 0, 74, 0
2, 49056, Note_on_c, 0, 72, 72
2, 49104, Note_on_c, 0, 72, 0
2, 49104, Note_on_c, 0, 71, 72
2, 49176, Note_on_c, 0, 71, 0
2, 49176, Note_on_c, 0, 69, 72
2, 49200, Note_on_c, 0, 69, 0
2, 49200, Note_on_c, 0, 71, 72
2, 49248, Note_on_c, 0, 71, 0
2, 49248, Note_on_c, 0, 69, 72
2, 49440, Note_on_c, 0, 69, 0
2, 49536, Note_on_c, 0, 68, 72
2, 49632, Note_on_c, 0, 68, 0
2, 49632, Note_on_c, 0, 69, 72
2, 49776, Note_on_c, 0, 69, 0
2, 49776, Note_on_c, 0, 69, 72
2, 49824, Note_on_c, 0, 69, 0
2, 49824, Note_on_c, 0, 71, 72
2, 49872, Note_on_c, 0, 71, 0
2, 49872, Note_on_c, 0, 74, 72
2, 49920, Note_on_c, 0, 74, 0
2, 49920, Note_on_c, 0, 73, 72
2, 49968, Note_on_c, 0, 73, 0
2, 49968, Note_on_c, 0, 73, 72
2, 50016, Note_on_c, 0, 73, 0
2, 50016, Note_on_c, 0, 73, 72
2, 50064, Note_on_c, 0, 73, 0
2, 50064, Note_on_c, 0, 76, 72
2, 50112, Note_on_c, 0, 76, 0
2, 50112, Note_on_c, 0, 74, 72
2, 50160, Note_on_c, 0, 74, 0
2, 50160, Note_on_c, 0, 74, 72
2, 50208, Note_on_c, 0, 74, 0
2, 50208, Note_on_c, 0, 74, 72
2, 50256, Note_on_c, 0, 74, 0
2, 50256, Note_on_c, 0, 77, 72
2, 50304, Note_on_c, 0, 77, 0
2, 50304, Note_on_c, 0, 76, 72
2, 50352, Note_on_c, 0, 76, 0
2, 50352, Note_on_c, 0, 76, 72
2, 50400, Note_on_c, 0, 76, 0
2, 50400, Note_on_c, 0, 76, 72
2, 50448, Note_on_c, 0, 76, 0
2, 50448, Note_on_c, 0, 79, 72
2, 50496, Note_on_c, 0, 79, 0
2, 50496, Note_on_c, 0, 77, 72
2, 50544, Note_on_c, 0, 77, 0
2, 50544, Note_on_c, 0, 77, 72
2, 50592, Note_on_c, 0, 77, 0
2, 50592, Note_on_c, 0, 77, 72
2, 50640, Note_on_c, 0, 77, 0
2, 50640, Note_on_c, 0, 74, 72
2, 50688, Note_on_c, 0, 74, 0
2, 50688, Note_on_c, 0, 76, 72
2, 50736, Note_on_c, 0, 76, 0
2, 50736, Note_on_c, 0, 76, 72
2, 50784, Note_on_c, 0, 76, 0
2, 50784, Note_on_c, 0, 76, 72
2, 50832, Note_on_c, 0, 76, 0
2, 50832, Note_on_c, 0, 73, 72
2, 50880, Note_on_c, 0, 73, 0
2, 50880, Note_on_c, 0, 74, 72
2, 50928, Note_on_c, 0, 74, 0
2, 50928, Note_on_c, 0, 74, 72
2, 50976, Note_on_c, 0, 74, 0
2, 50976, Note_on_c, 0, 74, 72
2, 51024, Note_on_c, 0, 74, 0
2, 51024, Note_on_c, 0, 73, 72
2, 51072, Note_on_c, 0, 73, 0
2, 51072, Note_on_c, 0, 76, 72
2, 51120, Note_on_c, 0, 76, 0
2, 51120, Note_on_c, 0, 74, 72
2, 51168, Note_on_c, 0, 74, 0
2, 51168, Note_on_c, 0, 77, 72
2, 51216, Note_on_c, 0, 77, 0
2, 51216, Note_on_c, 0, 76, 72
2, 51264, Note_on_c, 0, 76, 0
2, 51264, Note_on_c, 0, 79, 72
2, 51408, Note_on_c, 0, 79, 0
2, 51408, Note_on_c, 0, 77, 72
2, 51456, Note_on_c, 0, 77, 0
2, 51456, Note_on_c, 0, 76, 72
2, 51504, Note_on_c, 0, 76, 0
2, 51504, Note_on_c, 0, 74, 72
2, 51552, Note_on_c, 0, 74, 0
2, 51552, Note_on_c, 0, 73, 72
2, 51600, Note_on_c, 0, 73, 0
2, 51600, Note_on_c, 0, 69, 72
2, 51648, Note_on_c, 0, 69, 0
2, 51648, Note_on_c, 0, 74, 72
2, 51840, Note_on_c, 0, 74, 0
2, 51840, Note_on_c, 0, 73, 72
2, 51936, Note_on_c, 0, 73, 0
2, 51936, Note_on_c, 0, 74, 72
2, 51984, Note_on_c, 0, 74, 0
2, 51984, Note_on_c, 0, 69, 72
2, 52032, Note_on_c, 0, 69, 0
2, 52032, Note_on_c, 0, 74, 72
2, 52080, Note_on_c, 0, 74, 0
2, 52080, Note_on_c, 0, 74, 72
2, 52128, Note_on_c, 0, 74, 0
2, 52128, Note_on_c, 0, 74, 72
2, 52176, Note_on_c, 0, 74, 0
2, 52176, Note_on_c, 0, 71, 72
2, 52224, Note_on_c, 0, 71, 0
2, 52224, Note_on_c, 0, 72, 72
2, 52272, Note_on_c, 0, 72, 0
2, 52272, Note_on_c, 0, 72, 72
2, 52320, Note_on_c, 0, 72, 0
2, 52320, Note_on_c, 0, 70, 72
2, 52416, Note_on_c, 0, 70, 0
2, 52416, Note_on_c, 0, 69, 72
2, 52560, Note_on_c, 0, 69, 0
2, 52560, Note_on_c, 0, 67, 72
2, 52608, Note_on_c, 0, 67, 0
2, 52608, Note_on_c, 0, 70, 72
2, 52656, Note_on_c, 0, 70, 0
2, 52656, Note_on_c, 0, 70, 72
2, 52704, Note_on_c, 0, 70, 0
2, 52704, Note_on_c, 0, 70, 72
2, 52752, Note_on_c, 0, 70, 0
2, 52752, Note_on_c, 0, 69, 72
2, 52800, Note_on_c, 0, 69, 0
2, 52800, Note_on_c, 0, 72, 72
2, 52848, Note_on_c, 0, 72, 0
2, 52848, Note_on_c, 0, 72, 72
2, 52896, Note_on_c, 0, 72, 0
2, 52896, Note_on_c, 0, 72, 72
2, 52944, Note_on_c, 0, 72, 0
2, 52944, Note_on_c, 0, 71, 72
2, 52992, Note_on_c, 0, 71, 0
2, 52992, Note_on_c, 0, 74, 72
2, 53040, Note_on_c, 0, 74, 0
2, 53040, Note_on_c, 0, 74, 72
2, 53088, Note_on_c, 0, 74, 0
2, 53088, Note_on_c, 0, 74, 72
2, 53136, Note_on_c, 0, 74, 0
2, 53136, Note_on_c, 0, 73, 72
2, 53184, Note_on_c, 0, 73, 0
2, 53184, Note_on_c, 0, 74, 72
2, 53232, Note_on_c, 0, 74, 0
2, 53232, Note_on_c, 0, 76, 72
2, 53280, Note_on_c, 0, 76, 0
2, 53280, Note_on_c, 0, 77, 72
2, 53328, Note_on_c, 0, 77, 0
2, 53328, Note_on_c, 0, 76, 72
2, 53376, Note_on_c, 0, 76, 0
2, 53376, Note_on_c, 0, 77, 72
2, 53424, Note_on_c, 0, 77, 0
2, 53424, Note_on_c, 0, 79, 72
2, 53472, Note_on_c, 0, 79, 0
2, 53472, Note_on_c, 0, 76, 72
2, 53568, Note_on_c, 0, 76, 0
2, 53568, Note_on_c, 0, 77, 72
2, 53664, Note_on_c, 0, 77, 0
2, 53664, Note_on_c, 0, 74, 72
2, 53760, Note_on_c, 0, 74, 0
2, 53760, Note_on_c, 0, 76, 72
2, 53856, Note_on_c, 0, 76, 0
2, 53856, Note_on_c, 0, 73, 72
2, 53952, Note_on_c, 0, 73, 0
2, 53952, Note_on_c, 0, 74, 72
2, 54048, Note_on_c, 0, 74, 0
2, 54336, Note_on_c, 0, 81, 88
2, 54480, Note_on_c, 0, 81, 0
2, 54480, Note_on_c, 0, 78, 88
2, 54528, Note_on_c, 0, 78, 0
2, 54528, Note_on_c, 0, 79, 88
2, 54576, Note_on_c, 0, 79, 0
2, 54576, Note_on_c, 0, 79, 88
2, 54624, Note_on_c, 0, 79, 0
2, 54624, Note_on_c, 0, 79, 88
2, 54672, Note_on_c, 0, 79, 0
2, 54672, Note_on_c, 0, 75, 88
2, 54720, Note_on_c, 0, 75, 0
2, 54720, Note_on_c, 0, 77, 88
2, 54768, Note_on_c, 0, 77, 0
2, 54768, Note_on_c, 0, 77, 88
2, 54816, Note_on_c, 0, 77, 0
2, 54816, Note_on_c, 0, 77, 88
2, 54864, Note_on_c, 0, 77, 0
2, 54864, Note_on_c, 0, 75, 88
2, 54912, Note_on_c, 0, 75, 0
2, 54912, Note_on_c, 0, 75, 88
2, 54960, Note_on_c, 0, 75, 0
2, 54960, Note_on_c, 0, 75, 88
2, 55008, Note_on_c, 0, 75, 0
2, 55008, Note_on_c, 0, 75, 88
2, 55104, Note_on_c, 0, 75, 0
2, 55104, Note_on_c, 0, 76, 88
2, 55152, Note_on_c, 0, 76, 0
2, 55152, Note_on_c, 0, 74, 88
2, 55200, Note_on_c, 0, 74, 0
2, 55200, Note_on_c, 0, 73, 88
2, 55296, Note_on_c, 0, 73, 0
2, 55296, Note_on_c, 0, 74, 88
2, 55344, Note_on_c, 0, 74, 0
2, 55344, Note_on_c, 0, 72, 88
2, 55392, Note_on_c, 0, 72, 0
2, 55392, Note_on_c, 0, 71, 88
2, 55488, Note_on_c, 0, 71, 0
2, 55488, Note_on_c, 0, 72, 88
2, 55680, Note_on_c, 0, 72, 0
2, 55680, Note_on_c, 0, 71, 88
2, 55776, Note_on_c, 0, 71, 0
2, 55776, Note_on_c, 0, 72, 88
2, 55872, Note_on_c, 0, 72, 0
2, 55872, Note_on_c, 0, 67, 88
2, 55968, Note_on_c, 0, 67, 0
2, 55968, Note_on_c, 0, 74, 88
2, 56064, Note_on_c, 0, 74, 0
2, 56064, Note_on_c, 0, 75, 88
2, 56160, Note_on_c, 0, 75, 0
2, 56160, Note_on_c, 0, 76, 88
2, 56256, Note_on_c, 0, 76, 0
2, 56256, Note_on_c, 0, 71, 88
2, 56352, Note_on_c, 0, 71, 0
2, 56352, Note_on_c, 0, 78, 88
2, 56544, Note_on_c, 0, 78, 0
2, 56544, Note_on_c, 0, 79, 88
2, 56640, Note_on_c, 0, 79, 0
2, 56640, Note_on_c, 0, 78, 88
2, 56736, Note_on_c, 0, 78, 0
2, 56736, Note_on_c, 0, 76, 88
2, 56784, Note_on_c, 0, 76, 0
2, 56784, Note_on_c, 0, 78, 88
2, 56832, Note_on_c, 0, 78, 0
2, 56832, Note_on_c, 0, 76, 88
2, 56928, Note_on_c, 0, 76, 0
2, 56928, Note_on_c, 0, 83, 88
2, 56976, Note_on_c, 0, 83, 0
2, 56976, Note_on_c, 0, 75, 88
2, 57024, Note_on_c, 0, 75, 0
2, 57024, Note_on_c, 0, 76, 88
2, 57168, Note_on_c, 0, 76, 0
2, 57168, Note_on_c, 0, 73, 88
2, 57216, Note_on_c, 0, 73, 0
2, 57216, Note_on_c, 0, 75, 88
2, 57264, Note_on_c, 0, 75, 0
2, 57264, Note_on_c, 0, 75, 88
2, 57312, Note_on_c, 0, 75, 0
2, 57312, Note_on_c, 0, 74, 88
2, 57360, Note_on_c, 0, 74, 0
2, 57360, Note_on_c, 0, 71, 88
2, 57408, Note_on_c, 0, 71, 0
2, 57408, Note_on_c, 0, 72, 88
2, 57456, Note_on_c, 0, 72, 0
2, 57456, Note_on_c, 0, 72, 88
2, 57504, Note_on_c, 0, 72, 0
2, 57504, Note_on_c, 0, 72, 88
2, 57552, Note_on_c, 0, 72, 0
2, 57552, Note_on_c, 0, 69, 88
2, 57600, Note_on_c, 0, 69, 0
2, 57600, Note_on_c, 0, 70, 88
2, 57648, Note_on_c, 0, 70, 0
2, 57648, Note_on_c, 0, 70, 88
2, 57696, Note_on_c, 0, 70, 0
2, 57696, Note_on_c, 0, 69, 72
2, 57792, Note_on_c, 0, 69, 0
2, 57792, Note_on_c, 0, 70, 72
2, 57888, Note_on_c, 0, 70, 0
2, 57888, Note_on_c, 0, 68, 72
2, 57984, Note_on_c, 0, 68, 0
2, 57984, Note_on_c, 0, 69, 72
2, 58080, Note_on_c, 0, 69, 0
2, 58080, Note_on_c, 0, 74, 72
2, 58176, Note_on_c, 0, 74, 0
2, 58176, Note_on_c, 0, 76, 72
2, 58272, Note_on_c, 0, 76, 0
2, 58272, Note_on_c, 0, 73, 72
2, 58368, Note_on_c, 0, 73, 0
2, 58368, Note_on_c, 0, 74, 72
2, 58464, Note_on_c, 0, 74, 0
2, 58464, Note_on_c, 0, 74, 72
2, 58512, Note_on_c, 0, 74, 0
2, 58512, Note_on_c, 0, 77, 72
2, 58560, Note_on_c, 0, 77, 0
2, 58560, Note_on_c, 0, 76, 72
2, 58608, Note_on_c, 0, 76, 0
2, 58608, Note_on_c, 0, 76, 72
2, 58656, Note_on_c, 0, 76, 0
2, 58656, Note_on_c, 0, 76, 72
2, 58704, Note_on_c, 0, 76, 0
2, 58704, Note_on_c, 0, 79, 72
2, 58752, Note_on_c, 0, 79, 0
2, 58752, Note_on_c, 0, 77, 72
2, 58800, Note_on_c, 0, 77, 0
2, 58800, Note_on_c, 0, 77, 72
2, 58848, Note_on_c, 0, 77, 0
2, 58848, Note_on_c, 0, 77, 72
2, 58896, Note_on_c, 0, 77, 0
2, 58896, Note_on_c, 0, 81, 72
2, 58944, Note_on_c, 0, 81, 0
2, 58944, Note_on_c, 0, 79, 72
2, 58992, Note_on_c, 0, 79, 0
2, 58992, Note_on_c, 0, 79, 72
2, 59040, Note_on_c, 0, 79, 0
2, 59040, Note_on_c, 0, 79, 72
2, 59088, Note_on_c, 0, 79, 0
2, 59088, Note_on_c, 0, 82, 72
2, 59136, Note_on_c, 0, 82, 0
2, 59136, Note_on_c, 0, 81, 72
2, 59184, Note_on_c, 0, 81, 0
2, 59184, Note_on_c, 0, 81, 72
2, 59232, Note_on_c, 0, 81, 0
2, 59232, Note_on_c, 0, 79, 72
2, 59328, Note_on_c, 0, 79, 0
2, 59328, Note_on_c, 0, 67, 72
2, 59472, Note_on_c, 0, 67, 0
2, 59472, Note_on_c, 0, 70, 72
2, 59520, Note_on_c, 0, 70, 0
2, 59520, Note_on_c, 0, 69, 72
2, 59568, Note_on_c, 0, 69, 0
2, 59568, Note_on_c, 0, 69, 72
2, 59616, Note_on_c, 0, 69, 0
2, 59616, Note_on_c, 0, 69, 72
2, 59664, Note_on_c, 0, 69, 0
2, 59664, Note_on_c, 0, 66, 72
2, 59712, Note_on_c, 0, 66, 0
2, 59712, Note_on_c, 0, 67, 72
2, 59760, Note_on_c, 0, 67, 0
2, 59760, Note_on_c, 0, 67, 72
2, 59808, Note_on_c, 0, 67, 0
2, 59808, Note_on_c, 0, 67, 72
2, 59856, Note_on_c, 0, 67, 0
2, 59856, Note_on_c, 0, 70, 72
2, 59904, Note_on_c, 0, 70, 0
2, 59904, Note_on_c, 0, 75, 88
2, 60000, Note_on_c, 0, 75, 0
2, 60000, Note_on_c, 0, 75, 88
2, 60048, Note_on_c, 0, 75, 0
2, 60048, Note_on_c, 0, 74, 88
2, 60096, Note_on_c, 0, 74, 0
2, 60096, Note_on_c, 0, 79, 88
2, 60144, Note_on_c, 0, 79, 0
2, 60144, Note_on_c, 0, 77, 88
2, 60192, Note_on_c, 0, 77, 0
2, 60192, Note_on_c, 0, 76, 88
2, 60240, Note_on_c, 0, 76, 0
2, 60240, Note_on_c, 0, 74, 88
2, 60288, Note_on_c, 0, 74, 0
2, 60288, Note_on_c, 0, 73, 88
2, 60336, Note_on_c, 0, 73, 0
2, 60336, Note_on_c, 0, 74, 88
2, 60384, Note_on_c, 0, 74, 0
2, 60384, Note_on_c, 0, 73, 88
2, 60480, Note_on_c, 0, 73, 0
2, 60480, Program_c, 0, 41
2, 60480, Note_on_c, 0, 81, 88
2, 60576, Note_on_c, 0, 81, 0
2, 60576, Note_on_c, 0, 74, 88
2, 60672, Note_on_c, 0, 74, 0
2, 60672, Note_on_c, 0, 76, 88
2, 60768, Note_on_c, 0, 76, 0
2, 60864, Note_on_c, 0, 77, 88
2, 60960, Note_on_c, 0, 77, 0
2, 60960, Note_on_c, 0, 79, 88
2, 61056, Note_on_c, 0, 79, 0
2, 61056, Note_on_c, 0, 81, 88
2, 61152, Note_on_c, 0, 81, 0
2, 61248, Note_on_c, 0, 82, 88
2, 61344, Note_on_c, 0, 82, 0
2, 61344, Note_on_c, 0, 81, 88
2, 61440, Note_on_c, 0, 81, 0
2, 61440, Note_on_c, 0, 79, 88
2, 61536, Note_on_c, 0, 79, 0
2, 61632, Note_on_c, 0, 77, 88
2, 61680, Note_on_c, 0, 77, 0
2, 61680, Note_on_c, 0, 76, 88
2, 61728, Note_on_c, 0, 76, 0
2, 61728, Note_on_c, 0, 77, 88
2, 61824, Note_on_c, 0, 77, 0
2, 61824, Note_on_c, 0, 79, 88
2, 61920, Note_on_c, 0, 79, 0
2, 61920, Note_on_c, 0, 81, 88
2, 62016, Note_on_c, 0, 81, 0
2, 62016, Note_on_c, 0, 74, 72
2, 62160, Note_on_c, 0, 74, 0
2, 62160, Note_on_c, 0, 70, 72
2, 62208, Note_on_c, 0, 70, 0
2, 62208, Note_on_c, 0, 72, 72
2, 62256, Note_on_c, 0, 72, 0
2, 62256, Note_on_c, 0, 72, 72
2, 62304, Note_on_c, 0, 72, 0
2, 62304, Note_on_c, 0, 72, 72
2, 62496, Note_on_c, 0, 72, 0
2, 62496, Note_on_c, 0, 72, 72
2, 62544, Note_on_c, 0, 72, 0
2, 62544, Note_on_c, 0, 68, 72
2, 62592, Note_on_c, 0, 68, 0
2, 62592, Note_on_c, 0, 70, 72
2, 62640, Note_on_c, 0, 70, 0
2, 62640, Note_on_c, 0, 70, 72
2, 62688, Note_on_c, 0, 70, 0
2, 62688, Note_on_c, 0, 70, 72
2, 62880, Note_on_c, 0, 70, 0
2, 62976, Note_on_c, 0, 74, 72
2, 63072, Note_on_c, 0, 74, 0
2, 63072, Note_on_c, 0, 74, 72
2, 63120, Note_on_c, 0, 74, 0
2, 63120, Note_on_c, 0, 77, 72
2, 63168, Note_on_c, 0, 77, 0
2, 63168, Note_on_c, 0, 76, 72
2, 63216, Note_on_c, 0, 76, 0
2, 63216, Note_on_c, 0, 76, 72
2, 63264, Note_on_c, 0, 76, 0
2, 63264, Note_on_c, 0, 77, 72
2, 63456, Note_on_c, 0, 77, 0
2, 63456, Note_on_c, 0, 77, 72
2, 63504, Note_on_c, 0, 77, 0
2, 63504, Note_on_c, 0, 74, 72
2, 63552, Note_on_c, 0, 74, 0
2, 63552, Note_on_c, 0, 75, 72
2, 63600, Note_on_c, 0, 75, 0
2, 63600, Note_on_c, 0, 75, 72
2, 63648, Note_on_c, 0, 75, 0
2, 63648, Note_on_c, 0, 75, 72
2, 63792, Note_on_c, 0, 75, 0
2, 63792, Note_on_c, 0, 75, 72
2, 63840, Note_on_c, 0, 75, 0
2, 63840, Note_on_c, 0, 74, 72
2, 63888, Note_on_c, 0, 74, 0
2, 63888, Note_on_c, 0, 72, 72
2, 63936, Note_on_c, 0, 72, 0
2, 63936, Note_on_c, 0, 70, 72
2, 63984, Note_on_c, 0, 70, 0
2, 63984, Note_on_c, 0, 69, 72
2, 64032, Note_on_c, 0, 69, 0
2, 64032, Note_on_c, 0, 67, 72
2, 64128, Note_on_c, 0, 67, 0
2, 64128, Note_on_c, 0, 65, 72
2, 64224, Note_on_c, 0, 65, 0
2, 64224, Note_on_c, 0, 65, 72
2, 64272, Note_on_c, 0, 65, 0
2, 64272, Note_on_c, 0, 68, 72
2, 64320, Note_on_c, 0, 68, 0
2, 64320, Note_on_c, 0, 67, 72
2, 64368, Note_on_c, 0, 67, 0
2, 64368, Note_on_c, 0, 67, 72
2, 64416, Note_on_c, 0, 67, 0
2, 64416, Note_on_c, 0, 67, 72
2, 64464, Note_on_c, 0, 67, 0
2, 64464, Note_on_c, 0, 70, 72
2, 64512, Note_on_c, 0, 70, 0
2, 64512, Note_on_c, 0, 69, 72
2, 64560, Note_on_c, 0, 69, 0
2, 64560, Note_on_c, 0, 69, 72
2, 64608, Note_on_c, 0, 69, 0
2, 64608, Note_on_c, 0, 69, 72
2, 64656, Note_on_c, 0, 69, 0
2, 64656, Note_on_c, 0, 72, 72
2, 64704, Note_on_c, 0, 72, 0
2, 64704, Note_on_c, 0, 71, 72
2, 64752, Note_on_c, 0, 71, 0
2, 64752, Note_on_c, 0, 71, 72
2, 64800, Note_on_c, 0, 71, 0
2, 64800, Note_on_c, 0, 71, 72
2, 64848, Note_on_c, 0, 71, 0
2, 64848, Note_on_c, 0, 74, 72
2, 64896, Note_on_c, 0, 74, 0
2, 64896, Note_on_c, 0, 73, 72
2, 64944, Note_on_c, 0, 73, 0
2, 64944, Note_on_c, 0, 73, 72
2, 64992, Note_on_c, 0, 73, 0
2, 64992, Note_on_c, 0, 73, 72
2, 65040, Note_on_c, 0, 73, 0
2, 65040, Note_on_c, 0, 76, 72
2, 65088, Note_on_c, 0, 76, 0
2, 65088, Note_on_c, 0, 74, 72
2, 65136, Note_on_c, 0, 74, 0
2, 65136, Note_on_c, 0, 74, 72
2, 65184, Note_on_c, 0, 74, 0
2, 65184, Note_on_c, 0, 74, 72
2, 65232, Note_on_c, 0, 74, 0
2, 65232, Note_on_c, 0, 77, 72
2, 65280, Note_on_c, 0, 77, 0
2, 65280, Note_on_c, 0, 76, 72
2, 65328, Note_on_c, 0, 76, 0
2, 65328, Note_on_c, 0, 76, 72
2, 65376, Note_on_c, 0, 76, 0
2, 65376, Note_on_c, 0, 69, 72
2, 65568, Note_on_c, 0, 69, 0
2, 65664, Program_c, 0, 5
2, 65664, Note_on_c, 0, 79, 72
2, 65760, Note_on_c, 0, 79, 0
2, 65760, Note_on_c, 0, 73, 72
2, 65808, Note_on_c, 0, 73, 0
2, 65808, Note_on_c, 0, 76, 72
2, 65856, Note_on_c, 0, 76, 0
2, 65856, Note_on_c, 0, 74, 72
2, 65904, Note_on_c, 0, 74, 0
2, 65904, Note_on_c, 0, 74, 72
2, 65952, Note_on_c, 0, 74, 0
2, 65952, Note_on_c, 0, 74, 72
2, 66000, Note_on_c, 0, 74, 0
2, 66000, Note_on_c, 0, 77, 72
2, 66048, Note_on_c, 0, 77, 0
2, 66048, Note_on_c, 0, 76, 72
2, 66096, Note_on_c, 0, 76, 0
2, 66096, Note_on_c, 0, 76, 72
2, 66144, Note_on_c, 0, 76, 0
2, 66144, Note_on_c, 0, 76, 72
2, 66192, Note_on_c, 0, 76, 0
2, 66192, Note_on_c, 0, 79, 72
2, 66240, Note_on_c, 0, 79, 0
2, 66240, Note_on_c, 0, 77, 72
2, 66288, Note_on_c, 0, 77, 0
2, 66288, Note_on_c, 0, 76, 72
2, 66336, Note_on_c, 0, 76, 0
2, 66336, Note_on_c, 0, 81, 72
2, 66384, Note_on_c, 0, 81, 0
2, 66384, Note_on_c, 0, 74, 72
2, 66432, Note_on_c, 0, 74, 0
2, 66432, Note_on_c, 0, 79, 72
2, 66480, Note_on_c, 0, 79, 0
2, 66480, Note_on_c, 0, 79, 72
2, 66528, Note_on_c, 0, 79, 0
2, 66528, Note_on_c, 0, 79, 72
2, 66576, Note_on_c, 0, 79, 0
2, 66576, Note_on_c, 0, 76, 72
2, 66624, Note_on_c, 0, 76, 0
2, 66624, Note_on_c, 0, 77, 72
2, 66672, Note_on_c, 0, 77, 0
2, 66672, Note_on_c, 0, 77, 72
2, 66720, Note_on_c, 0, 77, 0
2, 66720, Note_on_c, 0, 77, 72
2, 66768, Note_on_c, 0, 77, 0
2, 66768, Note_on_c, 0, 74, 72
2, 66816, Note_on_c, 0, 74, 0
2, 66816, Note_on_c, 0, 76, 72
2, 66912, Note_on_c, 0, 76, 0
2, 66912, Note_on_c, 0, 74, 72
2, 67008, Note_on_c, 0, 74, 0
2, 67008, Note_on_c, 0, 69, 72
2, 67104, Note_on_c, 0, 69, 0
2, 67200, Note_on_c, 0, 70, 72
2, 67296, Note_on_c, 0, 70, 0
2, 67296, Note_on_c, 0, 70, 72
2, 67344, Note_on_c, 0, 70, 0
2, 67344, Note_on_c, 0, 69, 72
2, 67392, Note_on_c, 0, 69, 0
2, 67392, Note_on_c, 0, 72, 72
2, 67440, Note_on_c, 0, 72, 0
2, 67440, Note_on_c, 0, 72, 72
2, 67488, Note_on_c, 0, 72, 0
2, 67488, Note_on_c, 0, 72, 72
2, 67536, Note_on_c, 0, 72, 0
2, 67536, Note_on_c, 0, 71, 72
2, 67584, Note_on_c, 0, 71, 0
2, 67584, Note_on_c, 0, 79, 72
2, 67680, Note_on_c, 0, 79, 0
2, 67680, Note_on_c, 0, 79, 72
2, 67728, Note_on_c, 0, 79, 0
2, 67728, Note_on_c, 0, 77, 72
2, 67776, Note_on_c, 0, 77, 0
2, 67776, Note_on_c, 0, 79, 72
2, 67824, Note_on_c, 0, 79, 0
2, 67824, Note_on_c, 0, 76, 72
2, 67872, Note_on_c, 0, 76, 0
2, 67872, Note_on_c, 0, 77, 72
2, 67968, Note_on_c, 0, 77, 0
2, 67968, Note_on_c, 0, 82, 72
2, 68064, Note_on_c, 0, 82, 0
2, 68064, Note_on_c, 0, 81, 72
2, 68112, Note_on_c, 0, 81, 0
2, 68112, Note_on_c, 0, 73, 72
2, 68160, Note_on_c, 0, 73, 0
2, 68160, Note_on_c, 0, 74, 72
2, 68208, Note_on_c, 0, 74, 0
2, 68208, Note_on_c, 0, 74, 72
2, 68256, Note_on_c, 0, 74, 0
2, 68256, Note_on_c, 0, 74, 72
2, 68304, Note_on_c, 0, 74, 0
2, 68304, Note_on_c, 0, 71, 72
2, 68352, Note_on_c, 0, 71, 0
2, 68352, Note_on_c, 0, 72, 72
2, 68400, Note_on_c, 0, 72, 0
2, 68400, Note_on_c, 0, 72, 72
2, 68448, Note_on_c, 0, 72, 0
2, 68448, Note_on_c, 0, 72, 72
2, 68496, Note_on_c, 0, 72, 0
2, 68496, Note_on_c, 0, 69, 72
2, 68544, Note_on_c, 0, 69, 0
2, 68544, Note_on_c, 0, 71, 72
2, 68592, Note_on_c, 0, 71, 0
2, 68592, Note_on_c, 0, 74, 72
2, 68640, Note_on_c, 0, 74, 0
2, 68640, Note_on_c, 0, 67, 72
2, 68688, Note_on_c, 0, 67, 0
2, 68688, Note_on_c, 0, 70, 72
2, 68736, Note_on_c, 0, 70, 0
2, 68736, Note_on_c, 0, 72, 72
2, 68784, Note_on_c, 0, 72, 0
2, 68784, Note_on_c, 0, 66, 72
2, 68832, Note_on_c, 0, 66, 0
2, 68832, Note_on_c, 0, 65, 72
2, 68928, Note_on_c, 0, 65, 0
2, 68928, Note_on_c, 0, 74, 88
2, 69024, Note_on_c, 0, 74, 0
2, 69024, Note_on_c, 0, 81, 88
2, 69120, Note_on_c, 0, 81, 0
2, 69120, Note_on_c, 0, 79, 88
2, 69216, Note_on_c, 0, 79, 0
2, 69312, Note_on_c, 0, 77, 88
2, 69408, Note_on_c, 0, 77, 0
2, 69408, Note_on_c, 0, 76, 88
2, 69504, Note_on_c, 0, 76, 0
2, 69504, Note_on_c, 0, 74, 88
2, 69600, Note_on_c, 0, 74, 0
2, 69696, Note_on_c, 0, 73, 88
2, 69792, Note_on_c, 0, 73, 0
2, 69792, Note_on_c, 0, 74, 88
2, 69888, Note_on_c, 0, 74, 0
2, 69888, Note_on_c, 0, 76, 88
2, 69984, Note_on_c, 0, 76, 0
2, 70080, Note_on_c, 0, 77, 88
2, 70128, Note_on_c, 0, 77, 0
2, 70128, Note_on_c, 0, 79, 88
2, 70176, Note_on_c, 0, 79, 0
2, 70176, Note_on_c, 0, 77, 88
2, 70272, Note_on_c, 0, 77, 0
2, 70272, Note_on_c, 0, 76, 88
2, 70368, Note_on_c, 0, 76, 0
2, 70368, Note_on_c, 0, 74, 88
2, 70752, Note_on_c, 0, 74, 0
2, 70752, End_track
3, 0, Start_track
3, 0, Program_c, 0, 41
3, 96, Note_on_c, 0, 62, 88
3, 192, Note_on_c, 0, 62, 0
3, 192, Note_on_c, 0, 69, 88
3, 288, Note_on_c, 0, 69, 0
3, 288, Note_on_c, 0, 67, 88
3, 384, Note_on_c, 0, 67, 0
3, 480, Note_on_c, 0, 65, 88
3, 576, Note_on_c, 0, 65, 0
3, 576, Note_on_c, 0, 64, 88
3, 672, Note_on_c, 0, 64, 0
3, 672, Note_on_c, 0, 62, 88
3, 768, Note_on_c, 0, 62, 0
3, 864, Note_on_c, 0, 61, 88
3, 960, Note_on_c, 0, 61, 0
3, 960, Note_on_c, 0, 62, 88
3, 1056, Note_on_c, 0, 62, 0
3, 1056, Note_on_c, 0, 64, 88
3, 1152, Note_on_c, 0, 64, 0
3, 1248, Note_on_c, 0, 65, 88
3, 1296, Note_on_c, 0, 65, 0
3, 1296, Note_on_c, 0, 67, 88
3, 1344, Note_on_c, 0, 67, 0
3, 1344, Note_on_c, 0, 65, 88
3, 1440, Note_on_c, 0, 65, 0
3, 1440, Note_on_c, 0, 64, 88
3, 1536, Note_on_c, 0, 64, 0
3, 1536, Note_on_c, 0, 62, 88
3, 1632, Note_on_c, 0, 62, 0
3, 1632, Note_on_c, 0, 60, 72
3, 1680, Note_on_c, 0, 60, 0
3, 1680, Note_on_c, 0, 59, 72
3, 1728, Note_on_c, 0, 59, 0
3, 1728, Note_on_c, 0, 60, 72
3, 1824, Note_on_c, 0, 60, 0
3, 1824, Note_on_c, 0, 62, 72
3, 1920, Note_on_c, 0, 62, 0
3, 1920, Note_on_c, 0, 64, 72
3, 2016, Note_on_c, 0, 64, 0
3, 2016, Note_on_c, 0, 57, 72
3, 2112, Note_on_c, 0, 57, 0
3, 2112, Note_on_c, 0, 62, 72
3, 2160, Note_on_c, 0, 62, 0
3, 2160, Note_on_c, 0, 64, 72
3, 2208, Note_on_c, 0, 64, 0
3, 2208, Note_on_c, 0, 65, 72
3, 2304, Note_on_c, 0, 65, 0
3, 2304, Note_on_c, 0, 64, 72
3, 2448, Note_on_c, 0, 64, 0
3, 2448, Note_on_c, 0, 62, 72
3, 2496, Note_on_c, 0, 62, 0
3, 2496, Note_on_c, 0, 60, 72
3, 2544, Note_on_c, 0, 60, 0
3, 2544, Note_on_c, 0, 59, 72
3, 2592, Note_on_c, 0, 59, 0
3, 2592, Note_on_c, 0, 57, 72
3, 2640, Note_on_c, 0, 57, 0
3, 2640, Note_on_c, 0, 56, 72
3, 2688, Note_on_c, 0, 56, 0
3, 2688, Note_on_c, 0, 57, 72
3, 2736, Note_on_c, 0, 57, 0
3, 2736, Note_on_c, 0, 64, 72
3, 2784, Note_on_c, 0, 64, 0
3, 2784, Note_on_c, 0, 69, 72
3, 2928, Note_on_c, 0, 69, 0
3, 2928, Note_on_c, 0, 62, 72
3, 2976, Note_on_c, 0, 62, 0
3, 2976, Note_on_c, 0, 67, 72
3, 3072, Note_on_c, 0, 67, 0
3, 3072, Note_on_c, 0, 67, 72
3, 3168, Note_on_c, 0, 67, 0
3, 3168, Note_on_c, 0, 65, 72
3, 3216, Note_on_c, 0, 65, 0
3, 3216, Note_on_c, 0, 67, 72
3, 3264, Note_on_c, 0, 67, 0
3, 3264, Note_on_c, 0, 65, 72
3, 3360, Note_on_c, 0, 65, 0
3, 3360, Note_on_c, 0, 64, 72
3, 3456, Note_on_c, 0, 64, 0
3, 3456, Note_on_c, 0, 65, 72
3, 3504, Note_on_c, 0, 65, 0
3, 3504, Note_on_c, 0, 67, 72
3, 3552, Note_on_c, 0, 67, 0
3, 3552, Note_on_c, 0, 69, 72
3, 3648, Note_on_c, 0, 69, 0
3, 3648, Note_on_c, 0, 67, 72
3, 3696, Note_on_c, 0, 67, 0
3, 3696, Note_on_c, 0, 69, 72
3, 3744, Note_on_c, 0, 69, 0
3, 3744, Note_on_c, 0, 70, 72
3, 3840, Note_on_c, 0, 70, 0
3, 3840, Note_on_c, 0, 70, 72
3, 3936, Note_on_c, 0, 70, 0
3, 3936, Note_on_c, 0, 69, 72
3, 3984, Note_on_c, 0, 69, 0
3, 3984, Note_on_c, 0, 70, 72
3, 4032, Note_on_c, 0, 70, 0
3, 4032, Note_on_c, 0, 69, 72
3, 4128, Note_on_c, 0, 69, 0
3, 4128, Note_on_c, 0, 67, 72
3, 4224, Note_on_c, 0, 67, 0
3, 4224, Note_on_c, 0, 67, 72
3, 4320, Note_on_c, 0, 67, 0
3, 4320, Note_on_c, 0, 65, 72
3, 4416, Note_on_c, 0, 65, 0
3, 4416, Note_on_c, 0, 62, 72
3, 4512, Note_on_c, 0, 62, 0
3, 4512, Note_on_c, 0, 67, 72
3, 4608, Note_on_c, 0, 67, 0
3, 4608, Note_on_c, 0, 67, 72
3, 4704, Note_on_c, 0, 67, 0
3, 4704, Note_on_c, 0, 65, 72
3, 4800, Note_on_c, 0, 65, 0
3, 4800, Note_on_c, 0, 64, 72
3, 4848, Note_on_c, 0, 64, 0
3, 4848, Note_on_c, 0, 69, 72
3, 4944, Note_on_c, 0, 69, 0
3, 4944, Note_on_c, 0, 68, 72
3, 4992, Note_on_c, 0, 68, 0
3, 4992, Note_on_c, 0, 69, 72
3, 5088, Note_on_c, 0, 69, 0
3, 5088, Note_on_c, 0, 68, 72
3, 5136, Note_on_c, 0, 68, 0
3, 5136, Note_on_c, 0, 66, 72
3, 5184, Note_on_c, 0, 66, 0
3, 5184, Note_on_c, 0, 68, 72
3, 5280, Note_on_c, 0, 68, 0
3, 5280, Note_on_c, 0, 69, 72
3, 5376, Note_on_c, 0, 69, 0
3, 5376, Note_on_c, 0, 62, 72
3, 5424, Note_on_c, 0, 62, 0
3, 5424, Note_on_c, 0, 64, 72
3, 5472, Note_on_c, 0, 64, 0
3, 5472, Note_on_c, 0, 65, 72
3, 5568, Note_on_c, 0, 65, 0
3, 5568, Note_on_c, 0, 64, 72
3, 5664, Note_on_c, 0, 64, 0
3, 5664, Note_on_c, 0, 62, 72
3, 5760, Note_on_c, 0, 62, 0
3, 5760, Note_on_c, 0, 62, 72
3, 5856, Note_on_c, 0, 62, 0
3, 5856, Note_on_c, 0, 60, 72
3, 5952, Note_on_c, 0, 60, 0
3, 5952, Note_on_c, 0, 65, 72
3, 6048, Note_on_c, 0, 65, 0
3, 6048, Note_on_c, 0, 64, 72
3, 6096, Note_on_c, 0, 64, 0
3, 6096, Note_on_c, 0, 62, 72
3, 6144, Note_on_c, 0, 62, 0
3, 6144, Note_on_c, 0, 64, 72
3, 6240, Note_on_c, 0, 64, 0
3, 6240, Note_on_c, 0, 65, 72
3, 6336, Note_on_c, 0, 65, 0
3, 6336, Note_on_c, 0, 67, 72
3, 6528, Note_on_c, 0, 67, 0
3, 6528, Note_on_c, 0, 67, 72
3, 6624, Note_on_c, 0, 67, 0
3, 6624, Note_on_c, 0, 65, 72
3, 6672, Note_on_c, 0, 65, 0
3, 6672, Note_on_c, 0, 64, 72
3, 6720, Note_on_c, 0, 64, 0
3, 6720, Note_on_c, 0, 65, 72
3, 6816, Note_on_c, 0, 65, 0
3, 6816, Note_on_c, 0, 70, 72
3, 6912, Note_on_c, 0, 70, 0
3, 6912, Note_on_c, 0, 69, 72
3, 7008, Note_on_c, 0, 69, 0
3, 7008, Note_on_c, 0, 67, 72
3, 7104, Note_on_c, 0, 67, 0
3, 7104, Note_on_c, 0, 69, 72
3, 7200, Note_on_c, 0, 69, 0
3, 7200, Note_on_c, 0, 75, 72
3, 7296, Note_on_c, 0, 75, 0
3, 7296, Note_on_c, 0, 75, 72
3, 7392, Note_on_c, 0, 75, 0
3, 7392, Note_on_c, 0, 74, 72
3, 7440, Note_on_c, 0, 74, 0
3, 7440, Note_on_c, 0, 75, 72
3, 7488, Note_on_c, 0, 75, 0
3, 7488, Note_on_c, 0, 74, 72
3, 7584, Note_on_c, 0, 74, 0
3, 7584, Note_on_c, 0, 72, 72
3, 7680, Note_on_c, 0, 72, 0
3, 7680, Note_on_c, 0, 72, 72
3, 7776, Note_on_c, 0, 72, 0
3, 7776, Note_on_c, 0, 70, 72
3, 7824, Note_on_c, 0, 70, 0
3, 7824, Note_on_c, 0, 72, 72
3, 7872, Note_on_c, 0, 72, 0
3, 7872, Note_on_c, 0, 70, 72
3, 7968, Note_on_c, 0, 70, 0
3, 7968, Note_on_c, 0, 69, 72
3, 8064, Note_on_c, 0, 69, 0
3, 8064, Note_on_c, 0, 67, 72
3, 8160, Note_on_c, 0, 67, 0
3, 8160, Note_on_c, 0, 61, 72
3, 8256, Note_on_c, 0, 61, 0
3, 8352, Note_on_c, 0, 69, 72
3, 8448, Note_on_c, 0, 69, 0
3, 8448, Note_on_c, 0, 69, 72
3, 8496, Note_on_c, 0, 69, 0
3, 8496, Note_on_c, 0, 74, 72
3, 8592, Note_on_c, 0, 74, 0
3, 8592, Note_on_c, 0, 72, 72
3, 8640, Note_on_c, 0, 72, 0
3, 8640, Note_on_c, 0, 70, 72
3, 8688, Note_on_c, 0, 70, 0
3, 8688, Note_on_c, 0, 69, 72
3, 8784, Note_on_c, 0, 69, 0
3, 8784, Note_on_c, 0, 70, 72
3, 8832, Note_on_c, 0, 70, 0
3, 8832, Note_on_c, 0, 61, 72
3, 8928, Note_on_c, 0, 61, 0
3, 8928, Note_on_c, 0, 70, 72
3, 9024, Note_on_c, 0, 70, 0
3, 9024, Note_on_c, 0, 69, 72
3, 9120, Note_on_c, 0, 69, 0
3, 9120, Note_on_c, 0, 67, 72
3, 9216, Note_on_c, 0, 67, 0
3, 9216, Note_on_c, 0, 65, 72
3, 9312, Note_on_c, 0, 65, 0
3, 9312, Note_on_c, 0, 74, 88
3, 9504, Note_on_c, 0, 74, 0
3, 9504, Note_on_c, 0, 73, 88
3, 9552, Note_on_c, 0, 73, 0
3, 9552, Note_on_c, 0, 72, 88
3, 9600, Note_on_c, 0, 72, 0
3, 9600, Note_on_c, 0, 71, 88
3, 9696, Note_on_c, 0, 71, 0
3, 9696, Note_on_c, 0, 70, 88
3, 9792, Note_on_c, 0, 70, 0
3, 9792, Note_on_c, 0, 69, 88
3, 9984, Note_on_c, 0, 69, 0
3, 9984, Note_on_c, 0, 69, 88
3, 10176, Note_on_c, 0, 69, 0
3, 10176, Note_on_c, 0, 69, 88
3, 10224, Note_on_c, 0, 69, 0
3, 10272, Program_c, 0, 13
3, 10272, Note_on_c, 0, 57, 88
3, 10464, Note_on_c, 0, 57, 0
3, 10464, Note_on_c, 0, 58, 88
3, 10560, Note_on_c, 0, 58, 0
3, 10560, Note_on_c, 0, 53, 88
3, 10656, Note_on_c, 0, 53, 0
3, 10656, Note_on_c, 0, 60, 88
3, 10752, Note_on_c, 0, 60, 0
3, 10752, Note_on_c, 0, 61, 88
3, 10848, Note_on_c, 0, 61, 0
3, 10848, Note_on_c, 0, 62, 88
3, 10944, Note_on_c, 0, 62, 0
3, 10944, Note_on_c, 0, 57, 88
3, 11040, Note_on_c, 0, 57, 0
3, 11040, Note_on_c, 0, 64, 88
3, 11232, Note_on_c, 0, 64, 0
3, 11232, Note_on_c, 0, 65, 88
3, 11328, Note_on_c, 0, 65, 0
3, 11328, Note_on_c, 0, 64, 88
3, 11424, Note_on_c, 0, 64, 0
3, 11424, Note_on_c, 0, 62, 88
3, 11472, Note_on_c, 0, 62, 0
3, 11472, Note_on_c, 0, 64, 88
3, 11520, Note_on_c, 0, 64, 0
3, 11520, Note_on_c, 0, 62, 88
3, 11616, Note_on_c, 0, 62, 0
3, 11616, Note_on_c, 0, 69, 88
3, 11760, Note_on_c, 0, 69, 0
3, 11760, Note_on_c, 0, 69, 72
3, 11808, Note_on_c, 0, 69, 0
3, 11808, Note_on_c, 0, 71, 72
3, 11856, Note_on_c, 0, 71, 0
3, 11856, Note_on_c, 0, 69, 72
3, 11904, Note_on_c, 0, 69, 0
3, 11904, Note_on_c, 0, 71, 72
3, 11952, Note_on_c, 0, 71, 0
3, 11952, Note_on_c, 0, 73, 72
3, 12000, Note_on_c, 0, 73, 0
3, 12000, Note_on_c, 0, 74, 72
3, 12096, Note_on_c, 0, 74, 0
3, 12096, Note_on_c, 0, 69, 72
3, 12192, Note_on_c, 0, 69, 0
3, 12192, Note_on_c, 0, 74, 72
3, 12288, Note_on_c, 0, 74, 0
3, 12288, Note_on_c, 0, 73, 72
3, 12384, Note_on_c, 0, 73, 0
3, 12384, Note_on_c, 0, 72, 72
3, 12480, Note_on_c, 0, 72, 0
3, 12480, Note_on_c, 0, 71, 72
3, 12576, Note_on_c, 0, 71, 0
3, 12576, Note_on_c, 0, 70, 72
3, 12672, Note_on_c, 0, 70, 0
3, 12672, Note_on_c, 0, 69, 72
3, 12768, Note_on_c, 0, 69, 0
3, 12768, Note_on_c, 0, 68, 72
3, 12816, Note_on_c, 0, 68, 0
3, 12816, Note_on_c, 0, 72, 72
3, 12864, Note_on_c, 0, 72, 0
3, 12864, Note_on_c, 0, 71, 72
3, 12912, Note_on_c, 0, 71, 0
3, 12912, Note_on_c, 0, 69, 72
3, 12960, Note_on_c, 0, 69, 0
3, 12960, Note_on_c, 0, 71, 72
3, 13008, Note_on_c, 0, 71, 0
3, 13008, Note_on_c, 0, 74, 72
3, 13056, Note_on_c, 0, 74, 0
3, 13056, Note_on_c, 0, 72, 72
3, 13104, Note_on_c, 0, 72, 0
3, 13104, Note_on_c, 0, 71, 72
3, 13152, Note_on_c, 0, 71, 0
3, 13152, Note_on_c, 0, 69, 72
3, 13344, Note_on_c, 0, 69, 0
3, 13488, Note_on_c, 0, 65, 72
3, 13536, Note_on_c, 0, 65, 0
3, 13536, Note_on_c, 0, 64, 72
3, 13632, Note_on_c, 0, 64, 0
3, 13632, Note_on_c, 0, 67, 72
3, 13728, Note_on_c, 0, 67, 0
3, 13728, Note_on_c, 0, 65, 72
3, 13824, Note_on_c, 0, 65, 0
3, 13824, Note_on_c, 0, 66, 72
3, 13920, Note_on_c, 0, 66, 0
3, 13920, Note_on_c, 0, 64, 72
3, 13968, Note_on_c, 0, 64, 0
3, 13968, Note_on_c, 0, 66, 72
3, 14016, Note_on_c, 0, 66, 0
3, 14016, Note_on_c, 0, 68, 72
3, 14064, Note_on_c, 0, 68, 0
3, 14064, Note_on_c, 0, 64, 72
3, 14112, Note_on_c, 0, 64, 0
3, 14112, Note_on_c, 0, 69, 72
3, 14304, Note_on_c, 0, 69, 0
3, 14304, Note_on_c, 0, 68, 72
3, 14400, Note_on_c, 0, 68, 0
3, 14400, Note_on_c, 0, 67, 72
3, 14496, Note_on_c, 0, 67, 0
3, 14496, Note_on_c, 0, 69, 72
3, 14592, Note_on_c, 0, 69, 0
3, 14592, Note_on_c, 0, 64, 88
3, 14688, Note_on_c, 0, 64, 0
3, 14688, Note_on_c, 0, 64, 88
3, 14784, Note_on_c, 0, 64, 0
3, 14784, Note_on_c, 0, 69, 88
3, 14880, Note_on_c, 0, 69, 0
3, 14880, Note_on_c, 0, 68, 88
3, 14976, Note_on_c, 0, 68, 0
3, 14976, Note_on_c, 0, 67, 88
3, 15072, Note_on_c, 0, 67, 0
3, 15072, Note_on_c, 0, 67, 88
3, 15120, Note_on_c, 0, 67, 0
3, 15120, Note_on_c, 0, 65, 88
3, 15168, Note_on_c, 0, 65, 0
3, 15168, Note_on_c, 0, 70, 88
3, 15360, Note_on_c, 0, 70, 0
3, 15360, Note_on_c, 0, 69, 88
3, 15456, Note_on_c, 0, 69, 0
3, 15456, Note_on_c, 0, 74, 88
3, 15552, Note_on_c, 0, 74, 0
3, 15552, Note_on_c, 0, 72, 88
3, 15600, Note_on_c, 0, 72, 0
3, 15600, Note_on_c, 0, 71, 88
3, 15648, Note_on_c, 0, 71, 0
3, 15648, Note_on_c, 0, 72, 88
3, 15744, Note_on_c, 0, 72, 0
3, 15744, Note_on_c, 0, 74, 88
3, 15840, Note_on_c, 0, 74, 0
3, 15840, Note_on_c, 0, 67, 88
3, 15936, Note_on_c, 0, 67, 0
3, 15936, Note_on_c, 0, 72, 72
3, 16032, Note_on_c, 0, 72, 0
3, 16032, Note_on_c, 0, 71, 72
3, 16128, Note_on_c, 0, 71, 0
3, 16128, Note_on_c, 0, 70, 72
3, 16224, Note_on_c, 0, 70, 0
3, 16224, Note_on_c, 0, 70, 72
3, 16272, Note_on_c, 0, 70, 0
3, 16272, Note_on_c, 0, 69, 72
3, 16320, Note_on_c, 0, 69, 0
3, 16320, Note_on_c, 0, 74, 72
3, 16416, Note_on_c, 0, 74, 0
3, 16416, Note_on_c, 0, 74, 72
3, 16440, Note_on_c, 0, 74, 0
3, 16440, Note_on_c, 0, 72, 72
3, 16464, Note_on_c, 0, 72, 0
3, 16464, Note_on_c, 0, 70, 72
3, 16488, Note_on_c, 0, 70, 0
3, 16488, Note_on_c, 0, 69, 72
3, 16512, Note_on_c, 0, 69, 0
3, 16512, Note_on_c, 0, 67, 72
3, 16560, Note_on_c, 0, 67, 0
3, 16560, Note_on_c, 0, 66, 72
3, 16608, Note_on_c, 0, 66, 0
3, 16608, Note_on_c, 0, 67, 72
3, 16704, Note_on_c, 0, 67, 0
3, 16704, Note_on_c, 0, 68, 72
3, 16800, Note_on_c, 0, 68, 0
3, 16800, Note_on_c, 0, 67, 72
3, 16944, Note_on_c, 0, 67, 0
3, 16944, Note_on_c, 0, 67, 72
3, 16992, Note_on_c, 0, 67, 0
3, 16992, Note_on_c, 0, 65, 72
3, 17088, Note_on_c, 0, 65, 0
3, 17088, Note_on_c, 0, 64, 72
3, 17136, Note_on_c, 0, 64, 0
3, 17136, Note_on_c, 0, 63, 72
3, 17184, Note_on_c, 0, 63, 0
3, 17184, Note_on_c, 0, 64, 72
3, 17280, Note_on_c, 0, 64, 0
3, 17472, Note_on_c, 0, 67, 72
3, 17568, Note_on_c, 0, 67, 0
3, 17568, Note_on_c, 0, 66, 72
3, 17664, Note_on_c, 0, 66, 0
3, 17664, Note_on_c, 0, 65, 72
3, 17760, Note_on_c, 0, 65, 0
3, 17760, Note_on_c, 0, 64, 72
3, 17856, Note_on_c, 0, 64, 0
3, 17904, Note_on_c, 0, 64, 72
3, 17952, Note_on_c, 0, 64, 0
3, 17952, Note_on_c, 0, 65, 72
3, 18048, Note_on_c, 0, 65, 0
3, 18048, Note_on_c, 0, 66, 72
3, 18144, Note_on_c, 0, 66, 0
3, 18144, Note_on_c, 0, 67, 72
3, 18336, Note_on_c, 0, 67, 0
3, 18336, Note_on_c, 0, 67, 72
3, 18384, Note_on_c, 0, 67, 0
3, 18384, Note_on_c, 0, 65, 72
3, 18432, Note_on_c, 0, 65, 0
3, 18432, Note_on_c, 0, 64, 72
3, 18528, Note_on_c, 0, 64, 0
3, 18528, Note_on_c, 0, 65, 72
3, 18624, Note_on_c, 0, 65, 0
3, 18624, Note_on_c, 0, 67, 72
3, 18816, Note_on_c, 0, 67, 0
3, 18816, Note_on_c, 0, 66, 72
3, 18912, Note_on_c, 0, 66, 0
3, 18912, Note_on_c, 0, 67, 72
3, 19008, Note_on_c, 0, 67, 0
3, 19008, Note_on_c, 0, 69, 72
3, 19200, Note_on_c, 0, 69, 0
3, 19200, Note_on_c, 0, 68, 72
3, 19296, Note_on_c, 0, 68, 0
3, 19296, Note_on_c, 0, 69, 72
3, 19392, Note_on_c, 0, 69, 0
3, 19392, Note_on_c, 0, 71, 72
3, 19536, Note_on_c, 0, 71, 0
3, 19536, Note_on_c, 0, 64, 72
3, 19560, Note_on_c, 0, 64, 0
3, 19560, Note_on_c, 0, 65, 72
3, 19584, Note_on_c, 0, 65, 0
3, 19584, Note_on_c, 0, 67, 72
3, 19608, Note_on_c, 0, 67, 0
3, 19608, Note_on_c, 0, 69, 72
3, 19632, Note_on_c, 0, 69, 0
3, 19632, Note_on_c, 0, 70, 72
3, 19680, Note_on_c, 0, 70, 0
3, 19680, Note_on_c, 0, 69, 72
3, 19776, Note_on_c, 0, 69, 0
3, 19776, Note_on_c, 0, 67, 72
3, 19872, Note_on_c, 0, 67, 0
3, 19872, Note_on_c, 0, 65, 72
3, 19968, Note_on_c, 0, 65, 0
3, 20016, Note_on_c, 0, 74, 72
3, 20064, Note_on_c, 0, 74, 0
3, 20064, Note_on_c, 0, 76, 72
3, 20112, Note_on_c, 0, 76, 0
3, 20112, Note_on_c, 0, 74, 72
3, 20160, Note_on_c, 0, 74, 0
3, 20160, Note_on_c, 0, 76, 72
3, 20208, Note_on_c, 0, 76, 0
3, 20208, Note_on_c, 0, 78, 72
3, 20256, Note_on_c, 0, 78, 0
3, 20256, Note_on_c, 0, 79, 72
3, 20304, Note_on_c, 0, 79, 0
3, 20304, Note_on_c, 0, 77, 72
3, 20352, Note_on_c, 0, 77, 0
3, 20352, Note_on_c, 0, 75, 72
3, 20400, Note_on_c, 0, 75, 0
3, 20400, Note_on_c, 0, 74, 72
3, 20448, Note_on_c, 0, 74, 0
3, 20448, Note_on_c, 0, 73, 72
3, 20544, Note_on_c, 0, 73, 0
3, 20544, Note_on_c, 0, 74, 72
3, 20736, Note_on_c, 0, 74, 0
3, 20736, Note_on_c, 0, 76, 72
3, 20832, Note_on_c, 0, 76, 0
3, 20832, Note_on_c, 0, 69, 72
3, 20928, Note_on_c, 0, 69, 0
3, 20976, Note_on_c, 0, 70, 72
3, 21072, Note_on_c, 0, 70, 0
3, 21072, Note_on_c, 0, 69, 72
3, 21120, Note_on_c, 0, 69, 0
3, 21120, Note_on_c, 0, 67, 72
3, 21168, Note_on_c, 0, 67, 0
3, 21168, Note_on_c, 0, 66, 72
3, 21216, Note_on_c, 0, 66, 0
3, 21216, Note_on_c, 0, 67, 72
3, 21312, Note_on_c, 0, 67, 0
3, 21312, Note_on_c, 0, 68, 72
3, 21408, Note_on_c, 0, 68, 0
3, 21408, Note_on_c, 0, 69, 72
3, 21504, Note_on_c, 0, 69, 0
3, 21504, Note_on_c, 0, 71, 72
3, 21600, Note_on_c, 0, 71, 0
3, 21600, Note_on_c, 0, 69, 72
3, 21696, Note_on_c, 0, 69, 0
3, 21744, Note_on_c, 0, 61, 72
3, 21792, Note_on_c, 0, 61, 0
3, 21792, Note_on_c, 0, 62, 72
3, 21840, Note_on_c, 0, 62, 0
3, 21840, Note_on_c, 0, 61, 72
3, 21888, Note_on_c, 0, 61, 0
3, 21888, Note_on_c, 0, 62, 72
3, 21936, Note_on_c, 0, 62, 0
3, 21936, Note_on_c, 0, 64, 72
3, 21984, Note_on_c, 0, 64, 0
3, 21984, Note_on_c, 0, 57, 72
3, 22080, Note_on_c, 0, 57, 0
3, 22128, Note_on_c, 0, 57, 72
3, 22176, Note_on_c, 0, 57, 0
3, 22176, Note_on_c, 0, 58, 72
3, 22224, Note_on_c, 0, 58, 0
3, 22224, Note_on_c, 0, 57, 72
3, 22272, Note_on_c, 0, 57, 0
3, 22272, Note_on_c, 0, 58, 72
3, 22320, Note_on_c, 0, 58, 0
3, 22320, Note_on_c, 0, 60, 72
3, 22368, Note_on_c, 0, 60, 0
3, 22368, Note_on_c, 0, 62, 72
3, 22416, Note_on_c, 0, 62, 0
3, 22416, Note_on_c, 0, 58, 72
3, 22464, Note_on_c, 0, 58, 0
3, 22464, Note_on_c, 0, 63, 72
3, 22512, Note_on_c, 0, 63, 0
3, 22512, Note_on_c, 0, 62, 72
3, 22560, Note_on_c, 0, 62, 0
3, 22560, Note_on_c, 0, 60, 72
3, 22608, Note_on_c, 0, 60, 0
3, 22608, Note_on_c, 0, 63, 72
3, 22656, Note_on_c, 0, 63, 0
3, 22656, Note_on_c, 0, 62, 72
3, 22704, Note_on_c, 0, 62, 0
3, 22704, Note_on_c, 0, 60, 72
3, 22752, Note_on_c, 0, 60, 0
3, 22752, Note_on_c, 0, 60, 72
3, 22800, Note_on_c, 0, 60, 0
3, 22800, Note_on_c, 0, 59, 72
3, 22848, Note_on_c, 0, 59, 0
3, 22848, Note_on_c, 0, 60, 72
3, 23040, Note_on_c, 0, 60, 0
3, 23040, Note_on_c, 0, 62, 72
3, 23136, Note_on_c, 0, 62, 0
3, 23136, Note_on_c, 0, 55, 72
3, 23232, Note_on_c, 0, 55, 0
3, 23616, Note_on_c, 0, 69, 72
3, 23712, Note_on_c, 0, 69, 0
3, 23712, Note_on_c, 0, 68, 72
3, 23808, Note_on_c, 0, 68, 0
3, 23808, Note_on_c, 0, 67, 72
3, 23904, Note_on_c, 0, 67, 0
3, 23904, Note_on_c, 0, 67, 72
3, 23952, Note_on_c, 0, 67, 0
3, 23952, Note_on_c, 0, 65, 72
3, 24000, Note_on_c, 0, 65, 0
3, 24048, Note_on_c, 0, 65, 72
3, 24096, Note_on_c, 0, 65, 0
3, 24096, Note_on_c, 0, 67, 72
3, 24144, Note_on_c, 0, 67, 0
3, 24144, Note_on_c, 0, 65, 72
3, 24192, Note_on_c, 0, 65, 0
3, 24192, Note_on_c, 0, 67, 72
3, 24240, Note_on_c, 0, 67, 0
3, 24240, Note_on_c, 0, 69, 72
3, 24288, Note_on_c, 0, 69, 0
3, 24288, Note_on_c, 0, 70, 72
3, 24336, Note_on_c, 0, 70, 0
3, 24336, Note_on_c, 0, 65, 72
3, 24384, Note_on_c, 0, 65, 0
3, 24384, Note_on_c, 0, 70, 72
3, 24432, Note_on_c, 0, 70, 0
3, 24432, Note_on_c, 0, 74, 72
3, 24480, Note_on_c, 0, 74, 0
3, 24480, Note_on_c, 0, 72, 72
3, 24528, Note_on_c, 0, 72, 0
3, 24528, Note_on_c, 0, 71, 72
3, 24576, Note_on_c, 0, 71, 0
3, 24576, Note_on_c, 0, 72, 72
3, 24624, Note_on_c, 0, 72, 0
3, 24624, Note_on_c, 0, 74, 72
3, 24672, Note_on_c, 0, 74, 0
3, 24672, Note_on_c, 0, 71, 72
3, 24720, Note_on_c, 0, 71, 0
3, 24720, Note_on_c, 0, 74, 72
3, 24768, Note_on_c, 0, 74, 0
3, 24768, Note_on_c, 0, 67, 72
3, 24864, Note_on_c, 0, 67, 0
3, 24864, Note_on_c, 0, 66, 72
3, 24960, Note_on_c, 0, 66, 0
3, 24960, Note_on_c, 0, 65, 72
3, 25056, Note_on_c, 0, 65, 0
3, 25056, Note_on_c, 0, 64, 72
3, 25152, Note_on_c, 0, 64, 0
3, 25200, Note_on_c, 0, 68, 72
3, 25248, Note_on_c, 0, 68, 0
3, 25248, Note_on_c, 0, 69, 72
3, 25296, Note_on_c, 0, 69, 0
3, 25296, Note_on_c, 0, 68, 72
3, 25344, Note_on_c, 0, 68, 0
3, 25344, Note_on_c, 0, 69, 72
3, 25392, Note_on_c, 0, 69, 0
3, 25392, Note_on_c, 0, 71, 72
3, 25440, Note_on_c, 0, 71, 0
3, 25440, Note_on_c, 0, 64, 72
3, 25584, Note_on_c, 0, 64, 0
3, 25584, Note_on_c, 0, 62, 72
3, 25632, Note_on_c, 0, 62, 0
3, 25632, Note_on_c, 0, 61, 72
3, 25728, Note_on_c, 0, 61, 0
3, 25728, Note_on_c, 0, 60, 72
3, 25824, Note_on_c, 0, 60, 0
3, 25824, Note_on_c, 0, 59, 72
3, 25872, Note_on_c, 0, 59, 0
3, 25872, Note_on_c, 0, 71, 72
3, 25920, Note_on_c, 0, 71, 0
3, 25920, Note_on_c, 0, 69, 72
3, 25968, Note_on_c, 0, 69, 0
3, 25968, Note_on_c, 0, 68, 72
3, 26016, Note_on_c, 0, 68, 0
3, 26016, Note_on_c, 0, 69, 72
3, 26064, Note_on_c, 0, 69, 0
3, 26064, Note_on_c, 0, 72, 72
3, 26112, Note_on_c, 0, 72, 0
3, 26112, Note_on_c, 0, 71, 72
3, 26160, Note_on_c, 0, 71, 0
3, 26160, Note_on_c, 0, 69, 72
3, 26208, Note_on_c, 0, 69, 0
3, 26208, Note_on_c, 0, 68, 72
3, 26304, Note_on_c, 0, 68, 0
3, 26304, Note_on_c, 0, 67, 88
3, 26400, Note_on_c, 0, 67, 0
3, 26400, Note_on_c, 0, 66, 88
3, 26496, Note_on_c, 0, 66, 0
3, 26496, Note_on_c, 0, 65, 88
3, 26592, Note_on_c, 0, 65, 0
3, 26592, Note_on_c, 0, 64, 88
3, 26688, Note_on_c, 0, 64, 0
3, 26688, Note_on_c, 0, 65, 88
3, 26784, Note_on_c, 0, 65, 0
3, 26784, Note_on_c, 0, 64, 88
3, 26976, Note_on_c, 0, 64, 0
3, 26976, Note_on_c, 0, 64, 88
3, 27072, Note_on_c, 0, 64, 0
3, 27264, Program_c, 0, 13
3, 27264, Note_on_c, 0, 65, 72
3, 27360, Note_on_c, 0, 65, 0
3, 27360, Note_on_c, 0, 65, 72
3, 27456, Note_on_c, 0, 65, 0
3, 27456, Note_on_c, 0, 64, 72
3, 27552, Note_on_c, 0, 64, 0
3, 27648, Note_on_c, 0, 67, 72
3, 27744, Note_on_c, 0, 67, 0
3, 27744, Note_on_c, 0, 67, 72
3, 27840, Note_on_c, 0, 67, 0
3, 27840, Note_on_c, 0, 65, 72
3, 27936, Note_on_c, 0, 65, 0
3, 28032, Note_on_c, 0, 68, 72
3, 28128, Note_on_c, 0, 68, 0
3, 28128, Note_on_c, 0, 68, 72
3, 28224, Note_on_c, 0, 68, 0
3, 28224, Note_on_c, 0, 69, 72
3, 28320, Note_on_c, 0, 69, 0
3, 28416, Note_on_c, 0, 69, 72
3, 28512, Note_on_c, 0, 69, 0
3, 28512, Note_on_c, 0, 68, 72
3, 28608, Note_on_c, 0, 68, 0
3, 28608, Note_on_c, 0, 69, 72
3, 28800, Note_on_c, 0, 69, 0
3, 28800, Note_on_c, 0, 67, 72
3, 28896, Note_on_c, 0, 67, 0
3, 28896, Note_on_c, 0, 65, 72
3, 28944, Note_on_c, 0, 65, 0
3, 28944, Note_on_c, 0, 64, 72
3, 28992, Note_on_c, 0, 64, 0
3, 28992, Note_on_c, 0, 62, 72
3, 29184, Note_on_c, 0, 62, 0
3, 29184, Note_on_c, 0, 67, 72
3, 29280, Note_on_c, 0, 67, 0
3, 29280, Note_on_c, 0, 65, 72
3, 29328, Note_on_c, 0, 65, 0
3, 29328, Note_on_c, 0, 69, 72
3, 29376, Note_on_c, 0, 69, 0
3, 29376, Note_on_c, 0, 70, 72
3, 29424, Note_on_c, 0, 70, 0
3, 29424, Note_on_c, 0, 74, 72
3, 29472, Note_on_c, 0, 74, 0
3, 29472, Note_on_c, 0, 73, 72
3, 29568, Note_on_c, 0, 73, 0
3, 29568, Note_on_c, 0, 72, 72
3, 29664, Note_on_c, 0, 72, 0
3, 29664, Note_on_c, 0, 71, 72
3, 29712, Note_on_c, 0, 71, 0
3, 29712, Note_on_c, 0, 73, 72
3, 29760, Note_on_c, 0, 73, 0
3, 29760, Note_on_c, 0, 74, 72
3, 29856, Note_on_c, 0, 74, 0
3, 29856, Note_on_c, 0, 72, 72
3, 29952, Note_on_c, 0, 72, 0
3, 29952, Note_on_c, 0, 70, 72
3, 30048, Note_on_c, 0, 70, 0
3, 30048, Note_on_c, 0, 69, 72
3, 30144, Note_on_c, 0, 69, 0
3, 30528, Note_on_c, 0, 71, 72
3, 30624, Note_on_c, 0, 71, 0
3, 30624, Note_on_c, 0, 72, 72
3, 30672, Note_on_c, 0, 72, 0
3, 30672, Note_on_c, 0, 74, 72
3, 30696, Note_on_c, 0, 74, 0
3, 30696, Note_on_c, 0, 75, 72
3, 30720, Note_on_c, 0, 75, 0
3, 30720, Note_on_c, 0, 74, 72
3, 30816, Note_on_c, 0, 74, 0
3, 30816, Note_on_c, 0, 74, 72
3, 30864, Note_on_c, 0, 74, 0
3, 30864, Note_on_c, 0, 72, 72
3, 30888, Note_on_c, 0, 72, 0
3, 30888, Note_on_c, 0, 70, 72
3, 30912, Note_on_c, 0, 70, 0
3, 30912, Note_on_c, 0, 69, 72
3, 30960, Note_on_c, 0, 69, 0
3, 30960, Note_on_c, 0, 67, 72
3, 31008, Note_on_c, 0, 67, 0
3, 31008, Note_on_c, 0, 66, 72
3, 31104, Note_on_c, 0, 66, 0
3, 31104, Note_on_c, 0, 67, 72
3, 31200, Note_on_c, 0, 67, 0
3, 31200, Note_on_c, 0, 66, 72
3, 31248, Note_on_c, 0, 66, 0
3, 31248, Note_on_c, 0, 69, 72
3, 31344, Note_on_c, 0, 69, 0
3, 31344, Note_on_c, 0, 67, 72
3, 31440, Note_on_c, 0, 67, 0
3, 31440, Note_on_c, 0, 70, 72
3, 31536, Note_on_c, 0, 70, 0
3, 31536, Note_on_c, 0, 69, 72
3, 31584, Note_on_c, 0, 69, 0
3, 31584, Note_on_c, 0, 70, 72
3, 31632, Note_on_c, 0, 70, 0
3, 31632, Note_on_c, 0, 69, 72
3, 31728, Note_on_c, 0, 69, 0
3, 31728, Note_on_c, 0, 70, 72
3, 31776, Note_on_c, 0, 70, 0
3, 31776, Note_on_c, 0, 69, 72
3, 31824, Note_on_c, 0, 69, 0
3, 31824, Note_on_c, 0, 67, 72
3, 31872, Note_on_c, 0, 67, 0
3, 31872, Note_on_c, 0, 65, 72
3, 31920, Note_on_c, 0, 65, 0
3, 31920, Note_on_c, 0, 64, 72
3, 31968, Note_on_c, 0, 64, 0
3, 31968, Note_on_c, 0, 65, 72
3, 32064, Note_on_c, 0, 65, 0
3, 32064, Note_on_c, 0, 69, 88
3, 32160, Note_on_c, 0, 69, 0
3, 32160, Note_on_c, 0, 62, 88
3, 32256, Note_on_c, 0, 62, 0
3, 32256, Note_on_c, 0, 64, 88
3, 32352, Note_on_c, 0, 64, 0
3, 32448, Note_on_c, 0, 65, 88
3, 32544, Note_on_c, 0, 65, 0
3, 32544, Note_on_c, 0, 67, 88
3, 32640, Note_on_c, 0, 67, 0
3, 32640, Note_on_c, 0, 69, 88
3, 32736, Note_on_c, 0, 69, 0
3, 32832, Note_on_c, 0, 70, 88
3, 32928, Note_on_c, 0, 70, 0
3, 32928, Note_on_c, 0, 69, 88
3, 33024, Note_on_c, 0, 69, 0
3, 33024, Note_on_c, 0, 67, 88
3, 33120, Note_on_c, 0, 67, 0
3, 33216, Note_on_c, 0, 65, 88
3, 33264, Note_on_c, 0, 65, 0
3, 33264, Note_on_c, 0, 64, 88
3, 33312, Note_on_c, 0, 64, 0
3, 33312, Note_on_c, 0, 65, 88
3, 33408, Note_on_c, 0, 65, 0
3, 33408, Note_on_c, 0, 67, 88
3, 33504, Note_on_c, 0, 67, 0
3, 33504, Note_on_c, 0, 69, 88
3, 33552, Note_on_c, 0, 69, 0
3, 33552, Note_on_c, 0, 70, 88
3, 33600, Note_on_c, 0, 70, 0
3, 33600, Note_on_c, 0, 72, 88
3, 33792, Note_on_c, 0, 72, 0
3, 33792, Note_on_c, 0, 70, 88
3, 33888, Note_on_c, 0, 70, 0
3, 33888, Note_on_c, 0, 70, 88
3, 33984, Note_on_c, 0, 70, 0
3, 33984, Note_on_c, 0, 69, 88
3, 34080, Note_on_c, 0, 69, 0
3, 34560, Note_on_c, 0, 58, 88
3, 34656, Note_on_c, 0, 58, 0
3, 34656, Note_on_c, 0, 58, 88
3, 34704, Note_on_c, 0, 58, 0
3, 34704, Note_on_c, 0, 57, 88
3, 34752, Note_on_c, 0, 57, 0
3, 34752, Note_on_c, 0, 60, 88
3, 34800, Note_on_c, 0, 60, 0
3, 34800, Note_on_c, 0, 60, 88
3, 34848, Note_on_c, 0, 60, 0
3, 34848, Note_on_c, 0, 60, 88
3, 34896, Note_on_c, 0, 60, 0
3, 34896, Note_on_c, 0, 59, 88
3, 34944, Note_on_c, 0, 59, 0
3, 34944, Note_on_c, 0, 62, 88
3, 34992, Note_on_c, 0, 62, 0
3, 34992, Note_on_c, 0, 62, 88
3, 35040, Note_on_c, 0, 62, 0
3, 35040, Note_on_c, 0, 62, 88
3, 35088, Note_on_c, 0, 62, 0
3, 35088, Note_on_c, 0, 61, 88
3, 35136, Note_on_c, 0, 61, 0
3, 35136, Note_on_c, 0, 62, 88
3, 35184, Note_on_c, 0, 62, 0
3, 35184, Note_on_c, 0, 64, 88
3, 35232, Note_on_c, 0, 64, 0
3, 35232, Note_on_c, 0, 65, 88
3, 35280, Note_on_c, 0, 65, 0
3, 35280, Note_on_c, 0, 64, 88
3, 35328, Note_on_c, 0, 64, 0
3, 35328, Note_on_c, 0, 65, 88
3, 35376, Note_on_c, 0, 65, 0
3, 35376, Note_on_c, 0, 67, 88
3, 35424, Note_on_c, 0, 67, 0
3, 35424, Note_on_c, 0, 64, 88
3, 35472, Note_on_c, 0, 64, 0
3, 35472, Note_on_c, 0, 67, 88
3, 35520, Note_on_c, 0, 67, 0
3, 35520, Note_on_c, 0, 65, 88
3, 35568, Note_on_c, 0, 65, 0
3, 35568, Note_on_c, 0, 64, 88
3, 35616, Note_on_c, 0, 64, 0
3, 35616, Note_on_c, 0, 62, 88
3, 35712, Note_on_c, 0, 62, 0
3, 35712, Note_on_c, 0, 64, 88
3, 35808, Note_on_c, 0, 64, 0
3, 35808, Note_on_c, 0, 65, 88
3, 35904, Note_on_c, 0, 65, 0
3, 35904, Note_on_c, 0, 60, 88
3, 36000, Note_on_c, 0, 60, 0
3, 36000, Note_on_c, 0, 67, 88
3, 36096, Note_on_c, 0, 67, 0
3, 36096, Note_on_c, 0, 68, 88
3, 36192, Note_on_c, 0, 68, 0
3, 36192, Note_on_c, 0, 69, 88
3, 36288, Note_on_c, 0, 69, 0
3, 36288, Note_on_c, 0, 64, 88
3, 36384, Note_on_c, 0, 64, 0
3, 36384, Note_on_c, 0, 71, 88
3, 36576, Note_on_c, 0, 71, 0
3, 36576, Note_on_c, 0, 72, 88
3, 36672, Note_on_c, 0, 72, 0
3, 36672, Note_on_c, 0, 71, 88
3, 36768, Note_on_c, 0, 71, 0
3, 36768, Note_on_c, 0, 69, 88
3, 36816, Note_on_c, 0, 69, 0
3, 36816, Note_on_c, 0, 71, 88
3, 36864, Note_on_c, 0, 71, 0
3, 36864, Note_on_c, 0, 69, 88
3, 36960, Note_on_c, 0, 69, 0
3, 36960, Note_on_c, 0, 76, 88
3, 37152, Note_on_c, 0, 76, 0
3, 37248, Note_on_c, 0, 74, 88
3, 37344, Note_on_c, 0, 74, 0
3, 37344, Note_on_c, 0, 74, 88
3, 37392, Note_on_c, 0, 74, 0
3, 37392, Note_on_c, 0, 71, 88
3, 37440, Note_on_c, 0, 71, 0
3, 37440, Note_on_c, 0, 72, 88
3, 37488, Note_on_c, 0, 72, 0
3, 37488, Note_on_c, 0, 72, 88
3, 37536, Note_on_c, 0, 72, 0
3, 37536, Note_on_c, 0, 72, 88
3, 37584, Note_on_c, 0, 72, 0
3, 37584, Note_on_c, 0, 69, 88
3, 37632, Note_on_c, 0, 69, 0
3, 37632, Note_on_c, 0, 71, 88
3, 37680, Note_on_c, 0, 71, 0
3, 37680, Note_on_c, 0, 71, 88
3, 37728, Note_on_c, 0, 71, 0
3, 37728, Note_on_c, 0, 71, 88
3, 37776, Note_on_c, 0, 71, 0
3, 37776, Note_on_c, 0, 68, 88
3, 37824, Note_on_c, 0, 68, 0
3, 37824, Note_on_c, 0, 69, 88
3, 37872, Note_on_c, 0, 69, 0
3, 37872, Note_on_c, 0, 72, 88
3, 37920, Note_on_c, 0, 72, 0
3, 37920, Note_on_c, 0, 66, 88
3, 38016, Note_on_c, 0, 66, 0
3, 38016, Note_on_c, 0, 65, 88
3, 38112, Note_on_c, 0, 65, 0
3, 38112, Note_on_c, 0, 64, 88
3, 38304, Note_on_c, 0, 64, 0
3, 38304, Note_on_c, 0, 66, 88
3, 38400, Note_on_c, 0, 66, 0
3, 38400, Note_on_c, 0, 70, 88
3, 38496, Note_on_c, 0, 70, 0
3, 38496, Note_on_c, 0, 69, 88
3, 38592, Note_on_c, 0, 69, 0
3, 38592, Note_on_c, 0, 62, 88
3, 38688, Note_on_c, 0, 62, 0
3, 38688, Note_on_c, 0, 69, 88
3, 38784, Note_on_c, 0, 69, 0
3, 38784, Note_on_c, 0, 67, 88
3, 38880, Note_on_c, 0, 67, 0
3, 38976, Note_on_c, 0, 65, 88
3, 39072, Note_on_c, 0, 65, 0
3, 39072, Note_on_c, 0, 64, 88
3, 39168, Note_on_c, 0, 64, 0
3, 39168, Note_on_c, 0, 62, 88
3, 39264, Note_on_c, 0, 62, 0
3, 39360, Note_on_c, 0, 61, 88
3, 39456, Note_on_c, 0, 61, 0
3, 39456, Note_on_c, 0, 62, 88
3, 39552, Note_on_c, 0, 62, 0
3, 39552, Note_on_c, 0, 64, 88
3, 39648, Note_on_c, 0, 64, 0
3, 39744, Note_on_c, 0, 65, 88
3, 39792, Note_on_c, 0, 65, 0
3, 39792, Note_on_c, 0, 67, 88
3, 39840, Note_on_c, 0, 67, 0
3, 39840, Note_on_c, 0, 65, 88
3, 39936, Note_on_c, 0, 65, 0
3, 39936, Note_on_c, 0, 64, 88
3, 40032, Note_on_c, 0, 64, 0
3, 40032, Note_on_c, 0, 62, 88
3, 40128, Note_on_c, 0, 62, 0
3, 40128, Note_on_c, 0, 69, 72
3, 40272, Note_on_c, 0, 69, 0
3, 40272, Note_on_c, 0, 66, 72
3, 40320, Note_on_c, 0, 66, 0
3, 40320, Note_on_c, 0, 67, 72
3, 40368, Note_on_c, 0, 67, 0
3, 40368, Note_on_c, 0, 67, 72
3, 40416, Note_on_c, 0, 67, 0
3, 40416, Note_on_c, 0, 67, 72
3, 40464, Note_on_c, 0, 67, 0
3, 40464, Note_on_c, 0, 64, 72
3, 40512, Note_on_c, 0, 64, 0
3, 40512, Note_on_c, 0, 65, 72
3, 40560, Note_on_c, 0, 65, 0
3, 40560, Note_on_c, 0, 65, 72
3, 40608, Note_on_c, 0, 65, 0
3, 40608, Note_on_c, 0, 65, 72
3, 40656, Note_on_c, 0, 65, 0
3, 40656, Note_on_c, 0, 62, 72
3, 40704, Note_on_c, 0, 62, 0
3, 40704, Note_on_c, 0, 64, 72
3, 40752, Note_on_c, 0, 64, 0
3, 40752, Note_on_c, 0, 64, 72
3, 40800, Note_on_c, 0, 64, 0
3, 40800, Note_on_c, 0, 64, 72
3, 40848, Note_on_c, 0, 64, 0
3, 40848, Note_on_c, 0, 61, 72
3, 40896, Note_on_c, 0, 61, 0
3, 40896, Note_on_c, 0, 62, 72
3, 40992, Note_on_c, 0, 62, 0
3, 41088, Note_on_c, 0, 60, 72
3, 41184, Note_on_c, 0, 60, 0
3, 41184, Note_on_c, 0, 65, 72
3, 41280, Note_on_c, 0, 65, 0
3, 41280, Note_on_c, 0, 64, 72
3, 41376, Note_on_c, 0, 64, 0
3, 41376, Note_on_c, 0, 63, 72
3, 41472, Note_on_c, 0, 63, 0
3, 41520, Note_on_c, 0, 72, 72
3, 41568, Note_on_c, 0, 72, 0
3, 41568, Note_on_c, 0, 72, 72
3, 41616, Note_on_c, 0, 72, 0
3, 41616, Note_on_c, 0, 69, 72
3, 41664, Note_on_c, 0, 69, 0
3, 41664, Note_on_c, 0, 70, 72
3, 41712, Note_on_c, 0, 70, 0
3, 41712, Note_on_c, 0, 70, 72
3, 41760, Note_on_c, 0, 70, 0
3, 41760, Note_on_c, 0, 70, 72
3, 41808, Note_on_c, 0, 70, 0
3, 41808, Note_on_c, 0, 67, 72
3, 41856, Note_on_c, 0, 67, 0
3, 41856, Note_on_c, 0, 68, 72
3, 41904, Note_on_c, 0, 68, 0
3, 41904, Note_on_c, 0, 68, 72
3, 41952, Note_on_c, 0, 68, 0
3, 41952, Note_on_c, 0, 67, 72
3, 42096, Note_on_c, 0, 67, 0
3, 42096, Note_on_c, 0, 69, 72
3, 42144, Note_on_c, 0, 69, 0
3, 42144, Note_on_c, 0, 66, 72
3, 42288, Note_on_c, 0, 66, 0
3, 42288, Note_on_c, 0, 67, 72
3, 42336, Note_on_c, 0, 67, 0
3, 42336, Note_on_c, 0, 60, 72
3, 42432, Note_on_c, 0, 60, 0
3, 42432, Note_on_c, 0, 72, 72
3, 42576, Note_on_c, 0, 72, 0
3, 42576, Note_on_c, 0, 69, 72
3, 42624, Note_on_c, 0, 69, 0
3, 42624, Note_on_c, 0, 70, 72
3, 42672, Note_on_c, 0, 70, 0
3, 42672, Note_on_c, 0, 70, 72
3, 42720, Note_on_c, 0, 70, 0
3, 42720, Note_on_c, 0, 69, 72
3, 42912, Note_on_c, 0, 69, 0
3, 42912, Note_on_c, 0, 67, 72
3, 43104, Note_on_c, 0, 67, 0
3, 43104, Note_on_c, 0, 65, 88
3, 43296, Note_on_c, 0, 65, 0
3, 43296, Note_on_c, 0, 65, 88
3, 43344, Note_on_c, 0, 65, 0
3, 43344, Note_on_c, 0, 67, 88
3, 43392, Note_on_c, 0, 67, 0
3, 43392, Note_on_c, 0, 65, 88
3, 43440, Note_on_c, 0, 65, 0
3, 43440, Note_on_c, 0, 63, 88
3, 43488, Note_on_c, 0, 63, 0
3, 43488, Note_on_c, 0, 63, 88
3, 43536, Note_on_c, 0, 63, 0
3, 43536, Note_on_c, 0, 62, 88
3, 43584, Note_on_c, 0, 62, 0
3, 43584, Note_on_c, 0, 65, 88
3, 43632, Note_on_c, 0, 65, 0
3, 43632, Note_on_c, 0, 65, 88
3, 43680, Note_on_c, 0, 65, 0
3, 43680, Note_on_c, 0, 65, 88
3, 43728, Note_on_c, 0, 65, 0
3, 43728, Note_on_c, 0, 63, 88
3, 43776, Note_on_c, 0, 63, 0
3, 43776, Note_on_c, 0, 67, 88
3, 43824, Note_on_c, 0, 67, 0
3, 43824, Note_on_c, 0, 67, 88
3, 43872, Note_on_c, 0, 67, 0
3, 43872, Note_on_c, 0, 67, 88
3, 43920, Note_on_c, 0, 67, 0
3, 43920, Note_on_c, 0, 66, 88
3, 43968, Note_on_c, 0, 66, 0
3, 43968, Note_on_c, 0, 69, 88
3, 44016, Note_on_c, 0, 69, 0
3, 44016, Note_on_c, 0, 69, 88
3, 44064, Note_on_c, 0, 69, 0
3, 44064, Note_on_c, 0, 69, 88
3, 44112, Note_on_c, 0, 69, 0
3, 44112, Note_on_c, 0, 67, 88
3, 44160, Note_on_c, 0, 67, 0
3, 44160, Note_on_c, 0, 71, 88
3, 44208, Note_on_c, 0, 71, 0
3, 44208, Note_on_c, 0, 71, 88
3, 44256, Note_on_c, 0, 71, 0
3, 44256, Note_on_c, 0, 69, 88
3, 44352, Note_on_c, 0, 69, 0
3, 44352, Note_on_c, 0, 71, 88
3, 44400, Note_on_c, 0, 71, 0
3, 44400, Note_on_c, 0, 73, 88
3, 44448, Note_on_c, 0, 73, 0
3, 44448, Note_on_c, 0, 74, 88
3, 44544, Note_on_c, 0, 74, 0
3, 44928, Note_on_c, 0, 74, 88
3, 45024, Note_on_c, 0, 74, 0
3, 45024, Note_on_c, 0, 74, 88
3, 45072, Note_on_c, 0, 74, 0
3, 45072, Note_on_c, 0, 71, 88
3, 45120, Note_on_c, 0, 71, 0
3, 45120, Note_on_c, 0, 72, 88
3, 45168, Note_on_c, 0, 72, 0
3, 45168, Note_on_c, 0, 72, 88
3, 45216, Note_on_c, 0, 72, 0
3, 45216, Note_on_c, 0, 72, 88
3, 45264, Note_on_c, 0, 72, 0
3, 45264, Note_on_c, 0, 69, 88
3, 45312, Note_on_c, 0, 69, 0
3, 45312, Note_on_c, 0, 71, 88
3, 45360, Note_on_c, 0, 71, 0
3, 45360, Note_on_c, 0, 71, 88
3, 45408, Note_on_c, 0, 71, 0
3, 45408, Note_on_c, 0, 71, 88
3, 45456, Note_on_c, 0, 71, 0
3, 45456, Note_on_c, 0, 68, 88
3, 45504, Note_on_c, 0, 68, 0
3, 45504, Note_on_c, 0, 69, 88
3, 45552, Note_on_c, 0, 69, 0
3, 45552, Note_on_c, 0, 69, 88
3, 45600, Note_on_c, 0, 69, 0
3, 45600, Note_on_c, 0, 69, 88
3, 45648, Note_on_c, 0, 69, 0
3, 45648, Note_on_c, 0, 66, 88
3, 45696, Note_on_c, 0, 66, 0
3, 45696, Note_on_c, 0, 68, 88
3, 45744, Note_on_c, 0, 68, 0
3, 45744, Note_on_c, 0, 68, 88
3, 45792, Note_on_c, 0, 68, 0
3, 45792, Note_on_c, 0, 68, 88
3, 45840, Note_on_c, 0, 68, 0
3, 45840, Note_on_c, 0, 69, 88
3, 45864, Note_on_c, 0, 69, 0
3, 45864, Note_on_c, 0, 67, 88
3, 45888, Note_on_c, 0, 67, 0
3, 45888, Note_on_c, 0, 66, 88
3, 45936, Note_on_c, 0, 66, 0
3, 45936, Note_on_c, 0, 64, 88
3, 45984, Note_on_c, 0, 64, 0
3, 45984, Note_on_c, 0, 66, 88
3, 46176, Note_on_c, 0, 66, 0
3, 46176, Note_on_c, 0, 66, 88
3, 46224, Note_on_c, 0, 66, 0
3, 46224, Note_on_c, 0, 64, 88
3, 46272, Note_on_c, 0, 64, 0
3, 46272, Note_on_c, 0, 68, 88
3, 46320, Note_on_c, 0, 68, 0
3, 46320, Note_on_c, 0, 68, 88
3, 46368, Note_on_c, 0, 68, 0
3, 46368, Note_on_c, 0, 68, 88
3, 46416, Note_on_c, 0, 68, 0
3, 46416, Note_on_c, 0, 66, 88
3, 46464, Note_on_c, 0, 66, 0
3, 46464, Note_on_c, 0, 69, 88
3, 46512, Note_on_c, 0, 69, 0
3, 46512, Note_on_c, 0, 69, 88
3, 46560, Note_on_c, 0, 69, 0
3, 46560, Note_on_c, 0, 69, 88
3, 46608, Note_on_c, 0, 69, 0
3, 46608, Note_on_c, 0, 68, 88
3, 46656, Note_on_c, 0, 68, 0
3, 46656, Note_on_c, 0, 71, 88
3, 46704, Note_on_c, 0, 71, 0
3, 46704, Note_on_c, 0, 71, 88
3, 46752, Note_on_c, 0, 71, 0
3, 46752, Note_on_c, 0, 71, 88
3, 46800, Note_on_c, 0, 71, 0
3, 46800, Note_on_c, 0, 69, 88
3, 46848, Note_on_c, 0, 69, 0
3, 46848, Note_on_c, 0, 72, 88
3, 46896, Note_on_c, 0, 72, 0
3, 46896, Note_on_c, 0, 72, 88
3, 46944, Note_on_c, 0, 72, 0
3, 46944, Note_on_c, 0, 72, 88
3, 46992, Note_on_c, 0, 72, 0
3, 46992, Note_on_c, 0, 71, 88
3, 47040, Note_on_c, 0, 71, 0
3, 47040, Note_on_c, 0, 74, 88
3, 47088, Note_on_c, 0, 74, 0
3, 47088, Note_on_c, 0, 74, 88
3, 47136, Note_on_c, 0, 74, 0
3, 47136, Note_on_c, 0, 74, 88
3, 47184, Note_on_c, 0, 74, 0
3, 47184, Note_on_c, 0, 73, 88
3, 47232, Note_on_c, 0, 73, 0
3, 47232, Note_on_c, 0, 76, 88
3, 47280, Note_on_c, 0, 76, 0
3, 47280, Note_on_c, 0, 76, 88
3, 47328, Note_on_c, 0, 76, 0
3, 47328, Note_on_c, 0, 76, 88
3, 47376, Note_on_c, 0, 76, 0
3, 47376, Note_on_c, 0, 74, 88
3, 47424, Note_on_c, 0, 74, 0
3, 47424, Note_on_c, 0, 75, 88
3, 47472, Note_on_c, 0, 75, 0
3, 47472, Note_on_c, 0, 75, 88
3, 47520, Note_on_c, 0, 75, 0
3, 47520, Note_on_c, 0, 75, 88
3, 47568, Note_on_c, 0, 75, 0
3, 47568, Note_on_c, 0, 74, 72
3, 47616, Note_on_c, 0, 74, 0
3, 47616, Note_on_c, 0, 74, 72
3, 47664, Note_on_c, 0, 74, 0
3, 47664, Note_on_c, 0, 74, 72
3, 47712, Note_on_c, 0, 74, 0
3, 47712, Note_on_c, 0, 74, 72
3, 47760, Note_on_c, 0, 74, 0
3, 47760, Note_on_c, 0, 72, 72
3, 47808, Note_on_c, 0, 72, 0
3, 47808, Note_on_c, 0, 67, 72
3, 47856, Note_on_c, 0, 67, 0
3, 47856, Note_on_c, 0, 67, 72
3, 47904, Note_on_c, 0, 67, 0
3, 47904, Note_on_c, 0, 65, 72
3, 48000, Note_on_c, 0, 65, 0
3, 48000, Note_on_c, 0, 74, 72
3, 48048, Note_on_c, 0, 74, 0
3, 48048, Note_on_c, 0, 74, 72
3, 48096, Note_on_c, 0, 74, 0
3, 48096, Note_on_c, 0, 70, 72
3, 48144, Note_on_c, 0, 70, 0
3, 48144, Note_on_c, 0, 67, 72
3, 48192, Note_on_c, 0, 67, 0
3, 48192, Note_on_c, 0, 69, 72
3, 48288, Note_on_c, 0, 69, 0
3, 48288, Note_on_c, 0, 68, 72
3, 48384, Note_on_c, 0, 68, 0
3, 48384, Note_on_c, 0, 69, 72
3, 48432, Note_on_c, 0, 69, 0
3, 48432, Note_on_c, 0, 67, 72
3, 48480, Note_on_c, 0, 67, 0
3, 48480, Note_on_c, 0, 66, 72
3, 48576, Note_on_c, 0, 66, 0
3, 48576, Note_on_c, 0, 68, 72
3, 48720, Note_on_c, 0, 68, 0
3, 48720, Note_on_c, 0, 71, 72
3, 48768, Note_on_c, 0, 71, 0
3, 48768, Note_on_c, 0, 69, 72
3, 48816, Note_on_c, 0, 69, 0
3, 48816, Note_on_c, 0, 72, 72
3, 48864, Note_on_c, 0, 72, 0
3, 48864, Note_on_c, 0, 71, 72
3, 48960, Note_on_c, 0, 71, 0
3, 48960, Note_on_c, 0, 69, 72
3, 49152, Note_on_c, 0, 69, 0
3, 49152, Note_on_c, 0, 68, 72
3, 49248, Note_on_c, 0, 68, 0
3, 49248, Note_on_c, 0, 69, 72
3, 49344, Note_on_c, 0, 69, 0
3, 49344, Note_on_c, 0, 67, 72
3, 49440, Note_on_c, 0, 67, 0
3, 49440, Note_on_c, 0, 66, 72
3, 49536, Note_on_c, 0, 66, 0
3, 49536, Note_on_c, 0, 65, 72
3, 49632, Note_on_c, 0, 65, 0
3, 49632, Note_on_c, 0, 64, 72
3, 49776, Note_on_c, 0, 64, 0
3, 49776, Note_on_c, 0, 64, 72
3, 49824, Note_on_c, 0, 64, 0
3, 49824, Note_on_c, 0, 65, 72
3, 49872, Note_on_c, 0, 65, 0
3, 49872, Note_on_c, 0, 69, 72
3, 49920, Note_on_c, 0, 69, 0
3, 49920, Note_on_c, 0, 64, 72
3, 49968, Note_on_c, 0, 64, 0
3, 49968, Note_on_c, 0, 64, 72
3, 50016, Note_on_c, 0, 64, 0
3, 50016, Note_on_c, 0, 64, 72
3, 50064, Note_on_c, 0, 64, 0
3, 50064, Note_on_c, 0, 67, 72
3, 50112, Note_on_c, 0, 67, 0
3, 50112, Note_on_c, 0, 65, 72
3, 50160, Note_on_c, 0, 65, 0
3, 50160, Note_on_c, 0, 65, 72
3, 50208, Note_on_c, 0, 65, 0
3, 50208, Note_on_c, 0, 65, 72
3, 50256, Note_on_c, 0, 65, 0
3, 50256, Note_on_c, 0, 69, 72
3, 50304, Note_on_c, 0, 69, 0
3, 50304, Note_on_c, 0, 67, 72
3, 50352, Note_on_c, 0, 67, 0
3, 50352, Note_on_c, 0, 67, 72
3, 50400, Note_on_c, 0, 67, 0
3, 50400, Note_on_c, 0, 67, 72
3, 50448, Note_on_c, 0, 67, 0
3, 50448, Note_on_c, 0, 70, 72
3, 50496, Note_on_c, 0, 70, 0
3, 50496, Note_on_c, 0, 69, 72
3, 50544, Note_on_c, 0, 69, 0
3, 50544, Note_on_c, 0, 74, 72
3, 50592, Note_on_c, 0, 74, 0
3, 50592, Note_on_c, 0, 74, 72
3, 50640, Note_on_c, 0, 74, 0
3, 50640, Note_on_c, 0, 71, 72
3, 50688, Note_on_c, 0, 71, 0
3, 50688, Note_on_c, 0, 73, 72
3, 50736, Note_on_c, 0, 73, 0
3, 50736, Note_on_c, 0, 73, 72
3, 50784, Note_on_c, 0, 73, 0
3, 50784, Note_on_c, 0, 73, 72
3, 50832, Note_on_c, 0, 73, 0
3, 50832, Note_on_c, 0, 64, 72
3, 50880, Note_on_c, 0, 64, 0
3, 50880, Note_on_c, 0, 65, 72
3, 50928, Note_on_c, 0, 65, 0
3, 50928, Note_on_c, 0, 65, 72
3, 50976, Note_on_c, 0, 65, 0
3, 50976, Note_on_c, 0, 70, 72
3, 51168, Note_on_c, 0, 70, 0
3, 51168, Note_on_c, 0, 70, 72
3, 51312, Note_on_c, 0, 70, 0
3, 51312, Note_on_c, 0, 70, 72
3, 51360, Note_on_c, 0, 70, 0
3, 51360, Note_on_c, 0, 69, 72
3, 51456, Note_on_c, 0, 69, 0
3, 51456, Note_on_c, 0, 67, 72
3, 51552, Note_on_c, 0, 67, 0
3, 51552, Note_on_c, 0, 67, 72
3, 51648, Note_on_c, 0, 67, 0
3, 51648, Note_on_c, 0, 65, 72
3, 51696, Note_on_c, 0, 65, 0
3, 51696, Note_on_c, 0, 62, 72
3, 51744, Note_on_c, 0, 62, 0
3, 51744, Note_on_c, 0, 67, 72
3, 51936, Note_on_c, 0, 67, 0
3, 51936, Note_on_c, 0, 67, 72
3, 52032, Note_on_c, 0, 67, 0
3, 52032, Note_on_c, 0, 65, 72
3, 52080, Note_on_c, 0, 65, 0
3, 52080, Note_on_c, 0, 67, 72
3, 52128, Note_on_c, 0, 67, 0
3, 52128, Note_on_c, 0, 65, 72
3, 52224, Note_on_c, 0, 65, 0
3, 52224, Note_on_c, 0, 63, 72
3, 52320, Note_on_c, 0, 63, 0
3, 52320, Note_on_c, 0, 63, 72
3, 52368, Note_on_c, 0, 63, 0
3, 52368, Note_on_c, 0, 62, 72
3, 52416, Note_on_c, 0, 62, 0
3, 52416, Note_on_c, 0, 65, 72
3, 52464, Note_on_c, 0, 65, 0
3, 52464, Note_on_c, 0, 65, 72
3, 52512, Note_on_c, 0, 65, 0
3, 52512, Note_on_c, 0, 65, 72
3, 52560, Note_on_c, 0, 65, 0
3, 52560, Note_on_c, 0, 64, 72
3, 52608, Note_on_c, 0, 64, 0
3, 52608, Note_on_c, 0, 67, 72
3, 52656, Note_on_c, 0, 67, 0
3, 52656, Note_on_c, 0, 67, 72
3, 52704, Note_on_c, 0, 67, 0
3, 52704, Note_on_c, 0, 67, 72
3, 52752, Note_on_c, 0, 67, 0
3, 52752, Note_on_c, 0, 66, 72
3, 52800, Note_on_c, 0, 66, 0
3, 52800, Note_on_c, 0, 69, 72
3, 52848, Note_on_c, 0, 69, 0
3, 52848, Note_on_c, 0, 69, 72
3, 52896, Note_on_c, 0, 69, 0
3, 52896, Note_on_c, 0, 69, 72
3, 52944, Note_on_c, 0, 69, 0
3, 52944, Note_on_c, 0, 68, 72
3, 52992, Note_on_c, 0, 68, 0
3, 52992, Note_on_c, 0, 71, 72
3, 53040, Note_on_c, 0, 71, 0
3, 53040, Note_on_c, 0, 71, 72
3, 53088, Note_on_c, 0, 71, 0
3, 53088, Note_on_c, 0, 71, 72
3, 53136, Note_on_c, 0, 71, 0
3, 53136, Note_on_c, 0, 69, 72
3, 53184, Note_on_c, 0, 69, 0
3, 53184, Note_on_c, 0, 71, 72
3, 53232, Note_on_c, 0, 71, 0
3, 53232, Note_on_c, 0, 73, 72
3, 53280, Note_on_c, 0, 73, 0
3, 53280, Note_on_c, 0, 74, 72
3, 53328, Note_on_c, 0, 74, 0
3, 53328, Note_on_c, 0, 73, 72
3, 53376, Note_on_c, 0, 73, 0
3, 53376, Note_on_c, 0, 74, 72
3, 53424, Note_on_c, 0, 74, 0
3, 53424, Note_on_c, 0, 76, 72
3, 53472, Note_on_c, 0, 76, 0
3, 53472, Note_on_c, 0, 73, 72
3, 53568, Note_on_c, 0, 73, 0
3, 53568, Note_on_c, 0, 72, 72
3, 53664, Note_on_c, 0, 72, 0
3, 53664, Note_on_c, 0, 71, 72
3, 53760, Note_on_c, 0, 71, 0
3, 53760, Note_on_c, 0, 70, 72
3, 53856, Note_on_c, 0, 70, 0
3, 53856, Note_on_c, 0, 69, 72
3, 53952, Note_on_c, 0, 69, 0
3, 53952, Note_on_c, 0, 70, 72
3, 54048, Note_on_c, 0, 70, 0
3, 54048, Note_on_c, 0, 71, 72
3, 54144, Note_on_c, 0, 71, 0
3, 54144, Note_on_c, 0, 72, 72
3, 54240, Note_on_c, 0, 72, 0
3, 54240, Note_on_c, 0, 73, 72
3, 54336, Note_on_c, 0, 73, 0
3, 54336, Note_on_c, 0, 74, 72
3, 54432, Note_on_c, 0, 74, 0
3, 54432, Note_on_c, 0, 75, 88
3, 54624, Note_on_c, 0, 75, 0
3, 54624, Note_on_c, 0, 75, 88
3, 54672, Note_on_c, 0, 75, 0
3, 54672, Note_on_c, 0, 73, 88
3, 54720, Note_on_c, 0, 73, 0
3, 54720, Note_on_c, 0, 74, 88
3, 54768, Note_on_c, 0, 74, 0
3, 54768, Note_on_c, 0, 74, 88
3, 54816, Note_on_c, 0, 74, 0
3, 54816, Note_on_c, 0, 74, 88
3, 54864, Note_on_c, 0, 74, 0
3, 54864, Note_on_c, 0, 71, 88
3, 54912, Note_on_c, 0, 71, 0
3, 54912, Note_on_c, 0, 72, 88
3, 54960, Note_on_c, 0, 72, 0
3, 54960, Note_on_c, 0, 72, 88
3, 55008, Note_on_c, 0, 72, 0
3, 55008, Note_on_c, 0, 71, 88
3, 55152, Note_on_c, 0, 71, 0
3, 55152, Note_on_c, 0, 70, 88
3, 55200, Note_on_c, 0, 70, 0
3, 55200, Note_on_c, 0, 69, 88
3, 55344, Note_on_c, 0, 69, 0
3, 55344, Note_on_c, 0, 68, 88
3, 55392, Note_on_c, 0, 68, 0
3, 55392, Note_on_c, 0, 67, 88
3, 55536, Note_on_c, 0, 67, 0
3, 55536, Note_on_c, 0, 65, 88
3, 55584, Note_on_c, 0, 65, 0
3, 55584, Note_on_c, 0, 63, 88
3, 55632, Note_on_c, 0, 63, 0
3, 55632, Note_on_c, 0, 62, 88
3, 55680, Note_on_c, 0, 62, 0
3, 55680, Note_on_c, 0, 65, 88
3, 55728, Note_on_c, 0, 65, 0
3, 55728, Note_on_c, 0, 65, 88
3, 55776, Note_on_c, 0, 65, 0
3, 55776, Note_on_c, 0, 65, 88
3, 55824, Note_on_c, 0, 65, 0
3, 55824, Note_on_c, 0, 64, 88
3, 55872, Note_on_c, 0, 64, 0
3, 55872, Note_on_c, 0, 67, 88
3, 55920, Note_on_c, 0, 67, 0
3, 55920, Note_on_c, 0, 67, 88
3, 55968, Note_on_c, 0, 67, 0
3, 55968, Note_on_c, 0, 67, 88
3, 56016, Note_on_c, 0, 67, 0
3, 56016, Note_on_c, 0, 66, 88
3, 56064, Note_on_c, 0, 66, 0
3, 56064, Note_on_c, 0, 69, 88
3, 56112, Note_on_c, 0, 69, 0
3, 56112, Note_on_c, 0, 69, 88
3, 56160, Note_on_c, 0, 69, 0
3, 56160, Note_on_c, 0, 69, 88
3, 56208, Note_on_c, 0, 69, 0
3, 56208, Note_on_c, 0, 68, 88
3, 56256, Note_on_c, 0, 68, 0
3, 56256, Note_on_c, 0, 71, 88
3, 56304, Note_on_c, 0, 71, 0
3, 56304, Note_on_c, 0, 71, 88
3, 56352, Note_on_c, 0, 71, 0
3, 56352, Note_on_c, 0, 71, 88
3, 56400, Note_on_c, 0, 71, 0
3, 56400, Note_on_c, 0, 69, 88
3, 56448, Note_on_c, 0, 69, 0
3, 56448, Note_on_c, 0, 72, 88
3, 56496, Note_on_c, 0, 72, 0
3, 56496, Note_on_c, 0, 72, 88
3, 56544, Note_on_c, 0, 72, 0
3, 56544, Note_on_c, 0, 72, 88
3, 56592, Note_on_c, 0, 72, 0
3, 56592, Note_on_c, 0, 71, 88
3, 56640, Note_on_c, 0, 71, 0
3, 56640, Note_on_c, 0, 69, 88
3, 56688, Note_on_c, 0, 69, 0
3, 56688, Note_on_c, 0, 71, 88
3, 56736, Note_on_c, 0, 71, 0
3, 56736, Note_on_c, 0, 67, 88
3, 56832, Note_on_c, 0, 67, 0
3, 56832, Note_on_c, 0, 72, 88
3, 56928, Note_on_c, 0, 72, 0
3, 56928, Note_on_c, 0, 71, 88
3, 57024, Note_on_c, 0, 71, 0
3, 57408, Note_on_c, 0, 69, 88
3, 57552, Note_on_c, 0, 69, 0
3, 57552, Note_on_c, 0, 66, 88
3, 57600, Note_on_c, 0, 66, 0
3, 57600, Note_on_c, 0, 67, 88
3, 57648, Note_on_c, 0, 67, 0
3, 57648, Note_on_c, 0, 67, 88
3, 57696, Note_on_c, 0, 67, 0
3, 57696, Note_on_c, 0, 66, 88
3, 57792, Note_on_c, 0, 66, 0
3, 57792, Note_on_c, 0, 65, 88
3, 57888, Note_on_c, 0, 65, 0
3, 57888, Note_on_c, 0, 64, 88
3, 57984, Note_on_c, 0, 64, 0
3, 58368, Note_on_c, 0, 69, 88
3, 58464, Note_on_c, 0, 69, 0
3, 58464, Note_on_c, 0, 69, 88
3, 58512, Note_on_c, 0, 69, 0
3, 58512, Note_on_c, 0, 65, 88
3, 58560, Note_on_c, 0, 65, 0
3, 58560, Note_on_c, 0, 67, 88
3, 58608, Note_on_c, 0, 67, 0
3, 58608, Note_on_c, 0, 67, 88
3, 58656, Note_on_c, 0, 67, 0
3, 58656, Note_on_c, 0, 67, 88
3, 58704, Note_on_c, 0, 67, 0
3, 58704, Note_on_c, 0, 64, 88
3, 58752, Note_on_c, 0, 64, 0
3, 58752, Note_on_c, 0, 65, 88
3, 58800, Note_on_c, 0, 65, 0
3, 58800, Note_on_c, 0, 65, 88
3, 58848, Note_on_c, 0, 65, 0
3, 58848, Note_on_c, 0, 65, 88
3, 58896, Note_on_c, 0, 65, 0
3, 58896, Note_on_c, 0, 62, 88
3, 58944, Note_on_c, 0, 62, 0
3, 58944, Note_on_c, 0, 64, 88
3, 58992, Note_on_c, 0, 64, 0
3, 58992, Note_on_c, 0, 64, 88
3, 59040, Note_on_c, 0, 64, 0
3, 59040, Note_on_c, 0, 64, 88
3, 59088, Note_on_c, 0, 64, 0
3, 59088, Note_on_c, 0, 61, 88
3, 59136, Note_on_c, 0, 61, 0
3, 59136, Note_on_c, 0, 62, 88
3, 59232, Note_on_c, 0, 62, 0
3, 59232, Note_on_c, 0, 62, 88
3, 59280, Note_on_c, 0, 62, 0
3, 59280, Note_on_c, 0, 59, 88
3, 59328, Note_on_c, 0, 59, 0
3, 59328, Note_on_c, 0, 60, 88
3, 59376, Note_on_c, 0, 60, 0
3, 59376, Note_on_c, 0, 64, 88
3, 59424, Note_on_c, 0, 64, 0
3, 59424, Note_on_c, 0, 64, 88
3, 59472, Note_on_c, 0, 64, 0
3, 59472, Note_on_c, 0, 67, 88
3, 59520, Note_on_c, 0, 67, 0
3, 59520, Note_on_c, 0, 66, 88
3, 59568, Note_on_c, 0, 66, 0
3, 59568, Note_on_c, 0, 66, 88
3, 59616, Note_on_c, 0, 66, 0
3, 59616, Note_on_c, 0, 66, 88
3, 59664, Note_on_c, 0, 66, 0
3, 59664, Note_on_c, 0, 62, 88
3, 59712, Note_on_c, 0, 62, 0
3, 59712, Note_on_c, 0, 64, 88
3, 59856, Note_on_c, 0, 64, 0
3, 59856, Note_on_c, 0, 67, 88
3, 59904, Note_on_c, 0, 67, 0
3, 59904, Note_on_c, 0, 66, 88
3, 59952, Note_on_c, 0, 66, 0
3, 59952, Note_on_c, 0, 66, 88
3, 60000, Note_on_c, 0, 66, 0
3, 60000, Note_on_c, 0, 66, 88
3, 60048, Note_on_c, 0, 66, 0
3, 60048, Note_on_c, 0, 69, 88
3, 60096, Note_on_c, 0, 69, 0
3, 60096, Note_on_c, 0, 67, 88
3, 60144, Note_on_c, 0, 67, 0
3, 60144, Note_on_c, 0, 67, 88
3, 60192, Note_on_c, 0, 67, 0
3, 60192, Note_on_c, 0, 67, 88
3, 60240, Note_on_c, 0, 67, 0
3, 60240, Note_on_c, 0, 69, 88
3, 60288, Note_on_c, 0, 69, 0
3, 60288, Note_on_c, 0, 70, 88
3, 60384, Note_on_c, 0, 70, 0
3, 60384, Note_on_c, 0, 70, 88
3, 60480, Note_on_c, 0, 70, 0
3, 60480, Note_on_c, 0, 64, 88
3, 60576, Note_on_c, 0, 64, 0
3, 60576, Note_on_c, 0, 69, 88
3, 60672, Note_on_c, 0, 69, 0
3, 60672, Note_on_c, 0, 67, 88
3, 60768, Note_on_c, 0, 67, 0
3, 60864, Note_on_c, 0, 65, 88
3, 60960, Note_on_c, 0, 65, 0
3, 60960, Note_on_c, 0, 64, 88
3, 61056, Note_on_c, 0, 64, 0
3, 61056, Note_on_c, 0, 62, 88
3, 61152, Note_on_c, 0, 62, 0
3, 61248, Note_on_c, 0, 61, 88
3, 61344, Note_on_c, 0, 61, 0
3, 61344, Note_on_c, 0, 62, 88
3, 61440, Note_on_c, 0, 62, 0
3, 61440, Note_on_c, 0, 64, 88
3, 61536, Note_on_c, 0, 64, 0
3, 61632, Note_on_c, 0, 65, 88
3, 61680, Note_on_c, 0, 65, 0
3, 61680, Note_on_c, 0, 67, 88
3, 61728, Note_on_c, 0, 67, 0
3, 61728, Note_on_c, 0, 65, 88
3, 61824, Note_on_c, 0, 65, 0
3, 61824, Note_on_c, 0, 63, 88
3, 61920, Note_on_c, 0, 63, 0
3, 61920, Note_on_c, 0, 62, 88
3, 62016, Note_on_c, 0, 62, 0
3, 62016, Note_on_c, 0, 66, 72
3, 62112, Note_on_c, 0, 66, 0
3, 62112, Note_on_c, 0, 67, 72
3, 62304, Note_on_c, 0, 67, 0
3, 62304, Note_on_c, 0, 67, 72
3, 62400, Note_on_c, 0, 67, 0
3, 62400, Note_on_c, 0, 65, 72
3, 62448, Note_on_c, 0, 65, 0
3, 62448, Note_on_c, 0, 64, 72
3, 62496, Note_on_c, 0, 64, 0
3, 62496, Note_on_c, 0, 65, 72
3, 62688, Note_on_c, 0, 65, 0
3, 62688, Note_on_c, 0, 65, 72
3, 62736, Note_on_c, 0, 65, 0
3, 62736, Note_on_c, 0, 62, 72
3, 62784, Note_on_c, 0, 62, 0
3, 62784, Note_on_c, 0, 63, 72
3, 62832, Note_on_c, 0, 63, 0
3, 62832, Note_on_c, 0, 70, 72
3, 62880, Note_on_c, 0, 70, 0
3, 62880, Note_on_c, 0, 70, 72
3, 62928, Note_on_c, 0, 70, 0
3, 62928, Note_on_c, 0, 67, 72
3, 62976, Note_on_c, 0, 67, 0
3, 62976, Note_on_c, 0, 69, 72
3, 63024, Note_on_c, 0, 69, 0
3, 63024, Note_on_c, 0, 69, 72
3, 63072, Note_on_c, 0, 69, 0
3, 63072, Note_on_c, 0, 67, 72
3, 63168, Note_on_c, 0, 67, 0
3, 63168, Note_on_c, 0, 72, 72
3, 63312, Note_on_c, 0, 72, 0
3, 63312, Note_on_c, 0, 71, 72
3, 63360, Note_on_c, 0, 71, 0
3, 63360, Note_on_c, 0, 74, 72
3, 63408, Note_on_c, 0, 74, 0
3, 63408, Note_on_c, 0, 74, 72
3, 63456, Note_on_c, 0, 74, 0
3, 63456, Note_on_c, 0, 72, 72
3, 63552, Note_on_c, 0, 72, 0
3, 63696, Note_on_c, 0, 67, 72
3, 63744, Note_on_c, 0, 67, 0
3, 63744, Note_on_c, 0, 66, 72
3, 63840, Note_on_c, 0, 66, 0
3, 63840, Note_on_c, 0, 66, 72
3, 63936, Note_on_c, 0, 66, 0
3, 63936, Note_on_c, 0, 67, 72
3, 64032, Note_on_c, 0, 67, 0
3, 64080, Note_on_c, 0, 63, 72
3, 64128, Note_on_c, 0, 63, 0
3, 64128, Note_on_c, 0, 62, 72
3, 64176, Note_on_c, 0, 62, 0
3, 64176, Note_on_c, 0, 60, 72
3, 64224, Note_on_c, 0, 60, 0
3, 64224, Note_on_c, 0, 62, 72
3, 64368, Note_on_c, 0, 62, 0
3, 64368, Note_on_c, 0, 65, 72
3, 64416, Note_on_c, 0, 65, 0
3, 64416, Note_on_c, 0, 64, 72
3, 64464, Note_on_c, 0, 64, 0
3, 64464, Note_on_c, 0, 64, 72
3, 64512, Note_on_c, 0, 64, 0
3, 64512, Note_on_c, 0, 64, 72
3, 64560, Note_on_c, 0, 64, 0
3, 64560, Note_on_c, 0, 67, 72
3, 64608, Note_on_c, 0, 67, 0
3, 64608, Note_on_c, 0, 66, 72
3, 64656, Note_on_c, 0, 66, 0
3, 64656, Note_on_c, 0, 66, 72
3, 64704, Note_on_c, 0, 66, 0
3, 64704, Note_on_c, 0, 66, 72
3, 64752, Note_on_c, 0, 66, 0
3, 64752, Note_on_c, 0, 69, 72
3, 64800, Note_on_c, 0, 69, 0
3, 64800, Note_on_c, 0, 67, 72
3, 64992, Note_on_c, 0, 67, 0
3, 64992, Note_on_c, 0, 67, 72
3, 65040, Note_on_c, 0, 67, 0
3, 65040, Note_on_c, 0, 70, 72
3, 65088, Note_on_c, 0, 70, 0
3, 65088, Note_on_c, 0, 69, 72
3, 65136, Note_on_c, 0, 69, 0
3, 65136, Note_on_c, 0, 69, 72
3, 65184, Note_on_c, 0, 69, 0
3, 65184, Note_on_c, 0, 69, 72
3, 65232, Note_on_c, 0, 69, 0
3, 65232, Note_on_c, 0, 74, 72
3, 65280, Note_on_c, 0, 74, 0
3, 65280, Note_on_c, 0, 70, 72
3, 65328, Note_on_c, 0, 70, 0
3, 65328, Note_on_c, 0, 70, 72
3, 65376, Note_on_c, 0, 70, 0
3, 65376, Note_on_c, 0, 64, 72
3, 65472, Note_on_c, 0, 64, 0
3, 65472, Note_on_c, 0, 62, 72
3, 65568, Note_on_c, 0, 62, 0
3, 65568, Note_on_c, 0, 70, 72
3, 65760, Note_on_c, 0, 70, 0
3, 65760, Note_on_c, 0, 70, 72
3, 65856, Note_on_c, 0, 70, 0
3, 65856, Note_on_c, 0, 69, 72
3, 65952, Note_on_c, 0, 69, 0
3, 65952, Note_on_c, 0, 70, 72
3, 66144, Note_on_c, 0, 70, 0
3, 66144, Note_on_c, 0, 69, 72
3, 66336, Note_on_c, 0, 69, 0
3, 66432, Note_on_c, 0, 67, 72
3, 66528, Note_on_c, 0, 67, 0
3, 66528, Note_on_c, 0, 69, 72
3, 66672, Note_on_c, 0, 69, 0
3, 66672, Note_on_c, 0, 70, 72
3, 66720, Note_on_c, 0, 70, 0
3, 66720, Note_on_c, 0, 69, 72
3, 66768, Note_on_c, 0, 69, 0
3, 66768, Note_on_c, 0, 65, 72
3, 66816, Note_on_c, 0, 65, 0
3, 66816, Note_on_c, 0, 67, 72
3, 66864, Note_on_c, 0, 67, 0
3, 66864, Note_on_c, 0, 67, 72
3, 66912, Note_on_c, 0, 67, 0
3, 66912, Note_on_c, 0, 65, 72
3, 67008, Note_on_c, 0, 65, 0
3, 67008, Program_c, 0, 5
3, 67008, Note_on_c, 0, 62, 88
3, 67104, Note_on_c, 0, 62, 0
3, 67104, Note_on_c, 0, 69, 88
3, 67200, Note_on_c, 0, 69, 0
3, 67200, Note_on_c, 0, 67, 88
3, 67296, Note_on_c, 0, 67, 0
3, 67392, Note_on_c, 0, 65, 88
3, 67488, Note_on_c, 0, 65, 0
3, 67488, Note_on_c, 0, 64, 88
3, 67584, Note_on_c, 0, 64, 0
3, 67584, Note_on_c, 0, 62, 88
3, 67680, Note_on_c, 0, 62, 0
3, 67776, Note_on_c, 0, 61, 88
3, 67872, Note_on_c, 0, 61, 0
3, 67872, Note_on_c, 0, 62, 88
3, 67968, Note_on_c, 0, 62, 0
3, 67968, Note_on_c, 0, 64, 88
3, 68064, Note_on_c, 0, 64, 0
3, 68160, Note_on_c, 0, 65, 88
3, 68208, Note_on_c, 0, 65, 0
3, 68208, Note_on_c, 0, 67, 88
3, 68256, Note_on_c, 0, 67, 0
3, 68256, Note_on_c, 0, 65, 88
3, 68352, Note_on_c, 0, 65, 0
3, 68352, Note_on_c, 0, 64, 88
3, 68448, Note_on_c, 0, 64, 0
3, 68448, Note_on_c, 0, 62, 88
3, 68640, Note_on_c, 0, 62, 0
3, 68640, Note_on_c, 0, 61, 88
3, 68736, Note_on_c, 0, 61, 0
3, 68736, Note_on_c, 0, 60, 88
3, 68832, Note_on_c, 0, 60, 0
3, 68832, Note_on_c, 0, 62, 88
3, 68880, Note_on_c, 0, 62, 0
3, 68880, Note_on_c, 0, 70, 88
3, 68976, Note_on_c, 0, 70, 0
3, 68976, Note_on_c, 0, 69, 88
3, 69072, Note_on_c, 0, 69, 0
3, 69072, Note_on_c, 0, 72, 88
3, 69120, Note_on_c, 0, 72, 0
3, 69120, Note_on_c, 0, 76, 88
3, 69168, Note_on_c, 0, 76, 0
3, 69168, Note_on_c, 0, 70, 88
3, 69216, Note_on_c, 0, 70, 0
3, 69216, Note_on_c, 0, 69, 88
3, 69264, Note_on_c, 0, 69, 0
3, 69264, Note_on_c, 0, 74, 88
3, 69312, Note_on_c, 0, 74, 0
3, 69312, Note_on_c, 0, 73, 88
3, 69360, Note_on_c, 0, 73, 0
3, 69360, Note_on_c, 0, 72, 88
3, 69408, Note_on_c, 0, 72, 0
3, 69408, Note_on_c, 0, 71, 88
3, 69456, Note_on_c, 0, 71, 0
3, 69456, Note_on_c, 0, 70, 88
3, 69504, Note_on_c, 0, 70, 0
3, 69504, Note_on_c, 0, 69, 88
3, 69552, Note_on_c, 0, 69, 0
3, 69552, Note_on_c, 0, 68, 88
3, 69600, Note_on_c, 0, 68, 0
3, 69600, Note_on_c, 0, 69, 88
3, 69648, Note_on_c, 0, 69, 0
3, 69648, Note_on_c, 0, 70, 88
3, 69696, Note_on_c, 0, 70, 0
3, 69696, Note_on_c, 0, 67, 88
3, 69744, Note_on_c, 0, 67, 0
3, 69744, Note_on_c, 0, 69, 88
3, 69792, Note_on_c, 0, 69, 0
3, 69792, Note_on_c, 0, 65, 88
3, 69888, Note_on_c, 0, 65, 0
3, 69888, Note_on_c, 0, 70, 88
3, 69984, Note_on_c, 0, 70, 0
3, 69984, Note_on_c, 0, 61, 88
3, 70080, Note_on_c, 0, 61, 0
3, 70080, Note_on_c, 0, 69, 88
3, 70128, Note_on_c, 0, 69, 0
3, 70128, Note_on_c, 0, 70, 88
3, 70176, Note_on_c, 0, 70, 0
3, 70176, Note_on_c, 0, 69, 88
3, 70272, Note_on_c, 0, 69, 0
3, 70272, Note_on_c, 0, 67, 88
3, 70368, Note_on_c, 0, 67, 0
3, 70368, Program_c, 0, 5
3, 70368, Note_on_c, 0, 66, 88
3, 70752, Note_on_c, 0, 66, 0
3, 70752, End_track
4, 0, Start_track
4, 0, Program_c, 0, 1
4, 4704, Note_on_c, 0, 57, 88
4, 4800, Note_on_c, 0, 57, 0
4, 4800, Note_on_c, 0, 64, 88
4, 4896, Note_on_c, 0, 64, 0
4, 4896, Note_on_c, 0, 62, 88
4, 4992, Note_on_c, 0, 62, 0
4, 5088, Note_on_c, 0, 60, 88
4, 5184, Note_on_c, 0, 60, 0
4, 5184, Note_on_c, 0, 59, 88
4, 5280, Note_on_c, 0, 59, 0
4, 5280, Note_on_c, 0, 57, 88
4, 5376, Note_on_c, 0, 57, 0
4, 5472, Note_on_c, 0, 56, 88
4, 5568, Note_on_c, 0, 56, 0
4, 5568, Note_on_c, 0, 57, 88
4, 5664, Note_on_c, 0, 57, 0
4, 5664, Note_on_c, 0, 59, 88
4, 5760, Note_on_c, 0, 59, 0
4, 5856, Note_on_c, 0, 60, 88
4, 5904, Note_on_c, 0, 60, 0
4, 5904, Note_on_c, 0, 62, 88
4, 5952, Note_on_c, 0, 62, 0
4, 5952, Note_on_c, 0, 60, 88
4, 6048, Note_on_c, 0, 60, 0
4, 6048, Note_on_c, 0, 59, 88
4, 6144, Note_on_c, 0, 59, 0
4, 6144, Note_on_c, 0, 57, 88
4, 6336, Note_on_c, 0, 57, 0
4, 6336, Note_on_c, 0, 59, 72
4, 6432, Note_on_c, 0, 59, 0
4, 6432, Note_on_c, 0, 61, 72
4, 6528, Note_on_c, 0, 61, 0
4, 6528, Note_on_c, 0, 62, 72
4, 6720, Note_on_c, 0, 62, 0
4, 6816, Note_on_c, 0, 62, 72
4, 6864, Note_on_c, 0, 62, 0
4, 6864, Note_on_c, 0, 61, 72
4, 6912, Note_on_c, 0, 61, 0
4, 6912, Note_on_c, 0, 62, 72
4, 7008, Note_on_c, 0, 62, 0
4, 7008, Note_on_c, 0, 64, 72
4, 7104, Note_on_c, 0, 64, 0
4, 7104, Note_on_c, 0, 65, 72
4, 7200, Note_on_c, 0, 65, 0
4, 7200, Note_on_c, 0, 66, 72
4, 7296, Note_on_c, 0, 66, 0
4, 7296, Note_on_c, 0, 67, 72
4, 7440, Note_on_c, 0, 67, 0
4, 7440, Note_on_c, 0, 66, 72
4, 7488, Note_on_c, 0, 66, 0
4, 7488, Note_on_c, 0, 67, 72
4, 7584, Note_on_c, 0, 67, 0
4, 7584, Note_on_c, 0, 69, 72
4, 7680, Note_on_c, 0, 69, 0
4, 7680, Note_on_c, 0, 62, 72
4, 7776, Note_on_c, 0, 62, 0
4, 7776, Note_on_c, 0, 67, 72
4, 7824, Note_on_c, 0, 67, 0
4, 7824, Note_on_c, 0, 69, 72
4, 7872, Note_on_c, 0, 69, 0
4, 7872, Note_on_c, 0, 67, 72
4, 7968, Note_on_c, 0, 67, 0
4, 7968, Note_on_c, 0, 65, 72
4, 8064, Note_on_c, 0, 65, 0
4, 8064, Note_on_c, 0, 64, 72
4, 8256, Note_on_c, 0, 64, 0
4, 8256, Note_on_c, 0, 62, 72
4, 8352, Note_on_c, 0, 62, 0
4, 8352, Note_on_c, 0, 52, 72
4, 8448, Note_on_c, 0, 52, 0
4, 8448, Note_on_c, 0, 53, 72
4, 8544, Note_on_c, 0, 53, 0
4, 8544, Note_on_c, 0, 62, 72
4, 8640, Note_on_c, 0, 62, 0
4, 8640, Note_on_c, 0, 67, 72
4, 8736, Note_on_c, 0, 67, 0
4, 8736, Note_on_c, 0, 65, 72
4, 8832, Note_on_c, 0, 65, 0
4, 8832, Note_on_c, 0, 64, 72
4, 8880, Note_on_c, 0, 64, 0
4, 8880, Note_on_c, 0, 65, 72
4, 8976, Note_on_c, 0, 65, 0
4, 8976, Note_on_c, 0, 64, 72
4, 9024, Note_on_c, 0, 64, 0
4, 9024, Note_on_c, 0, 57, 72
4, 9072, Note_on_c, 0, 57, 0
4, 9072, Note_on_c, 0, 62, 72
4, 9168, Note_on_c, 0, 62, 0
4, 9168, Note_on_c, 0, 61, 72
4, 9216, Note_on_c, 0, 61, 0
4, 9216, Note_on_c, 0, 62, 72
4, 9312, Note_on_c, 0, 62, 0
4, 9312, Note_on_c, 0, 69, 72
4, 9408, Note_on_c, 0, 69, 0
4, 9408, Note_on_c, 0, 70, 72
4, 9504, Note_on_c, 0, 70, 0
4, 9504, Note_on_c, 0, 64, 88
4, 9600, Note_on_c, 0, 64, 0
4, 9600, Note_on_c, 0, 65, 88
4, 9792, Note_on_c, 0, 65, 0
4, 9792, Note_on_c, 0, 64, 88
4, 9840, Note_on_c, 0, 64, 0
4, 9840, Note_on_c, 0, 65, 88
4, 9888, Note_on_c, 0, 65, 0
4, 9888, Note_on_c, 0, 67, 88
4, 9984, Note_on_c, 0, 67, 0
4, 9984, Note_on_c, 0, 67, 88
4, 10080, Note_on_c, 0, 67, 0
4, 10080, Note_on_c, 0, 65, 88
4, 10224, Note_on_c, 0, 65, 0
4, 12960, Note_on_c, 0, 52, 88
4, 13152, Note_on_c, 0, 52, 0
4, 13152, Note_on_c, 0, 53, 88
4, 13248, Note_on_c, 0, 53, 0
4, 13248, Note_on_c, 0, 48, 88
4, 13344, Note_on_c, 0, 48, 0
4, 13344, Note_on_c, 0, 55, 88
4, 13440, Note_on_c, 0, 55, 0
4, 13440, Note_on_c, 0, 56, 88
4, 13536, Note_on_c, 0, 56, 0
4, 13536, Note_on_c, 0, 57, 88
4, 13632, Note_on_c, 0, 57, 0
4, 13632, Note_on_c, 0, 52, 88
4, 13728, Note_on_c, 0, 52, 0
4, 13728, Note_on_c, 0, 59, 88
4, 13920, Note_on_c, 0, 59, 0
4, 13920, Note_on_c, 0, 60, 88
4, 14016, Note_on_c, 0, 60, 0
4, 14016, Note_on_c, 0, 59, 88
4, 14112, Note_on_c, 0, 59, 0
4, 14112, Note_on_c, 0, 57, 88
4, 14160, Note_on_c, 0, 57, 0
4, 14160, Note_on_c, 0, 59, 88
4, 14208, Note_on_c, 0, 59, 0
4, 14208, Note_on_c, 0, 57, 88
4, 14304, Note_on_c, 0, 57, 0
4, 14304, Note_on_c, 0, 64, 88
4, 14400, Note_on_c, 0, 64, 0
4, 14400, Note_on_c, 0, 64, 72
4, 14496, Note_on_c, 0, 64, 0
4, 14496, Note_on_c, 0, 63, 72
4, 14592, Note_on_c, 0, 63, 0
4, 14592, Note_on_c, 0, 62, 72
4, 14688, Note_on_c, 0, 62, 0
4, 14688, Note_on_c, 0, 61, 72
4, 14784, Note_on_c, 0, 61, 0
4, 14784, Note_on_c, 0, 65, 72
4, 14976, Note_on_c, 0, 65, 0
4, 14976, Note_on_c, 0, 64, 72
4, 15072, Note_on_c, 0, 64, 0
4, 15072, Note_on_c, 0, 62, 72
4, 15168, Note_on_c, 0, 62, 0
4, 15600, Note_on_c, 0, 55, 72
4, 15648, Note_on_c, 0, 55, 0
4, 15648, Note_on_c, 0, 57, 72
4, 15696, Note_on_c, 0, 57, 0
4, 15696, Note_on_c, 0, 55, 72
4, 15744, Note_on_c, 0, 55, 0
4, 15744, Note_on_c, 0, 57, 72
4, 15792, Note_on_c, 0, 57, 0
4, 15792, Note_on_c, 0, 59, 72
4, 15840, Note_on_c, 0, 59, 0
4, 15840, Note_on_c, 0, 60, 72
4, 15936, Note_on_c, 0, 60, 0
4, 16704, Note_on_c, 0, 50, 72
4, 16800, Note_on_c, 0, 50, 0
4, 16800, Note_on_c, 0, 51, 72
4, 16896, Note_on_c, 0, 51, 0
4, 16896, Note_on_c, 0, 52, 72
4, 16992, Note_on_c, 0, 52, 0
4, 16992, Note_on_c, 0, 53, 72
4, 17088, Note_on_c, 0, 53, 0
4, 17088, Note_on_c, 0, 54, 72
4, 17184, Note_on_c, 0, 54, 0
4, 17184, Note_on_c, 0, 55, 72
4, 17280, Note_on_c, 0, 55, 0
4, 17280, Note_on_c, 0, 56, 72
4, 17376, Note_on_c, 0, 56, 0
4, 17376, Note_on_c, 0, 57, 72
4, 17472, Note_on_c, 0, 57, 0
4, 17520, Note_on_c, 0, 57, 72
4, 17568, Note_on_c, 0, 57, 0
4, 17568, Note_on_c, 0, 58, 72
4, 17664, Note_on_c, 0, 58, 0
4, 17664, Note_on_c, 0, 59, 72
4, 17760, Note_on_c, 0, 59, 0
4, 17760, Note_on_c, 0, 60, 72
4, 17856, Note_on_c, 0, 60, 0
4, 17856, Note_on_c, 0, 61, 72
4, 17952, Note_on_c, 0, 61, 0
4, 17952, Note_on_c, 0, 62, 72
4, 18000, Note_on_c, 0, 62, 0
4, 18000, Note_on_c, 0, 63, 72
4, 18048, Note_on_c, 0, 63, 0
4, 18048, Note_on_c, 0, 62, 72
4, 18096, Note_on_c, 0, 62, 0
4, 18096, Note_on_c, 0, 60, 72
4, 18144, Note_on_c, 0, 60, 0
4, 18144, Note_on_c, 0, 62, 72
4, 18336, Note_on_c, 0, 62, 0
4, 18336, Note_on_c, 0, 55, 72
4, 18432, Note_on_c, 0, 55, 0
4, 18432, Note_on_c, 0, 60, 72
4, 18480, Note_on_c, 0, 60, 0
4, 18480, Note_on_c, 0, 58, 72
4, 18528, Note_on_c, 0, 58, 0
4, 18528, Note_on_c, 0, 57, 72
4, 18576, Note_on_c, 0, 57, 0
4, 18576, Note_on_c, 0, 53, 72
4, 18624, Note_on_c, 0, 53, 0
4, 18624, Note_on_c, 0, 60, 72
4, 18768, Note_on_c, 0, 60, 0
4, 18768, Note_on_c, 0, 64, 72
4, 18816, Note_on_c, 0, 64, 0
4, 18816, Note_on_c, 0, 62, 72
4, 18864, Note_on_c, 0, 62, 0
4, 18864, Note_on_c, 0, 60, 72
4, 18912, Note_on_c, 0, 60, 0
4, 18912, Note_on_c, 0, 59, 72
4, 18960, Note_on_c, 0, 59, 0
4, 18960, Note_on_c, 0, 55, 72
4, 19008, Note_on_c, 0, 55, 0
4, 19008, Note_on_c, 0, 62, 72
4, 19152, Note_on_c, 0, 62, 0
4, 19152, Note_on_c, 0, 65, 72
4, 19200, Note_on_c, 0, 65, 0
4, 19200, Note_on_c, 0, 64, 72
4, 19248, Note_on_c, 0, 64, 0
4, 19248, Note_on_c, 0, 62, 72
4, 19296, Note_on_c, 0, 62, 0
4, 19296, Note_on_c, 0, 60, 72
4, 19392, Note_on_c, 0, 60, 0
4, 19392, Note_on_c, 0, 59, 72
4, 19488, Note_on_c, 0, 59, 0
4, 19488, Note_on_c, 0, 57, 72
4, 19512, Note_on_c, 0, 57, 0
4, 19512, Note_on_c, 0, 59, 72
4, 19536, Note_on_c, 0, 59, 0
4, 19536, Note_on_c, 0, 60, 72
4, 19560, Note_on_c, 0, 60, 0
4, 19560, Note_on_c, 0, 62, 72
4, 19584, Note_on_c, 0, 62, 0
4, 19584, Note_on_c, 0, 64, 72
4, 19680, Note_on_c, 0, 64, 0
4, 19680, Note_on_c, 0, 65, 72
4, 19776, Note_on_c, 0, 65, 0
4, 19776, Note_on_c, 0, 61, 72
4, 19872, Note_on_c, 0, 61, 0
4, 19872, Note_on_c, 0, 62, 72
4, 19968, Note_on_c, 0, 62, 0
4, 20592, Note_on_c, 0, 57, 72
4, 20640, Note_on_c, 0, 57, 0
4, 20640, Note_on_c, 0, 59, 72
4, 20688, Note_on_c, 0, 59, 0
4, 20688, Note_on_c, 0, 57, 72
4, 20736, Note_on_c, 0, 57, 0
4, 20736, Note_on_c, 0, 59, 72
4, 20784, Note_on_c, 0, 59, 0
4, 20784, Note_on_c, 0, 61, 72
4, 20832, Note_on_c, 0, 61, 0
4, 20832, Note_on_c, 0, 62, 72
4, 20880, Note_on_c, 0, 62, 0
4, 20880, Note_on_c, 0, 57, 72
4, 20928, Note_on_c, 0, 57, 0
4, 20928, Note_on_c, 0, 62, 72
4, 21024, Note_on_c, 0, 62, 0
4, 21264, Note_on_c, 0, 49, 72
4, 21312, Note_on_c, 0, 49, 0
4, 21312, Note_on_c, 0, 50, 72
4, 21360, Note_on_c, 0, 50, 0
4, 21360, Note_on_c, 0, 52, 72
4, 21408, Note_on_c, 0, 52, 0
4, 21408, Note_on_c, 0, 53, 72
4, 21456, Note_on_c, 0, 53, 0
4, 21456, Note_on_c, 0, 52, 72
4, 21504, Note_on_c, 0, 52, 0
4, 21504, Note_on_c, 0, 53, 72
4, 21600, Note_on_c, 0, 53, 0
4, 21600, Note_on_c, 0, 52, 72
4, 21696, Note_on_c, 0, 52, 0
4, 21696, Note_on_c, 0, 57, 72
4, 21792, Note_on_c, 0, 57, 0
4, 21792, Note_on_c, 0, 56, 72
4, 21888, Note_on_c, 0, 56, 0
4, 21888, Note_on_c, 0, 55, 72
4, 21984, Note_on_c, 0, 55, 0
4, 21984, Note_on_c, 0, 54, 72
4, 22080, Note_on_c, 0, 54, 0
4, 22080, Note_on_c, 0, 53, 72
4, 22176, Note_on_c, 0, 53, 0
4, 22176, Note_on_c, 0, 52, 72
4, 22272, Note_on_c, 0, 52, 0
4, 22272, Note_on_c, 0, 51, 72
4, 22368, Note_on_c, 0, 51, 0
4, 22368, Note_on_c, 0, 50, 72
4, 22464, Note_on_c, 0, 50, 0
4, 22896, Note_on_c, 0, 55, 72
4, 22944, Note_on_c, 0, 55, 0
4, 22944, Note_on_c, 0, 57, 72
4, 22992, Note_on_c, 0, 57, 0
4, 22992, Note_on_c, 0, 55, 72
4, 23040, Note_on_c, 0, 55, 0
4, 23040, Note_on_c, 0, 57, 72
4, 23088, Note_on_c, 0, 57, 0
4, 23088, Note_on_c, 0, 59, 72
4, 23136, Note_on_c, 0, 59, 0
4, 23136, Note_on_c, 0, 60, 72
4, 23184, Note_on_c, 0, 60, 0
4, 23184, Note_on_c, 0, 48, 72
4, 23232, Note_on_c, 0, 48, 0
4, 23232, Note_on_c, 0, 60, 72
4, 23328, Note_on_c, 0, 60, 0
4, 23328, Note_on_c, 0, 59, 72
4, 23424, Note_on_c, 0, 59, 0
4, 23424, Note_on_c, 0, 58, 72
4, 23520, Note_on_c, 0, 58, 0
4, 23520, Note_on_c, 0, 58, 72
4, 23616, Note_on_c, 0, 58, 0
4, 23616, Note_on_c, 0, 57, 72
4, 23712, Note_on_c, 0, 57, 0
4, 23712, Note_on_c, 0, 59, 72
4, 23760, Note_on_c, 0, 59, 0
4, 23760, Note_on_c, 0, 57, 72
4, 23808, Note_on_c, 0, 57, 0
4, 23808, Note_on_c, 0, 59, 72
4, 23856, Note_on_c, 0, 59, 0
4, 23856, Note_on_c, 0, 61, 72
4, 23904, Note_on_c, 0, 61, 0
4, 23904, Note_on_c, 0, 62, 72
4, 23952, Note_on_c, 0, 62, 0
4, 23952, Note_on_c, 0, 57, 72
4, 24000, Note_on_c, 0, 57, 0
4, 24000, Note_on_c, 0, 62, 72
4, 24192, Note_on_c, 0, 62, 0
4, 24192, Note_on_c, 0, 60, 88
4, 24288, Note_on_c, 0, 60, 0
4, 24288, Note_on_c, 0, 58, 88
4, 24384, Note_on_c, 0, 58, 0
4, 24384, Note_on_c, 0, 67, 88
4, 24480, Note_on_c, 0, 67, 0
4, 24480, Note_on_c, 0, 66, 88
4, 24576, Note_on_c, 0, 66, 0
4, 24576, Note_on_c, 0, 65, 88
4, 24672, Note_on_c, 0, 65, 0
4, 24672, Note_on_c, 0, 65, 88
4, 24768, Note_on_c, 0, 65, 0
4, 24768, Note_on_c, 0, 64, 88
4, 24864, Note_on_c, 0, 64, 0
4, 24864, Note_on_c, 0, 63, 88
4, 24960, Note_on_c, 0, 63, 0
4, 24960, Note_on_c, 0, 62, 88
4, 25056, Note_on_c, 0, 62, 0
4, 25056, Note_on_c, 0, 62, 88
4, 25152, Note_on_c, 0, 62, 0
4, 25152, Note_on_c, 0, 61, 88
4, 25248, Note_on_c, 0, 61, 0
4, 25248, Note_on_c, 0, 60, 88
4, 25344, Note_on_c, 0, 60, 0
4, 25344, Note_on_c, 0, 59, 88
4, 25440, Note_on_c, 0, 59, 0
4, 25440, Note_on_c, 0, 59, 88
4, 25536, Note_on_c, 0, 59, 0
4, 25536, Note_on_c, 0, 57, 88
4, 25632, Note_on_c, 0, 57, 0
4, 25776, Note_on_c, 0, 66, 88
4, 25824, Note_on_c, 0, 66, 0
4, 25824, Note_on_c, 0, 64, 88
4, 25872, Note_on_c, 0, 64, 0
4, 25872, Note_on_c, 0, 62, 88
4, 25920, Note_on_c, 0, 62, 0
4, 25920, Note_on_c, 0, 60, 88
4, 25968, Note_on_c, 0, 60, 0
4, 25968, Note_on_c, 0, 59, 88
4, 26016, Note_on_c, 0, 59, 0
4, 26016, Note_on_c, 0, 60, 88
4, 26112, Note_on_c, 0, 60, 0
4, 26112, Note_on_c, 0, 62, 88
4, 26208, Note_on_c, 0, 62, 0
4, 26208, Note_on_c, 0, 64, 88
4, 26256, Note_on_c, 0, 64, 0
4, 26256, Note_on_c, 0, 63, 88
4, 26304, Note_on_c, 0, 63, 0
4, 26304, Note_on_c, 0, 64, 88
4, 26352, Note_on_c, 0, 64, 0
4, 26352, Note_on_c, 0, 60, 88
4, 26400, Note_on_c, 0, 60, 0
4, 26400, Note_on_c, 0, 62, 88
4, 26448, Note_on_c, 0, 62, 0
4, 26448, Note_on_c, 0, 61, 88
4, 26496, Note_on_c, 0, 61, 0
4, 26496, Note_on_c, 0, 62, 88
4, 26544, Note_on_c, 0, 62, 0
4, 26544, Note_on_c, 0, 56, 88
4, 26592, Note_on_c, 0, 56, 0
4, 26592, Note_on_c, 0, 57, 88
4, 26640, Note_on_c, 0, 57, 0
4, 26640, Note_on_c, 0, 59, 88
4, 26688, Note_on_c, 0, 59, 0
4, 26688, Note_on_c, 0, 60, 88
4, 26784, Note_on_c, 0, 60, 0
4, 26784, Note_on_c, 0, 59, 88
4, 26976, Note_on_c, 0, 59, 0
4, 26976, Note_on_c, 0, 60, 88
4, 27072, Note_on_c, 0, 60, 0
4, 27072, Program_c, 0, 1
4, 27072, Note_on_c, 0, 64, 88
4, 27168, Note_on_c, 0, 64, 0
4, 27168, Note_on_c, 0, 57, 88
4, 27264, Note_on_c, 0, 57, 0
4, 27264, Note_on_c, 0, 59, 88
4, 27360, Note_on_c, 0, 59, 0
4, 27456, Note_on_c, 0, 60, 88
4, 27552, Note_on_c, 0, 60, 0
4, 27552, Note_on_c, 0, 62, 88
4, 27648, Note_on_c, 0, 62, 0
4, 27648, Note_on_c, 0, 64, 88
4, 27744, Note_on_c, 0, 64, 0
4, 27840, Note_on_c, 0, 65, 88
4, 27936, Note_on_c, 0, 65, 0
4, 27936, Note_on_c, 0, 64, 88
4, 28032, Note_on_c, 0, 64, 0
4, 28032, Note_on_c, 0, 62, 88
4, 28128, Note_on_c, 0, 62, 0
4, 28224, Note_on_c, 0, 60, 88
4, 28272, Note_on_c, 0, 60, 0
4, 28272, Note_on_c, 0, 59, 88
4, 28320, Note_on_c, 0, 59, 0
4, 28320, Note_on_c, 0, 60, 88
4, 28416, Note_on_c, 0, 60, 0
4, 28416, Note_on_c, 0, 62, 88
4, 28512, Note_on_c, 0, 62, 0
4, 28512, Note_on_c, 0, 64, 88
4, 28704, Note_on_c, 0, 64, 0
4, 28800, Note_on_c, 0, 58, 72
4, 28896, Note_on_c, 0, 58, 0
4, 28896, Note_on_c, 0, 57, 72
4, 28992, Note_on_c, 0, 57, 0
4, 28992, Note_on_c, 0, 62, 72
4, 29040, Note_on_c, 0, 62, 0
4, 29040, Note_on_c, 0, 60, 72
4, 29088, Note_on_c, 0, 60, 0
4, 29088, Note_on_c, 0, 59, 72
4, 29184, Note_on_c, 0, 59, 0
4, 29184, Note_on_c, 0, 58, 72
4, 29280, Note_on_c, 0, 58, 0
4, 29280, Note_on_c, 0, 57, 72
4, 29376, Note_on_c, 0, 57, 0
4, 29376, Note_on_c, 0, 50, 72
4, 29472, Note_on_c, 0, 50, 0
4, 29472, Note_on_c, 0, 52, 72
4, 29520, Note_on_c, 0, 52, 0
4, 29520, Note_on_c, 0, 50, 72
4, 29568, Note_on_c, 0, 50, 0
4, 29568, Note_on_c, 0, 52, 72
4, 29616, Note_on_c, 0, 52, 0
4, 29616, Note_on_c, 0, 54, 72
4, 29664, Note_on_c, 0, 54, 0
4, 29664, Note_on_c, 0, 55, 72
4, 29760, Note_on_c, 0, 55, 0
4, 29760, Note_on_c, 0, 54, 72
4, 29808, Note_on_c, 0, 54, 0
4, 29808, Note_on_c, 0, 52, 72
4, 29856, Note_on_c, 0, 52, 0
4, 29856, Note_on_c, 0, 54, 72
4, 29904, Note_on_c, 0, 54, 0
4, 29904, Note_on_c, 0, 57, 72
4, 29952, Note_on_c, 0, 57, 0
4, 29952, Note_on_c, 0, 61, 72
4, 30000, Note_on_c, 0, 61, 0
4, 30000, Note_on_c, 0, 64, 72
4, 30048, Note_on_c, 0, 64, 0
4, 30048, Note_on_c, 0, 64, 72
4, 30096, Note_on_c, 0, 64, 0
4, 30096, Note_on_c, 0, 62, 72
4, 30192, Note_on_c, 0, 62, 0
4, 30192, Note_on_c, 0, 61, 72
4, 30240, Note_on_c, 0, 61, 0
4, 30240, Note_on_c, 0, 62, 72
4, 30288, Note_on_c, 0, 62, 0
4, 30288, Note_on_c, 0, 65, 72
4, 30384, Note_on_c, 0, 65, 0
4, 30384, Note_on_c, 0, 64, 72
4, 30432, Note_on_c, 0, 64, 0
4, 30432, Note_on_c, 0, 65, 72
4, 30480, Note_on_c, 0, 65, 0
4, 30480, Note_on_c, 0, 64, 72
4, 30528, Note_on_c, 0, 64, 0
4, 30528, Note_on_c, 0, 62, 72
4, 30624, Note_on_c, 0, 62, 0
4, 30720, Note_on_c, 0, 68, 72
4, 30816, Note_on_c, 0, 68, 0
4, 30816, Note_on_c, 0, 69, 72
4, 30912, Note_on_c, 0, 69, 0
4, 30912, Note_on_c, 0, 60, 72
4, 31056, Note_on_c, 0, 60, 0
4, 31056, Note_on_c, 0, 58, 72
4, 31104, Note_on_c, 0, 58, 0
4, 31104, Note_on_c, 0, 57, 72
4, 31152, Note_on_c, 0, 57, 0
4, 31152, Note_on_c, 0, 55, 72
4, 31200, Note_on_c, 0, 55, 0
4, 31200, Note_on_c, 0, 62, 72
4, 31392, Note_on_c, 0, 62, 0
4, 31392, Note_on_c, 0, 64, 72
4, 31488, Note_on_c, 0, 64, 0
4, 31488, Note_on_c, 0, 66, 72
4, 31584, Note_on_c, 0, 66, 0
4, 31584, Note_on_c, 0, 67, 72
4, 31680, Note_on_c, 0, 67, 0
4, 31680, Note_on_c, 0, 64, 72
4, 31776, Note_on_c, 0, 64, 0
4, 31872, Note_on_c, 0, 57, 72
4, 31920, Note_on_c, 0, 57, 0
4, 31920, Note_on_c, 0, 58, 72
4, 31968, Note_on_c, 0, 58, 0
4, 31968, Note_on_c, 0, 57, 72
4, 32112, Note_on_c, 0, 57, 0
4, 32112, Note_on_c, 0, 55, 72
4, 32160, Note_on_c, 0, 55, 0
4, 32160, Note_on_c, 0, 53, 72
4, 32208, Note_on_c, 0, 53, 0
4, 32208, Note_on_c, 0, 50, 72
4, 32256, Note_on_c, 0, 50, 0
4, 32256, Note_on_c, 0, 55, 72
4, 32352, Note_on_c, 0, 55, 0
4, 32352, Note_on_c, 0, 55, 72
4, 32448, Note_on_c, 0, 55, 0
4, 32448, Note_on_c, 0, 53, 72
4, 32592, Note_on_c, 0, 53, 0
4, 32592, Note_on_c, 0, 50, 72
4, 32640, Note_on_c, 0, 50, 0
4, 32640, Note_on_c, 0, 51, 72
4, 32736, Note_on_c, 0, 51, 0
4, 32736, Note_on_c, 0, 50, 72
4, 32832, Note_on_c, 0, 50, 0
4, 32832, Note_on_c, 0, 55, 72
4, 32880, Note_on_c, 0, 55, 0
4, 32880, Note_on_c, 0, 53, 72
4, 32928, Note_on_c, 0, 53, 0
4, 32928, Note_on_c, 0, 52, 72
4, 32976, Note_on_c, 0, 52, 0
4, 32976, Note_on_c, 0, 50, 72
4, 33024, Note_on_c, 0, 50, 0
4, 33024, Note_on_c, 0, 52, 72
4, 33072, Note_on_c, 0, 52, 0
4, 33072, Note_on_c, 0, 48, 72
4, 33120, Note_on_c, 0, 48, 0
4, 33120, Note_on_c, 0, 53, 72
4, 33216, Note_on_c, 0, 53, 0
4, 33600, Note_on_c, 0, 69, 88
4, 33696, Note_on_c, 0, 69, 0
4, 33696, Note_on_c, 0, 67, 88
4, 33744, Note_on_c, 0, 67, 0
4, 33744, Note_on_c, 0, 65, 88
4, 33792, Note_on_c, 0, 65, 0
4, 33792, Note_on_c, 0, 67, 88
4, 33888, Note_on_c, 0, 67, 0
4, 33888, Note_on_c, 0, 65, 88
4, 34080, Note_on_c, 0, 65, 0
4, 34176, Note_on_c, 0, 51, 88
4, 34272, Note_on_c, 0, 51, 0
4, 34272, Note_on_c, 0, 51, 88
4, 34320, Note_on_c, 0, 51, 0
4, 34320, Note_on_c, 0, 50, 88
4, 34368, Note_on_c, 0, 50, 0
4, 34368, Note_on_c, 0, 53, 88
4, 34416, Note_on_c, 0, 53, 0
4, 34416, Note_on_c, 0, 53, 88
4, 34464, Note_on_c, 0, 53, 0
4, 34464, Note_on_c, 0, 53, 88
4, 34512, Note_on_c, 0, 53, 0
4, 34512, Note_on_c, 0, 52, 88
4, 34560, Note_on_c, 0, 52, 0
4, 34560, Note_on_c, 0, 55, 88
4, 34608, Note_on_c, 0, 55, 0
4, 34608, Note_on_c, 0, 55, 88
4, 34656, Note_on_c, 0, 55, 0
4, 34656, Note_on_c, 0, 55, 88
4, 34704, Note_on_c, 0, 55, 0
4, 34704, Note_on_c, 0, 54, 88
4, 34752, Note_on_c, 0, 54, 0
4, 34752, Note_on_c, 0, 57, 88
4, 34800, Note_on_c, 0, 57, 0
4, 34800, Note_on_c, 0, 57, 88
4, 34848, Note_on_c, 0, 57, 0
4, 34848, Note_on_c, 0, 57, 88
4, 34896, Note_on_c, 0, 57, 0
4, 34896, Note_on_c, 0, 56, 88
4, 34944, Note_on_c, 0, 56, 0
4, 34944, Note_on_c, 0, 59, 88
4, 34992, Note_on_c, 0, 59, 0
4, 34992, Note_on_c, 0, 59, 88
4, 35040, Note_on_c, 0, 59, 0
4, 35040, Note_on_c, 0, 59, 88
4, 35088, Note_on_c, 0, 59, 0
4, 35088, Note_on_c, 0, 57, 88
4, 35136, Note_on_c, 0, 57, 0
4, 35136, Note_on_c, 0, 59, 88
4, 35184, Note_on_c, 0, 59, 0
4, 35184, Note_on_c, 0, 61, 88
4, 35232, Note_on_c, 0, 61, 0
4, 35232, Note_on_c, 0, 62, 88
4, 35280, Note_on_c, 0, 62, 0
4, 35280, Note_on_c, 0, 56, 88
4, 35328, Note_on_c, 0, 56, 0
4, 35328, Note_on_c, 0, 57, 88
4, 35376, Note_on_c, 0, 57, 0
4, 35376, Note_on_c, 0, 59, 88
4, 35424, Note_on_c, 0, 59, 0
4, 35424, Note_on_c, 0, 60, 88
4, 35568, Note_on_c, 0, 60, 0
4, 35568, Note_on_c, 0, 60, 88
4, 35616, Note_on_c, 0, 60, 0
4, 35616, Note_on_c, 0, 58, 88
4, 35664, Note_on_c, 0, 58, 0
4, 35664, Note_on_c, 0, 57, 88
4, 35712, Note_on_c, 0, 57, 0
4, 35712, Note_on_c, 0, 58, 88
4, 35760, Note_on_c, 0, 58, 0
4, 35760, Note_on_c, 0, 60, 88
4, 35808, Note_on_c, 0, 60, 0
4, 35808, Note_on_c, 0, 62, 88
4, 35904, Note_on_c, 0, 62, 0
4, 35904, Note_on_c, 0, 57, 88
4, 36000, Note_on_c, 0, 57, 0
4, 36000, Note_on_c, 0, 64, 88
4, 36192, Note_on_c, 0, 64, 0
4, 36192, Note_on_c, 0, 64, 88
4, 36288, Note_on_c, 0, 64, 0
4, 36288, Note_on_c, 0, 62, 88
4, 36336, Note_on_c, 0, 62, 0
4, 36336, Note_on_c, 0, 61, 88
4, 36384, Note_on_c, 0, 61, 0
4, 36384, Note_on_c, 0, 65, 88
4, 36480, Note_on_c, 0, 65, 0
4, 36672, Note_on_c, 0, 62, 88
4, 36768, Note_on_c, 0, 62, 0
4, 36768, Note_on_c, 0, 61, 88
4, 36864, Note_on_c, 0, 61, 0
4, 36864, Note_on_c, 0, 60, 88
4, 36960, Note_on_c, 0, 60, 0
4, 36960, Note_on_c, 0, 60, 88
4, 37056, Note_on_c, 0, 60, 0
4, 37056, Note_on_c, 0, 59, 88
4, 37152, Note_on_c, 0, 59, 0
4, 37152, Note_on_c, 0, 60, 88
4, 37248, Note_on_c, 0, 60, 0
4, 37248, Note_on_c, 0, 67, 88
4, 37344, Note_on_c, 0, 67, 0
4, 37344, Note_on_c, 0, 67, 88
4, 37440, Note_on_c, 0, 67, 0
4, 37632, Note_on_c, 0, 65, 88
4, 37728, Note_on_c, 0, 65, 0
4, 37728, Note_on_c, 0, 65, 88
4, 37776, Note_on_c, 0, 65, 0
4, 37776, Note_on_c, 0, 63, 88
4, 37824, Note_on_c, 0, 63, 0
4, 37824, Note_on_c, 0, 64, 88
4, 37872, Note_on_c, 0, 64, 0
4, 37872, Note_on_c, 0, 64, 88
4, 37920, Note_on_c, 0, 64, 0
4, 37920, Note_on_c, 0, 64, 88
4, 37968, Note_on_c, 0, 64, 0
4, 37968, Note_on_c, 0, 61, 88
4, 38016, Note_on_c, 0, 61, 0
4, 38016, Note_on_c, 0, 62, 88
4, 38064, Note_on_c, 0, 62, 0
4, 38064, Note_on_c, 0, 62, 88
4, 38112, Note_on_c, 0, 62, 0
4, 38112, Note_on_c, 0, 62, 88
4, 38160, Note_on_c, 0, 62, 0
4, 38160, Note_on_c, 0, 59, 72
4, 38208, Note_on_c, 0, 59, 0
4, 38208, Note_on_c, 0, 60, 72
4, 38304, Note_on_c, 0, 60, 0
4, 38304, Note_on_c, 0, 62, 72
4, 38400, Note_on_c, 0, 62, 0
4, 38400, Note_on_c, 0, 64, 72
4, 38496, Note_on_c, 0, 64, 0
4, 38496, Note_on_c, 0, 57, 72
4, 38640, Note_on_c, 0, 57, 0
4, 38640, Note_on_c, 0, 57, 72
4, 38688, Note_on_c, 0, 57, 0
4, 38688, Note_on_c, 0, 59, 72
4, 38784, Note_on_c, 0, 59, 0
4, 38784, Note_on_c, 0, 61, 72
4, 38880, Note_on_c, 0, 61, 0
4, 38880, Note_on_c, 0, 62, 72
4, 38976, Note_on_c, 0, 62, 0
4, 39168, Note_on_c, 0, 67, 72
4, 39264, Note_on_c, 0, 67, 0
4, 39264, Note_on_c, 0, 64, 72
4, 39360, Note_on_c, 0, 64, 0
4, 39360, Note_on_c, 0, 55, 72
4, 39456, Note_on_c, 0, 55, 0
4, 39456, Note_on_c, 0, 53, 72
4, 39552, Note_on_c, 0, 53, 0
4, 39552, Note_on_c, 0, 49, 72
4, 39648, Note_on_c, 0, 49, 0
4, 39648, Note_on_c, 0, 50, 72
4, 39744, Note_on_c, 0, 50, 0
4, 39744, Note_on_c, 0, 57, 72
4, 39840, Note_on_c, 0, 57, 0
4, 39840, Note_on_c, 0, 62, 72
4, 39936, Note_on_c, 0, 62, 0
4, 39936, Note_on_c, 0, 69, 72
4, 40032, Note_on_c, 0, 69, 0
4, 40032, Note_on_c, 0, 69, 72
4, 40128, Note_on_c, 0, 69, 0
4, 40224, Note_on_c, 0, 62, 88
4, 40416, Note_on_c, 0, 62, 0
4, 40416, Note_on_c, 0, 61, 88
4, 40512, Note_on_c, 0, 61, 0
4, 40512, Note_on_c, 0, 65, 88
4, 40608, Note_on_c, 0, 65, 0
4, 40608, Note_on_c, 0, 59, 88
4, 40704, Note_on_c, 0, 59, 0
4, 40704, Note_on_c, 0, 58, 88
4, 40800, Note_on_c, 0, 58, 0
4, 40800, Note_on_c, 0, 57, 88
4, 40896, Note_on_c, 0, 57, 0
4, 40896, Note_on_c, 0, 62, 88
4, 40992, Note_on_c, 0, 62, 0
4, 40992, Note_on_c, 0, 55, 88
4, 41184, Note_on_c, 0, 55, 0
4, 41184, Note_on_c, 0, 53, 88
4, 41280, Note_on_c, 0, 53, 0
4, 41280, Note_on_c, 0, 55, 88
4, 41376, Note_on_c, 0, 55, 0
4, 41376, Note_on_c, 0, 57, 88
4, 41424, Note_on_c, 0, 57, 0
4, 41424, Note_on_c, 0, 55, 88
4, 41472, Note_on_c, 0, 55, 0
4, 41472, Note_on_c, 0, 57, 88
4, 41568, Note_on_c, 0, 57, 0
4, 41568, Note_on_c, 0, 50, 88
4, 41664, Note_on_c, 0, 50, 0
4, 41664, Note_on_c, 0, 53, 72
4, 41760, Note_on_c, 0, 53, 0
4, 41760, Note_on_c, 0, 60, 72
4, 41904, Note_on_c, 0, 60, 0
4, 41904, Note_on_c, 0, 62, 72
4, 41928, Note_on_c, 0, 62, 0
4, 41928, Note_on_c, 0, 60, 72
4, 41952, Note_on_c, 0, 60, 0
4, 41952, Note_on_c, 0, 59, 72
4, 42048, Note_on_c, 0, 59, 0
4, 42048, Note_on_c, 0, 60, 72
4, 42192, Note_on_c, 0, 60, 0
4, 42192, Note_on_c, 0, 57, 72
4, 42240, Note_on_c, 0, 57, 0
4, 42240, Note_on_c, 0, 58, 72
4, 42288, Note_on_c, 0, 58, 0
4, 42288, Note_on_c, 0, 58, 72
4, 42336, Note_on_c, 0, 58, 0
4, 42336, Note_on_c, 0, 58, 72
4, 42384, Note_on_c, 0, 58, 0
4, 42384, Note_on_c, 0, 55, 72
4, 42432, Note_on_c, 0, 55, 0
4, 42432, Note_on_c, 0, 57, 72
4, 42480, Note_on_c, 0, 57, 0
4, 42480, Note_on_c, 0, 57, 72
4, 42528, Note_on_c, 0, 57, 0
4, 42528, Note_on_c, 0, 55, 72
4, 42624, Note_on_c, 0, 55, 0
4, 42624, Note_on_c, 0, 67, 72
4, 42720, Note_on_c, 0, 67, 0
4, 42720, Note_on_c, 0, 64, 72
4, 42816, Note_on_c, 0, 64, 0
4, 42816, Note_on_c, 0, 62, 72
4, 43008, Note_on_c, 0, 62, 0
4, 43008, Note_on_c, 0, 60, 72
4, 43104, Note_on_c, 0, 60, 0
4, 43104, Note_on_c, 0, 60, 72
4, 43200, Note_on_c, 0, 60, 0
4, 43200, Note_on_c, 0, 58, 72
4, 43248, Note_on_c, 0, 58, 0
4, 43248, Note_on_c, 0, 60, 72
4, 43296, Note_on_c, 0, 60, 0
4, 43296, Note_on_c, 0, 62, 72
4, 43392, Note_on_c, 0, 62, 0
4, 43392, Note_on_c, 0, 60, 72
4, 43488, Note_on_c, 0, 60, 0
4, 43488, Note_on_c, 0, 58, 72
4, 43632, Note_on_c, 0, 58, 0
4, 43632, Note_on_c, 0, 57, 72
4, 43680, Note_on_c, 0, 57, 0
4, 43680, Note_on_c, 0, 55, 72
4, 43728, Note_on_c, 0, 55, 0
4, 43728, Note_on_c, 0, 58, 72
4, 43776, Note_on_c, 0, 58, 0
4, 43776, Note_on_c, 0, 57, 72
4, 43824, Note_on_c, 0, 57, 0
4, 43824, Note_on_c, 0, 55, 72
4, 43872, Note_on_c, 0, 55, 0
4, 43872, Note_on_c, 0, 57, 72
4, 43968, Note_on_c, 0, 57, 0
4, 43968, Note_on_c, 0, 62, 72
4, 44016, Note_on_c, 0, 62, 0
4, 44016, Note_on_c, 0, 60, 72
4, 44064, Note_on_c, 0, 60, 0
4, 44064, Note_on_c, 0, 59, 72
4, 44112, Note_on_c, 0, 59, 0
4, 44112, Note_on_c, 0, 61, 72
4, 44160, Note_on_c, 0, 61, 0
4, 44160, Note_on_c, 0, 62, 72
4, 44256, Note_on_c, 0, 62, 0
4, 44256, Note_on_c, 0, 62, 72
4, 44304, Note_on_c, 0, 62, 0
4, 44304, Note_on_c, 0, 61, 72
4, 44352, Note_on_c, 0, 61, 0
4, 44352, Note_on_c, 0, 67, 72
4, 44496, Note_on_c, 0, 67, 0
4, 44496, Note_on_c, 0, 64, 72
4, 44544, Note_on_c, 0, 64, 0
4, 44544, Note_on_c, 0, 65, 72
4, 44592, Note_on_c, 0, 65, 0
4, 44592, Note_on_c, 0, 65, 72
4, 44640, Note_on_c, 0, 65, 0
4, 44640, Note_on_c, 0, 65, 72
4, 44688, Note_on_c, 0, 65, 0
4, 44688, Note_on_c, 0, 63, 72
4, 44736, Note_on_c, 0, 63, 0
4, 44736, Note_on_c, 0, 64, 72
4, 44784, Note_on_c, 0, 64, 0
4, 44784, Note_on_c, 0, 64, 72
4, 44832, Note_on_c, 0, 64, 0
4, 44832, Note_on_c, 0, 64, 72
4, 44880, Note_on_c, 0, 64, 0
4, 44880, Note_on_c, 0, 57, 72
4, 44928, Note_on_c, 0, 57, 0
4, 44928, Note_on_c, 0, 62, 72
4, 44976, Note_on_c, 0, 62, 0
4, 44976, Note_on_c, 0, 61, 72
4, 45024, Note_on_c, 0, 61, 0
4, 45024, Note_on_c, 0, 59, 72
4, 45120, Note_on_c, 0, 59, 0
4, 45120, Note_on_c, 0, 58, 72
4, 45216, Note_on_c, 0, 58, 0
4, 45216, Note_on_c, 0, 57, 72
4, 45312, Note_on_c, 0, 57, 0
4, 45360, Note_on_c, 0, 57, 72
4, 45408, Note_on_c, 0, 57, 0
4, 45408, Note_on_c, 0, 56, 72
4, 45504, Note_on_c, 0, 56, 0
4, 45504, Note_on_c, 0, 55, 72
4, 45600, Note_on_c, 0, 55, 0
4, 45600, Note_on_c, 0, 54, 72
4, 45696, Note_on_c, 0, 54, 0
4, 45696, Note_on_c, 0, 53, 72
4, 45792, Note_on_c, 0, 53, 0
4, 45792, Note_on_c, 0, 52, 72
4, 46080, Note_on_c, 0, 52, 0
4, 46080, Note_on_c, 0, 51, 72
4, 46176, Note_on_c, 0, 51, 0
4, 46176, Note_on_c, 0, 52, 72
4, 46272, Note_on_c, 0, 52, 0
4, 46272, Note_on_c, 0, 64, 72
4, 46464, Note_on_c, 0, 64, 0
4, 46464, Note_on_c, 0, 63, 72
4, 46560, Note_on_c, 0, 63, 0
4, 46560, Note_on_c, 0, 64, 72
4, 46656, Note_on_c, 0, 64, 0
4, 46656, Note_on_c, 0, 56, 72
4, 46752, Note_on_c, 0, 56, 0
4, 46752, Note_on_c, 0, 57, 72
4, 46848, Note_on_c, 0, 57, 0
4, 47232, Note_on_c, 0, 64, 72
4, 47328, Note_on_c, 0, 64, 0
4, 47328, Note_on_c, 0, 65, 72
4, 47424, Note_on_c, 0, 65, 0
4, 47424, Note_on_c, 0, 66, 72
4, 47520, Note_on_c, 0, 66, 0
4, 47520, Note_on_c, 0, 67, 72
4, 47616, Note_on_c, 0, 67, 0
4, 47616, Note_on_c, 0, 68, 72
4, 47712, Note_on_c, 0, 68, 0
4, 47712, Note_on_c, 0, 69, 72
4, 47904, Note_on_c, 0, 69, 0
4, 47904, Note_on_c, 0, 69, 72
4, 47952, Note_on_c, 0, 69, 0
4, 47952, Note_on_c, 0, 65, 72
4, 48000, Note_on_c, 0, 65, 0
4, 48000, Note_on_c, 0, 67, 72
4, 48048, Note_on_c, 0, 67, 0
4, 48048, Note_on_c, 0, 67, 72
4, 48096, Note_on_c, 0, 67, 0
4, 48096, Note_on_c, 0, 67, 72
4, 48144, Note_on_c, 0, 67, 0
4, 48144, Note_on_c, 0, 64, 72
4, 48192, Note_on_c, 0, 64, 0
4, 48192, Note_on_c, 0, 65, 72
4, 48240, Note_on_c, 0, 65, 0
4, 48240, Note_on_c, 0, 65, 72
4, 48288, Note_on_c, 0, 65, 0
4, 48288, Note_on_c, 0, 65, 72
4, 48336, Note_on_c, 0, 65, 0
4, 48336, Note_on_c, 0, 62, 72
4, 48384, Note_on_c, 0, 62, 0
4, 48384, Note_on_c, 0, 64, 72
4, 48432, Note_on_c, 0, 64, 0
4, 48432, Note_on_c, 0, 64, 72
4, 48480, Note_on_c, 0, 64, 0
4, 48480, Note_on_c, 0, 64, 72
4, 48528, Note_on_c, 0, 64, 0
4, 48528, Note_on_c, 0, 60, 72
4, 48576, Note_on_c, 0, 60, 0
4, 48576, Note_on_c, 0, 62, 72
4, 48624, Note_on_c, 0, 62, 0
4, 48624, Note_on_c, 0, 62, 72
4, 48672, Note_on_c, 0, 62, 0
4, 48672, Note_on_c, 0, 62, 72
4, 48864, Note_on_c, 0, 62, 0
4, 48864, Note_on_c, 0, 62, 72
4, 48960, Note_on_c, 0, 62, 0
4, 48960, Note_on_c, 0, 60, 72
4, 49056, Note_on_c, 0, 60, 0
4, 49056, Note_on_c, 0, 65, 72
4, 49152, Note_on_c, 0, 65, 0
4, 49152, Note_on_c, 0, 59, 72
4, 49248, Note_on_c, 0, 59, 0
4, 49248, Note_on_c, 0, 60, 72
4, 49296, Note_on_c, 0, 60, 0
4, 49296, Note_on_c, 0, 62, 72
4, 49344, Note_on_c, 0, 62, 0
4, 49344, Note_on_c, 0, 64, 72
4, 49392, Note_on_c, 0, 64, 0
4, 49392, Note_on_c, 0, 64, 72
4, 49440, Note_on_c, 0, 64, 0
4, 49440, Note_on_c, 0, 64, 72
4, 49488, Note_on_c, 0, 64, 0
4, 49488, Note_on_c, 0, 61, 72
4, 49536, Note_on_c, 0, 61, 0
4, 49536, Note_on_c, 0, 62, 72
4, 49584, Note_on_c, 0, 62, 0
4, 49584, Note_on_c, 0, 62, 72
4, 49632, Note_on_c, 0, 62, 0
4, 49632, Note_on_c, 0, 62, 72
4, 49680, Note_on_c, 0, 62, 0
4, 49680, Note_on_c, 0, 59, 72
4, 49728, Note_on_c, 0, 59, 0
4, 49728, Note_on_c, 0, 60, 72
4, 49776, Note_on_c, 0, 60, 0
4, 49776, Note_on_c, 0, 60, 72
4, 49824, Note_on_c, 0, 60, 0
4, 49824, Note_on_c, 0, 62, 72
4, 49872, Note_on_c, 0, 62, 0
4, 49872, Note_on_c, 0, 65, 72
4, 49920, Note_on_c, 0, 65, 0
4, 49920, Note_on_c, 0, 58, 72
4, 49968, Note_on_c, 0, 58, 0
4, 49968, Note_on_c, 0, 58, 72
4, 50016, Note_on_c, 0, 58, 0
4, 50016, Note_on_c, 0, 58, 72
4, 50064, Note_on_c, 0, 58, 0
4, 50064, Note_on_c, 0, 55, 72
4, 50112, Note_on_c, 0, 55, 0
4, 50112, Note_on_c, 0, 57, 72
4, 50160, Note_on_c, 0, 57, 0
4, 50160, Note_on_c, 0, 57, 72
4, 50208, Note_on_c, 0, 57, 0
4, 50208, Note_on_c, 0, 57, 72
4, 50256, Note_on_c, 0, 57, 0
4, 50256, Note_on_c, 0, 53, 72
4, 50304, Note_on_c, 0, 53, 0
4, 50304, Note_on_c, 0, 55, 72
4, 50352, Note_on_c, 0, 55, 0
4, 50352, Note_on_c, 0, 55, 72
4, 50400, Note_on_c, 0, 55, 0
4, 50400, Note_on_c, 0, 55, 72
4, 50448, Note_on_c, 0, 55, 0
4, 50448, Note_on_c, 0, 52, 72
4, 50496, Note_on_c, 0, 52, 0
4, 50496, Note_on_c, 0, 53, 72
4, 50592, Note_on_c, 0, 53, 0
4, 50688, Note_on_c, 0, 58, 88
4, 50784, Note_on_c, 0, 58, 0
4, 50784, Note_on_c, 0, 57, 88
4, 50976, Note_on_c, 0, 57, 0
4, 50976, Note_on_c, 0, 55, 88
4, 51168, Note_on_c, 0, 55, 0
4, 51168, Note_on_c, 0, 55, 88
4, 51264, Note_on_c, 0, 55, 0
4, 51264, Note_on_c, 0, 52, 88
4, 51360, Note_on_c, 0, 52, 0
4, 51360, Note_on_c, 0, 53, 88
4, 51456, Note_on_c, 0, 53, 0
4, 51456, Note_on_c, 0, 55, 88
4, 51552, Note_on_c, 0, 55, 0
4, 51552, Note_on_c, 0, 57, 88
4, 51696, Note_on_c, 0, 57, 0
4, 51696, Note_on_c, 0, 58, 88
4, 51744, Note_on_c, 0, 58, 0
4, 51744, Note_on_c, 0, 58, 88
4, 51792, Note_on_c, 0, 58, 0
4, 51792, Note_on_c, 0, 57, 88
4, 51840, Note_on_c, 0, 57, 0
4, 51840, Note_on_c, 0, 57, 88
4, 51888, Note_on_c, 0, 57, 0
4, 51888, Note_on_c, 0, 55, 88
4, 51936, Note_on_c, 0, 55, 0
4, 51936, Note_on_c, 0, 57, 88
4, 52128, Note_on_c, 0, 57, 0
4, 52224, Note_on_c, 0, 57, 88
4, 52320, Note_on_c, 0, 57, 0
4, 52320, Note_on_c, 0, 58, 88
4, 52416, Note_on_c, 0, 58, 0
4, 52416, Note_on_c, 0, 53, 88
4, 52512, Note_on_c, 0, 53, 0
4, 52512, Note_on_c, 0, 60, 88
4, 52608, Note_on_c, 0, 60, 0
4, 52608, Note_on_c, 0, 61, 88
4, 52704, Note_on_c, 0, 61, 0
4, 52704, Note_on_c, 0, 62, 88
4, 52800, Note_on_c, 0, 62, 0
4, 52800, Note_on_c, 0, 57, 88
4, 52896, Note_on_c, 0, 57, 0
4, 52896, Note_on_c, 0, 64, 88
4, 53088, Note_on_c, 0, 64, 0
4, 53088, Note_on_c, 0, 65, 88
4, 53184, Note_on_c, 0, 65, 0
4, 53184, Note_on_c, 0, 64, 88
4, 53280, Note_on_c, 0, 64, 0
4, 53280, Note_on_c, 0, 62, 88
4, 53328, Note_on_c, 0, 62, 0
4, 53328, Note_on_c, 0, 64, 88
4, 53376, Note_on_c, 0, 64, 0
4, 53376, Note_on_c, 0, 62, 88
4, 53472, Note_on_c, 0, 62, 0
4, 53472, Note_on_c, 0, 69, 88
4, 53520, Note_on_c, 0, 69, 0
4, 53520, Note_on_c, 0, 64, 72
4, 53568, Note_on_c, 0, 64, 0
4, 53568, Note_on_c, 0, 69, 72
4, 53616, Note_on_c, 0, 69, 0
4, 53616, Note_on_c, 0, 69, 72
4, 53664, Note_on_c, 0, 69, 0
4, 53664, Note_on_c, 0, 69, 72
4, 53712, Note_on_c, 0, 69, 0
4, 53712, Note_on_c, 0, 66, 72
4, 53760, Note_on_c, 0, 66, 0
4, 53760, Note_on_c, 0, 67, 72
4, 53808, Note_on_c, 0, 67, 0
4, 53808, Note_on_c, 0, 67, 72
4, 53856, Note_on_c, 0, 67, 0
4, 53856, Note_on_c, 0, 67, 72
4, 53904, Note_on_c, 0, 67, 0
4, 53904, Note_on_c, 0, 64, 72
4, 53952, Note_on_c, 0, 64, 0
4, 53952, Note_on_c, 0, 65, 72
4, 54000, Note_on_c, 0, 65, 0
4, 54000, Note_on_c, 0, 65, 72
4, 54048, Note_on_c, 0, 65, 0
4, 54048, Note_on_c, 0, 65, 72
4, 54096, Note_on_c, 0, 65, 0
4, 54096, Note_on_c, 0, 68, 72
4, 54144, Note_on_c, 0, 68, 0
4, 54144, Note_on_c, 0, 67, 72
4, 54192, Note_on_c, 0, 67, 0
4, 54192, Note_on_c, 0, 67, 72
4, 54240, Note_on_c, 0, 67, 0
4, 54240, Note_on_c, 0, 67, 72
4, 54288, Note_on_c, 0, 67, 0
4, 54288, Note_on_c, 0, 70, 72
4, 54336, Note_on_c, 0, 70, 0
4, 54336, Note_on_c, 0, 69, 72
4, 54432, Note_on_c, 0, 69, 0
4, 54432, Note_on_c, 0, 60, 72
4, 54624, Note_on_c, 0, 60, 0
4, 54624, Note_on_c, 0, 58, 72
4, 54720, Note_on_c, 0, 58, 0
4, 54912, Note_on_c, 0, 67, 72
4, 55008, Note_on_c, 0, 67, 0
4, 55008, Note_on_c, 0, 66, 72
4, 55104, Note_on_c, 0, 66, 0
4, 55104, Note_on_c, 0, 64, 72
4, 55296, Note_on_c, 0, 64, 0
4, 55296, Note_on_c, 0, 62, 72
4, 55392, Note_on_c, 0, 62, 0
4, 55392, Note_on_c, 0, 62, 72
4, 55488, Note_on_c, 0, 62, 0
4, 55872, Note_on_c, 0, 52, 88
4, 55968, Note_on_c, 0, 52, 0
4, 55968, Note_on_c, 0, 59, 88
4, 56064, Note_on_c, 0, 59, 0
4, 56064, Note_on_c, 0, 57, 88
4, 56160, Note_on_c, 0, 57, 0
4, 56256, Note_on_c, 0, 55, 88
4, 56352, Note_on_c, 0, 55, 0
4, 56352, Note_on_c, 0, 54, 88
4, 56448, Note_on_c, 0, 54, 0
4, 56448, Note_on_c, 0, 52, 88
4, 56544, Note_on_c, 0, 52, 0
4, 56640, Note_on_c, 0, 51, 88
4, 56736, Note_on_c, 0, 51, 0
4, 56736, Note_on_c, 0, 52, 88
4, 56832, Note_on_c, 0, 52, 0
4, 56832, Note_on_c, 0, 54, 88
4, 56928, Note_on_c, 0, 54, 0
4, 57024, Note_on_c, 0, 55, 88
4, 57072, Note_on_c, 0, 55, 0
4, 57072, Note_on_c, 0, 57, 88
4, 57120, Note_on_c, 0, 57, 0
4, 57120, Note_on_c, 0, 55, 88
4, 57216, Note_on_c, 0, 55, 0
4, 57216, Note_on_c, 0, 54, 88
4, 57312, Note_on_c, 0, 54, 0
4, 57312, Note_on_c, 0, 52, 88
4, 57504, Note_on_c, 0, 52, 0
4, 57600, Note_on_c, 0, 64, 72
4, 57696, Note_on_c, 0, 64, 0
4, 57696, Note_on_c, 0, 64, 72
4, 57744, Note_on_c, 0, 64, 0
4, 57744, Note_on_c, 0, 61, 72
4, 57792, Note_on_c, 0, 61, 0
4, 57792, Note_on_c, 0, 62, 72
4, 57840, Note_on_c, 0, 62, 0
4, 57840, Note_on_c, 0, 62, 72
4, 57888, Note_on_c, 0, 62, 0
4, 57888, Note_on_c, 0, 62, 72
4, 57936, Note_on_c, 0, 62, 0
4, 57936, Note_on_c, 0, 59, 72
4, 57984, Note_on_c, 0, 59, 0
4, 57984, Note_on_c, 0, 60, 72
4, 58032, Note_on_c, 0, 60, 0
4, 58032, Note_on_c, 0, 60, 72
4, 58080, Note_on_c, 0, 60, 0
4, 58080, Note_on_c, 0, 59, 72
4, 58176, Note_on_c, 0, 59, 0
4, 58176, Note_on_c, 0, 58, 72
4, 58272, Note_on_c, 0, 58, 0
4, 58272, Note_on_c, 0, 57, 72
4, 58416, Note_on_c, 0, 57, 0
4, 58416, Note_on_c, 0, 60, 72
4, 58464, Note_on_c, 0, 60, 0
4, 58464, Note_on_c, 0, 58, 72
4, 58512, Note_on_c, 0, 58, 0
4, 58512, Note_on_c, 0, 57, 72
4, 58560, Note_on_c, 0, 57, 0
4, 58560, Note_on_c, 0, 58, 72
4, 58656, Note_on_c, 0, 58, 0
4, 58752, Note_on_c, 0, 57, 72
4, 58800, Note_on_c, 0, 57, 0
4, 58800, Note_on_c, 0, 59, 72
4, 58848, Note_on_c, 0, 59, 0
4, 58848, Note_on_c, 0, 61, 72
4, 58896, Note_on_c, 0, 61, 0
4, 58896, Note_on_c, 0, 59, 72
4, 58944, Note_on_c, 0, 59, 0
4, 58944, Note_on_c, 0, 61, 72
4, 59040, Note_on_c, 0, 61, 0
4, 59136, Note_on_c, 0, 60, 72
4, 59232, Note_on_c, 0, 60, 0
4, 59232, Note_on_c, 0, 59, 72
4, 59280, Note_on_c, 0, 59, 0
4, 59280, Note_on_c, 0, 62, 72
4, 59328, Note_on_c, 0, 62, 0
4, 59328, Note_on_c, 0, 60, 72
4, 59376, Note_on_c, 0, 60, 0
4, 59376, Note_on_c, 0, 60, 72
4, 59424, Note_on_c, 0, 60, 0
4, 59424, Note_on_c, 0, 60, 72
4, 59616, Note_on_c, 0, 60, 0
4, 59616, Note_on_c, 0, 60, 72
4, 59664, Note_on_c, 0, 60, 0
4, 59664, Note_on_c, 0, 57, 72
4, 59712, Note_on_c, 0, 57, 0
4, 59712, Note_on_c, 0, 58, 88
4, 59760, Note_on_c, 0, 58, 0
4, 59760, Note_on_c, 0, 58, 88
4, 59808, Note_on_c, 0, 58, 0
4, 59808, Note_on_c, 0, 58, 88
4, 59856, Note_on_c, 0, 58, 0
4, 59856, Note_on_c, 0, 55, 88
4, 59904, Note_on_c, 0, 55, 0
4, 59904, Note_on_c, 0, 57, 88
4, 59952, Note_on_c, 0, 57, 0
4, 59952, Note_on_c, 0, 57, 88
4, 60000, Note_on_c, 0, 57, 0
4, 60000, Note_on_c, 0, 57, 88
4, 60048, Note_on_c, 0, 57, 0
4, 60048, Note_on_c, 0, 54, 88
4, 60096, Note_on_c, 0, 54, 0
4, 60096, Note_on_c, 0, 55, 88
4, 60144, Note_on_c, 0, 55, 0
4, 60144, Note_on_c, 0, 55, 88
4, 60192, Note_on_c, 0, 55, 0
4, 60192, Note_on_c, 0, 55, 88
4, 60240, Note_on_c, 0, 55, 0
4, 60240, Note_on_c, 0, 52, 88
4, 60288, Note_on_c, 0, 52, 0
4, 60288, Note_on_c, 0, 53, 88
4, 60336, Note_on_c, 0, 53, 0
4, 60336, Note_on_c, 0, 53, 88
4, 60384, Note_on_c, 0, 53, 0
4, 60384, Note_on_c, 0, 52, 88
4, 60432, Note_on_c, 0, 52, 0
4, 60432, Note_on_c, 0, 57, 88
4, 60480, Note_on_c, 0, 57, 0
4, 60480, Program_c, 0, 5
4, 60480, Note_on_c, 0, 61, 88
4, 60576, Note_on_c, 0, 61, 0
4, 60672, Note_on_c, 0, 70, 72
4, 60768, Note_on_c, 0, 70, 0
4, 60768, Note_on_c, 0, 70, 72
4, 60816, Note_on_c, 0, 70, 0
4, 60816, Note_on_c, 0, 69, 72
4, 60864, Note_on_c, 0, 69, 0
4, 60864, Note_on_c, 0, 74, 72
4, 61008, Note_on_c, 0, 74, 0
4, 61008, Note_on_c, 0, 72, 72
4, 61056, Note_on_c, 0, 72, 0
4, 61056, Note_on_c, 0, 70, 72
4, 61104, Note_on_c, 0, 70, 0
4, 61104, Note_on_c, 0, 69, 72
4, 61152, Note_on_c, 0, 69, 0
4, 61152, Note_on_c, 0, 70, 72
4, 61248, Note_on_c, 0, 70, 0
4, 61392, Note_on_c, 0, 57, 72
4, 61440, Note_on_c, 0, 57, 0
4, 61440, Note_on_c, 0, 61, 72
4, 61488, Note_on_c, 0, 61, 0
4, 61488, Note_on_c, 0, 57, 72
4, 61536, Note_on_c, 0, 57, 0
4, 61536, Note_on_c, 0, 62, 72
4, 61680, Note_on_c, 0, 62, 0
4, 61680, Note_on_c, 0, 61, 72
4, 61728, Note_on_c, 0, 61, 0
4, 61728, Note_on_c, 0, 62, 72
4, 61872, Note_on_c, 0, 62, 0
4, 61872, Note_on_c, 0, 60, 72
4, 61920, Note_on_c, 0, 60, 0
4, 61920, Note_on_c, 0, 60, 72
4, 61968, Note_on_c, 0, 60, 0
4, 61968, Note_on_c, 0, 57, 72
4, 62016, Note_on_c, 0, 57, 0
4, 62016, Note_on_c, 0, 58, 72
4, 62064, Note_on_c, 0, 58, 0
4, 62064, Note_on_c, 0, 58, 72
4, 62112, Note_on_c, 0, 58, 0
4, 62112, Note_on_c, 0, 58, 72
4, 62304, Note_on_c, 0, 58, 0
4, 62304, Note_on_c, 0, 58, 72
4, 62352, Note_on_c, 0, 58, 0
4, 62352, Note_on_c, 0, 55, 72
4, 62400, Note_on_c, 0, 55, 0
4, 62400, Note_on_c, 0, 56, 72
4, 62448, Note_on_c, 0, 56, 0
4, 62448, Note_on_c, 0, 56, 72
4, 62496, Note_on_c, 0, 56, 0
4, 62496, Note_on_c, 0, 56, 72
4, 62688, Note_on_c, 0, 56, 0
4, 62688, Note_on_c, 0, 56, 72
4, 62736, Note_on_c, 0, 56, 0
4, 62736, Note_on_c, 0, 53, 72
4, 62784, Note_on_c, 0, 53, 0
4, 62784, Program_c, 0, 1
4, 62784, Note_on_c, 0, 55, 88
4, 62880, Note_on_c, 0, 55, 0
4, 62880, Note_on_c, 0, 62, 88
4, 62976, Note_on_c, 0, 62, 0
4, 62976, Note_on_c, 0, 60, 88
4, 63072, Note_on_c, 0, 60, 0
4, 63168, Note_on_c, 0, 58, 88
4, 63264, Note_on_c, 0, 58, 0
4, 63264, Note_on_c, 0, 57, 88
4, 63360, Note_on_c, 0, 57, 0
4, 63360, Note_on_c, 0, 55, 88
4, 63456, Note_on_c, 0, 55, 0
4, 63552, Note_on_c, 0, 54, 88
4, 63648, Note_on_c, 0, 54, 0
4, 63648, Note_on_c, 0, 55, 88
4, 63744, Note_on_c, 0, 55, 0
4, 63744, Note_on_c, 0, 57, 88
4, 63840, Note_on_c, 0, 57, 0
4, 63936, Note_on_c, 0, 58, 88
4, 63984, Note_on_c, 0, 58, 0
4, 63984, Note_on_c, 0, 60, 88
4, 64032, Note_on_c, 0, 60, 0
4, 64032, Note_on_c, 0, 58, 88
4, 64128, Note_on_c, 0, 58, 0
4, 64128, Note_on_c, 0, 57, 88
4, 64224, Note_on_c, 0, 57, 0
4, 64224, Note_on_c, 0, 55, 88
4, 64320, Note_on_c, 0, 55, 0
4, 64704, Note_on_c, 0, 62, 72
4, 64848, Note_on_c, 0, 62, 0
4, 64848, Note_on_c, 0, 66, 72
4, 64896, Note_on_c, 0, 66, 0
4, 64896, Note_on_c, 0, 64, 72
4, 64944, Note_on_c, 0, 64, 0
4, 64944, Note_on_c, 0, 64, 72
4, 64992, Note_on_c, 0, 64, 0
4, 64992, Note_on_c, 0, 64, 72
4, 65040, Note_on_c, 0, 64, 0
4, 65040, Note_on_c, 0, 67, 72
4, 65088, Note_on_c, 0, 67, 0
4, 65088, Note_on_c, 0, 65, 72
4, 65136, Note_on_c, 0, 65, 0
4, 65136, Note_on_c, 0, 65, 72
4, 65184, Note_on_c, 0, 65, 0
4, 65184, Note_on_c, 0, 65, 72
4, 65232, Note_on_c, 0, 65, 0
4, 65232, Note_on_c, 0, 69, 72
4, 65280, Note_on_c, 0, 69, 0
4, 65280, Note_on_c, 0, 67, 72
4, 65328, Note_on_c, 0, 67, 0
4, 65328, Note_on_c, 0, 67, 72
4, 65376, Note_on_c, 0, 67, 0
4, 65376, Note_on_c, 0, 61, 72
4, 65472, Note_on_c, 0, 61, 0
4, 65472, Note_on_c, 0, 62, 72
4, 65568, Note_on_c, 0, 62, 0
4, 65568, Note_on_c, 0, 55, 72
4, 65760, Note_on_c, 0, 55, 0
4, 65760, Note_on_c, 0, 55, 72
4, 65856, Note_on_c, 0, 55, 0
4, 65856, Note_on_c, 0, 53, 72
4, 65952, Note_on_c, 0, 53, 0
4, 66048, Note_on_c, 0, 62, 72
4, 66144, Note_on_c, 0, 62, 0
4, 66144, Note_on_c, 0, 61, 72
4, 66336, Note_on_c, 0, 61, 0
4, 66432, Note_on_c, 0, 62, 72
4, 66528, Note_on_c, 0, 62, 0
4, 66528, Note_on_c, 0, 61, 72
4, 66624, Note_on_c, 0, 61, 0
4, 66624, Note_on_c, 0, 62, 72
4, 66720, Note_on_c, 0, 62, 0
4, 66816, Note_on_c, 0, 49, 72
4, 66912, Note_on_c, 0, 49, 0
4, 66912, Note_on_c, 0, 50, 72
4, 66960, Note_on_c, 0, 50, 0
4, 66960, Note_on_c, 0, 52, 72
4, 67008, Note_on_c, 0, 52, 0
4, 67008, Note_on_c, 0, 53, 72
4, 67056, Note_on_c, 0, 53, 0
4, 67056, Note_on_c, 0, 53, 72
4, 67104, Note_on_c, 0, 53, 0
4, 67104, Note_on_c, 0, 53, 72
4, 67152, Note_on_c, 0, 53, 0
4, 67152, Note_on_c, 0, 52, 72
4, 67200, Note_on_c, 0, 52, 0
4, 67200, Note_on_c, 0, 55, 72
4, 67248, Note_on_c, 0, 55, 0
4, 67248, Note_on_c, 0, 55, 72
4, 67296, Note_on_c, 0, 55, 0
4, 67296, Note_on_c, 0, 55, 72
4, 67344, Note_on_c, 0, 55, 0
4, 67344, Note_on_c, 0, 53, 72
4, 67392, Note_on_c, 0, 53, 0
4, 67392, Note_on_c, 0, 57, 72
4, 67440, Note_on_c, 0, 57, 0
4, 67440, Note_on_c, 0, 57, 72
4, 67488, Note_on_c, 0, 57, 0
4, 67488, Note_on_c, 0, 57, 72
4, 67536, Note_on_c, 0, 57, 0
4, 67536, Note_on_c, 0, 55, 72
4, 67584, Note_on_c, 0, 55, 0
4, 67584, Note_on_c, 0, 58, 72
4, 67632, Note_on_c, 0, 58, 0
4, 67632, Note_on_c, 0, 58, 72
4, 67680, Note_on_c, 0, 58, 0
4, 67680, Note_on_c, 0, 58, 72
4, 67728, Note_on_c, 0, 58, 0
4, 67728, Note_on_c, 0, 57, 72
4, 67776, Note_on_c, 0, 57, 0
4, 67776, Note_on_c, 0, 58, 72
4, 67824, Note_on_c, 0, 58, 0
4, 67824, Note_on_c, 0, 55, 72
4, 67872, Note_on_c, 0, 55, 0
4, 67872, Note_on_c, 0, 57, 72
4, 68016, Note_on_c, 0, 57, 0
4, 68016, Note_on_c, 0, 55, 72
4, 68064, Note_on_c, 0, 55, 0
4, 68064, Note_on_c, 0, 53, 72
4, 68112, Note_on_c, 0, 53, 0
4, 68112, Note_on_c, 0, 52, 72
4, 68160, Note_on_c, 0, 52, 0
4, 68160, Note_on_c, 0, 50, 72
4, 68256, Note_on_c, 0, 50, 0
4, 68256, Note_on_c, 0, 57, 72
4, 68448, Note_on_c, 0, 57, 0
4, 68448, Note_on_c, 0, 57, 72
4, 68544, Note_on_c, 0, 57, 0
4, 68544, Note_on_c, 0, 55, 72
4, 68736, Note_on_c, 0, 55, 0
4, 68736, Program_c, 0, 41
4, 68736, Note_on_c, 0, 57, 88
4, 68832, Note_on_c, 0, 57, 0
4, 68832, Note_on_c, 0, 58, 88
4, 68928, Note_on_c, 0, 58, 0
4, 68928, Note_on_c, 0, 53, 88
4, 69024, Note_on_c, 0, 53, 0
4, 69024, Note_on_c, 0, 60, 88
4, 69120, Note_on_c, 0, 60, 0
4, 69120, Note_on_c, 0, 61, 88
4, 69216, Note_on_c, 0, 61, 0
4, 69216, Note_on_c, 0, 62, 88
4, 69312, Note_on_c, 0, 62, 0
4, 69312, Note_on_c, 0, 57, 88
4, 69408, Note_on_c, 0, 57, 0
4, 69408, Note_on_c, 0, 64, 88
4, 69600, Note_on_c, 0, 64, 0
4, 69600, Note_on_c, 0, 65, 88
4, 69696, Note_on_c, 0, 65, 0
4, 69696, Note_on_c, 0, 64, 88
4, 69792, Note_on_c, 0, 64, 0
4, 69792, Note_on_c, 0, 62, 88
4, 69840, Note_on_c, 0, 62, 0
4, 69840, Note_on_c, 0, 64, 88
4, 69888, Note_on_c, 0, 64, 0
4, 69888, Note_on_c, 0, 62, 88
4, 69984, Note_on_c, 0, 62, 0
4, 69984, Note_on_c, 0, 69, 88
4, 70080, Note_on_c, 0, 69, 0
4, 70080, Note_on_c, 0, 62, 88
4, 70176, Note_on_c, 0, 62, 0
4, 70176, Note_on_c, 0, 57, 88
4, 70368, Note_on_c, 0, 57, 0
4, 70368, Note_on_c, 0, 57, 88
4, 70752, Note_on_c, 0, 57, 0
4, 70752, End_track
5, 0, Start_track
5, 0, Program_c, 0, 5
5, 3168, Note_on_c, 0, 50, 88
5, 3264, Note_on_c, 0, 50, 0
5, 3264, Note_on_c, 0, 57, 88
5, 3360, Note_on_c, 0, 57, 0
5, 3360, Note_on_c, 0, 55, 88
5, 3456, Note_on_c, 0, 55, 0
5, 3552, Note_on_c, 0, 53, 88
5, 3648, Note_on_c, 0, 53, 0
5, 3648, Note_on_c, 0, 52, 88
5, 3744, Note_on_c, 0, 52, 0
5, 3744, Note_on_c, 0, 50, 88
5, 3840, Note_on_c, 0, 50, 0
5, 3936, Note_on_c, 0, 49, 88
5, 4032, Note_on_c, 0, 49, 0
5, 4032, Note_on_c, 0, 50, 88
5, 4128, Note_on_c, 0, 50, 0
5, 4128, Note_on_c, 0, 52, 88
5, 4224, Note_on_c, 0, 52, 0
5, 4320, Note_on_c, 0, 53, 88
5, 4368, Note_on_c, 0, 53, 0
5, 4368, Note_on_c, 0, 55, 88
5, 4416, Note_on_c, 0, 55, 0
5, 4416, Note_on_c, 0, 53, 88
5, 4512, Note_on_c, 0, 53, 0
5, 4512, Note_on_c, 0, 52, 88
5, 4608, Note_on_c, 0, 52, 0
5, 4608, Note_on_c, 0, 50, 88
5, 4800, Note_on_c, 0, 50, 0
5, 4896, Note_on_c, 0, 52, 72
5, 4992, Note_on_c, 0, 52, 0
5, 4992, Note_on_c, 0, 53, 72
5, 5088, Note_on_c, 0, 53, 0
5, 5088, Note_on_c, 0, 52, 72
5, 5136, Note_on_c, 0, 52, 0
5, 5136, Note_on_c, 0, 50, 72
5, 5184, Note_on_c, 0, 50, 0
5, 5184, Note_on_c, 0, 52, 72
5, 5280, Note_on_c, 0, 52, 0
5, 5280, Note_on_c, 0, 53, 72
5, 5376, Note_on_c, 0, 53, 0
5, 5376, Note_on_c, 0, 47, 72
5, 5472, Note_on_c, 0, 47, 0
5, 5472, Note_on_c, 0, 48, 72
5, 5520, Note_on_c, 0, 48, 0
5, 5520, Note_on_c, 0, 50, 72
5, 5568, Note_on_c, 0, 50, 0
5, 5568, Note_on_c, 0, 48, 72
5, 5664, Note_on_c, 0, 48, 0
5, 5664, Note_on_c, 0, 47, 72
5, 5760, Note_on_c, 0, 47, 0
5, 5760, Note_on_c, 0, 45, 72
5, 5856, Note_on_c, 0, 45, 0
5, 5856, Note_on_c, 0, 57, 72
5, 5952, Note_on_c, 0, 57, 0
5, 5952, Note_on_c, 0, 50, 72
5, 6048, Note_on_c, 0, 50, 0
5, 6048, Note_on_c, 0, 55, 72
5, 6144, Note_on_c, 0, 55, 0
5, 6144, Note_on_c, 0, 55, 72
5, 6240, Note_on_c, 0, 55, 0
5, 6240, Note_on_c, 0, 53, 72
5, 6288, Note_on_c, 0, 53, 0
5, 6288, Note_on_c, 0, 55, 72
5, 6336, Note_on_c, 0, 55, 0
5, 6336, Note_on_c, 0, 53, 72
5, 6432, Note_on_c, 0, 53, 0
5, 6432, Note_on_c, 0, 52, 72
5, 6528, Note_on_c, 0, 52, 0
5, 6528, Note_on_c, 0, 50, 72
5, 6720, Note_on_c, 0, 50, 0
5, 7008, Note_on_c, 0, 50, 72
5, 7056, Note_on_c, 0, 50, 0
5, 7056, Note_on_c, 0, 52, 72
5, 7104, Note_on_c, 0, 52, 0
5, 7104, Note_on_c, 0, 50, 72
5, 7200, Note_on_c, 0, 50, 0
5, 7200, Note_on_c, 0, 48, 72
5, 7296, Note_on_c, 0, 48, 0
5, 7296, Note_on_c, 0, 46, 72
5, 7392, Note_on_c, 0, 46, 0
5, 7392, Note_on_c, 0, 58, 72
5, 7488, Note_on_c, 0, 58, 0
5, 7488, Note_on_c, 0, 52, 72
5, 7584, Note_on_c, 0, 52, 0
5, 7584, Note_on_c, 0, 54, 72
5, 7680, Note_on_c, 0, 54, 0
5, 7680, Note_on_c, 0, 55, 72
5, 7968, Note_on_c, 0, 55, 0
5, 7968, Note_on_c, 0, 57, 72
5, 8064, Note_on_c, 0, 57, 0
5, 8064, Note_on_c, 0, 58, 72
5, 8160, Note_on_c, 0, 58, 0
5, 8160, Note_on_c, 0, 57, 72
5, 8208, Note_on_c, 0, 57, 0
5, 8208, Note_on_c, 0, 55, 72
5, 8256, Note_on_c, 0, 55, 0
5, 8256, Note_on_c, 0, 53, 72
5, 8304, Note_on_c, 0, 53, 0
5, 8304, Note_on_c, 0, 52, 72
5, 8352, Note_on_c, 0, 52, 0
5, 8352, Note_on_c, 0, 50, 72
5, 8400, Note_on_c, 0, 50, 0
5, 8400, Note_on_c, 0, 49, 72
5, 8448, Note_on_c, 0, 49, 0
5, 8448, Note_on_c, 0, 50, 72
5, 8544, Note_on_c, 0, 50, 0
5, 8736, Note_on_c, 0, 50, 88
5, 8832, Note_on_c, 0, 50, 0
5, 8832, Note_on_c, 0, 57, 88
5, 8928, Note_on_c, 0, 57, 0
5, 8928, Note_on_c, 0, 55, 88
5, 9024, Note_on_c, 0, 55, 0
5, 9024, Note_on_c, 0, 53, 88
5, 9120, Note_on_c, 0, 53, 0
5, 9120, Note_on_c, 0, 58, 88
5, 9216, Note_on_c, 0, 58, 0
5, 9216, Note_on_c, 0, 57, 88
5, 9264, Note_on_c, 0, 57, 0
5, 9264, Note_on_c, 0, 55, 88
5, 9312, Note_on_c, 0, 55, 0
5, 9312, Note_on_c, 0, 53, 88
5, 9408, Note_on_c, 0, 53, 0
5, 9408, Note_on_c, 0, 55, 88
5, 9504, Note_on_c, 0, 55, 0
5, 9504, Note_on_c, 0, 57, 88
5, 9600, Note_on_c, 0, 57, 0
5, 9600, Note_on_c, 0, 57, 88
5, 9648, Note_on_c, 0, 57, 0
5, 9648, Note_on_c, 0, 56, 88
5, 9696, Note_on_c, 0, 56, 0
5, 9696, Note_on_c, 0, 57, 88
5, 9744, Note_on_c, 0, 57, 0
5, 9744, Note_on_c, 0, 56, 88
5, 9792, Note_on_c, 0, 56, 0
5, 9792, Note_on_c, 0, 57, 88
5, 9888, Note_on_c, 0, 57, 0
5, 9888, Note_on_c, 0, 45, 88
5, 9984, Note_on_c, 0, 45, 0
5, 9984, Note_on_c, 0, 50, 88
5, 10176, Note_on_c, 0, 50, 0
5, 10176, Note_on_c, 0, 50, 88
5, 10224, Note_on_c, 0, 50, 0
5, 11328, Program_c, 0, 13
5, 11328, Note_on_c, 0, 57, 72
5, 11520, Note_on_c, 0, 57, 0
5, 11520, Note_on_c, 0, 56, 72
5, 11616, Note_on_c, 0, 56, 0
5, 11616, Note_on_c, 0, 55, 72
5, 11712, Note_on_c, 0, 55, 0
5, 11712, Note_on_c, 0, 54, 72
5, 11808, Note_on_c, 0, 54, 0
5, 11808, Note_on_c, 0, 53, 72
5, 11904, Note_on_c, 0, 53, 0
5, 11904, Note_on_c, 0, 52, 72
5, 12000, Note_on_c, 0, 52, 0
5, 12000, Note_on_c, 0, 50, 72
5, 12192, Note_on_c, 0, 50, 0
5, 13248, Note_on_c, 0, 45, 72
5, 13344, Note_on_c, 0, 45, 0
5, 13344, Note_on_c, 0, 46, 72
5, 13440, Note_on_c, 0, 46, 0
5, 13440, Note_on_c, 0, 47, 72
5, 13536, Note_on_c, 0, 47, 0
5, 13536, Note_on_c, 0, 48, 72
5, 13632, Note_on_c, 0, 48, 0
5, 13632, Note_on_c, 0, 49, 72
5, 13728, Note_on_c, 0, 49, 0
5, 13728, Note_on_c, 0, 50, 72
5, 13824, Note_on_c, 0, 50, 0
5, 13824, Note_on_c, 0, 51, 72
5, 13920, Note_on_c, 0, 51, 0
5, 13920, Note_on_c, 0, 52, 72
5, 14112, Note_on_c, 0, 52, 0
5, 14112, Note_on_c, 0, 53, 72
5, 14304, Note_on_c, 0, 53, 0
5, 14304, Note_on_c, 0, 52, 72
5, 14400, Note_on_c, 0, 52, 0
5, 14448, Note_on_c, 0, 52, 72
5, 14496, Note_on_c, 0, 52, 0
5, 14496, Note_on_c, 0, 54, 72
5, 14544, Note_on_c, 0, 54, 0
5, 14544, Note_on_c, 0, 52, 72
5, 14592, Note_on_c, 0, 52, 0
5, 14592, Note_on_c, 0, 54, 72
5, 14640, Note_on_c, 0, 54, 0
5, 14640, Note_on_c, 0, 56, 72
5, 14688, Note_on_c, 0, 56, 0
5, 14688, Note_on_c, 0, 57, 72
5, 14784, Note_on_c, 0, 57, 0
5, 15168, Note_on_c, 0, 50, 72
5, 15264, Note_on_c, 0, 50, 0
5, 15264, Note_on_c, 0, 49, 72
5, 15360, Note_on_c, 0, 49, 0
5, 15360, Note_on_c, 0, 48, 72
5, 15456, Note_on_c, 0, 48, 0
5, 15456, Note_on_c, 0, 47, 72
5, 15552, Note_on_c, 0, 47, 0
5, 15552, Note_on_c, 0, 52, 72
5, 15744, Note_on_c, 0, 52, 0
5, 15744, Note_on_c, 0, 50, 72
5, 15840, Note_on_c, 0, 50, 0
5, 15840, Note_on_c, 0, 48, 72
5, 15936, Note_on_c, 0, 48, 0
5, 15984, Note_on_c, 0, 48, 72
5, 16032, Note_on_c, 0, 48, 0
5, 16032, Note_on_c, 0, 50, 72
5, 16080, Note_on_c, 0, 50, 0
5, 16080, Note_on_c, 0, 48, 72
5, 16128, Note_on_c, 0, 48, 0
5, 16128, Note_on_c, 0, 50, 72
5, 16176, Note_on_c, 0, 50, 0
5, 16176, Note_on_c, 0, 52, 72
5, 16224, Note_on_c, 0, 52, 0
5, 16224, Note_on_c, 0, 53, 72
5, 16272, Note_on_c, 0, 53, 0
5, 16272, Note_on_c, 0, 52, 72
5, 16320, Note_on_c, 0, 52, 0
5, 16320, Note_on_c, 0, 53, 72
5, 16368, Note_on_c, 0, 53, 0
5, 16368, Note_on_c, 0, 55, 72
5, 16416, Note_on_c, 0, 55, 0
5, 16416, Note_on_c, 0, 57, 72
5, 16512, Note_on_c, 0, 57, 0
5, 16512, Note_on_c, 0, 45, 72
5, 16608, Note_on_c, 0, 45, 0
5, 16608, Note_on_c, 0, 46, 88
5, 16704, Note_on_c, 0, 46, 0
5, 16704, Note_on_c, 0, 41, 88
5, 16800, Note_on_c, 0, 41, 0
5, 16800, Note_on_c, 0, 48, 88
5, 16896, Note_on_c, 0, 48, 0
5, 16896, Note_on_c, 0, 49, 88
5, 16992, Note_on_c, 0, 49, 0
5, 16992, Note_on_c, 0, 50, 88
5, 17088, Note_on_c, 0, 50, 0
5, 17088, Note_on_c, 0, 45, 88
5, 17184, Note_on_c, 0, 45, 0
5, 17184, Note_on_c, 0, 52, 88
5, 17376, Note_on_c, 0, 52, 0
5, 17376, Note_on_c, 0, 53, 88
5, 17472, Note_on_c, 0, 53, 0
5, 17472, Note_on_c, 0, 52, 88
5, 17568, Note_on_c, 0, 52, 0
5, 17568, Note_on_c, 0, 50, 88
5, 17616, Note_on_c, 0, 50, 0
5, 17616, Note_on_c, 0, 52, 88
5, 17664, Note_on_c, 0, 52, 0
5, 17664, Note_on_c, 0, 50, 88
5, 17760, Note_on_c, 0, 50, 0
5, 17760, Note_on_c, 0, 57, 88
5, 17952, Note_on_c, 0, 57, 0
5, 18096, Program_c, 0, 5
5, 18096, Note_on_c, 0, 57, 72
5, 18144, Note_on_c, 0, 57, 0
5, 18144, Note_on_c, 0, 55, 72
5, 18192, Note_on_c, 0, 55, 0
5, 18192, Note_on_c, 0, 57, 72
5, 18240, Note_on_c, 0, 57, 0
5, 18240, Note_on_c, 0, 55, 72
5, 18288, Note_on_c, 0, 55, 0
5, 18288, Note_on_c, 0, 53, 72
5, 18336, Note_on_c, 0, 53, 0
5, 18336, Note_on_c, 0, 52, 72
5, 18384, Note_on_c, 0, 52, 0
5, 18384, Note_on_c, 0, 50, 72
5, 18432, Note_on_c, 0, 50, 0
5, 18432, Note_on_c, 0, 48, 72
5, 18528, Note_on_c, 0, 48, 0
5, 18528, Note_on_c, 0, 50, 72
5, 18624, Note_on_c, 0, 50, 0
5, 18624, Note_on_c, 0, 52, 72
5, 18720, Note_on_c, 0, 52, 0
5, 18720, Note_on_c, 0, 53, 72
5, 18816, Note_on_c, 0, 53, 0
5, 18864, Note_on_c, 0, 50, 72
5, 18912, Note_on_c, 0, 50, 0
5, 18912, Note_on_c, 0, 52, 72
5, 19008, Note_on_c, 0, 52, 0
5, 19008, Note_on_c, 0, 54, 72
5, 19104, Note_on_c, 0, 54, 0
5, 19104, Note_on_c, 0, 55, 72
5, 19200, Note_on_c, 0, 55, 0
5, 19248, Note_on_c, 0, 52, 72
5, 19296, Note_on_c, 0, 52, 0
5, 19296, Note_on_c, 0, 54, 72
5, 19392, Note_on_c, 0, 54, 0
5, 19392, Note_on_c, 0, 56, 72
5, 19488, Note_on_c, 0, 56, 0
5, 19488, Note_on_c, 0, 57, 72
5, 19584, Note_on_c, 0, 57, 0
5, 19632, Note_on_c, 0, 55, 72
5, 19680, Note_on_c, 0, 55, 0
5, 19680, Note_on_c, 0, 53, 72
5, 19728, Note_on_c, 0, 53, 0
5, 19728, Note_on_c, 0, 55, 72
5, 19776, Note_on_c, 0, 55, 0
5, 19776, Note_on_c, 0, 53, 72
5, 19824, Note_on_c, 0, 53, 0
5, 19824, Note_on_c, 0, 52, 72
5, 19872, Note_on_c, 0, 52, 0
5, 19872, Note_on_c, 0, 50, 72
5, 19920, Note_on_c, 0, 50, 0
5, 19920, Note_on_c, 0, 45, 72
5, 19968, Note_on_c, 0, 45, 0
5, 19968, Note_on_c, 0, 50, 72
5, 20016, Note_on_c, 0, 50, 0
5, 20016, Note_on_c, 0, 48, 72
5, 20064, Note_on_c, 0, 48, 0
5, 20064, Note_on_c, 0, 46, 72
5, 20112, Note_on_c, 0, 46, 0
5, 20112, Note_on_c, 0, 48, 72
5, 20160, Note_on_c, 0, 48, 0
5, 20160, Note_on_c, 0, 46, 72
5, 20208, Note_on_c, 0, 46, 0
5, 20208, Note_on_c, 0, 45, 72
5, 20256, Note_on_c, 0, 45, 0
5, 20256, Note_on_c, 0, 43, 72
5, 20304, Note_on_c, 0, 43, 0
5, 20304, Note_on_c, 0, 50, 72
5, 20352, Note_on_c, 0, 50, 0
5, 20352, Note_on_c, 0, 55, 72
5, 20448, Note_on_c, 0, 55, 0
5, 20448, Note_on_c, 0, 55, 72
5, 20544, Note_on_c, 0, 55, 0
5, 20544, Note_on_c, 0, 54, 72
5, 20640, Note_on_c, 0, 54, 0
5, 20640, Note_on_c, 0, 53, 72
5, 20736, Note_on_c, 0, 53, 0
5, 20736, Note_on_c, 0, 52, 72
5, 20832, Note_on_c, 0, 52, 0
5, 20928, Note_on_c, 0, 50, 72
5, 21024, Note_on_c, 0, 50, 0
5, 21024, Note_on_c, 0, 49, 72
5, 21120, Note_on_c, 0, 49, 0
5, 21120, Note_on_c, 0, 48, 72
5, 21216, Note_on_c, 0, 48, 0
5, 21216, Note_on_c, 0, 47, 72
5, 21312, Note_on_c, 0, 47, 0
5, 21312, Note_on_c, 0, 46, 72
5, 21408, Note_on_c, 0, 46, 0
5, 21408, Note_on_c, 0, 45, 72
5, 21504, Note_on_c, 0, 45, 0
5, 21504, Note_on_c, 0, 44, 72
5, 21600, Note_on_c, 0, 44, 0
5, 21600, Note_on_c, 0, 45, 72
5, 21696, Note_on_c, 0, 45, 0
5, 21936, Note_on_c, 0, 49, 72
5, 21984, Note_on_c, 0, 49, 0
5, 21984, Note_on_c, 0, 50, 72
5, 22080, Note_on_c, 0, 50, 0
5, 22320, Note_on_c, 0, 45, 72
5, 22368, Note_on_c, 0, 45, 0
5, 22368, Note_on_c, 0, 46, 72
5, 22416, Note_on_c, 0, 46, 0
5, 22416, Note_on_c, 0, 45, 72
5, 22464, Note_on_c, 0, 45, 0
5, 22464, Note_on_c, 0, 43, 72
5, 22656, Note_on_c, 0, 43, 0
5, 22656, Note_on_c, 0, 42, 72
5, 22752, Note_on_c, 0, 42, 0
5, 22752, Note_on_c, 0, 41, 72
5, 22848, Note_on_c, 0, 41, 0
5, 22848, Note_on_c, 0, 40, 72
5, 22944, Note_on_c, 0, 40, 0
5, 22944, Note_on_c, 0, 39, 72
5, 23040, Note_on_c, 0, 39, 0
5, 23040, Note_on_c, 0, 38, 72
5, 23136, Note_on_c, 0, 38, 0
5, 23136, Note_on_c, 0, 36, 72
5, 23232, Note_on_c, 0, 36, 0
5, 23280, Note_on_c, 0, 48, 72
5, 23328, Note_on_c, 0, 48, 0
5, 23328, Note_on_c, 0, 50, 72
5, 23376, Note_on_c, 0, 50, 0
5, 23376, Note_on_c, 0, 48, 72
5, 23424, Note_on_c, 0, 48, 0
5, 23424, Note_on_c, 0, 50, 72
5, 23472, Note_on_c, 0, 50, 0
5, 23472, Note_on_c, 0, 52, 72
5, 23520, Note_on_c, 0, 52, 0
5, 23520, Note_on_c, 0, 53, 72
5, 23568, Note_on_c, 0, 53, 0
5, 23568, Note_on_c, 0, 48, 72
5, 23616, Note_on_c, 0, 48, 0
5, 23616, Note_on_c, 0, 53, 72
5, 23808, Note_on_c, 0, 53, 0
5, 23808, Note_on_c, 0, 52, 72
5, 23904, Note_on_c, 0, 52, 0
5, 23904, Note_on_c, 0, 50, 72
5, 24000, Note_on_c, 0, 50, 0
5, 24384, Note_on_c, 0, 58, 72
5, 24480, Note_on_c, 0, 58, 0
5, 24480, Note_on_c, 0, 57, 72
5, 24576, Note_on_c, 0, 57, 0
5, 24576, Note_on_c, 0, 56, 72
5, 24672, Note_on_c, 0, 56, 0
5, 24672, Note_on_c, 0, 55, 72
5, 24768, Note_on_c, 0, 55, 0
5, 25200, Note_on_c, 0, 52, 72
5, 25248, Note_on_c, 0, 52, 0
5, 25248, Note_on_c, 0, 54, 72
5, 25296, Note_on_c, 0, 54, 0
5, 25296, Note_on_c, 0, 52, 72
5, 25344, Note_on_c, 0, 52, 0
5, 25344, Note_on_c, 0, 54, 72
5, 25392, Note_on_c, 0, 54, 0
5, 25392, Note_on_c, 0, 56, 72
5, 25440, Note_on_c, 0, 56, 0
5, 25440, Note_on_c, 0, 57, 72
5, 25488, Note_on_c, 0, 57, 0
5, 25488, Note_on_c, 0, 52, 72
5, 25536, Note_on_c, 0, 52, 0
5, 25536, Note_on_c, 0, 57, 88
5, 25680, Note_on_c, 0, 57, 0
5, 25680, Note_on_c, 0, 56, 88
5, 25728, Note_on_c, 0, 56, 0
5, 25728, Note_on_c, 0, 57, 88
5, 25824, Note_on_c, 0, 57, 0
5, 25824, Note_on_c, 0, 56, 88
5, 25920, Note_on_c, 0, 56, 0
5, 25920, Note_on_c, 0, 60, 88
5, 26016, Note_on_c, 0, 60, 0
5, 26016, Note_on_c, 0, 54, 88
5, 26112, Note_on_c, 0, 54, 0
5, 26112, Note_on_c, 0, 53, 88
5, 26208, Note_on_c, 0, 53, 0
5, 26208, Note_on_c, 0, 52, 88
5, 26304, Note_on_c, 0, 52, 0
5, 26304, Note_on_c, 0, 57, 88
5, 26400, Note_on_c, 0, 57, 0
5, 26400, Note_on_c, 0, 50, 88
5, 26592, Note_on_c, 0, 50, 0
5, 26592, Note_on_c, 0, 48, 88
5, 26688, Note_on_c, 0, 48, 0
5, 26688, Note_on_c, 0, 50, 88
5, 26784, Note_on_c, 0, 50, 0
5, 26784, Note_on_c, 0, 52, 88
5, 26832, Note_on_c, 0, 52, 0
5, 26832, Note_on_c, 0, 50, 88
5, 26880, Note_on_c, 0, 50, 0
5, 26880, Note_on_c, 0, 52, 88
5, 26976, Note_on_c, 0, 52, 0
5, 26976, Note_on_c, 0, 45, 88
5, 27072, Note_on_c, 0, 45, 0
5, 27264, Program_c, 0, 5
5, 27264, Note_on_c, 0, 56, 72
5, 27360, Note_on_c, 0, 56, 0
5, 27360, Note_on_c, 0, 57, 72
5, 27552, Note_on_c, 0, 57, 0
5, 27648, Note_on_c, 0, 49, 72
5, 27744, Note_on_c, 0, 49, 0
5, 27744, Note_on_c, 0, 50, 72
5, 27936, Note_on_c, 0, 50, 0
5, 28032, Note_on_c, 0, 52, 72
5, 28128, Note_on_c, 0, 52, 0
5, 28128, Note_on_c, 0, 53, 72
5, 28320, Note_on_c, 0, 53, 0
5, 28416, Note_on_c, 0, 47, 72
5, 28512, Note_on_c, 0, 47, 0
5, 28512, Note_on_c, 0, 48, 72
5, 28560, Note_on_c, 0, 48, 0
5, 28560, Note_on_c, 0, 47, 72
5, 28608, Note_on_c, 0, 47, 0
5, 28608, Note_on_c, 0, 48, 72
5, 28656, Note_on_c, 0, 48, 0
5, 28656, Note_on_c, 0, 50, 72
5, 28704, Note_on_c, 0, 50, 0
5, 28704, Note_on_c, 0, 52, 72
5, 28752, Note_on_c, 0, 52, 0
5, 28752, Note_on_c, 0, 40, 72
5, 28800, Note_on_c, 0, 40, 0
5, 28800, Note_on_c, 0, 52, 72
5, 28896, Note_on_c, 0, 52, 0
5, 28896, Note_on_c, 0, 53, 72
5, 28992, Note_on_c, 0, 53, 0
5, 28992, Note_on_c, 0, 54, 72
5, 29088, Note_on_c, 0, 54, 0
5, 29088, Note_on_c, 0, 55, 72
5, 29184, Note_on_c, 0, 55, 0
5, 29184, Note_on_c, 0, 49, 72
5, 29280, Note_on_c, 0, 49, 0
5, 29280, Note_on_c, 0, 50, 72
5, 29472, Note_on_c, 0, 50, 0
5, 29760, Note_on_c, 0, 50, 72
5, 29856, Note_on_c, 0, 50, 0
5, 29856, Note_on_c, 0, 51, 72
5, 29952, Note_on_c, 0, 51, 0
5, 29952, Note_on_c, 0, 52, 72
5, 30048, Note_on_c, 0, 52, 0
5, 30048, Note_on_c, 0, 53, 72
5, 30144, Note_on_c, 0, 53, 0
5, 30144, Note_on_c, 0, 58, 72
5, 30240, Note_on_c, 0, 58, 0
5, 30240, Note_on_c, 0, 57, 72
5, 30336, Note_on_c, 0, 57, 0
5, 30336, Note_on_c, 0, 55, 72
5, 30432, Note_on_c, 0, 55, 0
5, 30432, Note_on_c, 0, 62, 72
5, 30528, Note_on_c, 0, 62, 0
5, 30528, Note_on_c, 0, 50, 88
5, 30624, Note_on_c, 0, 50, 0
5, 30624, Note_on_c, 0, 45, 88
5, 30720, Note_on_c, 0, 45, 0
5, 30720, Note_on_c, 0, 47, 88
5, 30816, Note_on_c, 0, 47, 0
5, 30912, Note_on_c, 0, 48, 88
5, 31008, Note_on_c, 0, 48, 0
5, 31008, Note_on_c, 0, 50, 88
5, 31104, Note_on_c, 0, 50, 0
5, 31104, Note_on_c, 0, 52, 88
5, 31200, Note_on_c, 0, 52, 0
5, 31296, Note_on_c, 0, 53, 88
5, 31392, Note_on_c, 0, 53, 0
5, 31392, Note_on_c, 0, 52, 88
5, 31488, Note_on_c, 0, 52, 0
5, 31488, Note_on_c, 0, 50, 88
5, 31584, Note_on_c, 0, 50, 0
5, 31680, Note_on_c, 0, 49, 88
5, 31728, Note_on_c, 0, 49, 0
5, 31728, Note_on_c, 0, 45, 88
5, 31776, Note_on_c, 0, 45, 0
5, 31776, Note_on_c, 0, 47, 88
5, 31872, Note_on_c, 0, 47, 0
5, 31872, Note_on_c, 0, 49, 88
5, 31968, Note_on_c, 0, 49, 0
5, 31968, Note_on_c, 0, 50, 88
5, 32064, Note_on_c, 0, 50, 0
5, 32064, Note_on_c, 0, 45, 72
5, 32160, Note_on_c, 0, 45, 0
5, 32160, Note_on_c, 0, 46, 72
5, 32256, Note_on_c, 0, 46, 0
5, 32256, Note_on_c, 0, 43, 72
5, 32352, Note_on_c, 0, 43, 0
5, 32352, Note_on_c, 0, 45, 72
5, 32448, Note_on_c, 0, 45, 0
5, 32448, Note_on_c, 0, 50, 72
5, 32544, Note_on_c, 0, 50, 0
5, 32544, Note_on_c, 0, 43, 72
5, 32736, Note_on_c, 0, 43, 0
5, 32736, Note_on_c, 0, 43, 72
5, 32928, Note_on_c, 0, 43, 0
5, 32928, Note_on_c, 0, 45, 72
5, 33120, Note_on_c, 0, 45, 0
5, 33120, Note_on_c, 0, 45, 72
5, 33216, Note_on_c, 0, 45, 0
5, 33216, Note_on_c, 0, 47, 72
5, 33264, Note_on_c, 0, 47, 0
5, 33264, Note_on_c, 0, 49, 72
5, 33312, Note_on_c, 0, 49, 0
5, 33312, Note_on_c, 0, 50, 72
5, 33408, Note_on_c, 0, 50, 0
5, 33408, Note_on_c, 0, 46, 88
5, 33504, Note_on_c, 0, 46, 0
5, 33504, Note_on_c, 0, 53, 88
5, 33600, Note_on_c, 0, 53, 0
5, 33600, Note_on_c, 0, 45, 88
5, 33648, Note_on_c, 0, 45, 0
5, 33648, Note_on_c, 0, 46, 88
5, 33696, Note_on_c, 0, 46, 0
5, 33696, Note_on_c, 0, 48, 88
5, 33792, Note_on_c, 0, 48, 0
5, 33792, Note_on_c, 0, 36, 88
5, 33888, Note_on_c, 0, 36, 0
5, 33888, Note_on_c, 0, 41, 88
5, 34080, Note_on_c, 0, 41, 0
5, 34080, Note_on_c, 0, 45, 88
5, 34272, Note_on_c, 0, 45, 0
5, 34272, Note_on_c, 0, 46, 88
5, 34368, Note_on_c, 0, 46, 0
5, 34368, Note_on_c, 0, 41, 88
5, 34464, Note_on_c, 0, 41, 0
5, 34464, Note_on_c, 0, 48, 88
5, 34560, Note_on_c, 0, 48, 0
5, 34560, Note_on_c, 0, 49, 88
5, 34656, Note_on_c, 0, 49, 0
5, 34656, Note_on_c, 0, 50, 88
5, 34752, Note_on_c, 0, 50, 0
5, 34752, Note_on_c, 0, 45, 88
5, 34848, Note_on_c, 0, 45, 0
5, 34848, Note_on_c, 0, 52, 88
5, 35040, Note_on_c, 0, 52, 0
5, 35040, Note_on_c, 0, 53, 88
5, 35136, Note_on_c, 0, 53, 0
5, 35136, Note_on_c, 0, 52, 88
5, 35232, Note_on_c, 0, 52, 0
5, 35232, Note_on_c, 0, 50, 88
5, 35280, Note_on_c, 0, 50, 0
5, 35280, Note_on_c, 0, 52, 88
5, 35328, Note_on_c, 0, 52, 0
5, 35328, Note_on_c, 0, 50, 88
5, 35424, Note_on_c, 0, 50, 0
5, 35424, Note_on_c, 0, 57, 88
5, 35472, Note_on_c, 0, 57, 0
5, 35472, Note_on_c, 0, 52, 88
5, 35520, Note_on_c, 0, 52, 0
5, 35520, Note_on_c, 0, 57, 88
5, 35712, Note_on_c, 0, 57, 0
5, 35712, Note_on_c, 0, 55, 72
5, 35808, Note_on_c, 0, 55, 0
5, 35808, Note_on_c, 0, 53, 72
5, 35952, Note_on_c, 0, 53, 0
5, 35952, Note_on_c, 0, 55, 72
5, 35976, Note_on_c, 0, 55, 0
5, 35976, Note_on_c, 0, 53, 72
5, 36000, Note_on_c, 0, 53, 0
5, 36000, Note_on_c, 0, 52, 72
5, 36048, Note_on_c, 0, 52, 0
5, 36048, Note_on_c, 0, 50, 72
5, 36096, Note_on_c, 0, 50, 0
5, 36096, Note_on_c, 0, 52, 72
5, 36192, Note_on_c, 0, 52, 0
5, 36192, Note_on_c, 0, 45, 72
5, 36288, Note_on_c, 0, 45, 0
5, 36288, Note_on_c, 0, 57, 72
5, 36480, Note_on_c, 0, 57, 0
5, 36480, Note_on_c, 0, 56, 72
5, 36576, Note_on_c, 0, 56, 0
5, 36576, Note_on_c, 0, 57, 72
5, 36768, Note_on_c, 0, 57, 0
5, 36864, Note_on_c, 0, 51, 72
5, 36960, Note_on_c, 0, 51, 0
5, 36960, Note_on_c, 0, 52, 72
5, 37152, Note_on_c, 0, 52, 0
5, 37152, Note_on_c, 0, 57, 72
5, 37248, Note_on_c, 0, 57, 0
5, 37248, Note_on_c, 0, 59, 72
5, 37344, Note_on_c, 0, 59, 0
5, 37344, Note_on_c, 0, 60, 72
5, 37440, Note_on_c, 0, 60, 0
5, 37440, Note_on_c, 0, 52, 72
5, 37536, Note_on_c, 0, 52, 0
5, 37536, Note_on_c, 0, 54, 72
5, 37632, Note_on_c, 0, 54, 0
5, 37632, Note_on_c, 0, 56, 72
5, 37728, Note_on_c, 0, 56, 0
5, 37728, Note_on_c, 0, 57, 72
5, 38112, Note_on_c, 0, 57, 0
5, 38112, Note_on_c, 0, 57, 72
5, 38208, Note_on_c, 0, 57, 0
5, 38208, Note_on_c, 0, 57, 88
5, 38352, Note_on_c, 0, 57, 0
5, 38352, Note_on_c, 0, 54, 88
5, 38400, Note_on_c, 0, 54, 0
5, 38400, Note_on_c, 0, 55, 88
5, 38448, Note_on_c, 0, 55, 0
5, 38448, Note_on_c, 0, 55, 88
5, 38496, Note_on_c, 0, 55, 0
5, 38496, Note_on_c, 0, 55, 88
5, 38544, Note_on_c, 0, 55, 0
5, 38544, Note_on_c, 0, 52, 88
5, 38592, Note_on_c, 0, 52, 0
5, 38592, Note_on_c, 0, 53, 88
5, 38640, Note_on_c, 0, 53, 0
5, 38640, Note_on_c, 0, 53, 88
5, 38688, Note_on_c, 0, 53, 0
5, 38688, Note_on_c, 0, 53, 88
5, 38736, Note_on_c, 0, 53, 0
5, 38736, Note_on_c, 0, 50, 88
5, 38784, Note_on_c, 0, 50, 0
5, 38784, Note_on_c, 0, 52, 88
5, 38832, Note_on_c, 0, 52, 0
5, 38832, Note_on_c, 0, 52, 88
5, 38880, Note_on_c, 0, 52, 0
5, 38880, Note_on_c, 0, 52, 88
5, 38928, Note_on_c, 0, 52, 0
5, 38928, Note_on_c, 0, 49, 88
5, 38976, Note_on_c, 0, 49, 0
5, 38976, Note_on_c, 0, 50, 88
5, 39024, Note_on_c, 0, 50, 0
5, 39024, Note_on_c, 0, 52, 88
5, 39072, Note_on_c, 0, 52, 0
5, 39072, Note_on_c, 0, 53, 88
5, 39120, Note_on_c, 0, 53, 0
5, 39120, Note_on_c, 0, 52, 88
5, 39168, Note_on_c, 0, 52, 0
5, 39168, Note_on_c, 0, 53, 88
5, 39216, Note_on_c, 0, 53, 0
5, 39216, Note_on_c, 0, 55, 88
5, 39264, Note_on_c, 0, 55, 0
5, 39264, Note_on_c, 0, 49, 88
5, 39360, Note_on_c, 0, 49, 0
5, 39552, Note_on_c, 0, 46, 72
5, 39648, Note_on_c, 0, 46, 0
5, 39648, Note_on_c, 0, 46, 72
5, 39696, Note_on_c, 0, 46, 0
5, 39696, Note_on_c, 0, 44, 72
5, 39744, Note_on_c, 0, 44, 0
5, 39744, Note_on_c, 0, 45, 72
5, 39792, Note_on_c, 0, 45, 0
5, 39792, Note_on_c, 0, 45, 72
5, 39840, Note_on_c, 0, 45, 0
5, 39840, Note_on_c, 0, 45, 72
5, 39888, Note_on_c, 0, 45, 0
5, 39888, Note_on_c, 0, 41, 72
5, 39936, Note_on_c, 0, 41, 0
5, 39936, Note_on_c, 0, 43, 72
5, 39984, Note_on_c, 0, 43, 0
5, 39984, Note_on_c, 0, 43, 72
5, 40032, Note_on_c, 0, 43, 0
5, 40032, Note_on_c, 0, 43, 72
5, 40080, Note_on_c, 0, 43, 0
5, 40080, Note_on_c, 0, 40, 72
5, 40128, Note_on_c, 0, 40, 0
5, 40128, Note_on_c, 0, 42, 72
5, 40176, Note_on_c, 0, 42, 0
5, 40176, Note_on_c, 0, 42, 72
5, 40224, Note_on_c, 0, 42, 0
5, 40224, Note_on_c, 0, 43, 72
5, 40320, Note_on_c, 0, 43, 0
5, 40320, Note_on_c, 0, 40, 72
5, 40416, Note_on_c, 0, 40, 0
5, 40416, Note_on_c, 0, 45, 72
5, 40512, Note_on_c, 0, 45, 0
5, 40512, Note_on_c, 0, 57, 72
5, 40608, Note_on_c, 0, 57, 0
5, 40608, Note_on_c, 0, 56, 72
5, 40704, Note_on_c, 0, 56, 0
5, 40704, Note_on_c, 0, 55, 72
5, 40800, Note_on_c, 0, 55, 0
5, 40800, Note_on_c, 0, 54, 72
5, 40896, Note_on_c, 0, 54, 0
5, 40896, Note_on_c, 0, 53, 72
5, 40992, Note_on_c, 0, 53, 0
5, 40992, Note_on_c, 0, 52, 72
5, 41088, Note_on_c, 0, 52, 0
5, 41088, Note_on_c, 0, 51, 72
5, 41184, Note_on_c, 0, 51, 0
5, 41184, Note_on_c, 0, 50, 72
5, 41280, Note_on_c, 0, 50, 0
5, 41280, Note_on_c, 0, 49, 72
5, 41376, Note_on_c, 0, 49, 0
5, 41376, Note_on_c, 0, 48, 72
5, 41472, Note_on_c, 0, 48, 0
5, 41472, Note_on_c, 0, 53, 72
5, 41568, Note_on_c, 0, 53, 0
5, 41568, Note_on_c, 0, 46, 72
5, 41760, Note_on_c, 0, 46, 0
5, 42624, Note_on_c, 0, 43, 72
5, 42720, Note_on_c, 0, 43, 0
5, 42720, Note_on_c, 0, 43, 72
5, 42768, Note_on_c, 0, 43, 0
5, 42768, Note_on_c, 0, 40, 72
5, 42816, Note_on_c, 0, 40, 0
5, 42816, Note_on_c, 0, 41, 72
5, 42864, Note_on_c, 0, 41, 0
5, 42864, Note_on_c, 0, 41, 72
5, 42912, Note_on_c, 0, 41, 0
5, 42912, Note_on_c, 0, 41, 72
5, 42960, Note_on_c, 0, 41, 0
5, 42960, Note_on_c, 0, 38, 72
5, 43008, Note_on_c, 0, 38, 0
5, 43008, Note_on_c, 0, 39, 72
5, 43056, Note_on_c, 0, 39, 0
5, 43056, Note_on_c, 0, 39, 72
5, 43104, Note_on_c, 0, 39, 0
5, 43104, Note_on_c, 0, 39, 72
5, 43152, Note_on_c, 0, 39, 0
5, 43152, Note_on_c, 0, 36, 72
5, 43200, Note_on_c, 0, 36, 0
5, 43200, Note_on_c, 0, 38, 72
5, 43248, Note_on_c, 0, 38, 0
5, 43248, Note_on_c, 0, 39, 72
5, 43296, Note_on_c, 0, 39, 0
5, 43296, Note_on_c, 0, 41, 72
5, 43344, Note_on_c, 0, 41, 0
5, 43344, Note_on_c, 0, 39, 72
5, 43392, Note_on_c, 0, 39, 0
5, 43392, Note_on_c, 0, 41, 72
5, 43488, Note_on_c, 0, 41, 0
5, 43488, Note_on_c, 0, 46, 72
5, 43584, Note_on_c, 0, 46, 0
5, 43584, Note_on_c, 0, 50, 72
5, 43680, Note_on_c, 0, 50, 0
5, 43680, Note_on_c, 0, 51, 72
5, 43872, Note_on_c, 0, 51, 0
5, 43872, Note_on_c, 0, 50, 72
5, 43968, Note_on_c, 0, 50, 0
5, 43968, Note_on_c, 0, 54, 72
5, 44064, Note_on_c, 0, 54, 0
5, 44064, Note_on_c, 0, 55, 72
5, 44160, Note_on_c, 0, 55, 0
5, 44160, Note_on_c, 0, 56, 72
5, 44256, Note_on_c, 0, 56, 0
5, 44256, Note_on_c, 0, 57, 72
5, 44352, Note_on_c, 0, 57, 0
5, 44400, Note_on_c, 0, 57, 72
5, 44448, Note_on_c, 0, 57, 0
5, 44448, Note_on_c, 0, 58, 72
5, 44544, Note_on_c, 0, 58, 0
5, 44544, Note_on_c, 0, 59, 72
5, 44640, Note_on_c, 0, 59, 0
5, 44640, Note_on_c, 0, 60, 72
5, 44736, Note_on_c, 0, 60, 0
5, 44736, Note_on_c, 0, 61, 72
5, 44832, Note_on_c, 0, 61, 0
5, 44832, Note_on_c, 0, 62, 72
5, 44928, Note_on_c, 0, 62, 0
5, 44928, Note_on_c, 0, 50, 72
5, 45024, Note_on_c, 0, 50, 0
5, 45024, Note_on_c, 0, 55, 72
5, 45120, Note_on_c, 0, 55, 0
5, 45120, Note_on_c, 0, 48, 72
5, 45216, Note_on_c, 0, 48, 0
5, 45216, Note_on_c, 0, 53, 72
5, 45312, Note_on_c, 0, 53, 0
5, 45312, Note_on_c, 0, 47, 72
5, 45408, Note_on_c, 0, 47, 0
5, 45408, Note_on_c, 0, 52, 72
5, 45504, Note_on_c, 0, 52, 0
5, 45552, Note_on_c, 0, 52, 72
5, 45600, Note_on_c, 0, 52, 0
5, 45600, Note_on_c, 0, 51, 72
5, 45696, Note_on_c, 0, 51, 0
5, 45696, Note_on_c, 0, 50, 72
5, 45792, Note_on_c, 0, 50, 0
5, 45792, Note_on_c, 0, 49, 72
5, 45888, Note_on_c, 0, 49, 0
5, 45888, Note_on_c, 0, 48, 72
5, 45984, Note_on_c, 0, 48, 0
5, 45984, Note_on_c, 0, 47, 72
5, 46032, Note_on_c, 0, 47, 0
5, 46032, Note_on_c, 0, 45, 72
5, 46080, Note_on_c, 0, 45, 0
5, 46080, Note_on_c, 0, 47, 72
5, 46176, Note_on_c, 0, 47, 0
5, 46176, Note_on_c, 0, 40, 72
5, 46368, Note_on_c, 0, 40, 0
5, 46656, Note_on_c, 0, 52, 72
5, 46752, Note_on_c, 0, 52, 0
5, 46752, Note_on_c, 0, 53, 72
5, 46848, Note_on_c, 0, 53, 0
5, 46848, Note_on_c, 0, 54, 72
5, 46944, Note_on_c, 0, 54, 0
5, 46944, Note_on_c, 0, 55, 72
5, 47040, Note_on_c, 0, 55, 0
5, 47040, Note_on_c, 0, 56, 72
5, 47136, Note_on_c, 0, 56, 0
5, 47136, Note_on_c, 0, 57, 72
5, 47232, Note_on_c, 0, 57, 0
5, 47424, Note_on_c, 0, 57, 72
5, 47520, Note_on_c, 0, 57, 0
5, 47520, Note_on_c, 0, 58, 72
5, 47616, Note_on_c, 0, 58, 0
5, 47616, Note_on_c, 0, 59, 72
5, 47712, Note_on_c, 0, 59, 0
5, 47712, Note_on_c, 0, 60, 72
5, 47808, Note_on_c, 0, 60, 0
5, 47808, Note_on_c, 0, 61, 72
5, 47904, Note_on_c, 0, 61, 0
5, 47904, Note_on_c, 0, 62, 72
5, 48096, Note_on_c, 0, 62, 0
5, 48096, Note_on_c, 0, 62, 72
5, 48192, Note_on_c, 0, 62, 0
5, 48192, Note_on_c, 0, 62, 72
5, 48240, Note_on_c, 0, 62, 0
5, 48240, Note_on_c, 0, 62, 72
5, 48288, Note_on_c, 0, 62, 0
5, 48288, Note_on_c, 0, 62, 72
5, 48336, Note_on_c, 0, 62, 0
5, 48336, Note_on_c, 0, 59, 72
5, 48384, Note_on_c, 0, 59, 0
5, 48384, Note_on_c, 0, 60, 72
5, 48432, Note_on_c, 0, 60, 0
5, 48432, Note_on_c, 0, 60, 72
5, 48480, Note_on_c, 0, 60, 0
5, 48480, Note_on_c, 0, 60, 72
5, 48528, Note_on_c, 0, 60, 0
5, 48528, Note_on_c, 0, 57, 72
5, 48576, Note_on_c, 0, 57, 0
5, 48576, Note_on_c, 0, 59, 72
5, 48624, Note_on_c, 0, 59, 0
5, 48624, Note_on_c, 0, 59, 72
5, 48672, Note_on_c, 0, 59, 0
5, 48672, Note_on_c, 0, 59, 72
5, 48720, Note_on_c, 0, 59, 0
5, 48720, Note_on_c, 0, 56, 72
5, 48768, Note_on_c, 0, 56, 0
5, 48768, Note_on_c, 0, 57, 72
5, 48816, Note_on_c, 0, 57, 0
5, 48816, Note_on_c, 0, 57, 72
5, 48864, Note_on_c, 0, 57, 0
5, 48864, Note_on_c, 0, 56, 72
5, 48960, Note_on_c, 0, 56, 0
5, 48960, Note_on_c, 0, 57, 72
5, 49056, Note_on_c, 0, 57, 0
5, 49056, Note_on_c, 0, 50, 72
5, 49152, Note_on_c, 0, 50, 0
5, 49152, Note_on_c, 0, 52, 72
5, 49248, Note_on_c, 0, 52, 0
5, 49248, Note_on_c, 0, 45, 72
5, 49632, Note_on_c, 0, 45, 0
5, 49632, Note_on_c, 0, 45, 72
5, 49728, Note_on_c, 0, 45, 0
5, 49728, Note_on_c, 0, 57, 72
5, 49824, Note_on_c, 0, 57, 0
5, 49824, Note_on_c, 0, 57, 72
5, 49872, Note_on_c, 0, 57, 0
5, 49872, Note_on_c, 0, 53, 72
5, 49920, Note_on_c, 0, 53, 0
5, 49920, Note_on_c, 0, 55, 72
5, 49968, Note_on_c, 0, 55, 0
5, 49968, Note_on_c, 0, 55, 72
5, 50016, Note_on_c, 0, 55, 0
5, 50016, Note_on_c, 0, 55, 72
5, 50064, Note_on_c, 0, 55, 0
5, 50064, Note_on_c, 0, 52, 72
5, 50112, Note_on_c, 0, 52, 0
5, 50112, Note_on_c, 0, 53, 72
5, 50160, Note_on_c, 0, 53, 0
5, 50160, Note_on_c, 0, 53, 72
5, 50208, Note_on_c, 0, 53, 0
5, 50208, Note_on_c, 0, 53, 72
5, 50256, Note_on_c, 0, 53, 0
5, 50256, Note_on_c, 0, 50, 72
5, 50304, Note_on_c, 0, 50, 0
5, 50304, Note_on_c, 0, 52, 72
5, 50352, Note_on_c, 0, 52, 0
5, 50352, Note_on_c, 0, 52, 72
5, 50400, Note_on_c, 0, 52, 0
5, 50400, Note_on_c, 0, 52, 72
5, 50448, Note_on_c, 0, 52, 0
5, 50448, Note_on_c, 0, 49, 72
5, 50496, Note_on_c, 0, 49, 0
5, 50496, Note_on_c, 0, 50, 88
5, 50592, Note_on_c, 0, 50, 0
5, 50592, Note_on_c, 0, 57, 88
5, 50688, Note_on_c, 0, 57, 0
5, 50688, Note_on_c, 0, 55, 88
5, 50784, Note_on_c, 0, 55, 0
5, 50880, Note_on_c, 0, 53, 88
5, 50976, Note_on_c, 0, 53, 0
5, 50976, Note_on_c, 0, 52, 88
5, 51072, Note_on_c, 0, 52, 0
5, 51072, Note_on_c, 0, 50, 88
5, 51168, Note_on_c, 0, 50, 0
5, 51264, Note_on_c, 0, 49, 88
5, 51360, Note_on_c, 0, 49, 0
5, 51360, Note_on_c, 0, 50, 88
5, 51456, Note_on_c, 0, 50, 0
5, 51456, Note_on_c, 0, 52, 88
5, 51552, Note_on_c, 0, 52, 0
5, 51648, Note_on_c, 0, 53, 88
5, 51696, Note_on_c, 0, 53, 0
5, 51696, Note_on_c, 0, 55, 88
5, 51744, Note_on_c, 0, 55, 0
5, 51744, Note_on_c, 0, 53, 88
5, 51840, Note_on_c, 0, 53, 0
5, 51840, Note_on_c, 0, 52, 88
5, 51936, Note_on_c, 0, 52, 0
5, 51936, Note_on_c, 0, 50, 88
5, 51984, Note_on_c, 0, 50, 0
5, 51984, Note_on_c, 0, 49, 72
5, 52032, Note_on_c, 0, 49, 0
5, 52032, Note_on_c, 0, 50, 72
5, 52080, Note_on_c, 0, 50, 0
5, 52080, Note_on_c, 0, 52, 72
5, 52128, Note_on_c, 0, 52, 0
5, 52128, Note_on_c, 0, 53, 72
5, 52224, Note_on_c, 0, 53, 0
5, 52224, Note_on_c, 0, 54, 72
5, 52320, Note_on_c, 0, 54, 0
5, 52320, Note_on_c, 0, 55, 72
5, 52416, Note_on_c, 0, 55, 0
5, 52416, Note_on_c, 0, 50, 72
5, 52512, Note_on_c, 0, 50, 0
5, 52512, Note_on_c, 0, 57, 72
5, 52704, Note_on_c, 0, 57, 0
5, 52704, Note_on_c, 0, 57, 72
5, 53088, Note_on_c, 0, 57, 0
5, 53088, Note_on_c, 0, 57, 72
5, 53472, Note_on_c, 0, 57, 0
5, 53472, Note_on_c, 0, 57, 72
5, 53568, Note_on_c, 0, 57, 0
5, 53952, Note_on_c, 0, 50, 72
5, 54096, Note_on_c, 0, 50, 0
5, 54096, Note_on_c, 0, 53, 72
5, 54144, Note_on_c, 0, 53, 0
5, 54144, Note_on_c, 0, 52, 72
5, 54192, Note_on_c, 0, 52, 0
5, 54192, Note_on_c, 0, 52, 72
5, 54240, Note_on_c, 0, 52, 0
5, 54240, Note_on_c, 0, 52, 72
5, 54288, Note_on_c, 0, 52, 0
5, 54288, Note_on_c, 0, 55, 72
5, 54336, Note_on_c, 0, 55, 0
5, 54336, Note_on_c, 0, 54, 72
5, 54384, Note_on_c, 0, 54, 0
5, 54384, Note_on_c, 0, 54, 72
5, 54432, Note_on_c, 0, 54, 0
5, 54432, Note_on_c, 0, 54, 72
5, 54480, Note_on_c, 0, 54, 0
5, 54480, Note_on_c, 0, 57, 72
5, 54528, Note_on_c, 0, 57, 0
5, 54528, Note_on_c, 0, 55, 72
5, 54576, Note_on_c, 0, 55, 0
5, 54576, Note_on_c, 0, 55, 72
5, 54624, Note_on_c, 0, 55, 0
5, 54624, Note_on_c, 0, 55, 72
5, 54672, Note_on_c, 0, 55, 0
5, 54672, Note_on_c, 0, 58, 72
5, 54720, Note_on_c, 0, 58, 0
5, 54720, Note_on_c, 0, 57, 72
5, 54768, Note_on_c, 0, 57, 0
5, 54768, Note_on_c, 0, 57, 72
5, 54816, Note_on_c, 0, 57, 0
5, 54816, Note_on_c, 0, 57, 72
5, 55008, Note_on_c, 0, 57, 0
5, 55008, Note_on_c, 0, 57, 72
5, 55056, Note_on_c, 0, 57, 0
5, 55056, Note_on_c, 0, 54, 72
5, 55104, Note_on_c, 0, 54, 0
5, 55104, Note_on_c, 0, 55, 72
5, 55152, Note_on_c, 0, 55, 0
5, 55152, Note_on_c, 0, 55, 72
5, 55200, Note_on_c, 0, 55, 0
5, 55200, Note_on_c, 0, 55, 72
5, 55248, Note_on_c, 0, 55, 0
5, 55248, Note_on_c, 0, 52, 72
5, 55296, Note_on_c, 0, 52, 0
5, 55296, Note_on_c, 0, 53, 72
5, 55344, Note_on_c, 0, 53, 0
5, 55344, Note_on_c, 0, 53, 72
5, 55392, Note_on_c, 0, 53, 0
5, 55392, Note_on_c, 0, 53, 72
5, 55440, Note_on_c, 0, 53, 0
5, 55440, Note_on_c, 0, 50, 72
5, 55488, Note_on_c, 0, 50, 0
5, 55488, Note_on_c, 0, 51, 72
5, 55536, Note_on_c, 0, 51, 0
5, 55536, Note_on_c, 0, 53, 72
5, 55584, Note_on_c, 0, 53, 0
5, 55584, Note_on_c, 0, 55, 72
5, 55680, Note_on_c, 0, 55, 0
5, 55680, Note_on_c, 0, 43, 72
5, 55776, Note_on_c, 0, 43, 0
5, 55776, Note_on_c, 0, 48, 72
5, 55968, Note_on_c, 0, 48, 0
5, 56064, Note_on_c, 0, 53, 72
5, 56160, Note_on_c, 0, 53, 0
5, 56160, Note_on_c, 0, 52, 72
5, 56352, Note_on_c, 0, 52, 0
5, 56352, Note_on_c, 0, 51, 72
5, 56448, Note_on_c, 0, 51, 0
5, 56448, Note_on_c, 0, 57, 72
5, 56544, Note_on_c, 0, 57, 0
5, 56544, Note_on_c, 0, 55, 72
5, 56640, Note_on_c, 0, 55, 0
5, 56640, Note_on_c, 0, 48, 72
5, 56832, Note_on_c, 0, 48, 0
5, 56832, Note_on_c, 0, 47, 72
5, 56880, Note_on_c, 0, 47, 0
5, 56880, Note_on_c, 0, 45, 72
5, 56928, Note_on_c, 0, 45, 0
5, 56928, Note_on_c, 0, 43, 72
5, 57024, Note_on_c, 0, 43, 0
5, 57024, Note_on_c, 0, 48, 72
5, 57120, Note_on_c, 0, 48, 0
5, 57120, Note_on_c, 0, 45, 72
5, 57216, Note_on_c, 0, 45, 0
5, 57216, Note_on_c, 0, 47, 72
5, 57312, Note_on_c, 0, 47, 0
5, 57312, Note_on_c, 0, 44, 72
5, 57408, Note_on_c, 0, 44, 0
5, 57408, Note_on_c, 0, 45, 72
5, 57504, Note_on_c, 0, 45, 0
5, 57504, Note_on_c, 0, 40, 72
5, 57600, Note_on_c, 0, 40, 0
5, 57984, Note_on_c, 0, 57, 72
5, 58080, Note_on_c, 0, 57, 0
5, 58080, Note_on_c, 0, 57, 72
5, 58128, Note_on_c, 0, 57, 0
5, 58128, Note_on_c, 0, 54, 72
5, 58176, Note_on_c, 0, 54, 0
5, 58176, Note_on_c, 0, 55, 72
5, 58224, Note_on_c, 0, 55, 0
5, 58224, Note_on_c, 0, 55, 72
5, 58272, Note_on_c, 0, 55, 0
5, 58272, Note_on_c, 0, 55, 72
5, 58320, Note_on_c, 0, 55, 0
5, 58320, Note_on_c, 0, 52, 72
5, 58368, Note_on_c, 0, 52, 0
5, 58368, Note_on_c, 0, 54, 72
5, 58464, Note_on_c, 0, 54, 0
5, 58464, Note_on_c, 0, 55, 72
5, 58560, Note_on_c, 0, 55, 0
5, 58560, Note_on_c, 0, 49, 72
5, 58656, Note_on_c, 0, 49, 0
5, 58752, Note_on_c, 0, 50, 72
5, 58848, Note_on_c, 0, 50, 0
5, 58848, Note_on_c, 0, 57, 72
5, 58944, Note_on_c, 0, 57, 0
5, 58944, Note_on_c, 0, 58, 72
5, 59040, Note_on_c, 0, 58, 0
5, 59136, Note_on_c, 0, 54, 72
5, 59232, Note_on_c, 0, 54, 0
5, 59232, Note_on_c, 0, 53, 72
5, 59328, Note_on_c, 0, 53, 0
5, 59328, Note_on_c, 0, 52, 72
5, 59424, Note_on_c, 0, 52, 0
5, 59520, Note_on_c, 0, 51, 72
5, 59616, Note_on_c, 0, 51, 0
5, 59616, Note_on_c, 0, 50, 72
5, 59712, Note_on_c, 0, 50, 0
5, 59712, Note_on_c, 0, 49, 72
5, 59808, Note_on_c, 0, 49, 0
5, 59904, Note_on_c, 0, 48, 88
5, 60000, Note_on_c, 0, 48, 0
5, 60000, Note_on_c, 0, 47, 88
5, 60096, Note_on_c, 0, 47, 0
5, 60096, Note_on_c, 0, 46, 88
5, 60288, Note_on_c, 0, 46, 0
5, 60288, Note_on_c, 0, 45, 88
5, 60336, Note_on_c, 0, 45, 0
5, 60336, Note_on_c, 0, 44, 88
5, 60384, Note_on_c, 0, 44, 0
5, 60384, Note_on_c, 0, 45, 88
5, 60480, Note_on_c, 0, 45, 0
5, 60528, Note_on_c, 0, 55, 72
5, 60576, Note_on_c, 0, 55, 0
5, 60576, Note_on_c, 0, 53, 72
5, 60624, Note_on_c, 0, 53, 0
5, 60624, Note_on_c, 0, 52, 72
5, 60672, Note_on_c, 0, 52, 0
5, 60672, Note_on_c, 0, 50, 72
5, 60720, Note_on_c, 0, 50, 0
5, 60720, Note_on_c, 0, 49, 72
5, 60768, Note_on_c, 0, 49, 0
5, 60768, Note_on_c, 0, 50, 72
5, 60864, Note_on_c, 0, 50, 0
5, 60912, Note_on_c, 0, 50, 72
5, 60960, Note_on_c, 0, 50, 0
5, 60960, Note_on_c, 0, 52, 72
5, 61056, Note_on_c, 0, 52, 0
5, 61056, Note_on_c, 0, 54, 72
5, 61152, Note_on_c, 0, 54, 0
5, 61152, Note_on_c, 0, 55, 72
5, 61200, Note_on_c, 0, 55, 0
5, 61200, Note_on_c, 0, 53, 72
5, 61248, Note_on_c, 0, 53, 0
5, 61248, Note_on_c, 0, 52, 72
5, 61296, Note_on_c, 0, 52, 0
5, 61296, Note_on_c, 0, 55, 72
5, 61344, Note_on_c, 0, 55, 0
5, 61344, Note_on_c, 0, 53, 72
5, 61536, Note_on_c, 0, 53, 0
5, 61536, Note_on_c, 0, 53, 72
5, 61584, Note_on_c, 0, 53, 0
5, 61584, Note_on_c, 0, 53, 72
5, 61632, Note_on_c, 0, 53, 0
5, 61632, Note_on_c, 0, 58, 72
5, 61776, Note_on_c, 0, 58, 0
5, 61776, Note_on_c, 0, 57, 72
5, 61824, Note_on_c, 0, 57, 0
5, 61824, Note_on_c, 0, 55, 72
5, 61920, Note_on_c, 0, 55, 0
5, 61920, Note_on_c, 0, 54, 72
5, 62016, Note_on_c, 0, 54, 0
5, 62064, Note_on_c, 0, 50, 72
5, 62112, Note_on_c, 0, 50, 0
5, 62112, Note_on_c, 0, 51, 72
5, 62208, Note_on_c, 0, 51, 0
5, 62208, Note_on_c, 0, 52, 72
5, 62304, Note_on_c, 0, 52, 0
5, 62304, Note_on_c, 0, 53, 72
5, 62400, Note_on_c, 0, 53, 0
5, 62448, Note_on_c, 0, 48, 72
5, 62496, Note_on_c, 0, 48, 0
5, 62496, Note_on_c, 0, 49, 72
5, 62592, Note_on_c, 0, 49, 0
5, 62592, Note_on_c, 0, 50, 72
5, 62688, Note_on_c, 0, 50, 0
5, 62688, Note_on_c, 0, 51, 72
5, 62784, Note_on_c, 0, 51, 0
5, 62784, Note_on_c, 0, 58, 88
5, 62880, Note_on_c, 0, 58, 0
5, 62880, Note_on_c, 0, 52, 88
5, 62976, Note_on_c, 0, 52, 0
5, 62976, Note_on_c, 0, 54, 88
5, 63072, Note_on_c, 0, 54, 0
5, 63168, Note_on_c, 0, 55, 88
5, 63264, Note_on_c, 0, 55, 0
5, 63264, Note_on_c, 0, 57, 88
5, 63360, Note_on_c, 0, 57, 0
5, 63360, Note_on_c, 0, 59, 88
5, 63456, Note_on_c, 0, 59, 0
5, 63552, Note_on_c, 0, 60, 88
5, 63648, Note_on_c, 0, 60, 0
5, 63648, Note_on_c, 0, 58, 88
5, 63744, Note_on_c, 0, 58, 0
5, 63744, Note_on_c, 0, 57, 88
5, 63840, Note_on_c, 0, 57, 0
5, 63936, Note_on_c, 0, 55, 88
5, 63984, Note_on_c, 0, 55, 0
5, 63984, Note_on_c, 0, 54, 88
5, 64032, Note_on_c, 0, 54, 0
5, 64032, Note_on_c, 0, 55, 88
5, 64128, Note_on_c, 0, 55, 0
5, 64128, Note_on_c, 0, 57, 88
5, 64224, Note_on_c, 0, 57, 0
5, 64224, Note_on_c, 0, 59, 88
5, 64320, Note_on_c, 0, 59, 0
5, 64320, Note_on_c, 0, 47, 72
5, 64416, Note_on_c, 0, 47, 0
5, 64416, Note_on_c, 0, 48, 72
5, 64512, Note_on_c, 0, 48, 0
5, 64512, Note_on_c, 0, 49, 72
5, 64608, Note_on_c, 0, 49, 0
5, 64608, Note_on_c, 0, 50, 72
5, 64800, Note_on_c, 0, 50, 0
5, 64896, Note_on_c, 0, 58, 72
5, 64992, Note_on_c, 0, 58, 0
5, 64992, Note_on_c, 0, 58, 72
5, 65040, Note_on_c, 0, 58, 0
5, 65040, Note_on_c, 0, 55, 72
5, 65088, Note_on_c, 0, 55, 0
5, 65088, Note_on_c, 0, 57, 72
5, 65136, Note_on_c, 0, 57, 0
5, 65136, Note_on_c, 0, 57, 72
5, 65184, Note_on_c, 0, 57, 0
5, 65184, Note_on_c, 0, 57, 72
5, 65232, Note_on_c, 0, 57, 0
5, 65232, Note_on_c, 0, 53, 72
5, 65280, Note_on_c, 0, 53, 0
5, 65280, Note_on_c, 0, 55, 72
5, 65328, Note_on_c, 0, 55, 0
5, 65328, Note_on_c, 0, 55, 72
5, 65376, Note_on_c, 0, 55, 0
5, 65376, Note_on_c, 0, 55, 72
5, 65424, Note_on_c, 0, 55, 0
5, 65424, Note_on_c, 0, 52, 72
5, 65472, Note_on_c, 0, 52, 0
5, 65472, Note_on_c, 0, 53, 72
5, 65520, Note_on_c, 0, 53, 0
5, 65520, Note_on_c, 0, 53, 72
5, 65568, Note_on_c, 0, 53, 0
5, 65568, Note_on_c, 0, 53, 72
5, 65616, Note_on_c, 0, 53, 0
5, 65616, Note_on_c, 0, 50, 72
5, 65664, Note_on_c, 0, 50, 0
5, 65664, Note_on_c, 0, 52, 72
5, 65712, Note_on_c, 0, 52, 0
5, 65712, Note_on_c, 0, 52, 72
5, 65760, Note_on_c, 0, 52, 0
5, 65760, Note_on_c, 0, 52, 72
5, 65808, Note_on_c, 0, 52, 0
5, 65808, Note_on_c, 0, 49, 72
5, 65856, Note_on_c, 0, 49, 0
5, 65856, Note_on_c, 0, 50, 72
5, 65952, Note_on_c, 0, 50, 0
5, 65952, Note_on_c, 0, 43, 72
5, 66048, Note_on_c, 0, 43, 0
5, 66048, Note_on_c, 0, 55, 72
5, 66144, Note_on_c, 0, 55, 0
5, 66144, Note_on_c, 0, 55, 72
5, 66240, Note_on_c, 0, 55, 0
5, 66240, Note_on_c, 0, 57, 72
5, 66288, Note_on_c, 0, 57, 0
5, 66288, Note_on_c, 0, 55, 72
5, 66336, Note_on_c, 0, 55, 0
5, 66336, Note_on_c, 0, 53, 72
5, 66432, Note_on_c, 0, 53, 0
5, 66432, Note_on_c, 0, 58, 72
5, 66528, Note_on_c, 0, 58, 0
5, 66528, Note_on_c, 0, 57, 72
5, 66672, Note_on_c, 0, 57, 0
5, 66672, Note_on_c, 0, 55, 72
5, 66720, Note_on_c, 0, 55, 0
5, 66720, Note_on_c, 0, 57, 72
5, 66816, Note_on_c, 0, 57, 0
5, 66816, Note_on_c, 0, 45, 88
5, 66912, Note_on_c, 0, 45, 0
5, 66912, Note_on_c, 0, 50, 88
5, 67008, Note_on_c, 0, 50, 0
5, 67008, Note_on_c, 0, 41, 88
5, 67104, Note_on_c, 0, 41, 0
5, 67104, Note_on_c, 0, 48, 88
5, 67200, Note_on_c, 0, 48, 0
5, 67200, Note_on_c, 0, 49, 88
5, 67296, Note_on_c, 0, 49, 0
5, 67296, Note_on_c, 0, 50, 88
5, 67392, Note_on_c, 0, 50, 0
5, 67392, Note_on_c, 0, 45, 88
5, 67488, Note_on_c, 0, 45, 0
5, 67488, Note_on_c, 0, 52, 88
5, 67680, Note_on_c, 0, 52, 0
5, 67680, Note_on_c, 0, 53, 88
5, 67776, Note_on_c, 0, 53, 0
5, 67776, Note_on_c, 0, 52, 88
5, 67872, Note_on_c, 0, 52, 0
5, 67872, Note_on_c, 0, 50, 88
5, 67920, Note_on_c, 0, 50, 0
5, 67920, Note_on_c, 0, 52, 88
5, 67968, Note_on_c, 0, 52, 0
5, 67968, Note_on_c, 0, 50, 88
5, 68064, Note_on_c, 0, 50, 0
5, 68064, Note_on_c, 0, 57, 88
5, 68160, Note_on_c, 0, 57, 0
5, 68160, Note_on_c, 0, 58, 88
5, 68256, Note_on_c, 0, 58, 0
5, 68256, Note_on_c, 0, 57, 88
5, 68400, Note_on_c, 0, 57, 0
5, 68400, Note_on_c, 0, 55, 88
5, 68448, Note_on_c, 0, 55, 0
5, 68448, Note_on_c, 0, 54, 88
5, 68544, Note_on_c, 0, 54, 0
5, 68544, Note_on_c, 0, 53, 88
5, 68640, Note_on_c, 0, 53, 0
5, 68640, Note_on_c, 0, 52, 88
5, 68736, Note_on_c, 0, 52, 0
5, 68736, Note_on_c, 0, 51, 88
5, 68832, Note_on_c, 0, 51, 0
5, 68832, Note_on_c, 0, 51, 88
5, 68880, Note_on_c, 0, 51, 0
5, 68880, Note_on_c, 0, 50, 88
5, 68928, Note_on_c, 0, 50, 0
5, 68928, Note_on_c, 0, 53, 88
5, 68976, Note_on_c, 0, 53, 0
5, 68976, Note_on_c, 0, 53, 88
5, 69024, Note_on_c, 0, 53, 0
5, 69024, Note_on_c, 0, 53, 88
5, 69072, Note_on_c, 0, 53, 0
5, 69072, Note_on_c, 0, 52, 88
5, 69120, Note_on_c, 0, 52, 0
5, 69120, Note_on_c, 0, 55, 88
5, 69168, Note_on_c, 0, 55, 0
5, 69168, Note_on_c, 0, 55, 88
5, 69216, Note_on_c, 0, 55, 0
5, 69216, Note_on_c, 0, 55, 88
5, 69264, Note_on_c, 0, 55, 0
5, 69264, Note_on_c, 0, 53, 88
5, 69312, Note_on_c, 0, 53, 0
5, 69312, Note_on_c, 0, 57, 88
5, 69360, Note_on_c, 0, 57, 0
5, 69360, Note_on_c, 0, 57, 88
5, 69408, Note_on_c, 0, 57, 0
5, 69408, Note_on_c, 0, 57, 88
5, 69456, Note_on_c, 0, 57, 0
5, 69456, Note_on_c, 0, 55, 88
5, 69504, Note_on_c, 0, 55, 0
5, 69504, Note_on_c, 0, 58, 88
5, 69552, Note_on_c, 0, 58, 0
5, 69552, Note_on_c, 0, 58, 88
5, 69600, Note_on_c, 0, 58, 0
5, 69600, Note_on_c, 0, 57, 88
5, 69888, Note_on_c, 0, 57, 0
5, 69888, Note_on_c, 0, 57, 88
5, 69936, Note_on_c, 0, 57, 0
5, 69936, Note_on_c, 0, 56, 88
5, 69984, Note_on_c, 0, 56, 0
5, 69984, Note_on_c, 0, 57, 88
5, 70272, Note_on_c, 0, 57, 0
5, 70272, Note_on_c, 0, 45, 88
5, 70368, Note_on_c, 0, 45, 0
5, 70368, Note_on_c, 0, 38, 88
5, 70752, Note_on_c, 0, 38, 0
5, 70752, End_track
0, 0, End_of_file
