0, 0, Header, 1, 4, 120
1, 0, Start_track
1, 0, Time_signature, 3, 3, 12, 8
1, 0, Key_signature, -1, "major"
1, 0, Tempo, 821917
1, 32040, Tempo, 821917
1, 32058, Tempo, 833333
1, 32076, Tempo, 845070
1, 32094, Tempo, 857142
1, 32113, Tempo, 869565
1, 32131, Tempo, 882352
1, 32149, Tempo, 895522
1, 32167, Tempo, 909090
1, 32186, Tempo, 923076
1, 32204, Tempo, 937500
1, 32222, Tempo, 952380
1, 32240, Tempo, 967741
1, 32259, Tempo, 983606
1, 32277, Tempo, 1000000
1, 32295, Tempo, 1016949
1, 32313, Tempo, 1034482
1, 32315, Tempo, 1052631
1, 32317, Tempo, 1111111
1, 32319, Tempo, 1132075
1, 32321, Tempo, 1153846
1, 32327, Tempo, 1176470
1, 32331, Tempo, 1200000
1, 32333, Tempo, 1224489
1, 32337, Tempo, 1250000
1, 32341, Tempo, 1276595
1, 32354, Tempo, 1304347
1, 32358, Tempo, 1333333
1, 32360, Tempo, 1363636
1, 32362, Tempo, 1428571
1, 32364, Tempo, 1463414
1, 32368, Tempo, 1538461
1, 32370, Tempo, 1578947
1, 32372, Tempo, 1621621
1, 32376, Tempo, 1666666
1, 32394, Tempo, 1714285
1, 32402, Tempo, 1764705
1, 32416, Tempo, 1818181
1, 32440, Tempo, 1875000
1, 32450, Tempo, 1935483
1, 32462, Tempo, 2000000
1, 32464, Tempo, 2068965
1, 32468, Tempo, 2142857
1, 32474, Tempo, 2222222
1, 32478, Tempo, 2307692
1, 32488, Tempo, 2400000
1, 32494, Tempo, 2500000
1, 32500, Tempo, 2608695
1, 32510, Tempo, 2727272
1, 32544, Tempo, 2068965
1, 32580, End_track
2, 0, Start_track
2, 0, MIDI_port, 0
2, 0, Title_t, ""
2, 0, Control_c, 0, 10, 0
2, 180, Note_on_c, 0, 69, 68
2, 300, Note_on_c, 0, 74, 98
2, 301, Note_on_c, 0, 69, 0
2, 315, Note_on_c, 0, 76, 87
2, 317, Note_on_c, 0, 74, 0
2, 330, Note_on_c, 0, 77, 98
2, 331, Note_on_c, 0, 76, 0
2, 360, Note_on_c, 0, 76, 85
2, 362, Note_on_c, 0, 77, 0
2, 480, Note_on_c, 0, 69, 87
2, 482, Note_on_c, 0, 76, 0
2, 566, Note_on_c, 0, 69, 0
2, 570, Note_on_c, 0, 74, 100
2, 600, Note_on_c, 0, 72, 95
2, 601, Note_on_c, 0, 74, 0
2, 630, Note_on_c, 0, 70, 98
2, 638, Note_on_c, 0, 72, 0
2, 660, Note_on_c, 0, 69, 64
2, 661, Note_on_c, 0, 70, 0
2, 690, Note_on_c, 0, 67, 70
2, 691, Note_on_c, 0, 69, 0
2, 720, Note_on_c, 0, 72, 89
2, 721, Note_on_c, 0, 67, 0
2, 735, Note_on_c, 0, 70, 87
2, 739, Note_on_c, 0, 72, 0
2, 750, Note_on_c, 0, 69, 95
2, 753, Note_on_c, 0, 70, 0
2, 780, Note_on_c, 0, 70, 87
2, 784, Note_on_c, 0, 69, 0
2, 795, Note_on_c, 0, 69, 91
2, 796, Note_on_c, 0, 70, 0
2, 810, Note_on_c, 0, 67, 68
2, 812, Note_on_c, 0, 69, 0
2, 840, Note_on_c, 0, 65, 87
2, 843, Note_on_c, 0, 67, 0
2, 913, Note_on_c, 0, 65, 0
2, 930, Note_on_c, 0, 67, 91
2, 960, Note_on_c, 0, 69, 85
2, 964, Note_on_c, 0, 67, 0
2, 990, Note_on_c, 0, 70, 78
2, 994, Note_on_c, 0, 69, 0
2, 1020, Note_on_c, 0, 69, 82
2, 1025, Note_on_c, 0, 70, 0
2, 1048, Note_on_c, 0, 69, 0
2, 1050, Note_on_c, 0, 67, 68
2, 1080, Note_on_c, 0, 73, 105
2, 1083, Note_on_c, 0, 67, 0
2, 1108, Note_on_c, 0, 73, 0
2, 1110, Note_on_c, 0, 67, 66
2, 1140, Note_on_c, 0, 69, 98
2, 1147, Note_on_c, 0, 67, 0
2, 1170, Note_on_c, 0, 70, 76
2, 1172, Note_on_c, 0, 69, 0
2, 1200, Note_on_c, 0, 69, 80
2, 1207, Note_on_c, 0, 70, 0
2, 1228, Note_on_c, 0, 69, 0
2, 1230, Note_on_c, 0, 67, 68
2, 1256, Note_on_c, 0, 67, 0
2, 1260, Note_on_c, 0, 76, 107
2, 1290, Note_on_c, 0, 67, 60
2, 1292, Note_on_c, 0, 76, 0
2, 1320, Note_on_c, 0, 69, 89
2, 1325, Note_on_c, 0, 67, 0
2, 1350, Note_on_c, 0, 70, 76
2, 1350, Note_on_c, 0, 69, 0
2, 1380, Note_on_c, 0, 69, 87
2, 1384, Note_on_c, 0, 70, 0
2, 1410, Note_on_c, 0, 67, 70
2, 1412, Note_on_c, 0, 69, 0
2, 1440, Note_on_c, 0, 65, 95
2, 1444, Note_on_c, 0, 67, 0
2, 1470, Note_on_c, 0, 64, 100
2, 1471, Note_on_c, 0, 65, 0
2, 1500, Note_on_c, 0, 67, 80
2, 1501, Note_on_c, 0, 64, 0
2, 1530, Note_on_c, 0, 65, 91
2, 1536, Note_on_c, 0, 67, 0
2, 1560, Note_on_c, 0, 64, 85
2, 1564, Note_on_c, 0, 65, 0
2, 1588, Note_on_c, 0, 64, 0
2, 1590, Note_on_c, 0, 62, 82
2, 1611, Note_on_c, 0, 62, 0
2, 1620, Note_on_c, 0, 62, 85
2, 1650, Note_on_c, 0, 60, 80
2, 1656, Note_on_c, 0, 62, 0
2, 1680, Note_on_c, 0, 59, 76
2, 1685, Note_on_c, 0, 60, 0
2, 1710, Note_on_c, 0, 57, 74
2, 1712, Note_on_c, 0, 59, 0
2, 1740, Note_on_c, 0, 65, 85
2, 1745, Note_on_c, 0, 57, 0
2, 1809, Note_on_c, 0, 65, 0
2, 1830, Note_on_c, 0, 64, 80
2, 1860, Note_on_c, 0, 76, 85
2, 1860, Note_on_c, 0, 64, 0
2, 1890, Note_on_c, 0, 74, 82
2, 1894, Note_on_c, 0, 76, 0
2, 1920, Note_on_c, 0, 72, 87
2, 1923, Note_on_c, 0, 74, 0
2, 1950, Note_on_c, 0, 71, 70
2, 1952, Note_on_c, 0, 72, 0
2, 1980, Note_on_c, 0, 69, 68
2, 1983, Note_on_c, 0, 71, 0
2, 2010, Note_on_c, 0, 71, 102
2, 2012, Note_on_c, 0, 69, 0
2, 2040, Note_on_c, 0, 72, 82
2, 2046, Note_on_c, 0, 71, 0
2, 2055, Note_on_c, 0, 71, 72
2, 2055, Note_on_c, 0, 72, 0
2, 2130, Note_on_c, 0, 69, 64
2, 2134, Note_on_c, 0, 71, 0
2, 2144, Note_on_c, 0, 69, 0
2, 2145, Note_on_c, 0, 71, 85
2, 2160, Note_on_c, 0, 72, 78
2, 2163, Note_on_c, 0, 71, 0
2, 2236, Note_on_c, 0, 72, 0
2, 2250, Note_on_c, 0, 76, 78
2, 2280, Note_on_c, 0, 80, 87
2, 2285, Note_on_c, 0, 76, 0
2, 2310, Note_on_c, 0, 83, 85
2, 2314, Note_on_c, 0, 80, 0
2, 2340, Note_on_c, 0, 81, 85
2, 2343, Note_on_c, 0, 83, 0
2, 2400, Note_on_c, 0, 69, 82
2, 2401, Note_on_c, 0, 81, 0
2, 2454, Note_on_c, 0, 69, 0
2, 2460, Note_on_c, 0, 77, 89
2, 2557, Note_on_c, 0, 77, 0
2, 2580, Note_on_c, 0, 71, 85
2, 2638, Note_on_c, 0, 71, 0
2, 2640, Note_on_c, 0, 74, 98
2, 2734, Note_on_c, 0, 74, 0
2, 2760, Note_on_c, 0, 68, 68
2, 2820, Note_on_c, 0, 71, 82
2, 2826, Note_on_c, 0, 68, 0
2, 2913, Note_on_c, 0, 71, 0
2, 2940, Note_on_c, 0, 64, 89
2, 2997, Note_on_c, 0, 64, 0
2, 3000, Note_on_c, 0, 69, 87
2, 3075, Note_on_c, 0, 69, 0
2, 3080, Note_on_c, 0, 67, 85
2, 3100, Note_on_c, 0, 65, 91
2, 3102, Note_on_c, 0, 67, 0
2, 3120, Note_on_c, 0, 67, 87
2, 3121, Note_on_c, 0, 65, 0
2, 3140, Note_on_c, 0, 65, 72
2, 3143, Note_on_c, 0, 67, 0
2, 3160, Note_on_c, 0, 64, 82
2, 3162, Note_on_c, 0, 65, 0
2, 3179, Note_on_c, 0, 64, 0
2, 3180, Note_on_c, 0, 62, 76
2, 3200, Note_on_c, 0, 64, 87
2, 3201, Note_on_c, 0, 62, 0
2, 3220, Note_on_c, 0, 65, 89
2, 3220, Note_on_c, 0, 64, 0
2, 3240, Note_on_c, 0, 55, 85
2, 3244, Note_on_c, 0, 65, 0
2, 3298, Note_on_c, 0, 55, 0
2, 3300, Note_on_c, 0, 72, 85
2, 3421, Note_on_c, 0, 72, 0
2, 3440, Note_on_c, 0, 71, 91
2, 3460, Note_on_c, 0, 69, 102
2, 3463, Note_on_c, 0, 71, 0
2, 3480, Note_on_c, 0, 71, 85
2, 3483, Note_on_c, 0, 69, 0
2, 3500, Note_on_c, 0, 69, 72
2, 3504, Note_on_c, 0, 71, 0
2, 3520, Note_on_c, 0, 68, 80
2, 3523, Note_on_c, 0, 69, 0
2, 3540, Note_on_c, 0, 66, 80
2, 3544, Note_on_c, 0, 68, 0
2, 3560, Note_on_c, 0, 68, 80
2, 3561, Note_on_c, 0, 66, 0
2, 3578, Note_on_c, 0, 68, 0
2, 3580, Note_on_c, 0, 69, 78
2, 3600, Note_on_c, 0, 59, 70
2, 3605, Note_on_c, 0, 69, 0
2, 3648, Note_on_c, 0, 59, 0
2, 3660, Note_on_c, 0, 76, 89
2, 3790, Note_on_c, 0, 76, 0
2, 3800, Note_on_c, 0, 74, 89
2, 3820, Note_on_c, 0, 72, 93
2, 3820, Note_on_c, 0, 74, 0
2, 3840, Note_on_c, 0, 74, 89
2, 3843, Note_on_c, 0, 72, 0
2, 3860, Note_on_c, 0, 72, 87
2, 3866, Note_on_c, 0, 74, 0
2, 3880, Note_on_c, 0, 71, 72
2, 3884, Note_on_c, 0, 72, 0
2, 3900, Note_on_c, 0, 69, 68
2, 3903, Note_on_c, 0, 71, 0
2, 3920, Note_on_c, 0, 71, 98
2, 3921, Note_on_c, 0, 69, 0
2, 3940, Note_on_c, 0, 72, 82
2, 3942, Note_on_c, 0, 71, 0
2, 3960, Note_on_c, 0, 62, 85
2, 3964, Note_on_c, 0, 72, 0
2, 3996, Note_on_c, 0, 62, 0
2, 4020, Note_on_c, 0, 79, 87
2, 4154, Note_on_c, 0, 79, 0
2, 4160, Note_on_c, 0, 77, 82
2, 4180, Note_on_c, 0, 76, 82
2, 4182, Note_on_c, 0, 77, 0
2, 4200, Note_on_c, 0, 77, 78
2, 4202, Note_on_c, 0, 76, 0
2, 4220, Note_on_c, 0, 76, 80
2, 4224, Note_on_c, 0, 77, 0
2, 4239, Note_on_c, 0, 76, 0
2, 4240, Note_on_c, 0, 74, 80
2, 4260, Note_on_c, 0, 73, 100
2, 4261, Note_on_c, 0, 74, 0
2, 4280, Note_on_c, 0, 74, 89
2, 4284, Note_on_c, 0, 73, 0
2, 4300, Note_on_c, 0, 76, 89
2, 4301, Note_on_c, 0, 74, 0
2, 4320, Note_on_c, 0, 62, 89
2, 4323, Note_on_c, 0, 76, 0
2, 4375, Note_on_c, 0, 62, 0
2, 4380, Note_on_c, 0, 74, 89
2, 4440, Note_on_c, 0, 73, 87
2, 4440, Note_on_c, 0, 74, 0
2, 4498, Note_on_c, 0, 73, 0
2, 4500, Note_on_c, 0, 74, 98
2, 4558, Note_on_c, 0, 74, 0
2, 4560, Note_on_c, 0, 69, 82
2, 4620, Note_on_c, 0, 74, 102
2, 4624, Note_on_c, 0, 69, 0
2, 4635, Note_on_c, 0, 76, 87
2, 4636, Note_on_c, 0, 74, 0
2, 4650, Note_on_c, 0, 77, 87
2, 4653, Note_on_c, 0, 76, 0
2, 4680, Note_on_c, 0, 76, 91
2, 4690, Note_on_c, 0, 77, 0
2, 4799, Note_on_c, 0, 76, 0
2, 4800, Note_on_c, 0, 69, 95
2, 4874, Note_on_c, 0, 69, 0
2, 4890, Note_on_c, 0, 74, 95
2, 4920, Note_on_c, 0, 72, 82
2, 4923, Note_on_c, 0, 74, 0
2, 4950, Note_on_c, 0, 70, 91
2, 4954, Note_on_c, 0, 72, 0
2, 4980, Note_on_c, 0, 69, 80
2, 4981, Note_on_c, 0, 70, 0
2, 5010, Note_on_c, 0, 67, 68
2, 5014, Note_on_c, 0, 69, 0
2, 5040, Note_on_c, 0, 72, 98
2, 5041, Note_on_c, 0, 67, 0
2, 5055, Note_on_c, 0, 70, 87
2, 5056, Note_on_c, 0, 72, 0
2, 5070, Note_on_c, 0, 69, 85
2, 5072, Note_on_c, 0, 70, 0
2, 5100, Note_on_c, 0, 70, 89
2, 5104, Note_on_c, 0, 69, 0
2, 5115, Note_on_c, 0, 69, 87
2, 5116, Note_on_c, 0, 70, 0
2, 5130, Note_on_c, 0, 67, 66
2, 5132, Note_on_c, 0, 69, 0
2, 5160, Note_on_c, 0, 65, 89
2, 5166, Note_on_c, 0, 67, 0
2, 5226, Note_on_c, 0, 65, 0
2, 5250, Note_on_c, 0, 67, 70
2, 5280, Note_on_c, 0, 69, 89
2, 5285, Note_on_c, 0, 67, 0
2, 5310, Note_on_c, 0, 70, 80
2, 5315, Note_on_c, 0, 69, 0
2, 5340, Note_on_c, 0, 69, 78
2, 5343, Note_on_c, 0, 70, 0
2, 5370, Note_on_c, 0, 67, 66
2, 5371, Note_on_c, 0, 69, 0
2, 5400, Note_on_c, 0, 73, 95
2, 5400, Note_on_c, 0, 67, 0
2, 5426, Note_on_c, 0, 73, 0
2, 5430, Note_on_c, 0, 67, 87
2, 5459, Note_on_c, 0, 67, 0
2, 5460, Note_on_c, 0, 69, 89
2, 5490, Note_on_c, 0, 70, 82
2, 5496, Note_on_c, 0, 69, 0
2, 5520, Note_on_c, 0, 69, 80
2, 5524, Note_on_c, 0, 70, 0
2, 5548, Note_on_c, 0, 69, 0
2, 5550, Note_on_c, 0, 67, 61
2, 5578, Note_on_c, 0, 67, 0
2, 5580, Note_on_c, 0, 76, 95
2, 5610, Note_on_c, 0, 67, 68
2, 5612, Note_on_c, 0, 76, 0
2, 5638, Note_on_c, 0, 67, 0
2, 5640, Note_on_c, 0, 69, 87
2, 5670, Note_on_c, 0, 70, 80
2, 5675, Note_on_c, 0, 69, 0
2, 5700, Note_on_c, 0, 69, 78
2, 5707, Note_on_c, 0, 70, 0
2, 5730, Note_on_c, 0, 67, 82
2, 5734, Note_on_c, 0, 69, 0
2, 5760, Note_on_c, 0, 65, 85
2, 5763, Note_on_c, 0, 67, 0
2, 5819, Note_on_c, 0, 65, 0
2, 5820, Note_on_c, 0, 77, 80
2, 5957, Note_on_c, 0, 77, 0
2, 5970, Note_on_c, 0, 76, 80
2, 6000, Note_on_c, 0, 79, 85
2, 6002, Note_on_c, 0, 76, 0
2, 6030, Note_on_c, 0, 77, 78
2, 6034, Note_on_c, 0, 79, 0
2, 6060, Note_on_c, 0, 76, 82
2, 6063, Note_on_c, 0, 77, 0
2, 6088, Note_on_c, 0, 76, 0
2, 6090, Note_on_c, 0, 74, 80
2, 6120, Note_on_c, 0, 73, 82
2, 6123, Note_on_c, 0, 74, 0
2, 6150, Note_on_c, 0, 82, 82
2, 6150, Note_on_c, 0, 73, 0
2, 6178, Note_on_c, 0, 82, 0
2, 6180, Note_on_c, 0, 81, 68
2, 6210, Note_on_c, 0, 79, 70
2, 6215, Note_on_c, 0, 81, 0
2, 6240, Note_on_c, 0, 77, 76
2, 6244, Note_on_c, 0, 79, 0
2, 6270, Note_on_c, 0, 76, 66
2, 6270, Note_on_c, 0, 77, 0
2, 6296, Note_on_c, 0, 76, 0
2, 6300, Note_on_c, 0, 74, 89
2, 6360, Note_on_c, 0, 76, 87
2, 6366, Note_on_c, 0, 74, 0
2, 6420, Note_on_c, 0, 73, 89
2, 6422, Note_on_c, 0, 76, 0
2, 6480, Note_on_c, 0, 74, 76
2, 6483, Note_on_c, 0, 73, 0
2, 6494, Note_on_c, 0, 74, 0
2, 6495, Note_on_c, 0, 73, 91
2, 6508, Note_on_c, 0, 73, 0
2, 6510, Note_on_c, 0, 74, 82
2, 6613, Note_on_c, 0, 74, 0
2, 6660, Note_on_c, 0, 77, 80
2, 6720, Note_on_c, 0, 74, 80
2, 6724, Note_on_c, 0, 77, 0
2, 6778, Note_on_c, 0, 74, 0
2, 6780, Note_on_c, 0, 69, 85
2, 6889, Note_on_c, 0, 69, 0
2, 6900, Note_on_c, 0, 73, 89
2, 6954, Note_on_c, 0, 73, 0
2, 6960, Note_on_c, 0, 76, 85
2, 7067, Note_on_c, 0, 76, 0
2, 7080, Note_on_c, 0, 74, 85
2, 7134, Note_on_c, 0, 74, 0
2, 7140, Note_on_c, 0, 82, 91
2, 7199, Note_on_c, 0, 82, 0
2, 7203, Note_on_c, 0, 76, 110
2, 7219, Note_on_c, 0, 76, 0
2, 7220, Note_on_c, 0, 77, 98
2, 7232, Note_on_c, 0, 76, 110
2, 7234, Note_on_c, 0, 77, 0
2, 7351, Note_on_c, 0, 76, 0
2, 7380, Note_on_c, 0, 69, 89
2, 7400, Note_on_c, 0, 68, 82
2, 7402, Note_on_c, 0, 69, 0
2, 7420, Note_on_c, 0, 69, 80
2, 7424, Note_on_c, 0, 68, 0
2, 7439, Note_on_c, 0, 69, 0
2, 7440, Note_on_c, 0, 62, 80
2, 7460, Note_on_c, 0, 69, 80
2, 7464, Note_on_c, 0, 62, 0
2, 7480, Note_on_c, 0, 71, 82
2, 7482, Note_on_c, 0, 69, 0
2, 7500, Note_on_c, 0, 72, 85
2, 7504, Note_on_c, 0, 71, 0
2, 7520, Note_on_c, 0, 71, 82
2, 7525, Note_on_c, 0, 72, 0
2, 7540, Note_on_c, 0, 69, 85
2, 7541, Note_on_c, 0, 71, 0
2, 7560, Note_on_c, 0, 71, 93
2, 7565, Note_on_c, 0, 69, 0
2, 7580, Note_on_c, 0, 69, 89
2, 7584, Note_on_c, 0, 71, 0
2, 7600, Note_on_c, 0, 71, 80
2, 7605, Note_on_c, 0, 69, 0
2, 7619, Note_on_c, 0, 71, 0
2, 7620, Note_on_c, 0, 64, 85
2, 7640, Note_on_c, 0, 71, 76
2, 7645, Note_on_c, 0, 64, 0
2, 7660, Note_on_c, 0, 72, 85
2, 7664, Note_on_c, 0, 71, 0
2, 7680, Note_on_c, 0, 74, 95
2, 7683, Note_on_c, 0, 72, 0
2, 7700, Note_on_c, 0, 72, 82
2, 7703, Note_on_c, 0, 74, 0
2, 7720, Note_on_c, 0, 71, 91
2, 7722, Note_on_c, 0, 72, 0
2, 7740, Note_on_c, 0, 72, 85
2, 7742, Note_on_c, 0, 71, 0
2, 7760, Note_on_c, 0, 71, 82
2, 7765, Note_on_c, 0, 72, 0
2, 7778, Note_on_c, 0, 71, 0
2, 7780, Note_on_c, 0, 69, 80
2, 7800, Note_on_c, 0, 76, 91
2, 7802, Note_on_c, 0, 69, 0
2, 7820, Note_on_c, 0, 74, 85
2, 7823, Note_on_c, 0, 76, 0
2, 7840, Note_on_c, 0, 72, 66
2, 7846, Note_on_c, 0, 74, 0
2, 7860, Note_on_c, 0, 71, 80
2, 7861, Note_on_c, 0, 72, 0
2, 7880, Note_on_c, 0, 72, 64
2, 7882, Note_on_c, 0, 71, 0
2, 7900, Note_on_c, 0, 69, 74
2, 7901, Note_on_c, 0, 72, 0
2, 7920, Note_on_c, 0, 68, 89
2, 7924, Note_on_c, 0, 69, 0
2, 7940, Note_on_c, 0, 69, 80
2, 7943, Note_on_c, 0, 68, 0
2, 7960, Note_on_c, 0, 71, 82
2, 7966, Note_on_c, 0, 69, 0
2, 7979, Note_on_c, 0, 71, 0
2, 7980, Note_on_c, 0, 64, 82
2, 8000, Note_on_c, 0, 68, 68
2, 8005, Note_on_c, 0, 64, 0
2, 8020, Note_on_c, 0, 71, 66
2, 8024, Note_on_c, 0, 68, 0
2, 8040, Note_on_c, 0, 74, 74
2, 8045, Note_on_c, 0, 71, 0
2, 8060, Note_on_c, 0, 72, 76
2, 8064, Note_on_c, 0, 74, 0
2, 8080, Note_on_c, 0, 71, 74
2, 8080, Note_on_c, 0, 72, 0
2, 8100, Note_on_c, 0, 72, 68
2, 8106, Note_on_c, 0, 71, 0
2, 8120, Note_on_c, 0, 74, 80
2, 8120, Note_on_c, 0, 72, 0
2, 8140, Note_on_c, 0, 76, 93
2, 8142, Note_on_c, 0, 74, 0
2, 8160, Note_on_c, 0, 69, 82
2, 8162, Note_on_c, 0, 76, 0
2, 8180, Note_on_c, 0, 71, 78
2, 8185, Note_on_c, 0, 69, 0
2, 8200, Note_on_c, 0, 72, 66
2, 8205, Note_on_c, 0, 71, 0
2, 8220, Note_on_c, 0, 65, 85
2, 8222, Note_on_c, 0, 72, 0
2, 8259, Note_on_c, 0, 65, 0
2, 8280, Note_on_c, 0, 74, 85
2, 8300, Note_on_c, 0, 76, 70
2, 8306, Note_on_c, 0, 74, 0
2, 8320, Note_on_c, 0, 77, 87
2, 8320, Note_on_c, 0, 76, 0
2, 8340, Note_on_c, 0, 71, 87
2, 8342, Note_on_c, 0, 77, 0
2, 8360, Note_on_c, 0, 72, 80
2, 8364, Note_on_c, 0, 71, 0
2, 8380, Note_on_c, 0, 74, 78
2, 8386, Note_on_c, 0, 72, 0
2, 8400, Note_on_c, 0, 67, 80
2, 8401, Note_on_c, 0, 74, 0
2, 8439, Note_on_c, 0, 67, 0
2, 8460, Note_on_c, 0, 76, 95
2, 8480, Note_on_c, 0, 77, 89
2, 8483, Note_on_c, 0, 76, 0
2, 8500, Note_on_c, 0, 79, 82
2, 8500, Note_on_c, 0, 77, 0
2, 8520, Note_on_c, 0, 72, 82
2, 8524, Note_on_c, 0, 79, 0
2, 8540, Note_on_c, 0, 74, 80
2, 8545, Note_on_c, 0, 72, 0
2, 8560, Note_on_c, 0, 76, 80
2, 8564, Note_on_c, 0, 74, 0
2, 8580, Note_on_c, 0, 69, 76
2, 8581, Note_on_c, 0, 76, 0
2, 8627, Note_on_c, 0, 69, 0
2, 8640, Note_on_c, 0, 77, 91
2, 8660, Note_on_c, 0, 79, 78
2, 8665, Note_on_c, 0, 77, 0
2, 8679, Note_on_c, 0, 79, 0
2, 8680, Note_on_c, 0, 81, 89
2, 8700, Note_on_c, 0, 74, 89
2, 8702, Note_on_c, 0, 81, 0
2, 8720, Note_on_c, 0, 76, 78
2, 8724, Note_on_c, 0, 74, 0
2, 8740, Note_on_c, 0, 77, 87
2, 8743, Note_on_c, 0, 76, 0
2, 8760, Note_on_c, 0, 71, 85
2, 8762, Note_on_c, 0, 77, 0
2, 8797, Note_on_c, 0, 71, 0
2, 8800, Note_on_c, 0, 81, 87
2, 8815, Note_on_c, 0, 81, 0
2, 8820, Note_on_c, 0, 80, 95
2, 8840, Note_on_c, 0, 81, 85
2, 8845, Note_on_c, 0, 80, 0
2, 8860, Note_on_c, 0, 83, 82
2, 8861, Note_on_c, 0, 81, 0
2, 8880, Note_on_c, 0, 76, 91
2, 8881, Note_on_c, 0, 83, 0
2, 8934, Note_on_c, 0, 76, 0
2, 9000, Note_on_c, 0, 76, 82
2, 9020, Note_on_c, 0, 77, 80
2, 9026, Note_on_c, 0, 76, 0
2, 9040, Note_on_c, 0, 79, 82
2, 9041, Note_on_c, 0, 77, 0
2, 9059, Note_on_c, 0, 79, 0
2, 9060, Note_on_c, 0, 73, 85
2, 9080, Note_on_c, 0, 74, 85
2, 9085, Note_on_c, 0, 73, 0
2, 9100, Note_on_c, 0, 76, 85
2, 9105, Note_on_c, 0, 74, 0
2, 9119, Note_on_c, 0, 76, 0
2, 9120, Note_on_c, 0, 69, 78
2, 9157, Note_on_c, 0, 69, 0
2, 9160, Note_on_c, 0, 79, 93
2, 9180, Note_on_c, 0, 78, 98
2, 9181, Note_on_c, 0, 79, 0
2, 9200, Note_on_c, 0, 79, 87
2, 9205, Note_on_c, 0, 78, 0
2, 9220, Note_on_c, 0, 81, 82
2, 9221, Note_on_c, 0, 79, 0
2, 9240, Note_on_c, 0, 74, 89
2, 9241, Note_on_c, 0, 81, 0
2, 9296, Note_on_c, 0, 74, 0
2, 9360, Note_on_c, 0, 74, 102
2, 9380, Note_on_c, 0, 76, 87
2, 9386, Note_on_c, 0, 74, 0
2, 9400, Note_on_c, 0, 77, 87
2, 9400, Note_on_c, 0, 76, 0
2, 9420, Note_on_c, 0, 71, 78
2, 9422, Note_on_c, 0, 77, 0
2, 9440, Note_on_c, 0, 72, 68
2, 9444, Note_on_c, 0, 71, 0
2, 9460, Note_on_c, 0, 74, 68
2, 9463, Note_on_c, 0, 72, 0
2, 9479, Note_on_c, 0, 74, 0
2, 9480, Note_on_c, 0, 67, 78
2, 9519, Note_on_c, 0, 67, 0
2, 9520, Note_on_c, 0, 77, 93
2, 9540, Note_on_c, 0, 76, 85
2, 9542, Note_on_c, 0, 77, 0
2, 9736, Note_on_c, 0, 76, 0
2, 9740, Note_on_c, 0, 74, 95
2, 9760, Note_on_c, 0, 76, 82
2, 9764, Note_on_c, 0, 74, 0
2, 9778, Note_on_c, 0, 76, 0
2, 9780, Note_on_c, 0, 69, 74
2, 9800, Note_on_c, 0, 76, 72
2, 9805, Note_on_c, 0, 69, 0
2, 9820, Note_on_c, 0, 77, 72
2, 9822, Note_on_c, 0, 76, 0
2, 9840, Note_on_c, 0, 79, 82
2, 9844, Note_on_c, 0, 77, 0
2, 9860, Note_on_c, 0, 77, 87
2, 9863, Note_on_c, 0, 79, 0
2, 9880, Note_on_c, 0, 76, 80
2, 9880, Note_on_c, 0, 77, 0
2, 9900, Note_on_c, 0, 77, 70
2, 9905, Note_on_c, 0, 76, 0
2, 10086, Note_on_c, 0, 77, 0
2, 10100, Note_on_c, 0, 76, 82
2, 10120, Note_on_c, 0, 77, 76
2, 10122, Note_on_c, 0, 76, 0
2, 10140, Note_on_c, 0, 71, 64
2, 10141, Note_on_c, 0, 77, 0
2, 10160, Note_on_c, 0, 74, 82
2, 10164, Note_on_c, 0, 71, 0
2, 10180, Note_on_c, 0, 76, 85
2, 10186, Note_on_c, 0, 74, 0
2, 10200, Note_on_c, 0, 77, 87
2, 10205, Note_on_c, 0, 76, 0
2, 10220, Note_on_c, 0, 76, 80
2, 10224, Note_on_c, 0, 77, 0
2, 10240, Note_on_c, 0, 74, 80
2, 10241, Note_on_c, 0, 76, 0
2, 10260, Note_on_c, 0, 72, 85
2, 10263, Note_on_c, 0, 74, 0
2, 10320, Note_on_c, 0, 74, 78
2, 10323, Note_on_c, 0, 72, 0
2, 10331, Note_on_c, 0, 74, 0
2, 10332, Note_on_c, 0, 76, 78
2, 10340, Note_on_c, 0, 74, 80
2, 10342, Note_on_c, 0, 76, 0
2, 10380, Note_on_c, 0, 76, 89
2, 10382, Note_on_c, 0, 74, 0
2, 10440, Note_on_c, 0, 77, 91
2, 10445, Note_on_c, 0, 76, 0
2, 10500, Note_on_c, 0, 76, 85
2, 10500, Note_on_c, 0, 77, 0
2, 10558, Note_on_c, 0, 76, 0
2, 10560, Note_on_c, 0, 74, 85
2, 10620, Note_on_c, 0, 76, 85
2, 10623, Note_on_c, 0, 74, 0
2, 10650, Note_on_c, 0, 69, 80
2, 10656, Note_on_c, 0, 76, 0
2, 10680, Note_on_c, 0, 72, 82
2, 10684, Note_on_c, 0, 69, 0
2, 10710, Note_on_c, 0, 71, 80
2, 10720, Note_on_c, 0, 72, 0
2, 10740, Note_on_c, 0, 69, 82
2, 10740, Note_on_c, 0, 71, 0
2, 10770, Note_on_c, 0, 68, 102
2, 10773, Note_on_c, 0, 69, 0
2, 10798, Note_on_c, 0, 68, 0
2, 10800, Note_on_c, 0, 69, 70
2, 10820, Note_on_c, 0, 64, 80
2, 10820, Note_on_c, 0, 69, 0
2, 10840, Note_on_c, 0, 69, 68
2, 10843, Note_on_c, 0, 64, 0
2, 10860, Note_on_c, 0, 73, 78
2, 10868, Note_on_c, 0, 69, 0
2, 10879, Note_on_c, 0, 73, 0
2, 10880, Note_on_c, 0, 69, 66
2, 10900, Note_on_c, 0, 73, 82
2, 10904, Note_on_c, 0, 69, 0
2, 10920, Note_on_c, 0, 76, 85
2, 10924, Note_on_c, 0, 73, 0
2, 10940, Note_on_c, 0, 74, 87
2, 10947, Note_on_c, 0, 76, 0
2, 10960, Note_on_c, 0, 73, 100
2, 10962, Note_on_c, 0, 74, 0
2, 10980, Note_on_c, 0, 74, 89
2, 10983, Note_on_c, 0, 73, 0
2, 11000, Note_on_c, 0, 69, 78
2, 11001, Note_on_c, 0, 74, 0
2, 11020, Note_on_c, 0, 74, 78
2, 11022, Note_on_c, 0, 69, 0
2, 11040, Note_on_c, 0, 77, 80
2, 11044, Note_on_c, 0, 74, 0
2, 11060, Note_on_c, 0, 74, 85
2, 11065, Note_on_c, 0, 77, 0
2, 11080, Note_on_c, 0, 77, 82
2, 11082, Note_on_c, 0, 74, 0
2, 11100, Note_on_c, 0, 82, 95
2, 11104, Note_on_c, 0, 77, 0
2, 11175, Note_on_c, 0, 82, 0
2, 11190, Note_on_c, 0, 76, 89
2, 11220, Note_on_c, 0, 81, 87
2, 11223, Note_on_c, 0, 76, 0
2, 11250, Note_on_c, 0, 79, 85
2, 11252, Note_on_c, 0, 81, 0
2, 11280, Note_on_c, 0, 77, 87
2, 11284, Note_on_c, 0, 79, 0
2, 11310, Note_on_c, 0, 76, 82
2, 11315, Note_on_c, 0, 77, 0
2, 11340, Note_on_c, 0, 74, 80
2, 11341, Note_on_c, 0, 76, 0
2, 11370, Note_on_c, 0, 76, 105
2, 11376, Note_on_c, 0, 74, 0
2, 11400, Note_on_c, 0, 77, 78
2, 11403, Note_on_c, 0, 76, 0
2, 11411, Note_on_c, 0, 77, 0
2, 11412, Note_on_c, 0, 76, 85
2, 11490, Note_on_c, 0, 74, 89
2, 11500, Note_on_c, 0, 76, 0
2, 11505, Note_on_c, 0, 76, 85
2, 11505, Note_on_c, 0, 74, 0
2, 11519, Note_on_c, 0, 76, 0
2, 11520, Note_on_c, 0, 77, 95
2, 11584, Note_on_c, 0, 77, 0
2, 11610, Note_on_c, 0, 65, 43
2, 11625, Note_on_c, 0, 67, 59
2, 11637, Note_on_c, 0, 65, 0
2, 11640, Note_on_c, 0, 69, 57
2, 11648, Note_on_c, 0, 67, 0
2, 11655, Note_on_c, 0, 71, 66
2, 11659, Note_on_c, 0, 69, 0
2, 11670, Note_on_c, 0, 73, 72
2, 11670, Note_on_c, 0, 71, 0
2, 11700, Note_on_c, 0, 74, 78
2, 11701, Note_on_c, 0, 73, 0
2, 11759, Note_on_c, 0, 74, 0
2, 11760, Note_on_c, 0, 79, 91
2, 11817, Note_on_c, 0, 79, 0
2, 11820, Note_on_c, 0, 82, 102
2, 11907, Note_on_c, 0, 82, 0
2, 11940, Note_on_c, 0, 76, 85
2, 12000, Note_on_c, 0, 79, 82
2, 12000, Note_on_c, 0, 76, 0
2, 12102, Note_on_c, 0, 79, 0
2, 12120, Note_on_c, 0, 73, 78
2, 12178, Note_on_c, 0, 73, 0
2, 12180, Note_on_c, 0, 76, 85
2, 12259, Note_on_c, 0, 76, 0
2, 12270, Note_on_c, 0, 69, 85
2, 12300, Note_on_c, 0, 74, 89
2, 12307, Note_on_c, 0, 69, 0
2, 12330, Note_on_c, 0, 72, 78
2, 12333, Note_on_c, 0, 74, 0
2, 12360, Note_on_c, 0, 70, 89
2, 12365, Note_on_c, 0, 72, 0
2, 12387, Note_on_c, 0, 70, 0
2, 12390, Note_on_c, 0, 69, 74
2, 12420, Note_on_c, 0, 70, 85
2, 12429, Note_on_c, 0, 69, 0
2, 12475, Note_on_c, 0, 70, 0
2, 12480, Note_on_c, 0, 74, 91
2, 12539, Note_on_c, 0, 74, 0
2, 12540, Note_on_c, 0, 79, 95
2, 12651, Note_on_c, 0, 79, 0
2, 12660, Note_on_c, 0, 73, 80
2, 12690, Note_on_c, 0, 82, 85
2, 12693, Note_on_c, 0, 73, 0
2, 12720, Note_on_c, 0, 81, 80
2, 12721, Note_on_c, 0, 82, 0
2, 12750, Note_on_c, 0, 79, 85
2, 12757, Note_on_c, 0, 81, 0
2, 12780, Note_on_c, 0, 77, 87
2, 12784, Note_on_c, 0, 79, 0
2, 12840, Note_on_c, 0, 79, 76
2, 12842, Note_on_c, 0, 77, 0
2, 12900, Note_on_c, 0, 76, 89
2, 12908, Note_on_c, 0, 79, 0
2, 12960, Note_on_c, 0, 74, 89
2, 12960, Note_on_c, 0, 76, 0
2, 13078, Note_on_c, 0, 74, 0
2, 13140, Note_on_c, 0, 74, 85
2, 13160, Note_on_c, 0, 65, 63
2, 13166, Note_on_c, 0, 74, 0
2, 13180, Note_on_c, 0, 67, 66
2, 13184, Note_on_c, 0, 65, 0
2, 13200, Note_on_c, 0, 69, 60
2, 13204, Note_on_c, 0, 67, 0
2, 13220, Note_on_c, 0, 70, 80
2, 13222, Note_on_c, 0, 69, 0
2, 13240, Note_on_c, 0, 72, 64
2, 13243, Note_on_c, 0, 70, 0
2, 13260, Note_on_c, 0, 74, 89
2, 13265, Note_on_c, 0, 72, 0
2, 13280, Note_on_c, 0, 75, 85
2, 13290, Note_on_c, 0, 74, 0
2, 13300, Note_on_c, 0, 77, 72
2, 13304, Note_on_c, 0, 75, 0
2, 13320, Note_on_c, 0, 75, 89
2, 13326, Note_on_c, 0, 77, 0
2, 13340, Note_on_c, 0, 72, 87
2, 13343, Note_on_c, 0, 75, 0
2, 13360, Note_on_c, 0, 74, 98
2, 13362, Note_on_c, 0, 72, 0
2, 13380, Note_on_c, 0, 75, 87
2, 13384, Note_on_c, 0, 74, 0
2, 13398, Note_on_c, 0, 75, 0
2, 13400, Note_on_c, 0, 77, 85
2, 13420, Note_on_c, 0, 79, 85
2, 13421, Note_on_c, 0, 77, 0
2, 13440, Note_on_c, 0, 81, 89
2, 13447, Note_on_c, 0, 79, 0
2, 13460, Note_on_c, 0, 82, 85
2, 13465, Note_on_c, 0, 81, 0
2, 13480, Note_on_c, 0, 84, 85
2, 13483, Note_on_c, 0, 82, 0
2, 13500, Note_on_c, 0, 82, 87
2, 13509, Note_on_c, 0, 84, 0
2, 13549, Note_on_c, 0, 82, 0
2, 13560, Note_on_c, 0, 77, 93
2, 13613, Note_on_c, 0, 77, 0
2, 13620, Note_on_c, 0, 82, 89
2, 13692, Note_on_c, 0, 82, 0
2, 13700, Note_on_c, 0, 81, 68
2, 13720, Note_on_c, 0, 79, 87
2, 13722, Note_on_c, 0, 81, 0
2, 13740, Note_on_c, 0, 77, 74
2, 13741, Note_on_c, 0, 79, 0
2, 13760, Note_on_c, 0, 81, 78
2, 13765, Note_on_c, 0, 77, 0
2, 13780, Note_on_c, 0, 84, 80
2, 13783, Note_on_c, 0, 81, 0
2, 13800, Note_on_c, 0, 76, 82
2, 13803, Note_on_c, 0, 84, 0
2, 13820, Note_on_c, 0, 79, 82
2, 13823, Note_on_c, 0, 76, 0
2, 13840, Note_on_c, 0, 82, 82
2, 13843, Note_on_c, 0, 79, 0
2, 13860, Note_on_c, 0, 72, 80
2, 13861, Note_on_c, 0, 82, 0
2, 13978, Note_on_c, 0, 72, 0
2, 13980, Note_on_c, 0, 77, 89
2, 13994, Note_on_c, 0, 77, 0
2, 13995, Note_on_c, 0, 79, 82
2, 14010, Note_on_c, 0, 81, 85
2, 14010, Note_on_c, 0, 79, 0
2, 14040, Note_on_c, 0, 79, 95
2, 14050, Note_on_c, 0, 81, 0
2, 14155, Note_on_c, 0, 79, 0
2, 14160, Note_on_c, 0, 70, 100
2, 14232, Note_on_c, 0, 70, 0
2, 14250, Note_on_c, 0, 69, 93
2, 14280, Note_on_c, 0, 70, 87
2, 14282, Note_on_c, 0, 69, 0
2, 14310, Note_on_c, 0, 69, 80
2, 14314, Note_on_c, 0, 70, 0
2, 14340, Note_on_c, 0, 67, 82
2, 14343, Note_on_c, 0, 69, 0
2, 14369, Note_on_c, 0, 67, 0
2, 14370, Note_on_c, 0, 65, 72
2, 14400, Note_on_c, 0, 72, 78
2, 14404, Note_on_c, 0, 65, 0
2, 14531, Note_on_c, 0, 72, 0
2, 14580, Note_on_c, 0, 76, 70
2, 14610, Note_on_c, 0, 78, 87
2, 14616, Note_on_c, 0, 76, 0
2, 14640, Note_on_c, 0, 79, 72
2, 14640, Note_on_c, 0, 78, 0
2, 14655, Note_on_c, 0, 78, 85
2, 14655, Note_on_c, 0, 79, 0
2, 14730, Note_on_c, 0, 76, 63
2, 14732, Note_on_c, 0, 78, 0
2, 14745, Note_on_c, 0, 78, 82
2, 14747, Note_on_c, 0, 76, 0
2, 14760, Note_on_c, 0, 79, 70
2, 14766, Note_on_c, 0, 78, 0
2, 14780, Note_on_c, 0, 78, 87
2, 14783, Note_on_c, 0, 79, 0
2, 14800, Note_on_c, 0, 79, 66
2, 14803, Note_on_c, 0, 78, 0
2, 14820, Note_on_c, 0, 74, 85
2, 14821, Note_on_c, 0, 79, 0
2, 14840, Note_on_c, 0, 79, 72
2, 14844, Note_on_c, 0, 74, 0
2, 14860, Note_on_c, 0, 81, 72
2, 14865, Note_on_c, 0, 79, 0
2, 14880, Note_on_c, 0, 82, 68
2, 14881, Note_on_c, 0, 81, 0
2, 14900, Note_on_c, 0, 81, 78
2, 14905, Note_on_c, 0, 82, 0
2, 14920, Note_on_c, 0, 79, 66
2, 14924, Note_on_c, 0, 81, 0
2, 14940, Note_on_c, 0, 84, 68
2, 14942, Note_on_c, 0, 79, 0
2, 14960, Note_on_c, 0, 82, 63
2, 14966, Note_on_c, 0, 84, 0
2, 14980, Note_on_c, 0, 84, 80
2, 14982, Note_on_c, 0, 82, 0
2, 15000, Note_on_c, 0, 75, 59
2, 15002, Note_on_c, 0, 84, 0
2, 15020, Note_on_c, 0, 69, 49
2, 15021, Note_on_c, 0, 75, 0
2, 15040, Note_on_c, 0, 70, 60
2, 15049, Note_on_c, 0, 69, 0
2, 15060, Note_on_c, 0, 72, 87
2, 15066, Note_on_c, 0, 70, 0
2, 15080, Note_on_c, 0, 70, 80
2, 15086, Note_on_c, 0, 72, 0
2, 15100, Note_on_c, 0, 69, 76
2, 15102, Note_on_c, 0, 70, 0
2, 15120, Note_on_c, 0, 70, 87
2, 15126, Note_on_c, 0, 69, 0
2, 15276, Note_on_c, 0, 70, 0
2, 15300, Note_on_c, 0, 71, 63
2, 15315, Note_on_c, 0, 72, 74
2, 15318, Note_on_c, 0, 71, 0
2, 15328, Note_on_c, 0, 72, 0
2, 15330, Note_on_c, 0, 71, 78
2, 15450, Note_on_c, 0, 69, 63
2, 15461, Note_on_c, 0, 71, 0
2, 15465, Note_on_c, 0, 71, 74
2, 15468, Note_on_c, 0, 69, 0
2, 15480, Note_on_c, 0, 72, 66
2, 15486, Note_on_c, 0, 71, 0
2, 15500, Note_on_c, 0, 71, 68
2, 15503, Note_on_c, 0, 72, 0
2, 15520, Note_on_c, 0, 72, 63
2, 15523, Note_on_c, 0, 71, 0
2, 15538, Note_on_c, 0, 72, 0
2, 15540, Note_on_c, 0, 67, 58
2, 15560, Note_on_c, 0, 72, 78
2, 15562, Note_on_c, 0, 67, 0
2, 15580, Note_on_c, 0, 74, 78
2, 15584, Note_on_c, 0, 72, 0
2, 15600, Note_on_c, 0, 75, 70
2, 15603, Note_on_c, 0, 74, 0
2, 15620, Note_on_c, 0, 74, 80
2, 15625, Note_on_c, 0, 75, 0
2, 15640, Note_on_c, 0, 72, 74
2, 15642, Note_on_c, 0, 74, 0
2, 15660, Note_on_c, 0, 74, 70
2, 15664, Note_on_c, 0, 72, 0
2, 15718, Note_on_c, 0, 74, 0
2, 15720, Note_on_c, 0, 67, 80
2, 15780, Note_on_c, 0, 66, 68
2, 15785, Note_on_c, 0, 67, 0
2, 15840, Note_on_c, 0, 67, 80
2, 15848, Note_on_c, 0, 66, 0
2, 15892, Note_on_c, 0, 67, 0
2, 15900, Note_on_c, 0, 70, 107
2, 16037, Note_on_c, 0, 70, 0
2, 16040, Note_on_c, 0, 69, 85
2, 16060, Note_on_c, 0, 70, 93
2, 16064, Note_on_c, 0, 69, 0
2, 16080, Note_on_c, 0, 79, 78
2, 16081, Note_on_c, 0, 70, 0
2, 16099, Note_on_c, 0, 79, 0
2, 16100, Note_on_c, 0, 70, 76
2, 16120, Note_on_c, 0, 69, 72
2, 16125, Note_on_c, 0, 70, 0
2, 16140, Note_on_c, 0, 67, 70
2, 16142, Note_on_c, 0, 69, 0
2, 16160, Note_on_c, 0, 69, 82
2, 16176, Note_on_c, 0, 67, 0
2, 16179, Note_on_c, 0, 69, 0
2, 16180, Note_on_c, 0, 70, 82
2, 16200, Note_on_c, 0, 69, 102
2, 16203, Note_on_c, 0, 70, 0
2, 16386, Note_on_c, 0, 69, 0
2, 16400, Note_on_c, 0, 67, 76
2, 16420, Note_on_c, 0, 69, 64
2, 16422, Note_on_c, 0, 67, 0
2, 16440, Note_on_c, 0, 77, 70
2, 16445, Note_on_c, 0, 69, 0
2, 16460, Note_on_c, 0, 69, 91
2, 16460, Note_on_c, 0, 77, 0
2, 16480, Note_on_c, 0, 67, 82
2, 16484, Note_on_c, 0, 69, 0
2, 16500, Note_on_c, 0, 65, 64
2, 16501, Note_on_c, 0, 67, 0
2, 16520, Note_on_c, 0, 67, 89
2, 16523, Note_on_c, 0, 65, 0
2, 16540, Note_on_c, 0, 69, 80
2, 16543, Note_on_c, 0, 67, 0
2, 16560, Note_on_c, 0, 67, 80
2, 16563, Note_on_c, 0, 69, 0
2, 16741, Note_on_c, 0, 67, 0
2, 16760, Note_on_c, 0, 65, 72
2, 16780, Note_on_c, 0, 67, 68
2, 16785, Note_on_c, 0, 65, 0
2, 16800, Note_on_c, 0, 76, 82
2, 16802, Note_on_c, 0, 67, 0
2, 16820, Note_on_c, 0, 67, 80
2, 16824, Note_on_c, 0, 76, 0
2, 16839, Note_on_c, 0, 67, 0
2, 16840, Note_on_c, 0, 65, 72
2, 16860, Note_on_c, 0, 64, 85
2, 16865, Note_on_c, 0, 65, 0
2, 16880, Note_on_c, 0, 65, 72
2, 16882, Note_on_c, 0, 64, 0
2, 16900, Note_on_c, 0, 67, 78
2, 16902, Note_on_c, 0, 65, 0
2, 16920, Note_on_c, 0, 65, 76
2, 16923, Note_on_c, 0, 67, 0
2, 16940, Note_on_c, 0, 64, 68
2, 16944, Note_on_c, 0, 65, 0
2, 16955, Note_on_c, 0, 64, 0
2, 16960, Note_on_c, 0, 62, 72
2, 16980, Note_on_c, 0, 69, 80
2, 16980, Note_on_c, 0, 62, 0
2, 17000, Note_on_c, 0, 67, 80
2, 17003, Note_on_c, 0, 69, 0
2, 17017, Note_on_c, 0, 67, 0
2, 17020, Note_on_c, 0, 65, 59
2, 17040, Note_on_c, 0, 74, 87
2, 17044, Note_on_c, 0, 65, 0
2, 17106, Note_on_c, 0, 74, 0
2, 17120, Note_on_c, 0, 72, 78
2, 17137, Note_on_c, 0, 72, 0
2, 17140, Note_on_c, 0, 71, 62
2, 17159, Note_on_c, 0, 71, 0
2, 17160, Note_on_c, 0, 77, 74
2, 17180, Note_on_c, 0, 76, 70
2, 17183, Note_on_c, 0, 77, 0
2, 17200, Note_on_c, 0, 74, 70
2, 17200, Note_on_c, 0, 76, 0
2, 17220, Note_on_c, 0, 83, 87
2, 17222, Note_on_c, 0, 74, 0
2, 17292, Note_on_c, 0, 83, 0
2, 17300, Note_on_c, 0, 84, 93
2, 17320, Note_on_c, 0, 81, 87
2, 17322, Note_on_c, 0, 84, 0
2, 17340, Note_on_c, 0, 80, 89
2, 17341, Note_on_c, 0, 81, 0
2, 17360, Note_on_c, 0, 81, 87
2, 17361, Note_on_c, 0, 80, 0
2, 17380, Note_on_c, 0, 83, 85
2, 17380, Note_on_c, 0, 81, 0
2, 17400, Note_on_c, 0, 76, 78
2, 17403, Note_on_c, 0, 83, 0
2, 17465, Note_on_c, 0, 76, 0
2, 17480, Note_on_c, 0, 72, 63
2, 17500, Note_on_c, 0, 74, 80
2, 17500, Note_on_c, 0, 72, 0
2, 17520, Note_on_c, 0, 76, 76
2, 17528, Note_on_c, 0, 74, 0
2, 17540, Note_on_c, 0, 78, 62
2, 17547, Note_on_c, 0, 76, 0
2, 17560, Note_on_c, 0, 80, 66
2, 17567, Note_on_c, 0, 78, 0
2, 17576, Note_on_c, 0, 80, 0
2, 17580, Note_on_c, 0, 81, 68
2, 17600, Note_on_c, 0, 83, 89
2, 17603, Note_on_c, 0, 81, 0
2, 17620, Note_on_c, 0, 84, 87
2, 17621, Note_on_c, 0, 83, 0
2, 17640, Note_on_c, 0, 83, 102
2, 17642, Note_on_c, 0, 84, 0
2, 17737, Note_on_c, 0, 83, 0
2, 17775, Note_on_c, 0, 76, 70
2, 17850, Note_on_c, 0, 81, 85
2, 17856, Note_on_c, 0, 76, 0
2, 17880, Note_on_c, 0, 79, 80
2, 17884, Note_on_c, 0, 81, 0
2, 17910, Note_on_c, 0, 77, 80
2, 17915, Note_on_c, 0, 79, 0
2, 17940, Note_on_c, 0, 76, 80
2, 17946, Note_on_c, 0, 77, 0
2, 17970, Note_on_c, 0, 74, 74
2, 17970, Note_on_c, 0, 76, 0
2, 18000, Note_on_c, 0, 79, 76
2, 18005, Note_on_c, 0, 74, 0
2, 18015, Note_on_c, 0, 77, 72
2, 18018, Note_on_c, 0, 79, 0
2, 18030, Note_on_c, 0, 76, 82
2, 18031, Note_on_c, 0, 77, 0
2, 18060, Note_on_c, 0, 77, 74
2, 18067, Note_on_c, 0, 76, 0
2, 18075, Note_on_c, 0, 76, 68
2, 18077, Note_on_c, 0, 77, 0
2, 18090, Note_on_c, 0, 74, 80
2, 18093, Note_on_c, 0, 76, 0
2, 18120, Note_on_c, 0, 72, 87
2, 18128, Note_on_c, 0, 74, 0
2, 18202, Note_on_c, 0, 72, 0
2, 18210, Note_on_c, 0, 74, 74
2, 18240, Note_on_c, 0, 76, 85
2, 18245, Note_on_c, 0, 74, 0
2, 18270, Note_on_c, 0, 77, 76
2, 18274, Note_on_c, 0, 76, 0
2, 18300, Note_on_c, 0, 76, 89
2, 18302, Note_on_c, 0, 77, 0
2, 18330, Note_on_c, 0, 74, 70
2, 18336, Note_on_c, 0, 76, 0
2, 18359, Note_on_c, 0, 74, 0
2, 18360, Note_on_c, 0, 80, 68
2, 18390, Note_on_c, 0, 74, 66
2, 18397, Note_on_c, 0, 80, 0
2, 18420, Note_on_c, 0, 76, 82
2, 18423, Note_on_c, 0, 74, 0
2, 18450, Note_on_c, 0, 77, 72
2, 18457, Note_on_c, 0, 76, 0
2, 18480, Note_on_c, 0, 76, 76
2, 18484, Note_on_c, 0, 77, 0
2, 18510, Note_on_c, 0, 74, 76
2, 18512, Note_on_c, 0, 76, 0
2, 18534, Note_on_c, 0, 74, 0
2, 18540, Note_on_c, 0, 83, 100
2, 18570, Note_on_c, 0, 74, 82
2, 18579, Note_on_c, 0, 83, 0
2, 18600, Note_on_c, 0, 76, 80
2, 18603, Note_on_c, 0, 74, 0
2, 18630, Note_on_c, 0, 77, 72
2, 18634, Note_on_c, 0, 76, 0
2, 18660, Note_on_c, 0, 76, 85
2, 18665, Note_on_c, 0, 77, 0
2, 18690, Note_on_c, 0, 74, 85
2, 18696, Note_on_c, 0, 76, 0
2, 18720, Note_on_c, 0, 72, 64
2, 18724, Note_on_c, 0, 74, 0
2, 18910, Note_on_c, 0, 72, 0
2, 18930, Note_on_c, 0, 71, 102
2, 18960, Note_on_c, 0, 74, 74
2, 18963, Note_on_c, 0, 71, 0
2, 18990, Note_on_c, 0, 72, 85
2, 18996, Note_on_c, 0, 74, 0
2, 19020, Note_on_c, 0, 71, 82
2, 19023, Note_on_c, 0, 72, 0
2, 19050, Note_on_c, 0, 69, 63
2, 19051, Note_on_c, 0, 71, 0
2, 19080, Note_on_c, 0, 68, 76
2, 19082, Note_on_c, 0, 69, 0
2, 19110, Note_on_c, 0, 77, 72
2, 19112, Note_on_c, 0, 68, 0
2, 19140, Note_on_c, 0, 76, 72
2, 19145, Note_on_c, 0, 77, 0
2, 19170, Note_on_c, 0, 74, 80
2, 19175, Note_on_c, 0, 76, 0
2, 19200, Note_on_c, 0, 72, 78
2, 19206, Note_on_c, 0, 74, 0
2, 19229, Note_on_c, 0, 72, 0
2, 19230, Note_on_c, 0, 71, 70
2, 19260, Note_on_c, 0, 69, 100
2, 19264, Note_on_c, 0, 71, 0
2, 19309, Note_on_c, 0, 69, 0
2, 19320, Note_on_c, 0, 71, 87
2, 19369, Note_on_c, 0, 71, 0
2, 19380, Note_on_c, 0, 68, 100
2, 19429, Note_on_c, 0, 68, 0
2, 19440, Note_on_c, 0, 69, 85
2, 19460, Note_on_c, 0, 64, 74
2, 19462, Note_on_c, 0, 69, 0
2, 19479, Note_on_c, 0, 64, 0
2, 19480, Note_on_c, 0, 69, 82
2, 19500, Note_on_c, 0, 72, 85
2, 19501, Note_on_c, 0, 69, 0
2, 19519, Note_on_c, 0, 72, 0
2, 19520, Note_on_c, 0, 69, 76
2, 19540, Note_on_c, 0, 72, 89
2, 19543, Note_on_c, 0, 69, 0
2, 19560, Note_on_c, 0, 76, 80
2, 19560, Note_on_c, 0, 72, 0
2, 19580, Note_on_c, 0, 72, 72
2, 19581, Note_on_c, 0, 76, 0
2, 19600, Note_on_c, 0, 76, 78
2, 19601, Note_on_c, 0, 72, 0
2, 19618, Note_on_c, 0, 76, 0
2, 19620, Note_on_c, 0, 81, 87
2, 19804, Note_on_c, 0, 81, 0
2, 19820, Note_on_c, 0, 84, 82
2, 19840, Note_on_c, 0, 81, 76
2, 19842, Note_on_c, 0, 84, 0
2, 19860, Note_on_c, 0, 78, 82
2, 19863, Note_on_c, 0, 81, 0
2, 19880, Note_on_c, 0, 81, 72
2, 19883, Note_on_c, 0, 78, 0
2, 19900, Note_on_c, 0, 78, 68
2, 19901, Note_on_c, 0, 81, 0
2, 19920, Note_on_c, 0, 75, 93
2, 19924, Note_on_c, 0, 78, 0
2, 19940, Note_on_c, 0, 78, 87
2, 19943, Note_on_c, 0, 75, 0
2, 19960, Note_on_c, 0, 75, 59
2, 19960, Note_on_c, 0, 78, 0
2, 19980, Note_on_c, 0, 71, 60
2, 19986, Note_on_c, 0, 75, 0
2, 20168, Note_on_c, 0, 71, 0
2, 20180, Note_on_c, 0, 79, 82
2, 20200, Note_on_c, 0, 76, 70
2, 20202, Note_on_c, 0, 79, 0
2, 20220, Note_on_c, 0, 71, 80
2, 20222, Note_on_c, 0, 76, 0
2, 20240, Note_on_c, 0, 76, 74
2, 20242, Note_on_c, 0, 71, 0
2, 20260, Note_on_c, 0, 71, 66
2, 20262, Note_on_c, 0, 76, 0
2, 20279, Note_on_c, 0, 71, 0
2, 20280, Note_on_c, 0, 67, 74
2, 20300, Note_on_c, 0, 71, 63
2, 20303, Note_on_c, 0, 67, 0
2, 20320, Note_on_c, 0, 67, 62
2, 20324, Note_on_c, 0, 71, 0
2, 20340, Note_on_c, 0, 64, 78
2, 20340, Note_on_c, 0, 67, 0
2, 20360, Note_on_c, 0, 61, 82
2, 20360, Note_on_c, 0, 64, 0
2, 20378, Note_on_c, 0, 61, 0
2, 20380, Note_on_c, 0, 64, 72
2, 20400, Note_on_c, 0, 67, 82
2, 20400, Note_on_c, 0, 64, 0
2, 20420, Note_on_c, 0, 64, 76
2, 20421, Note_on_c, 0, 67, 0
2, 20440, Note_on_c, 0, 67, 82
2, 20440, Note_on_c, 0, 64, 0
2, 20460, Note_on_c, 0, 70, 80
2, 20465, Note_on_c, 0, 67, 0
2, 20480, Note_on_c, 0, 67, 70
2, 20486, Note_on_c, 0, 70, 0
2, 20500, Note_on_c, 0, 70, 80
2, 20501, Note_on_c, 0, 67, 0
2, 20520, Note_on_c, 0, 76, 82
2, 20526, Note_on_c, 0, 70, 0
2, 20710, Note_on_c, 0, 76, 0
2, 20720, Note_on_c, 0, 79, 82
2, 20740, Note_on_c, 0, 76, 70
2, 20742, Note_on_c, 0, 79, 0
2, 20760, Note_on_c, 0, 73, 70
2, 20760, Note_on_c, 0, 76, 0
2, 20780, Note_on_c, 0, 76, 63
2, 20785, Note_on_c, 0, 73, 0
2, 20799, Note_on_c, 0, 76, 0
2, 20800, Note_on_c, 0, 73, 66
2, 20820, Note_on_c, 0, 69, 72
2, 20821, Note_on_c, 0, 73, 0
2, 20840, Note_on_c, 0, 73, 68
2, 20841, Note_on_c, 0, 69, 0
2, 20860, Note_on_c, 0, 69, 70
2, 20865, Note_on_c, 0, 73, 0
2, 20879, Note_on_c, 0, 69, 0
2, 20880, Note_on_c, 0, 65, 80
2, 20899, Note_on_c, 0, 65, 0
2, 20900, Note_on_c, 0, 62, 72
2, 20920, Note_on_c, 0, 65, 72
2, 20921, Note_on_c, 0, 62, 0
2, 20940, Note_on_c, 0, 69, 70
2, 20940, Note_on_c, 0, 65, 0
2, 20958, Note_on_c, 0, 69, 0
2, 20960, Note_on_c, 0, 65, 72
2, 20980, Note_on_c, 0, 69, 72
2, 20981, Note_on_c, 0, 65, 0
2, 21000, Note_on_c, 0, 74, 85
2, 21005, Note_on_c, 0, 69, 0
2, 21020, Note_on_c, 0, 69, 82
2, 21023, Note_on_c, 0, 74, 0
2, 21040, Note_on_c, 0, 74, 82
2, 21040, Note_on_c, 0, 69, 0
2, 21060, Note_on_c, 0, 77, 87
2, 21065, Note_on_c, 0, 74, 0
2, 21103, Note_on_c, 0, 77, 0
2, 21120, Note_on_c, 0, 65, 70
2, 21140, Note_on_c, 0, 67, 72
2, 21144, Note_on_c, 0, 65, 0
2, 21160, Note_on_c, 0, 69, 76
2, 21162, Note_on_c, 0, 67, 0
2, 21174, Note_on_c, 0, 69, 0
2, 21180, Note_on_c, 0, 62, 60
2, 21200, Note_on_c, 0, 64, 72
2, 21201, Note_on_c, 0, 62, 0
2, 21219, Note_on_c, 0, 64, 0
2, 21220, Note_on_c, 0, 65, 70
2, 21238, Note_on_c, 0, 65, 0
2, 21240, Note_on_c, 0, 58, 76
2, 21292, Note_on_c, 0, 58, 0
2, 21300, Note_on_c, 0, 67, 87
2, 21320, Note_on_c, 0, 69, 66
2, 21328, Note_on_c, 0, 67, 0
2, 21338, Note_on_c, 0, 69, 0
2, 21340, Note_on_c, 0, 70, 85
2, 21360, Note_on_c, 0, 64, 76
2, 21360, Note_on_c, 0, 70, 0
2, 21380, Note_on_c, 0, 65, 80
2, 21382, Note_on_c, 0, 64, 0
2, 21400, Note_on_c, 0, 67, 85
2, 21402, Note_on_c, 0, 65, 0
2, 21418, Note_on_c, 0, 67, 0
2, 21420, Note_on_c, 0, 60, 85
2, 21476, Note_on_c, 0, 60, 0
2, 21480, Note_on_c, 0, 69, 85
2, 21500, Note_on_c, 0, 70, 80
2, 21505, Note_on_c, 0, 69, 0
2, 21519, Note_on_c, 0, 70, 0
2, 21520, Note_on_c, 0, 72, 70
2, 21540, Note_on_c, 0, 65, 87
2, 21540, Note_on_c, 0, 72, 0
2, 21560, Note_on_c, 0, 67, 70
2, 21563, Note_on_c, 0, 65, 0
2, 21580, Note_on_c, 0, 69, 76
2, 21583, Note_on_c, 0, 67, 0
2, 21600, Note_on_c, 0, 62, 85
2, 21600, Note_on_c, 0, 69, 0
2, 21649, Note_on_c, 0, 62, 0
2, 21660, Note_on_c, 0, 70, 82
2, 21680, Note_on_c, 0, 72, 78
2, 21689, Note_on_c, 0, 70, 0
2, 21700, Note_on_c, 0, 74, 80
2, 21701, Note_on_c, 0, 72, 0
2, 21720, Note_on_c, 0, 67, 78
2, 21721, Note_on_c, 0, 74, 0
2, 21740, Note_on_c, 0, 69, 78
2, 21746, Note_on_c, 0, 67, 0
2, 21760, Note_on_c, 0, 70, 82
2, 21762, Note_on_c, 0, 69, 0
2, 21780, Note_on_c, 0, 64, 82
2, 21782, Note_on_c, 0, 70, 0
2, 21800, Note_on_c, 0, 65, 85
2, 21805, Note_on_c, 0, 64, 0
2, 21819, Note_on_c, 0, 65, 0
2, 21820, Note_on_c, 0, 67, 70
2, 21834, Note_on_c, 0, 67, 0
2, 21840, Note_on_c, 0, 61, 70
2, 21860, Note_on_c, 0, 62, 80
2, 21863, Note_on_c, 0, 61, 0
2, 21880, Note_on_c, 0, 64, 85
2, 21883, Note_on_c, 0, 62, 0
2, 21899, Note_on_c, 0, 64, 0
2, 21900, Note_on_c, 0, 57, 82
2, 21939, Note_on_c, 0, 57, 0
2, 21940, Note_on_c, 0, 67, 82
2, 21960, Note_on_c, 0, 66, 82
2, 21965, Note_on_c, 0, 67, 0
2, 21980, Note_on_c, 0, 67, 80
2, 21986, Note_on_c, 0, 66, 0
2, 22000, Note_on_c, 0, 69, 82
2, 22002, Note_on_c, 0, 67, 0
2, 22020, Note_on_c, 0, 62, 85
2, 22022, Note_on_c, 0, 69, 0
2, 22081, Note_on_c, 0, 62, 0
2, 22140, Note_on_c, 0, 74, 87
2, 22160, Note_on_c, 0, 76, 70
2, 22170, Note_on_c, 0, 74, 0
2, 22179, Note_on_c, 0, 76, 0
2, 22180, Note_on_c, 0, 77, 80
2, 22200, Note_on_c, 0, 71, 68
2, 22202, Note_on_c, 0, 77, 0
2, 22220, Note_on_c, 0, 72, 78
2, 22226, Note_on_c, 0, 71, 0
2, 22240, Note_on_c, 0, 74, 70
2, 22246, Note_on_c, 0, 72, 0
2, 22260, Note_on_c, 0, 67, 78
2, 22261, Note_on_c, 0, 74, 0
2, 22295, Note_on_c, 0, 67, 0
2, 22300, Note_on_c, 0, 77, 87
2, 22320, Note_on_c, 0, 76, 82
2, 22323, Note_on_c, 0, 77, 0
2, 22340, Note_on_c, 0, 77, 85
2, 22347, Note_on_c, 0, 76, 0
2, 22360, Note_on_c, 0, 79, 78
2, 22361, Note_on_c, 0, 77, 0
2, 22379, Note_on_c, 0, 79, 0
2, 22380, Note_on_c, 0, 72, 85
2, 22438, Note_on_c, 0, 72, 0
2, 22500, Note_on_c, 0, 72, 70
2, 22520, Note_on_c, 0, 70, 66
2, 22522, Note_on_c, 0, 72, 0
2, 22540, Note_on_c, 0, 72, 57
2, 22547, Note_on_c, 0, 70, 0
2, 22557, Note_on_c, 0, 72, 0
2, 22560, Note_on_c, 0, 65, 68
2, 22580, Note_on_c, 0, 72, 63
2, 22582, Note_on_c, 0, 65, 0
2, 22600, Note_on_c, 0, 74, 70
2, 22603, Note_on_c, 0, 72, 0
2, 22620, Note_on_c, 0, 75, 70
2, 22621, Note_on_c, 0, 74, 0
2, 22640, Note_on_c, 0, 74, 72
2, 22643, Note_on_c, 0, 75, 0
2, 22660, Note_on_c, 0, 72, 63
2, 22660, Note_on_c, 0, 74, 0
2, 22680, Note_on_c, 0, 74, 68
2, 22683, Note_on_c, 0, 72, 0
2, 22876, Note_on_c, 0, 74, 0
2, 22880, Note_on_c, 0, 72, 72
2, 22900, Note_on_c, 0, 74, 80
2, 22903, Note_on_c, 0, 72, 0
2, 22918, Note_on_c, 0, 74, 0
2, 22920, Note_on_c, 0, 67, 85
2, 22940, Note_on_c, 0, 74, 82
2, 22942, Note_on_c, 0, 67, 0
2, 22960, Note_on_c, 0, 76, 82
2, 22964, Note_on_c, 0, 74, 0
2, 22980, Note_on_c, 0, 77, 87
2, 22983, Note_on_c, 0, 76, 0
2, 23000, Note_on_c, 0, 76, 76
2, 23003, Note_on_c, 0, 77, 0
2, 23020, Note_on_c, 0, 74, 85
2, 23024, Note_on_c, 0, 76, 0
2, 23040, Note_on_c, 0, 76, 82
2, 23045, Note_on_c, 0, 74, 0
2, 23215, Note_on_c, 0, 76, 0
2, 23240, Note_on_c, 0, 74, 72
2, 23260, Note_on_c, 0, 76, 72
2, 23264, Note_on_c, 0, 74, 0
2, 23278, Note_on_c, 0, 76, 0
2, 23280, Note_on_c, 0, 77, 80
2, 23300, Note_on_c, 0, 79, 70
2, 23303, Note_on_c, 0, 77, 0
2, 23320, Note_on_c, 0, 81, 78
2, 23324, Note_on_c, 0, 79, 0
2, 23340, Note_on_c, 0, 79, 85
2, 23342, Note_on_c, 0, 81, 0
2, 23360, Note_on_c, 0, 81, 60
2, 23367, Note_on_c, 0, 79, 0
2, 23376, Note_on_c, 0, 81, 0
2, 23380, Note_on_c, 0, 77, 70
2, 23398, Note_on_c, 0, 77, 0
2, 23400, Note_on_c, 0, 84, 85
2, 23420, Note_on_c, 0, 82, 64
2, 23424, Note_on_c, 0, 84, 0
2, 23440, Note_on_c, 0, 81, 70
2, 23443, Note_on_c, 0, 82, 0
2, 23450, Note_on_c, 0, 81, 0
2, 23460, Note_on_c, 0, 81, 82
2, 23480, Note_on_c, 0, 79, 80
2, 23487, Note_on_c, 0, 81, 0
2, 23500, Note_on_c, 0, 77, 89
2, 23503, Note_on_c, 0, 79, 0
2, 23515, Note_on_c, 0, 77, 0
2, 23520, Note_on_c, 0, 77, 89
2, 23540, Note_on_c, 0, 75, 87
2, 23550, Note_on_c, 0, 77, 0
2, 23560, Note_on_c, 0, 74, 85
2, 23561, Note_on_c, 0, 75, 0
2, 23574, Note_on_c, 0, 74, 0
2, 23580, Note_on_c, 0, 74, 89
2, 23600, Note_on_c, 0, 72, 74
2, 23609, Note_on_c, 0, 74, 0
2, 23620, Note_on_c, 0, 70, 82
2, 23622, Note_on_c, 0, 72, 0
2, 23632, Note_on_c, 0, 70, 0
2, 23640, Note_on_c, 0, 70, 80
2, 23660, Note_on_c, 0, 69, 80
2, 23667, Note_on_c, 0, 70, 0
2, 23679, Note_on_c, 0, 69, 0
2, 23680, Note_on_c, 0, 67, 70
2, 23695, Note_on_c, 0, 67, 0
2, 23700, Note_on_c, 0, 67, 68
2, 23720, Note_on_c, 0, 69, 100
2, 23724, Note_on_c, 0, 67, 0
2, 23740, Note_on_c, 0, 70, 78
2, 23743, Note_on_c, 0, 69, 0
2, 23757, Note_on_c, 0, 70, 0
2, 23760, Note_on_c, 0, 69, 63
2, 23780, Note_on_c, 0, 77, 70
2, 23781, Note_on_c, 0, 69, 0
2, 23800, Note_on_c, 0, 76, 82
2, 23805, Note_on_c, 0, 77, 0
2, 23820, Note_on_c, 0, 74, 82
2, 23824, Note_on_c, 0, 76, 0
2, 23840, Note_on_c, 0, 72, 63
2, 23841, Note_on_c, 0, 74, 0
2, 23860, Note_on_c, 0, 70, 89
2, 23863, Note_on_c, 0, 72, 0
2, 23880, Note_on_c, 0, 69, 74
2, 23880, Note_on_c, 0, 70, 0
2, 23898, Note_on_c, 0, 69, 0
2, 23900, Note_on_c, 0, 70, 59
2, 23920, Note_on_c, 0, 67, 66
2, 23925, Note_on_c, 0, 70, 0
2, 23940, Note_on_c, 0, 65, 80
2, 23943, Note_on_c, 0, 67, 0
2, 23960, Note_on_c, 0, 64, 68
2, 23961, Note_on_c, 0, 65, 0
2, 23980, Note_on_c, 0, 65, 72
2, 23987, Note_on_c, 0, 64, 0
2, 23996, Note_on_c, 0, 65, 0
2, 24000, Note_on_c, 0, 60, 59
2, 24020, Note_on_c, 0, 65, 82
2, 24028, Note_on_c, 0, 60, 0
2, 24040, Note_on_c, 0, 67, 70
2, 24044, Note_on_c, 0, 65, 0
2, 24060, Note_on_c, 0, 69, 91
2, 24065, Note_on_c, 0, 67, 0
2, 24080, Note_on_c, 0, 67, 85
2, 24086, Note_on_c, 0, 69, 0
2, 24100, Note_on_c, 0, 65, 70
2, 24103, Note_on_c, 0, 67, 0
2, 24120, Note_on_c, 0, 67, 82
2, 24122, Note_on_c, 0, 65, 0
2, 24140, Note_on_c, 0, 65, 80
2, 24142, Note_on_c, 0, 67, 0
2, 24160, Note_on_c, 0, 67, 66
2, 24162, Note_on_c, 0, 65, 0
2, 24178, Note_on_c, 0, 67, 0
2, 24180, Note_on_c, 0, 60, 68
2, 24200, Note_on_c, 0, 67, 64
2, 24203, Note_on_c, 0, 60, 0
2, 24220, Note_on_c, 0, 69, 68
2, 24226, Note_on_c, 0, 67, 0
2, 24240, Note_on_c, 0, 70, 70
2, 24241, Note_on_c, 0, 69, 0
2, 24260, Note_on_c, 0, 69, 64
2, 24261, Note_on_c, 0, 70, 0
2, 24280, Note_on_c, 0, 67, 80
2, 24282, Note_on_c, 0, 69, 0
2, 24300, Note_on_c, 0, 69, 87
2, 24305, Note_on_c, 0, 67, 0
2, 24320, Note_on_c, 0, 67, 68
2, 24326, Note_on_c, 0, 69, 0
2, 24335, Note_on_c, 0, 67, 0
2, 24340, Note_on_c, 0, 65, 66
2, 24359, Note_on_c, 0, 65, 0
2, 24360, Note_on_c, 0, 72, 98
2, 24380, Note_on_c, 0, 70, 80
2, 24385, Note_on_c, 0, 72, 0
2, 24400, Note_on_c, 0, 69, 68
2, 24404, Note_on_c, 0, 70, 0
2, 24420, Note_on_c, 0, 67, 68
2, 24422, Note_on_c, 0, 69, 0
2, 24440, Note_on_c, 0, 69, 63
2, 24440, Note_on_c, 0, 67, 0
2, 24460, Note_on_c, 0, 65, 68
2, 24462, Note_on_c, 0, 69, 0
2, 24480, Note_on_c, 0, 64, 76
2, 24481, Note_on_c, 0, 65, 0
2, 24500, Note_on_c, 0, 65, 70
2, 24501, Note_on_c, 0, 64, 0
2, 24520, Note_on_c, 0, 67, 74
2, 24526, Note_on_c, 0, 65, 0
2, 24537, Note_on_c, 0, 67, 0
2, 24540, Note_on_c, 0, 60, 78
2, 24560, Note_on_c, 0, 64, 80
2, 24562, Note_on_c, 0, 60, 0
2, 24580, Note_on_c, 0, 67, 76
2, 24581, Note_on_c, 0, 64, 0
2, 24599, Note_on_c, 0, 67, 0
2, 24600, Note_on_c, 0, 72, 76
2, 24620, Note_on_c, 0, 70, 80
2, 24627, Note_on_c, 0, 72, 0
2, 24640, Note_on_c, 0, 69, 82
2, 24642, Note_on_c, 0, 70, 0
2, 24660, Note_on_c, 0, 70, 87
2, 24664, Note_on_c, 0, 69, 0
2, 24713, Note_on_c, 0, 70, 0
2, 24720, Note_on_c, 0, 67, 78
2, 24778, Note_on_c, 0, 67, 0
2, 24780, Note_on_c, 0, 62, 91
2, 24878, Note_on_c, 0, 62, 0
2, 24900, Note_on_c, 0, 66, 102
2, 24953, Note_on_c, 0, 66, 0
2, 24960, Note_on_c, 0, 69, 82
2, 25059, Note_on_c, 0, 69, 0
2, 25080, Note_on_c, 0, 67, 85
2, 25132, Note_on_c, 0, 67, 0
2, 25140, Note_on_c, 0, 75, 87
2, 25199, Note_on_c, 0, 75, 0
2, 25200, Note_on_c, 0, 69, 80
2, 25244, Note_on_c, 0, 69, 0
2, 25260, Note_on_c, 0, 81, 98
2, 25389, Note_on_c, 0, 81, 0
2, 25400, Note_on_c, 0, 78, 89
2, 25420, Note_on_c, 0, 79, 72
2, 25422, Note_on_c, 0, 78, 0
2, 25440, Note_on_c, 0, 75, 85
2, 25441, Note_on_c, 0, 79, 0
2, 25460, Note_on_c, 0, 78, 76
2, 25464, Note_on_c, 0, 75, 0
2, 25480, Note_on_c, 0, 79, 68
2, 25480, Note_on_c, 0, 78, 0
2, 25500, Note_on_c, 0, 74, 85
2, 25500, Note_on_c, 0, 79, 0
2, 25520, Note_on_c, 0, 78, 59
2, 25525, Note_on_c, 0, 74, 0
2, 25540, Note_on_c, 0, 79, 60
2, 25545, Note_on_c, 0, 78, 0
2, 25559, Note_on_c, 0, 79, 0
2, 25560, Note_on_c, 0, 72, 74
2, 25580, Note_on_c, 0, 78, 70
2, 25586, Note_on_c, 0, 72, 0
2, 25600, Note_on_c, 0, 79, 72
2, 25601, Note_on_c, 0, 78, 0
2, 25620, Note_on_c, 0, 70, 70
2, 25620, Note_on_c, 0, 79, 0
2, 25640, Note_on_c, 0, 78, 68
2, 25642, Note_on_c, 0, 70, 0
2, 25660, Note_on_c, 0, 79, 72
2, 25665, Note_on_c, 0, 78, 0
2, 25680, Note_on_c, 0, 69, 70
2, 25681, Note_on_c, 0, 79, 0
2, 25700, Note_on_c, 0, 78, 80
2, 25704, Note_on_c, 0, 69, 0
2, 25720, Note_on_c, 0, 79, 70
2, 25721, Note_on_c, 0, 78, 0
2, 25740, Note_on_c, 0, 70, 72
2, 25742, Note_on_c, 0, 79, 0
2, 25800, Note_on_c, 0, 75, 85
2, 25800, Note_on_c, 0, 70, 0
2, 25860, Note_on_c, 0, 70, 85
2, 25865, Note_on_c, 0, 75, 0
2, 25869, Note_on_c, 0, 70, 0
2, 25870, Note_on_c, 0, 69, 85
2, 25879, Note_on_c, 0, 69, 0
2, 25880, Note_on_c, 0, 70, 80
2, 25889, Note_on_c, 0, 70, 0
2, 25890, Note_on_c, 0, 69, 87
2, 25918, Note_on_c, 0, 69, 0
2, 25920, Note_on_c, 0, 67, 72
2, 26039, Note_on_c, 0, 67, 0
2, 26100, Note_on_c, 0, 69, 60
2, 26219, Note_on_c, 0, 69, 0
2, 26220, Note_on_c, 0, 74, 89
2, 26235, Note_on_c, 0, 76, 89
2, 26238, Note_on_c, 0, 74, 0
2, 26250, Note_on_c, 0, 77, 85
2, 26253, Note_on_c, 0, 76, 0
2, 26280, Note_on_c, 0, 76, 89
2, 26286, Note_on_c, 0, 77, 0
2, 26399, Note_on_c, 0, 76, 0
2, 26400, Note_on_c, 0, 69, 89
2, 26490, Note_on_c, 0, 74, 89
2, 26497, Note_on_c, 0, 69, 0
2, 26520, Note_on_c, 0, 72, 82
2, 26524, Note_on_c, 0, 74, 0
2, 26550, Note_on_c, 0, 70, 80
2, 26556, Note_on_c, 0, 72, 0
2, 26580, Note_on_c, 0, 69, 80
2, 26585, Note_on_c, 0, 70, 0
2, 26610, Note_on_c, 0, 67, 66
2, 26611, Note_on_c, 0, 69, 0
2, 26640, Note_on_c, 0, 72, 93
2, 26642, Note_on_c, 0, 67, 0
2, 26655, Note_on_c, 0, 70, 93
2, 26657, Note_on_c, 0, 72, 0
2, 26670, Note_on_c, 0, 69, 91
2, 26671, Note_on_c, 0, 70, 0
2, 26700, Note_on_c, 0, 70, 82
2, 26702, Note_on_c, 0, 69, 0
2, 26715, Note_on_c, 0, 69, 85
2, 26719, Note_on_c, 0, 70, 0
2, 26730, Note_on_c, 0, 67, 70
2, 26734, Note_on_c, 0, 69, 0
2, 26760, Note_on_c, 0, 65, 82
2, 26764, Note_on_c, 0, 67, 0
2, 26847, Note_on_c, 0, 65, 0
2, 26850, Note_on_c, 0, 67, 85
2, 26880, Note_on_c, 0, 69, 98
2, 26884, Note_on_c, 0, 67, 0
2, 26910, Note_on_c, 0, 70, 80
2, 26915, Note_on_c, 0, 69, 0
2, 26940, Note_on_c, 0, 69, 95
2, 26945, Note_on_c, 0, 70, 0
2, 26970, Note_on_c, 0, 67, 70
2, 26972, Note_on_c, 0, 69, 0
2, 27000, Note_on_c, 0, 73, 102
2, 27001, Note_on_c, 0, 67, 0
2, 27030, Note_on_c, 0, 67, 66
2, 27033, Note_on_c, 0, 73, 0
2, 27060, Note_on_c, 0, 69, 93
2, 27061, Note_on_c, 0, 67, 0
2, 27090, Note_on_c, 0, 70, 78
2, 27098, Note_on_c, 0, 69, 0
2, 27120, Note_on_c, 0, 69, 80
2, 27123, Note_on_c, 0, 70, 0
2, 27150, Note_on_c, 0, 67, 66
2, 27152, Note_on_c, 0, 69, 0
2, 27176, Note_on_c, 0, 67, 0
2, 27180, Note_on_c, 0, 76, 98
2, 27210, Note_on_c, 0, 67, 66
2, 27212, Note_on_c, 0, 76, 0
2, 27240, Note_on_c, 0, 69, 85
2, 27241, Note_on_c, 0, 67, 0
2, 27270, Note_on_c, 0, 70, 66
2, 27274, Note_on_c, 0, 69, 0
2, 27300, Note_on_c, 0, 69, 74
2, 27306, Note_on_c, 0, 70, 0
2, 27330, Note_on_c, 0, 67, 68
2, 27338, Note_on_c, 0, 69, 0
2, 27359, Note_on_c, 0, 67, 0
2, 27360, Note_on_c, 0, 65, 63
2, 27390, Note_on_c, 0, 64, 87
2, 27392, Note_on_c, 0, 65, 0
2, 27420, Note_on_c, 0, 67, 80
2, 27424, Note_on_c, 0, 64, 0
2, 27450, Note_on_c, 0, 65, 85
2, 27457, Note_on_c, 0, 67, 0
2, 27480, Note_on_c, 0, 64, 80
2, 27485, Note_on_c, 0, 65, 0
2, 27510, Note_on_c, 0, 62, 87
2, 27515, Note_on_c, 0, 64, 0
2, 27535, Note_on_c, 0, 62, 0
2, 27540, Note_on_c, 0, 62, 93
2, 27570, Note_on_c, 0, 60, 80
2, 27572, Note_on_c, 0, 62, 0
2, 27599, Note_on_c, 0, 60, 0
2, 27600, Note_on_c, 0, 59, 70
2, 27630, Note_on_c, 0, 57, 74
2, 27635, Note_on_c, 0, 59, 0
2, 27660, Note_on_c, 0, 65, 87
2, 27660, Note_on_c, 0, 57, 0
2, 27733, Note_on_c, 0, 65, 0
2, 27750, Note_on_c, 0, 64, 82
2, 27780, Note_on_c, 0, 76, 80
2, 27783, Note_on_c, 0, 64, 0
2, 27810, Note_on_c, 0, 74, 82
2, 27815, Note_on_c, 0, 76, 0
2, 27840, Note_on_c, 0, 72, 72
2, 27849, Note_on_c, 0, 74, 0
2, 27870, Note_on_c, 0, 71, 76
2, 27874, Note_on_c, 0, 72, 0
2, 27900, Note_on_c, 0, 69, 68
2, 27901, Note_on_c, 0, 71, 0
2, 27930, Note_on_c, 0, 71, 89
2, 27932, Note_on_c, 0, 69, 0
2, 27960, Note_on_c, 0, 72, 68
2, 27964, Note_on_c, 0, 71, 0
2, 27975, Note_on_c, 0, 71, 80
2, 27977, Note_on_c, 0, 72, 0
2, 28050, Note_on_c, 0, 69, 66
2, 28051, Note_on_c, 0, 71, 0
2, 28065, Note_on_c, 0, 71, 70
2, 28067, Note_on_c, 0, 69, 0
2, 28080, Note_on_c, 0, 72, 66
2, 28084, Note_on_c, 0, 71, 0
2, 28155, Note_on_c, 0, 72, 0
2, 28170, Note_on_c, 0, 76, 89
2, 28200, Note_on_c, 0, 80, 72
2, 28204, Note_on_c, 0, 76, 0
2, 28230, Note_on_c, 0, 83, 85
2, 28233, Note_on_c, 0, 80, 0
2, 28260, Note_on_c, 0, 81, 78
2, 28264, Note_on_c, 0, 83, 0
2, 28314, Note_on_c, 0, 81, 0
2, 28320, Note_on_c, 0, 69, 70
2, 28377, Note_on_c, 0, 69, 0
2, 28380, Note_on_c, 0, 77, 82
2, 28485, Note_on_c, 0, 77, 0
2, 28500, Note_on_c, 0, 71, 76
2, 28560, Note_on_c, 0, 74, 85
2, 28562, Note_on_c, 0, 71, 0
2, 28662, Note_on_c, 0, 74, 0
2, 28680, Note_on_c, 0, 68, 80
2, 28740, Note_on_c, 0, 71, 74
2, 28744, Note_on_c, 0, 68, 0
2, 28850, Note_on_c, 0, 71, 0
2, 28860, Note_on_c, 0, 64, 89
2, 28919, Note_on_c, 0, 64, 0
2, 28920, Note_on_c, 0, 69, 82
2, 29000, Note_on_c, 0, 67, 82
2, 29010, Note_on_c, 0, 69, 0
2, 29020, Note_on_c, 0, 65, 82
2, 29023, Note_on_c, 0, 67, 0
2, 29040, Note_on_c, 0, 67, 85
2, 29044, Note_on_c, 0, 65, 0
2, 29060, Note_on_c, 0, 65, 74
2, 29065, Note_on_c, 0, 67, 0
2, 29080, Note_on_c, 0, 64, 80
2, 29082, Note_on_c, 0, 65, 0
2, 29100, Note_on_c, 0, 62, 74
2, 29101, Note_on_c, 0, 64, 0
2, 29120, Note_on_c, 0, 64, 82
2, 29126, Note_on_c, 0, 62, 0
2, 29140, Note_on_c, 0, 65, 85
2, 29141, Note_on_c, 0, 64, 0
2, 29160, Note_on_c, 0, 55, 76
2, 29164, Note_on_c, 0, 65, 0
2, 29218, Note_on_c, 0, 55, 0
2, 29220, Note_on_c, 0, 72, 91
2, 29354, Note_on_c, 0, 72, 0
2, 29360, Note_on_c, 0, 71, 80
2, 29380, Note_on_c, 0, 69, 85
2, 29382, Note_on_c, 0, 71, 0
2, 29400, Note_on_c, 0, 71, 85
2, 29403, Note_on_c, 0, 69, 0
2, 29420, Note_on_c, 0, 69, 78
2, 29423, Note_on_c, 0, 71, 0
2, 29440, Note_on_c, 0, 68, 66
2, 29442, Note_on_c, 0, 69, 0
2, 29460, Note_on_c, 0, 66, 80
2, 29460, Note_on_c, 0, 68, 0
2, 29480, Note_on_c, 0, 68, 64
2, 29481, Note_on_c, 0, 66, 0
2, 29499, Note_on_c, 0, 68, 0
2, 29500, Note_on_c, 0, 69, 80
2, 29520, Note_on_c, 0, 59, 76
2, 29524, Note_on_c, 0, 69, 0
2, 29578, Note_on_c, 0, 59, 0
2, 29580, Note_on_c, 0, 76, 85
2, 29708, Note_on_c, 0, 76, 0
2, 29720, Note_on_c, 0, 74, 98
2, 29740, Note_on_c, 0, 72, 87
2, 29743, Note_on_c, 0, 74, 0
2, 29760, Note_on_c, 0, 74, 95
2, 29765, Note_on_c, 0, 72, 0
2, 29780, Note_on_c, 0, 72, 93
2, 29784, Note_on_c, 0, 74, 0
2, 29800, Note_on_c, 0, 71, 98
2, 29804, Note_on_c, 0, 72, 0
2, 29820, Note_on_c, 0, 69, 66
2, 29822, Note_on_c, 0, 71, 0
2, 29840, Note_on_c, 0, 71, 91
2, 29845, Note_on_c, 0, 69, 0
2, 29860, Note_on_c, 0, 72, 80
2, 29860, Note_on_c, 0, 71, 0
2, 29880, Note_on_c, 0, 62, 87
2, 29884, Note_on_c, 0, 72, 0
2, 29938, Note_on_c, 0, 62, 0
2, 29940, Note_on_c, 0, 79, 87
2, 30071, Note_on_c, 0, 79, 0
2, 30080, Note_on_c, 0, 77, 98
2, 30100, Note_on_c, 0, 76, 98
2, 30101, Note_on_c, 0, 77, 0
2, 30120, Note_on_c, 0, 77, 89
2, 30123, Note_on_c, 0, 76, 0
2, 30140, Note_on_c, 0, 76, 82
2, 30145, Note_on_c, 0, 77, 0
2, 30159, Note_on_c, 0, 76, 0
2, 30160, Note_on_c, 0, 74, 70
2, 30180, Note_on_c, 0, 73, 100
2, 30183, Note_on_c, 0, 74, 0
2, 30200, Note_on_c, 0, 74, 87
2, 30204, Note_on_c, 0, 73, 0
2, 30220, Note_on_c, 0, 76, 82
2, 30221, Note_on_c, 0, 74, 0
2, 30240, Note_on_c, 0, 62, 89
2, 30246, Note_on_c, 0, 76, 0
2, 30294, Note_on_c, 0, 62, 0
2, 30300, Note_on_c, 0, 74, 95
2, 30360, Note_on_c, 0, 73, 85
2, 30363, Note_on_c, 0, 74, 0
2, 30420, Note_on_c, 0, 74, 82
2, 30425, Note_on_c, 0, 73, 0
2, 30480, Note_on_c, 0, 69, 80
2, 30480, Note_on_c, 0, 74, 0
2, 30540, Note_on_c, 0, 74, 93
2, 30546, Note_on_c, 0, 69, 0
2, 30554, Note_on_c, 0, 74, 0
2, 30555, Note_on_c, 0, 76, 78
2, 30570, Note_on_c, 0, 77, 87
2, 30570, Note_on_c, 0, 76, 0
2, 30600, Note_on_c, 0, 76, 85
2, 30604, Note_on_c, 0, 77, 0
2, 30720, Note_on_c, 0, 69, 85
2, 30725, Note_on_c, 0, 76, 0
2, 30787, Note_on_c, 0, 69, 0
2, 30810, Note_on_c, 0, 74, 85
2, 30840, Note_on_c, 0, 72, 80
2, 30842, Note_on_c, 0, 74, 0
2, 30870, Note_on_c, 0, 70, 87
2, 30875, Note_on_c, 0, 72, 0
2, 30900, Note_on_c, 0, 69, 80
2, 30906, Note_on_c, 0, 70, 0
2, 30930, Note_on_c, 0, 67, 68
2, 30931, Note_on_c, 0, 69, 0
2, 30960, Note_on_c, 0, 72, 85
2, 30960, Note_on_c, 0, 67, 0
2, 30975, Note_on_c, 0, 70, 91
2, 30978, Note_on_c, 0, 72, 0
2, 30990, Note_on_c, 0, 69, 91
2, 30992, Note_on_c, 0, 70, 0
2, 31020, Note_on_c, 0, 70, 70
2, 31021, Note_on_c, 0, 69, 0
2, 31035, Note_on_c, 0, 69, 78
2, 31038, Note_on_c, 0, 70, 0
2, 31050, Note_on_c, 0, 67, 80
2, 31052, Note_on_c, 0, 69, 0
2, 31080, Note_on_c, 0, 65, 80
2, 31081, Note_on_c, 0, 67, 0
2, 31145, Note_on_c, 0, 65, 0
2, 31170, Note_on_c, 0, 67, 78
2, 31200, Note_on_c, 0, 69, 78
2, 31202, Note_on_c, 0, 67, 0
2, 31230, Note_on_c, 0, 70, 70
2, 31234, Note_on_c, 0, 69, 0
2, 31260, Note_on_c, 0, 69, 85
2, 31263, Note_on_c, 0, 70, 0
2, 31290, Note_on_c, 0, 67, 68
2, 31290, Note_on_c, 0, 69, 0
2, 31317, Note_on_c, 0, 67, 0
2, 31320, Note_on_c, 0, 73, 85
2, 31350, Note_on_c, 0, 67, 85
2, 31350, Note_on_c, 0, 73, 0
2, 31380, Note_on_c, 0, 69, 100
2, 31384, Note_on_c, 0, 67, 0
2, 31410, Note_on_c, 0, 70, 78
2, 31415, Note_on_c, 0, 69, 0
2, 31440, Note_on_c, 0, 69, 85
2, 31444, Note_on_c, 0, 70, 0
2, 31470, Note_on_c, 0, 67, 74
2, 31472, Note_on_c, 0, 69, 0
2, 31498, Note_on_c, 0, 67, 0
2, 31500, Note_on_c, 0, 76, 95
2, 31530, Note_on_c, 0, 67, 82
2, 31532, Note_on_c, 0, 76, 0
2, 31560, Note_on_c, 0, 69, 82
2, 31564, Note_on_c, 0, 67, 0
2, 31590, Note_on_c, 0, 70, 78
2, 31595, Note_on_c, 0, 69, 0
2, 31620, Note_on_c, 0, 69, 89
2, 31624, Note_on_c, 0, 70, 0
2, 31649, Note_on_c, 0, 69, 0
2, 31650, Note_on_c, 0, 67, 70
2, 31680, Note_on_c, 0, 65, 87
2, 31684, Note_on_c, 0, 67, 0
2, 31728, Note_on_c, 0, 65, 0
2, 31740, Note_on_c, 0, 77, 100
2, 31869, Note_on_c, 0, 77, 0
2, 31890, Note_on_c, 0, 76, 100
2, 31920, Note_on_c, 0, 79, 74
2, 31921, Note_on_c, 0, 76, 0
2, 31950, Note_on_c, 0, 77, 82
2, 31953, Note_on_c, 0, 79, 0
2, 31980, Note_on_c, 0, 76, 82
2, 31985, Note_on_c, 0, 77, 0
2, 32010, Note_on_c, 0, 74, 78
2, 32012, Note_on_c, 0, 76, 0
2, 32040, Note_on_c, 0, 73, 85
2, 32040, Note_on_c, 0, 74, 0
2, 32070, Note_on_c, 0, 82, 82
2, 32071, Note_on_c, 0, 73, 0
2, 32100, Note_on_c, 0, 81, 80
2, 32103, Note_on_c, 0, 82, 0
2, 32130, Note_on_c, 0, 79, 68
2, 32131, Note_on_c, 0, 81, 0
2, 32160, Note_on_c, 0, 77, 74
2, 32163, Note_on_c, 0, 79, 0
2, 32190, Note_on_c, 0, 76, 61
2, 32191, Note_on_c, 0, 77, 0
2, 32217, Note_on_c, 0, 76, 0
2, 32220, Note_on_c, 0, 74, 87
2, 32269, Note_on_c, 0, 74, 0
2, 32280, Note_on_c, 0, 76, 87
2, 32329, Note_on_c, 0, 76, 0
2, 32340, Note_on_c, 0, 73, 100
2, 32389, Note_on_c, 0, 73, 0
2, 32400, Note_on_c, 0, 74, 85
2, 32539, Note_on_c, 0, 74, 0
2, 32580, End_track
3, 0, Start_track
3, 0, MIDI_port, 0
3, 0, Title_t, ""
3, 0, Control_c, 1, 10, 127
3, 1620, Note_on_c, 1, 64, 85
3, 1740, Note_on_c, 1, 69, 113
3, 1742, Note_on_c, 1, 64, 0
3, 1755, Note_on_c, 1, 71, 98
3, 1755, Note_on_c, 1, 69, 0
3, 1770, Note_on_c, 1, 72, 102
3, 1771, Note_on_c, 1, 71, 0
3, 1800, Note_on_c, 1, 71, 102
3, 1804, Note_on_c, 1, 72, 0
3, 1920, Note_on_c, 1, 64, 110
3, 1923, Note_on_c, 1, 71, 0
3, 1996, Note_on_c, 1, 64, 0
3, 2010, Note_on_c, 1, 69, 100
3, 2040, Note_on_c, 1, 67, 91
3, 2045, Note_on_c, 1, 69, 0
3, 2070, Note_on_c, 1, 65, 102
3, 2074, Note_on_c, 1, 67, 0
3, 2100, Note_on_c, 1, 64, 102
3, 2107, Note_on_c, 1, 65, 0
3, 2130, Note_on_c, 1, 62, 87
3, 2131, Note_on_c, 1, 64, 0
3, 2160, Note_on_c, 1, 67, 100
3, 2160, Note_on_c, 1, 62, 0
3, 2175, Note_on_c, 1, 65, 105
3, 2179, Note_on_c, 1, 67, 0
3, 2190, Note_on_c, 1, 64, 102
3, 2192, Note_on_c, 1, 65, 0
3, 2219, Note_on_c, 1, 64, 0
3, 2220, Note_on_c, 1, 65, 89
3, 2235, Note_on_c, 1, 64, 102
3, 2239, Note_on_c, 1, 65, 0
3, 2250, Note_on_c, 1, 62, 105
3, 2256, Note_on_c, 1, 64, 0
3, 2280, Note_on_c, 1, 60, 89
3, 2284, Note_on_c, 1, 62, 0
3, 2350, Note_on_c, 1, 60, 0
3, 2370, Note_on_c, 1, 62, 98
3, 2400, Note_on_c, 1, 64, 100
3, 2405, Note_on_c, 1, 62, 0
3, 2430, Note_on_c, 1, 65, 89
3, 2436, Note_on_c, 1, 64, 0
3, 2460, Note_on_c, 1, 64, 89
3, 2466, Note_on_c, 1, 65, 0
3, 2490, Note_on_c, 1, 62, 87
3, 2495, Note_on_c, 1, 64, 0
3, 2519, Note_on_c, 1, 62, 0
3, 2520, Note_on_c, 1, 68, 95
3, 2550, Note_on_c, 1, 62, 98
3, 2554, Note_on_c, 1, 68, 0
3, 2580, Note_on_c, 1, 64, 95
3, 2583, Note_on_c, 1, 62, 0
3, 2610, Note_on_c, 1, 65, 72
3, 2613, Note_on_c, 1, 64, 0
3, 2640, Note_on_c, 1, 64, 85
3, 2649, Note_on_c, 1, 65, 0
3, 2666, Note_on_c, 1, 64, 0
3, 2670, Note_on_c, 1, 62, 85
3, 2700, Note_on_c, 1, 71, 87
3, 2700, Note_on_c, 1, 62, 0
3, 2730, Note_on_c, 1, 62, 85
3, 2733, Note_on_c, 1, 71, 0
3, 2760, Note_on_c, 1, 64, 85
3, 2765, Note_on_c, 1, 62, 0
3, 2790, Note_on_c, 1, 65, 85
3, 2796, Note_on_c, 1, 64, 0
3, 2820, Note_on_c, 1, 64, 85
3, 2824, Note_on_c, 1, 65, 0
3, 2850, Note_on_c, 1, 62, 89
3, 2854, Note_on_c, 1, 64, 0
3, 2880, Note_on_c, 1, 60, 78
3, 2880, Note_on_c, 1, 62, 0
3, 2910, Note_on_c, 1, 59, 85
3, 2914, Note_on_c, 1, 60, 0
3, 2940, Note_on_c, 1, 62, 87
3, 2944, Note_on_c, 1, 59, 0
3, 2970, Note_on_c, 1, 60, 80
3, 2977, Note_on_c, 1, 62, 0
3, 3000, Note_on_c, 1, 59, 85
3, 3006, Note_on_c, 1, 60, 0
3, 3030, Note_on_c, 1, 57, 80
3, 3030, Note_on_c, 1, 59, 0
3, 3060, Note_on_c, 1, 58, 100
3, 3067, Note_on_c, 1, 57, 0
3, 3104, Note_on_c, 1, 58, 0
3, 3120, Note_on_c, 1, 70, 91
3, 3243, Note_on_c, 1, 70, 0
3, 3260, Note_on_c, 1, 69, 89
3, 3280, Note_on_c, 1, 67, 95
3, 3283, Note_on_c, 1, 69, 0
3, 3300, Note_on_c, 1, 69, 89
3, 3304, Note_on_c, 1, 67, 0
3, 3320, Note_on_c, 1, 67, 70
3, 3324, Note_on_c, 1, 69, 0
3, 3340, Note_on_c, 1, 66, 100
3, 3344, Note_on_c, 1, 67, 0
3, 3360, Note_on_c, 1, 64, 87
3, 3360, Note_on_c, 1, 66, 0
3, 3380, Note_on_c, 1, 66, 98
3, 3385, Note_on_c, 1, 64, 0
3, 3400, Note_on_c, 1, 67, 87
3, 3401, Note_on_c, 1, 66, 0
3, 3420, Note_on_c, 1, 57, 82
3, 3426, Note_on_c, 1, 67, 0
3, 3468, Note_on_c, 1, 57, 0
3, 3480, Note_on_c, 1, 74, 100
3, 3606, Note_on_c, 1, 74, 0
3, 3620, Note_on_c, 1, 72, 102
3, 3640, Note_on_c, 1, 71, 102
3, 3643, Note_on_c, 1, 72, 0
3, 3660, Note_on_c, 1, 72, 95
3, 3662, Note_on_c, 1, 71, 0
3, 3680, Note_on_c, 1, 71, 95
3, 3686, Note_on_c, 1, 72, 0
3, 3700, Note_on_c, 1, 69, 76
3, 3700, Note_on_c, 1, 71, 0
3, 3720, Note_on_c, 1, 68, 100
3, 3725, Note_on_c, 1, 69, 0
3, 3740, Note_on_c, 1, 69, 91
3, 3742, Note_on_c, 1, 68, 0
3, 3760, Note_on_c, 1, 71, 95
3, 3765, Note_on_c, 1, 69, 0
3, 3780, Note_on_c, 1, 60, 89
3, 3782, Note_on_c, 1, 71, 0
3, 3837, Note_on_c, 1, 60, 0
3, 3840, Note_on_c, 1, 77, 98
3, 3968, Note_on_c, 1, 77, 0
3, 3980, Note_on_c, 1, 76, 98
3, 4000, Note_on_c, 1, 74, 100
3, 4002, Note_on_c, 1, 76, 0
3, 4020, Note_on_c, 1, 76, 98
3, 4024, Note_on_c, 1, 74, 0
3, 4040, Note_on_c, 1, 74, 98
3, 4044, Note_on_c, 1, 76, 0
3, 4060, Note_on_c, 1, 73, 100
3, 4064, Note_on_c, 1, 74, 0
3, 4080, Note_on_c, 1, 71, 74
3, 4080, Note_on_c, 1, 73, 0
3, 4100, Note_on_c, 1, 73, 105
3, 4106, Note_on_c, 1, 71, 0
3, 4120, Note_on_c, 1, 74, 85
3, 4120, Note_on_c, 1, 73, 0
3, 4140, Note_on_c, 1, 64, 89
3, 4145, Note_on_c, 1, 74, 0
3, 4192, Note_on_c, 1, 64, 0
3, 4200, Note_on_c, 1, 81, 91
3, 4332, Note_on_c, 1, 81, 0
3, 4340, Note_on_c, 1, 79, 85
3, 4360, Note_on_c, 1, 77, 82
3, 4364, Note_on_c, 1, 79, 0
3, 4380, Note_on_c, 1, 82, 91
3, 4385, Note_on_c, 1, 77, 0
3, 4400, Note_on_c, 1, 81, 85
3, 4402, Note_on_c, 1, 82, 0
3, 4420, Note_on_c, 1, 79, 98
3, 4425, Note_on_c, 1, 81, 0
3, 4440, Note_on_c, 1, 77, 91
3, 4441, Note_on_c, 1, 79, 0
3, 4460, Note_on_c, 1, 79, 78
3, 4463, Note_on_c, 1, 77, 0
3, 4480, Note_on_c, 1, 76, 82
3, 4481, Note_on_c, 1, 79, 0
3, 4500, Note_on_c, 1, 77, 85
3, 4503, Note_on_c, 1, 76, 0
3, 4530, Note_on_c, 1, 76, 95
3, 4535, Note_on_c, 1, 77, 0
3, 4560, Note_on_c, 1, 74, 98
3, 4564, Note_on_c, 1, 76, 0
3, 4590, Note_on_c, 1, 72, 82
3, 4590, Note_on_c, 1, 74, 0
3, 4620, Note_on_c, 1, 70, 107
3, 4623, Note_on_c, 1, 72, 0
3, 4697, Note_on_c, 1, 70, 0
3, 4710, Note_on_c, 1, 64, 102
3, 4740, Note_on_c, 1, 69, 91
3, 4743, Note_on_c, 1, 64, 0
3, 4770, Note_on_c, 1, 67, 87
3, 4775, Note_on_c, 1, 69, 0
3, 4800, Note_on_c, 1, 65, 102
3, 4803, Note_on_c, 1, 67, 0
3, 4830, Note_on_c, 1, 64, 95
3, 4833, Note_on_c, 1, 65, 0
3, 4860, Note_on_c, 1, 62, 82
3, 4862, Note_on_c, 1, 64, 0
3, 4890, Note_on_c, 1, 64, 102
3, 4894, Note_on_c, 1, 62, 0
3, 4920, Note_on_c, 1, 65, 87
3, 4922, Note_on_c, 1, 64, 0
3, 4935, Note_on_c, 1, 64, 116
3, 4938, Note_on_c, 1, 65, 0
3, 5009, Note_on_c, 1, 64, 0
3, 5010, Note_on_c, 1, 62, 80
3, 5025, Note_on_c, 1, 64, 100
3, 5026, Note_on_c, 1, 62, 0
3, 5040, Note_on_c, 1, 65, 91
3, 5045, Note_on_c, 1, 64, 0
3, 5126, Note_on_c, 1, 65, 0
3, 5130, Note_on_c, 1, 69, 107
3, 5160, Note_on_c, 1, 73, 100
3, 5161, Note_on_c, 1, 69, 0
3, 5190, Note_on_c, 1, 76, 91
3, 5192, Note_on_c, 1, 73, 0
3, 5220, Note_on_c, 1, 74, 93
3, 5226, Note_on_c, 1, 76, 0
3, 5280, Note_on_c, 1, 62, 87
3, 5286, Note_on_c, 1, 74, 0
3, 5340, Note_on_c, 1, 70, 91
3, 5340, Note_on_c, 1, 62, 0
3, 5440, Note_on_c, 1, 70, 0
3, 5460, Note_on_c, 1, 64, 98
3, 5520, Note_on_c, 1, 67, 91
3, 5521, Note_on_c, 1, 64, 0
3, 5620, Note_on_c, 1, 67, 0
3, 5640, Note_on_c, 1, 61, 102
3, 5699, Note_on_c, 1, 61, 0
3, 5700, Note_on_c, 1, 64, 95
3, 5775, Note_on_c, 1, 64, 0
3, 5790, Note_on_c, 1, 57, 89
3, 5820, Note_on_c, 1, 62, 89
3, 5825, Note_on_c, 1, 57, 0
3, 5850, Note_on_c, 1, 60, 89
3, 5854, Note_on_c, 1, 62, 0
3, 5880, Note_on_c, 1, 58, 87
3, 5885, Note_on_c, 1, 60, 0
3, 5910, Note_on_c, 1, 57, 85
3, 5911, Note_on_c, 1, 58, 0
3, 5940, Note_on_c, 1, 58, 87
3, 5940, Note_on_c, 1, 57, 0
3, 5995, Note_on_c, 1, 58, 0
3, 6000, Note_on_c, 1, 62, 91
3, 6060, Note_on_c, 1, 67, 91
3, 6060, Note_on_c, 1, 62, 0
3, 6135, Note_on_c, 1, 67, 0
3, 6180, Note_on_c, 1, 61, 89
3, 6210, Note_on_c, 1, 70, 98
3, 6214, Note_on_c, 1, 61, 0
3, 6240, Note_on_c, 1, 69, 85
3, 6245, Note_on_c, 1, 70, 0
3, 6270, Note_on_c, 1, 67, 87
3, 6275, Note_on_c, 1, 69, 0
3, 6300, Note_on_c, 1, 65, 98
3, 6304, Note_on_c, 1, 67, 0
3, 6360, Note_on_c, 1, 67, 89
3, 6367, Note_on_c, 1, 65, 0
3, 6418, Note_on_c, 1, 67, 0
3, 6420, Note_on_c, 1, 64, 102
3, 6480, Note_on_c, 1, 65, 100
3, 6483, Note_on_c, 1, 64, 0
3, 6615, Note_on_c, 1, 65, 0
3, 6660, Note_on_c, 1, 62, 100
3, 6680, Note_on_c, 1, 61, 100
3, 6684, Note_on_c, 1, 62, 0
3, 6700, Note_on_c, 1, 62, 87
3, 6704, Note_on_c, 1, 61, 0
3, 6717, Note_on_c, 1, 62, 0
3, 6720, Note_on_c, 1, 57, 80
3, 6740, Note_on_c, 1, 62, 85
3, 6743, Note_on_c, 1, 57, 0
3, 6760, Note_on_c, 1, 64, 87
3, 6763, Note_on_c, 1, 62, 0
3, 6780, Note_on_c, 1, 65, 100
3, 6783, Note_on_c, 1, 64, 0
3, 6800, Note_on_c, 1, 64, 93
3, 6806, Note_on_c, 1, 65, 0
3, 6820, Note_on_c, 1, 62, 100
3, 6822, Note_on_c, 1, 64, 0
3, 6840, Note_on_c, 1, 64, 85
3, 6840, Note_on_c, 1, 62, 0
3, 6860, Note_on_c, 1, 62, 100
3, 6864, Note_on_c, 1, 64, 0
3, 6880, Note_on_c, 1, 64, 87
3, 6882, Note_on_c, 1, 62, 0
3, 6900, Note_on_c, 1, 57, 80
3, 6900, Note_on_c, 1, 64, 0
3, 6920, Note_on_c, 1, 64, 68
3, 6927, Note_on_c, 1, 57, 0
3, 6940, Note_on_c, 1, 65, 82
3, 6946, Note_on_c, 1, 64, 0
3, 6960, Note_on_c, 1, 67, 87
3, 6963, Note_on_c, 1, 65, 0
3, 6980, Note_on_c, 1, 65, 87
3, 6984, Note_on_c, 1, 67, 0
3, 7000, Note_on_c, 1, 64, 98
3, 7002, Note_on_c, 1, 65, 0
3, 7020, Note_on_c, 1, 65, 91
3, 7023, Note_on_c, 1, 64, 0
3, 7040, Note_on_c, 1, 64, 60
3, 7046, Note_on_c, 1, 65, 0
3, 7060, Note_on_c, 1, 62, 82
3, 7062, Note_on_c, 1, 64, 0
3, 7080, Note_on_c, 1, 69, 95
3, 7086, Note_on_c, 1, 62, 0
3, 7100, Note_on_c, 1, 67, 89
3, 7106, Note_on_c, 1, 69, 0
3, 7120, Note_on_c, 1, 65, 85
3, 7126, Note_on_c, 1, 67, 0
3, 7140, Note_on_c, 1, 64, 98
3, 7141, Note_on_c, 1, 65, 0
3, 7160, Note_on_c, 1, 65, 72
3, 7161, Note_on_c, 1, 64, 0
3, 7180, Note_on_c, 1, 62, 91
3, 7184, Note_on_c, 1, 65, 0
3, 7200, Note_on_c, 1, 61, 100
3, 7204, Note_on_c, 1, 62, 0
3, 7220, Note_on_c, 1, 62, 89
3, 7224, Note_on_c, 1, 61, 0
3, 7240, Note_on_c, 1, 64, 91
3, 7246, Note_on_c, 1, 62, 0
3, 7260, Note_on_c, 1, 57, 85
3, 7261, Note_on_c, 1, 64, 0
3, 7280, Note_on_c, 1, 61, 85
3, 7286, Note_on_c, 1, 57, 0
3, 7300, Note_on_c, 1, 64, 82
3, 7304, Note_on_c, 1, 61, 0
3, 7320, Note_on_c, 1, 67, 89
3, 7325, Note_on_c, 1, 64, 0
3, 7340, Note_on_c, 1, 65, 89
3, 7343, Note_on_c, 1, 67, 0
3, 7360, Note_on_c, 1, 64, 100
3, 7361, Note_on_c, 1, 65, 0
3, 7380, Note_on_c, 1, 65, 102
3, 7384, Note_on_c, 1, 64, 0
3, 7438, Note_on_c, 1, 65, 0
3, 7440, Note_on_c, 1, 69, 91
3, 7500, Note_on_c, 1, 62, 105
3, 7502, Note_on_c, 1, 69, 0
3, 7598, Note_on_c, 1, 62, 0
3, 7620, Note_on_c, 1, 68, 98
3, 7680, Note_on_c, 1, 71, 91
3, 7682, Note_on_c, 1, 68, 0
3, 7784, Note_on_c, 1, 71, 0
3, 7800, Note_on_c, 1, 69, 85
3, 7860, Note_on_c, 1, 77, 89
3, 7861, Note_on_c, 1, 69, 0
3, 7920, Note_on_c, 1, 71, 91
3, 7926, Note_on_c, 1, 77, 0
3, 8043, Note_on_c, 1, 71, 0
3, 8160, Note_on_c, 1, 72, 87
3, 8180, Note_on_c, 1, 74, 82
3, 8184, Note_on_c, 1, 72, 0
3, 8200, Note_on_c, 1, 76, 80
3, 8201, Note_on_c, 1, 74, 0
3, 8220, Note_on_c, 1, 69, 82
3, 8222, Note_on_c, 1, 76, 0
3, 8240, Note_on_c, 1, 71, 80
3, 8244, Note_on_c, 1, 69, 0
3, 8260, Note_on_c, 1, 72, 82
3, 8265, Note_on_c, 1, 71, 0
3, 8279, Note_on_c, 1, 72, 0
3, 8280, Note_on_c, 1, 65, 66
3, 8329, Note_on_c, 1, 65, 0
3, 8340, Note_on_c, 1, 74, 100
3, 8360, Note_on_c, 1, 76, 80
3, 8365, Note_on_c, 1, 74, 0
3, 8379, Note_on_c, 1, 76, 0
3, 8380, Note_on_c, 1, 77, 100
3, 8400, Note_on_c, 1, 71, 85
3, 8403, Note_on_c, 1, 77, 0
3, 8420, Note_on_c, 1, 72, 93
3, 8424, Note_on_c, 1, 71, 0
3, 8440, Note_on_c, 1, 74, 89
3, 8444, Note_on_c, 1, 72, 0
3, 8460, Note_on_c, 1, 67, 89
3, 8462, Note_on_c, 1, 74, 0
3, 8506, Note_on_c, 1, 67, 0
3, 8520, Note_on_c, 1, 76, 105
3, 8540, Note_on_c, 1, 77, 95
3, 8543, Note_on_c, 1, 76, 0
3, 8560, Note_on_c, 1, 79, 82
3, 8560, Note_on_c, 1, 77, 0
3, 8579, Note_on_c, 1, 79, 0
3, 8580, Note_on_c, 1, 72, 107
3, 8600, Note_on_c, 1, 74, 100
3, 8604, Note_on_c, 1, 72, 0
3, 8620, Note_on_c, 1, 76, 98
3, 8625, Note_on_c, 1, 74, 0
3, 8640, Note_on_c, 1, 69, 87
3, 8641, Note_on_c, 1, 76, 0
3, 8698, Note_on_c, 1, 69, 0
3, 8700, Note_on_c, 1, 77, 110
3, 8720, Note_on_c, 1, 79, 100
3, 8724, Note_on_c, 1, 77, 0
3, 8740, Note_on_c, 1, 81, 102
3, 8742, Note_on_c, 1, 79, 0
3, 8760, Note_on_c, 1, 74, 95
3, 8762, Note_on_c, 1, 81, 0
3, 8780, Note_on_c, 1, 76, 100
3, 8784, Note_on_c, 1, 74, 0
3, 8800, Note_on_c, 1, 77, 89
3, 8802, Note_on_c, 1, 76, 0
3, 8820, Note_on_c, 1, 71, 70
3, 8820, Note_on_c, 1, 77, 0
3, 8840, Note_on_c, 1, 72, 80
3, 8844, Note_on_c, 1, 71, 0
3, 8860, Note_on_c, 1, 74, 87
3, 8863, Note_on_c, 1, 72, 0
3, 8878, Note_on_c, 1, 74, 0
3, 8880, Note_on_c, 1, 68, 93
3, 8900, Note_on_c, 1, 69, 93
3, 8902, Note_on_c, 1, 68, 0
3, 8920, Note_on_c, 1, 71, 102
3, 8925, Note_on_c, 1, 69, 0
3, 8940, Note_on_c, 1, 64, 93
3, 8940, Note_on_c, 1, 71, 0
3, 8980, Note_on_c, 1, 74, 102
3, 8983, Note_on_c, 1, 64, 0
3, 9000, Note_on_c, 1, 73, 107
3, 9003, Note_on_c, 1, 74, 0
3, 9020, Note_on_c, 1, 74, 102
3, 9024, Note_on_c, 1, 73, 0
3, 9040, Note_on_c, 1, 76, 100
3, 9041, Note_on_c, 1, 74, 0
3, 9060, Note_on_c, 1, 69, 105
3, 9062, Note_on_c, 1, 76, 0
3, 9118, Note_on_c, 1, 69, 0
3, 9180, Note_on_c, 1, 69, 98
3, 9200, Note_on_c, 1, 71, 91
3, 9204, Note_on_c, 1, 69, 0
3, 9219, Note_on_c, 1, 71, 0
3, 9220, Note_on_c, 1, 72, 91
3, 9240, Note_on_c, 1, 66, 98
3, 9243, Note_on_c, 1, 72, 0
3, 9260, Note_on_c, 1, 67, 85
3, 9262, Note_on_c, 1, 66, 0
3, 9280, Note_on_c, 1, 69, 100
3, 9285, Note_on_c, 1, 67, 0
3, 9300, Note_on_c, 1, 62, 85
3, 9300, Note_on_c, 1, 69, 0
3, 9340, Note_on_c, 1, 72, 95
3, 9342, Note_on_c, 1, 62, 0
3, 9360, Note_on_c, 1, 71, 95
3, 9364, Note_on_c, 1, 72, 0
3, 9380, Note_on_c, 1, 72, 102
3, 9384, Note_on_c, 1, 71, 0
3, 9400, Note_on_c, 1, 74, 102
3, 9401, Note_on_c, 1, 72, 0
3, 9420, Note_on_c, 1, 67, 100
3, 9423, Note_on_c, 1, 74, 0
3, 9480, Note_on_c, 1, 67, 0
3, 9540, Note_on_c, 1, 67, 100
3, 9559, Note_on_c, 1, 67, 0
3, 9560, Note_on_c, 1, 65, 100
3, 9580, Note_on_c, 1, 67, 80
3, 9585, Note_on_c, 1, 65, 0
3, 9598, Note_on_c, 1, 67, 0
3, 9600, Note_on_c, 1, 60, 85
3, 9620, Note_on_c, 1, 67, 85
3, 9623, Note_on_c, 1, 60, 0
3, 9640, Note_on_c, 1, 69, 80
3, 9642, Note_on_c, 1, 67, 0
3, 9660, Note_on_c, 1, 70, 89
3, 9662, Note_on_c, 1, 69, 0
3, 9680, Note_on_c, 1, 69, 82
3, 9680, Note_on_c, 1, 70, 0
3, 9700, Note_on_c, 1, 67, 87
3, 9703, Note_on_c, 1, 69, 0
3, 9720, Note_on_c, 1, 69, 100
3, 9723, Note_on_c, 1, 67, 0
3, 9905, Note_on_c, 1, 69, 0
3, 9920, Note_on_c, 1, 67, 100
3, 9940, Note_on_c, 1, 69, 91
3, 9943, Note_on_c, 1, 67, 0
3, 9957, Note_on_c, 1, 69, 0
3, 9960, Note_on_c, 1, 62, 85
3, 9980, Note_on_c, 1, 69, 85
3, 9985, Note_on_c, 1, 62, 0
3, 10000, Note_on_c, 1, 71, 98
3, 10004, Note_on_c, 1, 69, 0
3, 10020, Note_on_c, 1, 72, 102
3, 10024, Note_on_c, 1, 71, 0
3, 10040, Note_on_c, 1, 71, 95
3, 10043, Note_on_c, 1, 72, 0
3, 10060, Note_on_c, 1, 69, 105
3, 10063, Note_on_c, 1, 71, 0
3, 10080, Note_on_c, 1, 71, 102
3, 10086, Note_on_c, 1, 69, 0
3, 10265, Note_on_c, 1, 71, 0
3, 10280, Note_on_c, 1, 68, 105
3, 10300, Note_on_c, 1, 69, 82
3, 10302, Note_on_c, 1, 68, 0
3, 10320, Note_on_c, 1, 66, 105
3, 10324, Note_on_c, 1, 69, 0
3, 10340, Note_on_c, 1, 68, 91
3, 10345, Note_on_c, 1, 66, 0
3, 10360, Note_on_c, 1, 69, 85
3, 10366, Note_on_c, 1, 68, 0
3, 10379, Note_on_c, 1, 69, 0
3, 10380, Note_on_c, 1, 64, 82
3, 10400, Note_on_c, 1, 68, 85
3, 10406, Note_on_c, 1, 64, 0
3, 10420, Note_on_c, 1, 69, 80
3, 10422, Note_on_c, 1, 68, 0
3, 10440, Note_on_c, 1, 62, 87
3, 10441, Note_on_c, 1, 69, 0
3, 10460, Note_on_c, 1, 68, 100
3, 10464, Note_on_c, 1, 62, 0
3, 10480, Note_on_c, 1, 69, 82
3, 10484, Note_on_c, 1, 68, 0
3, 10499, Note_on_c, 1, 69, 0
3, 10500, Note_on_c, 1, 60, 87
3, 10520, Note_on_c, 1, 68, 105
3, 10523, Note_on_c, 1, 60, 0
3, 10540, Note_on_c, 1, 69, 80
3, 10543, Note_on_c, 1, 68, 0
3, 10560, Note_on_c, 1, 59, 98
3, 10560, Note_on_c, 1, 69, 0
3, 10580, Note_on_c, 1, 68, 98
3, 10588, Note_on_c, 1, 59, 0
3, 10600, Note_on_c, 1, 69, 87
3, 10601, Note_on_c, 1, 68, 0
3, 10620, Note_on_c, 1, 60, 68
3, 10622, Note_on_c, 1, 69, 0
3, 10680, Note_on_c, 1, 65, 98
3, 10687, Note_on_c, 1, 60, 0
3, 10739, Note_on_c, 1, 65, 0
3, 10740, Note_on_c, 1, 59, 87
3, 10800, Note_on_c, 1, 61, 105
3, 10803, Note_on_c, 1, 59, 0
3, 10863, Note_on_c, 1, 61, 0
3, 10980, Note_on_c, 1, 57, 87
3, 11100, Note_on_c, 1, 62, 113
3, 11101, Note_on_c, 1, 57, 0
3, 11115, Note_on_c, 1, 64, 100
3, 11116, Note_on_c, 1, 62, 0
3, 11130, Note_on_c, 1, 65, 102
3, 11130, Note_on_c, 1, 64, 0
3, 11160, Note_on_c, 1, 64, 98
3, 11170, Note_on_c, 1, 65, 0
3, 11278, Note_on_c, 1, 64, 0
3, 11280, Note_on_c, 1, 57, 107
3, 11354, Note_on_c, 1, 57, 0
3, 11370, Note_on_c, 1, 62, 100
3, 11400, Note_on_c, 1, 60, 93
3, 11404, Note_on_c, 1, 62, 0
3, 11430, Note_on_c, 1, 58, 105
3, 11438, Note_on_c, 1, 60, 0
3, 11460, Note_on_c, 1, 57, 89
3, 11464, Note_on_c, 1, 58, 0
3, 11490, Note_on_c, 1, 55, 87
3, 11491, Note_on_c, 1, 57, 0
3, 11520, Note_on_c, 1, 60, 98
3, 11522, Note_on_c, 1, 55, 0
3, 11535, Note_on_c, 1, 58, 98
3, 11537, Note_on_c, 1, 60, 0
3, 11550, Note_on_c, 1, 57, 95
3, 11555, Note_on_c, 1, 58, 0
3, 11580, Note_on_c, 1, 58, 102
3, 11583, Note_on_c, 1, 57, 0
3, 11595, Note_on_c, 1, 57, 89
3, 11598, Note_on_c, 1, 58, 0
3, 11610, Note_on_c, 1, 55, 102
3, 11616, Note_on_c, 1, 57, 0
3, 11640, Note_on_c, 1, 53, 93
3, 11642, Note_on_c, 1, 55, 0
3, 11715, Note_on_c, 1, 53, 0
3, 11730, Note_on_c, 1, 55, 102
3, 11760, Note_on_c, 1, 57, 95
3, 11764, Note_on_c, 1, 55, 0
3, 11790, Note_on_c, 1, 58, 91
3, 11794, Note_on_c, 1, 57, 0
3, 11820, Note_on_c, 1, 57, 91
3, 11825, Note_on_c, 1, 58, 0
3, 11850, Note_on_c, 1, 55, 80
3, 11855, Note_on_c, 1, 57, 0
3, 11880, Note_on_c, 1, 61, 100
3, 11883, Note_on_c, 1, 55, 0
3, 11910, Note_on_c, 1, 55, 95
3, 11913, Note_on_c, 1, 61, 0
3, 11940, Note_on_c, 1, 57, 98
3, 11943, Note_on_c, 1, 55, 0
3, 11970, Note_on_c, 1, 58, 85
3, 11975, Note_on_c, 1, 57, 0
3, 12000, Note_on_c, 1, 57, 89
3, 12005, Note_on_c, 1, 58, 0
3, 12030, Note_on_c, 1, 55, 85
3, 12030, Note_on_c, 1, 57, 0
3, 12060, Note_on_c, 1, 64, 91
3, 12060, Note_on_c, 1, 55, 0
3, 12090, Note_on_c, 1, 55, 82
3, 12091, Note_on_c, 1, 64, 0
3, 12120, Note_on_c, 1, 57, 102
3, 12123, Note_on_c, 1, 55, 0
3, 12150, Note_on_c, 1, 58, 80
3, 12153, Note_on_c, 1, 57, 0
3, 12180, Note_on_c, 1, 57, 95
3, 12182, Note_on_c, 1, 58, 0
3, 12210, Note_on_c, 1, 55, 82
3, 12214, Note_on_c, 1, 57, 0
3, 12240, Note_on_c, 1, 53, 87
3, 12240, Note_on_c, 1, 55, 0
3, 12298, Note_on_c, 1, 53, 0
3, 12300, Note_on_c, 1, 65, 100
3, 12437, Note_on_c, 1, 65, 0
3, 12450, Note_on_c, 1, 64, 105
3, 12480, Note_on_c, 1, 67, 87
3, 12482, Note_on_c, 1, 64, 0
3, 12510, Note_on_c, 1, 65, 87
3, 12514, Note_on_c, 1, 67, 0
3, 12540, Note_on_c, 1, 64, 91
3, 12544, Note_on_c, 1, 65, 0
3, 12569, Note_on_c, 1, 64, 0
3, 12570, Note_on_c, 1, 62, 76
3, 12600, Note_on_c, 1, 61, 91
3, 12604, Note_on_c, 1, 62, 0
3, 12630, Note_on_c, 1, 70, 82
3, 12633, Note_on_c, 1, 61, 0
3, 12660, Note_on_c, 1, 69, 89
3, 12661, Note_on_c, 1, 70, 0
3, 12690, Note_on_c, 1, 67, 82
3, 12694, Note_on_c, 1, 69, 0
3, 12720, Note_on_c, 1, 65, 89
3, 12726, Note_on_c, 1, 67, 0
3, 12750, Note_on_c, 1, 64, 70
3, 12750, Note_on_c, 1, 65, 0
3, 12780, Note_on_c, 1, 62, 102
3, 12787, Note_on_c, 1, 64, 0
3, 12829, Note_on_c, 1, 62, 0
3, 12840, Note_on_c, 1, 64, 100
3, 12892, Note_on_c, 1, 64, 0
3, 12900, Note_on_c, 1, 61, 102
3, 12957, Note_on_c, 1, 61, 0
3, 12960, Note_on_c, 1, 62, 91
3, 13083, Note_on_c, 1, 62, 0
3, 13140, Note_on_c, 1, 65, 78
3, 13256, Note_on_c, 1, 65, 0
3, 13260, Note_on_c, 1, 70, 100
3, 13274, Note_on_c, 1, 70, 0
3, 13275, Note_on_c, 1, 72, 80
3, 13289, Note_on_c, 1, 72, 0
3, 13290, Note_on_c, 1, 74, 95
3, 13319, Note_on_c, 1, 74, 0
3, 13320, Note_on_c, 1, 72, 102
3, 13440, Note_on_c, 1, 63, 102
3, 13440, Note_on_c, 1, 72, 0
3, 13530, Note_on_c, 1, 62, 85
3, 13530, Note_on_c, 1, 63, 0
3, 13560, Note_on_c, 1, 63, 85
3, 13562, Note_on_c, 1, 62, 0
3, 13590, Note_on_c, 1, 62, 95
3, 13595, Note_on_c, 1, 63, 0
3, 13620, Note_on_c, 1, 60, 85
3, 13622, Note_on_c, 1, 62, 0
3, 13650, Note_on_c, 1, 58, 82
3, 13656, Note_on_c, 1, 60, 0
3, 13680, Note_on_c, 1, 65, 87
3, 13683, Note_on_c, 1, 58, 0
3, 13805, Note_on_c, 1, 65, 0
3, 13860, Note_on_c, 1, 69, 82
3, 13880, Note_on_c, 1, 60, 68
3, 13884, Note_on_c, 1, 69, 0
3, 13900, Note_on_c, 1, 62, 85
3, 13904, Note_on_c, 1, 60, 0
3, 13920, Note_on_c, 1, 64, 85
3, 13925, Note_on_c, 1, 62, 0
3, 13938, Note_on_c, 1, 64, 0
3, 13940, Note_on_c, 1, 65, 89
3, 13960, Note_on_c, 1, 67, 100
3, 13964, Note_on_c, 1, 65, 0
3, 13980, Note_on_c, 1, 69, 95
3, 13985, Note_on_c, 1, 67, 0
3, 14000, Note_on_c, 1, 70, 89
3, 14006, Note_on_c, 1, 69, 0
3, 14020, Note_on_c, 1, 72, 82
3, 14024, Note_on_c, 1, 70, 0
3, 14040, Note_on_c, 1, 70, 102
3, 14042, Note_on_c, 1, 72, 0
3, 14060, Note_on_c, 1, 67, 85
3, 14062, Note_on_c, 1, 70, 0
3, 14080, Note_on_c, 1, 69, 100
3, 14083, Note_on_c, 1, 67, 0
3, 14100, Note_on_c, 1, 70, 100
3, 14103, Note_on_c, 1, 69, 0
3, 14120, Note_on_c, 1, 72, 76
3, 14121, Note_on_c, 1, 70, 0
3, 14140, Note_on_c, 1, 74, 100
3, 14142, Note_on_c, 1, 72, 0
3, 14160, Note_on_c, 1, 76, 102
3, 14166, Note_on_c, 1, 74, 0
3, 14180, Note_on_c, 1, 77, 100
3, 14182, Note_on_c, 1, 76, 0
3, 14200, Note_on_c, 1, 79, 105
3, 14203, Note_on_c, 1, 77, 0
3, 14220, Note_on_c, 1, 77, 100
3, 14226, Note_on_c, 1, 79, 0
3, 14280, Note_on_c, 1, 72, 102
3, 14286, Note_on_c, 1, 77, 0
3, 14340, Note_on_c, 1, 77, 102
3, 14342, Note_on_c, 1, 72, 0
3, 14408, Note_on_c, 1, 77, 0
3, 14420, Note_on_c, 1, 76, 100
3, 14440, Note_on_c, 1, 74, 100
3, 14445, Note_on_c, 1, 76, 0
3, 14460, Note_on_c, 1, 72, 85
3, 14463, Note_on_c, 1, 74, 0
3, 14480, Note_on_c, 1, 76, 98
3, 14485, Note_on_c, 1, 72, 0
3, 14500, Note_on_c, 1, 79, 82
3, 14503, Note_on_c, 1, 76, 0
3, 14520, Note_on_c, 1, 71, 87
3, 14525, Note_on_c, 1, 79, 0
3, 14540, Note_on_c, 1, 74, 85
3, 14546, Note_on_c, 1, 71, 0
3, 14560, Note_on_c, 1, 77, 82
3, 14564, Note_on_c, 1, 74, 0
3, 14580, Note_on_c, 1, 67, 78
3, 14580, Note_on_c, 1, 77, 0
3, 14600, Note_on_c, 1, 72, 78
3, 14603, Note_on_c, 1, 67, 0
3, 14620, Note_on_c, 1, 74, 93
3, 14623, Note_on_c, 1, 72, 0
3, 14640, Note_on_c, 1, 75, 102
3, 14644, Note_on_c, 1, 74, 0
3, 14660, Note_on_c, 1, 69, 70
3, 14661, Note_on_c, 1, 75, 0
3, 14680, Note_on_c, 1, 70, 102
3, 14684, Note_on_c, 1, 69, 0
3, 14700, Note_on_c, 1, 72, 89
3, 14700, Note_on_c, 1, 70, 0
3, 14720, Note_on_c, 1, 70, 95
3, 14726, Note_on_c, 1, 72, 0
3, 14739, Note_on_c, 1, 70, 0
3, 14740, Note_on_c, 1, 69, 82
3, 14760, Note_on_c, 1, 74, 89
3, 14762, Note_on_c, 1, 69, 0
3, 14816, Note_on_c, 1, 74, 0
3, 14820, Note_on_c, 1, 66, 105
3, 14880, Note_on_c, 1, 67, 89
3, 14881, Note_on_c, 1, 66, 0
3, 14986, Note_on_c, 1, 67, 0
3, 15000, Note_on_c, 1, 66, 105
3, 15060, Note_on_c, 1, 69, 87
3, 15062, Note_on_c, 1, 66, 0
3, 15140, Note_on_c, 1, 67, 87
3, 15140, Note_on_c, 1, 69, 0
3, 15160, Note_on_c, 1, 69, 95
3, 15165, Note_on_c, 1, 67, 0
3, 15179, Note_on_c, 1, 69, 0
3, 15180, Note_on_c, 1, 62, 87
3, 15200, Note_on_c, 1, 67, 80
3, 15205, Note_on_c, 1, 62, 0
3, 15220, Note_on_c, 1, 69, 98
3, 15225, Note_on_c, 1, 67, 0
3, 15240, Note_on_c, 1, 70, 100
3, 15242, Note_on_c, 1, 69, 0
3, 15260, Note_on_c, 1, 69, 89
3, 15266, Note_on_c, 1, 70, 0
3, 15280, Note_on_c, 1, 67, 95
3, 15281, Note_on_c, 1, 69, 0
3, 15300, Note_on_c, 1, 68, 89
3, 15301, Note_on_c, 1, 67, 0
3, 15320, Note_on_c, 1, 67, 89
3, 15322, Note_on_c, 1, 68, 0
3, 15340, Note_on_c, 1, 68, 78
3, 15340, Note_on_c, 1, 67, 0
3, 15360, Note_on_c, 1, 62, 87
3, 15360, Note_on_c, 1, 68, 0
3, 15380, Note_on_c, 1, 65, 82
3, 15384, Note_on_c, 1, 62, 0
3, 15400, Note_on_c, 1, 67, 95
3, 15406, Note_on_c, 1, 65, 0
3, 15420, Note_on_c, 1, 68, 93
3, 15426, Note_on_c, 1, 67, 0
3, 15440, Note_on_c, 1, 67, 80
3, 15447, Note_on_c, 1, 68, 0
3, 15460, Note_on_c, 1, 65, 93
3, 15463, Note_on_c, 1, 67, 0
3, 15480, Note_on_c, 1, 67, 100
3, 15484, Note_on_c, 1, 65, 0
3, 15659, Note_on_c, 1, 67, 0
3, 15680, Note_on_c, 1, 66, 100
3, 15700, Note_on_c, 1, 67, 74
3, 15702, Note_on_c, 1, 66, 0
3, 15720, Note_on_c, 1, 75, 89
3, 15721, Note_on_c, 1, 67, 0
3, 15740, Note_on_c, 1, 69, 78
3, 15742, Note_on_c, 1, 75, 0
3, 15760, Note_on_c, 1, 70, 72
3, 15768, Note_on_c, 1, 69, 0
3, 15780, Note_on_c, 1, 72, 82
3, 15783, Note_on_c, 1, 70, 0
3, 15800, Note_on_c, 1, 70, 95
3, 15809, Note_on_c, 1, 72, 0
3, 15820, Note_on_c, 1, 69, 80
3, 15821, Note_on_c, 1, 70, 0
3, 15840, Note_on_c, 1, 70, 87
3, 15843, Note_on_c, 1, 69, 0
3, 15860, Note_on_c, 1, 69, 91
3, 15863, Note_on_c, 1, 70, 0
3, 15880, Note_on_c, 1, 70, 93
3, 15884, Note_on_c, 1, 69, 0
3, 15900, Note_on_c, 1, 67, 80
3, 15901, Note_on_c, 1, 70, 0
3, 15920, Note_on_c, 1, 70, 98
3, 15923, Note_on_c, 1, 67, 0
3, 15940, Note_on_c, 1, 72, 95
3, 15943, Note_on_c, 1, 70, 0
3, 15960, Note_on_c, 1, 74, 85
3, 15964, Note_on_c, 1, 72, 0
3, 15980, Note_on_c, 1, 72, 95
3, 15985, Note_on_c, 1, 74, 0
3, 16000, Note_on_c, 1, 70, 102
3, 16001, Note_on_c, 1, 72, 0
3, 16020, Note_on_c, 1, 72, 102
3, 16022, Note_on_c, 1, 70, 0
3, 16069, Note_on_c, 1, 72, 0
3, 16080, Note_on_c, 1, 64, 98
3, 16128, Note_on_c, 1, 64, 0
3, 16140, Note_on_c, 1, 72, 102
3, 16203, Note_on_c, 1, 72, 0
3, 16220, Note_on_c, 1, 67, 102
3, 16240, Note_on_c, 1, 69, 87
3, 16243, Note_on_c, 1, 67, 0
3, 16258, Note_on_c, 1, 69, 0
3, 16260, Note_on_c, 1, 65, 78
3, 16280, Note_on_c, 1, 69, 98
3, 16285, Note_on_c, 1, 65, 0
3, 16300, Note_on_c, 1, 70, 102
3, 16305, Note_on_c, 1, 69, 0
3, 16320, Note_on_c, 1, 72, 89
3, 16324, Note_on_c, 1, 70, 0
3, 16340, Note_on_c, 1, 70, 102
3, 16344, Note_on_c, 1, 72, 0
3, 16360, Note_on_c, 1, 69, 102
3, 16361, Note_on_c, 1, 70, 0
3, 16380, Note_on_c, 1, 70, 110
3, 16386, Note_on_c, 1, 69, 0
3, 16433, Note_on_c, 1, 70, 0
3, 16440, Note_on_c, 1, 62, 91
3, 16490, Note_on_c, 1, 62, 0
3, 16500, Note_on_c, 1, 70, 100
3, 16569, Note_on_c, 1, 70, 0
3, 16580, Note_on_c, 1, 65, 100
3, 16600, Note_on_c, 1, 67, 91
3, 16603, Note_on_c, 1, 65, 0
3, 16619, Note_on_c, 1, 67, 0
3, 16620, Note_on_c, 1, 64, 85
3, 16640, Note_on_c, 1, 67, 89
3, 16642, Note_on_c, 1, 64, 0
3, 16660, Note_on_c, 1, 69, 95
3, 16663, Note_on_c, 1, 67, 0
3, 16680, Note_on_c, 1, 70, 107
3, 16683, Note_on_c, 1, 69, 0
3, 16700, Note_on_c, 1, 69, 78
3, 16703, Note_on_c, 1, 70, 0
3, 16720, Note_on_c, 1, 67, 93
3, 16721, Note_on_c, 1, 69, 0
3, 16740, Note_on_c, 1, 69, 80
3, 16744, Note_on_c, 1, 67, 0
3, 16792, Note_on_c, 1, 69, 0
3, 16800, Note_on_c, 1, 61, 76
3, 16859, Note_on_c, 1, 61, 0
3, 16860, Note_on_c, 1, 69, 91
3, 16966, Note_on_c, 1, 69, 0
3, 16980, Note_on_c, 1, 65, 110
3, 17000, Note_on_c, 1, 64, 98
3, 17003, Note_on_c, 1, 65, 0
3, 17017, Note_on_c, 1, 64, 0
3, 17020, Note_on_c, 1, 62, 89
3, 17040, Note_on_c, 1, 69, 89
3, 17045, Note_on_c, 1, 62, 0
3, 17060, Note_on_c, 1, 67, 91
3, 17065, Note_on_c, 1, 69, 0
3, 17080, Note_on_c, 1, 65, 85
3, 17082, Note_on_c, 1, 67, 0
3, 17100, Note_on_c, 1, 74, 105
3, 17103, Note_on_c, 1, 65, 0
3, 17180, Note_on_c, 1, 72, 100
3, 17184, Note_on_c, 1, 74, 0
3, 17199, Note_on_c, 1, 72, 0
3, 17200, Note_on_c, 1, 71, 89
3, 17220, Note_on_c, 1, 77, 76
3, 17220, Note_on_c, 1, 71, 0
3, 17240, Note_on_c, 1, 76, 89
3, 17247, Note_on_c, 1, 77, 0
3, 17259, Note_on_c, 1, 76, 0
3, 17260, Note_on_c, 1, 74, 85
3, 17280, Note_on_c, 1, 76, 105
3, 17284, Note_on_c, 1, 74, 0
3, 17356, Note_on_c, 1, 76, 0
3, 17360, Note_on_c, 1, 77, 100
3, 17380, Note_on_c, 1, 76, 100
3, 17384, Note_on_c, 1, 77, 0
3, 17400, Note_on_c, 1, 74, 98
3, 17404, Note_on_c, 1, 76, 0
3, 17420, Note_on_c, 1, 72, 95
3, 17425, Note_on_c, 1, 74, 0
3, 17440, Note_on_c, 1, 71, 85
3, 17441, Note_on_c, 1, 72, 0
3, 17460, Note_on_c, 1, 72, 105
3, 17461, Note_on_c, 1, 71, 0
3, 17480, Note_on_c, 1, 76, 89
3, 17484, Note_on_c, 1, 72, 0
3, 17500, Note_on_c, 1, 74, 93
3, 17504, Note_on_c, 1, 76, 0
3, 17520, Note_on_c, 1, 72, 98
3, 17525, Note_on_c, 1, 74, 0
3, 17540, Note_on_c, 1, 71, 87
3, 17543, Note_on_c, 1, 72, 0
3, 17560, Note_on_c, 1, 69, 78
3, 17561, Note_on_c, 1, 71, 0
3, 17580, Note_on_c, 1, 77, 107
3, 17581, Note_on_c, 1, 69, 0
3, 17660, Note_on_c, 1, 77, 0
3, 17670, Note_on_c, 1, 71, 100
3, 17700, Note_on_c, 1, 76, 102
3, 17704, Note_on_c, 1, 71, 0
3, 17730, Note_on_c, 1, 74, 105
3, 17734, Note_on_c, 1, 76, 0
3, 17760, Note_on_c, 1, 72, 107
3, 17763, Note_on_c, 1, 74, 0
3, 17790, Note_on_c, 1, 71, 98
3, 17792, Note_on_c, 1, 72, 0
3, 17820, Note_on_c, 1, 69, 87
3, 17821, Note_on_c, 1, 71, 0
3, 17850, Note_on_c, 1, 71, 110
3, 17856, Note_on_c, 1, 69, 0
3, 17880, Note_on_c, 1, 72, 102
3, 17883, Note_on_c, 1, 71, 0
3, 17895, Note_on_c, 1, 71, 113
3, 17898, Note_on_c, 1, 72, 0
3, 17970, Note_on_c, 1, 69, 85
3, 17973, Note_on_c, 1, 71, 0
3, 17985, Note_on_c, 1, 71, 102
3, 17986, Note_on_c, 1, 69, 0
3, 18000, Note_on_c, 1, 72, 105
3, 18004, Note_on_c, 1, 71, 0
3, 18056, Note_on_c, 1, 72, 0
3, 18090, Note_on_c, 1, 60, 100
3, 18105, Note_on_c, 1, 62, 102
3, 18107, Note_on_c, 1, 60, 0
3, 18120, Note_on_c, 1, 64, 91
3, 18127, Note_on_c, 1, 62, 0
3, 18135, Note_on_c, 1, 66, 100
3, 18140, Note_on_c, 1, 64, 0
3, 18150, Note_on_c, 1, 68, 102
3, 18154, Note_on_c, 1, 66, 0
3, 18180, Note_on_c, 1, 69, 102
3, 18183, Note_on_c, 1, 68, 0
3, 18240, Note_on_c, 1, 74, 105
3, 18248, Note_on_c, 1, 69, 0
3, 18300, Note_on_c, 1, 77, 107
3, 18305, Note_on_c, 1, 74, 0
3, 18407, Note_on_c, 1, 77, 0
3, 18420, Note_on_c, 1, 71, 107
3, 18480, Note_on_c, 1, 74, 107
3, 18480, Note_on_c, 1, 71, 0
3, 18585, Note_on_c, 1, 74, 0
3, 18600, Note_on_c, 1, 68, 105
3, 18660, Note_on_c, 1, 71, 98
3, 18661, Note_on_c, 1, 68, 0
3, 18738, Note_on_c, 1, 71, 0
3, 18750, Note_on_c, 1, 64, 87
3, 18780, Note_on_c, 1, 69, 85
3, 18783, Note_on_c, 1, 64, 0
3, 18810, Note_on_c, 1, 67, 85
3, 18815, Note_on_c, 1, 69, 0
3, 18840, Note_on_c, 1, 65, 100
3, 18847, Note_on_c, 1, 67, 0
3, 18870, Note_on_c, 1, 64, 95
3, 18875, Note_on_c, 1, 65, 0
3, 18900, Note_on_c, 1, 65, 87
3, 18901, Note_on_c, 1, 64, 0
3, 18960, Note_on_c, 1, 69, 98
3, 18962, Note_on_c, 1, 65, 0
3, 19018, Note_on_c, 1, 69, 0
3, 19020, Note_on_c, 1, 74, 89
3, 19120, Note_on_c, 1, 74, 0
3, 19140, Note_on_c, 1, 68, 89
3, 19170, Note_on_c, 1, 77, 89
3, 19171, Note_on_c, 1, 68, 0
3, 19200, Note_on_c, 1, 76, 82
3, 19202, Note_on_c, 1, 77, 0
3, 19230, Note_on_c, 1, 74, 87
3, 19236, Note_on_c, 1, 76, 0
3, 19260, Note_on_c, 1, 72, 95
3, 19263, Note_on_c, 1, 74, 0
3, 19309, Note_on_c, 1, 72, 0
3, 19320, Note_on_c, 1, 74, 105
3, 19369, Note_on_c, 1, 74, 0
3, 19380, Note_on_c, 1, 71, 105
3, 19429, Note_on_c, 1, 71, 0
3, 19440, Note_on_c, 1, 69, 102
3, 19511, Note_on_c, 1, 69, 0
3, 19640, Note_on_c, 1, 63, 72
3, 19659, Note_on_c, 1, 63, 0
3, 19660, Note_on_c, 1, 66, 78
3, 19680, Note_on_c, 1, 69, 85
3, 19684, Note_on_c, 1, 66, 0
3, 19700, Note_on_c, 1, 66, 89
3, 19704, Note_on_c, 1, 69, 0
3, 19720, Note_on_c, 1, 69, 82
3, 19722, Note_on_c, 1, 66, 0
3, 19740, Note_on_c, 1, 72, 98
3, 19743, Note_on_c, 1, 69, 0
3, 19759, Note_on_c, 1, 72, 0
3, 19760, Note_on_c, 1, 69, 64
3, 19780, Note_on_c, 1, 72, 82
3, 19785, Note_on_c, 1, 69, 0
3, 19799, Note_on_c, 1, 72, 0
3, 19800, Note_on_c, 1, 78, 102
3, 19986, Note_on_c, 1, 78, 0
3, 20000, Note_on_c, 1, 81, 102
3, 20019, Note_on_c, 1, 81, 0
3, 20020, Note_on_c, 1, 78, 100
3, 20040, Note_on_c, 1, 75, 107
3, 20042, Note_on_c, 1, 78, 0
3, 20060, Note_on_c, 1, 78, 102
3, 20065, Note_on_c, 1, 75, 0
3, 20080, Note_on_c, 1, 75, 80
3, 20082, Note_on_c, 1, 78, 0
3, 20099, Note_on_c, 1, 75, 0
3, 20100, Note_on_c, 1, 71, 87
3, 20120, Note_on_c, 1, 75, 85
3, 20122, Note_on_c, 1, 71, 0
3, 20140, Note_on_c, 1, 71, 74
3, 20144, Note_on_c, 1, 75, 0
3, 20160, Note_on_c, 1, 67, 100
3, 20161, Note_on_c, 1, 71, 0
3, 20180, Note_on_c, 1, 64, 87
3, 20182, Note_on_c, 1, 67, 0
3, 20200, Note_on_c, 1, 67, 102
3, 20204, Note_on_c, 1, 64, 0
3, 20220, Note_on_c, 1, 71, 110
3, 20223, Note_on_c, 1, 67, 0
3, 20240, Note_on_c, 1, 67, 82
3, 20240, Note_on_c, 1, 71, 0
3, 20260, Note_on_c, 1, 71, 102
3, 20262, Note_on_c, 1, 67, 0
3, 20278, Note_on_c, 1, 71, 0
3, 20280, Note_on_c, 1, 76, 98
3, 20300, Note_on_c, 1, 71, 80
3, 20300, Note_on_c, 1, 76, 0
3, 20320, Note_on_c, 1, 76, 102
3, 20323, Note_on_c, 1, 71, 0
3, 20339, Note_on_c, 1, 76, 0
3, 20340, Note_on_c, 1, 79, 105
3, 20521, Note_on_c, 1, 79, 0
3, 20540, Note_on_c, 1, 82, 89
3, 20559, Note_on_c, 1, 82, 0
3, 20560, Note_on_c, 1, 79, 78
3, 20579, Note_on_c, 1, 79, 0
3, 20580, Note_on_c, 1, 76, 78
3, 20600, Note_on_c, 1, 79, 89
3, 20603, Note_on_c, 1, 76, 0
3, 20618, Note_on_c, 1, 79, 0
3, 20620, Note_on_c, 1, 76, 82
3, 20640, Note_on_c, 1, 73, 105
3, 20643, Note_on_c, 1, 76, 0
3, 20660, Note_on_c, 1, 76, 66
3, 20662, Note_on_c, 1, 73, 0
3, 20680, Note_on_c, 1, 73, 107
3, 20681, Note_on_c, 1, 76, 0
3, 20700, Note_on_c, 1, 69, 102
3, 20702, Note_on_c, 1, 73, 0
3, 20890, Note_on_c, 1, 69, 0
3, 20900, Note_on_c, 1, 77, 102
3, 20920, Note_on_c, 1, 74, 93
3, 20922, Note_on_c, 1, 77, 0
3, 20940, Note_on_c, 1, 69, 89
3, 20942, Note_on_c, 1, 74, 0
3, 20960, Note_on_c, 1, 74, 82
3, 20963, Note_on_c, 1, 69, 0
3, 20980, Note_on_c, 1, 69, 93
3, 20983, Note_on_c, 1, 74, 0
3, 21000, Note_on_c, 1, 65, 100
3, 21001, Note_on_c, 1, 69, 0
3, 21074, Note_on_c, 1, 65, 0
3, 21080, Note_on_c, 1, 67, 105
3, 21100, Note_on_c, 1, 69, 100
3, 21100, Note_on_c, 1, 67, 0
3, 21120, Note_on_c, 1, 62, 98
3, 21121, Note_on_c, 1, 69, 0
3, 21140, Note_on_c, 1, 64, 93
3, 21145, Note_on_c, 1, 62, 0
3, 21160, Note_on_c, 1, 65, 98
3, 21165, Note_on_c, 1, 64, 0
3, 21180, Note_on_c, 1, 58, 105
3, 21182, Note_on_c, 1, 65, 0
3, 21236, Note_on_c, 1, 58, 0
3, 21240, Note_on_c, 1, 67, 113
3, 21260, Note_on_c, 1, 69, 91
3, 21263, Note_on_c, 1, 67, 0
3, 21279, Note_on_c, 1, 69, 0
3, 21280, Note_on_c, 1, 70, 107
3, 21300, Note_on_c, 1, 64, 98
3, 21302, Note_on_c, 1, 70, 0
3, 21320, Note_on_c, 1, 65, 100
3, 21325, Note_on_c, 1, 64, 0
3, 21340, Note_on_c, 1, 67, 95
3, 21343, Note_on_c, 1, 65, 0
3, 21360, Note_on_c, 1, 60, 100
3, 21362, Note_on_c, 1, 67, 0
3, 21414, Note_on_c, 1, 60, 0
3, 21420, Note_on_c, 1, 69, 100
3, 21440, Note_on_c, 1, 70, 100
3, 21443, Note_on_c, 1, 69, 0
3, 21460, Note_on_c, 1, 72, 93
3, 21461, Note_on_c, 1, 70, 0
3, 21480, Note_on_c, 1, 66, 76
3, 21480, Note_on_c, 1, 65, 105
3, 21482, Note_on_c, 1, 66, 0
3, 21483, Note_on_c, 1, 72, 0
3, 21500, Note_on_c, 1, 67, 98
3, 21503, Note_on_c, 1, 65, 0
3, 21520, Note_on_c, 1, 69, 100
3, 21521, Note_on_c, 1, 67, 0
3, 21540, Note_on_c, 1, 62, 89
3, 21542, Note_on_c, 1, 69, 0
3, 21589, Note_on_c, 1, 62, 0
3, 21600, Note_on_c, 1, 70, 107
3, 21620, Note_on_c, 1, 72, 66
3, 21623, Note_on_c, 1, 70, 0
3, 21640, Note_on_c, 1, 74, 87
3, 21642, Note_on_c, 1, 72, 0
3, 21660, Note_on_c, 1, 67, 72
3, 21662, Note_on_c, 1, 74, 0
3, 21680, Note_on_c, 1, 69, 91
3, 21684, Note_on_c, 1, 67, 0
3, 21700, Note_on_c, 1, 70, 98
3, 21704, Note_on_c, 1, 69, 0
3, 21720, Note_on_c, 1, 64, 85
3, 21722, Note_on_c, 1, 70, 0
3, 21760, Note_on_c, 1, 74, 98
3, 21763, Note_on_c, 1, 64, 0
3, 21780, Note_on_c, 1, 73, 107
3, 21782, Note_on_c, 1, 74, 0
3, 21800, Note_on_c, 1, 74, 100
3, 21805, Note_on_c, 1, 73, 0
3, 21820, Note_on_c, 1, 76, 91
3, 21822, Note_on_c, 1, 74, 0
3, 21840, Note_on_c, 1, 69, 89
3, 21842, Note_on_c, 1, 76, 0
3, 21898, Note_on_c, 1, 69, 0
3, 21960, Note_on_c, 1, 69, 102
3, 21980, Note_on_c, 1, 71, 98
3, 21986, Note_on_c, 1, 69, 0
3, 21999, Note_on_c, 1, 71, 0
3, 22000, Note_on_c, 1, 72, 102
3, 22020, Note_on_c, 1, 66, 105
3, 22021, Note_on_c, 1, 72, 0
3, 22040, Note_on_c, 1, 67, 87
3, 22043, Note_on_c, 1, 66, 0
3, 22060, Note_on_c, 1, 69, 95
3, 22064, Note_on_c, 1, 67, 0
3, 22079, Note_on_c, 1, 69, 0
3, 22080, Note_on_c, 1, 62, 80
3, 22116, Note_on_c, 1, 62, 0
3, 22120, Note_on_c, 1, 72, 107
3, 22140, Note_on_c, 1, 71, 102
3, 22144, Note_on_c, 1, 72, 0
3, 22160, Note_on_c, 1, 72, 102
3, 22166, Note_on_c, 1, 71, 0
3, 22180, Note_on_c, 1, 74, 105
3, 22182, Note_on_c, 1, 72, 0
3, 22200, Note_on_c, 1, 67, 95
3, 22202, Note_on_c, 1, 74, 0
3, 22260, Note_on_c, 1, 67, 0
3, 22320, Note_on_c, 1, 67, 105
3, 22340, Note_on_c, 1, 69, 85
3, 22343, Note_on_c, 1, 67, 0
3, 22359, Note_on_c, 1, 69, 0
3, 22360, Note_on_c, 1, 70, 98
3, 22380, Note_on_c, 1, 64, 85
3, 22380, Note_on_c, 1, 70, 0
3, 22400, Note_on_c, 1, 65, 85
3, 22405, Note_on_c, 1, 64, 0
3, 22420, Note_on_c, 1, 67, 85
3, 22422, Note_on_c, 1, 65, 0
3, 22440, Note_on_c, 1, 60, 82
3, 22442, Note_on_c, 1, 67, 0
3, 22480, Note_on_c, 1, 70, 95
3, 22481, Note_on_c, 1, 60, 0
3, 22500, Note_on_c, 1, 69, 93
3, 22504, Note_on_c, 1, 70, 0
3, 22681, Note_on_c, 1, 69, 0
3, 22700, Note_on_c, 1, 67, 87
3, 22720, Note_on_c, 1, 69, 89
3, 22725, Note_on_c, 1, 67, 0
3, 22737, Note_on_c, 1, 69, 0
3, 22740, Note_on_c, 1, 62, 87
3, 22760, Note_on_c, 1, 69, 85
3, 22762, Note_on_c, 1, 62, 0
3, 22780, Note_on_c, 1, 70, 93
3, 22784, Note_on_c, 1, 69, 0
3, 22800, Note_on_c, 1, 72, 89
3, 22801, Note_on_c, 1, 70, 0
3, 22820, Note_on_c, 1, 70, 100
3, 22823, Note_on_c, 1, 72, 0
3, 22840, Note_on_c, 1, 69, 102
3, 22842, Note_on_c, 1, 70, 0
3, 22860, Note_on_c, 1, 70, 102
3, 22866, Note_on_c, 1, 69, 0
3, 23043, Note_on_c, 1, 70, 0
3, 23060, Note_on_c, 1, 69, 102
3, 23080, Note_on_c, 1, 70, 100
3, 23082, Note_on_c, 1, 69, 0
3, 23100, Note_on_c, 1, 64, 102
3, 23103, Note_on_c, 1, 70, 0
3, 23120, Note_on_c, 1, 67, 87
3, 23124, Note_on_c, 1, 64, 0
3, 23140, Note_on_c, 1, 69, 100
3, 23145, Note_on_c, 1, 67, 0
3, 23160, Note_on_c, 1, 70, 102
3, 23163, Note_on_c, 1, 69, 0
3, 23180, Note_on_c, 1, 69, 89
3, 23184, Note_on_c, 1, 70, 0
3, 23200, Note_on_c, 1, 67, 98
3, 23205, Note_on_c, 1, 69, 0
3, 23220, Note_on_c, 1, 65, 89
3, 23221, Note_on_c, 1, 67, 0
3, 23800, Note_on_c, 1, 65, 0
3, 23820, Note_on_c, 1, 67, 100
3, 23880, Note_on_c, 1, 64, 102
3, 23881, Note_on_c, 1, 67, 0
3, 23940, Note_on_c, 1, 65, 95
3, 23944, Note_on_c, 1, 64, 0
3, 23983, Note_on_c, 1, 65, 0
3, 24000, Note_on_c, 1, 69, 102
3, 24060, Note_on_c, 1, 60, 98
3, 24060, Note_on_c, 1, 69, 0
3, 24160, Note_on_c, 1, 60, 0
3, 24180, Note_on_c, 1, 64, 100
3, 24240, Note_on_c, 1, 67, 102
3, 24245, Note_on_c, 1, 64, 0
3, 24319, Note_on_c, 1, 67, 0
3, 24360, Note_on_c, 1, 65, 93
3, 24420, Note_on_c, 1, 74, 100
3, 24422, Note_on_c, 1, 65, 0
3, 24480, Note_on_c, 1, 67, 95
3, 24484, Note_on_c, 1, 74, 0
3, 24609, Note_on_c, 1, 67, 0
3, 24660, Note_on_c, 1, 67, 95
3, 24678, Note_on_c, 1, 67, 0
3, 24680, Note_on_c, 1, 66, 89
3, 24700, Note_on_c, 1, 67, 82
3, 24705, Note_on_c, 1, 66, 0
3, 24717, Note_on_c, 1, 67, 0
3, 24720, Note_on_c, 1, 62, 85
3, 24740, Note_on_c, 1, 67, 70
3, 24740, Note_on_c, 1, 62, 0
3, 24760, Note_on_c, 1, 69, 78
3, 24762, Note_on_c, 1, 67, 0
3, 24780, Note_on_c, 1, 70, 87
3, 24783, Note_on_c, 1, 69, 0
3, 24800, Note_on_c, 1, 69, 82
3, 24804, Note_on_c, 1, 70, 0
3, 24820, Note_on_c, 1, 67, 76
3, 24823, Note_on_c, 1, 69, 0
3, 24840, Note_on_c, 1, 69, 85
3, 24842, Note_on_c, 1, 67, 0
3, 24860, Note_on_c, 1, 67, 82
3, 24863, Note_on_c, 1, 69, 0
3, 24880, Note_on_c, 1, 69, 78
3, 24884, Note_on_c, 1, 67, 0
3, 24900, Note_on_c, 1, 62, 78
3, 24904, Note_on_c, 1, 69, 0
3, 24920, Note_on_c, 1, 69, 68
3, 24921, Note_on_c, 1, 62, 0
3, 24940, Note_on_c, 1, 70, 80
3, 24943, Note_on_c, 1, 69, 0
3, 24960, Note_on_c, 1, 72, 82
3, 24961, Note_on_c, 1, 70, 0
3, 24980, Note_on_c, 1, 70, 80
3, 24985, Note_on_c, 1, 72, 0
3, 25000, Note_on_c, 1, 69, 80
3, 25004, Note_on_c, 1, 70, 0
3, 25020, Note_on_c, 1, 70, 87
3, 25023, Note_on_c, 1, 69, 0
3, 25040, Note_on_c, 1, 69, 82
3, 25047, Note_on_c, 1, 70, 0
3, 25060, Note_on_c, 1, 67, 78
3, 25061, Note_on_c, 1, 69, 0
3, 25080, Note_on_c, 1, 74, 91
3, 25083, Note_on_c, 1, 67, 0
3, 25100, Note_on_c, 1, 72, 85
3, 25105, Note_on_c, 1, 74, 0
3, 25120, Note_on_c, 1, 70, 89
3, 25124, Note_on_c, 1, 72, 0
3, 25140, Note_on_c, 1, 69, 82
3, 25143, Note_on_c, 1, 70, 0
3, 25160, Note_on_c, 1, 70, 74
3, 25164, Note_on_c, 1, 69, 0
3, 25180, Note_on_c, 1, 67, 70
3, 25180, Note_on_c, 1, 70, 0
3, 25200, Note_on_c, 1, 66, 98
3, 25205, Note_on_c, 1, 67, 0
3, 25220, Note_on_c, 1, 67, 82
3, 25224, Note_on_c, 1, 66, 0
3, 25240, Note_on_c, 1, 69, 91
3, 25244, Note_on_c, 1, 67, 0
3, 25258, Note_on_c, 1, 69, 0
3, 25260, Note_on_c, 1, 62, 87
3, 25280, Note_on_c, 1, 66, 74
3, 25282, Note_on_c, 1, 62, 0
3, 25300, Note_on_c, 1, 69, 78
3, 25303, Note_on_c, 1, 66, 0
3, 25320, Note_on_c, 1, 72, 82
3, 25323, Note_on_c, 1, 69, 0
3, 25340, Note_on_c, 1, 70, 102
3, 25344, Note_on_c, 1, 72, 0
3, 25360, Note_on_c, 1, 69, 87
3, 25361, Note_on_c, 1, 70, 0
3, 25380, Note_on_c, 1, 70, 100
3, 25380, Note_on_c, 1, 69, 0
3, 25440, Note_on_c, 1, 72, 100
3, 25440, Note_on_c, 1, 70, 0
3, 25500, Note_on_c, 1, 74, 98
3, 25507, Note_on_c, 1, 72, 0
3, 25551, Note_on_c, 1, 74, 0
3, 25560, Note_on_c, 1, 75, 89
3, 25619, Note_on_c, 1, 75, 0
3, 25620, Note_on_c, 1, 74, 95
3, 25679, Note_on_c, 1, 74, 0
3, 25680, Note_on_c, 1, 72, 98
3, 25737, Note_on_c, 1, 72, 0
3, 25740, Note_on_c, 1, 74, 100
3, 25770, Note_on_c, 1, 67, 91
3, 25770, Note_on_c, 1, 74, 0
3, 25800, Note_on_c, 1, 70, 102
3, 25802, Note_on_c, 1, 67, 0
3, 25830, Note_on_c, 1, 69, 100
3, 25835, Note_on_c, 1, 70, 0
3, 25860, Note_on_c, 1, 67, 87
3, 25861, Note_on_c, 1, 69, 0
3, 25890, Note_on_c, 1, 66, 102
3, 25896, Note_on_c, 1, 67, 0
3, 25920, Note_on_c, 1, 67, 100
3, 25925, Note_on_c, 1, 66, 0
3, 26039, Note_on_c, 1, 67, 0
3, 27540, Note_on_c, 1, 64, 78
3, 27660, Note_on_c, 1, 69, 107
3, 27664, Note_on_c, 1, 64, 0
3, 27675, Note_on_c, 1, 71, 100
3, 27675, Note_on_c, 1, 69, 0
3, 27688, Note_on_c, 1, 71, 0
3, 27690, Note_on_c, 1, 72, 107
3, 27720, Note_on_c, 1, 71, 105
3, 27724, Note_on_c, 1, 72, 0
3, 27840, Note_on_c, 1, 64, 113
3, 27843, Note_on_c, 1, 71, 0
3, 27917, Note_on_c, 1, 64, 0
3, 27930, Note_on_c, 1, 69, 105
3, 27960, Note_on_c, 1, 67, 95
3, 27961, Note_on_c, 1, 69, 0
3, 27990, Note_on_c, 1, 65, 105
3, 27995, Note_on_c, 1, 67, 0
3, 28020, Note_on_c, 1, 64, 100
3, 28026, Note_on_c, 1, 65, 0
3, 28050, Note_on_c, 1, 62, 87
3, 28055, Note_on_c, 1, 64, 0
3, 28080, Note_on_c, 1, 67, 105
3, 28081, Note_on_c, 1, 62, 0
3, 28095, Note_on_c, 1, 65, 100
3, 28099, Note_on_c, 1, 67, 0
3, 28110, Note_on_c, 1, 64, 98
3, 28112, Note_on_c, 1, 65, 0
3, 28138, Note_on_c, 1, 64, 0
3, 28140, Note_on_c, 1, 65, 93
3, 28155, Note_on_c, 1, 64, 102
3, 28161, Note_on_c, 1, 65, 0
3, 28170, Note_on_c, 1, 62, 110
3, 28174, Note_on_c, 1, 64, 0
3, 28200, Note_on_c, 1, 60, 98
3, 28202, Note_on_c, 1, 62, 0
3, 28267, Note_on_c, 1, 60, 0
3, 28290, Note_on_c, 1, 62, 98
3, 28320, Note_on_c, 1, 64, 89
3, 28327, Note_on_c, 1, 62, 0
3, 28350, Note_on_c, 1, 65, 87
3, 28353, Note_on_c, 1, 64, 0
3, 28380, Note_on_c, 1, 64, 89
3, 28385, Note_on_c, 1, 65, 0
3, 28410, Note_on_c, 1, 62, 87
3, 28415, Note_on_c, 1, 64, 0
3, 28440, Note_on_c, 1, 68, 93
3, 28443, Note_on_c, 1, 62, 0
3, 28470, Note_on_c, 1, 62, 89
3, 28474, Note_on_c, 1, 68, 0
3, 28500, Note_on_c, 1, 64, 87
3, 28502, Note_on_c, 1, 62, 0
3, 28530, Note_on_c, 1, 65, 87
3, 28535, Note_on_c, 1, 64, 0
3, 28560, Note_on_c, 1, 64, 85
3, 28563, Note_on_c, 1, 65, 0
3, 28590, Note_on_c, 1, 62, 87
3, 28593, Note_on_c, 1, 64, 0
3, 28620, Note_on_c, 1, 71, 89
3, 28621, Note_on_c, 1, 62, 0
3, 28650, Note_on_c, 1, 62, 89
3, 28654, Note_on_c, 1, 71, 0
3, 28680, Note_on_c, 1, 64, 87
3, 28685, Note_on_c, 1, 62, 0
3, 28710, Note_on_c, 1, 65, 78
3, 28716, Note_on_c, 1, 64, 0
3, 28740, Note_on_c, 1, 64, 87
3, 28747, Note_on_c, 1, 65, 0
3, 28770, Note_on_c, 1, 62, 89
3, 28779, Note_on_c, 1, 64, 0
3, 28800, Note_on_c, 1, 60, 80
3, 28802, Note_on_c, 1, 62, 0
3, 28830, Note_on_c, 1, 59, 85
3, 28835, Note_on_c, 1, 60, 0
3, 28860, Note_on_c, 1, 62, 85
3, 28864, Note_on_c, 1, 59, 0
3, 28890, Note_on_c, 1, 60, 80
3, 28896, Note_on_c, 1, 62, 0
3, 28920, Note_on_c, 1, 59, 76
3, 28926, Note_on_c, 1, 60, 0
3, 28950, Note_on_c, 1, 57, 85
3, 28952, Note_on_c, 1, 59, 0
3, 28980, Note_on_c, 1, 58, 89
3, 28986, Note_on_c, 1, 57, 0
3, 29028, Note_on_c, 1, 58, 0
3, 29040, Note_on_c, 1, 70, 91
3, 29164, Note_on_c, 1, 70, 0
3, 29180, Note_on_c, 1, 69, 100
3, 29200, Note_on_c, 1, 67, 100
3, 29203, Note_on_c, 1, 69, 0
3, 29220, Note_on_c, 1, 69, 100
3, 29224, Note_on_c, 1, 67, 0
3, 29240, Note_on_c, 1, 67, 85
3, 29244, Note_on_c, 1, 69, 0
3, 29260, Note_on_c, 1, 66, 93
3, 29264, Note_on_c, 1, 67, 0
3, 29280, Note_on_c, 1, 64, 87
3, 29280, Note_on_c, 1, 66, 0
3, 29300, Note_on_c, 1, 66, 100
3, 29305, Note_on_c, 1, 64, 0
3, 29320, Note_on_c, 1, 67, 87
3, 29320, Note_on_c, 1, 66, 0
3, 29340, Note_on_c, 1, 57, 93
3, 29345, Note_on_c, 1, 67, 0
3, 29392, Note_on_c, 1, 57, 0
3, 29400, Note_on_c, 1, 74, 95
3, 29529, Note_on_c, 1, 74, 0
3, 29540, Note_on_c, 1, 72, 102
3, 29560, Note_on_c, 1, 71, 102
3, 29562, Note_on_c, 1, 72, 0
3, 29580, Note_on_c, 1, 72, 91
3, 29583, Note_on_c, 1, 71, 0
3, 29600, Note_on_c, 1, 71, 87
3, 29606, Note_on_c, 1, 72, 0
3, 29620, Note_on_c, 1, 69, 80
3, 29621, Note_on_c, 1, 71, 0
3, 29640, Note_on_c, 1, 68, 91
3, 29643, Note_on_c, 1, 69, 0
3, 29660, Note_on_c, 1, 69, 89
3, 29665, Note_on_c, 1, 68, 0
3, 29680, Note_on_c, 1, 71, 89
3, 29683, Note_on_c, 1, 69, 0
3, 29700, Note_on_c, 1, 60, 87
3, 29703, Note_on_c, 1, 71, 0
3, 29748, Note_on_c, 1, 60, 0
3, 29760, Note_on_c, 1, 77, 102
3, 29890, Note_on_c, 1, 77, 0
3, 29900, Note_on_c, 1, 76, 100
3, 29920, Note_on_c, 1, 74, 105
3, 29922, Note_on_c, 1, 76, 0
3, 29940, Note_on_c, 1, 76, 98
3, 29944, Note_on_c, 1, 74, 0
3, 29960, Note_on_c, 1, 74, 98
3, 29965, Note_on_c, 1, 76, 0
3, 29980, Note_on_c, 1, 73, 91
3, 29984, Note_on_c, 1, 74, 0
3, 30000, Note_on_c, 1, 71, 78
3, 30001, Note_on_c, 1, 73, 0
3, 30020, Note_on_c, 1, 73, 100
3, 30026, Note_on_c, 1, 71, 0
3, 30040, Note_on_c, 1, 74, 91
3, 30042, Note_on_c, 1, 73, 0
3, 30060, Note_on_c, 1, 64, 85
3, 30064, Note_on_c, 1, 74, 0
3, 30114, Note_on_c, 1, 64, 0
3, 30120, Note_on_c, 1, 81, 91
3, 30252, Note_on_c, 1, 81, 0
3, 30260, Note_on_c, 1, 79, 100
3, 30280, Note_on_c, 1, 77, 89
3, 30283, Note_on_c, 1, 79, 0
3, 30300, Note_on_c, 1, 82, 76
3, 30304, Note_on_c, 1, 77, 0
3, 30320, Note_on_c, 1, 81, 87
3, 30326, Note_on_c, 1, 82, 0
3, 30340, Note_on_c, 1, 79, 89
3, 30345, Note_on_c, 1, 81, 0
3, 30360, Note_on_c, 1, 77, 100
3, 30361, Note_on_c, 1, 79, 0
3, 30380, Note_on_c, 1, 79, 70
3, 30385, Note_on_c, 1, 77, 0
3, 30399, Note_on_c, 1, 79, 0
3, 30400, Note_on_c, 1, 76, 87
3, 30420, Note_on_c, 1, 77, 91
3, 30425, Note_on_c, 1, 76, 0
3, 30450, Note_on_c, 1, 76, 85
3, 30456, Note_on_c, 1, 77, 0
3, 30480, Note_on_c, 1, 74, 95
3, 30484, Note_on_c, 1, 76, 0
3, 30510, Note_on_c, 1, 72, 80
3, 30511, Note_on_c, 1, 74, 0
3, 30540, Note_on_c, 1, 70, 102
3, 30545, Note_on_c, 1, 72, 0
3, 30620, Note_on_c, 1, 70, 0
3, 30630, Note_on_c, 1, 64, 66
3, 30660, Note_on_c, 1, 69, 98
3, 30662, Note_on_c, 1, 64, 0
3, 30690, Note_on_c, 1, 67, 85
3, 30693, Note_on_c, 1, 69, 0
3, 30720, Note_on_c, 1, 65, 74
3, 30722, Note_on_c, 1, 67, 0
3, 30750, Note_on_c, 1, 64, 100
3, 30758, Note_on_c, 1, 65, 0
3, 30780, Note_on_c, 1, 62, 102
3, 30784, Note_on_c, 1, 64, 0
3, 30810, Note_on_c, 1, 64, 100
3, 30816, Note_on_c, 1, 62, 0
3, 30840, Note_on_c, 1, 65, 85
3, 30840, Note_on_c, 1, 64, 0
3, 30855, Note_on_c, 1, 64, 102
3, 30862, Note_on_c, 1, 65, 0
3, 30924, Note_on_c, 1, 64, 0
3, 30930, Note_on_c, 1, 62, 100
3, 30945, Note_on_c, 1, 64, 100
3, 30950, Note_on_c, 1, 62, 0
3, 30960, Note_on_c, 1, 65, 89
3, 30964, Note_on_c, 1, 64, 0
3, 31034, Note_on_c, 1, 65, 0
3, 31050, Note_on_c, 1, 69, 93
3, 31080, Note_on_c, 1, 73, 93
3, 31084, Note_on_c, 1, 69, 0
3, 31110, Note_on_c, 1, 76, 85
3, 31112, Note_on_c, 1, 73, 0
3, 31140, Note_on_c, 1, 74, 95
3, 31144, Note_on_c, 1, 76, 0
3, 31198, Note_on_c, 1, 74, 0
3, 31200, Note_on_c, 1, 62, 95
3, 31258, Note_on_c, 1, 62, 0
3, 31260, Note_on_c, 1, 70, 100
3, 31361, Note_on_c, 1, 70, 0
3, 31380, Note_on_c, 1, 64, 89
3, 31440, Note_on_c, 1, 67, 95
3, 31440, Note_on_c, 1, 64, 0
3, 31533, Note_on_c, 1, 67, 0
3, 31560, Note_on_c, 1, 61, 113
3, 31620, Note_on_c, 1, 64, 87
3, 31621, Note_on_c, 1, 61, 0
3, 31695, Note_on_c, 1, 64, 0
3, 31710, Note_on_c, 1, 57, 80
3, 31740, Note_on_c, 1, 62, 91
3, 31743, Note_on_c, 1, 57, 0
3, 31770, Note_on_c, 1, 60, 87
3, 31773, Note_on_c, 1, 62, 0
3, 31800, Note_on_c, 1, 58, 107
3, 31807, Note_on_c, 1, 60, 0
3, 31830, Note_on_c, 1, 57, 82
3, 31832, Note_on_c, 1, 58, 0
3, 31860, Note_on_c, 1, 58, 98
3, 31860, Note_on_c, 1, 57, 0
3, 31919, Note_on_c, 1, 58, 0
3, 31920, Note_on_c, 1, 62, 98
3, 31980, Note_on_c, 1, 67, 89
3, 31982, Note_on_c, 1, 62, 0
3, 32082, Note_on_c, 1, 67, 0
3, 32100, Note_on_c, 1, 61, 91
3, 32130, Note_on_c, 1, 70, 89
3, 32135, Note_on_c, 1, 61, 0
3, 32159, Note_on_c, 1, 70, 0
3, 32160, Note_on_c, 1, 69, 85
3, 32190, Note_on_c, 1, 67, 91
3, 32195, Note_on_c, 1, 69, 0
3, 32220, Note_on_c, 1, 65, 87
3, 32223, Note_on_c, 1, 67, 0
3, 32269, Note_on_c, 1, 65, 0
3, 32280, Note_on_c, 1, 67, 89
3, 32329, Note_on_c, 1, 67, 0
3, 32340, Note_on_c, 1, 64, 102
3, 32389, Note_on_c, 1, 64, 0
3, 32400, Note_on_c, 1, 65, 100
3, 32539, Note_on_c, 1, 65, 0
3, 32580, End_track
4, 0, Start_track
4, 0, MIDI_port, 0
4, 0, Title_t, ""
4, 0, Control_c, 2, 10, 64
4, 180, Note_on_c, 2, 50, 90
4, 240, Note_on_c, 2, 62, 90
4, 243, Note_on_c, 2, 50, 0
4, 289, Note_on_c, 2, 62, 0
4, 300, Note_on_c, 2, 62, 90
4, 360, Note_on_c, 2, 60, 90
4, 363, Note_on_c, 2, 62, 0
4, 412, Note_on_c, 2, 60, 0
4, 420, Note_on_c, 2, 60, 90
4, 475, Note_on_c, 2, 60, 0
4, 480, Note_on_c, 2, 60, 90
4, 540, Note_on_c, 2, 58, 90
4, 543, Note_on_c, 2, 60, 0
4, 591, Note_on_c, 2, 58, 0
4, 600, Note_on_c, 2, 58, 90
4, 649, Note_on_c, 2, 58, 0
4, 660, Note_on_c, 2, 58, 90
4, 720, Note_on_c, 2, 57, 90
4, 723, Note_on_c, 2, 58, 0
4, 775, Note_on_c, 2, 57, 0
4, 780, Note_on_c, 2, 57, 90
4, 832, Note_on_c, 2, 57, 0
4, 840, Note_on_c, 2, 57, 90
4, 899, Note_on_c, 2, 57, 0
4, 900, Note_on_c, 2, 58, 90
4, 960, Note_on_c, 2, 55, 90
4, 963, Note_on_c, 2, 58, 0
4, 1018, Note_on_c, 2, 55, 0
4, 1020, Note_on_c, 2, 52, 90
4, 1080, Note_on_c, 2, 57, 90
4, 1081, Note_on_c, 2, 52, 0
4, 1140, Note_on_c, 2, 45, 90
4, 1143, Note_on_c, 2, 57, 0
4, 1200, Note_on_c, 2, 47, 90
4, 1203, Note_on_c, 2, 45, 0
4, 1260, Note_on_c, 2, 49, 90
4, 1267, Note_on_c, 2, 47, 0
4, 1320, Note_on_c, 2, 45, 90
4, 1321, Note_on_c, 2, 49, 0
4, 1380, Note_on_c, 2, 49, 90
4, 1386, Note_on_c, 2, 45, 0
4, 1440, Note_on_c, 2, 50, 90
4, 1443, Note_on_c, 2, 49, 0
4, 1500, Note_on_c, 2, 48, 90
4, 1504, Note_on_c, 2, 50, 0
4, 1560, Note_on_c, 2, 47, 90
4, 1564, Note_on_c, 2, 48, 0
4, 1620, Note_on_c, 2, 45, 90
4, 1623, Note_on_c, 2, 47, 0
4, 1680, Note_on_c, 2, 57, 90
4, 1682, Note_on_c, 2, 45, 0
4, 1727, Note_on_c, 2, 57, 0
4, 1740, Note_on_c, 2, 57, 90
4, 1800, Note_on_c, 2, 55, 90
4, 1805, Note_on_c, 2, 57, 0
4, 1846, Note_on_c, 2, 55, 0
4, 1860, Note_on_c, 2, 55, 90
4, 1911, Note_on_c, 2, 55, 0
4, 1920, Note_on_c, 2, 55, 90
4, 1980, Note_on_c, 2, 53, 90
4, 1982, Note_on_c, 2, 55, 0
4, 2031, Note_on_c, 2, 53, 0
4, 2040, Note_on_c, 2, 53, 90
4, 2090, Note_on_c, 2, 53, 0
4, 2100, Note_on_c, 2, 53, 90
4, 2160, Note_on_c, 2, 52, 90
4, 2165, Note_on_c, 2, 53, 0
4, 2214, Note_on_c, 2, 52, 0
4, 2220, Note_on_c, 2, 52, 90
4, 2268, Note_on_c, 2, 52, 0
4, 2280, Note_on_c, 2, 52, 90
4, 2336, Note_on_c, 2, 52, 0
4, 2340, Note_on_c, 2, 53, 90
4, 2400, Note_on_c, 2, 50, 90
4, 2407, Note_on_c, 2, 53, 0
4, 2460, Note_on_c, 2, 47, 90
4, 2462, Note_on_c, 2, 50, 0
4, 2519, Note_on_c, 2, 47, 0
4, 2520, Note_on_c, 2, 52, 90
4, 2580, Note_on_c, 2, 40, 90
4, 2582, Note_on_c, 2, 52, 0
4, 2640, Note_on_c, 2, 42, 90
4, 2646, Note_on_c, 2, 40, 0
4, 2700, Note_on_c, 2, 44, 90
4, 2702, Note_on_c, 2, 42, 0
4, 2760, Note_on_c, 2, 40, 90
4, 2766, Note_on_c, 2, 44, 0
4, 2820, Note_on_c, 2, 44, 90
4, 2824, Note_on_c, 2, 40, 0
4, 2880, Note_on_c, 2, 45, 90
4, 2885, Note_on_c, 2, 44, 0
4, 2940, Note_on_c, 2, 47, 90
4, 2944, Note_on_c, 2, 45, 0
4, 3000, Note_on_c, 2, 48, 90
4, 3001, Note_on_c, 2, 47, 0
4, 3060, Note_on_c, 2, 50, 90
4, 3061, Note_on_c, 2, 48, 0
4, 3120, Note_on_c, 2, 52, 90
4, 3124, Note_on_c, 2, 50, 0
4, 3180, Note_on_c, 2, 53, 90
4, 3184, Note_on_c, 2, 52, 0
4, 3240, Note_on_c, 2, 52, 90
4, 3244, Note_on_c, 2, 53, 0
4, 3300, Note_on_c, 2, 54, 90
4, 3304, Note_on_c, 2, 52, 0
4, 3360, Note_on_c, 2, 55, 90
4, 3361, Note_on_c, 2, 54, 0
4, 3420, Note_on_c, 2, 54, 90
4, 3423, Note_on_c, 2, 55, 0
4, 3480, Note_on_c, 2, 56, 90
4, 3484, Note_on_c, 2, 54, 0
4, 3540, Note_on_c, 2, 57, 90
4, 3546, Note_on_c, 2, 56, 0
4, 3600, Note_on_c, 2, 56, 90
4, 3604, Note_on_c, 2, 57, 0
4, 3660, Note_on_c, 2, 57, 90
4, 3664, Note_on_c, 2, 56, 0
4, 3720, Note_on_c, 2, 59, 90
4, 3722, Note_on_c, 2, 57, 0
4, 3780, Note_on_c, 2, 57, 90
4, 3783, Note_on_c, 2, 59, 0
4, 3840, Note_on_c, 2, 59, 90
4, 3844, Note_on_c, 2, 57, 0
4, 3900, Note_on_c, 2, 60, 90
4, 3906, Note_on_c, 2, 59, 0
4, 3960, Note_on_c, 2, 59, 90
4, 3962, Note_on_c, 2, 60, 0
4, 4020, Note_on_c, 2, 61, 90
4, 4021, Note_on_c, 2, 59, 0
4, 4080, Note_on_c, 2, 62, 90
4, 4083, Note_on_c, 2, 61, 0
4, 4140, Note_on_c, 2, 61, 90
4, 4144, Note_on_c, 2, 62, 0
4, 4200, Note_on_c, 2, 57, 90
4, 4203, Note_on_c, 2, 61, 0
4, 4260, Note_on_c, 2, 55, 90
4, 4265, Note_on_c, 2, 57, 0
4, 4320, Note_on_c, 2, 53, 90
4, 4326, Note_on_c, 2, 55, 0
4, 4380, Note_on_c, 2, 55, 90
4, 4383, Note_on_c, 2, 53, 0
4, 4440, Note_on_c, 2, 57, 90
4, 4443, Note_on_c, 2, 55, 0
4, 4500, Note_on_c, 2, 50, 90
4, 4501, Note_on_c, 2, 57, 0
4, 4560, Note_on_c, 2, 62, 90
4, 4562, Note_on_c, 2, 50, 0
4, 4602, Note_on_c, 2, 62, 0
4, 4620, Note_on_c, 2, 62, 90
4, 4673, Note_on_c, 2, 62, 0
4, 4680, Note_on_c, 2, 60, 90
4, 4729, Note_on_c, 2, 60, 0
4, 4740, Note_on_c, 2, 60, 90
4, 4785, Note_on_c, 2, 60, 0
4, 4800, Note_on_c, 2, 60, 90
4, 4852, Note_on_c, 2, 60, 0
4, 4860, Note_on_c, 2, 58, 90
4, 4904, Note_on_c, 2, 58, 0
4, 4920, Note_on_c, 2, 58, 90
4, 4964, Note_on_c, 2, 58, 0
4, 4980, Note_on_c, 2, 58, 90
4, 5036, Note_on_c, 2, 58, 0
4, 5040, Note_on_c, 2, 57, 90
4, 5082, Note_on_c, 2, 57, 0
4, 5100, Note_on_c, 2, 57, 90
4, 5139, Note_on_c, 2, 57, 0
4, 5160, Note_on_c, 2, 57, 90
4, 5220, Note_on_c, 2, 58, 90
4, 5220, Note_on_c, 2, 57, 0
4, 5280, Note_on_c, 2, 55, 90
4, 5280, Note_on_c, 2, 58, 0
4, 5340, Note_on_c, 2, 52, 90
4, 5344, Note_on_c, 2, 55, 0
4, 5400, Note_on_c, 2, 57, 90
4, 5400, Note_on_c, 2, 52, 0
4, 5460, Note_on_c, 2, 45, 90
4, 5468, Note_on_c, 2, 57, 0
4, 5520, Note_on_c, 2, 47, 90
4, 5523, Note_on_c, 2, 45, 0
4, 5580, Note_on_c, 2, 49, 90
4, 5582, Note_on_c, 2, 47, 0
4, 5640, Note_on_c, 2, 45, 90
4, 5641, Note_on_c, 2, 49, 0
4, 5700, Note_on_c, 2, 49, 90
4, 5701, Note_on_c, 2, 45, 0
4, 5760, Note_on_c, 2, 50, 90
4, 5760, Note_on_c, 2, 49, 0
4, 5820, Note_on_c, 2, 38, 90
4, 5822, Note_on_c, 2, 50, 0
4, 5880, Note_on_c, 2, 50, 90
4, 5882, Note_on_c, 2, 38, 0
4, 5940, Note_on_c, 2, 43, 90
4, 5944, Note_on_c, 2, 50, 0
4, 6000, Note_on_c, 2, 46, 90
4, 6001, Note_on_c, 2, 43, 0
4, 6060, Note_on_c, 2, 43, 90
4, 6061, Note_on_c, 2, 46, 0
4, 6120, Note_on_c, 2, 45, 90
4, 6121, Note_on_c, 2, 43, 0
4, 6248, Note_on_c, 2, 45, 0
4, 6300, Note_on_c, 2, 46, 90
4, 6360, Note_on_c, 2, 43, 90
4, 6362, Note_on_c, 2, 46, 0
4, 6420, Note_on_c, 2, 45, 90
4, 6422, Note_on_c, 2, 43, 0
4, 6480, Note_on_c, 2, 38, 90
4, 6484, Note_on_c, 2, 45, 0
4, 6540, Note_on_c, 2, 41, 90
4, 6544, Note_on_c, 2, 38, 0
4, 6600, Note_on_c, 2, 45, 90
4, 6605, Note_on_c, 2, 41, 0
4, 6658, Note_on_c, 2, 45, 0
4, 6660, Note_on_c, 2, 50, 90
4, 6713, Note_on_c, 2, 50, 0
4, 6840, Note_on_c, 2, 49, 90
4, 6900, Note_on_c, 2, 49, 0
4, 7020, Note_on_c, 2, 50, 90
4, 7080, Note_on_c, 2, 41, 90
4, 7086, Note_on_c, 2, 50, 0
4, 7140, Note_on_c, 2, 43, 90
4, 7141, Note_on_c, 2, 41, 0
4, 7200, Note_on_c, 2, 45, 90
4, 7202, Note_on_c, 2, 43, 0
4, 7260, Note_on_c, 2, 49, 90
4, 7260, Note_on_c, 2, 45, 0
4, 7320, Note_on_c, 2, 45, 90
4, 7320, Note_on_c, 2, 49, 0
4, 7380, Note_on_c, 2, 50, 90
4, 7382, Note_on_c, 2, 45, 0
4, 7448, Note_on_c, 2, 50, 0
4, 7560, Note_on_c, 2, 44, 90
4, 7627, Note_on_c, 2, 44, 0
4, 7740, Note_on_c, 2, 45, 90
4, 7800, Note_on_c, 2, 48, 90
4, 7801, Note_on_c, 2, 45, 0
4, 7860, Note_on_c, 2, 50, 90
4, 7861, Note_on_c, 2, 48, 0
4, 7917, Note_on_c, 2, 50, 0
4, 7920, Note_on_c, 2, 52, 90
4, 7980, Note_on_c, 2, 44, 90
4, 7987, Note_on_c, 2, 52, 0
4, 8040, Note_on_c, 2, 40, 90
4, 8042, Note_on_c, 2, 44, 0
4, 8100, Note_on_c, 2, 45, 90
4, 8102, Note_on_c, 2, 40, 0
4, 8147, Note_on_c, 2, 45, 0
4, 8160, Note_on_c, 2, 45, 90
4, 8209, Note_on_c, 2, 45, 0
4, 8220, Note_on_c, 2, 45, 90
4, 8272, Note_on_c, 2, 45, 0
4, 8280, Note_on_c, 2, 47, 90
4, 8327, Note_on_c, 2, 47, 0
4, 8340, Note_on_c, 2, 47, 90
4, 8391, Note_on_c, 2, 47, 0
4, 8400, Note_on_c, 2, 47, 90
4, 8458, Note_on_c, 2, 47, 0
4, 8460, Note_on_c, 2, 48, 90
4, 8507, Note_on_c, 2, 48, 0
4, 8520, Note_on_c, 2, 48, 90
4, 8564, Note_on_c, 2, 48, 0
4, 8580, Note_on_c, 2, 48, 90
4, 8640, Note_on_c, 2, 50, 90
4, 8642, Note_on_c, 2, 48, 0
4, 8692, Note_on_c, 2, 50, 0
4, 8700, Note_on_c, 2, 50, 90
4, 8746, Note_on_c, 2, 50, 0
4, 8760, Note_on_c, 2, 50, 90
4, 8812, Note_on_c, 2, 50, 0
4, 8820, Note_on_c, 2, 52, 90
4, 8888, Note_on_c, 2, 52, 0
4, 8940, Note_on_c, 2, 56, 90
4, 9000, Note_on_c, 2, 57, 90
4, 9003, Note_on_c, 2, 56, 0
4, 9069, Note_on_c, 2, 57, 0
4, 9120, Note_on_c, 2, 49, 90
4, 9180, Note_on_c, 2, 50, 90
4, 9182, Note_on_c, 2, 49, 0
4, 9243, Note_on_c, 2, 50, 0
4, 9300, Note_on_c, 2, 54, 90
4, 9360, Note_on_c, 2, 55, 90
4, 9364, Note_on_c, 2, 54, 0
4, 9423, Note_on_c, 2, 55, 0
4, 9480, Note_on_c, 2, 47, 90
4, 9540, Note_on_c, 2, 48, 90
4, 9546, Note_on_c, 2, 47, 0
4, 9591, Note_on_c, 2, 48, 0
4, 9600, Note_on_c, 2, 48, 90
4, 9645, Note_on_c, 2, 48, 0
4, 9660, Note_on_c, 2, 48, 90
4, 9720, Note_on_c, 2, 49, 90
4, 9724, Note_on_c, 2, 48, 0
4, 9770, Note_on_c, 2, 49, 0
4, 9780, Note_on_c, 2, 49, 90
4, 9828, Note_on_c, 2, 49, 0
4, 9840, Note_on_c, 2, 49, 90
4, 9899, Note_on_c, 2, 49, 0
4, 9900, Note_on_c, 2, 50, 90
4, 9944, Note_on_c, 2, 50, 0
4, 9960, Note_on_c, 2, 50, 90
4, 10008, Note_on_c, 2, 50, 0
4, 10020, Note_on_c, 2, 50, 90
4, 10080, Note_on_c, 2, 44, 90
4, 10083, Note_on_c, 2, 50, 0
4, 10129, Note_on_c, 2, 44, 0
4, 10140, Note_on_c, 2, 44, 90
4, 10186, Note_on_c, 2, 44, 0
4, 10200, Note_on_c, 2, 44, 90
4, 10260, Note_on_c, 2, 45, 90
4, 10260, Note_on_c, 2, 44, 0
4, 10319, Note_on_c, 2, 45, 0
4, 10320, Note_on_c, 2, 47, 90
4, 10380, Note_on_c, 2, 48, 90
4, 10386, Note_on_c, 2, 47, 0
4, 10438, Note_on_c, 2, 48, 0
4, 10440, Note_on_c, 2, 50, 90
4, 10500, Note_on_c, 2, 52, 90
4, 10502, Note_on_c, 2, 50, 0
4, 10560, Note_on_c, 2, 53, 90
4, 10565, Note_on_c, 2, 52, 0
4, 10620, Note_on_c, 2, 52, 90
4, 10623, Note_on_c, 2, 53, 0
4, 10680, Note_on_c, 2, 50, 90
4, 10687, Note_on_c, 2, 52, 0
4, 10739, Note_on_c, 2, 50, 0
4, 10740, Note_on_c, 2, 52, 90
4, 10800, Note_on_c, 2, 45, 90
4, 10803, Note_on_c, 2, 52, 0
4, 10859, Note_on_c, 2, 45, 0
4, 10860, Note_on_c, 2, 57, 90
4, 10920, Note_on_c, 2, 55, 90
4, 10921, Note_on_c, 2, 57, 0
4, 10980, Note_on_c, 2, 53, 90
4, 10986, Note_on_c, 2, 55, 0
4, 11040, Note_on_c, 2, 62, 90
4, 11045, Note_on_c, 2, 53, 0
4, 11089, Note_on_c, 2, 62, 0
4, 11100, Note_on_c, 2, 62, 90
4, 11154, Note_on_c, 2, 62, 0
4, 11160, Note_on_c, 2, 60, 90
4, 11202, Note_on_c, 2, 60, 0
4, 11220, Note_on_c, 2, 60, 90
4, 11267, Note_on_c, 2, 60, 0
4, 11280, Note_on_c, 2, 60, 90
4, 11332, Note_on_c, 2, 60, 0
4, 11340, Note_on_c, 2, 58, 90
4, 11390, Note_on_c, 2, 58, 0
4, 11400, Note_on_c, 2, 58, 90
4, 11443, Note_on_c, 2, 58, 0
4, 11460, Note_on_c, 2, 58, 90
4, 11510, Note_on_c, 2, 58, 0
4, 11520, Note_on_c, 2, 57, 90
4, 11562, Note_on_c, 2, 57, 0
4, 11580, Note_on_c, 2, 57, 90
4, 11623, Note_on_c, 2, 57, 0
4, 11640, Note_on_c, 2, 57, 90
4, 11692, Note_on_c, 2, 57, 0
4, 11700, Note_on_c, 2, 58, 90
4, 11760, Note_on_c, 2, 55, 90
4, 11765, Note_on_c, 2, 58, 0
4, 11820, Note_on_c, 2, 52, 90
4, 11823, Note_on_c, 2, 55, 0
4, 11879, Note_on_c, 2, 52, 0
4, 11880, Note_on_c, 2, 57, 90
4, 11940, Note_on_c, 2, 45, 90
4, 11941, Note_on_c, 2, 57, 0
4, 12000, Note_on_c, 2, 47, 90
4, 12002, Note_on_c, 2, 45, 0
4, 12060, Note_on_c, 2, 49, 90
4, 12066, Note_on_c, 2, 47, 0
4, 12120, Note_on_c, 2, 45, 90
4, 12120, Note_on_c, 2, 49, 0
4, 12180, Note_on_c, 2, 49, 90
4, 12180, Note_on_c, 2, 45, 0
4, 12240, Note_on_c, 2, 50, 90
4, 12241, Note_on_c, 2, 49, 0
4, 12299, Note_on_c, 2, 50, 0
4, 12300, Note_on_c, 2, 38, 90
4, 12360, Note_on_c, 2, 50, 90
4, 12362, Note_on_c, 2, 38, 0
4, 12420, Note_on_c, 2, 43, 90
4, 12425, Note_on_c, 2, 50, 0
4, 12480, Note_on_c, 2, 46, 90
4, 12485, Note_on_c, 2, 43, 0
4, 12540, Note_on_c, 2, 43, 90
4, 12543, Note_on_c, 2, 46, 0
4, 12600, Note_on_c, 2, 45, 90
4, 12605, Note_on_c, 2, 43, 0
4, 12724, Note_on_c, 2, 45, 0
4, 12780, Note_on_c, 2, 46, 90
4, 12840, Note_on_c, 2, 43, 90
4, 12841, Note_on_c, 2, 46, 0
4, 12900, Note_on_c, 2, 45, 90
4, 12902, Note_on_c, 2, 43, 0
4, 12960, Note_on_c, 2, 38, 90
4, 12965, Note_on_c, 2, 45, 0
4, 13017, Note_on_c, 2, 38, 0
4, 13020, Note_on_c, 2, 50, 90
4, 13080, Note_on_c, 2, 48, 90
4, 13081, Note_on_c, 2, 50, 0
4, 13140, Note_on_c, 2, 46, 90
4, 13148, Note_on_c, 2, 48, 0
4, 13195, Note_on_c, 2, 46, 0
4, 13200, Note_on_c, 2, 46, 90
4, 13246, Note_on_c, 2, 46, 0
4, 13260, Note_on_c, 2, 46, 90
4, 13310, Note_on_c, 2, 46, 0
4, 13320, Note_on_c, 2, 46, 90
4, 13372, Note_on_c, 2, 46, 0
4, 13380, Note_on_c, 2, 46, 90
4, 13430, Note_on_c, 2, 46, 0
4, 13440, Note_on_c, 2, 46, 90
4, 13490, Note_on_c, 2, 46, 0
4, 13500, Note_on_c, 2, 46, 90
4, 13560, Note_on_c, 2, 45, 90
4, 13560, Note_on_c, 2, 46, 0
4, 13620, Note_on_c, 2, 43, 90
4, 13623, Note_on_c, 2, 45, 0
4, 13680, Note_on_c, 2, 41, 90
4, 13682, Note_on_c, 2, 43, 0
4, 13740, Note_on_c, 2, 45, 90
4, 13743, Note_on_c, 2, 41, 0
4, 13800, Note_on_c, 2, 48, 90
4, 13805, Note_on_c, 2, 45, 0
4, 13860, Note_on_c, 2, 53, 90
4, 13862, Note_on_c, 2, 48, 0
4, 13912, Note_on_c, 2, 53, 0
4, 13920, Note_on_c, 2, 53, 90
4, 13970, Note_on_c, 2, 53, 0
4, 13980, Note_on_c, 2, 53, 90
4, 14032, Note_on_c, 2, 53, 0
4, 14040, Note_on_c, 2, 53, 90
4, 14095, Note_on_c, 2, 53, 0
4, 14100, Note_on_c, 2, 53, 90
4, 14149, Note_on_c, 2, 53, 0
4, 14160, Note_on_c, 2, 53, 90
4, 14213, Note_on_c, 2, 53, 0
4, 14220, Note_on_c, 2, 53, 90
4, 14280, Note_on_c, 2, 52, 90
4, 14283, Note_on_c, 2, 53, 0
4, 14340, Note_on_c, 2, 50, 90
4, 14342, Note_on_c, 2, 52, 0
4, 14400, Note_on_c, 2, 48, 90
4, 14402, Note_on_c, 2, 50, 0
4, 14460, Note_on_c, 2, 52, 90
4, 14464, Note_on_c, 2, 48, 0
4, 14520, Note_on_c, 2, 55, 90
4, 14527, Note_on_c, 2, 52, 0
4, 14579, Note_on_c, 2, 55, 0
4, 14580, Note_on_c, 2, 60, 90
4, 14640, Note_on_c, 2, 58, 90
4, 14647, Note_on_c, 2, 60, 0
4, 14700, Note_on_c, 2, 57, 90
4, 14702, Note_on_c, 2, 58, 0
4, 14760, Note_on_c, 2, 58, 90
4, 14763, Note_on_c, 2, 57, 0
4, 14820, Note_on_c, 2, 57, 90
4, 14824, Note_on_c, 2, 58, 0
4, 14880, Note_on_c, 2, 55, 90
4, 14882, Note_on_c, 2, 57, 0
4, 14940, Note_on_c, 2, 57, 90
4, 14944, Note_on_c, 2, 55, 0
4, 15000, Note_on_c, 2, 60, 90
4, 15000, Note_on_c, 2, 57, 0
4, 15060, Note_on_c, 2, 54, 90
4, 15065, Note_on_c, 2, 60, 0
4, 15120, Note_on_c, 2, 55, 90
4, 15121, Note_on_c, 2, 54, 0
4, 15180, Note_on_c, 2, 53, 90
4, 15184, Note_on_c, 2, 55, 0
4, 15240, Note_on_c, 2, 51, 90
4, 15246, Note_on_c, 2, 53, 0
4, 15300, Note_on_c, 2, 53, 90
4, 15305, Note_on_c, 2, 51, 0
4, 15360, Note_on_c, 2, 51, 90
4, 15363, Note_on_c, 2, 53, 0
4, 15418, Note_on_c, 2, 51, 0
4, 15420, Note_on_c, 2, 50, 90
4, 15480, Note_on_c, 2, 51, 90
4, 15486, Note_on_c, 2, 50, 0
4, 15540, Note_on_c, 2, 60, 90
4, 15546, Note_on_c, 2, 51, 0
4, 15600, Note_on_c, 2, 45, 90
4, 15601, Note_on_c, 2, 60, 0
4, 15660, Note_on_c, 2, 46, 90
4, 15662, Note_on_c, 2, 45, 0
4, 15720, Note_on_c, 2, 48, 90
4, 15729, Note_on_c, 2, 46, 0
4, 15780, Note_on_c, 2, 50, 90
4, 15784, Note_on_c, 2, 48, 0
4, 15840, Note_on_c, 2, 43, 90
4, 15845, Note_on_c, 2, 50, 0
4, 15900, Note_on_c, 2, 55, 90
4, 15903, Note_on_c, 2, 43, 0
4, 15960, Note_on_c, 2, 53, 90
4, 15962, Note_on_c, 2, 55, 0
4, 16020, Note_on_c, 2, 52, 90
4, 16025, Note_on_c, 2, 53, 0
4, 16080, Note_on_c, 2, 48, 90
4, 16089, Note_on_c, 2, 52, 0
4, 16139, Note_on_c, 2, 48, 0
4, 16140, Note_on_c, 2, 52, 90
4, 16200, Note_on_c, 2, 41, 90
4, 16201, Note_on_c, 2, 52, 0
4, 16260, Note_on_c, 2, 53, 90
4, 16265, Note_on_c, 2, 41, 0
4, 16320, Note_on_c, 2, 52, 90
4, 16322, Note_on_c, 2, 53, 0
4, 16380, Note_on_c, 2, 50, 90
4, 16381, Note_on_c, 2, 52, 0
4, 16440, Note_on_c, 2, 46, 90
4, 16446, Note_on_c, 2, 50, 0
4, 16500, Note_on_c, 2, 50, 90
4, 16501, Note_on_c, 2, 46, 0
4, 16560, Note_on_c, 2, 40, 90
4, 16561, Note_on_c, 2, 50, 0
4, 16620, Note_on_c, 2, 52, 90
4, 16621, Note_on_c, 2, 40, 0
4, 16680, Note_on_c, 2, 50, 90
4, 16685, Note_on_c, 2, 52, 0
4, 16740, Note_on_c, 2, 49, 90
4, 16743, Note_on_c, 2, 50, 0
4, 16800, Note_on_c, 2, 45, 90
4, 16805, Note_on_c, 2, 49, 0
4, 16858, Note_on_c, 2, 45, 0
4, 16860, Note_on_c, 2, 49, 90
4, 16920, Note_on_c, 2, 38, 90
4, 16920, Note_on_c, 2, 49, 0
4, 16976, Note_on_c, 2, 38, 0
4, 16980, Note_on_c, 2, 50, 90
4, 17040, Note_on_c, 2, 48, 90
4, 17048, Note_on_c, 2, 50, 0
4, 17100, Note_on_c, 2, 47, 90
4, 17106, Note_on_c, 2, 48, 0
4, 17160, Note_on_c, 2, 48, 90
4, 17168, Note_on_c, 2, 47, 0
4, 17219, Note_on_c, 2, 48, 0
4, 17220, Note_on_c, 2, 50, 90
4, 17280, Note_on_c, 2, 44, 90
4, 17284, Note_on_c, 2, 50, 0
4, 17340, Note_on_c, 2, 40, 90
4, 17345, Note_on_c, 2, 44, 0
4, 17400, Note_on_c, 2, 44, 90
4, 17406, Note_on_c, 2, 40, 0
4, 17460, Note_on_c, 2, 45, 90
4, 17467, Note_on_c, 2, 44, 0
4, 17520, Note_on_c, 2, 57, 90
4, 17522, Note_on_c, 2, 45, 0
4, 17569, Note_on_c, 2, 57, 0
4, 17580, Note_on_c, 2, 57, 90
4, 17634, Note_on_c, 2, 57, 0
4, 17640, Note_on_c, 2, 55, 90
4, 17691, Note_on_c, 2, 55, 0
4, 17700, Note_on_c, 2, 55, 90
4, 17753, Note_on_c, 2, 55, 0
4, 17760, Note_on_c, 2, 55, 90
4, 17820, Note_on_c, 2, 53, 90
4, 17822, Note_on_c, 2, 55, 0
4, 17868, Note_on_c, 2, 53, 0
4, 17880, Note_on_c, 2, 53, 90
4, 17927, Note_on_c, 2, 53, 0
4, 17940, Note_on_c, 2, 53, 90
4, 18000, Note_on_c, 2, 52, 90
4, 18002, Note_on_c, 2, 53, 0
4, 18050, Note_on_c, 2, 52, 0
4, 18060, Note_on_c, 2, 52, 90
4, 18110, Note_on_c, 2, 52, 0
4, 18120, Note_on_c, 2, 52, 90
4, 18180, Note_on_c, 2, 53, 90
4, 18184, Note_on_c, 2, 52, 0
4, 18240, Note_on_c, 2, 50, 90
4, 18240, Note_on_c, 2, 53, 0
4, 18300, Note_on_c, 2, 47, 90
4, 18306, Note_on_c, 2, 50, 0
4, 18360, Note_on_c, 2, 52, 90
4, 18361, Note_on_c, 2, 47, 0
4, 18420, Note_on_c, 2, 40, 90
4, 18423, Note_on_c, 2, 52, 0
4, 18480, Note_on_c, 2, 42, 90
4, 18484, Note_on_c, 2, 40, 0
4, 18540, Note_on_c, 2, 44, 90
4, 18545, Note_on_c, 2, 42, 0
4, 18600, Note_on_c, 2, 40, 90
4, 18602, Note_on_c, 2, 44, 0
4, 18660, Note_on_c, 2, 44, 90
4, 18666, Note_on_c, 2, 40, 0
4, 18719, Note_on_c, 2, 44, 0
4, 18720, Note_on_c, 2, 45, 90
4, 18780, Note_on_c, 2, 48, 90
4, 18784, Note_on_c, 2, 45, 0
4, 18840, Note_on_c, 2, 45, 90
4, 18841, Note_on_c, 2, 48, 0
4, 18900, Note_on_c, 2, 50, 90
4, 18903, Note_on_c, 2, 45, 0
4, 18960, Note_on_c, 2, 53, 90
4, 18961, Note_on_c, 2, 50, 0
4, 19020, Note_on_c, 2, 50, 90
4, 19025, Note_on_c, 2, 53, 0
4, 19080, Note_on_c, 2, 52, 90
4, 19083, Note_on_c, 2, 50, 0
4, 19213, Note_on_c, 2, 52, 0
4, 19260, Note_on_c, 2, 53, 90
4, 19309, Note_on_c, 2, 53, 0
4, 19320, Note_on_c, 2, 50, 90
4, 19369, Note_on_c, 2, 50, 0
4, 19380, Note_on_c, 2, 52, 90
4, 19429, Note_on_c, 2, 52, 0
4, 19440, Note_on_c, 2, 45, 90
4, 19500, Note_on_c, 2, 57, 90
4, 19501, Note_on_c, 2, 45, 0
4, 19560, Note_on_c, 2, 55, 90
4, 19561, Note_on_c, 2, 57, 0
4, 19620, Note_on_c, 2, 54, 90
4, 19628, Note_on_c, 2, 55, 0
4, 19740, Note_on_c, 2, 52, 90
4, 19743, Note_on_c, 2, 54, 0
4, 19800, Note_on_c, 2, 51, 90
4, 19803, Note_on_c, 2, 52, 0
4, 19920, Note_on_c, 2, 54, 90
4, 19920, Note_on_c, 2, 51, 0
4, 19978, Note_on_c, 2, 54, 0
4, 19980, Note_on_c, 2, 43, 90
4, 20040, Note_on_c, 2, 45, 90
4, 20049, Note_on_c, 2, 43, 0
4, 20100, Note_on_c, 2, 47, 90
4, 20105, Note_on_c, 2, 45, 0
4, 20160, Note_on_c, 2, 40, 90
4, 20160, Note_on_c, 2, 47, 0
4, 20220, Note_on_c, 2, 43, 90
4, 20228, Note_on_c, 2, 40, 0
4, 20280, Note_on_c, 2, 47, 90
4, 20285, Note_on_c, 2, 43, 0
4, 20340, Note_on_c, 2, 52, 90
4, 20341, Note_on_c, 2, 47, 0
4, 20460, Note_on_c, 2, 50, 90
4, 20463, Note_on_c, 2, 52, 0
4, 20520, Note_on_c, 2, 49, 90
4, 20524, Note_on_c, 2, 50, 0
4, 20640, Note_on_c, 2, 52, 90
4, 20646, Note_on_c, 2, 49, 0
4, 20699, Note_on_c, 2, 52, 0
4, 20700, Note_on_c, 2, 41, 90
4, 20760, Note_on_c, 2, 43, 90
4, 20763, Note_on_c, 2, 41, 0
4, 20820, Note_on_c, 2, 45, 90
4, 20823, Note_on_c, 2, 43, 0
4, 20880, Note_on_c, 2, 38, 90
4, 20881, Note_on_c, 2, 45, 0
4, 20940, Note_on_c, 2, 41, 90
4, 20941, Note_on_c, 2, 38, 0
4, 21000, Note_on_c, 2, 45, 90
4, 21008, Note_on_c, 2, 41, 0
4, 21060, Note_on_c, 2, 50, 90
4, 21068, Note_on_c, 2, 45, 0
4, 21106, Note_on_c, 2, 50, 0
4, 21120, Note_on_c, 2, 50, 90
4, 21168, Note_on_c, 2, 50, 0
4, 21180, Note_on_c, 2, 50, 90
4, 21240, Note_on_c, 2, 52, 90
4, 21243, Note_on_c, 2, 50, 0
4, 21285, Note_on_c, 2, 52, 0
4, 21300, Note_on_c, 2, 52, 90
4, 21350, Note_on_c, 2, 52, 0
4, 21360, Note_on_c, 2, 52, 90
4, 21420, Note_on_c, 2, 53, 90
4, 21425, Note_on_c, 2, 52, 0
4, 21468, Note_on_c, 2, 53, 0
4, 21480, Note_on_c, 2, 53, 90
4, 21529, Note_on_c, 2, 53, 0
4, 21540, Note_on_c, 2, 53, 90
4, 21600, Note_on_c, 2, 55, 90
4, 21600, Note_on_c, 2, 53, 0
4, 21651, Note_on_c, 2, 55, 0
4, 21660, Note_on_c, 2, 55, 90
4, 21711, Note_on_c, 2, 55, 0
4, 21720, Note_on_c, 2, 55, 90
4, 21780, Note_on_c, 2, 57, 90
4, 21780, Note_on_c, 2, 55, 0
4, 21846, Note_on_c, 2, 57, 0
4, 21900, Note_on_c, 2, 49, 90
4, 21960, Note_on_c, 2, 50, 90
4, 21966, Note_on_c, 2, 49, 0
4, 22024, Note_on_c, 2, 50, 0
4, 22080, Note_on_c, 2, 54, 90
4, 22138, Note_on_c, 2, 54, 0
4, 22140, Note_on_c, 2, 55, 90
4, 22206, Note_on_c, 2, 55, 0
4, 22260, Note_on_c, 2, 47, 90
4, 22320, Note_on_c, 2, 48, 90
4, 22326, Note_on_c, 2, 47, 0
4, 22394, Note_on_c, 2, 48, 0
4, 22440, Note_on_c, 2, 52, 90
4, 22500, Note_on_c, 2, 53, 90
4, 22503, Note_on_c, 2, 52, 0
4, 22544, Note_on_c, 2, 53, 0
4, 22560, Note_on_c, 2, 53, 90
4, 22613, Note_on_c, 2, 53, 0
4, 22620, Note_on_c, 2, 53, 90
4, 22680, Note_on_c, 2, 54, 90
4, 22686, Note_on_c, 2, 53, 0
4, 22728, Note_on_c, 2, 54, 0
4, 22740, Note_on_c, 2, 54, 90
4, 22788, Note_on_c, 2, 54, 0
4, 22800, Note_on_c, 2, 54, 90
4, 22860, Note_on_c, 2, 55, 90
4, 22868, Note_on_c, 2, 54, 0
4, 22908, Note_on_c, 2, 55, 0
4, 22920, Note_on_c, 2, 55, 90
4, 22960, Note_on_c, 2, 55, 0
4, 22980, Note_on_c, 2, 55, 90
4, 23040, Note_on_c, 2, 49, 90
4, 23045, Note_on_c, 2, 55, 0
4, 23090, Note_on_c, 2, 49, 0
4, 23100, Note_on_c, 2, 49, 90
4, 23149, Note_on_c, 2, 49, 0
4, 23160, Note_on_c, 2, 49, 90
4, 23220, Note_on_c, 2, 50, 90
4, 23223, Note_on_c, 2, 49, 0
4, 23280, Note_on_c, 2, 48, 90
4, 23282, Note_on_c, 2, 50, 0
4, 23340, Note_on_c, 2, 46, 90
4, 23342, Note_on_c, 2, 48, 0
4, 23400, Note_on_c, 2, 45, 90
4, 23400, Note_on_c, 2, 46, 0
4, 23460, Note_on_c, 2, 41, 90
4, 23464, Note_on_c, 2, 45, 0
4, 23520, Note_on_c, 2, 45, 90
4, 23527, Note_on_c, 2, 41, 0
4, 23580, Note_on_c, 2, 46, 90
4, 23584, Note_on_c, 2, 45, 0
4, 23640, Note_on_c, 2, 43, 90
4, 23643, Note_on_c, 2, 46, 0
4, 23700, Note_on_c, 2, 46, 90
4, 23700, Note_on_c, 2, 43, 0
4, 23760, Note_on_c, 2, 48, 90
4, 23764, Note_on_c, 2, 46, 0
4, 23820, Note_on_c, 2, 46, 90
4, 23820, Note_on_c, 2, 48, 0
4, 23880, Note_on_c, 2, 48, 90
4, 23887, Note_on_c, 2, 46, 0
4, 23940, Note_on_c, 2, 41, 90
4, 23940, Note_on_c, 2, 48, 0
4, 24009, Note_on_c, 2, 41, 0
4, 24120, Note_on_c, 2, 40, 90
4, 24190, Note_on_c, 2, 40, 0
4, 24300, Note_on_c, 2, 41, 90
4, 24360, Note_on_c, 2, 45, 90
4, 24362, Note_on_c, 2, 41, 0
4, 24420, Note_on_c, 2, 46, 90
4, 24423, Note_on_c, 2, 45, 0
4, 24480, Note_on_c, 2, 48, 90
4, 24480, Note_on_c, 2, 46, 0
4, 24540, Note_on_c, 2, 40, 90
4, 24543, Note_on_c, 2, 48, 0
4, 24600, Note_on_c, 2, 42, 90
4, 24604, Note_on_c, 2, 40, 0
4, 24660, Note_on_c, 2, 43, 90
4, 24661, Note_on_c, 2, 42, 0
4, 24724, Note_on_c, 2, 43, 0
4, 24840, Note_on_c, 2, 42, 90
4, 24903, Note_on_c, 2, 42, 0
4, 25020, Note_on_c, 2, 43, 90
4, 25080, Note_on_c, 2, 46, 90
4, 25086, Note_on_c, 2, 43, 0
4, 25140, Note_on_c, 2, 48, 90
4, 25143, Note_on_c, 2, 46, 0
4, 25200, Note_on_c, 2, 50, 90
4, 25202, Note_on_c, 2, 48, 0
4, 25260, Note_on_c, 2, 54, 90
4, 25262, Note_on_c, 2, 50, 0
4, 25320, Note_on_c, 2, 50, 90
4, 25321, Note_on_c, 2, 54, 0
4, 25380, Note_on_c, 2, 55, 90
4, 25386, Note_on_c, 2, 50, 0
4, 25440, Note_on_c, 2, 57, 90
4, 25442, Note_on_c, 2, 55, 0
4, 25500, Note_on_c, 2, 58, 90
4, 25505, Note_on_c, 2, 57, 0
4, 25560, Note_on_c, 2, 48, 90
4, 25561, Note_on_c, 2, 58, 0
4, 25619, Note_on_c, 2, 48, 0
4, 25620, Note_on_c, 2, 50, 90
4, 25680, Note_on_c, 2, 51, 90
4, 25682, Note_on_c, 2, 50, 0
4, 25740, Note_on_c, 2, 50, 90
4, 25748, Note_on_c, 2, 51, 0
4, 25800, Note_on_c, 2, 48, 90
4, 25801, Note_on_c, 2, 50, 0
4, 25860, Note_on_c, 2, 50, 90
4, 25862, Note_on_c, 2, 48, 0
4, 25920, Note_on_c, 2, 43, 90
4, 25923, Note_on_c, 2, 50, 0
4, 25950, Note_on_c, 2, 55, 90
4, 25952, Note_on_c, 2, 43, 0
4, 25980, Note_on_c, 2, 53, 90
4, 25986, Note_on_c, 2, 55, 0
4, 26000, Note_on_c, 2, 55, 90
4, 26002, Note_on_c, 2, 53, 0
4, 26020, Note_on_c, 2, 52, 90
4, 26023, Note_on_c, 2, 55, 0
4, 26040, Note_on_c, 2, 52, 90
4, 26040, Note_on_c, 2, 52, 0
4, 26060, Note_on_c, 2, 53, 90
4, 26061, Note_on_c, 2, 52, 0
4, 26080, Note_on_c, 2, 50, 90
4, 26082, Note_on_c, 2, 53, 0
4, 26090, Note_on_c, 2, 50, 0
4, 26100, Note_on_c, 2, 50, 90
4, 26160, Note_on_c, 2, 62, 90
4, 26164, Note_on_c, 2, 50, 0
4, 26214, Note_on_c, 2, 62, 0
4, 26220, Note_on_c, 2, 62, 90
4, 26280, Note_on_c, 2, 60, 90
4, 26286, Note_on_c, 2, 62, 0
4, 26327, Note_on_c, 2, 60, 0
4, 26340, Note_on_c, 2, 60, 90
4, 26393, Note_on_c, 2, 60, 0
4, 26400, Note_on_c, 2, 60, 90
4, 26460, Note_on_c, 2, 58, 90
4, 26465, Note_on_c, 2, 60, 0
4, 26512, Note_on_c, 2, 58, 0
4, 26520, Note_on_c, 2, 58, 90
4, 26569, Note_on_c, 2, 58, 0
4, 26580, Note_on_c, 2, 58, 90
4, 26640, Note_on_c, 2, 57, 90
4, 26640, Note_on_c, 2, 58, 0
4, 26685, Note_on_c, 2, 57, 0
4, 26700, Note_on_c, 2, 57, 90
4, 26748, Note_on_c, 2, 57, 0
4, 26760, Note_on_c, 2, 57, 90
4, 26820, Note_on_c, 2, 58, 90
4, 26826, Note_on_c, 2, 57, 0
4, 26880, Note_on_c, 2, 55, 90
4, 26884, Note_on_c, 2, 58, 0
4, 26940, Note_on_c, 2, 52, 90
4, 26940, Note_on_c, 2, 55, 0
4, 27000, Note_on_c, 2, 57, 90
4, 27001, Note_on_c, 2, 52, 0
4, 27060, Note_on_c, 2, 45, 90
4, 27065, Note_on_c, 2, 57, 0
4, 27120, Note_on_c, 2, 47, 90
4, 27125, Note_on_c, 2, 45, 0
4, 27180, Note_on_c, 2, 49, 90
4, 27186, Note_on_c, 2, 47, 0
4, 27240, Note_on_c, 2, 45, 90
4, 27242, Note_on_c, 2, 49, 0
4, 27300, Note_on_c, 2, 49, 90
4, 27303, Note_on_c, 2, 45, 0
4, 27360, Note_on_c, 2, 50, 90
4, 27361, Note_on_c, 2, 49, 0
4, 27420, Note_on_c, 2, 48, 90
4, 27424, Note_on_c, 2, 50, 0
4, 27480, Note_on_c, 2, 47, 90
4, 27487, Note_on_c, 2, 48, 0
4, 27540, Note_on_c, 2, 45, 90
4, 27546, Note_on_c, 2, 47, 0
4, 27600, Note_on_c, 2, 57, 90
4, 27602, Note_on_c, 2, 45, 0
4, 27656, Note_on_c, 2, 57, 0
4, 27660, Note_on_c, 2, 57, 90
4, 27720, Note_on_c, 2, 55, 90
4, 27722, Note_on_c, 2, 57, 0
4, 27773, Note_on_c, 2, 55, 0
4, 27780, Note_on_c, 2, 55, 90
4, 27830, Note_on_c, 2, 55, 0
4, 27840, Note_on_c, 2, 55, 90
4, 27900, Note_on_c, 2, 53, 90
4, 27909, Note_on_c, 2, 55, 0
4, 27953, Note_on_c, 2, 53, 0
4, 27960, Note_on_c, 2, 53, 90
4, 28010, Note_on_c, 2, 53, 0
4, 28020, Note_on_c, 2, 53, 90
4, 28080, Note_on_c, 2, 52, 90
4, 28085, Note_on_c, 2, 53, 0
4, 28131, Note_on_c, 2, 52, 0
4, 28140, Note_on_c, 2, 52, 90
4, 28193, Note_on_c, 2, 52, 0
4, 28200, Note_on_c, 2, 52, 90
4, 28260, Note_on_c, 2, 53, 90
4, 28262, Note_on_c, 2, 52, 0
4, 28320, Note_on_c, 2, 50, 90
4, 28325, Note_on_c, 2, 53, 0
4, 28380, Note_on_c, 2, 47, 90
4, 28384, Note_on_c, 2, 50, 0
4, 28438, Note_on_c, 2, 47, 0
4, 28440, Note_on_c, 2, 52, 90
4, 28500, Note_on_c, 2, 40, 90
4, 28503, Note_on_c, 2, 52, 0
4, 28560, Note_on_c, 2, 42, 90
4, 28564, Note_on_c, 2, 40, 0
4, 28620, Note_on_c, 2, 44, 90
4, 28624, Note_on_c, 2, 42, 0
4, 28680, Note_on_c, 2, 40, 90
4, 28686, Note_on_c, 2, 44, 0
4, 28740, Note_on_c, 2, 44, 90
4, 28745, Note_on_c, 2, 40, 0
4, 28800, Note_on_c, 2, 45, 90
4, 28805, Note_on_c, 2, 44, 0
4, 28860, Note_on_c, 2, 47, 90
4, 28862, Note_on_c, 2, 45, 0
4, 28920, Note_on_c, 2, 48, 90
4, 28920, Note_on_c, 2, 47, 0
4, 28980, Note_on_c, 2, 50, 90
4, 28980, Note_on_c, 2, 48, 0
4, 29040, Note_on_c, 2, 52, 90
4, 29040, Note_on_c, 2, 50, 0
4, 29100, Note_on_c, 2, 53, 90
4, 29109, Note_on_c, 2, 52, 0
4, 29160, Note_on_c, 2, 52, 90
4, 29165, Note_on_c, 2, 53, 0
4, 29220, Note_on_c, 2, 54, 90
4, 29225, Note_on_c, 2, 52, 0
4, 29280, Note_on_c, 2, 55, 90
4, 29284, Note_on_c, 2, 54, 0
4, 29340, Note_on_c, 2, 54, 90
4, 29343, Note_on_c, 2, 55, 0
4, 29400, Note_on_c, 2, 56, 90
4, 29403, Note_on_c, 2, 54, 0
4, 29460, Note_on_c, 2, 57, 90
4, 29465, Note_on_c, 2, 56, 0
4, 29520, Note_on_c, 2, 56, 90
4, 29527, Note_on_c, 2, 57, 0
4, 29580, Note_on_c, 2, 57, 90
4, 29584, Note_on_c, 2, 56, 0
4, 29640, Note_on_c, 2, 59, 90
4, 29642, Note_on_c, 2, 57, 0
4, 29700, Note_on_c, 2, 57, 90
4, 29708, Note_on_c, 2, 59, 0
4, 29760, Note_on_c, 2, 59, 90
4, 29764, Note_on_c, 2, 57, 0
4, 29820, Note_on_c, 2, 60, 90
4, 29825, Note_on_c, 2, 59, 0
4, 29880, Note_on_c, 2, 59, 90
4, 29887, Note_on_c, 2, 60, 0
4, 29940, Note_on_c, 2, 61, 90
4, 29945, Note_on_c, 2, 59, 0
4, 30000, Note_on_c, 2, 62, 90
4, 30000, Note_on_c, 2, 61, 0
4, 30060, Note_on_c, 2, 61, 90
4, 30066, Note_on_c, 2, 62, 0
4, 30120, Note_on_c, 2, 57, 90
4, 30120, Note_on_c, 2, 61, 0
4, 30180, Note_on_c, 2, 55, 90
4, 30183, Note_on_c, 2, 57, 0
4, 30240, Note_on_c, 2, 53, 90
4, 30245, Note_on_c, 2, 55, 0
4, 30300, Note_on_c, 2, 55, 90
4, 30305, Note_on_c, 2, 53, 0
4, 30360, Note_on_c, 2, 57, 90
4, 30363, Note_on_c, 2, 55, 0
4, 30420, Note_on_c, 2, 50, 90
4, 30420, Note_on_c, 2, 57, 0
4, 30480, Note_on_c, 2, 62, 90
4, 30481, Note_on_c, 2, 50, 0
4, 30534, Note_on_c, 2, 62, 0
4, 30540, Note_on_c, 2, 62, 90
4, 30590, Note_on_c, 2, 62, 0
4, 30600, Note_on_c, 2, 60, 90
4, 30650, Note_on_c, 2, 60, 0
4, 30660, Note_on_c, 2, 60, 90
4, 30709, Note_on_c, 2, 60, 0
4, 30720, Note_on_c, 2, 60, 90
4, 30772, Note_on_c, 2, 60, 0
4, 30780, Note_on_c, 2, 58, 90
4, 30831, Note_on_c, 2, 58, 0
4, 30840, Note_on_c, 2, 58, 90
4, 30888, Note_on_c, 2, 58, 0
4, 30900, Note_on_c, 2, 58, 90
4, 30958, Note_on_c, 2, 58, 0
4, 30960, Note_on_c, 2, 57, 90
4, 31011, Note_on_c, 2, 57, 0
4, 31020, Note_on_c, 2, 57, 90
4, 31065, Note_on_c, 2, 57, 0
4, 31080, Note_on_c, 2, 57, 90
4, 31140, Note_on_c, 2, 58, 90
4, 31141, Note_on_c, 2, 57, 0
4, 31200, Note_on_c, 2, 55, 90
4, 31205, Note_on_c, 2, 58, 0
4, 31260, Note_on_c, 2, 52, 90
4, 31265, Note_on_c, 2, 55, 0
4, 31320, Note_on_c, 2, 57, 90
4, 31321, Note_on_c, 2, 52, 0
4, 31380, Note_on_c, 2, 45, 90
4, 31382, Note_on_c, 2, 57, 0
4, 31440, Note_on_c, 2, 47, 90
4, 31442, Note_on_c, 2, 45, 0
4, 31500, Note_on_c, 2, 49, 90
4, 31501, Note_on_c, 2, 47, 0
4, 31560, Note_on_c, 2, 45, 90
4, 31562, Note_on_c, 2, 49, 0
4, 31620, Note_on_c, 2, 49, 90
4, 31622, Note_on_c, 2, 45, 0
4, 31680, Note_on_c, 2, 50, 90
4, 31680, Note_on_c, 2, 49, 0
4, 31740, Note_on_c, 2, 38, 90
4, 31743, Note_on_c, 2, 50, 0
4, 31800, Note_on_c, 2, 50, 90
4, 31806, Note_on_c, 2, 38, 0
4, 31860, Note_on_c, 2, 43, 90
4, 31867, Note_on_c, 2, 50, 0
4, 31920, Note_on_c, 2, 46, 90
4, 31923, Note_on_c, 2, 43, 0
4, 31980, Note_on_c, 2, 43, 90
4, 31981, Note_on_c, 2, 46, 0
4, 32040, Note_on_c, 2, 45, 90
4, 32041, Note_on_c, 2, 43, 0
4, 32178, Note_on_c, 2, 45, 0
4, 32220, Note_on_c, 2, 46, 90
4, 32269, Note_on_c, 2, 46, 0
4, 32280, Note_on_c, 2, 43, 90
4, 32329, Note_on_c, 2, 43, 0
4, 32340, Note_on_c, 2, 45, 90
4, 32389, Note_on_c, 2, 45, 0
4, 32400, Note_on_c, 2, 38, 91
4, 32539, Note_on_c, 2, 38, 0
4, 32580, End_track
0, 0, End_of_file
