0, 0, Header, 1, 4, 120
1, 0, Start_track
1, 0, Time_signature, 2, 2, 24, 8
1, 0, Key_signature, -1, "major"
1, 0, Tempo, 1000000
1, 38160, Tempo, 1000000
1, 38172, Tempo, 1016949
1, 38184, Tempo, 1034482
1, 38196, Tempo, 1052631
1, 38208, Tempo, 1071428
1, 38220, Tempo, 1090909
1, 38232, Tempo, 1111111
1, 38244, Tempo, 1132075
1, 38256, Tempo, 1153846
1, 38268, Tempo, 1176470
1, 38280, Tempo, 1200000
1, 38292, Tempo, 1224489
1, 38304, Tempo, 1250000
1, 38316, Tempo, 1276595
1, 38328, Tempo, 1304347
1, 38340, Tempo, 1333333
1, 38352, Tempo, 1363636
1, 38364, Tempo, 1395348
1, 38376, Tempo, 1428571
1, 38388, Tempo, 1463414
1, 38400, Tempo, 3000000
1, 38640, End_track
2, 0, Start_track
2, 0, MIDI_port, 0
2, 0, Title_t, ""
2, 0, Program_c, 0, 19
2, 0, Control_c, 0, 7, 127
2, 0, Control_c, 0, 10, 127
2, 240, Note_on_c, 0, 77, 90
2, 270, Note_on_c, 0, 76, 90
2, 280, Note_on_c, 0, 77, 0
2, 300, Note_on_c, 0, 74, 90
2, 306, Note_on_c, 0, 76, 0
2, 352, Note_on_c, 0, 74, 90
2, 359, Note_on_c, 0, 74, 0
2, 361, Note_on_c, 0, 76, 90
2, 363, Note_on_c, 0, 74, 0
2, 369, Note_on_c, 0, 74, 90
2, 371, Note_on_c, 0, 76, 0
2, 390, Note_on_c, 0, 73, 90
2, 400, Note_on_c, 0, 74, 0
2, 420, Note_on_c, 0, 74, 90
2, 430, Note_on_c, 0, 73, 0
2, 510, Note_on_c, 0, 76, 90
2, 513, Note_on_c, 0, 74, 0
2, 540, Note_on_c, 0, 74, 90
2, 549, Note_on_c, 0, 76, 0
2, 570, Note_on_c, 0, 73, 90
2, 570, Note_on_c, 0, 74, 0
2, 600, Note_on_c, 0, 74, 90
2, 603, Note_on_c, 0, 73, 0
2, 630, Note_on_c, 0, 76, 90
2, 637, Note_on_c, 0, 74, 0
2, 660, Note_on_c, 0, 77, 90
2, 668, Note_on_c, 0, 76, 0
2, 690, Note_on_c, 0, 79, 90
2, 694, Note_on_c, 0, 77, 0
2, 720, Note_on_c, 0, 81, 90
2, 726, Note_on_c, 0, 79, 0
2, 780, Note_on_c, 0, 82, 90
2, 786, Note_on_c, 0, 81, 0
2, 810, Note_on_c, 0, 81, 90
2, 810, Note_on_c, 0, 82, 0
2, 840, Note_on_c, 0, 79, 90
2, 845, Note_on_c, 0, 81, 0
2, 870, Note_on_c, 0, 77, 90
2, 876, Note_on_c, 0, 79, 0
2, 900, Note_on_c, 0, 76, 90
2, 903, Note_on_c, 0, 77, 0
2, 930, Note_on_c, 0, 74, 90
2, 930, Note_on_c, 0, 76, 0
2, 960, Note_on_c, 0, 73, 90
2, 968, Note_on_c, 0, 74, 0
2, 1020, Note_on_c, 0, 76, 90
2, 1029, Note_on_c, 0, 73, 0
2, 1080, Note_on_c, 0, 69, 90
2, 1089, Note_on_c, 0, 76, 0
2, 1114, Note_on_c, 0, 69, 0
2, 1140, Note_on_c, 0, 79, 90
2, 1225, Note_on_c, 0, 79, 0
2, 1230, Note_on_c, 0, 77, 90
2, 1260, Note_on_c, 0, 76, 90
2, 1266, Note_on_c, 0, 77, 0
2, 1290, Note_on_c, 0, 74, 90
2, 1291, Note_on_c, 0, 76, 0
2, 1320, Note_on_c, 0, 77, 90
2, 1322, Note_on_c, 0, 74, 0
2, 1350, Note_on_c, 0, 76, 90
2, 1356, Note_on_c, 0, 77, 0
2, 1380, Note_on_c, 0, 74, 90
2, 1385, Note_on_c, 0, 76, 0
2, 1407, Note_on_c, 0, 74, 0
2, 1410, Note_on_c, 0, 72, 90
2, 1440, Note_on_c, 0, 71, 90
2, 1445, Note_on_c, 0, 72, 0
2, 1500, Note_on_c, 0, 74, 90
2, 1509, Note_on_c, 0, 71, 0
2, 1560, Note_on_c, 0, 67, 90
2, 1567, Note_on_c, 0, 74, 0
2, 1591, Note_on_c, 0, 67, 0
2, 1620, Note_on_c, 0, 77, 90
2, 1702, Note_on_c, 0, 77, 0
2, 1710, Note_on_c, 0, 76, 90
2, 1740, Note_on_c, 0, 74, 90
2, 1746, Note_on_c, 0, 76, 0
2, 1770, Note_on_c, 0, 72, 90
2, 1772, Note_on_c, 0, 74, 0
2, 1800, Note_on_c, 0, 76, 90
2, 1804, Note_on_c, 0, 72, 0
2, 1830, Note_on_c, 0, 74, 90
2, 1839, Note_on_c, 0, 76, 0
2, 1860, Note_on_c, 0, 72, 90
2, 1865, Note_on_c, 0, 74, 0
2, 1889, Note_on_c, 0, 72, 0
2, 1890, Note_on_c, 0, 71, 90
2, 1920, Note_on_c, 0, 69, 90
2, 1923, Note_on_c, 0, 71, 0
2, 1950, Note_on_c, 0, 71, 90
2, 1954, Note_on_c, 0, 69, 0
2, 1980, Note_on_c, 0, 69, 90
2, 1990, Note_on_c, 0, 71, 0
2, 2010, Note_on_c, 0, 68, 90
2, 2011, Note_on_c, 0, 69, 0
2, 2040, Note_on_c, 0, 69, 90
2, 2042, Note_on_c, 0, 68, 0
2, 2070, Note_on_c, 0, 71, 90
2, 2075, Note_on_c, 0, 69, 0
2, 2100, Note_on_c, 0, 72, 90
2, 2108, Note_on_c, 0, 71, 0
2, 2130, Note_on_c, 0, 74, 90
2, 2135, Note_on_c, 0, 72, 0
2, 2160, Note_on_c, 0, 76, 90
2, 2167, Note_on_c, 0, 74, 0
2, 2208, Note_on_c, 0, 76, 0
2, 2220, Note_on_c, 0, 77, 90
2, 2280, Note_on_c, 0, 76, 90
2, 2289, Note_on_c, 0, 77, 0
2, 2340, Note_on_c, 0, 74, 90
2, 2341, Note_on_c, 0, 76, 0
2, 2400, Note_on_c, 0, 72, 90
2, 2408, Note_on_c, 0, 74, 0
2, 2441, Note_on_c, 0, 72, 0
2, 2460, Note_on_c, 0, 74, 90
2, 2520, Note_on_c, 0, 72, 90
2, 2526, Note_on_c, 0, 74, 0
2, 2580, Note_on_c, 0, 71, 90
2, 2590, Note_on_c, 0, 72, 0
2, 2640, Note_on_c, 0, 69, 90
2, 2644, Note_on_c, 0, 71, 0
2, 2753, Note_on_c, 0, 69, 0
2, 2820, Note_on_c, 0, 74, 90
2, 2910, Note_on_c, 0, 76, 90
2, 2919, Note_on_c, 0, 74, 0
2, 2940, Note_on_c, 0, 74, 90
2, 2947, Note_on_c, 0, 76, 0
2, 2970, Note_on_c, 0, 72, 90
2, 2979, Note_on_c, 0, 74, 0
2, 3000, Note_on_c, 0, 74, 90
2, 3000, Note_on_c, 0, 72, 0
2, 3030, Note_on_c, 0, 76, 90
2, 3033, Note_on_c, 0, 74, 0
2, 3060, Note_on_c, 0, 78, 90
2, 3067, Note_on_c, 0, 76, 0
2, 3090, Note_on_c, 0, 80, 90
2, 3102, Note_on_c, 0, 78, 0
2, 3120, Note_on_c, 0, 81, 90
2, 3128, Note_on_c, 0, 80, 0
2, 3163, Note_on_c, 0, 81, 0
2, 3180, Note_on_c, 0, 76, 90
2, 3235, Note_on_c, 0, 76, 0
2, 3240, Note_on_c, 0, 69, 90
2, 3272, Note_on_c, 0, 69, 0
2, 3300, Note_on_c, 0, 72, 90
2, 3390, Note_on_c, 0, 74, 90
2, 3390, Note_on_c, 0, 72, 0
2, 3420, Note_on_c, 0, 72, 90
2, 3431, Note_on_c, 0, 74, 0
2, 3450, Note_on_c, 0, 71, 90
2, 3455, Note_on_c, 0, 72, 0
2, 3480, Note_on_c, 0, 72, 90
2, 3481, Note_on_c, 0, 71, 0
2, 3510, Note_on_c, 0, 74, 90
2, 3514, Note_on_c, 0, 72, 0
2, 3540, Note_on_c, 0, 76, 90
2, 3546, Note_on_c, 0, 74, 0
2, 3570, Note_on_c, 0, 78, 90
2, 3578, Note_on_c, 0, 76, 0
2, 3600, Note_on_c, 0, 79, 90
2, 3606, Note_on_c, 0, 78, 0
2, 3634, Note_on_c, 0, 79, 0
2, 3660, Note_on_c, 0, 74, 90
2, 3695, Note_on_c, 0, 74, 0
2, 3720, Note_on_c, 0, 67, 90
2, 3762, Note_on_c, 0, 67, 0
2, 3780, Note_on_c, 0, 71, 90
2, 3854, Note_on_c, 0, 71, 0
2, 3870, Note_on_c, 0, 76, 90
2, 3900, Note_on_c, 0, 74, 90
2, 3904, Note_on_c, 0, 76, 0
2, 3930, Note_on_c, 0, 76, 90
2, 3931, Note_on_c, 0, 74, 0
2, 3957, Note_on_c, 0, 69, 90
2, 3965, Note_on_c, 0, 76, 0
2, 3966, Note_on_c, 0, 69, 0
2, 3968, Note_on_c, 0, 67, 90
2, 3977, Note_on_c, 0, 69, 90
2, 3979, Note_on_c, 0, 67, 0
2, 4184, Note_on_c, 0, 69, 0
2, 4191, Note_on_c, 0, 71, 90
2, 4202, Note_on_c, 0, 71, 0
2, 4205, Note_on_c, 0, 69, 90
2, 4214, Note_on_c, 0, 71, 90
2, 4217, Note_on_c, 0, 69, 0
2, 4434, Note_on_c, 0, 71, 0
2, 4441, Note_on_c, 0, 72, 90
2, 4451, Note_on_c, 0, 72, 0
2, 4453, Note_on_c, 0, 71, 90
2, 4462, Note_on_c, 0, 72, 90
2, 4465, Note_on_c, 0, 71, 0
2, 4567, Note_on_c, 0, 72, 0
2, 4590, Note_on_c, 0, 71, 90
2, 4620, Note_on_c, 0, 72, 90
2, 4623, Note_on_c, 0, 71, 0
2, 4650, Note_on_c, 0, 76, 90
2, 4654, Note_on_c, 0, 72, 0
2, 4680, Note_on_c, 0, 74, 90
2, 4687, Note_on_c, 0, 76, 0
2, 4710, Note_on_c, 0, 72, 90
2, 4713, Note_on_c, 0, 74, 0
2, 4740, Note_on_c, 0, 74, 90
2, 4746, Note_on_c, 0, 72, 0
2, 4770, Note_on_c, 0, 76, 90
2, 4771, Note_on_c, 0, 74, 0
2, 4799, Note_on_c, 0, 76, 0
2, 4800, Note_on_c, 0, 74, 90
2, 4827, Note_on_c, 0, 74, 0
2, 4830, Note_on_c, 0, 72, 90
2, 4860, Note_on_c, 0, 74, 90
2, 4865, Note_on_c, 0, 72, 0
2, 4890, Note_on_c, 0, 77, 90
2, 4895, Note_on_c, 0, 74, 0
2, 4920, Note_on_c, 0, 76, 90
2, 4924, Note_on_c, 0, 77, 0
2, 4950, Note_on_c, 0, 74, 90
2, 4953, Note_on_c, 0, 76, 0
2, 4980, Note_on_c, 0, 76, 90
2, 4986, Note_on_c, 0, 74, 0
2, 5010, Note_on_c, 0, 77, 90
2, 5014, Note_on_c, 0, 76, 0
2, 5040, Note_on_c, 0, 76, 90
2, 5046, Note_on_c, 0, 77, 0
2, 5085, Note_on_c, 0, 76, 0
2, 5100, Note_on_c, 0, 77, 90
2, 5120, Note_on_c, 0, 76, 90
2, 5125, Note_on_c, 0, 77, 0
2, 5140, Note_on_c, 0, 74, 90
2, 5142, Note_on_c, 0, 76, 0
2, 5160, Note_on_c, 0, 76, 90
2, 5164, Note_on_c, 0, 74, 0
2, 5218, Note_on_c, 0, 76, 0
2, 5220, Note_on_c, 0, 74, 90
2, 5240, Note_on_c, 0, 72, 90
2, 5244, Note_on_c, 0, 74, 0
2, 5257, Note_on_c, 0, 72, 0
2, 5260, Note_on_c, 0, 71, 90
2, 5280, Note_on_c, 0, 72, 90
2, 5280, Note_on_c, 0, 71, 0
2, 5314, Note_on_c, 0, 72, 0
2, 5340, Note_on_c, 0, 74, 90
2, 5373, Note_on_c, 0, 74, 0
2, 5400, Note_on_c, 0, 72, 90
2, 5430, Note_on_c, 0, 72, 0
2, 5460, Note_on_c, 0, 71, 90
2, 5497, Note_on_c, 0, 71, 0
2, 5520, Note_on_c, 0, 69, 90
2, 5550, Note_on_c, 0, 72, 90
2, 5554, Note_on_c, 0, 69, 0
2, 5580, Note_on_c, 0, 77, 90
2, 5585, Note_on_c, 0, 72, 0
2, 5608, Note_on_c, 0, 77, 0
2, 5610, Note_on_c, 0, 71, 90
2, 5640, Note_on_c, 0, 74, 90
2, 5643, Note_on_c, 0, 71, 0
2, 5670, Note_on_c, 0, 72, 90
2, 5679, Note_on_c, 0, 74, 0
2, 5700, Note_on_c, 0, 71, 90
2, 5703, Note_on_c, 0, 72, 0
2, 5726, Note_on_c, 0, 71, 0
2, 5730, Note_on_c, 0, 69, 90
2, 5759, Note_on_c, 0, 69, 0
2, 5760, Note_on_c, 0, 69, 90
2, 5835, Note_on_c, 0, 71, 90
2, 5835, Note_on_c, 0, 69, 0
2, 5850, Note_on_c, 0, 69, 90
2, 5854, Note_on_c, 0, 71, 0
2, 5863, Note_on_c, 0, 69, 0
2, 5865, Note_on_c, 0, 68, 90
2, 5880, Note_on_c, 0, 69, 90
2, 5880, Note_on_c, 0, 68, 0
2, 5910, Note_on_c, 0, 71, 90
2, 5913, Note_on_c, 0, 69, 0
2, 5940, Note_on_c, 0, 72, 90
2, 5944, Note_on_c, 0, 71, 0
2, 5970, Note_on_c, 0, 74, 90
2, 5975, Note_on_c, 0, 72, 0
2, 5985, Note_on_c, 0, 76, 90
2, 5990, Note_on_c, 0, 74, 0
2, 5995, Note_on_c, 0, 76, 0
2, 6000, Note_on_c, 0, 77, 90
2, 6276, Note_on_c, 0, 77, 0
2, 6315, Note_on_c, 0, 69, 90
2, 6330, Note_on_c, 0, 67, 90
2, 6335, Note_on_c, 0, 69, 0
2, 6345, Note_on_c, 0, 66, 90
2, 6346, Note_on_c, 0, 67, 0
2, 6360, Note_on_c, 0, 67, 90
2, 6361, Note_on_c, 0, 66, 0
2, 6390, Note_on_c, 0, 69, 90
2, 6394, Note_on_c, 0, 67, 0
2, 6420, Note_on_c, 0, 70, 90
2, 6426, Note_on_c, 0, 69, 0
2, 6448, Note_on_c, 0, 70, 0
2, 6450, Note_on_c, 0, 72, 90
2, 6465, Note_on_c, 0, 74, 90
2, 6465, Note_on_c, 0, 72, 0
2, 6480, Note_on_c, 0, 76, 90
2, 6480, Note_on_c, 0, 74, 0
2, 6717, Note_on_c, 0, 76, 0
2, 6750, Note_on_c, 0, 81, 90
2, 6799, Note_on_c, 0, 81, 0
2, 6800, Note_on_c, 0, 79, 90
2, 6808, Note_on_c, 0, 79, 0
2, 6820, Note_on_c, 0, 77, 90
2, 6860, Note_on_c, 0, 76, 90
2, 6860, Note_on_c, 0, 77, 0
2, 6874, Note_on_c, 0, 76, 0
2, 6880, Note_on_c, 0, 74, 90
2, 6919, Note_on_c, 0, 74, 0
2, 6920, Note_on_c, 0, 73, 90
2, 6933, Note_on_c, 0, 73, 0
2, 6940, Note_on_c, 0, 74, 90
2, 6955, Note_on_c, 0, 74, 0
2, 6960, Note_on_c, 0, 74, 90
2, 7049, Note_on_c, 0, 74, 0
2, 7050, Note_on_c, 0, 72, 90
2, 7061, Note_on_c, 0, 72, 0
2, 7065, Note_on_c, 0, 70, 90
2, 7076, Note_on_c, 0, 70, 0
2, 7080, Note_on_c, 0, 72, 90
2, 7154, Note_on_c, 0, 72, 0
2, 7170, Note_on_c, 0, 70, 90
2, 7183, Note_on_c, 0, 70, 0
2, 7185, Note_on_c, 0, 69, 90
2, 7200, Note_on_c, 0, 70, 90
2, 7200, Note_on_c, 0, 69, 0
2, 7281, Note_on_c, 0, 70, 0
2, 7290, Note_on_c, 0, 69, 90
2, 7304, Note_on_c, 0, 69, 0
2, 7305, Note_on_c, 0, 67, 90
2, 7320, Note_on_c, 0, 69, 90
2, 7320, Note_on_c, 0, 67, 0
2, 7410, Note_on_c, 0, 67, 90
2, 7411, Note_on_c, 0, 69, 0
2, 7425, Note_on_c, 0, 65, 90
2, 7427, Note_on_c, 0, 67, 0
2, 7440, Note_on_c, 0, 67, 90
2, 7447, Note_on_c, 0, 65, 0
2, 7470, Note_on_c, 0, 79, 90
2, 7474, Note_on_c, 0, 67, 0
2, 7530, Note_on_c, 0, 70, 90
2, 7536, Note_on_c, 0, 79, 0
2, 7582, Note_on_c, 0, 70, 0
2, 7590, Note_on_c, 0, 69, 90
2, 7650, Note_on_c, 0, 68, 90
2, 7651, Note_on_c, 0, 69, 0
2, 7680, Note_on_c, 0, 69, 90
2, 7682, Note_on_c, 0, 68, 0
2, 7710, Note_on_c, 0, 79, 90
2, 7714, Note_on_c, 0, 69, 0
2, 7760, Note_on_c, 0, 79, 0
2, 7770, Note_on_c, 0, 77, 90
2, 7830, Note_on_c, 0, 76, 90
2, 7832, Note_on_c, 0, 77, 0
2, 7886, Note_on_c, 0, 76, 0
2, 7890, Note_on_c, 0, 77, 90
2, 7911, Note_on_c, 0, 77, 0
2, 7920, Note_on_c, 0, 77, 90
2, 7949, Note_on_c, 0, 77, 0
2, 7950, Note_on_c, 0, 76, 90
2, 7970, Note_on_c, 0, 76, 0
2, 7980, Note_on_c, 0, 74, 90
2, 8030, Note_on_c, 0, 74, 0
2, 8039, Note_on_c, 0, 74, 90
2, 8046, Note_on_c, 0, 76, 90
2, 8047, Note_on_c, 0, 74, 0
2, 8053, Note_on_c, 0, 74, 90
2, 8053, Note_on_c, 0, 76, 0
2, 8070, Note_on_c, 0, 73, 90
2, 8079, Note_on_c, 0, 74, 0
2, 8100, Note_on_c, 0, 74, 90
2, 8106, Note_on_c, 0, 73, 0
2, 8190, Note_on_c, 0, 76, 90
2, 8197, Note_on_c, 0, 74, 0
2, 8220, Note_on_c, 0, 74, 90
2, 8224, Note_on_c, 0, 76, 0
2, 8250, Note_on_c, 0, 73, 90
2, 8253, Note_on_c, 0, 74, 0
2, 8280, Note_on_c, 0, 74, 90
2, 8282, Note_on_c, 0, 73, 0
2, 8310, Note_on_c, 0, 76, 90
2, 8311, Note_on_c, 0, 74, 0
2, 8340, Note_on_c, 0, 77, 90
2, 8346, Note_on_c, 0, 76, 0
2, 8370, Note_on_c, 0, 79, 90
2, 8375, Note_on_c, 0, 77, 0
2, 8400, Note_on_c, 0, 81, 90
2, 8405, Note_on_c, 0, 79, 0
2, 8458, Note_on_c, 0, 81, 0
2, 8460, Note_on_c, 0, 82, 90
2, 8490, Note_on_c, 0, 81, 90
2, 8494, Note_on_c, 0, 82, 0
2, 8520, Note_on_c, 0, 79, 90
2, 8526, Note_on_c, 0, 81, 0
2, 8550, Note_on_c, 0, 77, 90
2, 8552, Note_on_c, 0, 79, 0
2, 8580, Note_on_c, 0, 76, 90
2, 8584, Note_on_c, 0, 77, 0
2, 8607, Note_on_c, 0, 76, 0
2, 8610, Note_on_c, 0, 74, 90
2, 8640, Note_on_c, 0, 73, 90
2, 8645, Note_on_c, 0, 74, 0
2, 8700, Note_on_c, 0, 76, 90
2, 8705, Note_on_c, 0, 73, 0
2, 8759, Note_on_c, 0, 76, 0
2, 8760, Note_on_c, 0, 69, 90
2, 8800, Note_on_c, 0, 69, 0
2, 8820, Note_on_c, 0, 79, 90
2, 8910, Note_on_c, 0, 77, 90
2, 8911, Note_on_c, 0, 79, 0
2, 8940, Note_on_c, 0, 76, 90
2, 8944, Note_on_c, 0, 77, 0
2, 8970, Note_on_c, 0, 74, 90
2, 8974, Note_on_c, 0, 76, 0
2, 9000, Note_on_c, 0, 77, 90
2, 9005, Note_on_c, 0, 74, 0
2, 9030, Note_on_c, 0, 76, 90
2, 9040, Note_on_c, 0, 77, 0
2, 9060, Note_on_c, 0, 74, 90
2, 9067, Note_on_c, 0, 76, 0
2, 9090, Note_on_c, 0, 72, 90
2, 9090, Note_on_c, 0, 74, 0
2, 9120, Note_on_c, 0, 71, 90
2, 9126, Note_on_c, 0, 72, 0
2, 9180, Note_on_c, 0, 74, 90
2, 9184, Note_on_c, 0, 71, 0
2, 9240, Note_on_c, 0, 67, 90
2, 9243, Note_on_c, 0, 74, 0
2, 9275, Note_on_c, 0, 67, 0
2, 9300, Note_on_c, 0, 77, 90
2, 9389, Note_on_c, 0, 77, 0
2, 9390, Note_on_c, 0, 76, 90
2, 9420, Note_on_c, 0, 74, 90
2, 9425, Note_on_c, 0, 76, 0
2, 9449, Note_on_c, 0, 74, 0
2, 9450, Note_on_c, 0, 72, 90
2, 9480, Note_on_c, 0, 76, 90
2, 9482, Note_on_c, 0, 72, 0
2, 9510, Note_on_c, 0, 74, 90
2, 9516, Note_on_c, 0, 76, 0
2, 9540, Note_on_c, 0, 72, 90
2, 9543, Note_on_c, 0, 74, 0
2, 9570, Note_on_c, 0, 70, 90
2, 9573, Note_on_c, 0, 72, 0
2, 9600, Note_on_c, 0, 69, 90
2, 9604, Note_on_c, 0, 70, 0
2, 9735, Note_on_c, 0, 69, 0
2, 9750, Note_on_c, 0, 67, 90
2, 9780, Note_on_c, 0, 69, 90
2, 9784, Note_on_c, 0, 67, 0
2, 9810, Note_on_c, 0, 72, 90
2, 9814, Note_on_c, 0, 69, 0
2, 9840, Note_on_c, 0, 71, 90
2, 9845, Note_on_c, 0, 72, 0
2, 9870, Note_on_c, 0, 69, 90
2, 9874, Note_on_c, 0, 71, 0
2, 9900, Note_on_c, 0, 71, 90
2, 9903, Note_on_c, 0, 69, 0
2, 9930, Note_on_c, 0, 72, 90
2, 9936, Note_on_c, 0, 71, 0
2, 9960, Note_on_c, 0, 71, 90
2, 9966, Note_on_c, 0, 72, 0
2, 9990, Note_on_c, 0, 69, 90
2, 9995, Note_on_c, 0, 71, 0
2, 10020, Note_on_c, 0, 71, 90
2, 10027, Note_on_c, 0, 69, 0
2, 10050, Note_on_c, 0, 74, 90
2, 10055, Note_on_c, 0, 71, 0
2, 10080, Note_on_c, 0, 73, 90
2, 10087, Note_on_c, 0, 74, 0
2, 10109, Note_on_c, 0, 73, 0
2, 10110, Note_on_c, 0, 71, 90
2, 10140, Note_on_c, 0, 73, 90
2, 10148, Note_on_c, 0, 71, 0
2, 10170, Note_on_c, 0, 74, 90
2, 10174, Note_on_c, 0, 73, 0
2, 10200, Note_on_c, 0, 73, 90
2, 10208, Note_on_c, 0, 74, 0
2, 10230, Note_on_c, 0, 71, 90
2, 10232, Note_on_c, 0, 73, 0
2, 10260, Note_on_c, 0, 73, 90
2, 10266, Note_on_c, 0, 71, 0
2, 10290, Note_on_c, 0, 76, 90
2, 10295, Note_on_c, 0, 73, 0
2, 10323, Note_on_c, 0, 74, 90
2, 10326, Note_on_c, 0, 76, 0
2, 10335, Note_on_c, 0, 73, 90
2, 10335, Note_on_c, 0, 74, 0
2, 10345, Note_on_c, 0, 74, 90
2, 10348, Note_on_c, 0, 73, 0
2, 10545, Note_on_c, 0, 74, 0
2, 10562, Note_on_c, 0, 76, 90
2, 10573, Note_on_c, 0, 76, 0
2, 10575, Note_on_c, 0, 74, 90
2, 10585, Note_on_c, 0, 76, 90
2, 10588, Note_on_c, 0, 74, 0
2, 10784, Note_on_c, 0, 76, 0
2, 10800, Note_on_c, 0, 77, 90
2, 10860, Note_on_c, 0, 79, 90
2, 10860, Note_on_c, 0, 77, 0
2, 10880, Note_on_c, 0, 77, 90
2, 10887, Note_on_c, 0, 79, 0
2, 10900, Note_on_c, 0, 76, 90
2, 10902, Note_on_c, 0, 77, 0
2, 10920, Note_on_c, 0, 77, 90
2, 10922, Note_on_c, 0, 76, 0
2, 10978, Note_on_c, 0, 77, 0
2, 10980, Note_on_c, 0, 76, 90
2, 11000, Note_on_c, 0, 74, 90
2, 11003, Note_on_c, 0, 76, 0
2, 11020, Note_on_c, 0, 73, 90
2, 11024, Note_on_c, 0, 74, 0
2, 11040, Note_on_c, 0, 74, 90
2, 11045, Note_on_c, 0, 73, 0
2, 11080, Note_on_c, 0, 74, 0
2, 11100, Note_on_c, 0, 70, 90
2, 11148, Note_on_c, 0, 70, 0
2, 11160, Note_on_c, 0, 69, 90
2, 11204, Note_on_c, 0, 69, 0
2, 11220, Note_on_c, 0, 67, 90
2, 11264, Note_on_c, 0, 67, 0
2, 11280, Note_on_c, 0, 65, 90
2, 11321, Note_on_c, 0, 65, 0
2, 11340, Note_on_c, 0, 74, 90
2, 11381, Note_on_c, 0, 74, 0
2, 11400, Note_on_c, 0, 64, 90
2, 11436, Note_on_c, 0, 64, 0
2, 11460, Note_on_c, 0, 73, 90
2, 11506, Note_on_c, 0, 73, 0
2, 11520, Note_on_c, 0, 74, 90
2, 11645, Note_on_c, 0, 74, 0
2, 11700, Note_on_c, 0, 69, 90
2, 11730, Note_on_c, 0, 70, 90
2, 11733, Note_on_c, 0, 69, 0
2, 11760, Note_on_c, 0, 72, 90
2, 11765, Note_on_c, 0, 70, 0
2, 11820, Note_on_c, 0, 74, 90
2, 11826, Note_on_c, 0, 72, 0
2, 11850, Note_on_c, 0, 76, 90
2, 11853, Note_on_c, 0, 74, 0
2, 11880, Note_on_c, 0, 77, 90
2, 11882, Note_on_c, 0, 76, 0
2, 11940, Note_on_c, 0, 76, 90
2, 11946, Note_on_c, 0, 77, 0
2, 11970, Note_on_c, 0, 74, 90
2, 11978, Note_on_c, 0, 76, 0
2, 12000, Note_on_c, 0, 72, 90
2, 12000, Note_on_c, 0, 74, 0
2, 12030, Note_on_c, 0, 70, 90
2, 12034, Note_on_c, 0, 72, 0
2, 12060, Note_on_c, 0, 69, 90
2, 12064, Note_on_c, 0, 70, 0
2, 12090, Note_on_c, 0, 67, 90
2, 12094, Note_on_c, 0, 69, 0
2, 12120, Note_on_c, 0, 65, 90
2, 12122, Note_on_c, 0, 67, 0
2, 12180, Note_on_c, 0, 69, 90
2, 12184, Note_on_c, 0, 65, 0
2, 12217, Note_on_c, 0, 69, 0
2, 12242, Note_on_c, 0, 69, 90
2, 12252, Note_on_c, 0, 70, 90
2, 12254, Note_on_c, 0, 69, 0
2, 12261, Note_on_c, 0, 69, 90
2, 12264, Note_on_c, 0, 70, 0
2, 12300, Note_on_c, 0, 67, 90
2, 12301, Note_on_c, 0, 69, 0
2, 12360, Note_on_c, 0, 67, 0
2, 12420, Note_on_c, 0, 77, 90
2, 12453, Note_on_c, 0, 77, 0
2, 12480, Note_on_c, 0, 77, 90
2, 12483, Note_on_c, 0, 77, 90
2, 12490, Note_on_c, 0, 77, 0
2, 12493, Note_on_c, 0, 79, 90
2, 12501, Note_on_c, 0, 77, 90
2, 12504, Note_on_c, 0, 79, 0
2, 12538, Note_on_c, 0, 77, 0
2, 12540, Note_on_c, 0, 76, 90
2, 12547, Note_on_c, 0, 77, 0
2, 12601, Note_on_c, 0, 76, 0
2, 13140, Note_on_c, 0, 79, 90
2, 13260, Note_on_c, 0, 78, 90
2, 13268, Note_on_c, 0, 79, 0
2, 13280, Note_on_c, 0, 76, 90
2, 13282, Note_on_c, 0, 78, 0
2, 13298, Note_on_c, 0, 76, 0
2, 13300, Note_on_c, 0, 74, 90
2, 13320, Note_on_c, 0, 84, 90
2, 13323, Note_on_c, 0, 74, 0
2, 13357, Note_on_c, 0, 84, 0
2, 13380, Note_on_c, 0, 82, 90
2, 13415, Note_on_c, 0, 82, 0
2, 13443, Note_on_c, 0, 82, 90
2, 13451, Note_on_c, 0, 84, 90
2, 13452, Note_on_c, 0, 82, 0
2, 13459, Note_on_c, 0, 82, 90
2, 13463, Note_on_c, 0, 84, 0
2, 13500, Note_on_c, 0, 81, 90
2, 13503, Note_on_c, 0, 82, 0
2, 13560, Note_on_c, 0, 81, 0
2, 13620, Note_on_c, 0, 81, 90
2, 13678, Note_on_c, 0, 81, 0
2, 13681, Note_on_c, 0, 82, 90
2, 13688, Note_on_c, 0, 84, 90
2, 13689, Note_on_c, 0, 82, 0
2, 13696, Note_on_c, 0, 82, 90
2, 13700, Note_on_c, 0, 84, 0
2, 13710, Note_on_c, 0, 81, 90
2, 13728, Note_on_c, 0, 82, 0
2, 13740, Note_on_c, 0, 82, 90
2, 13745, Note_on_c, 0, 81, 0
2, 13816, Note_on_c, 0, 82, 0
2, 13830, Note_on_c, 0, 81, 90
2, 13860, Note_on_c, 0, 82, 90
2, 13865, Note_on_c, 0, 81, 0
2, 13906, Note_on_c, 0, 82, 0
2, 13920, Note_on_c, 0, 82, 90
2, 13980, Note_on_c, 0, 72, 90
2, 13982, Note_on_c, 0, 82, 0
2, 14044, Note_on_c, 0, 72, 0
2, 14100, Note_on_c, 0, 82, 90
2, 14151, Note_on_c, 0, 82, 0
2, 14161, Note_on_c, 0, 81, 90
2, 14169, Note_on_c, 0, 82, 90
2, 14169, Note_on_c, 0, 81, 0
2, 14178, Note_on_c, 0, 81, 90
2, 14180, Note_on_c, 0, 82, 0
2, 14190, Note_on_c, 0, 79, 90
2, 14210, Note_on_c, 0, 81, 0
2, 14218, Note_on_c, 0, 79, 0
2, 14220, Note_on_c, 0, 81, 90
2, 14293, Note_on_c, 0, 81, 0
2, 14310, Note_on_c, 0, 79, 90
2, 14340, Note_on_c, 0, 80, 90
2, 14341, Note_on_c, 0, 79, 0
2, 14387, Note_on_c, 0, 80, 0
2, 14400, Note_on_c, 0, 80, 90
2, 14459, Note_on_c, 0, 80, 0
2, 14460, Note_on_c, 0, 70, 90
2, 14522, Note_on_c, 0, 70, 0
2, 14580, Note_on_c, 0, 80, 90
2, 14631, Note_on_c, 0, 80, 0
2, 14640, Note_on_c, 0, 79, 90
2, 14723, Note_on_c, 0, 79, 0
2, 14730, Note_on_c, 0, 77, 90
2, 14745, Note_on_c, 0, 75, 90
2, 14745, Note_on_c, 0, 77, 0
2, 14756, Note_on_c, 0, 75, 0
2, 14760, Note_on_c, 0, 77, 90
2, 14834, Note_on_c, 0, 77, 0
2, 14850, Note_on_c, 0, 75, 90
2, 14865, Note_on_c, 0, 74, 90
2, 14866, Note_on_c, 0, 75, 0
2, 14880, Note_on_c, 0, 75, 90
2, 14883, Note_on_c, 0, 74, 0
2, 14960, Note_on_c, 0, 75, 0
2, 14970, Note_on_c, 0, 74, 90
2, 14985, Note_on_c, 0, 72, 90
2, 14986, Note_on_c, 0, 74, 0
2, 14998, Note_on_c, 0, 72, 0
2, 15000, Note_on_c, 0, 74, 90
2, 15073, Note_on_c, 0, 74, 0
2, 15090, Note_on_c, 0, 72, 90
2, 15105, Note_on_c, 0, 70, 90
2, 15109, Note_on_c, 0, 72, 0
2, 15120, Note_on_c, 0, 72, 90
2, 15123, Note_on_c, 0, 70, 0
2, 15149, Note_on_c, 0, 72, 0
2, 15150, Note_on_c, 0, 84, 90
2, 15209, Note_on_c, 0, 84, 0
2, 15210, Note_on_c, 0, 75, 90
2, 15269, Note_on_c, 0, 75, 0
2, 15270, Note_on_c, 0, 74, 90
2, 15329, Note_on_c, 0, 74, 0
2, 15330, Note_on_c, 0, 73, 90
2, 15359, Note_on_c, 0, 73, 0
2, 15360, Note_on_c, 0, 74, 90
2, 15390, Note_on_c, 0, 84, 90
2, 15392, Note_on_c, 0, 74, 0
2, 15449, Note_on_c, 0, 84, 0
2, 15450, Note_on_c, 0, 82, 90
2, 15506, Note_on_c, 0, 82, 0
2, 15510, Note_on_c, 0, 81, 90
2, 15569, Note_on_c, 0, 81, 0
2, 15570, Note_on_c, 0, 82, 90
2, 15599, Note_on_c, 0, 82, 0
2, 15600, Note_on_c, 0, 82, 90
2, 15650, Note_on_c, 0, 82, 0
2, 15660, Note_on_c, 0, 84, 90
2, 15680, Note_on_c, 0, 82, 90
2, 15686, Note_on_c, 0, 84, 0
2, 15700, Note_on_c, 0, 81, 90
2, 15702, Note_on_c, 0, 82, 0
2, 15720, Note_on_c, 0, 82, 90
2, 15728, Note_on_c, 0, 81, 0
2, 15774, Note_on_c, 0, 82, 0
2, 15780, Note_on_c, 0, 81, 90
2, 15800, Note_on_c, 0, 79, 90
2, 15800, Note_on_c, 0, 81, 0
2, 15820, Note_on_c, 0, 78, 90
2, 15824, Note_on_c, 0, 79, 0
2, 15840, Note_on_c, 0, 79, 90
2, 15840, Note_on_c, 0, 78, 0
2, 15883, Note_on_c, 0, 79, 0
2, 15900, Note_on_c, 0, 75, 90
2, 15954, Note_on_c, 0, 75, 0
2, 15960, Note_on_c, 0, 74, 90
2, 16003, Note_on_c, 0, 74, 0
2, 16020, Note_on_c, 0, 72, 90
2, 16070, Note_on_c, 0, 72, 0
2, 16080, Note_on_c, 0, 70, 90
2, 16127, Note_on_c, 0, 70, 0
2, 16140, Note_on_c, 0, 79, 90
2, 16185, Note_on_c, 0, 79, 0
2, 16200, Note_on_c, 0, 69, 90
2, 16241, Note_on_c, 0, 69, 0
2, 16260, Note_on_c, 0, 78, 90
2, 16309, Note_on_c, 0, 78, 0
2, 16322, Note_on_c, 0, 79, 90
2, 16408, Note_on_c, 0, 79, 0
2, 16635, Note_on_c, 0, 69, 90
2, 16650, Note_on_c, 0, 67, 90
2, 16656, Note_on_c, 0, 69, 0
2, 16665, Note_on_c, 0, 66, 90
2, 16668, Note_on_c, 0, 67, 0
2, 16680, Note_on_c, 0, 67, 90
2, 16681, Note_on_c, 0, 66, 0
2, 16710, Note_on_c, 0, 69, 90
2, 16713, Note_on_c, 0, 67, 0
2, 16740, Note_on_c, 0, 70, 90
2, 16745, Note_on_c, 0, 69, 0
2, 16766, Note_on_c, 0, 70, 0
2, 16770, Note_on_c, 0, 72, 90
2, 16785, Note_on_c, 0, 74, 90
2, 16791, Note_on_c, 0, 72, 0
2, 16800, Note_on_c, 0, 75, 90
2, 16808, Note_on_c, 0, 74, 0
2, 17072, Note_on_c, 0, 75, 0
2, 17115, Note_on_c, 0, 67, 90
2, 17130, Note_on_c, 0, 65, 90
2, 17137, Note_on_c, 0, 67, 0
2, 17145, Note_on_c, 0, 64, 90
2, 17146, Note_on_c, 0, 65, 0
2, 17156, Note_on_c, 0, 64, 0
2, 17160, Note_on_c, 0, 65, 90
2, 17190, Note_on_c, 0, 67, 90
2, 17193, Note_on_c, 0, 65, 0
2, 17220, Note_on_c, 0, 69, 90
2, 17225, Note_on_c, 0, 67, 0
2, 17250, Note_on_c, 0, 70, 90
2, 17253, Note_on_c, 0, 69, 0
2, 17265, Note_on_c, 0, 72, 90
2, 17266, Note_on_c, 0, 70, 0
2, 17280, Note_on_c, 0, 74, 90
2, 17283, Note_on_c, 0, 72, 0
2, 17516, Note_on_c, 0, 74, 0
2, 17550, Note_on_c, 0, 79, 90
2, 17580, Note_on_c, 0, 77, 90
2, 17584, Note_on_c, 0, 79, 0
2, 17610, Note_on_c, 0, 79, 90
2, 17616, Note_on_c, 0, 77, 0
2, 17640, Note_on_c, 0, 72, 90
2, 17645, Note_on_c, 0, 79, 0
2, 17855, Note_on_c, 0, 72, 0
2, 17880, Note_on_c, 0, 74, 90
2, 18009, Note_on_c, 0, 74, 0
2, 18030, Note_on_c, 0, 72, 90
2, 18060, Note_on_c, 0, 74, 90
2, 18061, Note_on_c, 0, 72, 0
2, 18090, Note_on_c, 0, 77, 90
2, 18094, Note_on_c, 0, 74, 0
2, 18120, Note_on_c, 0, 75, 90
2, 18124, Note_on_c, 0, 77, 0
2, 18150, Note_on_c, 0, 74, 90
2, 18155, Note_on_c, 0, 75, 0
2, 18180, Note_on_c, 0, 75, 90
2, 18190, Note_on_c, 0, 74, 0
2, 18210, Note_on_c, 0, 77, 90
2, 18210, Note_on_c, 0, 75, 0
2, 18240, Note_on_c, 0, 75, 90
2, 18248, Note_on_c, 0, 77, 0
2, 18270, Note_on_c, 0, 74, 90
2, 18273, Note_on_c, 0, 75, 0
2, 18300, Note_on_c, 0, 75, 90
2, 18303, Note_on_c, 0, 74, 0
2, 18330, Note_on_c, 0, 79, 90
2, 18334, Note_on_c, 0, 75, 0
2, 18360, Note_on_c, 0, 77, 90
2, 18364, Note_on_c, 0, 79, 0
2, 18390, Note_on_c, 0, 75, 90
2, 18391, Note_on_c, 0, 77, 0
2, 18420, Note_on_c, 0, 77, 90
2, 18425, Note_on_c, 0, 75, 0
2, 18450, Note_on_c, 0, 79, 90
2, 18456, Note_on_c, 0, 77, 0
2, 18480, Note_on_c, 0, 77, 78
2, 18485, Note_on_c, 0, 79, 0
2, 18491, Note_on_c, 0, 75, 98
2, 18493, Note_on_c, 0, 77, 0
2, 18503, Note_on_c, 0, 77, 66
2, 18504, Note_on_c, 0, 75, 0
2, 18852, Note_on_c, 0, 77, 0
2, 18870, Note_on_c, 0, 65, 90
2, 18896, Note_on_c, 0, 65, 0
2, 18900, Note_on_c, 0, 70, 90
2, 19020, Note_on_c, 0, 69, 90
2, 19024, Note_on_c, 0, 70, 0
2, 19035, Note_on_c, 0, 67, 90
2, 19039, Note_on_c, 0, 69, 0
2, 19050, Note_on_c, 0, 65, 90
2, 19051, Note_on_c, 0, 67, 0
2, 19076, Note_on_c, 0, 65, 0
2, 19080, Note_on_c, 0, 75, 90
2, 19140, Note_on_c, 0, 74, 90
2, 19145, Note_on_c, 0, 75, 0
2, 19190, Note_on_c, 0, 74, 0
2, 19200, Note_on_c, 0, 74, 90
2, 19257, Note_on_c, 0, 74, 0
2, 19260, Note_on_c, 0, 72, 90
2, 19339, Note_on_c, 0, 72, 0
2, 19350, Note_on_c, 0, 74, 90
2, 19380, Note_on_c, 0, 75, 90
2, 19382, Note_on_c, 0, 74, 0
2, 19410, Note_on_c, 0, 77, 90
2, 19411, Note_on_c, 0, 75, 0
2, 19440, Note_on_c, 0, 79, 90
2, 19445, Note_on_c, 0, 77, 0
2, 19500, Note_on_c, 0, 81, 90
2, 19507, Note_on_c, 0, 79, 0
2, 19530, Note_on_c, 0, 83, 90
2, 19536, Note_on_c, 0, 81, 0
2, 19560, Note_on_c, 0, 84, 90
2, 19565, Note_on_c, 0, 83, 0
2, 19620, Note_on_c, 0, 83, 90
2, 19627, Note_on_c, 0, 84, 0
2, 19650, Note_on_c, 0, 81, 90
2, 19654, Note_on_c, 0, 83, 0
2, 19680, Note_on_c, 0, 79, 90
2, 19686, Note_on_c, 0, 81, 0
2, 19710, Note_on_c, 0, 77, 90
2, 19710, Note_on_c, 0, 79, 0
2, 19740, Note_on_c, 0, 75, 90
2, 19747, Note_on_c, 0, 77, 0
2, 19770, Note_on_c, 0, 74, 90
2, 19773, Note_on_c, 0, 75, 0
2, 19800, Note_on_c, 0, 72, 90
2, 19803, Note_on_c, 0, 74, 0
2, 19860, Note_on_c, 0, 75, 90
2, 19862, Note_on_c, 0, 72, 0
2, 19901, Note_on_c, 0, 75, 0
2, 19925, Note_on_c, 0, 75, 90
2, 19932, Note_on_c, 0, 77, 90
2, 19934, Note_on_c, 0, 75, 0
2, 19941, Note_on_c, 0, 75, 90
2, 19944, Note_on_c, 0, 77, 0
2, 19971, Note_on_c, 0, 75, 0
2, 19980, Note_on_c, 0, 74, 90
2, 20044, Note_on_c, 0, 74, 0
2, 20100, Note_on_c, 0, 72, 90
2, 20131, Note_on_c, 0, 72, 0
2, 20160, Note_on_c, 0, 72, 90
2, 20167, Note_on_c, 0, 74, 90
2, 20168, Note_on_c, 0, 72, 0
2, 20176, Note_on_c, 0, 72, 90
2, 20176, Note_on_c, 0, 74, 0
2, 20211, Note_on_c, 0, 72, 0
2, 20220, Note_on_c, 0, 71, 90
2, 20284, Note_on_c, 0, 71, 0
2, 20340, Note_on_c, 0, 83, 90
2, 20393, Note_on_c, 0, 83, 0
2, 20400, Note_on_c, 0, 84, 90
2, 20420, Note_on_c, 0, 79, 90
2, 20427, Note_on_c, 0, 84, 0
2, 20440, Note_on_c, 0, 75, 90
2, 20441, Note_on_c, 0, 79, 0
2, 20458, Note_on_c, 0, 75, 0
2, 20460, Note_on_c, 0, 72, 90
2, 20480, Note_on_c, 0, 75, 90
2, 20487, Note_on_c, 0, 72, 0
2, 20500, Note_on_c, 0, 79, 90
2, 20500, Note_on_c, 0, 75, 0
2, 20520, Note_on_c, 0, 82, 90
2, 20523, Note_on_c, 0, 79, 0
2, 20540, Note_on_c, 0, 79, 90
2, 20547, Note_on_c, 0, 82, 0
2, 20560, Note_on_c, 0, 75, 90
2, 20563, Note_on_c, 0, 79, 0
2, 20580, Note_on_c, 0, 72, 90
2, 20584, Note_on_c, 0, 75, 0
2, 20600, Note_on_c, 0, 75, 90
2, 20611, Note_on_c, 0, 72, 0
2, 20620, Note_on_c, 0, 79, 90
2, 20639, Note_on_c, 0, 79, 0
2, 20640, Note_on_c, 0, 81, 90
2, 20642, Note_on_c, 0, 75, 0
2, 20660, Note_on_c, 0, 77, 90
2, 20666, Note_on_c, 0, 81, 0
2, 20680, Note_on_c, 0, 75, 90
2, 20683, Note_on_c, 0, 77, 0
2, 20699, Note_on_c, 0, 75, 0
2, 20700, Note_on_c, 0, 72, 90
2, 20720, Note_on_c, 0, 75, 90
2, 20725, Note_on_c, 0, 72, 0
2, 20740, Note_on_c, 0, 77, 90
2, 20740, Note_on_c, 0, 75, 0
2, 20760, Note_on_c, 0, 81, 90
2, 20763, Note_on_c, 0, 77, 0
2, 20780, Note_on_c, 0, 77, 90
2, 20788, Note_on_c, 0, 81, 0
2, 20800, Note_on_c, 0, 75, 90
2, 20803, Note_on_c, 0, 77, 0
2, 20820, Note_on_c, 0, 72, 90
2, 20822, Note_on_c, 0, 75, 0
2, 20840, Note_on_c, 0, 75, 90
2, 20847, Note_on_c, 0, 72, 0
2, 20860, Note_on_c, 0, 77, 90
2, 20864, Note_on_c, 0, 75, 0
2, 20879, Note_on_c, 0, 77, 0
2, 20880, Note_on_c, 0, 82, 90
2, 20900, Note_on_c, 0, 77, 90
2, 20906, Note_on_c, 0, 82, 0
2, 20920, Note_on_c, 0, 74, 90
2, 20920, Note_on_c, 0, 77, 0
2, 20940, Note_on_c, 0, 70, 90
2, 20944, Note_on_c, 0, 74, 0
2, 20960, Note_on_c, 0, 74, 90
2, 20965, Note_on_c, 0, 70, 0
2, 20980, Note_on_c, 0, 77, 90
2, 20984, Note_on_c, 0, 74, 0
2, 21000, Note_on_c, 0, 81, 90
2, 21006, Note_on_c, 0, 77, 0
2, 21020, Note_on_c, 0, 77, 90
2, 21026, Note_on_c, 0, 81, 0
2, 21040, Note_on_c, 0, 74, 90
2, 21042, Note_on_c, 0, 77, 0
2, 21060, Note_on_c, 0, 70, 90
2, 21064, Note_on_c, 0, 74, 0
2, 21080, Note_on_c, 0, 74, 90
2, 21088, Note_on_c, 0, 70, 0
2, 21100, Note_on_c, 0, 77, 90
2, 21110, Note_on_c, 0, 74, 0
2, 21120, Note_on_c, 0, 79, 90
2, 21126, Note_on_c, 0, 77, 0
2, 21140, Note_on_c, 0, 76, 90
2, 21146, Note_on_c, 0, 79, 0
2, 21160, Note_on_c, 0, 74, 90
2, 21162, Note_on_c, 0, 76, 0
2, 21180, Note_on_c, 0, 70, 90
2, 21183, Note_on_c, 0, 74, 0
2, 21200, Note_on_c, 0, 74, 90
2, 21204, Note_on_c, 0, 70, 0
2, 21220, Note_on_c, 0, 76, 90
2, 21224, Note_on_c, 0, 74, 0
2, 21240, Note_on_c, 0, 79, 90
2, 21245, Note_on_c, 0, 76, 0
2, 21260, Note_on_c, 0, 76, 90
2, 21266, Note_on_c, 0, 79, 0
2, 21280, Note_on_c, 0, 74, 90
2, 21283, Note_on_c, 0, 76, 0
2, 21300, Note_on_c, 0, 70, 90
2, 21304, Note_on_c, 0, 74, 0
2, 21320, Note_on_c, 0, 74, 90
2, 21328, Note_on_c, 0, 70, 0
2, 21340, Note_on_c, 0, 76, 90
2, 21344, Note_on_c, 0, 74, 0
2, 21360, Note_on_c, 0, 81, 90
2, 21365, Note_on_c, 0, 76, 0
2, 21380, Note_on_c, 0, 76, 90
2, 21387, Note_on_c, 0, 81, 0
2, 21400, Note_on_c, 0, 73, 90
2, 21404, Note_on_c, 0, 76, 0
2, 21420, Note_on_c, 0, 69, 90
2, 21422, Note_on_c, 0, 73, 0
2, 21440, Note_on_c, 0, 73, 90
2, 21447, Note_on_c, 0, 69, 0
2, 21460, Note_on_c, 0, 76, 90
2, 21462, Note_on_c, 0, 73, 0
2, 21480, Note_on_c, 0, 79, 90
2, 21482, Note_on_c, 0, 76, 0
2, 21500, Note_on_c, 0, 76, 90
2, 21506, Note_on_c, 0, 79, 0
2, 21520, Note_on_c, 0, 73, 90
2, 21524, Note_on_c, 0, 76, 0
2, 21540, Note_on_c, 0, 69, 90
2, 21541, Note_on_c, 0, 73, 0
2, 21560, Note_on_c, 0, 73, 90
2, 21563, Note_on_c, 0, 69, 0
2, 21580, Note_on_c, 0, 76, 90
2, 21580, Note_on_c, 0, 73, 0
2, 21600, Note_on_c, 0, 77, 90
2, 21603, Note_on_c, 0, 76, 0
2, 21620, Note_on_c, 0, 76, 90
2, 21626, Note_on_c, 0, 77, 0
2, 21640, Note_on_c, 0, 74, 90
2, 21641, Note_on_c, 0, 76, 0
2, 21660, Note_on_c, 0, 69, 90
2, 21661, Note_on_c, 0, 74, 0
2, 21680, Note_on_c, 0, 74, 90
2, 21683, Note_on_c, 0, 69, 0
2, 21700, Note_on_c, 0, 76, 90
2, 21704, Note_on_c, 0, 74, 0
2, 21720, Note_on_c, 0, 77, 90
2, 21722, Note_on_c, 0, 76, 0
2, 21740, Note_on_c, 0, 76, 90
2, 21746, Note_on_c, 0, 77, 0
2, 21760, Note_on_c, 0, 74, 90
2, 21763, Note_on_c, 0, 76, 0
2, 21780, Note_on_c, 0, 69, 90
2, 21783, Note_on_c, 0, 74, 0
2, 21800, Note_on_c, 0, 74, 90
2, 21805, Note_on_c, 0, 69, 0
2, 21820, Note_on_c, 0, 76, 90
2, 21828, Note_on_c, 0, 74, 0
2, 21840, Note_on_c, 0, 77, 90
2, 21844, Note_on_c, 0, 76, 0
2, 21860, Note_on_c, 0, 74, 90
2, 21861, Note_on_c, 0, 77, 0
2, 21880, Note_on_c, 0, 71, 90
2, 21882, Note_on_c, 0, 74, 0
2, 21900, Note_on_c, 0, 68, 90
2, 21903, Note_on_c, 0, 71, 0
2, 21920, Note_on_c, 0, 71, 90
2, 21925, Note_on_c, 0, 68, 0
2, 21940, Note_on_c, 0, 74, 90
2, 21944, Note_on_c, 0, 71, 0
2, 21960, Note_on_c, 0, 77, 90
2, 21966, Note_on_c, 0, 74, 0
2, 21980, Note_on_c, 0, 76, 90
2, 21988, Note_on_c, 0, 77, 0
2, 22000, Note_on_c, 0, 74, 90
2, 22003, Note_on_c, 0, 76, 0
2, 22020, Note_on_c, 0, 76, 90
2, 22025, Note_on_c, 0, 74, 0
2, 22040, Note_on_c, 0, 74, 90
2, 22044, Note_on_c, 0, 76, 0
2, 22060, Note_on_c, 0, 73, 90
2, 22063, Note_on_c, 0, 74, 0
2, 22080, Note_on_c, 0, 74, 90
2, 22083, Note_on_c, 0, 73, 0
2, 22099, Note_on_c, 0, 73, 90
2, 22107, Note_on_c, 0, 74, 0
2, 22118, Note_on_c, 0, 71, 90
2, 22120, Note_on_c, 0, 73, 0
2, 22140, Note_on_c, 0, 73, 90
2, 22145, Note_on_c, 0, 71, 0
2, 22157, Note_on_c, 0, 74, 90
2, 22161, Note_on_c, 0, 73, 0
2, 22179, Note_on_c, 0, 76, 90
2, 22184, Note_on_c, 0, 74, 0
2, 22200, Note_on_c, 0, 69, 90
2, 22204, Note_on_c, 0, 76, 0
2, 22236, Note_on_c, 0, 69, 0
2, 22260, Note_on_c, 0, 79, 90
2, 22343, Note_on_c, 0, 79, 0
2, 22350, Note_on_c, 0, 77, 90
2, 22380, Note_on_c, 0, 76, 90
2, 22381, Note_on_c, 0, 77, 0
2, 22410, Note_on_c, 0, 74, 90
2, 22412, Note_on_c, 0, 76, 0
2, 22440, Note_on_c, 0, 77, 90
2, 22443, Note_on_c, 0, 74, 0
2, 22470, Note_on_c, 0, 76, 90
2, 22478, Note_on_c, 0, 77, 0
2, 22500, Note_on_c, 0, 74, 90
2, 22504, Note_on_c, 0, 76, 0
2, 22530, Note_on_c, 0, 72, 90
2, 22530, Note_on_c, 0, 74, 0
2, 22560, Note_on_c, 0, 71, 90
2, 22563, Note_on_c, 0, 72, 0
2, 22620, Note_on_c, 0, 74, 90
2, 22625, Note_on_c, 0, 71, 0
2, 22679, Note_on_c, 0, 74, 0
2, 22680, Note_on_c, 0, 67, 90
2, 22715, Note_on_c, 0, 67, 0
2, 22740, Note_on_c, 0, 77, 90
2, 22830, Note_on_c, 0, 76, 90
2, 22830, Note_on_c, 0, 77, 0
2, 22860, Note_on_c, 0, 74, 90
2, 22864, Note_on_c, 0, 76, 0
2, 22890, Note_on_c, 0, 72, 90
2, 22893, Note_on_c, 0, 74, 0
2, 22920, Note_on_c, 0, 76, 90
2, 22925, Note_on_c, 0, 72, 0
2, 22950, Note_on_c, 0, 74, 90
2, 22958, Note_on_c, 0, 76, 0
2, 22977, Note_on_c, 0, 74, 0
2, 22980, Note_on_c, 0, 72, 90
2, 23010, Note_on_c, 0, 70, 90
2, 23015, Note_on_c, 0, 72, 0
2, 23040, Note_on_c, 0, 69, 90
2, 23044, Note_on_c, 0, 70, 0
2, 23100, Note_on_c, 0, 72, 90
2, 23108, Note_on_c, 0, 69, 0
2, 23160, Note_on_c, 0, 65, 90
2, 23162, Note_on_c, 0, 72, 0
2, 23193, Note_on_c, 0, 65, 0
2, 23220, Note_on_c, 0, 75, 90
2, 23278, Note_on_c, 0, 75, 0
2, 23280, Note_on_c, 0, 74, 90
2, 23310, Note_on_c, 0, 72, 90
2, 23311, Note_on_c, 0, 74, 0
2, 23340, Note_on_c, 0, 74, 90
2, 23345, Note_on_c, 0, 72, 0
2, 23370, Note_on_c, 0, 75, 90
2, 23376, Note_on_c, 0, 74, 0
2, 23400, Note_on_c, 0, 74, 90
2, 23403, Note_on_c, 0, 75, 0
2, 23430, Note_on_c, 0, 72, 90
2, 23435, Note_on_c, 0, 74, 0
2, 23460, Note_on_c, 0, 74, 90
2, 23465, Note_on_c, 0, 72, 0
2, 23490, Note_on_c, 0, 77, 90
2, 23492, Note_on_c, 0, 74, 0
2, 23520, Note_on_c, 0, 76, 90
2, 23524, Note_on_c, 0, 77, 0
2, 23550, Note_on_c, 0, 74, 90
2, 23554, Note_on_c, 0, 76, 0
2, 23580, Note_on_c, 0, 76, 90
2, 23586, Note_on_c, 0, 74, 0
2, 23610, Note_on_c, 0, 77, 90
2, 23616, Note_on_c, 0, 76, 0
2, 23640, Note_on_c, 0, 76, 90
2, 23645, Note_on_c, 0, 77, 0
2, 23670, Note_on_c, 0, 74, 90
2, 23672, Note_on_c, 0, 76, 0
2, 23700, Note_on_c, 0, 76, 90
2, 23706, Note_on_c, 0, 74, 0
2, 23730, Note_on_c, 0, 79, 90
2, 23732, Note_on_c, 0, 76, 0
2, 23761, Note_on_c, 0, 77, 90
2, 23767, Note_on_c, 0, 79, 0
2, 23772, Note_on_c, 0, 77, 0
2, 23774, Note_on_c, 0, 76, 90
2, 23784, Note_on_c, 0, 77, 90
2, 23785, Note_on_c, 0, 76, 0
2, 23983, Note_on_c, 0, 77, 0
2, 24003, Note_on_c, 0, 79, 90
2, 24013, Note_on_c, 0, 79, 0
2, 24015, Note_on_c, 0, 77, 90
2, 24025, Note_on_c, 0, 79, 90
2, 24026, Note_on_c, 0, 77, 0
2, 24240, Note_on_c, 0, 81, 90
2, 24246, Note_on_c, 0, 79, 0
2, 24283, Note_on_c, 0, 81, 0
2, 24300, Note_on_c, 0, 74, 90
2, 24320, Note_on_c, 0, 72, 90
2, 24320, Note_on_c, 0, 74, 0
2, 24339, Note_on_c, 0, 72, 0
2, 24340, Note_on_c, 0, 70, 90
2, 24360, Note_on_c, 0, 72, 90
2, 24364, Note_on_c, 0, 70, 0
2, 24401, Note_on_c, 0, 72, 0
2, 24420, Note_on_c, 0, 70, 90
2, 24440, Note_on_c, 0, 69, 90
2, 24443, Note_on_c, 0, 70, 0
2, 24459, Note_on_c, 0, 69, 0
2, 24460, Note_on_c, 0, 67, 90
2, 24480, Note_on_c, 0, 69, 90
2, 24481, Note_on_c, 0, 67, 0
2, 24518, Note_on_c, 0, 69, 0
2, 24540, Note_on_c, 0, 70, 90
2, 24578, Note_on_c, 0, 70, 0
2, 24600, Note_on_c, 0, 69, 90
2, 24636, Note_on_c, 0, 69, 0
2, 24660, Note_on_c, 0, 67, 90
2, 24698, Note_on_c, 0, 67, 0
2, 24720, Note_on_c, 0, 65, 90
2, 24750, Note_on_c, 0, 69, 90
2, 24754, Note_on_c, 0, 65, 0
2, 24780, Note_on_c, 0, 74, 90
2, 24785, Note_on_c, 0, 69, 0
2, 24809, Note_on_c, 0, 74, 0
2, 24810, Note_on_c, 0, 67, 90
2, 24840, Note_on_c, 0, 70, 90
2, 24845, Note_on_c, 0, 67, 0
2, 24870, Note_on_c, 0, 69, 90
2, 24878, Note_on_c, 0, 70, 0
2, 24900, Note_on_c, 0, 67, 90
2, 24906, Note_on_c, 0, 69, 0
2, 24930, Note_on_c, 0, 65, 90
2, 24933, Note_on_c, 0, 67, 0
2, 24955, Note_on_c, 0, 65, 0
2, 24960, Note_on_c, 0, 65, 90
2, 25033, Note_on_c, 0, 65, 0
2, 25035, Note_on_c, 0, 67, 90
2, 25050, Note_on_c, 0, 65, 90
2, 25057, Note_on_c, 0, 67, 0
2, 25065, Note_on_c, 0, 64, 90
2, 25066, Note_on_c, 0, 65, 0
2, 25080, Note_on_c, 0, 65, 90
2, 25080, Note_on_c, 0, 64, 0
2, 25110, Note_on_c, 0, 67, 90
2, 25113, Note_on_c, 0, 65, 0
2, 25140, Note_on_c, 0, 69, 90
2, 25144, Note_on_c, 0, 67, 0
2, 25170, Note_on_c, 0, 70, 90
2, 25176, Note_on_c, 0, 69, 0
2, 25182, Note_on_c, 0, 70, 0
2, 25185, Note_on_c, 0, 72, 90
2, 25200, Note_on_c, 0, 74, 90
2, 25205, Note_on_c, 0, 72, 0
2, 25482, Note_on_c, 0, 74, 0
2, 25515, Note_on_c, 0, 69, 90
2, 25530, Note_on_c, 0, 67, 90
2, 25535, Note_on_c, 0, 69, 0
2, 25542, Note_on_c, 0, 67, 0
2, 25545, Note_on_c, 0, 66, 90
2, 25559, Note_on_c, 0, 66, 0
2, 25560, Note_on_c, 0, 67, 90
2, 25590, Note_on_c, 0, 69, 90
2, 25598, Note_on_c, 0, 67, 0
2, 25620, Note_on_c, 0, 71, 90
2, 25622, Note_on_c, 0, 69, 0
2, 25647, Note_on_c, 0, 71, 0
2, 25650, Note_on_c, 0, 72, 90
2, 25665, Note_on_c, 0, 74, 90
2, 25668, Note_on_c, 0, 72, 0
2, 25680, Note_on_c, 0, 76, 90
2, 25685, Note_on_c, 0, 74, 0
2, 25936, Note_on_c, 0, 76, 0
2, 25950, Note_on_c, 0, 79, 90
2, 25994, Note_on_c, 0, 79, 0
2, 26000, Note_on_c, 0, 77, 90
2, 26014, Note_on_c, 0, 77, 0
2, 26020, Note_on_c, 0, 76, 90
2, 26060, Note_on_c, 0, 74, 90
2, 26068, Note_on_c, 0, 76, 0
2, 26077, Note_on_c, 0, 74, 0
2, 26080, Note_on_c, 0, 73, 90
2, 26120, Note_on_c, 0, 71, 90
2, 26125, Note_on_c, 0, 73, 0
2, 26136, Note_on_c, 0, 71, 0
2, 26140, Note_on_c, 0, 69, 90
2, 26160, Note_on_c, 0, 77, 90
2, 26162, Note_on_c, 0, 69, 0
2, 26310, Note_on_c, 0, 76, 90
2, 26312, Note_on_c, 0, 77, 0
2, 26340, Note_on_c, 0, 77, 90
2, 26342, Note_on_c, 0, 76, 0
2, 26370, Note_on_c, 0, 79, 90
2, 26377, Note_on_c, 0, 77, 0
2, 26400, Note_on_c, 0, 76, 90
2, 26407, Note_on_c, 0, 79, 0
2, 26550, Note_on_c, 0, 74, 90
2, 26556, Note_on_c, 0, 76, 0
2, 26580, Note_on_c, 0, 76, 90
2, 26588, Note_on_c, 0, 74, 0
2, 26610, Note_on_c, 0, 77, 90
2, 26612, Note_on_c, 0, 76, 0
2, 26640, Note_on_c, 0, 74, 90
2, 26644, Note_on_c, 0, 77, 0
2, 26780, Note_on_c, 0, 76, 90
2, 26782, Note_on_c, 0, 74, 0
2, 26800, Note_on_c, 0, 77, 90
2, 26804, Note_on_c, 0, 76, 0
2, 26820, Note_on_c, 0, 79, 90
2, 26824, Note_on_c, 0, 77, 0
2, 26840, Note_on_c, 0, 77, 90
2, 26847, Note_on_c, 0, 79, 0
2, 26860, Note_on_c, 0, 76, 90
2, 26869, Note_on_c, 0, 77, 0
2, 26880, Note_on_c, 0, 74, 90
2, 26884, Note_on_c, 0, 76, 0
2, 26940, Note_on_c, 0, 73, 90
2, 26953, Note_on_c, 0, 74, 0
2, 27030, Note_on_c, 0, 71, 90
2, 27038, Note_on_c, 0, 73, 0
2, 27044, Note_on_c, 0, 71, 0
2, 27045, Note_on_c, 0, 69, 90
2, 27060, Note_on_c, 0, 71, 90
2, 27062, Note_on_c, 0, 69, 0
2, 27075, Note_on_c, 0, 73, 90
2, 27075, Note_on_c, 0, 71, 0
2, 27087, Note_on_c, 0, 73, 0
2, 27090, Note_on_c, 0, 74, 90
2, 27105, Note_on_c, 0, 76, 90
2, 27110, Note_on_c, 0, 74, 0
2, 27120, Note_on_c, 0, 77, 90
2, 27125, Note_on_c, 0, 76, 0
2, 27150, Note_on_c, 0, 76, 90
2, 27158, Note_on_c, 0, 77, 0
2, 27178, Note_on_c, 0, 76, 0
2, 27182, Note_on_c, 0, 74, 90
2, 27214, Note_on_c, 0, 74, 0
2, 27231, Note_on_c, 0, 74, 90
2, 27239, Note_on_c, 0, 76, 90
2, 27248, Note_on_c, 0, 76, 0
2, 27271, Note_on_c, 0, 74, 0
2, 27273, Note_on_c, 0, 73, 90
2, 27300, Note_on_c, 0, 74, 90
2, 27307, Note_on_c, 0, 73, 0
2, 27378, Note_on_c, 0, 74, 0
2, 27390, Note_on_c, 0, 76, 90
2, 27420, Note_on_c, 0, 74, 90
2, 27425, Note_on_c, 0, 76, 0
2, 27450, Note_on_c, 0, 73, 90
2, 27455, Note_on_c, 0, 74, 0
2, 27479, Note_on_c, 0, 73, 0
2, 27480, Note_on_c, 0, 74, 90
2, 27510, Note_on_c, 0, 76, 90
2, 27514, Note_on_c, 0, 74, 0
2, 27540, Note_on_c, 0, 77, 90
2, 27547, Note_on_c, 0, 76, 0
2, 27570, Note_on_c, 0, 79, 90
2, 27575, Note_on_c, 0, 77, 0
2, 27600, Note_on_c, 0, 81, 90
2, 27605, Note_on_c, 0, 79, 0
2, 27660, Note_on_c, 0, 82, 90
2, 27668, Note_on_c, 0, 81, 0
2, 27689, Note_on_c, 0, 82, 0
2, 27690, Note_on_c, 0, 81, 90
2, 27720, Note_on_c, 0, 79, 90
2, 27724, Note_on_c, 0, 81, 0
2, 27750, Note_on_c, 0, 77, 90
2, 27756, Note_on_c, 0, 79, 0
2, 27780, Note_on_c, 0, 76, 90
2, 27780, Note_on_c, 0, 77, 0
2, 27808, Note_on_c, 0, 76, 0
2, 27810, Note_on_c, 0, 74, 90
2, 27840, Note_on_c, 0, 73, 90
2, 27845, Note_on_c, 0, 74, 0
2, 27900, Note_on_c, 0, 76, 90
2, 27912, Note_on_c, 0, 73, 0
2, 27960, Note_on_c, 0, 69, 90
2, 27962, Note_on_c, 0, 76, 0
2, 27996, Note_on_c, 0, 69, 0
2, 28020, Note_on_c, 0, 79, 90
2, 28108, Note_on_c, 0, 79, 0
2, 28110, Note_on_c, 0, 77, 90
2, 28140, Note_on_c, 0, 76, 90
2, 28145, Note_on_c, 0, 77, 0
2, 28170, Note_on_c, 0, 74, 90
2, 28173, Note_on_c, 0, 76, 0
2, 28200, Note_on_c, 0, 77, 90
2, 28206, Note_on_c, 0, 74, 0
2, 28230, Note_on_c, 0, 76, 90
2, 28237, Note_on_c, 0, 77, 0
2, 28260, Note_on_c, 0, 74, 90
2, 28265, Note_on_c, 0, 76, 0
2, 28289, Note_on_c, 0, 74, 0
2, 28290, Note_on_c, 0, 72, 90
2, 28320, Note_on_c, 0, 71, 90
2, 28327, Note_on_c, 0, 72, 0
2, 28380, Note_on_c, 0, 74, 90
2, 28386, Note_on_c, 0, 71, 0
2, 28440, Note_on_c, 0, 67, 90
2, 28440, Note_on_c, 0, 74, 0
2, 28473, Note_on_c, 0, 67, 0
2, 28500, Note_on_c, 0, 77, 90
2, 28590, Note_on_c, 0, 76, 90
2, 28591, Note_on_c, 0, 77, 0
2, 28620, Note_on_c, 0, 74, 90
2, 28624, Note_on_c, 0, 76, 0
2, 28650, Note_on_c, 0, 72, 90
2, 28652, Note_on_c, 0, 74, 0
2, 28680, Note_on_c, 0, 76, 90
2, 28681, Note_on_c, 0, 72, 0
2, 28710, Note_on_c, 0, 74, 90
2, 28716, Note_on_c, 0, 76, 0
2, 28740, Note_on_c, 0, 72, 90
2, 28752, Note_on_c, 0, 74, 0
2, 28770, Note_on_c, 0, 71, 90
2, 28775, Note_on_c, 0, 72, 0
2, 28800, Note_on_c, 0, 69, 90
2, 28800, Note_on_c, 0, 71, 0
2, 28830, Note_on_c, 0, 71, 90
2, 28830, Note_on_c, 0, 69, 0
2, 28860, Note_on_c, 0, 69, 90
2, 28867, Note_on_c, 0, 71, 0
2, 28890, Note_on_c, 0, 68, 90
2, 28892, Note_on_c, 0, 69, 0
2, 28919, Note_on_c, 0, 68, 0
2, 28920, Note_on_c, 0, 69, 90
2, 28950, Note_on_c, 0, 71, 90
2, 28953, Note_on_c, 0, 69, 0
2, 28980, Note_on_c, 0, 72, 90
2, 28985, Note_on_c, 0, 71, 0
2, 29005, Note_on_c, 0, 72, 0
2, 29010, Note_on_c, 0, 74, 90
2, 29040, Note_on_c, 0, 76, 90
2, 29043, Note_on_c, 0, 74, 0
2, 29100, Note_on_c, 0, 77, 90
2, 29104, Note_on_c, 0, 76, 0
2, 29160, Note_on_c, 0, 76, 90
2, 29163, Note_on_c, 0, 77, 0
2, 29220, Note_on_c, 0, 74, 90
2, 29224, Note_on_c, 0, 76, 0
2, 29280, Note_on_c, 0, 72, 90
2, 29285, Note_on_c, 0, 74, 0
2, 29313, Note_on_c, 0, 72, 0
2, 29340, Note_on_c, 0, 74, 90
2, 29400, Note_on_c, 0, 72, 90
2, 29407, Note_on_c, 0, 74, 0
2, 29460, Note_on_c, 0, 71, 90
2, 29468, Note_on_c, 0, 72, 0
2, 29520, Note_on_c, 0, 69, 90
2, 29524, Note_on_c, 0, 71, 0
2, 29627, Note_on_c, 0, 69, 0
2, 29700, Note_on_c, 0, 74, 90
2, 29790, Note_on_c, 0, 76, 90
2, 29794, Note_on_c, 0, 74, 0
2, 29820, Note_on_c, 0, 74, 90
2, 29827, Note_on_c, 0, 76, 0
2, 29850, Note_on_c, 0, 72, 90
2, 29853, Note_on_c, 0, 74, 0
2, 29878, Note_on_c, 0, 72, 0
2, 29880, Note_on_c, 0, 74, 90
2, 29910, Note_on_c, 0, 76, 90
2, 29911, Note_on_c, 0, 74, 0
2, 29940, Note_on_c, 0, 78, 90
2, 29947, Note_on_c, 0, 76, 0
2, 29970, Note_on_c, 0, 80, 90
2, 29977, Note_on_c, 0, 78, 0
2, 30000, Note_on_c, 0, 81, 90
2, 30004, Note_on_c, 0, 80, 0
2, 30060, Note_on_c, 0, 76, 90
2, 30061, Note_on_c, 0, 81, 0
2, 30120, Note_on_c, 0, 69, 90
2, 30120, Note_on_c, 0, 76, 0
2, 30163, Note_on_c, 0, 69, 0
2, 30180, Note_on_c, 0, 72, 90
2, 30270, Note_on_c, 0, 74, 90
2, 30275, Note_on_c, 0, 72, 0
2, 30300, Note_on_c, 0, 72, 90
2, 30306, Note_on_c, 0, 74, 0
2, 30330, Note_on_c, 0, 71, 90
2, 30336, Note_on_c, 0, 72, 0
2, 30360, Note_on_c, 0, 72, 90
2, 30361, Note_on_c, 0, 71, 0
2, 30390, Note_on_c, 0, 74, 90
2, 30393, Note_on_c, 0, 72, 0
2, 30420, Note_on_c, 0, 76, 90
2, 30424, Note_on_c, 0, 74, 0
2, 30450, Note_on_c, 0, 78, 90
2, 30456, Note_on_c, 0, 76, 0
2, 30480, Note_on_c, 0, 79, 90
2, 30485, Note_on_c, 0, 78, 0
2, 30539, Note_on_c, 0, 79, 0
2, 30540, Note_on_c, 0, 74, 90
2, 30600, Note_on_c, 0, 67, 90
2, 30600, Note_on_c, 0, 74, 0
2, 30638, Note_on_c, 0, 67, 0
2, 30660, Note_on_c, 0, 71, 90
2, 30749, Note_on_c, 0, 71, 0
2, 30750, Note_on_c, 0, 76, 90
2, 30780, Note_on_c, 0, 74, 90
2, 30787, Note_on_c, 0, 76, 0
2, 30810, Note_on_c, 0, 76, 90
2, 30814, Note_on_c, 0, 74, 0
2, 30843, Note_on_c, 0, 69, 90
2, 30845, Note_on_c, 0, 76, 0
2, 30852, Note_on_c, 0, 69, 0
2, 30853, Note_on_c, 0, 67, 90
2, 30863, Note_on_c, 0, 69, 90
2, 30865, Note_on_c, 0, 67, 0
2, 31077, Note_on_c, 0, 69, 0
2, 31082, Note_on_c, 0, 71, 90
2, 31091, Note_on_c, 0, 71, 0
2, 31093, Note_on_c, 0, 69, 90
2, 31102, Note_on_c, 0, 71, 90
2, 31104, Note_on_c, 0, 69, 0
2, 31318, Note_on_c, 0, 71, 0
2, 31322, Note_on_c, 0, 72, 90
2, 31331, Note_on_c, 0, 72, 0
2, 31332, Note_on_c, 0, 71, 90
2, 31341, Note_on_c, 0, 72, 90
2, 31345, Note_on_c, 0, 71, 0
2, 31454, Note_on_c, 0, 72, 0
2, 31471, Note_on_c, 0, 71, 90
2, 31499, Note_on_c, 0, 72, 90
2, 31509, Note_on_c, 0, 71, 0
2, 31527, Note_on_c, 0, 76, 90
2, 31530, Note_on_c, 0, 72, 0
2, 31556, Note_on_c, 0, 74, 90
2, 31562, Note_on_c, 0, 76, 0
2, 31589, Note_on_c, 0, 72, 90
2, 31593, Note_on_c, 0, 74, 0
2, 31619, Note_on_c, 0, 74, 90
2, 31626, Note_on_c, 0, 72, 0
2, 31648, Note_on_c, 0, 76, 90
2, 31652, Note_on_c, 0, 74, 0
2, 31680, Note_on_c, 0, 74, 90
2, 31686, Note_on_c, 0, 76, 0
2, 31711, Note_on_c, 0, 72, 90
2, 31715, Note_on_c, 0, 74, 0
2, 31741, Note_on_c, 0, 74, 90
2, 31749, Note_on_c, 0, 72, 0
2, 31770, Note_on_c, 0, 77, 90
2, 31774, Note_on_c, 0, 74, 0
2, 31801, Note_on_c, 0, 76, 90
2, 31806, Note_on_c, 0, 77, 0
2, 31831, Note_on_c, 0, 74, 90
2, 31836, Note_on_c, 0, 76, 0
2, 31861, Note_on_c, 0, 76, 90
2, 31868, Note_on_c, 0, 74, 0
2, 31891, Note_on_c, 0, 77, 90
2, 31894, Note_on_c, 0, 76, 0
2, 31920, Note_on_c, 0, 76, 90
2, 31923, Note_on_c, 0, 77, 0
2, 31967, Note_on_c, 0, 76, 0
2, 31980, Note_on_c, 0, 77, 90
2, 32000, Note_on_c, 0, 76, 90
2, 32004, Note_on_c, 0, 77, 0
2, 32020, Note_on_c, 0, 74, 90
2, 32022, Note_on_c, 0, 76, 0
2, 32037, Note_on_c, 0, 74, 0
2, 32040, Note_on_c, 0, 76, 90
2, 32080, Note_on_c, 0, 76, 0
2, 32100, Note_on_c, 0, 74, 90
2, 32120, Note_on_c, 0, 72, 90
2, 32126, Note_on_c, 0, 74, 0
2, 32138, Note_on_c, 0, 72, 0
2, 32140, Note_on_c, 0, 71, 90
2, 32160, Note_on_c, 0, 72, 90
2, 32166, Note_on_c, 0, 71, 0
2, 32200, Note_on_c, 0, 72, 0
2, 32220, Note_on_c, 0, 74, 90
2, 32266, Note_on_c, 0, 74, 0
2, 32280, Note_on_c, 0, 72, 90
2, 32317, Note_on_c, 0, 72, 0
2, 32340, Note_on_c, 0, 71, 90
2, 32373, Note_on_c, 0, 71, 0
2, 32400, Note_on_c, 0, 69, 90
2, 32430, Note_on_c, 0, 72, 90
2, 32432, Note_on_c, 0, 69, 0
2, 32460, Note_on_c, 0, 77, 90
2, 32460, Note_on_c, 0, 72, 0
2, 32490, Note_on_c, 0, 71, 90
2, 32494, Note_on_c, 0, 77, 0
2, 32520, Note_on_c, 0, 74, 90
2, 32522, Note_on_c, 0, 71, 0
2, 32550, Note_on_c, 0, 72, 90
2, 32559, Note_on_c, 0, 74, 0
2, 32580, Note_on_c, 0, 71, 90
2, 32589, Note_on_c, 0, 72, 0
2, 32608, Note_on_c, 0, 71, 0
2, 32610, Note_on_c, 0, 69, 90
2, 32638, Note_on_c, 0, 69, 0
2, 32640, Note_on_c, 0, 69, 90
2, 32715, Note_on_c, 0, 71, 90
2, 32719, Note_on_c, 0, 69, 0
2, 32730, Note_on_c, 0, 69, 90
2, 32735, Note_on_c, 0, 71, 0
2, 32743, Note_on_c, 0, 69, 0
2, 32745, Note_on_c, 0, 68, 90
2, 32759, Note_on_c, 0, 68, 0
2, 32760, Note_on_c, 0, 69, 90
2, 32790, Note_on_c, 0, 71, 90
2, 32791, Note_on_c, 0, 69, 0
2, 32820, Note_on_c, 0, 72, 90
2, 32821, Note_on_c, 0, 71, 0
2, 32849, Note_on_c, 0, 72, 0
2, 32850, Note_on_c, 0, 74, 90
2, 32865, Note_on_c, 0, 76, 90
2, 32866, Note_on_c, 0, 74, 0
2, 32880, Note_on_c, 0, 77, 90
2, 32886, Note_on_c, 0, 76, 0
2, 33149, Note_on_c, 0, 77, 0
2, 33195, Note_on_c, 0, 69, 90
2, 33210, Note_on_c, 0, 67, 90
2, 33212, Note_on_c, 0, 69, 0
2, 33224, Note_on_c, 0, 67, 0
2, 33225, Note_on_c, 0, 66, 90
2, 33239, Note_on_c, 0, 66, 0
2, 33240, Note_on_c, 0, 67, 90
2, 33270, Note_on_c, 0, 69, 90
2, 33271, Note_on_c, 0, 67, 0
2, 33300, Note_on_c, 0, 70, 90
2, 33305, Note_on_c, 0, 69, 0
2, 33328, Note_on_c, 0, 70, 0
2, 33330, Note_on_c, 0, 72, 90
2, 33345, Note_on_c, 0, 74, 90
2, 33349, Note_on_c, 0, 72, 0
2, 33360, Note_on_c, 0, 76, 90
2, 33366, Note_on_c, 0, 74, 0
2, 33612, Note_on_c, 0, 76, 0
2, 33630, Note_on_c, 0, 81, 90
2, 33676, Note_on_c, 0, 81, 0
2, 33680, Note_on_c, 0, 79, 90
2, 33692, Note_on_c, 0, 79, 0
2, 33700, Note_on_c, 0, 77, 90
2, 33740, Note_on_c, 0, 76, 90
2, 33746, Note_on_c, 0, 77, 0
2, 33759, Note_on_c, 0, 76, 0
2, 33760, Note_on_c, 0, 74, 90
2, 33800, Note_on_c, 0, 73, 90
2, 33803, Note_on_c, 0, 74, 0
2, 33818, Note_on_c, 0, 73, 0
2, 33820, Note_on_c, 0, 74, 90
2, 33833, Note_on_c, 0, 74, 0
2, 33840, Note_on_c, 0, 74, 90
2, 33926, Note_on_c, 0, 74, 0
2, 33930, Note_on_c, 0, 72, 90
2, 33945, Note_on_c, 0, 70, 90
2, 33946, Note_on_c, 0, 72, 0
2, 33958, Note_on_c, 0, 70, 0
2, 33960, Note_on_c, 0, 72, 90
2, 34028, Note_on_c, 0, 72, 0
2, 34050, Note_on_c, 0, 70, 90
2, 34065, Note_on_c, 0, 69, 90
2, 34065, Note_on_c, 0, 70, 0
2, 34080, Note_on_c, 0, 70, 90
2, 34080, Note_on_c, 0, 69, 0
2, 34158, Note_on_c, 0, 70, 0
2, 34170, Note_on_c, 0, 69, 90
2, 34183, Note_on_c, 0, 69, 0
2, 34185, Note_on_c, 0, 67, 90
2, 34200, Note_on_c, 0, 69, 90
2, 34201, Note_on_c, 0, 67, 0
2, 34269, Note_on_c, 0, 69, 0
2, 34290, Note_on_c, 0, 67, 90
2, 34302, Note_on_c, 0, 67, 0
2, 34305, Note_on_c, 0, 65, 90
2, 34318, Note_on_c, 0, 65, 0
2, 34320, Note_on_c, 0, 67, 90
2, 34331, Note_on_c, 0, 67, 0
2, 34350, Note_on_c, 0, 79, 90
2, 34406, Note_on_c, 0, 79, 0
2, 34410, Note_on_c, 0, 70, 90
2, 34468, Note_on_c, 0, 70, 0
2, 34470, Note_on_c, 0, 69, 90
2, 34527, Note_on_c, 0, 69, 0
2, 34530, Note_on_c, 0, 68, 90
2, 34550, Note_on_c, 0, 68, 0
2, 34560, Note_on_c, 0, 69, 90
2, 34590, Note_on_c, 0, 79, 90
2, 34593, Note_on_c, 0, 69, 0
2, 34638, Note_on_c, 0, 79, 0
2, 34650, Note_on_c, 0, 77, 90
2, 34702, Note_on_c, 0, 77, 0
2, 34710, Note_on_c, 0, 76, 90
2, 34765, Note_on_c, 0, 76, 0
2, 34770, Note_on_c, 0, 77, 90
2, 34789, Note_on_c, 0, 77, 0
2, 34800, Note_on_c, 0, 77, 90
2, 34830, Note_on_c, 0, 76, 90
2, 34838, Note_on_c, 0, 77, 0
2, 34860, Note_on_c, 0, 74, 90
2, 34865, Note_on_c, 0, 76, 0
2, 34905, Note_on_c, 0, 74, 0
2, 34914, Note_on_c, 0, 74, 100
2, 34921, Note_on_c, 0, 76, 90
2, 34924, Note_on_c, 0, 74, 0
2, 34930, Note_on_c, 0, 74, 90
2, 34930, Note_on_c, 0, 76, 0
2, 34950, Note_on_c, 0, 73, 90
2, 34955, Note_on_c, 0, 73, 90
2, 34955, Note_on_c, 0, 74, 0
2, 34980, Note_on_c, 0, 74, 90
2, 34983, Note_on_c, 0, 74, 90
2, 34984, Note_on_c, 0, 73, 0
2, 34985, Note_on_c, 0, 73, 0
2, 35037, Note_on_c, 0, 74, 0
2, 35067, Note_on_c, 0, 74, 0
2, 35070, Note_on_c, 0, 76, 90
2, 35100, Note_on_c, 0, 74, 90
2, 35105, Note_on_c, 0, 76, 0
2, 35130, Note_on_c, 0, 73, 90
2, 35131, Note_on_c, 0, 74, 0
2, 35159, Note_on_c, 0, 73, 0
2, 35160, Note_on_c, 0, 74, 90
2, 35190, Note_on_c, 0, 76, 90
2, 35194, Note_on_c, 0, 74, 0
2, 35220, Note_on_c, 0, 77, 90
2, 35226, Note_on_c, 0, 76, 0
2, 35250, Note_on_c, 0, 79, 90
2, 35253, Note_on_c, 0, 77, 0
2, 35280, Note_on_c, 0, 81, 90
2, 35285, Note_on_c, 0, 79, 0
2, 35334, Note_on_c, 0, 81, 0
2, 35340, Note_on_c, 0, 82, 90
2, 35370, Note_on_c, 0, 81, 90
2, 35373, Note_on_c, 0, 82, 0
2, 35400, Note_on_c, 0, 79, 90
2, 35403, Note_on_c, 0, 81, 0
2, 35430, Note_on_c, 0, 77, 90
2, 35434, Note_on_c, 0, 79, 0
2, 35460, Note_on_c, 0, 76, 90
2, 35465, Note_on_c, 0, 77, 0
2, 35487, Note_on_c, 0, 76, 0
2, 35490, Note_on_c, 0, 74, 90
2, 35520, Note_on_c, 0, 73, 90
2, 35525, Note_on_c, 0, 74, 0
2, 35580, Note_on_c, 0, 76, 90
2, 35589, Note_on_c, 0, 73, 0
2, 35640, Note_on_c, 0, 69, 90
2, 35642, Note_on_c, 0, 76, 0
2, 35676, Note_on_c, 0, 69, 0
2, 35700, Note_on_c, 0, 79, 90
2, 35790, Note_on_c, 0, 77, 90
2, 35792, Note_on_c, 0, 79, 0
2, 35820, Note_on_c, 0, 76, 90
2, 35823, Note_on_c, 0, 77, 0
2, 35849, Note_on_c, 0, 76, 0
2, 35850, Note_on_c, 0, 74, 90
2, 35880, Note_on_c, 0, 77, 90
2, 35883, Note_on_c, 0, 74, 0
2, 35910, Note_on_c, 0, 76, 90
2, 35917, Note_on_c, 0, 77, 0
2, 35940, Note_on_c, 0, 74, 90
2, 35946, Note_on_c, 0, 76, 0
2, 35970, Note_on_c, 0, 72, 90
2, 35972, Note_on_c, 0, 74, 0
2, 36000, Note_on_c, 0, 71, 90
2, 36000, Note_on_c, 0, 72, 0
2, 36060, Note_on_c, 0, 74, 90
2, 36068, Note_on_c, 0, 71, 0
2, 36120, Note_on_c, 0, 67, 90
2, 36120, Note_on_c, 0, 74, 0
2, 36153, Note_on_c, 0, 67, 0
2, 36180, Note_on_c, 0, 77, 90
2, 36269, Note_on_c, 0, 77, 0
2, 36270, Note_on_c, 0, 76, 90
2, 36300, Note_on_c, 0, 74, 90
2, 36309, Note_on_c, 0, 76, 0
2, 36327, Note_on_c, 0, 74, 0
2, 36330, Note_on_c, 0, 72, 90
2, 36360, Note_on_c, 0, 76, 90
2, 36363, Note_on_c, 0, 72, 0
2, 36390, Note_on_c, 0, 74, 90
2, 36398, Note_on_c, 0, 76, 0
2, 36420, Note_on_c, 0, 72, 90
2, 36424, Note_on_c, 0, 74, 0
2, 36450, Note_on_c, 0, 70, 90
2, 36454, Note_on_c, 0, 72, 0
2, 36480, Note_on_c, 0, 69, 90
2, 36481, Note_on_c, 0, 70, 0
2, 36611, Note_on_c, 0, 69, 0
2, 36630, Note_on_c, 0, 67, 90
2, 36660, Note_on_c, 0, 69, 90
2, 36665, Note_on_c, 0, 67, 0
2, 36690, Note_on_c, 0, 72, 90
2, 36694, Note_on_c, 0, 69, 0
2, 36720, Note_on_c, 0, 71, 90
2, 36725, Note_on_c, 0, 72, 0
2, 36750, Note_on_c, 0, 69, 90
2, 36756, Note_on_c, 0, 71, 0
2, 36780, Note_on_c, 0, 71, 90
2, 36787, Note_on_c, 0, 69, 0
2, 36810, Note_on_c, 0, 72, 90
2, 36814, Note_on_c, 0, 71, 0
2, 36840, Note_on_c, 0, 71, 90
2, 36846, Note_on_c, 0, 72, 0
2, 36870, Note_on_c, 0, 69, 90
2, 36876, Note_on_c, 0, 71, 0
2, 36900, Note_on_c, 0, 71, 90
2, 36905, Note_on_c, 0, 69, 0
2, 36930, Note_on_c, 0, 74, 90
2, 36930, Note_on_c, 0, 71, 0
2, 36960, Note_on_c, 0, 73, 90
2, 36966, Note_on_c, 0, 74, 0
2, 36990, Note_on_c, 0, 71, 90
2, 36994, Note_on_c, 0, 73, 0
2, 37020, Note_on_c, 0, 73, 90
2, 37026, Note_on_c, 0, 71, 0
2, 37050, Note_on_c, 0, 74, 90
2, 37053, Note_on_c, 0, 73, 0
2, 37080, Note_on_c, 0, 73, 90
2, 37085, Note_on_c, 0, 74, 0
2, 37110, Note_on_c, 0, 71, 90
2, 37112, Note_on_c, 0, 73, 0
2, 37140, Note_on_c, 0, 73, 90
2, 37150, Note_on_c, 0, 71, 0
2, 37170, Note_on_c, 0, 76, 90
2, 37172, Note_on_c, 0, 73, 0
2, 37202, Note_on_c, 0, 74, 100
2, 37207, Note_on_c, 0, 76, 0
2, 37211, Note_on_c, 0, 74, 0
2, 37212, Note_on_c, 0, 72, 98
2, 37221, Note_on_c, 0, 74, 98
2, 37224, Note_on_c, 0, 72, 0
2, 37418, Note_on_c, 0, 74, 0
2, 37440, Note_on_c, 0, 76, 102
2, 37449, Note_on_c, 0, 74, 93
2, 37450, Note_on_c, 0, 76, 0
2, 37460, Note_on_c, 0, 76, 91
2, 37461, Note_on_c, 0, 74, 0
2, 37669, Note_on_c, 0, 76, 0
2, 37680, Note_on_c, 0, 77, 90
2, 37730, Note_on_c, 0, 77, 0
2, 37740, Note_on_c, 0, 79, 90
2, 37760, Note_on_c, 0, 77, 90
2, 37767, Note_on_c, 0, 79, 0
2, 37780, Note_on_c, 0, 76, 90
2, 37781, Note_on_c, 0, 77, 0
2, 37800, Note_on_c, 0, 77, 90
2, 37808, Note_on_c, 0, 76, 0
2, 37846, Note_on_c, 0, 77, 0
2, 37860, Note_on_c, 0, 76, 90
2, 37880, Note_on_c, 0, 74, 90
2, 37886, Note_on_c, 0, 76, 0
2, 37900, Note_on_c, 0, 73, 90
2, 37903, Note_on_c, 0, 74, 0
2, 37920, Note_on_c, 0, 74, 90
2, 37921, Note_on_c, 0, 73, 0
2, 37959, Note_on_c, 0, 74, 0
2, 37980, Note_on_c, 0, 70, 90
2, 38021, Note_on_c, 0, 70, 0
2, 38040, Note_on_c, 0, 69, 90
2, 38078, Note_on_c, 0, 69, 0
2, 38100, Note_on_c, 0, 67, 90
2, 38138, Note_on_c, 0, 67, 0
2, 38160, Note_on_c, 0, 65, 90
2, 38199, Note_on_c, 0, 65, 0
2, 38220, Note_on_c, 0, 74, 90
2, 38272, Note_on_c, 0, 74, 0
2, 38280, Note_on_c, 0, 64, 90
2, 38318, Note_on_c, 0, 64, 0
2, 38340, Note_on_c, 0, 73, 90
2, 38383, Note_on_c, 0, 73, 0
2, 38400, Note_on_c, 0, 74, 91
2, 38519, Note_on_c, 0, 74, 0
2, 38640, End_track
3, 0, Start_track
3, 0, MIDI_port, 0
3, 0, Title_t, ""
3, 0, Program_c, 1, 19
3, 0, Control_c, 1, 7, 127
3, 0, Control_c, 1, 10, 0
3, 2160, Note_on_c, 1, 72, 91
3, 2190, Note_on_c, 1, 71, 87
3, 2191, Note_on_c, 1, 72, 0
3, 2219, Note_on_c, 1, 71, 0
3, 2220, Note_on_c, 1, 69, 98
3, 2265, Note_on_c, 1, 69, 0
3, 2275, Note_on_c, 1, 69, 102
3, 2282, Note_on_c, 1, 71, 87
3, 2284, Note_on_c, 1, 69, 0
3, 2291, Note_on_c, 1, 69, 89
3, 2292, Note_on_c, 1, 71, 0
3, 2310, Note_on_c, 1, 68, 105
3, 2316, Note_on_c, 1, 69, 0
3, 2340, Note_on_c, 1, 69, 89
3, 2344, Note_on_c, 1, 68, 0
3, 2430, Note_on_c, 1, 71, 80
3, 2433, Note_on_c, 1, 69, 0
3, 2460, Note_on_c, 1, 69, 80
3, 2465, Note_on_c, 1, 71, 0
3, 2490, Note_on_c, 1, 68, 66
3, 2493, Note_on_c, 1, 69, 0
3, 2519, Note_on_c, 1, 68, 0
3, 2520, Note_on_c, 1, 69, 82
3, 2550, Note_on_c, 1, 71, 85
3, 2554, Note_on_c, 1, 69, 0
3, 2580, Note_on_c, 1, 72, 98
3, 2586, Note_on_c, 1, 71, 0
3, 2610, Note_on_c, 1, 74, 98
3, 2615, Note_on_c, 1, 72, 0
3, 2640, Note_on_c, 1, 76, 100
3, 2645, Note_on_c, 1, 74, 0
3, 2700, Note_on_c, 1, 77, 93
3, 2707, Note_on_c, 1, 76, 0
3, 2730, Note_on_c, 1, 76, 85
3, 2737, Note_on_c, 1, 77, 0
3, 2760, Note_on_c, 1, 74, 89
3, 2766, Note_on_c, 1, 76, 0
3, 2790, Note_on_c, 1, 72, 85
3, 2794, Note_on_c, 1, 74, 0
3, 2820, Note_on_c, 1, 71, 85
3, 2820, Note_on_c, 1, 72, 0
3, 2850, Note_on_c, 1, 69, 93
3, 2852, Note_on_c, 1, 71, 0
3, 2880, Note_on_c, 1, 68, 102
3, 2883, Note_on_c, 1, 69, 0
3, 2940, Note_on_c, 1, 71, 98
3, 2946, Note_on_c, 1, 68, 0
3, 3000, Note_on_c, 1, 64, 87
3, 3003, Note_on_c, 1, 71, 0
3, 3038, Note_on_c, 1, 64, 0
3, 3060, Note_on_c, 1, 74, 100
3, 3150, Note_on_c, 1, 72, 91
3, 3152, Note_on_c, 1, 74, 0
3, 3180, Note_on_c, 1, 71, 89
3, 3183, Note_on_c, 1, 72, 0
3, 3209, Note_on_c, 1, 71, 0
3, 3210, Note_on_c, 1, 69, 78
3, 3240, Note_on_c, 1, 72, 85
3, 3242, Note_on_c, 1, 69, 0
3, 3270, Note_on_c, 1, 71, 100
3, 3275, Note_on_c, 1, 72, 0
3, 3300, Note_on_c, 1, 69, 93
3, 3306, Note_on_c, 1, 71, 0
3, 3329, Note_on_c, 1, 69, 0
3, 3330, Note_on_c, 1, 67, 85
3, 3360, Note_on_c, 1, 66, 102
3, 3364, Note_on_c, 1, 67, 0
3, 3420, Note_on_c, 1, 69, 91
3, 3427, Note_on_c, 1, 66, 0
3, 3480, Note_on_c, 1, 62, 87
3, 3482, Note_on_c, 1, 69, 0
3, 3522, Note_on_c, 1, 62, 0
3, 3540, Note_on_c, 1, 72, 105
3, 3630, Note_on_c, 1, 71, 82
3, 3630, Note_on_c, 1, 72, 0
3, 3660, Note_on_c, 1, 69, 89
3, 3663, Note_on_c, 1, 71, 0
3, 3690, Note_on_c, 1, 67, 87
3, 3691, Note_on_c, 1, 69, 0
3, 3720, Note_on_c, 1, 71, 85
3, 3723, Note_on_c, 1, 67, 0
3, 3750, Note_on_c, 1, 69, 89
3, 3754, Note_on_c, 1, 71, 0
3, 3780, Note_on_c, 1, 67, 85
3, 3788, Note_on_c, 1, 69, 0
3, 3810, Note_on_c, 1, 65, 82
3, 3816, Note_on_c, 1, 67, 0
3, 3840, Note_on_c, 1, 64, 87
3, 3843, Note_on_c, 1, 65, 0
3, 3899, Control_c, 1, 2, 6
3, 3901, Control_c, 1, 2, 11
3, 3903, Control_c, 1, 2, 17
3, 3905, Control_c, 1, 2, 0
3, 3990, Note_on_c, 1, 62, 100
3, 3999, Note_on_c, 1, 64, 0
3, 4020, Note_on_c, 1, 64, 91
3, 4028, Note_on_c, 1, 62, 0
3, 4050, Note_on_c, 1, 67, 76
3, 4052, Note_on_c, 1, 64, 0
3, 4080, Note_on_c, 1, 66, 100
3, 4087, Note_on_c, 1, 67, 0
3, 4110, Note_on_c, 1, 64, 87
3, 4113, Note_on_c, 1, 66, 0
3, 4140, Note_on_c, 1, 66, 89
3, 4149, Note_on_c, 1, 64, 0
3, 4170, Note_on_c, 1, 67, 89
3, 4173, Note_on_c, 1, 66, 0
3, 4200, Note_on_c, 1, 66, 105
3, 4208, Note_on_c, 1, 67, 0
3, 4230, Note_on_c, 1, 64, 95
3, 4238, Note_on_c, 1, 66, 0
3, 4260, Note_on_c, 1, 66, 100
3, 4266, Note_on_c, 1, 64, 0
3, 4290, Note_on_c, 1, 69, 68
3, 4290, Note_on_c, 1, 71, 68
3, 4293, Note_on_c, 1, 66, 0
3, 4303, Note_on_c, 1, 71, 0
3, 4320, Note_on_c, 1, 68, 110
3, 4322, Note_on_c, 1, 69, 0
3, 4350, Note_on_c, 1, 66, 82
3, 4354, Note_on_c, 1, 68, 0
3, 4380, Note_on_c, 1, 68, 100
3, 4390, Note_on_c, 1, 66, 0
3, 4410, Note_on_c, 1, 69, 87
3, 4414, Note_on_c, 1, 68, 0
3, 4440, Note_on_c, 1, 68, 102
3, 4450, Note_on_c, 1, 69, 0
3, 4470, Note_on_c, 1, 66, 91
3, 4474, Note_on_c, 1, 68, 0
3, 4500, Note_on_c, 1, 68, 102
3, 4507, Note_on_c, 1, 66, 0
3, 4530, Note_on_c, 1, 71, 85
3, 4533, Note_on_c, 1, 68, 0
3, 4562, Note_on_c, 1, 69, 102
3, 4567, Note_on_c, 1, 71, 0
3, 4572, Note_on_c, 1, 68, 102
3, 4572, Note_on_c, 1, 69, 0
3, 4582, Note_on_c, 1, 69, 78
3, 4584, Note_on_c, 1, 68, 0
3, 4790, Note_on_c, 1, 69, 0
3, 4799, Note_on_c, 1, 71, 100
3, 4807, Note_on_c, 1, 71, 0
3, 4809, Note_on_c, 1, 69, 100
3, 4819, Note_on_c, 1, 69, 0
3, 4820, Note_on_c, 1, 71, 102
3, 5036, Note_on_c, 1, 71, 0
3, 5040, Note_on_c, 1, 72, 105
3, 5087, Note_on_c, 1, 72, 0
3, 5100, Note_on_c, 1, 74, 98
3, 5120, Note_on_c, 1, 72, 98
3, 5126, Note_on_c, 1, 74, 0
3, 5140, Note_on_c, 1, 71, 105
3, 5141, Note_on_c, 1, 72, 0
3, 5160, Note_on_c, 1, 72, 98
3, 5162, Note_on_c, 1, 71, 0
3, 5220, Note_on_c, 1, 71, 102
3, 5226, Note_on_c, 1, 72, 0
3, 5240, Note_on_c, 1, 69, 85
3, 5241, Note_on_c, 1, 71, 0
3, 5260, Note_on_c, 1, 68, 105
3, 5261, Note_on_c, 1, 69, 0
3, 5280, Note_on_c, 1, 69, 102
3, 5281, Note_on_c, 1, 68, 0
3, 5327, Note_on_c, 1, 69, 0
3, 5340, Note_on_c, 1, 65, 87
3, 5385, Note_on_c, 1, 65, 0
3, 5400, Note_on_c, 1, 64, 100
3, 5440, Note_on_c, 1, 64, 0
3, 5460, Note_on_c, 1, 62, 100
3, 5500, Note_on_c, 1, 62, 0
3, 5520, Note_on_c, 1, 60, 98
3, 5564, Note_on_c, 1, 60, 0
3, 5580, Note_on_c, 1, 69, 93
3, 5624, Note_on_c, 1, 69, 0
3, 5640, Note_on_c, 1, 59, 85
3, 5682, Note_on_c, 1, 59, 0
3, 5700, Note_on_c, 1, 68, 93
3, 5745, Note_on_c, 1, 68, 0
3, 5760, Note_on_c, 1, 69, 102
3, 5831, Note_on_c, 1, 69, 0
3, 6000, Note_on_c, 1, 62, 100
3, 6075, Note_on_c, 1, 64, 72
3, 6081, Note_on_c, 1, 62, 0
3, 6090, Note_on_c, 1, 62, 85
3, 6099, Note_on_c, 1, 64, 0
3, 6105, Note_on_c, 1, 61, 95
3, 6106, Note_on_c, 1, 62, 0
3, 6119, Note_on_c, 1, 61, 0
3, 6120, Note_on_c, 1, 62, 89
3, 6150, Note_on_c, 1, 64, 100
3, 6153, Note_on_c, 1, 62, 0
3, 6180, Note_on_c, 1, 65, 102
3, 6181, Note_on_c, 1, 64, 0
3, 6210, Note_on_c, 1, 67, 100
3, 6218, Note_on_c, 1, 65, 0
3, 6225, Note_on_c, 1, 69, 98
3, 6227, Note_on_c, 1, 67, 0
3, 6240, Note_on_c, 1, 70, 91
3, 6243, Note_on_c, 1, 69, 0
3, 6524, Note_on_c, 1, 70, 0
3, 6555, Note_on_c, 1, 62, 91
3, 6570, Note_on_c, 1, 60, 100
3, 6574, Note_on_c, 1, 62, 0
3, 6585, Note_on_c, 1, 59, 102
3, 6586, Note_on_c, 1, 60, 0
3, 6598, Note_on_c, 1, 59, 0
3, 6600, Note_on_c, 1, 60, 91
3, 6630, Note_on_c, 1, 62, 100
3, 6655, Note_on_c, 1, 60, 0
3, 6660, Note_on_c, 1, 64, 98
3, 6671, Note_on_c, 1, 62, 0
3, 6686, Note_on_c, 1, 64, 0
3, 6690, Note_on_c, 1, 65, 91
3, 6705, Note_on_c, 1, 67, 105
3, 6716, Note_on_c, 1, 65, 0
3, 6719, Note_on_c, 1, 67, 0
3, 6720, Note_on_c, 1, 69, 100
3, 6990, Note_on_c, 1, 67, 87
3, 7003, Note_on_c, 1, 67, 0
3, 7005, Note_on_c, 1, 65, 93
3, 7006, Note_on_c, 1, 69, 0
3, 7020, Note_on_c, 1, 67, 93
3, 7024, Note_on_c, 1, 65, 0
3, 7095, Note_on_c, 1, 67, 0
3, 7110, Note_on_c, 1, 65, 102
3, 7118, Note_on_c, 1, 65, 0
3, 7125, Note_on_c, 1, 64, 89
3, 7140, Note_on_c, 1, 65, 93
3, 7140, Note_on_c, 1, 64, 0
3, 7220, Note_on_c, 1, 65, 0
3, 7230, Note_on_c, 1, 64, 98
3, 7240, Note_on_c, 1, 64, 0
3, 7245, Note_on_c, 1, 62, 89
3, 7260, Note_on_c, 1, 64, 105
3, 7263, Note_on_c, 1, 62, 0
3, 7343, Note_on_c, 1, 64, 0
3, 7350, Note_on_c, 1, 62, 102
3, 7362, Note_on_c, 1, 62, 0
3, 7365, Note_on_c, 1, 60, 78
3, 7365, Note_on_c, 1, 61, 57
3, 7374, Note_on_c, 1, 61, 0
3, 7377, Note_on_c, 1, 60, 0
3, 7380, Note_on_c, 1, 62, 89
3, 7500, Note_on_c, 1, 61, 110
3, 7508, Note_on_c, 1, 62, 0
3, 7560, Note_on_c, 1, 65, 98
3, 7560, Note_on_c, 1, 61, 0
3, 7620, Note_on_c, 1, 59, 102
3, 7626, Note_on_c, 1, 65, 0
3, 7680, Note_on_c, 1, 64, 93
3, 7684, Note_on_c, 1, 59, 0
3, 7740, Note_on_c, 1, 57, 80
3, 7742, Note_on_c, 1, 64, 0
3, 7800, Note_on_c, 1, 69, 93
3, 7805, Note_on_c, 1, 57, 0
3, 7860, Note_on_c, 1, 61, 95
3, 7862, Note_on_c, 1, 69, 0
3, 7920, Note_on_c, 1, 62, 91
3, 7922, Note_on_c, 1, 61, 0
3, 7979, Note_on_c, 1, 62, 0
3, 7980, Note_on_c, 1, 70, 98
3, 8040, Note_on_c, 1, 69, 87
3, 8043, Note_on_c, 1, 70, 0
3, 8100, Note_on_c, 1, 67, 85
3, 8104, Note_on_c, 1, 69, 0
3, 8160, Note_on_c, 1, 65, 98
3, 8166, Note_on_c, 1, 67, 0
3, 8220, Note_on_c, 1, 67, 85
3, 8223, Note_on_c, 1, 65, 0
3, 8280, Note_on_c, 1, 65, 102
3, 8286, Note_on_c, 1, 67, 0
3, 8340, Note_on_c, 1, 64, 100
3, 8347, Note_on_c, 1, 65, 0
3, 8400, Note_on_c, 1, 62, 87
3, 8403, Note_on_c, 1, 64, 0
3, 8531, Note_on_c, 1, 62, 0
3, 8580, Note_on_c, 1, 67, 100
3, 8670, Note_on_c, 1, 69, 82
3, 8674, Note_on_c, 1, 67, 0
3, 8700, Note_on_c, 1, 67, 80
3, 8701, Note_on_c, 1, 69, 0
3, 8730, Note_on_c, 1, 65, 87
3, 8731, Note_on_c, 1, 67, 0
3, 8760, Note_on_c, 1, 67, 87
3, 8767, Note_on_c, 1, 65, 0
3, 8790, Note_on_c, 1, 69, 91
3, 8795, Note_on_c, 1, 67, 0
3, 8820, Note_on_c, 1, 71, 87
3, 8826, Note_on_c, 1, 69, 0
3, 8850, Note_on_c, 1, 73, 80
3, 8850, Note_on_c, 1, 71, 0
3, 8880, Note_on_c, 1, 74, 98
3, 8885, Note_on_c, 1, 73, 0
3, 8922, Note_on_c, 1, 74, 0
3, 8940, Note_on_c, 1, 69, 78
3, 8994, Note_on_c, 1, 69, 0
3, 9000, Note_on_c, 1, 62, 93
3, 9044, Note_on_c, 1, 62, 0
3, 9060, Note_on_c, 1, 65, 95
3, 9149, Note_on_c, 1, 65, 0
3, 9150, Note_on_c, 1, 67, 82
3, 9180, Note_on_c, 1, 65, 100
3, 9187, Note_on_c, 1, 67, 0
3, 9210, Note_on_c, 1, 64, 98
3, 9216, Note_on_c, 1, 65, 0
3, 9240, Note_on_c, 1, 65, 82
3, 9240, Note_on_c, 1, 64, 0
3, 9270, Note_on_c, 1, 67, 87
3, 9274, Note_on_c, 1, 65, 0
3, 9300, Note_on_c, 1, 69, 100
3, 9305, Note_on_c, 1, 67, 0
3, 9330, Note_on_c, 1, 71, 105
3, 9336, Note_on_c, 1, 69, 0
3, 9360, Note_on_c, 1, 72, 102
3, 9362, Note_on_c, 1, 71, 0
3, 9398, Note_on_c, 1, 72, 0
3, 9420, Note_on_c, 1, 67, 89
3, 9476, Note_on_c, 1, 67, 0
3, 9480, Note_on_c, 1, 60, 89
3, 9540, Note_on_c, 1, 64, 100
3, 9543, Note_on_c, 1, 60, 0
3, 9616, Note_on_c, 1, 64, 0
3, 9630, Note_on_c, 1, 69, 95
3, 9660, Note_on_c, 1, 67, 87
3, 9664, Note_on_c, 1, 69, 0
3, 9690, Note_on_c, 1, 69, 85
3, 9695, Note_on_c, 1, 67, 0
3, 9722, Note_on_c, 1, 62, 100
3, 9723, Note_on_c, 1, 69, 0
3, 9733, Note_on_c, 1, 62, 0
3, 9734, Note_on_c, 1, 60, 89
3, 9745, Note_on_c, 1, 62, 102
3, 9746, Note_on_c, 1, 60, 0
3, 9956, Note_on_c, 1, 62, 0
3, 9960, Note_on_c, 1, 64, 107
3, 9970, Note_on_c, 1, 64, 0
3, 9972, Note_on_c, 1, 62, 105
3, 9981, Note_on_c, 1, 64, 98
3, 9983, Note_on_c, 1, 62, 0
3, 10200, Note_on_c, 1, 64, 0
3, 10204, Note_on_c, 1, 65, 105
3, 10214, Note_on_c, 1, 65, 0
3, 10215, Note_on_c, 1, 64, 98
3, 10225, Note_on_c, 1, 65, 102
3, 10227, Note_on_c, 1, 64, 0
3, 10345, Note_on_c, 1, 65, 0
3, 10350, Note_on_c, 1, 64, 93
3, 10380, Note_on_c, 1, 65, 89
3, 10383, Note_on_c, 1, 64, 0
3, 10410, Note_on_c, 1, 69, 78
3, 10412, Note_on_c, 1, 65, 0
3, 10440, Note_on_c, 1, 67, 95
3, 10446, Note_on_c, 1, 69, 0
3, 10470, Note_on_c, 1, 65, 93
3, 10476, Note_on_c, 1, 67, 0
3, 10500, Note_on_c, 1, 67, 98
3, 10505, Note_on_c, 1, 65, 0
3, 10530, Note_on_c, 1, 69, 82
3, 10533, Note_on_c, 1, 67, 0
3, 10560, Note_on_c, 1, 67, 82
3, 10562, Note_on_c, 1, 69, 0
3, 10590, Note_on_c, 1, 65, 76
3, 10594, Note_on_c, 1, 67, 0
3, 10620, Note_on_c, 1, 67, 93
3, 10624, Note_on_c, 1, 65, 0
3, 10650, Note_on_c, 1, 70, 66
3, 10655, Note_on_c, 1, 67, 0
3, 10680, Note_on_c, 1, 69, 89
3, 10687, Note_on_c, 1, 70, 0
3, 10710, Note_on_c, 1, 67, 91
3, 10716, Note_on_c, 1, 69, 0
3, 10740, Note_on_c, 1, 69, 102
3, 10746, Note_on_c, 1, 67, 0
3, 10770, Note_on_c, 1, 70, 100
3, 10773, Note_on_c, 1, 69, 0
3, 10800, Note_on_c, 1, 69, 100
3, 10806, Note_on_c, 1, 70, 0
3, 10845, Note_on_c, 1, 69, 0
3, 10860, Note_on_c, 1, 70, 100
3, 10880, Note_on_c, 1, 69, 98
3, 10886, Note_on_c, 1, 70, 0
3, 10900, Note_on_c, 1, 67, 100
3, 10903, Note_on_c, 1, 69, 0
3, 10920, Note_on_c, 1, 69, 100
3, 10924, Note_on_c, 1, 67, 0
3, 10973, Note_on_c, 1, 69, 0
3, 10980, Note_on_c, 1, 67, 102
3, 11000, Note_on_c, 1, 65, 95
3, 11003, Note_on_c, 1, 67, 0
3, 11018, Note_on_c, 1, 65, 0
3, 11020, Note_on_c, 1, 64, 87
3, 11040, Note_on_c, 1, 65, 105
3, 11041, Note_on_c, 1, 64, 0
3, 11085, Note_on_c, 1, 65, 0
3, 11100, Note_on_c, 1, 67, 98
3, 11141, Note_on_c, 1, 67, 0
3, 11160, Note_on_c, 1, 65, 100
3, 11200, Note_on_c, 1, 65, 0
3, 11220, Note_on_c, 1, 64, 98
3, 11261, Note_on_c, 1, 64, 0
3, 11280, Note_on_c, 1, 62, 95
3, 11310, Note_on_c, 1, 65, 87
3, 11314, Note_on_c, 1, 62, 0
3, 11340, Note_on_c, 1, 70, 82
3, 11341, Note_on_c, 1, 65, 0
3, 11370, Note_on_c, 1, 64, 85
3, 11375, Note_on_c, 1, 70, 0
3, 11400, Note_on_c, 1, 67, 80
3, 11406, Note_on_c, 1, 64, 0
3, 11430, Note_on_c, 1, 65, 85
3, 11436, Note_on_c, 1, 67, 0
3, 11460, Note_on_c, 1, 64, 89
3, 11470, Note_on_c, 1, 65, 0
3, 11490, Note_on_c, 1, 62, 82
3, 11492, Note_on_c, 1, 64, 0
3, 11514, Note_on_c, 1, 62, 0
3, 11520, Note_on_c, 1, 62, 89
3, 11652, Note_on_c, 1, 62, 0
3, 12180, Note_on_c, 1, 65, 102
3, 12300, Note_on_c, 1, 64, 107
3, 12311, Note_on_c, 1, 65, 0
3, 12320, Note_on_c, 1, 62, 100
3, 12323, Note_on_c, 1, 64, 0
3, 12338, Note_on_c, 1, 62, 0
3, 12340, Note_on_c, 1, 60, 87
3, 12360, Note_on_c, 1, 70, 93
3, 12362, Note_on_c, 1, 60, 0
3, 12413, Note_on_c, 1, 70, 0
3, 12420, Note_on_c, 1, 69, 85
3, 12465, Note_on_c, 1, 69, 0
3, 12482, Note_on_c, 1, 69, 85
3, 12490, Note_on_c, 1, 70, 91
3, 12492, Note_on_c, 1, 69, 0
3, 12497, Note_on_c, 1, 69, 80
3, 12500, Note_on_c, 1, 70, 0
3, 12529, Note_on_c, 1, 69, 0
3, 12540, Note_on_c, 1, 67, 100
3, 12607, Note_on_c, 1, 67, 0
3, 12630, Note_on_c, 1, 69, 93
3, 12660, Note_on_c, 1, 70, 87
3, 12664, Note_on_c, 1, 69, 0
3, 12689, Note_on_c, 1, 70, 0
3, 12690, Note_on_c, 1, 72, 78
3, 12720, Note_on_c, 1, 74, 100
3, 12725, Note_on_c, 1, 72, 0
3, 12780, Note_on_c, 1, 76, 105
3, 12785, Note_on_c, 1, 74, 0
3, 12810, Note_on_c, 1, 78, 110
3, 12816, Note_on_c, 1, 76, 0
3, 12840, Note_on_c, 1, 79, 95
3, 12843, Note_on_c, 1, 78, 0
3, 12900, Note_on_c, 1, 78, 102
3, 12904, Note_on_c, 1, 79, 0
3, 12930, Note_on_c, 1, 76, 100
3, 12934, Note_on_c, 1, 78, 0
3, 12960, Note_on_c, 1, 74, 102
3, 12968, Note_on_c, 1, 76, 0
3, 12990, Note_on_c, 1, 72, 76
3, 12992, Note_on_c, 1, 74, 0
3, 13020, Note_on_c, 1, 70, 102
3, 13026, Note_on_c, 1, 72, 0
3, 13050, Note_on_c, 1, 69, 100
3, 13052, Note_on_c, 1, 70, 0
3, 13080, Note_on_c, 1, 67, 85
3, 13085, Note_on_c, 1, 69, 0
3, 13127, Note_on_c, 1, 67, 0
3, 13140, Note_on_c, 1, 70, 107
3, 13187, Note_on_c, 1, 70, 0
3, 13200, Note_on_c, 1, 70, 91
3, 13212, Note_on_c, 1, 72, 89
3, 13214, Note_on_c, 1, 70, 0
3, 13217, Note_on_c, 1, 70, 76
3, 13222, Note_on_c, 1, 72, 0
3, 13260, Note_on_c, 1, 69, 100
3, 13263, Note_on_c, 1, 70, 0
3, 13327, Note_on_c, 1, 69, 0
3, 13380, Note_on_c, 1, 79, 89
3, 13418, Note_on_c, 1, 79, 0
3, 13438, Note_on_c, 1, 79, 102
3, 13446, Note_on_c, 1, 81, 85
3, 13447, Note_on_c, 1, 79, 0
3, 13453, Note_on_c, 1, 79, 78
3, 13454, Note_on_c, 1, 81, 0
3, 13495, Note_on_c, 1, 79, 0
3, 13500, Note_on_c, 1, 78, 95
3, 13562, Note_on_c, 1, 78, 0
3, 13620, Note_on_c, 1, 78, 102
3, 13676, Note_on_c, 1, 78, 0
3, 13680, Note_on_c, 1, 79, 72
3, 13700, Note_on_c, 1, 74, 68
3, 13711, Note_on_c, 1, 79, 0
3, 13720, Note_on_c, 1, 70, 76
3, 13723, Note_on_c, 1, 74, 0
3, 13740, Note_on_c, 1, 67, 78
3, 13741, Note_on_c, 1, 70, 0
3, 13760, Note_on_c, 1, 70, 78
3, 13763, Note_on_c, 1, 67, 0
3, 13780, Note_on_c, 1, 74, 76
3, 13786, Note_on_c, 1, 70, 0
3, 13800, Note_on_c, 1, 77, 98
3, 13800, Note_on_c, 1, 74, 0
3, 13820, Note_on_c, 1, 74, 89
3, 13825, Note_on_c, 1, 77, 0
3, 13840, Note_on_c, 1, 70, 93
3, 13846, Note_on_c, 1, 74, 0
3, 13860, Note_on_c, 1, 67, 85
3, 13860, Note_on_c, 1, 70, 0
3, 13880, Note_on_c, 1, 70, 89
3, 13884, Note_on_c, 1, 67, 0
3, 13900, Note_on_c, 1, 74, 82
3, 13901, Note_on_c, 1, 70, 0
3, 13920, Note_on_c, 1, 75, 102
3, 13925, Note_on_c, 1, 74, 0
3, 13940, Note_on_c, 1, 72, 80
3, 13946, Note_on_c, 1, 75, 0
3, 13960, Note_on_c, 1, 70, 68
3, 13965, Note_on_c, 1, 72, 0
3, 13980, Note_on_c, 1, 67, 82
3, 13982, Note_on_c, 1, 70, 0
3, 14000, Note_on_c, 1, 70, 85
3, 14005, Note_on_c, 1, 67, 0
3, 14020, Note_on_c, 1, 72, 78
3, 14021, Note_on_c, 1, 70, 0
3, 14040, Note_on_c, 1, 75, 100
3, 14046, Note_on_c, 1, 72, 0
3, 14060, Note_on_c, 1, 72, 78
3, 14070, Note_on_c, 1, 75, 0
3, 14080, Note_on_c, 1, 70, 68
3, 14084, Note_on_c, 1, 72, 0
3, 14099, Note_on_c, 1, 70, 0
3, 14100, Note_on_c, 1, 67, 85
3, 14120, Note_on_c, 1, 70, 72
3, 14126, Note_on_c, 1, 67, 0
3, 14140, Note_on_c, 1, 72, 66
3, 14147, Note_on_c, 1, 70, 0
3, 14160, Note_on_c, 1, 75, 91
3, 14166, Note_on_c, 1, 72, 0
3, 14180, Note_on_c, 1, 72, 72
3, 14188, Note_on_c, 1, 75, 0
3, 14200, Note_on_c, 1, 69, 68
3, 14207, Note_on_c, 1, 72, 0
3, 14220, Note_on_c, 1, 65, 78
3, 14222, Note_on_c, 1, 69, 0
3, 14240, Note_on_c, 1, 69, 78
3, 14250, Note_on_c, 1, 65, 0
3, 14260, Note_on_c, 1, 72, 80
3, 14264, Note_on_c, 1, 69, 0
3, 14280, Note_on_c, 1, 75, 91
3, 14284, Note_on_c, 1, 72, 0
3, 14300, Note_on_c, 1, 72, 82
3, 14309, Note_on_c, 1, 75, 0
3, 14320, Note_on_c, 1, 68, 82
3, 14324, Note_on_c, 1, 72, 0
3, 14340, Note_on_c, 1, 65, 82
3, 14343, Note_on_c, 1, 68, 0
3, 14360, Note_on_c, 1, 68, 80
3, 14367, Note_on_c, 1, 65, 0
3, 14380, Note_on_c, 1, 72, 82
3, 14381, Note_on_c, 1, 68, 0
3, 14400, Note_on_c, 1, 74, 95
3, 14405, Note_on_c, 1, 72, 0
3, 14420, Note_on_c, 1, 70, 87
3, 14428, Note_on_c, 1, 74, 0
3, 14440, Note_on_c, 1, 68, 87
3, 14444, Note_on_c, 1, 70, 0
3, 14460, Note_on_c, 1, 65, 82
3, 14461, Note_on_c, 1, 68, 0
3, 14480, Note_on_c, 1, 68, 89
3, 14488, Note_on_c, 1, 65, 0
3, 14500, Note_on_c, 1, 70, 66
3, 14503, Note_on_c, 1, 68, 0
3, 14520, Note_on_c, 1, 74, 91
3, 14526, Note_on_c, 1, 70, 0
3, 14540, Note_on_c, 1, 70, 100
3, 14548, Note_on_c, 1, 74, 0
3, 14560, Note_on_c, 1, 68, 82
3, 14566, Note_on_c, 1, 70, 0
3, 14579, Note_on_c, 1, 68, 0
3, 14580, Note_on_c, 1, 65, 82
3, 14600, Note_on_c, 1, 68, 89
3, 14605, Note_on_c, 1, 65, 0
3, 14620, Note_on_c, 1, 70, 93
3, 14628, Note_on_c, 1, 68, 0
3, 14640, Note_on_c, 1, 74, 93
3, 14646, Note_on_c, 1, 70, 0
3, 14670, Note_on_c, 1, 72, 89
3, 14684, Note_on_c, 1, 74, 0
3, 14685, Note_on_c, 1, 71, 105
3, 14685, Note_on_c, 1, 72, 0
3, 14699, Note_on_c, 1, 71, 0
3, 14700, Note_on_c, 1, 72, 95
3, 14785, Note_on_c, 1, 72, 0
3, 14790, Note_on_c, 1, 70, 102
3, 14805, Note_on_c, 1, 69, 102
3, 14806, Note_on_c, 1, 70, 0
3, 14820, Note_on_c, 1, 70, 105
3, 14823, Note_on_c, 1, 69, 0
3, 14898, Note_on_c, 1, 70, 0
3, 14910, Note_on_c, 1, 69, 100
3, 14925, Note_on_c, 1, 67, 107
3, 14925, Note_on_c, 1, 69, 0
3, 14940, Note_on_c, 1, 69, 95
3, 14941, Note_on_c, 1, 67, 0
3, 15029, Note_on_c, 1, 69, 0
3, 15030, Note_on_c, 1, 67, 100
3, 15044, Note_on_c, 1, 67, 0
3, 15045, Note_on_c, 1, 66, 105
3, 15059, Note_on_c, 1, 66, 0
3, 15060, Note_on_c, 1, 67, 85
3, 15180, Note_on_c, 1, 66, 107
3, 15185, Note_on_c, 1, 67, 0
3, 15240, Note_on_c, 1, 70, 95
3, 15243, Note_on_c, 1, 66, 0
3, 15300, Note_on_c, 1, 64, 82
3, 15304, Note_on_c, 1, 70, 0
3, 15360, Note_on_c, 1, 69, 76
3, 15361, Note_on_c, 1, 64, 0
3, 15420, Note_on_c, 1, 62, 87
3, 15420, Note_on_c, 1, 69, 0
3, 15480, Note_on_c, 1, 74, 100
3, 15487, Note_on_c, 1, 62, 0
3, 15539, Note_on_c, 1, 74, 0
3, 15540, Note_on_c, 1, 66, 89
3, 15600, Note_on_c, 1, 67, 85
3, 15604, Note_on_c, 1, 66, 0
3, 15644, Note_on_c, 1, 67, 0
3, 15660, Note_on_c, 1, 75, 100
3, 15677, Note_on_c, 1, 75, 0
3, 15680, Note_on_c, 1, 74, 85
3, 15698, Note_on_c, 1, 74, 0
3, 15700, Note_on_c, 1, 72, 105
3, 15720, Note_on_c, 1, 74, 105
3, 15725, Note_on_c, 1, 72, 0
3, 15768, Note_on_c, 1, 74, 0
3, 15780, Note_on_c, 1, 72, 102
3, 15800, Note_on_c, 1, 70, 89
3, 15807, Note_on_c, 1, 72, 0
3, 15816, Note_on_c, 1, 70, 0
3, 15820, Note_on_c, 1, 69, 91
3, 15840, Note_on_c, 1, 70, 105
3, 15840, Note_on_c, 1, 69, 0
3, 15887, Note_on_c, 1, 70, 0
3, 15900, Note_on_c, 1, 72, 98
3, 15940, Note_on_c, 1, 72, 0
3, 15960, Note_on_c, 1, 70, 105
3, 16004, Note_on_c, 1, 70, 0
3, 16020, Note_on_c, 1, 69, 95
3, 16068, Note_on_c, 1, 69, 0
3, 16080, Note_on_c, 1, 67, 98
3, 16110, Note_on_c, 1, 70, 105
3, 16116, Note_on_c, 1, 67, 0
3, 16140, Note_on_c, 1, 75, 87
3, 16140, Note_on_c, 1, 70, 0
3, 16170, Note_on_c, 1, 69, 93
3, 16173, Note_on_c, 1, 75, 0
3, 16200, Note_on_c, 1, 72, 87
3, 16208, Note_on_c, 1, 69, 0
3, 16230, Note_on_c, 1, 70, 102
3, 16241, Note_on_c, 1, 72, 0
3, 16260, Note_on_c, 1, 69, 95
3, 16266, Note_on_c, 1, 70, 0
3, 16290, Note_on_c, 1, 67, 85
3, 16296, Note_on_c, 1, 69, 0
3, 16308, Note_on_c, 1, 67, 0
3, 16320, Note_on_c, 1, 67, 93
3, 16390, Note_on_c, 1, 67, 0
3, 16395, Note_on_c, 1, 63, 98
3, 16410, Note_on_c, 1, 62, 95
3, 16415, Note_on_c, 1, 63, 0
3, 16425, Note_on_c, 1, 61, 107
3, 16427, Note_on_c, 1, 62, 0
3, 16440, Note_on_c, 1, 62, 98
3, 16440, Note_on_c, 1, 61, 0
3, 16470, Note_on_c, 1, 64, 100
3, 16474, Note_on_c, 1, 62, 0
3, 16500, Note_on_c, 1, 66, 105
3, 16500, Note_on_c, 1, 64, 0
3, 16527, Note_on_c, 1, 66, 0
3, 16530, Note_on_c, 1, 67, 89
3, 16545, Note_on_c, 1, 69, 110
3, 16548, Note_on_c, 1, 67, 0
3, 16560, Note_on_c, 1, 70, 107
3, 16564, Note_on_c, 1, 69, 0
3, 16836, Note_on_c, 1, 70, 0
3, 16875, Note_on_c, 1, 62, 87
3, 16890, Note_on_c, 1, 60, 98
3, 16893, Note_on_c, 1, 62, 0
3, 16905, Note_on_c, 1, 59, 105
3, 16908, Note_on_c, 1, 60, 0
3, 16918, Note_on_c, 1, 59, 0
3, 16920, Note_on_c, 1, 60, 89
3, 16950, Note_on_c, 1, 62, 91
3, 16951, Note_on_c, 1, 60, 0
3, 16980, Note_on_c, 1, 63, 102
3, 16982, Note_on_c, 1, 62, 0
3, 17006, Note_on_c, 1, 63, 0
3, 17010, Note_on_c, 1, 65, 87
3, 17025, Note_on_c, 1, 67, 105
3, 17028, Note_on_c, 1, 65, 0
3, 17040, Note_on_c, 1, 69, 102
3, 17041, Note_on_c, 1, 67, 0
3, 17335, Note_on_c, 1, 69, 0
3, 17355, Note_on_c, 1, 60, 82
3, 17370, Note_on_c, 1, 58, 105
3, 17371, Note_on_c, 1, 60, 0
3, 17385, Note_on_c, 1, 57, 107
3, 17385, Note_on_c, 1, 58, 0
3, 17400, Note_on_c, 1, 58, 107
3, 17404, Note_on_c, 1, 57, 0
3, 17424, Note_on_c, 1, 58, 0
3, 17430, Note_on_c, 1, 60, 87
3, 17460, Note_on_c, 1, 62, 100
3, 17462, Note_on_c, 1, 60, 0
3, 17490, Note_on_c, 1, 63, 87
3, 17497, Note_on_c, 1, 62, 0
3, 17505, Note_on_c, 1, 65, 105
3, 17509, Note_on_c, 1, 63, 0
3, 17520, Note_on_c, 1, 67, 105
3, 17522, Note_on_c, 1, 65, 0
3, 17670, Note_on_c, 1, 65, 89
3, 17671, Note_on_c, 1, 67, 0
3, 17700, Note_on_c, 1, 67, 98
3, 17708, Note_on_c, 1, 65, 0
3, 17730, Note_on_c, 1, 70, 80
3, 17731, Note_on_c, 1, 67, 0
3, 17760, Note_on_c, 1, 69, 85
3, 17764, Note_on_c, 1, 70, 0
3, 17790, Note_on_c, 1, 67, 100
3, 17795, Note_on_c, 1, 69, 0
3, 17820, Note_on_c, 1, 69, 102
3, 17825, Note_on_c, 1, 67, 0
3, 17850, Note_on_c, 1, 70, 100
3, 17856, Note_on_c, 1, 69, 0
3, 17880, Note_on_c, 1, 69, 91
3, 17885, Note_on_c, 1, 70, 0
3, 17910, Note_on_c, 1, 67, 100
3, 17914, Note_on_c, 1, 69, 0
3, 17940, Note_on_c, 1, 69, 100
3, 17945, Note_on_c, 1, 67, 0
3, 17970, Note_on_c, 1, 72, 85
3, 17970, Note_on_c, 1, 69, 0
3, 18001, Note_on_c, 1, 70, 95
3, 18008, Note_on_c, 1, 72, 0
3, 18009, Note_on_c, 1, 70, 0
3, 18012, Note_on_c, 1, 69, 93
3, 18024, Note_on_c, 1, 70, 110
3, 18027, Note_on_c, 1, 69, 0
3, 18229, Note_on_c, 1, 70, 0
3, 18244, Note_on_c, 1, 72, 102
3, 18255, Note_on_c, 1, 70, 110
3, 18256, Note_on_c, 1, 72, 0
3, 18268, Note_on_c, 1, 72, 87
3, 18268, Note_on_c, 1, 70, 0
3, 18367, Note_on_c, 1, 72, 0
3, 18420, Note_on_c, 1, 62, 91
3, 18450, Note_on_c, 1, 63, 68
3, 18452, Note_on_c, 1, 62, 0
3, 18479, Note_on_c, 1, 63, 0
3, 18480, Note_on_c, 1, 65, 74
3, 18540, Note_on_c, 1, 67, 95
3, 18548, Note_on_c, 1, 65, 0
3, 18570, Note_on_c, 1, 69, 102
3, 18575, Note_on_c, 1, 67, 0
3, 18600, Note_on_c, 1, 70, 95
3, 18605, Note_on_c, 1, 69, 0
3, 18660, Note_on_c, 1, 69, 102
3, 18669, Note_on_c, 1, 70, 0
3, 18690, Note_on_c, 1, 67, 93
3, 18694, Note_on_c, 1, 69, 0
3, 18720, Note_on_c, 1, 65, 85
3, 18721, Note_on_c, 1, 67, 0
3, 18750, Note_on_c, 1, 63, 93
3, 18763, Note_on_c, 1, 65, 0
3, 18780, Note_on_c, 1, 62, 93
3, 18780, Note_on_c, 1, 63, 0
3, 18810, Note_on_c, 1, 60, 78
3, 18811, Note_on_c, 1, 62, 0
3, 18840, Note_on_c, 1, 58, 105
3, 18845, Note_on_c, 1, 60, 0
3, 18900, Note_on_c, 1, 62, 89
3, 18902, Note_on_c, 1, 58, 0
3, 18954, Note_on_c, 1, 62, 0
3, 18959, Note_on_c, 1, 62, 93
3, 18968, Note_on_c, 1, 63, 85
3, 18969, Note_on_c, 1, 62, 0
3, 18976, Note_on_c, 1, 62, 80
3, 18979, Note_on_c, 1, 63, 0
3, 19017, Note_on_c, 1, 62, 0
3, 19020, Note_on_c, 1, 60, 107
3, 19086, Note_on_c, 1, 60, 0
3, 19140, Note_on_c, 1, 70, 100
3, 19178, Note_on_c, 1, 70, 0
3, 19201, Note_on_c, 1, 70, 87
3, 19210, Note_on_c, 1, 72, 87
3, 19211, Note_on_c, 1, 70, 0
3, 19219, Note_on_c, 1, 70, 89
3, 19221, Note_on_c, 1, 72, 0
3, 19247, Note_on_c, 1, 70, 0
3, 19260, Note_on_c, 1, 69, 82
3, 19320, Note_on_c, 1, 69, 0
3, 19560, Note_on_c, 1, 67, 102
3, 19810, Note_on_c, 1, 67, 0
3, 19830, Note_on_c, 1, 55, 87
3, 19860, Note_on_c, 1, 60, 95
3, 19861, Note_on_c, 1, 55, 0
3, 19980, Note_on_c, 1, 59, 107
3, 19988, Note_on_c, 1, 60, 0
3, 19995, Note_on_c, 1, 57, 100
3, 19996, Note_on_c, 1, 59, 0
3, 20010, Note_on_c, 1, 55, 87
3, 20010, Note_on_c, 1, 57, 0
3, 20036, Note_on_c, 1, 55, 0
3, 20040, Note_on_c, 1, 65, 98
3, 20100, Note_on_c, 1, 63, 110
3, 20103, Note_on_c, 1, 65, 0
3, 20141, Note_on_c, 1, 63, 0
3, 20153, Note_on_c, 1, 63, 64
3, 20160, Note_on_c, 1, 65, 87
3, 20161, Note_on_c, 1, 63, 0
3, 20169, Note_on_c, 1, 63, 93
3, 20172, Note_on_c, 1, 65, 0
3, 20220, Note_on_c, 1, 62, 95
3, 20222, Note_on_c, 1, 63, 0
3, 20281, Note_on_c, 1, 62, 0
3, 20340, Note_on_c, 1, 62, 91
3, 20398, Note_on_c, 1, 63, 70
3, 20408, Note_on_c, 1, 65, 80
3, 20410, Note_on_c, 1, 63, 0
3, 20410, Note_on_c, 1, 62, 0
3, 20416, Note_on_c, 1, 63, 82
3, 20418, Note_on_c, 1, 65, 0
3, 20430, Note_on_c, 1, 62, 89
3, 20456, Note_on_c, 1, 63, 0
3, 20460, Note_on_c, 1, 63, 100
3, 20469, Note_on_c, 1, 62, 0
3, 20536, Note_on_c, 1, 63, 0
3, 20550, Note_on_c, 1, 62, 89
3, 20580, Note_on_c, 1, 63, 100
3, 20585, Note_on_c, 1, 62, 0
3, 20632, Note_on_c, 1, 63, 0
3, 20640, Note_on_c, 1, 63, 78
3, 20700, Note_on_c, 1, 53, 89
3, 20701, Note_on_c, 1, 63, 0
3, 20760, Note_on_c, 1, 53, 0
3, 20820, Note_on_c, 1, 63, 110
3, 20873, Note_on_c, 1, 63, 0
3, 20877, Note_on_c, 1, 62, 89
3, 20887, Note_on_c, 1, 63, 80
3, 20889, Note_on_c, 1, 62, 0
3, 20895, Note_on_c, 1, 62, 82
3, 20901, Note_on_c, 1, 63, 0
3, 20910, Note_on_c, 1, 61, 110
3, 20922, Note_on_c, 1, 62, 0
3, 20940, Note_on_c, 1, 62, 105
3, 20940, Note_on_c, 1, 61, 0
3, 21030, Note_on_c, 1, 61, 105
3, 21037, Note_on_c, 1, 62, 0
3, 21056, Note_on_c, 1, 61, 0
3, 21060, Note_on_c, 1, 62, 102
3, 21105, Note_on_c, 1, 62, 0
3, 21120, Note_on_c, 1, 62, 91
3, 21180, Note_on_c, 1, 52, 91
3, 21181, Note_on_c, 1, 62, 0
3, 21244, Note_on_c, 1, 52, 0
3, 21300, Note_on_c, 1, 62, 102
3, 21360, Note_on_c, 1, 61, 113
3, 21362, Note_on_c, 1, 62, 0
3, 21420, Note_on_c, 1, 64, 89
3, 21424, Note_on_c, 1, 61, 0
3, 21480, Note_on_c, 1, 57, 89
3, 21484, Note_on_c, 1, 64, 0
3, 21540, Note_on_c, 1, 61, 102
3, 21542, Note_on_c, 1, 57, 0
3, 21600, Note_on_c, 1, 62, 89
3, 21604, Note_on_c, 1, 61, 0
3, 21660, Note_on_c, 1, 65, 89
3, 21661, Note_on_c, 1, 62, 0
3, 21719, Note_on_c, 1, 65, 0
3, 21720, Note_on_c, 1, 57, 87
3, 21772, Note_on_c, 1, 57, 0
3, 21780, Note_on_c, 1, 62, 102
3, 21810, Note_on_c, 1, 61, 102
3, 21816, Note_on_c, 1, 62, 0
3, 21840, Note_on_c, 1, 62, 89
3, 21842, Note_on_c, 1, 61, 0
3, 21900, Note_on_c, 1, 59, 89
3, 21902, Note_on_c, 1, 62, 0
3, 21961, Note_on_c, 1, 59, 0
3, 21964, Note_on_c, 1, 56, 87
3, 21973, Note_on_c, 1, 56, 0
3, 21974, Note_on_c, 1, 54, 105
3, 21986, Note_on_c, 1, 56, 87
3, 21989, Note_on_c, 1, 54, 0
3, 22072, Note_on_c, 1, 56, 0
3, 22080, Note_on_c, 1, 57, 91
3, 22204, Note_on_c, 1, 57, 0
3, 22500, Note_on_c, 1, 69, 105
3, 22590, Note_on_c, 1, 67, 91
3, 22597, Note_on_c, 1, 69, 0
3, 22620, Note_on_c, 1, 65, 100
3, 22627, Note_on_c, 1, 67, 0
3, 22650, Note_on_c, 1, 64, 102
3, 22652, Note_on_c, 1, 65, 0
3, 22680, Note_on_c, 1, 67, 82
3, 22686, Note_on_c, 1, 64, 0
3, 22710, Note_on_c, 1, 65, 91
3, 22719, Note_on_c, 1, 67, 0
3, 22740, Note_on_c, 1, 64, 98
3, 22743, Note_on_c, 1, 65, 0
3, 22766, Note_on_c, 1, 64, 0
3, 22770, Note_on_c, 1, 62, 80
3, 22800, Note_on_c, 1, 60, 102
3, 22805, Note_on_c, 1, 62, 0
3, 22860, Note_on_c, 1, 64, 93
3, 22867, Note_on_c, 1, 60, 0
3, 22917, Note_on_c, 1, 64, 0
3, 22920, Note_on_c, 1, 55, 85
3, 22965, Note_on_c, 1, 55, 0
3, 22980, Note_on_c, 1, 67, 105
3, 23067, Note_on_c, 1, 67, 0
3, 23070, Note_on_c, 1, 65, 91
3, 23100, Note_on_c, 1, 63, 100
3, 23108, Note_on_c, 1, 65, 0
3, 23130, Note_on_c, 1, 62, 100
3, 23135, Note_on_c, 1, 63, 0
3, 23160, Note_on_c, 1, 65, 85
3, 23163, Note_on_c, 1, 62, 0
3, 23190, Note_on_c, 1, 63, 93
3, 23203, Note_on_c, 1, 65, 0
3, 23220, Note_on_c, 1, 62, 93
3, 23223, Note_on_c, 1, 63, 0
3, 23249, Note_on_c, 1, 62, 0
3, 23250, Note_on_c, 1, 60, 80
3, 23280, Note_on_c, 1, 58, 102
3, 23284, Note_on_c, 1, 60, 0
3, 23340, Note_on_c, 1, 65, 91
3, 23347, Note_on_c, 1, 58, 0
3, 23403, Note_on_c, 1, 65, 0
3, 23407, Note_on_c, 1, 67, 89
3, 23417, Note_on_c, 1, 65, 93
3, 23417, Note_on_c, 1, 67, 0
3, 23428, Note_on_c, 1, 67, 95
3, 23429, Note_on_c, 1, 65, 0
3, 23627, Note_on_c, 1, 67, 0
3, 23640, Note_on_c, 1, 69, 105
3, 23652, Note_on_c, 1, 67, 110
3, 23652, Note_on_c, 1, 69, 0
3, 23665, Note_on_c, 1, 69, 87
3, 23668, Note_on_c, 1, 67, 0
3, 23780, Note_on_c, 1, 69, 0
3, 23790, Note_on_c, 1, 67, 85
3, 23820, Note_on_c, 1, 69, 87
3, 23826, Note_on_c, 1, 67, 0
3, 23850, Note_on_c, 1, 72, 93
3, 23854, Note_on_c, 1, 69, 0
3, 23880, Note_on_c, 1, 70, 105
3, 23885, Note_on_c, 1, 72, 0
3, 23910, Note_on_c, 1, 69, 85
3, 23913, Note_on_c, 1, 70, 0
3, 23940, Note_on_c, 1, 70, 89
3, 23951, Note_on_c, 1, 69, 0
3, 23970, Note_on_c, 1, 72, 80
3, 23972, Note_on_c, 1, 70, 0
3, 24000, Note_on_c, 1, 70, 100
3, 24011, Note_on_c, 1, 72, 0
3, 24030, Note_on_c, 1, 69, 98
3, 24032, Note_on_c, 1, 70, 0
3, 24060, Note_on_c, 1, 70, 85
3, 24068, Note_on_c, 1, 69, 0
3, 24090, Note_on_c, 1, 74, 87
3, 24091, Note_on_c, 1, 70, 0
3, 24120, Note_on_c, 1, 72, 85
3, 24124, Note_on_c, 1, 74, 0
3, 24150, Note_on_c, 1, 70, 85
3, 24154, Note_on_c, 1, 72, 0
3, 24180, Note_on_c, 1, 72, 74
3, 24184, Note_on_c, 1, 70, 0
3, 24210, Note_on_c, 1, 74, 82
3, 24213, Note_on_c, 1, 72, 0
3, 24240, Note_on_c, 1, 72, 85
3, 24243, Note_on_c, 1, 74, 0
3, 24285, Note_on_c, 1, 72, 0
3, 24300, Note_on_c, 1, 70, 110
3, 24320, Note_on_c, 1, 69, 91
3, 24323, Note_on_c, 1, 70, 0
3, 24340, Note_on_c, 1, 67, 82
3, 24340, Note_on_c, 1, 69, 0
3, 24360, Note_on_c, 1, 69, 102
3, 24362, Note_on_c, 1, 67, 0
3, 24400, Note_on_c, 1, 69, 0
3, 24420, Note_on_c, 1, 67, 102
3, 24440, Note_on_c, 1, 65, 105
3, 24446, Note_on_c, 1, 67, 0
3, 24460, Note_on_c, 1, 64, 98
3, 24461, Note_on_c, 1, 65, 0
3, 24480, Note_on_c, 1, 65, 102
3, 24482, Note_on_c, 1, 64, 0
3, 24512, Note_on_c, 1, 65, 0
3, 24540, Note_on_c, 1, 62, 93
3, 24579, Note_on_c, 1, 62, 0
3, 24600, Note_on_c, 1, 60, 98
3, 24638, Note_on_c, 1, 60, 0
3, 24660, Note_on_c, 1, 58, 107
3, 24696, Note_on_c, 1, 58, 0
3, 24720, Note_on_c, 1, 57, 85
3, 24761, Note_on_c, 1, 57, 0
3, 24780, Note_on_c, 1, 65, 102
3, 24822, Note_on_c, 1, 65, 0
3, 24840, Note_on_c, 1, 55, 89
3, 24884, Note_on_c, 1, 55, 0
3, 24900, Note_on_c, 1, 64, 89
3, 24949, Note_on_c, 1, 64, 0
3, 24960, Note_on_c, 1, 65, 102
3, 25243, Note_on_c, 1, 65, 0
3, 25275, Note_on_c, 1, 60, 85
3, 25290, Note_on_c, 1, 58, 98
3, 25293, Note_on_c, 1, 60, 0
3, 25305, Note_on_c, 1, 57, 100
3, 25306, Note_on_c, 1, 58, 0
3, 25320, Note_on_c, 1, 58, 100
3, 25325, Note_on_c, 1, 57, 0
3, 25346, Note_on_c, 1, 58, 0
3, 25350, Note_on_c, 1, 60, 91
3, 25380, Note_on_c, 1, 62, 102
3, 25383, Note_on_c, 1, 60, 0
3, 25410, Note_on_c, 1, 64, 102
3, 25415, Note_on_c, 1, 62, 0
3, 25425, Note_on_c, 1, 65, 100
3, 25428, Note_on_c, 1, 64, 0
3, 25440, Note_on_c, 1, 67, 107
3, 25443, Note_on_c, 1, 65, 0
3, 25731, Note_on_c, 1, 67, 0
3, 25755, Note_on_c, 1, 62, 95
3, 25770, Note_on_c, 1, 60, 102
3, 25774, Note_on_c, 1, 62, 0
3, 25785, Note_on_c, 1, 59, 100
3, 25785, Note_on_c, 1, 60, 0
3, 25799, Note_on_c, 1, 59, 0
3, 25800, Note_on_c, 1, 60, 87
3, 25830, Note_on_c, 1, 62, 95
3, 25834, Note_on_c, 1, 60, 0
3, 25860, Note_on_c, 1, 64, 102
3, 25864, Note_on_c, 1, 62, 0
3, 25890, Note_on_c, 1, 65, 100
3, 25894, Note_on_c, 1, 64, 0
3, 25905, Note_on_c, 1, 67, 100
3, 25907, Note_on_c, 1, 65, 0
3, 25915, Note_on_c, 1, 67, 0
3, 25920, Note_on_c, 1, 69, 105
3, 26220, Note_on_c, 1, 65, 102
3, 26249, Note_on_c, 1, 65, 0
3, 26249, Note_on_c, 1, 69, 0
3, 26250, Note_on_c, 1, 64, 95
3, 26263, Note_on_c, 1, 64, 0
3, 26265, Note_on_c, 1, 62, 85
3, 26279, Note_on_c, 1, 62, 0
3, 26280, Note_on_c, 1, 70, 98
3, 26459, Note_on_c, 1, 70, 0
3, 26460, Note_on_c, 1, 69, 98
3, 26490, Note_on_c, 1, 70, 93
3, 26497, Note_on_c, 1, 69, 0
3, 26505, Note_on_c, 1, 67, 80
3, 26506, Note_on_c, 1, 70, 0
3, 26520, Note_on_c, 1, 69, 91
3, 26520, Note_on_c, 1, 67, 0
3, 26669, Note_on_c, 1, 69, 0
3, 26670, Note_on_c, 1, 67, 82
3, 26700, Note_on_c, 1, 65, 93
3, 26701, Note_on_c, 1, 67, 0
3, 26730, Note_on_c, 1, 67, 95
3, 26737, Note_on_c, 1, 65, 0
3, 26757, Note_on_c, 1, 67, 0
3, 26761, Note_on_c, 1, 67, 89
3, 26770, Note_on_c, 1, 65, 89
3, 26770, Note_on_c, 1, 67, 0
3, 26781, Note_on_c, 1, 67, 105
3, 26783, Note_on_c, 1, 65, 0
3, 26848, Note_on_c, 1, 67, 0
3, 26850, Note_on_c, 1, 69, 100
3, 26880, Note_on_c, 1, 69, 85
3, 26880, Note_on_c, 1, 69, 0
3, 27003, Note_on_c, 1, 69, 0
3, 29040, Note_on_c, 1, 72, 87
3, 29070, Note_on_c, 1, 71, 82
3, 29075, Note_on_c, 1, 72, 0
3, 29100, Note_on_c, 1, 69, 100
3, 29105, Note_on_c, 1, 71, 0
3, 29140, Note_on_c, 1, 69, 0
3, 29152, Note_on_c, 1, 69, 107
3, 29160, Note_on_c, 1, 71, 102
3, 29161, Note_on_c, 1, 69, 0
3, 29166, Note_on_c, 1, 69, 102
3, 29166, Note_on_c, 1, 71, 0
3, 29190, Note_on_c, 1, 68, 100
3, 29196, Note_on_c, 1, 69, 0
3, 29220, Note_on_c, 1, 69, 91
3, 29225, Note_on_c, 1, 68, 0
3, 29308, Note_on_c, 1, 69, 0
3, 29310, Note_on_c, 1, 71, 100
3, 29340, Note_on_c, 1, 69, 91
3, 29345, Note_on_c, 1, 71, 0
3, 29370, Note_on_c, 1, 68, 102
3, 29372, Note_on_c, 1, 69, 0
3, 29400, Note_on_c, 1, 69, 82
3, 29401, Note_on_c, 1, 68, 0
3, 29430, Note_on_c, 1, 71, 98
3, 29435, Note_on_c, 1, 69, 0
3, 29460, Note_on_c, 1, 72, 102
3, 29469, Note_on_c, 1, 71, 0
3, 29490, Note_on_c, 1, 74, 102
3, 29496, Note_on_c, 1, 72, 0
3, 29520, Note_on_c, 1, 76, 89
3, 29525, Note_on_c, 1, 74, 0
3, 29574, Note_on_c, 1, 76, 0
3, 29580, Note_on_c, 1, 77, 100
3, 29610, Note_on_c, 1, 76, 98
3, 29615, Note_on_c, 1, 77, 0
3, 29640, Note_on_c, 1, 74, 102
3, 29646, Note_on_c, 1, 76, 0
3, 29670, Note_on_c, 1, 72, 102
3, 29675, Note_on_c, 1, 74, 0
3, 29699, Note_on_c, 1, 72, 0
3, 29700, Note_on_c, 1, 71, 78
3, 29730, Note_on_c, 1, 69, 95
3, 29733, Note_on_c, 1, 71, 0
3, 29760, Note_on_c, 1, 68, 105
3, 29762, Note_on_c, 1, 69, 0
3, 29820, Note_on_c, 1, 71, 87
3, 29824, Note_on_c, 1, 68, 0
3, 29880, Note_on_c, 1, 64, 87
3, 29881, Note_on_c, 1, 71, 0
3, 29924, Note_on_c, 1, 64, 0
3, 29940, Note_on_c, 1, 74, 105
3, 30030, Note_on_c, 1, 72, 102
3, 30031, Note_on_c, 1, 74, 0
3, 30060, Note_on_c, 1, 71, 102
3, 30064, Note_on_c, 1, 72, 0
3, 30090, Note_on_c, 1, 69, 89
3, 30095, Note_on_c, 1, 71, 0
3, 30120, Note_on_c, 1, 72, 85
3, 30121, Note_on_c, 1, 69, 0
3, 30150, Note_on_c, 1, 71, 105
3, 30159, Note_on_c, 1, 72, 0
3, 30180, Note_on_c, 1, 69, 105
3, 30184, Note_on_c, 1, 71, 0
3, 30209, Note_on_c, 1, 69, 0
3, 30210, Note_on_c, 1, 67, 76
3, 30240, Note_on_c, 1, 66, 100
3, 30246, Note_on_c, 1, 67, 0
3, 30300, Note_on_c, 1, 69, 98
3, 30307, Note_on_c, 1, 66, 0
3, 30357, Note_on_c, 1, 69, 0
3, 30360, Note_on_c, 1, 62, 93
3, 30399, Note_on_c, 1, 62, 0
3, 30420, Note_on_c, 1, 72, 100
3, 30510, Note_on_c, 1, 71, 85
3, 30512, Note_on_c, 1, 72, 0
3, 30540, Note_on_c, 1, 69, 105
3, 30545, Note_on_c, 1, 71, 0
3, 30570, Note_on_c, 1, 67, 95
3, 30573, Note_on_c, 1, 69, 0
3, 30600, Note_on_c, 1, 71, 80
3, 30602, Note_on_c, 1, 67, 0
3, 30630, Note_on_c, 1, 69, 102
3, 30639, Note_on_c, 1, 71, 0
3, 30660, Note_on_c, 1, 67, 105
3, 30665, Note_on_c, 1, 69, 0
3, 30690, Note_on_c, 1, 65, 74
3, 30690, Note_on_c, 1, 67, 0
3, 30720, Note_on_c, 1, 64, 100
3, 30727, Note_on_c, 1, 65, 0
3, 30847, Note_on_c, 1, 64, 0
3, 30870, Note_on_c, 1, 62, 89
3, 30900, Note_on_c, 1, 64, 100
3, 30904, Note_on_c, 1, 62, 0
3, 30930, Note_on_c, 1, 67, 80
3, 30933, Note_on_c, 1, 64, 0
3, 30960, Note_on_c, 1, 66, 105
3, 30967, Note_on_c, 1, 67, 0
3, 30990, Note_on_c, 1, 64, 89
3, 30994, Note_on_c, 1, 66, 0
3, 31020, Note_on_c, 1, 66, 98
3, 31029, Note_on_c, 1, 64, 0
3, 31050, Note_on_c, 1, 67, 82
3, 31053, Note_on_c, 1, 66, 0
3, 31080, Note_on_c, 1, 66, 105
3, 31091, Note_on_c, 1, 67, 0
3, 31110, Note_on_c, 1, 64, 95
3, 31112, Note_on_c, 1, 66, 0
3, 31140, Note_on_c, 1, 66, 98
3, 31149, Note_on_c, 1, 64, 0
3, 31170, Note_on_c, 1, 69, 85
3, 31170, Note_on_c, 1, 66, 0
3, 31200, Note_on_c, 1, 68, 102
3, 31205, Note_on_c, 1, 69, 0
3, 31226, Note_on_c, 1, 66, 93
3, 31232, Note_on_c, 1, 68, 0
3, 31259, Note_on_c, 1, 68, 95
3, 31264, Note_on_c, 1, 66, 0
3, 31287, Note_on_c, 1, 69, 87
3, 31291, Note_on_c, 1, 68, 0
3, 31320, Note_on_c, 1, 68, 105
3, 31326, Note_on_c, 1, 69, 0
3, 31350, Note_on_c, 1, 66, 105
3, 31353, Note_on_c, 1, 68, 0
3, 31380, Note_on_c, 1, 68, 98
3, 31387, Note_on_c, 1, 66, 0
3, 31409, Note_on_c, 1, 71, 89
3, 31412, Note_on_c, 1, 68, 0
3, 31440, Note_on_c, 1, 69, 105
3, 31444, Note_on_c, 1, 71, 0
3, 31449, Note_on_c, 1, 69, 0
3, 31450, Note_on_c, 1, 67, 100
3, 31459, Note_on_c, 1, 69, 100
3, 31463, Note_on_c, 1, 67, 0
3, 31667, Note_on_c, 1, 69, 0
3, 31679, Note_on_c, 1, 71, 110
3, 31690, Note_on_c, 1, 71, 0
3, 31691, Note_on_c, 1, 69, 95
3, 31702, Note_on_c, 1, 71, 102
3, 31703, Note_on_c, 1, 69, 0
3, 31897, Note_on_c, 1, 71, 0
3, 31920, Note_on_c, 1, 72, 116
3, 31964, Note_on_c, 1, 72, 0
3, 31980, Note_on_c, 1, 74, 107
3, 32000, Note_on_c, 1, 72, 102
3, 32007, Note_on_c, 1, 74, 0
3, 32019, Note_on_c, 1, 72, 0
3, 32020, Note_on_c, 1, 71, 105
3, 32040, Note_on_c, 1, 72, 102
3, 32043, Note_on_c, 1, 71, 0
3, 32089, Note_on_c, 1, 72, 0
3, 32100, Note_on_c, 1, 71, 102
3, 32120, Note_on_c, 1, 69, 82
3, 32120, Note_on_c, 1, 71, 0
3, 32140, Note_on_c, 1, 68, 102
3, 32141, Note_on_c, 1, 69, 0
3, 32159, Note_on_c, 1, 68, 0
3, 32160, Note_on_c, 1, 69, 100
3, 32206, Note_on_c, 1, 69, 0
3, 32220, Note_on_c, 1, 65, 91
3, 32280, Note_on_c, 1, 64, 98
3, 32281, Note_on_c, 1, 65, 0
3, 32323, Note_on_c, 1, 64, 0
3, 32340, Note_on_c, 1, 62, 102
3, 32381, Note_on_c, 1, 62, 0
3, 32400, Note_on_c, 1, 60, 102
3, 32446, Note_on_c, 1, 60, 0
3, 32460, Note_on_c, 1, 69, 100
3, 32504, Note_on_c, 1, 69, 0
3, 32520, Note_on_c, 1, 59, 100
3, 32565, Note_on_c, 1, 59, 0
3, 32580, Note_on_c, 1, 68, 100
3, 32628, Note_on_c, 1, 68, 0
3, 32640, Note_on_c, 1, 69, 105
3, 32718, Note_on_c, 1, 69, 0
3, 32880, Note_on_c, 1, 62, 98
3, 32948, Note_on_c, 1, 62, 0
3, 32955, Note_on_c, 1, 64, 89
3, 32970, Note_on_c, 1, 62, 82
3, 32973, Note_on_c, 1, 64, 0
3, 32985, Note_on_c, 1, 61, 100
3, 32985, Note_on_c, 1, 62, 0
3, 33000, Note_on_c, 1, 62, 87
3, 33001, Note_on_c, 1, 61, 0
3, 33030, Note_on_c, 1, 64, 98
3, 33031, Note_on_c, 1, 62, 0
3, 33060, Note_on_c, 1, 65, 100
3, 33061, Note_on_c, 1, 64, 0
3, 33090, Note_on_c, 1, 67, 87
3, 33095, Note_on_c, 1, 65, 0
3, 33105, Note_on_c, 1, 69, 100
3, 33105, Note_on_c, 1, 67, 0
3, 33117, Note_on_c, 1, 69, 0
3, 33120, Note_on_c, 1, 70, 110
3, 33410, Note_on_c, 1, 70, 0
3, 33435, Note_on_c, 1, 62, 91
3, 33450, Note_on_c, 1, 60, 100
3, 33451, Note_on_c, 1, 62, 0
3, 33465, Note_on_c, 1, 59, 102
3, 33465, Note_on_c, 1, 60, 0
3, 33477, Note_on_c, 1, 59, 0
3, 33480, Note_on_c, 1, 60, 95
3, 33510, Note_on_c, 1, 62, 100
3, 33515, Note_on_c, 1, 60, 0
3, 33540, Note_on_c, 1, 64, 100
3, 33540, Note_on_c, 1, 62, 0
3, 33566, Note_on_c, 1, 64, 0
3, 33570, Note_on_c, 1, 65, 89
3, 33585, Note_on_c, 1, 67, 89
3, 33589, Note_on_c, 1, 65, 0
3, 33599, Note_on_c, 1, 67, 0
3, 33600, Note_on_c, 1, 69, 100
3, 33870, Note_on_c, 1, 67, 87
3, 33883, Note_on_c, 1, 67, 0
3, 33885, Note_on_c, 1, 65, 85
3, 33886, Note_on_c, 1, 69, 0
3, 33899, Note_on_c, 1, 65, 0
3, 33900, Note_on_c, 1, 67, 98
3, 33959, Note_on_c, 1, 67, 0
3, 33990, Note_on_c, 1, 65, 100
3, 34004, Note_on_c, 1, 65, 0
3, 34005, Note_on_c, 1, 64, 102
3, 34019, Note_on_c, 1, 64, 0
3, 34020, Note_on_c, 1, 65, 91
3, 34079, Note_on_c, 1, 65, 0
3, 34110, Note_on_c, 1, 64, 98
3, 34124, Note_on_c, 1, 64, 0
3, 34125, Note_on_c, 1, 62, 89
3, 34139, Note_on_c, 1, 62, 0
3, 34140, Note_on_c, 1, 64, 91
3, 34199, Note_on_c, 1, 64, 0
3, 34230, Note_on_c, 1, 62, 100
3, 34243, Note_on_c, 1, 62, 0
3, 34245, Note_on_c, 1, 61, 105
3, 34260, Note_on_c, 1, 62, 82
3, 34261, Note_on_c, 1, 61, 0
3, 34380, Note_on_c, 1, 61, 113
3, 34387, Note_on_c, 1, 62, 0
3, 34440, Note_on_c, 1, 65, 95
3, 34441, Note_on_c, 1, 61, 0
3, 34500, Note_on_c, 1, 59, 93
3, 34505, Note_on_c, 1, 65, 0
3, 34559, Note_on_c, 1, 59, 0
3, 34560, Note_on_c, 1, 64, 95
3, 34618, Note_on_c, 1, 64, 0
3, 34620, Note_on_c, 1, 57, 82
3, 34680, Note_on_c, 1, 69, 98
3, 34683, Note_on_c, 1, 57, 0
3, 34740, Note_on_c, 1, 61, 107
3, 34742, Note_on_c, 1, 69, 0
3, 34800, Note_on_c, 1, 62, 98
3, 34800, Note_on_c, 1, 61, 0
3, 34860, Note_on_c, 1, 70, 100
3, 34863, Note_on_c, 1, 62, 0
3, 34920, Note_on_c, 1, 69, 87
3, 34921, Note_on_c, 1, 70, 0
3, 34980, Note_on_c, 1, 67, 91
3, 34983, Note_on_c, 1, 69, 0
3, 35040, Note_on_c, 1, 65, 82
3, 35042, Note_on_c, 1, 67, 0
3, 35100, Note_on_c, 1, 67, 80
3, 35104, Note_on_c, 1, 65, 0
3, 35160, Note_on_c, 1, 65, 87
3, 35165, Note_on_c, 1, 67, 0
3, 35220, Note_on_c, 1, 64, 98
3, 35225, Note_on_c, 1, 65, 0
3, 35280, Note_on_c, 1, 62, 98
3, 35282, Note_on_c, 1, 64, 0
3, 35415, Note_on_c, 1, 62, 0
3, 35460, Note_on_c, 1, 67, 100
3, 35549, Note_on_c, 1, 67, 0
3, 35550, Note_on_c, 1, 69, 82
3, 35580, Note_on_c, 1, 67, 93
3, 35585, Note_on_c, 1, 69, 0
3, 35607, Note_on_c, 1, 67, 0
3, 35610, Note_on_c, 1, 65, 76
3, 35640, Note_on_c, 1, 67, 89
3, 35644, Note_on_c, 1, 65, 0
3, 35670, Note_on_c, 1, 69, 87
3, 35679, Note_on_c, 1, 67, 0
3, 35700, Note_on_c, 1, 71, 85
3, 35708, Note_on_c, 1, 69, 0
3, 35730, Note_on_c, 1, 73, 82
3, 35732, Note_on_c, 1, 71, 0
3, 35760, Note_on_c, 1, 74, 91
3, 35766, Note_on_c, 1, 73, 0
3, 35819, Note_on_c, 1, 74, 0
3, 35820, Note_on_c, 1, 69, 93
3, 35875, Note_on_c, 1, 69, 0
3, 35880, Note_on_c, 1, 62, 87
3, 35919, Note_on_c, 1, 62, 0
3, 35940, Note_on_c, 1, 65, 98
3, 36030, Note_on_c, 1, 67, 78
3, 36033, Note_on_c, 1, 65, 0
3, 36060, Note_on_c, 1, 65, 98
3, 36065, Note_on_c, 1, 67, 0
3, 36090, Note_on_c, 1, 64, 100
3, 36094, Note_on_c, 1, 65, 0
3, 36118, Note_on_c, 1, 64, 0
3, 36120, Note_on_c, 1, 65, 87
3, 36150, Note_on_c, 1, 67, 87
3, 36153, Note_on_c, 1, 65, 0
3, 36180, Note_on_c, 1, 69, 102
3, 36187, Note_on_c, 1, 67, 0
3, 36210, Note_on_c, 1, 71, 100
3, 36216, Note_on_c, 1, 69, 0
3, 36240, Note_on_c, 1, 72, 100
3, 36243, Note_on_c, 1, 71, 0
3, 36290, Note_on_c, 1, 72, 0
3, 36300, Note_on_c, 1, 67, 85
3, 36360, Note_on_c, 1, 60, 89
3, 36360, Note_on_c, 1, 67, 0
3, 36410, Note_on_c, 1, 60, 0
3, 36420, Note_on_c, 1, 64, 98
3, 36506, Note_on_c, 1, 64, 0
3, 36510, Note_on_c, 1, 69, 87
3, 36540, Note_on_c, 1, 67, 87
3, 36546, Note_on_c, 1, 69, 0
3, 36570, Note_on_c, 1, 69, 95
3, 36575, Note_on_c, 1, 67, 0
3, 36600, Note_on_c, 1, 62, 78
3, 36602, Note_on_c, 1, 69, 0
3, 36610, Note_on_c, 1, 60, 100
3, 36610, Note_on_c, 1, 62, 0
3, 36622, Note_on_c, 1, 62, 91
3, 36625, Note_on_c, 1, 60, 0
3, 36819, Note_on_c, 1, 62, 0
3, 36837, Note_on_c, 1, 64, 100
3, 36845, Note_on_c, 1, 62, 93
3, 36847, Note_on_c, 1, 64, 0
3, 36858, Note_on_c, 1, 64, 102
3, 36859, Note_on_c, 1, 62, 0
3, 37062, Note_on_c, 1, 64, 0
3, 37077, Note_on_c, 1, 65, 107
3, 37087, Note_on_c, 1, 64, 91
3, 37088, Note_on_c, 1, 65, 0
3, 37100, Note_on_c, 1, 65, 102
3, 37100, Note_on_c, 1, 64, 0
3, 37213, Note_on_c, 1, 65, 0
3, 37230, Note_on_c, 1, 64, 80
3, 37260, Note_on_c, 1, 65, 89
3, 37266, Note_on_c, 1, 64, 0
3, 37290, Note_on_c, 1, 69, 82
3, 37294, Note_on_c, 1, 65, 0
3, 37320, Note_on_c, 1, 67, 91
3, 37327, Note_on_c, 1, 69, 0
3, 37350, Note_on_c, 1, 65, 91
3, 37355, Note_on_c, 1, 67, 0
3, 37380, Note_on_c, 1, 67, 98
3, 37385, Note_on_c, 1, 65, 0
3, 37410, Note_on_c, 1, 69, 89
3, 37413, Note_on_c, 1, 67, 0
3, 37440, Note_on_c, 1, 67, 102
3, 37444, Note_on_c, 1, 69, 0
3, 37470, Note_on_c, 1, 65, 105
3, 37475, Note_on_c, 1, 67, 0
3, 37500, Note_on_c, 1, 67, 100
3, 37503, Note_on_c, 1, 65, 0
3, 37530, Note_on_c, 1, 70, 82
3, 37532, Note_on_c, 1, 67, 0
3, 37560, Note_on_c, 1, 69, 78
3, 37564, Note_on_c, 1, 70, 0
3, 37590, Note_on_c, 1, 67, 85
3, 37592, Note_on_c, 1, 69, 0
3, 37620, Note_on_c, 1, 69, 102
3, 37626, Note_on_c, 1, 67, 0
3, 37650, Note_on_c, 1, 70, 89
3, 37653, Note_on_c, 1, 69, 0
3, 37680, Note_on_c, 1, 69, 95
3, 37686, Note_on_c, 1, 70, 0
3, 37723, Note_on_c, 1, 69, 0
3, 37740, Note_on_c, 1, 70, 100
3, 37760, Note_on_c, 1, 69, 102
3, 37764, Note_on_c, 1, 70, 0
3, 37780, Note_on_c, 1, 67, 105
3, 37782, Note_on_c, 1, 69, 0
3, 37800, Note_on_c, 1, 69, 105
3, 37805, Note_on_c, 1, 67, 0
3, 37848, Note_on_c, 1, 69, 0
3, 37860, Note_on_c, 1, 67, 102
3, 37880, Note_on_c, 1, 65, 105
3, 37884, Note_on_c, 1, 67, 0
3, 37899, Note_on_c, 1, 65, 0
3, 37900, Note_on_c, 1, 64, 87
3, 37920, Note_on_c, 1, 65, 102
3, 37925, Note_on_c, 1, 64, 0
3, 37958, Note_on_c, 1, 65, 0
3, 37980, Note_on_c, 1, 67, 98
3, 38014, Note_on_c, 1, 67, 0
3, 38040, Note_on_c, 1, 65, 102
3, 38073, Note_on_c, 1, 65, 0
3, 38100, Note_on_c, 1, 64, 98
3, 38134, Note_on_c, 1, 64, 0
3, 38160, Note_on_c, 1, 62, 95
3, 38190, Note_on_c, 1, 65, 82
3, 38194, Note_on_c, 1, 62, 0
3, 38220, Note_on_c, 1, 70, 85
3, 38220, Note_on_c, 1, 65, 0
3, 38250, Note_on_c, 1, 64, 85
3, 38256, Note_on_c, 1, 70, 0
3, 38280, Note_on_c, 1, 67, 68
3, 38285, Note_on_c, 1, 64, 0
3, 38310, Note_on_c, 1, 65, 100
3, 38320, Note_on_c, 1, 67, 0
3, 38340, Note_on_c, 1, 64, 98
3, 38353, Note_on_c, 1, 65, 0
3, 38370, Note_on_c, 1, 62, 85
3, 38371, Note_on_c, 1, 64, 0
3, 38397, Note_on_c, 1, 62, 0
3, 38400, Note_on_c, 1, 62, 93
3, 38519, Note_on_c, 1, 62, 0
3, 38640, End_track
4, 0, Start_track
4, 0, MIDI_port, 0
4, 0, Title_t, ""
4, 0, Program_c, 2, 19
4, 0, Control_c, 2, 7, 127
4, 0, Control_c, 2, 10, 64
4, 240, Note_on_c, 2, 50, 100
4, 272, Note_on_c, 2, 50, 0
4, 360, Note_on_c, 2, 52, 102
4, 392, Note_on_c, 2, 52, 0
4, 480, Note_on_c, 2, 53, 98
4, 512, Note_on_c, 2, 53, 0
4, 720, Note_on_c, 2, 41, 93
4, 767, Note_on_c, 2, 41, 0
4, 840, Note_on_c, 2, 43, 93
4, 878, Note_on_c, 2, 43, 0
4, 960, Note_on_c, 2, 45, 95
4, 998, Note_on_c, 2, 45, 0
4, 1080, Note_on_c, 2, 49, 98
4, 1121, Note_on_c, 2, 49, 0
4, 1200, Note_on_c, 2, 50, 93
4, 1241, Note_on_c, 2, 50, 0
4, 1320, Note_on_c, 2, 38, 98
4, 1361, Note_on_c, 2, 38, 0
4, 1440, Note_on_c, 2, 43, 89
4, 1476, Note_on_c, 2, 43, 0
4, 1560, Note_on_c, 2, 47, 85
4, 1606, Note_on_c, 2, 47, 0
4, 1680, Note_on_c, 2, 48, 87
4, 1724, Note_on_c, 2, 48, 0
4, 1800, Note_on_c, 2, 36, 80
4, 1846, Note_on_c, 2, 36, 0
4, 1920, Note_on_c, 2, 41, 80
4, 1980, Note_on_c, 2, 53, 87
4, 1983, Note_on_c, 2, 41, 0
4, 2040, Note_on_c, 2, 52, 87
4, 2047, Note_on_c, 2, 53, 0
4, 2100, Note_on_c, 2, 50, 80
4, 2104, Note_on_c, 2, 52, 0
4, 2160, Note_on_c, 2, 57, 82
4, 2164, Note_on_c, 2, 50, 0
4, 2220, Note_on_c, 2, 62, 82
4, 2225, Note_on_c, 2, 57, 0
4, 2280, Note_on_c, 2, 60, 85
4, 2286, Note_on_c, 2, 62, 0
4, 2340, Note_on_c, 2, 59, 100
4, 2350, Note_on_c, 2, 60, 0
4, 2400, Note_on_c, 2, 57, 82
4, 2408, Note_on_c, 2, 59, 0
4, 2458, Note_on_c, 2, 57, 0
4, 2460, Note_on_c, 2, 53, 87
4, 2514, Note_on_c, 2, 53, 0
4, 2520, Note_on_c, 2, 52, 85
4, 2580, Note_on_c, 2, 50, 82
4, 2584, Note_on_c, 2, 52, 0
4, 2640, Note_on_c, 2, 48, 85
4, 2640, Note_on_c, 2, 50, 0
4, 2691, Note_on_c, 2, 48, 0
4, 2760, Note_on_c, 2, 41, 85
4, 2810, Note_on_c, 2, 41, 0
4, 2880, Note_on_c, 2, 40, 85
4, 2936, Note_on_c, 2, 40, 0
4, 3120, Note_on_c, 2, 45, 95
4, 3154, Note_on_c, 2, 45, 0
4, 3240, Note_on_c, 2, 57, 74
4, 3290, Note_on_c, 2, 57, 0
4, 3360, Note_on_c, 2, 50, 80
4, 3413, Note_on_c, 2, 50, 0
4, 3600, Note_on_c, 2, 43, 80
4, 3645, Note_on_c, 2, 43, 0
4, 3720, Note_on_c, 2, 55, 78
4, 3766, Note_on_c, 2, 55, 0
4, 3840, Note_on_c, 2, 48, 100
4, 3900, Note_on_c, 2, 47, 70
4, 3906, Note_on_c, 2, 48, 0
4, 3960, Note_on_c, 2, 49, 87
4, 3970, Note_on_c, 2, 47, 0
4, 4020, Note_on_c, 2, 45, 74
4, 4025, Note_on_c, 2, 49, 0
4, 4080, Note_on_c, 2, 50, 91
4, 4083, Note_on_c, 2, 45, 0
4, 4140, Note_on_c, 2, 49, 68
4, 4147, Note_on_c, 2, 50, 0
4, 4200, Note_on_c, 2, 51, 80
4, 4206, Note_on_c, 2, 49, 0
4, 4260, Note_on_c, 2, 47, 80
4, 4262, Note_on_c, 2, 51, 0
4, 4320, Note_on_c, 2, 52, 89
4, 4321, Note_on_c, 2, 47, 0
4, 4380, Note_on_c, 2, 50, 87
4, 4381, Note_on_c, 2, 52, 0
4, 4440, Note_on_c, 2, 52, 80
4, 4443, Note_on_c, 2, 50, 0
4, 4500, Note_on_c, 2, 48, 76
4, 4502, Note_on_c, 2, 52, 0
4, 4560, Note_on_c, 2, 53, 87
4, 4562, Note_on_c, 2, 48, 0
4, 4620, Note_on_c, 2, 52, 82
4, 4623, Note_on_c, 2, 53, 0
4, 4680, Note_on_c, 2, 54, 78
4, 4682, Note_on_c, 2, 52, 0
4, 4740, Note_on_c, 2, 50, 85
4, 4741, Note_on_c, 2, 54, 0
4, 4800, Note_on_c, 2, 55, 85
4, 4802, Note_on_c, 2, 50, 0
4, 4860, Note_on_c, 2, 54, 76
4, 4864, Note_on_c, 2, 55, 0
4, 4920, Note_on_c, 2, 56, 72
4, 4925, Note_on_c, 2, 54, 0
4, 4980, Note_on_c, 2, 52, 74
4, 4981, Note_on_c, 2, 56, 0
4, 5040, Note_on_c, 2, 57, 82
4, 5044, Note_on_c, 2, 52, 0
4, 5069, Note_on_c, 2, 57, 0
4, 5070, Note_on_c, 2, 56, 102
4, 5099, Note_on_c, 2, 56, 0
4, 5100, Note_on_c, 2, 57, 102
4, 5189, Note_on_c, 2, 57, 0
4, 5190, Note_on_c, 2, 56, 78
4, 5219, Note_on_c, 2, 56, 0
4, 5220, Note_on_c, 2, 57, 91
4, 5309, Note_on_c, 2, 57, 0
4, 5310, Note_on_c, 2, 56, 64
4, 5339, Note_on_c, 2, 56, 0
4, 5340, Note_on_c, 2, 57, 82
4, 5369, Note_on_c, 2, 57, 0
4, 5370, Note_on_c, 2, 56, 74
4, 5399, Note_on_c, 2, 56, 0
4, 5400, Note_on_c, 2, 57, 89
4, 5429, Note_on_c, 2, 57, 0
4, 5430, Note_on_c, 2, 56, 85
4, 5458, Note_on_c, 2, 56, 0
4, 5460, Note_on_c, 2, 57, 66
4, 5489, Note_on_c, 2, 57, 0
4, 5490, Note_on_c, 2, 56, 61
4, 5520, Note_on_c, 2, 57, 68
4, 5522, Note_on_c, 2, 56, 0
4, 5580, Note_on_c, 2, 50, 85
4, 5584, Note_on_c, 2, 57, 0
4, 5637, Note_on_c, 2, 50, 0
4, 5640, Note_on_c, 2, 52, 58
4, 5696, Note_on_c, 2, 52, 0
4, 5700, Note_on_c, 2, 40, 60
4, 5760, Note_on_c, 2, 45, 76
4, 5768, Note_on_c, 2, 40, 0
4, 5820, Note_on_c, 2, 47, 85
4, 5829, Note_on_c, 2, 45, 0
4, 5880, Note_on_c, 2, 48, 80
4, 5883, Note_on_c, 2, 47, 0
4, 5940, Note_on_c, 2, 45, 87
4, 5944, Note_on_c, 2, 48, 0
4, 6000, Note_on_c, 2, 50, 85
4, 6003, Note_on_c, 2, 45, 0
4, 6060, Note_on_c, 2, 52, 82
4, 6063, Note_on_c, 2, 50, 0
4, 6120, Note_on_c, 2, 53, 87
4, 6120, Note_on_c, 2, 52, 0
4, 6180, Note_on_c, 2, 50, 82
4, 6187, Note_on_c, 2, 53, 0
4, 6240, Note_on_c, 2, 43, 87
4, 6245, Note_on_c, 2, 50, 0
4, 6300, Note_on_c, 2, 45, 85
4, 6303, Note_on_c, 2, 43, 0
4, 6356, Note_on_c, 2, 45, 0
4, 6360, Note_on_c, 2, 46, 89
4, 6420, Note_on_c, 2, 43, 70
4, 6425, Note_on_c, 2, 46, 0
4, 6480, Note_on_c, 2, 48, 87
4, 6487, Note_on_c, 2, 43, 0
4, 6540, Note_on_c, 2, 50, 85
4, 6545, Note_on_c, 2, 48, 0
4, 6599, Note_on_c, 2, 50, 0
4, 6600, Note_on_c, 2, 52, 72
4, 6660, Note_on_c, 2, 48, 87
4, 6661, Note_on_c, 2, 52, 0
4, 6720, Note_on_c, 2, 41, 89
4, 6722, Note_on_c, 2, 48, 0
4, 6780, Note_on_c, 2, 53, 80
4, 6782, Note_on_c, 2, 41, 0
4, 6840, Note_on_c, 2, 55, 87
4, 6844, Note_on_c, 2, 53, 0
4, 6899, Note_on_c, 2, 55, 0
4, 6900, Note_on_c, 2, 57, 80
4, 6960, Note_on_c, 2, 58, 89
4, 6969, Note_on_c, 2, 57, 0
4, 7001, Note_on_c, 2, 58, 0
4, 7080, Note_on_c, 2, 57, 85
4, 7127, Note_on_c, 2, 57, 0
4, 7200, Note_on_c, 2, 55, 82
4, 7247, Note_on_c, 2, 55, 0
4, 7320, Note_on_c, 2, 53, 72
4, 7372, Note_on_c, 2, 53, 0
4, 7440, Note_on_c, 2, 52, 78
4, 7487, Note_on_c, 2, 52, 0
4, 7560, Note_on_c, 2, 50, 91
4, 7605, Note_on_c, 2, 50, 0
4, 7680, Note_on_c, 2, 49, 91
4, 7729, Note_on_c, 2, 49, 0
4, 7800, Note_on_c, 2, 45, 100
4, 7843, Note_on_c, 2, 45, 0
4, 7920, Note_on_c, 2, 50, 87
4, 7980, Note_on_c, 2, 55, 82
4, 7991, Note_on_c, 2, 50, 0
4, 8040, Note_on_c, 2, 53, 85
4, 8051, Note_on_c, 2, 55, 0
4, 8100, Note_on_c, 2, 52, 72
4, 8104, Note_on_c, 2, 53, 0
4, 8160, Note_on_c, 2, 50, 66
4, 8161, Note_on_c, 2, 52, 0
4, 8220, Note_on_c, 2, 46, 64
4, 8228, Note_on_c, 2, 50, 0
4, 8280, Note_on_c, 2, 45, 87
4, 8282, Note_on_c, 2, 46, 0
4, 8340, Note_on_c, 2, 43, 82
4, 8345, Note_on_c, 2, 45, 0
4, 8400, Note_on_c, 2, 41, 85
4, 8402, Note_on_c, 2, 43, 0
4, 8452, Note_on_c, 2, 41, 0
4, 8520, Note_on_c, 2, 46, 98
4, 8568, Note_on_c, 2, 46, 0
4, 8640, Note_on_c, 2, 45, 91
4, 8685, Note_on_c, 2, 45, 0
4, 8880, Note_on_c, 2, 38, 82
4, 8925, Note_on_c, 2, 38, 0
4, 9000, Note_on_c, 2, 50, 89
4, 9047, Note_on_c, 2, 50, 0
4, 9120, Note_on_c, 2, 43, 82
4, 9173, Note_on_c, 2, 43, 0
4, 9360, Note_on_c, 2, 36, 87
4, 9410, Note_on_c, 2, 36, 0
4, 9480, Note_on_c, 2, 48, 82
4, 9528, Note_on_c, 2, 48, 0
4, 9600, Note_on_c, 2, 41, 89
4, 9660, Note_on_c, 2, 40, 80
4, 9665, Note_on_c, 2, 41, 0
4, 9720, Note_on_c, 2, 42, 76
4, 9723, Note_on_c, 2, 40, 0
4, 9780, Note_on_c, 2, 38, 74
4, 9784, Note_on_c, 2, 42, 0
4, 9840, Note_on_c, 2, 43, 87
4, 9845, Note_on_c, 2, 38, 0
4, 9900, Note_on_c, 2, 42, 64
4, 9904, Note_on_c, 2, 43, 0
4, 9960, Note_on_c, 2, 44, 85
4, 9963, Note_on_c, 2, 42, 0
4, 10020, Note_on_c, 2, 40, 80
4, 10023, Note_on_c, 2, 44, 0
4, 10080, Note_on_c, 2, 45, 89
4, 10082, Note_on_c, 2, 40, 0
4, 10140, Note_on_c, 2, 43, 66
4, 10148, Note_on_c, 2, 45, 0
4, 10200, Note_on_c, 2, 45, 74
4, 10205, Note_on_c, 2, 43, 0
4, 10260, Note_on_c, 2, 41, 74
4, 10263, Note_on_c, 2, 45, 0
4, 10320, Note_on_c, 2, 46, 82
4, 10329, Note_on_c, 2, 41, 0
4, 10380, Note_on_c, 2, 45, 80
4, 10385, Note_on_c, 2, 46, 0
4, 10440, Note_on_c, 2, 47, 87
4, 10441, Note_on_c, 2, 45, 0
4, 10500, Note_on_c, 2, 43, 80
4, 10504, Note_on_c, 2, 47, 0
4, 10560, Note_on_c, 2, 48, 80
4, 10560, Note_on_c, 2, 43, 0
4, 10620, Note_on_c, 2, 47, 70
4, 10628, Note_on_c, 2, 48, 0
4, 10680, Note_on_c, 2, 49, 80
4, 10681, Note_on_c, 2, 47, 0
4, 10740, Note_on_c, 2, 45, 74
4, 10743, Note_on_c, 2, 49, 0
4, 10800, Note_on_c, 2, 50, 89
4, 10803, Note_on_c, 2, 45, 0
4, 10829, Note_on_c, 2, 50, 0
4, 10830, Note_on_c, 2, 49, 100
4, 10859, Note_on_c, 2, 49, 0
4, 10860, Note_on_c, 2, 50, 102
4, 10949, Note_on_c, 2, 50, 0
4, 10950, Note_on_c, 2, 49, 95
4, 10978, Note_on_c, 2, 49, 0
4, 10980, Note_on_c, 2, 50, 95
4, 11069, Note_on_c, 2, 50, 0
4, 11070, Note_on_c, 2, 49, 87
4, 11100, Note_on_c, 2, 50, 89
4, 11104, Note_on_c, 2, 49, 0
4, 11130, Note_on_c, 2, 49, 87
4, 11132, Note_on_c, 2, 50, 0
4, 11159, Note_on_c, 2, 49, 0
4, 11160, Note_on_c, 2, 50, 100
4, 11190, Note_on_c, 2, 49, 85
4, 11190, Note_on_c, 2, 50, 0
4, 11220, Note_on_c, 2, 50, 89
4, 11223, Note_on_c, 2, 49, 0
4, 11250, Note_on_c, 2, 49, 85
4, 11250, Note_on_c, 2, 50, 0
4, 11277, Note_on_c, 2, 49, 0
4, 11280, Note_on_c, 2, 50, 87
4, 11340, Note_on_c, 2, 43, 85
4, 11348, Note_on_c, 2, 50, 0
4, 11400, Note_on_c, 2, 45, 87
4, 11402, Note_on_c, 2, 43, 0
4, 11449, Note_on_c, 2, 45, 0
4, 11460, Note_on_c, 2, 45, 76
4, 11520, Note_on_c, 2, 38, 93
4, 11523, Note_on_c, 2, 45, 0
4, 11640, Note_on_c, 2, 38, 0
4, 11700, Note_on_c, 2, 50, 87
4, 11760, Note_on_c, 2, 45, 85
4, 11760, Note_on_c, 2, 50, 0
4, 11820, Note_on_c, 2, 43, 82
4, 11827, Note_on_c, 2, 45, 0
4, 11880, Note_on_c, 2, 45, 76
4, 11889, Note_on_c, 2, 43, 0
4, 11940, Note_on_c, 2, 46, 80
4, 11946, Note_on_c, 2, 45, 0
4, 12000, Note_on_c, 2, 45, 78
4, 12000, Note_on_c, 2, 46, 0
4, 12060, Note_on_c, 2, 43, 78
4, 12064, Note_on_c, 2, 45, 0
4, 12120, Note_on_c, 2, 45, 74
4, 12125, Note_on_c, 2, 43, 0
4, 12180, Note_on_c, 2, 41, 76
4, 12183, Note_on_c, 2, 45, 0
4, 12240, Note_on_c, 2, 48, 89
4, 12247, Note_on_c, 2, 41, 0
4, 12270, Note_on_c, 2, 47, 85
4, 12272, Note_on_c, 2, 48, 0
4, 12300, Note_on_c, 2, 48, 68
4, 12302, Note_on_c, 2, 47, 0
4, 12390, Note_on_c, 2, 47, 105
4, 12397, Note_on_c, 2, 48, 0
4, 12420, Note_on_c, 2, 48, 85
4, 12425, Note_on_c, 2, 47, 0
4, 12510, Note_on_c, 2, 47, 76
4, 12512, Note_on_c, 2, 48, 0
4, 12540, Note_on_c, 2, 48, 78
4, 12547, Note_on_c, 2, 47, 0
4, 12570, Note_on_c, 2, 47, 68
4, 12578, Note_on_c, 2, 48, 0
4, 12600, Note_on_c, 2, 48, 82
4, 12601, Note_on_c, 2, 47, 0
4, 12637, Note_on_c, 2, 48, 0
4, 12660, Note_on_c, 2, 60, 82
4, 12720, Note_on_c, 2, 58, 87
4, 12724, Note_on_c, 2, 60, 0
4, 12780, Note_on_c, 2, 57, 80
4, 12781, Note_on_c, 2, 58, 0
4, 12840, Note_on_c, 2, 58, 93
4, 12846, Note_on_c, 2, 57, 0
4, 12900, Note_on_c, 2, 60, 85
4, 12902, Note_on_c, 2, 58, 0
4, 12960, Note_on_c, 2, 58, 91
4, 12968, Note_on_c, 2, 60, 0
4, 13020, Note_on_c, 2, 57, 80
4, 13029, Note_on_c, 2, 58, 0
4, 13080, Note_on_c, 2, 58, 98
4, 13086, Note_on_c, 2, 57, 0
4, 13140, Note_on_c, 2, 55, 82
4, 13142, Note_on_c, 2, 58, 0
4, 13188, Note_on_c, 2, 55, 0
4, 13200, Note_on_c, 2, 62, 89
4, 13229, Note_on_c, 2, 62, 0
4, 13230, Note_on_c, 2, 61, 102
4, 13259, Note_on_c, 2, 61, 0
4, 13260, Note_on_c, 2, 62, 87
4, 13343, Note_on_c, 2, 62, 0
4, 13350, Note_on_c, 2, 61, 105
4, 13380, Note_on_c, 2, 62, 78
4, 13380, Note_on_c, 2, 61, 0
4, 13469, Note_on_c, 2, 62, 0
4, 13470, Note_on_c, 2, 61, 82
4, 13500, Note_on_c, 2, 62, 85
4, 13504, Note_on_c, 2, 61, 0
4, 13530, Note_on_c, 2, 61, 66
4, 13533, Note_on_c, 2, 62, 0
4, 13560, Note_on_c, 2, 62, 87
4, 13562, Note_on_c, 2, 61, 0
4, 13619, Note_on_c, 2, 62, 0
4, 13620, Note_on_c, 2, 50, 89
4, 13680, Note_on_c, 2, 55, 82
4, 13681, Note_on_c, 2, 50, 0
4, 13739, Note_on_c, 2, 55, 0
4, 13800, Note_on_c, 2, 43, 68
4, 13842, Note_on_c, 2, 43, 0
4, 13920, Note_on_c, 2, 48, 82
4, 13978, Note_on_c, 2, 48, 0
4, 14160, Note_on_c, 2, 53, 80
4, 14205, Note_on_c, 2, 53, 0
4, 14280, Note_on_c, 2, 41, 70
4, 14332, Note_on_c, 2, 41, 0
4, 14400, Note_on_c, 2, 46, 82
4, 14454, Note_on_c, 2, 46, 0
4, 14640, Note_on_c, 2, 51, 100
4, 14686, Note_on_c, 2, 51, 0
4, 14760, Note_on_c, 2, 50, 87
4, 14804, Note_on_c, 2, 50, 0
4, 14880, Note_on_c, 2, 48, 100
4, 14923, Note_on_c, 2, 48, 0
4, 15000, Note_on_c, 2, 46, 76
4, 15038, Note_on_c, 2, 46, 0
4, 15120, Note_on_c, 2, 45, 76
4, 15161, Note_on_c, 2, 45, 0
4, 15240, Note_on_c, 2, 43, 66
4, 15277, Note_on_c, 2, 43, 0
4, 15360, Note_on_c, 2, 42, 91
4, 15399, Note_on_c, 2, 42, 0
4, 15480, Note_on_c, 2, 38, 89
4, 15522, Note_on_c, 2, 38, 0
4, 15600, Note_on_c, 2, 55, 87
4, 15630, Note_on_c, 2, 54, 82
4, 15631, Note_on_c, 2, 55, 0
4, 15660, Note_on_c, 2, 55, 82
4, 15662, Note_on_c, 2, 54, 0
4, 15750, Note_on_c, 2, 54, 87
4, 15750, Note_on_c, 2, 55, 0
4, 15778, Note_on_c, 2, 54, 0
4, 15780, Note_on_c, 2, 55, 85
4, 15870, Note_on_c, 2, 54, 95
4, 15875, Note_on_c, 2, 55, 0
4, 15900, Note_on_c, 2, 55, 76
4, 15902, Note_on_c, 2, 54, 0
4, 15930, Note_on_c, 2, 54, 98
4, 15933, Note_on_c, 2, 55, 0
4, 15959, Note_on_c, 2, 54, 0
4, 15960, Note_on_c, 2, 55, 80
4, 15990, Note_on_c, 2, 54, 100
4, 15991, Note_on_c, 2, 55, 0
4, 16018, Note_on_c, 2, 54, 0
4, 16020, Note_on_c, 2, 55, 80
4, 16050, Note_on_c, 2, 54, 95
4, 16052, Note_on_c, 2, 55, 0
4, 16079, Note_on_c, 2, 54, 0
4, 16080, Note_on_c, 2, 55, 68
4, 16140, Note_on_c, 2, 48, 85
4, 16144, Note_on_c, 2, 55, 0
4, 16199, Note_on_c, 2, 48, 0
4, 16200, Note_on_c, 2, 50, 82
4, 16260, Note_on_c, 2, 38, 80
4, 16264, Note_on_c, 2, 50, 0
4, 16320, Note_on_c, 2, 43, 89
4, 16324, Note_on_c, 2, 38, 0
4, 16380, Note_on_c, 2, 45, 85
4, 16386, Note_on_c, 2, 43, 0
4, 16440, Note_on_c, 2, 46, 80
4, 16440, Note_on_c, 2, 45, 0
4, 16500, Note_on_c, 2, 45, 85
4, 16504, Note_on_c, 2, 46, 0
4, 16560, Note_on_c, 2, 43, 82
4, 16566, Note_on_c, 2, 45, 0
4, 16620, Note_on_c, 2, 45, 74
4, 16627, Note_on_c, 2, 43, 0
4, 16678, Note_on_c, 2, 45, 0
4, 16680, Note_on_c, 2, 46, 82
4, 16740, Note_on_c, 2, 43, 74
4, 16748, Note_on_c, 2, 46, 0
4, 16800, Note_on_c, 2, 48, 87
4, 16803, Note_on_c, 2, 43, 0
4, 16860, Note_on_c, 2, 50, 80
4, 16863, Note_on_c, 2, 48, 0
4, 16920, Note_on_c, 2, 51, 76
4, 16925, Note_on_c, 2, 50, 0
4, 16980, Note_on_c, 2, 48, 85
4, 16986, Note_on_c, 2, 51, 0
4, 17040, Note_on_c, 2, 41, 85
4, 17042, Note_on_c, 2, 48, 0
4, 17100, Note_on_c, 2, 43, 76
4, 17103, Note_on_c, 2, 41, 0
4, 17160, Note_on_c, 2, 45, 82
4, 17162, Note_on_c, 2, 43, 0
4, 17220, Note_on_c, 2, 41, 60
4, 17224, Note_on_c, 2, 45, 0
4, 17280, Note_on_c, 2, 46, 74
4, 17284, Note_on_c, 2, 41, 0
4, 17340, Note_on_c, 2, 48, 85
4, 17348, Note_on_c, 2, 46, 0
4, 17400, Note_on_c, 2, 50, 68
4, 17405, Note_on_c, 2, 48, 0
4, 17460, Note_on_c, 2, 46, 70
4, 17462, Note_on_c, 2, 50, 0
4, 17520, Note_on_c, 2, 51, 76
4, 17521, Note_on_c, 2, 46, 0
4, 17580, Note_on_c, 2, 50, 82
4, 17587, Note_on_c, 2, 51, 0
4, 17640, Note_on_c, 2, 52, 82
4, 17646, Note_on_c, 2, 50, 0
4, 17700, Note_on_c, 2, 48, 70
4, 17705, Note_on_c, 2, 52, 0
4, 17760, Note_on_c, 2, 53, 80
4, 17766, Note_on_c, 2, 48, 0
4, 17820, Note_on_c, 2, 52, 76
4, 17825, Note_on_c, 2, 53, 0
4, 17880, Note_on_c, 2, 54, 70
4, 17884, Note_on_c, 2, 52, 0
4, 17940, Note_on_c, 2, 50, 72
4, 17946, Note_on_c, 2, 54, 0
4, 18000, Note_on_c, 2, 55, 70
4, 18012, Note_on_c, 2, 50, 0
4, 18060, Note_on_c, 2, 53, 68
4, 18064, Note_on_c, 2, 55, 0
4, 18119, Note_on_c, 2, 53, 0
4, 18120, Note_on_c, 2, 55, 70
4, 18180, Note_on_c, 2, 51, 66
4, 18183, Note_on_c, 2, 55, 0
4, 18240, Note_on_c, 2, 57, 74
4, 18244, Note_on_c, 2, 51, 0
4, 18300, Note_on_c, 2, 55, 80
4, 18304, Note_on_c, 2, 57, 0
4, 18360, Note_on_c, 2, 57, 70
4, 18360, Note_on_c, 2, 55, 0
4, 18420, Note_on_c, 2, 53, 72
4, 18429, Note_on_c, 2, 57, 0
4, 18480, Note_on_c, 2, 50, 76
4, 18485, Note_on_c, 2, 53, 0
4, 18537, Note_on_c, 2, 50, 0
4, 18540, Note_on_c, 2, 48, 70
4, 18600, Note_on_c, 2, 50, 85
4, 18610, Note_on_c, 2, 48, 0
4, 18660, Note_on_c, 2, 51, 74
4, 18668, Note_on_c, 2, 50, 0
4, 18720, Note_on_c, 2, 50, 87
4, 18723, Note_on_c, 2, 51, 0
4, 18780, Note_on_c, 2, 48, 72
4, 18785, Note_on_c, 2, 50, 0
4, 18840, Note_on_c, 2, 50, 85
4, 18845, Note_on_c, 2, 48, 0
4, 18900, Note_on_c, 2, 46, 72
4, 18904, Note_on_c, 2, 50, 0
4, 18960, Note_on_c, 2, 53, 82
4, 18965, Note_on_c, 2, 46, 0
4, 18990, Note_on_c, 2, 52, 85
4, 18995, Note_on_c, 2, 53, 0
4, 19020, Note_on_c, 2, 53, 74
4, 19020, Note_on_c, 2, 52, 0
4, 19110, Note_on_c, 2, 52, 82
4, 19115, Note_on_c, 2, 53, 0
4, 19140, Note_on_c, 2, 53, 68
4, 19146, Note_on_c, 2, 52, 0
4, 19230, Note_on_c, 2, 52, 82
4, 19232, Note_on_c, 2, 53, 0
4, 19260, Note_on_c, 2, 53, 74
4, 19265, Note_on_c, 2, 52, 0
4, 19290, Note_on_c, 2, 52, 82
4, 19293, Note_on_c, 2, 53, 0
4, 19320, Note_on_c, 2, 53, 74
4, 19321, Note_on_c, 2, 52, 0
4, 19380, Note_on_c, 2, 50, 85
4, 19384, Note_on_c, 2, 53, 0
4, 19440, Note_on_c, 2, 51, 70
4, 19442, Note_on_c, 2, 50, 0
4, 19500, Note_on_c, 2, 50, 72
4, 19507, Note_on_c, 2, 51, 0
4, 19560, Note_on_c, 2, 51, 82
4, 19565, Note_on_c, 2, 50, 0
4, 19620, Note_on_c, 2, 53, 82
4, 19622, Note_on_c, 2, 51, 0
4, 19680, Note_on_c, 2, 51, 60
4, 19685, Note_on_c, 2, 53, 0
4, 19740, Note_on_c, 2, 50, 82
4, 19743, Note_on_c, 2, 51, 0
4, 19800, Note_on_c, 2, 51, 80
4, 19802, Note_on_c, 2, 50, 0
4, 19860, Note_on_c, 2, 48, 78
4, 19864, Note_on_c, 2, 51, 0
4, 19920, Note_on_c, 2, 55, 82
4, 19926, Note_on_c, 2, 48, 0
4, 19950, Note_on_c, 2, 54, 70
4, 19956, Note_on_c, 2, 55, 0
4, 19980, Note_on_c, 2, 55, 85
4, 19981, Note_on_c, 2, 54, 0
4, 20070, Note_on_c, 2, 54, 105
4, 20070, Note_on_c, 2, 55, 0
4, 20100, Note_on_c, 2, 55, 82
4, 20101, Note_on_c, 2, 54, 0
4, 20190, Note_on_c, 2, 54, 100
4, 20195, Note_on_c, 2, 55, 0
4, 20220, Note_on_c, 2, 55, 76
4, 20223, Note_on_c, 2, 54, 0
4, 20250, Note_on_c, 2, 54, 89
4, 20254, Note_on_c, 2, 55, 0
4, 20280, Note_on_c, 2, 55, 85
4, 20282, Note_on_c, 2, 54, 0
4, 20339, Note_on_c, 2, 55, 0
4, 20340, Note_on_c, 2, 43, 72
4, 20399, Note_on_c, 2, 43, 0
4, 20400, Note_on_c, 2, 48, 91
4, 20485, Note_on_c, 2, 48, 0
4, 20520, Note_on_c, 2, 60, 62
4, 20564, Note_on_c, 2, 60, 0
4, 20640, Note_on_c, 2, 53, 72
4, 20682, Note_on_c, 2, 53, 0
4, 20880, Note_on_c, 2, 46, 87
4, 20943, Note_on_c, 2, 46, 0
4, 21000, Note_on_c, 2, 58, 74
4, 21044, Note_on_c, 2, 58, 0
4, 21120, Note_on_c, 2, 52, 82
4, 21191, Note_on_c, 2, 52, 0
4, 21360, Note_on_c, 2, 45, 70
4, 22140, Note_on_c, 2, 43, 85
4, 22153, Note_on_c, 2, 45, 0
4, 22200, Note_on_c, 2, 41, 87
4, 22203, Note_on_c, 2, 43, 0
4, 22260, Note_on_c, 2, 40, 82
4, 22261, Note_on_c, 2, 41, 0
4, 22319, Note_on_c, 2, 40, 0
4, 22320, Note_on_c, 2, 38, 85
4, 22375, Note_on_c, 2, 38, 0
4, 22440, Note_on_c, 2, 50, 87
4, 22488, Note_on_c, 2, 50, 0
4, 22560, Note_on_c, 2, 43, 80
4, 22612, Note_on_c, 2, 43, 0
4, 22680, Note_on_c, 2, 47, 72
4, 22734, Note_on_c, 2, 47, 0
4, 22800, Note_on_c, 2, 36, 87
4, 22848, Note_on_c, 2, 36, 0
4, 22920, Note_on_c, 2, 48, 85
4, 22975, Note_on_c, 2, 48, 0
4, 23040, Note_on_c, 2, 41, 91
4, 23103, Note_on_c, 2, 41, 0
4, 23160, Note_on_c, 2, 45, 72
4, 23221, Note_on_c, 2, 45, 0
4, 23280, Note_on_c, 2, 46, 98
4, 23340, Note_on_c, 2, 45, 70
4, 23346, Note_on_c, 2, 46, 0
4, 23400, Note_on_c, 2, 47, 85
4, 23402, Note_on_c, 2, 45, 0
4, 23460, Note_on_c, 2, 43, 78
4, 23462, Note_on_c, 2, 47, 0
4, 23520, Note_on_c, 2, 48, 87
4, 23522, Note_on_c, 2, 43, 0
4, 23580, Note_on_c, 2, 47, 85
4, 23585, Note_on_c, 2, 48, 0
4, 23640, Note_on_c, 2, 49, 85
4, 23650, Note_on_c, 2, 47, 0
4, 23700, Note_on_c, 2, 45, 72
4, 23704, Note_on_c, 2, 49, 0
4, 23760, Note_on_c, 2, 50, 89
4, 23763, Note_on_c, 2, 45, 0
4, 23820, Note_on_c, 2, 48, 85
4, 23822, Note_on_c, 2, 50, 0
4, 23880, Note_on_c, 2, 50, 82
4, 23883, Note_on_c, 2, 48, 0
4, 23940, Note_on_c, 2, 46, 82
4, 23943, Note_on_c, 2, 50, 0
4, 24000, Note_on_c, 2, 52, 85
4, 24004, Note_on_c, 2, 46, 0
4, 24060, Note_on_c, 2, 50, 82
4, 24066, Note_on_c, 2, 52, 0
4, 24120, Note_on_c, 2, 52, 78
4, 24121, Note_on_c, 2, 50, 0
4, 24180, Note_on_c, 2, 48, 66
4, 24187, Note_on_c, 2, 52, 0
4, 24237, Note_on_c, 2, 48, 0
4, 24240, Note_on_c, 2, 53, 91
4, 24270, Note_on_c, 2, 52, 87
4, 24273, Note_on_c, 2, 53, 0
4, 24300, Note_on_c, 2, 53, 95
4, 24303, Note_on_c, 2, 52, 0
4, 24390, Note_on_c, 2, 52, 95
4, 24400, Note_on_c, 2, 53, 0
4, 24420, Note_on_c, 2, 53, 87
4, 24422, Note_on_c, 2, 52, 0
4, 24510, Note_on_c, 2, 52, 82
4, 24517, Note_on_c, 2, 53, 0
4, 24540, Note_on_c, 2, 53, 93
4, 24544, Note_on_c, 2, 52, 0
4, 24570, Note_on_c, 2, 52, 85
4, 24572, Note_on_c, 2, 53, 0
4, 24600, Note_on_c, 2, 53, 95
4, 24601, Note_on_c, 2, 52, 0
4, 24630, Note_on_c, 2, 52, 82
4, 24637, Note_on_c, 2, 53, 0
4, 24660, Note_on_c, 2, 53, 82
4, 24660, Note_on_c, 2, 52, 0
4, 24690, Note_on_c, 2, 52, 85
4, 24695, Note_on_c, 2, 53, 0
4, 24720, Note_on_c, 2, 53, 87
4, 24722, Note_on_c, 2, 52, 0
4, 24780, Note_on_c, 2, 46, 82
4, 24783, Note_on_c, 2, 53, 0
4, 24840, Note_on_c, 2, 48, 80
4, 24842, Note_on_c, 2, 46, 0
4, 24900, Note_on_c, 2, 36, 85
4, 24902, Note_on_c, 2, 48, 0
4, 24960, Note_on_c, 2, 41, 93
4, 24965, Note_on_c, 2, 36, 0
4, 25020, Note_on_c, 2, 43, 78
4, 25025, Note_on_c, 2, 41, 0
4, 25079, Note_on_c, 2, 43, 0
4, 25080, Note_on_c, 2, 45, 82
4, 25140, Note_on_c, 2, 41, 85
4, 25140, Note_on_c, 2, 45, 0
4, 25200, Note_on_c, 2, 46, 87
4, 25208, Note_on_c, 2, 41, 0
4, 25260, Note_on_c, 2, 48, 93
4, 25267, Note_on_c, 2, 46, 0
4, 25320, Note_on_c, 2, 50, 89
4, 25321, Note_on_c, 2, 48, 0
4, 25380, Note_on_c, 2, 48, 87
4, 25388, Note_on_c, 2, 50, 0
4, 25440, Note_on_c, 2, 47, 87
4, 25445, Note_on_c, 2, 48, 0
4, 25500, Note_on_c, 2, 45, 72
4, 25504, Note_on_c, 2, 47, 0
4, 25560, Note_on_c, 2, 47, 85
4, 25561, Note_on_c, 2, 45, 0
4, 25618, Note_on_c, 2, 47, 0
4, 25620, Note_on_c, 2, 43, 82
4, 25680, Note_on_c, 2, 48, 89
4, 25686, Note_on_c, 2, 43, 0
4, 25740, Note_on_c, 2, 50, 89
4, 25745, Note_on_c, 2, 48, 0
4, 25799, Note_on_c, 2, 50, 0
4, 25800, Note_on_c, 2, 52, 82
4, 25860, Note_on_c, 2, 50, 78
4, 25867, Note_on_c, 2, 52, 0
4, 25920, Note_on_c, 2, 49, 72
4, 25926, Note_on_c, 2, 50, 0
4, 25980, Note_on_c, 2, 47, 68
4, 25982, Note_on_c, 2, 49, 0
4, 26040, Note_on_c, 2, 49, 82
4, 26047, Note_on_c, 2, 47, 0
4, 26100, Note_on_c, 2, 45, 87
4, 26104, Note_on_c, 2, 49, 0
4, 26160, Note_on_c, 2, 50, 89
4, 26167, Note_on_c, 2, 45, 0
4, 26190, Note_on_c, 2, 49, 98
4, 26192, Note_on_c, 2, 50, 0
4, 26220, Note_on_c, 2, 50, 82
4, 26224, Note_on_c, 2, 49, 0
4, 26310, Note_on_c, 2, 48, 89
4, 26314, Note_on_c, 2, 50, 0
4, 26340, Note_on_c, 2, 50, 91
4, 26343, Note_on_c, 2, 48, 0
4, 26370, Note_on_c, 2, 46, 80
4, 26373, Note_on_c, 2, 50, 0
4, 26400, Note_on_c, 2, 48, 87
4, 26402, Note_on_c, 2, 46, 0
4, 26430, Note_on_c, 2, 46, 87
4, 26433, Note_on_c, 2, 48, 0
4, 26459, Note_on_c, 2, 46, 0
4, 26460, Note_on_c, 2, 48, 93
4, 26550, Note_on_c, 2, 46, 78
4, 26553, Note_on_c, 2, 48, 0
4, 26580, Note_on_c, 2, 48, 89
4, 26583, Note_on_c, 2, 46, 0
4, 26610, Note_on_c, 2, 45, 80
4, 26611, Note_on_c, 2, 48, 0
4, 26641, Note_on_c, 2, 45, 0
4, 26647, Note_on_c, 2, 46, 87
4, 26661, Note_on_c, 2, 48, 66
4, 26662, Note_on_c, 2, 46, 0
4, 26672, Note_on_c, 2, 46, 76
4, 26675, Note_on_c, 2, 48, 0
4, 26684, Note_on_c, 2, 48, 68
4, 26686, Note_on_c, 2, 46, 0
4, 26693, Note_on_c, 2, 46, 72
4, 26697, Note_on_c, 2, 48, 0
4, 26709, Note_on_c, 2, 48, 68
4, 26711, Note_on_c, 2, 46, 0
4, 26720, Note_on_c, 2, 46, 76
4, 26724, Note_on_c, 2, 48, 0
4, 26732, Note_on_c, 2, 48, 76
4, 26735, Note_on_c, 2, 46, 0
4, 26743, Note_on_c, 2, 46, 100
4, 26744, Note_on_c, 2, 48, 0
4, 26880, Note_on_c, 2, 45, 89
4, 26881, Note_on_c, 2, 46, 0
4, 26910, Note_on_c, 2, 57, 85
4, 26911, Note_on_c, 2, 45, 0
4, 26940, Note_on_c, 2, 55, 85
4, 26945, Note_on_c, 2, 57, 0
4, 26969, Note_on_c, 2, 55, 0
4, 26970, Note_on_c, 2, 57, 85
4, 27000, Note_on_c, 2, 53, 100
4, 27005, Note_on_c, 2, 57, 0
4, 27030, Note_on_c, 2, 55, 98
4, 27032, Note_on_c, 2, 53, 0
4, 27060, Note_on_c, 2, 52, 95
4, 27061, Note_on_c, 2, 55, 0
4, 27089, Note_on_c, 2, 52, 0
4, 27090, Note_on_c, 2, 53, 95
4, 27120, Note_on_c, 2, 50, 102
4, 27121, Note_on_c, 2, 53, 0
4, 27187, Note_on_c, 2, 50, 0
4, 27240, Note_on_c, 2, 52, 93
4, 27296, Note_on_c, 2, 52, 0
4, 27360, Note_on_c, 2, 53, 100
4, 27430, Note_on_c, 2, 53, 0
4, 27600, Note_on_c, 2, 41, 98
4, 27652, Note_on_c, 2, 41, 0
4, 27720, Note_on_c, 2, 43, 105
4, 27765, Note_on_c, 2, 43, 0
4, 27840, Note_on_c, 2, 45, 93
4, 27897, Note_on_c, 2, 45, 0
4, 27960, Note_on_c, 2, 49, 100
4, 28022, Note_on_c, 2, 49, 0
4, 28080, Note_on_c, 2, 50, 87
4, 28158, Note_on_c, 2, 50, 0
4, 28200, Note_on_c, 2, 38, 85
4, 28259, Note_on_c, 2, 38, 0
4, 28320, Note_on_c, 2, 43, 89
4, 28382, Note_on_c, 2, 43, 0
4, 28440, Note_on_c, 2, 47, 82
4, 28495, Note_on_c, 2, 47, 0
4, 28560, Note_on_c, 2, 48, 87
4, 28616, Note_on_c, 2, 48, 0
4, 28680, Note_on_c, 2, 36, 93
4, 28733, Note_on_c, 2, 36, 0
4, 28800, Note_on_c, 2, 41, 93
4, 28859, Note_on_c, 2, 41, 0
4, 28860, Note_on_c, 2, 53, 87
4, 28920, Note_on_c, 2, 52, 89
4, 28923, Note_on_c, 2, 53, 0
4, 28980, Note_on_c, 2, 50, 82
4, 28992, Note_on_c, 2, 52, 0
4, 29034, Note_on_c, 2, 50, 0
4, 29040, Note_on_c, 2, 57, 89
4, 29100, Note_on_c, 2, 62, 89
4, 29103, Note_on_c, 2, 57, 0
4, 29160, Note_on_c, 2, 60, 95
4, 29168, Note_on_c, 2, 62, 0
4, 29220, Note_on_c, 2, 59, 105
4, 29230, Note_on_c, 2, 60, 0
4, 29280, Note_on_c, 2, 57, 93
4, 29283, Note_on_c, 2, 59, 0
4, 29340, Note_on_c, 2, 53, 91
4, 29347, Note_on_c, 2, 57, 0
4, 29400, Note_on_c, 2, 52, 85
4, 29408, Note_on_c, 2, 53, 0
4, 29460, Note_on_c, 2, 50, 82
4, 29471, Note_on_c, 2, 52, 0
4, 29517, Note_on_c, 2, 50, 0
4, 29520, Note_on_c, 2, 48, 89
4, 29578, Note_on_c, 2, 48, 0
4, 29640, Note_on_c, 2, 41, 82
4, 29697, Note_on_c, 2, 41, 0
4, 29760, Note_on_c, 2, 40, 87
4, 29823, Note_on_c, 2, 40, 0
4, 30000, Note_on_c, 2, 45, 89
4, 30051, Note_on_c, 2, 45, 0
4, 30120, Note_on_c, 2, 57, 85
4, 30169, Note_on_c, 2, 57, 0
4, 30240, Note_on_c, 2, 50, 85
4, 30297, Note_on_c, 2, 50, 0
4, 30480, Note_on_c, 2, 43, 93
4, 30532, Note_on_c, 2, 43, 0
4, 30600, Note_on_c, 2, 55, 82
4, 30644, Note_on_c, 2, 55, 0
4, 30720, Note_on_c, 2, 48, 95
4, 30779, Note_on_c, 2, 48, 0
4, 30780, Note_on_c, 2, 47, 82
4, 30840, Note_on_c, 2, 49, 85
4, 30842, Note_on_c, 2, 47, 0
4, 30900, Note_on_c, 2, 45, 74
4, 30904, Note_on_c, 2, 49, 0
4, 30960, Note_on_c, 2, 50, 95
4, 30964, Note_on_c, 2, 45, 0
4, 31020, Note_on_c, 2, 49, 80
4, 31023, Note_on_c, 2, 50, 0
4, 31080, Note_on_c, 2, 51, 82
4, 31082, Note_on_c, 2, 49, 0
4, 31140, Note_on_c, 2, 47, 85
4, 31141, Note_on_c, 2, 51, 0
4, 31200, Note_on_c, 2, 52, 85
4, 31201, Note_on_c, 2, 47, 0
4, 31260, Note_on_c, 2, 50, 80
4, 31263, Note_on_c, 2, 52, 0
4, 31320, Note_on_c, 2, 52, 85
4, 31326, Note_on_c, 2, 50, 0
4, 31380, Note_on_c, 2, 48, 76
4, 31384, Note_on_c, 2, 52, 0
4, 31438, Note_on_c, 2, 48, 0
4, 31440, Note_on_c, 2, 53, 82
4, 31500, Note_on_c, 2, 52, 87
4, 31504, Note_on_c, 2, 53, 0
4, 31560, Note_on_c, 2, 54, 82
4, 31566, Note_on_c, 2, 52, 0
4, 31620, Note_on_c, 2, 50, 85
4, 31623, Note_on_c, 2, 54, 0
4, 31680, Note_on_c, 2, 55, 85
4, 31682, Note_on_c, 2, 50, 0
4, 31740, Note_on_c, 2, 54, 85
4, 31745, Note_on_c, 2, 55, 0
4, 31800, Note_on_c, 2, 56, 80
4, 31805, Note_on_c, 2, 54, 0
4, 31860, Note_on_c, 2, 52, 80
4, 31865, Note_on_c, 2, 56, 0
4, 31920, Note_on_c, 2, 57, 87
4, 31922, Note_on_c, 2, 52, 0
4, 31950, Note_on_c, 2, 56, 102
4, 31953, Note_on_c, 2, 57, 0
4, 31978, Note_on_c, 2, 56, 0
4, 31980, Note_on_c, 2, 57, 98
4, 32070, Note_on_c, 2, 56, 102
4, 32082, Note_on_c, 2, 57, 0
4, 32100, Note_on_c, 2, 57, 82
4, 32102, Note_on_c, 2, 56, 0
4, 32190, Note_on_c, 2, 56, 100
4, 32196, Note_on_c, 2, 57, 0
4, 32220, Note_on_c, 2, 57, 85
4, 32223, Note_on_c, 2, 56, 0
4, 32250, Note_on_c, 2, 56, 105
4, 32252, Note_on_c, 2, 57, 0
4, 32280, Note_on_c, 2, 57, 87
4, 32280, Note_on_c, 2, 56, 0
4, 32310, Note_on_c, 2, 56, 105
4, 32315, Note_on_c, 2, 57, 0
4, 32340, Note_on_c, 2, 57, 80
4, 32341, Note_on_c, 2, 56, 0
4, 32370, Note_on_c, 2, 56, 102
4, 32371, Note_on_c, 2, 57, 0
4, 32399, Note_on_c, 2, 56, 0
4, 32400, Note_on_c, 2, 57, 78
4, 32460, Note_on_c, 2, 50, 87
4, 32463, Note_on_c, 2, 57, 0
4, 32520, Note_on_c, 2, 52, 87
4, 32520, Note_on_c, 2, 50, 0
4, 32580, Note_on_c, 2, 40, 87
4, 32583, Note_on_c, 2, 52, 0
4, 32640, Note_on_c, 2, 45, 89
4, 32647, Note_on_c, 2, 40, 0
4, 32700, Note_on_c, 2, 47, 82
4, 32709, Note_on_c, 2, 45, 0
4, 32760, Note_on_c, 2, 48, 80
4, 32763, Note_on_c, 2, 47, 0
4, 32820, Note_on_c, 2, 45, 87
4, 32827, Note_on_c, 2, 48, 0
4, 32880, Note_on_c, 2, 50, 85
4, 32886, Note_on_c, 2, 45, 0
4, 32940, Note_on_c, 2, 52, 80
4, 32944, Note_on_c, 2, 50, 0
4, 33000, Note_on_c, 2, 53, 82
4, 33001, Note_on_c, 2, 52, 0
4, 33060, Note_on_c, 2, 50, 89
4, 33066, Note_on_c, 2, 53, 0
4, 33120, Note_on_c, 2, 43, 89
4, 33121, Note_on_c, 2, 50, 0
4, 33180, Note_on_c, 2, 45, 82
4, 33187, Note_on_c, 2, 43, 0
4, 33240, Note_on_c, 2, 46, 89
4, 33242, Note_on_c, 2, 45, 0
4, 33300, Note_on_c, 2, 43, 74
4, 33304, Note_on_c, 2, 46, 0
4, 33360, Note_on_c, 2, 48, 85
4, 33367, Note_on_c, 2, 43, 0
4, 33420, Note_on_c, 2, 50, 82
4, 33427, Note_on_c, 2, 48, 0
4, 33480, Note_on_c, 2, 52, 70
4, 33480, Note_on_c, 2, 50, 0
4, 33540, Note_on_c, 2, 48, 82
4, 33544, Note_on_c, 2, 52, 0
4, 33600, Note_on_c, 2, 41, 89
4, 33606, Note_on_c, 2, 48, 0
4, 33660, Note_on_c, 2, 53, 87
4, 33660, Note_on_c, 2, 41, 0
4, 33720, Note_on_c, 2, 55, 85
4, 33725, Note_on_c, 2, 53, 0
4, 33778, Note_on_c, 2, 55, 0
4, 33780, Note_on_c, 2, 57, 82
4, 33840, Note_on_c, 2, 58, 102
4, 33847, Note_on_c, 2, 57, 0
4, 33904, Note_on_c, 2, 58, 0
4, 33960, Note_on_c, 2, 57, 87
4, 34025, Note_on_c, 2, 57, 0
4, 34080, Note_on_c, 2, 55, 95
4, 34141, Note_on_c, 2, 55, 0
4, 34200, Note_on_c, 2, 53, 89
4, 34254, Note_on_c, 2, 53, 0
4, 34320, Note_on_c, 2, 52, 95
4, 34386, Note_on_c, 2, 52, 0
4, 34440, Note_on_c, 2, 50, 85
4, 34501, Note_on_c, 2, 50, 0
4, 34560, Note_on_c, 2, 49, 100
4, 34616, Note_on_c, 2, 49, 0
4, 34680, Note_on_c, 2, 45, 91
4, 34726, Note_on_c, 2, 45, 0
4, 34800, Note_on_c, 2, 50, 102
4, 34860, Note_on_c, 2, 55, 80
4, 34861, Note_on_c, 2, 50, 0
4, 34920, Note_on_c, 2, 53, 89
4, 34925, Note_on_c, 2, 55, 0
4, 34980, Note_on_c, 2, 52, 85
4, 34983, Note_on_c, 2, 53, 0
4, 35040, Note_on_c, 2, 50, 68
4, 35042, Note_on_c, 2, 52, 0
4, 35100, Note_on_c, 2, 46, 80
4, 35106, Note_on_c, 2, 50, 0
4, 35160, Note_on_c, 2, 45, 80
4, 35163, Note_on_c, 2, 46, 0
4, 35220, Note_on_c, 2, 43, 72
4, 35227, Note_on_c, 2, 45, 0
4, 35280, Note_on_c, 2, 41, 80
4, 35282, Note_on_c, 2, 43, 0
4, 35349, Note_on_c, 2, 41, 0
4, 35400, Note_on_c, 2, 46, 87
4, 35452, Note_on_c, 2, 46, 0
4, 35520, Note_on_c, 2, 45, 93
4, 35591, Note_on_c, 2, 45, 0
4, 35760, Note_on_c, 2, 38, 87
4, 35823, Note_on_c, 2, 38, 0
4, 35880, Note_on_c, 2, 50, 76
4, 35929, Note_on_c, 2, 50, 0
4, 36000, Note_on_c, 2, 43, 91
4, 36100, Note_on_c, 2, 43, 0
4, 36240, Note_on_c, 2, 36, 91
4, 36308, Note_on_c, 2, 36, 0
4, 36360, Note_on_c, 2, 48, 91
4, 36419, Note_on_c, 2, 48, 0
4, 36480, Note_on_c, 2, 41, 95
4, 36540, Note_on_c, 2, 40, 76
4, 36550, Note_on_c, 2, 41, 0
4, 36600, Note_on_c, 2, 42, 80
4, 36604, Note_on_c, 2, 40, 0
4, 36660, Note_on_c, 2, 38, 80
4, 36665, Note_on_c, 2, 42, 0
4, 36720, Note_on_c, 2, 43, 85
4, 36725, Note_on_c, 2, 38, 0
4, 36780, Note_on_c, 2, 42, 80
4, 36784, Note_on_c, 2, 43, 0
4, 36840, Note_on_c, 2, 44, 85
4, 36844, Note_on_c, 2, 42, 0
4, 36900, Note_on_c, 2, 40, 85
4, 36906, Note_on_c, 2, 44, 0
4, 36960, Note_on_c, 2, 45, 87
4, 36963, Note_on_c, 2, 40, 0
4, 37020, Note_on_c, 2, 43, 87
4, 37023, Note_on_c, 2, 45, 0
4, 37080, Note_on_c, 2, 45, 80
4, 37084, Note_on_c, 2, 43, 0
4, 37140, Note_on_c, 2, 41, 76
4, 37144, Note_on_c, 2, 45, 0
4, 37200, Note_on_c, 2, 46, 82
4, 37204, Note_on_c, 2, 41, 0
4, 37260, Note_on_c, 2, 45, 85
4, 37264, Note_on_c, 2, 46, 0
4, 37320, Note_on_c, 2, 47, 82
4, 37328, Note_on_c, 2, 45, 0
4, 37380, Note_on_c, 2, 43, 78
4, 37380, Note_on_c, 2, 47, 0
4, 37440, Note_on_c, 2, 48, 93
4, 37440, Note_on_c, 2, 43, 0
4, 37500, Note_on_c, 2, 47, 85
4, 37507, Note_on_c, 2, 48, 0
4, 37560, Note_on_c, 2, 49, 78
4, 37562, Note_on_c, 2, 47, 0
4, 37620, Note_on_c, 2, 45, 76
4, 37622, Note_on_c, 2, 49, 0
4, 37680, Note_on_c, 2, 50, 82
4, 37686, Note_on_c, 2, 45, 0
4, 37710, Note_on_c, 2, 49, 89
4, 37713, Note_on_c, 2, 50, 0
4, 37740, Note_on_c, 2, 50, 87
4, 37745, Note_on_c, 2, 49, 0
4, 37830, Note_on_c, 2, 49, 107
4, 37838, Note_on_c, 2, 50, 0
4, 37860, Note_on_c, 2, 50, 87
4, 37864, Note_on_c, 2, 49, 0
4, 37950, Note_on_c, 2, 49, 110
4, 37954, Note_on_c, 2, 50, 0
4, 37980, Note_on_c, 2, 50, 89
4, 37982, Note_on_c, 2, 49, 0
4, 38010, Note_on_c, 2, 49, 105
4, 38012, Note_on_c, 2, 50, 0
4, 38038, Note_on_c, 2, 49, 0
4, 38040, Note_on_c, 2, 50, 85
4, 38070, Note_on_c, 2, 49, 102
4, 38074, Note_on_c, 2, 50, 0
4, 38100, Note_on_c, 2, 50, 82
4, 38100, Note_on_c, 2, 49, 0
4, 38130, Note_on_c, 2, 49, 100
4, 38131, Note_on_c, 2, 50, 0
4, 38160, Note_on_c, 2, 50, 85
4, 38160, Note_on_c, 2, 49, 0
4, 38220, Note_on_c, 2, 43, 95
4, 38234, Note_on_c, 2, 50, 0
4, 38280, Note_on_c, 2, 45, 89
4, 38283, Note_on_c, 2, 43, 0
4, 38322, Note_on_c, 2, 45, 0
4, 38340, Note_on_c, 2, 45, 78
4, 38400, Note_on_c, 2, 38, 85
4, 38402, Note_on_c, 2, 45, 0
4, 38519, Note_on_c, 2, 38, 0
4, 38640, End_track
0, 0, End_of_file
