0, 0, Header, 1, 4, 120
1, 0, Start_track
1, 0, Time_signature, 6, 3, 12, 8
1, 0, Key_signature, -1, "major"
1, 0, Tempo, 1333333
1, 23070, Tempo, 1333333
1, 23084, Tempo, 1363636
1, 23098, Tempo, 1395348
1, 23112, Tempo, 1428571
1, 23126, Tempo, 1463414
1, 23140, Tempo, 1500000
1, 23154, Tempo, 1538461
1, 23168, Tempo, 1578947
1, 23182, Tempo, 1621621
1, 23196, Tempo, 1666666
1, 23210, Tempo, 1714285
1, 23224, Tempo, 1764705
1, 23238, Tempo, 1818181
1, 23252, Tempo, 1875000
1, 23266, Tempo, 1935483
1, 23278, Tempo, 2068965
1, 23280, Tempo, 2142857
1, 23282, Tempo, 2307692
1, 23294, Tempo, 2400000
1, 23320, Tempo, 2500000
1, 23328, Tempo, 2608695
1, 23342, Tempo, 2727272
1, 23388, Tempo, 2608695
1, 23400, End_track
2, 0, Start_track
2, 0, MIDI_port, 0
2, 0, Title_t, ""
2, 0, Control_c, 0, 10, 0
2, 360, Note_on_c, 0, 72, 90
2, 480, Note_on_c, 0, 74, 90
2, 486, Note_on_c, 0, 72, 0
2, 540, Note_on_c, 0, 67, 90
2, 544, Note_on_c, 0, 74, 0
2, 660, Note_on_c, 0, 69, 90
2, 661, Note_on_c, 0, 67, 0
2, 720, Note_on_c, 0, 70, 90
2, 727, Note_on_c, 0, 69, 0
2, 737, Note_on_c, 0, 70, 0
2, 740, Note_on_c, 0, 69, 90
2, 760, Note_on_c, 0, 70, 90
2, 760, Note_on_c, 0, 69, 0
2, 780, Note_on_c, 0, 79, 90
2, 781, Note_on_c, 0, 70, 0
2, 838, Note_on_c, 0, 79, 0
2, 840, Note_on_c, 0, 70, 90
2, 889, Note_on_c, 0, 70, 90
2, 897, Note_on_c, 0, 72, 90
2, 897, Note_on_c, 0, 70, 0
2, 897, Note_on_c, 0, 70, 0
2, 902, Note_on_c, 0, 70, 90
2, 905, Note_on_c, 0, 72, 0
2, 953, Note_on_c, 0, 70, 0
2, 960, Note_on_c, 0, 69, 90
2, 1016, Note_on_c, 0, 69, 0
2, 1080, Note_on_c, 0, 77, 90
2, 1140, Note_on_c, 0, 76, 90
2, 1144, Note_on_c, 0, 77, 0
2, 1200, Note_on_c, 0, 75, 90
2, 1204, Note_on_c, 0, 76, 0
2, 1290, Note_on_c, 0, 74, 90
2, 1293, Note_on_c, 0, 75, 0
2, 1304, Note_on_c, 0, 74, 0
2, 1305, Note_on_c, 0, 72, 90
2, 1320, Note_on_c, 0, 74, 90
2, 1323, Note_on_c, 0, 72, 0
2, 1350, Note_on_c, 0, 76, 90
2, 1357, Note_on_c, 0, 74, 0
2, 1363, Note_on_c, 0, 76, 0
2, 1365, Note_on_c, 0, 77, 90
2, 1380, Note_on_c, 0, 76, 90
2, 1382, Note_on_c, 0, 77, 0
2, 1410, Note_on_c, 0, 77, 90
2, 1417, Note_on_c, 0, 76, 0
2, 1423, Note_on_c, 0, 77, 0
2, 1425, Note_on_c, 0, 79, 90
2, 1440, Note_on_c, 0, 77, 90
2, 1447, Note_on_c, 0, 79, 0
2, 1680, Note_on_c, 0, 76, 90
2, 1684, Note_on_c, 0, 77, 0
2, 1747, Note_on_c, 0, 76, 0
2, 1800, Note_on_c, 0, 67, 90
2, 1830, Note_on_c, 0, 72, 90
2, 1842, Note_on_c, 0, 67, 0
2, 1845, Note_on_c, 0, 74, 90
2, 1847, Note_on_c, 0, 72, 0
2, 1860, Note_on_c, 0, 76, 90
2, 1866, Note_on_c, 0, 74, 0
2, 1883, Note_on_c, 0, 76, 0
2, 1890, Note_on_c, 0, 76, 90
2, 1905, Note_on_c, 0, 77, 90
2, 1910, Note_on_c, 0, 76, 0
2, 1920, Note_on_c, 0, 79, 90
2, 1924, Note_on_c, 0, 77, 0
2, 1945, Note_on_c, 0, 79, 0
2, 1950, Note_on_c, 0, 79, 90
2, 1965, Note_on_c, 0, 77, 90
2, 1972, Note_on_c, 0, 79, 0
2, 1978, Note_on_c, 0, 77, 0
2, 1980, Note_on_c, 0, 76, 90
2, 2004, Note_on_c, 0, 76, 0
2, 2010, Note_on_c, 0, 76, 90
2, 2025, Note_on_c, 0, 77, 90
2, 2026, Note_on_c, 0, 76, 0
2, 2040, Note_on_c, 0, 79, 90
2, 2046, Note_on_c, 0, 77, 0
2, 2063, Note_on_c, 0, 79, 0
2, 2070, Note_on_c, 0, 79, 90
2, 2085, Note_on_c, 0, 81, 90
2, 2086, Note_on_c, 0, 79, 0
2, 2099, Note_on_c, 0, 81, 0
2, 2100, Note_on_c, 0, 82, 90
2, 2125, Note_on_c, 0, 82, 0
2, 2130, Note_on_c, 0, 81, 90
2, 2144, Note_on_c, 0, 81, 0
2, 2145, Note_on_c, 0, 79, 90
2, 2154, Note_on_c, 0, 79, 0
2, 2160, Note_on_c, 0, 77, 90
2, 2400, Note_on_c, 0, 76, 90
2, 2406, Note_on_c, 0, 77, 0
2, 2472, Note_on_c, 0, 76, 0
2, 2520, Note_on_c, 0, 76, 90
2, 2609, Note_on_c, 0, 76, 0
2, 2610, Note_on_c, 0, 77, 90
2, 2625, Note_on_c, 0, 76, 90
2, 2631, Note_on_c, 0, 77, 0
2, 2640, Note_on_c, 0, 74, 90
2, 2640, Note_on_c, 0, 76, 0
2, 2655, Note_on_c, 0, 72, 90
2, 2655, Note_on_c, 0, 74, 0
2, 2670, Note_on_c, 0, 71, 90
2, 2671, Note_on_c, 0, 72, 0
2, 2685, Note_on_c, 0, 69, 90
2, 2688, Note_on_c, 0, 71, 0
2, 2700, Note_on_c, 0, 67, 90
2, 2702, Note_on_c, 0, 69, 0
2, 2760, Note_on_c, 0, 69, 90
2, 2769, Note_on_c, 0, 67, 0
2, 2820, Note_on_c, 0, 71, 90
2, 2824, Note_on_c, 0, 69, 0
2, 2880, Note_on_c, 0, 72, 90
2, 2881, Note_on_c, 0, 71, 0
2, 2895, Note_on_c, 0, 71, 90
2, 2896, Note_on_c, 0, 72, 0
2, 2910, Note_on_c, 0, 69, 90
2, 2914, Note_on_c, 0, 71, 0
2, 2970, Note_on_c, 0, 74, 90
2, 2974, Note_on_c, 0, 69, 0
2, 3030, Note_on_c, 0, 65, 90
2, 3033, Note_on_c, 0, 74, 0
2, 3051, Note_on_c, 0, 65, 0
2, 3057, Note_on_c, 0, 65, 90
2, 3065, Note_on_c, 0, 67, 90
2, 3066, Note_on_c, 0, 65, 0
2, 3071, Note_on_c, 0, 65, 90
2, 3072, Note_on_c, 0, 67, 0
2, 3120, Note_on_c, 0, 64, 90
2, 3121, Note_on_c, 0, 65, 0
2, 3178, Note_on_c, 0, 64, 0
2, 3240, Note_on_c, 0, 72, 90
2, 3360, Note_on_c, 0, 74, 90
2, 3366, Note_on_c, 0, 72, 0
2, 3420, Note_on_c, 0, 67, 90
2, 3424, Note_on_c, 0, 74, 0
2, 3540, Note_on_c, 0, 69, 90
2, 3541, Note_on_c, 0, 67, 0
2, 3600, Note_on_c, 0, 70, 90
2, 3607, Note_on_c, 0, 69, 0
2, 3617, Note_on_c, 0, 70, 0
2, 3620, Note_on_c, 0, 69, 90
2, 3640, Note_on_c, 0, 70, 90
2, 3640, Note_on_c, 0, 69, 0
2, 3660, Note_on_c, 0, 79, 90
2, 3661, Note_on_c, 0, 70, 0
2, 3718, Note_on_c, 0, 79, 0
2, 3722, Note_on_c, 0, 70, 90
2, 3759, Note_on_c, 0, 70, 0
2, 3775, Note_on_c, 0, 70, 90
2, 3784, Note_on_c, 0, 72, 90
2, 3793, Note_on_c, 0, 72, 0
2, 3843, Note_on_c, 0, 69, 90
2, 3843, Note_on_c, 0, 70, 0
2, 3884, Note_on_c, 0, 69, 0
2, 3960, Note_on_c, 0, 77, 90
2, 4020, Note_on_c, 0, 76, 90
2, 4024, Note_on_c, 0, 77, 0
2, 4080, Note_on_c, 0, 75, 90
2, 4084, Note_on_c, 0, 76, 0
2, 4170, Note_on_c, 0, 74, 90
2, 4173, Note_on_c, 0, 75, 0
2, 4184, Note_on_c, 0, 74, 0
2, 4185, Note_on_c, 0, 72, 90
2, 4200, Note_on_c, 0, 74, 90
2, 4203, Note_on_c, 0, 72, 0
2, 4230, Note_on_c, 0, 76, 90
2, 4237, Note_on_c, 0, 74, 0
2, 4243, Note_on_c, 0, 76, 0
2, 4245, Note_on_c, 0, 77, 90
2, 4260, Note_on_c, 0, 76, 90
2, 4262, Note_on_c, 0, 77, 0
2, 4290, Note_on_c, 0, 77, 90
2, 4297, Note_on_c, 0, 76, 0
2, 4303, Note_on_c, 0, 77, 0
2, 4305, Note_on_c, 0, 79, 90
2, 4320, Note_on_c, 0, 77, 90
2, 4327, Note_on_c, 0, 79, 0
2, 4560, Note_on_c, 0, 76, 90
2, 4564, Note_on_c, 0, 77, 0
2, 4627, Note_on_c, 0, 76, 0
2, 4680, Note_on_c, 0, 67, 90
2, 4710, Note_on_c, 0, 72, 90
2, 4722, Note_on_c, 0, 67, 0
2, 4725, Note_on_c, 0, 74, 90
2, 4727, Note_on_c, 0, 72, 0
2, 4740, Note_on_c, 0, 76, 90
2, 4746, Note_on_c, 0, 74, 0
2, 4763, Note_on_c, 0, 76, 0
2, 4770, Note_on_c, 0, 76, 90
2, 4785, Note_on_c, 0, 77, 90
2, 4790, Note_on_c, 0, 76, 0
2, 4800, Note_on_c, 0, 79, 90
2, 4804, Note_on_c, 0, 77, 0
2, 4825, Note_on_c, 0, 79, 0
2, 4830, Note_on_c, 0, 79, 90
2, 4845, Note_on_c, 0, 77, 90
2, 4852, Note_on_c, 0, 79, 0
2, 4858, Note_on_c, 0, 77, 0
2, 4860, Note_on_c, 0, 76, 90
2, 4884, Note_on_c, 0, 76, 0
2, 4890, Note_on_c, 0, 76, 90
2, 4905, Note_on_c, 0, 77, 90
2, 4906, Note_on_c, 0, 76, 0
2, 4920, Note_on_c, 0, 79, 90
2, 4926, Note_on_c, 0, 77, 0
2, 4943, Note_on_c, 0, 79, 0
2, 4950, Note_on_c, 0, 79, 90
2, 4965, Note_on_c, 0, 81, 90
2, 4966, Note_on_c, 0, 79, 0
2, 4979, Note_on_c, 0, 81, 0
2, 4980, Note_on_c, 0, 82, 90
2, 5005, Note_on_c, 0, 82, 0
2, 5010, Note_on_c, 0, 81, 90
2, 5024, Note_on_c, 0, 81, 0
2, 5025, Note_on_c, 0, 79, 90
2, 5034, Note_on_c, 0, 79, 0
2, 5040, Note_on_c, 0, 77, 90
2, 5280, Note_on_c, 0, 76, 90
2, 5286, Note_on_c, 0, 77, 0
2, 5352, Note_on_c, 0, 76, 0
2, 5400, Note_on_c, 0, 76, 90
2, 5489, Note_on_c, 0, 76, 0
2, 5490, Note_on_c, 0, 77, 90
2, 5505, Note_on_c, 0, 76, 90
2, 5511, Note_on_c, 0, 77, 0
2, 5520, Note_on_c, 0, 74, 90
2, 5520, Note_on_c, 0, 76, 0
2, 5535, Note_on_c, 0, 72, 90
2, 5535, Note_on_c, 0, 74, 0
2, 5550, Note_on_c, 0, 71, 90
2, 5551, Note_on_c, 0, 72, 0
2, 5565, Note_on_c, 0, 69, 90
2, 5568, Note_on_c, 0, 71, 0
2, 5580, Note_on_c, 0, 67, 90
2, 5582, Note_on_c, 0, 69, 0
2, 5640, Note_on_c, 0, 69, 90
2, 5649, Note_on_c, 0, 67, 0
2, 5700, Note_on_c, 0, 71, 90
2, 5704, Note_on_c, 0, 69, 0
2, 5760, Note_on_c, 0, 72, 90
2, 5761, Note_on_c, 0, 71, 0
2, 5775, Note_on_c, 0, 71, 90
2, 5776, Note_on_c, 0, 72, 0
2, 5790, Note_on_c, 0, 69, 90
2, 5794, Note_on_c, 0, 71, 0
2, 5850, Note_on_c, 0, 74, 90
2, 5854, Note_on_c, 0, 69, 0
2, 5910, Note_on_c, 0, 65, 90
2, 5913, Note_on_c, 0, 74, 0
2, 5931, Note_on_c, 0, 65, 0
2, 5941, Note_on_c, 0, 65, 90
2, 5950, Note_on_c, 0, 67, 90
2, 5950, Note_on_c, 0, 65, 0
2, 5955, Note_on_c, 0, 65, 90
2, 5956, Note_on_c, 0, 67, 0
2, 5995, Note_on_c, 0, 65, 0
2, 6000, Note_on_c, 0, 64, 90
2, 6058, Note_on_c, 0, 64, 0
2, 6122, Note_on_c, 0, 76, 90
2, 6237, Note_on_c, 0, 77, 90
2, 6240, Note_on_c, 0, 76, 0
2, 6297, Note_on_c, 0, 71, 90
2, 6300, Note_on_c, 0, 77, 0
2, 6419, Note_on_c, 0, 72, 90
2, 6423, Note_on_c, 0, 71, 0
2, 6479, Note_on_c, 0, 74, 90
2, 6482, Note_on_c, 0, 72, 0
2, 6502, Note_on_c, 0, 72, 90
2, 6505, Note_on_c, 0, 74, 0
2, 6520, Note_on_c, 0, 74, 90
2, 6524, Note_on_c, 0, 72, 0
2, 6540, Note_on_c, 0, 67, 90
2, 6544, Note_on_c, 0, 74, 0
2, 6600, Note_on_c, 0, 71, 90
2, 6603, Note_on_c, 0, 67, 0
2, 6695, Note_on_c, 0, 72, 90
2, 6698, Note_on_c, 0, 71, 0
2, 6708, Note_on_c, 0, 71, 90
2, 6709, Note_on_c, 0, 72, 0
2, 6720, Note_on_c, 0, 72, 90
2, 6723, Note_on_c, 0, 71, 0
2, 6794, Note_on_c, 0, 72, 0
2, 6840, Note_on_c, 0, 79, 90
2, 6849, Note_on_c, 0, 79, 0
2, 6850, Note_on_c, 0, 78, 90
2, 6857, Note_on_c, 0, 79, 90
2, 6858, Note_on_c, 0, 78, 0
2, 6865, Note_on_c, 0, 78, 90
2, 6867, Note_on_c, 0, 79, 0
2, 7080, Note_on_c, 0, 79, 90
2, 7083, Note_on_c, 0, 78, 0
2, 7110, Note_on_c, 0, 82, 90
2, 7113, Note_on_c, 0, 79, 0
2, 7125, Note_on_c, 0, 81, 90
2, 7126, Note_on_c, 0, 82, 0
2, 7140, Note_on_c, 0, 79, 90
2, 7145, Note_on_c, 0, 81, 0
2, 7155, Note_on_c, 0, 77, 90
2, 7156, Note_on_c, 0, 79, 0
2, 7170, Note_on_c, 0, 76, 90
2, 7171, Note_on_c, 0, 77, 0
2, 7193, Note_on_c, 0, 76, 0
2, 7201, Note_on_c, 0, 76, 66
2, 7212, Note_on_c, 0, 74, 64
2, 7214, Note_on_c, 0, 76, 0
2, 7218, Note_on_c, 0, 73, 63
2, 7218, Note_on_c, 0, 74, 0
2, 7228, Note_on_c, 0, 74, 72
2, 7228, Note_on_c, 0, 73, 0
2, 7287, Note_on_c, 0, 74, 0
2, 7296, Note_on_c, 0, 80, 90
2, 7306, Note_on_c, 0, 81, 90
2, 7322, Note_on_c, 0, 83, 90
2, 7323, Note_on_c, 0, 80, 0
2, 7324, Note_on_c, 0, 81, 0
2, 7351, Note_on_c, 0, 74, 90
2, 7352, Note_on_c, 0, 83, 0
2, 7371, Note_on_c, 0, 74, 0
2, 7379, Note_on_c, 0, 76, 90
2, 7383, Note_on_c, 0, 74, 90
2, 7387, Note_on_c, 0, 76, 0
2, 7443, Note_on_c, 0, 73, 90
2, 7445, Note_on_c, 0, 74, 0
2, 7473, Note_on_c, 0, 74, 90
2, 7477, Note_on_c, 0, 73, 0
2, 7501, Note_on_c, 0, 76, 90
2, 7506, Note_on_c, 0, 74, 0
2, 7577, Note_on_c, 0, 74, 90
2, 7581, Note_on_c, 0, 76, 0
2, 7591, Note_on_c, 0, 73, 90
2, 7594, Note_on_c, 0, 74, 0
2, 7621, Note_on_c, 0, 74, 90
2, 7623, Note_on_c, 0, 73, 0
2, 7654, Note_on_c, 0, 69, 90
2, 7655, Note_on_c, 0, 74, 0
2, 7713, Note_on_c, 0, 70, 90
2, 7715, Note_on_c, 0, 69, 0
2, 7742, Note_on_c, 0, 64, 98
2, 7743, Note_on_c, 0, 70, 0
2, 7750, Note_on_c, 0, 65, 85
2, 7750, Note_on_c, 0, 64, 0
2, 7757, Note_on_c, 0, 64, 85
2, 7757, Note_on_c, 0, 65, 0
2, 7862, Note_on_c, 0, 65, 90
2, 7865, Note_on_c, 0, 64, 0
2, 7922, Note_on_c, 0, 67, 90
2, 7924, Note_on_c, 0, 65, 0
2, 7943, Note_on_c, 0, 65, 90
2, 7944, Note_on_c, 0, 67, 0
2, 7960, Note_on_c, 0, 67, 90
2, 7963, Note_on_c, 0, 65, 0
2, 7982, Note_on_c, 0, 76, 90
2, 7984, Note_on_c, 0, 67, 0
2, 8047, Note_on_c, 0, 67, 90
2, 8050, Note_on_c, 0, 76, 0
2, 8098, Note_on_c, 0, 67, 0
2, 8105, Note_on_c, 0, 67, 90
2, 8111, Note_on_c, 0, 69, 90
2, 8122, Note_on_c, 0, 69, 0
2, 8166, Note_on_c, 0, 65, 90
2, 8167, Note_on_c, 0, 67, 0
2, 8232, Note_on_c, 0, 65, 0
2, 8280, Note_on_c, 0, 70, 90
2, 8295, Note_on_c, 0, 69, 90
2, 8301, Note_on_c, 0, 70, 0
2, 8310, Note_on_c, 0, 67, 90
2, 8313, Note_on_c, 0, 69, 0
2, 8325, Note_on_c, 0, 70, 90
2, 8329, Note_on_c, 0, 67, 0
2, 8340, Note_on_c, 0, 69, 90
2, 8345, Note_on_c, 0, 70, 0
2, 8355, Note_on_c, 0, 67, 90
2, 8355, Note_on_c, 0, 69, 0
2, 8370, Note_on_c, 0, 65, 90
2, 8371, Note_on_c, 0, 67, 0
2, 8385, Note_on_c, 0, 69, 90
2, 8389, Note_on_c, 0, 65, 0
2, 8400, Note_on_c, 0, 67, 90
2, 8400, Note_on_c, 0, 69, 0
2, 8430, Note_on_c, 0, 73, 90
2, 8440, Note_on_c, 0, 67, 0
2, 8445, Note_on_c, 0, 76, 90
2, 8445, Note_on_c, 0, 73, 0
2, 8460, Note_on_c, 0, 79, 90
2, 8462, Note_on_c, 0, 76, 0
2, 8655, Note_on_c, 0, 77, 90
2, 8661, Note_on_c, 0, 79, 0
2, 8670, Note_on_c, 0, 76, 90
2, 8672, Note_on_c, 0, 77, 0
2, 8685, Note_on_c, 0, 74, 90
2, 8686, Note_on_c, 0, 76, 0
2, 8700, Note_on_c, 0, 76, 90
2, 8703, Note_on_c, 0, 74, 0
2, 8756, Note_on_c, 0, 76, 0
2, 8760, Note_on_c, 0, 73, 98
2, 8767, Note_on_c, 0, 74, 64
2, 8767, Note_on_c, 0, 73, 0
2, 8774, Note_on_c, 0, 73, 64
2, 8774, Note_on_c, 0, 74, 0
2, 8780, Note_on_c, 0, 71, 72
2, 8780, Note_on_c, 0, 73, 0
2, 8790, Note_on_c, 0, 73, 107
2, 8793, Note_on_c, 0, 71, 0
2, 8814, Note_on_c, 0, 73, 0
2, 8824, Note_on_c, 0, 73, 90
2, 8883, Note_on_c, 0, 74, 90
2, 8887, Note_on_c, 0, 73, 0
2, 8956, Note_on_c, 0, 74, 0
2, 9120, Note_on_c, 0, 74, 90
2, 9195, Note_on_c, 0, 70, 90
2, 9199, Note_on_c, 0, 74, 0
2, 9210, Note_on_c, 0, 72, 90
2, 9213, Note_on_c, 0, 70, 0
2, 9225, Note_on_c, 0, 74, 90
2, 9228, Note_on_c, 0, 72, 0
2, 9240, Note_on_c, 0, 72, 90
2, 9243, Note_on_c, 0, 74, 0
2, 9255, Note_on_c, 0, 69, 90
2, 9256, Note_on_c, 0, 72, 0
2, 9270, Note_on_c, 0, 70, 90
2, 9274, Note_on_c, 0, 69, 0
2, 9285, Note_on_c, 0, 72, 90
2, 9286, Note_on_c, 0, 70, 0
2, 9300, Note_on_c, 0, 70, 90
2, 9304, Note_on_c, 0, 72, 0
2, 9314, Note_on_c, 0, 70, 0
2, 9315, Note_on_c, 0, 67, 90
2, 9330, Note_on_c, 0, 69, 90
2, 9335, Note_on_c, 0, 67, 0
2, 9344, Note_on_c, 0, 69, 0
2, 9345, Note_on_c, 0, 70, 90
2, 9360, Note_on_c, 0, 69, 90
2, 9362, Note_on_c, 0, 70, 0
2, 9420, Note_on_c, 0, 70, 90
2, 9425, Note_on_c, 0, 69, 0
2, 9428, Note_on_c, 0, 70, 0
2, 9430, Note_on_c, 0, 69, 90
2, 9438, Note_on_c, 0, 70, 90
2, 9440, Note_on_c, 0, 69, 0
2, 9473, Note_on_c, 0, 70, 0
2, 9480, Note_on_c, 0, 72, 90
2, 9548, Note_on_c, 0, 72, 0
2, 9555, Note_on_c, 0, 69, 90
2, 9570, Note_on_c, 0, 70, 90
2, 9574, Note_on_c, 0, 69, 0
2, 9585, Note_on_c, 0, 72, 90
2, 9586, Note_on_c, 0, 70, 0
2, 9600, Note_on_c, 0, 70, 90
2, 9604, Note_on_c, 0, 72, 0
2, 9614, Note_on_c, 0, 70, 0
2, 9615, Note_on_c, 0, 67, 90
2, 9630, Note_on_c, 0, 69, 90
2, 9634, Note_on_c, 0, 67, 0
2, 9645, Note_on_c, 0, 70, 90
2, 9648, Note_on_c, 0, 69, 0
2, 9660, Note_on_c, 0, 69, 90
2, 9662, Note_on_c, 0, 70, 0
2, 9675, Note_on_c, 0, 65, 90
2, 9676, Note_on_c, 0, 69, 0
2, 9690, Note_on_c, 0, 67, 90
2, 9691, Note_on_c, 0, 65, 0
2, 9705, Note_on_c, 0, 69, 90
2, 9707, Note_on_c, 0, 67, 0
2, 9720, Note_on_c, 0, 67, 90
2, 9721, Note_on_c, 0, 69, 0
2, 9930, Note_on_c, 0, 65, 90
2, 9935, Note_on_c, 0, 67, 0
2, 9943, Note_on_c, 0, 65, 0
2, 9945, Note_on_c, 0, 67, 90
2, 9960, Note_on_c, 0, 69, 90
2, 9966, Note_on_c, 0, 67, 0
2, 9983, Note_on_c, 0, 69, 0
2, 9990, Note_on_c, 0, 69, 90
2, 10005, Note_on_c, 0, 70, 90
2, 10015, Note_on_c, 0, 69, 0
2, 10020, Note_on_c, 0, 72, 90
2, 10026, Note_on_c, 0, 70, 0
2, 10032, Note_on_c, 0, 72, 0
2, 10050, Note_on_c, 0, 72, 90
2, 10065, Note_on_c, 0, 74, 90
2, 10069, Note_on_c, 0, 72, 0
2, 10080, Note_on_c, 0, 75, 90
2, 10085, Note_on_c, 0, 74, 0
2, 10101, Note_on_c, 0, 75, 0
2, 10110, Note_on_c, 0, 74, 90
2, 10125, Note_on_c, 0, 75, 90
2, 10129, Note_on_c, 0, 74, 0
2, 10140, Note_on_c, 0, 77, 90
2, 10144, Note_on_c, 0, 75, 0
2, 10170, Note_on_c, 0, 74, 90
2, 10172, Note_on_c, 0, 77, 0
2, 10200, Note_on_c, 0, 70, 90
2, 10205, Note_on_c, 0, 74, 0
2, 10230, Note_on_c, 0, 79, 90
2, 10232, Note_on_c, 0, 70, 0
2, 10255, Note_on_c, 0, 79, 0
2, 10262, Note_on_c, 0, 76, 90
2, 10270, Note_on_c, 0, 76, 0
2, 10271, Note_on_c, 0, 74, 90
2, 10279, Note_on_c, 0, 76, 90
2, 10280, Note_on_c, 0, 74, 0
2, 10348, Note_on_c, 0, 76, 0
2, 10350, Note_on_c, 0, 74, 90
2, 10379, Note_on_c, 0, 74, 0
2, 10380, Note_on_c, 0, 72, 90
2, 10440, Note_on_c, 0, 72, 0
2, 10441, Note_on_c, 0, 81, 90
2, 10451, Note_on_c, 0, 79, 90
2, 10452, Note_on_c, 0, 81, 0
2, 10459, Note_on_c, 0, 81, 90
2, 10462, Note_on_c, 0, 79, 0
2, 10563, Note_on_c, 0, 82, 90
2, 10565, Note_on_c, 0, 81, 0
2, 10619, Note_on_c, 0, 76, 90
2, 10622, Note_on_c, 0, 82, 0
2, 10740, Note_on_c, 0, 77, 90
2, 10742, Note_on_c, 0, 76, 0
2, 10799, Note_on_c, 0, 79, 90
2, 10802, Note_on_c, 0, 77, 0
2, 10822, Note_on_c, 0, 77, 90
2, 10825, Note_on_c, 0, 79, 0
2, 10840, Note_on_c, 0, 79, 90
2, 10842, Note_on_c, 0, 77, 0
2, 10861, Note_on_c, 0, 72, 90
2, 10865, Note_on_c, 0, 79, 0
2, 10921, Note_on_c, 0, 76, 90
2, 10925, Note_on_c, 0, 72, 0
2, 11015, Note_on_c, 0, 77, 90
2, 11016, Note_on_c, 0, 76, 0
2, 11026, Note_on_c, 0, 76, 90
2, 11027, Note_on_c, 0, 77, 0
2, 11035, Note_on_c, 0, 77, 90
2, 11038, Note_on_c, 0, 76, 0
2, 11100, Note_on_c, 0, 77, 0
2, 11160, Note_on_c, 0, 68, 90
2, 11174, Note_on_c, 0, 68, 0
2, 11175, Note_on_c, 0, 67, 90
2, 11190, Note_on_c, 0, 68, 90
2, 11192, Note_on_c, 0, 67, 0
2, 11231, Note_on_c, 0, 68, 0
2, 11250, Note_on_c, 0, 74, 90
2, 11265, Note_on_c, 0, 75, 90
2, 11269, Note_on_c, 0, 74, 0
2, 11280, Note_on_c, 0, 77, 90
2, 11284, Note_on_c, 0, 75, 0
2, 11299, Note_on_c, 0, 77, 0
2, 11310, Note_on_c, 0, 68, 90
2, 11338, Note_on_c, 0, 68, 0
2, 11340, Note_on_c, 0, 68, 90
2, 11400, Note_on_c, 0, 67, 90
2, 11404, Note_on_c, 0, 68, 0
2, 11453, Note_on_c, 0, 67, 0
2, 11460, Note_on_c, 0, 74, 90
2, 11563, Note_on_c, 0, 74, 0
2, 11582, Note_on_c, 0, 73, 90
2, 11587, Note_on_c, 0, 73, 0
2, 11588, Note_on_c, 0, 71, 90
2, 11598, Note_on_c, 0, 73, 90
2, 11601, Note_on_c, 0, 71, 0
2, 11760, Note_on_c, 0, 74, 90
2, 11764, Note_on_c, 0, 73, 0
2, 11790, Note_on_c, 0, 75, 90
2, 11796, Note_on_c, 0, 74, 0
2, 11805, Note_on_c, 0, 74, 90
2, 11807, Note_on_c, 0, 75, 0
2, 11820, Note_on_c, 0, 72, 90
2, 11830, Note_on_c, 0, 74, 0
2, 11835, Note_on_c, 0, 70, 90
2, 11842, Note_on_c, 0, 72, 0
2, 11850, Note_on_c, 0, 69, 90
2, 11851, Note_on_c, 0, 70, 0
2, 11865, Note_on_c, 0, 67, 90
2, 11868, Note_on_c, 0, 69, 0
2, 11880, Note_on_c, 0, 69, 90
2, 11882, Note_on_c, 0, 67, 0
2, 11936, Note_on_c, 0, 69, 0
2, 11940, Note_on_c, 0, 62, 90
2, 11997, Note_on_c, 0, 62, 0
2, 12180, Note_on_c, 0, 77, 90
2, 12300, Note_on_c, 0, 76, 90
2, 12305, Note_on_c, 0, 77, 0
2, 12360, Note_on_c, 0, 75, 90
2, 12363, Note_on_c, 0, 76, 0
2, 12444, Note_on_c, 0, 75, 0
2, 12450, Note_on_c, 0, 74, 90
2, 12465, Note_on_c, 0, 72, 90
2, 12465, Note_on_c, 0, 74, 0
2, 12480, Note_on_c, 0, 74, 90
2, 12484, Note_on_c, 0, 72, 0
2, 12509, Note_on_c, 0, 74, 0
2, 12510, Note_on_c, 0, 76, 90
2, 12525, Note_on_c, 0, 77, 90
2, 12525, Note_on_c, 0, 76, 0
2, 12540, Note_on_c, 0, 76, 90
2, 12542, Note_on_c, 0, 77, 0
2, 12570, Note_on_c, 0, 77, 90
2, 12580, Note_on_c, 0, 76, 0
2, 12585, Note_on_c, 0, 79, 90
2, 12585, Note_on_c, 0, 77, 0
2, 12600, Note_on_c, 0, 77, 90
2, 12605, Note_on_c, 0, 79, 0
2, 12840, Note_on_c, 0, 76, 90
2, 12841, Note_on_c, 0, 77, 0
2, 12900, Note_on_c, 0, 75, 90
2, 12904, Note_on_c, 0, 76, 0
2, 13020, Note_on_c, 0, 74, 90
2, 13023, Note_on_c, 0, 75, 0
2, 13080, Note_on_c, 0, 73, 90
2, 13083, Note_on_c, 0, 74, 0
2, 13150, Note_on_c, 0, 73, 0
2, 13170, Note_on_c, 0, 72, 90
2, 13184, Note_on_c, 0, 72, 0
2, 13185, Note_on_c, 0, 70, 90
2, 13200, Note_on_c, 0, 72, 90
2, 13204, Note_on_c, 0, 70, 0
2, 13228, Note_on_c, 0, 72, 0
2, 13230, Note_on_c, 0, 74, 90
2, 13245, Note_on_c, 0, 75, 90
2, 13247, Note_on_c, 0, 74, 0
2, 13260, Note_on_c, 0, 74, 90
2, 13260, Note_on_c, 0, 75, 0
2, 13290, Note_on_c, 0, 75, 90
2, 13296, Note_on_c, 0, 74, 0
2, 13305, Note_on_c, 0, 77, 90
2, 13307, Note_on_c, 0, 75, 0
2, 13320, Note_on_c, 0, 75, 90
2, 13322, Note_on_c, 0, 77, 0
2, 13560, Note_on_c, 0, 74, 90
2, 13564, Note_on_c, 0, 75, 0
2, 13626, Note_on_c, 0, 74, 0
2, 13680, Note_on_c, 0, 67, 90
2, 13710, Note_on_c, 0, 72, 90
2, 13718, Note_on_c, 0, 67, 0
2, 13725, Note_on_c, 0, 74, 90
2, 13728, Note_on_c, 0, 72, 0
2, 13740, Note_on_c, 0, 76, 90
2, 13746, Note_on_c, 0, 74, 0
2, 13759, Note_on_c, 0, 76, 0
2, 13770, Note_on_c, 0, 76, 90
2, 13785, Note_on_c, 0, 77, 90
2, 13789, Note_on_c, 0, 76, 0
2, 13800, Note_on_c, 0, 79, 90
2, 13805, Note_on_c, 0, 77, 0
2, 13822, Note_on_c, 0, 79, 0
2, 13830, Note_on_c, 0, 79, 90
2, 13844, Note_on_c, 0, 79, 0
2, 13845, Note_on_c, 0, 77, 90
2, 13860, Note_on_c, 0, 76, 90
2, 13866, Note_on_c, 0, 77, 0
2, 13881, Note_on_c, 0, 76, 0
2, 13890, Note_on_c, 0, 76, 90
2, 13905, Note_on_c, 0, 77, 90
2, 13906, Note_on_c, 0, 76, 0
2, 13920, Note_on_c, 0, 79, 90
2, 13924, Note_on_c, 0, 77, 0
2, 13941, Note_on_c, 0, 79, 0
2, 13950, Note_on_c, 0, 79, 90
2, 13965, Note_on_c, 0, 81, 90
2, 13968, Note_on_c, 0, 79, 0
2, 13980, Note_on_c, 0, 82, 90
2, 13980, Note_on_c, 0, 81, 0
2, 14003, Note_on_c, 0, 82, 0
2, 14010, Note_on_c, 0, 81, 90
2, 14025, Note_on_c, 0, 79, 90
2, 14028, Note_on_c, 0, 81, 0
2, 14040, Note_on_c, 0, 77, 90
2, 14043, Note_on_c, 0, 79, 0
2, 14310, Note_on_c, 0, 79, 90
2, 14312, Note_on_c, 0, 77, 0
2, 14325, Note_on_c, 0, 77, 90
2, 14330, Note_on_c, 0, 79, 0
2, 14340, Note_on_c, 0, 76, 90
2, 14350, Note_on_c, 0, 77, 0
2, 14355, Note_on_c, 0, 74, 90
2, 14359, Note_on_c, 0, 76, 0
2, 14370, Note_on_c, 0, 72, 90
2, 14371, Note_on_c, 0, 74, 0
2, 14385, Note_on_c, 0, 70, 90
2, 14387, Note_on_c, 0, 72, 0
2, 14400, Note_on_c, 0, 69, 90
2, 14402, Note_on_c, 0, 70, 0
2, 14460, Note_on_c, 0, 77, 90
2, 14462, Note_on_c, 0, 69, 0
2, 14520, Note_on_c, 0, 76, 90
2, 14522, Note_on_c, 0, 77, 0
2, 14573, Note_on_c, 0, 76, 0
2, 14582, Note_on_c, 0, 76, 90
2, 14624, Note_on_c, 0, 77, 90
2, 14624, Note_on_c, 0, 76, 0
2, 14634, Note_on_c, 0, 76, 90
2, 14634, Note_on_c, 0, 77, 0
2, 14643, Note_on_c, 0, 77, 90
2, 14645, Note_on_c, 0, 76, 0
2, 14705, Note_on_c, 0, 77, 0
2, 14762, Note_on_c, 0, 76, 90
2, 14877, Note_on_c, 0, 77, 90
2, 14880, Note_on_c, 0, 76, 0
2, 14937, Note_on_c, 0, 71, 90
2, 14940, Note_on_c, 0, 77, 0
2, 15059, Note_on_c, 0, 72, 90
2, 15063, Note_on_c, 0, 71, 0
2, 15119, Note_on_c, 0, 74, 90
2, 15122, Note_on_c, 0, 72, 0
2, 15142, Note_on_c, 0, 72, 90
2, 15145, Note_on_c, 0, 74, 0
2, 15160, Note_on_c, 0, 74, 90
2, 15164, Note_on_c, 0, 72, 0
2, 15180, Note_on_c, 0, 67, 90
2, 15184, Note_on_c, 0, 74, 0
2, 15240, Note_on_c, 0, 71, 90
2, 15243, Note_on_c, 0, 67, 0
2, 15335, Note_on_c, 0, 72, 90
2, 15338, Note_on_c, 0, 71, 0
2, 15348, Note_on_c, 0, 71, 90
2, 15349, Note_on_c, 0, 72, 0
2, 15360, Note_on_c, 0, 72, 90
2, 15363, Note_on_c, 0, 71, 0
2, 15434, Note_on_c, 0, 72, 0
2, 15480, Note_on_c, 0, 79, 90
2, 15489, Note_on_c, 0, 79, 0
2, 15490, Note_on_c, 0, 78, 90
2, 15497, Note_on_c, 0, 79, 90
2, 15498, Note_on_c, 0, 78, 0
2, 15505, Note_on_c, 0, 78, 90
2, 15507, Note_on_c, 0, 79, 0
2, 15720, Note_on_c, 0, 79, 90
2, 15723, Note_on_c, 0, 78, 0
2, 15750, Note_on_c, 0, 82, 90
2, 15753, Note_on_c, 0, 79, 0
2, 15765, Note_on_c, 0, 81, 90
2, 15766, Note_on_c, 0, 82, 0
2, 15780, Note_on_c, 0, 79, 90
2, 15785, Note_on_c, 0, 81, 0
2, 15795, Note_on_c, 0, 77, 90
2, 15796, Note_on_c, 0, 79, 0
2, 15810, Note_on_c, 0, 76, 90
2, 15811, Note_on_c, 0, 77, 0
2, 15833, Note_on_c, 0, 76, 0
2, 15841, Note_on_c, 0, 76, 66
2, 15852, Note_on_c, 0, 74, 64
2, 15854, Note_on_c, 0, 76, 0
2, 15858, Note_on_c, 0, 73, 63
2, 15858, Note_on_c, 0, 74, 0
2, 15868, Note_on_c, 0, 74, 72
2, 15868, Note_on_c, 0, 73, 0
2, 15927, Note_on_c, 0, 74, 0
2, 15936, Note_on_c, 0, 80, 90
2, 15946, Note_on_c, 0, 81, 90
2, 15962, Note_on_c, 0, 83, 90
2, 15963, Note_on_c, 0, 80, 0
2, 15964, Note_on_c, 0, 81, 0
2, 15991, Note_on_c, 0, 74, 90
2, 15992, Note_on_c, 0, 83, 0
2, 16011, Note_on_c, 0, 74, 0
2, 16019, Note_on_c, 0, 76, 90
2, 16023, Note_on_c, 0, 74, 90
2, 16027, Note_on_c, 0, 76, 0
2, 16083, Note_on_c, 0, 73, 90
2, 16085, Note_on_c, 0, 74, 0
2, 16113, Note_on_c, 0, 74, 90
2, 16117, Note_on_c, 0, 73, 0
2, 16141, Note_on_c, 0, 76, 90
2, 16146, Note_on_c, 0, 74, 0
2, 16217, Note_on_c, 0, 74, 90
2, 16221, Note_on_c, 0, 76, 0
2, 16231, Note_on_c, 0, 73, 90
2, 16234, Note_on_c, 0, 74, 0
2, 16261, Note_on_c, 0, 74, 90
2, 16263, Note_on_c, 0, 73, 0
2, 16294, Note_on_c, 0, 69, 90
2, 16295, Note_on_c, 0, 74, 0
2, 16353, Note_on_c, 0, 70, 90
2, 16355, Note_on_c, 0, 69, 0
2, 16382, Note_on_c, 0, 64, 98
2, 16383, Note_on_c, 0, 70, 0
2, 16390, Note_on_c, 0, 65, 85
2, 16390, Note_on_c, 0, 64, 0
2, 16397, Note_on_c, 0, 64, 85
2, 16397, Note_on_c, 0, 65, 0
2, 16502, Note_on_c, 0, 65, 90
2, 16505, Note_on_c, 0, 64, 0
2, 16562, Note_on_c, 0, 67, 90
2, 16564, Note_on_c, 0, 65, 0
2, 16583, Note_on_c, 0, 65, 90
2, 16584, Note_on_c, 0, 67, 0
2, 16600, Note_on_c, 0, 67, 90
2, 16603, Note_on_c, 0, 65, 0
2, 16622, Note_on_c, 0, 76, 90
2, 16624, Note_on_c, 0, 67, 0
2, 16687, Note_on_c, 0, 67, 90
2, 16690, Note_on_c, 0, 76, 0
2, 16738, Note_on_c, 0, 67, 0
2, 16745, Note_on_c, 0, 67, 90
2, 16751, Note_on_c, 0, 69, 90
2, 16762, Note_on_c, 0, 69, 0
2, 16806, Note_on_c, 0, 65, 90
2, 16807, Note_on_c, 0, 67, 0
2, 16872, Note_on_c, 0, 65, 0
2, 16920, Note_on_c, 0, 70, 90
2, 16935, Note_on_c, 0, 69, 90
2, 16941, Note_on_c, 0, 70, 0
2, 16950, Note_on_c, 0, 67, 90
2, 16953, Note_on_c, 0, 69, 0
2, 16965, Note_on_c, 0, 70, 90
2, 16969, Note_on_c, 0, 67, 0
2, 16980, Note_on_c, 0, 69, 90
2, 16985, Note_on_c, 0, 70, 0
2, 16995, Note_on_c, 0, 67, 90
2, 16995, Note_on_c, 0, 69, 0
2, 17010, Note_on_c, 0, 65, 90
2, 17011, Note_on_c, 0, 67, 0
2, 17025, Note_on_c, 0, 69, 90
2, 17029, Note_on_c, 0, 65, 0
2, 17040, Note_on_c, 0, 67, 90
2, 17040, Note_on_c, 0, 69, 0
2, 17070, Note_on_c, 0, 73, 90
2, 17080, Note_on_c, 0, 67, 0
2, 17085, Note_on_c, 0, 76, 90
2, 17085, Note_on_c, 0, 73, 0
2, 17100, Note_on_c, 0, 79, 90
2, 17102, Note_on_c, 0, 76, 0
2, 17295, Note_on_c, 0, 77, 90
2, 17301, Note_on_c, 0, 79, 0
2, 17310, Note_on_c, 0, 76, 90
2, 17312, Note_on_c, 0, 77, 0
2, 17325, Note_on_c, 0, 74, 90
2, 17326, Note_on_c, 0, 76, 0
2, 17340, Note_on_c, 0, 76, 90
2, 17343, Note_on_c, 0, 74, 0
2, 17396, Note_on_c, 0, 76, 0
2, 17400, Note_on_c, 0, 73, 98
2, 17407, Note_on_c, 0, 74, 64
2, 17407, Note_on_c, 0, 73, 0
2, 17414, Note_on_c, 0, 73, 64
2, 17414, Note_on_c, 0, 74, 0
2, 17420, Note_on_c, 0, 71, 72
2, 17420, Note_on_c, 0, 73, 0
2, 17430, Note_on_c, 0, 73, 107
2, 17433, Note_on_c, 0, 71, 0
2, 17454, Note_on_c, 0, 73, 0
2, 17464, Note_on_c, 0, 73, 90
2, 17523, Note_on_c, 0, 74, 90
2, 17527, Note_on_c, 0, 73, 0
2, 17596, Note_on_c, 0, 74, 0
2, 17760, Note_on_c, 0, 74, 90
2, 17835, Note_on_c, 0, 70, 90
2, 17839, Note_on_c, 0, 74, 0
2, 17850, Note_on_c, 0, 72, 90
2, 17853, Note_on_c, 0, 70, 0
2, 17865, Note_on_c, 0, 74, 90
2, 17868, Note_on_c, 0, 72, 0
2, 17880, Note_on_c, 0, 72, 90
2, 17883, Note_on_c, 0, 74, 0
2, 17895, Note_on_c, 0, 69, 90
2, 17896, Note_on_c, 0, 72, 0
2, 17910, Note_on_c, 0, 70, 90
2, 17914, Note_on_c, 0, 69, 0
2, 17925, Note_on_c, 0, 72, 90
2, 17926, Note_on_c, 0, 70, 0
2, 17940, Note_on_c, 0, 70, 90
2, 17944, Note_on_c, 0, 72, 0
2, 17954, Note_on_c, 0, 70, 0
2, 17955, Note_on_c, 0, 67, 90
2, 17970, Note_on_c, 0, 69, 90
2, 17975, Note_on_c, 0, 67, 0
2, 17984, Note_on_c, 0, 69, 0
2, 17985, Note_on_c, 0, 70, 90
2, 18000, Note_on_c, 0, 69, 90
2, 18002, Note_on_c, 0, 70, 0
2, 18060, Note_on_c, 0, 70, 90
2, 18065, Note_on_c, 0, 69, 0
2, 18068, Note_on_c, 0, 70, 0
2, 18070, Note_on_c, 0, 69, 90
2, 18078, Note_on_c, 0, 70, 90
2, 18080, Note_on_c, 0, 69, 0
2, 18113, Note_on_c, 0, 70, 0
2, 18120, Note_on_c, 0, 72, 90
2, 18188, Note_on_c, 0, 72, 0
2, 18195, Note_on_c, 0, 69, 90
2, 18210, Note_on_c, 0, 70, 90
2, 18214, Note_on_c, 0, 69, 0
2, 18225, Note_on_c, 0, 72, 90
2, 18226, Note_on_c, 0, 70, 0
2, 18240, Note_on_c, 0, 70, 90
2, 18244, Note_on_c, 0, 72, 0
2, 18254, Note_on_c, 0, 70, 0
2, 18255, Note_on_c, 0, 67, 90
2, 18270, Note_on_c, 0, 69, 90
2, 18274, Note_on_c, 0, 67, 0
2, 18285, Note_on_c, 0, 70, 90
2, 18288, Note_on_c, 0, 69, 0
2, 18300, Note_on_c, 0, 69, 90
2, 18302, Note_on_c, 0, 70, 0
2, 18315, Note_on_c, 0, 65, 90
2, 18316, Note_on_c, 0, 69, 0
2, 18330, Note_on_c, 0, 67, 90
2, 18331, Note_on_c, 0, 65, 0
2, 18345, Note_on_c, 0, 69, 90
2, 18347, Note_on_c, 0, 67, 0
2, 18360, Note_on_c, 0, 67, 90
2, 18361, Note_on_c, 0, 69, 0
2, 18570, Note_on_c, 0, 65, 90
2, 18575, Note_on_c, 0, 67, 0
2, 18583, Note_on_c, 0, 65, 0
2, 18585, Note_on_c, 0, 67, 90
2, 18600, Note_on_c, 0, 69, 90
2, 18606, Note_on_c, 0, 67, 0
2, 18623, Note_on_c, 0, 69, 0
2, 18630, Note_on_c, 0, 69, 90
2, 18645, Note_on_c, 0, 70, 90
2, 18655, Note_on_c, 0, 69, 0
2, 18660, Note_on_c, 0, 72, 90
2, 18666, Note_on_c, 0, 70, 0
2, 18672, Note_on_c, 0, 72, 0
2, 18690, Note_on_c, 0, 72, 90
2, 18705, Note_on_c, 0, 74, 90
2, 18709, Note_on_c, 0, 72, 0
2, 18720, Note_on_c, 0, 75, 90
2, 18725, Note_on_c, 0, 74, 0
2, 18741, Note_on_c, 0, 75, 0
2, 18750, Note_on_c, 0, 74, 90
2, 18765, Note_on_c, 0, 75, 90
2, 18769, Note_on_c, 0, 74, 0
2, 18780, Note_on_c, 0, 77, 90
2, 18784, Note_on_c, 0, 75, 0
2, 18810, Note_on_c, 0, 74, 90
2, 18812, Note_on_c, 0, 77, 0
2, 18840, Note_on_c, 0, 70, 90
2, 18845, Note_on_c, 0, 74, 0
2, 18870, Note_on_c, 0, 79, 90
2, 18872, Note_on_c, 0, 70, 0
2, 18895, Note_on_c, 0, 79, 0
2, 18902, Note_on_c, 0, 76, 90
2, 18910, Note_on_c, 0, 76, 0
2, 18911, Note_on_c, 0, 74, 90
2, 18919, Note_on_c, 0, 76, 90
2, 18920, Note_on_c, 0, 74, 0
2, 18988, Note_on_c, 0, 76, 0
2, 18990, Note_on_c, 0, 74, 90
2, 19019, Note_on_c, 0, 74, 0
2, 19020, Note_on_c, 0, 72, 90
2, 19080, Note_on_c, 0, 72, 0
2, 19081, Note_on_c, 0, 81, 90
2, 19091, Note_on_c, 0, 79, 90
2, 19092, Note_on_c, 0, 81, 0
2, 19099, Note_on_c, 0, 81, 90
2, 19102, Note_on_c, 0, 79, 0
2, 19203, Note_on_c, 0, 82, 90
2, 19205, Note_on_c, 0, 81, 0
2, 19259, Note_on_c, 0, 76, 90
2, 19262, Note_on_c, 0, 82, 0
2, 19380, Note_on_c, 0, 77, 90
2, 19382, Note_on_c, 0, 76, 0
2, 19439, Note_on_c, 0, 79, 90
2, 19442, Note_on_c, 0, 77, 0
2, 19462, Note_on_c, 0, 77, 90
2, 19465, Note_on_c, 0, 79, 0
2, 19480, Note_on_c, 0, 79, 90
2, 19482, Note_on_c, 0, 77, 0
2, 19501, Note_on_c, 0, 72, 90
2, 19505, Note_on_c, 0, 79, 0
2, 19561, Note_on_c, 0, 76, 90
2, 19565, Note_on_c, 0, 72, 0
2, 19655, Note_on_c, 0, 77, 90
2, 19656, Note_on_c, 0, 76, 0
2, 19666, Note_on_c, 0, 76, 90
2, 19667, Note_on_c, 0, 77, 0
2, 19675, Note_on_c, 0, 77, 90
2, 19678, Note_on_c, 0, 76, 0
2, 19740, Note_on_c, 0, 77, 0
2, 19800, Note_on_c, 0, 68, 90
2, 19814, Note_on_c, 0, 68, 0
2, 19815, Note_on_c, 0, 67, 90
2, 19830, Note_on_c, 0, 68, 90
2, 19832, Note_on_c, 0, 67, 0
2, 19871, Note_on_c, 0, 68, 0
2, 19890, Note_on_c, 0, 74, 90
2, 19905, Note_on_c, 0, 75, 90
2, 19909, Note_on_c, 0, 74, 0
2, 19920, Note_on_c, 0, 77, 90
2, 19924, Note_on_c, 0, 75, 0
2, 19939, Note_on_c, 0, 77, 0
2, 19950, Note_on_c, 0, 68, 90
2, 19978, Note_on_c, 0, 68, 0
2, 19980, Note_on_c, 0, 68, 90
2, 20040, Note_on_c, 0, 67, 90
2, 20044, Note_on_c, 0, 68, 0
2, 20093, Note_on_c, 0, 67, 0
2, 20100, Note_on_c, 0, 74, 90
2, 20203, Note_on_c, 0, 74, 0
2, 20222, Note_on_c, 0, 73, 90
2, 20227, Note_on_c, 0, 73, 0
2, 20228, Note_on_c, 0, 71, 90
2, 20238, Note_on_c, 0, 73, 90
2, 20241, Note_on_c, 0, 71, 0
2, 20400, Note_on_c, 0, 74, 90
2, 20404, Note_on_c, 0, 73, 0
2, 20430, Note_on_c, 0, 75, 90
2, 20436, Note_on_c, 0, 74, 0
2, 20445, Note_on_c, 0, 74, 90
2, 20447, Note_on_c, 0, 75, 0
2, 20460, Note_on_c, 0, 72, 90
2, 20470, Note_on_c, 0, 74, 0
2, 20475, Note_on_c, 0, 70, 90
2, 20482, Note_on_c, 0, 72, 0
2, 20490, Note_on_c, 0, 69, 90
2, 20491, Note_on_c, 0, 70, 0
2, 20505, Note_on_c, 0, 67, 90
2, 20508, Note_on_c, 0, 69, 0
2, 20520, Note_on_c, 0, 69, 90
2, 20522, Note_on_c, 0, 67, 0
2, 20576, Note_on_c, 0, 69, 0
2, 20580, Note_on_c, 0, 62, 90
2, 20637, Note_on_c, 0, 62, 0
2, 20820, Note_on_c, 0, 77, 90
2, 20940, Note_on_c, 0, 76, 90
2, 20945, Note_on_c, 0, 77, 0
2, 21000, Note_on_c, 0, 75, 90
2, 21003, Note_on_c, 0, 76, 0
2, 21084, Note_on_c, 0, 75, 0
2, 21090, Note_on_c, 0, 74, 90
2, 21105, Note_on_c, 0, 72, 90
2, 21105, Note_on_c, 0, 74, 0
2, 21120, Note_on_c, 0, 74, 90
2, 21124, Note_on_c, 0, 72, 0
2, 21149, Note_on_c, 0, 74, 0
2, 21150, Note_on_c, 0, 76, 90
2, 21165, Note_on_c, 0, 77, 90
2, 21165, Note_on_c, 0, 76, 0
2, 21180, Note_on_c, 0, 76, 90
2, 21182, Note_on_c, 0, 77, 0
2, 21210, Note_on_c, 0, 77, 90
2, 21220, Note_on_c, 0, 76, 0
2, 21225, Note_on_c, 0, 79, 90
2, 21225, Note_on_c, 0, 77, 0
2, 21240, Note_on_c, 0, 77, 90
2, 21245, Note_on_c, 0, 79, 0
2, 21480, Note_on_c, 0, 76, 90
2, 21481, Note_on_c, 0, 77, 0
2, 21540, Note_on_c, 0, 75, 90
2, 21544, Note_on_c, 0, 76, 0
2, 21660, Note_on_c, 0, 74, 90
2, 21663, Note_on_c, 0, 75, 0
2, 21720, Note_on_c, 0, 73, 90
2, 21723, Note_on_c, 0, 74, 0
2, 21790, Note_on_c, 0, 73, 0
2, 21810, Note_on_c, 0, 72, 90
2, 21824, Note_on_c, 0, 72, 0
2, 21825, Note_on_c, 0, 70, 90
2, 21840, Note_on_c, 0, 72, 90
2, 21844, Note_on_c, 0, 70, 0
2, 21868, Note_on_c, 0, 72, 0
2, 21870, Note_on_c, 0, 74, 90
2, 21885, Note_on_c, 0, 75, 90
2, 21887, Note_on_c, 0, 74, 0
2, 21900, Note_on_c, 0, 74, 90
2, 21900, Note_on_c, 0, 75, 0
2, 21930, Note_on_c, 0, 75, 90
2, 21936, Note_on_c, 0, 74, 0
2, 21945, Note_on_c, 0, 77, 90
2, 21947, Note_on_c, 0, 75, 0
2, 21960, Note_on_c, 0, 75, 90
2, 21962, Note_on_c, 0, 77, 0
2, 22200, Note_on_c, 0, 74, 90
2, 22204, Note_on_c, 0, 75, 0
2, 22266, Note_on_c, 0, 74, 0
2, 22320, Note_on_c, 0, 67, 90
2, 22350, Note_on_c, 0, 72, 90
2, 22358, Note_on_c, 0, 67, 0
2, 22365, Note_on_c, 0, 74, 90
2, 22368, Note_on_c, 0, 72, 0
2, 22380, Note_on_c, 0, 76, 90
2, 22386, Note_on_c, 0, 74, 0
2, 22399, Note_on_c, 0, 76, 0
2, 22410, Note_on_c, 0, 76, 90
2, 22425, Note_on_c, 0, 77, 90
2, 22429, Note_on_c, 0, 76, 0
2, 22440, Note_on_c, 0, 79, 90
2, 22445, Note_on_c, 0, 77, 0
2, 22462, Note_on_c, 0, 79, 0
2, 22470, Note_on_c, 0, 79, 90
2, 22484, Note_on_c, 0, 79, 0
2, 22485, Note_on_c, 0, 77, 90
2, 22500, Note_on_c, 0, 76, 90
2, 22506, Note_on_c, 0, 77, 0
2, 22521, Note_on_c, 0, 76, 0
2, 22530, Note_on_c, 0, 76, 90
2, 22545, Note_on_c, 0, 77, 90
2, 22546, Note_on_c, 0, 76, 0
2, 22560, Note_on_c, 0, 79, 90
2, 22564, Note_on_c, 0, 77, 0
2, 22581, Note_on_c, 0, 79, 0
2, 22590, Note_on_c, 0, 79, 90
2, 22605, Note_on_c, 0, 81, 90
2, 22608, Note_on_c, 0, 79, 0
2, 22620, Note_on_c, 0, 82, 90
2, 22620, Note_on_c, 0, 81, 0
2, 22643, Note_on_c, 0, 82, 0
2, 22650, Note_on_c, 0, 81, 90
2, 22665, Note_on_c, 0, 79, 90
2, 22668, Note_on_c, 0, 81, 0
2, 22680, Note_on_c, 0, 77, 90
2, 22683, Note_on_c, 0, 79, 0
2, 22950, Note_on_c, 0, 79, 90
2, 22952, Note_on_c, 0, 77, 0
2, 22965, Note_on_c, 0, 77, 90
2, 22970, Note_on_c, 0, 79, 0
2, 22980, Note_on_c, 0, 76, 90
2, 22990, Note_on_c, 0, 77, 0
2, 22995, Note_on_c, 0, 74, 90
2, 22999, Note_on_c, 0, 76, 0
2, 23010, Note_on_c, 0, 72, 90
2, 23011, Note_on_c, 0, 74, 0
2, 23025, Note_on_c, 0, 70, 90
2, 23027, Note_on_c, 0, 72, 0
2, 23040, Note_on_c, 0, 69, 90
2, 23042, Note_on_c, 0, 70, 0
2, 23100, Note_on_c, 0, 77, 90
2, 23102, Note_on_c, 0, 69, 0
2, 23160, Note_on_c, 0, 76, 90
2, 23162, Note_on_c, 0, 77, 0
2, 23213, Note_on_c, 0, 76, 0
2, 23222, Note_on_c, 0, 76, 90
2, 23264, Note_on_c, 0, 77, 90
2, 23264, Note_on_c, 0, 76, 0
2, 23274, Note_on_c, 0, 76, 90
2, 23274, Note_on_c, 0, 77, 0
2, 23283, Note_on_c, 0, 77, 90
2, 23285, Note_on_c, 0, 76, 0
2, 23345, Note_on_c, 0, 77, 0
2, 23400, End_track
3, 0, Start_track
3, 0, MIDI_port, 0
3, 0, Title_t, ""
3, 0, Control_c, 1, 10, 127
3, 360, Note_on_c, 1, 69, 90
3, 481, Note_on_c, 1, 70, 90
3, 484, Note_on_c, 1, 69, 0
3, 540, Note_on_c, 1, 64, 90
3, 544, Note_on_c, 1, 70, 0
3, 657, Note_on_c, 1, 65, 90
3, 661, Note_on_c, 1, 64, 0
3, 716, Note_on_c, 1, 67, 90
3, 720, Note_on_c, 1, 65, 0
3, 741, Note_on_c, 1, 65, 90
3, 744, Note_on_c, 1, 67, 0
3, 759, Note_on_c, 1, 67, 90
3, 764, Note_on_c, 1, 65, 0
3, 783, Note_on_c, 1, 60, 90
3, 787, Note_on_c, 1, 67, 0
3, 846, Note_on_c, 1, 64, 90
3, 848, Note_on_c, 1, 60, 0
3, 946, Note_on_c, 1, 64, 0
3, 947, Note_on_c, 1, 65, 90
3, 955, Note_on_c, 1, 65, 0
3, 957, Note_on_c, 1, 64, 90
3, 964, Note_on_c, 1, 65, 90
3, 966, Note_on_c, 1, 64, 0
3, 1020, Note_on_c, 1, 65, 0
3, 1440, Note_on_c, 1, 70, 90
3, 1500, Note_on_c, 1, 69, 90
3, 1504, Note_on_c, 1, 70, 0
3, 1560, Note_on_c, 1, 68, 90
3, 1565, Note_on_c, 1, 69, 0
3, 1650, Note_on_c, 1, 67, 90
3, 1652, Note_on_c, 1, 68, 0
3, 1664, Note_on_c, 1, 67, 0
3, 1665, Note_on_c, 1, 65, 90
3, 1680, Note_on_c, 1, 67, 90
3, 1684, Note_on_c, 1, 65, 0
3, 1710, Note_on_c, 1, 69, 90
3, 1713, Note_on_c, 1, 67, 0
3, 1725, Note_on_c, 1, 70, 90
3, 1726, Note_on_c, 1, 69, 0
3, 1740, Note_on_c, 1, 69, 90
3, 1742, Note_on_c, 1, 70, 0
3, 1770, Note_on_c, 1, 70, 90
3, 1781, Note_on_c, 1, 69, 0
3, 1785, Note_on_c, 1, 72, 90
3, 1788, Note_on_c, 1, 70, 0
3, 1800, Note_on_c, 1, 70, 90
3, 1803, Note_on_c, 1, 72, 0
3, 2040, Note_on_c, 1, 69, 90
3, 2048, Note_on_c, 1, 70, 0
3, 2111, Note_on_c, 1, 69, 0
3, 2160, Note_on_c, 1, 62, 90
3, 2190, Note_on_c, 1, 67, 90
3, 2199, Note_on_c, 1, 62, 0
3, 2205, Note_on_c, 1, 69, 90
3, 2217, Note_on_c, 1, 67, 0
3, 2220, Note_on_c, 1, 71, 90
3, 2227, Note_on_c, 1, 69, 0
3, 2243, Note_on_c, 1, 71, 0
3, 2250, Note_on_c, 1, 71, 90
3, 2265, Note_on_c, 1, 72, 90
3, 2275, Note_on_c, 1, 71, 0
3, 2280, Note_on_c, 1, 74, 90
3, 2281, Note_on_c, 1, 72, 0
3, 2304, Note_on_c, 1, 74, 0
3, 2310, Note_on_c, 1, 74, 90
3, 2325, Note_on_c, 1, 72, 90
3, 2331, Note_on_c, 1, 74, 0
3, 2340, Note_on_c, 1, 71, 90
3, 2341, Note_on_c, 1, 72, 0
3, 2362, Note_on_c, 1, 71, 0
3, 2370, Note_on_c, 1, 71, 90
3, 2385, Note_on_c, 1, 72, 90
3, 2385, Note_on_c, 1, 71, 0
3, 2400, Note_on_c, 1, 74, 90
3, 2406, Note_on_c, 1, 72, 0
3, 2425, Note_on_c, 1, 74, 0
3, 2430, Note_on_c, 1, 74, 90
3, 2445, Note_on_c, 1, 76, 90
3, 2450, Note_on_c, 1, 74, 0
3, 2460, Note_on_c, 1, 77, 90
3, 2463, Note_on_c, 1, 76, 0
3, 2490, Note_on_c, 1, 76, 90
3, 2496, Note_on_c, 1, 77, 0
3, 2505, Note_on_c, 1, 74, 90
3, 2509, Note_on_c, 1, 76, 0
3, 2520, Note_on_c, 1, 72, 90
3, 2525, Note_on_c, 1, 74, 0
3, 2793, Note_on_c, 1, 74, 90
3, 2801, Note_on_c, 1, 72, 0
3, 2808, Note_on_c, 1, 72, 90
3, 2816, Note_on_c, 1, 74, 0
3, 2822, Note_on_c, 1, 71, 90
3, 2833, Note_on_c, 1, 72, 0
3, 2837, Note_on_c, 1, 69, 90
3, 2841, Note_on_c, 1, 71, 0
3, 2851, Note_on_c, 1, 67, 90
3, 2852, Note_on_c, 1, 69, 0
3, 2864, Note_on_c, 1, 65, 90
3, 2868, Note_on_c, 1, 67, 0
3, 2880, Note_on_c, 1, 64, 90
3, 2882, Note_on_c, 1, 65, 0
3, 2940, Note_on_c, 1, 72, 90
3, 2942, Note_on_c, 1, 64, 0
3, 2997, Note_on_c, 1, 71, 90
3, 3001, Note_on_c, 1, 72, 0
3, 3052, Note_on_c, 1, 71, 0
3, 3055, Note_on_c, 1, 71, 90
3, 3056, Note_on_c, 1, 69, 90
3, 3059, Note_on_c, 1, 69, 0
3, 3123, Note_on_c, 1, 72, 90
3, 3127, Note_on_c, 1, 71, 0
3, 3183, Note_on_c, 1, 72, 0
3, 3240, Note_on_c, 1, 69, 90
3, 3361, Note_on_c, 1, 70, 90
3, 3364, Note_on_c, 1, 69, 0
3, 3420, Note_on_c, 1, 64, 90
3, 3424, Note_on_c, 1, 70, 0
3, 3537, Note_on_c, 1, 65, 90
3, 3541, Note_on_c, 1, 64, 0
3, 3596, Note_on_c, 1, 67, 90
3, 3600, Note_on_c, 1, 65, 0
3, 3621, Note_on_c, 1, 65, 90
3, 3624, Note_on_c, 1, 67, 0
3, 3639, Note_on_c, 1, 67, 90
3, 3644, Note_on_c, 1, 65, 0
3, 3663, Note_on_c, 1, 60, 90
3, 3667, Note_on_c, 1, 67, 0
3, 3726, Note_on_c, 1, 64, 90
3, 3728, Note_on_c, 1, 60, 0
3, 3826, Note_on_c, 1, 64, 0
3, 3827, Note_on_c, 1, 65, 90
3, 3835, Note_on_c, 1, 65, 0
3, 3837, Note_on_c, 1, 64, 90
3, 3844, Note_on_c, 1, 65, 90
3, 3846, Note_on_c, 1, 64, 0
3, 3900, Note_on_c, 1, 65, 0
3, 4320, Note_on_c, 1, 70, 90
3, 4380, Note_on_c, 1, 69, 90
3, 4384, Note_on_c, 1, 70, 0
3, 4440, Note_on_c, 1, 68, 90
3, 4445, Note_on_c, 1, 69, 0
3, 4530, Note_on_c, 1, 67, 90
3, 4532, Note_on_c, 1, 68, 0
3, 4544, Note_on_c, 1, 67, 0
3, 4545, Note_on_c, 1, 65, 90
3, 4560, Note_on_c, 1, 67, 90
3, 4564, Note_on_c, 1, 65, 0
3, 4590, Note_on_c, 1, 69, 90
3, 4593, Note_on_c, 1, 67, 0
3, 4605, Note_on_c, 1, 70, 90
3, 4606, Note_on_c, 1, 69, 0
3, 4620, Note_on_c, 1, 69, 90
3, 4622, Note_on_c, 1, 70, 0
3, 4650, Note_on_c, 1, 70, 90
3, 4661, Note_on_c, 1, 69, 0
3, 4665, Note_on_c, 1, 72, 90
3, 4668, Note_on_c, 1, 70, 0
3, 4680, Note_on_c, 1, 70, 90
3, 4683, Note_on_c, 1, 72, 0
3, 4920, Note_on_c, 1, 69, 90
3, 4928, Note_on_c, 1, 70, 0
3, 4991, Note_on_c, 1, 69, 0
3, 5040, Note_on_c, 1, 62, 90
3, 5070, Note_on_c, 1, 67, 90
3, 5079, Note_on_c, 1, 62, 0
3, 5085, Note_on_c, 1, 69, 90
3, 5097, Note_on_c, 1, 67, 0
3, 5100, Note_on_c, 1, 71, 90
3, 5107, Note_on_c, 1, 69, 0
3, 5123, Note_on_c, 1, 71, 0
3, 5130, Note_on_c, 1, 71, 90
3, 5145, Note_on_c, 1, 72, 90
3, 5155, Note_on_c, 1, 71, 0
3, 5160, Note_on_c, 1, 74, 90
3, 5161, Note_on_c, 1, 72, 0
3, 5184, Note_on_c, 1, 74, 0
3, 5190, Note_on_c, 1, 74, 90
3, 5205, Note_on_c, 1, 72, 90
3, 5211, Note_on_c, 1, 74, 0
3, 5220, Note_on_c, 1, 71, 90
3, 5221, Note_on_c, 1, 72, 0
3, 5242, Note_on_c, 1, 71, 0
3, 5250, Note_on_c, 1, 71, 90
3, 5265, Note_on_c, 1, 72, 90
3, 5265, Note_on_c, 1, 71, 0
3, 5280, Note_on_c, 1, 74, 90
3, 5286, Note_on_c, 1, 72, 0
3, 5305, Note_on_c, 1, 74, 0
3, 5310, Note_on_c, 1, 74, 90
3, 5325, Note_on_c, 1, 76, 90
3, 5330, Note_on_c, 1, 74, 0
3, 5340, Note_on_c, 1, 77, 90
3, 5343, Note_on_c, 1, 76, 0
3, 5370, Note_on_c, 1, 76, 90
3, 5376, Note_on_c, 1, 77, 0
3, 5385, Note_on_c, 1, 74, 90
3, 5389, Note_on_c, 1, 76, 0
3, 5400, Note_on_c, 1, 72, 90
3, 5405, Note_on_c, 1, 74, 0
3, 5673, Note_on_c, 1, 74, 90
3, 5681, Note_on_c, 1, 72, 0
3, 5688, Note_on_c, 1, 72, 90
3, 5696, Note_on_c, 1, 74, 0
3, 5702, Note_on_c, 1, 71, 90
3, 5713, Note_on_c, 1, 72, 0
3, 5717, Note_on_c, 1, 69, 90
3, 5721, Note_on_c, 1, 71, 0
3, 5731, Note_on_c, 1, 67, 90
3, 5732, Note_on_c, 1, 69, 0
3, 5744, Note_on_c, 1, 65, 90
3, 5748, Note_on_c, 1, 67, 0
3, 5760, Note_on_c, 1, 64, 90
3, 5762, Note_on_c, 1, 65, 0
3, 5820, Note_on_c, 1, 72, 90
3, 5822, Note_on_c, 1, 64, 0
3, 5877, Note_on_c, 1, 71, 90
3, 5881, Note_on_c, 1, 72, 0
3, 5932, Note_on_c, 1, 71, 0
3, 5935, Note_on_c, 1, 71, 90
3, 5936, Note_on_c, 1, 69, 90
3, 5939, Note_on_c, 1, 69, 0
3, 6003, Note_on_c, 1, 72, 90
3, 6007, Note_on_c, 1, 71, 0
3, 6063, Note_on_c, 1, 72, 0
3, 6120, Note_on_c, 1, 67, 90
3, 6240, Note_on_c, 1, 69, 90
3, 6245, Note_on_c, 1, 67, 0
3, 6300, Note_on_c, 1, 62, 90
3, 6300, Note_on_c, 1, 69, 0
3, 6420, Note_on_c, 1, 64, 90
3, 6425, Note_on_c, 1, 62, 0
3, 6480, Note_on_c, 1, 65, 90
3, 6483, Note_on_c, 1, 64, 0
3, 6500, Note_on_c, 1, 64, 90
3, 6503, Note_on_c, 1, 65, 0
3, 6520, Note_on_c, 1, 65, 90
3, 6523, Note_on_c, 1, 64, 0
3, 6540, Note_on_c, 1, 74, 90
3, 6545, Note_on_c, 1, 65, 0
3, 6600, Note_on_c, 1, 65, 90
3, 6600, Note_on_c, 1, 74, 0
3, 6646, Note_on_c, 1, 65, 0
3, 6652, Note_on_c, 1, 65, 90
3, 6659, Note_on_c, 1, 67, 90
3, 6661, Note_on_c, 1, 65, 0
3, 6666, Note_on_c, 1, 65, 90
3, 6669, Note_on_c, 1, 67, 0
3, 6718, Note_on_c, 1, 64, 90
3, 6719, Note_on_c, 1, 65, 0
3, 6774, Note_on_c, 1, 64, 0
3, 6840, Note_on_c, 1, 63, 90
3, 6854, Note_on_c, 1, 63, 0
3, 6855, Note_on_c, 1, 62, 90
3, 6870, Note_on_c, 1, 63, 90
3, 6870, Note_on_c, 1, 62, 0
3, 6916, Note_on_c, 1, 63, 0
3, 6930, Note_on_c, 1, 69, 90
3, 6945, Note_on_c, 1, 70, 90
3, 6948, Note_on_c, 1, 69, 0
3, 6960, Note_on_c, 1, 72, 90
3, 6963, Note_on_c, 1, 70, 0
3, 6993, Note_on_c, 1, 72, 0
3, 6994, Note_on_c, 1, 63, 90
3, 7010, Note_on_c, 1, 63, 0
3, 7022, Note_on_c, 1, 63, 90
3, 7027, Note_on_c, 1, 65, 90
3, 7032, Note_on_c, 1, 63, 0
3, 7034, Note_on_c, 1, 63, 90
3, 7037, Note_on_c, 1, 65, 0
3, 7082, Note_on_c, 1, 62, 90
3, 7084, Note_on_c, 1, 63, 0
3, 7143, Note_on_c, 1, 62, 0
3, 7194, Note_on_c, 1, 69, 90
3, 7202, Note_on_c, 1, 68, 90
3, 7204, Note_on_c, 1, 69, 0
3, 7210, Note_on_c, 1, 69, 90
3, 7210, Note_on_c, 1, 68, 0
3, 7217, Note_on_c, 1, 68, 90
3, 7219, Note_on_c, 1, 69, 0
3, 7440, Note_on_c, 1, 69, 90
3, 7443, Note_on_c, 1, 68, 0
3, 7470, Note_on_c, 1, 70, 90
3, 7475, Note_on_c, 1, 69, 0
3, 7485, Note_on_c, 1, 69, 90
3, 7491, Note_on_c, 1, 70, 0
3, 7500, Note_on_c, 1, 67, 90
3, 7502, Note_on_c, 1, 69, 0
3, 7514, Note_on_c, 1, 67, 0
3, 7515, Note_on_c, 1, 65, 90
3, 7530, Note_on_c, 1, 64, 90
3, 7537, Note_on_c, 1, 65, 0
3, 7560, Note_on_c, 1, 65, 90
3, 7565, Note_on_c, 1, 64, 0
3, 7679, Note_on_c, 1, 65, 0
3, 7681, Note_on_c, 1, 67, 90
3, 7745, Note_on_c, 1, 61, 90
3, 7748, Note_on_c, 1, 67, 0
3, 7753, Note_on_c, 1, 62, 90
3, 7754, Note_on_c, 1, 61, 0
3, 7762, Note_on_c, 1, 61, 90
3, 7764, Note_on_c, 1, 62, 0
3, 7858, Note_on_c, 1, 62, 90
3, 7863, Note_on_c, 1, 61, 0
3, 7917, Note_on_c, 1, 64, 90
3, 7921, Note_on_c, 1, 62, 0
3, 7940, Note_on_c, 1, 62, 90
3, 7945, Note_on_c, 1, 64, 0
3, 7960, Note_on_c, 1, 64, 90
3, 7965, Note_on_c, 1, 62, 0
3, 7980, Note_on_c, 1, 57, 90
3, 7984, Note_on_c, 1, 64, 0
3, 8046, Note_on_c, 1, 61, 90
3, 8048, Note_on_c, 1, 57, 0
3, 8149, Note_on_c, 1, 62, 90
3, 8151, Note_on_c, 1, 61, 0
3, 8159, Note_on_c, 1, 61, 90
3, 8161, Note_on_c, 1, 62, 0
3, 8167, Note_on_c, 1, 62, 90
3, 8170, Note_on_c, 1, 61, 0
3, 8231, Note_on_c, 1, 62, 0
3, 8460, Note_on_c, 1, 64, 90
3, 8475, Note_on_c, 1, 62, 90
3, 8478, Note_on_c, 1, 64, 0
3, 8490, Note_on_c, 1, 61, 90
3, 8491, Note_on_c, 1, 62, 0
3, 8505, Note_on_c, 1, 64, 90
3, 8511, Note_on_c, 1, 61, 0
3, 8520, Note_on_c, 1, 62, 90
3, 8525, Note_on_c, 1, 64, 0
3, 8535, Note_on_c, 1, 61, 90
3, 8538, Note_on_c, 1, 62, 0
3, 8548, Note_on_c, 1, 61, 0
3, 8550, Note_on_c, 1, 59, 90
3, 8565, Note_on_c, 1, 62, 90
3, 8570, Note_on_c, 1, 59, 0
3, 8580, Note_on_c, 1, 61, 90
3, 8582, Note_on_c, 1, 62, 0
3, 8606, Note_on_c, 1, 61, 0
3, 8610, Note_on_c, 1, 64, 90
3, 8625, Note_on_c, 1, 69, 90
3, 8627, Note_on_c, 1, 64, 0
3, 8636, Note_on_c, 1, 69, 0
3, 8640, Note_on_c, 1, 74, 90
3, 8715, Note_on_c, 1, 73, 90
3, 8719, Note_on_c, 1, 74, 0
3, 8730, Note_on_c, 1, 71, 90
3, 8730, Note_on_c, 1, 73, 0
3, 8744, Note_on_c, 1, 71, 0
3, 8745, Note_on_c, 1, 69, 90
3, 8760, Note_on_c, 1, 76, 90
3, 8761, Note_on_c, 1, 69, 0
3, 8789, Note_on_c, 1, 76, 0
3, 8790, Note_on_c, 1, 67, 90
3, 8805, Note_on_c, 1, 67, 0
3, 8813, Note_on_c, 1, 67, 90
3, 8819, Note_on_c, 1, 69, 90
3, 8819, Note_on_c, 1, 67, 0
3, 8826, Note_on_c, 1, 67, 90
3, 8830, Note_on_c, 1, 69, 0
3, 8875, Note_on_c, 1, 65, 90
3, 8875, Note_on_c, 1, 67, 0
3, 8909, Note_on_c, 1, 65, 0
3, 8921, Note_on_c, 1, 65, 90
3, 8930, Note_on_c, 1, 67, 90
3, 8933, Note_on_c, 1, 65, 0
3, 8941, Note_on_c, 1, 68, 90
3, 8945, Note_on_c, 1, 67, 0
3, 9003, Note_on_c, 1, 68, 0
3, 9015, Note_on_c, 1, 65, 90
3, 9030, Note_on_c, 1, 67, 90
3, 9032, Note_on_c, 1, 65, 0
3, 9045, Note_on_c, 1, 68, 90
3, 9047, Note_on_c, 1, 67, 0
3, 9060, Note_on_c, 1, 67, 90
3, 9062, Note_on_c, 1, 68, 0
3, 9075, Note_on_c, 1, 63, 90
3, 9076, Note_on_c, 1, 67, 0
3, 9090, Note_on_c, 1, 65, 90
3, 9092, Note_on_c, 1, 63, 0
3, 9105, Note_on_c, 1, 67, 90
3, 9107, Note_on_c, 1, 65, 0
3, 9120, Note_on_c, 1, 65, 90
3, 9124, Note_on_c, 1, 67, 0
3, 9133, Note_on_c, 1, 65, 0
3, 9135, Note_on_c, 1, 62, 90
3, 9150, Note_on_c, 1, 63, 90
3, 9154, Note_on_c, 1, 62, 0
3, 9165, Note_on_c, 1, 65, 90
3, 9166, Note_on_c, 1, 63, 0
3, 9180, Note_on_c, 1, 63, 90
3, 9183, Note_on_c, 1, 65, 0
3, 9227, Note_on_c, 1, 63, 0
3, 9228, Note_on_c, 1, 65, 90
3, 9236, Note_on_c, 1, 63, 90
3, 9237, Note_on_c, 1, 65, 0
3, 9245, Note_on_c, 1, 65, 90
3, 9249, Note_on_c, 1, 63, 0
3, 9296, Note_on_c, 1, 67, 90
3, 9301, Note_on_c, 1, 65, 0
3, 9364, Note_on_c, 1, 67, 0
3, 9375, Note_on_c, 1, 63, 90
3, 9390, Note_on_c, 1, 65, 90
3, 9392, Note_on_c, 1, 63, 0
3, 9405, Note_on_c, 1, 67, 90
3, 9406, Note_on_c, 1, 65, 0
3, 9420, Note_on_c, 1, 65, 90
3, 9424, Note_on_c, 1, 67, 0
3, 9435, Note_on_c, 1, 62, 90
3, 9439, Note_on_c, 1, 65, 0
3, 9450, Note_on_c, 1, 63, 90
3, 9454, Note_on_c, 1, 62, 0
3, 9465, Note_on_c, 1, 65, 90
3, 9469, Note_on_c, 1, 63, 0
3, 9480, Note_on_c, 1, 63, 90
3, 9485, Note_on_c, 1, 65, 0
3, 9494, Note_on_c, 1, 63, 0
3, 9495, Note_on_c, 1, 60, 90
3, 9510, Note_on_c, 1, 62, 90
3, 9516, Note_on_c, 1, 60, 0
3, 9525, Note_on_c, 1, 63, 90
3, 9527, Note_on_c, 1, 62, 0
3, 9540, Note_on_c, 1, 62, 90
3, 9543, Note_on_c, 1, 63, 0
3, 9738, Note_on_c, 1, 62, 0
3, 9750, Note_on_c, 1, 60, 90
3, 9765, Note_on_c, 1, 62, 90
3, 9768, Note_on_c, 1, 60, 0
3, 9780, Note_on_c, 1, 64, 90
3, 9784, Note_on_c, 1, 62, 0
3, 9799, Note_on_c, 1, 64, 0
3, 9810, Note_on_c, 1, 64, 90
3, 9825, Note_on_c, 1, 65, 90
3, 9826, Note_on_c, 1, 64, 0
3, 9840, Note_on_c, 1, 67, 90
3, 9846, Note_on_c, 1, 65, 0
3, 9861, Note_on_c, 1, 67, 0
3, 9870, Note_on_c, 1, 67, 90
3, 9885, Note_on_c, 1, 69, 90
3, 9887, Note_on_c, 1, 67, 0
3, 9900, Note_on_c, 1, 70, 90
3, 9903, Note_on_c, 1, 69, 0
3, 9920, Note_on_c, 1, 70, 0
3, 9930, Note_on_c, 1, 69, 90
3, 9945, Note_on_c, 1, 70, 90
3, 9947, Note_on_c, 1, 69, 0
3, 9960, Note_on_c, 1, 72, 90
3, 9964, Note_on_c, 1, 70, 0
3, 9990, Note_on_c, 1, 69, 90
3, 9998, Note_on_c, 1, 72, 0
3, 10020, Note_on_c, 1, 65, 90
3, 10025, Note_on_c, 1, 69, 0
3, 10140, Note_on_c, 1, 70, 90
3, 10149, Note_on_c, 1, 65, 0
3, 10199, Note_on_c, 1, 70, 0
3, 10200, Note_on_c, 1, 74, 90
3, 10275, Note_on_c, 1, 72, 90
3, 10278, Note_on_c, 1, 74, 0
3, 10288, Note_on_c, 1, 72, 0
3, 10290, Note_on_c, 1, 71, 90
3, 10305, Note_on_c, 1, 72, 90
3, 10305, Note_on_c, 1, 71, 0
3, 10317, Note_on_c, 1, 72, 0
3, 10320, Note_on_c, 1, 79, 90
3, 10452, Note_on_c, 1, 79, 0
3, 10470, Note_on_c, 1, 77, 90
3, 10485, Note_on_c, 1, 76, 90
3, 10487, Note_on_c, 1, 77, 0
3, 10500, Note_on_c, 1, 77, 90
3, 10503, Note_on_c, 1, 76, 0
3, 10530, Note_on_c, 1, 72, 90
3, 10536, Note_on_c, 1, 77, 0
3, 10590, Note_on_c, 1, 74, 90
3, 10597, Note_on_c, 1, 72, 0
3, 10620, Note_on_c, 1, 67, 90
3, 10622, Note_on_c, 1, 74, 0
3, 10735, Note_on_c, 1, 67, 0
3, 10740, Note_on_c, 1, 69, 90
3, 10800, Note_on_c, 1, 70, 90
3, 10805, Note_on_c, 1, 69, 0
3, 10820, Note_on_c, 1, 69, 90
3, 10824, Note_on_c, 1, 70, 0
3, 10840, Note_on_c, 1, 70, 90
3, 10844, Note_on_c, 1, 69, 0
3, 10860, Note_on_c, 1, 79, 90
3, 10862, Note_on_c, 1, 70, 0
3, 10920, Note_on_c, 1, 70, 90
3, 10921, Note_on_c, 1, 79, 0
3, 10959, Note_on_c, 1, 70, 0
3, 10970, Note_on_c, 1, 70, 90
3, 10977, Note_on_c, 1, 72, 90
3, 10978, Note_on_c, 1, 70, 0
3, 10985, Note_on_c, 1, 70, 90
3, 10987, Note_on_c, 1, 72, 0
3, 11039, Note_on_c, 1, 69, 90
3, 11041, Note_on_c, 1, 70, 0
3, 11096, Note_on_c, 1, 72, 90
3, 11099, Note_on_c, 1, 69, 0
3, 11214, Note_on_c, 1, 72, 0
3, 11215, Note_on_c, 1, 71, 90
3, 11222, Note_on_c, 1, 72, 90
3, 11222, Note_on_c, 1, 71, 0
3, 11228, Note_on_c, 1, 71, 90
3, 11230, Note_on_c, 1, 72, 0
3, 11400, Note_on_c, 1, 72, 90
3, 11405, Note_on_c, 1, 71, 0
3, 11430, Note_on_c, 1, 74, 90
3, 11434, Note_on_c, 1, 72, 0
3, 11445, Note_on_c, 1, 75, 90
3, 11447, Note_on_c, 1, 74, 0
3, 11460, Note_on_c, 1, 74, 90
3, 11462, Note_on_c, 1, 75, 0
3, 11475, Note_on_c, 1, 72, 90
3, 11480, Note_on_c, 1, 74, 0
3, 11490, Note_on_c, 1, 70, 90
3, 11492, Note_on_c, 1, 72, 0
3, 11504, Note_on_c, 1, 70, 0
3, 11505, Note_on_c, 1, 69, 90
3, 11516, Note_on_c, 1, 69, 0
3, 11520, Note_on_c, 1, 67, 90
3, 11535, Note_on_c, 1, 66, 90
3, 11543, Note_on_c, 1, 67, 0
3, 11544, Note_on_c, 1, 66, 0
3, 11550, Note_on_c, 1, 67, 90
3, 11610, Note_on_c, 1, 73, 90
3, 11617, Note_on_c, 1, 67, 0
3, 11625, Note_on_c, 1, 74, 90
3, 11636, Note_on_c, 1, 73, 0
3, 11640, Note_on_c, 1, 76, 90
3, 11641, Note_on_c, 1, 74, 0
3, 11670, Note_on_c, 1, 67, 90
3, 11674, Note_on_c, 1, 76, 0
3, 11681, Note_on_c, 1, 67, 0
3, 11691, Note_on_c, 1, 69, 90
3, 11697, Note_on_c, 1, 67, 90
3, 11699, Note_on_c, 1, 69, 0
3, 11755, Note_on_c, 1, 67, 0
3, 11760, Note_on_c, 1, 66, 90
3, 11790, Note_on_c, 1, 69, 90
3, 11796, Note_on_c, 1, 66, 0
3, 11820, Note_on_c, 1, 72, 90
3, 11824, Note_on_c, 1, 69, 0
3, 11940, Note_on_c, 1, 71, 90
3, 11947, Note_on_c, 1, 72, 0
3, 12000, Note_on_c, 1, 70, 90
3, 12004, Note_on_c, 1, 71, 0
3, 12077, Note_on_c, 1, 70, 0
3, 12090, Note_on_c, 1, 69, 90
3, 12105, Note_on_c, 1, 67, 90
3, 12105, Note_on_c, 1, 69, 0
3, 12120, Note_on_c, 1, 69, 90
3, 12125, Note_on_c, 1, 67, 0
3, 12150, Note_on_c, 1, 71, 90
3, 12156, Note_on_c, 1, 69, 0
3, 12165, Note_on_c, 1, 72, 90
3, 12165, Note_on_c, 1, 71, 0
3, 12180, Note_on_c, 1, 71, 90
3, 12184, Note_on_c, 1, 72, 0
3, 12210, Note_on_c, 1, 72, 90
3, 12219, Note_on_c, 1, 71, 0
3, 12224, Note_on_c, 1, 72, 0
3, 12225, Note_on_c, 1, 74, 90
3, 12240, Note_on_c, 1, 72, 90
3, 12246, Note_on_c, 1, 74, 0
3, 12480, Note_on_c, 1, 71, 90
3, 12485, Note_on_c, 1, 72, 0
3, 12540, Note_on_c, 1, 70, 90
3, 12547, Note_on_c, 1, 71, 0
3, 12660, Note_on_c, 1, 69, 90
3, 12666, Note_on_c, 1, 70, 0
3, 12720, Note_on_c, 1, 68, 90
3, 12723, Note_on_c, 1, 69, 0
3, 12810, Note_on_c, 1, 67, 90
3, 12810, Note_on_c, 1, 68, 0
3, 12823, Note_on_c, 1, 67, 0
3, 12825, Note_on_c, 1, 65, 90
3, 12840, Note_on_c, 1, 67, 90
3, 12851, Note_on_c, 1, 65, 0
3, 12870, Note_on_c, 1, 69, 90
3, 12877, Note_on_c, 1, 67, 0
3, 12885, Note_on_c, 1, 70, 90
3, 12886, Note_on_c, 1, 69, 0
3, 12900, Note_on_c, 1, 69, 90
3, 12900, Note_on_c, 1, 70, 0
3, 12930, Note_on_c, 1, 70, 90
3, 12936, Note_on_c, 1, 69, 0
3, 12945, Note_on_c, 1, 72, 90
3, 12948, Note_on_c, 1, 70, 0
3, 12960, Note_on_c, 1, 70, 90
3, 12963, Note_on_c, 1, 72, 0
3, 13200, Note_on_c, 1, 69, 90
3, 13203, Note_on_c, 1, 70, 0
3, 13265, Note_on_c, 1, 69, 0
3, 13320, Note_on_c, 1, 60, 90
3, 13350, Note_on_c, 1, 65, 90
3, 13357, Note_on_c, 1, 60, 0
3, 13365, Note_on_c, 1, 67, 90
3, 13368, Note_on_c, 1, 65, 0
3, 13380, Note_on_c, 1, 69, 90
3, 13386, Note_on_c, 1, 67, 0
3, 13402, Note_on_c, 1, 69, 0
3, 13410, Note_on_c, 1, 69, 90
3, 13425, Note_on_c, 1, 70, 90
3, 13433, Note_on_c, 1, 69, 0
3, 13440, Note_on_c, 1, 72, 90
3, 13442, Note_on_c, 1, 70, 0
3, 13462, Note_on_c, 1, 72, 0
3, 13470, Note_on_c, 1, 72, 90
3, 13485, Note_on_c, 1, 70, 90
3, 13487, Note_on_c, 1, 72, 0
3, 13500, Note_on_c, 1, 69, 90
3, 13500, Note_on_c, 1, 70, 0
3, 13523, Note_on_c, 1, 69, 0
3, 13530, Note_on_c, 1, 69, 90
3, 13545, Note_on_c, 1, 70, 90
3, 13546, Note_on_c, 1, 69, 0
3, 13560, Note_on_c, 1, 72, 90
3, 13563, Note_on_c, 1, 70, 0
3, 13582, Note_on_c, 1, 72, 0
3, 13590, Note_on_c, 1, 72, 90
3, 13605, Note_on_c, 1, 74, 90
3, 13605, Note_on_c, 1, 72, 0
3, 13620, Note_on_c, 1, 75, 90
3, 13621, Note_on_c, 1, 74, 0
3, 13650, Note_on_c, 1, 74, 90
3, 13650, Note_on_c, 1, 75, 0
3, 13665, Note_on_c, 1, 72, 90
3, 13667, Note_on_c, 1, 74, 0
3, 13680, Note_on_c, 1, 70, 90
3, 13683, Note_on_c, 1, 72, 0
3, 13920, Note_on_c, 1, 69, 90
3, 13927, Note_on_c, 1, 70, 0
3, 13986, Note_on_c, 1, 69, 0
3, 14040, Note_on_c, 1, 69, 90
3, 14128, Note_on_c, 1, 69, 0
3, 14130, Note_on_c, 1, 70, 90
3, 14145, Note_on_c, 1, 69, 90
3, 14148, Note_on_c, 1, 70, 0
3, 14160, Note_on_c, 1, 67, 90
3, 14169, Note_on_c, 1, 69, 0
3, 14175, Note_on_c, 1, 65, 90
3, 14176, Note_on_c, 1, 67, 0
3, 14190, Note_on_c, 1, 64, 90
3, 14191, Note_on_c, 1, 65, 0
3, 14205, Note_on_c, 1, 62, 90
3, 14209, Note_on_c, 1, 64, 0
3, 14220, Note_on_c, 1, 60, 90
3, 14221, Note_on_c, 1, 62, 0
3, 14280, Note_on_c, 1, 62, 90
3, 14289, Note_on_c, 1, 60, 0
3, 14340, Note_on_c, 1, 64, 90
3, 14340, Note_on_c, 1, 62, 0
3, 14398, Note_on_c, 1, 64, 0
3, 14400, Note_on_c, 1, 65, 90
3, 14415, Note_on_c, 1, 64, 90
3, 14420, Note_on_c, 1, 65, 0
3, 14430, Note_on_c, 1, 62, 90
3, 14434, Note_on_c, 1, 64, 0
3, 14490, Note_on_c, 1, 67, 90
3, 14492, Note_on_c, 1, 62, 0
3, 14550, Note_on_c, 1, 58, 90
3, 14553, Note_on_c, 1, 67, 0
3, 14567, Note_on_c, 1, 58, 0
3, 14575, Note_on_c, 1, 58, 90
3, 14583, Note_on_c, 1, 60, 90
3, 14585, Note_on_c, 1, 58, 0
3, 14589, Note_on_c, 1, 58, 90
3, 14593, Note_on_c, 1, 60, 0
3, 14642, Note_on_c, 1, 57, 90
3, 14643, Note_on_c, 1, 58, 0
3, 14706, Note_on_c, 1, 57, 0
3, 14760, Note_on_c, 1, 67, 90
3, 14880, Note_on_c, 1, 69, 90
3, 14885, Note_on_c, 1, 67, 0
3, 14940, Note_on_c, 1, 62, 90
3, 14940, Note_on_c, 1, 69, 0
3, 15060, Note_on_c, 1, 64, 90
3, 15065, Note_on_c, 1, 62, 0
3, 15120, Note_on_c, 1, 65, 90
3, 15123, Note_on_c, 1, 64, 0
3, 15140, Note_on_c, 1, 64, 90
3, 15143, Note_on_c, 1, 65, 0
3, 15160, Note_on_c, 1, 65, 90
3, 15163, Note_on_c, 1, 64, 0
3, 15180, Note_on_c, 1, 74, 90
3, 15185, Note_on_c, 1, 65, 0
3, 15240, Note_on_c, 1, 65, 90
3, 15240, Note_on_c, 1, 74, 0
3, 15286, Note_on_c, 1, 65, 0
3, 15292, Note_on_c, 1, 65, 90
3, 15299, Note_on_c, 1, 67, 90
3, 15301, Note_on_c, 1, 65, 0
3, 15306, Note_on_c, 1, 65, 90
3, 15309, Note_on_c, 1, 67, 0
3, 15358, Note_on_c, 1, 64, 90
3, 15359, Note_on_c, 1, 65, 0
3, 15414, Note_on_c, 1, 64, 0
3, 15480, Note_on_c, 1, 63, 90
3, 15494, Note_on_c, 1, 63, 0
3, 15495, Note_on_c, 1, 62, 90
3, 15510, Note_on_c, 1, 63, 90
3, 15510, Note_on_c, 1, 62, 0
3, 15556, Note_on_c, 1, 63, 0
3, 15570, Note_on_c, 1, 69, 90
3, 15585, Note_on_c, 1, 70, 90
3, 15588, Note_on_c, 1, 69, 0
3, 15600, Note_on_c, 1, 72, 90
3, 15603, Note_on_c, 1, 70, 0
3, 15633, Note_on_c, 1, 72, 0
3, 15634, Note_on_c, 1, 63, 90
3, 15650, Note_on_c, 1, 63, 0
3, 15662, Note_on_c, 1, 63, 90
3, 15667, Note_on_c, 1, 65, 90
3, 15672, Note_on_c, 1, 63, 0
3, 15674, Note_on_c, 1, 63, 90
3, 15677, Note_on_c, 1, 65, 0
3, 15722, Note_on_c, 1, 62, 90
3, 15724, Note_on_c, 1, 63, 0
3, 15783, Note_on_c, 1, 62, 0
3, 15834, Note_on_c, 1, 69, 90
3, 15842, Note_on_c, 1, 68, 90
3, 15844, Note_on_c, 1, 69, 0
3, 15850, Note_on_c, 1, 69, 90
3, 15850, Note_on_c, 1, 68, 0
3, 15857, Note_on_c, 1, 68, 90
3, 15859, Note_on_c, 1, 69, 0
3, 16080, Note_on_c, 1, 69, 90
3, 16083, Note_on_c, 1, 68, 0
3, 16110, Note_on_c, 1, 70, 90
3, 16115, Note_on_c, 1, 69, 0
3, 16125, Note_on_c, 1, 69, 90
3, 16131, Note_on_c, 1, 70, 0
3, 16140, Note_on_c, 1, 67, 90
3, 16142, Note_on_c, 1, 69, 0
3, 16154, Note_on_c, 1, 67, 0
3, 16155, Note_on_c, 1, 65, 90
3, 16170, Note_on_c, 1, 64, 90
3, 16177, Note_on_c, 1, 65, 0
3, 16200, Note_on_c, 1, 65, 90
3, 16205, Note_on_c, 1, 64, 0
3, 16319, Note_on_c, 1, 65, 0
3, 16321, Note_on_c, 1, 67, 90
3, 16385, Note_on_c, 1, 61, 90
3, 16388, Note_on_c, 1, 67, 0
3, 16393, Note_on_c, 1, 62, 90
3, 16394, Note_on_c, 1, 61, 0
3, 16402, Note_on_c, 1, 61, 90
3, 16404, Note_on_c, 1, 62, 0
3, 16498, Note_on_c, 1, 62, 90
3, 16503, Note_on_c, 1, 61, 0
3, 16557, Note_on_c, 1, 64, 90
3, 16561, Note_on_c, 1, 62, 0
3, 16580, Note_on_c, 1, 62, 90
3, 16585, Note_on_c, 1, 64, 0
3, 16600, Note_on_c, 1, 64, 90
3, 16605, Note_on_c, 1, 62, 0
3, 16620, Note_on_c, 1, 57, 90
3, 16624, Note_on_c, 1, 64, 0
3, 16686, Note_on_c, 1, 61, 90
3, 16688, Note_on_c, 1, 57, 0
3, 16789, Note_on_c, 1, 62, 90
3, 16791, Note_on_c, 1, 61, 0
3, 16799, Note_on_c, 1, 61, 90
3, 16801, Note_on_c, 1, 62, 0
3, 16807, Note_on_c, 1, 62, 90
3, 16810, Note_on_c, 1, 61, 0
3, 16871, Note_on_c, 1, 62, 0
3, 17100, Note_on_c, 1, 64, 90
3, 17115, Note_on_c, 1, 62, 90
3, 17118, Note_on_c, 1, 64, 0
3, 17130, Note_on_c, 1, 61, 90
3, 17131, Note_on_c, 1, 62, 0
3, 17145, Note_on_c, 1, 64, 90
3, 17151, Note_on_c, 1, 61, 0
3, 17160, Note_on_c, 1, 62, 90
3, 17165, Note_on_c, 1, 64, 0
3, 17175, Note_on_c, 1, 61, 90
3, 17178, Note_on_c, 1, 62, 0
3, 17188, Note_on_c, 1, 61, 0
3, 17190, Note_on_c, 1, 59, 90
3, 17205, Note_on_c, 1, 62, 90
3, 17210, Note_on_c, 1, 59, 0
3, 17220, Note_on_c, 1, 61, 90
3, 17222, Note_on_c, 1, 62, 0
3, 17246, Note_on_c, 1, 61, 0
3, 17250, Note_on_c, 1, 64, 90
3, 17265, Note_on_c, 1, 69, 90
3, 17267, Note_on_c, 1, 64, 0
3, 17276, Note_on_c, 1, 69, 0
3, 17280, Note_on_c, 1, 74, 90
3, 17355, Note_on_c, 1, 73, 90
3, 17359, Note_on_c, 1, 74, 0
3, 17370, Note_on_c, 1, 71, 90
3, 17370, Note_on_c, 1, 73, 0
3, 17384, Note_on_c, 1, 71, 0
3, 17385, Note_on_c, 1, 69, 90
3, 17400, Note_on_c, 1, 76, 90
3, 17401, Note_on_c, 1, 69, 0
3, 17429, Note_on_c, 1, 76, 0
3, 17430, Note_on_c, 1, 67, 90
3, 17445, Note_on_c, 1, 67, 0
3, 17453, Note_on_c, 1, 67, 90
3, 17459, Note_on_c, 1, 69, 90
3, 17459, Note_on_c, 1, 67, 0
3, 17466, Note_on_c, 1, 67, 90
3, 17470, Note_on_c, 1, 69, 0
3, 17515, Note_on_c, 1, 65, 90
3, 17515, Note_on_c, 1, 67, 0
3, 17549, Note_on_c, 1, 65, 0
3, 17561, Note_on_c, 1, 65, 90
3, 17570, Note_on_c, 1, 67, 90
3, 17573, Note_on_c, 1, 65, 0
3, 17581, Note_on_c, 1, 68, 90
3, 17585, Note_on_c, 1, 67, 0
3, 17643, Note_on_c, 1, 68, 0
3, 17655, Note_on_c, 1, 65, 90
3, 17670, Note_on_c, 1, 67, 90
3, 17672, Note_on_c, 1, 65, 0
3, 17685, Note_on_c, 1, 68, 90
3, 17687, Note_on_c, 1, 67, 0
3, 17700, Note_on_c, 1, 67, 90
3, 17702, Note_on_c, 1, 68, 0
3, 17715, Note_on_c, 1, 63, 90
3, 17716, Note_on_c, 1, 67, 0
3, 17730, Note_on_c, 1, 65, 90
3, 17732, Note_on_c, 1, 63, 0
3, 17745, Note_on_c, 1, 67, 90
3, 17747, Note_on_c, 1, 65, 0
3, 17760, Note_on_c, 1, 65, 90
3, 17764, Note_on_c, 1, 67, 0
3, 17773, Note_on_c, 1, 65, 0
3, 17775, Note_on_c, 1, 62, 90
3, 17790, Note_on_c, 1, 63, 90
3, 17794, Note_on_c, 1, 62, 0
3, 17805, Note_on_c, 1, 65, 90
3, 17806, Note_on_c, 1, 63, 0
3, 17820, Note_on_c, 1, 63, 90
3, 17823, Note_on_c, 1, 65, 0
3, 17867, Note_on_c, 1, 63, 0
3, 17868, Note_on_c, 1, 65, 90
3, 17876, Note_on_c, 1, 63, 90
3, 17877, Note_on_c, 1, 65, 0
3, 17885, Note_on_c, 1, 65, 90
3, 17889, Note_on_c, 1, 63, 0
3, 17936, Note_on_c, 1, 67, 90
3, 17941, Note_on_c, 1, 65, 0
3, 18004, Note_on_c, 1, 67, 0
3, 18015, Note_on_c, 1, 63, 90
3, 18030, Note_on_c, 1, 65, 90
3, 18032, Note_on_c, 1, 63, 0
3, 18045, Note_on_c, 1, 67, 90
3, 18046, Note_on_c, 1, 65, 0
3, 18060, Note_on_c, 1, 65, 90
3, 18064, Note_on_c, 1, 67, 0
3, 18075, Note_on_c, 1, 62, 90
3, 18079, Note_on_c, 1, 65, 0
3, 18090, Note_on_c, 1, 63, 90
3, 18094, Note_on_c, 1, 62, 0
3, 18105, Note_on_c, 1, 65, 90
3, 18109, Note_on_c, 1, 63, 0
3, 18120, Note_on_c, 1, 63, 90
3, 18125, Note_on_c, 1, 65, 0
3, 18134, Note_on_c, 1, 63, 0
3, 18135, Note_on_c, 1, 60, 90
3, 18150, Note_on_c, 1, 62, 90
3, 18156, Note_on_c, 1, 60, 0
3, 18165, Note_on_c, 1, 63, 90
3, 18167, Note_on_c, 1, 62, 0
3, 18180, Note_on_c, 1, 62, 90
3, 18183, Note_on_c, 1, 63, 0
3, 18378, Note_on_c, 1, 62, 0
3, 18390, Note_on_c, 1, 60, 90
3, 18405, Note_on_c, 1, 62, 90
3, 18408, Note_on_c, 1, 60, 0
3, 18420, Note_on_c, 1, 64, 90
3, 18424, Note_on_c, 1, 62, 0
3, 18439, Note_on_c, 1, 64, 0
3, 18450, Note_on_c, 1, 64, 90
3, 18465, Note_on_c, 1, 65, 90
3, 18466, Note_on_c, 1, 64, 0
3, 18480, Note_on_c, 1, 67, 90
3, 18486, Note_on_c, 1, 65, 0
3, 18501, Note_on_c, 1, 67, 0
3, 18510, Note_on_c, 1, 67, 90
3, 18525, Note_on_c, 1, 69, 90
3, 18527, Note_on_c, 1, 67, 0
3, 18540, Note_on_c, 1, 70, 90
3, 18543, Note_on_c, 1, 69, 0
3, 18560, Note_on_c, 1, 70, 0
3, 18570, Note_on_c, 1, 69, 90
3, 18585, Note_on_c, 1, 70, 90
3, 18587, Note_on_c, 1, 69, 0
3, 18600, Note_on_c, 1, 72, 90
3, 18604, Note_on_c, 1, 70, 0
3, 18630, Note_on_c, 1, 69, 90
3, 18638, Note_on_c, 1, 72, 0
3, 18660, Note_on_c, 1, 65, 90
3, 18665, Note_on_c, 1, 69, 0
3, 18780, Note_on_c, 1, 70, 90
3, 18789, Note_on_c, 1, 65, 0
3, 18839, Note_on_c, 1, 70, 0
3, 18840, Note_on_c, 1, 74, 90
3, 18915, Note_on_c, 1, 72, 90
3, 18918, Note_on_c, 1, 74, 0
3, 18928, Note_on_c, 1, 72, 0
3, 18930, Note_on_c, 1, 71, 90
3, 18945, Note_on_c, 1, 72, 90
3, 18945, Note_on_c, 1, 71, 0
3, 18957, Note_on_c, 1, 72, 0
3, 18960, Note_on_c, 1, 79, 90
3, 19092, Note_on_c, 1, 79, 0
3, 19110, Note_on_c, 1, 77, 90
3, 19125, Note_on_c, 1, 76, 90
3, 19127, Note_on_c, 1, 77, 0
3, 19140, Note_on_c, 1, 77, 90
3, 19143, Note_on_c, 1, 76, 0
3, 19170, Note_on_c, 1, 72, 90
3, 19176, Note_on_c, 1, 77, 0
3, 19230, Note_on_c, 1, 74, 90
3, 19237, Note_on_c, 1, 72, 0
3, 19260, Note_on_c, 1, 67, 90
3, 19262, Note_on_c, 1, 74, 0
3, 19375, Note_on_c, 1, 67, 0
3, 19380, Note_on_c, 1, 69, 90
3, 19440, Note_on_c, 1, 70, 90
3, 19445, Note_on_c, 1, 69, 0
3, 19460, Note_on_c, 1, 69, 90
3, 19464, Note_on_c, 1, 70, 0
3, 19480, Note_on_c, 1, 70, 90
3, 19484, Note_on_c, 1, 69, 0
3, 19500, Note_on_c, 1, 79, 90
3, 19502, Note_on_c, 1, 70, 0
3, 19560, Note_on_c, 1, 70, 90
3, 19561, Note_on_c, 1, 79, 0
3, 19599, Note_on_c, 1, 70, 0
3, 19610, Note_on_c, 1, 70, 90
3, 19617, Note_on_c, 1, 72, 90
3, 19618, Note_on_c, 1, 70, 0
3, 19625, Note_on_c, 1, 70, 90
3, 19627, Note_on_c, 1, 72, 0
3, 19679, Note_on_c, 1, 69, 90
3, 19681, Note_on_c, 1, 70, 0
3, 19736, Note_on_c, 1, 72, 90
3, 19739, Note_on_c, 1, 69, 0
3, 19854, Note_on_c, 1, 72, 0
3, 19855, Note_on_c, 1, 71, 90
3, 19862, Note_on_c, 1, 72, 90
3, 19862, Note_on_c, 1, 71, 0
3, 19868, Note_on_c, 1, 71, 90
3, 19870, Note_on_c, 1, 72, 0
3, 20040, Note_on_c, 1, 72, 90
3, 20045, Note_on_c, 1, 71, 0
3, 20070, Note_on_c, 1, 74, 90
3, 20074, Note_on_c, 1, 72, 0
3, 20085, Note_on_c, 1, 75, 90
3, 20087, Note_on_c, 1, 74, 0
3, 20100, Note_on_c, 1, 74, 90
3, 20102, Note_on_c, 1, 75, 0
3, 20115, Note_on_c, 1, 72, 90
3, 20120, Note_on_c, 1, 74, 0
3, 20130, Note_on_c, 1, 70, 90
3, 20132, Note_on_c, 1, 72, 0
3, 20144, Note_on_c, 1, 70, 0
3, 20145, Note_on_c, 1, 69, 90
3, 20156, Note_on_c, 1, 69, 0
3, 20160, Note_on_c, 1, 67, 90
3, 20175, Note_on_c, 1, 66, 90
3, 20183, Note_on_c, 1, 67, 0
3, 20184, Note_on_c, 1, 66, 0
3, 20190, Note_on_c, 1, 67, 90
3, 20250, Note_on_c, 1, 73, 90
3, 20257, Note_on_c, 1, 67, 0
3, 20265, Note_on_c, 1, 74, 90
3, 20276, Note_on_c, 1, 73, 0
3, 20280, Note_on_c, 1, 76, 90
3, 20281, Note_on_c, 1, 74, 0
3, 20310, Note_on_c, 1, 67, 90
3, 20314, Note_on_c, 1, 76, 0
3, 20321, Note_on_c, 1, 67, 0
3, 20331, Note_on_c, 1, 69, 90
3, 20337, Note_on_c, 1, 67, 90
3, 20339, Note_on_c, 1, 69, 0
3, 20395, Note_on_c, 1, 67, 0
3, 20400, Note_on_c, 1, 66, 90
3, 20430, Note_on_c, 1, 69, 90
3, 20436, Note_on_c, 1, 66, 0
3, 20460, Note_on_c, 1, 72, 90
3, 20464, Note_on_c, 1, 69, 0
3, 20580, Note_on_c, 1, 71, 90
3, 20587, Note_on_c, 1, 72, 0
3, 20640, Note_on_c, 1, 70, 90
3, 20644, Note_on_c, 1, 71, 0
3, 20717, Note_on_c, 1, 70, 0
3, 20730, Note_on_c, 1, 69, 90
3, 20745, Note_on_c, 1, 67, 90
3, 20745, Note_on_c, 1, 69, 0
3, 20760, Note_on_c, 1, 69, 90
3, 20765, Note_on_c, 1, 67, 0
3, 20790, Note_on_c, 1, 71, 90
3, 20796, Note_on_c, 1, 69, 0
3, 20805, Note_on_c, 1, 72, 90
3, 20805, Note_on_c, 1, 71, 0
3, 20820, Note_on_c, 1, 71, 90
3, 20824, Note_on_c, 1, 72, 0
3, 20850, Note_on_c, 1, 72, 90
3, 20859, Note_on_c, 1, 71, 0
3, 20864, Note_on_c, 1, 72, 0
3, 20865, Note_on_c, 1, 74, 90
3, 20880, Note_on_c, 1, 72, 90
3, 20886, Note_on_c, 1, 74, 0
3, 21120, Note_on_c, 1, 71, 90
3, 21125, Note_on_c, 1, 72, 0
3, 21180, Note_on_c, 1, 70, 90
3, 21187, Note_on_c, 1, 71, 0
3, 21300, Note_on_c, 1, 69, 90
3, 21306, Note_on_c, 1, 70, 0
3, 21360, Note_on_c, 1, 68, 90
3, 21363, Note_on_c, 1, 69, 0
3, 21450, Note_on_c, 1, 67, 90
3, 21450, Note_on_c, 1, 68, 0
3, 21463, Note_on_c, 1, 67, 0
3, 21465, Note_on_c, 1, 65, 90
3, 21480, Note_on_c, 1, 67, 90
3, 21491, Note_on_c, 1, 65, 0
3, 21510, Note_on_c, 1, 69, 90
3, 21517, Note_on_c, 1, 67, 0
3, 21525, Note_on_c, 1, 70, 90
3, 21526, Note_on_c, 1, 69, 0
3, 21540, Note_on_c, 1, 69, 90
3, 21540, Note_on_c, 1, 70, 0
3, 21570, Note_on_c, 1, 70, 90
3, 21576, Note_on_c, 1, 69, 0
3, 21585, Note_on_c, 1, 72, 90
3, 21588, Note_on_c, 1, 70, 0
3, 21600, Note_on_c, 1, 70, 90
3, 21603, Note_on_c, 1, 72, 0
3, 21840, Note_on_c, 1, 69, 90
3, 21843, Note_on_c, 1, 70, 0
3, 21905, Note_on_c, 1, 69, 0
3, 21960, Note_on_c, 1, 60, 90
3, 21990, Note_on_c, 1, 65, 90
3, 21997, Note_on_c, 1, 60, 0
3, 22005, Note_on_c, 1, 67, 90
3, 22008, Note_on_c, 1, 65, 0
3, 22020, Note_on_c, 1, 69, 90
3, 22026, Note_on_c, 1, 67, 0
3, 22042, Note_on_c, 1, 69, 0
3, 22050, Note_on_c, 1, 69, 90
3, 22065, Note_on_c, 1, 70, 90
3, 22073, Note_on_c, 1, 69, 0
3, 22080, Note_on_c, 1, 72, 90
3, 22082, Note_on_c, 1, 70, 0
3, 22102, Note_on_c, 1, 72, 0
3, 22110, Note_on_c, 1, 72, 90
3, 22125, Note_on_c, 1, 70, 90
3, 22127, Note_on_c, 1, 72, 0
3, 22140, Note_on_c, 1, 69, 90
3, 22140, Note_on_c, 1, 70, 0
3, 22163, Note_on_c, 1, 69, 0
3, 22170, Note_on_c, 1, 69, 90
3, 22185, Note_on_c, 1, 70, 90
3, 22186, Note_on_c, 1, 69, 0
3, 22200, Note_on_c, 1, 72, 90
3, 22203, Note_on_c, 1, 70, 0
3, 22222, Note_on_c, 1, 72, 0
3, 22230, Note_on_c, 1, 72, 90
3, 22245, Note_on_c, 1, 74, 90
3, 22245, Note_on_c, 1, 72, 0
3, 22260, Note_on_c, 1, 75, 90
3, 22261, Note_on_c, 1, 74, 0
3, 22290, Note_on_c, 1, 74, 90
3, 22290, Note_on_c, 1, 75, 0
3, 22305, Note_on_c, 1, 72, 90
3, 22307, Note_on_c, 1, 74, 0
3, 22320, Note_on_c, 1, 70, 90
3, 22323, Note_on_c, 1, 72, 0
3, 22560, Note_on_c, 1, 69, 90
3, 22567, Note_on_c, 1, 70, 0
3, 22626, Note_on_c, 1, 69, 0
3, 22680, Note_on_c, 1, 69, 90
3, 22768, Note_on_c, 1, 69, 0
3, 22770, Note_on_c, 1, 70, 90
3, 22785, Note_on_c, 1, 69, 90
3, 22788, Note_on_c, 1, 70, 0
3, 22800, Note_on_c, 1, 67, 90
3, 22809, Note_on_c, 1, 69, 0
3, 22815, Note_on_c, 1, 65, 90
3, 22816, Note_on_c, 1, 67, 0
3, 22830, Note_on_c, 1, 64, 90
3, 22831, Note_on_c, 1, 65, 0
3, 22845, Note_on_c, 1, 62, 90
3, 22849, Note_on_c, 1, 64, 0
3, 22860, Note_on_c, 1, 60, 90
3, 22861, Note_on_c, 1, 62, 0
3, 22920, Note_on_c, 1, 62, 90
3, 22929, Note_on_c, 1, 60, 0
3, 22980, Note_on_c, 1, 64, 90
3, 22980, Note_on_c, 1, 62, 0
3, 23038, Note_on_c, 1, 64, 0
3, 23040, Note_on_c, 1, 65, 90
3, 23055, Note_on_c, 1, 64, 90
3, 23060, Note_on_c, 1, 65, 0
3, 23070, Note_on_c, 1, 62, 90
3, 23074, Note_on_c, 1, 64, 0
3, 23130, Note_on_c, 1, 67, 90
3, 23132, Note_on_c, 1, 62, 0
3, 23190, Note_on_c, 1, 58, 90
3, 23193, Note_on_c, 1, 67, 0
3, 23207, Note_on_c, 1, 58, 0
3, 23215, Note_on_c, 1, 58, 90
3, 23223, Note_on_c, 1, 60, 90
3, 23225, Note_on_c, 1, 58, 0
3, 23229, Note_on_c, 1, 58, 90
3, 23233, Note_on_c, 1, 60, 0
3, 23282, Note_on_c, 1, 57, 90
3, 23283, Note_on_c, 1, 58, 0
3, 23346, Note_on_c, 1, 57, 0
3, 23400, End_track
4, 0, Start_track
4, 0, MIDI_port, 0
4, 0, Title_t, ""
4, 0, Control_c, 2, 10, 64
4, 360, Note_on_c, 2, 53, 90
4, 420, Note_on_c, 2, 41, 90
4, 425, Note_on_c, 2, 53, 0
4, 480, Note_on_c, 2, 53, 90
4, 487, Note_on_c, 2, 41, 0
4, 593, Note_on_c, 2, 53, 0
4, 600, Note_on_c, 2, 41, 90
4, 660, Note_on_c, 2, 53, 90
4, 664, Note_on_c, 2, 41, 0
4, 780, Note_on_c, 2, 52, 90
4, 788, Note_on_c, 2, 53, 0
4, 840, Note_on_c, 2, 48, 90
4, 844, Note_on_c, 2, 52, 0
4, 900, Note_on_c, 2, 53, 90
4, 904, Note_on_c, 2, 48, 0
4, 990, Note_on_c, 2, 57, 90
4, 991, Note_on_c, 2, 53, 0
4, 1020, Note_on_c, 2, 55, 90
4, 1026, Note_on_c, 2, 57, 0
4, 1050, Note_on_c, 2, 58, 90
4, 1050, Note_on_c, 2, 55, 0
4, 1080, Note_on_c, 2, 57, 90
4, 1081, Note_on_c, 2, 58, 0
4, 1110, Note_on_c, 2, 60, 90
4, 1113, Note_on_c, 2, 57, 0
4, 1140, Note_on_c, 2, 55, 90
4, 1143, Note_on_c, 2, 60, 0
4, 1170, Note_on_c, 2, 58, 90
4, 1174, Note_on_c, 2, 55, 0
4, 1200, Note_on_c, 2, 57, 90
4, 1205, Note_on_c, 2, 58, 0
4, 1230, Note_on_c, 2, 60, 90
4, 1230, Note_on_c, 2, 57, 0
4, 1260, Note_on_c, 2, 58, 90
4, 1263, Note_on_c, 2, 60, 0
4, 1320, Note_on_c, 2, 57, 90
4, 1328, Note_on_c, 2, 58, 0
4, 1380, Note_on_c, 2, 55, 90
4, 1388, Note_on_c, 2, 57, 0
4, 1433, Note_on_c, 2, 55, 0
4, 1440, Note_on_c, 2, 62, 90
4, 1470, Note_on_c, 2, 50, 90
4, 1472, Note_on_c, 2, 62, 0
4, 1500, Note_on_c, 2, 48, 90
4, 1503, Note_on_c, 2, 50, 0
4, 1530, Note_on_c, 2, 60, 90
4, 1533, Note_on_c, 2, 48, 0
4, 1560, Note_on_c, 2, 59, 90
4, 1566, Note_on_c, 2, 60, 0
4, 1590, Note_on_c, 2, 47, 90
4, 1591, Note_on_c, 2, 59, 0
4, 1620, Note_on_c, 2, 48, 90
4, 1624, Note_on_c, 2, 47, 0
4, 1680, Note_on_c, 2, 60, 90
4, 1686, Note_on_c, 2, 48, 0
4, 1738, Note_on_c, 2, 60, 0
4, 1860, Note_on_c, 2, 55, 90
4, 1920, Note_on_c, 2, 52, 90
4, 1922, Note_on_c, 2, 55, 0
4, 1980, Note_on_c, 2, 48, 90
4, 1982, Note_on_c, 2, 52, 0
4, 2040, Note_on_c, 2, 49, 90
4, 2045, Note_on_c, 2, 48, 0
4, 2109, Note_on_c, 2, 49, 0
4, 2220, Note_on_c, 2, 50, 90
4, 2280, Note_on_c, 2, 47, 90
4, 2280, Note_on_c, 2, 50, 0
4, 2340, Note_on_c, 2, 43, 90
4, 2340, Note_on_c, 2, 47, 0
4, 2400, Note_on_c, 2, 44, 90
4, 2407, Note_on_c, 2, 43, 0
4, 2467, Note_on_c, 2, 44, 0
4, 2520, Note_on_c, 2, 45, 90
4, 2580, Note_on_c, 2, 43, 90
4, 2586, Note_on_c, 2, 45, 0
4, 2640, Note_on_c, 2, 41, 90
4, 2646, Note_on_c, 2, 43, 0
4, 2700, Note_on_c, 2, 40, 90
4, 2703, Note_on_c, 2, 41, 0
4, 2760, Note_on_c, 2, 41, 90
4, 2767, Note_on_c, 2, 40, 0
4, 2820, Note_on_c, 2, 43, 90
4, 2822, Note_on_c, 2, 41, 0
4, 2880, Note_on_c, 2, 45, 90
4, 2881, Note_on_c, 2, 43, 0
4, 2940, Note_on_c, 2, 41, 90
4, 2947, Note_on_c, 2, 45, 0
4, 3000, Note_on_c, 2, 43, 90
4, 3009, Note_on_c, 2, 41, 0
4, 3060, Note_on_c, 2, 36, 90
4, 3061, Note_on_c, 2, 43, 0
4, 3150, Note_on_c, 2, 48, 90
4, 3153, Note_on_c, 2, 36, 0
4, 3180, Note_on_c, 2, 52, 90
4, 3185, Note_on_c, 2, 48, 0
4, 3210, Note_on_c, 2, 48, 90
4, 3210, Note_on_c, 2, 52, 0
4, 3239, Note_on_c, 2, 48, 0
4, 3240, Note_on_c, 2, 53, 90
4, 3300, Note_on_c, 2, 41, 90
4, 3305, Note_on_c, 2, 53, 0
4, 3360, Note_on_c, 2, 53, 90
4, 3367, Note_on_c, 2, 41, 0
4, 3473, Note_on_c, 2, 53, 0
4, 3480, Note_on_c, 2, 41, 90
4, 3540, Note_on_c, 2, 53, 90
4, 3544, Note_on_c, 2, 41, 0
4, 3660, Note_on_c, 2, 52, 90
4, 3668, Note_on_c, 2, 53, 0
4, 3720, Note_on_c, 2, 48, 90
4, 3724, Note_on_c, 2, 52, 0
4, 3780, Note_on_c, 2, 53, 90
4, 3784, Note_on_c, 2, 48, 0
4, 3870, Note_on_c, 2, 57, 90
4, 3871, Note_on_c, 2, 53, 0
4, 3900, Note_on_c, 2, 55, 90
4, 3906, Note_on_c, 2, 57, 0
4, 3930, Note_on_c, 2, 58, 90
4, 3930, Note_on_c, 2, 55, 0
4, 3960, Note_on_c, 2, 57, 90
4, 3961, Note_on_c, 2, 58, 0
4, 3990, Note_on_c, 2, 60, 90
4, 3993, Note_on_c, 2, 57, 0
4, 4020, Note_on_c, 2, 55, 90
4, 4023, Note_on_c, 2, 60, 0
4, 4050, Note_on_c, 2, 58, 90
4, 4054, Note_on_c, 2, 55, 0
4, 4080, Note_on_c, 2, 57, 90
4, 4085, Note_on_c, 2, 58, 0
4, 4110, Note_on_c, 2, 60, 90
4, 4110, Note_on_c, 2, 57, 0
4, 4140, Note_on_c, 2, 58, 90
4, 4143, Note_on_c, 2, 60, 0
4, 4200, Note_on_c, 2, 57, 90
4, 4208, Note_on_c, 2, 58, 0
4, 4260, Note_on_c, 2, 55, 90
4, 4268, Note_on_c, 2, 57, 0
4, 4313, Note_on_c, 2, 55, 0
4, 4320, Note_on_c, 2, 62, 90
4, 4350, Note_on_c, 2, 50, 90
4, 4352, Note_on_c, 2, 62, 0
4, 4380, Note_on_c, 2, 48, 90
4, 4383, Note_on_c, 2, 50, 0
4, 4410, Note_on_c, 2, 60, 90
4, 4413, Note_on_c, 2, 48, 0
4, 4440, Note_on_c, 2, 59, 90
4, 4446, Note_on_c, 2, 60, 0
4, 4470, Note_on_c, 2, 47, 90
4, 4471, Note_on_c, 2, 59, 0
4, 4500, Note_on_c, 2, 48, 90
4, 4504, Note_on_c, 2, 47, 0
4, 4560, Note_on_c, 2, 60, 90
4, 4566, Note_on_c, 2, 48, 0
4, 4618, Note_on_c, 2, 60, 0
4, 4740, Note_on_c, 2, 55, 90
4, 4800, Note_on_c, 2, 52, 90
4, 4802, Note_on_c, 2, 55, 0
4, 4860, Note_on_c, 2, 48, 90
4, 4862, Note_on_c, 2, 52, 0
4, 4920, Note_on_c, 2, 49, 90
4, 4925, Note_on_c, 2, 48, 0
4, 4989, Note_on_c, 2, 49, 0
4, 5100, Note_on_c, 2, 50, 90
4, 5160, Note_on_c, 2, 47, 90
4, 5160, Note_on_c, 2, 50, 0
4, 5220, Note_on_c, 2, 43, 90
4, 5220, Note_on_c, 2, 47, 0
4, 5280, Note_on_c, 2, 44, 90
4, 5287, Note_on_c, 2, 43, 0
4, 5347, Note_on_c, 2, 44, 0
4, 5400, Note_on_c, 2, 45, 90
4, 5460, Note_on_c, 2, 43, 90
4, 5466, Note_on_c, 2, 45, 0
4, 5520, Note_on_c, 2, 41, 90
4, 5526, Note_on_c, 2, 43, 0
4, 5580, Note_on_c, 2, 40, 90
4, 5583, Note_on_c, 2, 41, 0
4, 5640, Note_on_c, 2, 41, 90
4, 5647, Note_on_c, 2, 40, 0
4, 5700, Note_on_c, 2, 43, 90
4, 5702, Note_on_c, 2, 41, 0
4, 5760, Note_on_c, 2, 45, 90
4, 5761, Note_on_c, 2, 43, 0
4, 5820, Note_on_c, 2, 41, 90
4, 5827, Note_on_c, 2, 45, 0
4, 5880, Note_on_c, 2, 43, 90
4, 5889, Note_on_c, 2, 41, 0
4, 5940, Note_on_c, 2, 36, 90
4, 5941, Note_on_c, 2, 43, 0
4, 6030, Note_on_c, 2, 48, 90
4, 6033, Note_on_c, 2, 36, 0
4, 6060, Note_on_c, 2, 52, 90
4, 6065, Note_on_c, 2, 48, 0
4, 6090, Note_on_c, 2, 48, 90
4, 6090, Note_on_c, 2, 52, 0
4, 6119, Note_on_c, 2, 48, 0
4, 6120, Note_on_c, 2, 60, 90
4, 6179, Note_on_c, 2, 60, 0
4, 6180, Note_on_c, 2, 48, 90
4, 6240, Note_on_c, 2, 60, 90
4, 6241, Note_on_c, 2, 48, 0
4, 6342, Note_on_c, 2, 60, 0
4, 6360, Note_on_c, 2, 48, 90
4, 6420, Note_on_c, 2, 60, 90
4, 6422, Note_on_c, 2, 48, 0
4, 6540, Note_on_c, 2, 59, 90
4, 6547, Note_on_c, 2, 60, 0
4, 6600, Note_on_c, 2, 55, 90
4, 6601, Note_on_c, 2, 59, 0
4, 6660, Note_on_c, 2, 60, 90
4, 6662, Note_on_c, 2, 55, 0
4, 6750, Note_on_c, 2, 57, 90
4, 6758, Note_on_c, 2, 60, 0
4, 6780, Note_on_c, 2, 58, 90
4, 6784, Note_on_c, 2, 57, 0
4, 6810, Note_on_c, 2, 55, 90
4, 6812, Note_on_c, 2, 58, 0
4, 6840, Note_on_c, 2, 57, 90
4, 6845, Note_on_c, 2, 55, 0
4, 6898, Note_on_c, 2, 57, 0
4, 6900, Note_on_c, 2, 60, 90
4, 6960, Note_on_c, 2, 57, 90
4, 6962, Note_on_c, 2, 60, 0
4, 7020, Note_on_c, 2, 58, 90
4, 7023, Note_on_c, 2, 57, 0
4, 7078, Note_on_c, 2, 58, 0
4, 7080, Note_on_c, 2, 46, 90
4, 7140, Note_on_c, 2, 46, 0
4, 7200, Note_on_c, 2, 47, 90
4, 7260, Note_on_c, 2, 52, 90
4, 7262, Note_on_c, 2, 47, 0
4, 7320, Note_on_c, 2, 40, 90
4, 7323, Note_on_c, 2, 52, 0
4, 7380, Note_on_c, 2, 45, 90
4, 7385, Note_on_c, 2, 40, 0
4, 7440, Note_on_c, 2, 57, 90
4, 7441, Note_on_c, 2, 45, 0
4, 7500, Note_on_c, 2, 49, 90
4, 7500, Note_on_c, 2, 57, 0
4, 7560, Note_on_c, 2, 50, 90
4, 7561, Note_on_c, 2, 49, 0
4, 7620, Note_on_c, 2, 38, 90
4, 7622, Note_on_c, 2, 50, 0
4, 7680, Note_on_c, 2, 50, 90
4, 7684, Note_on_c, 2, 38, 0
4, 7798, Note_on_c, 2, 50, 0
4, 7800, Note_on_c, 2, 38, 90
4, 7859, Note_on_c, 2, 38, 0
4, 7860, Note_on_c, 2, 50, 90
4, 7980, Note_on_c, 2, 49, 90
4, 7986, Note_on_c, 2, 50, 0
4, 8040, Note_on_c, 2, 45, 90
4, 8043, Note_on_c, 2, 49, 0
4, 8100, Note_on_c, 2, 50, 90
4, 8104, Note_on_c, 2, 45, 0
4, 8190, Note_on_c, 2, 52, 90
4, 8197, Note_on_c, 2, 50, 0
4, 8220, Note_on_c, 2, 53, 90
4, 8222, Note_on_c, 2, 52, 0
4, 8250, Note_on_c, 2, 50, 90
4, 8251, Note_on_c, 2, 53, 0
4, 8280, Note_on_c, 2, 55, 90
4, 8287, Note_on_c, 2, 50, 0
4, 8340, Note_on_c, 2, 53, 90
4, 8345, Note_on_c, 2, 55, 0
4, 8400, Note_on_c, 2, 52, 90
4, 8406, Note_on_c, 2, 53, 0
4, 8458, Note_on_c, 2, 52, 0
4, 8460, Note_on_c, 2, 61, 90
4, 8520, Note_on_c, 2, 59, 90
4, 8525, Note_on_c, 2, 61, 0
4, 8580, Note_on_c, 2, 57, 90
4, 8587, Note_on_c, 2, 59, 0
4, 8640, Note_on_c, 2, 58, 90
4, 8644, Note_on_c, 2, 57, 0
4, 8700, Note_on_c, 2, 55, 90
4, 8707, Note_on_c, 2, 58, 0
4, 8760, Note_on_c, 2, 57, 90
4, 8765, Note_on_c, 2, 55, 0
4, 8820, Note_on_c, 2, 50, 90
4, 8823, Note_on_c, 2, 57, 0
4, 8910, Note_on_c, 2, 51, 90
4, 8910, Note_on_c, 2, 50, 0
4, 8940, Note_on_c, 2, 48, 90
4, 8944, Note_on_c, 2, 51, 0
4, 8970, Note_on_c, 2, 50, 90
4, 8972, Note_on_c, 2, 48, 0
4, 9000, Note_on_c, 2, 47, 90
4, 9004, Note_on_c, 2, 50, 0
4, 9060, Note_on_c, 2, 59, 90
4, 9060, Note_on_c, 2, 47, 0
4, 9120, Note_on_c, 2, 55, 90
4, 9125, Note_on_c, 2, 59, 0
4, 9180, Note_on_c, 2, 48, 90
4, 9180, Note_on_c, 2, 55, 0
4, 9240, Note_on_c, 2, 50, 90
4, 9245, Note_on_c, 2, 48, 0
4, 9300, Note_on_c, 2, 51, 90
4, 9306, Note_on_c, 2, 50, 0
4, 9360, Note_on_c, 2, 53, 90
4, 9367, Note_on_c, 2, 51, 0
4, 9419, Note_on_c, 2, 53, 0
4, 9420, Note_on_c, 2, 55, 90
4, 9480, Note_on_c, 2, 57, 90
4, 9481, Note_on_c, 2, 55, 0
4, 9540, Note_on_c, 2, 58, 90
4, 9543, Note_on_c, 2, 57, 0
4, 9600, Note_on_c, 2, 55, 90
4, 9604, Note_on_c, 2, 58, 0
4, 9660, Note_on_c, 2, 53, 90
4, 9665, Note_on_c, 2, 55, 0
4, 9720, Note_on_c, 2, 52, 90
4, 9723, Note_on_c, 2, 53, 0
4, 9780, Note_on_c, 2, 48, 90
4, 9788, Note_on_c, 2, 52, 0
4, 9840, Note_on_c, 2, 52, 90
4, 9842, Note_on_c, 2, 48, 0
4, 9900, Note_on_c, 2, 53, 90
4, 9904, Note_on_c, 2, 52, 0
4, 9960, Note_on_c, 2, 41, 90
4, 9966, Note_on_c, 2, 53, 0
4, 10020, Note_on_c, 2, 45, 90
4, 10022, Note_on_c, 2, 41, 0
4, 10080, Note_on_c, 2, 46, 90
4, 10086, Note_on_c, 2, 45, 0
4, 10140, Note_on_c, 2, 50, 90
4, 10142, Note_on_c, 2, 46, 0
4, 10200, Note_on_c, 2, 43, 90
4, 10202, Note_on_c, 2, 50, 0
4, 10260, Note_on_c, 2, 48, 90
4, 10264, Note_on_c, 2, 43, 0
4, 10350, Note_on_c, 2, 50, 90
4, 10354, Note_on_c, 2, 48, 0
4, 10380, Note_on_c, 2, 52, 90
4, 10384, Note_on_c, 2, 50, 0
4, 10410, Note_on_c, 2, 48, 90
4, 10414, Note_on_c, 2, 52, 0
4, 10440, Note_on_c, 2, 53, 90
4, 10441, Note_on_c, 2, 48, 0
4, 10500, Note_on_c, 2, 41, 90
4, 10505, Note_on_c, 2, 53, 0
4, 10560, Note_on_c, 2, 53, 90
4, 10564, Note_on_c, 2, 41, 0
4, 10639, Note_on_c, 2, 53, 0
4, 10680, Note_on_c, 2, 41, 90
4, 10740, Note_on_c, 2, 53, 90
4, 10750, Note_on_c, 2, 41, 0
4, 10860, Note_on_c, 2, 52, 90
4, 10867, Note_on_c, 2, 53, 0
4, 10920, Note_on_c, 2, 48, 90
4, 10924, Note_on_c, 2, 52, 0
4, 10980, Note_on_c, 2, 53, 90
4, 10984, Note_on_c, 2, 48, 0
4, 11070, Note_on_c, 2, 50, 90
4, 11074, Note_on_c, 2, 53, 0
4, 11100, Note_on_c, 2, 51, 90
4, 11104, Note_on_c, 2, 50, 0
4, 11130, Note_on_c, 2, 48, 90
4, 11134, Note_on_c, 2, 51, 0
4, 11160, Note_on_c, 2, 50, 90
4, 11164, Note_on_c, 2, 48, 0
4, 11220, Note_on_c, 2, 53, 90
4, 11220, Note_on_c, 2, 50, 0
4, 11280, Note_on_c, 2, 50, 90
4, 11286, Note_on_c, 2, 53, 0
4, 11340, Note_on_c, 2, 51, 90
4, 11343, Note_on_c, 2, 50, 0
4, 11400, Note_on_c, 2, 39, 90
4, 11400, Note_on_c, 2, 51, 0
4, 11469, Note_on_c, 2, 39, 0
4, 11520, Note_on_c, 2, 52, 90
4, 11580, Note_on_c, 2, 57, 90
4, 11581, Note_on_c, 2, 52, 0
4, 11640, Note_on_c, 2, 45, 90
4, 11646, Note_on_c, 2, 57, 0
4, 11700, Note_on_c, 2, 50, 90
4, 11707, Note_on_c, 2, 45, 0
4, 11788, Note_on_c, 2, 50, 0
4, 11790, Note_on_c, 2, 54, 90
4, 11820, Note_on_c, 2, 52, 90
4, 11824, Note_on_c, 2, 54, 0
4, 11850, Note_on_c, 2, 55, 90
4, 11853, Note_on_c, 2, 52, 0
4, 11880, Note_on_c, 2, 54, 90
4, 11882, Note_on_c, 2, 55, 0
4, 11910, Note_on_c, 2, 57, 90
4, 11911, Note_on_c, 2, 54, 0
4, 11940, Note_on_c, 2, 55, 90
4, 11943, Note_on_c, 2, 57, 0
4, 11970, Note_on_c, 2, 57, 90
4, 11973, Note_on_c, 2, 55, 0
4, 12000, Note_on_c, 2, 53, 90
4, 12003, Note_on_c, 2, 57, 0
4, 12030, Note_on_c, 2, 55, 90
4, 12033, Note_on_c, 2, 53, 0
4, 12060, Note_on_c, 2, 52, 90
4, 12061, Note_on_c, 2, 55, 0
4, 12120, Note_on_c, 2, 53, 90
4, 12122, Note_on_c, 2, 52, 0
4, 12180, Note_on_c, 2, 50, 90
4, 12183, Note_on_c, 2, 53, 0
4, 12240, Note_on_c, 2, 57, 90
4, 12244, Note_on_c, 2, 50, 0
4, 12270, Note_on_c, 2, 58, 90
4, 12274, Note_on_c, 2, 57, 0
4, 12300, Note_on_c, 2, 55, 90
4, 12302, Note_on_c, 2, 58, 0
4, 12330, Note_on_c, 2, 57, 90
4, 12331, Note_on_c, 2, 55, 0
4, 12360, Note_on_c, 2, 54, 90
4, 12362, Note_on_c, 2, 57, 0
4, 12390, Note_on_c, 2, 57, 90
4, 12392, Note_on_c, 2, 54, 0
4, 12420, Note_on_c, 2, 55, 90
4, 12423, Note_on_c, 2, 57, 0
4, 12480, Note_on_c, 2, 43, 90
4, 12486, Note_on_c, 2, 55, 0
4, 12540, Note_on_c, 2, 49, 90
4, 12542, Note_on_c, 2, 43, 0
4, 12600, Note_on_c, 2, 50, 90
4, 12606, Note_on_c, 2, 49, 0
4, 12629, Note_on_c, 2, 50, 0
4, 12630, Note_on_c, 2, 52, 90
4, 12660, Note_on_c, 2, 48, 90
4, 12664, Note_on_c, 2, 52, 0
4, 12690, Note_on_c, 2, 50, 90
4, 12694, Note_on_c, 2, 48, 0
4, 12720, Note_on_c, 2, 47, 90
4, 12722, Note_on_c, 2, 50, 0
4, 12749, Note_on_c, 2, 47, 0
4, 12750, Note_on_c, 2, 50, 90
4, 12780, Note_on_c, 2, 48, 90
4, 12784, Note_on_c, 2, 50, 0
4, 12839, Note_on_c, 2, 48, 0
4, 12840, Note_on_c, 2, 60, 90
4, 12900, Note_on_c, 2, 54, 90
4, 12902, Note_on_c, 2, 60, 0
4, 12960, Note_on_c, 2, 55, 90
4, 12964, Note_on_c, 2, 54, 0
4, 12990, Note_on_c, 2, 57, 90
4, 12993, Note_on_c, 2, 55, 0
4, 13020, Note_on_c, 2, 53, 90
4, 13024, Note_on_c, 2, 57, 0
4, 13050, Note_on_c, 2, 55, 90
4, 13051, Note_on_c, 2, 53, 0
4, 13080, Note_on_c, 2, 52, 90
4, 13084, Note_on_c, 2, 55, 0
4, 13110, Note_on_c, 2, 55, 90
4, 13115, Note_on_c, 2, 52, 0
4, 13140, Note_on_c, 2, 53, 90
4, 13140, Note_on_c, 2, 55, 0
4, 13200, Note_on_c, 2, 41, 90
4, 13201, Note_on_c, 2, 53, 0
4, 13267, Note_on_c, 2, 41, 0
4, 13380, Note_on_c, 2, 60, 90
4, 13440, Note_on_c, 2, 57, 90
4, 13441, Note_on_c, 2, 60, 0
4, 13500, Note_on_c, 2, 53, 90
4, 13503, Note_on_c, 2, 57, 0
4, 13560, Note_on_c, 2, 54, 90
4, 13563, Note_on_c, 2, 53, 0
4, 13616, Note_on_c, 2, 54, 0
4, 13740, Note_on_c, 2, 55, 90
4, 13800, Note_on_c, 2, 52, 90
4, 13801, Note_on_c, 2, 55, 0
4, 13860, Note_on_c, 2, 48, 90
4, 13868, Note_on_c, 2, 52, 0
4, 13920, Note_on_c, 2, 49, 90
4, 13926, Note_on_c, 2, 48, 0
4, 13980, Note_on_c, 2, 49, 0
4, 14040, Note_on_c, 2, 50, 90
4, 14100, Note_on_c, 2, 48, 90
4, 14104, Note_on_c, 2, 50, 0
4, 14160, Note_on_c, 2, 46, 90
4, 14165, Note_on_c, 2, 48, 0
4, 14220, Note_on_c, 2, 45, 90
4, 14223, Note_on_c, 2, 46, 0
4, 14280, Note_on_c, 2, 46, 90
4, 14281, Note_on_c, 2, 45, 0
4, 14340, Note_on_c, 2, 48, 90
4, 14343, Note_on_c, 2, 46, 0
4, 14400, Note_on_c, 2, 50, 90
4, 14404, Note_on_c, 2, 48, 0
4, 14460, Note_on_c, 2, 46, 90
4, 14466, Note_on_c, 2, 50, 0
4, 14520, Note_on_c, 2, 48, 90
4, 14524, Note_on_c, 2, 46, 0
4, 14580, Note_on_c, 2, 41, 90
4, 14585, Note_on_c, 2, 48, 0
4, 14670, Note_on_c, 2, 53, 90
4, 14675, Note_on_c, 2, 41, 0
4, 14700, Note_on_c, 2, 57, 90
4, 14704, Note_on_c, 2, 53, 0
4, 14730, Note_on_c, 2, 53, 90
4, 14733, Note_on_c, 2, 57, 0
4, 14759, Note_on_c, 2, 53, 0
4, 14760, Note_on_c, 2, 60, 90
4, 14819, Note_on_c, 2, 60, 0
4, 14820, Note_on_c, 2, 48, 90
4, 14880, Note_on_c, 2, 60, 90
4, 14881, Note_on_c, 2, 48, 0
4, 14982, Note_on_c, 2, 60, 0
4, 15000, Note_on_c, 2, 48, 90
4, 15060, Note_on_c, 2, 60, 90
4, 15062, Note_on_c, 2, 48, 0
4, 15180, Note_on_c, 2, 59, 90
4, 15187, Note_on_c, 2, 60, 0
4, 15240, Note_on_c, 2, 55, 90
4, 15241, Note_on_c, 2, 59, 0
4, 15300, Note_on_c, 2, 60, 90
4, 15302, Note_on_c, 2, 55, 0
4, 15390, Note_on_c, 2, 57, 90
4, 15398, Note_on_c, 2, 60, 0
4, 15420, Note_on_c, 2, 58, 90
4, 15424, Note_on_c, 2, 57, 0
4, 15450, Note_on_c, 2, 55, 90
4, 15452, Note_on_c, 2, 58, 0
4, 15480, Note_on_c, 2, 57, 90
4, 15485, Note_on_c, 2, 55, 0
4, 15538, Note_on_c, 2, 57, 0
4, 15540, Note_on_c, 2, 60, 90
4, 15600, Note_on_c, 2, 57, 90
4, 15602, Note_on_c, 2, 60, 0
4, 15660, Note_on_c, 2, 58, 90
4, 15663, Note_on_c, 2, 57, 0
4, 15718, Note_on_c, 2, 58, 0
4, 15720, Note_on_c, 2, 46, 90
4, 15780, Note_on_c, 2, 46, 0
4, 15840, Note_on_c, 2, 47, 90
4, 15900, Note_on_c, 2, 52, 90
4, 15902, Note_on_c, 2, 47, 0
4, 15960, Note_on_c, 2, 40, 90
4, 15963, Note_on_c, 2, 52, 0
4, 16020, Note_on_c, 2, 45, 90
4, 16025, Note_on_c, 2, 40, 0
4, 16080, Note_on_c, 2, 57, 90
4, 16081, Note_on_c, 2, 45, 0
4, 16140, Note_on_c, 2, 49, 90
4, 16140, Note_on_c, 2, 57, 0
4, 16200, Note_on_c, 2, 50, 90
4, 16201, Note_on_c, 2, 49, 0
4, 16260, Note_on_c, 2, 38, 90
4, 16262, Note_on_c, 2, 50, 0
4, 16320, Note_on_c, 2, 50, 90
4, 16324, Note_on_c, 2, 38, 0
4, 16438, Note_on_c, 2, 50, 0
4, 16440, Note_on_c, 2, 38, 90
4, 16499, Note_on_c, 2, 38, 0
4, 16500, Note_on_c, 2, 50, 90
4, 16620, Note_on_c, 2, 49, 90
4, 16626, Note_on_c, 2, 50, 0
4, 16680, Note_on_c, 2, 45, 90
4, 16683, Note_on_c, 2, 49, 0
4, 16740, Note_on_c, 2, 50, 90
4, 16744, Note_on_c, 2, 45, 0
4, 16830, Note_on_c, 2, 52, 90
4, 16837, Note_on_c, 2, 50, 0
4, 16860, Note_on_c, 2, 53, 90
4, 16862, Note_on_c, 2, 52, 0
4, 16890, Note_on_c, 2, 50, 90
4, 16891, Note_on_c, 2, 53, 0
4, 16920, Note_on_c, 2, 55, 90
4, 16927, Note_on_c, 2, 50, 0
4, 16980, Note_on_c, 2, 53, 90
4, 16985, Note_on_c, 2, 55, 0
4, 17040, Note_on_c, 2, 52, 90
4, 17046, Note_on_c, 2, 53, 0
4, 17098, Note_on_c, 2, 52, 0
4, 17100, Note_on_c, 2, 61, 90
4, 17160, Note_on_c, 2, 59, 90
4, 17165, Note_on_c, 2, 61, 0
4, 17220, Note_on_c, 2, 57, 90
4, 17227, Note_on_c, 2, 59, 0
4, 17280, Note_on_c, 2, 58, 90
4, 17284, Note_on_c, 2, 57, 0
4, 17340, Note_on_c, 2, 55, 90
4, 17347, Note_on_c, 2, 58, 0
4, 17400, Note_on_c, 2, 57, 90
4, 17405, Note_on_c, 2, 55, 0
4, 17460, Note_on_c, 2, 50, 90
4, 17463, Note_on_c, 2, 57, 0
4, 17550, Note_on_c, 2, 51, 90
4, 17550, Note_on_c, 2, 50, 0
4, 17580, Note_on_c, 2, 48, 90
4, 17584, Note_on_c, 2, 51, 0
4, 17610, Note_on_c, 2, 50, 90
4, 17612, Note_on_c, 2, 48, 0
4, 17640, Note_on_c, 2, 47, 90
4, 17644, Note_on_c, 2, 50, 0
4, 17700, Note_on_c, 2, 59, 90
4, 17700, Note_on_c, 2, 47, 0
4, 17760, Note_on_c, 2, 55, 90
4, 17765, Note_on_c, 2, 59, 0
4, 17820, Note_on_c, 2, 48, 90
4, 17820, Note_on_c, 2, 55, 0
4, 17880, Note_on_c, 2, 50, 90
4, 17885, Note_on_c, 2, 48, 0
4, 17940, Note_on_c, 2, 51, 90
4, 17946, Note_on_c, 2, 50, 0
4, 18000, Note_on_c, 2, 53, 90
4, 18007, Note_on_c, 2, 51, 0
4, 18059, Note_on_c, 2, 53, 0
4, 18060, Note_on_c, 2, 55, 90
4, 18120, Note_on_c, 2, 57, 90
4, 18121, Note_on_c, 2, 55, 0
4, 18180, Note_on_c, 2, 58, 90
4, 18183, Note_on_c, 2, 57, 0
4, 18240, Note_on_c, 2, 55, 90
4, 18244, Note_on_c, 2, 58, 0
4, 18300, Note_on_c, 2, 53, 90
4, 18305, Note_on_c, 2, 55, 0
4, 18360, Note_on_c, 2, 52, 90
4, 18363, Note_on_c, 2, 53, 0
4, 18420, Note_on_c, 2, 48, 90
4, 18428, Note_on_c, 2, 52, 0
4, 18480, Note_on_c, 2, 52, 90
4, 18482, Note_on_c, 2, 48, 0
4, 18540, Note_on_c, 2, 53, 90
4, 18544, Note_on_c, 2, 52, 0
4, 18600, Note_on_c, 2, 41, 90
4, 18606, Note_on_c, 2, 53, 0
4, 18660, Note_on_c, 2, 45, 90
4, 18662, Note_on_c, 2, 41, 0
4, 18720, Note_on_c, 2, 46, 90
4, 18726, Note_on_c, 2, 45, 0
4, 18780, Note_on_c, 2, 50, 90
4, 18782, Note_on_c, 2, 46, 0
4, 18840, Note_on_c, 2, 43, 90
4, 18842, Note_on_c, 2, 50, 0
4, 18900, Note_on_c, 2, 48, 90
4, 18904, Note_on_c, 2, 43, 0
4, 18990, Note_on_c, 2, 50, 90
4, 18994, Note_on_c, 2, 48, 0
4, 19020, Note_on_c, 2, 52, 90
4, 19024, Note_on_c, 2, 50, 0
4, 19050, Note_on_c, 2, 48, 90
4, 19054, Note_on_c, 2, 52, 0
4, 19080, Note_on_c, 2, 53, 90
4, 19081, Note_on_c, 2, 48, 0
4, 19140, Note_on_c, 2, 41, 90
4, 19145, Note_on_c, 2, 53, 0
4, 19200, Note_on_c, 2, 53, 90
4, 19204, Note_on_c, 2, 41, 0
4, 19279, Note_on_c, 2, 53, 0
4, 19320, Note_on_c, 2, 41, 90
4, 19380, Note_on_c, 2, 53, 90
4, 19390, Note_on_c, 2, 41, 0
4, 19500, Note_on_c, 2, 52, 90
4, 19507, Note_on_c, 2, 53, 0
4, 19560, Note_on_c, 2, 48, 90
4, 19564, Note_on_c, 2, 52, 0
4, 19620, Note_on_c, 2, 53, 90
4, 19624, Note_on_c, 2, 48, 0
4, 19710, Note_on_c, 2, 50, 90
4, 19714, Note_on_c, 2, 53, 0
4, 19740, Note_on_c, 2, 51, 90
4, 19744, Note_on_c, 2, 50, 0
4, 19770, Note_on_c, 2, 48, 90
4, 19774, Note_on_c, 2, 51, 0
4, 19800, Note_on_c, 2, 50, 90
4, 19804, Note_on_c, 2, 48, 0
4, 19860, Note_on_c, 2, 53, 90
4, 19860, Note_on_c, 2, 50, 0
4, 19920, Note_on_c, 2, 50, 90
4, 19926, Note_on_c, 2, 53, 0
4, 19980, Note_on_c, 2, 51, 90
4, 19983, Note_on_c, 2, 50, 0
4, 20040, Note_on_c, 2, 39, 90
4, 20040, Note_on_c, 2, 51, 0
4, 20109, Note_on_c, 2, 39, 0
4, 20160, Note_on_c, 2, 52, 90
4, 20220, Note_on_c, 2, 57, 90
4, 20221, Note_on_c, 2, 52, 0
4, 20280, Note_on_c, 2, 45, 90
4, 20286, Note_on_c, 2, 57, 0
4, 20340, Note_on_c, 2, 50, 90
4, 20347, Note_on_c, 2, 45, 0
4, 20428, Note_on_c, 2, 50, 0
4, 20430, Note_on_c, 2, 54, 90
4, 20460, Note_on_c, 2, 52, 90
4, 20464, Note_on_c, 2, 54, 0
4, 20490, Note_on_c, 2, 55, 90
4, 20493, Note_on_c, 2, 52, 0
4, 20520, Note_on_c, 2, 54, 90
4, 20522, Note_on_c, 2, 55, 0
4, 20550, Note_on_c, 2, 57, 90
4, 20551, Note_on_c, 2, 54, 0
4, 20580, Note_on_c, 2, 55, 90
4, 20583, Note_on_c, 2, 57, 0
4, 20610, Note_on_c, 2, 57, 90
4, 20613, Note_on_c, 2, 55, 0
4, 20640, Note_on_c, 2, 53, 90
4, 20643, Note_on_c, 2, 57, 0
4, 20670, Note_on_c, 2, 55, 90
4, 20673, Note_on_c, 2, 53, 0
4, 20700, Note_on_c, 2, 52, 90
4, 20701, Note_on_c, 2, 55, 0
4, 20760, Note_on_c, 2, 53, 90
4, 20762, Note_on_c, 2, 52, 0
4, 20820, Note_on_c, 2, 50, 90
4, 20823, Note_on_c, 2, 53, 0
4, 20880, Note_on_c, 2, 57, 90
4, 20884, Note_on_c, 2, 50, 0
4, 20910, Note_on_c, 2, 58, 90
4, 20914, Note_on_c, 2, 57, 0
4, 20940, Note_on_c, 2, 55, 90
4, 20942, Note_on_c, 2, 58, 0
4, 20970, Note_on_c, 2, 57, 90
4, 20971, Note_on_c, 2, 55, 0
4, 21000, Note_on_c, 2, 54, 90
4, 21002, Note_on_c, 2, 57, 0
4, 21030, Note_on_c, 2, 57, 90
4, 21032, Note_on_c, 2, 54, 0
4, 21060, Note_on_c, 2, 55, 90
4, 21063, Note_on_c, 2, 57, 0
4, 21120, Note_on_c, 2, 43, 90
4, 21126, Note_on_c, 2, 55, 0
4, 21180, Note_on_c, 2, 49, 90
4, 21182, Note_on_c, 2, 43, 0
4, 21240, Note_on_c, 2, 50, 90
4, 21246, Note_on_c, 2, 49, 0
4, 21269, Note_on_c, 2, 50, 0
4, 21270, Note_on_c, 2, 52, 90
4, 21300, Note_on_c, 2, 48, 90
4, 21304, Note_on_c, 2, 52, 0
4, 21330, Note_on_c, 2, 50, 90
4, 21334, Note_on_c, 2, 48, 0
4, 21360, Note_on_c, 2, 47, 90
4, 21362, Note_on_c, 2, 50, 0
4, 21389, Note_on_c, 2, 47, 0
4, 21390, Note_on_c, 2, 50, 90
4, 21420, Note_on_c, 2, 48, 90
4, 21424, Note_on_c, 2, 50, 0
4, 21479, Note_on_c, 2, 48, 0
4, 21480, Note_on_c, 2, 60, 90
4, 21540, Note_on_c, 2, 54, 90
4, 21542, Note_on_c, 2, 60, 0
4, 21600, Note_on_c, 2, 55, 90
4, 21604, Note_on_c, 2, 54, 0
4, 21630, Note_on_c, 2, 57, 90
4, 21633, Note_on_c, 2, 55, 0
4, 21660, Note_on_c, 2, 53, 90
4, 21664, Note_on_c, 2, 57, 0
4, 21690, Note_on_c, 2, 55, 90
4, 21691, Note_on_c, 2, 53, 0
4, 21720, Note_on_c, 2, 52, 90
4, 21724, Note_on_c, 2, 55, 0
4, 21750, Note_on_c, 2, 55, 90
4, 21755, Note_on_c, 2, 52, 0
4, 21780, Note_on_c, 2, 53, 90
4, 21780, Note_on_c, 2, 55, 0
4, 21840, Note_on_c, 2, 41, 90
4, 21841, Note_on_c, 2, 53, 0
4, 21907, Note_on_c, 2, 41, 0
4, 22020, Note_on_c, 2, 60, 90
4, 22080, Note_on_c, 2, 57, 90
4, 22081, Note_on_c, 2, 60, 0
4, 22140, Note_on_c, 2, 53, 90
4, 22143, Note_on_c, 2, 57, 0
4, 22200, Note_on_c, 2, 54, 90
4, 22203, Note_on_c, 2, 53, 0
4, 22256, Note_on_c, 2, 54, 0
4, 22380, Note_on_c, 2, 55, 90
4, 22440, Note_on_c, 2, 52, 90
4, 22441, Note_on_c, 2, 55, 0
4, 22500, Note_on_c, 2, 48, 90
4, 22508, Note_on_c, 2, 52, 0
4, 22560, Note_on_c, 2, 49, 90
4, 22566, Note_on_c, 2, 48, 0
4, 22620, Note_on_c, 2, 49, 0
4, 22680, Note_on_c, 2, 50, 90
4, 22740, Note_on_c, 2, 48, 90
4, 22744, Note_on_c, 2, 50, 0
4, 22800, Note_on_c, 2, 46, 90
4, 22805, Note_on_c, 2, 48, 0
4, 22860, Note_on_c, 2, 45, 90
4, 22863, Note_on_c, 2, 46, 0
4, 22920, Note_on_c, 2, 46, 90
4, 22921, Note_on_c, 2, 45, 0
4, 22980, Note_on_c, 2, 48, 90
4, 22983, Note_on_c, 2, 46, 0
4, 23040, Note_on_c, 2, 50, 90
4, 23044, Note_on_c, 2, 48, 0
4, 23100, Note_on_c, 2, 46, 90
4, 23106, Note_on_c, 2, 50, 0
4, 23160, Note_on_c, 2, 48, 90
4, 23164, Note_on_c, 2, 46, 0
4, 23220, Note_on_c, 2, 41, 90
4, 23220, Note_on_c, 2, 48, 0
4, 23399, Note_on_c, 2, 41, 0
4, 23400, End_track
0, 0, End_of_file
