0, 0, Header, 1, 5, 96
1, 0, Start_track
1, 0, Key_signature, -1, "major"
1, 0, Time_signature, 4, 2, 24, 8
1, 0, Tempo, 599704
1, 43680, Tempo, 666337
1, 43776, Tempo, 599704
1, 73488, Tempo, 666337
1, 73680, Tempo, 799605
1, 73824, Tempo, 999506
1, 73920, Tempo, 599704
1, 88992, Tempo, 666337
1, 89088, Tempo, 599704
1, 91536, Tempo, 666337
1, 91680, Tempo, 799605
1, 91776, End_track
2, 0, Start_track
2, 0, Program_c, 0, 5
2, 5952, Note_on_c, 0, 69, 88
2, 6144, Note_on_c, 0, 69, 0
2, 6144, Note_on_c, 0, 74, 88
2, 6432, Note_on_c, 0, 74, 0
2, 6432, Note_on_c, 0, 74, 88
2, 6528, Note_on_c, 0, 74, 0
2, 6528, Note_on_c, 0, 72, 88
2, 6912, Note_on_c, 0, 72, 0
2, 6912, Note_on_c, 0, 74, 88
2, 7296, Note_on_c, 0, 74, 0
2, 7296, Note_on_c, 0, 76, 88
2, 7680, Note_on_c, 0, 76, 0
2, 7680, Note_on_c, 0, 69, 88
2, 7968, Note_on_c, 0, 69, 0
2, 7968, Note_on_c, 0, 71, 88
2, 8064, Note_on_c, 0, 71, 0
2, 8064, Note_on_c, 0, 72, 88
2, 8352, Note_on_c, 0, 72, 0
2, 8352, Note_on_c, 0, 74, 72
2, 8448, Note_on_c, 0, 74, 0
2, 8448, Note_on_c, 0, 67, 72
2, 8640, Note_on_c, 0, 67, 0
2, 8640, Note_on_c, 0, 66, 72
2, 8832, Note_on_c, 0, 66, 0
2, 8832, Note_on_c, 0, 67, 72
2, 9024, Note_on_c, 0, 67, 0
2, 9024, Note_on_c, 0, 68, 72
2, 9216, Note_on_c, 0, 68, 0
2, 9216, Note_on_c, 0, 69, 72
2, 9264, Note_on_c, 0, 69, 0
2, 9264, Note_on_c, 0, 72, 72
2, 9360, Note_on_c, 0, 72, 0
2, 9360, Note_on_c, 0, 71, 72
2, 9408, Note_on_c, 0, 71, 0
2, 9408, Note_on_c, 0, 72, 72
2, 9600, Note_on_c, 0, 72, 0
2, 9600, Note_on_c, 0, 72, 72
2, 9696, Note_on_c, 0, 72, 0
2, 9696, Note_on_c, 0, 71, 72
2, 9744, Note_on_c, 0, 71, 0
2, 9744, Note_on_c, 0, 69, 72
2, 9792, Note_on_c, 0, 69, 0
2, 9792, Note_on_c, 0, 71, 72
2, 9984, Note_on_c, 0, 71, 0
2, 9984, Note_on_c, 0, 72, 72
2, 10080, Note_on_c, 0, 72, 0
2, 10080, Note_on_c, 0, 70, 72
2, 10176, Note_on_c, 0, 70, 0
2, 10176, Note_on_c, 0, 69, 72
2, 10272, Note_on_c, 0, 69, 0
2, 10272, Note_on_c, 0, 67, 72
2, 10368, Note_on_c, 0, 67, 0
2, 10368, Note_on_c, 0, 66, 72
2, 10656, Note_on_c, 0, 66, 0
2, 10656, Note_on_c, 0, 67, 72
2, 10704, Note_on_c, 0, 67, 0
2, 10704, Note_on_c, 0, 69, 72
2, 10752, Note_on_c, 0, 69, 0
2, 10752, Note_on_c, 0, 67, 72
2, 11040, Note_on_c, 0, 67, 0
2, 11040, Note_on_c, 0, 69, 72
2, 11088, Note_on_c, 0, 69, 0
2, 11088, Note_on_c, 0, 70, 72
2, 11136, Note_on_c, 0, 70, 0
2, 11136, Note_on_c, 0, 72, 72
2, 11520, Note_on_c, 0, 72, 0
2, 11520, Note_on_c, 0, 72, 72
2, 11616, Note_on_c, 0, 72, 0
2, 11616, Note_on_c, 0, 70, 72
2, 11664, Note_on_c, 0, 70, 0
2, 11664, Note_on_c, 0, 69, 72
2, 11712, Note_on_c, 0, 69, 0
2, 11712, Note_on_c, 0, 70, 72
2, 11904, Note_on_c, 0, 70, 0
2, 11904, Note_on_c, 0, 69, 72
2, 12000, Note_on_c, 0, 69, 0
2, 12000, Note_on_c, 0, 71, 72
2, 12048, Note_on_c, 0, 71, 0
2, 12048, Note_on_c, 0, 73, 72
2, 12096, Note_on_c, 0, 73, 0
2, 12096, Note_on_c, 0, 74, 72
2, 12288, Note_on_c, 0, 74, 0
2, 12288, Note_on_c, 0, 74, 72
2, 12384, Note_on_c, 0, 74, 0
2, 12384, Note_on_c, 0, 76, 72
2, 12432, Note_on_c, 0, 76, 0
2, 12432, Note_on_c, 0, 74, 72
2, 12480, Note_on_c, 0, 74, 0
2, 12480, Note_on_c, 0, 73, 72
2, 12672, Note_on_c, 0, 73, 0
2, 12672, Note_on_c, 0, 74, 72
2, 12768, Note_on_c, 0, 74, 0
2, 12768, Note_on_c, 0, 72, 72
2, 12960, Note_on_c, 0, 72, 0
2, 12960, Note_on_c, 0, 71, 72
2, 13056, Note_on_c, 0, 71, 0
2, 13056, Note_on_c, 0, 73, 72
2, 13248, Note_on_c, 0, 73, 0
2, 13248, Note_on_c, 0, 74, 72
2, 13440, Note_on_c, 0, 74, 0
2, 13440, Note_on_c, 0, 74, 72
2, 13632, Note_on_c, 0, 74, 0
2, 13632, Note_on_c, 0, 73, 72
2, 13824, Note_on_c, 0, 73, 0
2, 13824, Note_on_c, 0, 74, 88
2, 14016, Note_on_c, 0, 74, 0
2, 14016, Note_on_c, 0, 69, 88
2, 14208, Note_on_c, 0, 69, 0
2, 14208, Note_on_c, 0, 74, 88
2, 14496, Note_on_c, 0, 74, 0
2, 14496, Note_on_c, 0, 74, 88
2, 14592, Note_on_c, 0, 74, 0
2, 14592, Note_on_c, 0, 72, 88
2, 14976, Note_on_c, 0, 72, 0
2, 14976, Note_on_c, 0, 74, 88
2, 15360, Note_on_c, 0, 74, 0
2, 15360, Note_on_c, 0, 76, 88
2, 15744, Note_on_c, 0, 76, 0
2, 15744, Note_on_c, 0, 69, 88
2, 15840, Note_on_c, 0, 69, 0
2, 15840, Note_on_c, 0, 71, 72
2, 15936, Note_on_c, 0, 71, 0
2, 15936, Note_on_c, 0, 69, 72
2, 16128, Note_on_c, 0, 69, 0
2, 16128, Note_on_c, 0, 69, 72
2, 16416, Note_on_c, 0, 69, 0
2, 16416, Note_on_c, 0, 71, 72
2, 16512, Note_on_c, 0, 71, 0
2, 16512, Note_on_c, 0, 72, 72
2, 16608, Note_on_c, 0, 72, 0
2, 16608, Note_on_c, 0, 67, 72
2, 16704, Note_on_c, 0, 67, 0
2, 16704, Note_on_c, 0, 72, 72
2, 16896, Note_on_c, 0, 72, 0
2, 16896, Note_on_c, 0, 72, 72
2, 17184, Note_on_c, 0, 72, 0
2, 17184, Note_on_c, 0, 69, 72
2, 17280, Note_on_c, 0, 69, 0
2, 17280, Note_on_c, 0, 74, 72
2, 17664, Note_on_c, 0, 74, 0
2, 17664, Note_on_c, 0, 74, 72
2, 17760, Note_on_c, 0, 74, 0
2, 17760, Note_on_c, 0, 67, 72
2, 17856, Note_on_c, 0, 67, 0
2, 17856, Note_on_c, 0, 72, 72
2, 17952, Note_on_c, 0, 72, 0
2, 17952, Note_on_c, 0, 70, 72
2, 18048, Note_on_c, 0, 70, 0
2, 18048, Note_on_c, 0, 69, 72
2, 18144, Note_on_c, 0, 69, 0
2, 18144, Note_on_c, 0, 67, 72
2, 18240, Note_on_c, 0, 67, 0
2, 18240, Note_on_c, 0, 69, 72
2, 18432, Note_on_c, 0, 69, 0
2, 18432, Note_on_c, 0, 69, 72
2, 18624, Note_on_c, 0, 69, 0
2, 18624, Note_on_c, 0, 67, 72
2, 18720, Note_on_c, 0, 67, 0
2, 18720, Note_on_c, 0, 65, 72
2, 18816, Note_on_c, 0, 65, 0
2, 18816, Note_on_c, 0, 64, 72
2, 18912, Note_on_c, 0, 64, 0
2, 18912, Note_on_c, 0, 62, 72
2, 19008, Note_on_c, 0, 62, 0
2, 19008, Note_on_c, 0, 63, 72
2, 19200, Note_on_c, 0, 63, 0
2, 19200, Note_on_c, 0, 63, 72
2, 19392, Note_on_c, 0, 63, 0
2, 19392, Note_on_c, 0, 62, 72
2, 19584, Note_on_c, 0, 62, 0
2, 19584, Note_on_c, 0, 62, 72
2, 19872, Note_on_c, 0, 62, 0
2, 19872, Note_on_c, 0, 62, 72
2, 19968, Note_on_c, 0, 62, 0
2, 19968, Note_on_c, 0, 67, 72
2, 20064, Note_on_c, 0, 67, 0
2, 20064, Note_on_c, 0, 65, 72
2, 20160, Note_on_c, 0, 65, 0
2, 20160, Note_on_c, 0, 64, 72
2, 20256, Note_on_c, 0, 64, 0
2, 20256, Note_on_c, 0, 67, 72
2, 20352, Note_on_c, 0, 67, 0
2, 20352, Note_on_c, 0, 72, 72
2, 20640, Note_on_c, 0, 72, 0
2, 20640, Note_on_c, 0, 72, 72
2, 20736, Note_on_c, 0, 72, 0
2, 20736, Note_on_c, 0, 77, 72
2, 20832, Note_on_c, 0, 77, 0
2, 20832, Note_on_c, 0, 76, 72
2, 20928, Note_on_c, 0, 76, 0
2, 20928, Note_on_c, 0, 74, 72
2, 21024, Note_on_c, 0, 74, 0
2, 21024, Note_on_c, 0, 72, 72
2, 21120, Note_on_c, 0, 72, 0
2, 21120, Note_on_c, 0, 71, 72
2, 21312, Note_on_c, 0, 71, 0
2, 21312, Note_on_c, 0, 73, 72
2, 21504, Note_on_c, 0, 73, 0
2, 21504, Note_on_c, 0, 74, 72
2, 21792, Note_on_c, 0, 74, 0
2, 21792, Note_on_c, 0, 72, 72
2, 21840, Note_on_c, 0, 72, 0
2, 21840, Note_on_c, 0, 74, 72
2, 21888, Note_on_c, 0, 74, 0
2, 21888, Note_on_c, 0, 76, 72
2, 21984, Note_on_c, 0, 76, 0
2, 21984, Note_on_c, 0, 81, 72
2, 22176, Note_on_c, 0, 81, 0
2, 22176, Note_on_c, 0, 74, 72
2, 22272, Note_on_c, 0, 74, 0
2, 22272, Note_on_c, 0, 74, 72
2, 22368, Note_on_c, 0, 74, 0
2, 22368, Note_on_c, 0, 79, 72
2, 22560, Note_on_c, 0, 79, 0
2, 22560, Note_on_c, 0, 72, 72
2, 22656, Note_on_c, 0, 72, 0
2, 22656, Note_on_c, 0, 72, 72
2, 22752, Note_on_c, 0, 72, 0
2, 22752, Note_on_c, 0, 71, 72
2, 22944, Note_on_c, 0, 71, 0
2, 22944, Note_on_c, 0, 70, 72
2, 23040, Note_on_c, 0, 70, 0
2, 23040, Note_on_c, 0, 69, 72
2, 23232, Note_on_c, 0, 69, 0
2, 23616, Note_on_c, 0, 69, 88
2, 23808, Note_on_c, 0, 69, 0
2, 23808, Note_on_c, 0, 74, 88
2, 24096, Note_on_c, 0, 74, 0
2, 24096, Note_on_c, 0, 72, 88
2, 24192, Note_on_c, 0, 72, 0
2, 24192, Note_on_c, 0, 70, 88
2, 24576, Note_on_c, 0, 70, 0
2, 24576, Note_on_c, 0, 72, 88
2, 24960, Note_on_c, 0, 72, 0
2, 24960, Note_on_c, 0, 74, 88
2, 25344, Note_on_c, 0, 74, 0
2, 25344, Note_on_c, 0, 67, 88
2, 25536, Note_on_c, 0, 67, 0
2, 25536, Note_on_c, 0, 69, 72
2, 25632, Note_on_c, 0, 69, 0
2, 25632, Note_on_c, 0, 70, 72
2, 25728, Note_on_c, 0, 70, 0
2, 25728, Note_on_c, 0, 72, 72
2, 25824, Note_on_c, 0, 72, 0
2, 25824, Note_on_c, 0, 67, 72
2, 25920, Note_on_c, 0, 67, 0
2, 25920, Note_on_c, 0, 72, 72
2, 26016, Note_on_c, 0, 72, 0
2, 26016, Note_on_c, 0, 70, 72
2, 26112, Note_on_c, 0, 70, 0
2, 26112, Note_on_c, 0, 69, 72
2, 26208, Note_on_c, 0, 69, 0
2, 26208, Note_on_c, 0, 65, 72
2, 26304, Note_on_c, 0, 65, 0
2, 26304, Note_on_c, 0, 70, 72
2, 26496, Note_on_c, 0, 70, 0
2, 26496, Note_on_c, 0, 70, 72
2, 26688, Note_on_c, 0, 70, 0
2, 26688, Note_on_c, 0, 69, 72
2, 26880, Note_on_c, 0, 69, 0
2, 26880, Note_on_c, 0, 70, 72
2, 27072, Note_on_c, 0, 70, 0
2, 27072, Note_on_c, 0, 68, 72
2, 27264, Note_on_c, 0, 68, 0
2, 27264, Note_on_c, 0, 68, 72
2, 27360, Note_on_c, 0, 68, 0
2, 27360, Note_on_c, 0, 67, 72
2, 27408, Note_on_c, 0, 67, 0
2, 27408, Note_on_c, 0, 65, 72
2, 27456, Note_on_c, 0, 65, 0
2, 27456, Note_on_c, 0, 67, 72
2, 27552, Note_on_c, 0, 67, 0
2, 27552, Note_on_c, 0, 69, 72
2, 27648, Note_on_c, 0, 69, 0
2, 27648, Note_on_c, 0, 70, 72
2, 27744, Note_on_c, 0, 70, 0
2, 27744, Note_on_c, 0, 65, 72
2, 27840, Note_on_c, 0, 65, 0
2, 27840, Note_on_c, 0, 70, 72
2, 28032, Note_on_c, 0, 70, 0
2, 28032, Note_on_c, 0, 69, 72
2, 28080, Note_on_c, 0, 69, 0
2, 28080, Note_on_c, 0, 70, 72
2, 28128, Note_on_c, 0, 70, 0
2, 28128, Note_on_c, 0, 72, 72
2, 28176, Note_on_c, 0, 72, 0
2, 28176, Note_on_c, 0, 74, 72
2, 28224, Note_on_c, 0, 74, 0
2, 28224, Note_on_c, 0, 75, 72
2, 28272, Note_on_c, 0, 75, 0
2, 28272, Note_on_c, 0, 69, 72
2, 28320, Note_on_c, 0, 69, 0
2, 28320, Note_on_c, 0, 67, 72
2, 28368, Note_on_c, 0, 67, 0
2, 28368, Note_on_c, 0, 66, 72
2, 28416, Note_on_c, 0, 66, 0
2, 28416, Note_on_c, 0, 67, 72
2, 28704, Note_on_c, 0, 67, 0
2, 28704, Note_on_c, 0, 69, 72
2, 28752, Note_on_c, 0, 69, 0
2, 28752, Note_on_c, 0, 70, 72
2, 28800, Note_on_c, 0, 70, 0
2, 28800, Note_on_c, 0, 69, 72
2, 28896, Note_on_c, 0, 69, 0
2, 28896, Note_on_c, 0, 70, 72
2, 28944, Note_on_c, 0, 70, 0
2, 28944, Note_on_c, 0, 72, 72
2, 28992, Note_on_c, 0, 72, 0
2, 28992, Note_on_c, 0, 70, 72
2, 29184, Note_on_c, 0, 70, 0
2, 29184, Note_on_c, 0, 70, 72
2, 29280, Note_on_c, 0, 70, 0
2, 29280, Note_on_c, 0, 69, 72
2, 29328, Note_on_c, 0, 69, 0
2, 29328, Note_on_c, 0, 70, 72
2, 29376, Note_on_c, 0, 70, 0
2, 29376, Note_on_c, 0, 72, 72
2, 29568, Note_on_c, 0, 72, 0
2, 29568, Note_on_c, 0, 72, 72
2, 29664, Note_on_c, 0, 72, 0
2, 29664, Note_on_c, 0, 74, 72
2, 29712, Note_on_c, 0, 74, 0
2, 29712, Note_on_c, 0, 72, 72
2, 29760, Note_on_c, 0, 72, 0
2, 29760, Note_on_c, 0, 70, 72
2, 29952, Note_on_c, 0, 70, 0
2, 29952, Note_on_c, 0, 69, 72
2, 30144, Note_on_c, 0, 69, 0
2, 30144, Note_on_c, 0, 81, 88
2, 30336, Note_on_c, 0, 81, 0
2, 30336, Note_on_c, 0, 74, 88
2, 30624, Note_on_c, 0, 74, 0
2, 30624, Note_on_c, 0, 76, 88
2, 30720, Note_on_c, 0, 76, 0
2, 30720, Note_on_c, 0, 77, 88
2, 31104, Note_on_c, 0, 77, 0
2, 31104, Note_on_c, 0, 76, 88
2, 31488, Note_on_c, 0, 76, 0
2, 31488, Note_on_c, 0, 74, 88
2, 31872, Note_on_c, 0, 74, 0
2, 31872, Note_on_c, 0, 79, 88
2, 32256, Note_on_c, 0, 79, 0
2, 32256, Note_on_c, 0, 79, 88
2, 32448, Note_on_c, 0, 79, 0
2, 32448, Note_on_c, 0, 78, 72
2, 32640, Note_on_c, 0, 78, 0
2, 32640, Note_on_c, 0, 79, 72
2, 32736, Note_on_c, 0, 79, 0
2, 32736, Note_on_c, 0, 77, 72
2, 32784, Note_on_c, 0, 77, 0
2, 32784, Note_on_c, 0, 75, 72
2, 32832, Note_on_c, 0, 75, 0
2, 32832, Note_on_c, 0, 74, 72
2, 32928, Note_on_c, 0, 74, 0
2, 32928, Note_on_c, 0, 75, 72
2, 33024, Note_on_c, 0, 75, 0
2, 33024, Note_on_c, 0, 77, 72
2, 33312, Note_on_c, 0, 77, 0
2, 33312, Note_on_c, 0, 75, 72
2, 33360, Note_on_c, 0, 75, 0
2, 33360, Note_on_c, 0, 74, 72
2, 33408, Note_on_c, 0, 74, 0
2, 33408, Note_on_c, 0, 72, 72
2, 33504, Note_on_c, 0, 72, 0
2, 33504, Note_on_c, 0, 74, 72
2, 33600, Note_on_c, 0, 74, 0
2, 33600, Note_on_c, 0, 75, 72
2, 33696, Note_on_c, 0, 75, 0
2, 33696, Note_on_c, 0, 77, 72
2, 33792, Note_on_c, 0, 77, 0
2, 33792, Note_on_c, 0, 79, 72
2, 33888, Note_on_c, 0, 79, 0
2, 33888, Note_on_c, 0, 77, 72
2, 33936, Note_on_c, 0, 77, 0
2, 33936, Note_on_c, 0, 75, 72
2, 33984, Note_on_c, 0, 75, 0
2, 33984, Note_on_c, 0, 74, 72
2, 34080, Note_on_c, 0, 74, 0
2, 34080, Note_on_c, 0, 75, 72
2, 34128, Note_on_c, 0, 75, 0
2, 34128, Note_on_c, 0, 74, 72
2, 34176, Note_on_c, 0, 74, 0
2, 34176, Note_on_c, 0, 72, 72
2, 34464, Note_on_c, 0, 72, 0
2, 34464, Note_on_c, 0, 74, 72
2, 34512, Note_on_c, 0, 74, 0
2, 34512, Note_on_c, 0, 75, 72
2, 34560, Note_on_c, 0, 75, 0
2, 34560, Note_on_c, 0, 77, 72
2, 34944, Note_on_c, 0, 77, 0
2, 34944, Note_on_c, 0, 77, 72
2, 35040, Note_on_c, 0, 77, 0
2, 35040, Note_on_c, 0, 75, 72
2, 35088, Note_on_c, 0, 75, 0
2, 35088, Note_on_c, 0, 74, 72
2, 35136, Note_on_c, 0, 74, 0
2, 35136, Note_on_c, 0, 72, 72
2, 35232, Note_on_c, 0, 72, 0
2, 35232, Note_on_c, 0, 70, 72
2, 35328, Note_on_c, 0, 70, 0
2, 35328, Note_on_c, 0, 69, 72
2, 35424, Note_on_c, 0, 69, 0
2, 35424, Note_on_c, 0, 81, 72
2, 35472, Note_on_c, 0, 81, 0
2, 35472, Note_on_c, 0, 79, 72
2, 35520, Note_on_c, 0, 79, 0
2, 35520, Note_on_c, 0, 77, 72
2, 35616, Note_on_c, 0, 77, 0
2, 35616, Note_on_c, 0, 75, 72
2, 35712, Note_on_c, 0, 75, 0
2, 35712, Note_on_c, 0, 75, 72
2, 35808, Note_on_c, 0, 75, 0
2, 35808, Note_on_c, 0, 74, 72
2, 36000, Note_on_c, 0, 74, 0
2, 36000, Note_on_c, 0, 72, 72
2, 36048, Note_on_c, 0, 72, 0
2, 36048, Note_on_c, 0, 70, 72
2, 36096, Note_on_c, 0, 70, 0
2, 36096, Note_on_c, 0, 69, 72
2, 36192, Note_on_c, 0, 69, 0
2, 36192, Note_on_c, 0, 67, 72
2, 36288, Note_on_c, 0, 67, 0
2, 36288, Note_on_c, 0, 69, 72
2, 36480, Note_on_c, 0, 69, 0
2, 36480, Note_on_c, 0, 70, 72
2, 36864, Note_on_c, 0, 70, 0
2, 36864, Note_on_c, 0, 70, 72
2, 36960, Note_on_c, 0, 70, 0
2, 36960, Note_on_c, 0, 69, 72
2, 37008, Note_on_c, 0, 69, 0
2, 37008, Note_on_c, 0, 70, 72
2, 37056, Note_on_c, 0, 70, 0
2, 37056, Note_on_c, 0, 72, 72
2, 37248, Note_on_c, 0, 72, 0
2, 37248, Note_on_c, 0, 72, 72
2, 37344, Note_on_c, 0, 72, 0
2, 37344, Note_on_c, 0, 81, 88
2, 37440, Note_on_c, 0, 81, 0
2, 37440, Note_on_c, 0, 74, 88
2, 37632, Note_on_c, 0, 74, 0
2, 37632, Note_on_c, 0, 74, 88
2, 37728, Note_on_c, 0, 74, 0
2, 37728, Note_on_c, 0, 76, 88
2, 37824, Note_on_c, 0, 76, 0
2, 37824, Note_on_c, 0, 77, 88
2, 38016, Note_on_c, 0, 77, 0
2, 38016, Note_on_c, 0, 77, 88
2, 38208, Note_on_c, 0, 77, 0
2, 38208, Note_on_c, 0, 76, 88
2, 38400, Note_on_c, 0, 76, 0
2, 38400, Note_on_c, 0, 76, 88
2, 38496, Note_on_c, 0, 76, 0
2, 38496, Note_on_c, 0, 74, 88
2, 38544, Note_on_c, 0, 74, 0
2, 38544, Note_on_c, 0, 73, 88
2, 38592, Note_on_c, 0, 73, 0
2, 38592, Note_on_c, 0, 74, 88
2, 38784, Note_on_c, 0, 74, 0
2, 38784, Note_on_c, 0, 74, 88
2, 38976, Note_on_c, 0, 74, 0
2, 38976, Note_on_c, 0, 79, 88
2, 39168, Note_on_c, 0, 79, 0
2, 39168, Note_on_c, 0, 79, 88
2, 39360, Note_on_c, 0, 79, 0
2, 39360, Note_on_c, 0, 77, 72
2, 39552, Note_on_c, 0, 77, 0
2, 39552, Note_on_c, 0, 77, 72
2, 39744, Note_on_c, 0, 77, 0
2, 39744, Note_on_c, 0, 76, 72
2, 39840, Note_on_c, 0, 76, 0
2, 39840, Note_on_c, 0, 74, 72
2, 39936, Note_on_c, 0, 74, 0
2, 39936, Note_on_c, 0, 73, 72
2, 40128, Note_on_c, 0, 73, 0
2, 40128, Note_on_c, 0, 74, 72
2, 40320, Note_on_c, 0, 74, 0
2, 40320, Note_on_c, 0, 74, 72
2, 40512, Note_on_c, 0, 74, 0
2, 40512, Note_on_c, 0, 73, 72
2, 40704, Note_on_c, 0, 73, 0
2, 40704, Note_on_c, 0, 74, 72
2, 40800, Note_on_c, 0, 74, 0
2, 40800, Note_on_c, 0, 69, 72
2, 40896, Note_on_c, 0, 69, 0
2, 40896, Note_on_c, 0, 74, 72
2, 40992, Note_on_c, 0, 74, 0
2, 40992, Note_on_c, 0, 72, 72
2, 41088, Note_on_c, 0, 72, 0
2, 41088, Note_on_c, 0, 70, 72
2, 41472, Note_on_c, 0, 70, 0
2, 41472, Note_on_c, 0, 70, 72
2, 41520, Note_on_c, 0, 70, 0
2, 41520, Note_on_c, 0, 69, 72
2, 41568, Note_on_c, 0, 69, 0
2, 41568, Note_on_c, 0, 76, 72
2, 41664, Note_on_c, 0, 76, 0
2, 41664, Note_on_c, 0, 81, 72
2, 41760, Note_on_c, 0, 81, 0
2, 41760, Note_on_c, 0, 79, 72
2, 41856, Note_on_c, 0, 79, 0
2, 41856, Note_on_c, 0, 79, 72
2, 41952, Note_on_c, 0, 79, 0
2, 41952, Note_on_c, 0, 77, 72
2, 42000, Note_on_c, 0, 77, 0
2, 42000, Note_on_c, 0, 76, 72
2, 42048, Note_on_c, 0, 76, 0
2, 42048, Note_on_c, 0, 77, 72
2, 42144, Note_on_c, 0, 77, 0
2, 42144, Note_on_c, 0, 74, 72
2, 42240, Note_on_c, 0, 74, 0
2, 42240, Note_on_c, 0, 82, 72
2, 42624, Note_on_c, 0, 82, 0
2, 42624, Note_on_c, 0, 76, 72
2, 42816, Note_on_c, 0, 76, 0
2, 42816, Note_on_c, 0, 74, 72
2, 43008, Note_on_c, 0, 74, 0
2, 43008, Note_on_c, 0, 74, 72
2, 43200, Note_on_c, 0, 74, 0
2, 43200, Note_on_c, 0, 73, 72
2, 43392, Note_on_c, 0, 73, 0
2, 43392, Note_on_c, 0, 74, 72
2, 43488, Note_on_c, 0, 74, 0
2, 43488, Note_on_c, 0, 69, 72
2, 43680, Note_on_c, 0, 69, 0
2, 43680, Note_on_c, 0, 67, 72
2, 43776, Note_on_c, 0, 67, 0
2, 43776, Note_on_c, 0, 65, 72
2, 43872, Note_on_c, 0, 65, 0
2, 46176, Note_on_c, 0, 72, 72
2, 46224, Note_on_c, 0, 72, 0
2, 46224, Note_on_c, 0, 74, 72
2, 46272, Note_on_c, 0, 74, 0
2, 46272, Note_on_c, 0, 72, 72
2, 46320, Note_on_c, 0, 72, 0
2, 46320, Note_on_c, 0, 71, 72
2, 46368, Note_on_c, 0, 71, 0
2, 46368, Note_on_c, 0, 69, 72
2, 46416, Note_on_c, 0, 69, 0
2, 46416, Note_on_c, 0, 68, 72
2, 46464, Note_on_c, 0, 68, 0
2, 46464, Note_on_c, 0, 69, 72
2, 46512, Note_on_c, 0, 69, 0
2, 46512, Note_on_c, 0, 64, 72
2, 46560, Note_on_c, 0, 64, 0
2, 46560, Note_on_c, 0, 69, 72
2, 46608, Note_on_c, 0, 69, 0
2, 46608, Note_on_c, 0, 71, 72
2, 46656, Note_on_c, 0, 71, 0
2, 46656, Note_on_c, 0, 72, 72
2, 46704, Note_on_c, 0, 72, 0
2, 46704, Note_on_c, 0, 71, 72
2, 46752, Note_on_c, 0, 71, 0
2, 46752, Note_on_c, 0, 69, 72
2, 46800, Note_on_c, 0, 69, 0
2, 46800, Note_on_c, 0, 72, 72
2, 46848, Note_on_c, 0, 72, 0
2, 46848, Note_on_c, 0, 71, 72
2, 46896, Note_on_c, 0, 71, 0
2, 46896, Note_on_c, 0, 64, 72
2, 46944, Note_on_c, 0, 64, 0
2, 46944, Note_on_c, 0, 71, 72
2, 46992, Note_on_c, 0, 71, 0
2, 46992, Note_on_c, 0, 72, 72
2, 47040, Note_on_c, 0, 72, 0
2, 47040, Note_on_c, 0, 74, 72
2, 47088, Note_on_c, 0, 74, 0
2, 47088, Note_on_c, 0, 72, 72
2, 47112, Note_on_c, 0, 72, 0
2, 47112, Note_on_c, 0, 71, 72
2, 47136, Note_on_c, 0, 71, 0
2, 47136, Note_on_c, 0, 72, 72
2, 47184, Note_on_c, 0, 72, 0
2, 47184, Note_on_c, 0, 74, 72
2, 47232, Note_on_c, 0, 74, 0
2, 47232, Note_on_c, 0, 76, 72
2, 47280, Note_on_c, 0, 76, 0
2, 47280, Note_on_c, 0, 74, 72
2, 47328, Note_on_c, 0, 74, 0
2, 47328, Note_on_c, 0, 72, 72
2, 47376, Note_on_c, 0, 72, 0
2, 47376, Note_on_c, 0, 74, 72
2, 47424, Note_on_c, 0, 74, 0
2, 47424, Note_on_c, 0, 76, 72
2, 47616, Note_on_c, 0, 76, 0
2, 47616, Note_on_c, 0, 76, 72
2, 47664, Note_on_c, 0, 76, 0
2, 47664, Note_on_c, 0, 74, 72
2, 47688, Note_on_c, 0, 74, 0
2, 47688, Note_on_c, 0, 73, 72
2, 47712, Note_on_c, 0, 73, 0
2, 47712, Note_on_c, 0, 74, 72
2, 47760, Note_on_c, 0, 74, 0
2, 47760, Note_on_c, 0, 76, 72
2, 47808, Note_on_c, 0, 76, 0
2, 47808, Note_on_c, 0, 77, 72
2, 48000, Note_on_c, 0, 77, 0
2, 48000, Note_on_c, 0, 77, 72
2, 48048, Note_on_c, 0, 77, 0
2, 48048, Note_on_c, 0, 76, 72
2, 48096, Note_on_c, 0, 76, 0
2, 48096, Note_on_c, 0, 74, 72
2, 48144, Note_on_c, 0, 74, 0
2, 48144, Note_on_c, 0, 72, 72
2, 48192, Note_on_c, 0, 72, 0
2, 48192, Note_on_c, 0, 71, 72
2, 48240, Note_on_c, 0, 71, 0
2, 48240, Note_on_c, 0, 69, 72
2, 48288, Note_on_c, 0, 69, 0
2, 48288, Note_on_c, 0, 71, 72
2, 48336, Note_on_c, 0, 71, 0
2, 48336, Note_on_c, 0, 74, 72
2, 48384, Note_on_c, 0, 74, 0
2, 48384, Note_on_c, 0, 72, 72
2, 48432, Note_on_c, 0, 72, 0
2, 48432, Note_on_c, 0, 81, 72
2, 48480, Note_on_c, 0, 81, 0
2, 48480, Note_on_c, 0, 79, 72
2, 48528, Note_on_c, 0, 79, 0
2, 48528, Note_on_c, 0, 77, 72
2, 48576, Note_on_c, 0, 77, 0
2, 48576, Note_on_c, 0, 76, 72
2, 48624, Note_on_c, 0, 76, 0
2, 48624, Note_on_c, 0, 74, 72
2, 48672, Note_on_c, 0, 74, 0
2, 48672, Note_on_c, 0, 76, 72
2, 48720, Note_on_c, 0, 76, 0
2, 48720, Note_on_c, 0, 79, 72
2, 48768, Note_on_c, 0, 79, 0
2, 48768, Note_on_c, 0, 77, 72
2, 48816, Note_on_c, 0, 77, 0
2, 48816, Note_on_c, 0, 76, 72
2, 48864, Note_on_c, 0, 76, 0
2, 48864, Note_on_c, 0, 74, 72
2, 48912, Note_on_c, 0, 74, 0
2, 48912, Note_on_c, 0, 73, 72
2, 48960, Note_on_c, 0, 73, 0
2, 48960, Note_on_c, 0, 74, 72
2, 49056, Note_on_c, 0, 74, 0
2, 49056, Note_on_c, 0, 76, 72
2, 49152, Note_on_c, 0, 76, 0
2, 49152, Note_on_c, 0, 69, 72
2, 49440, Note_on_c, 0, 69, 0
2, 49440, Note_on_c, 0, 71, 72
2, 49536, Note_on_c, 0, 71, 0
2, 49536, Note_on_c, 0, 72, 72
2, 49632, Note_on_c, 0, 72, 0
2, 49632, Note_on_c, 0, 73, 72
2, 49824, Note_on_c, 0, 73, 0
2, 49824, Note_on_c, 0, 74, 72
2, 49872, Note_on_c, 0, 74, 0
2, 49872, Note_on_c, 0, 76, 72
2, 49920, Note_on_c, 0, 76, 0
2, 49920, Note_on_c, 0, 77, 72
2, 49968, Note_on_c, 0, 77, 0
2, 49968, Note_on_c, 0, 82, 72
2, 50016, Note_on_c, 0, 82, 0
2, 50016, Note_on_c, 0, 81, 72
2, 50064, Note_on_c, 0, 81, 0
2, 50064, Note_on_c, 0, 79, 72
2, 50112, Note_on_c, 0, 79, 0
2, 50112, Note_on_c, 0, 77, 72
2, 50160, Note_on_c, 0, 77, 0
2, 50160, Note_on_c, 0, 76, 72
2, 50208, Note_on_c, 0, 76, 0
2, 50208, Note_on_c, 0, 74, 72
2, 50256, Note_on_c, 0, 74, 0
2, 50256, Note_on_c, 0, 72, 72
2, 50304, Note_on_c, 0, 72, 0
2, 50304, Note_on_c, 0, 70, 72
2, 50352, Note_on_c, 0, 70, 0
2, 50352, Note_on_c, 0, 84, 72
2, 50400, Note_on_c, 0, 84, 0
2, 50400, Note_on_c, 0, 82, 72
2, 50448, Note_on_c, 0, 82, 0
2, 50448, Note_on_c, 0, 81, 72
2, 50496, Note_on_c, 0, 81, 0
2, 50496, Note_on_c, 0, 79, 72
2, 50544, Note_on_c, 0, 79, 0
2, 50544, Note_on_c, 0, 77, 72
2, 50592, Note_on_c, 0, 77, 0
2, 50592, Note_on_c, 0, 76, 72
2, 50640, Note_on_c, 0, 76, 0
2, 50640, Note_on_c, 0, 74, 72
2, 50688, Note_on_c, 0, 74, 0
2, 50688, Note_on_c, 0, 73, 72
2, 50784, Note_on_c, 0, 73, 0
2, 50784, Note_on_c, 0, 74, 72
2, 50976, Note_on_c, 0, 74, 0
2, 50976, Note_on_c, 0, 73, 72
2, 51072, Note_on_c, 0, 73, 0
2, 51072, Note_on_c, 0, 74, 72
2, 51168, Note_on_c, 0, 74, 0
2, 51168, Note_on_c, 0, 76, 72
2, 51264, Note_on_c, 0, 76, 0
2, 51264, Note_on_c, 0, 77, 72
2, 51456, Note_on_c, 0, 77, 0
2, 51456, Note_on_c, 0, 76, 72
2, 51552, Note_on_c, 0, 76, 0
2, 51552, Note_on_c, 0, 81, 72
2, 51648, Note_on_c, 0, 81, 0
2, 51648, Note_on_c, 0, 76, 72
2, 51744, Note_on_c, 0, 76, 0
2, 51744, Note_on_c, 0, 74, 72
2, 51840, Note_on_c, 0, 74, 0
2, 51840, Note_on_c, 0, 74, 72
2, 51936, Note_on_c, 0, 74, 0
2, 51936, Note_on_c, 0, 72, 72
2, 51984, Note_on_c, 0, 72, 0
2, 51984, Note_on_c, 0, 74, 72
2, 52032, Note_on_c, 0, 74, 0
2, 52032, Note_on_c, 0, 76, 72
2, 52128, Note_on_c, 0, 76, 0
2, 52128, Note_on_c, 0, 77, 72
2, 52224, Note_on_c, 0, 77, 0
2, 52224, Note_on_c, 0, 77, 72
2, 52320, Note_on_c, 0, 77, 0
2, 52320, Note_on_c, 0, 76, 72
2, 52512, Note_on_c, 0, 76, 0
2, 52512, Note_on_c, 0, 76, 72
2, 52560, Note_on_c, 0, 76, 0
2, 52560, Note_on_c, 0, 71, 72
2, 52608, Note_on_c, 0, 71, 0
2, 52608, Note_on_c, 0, 72, 72
2, 52704, Note_on_c, 0, 72, 0
2, 54192, Note_on_c, 0, 81, 72
2, 54240, Note_on_c, 0, 81, 0
2, 54240, Note_on_c, 0, 79, 72
2, 54288, Note_on_c, 0, 79, 0
2, 54288, Note_on_c, 0, 77, 72
2, 54336, Note_on_c, 0, 77, 0
2, 54336, Note_on_c, 0, 76, 72
2, 54384, Note_on_c, 0, 76, 0
2, 54384, Note_on_c, 0, 74, 72
2, 54432, Note_on_c, 0, 74, 0
2, 54432, Note_on_c, 0, 76, 72
2, 54480, Note_on_c, 0, 76, 0
2, 54480, Note_on_c, 0, 79, 72
2, 54528, Note_on_c, 0, 79, 0
2, 54528, Note_on_c, 0, 78, 72
2, 54624, Note_on_c, 0, 78, 0
2, 54624, Note_on_c, 0, 79, 72
2, 54816, Note_on_c, 0, 79, 0
2, 54816, Note_on_c, 0, 77, 72
2, 54912, Note_on_c, 0, 77, 0
2, 54912, Note_on_c, 0, 77, 72
2, 54960, Note_on_c, 0, 77, 0
2, 54960, Note_on_c, 0, 79, 72
2, 55008, Note_on_c, 0, 79, 0
2, 55008, Note_on_c, 0, 77, 72
2, 55056, Note_on_c, 0, 77, 0
2, 55056, Note_on_c, 0, 76, 72
2, 55104, Note_on_c, 0, 76, 0
2, 55104, Note_on_c, 0, 74, 72
2, 55152, Note_on_c, 0, 74, 0
2, 55152, Note_on_c, 0, 72, 72
2, 55200, Note_on_c, 0, 72, 0
2, 55200, Note_on_c, 0, 74, 72
2, 55248, Note_on_c, 0, 74, 0
2, 55248, Note_on_c, 0, 77, 72
2, 55296, Note_on_c, 0, 77, 0
2, 55296, Note_on_c, 0, 76, 72
2, 55392, Note_on_c, 0, 76, 0
2, 55392, Note_on_c, 0, 77, 72
2, 55584, Note_on_c, 0, 77, 0
2, 55584, Note_on_c, 0, 76, 72
2, 55632, Note_on_c, 0, 76, 0
2, 55632, Note_on_c, 0, 74, 72
2, 55680, Note_on_c, 0, 74, 0
2, 55680, Note_on_c, 0, 76, 72
2, 55776, Note_on_c, 0, 76, 0
2, 56160, Note_on_c, 0, 77, 72
2, 56208, Note_on_c, 0, 77, 0
2, 56208, Note_on_c, 0, 79, 72
2, 56256, Note_on_c, 0, 79, 0
2, 56256, Note_on_c, 0, 77, 72
2, 56304, Note_on_c, 0, 77, 0
2, 56304, Note_on_c, 0, 76, 72
2, 56352, Note_on_c, 0, 76, 0
2, 56352, Note_on_c, 0, 74, 72
2, 56400, Note_on_c, 0, 74, 0
2, 56400, Note_on_c, 0, 73, 72
2, 56448, Note_on_c, 0, 73, 0
2, 56448, Note_on_c, 0, 74, 72
2, 56496, Note_on_c, 0, 74, 0
2, 56496, Note_on_c, 0, 69, 72
2, 56544, Note_on_c, 0, 69, 0
2, 56544, Note_on_c, 0, 74, 72
2, 56592, Note_on_c, 0, 74, 0
2, 56592, Note_on_c, 0, 76, 72
2, 56640, Note_on_c, 0, 76, 0
2, 56640, Note_on_c, 0, 77, 72
2, 56688, Note_on_c, 0, 77, 0
2, 56688, Note_on_c, 0, 76, 72
2, 56736, Note_on_c, 0, 76, 0
2, 56736, Note_on_c, 0, 74, 72
2, 56784, Note_on_c, 0, 74, 0
2, 56784, Note_on_c, 0, 77, 72
2, 56832, Note_on_c, 0, 77, 0
2, 56832, Note_on_c, 0, 76, 72
2, 56880, Note_on_c, 0, 76, 0
2, 56880, Note_on_c, 0, 69, 72
2, 56928, Note_on_c, 0, 69, 0
2, 56928, Note_on_c, 0, 76, 72
2, 56976, Note_on_c, 0, 76, 0
2, 56976, Note_on_c, 0, 77, 72
2, 57024, Note_on_c, 0, 77, 0
2, 57024, Note_on_c, 0, 79, 72
2, 57072, Note_on_c, 0, 79, 0
2, 57072, Note_on_c, 0, 77, 72
2, 57096, Note_on_c, 0, 77, 0
2, 57096, Note_on_c, 0, 76, 72
2, 57120, Note_on_c, 0, 76, 0
2, 57120, Note_on_c, 0, 77, 72
2, 57168, Note_on_c, 0, 77, 0
2, 57168, Note_on_c, 0, 79, 72
2, 57216, Note_on_c, 0, 79, 0
2, 57216, Note_on_c, 0, 81, 72
2, 57264, Note_on_c, 0, 81, 0
2, 57264, Note_on_c, 0, 79, 72
2, 57312, Note_on_c, 0, 79, 0
2, 57312, Note_on_c, 0, 77, 72
2, 57360, Note_on_c, 0, 77, 0
2, 57360, Note_on_c, 0, 79, 72
2, 57408, Note_on_c, 0, 79, 0
2, 57408, Note_on_c, 0, 81, 72
2, 57600, Note_on_c, 0, 81, 0
2, 57600, Note_on_c, 0, 81, 72
2, 57648, Note_on_c, 0, 81, 0
2, 57648, Note_on_c, 0, 79, 72
2, 57672, Note_on_c, 0, 79, 0
2, 57672, Note_on_c, 0, 78, 72
2, 57696, Note_on_c, 0, 78, 0
2, 57696, Note_on_c, 0, 79, 72
2, 57744, Note_on_c, 0, 79, 0
2, 57744, Note_on_c, 0, 81, 72
2, 57792, Note_on_c, 0, 81, 0
2, 57792, Note_on_c, 0, 82, 72
2, 57984, Note_on_c, 0, 82, 0
2, 57984, Note_on_c, 0, 82, 72
2, 58032, Note_on_c, 0, 82, 0
2, 58032, Note_on_c, 0, 81, 72
2, 58080, Note_on_c, 0, 81, 0
2, 58080, Note_on_c, 0, 79, 72
2, 58128, Note_on_c, 0, 79, 0
2, 58128, Note_on_c, 0, 77, 72
2, 58176, Note_on_c, 0, 77, 0
2, 58176, Note_on_c, 0, 76, 72
2, 58224, Note_on_c, 0, 76, 0
2, 58224, Note_on_c, 0, 74, 72
2, 58272, Note_on_c, 0, 74, 0
2, 58272, Note_on_c, 0, 76, 72
2, 58320, Note_on_c, 0, 76, 0
2, 58320, Note_on_c, 0, 79, 72
2, 58368, Note_on_c, 0, 79, 0
2, 58368, Note_on_c, 0, 77, 72
2, 58416, Note_on_c, 0, 77, 0
2, 58416, Note_on_c, 0, 76, 72
2, 58464, Note_on_c, 0, 76, 0
2, 58464, Note_on_c, 0, 74, 72
2, 58512, Note_on_c, 0, 74, 0
2, 58512, Note_on_c, 0, 72, 72
2, 58560, Note_on_c, 0, 72, 0
2, 58560, Note_on_c, 0, 71, 72
2, 58608, Note_on_c, 0, 71, 0
2, 58608, Note_on_c, 0, 69, 72
2, 58656, Note_on_c, 0, 69, 0
2, 58656, Note_on_c, 0, 71, 72
2, 58704, Note_on_c, 0, 71, 0
2, 58704, Note_on_c, 0, 74, 72
2, 58752, Note_on_c, 0, 74, 0
2, 58752, Note_on_c, 0, 72, 72
2, 58848, Note_on_c, 0, 72, 0
2, 58848, Note_on_c, 0, 71, 72
2, 58896, Note_on_c, 0, 71, 0
2, 58896, Note_on_c, 0, 69, 72
2, 58944, Note_on_c, 0, 69, 0
2, 58944, Note_on_c, 0, 68, 72
2, 58992, Note_on_c, 0, 68, 0
2, 58992, Note_on_c, 0, 66, 72
2, 59040, Note_on_c, 0, 66, 0
2, 59040, Note_on_c, 0, 68, 72
2, 59088, Note_on_c, 0, 68, 0
2, 59088, Note_on_c, 0, 71, 72
2, 59136, Note_on_c, 0, 71, 0
2, 59136, Note_on_c, 0, 64, 72
2, 59232, Note_on_c, 0, 64, 0
2, 59232, Note_on_c, 0, 69, 72
2, 59424, Note_on_c, 0, 69, 0
2, 59424, Note_on_c, 0, 68, 72
2, 59520, Note_on_c, 0, 68, 0
2, 59520, Note_on_c, 0, 69, 72
2, 59616, Note_on_c, 0, 69, 0
2, 59616, Note_on_c, 0, 76, 72
2, 59808, Note_on_c, 0, 76, 0
2, 59808, Note_on_c, 0, 74, 72
2, 59904, Note_on_c, 0, 74, 0
2, 59904, Note_on_c, 0, 74, 72
2, 60000, Note_on_c, 0, 74, 0
2, 60000, Note_on_c, 0, 72, 72
2, 60048, Note_on_c, 0, 72, 0
2, 60048, Note_on_c, 0, 74, 72
2, 60096, Note_on_c, 0, 74, 0
2, 60096, Note_on_c, 0, 76, 72
2, 60192, Note_on_c, 0, 76, 0
2, 60192, Note_on_c, 0, 75, 72
2, 60288, Note_on_c, 0, 75, 0
2, 60288, Note_on_c, 0, 76, 72
2, 60384, Note_on_c, 0, 76, 0
2, 64704, Note_on_c, 0, 65, 88
2, 64896, Note_on_c, 0, 65, 0
2, 64896, Note_on_c, 0, 72, 88
2, 65184, Note_on_c, 0, 72, 0
2, 65184, Note_on_c, 0, 70, 88
2, 65280, Note_on_c, 0, 70, 0
2, 65280, Note_on_c, 0, 69, 88
2, 65664, Note_on_c, 0, 69, 0
2, 65664, Note_on_c, 0, 70, 88
2, 66048, Note_on_c, 0, 70, 0
2, 66048, Note_on_c, 0, 72, 88
2, 66432, Note_on_c, 0, 72, 0
2, 66432, Note_on_c, 0, 65, 88
2, 66624, Note_on_c, 0, 65, 0
2, 66624, Note_on_c, 0, 65, 72
2, 66672, Note_on_c, 0, 65, 0
2, 66672, Note_on_c, 0, 66, 72
2, 66720, Note_on_c, 0, 66, 0
2, 66720, Note_on_c, 0, 67, 72
2, 66768, Note_on_c, 0, 67, 0
2, 66768, Note_on_c, 0, 69, 72
2, 66816, Note_on_c, 0, 69, 0
2, 66816, Note_on_c, 0, 70, 72
2, 67008, Note_on_c, 0, 70, 0
2, 67008, Note_on_c, 0, 70, 72
2, 67056, Note_on_c, 0, 70, 0
2, 67056, Note_on_c, 0, 71, 72
2, 67104, Note_on_c, 0, 71, 0
2, 67104, Note_on_c, 0, 72, 72
2, 67152, Note_on_c, 0, 72, 0
2, 67152, Note_on_c, 0, 74, 72
2, 67200, Note_on_c, 0, 74, 0
2, 67200, Note_on_c, 0, 75, 72
2, 67584, Note_on_c, 0, 75, 0
2, 67584, Note_on_c, 0, 75, 72
2, 67680, Note_on_c, 0, 75, 0
2, 67680, Note_on_c, 0, 69, 72
2, 67776, Note_on_c, 0, 69, 0
2, 67776, Note_on_c, 0, 74, 72
2, 67968, Note_on_c, 0, 74, 0
2, 67968, Note_on_c, 0, 74, 72
2, 68160, Note_on_c, 0, 74, 0
2, 68160, Note_on_c, 0, 73, 72
2, 68352, Note_on_c, 0, 73, 0
2, 68352, Note_on_c, 0, 74, 72
2, 68544, Note_on_c, 0, 74, 0
2, 68544, Note_on_c, 0, 72, 72
2, 68736, Note_on_c, 0, 72, 0
2, 68736, Note_on_c, 0, 72, 72
2, 68832, Note_on_c, 0, 72, 0
2, 68832, Note_on_c, 0, 70, 72
2, 68880, Note_on_c, 0, 70, 0
2, 68880, Note_on_c, 0, 69, 72
2, 68928, Note_on_c, 0, 69, 0
2, 68928, Note_on_c, 0, 70, 72
2, 69024, Note_on_c, 0, 70, 0
2, 69024, Note_on_c, 0, 75, 72
2, 69120, Note_on_c, 0, 75, 0
2, 69120, Note_on_c, 0, 74, 72
2, 69216, Note_on_c, 0, 74, 0
2, 69216, Note_on_c, 0, 76, 72
2, 69264, Note_on_c, 0, 76, 0
2, 69264, Note_on_c, 0, 78, 72
2, 69312, Note_on_c, 0, 78, 0
2, 69312, Note_on_c, 0, 79, 72
2, 69504, Note_on_c, 0, 79, 0
2, 69504, Note_on_c, 0, 79, 72
2, 69600, Note_on_c, 0, 79, 0
2, 69600, Note_on_c, 0, 77, 72
2, 69744, Note_on_c, 0, 77, 0
2, 69744, Note_on_c, 0, 75, 72
2, 69792, Note_on_c, 0, 75, 0
2, 69792, Note_on_c, 0, 74, 72
2, 69840, Note_on_c, 0, 74, 0
2, 69840, Note_on_c, 0, 72, 72
2, 69888, Note_on_c, 0, 72, 0
2, 69888, Note_on_c, 0, 71, 72
2, 69936, Note_on_c, 0, 71, 0
2, 69936, Note_on_c, 0, 69, 72
2, 69984, Note_on_c, 0, 69, 0
2, 69984, Note_on_c, 0, 67, 72
2, 70080, Note_on_c, 0, 67, 0
2, 70080, Note_on_c, 0, 74, 88
2, 70272, Note_on_c, 0, 74, 0
2, 70272, Note_on_c, 0, 79, 88
2, 70560, Note_on_c, 0, 79, 0
2, 70560, Note_on_c, 0, 77, 88
2, 70656, Note_on_c, 0, 77, 0
2, 70656, Note_on_c, 0, 75, 88
2, 71040, Note_on_c, 0, 75, 0
2, 71040, Note_on_c, 0, 77, 88
2, 71424, Note_on_c, 0, 77, 0
2, 71424, Note_on_c, 0, 79, 88
2, 71808, Note_on_c, 0, 79, 0
2, 71808, Note_on_c, 0, 72, 88
2, 72192, Note_on_c, 0, 72, 0
2, 72192, Note_on_c, 0, 72, 72
2, 72240, Note_on_c, 0, 72, 0
2, 72240, Note_on_c, 0, 66, 72
2, 72288, Note_on_c, 0, 66, 0
2, 72288, Note_on_c, 0, 67, 72
2, 72336, Note_on_c, 0, 67, 0
2, 72336, Note_on_c, 0, 69, 72
2, 72384, Note_on_c, 0, 69, 0
2, 72384, Note_on_c, 0, 70, 72
2, 72432, Note_on_c, 0, 70, 0
2, 72432, Note_on_c, 0, 72, 72
2, 72480, Note_on_c, 0, 72, 0
2, 72480, Note_on_c, 0, 70, 72
2, 72528, Note_on_c, 0, 70, 0
2, 72528, Note_on_c, 0, 67, 72
2, 72576, Note_on_c, 0, 67, 0
2, 72576, Note_on_c, 0, 75, 72
2, 72960, Note_on_c, 0, 75, 0
2, 72960, Note_on_c, 0, 75, 72
2, 73008, Note_on_c, 0, 75, 0
2, 73008, Note_on_c, 0, 75, 72
2, 73056, Note_on_c, 0, 75, 0
2, 73056, Note_on_c, 0, 74, 72
2, 73104, Note_on_c, 0, 74, 0
2, 73104, Note_on_c, 0, 72, 72
2, 73152, Note_on_c, 0, 72, 0
2, 73152, Note_on_c, 0, 70, 72
2, 73200, Note_on_c, 0, 70, 0
2, 73200, Note_on_c, 0, 69, 72
2, 73248, Note_on_c, 0, 69, 0
2, 73248, Note_on_c, 0, 70, 72
2, 73296, Note_on_c, 0, 70, 0
2, 73296, Note_on_c, 0, 74, 72
2, 73344, Note_on_c, 0, 74, 0
2, 73344, Note_on_c, 0, 67, 72
2, 73488, Note_on_c, 0, 67, 0
2, 73488, Note_on_c, 0, 69, 72
2, 73536, Note_on_c, 0, 69, 0
2, 73536, Note_on_c, 0, 66, 72
2, 73680, Note_on_c, 0, 66, 0
2, 73680, Note_on_c, 0, 67, 72
2, 73728, Note_on_c, 0, 67, 0
2, 73728, Note_on_c, 0, 67, 72
2, 73824, Note_on_c, 0, 67, 0
2, 73824, Note_on_c, 0, 67, 88
2, 73920, Note_on_c, 0, 67, 0
2, 76992, Note_on_c, 0, 70, 88
2, 77184, Note_on_c, 0, 70, 0
2, 77184, Note_on_c, 0, 69, 88
2, 77376, Note_on_c, 0, 69, 0
2, 77376, Note_on_c, 0, 72, 88
2, 77568, Note_on_c, 0, 72, 0
2, 77568, Note_on_c, 0, 71, 88
2, 77712, Note_on_c, 0, 71, 0
2, 77712, Note_on_c, 0, 73, 88
2, 77760, Note_on_c, 0, 73, 0
2, 77760, Note_on_c, 0, 74, 88
2, 77952, Note_on_c, 0, 74, 0
2, 77952, Note_on_c, 0, 74, 88
2, 78096, Note_on_c, 0, 74, 0
2, 78096, Note_on_c, 0, 73, 88
2, 78120, Note_on_c, 0, 73, 0
2, 78120, Note_on_c, 0, 71, 88
2, 78144, Note_on_c, 0, 71, 0
2, 78144, Note_on_c, 0, 73, 88
2, 78336, Note_on_c, 0, 73, 0
2, 78336, Note_on_c, 0, 74, 88
2, 78432, Note_on_c, 0, 74, 0
2, 78624, Note_on_c, 0, 75, 72
2, 78720, Note_on_c, 0, 75, 0
2, 78720, Note_on_c, 0, 76, 72
2, 78816, Note_on_c, 0, 76, 0
2, 78816, Note_on_c, 0, 71, 72
2, 78912, Note_on_c, 0, 71, 0
2, 78912, Note_on_c, 0, 76, 72
2, 79008, Note_on_c, 0, 76, 0
2, 79008, Note_on_c, 0, 74, 72
2, 79104, Note_on_c, 0, 74, 0
2, 79104, Note_on_c, 0, 72, 72
2, 79296, Note_on_c, 0, 72, 0
2, 79296, Note_on_c, 0, 73, 72
2, 79488, Note_on_c, 0, 73, 0
2, 79488, Note_on_c, 0, 74, 72
2, 79584, Note_on_c, 0, 74, 0
2, 79584, Note_on_c, 0, 69, 72
2, 79680, Note_on_c, 0, 69, 0
2, 79680, Note_on_c, 0, 74, 72
2, 79872, Note_on_c, 0, 74, 0
2, 79872, Note_on_c, 0, 74, 72
2, 79968, Note_on_c, 0, 74, 0
2, 79968, Note_on_c, 0, 72, 72
2, 80016, Note_on_c, 0, 72, 0
2, 80016, Note_on_c, 0, 71, 72
2, 80064, Note_on_c, 0, 71, 0
2, 80064, Note_on_c, 0, 72, 72
2, 80256, Note_on_c, 0, 72, 0
2, 80256, Note_on_c, 0, 72, 72
2, 80352, Note_on_c, 0, 72, 0
2, 80352, Note_on_c, 0, 70, 72
2, 80400, Note_on_c, 0, 70, 0
2, 80400, Note_on_c, 0, 69, 72
2, 80448, Note_on_c, 0, 69, 0
2, 80448, Note_on_c, 0, 70, 72
2, 80544, Note_on_c, 0, 70, 0
2, 80544, Note_on_c, 0, 67, 72
2, 80640, Note_on_c, 0, 67, 0
2, 80640, Note_on_c, 0, 69, 72
2, 80736, Note_on_c, 0, 69, 0
2, 80736, Note_on_c, 0, 81, 72
2, 80928, Note_on_c, 0, 81, 0
2, 80928, Note_on_c, 0, 74, 72
2, 81024, Note_on_c, 0, 74, 0
2, 81024, Note_on_c, 0, 74, 72
2, 81120, Note_on_c, 0, 74, 0
2, 81120, Note_on_c, 0, 76, 72
2, 81216, Note_on_c, 0, 76, 0
2, 81216, Note_on_c, 0, 77, 72
2, 81408, Note_on_c, 0, 77, 0
2, 81408, Note_on_c, 0, 76, 72
2, 81600, Note_on_c, 0, 76, 0
2, 81600, Note_on_c, 0, 76, 72
2, 81648, Note_on_c, 0, 76, 0
2, 81648, Note_on_c, 0, 73, 72
2, 81696, Note_on_c, 0, 73, 0
2, 81696, Note_on_c, 0, 74, 72
2, 81744, Note_on_c, 0, 74, 0
2, 81744, Note_on_c, 0, 76, 72
2, 81792, Note_on_c, 0, 76, 0
2, 81792, Note_on_c, 0, 69, 72
2, 82080, Note_on_c, 0, 69, 0
2, 82080, Note_on_c, 0, 67, 72
2, 82128, Note_on_c, 0, 67, 0
2, 82128, Note_on_c, 0, 66, 72
2, 82176, Note_on_c, 0, 66, 0
2, 82176, Note_on_c, 0, 67, 72
2, 82560, Note_on_c, 0, 67, 0
2, 82560, Note_on_c, 0, 67, 72
2, 82752, Note_on_c, 0, 67, 0
2, 82752, Note_on_c, 0, 65, 72
2, 82800, Note_on_c, 0, 65, 0
2, 82800, Note_on_c, 0, 64, 72
2, 82848, Note_on_c, 0, 64, 0
2, 82848, Note_on_c, 0, 65, 72
2, 82944, Note_on_c, 0, 65, 0
2, 82944, Note_on_c, 0, 64, 72
2, 83136, Note_on_c, 0, 64, 0
2, 83136, Note_on_c, 0, 70, 88
2, 83328, Note_on_c, 0, 70, 0
2, 83328, Note_on_c, 0, 69, 88
2, 83520, Note_on_c, 0, 69, 0
2, 83520, Note_on_c, 0, 72, 88
2, 83712, Note_on_c, 0, 72, 0
2, 83712, Note_on_c, 0, 71, 88
2, 83856, Note_on_c, 0, 71, 0
2, 83856, Note_on_c, 0, 73, 88
2, 83904, Note_on_c, 0, 73, 0
2, 83904, Note_on_c, 0, 74, 88
2, 84096, Note_on_c, 0, 74, 0
2, 84096, Note_on_c, 0, 74, 88
2, 84240, Note_on_c, 0, 74, 0
2, 84240, Note_on_c, 0, 73, 88
2, 84264, Note_on_c, 0, 73, 0
2, 84264, Note_on_c, 0, 71, 88
2, 84288, Note_on_c, 0, 71, 0
2, 84288, Note_on_c, 0, 73, 88
2, 84336, Note_on_c, 0, 73, 0
2, 84336, Note_on_c, 0, 75, 88
2, 84384, Note_on_c, 0, 75, 0
2, 84384, Note_on_c, 0, 76, 88
2, 84408, Note_on_c, 0, 76, 0
2, 84408, Note_on_c, 0, 75, 88
2, 84432, Note_on_c, 0, 75, 0
2, 84432, Note_on_c, 0, 73, 88
2, 84456, Note_on_c, 0, 73, 0
2, 84456, Note_on_c, 0, 75, 88
2, 84480, Note_on_c, 0, 75, 0
2, 84480, Note_on_c, 0, 76, 88
2, 84576, Note_on_c, 0, 76, 0
2, 84576, Note_on_c, 0, 71, 72
2, 84672, Note_on_c, 0, 71, 0
2, 84672, Note_on_c, 0, 76, 72
2, 84768, Note_on_c, 0, 76, 0
2, 84768, Note_on_c, 0, 74, 72
2, 84864, Note_on_c, 0, 74, 0
2, 84864, Note_on_c, 0, 72, 72
2, 85056, Note_on_c, 0, 72, 0
2, 85056, Note_on_c, 0, 73, 72
2, 85248, Note_on_c, 0, 73, 0
2, 85248, Note_on_c, 0, 74, 72
2, 85440, Note_on_c, 0, 74, 0
2, 85440, Note_on_c, 0, 74, 72
2, 85488, Note_on_c, 0, 74, 0
2, 85488, Note_on_c, 0, 77, 72
2, 85536, Note_on_c, 0, 77, 0
2, 85536, Note_on_c, 0, 75, 72
2, 85584, Note_on_c, 0, 75, 0
2, 85584, Note_on_c, 0, 74, 72
2, 85632, Note_on_c, 0, 74, 0
2, 85632, Note_on_c, 0, 72, 72
2, 85680, Note_on_c, 0, 72, 0
2, 85680, Note_on_c, 0, 79, 72
2, 85728, Note_on_c, 0, 79, 0
2, 85728, Note_on_c, 0, 77, 72
2, 85776, Note_on_c, 0, 77, 0
2, 85776, Note_on_c, 0, 75, 72
2, 85824, Note_on_c, 0, 75, 0
2, 85824, Note_on_c, 0, 74, 72
2, 85872, Note_on_c, 0, 74, 0
2, 85872, Note_on_c, 0, 72, 72
2, 85920, Note_on_c, 0, 72, 0
2, 85920, Note_on_c, 0, 73, 72
2, 86016, Note_on_c, 0, 73, 0
2, 86016, Note_on_c, 0, 73, 72
2, 86064, Note_on_c, 0, 73, 0
2, 86064, Note_on_c, 0, 71, 72
2, 86112, Note_on_c, 0, 71, 0
2, 86112, Note_on_c, 0, 72, 72
2, 86304, Note_on_c, 0, 72, 0
2, 86304, Note_on_c, 0, 71, 72
2, 86400, Note_on_c, 0, 71, 0
2, 86400, Note_on_c, 0, 72, 72
2, 86544, Note_on_c, 0, 72, 0
2, 86544, Note_on_c, 0, 70, 72
2, 86568, Note_on_c, 0, 70, 0
2, 86568, Note_on_c, 0, 69, 72
2, 86592, Note_on_c, 0, 69, 0
2, 86592, Note_on_c, 0, 67, 72
2, 86640, Note_on_c, 0, 67, 0
2, 86640, Note_on_c, 0, 64, 72
2, 86688, Note_on_c, 0, 64, 0
2, 86688, Note_on_c, 0, 76, 72
2, 86784, Note_on_c, 0, 76, 0
2, 86784, Note_on_c, 0, 76, 72
2, 86832, Note_on_c, 0, 76, 0
2, 86832, Note_on_c, 0, 74, 72
2, 86856, Note_on_c, 0, 74, 0
2, 86856, Note_on_c, 0, 73, 72
2, 86880, Note_on_c, 0, 73, 0
2, 86880, Note_on_c, 0, 74, 72
2, 86928, Note_on_c, 0, 74, 0
2, 86928, Note_on_c, 0, 72, 72
2, 86952, Note_on_c, 0, 72, 0
2, 86952, Note_on_c, 0, 71, 72
2, 86976, Note_on_c, 0, 71, 0
2, 86976, Note_on_c, 0, 69, 72
2, 87072, Note_on_c, 0, 69, 0
2, 87840, Note_on_c, 0, 81, 72
2, 87936, Note_on_c, 0, 81, 0
2, 87936, Note_on_c, 0, 81, 72
2, 87984, Note_on_c, 0, 81, 0
2, 87984, Note_on_c, 0, 79, 72
2, 88008, Note_on_c, 0, 79, 0
2, 88008, Note_on_c, 0, 81, 72
2, 88032, Note_on_c, 0, 81, 0
2, 88032, Note_on_c, 0, 82, 72
2, 88176, Note_on_c, 0, 82, 0
2, 88176, Note_on_c, 0, 76, 72
2, 88224, Note_on_c, 0, 76, 0
2, 88224, Note_on_c, 0, 81, 72
2, 88272, Note_on_c, 0, 81, 0
2, 88272, Note_on_c, 0, 79, 72
2, 88320, Note_on_c, 0, 79, 0
2, 88320, Note_on_c, 0, 77, 72
2, 88368, Note_on_c, 0, 77, 0
2, 88368, Note_on_c, 0, 76, 72
2, 88392, Note_on_c, 0, 76, 0
2, 88392, Note_on_c, 0, 74, 72
2, 88416, Note_on_c, 0, 74, 0
2, 88416, Note_on_c, 0, 73, 72
2, 88464, Note_on_c, 0, 73, 0
2, 88464, Note_on_c, 0, 74, 72
2, 88512, Note_on_c, 0, 74, 0
2, 88512, Note_on_c, 0, 76, 72
2, 88560, Note_on_c, 0, 76, 0
2, 88560, Note_on_c, 0, 74, 72
2, 88584, Note_on_c, 0, 74, 0
2, 88584, Note_on_c, 0, 76, 72
2, 88608, Note_on_c, 0, 76, 0
2, 88608, Note_on_c, 0, 77, 72
2, 88656, Note_on_c, 0, 77, 0
2, 88656, Note_on_c, 0, 76, 72
2, 88704, Note_on_c, 0, 76, 0
2, 88704, Note_on_c, 0, 74, 72
2, 88848, Note_on_c, 0, 74, 0
2, 88848, Note_on_c, 0, 73, 72
2, 88896, Note_on_c, 0, 73, 0
2, 88896, Note_on_c, 0, 74, 72
2, 88944, Note_on_c, 0, 74, 0
2, 88944, Note_on_c, 0, 76, 72
2, 88968, Note_on_c, 0, 76, 0
2, 88968, Note_on_c, 0, 77, 72
2, 88992, Note_on_c, 0, 77, 0
2, 88992, Note_on_c, 0, 76, 72
2, 89040, Note_on_c, 0, 76, 0
2, 89040, Note_on_c, 0, 74, 72
2, 89088, Note_on_c, 0, 74, 0
2, 89088, Note_on_c, 0, 73, 72
2, 89280, Note_on_c, 0, 73, 0
2, 89328, Note_on_c, 0, 76, 72
2, 89376, Note_on_c, 0, 76, 0
2, 89376, Note_on_c, 0, 77, 72
2, 89424, Note_on_c, 0, 77, 0
2, 89424, Note_on_c, 0, 79, 72
2, 89472, Note_on_c, 0, 79, 0
2, 89472, Note_on_c, 0, 77, 72
2, 89520, Note_on_c, 0, 77, 0
2, 89520, Note_on_c, 0, 76, 72
2, 89568, Note_on_c, 0, 76, 0
2, 89568, Note_on_c, 0, 74, 72
2, 89616, Note_on_c, 0, 74, 0
2, 89616, Note_on_c, 0, 73, 72
2, 89664, Note_on_c, 0, 73, 0
2, 89664, Note_on_c, 0, 74, 72
2, 89856, Note_on_c, 0, 74, 0
2, 89856, Note_on_c, 0, 74, 72
2, 89952, Note_on_c, 0, 74, 0
2, 89952, Note_on_c, 0, 73, 72
2, 90000, Note_on_c, 0, 73, 0
2, 90000, Note_on_c, 0, 74, 72
2, 90048, Note_on_c, 0, 74, 0
2, 90048, Note_on_c, 0, 76, 72
2, 90240, Note_on_c, 0, 76, 0
2, 90240, Note_on_c, 0, 76, 72
2, 90336, Note_on_c, 0, 76, 0
2, 90336, Note_on_c, 0, 74, 72
2, 90384, Note_on_c, 0, 74, 0
2, 90384, Note_on_c, 0, 76, 72
2, 90432, Note_on_c, 0, 76, 0
2, 90432, Note_on_c, 0, 77, 72
2, 90480, Note_on_c, 0, 77, 0
2, 90480, Note_on_c, 0, 79, 72
2, 90528, Note_on_c, 0, 79, 0
2, 90528, Note_on_c, 0, 81, 72
2, 90576, Note_on_c, 0, 81, 0
2, 90576, Note_on_c, 0, 77, 72
2, 90624, Note_on_c, 0, 77, 0
2, 90624, Note_on_c, 0, 74, 72
2, 90720, Note_on_c, 0, 74, 0
2, 90720, Note_on_c, 0, 76, 72
2, 90768, Note_on_c, 0, 76, 0
2, 90768, Note_on_c, 0, 78, 72
2, 90816, Note_on_c, 0, 78, 0
2, 90816, Note_on_c, 0, 79, 72
2, 90864, Note_on_c, 0, 79, 0
2, 90864, Note_on_c, 0, 81, 72
2, 90912, Note_on_c, 0, 81, 0
2, 90912, Note_on_c, 0, 82, 72
2, 90960, Note_on_c, 0, 82, 0
2, 90960, Note_on_c, 0, 79, 72
2, 91008, Note_on_c, 0, 79, 0
2, 91008, Note_on_c, 0, 76, 72
2, 91104, Note_on_c, 0, 76, 0
2, 91776, End_track
3, 0, Start_track
3, 0, Program_c, 0, 0
3, 4032, Note_on_c, 0, 62, 88
3, 4224, Note_on_c, 0, 62, 0
3, 4224, Note_on_c, 0, 69, 88
3, 4512, Note_on_c, 0, 69, 0
3, 4512, Note_on_c, 0, 67, 88
3, 4608, Note_on_c, 0, 67, 0
3, 4608, Note_on_c, 0, 65, 88
3, 4992, Note_on_c, 0, 65, 0
3, 4992, Note_on_c, 0, 67, 88
3, 5376, Note_on_c, 0, 67, 0
3, 5376, Note_on_c, 0, 69, 88
3, 5760, Note_on_c, 0, 69, 0
3, 5760, Note_on_c, 0, 62, 88
3, 6144, Note_on_c, 0, 62, 0
3, 6144, Note_on_c, 0, 62, 88
3, 6336, Note_on_c, 0, 62, 0
3, 6336, Note_on_c, 0, 64, 72
3, 6528, Note_on_c, 0, 64, 0
3, 6528, Note_on_c, 0, 64, 72
3, 6624, Note_on_c, 0, 64, 0
3, 6624, Note_on_c, 0, 60, 72
3, 6720, Note_on_c, 0, 60, 0
3, 6720, Note_on_c, 0, 65, 72
3, 6912, Note_on_c, 0, 65, 0
3, 6912, Note_on_c, 0, 65, 72
3, 7008, Note_on_c, 0, 65, 0
3, 7008, Note_on_c, 0, 62, 72
3, 7104, Note_on_c, 0, 62, 0
3, 7104, Note_on_c, 0, 67, 72
3, 7296, Note_on_c, 0, 67, 0
3, 7296, Note_on_c, 0, 67, 72
3, 7392, Note_on_c, 0, 67, 0
3, 7392, Note_on_c, 0, 64, 72
3, 7488, Note_on_c, 0, 64, 0
3, 7488, Note_on_c, 0, 69, 72
3, 7584, Note_on_c, 0, 69, 0
3, 7584, Note_on_c, 0, 67, 72
3, 7680, Note_on_c, 0, 67, 0
3, 7680, Note_on_c, 0, 67, 72
3, 7776, Note_on_c, 0, 67, 0
3, 7776, Note_on_c, 0, 65, 72
3, 7824, Note_on_c, 0, 65, 0
3, 7824, Note_on_c, 0, 64, 72
3, 7872, Note_on_c, 0, 64, 0
3, 7872, Note_on_c, 0, 65, 72
3, 8064, Note_on_c, 0, 65, 0
3, 8064, Note_on_c, 0, 64, 72
3, 8160, Note_on_c, 0, 64, 0
3, 8160, Note_on_c, 0, 62, 72
3, 8208, Note_on_c, 0, 62, 0
3, 8208, Note_on_c, 0, 64, 72
3, 8256, Note_on_c, 0, 64, 0
3, 8256, Note_on_c, 0, 65, 72
3, 8448, Note_on_c, 0, 65, 0
3, 8448, Note_on_c, 0, 65, 72
3, 8544, Note_on_c, 0, 65, 0
3, 8544, Note_on_c, 0, 63, 72
3, 8736, Note_on_c, 0, 63, 0
3, 8736, Note_on_c, 0, 62, 72
3, 8832, Note_on_c, 0, 62, 0
3, 8832, Note_on_c, 0, 62, 72
3, 8880, Note_on_c, 0, 62, 0
3, 8880, Note_on_c, 0, 64, 72
3, 8928, Note_on_c, 0, 64, 0
3, 8928, Note_on_c, 0, 65, 72
3, 9120, Note_on_c, 0, 65, 0
3, 9120, Note_on_c, 0, 64, 72
3, 9168, Note_on_c, 0, 64, 0
3, 9168, Note_on_c, 0, 62, 72
3, 9216, Note_on_c, 0, 62, 0
3, 9216, Note_on_c, 0, 60, 72
3, 9312, Note_on_c, 0, 60, 0
3, 9312, Note_on_c, 0, 62, 72
3, 9408, Note_on_c, 0, 62, 0
3, 9408, Note_on_c, 0, 64, 72
3, 9600, Note_on_c, 0, 64, 0
3, 9600, Note_on_c, 0, 62, 72
3, 9888, Note_on_c, 0, 62, 0
3, 9888, Note_on_c, 0, 64, 72
3, 9936, Note_on_c, 0, 64, 0
3, 9936, Note_on_c, 0, 65, 72
3, 9984, Note_on_c, 0, 65, 0
3, 9984, Note_on_c, 0, 64, 72
3, 10080, Note_on_c, 0, 64, 0
3, 10080, Note_on_c, 0, 62, 72
3, 10176, Note_on_c, 0, 62, 0
3, 10176, Note_on_c, 0, 60, 72
3, 10368, Note_on_c, 0, 60, 0
3, 10368, Note_on_c, 0, 60, 72
3, 10464, Note_on_c, 0, 60, 0
3, 10464, Note_on_c, 0, 62, 72
3, 10512, Note_on_c, 0, 62, 0
3, 10512, Note_on_c, 0, 63, 72
3, 10560, Note_on_c, 0, 63, 0
3, 10560, Note_on_c, 0, 62, 72
3, 10752, Note_on_c, 0, 62, 0
3, 10752, Note_on_c, 0, 62, 72
3, 10848, Note_on_c, 0, 62, 0
3, 10848, Note_on_c, 0, 64, 72
3, 10896, Note_on_c, 0, 64, 0
3, 10896, Note_on_c, 0, 66, 72
3, 10944, Note_on_c, 0, 66, 0
3, 10944, Note_on_c, 0, 67, 72
3, 11136, Note_on_c, 0, 67, 0
3, 11136, Note_on_c, 0, 67, 72
3, 11232, Note_on_c, 0, 67, 0
3, 11232, Note_on_c, 0, 66, 72
3, 11280, Note_on_c, 0, 66, 0
3, 11280, Note_on_c, 0, 67, 72
3, 11328, Note_on_c, 0, 67, 0
3, 11328, Note_on_c, 0, 69, 88
3, 11520, Note_on_c, 0, 69, 0
3, 11520, Note_on_c, 0, 62, 88
3, 11808, Note_on_c, 0, 62, 0
3, 11808, Note_on_c, 0, 64, 88
3, 11904, Note_on_c, 0, 64, 0
3, 11904, Note_on_c, 0, 65, 88
3, 12288, Note_on_c, 0, 65, 0
3, 12288, Note_on_c, 0, 64, 88
3, 12672, Note_on_c, 0, 64, 0
3, 12672, Note_on_c, 0, 62, 88
3, 13056, Note_on_c, 0, 62, 0
3, 13056, Note_on_c, 0, 69, 88
3, 13440, Note_on_c, 0, 69, 0
3, 13440, Note_on_c, 0, 69, 88
3, 13728, Note_on_c, 0, 69, 0
3, 13728, Note_on_c, 0, 67, 72
3, 13824, Note_on_c, 0, 67, 0
3, 13824, Note_on_c, 0, 67, 72
3, 13920, Note_on_c, 0, 67, 0
3, 13920, Note_on_c, 0, 65, 72
3, 13968, Note_on_c, 0, 65, 0
3, 13968, Note_on_c, 0, 64, 72
3, 14016, Note_on_c, 0, 64, 0
3, 14016, Note_on_c, 0, 65, 72
3, 14208, Note_on_c, 0, 65, 0
3, 14400, Note_on_c, 0, 62, 88
3, 14592, Note_on_c, 0, 62, 0
3, 14592, Note_on_c, 0, 69, 88
3, 14880, Note_on_c, 0, 69, 0
3, 14880, Note_on_c, 0, 67, 88
3, 14976, Note_on_c, 0, 67, 0
3, 14976, Note_on_c, 0, 65, 88
3, 15360, Note_on_c, 0, 65, 0
3, 15360, Note_on_c, 0, 67, 88
3, 15744, Note_on_c, 0, 67, 0
3, 15744, Note_on_c, 0, 69, 88
3, 16128, Note_on_c, 0, 69, 0
3, 16128, Note_on_c, 0, 62, 88
3, 16224, Note_on_c, 0, 62, 0
3, 16224, Note_on_c, 0, 64, 72
3, 16320, Note_on_c, 0, 64, 0
3, 16320, Note_on_c, 0, 65, 72
3, 16512, Note_on_c, 0, 65, 0
3, 16512, Note_on_c, 0, 65, 72
3, 16608, Note_on_c, 0, 65, 0
3, 16608, Note_on_c, 0, 64, 72
3, 16656, Note_on_c, 0, 64, 0
3, 16656, Note_on_c, 0, 62, 72
3, 16704, Note_on_c, 0, 62, 0
3, 16704, Note_on_c, 0, 64, 72
3, 16896, Note_on_c, 0, 64, 0
3, 16896, Note_on_c, 0, 64, 72
3, 16992, Note_on_c, 0, 64, 0
3, 16992, Note_on_c, 0, 60, 72
3, 17088, Note_on_c, 0, 60, 0
3, 17088, Note_on_c, 0, 65, 72
3, 17280, Note_on_c, 0, 65, 0
3, 17280, Note_on_c, 0, 65, 72
3, 17376, Note_on_c, 0, 65, 0
3, 17376, Note_on_c, 0, 62, 72
3, 17472, Note_on_c, 0, 62, 0
3, 17472, Note_on_c, 0, 67, 72
3, 17568, Note_on_c, 0, 67, 0
3, 17568, Note_on_c, 0, 65, 72
3, 17664, Note_on_c, 0, 65, 0
3, 17664, Note_on_c, 0, 64, 72
3, 17760, Note_on_c, 0, 64, 0
3, 17760, Note_on_c, 0, 62, 72
3, 17856, Note_on_c, 0, 62, 0
3, 17856, Note_on_c, 0, 63, 72
3, 18048, Note_on_c, 0, 63, 0
3, 18048, Note_on_c, 0, 63, 72
3, 18240, Note_on_c, 0, 63, 0
3, 18240, Note_on_c, 0, 62, 72
3, 18336, Note_on_c, 0, 62, 0
3, 18336, Note_on_c, 0, 60, 72
3, 18432, Note_on_c, 0, 60, 0
3, 18432, Note_on_c, 0, 59, 72
3, 18528, Note_on_c, 0, 59, 0
3, 18528, Note_on_c, 0, 57, 72
3, 18624, Note_on_c, 0, 57, 0
3, 18624, Note_on_c, 0, 58, 72
3, 18816, Note_on_c, 0, 58, 0
3, 18816, Note_on_c, 0, 58, 72
3, 19008, Note_on_c, 0, 58, 0
3, 19008, Note_on_c, 0, 57, 72
3, 19104, Note_on_c, 0, 57, 0
3, 19104, Note_on_c, 0, 55, 72
3, 19200, Note_on_c, 0, 55, 0
3, 19200, Note_on_c, 0, 54, 72
3, 19296, Note_on_c, 0, 54, 0
3, 19296, Note_on_c, 0, 57, 72
3, 19392, Note_on_c, 0, 57, 0
3, 19392, Note_on_c, 0, 62, 72
3, 19488, Note_on_c, 0, 62, 0
3, 19488, Note_on_c, 0, 60, 72
3, 19584, Note_on_c, 0, 60, 0
3, 19584, Note_on_c, 0, 58, 72
3, 19680, Note_on_c, 0, 58, 0
3, 19680, Note_on_c, 0, 57, 72
3, 19776, Note_on_c, 0, 57, 0
3, 19776, Note_on_c, 0, 58, 72
3, 19968, Note_on_c, 0, 58, 0
3, 19968, Note_on_c, 0, 59, 72
3, 20160, Note_on_c, 0, 59, 0
3, 20160, Note_on_c, 0, 60, 72
3, 20352, Note_on_c, 0, 60, 0
3, 20352, Note_on_c, 0, 60, 72
3, 20448, Note_on_c, 0, 60, 0
3, 20448, Note_on_c, 0, 64, 72
3, 20544, Note_on_c, 0, 64, 0
3, 20544, Note_on_c, 0, 69, 72
3, 20736, Note_on_c, 0, 69, 0
3, 20736, Note_on_c, 0, 69, 72
3, 20832, Note_on_c, 0, 69, 0
3, 20832, Note_on_c, 0, 67, 72
3, 20928, Note_on_c, 0, 67, 0
3, 20928, Note_on_c, 0, 65, 72
3, 21072, Note_on_c, 0, 65, 0
3, 21072, Note_on_c, 0, 64, 72
3, 21120, Note_on_c, 0, 64, 0
3, 21120, Note_on_c, 0, 62, 72
3, 21216, Note_on_c, 0, 62, 0
3, 21216, Note_on_c, 0, 64, 72
3, 21264, Note_on_c, 0, 64, 0
3, 21264, Note_on_c, 0, 65, 72
3, 21312, Note_on_c, 0, 65, 0
3, 21312, Note_on_c, 0, 67, 72
3, 21504, Note_on_c, 0, 67, 0
3, 21504, Note_on_c, 0, 66, 72
3, 21600, Note_on_c, 0, 66, 0
3, 21600, Note_on_c, 0, 67, 72
3, 21648, Note_on_c, 0, 67, 0
3, 21648, Note_on_c, 0, 69, 72
3, 21696, Note_on_c, 0, 69, 0
3, 21696, Note_on_c, 0, 70, 72
3, 21792, Note_on_c, 0, 70, 0
3, 21792, Note_on_c, 0, 69, 72
3, 21840, Note_on_c, 0, 69, 0
3, 21840, Note_on_c, 0, 70, 72
3, 21888, Note_on_c, 0, 70, 0
3, 21888, Note_on_c, 0, 72, 72
3, 22176, Note_on_c, 0, 72, 0
3, 22176, Note_on_c, 0, 70, 72
3, 22224, Note_on_c, 0, 70, 0
3, 22224, Note_on_c, 0, 69, 72
3, 22272, Note_on_c, 0, 69, 0
3, 22272, Note_on_c, 0, 70, 72
3, 22560, Note_on_c, 0, 70, 0
3, 22560, Note_on_c, 0, 69, 72
3, 22608, Note_on_c, 0, 69, 0
3, 22608, Note_on_c, 0, 67, 72
3, 22656, Note_on_c, 0, 67, 0
3, 22656, Note_on_c, 0, 66, 72
3, 22848, Note_on_c, 0, 66, 0
3, 22848, Note_on_c, 0, 67, 72
3, 23040, Note_on_c, 0, 67, 0
3, 23040, Note_on_c, 0, 67, 72
3, 23136, Note_on_c, 0, 67, 0
3, 23136, Note_on_c, 0, 65, 72
3, 23184, Note_on_c, 0, 65, 0
3, 23184, Note_on_c, 0, 64, 72
3, 23232, Note_on_c, 0, 64, 0
3, 23232, Note_on_c, 0, 65, 72
3, 23328, Note_on_c, 0, 65, 0
3, 23328, Note_on_c, 0, 67, 72
3, 23376, Note_on_c, 0, 67, 0
3, 23376, Note_on_c, 0, 65, 72
3, 23424, Note_on_c, 0, 65, 0
3, 23424, Note_on_c, 0, 64, 72
3, 23712, Note_on_c, 0, 64, 0
3, 23712, Note_on_c, 0, 65, 72
3, 23760, Note_on_c, 0, 65, 0
3, 23760, Note_on_c, 0, 67, 72
3, 23808, Note_on_c, 0, 67, 0
3, 23808, Note_on_c, 0, 69, 72
3, 23904, Note_on_c, 0, 69, 0
3, 23904, Note_on_c, 0, 67, 72
3, 24000, Note_on_c, 0, 67, 0
3, 24000, Note_on_c, 0, 65, 72
3, 24096, Note_on_c, 0, 65, 0
3, 24096, Note_on_c, 0, 63, 72
3, 24192, Note_on_c, 0, 63, 0
3, 24192, Note_on_c, 0, 62, 72
3, 24288, Note_on_c, 0, 62, 0
3, 24288, Note_on_c, 0, 67, 72
3, 24336, Note_on_c, 0, 67, 0
3, 24336, Note_on_c, 0, 66, 72
3, 24384, Note_on_c, 0, 66, 0
3, 24384, Note_on_c, 0, 67, 72
3, 24576, Note_on_c, 0, 67, 0
3, 24576, Note_on_c, 0, 67, 72
3, 24768, Note_on_c, 0, 67, 0
3, 24768, Note_on_c, 0, 65, 72
3, 24960, Note_on_c, 0, 65, 0
3, 24960, Note_on_c, 0, 65, 72
3, 25056, Note_on_c, 0, 65, 0
3, 25056, Note_on_c, 0, 67, 72
3, 25104, Note_on_c, 0, 67, 0
3, 25104, Note_on_c, 0, 69, 72
3, 25152, Note_on_c, 0, 69, 0
3, 25152, Note_on_c, 0, 67, 72
3, 25248, Note_on_c, 0, 67, 0
3, 25248, Note_on_c, 0, 65, 72
3, 25344, Note_on_c, 0, 65, 0
3, 25344, Note_on_c, 0, 64, 72
3, 25440, Note_on_c, 0, 64, 0
3, 25440, Note_on_c, 0, 60, 72
3, 25536, Note_on_c, 0, 60, 0
3, 25536, Note_on_c, 0, 65, 72
3, 25728, Note_on_c, 0, 65, 0
3, 25728, Note_on_c, 0, 65, 72
3, 25824, Note_on_c, 0, 65, 0
3, 25824, Note_on_c, 0, 64, 72
3, 25872, Note_on_c, 0, 64, 0
3, 25872, Note_on_c, 0, 62, 72
3, 25920, Note_on_c, 0, 62, 0
3, 25920, Note_on_c, 0, 63, 72
3, 26112, Note_on_c, 0, 63, 0
3, 26112, Note_on_c, 0, 63, 72
3, 26304, Note_on_c, 0, 63, 0
3, 26304, Note_on_c, 0, 62, 72
3, 26496, Note_on_c, 0, 62, 0
3, 26496, Note_on_c, 0, 60, 72
3, 26880, Note_on_c, 0, 60, 0
3, 26880, Note_on_c, 0, 65, 88
3, 27264, Note_on_c, 0, 65, 0
3, 27264, Note_on_c, 0, 58, 88
3, 27552, Note_on_c, 0, 58, 0
3, 27552, Note_on_c, 0, 60, 88
3, 27648, Note_on_c, 0, 60, 0
3, 27648, Note_on_c, 0, 62, 88
3, 28032, Note_on_c, 0, 62, 0
3, 28032, Note_on_c, 0, 60, 88
3, 28416, Note_on_c, 0, 60, 0
3, 28416, Note_on_c, 0, 58, 88
3, 28800, Note_on_c, 0, 58, 0
3, 28800, Note_on_c, 0, 65, 88
3, 29088, Note_on_c, 0, 65, 0
3, 29088, Note_on_c, 0, 63, 72
3, 29136, Note_on_c, 0, 63, 0
3, 29136, Note_on_c, 0, 65, 72
3, 29184, Note_on_c, 0, 65, 0
3, 29184, Note_on_c, 0, 67, 72
3, 29472, Note_on_c, 0, 67, 0
3, 29472, Note_on_c, 0, 66, 72
3, 29520, Note_on_c, 0, 66, 0
3, 29520, Note_on_c, 0, 67, 72
3, 29568, Note_on_c, 0, 67, 0
3, 29568, Note_on_c, 0, 69, 72
3, 29856, Note_on_c, 0, 69, 0
3, 29856, Note_on_c, 0, 67, 72
3, 29904, Note_on_c, 0, 67, 0
3, 29904, Note_on_c, 0, 65, 72
3, 29952, Note_on_c, 0, 65, 0
3, 29952, Note_on_c, 0, 63, 72
3, 30144, Note_on_c, 0, 63, 0
3, 30144, Note_on_c, 0, 62, 72
3, 30336, Note_on_c, 0, 62, 0
3, 30336, Note_on_c, 0, 62, 72
3, 30528, Note_on_c, 0, 62, 0
3, 30528, Note_on_c, 0, 67, 72
3, 30720, Note_on_c, 0, 67, 0
3, 30720, Note_on_c, 0, 65, 72
3, 30912, Note_on_c, 0, 65, 0
3, 30912, Note_on_c, 0, 62, 88
3, 31104, Note_on_c, 0, 62, 0
3, 31104, Note_on_c, 0, 69, 88
3, 31392, Note_on_c, 0, 69, 0
3, 31392, Note_on_c, 0, 67, 88
3, 31488, Note_on_c, 0, 67, 0
3, 31488, Note_on_c, 0, 65, 88
3, 31872, Note_on_c, 0, 65, 0
3, 31872, Note_on_c, 0, 67, 88
3, 32256, Note_on_c, 0, 67, 0
3, 32256, Note_on_c, 0, 69, 88
3, 32640, Note_on_c, 0, 69, 0
3, 32640, Note_on_c, 0, 62, 88
3, 32832, Note_on_c, 0, 62, 0
3, 33024, Note_on_c, 0, 70, 72
3, 33120, Note_on_c, 0, 70, 0
3, 33120, Note_on_c, 0, 69, 72
3, 33168, Note_on_c, 0, 69, 0
3, 33168, Note_on_c, 0, 67, 72
3, 33216, Note_on_c, 0, 67, 0
3, 33216, Note_on_c, 0, 65, 72
3, 33312, Note_on_c, 0, 65, 0
3, 33312, Note_on_c, 0, 67, 72
3, 33408, Note_on_c, 0, 67, 0
3, 33408, Note_on_c, 0, 69, 72
3, 33504, Note_on_c, 0, 69, 0
3, 33504, Note_on_c, 0, 70, 72
3, 33600, Note_on_c, 0, 70, 0
3, 33600, Note_on_c, 0, 72, 72
3, 33696, Note_on_c, 0, 72, 0
3, 33696, Note_on_c, 0, 70, 72
3, 33744, Note_on_c, 0, 70, 0
3, 33744, Note_on_c, 0, 69, 72
3, 33792, Note_on_c, 0, 69, 0
3, 33792, Note_on_c, 0, 67, 72
3, 33888, Note_on_c, 0, 67, 0
3, 33888, Note_on_c, 0, 69, 72
3, 33984, Note_on_c, 0, 69, 0
3, 33984, Note_on_c, 0, 70, 72
3, 34176, Note_on_c, 0, 70, 0
3, 34176, Note_on_c, 0, 70, 72
3, 34272, Note_on_c, 0, 70, 0
3, 34272, Note_on_c, 0, 69, 72
3, 34320, Note_on_c, 0, 69, 0
3, 34320, Note_on_c, 0, 67, 72
3, 34368, Note_on_c, 0, 67, 0
3, 34368, Note_on_c, 0, 69, 72
3, 34560, Note_on_c, 0, 69, 0
3, 34560, Note_on_c, 0, 69, 72
3, 34656, Note_on_c, 0, 69, 0
3, 34656, Note_on_c, 0, 70, 72
3, 34704, Note_on_c, 0, 70, 0
3, 34704, Note_on_c, 0, 72, 72
3, 34752, Note_on_c, 0, 72, 0
3, 34752, Note_on_c, 0, 70, 72
3, 34848, Note_on_c, 0, 70, 0
3, 34848, Note_on_c, 0, 69, 72
3, 34944, Note_on_c, 0, 69, 0
3, 34944, Note_on_c, 0, 67, 72
3, 35040, Note_on_c, 0, 67, 0
3, 35040, Note_on_c, 0, 66, 72
3, 35136, Note_on_c, 0, 66, 0
3, 35136, Note_on_c, 0, 67, 88
3, 35328, Note_on_c, 0, 67, 0
3, 35328, Note_on_c, 0, 74, 88
3, 35616, Note_on_c, 0, 74, 0
3, 35616, Note_on_c, 0, 72, 88
3, 35712, Note_on_c, 0, 72, 0
3, 35712, Note_on_c, 0, 70, 88
3, 36096, Note_on_c, 0, 70, 0
3, 36096, Note_on_c, 0, 72, 88
3, 36480, Note_on_c, 0, 72, 0
3, 36480, Note_on_c, 0, 74, 88
3, 36864, Note_on_c, 0, 74, 0
3, 36864, Note_on_c, 0, 67, 88
3, 37152, Note_on_c, 0, 67, 0
3, 37152, Note_on_c, 0, 66, 72
3, 37200, Note_on_c, 0, 66, 0
3, 37200, Note_on_c, 0, 67, 72
3, 37248, Note_on_c, 0, 67, 0
3, 37248, Note_on_c, 0, 69, 72
3, 37344, Note_on_c, 0, 69, 0
3, 37344, Note_on_c, 0, 72, 72
3, 37392, Note_on_c, 0, 72, 0
3, 37392, Note_on_c, 0, 70, 72
3, 37440, Note_on_c, 0, 70, 0
3, 37440, Note_on_c, 0, 69, 72
3, 37488, Note_on_c, 0, 69, 0
3, 37488, Note_on_c, 0, 67, 72
3, 37536, Note_on_c, 0, 67, 0
3, 37536, Note_on_c, 0, 69, 72
3, 37632, Note_on_c, 0, 69, 0
3, 37632, Note_on_c, 0, 69, 72
3, 37728, Note_on_c, 0, 69, 0
3, 37728, Note_on_c, 0, 67, 72
3, 37824, Note_on_c, 0, 67, 0
3, 37824, Note_on_c, 0, 62, 88
3, 38016, Note_on_c, 0, 62, 0
3, 38016, Note_on_c, 0, 69, 88
3, 38304, Note_on_c, 0, 69, 0
3, 38304, Note_on_c, 0, 67, 88
3, 38400, Note_on_c, 0, 67, 0
3, 38400, Note_on_c, 0, 65, 88
3, 38784, Note_on_c, 0, 65, 0
3, 38784, Note_on_c, 0, 67, 88
3, 39168, Note_on_c, 0, 67, 0
3, 39168, Note_on_c, 0, 69, 88
3, 39552, Note_on_c, 0, 69, 0
3, 39552, Note_on_c, 0, 62, 88
3, 39648, Note_on_c, 0, 62, 0
3, 39648, Note_on_c, 0, 67, 72
3, 39696, Note_on_c, 0, 67, 0
3, 39696, Note_on_c, 0, 65, 72
3, 39744, Note_on_c, 0, 65, 0
3, 39744, Note_on_c, 0, 67, 72
3, 39792, Note_on_c, 0, 67, 0
3, 39792, Note_on_c, 0, 69, 72
3, 39840, Note_on_c, 0, 69, 0
3, 39840, Note_on_c, 0, 70, 72
3, 39936, Note_on_c, 0, 70, 0
3, 39936, Note_on_c, 0, 64, 72
3, 40032, Note_on_c, 0, 64, 0
3, 40032, Note_on_c, 0, 69, 72
3, 40224, Note_on_c, 0, 69, 0
3, 40224, Note_on_c, 0, 67, 72
3, 40272, Note_on_c, 0, 67, 0
3, 40272, Note_on_c, 0, 65, 72
3, 40320, Note_on_c, 0, 65, 0
3, 40320, Note_on_c, 0, 64, 72
3, 40416, Note_on_c, 0, 64, 0
3, 40416, Note_on_c, 0, 62, 72
3, 40512, Note_on_c, 0, 62, 0
3, 40512, Note_on_c, 0, 64, 72
3, 40704, Note_on_c, 0, 64, 0
3, 40704, Note_on_c, 0, 62, 72
3, 40800, Note_on_c, 0, 62, 0
3, 40800, Note_on_c, 0, 65, 72
3, 40848, Note_on_c, 0, 65, 0
3, 40848, Note_on_c, 0, 64, 72
3, 40896, Note_on_c, 0, 64, 0
3, 40896, Note_on_c, 0, 65, 72
3, 40944, Note_on_c, 0, 65, 0
3, 40944, Note_on_c, 0, 67, 72
3, 40992, Note_on_c, 0, 67, 0
3, 40992, Note_on_c, 0, 69, 72
3, 41088, Note_on_c, 0, 69, 0
3, 41088, Note_on_c, 0, 69, 72
3, 41184, Note_on_c, 0, 69, 0
3, 41184, Note_on_c, 0, 67, 72
3, 41232, Note_on_c, 0, 67, 0
3, 41232, Note_on_c, 0, 66, 72
3, 41280, Note_on_c, 0, 66, 0
3, 41280, Note_on_c, 0, 67, 72
3, 41376, Note_on_c, 0, 67, 0
3, 41376, Note_on_c, 0, 70, 72
3, 41472, Note_on_c, 0, 70, 0
3, 41472, Note_on_c, 0, 64, 72
3, 41664, Note_on_c, 0, 64, 0
3, 41760, Note_on_c, 0, 76, 72
3, 41856, Note_on_c, 0, 76, 0
3, 41856, Note_on_c, 0, 76, 72
3, 41952, Note_on_c, 0, 76, 0
3, 41952, Note_on_c, 0, 69, 72
3, 42048, Note_on_c, 0, 69, 0
3, 42048, Note_on_c, 0, 74, 72
3, 42240, Note_on_c, 0, 74, 0
3, 42240, Note_on_c, 0, 74, 72
3, 42336, Note_on_c, 0, 74, 0
3, 42336, Note_on_c, 0, 76, 72
3, 42384, Note_on_c, 0, 76, 0
3, 42384, Note_on_c, 0, 77, 72
3, 42432, Note_on_c, 0, 77, 0
3, 42432, Note_on_c, 0, 76, 72
3, 42528, Note_on_c, 0, 76, 0
3, 42528, Note_on_c, 0, 74, 72
3, 42624, Note_on_c, 0, 74, 0
3, 42624, Note_on_c, 0, 73, 72
3, 42720, Note_on_c, 0, 73, 0
3, 42720, Note_on_c, 0, 69, 72
3, 42912, Note_on_c, 0, 69, 0
3, 42912, Note_on_c, 0, 67, 72
3, 42960, Note_on_c, 0, 67, 0
3, 42960, Note_on_c, 0, 65, 72
3, 43008, Note_on_c, 0, 65, 0
3, 43008, Note_on_c, 0, 67, 72
3, 43104, Note_on_c, 0, 67, 0
3, 43104, Note_on_c, 0, 64, 72
3, 43248, Note_on_c, 0, 64, 0
3, 43248, Note_on_c, 0, 65, 72
3, 43296, Note_on_c, 0, 65, 0
3, 43296, Note_on_c, 0, 67, 72
3, 43392, Note_on_c, 0, 67, 0
3, 43392, Note_on_c, 0, 67, 72
3, 43488, Note_on_c, 0, 67, 0
3, 43488, Note_on_c, 0, 65, 72
3, 43536, Note_on_c, 0, 65, 0
3, 43536, Note_on_c, 0, 67, 72
3, 43584, Note_on_c, 0, 67, 0
3, 43584, Note_on_c, 0, 65, 72
3, 43632, Note_on_c, 0, 65, 0
3, 43632, Note_on_c, 0, 64, 72
3, 43680, Note_on_c, 0, 64, 0
3, 43680, Note_on_c, 0, 62, 72
3, 43728, Note_on_c, 0, 62, 0
3, 43728, Note_on_c, 0, 61, 72
3, 43776, Note_on_c, 0, 61, 0
3, 43776, Program_c, 0, 0
3, 43776, Note_on_c, 0, 62, 72
3, 43824, Note_on_c, 0, 62, 0
3, 43824, Note_on_c, 0, 57, 72
3, 43872, Note_on_c, 0, 57, 0
3, 43872, Note_on_c, 0, 62, 72
3, 43920, Note_on_c, 0, 62, 0
3, 43920, Note_on_c, 0, 64, 72
3, 43968, Note_on_c, 0, 64, 0
3, 43968, Note_on_c, 0, 65, 72
3, 44016, Note_on_c, 0, 65, 0
3, 44016, Note_on_c, 0, 64, 72
3, 44064, Note_on_c, 0, 64, 0
3, 44064, Note_on_c, 0, 62, 72
3, 44112, Note_on_c, 0, 62, 0
3, 44112, Note_on_c, 0, 65, 72
3, 44160, Note_on_c, 0, 65, 0
3, 44160, Note_on_c, 0, 64, 72
3, 44208, Note_on_c, 0, 64, 0
3, 44208, Note_on_c, 0, 57, 72
3, 44256, Note_on_c, 0, 57, 0
3, 44256, Note_on_c, 0, 64, 72
3, 44304, Note_on_c, 0, 64, 0
3, 44304, Note_on_c, 0, 65, 72
3, 44352, Note_on_c, 0, 65, 0
3, 44352, Note_on_c, 0, 67, 72
3, 44400, Note_on_c, 0, 67, 0
3, 44400, Note_on_c, 0, 65, 72
3, 44424, Note_on_c, 0, 65, 0
3, 44424, Note_on_c, 0, 64, 72
3, 44448, Note_on_c, 0, 64, 0
3, 44448, Note_on_c, 0, 65, 72
3, 44496, Note_on_c, 0, 65, 0
3, 44496, Note_on_c, 0, 67, 72
3, 44544, Note_on_c, 0, 67, 0
3, 44544, Note_on_c, 0, 69, 72
3, 44592, Note_on_c, 0, 69, 0
3, 44592, Note_on_c, 0, 67, 72
3, 44640, Note_on_c, 0, 67, 0
3, 44640, Note_on_c, 0, 65, 72
3, 44688, Note_on_c, 0, 65, 0
3, 44688, Note_on_c, 0, 67, 72
3, 44736, Note_on_c, 0, 67, 0
3, 44736, Note_on_c, 0, 69, 72
3, 44928, Note_on_c, 0, 69, 0
3, 44928, Note_on_c, 0, 69, 72
3, 44976, Note_on_c, 0, 69, 0
3, 44976, Note_on_c, 0, 67, 72
3, 45000, Note_on_c, 0, 67, 0
3, 45000, Note_on_c, 0, 66, 72
3, 45024, Note_on_c, 0, 66, 0
3, 45024, Note_on_c, 0, 67, 72
3, 45072, Note_on_c, 0, 67, 0
3, 45072, Note_on_c, 0, 69, 72
3, 45120, Note_on_c, 0, 69, 0
3, 45120, Note_on_c, 0, 70, 72
3, 45312, Note_on_c, 0, 70, 0
3, 45312, Note_on_c, 0, 70, 72
3, 45360, Note_on_c, 0, 70, 0
3, 45360, Note_on_c, 0, 69, 72
3, 45408, Note_on_c, 0, 69, 0
3, 45408, Note_on_c, 0, 67, 72
3, 45456, Note_on_c, 0, 67, 0
3, 45456, Note_on_c, 0, 65, 72
3, 45504, Note_on_c, 0, 65, 0
3, 45504, Note_on_c, 0, 64, 72
3, 45552, Note_on_c, 0, 64, 0
3, 45552, Note_on_c, 0, 62, 72
3, 45600, Note_on_c, 0, 62, 0
3, 45600, Note_on_c, 0, 64, 72
3, 45648, Note_on_c, 0, 64, 0
3, 45648, Note_on_c, 0, 67, 72
3, 45696, Note_on_c, 0, 67, 0
3, 45696, Note_on_c, 0, 65, 72
3, 45744, Note_on_c, 0, 65, 0
3, 45744, Note_on_c, 0, 64, 72
3, 45792, Note_on_c, 0, 64, 0
3, 45792, Note_on_c, 0, 62, 72
3, 45840, Note_on_c, 0, 62, 0
3, 45840, Note_on_c, 0, 60, 72
3, 45888, Note_on_c, 0, 60, 0
3, 45888, Note_on_c, 0, 59, 72
3, 45936, Note_on_c, 0, 59, 0
3, 45936, Note_on_c, 0, 57, 72
3, 45984, Note_on_c, 0, 57, 0
3, 45984, Note_on_c, 0, 59, 72
3, 46032, Note_on_c, 0, 59, 0
3, 46032, Note_on_c, 0, 62, 72
3, 46080, Note_on_c, 0, 62, 0
3, 46080, Note_on_c, 0, 60, 72
3, 46128, Note_on_c, 0, 60, 0
3, 46128, Note_on_c, 0, 59, 72
3, 46176, Note_on_c, 0, 59, 0
3, 46176, Note_on_c, 0, 57, 72
3, 46224, Note_on_c, 0, 57, 0
3, 46224, Note_on_c, 0, 56, 72
3, 46272, Note_on_c, 0, 56, 0
3, 46272, Note_on_c, 0, 57, 72
3, 46368, Note_on_c, 0, 57, 0
3, 46368, Note_on_c, 0, 59, 72
3, 46464, Note_on_c, 0, 59, 0
3, 46464, Note_on_c, 0, 60, 72
3, 46608, Note_on_c, 0, 60, 0
3, 46608, Note_on_c, 0, 62, 72
3, 46656, Note_on_c, 0, 62, 0
3, 46656, Note_on_c, 0, 64, 72
3, 46752, Note_on_c, 0, 64, 0
3, 46752, Note_on_c, 0, 66, 72
3, 46848, Note_on_c, 0, 66, 0
3, 46848, Note_on_c, 0, 67, 72
3, 46944, Note_on_c, 0, 67, 0
3, 46944, Note_on_c, 0, 68, 72
3, 47136, Note_on_c, 0, 68, 0
3, 47136, Note_on_c, 0, 69, 72
3, 47232, Note_on_c, 0, 69, 0
3, 47232, Note_on_c, 0, 69, 72
3, 47280, Note_on_c, 0, 69, 0
3, 47280, Note_on_c, 0, 65, 72
3, 47328, Note_on_c, 0, 65, 0
3, 47328, Note_on_c, 0, 64, 72
3, 47376, Note_on_c, 0, 64, 0
3, 47376, Note_on_c, 0, 62, 72
3, 47424, Note_on_c, 0, 62, 0
3, 47424, Note_on_c, 0, 60, 72
3, 47472, Note_on_c, 0, 60, 0
3, 47472, Note_on_c, 0, 59, 72
3, 47520, Note_on_c, 0, 59, 0
3, 47520, Note_on_c, 0, 57, 72
3, 47568, Note_on_c, 0, 57, 0
3, 47568, Note_on_c, 0, 55, 72
3, 47616, Note_on_c, 0, 55, 0
3, 47616, Note_on_c, 0, 53, 72
3, 47664, Note_on_c, 0, 53, 0
3, 47664, Note_on_c, 0, 67, 72
3, 47712, Note_on_c, 0, 67, 0
3, 47712, Note_on_c, 0, 65, 72
3, 47760, Note_on_c, 0, 65, 0
3, 47760, Note_on_c, 0, 64, 72
3, 47808, Note_on_c, 0, 64, 0
3, 47808, Note_on_c, 0, 62, 72
3, 47856, Note_on_c, 0, 62, 0
3, 47856, Note_on_c, 0, 60, 72
3, 47904, Note_on_c, 0, 60, 0
3, 47904, Note_on_c, 0, 59, 72
3, 47952, Note_on_c, 0, 59, 0
3, 47952, Note_on_c, 0, 57, 72
3, 48000, Note_on_c, 0, 57, 0
3, 48000, Note_on_c, 0, 56, 72
3, 48096, Note_on_c, 0, 56, 0
3, 48096, Note_on_c, 0, 57, 72
3, 48288, Note_on_c, 0, 57, 0
3, 48288, Note_on_c, 0, 56, 72
3, 48384, Note_on_c, 0, 56, 0
3, 48384, Note_on_c, 0, 57, 72
3, 48480, Note_on_c, 0, 57, 0
3, 48480, Note_on_c, 0, 59, 72
3, 48576, Note_on_c, 0, 59, 0
3, 48576, Note_on_c, 0, 60, 72
3, 48672, Note_on_c, 0, 60, 0
3, 48672, Note_on_c, 0, 61, 72
3, 48768, Note_on_c, 0, 61, 0
3, 48768, Note_on_c, 0, 62, 72
3, 48864, Note_on_c, 0, 62, 0
3, 48864, Note_on_c, 0, 69, 72
3, 49056, Note_on_c, 0, 69, 0
3, 49056, Note_on_c, 0, 67, 72
3, 49152, Note_on_c, 0, 67, 0
3, 49152, Note_on_c, 0, 67, 72
3, 49248, Note_on_c, 0, 67, 0
3, 49248, Note_on_c, 0, 65, 72
3, 49296, Note_on_c, 0, 65, 0
3, 49296, Note_on_c, 0, 64, 72
3, 49344, Note_on_c, 0, 64, 0
3, 49344, Note_on_c, 0, 62, 72
3, 49440, Note_on_c, 0, 62, 0
3, 49440, Note_on_c, 0, 67, 72
3, 49536, Note_on_c, 0, 67, 0
3, 49536, Note_on_c, 0, 67, 72
3, 49584, Note_on_c, 0, 67, 0
3, 49584, Note_on_c, 0, 65, 72
3, 49632, Note_on_c, 0, 65, 0
3, 49632, Note_on_c, 0, 67, 72
3, 49680, Note_on_c, 0, 67, 0
3, 49680, Note_on_c, 0, 69, 72
3, 49728, Note_on_c, 0, 69, 0
3, 49728, Note_on_c, 0, 70, 72
3, 49776, Note_on_c, 0, 70, 0
3, 49776, Note_on_c, 0, 69, 72
3, 49800, Note_on_c, 0, 69, 0
3, 49800, Note_on_c, 0, 67, 72
3, 49824, Note_on_c, 0, 67, 0
3, 49824, Note_on_c, 0, 69, 72
3, 49872, Note_on_c, 0, 69, 0
3, 49872, Note_on_c, 0, 70, 72
3, 49920, Note_on_c, 0, 70, 0
3, 49920, Note_on_c, 0, 61, 72
3, 50016, Note_on_c, 0, 61, 0
3, 50016, Note_on_c, 0, 62, 72
3, 50160, Note_on_c, 0, 62, 0
3, 50160, Note_on_c, 0, 61, 72
3, 50208, Note_on_c, 0, 61, 0
3, 50208, Note_on_c, 0, 65, 72
3, 50256, Note_on_c, 0, 65, 0
3, 50256, Note_on_c, 0, 64, 72
3, 50304, Note_on_c, 0, 64, 0
3, 50304, Note_on_c, 0, 62, 72
3, 50496, Note_on_c, 0, 62, 0
3, 50496, Note_on_c, 0, 62, 72
3, 50544, Note_on_c, 0, 62, 0
3, 50544, Note_on_c, 0, 69, 72
3, 50592, Note_on_c, 0, 69, 0
3, 50592, Note_on_c, 0, 67, 72
3, 50640, Note_on_c, 0, 67, 0
3, 50640, Note_on_c, 0, 65, 72
3, 50688, Note_on_c, 0, 65, 0
3, 50688, Note_on_c, 0, 64, 72
3, 50784, Note_on_c, 0, 64, 0
3, 50784, Note_on_c, 0, 69, 72
3, 50880, Note_on_c, 0, 69, 0
3, 50880, Note_on_c, 0, 67, 72
3, 50976, Note_on_c, 0, 67, 0
3, 50976, Note_on_c, 0, 70, 72
3, 51072, Note_on_c, 0, 70, 0
3, 51072, Note_on_c, 0, 69, 72
3, 51360, Note_on_c, 0, 69, 0
3, 51360, Note_on_c, 0, 68, 72
3, 51456, Note_on_c, 0, 68, 0
3, 51456, Note_on_c, 0, 69, 72
3, 51648, Note_on_c, 0, 69, 0
3, 51744, Note_on_c, 0, 64, 72
3, 51840, Note_on_c, 0, 64, 0
3, 51840, Note_on_c, 0, 64, 72
3, 52032, Note_on_c, 0, 64, 0
3, 52128, Note_on_c, 0, 69, 72
3, 52224, Note_on_c, 0, 69, 0
3, 52224, Note_on_c, 0, 74, 72
3, 52368, Note_on_c, 0, 74, 0
3, 52368, Note_on_c, 0, 72, 72
3, 52416, Note_on_c, 0, 72, 0
3, 52416, Note_on_c, 0, 71, 72
3, 52512, Note_on_c, 0, 71, 0
3, 52512, Note_on_c, 0, 69, 72
3, 52560, Note_on_c, 0, 69, 0
3, 52560, Note_on_c, 0, 68, 72
3, 52608, Note_on_c, 0, 68, 0
3, 52608, Note_on_c, 0, 69, 72
3, 52704, Note_on_c, 0, 69, 0
3, 52896, Note_on_c, 0, 72, 72
3, 52992, Note_on_c, 0, 72, 0
3, 52992, Note_on_c, 0, 69, 72
3, 53280, Note_on_c, 0, 69, 0
3, 53280, Note_on_c, 0, 68, 72
3, 53328, Note_on_c, 0, 68, 0
3, 53328, Note_on_c, 0, 69, 72
3, 53376, Note_on_c, 0, 69, 0
3, 53376, Note_on_c, 0, 71, 72
3, 53424, Note_on_c, 0, 71, 0
3, 53424, Note_on_c, 0, 76, 72
3, 53472, Note_on_c, 0, 76, 0
3, 53472, Note_on_c, 0, 69, 72
3, 53664, Note_on_c, 0, 69, 0
3, 53664, Note_on_c, 0, 68, 72
3, 53760, Note_on_c, 0, 68, 0
3, 53760, Note_on_c, 0, 69, 72
3, 53856, Note_on_c, 0, 69, 0
3, 54576, Note_on_c, 0, 74, 72
3, 54624, Note_on_c, 0, 74, 0
3, 54624, Note_on_c, 0, 72, 72
3, 54672, Note_on_c, 0, 72, 0
3, 54672, Note_on_c, 0, 70, 72
3, 54720, Note_on_c, 0, 70, 0
3, 54720, Note_on_c, 0, 69, 72
3, 54768, Note_on_c, 0, 69, 0
3, 54768, Note_on_c, 0, 67, 72
3, 54816, Note_on_c, 0, 67, 0
3, 54816, Note_on_c, 0, 69, 72
3, 54864, Note_on_c, 0, 69, 0
3, 54864, Note_on_c, 0, 72, 72
3, 54912, Note_on_c, 0, 72, 0
3, 54912, Note_on_c, 0, 71, 72
3, 55008, Note_on_c, 0, 71, 0
3, 55008, Note_on_c, 0, 72, 72
3, 55200, Note_on_c, 0, 72, 0
3, 55200, Note_on_c, 0, 70, 72
3, 55296, Note_on_c, 0, 70, 0
3, 55296, Note_on_c, 0, 70, 72
3, 55344, Note_on_c, 0, 70, 0
3, 55344, Note_on_c, 0, 67, 72
3, 55392, Note_on_c, 0, 67, 0
3, 55392, Note_on_c, 0, 69, 72
3, 55488, Note_on_c, 0, 69, 0
3, 55488, Note_on_c, 0, 70, 72
3, 55584, Note_on_c, 0, 70, 0
3, 55584, Note_on_c, 0, 67, 72
3, 55680, Note_on_c, 0, 67, 0
3, 55680, Note_on_c, 0, 67, 72
3, 55728, Note_on_c, 0, 67, 0
3, 55728, Note_on_c, 0, 69, 72
3, 55776, Note_on_c, 0, 69, 0
3, 55776, Note_on_c, 0, 67, 72
3, 55824, Note_on_c, 0, 67, 0
3, 55824, Note_on_c, 0, 65, 72
3, 55872, Note_on_c, 0, 65, 0
3, 55872, Note_on_c, 0, 64, 72
3, 55920, Note_on_c, 0, 64, 0
3, 55920, Note_on_c, 0, 62, 72
3, 55968, Note_on_c, 0, 62, 0
3, 55968, Note_on_c, 0, 64, 72
3, 56016, Note_on_c, 0, 64, 0
3, 56016, Note_on_c, 0, 67, 72
3, 56064, Note_on_c, 0, 67, 0
3, 56064, Note_on_c, 0, 65, 72
3, 56112, Note_on_c, 0, 65, 0
3, 56112, Note_on_c, 0, 69, 72
3, 56160, Note_on_c, 0, 69, 0
3, 56160, Note_on_c, 0, 62, 72
3, 56256, Note_on_c, 0, 62, 0
3, 59616, Note_on_c, 0, 72, 88
3, 59664, Note_on_c, 0, 72, 0
3, 59664, Note_on_c, 0, 74, 88
3, 59712, Note_on_c, 0, 74, 0
3, 59712, Note_on_c, 0, 72, 88
3, 59760, Note_on_c, 0, 72, 0
3, 59760, Note_on_c, 0, 71, 88
3, 59808, Note_on_c, 0, 71, 0
3, 59808, Note_on_c, 0, 69, 88
3, 59856, Note_on_c, 0, 69, 0
3, 59856, Note_on_c, 0, 68, 88
3, 59904, Note_on_c, 0, 68, 0
3, 59904, Note_on_c, 0, 69, 88
3, 59952, Note_on_c, 0, 69, 0
3, 59952, Note_on_c, 0, 64, 88
3, 60000, Note_on_c, 0, 64, 0
3, 60000, Note_on_c, 0, 69, 88
3, 60048, Note_on_c, 0, 69, 0
3, 60048, Note_on_c, 0, 71, 88
3, 60096, Note_on_c, 0, 71, 0
3, 60096, Note_on_c, 0, 72, 88
3, 60144, Note_on_c, 0, 72, 0
3, 60144, Note_on_c, 0, 71, 88
3, 60192, Note_on_c, 0, 71, 0
3, 60192, Note_on_c, 0, 69, 88
3, 60240, Note_on_c, 0, 69, 0
3, 60240, Note_on_c, 0, 72, 88
3, 60288, Note_on_c, 0, 72, 0
3, 60288, Note_on_c, 0, 71, 88
3, 60336, Note_on_c, 0, 71, 0
3, 60336, Note_on_c, 0, 64, 88
3, 60384, Note_on_c, 0, 64, 0
3, 60384, Note_on_c, 0, 71, 88
3, 60432, Note_on_c, 0, 71, 0
3, 60432, Note_on_c, 0, 72, 88
3, 60480, Note_on_c, 0, 72, 0
3, 60480, Note_on_c, 0, 74, 88
3, 60528, Note_on_c, 0, 74, 0
3, 60528, Note_on_c, 0, 72, 88
3, 60552, Note_on_c, 0, 72, 0
3, 60552, Note_on_c, 0, 71, 88
3, 60576, Note_on_c, 0, 71, 0
3, 60576, Note_on_c, 0, 72, 88
3, 60624, Note_on_c, 0, 72, 0
3, 60624, Note_on_c, 0, 74, 88
3, 60672, Note_on_c, 0, 74, 0
3, 60672, Note_on_c, 0, 76, 88
3, 60720, Note_on_c, 0, 76, 0
3, 60720, Note_on_c, 0, 74, 88
3, 60768, Note_on_c, 0, 74, 0
3, 60768, Note_on_c, 0, 72, 88
3, 60816, Note_on_c, 0, 72, 0
3, 60816, Note_on_c, 0, 74, 88
3, 60864, Note_on_c, 0, 74, 0
3, 60864, Note_on_c, 0, 76, 72
3, 61056, Note_on_c, 0, 76, 0
3, 61056, Note_on_c, 0, 76, 72
3, 61104, Note_on_c, 0, 76, 0
3, 61104, Note_on_c, 0, 74, 72
3, 61128, Note_on_c, 0, 74, 0
3, 61128, Note_on_c, 0, 73, 72
3, 61152, Note_on_c, 0, 73, 0
3, 61152, Note_on_c, 0, 74, 72
3, 61200, Note_on_c, 0, 74, 0
3, 61200, Note_on_c, 0, 76, 72
3, 61248, Note_on_c, 0, 76, 0
3, 61248, Note_on_c, 0, 77, 72
3, 61440, Note_on_c, 0, 77, 0
3, 61440, Note_on_c, 0, 77, 72
3, 61488, Note_on_c, 0, 77, 0
3, 61488, Note_on_c, 0, 76, 72
3, 61536, Note_on_c, 0, 76, 0
3, 61536, Note_on_c, 0, 74, 72
3, 61584, Note_on_c, 0, 74, 0
3, 61584, Note_on_c, 0, 72, 72
3, 61632, Note_on_c, 0, 72, 0
3, 61632, Note_on_c, 0, 71, 72
3, 61680, Note_on_c, 0, 71, 0
3, 61680, Note_on_c, 0, 69, 72
3, 61728, Note_on_c, 0, 69, 0
3, 61728, Note_on_c, 0, 71, 72
3, 61776, Note_on_c, 0, 71, 0
3, 61776, Note_on_c, 0, 74, 72
3, 61824, Note_on_c, 0, 74, 0
3, 61824, Note_on_c, 0, 72, 72
3, 62208, Note_on_c, 0, 72, 0
3, 62208, Note_on_c, 0, 72, 72
3, 62256, Note_on_c, 0, 72, 0
3, 62256, Note_on_c, 0, 74, 72
3, 62304, Note_on_c, 0, 74, 0
3, 62304, Note_on_c, 0, 72, 72
3, 62352, Note_on_c, 0, 72, 0
3, 62352, Note_on_c, 0, 70, 72
3, 62400, Note_on_c, 0, 70, 0
3, 62400, Note_on_c, 0, 69, 72
3, 62448, Note_on_c, 0, 69, 0
3, 62448, Note_on_c, 0, 67, 72
3, 62496, Note_on_c, 0, 67, 0
3, 62496, Note_on_c, 0, 69, 72
3, 62544, Note_on_c, 0, 69, 0
3, 62544, Note_on_c, 0, 72, 72
3, 62592, Note_on_c, 0, 72, 0
3, 62592, Note_on_c, 0, 70, 72
3, 62976, Note_on_c, 0, 70, 0
3, 62976, Note_on_c, 0, 70, 72
3, 63024, Note_on_c, 0, 70, 0
3, 63024, Note_on_c, 0, 72, 72
3, 63072, Note_on_c, 0, 72, 0
3, 63072, Note_on_c, 0, 70, 72
3, 63120, Note_on_c, 0, 70, 0
3, 63120, Note_on_c, 0, 69, 72
3, 63168, Note_on_c, 0, 69, 0
3, 63168, Note_on_c, 0, 67, 72
3, 63216, Note_on_c, 0, 67, 0
3, 63216, Note_on_c, 0, 65, 72
3, 63264, Note_on_c, 0, 65, 0
3, 63264, Note_on_c, 0, 67, 72
3, 63312, Note_on_c, 0, 67, 0
3, 63312, Note_on_c, 0, 70, 72
3, 63360, Note_on_c, 0, 70, 0
3, 63360, Note_on_c, 0, 69, 72
3, 63408, Note_on_c, 0, 69, 0
3, 63408, Note_on_c, 0, 70, 72
3, 63456, Note_on_c, 0, 70, 0
3, 63456, Note_on_c, 0, 69, 72
3, 63504, Note_on_c, 0, 69, 0
3, 63504, Note_on_c, 0, 67, 72
3, 63552, Note_on_c, 0, 67, 0
3, 63552, Note_on_c, 0, 65, 72
3, 63600, Note_on_c, 0, 65, 0
3, 63600, Note_on_c, 0, 64, 72
3, 63648, Note_on_c, 0, 64, 0
3, 63648, Note_on_c, 0, 65, 72
3, 63696, Note_on_c, 0, 65, 0
3, 63696, Note_on_c, 0, 69, 72
3, 63744, Note_on_c, 0, 69, 0
3, 63744, Note_on_c, 0, 62, 72
3, 63792, Note_on_c, 0, 62, 0
3, 63792, Note_on_c, 0, 64, 72
3, 63840, Note_on_c, 0, 64, 0
3, 63840, Note_on_c, 0, 65, 72
3, 63984, Note_on_c, 0, 65, 0
3, 63984, Note_on_c, 0, 64, 72
3, 64032, Note_on_c, 0, 64, 0
3, 64032, Note_on_c, 0, 70, 72
3, 64128, Note_on_c, 0, 70, 0
3, 64128, Note_on_c, 0, 70, 72
3, 64224, Note_on_c, 0, 70, 0
3, 64224, Note_on_c, 0, 69, 72
3, 64272, Note_on_c, 0, 69, 0
3, 64272, Note_on_c, 0, 67, 72
3, 64320, Note_on_c, 0, 67, 0
3, 64320, Note_on_c, 0, 65, 72
3, 64368, Note_on_c, 0, 65, 0
3, 64368, Note_on_c, 0, 69, 72
3, 64416, Note_on_c, 0, 69, 0
3, 64416, Note_on_c, 0, 62, 72
3, 64512, Note_on_c, 0, 62, 0
3, 64512, Note_on_c, 0, 62, 72
3, 64560, Note_on_c, 0, 62, 0
3, 64560, Note_on_c, 0, 67, 72
3, 64608, Note_on_c, 0, 67, 0
3, 64608, Note_on_c, 0, 60, 72
3, 64704, Note_on_c, 0, 60, 0
3, 64704, Note_on_c, 0, 62, 72
3, 64896, Note_on_c, 0, 62, 0
3, 64896, Note_on_c, 0, 64, 72
3, 64992, Note_on_c, 0, 64, 0
3, 64992, Note_on_c, 0, 65, 72
3, 65040, Note_on_c, 0, 65, 0
3, 65040, Note_on_c, 0, 67, 72
3, 65088, Note_on_c, 0, 67, 0
3, 65088, Note_on_c, 0, 69, 72
3, 65184, Note_on_c, 0, 69, 0
3, 65184, Note_on_c, 0, 67, 72
3, 65280, Note_on_c, 0, 67, 0
3, 65280, Note_on_c, 0, 67, 72
3, 65376, Note_on_c, 0, 67, 0
3, 65376, Note_on_c, 0, 65, 72
3, 65424, Note_on_c, 0, 65, 0
3, 65424, Note_on_c, 0, 64, 72
3, 65472, Note_on_c, 0, 64, 0
3, 65472, Note_on_c, 0, 65, 72
3, 65664, Note_on_c, 0, 65, 0
3, 65664, Note_on_c, 0, 65, 72
3, 65712, Note_on_c, 0, 65, 0
3, 65712, Note_on_c, 0, 63, 72
3, 65760, Note_on_c, 0, 63, 0
3, 65760, Note_on_c, 0, 65, 72
3, 65904, Note_on_c, 0, 65, 0
3, 65904, Note_on_c, 0, 62, 72
3, 65952, Note_on_c, 0, 62, 0
3, 65952, Note_on_c, 0, 63, 72
3, 66000, Note_on_c, 0, 63, 0
3, 66000, Note_on_c, 0, 67, 72
3, 66048, Note_on_c, 0, 67, 0
3, 66048, Note_on_c, 0, 60, 72
3, 66192, Note_on_c, 0, 60, 0
3, 66192, Note_on_c, 0, 62, 72
3, 66240, Note_on_c, 0, 62, 0
3, 66240, Note_on_c, 0, 63, 72
3, 66432, Note_on_c, 0, 63, 0
3, 66432, Note_on_c, 0, 63, 72
3, 66528, Note_on_c, 0, 63, 0
3, 66528, Note_on_c, 0, 62, 72
3, 66576, Note_on_c, 0, 62, 0
3, 66576, Note_on_c, 0, 60, 72
3, 66624, Note_on_c, 0, 60, 0
3, 66624, Note_on_c, 0, 62, 72
3, 66816, Note_on_c, 0, 62, 0
3, 66816, Note_on_c, 0, 62, 72
3, 66864, Note_on_c, 0, 62, 0
3, 66864, Note_on_c, 0, 62, 72
3, 66912, Note_on_c, 0, 62, 0
3, 66912, Note_on_c, 0, 64, 72
3, 66960, Note_on_c, 0, 64, 0
3, 66960, Note_on_c, 0, 66, 72
3, 67008, Note_on_c, 0, 66, 0
3, 67008, Note_on_c, 0, 67, 72
3, 67200, Note_on_c, 0, 67, 0
3, 67200, Note_on_c, 0, 67, 72
3, 67248, Note_on_c, 0, 67, 0
3, 67248, Note_on_c, 0, 74, 72
3, 67296, Note_on_c, 0, 74, 0
3, 67296, Note_on_c, 0, 72, 72
3, 67344, Note_on_c, 0, 72, 0
3, 67344, Note_on_c, 0, 70, 72
3, 67392, Note_on_c, 0, 70, 0
3, 67392, Note_on_c, 0, 69, 72
3, 67440, Note_on_c, 0, 69, 0
3, 67440, Note_on_c, 0, 67, 72
3, 67488, Note_on_c, 0, 67, 0
3, 67488, Note_on_c, 0, 69, 72
3, 67536, Note_on_c, 0, 69, 0
3, 67536, Note_on_c, 0, 72, 72
3, 67584, Note_on_c, 0, 72, 0
3, 67584, Note_on_c, 0, 66, 72
3, 67776, Note_on_c, 0, 66, 0
3, 67872, Note_on_c, 0, 66, 72
3, 67968, Note_on_c, 0, 66, 0
3, 67968, Note_on_c, 0, 67, 72
3, 68016, Note_on_c, 0, 67, 0
3, 68016, Note_on_c, 0, 69, 72
3, 68064, Note_on_c, 0, 69, 0
3, 68064, Note_on_c, 0, 67, 72
3, 68112, Note_on_c, 0, 67, 0
3, 68112, Note_on_c, 0, 65, 72
3, 68160, Note_on_c, 0, 65, 0
3, 68160, Note_on_c, 0, 64, 72
3, 68208, Note_on_c, 0, 64, 0
3, 68208, Note_on_c, 0, 62, 72
3, 68256, Note_on_c, 0, 62, 0
3, 68256, Note_on_c, 0, 64, 72
3, 68304, Note_on_c, 0, 64, 0
3, 68304, Note_on_c, 0, 67, 72
3, 68352, Note_on_c, 0, 67, 0
3, 68352, Note_on_c, 0, 66, 72
3, 68448, Note_on_c, 0, 66, 0
3, 68448, Note_on_c, 0, 67, 72
3, 68640, Note_on_c, 0, 67, 0
3, 68640, Note_on_c, 0, 66, 72
3, 68688, Note_on_c, 0, 66, 0
3, 68688, Note_on_c, 0, 69, 72
3, 68736, Note_on_c, 0, 69, 0
3, 68736, Note_on_c, 0, 62, 72
3, 68784, Note_on_c, 0, 62, 0
3, 68784, Note_on_c, 0, 66, 72
3, 68832, Note_on_c, 0, 66, 0
3, 68832, Note_on_c, 0, 67, 72
3, 68880, Note_on_c, 0, 67, 0
3, 68880, Note_on_c, 0, 66, 72
3, 68928, Note_on_c, 0, 66, 0
3, 68928, Note_on_c, 0, 67, 72
3, 69024, Note_on_c, 0, 67, 0
3, 69024, Note_on_c, 0, 72, 72
3, 69120, Note_on_c, 0, 72, 0
3, 69120, Note_on_c, 0, 72, 72
3, 69216, Note_on_c, 0, 72, 0
3, 69216, Note_on_c, 0, 70, 72
3, 69312, Note_on_c, 0, 70, 0
3, 69360, Note_on_c, 0, 78, 72
3, 69408, Note_on_c, 0, 78, 0
3, 69408, Note_on_c, 0, 75, 72
3, 69456, Note_on_c, 0, 75, 0
3, 69456, Note_on_c, 0, 74, 72
3, 69504, Note_on_c, 0, 74, 0
3, 69504, Note_on_c, 0, 72, 72
3, 69552, Note_on_c, 0, 72, 0
3, 69552, Note_on_c, 0, 71, 72
3, 69600, Note_on_c, 0, 71, 0
3, 69600, Note_on_c, 0, 72, 72
3, 69648, Note_on_c, 0, 72, 0
3, 69648, Note_on_c, 0, 74, 72
3, 69696, Note_on_c, 0, 74, 0
3, 69696, Note_on_c, 0, 67, 88
3, 69888, Note_on_c, 0, 67, 0
3, 69888, Note_on_c, 0, 74, 88
3, 70176, Note_on_c, 0, 74, 0
3, 70176, Note_on_c, 0, 72, 88
3, 70272, Note_on_c, 0, 72, 0
3, 70272, Note_on_c, 0, 71, 88
3, 70656, Note_on_c, 0, 71, 0
3, 70656, Note_on_c, 0, 72, 88
3, 71040, Note_on_c, 0, 72, 0
3, 71040, Note_on_c, 0, 74, 88
3, 71424, Note_on_c, 0, 74, 0
3, 71424, Note_on_c, 0, 67, 88
3, 71520, Note_on_c, 0, 67, 0
3, 71520, Note_on_c, 0, 69, 72
3, 71616, Note_on_c, 0, 69, 0
3, 71616, Note_on_c, 0, 70, 72
3, 71808, Note_on_c, 0, 70, 0
3, 71808, Note_on_c, 0, 70, 72
3, 71904, Note_on_c, 0, 70, 0
3, 71904, Note_on_c, 0, 69, 72
3, 71952, Note_on_c, 0, 69, 0
3, 71952, Note_on_c, 0, 67, 72
3, 72000, Note_on_c, 0, 67, 0
3, 72000, Note_on_c, 0, 66, 72
3, 72048, Note_on_c, 0, 66, 0
3, 72048, Note_on_c, 0, 64, 72
3, 72096, Note_on_c, 0, 64, 0
3, 72096, Note_on_c, 0, 66, 72
3, 72144, Note_on_c, 0, 66, 0
3, 72144, Note_on_c, 0, 67, 72
3, 72192, Note_on_c, 0, 67, 0
3, 72192, Note_on_c, 0, 62, 72
3, 72384, Note_on_c, 0, 62, 0
3, 72624, Note_on_c, 0, 74, 72
3, 72672, Note_on_c, 0, 74, 0
3, 72672, Note_on_c, 0, 72, 72
3, 72720, Note_on_c, 0, 72, 0
3, 72720, Note_on_c, 0, 70, 72
3, 72768, Note_on_c, 0, 70, 0
3, 72768, Note_on_c, 0, 69, 72
3, 72816, Note_on_c, 0, 69, 0
3, 72816, Note_on_c, 0, 67, 72
3, 72864, Note_on_c, 0, 67, 0
3, 72864, Note_on_c, 0, 69, 72
3, 72912, Note_on_c, 0, 69, 0
3, 72912, Note_on_c, 0, 72, 72
3, 72960, Note_on_c, 0, 72, 0
3, 72960, Note_on_c, 0, 66, 72
3, 73344, Note_on_c, 0, 66, 0
3, 73344, Note_on_c, 0, 67, 72
3, 73392, Note_on_c, 0, 67, 0
3, 73392, Note_on_c, 0, 65, 72
3, 73440, Note_on_c, 0, 65, 0
3, 73440, Note_on_c, 0, 63, 72
3, 73536, Note_on_c, 0, 63, 0
3, 73536, Note_on_c, 0, 62, 72
3, 73632, Note_on_c, 0, 62, 0
3, 73632, Note_on_c, 0, 60, 72
3, 73728, Note_on_c, 0, 60, 0
3, 73728, Note_on_c, 0, 60, 72
3, 73824, Note_on_c, 0, 60, 0
3, 73824, Note_on_c, 0, 58, 72
3, 73920, Note_on_c, 0, 58, 0
3, 74688, Program_c, 0, 0
3, 74688, Note_on_c, 0, 65, 88
3, 74880, Note_on_c, 0, 65, 0
3, 74880, Note_on_c, 0, 64, 88
3, 75072, Note_on_c, 0, 64, 0
3, 75072, Note_on_c, 0, 67, 88
3, 75264, Note_on_c, 0, 67, 0
3, 75264, Note_on_c, 0, 66, 88
3, 75408, Note_on_c, 0, 66, 0
3, 75408, Note_on_c, 0, 68, 88
3, 75456, Note_on_c, 0, 68, 0
3, 75456, Note_on_c, 0, 69, 88
3, 75648, Note_on_c, 0, 69, 0
3, 75648, Note_on_c, 0, 69, 88
3, 75792, Note_on_c, 0, 69, 0
3, 75792, Note_on_c, 0, 68, 88
3, 75816, Note_on_c, 0, 68, 0
3, 75816, Note_on_c, 0, 66, 88
3, 75840, Note_on_c, 0, 66, 0
3, 75840, Note_on_c, 0, 68, 88
3, 76032, Note_on_c, 0, 68, 0
3, 76032, Note_on_c, 0, 69, 88
3, 76128, Note_on_c, 0, 69, 0
3, 76128, Note_on_c, 0, 64, 72
3, 76224, Note_on_c, 0, 64, 0
3, 76224, Note_on_c, 0, 69, 72
3, 76320, Note_on_c, 0, 69, 0
3, 76320, Note_on_c, 0, 67, 72
3, 76416, Note_on_c, 0, 67, 0
3, 76416, Note_on_c, 0, 65, 72
3, 76608, Note_on_c, 0, 65, 0
3, 76704, Note_on_c, 0, 66, 72
3, 76800, Note_on_c, 0, 66, 0
3, 76800, Note_on_c, 0, 67, 72
3, 76896, Note_on_c, 0, 67, 0
3, 76896, Note_on_c, 0, 62, 72
3, 76992, Note_on_c, 0, 62, 0
3, 76992, Note_on_c, 0, 67, 72
3, 77088, Note_on_c, 0, 67, 0
3, 77088, Note_on_c, 0, 65, 72
3, 77184, Note_on_c, 0, 65, 0
3, 77184, Note_on_c, 0, 64, 72
3, 77280, Note_on_c, 0, 64, 0
3, 77280, Note_on_c, 0, 66, 72
3, 77328, Note_on_c, 0, 66, 0
3, 77328, Note_on_c, 0, 67, 72
3, 77376, Note_on_c, 0, 67, 0
3, 77376, Note_on_c, 0, 69, 72
3, 77568, Note_on_c, 0, 69, 0
3, 77568, Note_on_c, 0, 69, 72
3, 77664, Note_on_c, 0, 69, 0
3, 77664, Note_on_c, 0, 67, 72
3, 77760, Note_on_c, 0, 67, 0
3, 77760, Note_on_c, 0, 69, 72
3, 77856, Note_on_c, 0, 69, 0
3, 77856, Note_on_c, 0, 62, 72
3, 77952, Note_on_c, 0, 62, 0
3, 77952, Note_on_c, 0, 67, 72
3, 78096, Note_on_c, 0, 67, 0
3, 78096, Note_on_c, 0, 65, 72
3, 78144, Note_on_c, 0, 65, 0
3, 78144, Note_on_c, 0, 64, 72
3, 78336, Note_on_c, 0, 64, 0
3, 78336, Note_on_c, 0, 62, 72
3, 78432, Note_on_c, 0, 62, 0
3, 79008, Note_on_c, 0, 71, 72
3, 79104, Note_on_c, 0, 71, 0
3, 79104, Note_on_c, 0, 71, 72
3, 79200, Note_on_c, 0, 71, 0
3, 79200, Note_on_c, 0, 64, 72
3, 79296, Note_on_c, 0, 64, 0
3, 79296, Note_on_c, 0, 69, 72
3, 79392, Note_on_c, 0, 69, 0
3, 79392, Note_on_c, 0, 67, 72
3, 79488, Note_on_c, 0, 67, 0
3, 79488, Note_on_c, 0, 65, 72
3, 79776, Note_on_c, 0, 65, 0
3, 79776, Note_on_c, 0, 67, 72
3, 79824, Note_on_c, 0, 67, 0
3, 79824, Note_on_c, 0, 65, 72
3, 79872, Note_on_c, 0, 65, 0
3, 79872, Note_on_c, 0, 64, 72
3, 80064, Note_on_c, 0, 64, 0
3, 80064, Note_on_c, 0, 64, 72
3, 80112, Note_on_c, 0, 64, 0
3, 80112, Note_on_c, 0, 62, 72
3, 80160, Note_on_c, 0, 62, 0
3, 80160, Note_on_c, 0, 63, 72
3, 80208, Note_on_c, 0, 63, 0
3, 80208, Note_on_c, 0, 60, 72
3, 80256, Note_on_c, 0, 60, 0
3, 80256, Note_on_c, 0, 62, 72
3, 80544, Note_on_c, 0, 62, 0
3, 80544, Note_on_c, 0, 64, 72
3, 80592, Note_on_c, 0, 64, 0
3, 80592, Note_on_c, 0, 62, 72
3, 80640, Note_on_c, 0, 62, 0
3, 80640, Note_on_c, 0, 61, 72
3, 80736, Note_on_c, 0, 61, 0
3, 80736, Note_on_c, 0, 64, 72
3, 80832, Note_on_c, 0, 64, 0
3, 80832, Note_on_c, 0, 69, 72
3, 81024, Note_on_c, 0, 69, 0
3, 81024, Note_on_c, 0, 69, 72
3, 81072, Note_on_c, 0, 69, 0
3, 81072, Note_on_c, 0, 62, 72
3, 81120, Note_on_c, 0, 62, 0
3, 81120, Note_on_c, 0, 67, 72
3, 81216, Note_on_c, 0, 67, 0
3, 81600, Note_on_c, 0, 64, 88
3, 81792, Note_on_c, 0, 64, 0
3, 81792, Note_on_c, 0, 65, 88
3, 81984, Note_on_c, 0, 65, 0
3, 81984, Note_on_c, 0, 62, 88
3, 82176, Note_on_c, 0, 62, 0
3, 82176, Note_on_c, 0, 63, 88
3, 82320, Note_on_c, 0, 63, 0
3, 82320, Note_on_c, 0, 62, 88
3, 82368, Note_on_c, 0, 62, 0
3, 82368, Note_on_c, 0, 61, 88
3, 82560, Note_on_c, 0, 61, 0
3, 82560, Note_on_c, 0, 61, 88
3, 82752, Note_on_c, 0, 61, 0
3, 82752, Note_on_c, 0, 62, 88
3, 82944, Note_on_c, 0, 62, 0
3, 82944, Note_on_c, 0, 62, 72
3, 83040, Note_on_c, 0, 62, 0
3, 83040, Note_on_c, 0, 61, 72
3, 83136, Note_on_c, 0, 61, 0
3, 83136, Note_on_c, 0, 62, 72
3, 83232, Note_on_c, 0, 62, 0
3, 83232, Note_on_c, 0, 64, 72
3, 83328, Note_on_c, 0, 64, 0
3, 83328, Note_on_c, 0, 65, 72
3, 83424, Note_on_c, 0, 65, 0
3, 83424, Note_on_c, 0, 64, 72
3, 83472, Note_on_c, 0, 64, 0
3, 83472, Note_on_c, 0, 65, 72
3, 83520, Note_on_c, 0, 65, 0
3, 83520, Note_on_c, 0, 67, 72
3, 83712, Note_on_c, 0, 67, 0
3, 83712, Note_on_c, 0, 67, 72
3, 83760, Note_on_c, 0, 67, 0
3, 83760, Note_on_c, 0, 66, 72
3, 83808, Note_on_c, 0, 66, 0
3, 83808, Note_on_c, 0, 67, 72
3, 83856, Note_on_c, 0, 67, 0
3, 83856, Note_on_c, 0, 71, 72
3, 83904, Note_on_c, 0, 71, 0
3, 83904, Note_on_c, 0, 69, 72
3, 84096, Note_on_c, 0, 69, 0
3, 84096, Note_on_c, 0, 69, 72
3, 84288, Note_on_c, 0, 69, 0
3, 84288, Note_on_c, 0, 67, 72
3, 84384, Note_on_c, 0, 67, 0
3, 84384, Note_on_c, 0, 66, 72
3, 84480, Note_on_c, 0, 66, 0
3, 84480, Note_on_c, 0, 64, 72
3, 84864, Note_on_c, 0, 64, 0
3, 84864, Note_on_c, 0, 64, 72
3, 84960, Note_on_c, 0, 64, 0
3, 84960, Note_on_c, 0, 64, 72
3, 85056, Note_on_c, 0, 64, 0
3, 85056, Note_on_c, 0, 69, 72
3, 85152, Note_on_c, 0, 69, 0
3, 85152, Note_on_c, 0, 67, 72
3, 85248, Note_on_c, 0, 67, 0
3, 85248, Note_on_c, 0, 67, 72
3, 85296, Note_on_c, 0, 67, 0
3, 85296, Note_on_c, 0, 66, 72
3, 85344, Note_on_c, 0, 66, 0
3, 85344, Note_on_c, 0, 67, 72
3, 85392, Note_on_c, 0, 67, 0
3, 85392, Note_on_c, 0, 69, 72
3, 85440, Note_on_c, 0, 69, 0
3, 85440, Note_on_c, 0, 70, 72
3, 85536, Note_on_c, 0, 70, 0
3, 85536, Note_on_c, 0, 71, 72
3, 85632, Note_on_c, 0, 71, 0
3, 85632, Note_on_c, 0, 72, 72
3, 85920, Note_on_c, 0, 72, 0
3, 85920, Note_on_c, 0, 72, 72
3, 85968, Note_on_c, 0, 72, 0
3, 85968, Note_on_c, 0, 70, 72
3, 86016, Note_on_c, 0, 70, 0
3, 86016, Note_on_c, 0, 69, 72
3, 86160, Note_on_c, 0, 69, 0
3, 86160, Note_on_c, 0, 68, 72
3, 86208, Note_on_c, 0, 68, 0
3, 86208, Note_on_c, 0, 67, 72
3, 86400, Note_on_c, 0, 67, 0
3, 86400, Note_on_c, 0, 67, 72
3, 86592, Note_on_c, 0, 67, 0
3, 86592, Note_on_c, 0, 70, 88
3, 86784, Note_on_c, 0, 70, 0
3, 86784, Note_on_c, 0, 69, 88
3, 86976, Note_on_c, 0, 69, 0
3, 86976, Note_on_c, 0, 72, 88
3, 87168, Note_on_c, 0, 72, 0
3, 87168, Note_on_c, 0, 71, 88
3, 87312, Note_on_c, 0, 71, 0
3, 87312, Note_on_c, 0, 73, 88
3, 87360, Note_on_c, 0, 73, 0
3, 87360, Note_on_c, 0, 74, 88
3, 87552, Note_on_c, 0, 74, 0
3, 87552, Note_on_c, 0, 74, 88
3, 87696, Note_on_c, 0, 74, 0
3, 87696, Note_on_c, 0, 73, 88
3, 87720, Note_on_c, 0, 73, 0
3, 87720, Note_on_c, 0, 71, 88
3, 87744, Note_on_c, 0, 71, 0
3, 87744, Note_on_c, 0, 73, 88
3, 87936, Note_on_c, 0, 73, 0
3, 87936, Note_on_c, 0, 74, 88
3, 87984, Note_on_c, 0, 74, 0
3, 87984, Note_on_c, 0, 76, 72
3, 88008, Note_on_c, 0, 76, 0
3, 88008, Note_on_c, 0, 77, 72
3, 88032, Note_on_c, 0, 77, 0
3, 88032, Note_on_c, 0, 79, 72
3, 88224, Note_on_c, 0, 79, 0
3, 88224, Note_on_c, 0, 73, 72
3, 88320, Note_on_c, 0, 73, 0
3, 88320, Note_on_c, 0, 74, 72
3, 88368, Note_on_c, 0, 74, 0
3, 88368, Note_on_c, 0, 69, 72
3, 88416, Note_on_c, 0, 69, 0
3, 88416, Note_on_c, 0, 70, 72
3, 88512, Note_on_c, 0, 70, 0
3, 88512, Note_on_c, 0, 69, 72
3, 88704, Note_on_c, 0, 69, 0
3, 88704, Note_on_c, 0, 69, 72
3, 88752, Note_on_c, 0, 69, 0
3, 88752, Note_on_c, 0, 67, 72
3, 88800, Note_on_c, 0, 67, 0
3, 88800, Note_on_c, 0, 65, 72
3, 88848, Note_on_c, 0, 65, 0
3, 88848, Note_on_c, 0, 64, 72
3, 88896, Note_on_c, 0, 64, 0
3, 88896, Note_on_c, 0, 62, 72
3, 88992, Note_on_c, 0, 62, 0
3, 89136, Note_on_c, 0, 64, 88
3, 89184, Note_on_c, 0, 64, 0
3, 89184, Note_on_c, 0, 65, 88
3, 89232, Note_on_c, 0, 65, 0
3, 89232, Note_on_c, 0, 67, 88
3, 89280, Note_on_c, 0, 67, 0
3, 89280, Note_on_c, 0, 65, 88
3, 89328, Note_on_c, 0, 65, 0
3, 89328, Note_on_c, 0, 64, 88
3, 89376, Note_on_c, 0, 64, 0
3, 89376, Note_on_c, 0, 62, 88
3, 89424, Note_on_c, 0, 62, 0
3, 89424, Note_on_c, 0, 61, 88
3, 89472, Note_on_c, 0, 61, 0
3, 89472, Note_on_c, 0, 62, 88
3, 89520, Note_on_c, 0, 62, 0
3, 89520, Note_on_c, 0, 57, 88
3, 89568, Note_on_c, 0, 57, 0
3, 89568, Note_on_c, 0, 62, 88
3, 89616, Note_on_c, 0, 62, 0
3, 89616, Note_on_c, 0, 64, 88
3, 89664, Note_on_c, 0, 64, 0
3, 89664, Note_on_c, 0, 65, 88
3, 89712, Note_on_c, 0, 65, 0
3, 89712, Note_on_c, 0, 64, 88
3, 89760, Note_on_c, 0, 64, 0
3, 89760, Note_on_c, 0, 62, 88
3, 89808, Note_on_c, 0, 62, 0
3, 89808, Note_on_c, 0, 65, 88
3, 89856, Note_on_c, 0, 65, 0
3, 89856, Note_on_c, 0, 64, 88
3, 89904, Note_on_c, 0, 64, 0
3, 89904, Note_on_c, 0, 57, 88
3, 89952, Note_on_c, 0, 57, 0
3, 89952, Note_on_c, 0, 64, 88
3, 90000, Note_on_c, 0, 64, 0
3, 90000, Note_on_c, 0, 65, 88
3, 90048, Note_on_c, 0, 65, 0
3, 90048, Note_on_c, 0, 67, 88
3, 90096, Note_on_c, 0, 67, 0
3, 90096, Note_on_c, 0, 65, 88
3, 90120, Note_on_c, 0, 65, 0
3, 90120, Note_on_c, 0, 64, 88
3, 90144, Note_on_c, 0, 64, 0
3, 90144, Note_on_c, 0, 65, 88
3, 90192, Note_on_c, 0, 65, 0
3, 90192, Note_on_c, 0, 67, 88
3, 90240, Note_on_c, 0, 67, 0
3, 90240, Note_on_c, 0, 69, 88
3, 90288, Note_on_c, 0, 69, 0
3, 90288, Note_on_c, 0, 67, 88
3, 90336, Note_on_c, 0, 67, 0
3, 90336, Note_on_c, 0, 65, 88
3, 90384, Note_on_c, 0, 65, 0
3, 90384, Note_on_c, 0, 67, 88
3, 90432, Note_on_c, 0, 67, 0
3, 90432, Note_on_c, 0, 69, 72
3, 90624, Note_on_c, 0, 69, 0
3, 90624, Note_on_c, 0, 69, 72
3, 90672, Note_on_c, 0, 69, 0
3, 90672, Note_on_c, 0, 67, 72
3, 90696, Note_on_c, 0, 67, 0
3, 90696, Note_on_c, 0, 66, 72
3, 90720, Note_on_c, 0, 66, 0
3, 90720, Note_on_c, 0, 67, 72
3, 90768, Note_on_c, 0, 67, 0
3, 90768, Note_on_c, 0, 69, 72
3, 90816, Note_on_c, 0, 69, 0
3, 90816, Note_on_c, 0, 70, 72
3, 91008, Note_on_c, 0, 70, 0
3, 91008, Note_on_c, 0, 70, 72
3, 91056, Note_on_c, 0, 70, 0
3, 91056, Note_on_c, 0, 69, 72
3, 91104, Note_on_c, 0, 69, 0
3, 91104, Note_on_c, 0, 67, 72
3, 91152, Note_on_c, 0, 67, 0
3, 91152, Note_on_c, 0, 65, 72
3, 91200, Note_on_c, 0, 65, 0
3, 91200, Note_on_c, 0, 64, 72
3, 91248, Note_on_c, 0, 64, 0
3, 91248, Note_on_c, 0, 62, 72
3, 91296, Note_on_c, 0, 62, 0
3, 91296, Note_on_c, 0, 64, 72
3, 91344, Note_on_c, 0, 64, 0
3, 91344, Note_on_c, 0, 67, 72
3, 91392, Note_on_c, 0, 67, 0
3, 91392, Note_on_c, 0, 65, 72
3, 91488, Note_on_c, 0, 65, 0
3, 91776, End_track
4, 0, Start_track
4, 0, Program_c, 0, 0
4, 2112, Note_on_c, 0, 57, 88
4, 2304, Note_on_c, 0, 57, 0
4, 2304, Note_on_c, 0, 62, 88
4, 2592, Note_on_c, 0, 62, 0
4, 2592, Note_on_c, 0, 62, 88
4, 2688, Note_on_c, 0, 62, 0
4, 2688, Note_on_c, 0, 60, 88
4, 3072, Note_on_c, 0, 60, 0
4, 3072, Note_on_c, 0, 62, 88
4, 3456, Note_on_c, 0, 62, 0
4, 3456, Note_on_c, 0, 64, 88
4, 3840, Note_on_c, 0, 64, 0
4, 3840, Note_on_c, 0, 57, 88
4, 4032, Note_on_c, 0, 57, 0
4, 4032, Note_on_c, 0, 62, 72
4, 4224, Note_on_c, 0, 62, 0
4, 4224, Note_on_c, 0, 62, 72
4, 4416, Note_on_c, 0, 62, 0
4, 4416, Note_on_c, 0, 61, 72
4, 4608, Note_on_c, 0, 61, 0
4, 4608, Note_on_c, 0, 62, 72
4, 4704, Note_on_c, 0, 62, 0
4, 4704, Note_on_c, 0, 57, 72
4, 4800, Note_on_c, 0, 57, 0
4, 4800, Note_on_c, 0, 58, 72
4, 4992, Note_on_c, 0, 58, 0
4, 4992, Note_on_c, 0, 58, 72
4, 5088, Note_on_c, 0, 58, 0
4, 5088, Note_on_c, 0, 55, 72
4, 5184, Note_on_c, 0, 55, 0
4, 5184, Note_on_c, 0, 60, 72
4, 5376, Note_on_c, 0, 60, 0
4, 5376, Note_on_c, 0, 60, 72
4, 5472, Note_on_c, 0, 60, 0
4, 5472, Note_on_c, 0, 57, 72
4, 5568, Note_on_c, 0, 57, 0
4, 5568, Note_on_c, 0, 62, 72
4, 5664, Note_on_c, 0, 62, 0
4, 5664, Note_on_c, 0, 60, 72
4, 5760, Note_on_c, 0, 60, 0
4, 5760, Note_on_c, 0, 60, 72
4, 5856, Note_on_c, 0, 60, 0
4, 5856, Note_on_c, 0, 58, 72
4, 5952, Note_on_c, 0, 58, 0
4, 5952, Note_on_c, 0, 57, 72
4, 6144, Note_on_c, 0, 57, 0
4, 6144, Note_on_c, 0, 57, 72
4, 6240, Note_on_c, 0, 57, 0
4, 6240, Note_on_c, 0, 59, 72
4, 6288, Note_on_c, 0, 59, 0
4, 6288, Note_on_c, 0, 60, 72
4, 6336, Note_on_c, 0, 60, 0
4, 6336, Note_on_c, 0, 59, 72
4, 6528, Note_on_c, 0, 59, 0
4, 6528, Note_on_c, 0, 57, 72
4, 6816, Note_on_c, 0, 57, 0
4, 6816, Note_on_c, 0, 57, 72
4, 6912, Note_on_c, 0, 57, 0
4, 6912, Note_on_c, 0, 58, 72
4, 7200, Note_on_c, 0, 58, 0
4, 7200, Note_on_c, 0, 59, 72
4, 7296, Note_on_c, 0, 59, 0
4, 7296, Note_on_c, 0, 60, 72
4, 7488, Note_on_c, 0, 60, 0
4, 7488, Note_on_c, 0, 61, 72
4, 7680, Note_on_c, 0, 61, 0
4, 7680, Note_on_c, 0, 62, 72
4, 7776, Note_on_c, 0, 62, 0
4, 7776, Note_on_c, 0, 57, 72
4, 7872, Note_on_c, 0, 57, 0
4, 7872, Note_on_c, 0, 62, 72
4, 8064, Note_on_c, 0, 62, 0
4, 8064, Note_on_c, 0, 60, 72
4, 8256, Note_on_c, 0, 60, 0
4, 9024, Note_on_c, 0, 50, 88
4, 9216, Note_on_c, 0, 50, 0
4, 9216, Note_on_c, 0, 57, 88
4, 9504, Note_on_c, 0, 57, 0
4, 9504, Note_on_c, 0, 55, 88
4, 9600, Note_on_c, 0, 55, 0
4, 9600, Note_on_c, 0, 53, 88
4, 9984, Note_on_c, 0, 53, 0
4, 9984, Note_on_c, 0, 55, 88
4, 10368, Note_on_c, 0, 55, 0
4, 10368, Note_on_c, 0, 57, 88
4, 10752, Note_on_c, 0, 57, 0
4, 10752, Note_on_c, 0, 50, 88
4, 11040, Note_on_c, 0, 50, 0
4, 11040, Note_on_c, 0, 48, 72
4, 11088, Note_on_c, 0, 48, 0
4, 11088, Note_on_c, 0, 50, 72
4, 11136, Note_on_c, 0, 50, 0
4, 11136, Note_on_c, 0, 52, 72
4, 11232, Note_on_c, 0, 52, 0
4, 11232, Note_on_c, 0, 50, 72
4, 11280, Note_on_c, 0, 50, 0
4, 11280, Note_on_c, 0, 52, 72
4, 11328, Note_on_c, 0, 52, 0
4, 11328, Note_on_c, 0, 54, 72
4, 11424, Note_on_c, 0, 54, 0
4, 11424, Note_on_c, 0, 52, 72
4, 11472, Note_on_c, 0, 52, 0
4, 11472, Note_on_c, 0, 54, 72
4, 11520, Note_on_c, 0, 54, 0
4, 11520, Note_on_c, 0, 55, 72
4, 11616, Note_on_c, 0, 55, 0
4, 11616, Note_on_c, 0, 50, 72
4, 11712, Note_on_c, 0, 50, 0
4, 11712, Note_on_c, 0, 55, 72
4, 11904, Note_on_c, 0, 55, 0
4, 11904, Note_on_c, 0, 53, 72
4, 12000, Note_on_c, 0, 53, 0
4, 12000, Note_on_c, 0, 55, 72
4, 12048, Note_on_c, 0, 55, 0
4, 12048, Note_on_c, 0, 57, 72
4, 12096, Note_on_c, 0, 57, 0
4, 12096, Note_on_c, 0, 58, 72
4, 12288, Note_on_c, 0, 58, 0
4, 12288, Note_on_c, 0, 58, 72
4, 12480, Note_on_c, 0, 58, 0
4, 12480, Note_on_c, 0, 57, 72
4, 12672, Note_on_c, 0, 57, 0
4, 12672, Note_on_c, 0, 57, 72
4, 12864, Note_on_c, 0, 57, 0
4, 12864, Note_on_c, 0, 55, 72
4, 12960, Note_on_c, 0, 55, 0
4, 12960, Note_on_c, 0, 67, 72
4, 13008, Note_on_c, 0, 67, 0
4, 13008, Note_on_c, 0, 65, 72
4, 13056, Note_on_c, 0, 65, 0
4, 13056, Note_on_c, 0, 64, 72
4, 13152, Note_on_c, 0, 64, 0
4, 13152, Note_on_c, 0, 62, 72
4, 13200, Note_on_c, 0, 62, 0
4, 13200, Note_on_c, 0, 64, 72
4, 13248, Note_on_c, 0, 64, 0
4, 13248, Note_on_c, 0, 65, 72
4, 13440, Note_on_c, 0, 65, 0
4, 13440, Note_on_c, 0, 64, 72
4, 13536, Note_on_c, 0, 64, 0
4, 13536, Note_on_c, 0, 62, 72
4, 13632, Note_on_c, 0, 62, 0
4, 13632, Note_on_c, 0, 64, 72
4, 13824, Note_on_c, 0, 64, 0
4, 13824, Note_on_c, 0, 62, 72
4, 13920, Note_on_c, 0, 62, 0
4, 13920, Note_on_c, 0, 57, 72
4, 13968, Note_on_c, 0, 57, 0
4, 13968, Note_on_c, 0, 55, 72
4, 14016, Note_on_c, 0, 55, 0
4, 14016, Note_on_c, 0, 57, 72
4, 14208, Note_on_c, 0, 57, 0
4, 14208, Note_on_c, 0, 57, 72
4, 14304, Note_on_c, 0, 57, 0
4, 14304, Note_on_c, 0, 55, 72
4, 14352, Note_on_c, 0, 55, 0
4, 14352, Note_on_c, 0, 53, 72
4, 14400, Note_on_c, 0, 53, 0
4, 14400, Note_on_c, 0, 55, 72
4, 14592, Note_on_c, 0, 55, 0
4, 14592, Note_on_c, 0, 55, 72
4, 14688, Note_on_c, 0, 55, 0
4, 14688, Note_on_c, 0, 48, 72
4, 14784, Note_on_c, 0, 48, 0
4, 14784, Note_on_c, 0, 53, 72
4, 14880, Note_on_c, 0, 53, 0
4, 14880, Note_on_c, 0, 52, 72
4, 14976, Note_on_c, 0, 52, 0
4, 14976, Note_on_c, 0, 50, 72
4, 15072, Note_on_c, 0, 50, 0
4, 15072, Note_on_c, 0, 57, 72
4, 15168, Note_on_c, 0, 57, 0
4, 15168, Note_on_c, 0, 62, 72
4, 15264, Note_on_c, 0, 62, 0
4, 15264, Note_on_c, 0, 60, 72
4, 15360, Note_on_c, 0, 60, 0
4, 15360, Note_on_c, 0, 58, 72
4, 15456, Note_on_c, 0, 58, 0
4, 15456, Note_on_c, 0, 57, 72
4, 15504, Note_on_c, 0, 57, 0
4, 15504, Note_on_c, 0, 55, 72
4, 15552, Note_on_c, 0, 55, 0
4, 15552, Note_on_c, 0, 60, 72
4, 15744, Note_on_c, 0, 60, 0
4, 15744, Note_on_c, 0, 60, 72
4, 15840, Note_on_c, 0, 60, 0
4, 15840, Note_on_c, 0, 62, 72
4, 15936, Note_on_c, 0, 62, 0
4, 15936, Note_on_c, 0, 63, 72
4, 15984, Note_on_c, 0, 63, 0
4, 15984, Note_on_c, 0, 60, 72
4, 16032, Note_on_c, 0, 60, 0
4, 16032, Note_on_c, 0, 59, 72
4, 16080, Note_on_c, 0, 59, 0
4, 16080, Note_on_c, 0, 57, 72
4, 16128, Note_on_c, 0, 57, 0
4, 16128, Note_on_c, 0, 55, 72
4, 16512, Note_on_c, 0, 55, 0
4, 16512, Note_on_c, 0, 55, 72
4, 16896, Note_on_c, 0, 55, 0
4, 16896, Note_on_c, 0, 55, 72
4, 16992, Note_on_c, 0, 55, 0
4, 16992, Note_on_c, 0, 53, 72
4, 17040, Note_on_c, 0, 53, 0
4, 17040, Note_on_c, 0, 55, 72
4, 17088, Note_on_c, 0, 55, 0
4, 17088, Note_on_c, 0, 57, 72
4, 17280, Note_on_c, 0, 57, 0
4, 17280, Note_on_c, 0, 57, 72
4, 17376, Note_on_c, 0, 57, 0
4, 17376, Note_on_c, 0, 55, 72
4, 17424, Note_on_c, 0, 55, 0
4, 17424, Note_on_c, 0, 57, 72
4, 17472, Note_on_c, 0, 57, 0
4, 17472, Note_on_c, 0, 58, 72
4, 17664, Note_on_c, 0, 58, 0
4, 17664, Note_on_c, 0, 58, 72
4, 17856, Note_on_c, 0, 58, 0
4, 17856, Note_on_c, 0, 57, 72
4, 17952, Note_on_c, 0, 57, 0
4, 17952, Note_on_c, 0, 55, 72
4, 18048, Note_on_c, 0, 55, 0
4, 18048, Note_on_c, 0, 53, 72
4, 18240, Note_on_c, 0, 53, 0
4, 20928, Note_on_c, 0, 62, 88
4, 21120, Note_on_c, 0, 62, 0
4, 21120, Note_on_c, 0, 55, 88
4, 21408, Note_on_c, 0, 55, 0
4, 21408, Note_on_c, 0, 57, 88
4, 21504, Note_on_c, 0, 57, 0
4, 21504, Note_on_c, 0, 58, 88
4, 21888, Note_on_c, 0, 58, 0
4, 21888, Note_on_c, 0, 57, 88
4, 22272, Note_on_c, 0, 57, 0
4, 22272, Note_on_c, 0, 55, 88
4, 22656, Note_on_c, 0, 55, 0
4, 22656, Note_on_c, 0, 62, 88
4, 22944, Note_on_c, 0, 62, 0
4, 22944, Note_on_c, 0, 64, 72
4, 22992, Note_on_c, 0, 64, 0
4, 22992, Note_on_c, 0, 62, 72
4, 23040, Note_on_c, 0, 62, 0
4, 23040, Note_on_c, 0, 61, 72
4, 23136, Note_on_c, 0, 61, 0
4, 23136, Note_on_c, 0, 57, 72
4, 23232, Note_on_c, 0, 57, 0
4, 23232, Note_on_c, 0, 62, 72
4, 23424, Note_on_c, 0, 62, 0
4, 23424, Note_on_c, 0, 62, 72
4, 23520, Note_on_c, 0, 62, 0
4, 23520, Note_on_c, 0, 61, 72
4, 23568, Note_on_c, 0, 61, 0
4, 23568, Note_on_c, 0, 59, 72
4, 23616, Note_on_c, 0, 59, 0
4, 23616, Note_on_c, 0, 61, 72
4, 23712, Note_on_c, 0, 61, 0
4, 23712, Note_on_c, 0, 62, 72
4, 23760, Note_on_c, 0, 62, 0
4, 23760, Note_on_c, 0, 64, 72
4, 23808, Note_on_c, 0, 64, 0
4, 23808, Note_on_c, 0, 62, 72
4, 24000, Note_on_c, 0, 62, 0
4, 24000, Note_on_c, 0, 57, 72
4, 24192, Note_on_c, 0, 57, 0
4, 24288, Note_on_c, 0, 58, 72
4, 24384, Note_on_c, 0, 58, 0
4, 24384, Note_on_c, 0, 63, 72
4, 24480, Note_on_c, 0, 63, 0
4, 24480, Note_on_c, 0, 62, 72
4, 24576, Note_on_c, 0, 62, 0
4, 24576, Note_on_c, 0, 60, 72
4, 24672, Note_on_c, 0, 60, 0
4, 24672, Note_on_c, 0, 62, 72
4, 24720, Note_on_c, 0, 62, 0
4, 24720, Note_on_c, 0, 63, 72
4, 24768, Note_on_c, 0, 63, 0
4, 24768, Note_on_c, 0, 62, 72
4, 24864, Note_on_c, 0, 62, 0
4, 24864, Note_on_c, 0, 60, 72
4, 24960, Note_on_c, 0, 60, 0
4, 24960, Note_on_c, 0, 59, 72
4, 25056, Note_on_c, 0, 59, 0
4, 25056, Note_on_c, 0, 57, 72
4, 25152, Note_on_c, 0, 57, 0
4, 25152, Note_on_c, 0, 58, 72
4, 25344, Note_on_c, 0, 58, 0
4, 25344, Note_on_c, 0, 58, 72
4, 25536, Note_on_c, 0, 58, 0
4, 25536, Note_on_c, 0, 57, 72
4, 25728, Note_on_c, 0, 57, 0
4, 25728, Note_on_c, 0, 55, 72
4, 25824, Note_on_c, 0, 55, 0
4, 25824, Note_on_c, 0, 58, 72
4, 25920, Note_on_c, 0, 58, 0
4, 25920, Note_on_c, 0, 57, 72
4, 26016, Note_on_c, 0, 57, 0
4, 26016, Note_on_c, 0, 55, 72
4, 26112, Note_on_c, 0, 55, 0
4, 26112, Note_on_c, 0, 53, 72
4, 26304, Note_on_c, 0, 53, 0
4, 27456, Note_on_c, 0, 58, 88
4, 27648, Note_on_c, 0, 58, 0
4, 27648, Note_on_c, 0, 53, 88
4, 27936, Note_on_c, 0, 53, 0
4, 27936, Note_on_c, 0, 55, 88
4, 28032, Note_on_c, 0, 55, 0
4, 28032, Note_on_c, 0, 57, 88
4, 28416, Note_on_c, 0, 57, 0
4, 28416, Note_on_c, 0, 55, 88
4, 28800, Note_on_c, 0, 55, 0
4, 28800, Note_on_c, 0, 53, 88
4, 29184, Note_on_c, 0, 53, 0
4, 29184, Note_on_c, 0, 60, 88
4, 29472, Note_on_c, 0, 60, 0
4, 29472, Note_on_c, 0, 62, 72
4, 29520, Note_on_c, 0, 62, 0
4, 29520, Note_on_c, 0, 63, 72
4, 29568, Note_on_c, 0, 63, 0
4, 29568, Note_on_c, 0, 62, 72
4, 29856, Note_on_c, 0, 62, 0
4, 29856, Note_on_c, 0, 63, 72
4, 29904, Note_on_c, 0, 63, 0
4, 29904, Note_on_c, 0, 62, 72
4, 29952, Note_on_c, 0, 62, 0
4, 29952, Note_on_c, 0, 60, 72
4, 30048, Note_on_c, 0, 60, 0
4, 30048, Note_on_c, 0, 57, 72
4, 30144, Note_on_c, 0, 57, 0
4, 30144, Note_on_c, 0, 62, 72
4, 30240, Note_on_c, 0, 62, 0
4, 30240, Note_on_c, 0, 60, 72
4, 30336, Note_on_c, 0, 60, 0
4, 30336, Note_on_c, 0, 60, 72
4, 30432, Note_on_c, 0, 60, 0
4, 30432, Note_on_c, 0, 58, 72
4, 30480, Note_on_c, 0, 58, 0
4, 30480, Note_on_c, 0, 57, 72
4, 30528, Note_on_c, 0, 57, 0
4, 30528, Note_on_c, 0, 58, 72
4, 30720, Note_on_c, 0, 58, 0
4, 30720, Note_on_c, 0, 57, 72
4, 30912, Note_on_c, 0, 57, 0
4, 30912, Note_on_c, 0, 62, 72
4, 31104, Note_on_c, 0, 62, 0
4, 31104, Note_on_c, 0, 62, 72
4, 31200, Note_on_c, 0, 62, 0
4, 31200, Note_on_c, 0, 61, 72
4, 31248, Note_on_c, 0, 61, 0
4, 31248, Note_on_c, 0, 59, 72
4, 31296, Note_on_c, 0, 59, 0
4, 31296, Note_on_c, 0, 61, 72
4, 31488, Note_on_c, 0, 61, 0
4, 31488, Note_on_c, 0, 62, 72
4, 31776, Note_on_c, 0, 62, 0
4, 31776, Note_on_c, 0, 61, 72
4, 31824, Note_on_c, 0, 61, 0
4, 31824, Note_on_c, 0, 62, 72
4, 31872, Note_on_c, 0, 62, 0
4, 31872, Note_on_c, 0, 63, 72
4, 32160, Note_on_c, 0, 63, 0
4, 32160, Note_on_c, 0, 62, 72
4, 32256, Note_on_c, 0, 62, 0
4, 32256, Note_on_c, 0, 60, 72
4, 32352, Note_on_c, 0, 60, 0
4, 32352, Note_on_c, 0, 62, 72
4, 32400, Note_on_c, 0, 62, 0
4, 32400, Note_on_c, 0, 63, 72
4, 32448, Note_on_c, 0, 63, 0
4, 32448, Note_on_c, 0, 62, 72
4, 32544, Note_on_c, 0, 62, 0
4, 32544, Note_on_c, 0, 60, 72
4, 32640, Note_on_c, 0, 60, 0
4, 32640, Note_on_c, 0, 58, 72
4, 32736, Note_on_c, 0, 58, 0
4, 32736, Note_on_c, 0, 57, 72
4, 32832, Note_on_c, 0, 57, 0
4, 32832, Note_on_c, 0, 58, 72
4, 32928, Note_on_c, 0, 58, 0
4, 32928, Note_on_c, 0, 60, 72
4, 33024, Note_on_c, 0, 60, 0
4, 33024, Note_on_c, 0, 62, 72
4, 33120, Note_on_c, 0, 62, 0
4, 33120, Note_on_c, 0, 60, 72
4, 33216, Note_on_c, 0, 60, 0
4, 33216, Note_on_c, 0, 62, 72
4, 33312, Note_on_c, 0, 62, 0
4, 33312, Note_on_c, 0, 63, 72
4, 33408, Note_on_c, 0, 63, 0
4, 33408, Note_on_c, 0, 65, 72
4, 33504, Note_on_c, 0, 65, 0
4, 33504, Note_on_c, 0, 63, 72
4, 33552, Note_on_c, 0, 63, 0
4, 33552, Note_on_c, 0, 62, 72
4, 33600, Note_on_c, 0, 62, 0
4, 33600, Note_on_c, 0, 60, 72
4, 33696, Note_on_c, 0, 60, 0
4, 33696, Note_on_c, 0, 62, 72
4, 33792, Note_on_c, 0, 62, 0
4, 33792, Note_on_c, 0, 63, 72
4, 33888, Note_on_c, 0, 63, 0
4, 33888, Note_on_c, 0, 62, 72
4, 33936, Note_on_c, 0, 62, 0
4, 33936, Note_on_c, 0, 60, 72
4, 33984, Note_on_c, 0, 60, 0
4, 33984, Note_on_c, 0, 58, 72
4, 34080, Note_on_c, 0, 58, 0
4, 34080, Note_on_c, 0, 53, 72
4, 34176, Note_on_c, 0, 53, 0
4, 34176, Note_on_c, 0, 53, 72
4, 34224, Note_on_c, 0, 53, 0
4, 34224, Note_on_c, 0, 55, 72
4, 34272, Note_on_c, 0, 55, 0
4, 34272, Note_on_c, 0, 57, 72
4, 34320, Note_on_c, 0, 57, 0
4, 34320, Note_on_c, 0, 58, 72
4, 34368, Note_on_c, 0, 58, 0
4, 34368, Note_on_c, 0, 60, 88
4, 34560, Note_on_c, 0, 60, 0
4, 34560, Note_on_c, 0, 53, 88
4, 34848, Note_on_c, 0, 53, 0
4, 34848, Note_on_c, 0, 53, 88
4, 34944, Note_on_c, 0, 53, 0
4, 34944, Note_on_c, 0, 55, 88
4, 35328, Note_on_c, 0, 55, 0
4, 35328, Note_on_c, 0, 57, 88
4, 35712, Note_on_c, 0, 57, 0
4, 35712, Note_on_c, 0, 58, 88
4, 36096, Note_on_c, 0, 58, 0
4, 36096, Note_on_c, 0, 53, 88
4, 36192, Note_on_c, 0, 53, 0
4, 36192, Note_on_c, 0, 60, 72
4, 36288, Note_on_c, 0, 60, 0
4, 36288, Note_on_c, 0, 65, 72
4, 36480, Note_on_c, 0, 65, 0
4, 36480, Note_on_c, 0, 65, 72
4, 36576, Note_on_c, 0, 65, 0
4, 36576, Note_on_c, 0, 63, 72
4, 36672, Note_on_c, 0, 63, 0
4, 36672, Note_on_c, 0, 62, 72
4, 36864, Note_on_c, 0, 62, 0
4, 37056, Note_on_c, 0, 57, 88
4, 37248, Note_on_c, 0, 57, 0
4, 37248, Note_on_c, 0, 62, 88
4, 37536, Note_on_c, 0, 62, 0
4, 37536, Note_on_c, 0, 60, 88
4, 37632, Note_on_c, 0, 60, 0
4, 37632, Note_on_c, 0, 59, 88
4, 38016, Note_on_c, 0, 59, 0
4, 38016, Note_on_c, 0, 61, 88
4, 38400, Note_on_c, 0, 61, 0
4, 38400, Note_on_c, 0, 62, 88
4, 38784, Note_on_c, 0, 62, 0
4, 38784, Note_on_c, 0, 55, 88
4, 38880, Note_on_c, 0, 55, 0
4, 38880, Note_on_c, 0, 57, 72
4, 38976, Note_on_c, 0, 57, 0
4, 38976, Note_on_c, 0, 58, 72
4, 39072, Note_on_c, 0, 58, 0
4, 39072, Note_on_c, 0, 60, 72
4, 39120, Note_on_c, 0, 60, 0
4, 39120, Note_on_c, 0, 58, 72
4, 39168, Note_on_c, 0, 58, 0
4, 39168, Note_on_c, 0, 57, 72
4, 39264, Note_on_c, 0, 57, 0
4, 39264, Note_on_c, 0, 59, 72
4, 39312, Note_on_c, 0, 59, 0
4, 39312, Note_on_c, 0, 61, 72
4, 39360, Note_on_c, 0, 61, 0
4, 39360, Note_on_c, 0, 62, 72
4, 39456, Note_on_c, 0, 62, 0
4, 39456, Note_on_c, 0, 60, 72
4, 39552, Note_on_c, 0, 60, 0
4, 39552, Note_on_c, 0, 58, 72
4, 39936, Note_on_c, 0, 58, 0
4, 39936, Note_on_c, 0, 57, 72
4, 40320, Note_on_c, 0, 57, 0
4, 40320, Note_on_c, 0, 57, 72
4, 40704, Note_on_c, 0, 57, 0
4, 40704, Note_on_c, 0, 57, 72
4, 40800, Note_on_c, 0, 57, 0
4, 40800, Note_on_c, 0, 62, 72
4, 40848, Note_on_c, 0, 62, 0
4, 40848, Note_on_c, 0, 61, 72
4, 40896, Note_on_c, 0, 61, 0
4, 40896, Note_on_c, 0, 62, 72
4, 41088, Note_on_c, 0, 62, 0
4, 41088, Note_on_c, 0, 62, 72
4, 41184, Note_on_c, 0, 62, 0
4, 41184, Note_on_c, 0, 58, 72
4, 41280, Note_on_c, 0, 58, 0
4, 41280, Note_on_c, 0, 63, 72
4, 41376, Note_on_c, 0, 63, 0
4, 41376, Note_on_c, 0, 62, 72
4, 41472, Note_on_c, 0, 62, 0
4, 41472, Note_on_c, 0, 62, 72
4, 41568, Note_on_c, 0, 62, 0
4, 41568, Note_on_c, 0, 61, 72
4, 41616, Note_on_c, 0, 61, 0
4, 41616, Note_on_c, 0, 59, 72
4, 41664, Note_on_c, 0, 59, 0
4, 41664, Note_on_c, 0, 61, 72
4, 41856, Note_on_c, 0, 61, 0
4, 41856, Note_on_c, 0, 62, 72
4, 42048, Note_on_c, 0, 62, 0
4, 42048, Note_on_c, 0, 57, 72
4, 42240, Note_on_c, 0, 57, 0
4, 42240, Note_on_c, 0, 57, 72
4, 42336, Note_on_c, 0, 57, 0
4, 42336, Note_on_c, 0, 50, 72
4, 42432, Note_on_c, 0, 50, 0
4, 42432, Note_on_c, 0, 55, 72
4, 42624, Note_on_c, 0, 55, 0
4, 42624, Note_on_c, 0, 55, 72
4, 42720, Note_on_c, 0, 55, 0
4, 42720, Note_on_c, 0, 53, 72
4, 42768, Note_on_c, 0, 53, 0
4, 42768, Note_on_c, 0, 52, 72
4, 42816, Note_on_c, 0, 52, 0
4, 42816, Note_on_c, 0, 53, 72
4, 42912, Note_on_c, 0, 53, 0
4, 42912, Note_on_c, 0, 50, 72
4, 43008, Note_on_c, 0, 50, 0
4, 43008, Note_on_c, 0, 52, 72
4, 43104, Note_on_c, 0, 52, 0
4, 43104, Note_on_c, 0, 53, 72
4, 43152, Note_on_c, 0, 53, 0
4, 43152, Note_on_c, 0, 55, 72
4, 43200, Note_on_c, 0, 55, 0
4, 43200, Note_on_c, 0, 57, 72
4, 43392, Note_on_c, 0, 57, 0
4, 43392, Note_on_c, 0, 57, 72
4, 43776, Note_on_c, 0, 57, 0
4, 43776, Note_on_c, 0, 57, 72
4, 43872, Note_on_c, 0, 57, 0
4, 51552, Note_on_c, 0, 60, 88
4, 51600, Note_on_c, 0, 60, 0
4, 51600, Note_on_c, 0, 62, 88
4, 51648, Note_on_c, 0, 62, 0
4, 51648, Note_on_c, 0, 60, 88
4, 51696, Note_on_c, 0, 60, 0
4, 51696, Note_on_c, 0, 59, 88
4, 51744, Note_on_c, 0, 59, 0
4, 51744, Note_on_c, 0, 57, 88
4, 51792, Note_on_c, 0, 57, 0
4, 51792, Note_on_c, 0, 56, 88
4, 51840, Note_on_c, 0, 56, 0
4, 51840, Note_on_c, 0, 57, 88
4, 51888, Note_on_c, 0, 57, 0
4, 51888, Note_on_c, 0, 52, 88
4, 51936, Note_on_c, 0, 52, 0
4, 51936, Note_on_c, 0, 57, 88
4, 51984, Note_on_c, 0, 57, 0
4, 51984, Note_on_c, 0, 59, 88
4, 52032, Note_on_c, 0, 59, 0
4, 52032, Note_on_c, 0, 60, 88
4, 52080, Note_on_c, 0, 60, 0
4, 52080, Note_on_c, 0, 59, 88
4, 52128, Note_on_c, 0, 59, 0
4, 52128, Note_on_c, 0, 57, 88
4, 52176, Note_on_c, 0, 57, 0
4, 52176, Note_on_c, 0, 60, 88
4, 52224, Note_on_c, 0, 60, 0
4, 52224, Note_on_c, 0, 59, 88
4, 52272, Note_on_c, 0, 59, 0
4, 52272, Note_on_c, 0, 52, 88
4, 52320, Note_on_c, 0, 52, 0
4, 52320, Note_on_c, 0, 59, 88
4, 52368, Note_on_c, 0, 59, 0
4, 52368, Note_on_c, 0, 60, 88
4, 52416, Note_on_c, 0, 60, 0
4, 52416, Note_on_c, 0, 62, 88
4, 52464, Note_on_c, 0, 62, 0
4, 52464, Note_on_c, 0, 60, 88
4, 52488, Note_on_c, 0, 60, 0
4, 52488, Note_on_c, 0, 59, 88
4, 52512, Note_on_c, 0, 59, 0
4, 52512, Note_on_c, 0, 60, 88
4, 52560, Note_on_c, 0, 60, 0
4, 52560, Note_on_c, 0, 62, 88
4, 52608, Note_on_c, 0, 62, 0
4, 52608, Note_on_c, 0, 64, 88
4, 52656, Note_on_c, 0, 64, 0
4, 52656, Note_on_c, 0, 62, 88
4, 52704, Note_on_c, 0, 62, 0
4, 52704, Note_on_c, 0, 60, 88
4, 52752, Note_on_c, 0, 60, 0
4, 52752, Note_on_c, 0, 62, 88
4, 52800, Note_on_c, 0, 62, 0
4, 52800, Note_on_c, 0, 64, 88
4, 52992, Note_on_c, 0, 64, 0
4, 52992, Note_on_c, 0, 64, 72
4, 53040, Note_on_c, 0, 64, 0
4, 53040, Note_on_c, 0, 62, 72
4, 53064, Note_on_c, 0, 62, 0
4, 53064, Note_on_c, 0, 61, 72
4, 53088, Note_on_c, 0, 61, 0
4, 53088, Note_on_c, 0, 62, 72
4, 53136, Note_on_c, 0, 62, 0
4, 53136, Note_on_c, 0, 64, 72
4, 53184, Note_on_c, 0, 64, 0
4, 53184, Note_on_c, 0, 65, 72
4, 53376, Note_on_c, 0, 65, 0
4, 53376, Note_on_c, 0, 65, 72
4, 53424, Note_on_c, 0, 65, 0
4, 53424, Note_on_c, 0, 64, 72
4, 53472, Note_on_c, 0, 64, 0
4, 53472, Note_on_c, 0, 62, 72
4, 53520, Note_on_c, 0, 62, 0
4, 53520, Note_on_c, 0, 60, 72
4, 53568, Note_on_c, 0, 60, 0
4, 53568, Note_on_c, 0, 59, 72
4, 53616, Note_on_c, 0, 59, 0
4, 53616, Note_on_c, 0, 57, 72
4, 53664, Note_on_c, 0, 57, 0
4, 53664, Note_on_c, 0, 59, 72
4, 53712, Note_on_c, 0, 59, 0
4, 53712, Note_on_c, 0, 62, 72
4, 53760, Note_on_c, 0, 62, 0
4, 53760, Note_on_c, 0, 60, 72
4, 53952, Note_on_c, 0, 60, 0
4, 53952, Note_on_c, 0, 61, 72
4, 54144, Note_on_c, 0, 61, 0
4, 54144, Note_on_c, 0, 62, 72
4, 54432, Note_on_c, 0, 62, 0
4, 54432, Note_on_c, 0, 60, 72
4, 54528, Note_on_c, 0, 60, 0
4, 54528, Note_on_c, 0, 60, 72
4, 54576, Note_on_c, 0, 60, 0
4, 54576, Note_on_c, 0, 58, 72
4, 54624, Note_on_c, 0, 58, 0
4, 54624, Note_on_c, 0, 57, 72
4, 54672, Note_on_c, 0, 57, 0
4, 54672, Note_on_c, 0, 55, 72
4, 54720, Note_on_c, 0, 55, 0
4, 54720, Note_on_c, 0, 62, 72
4, 54912, Note_on_c, 0, 62, 0
4, 54912, Note_on_c, 0, 62, 72
4, 54960, Note_on_c, 0, 62, 0
4, 54960, Note_on_c, 0, 64, 72
4, 55008, Note_on_c, 0, 64, 0
4, 55008, Note_on_c, 0, 62, 72
4, 55056, Note_on_c, 0, 62, 0
4, 55056, Note_on_c, 0, 60, 72
4, 55104, Note_on_c, 0, 60, 0
4, 55104, Note_on_c, 0, 67, 72
4, 55200, Note_on_c, 0, 67, 0
4, 55344, Note_on_c, 0, 60, 72
4, 55392, Note_on_c, 0, 60, 0
4, 55392, Note_on_c, 0, 58, 72
4, 55440, Note_on_c, 0, 58, 0
4, 55440, Note_on_c, 0, 57, 72
4, 55488, Note_on_c, 0, 57, 0
4, 55488, Note_on_c, 0, 55, 72
4, 55536, Note_on_c, 0, 55, 0
4, 55536, Note_on_c, 0, 53, 72
4, 55584, Note_on_c, 0, 53, 0
4, 55584, Note_on_c, 0, 55, 72
4, 55632, Note_on_c, 0, 55, 0
4, 55632, Note_on_c, 0, 58, 72
4, 55680, Note_on_c, 0, 58, 0
4, 55680, Note_on_c, 0, 57, 72
4, 55824, Note_on_c, 0, 57, 0
4, 55824, Note_on_c, 0, 57, 72
4, 55872, Note_on_c, 0, 57, 0
4, 55872, Note_on_c, 0, 55, 72
4, 55920, Note_on_c, 0, 55, 0
4, 55920, Note_on_c, 0, 53, 72
4, 55968, Note_on_c, 0, 53, 0
4, 55968, Note_on_c, 0, 52, 72
4, 56064, Note_on_c, 0, 52, 0
4, 56064, Note_on_c, 0, 50, 72
4, 56160, Note_on_c, 0, 50, 0
4, 56160, Note_on_c, 0, 57, 72
4, 56256, Note_on_c, 0, 57, 0
4, 56256, Note_on_c, 0, 58, 72
4, 56448, Note_on_c, 0, 58, 0
4, 56448, Note_on_c, 0, 57, 72
4, 56544, Note_on_c, 0, 57, 0
4, 56544, Note_on_c, 0, 59, 72
4, 56592, Note_on_c, 0, 59, 0
4, 56592, Note_on_c, 0, 61, 72
4, 56640, Note_on_c, 0, 61, 0
4, 56640, Note_on_c, 0, 62, 72
4, 56832, Note_on_c, 0, 62, 0
4, 56832, Note_on_c, 0, 62, 72
4, 56928, Note_on_c, 0, 62, 0
4, 56928, Note_on_c, 0, 61, 72
4, 56976, Note_on_c, 0, 61, 0
4, 56976, Note_on_c, 0, 62, 72
4, 57024, Note_on_c, 0, 62, 0
4, 57024, Note_on_c, 0, 64, 72
4, 57216, Note_on_c, 0, 64, 0
4, 57216, Note_on_c, 0, 64, 72
4, 57264, Note_on_c, 0, 64, 0
4, 57264, Note_on_c, 0, 57, 72
4, 57312, Note_on_c, 0, 57, 0
4, 57312, Note_on_c, 0, 62, 72
4, 57456, Note_on_c, 0, 62, 0
4, 57456, Note_on_c, 0, 60, 72
4, 57504, Note_on_c, 0, 60, 0
4, 57504, Note_on_c, 0, 58, 72
4, 57552, Note_on_c, 0, 58, 0
4, 57552, Note_on_c, 0, 57, 72
4, 57600, Note_on_c, 0, 57, 0
4, 57600, Note_on_c, 0, 58, 72
4, 57648, Note_on_c, 0, 58, 0
4, 57648, Note_on_c, 0, 62, 72
4, 57696, Note_on_c, 0, 62, 0
4, 57696, Note_on_c, 0, 63, 72
4, 57840, Note_on_c, 0, 63, 0
4, 57840, Note_on_c, 0, 62, 72
4, 57888, Note_on_c, 0, 62, 0
4, 57888, Note_on_c, 0, 61, 72
4, 57936, Note_on_c, 0, 61, 0
4, 57936, Note_on_c, 0, 62, 72
4, 57984, Note_on_c, 0, 62, 0
4, 57984, Note_on_c, 0, 61, 72
4, 58080, Note_on_c, 0, 61, 0
4, 58080, Note_on_c, 0, 62, 72
4, 58272, Note_on_c, 0, 62, 0
4, 58272, Note_on_c, 0, 60, 72
4, 58368, Note_on_c, 0, 60, 0
4, 58368, Note_on_c, 0, 60, 72
4, 58464, Note_on_c, 0, 60, 0
4, 58464, Note_on_c, 0, 59, 72
4, 58512, Note_on_c, 0, 59, 0
4, 58512, Note_on_c, 0, 57, 72
4, 58560, Note_on_c, 0, 57, 0
4, 58560, Note_on_c, 0, 56, 72
4, 58608, Note_on_c, 0, 56, 0
4, 58608, Note_on_c, 0, 54, 72
4, 58656, Note_on_c, 0, 54, 0
4, 58656, Note_on_c, 0, 56, 72
4, 58704, Note_on_c, 0, 56, 0
4, 58704, Note_on_c, 0, 59, 72
4, 58752, Note_on_c, 0, 59, 0
4, 58752, Note_on_c, 0, 57, 72
4, 58800, Note_on_c, 0, 57, 0
4, 58800, Note_on_c, 0, 64, 72
4, 58848, Note_on_c, 0, 64, 0
4, 58848, Note_on_c, 0, 62, 72
4, 58896, Note_on_c, 0, 62, 0
4, 58896, Note_on_c, 0, 60, 72
4, 58944, Note_on_c, 0, 60, 0
4, 58944, Note_on_c, 0, 59, 72
4, 58992, Note_on_c, 0, 59, 0
4, 58992, Note_on_c, 0, 57, 72
4, 59040, Note_on_c, 0, 57, 0
4, 59040, Note_on_c, 0, 59, 72
4, 59088, Note_on_c, 0, 59, 0
4, 59088, Note_on_c, 0, 62, 72
4, 59136, Note_on_c, 0, 62, 0
4, 59136, Note_on_c, 0, 60, 72
4, 59232, Note_on_c, 0, 60, 0
4, 59232, Note_on_c, 0, 64, 72
4, 59328, Note_on_c, 0, 64, 0
4, 59328, Note_on_c, 0, 62, 72
4, 59424, Note_on_c, 0, 62, 0
4, 59424, Note_on_c, 0, 65, 72
4, 59520, Note_on_c, 0, 65, 0
4, 59520, Note_on_c, 0, 64, 72
4, 59616, Note_on_c, 0, 64, 0
4, 60096, Note_on_c, 0, 57, 88
4, 60288, Note_on_c, 0, 57, 0
4, 60288, Note_on_c, 0, 64, 88
4, 60576, Note_on_c, 0, 64, 0
4, 60576, Note_on_c, 0, 64, 88
4, 60624, Note_on_c, 0, 64, 0
4, 60624, Note_on_c, 0, 62, 88
4, 60672, Note_on_c, 0, 62, 0
4, 60672, Note_on_c, 0, 60, 88
4, 61056, Note_on_c, 0, 60, 0
4, 61056, Note_on_c, 0, 62, 88
4, 61440, Note_on_c, 0, 62, 0
4, 61440, Note_on_c, 0, 64, 88
4, 61824, Note_on_c, 0, 64, 0
4, 61824, Note_on_c, 0, 57, 88
4, 61872, Note_on_c, 0, 57, 0
4, 61872, Note_on_c, 0, 69, 72
4, 61920, Note_on_c, 0, 69, 0
4, 61920, Note_on_c, 0, 67, 72
4, 61968, Note_on_c, 0, 67, 0
4, 61968, Note_on_c, 0, 65, 72
4, 62016, Note_on_c, 0, 65, 0
4, 62016, Note_on_c, 0, 64, 72
4, 62064, Note_on_c, 0, 64, 0
4, 62064, Note_on_c, 0, 62, 72
4, 62112, Note_on_c, 0, 62, 0
4, 62112, Note_on_c, 0, 64, 72
4, 62160, Note_on_c, 0, 64, 0
4, 62160, Note_on_c, 0, 67, 72
4, 62208, Note_on_c, 0, 67, 0
4, 62208, Note_on_c, 0, 65, 72
4, 62592, Note_on_c, 0, 65, 0
4, 62592, Note_on_c, 0, 65, 72
4, 62640, Note_on_c, 0, 65, 0
4, 62640, Note_on_c, 0, 67, 72
4, 62688, Note_on_c, 0, 67, 0
4, 62688, Note_on_c, 0, 65, 72
4, 62736, Note_on_c, 0, 65, 0
4, 62736, Note_on_c, 0, 64, 72
4, 62784, Note_on_c, 0, 64, 0
4, 62784, Note_on_c, 0, 62, 72
4, 62832, Note_on_c, 0, 62, 0
4, 62832, Note_on_c, 0, 60, 72
4, 62880, Note_on_c, 0, 60, 0
4, 62880, Note_on_c, 0, 62, 72
4, 62928, Note_on_c, 0, 62, 0
4, 62928, Note_on_c, 0, 65, 72
4, 62976, Note_on_c, 0, 65, 0
4, 62976, Note_on_c, 0, 64, 72
4, 63072, Note_on_c, 0, 64, 0
4, 63840, Note_on_c, 0, 57, 88
4, 63888, Note_on_c, 0, 57, 0
4, 63888, Note_on_c, 0, 58, 88
4, 63936, Note_on_c, 0, 58, 0
4, 63936, Note_on_c, 0, 57, 88
4, 63984, Note_on_c, 0, 57, 0
4, 63984, Note_on_c, 0, 55, 88
4, 64032, Note_on_c, 0, 55, 0
4, 64032, Note_on_c, 0, 53, 88
4, 64080, Note_on_c, 0, 53, 0
4, 64080, Note_on_c, 0, 52, 88
4, 64128, Note_on_c, 0, 52, 0
4, 64128, Note_on_c, 0, 53, 88
4, 64176, Note_on_c, 0, 53, 0
4, 64176, Note_on_c, 0, 48, 88
4, 64224, Note_on_c, 0, 48, 0
4, 64224, Note_on_c, 0, 53, 88
4, 64272, Note_on_c, 0, 53, 0
4, 64272, Note_on_c, 0, 55, 88
4, 64320, Note_on_c, 0, 55, 0
4, 64320, Note_on_c, 0, 57, 88
4, 64368, Note_on_c, 0, 57, 0
4, 64368, Note_on_c, 0, 55, 88
4, 64416, Note_on_c, 0, 55, 0
4, 64416, Note_on_c, 0, 53, 88
4, 64464, Note_on_c, 0, 53, 0
4, 64464, Note_on_c, 0, 57, 88
4, 64512, Note_on_c, 0, 57, 0
4, 64512, Note_on_c, 0, 55, 88
4, 64560, Note_on_c, 0, 55, 0
4, 64560, Note_on_c, 0, 48, 88
4, 64608, Note_on_c, 0, 48, 0
4, 64608, Note_on_c, 0, 55, 88
4, 64656, Note_on_c, 0, 55, 0
4, 64656, Note_on_c, 0, 57, 88
4, 64704, Note_on_c, 0, 57, 0
4, 64704, Note_on_c, 0, 58, 88
4, 64752, Note_on_c, 0, 58, 0
4, 64752, Note_on_c, 0, 57, 88
4, 64776, Note_on_c, 0, 57, 0
4, 64776, Note_on_c, 0, 55, 88
4, 64800, Note_on_c, 0, 55, 0
4, 64800, Note_on_c, 0, 57, 88
4, 64848, Note_on_c, 0, 57, 0
4, 64848, Note_on_c, 0, 58, 88
4, 64896, Note_on_c, 0, 58, 0
4, 64896, Note_on_c, 0, 60, 88
4, 64944, Note_on_c, 0, 60, 0
4, 64944, Note_on_c, 0, 58, 88
4, 64992, Note_on_c, 0, 58, 0
4, 64992, Note_on_c, 0, 57, 88
4, 65040, Note_on_c, 0, 57, 0
4, 65040, Note_on_c, 0, 58, 88
4, 65088, Note_on_c, 0, 58, 0
4, 65088, Note_on_c, 0, 60, 72
4, 65280, Note_on_c, 0, 60, 0
4, 65280, Note_on_c, 0, 60, 72
4, 65328, Note_on_c, 0, 60, 0
4, 65328, Note_on_c, 0, 58, 72
4, 65352, Note_on_c, 0, 58, 0
4, 65352, Note_on_c, 0, 57, 72
4, 65376, Note_on_c, 0, 57, 0
4, 65376, Note_on_c, 0, 58, 72
4, 65424, Note_on_c, 0, 58, 0
4, 65424, Note_on_c, 0, 60, 72
4, 65472, Note_on_c, 0, 60, 0
4, 65472, Note_on_c, 0, 62, 72
4, 65664, Note_on_c, 0, 62, 0
4, 65664, Note_on_c, 0, 62, 72
4, 65712, Note_on_c, 0, 62, 0
4, 65712, Note_on_c, 0, 60, 72
4, 65760, Note_on_c, 0, 60, 0
4, 65760, Note_on_c, 0, 58, 72
4, 65808, Note_on_c, 0, 58, 0
4, 65808, Note_on_c, 0, 57, 72
4, 65856, Note_on_c, 0, 57, 0
4, 65856, Note_on_c, 0, 55, 72
4, 65904, Note_on_c, 0, 55, 0
4, 65904, Note_on_c, 0, 53, 72
4, 65952, Note_on_c, 0, 53, 0
4, 65952, Note_on_c, 0, 55, 72
4, 66000, Note_on_c, 0, 55, 0
4, 66000, Note_on_c, 0, 58, 72
4, 66048, Note_on_c, 0, 58, 0
4, 66048, Note_on_c, 0, 57, 72
4, 66432, Note_on_c, 0, 57, 0
4, 66432, Note_on_c, 0, 57, 72
4, 66480, Note_on_c, 0, 57, 0
4, 66480, Note_on_c, 0, 53, 72
4, 66528, Note_on_c, 0, 53, 0
4, 66528, Note_on_c, 0, 55, 72
4, 66576, Note_on_c, 0, 55, 0
4, 66576, Note_on_c, 0, 57, 72
4, 66624, Note_on_c, 0, 57, 0
4, 66624, Note_on_c, 0, 58, 72
4, 66816, Note_on_c, 0, 58, 0
4, 66816, Note_on_c, 0, 58, 72
4, 66864, Note_on_c, 0, 58, 0
4, 66864, Note_on_c, 0, 60, 72
4, 66912, Note_on_c, 0, 60, 0
4, 66912, Note_on_c, 0, 58, 72
4, 66960, Note_on_c, 0, 58, 0
4, 66960, Note_on_c, 0, 57, 72
4, 67008, Note_on_c, 0, 57, 0
4, 67008, Note_on_c, 0, 55, 72
4, 67200, Note_on_c, 0, 55, 0
4, 67200, Note_on_c, 0, 55, 72
4, 67296, Note_on_c, 0, 55, 0
4, 67296, Note_on_c, 0, 55, 72
4, 67392, Note_on_c, 0, 55, 0
4, 67392, Note_on_c, 0, 60, 72
4, 67584, Note_on_c, 0, 60, 0
4, 67584, Note_on_c, 0, 60, 72
4, 67632, Note_on_c, 0, 60, 0
4, 67632, Note_on_c, 0, 63, 72
4, 67680, Note_on_c, 0, 63, 0
4, 67680, Note_on_c, 0, 62, 72
4, 67728, Note_on_c, 0, 62, 0
4, 67728, Note_on_c, 0, 60, 72
4, 67776, Note_on_c, 0, 60, 0
4, 67776, Note_on_c, 0, 58, 72
4, 67824, Note_on_c, 0, 58, 0
4, 67824, Note_on_c, 0, 57, 72
4, 67872, Note_on_c, 0, 57, 0
4, 67872, Note_on_c, 0, 58, 72
4, 67920, Note_on_c, 0, 58, 0
4, 67920, Note_on_c, 0, 62, 72
4, 67968, Note_on_c, 0, 62, 0
4, 67968, Note_on_c, 0, 55, 72
4, 68064, Note_on_c, 0, 55, 0
4, 68064, Note_on_c, 0, 58, 72
4, 68112, Note_on_c, 0, 58, 0
4, 68112, Note_on_c, 0, 57, 72
4, 68160, Note_on_c, 0, 57, 0
4, 68160, Note_on_c, 0, 55, 72
4, 68208, Note_on_c, 0, 55, 0
4, 68208, Note_on_c, 0, 53, 72
4, 68256, Note_on_c, 0, 53, 0
4, 68256, Note_on_c, 0, 52, 72
4, 68352, Note_on_c, 0, 52, 0
4, 68352, Note_on_c, 0, 50, 72
4, 68400, Note_on_c, 0, 50, 0
4, 68400, Note_on_c, 0, 62, 72
4, 68448, Note_on_c, 0, 62, 0
4, 68448, Note_on_c, 0, 60, 72
4, 68496, Note_on_c, 0, 60, 0
4, 68496, Note_on_c, 0, 58, 72
4, 68544, Note_on_c, 0, 58, 0
4, 68544, Note_on_c, 0, 57, 72
4, 68592, Note_on_c, 0, 57, 0
4, 68592, Note_on_c, 0, 55, 72
4, 68640, Note_on_c, 0, 55, 0
4, 68640, Note_on_c, 0, 57, 72
4, 68688, Note_on_c, 0, 57, 0
4, 68688, Note_on_c, 0, 60, 72
4, 68736, Note_on_c, 0, 60, 0
4, 68736, Note_on_c, 0, 58, 72
4, 68784, Note_on_c, 0, 58, 0
4, 68784, Note_on_c, 0, 63, 72
4, 68832, Note_on_c, 0, 63, 0
4, 68832, Note_on_c, 0, 62, 72
4, 69024, Note_on_c, 0, 62, 0
4, 69792, Note_on_c, 0, 53, 72
4, 69888, Note_on_c, 0, 53, 0
4, 69888, Note_on_c, 0, 53, 72
4, 69936, Note_on_c, 0, 53, 0
4, 69936, Note_on_c, 0, 51, 72
4, 69984, Note_on_c, 0, 51, 0
4, 69984, Note_on_c, 0, 50, 72
4, 70032, Note_on_c, 0, 50, 0
4, 70032, Note_on_c, 0, 51, 72
4, 70080, Note_on_c, 0, 51, 0
4, 70080, Note_on_c, 0, 53, 72
4, 70128, Note_on_c, 0, 53, 0
4, 70128, Note_on_c, 0, 55, 72
4, 70176, Note_on_c, 0, 55, 0
4, 70176, Note_on_c, 0, 56, 72
4, 70224, Note_on_c, 0, 56, 0
4, 70224, Note_on_c, 0, 53, 72
4, 70272, Note_on_c, 0, 53, 0
4, 70272, Note_on_c, 0, 55, 72
4, 70464, Note_on_c, 0, 55, 0
4, 70464, Note_on_c, 0, 55, 72
4, 70512, Note_on_c, 0, 55, 0
4, 70512, Note_on_c, 0, 55, 72
4, 70560, Note_on_c, 0, 55, 0
4, 70560, Note_on_c, 0, 59, 72
4, 70608, Note_on_c, 0, 59, 0
4, 70608, Note_on_c, 0, 62, 72
4, 70656, Note_on_c, 0, 62, 0
4, 70656, Note_on_c, 0, 67, 72
4, 70704, Note_on_c, 0, 67, 0
4, 70704, Note_on_c, 0, 70, 72
4, 70752, Note_on_c, 0, 70, 0
4, 70752, Note_on_c, 0, 68, 72
4, 70800, Note_on_c, 0, 68, 0
4, 70800, Note_on_c, 0, 67, 72
4, 70848, Note_on_c, 0, 67, 0
4, 70848, Note_on_c, 0, 66, 72
4, 70992, Note_on_c, 0, 66, 0
4, 70992, Note_on_c, 0, 67, 72
4, 71040, Note_on_c, 0, 67, 0
4, 71040, Note_on_c, 0, 68, 72
4, 71088, Note_on_c, 0, 68, 0
4, 71088, Note_on_c, 0, 55, 72
4, 71136, Note_on_c, 0, 55, 0
4, 71136, Note_on_c, 0, 53, 72
4, 71184, Note_on_c, 0, 53, 0
4, 71184, Note_on_c, 0, 51, 72
4, 71232, Note_on_c, 0, 51, 0
4, 71232, Note_on_c, 0, 50, 72
4, 71280, Note_on_c, 0, 50, 0
4, 71280, Note_on_c, 0, 48, 72
4, 71328, Note_on_c, 0, 48, 0
4, 71328, Note_on_c, 0, 50, 72
4, 71376, Note_on_c, 0, 50, 0
4, 71376, Note_on_c, 0, 53, 72
4, 71424, Note_on_c, 0, 53, 0
4, 71424, Note_on_c, 0, 52, 72
4, 71808, Note_on_c, 0, 52, 0
4, 71808, Note_on_c, 0, 54, 72
4, 71904, Note_on_c, 0, 54, 0
4, 72240, Note_on_c, 0, 50, 72
4, 72288, Note_on_c, 0, 50, 0
4, 72288, Note_on_c, 0, 52, 72
4, 72336, Note_on_c, 0, 52, 0
4, 72336, Note_on_c, 0, 54, 72
4, 72384, Note_on_c, 0, 54, 0
4, 72384, Note_on_c, 0, 55, 72
4, 72576, Note_on_c, 0, 55, 0
4, 72576, Note_on_c, 0, 55, 72
4, 72624, Note_on_c, 0, 55, 0
4, 72624, Note_on_c, 0, 55, 72
4, 72672, Note_on_c, 0, 55, 0
4, 72672, Note_on_c, 0, 57, 72
4, 72720, Note_on_c, 0, 57, 0
4, 72720, Note_on_c, 0, 58, 72
4, 72768, Note_on_c, 0, 58, 0
4, 72768, Note_on_c, 0, 60, 72
4, 72816, Note_on_c, 0, 60, 0
4, 72816, Note_on_c, 0, 62, 72
4, 72864, Note_on_c, 0, 62, 0
4, 72864, Note_on_c, 0, 60, 72
4, 72912, Note_on_c, 0, 60, 0
4, 72912, Note_on_c, 0, 58, 72
4, 72960, Note_on_c, 0, 58, 0
4, 72960, Note_on_c, 0, 57, 72
4, 73056, Note_on_c, 0, 57, 0
4, 73440, Note_on_c, 0, 58, 72
4, 73536, Note_on_c, 0, 58, 0
4, 73536, Note_on_c, 0, 57, 72
4, 73584, Note_on_c, 0, 57, 0
4, 73584, Note_on_c, 0, 55, 72
4, 73632, Note_on_c, 0, 55, 0
4, 73632, Note_on_c, 0, 57, 72
4, 73728, Note_on_c, 0, 57, 0
4, 73728, Note_on_c, 0, 55, 72
4, 73920, Note_on_c, 0, 55, 0
4, 73920, Note_on_c, 0, 58, 88
4, 74112, Note_on_c, 0, 58, 0
4, 74112, Note_on_c, 0, 57, 88
4, 74304, Note_on_c, 0, 57, 0
4, 74304, Note_on_c, 0, 60, 88
4, 74496, Note_on_c, 0, 60, 0
4, 74496, Note_on_c, 0, 59, 88
4, 74640, Note_on_c, 0, 59, 0
4, 74640, Note_on_c, 0, 61, 88
4, 74688, Note_on_c, 0, 61, 0
4, 74688, Note_on_c, 0, 62, 88
4, 74880, Note_on_c, 0, 62, 0
4, 74880, Note_on_c, 0, 62, 88
4, 75024, Note_on_c, 0, 62, 0
4, 75024, Note_on_c, 0, 61, 88
4, 75048, Note_on_c, 0, 61, 0
4, 75048, Note_on_c, 0, 59, 88
4, 75072, Note_on_c, 0, 59, 0
4, 75072, Note_on_c, 0, 61, 88
4, 75264, Note_on_c, 0, 61, 0
4, 75264, Note_on_c, 0, 62, 88
4, 75456, Note_on_c, 0, 62, 0
4, 75552, Note_on_c, 0, 63, 72
4, 75648, Note_on_c, 0, 63, 0
4, 75648, Note_on_c, 0, 64, 72
4, 75744, Note_on_c, 0, 64, 0
4, 75744, Note_on_c, 0, 59, 72
4, 75840, Note_on_c, 0, 59, 0
4, 75840, Note_on_c, 0, 64, 72
4, 75936, Note_on_c, 0, 64, 0
4, 75936, Note_on_c, 0, 62, 72
4, 76032, Note_on_c, 0, 62, 0
4, 76032, Note_on_c, 0, 60, 72
4, 76224, Note_on_c, 0, 60, 0
4, 76320, Note_on_c, 0, 61, 72
4, 76416, Note_on_c, 0, 61, 0
4, 76416, Note_on_c, 0, 62, 72
4, 76512, Note_on_c, 0, 62, 0
4, 76512, Note_on_c, 0, 57, 72
4, 76608, Note_on_c, 0, 57, 0
4, 76608, Note_on_c, 0, 62, 72
4, 76704, Note_on_c, 0, 62, 0
4, 76704, Note_on_c, 0, 60, 72
4, 76800, Note_on_c, 0, 60, 0
4, 76800, Note_on_c, 0, 58, 72
4, 76944, Note_on_c, 0, 58, 0
4, 76944, Note_on_c, 0, 57, 72
4, 76992, Note_on_c, 0, 57, 0
4, 76992, Note_on_c, 0, 55, 72
4, 77040, Note_on_c, 0, 55, 0
4, 77040, Note_on_c, 0, 57, 72
4, 77088, Note_on_c, 0, 57, 0
4, 77088, Note_on_c, 0, 58, 72
4, 77136, Note_on_c, 0, 58, 0
4, 77136, Note_on_c, 0, 55, 72
4, 77184, Note_on_c, 0, 55, 0
4, 77184, Note_on_c, 0, 60, 72
4, 77232, Note_on_c, 0, 60, 0
4, 77232, Note_on_c, 0, 58, 72
4, 77280, Note_on_c, 0, 58, 0
4, 77280, Note_on_c, 0, 57, 72
4, 77328, Note_on_c, 0, 57, 0
4, 77328, Note_on_c, 0, 55, 72
4, 77376, Note_on_c, 0, 55, 0
4, 77376, Note_on_c, 0, 54, 72
4, 77424, Note_on_c, 0, 54, 0
4, 77424, Note_on_c, 0, 52, 72
4, 77472, Note_on_c, 0, 52, 0
4, 77472, Note_on_c, 0, 54, 72
4, 77520, Note_on_c, 0, 54, 0
4, 77520, Note_on_c, 0, 50, 72
4, 77568, Note_on_c, 0, 50, 0
4, 77568, Note_on_c, 0, 55, 72
4, 77664, Note_on_c, 0, 55, 0
4, 77664, Note_on_c, 0, 52, 72
4, 77760, Note_on_c, 0, 52, 0
4, 77760, Note_on_c, 0, 53, 72
4, 77856, Note_on_c, 0, 53, 0
4, 77856, Note_on_c, 0, 55, 72
4, 77904, Note_on_c, 0, 55, 0
4, 77904, Note_on_c, 0, 57, 72
4, 77952, Note_on_c, 0, 57, 0
4, 77952, Note_on_c, 0, 58, 72
4, 78000, Note_on_c, 0, 58, 0
4, 78000, Note_on_c, 0, 57, 72
4, 78048, Note_on_c, 0, 57, 0
4, 78048, Note_on_c, 0, 55, 72
4, 78096, Note_on_c, 0, 55, 0
4, 78096, Note_on_c, 0, 57, 72
4, 78144, Note_on_c, 0, 57, 0
4, 78144, Note_on_c, 0, 58, 72
4, 78192, Note_on_c, 0, 58, 0
4, 78192, Note_on_c, 0, 52, 72
4, 78240, Note_on_c, 0, 52, 0
4, 78240, Note_on_c, 0, 57, 72
4, 78336, Note_on_c, 0, 57, 0
4, 78336, Note_on_c, 0, 57, 72
4, 78432, Note_on_c, 0, 57, 0
4, 78432, Note_on_c, 0, 62, 72
4, 78624, Note_on_c, 0, 62, 0
4, 78624, Note_on_c, 0, 60, 72
4, 78720, Note_on_c, 0, 60, 0
4, 78720, Note_on_c, 0, 59, 72
4, 78816, Note_on_c, 0, 59, 0
4, 78816, Note_on_c, 0, 64, 72
4, 79104, Note_on_c, 0, 64, 0
4, 79104, Note_on_c, 0, 64, 72
4, 79200, Note_on_c, 0, 64, 0
4, 80448, Note_on_c, 0, 58, 88
4, 80640, Note_on_c, 0, 58, 0
4, 80640, Note_on_c, 0, 57, 88
4, 80832, Note_on_c, 0, 57, 0
4, 80832, Note_on_c, 0, 61, 88
4, 81024, Note_on_c, 0, 61, 0
4, 81024, Note_on_c, 0, 59, 88
4, 81168, Note_on_c, 0, 59, 0
4, 81168, Note_on_c, 0, 61, 88
4, 81216, Note_on_c, 0, 61, 0
4, 81216, Note_on_c, 0, 62, 88
4, 81408, Note_on_c, 0, 62, 0
4, 81408, Note_on_c, 0, 62, 88
4, 81552, Note_on_c, 0, 62, 0
4, 81552, Note_on_c, 0, 61, 88
4, 81576, Note_on_c, 0, 61, 0
4, 81576, Note_on_c, 0, 59, 88
4, 81600, Note_on_c, 0, 59, 0
4, 81600, Note_on_c, 0, 61, 88
4, 81792, Note_on_c, 0, 61, 0
4, 81792, Note_on_c, 0, 62, 88
4, 81936, Note_on_c, 0, 62, 0
4, 81936, Note_on_c, 0, 60, 72
4, 81984, Note_on_c, 0, 60, 0
4, 81984, Note_on_c, 0, 59, 72
4, 82080, Note_on_c, 0, 59, 0
4, 82080, Note_on_c, 0, 57, 72
4, 82176, Note_on_c, 0, 57, 0
4, 82176, Note_on_c, 0, 58, 72
4, 82368, Note_on_c, 0, 58, 0
4, 82368, Note_on_c, 0, 58, 72
4, 82416, Note_on_c, 0, 58, 0
4, 82416, Note_on_c, 0, 57, 72
4, 82464, Note_on_c, 0, 57, 0
4, 82464, Note_on_c, 0, 58, 72
4, 82512, Note_on_c, 0, 58, 0
4, 82512, Note_on_c, 0, 55, 72
4, 82560, Note_on_c, 0, 55, 0
4, 82560, Note_on_c, 0, 57, 72
4, 82752, Note_on_c, 0, 57, 0
4, 82752, Note_on_c, 0, 57, 72
4, 82800, Note_on_c, 0, 57, 0
4, 82800, Note_on_c, 0, 58, 72
4, 82848, Note_on_c, 0, 58, 0
4, 82848, Note_on_c, 0, 57, 72
4, 82896, Note_on_c, 0, 57, 0
4, 82896, Note_on_c, 0, 56, 72
4, 82944, Note_on_c, 0, 56, 0
4, 82944, Note_on_c, 0, 57, 72
4, 83040, Note_on_c, 0, 57, 0
4, 83232, Note_on_c, 0, 58, 72
4, 83328, Note_on_c, 0, 58, 0
4, 83328, Note_on_c, 0, 60, 72
4, 83424, Note_on_c, 0, 60, 0
4, 83424, Note_on_c, 0, 62, 72
4, 83520, Note_on_c, 0, 62, 0
4, 83520, Note_on_c, 0, 64, 72
4, 83616, Note_on_c, 0, 64, 0
4, 83616, Note_on_c, 0, 65, 72
4, 83664, Note_on_c, 0, 65, 0
4, 83664, Note_on_c, 0, 64, 72
4, 83712, Note_on_c, 0, 64, 0
4, 83712, Note_on_c, 0, 62, 72
4, 83904, Note_on_c, 0, 62, 0
4, 83904, Note_on_c, 0, 62, 72
4, 83952, Note_on_c, 0, 62, 0
4, 83952, Note_on_c, 0, 61, 72
4, 84000, Note_on_c, 0, 61, 0
4, 84000, Note_on_c, 0, 62, 72
4, 84048, Note_on_c, 0, 62, 0
4, 84048, Note_on_c, 0, 66, 72
4, 84096, Note_on_c, 0, 66, 0
4, 84096, Note_on_c, 0, 64, 72
4, 84144, Note_on_c, 0, 64, 0
4, 84144, Note_on_c, 0, 62, 72
4, 84192, Note_on_c, 0, 62, 0
4, 84192, Note_on_c, 0, 64, 72
4, 84384, Note_on_c, 0, 64, 0
4, 84384, Note_on_c, 0, 59, 72
4, 84480, Note_on_c, 0, 59, 0
4, 84480, Note_on_c, 0, 59, 72
4, 84864, Note_on_c, 0, 59, 0
4, 84864, Note_on_c, 0, 57, 72
4, 85008, Note_on_c, 0, 57, 0
4, 85008, Note_on_c, 0, 55, 72
4, 85032, Note_on_c, 0, 55, 0
4, 85032, Note_on_c, 0, 53, 72
4, 85056, Note_on_c, 0, 53, 0
4, 85056, Note_on_c, 0, 52, 72
4, 85200, Note_on_c, 0, 52, 0
4, 85200, Note_on_c, 0, 50, 72
4, 85224, Note_on_c, 0, 50, 0
4, 85224, Note_on_c, 0, 52, 72
4, 85248, Note_on_c, 0, 52, 0
4, 85248, Note_on_c, 0, 50, 72
4, 85344, Note_on_c, 0, 50, 0
4, 85344, Note_on_c, 0, 52, 72
4, 85392, Note_on_c, 0, 52, 0
4, 85392, Note_on_c, 0, 54, 72
4, 85440, Note_on_c, 0, 54, 0
4, 85440, Note_on_c, 0, 55, 72
4, 85536, Note_on_c, 0, 55, 0
4, 85536, Note_on_c, 0, 53, 72
4, 85632, Note_on_c, 0, 53, 0
4, 85632, Note_on_c, 0, 51, 72
4, 85680, Note_on_c, 0, 51, 0
4, 85680, Note_on_c, 0, 50, 72
4, 85728, Note_on_c, 0, 50, 0
4, 85728, Note_on_c, 0, 48, 72
4, 85824, Note_on_c, 0, 48, 0
4, 85824, Note_on_c, 0, 50, 72
4, 85920, Note_on_c, 0, 50, 0
4, 85920, Note_on_c, 0, 51, 72
4, 86016, Note_on_c, 0, 51, 0
4, 86016, Note_on_c, 0, 51, 72
4, 86064, Note_on_c, 0, 51, 0
4, 86064, Note_on_c, 0, 50, 72
4, 86112, Note_on_c, 0, 50, 0
4, 86112, Note_on_c, 0, 51, 72
4, 86256, Note_on_c, 0, 51, 0
4, 86256, Note_on_c, 0, 50, 72
4, 86304, Note_on_c, 0, 50, 0
4, 86304, Note_on_c, 0, 53, 88
4, 86400, Note_on_c, 0, 53, 0
4, 86400, Note_on_c, 0, 53, 88
4, 86496, Note_on_c, 0, 53, 0
4, 86496, Note_on_c, 0, 52, 88
4, 86688, Note_on_c, 0, 52, 0
4, 86688, Note_on_c, 0, 55, 88
4, 86784, Note_on_c, 0, 55, 0
4, 86784, Note_on_c, 0, 55, 88
4, 86880, Note_on_c, 0, 55, 0
4, 86880, Note_on_c, 0, 54, 88
4, 87024, Note_on_c, 0, 54, 0
4, 87024, Note_on_c, 0, 56, 88
4, 87072, Note_on_c, 0, 56, 0
4, 87072, Note_on_c, 0, 57, 88
4, 87168, Note_on_c, 0, 57, 0
4, 87168, Note_on_c, 0, 57, 88
4, 87360, Note_on_c, 0, 57, 0
4, 87360, Note_on_c, 0, 57, 88
4, 87408, Note_on_c, 0, 57, 0
4, 87408, Note_on_c, 0, 56, 88
4, 87432, Note_on_c, 0, 56, 0
4, 87432, Note_on_c, 0, 54, 88
4, 87456, Note_on_c, 0, 54, 0
4, 87456, Note_on_c, 0, 56, 88
4, 87552, Note_on_c, 0, 56, 0
4, 87552, Note_on_c, 0, 56, 88
4, 87648, Note_on_c, 0, 56, 0
4, 87648, Note_on_c, 0, 57, 88
4, 87696, Note_on_c, 0, 57, 0
4, 87696, Note_on_c, 0, 52, 88
4, 87744, Note_on_c, 0, 52, 0
4, 87744, Note_on_c, 0, 57, 88
4, 87792, Note_on_c, 0, 57, 0
4, 87792, Note_on_c, 0, 58, 72
4, 87816, Note_on_c, 0, 58, 0
4, 87816, Note_on_c, 0, 57, 72
4, 87840, Note_on_c, 0, 57, 0
4, 87840, Note_on_c, 0, 55, 72
4, 87888, Note_on_c, 0, 55, 0
4, 87888, Note_on_c, 0, 57, 72
4, 87936, Note_on_c, 0, 57, 0
4, 87936, Note_on_c, 0, 58, 72
4, 87984, Note_on_c, 0, 58, 0
4, 87984, Note_on_c, 0, 62, 72
4, 88032, Note_on_c, 0, 62, 0
4, 88032, Note_on_c, 0, 55, 72
4, 88080, Note_on_c, 0, 55, 0
4, 88080, Note_on_c, 0, 57, 72
4, 88128, Note_on_c, 0, 57, 0
4, 88128, Note_on_c, 0, 58, 72
4, 88176, Note_on_c, 0, 58, 0
4, 88176, Note_on_c, 0, 55, 72
4, 88224, Note_on_c, 0, 55, 0
4, 88224, Note_on_c, 0, 52, 72
4, 88272, Note_on_c, 0, 52, 0
4, 88272, Note_on_c, 0, 53, 72
4, 88296, Note_on_c, 0, 53, 0
4, 88296, Note_on_c, 0, 55, 72
4, 88320, Note_on_c, 0, 55, 0
4, 88320, Note_on_c, 0, 57, 72
4, 88416, Note_on_c, 0, 57, 0
4, 88416, Note_on_c, 0, 55, 72
4, 88608, Note_on_c, 0, 55, 0
4, 88608, Note_on_c, 0, 53, 72
4, 88704, Note_on_c, 0, 53, 0
4, 88704, Note_on_c, 0, 53, 72
4, 88752, Note_on_c, 0, 53, 0
4, 88752, Note_on_c, 0, 52, 72
4, 88776, Note_on_c, 0, 52, 0
4, 88776, Note_on_c, 0, 50, 72
4, 88800, Note_on_c, 0, 50, 0
4, 88800, Note_on_c, 0, 57, 72
4, 88992, Note_on_c, 0, 57, 0
4, 88992, Note_on_c, 0, 55, 72
4, 89088, Note_on_c, 0, 55, 0
4, 89088, Note_on_c, 0, 57, 72
4, 89280, Note_on_c, 0, 57, 0
4, 90048, Note_on_c, 0, 58, 88
4, 90240, Note_on_c, 0, 58, 0
4, 90240, Note_on_c, 0, 57, 88
4, 90432, Note_on_c, 0, 57, 0
4, 90432, Note_on_c, 0, 60, 88
4, 90624, Note_on_c, 0, 60, 0
4, 90624, Note_on_c, 0, 59, 88
4, 90768, Note_on_c, 0, 59, 0
4, 90768, Note_on_c, 0, 61, 88
4, 90816, Note_on_c, 0, 61, 0
4, 90816, Note_on_c, 0, 62, 88
4, 91008, Note_on_c, 0, 62, 0
4, 91008, Note_on_c, 0, 62, 88
4, 91152, Note_on_c, 0, 62, 0
4, 91152, Note_on_c, 0, 61, 88
4, 91176, Note_on_c, 0, 61, 0
4, 91176, Note_on_c, 0, 59, 88
4, 91200, Note_on_c, 0, 59, 0
4, 91200, Note_on_c, 0, 61, 88
4, 91392, Note_on_c, 0, 61, 0
4, 91392, Note_on_c, 0, 62, 88
4, 91440, Note_on_c, 0, 62, 0
4, 91440, Note_on_c, 0, 64, 72
4, 91488, Note_on_c, 0, 64, 0
4, 91488, Note_on_c, 0, 62, 72
4, 91536, Note_on_c, 0, 62, 0
4, 91536, Note_on_c, 0, 60, 72
4, 91584, Note_on_c, 0, 60, 0
4, 91584, Note_on_c, 0, 59, 72
4, 91632, Note_on_c, 0, 59, 0
4, 91632, Note_on_c, 0, 57, 72
4, 91680, Note_on_c, 0, 57, 0
4, 91680, Note_on_c, 0, 59, 72
4, 91728, Note_on_c, 0, 59, 0
4, 91728, Note_on_c, 0, 62, 72
4, 91776, Note_on_c, 0, 62, 0
4, 91776, End_track
5, 0, Start_track
5, 0, Program_c, 0, 0
5, 192, Note_on_c, 0, 50, 88
5, 384, Note_on_c, 0, 50, 0
5, 384, Note_on_c, 0, 57, 88
5, 672, Note_on_c, 0, 57, 0
5, 672, Note_on_c, 0, 55, 88
5, 768, Note_on_c, 0, 55, 0
5, 768, Note_on_c, 0, 53, 88
5, 1152, Note_on_c, 0, 53, 0
5, 1152, Note_on_c, 0, 55, 88
5, 1536, Note_on_c, 0, 55, 0
5, 1536, Note_on_c, 0, 57, 88
5, 1920, Note_on_c, 0, 57, 0
5, 1920, Note_on_c, 0, 50, 88
5, 2112, Note_on_c, 0, 50, 0
5, 2112, Note_on_c, 0, 53, 72
5, 2304, Note_on_c, 0, 53, 0
5, 2304, Note_on_c, 0, 53, 72
5, 2400, Note_on_c, 0, 53, 0
5, 2400, Note_on_c, 0, 47, 72
5, 2496, Note_on_c, 0, 47, 0
5, 2496, Note_on_c, 0, 52, 72
5, 2688, Note_on_c, 0, 52, 0
5, 2688, Note_on_c, 0, 45, 72
5, 2784, Note_on_c, 0, 45, 0
5, 2784, Note_on_c, 0, 52, 72
5, 2880, Note_on_c, 0, 52, 0
5, 2880, Note_on_c, 0, 57, 72
5, 2976, Note_on_c, 0, 57, 0
5, 2976, Note_on_c, 0, 55, 72
5, 3072, Note_on_c, 0, 55, 0
5, 3072, Note_on_c, 0, 53, 72
5, 3168, Note_on_c, 0, 53, 0
5, 3168, Note_on_c, 0, 50, 72
5, 3264, Note_on_c, 0, 50, 0
5, 3264, Note_on_c, 0, 58, 72
5, 3360, Note_on_c, 0, 58, 0
5, 3360, Note_on_c, 0, 57, 72
5, 3456, Note_on_c, 0, 57, 0
5, 3456, Note_on_c, 0, 55, 72
5, 3552, Note_on_c, 0, 55, 0
5, 3552, Note_on_c, 0, 52, 72
5, 3648, Note_on_c, 0, 52, 0
5, 3648, Note_on_c, 0, 49, 72
5, 3744, Note_on_c, 0, 49, 0
5, 3744, Note_on_c, 0, 50, 72
5, 3792, Note_on_c, 0, 50, 0
5, 3792, Note_on_c, 0, 52, 72
5, 3840, Note_on_c, 0, 52, 0
5, 3840, Note_on_c, 0, 53, 72
5, 3936, Note_on_c, 0, 53, 0
5, 3936, Note_on_c, 0, 50, 72
5, 4032, Note_on_c, 0, 50, 0
5, 4032, Note_on_c, 0, 48, 72
5, 4128, Note_on_c, 0, 48, 0
5, 4128, Note_on_c, 0, 46, 72
5, 4224, Note_on_c, 0, 46, 0
5, 4224, Note_on_c, 0, 45, 72
5, 4320, Note_on_c, 0, 45, 0
5, 4320, Note_on_c, 0, 43, 72
5, 4416, Note_on_c, 0, 43, 0
5, 4416, Note_on_c, 0, 45, 72
5, 4608, Note_on_c, 0, 45, 0
5, 4608, Note_on_c, 0, 38, 72
5, 4896, Note_on_c, 0, 38, 0
5, 4896, Note_on_c, 0, 50, 72
5, 4992, Note_on_c, 0, 50, 0
5, 4992, Note_on_c, 0, 52, 72
5, 5280, Note_on_c, 0, 52, 0
5, 5280, Note_on_c, 0, 50, 72
5, 5328, Note_on_c, 0, 50, 0
5, 5328, Note_on_c, 0, 52, 72
5, 5376, Note_on_c, 0, 52, 0
5, 5376, Note_on_c, 0, 53, 72
5, 5568, Note_on_c, 0, 53, 0
5, 5568, Note_on_c, 0, 54, 72
5, 5760, Note_on_c, 0, 54, 0
5, 5760, Note_on_c, 0, 55, 72
5, 6048, Note_on_c, 0, 55, 0
5, 6048, Note_on_c, 0, 54, 72
5, 6096, Note_on_c, 0, 54, 0
5, 6096, Note_on_c, 0, 52, 72
5, 6144, Note_on_c, 0, 52, 0
5, 6144, Note_on_c, 0, 54, 72
5, 6336, Note_on_c, 0, 54, 0
5, 6336, Note_on_c, 0, 56, 72
5, 6528, Note_on_c, 0, 56, 0
5, 6528, Note_on_c, 0, 57, 72
5, 6720, Note_on_c, 0, 57, 0
5, 7872, Note_on_c, 0, 50, 88
5, 8064, Note_on_c, 0, 50, 0
5, 8064, Note_on_c, 0, 45, 88
5, 8352, Note_on_c, 0, 45, 0
5, 8352, Note_on_c, 0, 47, 88
5, 8448, Note_on_c, 0, 47, 0
5, 8448, Note_on_c, 0, 48, 88
5, 8832, Note_on_c, 0, 48, 0
5, 8832, Note_on_c, 0, 46, 88
5, 9216, Note_on_c, 0, 46, 0
5, 9216, Note_on_c, 0, 45, 88
5, 9600, Note_on_c, 0, 45, 0
5, 9600, Note_on_c, 0, 50, 88
5, 9984, Note_on_c, 0, 50, 0
5, 9984, Note_on_c, 0, 48, 72
5, 10080, Note_on_c, 0, 48, 0
5, 10080, Note_on_c, 0, 50, 72
5, 10176, Note_on_c, 0, 50, 0
5, 10176, Note_on_c, 0, 51, 72
5, 10368, Note_on_c, 0, 51, 0
5, 10368, Note_on_c, 0, 51, 72
5, 10464, Note_on_c, 0, 51, 0
5, 10464, Note_on_c, 0, 45, 72
5, 10560, Note_on_c, 0, 45, 0
5, 10560, Note_on_c, 0, 50, 72
5, 10656, Note_on_c, 0, 50, 0
5, 10656, Note_on_c, 0, 48, 72
5, 10752, Note_on_c, 0, 48, 0
5, 10752, Note_on_c, 0, 47, 72
5, 10944, Note_on_c, 0, 47, 0
5, 10944, Note_on_c, 0, 46, 72
5, 11136, Note_on_c, 0, 46, 0
5, 11136, Note_on_c, 0, 46, 72
5, 11328, Note_on_c, 0, 46, 0
5, 11328, Note_on_c, 0, 45, 72
5, 11520, Note_on_c, 0, 45, 0
5, 11520, Note_on_c, 0, 43, 72
5, 11712, Note_on_c, 0, 43, 0
5, 11808, Note_on_c, 0, 43, 72
5, 11904, Note_on_c, 0, 43, 0
5, 11904, Note_on_c, 0, 50, 72
5, 12192, Note_on_c, 0, 50, 0
5, 12192, Note_on_c, 0, 52, 72
5, 12240, Note_on_c, 0, 52, 0
5, 12240, Note_on_c, 0, 53, 72
5, 12288, Note_on_c, 0, 53, 0
5, 12288, Note_on_c, 0, 55, 72
5, 12576, Note_on_c, 0, 55, 0
5, 12576, Note_on_c, 0, 54, 72
5, 12624, Note_on_c, 0, 54, 0
5, 12624, Note_on_c, 0, 52, 72
5, 12672, Note_on_c, 0, 52, 0
5, 12672, Note_on_c, 0, 54, 72
5, 12768, Note_on_c, 0, 54, 0
5, 12768, Note_on_c, 0, 50, 72
5, 12864, Note_on_c, 0, 50, 0
5, 12864, Note_on_c, 0, 55, 72
5, 13056, Note_on_c, 0, 55, 0
5, 13056, Note_on_c, 0, 55, 72
5, 13248, Note_on_c, 0, 55, 0
5, 13248, Note_on_c, 0, 53, 72
5, 13344, Note_on_c, 0, 53, 0
5, 13344, Note_on_c, 0, 55, 72
5, 13440, Note_on_c, 0, 55, 0
5, 13440, Note_on_c, 0, 57, 72
5, 13632, Note_on_c, 0, 57, 0
5, 13632, Note_on_c, 0, 45, 72
5, 13824, Note_on_c, 0, 45, 0
5, 13824, Note_on_c, 0, 50, 72
5, 14112, Note_on_c, 0, 50, 0
5, 14112, Note_on_c, 0, 48, 72
5, 14208, Note_on_c, 0, 48, 0
5, 14208, Note_on_c, 0, 46, 72
5, 14304, Note_on_c, 0, 46, 0
5, 14304, Note_on_c, 0, 45, 72
5, 14400, Note_on_c, 0, 45, 0
5, 14400, Note_on_c, 0, 46, 72
5, 14592, Note_on_c, 0, 46, 0
5, 14592, Note_on_c, 0, 45, 72
5, 14976, Note_on_c, 0, 45, 0
5, 14976, Note_on_c, 0, 46, 72
5, 15072, Note_on_c, 0, 46, 0
5, 15072, Note_on_c, 0, 53, 72
5, 15168, Note_on_c, 0, 53, 0
5, 15168, Note_on_c, 0, 58, 72
5, 15264, Note_on_c, 0, 58, 0
5, 15264, Note_on_c, 0, 57, 72
5, 15360, Note_on_c, 0, 57, 0
5, 15360, Note_on_c, 0, 55, 72
5, 15456, Note_on_c, 0, 55, 0
5, 15456, Note_on_c, 0, 53, 72
5, 15552, Note_on_c, 0, 53, 0
5, 15552, Note_on_c, 0, 52, 72
5, 15648, Note_on_c, 0, 52, 0
5, 15648, Note_on_c, 0, 50, 72
5, 15696, Note_on_c, 0, 50, 0
5, 15696, Note_on_c, 0, 48, 72
5, 15744, Note_on_c, 0, 48, 0
5, 15744, Note_on_c, 0, 53, 72
5, 15936, Note_on_c, 0, 53, 0
5, 15936, Note_on_c, 0, 54, 72
5, 16128, Note_on_c, 0, 54, 0
5, 16128, Note_on_c, 0, 55, 72
5, 16320, Note_on_c, 0, 55, 0
5, 16320, Note_on_c, 0, 43, 88
5, 16512, Note_on_c, 0, 43, 0
5, 16512, Note_on_c, 0, 48, 88
5, 16800, Note_on_c, 0, 48, 0
5, 16800, Note_on_c, 0, 46, 88
5, 16896, Note_on_c, 0, 46, 0
5, 16896, Note_on_c, 0, 45, 88
5, 17280, Note_on_c, 0, 45, 0
5, 17280, Note_on_c, 0, 46, 88
5, 17664, Note_on_c, 0, 46, 0
5, 17664, Note_on_c, 0, 48, 88
5, 18048, Note_on_c, 0, 48, 0
5, 18048, Note_on_c, 0, 41, 88
5, 18240, Note_on_c, 0, 41, 0
5, 18240, Note_on_c, 0, 42, 72
5, 18432, Note_on_c, 0, 42, 0
5, 18432, Note_on_c, 0, 43, 72
5, 18528, Note_on_c, 0, 43, 0
5, 18528, Note_on_c, 0, 41, 72
5, 18624, Note_on_c, 0, 41, 0
5, 18624, Note_on_c, 0, 40, 72
5, 18720, Note_on_c, 0, 40, 0
5, 18720, Note_on_c, 0, 38, 72
5, 18816, Note_on_c, 0, 38, 0
5, 18816, Note_on_c, 0, 36, 72
5, 18912, Note_on_c, 0, 36, 0
5, 18912, Note_on_c, 0, 43, 72
5, 19008, Note_on_c, 0, 43, 0
5, 19008, Note_on_c, 0, 48, 72
5, 19104, Note_on_c, 0, 48, 0
5, 19104, Note_on_c, 0, 46, 72
5, 19200, Note_on_c, 0, 46, 0
5, 19200, Note_on_c, 0, 45, 72
5, 19296, Note_on_c, 0, 45, 0
5, 19296, Note_on_c, 0, 43, 72
5, 19392, Note_on_c, 0, 43, 0
5, 19392, Note_on_c, 0, 42, 72
5, 19488, Note_on_c, 0, 42, 0
5, 19488, Note_on_c, 0, 38, 72
5, 19584, Note_on_c, 0, 38, 0
5, 19584, Note_on_c, 0, 43, 72
5, 19680, Note_on_c, 0, 43, 0
5, 19680, Note_on_c, 0, 50, 72
5, 19776, Note_on_c, 0, 50, 0
5, 19776, Note_on_c, 0, 55, 72
5, 19872, Note_on_c, 0, 55, 0
5, 19872, Note_on_c, 0, 53, 72
5, 19968, Note_on_c, 0, 53, 0
5, 19968, Note_on_c, 0, 52, 72
5, 20064, Note_on_c, 0, 52, 0
5, 20064, Note_on_c, 0, 50, 72
5, 20160, Note_on_c, 0, 50, 0
5, 20160, Note_on_c, 0, 48, 72
5, 20256, Note_on_c, 0, 48, 0
5, 20256, Note_on_c, 0, 46, 72
5, 20352, Note_on_c, 0, 46, 0
5, 20352, Note_on_c, 0, 45, 72
5, 20448, Note_on_c, 0, 45, 0
5, 20448, Note_on_c, 0, 48, 72
5, 20544, Note_on_c, 0, 48, 0
5, 20544, Note_on_c, 0, 53, 72
5, 20640, Note_on_c, 0, 53, 0
5, 20640, Note_on_c, 0, 52, 72
5, 20736, Note_on_c, 0, 52, 0
5, 20736, Note_on_c, 0, 50, 72
5, 20832, Note_on_c, 0, 50, 0
5, 20832, Note_on_c, 0, 52, 72
5, 20928, Note_on_c, 0, 52, 0
5, 20928, Note_on_c, 0, 53, 72
5, 21120, Note_on_c, 0, 53, 0
5, 21120, Note_on_c, 0, 53, 72
5, 21216, Note_on_c, 0, 53, 0
5, 21216, Note_on_c, 0, 52, 72
5, 21408, Note_on_c, 0, 52, 0
5, 21408, Note_on_c, 0, 51, 72
5, 21504, Note_on_c, 0, 51, 0
5, 21504, Note_on_c, 0, 50, 72
5, 21600, Note_on_c, 0, 50, 0
5, 21600, Note_on_c, 0, 52, 72
5, 21648, Note_on_c, 0, 52, 0
5, 21648, Note_on_c, 0, 54, 72
5, 21696, Note_on_c, 0, 54, 0
5, 21696, Note_on_c, 0, 55, 72
5, 21888, Note_on_c, 0, 55, 0
5, 21888, Note_on_c, 0, 55, 72
5, 21984, Note_on_c, 0, 55, 0
5, 21984, Note_on_c, 0, 48, 72
5, 22080, Note_on_c, 0, 48, 0
5, 22080, Note_on_c, 0, 53, 72
5, 22272, Note_on_c, 0, 53, 0
5, 22272, Note_on_c, 0, 53, 72
5, 22368, Note_on_c, 0, 53, 0
5, 22368, Note_on_c, 0, 51, 72
5, 22416, Note_on_c, 0, 51, 0
5, 22416, Note_on_c, 0, 50, 72
5, 22464, Note_on_c, 0, 50, 0
5, 22464, Note_on_c, 0, 51, 72
5, 22656, Note_on_c, 0, 51, 0
5, 22656, Note_on_c, 0, 50, 72
5, 22848, Note_on_c, 0, 50, 0
5, 23232, Note_on_c, 0, 50, 88
5, 23424, Note_on_c, 0, 50, 0
5, 23424, Note_on_c, 0, 57, 88
5, 23712, Note_on_c, 0, 57, 0
5, 23712, Note_on_c, 0, 55, 88
5, 23808, Note_on_c, 0, 55, 0
5, 23808, Note_on_c, 0, 53, 88
5, 24192, Note_on_c, 0, 53, 0
5, 24192, Note_on_c, 0, 55, 88
5, 24576, Note_on_c, 0, 55, 0
5, 24576, Note_on_c, 0, 57, 88
5, 24960, Note_on_c, 0, 57, 0
5, 24960, Note_on_c, 0, 50, 88
5, 25344, Note_on_c, 0, 50, 0
5, 25344, Note_on_c, 0, 48, 72
5, 25728, Note_on_c, 0, 48, 0
5, 25728, Note_on_c, 0, 48, 72
5, 26112, Note_on_c, 0, 48, 0
5, 26112, Note_on_c, 0, 50, 72
5, 26400, Note_on_c, 0, 50, 0
5, 26400, Note_on_c, 0, 51, 72
5, 26496, Note_on_c, 0, 51, 0
5, 26496, Note_on_c, 0, 53, 72
5, 26592, Note_on_c, 0, 53, 0
5, 26592, Note_on_c, 0, 48, 72
5, 26688, Note_on_c, 0, 48, 0
5, 26688, Note_on_c, 0, 53, 72
5, 26784, Note_on_c, 0, 53, 0
5, 26784, Note_on_c, 0, 51, 72
5, 26880, Note_on_c, 0, 51, 0
5, 26880, Note_on_c, 0, 50, 72
5, 26976, Note_on_c, 0, 50, 0
5, 26976, Note_on_c, 0, 48, 72
5, 27024, Note_on_c, 0, 48, 0
5, 27024, Note_on_c, 0, 46, 72
5, 27072, Note_on_c, 0, 46, 0
5, 27072, Note_on_c, 0, 48, 72
5, 27168, Note_on_c, 0, 48, 0
5, 27168, Note_on_c, 0, 50, 72
5, 27264, Note_on_c, 0, 50, 0
5, 27264, Note_on_c, 0, 51, 72
5, 27360, Note_on_c, 0, 51, 0
5, 27360, Note_on_c, 0, 46, 72
5, 27456, Note_on_c, 0, 46, 0
5, 27456, Note_on_c, 0, 51, 72
5, 27648, Note_on_c, 0, 51, 0
5, 27648, Note_on_c, 0, 51, 72
5, 27744, Note_on_c, 0, 51, 0
5, 27744, Note_on_c, 0, 50, 72
5, 27792, Note_on_c, 0, 50, 0
5, 27792, Note_on_c, 0, 48, 72
5, 27840, Note_on_c, 0, 48, 0
5, 27840, Note_on_c, 0, 50, 72
5, 27936, Note_on_c, 0, 50, 0
5, 27936, Note_on_c, 0, 52, 72
5, 28032, Note_on_c, 0, 52, 0
5, 28032, Note_on_c, 0, 53, 72
5, 28224, Note_on_c, 0, 53, 0
5, 28224, Note_on_c, 0, 48, 72
5, 28320, Note_on_c, 0, 48, 0
5, 28320, Note_on_c, 0, 50, 72
5, 28416, Note_on_c, 0, 50, 0
5, 28416, Note_on_c, 0, 51, 72
5, 28512, Note_on_c, 0, 51, 0
5, 28512, Note_on_c, 0, 46, 72
5, 28608, Note_on_c, 0, 46, 0
5, 28608, Note_on_c, 0, 51, 72
5, 28800, Note_on_c, 0, 51, 0
5, 28800, Note_on_c, 0, 51, 72
5, 28896, Note_on_c, 0, 51, 0
5, 28896, Note_on_c, 0, 50, 72
5, 29088, Note_on_c, 0, 50, 0
5, 29088, Note_on_c, 0, 48, 72
5, 29136, Note_on_c, 0, 48, 0
5, 29136, Note_on_c, 0, 50, 72
5, 29184, Note_on_c, 0, 50, 0
5, 29184, Note_on_c, 0, 52, 72
5, 29280, Note_on_c, 0, 52, 0
5, 29280, Note_on_c, 0, 54, 72
5, 29328, Note_on_c, 0, 54, 0
5, 29328, Note_on_c, 0, 55, 72
5, 29376, Note_on_c, 0, 55, 0
5, 29376, Note_on_c, 0, 57, 72
5, 29472, Note_on_c, 0, 57, 0
5, 29472, Note_on_c, 0, 55, 72
5, 29568, Note_on_c, 0, 55, 0
5, 29568, Note_on_c, 0, 54, 72
5, 29664, Note_on_c, 0, 54, 0
5, 29664, Note_on_c, 0, 50, 72
5, 29760, Note_on_c, 0, 50, 0
5, 29760, Note_on_c, 0, 55, 72
5, 29952, Note_on_c, 0, 55, 0
5, 29952, Note_on_c, 0, 55, 72
5, 30144, Note_on_c, 0, 55, 0
5, 30144, Note_on_c, 0, 54, 72
5, 30336, Note_on_c, 0, 54, 0
5, 30336, Note_on_c, 0, 55, 72
5, 30624, Note_on_c, 0, 55, 0
5, 30624, Note_on_c, 0, 49, 72
5, 30720, Note_on_c, 0, 49, 0
5, 30720, Note_on_c, 0, 50, 72
5, 30816, Note_on_c, 0, 50, 0
5, 30816, Note_on_c, 0, 52, 72
5, 30912, Note_on_c, 0, 52, 0
5, 30912, Note_on_c, 0, 53, 72
5, 31008, Note_on_c, 0, 53, 0
5, 31008, Note_on_c, 0, 55, 72
5, 31104, Note_on_c, 0, 55, 0
5, 31104, Note_on_c, 0, 57, 72
5, 31392, Note_on_c, 0, 57, 0
5, 31392, Note_on_c, 0, 58, 72
5, 31440, Note_on_c, 0, 58, 0
5, 31440, Note_on_c, 0, 57, 72
5, 31488, Note_on_c, 0, 57, 0
5, 31488, Note_on_c, 0, 58, 72
5, 31584, Note_on_c, 0, 58, 0
5, 31584, Note_on_c, 0, 53, 72
5, 31680, Note_on_c, 0, 53, 0
5, 31680, Note_on_c, 0, 58, 72
5, 31872, Note_on_c, 0, 58, 0
5, 31872, Note_on_c, 0, 58, 72
5, 31968, Note_on_c, 0, 58, 0
5, 31968, Note_on_c, 0, 55, 72
5, 32064, Note_on_c, 0, 55, 0
5, 32064, Note_on_c, 0, 60, 72
5, 32160, Note_on_c, 0, 60, 0
5, 32160, Note_on_c, 0, 58, 72
5, 32256, Note_on_c, 0, 58, 0
5, 32256, Note_on_c, 0, 57, 72
5, 32352, Note_on_c, 0, 57, 0
5, 32352, Note_on_c, 0, 55, 72
5, 32448, Note_on_c, 0, 55, 0
5, 32448, Note_on_c, 0, 57, 72
5, 32640, Note_on_c, 0, 57, 0
5, 32640, Note_on_c, 0, 55, 72
5, 32832, Note_on_c, 0, 55, 0
5, 33984, Note_on_c, 0, 46, 88
5, 34176, Note_on_c, 0, 46, 0
5, 34176, Note_on_c, 0, 53, 88
5, 34464, Note_on_c, 0, 53, 0
5, 34464, Note_on_c, 0, 51, 88
5, 34560, Note_on_c, 0, 51, 0
5, 34560, Note_on_c, 0, 50, 88
5, 34944, Note_on_c, 0, 50, 0
5, 34944, Note_on_c, 0, 51, 88
5, 35328, Note_on_c, 0, 51, 0
5, 35328, Note_on_c, 0, 53, 88
5, 35712, Note_on_c, 0, 53, 0
5, 35712, Note_on_c, 0, 46, 88
5, 35808, Note_on_c, 0, 46, 0
5, 35808, Note_on_c, 0, 48, 72
5, 35856, Note_on_c, 0, 48, 0
5, 35856, Note_on_c, 0, 50, 72
5, 35904, Note_on_c, 0, 50, 0
5, 35904, Note_on_c, 0, 51, 72
5, 36096, Note_on_c, 0, 51, 0
5, 36096, Note_on_c, 0, 51, 72
5, 36192, Note_on_c, 0, 51, 0
5, 36192, Note_on_c, 0, 53, 72
5, 36240, Note_on_c, 0, 53, 0
5, 36240, Note_on_c, 0, 55, 72
5, 36288, Note_on_c, 0, 55, 0
5, 36288, Note_on_c, 0, 53, 72
5, 36384, Note_on_c, 0, 53, 0
5, 36384, Note_on_c, 0, 51, 72
5, 36480, Note_on_c, 0, 51, 0
5, 36480, Note_on_c, 0, 50, 72
5, 36576, Note_on_c, 0, 50, 0
5, 36576, Note_on_c, 0, 51, 72
5, 36624, Note_on_c, 0, 51, 0
5, 36624, Note_on_c, 0, 53, 72
5, 36672, Note_on_c, 0, 53, 0
5, 36672, Note_on_c, 0, 55, 72
5, 36768, Note_on_c, 0, 55, 0
5, 36768, Note_on_c, 0, 53, 72
5, 36864, Note_on_c, 0, 53, 0
5, 36864, Note_on_c, 0, 52, 72
5, 36960, Note_on_c, 0, 52, 0
5, 36960, Note_on_c, 0, 54, 72
5, 37008, Note_on_c, 0, 54, 0
5, 37008, Note_on_c, 0, 55, 72
5, 37056, Note_on_c, 0, 55, 0
5, 37056, Note_on_c, 0, 57, 72
5, 37152, Note_on_c, 0, 57, 0
5, 37152, Note_on_c, 0, 55, 72
5, 37248, Note_on_c, 0, 55, 0
5, 37248, Note_on_c, 0, 54, 72
5, 37344, Note_on_c, 0, 54, 0
5, 37344, Note_on_c, 0, 52, 72
5, 37440, Note_on_c, 0, 52, 0
5, 37440, Note_on_c, 0, 54, 72
5, 37632, Note_on_c, 0, 54, 0
5, 37632, Note_on_c, 0, 55, 72
5, 37920, Note_on_c, 0, 55, 0
5, 37920, Note_on_c, 0, 56, 72
5, 38016, Note_on_c, 0, 56, 0
5, 38016, Note_on_c, 0, 57, 72
5, 38112, Note_on_c, 0, 57, 0
5, 38112, Note_on_c, 0, 58, 72
5, 38160, Note_on_c, 0, 58, 0
5, 38160, Note_on_c, 0, 57, 72
5, 38208, Note_on_c, 0, 57, 0
5, 38208, Note_on_c, 0, 55, 72
5, 38304, Note_on_c, 0, 55, 0
5, 38304, Note_on_c, 0, 57, 72
5, 38400, Note_on_c, 0, 57, 0
5, 38400, Note_on_c, 0, 58, 72
5, 38496, Note_on_c, 0, 58, 0
5, 38496, Note_on_c, 0, 53, 72
5, 38592, Note_on_c, 0, 53, 0
5, 38592, Note_on_c, 0, 58, 72
5, 38688, Note_on_c, 0, 58, 0
5, 38688, Note_on_c, 0, 50, 72
5, 38784, Note_on_c, 0, 50, 0
5, 38784, Note_on_c, 0, 51, 72
5, 38976, Note_on_c, 0, 51, 0
5, 38976, Note_on_c, 0, 52, 72
5, 39168, Note_on_c, 0, 52, 0
5, 39168, Note_on_c, 0, 53, 72
5, 39456, Note_on_c, 0, 53, 0
5, 39456, Note_on_c, 0, 52, 72
5, 39504, Note_on_c, 0, 52, 0
5, 39504, Note_on_c, 0, 53, 72
5, 39552, Note_on_c, 0, 53, 0
5, 39552, Note_on_c, 0, 55, 72
5, 39936, Note_on_c, 0, 55, 0
5, 39936, Note_on_c, 0, 55, 72
5, 40032, Note_on_c, 0, 55, 0
5, 40032, Note_on_c, 0, 53, 72
5, 40080, Note_on_c, 0, 53, 0
5, 40080, Note_on_c, 0, 52, 72
5, 40128, Note_on_c, 0, 52, 0
5, 40128, Note_on_c, 0, 53, 72
5, 40224, Note_on_c, 0, 53, 0
5, 40224, Note_on_c, 0, 50, 88
5, 40320, Note_on_c, 0, 50, 0
5, 40320, Note_on_c, 0, 57, 88
5, 40608, Note_on_c, 0, 57, 0
5, 40608, Note_on_c, 0, 55, 88
5, 40704, Note_on_c, 0, 55, 0
5, 40704, Note_on_c, 0, 53, 88
5, 41088, Note_on_c, 0, 53, 0
5, 41088, Note_on_c, 0, 55, 88
5, 41472, Note_on_c, 0, 55, 0
5, 41472, Note_on_c, 0, 57, 88
5, 41856, Note_on_c, 0, 57, 0
5, 41856, Note_on_c, 0, 50, 88
5, 42048, Note_on_c, 0, 50, 0
5, 42048, Note_on_c, 0, 50, 72
5, 42096, Note_on_c, 0, 50, 0
5, 42096, Note_on_c, 0, 48, 72
5, 42144, Note_on_c, 0, 48, 0
5, 42144, Note_on_c, 0, 46, 72
5, 42192, Note_on_c, 0, 46, 0
5, 42192, Note_on_c, 0, 45, 72
5, 42240, Note_on_c, 0, 45, 0
5, 42240, Note_on_c, 0, 43, 72
5, 42432, Note_on_c, 0, 43, 0
5, 42432, Note_on_c, 0, 43, 72
5, 42480, Note_on_c, 0, 43, 0
5, 42480, Note_on_c, 0, 45, 72
5, 42528, Note_on_c, 0, 45, 0
5, 42528, Note_on_c, 0, 46, 72
5, 42576, Note_on_c, 0, 46, 0
5, 42576, Note_on_c, 0, 43, 72
5, 42624, Note_on_c, 0, 43, 0
5, 42624, Note_on_c, 0, 45, 72
5, 43008, Note_on_c, 0, 45, 0
5, 43008, Note_on_c, 0, 45, 72
5, 43392, Note_on_c, 0, 45, 0
5, 43392, Note_on_c, 0, 50, 72
5, 43776, Note_on_c, 0, 50, 0
5, 43776, Note_on_c, 0, 50, 72
5, 43872, Note_on_c, 0, 50, 0
5, 48864, Note_on_c, 0, 53, 72
5, 48912, Note_on_c, 0, 53, 0
5, 48912, Note_on_c, 0, 55, 72
5, 48960, Note_on_c, 0, 55, 0
5, 48960, Note_on_c, 0, 53, 72
5, 49008, Note_on_c, 0, 53, 0
5, 49008, Note_on_c, 0, 52, 72
5, 49056, Note_on_c, 0, 52, 0
5, 49056, Note_on_c, 0, 50, 72
5, 49104, Note_on_c, 0, 50, 0
5, 49104, Note_on_c, 0, 49, 72
5, 49152, Note_on_c, 0, 49, 0
5, 49152, Note_on_c, 0, 50, 72
5, 49200, Note_on_c, 0, 50, 0
5, 49200, Note_on_c, 0, 45, 72
5, 49248, Note_on_c, 0, 45, 0
5, 49248, Note_on_c, 0, 50, 72
5, 49296, Note_on_c, 0, 50, 0
5, 49296, Note_on_c, 0, 52, 72
5, 49344, Note_on_c, 0, 52, 0
5, 49344, Note_on_c, 0, 53, 72
5, 49392, Note_on_c, 0, 53, 0
5, 49392, Note_on_c, 0, 52, 72
5, 49440, Note_on_c, 0, 52, 0
5, 49440, Note_on_c, 0, 50, 72
5, 49488, Note_on_c, 0, 50, 0
5, 49488, Note_on_c, 0, 53, 72
5, 49536, Note_on_c, 0, 53, 0
5, 49536, Note_on_c, 0, 52, 72
5, 49584, Note_on_c, 0, 52, 0
5, 49584, Note_on_c, 0, 45, 72
5, 49632, Note_on_c, 0, 45, 0
5, 49632, Note_on_c, 0, 52, 72
5, 49680, Note_on_c, 0, 52, 0
5, 49680, Note_on_c, 0, 53, 72
5, 49728, Note_on_c, 0, 53, 0
5, 49728, Note_on_c, 0, 55, 72
5, 49776, Note_on_c, 0, 55, 0
5, 49776, Note_on_c, 0, 53, 72
5, 49800, Note_on_c, 0, 53, 0
5, 49800, Note_on_c, 0, 52, 72
5, 49824, Note_on_c, 0, 52, 0
5, 49824, Note_on_c, 0, 53, 72
5, 49872, Note_on_c, 0, 53, 0
5, 49872, Note_on_c, 0, 55, 72
5, 49920, Note_on_c, 0, 55, 0
5, 49920, Note_on_c, 0, 57, 72
5, 49968, Note_on_c, 0, 57, 0
5, 49968, Note_on_c, 0, 55, 72
5, 50016, Note_on_c, 0, 55, 0
5, 50016, Note_on_c, 0, 53, 72
5, 50064, Note_on_c, 0, 53, 0
5, 50064, Note_on_c, 0, 55, 72
5, 50112, Note_on_c, 0, 55, 0
5, 50112, Note_on_c, 0, 57, 72
5, 50304, Note_on_c, 0, 57, 0
5, 50304, Note_on_c, 0, 57, 72
5, 50352, Note_on_c, 0, 57, 0
5, 50352, Note_on_c, 0, 55, 72
5, 50376, Note_on_c, 0, 55, 0
5, 50376, Note_on_c, 0, 54, 72
5, 50400, Note_on_c, 0, 54, 0
5, 50400, Note_on_c, 0, 55, 72
5, 50448, Note_on_c, 0, 55, 0
5, 50448, Note_on_c, 0, 57, 72
5, 50496, Note_on_c, 0, 57, 0
5, 50496, Note_on_c, 0, 58, 72
5, 50688, Note_on_c, 0, 58, 0
5, 50688, Note_on_c, 0, 58, 72
5, 50736, Note_on_c, 0, 58, 0
5, 50736, Note_on_c, 0, 57, 72
5, 50784, Note_on_c, 0, 57, 0
5, 50784, Note_on_c, 0, 55, 72
5, 50832, Note_on_c, 0, 55, 0
5, 50832, Note_on_c, 0, 53, 72
5, 50880, Note_on_c, 0, 53, 0
5, 50880, Note_on_c, 0, 52, 72
5, 50928, Note_on_c, 0, 52, 0
5, 50928, Note_on_c, 0, 50, 72
5, 50976, Note_on_c, 0, 50, 0
5, 50976, Note_on_c, 0, 52, 72
5, 51024, Note_on_c, 0, 52, 0
5, 51024, Note_on_c, 0, 55, 72
5, 51072, Note_on_c, 0, 55, 0
5, 51072, Note_on_c, 0, 53, 72
5, 51120, Note_on_c, 0, 53, 0
5, 51120, Note_on_c, 0, 52, 72
5, 51168, Note_on_c, 0, 52, 0
5, 51168, Note_on_c, 0, 50, 72
5, 51216, Note_on_c, 0, 50, 0
5, 51216, Note_on_c, 0, 48, 72
5, 51264, Note_on_c, 0, 48, 0
5, 51264, Note_on_c, 0, 47, 72
5, 51312, Note_on_c, 0, 47, 0
5, 51312, Note_on_c, 0, 45, 72
5, 51360, Note_on_c, 0, 45, 0
5, 51360, Note_on_c, 0, 47, 72
5, 51408, Note_on_c, 0, 47, 0
5, 51408, Note_on_c, 0, 50, 72
5, 51456, Note_on_c, 0, 50, 0
5, 51456, Note_on_c, 0, 48, 72
5, 51648, Note_on_c, 0, 48, 0
5, 51744, Note_on_c, 0, 52, 72
5, 51840, Note_on_c, 0, 52, 0
5, 51840, Note_on_c, 0, 45, 72
5, 52032, Note_on_c, 0, 45, 0
5, 52128, Note_on_c, 0, 57, 72
5, 52224, Note_on_c, 0, 57, 0
5, 52224, Note_on_c, 0, 57, 72
5, 52320, Note_on_c, 0, 57, 0
5, 52320, Note_on_c, 0, 56, 72
5, 52512, Note_on_c, 0, 56, 0
5, 52512, Note_on_c, 0, 57, 72
5, 52608, Note_on_c, 0, 57, 0
5, 52608, Note_on_c, 0, 57, 72
5, 52656, Note_on_c, 0, 57, 0
5, 52656, Note_on_c, 0, 53, 72
5, 52704, Note_on_c, 0, 53, 0
5, 52704, Note_on_c, 0, 52, 72
5, 52752, Note_on_c, 0, 52, 0
5, 52752, Note_on_c, 0, 50, 72
5, 52800, Note_on_c, 0, 50, 0
5, 52800, Note_on_c, 0, 48, 72
5, 52848, Note_on_c, 0, 48, 0
5, 52848, Note_on_c, 0, 47, 72
5, 52896, Note_on_c, 0, 47, 0
5, 52896, Note_on_c, 0, 45, 72
5, 52944, Note_on_c, 0, 45, 0
5, 52944, Note_on_c, 0, 43, 72
5, 52992, Note_on_c, 0, 43, 0
5, 52992, Note_on_c, 0, 41, 72
5, 53040, Note_on_c, 0, 41, 0
5, 53040, Note_on_c, 0, 55, 72
5, 53088, Note_on_c, 0, 55, 0
5, 53088, Note_on_c, 0, 53, 72
5, 53136, Note_on_c, 0, 53, 0
5, 53136, Note_on_c, 0, 52, 72
5, 53184, Note_on_c, 0, 52, 0
5, 53184, Note_on_c, 0, 50, 72
5, 53232, Note_on_c, 0, 50, 0
5, 53232, Note_on_c, 0, 48, 72
5, 53280, Note_on_c, 0, 48, 0
5, 53280, Note_on_c, 0, 47, 72
5, 53328, Note_on_c, 0, 47, 0
5, 53328, Note_on_c, 0, 45, 72
5, 53376, Note_on_c, 0, 45, 0
5, 53376, Note_on_c, 0, 44, 72
5, 53472, Note_on_c, 0, 44, 0
5, 53472, Note_on_c, 0, 45, 72
5, 53568, Note_on_c, 0, 45, 0
5, 53568, Note_on_c, 0, 52, 72
5, 53664, Note_on_c, 0, 52, 0
5, 53664, Note_on_c, 0, 40, 72
5, 53760, Note_on_c, 0, 40, 0
5, 53760, Note_on_c, 0, 45, 72
5, 53808, Note_on_c, 0, 45, 0
5, 53808, Note_on_c, 0, 57, 72
5, 53856, Note_on_c, 0, 57, 0
5, 53856, Note_on_c, 0, 55, 72
5, 53904, Note_on_c, 0, 55, 0
5, 53904, Note_on_c, 0, 53, 72
5, 53952, Note_on_c, 0, 53, 0
5, 53952, Note_on_c, 0, 52, 72
5, 54000, Note_on_c, 0, 52, 0
5, 54000, Note_on_c, 0, 50, 72
5, 54048, Note_on_c, 0, 50, 0
5, 54048, Note_on_c, 0, 52, 72
5, 54096, Note_on_c, 0, 52, 0
5, 54096, Note_on_c, 0, 55, 72
5, 54144, Note_on_c, 0, 55, 0
5, 54144, Note_on_c, 0, 53, 72
5, 54240, Note_on_c, 0, 53, 0
5, 54240, Note_on_c, 0, 55, 72
5, 54336, Note_on_c, 0, 55, 0
5, 54336, Note_on_c, 0, 57, 72
5, 54528, Note_on_c, 0, 57, 0
5, 54528, Note_on_c, 0, 50, 72
5, 54720, Note_on_c, 0, 50, 0
5, 54816, Note_on_c, 0, 50, 72
5, 54912, Note_on_c, 0, 50, 0
5, 54912, Note_on_c, 0, 55, 72
5, 55104, Note_on_c, 0, 55, 0
5, 55200, Note_on_c, 0, 55, 72
5, 55296, Note_on_c, 0, 55, 0
5, 55296, Note_on_c, 0, 48, 72
5, 55488, Note_on_c, 0, 48, 0
5, 55584, Note_on_c, 0, 48, 72
5, 55680, Note_on_c, 0, 48, 0
5, 55680, Note_on_c, 0, 49, 72
5, 55776, Note_on_c, 0, 49, 0
5, 55776, Note_on_c, 0, 50, 72
5, 55968, Note_on_c, 0, 50, 0
5, 55968, Note_on_c, 0, 49, 72
5, 56064, Note_on_c, 0, 49, 0
5, 56064, Note_on_c, 0, 50, 72
5, 56352, Note_on_c, 0, 50, 0
5, 56352, Note_on_c, 0, 52, 72
5, 56448, Note_on_c, 0, 52, 0
5, 56448, Note_on_c, 0, 53, 72
5, 56640, Note_on_c, 0, 53, 0
5, 56640, Note_on_c, 0, 50, 88
5, 56832, Note_on_c, 0, 50, 0
5, 56832, Note_on_c, 0, 57, 88
5, 57120, Note_on_c, 0, 57, 0
5, 57120, Note_on_c, 0, 55, 88
5, 57216, Note_on_c, 0, 55, 0
5, 57216, Note_on_c, 0, 53, 88
5, 57600, Note_on_c, 0, 53, 0
5, 57600, Note_on_c, 0, 55, 88
5, 57984, Note_on_c, 0, 55, 0
5, 57984, Note_on_c, 0, 57, 88
5, 58368, Note_on_c, 0, 57, 0
5, 58368, Note_on_c, 0, 50, 88
5, 58560, Note_on_c, 0, 50, 0
5, 58560, Note_on_c, 0, 52, 72
5, 58752, Note_on_c, 0, 52, 0
5, 58752, Note_on_c, 0, 45, 72
5, 58944, Note_on_c, 0, 45, 0
5, 59184, Note_on_c, 0, 52, 72
5, 59232, Note_on_c, 0, 52, 0
5, 59232, Note_on_c, 0, 50, 72
5, 59280, Note_on_c, 0, 50, 0
5, 59280, Note_on_c, 0, 48, 72
5, 59328, Note_on_c, 0, 48, 0
5, 59328, Note_on_c, 0, 47, 72
5, 59376, Note_on_c, 0, 47, 0
5, 59376, Note_on_c, 0, 45, 72
5, 59424, Note_on_c, 0, 45, 0
5, 59424, Note_on_c, 0, 47, 72
5, 59472, Note_on_c, 0, 47, 0
5, 59472, Note_on_c, 0, 50, 72
5, 59520, Note_on_c, 0, 50, 0
5, 59520, Note_on_c, 0, 48, 72
5, 59568, Note_on_c, 0, 48, 0
5, 59568, Note_on_c, 0, 47, 72
5, 59616, Note_on_c, 0, 47, 0
5, 59616, Note_on_c, 0, 45, 72
5, 59664, Note_on_c, 0, 45, 0
5, 59664, Note_on_c, 0, 44, 72
5, 59712, Note_on_c, 0, 44, 0
5, 59712, Note_on_c, 0, 45, 72
5, 59808, Note_on_c, 0, 45, 0
5, 59808, Note_on_c, 0, 47, 72
5, 59904, Note_on_c, 0, 47, 0
5, 59904, Note_on_c, 0, 48, 72
5, 60000, Note_on_c, 0, 48, 0
5, 60000, Note_on_c, 0, 53, 72
5, 60192, Note_on_c, 0, 53, 0
5, 60192, Note_on_c, 0, 54, 72
5, 60288, Note_on_c, 0, 54, 0
5, 60288, Note_on_c, 0, 55, 72
5, 60384, Note_on_c, 0, 55, 0
5, 60384, Note_on_c, 0, 56, 72
5, 60576, Note_on_c, 0, 56, 0
5, 60576, Note_on_c, 0, 57, 72
5, 60672, Note_on_c, 0, 57, 0
5, 60672, Note_on_c, 0, 57, 72
5, 60720, Note_on_c, 0, 57, 0
5, 60720, Note_on_c, 0, 52, 72
5, 60768, Note_on_c, 0, 52, 0
5, 60768, Note_on_c, 0, 57, 72
5, 60816, Note_on_c, 0, 57, 0
5, 60816, Note_on_c, 0, 59, 72
5, 60864, Note_on_c, 0, 59, 0
5, 60864, Note_on_c, 0, 60, 72
5, 60912, Note_on_c, 0, 60, 0
5, 60912, Note_on_c, 0, 59, 72
5, 60960, Note_on_c, 0, 59, 0
5, 60960, Note_on_c, 0, 57, 72
5, 61008, Note_on_c, 0, 57, 0
5, 61008, Note_on_c, 0, 55, 72
5, 61056, Note_on_c, 0, 55, 0
5, 61056, Note_on_c, 0, 54, 72
5, 61104, Note_on_c, 0, 54, 0
5, 61104, Note_on_c, 0, 57, 72
5, 61152, Note_on_c, 0, 57, 0
5, 61152, Note_on_c, 0, 59, 72
5, 61200, Note_on_c, 0, 59, 0
5, 61200, Note_on_c, 0, 61, 72
5, 61248, Note_on_c, 0, 61, 0
5, 61248, Note_on_c, 0, 62, 72
5, 61296, Note_on_c, 0, 62, 0
5, 61296, Note_on_c, 0, 60, 72
5, 61344, Note_on_c, 0, 60, 0
5, 61344, Note_on_c, 0, 59, 72
5, 61392, Note_on_c, 0, 59, 0
5, 61392, Note_on_c, 0, 57, 72
5, 61440, Note_on_c, 0, 57, 0
5, 61440, Note_on_c, 0, 56, 72
5, 61536, Note_on_c, 0, 56, 0
5, 61536, Note_on_c, 0, 57, 72
5, 61728, Note_on_c, 0, 57, 0
5, 61728, Note_on_c, 0, 56, 72
5, 61824, Note_on_c, 0, 56, 0
5, 61824, Note_on_c, 0, 57, 72
5, 61920, Note_on_c, 0, 57, 0
5, 61920, Note_on_c, 0, 59, 72
5, 62016, Note_on_c, 0, 59, 0
5, 62016, Note_on_c, 0, 60, 72
5, 62112, Note_on_c, 0, 60, 0
5, 62112, Note_on_c, 0, 57, 72
5, 62208, Note_on_c, 0, 57, 0
5, 62208, Note_on_c, 0, 50, 72
5, 62304, Note_on_c, 0, 50, 0
5, 62304, Note_on_c, 0, 52, 72
5, 62400, Note_on_c, 0, 52, 0
5, 62400, Note_on_c, 0, 53, 72
5, 62496, Note_on_c, 0, 53, 0
5, 62496, Note_on_c, 0, 50, 72
5, 62592, Note_on_c, 0, 50, 0
5, 62592, Note_on_c, 0, 55, 72
5, 62688, Note_on_c, 0, 55, 0
5, 62688, Note_on_c, 0, 57, 72
5, 62784, Note_on_c, 0, 57, 0
5, 62784, Note_on_c, 0, 58, 72
5, 62880, Note_on_c, 0, 58, 0
5, 62880, Note_on_c, 0, 55, 72
5, 62976, Note_on_c, 0, 55, 0
5, 62976, Note_on_c, 0, 48, 72
5, 63072, Note_on_c, 0, 48, 0
5, 63072, Note_on_c, 0, 50, 72
5, 63168, Note_on_c, 0, 50, 0
5, 63168, Note_on_c, 0, 52, 72
5, 63264, Note_on_c, 0, 52, 0
5, 63264, Note_on_c, 0, 48, 72
5, 63360, Note_on_c, 0, 48, 0
5, 63360, Note_on_c, 0, 53, 72
5, 63456, Note_on_c, 0, 53, 0
5, 63456, Note_on_c, 0, 55, 72
5, 63552, Note_on_c, 0, 55, 0
5, 63552, Note_on_c, 0, 57, 72
5, 63648, Note_on_c, 0, 57, 0
5, 63648, Note_on_c, 0, 53, 72
5, 63744, Note_on_c, 0, 53, 0
5, 63744, Note_on_c, 0, 46, 72
5, 63936, Note_on_c, 0, 46, 0
5, 63936, Note_on_c, 0, 48, 72
5, 64128, Note_on_c, 0, 48, 0
5, 64128, Note_on_c, 0, 41, 72
5, 64320, Note_on_c, 0, 41, 0
5, 64416, Note_on_c, 0, 53, 72
5, 64512, Note_on_c, 0, 53, 0
5, 64512, Note_on_c, 0, 52, 72
5, 64608, Note_on_c, 0, 52, 0
5, 64608, Note_on_c, 0, 51, 72
5, 64704, Note_on_c, 0, 51, 0
5, 64704, Note_on_c, 0, 50, 72
5, 64896, Note_on_c, 0, 50, 0
5, 64896, Note_on_c, 0, 57, 72
5, 65088, Note_on_c, 0, 57, 0
5, 65088, Note_on_c, 0, 57, 72
5, 65136, Note_on_c, 0, 57, 0
5, 65136, Note_on_c, 0, 55, 72
5, 65184, Note_on_c, 0, 55, 0
5, 65184, Note_on_c, 0, 53, 72
5, 65232, Note_on_c, 0, 53, 0
5, 65232, Note_on_c, 0, 52, 72
5, 65280, Note_on_c, 0, 52, 0
5, 65280, Note_on_c, 0, 53, 72
5, 65472, Note_on_c, 0, 53, 0
5, 65472, Note_on_c, 0, 53, 72
5, 65520, Note_on_c, 0, 53, 0
5, 65520, Note_on_c, 0, 50, 72
5, 65568, Note_on_c, 0, 50, 0
5, 65568, Note_on_c, 0, 52, 72
5, 65616, Note_on_c, 0, 52, 0
5, 65616, Note_on_c, 0, 53, 72
5, 65664, Note_on_c, 0, 53, 0
5, 65664, Note_on_c, 0, 55, 72
5, 65760, Note_on_c, 0, 55, 0
5, 65760, Note_on_c, 0, 50, 72
5, 65856, Note_on_c, 0, 50, 0
5, 65856, Note_on_c, 0, 51, 72
5, 66048, Note_on_c, 0, 51, 0
5, 66048, Note_on_c, 0, 51, 72
5, 66096, Note_on_c, 0, 51, 0
5, 66096, Note_on_c, 0, 53, 72
5, 66144, Note_on_c, 0, 53, 0
5, 66144, Note_on_c, 0, 51, 72
5, 66192, Note_on_c, 0, 51, 0
5, 66192, Note_on_c, 0, 50, 72
5, 66240, Note_on_c, 0, 50, 0
5, 66240, Note_on_c, 0, 48, 72
5, 66288, Note_on_c, 0, 48, 0
5, 66288, Note_on_c, 0, 46, 72
5, 66336, Note_on_c, 0, 46, 0
5, 66336, Note_on_c, 0, 48, 72
5, 66384, Note_on_c, 0, 48, 0
5, 66384, Note_on_c, 0, 51, 72
5, 66432, Note_on_c, 0, 51, 0
5, 66432, Note_on_c, 0, 50, 72
5, 66624, Note_on_c, 0, 50, 0
5, 66624, Note_on_c, 0, 50, 72
5, 66672, Note_on_c, 0, 50, 0
5, 66672, Note_on_c, 0, 50, 72
5, 66720, Note_on_c, 0, 50, 0
5, 66720, Note_on_c, 0, 52, 72
5, 66768, Note_on_c, 0, 52, 0
5, 66768, Note_on_c, 0, 54, 72
5, 66816, Note_on_c, 0, 54, 0
5, 66816, Note_on_c, 0, 55, 72
5, 67008, Note_on_c, 0, 55, 0
5, 67008, Note_on_c, 0, 55, 72
5, 67056, Note_on_c, 0, 55, 0
5, 67056, Note_on_c, 0, 53, 72
5, 67104, Note_on_c, 0, 53, 0
5, 67104, Note_on_c, 0, 51, 72
5, 67152, Note_on_c, 0, 51, 0
5, 67152, Note_on_c, 0, 50, 72
5, 67200, Note_on_c, 0, 50, 0
5, 67200, Note_on_c, 0, 48, 72
5, 67392, Note_on_c, 0, 48, 0
5, 67488, Note_on_c, 0, 48, 72
5, 67584, Note_on_c, 0, 48, 0
5, 67584, Note_on_c, 0, 50, 72
5, 67776, Note_on_c, 0, 50, 0
5, 67872, Note_on_c, 0, 50, 72
5, 67968, Note_on_c, 0, 50, 0
5, 67968, Note_on_c, 0, 51, 72
5, 68064, Note_on_c, 0, 51, 0
5, 68064, Note_on_c, 0, 52, 72
5, 68256, Note_on_c, 0, 52, 0
5, 68256, Note_on_c, 0, 45, 72
5, 68352, Note_on_c, 0, 45, 0
5, 68352, Note_on_c, 0, 50, 72
5, 68544, Note_on_c, 0, 50, 0
5, 68832, Note_on_c, 0, 46, 88
5, 68880, Note_on_c, 0, 46, 0
5, 68880, Note_on_c, 0, 48, 88
5, 68928, Note_on_c, 0, 48, 0
5, 68928, Note_on_c, 0, 46, 88
5, 68976, Note_on_c, 0, 46, 0
5, 68976, Note_on_c, 0, 45, 88
5, 69024, Note_on_c, 0, 45, 0
5, 69024, Note_on_c, 0, 43, 88
5, 69072, Note_on_c, 0, 43, 0
5, 69072, Note_on_c, 0, 42, 88
5, 69120, Note_on_c, 0, 42, 0
5, 69120, Note_on_c, 0, 43, 88
5, 69168, Note_on_c, 0, 43, 0
5, 69168, Note_on_c, 0, 38, 88
5, 69216, Note_on_c, 0, 38, 0
5, 69216, Note_on_c, 0, 43, 88
5, 69264, Note_on_c, 0, 43, 0
5, 69264, Note_on_c, 0, 45, 88
5, 69312, Note_on_c, 0, 45, 0
5, 69312, Note_on_c, 0, 46, 88
5, 69360, Note_on_c, 0, 46, 0
5, 69360, Note_on_c, 0, 45, 88
5, 69408, Note_on_c, 0, 45, 0
5, 69408, Note_on_c, 0, 43, 88
5, 69456, Note_on_c, 0, 43, 0
5, 69456, Note_on_c, 0, 46, 88
5, 69504, Note_on_c, 0, 46, 0
5, 69504, Note_on_c, 0, 45, 88
5, 69552, Note_on_c, 0, 45, 0
5, 69552, Note_on_c, 0, 38, 88
5, 69600, Note_on_c, 0, 38, 0
5, 69600, Note_on_c, 0, 45, 88
5, 69648, Note_on_c, 0, 45, 0
5, 69648, Note_on_c, 0, 47, 88
5, 69696, Note_on_c, 0, 47, 0
5, 69696, Note_on_c, 0, 48, 88
5, 69744, Note_on_c, 0, 48, 0
5, 69744, Note_on_c, 0, 47, 88
5, 69768, Note_on_c, 0, 47, 0
5, 69768, Note_on_c, 0, 45, 88
5, 69792, Note_on_c, 0, 45, 0
5, 69792, Note_on_c, 0, 47, 88
5, 69840, Note_on_c, 0, 47, 0
5, 69840, Note_on_c, 0, 48, 88
5, 69888, Note_on_c, 0, 48, 0
5, 69888, Note_on_c, 0, 50, 88
5, 69936, Note_on_c, 0, 50, 0
5, 69936, Note_on_c, 0, 48, 88
5, 69984, Note_on_c, 0, 48, 0
5, 69984, Note_on_c, 0, 47, 88
5, 70032, Note_on_c, 0, 47, 0
5, 70032, Note_on_c, 0, 48, 88
5, 70080, Note_on_c, 0, 48, 0
5, 70080, Note_on_c, 0, 50, 72
5, 70272, Note_on_c, 0, 50, 0
5, 70272, Note_on_c, 0, 50, 72
5, 70320, Note_on_c, 0, 50, 0
5, 70320, Note_on_c, 0, 48, 72
5, 70344, Note_on_c, 0, 48, 0
5, 70344, Note_on_c, 0, 47, 72
5, 70368, Note_on_c, 0, 47, 0
5, 70368, Note_on_c, 0, 48, 72
5, 70416, Note_on_c, 0, 48, 0
5, 70416, Note_on_c, 0, 50, 72
5, 70464, Note_on_c, 0, 50, 0
5, 70464, Note_on_c, 0, 51, 72
5, 70656, Note_on_c, 0, 51, 0
5, 70656, Note_on_c, 0, 51, 72
5, 70704, Note_on_c, 0, 51, 0
5, 70704, Note_on_c, 0, 50, 72
5, 70752, Note_on_c, 0, 50, 0
5, 70752, Note_on_c, 0, 48, 72
5, 70800, Note_on_c, 0, 48, 0
5, 70800, Note_on_c, 0, 46, 72
5, 70848, Note_on_c, 0, 46, 0
5, 70848, Note_on_c, 0, 45, 72
5, 70896, Note_on_c, 0, 45, 0
5, 70896, Note_on_c, 0, 43, 72
5, 70944, Note_on_c, 0, 43, 0
5, 70944, Note_on_c, 0, 45, 72
5, 70992, Note_on_c, 0, 45, 0
5, 70992, Note_on_c, 0, 48, 72
5, 71040, Note_on_c, 0, 48, 0
5, 71040, Note_on_c, 0, 47, 72
5, 71136, Note_on_c, 0, 47, 0
5, 71136, Note_on_c, 0, 48, 72
5, 71328, Note_on_c, 0, 48, 0
5, 71328, Note_on_c, 0, 46, 72
5, 71424, Note_on_c, 0, 46, 0
5, 71424, Note_on_c, 0, 46, 72
5, 71472, Note_on_c, 0, 46, 0
5, 71472, Note_on_c, 0, 48, 72
5, 71520, Note_on_c, 0, 48, 0
5, 71520, Note_on_c, 0, 46, 72
5, 71568, Note_on_c, 0, 46, 0
5, 71568, Note_on_c, 0, 45, 72
5, 71616, Note_on_c, 0, 45, 0
5, 71616, Note_on_c, 0, 43, 72
5, 71664, Note_on_c, 0, 43, 0
5, 71664, Note_on_c, 0, 42, 72
5, 71712, Note_on_c, 0, 42, 0
5, 71712, Note_on_c, 0, 43, 72
5, 71760, Note_on_c, 0, 43, 0
5, 71760, Note_on_c, 0, 46, 72
5, 71808, Note_on_c, 0, 46, 0
5, 71808, Note_on_c, 0, 45, 72
5, 71856, Note_on_c, 0, 45, 0
5, 71856, Note_on_c, 0, 50, 72
5, 71904, Note_on_c, 0, 50, 0
5, 71904, Note_on_c, 0, 48, 72
5, 71952, Note_on_c, 0, 48, 0
5, 71952, Note_on_c, 0, 46, 72
5, 72000, Note_on_c, 0, 46, 0
5, 72000, Note_on_c, 0, 45, 72
5, 72048, Note_on_c, 0, 45, 0
5, 72048, Note_on_c, 0, 43, 72
5, 72096, Note_on_c, 0, 43, 0
5, 72096, Note_on_c, 0, 45, 72
5, 72144, Note_on_c, 0, 45, 0
5, 72144, Note_on_c, 0, 48, 72
5, 72192, Note_on_c, 0, 48, 0
5, 72192, Note_on_c, 0, 46, 72
5, 72384, Note_on_c, 0, 46, 0
5, 72480, Note_on_c, 0, 43, 72
5, 72576, Note_on_c, 0, 43, 0
5, 72576, Note_on_c, 0, 48, 72
5, 72768, Note_on_c, 0, 48, 0
5, 72864, Note_on_c, 0, 48, 72
5, 72960, Note_on_c, 0, 48, 0
5, 72960, Note_on_c, 0, 48, 72
5, 73008, Note_on_c, 0, 48, 0
5, 73008, Note_on_c, 0, 45, 72
5, 73056, Note_on_c, 0, 45, 0
5, 73056, Note_on_c, 0, 46, 72
5, 73104, Note_on_c, 0, 46, 0
5, 73104, Note_on_c, 0, 48, 72
5, 73152, Note_on_c, 0, 48, 0
5, 73152, Note_on_c, 0, 50, 72
5, 73200, Note_on_c, 0, 50, 0
5, 73200, Note_on_c, 0, 51, 72
5, 73248, Note_on_c, 0, 51, 0
5, 73248, Note_on_c, 0, 50, 72
5, 73296, Note_on_c, 0, 50, 0
5, 73296, Note_on_c, 0, 46, 72
5, 73344, Note_on_c, 0, 46, 0
5, 73344, Note_on_c, 0, 51, 72
5, 73440, Note_on_c, 0, 51, 0
5, 73440, Note_on_c, 0, 48, 72
5, 73536, Note_on_c, 0, 48, 0
5, 73536, Note_on_c, 0, 50, 72
5, 73728, Note_on_c, 0, 50, 0
5, 73728, Note_on_c, 0, 43, 72
5, 73920, Note_on_c, 0, 43, 0
5, 77760, Note_on_c, 0, 53, 88
5, 77952, Note_on_c, 0, 53, 0
5, 77952, Note_on_c, 0, 52, 88
5, 78144, Note_on_c, 0, 52, 0
5, 78144, Note_on_c, 0, 55, 88
5, 78336, Note_on_c, 0, 55, 0
5, 78336, Note_on_c, 0, 54, 88
5, 78480, Note_on_c, 0, 54, 0
5, 78480, Note_on_c, 0, 56, 88
5, 78528, Note_on_c, 0, 56, 0
5, 78528, Note_on_c, 0, 57, 88
5, 78720, Note_on_c, 0, 57, 0
5, 78720, Note_on_c, 0, 57, 88
5, 78864, Note_on_c, 0, 57, 0
5, 78864, Note_on_c, 0, 56, 88
5, 78888, Note_on_c, 0, 56, 0
5, 78888, Note_on_c, 0, 54, 88
5, 78912, Note_on_c, 0, 54, 0
5, 78912, Note_on_c, 0, 56, 88
5, 79104, Note_on_c, 0, 56, 0
5, 79104, Note_on_c, 0, 57, 88
5, 79296, Note_on_c, 0, 57, 0
5, 79392, Note_on_c, 0, 57, 72
5, 79488, Note_on_c, 0, 57, 0
5, 79488, Note_on_c, 0, 58, 72
5, 79584, Note_on_c, 0, 58, 0
5, 79584, Note_on_c, 0, 53, 72
5, 79680, Note_on_c, 0, 53, 0
5, 79680, Note_on_c, 0, 58, 72
5, 79776, Note_on_c, 0, 58, 0
5, 79776, Note_on_c, 0, 57, 72
5, 79872, Note_on_c, 0, 57, 0
5, 79872, Note_on_c, 0, 56, 72
5, 79968, Note_on_c, 0, 56, 0
5, 79968, Note_on_c, 0, 52, 72
5, 80064, Note_on_c, 0, 52, 0
5, 80064, Note_on_c, 0, 57, 72
5, 80160, Note_on_c, 0, 57, 0
5, 80160, Note_on_c, 0, 55, 72
5, 80256, Note_on_c, 0, 55, 0
5, 80256, Note_on_c, 0, 54, 72
5, 80352, Note_on_c, 0, 54, 0
5, 80352, Note_on_c, 0, 50, 72
5, 80448, Note_on_c, 0, 50, 0
5, 80448, Note_on_c, 0, 55, 72
5, 80640, Note_on_c, 0, 55, 0
5, 80640, Note_on_c, 0, 55, 72
5, 80832, Note_on_c, 0, 55, 0
5, 80832, Note_on_c, 0, 54, 72
5, 81024, Note_on_c, 0, 54, 0
5, 81024, Note_on_c, 0, 55, 72
5, 81216, Note_on_c, 0, 55, 0
5, 81312, Note_on_c, 0, 56, 72
5, 81408, Note_on_c, 0, 56, 0
5, 81408, Note_on_c, 0, 57, 72
5, 81504, Note_on_c, 0, 57, 0
5, 81504, Note_on_c, 0, 52, 72
5, 81600, Note_on_c, 0, 52, 0
5, 81600, Note_on_c, 0, 57, 72
5, 81696, Note_on_c, 0, 57, 0
5, 81696, Note_on_c, 0, 55, 72
5, 81792, Note_on_c, 0, 55, 0
5, 81792, Note_on_c, 0, 53, 72
5, 81888, Note_on_c, 0, 53, 0
5, 81888, Note_on_c, 0, 50, 72
5, 81984, Note_on_c, 0, 50, 0
5, 81984, Note_on_c, 0, 55, 72
5, 82176, Note_on_c, 0, 55, 0
5, 82176, Note_on_c, 0, 55, 72
5, 82224, Note_on_c, 0, 55, 0
5, 82224, Note_on_c, 0, 57, 72
5, 82272, Note_on_c, 0, 57, 0
5, 82272, Note_on_c, 0, 55, 72
5, 82320, Note_on_c, 0, 55, 0
5, 82320, Note_on_c, 0, 53, 72
5, 82368, Note_on_c, 0, 53, 0
5, 82368, Note_on_c, 0, 52, 72
5, 82560, Note_on_c, 0, 52, 0
5, 82560, Note_on_c, 0, 53, 72
5, 82608, Note_on_c, 0, 53, 0
5, 82608, Note_on_c, 0, 55, 72
5, 82656, Note_on_c, 0, 55, 0
5, 82656, Note_on_c, 0, 53, 72
5, 82704, Note_on_c, 0, 53, 0
5, 82704, Note_on_c, 0, 52, 72
5, 82752, Note_on_c, 0, 52, 0
5, 82752, Note_on_c, 0, 50, 72
5, 82944, Note_on_c, 0, 50, 0
5, 82944, Note_on_c, 0, 45, 72
5, 83040, Note_on_c, 0, 45, 0
5, 83040, Note_on_c, 0, 57, 72
5, 83232, Note_on_c, 0, 57, 0
5, 83232, Note_on_c, 0, 55, 72
5, 83328, Note_on_c, 0, 55, 0
5, 83328, Note_on_c, 0, 53, 88
5, 83520, Note_on_c, 0, 53, 0
5, 83520, Note_on_c, 0, 52, 88
5, 83712, Note_on_c, 0, 52, 0
5, 83712, Note_on_c, 0, 55, 88
5, 83904, Note_on_c, 0, 55, 0
5, 83904, Note_on_c, 0, 54, 88
5, 84048, Note_on_c, 0, 54, 0
5, 84048, Note_on_c, 0, 56, 88
5, 84096, Note_on_c, 0, 56, 0
5, 84096, Note_on_c, 0, 57, 88
5, 84480, Note_on_c, 0, 57, 0
5, 84480, Note_on_c, 0, 57, 88
5, 84624, Note_on_c, 0, 57, 0
5, 84624, Note_on_c, 0, 56, 88
5, 84648, Note_on_c, 0, 56, 0
5, 84648, Note_on_c, 0, 54, 88
5, 84672, Note_on_c, 0, 54, 0
5, 84672, Note_on_c, 0, 56, 88
5, 84864, Note_on_c, 0, 56, 0
5, 84864, Note_on_c, 0, 57, 88
5, 84960, Note_on_c, 0, 57, 0
5, 85056, Note_on_c, 0, 45, 88
5, 85248, Note_on_c, 0, 45, 0
5, 85248, Note_on_c, 0, 46, 88
5, 85440, Note_on_c, 0, 46, 0
5, 85440, Note_on_c, 0, 43, 88
5, 85632, Note_on_c, 0, 43, 0
5, 85632, Note_on_c, 0, 44, 88
5, 85776, Note_on_c, 0, 44, 0
5, 85776, Note_on_c, 0, 43, 88
5, 85824, Note_on_c, 0, 43, 0
5, 85824, Note_on_c, 0, 42, 88
5, 86016, Note_on_c, 0, 42, 0
5, 86016, Note_on_c, 0, 42, 88
5, 86208, Note_on_c, 0, 42, 0
5, 86208, Note_on_c, 0, 43, 88
5, 86400, Note_on_c, 0, 43, 0
5, 86400, Note_on_c, 0, 48, 88
5, 86592, Note_on_c, 0, 48, 0
5, 86688, Note_on_c, 0, 49, 88
5, 86784, Note_on_c, 0, 49, 0
5, 86784, Note_on_c, 0, 50, 88
5, 86976, Note_on_c, 0, 50, 0
5, 87072, Note_on_c, 0, 51, 72
5, 87168, Note_on_c, 0, 51, 0
5, 87168, Note_on_c, 0, 52, 72
5, 87216, Note_on_c, 0, 52, 0
5, 87216, Note_on_c, 0, 50, 72
5, 87240, Note_on_c, 0, 50, 0
5, 87240, Note_on_c, 0, 52, 72
5, 87264, Note_on_c, 0, 52, 0
5, 87264, Note_on_c, 0, 53, 72
5, 87408, Note_on_c, 0, 53, 0
5, 87408, Note_on_c, 0, 47, 72
5, 87456, Note_on_c, 0, 47, 0
5, 87456, Note_on_c, 0, 52, 72
5, 87504, Note_on_c, 0, 52, 0
5, 87504, Note_on_c, 0, 50, 72
5, 87552, Note_on_c, 0, 50, 0
5, 87552, Note_on_c, 0, 49, 72
5, 87600, Note_on_c, 0, 49, 0
5, 87600, Note_on_c, 0, 47, 72
5, 87648, Note_on_c, 0, 47, 0
5, 87648, Note_on_c, 0, 45, 72
5, 87744, Note_on_c, 0, 45, 0
5, 87840, Note_on_c, 0, 45, 72
5, 87936, Note_on_c, 0, 45, 0
5, 87936, Note_on_c, 0, 50, 72
5, 88320, Note_on_c, 0, 50, 0
5, 88320, Note_on_c, 0, 50, 72
5, 88368, Note_on_c, 0, 50, 0
5, 88368, Note_on_c, 0, 52, 72
5, 88392, Note_on_c, 0, 52, 0
5, 88392, Note_on_c, 0, 53, 72
5, 88416, Note_on_c, 0, 53, 0
5, 88416, Note_on_c, 0, 52, 72
5, 88464, Note_on_c, 0, 52, 0
5, 88464, Note_on_c, 0, 50, 72
5, 88512, Note_on_c, 0, 50, 0
5, 88512, Note_on_c, 0, 49, 72
5, 88560, Note_on_c, 0, 49, 0
5, 88560, Note_on_c, 0, 45, 72
5, 88608, Note_on_c, 0, 45, 0
5, 88608, Note_on_c, 0, 50, 72
5, 88656, Note_on_c, 0, 50, 0
5, 88656, Note_on_c, 0, 48, 72
5, 88704, Note_on_c, 0, 48, 0
5, 88704, Note_on_c, 0, 46, 72
5, 88800, Note_on_c, 0, 46, 0
5, 88800, Note_on_c, 0, 45, 72
5, 88896, Note_on_c, 0, 45, 0
5, 88896, Note_on_c, 0, 46, 72
5, 89088, Note_on_c, 0, 46, 0
5, 89088, Note_on_c, 0, 45, 72
5, 89280, Note_on_c, 0, 45, 0
5, 89664, Note_on_c, 0, 50, 88
5, 89856, Note_on_c, 0, 50, 0
5, 89856, Note_on_c, 0, 57, 88
5, 90144, Note_on_c, 0, 57, 0
5, 90144, Note_on_c, 0, 55, 88
5, 90240, Note_on_c, 0, 55, 0
5, 90240, Note_on_c, 0, 53, 88
5, 90624, Note_on_c, 0, 53, 0
5, 90624, Note_on_c, 0, 55, 88
5, 91008, Note_on_c, 0, 55, 0
5, 91008, Note_on_c, 0, 57, 88
5, 91392, Note_on_c, 0, 57, 0
5, 91392, Note_on_c, 0, 50, 88
5, 91488, Note_on_c, 0, 50, 0
5, 91776, End_track
0, 0, End_of_file
