0, 0, Header, 1, 4, 480
1, 0, Start_track
1, 0, SMPTE_offset, 96, 0, 0, 0, 0
1, 0, Time_signature, 3, 2, 24, 8
1, 20, Tempo, 2142857
1, 61128, Tempo, 2222222
1, 61144, Tempo, 2307692
1, 61156, Tempo, 2400000
1, 61160, Tempo, 2500000
1, 61180, Tempo, 2608695
1, 61192, Tempo, 2727272
1, 61212, Tempo, 2857142
1, 61220, Tempo, 3000000
1, 61240, Tempo, 3157894
1, 61244, Tempo, 3333333
1, 61272, Tempo, 3750000
1, 61284, Tempo, 4000000
1, 61296, Tempo, 4285714
1, 61308, Tempo, 4615384
1, 61316, Tempo, 5000000
1, 61324, Tempo, 5454545
1, 61336, Tempo, 6000000
1, 61364, Tempo, 6000000
1, 61372, Tempo, 6000000
1, 61384, Tempo, 6000000
1, 61420, Tempo, 6000000
1, 61920, End_track
2, 0, Start_track
2, 0, Title_t, "goldberg.mid"
2, 1100, Note_on_c, 0, 74, 93
2, 1216, Note_on_c, 0, 74, 0
2, 1220, Note_on_c, 0, 74, 96
2, 1336, Note_on_c, 0, 74, 0
2, 1340, Note_on_c, 0, 76, 97
2, 1456, Note_on_c, 0, 76, 0
2, 1460, Note_on_c, 0, 76, 100
2, 1576, Note_on_c, 0, 76, 0
2, 1580, Note_on_c, 0, 78, 92
2, 1696, Note_on_c, 0, 78, 0
2, 1700, Note_on_c, 0, 78, 99
2, 1816, Note_on_c, 0, 78, 0
2, 1820, Note_on_c, 0, 79, 98
2, 1940, Note_on_c, 0, 79, 0
2, 1940, Note_on_c, 0, 79, 98
2, 2536, Note_on_c, 0, 79, 0
2, 2540, Note_on_c, 0, 81, 109
2, 2656, Note_on_c, 0, 81, 0
2, 2660, Note_on_c, 0, 82, 97
2, 2776, Note_on_c, 0, 82, 0
2, 2780, Note_on_c, 0, 84, 81
2, 2900, Note_on_c, 0, 84, 0
2, 2900, Note_on_c, 0, 86, 93
2, 3016, Note_on_c, 0, 86, 0
2, 3020, Note_on_c, 0, 81, 102
2, 3140, Note_on_c, 0, 81, 0
2, 3140, Note_on_c, 0, 81, 101
2, 3196, Note_on_c, 0, 81, 0
2, 3200, Note_on_c, 0, 80, 97
2, 3256, Note_on_c, 0, 80, 0
2, 3260, Note_on_c, 0, 81, 102
2, 3376, Note_on_c, 0, 81, 0
2, 3380, Note_on_c, 0, 74, 93
2, 4096, Note_on_c, 0, 74, 0
2, 4100, Note_on_c, 0, 75, 106
2, 4220, Note_on_c, 0, 75, 0
2, 4220, Note_on_c, 0, 77, 91
2, 4340, Note_on_c, 0, 77, 0
2, 4340, Note_on_c, 0, 75, 96
2, 4456, Note_on_c, 0, 75, 0
2, 4460, Note_on_c, 0, 74, 96
2, 4520, Note_on_c, 0, 74, 0
2, 4580, Note_on_c, 0, 74, 86
2, 4700, Note_on_c, 0, 74, 0
2, 4700, Note_on_c, 0, 72, 102
2, 4820, Note_on_c, 0, 72, 0
2, 4820, Note_on_c, 0, 70, 121
2, 5060, Note_on_c, 0, 70, 0
2, 5540, Note_on_c, 0, 72, 113
2, 5776, Note_on_c, 0, 72, 0
2, 5780, Note_on_c, 0, 79, 106
2, 5836, Note_on_c, 0, 79, 0
2, 5840, Note_on_c, 0, 81, 98
2, 5896, Note_on_c, 0, 81, 0
2, 5900, Note_on_c, 0, 78, 108
2, 6016, Note_on_c, 0, 78, 0
2, 6020, Note_on_c, 0, 79, 107
2, 6136, Note_on_c, 0, 79, 0
2, 6140, Note_on_c, 0, 81, 96
2, 6256, Note_on_c, 0, 81, 0
2, 6260, Note_on_c, 0, 82, 117
2, 6376, Note_on_c, 0, 82, 0
2, 6380, Note_on_c, 0, 84, 106
2, 6496, Note_on_c, 0, 84, 0
2, 6500, Note_on_c, 0, 86, 91
2, 6616, Note_on_c, 0, 86, 0
2, 6620, Note_on_c, 0, 84, 91
2, 6736, Note_on_c, 0, 84, 0
2, 6740, Note_on_c, 0, 82, 108
2, 6856, Note_on_c, 0, 82, 0
2, 6860, Note_on_c, 0, 81, 100
2, 6916, Note_on_c, 0, 81, 0
2, 6920, Note_on_c, 0, 79, 88
2, 6976, Note_on_c, 0, 79, 0
2, 6980, Note_on_c, 0, 74, 108
2, 7460, Note_on_c, 0, 74, 0
2, 7460, Note_on_c, 0, 75, 115
2, 7696, Note_on_c, 0, 75, 0
2, 7700, Note_on_c, 0, 74, 104
2, 7940, Note_on_c, 0, 74, 0
2, 8300, Note_on_c, 0, 75, 108
2, 8416, Note_on_c, 0, 75, 0
2, 8420, Note_on_c, 0, 74, 101
2, 8536, Note_on_c, 0, 74, 0
2, 8540, Note_on_c, 0, 72, 92
2, 8656, Note_on_c, 0, 72, 0
2, 8660, Note_on_c, 0, 70, 96
2, 8776, Note_on_c, 0, 70, 0
2, 8780, Note_on_c, 0, 72, 101
2, 8836, Note_on_c, 0, 72, 0
2, 8900, Note_on_c, 0, 72, 111
2, 9016, Note_on_c, 0, 72, 0
2, 9020, Note_on_c, 0, 74, 100
2, 9136, Note_on_c, 0, 74, 0
2, 9140, Note_on_c, 0, 74, 104
2, 9256, Note_on_c, 0, 74, 0
2, 9260, Note_on_c, 0, 75, 104
2, 9380, Note_on_c, 0, 75, 0
2, 9380, Note_on_c, 0, 75, 106
2, 9496, Note_on_c, 0, 75, 0
2, 9500, Note_on_c, 0, 74, 101
2, 9616, Note_on_c, 0, 74, 0
2, 9620, Note_on_c, 0, 74, 104
2, 9860, Note_on_c, 0, 74, 0
2, 10340, Note_on_c, 0, 81, 117
2, 10576, Note_on_c, 0, 81, 0
2, 10580, Note_on_c, 0, 82, 110
2, 10820, Note_on_c, 0, 82, 0
2, 10820, Note_on_c, 0, 74, 101
2, 10936, Note_on_c, 0, 74, 0
2, 10940, Note_on_c, 0, 76, 117
2, 11176, Note_on_c, 0, 76, 0
2, 11180, Note_on_c, 0, 77, 115
2, 11416, Note_on_c, 0, 77, 0
2, 11420, Note_on_c, 0, 79, 104
2, 11536, Note_on_c, 0, 79, 0
2, 11540, Note_on_c, 0, 81, 121
2, 11776, Note_on_c, 0, 81, 0
2, 11780, Note_on_c, 0, 70, 115
2, 12016, Note_on_c, 0, 70, 0
2, 12020, Note_on_c, 0, 72, 104
2, 12256, Note_on_c, 0, 72, 0
2, 12260, Note_on_c, 0, 81, 102
2, 12496, Note_on_c, 0, 81, 0
2, 12740, Note_on_c, 0, 79, 115
2, 12796, Note_on_c, 0, 79, 0
2, 12800, Note_on_c, 0, 81, 101
2, 12856, Note_on_c, 0, 81, 0
2, 12860, Note_on_c, 0, 79, 106
2, 13096, Note_on_c, 0, 79, 0
2, 13100, Note_on_c, 0, 79, 111
2, 13336, Note_on_c, 0, 79, 0
2, 13340, Note_on_c, 0, 79, 104
2, 13576, Note_on_c, 0, 79, 0
2, 13580, Note_on_c, 0, 77, 106
2, 13636, Note_on_c, 0, 77, 0
2, 13640, Note_on_c, 0, 79, 102
2, 13696, Note_on_c, 0, 79, 0
2, 13700, Note_on_c, 0, 81, 106
2, 13816, Note_on_c, 0, 81, 0
2, 13820, Note_on_c, 0, 82, 106
2, 13936, Note_on_c, 0, 82, 0
2, 13940, Note_on_c, 0, 81, 111
2, 14056, Note_on_c, 0, 81, 0
2, 14060, Note_on_c, 0, 77, 115
2, 14176, Note_on_c, 0, 77, 0
2, 14180, Note_on_c, 0, 73, 112
2, 14416, Note_on_c, 0, 73, 0
2, 14660, Note_on_c, 0, 79, 98
2, 15016, Note_on_c, 0, 79, 0
2, 15020, Note_on_c, 0, 78, 117
2, 15076, Note_on_c, 0, 78, 0
2, 15080, Note_on_c, 0, 76, 102
2, 15136, Note_on_c, 0, 76, 0
2, 15140, Note_on_c, 0, 78, 99
2, 15380, Note_on_c, 0, 78, 0
2, 16460, Note_on_c, 0, 74, 93
2, 16576, Note_on_c, 0, 74, 0
2, 16580, Note_on_c, 0, 74, 96
2, 16696, Note_on_c, 0, 74, 0
2, 16700, Note_on_c, 0, 76, 97
2, 16816, Note_on_c, 0, 76, 0
2, 16820, Note_on_c, 0, 76, 100
2, 16936, Note_on_c, 0, 76, 0
2, 16940, Note_on_c, 0, 78, 92
2, 17056, Note_on_c, 0, 78, 0
2, 17060, Note_on_c, 0, 78, 99
2, 17176, Note_on_c, 0, 78, 0
2, 17180, Note_on_c, 0, 79, 98
2, 17300, Note_on_c, 0, 79, 0
2, 17300, Note_on_c, 0, 79, 98
2, 17896, Note_on_c, 0, 79, 0
2, 17900, Note_on_c, 0, 81, 109
2, 18016, Note_on_c, 0, 81, 0
2, 18020, Note_on_c, 0, 82, 97
2, 18136, Note_on_c, 0, 82, 0
2, 18140, Note_on_c, 0, 84, 81
2, 18260, Note_on_c, 0, 84, 0
2, 18260, Note_on_c, 0, 86, 93
2, 18376, Note_on_c, 0, 86, 0
2, 18380, Note_on_c, 0, 81, 102
2, 18500, Note_on_c, 0, 81, 0
2, 18500, Note_on_c, 0, 81, 101
2, 18556, Note_on_c, 0, 81, 0
2, 18560, Note_on_c, 0, 80, 97
2, 18616, Note_on_c, 0, 80, 0
2, 18620, Note_on_c, 0, 81, 102
2, 18736, Note_on_c, 0, 81, 0
2, 18740, Note_on_c, 0, 74, 93
2, 19456, Note_on_c, 0, 74, 0
2, 19460, Note_on_c, 0, 75, 106
2, 19520, Note_on_c, 0, 75, 0
2, 19520, Note_on_c, 0, 77, 91
2, 19576, Note_on_c, 0, 77, 0
2, 19580, Note_on_c, 0, 75, 106
2, 19700, Note_on_c, 0, 75, 0
2, 19700, Note_on_c, 0, 75, 96
2, 19816, Note_on_c, 0, 75, 0
2, 19820, Note_on_c, 0, 74, 96
2, 19880, Note_on_c, 0, 74, 0
2, 19940, Note_on_c, 0, 74, 86
2, 20060, Note_on_c, 0, 74, 0
2, 20060, Note_on_c, 0, 72, 102
2, 20180, Note_on_c, 0, 72, 0
2, 20180, Note_on_c, 0, 70, 121
2, 20420, Note_on_c, 0, 70, 0
2, 20900, Note_on_c, 0, 72, 113
2, 21136, Note_on_c, 0, 72, 0
2, 21140, Note_on_c, 0, 79, 106
2, 21196, Note_on_c, 0, 79, 0
2, 21200, Note_on_c, 0, 81, 98
2, 21256, Note_on_c, 0, 81, 0
2, 21260, Note_on_c, 0, 78, 108
2, 21376, Note_on_c, 0, 78, 0
2, 21380, Note_on_c, 0, 79, 107
2, 21496, Note_on_c, 0, 79, 0
2, 21500, Note_on_c, 0, 81, 96
2, 21616, Note_on_c, 0, 81, 0
2, 21620, Note_on_c, 0, 82, 117
2, 21736, Note_on_c, 0, 82, 0
2, 21740, Note_on_c, 0, 84, 106
2, 21856, Note_on_c, 0, 84, 0
2, 21860, Note_on_c, 0, 86, 91
2, 21976, Note_on_c, 0, 86, 0
2, 21980, Note_on_c, 0, 84, 91
2, 22096, Note_on_c, 0, 84, 0
2, 22100, Note_on_c, 0, 82, 108
2, 22216, Note_on_c, 0, 82, 0
2, 22220, Note_on_c, 0, 81, 100
2, 22276, Note_on_c, 0, 81, 0
2, 22280, Note_on_c, 0, 79, 88
2, 22336, Note_on_c, 0, 79, 0
2, 22340, Note_on_c, 0, 74, 108
2, 22820, Note_on_c, 0, 74, 0
2, 22820, Note_on_c, 0, 75, 115
2, 23056, Note_on_c, 0, 75, 0
2, 23060, Note_on_c, 0, 74, 104
2, 23300, Note_on_c, 0, 74, 0
2, 23660, Note_on_c, 0, 75, 108
2, 23776, Note_on_c, 0, 75, 0
2, 23780, Note_on_c, 0, 74, 101
2, 23896, Note_on_c, 0, 74, 0
2, 23900, Note_on_c, 0, 72, 92
2, 24016, Note_on_c, 0, 72, 0
2, 24020, Note_on_c, 0, 70, 96
2, 24136, Note_on_c, 0, 70, 0
2, 24140, Note_on_c, 0, 72, 101
2, 24196, Note_on_c, 0, 72, 0
2, 24260, Note_on_c, 0, 72, 111
2, 24376, Note_on_c, 0, 72, 0
2, 24380, Note_on_c, 0, 74, 100
2, 24496, Note_on_c, 0, 74, 0
2, 24500, Note_on_c, 0, 74, 104
2, 24616, Note_on_c, 0, 74, 0
2, 24620, Note_on_c, 0, 75, 104
2, 24740, Note_on_c, 0, 75, 0
2, 24740, Note_on_c, 0, 75, 106
2, 24856, Note_on_c, 0, 75, 0
2, 24860, Note_on_c, 0, 74, 101
2, 24976, Note_on_c, 0, 74, 0
2, 24980, Note_on_c, 0, 74, 104
2, 25220, Note_on_c, 0, 74, 0
2, 25700, Note_on_c, 0, 81, 117
2, 25936, Note_on_c, 0, 81, 0
2, 25940, Note_on_c, 0, 82, 110
2, 26180, Note_on_c, 0, 82, 0
2, 26180, Note_on_c, 0, 74, 101
2, 26296, Note_on_c, 0, 74, 0
2, 26300, Note_on_c, 0, 76, 117
2, 26536, Note_on_c, 0, 76, 0
2, 26540, Note_on_c, 0, 77, 115
2, 26776, Note_on_c, 0, 77, 0
2, 26780, Note_on_c, 0, 79, 104
2, 26896, Note_on_c, 0, 79, 0
2, 26900, Note_on_c, 0, 81, 121
2, 27136, Note_on_c, 0, 81, 0
2, 27140, Note_on_c, 0, 70, 115
2, 27376, Note_on_c, 0, 70, 0
2, 27380, Note_on_c, 0, 72, 104
2, 27616, Note_on_c, 0, 72, 0
2, 27620, Note_on_c, 0, 81, 102
2, 27856, Note_on_c, 0, 81, 0
2, 28100, Note_on_c, 0, 79, 115
2, 28156, Note_on_c, 0, 79, 0
2, 28160, Note_on_c, 0, 81, 101
2, 28216, Note_on_c, 0, 81, 0
2, 28220, Note_on_c, 0, 79, 106
2, 28456, Note_on_c, 0, 79, 0
2, 28460, Note_on_c, 0, 79, 111
2, 28696, Note_on_c, 0, 79, 0
2, 28700, Note_on_c, 0, 79, 104
2, 28936, Note_on_c, 0, 79, 0
2, 28940, Note_on_c, 0, 77, 106
2, 28996, Note_on_c, 0, 77, 0
2, 29000, Note_on_c, 0, 79, 102
2, 29056, Note_on_c, 0, 79, 0
2, 29060, Note_on_c, 0, 81, 106
2, 29176, Note_on_c, 0, 81, 0
2, 29180, Note_on_c, 0, 82, 106
2, 29296, Note_on_c, 0, 82, 0
2, 29300, Note_on_c, 0, 81, 111
2, 29416, Note_on_c, 0, 81, 0
2, 29420, Note_on_c, 0, 77, 115
2, 29536, Note_on_c, 0, 77, 0
2, 29540, Note_on_c, 0, 73, 112
2, 29776, Note_on_c, 0, 73, 0
2, 30020, Note_on_c, 0, 79, 98
2, 30376, Note_on_c, 0, 79, 0
2, 30380, Note_on_c, 0, 78, 117
2, 30436, Note_on_c, 0, 78, 0
2, 30440, Note_on_c, 0, 76, 102
2, 30496, Note_on_c, 0, 76, 0
2, 30500, Note_on_c, 0, 78, 99
2, 30740, Note_on_c, 0, 78, 0
2, 31940, Note_on_c, 0, 75, 104
2, 32176, Note_on_c, 0, 75, 0
2, 32180, Note_on_c, 0, 74, 89
2, 32416, Note_on_c, 0, 74, 0
2, 32420, Note_on_c, 0, 72, 96
2, 32656, Note_on_c, 0, 72, 0
2, 32660, Note_on_c, 0, 79, 101
2, 32776, Note_on_c, 0, 79, 0
2, 32780, Note_on_c, 0, 67, 95
2, 33016, Note_on_c, 0, 67, 0
2, 33020, Note_on_c, 0, 68, 97
2, 33256, Note_on_c, 0, 68, 0
2, 33260, Note_on_c, 0, 70, 101
2, 33496, Note_on_c, 0, 70, 0
2, 33500, Note_on_c, 0, 72, 102
2, 33616, Note_on_c, 0, 72, 0
2, 33620, Note_on_c, 0, 70, 93
2, 33856, Note_on_c, 0, 70, 0
2, 33860, Note_on_c, 0, 77, 104
2, 34096, Note_on_c, 0, 77, 0
2, 34100, Note_on_c, 0, 79, 106
2, 34336, Note_on_c, 0, 79, 0
2, 34340, Note_on_c, 0, 74, 93
2, 34576, Note_on_c, 0, 74, 0
2, 34580, Note_on_c, 0, 75, 97
2, 34696, Note_on_c, 0, 75, 0
2, 34700, Note_on_c, 0, 74, 98
2, 34816, Note_on_c, 0, 74, 0
2, 34820, Note_on_c, 0, 72, 92
2, 35056, Note_on_c, 0, 72, 0
2, 35180, Note_on_c, 0, 70, 96
2, 35416, Note_on_c, 0, 70, 0
2, 35420, Note_on_c, 0, 72, 96
2, 35536, Note_on_c, 0, 72, 0
2, 35540, Note_on_c, 0, 74, 88
2, 35656, Note_on_c, 0, 74, 0
2, 35660, Note_on_c, 0, 70, 92
2, 35776, Note_on_c, 0, 70, 0
2, 35780, Note_on_c, 0, 65, 92
2, 35896, Note_on_c, 0, 65, 0
2, 35900, Note_on_c, 0, 62, 91
2, 36016, Note_on_c, 0, 62, 0
2, 36020, Note_on_c, 0, 63, 106
2, 36136, Note_on_c, 0, 63, 0
2, 36140, Note_on_c, 0, 65, 100
2, 36256, Note_on_c, 0, 65, 0
2, 36260, Note_on_c, 0, 67, 92
2, 36376, Note_on_c, 0, 67, 0
2, 36380, Note_on_c, 0, 68, 97
2, 36496, Note_on_c, 0, 68, 0
2, 36500, Note_on_c, 0, 70, 92
2, 37576, Note_on_c, 0, 70, 0
2, 37580, Note_on_c, 0, 72, 96
2, 37636, Note_on_c, 0, 72, 0
2, 37640, Note_on_c, 0, 74, 89
2, 37696, Note_on_c, 0, 74, 0
2, 37700, Note_on_c, 0, 75, 94
2, 37756, Note_on_c, 0, 75, 0
2, 37760, Note_on_c, 0, 74, 73
2, 37816, Note_on_c, 0, 74, 0
2, 37820, Note_on_c, 0, 72, 106
2, 37936, Note_on_c, 0, 72, 0
2, 37940, Note_on_c, 0, 74, 97
2, 38056, Note_on_c, 0, 74, 0
2, 38060, Note_on_c, 0, 75, 99
2, 38116, Note_on_c, 0, 75, 0
2, 38120, Note_on_c, 0, 77, 82
2, 38176, Note_on_c, 0, 77, 0
2, 38180, Note_on_c, 0, 75, 85
2, 38236, Note_on_c, 0, 75, 0
2, 38240, Note_on_c, 0, 77, 86
2, 38296, Note_on_c, 0, 77, 0
2, 38300, Note_on_c, 0, 79, 96
2, 38416, Note_on_c, 0, 79, 0
2, 38420, Note_on_c, 0, 77, 102
2, 38660, Note_on_c, 0, 77, 0
2, 39500, Note_on_c, 0, 72, 95
2, 39556, Note_on_c, 0, 72, 0
2, 39620, Note_on_c, 0, 72, 98
2, 39736, Note_on_c, 0, 72, 0
2, 39740, Note_on_c, 0, 74, 90
2, 39860, Note_on_c, 0, 74, 0
2, 39860, Note_on_c, 0, 75, 73
2, 39980, Note_on_c, 0, 75, 0
2, 39980, Note_on_c, 0, 76, 86
2, 40096, Note_on_c, 0, 76, 0
2, 40100, Note_on_c, 0, 67, 84
2, 40216, Note_on_c, 0, 67, 0
2, 40220, Note_on_c, 0, 76, 91
2, 40336, Note_on_c, 0, 76, 0
2, 40340, Note_on_c, 0, 78, 85
2, 40936, Note_on_c, 0, 78, 0
2, 40940, Note_on_c, 0, 79, 85
2, 41056, Note_on_c, 0, 79, 0
2, 41060, Note_on_c, 0, 81, 91
2, 41176, Note_on_c, 0, 81, 0
2, 41180, Note_on_c, 0, 82, 81
2, 41296, Note_on_c, 0, 82, 0
2, 41300, Note_on_c, 0, 84, 81
2, 41416, Note_on_c, 0, 84, 0
2, 41420, Note_on_c, 0, 82, 81
2, 41536, Note_on_c, 0, 82, 0
2, 41540, Note_on_c, 0, 81, 82
2, 41656, Note_on_c, 0, 81, 0
2, 41660, Note_on_c, 0, 79, 82
2, 41776, Note_on_c, 0, 79, 0
2, 41780, Note_on_c, 0, 78, 85
2, 41896, Note_on_c, 0, 78, 0
2, 41900, Note_on_c, 0, 79, 86
2, 42016, Note_on_c, 0, 79, 0
2, 42020, Note_on_c, 0, 78, 88
2, 42376, Note_on_c, 0, 78, 0
2, 42380, Note_on_c, 0, 81, 96
2, 42496, Note_on_c, 0, 81, 0
2, 42500, Note_on_c, 0, 79, 95
2, 42736, Note_on_c, 0, 79, 0
2, 42980, Note_on_c, 0, 72, 107
2, 43216, Note_on_c, 0, 72, 0
2, 43220, Note_on_c, 0, 67, 98
2, 43576, Note_on_c, 0, 67, 0
2, 43580, Note_on_c, 0, 69, 96
2, 43696, Note_on_c, 0, 69, 0
2, 43700, Note_on_c, 0, 70, 90
2, 43816, Note_on_c, 0, 70, 0
2, 43820, Note_on_c, 0, 72, 97
2, 43936, Note_on_c, 0, 72, 0
2, 43940, Note_on_c, 0, 74, 92
2, 44056, Note_on_c, 0, 74, 0
2, 44060, Note_on_c, 0, 76, 98
2, 44176, Note_on_c, 0, 76, 0
2, 44180, Note_on_c, 0, 78, 101
2, 44296, Note_on_c, 0, 78, 0
2, 44300, Note_on_c, 0, 79, 97
2, 44416, Note_on_c, 0, 79, 0
2, 44420, Note_on_c, 0, 81, 91
2, 44536, Note_on_c, 0, 81, 0
2, 44540, Note_on_c, 0, 78, 82
2, 44656, Note_on_c, 0, 78, 0
2, 44660, Note_on_c, 0, 79, 90
2, 44776, Note_on_c, 0, 79, 0
2, 44780, Note_on_c, 0, 78, 84
2, 44896, Note_on_c, 0, 78, 0
2, 44900, Note_on_c, 0, 76, 89
2, 44956, Note_on_c, 0, 76, 0
2, 44960, Note_on_c, 0, 74, 80
2, 45016, Note_on_c, 0, 74, 0
2, 45020, Note_on_c, 0, 84, 98
2, 45256, Note_on_c, 0, 84, 0
2, 45260, Note_on_c, 0, 78, 90
2, 45376, Note_on_c, 0, 78, 0
2, 45380, Note_on_c, 0, 79, 83
2, 45496, Note_on_c, 0, 79, 0
2, 45500, Note_on_c, 0, 81, 92
2, 45616, Note_on_c, 0, 81, 0
2, 45620, Note_on_c, 0, 82, 89
2, 45736, Note_on_c, 0, 82, 0
2, 45740, Note_on_c, 0, 84, 72
2, 45856, Note_on_c, 0, 84, 0
2, 45860, Note_on_c, 0, 86, 72
2, 46100, Note_on_c, 0, 86, 0
2, 47300, Note_on_c, 0, 75, 104
2, 47536, Note_on_c, 0, 75, 0
2, 47540, Note_on_c, 0, 74, 89
2, 47776, Note_on_c, 0, 74, 0
2, 47780, Note_on_c, 0, 72, 96
2, 48016, Note_on_c, 0, 72, 0
2, 48020, Note_on_c, 0, 79, 101
2, 48136, Note_on_c, 0, 79, 0
2, 48140, Note_on_c, 0, 67, 95
2, 48376, Note_on_c, 0, 67, 0
2, 48380, Note_on_c, 0, 68, 97
2, 48616, Note_on_c, 0, 68, 0
2, 48620, Note_on_c, 0, 70, 101
2, 48856, Note_on_c, 0, 70, 0
2, 48860, Note_on_c, 0, 72, 102
2, 48976, Note_on_c, 0, 72, 0
2, 48980, Note_on_c, 0, 70, 93
2, 49216, Note_on_c, 0, 70, 0
2, 49220, Note_on_c, 0, 77, 104
2, 49456, Note_on_c, 0, 77, 0
2, 49460, Note_on_c, 0, 79, 106
2, 49696, Note_on_c, 0, 79, 0
2, 49700, Note_on_c, 0, 74, 93
2, 49936, Note_on_c, 0, 74, 0
2, 49940, Note_on_c, 0, 75, 97
2, 50056, Note_on_c, 0, 75, 0
2, 50060, Note_on_c, 0, 74, 98
2, 50176, Note_on_c, 0, 74, 0
2, 50180, Note_on_c, 0, 72, 92
2, 50416, Note_on_c, 0, 72, 0
2, 50540, Note_on_c, 0, 70, 96
2, 50776, Note_on_c, 0, 70, 0
2, 50780, Note_on_c, 0, 72, 96
2, 50896, Note_on_c, 0, 72, 0
2, 50900, Note_on_c, 0, 74, 88
2, 51016, Note_on_c, 0, 74, 0
2, 51020, Note_on_c, 0, 70, 92
2, 51136, Note_on_c, 0, 70, 0
2, 51140, Note_on_c, 0, 65, 92
2, 51256, Note_on_c, 0, 65, 0
2, 51260, Note_on_c, 0, 62, 91
2, 51376, Note_on_c, 0, 62, 0
2, 51380, Note_on_c, 0, 63, 106
2, 51496, Note_on_c, 0, 63, 0
2, 51500, Note_on_c, 0, 65, 100
2, 51616, Note_on_c, 0, 65, 0
2, 51620, Note_on_c, 0, 67, 92
2, 51736, Note_on_c, 0, 67, 0
2, 51740, Note_on_c, 0, 68, 97
2, 51856, Note_on_c, 0, 68, 0
2, 51860, Note_on_c, 0, 70, 92
2, 52936, Note_on_c, 0, 70, 0
2, 52940, Note_on_c, 0, 72, 96
2, 52996, Note_on_c, 0, 72, 0
2, 53000, Note_on_c, 0, 74, 89
2, 53056, Note_on_c, 0, 74, 0
2, 53060, Note_on_c, 0, 75, 94
2, 53116, Note_on_c, 0, 75, 0
2, 53120, Note_on_c, 0, 74, 73
2, 53176, Note_on_c, 0, 74, 0
2, 53180, Note_on_c, 0, 72, 106
2, 53296, Note_on_c, 0, 72, 0
2, 53300, Note_on_c, 0, 74, 97
2, 53416, Note_on_c, 0, 74, 0
2, 53420, Note_on_c, 0, 75, 99
2, 53476, Note_on_c, 0, 75, 0
2, 53480, Note_on_c, 0, 77, 82
2, 53536, Note_on_c, 0, 77, 0
2, 53540, Note_on_c, 0, 75, 85
2, 53596, Note_on_c, 0, 75, 0
2, 53600, Note_on_c, 0, 77, 86
2, 53656, Note_on_c, 0, 77, 0
2, 53660, Note_on_c, 0, 79, 96
2, 53776, Note_on_c, 0, 79, 0
2, 53780, Note_on_c, 0, 77, 102
2, 54020, Note_on_c, 0, 77, 0
2, 54860, Note_on_c, 0, 72, 95
2, 54916, Note_on_c, 0, 72, 0
2, 54980, Note_on_c, 0, 72, 98
2, 55096, Note_on_c, 0, 72, 0
2, 55100, Note_on_c, 0, 74, 90
2, 55220, Note_on_c, 0, 74, 0
2, 55220, Note_on_c, 0, 75, 73
2, 55340, Note_on_c, 0, 75, 0
2, 55340, Note_on_c, 0, 76, 86
2, 55456, Note_on_c, 0, 76, 0
2, 55460, Note_on_c, 0, 67, 84
2, 55576, Note_on_c, 0, 67, 0
2, 55580, Note_on_c, 0, 76, 91
2, 55696, Note_on_c, 0, 76, 0
2, 55700, Note_on_c, 0, 78, 85
2, 56296, Note_on_c, 0, 78, 0
2, 56300, Note_on_c, 0, 79, 85
2, 56416, Note_on_c, 0, 79, 0
2, 56420, Note_on_c, 0, 81, 91
2, 56536, Note_on_c, 0, 81, 0
2, 56540, Note_on_c, 0, 82, 81
2, 56656, Note_on_c, 0, 82, 0
2, 56660, Note_on_c, 0, 84, 81
2, 56776, Note_on_c, 0, 84, 0
2, 56780, Note_on_c, 0, 82, 81
2, 56896, Note_on_c, 0, 82, 0
2, 56900, Note_on_c, 0, 81, 82
2, 57016, Note_on_c, 0, 81, 0
2, 57020, Note_on_c, 0, 79, 82
2, 57136, Note_on_c, 0, 79, 0
2, 57140, Note_on_c, 0, 78, 85
2, 57256, Note_on_c, 0, 78, 0
2, 57260, Note_on_c, 0, 79, 86
2, 57376, Note_on_c, 0, 79, 0
2, 57380, Note_on_c, 0, 78, 88
2, 57736, Note_on_c, 0, 78, 0
2, 57740, Note_on_c, 0, 81, 96
2, 57856, Note_on_c, 0, 81, 0
2, 57860, Note_on_c, 0, 79, 95
2, 58096, Note_on_c, 0, 79, 0
2, 58340, Note_on_c, 0, 72, 107
2, 58576, Note_on_c, 0, 72, 0
2, 58580, Note_on_c, 0, 67, 98
2, 58936, Note_on_c, 0, 67, 0
2, 58940, Note_on_c, 0, 69, 96
2, 59056, Note_on_c, 0, 69, 0
2, 59060, Note_on_c, 0, 70, 90
2, 59176, Note_on_c, 0, 70, 0
2, 59180, Note_on_c, 0, 72, 97
2, 59296, Note_on_c, 0, 72, 0
2, 59300, Note_on_c, 0, 74, 92
2, 59416, Note_on_c, 0, 74, 0
2, 59420, Note_on_c, 0, 76, 98
2, 59536, Note_on_c, 0, 76, 0
2, 59540, Note_on_c, 0, 78, 101
2, 59656, Note_on_c, 0, 78, 0
2, 59660, Note_on_c, 0, 79, 97
2, 59776, Note_on_c, 0, 79, 0
2, 59780, Note_on_c, 0, 81, 91
2, 59896, Note_on_c, 0, 81, 0
2, 59900, Note_on_c, 0, 78, 82
2, 60016, Note_on_c, 0, 78, 0
2, 60020, Note_on_c, 0, 79, 90
2, 60136, Note_on_c, 0, 79, 0
2, 60140, Note_on_c, 0, 78, 84
2, 60256, Note_on_c, 0, 78, 0
2, 60260, Note_on_c, 0, 76, 89
2, 60316, Note_on_c, 0, 76, 0
2, 60320, Note_on_c, 0, 74, 80
2, 60376, Note_on_c, 0, 74, 0
2, 60380, Note_on_c, 0, 84, 98
2, 60616, Note_on_c, 0, 84, 0
2, 60620, Note_on_c, 0, 78, 90
2, 60736, Note_on_c, 0, 78, 0
2, 60740, Note_on_c, 0, 79, 83
2, 60856, Note_on_c, 0, 79, 0
2, 60860, Note_on_c, 0, 81, 92
2, 60976, Note_on_c, 0, 81, 0
2, 60980, Note_on_c, 0, 82, 89
2, 61096, Note_on_c, 0, 82, 0
2, 61100, Note_on_c, 0, 84, 72
2, 61216, Note_on_c, 0, 84, 0
2, 61220, Note_on_c, 0, 86, 72
2, 61460, Note_on_c, 0, 86, 0
2, 61920, End_track
3, 0, Start_track
3, 0, Title_t, "goldberg.mid"
3, 140, Note_on_c, 1, 67, 91
3, 256, Note_on_c, 1, 67, 0
3, 260, Note_on_c, 1, 67, 96
3, 376, Note_on_c, 1, 67, 0
3, 380, Note_on_c, 1, 65, 90
3, 436, Note_on_c, 1, 65, 0
3, 500, Note_on_c, 1, 65, 92
3, 616, Note_on_c, 1, 65, 0
3, 620, Note_on_c, 1, 63, 94
3, 676, Note_on_c, 1, 63, 0
3, 740, Note_on_c, 1, 63, 99
3, 856, Note_on_c, 1, 63, 0
3, 860, Note_on_c, 1, 62, 91
3, 916, Note_on_c, 1, 62, 0
3, 980, Note_on_c, 1, 62, 97
3, 1576, Note_on_c, 1, 62, 0
3, 1580, Note_on_c, 1, 60, 93
3, 1696, Note_on_c, 1, 60, 0
3, 1700, Note_on_c, 1, 58, 104
3, 1816, Note_on_c, 1, 58, 0
3, 1820, Note_on_c, 1, 57, 100
3, 1936, Note_on_c, 1, 57, 0
3, 1940, Note_on_c, 1, 55, 95
3, 2056, Note_on_c, 1, 55, 0
3, 2060, Note_on_c, 1, 61, 112
3, 2176, Note_on_c, 1, 61, 0
3, 2180, Note_on_c, 1, 61, 110
3, 2236, Note_on_c, 1, 61, 0
3, 2240, Note_on_c, 1, 62, 101
3, 2296, Note_on_c, 1, 62, 0
3, 2300, Note_on_c, 1, 61, 117
3, 2416, Note_on_c, 1, 61, 0
3, 2420, Note_on_c, 1, 67, 117
3, 3140, Note_on_c, 1, 67, 0
3, 3140, Note_on_c, 1, 66, 112
3, 3260, Note_on_c, 1, 66, 0
3, 3260, Note_on_c, 1, 64, 92
3, 3380, Note_on_c, 1, 64, 0
3, 3380, Note_on_c, 1, 66, 108
3, 3496, Note_on_c, 1, 66, 0
3, 3500, Note_on_c, 1, 67, 98
3, 3616, Note_on_c, 1, 67, 0
3, 3620, Note_on_c, 1, 67, 95
3, 3736, Note_on_c, 1, 67, 0
3, 3740, Note_on_c, 1, 69, 97
3, 3860, Note_on_c, 1, 69, 0
3, 3860, Note_on_c, 1, 70, 90
3, 4100, Note_on_c, 1, 70, 0
3, 4580, Note_on_c, 1, 69, 101
3, 4820, Note_on_c, 1, 69, 0
3, 4820, Note_on_c, 1, 62, 102
3, 4876, Note_on_c, 1, 62, 0
3, 4880, Note_on_c, 1, 60, 80
3, 4936, Note_on_c, 1, 60, 0
3, 4940, Note_on_c, 1, 63, 112
3, 5056, Note_on_c, 1, 63, 0
3, 5060, Note_on_c, 1, 62, 101
3, 5176, Note_on_c, 1, 62, 0
3, 5180, Note_on_c, 1, 60, 95
3, 5296, Note_on_c, 1, 60, 0
3, 5300, Note_on_c, 1, 58, 110
3, 5416, Note_on_c, 1, 58, 0
3, 5420, Note_on_c, 1, 57, 106
3, 5536, Note_on_c, 1, 57, 0
3, 5540, Note_on_c, 1, 55, 93
3, 5656, Note_on_c, 1, 55, 0
3, 5660, Note_on_c, 1, 57, 102
3, 5776, Note_on_c, 1, 57, 0
3, 5780, Note_on_c, 1, 58, 110
3, 5896, Note_on_c, 1, 58, 0
3, 5900, Note_on_c, 1, 62, 107
3, 6016, Note_on_c, 1, 62, 0
3, 6020, Note_on_c, 1, 67, 117
3, 6500, Note_on_c, 1, 67, 0
3, 6500, Note_on_c, 1, 66, 84
3, 6556, Note_on_c, 1, 66, 0
3, 6560, Note_on_c, 1, 67, 107
3, 6616, Note_on_c, 1, 67, 0
3, 6620, Note_on_c, 1, 66, 90
3, 6740, Note_on_c, 1, 66, 0
3, 6740, Note_on_c, 1, 67, 109
3, 6980, Note_on_c, 1, 67, 0
3, 7340, Note_on_c, 1, 66, 101
3, 7456, Note_on_c, 1, 66, 0
3, 7460, Note_on_c, 1, 67, 97
3, 7576, Note_on_c, 1, 67, 0
3, 7580, Note_on_c, 1, 69, 89
3, 7696, Note_on_c, 1, 69, 0
3, 7700, Note_on_c, 1, 70, 93
3, 7816, Note_on_c, 1, 70, 0
3, 7820, Note_on_c, 1, 69, 84
3, 7876, Note_on_c, 1, 69, 0
3, 7940, Note_on_c, 1, 69, 97
3, 8056, Note_on_c, 1, 69, 0
3, 8060, Note_on_c, 1, 67, 96
3, 8116, Note_on_c, 1, 67, 0
3, 8180, Note_on_c, 1, 67, 100
3, 8296, Note_on_c, 1, 67, 0
3, 8300, Note_on_c, 1, 66, 89
3, 8356, Note_on_c, 1, 66, 0
3, 8420, Note_on_c, 1, 66, 99
3, 8536, Note_on_c, 1, 66, 0
3, 8540, Note_on_c, 1, 67, 89
3, 8656, Note_on_c, 1, 67, 0
3, 8660, Note_on_c, 1, 67, 107
3, 8896, Note_on_c, 1, 67, 0
3, 9380, Note_on_c, 1, 60, 107
3, 9616, Note_on_c, 1, 60, 0
3, 9620, Note_on_c, 1, 58, 112
3, 9860, Note_on_c, 1, 58, 0
3, 9860, Note_on_c, 1, 67, 119
3, 9976, Note_on_c, 1, 67, 0
3, 9980, Note_on_c, 1, 65, 119
3, 10220, Note_on_c, 1, 65, 0
3, 10220, Note_on_c, 1, 64, 97
3, 10460, Note_on_c, 1, 64, 0
3, 10460, Note_on_c, 1, 62, 102
3, 10580, Note_on_c, 1, 62, 0
3, 10580, Note_on_c, 1, 61, 99
3, 10820, Note_on_c, 1, 61, 0
3, 10820, Note_on_c, 1, 70, 86
3, 11056, Note_on_c, 1, 70, 0
3, 11060, Note_on_c, 1, 69, 119
3, 11296, Note_on_c, 1, 69, 0
3, 11300, Note_on_c, 1, 61, 115
3, 11540, Note_on_c, 1, 61, 0
3, 11780, Note_on_c, 1, 62, 109
3, 11836, Note_on_c, 1, 62, 0
3, 11840, Note_on_c, 1, 61, 110
3, 11896, Note_on_c, 1, 61, 0
3, 11900, Note_on_c, 1, 62, 111
3, 12136, Note_on_c, 1, 62, 0
3, 12140, Note_on_c, 1, 62, 113
3, 12376, Note_on_c, 1, 62, 0
3, 12380, Note_on_c, 1, 62, 107
3, 12616, Note_on_c, 1, 62, 0
3, 12620, Note_on_c, 1, 64, 107
3, 12676, Note_on_c, 1, 64, 0
3, 12680, Note_on_c, 1, 62, 100
3, 12736, Note_on_c, 1, 62, 0
3, 12740, Note_on_c, 1, 61, 121
3, 12856, Note_on_c, 1, 61, 0
3, 12860, Note_on_c, 1, 59, 98
3, 12976, Note_on_c, 1, 59, 0
3, 12980, Note_on_c, 1, 61, 104
3, 13096, Note_on_c, 1, 61, 0
3, 13100, Note_on_c, 1, 64, 111
3, 13216, Note_on_c, 1, 64, 0
3, 13220, Note_on_c, 1, 69, 109
3, 13460, Note_on_c, 1, 69, 0
3, 13700, Note_on_c, 1, 62, 113
3, 14056, Note_on_c, 1, 62, 0
3, 14060, Note_on_c, 1, 64, 119
3, 14116, Note_on_c, 1, 64, 0
3, 14120, Note_on_c, 1, 65, 97
3, 14176, Note_on_c, 1, 65, 0
3, 14180, Note_on_c, 1, 64, 111
3, 14236, Note_on_c, 1, 64, 0
3, 14240, Note_on_c, 1, 62, 101
3, 14296, Note_on_c, 1, 62, 0
3, 14300, Note_on_c, 1, 64, 107
3, 14416, Note_on_c, 1, 64, 0
3, 14420, Note_on_c, 1, 62, 113
3, 14900, Note_on_c, 1, 62, 0
3, 15500, Note_on_c, 1, 67, 91
3, 15616, Note_on_c, 1, 67, 0
3, 15620, Note_on_c, 1, 67, 96
3, 15736, Note_on_c, 1, 67, 0
3, 15740, Note_on_c, 1, 65, 90
3, 15796, Note_on_c, 1, 65, 0
3, 15860, Note_on_c, 1, 65, 92
3, 15976, Note_on_c, 1, 65, 0
3, 15980, Note_on_c, 1, 63, 94
3, 16036, Note_on_c, 1, 63, 0
3, 16100, Note_on_c, 1, 63, 99
3, 16216, Note_on_c, 1, 63, 0
3, 16220, Note_on_c, 1, 62, 91
3, 16276, Note_on_c, 1, 62, 0
3, 16340, Note_on_c, 1, 62, 97
3, 16936, Note_on_c, 1, 62, 0
3, 16940, Note_on_c, 1, 60, 93
3, 17056, Note_on_c, 1, 60, 0
3, 17060, Note_on_c, 1, 58, 104
3, 17176, Note_on_c, 1, 58, 0
3, 17180, Note_on_c, 1, 57, 100
3, 17296, Note_on_c, 1, 57, 0
3, 17300, Note_on_c, 1, 55, 95
3, 17416, Note_on_c, 1, 55, 0
3, 17420, Note_on_c, 1, 61, 112
3, 17536, Note_on_c, 1, 61, 0
3, 17540, Note_on_c, 1, 61, 110
3, 17596, Note_on_c, 1, 61, 0
3, 17600, Note_on_c, 1, 62, 101
3, 17656, Note_on_c, 1, 62, 0
3, 17660, Note_on_c, 1, 61, 117
3, 17776, Note_on_c, 1, 61, 0
3, 17780, Note_on_c, 1, 67, 117
3, 18500, Note_on_c, 1, 67, 0
3, 18500, Note_on_c, 1, 66, 112
3, 18620, Note_on_c, 1, 66, 0
3, 18620, Note_on_c, 1, 64, 92
3, 18740, Note_on_c, 1, 64, 0
3, 18740, Note_on_c, 1, 66, 108
3, 18856, Note_on_c, 1, 66, 0
3, 18860, Note_on_c, 1, 67, 98
3, 18976, Note_on_c, 1, 67, 0
3, 18980, Note_on_c, 1, 67, 95
3, 19096, Note_on_c, 1, 67, 0
3, 19100, Note_on_c, 1, 69, 97
3, 19220, Note_on_c, 1, 69, 0
3, 19220, Note_on_c, 1, 70, 90
3, 19460, Note_on_c, 1, 70, 0
3, 19940, Note_on_c, 1, 69, 101
3, 20180, Note_on_c, 1, 69, 0
3, 20180, Note_on_c, 1, 62, 102
3, 20236, Note_on_c, 1, 62, 0
3, 20240, Note_on_c, 1, 60, 80
3, 20296, Note_on_c, 1, 60, 0
3, 20300, Note_on_c, 1, 63, 112
3, 20416, Note_on_c, 1, 63, 0
3, 20420, Note_on_c, 1, 62, 101
3, 20536, Note_on_c, 1, 62, 0
3, 20540, Note_on_c, 1, 60, 95
3, 20656, Note_on_c, 1, 60, 0
3, 20660, Note_on_c, 1, 58, 110
3, 20776, Note_on_c, 1, 58, 0
3, 20780, Note_on_c, 1, 57, 106
3, 20896, Note_on_c, 1, 57, 0
3, 20900, Note_on_c, 1, 55, 93
3, 21016, Note_on_c, 1, 55, 0
3, 21020, Note_on_c, 1, 57, 102
3, 21136, Note_on_c, 1, 57, 0
3, 21140, Note_on_c, 1, 58, 110
3, 21256, Note_on_c, 1, 58, 0
3, 21260, Note_on_c, 1, 62, 107
3, 21376, Note_on_c, 1, 62, 0
3, 21380, Note_on_c, 1, 67, 117
3, 21860, Note_on_c, 1, 67, 0
3, 21860, Note_on_c, 1, 66, 84
3, 21916, Note_on_c, 1, 66, 0
3, 21920, Note_on_c, 1, 67, 107
3, 21976, Note_on_c, 1, 67, 0
3, 21980, Note_on_c, 1, 66, 90
3, 22100, Note_on_c, 1, 66, 0
3, 22100, Note_on_c, 1, 67, 109
3, 22340, Note_on_c, 1, 67, 0
3, 22700, Note_on_c, 1, 66, 101
3, 22816, Note_on_c, 1, 66, 0
3, 22820, Note_on_c, 1, 67, 97
3, 22936, Note_on_c, 1, 67, 0
3, 22940, Note_on_c, 1, 69, 89
3, 23056, Note_on_c, 1, 69, 0
3, 23060, Note_on_c, 1, 70, 93
3, 23176, Note_on_c, 1, 70, 0
3, 23180, Note_on_c, 1, 69, 84
3, 23236, Note_on_c, 1, 69, 0
3, 23300, Note_on_c, 1, 69, 97
3, 23416, Note_on_c, 1, 69, 0
3, 23420, Note_on_c, 1, 67, 96
3, 23476, Note_on_c, 1, 67, 0
3, 23540, Note_on_c, 1, 67, 100
3, 23656, Note_on_c, 1, 67, 0
3, 23660, Note_on_c, 1, 66, 89
3, 23716, Note_on_c, 1, 66, 0
3, 23780, Note_on_c, 1, 66, 99
3, 23896, Note_on_c, 1, 66, 0
3, 23900, Note_on_c, 1, 67, 89
3, 24016, Note_on_c, 1, 67, 0
3, 24020, Note_on_c, 1, 67, 107
3, 24256, Note_on_c, 1, 67, 0
3, 24740, Note_on_c, 1, 60, 107
3, 24976, Note_on_c, 1, 60, 0
3, 24980, Note_on_c, 1, 58, 112
3, 25220, Note_on_c, 1, 58, 0
3, 25220, Note_on_c, 1, 67, 119
3, 25336, Note_on_c, 1, 67, 0
3, 25340, Note_on_c, 1, 65, 119
3, 25580, Note_on_c, 1, 65, 0
3, 25580, Note_on_c, 1, 64, 97
3, 25820, Note_on_c, 1, 64, 0
3, 25820, Note_on_c, 1, 62, 102
3, 25940, Note_on_c, 1, 62, 0
3, 25940, Note_on_c, 1, 61, 99
3, 26180, Note_on_c, 1, 61, 0
3, 26180, Note_on_c, 1, 70, 86
3, 26416, Note_on_c, 1, 70, 0
3, 26420, Note_on_c, 1, 69, 119
3, 26656, Note_on_c, 1, 69, 0
3, 26660, Note_on_c, 1, 61, 115
3, 26900, Note_on_c, 1, 61, 0
3, 27140, Note_on_c, 1, 62, 109
3, 27196, Note_on_c, 1, 62, 0
3, 27200, Note_on_c, 1, 61, 110
3, 27256, Note_on_c, 1, 61, 0
3, 27260, Note_on_c, 1, 62, 111
3, 27496, Note_on_c, 1, 62, 0
3, 27500, Note_on_c, 1, 62, 113
3, 27736, Note_on_c, 1, 62, 0
3, 27740, Note_on_c, 1, 62, 107
3, 27976, Note_on_c, 1, 62, 0
3, 27980, Note_on_c, 1, 64, 107
3, 28036, Note_on_c, 1, 64, 0
3, 28040, Note_on_c, 1, 62, 100
3, 28096, Note_on_c, 1, 62, 0
3, 28100, Note_on_c, 1, 61, 121
3, 28216, Note_on_c, 1, 61, 0
3, 28220, Note_on_c, 1, 59, 98
3, 28336, Note_on_c, 1, 59, 0
3, 28340, Note_on_c, 1, 61, 104
3, 28456, Note_on_c, 1, 61, 0
3, 28460, Note_on_c, 1, 64, 111
3, 28576, Note_on_c, 1, 64, 0
3, 28580, Note_on_c, 1, 69, 109
3, 28820, Note_on_c, 1, 69, 0
3, 29060, Note_on_c, 1, 62, 113
3, 29416, Note_on_c, 1, 62, 0
3, 29420, Note_on_c, 1, 64, 119
3, 29476, Note_on_c, 1, 64, 0
3, 29480, Note_on_c, 1, 65, 97
3, 29536, Note_on_c, 1, 65, 0
3, 29540, Note_on_c, 1, 64, 111
3, 29596, Note_on_c, 1, 64, 0
3, 29600, Note_on_c, 1, 62, 101
3, 29656, Note_on_c, 1, 62, 0
3, 29660, Note_on_c, 1, 64, 107
3, 29776, Note_on_c, 1, 64, 0
3, 29780, Note_on_c, 1, 62, 113
3, 30260, Note_on_c, 1, 62, 0
3, 30980, Note_on_c, 1, 66, 92
3, 31216, Note_on_c, 1, 66, 0
3, 31220, Note_on_c, 1, 67, 88
3, 31456, Note_on_c, 1, 67, 0
3, 31460, Note_on_c, 1, 69, 74
3, 31696, Note_on_c, 1, 69, 0
3, 31700, Note_on_c, 1, 62, 77
3, 31816, Note_on_c, 1, 62, 0
3, 31820, Note_on_c, 1, 74, 96
3, 32056, Note_on_c, 1, 74, 0
3, 32060, Note_on_c, 1, 72, 97
3, 32296, Note_on_c, 1, 72, 0
3, 32300, Note_on_c, 1, 70, 86
3, 32536, Note_on_c, 1, 70, 0
3, 32540, Note_on_c, 1, 69, 88
3, 32656, Note_on_c, 1, 69, 0
3, 32660, Note_on_c, 1, 70, 82
3, 32896, Note_on_c, 1, 70, 0
3, 32900, Note_on_c, 1, 63, 93
3, 33136, Note_on_c, 1, 63, 0
3, 33140, Note_on_c, 1, 62, 84
3, 33376, Note_on_c, 1, 62, 0
3, 33380, Note_on_c, 1, 67, 95
3, 33616, Note_on_c, 1, 67, 0
3, 33620, Note_on_c, 1, 65, 83
3, 33736, Note_on_c, 1, 65, 0
3, 33740, Note_on_c, 1, 67, 95
3, 33856, Note_on_c, 1, 67, 0
3, 33860, Note_on_c, 1, 68, 94
3, 34216, Note_on_c, 1, 68, 0
3, 34220, Note_on_c, 1, 70, 104
3, 34456, Note_on_c, 1, 70, 0
3, 34460, Note_on_c, 1, 68, 85
3, 34576, Note_on_c, 1, 68, 0
3, 34580, Note_on_c, 1, 67, 91
3, 34696, Note_on_c, 1, 67, 0
3, 34700, Note_on_c, 1, 70, 93
3, 34816, Note_on_c, 1, 70, 0
3, 34820, Note_on_c, 1, 75, 92
3, 34936, Note_on_c, 1, 75, 0
3, 34940, Note_on_c, 1, 79, 102
3, 35056, Note_on_c, 1, 79, 0
3, 35060, Note_on_c, 1, 77, 98
3, 35180, Note_on_c, 1, 77, 0
3, 35180, Note_on_c, 1, 75, 85
3, 35296, Note_on_c, 1, 75, 0
3, 35300, Note_on_c, 1, 74, 101
3, 35416, Note_on_c, 1, 74, 0
3, 35420, Note_on_c, 1, 72, 100
3, 35536, Note_on_c, 1, 72, 0
3, 35540, Note_on_c, 1, 70, 97
3, 36616, Note_on_c, 1, 70, 0
3, 36620, Note_on_c, 1, 68, 110
3, 36676, Note_on_c, 1, 68, 0
3, 36680, Note_on_c, 1, 67, 73
3, 36736, Note_on_c, 1, 67, 0
3, 36740, Note_on_c, 1, 65, 76
3, 36796, Note_on_c, 1, 65, 0
3, 36800, Note_on_c, 1, 67, 88
3, 36856, Note_on_c, 1, 67, 0
3, 36860, Note_on_c, 1, 68, 90
3, 36976, Note_on_c, 1, 68, 0
3, 36980, Note_on_c, 1, 67, 97
3, 37096, Note_on_c, 1, 67, 0
3, 37100, Note_on_c, 1, 65, 85
3, 37156, Note_on_c, 1, 65, 0
3, 37160, Note_on_c, 1, 63, 97
3, 37216, Note_on_c, 1, 63, 0
3, 37220, Note_on_c, 1, 65, 90
3, 37276, Note_on_c, 1, 65, 0
3, 37280, Note_on_c, 1, 63, 78
3, 37336, Note_on_c, 1, 63, 0
3, 37340, Note_on_c, 1, 62, 95
3, 37456, Note_on_c, 1, 62, 0
3, 37460, Note_on_c, 1, 63, 104
3, 37700, Note_on_c, 1, 63, 0
3, 38540, Note_on_c, 1, 68, 88
3, 38596, Note_on_c, 1, 68, 0
3, 38660, Note_on_c, 1, 68, 94
3, 38776, Note_on_c, 1, 68, 0
3, 38780, Note_on_c, 1, 67, 92
3, 38896, Note_on_c, 1, 67, 0
3, 38900, Note_on_c, 1, 66, 101
3, 39016, Note_on_c, 1, 66, 0
3, 39020, Note_on_c, 1, 65, 82
3, 39136, Note_on_c, 1, 65, 0
3, 39140, Note_on_c, 1, 74, 101
3, 39256, Note_on_c, 1, 74, 0
3, 39260, Note_on_c, 1, 65, 88
3, 39376, Note_on_c, 1, 65, 0
3, 39380, Note_on_c, 1, 63, 101
3, 39976, Note_on_c, 1, 63, 0
3, 39980, Note_on_c, 1, 62, 93
3, 40096, Note_on_c, 1, 62, 0
3, 40100, Note_on_c, 1, 60, 85
3, 40216, Note_on_c, 1, 60, 0
3, 40220, Note_on_c, 1, 58, 102
3, 40336, Note_on_c, 1, 58, 0
3, 40340, Note_on_c, 1, 57, 86
3, 40456, Note_on_c, 1, 57, 0
3, 40460, Note_on_c, 1, 58, 101
3, 40576, Note_on_c, 1, 58, 0
3, 40580, Note_on_c, 1, 60, 97
3, 40696, Note_on_c, 1, 60, 0
3, 40700, Note_on_c, 1, 62, 97
3, 40816, Note_on_c, 1, 62, 0
3, 40820, Note_on_c, 1, 63, 81
3, 40936, Note_on_c, 1, 63, 0
3, 40940, Note_on_c, 1, 62, 92
3, 41056, Note_on_c, 1, 62, 0
3, 41060, Note_on_c, 1, 63, 97
3, 41420, Note_on_c, 1, 63, 0
3, 41420, Note_on_c, 1, 60, 94
3, 41536, Note_on_c, 1, 60, 0
3, 41540, Note_on_c, 1, 62, 89
3, 41780, Note_on_c, 1, 62, 0
3, 42020, Note_on_c, 1, 69, 107
3, 42260, Note_on_c, 1, 69, 0
3, 42260, Note_on_c, 1, 74, 101
3, 42620, Note_on_c, 1, 74, 0
3, 42620, Note_on_c, 1, 72, 93
3, 42736, Note_on_c, 1, 72, 0
3, 42740, Note_on_c, 1, 70, 85
3, 42856, Note_on_c, 1, 70, 0
3, 42860, Note_on_c, 1, 69, 85
3, 42976, Note_on_c, 1, 69, 0
3, 42980, Note_on_c, 1, 67, 80
3, 43096, Note_on_c, 1, 67, 0
3, 43100, Note_on_c, 1, 65, 93
3, 43216, Note_on_c, 1, 65, 0
3, 43220, Note_on_c, 1, 63, 97
3, 43336, Note_on_c, 1, 63, 0
3, 43340, Note_on_c, 1, 62, 69
3, 43456, Note_on_c, 1, 62, 0
3, 43460, Note_on_c, 1, 60, 91
3, 43576, Note_on_c, 1, 60, 0
3, 43580, Note_on_c, 1, 63, 94
3, 43696, Note_on_c, 1, 63, 0
3, 43700, Note_on_c, 1, 62, 95
3, 43816, Note_on_c, 1, 62, 0
3, 43820, Note_on_c, 1, 64, 104
3, 43936, Note_on_c, 1, 64, 0
3, 43940, Note_on_c, 1, 66, 82
3, 44000, Note_on_c, 1, 66, 0
3, 44000, Note_on_c, 1, 67, 82
3, 44060, Note_on_c, 1, 67, 0
3, 44060, Note_on_c, 1, 57, 82
3, 44300, Note_on_c, 1, 57, 0
3, 44300, Note_on_c, 1, 63, 99
3, 44416, Note_on_c, 1, 63, 0
3, 44420, Note_on_c, 1, 62, 91
3, 44536, Note_on_c, 1, 62, 0
3, 44540, Note_on_c, 1, 60, 83
3, 44656, Note_on_c, 1, 60, 0
3, 44660, Note_on_c, 1, 58, 79
3, 44776, Note_on_c, 1, 58, 0
3, 44780, Note_on_c, 1, 57, 85
3, 44896, Note_on_c, 1, 57, 0
3, 44900, Note_on_c, 1, 55, 92
3, 45016, Note_on_c, 1, 55, 0
3, 45020, Note_on_c, 1, 54, 104
3, 45136, Note_on_c, 1, 54, 0
3, 45140, Note_on_c, 1, 55, 82
3, 45620, Note_on_c, 1, 55, 0
3, 46340, Note_on_c, 1, 66, 92
3, 46576, Note_on_c, 1, 66, 0
3, 46580, Note_on_c, 1, 67, 88
3, 46816, Note_on_c, 1, 67, 0
3, 46820, Note_on_c, 1, 69, 74
3, 47056, Note_on_c, 1, 69, 0
3, 47060, Note_on_c, 1, 62, 77
3, 47176, Note_on_c, 1, 62, 0
3, 47180, Note_on_c, 1, 74, 96
3, 47416, Note_on_c, 1, 74, 0
3, 47420, Note_on_c, 1, 72, 97
3, 47656, Note_on_c, 1, 72, 0
3, 47660, Note_on_c, 1, 70, 86
3, 47896, Note_on_c, 1, 70, 0
3, 47900, Note_on_c, 1, 69, 88
3, 48016, Note_on_c, 1, 69, 0
3, 48020, Note_on_c, 1, 70, 82
3, 48256, Note_on_c, 1, 70, 0
3, 48260, Note_on_c, 1, 63, 93
3, 48496, Note_on_c, 1, 63, 0
3, 48500, Note_on_c, 1, 62, 84
3, 48736, Note_on_c, 1, 62, 0
3, 48740, Note_on_c, 1, 67, 95
3, 48976, Note_on_c, 1, 67, 0
3, 48980, Note_on_c, 1, 65, 83
3, 49096, Note_on_c, 1, 65, 0
3, 49100, Note_on_c, 1, 67, 95
3, 49216, Note_on_c, 1, 67, 0
3, 49220, Note_on_c, 1, 68, 94
3, 49576, Note_on_c, 1, 68, 0
3, 49580, Note_on_c, 1, 70, 104
3, 49816, Note_on_c, 1, 70, 0
3, 49820, Note_on_c, 1, 68, 85
3, 49936, Note_on_c, 1, 68, 0
3, 49940, Note_on_c, 1, 67, 91
3, 50056, Note_on_c, 1, 67, 0
3, 50060, Note_on_c, 1, 70, 93
3, 50176, Note_on_c, 1, 70, 0
3, 50180, Note_on_c, 1, 75, 92
3, 50296, Note_on_c, 1, 75, 0
3, 50300, Note_on_c, 1, 79, 102
3, 50416, Note_on_c, 1, 79, 0
3, 50420, Note_on_c, 1, 77, 98
3, 50540, Note_on_c, 1, 77, 0
3, 50540, Note_on_c, 1, 75, 85
3, 50656, Note_on_c, 1, 75, 0
3, 50660, Note_on_c, 1, 74, 101
3, 50776, Note_on_c, 1, 74, 0
3, 50780, Note_on_c, 1, 72, 100
3, 50896, Note_on_c, 1, 72, 0
3, 50900, Note_on_c, 1, 70, 97
3, 51976, Note_on_c, 1, 70, 0
3, 51980, Note_on_c, 1, 68, 110
3, 52036, Note_on_c, 1, 68, 0
3, 52040, Note_on_c, 1, 67, 73
3, 52096, Note_on_c, 1, 67, 0
3, 52100, Note_on_c, 1, 65, 76
3, 52156, Note_on_c, 1, 65, 0
3, 52160, Note_on_c, 1, 67, 88
3, 52216, Note_on_c, 1, 67, 0
3, 52220, Note_on_c, 1, 68, 90
3, 52336, Note_on_c, 1, 68, 0
3, 52340, Note_on_c, 1, 67, 97
3, 52456, Note_on_c, 1, 67, 0
3, 52460, Note_on_c, 1, 65, 85
3, 52516, Note_on_c, 1, 65, 0
3, 52520, Note_on_c, 1, 63, 97
3, 52576, Note_on_c, 1, 63, 0
3, 52580, Note_on_c, 1, 65, 90
3, 52636, Note_on_c, 1, 65, 0
3, 52640, Note_on_c, 1, 63, 78
3, 52696, Note_on_c, 1, 63, 0
3, 52700, Note_on_c, 1, 62, 95
3, 52816, Note_on_c, 1, 62, 0
3, 52820, Note_on_c, 1, 63, 104
3, 53060, Note_on_c, 1, 63, 0
3, 53900, Note_on_c, 1, 68, 88
3, 53956, Note_on_c, 1, 68, 0
3, 54020, Note_on_c, 1, 68, 94
3, 54136, Note_on_c, 1, 68, 0
3, 54140, Note_on_c, 1, 67, 92
3, 54256, Note_on_c, 1, 67, 0
3, 54260, Note_on_c, 1, 66, 101
3, 54376, Note_on_c, 1, 66, 0
3, 54380, Note_on_c, 1, 65, 82
3, 54496, Note_on_c, 1, 65, 0
3, 54500, Note_on_c, 1, 74, 101
3, 54616, Note_on_c, 1, 74, 0
3, 54620, Note_on_c, 1, 65, 88
3, 54736, Note_on_c, 1, 65, 0
3, 54740, Note_on_c, 1, 63, 101
3, 55336, Note_on_c, 1, 63, 0
3, 55340, Note_on_c, 1, 62, 93
3, 55456, Note_on_c, 1, 62, 0
3, 55460, Note_on_c, 1, 60, 85
3, 55576, Note_on_c, 1, 60, 0
3, 55580, Note_on_c, 1, 58, 102
3, 55696, Note_on_c, 1, 58, 0
3, 55700, Note_on_c, 1, 57, 86
3, 55816, Note_on_c, 1, 57, 0
3, 55820, Note_on_c, 1, 58, 101
3, 55936, Note_on_c, 1, 58, 0
3, 55940, Note_on_c, 1, 60, 97
3, 56056, Note_on_c, 1, 60, 0
3, 56060, Note_on_c, 1, 62, 97
3, 56176, Note_on_c, 1, 62, 0
3, 56180, Note_on_c, 1, 63, 81
3, 56296, Note_on_c, 1, 63, 0
3, 56300, Note_on_c, 1, 62, 92
3, 56416, Note_on_c, 1, 62, 0
3, 56420, Note_on_c, 1, 63, 97
3, 56780, Note_on_c, 1, 63, 0
3, 56780, Note_on_c, 1, 60, 94
3, 56896, Note_on_c, 1, 60, 0
3, 56900, Note_on_c, 1, 62, 89
3, 57140, Note_on_c, 1, 62, 0
3, 57380, Note_on_c, 1, 69, 107
3, 57620, Note_on_c, 1, 69, 0
3, 57620, Note_on_c, 1, 74, 101
3, 57980, Note_on_c, 1, 74, 0
3, 57980, Note_on_c, 1, 72, 93
3, 58096, Note_on_c, 1, 72, 0
3, 58100, Note_on_c, 1, 70, 85
3, 58216, Note_on_c, 1, 70, 0
3, 58220, Note_on_c, 1, 69, 85
3, 58336, Note_on_c, 1, 69, 0
3, 58340, Note_on_c, 1, 67, 80
3, 58456, Note_on_c, 1, 67, 0
3, 58460, Note_on_c, 1, 65, 93
3, 58576, Note_on_c, 1, 65, 0
3, 58580, Note_on_c, 1, 63, 97
3, 58696, Note_on_c, 1, 63, 0
3, 58700, Note_on_c, 1, 62, 69
3, 58816, Note_on_c, 1, 62, 0
3, 58820, Note_on_c, 1, 60, 91
3, 58936, Note_on_c, 1, 60, 0
3, 58940, Note_on_c, 1, 63, 94
3, 59056, Note_on_c, 1, 63, 0
3, 59060, Note_on_c, 1, 62, 95
3, 59176, Note_on_c, 1, 62, 0
3, 59180, Note_on_c, 1, 64, 104
3, 59296, Note_on_c, 1, 64, 0
3, 59300, Note_on_c, 1, 66, 82
3, 59360, Note_on_c, 1, 66, 0
3, 59360, Note_on_c, 1, 67, 82
3, 59420, Note_on_c, 1, 67, 0
3, 59420, Note_on_c, 1, 57, 82
3, 59660, Note_on_c, 1, 57, 0
3, 59660, Note_on_c, 1, 63, 99
3, 59776, Note_on_c, 1, 63, 0
3, 59780, Note_on_c, 1, 62, 91
3, 59896, Note_on_c, 1, 62, 0
3, 59900, Note_on_c, 1, 60, 83
3, 60016, Note_on_c, 1, 60, 0
3, 60020, Note_on_c, 1, 58, 79
3, 60136, Note_on_c, 1, 58, 0
3, 60140, Note_on_c, 1, 57, 85
3, 60256, Note_on_c, 1, 57, 0
3, 60260, Note_on_c, 1, 55, 92
3, 60376, Note_on_c, 1, 55, 0
3, 60380, Note_on_c, 1, 54, 104
3, 60496, Note_on_c, 1, 54, 0
3, 60500, Note_on_c, 1, 55, 82
3, 60980, Note_on_c, 1, 55, 0
3, 61920, End_track
4, 0, Start_track
4, 0, Title_t, "goldberg.mid"
4, 20, Note_on_c, 3, 55, 109
4, 256, Note_on_c, 3, 55, 0
4, 260, Note_on_c, 3, 43, 96
4, 496, Note_on_c, 3, 43, 0
4, 740, Note_on_c, 3, 55, 98
4, 1100, Note_on_c, 3, 55, 0
4, 1100, Note_on_c, 3, 54, 89
4, 1156, Note_on_c, 3, 54, 0
4, 1160, Note_on_c, 3, 52, 93
4, 1216, Note_on_c, 3, 52, 0
4, 1220, Note_on_c, 3, 54, 90
4, 1576, Note_on_c, 3, 54, 0
4, 1700, Note_on_c, 3, 50, 90
4, 1936, Note_on_c, 3, 50, 0
4, 1940, Note_on_c, 3, 51, 101
4, 2176, Note_on_c, 3, 51, 0
4, 2180, Note_on_c, 3, 52, 96
4, 2420, Note_on_c, 3, 52, 0
4, 2660, Note_on_c, 3, 63, 106
4, 2896, Note_on_c, 3, 63, 0
4, 2900, Note_on_c, 3, 62, 86
4, 3016, Note_on_c, 3, 62, 0
4, 3020, Note_on_c, 3, 61, 101
4, 3136, Note_on_c, 3, 61, 0
4, 3140, Note_on_c, 3, 62, 98
4, 3380, Note_on_c, 3, 62, 0
4, 3500, Note_on_c, 3, 60, 89
4, 3616, Note_on_c, 3, 60, 0
4, 3620, Note_on_c, 3, 58, 88
4, 3736, Note_on_c, 3, 58, 0
4, 3740, Note_on_c, 3, 57, 95
4, 3856, Note_on_c, 3, 57, 0
4, 3860, Note_on_c, 3, 55, 84
4, 3920, Note_on_c, 3, 55, 0
4, 3920, Note_on_c, 3, 54, 86
4, 3976, Note_on_c, 3, 54, 0
4, 3980, Note_on_c, 3, 55, 98
4, 4096, Note_on_c, 3, 55, 0
4, 4100, Note_on_c, 3, 48, 95
4, 4216, Note_on_c, 3, 48, 0
4, 4220, Note_on_c, 3, 55, 93
4, 4336, Note_on_c, 3, 55, 0
4, 4340, Note_on_c, 3, 60, 106
4, 4460, Note_on_c, 3, 60, 0
4, 4460, Note_on_c, 3, 54, 101
4, 4520, Note_on_c, 3, 54, 0
4, 4580, Note_on_c, 3, 54, 92
4, 4700, Note_on_c, 3, 54, 0
4, 4700, Note_on_c, 3, 55, 93
4, 4756, Note_on_c, 3, 55, 0
4, 4820, Note_on_c, 3, 55, 92
4, 4936, Note_on_c, 3, 55, 0
4, 4940, Note_on_c, 3, 54, 90
4, 5056, Note_on_c, 3, 54, 0
4, 5060, Note_on_c, 3, 55, 97
4, 5176, Note_on_c, 3, 55, 0
4, 5180, Note_on_c, 3, 57, 95
4, 5296, Note_on_c, 3, 57, 0
4, 5300, Note_on_c, 3, 50, 97
4, 5536, Note_on_c, 3, 50, 0
4, 5540, Note_on_c, 3, 51, 115
4, 5776, Note_on_c, 3, 51, 0
4, 5780, Note_on_c, 3, 46, 119
4, 6016, Note_on_c, 3, 46, 0
4, 6020, Note_on_c, 3, 58, 110
4, 6136, Note_on_c, 3, 58, 0
4, 6140, Note_on_c, 3, 60, 106
4, 6256, Note_on_c, 3, 60, 0
4, 6260, Note_on_c, 3, 62, 85
4, 6496, Note_on_c, 3, 62, 0
4, 6500, Note_on_c, 3, 62, 104
4, 6736, Note_on_c, 3, 62, 0
4, 6740, Note_on_c, 3, 55, 101
4, 6976, Note_on_c, 3, 55, 0
4, 6980, Note_on_c, 3, 46, 101
4, 7036, Note_on_c, 3, 46, 0
4, 7040, Note_on_c, 3, 48, 95
4, 7096, Note_on_c, 3, 48, 0
4, 7100, Note_on_c, 3, 50, 93
4, 7156, Note_on_c, 3, 50, 0
4, 7160, Note_on_c, 3, 46, 94
4, 7216, Note_on_c, 3, 46, 0
4, 7220, Note_on_c, 3, 43, 106
4, 7460, Note_on_c, 3, 43, 0
4, 7820, Note_on_c, 3, 54, 106
4, 7936, Note_on_c, 3, 54, 0
4, 7940, Note_on_c, 3, 55, 100
4, 8056, Note_on_c, 3, 55, 0
4, 8060, Note_on_c, 3, 57, 90
4, 8176, Note_on_c, 3, 57, 0
4, 8180, Note_on_c, 3, 58, 102
4, 8416, Note_on_c, 3, 58, 0
4, 8420, Note_on_c, 3, 57, 97
4, 8656, Note_on_c, 3, 57, 0
4, 8660, Note_on_c, 3, 55, 98
4, 8776, Note_on_c, 3, 55, 0
4, 8780, Note_on_c, 3, 54, 110
4, 9016, Note_on_c, 3, 54, 0
4, 9020, Note_on_c, 3, 52, 97
4, 9136, Note_on_c, 3, 52, 0
4, 9140, Note_on_c, 3, 54, 97
4, 9196, Note_on_c, 3, 54, 0
4, 9200, Note_on_c, 3, 57, 92
4, 9256, Note_on_c, 3, 57, 0
4, 9260, Note_on_c, 3, 55, 97
4, 9496, Note_on_c, 3, 55, 0
4, 9500, Note_on_c, 3, 54, 99
4, 9616, Note_on_c, 3, 54, 0
4, 9620, Note_on_c, 3, 55, 93
4, 9736, Note_on_c, 3, 55, 0
4, 9740, Note_on_c, 3, 57, 88
4, 9856, Note_on_c, 3, 57, 0
4, 9860, Note_on_c, 3, 58, 97
4, 9976, Note_on_c, 3, 58, 0
4, 9980, Note_on_c, 3, 57, 97
4, 10096, Note_on_c, 3, 57, 0
4, 10100, Note_on_c, 3, 55, 84
4, 10156, Note_on_c, 3, 55, 0
4, 10160, Note_on_c, 3, 57, 78
4, 10216, Note_on_c, 3, 57, 0
4, 10220, Note_on_c, 3, 55, 86
4, 10336, Note_on_c, 3, 55, 0
4, 10340, Note_on_c, 3, 53, 85
4, 10396, Note_on_c, 3, 53, 0
4, 10400, Note_on_c, 3, 55, 90
4, 10456, Note_on_c, 3, 55, 0
4, 10460, Note_on_c, 3, 53, 84
4, 10576, Note_on_c, 3, 53, 0
4, 10580, Note_on_c, 3, 52, 88
4, 10696, Note_on_c, 3, 52, 0
4, 10700, Note_on_c, 3, 53, 97
4, 10816, Note_on_c, 3, 53, 0
4, 10820, Note_on_c, 3, 55, 85
4, 10936, Note_on_c, 3, 55, 0
4, 10940, Note_on_c, 3, 52, 89
4, 11056, Note_on_c, 3, 52, 0
4, 11060, Note_on_c, 3, 49, 93
4, 11176, Note_on_c, 3, 49, 0
4, 11180, Note_on_c, 3, 50, 84
4, 11296, Note_on_c, 3, 50, 0
4, 11300, Note_on_c, 3, 52, 102
4, 11416, Note_on_c, 3, 52, 0
4, 11420, Note_on_c, 3, 49, 97
4, 11536, Note_on_c, 3, 49, 0
4, 11540, Note_on_c, 3, 53, 101
4, 11596, Note_on_c, 3, 53, 0
4, 11600, Note_on_c, 3, 52, 100
4, 11656, Note_on_c, 3, 52, 0
4, 11660, Note_on_c, 3, 50, 107
4, 11776, Note_on_c, 3, 50, 0
4, 11780, Note_on_c, 3, 55, 115
4, 12260, Note_on_c, 3, 55, 0
4, 12260, Note_on_c, 3, 54, 112
4, 12496, Note_on_c, 3, 54, 0
4, 12500, Note_on_c, 3, 58, 96
4, 12736, Note_on_c, 3, 58, 0
4, 12740, Note_on_c, 3, 52, 102
4, 12976, Note_on_c, 3, 52, 0
4, 12980, Note_on_c, 3, 57, 104
4, 13216, Note_on_c, 3, 57, 0
4, 13220, Note_on_c, 3, 49, 110
4, 13456, Note_on_c, 3, 49, 0
4, 13460, Note_on_c, 3, 50, 109
4, 13696, Note_on_c, 3, 50, 0
4, 13700, Note_on_c, 3, 53, 96
4, 13816, Note_on_c, 3, 53, 0
4, 13820, Note_on_c, 3, 52, 101
4, 13936, Note_on_c, 3, 52, 0
4, 13940, Note_on_c, 3, 53, 100
4, 14176, Note_on_c, 3, 53, 0
4, 14180, Note_on_c, 3, 57, 104
4, 14416, Note_on_c, 3, 57, 0
4, 14420, Note_on_c, 3, 62, 104
4, 14536, Note_on_c, 3, 62, 0
4, 14540, Note_on_c, 3, 60, 97
4, 14596, Note_on_c, 3, 60, 0
4, 14600, Note_on_c, 3, 58, 98
4, 14660, Note_on_c, 3, 58, 0
4, 14660, Note_on_c, 3, 57, 73
4, 14716, Note_on_c, 3, 57, 0
4, 14720, Note_on_c, 3, 55, 64
4, 14776, Note_on_c, 3, 55, 0
4, 14780, Note_on_c, 3, 57, 76
4, 14896, Note_on_c, 3, 57, 0
4, 14900, Note_on_c, 3, 50, 98
4, 15136, Note_on_c, 3, 50, 0
4, 15380, Note_on_c, 3, 55, 109
4, 15616, Note_on_c, 3, 55, 0
4, 15620, Note_on_c, 3, 43, 96
4, 15856, Note_on_c, 3, 43, 0
4, 16100, Note_on_c, 3, 55, 98
4, 16460, Note_on_c, 3, 55, 0
4, 16460, Note_on_c, 3, 54, 89
4, 16516, Note_on_c, 3, 54, 0
4, 16520, Note_on_c, 3, 52, 93
4, 16576, Note_on_c, 3, 52, 0
4, 16580, Note_on_c, 3, 54, 90
4, 16936, Note_on_c, 3, 54, 0
4, 17060, Note_on_c, 3, 50, 90
4, 17296, Note_on_c, 3, 50, 0
4, 17300, Note_on_c, 3, 51, 101
4, 17536, Note_on_c, 3, 51, 0
4, 17540, Note_on_c, 3, 52, 96
4, 17780, Note_on_c, 3, 52, 0
4, 18020, Note_on_c, 3, 63, 106
4, 18256, Note_on_c, 3, 63, 0
4, 18260, Note_on_c, 3, 62, 86
4, 18376, Note_on_c, 3, 62, 0
4, 18380, Note_on_c, 3, 61, 101
4, 18496, Note_on_c, 3, 61, 0
4, 18500, Note_on_c, 3, 62, 98
4, 18740, Note_on_c, 3, 62, 0
4, 18860, Note_on_c, 3, 60, 89
4, 18976, Note_on_c, 3, 60, 0
4, 18980, Note_on_c, 3, 58, 88
4, 19096, Note_on_c, 3, 58, 0
4, 19100, Note_on_c, 3, 57, 95
4, 19216, Note_on_c, 3, 57, 0
4, 19220, Note_on_c, 3, 55, 84
4, 19280, Note_on_c, 3, 55, 0
4, 19280, Note_on_c, 3, 54, 86
4, 19336, Note_on_c, 3, 54, 0
4, 19340, Note_on_c, 3, 55, 98
4, 19456, Note_on_c, 3, 55, 0
4, 19460, Note_on_c, 3, 48, 95
4, 19576, Note_on_c, 3, 48, 0
4, 19580, Note_on_c, 3, 55, 93
4, 19696, Note_on_c, 3, 55, 0
4, 19700, Note_on_c, 3, 60, 106
4, 19820, Note_on_c, 3, 60, 0
4, 19820, Note_on_c, 3, 54, 101
4, 19880, Note_on_c, 3, 54, 0
4, 19940, Note_on_c, 3, 54, 92
4, 20060, Note_on_c, 3, 54, 0
4, 20060, Note_on_c, 3, 55, 93
4, 20116, Note_on_c, 3, 55, 0
4, 20180, Note_on_c, 3, 55, 92
4, 20296, Note_on_c, 3, 55, 0
4, 20300, Note_on_c, 3, 54, 90
4, 20416, Note_on_c, 3, 54, 0
4, 20420, Note_on_c, 3, 55, 97
4, 20536, Note_on_c, 3, 55, 0
4, 20540, Note_on_c, 3, 57, 95
4, 20656, Note_on_c, 3, 57, 0
4, 20660, Note_on_c, 3, 50, 97
4, 20896, Note_on_c, 3, 50, 0
4, 20900, Note_on_c, 3, 51, 115
4, 21136, Note_on_c, 3, 51, 0
4, 21140, Note_on_c, 3, 46, 119
4, 21376, Note_on_c, 3, 46, 0
4, 21380, Note_on_c, 3, 58, 110
4, 21496, Note_on_c, 3, 58, 0
4, 21500, Note_on_c, 3, 60, 106
4, 21616, Note_on_c, 3, 60, 0
4, 21620, Note_on_c, 3, 62, 85
4, 21856, Note_on_c, 3, 62, 0
4, 21860, Note_on_c, 3, 62, 104
4, 22096, Note_on_c, 3, 62, 0
4, 22100, Note_on_c, 3, 55, 101
4, 22336, Note_on_c, 3, 55, 0
4, 22340, Note_on_c, 3, 46, 101
4, 22396, Note_on_c, 3, 46, 0
4, 22400, Note_on_c, 3, 48, 95
4, 22456, Note_on_c, 3, 48, 0
4, 22460, Note_on_c, 3, 50, 93
4, 22516, Note_on_c, 3, 50, 0
4, 22520, Note_on_c, 3, 46, 94
4, 22576, Note_on_c, 3, 46, 0
4, 22580, Note_on_c, 3, 43, 106
4, 22820, Note_on_c, 3, 43, 0
4, 23180, Note_on_c, 3, 54, 106
4, 23296, Note_on_c, 3, 54, 0
4, 23300, Note_on_c, 3, 55, 100
4, 23416, Note_on_c, 3, 55, 0
4, 23420, Note_on_c, 3, 57, 90
4, 23536, Note_on_c, 3, 57, 0
4, 23540, Note_on_c, 3, 58, 102
4, 23776, Note_on_c, 3, 58, 0
4, 23780, Note_on_c, 3, 57, 97
4, 24016, Note_on_c, 3, 57, 0
4, 24020, Note_on_c, 3, 55, 98
4, 24136, Note_on_c, 3, 55, 0
4, 24140, Note_on_c, 3, 54, 110
4, 24376, Note_on_c, 3, 54, 0
4, 24380, Note_on_c, 3, 52, 97
4, 24496, Note_on_c, 3, 52, 0
4, 24500, Note_on_c, 3, 54, 97
4, 24556, Note_on_c, 3, 54, 0
4, 24560, Note_on_c, 3, 57, 92
4, 24616, Note_on_c, 3, 57, 0
4, 24620, Note_on_c, 3, 55, 97
4, 24856, Note_on_c, 3, 55, 0
4, 24860, Note_on_c, 3, 54, 99
4, 24976, Note_on_c, 3, 54, 0
4, 24980, Note_on_c, 3, 55, 93
4, 25096, Note_on_c, 3, 55, 0
4, 25100, Note_on_c, 3, 57, 88
4, 25216, Note_on_c, 3, 57, 0
4, 25220, Note_on_c, 3, 58, 97
4, 25336, Note_on_c, 3, 58, 0
4, 25340, Note_on_c, 3, 57, 97
4, 25456, Note_on_c, 3, 57, 0
4, 25460, Note_on_c, 3, 55, 84
4, 25516, Note_on_c, 3, 55, 0
4, 25520, Note_on_c, 3, 57, 78
4, 25576, Note_on_c, 3, 57, 0
4, 25580, Note_on_c, 3, 55, 86
4, 25696, Note_on_c, 3, 55, 0
4, 25700, Note_on_c, 3, 53, 85
4, 25756, Note_on_c, 3, 53, 0
4, 25760, Note_on_c, 3, 55, 90
4, 25816, Note_on_c, 3, 55, 0
4, 25820, Note_on_c, 3, 53, 84
4, 25936, Note_on_c, 3, 53, 0
4, 25940, Note_on_c, 3, 52, 88
4, 26056, Note_on_c, 3, 52, 0
4, 26060, Note_on_c, 3, 53, 97
4, 26176, Note_on_c, 3, 53, 0
4, 26180, Note_on_c, 3, 55, 85
4, 26296, Note_on_c, 3, 55, 0
4, 26300, Note_on_c, 3, 52, 89
4, 26416, Note_on_c, 3, 52, 0
4, 26420, Note_on_c, 3, 49, 93
4, 26536, Note_on_c, 3, 49, 0
4, 26540, Note_on_c, 3, 50, 84
4, 26656, Note_on_c, 3, 50, 0
4, 26660, Note_on_c, 3, 52, 102
4, 26776, Note_on_c, 3, 52, 0
4, 26780, Note_on_c, 3, 49, 97
4, 26896, Note_on_c, 3, 49, 0
4, 26900, Note_on_c, 3, 53, 101
4, 26956, Note_on_c, 3, 53, 0
4, 26960, Note_on_c, 3, 52, 100
4, 27016, Note_on_c, 3, 52, 0
4, 27020, Note_on_c, 3, 50, 107
4, 27136, Note_on_c, 3, 50, 0
4, 27140, Note_on_c, 3, 55, 115
4, 27620, Note_on_c, 3, 55, 0
4, 27620, Note_on_c, 3, 54, 112
4, 27856, Note_on_c, 3, 54, 0
4, 27860, Note_on_c, 3, 58, 96
4, 28096, Note_on_c, 3, 58, 0
4, 28100, Note_on_c, 3, 52, 102
4, 28336, Note_on_c, 3, 52, 0
4, 28340, Note_on_c, 3, 57, 104
4, 28576, Note_on_c, 3, 57, 0
4, 28580, Note_on_c, 3, 49, 110
4, 28816, Note_on_c, 3, 49, 0
4, 28820, Note_on_c, 3, 50, 109
4, 29056, Note_on_c, 3, 50, 0
4, 29060, Note_on_c, 3, 53, 96
4, 29176, Note_on_c, 3, 53, 0
4, 29180, Note_on_c, 3, 52, 101
4, 29296, Note_on_c, 3, 52, 0
4, 29300, Note_on_c, 3, 53, 100
4, 29536, Note_on_c, 3, 53, 0
4, 29540, Note_on_c, 3, 57, 104
4, 29776, Note_on_c, 3, 57, 0
4, 29780, Note_on_c, 3, 62, 104
4, 29896, Note_on_c, 3, 62, 0
4, 29900, Note_on_c, 3, 60, 97
4, 29956, Note_on_c, 3, 60, 0
4, 29960, Note_on_c, 3, 58, 98
4, 30020, Note_on_c, 3, 58, 0
4, 30020, Note_on_c, 3, 57, 73
4, 30076, Note_on_c, 3, 57, 0
4, 30080, Note_on_c, 3, 55, 64
4, 30136, Note_on_c, 3, 55, 0
4, 30140, Note_on_c, 3, 57, 76
4, 30256, Note_on_c, 3, 57, 0
4, 30260, Note_on_c, 3, 50, 98
4, 30496, Note_on_c, 3, 50, 0
4, 30740, Note_on_c, 3, 50, 100
4, 30856, Note_on_c, 3, 50, 0
4, 30860, Note_on_c, 3, 63, 99
4, 30916, Note_on_c, 3, 63, 0
4, 30980, Note_on_c, 3, 63, 102
4, 31096, Note_on_c, 3, 63, 0
4, 31100, Note_on_c, 3, 62, 96
4, 31156, Note_on_c, 3, 62, 0
4, 31220, Note_on_c, 3, 62, 81
4, 31336, Note_on_c, 3, 62, 0
4, 31340, Note_on_c, 3, 60, 81
4, 31396, Note_on_c, 3, 60, 0
4, 31460, Note_on_c, 3, 60, 77
4, 31576, Note_on_c, 3, 60, 0
4, 31580, Note_on_c, 3, 58, 71
4, 31636, Note_on_c, 3, 58, 0
4, 31700, Note_on_c, 3, 58, 81
4, 31816, Note_on_c, 3, 58, 0
4, 31820, Note_on_c, 3, 54, 86
4, 31876, Note_on_c, 3, 54, 0
4, 31940, Note_on_c, 3, 54, 86
4, 32056, Note_on_c, 3, 54, 0
4, 32060, Note_on_c, 3, 55, 80
4, 32116, Note_on_c, 3, 55, 0
4, 32180, Note_on_c, 3, 55, 90
4, 32296, Note_on_c, 3, 55, 0
4, 32300, Note_on_c, 3, 50, 82
4, 32416, Note_on_c, 3, 50, 0
4, 32420, Note_on_c, 3, 50, 90
4, 32776, Note_on_c, 3, 50, 0
4, 32780, Note_on_c, 3, 48, 95
4, 32836, Note_on_c, 3, 48, 0
4, 32840, Note_on_c, 3, 46, 84
4, 32896, Note_on_c, 3, 46, 0
4, 32900, Note_on_c, 3, 48, 93
4, 33016, Note_on_c, 3, 48, 0
4, 33020, Note_on_c, 3, 41, 84
4, 33136, Note_on_c, 3, 41, 0
4, 33140, Note_on_c, 3, 53, 84
4, 33256, Note_on_c, 3, 53, 0
4, 33260, Note_on_c, 3, 46, 76
4, 33376, Note_on_c, 3, 46, 0
4, 33380, Note_on_c, 3, 51, 85
4, 33736, Note_on_c, 3, 51, 0
4, 33740, Note_on_c, 3, 50, 85
4, 33796, Note_on_c, 3, 50, 0
4, 33800, Note_on_c, 3, 48, 73
4, 33856, Note_on_c, 3, 48, 0
4, 33860, Note_on_c, 3, 50, 89
4, 33916, Note_on_c, 3, 50, 0
4, 33920, Note_on_c, 3, 48, 75
4, 33976, Note_on_c, 3, 48, 0
4, 33980, Note_on_c, 3, 46, 81
4, 34096, Note_on_c, 3, 46, 0
4, 34100, Note_on_c, 3, 51, 101
4, 34216, Note_on_c, 3, 51, 0
4, 34220, Note_on_c, 3, 43, 83
4, 34336, Note_on_c, 3, 43, 0
4, 34340, Note_on_c, 3, 44, 89
4, 34456, Note_on_c, 3, 44, 0
4, 34460, Note_on_c, 3, 46, 89
4, 34576, Note_on_c, 3, 46, 0
4, 34580, Note_on_c, 3, 39, 81
4, 34696, Note_on_c, 3, 39, 0
4, 34700, Note_on_c, 3, 43, 86
4, 34816, Note_on_c, 3, 43, 0
4, 34820, Note_on_c, 3, 48, 92
4, 34936, Note_on_c, 3, 48, 0
4, 34940, Note_on_c, 3, 46, 84
4, 35056, Note_on_c, 3, 46, 0
4, 35060, Note_on_c, 3, 44, 84
4, 35176, Note_on_c, 3, 44, 0
4, 35180, Note_on_c, 3, 43, 98
4, 35296, Note_on_c, 3, 43, 0
4, 35300, Note_on_c, 3, 44, 84
4, 35660, Note_on_c, 3, 44, 0
4, 35660, Note_on_c, 3, 56, 93
4, 35776, Note_on_c, 3, 56, 0
4, 35780, Note_on_c, 3, 58, 96
4, 35896, Note_on_c, 3, 58, 0
4, 35900, Note_on_c, 3, 56, 90
4, 36016, Note_on_c, 3, 56, 0
4, 36020, Note_on_c, 3, 55, 85
4, 36136, Note_on_c, 3, 55, 0
4, 36140, Note_on_c, 3, 53, 80
4, 36256, Note_on_c, 3, 53, 0
4, 36260, Note_on_c, 3, 51, 81
4, 36376, Note_on_c, 3, 51, 0
4, 36380, Note_on_c, 3, 53, 88
4, 36496, Note_on_c, 3, 53, 0
4, 36500, Note_on_c, 3, 55, 92
4, 36616, Note_on_c, 3, 55, 0
4, 36620, Note_on_c, 3, 56, 84
4, 36736, Note_on_c, 3, 56, 0
4, 36740, Note_on_c, 3, 58, 89
4, 36976, Note_on_c, 3, 58, 0
4, 36980, Note_on_c, 3, 46, 86
4, 37336, Note_on_c, 3, 46, 0
4, 37340, Note_on_c, 3, 56, 89
4, 37456, Note_on_c, 3, 56, 0
4, 37460, Note_on_c, 3, 55, 104
4, 37576, Note_on_c, 3, 55, 0
4, 37580, Note_on_c, 3, 53, 97
4, 37636, Note_on_c, 3, 53, 0
4, 37700, Note_on_c, 3, 53, 86
4, 37816, Note_on_c, 3, 53, 0
4, 37820, Note_on_c, 3, 51, 93
4, 37936, Note_on_c, 3, 51, 0
4, 37940, Note_on_c, 3, 53, 101
4, 38056, Note_on_c, 3, 53, 0
4, 38060, Note_on_c, 3, 55, 93
4, 38116, Note_on_c, 3, 55, 0
4, 38180, Note_on_c, 3, 55, 90
4, 38296, Note_on_c, 3, 55, 0
4, 38300, Note_on_c, 3, 56, 82
4, 38416, Note_on_c, 3, 56, 0
4, 38420, Note_on_c, 3, 48, 97
4, 38656, Note_on_c, 3, 48, 0
4, 38660, Note_on_c, 3, 47, 96
4, 38896, Note_on_c, 3, 47, 0
4, 39020, Note_on_c, 3, 45, 92
4, 39136, Note_on_c, 3, 45, 0
4, 39140, Note_on_c, 3, 47, 86
4, 39256, Note_on_c, 3, 47, 0
4, 39260, Note_on_c, 3, 43, 92
4, 39376, Note_on_c, 3, 43, 0
4, 39380, Note_on_c, 3, 48, 96
4, 39620, Note_on_c, 3, 48, 0
4, 39620, Note_on_c, 3, 60, 96
4, 39860, Note_on_c, 3, 60, 0
4, 40100, Note_on_c, 3, 48, 97
4, 40456, Note_on_c, 3, 48, 0
4, 40460, Note_on_c, 3, 62, 89
4, 40576, Note_on_c, 3, 62, 0
4, 40580, Note_on_c, 3, 63, 93
4, 40696, Note_on_c, 3, 63, 0
4, 40700, Note_on_c, 3, 62, 104
4, 40816, Note_on_c, 3, 62, 0
4, 40820, Note_on_c, 3, 57, 84
4, 40936, Note_on_c, 3, 57, 0
4, 40940, Note_on_c, 3, 58, 90
4, 41056, Note_on_c, 3, 58, 0
4, 41060, Note_on_c, 3, 60, 88
4, 41176, Note_on_c, 3, 60, 0
4, 41180, Note_on_c, 3, 55, 84
4, 41296, Note_on_c, 3, 55, 0
4, 41300, Note_on_c, 3, 55, 90
4, 41536, Note_on_c, 3, 55, 0
4, 41540, Note_on_c, 3, 54, 97
4, 41656, Note_on_c, 3, 54, 0
4, 41660, Note_on_c, 3, 55, 93
4, 41776, Note_on_c, 3, 55, 0
4, 41780, Note_on_c, 3, 57, 93
4, 41896, Note_on_c, 3, 57, 0
4, 41900, Note_on_c, 3, 58, 88
4, 41956, Note_on_c, 3, 58, 0
4, 41960, Note_on_c, 3, 60, 78
4, 42016, Note_on_c, 3, 60, 0
4, 42020, Note_on_c, 3, 62, 80
4, 42076, Note_on_c, 3, 62, 0
4, 42080, Note_on_c, 3, 63, 84
4, 42136, Note_on_c, 3, 63, 0
4, 42140, Note_on_c, 3, 60, 96
4, 42260, Note_on_c, 3, 60, 0
4, 42260, Note_on_c, 3, 58, 99
4, 42316, Note_on_c, 3, 58, 0
4, 42320, Note_on_c, 3, 62, 92
4, 42376, Note_on_c, 3, 62, 0
4, 42380, Note_on_c, 3, 60, 95
4, 42496, Note_on_c, 3, 60, 0
4, 42500, Note_on_c, 3, 58, 77
4, 42556, Note_on_c, 3, 58, 0
4, 42560, Note_on_c, 3, 60, 74
4, 42616, Note_on_c, 3, 60, 0
4, 42620, Note_on_c, 3, 57, 76
4, 42736, Note_on_c, 3, 57, 0
4, 42740, Note_on_c, 3, 55, 73
4, 42796, Note_on_c, 3, 55, 0
4, 42800, Note_on_c, 3, 57, 74
4, 42856, Note_on_c, 3, 57, 0
4, 42860, Note_on_c, 3, 53, 78
4, 42980, Note_on_c, 3, 53, 0
4, 42980, Note_on_c, 3, 51, 90
4, 43036, Note_on_c, 3, 51, 0
4, 43040, Note_on_c, 3, 53, 92
4, 43096, Note_on_c, 3, 53, 0
4, 43100, Note_on_c, 3, 50, 68
4, 43216, Note_on_c, 3, 50, 0
4, 43220, Note_on_c, 3, 48, 93
4, 43336, Note_on_c, 3, 48, 0
4, 43340, Note_on_c, 3, 51, 93
4, 43396, Note_on_c, 3, 51, 0
4, 43400, Note_on_c, 3, 50, 86
4, 43456, Note_on_c, 3, 50, 0
4, 43460, Note_on_c, 3, 51, 86
4, 43576, Note_on_c, 3, 51, 0
4, 43580, Note_on_c, 3, 42, 108
4, 43696, Note_on_c, 3, 42, 0
4, 43700, Note_on_c, 3, 43, 106
4, 43940, Note_on_c, 3, 43, 0
4, 44060, Note_on_c, 3, 48, 95
4, 44176, Note_on_c, 3, 48, 0
4, 44180, Note_on_c, 3, 50, 91
4, 44420, Note_on_c, 3, 50, 0
4, 44540, Note_on_c, 3, 51, 94
4, 44656, Note_on_c, 3, 51, 0
4, 44660, Note_on_c, 3, 48, 98
4, 44896, Note_on_c, 3, 48, 0
4, 44900, Note_on_c, 3, 50, 91
4, 45136, Note_on_c, 3, 50, 0
4, 45140, Note_on_c, 3, 55, 85
4, 45256, Note_on_c, 3, 55, 0
4, 45260, Note_on_c, 3, 50, 86
4, 45316, Note_on_c, 3, 50, 0
4, 45320, Note_on_c, 3, 48, 76
4, 45376, Note_on_c, 3, 48, 0
4, 45380, Note_on_c, 3, 46, 70
4, 45436, Note_on_c, 3, 46, 0
4, 45440, Note_on_c, 3, 48, 86
4, 45496, Note_on_c, 3, 48, 0
4, 45500, Note_on_c, 3, 45, 81
4, 45616, Note_on_c, 3, 45, 0
4, 45620, Note_on_c, 3, 43, 82
4, 46100, Note_on_c, 3, 43, 0
4, 46100, Note_on_c, 3, 50, 100
4, 46216, Note_on_c, 3, 50, 0
4, 46220, Note_on_c, 3, 63, 99
4, 46276, Note_on_c, 3, 63, 0
4, 46340, Note_on_c, 3, 63, 102
4, 46456, Note_on_c, 3, 63, 0
4, 46460, Note_on_c, 3, 62, 96
4, 46516, Note_on_c, 3, 62, 0
4, 46580, Note_on_c, 3, 62, 81
4, 46696, Note_on_c, 3, 62, 0
4, 46700, Note_on_c, 3, 60, 81
4, 46756, Note_on_c, 3, 60, 0
4, 46820, Note_on_c, 3, 60, 77
4, 46936, Note_on_c, 3, 60, 0
4, 46940, Note_on_c, 3, 58, 71
4, 46996, Note_on_c, 3, 58, 0
4, 47060, Note_on_c, 3, 58, 81
4, 47176, Note_on_c, 3, 58, 0
4, 47180, Note_on_c, 3, 54, 86
4, 47236, Note_on_c, 3, 54, 0
4, 47300, Note_on_c, 3, 54, 86
4, 47416, Note_on_c, 3, 54, 0
4, 47420, Note_on_c, 3, 55, 80
4, 47476, Note_on_c, 3, 55, 0
4, 47540, Note_on_c, 3, 55, 90
4, 47656, Note_on_c, 3, 55, 0
4, 47660, Note_on_c, 3, 50, 82
4, 47776, Note_on_c, 3, 50, 0
4, 47780, Note_on_c, 3, 50, 90
4, 48136, Note_on_c, 3, 50, 0
4, 48140, Note_on_c, 3, 48, 95
4, 48196, Note_on_c, 3, 48, 0
4, 48200, Note_on_c, 3, 46, 84
4, 48256, Note_on_c, 3, 46, 0
4, 48260, Note_on_c, 3, 48, 93
4, 48376, Note_on_c, 3, 48, 0
4, 48380, Note_on_c, 3, 41, 84
4, 48496, Note_on_c, 3, 41, 0
4, 48500, Note_on_c, 3, 53, 84
4, 48616, Note_on_c, 3, 53, 0
4, 48620, Note_on_c, 3, 46, 76
4, 48736, Note_on_c, 3, 46, 0
4, 48740, Note_on_c, 3, 51, 85
4, 49096, Note_on_c, 3, 51, 0
4, 49100, Note_on_c, 3, 50, 85
4, 49156, Note_on_c, 3, 50, 0
4, 49160, Note_on_c, 3, 48, 73
4, 49216, Note_on_c, 3, 48, 0
4, 49220, Note_on_c, 3, 50, 89
4, 49276, Note_on_c, 3, 50, 0
4, 49280, Note_on_c, 3, 48, 75
4, 49336, Note_on_c, 3, 48, 0
4, 49340, Note_on_c, 3, 46, 81
4, 49456, Note_on_c, 3, 46, 0
4, 49460, Note_on_c, 3, 51, 101
4, 49576, Note_on_c, 3, 51, 0
4, 49580, Note_on_c, 3, 43, 83
4, 49696, Note_on_c, 3, 43, 0
4, 49700, Note_on_c, 3, 44, 89
4, 49816, Note_on_c, 3, 44, 0
4, 49820, Note_on_c, 3, 46, 89
4, 49936, Note_on_c, 3, 46, 0
4, 49940, Note_on_c, 3, 39, 81
4, 50056, Note_on_c, 3, 39, 0
4, 50060, Note_on_c, 3, 43, 86
4, 50176, Note_on_c, 3, 43, 0
4, 50180, Note_on_c, 3, 48, 92
4, 50296, Note_on_c, 3, 48, 0
4, 50300, Note_on_c, 3, 46, 84
4, 50416, Note_on_c, 3, 46, 0
4, 50420, Note_on_c, 3, 44, 84
4, 50536, Note_on_c, 3, 44, 0
4, 50540, Note_on_c, 3, 43, 98
4, 50656, Note_on_c, 3, 43, 0
4, 50660, Note_on_c, 3, 44, 84
4, 51020, Note_on_c, 3, 44, 0
4, 51020, Note_on_c, 3, 56, 93
4, 51136, Note_on_c, 3, 56, 0
4, 51140, Note_on_c, 3, 58, 96
4, 51256, Note_on_c, 3, 58, 0
4, 51260, Note_on_c, 3, 56, 90
4, 51376, Note_on_c, 3, 56, 0
4, 51380, Note_on_c, 3, 55, 85
4, 51496, Note_on_c, 3, 55, 0
4, 51500, Note_on_c, 3, 53, 80
4, 51616, Note_on_c, 3, 53, 0
4, 51620, Note_on_c, 3, 51, 81
4, 51736, Note_on_c, 3, 51, 0
4, 51740, Note_on_c, 3, 53, 88
4, 51856, Note_on_c, 3, 53, 0
4, 51860, Note_on_c, 3, 55, 92
4, 51976, Note_on_c, 3, 55, 0
4, 51980, Note_on_c, 3, 56, 84
4, 52096, Note_on_c, 3, 56, 0
4, 52100, Note_on_c, 3, 58, 89
4, 52336, Note_on_c, 3, 58, 0
4, 52340, Note_on_c, 3, 46, 86
4, 52696, Note_on_c, 3, 46, 0
4, 52700, Note_on_c, 3, 56, 89
4, 52816, Note_on_c, 3, 56, 0
4, 52820, Note_on_c, 3, 55, 104
4, 52936, Note_on_c, 3, 55, 0
4, 52940, Note_on_c, 3, 53, 97
4, 52996, Note_on_c, 3, 53, 0
4, 53060, Note_on_c, 3, 53, 86
4, 53176, Note_on_c, 3, 53, 0
4, 53180, Note_on_c, 3, 51, 93
4, 53296, Note_on_c, 3, 51, 0
4, 53300, Note_on_c, 3, 53, 101
4, 53416, Note_on_c, 3, 53, 0
4, 53420, Note_on_c, 3, 55, 93
4, 53476, Note_on_c, 3, 55, 0
4, 53540, Note_on_c, 3, 55, 90
4, 53656, Note_on_c, 3, 55, 0
4, 53660, Note_on_c, 3, 56, 82
4, 53776, Note_on_c, 3, 56, 0
4, 53780, Note_on_c, 3, 48, 97
4, 54016, Note_on_c, 3, 48, 0
4, 54020, Note_on_c, 3, 47, 96
4, 54256, Note_on_c, 3, 47, 0
4, 54380, Note_on_c, 3, 45, 92
4, 54496, Note_on_c, 3, 45, 0
4, 54500, Note_on_c, 3, 47, 86
4, 54616, Note_on_c, 3, 47, 0
4, 54620, Note_on_c, 3, 43, 92
4, 54736, Note_on_c, 3, 43, 0
4, 54740, Note_on_c, 3, 48, 96
4, 54980, Note_on_c, 3, 48, 0
4, 54980, Note_on_c, 3, 60, 96
4, 55220, Note_on_c, 3, 60, 0
4, 55460, Note_on_c, 3, 48, 97
4, 55816, Note_on_c, 3, 48, 0
4, 55820, Note_on_c, 3, 62, 89
4, 55936, Note_on_c, 3, 62, 0
4, 55940, Note_on_c, 3, 63, 93
4, 56056, Note_on_c, 3, 63, 0
4, 56060, Note_on_c, 3, 62, 104
4, 56176, Note_on_c, 3, 62, 0
4, 56180, Note_on_c, 3, 57, 84
4, 56296, Note_on_c, 3, 57, 0
4, 56300, Note_on_c, 3, 58, 90
4, 56416, Note_on_c, 3, 58, 0
4, 56420, Note_on_c, 3, 60, 88
4, 56536, Note_on_c, 3, 60, 0
4, 56540, Note_on_c, 3, 55, 84
4, 56656, Note_on_c, 3, 55, 0
4, 56660, Note_on_c, 3, 55, 90
4, 56896, Note_on_c, 3, 55, 0
4, 56900, Note_on_c, 3, 54, 97
4, 57016, Note_on_c, 3, 54, 0
4, 57020, Note_on_c, 3, 55, 93
4, 57136, Note_on_c, 3, 55, 0
4, 57140, Note_on_c, 3, 57, 93
4, 57256, Note_on_c, 3, 57, 0
4, 57260, Note_on_c, 3, 58, 88
4, 57316, Note_on_c, 3, 58, 0
4, 57320, Note_on_c, 3, 60, 78
4, 57376, Note_on_c, 3, 60, 0
4, 57380, Note_on_c, 3, 62, 80
4, 57436, Note_on_c, 3, 62, 0
4, 57440, Note_on_c, 3, 63, 84
4, 57496, Note_on_c, 3, 63, 0
4, 57500, Note_on_c, 3, 60, 96
4, 57620, Note_on_c, 3, 60, 0
4, 57620, Note_on_c, 3, 58, 99
4, 57676, Note_on_c, 3, 58, 0
4, 57680, Note_on_c, 3, 62, 92
4, 57736, Note_on_c, 3, 62, 0
4, 57740, Note_on_c, 3, 60, 95
4, 57856, Note_on_c, 3, 60, 0
4, 57860, Note_on_c, 3, 58, 77
4, 57916, Note_on_c, 3, 58, 0
4, 57920, Note_on_c, 3, 60, 74
4, 57976, Note_on_c, 3, 60, 0
4, 57980, Note_on_c, 3, 57, 76
4, 58096, Note_on_c, 3, 57, 0
4, 58100, Note_on_c, 3, 55, 73
4, 58156, Note_on_c, 3, 55, 0
4, 58160, Note_on_c, 3, 57, 74
4, 58216, Note_on_c, 3, 57, 0
4, 58220, Note_on_c, 3, 53, 78
4, 58340, Note_on_c, 3, 53, 0
4, 58340, Note_on_c, 3, 51, 90
4, 58396, Note_on_c, 3, 51, 0
4, 58400, Note_on_c, 3, 53, 92
4, 58456, Note_on_c, 3, 53, 0
4, 58460, Note_on_c, 3, 50, 68
4, 58576, Note_on_c, 3, 50, 0
4, 58580, Note_on_c, 3, 48, 93
4, 58696, Note_on_c, 3, 48, 0
4, 58700, Note_on_c, 3, 51, 93
4, 58756, Note_on_c, 3, 51, 0
4, 58760, Note_on_c, 3, 50, 86
4, 58816, Note_on_c, 3, 50, 0
4, 58820, Note_on_c, 3, 51, 86
4, 58936, Note_on_c, 3, 51, 0
4, 58940, Note_on_c, 3, 42, 108
4, 59056, Note_on_c, 3, 42, 0
4, 59060, Note_on_c, 3, 43, 106
4, 59300, Note_on_c, 3, 43, 0
4, 59420, Note_on_c, 3, 48, 95
4, 59536, Note_on_c, 3, 48, 0
4, 59540, Note_on_c, 3, 50, 91
4, 59780, Note_on_c, 3, 50, 0
4, 59900, Note_on_c, 3, 51, 94
4, 60016, Note_on_c, 3, 51, 0
4, 60020, Note_on_c, 3, 48, 98
4, 60256, Note_on_c, 3, 48, 0
4, 60260, Note_on_c, 3, 50, 91
4, 60496, Note_on_c, 3, 50, 0
4, 60500, Note_on_c, 3, 55, 85
4, 60616, Note_on_c, 3, 55, 0
4, 60620, Note_on_c, 3, 50, 86
4, 60676, Note_on_c, 3, 50, 0
4, 60680, Note_on_c, 3, 48, 76
4, 60736, Note_on_c, 3, 48, 0
4, 60740, Note_on_c, 3, 46, 70
4, 60796, Note_on_c, 3, 46, 0
4, 60800, Note_on_c, 3, 48, 86
4, 60856, Note_on_c, 3, 48, 0
4, 60860, Note_on_c, 3, 45, 81
4, 60976, Note_on_c, 3, 45, 0
4, 60980, Note_on_c, 3, 43, 82
4, 61460, Note_on_c, 3, 43, 0
4, 61920, End_track
0, 0, End_of_file
