0, 0, Header, 1, 5, 480
1, 0, Start_track
1, 0, SMPTE_offset, 96, 0, 0, 0, 0
1, 0, Time_signature, 3, 2, 24, 8
1, 4, Tempo, 6000000
1, 20, Tempo, 779220
1, 108000, End_track
2, 0, Start_track
2, 0, Title_t, "goldberg.mid"
2, 20, Note_on_c, 0, 55, 111
2, 980, Note_on_c, 0, 55, 0
2, 5780, Note_on_c, 0, 74, 102
2, 6256, Note_on_c, 0, 74, 0
2, 8780, Note_on_c, 0, 76, 102
2, 8896, Note_on_c, 0, 76, 0
2, 8900, Note_on_c, 0, 77, 102
2, 9376, Note_on_c, 0, 77, 0
2, 9380, Note_on_c, 0, 79, 104
2, 9616, Note_on_c, 0, 79, 0
2, 9620, Note_on_c, 0, 77, 98
2, 9736, Note_on_c, 0, 77, 0
2, 9740, Note_on_c, 0, 76, 100
2, 9920, Note_on_c, 0, 76, 0
2, 9920, Note_on_c, 0, 74, 91
2, 9976, Note_on_c, 0, 74, 0
2, 9980, Note_on_c, 0, 72, 84
2, 10036, Note_on_c, 0, 72, 0
2, 10040, Note_on_c, 0, 71, 85
2, 10096, Note_on_c, 0, 71, 0
2, 10100, Note_on_c, 0, 72, 102
2, 10396, Note_on_c, 0, 72, 0
2, 10400, Note_on_c, 0, 71, 106
2, 10456, Note_on_c, 0, 71, 0
2, 10460, Note_on_c, 0, 69, 75
2, 10516, Note_on_c, 0, 69, 0
2, 10520, Note_on_c, 0, 67, 95
2, 10576, Note_on_c, 0, 67, 0
2, 10580, Note_on_c, 0, 69, 109
2, 10936, Note_on_c, 0, 69, 0
2, 10940, Note_on_c, 0, 69, 96
2, 11056, Note_on_c, 0, 69, 0
2, 11060, Note_on_c, 0, 79, 106
2, 11116, Note_on_c, 0, 79, 0
2, 11120, Note_on_c, 0, 78, 106
2, 11176, Note_on_c, 0, 78, 0
2, 11180, Note_on_c, 0, 79, 107
2, 11416, Note_on_c, 0, 79, 0
2, 11420, Note_on_c, 0, 79, 111
2, 11536, Note_on_c, 0, 79, 0
2, 11600, Note_on_c, 0, 74, 93
2, 11660, Note_on_c, 0, 79, 107
2, 11840, Note_on_c, 0, 74, 0
2, 11900, Note_on_c, 0, 79, 0
2, 12080, Note_on_c, 0, 83, 84
2, 12140, Note_on_c, 0, 83, 0
2, 12140, Note_on_c, 0, 81, 96
2, 12200, Note_on_c, 0, 81, 0
2, 12200, Note_on_c, 0, 79, 100
2, 12260, Note_on_c, 0, 79, 0
2, 12260, Note_on_c, 0, 78, 106
2, 12316, Note_on_c, 0, 78, 0
2, 12320, Note_on_c, 0, 76, 88
2, 12380, Note_on_c, 0, 76, 0
2, 12380, Note_on_c, 0, 74, 88
2, 12440, Note_on_c, 0, 74, 0
2, 12440, Note_on_c, 0, 72, 75
2, 12500, Note_on_c, 0, 72, 0
2, 12500, Note_on_c, 0, 81, 107
2, 12856, Note_on_c, 0, 81, 0
2, 12860, Note_on_c, 0, 72, 109
2, 12980, Note_on_c, 0, 72, 0
2, 12980, Note_on_c, 0, 81, 104
2, 13336, Note_on_c, 0, 81, 0
2, 13340, Note_on_c, 0, 72, 109
2, 13460, Note_on_c, 0, 72, 0
2, 13460, Note_on_c, 0, 72, 113
2, 13820, Note_on_c, 0, 72, 0
2, 13820, Note_on_c, 0, 71, 102
2, 13880, Note_on_c, 0, 71, 0
2, 13880, Note_on_c, 0, 72, 95
2, 13940, Note_on_c, 0, 72, 0
2, 13940, Note_on_c, 0, 71, 106
2, 14236, Note_on_c, 0, 71, 0
2, 14240, Note_on_c, 0, 69, 96
2, 14296, Note_on_c, 0, 69, 0
2, 14300, Note_on_c, 0, 67, 74
2, 14356, Note_on_c, 0, 67, 0
2, 14360, Note_on_c, 0, 66, 90
2, 14416, Note_on_c, 0, 66, 0
2, 14420, Note_on_c, 0, 67, 75
2, 14480, Note_on_c, 0, 67, 0
2, 14540, Note_on_c, 0, 74, 95
2, 14596, Note_on_c, 0, 74, 0
2, 14660, Note_on_c, 0, 76, 97
2, 14716, Note_on_c, 0, 76, 0
2, 14780, Note_on_c, 0, 78, 96
2, 14836, Note_on_c, 0, 78, 0
2, 14900, Note_on_c, 0, 79, 97
2, 14956, Note_on_c, 0, 79, 0
2, 15020, Note_on_c, 0, 78, 96
2, 15076, Note_on_c, 0, 78, 0
2, 15140, Note_on_c, 0, 79, 96
2, 15196, Note_on_c, 0, 79, 0
2, 15260, Note_on_c, 0, 81, 98
2, 15316, Note_on_c, 0, 81, 0
2, 15380, Note_on_c, 0, 83, 109
2, 15676, Note_on_c, 0, 83, 0
2, 15680, Note_on_c, 0, 81, 62
2, 15736, Note_on_c, 0, 81, 0
2, 15740, Note_on_c, 0, 79, 66
2, 15796, Note_on_c, 0, 79, 0
2, 15800, Note_on_c, 0, 78, 71
2, 15856, Note_on_c, 0, 78, 0
2, 15860, Note_on_c, 0, 79, 74
2, 16156, Note_on_c, 0, 79, 0
2, 16160, Note_on_c, 0, 78, 85
2, 16216, Note_on_c, 0, 78, 0
2, 16220, Note_on_c, 0, 76, 43
2, 16276, Note_on_c, 0, 76, 0
2, 16280, Note_on_c, 0, 75, 45
2, 16336, Note_on_c, 0, 75, 0
2, 16340, Note_on_c, 0, 76, 89
2, 16696, Note_on_c, 0, 76, 0
2, 16700, Note_on_c, 0, 71, 80
2, 16820, Note_on_c, 0, 71, 0
2, 16820, Note_on_c, 0, 73, 101
2, 16876, Note_on_c, 0, 73, 0
2, 16880, Note_on_c, 0, 71, 101
2, 16936, Note_on_c, 0, 71, 0
2, 16940, Note_on_c, 0, 73, 92
2, 17176, Note_on_c, 0, 73, 0
2, 17180, Note_on_c, 0, 74, 85
2, 17300, Note_on_c, 0, 74, 0
2, 17300, Note_on_c, 0, 74, 106
2, 17420, Note_on_c, 0, 74, 0
2, 17420, Note_on_c, 0, 73, 97
2, 17592, Note_on_c, 0, 73, 0
2, 17600, Note_on_c, 0, 76, 80
2, 17656, Note_on_c, 0, 76, 0
2, 17660, Note_on_c, 0, 78, 86
2, 17716, Note_on_c, 0, 78, 0
2, 17720, Note_on_c, 0, 79, 86
2, 17776, Note_on_c, 0, 79, 0
2, 17780, Note_on_c, 0, 81, 69
2, 18076, Note_on_c, 0, 81, 0
2, 18140, Note_on_c, 0, 81, 98
2, 18256, Note_on_c, 0, 81, 0
2, 18260, Note_on_c, 0, 81, 111
2, 18976, Note_on_c, 0, 81, 0
2, 19040, Note_on_c, 0, 81, 93
2, 19096, Note_on_c, 0, 81, 0
2, 19100, Note_on_c, 0, 79, 83
2, 19156, Note_on_c, 0, 79, 0
2, 19160, Note_on_c, 0, 78, 94
2, 19216, Note_on_c, 0, 78, 0
2, 19220, Note_on_c, 0, 79, 113
2, 19460, Note_on_c, 0, 79, 0
2, 19520, Note_on_c, 0, 78, 97
2, 19576, Note_on_c, 0, 78, 0
2, 19580, Note_on_c, 0, 76, 76
2, 19636, Note_on_c, 0, 76, 0
2, 19640, Note_on_c, 0, 75, 76
2, 19696, Note_on_c, 0, 75, 0
2, 19700, Note_on_c, 0, 76, 101
2, 20056, Note_on_c, 0, 76, 0
2, 20060, Note_on_c, 0, 83, 115
2, 20180, Note_on_c, 0, 83, 0
2, 20180, Note_on_c, 0, 76, 102
2, 20540, Note_on_c, 0, 76, 0
2, 20540, Note_on_c, 0, 74, 102
2, 20600, Note_on_c, 0, 74, 0
2, 20600, Note_on_c, 0, 76, 102
2, 20660, Note_on_c, 0, 76, 0
2, 20660, Note_on_c, 0, 74, 102
2, 20900, Note_on_c, 0, 74, 0
2, 20900, Note_on_c, 0, 73, 95
2, 21016, Note_on_c, 0, 73, 0
2, 21020, Note_on_c, 0, 71, 95
2, 21136, Note_on_c, 0, 71, 0
2, 21140, Note_on_c, 0, 73, 106
2, 21436, Note_on_c, 0, 73, 0
2, 21440, Note_on_c, 0, 74, 88
2, 21492, Note_on_c, 0, 73, 80
2, 21500, Note_on_c, 0, 74, 0
2, 21556, Note_on_c, 0, 74, 77
2, 21572, Note_on_c, 0, 73, 0
2, 21576, Note_on_c, 0, 74, 0
2, 21620, Note_on_c, 0, 76, 91
2, 21680, Note_on_c, 0, 74, 76
2, 21708, Note_on_c, 0, 76, 0
2, 21740, Note_on_c, 0, 76, 74
2, 21744, Note_on_c, 0, 74, 0
2, 21784, Note_on_c, 0, 76, 0
2, 21800, Note_on_c, 0, 74, 86
2, 21860, Note_on_c, 0, 74, 0
2, 21860, Note_on_c, 0, 76, 72
2, 21904, Note_on_c, 0, 76, 0
2, 21940, Note_on_c, 0, 74, 76
2, 21992, Note_on_c, 0, 73, 89
2, 22004, Note_on_c, 0, 74, 0
2, 22048, Note_on_c, 0, 74, 95
2, 22060, Note_on_c, 0, 73, 0
2, 22108, Note_on_c, 0, 76, 117
2, 22116, Note_on_c, 0, 74, 0
2, 22640, Note_on_c, 0, 74, 96
2, 22656, Note_on_c, 0, 76, 0
2, 22692, Note_on_c, 0, 73, 101
2, 22708, Note_on_c, 0, 74, 0
2, 22752, Note_on_c, 0, 71, 89
2, 22764, Note_on_c, 0, 73, 0
2, 22804, Note_on_c, 0, 71, 0
2, 22808, Note_on_c, 0, 69, 80
2, 22868, Note_on_c, 0, 67, 88
2, 22872, Note_on_c, 0, 69, 0
2, 22932, Note_on_c, 0, 66, 102
2, 22948, Note_on_c, 0, 67, 0
2, 22980, Note_on_c, 0, 66, 0
2, 22984, Note_on_c, 0, 64, 95
2, 23044, Note_on_c, 0, 62, 111
2, 23048, Note_on_c, 0, 64, 0
2, 23404, Note_on_c, 0, 66, 102
2, 23412, Note_on_c, 0, 62, 0
2, 23528, Note_on_c, 0, 66, 0
2, 23532, Note_on_c, 0, 69, 106
2, 23588, Note_on_c, 0, 67, 97
2, 23592, Note_on_c, 0, 69, 0
2, 23652, Note_on_c, 0, 69, 100
2, 23664, Note_on_c, 0, 67, 0
2, 23900, Note_on_c, 0, 71, 104
2, 23908, Note_on_c, 0, 69, 0
2, 24020, Note_on_c, 0, 69, 101
2, 24020, Note_on_c, 0, 72, 101
2, 24028, Note_on_c, 0, 71, 0
2, 24500, Note_on_c, 0, 69, 0
2, 24760, Note_on_c, 0, 72, 0
2, 24808, Note_on_c, 0, 72, 104
2, 24868, Note_on_c, 0, 71, 92
2, 24888, Note_on_c, 0, 72, 0
2, 24928, Note_on_c, 0, 69, 91
2, 24940, Note_on_c, 0, 71, 0
2, 24988, Note_on_c, 0, 71, 109
2, 24996, Note_on_c, 0, 69, 0
2, 25276, Note_on_c, 0, 71, 0
2, 25280, Note_on_c, 0, 73, 86
2, 25340, Note_on_c, 0, 74, 84
2, 25368, Note_on_c, 0, 73, 0
2, 25400, Note_on_c, 0, 76, 98
2, 25404, Note_on_c, 0, 74, 0
2, 25460, Note_on_c, 0, 76, 0
2, 25460, Note_on_c, 0, 78, 77
2, 25520, Note_on_c, 0, 78, 0
2, 25520, Note_on_c, 0, 76, 95
2, 25580, Note_on_c, 0, 76, 0
2, 25580, Note_on_c, 0, 74, 86
2, 25640, Note_on_c, 0, 74, 0
2, 25640, Note_on_c, 0, 73, 86
2, 25700, Note_on_c, 0, 73, 0
2, 25700, Note_on_c, 0, 74, 86
2, 25756, Note_on_c, 0, 73, 90
2, 25760, Note_on_c, 0, 74, 0
2, 25820, Note_on_c, 0, 74, 95
2, 25828, Note_on_c, 0, 73, 0
2, 25880, Note_on_c, 0, 74, 0
2, 25880, Note_on_c, 0, 76, 91
2, 25940, Note_on_c, 0, 76, 0
2, 25940, Note_on_c, 0, 69, 72
2, 26188, Note_on_c, 0, 69, 0
2, 26244, Note_on_c, 0, 76, 102
2, 26296, Note_on_c, 0, 76, 0
2, 26304, Note_on_c, 0, 78, 97
2, 26360, Note_on_c, 0, 79, 100
2, 26368, Note_on_c, 0, 78, 0
2, 26404, Note_on_c, 0, 79, 0
2, 26424, Note_on_c, 0, 81, 117
2, 26780, Note_on_c, 0, 73, 106
2, 26792, Note_on_c, 0, 81, 0
2, 26900, Note_on_c, 0, 73, 0
2, 26900, Note_on_c, 0, 74, 109
2, 27140, Note_on_c, 0, 74, 0
2, 27200, Note_on_c, 0, 76, 92
2, 27260, Note_on_c, 0, 74, 92
2, 27276, Note_on_c, 0, 76, 0
2, 27316, Note_on_c, 0, 74, 0
2, 27320, Note_on_c, 0, 73, 93
2, 27380, Note_on_c, 0, 74, 92
2, 27388, Note_on_c, 0, 73, 0
2, 27620, Note_on_c, 0, 74, 0
2, 27620, Note_on_c, 0, 76, 102
2, 27860, Note_on_c, 0, 76, 0
2, 27860, Note_on_c, 0, 78, 96
2, 27920, Note_on_c, 0, 78, 0
2, 27920, Note_on_c, 0, 76, 89
2, 27980, Note_on_c, 0, 76, 0
2, 27980, Note_on_c, 0, 78, 84
2, 28040, Note_on_c, 0, 78, 0
2, 28040, Note_on_c, 0, 76, 101
2, 28100, Note_on_c, 0, 76, 0
2, 28100, Note_on_c, 0, 78, 104
2, 28160, Note_on_c, 0, 78, 0
2, 28160, Note_on_c, 0, 76, 82
2, 28220, Note_on_c, 0, 76, 0
2, 28220, Note_on_c, 0, 78, 104
2, 28280, Note_on_c, 0, 78, 0
2, 28280, Note_on_c, 0, 76, 104
2, 28340, Note_on_c, 0, 76, 0
2, 28340, Note_on_c, 0, 78, 98
2, 28400, Note_on_c, 0, 78, 0
2, 28400, Note_on_c, 0, 76, 98
2, 28460, Note_on_c, 0, 76, 0
2, 28460, Note_on_c, 0, 78, 98
2, 28520, Note_on_c, 0, 78, 0
2, 28520, Note_on_c, 0, 76, 98
2, 28580, Note_on_c, 0, 76, 0
2, 28580, Note_on_c, 0, 74, 98
2, 28820, Note_on_c, 0, 74, 0
2, 28820, Note_on_c, 0, 74, 98
2, 30740, Note_on_c, 0, 74, 0
2, 30740, Note_on_c, 0, 55, 111
2, 31700, Note_on_c, 0, 55, 0
2, 36500, Note_on_c, 0, 74, 102
2, 36976, Note_on_c, 0, 74, 0
2, 39500, Note_on_c, 0, 76, 102
2, 39616, Note_on_c, 0, 76, 0
2, 39620, Note_on_c, 0, 77, 102
2, 40096, Note_on_c, 0, 77, 0
2, 40100, Note_on_c, 0, 79, 104
2, 40336, Note_on_c, 0, 79, 0
2, 40340, Note_on_c, 0, 77, 98
2, 40456, Note_on_c, 0, 77, 0
2, 40460, Note_on_c, 0, 76, 100
2, 40640, Note_on_c, 0, 76, 0
2, 40640, Note_on_c, 0, 74, 91
2, 40696, Note_on_c, 0, 74, 0
2, 40700, Note_on_c, 0, 72, 84
2, 40756, Note_on_c, 0, 72, 0
2, 40760, Note_on_c, 0, 71, 85
2, 40816, Note_on_c, 0, 71, 0
2, 40820, Note_on_c, 0, 72, 102
2, 41116, Note_on_c, 0, 72, 0
2, 41120, Note_on_c, 0, 71, 106
2, 41176, Note_on_c, 0, 71, 0
2, 41180, Note_on_c, 0, 69, 75
2, 41236, Note_on_c, 0, 69, 0
2, 41240, Note_on_c, 0, 67, 95
2, 41296, Note_on_c, 0, 67, 0
2, 41300, Note_on_c, 0, 69, 109
2, 41656, Note_on_c, 0, 69, 0
2, 41660, Note_on_c, 0, 69, 96
2, 41776, Note_on_c, 0, 69, 0
2, 41780, Note_on_c, 0, 79, 106
2, 41836, Note_on_c, 0, 79, 0
2, 41840, Note_on_c, 0, 78, 106
2, 41896, Note_on_c, 0, 78, 0
2, 41900, Note_on_c, 0, 79, 107
2, 42136, Note_on_c, 0, 79, 0
2, 42140, Note_on_c, 0, 79, 111
2, 42256, Note_on_c, 0, 79, 0
2, 42320, Note_on_c, 0, 74, 93
2, 42380, Note_on_c, 0, 79, 107
2, 42560, Note_on_c, 0, 74, 0
2, 42620, Note_on_c, 0, 79, 0
2, 42800, Note_on_c, 0, 83, 84
2, 42860, Note_on_c, 0, 83, 0
2, 42860, Note_on_c, 0, 81, 96
2, 42920, Note_on_c, 0, 81, 0
2, 42920, Note_on_c, 0, 79, 100
2, 42980, Note_on_c, 0, 79, 0
2, 42980, Note_on_c, 0, 78, 106
2, 43036, Note_on_c, 0, 78, 0
2, 43040, Note_on_c, 0, 76, 88
2, 43100, Note_on_c, 0, 76, 0
2, 43100, Note_on_c, 0, 74, 88
2, 43160, Note_on_c, 0, 74, 0
2, 43160, Note_on_c, 0, 72, 75
2, 43220, Note_on_c, 0, 72, 0
2, 43220, Note_on_c, 0, 81, 107
2, 43576, Note_on_c, 0, 81, 0
2, 43580, Note_on_c, 0, 72, 109
2, 43700, Note_on_c, 0, 72, 0
2, 43700, Note_on_c, 0, 81, 104
2, 44056, Note_on_c, 0, 81, 0
2, 44060, Note_on_c, 0, 72, 109
2, 44180, Note_on_c, 0, 72, 0
2, 44180, Note_on_c, 0, 72, 113
2, 44540, Note_on_c, 0, 72, 0
2, 44540, Note_on_c, 0, 71, 102
2, 44600, Note_on_c, 0, 71, 0
2, 44600, Note_on_c, 0, 72, 95
2, 44660, Note_on_c, 0, 72, 0
2, 44660, Note_on_c, 0, 71, 106
2, 44956, Note_on_c, 0, 71, 0
2, 44960, Note_on_c, 0, 69, 96
2, 45016, Note_on_c, 0, 69, 0
2, 45020, Note_on_c, 0, 67, 74
2, 45076, Note_on_c, 0, 67, 0
2, 45080, Note_on_c, 0, 66, 90
2, 45136, Note_on_c, 0, 66, 0
2, 45140, Note_on_c, 0, 67, 75
2, 45200, Note_on_c, 0, 67, 0
2, 45260, Note_on_c, 0, 74, 95
2, 45316, Note_on_c, 0, 74, 0
2, 45380, Note_on_c, 0, 76, 97
2, 45436, Note_on_c, 0, 76, 0
2, 45500, Note_on_c, 0, 78, 96
2, 45556, Note_on_c, 0, 78, 0
2, 45620, Note_on_c, 0, 79, 97
2, 45676, Note_on_c, 0, 79, 0
2, 45740, Note_on_c, 0, 78, 96
2, 45796, Note_on_c, 0, 78, 0
2, 45860, Note_on_c, 0, 79, 96
2, 45916, Note_on_c, 0, 79, 0
2, 45980, Note_on_c, 0, 81, 98
2, 46036, Note_on_c, 0, 81, 0
2, 46100, Note_on_c, 0, 83, 109
2, 46396, Note_on_c, 0, 83, 0
2, 46400, Note_on_c, 0, 81, 62
2, 46456, Note_on_c, 0, 81, 0
2, 46460, Note_on_c, 0, 79, 66
2, 46516, Note_on_c, 0, 79, 0
2, 46520, Note_on_c, 0, 78, 71
2, 46576, Note_on_c, 0, 78, 0
2, 46580, Note_on_c, 0, 79, 74
2, 46876, Note_on_c, 0, 79, 0
2, 46880, Note_on_c, 0, 78, 85
2, 46936, Note_on_c, 0, 78, 0
2, 46940, Note_on_c, 0, 76, 43
2, 46996, Note_on_c, 0, 76, 0
2, 47000, Note_on_c, 0, 75, 45
2, 47056, Note_on_c, 0, 75, 0
2, 47060, Note_on_c, 0, 76, 89
2, 47416, Note_on_c, 0, 76, 0
2, 47420, Note_on_c, 0, 71, 80
2, 47540, Note_on_c, 0, 71, 0
2, 47540, Note_on_c, 0, 73, 101
2, 47596, Note_on_c, 0, 73, 0
2, 47600, Note_on_c, 0, 71, 101
2, 47656, Note_on_c, 0, 71, 0
2, 47660, Note_on_c, 0, 73, 92
2, 47896, Note_on_c, 0, 73, 0
2, 47900, Note_on_c, 0, 74, 85
2, 48020, Note_on_c, 0, 74, 0
2, 48020, Note_on_c, 0, 74, 106
2, 48140, Note_on_c, 0, 74, 0
2, 48140, Note_on_c, 0, 73, 97
2, 48312, Note_on_c, 0, 73, 0
2, 48320, Note_on_c, 0, 76, 80
2, 48376, Note_on_c, 0, 76, 0
2, 48380, Note_on_c, 0, 78, 86
2, 48436, Note_on_c, 0, 78, 0
2, 48440, Note_on_c, 0, 79, 86
2, 48496, Note_on_c, 0, 79, 0
2, 48500, Note_on_c, 0, 81, 69
2, 48796, Note_on_c, 0, 81, 0
2, 48860, Note_on_c, 0, 81, 98
2, 48976, Note_on_c, 0, 81, 0
2, 48980, Note_on_c, 0, 81, 111
2, 49696, Note_on_c, 0, 81, 0
2, 49760, Note_on_c, 0, 81, 93
2, 49816, Note_on_c, 0, 81, 0
2, 49820, Note_on_c, 0, 79, 83
2, 49876, Note_on_c, 0, 79, 0
2, 49880, Note_on_c, 0, 78, 94
2, 49936, Note_on_c, 0, 78, 0
2, 49940, Note_on_c, 0, 79, 113
2, 50180, Note_on_c, 0, 79, 0
2, 50240, Note_on_c, 0, 78, 97
2, 50296, Note_on_c, 0, 78, 0
2, 50300, Note_on_c, 0, 76, 76
2, 50356, Note_on_c, 0, 76, 0
2, 50360, Note_on_c, 0, 75, 76
2, 50416, Note_on_c, 0, 75, 0
2, 50420, Note_on_c, 0, 76, 101
2, 50776, Note_on_c, 0, 76, 0
2, 50780, Note_on_c, 0, 83, 115
2, 50900, Note_on_c, 0, 83, 0
2, 50900, Note_on_c, 0, 76, 102
2, 51260, Note_on_c, 0, 76, 0
2, 51260, Note_on_c, 0, 74, 102
2, 51320, Note_on_c, 0, 74, 0
2, 51320, Note_on_c, 0, 76, 102
2, 51380, Note_on_c, 0, 76, 0
2, 51380, Note_on_c, 0, 74, 102
2, 51620, Note_on_c, 0, 74, 0
2, 51620, Note_on_c, 0, 73, 95
2, 51736, Note_on_c, 0, 73, 0
2, 51740, Note_on_c, 0, 71, 95
2, 51856, Note_on_c, 0, 71, 0
2, 51860, Note_on_c, 0, 73, 106
2, 52156, Note_on_c, 0, 73, 0
2, 52160, Note_on_c, 0, 74, 88
2, 52212, Note_on_c, 0, 73, 80
2, 52220, Note_on_c, 0, 74, 0
2, 52276, Note_on_c, 0, 74, 77
2, 52292, Note_on_c, 0, 73, 0
2, 52296, Note_on_c, 0, 74, 0
2, 52340, Note_on_c, 0, 76, 91
2, 52400, Note_on_c, 0, 74, 76
2, 52428, Note_on_c, 0, 76, 0
2, 52460, Note_on_c, 0, 76, 74
2, 52464, Note_on_c, 0, 74, 0
2, 52504, Note_on_c, 0, 76, 0
2, 52520, Note_on_c, 0, 74, 86
2, 52580, Note_on_c, 0, 74, 0
2, 52580, Note_on_c, 0, 76, 72
2, 52624, Note_on_c, 0, 76, 0
2, 52660, Note_on_c, 0, 74, 76
2, 52712, Note_on_c, 0, 73, 89
2, 52724, Note_on_c, 0, 74, 0
2, 52768, Note_on_c, 0, 74, 95
2, 52780, Note_on_c, 0, 73, 0
2, 52828, Note_on_c, 0, 76, 117
2, 52836, Note_on_c, 0, 74, 0
2, 53360, Note_on_c, 0, 74, 96
2, 53376, Note_on_c, 0, 76, 0
2, 53412, Note_on_c, 0, 73, 101
2, 53428, Note_on_c, 0, 74, 0
2, 53472, Note_on_c, 0, 71, 89
2, 53484, Note_on_c, 0, 73, 0
2, 53524, Note_on_c, 0, 71, 0
2, 53528, Note_on_c, 0, 69, 80
2, 53588, Note_on_c, 0, 67, 88
2, 53592, Note_on_c, 0, 69, 0
2, 53652, Note_on_c, 0, 66, 102
2, 53668, Note_on_c, 0, 67, 0
2, 53700, Note_on_c, 0, 66, 0
2, 53704, Note_on_c, 0, 64, 95
2, 53764, Note_on_c, 0, 62, 111
2, 53768, Note_on_c, 0, 64, 0
2, 54124, Note_on_c, 0, 66, 102
2, 54132, Note_on_c, 0, 62, 0
2, 54248, Note_on_c, 0, 66, 0
2, 54252, Note_on_c, 0, 69, 106
2, 54308, Note_on_c, 0, 67, 97
2, 54312, Note_on_c, 0, 69, 0
2, 54372, Note_on_c, 0, 69, 100
2, 54384, Note_on_c, 0, 67, 0
2, 54620, Note_on_c, 0, 71, 104
2, 54628, Note_on_c, 0, 69, 0
2, 54740, Note_on_c, 0, 69, 101
2, 54740, Note_on_c, 0, 72, 101
2, 54748, Note_on_c, 0, 71, 0
2, 55220, Note_on_c, 0, 69, 0
2, 55480, Note_on_c, 0, 72, 0
2, 55528, Note_on_c, 0, 72, 104
2, 55588, Note_on_c, 0, 71, 92
2, 55608, Note_on_c, 0, 72, 0
2, 55648, Note_on_c, 0, 69, 91
2, 55660, Note_on_c, 0, 71, 0
2, 55708, Note_on_c, 0, 71, 109
2, 55716, Note_on_c, 0, 69, 0
2, 55996, Note_on_c, 0, 71, 0
2, 56000, Note_on_c, 0, 73, 86
2, 56060, Note_on_c, 0, 74, 84
2, 56088, Note_on_c, 0, 73, 0
2, 56120, Note_on_c, 0, 76, 98
2, 56124, Note_on_c, 0, 74, 0
2, 56180, Note_on_c, 0, 76, 0
2, 56180, Note_on_c, 0, 78, 77
2, 56240, Note_on_c, 0, 78, 0
2, 56240, Note_on_c, 0, 76, 95
2, 56300, Note_on_c, 0, 76, 0
2, 56300, Note_on_c, 0, 74, 86
2, 56360, Note_on_c, 0, 74, 0
2, 56360, Note_on_c, 0, 73, 86
2, 56420, Note_on_c, 0, 73, 0
2, 56420, Note_on_c, 0, 74, 86
2, 56476, Note_on_c, 0, 73, 90
2, 56480, Note_on_c, 0, 74, 0
2, 56540, Note_on_c, 0, 74, 95
2, 56548, Note_on_c, 0, 73, 0
2, 56600, Note_on_c, 0, 74, 0
2, 56600, Note_on_c, 0, 76, 91
2, 56660, Note_on_c, 0, 76, 0
2, 56660, Note_on_c, 0, 69, 72
2, 56908, Note_on_c, 0, 69, 0
2, 56964, Note_on_c, 0, 76, 102
2, 57016, Note_on_c, 0, 76, 0
2, 57024, Note_on_c, 0, 78, 97
2, 57080, Note_on_c, 0, 79, 100
2, 57088, Note_on_c, 0, 78, 0
2, 57124, Note_on_c, 0, 79, 0
2, 57144, Note_on_c, 0, 81, 117
2, 57500, Note_on_c, 0, 73, 106
2, 57512, Note_on_c, 0, 81, 0
2, 57620, Note_on_c, 0, 73, 0
2, 57620, Note_on_c, 0, 74, 109
2, 57860, Note_on_c, 0, 74, 0
2, 57920, Note_on_c, 0, 76, 92
2, 57980, Note_on_c, 0, 74, 92
2, 57996, Note_on_c, 0, 76, 0
2, 58036, Note_on_c, 0, 74, 0
2, 58040, Note_on_c, 0, 73, 93
2, 58100, Note_on_c, 0, 74, 92
2, 58108, Note_on_c, 0, 73, 0
2, 58340, Note_on_c, 0, 74, 0
2, 58340, Note_on_c, 0, 76, 102
2, 58580, Note_on_c, 0, 76, 0
2, 58580, Note_on_c, 0, 78, 96
2, 58640, Note_on_c, 0, 78, 0
2, 58640, Note_on_c, 0, 76, 89
2, 58700, Note_on_c, 0, 76, 0
2, 58700, Note_on_c, 0, 78, 84
2, 58760, Note_on_c, 0, 78, 0
2, 58760, Note_on_c, 0, 76, 101
2, 58820, Note_on_c, 0, 76, 0
2, 58820, Note_on_c, 0, 78, 104
2, 58880, Note_on_c, 0, 78, 0
2, 58880, Note_on_c, 0, 76, 82
2, 58940, Note_on_c, 0, 76, 0
2, 58940, Note_on_c, 0, 78, 104
2, 59000, Note_on_c, 0, 78, 0
2, 59000, Note_on_c, 0, 76, 104
2, 59060, Note_on_c, 0, 76, 0
2, 59060, Note_on_c, 0, 78, 98
2, 59120, Note_on_c, 0, 78, 0
2, 59120, Note_on_c, 0, 76, 98
2, 59180, Note_on_c, 0, 76, 0
2, 59180, Note_on_c, 0, 78, 98
2, 59240, Note_on_c, 0, 78, 0
2, 59240, Note_on_c, 0, 76, 98
2, 59300, Note_on_c, 0, 76, 0
2, 59300, Note_on_c, 0, 74, 98
2, 59540, Note_on_c, 0, 74, 0
2, 59540, Note_on_c, 0, 74, 98
2, 59780, Note_on_c, 0, 74, 0
2, 59780, Note_on_c, 0, 81, 98
2, 59900, Note_on_c, 0, 81, 0
2, 59900, Note_on_c, 0, 79, 98
2, 60020, Note_on_c, 0, 79, 0
2, 60020, Note_on_c, 0, 78, 98
2, 60140, Note_on_c, 0, 78, 0
2, 60140, Note_on_c, 0, 76, 98
2, 60260, Note_on_c, 0, 76, 0
2, 60260, Note_on_c, 0, 78, 104
2, 60496, Note_on_c, 0, 78, 0
2, 60500, Note_on_c, 0, 81, 111
2, 60560, Note_on_c, 0, 81, 0
2, 60560, Note_on_c, 0, 79, 96
2, 60620, Note_on_c, 0, 79, 0
2, 60620, Note_on_c, 0, 78, 88
2, 60680, Note_on_c, 0, 78, 0
2, 60680, Note_on_c, 0, 79, 99
2, 60740, Note_on_c, 0, 79, 0
2, 60740, Note_on_c, 0, 81, 107
2, 60976, Note_on_c, 0, 81, 0
2, 60980, Note_on_c, 0, 74, 93
2, 61096, Note_on_c, 0, 74, 0
2, 61100, Note_on_c, 0, 78, 94
2, 61216, Note_on_c, 0, 78, 0
2, 61220, Note_on_c, 0, 76, 95
2, 61336, Note_on_c, 0, 76, 0
2, 61340, Note_on_c, 0, 79, 97
2, 61456, Note_on_c, 0, 79, 0
2, 61460, Note_on_c, 0, 78, 93
2, 61576, Note_on_c, 0, 78, 0
2, 61580, Note_on_c, 0, 81, 107
2, 61696, Note_on_c, 0, 81, 0
2, 61700, Note_on_c, 0, 79, 100
2, 61936, Note_on_c, 0, 79, 0
2, 61940, Note_on_c, 0, 78, 97
2, 62176, Note_on_c, 0, 78, 0
2, 62180, Note_on_c, 0, 79, 92
2, 62416, Note_on_c, 0, 79, 0
2, 62420, Note_on_c, 0, 76, 104
2, 62656, Note_on_c, 0, 76, 0
2, 62660, Note_on_c, 0, 75, 97
2, 62896, Note_on_c, 0, 75, 0
2, 62900, Note_on_c, 0, 76, 90
2, 63136, Note_on_c, 0, 76, 0
2, 63140, Note_on_c, 0, 81, 107
2, 64096, Note_on_c, 0, 81, 0
2, 64100, Note_on_c, 0, 79, 90
2, 64216, Note_on_c, 0, 79, 0
2, 64220, Note_on_c, 0, 76, 93
2, 64336, Note_on_c, 0, 76, 0
2, 64340, Note_on_c, 0, 78, 94
2, 64456, Note_on_c, 0, 78, 0
2, 64460, Note_on_c, 0, 75, 85
2, 64576, Note_on_c, 0, 75, 0
2, 64580, Note_on_c, 0, 83, 111
2, 65416, Note_on_c, 0, 83, 0
2, 65420, Note_on_c, 0, 84, 98
2, 65536, Note_on_c, 0, 84, 0
2, 65540, Note_on_c, 0, 83, 90
2, 65656, Note_on_c, 0, 83, 0
2, 65660, Note_on_c, 0, 81, 97
2, 65776, Note_on_c, 0, 81, 0
2, 65780, Note_on_c, 0, 79, 80
2, 65896, Note_on_c, 0, 79, 0
2, 65900, Note_on_c, 0, 78, 84
2, 66016, Note_on_c, 0, 78, 0
2, 66020, Note_on_c, 0, 79, 90
2, 66136, Note_on_c, 0, 79, 0
2, 66140, Note_on_c, 0, 76, 82
2, 66256, Note_on_c, 0, 76, 0
2, 66260, Note_on_c, 0, 81, 85
2, 66376, Note_on_c, 0, 81, 0
2, 66380, Note_on_c, 0, 76, 83
2, 66496, Note_on_c, 0, 76, 0
2, 66500, Note_on_c, 0, 83, 92
2, 66616, Note_on_c, 0, 83, 0
2, 66620, Note_on_c, 0, 76, 74
2, 66736, Note_on_c, 0, 76, 0
2, 66740, Note_on_c, 0, 84, 85
2, 66856, Note_on_c, 0, 84, 0
2, 66860, Note_on_c, 0, 83, 90
2, 66976, Note_on_c, 0, 83, 0
2, 66980, Note_on_c, 0, 81, 90
2, 67096, Note_on_c, 0, 81, 0
2, 67100, Note_on_c, 0, 79, 80
2, 67216, Note_on_c, 0, 79, 0
2, 67220, Note_on_c, 0, 78, 82
2, 67336, Note_on_c, 0, 78, 0
2, 67340, Note_on_c, 0, 76, 82
2, 67456, Note_on_c, 0, 76, 0
2, 67460, Note_on_c, 0, 74, 81
2, 67576, Note_on_c, 0, 74, 0
2, 67580, Note_on_c, 0, 78, 81
2, 67696, Note_on_c, 0, 78, 0
2, 67700, Note_on_c, 0, 76, 84
2, 67816, Note_on_c, 0, 76, 0
2, 67820, Note_on_c, 0, 79, 86
2, 67936, Note_on_c, 0, 79, 0
2, 67940, Note_on_c, 0, 78, 79
2, 68056, Note_on_c, 0, 78, 0
2, 68060, Note_on_c, 0, 81, 93
2, 68176, Note_on_c, 0, 81, 0
2, 68180, Note_on_c, 0, 79, 83
2, 68296, Note_on_c, 0, 79, 0
2, 68300, Note_on_c, 0, 81, 97
2, 68416, Note_on_c, 0, 81, 0
2, 68420, Note_on_c, 0, 83, 91
2, 68480, Note_on_c, 0, 83, 0
2, 68480, Note_on_c, 0, 81, 88
2, 68540, Note_on_c, 0, 81, 0
2, 68540, Note_on_c, 0, 83, 81
2, 68600, Note_on_c, 0, 83, 0
2, 68600, Note_on_c, 0, 81, 90
2, 68660, Note_on_c, 0, 81, 0
2, 68660, Note_on_c, 0, 83, 90
2, 68720, Note_on_c, 0, 83, 0
2, 68720, Note_on_c, 0, 81, 90
2, 68780, Note_on_c, 0, 81, 0
2, 68780, Note_on_c, 0, 79, 100
2, 68840, Note_on_c, 0, 79, 0
2, 68840, Note_on_c, 0, 81, 72
2, 68900, Note_on_c, 0, 81, 0
2, 68900, Note_on_c, 0, 83, 72
2, 69380, Note_on_c, 0, 83, 0
2, 69380, Note_on_c, 0, 79, 90
2, 69616, Note_on_c, 0, 79, 0
2, 69620, Note_on_c, 0, 76, 91
2, 69856, Note_on_c, 0, 76, 0
2, 69860, Note_on_c, 0, 78, 81
2, 70096, Note_on_c, 0, 78, 0
2, 70100, Note_on_c, 0, 75, 86
2, 70336, Note_on_c, 0, 75, 0
2, 70340, Note_on_c, 0, 76, 97
2, 70816, Note_on_c, 0, 76, 0
2, 71300, Note_on_c, 0, 76, 89
2, 71416, Note_on_c, 0, 76, 0
2, 71420, Note_on_c, 0, 74, 91
2, 71536, Note_on_c, 0, 74, 0
2, 71540, Note_on_c, 0, 72, 92
2, 71656, Note_on_c, 0, 72, 0
2, 71660, Note_on_c, 0, 71, 84
2, 71776, Note_on_c, 0, 71, 0
2, 71780, Note_on_c, 0, 72, 91
2, 72016, Note_on_c, 0, 72, 0
2, 72020, Note_on_c, 0, 74, 86
2, 72256, Note_on_c, 0, 74, 0
2, 72260, Note_on_c, 0, 76, 100
2, 72496, Note_on_c, 0, 76, 0
2, 72500, Note_on_c, 0, 69, 73
2, 72616, Note_on_c, 0, 69, 0
2, 72620, Note_on_c, 0, 72, 83
2, 72736, Note_on_c, 0, 72, 0
2, 72740, Note_on_c, 0, 71, 83
2, 72856, Note_on_c, 0, 71, 0
2, 72860, Note_on_c, 0, 74, 82
2, 72976, Note_on_c, 0, 74, 0
2, 72980, Note_on_c, 0, 73, 84
2, 73096, Note_on_c, 0, 73, 0
2, 73100, Note_on_c, 0, 76, 95
2, 73216, Note_on_c, 0, 76, 0
2, 73220, Note_on_c, 0, 74, 53
2, 73280, Note_on_c, 0, 74, 0
2, 73280, Note_on_c, 0, 76, 86
2, 73340, Note_on_c, 0, 76, 0
2, 73340, Note_on_c, 0, 78, 92
2, 73456, Note_on_c, 0, 78, 0
2, 73460, Note_on_c, 0, 79, 84
2, 73520, Note_on_c, 0, 79, 0
2, 73520, Note_on_c, 0, 78, 93
2, 73580, Note_on_c, 0, 78, 0
2, 73580, Note_on_c, 0, 79, 89
2, 73640, Note_on_c, 0, 79, 0
2, 73640, Note_on_c, 0, 78, 89
2, 73700, Note_on_c, 0, 78, 0
2, 73700, Note_on_c, 0, 79, 89
2, 73760, Note_on_c, 0, 79, 0
2, 73760, Note_on_c, 0, 78, 89
2, 73820, Note_on_c, 0, 78, 0
2, 73820, Note_on_c, 0, 76, 104
2, 73880, Note_on_c, 0, 76, 0
2, 73880, Note_on_c, 0, 78, 104
2, 73940, Note_on_c, 0, 78, 0
2, 73940, Note_on_c, 0, 79, 104
2, 74180, Note_on_c, 0, 79, 0
2, 74180, Note_on_c, 0, 78, 99
2, 74296, Note_on_c, 0, 78, 0
2, 74300, Note_on_c, 0, 76, 93
2, 74416, Note_on_c, 0, 76, 0
2, 74420, Note_on_c, 0, 74, 84
2, 74536, Note_on_c, 0, 74, 0
2, 74540, Note_on_c, 0, 72, 95
2, 74656, Note_on_c, 0, 72, 0
2, 74660, Note_on_c, 0, 71, 89
2, 74776, Note_on_c, 0, 71, 0
2, 74780, Note_on_c, 0, 74, 83
2, 74896, Note_on_c, 0, 74, 0
2, 74900, Note_on_c, 0, 72, 88
2, 75016, Note_on_c, 0, 72, 0
2, 75020, Note_on_c, 0, 76, 89
2, 75136, Note_on_c, 0, 76, 0
2, 75140, Note_on_c, 0, 74, 80
2, 75256, Note_on_c, 0, 74, 0
2, 75260, Note_on_c, 0, 77, 86
2, 75376, Note_on_c, 0, 77, 0
2, 75380, Note_on_c, 0, 76, 106
2, 76216, Note_on_c, 0, 76, 0
2, 76220, Note_on_c, 0, 74, 88
2, 76336, Note_on_c, 0, 74, 0
2, 76340, Note_on_c, 0, 72, 93
2, 76456, Note_on_c, 0, 72, 0
2, 76460, Note_on_c, 0, 71, 75
2, 76576, Note_on_c, 0, 71, 0
2, 76580, Note_on_c, 0, 72, 97
2, 76696, Note_on_c, 0, 72, 0
2, 76700, Note_on_c, 0, 78, 89
2, 76816, Note_on_c, 0, 78, 0
2, 76820, Note_on_c, 0, 81, 102
2, 76936, Note_on_c, 0, 81, 0
2, 76940, Note_on_c, 0, 74, 60
2, 77056, Note_on_c, 0, 74, 0
2, 77060, Note_on_c, 0, 72, 78
2, 77176, Note_on_c, 0, 72, 0
2, 77180, Note_on_c, 0, 71, 75
2, 77296, Note_on_c, 0, 71, 0
2, 77300, Note_on_c, 0, 72, 84
2, 77416, Note_on_c, 0, 72, 0
2, 77420, Note_on_c, 0, 69, 75
2, 77536, Note_on_c, 0, 69, 0
2, 77540, Note_on_c, 0, 71, 89
2, 77656, Note_on_c, 0, 71, 0
2, 77660, Note_on_c, 0, 76, 95
2, 77776, Note_on_c, 0, 76, 0
2, 77780, Note_on_c, 0, 74, 84
2, 77896, Note_on_c, 0, 74, 0
2, 77900, Note_on_c, 0, 72, 84
2, 78016, Note_on_c, 0, 72, 0
2, 78020, Note_on_c, 0, 74, 89
2, 78136, Note_on_c, 0, 74, 0
2, 78140, Note_on_c, 0, 80, 90
2, 78256, Note_on_c, 0, 80, 0
2, 78260, Note_on_c, 0, 83, 92
2, 78376, Note_on_c, 0, 83, 0
2, 78380, Note_on_c, 0, 76, 69
2, 78496, Note_on_c, 0, 76, 0
2, 78500, Note_on_c, 0, 74, 78
2, 78616, Note_on_c, 0, 74, 0
2, 78620, Note_on_c, 0, 72, 83
2, 78736, Note_on_c, 0, 72, 0
2, 78740, Note_on_c, 0, 74, 73
2, 78856, Note_on_c, 0, 74, 0
2, 78860, Note_on_c, 0, 71, 78
2, 78976, Note_on_c, 0, 71, 0
2, 78980, Note_on_c, 0, 72, 92
2, 79816, Note_on_c, 0, 72, 0
2, 79820, Note_on_c, 0, 71, 92
2, 79936, Note_on_c, 0, 71, 0
2, 79940, Note_on_c, 0, 69, 77
2, 80056, Note_on_c, 0, 69, 0
2, 80060, Note_on_c, 0, 71, 77
2, 80176, Note_on_c, 0, 71, 0
2, 80180, Note_on_c, 0, 72, 82
2, 80296, Note_on_c, 0, 72, 0
2, 80300, Note_on_c, 0, 69, 85
2, 80416, Note_on_c, 0, 69, 0
2, 80420, Note_on_c, 0, 74, 96
2, 80896, Note_on_c, 0, 74, 0
2, 80900, Note_on_c, 0, 71, 95
2, 81136, Note_on_c, 0, 71, 0
2, 81140, Note_on_c, 0, 67, 64
2, 81376, Note_on_c, 0, 67, 0
2, 81380, Note_on_c, 0, 69, 83
2, 81616, Note_on_c, 0, 69, 0
2, 81620, Note_on_c, 0, 66, 85
2, 81856, Note_on_c, 0, 66, 0
2, 81860, Note_on_c, 0, 67, 81
2, 82340, Note_on_c, 0, 67, 0
2, 82820, Note_on_c, 0, 81, 81
2, 82940, Note_on_c, 0, 81, 0
2, 82940, Note_on_c, 0, 79, 81
2, 83060, Note_on_c, 0, 79, 0
2, 83060, Note_on_c, 0, 78, 81
2, 83180, Note_on_c, 0, 78, 0
2, 83180, Note_on_c, 0, 76, 81
2, 83300, Note_on_c, 0, 76, 0
2, 83300, Note_on_c, 0, 78, 104
2, 83536, Note_on_c, 0, 78, 0
2, 83540, Note_on_c, 0, 81, 111
2, 83600, Note_on_c, 0, 81, 0
2, 83600, Note_on_c, 0, 79, 96
2, 83660, Note_on_c, 0, 79, 0
2, 83660, Note_on_c, 0, 78, 88
2, 83720, Note_on_c, 0, 78, 0
2, 83720, Note_on_c, 0, 79, 99
2, 83780, Note_on_c, 0, 79, 0
2, 83780, Note_on_c, 0, 81, 107
2, 84016, Note_on_c, 0, 81, 0
2, 84020, Note_on_c, 0, 74, 93
2, 84136, Note_on_c, 0, 74, 0
2, 84140, Note_on_c, 0, 78, 94
2, 84256, Note_on_c, 0, 78, 0
2, 84260, Note_on_c, 0, 76, 95
2, 84376, Note_on_c, 0, 76, 0
2, 84380, Note_on_c, 0, 79, 97
2, 84496, Note_on_c, 0, 79, 0
2, 84500, Note_on_c, 0, 78, 93
2, 84616, Note_on_c, 0, 78, 0
2, 84620, Note_on_c, 0, 81, 107
2, 84736, Note_on_c, 0, 81, 0
2, 84740, Note_on_c, 0, 79, 100
2, 84976, Note_on_c, 0, 79, 0
2, 84980, Note_on_c, 0, 78, 97
2, 85216, Note_on_c, 0, 78, 0
2, 85220, Note_on_c, 0, 79, 92
2, 85456, Note_on_c, 0, 79, 0
2, 85460, Note_on_c, 0, 76, 104
2, 85696, Note_on_c, 0, 76, 0
2, 85700, Note_on_c, 0, 75, 97
2, 85936, Note_on_c, 0, 75, 0
2, 85940, Note_on_c, 0, 76, 90
2, 86176, Note_on_c, 0, 76, 0
2, 86180, Note_on_c, 0, 81, 107
2, 87136, Note_on_c, 0, 81, 0
2, 87140, Note_on_c, 0, 79, 90
2, 87256, Note_on_c, 0, 79, 0
2, 87260, Note_on_c, 0, 76, 93
2, 87376, Note_on_c, 0, 76, 0
2, 87380, Note_on_c, 0, 78, 94
2, 87496, Note_on_c, 0, 78, 0
2, 87500, Note_on_c, 0, 75, 85
2, 87616, Note_on_c, 0, 75, 0
2, 87620, Note_on_c, 0, 83, 111
2, 88456, Note_on_c, 0, 83, 0
2, 88460, Note_on_c, 0, 84, 98
2, 88576, Note_on_c, 0, 84, 0
2, 88580, Note_on_c, 0, 83, 90
2, 88696, Note_on_c, 0, 83, 0
2, 88700, Note_on_c, 0, 81, 97
2, 88816, Note_on_c, 0, 81, 0
2, 88820, Note_on_c, 0, 79, 80
2, 88936, Note_on_c, 0, 79, 0
2, 88940, Note_on_c, 0, 78, 84
2, 89056, Note_on_c, 0, 78, 0
2, 89060, Note_on_c, 0, 79, 90
2, 89176, Note_on_c, 0, 79, 0
2, 89180, Note_on_c, 0, 76, 82
2, 89296, Note_on_c, 0, 76, 0
2, 89300, Note_on_c, 0, 81, 85
2, 89416, Note_on_c, 0, 81, 0
2, 89420, Note_on_c, 0, 76, 83
2, 89536, Note_on_c, 0, 76, 0
2, 89540, Note_on_c, 0, 83, 92
2, 89656, Note_on_c, 0, 83, 0
2, 89660, Note_on_c, 0, 76, 74
2, 89776, Note_on_c, 0, 76, 0
2, 89780, Note_on_c, 0, 84, 85
2, 89896, Note_on_c, 0, 84, 0
2, 89900, Note_on_c, 0, 83, 90
2, 90016, Note_on_c, 0, 83, 0
2, 90020, Note_on_c, 0, 81, 90
2, 90136, Note_on_c, 0, 81, 0
2, 90140, Note_on_c, 0, 79, 80
2, 90256, Note_on_c, 0, 79, 0
2, 90260, Note_on_c, 0, 78, 82
2, 90376, Note_on_c, 0, 78, 0
2, 90380, Note_on_c, 0, 76, 82
2, 90496, Note_on_c, 0, 76, 0
2, 90500, Note_on_c, 0, 74, 81
2, 90616, Note_on_c, 0, 74, 0
2, 90620, Note_on_c, 0, 78, 81
2, 90736, Note_on_c, 0, 78, 0
2, 90740, Note_on_c, 0, 76, 84
2, 90856, Note_on_c, 0, 76, 0
2, 90860, Note_on_c, 0, 79, 86
2, 90976, Note_on_c, 0, 79, 0
2, 90980, Note_on_c, 0, 78, 79
2, 91096, Note_on_c, 0, 78, 0
2, 91100, Note_on_c, 0, 81, 93
2, 91216, Note_on_c, 0, 81, 0
2, 91220, Note_on_c, 0, 79, 83
2, 91336, Note_on_c, 0, 79, 0
2, 91340, Note_on_c, 0, 81, 97
2, 91456, Note_on_c, 0, 81, 0
2, 91460, Note_on_c, 0, 83, 91
2, 91520, Note_on_c, 0, 83, 0
2, 91520, Note_on_c, 0, 81, 88
2, 91580, Note_on_c, 0, 81, 0
2, 91580, Note_on_c, 0, 83, 81
2, 91640, Note_on_c, 0, 83, 0
2, 91640, Note_on_c, 0, 81, 90
2, 91700, Note_on_c, 0, 81, 0
2, 91700, Note_on_c, 0, 83, 90
2, 91760, Note_on_c, 0, 83, 0
2, 91760, Note_on_c, 0, 81, 90
2, 91820, Note_on_c, 0, 81, 0
2, 91820, Note_on_c, 0, 79, 100
2, 91880, Note_on_c, 0, 79, 0
2, 91880, Note_on_c, 0, 81, 72
2, 91940, Note_on_c, 0, 81, 0
2, 91940, Note_on_c, 0, 83, 72
2, 92420, Note_on_c, 0, 83, 0
2, 92420, Note_on_c, 0, 79, 90
2, 92656, Note_on_c, 0, 79, 0
2, 92660, Note_on_c, 0, 76, 91
2, 92896, Note_on_c, 0, 76, 0
2, 92900, Note_on_c, 0, 78, 81
2, 93136, Note_on_c, 0, 78, 0
2, 93140, Note_on_c, 0, 75, 86
2, 93376, Note_on_c, 0, 75, 0
2, 93380, Note_on_c, 0, 76, 97
2, 93856, Note_on_c, 0, 76, 0
2, 94340, Note_on_c, 0, 76, 89
2, 94456, Note_on_c, 0, 76, 0
2, 94460, Note_on_c, 0, 74, 91
2, 94576, Note_on_c, 0, 74, 0
2, 94580, Note_on_c, 0, 72, 92
2, 94696, Note_on_c, 0, 72, 0
2, 94700, Note_on_c, 0, 71, 84
2, 94816, Note_on_c, 0, 71, 0
2, 94820, Note_on_c, 0, 72, 91
2, 95056, Note_on_c, 0, 72, 0
2, 95060, Note_on_c, 0, 74, 86
2, 95296, Note_on_c, 0, 74, 0
2, 95300, Note_on_c, 0, 76, 100
2, 95536, Note_on_c, 0, 76, 0
2, 95540, Note_on_c, 0, 69, 73
2, 95656, Note_on_c, 0, 69, 0
2, 95660, Note_on_c, 0, 72, 83
2, 95776, Note_on_c, 0, 72, 0
2, 95780, Note_on_c, 0, 71, 83
2, 95896, Note_on_c, 0, 71, 0
2, 95900, Note_on_c, 0, 74, 82
2, 96016, Note_on_c, 0, 74, 0
2, 96020, Note_on_c, 0, 73, 84
2, 96136, Note_on_c, 0, 73, 0
2, 96140, Note_on_c, 0, 76, 95
2, 96256, Note_on_c, 0, 76, 0
2, 96260, Note_on_c, 0, 74, 53
2, 96320, Note_on_c, 0, 74, 0
2, 96320, Note_on_c, 0, 76, 86
2, 96380, Note_on_c, 0, 76, 0
2, 96380, Note_on_c, 0, 78, 92
2, 96496, Note_on_c, 0, 78, 0
2, 96500, Note_on_c, 0, 79, 84
2, 96560, Note_on_c, 0, 79, 0
2, 96560, Note_on_c, 0, 78, 93
2, 96620, Note_on_c, 0, 78, 0
2, 96620, Note_on_c, 0, 79, 89
2, 96680, Note_on_c, 0, 79, 0
2, 96680, Note_on_c, 0, 78, 89
2, 96740, Note_on_c, 0, 78, 0
2, 96740, Note_on_c, 0, 79, 89
2, 96800, Note_on_c, 0, 79, 0
2, 96800, Note_on_c, 0, 78, 89
2, 96860, Note_on_c, 0, 78, 0
2, 96860, Note_on_c, 0, 76, 104
2, 96920, Note_on_c, 0, 76, 0
2, 96920, Note_on_c, 0, 78, 104
2, 96980, Note_on_c, 0, 78, 0
2, 96980, Note_on_c, 0, 79, 104
2, 97220, Note_on_c, 0, 79, 0
2, 97220, Note_on_c, 0, 78, 99
2, 97336, Note_on_c, 0, 78, 0
2, 97340, Note_on_c, 0, 76, 93
2, 97456, Note_on_c, 0, 76, 0
2, 97460, Note_on_c, 0, 74, 84
2, 97576, Note_on_c, 0, 74, 0
2, 97580, Note_on_c, 0, 72, 95
2, 97696, Note_on_c, 0, 72, 0
2, 97700, Note_on_c, 0, 71, 89
2, 97816, Note_on_c, 0, 71, 0
2, 97820, Note_on_c, 0, 74, 83
2, 97936, Note_on_c, 0, 74, 0
2, 97940, Note_on_c, 0, 72, 88
2, 98056, Note_on_c, 0, 72, 0
2, 98060, Note_on_c, 0, 76, 89
2, 98176, Note_on_c, 0, 76, 0
2, 98180, Note_on_c, 0, 74, 80
2, 98296, Note_on_c, 0, 74, 0
2, 98300, Note_on_c, 0, 77, 86
2, 98416, Note_on_c, 0, 77, 0
2, 98420, Note_on_c, 0, 76, 106
2, 99256, Note_on_c, 0, 76, 0
2, 99260, Note_on_c, 0, 74, 88
2, 99376, Note_on_c, 0, 74, 0
2, 99380, Note_on_c, 0, 72, 93
2, 99496, Note_on_c, 0, 72, 0
2, 99500, Note_on_c, 0, 71, 75
2, 99616, Note_on_c, 0, 71, 0
2, 99620, Note_on_c, 0, 72, 97
2, 99736, Note_on_c, 0, 72, 0
2, 99740, Note_on_c, 0, 78, 89
2, 99856, Note_on_c, 0, 78, 0
2, 99860, Note_on_c, 0, 81, 102
2, 99976, Note_on_c, 0, 81, 0
2, 99980, Note_on_c, 0, 74, 60
2, 100096, Note_on_c, 0, 74, 0
2, 100100, Note_on_c, 0, 72, 78
2, 100216, Note_on_c, 0, 72, 0
2, 100220, Note_on_c, 0, 71, 75
2, 100336, Note_on_c, 0, 71, 0
2, 100340, Note_on_c, 0, 72, 84
2, 100456, Note_on_c, 0, 72, 0
2, 100460, Note_on_c, 0, 69, 75
2, 100576, Note_on_c, 0, 69, 0
2, 100580, Note_on_c, 0, 71, 89
2, 100696, Note_on_c, 0, 71, 0
2, 100700, Note_on_c, 0, 76, 95
2, 100816, Note_on_c, 0, 76, 0
2, 100820, Note_on_c, 0, 74, 84
2, 100936, Note_on_c, 0, 74, 0
2, 100940, Note_on_c, 0, 72, 84
2, 101056, Note_on_c, 0, 72, 0
2, 101060, Note_on_c, 0, 74, 89
2, 101176, Note_on_c, 0, 74, 0
2, 101180, Note_on_c, 0, 80, 90
2, 101296, Note_on_c, 0, 80, 0
2, 101300, Note_on_c, 0, 83, 92
2, 101416, Note_on_c, 0, 83, 0
2, 101420, Note_on_c, 0, 76, 69
2, 101536, Note_on_c, 0, 76, 0
2, 101540, Note_on_c, 0, 74, 78
2, 101656, Note_on_c, 0, 74, 0
2, 101660, Note_on_c, 0, 72, 83
2, 101776, Note_on_c, 0, 72, 0
2, 101780, Note_on_c, 0, 74, 73
2, 101896, Note_on_c, 0, 74, 0
2, 101900, Note_on_c, 0, 71, 78
2, 102016, Note_on_c, 0, 71, 0
2, 102020, Note_on_c, 0, 72, 92
2, 102856, Note_on_c, 0, 72, 0
2, 102860, Note_on_c, 0, 71, 92
2, 102976, Note_on_c, 0, 71, 0
2, 102980, Note_on_c, 0, 69, 77
2, 103096, Note_on_c, 0, 69, 0
2, 103100, Note_on_c, 0, 71, 77
2, 103216, Note_on_c, 0, 71, 0
2, 103220, Note_on_c, 0, 72, 82
2, 103336, Note_on_c, 0, 72, 0
2, 103340, Note_on_c, 0, 69, 85
2, 103456, Note_on_c, 0, 69, 0
2, 103460, Note_on_c, 0, 74, 96
2, 103936, Note_on_c, 0, 74, 0
2, 103940, Note_on_c, 0, 71, 95
2, 104176, Note_on_c, 0, 71, 0
2, 104180, Note_on_c, 0, 67, 64
2, 104416, Note_on_c, 0, 67, 0
2, 104420, Note_on_c, 0, 69, 83
2, 104656, Note_on_c, 0, 69, 0
2, 104900, Note_on_c, 0, 67, 85
2, 106820, Note_on_c, 0, 67, 0
2, 108000, End_track
3, 0, Start_track
3, 0, Title_t, "goldberg.mid"
3, 20, Note_on_c, 1, 47, 100
3, 20, Note_on_c, 1, 50, 95
3, 560, Note_on_c, 1, 67, 82
3, 616, Note_on_c, 1, 67, 0
3, 620, Note_on_c, 1, 69, 68
3, 676, Note_on_c, 1, 69, 0
3, 680, Note_on_c, 1, 71, 86
3, 736, Note_on_c, 1, 71, 0
3, 740, Note_on_c, 1, 72, 89
3, 796, Note_on_c, 1, 72, 0
3, 800, Note_on_c, 1, 74, 95
3, 856, Note_on_c, 1, 74, 0
3, 860, Note_on_c, 1, 76, 82
3, 916, Note_on_c, 1, 76, 0
3, 920, Note_on_c, 1, 78, 94
3, 976, Note_on_c, 1, 78, 0
3, 980, Note_on_c, 1, 47, 0
3, 980, Note_on_c, 1, 50, 0
3, 980, Note_on_c, 1, 79, 102
3, 1336, Note_on_c, 1, 79, 0
3, 1340, Note_on_c, 1, 74, 102
3, 1456, Note_on_c, 1, 74, 0
3, 1460, Note_on_c, 1, 71, 96
3, 1800, Note_on_c, 1, 59, 102
3, 1816, Note_on_c, 1, 71, 0
3, 1820, Note_on_c, 1, 67, 106
3, 1936, Note_on_c, 1, 67, 0
3, 1940, Note_on_c, 1, 57, 106
3, 1940, Note_on_c, 1, 74, 104
3, 1952, Note_on_c, 1, 59, 0
3, 1996, Note_on_c, 1, 74, 0
3, 2000, Note_on_c, 1, 72, 89
3, 2056, Note_on_c, 1, 72, 0
3, 2060, Note_on_c, 1, 74, 96
3, 2420, Note_on_c, 1, 57, 0
3, 2896, Note_on_c, 1, 74, 0
3, 2900, Note_on_c, 1, 76, 104
3, 3140, Note_on_c, 1, 76, 0
3, 3140, Note_on_c, 1, 74, 106
3, 3260, Note_on_c, 1, 74, 0
3, 3260, Note_on_c, 1, 72, 96
3, 3320, Note_on_c, 1, 72, 0
3, 3320, Note_on_c, 1, 74, 96
3, 3380, Note_on_c, 1, 74, 0
3, 3380, Note_on_c, 1, 72, 85
3, 3620, Note_on_c, 1, 72, 0
3, 3680, Note_on_c, 1, 71, 77
3, 3736, Note_on_c, 1, 71, 0
3, 3740, Note_on_c, 1, 72, 85
3, 3796, Note_on_c, 1, 72, 0
3, 3800, Note_on_c, 1, 74, 85
3, 3856, Note_on_c, 1, 74, 0
3, 3860, Note_on_c, 1, 67, 104
3, 4220, Note_on_c, 1, 67, 0
3, 4220, Note_on_c, 1, 79, 102
3, 4276, Note_on_c, 1, 79, 0
3, 4280, Note_on_c, 1, 78, 85
3, 4336, Note_on_c, 1, 78, 0
3, 4340, Note_on_c, 1, 79, 97
3, 4700, Note_on_c, 1, 79, 0
3, 4700, Note_on_c, 1, 76, 102
3, 4820, Note_on_c, 1, 76, 0
3, 4820, Note_on_c, 1, 74, 100
3, 4936, Note_on_c, 1, 74, 0
3, 4940, Note_on_c, 1, 73, 102
3, 5176, Note_on_c, 1, 73, 0
3, 5180, Note_on_c, 1, 83, 113
3, 5296, Note_on_c, 1, 83, 0
3, 5300, Note_on_c, 1, 81, 107
3, 5660, Note_on_c, 1, 81, 0
3, 5660, Note_on_c, 1, 79, 92
3, 5780, Note_on_c, 1, 79, 0
3, 5780, Note_on_c, 1, 79, 95
3, 5900, Note_on_c, 1, 79, 0
3, 5900, Note_on_c, 1, 78, 86
3, 5960, Note_on_c, 1, 78, 0
3, 5960, Note_on_c, 1, 79, 86
3, 6020, Note_on_c, 1, 79, 0
3, 6020, Note_on_c, 1, 78, 86
3, 6380, Note_on_c, 1, 78, 0
3, 6500, Note_on_c, 1, 79, 93
3, 6740, Note_on_c, 1, 79, 0
3, 6740, Note_on_c, 1, 79, 71
3, 6976, Note_on_c, 1, 79, 0
3, 6980, Note_on_c, 1, 81, 90
3, 7996, Note_on_c, 1, 81, 0
3, 8000, Note_on_c, 1, 81, 93
3, 8056, Note_on_c, 1, 81, 0
3, 8060, Note_on_c, 1, 79, 84
3, 8116, Note_on_c, 1, 79, 0
3, 8120, Note_on_c, 1, 78, 81
3, 8176, Note_on_c, 1, 78, 0
3, 8180, Note_on_c, 1, 79, 102
3, 8536, Note_on_c, 1, 79, 0
3, 8540, Note_on_c, 1, 74, 95
3, 8660, Note_on_c, 1, 74, 0
3, 8660, Note_on_c, 1, 74, 97
3, 9616, Note_on_c, 1, 74, 0
3, 9620, Note_on_c, 1, 72, 89
3, 9860, Note_on_c, 1, 72, 0
3, 11540, Note_on_c, 1, 71, 100
3, 12020, Note_on_c, 1, 71, 0
3, 17180, Note_on_c, 1, 71, 100
3, 17300, Note_on_c, 1, 71, 0
3, 17300, Note_on_c, 1, 69, 100
3, 17780, Note_on_c, 1, 69, 0
3, 18140, Note_on_c, 1, 81, 100
3, 18260, Note_on_c, 1, 81, 0
3, 18260, Note_on_c, 1, 75, 100
3, 18620, Note_on_c, 1, 75, 0
3, 18620, Note_on_c, 1, 78, 100
3, 18740, Note_on_c, 1, 78, 0
3, 18740, Note_on_c, 1, 71, 100
3, 19700, Note_on_c, 1, 71, 0
3, 20180, Note_on_c, 1, 71, 100
3, 21140, Note_on_c, 1, 71, 0
3, 21140, Note_on_c, 1, 69, 100
3, 21620, Note_on_c, 1, 69, 0
3, 21620, Note_on_c, 1, 71, 100
3, 22100, Note_on_c, 1, 71, 0
3, 22100, Note_on_c, 1, 73, 100
3, 22580, Note_on_c, 1, 73, 0
3, 24020, Note_on_c, 1, 69, 100
3, 24500, Note_on_c, 1, 69, 0
3, 26300, Note_on_c, 1, 59, 75
3, 26420, Note_on_c, 1, 59, 0
3, 26420, Note_on_c, 1, 61, 75
3, 26900, Note_on_c, 1, 61, 0
3, 27860, Note_on_c, 1, 73, 100
3, 28820, Note_on_c, 1, 73, 0
3, 28820, Note_on_c, 1, 66, 100
3, 28820, Note_on_c, 1, 69, 100
3, 30740, Note_on_c, 1, 66, 0
3, 30740, Note_on_c, 1, 69, 0
3, 30740, Note_on_c, 1, 47, 100
3, 30740, Note_on_c, 1, 50, 95
3, 31280, Note_on_c, 1, 67, 82
3, 31336, Note_on_c, 1, 67, 0
3, 31340, Note_on_c, 1, 69, 68
3, 31396, Note_on_c, 1, 69, 0
3, 31400, Note_on_c, 1, 71, 86
3, 31456, Note_on_c, 1, 71, 0
3, 31460, Note_on_c, 1, 72, 89
3, 31516, Note_on_c, 1, 72, 0
3, 31520, Note_on_c, 1, 74, 95
3, 31576, Note_on_c, 1, 74, 0
3, 31580, Note_on_c, 1, 76, 82
3, 31636, Note_on_c, 1, 76, 0
3, 31640, Note_on_c, 1, 78, 94
3, 31696, Note_on_c, 1, 78, 0
3, 31700, Note_on_c, 1, 47, 0
3, 31700, Note_on_c, 1, 50, 0
3, 31700, Note_on_c, 1, 79, 102
3, 32056, Note_on_c, 1, 79, 0
3, 32060, Note_on_c, 1, 74, 102
3, 32176, Note_on_c, 1, 74, 0
3, 32180, Note_on_c, 1, 71, 96
3, 32520, Note_on_c, 1, 59, 102
3, 32536, Note_on_c, 1, 71, 0
3, 32540, Note_on_c, 1, 67, 106
3, 32656, Note_on_c, 1, 67, 0
3, 32660, Note_on_c, 1, 57, 106
3, 32660, Note_on_c, 1, 74, 104
3, 32672, Note_on_c, 1, 59, 0
3, 32716, Note_on_c, 1, 74, 0
3, 32720, Note_on_c, 1, 72, 89
3, 32776, Note_on_c, 1, 72, 0
3, 32780, Note_on_c, 1, 74, 96
3, 33140, Note_on_c, 1, 57, 0
3, 33616, Note_on_c, 1, 74, 0
3, 33620, Note_on_c, 1, 76, 104
3, 33860, Note_on_c, 1, 76, 0
3, 33860, Note_on_c, 1, 74, 106
3, 33980, Note_on_c, 1, 74, 0
3, 33980, Note_on_c, 1, 72, 96
3, 34040, Note_on_c, 1, 72, 0
3, 34040, Note_on_c, 1, 74, 96
3, 34100, Note_on_c, 1, 74, 0
3, 34100, Note_on_c, 1, 72, 85
3, 34340, Note_on_c, 1, 72, 0
3, 34400, Note_on_c, 1, 71, 77
3, 34456, Note_on_c, 1, 71, 0
3, 34460, Note_on_c, 1, 72, 85
3, 34516, Note_on_c, 1, 72, 0
3, 34520, Note_on_c, 1, 74, 85
3, 34576, Note_on_c, 1, 74, 0
3, 34580, Note_on_c, 1, 67, 104
3, 34940, Note_on_c, 1, 67, 0
3, 34940, Note_on_c, 1, 79, 102
3, 34996, Note_on_c, 1, 79, 0
3, 35000, Note_on_c, 1, 78, 85
3, 35056, Note_on_c, 1, 78, 0
3, 35060, Note_on_c, 1, 79, 97
3, 35420, Note_on_c, 1, 79, 0
3, 35420, Note_on_c, 1, 76, 102
3, 35540, Note_on_c, 1, 76, 0
3, 35540, Note_on_c, 1, 74, 100
3, 35656, Note_on_c, 1, 74, 0
3, 35660, Note_on_c, 1, 73, 102
3, 35896, Note_on_c, 1, 73, 0
3, 35900, Note_on_c, 1, 83, 113
3, 36016, Note_on_c, 1, 83, 0
3, 36020, Note_on_c, 1, 81, 107
3, 36380, Note_on_c, 1, 81, 0
3, 36380, Note_on_c, 1, 79, 92
3, 36500, Note_on_c, 1, 79, 0
3, 36500, Note_on_c, 1, 79, 95
3, 36620, Note_on_c, 1, 79, 0
3, 36620, Note_on_c, 1, 78, 86
3, 36680, Note_on_c, 1, 78, 0
3, 36680, Note_on_c, 1, 79, 86
3, 36740, Note_on_c, 1, 79, 0
3, 36740, Note_on_c, 1, 78, 86
3, 37100, Note_on_c, 1, 78, 0
3, 37220, Note_on_c, 1, 79, 93
3, 37460, Note_on_c, 1, 79, 0
3, 37460, Note_on_c, 1, 79, 71
3, 37696, Note_on_c, 1, 79, 0
3, 37700, Note_on_c, 1, 81, 90
3, 38716, Note_on_c, 1, 81, 0
3, 38720, Note_on_c, 1, 81, 93
3, 38776, Note_on_c, 1, 81, 0
3, 38780, Note_on_c, 1, 79, 84
3, 38836, Note_on_c, 1, 79, 0
3, 38840, Note_on_c, 1, 78, 81
3, 38896, Note_on_c, 1, 78, 0
3, 38900, Note_on_c, 1, 79, 102
3, 39256, Note_on_c, 1, 79, 0
3, 39260, Note_on_c, 1, 74, 95
3, 39380, Note_on_c, 1, 74, 0
3, 39380, Note_on_c, 1, 74, 97
3, 40336, Note_on_c, 1, 74, 0
3, 40340, Note_on_c, 1, 72, 89
3, 40580, Note_on_c, 1, 72, 0
3, 42260, Note_on_c, 1, 71, 100
3, 42740, Note_on_c, 1, 71, 0
3, 47900, Note_on_c, 1, 71, 100
3, 48020, Note_on_c, 1, 71, 0
3, 48020, Note_on_c, 1, 69, 100
3, 48500, Note_on_c, 1, 69, 0
3, 48860, Note_on_c, 1, 81, 100
3, 48980, Note_on_c, 1, 81, 0
3, 48980, Note_on_c, 1, 75, 100
3, 49340, Note_on_c, 1, 75, 0
3, 49340, Note_on_c, 1, 78, 100
3, 49460, Note_on_c, 1, 78, 0
3, 49460, Note_on_c, 1, 71, 100
3, 50420, Note_on_c, 1, 71, 0
3, 50900, Note_on_c, 1, 71, 100
3, 51860, Note_on_c, 1, 71, 0
3, 51860, Note_on_c, 1, 69, 100
3, 52340, Note_on_c, 1, 69, 0
3, 52340, Note_on_c, 1, 71, 100
3, 52820, Note_on_c, 1, 71, 0
3, 52820, Note_on_c, 1, 73, 100
3, 53300, Note_on_c, 1, 73, 0
3, 54740, Note_on_c, 1, 69, 100
3, 55220, Note_on_c, 1, 69, 0
3, 57020, Note_on_c, 1, 59, 75
3, 57140, Note_on_c, 1, 59, 0
3, 57140, Note_on_c, 1, 61, 75
3, 57620, Note_on_c, 1, 61, 0
3, 58580, Note_on_c, 1, 73, 100
3, 59540, Note_on_c, 1, 73, 0
3, 60500, Note_on_c, 1, 74, 101
3, 60616, Note_on_c, 1, 74, 0
3, 60620, Note_on_c, 1, 72, 96
3, 60736, Note_on_c, 1, 72, 0
3, 60740, Note_on_c, 1, 71, 106
3, 60856, Note_on_c, 1, 71, 0
3, 60860, Note_on_c, 1, 69, 91
3, 60976, Note_on_c, 1, 69, 0
3, 60980, Note_on_c, 1, 71, 102
3, 61216, Note_on_c, 1, 71, 0
3, 61220, Note_on_c, 1, 72, 98
3, 61456, Note_on_c, 1, 72, 0
3, 61460, Note_on_c, 1, 74, 100
3, 61696, Note_on_c, 1, 74, 0
3, 61700, Note_on_c, 1, 67, 90
3, 61816, Note_on_c, 1, 67, 0
3, 61820, Note_on_c, 1, 71, 91
3, 61936, Note_on_c, 1, 71, 0
3, 61940, Note_on_c, 1, 69, 82
3, 62056, Note_on_c, 1, 69, 0
3, 62060, Note_on_c, 1, 72, 91
3, 62176, Note_on_c, 1, 72, 0
3, 62180, Note_on_c, 1, 71, 91
3, 62296, Note_on_c, 1, 71, 0
3, 62300, Note_on_c, 1, 74, 98
3, 62416, Note_on_c, 1, 74, 0
3, 62420, Note_on_c, 1, 72, 106
3, 63256, Note_on_c, 1, 72, 0
3, 63260, Note_on_c, 1, 79, 101
3, 63376, Note_on_c, 1, 79, 0
3, 63380, Note_on_c, 1, 78, 84
3, 63496, Note_on_c, 1, 78, 0
3, 63500, Note_on_c, 1, 76, 100
3, 63616, Note_on_c, 1, 76, 0
3, 63620, Note_on_c, 1, 75, 88
3, 63736, Note_on_c, 1, 75, 0
3, 63740, Note_on_c, 1, 76, 100
3, 63856, Note_on_c, 1, 76, 0
3, 63860, Note_on_c, 1, 71, 95
3, 64580, Note_on_c, 1, 71, 0
3, 64700, Note_on_c, 1, 73, 94
3, 64816, Note_on_c, 1, 73, 0
3, 64820, Note_on_c, 1, 75, 97
3, 64936, Note_on_c, 1, 75, 0
3, 64940, Note_on_c, 1, 76, 82
3, 65056, Note_on_c, 1, 76, 0
3, 65060, Note_on_c, 1, 78, 88
3, 65176, Note_on_c, 1, 78, 0
3, 65180, Note_on_c, 1, 75, 94
3, 65296, Note_on_c, 1, 75, 0
3, 65300, Note_on_c, 1, 76, 88
3, 65540, Note_on_c, 1, 76, 0
3, 67460, Note_on_c, 1, 69, 84
3, 67696, Note_on_c, 1, 69, 0
3, 67700, Note_on_c, 1, 71, 102
3, 67936, Note_on_c, 1, 71, 0
3, 67940, Note_on_c, 1, 72, 97
3, 68176, Note_on_c, 1, 72, 0
3, 68180, Note_on_c, 1, 74, 98
3, 68416, Note_on_c, 1, 74, 0
3, 68420, Note_on_c, 1, 76, 101
3, 68656, Note_on_c, 1, 76, 0
3, 68660, Note_on_c, 1, 78, 106
3, 68896, Note_on_c, 1, 78, 0
3, 68900, Note_on_c, 1, 79, 107
3, 69376, Note_on_c, 1, 79, 0
3, 69380, Note_on_c, 1, 74, 101
3, 69616, Note_on_c, 1, 74, 0
3, 69620, Note_on_c, 1, 67, 104
3, 69856, Note_on_c, 1, 67, 0
3, 69860, Note_on_c, 1, 69, 91
3, 70096, Note_on_c, 1, 69, 0
3, 70100, Note_on_c, 1, 66, 96
3, 70336, Note_on_c, 1, 66, 0
3, 70340, Note_on_c, 1, 67, 101
3, 70576, Note_on_c, 1, 67, 0
3, 70580, Note_on_c, 1, 69, 110
3, 70640, Note_on_c, 1, 69, 0
3, 70640, Note_on_c, 1, 68, 85
3, 70696, Note_on_c, 1, 68, 0
3, 70700, Note_on_c, 1, 69, 81
3, 70756, Note_on_c, 1, 69, 0
3, 70760, Note_on_c, 1, 68, 79
3, 70816, Note_on_c, 1, 68, 0
3, 70820, Note_on_c, 1, 69, 76
3, 70880, Note_on_c, 1, 69, 0
3, 70880, Note_on_c, 1, 68, 76
3, 70940, Note_on_c, 1, 68, 0
3, 70940, Note_on_c, 1, 66, 69
3, 70996, Note_on_c, 1, 66, 0
3, 71000, Note_on_c, 1, 68, 86
3, 71056, Note_on_c, 1, 68, 0
3, 71060, Note_on_c, 1, 69, 115
3, 71536, Note_on_c, 1, 69, 0
3, 71540, Note_on_c, 1, 68, 108
3, 71776, Note_on_c, 1, 68, 0
3, 71780, Note_on_c, 1, 69, 101
3, 72016, Note_on_c, 1, 69, 0
3, 72020, Note_on_c, 1, 67, 111
3, 72496, Note_on_c, 1, 67, 0
3, 72500, Note_on_c, 1, 66, 97
3, 72736, Note_on_c, 1, 66, 0
3, 72740, Note_on_c, 1, 67, 100
3, 72976, Note_on_c, 1, 67, 0
3, 72980, Note_on_c, 1, 64, 91
3, 73216, Note_on_c, 1, 64, 0
3, 73220, Note_on_c, 1, 66, 89
3, 73336, Note_on_c, 1, 66, 0
3, 75620, Note_on_c, 1, 66, 104
3, 75856, Note_on_c, 1, 66, 0
3, 75860, Note_on_c, 1, 69, 111
3, 75916, Note_on_c, 1, 69, 0
3, 75920, Note_on_c, 1, 67, 93
3, 75976, Note_on_c, 1, 67, 0
3, 75980, Note_on_c, 1, 66, 102
3, 76036, Note_on_c, 1, 66, 0
3, 76040, Note_on_c, 1, 67, 93
3, 76096, Note_on_c, 1, 67, 0
3, 76100, Note_on_c, 1, 69, 102
3, 76636, Note_on_c, 1, 69, 0
3, 79100, Note_on_c, 1, 67, 98
3, 79216, Note_on_c, 1, 67, 0
3, 79220, Note_on_c, 1, 66, 90
3, 79336, Note_on_c, 1, 66, 0
3, 79340, Note_on_c, 1, 67, 96
3, 79456, Note_on_c, 1, 67, 0
3, 79460, Note_on_c, 1, 69, 88
3, 79576, Note_on_c, 1, 69, 0
3, 79580, Note_on_c, 1, 66, 82
3, 79696, Note_on_c, 1, 66, 0
3, 79700, Note_on_c, 1, 62, 100
3, 80536, Note_on_c, 1, 62, 0
3, 80540, Note_on_c, 1, 66, 97
3, 80656, Note_on_c, 1, 66, 0
3, 80660, Note_on_c, 1, 64, 98
3, 80776, Note_on_c, 1, 64, 0
3, 80780, Note_on_c, 1, 67, 97
3, 80896, Note_on_c, 1, 67, 0
3, 80900, Note_on_c, 1, 66, 106
3, 81136, Note_on_c, 1, 66, 0
3, 81140, Note_on_c, 1, 59, 106
3, 81380, Note_on_c, 1, 59, 0
3, 81380, Note_on_c, 1, 60, 100
3, 81616, Note_on_c, 1, 60, 0
3, 81620, Note_on_c, 1, 57, 101
3, 81856, Note_on_c, 1, 57, 0
3, 81860, Note_on_c, 1, 59, 96
3, 82336, Note_on_c, 1, 59, 0
3, 83540, Note_on_c, 1, 74, 101
3, 83656, Note_on_c, 1, 74, 0
3, 83660, Note_on_c, 1, 72, 96
3, 83776, Note_on_c, 1, 72, 0
3, 83780, Note_on_c, 1, 71, 106
3, 83896, Note_on_c, 1, 71, 0
3, 83900, Note_on_c, 1, 69, 91
3, 84016, Note_on_c, 1, 69, 0
3, 84020, Note_on_c, 1, 71, 102
3, 84256, Note_on_c, 1, 71, 0
3, 84260, Note_on_c, 1, 72, 98
3, 84496, Note_on_c, 1, 72, 0
3, 84500, Note_on_c, 1, 74, 100
3, 84736, Note_on_c, 1, 74, 0
3, 84740, Note_on_c, 1, 67, 90
3, 84856, Note_on_c, 1, 67, 0
3, 84860, Note_on_c, 1, 71, 91
3, 84976, Note_on_c, 1, 71, 0
3, 84980, Note_on_c, 1, 69, 82
3, 85096, Note_on_c, 1, 69, 0
3, 85100, Note_on_c, 1, 72, 91
3, 85216, Note_on_c, 1, 72, 0
3, 85220, Note_on_c, 1, 71, 91
3, 85336, Note_on_c, 1, 71, 0
3, 85340, Note_on_c, 1, 74, 98
3, 85456, Note_on_c, 1, 74, 0
3, 85460, Note_on_c, 1, 72, 106
3, 86296, Note_on_c, 1, 72, 0
3, 86300, Note_on_c, 1, 79, 101
3, 86416, Note_on_c, 1, 79, 0
3, 86420, Note_on_c, 1, 78, 84
3, 86536, Note_on_c, 1, 78, 0
3, 86540, Note_on_c, 1, 76, 100
3, 86656, Note_on_c, 1, 76, 0
3, 86660, Note_on_c, 1, 75, 88
3, 86776, Note_on_c, 1, 75, 0
3, 86780, Note_on_c, 1, 76, 100
3, 86896, Note_on_c, 1, 76, 0
3, 86900, Note_on_c, 1, 71, 95
3, 87620, Note_on_c, 1, 71, 0
3, 87740, Note_on_c, 1, 73, 94
3, 87856, Note_on_c, 1, 73, 0
3, 87860, Note_on_c, 1, 75, 97
3, 87976, Note_on_c, 1, 75, 0
3, 87980, Note_on_c, 1, 76, 82
3, 88096, Note_on_c, 1, 76, 0
3, 88100, Note_on_c, 1, 78, 88
3, 88216, Note_on_c, 1, 78, 0
3, 88220, Note_on_c, 1, 75, 94
3, 88336, Note_on_c, 1, 75, 0
3, 88340, Note_on_c, 1, 76, 88
3, 88580, Note_on_c, 1, 76, 0
3, 90500, Note_on_c, 1, 69, 84
3, 90736, Note_on_c, 1, 69, 0
3, 90740, Note_on_c, 1, 71, 102
3, 90976, Note_on_c, 1, 71, 0
3, 90980, Note_on_c, 1, 72, 97
3, 91216, Note_on_c, 1, 72, 0
3, 91220, Note_on_c, 1, 74, 98
3, 91456, Note_on_c, 1, 74, 0
3, 91460, Note_on_c, 1, 76, 101
3, 91696, Note_on_c, 1, 76, 0
3, 91700, Note_on_c, 1, 78, 106
3, 91936, Note_on_c, 1, 78, 0
3, 91940, Note_on_c, 1, 79, 107
3, 92416, Note_on_c, 1, 79, 0
3, 92420, Note_on_c, 1, 74, 101
3, 92656, Note_on_c, 1, 74, 0
3, 92660, Note_on_c, 1, 67, 104
3, 92896, Note_on_c, 1, 67, 0
3, 92900, Note_on_c, 1, 69, 91
3, 93136, Note_on_c, 1, 69, 0
3, 93140, Note_on_c, 1, 66, 96
3, 93376, Note_on_c, 1, 66, 0
3, 93380, Note_on_c, 1, 67, 101
3, 93616, Note_on_c, 1, 67, 0
3, 93620, Note_on_c, 1, 69, 110
3, 93680, Note_on_c, 1, 69, 0
3, 93680, Note_on_c, 1, 68, 85
3, 93736, Note_on_c, 1, 68, 0
3, 93740, Note_on_c, 1, 69, 81
3, 93796, Note_on_c, 1, 69, 0
3, 93800, Note_on_c, 1, 68, 79
3, 93856, Note_on_c, 1, 68, 0
3, 93860, Note_on_c, 1, 69, 76
3, 93920, Note_on_c, 1, 69, 0
3, 93920, Note_on_c, 1, 68, 76
3, 93980, Note_on_c, 1, 68, 0
3, 93980, Note_on_c, 1, 66, 69
3, 94036, Note_on_c, 1, 66, 0
3, 94040, Note_on_c, 1, 68, 86
3, 94096, Note_on_c, 1, 68, 0
3, 94100, Note_on_c, 1, 69, 115
3, 94576, Note_on_c, 1, 69, 0
3, 94580, Note_on_c, 1, 68, 108
3, 94816, Note_on_c, 1, 68, 0
3, 94820, Note_on_c, 1, 69, 101
3, 95056, Note_on_c, 1, 69, 0
3, 95060, Note_on_c, 1, 67, 111
3, 95536, Note_on_c, 1, 67, 0
3, 95540, Note_on_c, 1, 66, 97
3, 95776, Note_on_c, 1, 66, 0
3, 95780, Note_on_c, 1, 67, 100
3, 96016, Note_on_c, 1, 67, 0
3, 96020, Note_on_c, 1, 64, 91
3, 96256, Note_on_c, 1, 64, 0
3, 96260, Note_on_c, 1, 66, 89
3, 96376, Note_on_c, 1, 66, 0
3, 98660, Note_on_c, 1, 66, 104
3, 98896, Note_on_c, 1, 66, 0
3, 98900, Note_on_c, 1, 69, 111
3, 98956, Note_on_c, 1, 69, 0
3, 98960, Note_on_c, 1, 67, 93
3, 99016, Note_on_c, 1, 67, 0
3, 99020, Note_on_c, 1, 66, 102
3, 99076, Note_on_c, 1, 66, 0
3, 99080, Note_on_c, 1, 67, 93
3, 99136, Note_on_c, 1, 67, 0
3, 99140, Note_on_c, 1, 69, 102
3, 99676, Note_on_c, 1, 69, 0
3, 102140, Note_on_c, 1, 67, 98
3, 102256, Note_on_c, 1, 67, 0
3, 102260, Note_on_c, 1, 66, 90
3, 102376, Note_on_c, 1, 66, 0
3, 102380, Note_on_c, 1, 67, 96
3, 102496, Note_on_c, 1, 67, 0
3, 102500, Note_on_c, 1, 69, 88
3, 102616, Note_on_c, 1, 69, 0
3, 102620, Note_on_c, 1, 66, 82
3, 102736, Note_on_c, 1, 66, 0
3, 102740, Note_on_c, 1, 62, 100
3, 103576, Note_on_c, 1, 62, 0
3, 103580, Note_on_c, 1, 66, 97
3, 103696, Note_on_c, 1, 66, 0
3, 103700, Note_on_c, 1, 64, 98
3, 103816, Note_on_c, 1, 64, 0
3, 103820, Note_on_c, 1, 67, 97
3, 103936, Note_on_c, 1, 67, 0
3, 103940, Note_on_c, 1, 66, 106
3, 104176, Note_on_c, 1, 66, 0
3, 104180, Note_on_c, 1, 59, 106
3, 104420, Note_on_c, 1, 59, 0
3, 104420, Note_on_c, 1, 60, 106
3, 104660, Note_on_c, 1, 60, 0
3, 104660, Note_on_c, 1, 57, 101
3, 104896, Note_on_c, 1, 57, 0
3, 104900, Note_on_c, 1, 62, 100
3, 106820, Note_on_c, 1, 62, 0
3, 108000, End_track
4, 0, Start_track
4, 0, Title_t, "goldberg.mid"
4, 62660, Note_on_c, 2, 69, 102
4, 62776, Note_on_c, 2, 69, 0
4, 62780, Note_on_c, 2, 67, 95
4, 62896, Note_on_c, 2, 67, 0
4, 62900, Note_on_c, 2, 66, 102
4, 63016, Note_on_c, 2, 66, 0
4, 63020, Note_on_c, 2, 64, 102
4, 63136, Note_on_c, 2, 64, 0
4, 63140, Note_on_c, 2, 66, 104
4, 63376, Note_on_c, 2, 66, 0
4, 63380, Note_on_c, 2, 67, 111
4, 63616, Note_on_c, 2, 67, 0
4, 63620, Note_on_c, 2, 69, 102
4, 63856, Note_on_c, 2, 69, 0
4, 63860, Note_on_c, 2, 63, 106
4, 63976, Note_on_c, 2, 63, 0
4, 63980, Note_on_c, 2, 66, 102
4, 64096, Note_on_c, 2, 66, 0
4, 64100, Note_on_c, 2, 64, 98
4, 64216, Note_on_c, 2, 64, 0
4, 64220, Note_on_c, 2, 67, 101
4, 64336, Note_on_c, 2, 67, 0
4, 64340, Note_on_c, 2, 66, 104
4, 64456, Note_on_c, 2, 66, 0
4, 64460, Note_on_c, 2, 69, 101
4, 64576, Note_on_c, 2, 69, 0
4, 64580, Note_on_c, 2, 67, 100
4, 64816, Note_on_c, 2, 67, 0
4, 64820, Note_on_c, 2, 66, 108
4, 65056, Note_on_c, 2, 66, 0
4, 65540, Note_on_c, 2, 64, 104
4, 65776, Note_on_c, 2, 64, 0
4, 65780, Note_on_c, 2, 63, 104
4, 66016, Note_on_c, 2, 63, 0
4, 66020, Note_on_c, 2, 64, 106
4, 67216, Note_on_c, 2, 64, 0
4, 74180, Note_on_c, 2, 55, 102
4, 74416, Note_on_c, 2, 55, 0
4, 74420, Note_on_c, 2, 54, 104
4, 74656, Note_on_c, 2, 54, 0
4, 74660, Note_on_c, 2, 55, 111
4, 75376, Note_on_c, 2, 55, 0
4, 85700, Note_on_c, 2, 69, 102
4, 85816, Note_on_c, 2, 69, 0
4, 85820, Note_on_c, 2, 67, 95
4, 85936, Note_on_c, 2, 67, 0
4, 85940, Note_on_c, 2, 66, 102
4, 86056, Note_on_c, 2, 66, 0
4, 86060, Note_on_c, 2, 64, 102
4, 86176, Note_on_c, 2, 64, 0
4, 86180, Note_on_c, 2, 66, 104
4, 86416, Note_on_c, 2, 66, 0
4, 86420, Note_on_c, 2, 67, 111
4, 86656, Note_on_c, 2, 67, 0
4, 86660, Note_on_c, 2, 69, 102
4, 86896, Note_on_c, 2, 69, 0
4, 86900, Note_on_c, 2, 63, 106
4, 87016, Note_on_c, 2, 63, 0
4, 87020, Note_on_c, 2, 66, 102
4, 87136, Note_on_c, 2, 66, 0
4, 87140, Note_on_c, 2, 64, 98
4, 87256, Note_on_c, 2, 64, 0
4, 87260, Note_on_c, 2, 67, 101
4, 87376, Note_on_c, 2, 67, 0
4, 87380, Note_on_c, 2, 66, 104
4, 87496, Note_on_c, 2, 66, 0
4, 87500, Note_on_c, 2, 69, 101
4, 87616, Note_on_c, 2, 69, 0
4, 87620, Note_on_c, 2, 67, 100
4, 87856, Note_on_c, 2, 67, 0
4, 87860, Note_on_c, 2, 66, 108
4, 88096, Note_on_c, 2, 66, 0
4, 88580, Note_on_c, 2, 64, 104
4, 88816, Note_on_c, 2, 64, 0
4, 88820, Note_on_c, 2, 63, 104
4, 89056, Note_on_c, 2, 63, 0
4, 89060, Note_on_c, 2, 64, 106
4, 90256, Note_on_c, 2, 64, 0
4, 97220, Note_on_c, 2, 55, 102
4, 97456, Note_on_c, 2, 55, 0
4, 97460, Note_on_c, 2, 54, 104
4, 97696, Note_on_c, 2, 54, 0
4, 97700, Note_on_c, 2, 55, 111
4, 98416, Note_on_c, 2, 55, 0
4, 104900, Note_on_c, 2, 59, 102
4, 106820, Note_on_c, 2, 59, 0
4, 108000, End_track
5, 0, Start_track
5, 0, Title_t, "goldberg.mid"
5, 20, Note_on_c, 3, 43, 113
5, 980, Note_on_c, 3, 43, 0
5, 1820, Note_on_c, 3, 55, 107
5, 1936, Note_on_c, 3, 55, 0
5, 1940, Note_on_c, 3, 54, 96
5, 2476, Note_on_c, 3, 54, 0
5, 2480, Note_on_c, 3, 50, 71
5, 2536, Note_on_c, 3, 50, 0
5, 2540, Note_on_c, 3, 52, 95
5, 2596, Note_on_c, 3, 52, 0
5, 2600, Note_on_c, 3, 54, 102
5, 2656, Note_on_c, 3, 54, 0
5, 2660, Note_on_c, 3, 55, 85
5, 2716, Note_on_c, 3, 55, 0
5, 2720, Note_on_c, 3, 57, 70
5, 2776, Note_on_c, 3, 57, 0
5, 2780, Note_on_c, 3, 59, 88
5, 2836, Note_on_c, 3, 59, 0
5, 2840, Note_on_c, 3, 60, 90
5, 2896, Note_on_c, 3, 60, 0
5, 2900, Note_on_c, 3, 62, 107
5, 3260, Note_on_c, 3, 62, 0
5, 3260, Note_on_c, 3, 57, 91
5, 3376, Note_on_c, 3, 57, 0
5, 3380, Note_on_c, 3, 54, 106
5, 3736, Note_on_c, 3, 54, 0
5, 3740, Note_on_c, 3, 50, 90
5, 3856, Note_on_c, 3, 50, 0
5, 3860, Note_on_c, 3, 52, 106
5, 4576, Note_on_c, 3, 52, 0
5, 4580, Note_on_c, 3, 55, 104
5, 4816, Note_on_c, 3, 55, 0
5, 4820, Note_on_c, 3, 54, 102
5, 4936, Note_on_c, 3, 54, 0
5, 4940, Note_on_c, 3, 52, 88
5, 5000, Note_on_c, 3, 52, 0
5, 5000, Note_on_c, 3, 54, 82
5, 5056, Note_on_c, 3, 54, 0
5, 5060, Note_on_c, 3, 52, 83
5, 5540, Note_on_c, 3, 52, 0
5, 5600, Note_on_c, 3, 50, 97
5, 5660, Note_on_c, 3, 50, 0
5, 5660, Note_on_c, 3, 52, 101
5, 5720, Note_on_c, 3, 52, 0
5, 5720, Note_on_c, 3, 54, 102
5, 5780, Note_on_c, 3, 54, 0
5, 5780, Note_on_c, 3, 50, 106
5, 6140, Note_on_c, 3, 50, 0
5, 6140, Note_on_c, 3, 60, 100
5, 6196, Note_on_c, 3, 60, 0
5, 6200, Note_on_c, 3, 59, 96
5, 6256, Note_on_c, 3, 59, 0
5, 6260, Note_on_c, 3, 60, 115
5, 6616, Note_on_c, 3, 60, 0
5, 6620, Note_on_c, 3, 57, 106
5, 6736, Note_on_c, 3, 57, 0
5, 6740, Note_on_c, 3, 54, 97
5, 7096, Note_on_c, 3, 54, 0
5, 7100, Note_on_c, 3, 64, 106
5, 7216, Note_on_c, 3, 64, 0
5, 7220, Note_on_c, 3, 62, 97
5, 7580, Note_on_c, 3, 62, 0
5, 7580, Note_on_c, 3, 60, 86
5, 7700, Note_on_c, 3, 60, 0
5, 7700, Note_on_c, 3, 60, 96
5, 7816, Note_on_c, 3, 60, 0
5, 7820, Note_on_c, 3, 59, 81
5, 7876, Note_on_c, 3, 59, 0
5, 7880, Note_on_c, 3, 60, 81
5, 7936, Note_on_c, 3, 60, 0
5, 7940, Note_on_c, 3, 59, 81
5, 8420, Note_on_c, 3, 59, 0
5, 8420, Note_on_c, 3, 59, 96
5, 8660, Note_on_c, 3, 59, 0
5, 8660, Note_on_c, 3, 59, 97
5, 8900, Note_on_c, 3, 59, 0
5, 8960, Note_on_c, 3, 60, 89
5, 9020, Note_on_c, 3, 60, 0
5, 9020, Note_on_c, 3, 59, 89
5, 9080, Note_on_c, 3, 59, 0
5, 9080, Note_on_c, 3, 57, 80
5, 9140, Note_on_c, 3, 57, 0
5, 9140, Note_on_c, 3, 59, 101
5, 9496, Note_on_c, 3, 59, 0
5, 9500, Note_on_c, 3, 55, 92
5, 9616, Note_on_c, 3, 55, 0
5, 9620, Note_on_c, 3, 60, 101
5, 9676, Note_on_c, 3, 60, 0
5, 9680, Note_on_c, 3, 59, 91
5, 9736, Note_on_c, 3, 59, 0
5, 9740, Note_on_c, 3, 60, 92
5, 10220, Note_on_c, 3, 60, 0
5, 10400, Note_on_c, 3, 62, 86
5, 10460, Note_on_c, 3, 62, 0
5, 10460, Note_on_c, 3, 60, 83
5, 10520, Note_on_c, 3, 60, 0
5, 10520, Note_on_c, 3, 59, 84
5, 10580, Note_on_c, 3, 59, 0
5, 10580, Note_on_c, 3, 60, 96
5, 10820, Note_on_c, 3, 60, 0
5, 10880, Note_on_c, 3, 59, 90
5, 10936, Note_on_c, 3, 59, 0
5, 10940, Note_on_c, 3, 57, 84
5, 10996, Note_on_c, 3, 57, 0
5, 11000, Note_on_c, 3, 55, 75
5, 11056, Note_on_c, 3, 55, 0
5, 11060, Note_on_c, 3, 57, 102
5, 11300, Note_on_c, 3, 57, 0
5, 11360, Note_on_c, 3, 55, 46
5, 11416, Note_on_c, 3, 55, 0
5, 11420, Note_on_c, 3, 54, 80
5, 11476, Note_on_c, 3, 54, 0
5, 11480, Note_on_c, 3, 52, 78
5, 11536, Note_on_c, 3, 52, 0
5, 11540, Note_on_c, 3, 50, 109
5, 12500, Note_on_c, 3, 50, 0
5, 12620, Note_on_c, 3, 48, 93
5, 12676, Note_on_c, 3, 48, 0
5, 12680, Note_on_c, 3, 47, 89
5, 12736, Note_on_c, 3, 47, 0
5, 12740, Note_on_c, 3, 45, 89
5, 12796, Note_on_c, 3, 45, 0
5, 12800, Note_on_c, 3, 43, 101
5, 12856, Note_on_c, 3, 43, 0
5, 12860, Note_on_c, 3, 42, 101
5, 12916, Note_on_c, 3, 42, 0
5, 12920, Note_on_c, 3, 40, 84
5, 12976, Note_on_c, 3, 40, 0
5, 12980, Note_on_c, 3, 38, 119
5, 13096, Note_on_c, 3, 38, 0
5, 13100, Note_on_c, 3, 42, 101
5, 13220, Note_on_c, 3, 42, 0
5, 13220, Note_on_c, 3, 45, 89
5, 13336, Note_on_c, 3, 45, 0
5, 13340, Note_on_c, 3, 50, 74
5, 13460, Note_on_c, 3, 50, 0
5, 13460, Note_on_c, 3, 43, 83
5, 13520, Note_on_c, 3, 43, 0
5, 13580, Note_on_c, 3, 50, 80
5, 13640, Note_on_c, 3, 50, 0
5, 13700, Note_on_c, 3, 52, 92
5, 13756, Note_on_c, 3, 52, 0
5, 13820, Note_on_c, 3, 54, 89
5, 13876, Note_on_c, 3, 54, 0
5, 13940, Note_on_c, 3, 55, 80
5, 13996, Note_on_c, 3, 55, 0
5, 14060, Note_on_c, 3, 54, 85
5, 14116, Note_on_c, 3, 54, 0
5, 14180, Note_on_c, 3, 55, 50
5, 14236, Note_on_c, 3, 55, 0
5, 14300, Note_on_c, 3, 57, 75
5, 14356, Note_on_c, 3, 57, 0
5, 14420, Note_on_c, 3, 59, 90
5, 15140, Note_on_c, 3, 59, 0
5, 15200, Note_on_c, 3, 57, 57
5, 15256, Note_on_c, 3, 57, 0
5, 15260, Note_on_c, 3, 55, 61
5, 15316, Note_on_c, 3, 55, 0
5, 15320, Note_on_c, 3, 54, 75
5, 15376, Note_on_c, 3, 54, 0
5, 15380, Note_on_c, 3, 55, 82
5, 15436, Note_on_c, 3, 55, 0
5, 15500, Note_on_c, 3, 59, 74
5, 15556, Note_on_c, 3, 59, 0
5, 15620, Note_on_c, 3, 61, 75
5, 15680, Note_on_c, 3, 61, 0
5, 15740, Note_on_c, 3, 63, 77
5, 15796, Note_on_c, 3, 63, 0
5, 15860, Note_on_c, 3, 64, 69
5, 15916, Note_on_c, 3, 64, 0
5, 15980, Note_on_c, 3, 63, 80
5, 16036, Note_on_c, 3, 63, 0
5, 16100, Note_on_c, 3, 64, 78
5, 16156, Note_on_c, 3, 64, 0
5, 16220, Note_on_c, 3, 66, 79
5, 16276, Note_on_c, 3, 66, 0
5, 16340, Note_on_c, 3, 67, 93
5, 16696, Note_on_c, 3, 67, 0
5, 16700, Note_on_c, 3, 55, 78
5, 16820, Note_on_c, 3, 55, 0
5, 16820, Note_on_c, 3, 67, 96
5, 17180, Note_on_c, 3, 67, 0
5, 17180, Note_on_c, 3, 67, 95
5, 17300, Note_on_c, 3, 67, 0
5, 17300, Note_on_c, 3, 67, 102
5, 18020, Note_on_c, 3, 67, 0
5, 18080, Note_on_c, 3, 67, 100
5, 18136, Note_on_c, 3, 67, 0
5, 18140, Note_on_c, 3, 66, 82
5, 18196, Note_on_c, 3, 66, 0
5, 18200, Note_on_c, 3, 64, 63
5, 18256, Note_on_c, 3, 64, 0
5, 18260, Note_on_c, 3, 66, 101
5, 18500, Note_on_c, 3, 66, 0
5, 18560, Note_on_c, 3, 59, 84
5, 18616, Note_on_c, 3, 59, 0
5, 18620, Note_on_c, 3, 61, 101
5, 18676, Note_on_c, 3, 61, 0
5, 18680, Note_on_c, 3, 63, 97
5, 18736, Note_on_c, 3, 63, 0
5, 18740, Note_on_c, 3, 64, 97
5, 19096, Note_on_c, 3, 64, 0
5, 19100, Note_on_c, 3, 64, 97
5, 19220, Note_on_c, 3, 64, 0
5, 19220, Note_on_c, 3, 64, 101
5, 19940, Note_on_c, 3, 64, 0
5, 20000, Note_on_c, 3, 60, 101
5, 20060, Note_on_c, 3, 60, 0
5, 20060, Note_on_c, 3, 59, 101
5, 20120, Note_on_c, 3, 59, 0
5, 20120, Note_on_c, 3, 57, 101
5, 20180, Note_on_c, 3, 57, 0
5, 20180, Note_on_c, 3, 56, 101
5, 20540, Note_on_c, 3, 56, 0
5, 20540, Note_on_c, 3, 59, 101
5, 20660, Note_on_c, 3, 59, 0
5, 20660, Note_on_c, 3, 52, 101
5, 21020, Note_on_c, 3, 52, 0
5, 21020, Note_on_c, 3, 56, 101
5, 21140, Note_on_c, 3, 56, 0
5, 21140, Note_on_c, 3, 57, 101
5, 21620, Note_on_c, 3, 57, 0
5, 21740, Note_on_c, 3, 45, 101
5, 21800, Note_on_c, 3, 45, 0
5, 21800, Note_on_c, 3, 47, 101
5, 21860, Note_on_c, 3, 47, 0
5, 21860, Note_on_c, 3, 49, 101
5, 21920, Note_on_c, 3, 49, 0
5, 21920, Note_on_c, 3, 50, 101
5, 21980, Note_on_c, 3, 50, 0
5, 21980, Note_on_c, 3, 52, 101
5, 22040, Note_on_c, 3, 52, 0
5, 22040, Note_on_c, 3, 54, 101
5, 22100, Note_on_c, 3, 54, 0
5, 22100, Note_on_c, 3, 55, 101
5, 22460, Note_on_c, 3, 55, 0
5, 22460, Note_on_c, 3, 52, 101
5, 22580, Note_on_c, 3, 52, 0
5, 22580, Note_on_c, 3, 49, 101
5, 22940, Note_on_c, 3, 49, 0
5, 22940, Note_on_c, 3, 45, 101
5, 23060, Note_on_c, 3, 45, 0
5, 23060, Note_on_c, 3, 54, 101
5, 23780, Note_on_c, 3, 54, 0
5, 23840, Note_on_c, 3, 55, 101
5, 23900, Note_on_c, 3, 55, 0
5, 23900, Note_on_c, 3, 54, 101
5, 23960, Note_on_c, 3, 54, 0
5, 23960, Note_on_c, 3, 52, 101
5, 24020, Note_on_c, 3, 52, 0
5, 24020, Note_on_c, 3, 50, 101
5, 24260, Note_on_c, 3, 50, 0
5, 24320, Note_on_c, 3, 48, 101
5, 24380, Note_on_c, 3, 48, 0
5, 24380, Note_on_c, 3, 47, 101
5, 24440, Note_on_c, 3, 47, 0
5, 24440, Note_on_c, 3, 45, 101
5, 24500, Note_on_c, 3, 45, 0
5, 24500, Note_on_c, 3, 43, 101
5, 24740, Note_on_c, 3, 43, 0
5, 24800, Note_on_c, 3, 50, 101
5, 24860, Note_on_c, 3, 50, 0
5, 24860, Note_on_c, 3, 52, 101
5, 24920, Note_on_c, 3, 52, 0
5, 24920, Note_on_c, 3, 54, 101
5, 24980, Note_on_c, 3, 54, 0
5, 24980, Note_on_c, 3, 55, 101
5, 25040, Note_on_c, 3, 55, 0
5, 25040, Note_on_c, 3, 54, 101
5, 25100, Note_on_c, 3, 54, 0
5, 25100, Note_on_c, 3, 55, 101
5, 25340, Note_on_c, 3, 55, 0
5, 25340, Note_on_c, 3, 43, 101
5, 25460, Note_on_c, 3, 43, 0
5, 25460, Note_on_c, 3, 55, 101
5, 25820, Note_on_c, 3, 55, 0
5, 25820, Note_on_c, 3, 55, 101
5, 25940, Note_on_c, 3, 55, 0
5, 25940, Note_on_c, 3, 55, 101
5, 26660, Note_on_c, 3, 55, 0
5, 26720, Note_on_c, 3, 55, 101
5, 26780, Note_on_c, 3, 55, 0
5, 26780, Note_on_c, 3, 54, 101
5, 26840, Note_on_c, 3, 54, 0
5, 26840, Note_on_c, 3, 52, 101
5, 26900, Note_on_c, 3, 52, 0
5, 26900, Note_on_c, 3, 54, 101
5, 27080, Note_on_c, 3, 54, 0
5, 27080, Note_on_c, 3, 50, 101
5, 27140, Note_on_c, 3, 50, 0
5, 27140, Note_on_c, 3, 52, 101
5, 27200, Note_on_c, 3, 52, 0
5, 27200, Note_on_c, 3, 54, 101
5, 27260, Note_on_c, 3, 54, 0
5, 27260, Note_on_c, 3, 55, 101
5, 27320, Note_on_c, 3, 55, 0
5, 27320, Note_on_c, 3, 57, 101
5, 27380, Note_on_c, 3, 57, 0
5, 27380, Note_on_c, 3, 59, 101
5, 27740, Note_on_c, 3, 59, 0
5, 27740, Note_on_c, 3, 55, 101
5, 27860, Note_on_c, 3, 55, 0
5, 27860, Note_on_c, 3, 57, 101
5, 28340, Note_on_c, 3, 57, 0
5, 28340, Note_on_c, 3, 45, 101
5, 28820, Note_on_c, 3, 45, 0
5, 28820, Note_on_c, 3, 38, 107
5, 29296, Note_on_c, 3, 38, 0
5, 29420, Note_on_c, 3, 50, 107
5, 29480, Note_on_c, 3, 50, 0
5, 29480, Note_on_c, 3, 52, 107
5, 29540, Note_on_c, 3, 52, 0
5, 29540, Note_on_c, 3, 54, 107
5, 29600, Note_on_c, 3, 54, 0
5, 29600, Note_on_c, 3, 55, 107
5, 29660, Note_on_c, 3, 55, 0
5, 29660, Note_on_c, 3, 57, 107
5, 29720, Note_on_c, 3, 57, 0
5, 29720, Note_on_c, 3, 59, 107
5, 29780, Note_on_c, 3, 59, 0
5, 29780, Note_on_c, 3, 60, 104
5, 30140, Note_on_c, 3, 60, 0
5, 30140, Note_on_c, 3, 57, 104
5, 30256, Note_on_c, 3, 57, 0
5, 30260, Note_on_c, 3, 54, 113
5, 30620, Note_on_c, 3, 54, 0
5, 30620, Note_on_c, 3, 50, 113
5, 30736, Note_on_c, 3, 50, 0
5, 30740, Note_on_c, 3, 43, 113
5, 31700, Note_on_c, 3, 43, 0
5, 32540, Note_on_c, 3, 55, 107
5, 32656, Note_on_c, 3, 55, 0
5, 32660, Note_on_c, 3, 54, 96
5, 33196, Note_on_c, 3, 54, 0
5, 33200, Note_on_c, 3, 50, 71
5, 33256, Note_on_c, 3, 50, 0
5, 33260, Note_on_c, 3, 52, 95
5, 33316, Note_on_c, 3, 52, 0
5, 33320, Note_on_c, 3, 54, 102
5, 33376, Note_on_c, 3, 54, 0
5, 33380, Note_on_c, 3, 55, 85
5, 33436, Note_on_c, 3, 55, 0
5, 33440, Note_on_c, 3, 57, 70
5, 33496, Note_on_c, 3, 57, 0
5, 33500, Note_on_c, 3, 59, 88
5, 33556, Note_on_c, 3, 59, 0
5, 33560, Note_on_c, 3, 60, 90
5, 33616, Note_on_c, 3, 60, 0
5, 33620, Note_on_c, 3, 62, 107
5, 33980, Note_on_c, 3, 62, 0
5, 33980, Note_on_c, 3, 57, 91
5, 34096, Note_on_c, 3, 57, 0
5, 34100, Note_on_c, 3, 54, 106
5, 34456, Note_on_c, 3, 54, 0
5, 34460, Note_on_c, 3, 50, 90
5, 34576, Note_on_c, 3, 50, 0
5, 34580, Note_on_c, 3, 52, 106
5, 35296, Note_on_c, 3, 52, 0
5, 35300, Note_on_c, 3, 55, 104
5, 35536, Note_on_c, 3, 55, 0
5, 35540, Note_on_c, 3, 54, 102
5, 35656, Note_on_c, 3, 54, 0
5, 35660, Note_on_c, 3, 52, 88
5, 35720, Note_on_c, 3, 52, 0
5, 35720, Note_on_c, 3, 54, 82
5, 35776, Note_on_c, 3, 54, 0
5, 35780, Note_on_c, 3, 52, 83
5, 36260, Note_on_c, 3, 52, 0
5, 36320, Note_on_c, 3, 50, 97
5, 36380, Note_on_c, 3, 50, 0
5, 36380, Note_on_c, 3, 52, 101
5, 36440, Note_on_c, 3, 52, 0
5, 36440, Note_on_c, 3, 54, 102
5, 36500, Note_on_c, 3, 54, 0
5, 36500, Note_on_c, 3, 50, 106
5, 36860, Note_on_c, 3, 50, 0
5, 36860, Note_on_c, 3, 60, 100
5, 36916, Note_on_c, 3, 60, 0
5, 36920, Note_on_c, 3, 59, 96
5, 36976, Note_on_c, 3, 59, 0
5, 36980, Note_on_c, 3, 60, 115
5, 37336, Note_on_c, 3, 60, 0
5, 37340, Note_on_c, 3, 57, 106
5, 37456, Note_on_c, 3, 57, 0
5, 37460, Note_on_c, 3, 54, 97
5, 37816, Note_on_c, 3, 54, 0
5, 37820, Note_on_c, 3, 64, 106
5, 37936, Note_on_c, 3, 64, 0
5, 37940, Note_on_c, 3, 62, 97
5, 38300, Note_on_c, 3, 62, 0
5, 38300, Note_on_c, 3, 60, 86
5, 38420, Note_on_c, 3, 60, 0
5, 38420, Note_on_c, 3, 60, 96
5, 38536, Note_on_c, 3, 60, 0
5, 38540, Note_on_c, 3, 59, 81
5, 38596, Note_on_c, 3, 59, 0
5, 38600, Note_on_c, 3, 60, 81
5, 38656, Note_on_c, 3, 60, 0
5, 38660, Note_on_c, 3, 59, 81
5, 39140, Note_on_c, 3, 59, 0
5, 39140, Note_on_c, 3, 59, 96
5, 39380, Note_on_c, 3, 59, 0
5, 39380, Note_on_c, 3, 59, 97
5, 39620, Note_on_c, 3, 59, 0
5, 39680, Note_on_c, 3, 60, 89
5, 39740, Note_on_c, 3, 60, 0
5, 39740, Note_on_c, 3, 59, 89
5, 39800, Note_on_c, 3, 59, 0
5, 39800, Note_on_c, 3, 57, 80
5, 39860, Note_on_c, 3, 57, 0
5, 39860, Note_on_c, 3, 59, 101
5, 40216, Note_on_c, 3, 59, 0
5, 40220, Note_on_c, 3, 55, 92
5, 40336, Note_on_c, 3, 55, 0
5, 40340, Note_on_c, 3, 60, 101
5, 40396, Note_on_c, 3, 60, 0
5, 40400, Note_on_c, 3, 59, 91
5, 40456, Note_on_c, 3, 59, 0
5, 40460, Note_on_c, 3, 60, 92
5, 40940, Note_on_c, 3, 60, 0
5, 41120, Note_on_c, 3, 62, 86
5, 41180, Note_on_c, 3, 62, 0
5, 41180, Note_on_c, 3, 60, 83
5, 41240, Note_on_c, 3, 60, 0
5, 41240, Note_on_c, 3, 59, 84
5, 41300, Note_on_c, 3, 59, 0
5, 41300, Note_on_c, 3, 60, 96
5, 41540, Note_on_c, 3, 60, 0
5, 41600, Note_on_c, 3, 59, 90
5, 41656, Note_on_c, 3, 59, 0
5, 41660, Note_on_c, 3, 57, 84
5, 41716, Note_on_c, 3, 57, 0
5, 41720, Note_on_c, 3, 55, 75
5, 41776, Note_on_c, 3, 55, 0
5, 41780, Note_on_c, 3, 57, 102
5, 42020, Note_on_c, 3, 57, 0
5, 42080, Note_on_c, 3, 55, 46
5, 42136, Note_on_c, 3, 55, 0
5, 42140, Note_on_c, 3, 54, 80
5, 42196, Note_on_c, 3, 54, 0
5, 42200, Note_on_c, 3, 52, 78
5, 42256, Note_on_c, 3, 52, 0
5, 42260, Note_on_c, 3, 50, 109
5, 43220, Note_on_c, 3, 50, 0
5, 43340, Note_on_c, 3, 48, 93
5, 43396, Note_on_c, 3, 48, 0
5, 43400, Note_on_c, 3, 47, 89
5, 43456, Note_on_c, 3, 47, 0
5, 43460, Note_on_c, 3, 45, 89
5, 43516, Note_on_c, 3, 45, 0
5, 43520, Note_on_c, 3, 43, 101
5, 43576, Note_on_c, 3, 43, 0
5, 43580, Note_on_c, 3, 42, 101
5, 43636, Note_on_c, 3, 42, 0
5, 43640, Note_on_c, 3, 40, 84
5, 43696, Note_on_c, 3, 40, 0
5, 43700, Note_on_c, 3, 38, 119
5, 43816, Note_on_c, 3, 38, 0
5, 43820, Note_on_c, 3, 42, 101
5, 43940, Note_on_c, 3, 42, 0
5, 43940, Note_on_c, 3, 45, 89
5, 44056, Note_on_c, 3, 45, 0
5, 44060, Note_on_c, 3, 50, 74
5, 44180, Note_on_c, 3, 50, 0
5, 44180, Note_on_c, 3, 43, 83
5, 44240, Note_on_c, 3, 43, 0
5, 44300, Note_on_c, 3, 50, 80
5, 44360, Note_on_c, 3, 50, 0
5, 44420, Note_on_c, 3, 52, 92
5, 44476, Note_on_c, 3, 52, 0
5, 44540, Note_on_c, 3, 54, 89
5, 44596, Note_on_c, 3, 54, 0
5, 44660, Note_on_c, 3, 55, 80
5, 44716, Note_on_c, 3, 55, 0
5, 44780, Note_on_c, 3, 54, 85
5, 44836, Note_on_c, 3, 54, 0
5, 44900, Note_on_c, 3, 55, 50
5, 44956, Note_on_c, 3, 55, 0
5, 45020, Note_on_c, 3, 57, 75
5, 45076, Note_on_c, 3, 57, 0
5, 45140, Note_on_c, 3, 59, 90
5, 45860, Note_on_c, 3, 59, 0
5, 45920, Note_on_c, 3, 57, 57
5, 45976, Note_on_c, 3, 57, 0
5, 45980, Note_on_c, 3, 55, 61
5, 46036, Note_on_c, 3, 55, 0
5, 46040, Note_on_c, 3, 54, 75
5, 46096, Note_on_c, 3, 54, 0
5, 46100, Note_on_c, 3, 55, 82
5, 46156, Note_on_c, 3, 55, 0
5, 46220, Note_on_c, 3, 59, 74
5, 46276, Note_on_c, 3, 59, 0
5, 46340, Note_on_c, 3, 61, 75
5, 46400, Note_on_c, 3, 61, 0
5, 46460, Note_on_c, 3, 63, 77
5, 46516, Note_on_c, 3, 63, 0
5, 46580, Note_on_c, 3, 64, 69
5, 46636, Note_on_c, 3, 64, 0
5, 46700, Note_on_c, 3, 63, 80
5, 46756, Note_on_c, 3, 63, 0
5, 46820, Note_on_c, 3, 64, 78
5, 46876, Note_on_c, 3, 64, 0
5, 46940, Note_on_c, 3, 66, 79
5, 46996, Note_on_c, 3, 66, 0
5, 47060, Note_on_c, 3, 67, 93
5, 47416, Note_on_c, 3, 67, 0
5, 47420, Note_on_c, 3, 55, 78
5, 47540, Note_on_c, 3, 55, 0
5, 47540, Note_on_c, 3, 67, 96
5, 47900, Note_on_c, 3, 67, 0
5, 47900, Note_on_c, 3, 67, 95
5, 48020, Note_on_c, 3, 67, 0
5, 48020, Note_on_c, 3, 67, 102
5, 48740, Note_on_c, 3, 67, 0
5, 48800, Note_on_c, 3, 67, 100
5, 48856, Note_on_c, 3, 67, 0
5, 48860, Note_on_c, 3, 66, 82
5, 48916, Note_on_c, 3, 66, 0
5, 48920, Note_on_c, 3, 64, 63
5, 48976, Note_on_c, 3, 64, 0
5, 48980, Note_on_c, 3, 66, 101
5, 49220, Note_on_c, 3, 66, 0
5, 49280, Note_on_c, 3, 59, 84
5, 49336, Note_on_c, 3, 59, 0
5, 49340, Note_on_c, 3, 61, 101
5, 49396, Note_on_c, 3, 61, 0
5, 49400, Note_on_c, 3, 63, 97
5, 49456, Note_on_c, 3, 63, 0
5, 49460, Note_on_c, 3, 64, 97
5, 49816, Note_on_c, 3, 64, 0
5, 49820, Note_on_c, 3, 64, 97
5, 49940, Note_on_c, 3, 64, 0
5, 49940, Note_on_c, 3, 64, 101
5, 50660, Note_on_c, 3, 64, 0
5, 50720, Note_on_c, 3, 60, 101
5, 50780, Note_on_c, 3, 60, 0
5, 50780, Note_on_c, 3, 59, 101
5, 50840, Note_on_c, 3, 59, 0
5, 50840, Note_on_c, 3, 57, 101
5, 50900, Note_on_c, 3, 57, 0
5, 50900, Note_on_c, 3, 56, 101
5, 51260, Note_on_c, 3, 56, 0
5, 51260, Note_on_c, 3, 59, 101
5, 51380, Note_on_c, 3, 59, 0
5, 51380, Note_on_c, 3, 52, 101
5, 51740, Note_on_c, 3, 52, 0
5, 51740, Note_on_c, 3, 56, 101
5, 51860, Note_on_c, 3, 56, 0
5, 51860, Note_on_c, 3, 57, 101
5, 52340, Note_on_c, 3, 57, 0
5, 52460, Note_on_c, 3, 45, 101
5, 52520, Note_on_c, 3, 45, 0
5, 52520, Note_on_c, 3, 47, 101
5, 52580, Note_on_c, 3, 47, 0
5, 52580, Note_on_c, 3, 49, 101
5, 52640, Note_on_c, 3, 49, 0
5, 52640, Note_on_c, 3, 50, 101
5, 52700, Note_on_c, 3, 50, 0
5, 52700, Note_on_c, 3, 52, 101
5, 52760, Note_on_c, 3, 52, 0
5, 52760, Note_on_c, 3, 54, 101
5, 52820, Note_on_c, 3, 54, 0
5, 52820, Note_on_c, 3, 55, 101
5, 53180, Note_on_c, 3, 55, 0
5, 53180, Note_on_c, 3, 52, 101
5, 53300, Note_on_c, 3, 52, 0
5, 53300, Note_on_c, 3, 49, 101
5, 53660, Note_on_c, 3, 49, 0
5, 53660, Note_on_c, 3, 45, 101
5, 53780, Note_on_c, 3, 45, 0
5, 53780, Note_on_c, 3, 54, 101
5, 54500, Note_on_c, 3, 54, 0
5, 54560, Note_on_c, 3, 55, 101
5, 54620, Note_on_c, 3, 55, 0
5, 54620, Note_on_c, 3, 54, 101
5, 54680, Note_on_c, 3, 54, 0
5, 54680, Note_on_c, 3, 52, 101
5, 54740, Note_on_c, 3, 52, 0
5, 54740, Note_on_c, 3, 50, 101
5, 54980, Note_on_c, 3, 50, 0
5, 55040, Note_on_c, 3, 48, 101
5, 55100, Note_on_c, 3, 48, 0
5, 55100, Note_on_c, 3, 47, 101
5, 55160, Note_on_c, 3, 47, 0
5, 55160, Note_on_c, 3, 45, 101
5, 55220, Note_on_c, 3, 45, 0
5, 55220, Note_on_c, 3, 43, 101
5, 55460, Note_on_c, 3, 43, 0
5, 55520, Note_on_c, 3, 50, 101
5, 55580, Note_on_c, 3, 50, 0
5, 55580, Note_on_c, 3, 52, 101
5, 55640, Note_on_c, 3, 52, 0
5, 55640, Note_on_c, 3, 54, 101
5, 55700, Note_on_c, 3, 54, 0
5, 55700, Note_on_c, 3, 55, 101
5, 55760, Note_on_c, 3, 55, 0
5, 55760, Note_on_c, 3, 54, 101
5, 55820, Note_on_c, 3, 54, 0
5, 55820, Note_on_c, 3, 55, 101
5, 56060, Note_on_c, 3, 55, 0
5, 56060, Note_on_c, 3, 43, 101
5, 56180, Note_on_c, 3, 43, 0
5, 56180, Note_on_c, 3, 55, 101
5, 56540, Note_on_c, 3, 55, 0
5, 56540, Note_on_c, 3, 55, 101
5, 56660, Note_on_c, 3, 55, 0
5, 56660, Note_on_c, 3, 55, 101
5, 57380, Note_on_c, 3, 55, 0
5, 57440, Note_on_c, 3, 55, 101
5, 57500, Note_on_c, 3, 55, 0
5, 57500, Note_on_c, 3, 54, 101
5, 57560, Note_on_c, 3, 54, 0
5, 57560, Note_on_c, 3, 52, 101
5, 57620, Note_on_c, 3, 52, 0
5, 57620, Note_on_c, 3, 54, 101
5, 57800, Note_on_c, 3, 54, 0
5, 57800, Note_on_c, 3, 50, 101
5, 57860, Note_on_c, 3, 50, 0
5, 57860, Note_on_c, 3, 52, 101
5, 57920, Note_on_c, 3, 52, 0
5, 57920, Note_on_c, 3, 54, 101
5, 57980, Note_on_c, 3, 54, 0
5, 57980, Note_on_c, 3, 55, 101
5, 58040, Note_on_c, 3, 55, 0
5, 58040, Note_on_c, 3, 57, 101
5, 58100, Note_on_c, 3, 57, 0
5, 58100, Note_on_c, 3, 59, 101
5, 58460, Note_on_c, 3, 59, 0
5, 58460, Note_on_c, 3, 55, 101
5, 58580, Note_on_c, 3, 55, 0
5, 58580, Note_on_c, 3, 57, 101
5, 59060, Note_on_c, 3, 57, 0
5, 59060, Note_on_c, 3, 45, 101
5, 59540, Note_on_c, 3, 45, 0
5, 59540, Note_on_c, 3, 38, 101
5, 60020, Note_on_c, 3, 38, 0
5, 64820, Note_on_c, 3, 59, 109
5, 64936, Note_on_c, 3, 59, 0
5, 64940, Note_on_c, 3, 57, 113
5, 65056, Note_on_c, 3, 57, 0
5, 65060, Note_on_c, 3, 55, 91
5, 65176, Note_on_c, 3, 55, 0
5, 65180, Note_on_c, 3, 54, 106
5, 65296, Note_on_c, 3, 54, 0
5, 65300, Note_on_c, 3, 55, 101
5, 65536, Note_on_c, 3, 55, 0
5, 65540, Note_on_c, 3, 57, 104
5, 65776, Note_on_c, 3, 57, 0
5, 65780, Note_on_c, 3, 59, 102
5, 66016, Note_on_c, 3, 59, 0
5, 66020, Note_on_c, 3, 52, 96
5, 66136, Note_on_c, 3, 52, 0
5, 66140, Note_on_c, 3, 55, 92
5, 66256, Note_on_c, 3, 55, 0
5, 66260, Note_on_c, 3, 54, 101
5, 66376, Note_on_c, 3, 54, 0
5, 66380, Note_on_c, 3, 57, 96
5, 66496, Note_on_c, 3, 57, 0
5, 66500, Note_on_c, 3, 55, 96
5, 66616, Note_on_c, 3, 55, 0
5, 66620, Note_on_c, 3, 59, 95
5, 66736, Note_on_c, 3, 59, 0
5, 66740, Note_on_c, 3, 57, 91
5, 66976, Note_on_c, 3, 57, 0
5, 66980, Note_on_c, 3, 59, 92
5, 67216, Note_on_c, 3, 59, 0
5, 67220, Note_on_c, 3, 60, 93
5, 67456, Note_on_c, 3, 60, 0
5, 67460, Note_on_c, 3, 54, 90
5, 67576, Note_on_c, 3, 54, 0
5, 67580, Note_on_c, 3, 57, 86
5, 67696, Note_on_c, 3, 57, 0
5, 67700, Note_on_c, 3, 55, 92
5, 67816, Note_on_c, 3, 55, 0
5, 67820, Note_on_c, 3, 59, 96
5, 67936, Note_on_c, 3, 59, 0
5, 67940, Note_on_c, 3, 57, 92
5, 68056, Note_on_c, 3, 57, 0
5, 68060, Note_on_c, 3, 60, 98
5, 68176, Note_on_c, 3, 60, 0
5, 68180, Note_on_c, 3, 59, 97
5, 68416, Note_on_c, 3, 59, 0
5, 68420, Note_on_c, 3, 60, 97
5, 68656, Note_on_c, 3, 60, 0
5, 68660, Note_on_c, 3, 62, 104
5, 68896, Note_on_c, 3, 62, 0
5, 68900, Note_on_c, 3, 55, 92
5, 69016, Note_on_c, 3, 55, 0
5, 69020, Note_on_c, 3, 59, 92
5, 69136, Note_on_c, 3, 59, 0
5, 69140, Note_on_c, 3, 57, 89
5, 69256, Note_on_c, 3, 57, 0
5, 69260, Note_on_c, 3, 60, 93
5, 69376, Note_on_c, 3, 60, 0
5, 69380, Note_on_c, 3, 59, 93
5, 69496, Note_on_c, 3, 59, 0
5, 69500, Note_on_c, 3, 62, 97
5, 69616, Note_on_c, 3, 62, 0
5, 69620, Note_on_c, 3, 60, 96
5, 69856, Note_on_c, 3, 60, 0
5, 69860, Note_on_c, 3, 57, 95
5, 70096, Note_on_c, 3, 57, 0
5, 70100, Note_on_c, 3, 59, 101
5, 70336, Note_on_c, 3, 59, 0
5, 70340, Note_on_c, 3, 52, 102
5, 70576, Note_on_c, 3, 52, 0
5, 70580, Note_on_c, 3, 64, 124
5, 70696, Note_on_c, 3, 64, 0
5, 70700, Note_on_c, 3, 62, 97
5, 70816, Note_on_c, 3, 62, 0
5, 70820, Note_on_c, 3, 60, 100
5, 70936, Note_on_c, 3, 60, 0
5, 70940, Note_on_c, 3, 59, 91
5, 71056, Note_on_c, 3, 59, 0
5, 71060, Note_on_c, 3, 60, 91
5, 71296, Note_on_c, 3, 60, 0
5, 71300, Note_on_c, 3, 62, 93
5, 71536, Note_on_c, 3, 62, 0
5, 71540, Note_on_c, 3, 64, 102
5, 71776, Note_on_c, 3, 64, 0
5, 71780, Note_on_c, 3, 57, 90
5, 71896, Note_on_c, 3, 57, 0
5, 71900, Note_on_c, 3, 60, 90
5, 72016, Note_on_c, 3, 60, 0
5, 72020, Note_on_c, 3, 59, 88
5, 72136, Note_on_c, 3, 59, 0
5, 72140, Note_on_c, 3, 62, 91
5, 72256, Note_on_c, 3, 62, 0
5, 72260, Note_on_c, 3, 61, 90
5, 72376, Note_on_c, 3, 61, 0
5, 72380, Note_on_c, 3, 64, 100
5, 72496, Note_on_c, 3, 64, 0
5, 72500, Note_on_c, 3, 62, 100
5, 73460, Note_on_c, 3, 62, 0
5, 73460, Note_on_c, 3, 50, 107
5, 73576, Note_on_c, 3, 50, 0
5, 73580, Note_on_c, 3, 48, 98
5, 73696, Note_on_c, 3, 48, 0
5, 73700, Note_on_c, 3, 47, 100
5, 73816, Note_on_c, 3, 47, 0
5, 73820, Note_on_c, 3, 45, 96
5, 73936, Note_on_c, 3, 45, 0
5, 73940, Note_on_c, 3, 47, 101
5, 74176, Note_on_c, 3, 47, 0
5, 74180, Note_on_c, 3, 48, 102
5, 74416, Note_on_c, 3, 48, 0
5, 74420, Note_on_c, 3, 50, 104
5, 74656, Note_on_c, 3, 50, 0
5, 74660, Note_on_c, 3, 43, 96
5, 74776, Note_on_c, 3, 43, 0
5, 74780, Note_on_c, 3, 47, 97
5, 74896, Note_on_c, 3, 47, 0
5, 74900, Note_on_c, 3, 45, 90
5, 75016, Note_on_c, 3, 45, 0
5, 75020, Note_on_c, 3, 48, 93
5, 75136, Note_on_c, 3, 48, 0
5, 75140, Note_on_c, 3, 47, 81
5, 75256, Note_on_c, 3, 47, 0
5, 75260, Note_on_c, 3, 50, 91
5, 75376, Note_on_c, 3, 50, 0
5, 75380, Note_on_c, 3, 48, 96
5, 75496, Note_on_c, 3, 48, 0
5, 75500, Note_on_c, 3, 47, 98
5, 75616, Note_on_c, 3, 47, 0
5, 75620, Note_on_c, 3, 45, 90
5, 75736, Note_on_c, 3, 45, 0
5, 75740, Note_on_c, 3, 43, 96
5, 75856, Note_on_c, 3, 43, 0
5, 75860, Note_on_c, 3, 42, 101
5, 75976, Note_on_c, 3, 42, 0
5, 75980, Note_on_c, 3, 40, 92
5, 76096, Note_on_c, 3, 40, 0
5, 76100, Note_on_c, 3, 42, 101
5, 76336, Note_on_c, 3, 42, 0
5, 76340, Note_on_c, 3, 45, 113
5, 76396, Note_on_c, 3, 45, 0
5, 76400, Note_on_c, 3, 43, 95
5, 76456, Note_on_c, 3, 43, 0
5, 76460, Note_on_c, 3, 42, 97
5, 76516, Note_on_c, 3, 42, 0
5, 76520, Note_on_c, 3, 43, 95
5, 76576, Note_on_c, 3, 43, 0
5, 76580, Note_on_c, 3, 45, 101
5, 76816, Note_on_c, 3, 45, 0
5, 76820, Note_on_c, 3, 38, 100
5, 76936, Note_on_c, 3, 38, 0
5, 76940, Note_on_c, 3, 42, 94
5, 77056, Note_on_c, 3, 42, 0
5, 77060, Note_on_c, 3, 40, 96
5, 77176, Note_on_c, 3, 40, 0
5, 77180, Note_on_c, 3, 43, 98
5, 77296, Note_on_c, 3, 43, 0
5, 77300, Note_on_c, 3, 42, 101
5, 77416, Note_on_c, 3, 42, 0
5, 77420, Note_on_c, 3, 45, 106
5, 77536, Note_on_c, 3, 45, 0
5, 77540, Note_on_c, 3, 43, 98
5, 77776, Note_on_c, 3, 43, 0
5, 77780, Note_on_c, 3, 47, 115
5, 77836, Note_on_c, 3, 47, 0
5, 77840, Note_on_c, 3, 45, 93
5, 77896, Note_on_c, 3, 45, 0
5, 77900, Note_on_c, 3, 43, 88
5, 77956, Note_on_c, 3, 43, 0
5, 77960, Note_on_c, 3, 45, 93
5, 78016, Note_on_c, 3, 45, 0
5, 78020, Note_on_c, 3, 47, 113
5, 78256, Note_on_c, 3, 47, 0
5, 78260, Note_on_c, 3, 40, 95
5, 78376, Note_on_c, 3, 40, 0
5, 78380, Note_on_c, 3, 44, 99
5, 78496, Note_on_c, 3, 44, 0
5, 78500, Note_on_c, 3, 42, 90
5, 78616, Note_on_c, 3, 42, 0
5, 78620, Note_on_c, 3, 45, 100
5, 78736, Note_on_c, 3, 45, 0
5, 78740, Note_on_c, 3, 44, 102
5, 78856, Note_on_c, 3, 44, 0
5, 78860, Note_on_c, 3, 47, 111
5, 78976, Note_on_c, 3, 47, 0
5, 78980, Note_on_c, 3, 45, 71
5, 79096, Note_on_c, 3, 45, 0
5, 79100, Note_on_c, 3, 52, 102
5, 79216, Note_on_c, 3, 52, 0
5, 79220, Note_on_c, 3, 57, 109
5, 79340, Note_on_c, 3, 57, 0
5, 79340, Note_on_c, 3, 55, 83
5, 79456, Note_on_c, 3, 55, 0
5, 79460, Note_on_c, 3, 54, 102
5, 79576, Note_on_c, 3, 54, 0
5, 79580, Note_on_c, 3, 52, 90
5, 79696, Note_on_c, 3, 52, 0
5, 79700, Note_on_c, 3, 54, 94
5, 79816, Note_on_c, 3, 54, 0
5, 79820, Note_on_c, 3, 55, 93
5, 79936, Note_on_c, 3, 55, 0
5, 79940, Note_on_c, 3, 54, 101
5, 80056, Note_on_c, 3, 54, 0
5, 80060, Note_on_c, 3, 52, 98
5, 80176, Note_on_c, 3, 52, 0
5, 80180, Note_on_c, 3, 50, 83
5, 80296, Note_on_c, 3, 50, 0
5, 80300, Note_on_c, 3, 48, 93
5, 80416, Note_on_c, 3, 48, 0
5, 80420, Note_on_c, 3, 47, 90
5, 80536, Note_on_c, 3, 47, 0
5, 80540, Note_on_c, 3, 50, 95
5, 80656, Note_on_c, 3, 50, 0
5, 80660, Note_on_c, 3, 48, 89
5, 80776, Note_on_c, 3, 48, 0
5, 80780, Note_on_c, 3, 52, 98
5, 80896, Note_on_c, 3, 52, 0
5, 80900, Note_on_c, 3, 50, 68
5, 81016, Note_on_c, 3, 50, 0
5, 81020, Note_on_c, 3, 54, 99
5, 81136, Note_on_c, 3, 54, 0
5, 81140, Note_on_c, 3, 52, 104
5, 81376, Note_on_c, 3, 52, 0
5, 81380, Note_on_c, 3, 48, 98
5, 81616, Note_on_c, 3, 48, 0
5, 81620, Note_on_c, 3, 50, 102
5, 81856, Note_on_c, 3, 50, 0
5, 81860, Note_on_c, 3, 43, 102
5, 81976, Note_on_c, 3, 43, 0
5, 81980, Note_on_c, 3, 42, 93
5, 82096, Note_on_c, 3, 42, 0
5, 82100, Note_on_c, 3, 43, 98
5, 82216, Note_on_c, 3, 43, 0
5, 82220, Note_on_c, 3, 45, 93
5, 82336, Note_on_c, 3, 45, 0
5, 82340, Note_on_c, 3, 47, 97
5, 82456, Note_on_c, 3, 47, 0
5, 82460, Note_on_c, 3, 48, 101
5, 82576, Note_on_c, 3, 48, 0
5, 82580, Note_on_c, 3, 50, 101
5, 82816, Note_on_c, 3, 50, 0
5, 82820, Note_on_c, 3, 38, 109
5, 83060, Note_on_c, 3, 38, 0
5, 87860, Note_on_c, 3, 59, 109
5, 87976, Note_on_c, 3, 59, 0
5, 87980, Note_on_c, 3, 57, 113
5, 88096, Note_on_c, 3, 57, 0
5, 88100, Note_on_c, 3, 55, 91
5, 88216, Note_on_c, 3, 55, 0
5, 88220, Note_on_c, 3, 54, 106
5, 88336, Note_on_c, 3, 54, 0
5, 88340, Note_on_c, 3, 55, 101
5, 88576, Note_on_c, 3, 55, 0
5, 88580, Note_on_c, 3, 57, 104
5, 88816, Note_on_c, 3, 57, 0
5, 88820, Note_on_c, 3, 59, 102
5, 89056, Note_on_c, 3, 59, 0
5, 89060, Note_on_c, 3, 52, 96
5, 89176, Note_on_c, 3, 52, 0
5, 89180, Note_on_c, 3, 55, 92
5, 89296, Note_on_c, 3, 55, 0
5, 89300, Note_on_c, 3, 54, 101
5, 89416, Note_on_c, 3, 54, 0
5, 89420, Note_on_c, 3, 57, 96
5, 89536, Note_on_c, 3, 57, 0
5, 89540, Note_on_c, 3, 55, 96
5, 89656, Note_on_c, 3, 55, 0
5, 89660, Note_on_c, 3, 59, 95
5, 89776, Note_on_c, 3, 59, 0
5, 89780, Note_on_c, 3, 57, 91
5, 90016, Note_on_c, 3, 57, 0
5, 90020, Note_on_c, 3, 59, 92
5, 90256, Note_on_c, 3, 59, 0
5, 90260, Note_on_c, 3, 60, 93
5, 90496, Note_on_c, 3, 60, 0
5, 90500, Note_on_c, 3, 54, 90
5, 90616, Note_on_c, 3, 54, 0
5, 90620, Note_on_c, 3, 57, 86
5, 90736, Note_on_c, 3, 57, 0
5, 90740, Note_on_c, 3, 55, 92
5, 90856, Note_on_c, 3, 55, 0
5, 90860, Note_on_c, 3, 59, 96
5, 90976, Note_on_c, 3, 59, 0
5, 90980, Note_on_c, 3, 57, 92
5, 91096, Note_on_c, 3, 57, 0
5, 91100, Note_on_c, 3, 60, 98
5, 91216, Note_on_c, 3, 60, 0
5, 91220, Note_on_c, 3, 59, 97
5, 91456, Note_on_c, 3, 59, 0
5, 91460, Note_on_c, 3, 60, 97
5, 91696, Note_on_c, 3, 60, 0
5, 91700, Note_on_c, 3, 62, 104
5, 91936, Note_on_c, 3, 62, 0
5, 91940, Note_on_c, 3, 55, 92
5, 92056, Note_on_c, 3, 55, 0
5, 92060, Note_on_c, 3, 59, 92
5, 92176, Note_on_c, 3, 59, 0
5, 92180, Note_on_c, 3, 57, 89
5, 92296, Note_on_c, 3, 57, 0
5, 92300, Note_on_c, 3, 60, 93
5, 92416, Note_on_c, 3, 60, 0
5, 92420, Note_on_c, 3, 59, 93
5, 92536, Note_on_c, 3, 59, 0
5, 92540, Note_on_c, 3, 62, 97
5, 92656, Note_on_c, 3, 62, 0
5, 92660, Note_on_c, 3, 60, 96
5, 92896, Note_on_c, 3, 60, 0
5, 92900, Note_on_c, 3, 57, 95
5, 93136, Note_on_c, 3, 57, 0
5, 93140, Note_on_c, 3, 59, 101
5, 93376, Note_on_c, 3, 59, 0
5, 93380, Note_on_c, 3, 52, 102
5, 93616, Note_on_c, 3, 52, 0
5, 93620, Note_on_c, 3, 64, 124
5, 93736, Note_on_c, 3, 64, 0
5, 93740, Note_on_c, 3, 62, 97
5, 93856, Note_on_c, 3, 62, 0
5, 93860, Note_on_c, 3, 60, 100
5, 93976, Note_on_c, 3, 60, 0
5, 93980, Note_on_c, 3, 59, 91
5, 94096, Note_on_c, 3, 59, 0
5, 94100, Note_on_c, 3, 60, 91
5, 94336, Note_on_c, 3, 60, 0
5, 94340, Note_on_c, 3, 62, 93
5, 94576, Note_on_c, 3, 62, 0
5, 94580, Note_on_c, 3, 64, 102
5, 94816, Note_on_c, 3, 64, 0
5, 94820, Note_on_c, 3, 57, 90
5, 94936, Note_on_c, 3, 57, 0
5, 94940, Note_on_c, 3, 60, 90
5, 95056, Note_on_c, 3, 60, 0
5, 95060, Note_on_c, 3, 59, 88
5, 95176, Note_on_c, 3, 59, 0
5, 95180, Note_on_c, 3, 62, 91
5, 95296, Note_on_c, 3, 62, 0
5, 95300, Note_on_c, 3, 61, 90
5, 95416, Note_on_c, 3, 61, 0
5, 95420, Note_on_c, 3, 64, 100
5, 95536, Note_on_c, 3, 64, 0
5, 95540, Note_on_c, 3, 62, 100
5, 96500, Note_on_c, 3, 62, 0
5, 96500, Note_on_c, 3, 50, 107
5, 96616, Note_on_c, 3, 50, 0
5, 96620, Note_on_c, 3, 48, 98
5, 96736, Note_on_c, 3, 48, 0
5, 96740, Note_on_c, 3, 47, 100
5, 96856, Note_on_c, 3, 47, 0
5, 96860, Note_on_c, 3, 45, 96
5, 96976, Note_on_c, 3, 45, 0
5, 96980, Note_on_c, 3, 47, 101
5, 97216, Note_on_c, 3, 47, 0
5, 97220, Note_on_c, 3, 48, 102
5, 97456, Note_on_c, 3, 48, 0
5, 97460, Note_on_c, 3, 50, 104
5, 97696, Note_on_c, 3, 50, 0
5, 97700, Note_on_c, 3, 43, 96
5, 97816, Note_on_c, 3, 43, 0
5, 97820, Note_on_c, 3, 47, 97
5, 97936, Note_on_c, 3, 47, 0
5, 97940, Note_on_c, 3, 45, 90
5, 98056, Note_on_c, 3, 45, 0
5, 98060, Note_on_c, 3, 48, 93
5, 98176, Note_on_c, 3, 48, 0
5, 98180, Note_on_c, 3, 47, 81
5, 98296, Note_on_c, 3, 47, 0
5, 98300, Note_on_c, 3, 50, 91
5, 98416, Note_on_c, 3, 50, 0
5, 98420, Note_on_c, 3, 48, 96
5, 98536, Note_on_c, 3, 48, 0
5, 98540, Note_on_c, 3, 47, 98
5, 98656, Note_on_c, 3, 47, 0
5, 98660, Note_on_c, 3, 45, 90
5, 98776, Note_on_c, 3, 45, 0
5, 98780, Note_on_c, 3, 43, 96
5, 98896, Note_on_c, 3, 43, 0
5, 98900, Note_on_c, 3, 42, 101
5, 99016, Note_on_c, 3, 42, 0
5, 99020, Note_on_c, 3, 40, 92
5, 99136, Note_on_c, 3, 40, 0
5, 99140, Note_on_c, 3, 42, 101
5, 99376, Note_on_c, 3, 42, 0
5, 99380, Note_on_c, 3, 45, 113
5, 99436, Note_on_c, 3, 45, 0
5, 99440, Note_on_c, 3, 43, 95
5, 99496, Note_on_c, 3, 43, 0
5, 99500, Note_on_c, 3, 42, 97
5, 99556, Note_on_c, 3, 42, 0
5, 99560, Note_on_c, 3, 43, 95
5, 99616, Note_on_c, 3, 43, 0
5, 99620, Note_on_c, 3, 45, 101
5, 99856, Note_on_c, 3, 45, 0
5, 99860, Note_on_c, 3, 38, 100
5, 99976, Note_on_c, 3, 38, 0
5, 99980, Note_on_c, 3, 42, 94
5, 100096, Note_on_c, 3, 42, 0
5, 100100, Note_on_c, 3, 40, 96
5, 100216, Note_on_c, 3, 40, 0
5, 100220, Note_on_c, 3, 43, 98
5, 100336, Note_on_c, 3, 43, 0
5, 100340, Note_on_c, 3, 42, 101
5, 100456, Note_on_c, 3, 42, 0
5, 100460, Note_on_c, 3, 45, 106
5, 100576, Note_on_c, 3, 45, 0
5, 100580, Note_on_c, 3, 43, 98
5, 100816, Note_on_c, 3, 43, 0
5, 100820, Note_on_c, 3, 47, 115
5, 100876, Note_on_c, 3, 47, 0
5, 100880, Note_on_c, 3, 45, 93
5, 100936, Note_on_c, 3, 45, 0
5, 100940, Note_on_c, 3, 43, 88
5, 100996, Note_on_c, 3, 43, 0
5, 101000, Note_on_c, 3, 45, 93
5, 101056, Note_on_c, 3, 45, 0
5, 101060, Note_on_c, 3, 47, 113
5, 101296, Note_on_c, 3, 47, 0
5, 101300, Note_on_c, 3, 40, 95
5, 101416, Note_on_c, 3, 40, 0
5, 101420, Note_on_c, 3, 44, 99
5, 101536, Note_on_c, 3, 44, 0
5, 101540, Note_on_c, 3, 42, 90
5, 101656, Note_on_c, 3, 42, 0
5, 101660, Note_on_c, 3, 45, 100
5, 101776, Note_on_c, 3, 45, 0
5, 101780, Note_on_c, 3, 44, 102
5, 101896, Note_on_c, 3, 44, 0
5, 101900, Note_on_c, 3, 47, 111
5, 102016, Note_on_c, 3, 47, 0
5, 102020, Note_on_c, 3, 45, 71
5, 102136, Note_on_c, 3, 45, 0
5, 102140, Note_on_c, 3, 52, 102
5, 102256, Note_on_c, 3, 52, 0
5, 102260, Note_on_c, 3, 57, 109
5, 102380, Note_on_c, 3, 57, 0
5, 102380, Note_on_c, 3, 55, 83
5, 102496, Note_on_c, 3, 55, 0
5, 102500, Note_on_c, 3, 54, 102
5, 102616, Note_on_c, 3, 54, 0
5, 102620, Note_on_c, 3, 52, 90
5, 102736, Note_on_c, 3, 52, 0
5, 102740, Note_on_c, 3, 54, 94
5, 102856, Note_on_c, 3, 54, 0
5, 102860, Note_on_c, 3, 55, 93
5, 102976, Note_on_c, 3, 55, 0
5, 102980, Note_on_c, 3, 54, 101
5, 103096, Note_on_c, 3, 54, 0
5, 103100, Note_on_c, 3, 52, 98
5, 103216, Note_on_c, 3, 52, 0
5, 103220, Note_on_c, 3, 50, 83
5, 103336, Note_on_c, 3, 50, 0
5, 103340, Note_on_c, 3, 48, 93
5, 103456, Note_on_c, 3, 48, 0
5, 103460, Note_on_c, 3, 47, 90
5, 103576, Note_on_c, 3, 47, 0
5, 103580, Note_on_c, 3, 50, 95
5, 103696, Note_on_c, 3, 50, 0
5, 103700, Note_on_c, 3, 48, 89
5, 103816, Note_on_c, 3, 48, 0
5, 103820, Note_on_c, 3, 52, 98
5, 103936, Note_on_c, 3, 52, 0
5, 103940, Note_on_c, 3, 50, 68
5, 104056, Note_on_c, 3, 50, 0
5, 104060, Note_on_c, 3, 54, 99
5, 104176, Note_on_c, 3, 54, 0
5, 104180, Note_on_c, 3, 52, 104
5, 104416, Note_on_c, 3, 52, 0
5, 104420, Note_on_c, 3, 48, 98
5, 104656, Note_on_c, 3, 48, 0
5, 104660, Note_on_c, 3, 50, 102
5, 104896, Note_on_c, 3, 50, 0
5, 104900, Note_on_c, 3, 43, 102
5, 106820, Note_on_c, 3, 43, 0
5, 108000, End_track
0, 0, End_of_file
