0, 0, Header, 1, 5, 480
1, 0, Start_track
1, 0, SMPTE_offset, 96, 0, 0, 0, 0
1, 0, Time_signature, 3, 2, 24, 8
1, 20, Tempo, 428571
1, 123840, End_track
2, 0, Start_track
2, 0, Title_t, "goldberg.mid"
2, 15380, Note_on_c, 0, 79, 107
2, 15440, Note_on_c, 0, 78, 119
2, 15444, Note_on_c, 0, 79, 0
2, 15500, Note_on_c, 0, 79, 96
2, 15516, Note_on_c, 0, 78, 0
2, 16228, Note_on_c, 0, 79, 0
2, 16340, Note_on_c, 0, 81, 121
2, 16400, Note_on_c, 0, 81, 0
2, 16400, Note_on_c, 0, 79, 98
2, 16460, Note_on_c, 0, 79, 0
2, 16460, Note_on_c, 0, 81, 81
2, 16512, Note_on_c, 0, 81, 0
2, 16520, Note_on_c, 0, 79, 93
2, 16564, Note_on_c, 0, 79, 0
2, 16580, Note_on_c, 0, 81, 83
2, 16624, Note_on_c, 0, 81, 0
2, 16640, Note_on_c, 0, 79, 93
2, 16684, Note_on_c, 0, 79, 0
2, 16700, Note_on_c, 0, 81, 86
2, 16744, Note_on_c, 0, 81, 0
2, 16760, Note_on_c, 0, 79, 92
2, 16796, Note_on_c, 0, 79, 0
2, 16820, Note_on_c, 0, 81, 91
2, 16876, Note_on_c, 0, 81, 0
2, 16880, Note_on_c, 0, 79, 93
2, 16928, Note_on_c, 0, 79, 0
2, 16940, Note_on_c, 0, 81, 80
2, 17000, Note_on_c, 0, 79, 70
2, 17020, Note_on_c, 0, 81, 0
2, 17060, Note_on_c, 0, 79, 0
2, 17060, Note_on_c, 0, 78, 79
2, 17156, Note_on_c, 0, 78, 0
2, 17180, Note_on_c, 0, 79, 100
2, 17296, Note_on_c, 0, 79, 0
2, 17300, Note_on_c, 0, 81, 123
2, 17780, Note_on_c, 0, 81, 0
2, 17780, Note_on_c, 0, 78, 102
2, 18260, Note_on_c, 0, 78, 0
2, 18260, Note_on_c, 0, 74, 115
2, 18740, Note_on_c, 0, 74, 0
2, 18740, Note_on_c, 0, 78, 121
2, 19220, Note_on_c, 0, 78, 0
2, 19220, Note_on_c, 0, 71, 101
2, 19700, Note_on_c, 0, 71, 0
2, 19712, Note_on_c, 0, 76, 121
2, 20164, Note_on_c, 0, 76, 0
2, 20180, Note_on_c, 0, 64, 121
2, 20660, Note_on_c, 0, 64, 0
2, 20660, Note_on_c, 0, 74, 98
2, 21140, Note_on_c, 0, 73, 110
2, 21144, Note_on_c, 0, 74, 0
2, 21200, Note_on_c, 0, 73, 0
2, 21200, Note_on_c, 0, 74, 101
2, 21260, Note_on_c, 0, 74, 0
2, 21260, Note_on_c, 0, 73, 110
2, 21620, Note_on_c, 0, 73, 0
2, 21620, Note_on_c, 0, 71, 110
2, 21860, Note_on_c, 0, 71, 0
2, 21860, Note_on_c, 0, 73, 110
2, 22100, Note_on_c, 0, 73, 0
2, 22100, Note_on_c, 0, 69, 98
2, 22340, Note_on_c, 0, 69, 0
2, 22340, Note_on_c, 0, 71, 111
2, 22580, Note_on_c, 0, 71, 0
2, 22580, Note_on_c, 0, 73, 115
2, 22820, Note_on_c, 0, 73, 0
2, 22820, Note_on_c, 0, 69, 107
2, 23060, Note_on_c, 0, 69, 0
2, 23060, Note_on_c, 0, 74, 123
2, 23540, Note_on_c, 0, 74, 0
2, 23540, Note_on_c, 0, 62, 123
2, 24020, Note_on_c, 0, 62, 0
2, 24020, Note_on_c, 0, 74, 121
2, 25460, Note_on_c, 0, 74, 0
2, 25460, Note_on_c, 0, 62, 123
2, 25940, Note_on_c, 0, 62, 0
2, 25940, Note_on_c, 0, 74, 123
2, 27844, Note_on_c, 0, 73, 127
2, 27860, Note_on_c, 0, 74, 0
2, 28820, Note_on_c, 0, 74, 115
2, 28844, Note_on_c, 0, 73, 0
2, 30740, Note_on_c, 0, 74, 0
2, 46100, Note_on_c, 0, 79, 109
2, 46160, Note_on_c, 0, 79, 0
2, 46160, Note_on_c, 0, 78, 110
2, 46220, Note_on_c, 0, 78, 0
2, 46220, Note_on_c, 0, 79, 101
2, 46940, Note_on_c, 0, 79, 0
2, 47060, Note_on_c, 0, 81, 126
2, 47120, Note_on_c, 0, 79, 98
2, 47124, Note_on_c, 0, 81, 0
2, 47176, Note_on_c, 0, 79, 0
2, 47180, Note_on_c, 0, 81, 96
2, 47232, Note_on_c, 0, 81, 0
2, 47240, Note_on_c, 0, 79, 85
2, 47284, Note_on_c, 0, 79, 0
2, 47300, Note_on_c, 0, 81, 82
2, 47344, Note_on_c, 0, 81, 0
2, 47360, Note_on_c, 0, 79, 77
2, 47404, Note_on_c, 0, 79, 0
2, 47420, Note_on_c, 0, 81, 84
2, 47472, Note_on_c, 0, 81, 0
2, 47480, Note_on_c, 0, 79, 78
2, 47524, Note_on_c, 0, 79, 0
2, 47540, Note_on_c, 0, 81, 90
2, 47596, Note_on_c, 0, 81, 0
2, 47600, Note_on_c, 0, 79, 84
2, 47660, Note_on_c, 0, 81, 98
2, 47664, Note_on_c, 0, 79, 0
2, 47720, Note_on_c, 0, 79, 96
2, 47744, Note_on_c, 0, 81, 0
2, 47780, Note_on_c, 0, 79, 0
2, 47780, Note_on_c, 0, 78, 99
2, 47900, Note_on_c, 0, 78, 0
2, 47916, Note_on_c, 0, 79, 100
2, 48020, Note_on_c, 0, 81, 113
2, 48024, Note_on_c, 0, 79, 0
2, 48480, Note_on_c, 0, 78, 104
2, 48500, Note_on_c, 0, 81, 0
2, 48952, Note_on_c, 0, 78, 0
2, 48960, Note_on_c, 0, 74, 106
2, 49444, Note_on_c, 0, 74, 0
2, 49444, Note_on_c, 0, 78, 125
2, 49956, Note_on_c, 0, 78, 0
2, 49964, Note_on_c, 0, 71, 113
2, 50420, Note_on_c, 0, 76, 119
2, 50424, Note_on_c, 0, 71, 0
2, 50872, Note_on_c, 0, 76, 0
2, 50900, Note_on_c, 0, 64, 113
2, 51380, Note_on_c, 0, 64, 0
2, 51392, Note_on_c, 0, 74, 119
2, 51844, Note_on_c, 0, 74, 0
2, 51852, Note_on_c, 0, 73, 117
2, 51904, Note_on_c, 0, 73, 0
2, 51924, Note_on_c, 0, 74, 111
2, 51972, Note_on_c, 0, 73, 102
2, 52000, Note_on_c, 0, 74, 0
2, 52320, Note_on_c, 0, 71, 106
2, 52344, Note_on_c, 0, 73, 0
2, 52568, Note_on_c, 0, 73, 104
2, 52588, Note_on_c, 0, 71, 0
2, 52812, Note_on_c, 0, 73, 0
2, 52812, Note_on_c, 0, 69, 92
2, 53056, Note_on_c, 0, 71, 109
2, 53088, Note_on_c, 0, 69, 0
2, 53284, Note_on_c, 0, 73, 106
2, 53300, Note_on_c, 0, 71, 0
2, 53528, Note_on_c, 0, 69, 95
2, 53536, Note_on_c, 0, 73, 0
2, 53772, Note_on_c, 0, 69, 0
2, 53780, Note_on_c, 0, 74, 117
2, 54260, Note_on_c, 0, 74, 0
2, 54260, Note_on_c, 0, 62, 117
2, 54740, Note_on_c, 0, 62, 0
2, 54740, Note_on_c, 0, 74, 121
2, 56180, Note_on_c, 0, 74, 0
2, 56180, Note_on_c, 0, 62, 117
2, 56660, Note_on_c, 0, 62, 0
2, 56660, Note_on_c, 0, 74, 117
2, 58580, Note_on_c, 0, 74, 0
2, 58580, Note_on_c, 0, 73, 123
2, 59540, Note_on_c, 0, 73, 0
2, 59540, Note_on_c, 0, 74, 111
2, 61460, Note_on_c, 0, 74, 0
2, 61460, Note_on_c, 0, 78, 123
2, 61520, Note_on_c, 0, 76, 96
2, 61540, Note_on_c, 0, 78, 0
2, 61588, Note_on_c, 0, 78, 108
2, 61616, Note_on_c, 0, 76, 0
2, 62316, Note_on_c, 0, 78, 0
2, 62432, Note_on_c, 0, 79, 123
2, 62480, Note_on_c, 0, 78, 99
2, 62500, Note_on_c, 0, 79, 0
2, 62540, Note_on_c, 0, 78, 0
2, 62540, Note_on_c, 0, 79, 95
2, 62600, Note_on_c, 0, 78, 96
2, 62616, Note_on_c, 0, 79, 0
2, 62660, Note_on_c, 0, 79, 90
2, 62672, Note_on_c, 0, 78, 0
2, 62720, Note_on_c, 0, 78, 93
2, 62732, Note_on_c, 0, 79, 0
2, 62780, Note_on_c, 0, 79, 92
2, 62792, Note_on_c, 0, 78, 0
2, 62840, Note_on_c, 0, 78, 96
2, 62852, Note_on_c, 0, 79, 0
2, 62896, Note_on_c, 0, 78, 0
2, 62900, Note_on_c, 0, 79, 90
2, 62960, Note_on_c, 0, 78, 94
2, 62964, Note_on_c, 0, 79, 0
2, 63012, Note_on_c, 0, 78, 0
2, 63020, Note_on_c, 0, 79, 92
2, 63080, Note_on_c, 0, 78, 84
2, 63088, Note_on_c, 0, 79, 0
2, 63140, Note_on_c, 0, 78, 0
2, 63140, Note_on_c, 0, 79, 84
2, 63200, Note_on_c, 0, 79, 0
2, 63200, Note_on_c, 0, 78, 84
2, 63232, Note_on_c, 0, 76, 85
2, 63260, Note_on_c, 0, 78, 0
2, 63320, Note_on_c, 0, 78, 102
2, 63328, Note_on_c, 0, 76, 0
2, 63380, Note_on_c, 0, 78, 0
2, 63380, Note_on_c, 0, 79, 119
2, 63840, Note_on_c, 0, 79, 0
2, 63864, Note_on_c, 0, 74, 102
2, 64352, Note_on_c, 0, 71, 96
2, 64376, Note_on_c, 0, 74, 0
2, 64820, Note_on_c, 0, 74, 96
2, 64832, Note_on_c, 0, 71, 0
2, 65300, Note_on_c, 0, 74, 0
2, 65300, Note_on_c, 0, 72, 109
2, 65780, Note_on_c, 0, 72, 0
2, 65780, Note_on_c, 0, 77, 113
2, 66260, Note_on_c, 0, 77, 0
2, 66264, Note_on_c, 0, 65, 111
2, 66752, Note_on_c, 0, 65, 0
2, 66756, Note_on_c, 0, 76, 124
2, 67220, Note_on_c, 0, 75, 108
2, 67244, Note_on_c, 0, 76, 0
2, 67280, Note_on_c, 0, 75, 0
2, 67280, Note_on_c, 0, 76, 91
2, 67340, Note_on_c, 0, 75, 102
2, 67360, Note_on_c, 0, 76, 0
2, 67700, Note_on_c, 0, 75, 0
2, 67700, Note_on_c, 0, 73, 121
2, 67940, Note_on_c, 0, 73, 0
2, 67940, Note_on_c, 0, 75, 101
2, 68180, Note_on_c, 0, 75, 0
2, 68180, Note_on_c, 0, 71, 83
2, 68420, Note_on_c, 0, 71, 0
2, 68440, Note_on_c, 0, 73, 112
2, 68672, Note_on_c, 0, 75, 108
2, 68684, Note_on_c, 0, 73, 0
2, 68900, Note_on_c, 0, 71, 102
2, 68908, Note_on_c, 0, 75, 0
2, 69140, Note_on_c, 0, 71, 0
2, 69140, Note_on_c, 0, 76, 115
2, 69620, Note_on_c, 0, 76, 0
2, 69620, Note_on_c, 0, 64, 115
2, 70100, Note_on_c, 0, 64, 0
2, 70100, Note_on_c, 0, 76, 121
2, 71540, Note_on_c, 0, 76, 0
2, 71540, Note_on_c, 0, 64, 115
2, 72020, Note_on_c, 0, 64, 0
2, 72024, Note_on_c, 0, 76, 123
2, 73932, Note_on_c, 0, 75, 117
2, 73956, Note_on_c, 0, 76, 0
2, 74900, Note_on_c, 0, 76, 107
2, 74904, Note_on_c, 0, 75, 0
2, 75860, Note_on_c, 0, 76, 0
2, 76100, Note_on_c, 0, 74, 107
2, 76340, Note_on_c, 0, 74, 0
2, 76340, Note_on_c, 0, 73, 112
2, 76568, Note_on_c, 0, 71, 100
2, 76580, Note_on_c, 0, 73, 0
2, 76824, Note_on_c, 0, 71, 0
2, 76824, Note_on_c, 0, 69, 107
2, 77324, Note_on_c, 0, 69, 0
2, 77324, Note_on_c, 0, 79, 124
2, 78240, Note_on_c, 0, 79, 0
2, 78252, Note_on_c, 0, 77, 115
2, 78496, Note_on_c, 0, 76, 115
2, 78508, Note_on_c, 0, 77, 0
2, 78732, Note_on_c, 0, 76, 0
2, 78740, Note_on_c, 0, 77, 117
2, 80180, Note_on_c, 0, 77, 0
2, 80180, Note_on_c, 0, 76, 123
2, 80420, Note_on_c, 0, 76, 0
2, 80420, Note_on_c, 0, 74, 104
2, 80660, Note_on_c, 0, 74, 0
2, 80676, Note_on_c, 0, 76, 113
2, 82116, Note_on_c, 0, 78, 101
2, 82124, Note_on_c, 0, 76, 0
2, 82336, Note_on_c, 0, 79, 106
2, 82340, Note_on_c, 0, 78, 0
2, 82572, Note_on_c, 0, 81, 92
2, 82592, Note_on_c, 0, 79, 0
2, 82808, Note_on_c, 0, 83, 104
2, 82820, Note_on_c, 0, 81, 0
2, 83064, Note_on_c, 0, 79, 95
2, 83092, Note_on_c, 0, 83, 0
2, 83296, Note_on_c, 0, 81, 93
2, 83320, Note_on_c, 0, 79, 0
2, 83552, Note_on_c, 0, 81, 0
2, 83556, Note_on_c, 0, 78, 92
2, 84020, Note_on_c, 0, 81, 115
2, 84044, Note_on_c, 0, 78, 0
2, 84980, Note_on_c, 0, 81, 0
2, 84996, Note_on_c, 0, 79, 115
2, 85228, Note_on_c, 0, 78, 108
2, 85252, Note_on_c, 0, 79, 0
2, 85472, Note_on_c, 0, 79, 111
2, 85484, Note_on_c, 0, 78, 0
2, 85956, Note_on_c, 0, 79, 0
2, 85964, Note_on_c, 0, 71, 119
2, 86900, Note_on_c, 0, 69, 100
2, 86924, Note_on_c, 0, 71, 0
2, 87140, Note_on_c, 0, 71, 102
2, 87156, Note_on_c, 0, 69, 0
2, 87380, Note_on_c, 0, 71, 0
2, 87380, Note_on_c, 0, 72, 101
2, 88820, Note_on_c, 0, 72, 0
2, 88820, Note_on_c, 0, 71, 109
2, 89300, Note_on_c, 0, 71, 0
2, 89300, Note_on_c, 0, 69, 109
2, 90260, Note_on_c, 0, 69, 0
2, 90260, Note_on_c, 0, 67, 98
2, 92180, Note_on_c, 0, 67, 0
2, 92180, Note_on_c, 0, 78, 110
2, 92240, Note_on_c, 0, 78, 0
2, 92240, Note_on_c, 0, 76, 100
2, 92300, Note_on_c, 0, 76, 0
2, 92300, Note_on_c, 0, 78, 102
2, 93020, Note_on_c, 0, 78, 0
2, 93124, Note_on_c, 0, 79, 115
2, 93196, Note_on_c, 0, 78, 90
2, 93204, Note_on_c, 0, 79, 0
2, 93260, Note_on_c, 0, 78, 0
2, 93272, Note_on_c, 0, 79, 91
2, 93332, Note_on_c, 0, 78, 92
2, 93336, Note_on_c, 0, 79, 0
2, 93396, Note_on_c, 0, 78, 0
2, 93400, Note_on_c, 0, 79, 80
2, 93460, Note_on_c, 0, 78, 89
2, 93464, Note_on_c, 0, 79, 0
2, 93500, Note_on_c, 0, 79, 86
2, 93516, Note_on_c, 0, 78, 0
2, 93560, Note_on_c, 0, 79, 0
2, 93560, Note_on_c, 0, 78, 81
2, 93620, Note_on_c, 0, 78, 0
2, 93620, Note_on_c, 0, 79, 96
2, 93680, Note_on_c, 0, 79, 0
2, 93680, Note_on_c, 0, 78, 92
2, 93740, Note_on_c, 0, 78, 0
2, 93740, Note_on_c, 0, 79, 77
2, 93800, Note_on_c, 0, 79, 0
2, 93800, Note_on_c, 0, 78, 95
2, 93860, Note_on_c, 0, 78, 0
2, 93860, Note_on_c, 0, 79, 77
2, 93920, Note_on_c, 0, 79, 0
2, 93920, Note_on_c, 0, 78, 97
2, 93980, Note_on_c, 0, 78, 0
2, 93980, Note_on_c, 0, 76, 97
2, 94040, Note_on_c, 0, 76, 0
2, 94040, Note_on_c, 0, 78, 97
2, 94100, Note_on_c, 0, 78, 0
2, 94100, Note_on_c, 0, 79, 117
2, 94556, Note_on_c, 0, 79, 0
2, 94572, Note_on_c, 0, 74, 100
2, 95060, Note_on_c, 0, 71, 104
2, 95072, Note_on_c, 0, 74, 0
2, 95540, Note_on_c, 0, 71, 0
2, 95540, Note_on_c, 0, 74, 104
2, 96020, Note_on_c, 0, 74, 0
2, 96024, Note_on_c, 0, 72, 115
2, 96504, Note_on_c, 0, 72, 0
2, 96504, Note_on_c, 0, 77, 113
2, 96964, Note_on_c, 0, 77, 0
2, 96980, Note_on_c, 0, 65, 106
2, 97472, Note_on_c, 0, 76, 113
2, 97476, Note_on_c, 0, 65, 0
2, 97940, Note_on_c, 0, 75, 94
2, 97944, Note_on_c, 0, 76, 0
2, 97992, Note_on_c, 0, 75, 0
2, 98000, Note_on_c, 0, 76, 100
2, 98060, Note_on_c, 0, 75, 89
2, 98084, Note_on_c, 0, 76, 0
2, 98420, Note_on_c, 0, 73, 96
2, 98436, Note_on_c, 0, 75, 0
2, 98660, Note_on_c, 0, 75, 85
2, 98688, Note_on_c, 0, 73, 0
2, 98900, Note_on_c, 0, 71, 89
2, 98912, Note_on_c, 0, 75, 0
2, 99140, Note_on_c, 0, 71, 0
2, 99140, Note_on_c, 0, 73, 94
2, 99372, Note_on_c, 0, 75, 101
2, 99396, Note_on_c, 0, 73, 0
2, 99608, Note_on_c, 0, 71, 100
2, 99620, Note_on_c, 0, 75, 0
2, 99872, Note_on_c, 0, 71, 0
2, 99876, Note_on_c, 0, 76, 106
2, 100344, Note_on_c, 0, 76, 0
2, 100352, Note_on_c, 0, 64, 117
2, 100824, Note_on_c, 0, 64, 0
2, 100824, Note_on_c, 0, 76, 123
2, 102240, Note_on_c, 0, 76, 0
2, 102252, Note_on_c, 0, 64, 119
2, 102740, Note_on_c, 0, 76, 121
2, 102756, Note_on_c, 0, 64, 0
2, 104660, Note_on_c, 0, 76, 0
2, 104660, Note_on_c, 0, 75, 115
2, 105620, Note_on_c, 0, 75, 0
2, 105636, Note_on_c, 0, 76, 106
2, 106820, Note_on_c, 0, 74, 107
2, 106848, Note_on_c, 0, 76, 0
2, 107052, Note_on_c, 0, 73, 101
2, 107060, Note_on_c, 0, 74, 0
2, 107288, Note_on_c, 0, 71, 93
2, 107316, Note_on_c, 0, 73, 0
2, 107540, Note_on_c, 0, 69, 104
2, 107552, Note_on_c, 0, 71, 0
2, 108024, Note_on_c, 0, 69, 0
2, 108024, Note_on_c, 0, 79, 123
2, 108984, Note_on_c, 0, 77, 109
2, 109004, Note_on_c, 0, 79, 0
2, 109216, Note_on_c, 0, 76, 98
2, 109228, Note_on_c, 0, 77, 0
2, 109460, Note_on_c, 0, 76, 0
2, 109460, Note_on_c, 0, 77, 100
2, 110900, Note_on_c, 0, 77, 0
2, 110900, Note_on_c, 0, 76, 109
2, 111140, Note_on_c, 0, 74, 97
2, 111148, Note_on_c, 0, 76, 0
2, 111384, Note_on_c, 0, 74, 0
2, 111392, Note_on_c, 0, 76, 98
2, 112836, Note_on_c, 0, 78, 102
2, 112844, Note_on_c, 0, 76, 0
2, 113056, Note_on_c, 0, 79, 100
2, 113060, Note_on_c, 0, 78, 0
2, 113284, Note_on_c, 0, 81, 101
2, 113304, Note_on_c, 0, 79, 0
2, 113528, Note_on_c, 0, 81, 0
2, 113528, Note_on_c, 0, 83, 101
2, 113764, Note_on_c, 0, 79, 96
2, 113792, Note_on_c, 0, 83, 0
2, 114008, Note_on_c, 0, 81, 95
2, 114040, Note_on_c, 0, 79, 0
2, 114252, Note_on_c, 0, 78, 94
2, 114264, Note_on_c, 0, 81, 0
2, 114740, Note_on_c, 0, 81, 111
2, 114764, Note_on_c, 0, 78, 0
2, 115700, Note_on_c, 0, 81, 0
2, 115700, Note_on_c, 0, 79, 97
2, 115940, Note_on_c, 0, 79, 0
2, 115940, Note_on_c, 0, 78, 108
2, 116180, Note_on_c, 0, 78, 0
2, 116180, Note_on_c, 0, 79, 104
2, 116652, Note_on_c, 0, 79, 0
2, 116660, Note_on_c, 0, 71, 107
2, 117620, Note_on_c, 0, 71, 0
2, 117624, Note_on_c, 0, 69, 98
2, 117868, Note_on_c, 0, 71, 104
2, 117892, Note_on_c, 0, 69, 0
2, 118100, Note_on_c, 0, 72, 109
2, 118112, Note_on_c, 0, 71, 0
2, 119540, Note_on_c, 0, 72, 0
2, 119540, Note_on_c, 0, 71, 113
2, 120020, Note_on_c, 0, 71, 0
2, 120020, Note_on_c, 0, 69, 96
2, 120980, Note_on_c, 0, 69, 0
2, 120980, Note_on_c, 0, 67, 107
2, 122900, Note_on_c, 0, 67, 0
2, 123840, End_track
3, 0, Start_track
3, 0, Title_t, "goldberg.mid"
3, 23060, Note_on_c, 1, 69, 124
3, 24020, Note_on_c, 1, 69, 0
3, 24020, Note_on_c, 1, 71, 115
3, 24080, Note_on_c, 1, 71, 0
3, 24080, Note_on_c, 1, 69, 104
3, 24140, Note_on_c, 1, 69, 0
3, 24140, Note_on_c, 1, 71, 104
3, 24200, Note_on_c, 1, 71, 0
3, 24200, Note_on_c, 1, 69, 104
3, 24260, Note_on_c, 1, 69, 0
3, 24260, Note_on_c, 1, 71, 95
3, 24320, Note_on_c, 1, 71, 0
3, 24320, Note_on_c, 1, 69, 95
3, 24380, Note_on_c, 1, 69, 0
3, 24380, Note_on_c, 1, 71, 95
3, 24440, Note_on_c, 1, 71, 0
3, 24440, Note_on_c, 1, 69, 93
3, 24500, Note_on_c, 1, 69, 0
3, 24500, Note_on_c, 1, 71, 88
3, 24560, Note_on_c, 1, 71, 0
3, 24560, Note_on_c, 1, 69, 88
3, 24620, Note_on_c, 1, 69, 0
3, 24620, Note_on_c, 1, 71, 88
3, 24680, Note_on_c, 1, 71, 0
3, 24680, Note_on_c, 1, 69, 101
3, 24740, Note_on_c, 1, 69, 0
3, 24740, Note_on_c, 1, 67, 93
3, 24860, Note_on_c, 1, 67, 0
3, 24860, Note_on_c, 1, 69, 93
3, 24980, Note_on_c, 1, 69, 0
3, 24980, Note_on_c, 1, 71, 101
3, 25460, Note_on_c, 1, 71, 0
3, 25460, Note_on_c, 1, 67, 97
3, 25940, Note_on_c, 1, 67, 0
3, 25964, Note_on_c, 1, 64, 91
3, 26420, Note_on_c, 1, 67, 95
3, 26424, Note_on_c, 1, 64, 0
3, 26900, Note_on_c, 1, 67, 0
3, 26900, Note_on_c, 1, 64, 100
3, 27380, Note_on_c, 1, 64, 0
3, 27380, Note_on_c, 1, 69, 98
3, 27860, Note_on_c, 1, 69, 0
3, 27860, Note_on_c, 1, 57, 93
3, 28340, Note_on_c, 1, 57, 0
3, 28340, Note_on_c, 1, 67, 102
3, 28820, Note_on_c, 1, 67, 0
3, 28820, Note_on_c, 1, 66, 89
3, 28880, Note_on_c, 1, 66, 0
3, 28880, Note_on_c, 1, 67, 102
3, 28940, Note_on_c, 1, 67, 0
3, 28940, Note_on_c, 1, 66, 106
3, 29300, Note_on_c, 1, 66, 0
3, 29300, Note_on_c, 1, 64, 96
3, 29524, Note_on_c, 1, 66, 101
3, 29540, Note_on_c, 1, 64, 0
3, 29780, Note_on_c, 1, 62, 89
3, 29792, Note_on_c, 1, 66, 0
3, 30740, Note_on_c, 1, 62, 0
3, 53780, Note_on_c, 1, 69, 115
3, 54740, Note_on_c, 1, 69, 0
3, 54740, Note_on_c, 1, 71, 109
3, 54800, Note_on_c, 1, 71, 0
3, 54800, Note_on_c, 1, 69, 98
3, 54860, Note_on_c, 1, 69, 0
3, 54860, Note_on_c, 1, 71, 98
3, 54920, Note_on_c, 1, 71, 0
3, 54920, Note_on_c, 1, 69, 98
3, 54980, Note_on_c, 1, 69, 0
3, 54980, Note_on_c, 1, 71, 95
3, 55040, Note_on_c, 1, 71, 0
3, 55040, Note_on_c, 1, 69, 85
3, 55100, Note_on_c, 1, 69, 0
3, 55100, Note_on_c, 1, 71, 85
3, 55160, Note_on_c, 1, 71, 0
3, 55160, Note_on_c, 1, 69, 85
3, 55220, Note_on_c, 1, 69, 0
3, 55220, Note_on_c, 1, 71, 90
3, 55280, Note_on_c, 1, 71, 0
3, 55280, Note_on_c, 1, 69, 90
3, 55340, Note_on_c, 1, 69, 0
3, 55340, Note_on_c, 1, 71, 77
3, 55400, Note_on_c, 1, 71, 0
3, 55400, Note_on_c, 1, 69, 77
3, 55460, Note_on_c, 1, 69, 0
3, 55460, Note_on_c, 1, 67, 77
3, 55580, Note_on_c, 1, 67, 0
3, 55580, Note_on_c, 1, 69, 84
3, 55700, Note_on_c, 1, 69, 0
3, 55700, Note_on_c, 1, 71, 90
3, 56180, Note_on_c, 1, 71, 0
3, 56184, Note_on_c, 1, 67, 84
3, 56660, Note_on_c, 1, 64, 81
3, 56684, Note_on_c, 1, 67, 0
3, 57140, Note_on_c, 1, 64, 0
3, 57140, Note_on_c, 1, 67, 92
3, 57620, Note_on_c, 1, 67, 0
3, 57620, Note_on_c, 1, 64, 90
3, 58100, Note_on_c, 1, 64, 0
3, 58104, Note_on_c, 1, 69, 88
3, 58580, Note_on_c, 1, 57, 93
3, 58604, Note_on_c, 1, 69, 0
3, 59060, Note_on_c, 1, 57, 0
3, 59060, Note_on_c, 1, 67, 95
3, 59540, Note_on_c, 1, 67, 0
3, 59540, Note_on_c, 1, 66, 86
3, 59600, Note_on_c, 1, 66, 0
3, 59600, Note_on_c, 1, 67, 101
3, 59660, Note_on_c, 1, 67, 0
3, 59660, Note_on_c, 1, 66, 92
3, 60020, Note_on_c, 1, 66, 0
3, 60020, Note_on_c, 1, 64, 89
3, 60256, Note_on_c, 1, 66, 94
3, 60260, Note_on_c, 1, 64, 0
3, 60484, Note_on_c, 1, 66, 0
3, 60500, Note_on_c, 1, 62, 93
3, 61460, Note_on_c, 1, 62, 0
3, 69140, Note_on_c, 1, 71, 104
3, 70100, Note_on_c, 1, 71, 0
3, 70100, Note_on_c, 1, 72, 113
3, 70160, Note_on_c, 1, 72, 0
3, 70160, Note_on_c, 1, 71, 93
3, 70220, Note_on_c, 1, 71, 0
3, 70220, Note_on_c, 1, 72, 93
3, 70280, Note_on_c, 1, 72, 0
3, 70280, Note_on_c, 1, 71, 93
3, 70340, Note_on_c, 1, 71, 0
3, 70340, Note_on_c, 1, 72, 93
3, 70400, Note_on_c, 1, 72, 0
3, 70400, Note_on_c, 1, 71, 93
3, 70460, Note_on_c, 1, 71, 0
3, 70460, Note_on_c, 1, 72, 93
3, 70520, Note_on_c, 1, 72, 0
3, 70520, Note_on_c, 1, 71, 93
3, 70580, Note_on_c, 1, 71, 0
3, 70580, Note_on_c, 1, 72, 93
3, 70640, Note_on_c, 1, 72, 0
3, 70640, Note_on_c, 1, 71, 88
3, 70700, Note_on_c, 1, 71, 0
3, 70700, Note_on_c, 1, 72, 88
3, 70760, Note_on_c, 1, 72, 0
3, 70760, Note_on_c, 1, 71, 81
3, 70820, Note_on_c, 1, 71, 0
3, 70820, Note_on_c, 1, 69, 81
3, 70940, Note_on_c, 1, 69, 0
3, 70940, Note_on_c, 1, 71, 97
3, 71060, Note_on_c, 1, 71, 0
3, 71084, Note_on_c, 1, 72, 104
3, 71540, Note_on_c, 1, 69, 78
3, 71544, Note_on_c, 1, 72, 0
3, 72020, Note_on_c, 1, 69, 0
3, 72020, Note_on_c, 1, 66, 101
3, 72500, Note_on_c, 1, 66, 0
3, 72500, Note_on_c, 1, 69, 102
3, 72980, Note_on_c, 1, 69, 0
3, 72980, Note_on_c, 1, 66, 108
3, 73460, Note_on_c, 1, 66, 0
3, 73460, Note_on_c, 1, 71, 106
3, 73940, Note_on_c, 1, 71, 0
3, 73940, Note_on_c, 1, 59, 83
3, 74420, Note_on_c, 1, 59, 0
3, 74420, Note_on_c, 1, 69, 89
3, 74900, Note_on_c, 1, 69, 0
3, 74900, Note_on_c, 1, 67, 90
3, 74960, Note_on_c, 1, 67, 0
3, 74960, Note_on_c, 1, 69, 100
3, 75020, Note_on_c, 1, 69, 0
3, 75020, Note_on_c, 1, 67, 92
3, 75380, Note_on_c, 1, 67, 0
3, 75380, Note_on_c, 1, 66, 86
3, 75604, Note_on_c, 1, 67, 85
3, 75620, Note_on_c, 1, 66, 0
3, 75860, Note_on_c, 1, 67, 0
3, 75860, Note_on_c, 1, 64, 88
3, 77300, Note_on_c, 1, 64, 0
3, 77804, Note_on_c, 1, 69, 115
3, 79200, Note_on_c, 1, 69, 0
3, 79220, Note_on_c, 1, 74, 101
3, 79700, Note_on_c, 1, 74, 0
3, 79712, Note_on_c, 1, 71, 97
3, 80180, Note_on_c, 1, 67, 97
3, 80196, Note_on_c, 1, 71, 0
3, 81140, Note_on_c, 1, 67, 0
3, 81140, Note_on_c, 1, 72, 107
3, 81380, Note_on_c, 1, 72, 0
3, 81380, Note_on_c, 1, 71, 101
3, 81620, Note_on_c, 1, 71, 0
3, 81620, Note_on_c, 1, 72, 107
3, 83540, Note_on_c, 1, 72, 0
3, 84024, Note_on_c, 1, 72, 115
3, 84484, Note_on_c, 1, 72, 0
3, 84500, Note_on_c, 1, 71, 115
3, 85460, Note_on_c, 1, 71, 0
3, 85940, Note_on_c, 1, 67, 117
3, 86420, Note_on_c, 1, 67, 0
3, 86420, Note_on_c, 1, 64, 117
3, 87860, Note_on_c, 1, 64, 0
3, 87860, Note_on_c, 1, 69, 117
3, 88100, Note_on_c, 1, 69, 0
3, 88100, Note_on_c, 1, 67, 117
3, 88340, Note_on_c, 1, 67, 0
3, 88340, Note_on_c, 1, 66, 99
3, 88820, Note_on_c, 1, 66, 0
3, 88820, Note_on_c, 1, 67, 109
3, 89780, Note_on_c, 1, 67, 0
3, 89780, Note_on_c, 1, 66, 104
3, 90260, Note_on_c, 1, 66, 0
3, 90260, Note_on_c, 1, 67, 104
3, 90500, Note_on_c, 1, 67, 0
3, 90500, Note_on_c, 1, 62, 95
3, 90740, Note_on_c, 1, 62, 0
3, 90740, Note_on_c, 1, 60, 96
3, 90980, Note_on_c, 1, 60, 0
3, 90980, Note_on_c, 1, 62, 90
3, 91220, Note_on_c, 1, 62, 0
3, 91220, Note_on_c, 1, 59, 86
3, 92180, Note_on_c, 1, 59, 0
3, 99860, Note_on_c, 1, 71, 119
3, 100820, Note_on_c, 1, 71, 0
3, 100820, Note_on_c, 1, 72, 106
3, 100880, Note_on_c, 1, 72, 0
3, 100880, Note_on_c, 1, 71, 96
3, 100940, Note_on_c, 1, 71, 0
3, 100940, Note_on_c, 1, 72, 96
3, 101000, Note_on_c, 1, 72, 0
3, 101000, Note_on_c, 1, 71, 96
3, 101060, Note_on_c, 1, 71, 0
3, 101060, Note_on_c, 1, 72, 98
3, 101120, Note_on_c, 1, 72, 0
3, 101120, Note_on_c, 1, 71, 98
3, 101180, Note_on_c, 1, 71, 0
3, 101180, Note_on_c, 1, 72, 93
3, 101240, Note_on_c, 1, 72, 0
3, 101240, Note_on_c, 1, 71, 93
3, 101300, Note_on_c, 1, 71, 0
3, 101300, Note_on_c, 1, 72, 81
3, 101360, Note_on_c, 1, 72, 0
3, 101360, Note_on_c, 1, 71, 81
3, 101420, Note_on_c, 1, 71, 0
3, 101420, Note_on_c, 1, 72, 81
3, 101480, Note_on_c, 1, 72, 0
3, 101480, Note_on_c, 1, 71, 81
3, 101540, Note_on_c, 1, 71, 0
3, 101540, Note_on_c, 1, 69, 69
3, 101660, Note_on_c, 1, 69, 0
3, 101660, Note_on_c, 1, 71, 93
3, 101780, Note_on_c, 1, 71, 0
3, 101780, Note_on_c, 1, 72, 104
3, 102260, Note_on_c, 1, 72, 0
3, 102260, Note_on_c, 1, 69, 90
3, 102740, Note_on_c, 1, 69, 0
3, 102740, Note_on_c, 1, 66, 110
3, 103220, Note_on_c, 1, 66, 0
3, 103220, Note_on_c, 1, 69, 97
3, 103700, Note_on_c, 1, 69, 0
3, 103700, Note_on_c, 1, 66, 108
3, 104180, Note_on_c, 1, 66, 0
3, 104180, Note_on_c, 1, 71, 104
3, 104660, Note_on_c, 1, 71, 0
3, 104660, Note_on_c, 1, 59, 95
3, 105140, Note_on_c, 1, 59, 0
3, 105140, Note_on_c, 1, 69, 95
3, 105620, Note_on_c, 1, 69, 0
3, 105620, Note_on_c, 1, 67, 66
3, 105680, Note_on_c, 1, 67, 0
3, 105680, Note_on_c, 1, 69, 75
3, 105740, Note_on_c, 1, 69, 0
3, 105740, Note_on_c, 1, 67, 60
3, 106100, Note_on_c, 1, 67, 0
3, 106100, Note_on_c, 1, 66, 102
3, 106340, Note_on_c, 1, 66, 0
3, 106340, Note_on_c, 1, 67, 72
3, 106580, Note_on_c, 1, 67, 0
3, 106580, Note_on_c, 1, 64, 98
3, 108020, Note_on_c, 1, 64, 0
3, 108500, Note_on_c, 1, 69, 115
3, 109940, Note_on_c, 1, 69, 0
3, 109940, Note_on_c, 1, 74, 101
3, 110420, Note_on_c, 1, 74, 0
3, 110420, Note_on_c, 1, 71, 90
3, 110900, Note_on_c, 1, 71, 0
3, 110900, Note_on_c, 1, 67, 95
3, 111860, Note_on_c, 1, 67, 0
3, 111860, Note_on_c, 1, 72, 95
3, 112100, Note_on_c, 1, 72, 0
3, 112100, Note_on_c, 1, 71, 95
3, 112340, Note_on_c, 1, 71, 0
3, 112340, Note_on_c, 1, 72, 95
3, 114260, Note_on_c, 1, 72, 0
3, 114740, Note_on_c, 1, 72, 107
3, 115220, Note_on_c, 1, 72, 0
3, 115220, Note_on_c, 1, 71, 101
3, 116180, Note_on_c, 1, 71, 0
3, 116660, Note_on_c, 1, 67, 97
3, 117140, Note_on_c, 1, 67, 0
3, 117140, Note_on_c, 1, 64, 104
3, 118580, Note_on_c, 1, 64, 0
3, 118580, Note_on_c, 1, 69, 106
3, 118820, Note_on_c, 1, 69, 0
3, 118820, Note_on_c, 1, 67, 95
3, 119060, Note_on_c, 1, 67, 0
3, 119060, Note_on_c, 1, 66, 110
3, 119540, Note_on_c, 1, 66, 0
3, 119540, Note_on_c, 1, 67, 111
3, 120500, Note_on_c, 1, 67, 0
3, 120500, Note_on_c, 1, 66, 102
3, 120980, Note_on_c, 1, 66, 0
3, 120992, Note_on_c, 1, 67, 106
3, 121220, Note_on_c, 1, 67, 0
3, 121220, Note_on_c, 1, 62, 92
3, 121452, Note_on_c, 1, 62, 0
3, 121452, Note_on_c, 1, 60, 89
3, 121700, Note_on_c, 1, 62, 96
3, 121720, Note_on_c, 1, 60, 0
3, 121940, Note_on_c, 1, 59, 86
3, 121956, Note_on_c, 1, 62, 0
3, 122900, Note_on_c, 1, 59, 0
3, 123840, End_track
4, 0, Start_track
4, 0, Title_t, "goldberg.mid"
4, 7700, Note_on_c, 2, 62, 121
4, 7760, Note_on_c, 2, 60, 117
4, 7776, Note_on_c, 2, 62, 0
4, 7844, Note_on_c, 2, 62, 104
4, 7852, Note_on_c, 2, 60, 0
4, 8556, Note_on_c, 2, 62, 0
4, 8660, Note_on_c, 2, 64, 115
4, 8720, Note_on_c, 2, 64, 0
4, 8720, Note_on_c, 2, 62, 89
4, 8744, Note_on_c, 2, 62, 0
4, 8780, Note_on_c, 2, 64, 101
4, 8840, Note_on_c, 2, 64, 0
4, 8840, Note_on_c, 2, 62, 81
4, 8900, Note_on_c, 2, 62, 0
4, 8900, Note_on_c, 2, 64, 91
4, 8960, Note_on_c, 2, 62, 85
4, 8968, Note_on_c, 2, 64, 0
4, 9020, Note_on_c, 2, 64, 82
4, 9024, Note_on_c, 2, 62, 0
4, 9080, Note_on_c, 2, 62, 93
4, 9084, Note_on_c, 2, 64, 0
4, 9140, Note_on_c, 2, 64, 80
4, 9156, Note_on_c, 2, 62, 0
4, 9184, Note_on_c, 2, 64, 0
4, 9200, Note_on_c, 2, 62, 90
4, 9260, Note_on_c, 2, 62, 0
4, 9260, Note_on_c, 2, 64, 81
4, 9320, Note_on_c, 2, 62, 100
4, 9336, Note_on_c, 2, 64, 0
4, 9380, Note_on_c, 2, 62, 0
4, 9380, Note_on_c, 2, 64, 95
4, 9440, Note_on_c, 2, 64, 0
4, 9440, Note_on_c, 2, 62, 95
4, 9500, Note_on_c, 2, 62, 0
4, 9500, Note_on_c, 2, 60, 95
4, 9560, Note_on_c, 2, 60, 0
4, 9560, Note_on_c, 2, 62, 101
4, 9620, Note_on_c, 2, 62, 0
4, 9620, Note_on_c, 2, 64, 111
4, 10100, Note_on_c, 2, 64, 0
4, 10100, Note_on_c, 2, 60, 109
4, 10580, Note_on_c, 2, 60, 0
4, 10580, Note_on_c, 2, 57, 106
4, 11060, Note_on_c, 2, 57, 0
4, 11060, Note_on_c, 2, 60, 85
4, 11556, Note_on_c, 2, 60, 0
4, 11556, Note_on_c, 2, 57, 107
4, 12032, Note_on_c, 2, 57, 0
4, 12044, Note_on_c, 2, 62, 119
4, 12492, Note_on_c, 2, 62, 0
4, 12500, Note_on_c, 2, 50, 111
4, 12972, Note_on_c, 2, 60, 102
4, 12980, Note_on_c, 2, 50, 0
4, 13444, Note_on_c, 2, 60, 0
4, 13460, Note_on_c, 2, 59, 113
4, 13512, Note_on_c, 2, 59, 0
4, 13520, Note_on_c, 2, 60, 102
4, 13556, Note_on_c, 2, 59, 97
4, 13580, Note_on_c, 2, 60, 0
4, 13912, Note_on_c, 2, 57, 107
4, 13940, Note_on_c, 2, 59, 0
4, 14156, Note_on_c, 2, 59, 102
4, 14168, Note_on_c, 2, 57, 0
4, 14392, Note_on_c, 2, 59, 0
4, 14392, Note_on_c, 2, 55, 100
4, 14636, Note_on_c, 2, 59, 115
4, 14656, Note_on_c, 2, 55, 0
4, 14884, Note_on_c, 2, 57, 109
4, 14912, Note_on_c, 2, 59, 0
4, 15124, Note_on_c, 2, 60, 109
4, 15136, Note_on_c, 2, 57, 0
4, 15380, Note_on_c, 2, 59, 115
4, 15404, Note_on_c, 2, 60, 0
4, 15604, Note_on_c, 2, 57, 104
4, 15636, Note_on_c, 2, 59, 0
4, 15864, Note_on_c, 2, 59, 117
4, 15884, Note_on_c, 2, 57, 0
4, 16364, Note_on_c, 2, 59, 0
4, 16364, Note_on_c, 2, 64, 126
4, 17760, Note_on_c, 2, 64, 0
4, 17764, Note_on_c, 2, 57, 96
4, 18244, Note_on_c, 2, 62, 111
4, 18272, Note_on_c, 2, 57, 0
4, 19712, Note_on_c, 2, 59, 97
4, 19716, Note_on_c, 2, 62, 0
4, 20192, Note_on_c, 2, 64, 90
4, 20196, Note_on_c, 2, 59, 0
4, 21612, Note_on_c, 2, 62, 90
4, 21632, Note_on_c, 2, 64, 0
4, 22100, Note_on_c, 2, 61, 99
4, 22116, Note_on_c, 2, 62, 0
4, 22580, Note_on_c, 2, 64, 101
4, 22592, Note_on_c, 2, 61, 0
4, 23072, Note_on_c, 2, 57, 89
4, 23084, Note_on_c, 2, 64, 0
4, 23300, Note_on_c, 2, 59, 88
4, 23328, Note_on_c, 2, 57, 0
4, 23540, Note_on_c, 2, 59, 0
4, 23540, Note_on_c, 2, 57, 89
4, 23764, Note_on_c, 2, 57, 0
4, 23780, Note_on_c, 2, 55, 86
4, 24036, Note_on_c, 2, 54, 112
4, 24052, Note_on_c, 2, 55, 0
4, 24980, Note_on_c, 2, 55, 95
4, 24984, Note_on_c, 2, 54, 0
4, 25940, Note_on_c, 2, 55, 0
4, 27372, Note_on_c, 2, 52, 91
4, 27860, Note_on_c, 2, 57, 93
4, 27872, Note_on_c, 2, 52, 0
4, 28820, Note_on_c, 2, 57, 0
4, 29060, Note_on_c, 2, 57, 88
4, 29300, Note_on_c, 2, 55, 89
4, 29304, Note_on_c, 2, 57, 0
4, 29540, Note_on_c, 2, 55, 0
4, 29540, Note_on_c, 2, 57, 89
4, 29780, Note_on_c, 2, 57, 0
4, 29780, Note_on_c, 2, 54, 84
4, 30740, Note_on_c, 2, 54, 0
4, 38400, Note_on_c, 2, 62, 113
4, 38464, Note_on_c, 2, 60, 107
4, 38476, Note_on_c, 2, 62, 0
4, 38540, Note_on_c, 2, 62, 102
4, 38564, Note_on_c, 2, 60, 0
4, 39284, Note_on_c, 2, 62, 0
4, 39360, Note_on_c, 2, 64, 117
4, 39436, Note_on_c, 2, 62, 102
4, 39444, Note_on_c, 2, 64, 0
4, 39500, Note_on_c, 2, 64, 102
4, 39512, Note_on_c, 2, 62, 0
4, 39560, Note_on_c, 2, 62, 101
4, 39576, Note_on_c, 2, 64, 0
4, 39620, Note_on_c, 2, 64, 100
4, 39636, Note_on_c, 2, 62, 0
4, 39680, Note_on_c, 2, 62, 98
4, 39700, Note_on_c, 2, 64, 0
4, 39740, Note_on_c, 2, 64, 101
4, 39752, Note_on_c, 2, 62, 0
4, 39800, Note_on_c, 2, 62, 98
4, 39804, Note_on_c, 2, 64, 0
4, 39856, Note_on_c, 2, 62, 0
4, 39860, Note_on_c, 2, 64, 98
4, 39920, Note_on_c, 2, 62, 97
4, 39924, Note_on_c, 2, 64, 0
4, 39972, Note_on_c, 2, 62, 0
4, 39980, Note_on_c, 2, 64, 96
4, 40040, Note_on_c, 2, 62, 90
4, 40068, Note_on_c, 2, 64, 0
4, 40100, Note_on_c, 2, 62, 0
4, 40100, Note_on_c, 2, 64, 90
4, 40160, Note_on_c, 2, 64, 0
4, 40160, Note_on_c, 2, 62, 90
4, 40220, Note_on_c, 2, 62, 0
4, 40220, Note_on_c, 2, 60, 95
4, 40280, Note_on_c, 2, 60, 0
4, 40280, Note_on_c, 2, 62, 104
4, 40340, Note_on_c, 2, 62, 0
4, 40340, Note_on_c, 2, 64, 115
4, 40812, Note_on_c, 2, 64, 0
4, 40820, Note_on_c, 2, 60, 107
4, 41300, Note_on_c, 2, 60, 0
4, 41300, Note_on_c, 2, 57, 102
4, 41780, Note_on_c, 2, 57, 0
4, 41780, Note_on_c, 2, 60, 95
4, 42260, Note_on_c, 2, 60, 0
4, 42272, Note_on_c, 2, 57, 102
4, 42756, Note_on_c, 2, 57, 0
4, 42756, Note_on_c, 2, 62, 111
4, 43212, Note_on_c, 2, 62, 0
4, 43236, Note_on_c, 2, 50, 106
4, 43712, Note_on_c, 2, 50, 0
4, 43712, Note_on_c, 2, 60, 109
4, 44164, Note_on_c, 2, 60, 0
4, 44180, Note_on_c, 2, 59, 101
4, 44228, Note_on_c, 2, 59, 0
4, 44244, Note_on_c, 2, 60, 102
4, 44300, Note_on_c, 2, 59, 102
4, 44312, Note_on_c, 2, 60, 0
4, 44664, Note_on_c, 2, 57, 109
4, 44684, Note_on_c, 2, 59, 0
4, 44896, Note_on_c, 2, 59, 100
4, 44920, Note_on_c, 2, 57, 0
4, 45140, Note_on_c, 2, 59, 0
4, 45140, Note_on_c, 2, 55, 91
4, 45376, Note_on_c, 2, 59, 106
4, 45396, Note_on_c, 2, 55, 0
4, 45612, Note_on_c, 2, 57, 98
4, 45636, Note_on_c, 2, 59, 0
4, 45860, Note_on_c, 2, 60, 107
4, 45876, Note_on_c, 2, 57, 0
4, 46100, Note_on_c, 2, 60, 0
4, 46100, Note_on_c, 2, 59, 106
4, 46580, Note_on_c, 2, 59, 0
4, 46580, Note_on_c, 2, 57, 106
4, 46820, Note_on_c, 2, 57, 0
4, 46820, Note_on_c, 2, 59, 100
4, 47060, Note_on_c, 2, 59, 0
4, 47060, Note_on_c, 2, 64, 117
4, 48500, Note_on_c, 2, 64, 0
4, 48500, Note_on_c, 2, 57, 102
4, 48972, Note_on_c, 2, 62, 107
4, 48996, Note_on_c, 2, 57, 0
4, 50420, Note_on_c, 2, 59, 98
4, 50436, Note_on_c, 2, 62, 0
4, 50900, Note_on_c, 2, 59, 0
4, 50900, Note_on_c, 2, 64, 115
4, 52344, Note_on_c, 2, 62, 97
4, 52364, Note_on_c, 2, 64, 0
4, 52804, Note_on_c, 2, 61, 104
4, 52812, Note_on_c, 2, 62, 0
4, 53284, Note_on_c, 2, 64, 109
4, 53304, Note_on_c, 2, 61, 0
4, 53780, Note_on_c, 2, 57, 97
4, 53784, Note_on_c, 2, 64, 0
4, 54020, Note_on_c, 2, 59, 96
4, 54048, Note_on_c, 2, 57, 0
4, 54260, Note_on_c, 2, 59, 0
4, 54260, Note_on_c, 2, 57, 97
4, 54496, Note_on_c, 2, 57, 0
4, 54496, Note_on_c, 2, 55, 85
4, 54740, Note_on_c, 2, 54, 88
4, 54764, Note_on_c, 2, 55, 0
4, 55700, Note_on_c, 2, 54, 0
4, 55700, Note_on_c, 2, 55, 113
4, 56660, Note_on_c, 2, 55, 0
4, 58100, Note_on_c, 2, 52, 102
4, 58580, Note_on_c, 2, 52, 0
4, 58580, Note_on_c, 2, 57, 104
4, 59540, Note_on_c, 2, 57, 0
4, 59780, Note_on_c, 2, 57, 102
4, 59992, Note_on_c, 2, 55, 100
4, 60020, Note_on_c, 2, 57, 0
4, 60236, Note_on_c, 2, 57, 97
4, 60248, Note_on_c, 2, 55, 0
4, 60480, Note_on_c, 2, 57, 0
4, 60484, Note_on_c, 2, 54, 94
4, 61484, Note_on_c, 2, 54, 0
4, 84500, Note_on_c, 2, 62, 113
4, 85460, Note_on_c, 2, 62, 0
4, 85460, Note_on_c, 2, 64, 106
4, 85520, Note_on_c, 2, 62, 93
4, 85524, Note_on_c, 2, 64, 0
4, 85580, Note_on_c, 2, 62, 0
4, 85580, Note_on_c, 2, 64, 92
4, 85640, Note_on_c, 2, 62, 88
4, 85652, Note_on_c, 2, 64, 0
4, 85700, Note_on_c, 2, 64, 93
4, 85712, Note_on_c, 2, 62, 0
4, 85760, Note_on_c, 2, 62, 86
4, 85768, Note_on_c, 2, 64, 0
4, 85820, Note_on_c, 2, 64, 96
4, 85824, Note_on_c, 2, 62, 0
4, 85880, Note_on_c, 2, 62, 80
4, 85892, Note_on_c, 2, 64, 0
4, 85940, Note_on_c, 2, 64, 96
4, 85944, Note_on_c, 2, 62, 0
4, 86000, Note_on_c, 2, 64, 0
4, 86000, Note_on_c, 2, 62, 85
4, 86060, Note_on_c, 2, 62, 0
4, 86060, Note_on_c, 2, 64, 85
4, 86120, Note_on_c, 2, 64, 0
4, 86120, Note_on_c, 2, 62, 85
4, 86180, Note_on_c, 2, 62, 0
4, 86196, Note_on_c, 2, 60, 71
4, 86296, Note_on_c, 2, 62, 92
4, 86316, Note_on_c, 2, 60, 0
4, 86412, Note_on_c, 2, 64, 111
4, 86424, Note_on_c, 2, 62, 0
4, 86900, Note_on_c, 2, 64, 0
4, 86900, Note_on_c, 2, 60, 106
4, 87380, Note_on_c, 2, 60, 0
4, 87384, Note_on_c, 2, 57, 101
4, 87852, Note_on_c, 2, 60, 100
4, 87876, Note_on_c, 2, 57, 0
4, 88344, Note_on_c, 2, 57, 90
4, 88364, Note_on_c, 2, 60, 0
4, 88836, Note_on_c, 2, 62, 109
4, 88844, Note_on_c, 2, 57, 0
4, 89292, Note_on_c, 2, 62, 0
4, 89300, Note_on_c, 2, 50, 109
4, 89780, Note_on_c, 2, 50, 0
4, 89804, Note_on_c, 2, 60, 113
4, 90260, Note_on_c, 2, 60, 0
4, 90272, Note_on_c, 2, 59, 98
4, 90324, Note_on_c, 2, 59, 0
4, 90328, Note_on_c, 2, 60, 96
4, 90380, Note_on_c, 2, 59, 102
4, 90400, Note_on_c, 2, 60, 0
4, 90720, Note_on_c, 2, 57, 93
4, 90744, Note_on_c, 2, 59, 0
4, 90956, Note_on_c, 2, 59, 98
4, 90976, Note_on_c, 2, 57, 0
4, 91200, Note_on_c, 2, 59, 0
4, 91220, Note_on_c, 2, 55, 93
4, 92180, Note_on_c, 2, 55, 0
4, 115220, Note_on_c, 2, 62, 109
4, 116152, Note_on_c, 2, 62, 109
4, 116180, Note_on_c, 2, 62, 0
4, 116180, Note_on_c, 2, 62, 0
4, 116216, Note_on_c, 2, 64, 95
4, 116280, Note_on_c, 2, 62, 98
4, 116292, Note_on_c, 2, 64, 0
4, 116344, Note_on_c, 2, 62, 0
4, 116344, Note_on_c, 2, 64, 92
4, 116396, Note_on_c, 2, 62, 85
4, 116416, Note_on_c, 2, 64, 0
4, 116468, Note_on_c, 2, 62, 0
4, 116472, Note_on_c, 2, 64, 92
4, 116532, Note_on_c, 2, 62, 83
4, 116544, Note_on_c, 2, 64, 0
4, 116588, Note_on_c, 2, 62, 0
4, 116588, Note_on_c, 2, 64, 93
4, 116660, Note_on_c, 2, 64, 0
4, 116660, Note_on_c, 2, 62, 92
4, 116708, Note_on_c, 2, 62, 0
4, 116724, Note_on_c, 2, 64, 91
4, 116772, Note_on_c, 2, 62, 93
4, 116780, Note_on_c, 2, 64, 0
4, 116824, Note_on_c, 2, 62, 0
4, 116836, Note_on_c, 2, 64, 92
4, 116896, Note_on_c, 2, 62, 85
4, 116920, Note_on_c, 2, 64, 0
4, 116984, Note_on_c, 2, 60, 92
4, 116992, Note_on_c, 2, 62, 0
4, 117080, Note_on_c, 2, 62, 97
4, 117088, Note_on_c, 2, 60, 0
4, 117140, Note_on_c, 2, 62, 0
4, 117164, Note_on_c, 2, 64, 111
4, 117620, Note_on_c, 2, 60, 107
4, 117636, Note_on_c, 2, 64, 0
4, 118100, Note_on_c, 2, 60, 0
4, 118112, Note_on_c, 2, 57, 111
4, 118560, Note_on_c, 2, 60, 101
4, 118584, Note_on_c, 2, 57, 0
4, 119072, Note_on_c, 2, 57, 104
4, 119084, Note_on_c, 2, 60, 0
4, 119552, Note_on_c, 2, 57, 0
4, 119552, Note_on_c, 2, 62, 113
4, 120012, Note_on_c, 2, 62, 0
4, 120024, Note_on_c, 2, 50, 104
4, 120512, Note_on_c, 2, 60, 111
4, 120532, Note_on_c, 2, 50, 0
4, 120992, Note_on_c, 2, 60, 0
4, 120992, Note_on_c, 2, 59, 101
4, 121044, Note_on_c, 2, 59, 0
4, 121048, Note_on_c, 2, 60, 96
4, 121108, Note_on_c, 2, 59, 93
4, 121124, Note_on_c, 2, 60, 0
4, 121452, Note_on_c, 2, 57, 90
4, 121476, Note_on_c, 2, 59, 0
4, 121688, Note_on_c, 2, 59, 102
4, 121700, Note_on_c, 2, 57, 0
4, 121940, Note_on_c, 2, 59, 0
4, 121940, Note_on_c, 2, 55, 100
4, 122900, Note_on_c, 2, 55, 0
4, 123840, End_track
5, 0, Start_track
5, 0, Title_t, "goldberg.mid"
5, 20, Note_on_c, 3, 55, 102
5, 80, Note_on_c, 3, 55, 0
5, 80, Note_on_c, 3, 54, 101
5, 140, Note_on_c, 3, 54, 0
5, 140, Note_on_c, 3, 55, 86
5, 860, Note_on_c, 3, 55, 0
5, 980, Note_on_c, 3, 57, 102
5, 1040, Note_on_c, 3, 57, 0
5, 1040, Note_on_c, 3, 55, 102
5, 1100, Note_on_c, 3, 55, 0
5, 1100, Note_on_c, 3, 57, 102
5, 1160, Note_on_c, 3, 57, 0
5, 1160, Note_on_c, 3, 55, 102
5, 1220, Note_on_c, 3, 55, 0
5, 1220, Note_on_c, 3, 57, 102
5, 1280, Note_on_c, 3, 57, 0
5, 1280, Note_on_c, 3, 55, 102
5, 1340, Note_on_c, 3, 55, 0
5, 1340, Note_on_c, 3, 57, 102
5, 1400, Note_on_c, 3, 57, 0
5, 1400, Note_on_c, 3, 55, 102
5, 1460, Note_on_c, 3, 55, 0
5, 1460, Note_on_c, 3, 57, 102
5, 1520, Note_on_c, 3, 57, 0
5, 1520, Note_on_c, 3, 55, 102
5, 1580, Note_on_c, 3, 55, 0
5, 1580, Note_on_c, 3, 57, 102
5, 1640, Note_on_c, 3, 57, 0
5, 1640, Note_on_c, 3, 55, 102
5, 1700, Note_on_c, 3, 55, 0
5, 1700, Note_on_c, 3, 54, 96
5, 1820, Note_on_c, 3, 54, 0
5, 1820, Note_on_c, 3, 55, 96
5, 1936, Note_on_c, 3, 55, 0
5, 1940, Note_on_c, 3, 57, 95
5, 2416, Note_on_c, 3, 57, 0
5, 2420, Note_on_c, 3, 54, 106
5, 2896, Note_on_c, 3, 54, 0
5, 2900, Note_on_c, 3, 50, 82
5, 3376, Note_on_c, 3, 50, 0
5, 3380, Note_on_c, 3, 54, 104
5, 3856, Note_on_c, 3, 54, 0
5, 3860, Note_on_c, 3, 52, 95
5, 4336, Note_on_c, 3, 52, 0
5, 4340, Note_on_c, 3, 57, 119
5, 4816, Note_on_c, 3, 57, 0
5, 4820, Note_on_c, 3, 45, 102
5, 5296, Note_on_c, 3, 45, 0
5, 5300, Note_on_c, 3, 55, 98
5, 5776, Note_on_c, 3, 55, 0
5, 5780, Note_on_c, 3, 55, 100
5, 5840, Note_on_c, 3, 55, 0
5, 5840, Note_on_c, 3, 54, 101
5, 5900, Note_on_c, 3, 54, 0
5, 5900, Note_on_c, 3, 55, 101
5, 5960, Note_on_c, 3, 55, 0
5, 5960, Note_on_c, 3, 54, 101
5, 6200, Note_on_c, 3, 54, 0
5, 6260, Note_on_c, 3, 52, 102
5, 6496, Note_on_c, 3, 52, 0
5, 6500, Note_on_c, 3, 54, 106
5, 6736, Note_on_c, 3, 54, 0
5, 6740, Note_on_c, 3, 50, 97
5, 6976, Note_on_c, 3, 50, 0
5, 6980, Note_on_c, 3, 52, 98
5, 7216, Note_on_c, 3, 52, 0
5, 7220, Note_on_c, 3, 48, 97
5, 7456, Note_on_c, 3, 48, 0
5, 7460, Note_on_c, 3, 50, 92
5, 7696, Note_on_c, 3, 50, 0
5, 7700, Note_on_c, 3, 47, 89
5, 7936, Note_on_c, 3, 47, 0
5, 7940, Note_on_c, 3, 50, 97
5, 8176, Note_on_c, 3, 50, 0
5, 8180, Note_on_c, 3, 52, 98
5, 8416, Note_on_c, 3, 52, 0
5, 8420, Note_on_c, 3, 54, 104
5, 8656, Note_on_c, 3, 54, 0
5, 8660, Note_on_c, 3, 55, 106
5, 9136, Note_on_c, 3, 55, 0
5, 9140, Note_on_c, 3, 47, 101
5, 9616, Note_on_c, 3, 47, 0
5, 9620, Note_on_c, 3, 48, 109
5, 11056, Note_on_c, 3, 48, 0
5, 11060, Note_on_c, 3, 45, 119
5, 11536, Note_on_c, 3, 45, 0
5, 11540, Note_on_c, 3, 42, 119
5, 12500, Note_on_c, 3, 42, 0
5, 12980, Note_on_c, 3, 38, 115
5, 13456, Note_on_c, 3, 38, 0
5, 13460, Note_on_c, 3, 43, 104
5, 13936, Note_on_c, 3, 43, 0
5, 13940, Note_on_c, 3, 50, 104
5, 14416, Note_on_c, 3, 50, 0
5, 14420, Note_on_c, 3, 47, 93
5, 14896, Note_on_c, 3, 47, 0
5, 14900, Note_on_c, 3, 50, 98
5, 15376, Note_on_c, 3, 50, 0
5, 15380, Note_on_c, 3, 55, 106
5, 16336, Note_on_c, 3, 55, 0
5, 16820, Note_on_c, 3, 52, 111
5, 17296, Note_on_c, 3, 52, 0
5, 17300, Note_on_c, 3, 54, 117
5, 18256, Note_on_c, 3, 54, 0
5, 18740, Note_on_c, 3, 50, 113
5, 19216, Note_on_c, 3, 50, 0
5, 19220, Note_on_c, 3, 55, 106
5, 20180, Note_on_c, 3, 55, 0
5, 20660, Note_on_c, 3, 52, 119
5, 21136, Note_on_c, 3, 52, 0
5, 21140, Note_on_c, 3, 57, 121
5, 22096, Note_on_c, 3, 57, 0
5, 22580, Note_on_c, 3, 55, 113
5, 23056, Note_on_c, 3, 55, 0
5, 23060, Note_on_c, 3, 54, 108
5, 24016, Note_on_c, 3, 54, 0
5, 24500, Note_on_c, 3, 50, 104
5, 24976, Note_on_c, 3, 50, 0
5, 24980, Note_on_c, 3, 43, 106
5, 25456, Note_on_c, 3, 43, 0
5, 25460, Note_on_c, 3, 47, 113
5, 25936, Note_on_c, 3, 47, 0
5, 25940, Note_on_c, 3, 43, 107
5, 26416, Note_on_c, 3, 43, 0
5, 26420, Note_on_c, 3, 40, 102
5, 26896, Note_on_c, 3, 40, 0
5, 26900, Note_on_c, 3, 45, 107
5, 27860, Note_on_c, 3, 45, 0
5, 28340, Note_on_c, 3, 45, 107
5, 28816, Note_on_c, 3, 45, 0
5, 28820, Note_on_c, 3, 50, 109
5, 30740, Note_on_c, 3, 50, 0
5, 30740, Note_on_c, 3, 55, 106
5, 30800, Note_on_c, 3, 55, 0
5, 30800, Note_on_c, 3, 54, 104
5, 30860, Note_on_c, 3, 54, 0
5, 30860, Note_on_c, 3, 55, 95
5, 31576, Note_on_c, 3, 55, 0
5, 31700, Note_on_c, 3, 57, 121
5, 31760, Note_on_c, 3, 57, 0
5, 31760, Note_on_c, 3, 55, 96
5, 31820, Note_on_c, 3, 55, 0
5, 31820, Note_on_c, 3, 57, 86
5, 31880, Note_on_c, 3, 57, 0
5, 31880, Note_on_c, 3, 55, 93
5, 31940, Note_on_c, 3, 55, 0
5, 31940, Note_on_c, 3, 57, 81
5, 32000, Note_on_c, 3, 57, 0
5, 32000, Note_on_c, 3, 55, 75
5, 32060, Note_on_c, 3, 55, 0
5, 32060, Note_on_c, 3, 57, 88
5, 32120, Note_on_c, 3, 57, 0
5, 32120, Note_on_c, 3, 55, 92
5, 32180, Note_on_c, 3, 55, 0
5, 32180, Note_on_c, 3, 57, 89
5, 32240, Note_on_c, 3, 57, 0
5, 32240, Note_on_c, 3, 55, 88
5, 32300, Note_on_c, 3, 55, 0
5, 32300, Note_on_c, 3, 57, 88
5, 32360, Note_on_c, 3, 57, 0
5, 32360, Note_on_c, 3, 55, 88
5, 32420, Note_on_c, 3, 55, 0
5, 32420, Note_on_c, 3, 54, 89
5, 32536, Note_on_c, 3, 54, 0
5, 32540, Note_on_c, 3, 55, 96
5, 32656, Note_on_c, 3, 55, 0
5, 32660, Note_on_c, 3, 57, 119
5, 33136, Note_on_c, 3, 57, 0
5, 33140, Note_on_c, 3, 54, 115
5, 33616, Note_on_c, 3, 54, 0
5, 33620, Note_on_c, 3, 50, 104
5, 34096, Note_on_c, 3, 50, 0
5, 34100, Note_on_c, 3, 54, 121
5, 34576, Note_on_c, 3, 54, 0
5, 34580, Note_on_c, 3, 52, 107
5, 35056, Note_on_c, 3, 52, 0
5, 35060, Note_on_c, 3, 57, 117
5, 35540, Note_on_c, 3, 57, 0
5, 35540, Note_on_c, 3, 45, 117
5, 36016, Note_on_c, 3, 45, 0
5, 36020, Note_on_c, 3, 55, 109
5, 36376, Note_on_c, 3, 55, 0
5, 36500, Note_on_c, 3, 55, 100
5, 36560, Note_on_c, 3, 55, 0
5, 36560, Note_on_c, 3, 54, 106
5, 36620, Note_on_c, 3, 54, 0
5, 36620, Note_on_c, 3, 55, 106
5, 36680, Note_on_c, 3, 55, 0
5, 36680, Note_on_c, 3, 54, 106
5, 36920, Note_on_c, 3, 54, 0
5, 36980, Note_on_c, 3, 52, 98
5, 37216, Note_on_c, 3, 52, 0
5, 37220, Note_on_c, 3, 54, 102
5, 37456, Note_on_c, 3, 54, 0
5, 37460, Note_on_c, 3, 50, 104
5, 37696, Note_on_c, 3, 50, 0
5, 37700, Note_on_c, 3, 52, 93
5, 37936, Note_on_c, 3, 52, 0
5, 37940, Note_on_c, 3, 48, 89
5, 38176, Note_on_c, 3, 48, 0
5, 38180, Note_on_c, 3, 50, 95
5, 38416, Note_on_c, 3, 50, 0
5, 38420, Note_on_c, 3, 47, 100
5, 38656, Note_on_c, 3, 47, 0
5, 38660, Note_on_c, 3, 50, 97
5, 38896, Note_on_c, 3, 50, 0
5, 38900, Note_on_c, 3, 52, 96
5, 39136, Note_on_c, 3, 52, 0
5, 39140, Note_on_c, 3, 54, 101
5, 39376, Note_on_c, 3, 54, 0
5, 39380, Note_on_c, 3, 55, 104
5, 39856, Note_on_c, 3, 55, 0
5, 39860, Note_on_c, 3, 47, 113
5, 40336, Note_on_c, 3, 47, 0
5, 40340, Note_on_c, 3, 48, 109
5, 41300, Note_on_c, 3, 48, 0
5, 41780, Note_on_c, 3, 45, 107
5, 42256, Note_on_c, 3, 45, 0
5, 42260, Note_on_c, 3, 42, 112
5, 43220, Note_on_c, 3, 42, 0
5, 43700, Note_on_c, 3, 38, 107
5, 44176, Note_on_c, 3, 38, 0
5, 44180, Note_on_c, 3, 43, 117
5, 44656, Note_on_c, 3, 43, 0
5, 44660, Note_on_c, 3, 50, 115
5, 45136, Note_on_c, 3, 50, 0
5, 45140, Note_on_c, 3, 47, 113
5, 45620, Note_on_c, 3, 47, 0
5, 45620, Note_on_c, 3, 50, 104
5, 46096, Note_on_c, 3, 50, 0
5, 46100, Note_on_c, 3, 55, 107
5, 47056, Note_on_c, 3, 55, 0
5, 47540, Note_on_c, 3, 52, 109
5, 48016, Note_on_c, 3, 52, 0
5, 48020, Note_on_c, 3, 54, 115
5, 48976, Note_on_c, 3, 54, 0
5, 49460, Note_on_c, 3, 50, 113
5, 49936, Note_on_c, 3, 50, 0
5, 49940, Note_on_c, 3, 55, 111
5, 50900, Note_on_c, 3, 55, 0
5, 51380, Note_on_c, 3, 52, 121
5, 51856, Note_on_c, 3, 52, 0
5, 51860, Note_on_c, 3, 57, 121
5, 52816, Note_on_c, 3, 57, 0
5, 53300, Note_on_c, 3, 55, 106
5, 53776, Note_on_c, 3, 55, 0
5, 53780, Note_on_c, 3, 54, 119
5, 54736, Note_on_c, 3, 54, 0
5, 55220, Note_on_c, 3, 50, 101
5, 55696, Note_on_c, 3, 50, 0
5, 55700, Note_on_c, 3, 43, 100
5, 56176, Note_on_c, 3, 43, 0
5, 56180, Note_on_c, 3, 47, 106
5, 56656, Note_on_c, 3, 47, 0
5, 56660, Note_on_c, 3, 43, 102
5, 57136, Note_on_c, 3, 43, 0
5, 57140, Note_on_c, 3, 40, 102
5, 57616, Note_on_c, 3, 40, 0
5, 57620, Note_on_c, 3, 45, 104
5, 58580, Note_on_c, 3, 45, 0
5, 59060, Note_on_c, 3, 45, 102
5, 59536, Note_on_c, 3, 45, 0
5, 59540, Note_on_c, 3, 50, 101
5, 61460, Note_on_c, 3, 50, 0
5, 61460, Note_on_c, 3, 50, 104
5, 61696, Note_on_c, 3, 50, 0
5, 61700, Note_on_c, 3, 52, 109
5, 61936, Note_on_c, 3, 52, 0
5, 61940, Note_on_c, 3, 54, 99
5, 62176, Note_on_c, 3, 54, 0
5, 62180, Note_on_c, 3, 55, 101
5, 62416, Note_on_c, 3, 55, 0
5, 62420, Note_on_c, 3, 57, 107
5, 62896, Note_on_c, 3, 57, 0
5, 62900, Note_on_c, 3, 48, 111
5, 63376, Note_on_c, 3, 48, 0
5, 63380, Note_on_c, 3, 47, 101
5, 63616, Note_on_c, 3, 47, 0
5, 63620, Note_on_c, 3, 50, 101
5, 63856, Note_on_c, 3, 50, 0
5, 63860, Note_on_c, 3, 52, 102
5, 64096, Note_on_c, 3, 52, 0
5, 64100, Note_on_c, 3, 54, 104
5, 64336, Note_on_c, 3, 54, 0
5, 64340, Note_on_c, 3, 55, 101
5, 64576, Note_on_c, 3, 55, 0
5, 64580, Note_on_c, 3, 57, 106
5, 64816, Note_on_c, 3, 57, 0
5, 64820, Note_on_c, 3, 59, 115
5, 65776, Note_on_c, 3, 59, 0
5, 65780, Note_on_c, 3, 57, 107
5, 66016, Note_on_c, 3, 57, 0
5, 66020, Note_on_c, 3, 56, 101
5, 66256, Note_on_c, 3, 56, 0
5, 66260, Note_on_c, 3, 57, 109
5, 67696, Note_on_c, 3, 57, 0
5, 67700, Note_on_c, 3, 54, 106
5, 68176, Note_on_c, 3, 54, 0
5, 68180, Note_on_c, 3, 59, 115
5, 68656, Note_on_c, 3, 59, 0
5, 68660, Note_on_c, 3, 57, 106
5, 69136, Note_on_c, 3, 57, 0
5, 69140, Note_on_c, 3, 55, 101
5, 69376, Note_on_c, 3, 55, 0
5, 69380, Note_on_c, 3, 57, 93
5, 69616, Note_on_c, 3, 57, 0
5, 69620, Note_on_c, 3, 59, 95
5, 69856, Note_on_c, 3, 59, 0
5, 69860, Note_on_c, 3, 57, 97
5, 70096, Note_on_c, 3, 57, 0
5, 70100, Note_on_c, 3, 55, 100
5, 70336, Note_on_c, 3, 55, 0
5, 70340, Note_on_c, 3, 54, 93
5, 70576, Note_on_c, 3, 54, 0
5, 70580, Note_on_c, 3, 55, 92
5, 70816, Note_on_c, 3, 55, 0
5, 70820, Note_on_c, 3, 52, 95
5, 71056, Note_on_c, 3, 52, 0
5, 71060, Note_on_c, 3, 57, 98
5, 71296, Note_on_c, 3, 57, 0
5, 71300, Note_on_c, 3, 59, 90
5, 71536, Note_on_c, 3, 59, 0
5, 71540, Note_on_c, 3, 60, 109
5, 71776, Note_on_c, 3, 60, 0
5, 71780, Note_on_c, 3, 59, 98
5, 72016, Note_on_c, 3, 59, 0
5, 72020, Note_on_c, 3, 57, 93
5, 72256, Note_on_c, 3, 57, 0
5, 72260, Note_on_c, 3, 55, 112
5, 72496, Note_on_c, 3, 55, 0
5, 72500, Note_on_c, 3, 57, 100
5, 72736, Note_on_c, 3, 57, 0
5, 72740, Note_on_c, 3, 54, 89
5, 72976, Note_on_c, 3, 54, 0
5, 72980, Note_on_c, 3, 59, 104
5, 73216, Note_on_c, 3, 59, 0
5, 73220, Note_on_c, 3, 57, 92
5, 73456, Note_on_c, 3, 57, 0
5, 73460, Note_on_c, 3, 55, 101
5, 73696, Note_on_c, 3, 55, 0
5, 73700, Note_on_c, 3, 57, 93
5, 73936, Note_on_c, 3, 57, 0
5, 73940, Note_on_c, 3, 59, 96
5, 74176, Note_on_c, 3, 59, 0
5, 74180, Note_on_c, 3, 57, 93
5, 74416, Note_on_c, 3, 57, 0
5, 74420, Note_on_c, 3, 59, 90
5, 74656, Note_on_c, 3, 59, 0
5, 74660, Note_on_c, 3, 47, 85
5, 74900, Note_on_c, 3, 47, 0
5, 74900, Note_on_c, 3, 52, 90
5, 75140, Note_on_c, 3, 52, 0
5, 75140, Note_on_c, 3, 47, 109
5, 75380, Note_on_c, 3, 47, 0
5, 75380, Note_on_c, 3, 45, 109
5, 75620, Note_on_c, 3, 45, 0
5, 75620, Note_on_c, 3, 47, 77
5, 75860, Note_on_c, 3, 47, 0
5, 75860, Note_on_c, 3, 43, 85
5, 76100, Note_on_c, 3, 43, 0
5, 76100, Note_on_c, 3, 42, 106
5, 76340, Note_on_c, 3, 42, 0
5, 76340, Note_on_c, 3, 43, 101
5, 76580, Note_on_c, 3, 43, 0
5, 76580, Note_on_c, 3, 40, 97
5, 76816, Note_on_c, 3, 40, 0
5, 76820, Note_on_c, 3, 49, 93
5, 76880, Note_on_c, 3, 49, 0
5, 76880, Note_on_c, 3, 47, 93
5, 76940, Note_on_c, 3, 47, 0
5, 76940, Note_on_c, 3, 49, 93
5, 77660, Note_on_c, 3, 49, 0
5, 77780, Note_on_c, 3, 50, 96
5, 77840, Note_on_c, 3, 50, 0
5, 77840, Note_on_c, 3, 49, 74
5, 77900, Note_on_c, 3, 49, 0
5, 77900, Note_on_c, 3, 50, 88
5, 77960, Note_on_c, 3, 50, 0
5, 77960, Note_on_c, 3, 49, 66
5, 78020, Note_on_c, 3, 49, 0
5, 78020, Note_on_c, 3, 50, 77
5, 78080, Note_on_c, 3, 50, 0
5, 78080, Note_on_c, 3, 49, 74
5, 78140, Note_on_c, 3, 49, 0
5, 78140, Note_on_c, 3, 50, 86
5, 78200, Note_on_c, 3, 50, 0
5, 78200, Note_on_c, 3, 49, 95
5, 78260, Note_on_c, 3, 49, 0
5, 78260, Note_on_c, 3, 50, 95
5, 78320, Note_on_c, 3, 50, 0
5, 78320, Note_on_c, 3, 49, 95
5, 78380, Note_on_c, 3, 49, 0
5, 78380, Note_on_c, 3, 50, 95
5, 78440, Note_on_c, 3, 50, 0
5, 78440, Note_on_c, 3, 49, 95
5, 78500, Note_on_c, 3, 49, 0
5, 78500, Note_on_c, 3, 47, 77
5, 78616, Note_on_c, 3, 47, 0
5, 78620, Note_on_c, 3, 49, 92
5, 78736, Note_on_c, 3, 49, 0
5, 78740, Note_on_c, 3, 50, 107
5, 79096, Note_on_c, 3, 50, 0
5, 79220, Note_on_c, 3, 47, 101
5, 79696, Note_on_c, 3, 47, 0
5, 79700, Note_on_c, 3, 43, 106
5, 80176, Note_on_c, 3, 43, 0
5, 80180, Note_on_c, 3, 47, 107
5, 80656, Note_on_c, 3, 47, 0
5, 80660, Note_on_c, 3, 48, 100
5, 81136, Note_on_c, 3, 48, 0
5, 81140, Note_on_c, 3, 52, 113
5, 81616, Note_on_c, 3, 52, 0
5, 81620, Note_on_c, 3, 45, 89
5, 82100, Note_on_c, 3, 45, 0
5, 82100, Note_on_c, 3, 55, 89
5, 82580, Note_on_c, 3, 55, 0
5, 82580, Note_on_c, 3, 54, 112
5, 82640, Note_on_c, 3, 54, 0
5, 82640, Note_on_c, 3, 55, 112
5, 82700, Note_on_c, 3, 55, 0
5, 82700, Note_on_c, 3, 54, 112
5, 82940, Note_on_c, 3, 54, 0
5, 83060, Note_on_c, 3, 52, 93
5, 83300, Note_on_c, 3, 52, 0
5, 83300, Note_on_c, 3, 54, 93
5, 83540, Note_on_c, 3, 54, 0
5, 83540, Note_on_c, 3, 50, 95
5, 83776, Note_on_c, 3, 50, 0
5, 83780, Note_on_c, 3, 52, 98
5, 84016, Note_on_c, 3, 52, 0
5, 84020, Note_on_c, 3, 54, 104
5, 84256, Note_on_c, 3, 54, 0
5, 84260, Note_on_c, 3, 50, 96
5, 84496, Note_on_c, 3, 50, 0
5, 84500, Note_on_c, 3, 55, 119
5, 84976, Note_on_c, 3, 55, 0
5, 84980, Note_on_c, 3, 57, 113
5, 85456, Note_on_c, 3, 57, 0
5, 85460, Note_on_c, 3, 59, 104
5, 85936, Note_on_c, 3, 59, 0
5, 85940, Note_on_c, 3, 55, 100
5, 86416, Note_on_c, 3, 55, 0
5, 86420, Note_on_c, 3, 48, 109
5, 87856, Note_on_c, 3, 48, 0
5, 87860, Note_on_c, 3, 57, 113
5, 88336, Note_on_c, 3, 57, 0
5, 88340, Note_on_c, 3, 50, 97
5, 89300, Note_on_c, 3, 50, 0
5, 89780, Note_on_c, 3, 50, 97
5, 90260, Note_on_c, 3, 50, 0
5, 90260, Note_on_c, 3, 55, 98
5, 91220, Note_on_c, 3, 55, 0
5, 91220, Note_on_c, 3, 43, 113
5, 92180, Note_on_c, 3, 43, 0
5, 92180, Note_on_c, 3, 50, 100
5, 92416, Note_on_c, 3, 50, 0
5, 92420, Note_on_c, 3, 52, 97
5, 92656, Note_on_c, 3, 52, 0
5, 92660, Note_on_c, 3, 54, 90
5, 92896, Note_on_c, 3, 54, 0
5, 92900, Note_on_c, 3, 55, 95
5, 93136, Note_on_c, 3, 55, 0
5, 93140, Note_on_c, 3, 57, 107
5, 93616, Note_on_c, 3, 57, 0
5, 93620, Note_on_c, 3, 48, 93
5, 94096, Note_on_c, 3, 48, 0
5, 94100, Note_on_c, 3, 47, 102
5, 94336, Note_on_c, 3, 47, 0
5, 94340, Note_on_c, 3, 50, 90
5, 94576, Note_on_c, 3, 50, 0
5, 94580, Note_on_c, 3, 52, 75
5, 94816, Note_on_c, 3, 52, 0
5, 94820, Note_on_c, 3, 54, 89
5, 95056, Note_on_c, 3, 54, 0
5, 95060, Note_on_c, 3, 55, 96
5, 95296, Note_on_c, 3, 55, 0
5, 95300, Note_on_c, 3, 57, 93
5, 95536, Note_on_c, 3, 57, 0
5, 95540, Note_on_c, 3, 59, 102
5, 96496, Note_on_c, 3, 59, 0
5, 96500, Note_on_c, 3, 57, 91
5, 96736, Note_on_c, 3, 57, 0
5, 96740, Note_on_c, 3, 56, 86
5, 96976, Note_on_c, 3, 56, 0
5, 96980, Note_on_c, 3, 57, 93
5, 98416, Note_on_c, 3, 57, 0
5, 98420, Note_on_c, 3, 54, 108
5, 98896, Note_on_c, 3, 54, 0
5, 98900, Note_on_c, 3, 59, 113
5, 99376, Note_on_c, 3, 59, 0
5, 99380, Note_on_c, 3, 57, 109
5, 99856, Note_on_c, 3, 57, 0
5, 99860, Note_on_c, 3, 55, 98
5, 100096, Note_on_c, 3, 55, 0
5, 100100, Note_on_c, 3, 57, 93
5, 100336, Note_on_c, 3, 57, 0
5, 100340, Note_on_c, 3, 59, 96
5, 100576, Note_on_c, 3, 59, 0
5, 100580, Note_on_c, 3, 57, 92
5, 100816, Note_on_c, 3, 57, 0
5, 100820, Note_on_c, 3, 55, 93
5, 101056, Note_on_c, 3, 55, 0
5, 101060, Note_on_c, 3, 54, 102
5, 101296, Note_on_c, 3, 54, 0
5, 101300, Note_on_c, 3, 55, 91
5, 101536, Note_on_c, 3, 55, 0
5, 101540, Note_on_c, 3, 52, 93
5, 101776, Note_on_c, 3, 52, 0
5, 101780, Note_on_c, 3, 57, 98
5, 102016, Note_on_c, 3, 57, 0
5, 102020, Note_on_c, 3, 59, 95
5, 102256, Note_on_c, 3, 59, 0
5, 102260, Note_on_c, 3, 60, 92
5, 102496, Note_on_c, 3, 60, 0
5, 102500, Note_on_c, 3, 59, 88
5, 102736, Note_on_c, 3, 59, 0
5, 102740, Note_on_c, 3, 57, 96
5, 102976, Note_on_c, 3, 57, 0
5, 102980, Note_on_c, 3, 55, 82
5, 103216, Note_on_c, 3, 55, 0
5, 103220, Note_on_c, 3, 57, 89
5, 103456, Note_on_c, 3, 57, 0
5, 103460, Note_on_c, 3, 54, 94
5, 103696, Note_on_c, 3, 54, 0
5, 103700, Note_on_c, 3, 59, 104
5, 103936, Note_on_c, 3, 59, 0
5, 103940, Note_on_c, 3, 57, 93
5, 104176, Note_on_c, 3, 57, 0
5, 104180, Note_on_c, 3, 55, 90
5, 104416, Note_on_c, 3, 55, 0
5, 104420, Note_on_c, 3, 57, 92
5, 104656, Note_on_c, 3, 57, 0
5, 104660, Note_on_c, 3, 59, 80
5, 104896, Note_on_c, 3, 59, 0
5, 104900, Note_on_c, 3, 57, 98
5, 105136, Note_on_c, 3, 57, 0
5, 105140, Note_on_c, 3, 59, 106
5, 105380, Note_on_c, 3, 59, 0
5, 105380, Note_on_c, 3, 47, 83
5, 105616, Note_on_c, 3, 47, 0
5, 105620, Note_on_c, 3, 52, 104
5, 105856, Note_on_c, 3, 52, 0
5, 105860, Note_on_c, 3, 47, 95
5, 106096, Note_on_c, 3, 47, 0
5, 106100, Note_on_c, 3, 43, 75
5, 106336, Note_on_c, 3, 43, 0
5, 106340, Note_on_c, 3, 47, 88
5, 106576, Note_on_c, 3, 47, 0
5, 106580, Note_on_c, 3, 43, 104
5, 106816, Note_on_c, 3, 43, 0
5, 106820, Note_on_c, 3, 42, 106
5, 107056, Note_on_c, 3, 42, 0
5, 107060, Note_on_c, 3, 43, 102
5, 107296, Note_on_c, 3, 43, 0
5, 107300, Note_on_c, 3, 40, 72
5, 107536, Note_on_c, 3, 40, 0
5, 107540, Note_on_c, 3, 49, 115
5, 107600, Note_on_c, 3, 49, 0
5, 107600, Note_on_c, 3, 50, 115
5, 107660, Note_on_c, 3, 50, 0
5, 107660, Note_on_c, 3, 49, 115
5, 108380, Note_on_c, 3, 49, 0
5, 108500, Note_on_c, 3, 50, 107
5, 108560, Note_on_c, 3, 50, 0
5, 108560, Note_on_c, 3, 49, 102
5, 108620, Note_on_c, 3, 49, 0
5, 108620, Note_on_c, 3, 50, 95
5, 108680, Note_on_c, 3, 50, 0
5, 108680, Note_on_c, 3, 49, 94
5, 108740, Note_on_c, 3, 49, 0
5, 108740, Note_on_c, 3, 50, 92
5, 108800, Note_on_c, 3, 50, 0
5, 108800, Note_on_c, 3, 49, 93
5, 108860, Note_on_c, 3, 49, 0
5, 108860, Note_on_c, 3, 50, 90
5, 108920, Note_on_c, 3, 50, 0
5, 108920, Note_on_c, 3, 49, 85
5, 108980, Note_on_c, 3, 49, 0
5, 108980, Note_on_c, 3, 50, 72
5, 109040, Note_on_c, 3, 50, 0
5, 109040, Note_on_c, 3, 49, 72
5, 109100, Note_on_c, 3, 49, 0
5, 109100, Note_on_c, 3, 50, 72
5, 109160, Note_on_c, 3, 50, 0
5, 109160, Note_on_c, 3, 49, 72
5, 109220, Note_on_c, 3, 49, 0
5, 109220, Note_on_c, 3, 47, 68
5, 109336, Note_on_c, 3, 47, 0
5, 109340, Note_on_c, 3, 49, 96
5, 109456, Note_on_c, 3, 49, 0
5, 109460, Note_on_c, 3, 50, 117
5, 109936, Note_on_c, 3, 50, 0
5, 109940, Note_on_c, 3, 47, 111
5, 110416, Note_on_c, 3, 47, 0
5, 110420, Note_on_c, 3, 43, 111
5, 110896, Note_on_c, 3, 43, 0
5, 110900, Note_on_c, 3, 47, 104
5, 111376, Note_on_c, 3, 47, 0
5, 111380, Note_on_c, 3, 48, 96
5, 111856, Note_on_c, 3, 48, 0
5, 111860, Note_on_c, 3, 52, 113
5, 112340, Note_on_c, 3, 52, 0
5, 112340, Note_on_c, 3, 45, 104
5, 112816, Note_on_c, 3, 45, 0
5, 112820, Note_on_c, 3, 55, 102
5, 113300, Note_on_c, 3, 55, 0
5, 113300, Note_on_c, 3, 54, 89
5, 113360, Note_on_c, 3, 54, 0
5, 113360, Note_on_c, 3, 55, 89
5, 113420, Note_on_c, 3, 55, 0
5, 113420, Note_on_c, 3, 54, 102
5, 113776, Note_on_c, 3, 54, 0
5, 113780, Note_on_c, 3, 52, 95
5, 114016, Note_on_c, 3, 52, 0
5, 114020, Note_on_c, 3, 54, 99
5, 114256, Note_on_c, 3, 54, 0
5, 114260, Note_on_c, 3, 50, 88
5, 114496, Note_on_c, 3, 50, 0
5, 114500, Note_on_c, 3, 52, 97
5, 114736, Note_on_c, 3, 52, 0
5, 114740, Note_on_c, 3, 54, 101
5, 114976, Note_on_c, 3, 54, 0
5, 114980, Note_on_c, 3, 50, 95
5, 115216, Note_on_c, 3, 50, 0
5, 115220, Note_on_c, 3, 55, 104
5, 115696, Note_on_c, 3, 55, 0
5, 115700, Note_on_c, 3, 57, 104
5, 116176, Note_on_c, 3, 57, 0
5, 116180, Note_on_c, 3, 59, 104
5, 116656, Note_on_c, 3, 59, 0
5, 116660, Note_on_c, 3, 55, 98
5, 117136, Note_on_c, 3, 55, 0
5, 117140, Note_on_c, 3, 48, 109
5, 118100, Note_on_c, 3, 48, 0
5, 118580, Note_on_c, 3, 57, 113
5, 119056, Note_on_c, 3, 57, 0
5, 119060, Note_on_c, 3, 50, 104
5, 120020, Note_on_c, 3, 50, 0
5, 120500, Note_on_c, 3, 50, 98
5, 120976, Note_on_c, 3, 50, 0
5, 120980, Note_on_c, 3, 55, 104
5, 121936, Note_on_c, 3, 55, 0
5, 121940, Note_on_c, 3, 43, 113
5, 122900, Note_on_c, 3, 43, 0
5, 123840, End_track
0, 0, End_of_file
