0, 0, Header, 1, 3, 480
1, 0, Start_track
1, 0, SMPTE_offset, 96, 0, 0, 0, 0
1, 0, Time_signature, 3, 2, 24, 8
1, 40, Tempo, 571428
1, 47520, End_track
2, 0, Start_track
2, 0, Title_t, "goldberg.mid"
2, 40, Note_on_c, 0, 71, 106
2, 156, Note_on_c, 0, 71, 0
2, 160, Note_on_c, 0, 69, 97
2, 276, Note_on_c, 0, 69, 0
2, 280, Note_on_c, 0, 67, 98
2, 396, Note_on_c, 0, 67, 0
2, 400, Note_on_c, 0, 66, 108
2, 516, Note_on_c, 0, 66, 0
2, 520, Note_on_c, 0, 64, 113
2, 636, Note_on_c, 0, 64, 0
2, 640, Note_on_c, 0, 62, 100
2, 756, Note_on_c, 0, 62, 0
2, 760, Note_on_c, 0, 61, 115
2, 1356, Note_on_c, 0, 61, 0
2, 1360, Note_on_c, 0, 64, 104
2, 1476, Note_on_c, 0, 64, 0
2, 1480, Note_on_c, 0, 69, 106
2, 1596, Note_on_c, 0, 69, 0
2, 1600, Note_on_c, 0, 67, 96
2, 1716, Note_on_c, 0, 67, 0
2, 1720, Note_on_c, 0, 66, 102
2, 1836, Note_on_c, 0, 66, 0
2, 1840, Note_on_c, 0, 64, 104
2, 1956, Note_on_c, 0, 64, 0
2, 1960, Note_on_c, 0, 62, 88
2, 2076, Note_on_c, 0, 62, 0
2, 2080, Note_on_c, 0, 61, 96
2, 2196, Note_on_c, 0, 61, 0
2, 2200, Note_on_c, 0, 59, 93
2, 2796, Note_on_c, 0, 59, 0
2, 2800, Note_on_c, 0, 69, 100
2, 2916, Note_on_c, 0, 69, 0
2, 2920, Note_on_c, 0, 67, 93
2, 3036, Note_on_c, 0, 67, 0
2, 3040, Note_on_c, 0, 66, 90
2, 3156, Note_on_c, 0, 66, 0
2, 3160, Note_on_c, 0, 64, 96
2, 3276, Note_on_c, 0, 64, 0
2, 3280, Note_on_c, 0, 62, 88
2, 3396, Note_on_c, 0, 62, 0
2, 3400, Note_on_c, 0, 61, 99
2, 3516, Note_on_c, 0, 61, 0
2, 3520, Note_on_c, 0, 59, 93
2, 3636, Note_on_c, 0, 59, 0
2, 3640, Note_on_c, 0, 57, 101
2, 3876, Note_on_c, 0, 57, 0
2, 3880, Note_on_c, 0, 61, 99
2, 3996, Note_on_c, 0, 61, 0
2, 4000, Note_on_c, 0, 64, 109
2, 4236, Note_on_c, 0, 64, 0
2, 4240, Note_on_c, 0, 67, 102
2, 4356, Note_on_c, 0, 67, 0
2, 4360, Note_on_c, 0, 66, 89
2, 4476, Note_on_c, 0, 66, 0
2, 4480, Note_on_c, 0, 64, 98
2, 4596, Note_on_c, 0, 64, 0
2, 4600, Note_on_c, 0, 62, 92
2, 4716, Note_on_c, 0, 62, 0
2, 4720, Note_on_c, 0, 61, 97
2, 4836, Note_on_c, 0, 61, 0
2, 4840, Note_on_c, 0, 59, 82
2, 4956, Note_on_c, 0, 59, 0
2, 4960, Note_on_c, 0, 57, 81
2, 5076, Note_on_c, 0, 57, 0
2, 5080, Note_on_c, 0, 55, 86
2, 5196, Note_on_c, 0, 55, 0
2, 5200, Note_on_c, 0, 54, 90
2, 5316, Note_on_c, 0, 54, 0
2, 5320, Note_on_c, 0, 52, 86
2, 5436, Note_on_c, 0, 52, 0
2, 5440, Note_on_c, 0, 50, 81
2, 5556, Note_on_c, 0, 50, 0
2, 5560, Note_on_c, 0, 52, 95
2, 5676, Note_on_c, 0, 52, 0
2, 5680, Note_on_c, 0, 48, 80
2, 5796, Note_on_c, 0, 48, 0
2, 5800, Note_on_c, 0, 47, 75
2, 5916, Note_on_c, 0, 47, 0
2, 5920, Note_on_c, 0, 50, 89
2, 6036, Note_on_c, 0, 50, 0
2, 6040, Note_on_c, 0, 55, 65
2, 6156, Note_on_c, 0, 55, 0
2, 6160, Note_on_c, 0, 59, 101
2, 6276, Note_on_c, 0, 59, 0
2, 6280, Note_on_c, 0, 62, 101
2, 6396, Note_on_c, 0, 62, 0
2, 6400, Note_on_c, 0, 67, 89
2, 6516, Note_on_c, 0, 67, 0
2, 6520, Note_on_c, 0, 62, 97
2, 6636, Note_on_c, 0, 62, 0
2, 6640, Note_on_c, 0, 59, 80
2, 6756, Note_on_c, 0, 59, 0
2, 6760, Note_on_c, 0, 55, 88
2, 6876, Note_on_c, 0, 55, 0
2, 6880, Note_on_c, 0, 53, 107
2, 6996, Note_on_c, 0, 53, 0
2, 7000, Note_on_c, 0, 52, 96
2, 7116, Note_on_c, 0, 52, 0
2, 7120, Note_on_c, 0, 50, 73
2, 7236, Note_on_c, 0, 50, 0
2, 7240, Note_on_c, 0, 49, 102
2, 7356, Note_on_c, 0, 49, 0
2, 7360, Note_on_c, 0, 52, 91
2, 7476, Note_on_c, 0, 52, 0
2, 7480, Note_on_c, 0, 55, 81
2, 7596, Note_on_c, 0, 55, 0
2, 7600, Note_on_c, 0, 58, 102
2, 7716, Note_on_c, 0, 58, 0
2, 7720, Note_on_c, 0, 64, 66
2, 7836, Note_on_c, 0, 64, 0
2, 7840, Note_on_c, 0, 67, 92
2, 7956, Note_on_c, 0, 67, 0
2, 7960, Note_on_c, 0, 64, 109
2, 8076, Note_on_c, 0, 64, 0
2, 8080, Note_on_c, 0, 58, 109
2, 8196, Note_on_c, 0, 58, 0
2, 8200, Note_on_c, 0, 57, 109
2, 8316, Note_on_c, 0, 57, 0
2, 8320, Note_on_c, 0, 55, 81
2, 8436, Note_on_c, 0, 55, 0
2, 8440, Note_on_c, 0, 54, 89
2, 8556, Note_on_c, 0, 54, 0
2, 8560, Note_on_c, 0, 52, 91
2, 8676, Note_on_c, 0, 52, 0
2, 8680, Note_on_c, 0, 50, 72
2, 8796, Note_on_c, 0, 50, 0
2, 8800, Note_on_c, 0, 55, 92
2, 8916, Note_on_c, 0, 55, 0
2, 8920, Note_on_c, 0, 59, 96
2, 9036, Note_on_c, 0, 59, 0
2, 9040, Note_on_c, 0, 62, 102
2, 9156, Note_on_c, 0, 62, 0
2, 9160, Note_on_c, 0, 67, 104
2, 9276, Note_on_c, 0, 67, 0
2, 9280, Note_on_c, 0, 71, 106
2, 9396, Note_on_c, 0, 71, 0
2, 9400, Note_on_c, 0, 69, 93
2, 9516, Note_on_c, 0, 69, 0
2, 9520, Note_on_c, 0, 66, 90
2, 9636, Note_on_c, 0, 66, 0
2, 9640, Note_on_c, 0, 62, 88
2, 9756, Note_on_c, 0, 62, 0
2, 9760, Note_on_c, 0, 60, 91
2, 9876, Note_on_c, 0, 60, 0
2, 9880, Note_on_c, 0, 59, 86
2, 9996, Note_on_c, 0, 59, 0
2, 10000, Note_on_c, 0, 57, 90
2, 10116, Note_on_c, 0, 57, 0
2, 10120, Note_on_c, 0, 55, 83
2, 10236, Note_on_c, 0, 55, 0
2, 10240, Note_on_c, 0, 59, 80
2, 10356, Note_on_c, 0, 59, 0
2, 10360, Note_on_c, 0, 62, 97
2, 10476, Note_on_c, 0, 62, 0
2, 10480, Note_on_c, 0, 67, 81
2, 10596, Note_on_c, 0, 67, 0
2, 10600, Note_on_c, 0, 71, 98
2, 10716, Note_on_c, 0, 71, 0
2, 10720, Note_on_c, 0, 74, 95
2, 10836, Note_on_c, 0, 74, 0
2, 10840, Note_on_c, 0, 79, 117
2, 11080, Note_on_c, 0, 79, 0
2, 11080, Note_on_c, 0, 74, 81
2, 11200, Note_on_c, 0, 74, 0
2, 11200, Note_on_c, 0, 71, 100
2, 11440, Note_on_c, 0, 71, 0
2, 11440, Note_on_c, 0, 66, 96
2, 11556, Note_on_c, 0, 66, 0
2, 11560, Note_on_c, 0, 67, 101
2, 12156, Note_on_c, 0, 67, 0
2, 12160, Note_on_c, 0, 71, 93
2, 12276, Note_on_c, 0, 71, 0
2, 12280, Note_on_c, 0, 76, 98
2, 12396, Note_on_c, 0, 76, 0
2, 12400, Note_on_c, 0, 74, 85
2, 12516, Note_on_c, 0, 74, 0
2, 12520, Note_on_c, 0, 73, 89
2, 12636, Note_on_c, 0, 73, 0
2, 12640, Note_on_c, 0, 71, 96
2, 12756, Note_on_c, 0, 71, 0
2, 12760, Note_on_c, 0, 69, 81
2, 12876, Note_on_c, 0, 69, 0
2, 12880, Note_on_c, 0, 67, 88
2, 12996, Note_on_c, 0, 67, 0
2, 13000, Note_on_c, 0, 66, 115
2, 13596, Note_on_c, 0, 66, 0
2, 13600, Note_on_c, 0, 76, 117
2, 13716, Note_on_c, 0, 76, 0
2, 13720, Note_on_c, 0, 74, 100
2, 13836, Note_on_c, 0, 74, 0
2, 13840, Note_on_c, 0, 73, 85
2, 13956, Note_on_c, 0, 73, 0
2, 13960, Note_on_c, 0, 71, 89
2, 14076, Note_on_c, 0, 71, 0
2, 14080, Note_on_c, 0, 69, 81
2, 14196, Note_on_c, 0, 69, 0
2, 14200, Note_on_c, 0, 67, 83
2, 14316, Note_on_c, 0, 67, 0
2, 14320, Note_on_c, 0, 66, 97
2, 14436, Note_on_c, 0, 66, 0
2, 14440, Note_on_c, 0, 64, 106
2, 14916, Note_on_c, 0, 64, 0
2, 14920, Note_on_c, 0, 66, 101
2, 15036, Note_on_c, 0, 66, 0
2, 15040, Note_on_c, 0, 67, 98
2, 15156, Note_on_c, 0, 67, 0
2, 15160, Note_on_c, 0, 61, 81
2, 15276, Note_on_c, 0, 61, 0
2, 15280, Note_on_c, 0, 71, 85
2, 15396, Note_on_c, 0, 71, 0
2, 15400, Note_on_c, 0, 69, 84
2, 15516, Note_on_c, 0, 69, 0
2, 15520, Note_on_c, 0, 67, 100
2, 15636, Note_on_c, 0, 67, 0
2, 15640, Note_on_c, 0, 69, 86
2, 15756, Note_on_c, 0, 69, 0
2, 15760, Note_on_c, 0, 71, 92
2, 15876, Note_on_c, 0, 71, 0
2, 15880, Note_on_c, 0, 64, 101
2, 15996, Note_on_c, 0, 64, 0
2, 16000, Note_on_c, 0, 74, 68
2, 16116, Note_on_c, 0, 74, 0
2, 16120, Note_on_c, 0, 73, 101
2, 16236, Note_on_c, 0, 73, 0
2, 16240, Note_on_c, 0, 71, 98
2, 16356, Note_on_c, 0, 71, 0
2, 16360, Note_on_c, 0, 73, 90
2, 16476, Note_on_c, 0, 73, 0
2, 16480, Note_on_c, 0, 74, 96
2, 16596, Note_on_c, 0, 74, 0
2, 16600, Note_on_c, 0, 73, 88
2, 16716, Note_on_c, 0, 73, 0
2, 16720, Note_on_c, 0, 76, 95
2, 16840, Note_on_c, 0, 76, 0
2, 16840, Note_on_c, 0, 78, 88
2, 16956, Note_on_c, 0, 78, 0
2, 16960, Note_on_c, 0, 79, 100
2, 17076, Note_on_c, 0, 79, 0
2, 17080, Note_on_c, 0, 78, 94
2, 17196, Note_on_c, 0, 78, 0
2, 17200, Note_on_c, 0, 76, 95
2, 17316, Note_on_c, 0, 76, 0
2, 17320, Note_on_c, 0, 76, 102
2, 17380, Note_on_c, 0, 76, 0
2, 17380, Note_on_c, 0, 74, 102
2, 17440, Note_on_c, 0, 74, 0
2, 17440, Note_on_c, 0, 73, 91
2, 17500, Note_on_c, 0, 73, 0
2, 17500, Note_on_c, 0, 74, 71
2, 17560, Note_on_c, 0, 74, 0
2, 17560, Note_on_c, 0, 76, 101
2, 17620, Note_on_c, 0, 76, 0
2, 17620, Note_on_c, 0, 74, 80
2, 17680, Note_on_c, 0, 74, 0
2, 17680, Note_on_c, 0, 76, 101
2, 17740, Note_on_c, 0, 76, 0
2, 17740, Note_on_c, 0, 74, 101
2, 17800, Note_on_c, 0, 74, 0
2, 17800, Note_on_c, 0, 76, 98
2, 17860, Note_on_c, 0, 76, 0
2, 17860, Note_on_c, 0, 74, 90
2, 17920, Note_on_c, 0, 74, 0
2, 17920, Note_on_c, 0, 76, 92
2, 17980, Note_on_c, 0, 76, 0
2, 17980, Note_on_c, 0, 74, 92
2, 18040, Note_on_c, 0, 74, 0
2, 18040, Note_on_c, 0, 76, 92
2, 18160, Note_on_c, 0, 76, 0
2, 18160, Note_on_c, 0, 74, 92
2, 18280, Note_on_c, 0, 74, 0
2, 18280, Note_on_c, 0, 66, 90
2, 18400, Note_on_c, 0, 66, 0
2, 18400, Note_on_c, 0, 69, 92
2, 18636, Note_on_c, 0, 69, 0
2, 18640, Note_on_c, 0, 74, 106
2, 18756, Note_on_c, 0, 74, 0
2, 18760, Note_on_c, 0, 73, 102
2, 18820, Note_on_c, 0, 73, 0
2, 18820, Note_on_c, 0, 74, 102
2, 18880, Note_on_c, 0, 74, 0
2, 18880, Note_on_c, 0, 76, 91
2, 18940, Note_on_c, 0, 76, 0
2, 18940, Note_on_c, 0, 74, 71
2, 19000, Note_on_c, 0, 74, 0
2, 19000, Note_on_c, 0, 76, 101
2, 19060, Note_on_c, 0, 76, 0
2, 19060, Note_on_c, 0, 74, 80
2, 19120, Note_on_c, 0, 74, 0
2, 19120, Note_on_c, 0, 76, 101
2, 19180, Note_on_c, 0, 76, 0
2, 19180, Note_on_c, 0, 74, 101
2, 19240, Note_on_c, 0, 74, 0
2, 19240, Note_on_c, 0, 76, 98
2, 19300, Note_on_c, 0, 76, 0
2, 19300, Note_on_c, 0, 74, 90
2, 19360, Note_on_c, 0, 74, 0
2, 19360, Note_on_c, 0, 76, 92
2, 19420, Note_on_c, 0, 76, 0
2, 19420, Note_on_c, 0, 74, 92
2, 19480, Note_on_c, 0, 74, 0
2, 19480, Note_on_c, 0, 76, 92
2, 19600, Note_on_c, 0, 76, 0
2, 19600, Note_on_c, 0, 74, 92
2, 19720, Note_on_c, 0, 74, 0
2, 19720, Note_on_c, 0, 68, 90
2, 19840, Note_on_c, 0, 68, 0
2, 19840, Note_on_c, 0, 71, 92
2, 20076, Note_on_c, 0, 71, 0
2, 20080, Note_on_c, 0, 74, 106
2, 20196, Note_on_c, 0, 74, 0
2, 20200, Note_on_c, 0, 73, 102
2, 20260, Note_on_c, 0, 73, 0
2, 20260, Note_on_c, 0, 74, 102
2, 20320, Note_on_c, 0, 74, 0
2, 20320, Note_on_c, 0, 76, 91
2, 20380, Note_on_c, 0, 76, 0
2, 20380, Note_on_c, 0, 74, 71
2, 20440, Note_on_c, 0, 74, 0
2, 20440, Note_on_c, 0, 76, 101
2, 20500, Note_on_c, 0, 76, 0
2, 20500, Note_on_c, 0, 74, 80
2, 20560, Note_on_c, 0, 74, 0
2, 20560, Note_on_c, 0, 76, 101
2, 20620, Note_on_c, 0, 76, 0
2, 20620, Note_on_c, 0, 74, 101
2, 20680, Note_on_c, 0, 74, 0
2, 20680, Note_on_c, 0, 76, 98
2, 20740, Note_on_c, 0, 76, 0
2, 20740, Note_on_c, 0, 74, 90
2, 20800, Note_on_c, 0, 74, 0
2, 20800, Note_on_c, 0, 76, 92
2, 20860, Note_on_c, 0, 76, 0
2, 20860, Note_on_c, 0, 74, 92
2, 21040, Note_on_c, 0, 74, 0
2, 21040, Note_on_c, 0, 76, 92
2, 21160, Note_on_c, 0, 76, 0
2, 21160, Note_on_c, 0, 79, 90
2, 21280, Note_on_c, 0, 79, 0
2, 21280, Note_on_c, 0, 73, 92
2, 21400, Note_on_c, 0, 73, 0
2, 21400, Note_on_c, 0, 76, 92
2, 21520, Note_on_c, 0, 76, 0
2, 21520, Note_on_c, 0, 79, 106
2, 21636, Note_on_c, 0, 79, 0
2, 21640, Note_on_c, 0, 78, 127
2, 22116, Note_on_c, 0, 78, 0
2, 22120, Note_on_c, 0, 74, 101
2, 22236, Note_on_c, 0, 74, 0
2, 22240, Note_on_c, 0, 69, 91
2, 22356, Note_on_c, 0, 69, 0
2, 22360, Note_on_c, 0, 66, 89
2, 22476, Note_on_c, 0, 66, 0
2, 22480, Note_on_c, 0, 62, 80
2, 22596, Note_on_c, 0, 62, 0
2, 22600, Note_on_c, 0, 66, 92
2, 22716, Note_on_c, 0, 66, 0
2, 22720, Note_on_c, 0, 69, 89
2, 22836, Note_on_c, 0, 69, 0
2, 22840, Note_on_c, 0, 73, 84
2, 22956, Note_on_c, 0, 73, 0
2, 22960, Note_on_c, 0, 74, 102
2, 23076, Note_on_c, 0, 74, 0
2, 23800, Note_on_c, 0, 81, 121
2, 23916, Note_on_c, 0, 81, 0
2, 23920, Note_on_c, 0, 79, 100
2, 24036, Note_on_c, 0, 79, 0
2, 24040, Note_on_c, 0, 78, 99
2, 24156, Note_on_c, 0, 78, 0
2, 24160, Note_on_c, 0, 76, 104
2, 24276, Note_on_c, 0, 76, 0
2, 24280, Note_on_c, 0, 74, 90
2, 24396, Note_on_c, 0, 74, 0
2, 24400, Note_on_c, 0, 72, 97
2, 24516, Note_on_c, 0, 72, 0
2, 24520, Note_on_c, 0, 71, 93
2, 24636, Note_on_c, 0, 71, 0
2, 24640, Note_on_c, 0, 69, 82
2, 24756, Note_on_c, 0, 69, 0
2, 24760, Note_on_c, 0, 67, 100
2, 24880, Note_on_c, 0, 67, 0
2, 25240, Note_on_c, 0, 86, 115
2, 25356, Note_on_c, 0, 86, 0
2, 25360, Note_on_c, 0, 84, 95
2, 25476, Note_on_c, 0, 84, 0
2, 25480, Note_on_c, 0, 83, 101
2, 25596, Note_on_c, 0, 83, 0
2, 25600, Note_on_c, 0, 81, 90
2, 25716, Note_on_c, 0, 81, 0
2, 25720, Note_on_c, 0, 79, 86
2, 25836, Note_on_c, 0, 79, 0
2, 25840, Note_on_c, 0, 77, 91
2, 25956, Note_on_c, 0, 77, 0
2, 25960, Note_on_c, 0, 76, 111
2, 26076, Note_on_c, 0, 76, 0
2, 26080, Note_on_c, 0, 74, 92
2, 26196, Note_on_c, 0, 74, 0
2, 26200, Note_on_c, 0, 72, 104
2, 26320, Note_on_c, 0, 72, 0
2, 26320, Note_on_c, 0, 71, 98
2, 26436, Note_on_c, 0, 71, 0
2, 26440, Note_on_c, 0, 69, 81
2, 26556, Note_on_c, 0, 69, 0
2, 26560, Note_on_c, 0, 67, 85
2, 26676, Note_on_c, 0, 67, 0
2, 26680, Note_on_c, 0, 66, 102
2, 26916, Note_on_c, 0, 66, 0
2, 26920, Note_on_c, 0, 75, 108
2, 27036, Note_on_c, 0, 75, 0
2, 27040, Note_on_c, 0, 76, 119
2, 27276, Note_on_c, 0, 76, 0
2, 27280, Note_on_c, 0, 70, 110
2, 27396, Note_on_c, 0, 70, 0
2, 27400, Note_on_c, 0, 71, 113
2, 27636, Note_on_c, 0, 71, 0
2, 27640, Note_on_c, 0, 63, 115
2, 27756, Note_on_c, 0, 63, 0
2, 27760, Note_on_c, 0, 66, 119
2, 27996, Note_on_c, 0, 66, 0
2, 28000, Note_on_c, 0, 69, 109
2, 28116, Note_on_c, 0, 69, 0
2, 28120, Note_on_c, 0, 72, 102
2, 28236, Note_on_c, 0, 72, 0
2, 28240, Note_on_c, 0, 71, 89
2, 28356, Note_on_c, 0, 71, 0
2, 28360, Note_on_c, 0, 69, 95
2, 28476, Note_on_c, 0, 69, 0
2, 28480, Note_on_c, 0, 67, 90
2, 28596, Note_on_c, 0, 67, 0
2, 28600, Note_on_c, 0, 69, 85
2, 28716, Note_on_c, 0, 69, 0
2, 28720, Note_on_c, 0, 66, 97
2, 28836, Note_on_c, 0, 66, 0
2, 28840, Note_on_c, 0, 64, 106
2, 28956, Note_on_c, 0, 64, 0
2, 28960, Note_on_c, 0, 67, 95
2, 29076, Note_on_c, 0, 67, 0
2, 29080, Note_on_c, 0, 71, 100
2, 29196, Note_on_c, 0, 71, 0
2, 29200, Note_on_c, 0, 76, 98
2, 29316, Note_on_c, 0, 76, 0
2, 29320, Note_on_c, 0, 79, 97
2, 29436, Note_on_c, 0, 79, 0
2, 29440, Note_on_c, 0, 83, 107
2, 29556, Note_on_c, 0, 83, 0
2, 29560, Note_on_c, 0, 79, 102
2, 29676, Note_on_c, 0, 79, 0
2, 29680, Note_on_c, 0, 76, 109
2, 29796, Note_on_c, 0, 76, 0
2, 29800, Note_on_c, 0, 71, 88
2, 29916, Note_on_c, 0, 71, 0
2, 29920, Note_on_c, 0, 67, 90
2, 30036, Note_on_c, 0, 67, 0
2, 30040, Note_on_c, 0, 66, 71
2, 30156, Note_on_c, 0, 66, 0
2, 30160, Note_on_c, 0, 64, 82
2, 30276, Note_on_c, 0, 64, 0
2, 30280, Note_on_c, 0, 65, 100
2, 30396, Note_on_c, 0, 65, 0
2, 30400, Note_on_c, 0, 69, 76
2, 30516, Note_on_c, 0, 69, 0
2, 30520, Note_on_c, 0, 72, 95
2, 30636, Note_on_c, 0, 72, 0
2, 30640, Note_on_c, 0, 77, 98
2, 30756, Note_on_c, 0, 77, 0
2, 30760, Note_on_c, 0, 81, 86
2, 30876, Note_on_c, 0, 81, 0
2, 30880, Note_on_c, 0, 84, 109
2, 30996, Note_on_c, 0, 84, 0
2, 31000, Note_on_c, 0, 81, 104
2, 31116, Note_on_c, 0, 81, 0
2, 31120, Note_on_c, 0, 77, 77
2, 31236, Note_on_c, 0, 77, 0
2, 31240, Note_on_c, 0, 72, 98
2, 31356, Note_on_c, 0, 72, 0
2, 31360, Note_on_c, 0, 69, 80
2, 31476, Note_on_c, 0, 69, 0
2, 31480, Note_on_c, 0, 67, 69
2, 31596, Note_on_c, 0, 67, 0
2, 31600, Note_on_c, 0, 66, 104
2, 31716, Note_on_c, 0, 66, 0
2, 31720, Note_on_c, 0, 67, 95
2, 31836, Note_on_c, 0, 67, 0
2, 31840, Note_on_c, 0, 71, 83
2, 31956, Note_on_c, 0, 71, 0
2, 31960, Note_on_c, 0, 76, 100
2, 32076, Note_on_c, 0, 76, 0
2, 32080, Note_on_c, 0, 79, 93
2, 32196, Note_on_c, 0, 79, 0
2, 32200, Note_on_c, 0, 76, 90
2, 32316, Note_on_c, 0, 76, 0
2, 32320, Note_on_c, 0, 84, 109
2, 32436, Note_on_c, 0, 84, 0
2, 32440, Note_on_c, 0, 83, 104
2, 32556, Note_on_c, 0, 83, 0
2, 32560, Note_on_c, 0, 81, 104
2, 32676, Note_on_c, 0, 81, 0
2, 32680, Note_on_c, 0, 79, 95
2, 32796, Note_on_c, 0, 79, 0
2, 32800, Note_on_c, 0, 78, 104
2, 32916, Note_on_c, 0, 78, 0
2, 32920, Note_on_c, 0, 76, 93
2, 33036, Note_on_c, 0, 76, 0
2, 33040, Note_on_c, 0, 75, 108
2, 33156, Note_on_c, 0, 75, 0
2, 33160, Note_on_c, 0, 76, 101
2, 33276, Note_on_c, 0, 76, 0
2, 33280, Note_on_c, 0, 79, 96
2, 33396, Note_on_c, 0, 79, 0
2, 33400, Note_on_c, 0, 76, 96
2, 33516, Note_on_c, 0, 76, 0
2, 33520, Note_on_c, 0, 71, 93
2, 33636, Note_on_c, 0, 71, 0
2, 33640, Note_on_c, 0, 67, 61
2, 33756, Note_on_c, 0, 67, 0
2, 33760, Note_on_c, 0, 66, 97
2, 33876, Note_on_c, 0, 66, 0
2, 33880, Note_on_c, 0, 67, 102
2, 33996, Note_on_c, 0, 67, 0
2, 34000, Note_on_c, 0, 64, 86
2, 34116, Note_on_c, 0, 64, 0
2, 34120, Note_on_c, 0, 67, 83
2, 34236, Note_on_c, 0, 67, 0
2, 34240, Note_on_c, 0, 71, 91
2, 34356, Note_on_c, 0, 71, 0
2, 34360, Note_on_c, 0, 76, 92
2, 34476, Note_on_c, 0, 76, 0
2, 34480, Note_on_c, 0, 75, 82
2, 34596, Note_on_c, 0, 75, 0
2, 34600, Note_on_c, 0, 76, 96
2, 34716, Note_on_c, 0, 76, 0
2, 34720, Note_on_c, 0, 74, 95
2, 34836, Note_on_c, 0, 74, 0
2, 34840, Note_on_c, 0, 72, 86
2, 34956, Note_on_c, 0, 72, 0
2, 34960, Note_on_c, 0, 71, 81
2, 35076, Note_on_c, 0, 71, 0
2, 35080, Note_on_c, 0, 69, 75
2, 35196, Note_on_c, 0, 69, 0
2, 35200, Note_on_c, 0, 67, 80
2, 35316, Note_on_c, 0, 67, 0
2, 35320, Note_on_c, 0, 66, 102
2, 35916, Note_on_c, 0, 66, 0
2, 35920, Note_on_c, 0, 69, 93
2, 36036, Note_on_c, 0, 69, 0
2, 36040, Note_on_c, 0, 74, 100
2, 36160, Note_on_c, 0, 74, 0
2, 36160, Note_on_c, 0, 72, 100
2, 36280, Note_on_c, 0, 72, 0
2, 36280, Note_on_c, 0, 71, 100
2, 36400, Note_on_c, 0, 71, 0
2, 36400, Note_on_c, 0, 69, 100
2, 36520, Note_on_c, 0, 69, 0
2, 36520, Note_on_c, 0, 67, 101
2, 36636, Note_on_c, 0, 67, 0
2, 36640, Note_on_c, 0, 66, 106
2, 36756, Note_on_c, 0, 66, 0
2, 36760, Note_on_c, 0, 64, 102
2, 37356, Note_on_c, 0, 64, 0
2, 37360, Note_on_c, 0, 74, 113
2, 37476, Note_on_c, 0, 74, 0
2, 37480, Note_on_c, 0, 72, 101
2, 37596, Note_on_c, 0, 72, 0
2, 37600, Note_on_c, 0, 71, 86
2, 37716, Note_on_c, 0, 71, 0
2, 37720, Note_on_c, 0, 69, 67
2, 37836, Note_on_c, 0, 69, 0
2, 37840, Note_on_c, 0, 67, 74
2, 37956, Note_on_c, 0, 67, 0
2, 37960, Note_on_c, 0, 66, 82
2, 38076, Note_on_c, 0, 66, 0
2, 38080, Note_on_c, 0, 64, 77
2, 38196, Note_on_c, 0, 64, 0
2, 38200, Note_on_c, 0, 66, 92
2, 38316, Note_on_c, 0, 66, 0
2, 38320, Note_on_c, 0, 64, 83
2, 38436, Note_on_c, 0, 64, 0
2, 38440, Note_on_c, 0, 62, 90
2, 38556, Note_on_c, 0, 62, 0
2, 38560, Note_on_c, 0, 61, 99
2, 38676, Note_on_c, 0, 61, 0
2, 38680, Note_on_c, 0, 62, 100
2, 38796, Note_on_c, 0, 62, 0
2, 38800, Note_on_c, 0, 64, 101
2, 38916, Note_on_c, 0, 64, 0
2, 38920, Note_on_c, 0, 66, 99
2, 39036, Note_on_c, 0, 66, 0
2, 39040, Note_on_c, 0, 64, 93
2, 39156, Note_on_c, 0, 64, 0
2, 39160, Note_on_c, 0, 62, 83
2, 39276, Note_on_c, 0, 62, 0
2, 39280, Note_on_c, 0, 60, 93
2, 39396, Note_on_c, 0, 60, 0
2, 39400, Note_on_c, 0, 59, 85
2, 39516, Note_on_c, 0, 59, 0
2, 39520, Note_on_c, 0, 57, 84
2, 39636, Note_on_c, 0, 57, 0
2, 39640, Note_on_c, 0, 59, 106
2, 39756, Note_on_c, 0, 59, 0
2, 39760, Note_on_c, 0, 57, 89
2, 39876, Note_on_c, 0, 57, 0
2, 39880, Note_on_c, 0, 55, 75
2, 39996, Note_on_c, 0, 55, 0
2, 40000, Note_on_c, 0, 54, 102
2, 40116, Note_on_c, 0, 54, 0
2, 40120, Note_on_c, 0, 55, 96
2, 40236, Note_on_c, 0, 55, 0
2, 40240, Note_on_c, 0, 57, 97
2, 40356, Note_on_c, 0, 57, 0
2, 40360, Note_on_c, 0, 59, 111
2, 40476, Note_on_c, 0, 59, 0
2, 40480, Note_on_c, 0, 57, 92
2, 40596, Note_on_c, 0, 57, 0
2, 40600, Note_on_c, 0, 55, 92
2, 40716, Note_on_c, 0, 55, 0
2, 40720, Note_on_c, 0, 53, 101
2, 40836, Note_on_c, 0, 53, 0
2, 40840, Note_on_c, 0, 52, 91
2, 40956, Note_on_c, 0, 52, 0
2, 40960, Note_on_c, 0, 50, 83
2, 41076, Note_on_c, 0, 50, 0
2, 41080, Note_on_c, 0, 52, 107
2, 41196, Note_on_c, 0, 52, 0
2, 41200, Note_on_c, 0, 50, 88
2, 41316, Note_on_c, 0, 50, 0
2, 41320, Note_on_c, 0, 48, 88
2, 41436, Note_on_c, 0, 48, 0
2, 41440, Note_on_c, 0, 47, 90
2, 41556, Note_on_c, 0, 47, 0
2, 41560, Note_on_c, 0, 48, 93
2, 41676, Note_on_c, 0, 48, 0
2, 41680, Note_on_c, 0, 50, 93
2, 41796, Note_on_c, 0, 50, 0
2, 41800, Note_on_c, 0, 52, 100
2, 41916, Note_on_c, 0, 52, 0
2, 41920, Note_on_c, 0, 48, 84
2, 42036, Note_on_c, 0, 48, 0
2, 42040, Note_on_c, 0, 52, 75
2, 42156, Note_on_c, 0, 52, 0
2, 42160, Note_on_c, 0, 57, 91
2, 42276, Note_on_c, 0, 57, 0
2, 42280, Note_on_c, 0, 60, 102
2, 42396, Note_on_c, 0, 60, 0
2, 42400, Note_on_c, 0, 64, 104
2, 42516, Note_on_c, 0, 64, 0
2, 42520, Note_on_c, 0, 60, 96
2, 42636, Note_on_c, 0, 60, 0
2, 42640, Note_on_c, 0, 57, 82
2, 42756, Note_on_c, 0, 57, 0
2, 42760, Note_on_c, 0, 60, 92
2, 42876, Note_on_c, 0, 60, 0
2, 42880, Note_on_c, 0, 64, 97
2, 42996, Note_on_c, 0, 64, 0
2, 43000, Note_on_c, 0, 69, 104
2, 43116, Note_on_c, 0, 69, 0
2, 43120, Note_on_c, 0, 72, 109
2, 43236, Note_on_c, 0, 72, 0
2, 43240, Note_on_c, 0, 66, 106
2, 43356, Note_on_c, 0, 66, 0
2, 43360, Note_on_c, 0, 62, 88
2, 43476, Note_on_c, 0, 62, 0
2, 43480, Note_on_c, 0, 66, 92
2, 43600, Note_on_c, 0, 66, 0
2, 43600, Note_on_c, 0, 69, 92
2, 43720, Note_on_c, 0, 69, 0
2, 43720, Note_on_c, 0, 74, 102
2, 43836, Note_on_c, 0, 74, 0
2, 43840, Note_on_c, 0, 78, 59
2, 43956, Note_on_c, 0, 78, 0
2, 43960, Note_on_c, 0, 74, 96
2, 44076, Note_on_c, 0, 74, 0
2, 44080, Note_on_c, 0, 69, 80
2, 44196, Note_on_c, 0, 69, 0
2, 44200, Note_on_c, 0, 74, 95
2, 44316, Note_on_c, 0, 74, 0
2, 44320, Note_on_c, 0, 78, 86
2, 44436, Note_on_c, 0, 78, 0
2, 44440, Note_on_c, 0, 81, 92
2, 44556, Note_on_c, 0, 81, 0
2, 44560, Note_on_c, 0, 84, 101
2, 44676, Note_on_c, 0, 84, 0
2, 44680, Note_on_c, 0, 83, 102
2, 44796, Note_on_c, 0, 83, 0
2, 44800, Note_on_c, 0, 79, 86
2, 44916, Note_on_c, 0, 79, 0
2, 44920, Note_on_c, 0, 74, 81
2, 45036, Note_on_c, 0, 74, 0
2, 45040, Note_on_c, 0, 71, 96
2, 45156, Note_on_c, 0, 71, 0
2, 45160, Note_on_c, 0, 67, 91
2, 45276, Note_on_c, 0, 67, 0
2, 45280, Note_on_c, 0, 66, 97
2, 45396, Note_on_c, 0, 66, 0
2, 45400, Note_on_c, 0, 67, 100
2, 45516, Note_on_c, 0, 67, 0
2, 45520, Note_on_c, 0, 71, 97
2, 45636, Note_on_c, 0, 71, 0
2, 45640, Note_on_c, 0, 74, 104
2, 45756, Note_on_c, 0, 74, 0
2, 45760, Note_on_c, 0, 79, 115
2, 46116, Note_on_c, 0, 79, 0
2, 47520, End_track
3, 0, Start_track
3, 0, Title_t, "goldberg.mid"
3, 40, Note_on_c, 3, 55, 115
3, 636, Note_on_c, 3, 55, 0
3, 640, Note_on_c, 3, 59, 107
3, 756, Note_on_c, 3, 59, 0
3, 760, Note_on_c, 3, 64, 109
3, 876, Note_on_c, 3, 64, 0
3, 880, Note_on_c, 3, 62, 101
3, 996, Note_on_c, 3, 62, 0
3, 1000, Note_on_c, 3, 61, 102
3, 1116, Note_on_c, 3, 61, 0
3, 1120, Note_on_c, 3, 59, 100
3, 1236, Note_on_c, 3, 59, 0
3, 1240, Note_on_c, 3, 57, 84
3, 1356, Note_on_c, 3, 57, 0
3, 1360, Note_on_c, 3, 55, 85
3, 1476, Note_on_c, 3, 55, 0
3, 1480, Note_on_c, 3, 54, 117
3, 2076, Note_on_c, 3, 54, 0
3, 2080, Note_on_c, 3, 64, 115
3, 2196, Note_on_c, 3, 64, 0
3, 2200, Note_on_c, 3, 62, 100
3, 2316, Note_on_c, 3, 62, 0
3, 2320, Note_on_c, 3, 61, 97
3, 2436, Note_on_c, 3, 61, 0
3, 2440, Note_on_c, 3, 59, 91
3, 2556, Note_on_c, 3, 59, 0
3, 2560, Note_on_c, 3, 57, 83
3, 2676, Note_on_c, 3, 57, 0
3, 2680, Note_on_c, 3, 55, 82
3, 2796, Note_on_c, 3, 55, 0
3, 2800, Note_on_c, 3, 54, 104
3, 2916, Note_on_c, 3, 54, 0
3, 2920, Note_on_c, 3, 52, 97
3, 3156, Note_on_c, 3, 52, 0
3, 3160, Note_on_c, 3, 55, 96
3, 3276, Note_on_c, 3, 55, 0
3, 3280, Note_on_c, 3, 59, 104
3, 3516, Note_on_c, 3, 59, 0
3, 3520, Note_on_c, 3, 62, 106
3, 3636, Note_on_c, 3, 62, 0
3, 3640, Note_on_c, 3, 61, 101
3, 3756, Note_on_c, 3, 61, 0
3, 3760, Note_on_c, 3, 59, 101
3, 3876, Note_on_c, 3, 59, 0
3, 3880, Note_on_c, 3, 57, 97
3, 3996, Note_on_c, 3, 57, 0
3, 4000, Note_on_c, 3, 55, 91
3, 4116, Note_on_c, 3, 55, 0
3, 4120, Note_on_c, 3, 54, 108
3, 4236, Note_on_c, 3, 54, 0
3, 4240, Note_on_c, 3, 52, 104
3, 4356, Note_on_c, 3, 52, 0
3, 4360, Note_on_c, 3, 50, 95
3, 4476, Note_on_c, 3, 50, 0
3, 4480, Note_on_c, 3, 52, 91
3, 4596, Note_on_c, 3, 52, 0
3, 4600, Note_on_c, 3, 54, 99
3, 4716, Note_on_c, 3, 54, 0
3, 4720, Note_on_c, 3, 55, 88
3, 4836, Note_on_c, 3, 55, 0
3, 4840, Note_on_c, 3, 57, 86
3, 4956, Note_on_c, 3, 57, 0
3, 4960, Note_on_c, 3, 59, 97
3, 5076, Note_on_c, 3, 59, 0
3, 5080, Note_on_c, 3, 61, 102
3, 5196, Note_on_c, 3, 61, 0
3, 5200, Note_on_c, 3, 62, 95
3, 5316, Note_on_c, 3, 62, 0
3, 5320, Note_on_c, 3, 64, 95
3, 5436, Note_on_c, 3, 64, 0
3, 5440, Note_on_c, 3, 66, 106
3, 5556, Note_on_c, 3, 66, 0
3, 5560, Note_on_c, 3, 67, 95
3, 5676, Note_on_c, 3, 67, 0
3, 5680, Note_on_c, 3, 69, 104
3, 5796, Note_on_c, 3, 69, 0
3, 5800, Note_on_c, 3, 66, 86
3, 5860, Note_on_c, 3, 66, 0
3, 5860, Note_on_c, 3, 67, 97
3, 5920, Note_on_c, 3, 67, 0
3, 5920, Note_on_c, 3, 69, 83
3, 5980, Note_on_c, 3, 69, 0
3, 5980, Note_on_c, 3, 67, 93
3, 6040, Note_on_c, 3, 67, 0
3, 6040, Note_on_c, 3, 69, 88
3, 6100, Note_on_c, 3, 69, 0
3, 6100, Note_on_c, 3, 67, 80
3, 6160, Note_on_c, 3, 67, 0
3, 6160, Note_on_c, 3, 69, 83
3, 6220, Note_on_c, 3, 69, 0
3, 6220, Note_on_c, 3, 67, 75
3, 6280, Note_on_c, 3, 67, 0
3, 6280, Note_on_c, 3, 69, 66
3, 6340, Note_on_c, 3, 69, 0
3, 6340, Note_on_c, 3, 67, 70
3, 6400, Note_on_c, 3, 67, 0
3, 6400, Note_on_c, 3, 69, 82
3, 6460, Note_on_c, 3, 69, 0
3, 6460, Note_on_c, 3, 67, 70
3, 6520, Note_on_c, 3, 67, 0
3, 6520, Note_on_c, 3, 69, 73
3, 6636, Note_on_c, 3, 69, 0
3, 6640, Note_on_c, 3, 67, 86
3, 6760, Note_on_c, 3, 67, 0
3, 6760, Note_on_c, 3, 59, 62
3, 6876, Note_on_c, 3, 59, 0
3, 6880, Note_on_c, 3, 62, 109
3, 7116, Note_on_c, 3, 62, 0
3, 7120, Note_on_c, 3, 67, 84
3, 7236, Note_on_c, 3, 67, 0
3, 7240, Note_on_c, 3, 66, 107
3, 7300, Note_on_c, 3, 66, 0
3, 7300, Note_on_c, 3, 67, 63
3, 7360, Note_on_c, 3, 67, 0
3, 7360, Note_on_c, 3, 69, 70
3, 7420, Note_on_c, 3, 69, 0
3, 7420, Note_on_c, 3, 67, 89
3, 7480, Note_on_c, 3, 67, 0
3, 7480, Note_on_c, 3, 69, 86
3, 7540, Note_on_c, 3, 69, 0
3, 7540, Note_on_c, 3, 67, 60
3, 7600, Note_on_c, 3, 67, 0
3, 7600, Note_on_c, 3, 69, 85
3, 7660, Note_on_c, 3, 69, 0
3, 7660, Note_on_c, 3, 67, 84
3, 7720, Note_on_c, 3, 67, 0
3, 7720, Note_on_c, 3, 69, 86
3, 7780, Note_on_c, 3, 69, 0
3, 7780, Note_on_c, 3, 67, 81
3, 7840, Note_on_c, 3, 67, 0
3, 7840, Note_on_c, 3, 69, 95
3, 7900, Note_on_c, 3, 69, 0
3, 7900, Note_on_c, 3, 67, 90
3, 7960, Note_on_c, 3, 67, 0
3, 7960, Note_on_c, 3, 69, 76
3, 8080, Note_on_c, 3, 69, 0
3, 8080, Note_on_c, 3, 67, 101
3, 8200, Note_on_c, 3, 67, 0
3, 8200, Note_on_c, 3, 61, 110
3, 8320, Note_on_c, 3, 61, 0
3, 8320, Note_on_c, 3, 64, 123
3, 8560, Note_on_c, 3, 64, 0
3, 8560, Note_on_c, 3, 67, 104
3, 8680, Note_on_c, 3, 67, 0
3, 8680, Note_on_c, 3, 66, 96
3, 8740, Note_on_c, 3, 66, 0
3, 8740, Note_on_c, 3, 67, 66
3, 8800, Note_on_c, 3, 67, 0
3, 8800, Note_on_c, 3, 69, 71
3, 8860, Note_on_c, 3, 69, 0
3, 8860, Note_on_c, 3, 67, 76
3, 8920, Note_on_c, 3, 67, 0
3, 8920, Note_on_c, 3, 69, 77
3, 8980, Note_on_c, 3, 69, 0
3, 8980, Note_on_c, 3, 67, 68
3, 9040, Note_on_c, 3, 67, 0
3, 9040, Note_on_c, 3, 69, 88
3, 9100, Note_on_c, 3, 69, 0
3, 9100, Note_on_c, 3, 67, 82
3, 9160, Note_on_c, 3, 67, 0
3, 9160, Note_on_c, 3, 69, 82
3, 9220, Note_on_c, 3, 69, 0
3, 9220, Note_on_c, 3, 67, 82
3, 9280, Note_on_c, 3, 67, 0
3, 9280, Note_on_c, 3, 69, 82
3, 9340, Note_on_c, 3, 69, 0
3, 9340, Note_on_c, 3, 67, 82
3, 9400, Note_on_c, 3, 67, 0
3, 9400, Note_on_c, 3, 67, 80
3, 9520, Note_on_c, 3, 67, 0
3, 9520, Note_on_c, 3, 69, 104
3, 9640, Note_on_c, 3, 69, 0
3, 9640, Note_on_c, 3, 72, 104
3, 9760, Note_on_c, 3, 72, 0
3, 9760, Note_on_c, 3, 66, 110
3, 9876, Note_on_c, 3, 66, 0
3, 9880, Note_on_c, 3, 69, 100
3, 9996, Note_on_c, 3, 69, 0
3, 10000, Note_on_c, 3, 72, 111
3, 10116, Note_on_c, 3, 72, 0
3, 10120, Note_on_c, 3, 71, 117
3, 10596, Note_on_c, 3, 71, 0
3, 10600, Note_on_c, 3, 67, 88
3, 10716, Note_on_c, 3, 67, 0
3, 10720, Note_on_c, 3, 62, 98
3, 10836, Note_on_c, 3, 62, 0
3, 10840, Note_on_c, 3, 59, 92
3, 10956, Note_on_c, 3, 59, 0
3, 10960, Note_on_c, 3, 55, 82
3, 11076, Note_on_c, 3, 55, 0
3, 11080, Note_on_c, 3, 59, 84
3, 11196, Note_on_c, 3, 59, 0
3, 11200, Note_on_c, 3, 62, 102
3, 11316, Note_on_c, 3, 62, 0
3, 11320, Note_on_c, 3, 67, 90
3, 11436, Note_on_c, 3, 67, 0
3, 11440, Note_on_c, 3, 69, 74
3, 11556, Note_on_c, 3, 69, 0
3, 11560, Note_on_c, 3, 71, 107
3, 11676, Note_on_c, 3, 71, 0
3, 11680, Note_on_c, 3, 69, 88
3, 11796, Note_on_c, 3, 69, 0
3, 11800, Note_on_c, 3, 67, 98
3, 11916, Note_on_c, 3, 67, 0
3, 11920, Note_on_c, 3, 66, 115
3, 12036, Note_on_c, 3, 66, 0
3, 12040, Note_on_c, 3, 64, 98
3, 12156, Note_on_c, 3, 64, 0
3, 12160, Note_on_c, 3, 62, 97
3, 12276, Note_on_c, 3, 62, 0
3, 12280, Note_on_c, 3, 61, 119
3, 12876, Note_on_c, 3, 61, 0
3, 12880, Note_on_c, 3, 64, 101
3, 12996, Note_on_c, 3, 64, 0
3, 13000, Note_on_c, 3, 69, 107
3, 13116, Note_on_c, 3, 69, 0
3, 13120, Note_on_c, 3, 67, 104
3, 13236, Note_on_c, 3, 67, 0
3, 13240, Note_on_c, 3, 66, 84
3, 13356, Note_on_c, 3, 66, 0
3, 13360, Note_on_c, 3, 64, 84
3, 13476, Note_on_c, 3, 64, 0
3, 13480, Note_on_c, 3, 62, 85
3, 13596, Note_on_c, 3, 62, 0
3, 13600, Note_on_c, 3, 61, 89
3, 13716, Note_on_c, 3, 61, 0
3, 13720, Note_on_c, 3, 59, 119
3, 14316, Note_on_c, 3, 59, 0
3, 14320, Note_on_c, 3, 69, 104
3, 14436, Note_on_c, 3, 69, 0
3, 14440, Note_on_c, 3, 67, 104
3, 14556, Note_on_c, 3, 67, 0
3, 14560, Note_on_c, 3, 66, 102
3, 14676, Note_on_c, 3, 66, 0
3, 14680, Note_on_c, 3, 64, 101
3, 14796, Note_on_c, 3, 64, 0
3, 14800, Note_on_c, 3, 62, 95
3, 14916, Note_on_c, 3, 62, 0
3, 14920, Note_on_c, 3, 61, 101
3, 15036, Note_on_c, 3, 61, 0
3, 15040, Note_on_c, 3, 59, 92
3, 15156, Note_on_c, 3, 59, 0
3, 15160, Note_on_c, 3, 64, 98
3, 15276, Note_on_c, 3, 64, 0
3, 15280, Note_on_c, 3, 62, 85
3, 15396, Note_on_c, 3, 62, 0
3, 15400, Note_on_c, 3, 61, 89
3, 15516, Note_on_c, 3, 61, 0
3, 15520, Note_on_c, 3, 59, 88
3, 15636, Note_on_c, 3, 59, 0
3, 15640, Note_on_c, 3, 57, 86
3, 15756, Note_on_c, 3, 57, 0
3, 15760, Note_on_c, 3, 55, 89
3, 15876, Note_on_c, 3, 55, 0
3, 15880, Note_on_c, 3, 61, 94
3, 15996, Note_on_c, 3, 61, 0
3, 16000, Note_on_c, 3, 59, 97
3, 16116, Note_on_c, 3, 59, 0
3, 16120, Note_on_c, 3, 57, 92
3, 16236, Note_on_c, 3, 57, 0
3, 16240, Note_on_c, 3, 55, 85
3, 16356, Note_on_c, 3, 55, 0
3, 16360, Note_on_c, 3, 54, 102
3, 16476, Note_on_c, 3, 54, 0
3, 16480, Note_on_c, 3, 52, 97
3, 16596, Note_on_c, 3, 52, 0
3, 16600, Note_on_c, 3, 57, 95
3, 16716, Note_on_c, 3, 57, 0
3, 16720, Note_on_c, 3, 55, 83
3, 16836, Note_on_c, 3, 55, 0
3, 16840, Note_on_c, 3, 54, 101
3, 16956, Note_on_c, 3, 54, 0
3, 16960, Note_on_c, 3, 52, 93
3, 17076, Note_on_c, 3, 52, 0
3, 17080, Note_on_c, 3, 54, 88
3, 17196, Note_on_c, 3, 54, 0
3, 17200, Note_on_c, 3, 55, 100
3, 17316, Note_on_c, 3, 55, 0
3, 17320, Note_on_c, 3, 54, 92
3, 17436, Note_on_c, 3, 54, 0
3, 17440, Note_on_c, 3, 57, 89
3, 17556, Note_on_c, 3, 57, 0
3, 17560, Note_on_c, 3, 62, 96
3, 17676, Note_on_c, 3, 62, 0
3, 17680, Note_on_c, 3, 66, 96
3, 17796, Note_on_c, 3, 66, 0
3, 17800, Note_on_c, 3, 69, 73
3, 17916, Note_on_c, 3, 69, 0
3, 17920, Note_on_c, 3, 74, 95
3, 18036, Note_on_c, 3, 74, 0
3, 18040, Note_on_c, 3, 69, 76
3, 18156, Note_on_c, 3, 69, 0
3, 18160, Note_on_c, 3, 66, 84
3, 18276, Note_on_c, 3, 66, 0
3, 18280, Note_on_c, 3, 62, 83
3, 18396, Note_on_c, 3, 62, 0
3, 18400, Note_on_c, 3, 60, 92
3, 18516, Note_on_c, 3, 60, 0
3, 18520, Note_on_c, 3, 59, 85
3, 18636, Note_on_c, 3, 59, 0
3, 18640, Note_on_c, 3, 57, 83
3, 18756, Note_on_c, 3, 57, 0
3, 18760, Note_on_c, 3, 56, 94
3, 18876, Note_on_c, 3, 56, 0
3, 18880, Note_on_c, 3, 59, 69
3, 18996, Note_on_c, 3, 59, 0
3, 19000, Note_on_c, 3, 62, 88
3, 19116, Note_on_c, 3, 62, 0
3, 19120, Note_on_c, 3, 65, 115
3, 19236, Note_on_c, 3, 65, 0
3, 19240, Note_on_c, 3, 71, 89
3, 19356, Note_on_c, 3, 71, 0
3, 19360, Note_on_c, 3, 74, 72
3, 19476, Note_on_c, 3, 74, 0
3, 19480, Note_on_c, 3, 71, 72
3, 19596, Note_on_c, 3, 71, 0
3, 19600, Note_on_c, 3, 65, 85
3, 19716, Note_on_c, 3, 65, 0
3, 19720, Note_on_c, 3, 64, 89
3, 19836, Note_on_c, 3, 64, 0
3, 19840, Note_on_c, 3, 62, 73
3, 19956, Note_on_c, 3, 62, 0
3, 19960, Note_on_c, 3, 61, 73
3, 20076, Note_on_c, 3, 61, 0
3, 20080, Note_on_c, 3, 59, 95
3, 20196, Note_on_c, 3, 59, 0
3, 20200, Note_on_c, 3, 57, 101
3, 20316, Note_on_c, 3, 57, 0
3, 20320, Note_on_c, 3, 62, 100
3, 20440, Note_on_c, 3, 62, 0
3, 20440, Note_on_c, 3, 66, 92
3, 20556, Note_on_c, 3, 66, 0
3, 20560, Note_on_c, 3, 69, 83
3, 20676, Note_on_c, 3, 69, 0
3, 20680, Note_on_c, 3, 74, 83
3, 20796, Note_on_c, 3, 74, 0
3, 20800, Note_on_c, 3, 78, 81
3, 20916, Note_on_c, 3, 78, 0
3, 20920, Note_on_c, 3, 76, 83
3, 21036, Note_on_c, 3, 76, 0
3, 21040, Note_on_c, 3, 73, 82
3, 21156, Note_on_c, 3, 73, 0
3, 21160, Note_on_c, 3, 69, 77
3, 21276, Note_on_c, 3, 69, 0
3, 21280, Note_on_c, 3, 67, 96
3, 21396, Note_on_c, 3, 67, 0
3, 21400, Note_on_c, 3, 66, 96
3, 21516, Note_on_c, 3, 66, 0
3, 21520, Note_on_c, 3, 64, 101
3, 21636, Note_on_c, 3, 64, 0
3, 21640, Note_on_c, 3, 62, 97
3, 21756, Note_on_c, 3, 62, 0
3, 21760, Note_on_c, 3, 57, 93
3, 21876, Note_on_c, 3, 57, 0
3, 21880, Note_on_c, 3, 54, 88
3, 21996, Note_on_c, 3, 54, 0
3, 22000, Note_on_c, 3, 50, 61
3, 22116, Note_on_c, 3, 50, 0
3, 22120, Note_on_c, 3, 45, 101
3, 22236, Note_on_c, 3, 45, 0
3, 22240, Note_on_c, 3, 42, 83
3, 22356, Note_on_c, 3, 42, 0
3, 22360, Note_on_c, 3, 38, 115
3, 22480, Note_on_c, 3, 38, 0
3, 22480, Note_on_c, 3, 42, 115
3, 22600, Note_on_c, 3, 42, 0
3, 22600, Note_on_c, 3, 45, 115
3, 22720, Note_on_c, 3, 45, 0
3, 22720, Note_on_c, 3, 62, 106
3, 23080, Note_on_c, 3, 62, 0
3, 23080, Note_on_c, 3, 50, 102
3, 23196, Note_on_c, 3, 50, 0
3, 23200, Note_on_c, 3, 52, 106
3, 23316, Note_on_c, 3, 52, 0
3, 23320, Note_on_c, 3, 54, 108
3, 23436, Note_on_c, 3, 54, 0
3, 23440, Note_on_c, 3, 55, 97
3, 23556, Note_on_c, 3, 55, 0
3, 23560, Note_on_c, 3, 57, 96
3, 23676, Note_on_c, 3, 57, 0
3, 23680, Note_on_c, 3, 59, 96
3, 23796, Note_on_c, 3, 59, 0
3, 23800, Note_on_c, 3, 60, 104
3, 23916, Note_on_c, 3, 60, 0
3, 23920, Note_on_c, 3, 50, 70
3, 24036, Note_on_c, 3, 50, 0
3, 24040, Note_on_c, 3, 60, 124
3, 24276, Note_on_c, 3, 60, 0
3, 24280, Note_on_c, 3, 59, 98
3, 24396, Note_on_c, 3, 59, 0
3, 24400, Note_on_c, 3, 57, 107
3, 24516, Note_on_c, 3, 57, 0
3, 24520, Note_on_c, 3, 55, 100
3, 24636, Note_on_c, 3, 55, 0
3, 24640, Note_on_c, 3, 57, 101
3, 24756, Note_on_c, 3, 57, 0
3, 24760, Note_on_c, 3, 59, 100
3, 24876, Note_on_c, 3, 59, 0
3, 24880, Note_on_c, 3, 60, 102
3, 24996, Note_on_c, 3, 60, 0
3, 25000, Note_on_c, 3, 62, 89
3, 25116, Note_on_c, 3, 62, 0
3, 25120, Note_on_c, 3, 64, 92
3, 25236, Note_on_c, 3, 64, 0
3, 25240, Note_on_c, 3, 65, 101
3, 25356, Note_on_c, 3, 65, 0
3, 25360, Note_on_c, 3, 55, 101
3, 25476, Note_on_c, 3, 55, 0
3, 25480, Note_on_c, 3, 65, 119
3, 25716, Note_on_c, 3, 65, 0
3, 25720, Note_on_c, 3, 64, 115
3, 25836, Note_on_c, 3, 64, 0
3, 25840, Note_on_c, 3, 62, 107
3, 25956, Note_on_c, 3, 62, 0
3, 25960, Note_on_c, 3, 60, 104
3, 26436, Note_on_c, 3, 60, 0
3, 26440, Note_on_c, 3, 64, 101
3, 26556, Note_on_c, 3, 64, 0
3, 26560, Note_on_c, 3, 67, 104
3, 26676, Note_on_c, 3, 67, 0
3, 26680, Note_on_c, 3, 72, 104
3, 26796, Note_on_c, 3, 72, 0
3, 26800, Note_on_c, 3, 71, 97
3, 26916, Note_on_c, 3, 71, 0
3, 26920, Note_on_c, 3, 69, 101
3, 27036, Note_on_c, 3, 69, 0
3, 27040, Note_on_c, 3, 67, 98
3, 27156, Note_on_c, 3, 67, 0
3, 27160, Note_on_c, 3, 66, 104
3, 27276, Note_on_c, 3, 66, 0
3, 27280, Note_on_c, 3, 64, 93
3, 27396, Note_on_c, 3, 64, 0
3, 27400, Note_on_c, 3, 63, 115
3, 27516, Note_on_c, 3, 63, 0
3, 27520, Note_on_c, 3, 61, 102
3, 27636, Note_on_c, 3, 61, 0
3, 27640, Note_on_c, 3, 59, 101
3, 27756, Note_on_c, 3, 59, 0
3, 27760, Note_on_c, 3, 57, 97
3, 27876, Note_on_c, 3, 57, 0
3, 27880, Note_on_c, 3, 55, 91
3, 27996, Note_on_c, 3, 55, 0
3, 28000, Note_on_c, 3, 54, 101
3, 28116, Note_on_c, 3, 54, 0
3, 28120, Note_on_c, 3, 52, 106
3, 28236, Note_on_c, 3, 52, 0
3, 28240, Note_on_c, 3, 51, 106
3, 28356, Note_on_c, 3, 51, 0
3, 28360, Note_on_c, 3, 49, 106
3, 28476, Note_on_c, 3, 49, 0
3, 28480, Note_on_c, 3, 47, 100
3, 28596, Note_on_c, 3, 47, 0
3, 28600, Note_on_c, 3, 48, 107
3, 28716, Note_on_c, 3, 48, 0
3, 28720, Note_on_c, 3, 45, 101
3, 28836, Note_on_c, 3, 45, 0
3, 28840, Note_on_c, 3, 43, 119
3, 29316, Note_on_c, 3, 43, 0
3, 29320, Note_on_c, 3, 47, 109
3, 29436, Note_on_c, 3, 47, 0
3, 29440, Note_on_c, 3, 52, 104
3, 29556, Note_on_c, 3, 52, 0
3, 29560, Note_on_c, 3, 55, 100
3, 29676, Note_on_c, 3, 55, 0
3, 29680, Note_on_c, 3, 59, 90
3, 29796, Note_on_c, 3, 59, 0
3, 29800, Note_on_c, 3, 63, 101
3, 29916, Note_on_c, 3, 63, 0
3, 29920, Note_on_c, 3, 64, 115
3, 30036, Note_on_c, 3, 64, 0
3, 30160, Note_on_c, 3, 43, 107
3, 30276, Note_on_c, 3, 43, 0
3, 30280, Note_on_c, 3, 45, 121
3, 30756, Note_on_c, 3, 45, 0
3, 30760, Note_on_c, 3, 48, 109
3, 30876, Note_on_c, 3, 48, 0
3, 30880, Note_on_c, 3, 53, 104
3, 30996, Note_on_c, 3, 53, 0
3, 31000, Note_on_c, 3, 57, 86
3, 31116, Note_on_c, 3, 57, 0
3, 31120, Note_on_c, 3, 60, 102
3, 31236, Note_on_c, 3, 60, 0
3, 31240, Note_on_c, 3, 63, 115
3, 31356, Note_on_c, 3, 63, 0
3, 31360, Note_on_c, 3, 64, 115
3, 31600, Note_on_c, 3, 64, 0
3, 31600, Note_on_c, 3, 46, 123
3, 31716, Note_on_c, 3, 46, 0
3, 31720, Note_on_c, 3, 47, 127
3, 32196, Note_on_c, 3, 47, 0
3, 32200, Note_on_c, 3, 49, 119
3, 32316, Note_on_c, 3, 49, 0
3, 32320, Note_on_c, 3, 51, 121
3, 32436, Note_on_c, 3, 51, 0
3, 32440, Note_on_c, 3, 52, 115
3, 32556, Note_on_c, 3, 52, 0
3, 32560, Note_on_c, 3, 54, 123
3, 32676, Note_on_c, 3, 54, 0
3, 32680, Note_on_c, 3, 55, 106
3, 32796, Note_on_c, 3, 55, 0
3, 32800, Note_on_c, 3, 57, 119
3, 32916, Note_on_c, 3, 57, 0
3, 32920, Note_on_c, 3, 55, 102
3, 33036, Note_on_c, 3, 55, 0
3, 33040, Note_on_c, 3, 54, 115
3, 33156, Note_on_c, 3, 54, 0
3, 33160, Note_on_c, 3, 55, 111
3, 33276, Note_on_c, 3, 55, 0
3, 33280, Note_on_c, 3, 52, 101
3, 33396, Note_on_c, 3, 52, 0
3, 33400, Note_on_c, 3, 55, 89
3, 33516, Note_on_c, 3, 55, 0
3, 33520, Note_on_c, 3, 59, 93
3, 33636, Note_on_c, 3, 59, 0
3, 33640, Note_on_c, 3, 64, 102
3, 33756, Note_on_c, 3, 64, 0
3, 33760, Note_on_c, 3, 63, 94
3, 33876, Note_on_c, 3, 63, 0
3, 33880, Note_on_c, 3, 64, 86
3, 33996, Note_on_c, 3, 64, 0
3, 34000, Note_on_c, 3, 67, 84
3, 34116, Note_on_c, 3, 67, 0
3, 34120, Note_on_c, 3, 64, 82
3, 34236, Note_on_c, 3, 64, 0
3, 34240, Note_on_c, 3, 59, 73
3, 34356, Note_on_c, 3, 59, 0
3, 34360, Note_on_c, 3, 55, 65
3, 34476, Note_on_c, 3, 55, 0
3, 34480, Note_on_c, 3, 59, 51
3, 34596, Note_on_c, 3, 59, 0
3, 34600, Note_on_c, 3, 48, 80
3, 35076, Note_on_c, 3, 48, 0
3, 35200, Note_on_c, 3, 64, 76
3, 35320, Note_on_c, 3, 64, 0
3, 35320, Note_on_c, 3, 69, 82
3, 35436, Note_on_c, 3, 69, 0
3, 35440, Note_on_c, 3, 67, 91
3, 35556, Note_on_c, 3, 67, 0
3, 35560, Note_on_c, 3, 66, 74
3, 35676, Note_on_c, 3, 66, 0
3, 35680, Note_on_c, 3, 64, 82
3, 35796, Note_on_c, 3, 64, 0
3, 35800, Note_on_c, 3, 62, 74
3, 35916, Note_on_c, 3, 62, 0
3, 35920, Note_on_c, 3, 60, 88
3, 36036, Note_on_c, 3, 60, 0
3, 36040, Note_on_c, 3, 59, 86
3, 36636, Note_on_c, 3, 59, 0
3, 36640, Note_on_c, 3, 69, 83
3, 36756, Note_on_c, 3, 69, 0
3, 36760, Note_on_c, 3, 67, 83
3, 36876, Note_on_c, 3, 67, 0
3, 36880, Note_on_c, 3, 66, 77
3, 36996, Note_on_c, 3, 66, 0
3, 37000, Note_on_c, 3, 64, 90
3, 37116, Note_on_c, 3, 64, 0
3, 37120, Note_on_c, 3, 62, 73
3, 37236, Note_on_c, 3, 62, 0
3, 37240, Note_on_c, 3, 60, 73
3, 37356, Note_on_c, 3, 60, 0
3, 37360, Note_on_c, 3, 59, 68
3, 37476, Note_on_c, 3, 59, 0
3, 37480, Note_on_c, 3, 57, 84
3, 37956, Note_on_c, 3, 57, 0
3, 37960, Note_on_c, 3, 59, 81
3, 38076, Note_on_c, 3, 59, 0
3, 38080, Note_on_c, 3, 60, 89
3, 38196, Note_on_c, 3, 60, 0
3, 38200, Note_on_c, 3, 62, 95
3, 38316, Note_on_c, 3, 62, 0
3, 38320, Note_on_c, 3, 64, 91
3, 38436, Note_on_c, 3, 64, 0
3, 38440, Note_on_c, 3, 66, 84
3, 38556, Note_on_c, 3, 66, 0
3, 38560, Note_on_c, 3, 67, 95
3, 38676, Note_on_c, 3, 67, 0
3, 38680, Note_on_c, 3, 66, 86
3, 38796, Note_on_c, 3, 66, 0
3, 38800, Note_on_c, 3, 64, 91
3, 38916, Note_on_c, 3, 64, 0
3, 38920, Note_on_c, 3, 62, 96
3, 39396, Note_on_c, 3, 62, 0
3, 39400, Note_on_c, 3, 64, 92
3, 39516, Note_on_c, 3, 64, 0
3, 39520, Note_on_c, 3, 66, 71
3, 39636, Note_on_c, 3, 66, 0
3, 39640, Note_on_c, 3, 67, 83
3, 39756, Note_on_c, 3, 67, 0
3, 39760, Note_on_c, 3, 69, 81
3, 39876, Note_on_c, 3, 69, 0
3, 39880, Note_on_c, 3, 71, 93
3, 39996, Note_on_c, 3, 71, 0
3, 40000, Note_on_c, 3, 72, 86
3, 40116, Note_on_c, 3, 72, 0
3, 40120, Note_on_c, 3, 71, 78
3, 40236, Note_on_c, 3, 71, 0
3, 40240, Note_on_c, 3, 69, 81
3, 40356, Note_on_c, 3, 69, 0
3, 40360, Note_on_c, 3, 67, 104
3, 40836, Note_on_c, 3, 67, 0
3, 40840, Note_on_c, 3, 69, 97
3, 40956, Note_on_c, 3, 69, 0
3, 40960, Note_on_c, 3, 71, 100
3, 41076, Note_on_c, 3, 71, 0
3, 41080, Note_on_c, 3, 72, 106
3, 41196, Note_on_c, 3, 72, 0
3, 41200, Note_on_c, 3, 74, 93
3, 41316, Note_on_c, 3, 74, 0
3, 41320, Note_on_c, 3, 76, 104
3, 41436, Note_on_c, 3, 76, 0
3, 41440, Note_on_c, 3, 77, 98
3, 41556, Note_on_c, 3, 77, 0
3, 41560, Note_on_c, 3, 76, 102
3, 41676, Note_on_c, 3, 76, 0
3, 41680, Note_on_c, 3, 74, 97
3, 41796, Note_on_c, 3, 74, 0
3, 41800, Note_on_c, 3, 72, 113
3, 42276, Note_on_c, 3, 72, 0
3, 42280, Note_on_c, 3, 76, 107
3, 42396, Note_on_c, 3, 76, 0
3, 42400, Note_on_c, 3, 72, 96
3, 42516, Note_on_c, 3, 72, 0
3, 42520, Note_on_c, 3, 69, 92
3, 42636, Note_on_c, 3, 69, 0
3, 42640, Note_on_c, 3, 64, 78
3, 42756, Note_on_c, 3, 64, 0
3, 42760, Note_on_c, 3, 60, 78
3, 42876, Note_on_c, 3, 60, 0
3, 42880, Note_on_c, 3, 57, 74
3, 42996, Note_on_c, 3, 57, 0
3, 43000, Note_on_c, 3, 60, 83
3, 43116, Note_on_c, 3, 60, 0
3, 43120, Note_on_c, 3, 64, 98
3, 43236, Note_on_c, 3, 64, 0
3, 43240, Note_on_c, 3, 69, 98
3, 43356, Note_on_c, 3, 69, 0
3, 43360, Note_on_c, 3, 72, 106
3, 43476, Note_on_c, 3, 72, 0
3, 43480, Note_on_c, 3, 69, 95
3, 43596, Note_on_c, 3, 69, 0
3, 43600, Note_on_c, 3, 66, 110
3, 43716, Note_on_c, 3, 66, 0
3, 43720, Note_on_c, 3, 62, 93
3, 43836, Note_on_c, 3, 62, 0
3, 43840, Note_on_c, 3, 57, 70
3, 43960, Note_on_c, 3, 57, 0
3, 43960, Note_on_c, 3, 54, 67
3, 44080, Note_on_c, 3, 54, 0
3, 44080, Note_on_c, 3, 50, 78
3, 44200, Note_on_c, 3, 50, 0
3, 44200, Note_on_c, 3, 54, 90
3, 44316, Note_on_c, 3, 54, 0
3, 44320, Note_on_c, 3, 57, 92
3, 44436, Note_on_c, 3, 57, 0
3, 44440, Note_on_c, 3, 60, 92
3, 44556, Note_on_c, 3, 60, 0
3, 44560, Note_on_c, 3, 54, 89
3, 44680, Note_on_c, 3, 54, 0
3, 44680, Note_on_c, 3, 55, 93
3, 44800, Note_on_c, 3, 55, 0
3, 44800, Note_on_c, 3, 59, 81
3, 44920, Note_on_c, 3, 59, 0
3, 44920, Note_on_c, 3, 62, 91
3, 45040, Note_on_c, 3, 62, 0
3, 45040, Note_on_c, 3, 67, 96
3, 45160, Note_on_c, 3, 67, 0
3, 45160, Note_on_c, 3, 71, 96
3, 45276, Note_on_c, 3, 71, 0
3, 45280, Note_on_c, 3, 74, 97
3, 45396, Note_on_c, 3, 74, 0
3, 45400, Note_on_c, 3, 79, 104
3, 45516, Note_on_c, 3, 79, 0
3, 45520, Note_on_c, 3, 74, 92
3, 45636, Note_on_c, 3, 74, 0
3, 45640, Note_on_c, 3, 71, 91
3, 45756, Note_on_c, 3, 71, 0
3, 45760, Note_on_c, 3, 67, 102
3, 46116, Note_on_c, 3, 67, 0
3, 47520, End_track
0, 0, End_of_file
