0, 0, Header, 1, 3, 480
1, 0, Start_track
1, 0, SMPTE_offset, 96, 0, 0, 0, 0
1, 0, Time_signature, 3, 2, 24, 8
1, 20, Tempo, 631578
1, 46080, End_track
2, 0, Start_track
2, 0, Title_t, "goldberg.mid"
2, 20, Note_on_c, 0, 43, 113
2, 80, Note_on_c, 0, 43, 0
2, 80, Note_on_c, 0, 42, 108
2, 140, Note_on_c, 0, 42, 0
2, 140, Note_on_c, 0, 43, 98
2, 260, Note_on_c, 0, 43, 0
2, 500, Note_on_c, 0, 81, 97
2, 556, Note_on_c, 0, 81, 0
2, 560, Note_on_c, 0, 79, 80
2, 616, Note_on_c, 0, 79, 0
2, 620, Note_on_c, 0, 78, 85
2, 676, Note_on_c, 0, 78, 0
2, 680, Note_on_c, 0, 79, 81
2, 736, Note_on_c, 0, 79, 0
2, 740, Note_on_c, 0, 81, 80
2, 796, Note_on_c, 0, 81, 0
2, 800, Note_on_c, 0, 79, 80
2, 856, Note_on_c, 0, 79, 0
2, 860, Note_on_c, 0, 81, 84
2, 916, Note_on_c, 0, 81, 0
2, 920, Note_on_c, 0, 79, 90
2, 976, Note_on_c, 0, 79, 0
2, 980, Note_on_c, 0, 81, 93
2, 1036, Note_on_c, 0, 81, 0
2, 1040, Note_on_c, 0, 79, 90
2, 1096, Note_on_c, 0, 79, 0
2, 1100, Note_on_c, 0, 81, 82
2, 1156, Note_on_c, 0, 81, 0
2, 1160, Note_on_c, 0, 79, 77
2, 1216, Note_on_c, 0, 79, 0
2, 1220, Note_on_c, 0, 81, 86
2, 1276, Note_on_c, 0, 81, 0
2, 1280, Note_on_c, 0, 79, 92
2, 1336, Note_on_c, 0, 79, 0
2, 1340, Note_on_c, 0, 78, 96
2, 1396, Note_on_c, 0, 78, 0
2, 1400, Note_on_c, 0, 79, 91
2, 1456, Note_on_c, 0, 79, 0
2, 1460, Note_on_c, 0, 81, 121
2, 1700, Note_on_c, 0, 81, 0
2, 1940, Note_on_c, 0, 54, 119
2, 1996, Note_on_c, 0, 54, 0
2, 2000, Note_on_c, 0, 52, 119
2, 2056, Note_on_c, 0, 52, 0
2, 2060, Note_on_c, 0, 54, 119
2, 2420, Note_on_c, 0, 54, 0
2, 2540, Note_on_c, 0, 57, 104
2, 2656, Note_on_c, 0, 57, 0
2, 2660, Note_on_c, 0, 55, 95
2, 2776, Note_on_c, 0, 55, 0
2, 2780, Note_on_c, 0, 54, 104
2, 2896, Note_on_c, 0, 54, 0
2, 2900, Note_on_c, 0, 52, 121
2, 3016, Note_on_c, 0, 52, 0
2, 3380, Note_on_c, 0, 76, 127
2, 3616, Note_on_c, 0, 76, 0
2, 3620, Note_on_c, 0, 74, 119
2, 3856, Note_on_c, 0, 74, 0
2, 3860, Note_on_c, 0, 73, 119
2, 4096, Note_on_c, 0, 73, 0
2, 4100, Note_on_c, 0, 74, 102
2, 4220, Note_on_c, 0, 74, 0
2, 4220, Note_on_c, 0, 76, 104
2, 4340, Note_on_c, 0, 76, 0
2, 4340, Note_on_c, 0, 66, 121
2, 4456, Note_on_c, 0, 66, 0
2, 4820, Note_on_c, 0, 50, 119
2, 4880, Note_on_c, 0, 50, 0
2, 4880, Note_on_c, 0, 48, 59
2, 4936, Note_on_c, 0, 48, 0
2, 4940, Note_on_c, 0, 50, 86
2, 4996, Note_on_c, 0, 50, 0
2, 5000, Note_on_c, 0, 48, 86
2, 5056, Note_on_c, 0, 48, 0
2, 5060, Note_on_c, 0, 48, 82
2, 5116, Note_on_c, 0, 48, 0
2, 5120, Note_on_c, 0, 50, 80
2, 5176, Note_on_c, 0, 50, 0
2, 5180, Note_on_c, 0, 48, 78
2, 5236, Note_on_c, 0, 48, 0
2, 5240, Note_on_c, 0, 50, 86
2, 5296, Note_on_c, 0, 50, 0
2, 5300, Note_on_c, 0, 48, 88
2, 5356, Note_on_c, 0, 48, 0
2, 5360, Note_on_c, 0, 50, 84
2, 5416, Note_on_c, 0, 50, 0
2, 5420, Note_on_c, 0, 48, 84
2, 5476, Note_on_c, 0, 48, 0
2, 5480, Note_on_c, 0, 48, 82
2, 5536, Note_on_c, 0, 48, 0
2, 5540, Note_on_c, 0, 50, 81
2, 5596, Note_on_c, 0, 50, 0
2, 5600, Note_on_c, 0, 48, 88
2, 5656, Note_on_c, 0, 48, 0
2, 5660, Note_on_c, 0, 47, 96
2, 5716, Note_on_c, 0, 47, 0
2, 5720, Note_on_c, 0, 48, 96
2, 5776, Note_on_c, 0, 48, 0
2, 5780, Note_on_c, 0, 47, 123
2, 6016, Note_on_c, 0, 47, 0
2, 6020, Note_on_c, 0, 43, 101
2, 6256, Note_on_c, 0, 43, 0
2, 6260, Note_on_c, 0, 47, 123
2, 6496, Note_on_c, 0, 47, 0
2, 6500, Note_on_c, 0, 50, 119
2, 6736, Note_on_c, 0, 50, 0
2, 6740, Note_on_c, 0, 55, 113
2, 6976, Note_on_c, 0, 55, 0
2, 6980, Note_on_c, 0, 47, 107
2, 7216, Note_on_c, 0, 47, 0
2, 7220, Note_on_c, 0, 48, 115
2, 7456, Note_on_c, 0, 48, 0
2, 7460, Note_on_c, 0, 52, 113
2, 7696, Note_on_c, 0, 52, 0
2, 7700, Note_on_c, 0, 55, 98
2, 7936, Note_on_c, 0, 55, 0
2, 7940, Note_on_c, 0, 60, 109
2, 8176, Note_on_c, 0, 60, 0
2, 8180, Note_on_c, 0, 52, 102
2, 8416, Note_on_c, 0, 52, 0
2, 8420, Note_on_c, 0, 55, 100
2, 8656, Note_on_c, 0, 55, 0
2, 8660, Note_on_c, 0, 54, 110
2, 8896, Note_on_c, 0, 54, 0
2, 8900, Note_on_c, 0, 57, 104
2, 9136, Note_on_c, 0, 57, 0
2, 9140, Note_on_c, 0, 50, 109
2, 9376, Note_on_c, 0, 50, 0
2, 9380, Note_on_c, 0, 54, 119
2, 9616, Note_on_c, 0, 54, 0
2, 9620, Note_on_c, 0, 57, 107
2, 9856, Note_on_c, 0, 57, 0
2, 9860, Note_on_c, 0, 62, 111
2, 10096, Note_on_c, 0, 62, 0
2, 10100, Note_on_c, 0, 59, 102
2, 10336, Note_on_c, 0, 59, 0
2, 10340, Note_on_c, 0, 55, 102
2, 10580, Note_on_c, 0, 55, 0
2, 10580, Note_on_c, 0, 59, 102
2, 10820, Note_on_c, 0, 59, 0
2, 10820, Note_on_c, 0, 62, 111
2, 11056, Note_on_c, 0, 62, 0
2, 11060, Note_on_c, 0, 67, 121
2, 11300, Note_on_c, 0, 67, 0
2, 11660, Note_on_c, 0, 83, 119
2, 11716, Note_on_c, 0, 83, 0
2, 11720, Note_on_c, 0, 81, 94
2, 11776, Note_on_c, 0, 81, 0
2, 11780, Note_on_c, 0, 83, 115
2, 11836, Note_on_c, 0, 83, 0
2, 12140, Note_on_c, 0, 76, 123
2, 12196, Note_on_c, 0, 76, 0
2, 12200, Note_on_c, 0, 74, 80
2, 12256, Note_on_c, 0, 74, 0
2, 12260, Note_on_c, 0, 76, 98
2, 12316, Note_on_c, 0, 76, 0
2, 12620, Note_on_c, 0, 69, 106
2, 12676, Note_on_c, 0, 69, 0
2, 12680, Note_on_c, 0, 67, 106
2, 12736, Note_on_c, 0, 67, 0
2, 12740, Note_on_c, 0, 69, 101
2, 12856, Note_on_c, 0, 69, 0
2, 13100, Note_on_c, 0, 81, 117
2, 13156, Note_on_c, 0, 81, 0
2, 13160, Note_on_c, 0, 79, 100
2, 13216, Note_on_c, 0, 79, 0
2, 13220, Note_on_c, 0, 81, 111
2, 13280, Note_on_c, 0, 81, 0
2, 13580, Note_on_c, 0, 74, 127
2, 13640, Note_on_c, 0, 74, 0
2, 13640, Note_on_c, 0, 73, 93
2, 13696, Note_on_c, 0, 73, 0
2, 13700, Note_on_c, 0, 74, 101
2, 13760, Note_on_c, 0, 74, 0
2, 14060, Note_on_c, 0, 67, 100
2, 14120, Note_on_c, 0, 67, 0
2, 14120, Note_on_c, 0, 66, 100
2, 14180, Note_on_c, 0, 66, 0
2, 14180, Note_on_c, 0, 67, 100
2, 14240, Note_on_c, 0, 67, 0
2, 14540, Note_on_c, 0, 79, 100
2, 14600, Note_on_c, 0, 79, 0
2, 14600, Note_on_c, 0, 78, 100
2, 14660, Note_on_c, 0, 78, 0
2, 14660, Note_on_c, 0, 79, 100
2, 14720, Note_on_c, 0, 79, 0
2, 15020, Note_on_c, 0, 71, 100
2, 15080, Note_on_c, 0, 71, 0
2, 15080, Note_on_c, 0, 69, 100
2, 15140, Note_on_c, 0, 69, 0
2, 15140, Note_on_c, 0, 71, 100
2, 15200, Note_on_c, 0, 71, 0
2, 15500, Note_on_c, 0, 64, 100
2, 15560, Note_on_c, 0, 64, 0
2, 15560, Note_on_c, 0, 62, 100
2, 15620, Note_on_c, 0, 62, 0
2, 15620, Note_on_c, 0, 64, 100
2, 15680, Note_on_c, 0, 64, 0
2, 15980, Note_on_c, 0, 55, 100
2, 16040, Note_on_c, 0, 55, 0
2, 16040, Note_on_c, 0, 54, 100
2, 16100, Note_on_c, 0, 54, 0
2, 16100, Note_on_c, 0, 55, 100
2, 16160, Note_on_c, 0, 55, 0
2, 16460, Note_on_c, 0, 49, 100
2, 16520, Note_on_c, 0, 49, 0
2, 16520, Note_on_c, 0, 47, 100
2, 16580, Note_on_c, 0, 47, 0
2, 16580, Note_on_c, 0, 49, 100
2, 16640, Note_on_c, 0, 49, 0
2, 16940, Note_on_c, 0, 43, 100
2, 17000, Note_on_c, 0, 43, 0
2, 17000, Note_on_c, 0, 42, 100
2, 17060, Note_on_c, 0, 42, 0
2, 17060, Note_on_c, 0, 43, 100
2, 17120, Note_on_c, 0, 43, 0
2, 17360, Note_on_c, 0, 62, 97
2, 17416, Note_on_c, 0, 62, 0
2, 17420, Note_on_c, 0, 64, 104
2, 17476, Note_on_c, 0, 64, 0
2, 17480, Note_on_c, 0, 66, 92
2, 17536, Note_on_c, 0, 66, 0
2, 17540, Note_on_c, 0, 69, 97
2, 17596, Note_on_c, 0, 69, 0
2, 17600, Note_on_c, 0, 66, 110
2, 17656, Note_on_c, 0, 66, 0
2, 17660, Note_on_c, 0, 64, 98
2, 17716, Note_on_c, 0, 64, 0
2, 17720, Note_on_c, 0, 62, 102
2, 17776, Note_on_c, 0, 62, 0
2, 17840, Note_on_c, 0, 62, 100
2, 17896, Note_on_c, 0, 62, 0
2, 17900, Note_on_c, 0, 64, 101
2, 17956, Note_on_c, 0, 64, 0
2, 17960, Note_on_c, 0, 66, 97
2, 18016, Note_on_c, 0, 66, 0
2, 18020, Note_on_c, 0, 69, 97
2, 18076, Note_on_c, 0, 69, 0
2, 18080, Note_on_c, 0, 66, 102
2, 18136, Note_on_c, 0, 66, 0
2, 18140, Note_on_c, 0, 64, 100
2, 18196, Note_on_c, 0, 64, 0
2, 18200, Note_on_c, 0, 62, 100
2, 18256, Note_on_c, 0, 62, 0
2, 18320, Note_on_c, 0, 62, 98
2, 18376, Note_on_c, 0, 62, 0
2, 18380, Note_on_c, 0, 64, 100
2, 18436, Note_on_c, 0, 64, 0
2, 18440, Note_on_c, 0, 66, 97
2, 18496, Note_on_c, 0, 66, 0
2, 18500, Note_on_c, 0, 69, 96
2, 18556, Note_on_c, 0, 69, 0
2, 18560, Note_on_c, 0, 66, 102
2, 18616, Note_on_c, 0, 66, 0
2, 18620, Note_on_c, 0, 64, 95
2, 18676, Note_on_c, 0, 64, 0
2, 18680, Note_on_c, 0, 62, 93
2, 18736, Note_on_c, 0, 62, 0
2, 18740, Note_on_c, 0, 71, 123
2, 18860, Note_on_c, 0, 71, 0
2, 19220, Note_on_c, 0, 53, 126
2, 19336, Note_on_c, 0, 53, 0
2, 19700, Note_on_c, 0, 52, 121
2, 19820, Note_on_c, 0, 52, 0
2, 20300, Note_on_c, 0, 64, 109
2, 20356, Note_on_c, 0, 64, 0
2, 20360, Note_on_c, 0, 62, 86
2, 20420, Note_on_c, 0, 62, 0
2, 20420, Note_on_c, 0, 64, 104
2, 20476, Note_on_c, 0, 64, 0
2, 20540, Note_on_c, 0, 69, 106
2, 20596, Note_on_c, 0, 69, 0
2, 20600, Note_on_c, 0, 67, 100
2, 20656, Note_on_c, 0, 67, 0
2, 20660, Note_on_c, 0, 69, 104
2, 20716, Note_on_c, 0, 69, 0
2, 20780, Note_on_c, 0, 62, 104
2, 20836, Note_on_c, 0, 62, 0
2, 20840, Note_on_c, 0, 61, 104
2, 20896, Note_on_c, 0, 61, 0
2, 20900, Note_on_c, 0, 62, 86
2, 20956, Note_on_c, 0, 62, 0
2, 21020, Note_on_c, 0, 67, 107
2, 21076, Note_on_c, 0, 67, 0
2, 21080, Note_on_c, 0, 66, 106
2, 21136, Note_on_c, 0, 66, 0
2, 21140, Note_on_c, 0, 67, 106
2, 21196, Note_on_c, 0, 67, 0
2, 21260, Note_on_c, 0, 61, 100
2, 21316, Note_on_c, 0, 61, 0
2, 21320, Note_on_c, 0, 59, 102
2, 21376, Note_on_c, 0, 59, 0
2, 21380, Note_on_c, 0, 61, 97
2, 21440, Note_on_c, 0, 61, 0
2, 21500, Note_on_c, 0, 66, 123
2, 21556, Note_on_c, 0, 66, 0
2, 21560, Note_on_c, 0, 64, 97
2, 21616, Note_on_c, 0, 64, 0
2, 21620, Note_on_c, 0, 66, 110
2, 21680, Note_on_c, 0, 66, 0
2, 21740, Note_on_c, 0, 62, 89
2, 21856, Note_on_c, 0, 62, 0
2, 21860, Note_on_c, 0, 61, 90
2, 21976, Note_on_c, 0, 61, 0
2, 21980, Note_on_c, 0, 62, 95
2, 22100, Note_on_c, 0, 62, 0
2, 22100, Note_on_c, 0, 66, 112
2, 22156, Note_on_c, 0, 66, 0
2, 22160, Note_on_c, 0, 64, 100
2, 22216, Note_on_c, 0, 64, 0
2, 22220, Note_on_c, 0, 62, 98
2, 22340, Note_on_c, 0, 62, 0
2, 22340, Note_on_c, 0, 69, 86
2, 22396, Note_on_c, 0, 69, 0
2, 22400, Note_on_c, 0, 67, 104
2, 22456, Note_on_c, 0, 67, 0
2, 22460, Note_on_c, 0, 66, 97
2, 22576, Note_on_c, 0, 66, 0
2, 22580, Note_on_c, 0, 74, 127
2, 22820, Note_on_c, 0, 74, 0
2, 23060, Note_on_c, 0, 78, 95
2, 23176, Note_on_c, 0, 78, 0
2, 23180, Note_on_c, 0, 81, 84
2, 23296, Note_on_c, 0, 81, 0
2, 23300, Note_on_c, 0, 86, 68
2, 23416, Note_on_c, 0, 86, 0
2, 23420, Note_on_c, 0, 81, 83
2, 23536, Note_on_c, 0, 81, 0
2, 23540, Note_on_c, 0, 78, 96
2, 23656, Note_on_c, 0, 78, 0
2, 23660, Note_on_c, 0, 81, 77
2, 23776, Note_on_c, 0, 81, 0
2, 23780, Note_on_c, 0, 74, 85
2, 23896, Note_on_c, 0, 74, 0
2, 23900, Note_on_c, 0, 78, 84
2, 24020, Note_on_c, 0, 78, 0
2, 24020, Note_on_c, 0, 81, 58
2, 24140, Note_on_c, 0, 81, 0
2, 24140, Note_on_c, 0, 78, 88
2, 24260, Note_on_c, 0, 78, 0
2, 24260, Note_on_c, 0, 79, 83
2, 24380, Note_on_c, 0, 79, 0
2, 24380, Note_on_c, 0, 81, 75
2, 24500, Note_on_c, 0, 81, 0
2, 24500, Note_on_c, 0, 74, 111
2, 24616, Note_on_c, 0, 74, 0
2, 24620, Note_on_c, 0, 79, 111
2, 24736, Note_on_c, 0, 79, 0
2, 24740, Note_on_c, 0, 83, 80
2, 24856, Note_on_c, 0, 83, 0
2, 24860, Note_on_c, 0, 79, 80
2, 24976, Note_on_c, 0, 79, 0
2, 24980, Note_on_c, 0, 74, 91
2, 25096, Note_on_c, 0, 74, 0
2, 25100, Note_on_c, 0, 79, 81
2, 25216, Note_on_c, 0, 79, 0
2, 25220, Note_on_c, 0, 71, 76
2, 25340, Note_on_c, 0, 71, 0
2, 25340, Note_on_c, 0, 74, 86
2, 25456, Note_on_c, 0, 74, 0
2, 25460, Note_on_c, 0, 79, 95
2, 25580, Note_on_c, 0, 79, 0
2, 25580, Note_on_c, 0, 71, 97
2, 25696, Note_on_c, 0, 71, 0
2, 25700, Note_on_c, 0, 72, 102
2, 25816, Note_on_c, 0, 72, 0
2, 25820, Note_on_c, 0, 74, 83
2, 25936, Note_on_c, 0, 74, 0
2, 25940, Note_on_c, 0, 67, 89
2, 26056, Note_on_c, 0, 67, 0
2, 26060, Note_on_c, 0, 72, 78
2, 26176, Note_on_c, 0, 72, 0
2, 26180, Note_on_c, 0, 76, 78
2, 26296, Note_on_c, 0, 76, 0
2, 26300, Note_on_c, 0, 72, 75
2, 26416, Note_on_c, 0, 72, 0
2, 26420, Note_on_c, 0, 69, 85
2, 26536, Note_on_c, 0, 69, 0
2, 26540, Note_on_c, 0, 72, 82
2, 26656, Note_on_c, 0, 72, 0
2, 26660, Note_on_c, 0, 66, 90
2, 26776, Note_on_c, 0, 66, 0
2, 26780, Note_on_c, 0, 69, 80
2, 26896, Note_on_c, 0, 69, 0
2, 26900, Note_on_c, 0, 72, 88
2, 27016, Note_on_c, 0, 72, 0
2, 27020, Note_on_c, 0, 66, 90
2, 27140, Note_on_c, 0, 66, 0
2, 27140, Note_on_c, 0, 67, 72
2, 27256, Note_on_c, 0, 67, 0
2, 27260, Note_on_c, 0, 69, 83
2, 27376, Note_on_c, 0, 69, 0
2, 27380, Note_on_c, 0, 63, 95
2, 27496, Note_on_c, 0, 63, 0
2, 27500, Note_on_c, 0, 66, 78
2, 27616, Note_on_c, 0, 66, 0
2, 27620, Note_on_c, 0, 71, 81
2, 27736, Note_on_c, 0, 71, 0
2, 27740, Note_on_c, 0, 66, 77
2, 27856, Note_on_c, 0, 66, 0
2, 27860, Note_on_c, 0, 63, 80
2, 27976, Note_on_c, 0, 63, 0
2, 27980, Note_on_c, 0, 66, 76
2, 28096, Note_on_c, 0, 66, 0
2, 28100, Note_on_c, 0, 59, 96
2, 28216, Note_on_c, 0, 59, 0
2, 28220, Note_on_c, 0, 63, 85
2, 28336, Note_on_c, 0, 63, 0
2, 28340, Note_on_c, 0, 66, 77
2, 28456, Note_on_c, 0, 66, 0
2, 28460, Note_on_c, 0, 63, 85
2, 28576, Note_on_c, 0, 63, 0
2, 28580, Note_on_c, 0, 64, 88
2, 28696, Note_on_c, 0, 64, 0
2, 28700, Note_on_c, 0, 66, 80
2, 28816, Note_on_c, 0, 66, 0
2, 28820, Note_on_c, 0, 59, 84
2, 28936, Note_on_c, 0, 59, 0
2, 28940, Note_on_c, 0, 64, 83
2, 29056, Note_on_c, 0, 64, 0
2, 29060, Note_on_c, 0, 67, 61
2, 29180, Note_on_c, 0, 67, 0
2, 29180, Note_on_c, 0, 64, 83
2, 29296, Note_on_c, 0, 64, 0
2, 29300, Note_on_c, 0, 59, 83
2, 29416, Note_on_c, 0, 59, 0
2, 29420, Note_on_c, 0, 64, 83
2, 29536, Note_on_c, 0, 64, 0
2, 29540, Note_on_c, 0, 55, 82
2, 29660, Note_on_c, 0, 55, 0
2, 29660, Note_on_c, 0, 59, 77
2, 29776, Note_on_c, 0, 59, 0
2, 29780, Note_on_c, 0, 64, 78
2, 29896, Note_on_c, 0, 64, 0
2, 29900, Note_on_c, 0, 63, 89
2, 30016, Note_on_c, 0, 63, 0
2, 30020, Note_on_c, 0, 64, 92
2, 30136, Note_on_c, 0, 64, 0
2, 30140, Note_on_c, 0, 67, 78
2, 30256, Note_on_c, 0, 67, 0
2, 30260, Note_on_c, 0, 60, 91
2, 30376, Note_on_c, 0, 60, 0
2, 30380, Note_on_c, 0, 65, 82
2, 30496, Note_on_c, 0, 65, 0
2, 30500, Note_on_c, 0, 69, 70
2, 30616, Note_on_c, 0, 69, 0
2, 30620, Note_on_c, 0, 65, 83
2, 30736, Note_on_c, 0, 65, 0
2, 30740, Note_on_c, 0, 60, 83
2, 30856, Note_on_c, 0, 60, 0
2, 30860, Note_on_c, 0, 65, 83
2, 30976, Note_on_c, 0, 65, 0
2, 30980, Note_on_c, 0, 57, 84
2, 31096, Note_on_c, 0, 57, 0
2, 31100, Note_on_c, 0, 60, 76
2, 31216, Note_on_c, 0, 60, 0
2, 31220, Note_on_c, 0, 65, 85
2, 31336, Note_on_c, 0, 65, 0
2, 31340, Note_on_c, 0, 64, 83
2, 31456, Note_on_c, 0, 64, 0
2, 31460, Note_on_c, 0, 65, 80
2, 31576, Note_on_c, 0, 65, 0
2, 31580, Note_on_c, 0, 69, 68
2, 31696, Note_on_c, 0, 69, 0
2, 31700, Note_on_c, 0, 63, 63
2, 31816, Note_on_c, 0, 63, 0
2, 31820, Note_on_c, 0, 66, 75
2, 31936, Note_on_c, 0, 66, 0
2, 31940, Note_on_c, 0, 69, 45
2, 32056, Note_on_c, 0, 69, 0
2, 32060, Note_on_c, 0, 66, 53
2, 32180, Note_on_c, 0, 66, 0
2, 32180, Note_on_c, 0, 63, 89
2, 32296, Note_on_c, 0, 63, 0
2, 32300, Note_on_c, 0, 66, 89
2, 32416, Note_on_c, 0, 66, 0
2, 32420, Note_on_c, 0, 59, 84
2, 32536, Note_on_c, 0, 59, 0
2, 32540, Note_on_c, 0, 63, 74
2, 32656, Note_on_c, 0, 63, 0
2, 32660, Note_on_c, 0, 54, 75
2, 32776, Note_on_c, 0, 54, 0
2, 32780, Note_on_c, 0, 57, 86
2, 32896, Note_on_c, 0, 57, 0
2, 32900, Note_on_c, 0, 55, 85
2, 33016, Note_on_c, 0, 55, 0
2, 33020, Note_on_c, 0, 54, 89
2, 33136, Note_on_c, 0, 54, 0
2, 33140, Note_on_c, 0, 55, 90
2, 33256, Note_on_c, 0, 55, 0
2, 33260, Note_on_c, 0, 59, 66
2, 33376, Note_on_c, 0, 59, 0
2, 33380, Note_on_c, 0, 64, 77
2, 33496, Note_on_c, 0, 64, 0
2, 33500, Note_on_c, 0, 59, 82
2, 33616, Note_on_c, 0, 59, 0
2, 33620, Note_on_c, 0, 55, 93
2, 33736, Note_on_c, 0, 55, 0
2, 33740, Note_on_c, 0, 59, 83
2, 33856, Note_on_c, 0, 59, 0
2, 33860, Note_on_c, 0, 52, 83
2, 33976, Note_on_c, 0, 52, 0
2, 33980, Note_on_c, 0, 54, 83
2, 34100, Note_on_c, 0, 54, 0
2, 34100, Note_on_c, 0, 55, 97
2, 34216, Note_on_c, 0, 55, 0
2, 34220, Note_on_c, 0, 52, 97
2, 34336, Note_on_c, 0, 52, 0
2, 34340, Note_on_c, 0, 55, 85
2, 34456, Note_on_c, 0, 55, 0
2, 34460, Note_on_c, 0, 59, 77
2, 34576, Note_on_c, 0, 59, 0
2, 34580, Note_on_c, 0, 64, 98
2, 34816, Note_on_c, 0, 64, 0
2, 34940, Note_on_c, 0, 52, 109
2, 34996, Note_on_c, 0, 52, 0
2, 35000, Note_on_c, 0, 50, 101
2, 35056, Note_on_c, 0, 50, 0
2, 35060, Note_on_c, 0, 52, 115
2, 35120, Note_on_c, 0, 52, 0
2, 35420, Note_on_c, 0, 60, 108
2, 35476, Note_on_c, 0, 60, 0
2, 35480, Note_on_c, 0, 59, 111
2, 35536, Note_on_c, 0, 59, 0
2, 35540, Note_on_c, 0, 60, 108
2, 35600, Note_on_c, 0, 60, 0
2, 35900, Note_on_c, 0, 69, 102
2, 35956, Note_on_c, 0, 69, 0
2, 35960, Note_on_c, 0, 67, 96
2, 36016, Note_on_c, 0, 67, 0
2, 36020, Note_on_c, 0, 69, 119
2, 36080, Note_on_c, 0, 69, 0
2, 36380, Note_on_c, 0, 50, 92
2, 36436, Note_on_c, 0, 50, 0
2, 36440, Note_on_c, 0, 48, 95
2, 36496, Note_on_c, 0, 48, 0
2, 36500, Note_on_c, 0, 50, 104
2, 36560, Note_on_c, 0, 50, 0
2, 36860, Note_on_c, 0, 59, 92
2, 36916, Note_on_c, 0, 59, 0
2, 36920, Note_on_c, 0, 57, 65
2, 36976, Note_on_c, 0, 57, 0
2, 36980, Note_on_c, 0, 59, 111
2, 37040, Note_on_c, 0, 59, 0
2, 37340, Note_on_c, 0, 67, 104
2, 37396, Note_on_c, 0, 67, 0
2, 37400, Note_on_c, 0, 66, 68
2, 37456, Note_on_c, 0, 66, 0
2, 37460, Note_on_c, 0, 67, 104
2, 37520, Note_on_c, 0, 67, 0
2, 37820, Note_on_c, 0, 48, 113
2, 37876, Note_on_c, 0, 48, 0
2, 37880, Note_on_c, 0, 47, 98
2, 37936, Note_on_c, 0, 47, 0
2, 37940, Note_on_c, 0, 48, 115
2, 38000, Note_on_c, 0, 48, 0
2, 38300, Note_on_c, 0, 57, 96
2, 38356, Note_on_c, 0, 57, 0
2, 38360, Note_on_c, 0, 55, 86
2, 38416, Note_on_c, 0, 55, 0
2, 38420, Note_on_c, 0, 57, 117
2, 38536, Note_on_c, 0, 57, 0
2, 38780, Note_on_c, 0, 66, 117
2, 38836, Note_on_c, 0, 66, 0
2, 38840, Note_on_c, 0, 64, 80
2, 38896, Note_on_c, 0, 64, 0
2, 38900, Note_on_c, 0, 66, 121
2, 38960, Note_on_c, 0, 66, 0
2, 39260, Note_on_c, 0, 74, 107
2, 39316, Note_on_c, 0, 74, 0
2, 39320, Note_on_c, 0, 72, 101
2, 39376, Note_on_c, 0, 72, 0
2, 39380, Note_on_c, 0, 74, 115
2, 39436, Note_on_c, 0, 74, 0
2, 39740, Note_on_c, 0, 79, 111
2, 39796, Note_on_c, 0, 79, 0
2, 39800, Note_on_c, 0, 78, 102
2, 39856, Note_on_c, 0, 78, 0
2, 39860, Note_on_c, 0, 79, 113
2, 39976, Note_on_c, 0, 79, 0
2, 40220, Note_on_c, 0, 83, 108
2, 40276, Note_on_c, 0, 83, 0
2, 40280, Note_on_c, 0, 81, 91
2, 40336, Note_on_c, 0, 81, 0
2, 40340, Note_on_c, 0, 83, 119
2, 40460, Note_on_c, 0, 83, 0
2, 40820, Note_on_c, 0, 62, 102
2, 40940, Note_on_c, 0, 62, 0
2, 41300, Note_on_c, 0, 65, 126
2, 41420, Note_on_c, 0, 65, 0
2, 41840, Note_on_c, 0, 64, 84
2, 41900, Note_on_c, 0, 64, 0
2, 41900, Note_on_c, 0, 65, 85
2, 41956, Note_on_c, 0, 65, 0
2, 41960, Note_on_c, 0, 67, 95
2, 42020, Note_on_c, 0, 67, 0
2, 42020, Note_on_c, 0, 72, 107
2, 42080, Note_on_c, 0, 72, 0
2, 42080, Note_on_c, 0, 67, 107
2, 42140, Note_on_c, 0, 67, 0
2, 42140, Note_on_c, 0, 65, 107
2, 42200, Note_on_c, 0, 65, 0
2, 42200, Note_on_c, 0, 64, 107
2, 42260, Note_on_c, 0, 64, 0
2, 42320, Note_on_c, 0, 66, 88
2, 42380, Note_on_c, 0, 66, 0
2, 42380, Note_on_c, 0, 67, 66
2, 42436, Note_on_c, 0, 67, 0
2, 42440, Note_on_c, 0, 69, 92
2, 42496, Note_on_c, 0, 69, 0
2, 42500, Note_on_c, 0, 72, 107
2, 42560, Note_on_c, 0, 72, 0
2, 42560, Note_on_c, 0, 69, 88
2, 42620, Note_on_c, 0, 69, 0
2, 42620, Note_on_c, 0, 67, 88
2, 42680, Note_on_c, 0, 67, 0
2, 42680, Note_on_c, 0, 66, 88
2, 42740, Note_on_c, 0, 66, 0
2, 42800, Note_on_c, 0, 67, 88
2, 42860, Note_on_c, 0, 67, 0
2, 42860, Note_on_c, 0, 69, 88
2, 42920, Note_on_c, 0, 69, 0
2, 42920, Note_on_c, 0, 70, 88
2, 42980, Note_on_c, 0, 70, 0
2, 42980, Note_on_c, 0, 73, 107
2, 43040, Note_on_c, 0, 73, 0
2, 43040, Note_on_c, 0, 70, 88
2, 43100, Note_on_c, 0, 70, 0
2, 43100, Note_on_c, 0, 69, 88
2, 43160, Note_on_c, 0, 69, 0
2, 43160, Note_on_c, 0, 67, 88
2, 43220, Note_on_c, 0, 67, 0
2, 43220, Note_on_c, 0, 74, 88
2, 43340, Note_on_c, 0, 74, 0
2, 43340, Note_on_c, 0, 72, 88
2, 43400, Note_on_c, 0, 72, 0
2, 43400, Note_on_c, 0, 71, 88
2, 43460, Note_on_c, 0, 71, 0
2, 43460, Note_on_c, 0, 72, 88
2, 43520, Note_on_c, 0, 72, 0
2, 43580, Note_on_c, 0, 71, 88
2, 43640, Note_on_c, 0, 71, 0
2, 43640, Note_on_c, 0, 69, 88
2, 43700, Note_on_c, 0, 69, 0
2, 43700, Note_on_c, 0, 71, 88
2, 43760, Note_on_c, 0, 71, 0
2, 43820, Note_on_c, 0, 70, 88
2, 43880, Note_on_c, 0, 70, 0
2, 43880, Note_on_c, 0, 69, 88
2, 43940, Note_on_c, 0, 69, 0
2, 43940, Note_on_c, 0, 70, 88
2, 44000, Note_on_c, 0, 70, 0
2, 44060, Note_on_c, 0, 69, 88
2, 44120, Note_on_c, 0, 69, 0
2, 44120, Note_on_c, 0, 67, 88
2, 44180, Note_on_c, 0, 67, 0
2, 44180, Note_on_c, 0, 69, 88
2, 44240, Note_on_c, 0, 69, 0
2, 44300, Note_on_c, 0, 74, 88
2, 44360, Note_on_c, 0, 74, 0
2, 44360, Note_on_c, 0, 72, 88
2, 44420, Note_on_c, 0, 72, 0
2, 44420, Note_on_c, 0, 74, 88
2, 44480, Note_on_c, 0, 74, 0
2, 44540, Note_on_c, 0, 67, 88
2, 44600, Note_on_c, 0, 67, 0
2, 44600, Note_on_c, 0, 66, 88
2, 44660, Note_on_c, 0, 66, 0
2, 44660, Note_on_c, 0, 67, 88
2, 44720, Note_on_c, 0, 67, 0
2, 44720, Note_on_c, 0, 69, 88
2, 44780, Note_on_c, 0, 69, 0
2, 44780, Note_on_c, 0, 71, 88
2, 44840, Note_on_c, 0, 71, 0
2, 44840, Note_on_c, 0, 72, 88
2, 44900, Note_on_c, 0, 72, 0
2, 44900, Note_on_c, 0, 74, 88
2, 44960, Note_on_c, 0, 74, 0
2, 44960, Note_on_c, 0, 72, 88
2, 45020, Note_on_c, 0, 72, 0
2, 45020, Note_on_c, 0, 71, 88
2, 45080, Note_on_c, 0, 71, 0
2, 45080, Note_on_c, 0, 69, 88
2, 45140, Note_on_c, 0, 69, 0
2, 45140, Note_on_c, 0, 67, 88
2, 45260, Note_on_c, 0, 67, 0
2, 45260, Note_on_c, 0, 71, 88
2, 45380, Note_on_c, 0, 71, 0
2, 45380, Note_on_c, 0, 62, 88
2, 45500, Note_on_c, 0, 62, 0
2, 45500, Note_on_c, 0, 67, 88
2, 45620, Note_on_c, 0, 67, 0
2, 45620, Note_on_c, 0, 55, 88
2, 45860, Note_on_c, 0, 55, 0
2, 46080, End_track
3, 0, Start_track
3, 0, Title_t, "goldberg.mid"
3, 20, Note_on_c, 3, 59, 95
3, 136, Note_on_c, 3, 59, 0
3, 140, Note_on_c, 3, 55, 84
3, 256, Note_on_c, 3, 55, 0
3, 260, Note_on_c, 3, 50, 68
3, 376, Note_on_c, 3, 50, 0
3, 380, Note_on_c, 3, 55, 83
3, 496, Note_on_c, 3, 55, 0
3, 500, Note_on_c, 3, 59, 96
3, 616, Note_on_c, 3, 59, 0
3, 620, Note_on_c, 3, 55, 77
3, 736, Note_on_c, 3, 55, 0
3, 740, Note_on_c, 3, 62, 85
3, 856, Note_on_c, 3, 62, 0
3, 860, Note_on_c, 3, 59, 84
3, 980, Note_on_c, 3, 59, 0
3, 980, Note_on_c, 3, 55, 58
3, 1100, Note_on_c, 3, 55, 0
3, 1100, Note_on_c, 3, 59, 88
3, 1220, Note_on_c, 3, 59, 0
3, 1220, Note_on_c, 3, 57, 83
3, 1340, Note_on_c, 3, 57, 0
3, 1340, Note_on_c, 3, 55, 75
3, 1460, Note_on_c, 3, 55, 0
3, 1460, Note_on_c, 3, 62, 111
3, 1576, Note_on_c, 3, 62, 0
3, 1580, Note_on_c, 3, 57, 111
3, 1696, Note_on_c, 3, 57, 0
3, 1700, Note_on_c, 3, 54, 80
3, 1816, Note_on_c, 3, 54, 0
3, 1820, Note_on_c, 3, 57, 80
3, 1936, Note_on_c, 3, 57, 0
3, 1940, Note_on_c, 3, 62, 91
3, 2056, Note_on_c, 3, 62, 0
3, 2060, Note_on_c, 3, 57, 81
3, 2176, Note_on_c, 3, 57, 0
3, 2180, Note_on_c, 3, 69, 76
3, 2300, Note_on_c, 3, 69, 0
3, 2300, Note_on_c, 3, 66, 86
3, 2416, Note_on_c, 3, 66, 0
3, 2420, Note_on_c, 3, 62, 95
3, 2540, Note_on_c, 3, 62, 0
3, 2540, Note_on_c, 3, 66, 97
3, 2656, Note_on_c, 3, 66, 0
3, 2660, Note_on_c, 3, 64, 102
3, 2776, Note_on_c, 3, 64, 0
3, 2780, Note_on_c, 3, 62, 83
3, 2896, Note_on_c, 3, 62, 0
3, 2900, Note_on_c, 3, 67, 89
3, 3016, Note_on_c, 3, 67, 0
3, 3020, Note_on_c, 3, 64, 78
3, 3136, Note_on_c, 3, 64, 0
3, 3140, Note_on_c, 3, 59, 78
3, 3256, Note_on_c, 3, 59, 0
3, 3260, Note_on_c, 3, 64, 75
3, 3376, Note_on_c, 3, 64, 0
3, 3380, Note_on_c, 3, 67, 85
3, 3496, Note_on_c, 3, 67, 0
3, 3500, Note_on_c, 3, 64, 82
3, 3616, Note_on_c, 3, 64, 0
3, 3620, Note_on_c, 3, 71, 90
3, 3736, Note_on_c, 3, 71, 0
3, 3740, Note_on_c, 3, 67, 80
3, 3856, Note_on_c, 3, 67, 0
3, 3860, Note_on_c, 3, 64, 88
3, 3976, Note_on_c, 3, 64, 0
3, 3980, Note_on_c, 3, 71, 90
3, 4100, Note_on_c, 3, 71, 0
3, 4100, Note_on_c, 3, 69, 72
3, 4216, Note_on_c, 3, 69, 0
3, 4220, Note_on_c, 3, 67, 83
3, 4336, Note_on_c, 3, 67, 0
3, 4340, Note_on_c, 3, 74, 95
3, 4456, Note_on_c, 3, 74, 0
3, 4460, Note_on_c, 3, 69, 78
3, 4576, Note_on_c, 3, 69, 0
3, 4580, Note_on_c, 3, 66, 81
3, 4696, Note_on_c, 3, 66, 0
3, 4700, Note_on_c, 3, 69, 77
3, 4816, Note_on_c, 3, 69, 0
3, 4820, Note_on_c, 3, 74, 80
3, 4936, Note_on_c, 3, 74, 0
3, 4940, Note_on_c, 3, 69, 76
3, 5056, Note_on_c, 3, 69, 0
3, 5060, Note_on_c, 3, 81, 96
3, 5176, Note_on_c, 3, 81, 0
3, 5180, Note_on_c, 3, 78, 85
3, 5296, Note_on_c, 3, 78, 0
3, 5300, Note_on_c, 3, 74, 77
3, 5416, Note_on_c, 3, 74, 0
3, 5420, Note_on_c, 3, 78, 85
3, 5536, Note_on_c, 3, 78, 0
3, 5540, Note_on_c, 3, 76, 88
3, 5656, Note_on_c, 3, 76, 0
3, 5660, Note_on_c, 3, 74, 80
3, 5776, Note_on_c, 3, 74, 0
3, 5780, Note_on_c, 3, 79, 84
3, 5896, Note_on_c, 3, 79, 0
3, 5900, Note_on_c, 3, 74, 83
3, 6016, Note_on_c, 3, 74, 0
3, 6020, Note_on_c, 3, 71, 61
3, 6140, Note_on_c, 3, 71, 0
3, 6140, Note_on_c, 3, 74, 83
3, 6256, Note_on_c, 3, 74, 0
3, 6260, Note_on_c, 3, 79, 83
3, 6376, Note_on_c, 3, 79, 0
3, 6380, Note_on_c, 3, 74, 83
3, 6496, Note_on_c, 3, 74, 0
3, 6500, Note_on_c, 3, 83, 82
3, 6620, Note_on_c, 3, 83, 0
3, 6620, Note_on_c, 3, 79, 77
3, 6736, Note_on_c, 3, 79, 0
3, 6740, Note_on_c, 3, 74, 78
3, 6856, Note_on_c, 3, 74, 0
3, 6860, Note_on_c, 3, 77, 89
3, 6976, Note_on_c, 3, 77, 0
3, 6980, Note_on_c, 3, 76, 92
3, 7096, Note_on_c, 3, 76, 0
3, 7100, Note_on_c, 3, 74, 78
3, 7216, Note_on_c, 3, 74, 0
3, 7220, Note_on_c, 3, 76, 91
3, 7336, Note_on_c, 3, 76, 0
3, 7340, Note_on_c, 3, 72, 82
3, 7456, Note_on_c, 3, 72, 0
3, 7460, Note_on_c, 3, 67, 70
3, 7576, Note_on_c, 3, 67, 0
3, 7580, Note_on_c, 3, 72, 83
3, 7696, Note_on_c, 3, 72, 0
3, 7700, Note_on_c, 3, 76, 83
3, 7816, Note_on_c, 3, 76, 0
3, 7820, Note_on_c, 3, 72, 83
3, 7936, Note_on_c, 3, 72, 0
3, 7940, Note_on_c, 3, 79, 84
3, 8056, Note_on_c, 3, 79, 0
3, 8060, Note_on_c, 3, 76, 76
3, 8176, Note_on_c, 3, 76, 0
3, 8180, Note_on_c, 3, 72, 85
3, 8296, Note_on_c, 3, 72, 0
3, 8300, Note_on_c, 3, 74, 83
3, 8416, Note_on_c, 3, 74, 0
3, 8420, Note_on_c, 3, 72, 80
3, 8536, Note_on_c, 3, 72, 0
3, 8540, Note_on_c, 3, 71, 68
3, 8656, Note_on_c, 3, 71, 0
3, 8660, Note_on_c, 3, 69, 63
3, 8776, Note_on_c, 3, 69, 0
3, 8780, Note_on_c, 3, 66, 75
3, 8896, Note_on_c, 3, 66, 0
3, 8900, Note_on_c, 3, 62, 45
3, 9016, Note_on_c, 3, 62, 0
3, 9020, Note_on_c, 3, 66, 53
3, 9140, Note_on_c, 3, 66, 0
3, 9140, Note_on_c, 3, 69, 89
3, 9256, Note_on_c, 3, 69, 0
3, 9260, Note_on_c, 3, 66, 89
3, 9376, Note_on_c, 3, 66, 0
3, 9380, Note_on_c, 3, 74, 84
3, 9496, Note_on_c, 3, 74, 0
3, 9500, Note_on_c, 3, 69, 74
3, 9616, Note_on_c, 3, 69, 0
3, 9620, Note_on_c, 3, 66, 75
3, 9736, Note_on_c, 3, 66, 0
3, 9740, Note_on_c, 3, 69, 86
3, 9856, Note_on_c, 3, 69, 0
3, 9860, Note_on_c, 3, 67, 85
3, 9976, Note_on_c, 3, 67, 0
3, 9980, Note_on_c, 3, 66, 89
3, 10096, Note_on_c, 3, 66, 0
3, 10100, Note_on_c, 3, 67, 90
3, 10216, Note_on_c, 3, 67, 0
3, 10220, Note_on_c, 3, 62, 66
3, 10336, Note_on_c, 3, 62, 0
3, 10340, Note_on_c, 3, 59, 77
3, 10456, Note_on_c, 3, 59, 0
3, 10460, Note_on_c, 3, 62, 82
3, 10576, Note_on_c, 3, 62, 0
3, 10580, Note_on_c, 3, 67, 93
3, 10696, Note_on_c, 3, 67, 0
3, 10700, Note_on_c, 3, 62, 83
3, 10816, Note_on_c, 3, 62, 0
3, 10820, Note_on_c, 3, 71, 83
3, 10936, Note_on_c, 3, 71, 0
3, 10940, Note_on_c, 3, 67, 83
3, 11060, Note_on_c, 3, 67, 0
3, 11060, Note_on_c, 3, 74, 97
3, 11176, Note_on_c, 3, 74, 0
3, 11180, Note_on_c, 3, 72, 97
3, 11296, Note_on_c, 3, 72, 0
3, 11300, Note_on_c, 3, 71, 85
3, 11416, Note_on_c, 3, 71, 0
3, 11420, Note_on_c, 3, 69, 77
3, 11536, Note_on_c, 3, 69, 0
3, 11540, Note_on_c, 3, 67, 98
3, 11776, Note_on_c, 3, 67, 0
3, 11900, Note_on_c, 3, 79, 109
3, 11956, Note_on_c, 3, 79, 0
3, 11960, Note_on_c, 3, 78, 101
3, 12016, Note_on_c, 3, 78, 0
3, 12020, Note_on_c, 3, 79, 115
3, 12080, Note_on_c, 3, 79, 0
3, 12380, Note_on_c, 3, 73, 108
3, 12436, Note_on_c, 3, 73, 0
3, 12440, Note_on_c, 3, 71, 111
3, 12496, Note_on_c, 3, 71, 0
3, 12500, Note_on_c, 3, 73, 108
3, 12560, Note_on_c, 3, 73, 0
3, 12860, Note_on_c, 3, 66, 102
3, 12916, Note_on_c, 3, 66, 0
3, 12920, Note_on_c, 3, 64, 96
3, 12976, Note_on_c, 3, 64, 0
3, 12980, Note_on_c, 3, 66, 119
3, 13040, Note_on_c, 3, 66, 0
3, 13340, Note_on_c, 3, 78, 92
3, 13396, Note_on_c, 3, 78, 0
3, 13400, Note_on_c, 3, 76, 95
3, 13456, Note_on_c, 3, 76, 0
3, 13460, Note_on_c, 3, 78, 104
3, 13520, Note_on_c, 3, 78, 0
3, 13820, Note_on_c, 3, 71, 92
3, 13876, Note_on_c, 3, 71, 0
3, 13880, Note_on_c, 3, 69, 65
3, 13936, Note_on_c, 3, 69, 0
3, 13940, Note_on_c, 3, 71, 111
3, 14000, Note_on_c, 3, 71, 0
3, 14300, Note_on_c, 3, 64, 104
3, 14356, Note_on_c, 3, 64, 0
3, 14360, Note_on_c, 3, 62, 68
3, 14416, Note_on_c, 3, 62, 0
3, 14420, Note_on_c, 3, 64, 104
3, 14480, Note_on_c, 3, 64, 0
3, 14780, Note_on_c, 3, 76, 113
3, 14836, Note_on_c, 3, 76, 0
3, 14840, Note_on_c, 3, 74, 98
3, 14896, Note_on_c, 3, 74, 0
3, 14900, Note_on_c, 3, 76, 115
3, 14960, Note_on_c, 3, 76, 0
3, 15260, Note_on_c, 3, 67, 96
3, 15316, Note_on_c, 3, 67, 0
3, 15320, Note_on_c, 3, 66, 86
3, 15376, Note_on_c, 3, 66, 0
3, 15380, Note_on_c, 3, 67, 117
3, 15496, Note_on_c, 3, 67, 0
3, 15740, Note_on_c, 3, 61, 117
3, 15796, Note_on_c, 3, 61, 0
3, 15800, Note_on_c, 3, 59, 80
3, 15856, Note_on_c, 3, 59, 0
3, 15860, Note_on_c, 3, 61, 121
3, 15920, Note_on_c, 3, 61, 0
3, 16220, Note_on_c, 3, 52, 107
3, 16276, Note_on_c, 3, 52, 0
3, 16280, Note_on_c, 3, 50, 101
3, 16336, Note_on_c, 3, 50, 0
3, 16340, Note_on_c, 3, 52, 115
3, 16396, Note_on_c, 3, 52, 0
3, 16700, Note_on_c, 3, 45, 111
3, 16756, Note_on_c, 3, 45, 0
3, 16760, Note_on_c, 3, 43, 102
3, 16816, Note_on_c, 3, 43, 0
3, 16820, Note_on_c, 3, 45, 113
3, 16936, Note_on_c, 3, 45, 0
3, 17180, Note_on_c, 3, 42, 108
3, 17236, Note_on_c, 3, 42, 0
3, 17240, Note_on_c, 3, 40, 91
3, 17296, Note_on_c, 3, 40, 0
3, 17300, Note_on_c, 3, 38, 119
3, 17420, Note_on_c, 3, 38, 0
3, 17780, Note_on_c, 3, 74, 102
3, 17900, Note_on_c, 3, 74, 0
3, 18260, Note_on_c, 3, 72, 126
3, 18380, Note_on_c, 3, 72, 0
3, 18800, Note_on_c, 3, 55, 84
3, 18860, Note_on_c, 3, 55, 0
3, 18860, Note_on_c, 3, 57, 85
3, 18916, Note_on_c, 3, 57, 0
3, 18920, Note_on_c, 3, 59, 95
3, 18980, Note_on_c, 3, 59, 0
3, 18980, Note_on_c, 3, 62, 107
3, 19040, Note_on_c, 3, 62, 0
3, 19040, Note_on_c, 3, 59, 107
3, 19100, Note_on_c, 3, 59, 0
3, 19100, Note_on_c, 3, 57, 107
3, 19160, Note_on_c, 3, 57, 0
3, 19160, Note_on_c, 3, 55, 107
3, 19220, Note_on_c, 3, 55, 0
3, 19280, Note_on_c, 3, 55, 88
3, 19340, Note_on_c, 3, 55, 0
3, 19340, Note_on_c, 3, 57, 66
3, 19396, Note_on_c, 3, 57, 0
3, 19400, Note_on_c, 3, 58, 92
3, 19456, Note_on_c, 3, 58, 0
3, 19460, Note_on_c, 3, 62, 107
3, 19520, Note_on_c, 3, 62, 0
3, 19520, Note_on_c, 3, 58, 88
3, 19580, Note_on_c, 3, 58, 0
3, 19580, Note_on_c, 3, 57, 88
3, 19640, Note_on_c, 3, 57, 0
3, 19640, Note_on_c, 3, 55, 88
3, 19700, Note_on_c, 3, 55, 0
3, 19760, Note_on_c, 3, 56, 88
3, 19820, Note_on_c, 3, 56, 0
3, 19820, Note_on_c, 3, 57, 88
3, 19880, Note_on_c, 3, 57, 0
3, 19880, Note_on_c, 3, 59, 88
3, 19940, Note_on_c, 3, 59, 0
3, 19940, Note_on_c, 3, 62, 107
3, 20000, Note_on_c, 3, 62, 0
3, 20000, Note_on_c, 3, 59, 88
3, 20060, Note_on_c, 3, 59, 0
3, 20060, Note_on_c, 3, 57, 88
3, 20120, Note_on_c, 3, 57, 0
3, 20120, Note_on_c, 3, 56, 88
3, 20180, Note_on_c, 3, 56, 0
3, 20180, Note_on_c, 3, 57, 88
3, 20300, Note_on_c, 3, 57, 0
3, 20300, Note_on_c, 3, 61, 88
3, 20360, Note_on_c, 3, 61, 0
3, 20360, Note_on_c, 3, 59, 88
3, 20420, Note_on_c, 3, 59, 0
3, 20420, Note_on_c, 3, 61, 88
3, 20480, Note_on_c, 3, 61, 0
3, 20540, Note_on_c, 3, 54, 88
3, 20600, Note_on_c, 3, 54, 0
3, 20600, Note_on_c, 3, 52, 88
3, 20660, Note_on_c, 3, 52, 0
3, 20660, Note_on_c, 3, 54, 88
3, 20720, Note_on_c, 3, 54, 0
3, 20780, Note_on_c, 3, 59, 88
3, 20840, Note_on_c, 3, 59, 0
3, 20840, Note_on_c, 3, 57, 88
3, 20900, Note_on_c, 3, 57, 0
3, 20900, Note_on_c, 3, 59, 88
3, 20960, Note_on_c, 3, 59, 0
3, 21020, Note_on_c, 3, 52, 88
3, 21080, Note_on_c, 3, 52, 0
3, 21080, Note_on_c, 3, 50, 88
3, 21140, Note_on_c, 3, 50, 0
3, 21140, Note_on_c, 3, 52, 88
3, 21200, Note_on_c, 3, 52, 0
3, 21260, Note_on_c, 3, 57, 88
3, 21320, Note_on_c, 3, 57, 0
3, 21320, Note_on_c, 3, 55, 88
3, 21380, Note_on_c, 3, 55, 0
3, 21380, Note_on_c, 3, 57, 88
3, 21440, Note_on_c, 3, 57, 0
3, 21500, Note_on_c, 3, 50, 88
3, 21560, Note_on_c, 3, 50, 0
3, 21560, Note_on_c, 3, 49, 88
3, 21620, Note_on_c, 3, 49, 0
3, 21620, Note_on_c, 3, 50, 88
3, 21680, Note_on_c, 3, 50, 0
3, 21680, Note_on_c, 3, 52, 88
3, 21740, Note_on_c, 3, 52, 0
3, 21740, Note_on_c, 3, 54, 88
3, 21800, Note_on_c, 3, 54, 0
3, 21800, Note_on_c, 3, 55, 88
3, 21860, Note_on_c, 3, 55, 0
3, 21860, Note_on_c, 3, 57, 88
3, 21920, Note_on_c, 3, 57, 0
3, 21920, Note_on_c, 3, 55, 88
3, 21980, Note_on_c, 3, 55, 0
3, 21980, Note_on_c, 3, 54, 88
3, 22040, Note_on_c, 3, 54, 0
3, 22040, Note_on_c, 3, 52, 88
3, 22100, Note_on_c, 3, 52, 0
3, 22100, Note_on_c, 3, 50, 88
3, 22220, Note_on_c, 3, 50, 0
3, 22220, Note_on_c, 3, 54, 88
3, 22340, Note_on_c, 3, 54, 0
3, 22340, Note_on_c, 3, 45, 88
3, 22460, Note_on_c, 3, 45, 0
3, 22460, Note_on_c, 3, 50, 88
3, 22580, Note_on_c, 3, 50, 0
3, 22580, Note_on_c, 3, 38, 88
3, 22820, Note_on_c, 3, 38, 0
3, 23060, Note_on_c, 3, 50, 113
3, 23300, Note_on_c, 3, 50, 0
3, 23540, Note_on_c, 3, 83, 97
3, 23596, Note_on_c, 3, 83, 0
3, 23600, Note_on_c, 3, 84, 80
3, 23656, Note_on_c, 3, 84, 0
3, 23660, Note_on_c, 3, 86, 85
3, 23716, Note_on_c, 3, 86, 0
3, 23720, Note_on_c, 3, 84, 81
3, 23776, Note_on_c, 3, 84, 0
3, 23780, Note_on_c, 3, 86, 80
3, 23836, Note_on_c, 3, 86, 0
3, 23840, Note_on_c, 3, 84, 80
3, 23896, Note_on_c, 3, 84, 0
3, 23900, Note_on_c, 3, 86, 84
3, 23956, Note_on_c, 3, 86, 0
3, 23960, Note_on_c, 3, 84, 90
3, 24016, Note_on_c, 3, 84, 0
3, 24020, Note_on_c, 3, 86, 93
3, 24076, Note_on_c, 3, 86, 0
3, 24080, Note_on_c, 3, 84, 90
3, 24136, Note_on_c, 3, 84, 0
3, 24140, Note_on_c, 3, 86, 82
3, 24196, Note_on_c, 3, 86, 0
3, 24200, Note_on_c, 3, 84, 77
3, 24256, Note_on_c, 3, 84, 0
3, 24260, Note_on_c, 3, 86, 86
3, 24316, Note_on_c, 3, 86, 0
3, 24320, Note_on_c, 3, 84, 92
3, 24376, Note_on_c, 3, 84, 0
3, 24380, Note_on_c, 3, 83, 96
3, 24436, Note_on_c, 3, 83, 0
3, 24440, Note_on_c, 3, 84, 91
3, 24496, Note_on_c, 3, 84, 0
3, 24500, Note_on_c, 3, 83, 121
3, 24740, Note_on_c, 3, 83, 0
3, 24980, Note_on_c, 3, 65, 119
3, 25036, Note_on_c, 3, 65, 0
3, 25040, Note_on_c, 3, 64, 119
3, 25096, Note_on_c, 3, 64, 0
3, 25100, Note_on_c, 3, 65, 119
3, 25460, Note_on_c, 3, 65, 0
3, 25580, Note_on_c, 3, 69, 119
3, 25700, Note_on_c, 3, 69, 0
3, 25700, Note_on_c, 3, 67, 119
3, 25820, Note_on_c, 3, 67, 0
3, 25820, Note_on_c, 3, 65, 119
3, 25940, Note_on_c, 3, 65, 0
3, 25940, Note_on_c, 3, 64, 121
3, 26180, Note_on_c, 3, 64, 0
3, 26420, Note_on_c, 3, 78, 127
3, 26656, Note_on_c, 3, 78, 0
3, 26660, Note_on_c, 3, 81, 119
3, 26896, Note_on_c, 3, 81, 0
3, 26900, Note_on_c, 3, 75, 119
3, 27136, Note_on_c, 3, 75, 0
3, 27140, Note_on_c, 3, 76, 102
3, 27260, Note_on_c, 3, 76, 0
3, 27260, Note_on_c, 3, 78, 104
3, 27380, Note_on_c, 3, 78, 0
3, 27380, Note_on_c, 3, 71, 121
3, 27496, Note_on_c, 3, 71, 0
3, 27860, Note_on_c, 3, 47, 119
3, 27920, Note_on_c, 3, 47, 0
3, 27920, Note_on_c, 3, 45, 59
3, 27976, Note_on_c, 3, 45, 0
3, 27980, Note_on_c, 3, 43, 86
3, 28036, Note_on_c, 3, 43, 0
3, 28040, Note_on_c, 3, 45, 86
3, 28096, Note_on_c, 3, 45, 0
3, 28100, Note_on_c, 3, 47, 82
3, 28156, Note_on_c, 3, 47, 0
3, 28160, Note_on_c, 3, 45, 80
3, 28216, Note_on_c, 3, 45, 0
3, 28220, Note_on_c, 3, 47, 78
3, 28276, Note_on_c, 3, 47, 0
3, 28280, Note_on_c, 3, 45, 86
3, 28336, Note_on_c, 3, 45, 0
3, 28340, Note_on_c, 3, 47, 88
3, 28396, Note_on_c, 3, 47, 0
3, 28400, Note_on_c, 3, 45, 84
3, 28456, Note_on_c, 3, 45, 0
3, 28460, Note_on_c, 3, 47, 84
3, 28516, Note_on_c, 3, 47, 0
3, 28520, Note_on_c, 3, 45, 82
3, 28576, Note_on_c, 3, 45, 0
3, 28580, Note_on_c, 3, 47, 81
3, 28636, Note_on_c, 3, 47, 0
3, 28640, Note_on_c, 3, 45, 88
3, 28696, Note_on_c, 3, 45, 0
3, 28700, Note_on_c, 3, 43, 96
3, 28756, Note_on_c, 3, 43, 0
3, 28760, Note_on_c, 3, 45, 96
3, 28816, Note_on_c, 3, 45, 0
3, 28820, Note_on_c, 3, 43, 123
3, 29056, Note_on_c, 3, 43, 0
3, 29060, Note_on_c, 3, 40, 101
3, 29296, Note_on_c, 3, 40, 0
3, 29300, Note_on_c, 3, 43, 123
3, 29536, Note_on_c, 3, 43, 0
3, 29540, Note_on_c, 3, 47, 119
3, 29776, Note_on_c, 3, 47, 0
3, 29780, Note_on_c, 3, 43, 113
3, 30016, Note_on_c, 3, 43, 0
3, 30020, Note_on_c, 3, 40, 107
3, 30256, Note_on_c, 3, 40, 0
3, 30260, Note_on_c, 3, 45, 115
3, 30496, Note_on_c, 3, 45, 0
3, 30500, Note_on_c, 3, 33, 113
3, 30736, Note_on_c, 3, 33, 0
3, 30740, Note_on_c, 3, 45, 98
3, 30976, Note_on_c, 3, 45, 0
3, 30980, Note_on_c, 3, 48, 109
3, 31216, Note_on_c, 3, 48, 0
3, 31220, Note_on_c, 3, 47, 102
3, 31456, Note_on_c, 3, 47, 0
3, 31460, Note_on_c, 3, 45, 100
3, 31696, Note_on_c, 3, 45, 0
3, 31700, Note_on_c, 3, 47, 110
3, 31936, Note_on_c, 3, 47, 0
3, 31940, Note_on_c, 3, 51, 104
3, 32176, Note_on_c, 3, 51, 0
3, 32180, Note_on_c, 3, 54, 109
3, 32416, Note_on_c, 3, 54, 0
3, 32420, Note_on_c, 3, 59, 119
3, 32656, Note_on_c, 3, 59, 0
3, 32660, Note_on_c, 3, 67, 107
3, 32896, Note_on_c, 3, 67, 0
3, 32900, Note_on_c, 3, 64, 111
3, 33020, Note_on_c, 3, 64, 0
3, 33020, Note_on_c, 3, 63, 111
3, 33140, Note_on_c, 3, 63, 0
3, 33140, Note_on_c, 3, 64, 102
3, 33376, Note_on_c, 3, 64, 0
3, 33380, Note_on_c, 3, 67, 102
3, 33620, Note_on_c, 3, 67, 0
3, 33620, Note_on_c, 3, 71, 102
3, 33860, Note_on_c, 3, 71, 0
3, 33860, Note_on_c, 3, 76, 111
3, 33980, Note_on_c, 3, 76, 0
3, 33980, Note_on_c, 3, 75, 121
3, 34100, Note_on_c, 3, 75, 0
3, 34100, Note_on_c, 3, 76, 121
3, 34340, Note_on_c, 3, 76, 0
3, 34700, Note_on_c, 3, 48, 119
3, 34756, Note_on_c, 3, 48, 0
3, 34760, Note_on_c, 3, 47, 94
3, 34816, Note_on_c, 3, 47, 0
3, 34820, Note_on_c, 3, 48, 115
3, 34876, Note_on_c, 3, 48, 0
3, 35180, Note_on_c, 3, 57, 123
3, 35236, Note_on_c, 3, 57, 0
3, 35240, Note_on_c, 3, 56, 80
3, 35296, Note_on_c, 3, 56, 0
3, 35300, Note_on_c, 3, 57, 98
3, 35356, Note_on_c, 3, 57, 0
3, 35660, Note_on_c, 3, 64, 106
3, 35716, Note_on_c, 3, 64, 0
3, 35720, Note_on_c, 3, 62, 106
3, 35776, Note_on_c, 3, 62, 0
3, 35780, Note_on_c, 3, 64, 101
3, 35896, Note_on_c, 3, 64, 0
3, 36140, Note_on_c, 3, 47, 117
3, 36196, Note_on_c, 3, 47, 0
3, 36200, Note_on_c, 3, 45, 100
3, 36256, Note_on_c, 3, 45, 0
3, 36260, Note_on_c, 3, 47, 111
3, 36320, Note_on_c, 3, 47, 0
3, 36620, Note_on_c, 3, 55, 127
3, 36680, Note_on_c, 3, 55, 0
3, 36680, Note_on_c, 3, 54, 93
3, 36736, Note_on_c, 3, 54, 0
3, 36740, Note_on_c, 3, 55, 101
3, 36800, Note_on_c, 3, 55, 0
3, 37100, Note_on_c, 3, 62, 100
3, 37160, Note_on_c, 3, 62, 0
3, 37160, Note_on_c, 3, 60, 100
3, 37220, Note_on_c, 3, 60, 0
3, 37220, Note_on_c, 3, 62, 100
3, 37280, Note_on_c, 3, 62, 0
3, 37580, Note_on_c, 3, 45, 100
3, 37640, Note_on_c, 3, 45, 0
3, 37640, Note_on_c, 3, 43, 100
3, 37700, Note_on_c, 3, 43, 0
3, 37700, Note_on_c, 3, 45, 100
3, 37760, Note_on_c, 3, 45, 0
3, 38060, Note_on_c, 3, 52, 100
3, 38120, Note_on_c, 3, 52, 0
3, 38120, Note_on_c, 3, 50, 100
3, 38180, Note_on_c, 3, 50, 0
3, 38180, Note_on_c, 3, 52, 100
3, 38240, Note_on_c, 3, 52, 0
3, 38540, Note_on_c, 3, 60, 100
3, 38600, Note_on_c, 3, 60, 0
3, 38600, Note_on_c, 3, 59, 100
3, 38660, Note_on_c, 3, 59, 0
3, 38660, Note_on_c, 3, 60, 100
3, 38720, Note_on_c, 3, 60, 0
3, 39020, Note_on_c, 3, 69, 100
3, 39080, Note_on_c, 3, 69, 0
3, 39080, Note_on_c, 3, 67, 100
3, 39140, Note_on_c, 3, 67, 0
3, 39140, Note_on_c, 3, 69, 100
3, 39200, Note_on_c, 3, 69, 0
3, 39500, Note_on_c, 3, 78, 100
3, 39560, Note_on_c, 3, 78, 0
3, 39560, Note_on_c, 3, 76, 100
3, 39620, Note_on_c, 3, 76, 0
3, 39620, Note_on_c, 3, 78, 100
3, 39680, Note_on_c, 3, 78, 0
3, 39980, Note_on_c, 3, 81, 100
3, 40040, Note_on_c, 3, 81, 0
3, 40040, Note_on_c, 3, 79, 100
3, 40100, Note_on_c, 3, 79, 0
3, 40100, Note_on_c, 3, 81, 100
3, 40160, Note_on_c, 3, 81, 0
3, 40400, Note_on_c, 3, 67, 97
3, 40456, Note_on_c, 3, 67, 0
3, 40460, Note_on_c, 3, 69, 104
3, 40516, Note_on_c, 3, 69, 0
3, 40520, Note_on_c, 3, 71, 92
3, 40576, Note_on_c, 3, 71, 0
3, 40580, Note_on_c, 3, 74, 97
3, 40636, Note_on_c, 3, 74, 0
3, 40640, Note_on_c, 3, 71, 110
3, 40696, Note_on_c, 3, 71, 0
3, 40700, Note_on_c, 3, 69, 98
3, 40756, Note_on_c, 3, 69, 0
3, 40760, Note_on_c, 3, 67, 102
3, 40816, Note_on_c, 3, 67, 0
3, 40880, Note_on_c, 3, 67, 100
3, 40936, Note_on_c, 3, 67, 0
3, 40940, Note_on_c, 3, 69, 101
3, 40996, Note_on_c, 3, 69, 0
3, 41000, Note_on_c, 3, 71, 97
3, 41056, Note_on_c, 3, 71, 0
3, 41060, Note_on_c, 3, 74, 97
3, 41116, Note_on_c, 3, 74, 0
3, 41120, Note_on_c, 3, 71, 102
3, 41176, Note_on_c, 3, 71, 0
3, 41180, Note_on_c, 3, 69, 100
3, 41236, Note_on_c, 3, 69, 0
3, 41240, Note_on_c, 3, 67, 100
3, 41296, Note_on_c, 3, 67, 0
3, 41360, Note_on_c, 3, 67, 98
3, 41416, Note_on_c, 3, 67, 0
3, 41420, Note_on_c, 3, 69, 100
3, 41476, Note_on_c, 3, 69, 0
3, 41480, Note_on_c, 3, 71, 97
3, 41536, Note_on_c, 3, 71, 0
3, 41540, Note_on_c, 3, 74, 96
3, 41596, Note_on_c, 3, 74, 0
3, 41600, Note_on_c, 3, 71, 102
3, 41656, Note_on_c, 3, 71, 0
3, 41660, Note_on_c, 3, 69, 95
3, 41716, Note_on_c, 3, 69, 0
3, 41720, Note_on_c, 3, 67, 93
3, 41776, Note_on_c, 3, 67, 0
3, 41780, Note_on_c, 3, 72, 123
3, 41900, Note_on_c, 3, 72, 0
3, 42260, Note_on_c, 3, 57, 126
3, 42376, Note_on_c, 3, 57, 0
3, 42740, Note_on_c, 3, 52, 121
3, 42860, Note_on_c, 3, 52, 0
3, 43220, Note_on_c, 3, 54, 109
3, 43276, Note_on_c, 3, 54, 0
3, 43340, Note_on_c, 3, 57, 109
3, 43396, Note_on_c, 3, 57, 0
3, 43400, Note_on_c, 3, 55, 86
3, 43460, Note_on_c, 3, 55, 0
3, 43460, Note_on_c, 3, 57, 104
3, 43516, Note_on_c, 3, 57, 0
3, 43580, Note_on_c, 3, 62, 106
3, 43636, Note_on_c, 3, 62, 0
3, 43640, Note_on_c, 3, 60, 100
3, 43696, Note_on_c, 3, 60, 0
3, 43700, Note_on_c, 3, 62, 104
3, 43756, Note_on_c, 3, 62, 0
3, 43820, Note_on_c, 3, 55, 104
3, 43876, Note_on_c, 3, 55, 0
3, 43880, Note_on_c, 3, 54, 104
3, 43936, Note_on_c, 3, 54, 0
3, 43940, Note_on_c, 3, 55, 86
3, 43996, Note_on_c, 3, 55, 0
3, 44060, Note_on_c, 3, 60, 107
3, 44116, Note_on_c, 3, 60, 0
3, 44120, Note_on_c, 3, 59, 106
3, 44176, Note_on_c, 3, 59, 0
3, 44180, Note_on_c, 3, 60, 106
3, 44236, Note_on_c, 3, 60, 0
3, 44300, Note_on_c, 3, 54, 100
3, 44356, Note_on_c, 3, 54, 0
3, 44360, Note_on_c, 3, 52, 102
3, 44416, Note_on_c, 3, 52, 0
3, 44420, Note_on_c, 3, 54, 97
3, 44480, Note_on_c, 3, 54, 0
3, 44540, Note_on_c, 3, 59, 123
3, 44596, Note_on_c, 3, 59, 0
3, 44600, Note_on_c, 3, 54, 97
3, 44656, Note_on_c, 3, 54, 0
3, 44660, Note_on_c, 3, 59, 110
3, 44720, Note_on_c, 3, 59, 0
3, 44780, Note_on_c, 3, 55, 89
3, 44896, Note_on_c, 3, 55, 0
3, 44900, Note_on_c, 3, 54, 90
3, 45016, Note_on_c, 3, 54, 0
3, 45020, Note_on_c, 3, 55, 95
3, 45140, Note_on_c, 3, 55, 0
3, 45140, Note_on_c, 3, 59, 112
3, 45196, Note_on_c, 3, 59, 0
3, 45200, Note_on_c, 3, 57, 100
3, 45256, Note_on_c, 3, 57, 0
3, 45260, Note_on_c, 3, 55, 98
3, 45380, Note_on_c, 3, 55, 0
3, 45380, Note_on_c, 3, 62, 86
3, 45436, Note_on_c, 3, 62, 0
3, 45440, Note_on_c, 3, 60, 104
3, 45496, Note_on_c, 3, 60, 0
3, 45500, Note_on_c, 3, 59, 97
3, 45616, Note_on_c, 3, 59, 0
3, 45620, Note_on_c, 3, 67, 127
3, 45860, Note_on_c, 3, 67, 0
3, 46080, End_track
0, 0, End_of_file
