0, 0, Header, 1, 3, 480
1, 0, Start_track
1, 0, SMPTE_offset, 96, 0, 0, 0, 0
1, 0, Time_signature, 3, 2, 24, 8
1, 20, Tempo, 545454
1, 46080, End_track
2, 0, Start_track
2, 0, Title_t, "goldberg.mid"
2, 20, Note_on_c, 0, 71, 109
2, 136, Note_on_c, 0, 71, 0
2, 140, Note_on_c, 0, 74, 104
2, 256, Note_on_c, 0, 74, 0
2, 260, Note_on_c, 0, 78, 96
2, 376, Note_on_c, 0, 78, 0
2, 380, Note_on_c, 0, 81, 102
2, 496, Note_on_c, 0, 81, 0
2, 500, Note_on_c, 0, 79, 102
2, 860, Note_on_c, 0, 79, 0
2, 860, Note_on_c, 0, 72, 72
2, 976, Note_on_c, 0, 72, 0
2, 980, Note_on_c, 0, 71, 96
2, 1096, Note_on_c, 0, 71, 0
2, 1100, Note_on_c, 0, 69, 95
2, 1216, Note_on_c, 0, 69, 0
2, 1220, Note_on_c, 0, 67, 93
2, 1336, Note_on_c, 0, 67, 0
2, 1340, Note_on_c, 0, 71, 91
2, 1456, Note_on_c, 0, 71, 0
2, 1460, Note_on_c, 0, 69, 104
2, 1576, Note_on_c, 0, 69, 0
2, 1580, Note_on_c, 0, 73, 90
2, 1696, Note_on_c, 0, 73, 0
2, 1700, Note_on_c, 0, 76, 95
2, 1816, Note_on_c, 0, 76, 0
2, 1820, Note_on_c, 0, 79, 98
2, 1936, Note_on_c, 0, 79, 0
2, 1940, Note_on_c, 0, 78, 123
2, 2296, Note_on_c, 0, 78, 0
2, 2300, Note_on_c, 0, 71, 111
2, 2416, Note_on_c, 0, 71, 0
2, 2420, Note_on_c, 0, 69, 101
2, 2536, Note_on_c, 0, 69, 0
2, 2540, Note_on_c, 0, 67, 96
2, 2656, Note_on_c, 0, 67, 0
2, 2660, Note_on_c, 0, 66, 104
2, 2776, Note_on_c, 0, 66, 0
2, 2780, Note_on_c, 0, 69, 93
2, 2896, Note_on_c, 0, 69, 0
2, 2900, Note_on_c, 0, 67, 101
2, 3016, Note_on_c, 0, 67, 0
2, 3020, Note_on_c, 0, 71, 101
2, 3136, Note_on_c, 0, 71, 0
2, 3140, Note_on_c, 0, 74, 91
2, 3256, Note_on_c, 0, 74, 0
2, 3260, Note_on_c, 0, 78, 94
2, 3376, Note_on_c, 0, 78, 0
2, 3380, Note_on_c, 0, 76, 98
2, 3736, Note_on_c, 0, 76, 0
2, 3740, Note_on_c, 0, 69, 98
2, 3856, Note_on_c, 0, 69, 0
2, 3860, Note_on_c, 0, 67, 102
2, 3976, Note_on_c, 0, 67, 0
2, 3980, Note_on_c, 0, 66, 104
2, 4096, Note_on_c, 0, 66, 0
2, 4100, Note_on_c, 0, 64, 102
2, 4216, Note_on_c, 0, 64, 0
2, 4220, Note_on_c, 0, 67, 102
2, 4336, Note_on_c, 0, 67, 0
2, 4340, Note_on_c, 0, 66, 104
2, 4456, Note_on_c, 0, 66, 0
2, 4460, Note_on_c, 0, 64, 101
2, 4576, Note_on_c, 0, 64, 0
2, 4580, Note_on_c, 0, 66, 93
2, 4696, Note_on_c, 0, 66, 0
2, 4700, Note_on_c, 0, 64, 93
2, 4816, Note_on_c, 0, 64, 0
2, 4820, Note_on_c, 0, 66, 102
2, 4936, Note_on_c, 0, 66, 0
2, 4940, Note_on_c, 0, 69, 93
2, 5056, Note_on_c, 0, 69, 0
2, 5060, Note_on_c, 0, 74, 91
2, 5176, Note_on_c, 0, 74, 0
2, 5180, Note_on_c, 0, 73, 94
2, 5296, Note_on_c, 0, 73, 0
2, 5300, Note_on_c, 0, 74, 104
2, 5416, Note_on_c, 0, 74, 0
2, 5420, Note_on_c, 0, 78, 94
2, 5536, Note_on_c, 0, 78, 0
2, 5540, Note_on_c, 0, 81, 107
2, 5656, Note_on_c, 0, 81, 0
2, 5660, Note_on_c, 0, 72, 101
2, 5776, Note_on_c, 0, 72, 0
2, 5780, Note_on_c, 0, 71, 95
2, 5896, Note_on_c, 0, 71, 0
2, 5900, Note_on_c, 0, 79, 104
2, 6016, Note_on_c, 0, 79, 0
2, 6020, Note_on_c, 0, 69, 86
2, 6136, Note_on_c, 0, 69, 0
2, 6140, Note_on_c, 0, 78, 94
2, 6256, Note_on_c, 0, 78, 0
2, 6260, Note_on_c, 0, 67, 82
2, 6376, Note_on_c, 0, 67, 0
2, 6380, Note_on_c, 0, 76, 102
2, 6496, Note_on_c, 0, 76, 0
2, 6500, Note_on_c, 0, 65, 100
2, 6616, Note_on_c, 0, 65, 0
2, 6620, Note_on_c, 0, 74, 104
2, 6736, Note_on_c, 0, 74, 0
2, 6740, Note_on_c, 0, 64, 100
2, 6856, Note_on_c, 0, 64, 0
2, 6860, Note_on_c, 0, 72, 107
2, 6976, Note_on_c, 0, 72, 0
2, 6980, Note_on_c, 0, 62, 88
2, 7100, Note_on_c, 0, 62, 0
2, 7100, Note_on_c, 0, 71, 95
2, 7216, Note_on_c, 0, 71, 0
2, 7220, Note_on_c, 0, 72, 119
2, 7336, Note_on_c, 0, 72, 0
2, 7340, Note_on_c, 0, 64, 96
2, 7456, Note_on_c, 0, 64, 0
2, 7460, Note_on_c, 0, 71, 106
2, 7576, Note_on_c, 0, 71, 0
2, 7580, Note_on_c, 0, 62, 88
2, 7696, Note_on_c, 0, 62, 0
2, 7700, Note_on_c, 0, 69, 104
2, 7816, Note_on_c, 0, 69, 0
2, 7820, Note_on_c, 0, 60, 95
2, 7936, Note_on_c, 0, 60, 0
2, 7940, Note_on_c, 0, 67, 104
2, 8056, Note_on_c, 0, 67, 0
2, 8060, Note_on_c, 0, 59, 98
2, 8176, Note_on_c, 0, 59, 0
2, 8180, Note_on_c, 0, 66, 108
2, 8296, Note_on_c, 0, 66, 0
2, 8300, Note_on_c, 0, 57, 71
2, 8416, Note_on_c, 0, 57, 0
2, 8420, Note_on_c, 0, 64, 85
2, 8536, Note_on_c, 0, 64, 0
2, 8540, Note_on_c, 0, 55, 91
2, 8656, Note_on_c, 0, 55, 0
2, 8660, Note_on_c, 0, 57, 96
2, 8776, Note_on_c, 0, 57, 0
2, 8780, Note_on_c, 0, 66, 108
2, 8896, Note_on_c, 0, 66, 0
2, 8900, Note_on_c, 0, 55, 95
2, 9016, Note_on_c, 0, 55, 0
2, 9020, Note_on_c, 0, 64, 100
2, 9136, Note_on_c, 0, 64, 0
2, 9140, Note_on_c, 0, 54, 104
2, 9256, Note_on_c, 0, 54, 0
2, 9260, Note_on_c, 0, 62, 102
2, 9376, Note_on_c, 0, 62, 0
2, 9380, Note_on_c, 0, 52, 86
2, 9496, Note_on_c, 0, 52, 0
2, 9500, Note_on_c, 0, 60, 96
2, 9616, Note_on_c, 0, 60, 0
2, 9620, Note_on_c, 0, 50, 90
2, 9736, Note_on_c, 0, 50, 0
2, 9740, Note_on_c, 0, 59, 90
2, 9856, Note_on_c, 0, 59, 0
2, 9860, Note_on_c, 0, 48, 81
2, 9976, Note_on_c, 0, 48, 0
2, 9980, Note_on_c, 0, 57, 85
2, 10096, Note_on_c, 0, 57, 0
2, 10100, Note_on_c, 0, 47, 37
2, 10216, Note_on_c, 0, 47, 0
2, 10220, Note_on_c, 0, 45, 77
2, 10336, Note_on_c, 0, 45, 0
2, 10340, Note_on_c, 0, 47, 107
2, 10456, Note_on_c, 0, 47, 0
2, 10460, Note_on_c, 0, 45, 96
2, 10576, Note_on_c, 0, 45, 0
2, 10580, Note_on_c, 0, 47, 106
2, 10696, Note_on_c, 0, 47, 0
2, 10700, Note_on_c, 0, 50, 98
2, 10816, Note_on_c, 0, 50, 0
2, 10820, Note_on_c, 0, 55, 100
2, 10936, Note_on_c, 0, 55, 0
2, 10940, Note_on_c, 0, 54, 102
2, 11056, Note_on_c, 0, 54, 0
2, 11060, Note_on_c, 0, 55, 104
2, 11296, Note_on_c, 0, 55, 0
2, 11540, Note_on_c, 0, 74, 109
2, 11656, Note_on_c, 0, 74, 0
2, 11660, Note_on_c, 0, 83, 109
2, 11776, Note_on_c, 0, 83, 0
2, 11780, Note_on_c, 0, 72, 86
2, 11896, Note_on_c, 0, 72, 0
2, 11900, Note_on_c, 0, 81, 104
2, 12016, Note_on_c, 0, 81, 0
2, 12020, Note_on_c, 0, 71, 93
2, 12136, Note_on_c, 0, 71, 0
2, 12140, Note_on_c, 0, 79, 90
2, 12256, Note_on_c, 0, 79, 0
2, 12260, Note_on_c, 0, 69, 82
2, 12376, Note_on_c, 0, 69, 0
2, 12380, Note_on_c, 0, 78, 94
2, 12496, Note_on_c, 0, 78, 0
2, 12500, Note_on_c, 0, 67, 91
2, 12616, Note_on_c, 0, 67, 0
2, 12620, Note_on_c, 0, 76, 100
2, 12736, Note_on_c, 0, 76, 0
2, 12740, Note_on_c, 0, 66, 94
2, 12856, Note_on_c, 0, 66, 0
2, 12860, Note_on_c, 0, 74, 97
2, 12976, Note_on_c, 0, 74, 0
2, 12980, Note_on_c, 0, 64, 93
2, 13096, Note_on_c, 0, 64, 0
2, 13100, Note_on_c, 0, 74, 106
2, 13216, Note_on_c, 0, 74, 0
2, 13220, Note_on_c, 0, 73, 104
2, 13336, Note_on_c, 0, 73, 0
2, 13340, Note_on_c, 0, 71, 96
2, 13456, Note_on_c, 0, 71, 0
2, 13460, Note_on_c, 0, 73, 92
2, 13520, Note_on_c, 0, 73, 0
2, 13580, Note_on_c, 0, 76, 102
2, 13640, Note_on_c, 0, 76, 0
2, 13700, Note_on_c, 0, 81, 93
2, 13940, Note_on_c, 0, 81, 0
2, 13940, Note_on_c, 0, 81, 102
2, 14000, Note_on_c, 0, 81, 0
2, 14000, Note_on_c, 0, 79, 102
2, 14060, Note_on_c, 0, 79, 0
2, 14060, Note_on_c, 0, 81, 111
2, 14416, Note_on_c, 0, 81, 0
2, 14420, Note_on_c, 0, 71, 93
2, 14536, Note_on_c, 0, 71, 0
2, 14540, Note_on_c, 0, 79, 107
2, 14656, Note_on_c, 0, 79, 0
2, 14660, Note_on_c, 0, 69, 82
2, 14776, Note_on_c, 0, 69, 0
2, 14780, Note_on_c, 0, 78, 104
2, 14896, Note_on_c, 0, 78, 0
2, 14900, Note_on_c, 0, 67, 95
2, 15016, Note_on_c, 0, 67, 0
2, 15020, Note_on_c, 0, 76, 109
2, 15136, Note_on_c, 0, 76, 0
2, 15140, Note_on_c, 0, 66, 84
2, 15256, Note_on_c, 0, 66, 0
2, 15260, Note_on_c, 0, 74, 102
2, 15376, Note_on_c, 0, 74, 0
2, 15380, Note_on_c, 0, 64, 102
2, 15496, Note_on_c, 0, 64, 0
2, 15500, Note_on_c, 0, 73, 102
2, 15616, Note_on_c, 0, 73, 0
2, 15620, Note_on_c, 0, 62, 100
2, 15736, Note_on_c, 0, 62, 0
2, 15740, Note_on_c, 0, 71, 97
2, 15856, Note_on_c, 0, 71, 0
2, 15860, Note_on_c, 0, 61, 97
2, 15976, Note_on_c, 0, 61, 0
2, 15980, Note_on_c, 0, 71, 98
2, 16096, Note_on_c, 0, 71, 0
2, 16100, Note_on_c, 0, 69, 91
2, 16216, Note_on_c, 0, 69, 0
2, 16220, Note_on_c, 0, 68, 97
2, 16336, Note_on_c, 0, 68, 0
2, 16340, Note_on_c, 0, 69, 75
2, 16456, Note_on_c, 0, 69, 0
2, 16460, Note_on_c, 0, 73, 89
2, 16576, Note_on_c, 0, 73, 0
2, 16580, Note_on_c, 0, 76, 111
2, 16816, Note_on_c, 0, 76, 0
2, 16820, Note_on_c, 0, 76, 113
2, 16880, Note_on_c, 0, 76, 0
2, 16880, Note_on_c, 0, 74, 100
2, 16940, Note_on_c, 0, 74, 0
2, 16940, Note_on_c, 0, 76, 111
2, 17416, Note_on_c, 0, 76, 0
2, 17420, Note_on_c, 0, 74, 104
2, 17536, Note_on_c, 0, 74, 0
2, 17540, Note_on_c, 0, 76, 93
2, 17656, Note_on_c, 0, 76, 0
2, 17660, Note_on_c, 0, 73, 89
2, 17776, Note_on_c, 0, 73, 0
2, 17780, Note_on_c, 0, 74, 100
2, 17896, Note_on_c, 0, 74, 0
2, 17900, Note_on_c, 0, 71, 92
2, 18016, Note_on_c, 0, 71, 0
2, 18020, Note_on_c, 0, 72, 101
2, 18136, Note_on_c, 0, 72, 0
2, 18140, Note_on_c, 0, 69, 91
2, 18256, Note_on_c, 0, 69, 0
2, 18260, Note_on_c, 0, 71, 92
2, 18376, Note_on_c, 0, 71, 0
2, 18380, Note_on_c, 0, 67, 86
2, 18496, Note_on_c, 0, 67, 0
2, 18500, Note_on_c, 0, 69, 95
2, 18616, Note_on_c, 0, 69, 0
2, 18620, Note_on_c, 0, 66, 86
2, 18736, Note_on_c, 0, 66, 0
2, 18740, Note_on_c, 0, 67, 102
2, 18856, Note_on_c, 0, 67, 0
2, 18860, Note_on_c, 0, 76, 102
2, 18976, Note_on_c, 0, 76, 0
2, 18980, Note_on_c, 0, 66, 94
2, 19096, Note_on_c, 0, 66, 0
2, 19100, Note_on_c, 0, 74, 100
2, 19216, Note_on_c, 0, 74, 0
2, 19220, Note_on_c, 0, 64, 98
2, 19336, Note_on_c, 0, 64, 0
2, 19340, Note_on_c, 0, 73, 108
2, 19456, Note_on_c, 0, 73, 0
2, 19460, Note_on_c, 0, 74, 109
2, 19520, Note_on_c, 0, 74, 0
2, 19520, Note_on_c, 0, 73, 109
2, 19580, Note_on_c, 0, 73, 0
2, 19580, Note_on_c, 0, 71, 97
2, 19696, Note_on_c, 0, 71, 0
2, 19700, Note_on_c, 0, 73, 107
2, 19760, Note_on_c, 0, 73, 0
2, 19760, Note_on_c, 0, 71, 107
2, 19820, Note_on_c, 0, 71, 0
2, 19820, Note_on_c, 0, 69, 92
2, 19936, Note_on_c, 0, 69, 0
2, 19940, Note_on_c, 0, 71, 97
2, 20056, Note_on_c, 0, 71, 0
2, 20060, Note_on_c, 0, 79, 107
2, 20176, Note_on_c, 0, 79, 0
2, 20180, Note_on_c, 0, 79, 117
2, 20540, Note_on_c, 0, 79, 0
2, 20540, Note_on_c, 0, 78, 110
2, 20600, Note_on_c, 0, 78, 0
2, 20600, Note_on_c, 0, 76, 91
2, 20660, Note_on_c, 0, 76, 0
2, 20660, Note_on_c, 0, 78, 112
2, 20776, Note_on_c, 0, 78, 0
2, 20780, Note_on_c, 0, 74, 95
2, 20896, Note_on_c, 0, 74, 0
2, 20900, Note_on_c, 0, 71, 115
2, 21016, Note_on_c, 0, 71, 0
2, 21020, Note_on_c, 0, 67, 98
2, 21136, Note_on_c, 0, 67, 0
2, 21140, Note_on_c, 0, 69, 95
2, 21256, Note_on_c, 0, 69, 0
2, 21260, Note_on_c, 0, 66, 89
2, 21376, Note_on_c, 0, 66, 0
2, 21380, Note_on_c, 0, 67, 78
2, 21496, Note_on_c, 0, 67, 0
2, 21500, Note_on_c, 0, 76, 107
2, 21616, Note_on_c, 0, 76, 0
2, 21620, Note_on_c, 0, 66, 104
2, 21736, Note_on_c, 0, 66, 0
2, 21740, Note_on_c, 0, 64, 96
2, 21856, Note_on_c, 0, 64, 0
2, 21860, Note_on_c, 0, 66, 101
2, 21976, Note_on_c, 0, 66, 0
2, 21980, Note_on_c, 0, 64, 84
2, 22096, Note_on_c, 0, 64, 0
2, 22100, Note_on_c, 0, 66, 108
2, 22216, Note_on_c, 0, 66, 0
2, 22220, Note_on_c, 0, 69, 100
2, 22336, Note_on_c, 0, 69, 0
2, 22340, Note_on_c, 0, 74, 100
2, 22456, Note_on_c, 0, 74, 0
2, 22460, Note_on_c, 0, 73, 106
2, 22576, Note_on_c, 0, 73, 0
2, 22580, Note_on_c, 0, 74, 117
2, 22816, Note_on_c, 0, 74, 0
2, 23060, Note_on_c, 0, 81, 113
2, 23176, Note_on_c, 0, 81, 0
2, 23180, Note_on_c, 0, 78, 90
2, 23296, Note_on_c, 0, 78, 0
2, 23300, Note_on_c, 0, 79, 97
2, 23416, Note_on_c, 0, 79, 0
2, 23420, Note_on_c, 0, 76, 76
2, 23536, Note_on_c, 0, 76, 0
2, 23540, Note_on_c, 0, 78, 101
2, 23656, Note_on_c, 0, 78, 0
2, 23660, Note_on_c, 0, 74, 90
2, 23776, Note_on_c, 0, 74, 0
2, 23780, Note_on_c, 0, 76, 96
2, 23896, Note_on_c, 0, 76, 0
2, 23900, Note_on_c, 0, 72, 98
2, 24016, Note_on_c, 0, 72, 0
2, 24020, Note_on_c, 0, 74, 95
2, 24136, Note_on_c, 0, 74, 0
2, 24140, Note_on_c, 0, 71, 92
2, 24256, Note_on_c, 0, 71, 0
2, 24260, Note_on_c, 0, 72, 90
2, 24376, Note_on_c, 0, 72, 0
2, 24380, Note_on_c, 0, 69, 88
2, 24496, Note_on_c, 0, 69, 0
2, 24500, Note_on_c, 0, 71, 89
2, 24616, Note_on_c, 0, 71, 0
2, 24620, Note_on_c, 0, 67, 96
2, 24736, Note_on_c, 0, 67, 0
2, 24740, Note_on_c, 0, 69, 89
2, 24856, Note_on_c, 0, 69, 0
2, 24860, Note_on_c, 0, 66, 94
2, 24976, Note_on_c, 0, 66, 0
2, 24980, Note_on_c, 0, 67, 109
2, 25096, Note_on_c, 0, 67, 0
2, 25100, Note_on_c, 0, 64, 91
2, 25216, Note_on_c, 0, 64, 0
2, 25220, Note_on_c, 0, 66, 104
2, 25336, Note_on_c, 0, 66, 0
2, 25340, Note_on_c, 0, 63, 104
2, 25456, Note_on_c, 0, 63, 0
2, 25460, Note_on_c, 0, 64, 107
2, 25576, Note_on_c, 0, 64, 0
2, 25580, Note_on_c, 0, 60, 102
2, 25696, Note_on_c, 0, 60, 0
2, 25700, Note_on_c, 0, 62, 107
2, 25816, Note_on_c, 0, 62, 0
2, 25820, Note_on_c, 0, 59, 96
2, 25936, Note_on_c, 0, 59, 0
2, 25940, Note_on_c, 0, 60, 107
2, 26056, Note_on_c, 0, 60, 0
2, 26060, Note_on_c, 0, 57, 98
2, 26176, Note_on_c, 0, 57, 0
2, 26180, Note_on_c, 0, 59, 97
2, 26296, Note_on_c, 0, 59, 0
2, 26300, Note_on_c, 0, 56, 94
2, 26416, Note_on_c, 0, 56, 0
2, 26420, Note_on_c, 0, 57, 111
2, 26536, Note_on_c, 0, 57, 0
2, 26540, Note_on_c, 0, 54, 97
2, 26656, Note_on_c, 0, 54, 0
2, 26660, Note_on_c, 0, 55, 96
2, 26776, Note_on_c, 0, 55, 0
2, 26780, Note_on_c, 0, 52, 92
2, 26896, Note_on_c, 0, 52, 0
2, 26900, Note_on_c, 0, 53, 109
2, 27016, Note_on_c, 0, 53, 0
2, 27020, Note_on_c, 0, 51, 102
2, 27136, Note_on_c, 0, 51, 0
2, 27140, Note_on_c, 0, 52, 107
2, 27256, Note_on_c, 0, 52, 0
2, 27260, Note_on_c, 0, 49, 102
2, 27376, Note_on_c, 0, 49, 0
2, 27380, Note_on_c, 0, 51, 110
2, 27496, Note_on_c, 0, 51, 0
2, 27500, Note_on_c, 0, 49, 108
2, 27616, Note_on_c, 0, 49, 0
2, 27620, Note_on_c, 0, 51, 106
2, 27736, Note_on_c, 0, 51, 0
2, 27740, Note_on_c, 0, 49, 108
2, 27856, Note_on_c, 0, 49, 0
2, 27860, Note_on_c, 0, 51, 121
2, 28456, Note_on_c, 0, 51, 0
2, 28460, Note_on_c, 0, 54, 104
2, 28576, Note_on_c, 0, 54, 0
2, 28580, Note_on_c, 0, 59, 113
2, 28696, Note_on_c, 0, 59, 0
2, 28700, Note_on_c, 0, 57, 104
2, 28816, Note_on_c, 0, 57, 0
2, 28820, Note_on_c, 0, 55, 93
2, 28936, Note_on_c, 0, 55, 0
2, 28940, Note_on_c, 0, 59, 101
2, 29056, Note_on_c, 0, 59, 0
2, 29060, Note_on_c, 0, 57, 89
2, 29176, Note_on_c, 0, 57, 0
2, 29180, Note_on_c, 0, 60, 96
2, 29296, Note_on_c, 0, 60, 0
2, 29300, Note_on_c, 0, 59, 97
2, 29416, Note_on_c, 0, 59, 0
2, 29420, Note_on_c, 0, 63, 102
2, 29536, Note_on_c, 0, 63, 0
2, 29540, Note_on_c, 0, 61, 104
2, 29656, Note_on_c, 0, 61, 0
2, 29660, Note_on_c, 0, 64, 101
2, 29776, Note_on_c, 0, 64, 0
2, 29780, Note_on_c, 0, 63, 92
2, 29896, Note_on_c, 0, 63, 0
2, 29900, Note_on_c, 0, 66, 97
2, 30016, Note_on_c, 0, 66, 0
2, 30020, Note_on_c, 0, 64, 95
2, 30136, Note_on_c, 0, 64, 0
2, 30140, Note_on_c, 0, 67, 86
2, 30256, Note_on_c, 0, 67, 0
2, 30260, Note_on_c, 0, 66, 104
2, 30376, Note_on_c, 0, 66, 0
2, 30380, Note_on_c, 0, 69, 89
2, 30496, Note_on_c, 0, 69, 0
2, 30500, Note_on_c, 0, 67, 101
2, 30616, Note_on_c, 0, 67, 0
2, 30620, Note_on_c, 0, 71, 100
2, 30736, Note_on_c, 0, 71, 0
2, 30740, Note_on_c, 0, 69, 86
2, 30856, Note_on_c, 0, 69, 0
2, 30860, Note_on_c, 0, 72, 98
2, 30976, Note_on_c, 0, 72, 0
2, 30980, Note_on_c, 0, 71, 98
2, 31096, Note_on_c, 0, 71, 0
2, 31100, Note_on_c, 0, 74, 89
2, 31216, Note_on_c, 0, 74, 0
2, 31220, Note_on_c, 0, 72, 95
2, 31336, Note_on_c, 0, 72, 0
2, 31340, Note_on_c, 0, 76, 101
2, 31456, Note_on_c, 0, 76, 0
2, 31460, Note_on_c, 0, 75, 96
2, 31576, Note_on_c, 0, 75, 0
2, 31580, Note_on_c, 0, 78, 99
2, 31696, Note_on_c, 0, 78, 0
2, 31700, Note_on_c, 0, 76, 101
2, 31816, Note_on_c, 0, 76, 0
2, 31820, Note_on_c, 0, 79, 95
2, 31936, Note_on_c, 0, 79, 0
2, 31940, Note_on_c, 0, 78, 81
2, 32056, Note_on_c, 0, 78, 0
2, 32060, Note_on_c, 0, 81, 109
2, 32176, Note_on_c, 0, 81, 0
2, 32180, Note_on_c, 0, 79, 95
2, 32296, Note_on_c, 0, 79, 0
2, 32300, Note_on_c, 0, 83, 104
2, 32416, Note_on_c, 0, 83, 0
2, 32420, Note_on_c, 0, 81, 98
2, 32536, Note_on_c, 0, 81, 0
2, 32540, Note_on_c, 0, 84, 98
2, 32656, Note_on_c, 0, 84, 0
2, 32660, Note_on_c, 0, 83, 115
2, 32776, Note_on_c, 0, 83, 0
2, 32780, Note_on_c, 0, 79, 95
2, 32896, Note_on_c, 0, 79, 0
2, 32900, Note_on_c, 0, 81, 98
2, 33016, Note_on_c, 0, 81, 0
2, 33020, Note_on_c, 0, 78, 97
2, 33136, Note_on_c, 0, 78, 0
2, 33140, Note_on_c, 0, 79, 97
2, 33256, Note_on_c, 0, 79, 0
2, 33260, Note_on_c, 0, 76, 89
2, 33376, Note_on_c, 0, 76, 0
2, 33380, Note_on_c, 0, 78, 93
2, 33496, Note_on_c, 0, 78, 0
2, 33500, Note_on_c, 0, 75, 102
2, 33616, Note_on_c, 0, 75, 0
2, 33620, Note_on_c, 0, 76, 104
2, 33736, Note_on_c, 0, 76, 0
2, 33740, Note_on_c, 0, 72, 106
2, 33856, Note_on_c, 0, 72, 0
2, 33860, Note_on_c, 0, 71, 96
2, 33976, Note_on_c, 0, 71, 0
2, 33980, Note_on_c, 0, 69, 101
2, 34096, Note_on_c, 0, 69, 0
2, 34100, Note_on_c, 0, 67, 101
2, 34216, Note_on_c, 0, 67, 0
2, 34220, Note_on_c, 0, 66, 112
2, 34336, Note_on_c, 0, 66, 0
2, 34340, Note_on_c, 0, 64, 107
2, 34696, Note_on_c, 0, 64, 0
2, 34700, Note_on_c, 0, 76, 117
2, 34820, Note_on_c, 0, 76, 0
2, 34820, Note_on_c, 0, 71, 82
2, 34936, Note_on_c, 0, 71, 0
2, 34940, Note_on_c, 0, 74, 111
2, 35056, Note_on_c, 0, 74, 0
2, 35060, Note_on_c, 0, 72, 113
2, 35176, Note_on_c, 0, 72, 0
2, 35180, Note_on_c, 0, 71, 107
2, 35296, Note_on_c, 0, 71, 0
2, 35300, Note_on_c, 0, 69, 98
2, 35416, Note_on_c, 0, 69, 0
2, 35420, Note_on_c, 0, 72, 107
2, 35536, Note_on_c, 0, 72, 0
2, 35540, Note_on_c, 0, 71, 95
2, 35656, Note_on_c, 0, 71, 0
2, 35660, Note_on_c, 0, 74, 96
2, 35776, Note_on_c, 0, 74, 0
2, 35780, Note_on_c, 0, 72, 95
2, 35896, Note_on_c, 0, 72, 0
2, 35900, Note_on_c, 0, 76, 97
2, 36016, Note_on_c, 0, 76, 0
2, 36020, Note_on_c, 0, 74, 107
2, 36136, Note_on_c, 0, 74, 0
2, 36140, Note_on_c, 0, 71, 93
2, 36256, Note_on_c, 0, 71, 0
2, 36260, Note_on_c, 0, 69, 85
2, 36376, Note_on_c, 0, 69, 0
2, 36380, Note_on_c, 0, 72, 93
2, 36496, Note_on_c, 0, 72, 0
2, 36500, Note_on_c, 0, 71, 96
2, 36616, Note_on_c, 0, 71, 0
2, 36620, Note_on_c, 0, 69, 88
2, 36736, Note_on_c, 0, 69, 0
2, 36740, Note_on_c, 0, 68, 89
2, 36856, Note_on_c, 0, 68, 0
2, 36860, Note_on_c, 0, 71, 100
2, 36976, Note_on_c, 0, 71, 0
2, 36980, Note_on_c, 0, 69, 93
2, 37096, Note_on_c, 0, 69, 0
2, 37100, Note_on_c, 0, 72, 101
2, 37216, Note_on_c, 0, 72, 0
2, 37220, Note_on_c, 0, 71, 85
2, 37336, Note_on_c, 0, 71, 0
2, 37340, Note_on_c, 0, 74, 85
2, 37456, Note_on_c, 0, 74, 0
2, 37460, Note_on_c, 0, 72, 92
2, 37576, Note_on_c, 0, 72, 0
2, 37580, Note_on_c, 0, 69, 81
2, 37696, Note_on_c, 0, 69, 0
2, 37700, Note_on_c, 0, 67, 90
2, 37816, Note_on_c, 0, 67, 0
2, 37820, Note_on_c, 0, 71, 89
2, 37936, Note_on_c, 0, 71, 0
2, 37940, Note_on_c, 0, 69, 91
2, 38056, Note_on_c, 0, 69, 0
2, 38060, Note_on_c, 0, 78, 82
2, 38176, Note_on_c, 0, 78, 0
2, 38180, Note_on_c, 0, 79, 91
2, 38296, Note_on_c, 0, 79, 0
2, 38300, Note_on_c, 0, 76, 94
2, 38416, Note_on_c, 0, 76, 0
2, 38420, Note_on_c, 0, 78, 88
2, 38536, Note_on_c, 0, 78, 0
2, 38540, Note_on_c, 0, 74, 89
2, 38656, Note_on_c, 0, 74, 0
2, 38660, Note_on_c, 0, 76, 84
2, 38776, Note_on_c, 0, 76, 0
2, 38780, Note_on_c, 0, 84, 91
2, 38896, Note_on_c, 0, 84, 0
2, 38900, Note_on_c, 0, 84, 119
2, 39140, Note_on_c, 0, 84, 0
2, 39200, Note_on_c, 0, 83, 92
2, 39260, Note_on_c, 0, 83, 0
2, 39260, Note_on_c, 0, 81, 121
2, 39320, Note_on_c, 0, 81, 0
2, 39320, Note_on_c, 0, 79, 98
2, 39380, Note_on_c, 0, 79, 0
2, 39380, Note_on_c, 0, 78, 101
2, 39496, Note_on_c, 0, 78, 0
2, 39500, Note_on_c, 0, 79, 88
2, 39616, Note_on_c, 0, 79, 0
2, 39620, Note_on_c, 0, 81, 88
2, 39736, Note_on_c, 0, 81, 0
2, 39740, Note_on_c, 0, 78, 90
2, 39856, Note_on_c, 0, 78, 0
2, 39860, Note_on_c, 0, 76, 90
2, 39976, Note_on_c, 0, 76, 0
2, 39980, Note_on_c, 0, 74, 101
2, 40456, Note_on_c, 0, 74, 0
2, 40460, Note_on_c, 0, 71, 97
2, 40576, Note_on_c, 0, 71, 0
2, 40580, Note_on_c, 0, 72, 93
2, 40696, Note_on_c, 0, 72, 0
2, 40700, Note_on_c, 0, 69, 82
2, 40816, Note_on_c, 0, 69, 0
2, 40820, Note_on_c, 0, 71, 93
2, 40936, Note_on_c, 0, 71, 0
2, 40940, Note_on_c, 0, 79, 113
2, 41056, Note_on_c, 0, 79, 0
2, 41060, Note_on_c, 0, 69, 81
2, 41176, Note_on_c, 0, 69, 0
2, 41180, Note_on_c, 0, 77, 113
2, 41296, Note_on_c, 0, 77, 0
2, 41300, Note_on_c, 0, 67, 91
2, 41416, Note_on_c, 0, 67, 0
2, 41420, Note_on_c, 0, 76, 109
2, 41536, Note_on_c, 0, 76, 0
2, 41540, Note_on_c, 0, 65, 81
2, 41656, Note_on_c, 0, 65, 0
2, 41660, Note_on_c, 0, 74, 101
2, 41776, Note_on_c, 0, 74, 0
2, 41780, Note_on_c, 0, 64, 102
2, 42020, Note_on_c, 0, 64, 0
2, 42080, Note_on_c, 0, 67, 91
2, 42140, Note_on_c, 0, 67, 0
2, 42140, Note_on_c, 0, 69, 91
2, 42200, Note_on_c, 0, 69, 0
2, 42200, Note_on_c, 0, 71, 91
2, 42260, Note_on_c, 0, 71, 0
2, 42260, Note_on_c, 0, 72, 109
2, 42376, Note_on_c, 0, 72, 0
2, 42380, Note_on_c, 0, 69, 76
2, 42496, Note_on_c, 0, 69, 0
2, 42500, Note_on_c, 0, 71, 90
2, 42616, Note_on_c, 0, 71, 0
2, 42620, Note_on_c, 0, 67, 86
2, 42736, Note_on_c, 0, 67, 0
2, 42740, Note_on_c, 0, 69, 81
2, 42856, Note_on_c, 0, 69, 0
2, 42860, Note_on_c, 0, 66, 93
2, 42976, Note_on_c, 0, 66, 0
2, 42980, Note_on_c, 0, 67, 95
2, 43096, Note_on_c, 0, 67, 0
2, 43100, Note_on_c, 0, 64, 92
2, 43216, Note_on_c, 0, 64, 0
2, 43220, Note_on_c, 0, 66, 86
2, 43336, Note_on_c, 0, 66, 0
2, 43340, Note_on_c, 0, 76, 106
2, 43456, Note_on_c, 0, 76, 0
2, 43460, Note_on_c, 0, 74, 101
2, 43700, Note_on_c, 0, 74, 0
2, 43760, Note_on_c, 0, 76, 93
2, 43820, Note_on_c, 0, 76, 0
2, 43820, Note_on_c, 0, 78, 106
2, 43880, Note_on_c, 0, 78, 0
2, 43880, Note_on_c, 0, 79, 107
2, 43940, Note_on_c, 0, 79, 0
2, 43940, Note_on_c, 0, 78, 99
2, 44000, Note_on_c, 0, 78, 0
2, 44000, Note_on_c, 0, 76, 102
2, 44060, Note_on_c, 0, 76, 0
2, 44060, Note_on_c, 0, 74, 89
2, 44120, Note_on_c, 0, 74, 0
2, 44120, Note_on_c, 0, 72, 81
2, 44180, Note_on_c, 0, 72, 0
2, 44180, Note_on_c, 0, 71, 88
2, 44296, Note_on_c, 0, 71, 0
2, 44300, Note_on_c, 0, 79, 106
2, 44416, Note_on_c, 0, 79, 0
2, 44420, Note_on_c, 0, 69, 96
2, 44536, Note_on_c, 0, 69, 0
2, 44540, Note_on_c, 0, 78, 93
2, 44656, Note_on_c, 0, 78, 0
2, 44660, Note_on_c, 0, 67, 93
2, 44776, Note_on_c, 0, 67, 0
2, 44780, Note_on_c, 0, 66, 90
2, 44896, Note_on_c, 0, 66, 0
2, 44900, Note_on_c, 0, 67, 91
2, 45016, Note_on_c, 0, 67, 0
2, 45020, Note_on_c, 0, 66, 92
2, 45136, Note_on_c, 0, 66, 0
2, 45140, Note_on_c, 0, 67, 96
2, 45256, Note_on_c, 0, 67, 0
2, 45260, Note_on_c, 0, 71, 92
2, 45376, Note_on_c, 0, 71, 0
2, 45380, Note_on_c, 0, 74, 97
2, 45496, Note_on_c, 0, 74, 0
2, 45500, Note_on_c, 0, 78, 102
2, 45616, Note_on_c, 0, 78, 0
2, 45620, Note_on_c, 0, 79, 106
2, 45860, Note_on_c, 0, 79, 0
2, 46080, End_track
3, 0, Start_track
3, 0, Title_t, "goldberg.mid"
3, 20, Note_on_c, 3, 43, 90
3, 136, Note_on_c, 3, 43, 0
3, 140, Note_on_c, 3, 47, 90
3, 256, Note_on_c, 3, 47, 0
3, 260, Note_on_c, 3, 45, 81
3, 376, Note_on_c, 3, 45, 0
3, 380, Note_on_c, 3, 48, 91
3, 496, Note_on_c, 3, 48, 0
3, 500, Note_on_c, 3, 47, 89
3, 616, Note_on_c, 3, 47, 0
3, 620, Note_on_c, 3, 50, 88
3, 736, Note_on_c, 3, 50, 0
3, 740, Note_on_c, 3, 48, 86
3, 856, Note_on_c, 3, 48, 0
3, 860, Note_on_c, 3, 52, 90
3, 976, Note_on_c, 3, 52, 0
3, 980, Note_on_c, 3, 50, 85
3, 1096, Note_on_c, 3, 50, 0
3, 1100, Note_on_c, 3, 54, 88
3, 1216, Note_on_c, 3, 54, 0
3, 1220, Note_on_c, 3, 52, 85
3, 1336, Note_on_c, 3, 52, 0
3, 1340, Note_on_c, 3, 55, 86
3, 1456, Note_on_c, 3, 55, 0
3, 1460, Note_on_c, 3, 54, 86
3, 1576, Note_on_c, 3, 54, 0
3, 1580, Note_on_c, 3, 57, 90
3, 1696, Note_on_c, 3, 57, 0
3, 1700, Note_on_c, 3, 55, 77
3, 1816, Note_on_c, 3, 55, 0
3, 1820, Note_on_c, 3, 59, 69
3, 1936, Note_on_c, 3, 59, 0
3, 1940, Note_on_c, 3, 57, 77
3, 2056, Note_on_c, 3, 57, 0
3, 2060, Note_on_c, 3, 61, 93
3, 2176, Note_on_c, 3, 61, 0
3, 2180, Note_on_c, 3, 59, 80
3, 2296, Note_on_c, 3, 59, 0
3, 2300, Note_on_c, 3, 62, 88
3, 2416, Note_on_c, 3, 62, 0
3, 2420, Note_on_c, 3, 61, 82
3, 2536, Note_on_c, 3, 61, 0
3, 2540, Note_on_c, 3, 64, 88
3, 2656, Note_on_c, 3, 64, 0
3, 2660, Note_on_c, 3, 62, 85
3, 2776, Note_on_c, 3, 62, 0
3, 2780, Note_on_c, 3, 66, 85
3, 2896, Note_on_c, 3, 66, 0
3, 2900, Note_on_c, 3, 64, 83
3, 3016, Note_on_c, 3, 64, 0
3, 3020, Note_on_c, 3, 67, 77
3, 3136, Note_on_c, 3, 67, 0
3, 3140, Note_on_c, 3, 66, 76
3, 3256, Note_on_c, 3, 66, 0
3, 3260, Note_on_c, 3, 69, 86
3, 3376, Note_on_c, 3, 69, 0
3, 3380, Note_on_c, 3, 67, 80
3, 3496, Note_on_c, 3, 67, 0
3, 3500, Note_on_c, 3, 71, 90
3, 3616, Note_on_c, 3, 71, 0
3, 3620, Note_on_c, 3, 69, 80
3, 3736, Note_on_c, 3, 69, 0
3, 3740, Note_on_c, 3, 73, 86
3, 3856, Note_on_c, 3, 73, 0
3, 3860, Note_on_c, 3, 71, 80
3, 3976, Note_on_c, 3, 71, 0
3, 3980, Note_on_c, 3, 74, 85
3, 4096, Note_on_c, 3, 74, 0
3, 4100, Note_on_c, 3, 73, 81
3, 4216, Note_on_c, 3, 73, 0
3, 4220, Note_on_c, 3, 76, 97
3, 4336, Note_on_c, 3, 76, 0
3, 4340, Note_on_c, 3, 74, 95
3, 4456, Note_on_c, 3, 74, 0
3, 4460, Note_on_c, 3, 73, 84
3, 4576, Note_on_c, 3, 73, 0
3, 4580, Note_on_c, 3, 74, 85
3, 4696, Note_on_c, 3, 74, 0
3, 4700, Note_on_c, 3, 73, 93
3, 4816, Note_on_c, 3, 73, 0
3, 4820, Note_on_c, 3, 74, 96
3, 5896, Note_on_c, 3, 74, 0
3, 5900, Note_on_c, 3, 71, 93
3, 6016, Note_on_c, 3, 71, 0
3, 6020, Note_on_c, 3, 73, 90
3, 6136, Note_on_c, 3, 73, 0
3, 6140, Note_on_c, 3, 69, 84
3, 6256, Note_on_c, 3, 69, 0
3, 6260, Note_on_c, 3, 71, 92
3, 6376, Note_on_c, 3, 71, 0
3, 6380, Note_on_c, 3, 67, 85
3, 6496, Note_on_c, 3, 67, 0
3, 6500, Note_on_c, 3, 69, 86
3, 6616, Note_on_c, 3, 69, 0
3, 6620, Note_on_c, 3, 65, 86
3, 6736, Note_on_c, 3, 65, 0
3, 6740, Note_on_c, 3, 67, 86
3, 6856, Note_on_c, 3, 67, 0
3, 6860, Note_on_c, 3, 64, 91
3, 6976, Note_on_c, 3, 64, 0
3, 6980, Note_on_c, 3, 65, 88
3, 7096, Note_on_c, 3, 65, 0
3, 7100, Note_on_c, 3, 62, 90
3, 7216, Note_on_c, 3, 62, 0
3, 7220, Note_on_c, 3, 64, 93
3, 7336, Note_on_c, 3, 64, 0
3, 7340, Note_on_c, 3, 60, 93
3, 7456, Note_on_c, 3, 60, 0
3, 7460, Note_on_c, 3, 62, 93
3, 7576, Note_on_c, 3, 62, 0
3, 7580, Note_on_c, 3, 59, 89
3, 7696, Note_on_c, 3, 59, 0
3, 7700, Note_on_c, 3, 60, 97
3, 7816, Note_on_c, 3, 60, 0
3, 7820, Note_on_c, 3, 57, 82
3, 7936, Note_on_c, 3, 57, 0
3, 7940, Note_on_c, 3, 59, 93
3, 8056, Note_on_c, 3, 59, 0
3, 8060, Note_on_c, 3, 55, 85
3, 8176, Note_on_c, 3, 55, 0
3, 8180, Note_on_c, 3, 57, 95
3, 8296, Note_on_c, 3, 57, 0
3, 8300, Note_on_c, 3, 54, 82
3, 8416, Note_on_c, 3, 54, 0
3, 8420, Note_on_c, 3, 55, 95
3, 8536, Note_on_c, 3, 55, 0
3, 8540, Note_on_c, 3, 52, 89
3, 8656, Note_on_c, 3, 52, 0
3, 8660, Note_on_c, 3, 54, 106
3, 8776, Note_on_c, 3, 54, 0
3, 8780, Note_on_c, 3, 50, 86
3, 8896, Note_on_c, 3, 50, 0
3, 8900, Note_on_c, 3, 52, 100
3, 9016, Note_on_c, 3, 52, 0
3, 9020, Note_on_c, 3, 48, 84
3, 9136, Note_on_c, 3, 48, 0
3, 9140, Note_on_c, 3, 50, 98
3, 9256, Note_on_c, 3, 50, 0
3, 9260, Note_on_c, 3, 47, 86
3, 9376, Note_on_c, 3, 47, 0
3, 9380, Note_on_c, 3, 48, 100
3, 9496, Note_on_c, 3, 48, 0
3, 9500, Note_on_c, 3, 45, 83
3, 9616, Note_on_c, 3, 45, 0
3, 9620, Note_on_c, 3, 47, 101
3, 9736, Note_on_c, 3, 47, 0
3, 9740, Note_on_c, 3, 43, 82
3, 9856, Note_on_c, 3, 43, 0
3, 9860, Note_on_c, 3, 45, 96
3, 9976, Note_on_c, 3, 45, 0
3, 9980, Note_on_c, 3, 42, 89
3, 10096, Note_on_c, 3, 42, 0
3, 10100, Note_on_c, 3, 43, 96
3, 10216, Note_on_c, 3, 43, 0
3, 10220, Note_on_c, 3, 42, 88
3, 10336, Note_on_c, 3, 42, 0
3, 10340, Note_on_c, 3, 43, 92
3, 10456, Note_on_c, 3, 43, 0
3, 10460, Note_on_c, 3, 42, 86
3, 10576, Note_on_c, 3, 42, 0
3, 10580, Note_on_c, 3, 43, 101
3, 11176, Note_on_c, 3, 43, 0
3, 11180, Note_on_c, 3, 47, 101
3, 11296, Note_on_c, 3, 47, 0
3, 11300, Note_on_c, 3, 55, 100
3, 11416, Note_on_c, 3, 55, 0
3, 11420, Note_on_c, 3, 54, 101
3, 11536, Note_on_c, 3, 54, 0
3, 11540, Note_on_c, 3, 55, 106
3, 11656, Note_on_c, 3, 55, 0
3, 11660, Note_on_c, 3, 59, 91
3, 11776, Note_on_c, 3, 59, 0
3, 11780, Note_on_c, 3, 62, 93
3, 11896, Note_on_c, 3, 62, 0
3, 11900, Note_on_c, 3, 66, 92
3, 12016, Note_on_c, 3, 66, 0
3, 12020, Note_on_c, 3, 67, 106
3, 12376, Note_on_c, 3, 67, 0
3, 12380, Note_on_c, 3, 69, 93
3, 12496, Note_on_c, 3, 69, 0
3, 12500, Note_on_c, 3, 71, 95
3, 12616, Note_on_c, 3, 71, 0
3, 12620, Note_on_c, 3, 73, 92
3, 12736, Note_on_c, 3, 73, 0
3, 12740, Note_on_c, 3, 74, 96
3, 12856, Note_on_c, 3, 74, 0
3, 12860, Note_on_c, 3, 71, 97
3, 12976, Note_on_c, 3, 71, 0
3, 12980, Note_on_c, 3, 73, 99
3, 13096, Note_on_c, 3, 73, 0
3, 13100, Note_on_c, 3, 71, 97
3, 13216, Note_on_c, 3, 71, 0
3, 13220, Note_on_c, 3, 69, 78
3, 13336, Note_on_c, 3, 69, 0
3, 13340, Note_on_c, 3, 67, 85
3, 13456, Note_on_c, 3, 67, 0
3, 13460, Note_on_c, 3, 66, 94
3, 13576, Note_on_c, 3, 66, 0
3, 13580, Note_on_c, 3, 64, 97
3, 13696, Note_on_c, 3, 64, 0
3, 13700, Note_on_c, 3, 63, 108
3, 13816, Note_on_c, 3, 63, 0
3, 13820, Note_on_c, 3, 61, 97
3, 13936, Note_on_c, 3, 61, 0
3, 13940, Note_on_c, 3, 59, 85
3, 14056, Note_on_c, 3, 59, 0
3, 14060, Note_on_c, 3, 57, 90
3, 14176, Note_on_c, 3, 57, 0
3, 14180, Note_on_c, 3, 55, 82
3, 14296, Note_on_c, 3, 55, 0
3, 14300, Note_on_c, 3, 54, 97
3, 14416, Note_on_c, 3, 54, 0
3, 14420, Note_on_c, 3, 52, 92
3, 14536, Note_on_c, 3, 52, 0
3, 14540, Note_on_c, 3, 55, 69
3, 14656, Note_on_c, 3, 55, 0
3, 14660, Note_on_c, 3, 59, 92
3, 14776, Note_on_c, 3, 59, 0
3, 14780, Note_on_c, 3, 63, 93
3, 14896, Note_on_c, 3, 63, 0
3, 14900, Note_on_c, 3, 64, 102
3, 15256, Note_on_c, 3, 64, 0
3, 15260, Note_on_c, 3, 66, 94
3, 15376, Note_on_c, 3, 66, 0
3, 15380, Note_on_c, 3, 67, 93
3, 15496, Note_on_c, 3, 67, 0
3, 15500, Note_on_c, 3, 69, 89
3, 15616, Note_on_c, 3, 69, 0
3, 15620, Note_on_c, 3, 71, 97
3, 15736, Note_on_c, 3, 71, 0
3, 15740, Note_on_c, 3, 67, 93
3, 15856, Note_on_c, 3, 67, 0
3, 15860, Note_on_c, 3, 69, 96
3, 15980, Note_on_c, 3, 69, 0
3, 15980, Note_on_c, 3, 62, 77
3, 16096, Note_on_c, 3, 62, 0
3, 16100, Note_on_c, 3, 61, 84
3, 16216, Note_on_c, 3, 61, 0
3, 16220, Note_on_c, 3, 59, 85
3, 16336, Note_on_c, 3, 59, 0
3, 16340, Note_on_c, 3, 61, 96
3, 16456, Note_on_c, 3, 61, 0
3, 16460, Note_on_c, 3, 64, 91
3, 16576, Note_on_c, 3, 64, 0
3, 16580, Note_on_c, 3, 69, 75
3, 16696, Note_on_c, 3, 69, 0
3, 16700, Note_on_c, 3, 71, 95
3, 16816, Note_on_c, 3, 71, 0
3, 16820, Note_on_c, 3, 73, 93
3, 16936, Note_on_c, 3, 73, 0
3, 16940, Note_on_c, 3, 76, 113
3, 17056, Note_on_c, 3, 76, 0
3, 17060, Note_on_c, 3, 79, 85
3, 17176, Note_on_c, 3, 79, 0
3, 17180, Note_on_c, 3, 71, 77
3, 17296, Note_on_c, 3, 71, 0
3, 17300, Note_on_c, 3, 69, 89
3, 17416, Note_on_c, 3, 69, 0
3, 17420, Note_on_c, 3, 78, 88
3, 17536, Note_on_c, 3, 78, 0
3, 17540, Note_on_c, 3, 67, 86
3, 17656, Note_on_c, 3, 67, 0
3, 17660, Note_on_c, 3, 76, 95
3, 17776, Note_on_c, 3, 76, 0
3, 17780, Note_on_c, 3, 66, 88
3, 17896, Note_on_c, 3, 66, 0
3, 17900, Note_on_c, 3, 74, 97
3, 18016, Note_on_c, 3, 74, 0
3, 18020, Note_on_c, 3, 64, 91
3, 18136, Note_on_c, 3, 64, 0
3, 18140, Note_on_c, 3, 72, 92
3, 18256, Note_on_c, 3, 72, 0
3, 18260, Note_on_c, 3, 62, 88
3, 18376, Note_on_c, 3, 62, 0
3, 18380, Note_on_c, 3, 71, 93
3, 18496, Note_on_c, 3, 71, 0
3, 18500, Note_on_c, 3, 60, 76
3, 18616, Note_on_c, 3, 60, 0
3, 18620, Note_on_c, 3, 69, 85
3, 18736, Note_on_c, 3, 69, 0
3, 18740, Note_on_c, 3, 59, 86
3, 18856, Note_on_c, 3, 59, 0
3, 18860, Note_on_c, 3, 67, 91
3, 18976, Note_on_c, 3, 67, 0
3, 18980, Note_on_c, 3, 57, 72
3, 19096, Note_on_c, 3, 57, 0
3, 19100, Note_on_c, 3, 66, 93
3, 19216, Note_on_c, 3, 66, 0
3, 19220, Note_on_c, 3, 55, 70
3, 19336, Note_on_c, 3, 55, 0
3, 19340, Note_on_c, 3, 64, 96
3, 19456, Note_on_c, 3, 64, 0
3, 19460, Note_on_c, 3, 54, 94
3, 19576, Note_on_c, 3, 54, 0
3, 19580, Note_on_c, 3, 62, 101
3, 19696, Note_on_c, 3, 62, 0
3, 19700, Note_on_c, 3, 52, 96
3, 19816, Note_on_c, 3, 52, 0
3, 19820, Note_on_c, 3, 61, 108
3, 19936, Note_on_c, 3, 61, 0
3, 19940, Note_on_c, 3, 50, 85
3, 20056, Note_on_c, 3, 50, 0
3, 20060, Note_on_c, 3, 59, 98
3, 20176, Note_on_c, 3, 59, 0
3, 20180, Note_on_c, 3, 49, 89
3, 20296, Note_on_c, 3, 49, 0
3, 20300, Note_on_c, 3, 57, 100
3, 20416, Note_on_c, 3, 57, 0
3, 20420, Note_on_c, 3, 47, 82
3, 20536, Note_on_c, 3, 47, 0
3, 20540, Note_on_c, 3, 55, 83
3, 20656, Note_on_c, 3, 55, 0
3, 20660, Note_on_c, 3, 45, 81
3, 20776, Note_on_c, 3, 45, 0
3, 20780, Note_on_c, 3, 54, 102
3, 20896, Note_on_c, 3, 54, 0
3, 20900, Note_on_c, 3, 43, 74
3, 21016, Note_on_c, 3, 43, 0
3, 21020, Note_on_c, 3, 52, 96
3, 21136, Note_on_c, 3, 52, 0
3, 21140, Note_on_c, 3, 42, 81
3, 21256, Note_on_c, 3, 42, 0
3, 21260, Note_on_c, 3, 50, 93
3, 21376, Note_on_c, 3, 50, 0
3, 21380, Note_on_c, 3, 40, 59
3, 21496, Note_on_c, 3, 40, 0
3, 21500, Note_on_c, 3, 49, 90
3, 21616, Note_on_c, 3, 49, 0
3, 21620, Note_on_c, 3, 50, 115
3, 21736, Note_on_c, 3, 50, 0
3, 21740, Note_on_c, 3, 49, 101
3, 21856, Note_on_c, 3, 49, 0
3, 21860, Note_on_c, 3, 50, 100
3, 21976, Note_on_c, 3, 50, 0
3, 21980, Note_on_c, 3, 49, 85
3, 22096, Note_on_c, 3, 49, 0
3, 22100, Note_on_c, 3, 50, 101
3, 22216, Note_on_c, 3, 50, 0
3, 22220, Note_on_c, 3, 45, 83
3, 22336, Note_on_c, 3, 45, 0
3, 22340, Note_on_c, 3, 42, 84
3, 22456, Note_on_c, 3, 42, 0
3, 22460, Note_on_c, 3, 45, 98
3, 22576, Note_on_c, 3, 45, 0
3, 22580, Note_on_c, 3, 38, 111
3, 22820, Note_on_c, 3, 38, 0
3, 23060, Note_on_c, 3, 38, 85
3, 23176, Note_on_c, 3, 38, 0
3, 23180, Note_on_c, 3, 42, 90
3, 23296, Note_on_c, 3, 42, 0
3, 23300, Note_on_c, 3, 45, 90
3, 23416, Note_on_c, 3, 45, 0
3, 23420, Note_on_c, 3, 49, 90
3, 23536, Note_on_c, 3, 49, 0
3, 23540, Note_on_c, 3, 50, 83
3, 23896, Note_on_c, 3, 50, 0
3, 23900, Note_on_c, 3, 52, 101
3, 24016, Note_on_c, 3, 52, 0
3, 24020, Note_on_c, 3, 54, 93
3, 24136, Note_on_c, 3, 54, 0
3, 24140, Note_on_c, 3, 55, 92
3, 24256, Note_on_c, 3, 55, 0
3, 24260, Note_on_c, 3, 57, 90
3, 24376, Note_on_c, 3, 57, 0
3, 24380, Note_on_c, 3, 54, 89
3, 24496, Note_on_c, 3, 54, 0
3, 24500, Note_on_c, 3, 55, 95
3, 24616, Note_on_c, 3, 55, 0
3, 24620, Note_on_c, 3, 47, 85
3, 24736, Note_on_c, 3, 47, 0
3, 24740, Note_on_c, 3, 48, 97
3, 24856, Note_on_c, 3, 48, 0
3, 24860, Note_on_c, 3, 50, 92
3, 24976, Note_on_c, 3, 50, 0
3, 24980, Note_on_c, 3, 43, 109
3, 25336, Note_on_c, 3, 43, 0
3, 25340, Note_on_c, 3, 54, 108
3, 25456, Note_on_c, 3, 54, 0
3, 25460, Note_on_c, 3, 55, 85
3, 25576, Note_on_c, 3, 55, 0
3, 25580, Note_on_c, 3, 57, 96
3, 25696, Note_on_c, 3, 57, 0
3, 25700, Note_on_c, 3, 59, 93
3, 25816, Note_on_c, 3, 59, 0
3, 25820, Note_on_c, 3, 56, 97
3, 25936, Note_on_c, 3, 56, 0
3, 25940, Note_on_c, 3, 57, 92
3, 26056, Note_on_c, 3, 57, 0
3, 26060, Note_on_c, 3, 48, 85
3, 26176, Note_on_c, 3, 48, 0
3, 26180, Note_on_c, 3, 50, 85
3, 26296, Note_on_c, 3, 50, 0
3, 26300, Note_on_c, 3, 52, 96
3, 26416, Note_on_c, 3, 52, 0
3, 26420, Note_on_c, 3, 45, 101
3, 26776, Note_on_c, 3, 45, 0
3, 26780, Note_on_c, 3, 56, 101
3, 26896, Note_on_c, 3, 56, 0
3, 26900, Note_on_c, 3, 57, 96
3, 27016, Note_on_c, 3, 57, 0
3, 27020, Note_on_c, 3, 59, 100
3, 27136, Note_on_c, 3, 59, 0
3, 27140, Note_on_c, 3, 60, 106
3, 27256, Note_on_c, 3, 60, 0
3, 27260, Note_on_c, 3, 57, 96
3, 27376, Note_on_c, 3, 57, 0
3, 27380, Note_on_c, 3, 59, 95
3, 27496, Note_on_c, 3, 59, 0
3, 27500, Note_on_c, 3, 58, 108
3, 27616, Note_on_c, 3, 58, 0
3, 27620, Note_on_c, 3, 59, 102
3, 27736, Note_on_c, 3, 59, 0
3, 27740, Note_on_c, 3, 58, 101
3, 27856, Note_on_c, 3, 58, 0
3, 27860, Note_on_c, 3, 59, 101
3, 27976, Note_on_c, 3, 59, 0
3, 27980, Note_on_c, 3, 54, 97
3, 28096, Note_on_c, 3, 54, 0
3, 28100, Note_on_c, 3, 55, 93
3, 28216, Note_on_c, 3, 55, 0
3, 28220, Note_on_c, 3, 57, 93
3, 28336, Note_on_c, 3, 57, 0
3, 28340, Note_on_c, 3, 47, 111
3, 28576, Note_on_c, 3, 47, 0
3, 28580, Note_on_c, 3, 64, 92
3, 28640, Note_on_c, 3, 64, 0
3, 28640, Note_on_c, 3, 63, 90
3, 28700, Note_on_c, 3, 63, 0
3, 28700, Note_on_c, 3, 60, 92
3, 28760, Note_on_c, 3, 60, 0
3, 28760, Note_on_c, 3, 63, 92
3, 28820, Note_on_c, 3, 63, 0
3, 28820, Note_on_c, 3, 64, 115
3, 28936, Note_on_c, 3, 64, 0
3, 28940, Note_on_c, 3, 67, 72
3, 29056, Note_on_c, 3, 67, 0
3, 29060, Note_on_c, 3, 66, 108
3, 29176, Note_on_c, 3, 66, 0
3, 29180, Note_on_c, 3, 69, 96
3, 29296, Note_on_c, 3, 69, 0
3, 29300, Note_on_c, 3, 67, 106
3, 29416, Note_on_c, 3, 67, 0
3, 29420, Note_on_c, 3, 66, 101
3, 29536, Note_on_c, 3, 66, 0
3, 29540, Note_on_c, 3, 64, 96
3, 29656, Note_on_c, 3, 64, 0
3, 29660, Note_on_c, 3, 67, 91
3, 29776, Note_on_c, 3, 67, 0
3, 29780, Note_on_c, 3, 66, 96
3, 29896, Note_on_c, 3, 66, 0
3, 29900, Note_on_c, 3, 63, 90
3, 30016, Note_on_c, 3, 63, 0
3, 30020, Note_on_c, 3, 64, 95
3, 30136, Note_on_c, 3, 64, 0
3, 30140, Note_on_c, 3, 61, 89
3, 30256, Note_on_c, 3, 61, 0
3, 30260, Note_on_c, 3, 63, 112
3, 30376, Note_on_c, 3, 63, 0
3, 30380, Note_on_c, 3, 61, 104
3, 30496, Note_on_c, 3, 61, 0
3, 30500, Note_on_c, 3, 59, 88
3, 30616, Note_on_c, 3, 59, 0
3, 30620, Note_on_c, 3, 62, 106
3, 30736, Note_on_c, 3, 62, 0
3, 30740, Note_on_c, 3, 60, 100
3, 30856, Note_on_c, 3, 60, 0
3, 30860, Note_on_c, 3, 57, 90
3, 30976, Note_on_c, 3, 57, 0
3, 30980, Note_on_c, 3, 59, 61
3, 31096, Note_on_c, 3, 59, 0
3, 31100, Note_on_c, 3, 56, 89
3, 31216, Note_on_c, 3, 56, 0
3, 31220, Note_on_c, 3, 57, 96
3, 31336, Note_on_c, 3, 57, 0
3, 31340, Note_on_c, 3, 55, 70
3, 31456, Note_on_c, 3, 55, 0
3, 31460, Note_on_c, 3, 54, 93
3, 31576, Note_on_c, 3, 54, 0
3, 31580, Note_on_c, 3, 57, 60
3, 31696, Note_on_c, 3, 57, 0
3, 31700, Note_on_c, 3, 55, 88
3, 31816, Note_on_c, 3, 55, 0
3, 31820, Note_on_c, 3, 52, 96
3, 31936, Note_on_c, 3, 52, 0
3, 31940, Note_on_c, 3, 54, 106
3, 32056, Note_on_c, 3, 54, 0
3, 32060, Note_on_c, 3, 51, 96
3, 32176, Note_on_c, 3, 51, 0
3, 32180, Note_on_c, 3, 52, 101
3, 32296, Note_on_c, 3, 52, 0
3, 32300, Note_on_c, 3, 51, 75
3, 32416, Note_on_c, 3, 51, 0
3, 32420, Note_on_c, 3, 49, 97
3, 32536, Note_on_c, 3, 49, 0
3, 32540, Note_on_c, 3, 52, 97
3, 32656, Note_on_c, 3, 52, 0
3, 32660, Note_on_c, 3, 51, 93
3, 32776, Note_on_c, 3, 51, 0
3, 32780, Note_on_c, 3, 52, 102
3, 32896, Note_on_c, 3, 52, 0
3, 32900, Note_on_c, 3, 54, 104
3, 33016, Note_on_c, 3, 54, 0
3, 33020, Note_on_c, 3, 51, 88
3, 33136, Note_on_c, 3, 51, 0
3, 33140, Note_on_c, 3, 52, 84
3, 33256, Note_on_c, 3, 52, 0
3, 33260, Note_on_c, 3, 43, 90
3, 33376, Note_on_c, 3, 43, 0
3, 33380, Note_on_c, 3, 45, 98
3, 33496, Note_on_c, 3, 45, 0
3, 33500, Note_on_c, 3, 47, 97
3, 33616, Note_on_c, 3, 47, 0
3, 33620, Note_on_c, 3, 40, 84
3, 33736, Note_on_c, 3, 40, 0
3, 33740, Note_on_c, 3, 42, 72
3, 33856, Note_on_c, 3, 42, 0
3, 33860, Note_on_c, 3, 43, 89
3, 33976, Note_on_c, 3, 43, 0
3, 33980, Note_on_c, 3, 45, 98
3, 34096, Note_on_c, 3, 45, 0
3, 34100, Note_on_c, 3, 47, 102
3, 34216, Note_on_c, 3, 47, 0
3, 34220, Note_on_c, 3, 48, 102
3, 34336, Note_on_c, 3, 48, 0
3, 34340, Note_on_c, 3, 50, 101
3, 34456, Note_on_c, 3, 50, 0
3, 34460, Note_on_c, 3, 47, 98
3, 34576, Note_on_c, 3, 47, 0
3, 34580, Note_on_c, 3, 48, 98
3, 34696, Note_on_c, 3, 48, 0
3, 34700, Note_on_c, 3, 52, 88
3, 34816, Note_on_c, 3, 52, 0
3, 34820, Note_on_c, 3, 50, 89
3, 34936, Note_on_c, 3, 50, 0
3, 34940, Note_on_c, 3, 53, 92
3, 35056, Note_on_c, 3, 53, 0
3, 35060, Note_on_c, 3, 52, 92
3, 35176, Note_on_c, 3, 52, 0
3, 35180, Note_on_c, 3, 55, 86
3, 35296, Note_on_c, 3, 55, 0
3, 35300, Note_on_c, 3, 54, 92
3, 35416, Note_on_c, 3, 54, 0
3, 35420, Note_on_c, 3, 57, 93
3, 35536, Note_on_c, 3, 57, 0
3, 35540, Note_on_c, 3, 56, 84
3, 35656, Note_on_c, 3, 56, 0
3, 35660, Note_on_c, 3, 59, 93
3, 35776, Note_on_c, 3, 59, 0
3, 35780, Note_on_c, 3, 57, 91
3, 35896, Note_on_c, 3, 57, 0
3, 35900, Note_on_c, 3, 60, 97
3, 36016, Note_on_c, 3, 60, 0
3, 36020, Note_on_c, 3, 59, 81
3, 36136, Note_on_c, 3, 59, 0
3, 36140, Note_on_c, 3, 62, 91
3, 36256, Note_on_c, 3, 62, 0
3, 36260, Note_on_c, 3, 60, 88
3, 36376, Note_on_c, 3, 60, 0
3, 36380, Note_on_c, 3, 64, 95
3, 36496, Note_on_c, 3, 64, 0
3, 36500, Note_on_c, 3, 62, 88
3, 36616, Note_on_c, 3, 62, 0
3, 36620, Note_on_c, 3, 65, 93
3, 36736, Note_on_c, 3, 65, 0
3, 36740, Note_on_c, 3, 64, 82
3, 36856, Note_on_c, 3, 64, 0
3, 36860, Note_on_c, 3, 68, 85
3, 36976, Note_on_c, 3, 68, 0
3, 36980, Note_on_c, 3, 66, 89
3, 37096, Note_on_c, 3, 66, 0
3, 37100, Note_on_c, 3, 69, 89
3, 37216, Note_on_c, 3, 69, 0
3, 37220, Note_on_c, 3, 68, 84
3, 37336, Note_on_c, 3, 68, 0
3, 37340, Note_on_c, 3, 71, 88
3, 37456, Note_on_c, 3, 71, 0
3, 37460, Note_on_c, 3, 69, 96
3, 37576, Note_on_c, 3, 69, 0
3, 37580, Note_on_c, 3, 72, 98
3, 37696, Note_on_c, 3, 72, 0
3, 37700, Note_on_c, 3, 71, 86
3, 37816, Note_on_c, 3, 71, 0
3, 37820, Note_on_c, 3, 74, 93
3, 37936, Note_on_c, 3, 74, 0
3, 37940, Note_on_c, 3, 72, 70
3, 38056, Note_on_c, 3, 72, 0
3, 38060, Note_on_c, 3, 69, 66
3, 38176, Note_on_c, 3, 69, 0
3, 38180, Note_on_c, 3, 71, 62
3, 38296, Note_on_c, 3, 71, 0
3, 38300, Note_on_c, 3, 67, 58
3, 38416, Note_on_c, 3, 67, 0
3, 38420, Note_on_c, 3, 69, 70
3, 38536, Note_on_c, 3, 69, 0
3, 38540, Note_on_c, 3, 66, 70
3, 38656, Note_on_c, 3, 66, 0
3, 38660, Note_on_c, 3, 67, 70
3, 38776, Note_on_c, 3, 67, 0
3, 38780, Note_on_c, 3, 64, 70
3, 38896, Note_on_c, 3, 64, 0
3, 38900, Note_on_c, 3, 65, 61
3, 39016, Note_on_c, 3, 65, 0
3, 39020, Note_on_c, 3, 62, 95
3, 39136, Note_on_c, 3, 62, 0
3, 39140, Note_on_c, 3, 64, 111
3, 39256, Note_on_c, 3, 64, 0
3, 39260, Note_on_c, 3, 61, 99
3, 39376, Note_on_c, 3, 61, 0
3, 39380, Note_on_c, 3, 62, 86
3, 39496, Note_on_c, 3, 62, 0
3, 39500, Note_on_c, 3, 71, 97
3, 39616, Note_on_c, 3, 71, 0
3, 39620, Note_on_c, 3, 60, 83
3, 39736, Note_on_c, 3, 60, 0
3, 39740, Note_on_c, 3, 69, 100
3, 39856, Note_on_c, 3, 69, 0
3, 39860, Note_on_c, 3, 59, 85
3, 39976, Note_on_c, 3, 59, 0
3, 39980, Note_on_c, 3, 67, 95
3, 40096, Note_on_c, 3, 67, 0
3, 40100, Note_on_c, 3, 57, 86
3, 40216, Note_on_c, 3, 57, 0
3, 40220, Note_on_c, 3, 66, 93
3, 40336, Note_on_c, 3, 66, 0
3, 40340, Note_on_c, 3, 59, 86
3, 40580, Note_on_c, 3, 59, 0
3, 40640, Note_on_c, 3, 62, 96
3, 40700, Note_on_c, 3, 62, 0
3, 40700, Note_on_c, 3, 64, 90
3, 40760, Note_on_c, 3, 64, 0
3, 40760, Note_on_c, 3, 66, 91
3, 40820, Note_on_c, 3, 66, 0
3, 40820, Note_on_c, 3, 67, 106
3, 40936, Note_on_c, 3, 67, 0
3, 40940, Note_on_c, 3, 64, 98
3, 41056, Note_on_c, 3, 64, 0
3, 41060, Note_on_c, 3, 65, 98
3, 41176, Note_on_c, 3, 65, 0
3, 41180, Note_on_c, 3, 62, 95
3, 41296, Note_on_c, 3, 62, 0
3, 41300, Note_on_c, 3, 64, 101
3, 41416, Note_on_c, 3, 64, 0
3, 41420, Note_on_c, 3, 60, 92
3, 41536, Note_on_c, 3, 60, 0
3, 41540, Note_on_c, 3, 62, 96
3, 41656, Note_on_c, 3, 62, 0
3, 41660, Note_on_c, 3, 59, 95
3, 41776, Note_on_c, 3, 59, 0
3, 41780, Note_on_c, 3, 55, 98
3, 41896, Note_on_c, 3, 55, 0
3, 41900, Note_on_c, 3, 52, 97
3, 42016, Note_on_c, 3, 52, 0
3, 42020, Note_on_c, 3, 53, 104
3, 42136, Note_on_c, 3, 53, 0
3, 42140, Note_on_c, 3, 50, 92
3, 42256, Note_on_c, 3, 50, 0
3, 42260, Note_on_c, 3, 52, 98
3, 42376, Note_on_c, 3, 52, 0
3, 42380, Note_on_c, 3, 60, 102
3, 42496, Note_on_c, 3, 60, 0
3, 42500, Note_on_c, 3, 50, 93
3, 42616, Note_on_c, 3, 50, 0
3, 42620, Note_on_c, 3, 59, 102
3, 42736, Note_on_c, 3, 59, 0
3, 42740, Note_on_c, 3, 48, 88
3, 42856, Note_on_c, 3, 48, 0
3, 42860, Note_on_c, 3, 57, 100
3, 42976, Note_on_c, 3, 57, 0
3, 42980, Note_on_c, 3, 47, 86
3, 43096, Note_on_c, 3, 47, 0
3, 43100, Note_on_c, 3, 55, 92
3, 43216, Note_on_c, 3, 55, 0
3, 43220, Note_on_c, 3, 45, 83
3, 43336, Note_on_c, 3, 45, 0
3, 43340, Note_on_c, 3, 55, 92
3, 43456, Note_on_c, 3, 55, 0
3, 43460, Note_on_c, 3, 54, 90
3, 43576, Note_on_c, 3, 54, 0
3, 43580, Note_on_c, 3, 48, 96
3, 43696, Note_on_c, 3, 48, 0
3, 43700, Note_on_c, 3, 47, 106
3, 43816, Note_on_c, 3, 47, 0
3, 43820, Note_on_c, 3, 50, 86
3, 43936, Note_on_c, 3, 50, 0
3, 43940, Note_on_c, 3, 55, 100
3, 44056, Note_on_c, 3, 55, 0
3, 44060, Note_on_c, 3, 59, 100
3, 44176, Note_on_c, 3, 59, 0
3, 44180, Note_on_c, 3, 62, 101
3, 44296, Note_on_c, 3, 62, 0
3, 44300, Note_on_c, 3, 59, 96
3, 44416, Note_on_c, 3, 59, 0
3, 44420, Note_on_c, 3, 60, 100
3, 44536, Note_on_c, 3, 60, 0
3, 44540, Note_on_c, 3, 57, 93
3, 44656, Note_on_c, 3, 57, 0
3, 44660, Note_on_c, 3, 59, 96
3, 44776, Note_on_c, 3, 59, 0
3, 44780, Note_on_c, 3, 57, 91
3, 44896, Note_on_c, 3, 57, 0
3, 44900, Note_on_c, 3, 59, 100
3, 45016, Note_on_c, 3, 59, 0
3, 45020, Note_on_c, 3, 57, 91
3, 45136, Note_on_c, 3, 57, 0
3, 45140, Note_on_c, 3, 59, 97
3, 45256, Note_on_c, 3, 59, 0
3, 45260, Note_on_c, 3, 54, 90
3, 45376, Note_on_c, 3, 54, 0
3, 45380, Note_on_c, 3, 50, 73
3, 45496, Note_on_c, 3, 50, 0
3, 45500, Note_on_c, 3, 47, 96
3, 45616, Note_on_c, 3, 47, 0
3, 45620, Note_on_c, 3, 43, 95
3, 45860, Note_on_c, 3, 43, 0
3, 46080, End_track
0, 0, End_of_file
