0, 0, Header, 1, 4, 480
1, 0, Start_track
1, 0, SMPTE_offset, 96, 0, 0, 0, 0
1, 0, Time_signature, 3, 2, 24, 8
1, 20, Tempo, 750000
1, 136800, End_track
2, 0, Start_track
2, 0, Title_t, "goldberg.mid"
2, 20, Note_on_c, 0, 71, 86
2, 136, Note_on_c, 0, 71, 0
2, 140, Note_on_c, 0, 72, 100
2, 256, Note_on_c, 0, 72, 0
2, 260, Note_on_c, 0, 71, 88
2, 376, Note_on_c, 0, 71, 0
2, 380, Note_on_c, 0, 69, 80
2, 496, Note_on_c, 0, 69, 0
2, 500, Note_on_c, 0, 71, 95
2, 1096, Note_on_c, 0, 71, 0
2, 1100, Note_on_c, 0, 66, 82
2, 1216, Note_on_c, 0, 66, 0
2, 1220, Note_on_c, 0, 67, 81
2, 1336, Note_on_c, 0, 67, 0
2, 1340, Note_on_c, 0, 69, 86
2, 1456, Note_on_c, 0, 69, 0
2, 1460, Note_on_c, 0, 71, 93
2, 1696, Note_on_c, 0, 71, 0
2, 1700, Note_on_c, 0, 72, 91
2, 1936, Note_on_c, 0, 72, 0
2, 1940, Note_on_c, 0, 74, 90
2, 2056, Note_on_c, 0, 74, 0
2, 2060, Note_on_c, 0, 72, 85
2, 2176, Note_on_c, 0, 72, 0
2, 2180, Note_on_c, 0, 71, 88
2, 2416, Note_on_c, 0, 71, 0
2, 2420, Note_on_c, 0, 69, 88
2, 2656, Note_on_c, 0, 69, 0
2, 2660, Note_on_c, 0, 67, 88
2, 2896, Note_on_c, 0, 67, 0
2, 2900, Note_on_c, 0, 74, 97
2, 3016, Note_on_c, 0, 74, 0
2, 3020, Note_on_c, 0, 76, 93
2, 3136, Note_on_c, 0, 76, 0
2, 3140, Note_on_c, 0, 74, 91
2, 3256, Note_on_c, 0, 74, 0
2, 3260, Note_on_c, 0, 73, 89
2, 3376, Note_on_c, 0, 73, 0
2, 3380, Note_on_c, 0, 74, 96
2, 3976, Note_on_c, 0, 74, 0
2, 3980, Note_on_c, 0, 73, 92
2, 4096, Note_on_c, 0, 73, 0
2, 4100, Note_on_c, 0, 74, 90
2, 4216, Note_on_c, 0, 74, 0
2, 4220, Note_on_c, 0, 76, 86
2, 4336, Note_on_c, 0, 76, 0
2, 4340, Note_on_c, 0, 78, 85
2, 4576, Note_on_c, 0, 78, 0
2, 4580, Note_on_c, 0, 79, 98
2, 4816, Note_on_c, 0, 79, 0
2, 4820, Note_on_c, 0, 81, 78
2, 4936, Note_on_c, 0, 81, 0
2, 4940, Note_on_c, 0, 79, 75
2, 5056, Note_on_c, 0, 79, 0
2, 5060, Note_on_c, 0, 78, 82
2, 5296, Note_on_c, 0, 78, 0
2, 5300, Note_on_c, 0, 76, 86
2, 5536, Note_on_c, 0, 76, 0
2, 5540, Note_on_c, 0, 74, 89
2, 5776, Note_on_c, 0, 74, 0
2, 5780, Note_on_c, 0, 79, 97
2, 5896, Note_on_c, 0, 79, 0
2, 5900, Note_on_c, 0, 81, 96
2, 6016, Note_on_c, 0, 81, 0
2, 6020, Note_on_c, 0, 79, 93
2, 6136, Note_on_c, 0, 79, 0
2, 6140, Note_on_c, 0, 78, 93
2, 6256, Note_on_c, 0, 78, 0
2, 6260, Note_on_c, 0, 79, 102
2, 6856, Note_on_c, 0, 79, 0
2, 6860, Note_on_c, 0, 78, 97
2, 6976, Note_on_c, 0, 78, 0
2, 6980, Note_on_c, 0, 76, 89
2, 7096, Note_on_c, 0, 76, 0
2, 7100, Note_on_c, 0, 78, 89
2, 7216, Note_on_c, 0, 78, 0
2, 7220, Note_on_c, 0, 79, 92
2, 7456, Note_on_c, 0, 79, 0
2, 7460, Note_on_c, 0, 76, 89
2, 7696, Note_on_c, 0, 76, 0
2, 7700, Note_on_c, 0, 69, 85
2, 7936, Note_on_c, 0, 69, 0
2, 7940, Note_on_c, 0, 83, 100
2, 8176, Note_on_c, 0, 83, 0
2, 8180, Note_on_c, 0, 81, 90
2, 8416, Note_on_c, 0, 81, 0
2, 8420, Note_on_c, 0, 79, 89
2, 8656, Note_on_c, 0, 79, 0
2, 8660, Note_on_c, 0, 79, 89
2, 8720, Note_on_c, 0, 79, 0
2, 8720, Note_on_c, 0, 78, 79
2, 8780, Note_on_c, 0, 78, 0
2, 8780, Note_on_c, 0, 76, 86
2, 8896, Note_on_c, 0, 76, 0
2, 8900, Note_on_c, 0, 78, 94
2, 9016, Note_on_c, 0, 78, 0
2, 9020, Note_on_c, 0, 76, 80
2, 9136, Note_on_c, 0, 76, 0
2, 9140, Note_on_c, 0, 74, 86
2, 9736, Note_on_c, 0, 74, 0
2, 9740, Note_on_c, 0, 73, 96
2, 9856, Note_on_c, 0, 73, 0
2, 9860, Note_on_c, 0, 74, 85
2, 9976, Note_on_c, 0, 74, 0
2, 9980, Note_on_c, 0, 76, 95
2, 10096, Note_on_c, 0, 76, 0
2, 10100, Note_on_c, 0, 78, 89
2, 10336, Note_on_c, 0, 78, 0
2, 10340, Note_on_c, 0, 79, 88
2, 10576, Note_on_c, 0, 79, 0
2, 10580, Note_on_c, 0, 81, 92
2, 10816, Note_on_c, 0, 81, 0
2, 10820, Note_on_c, 0, 83, 84
2, 10936, Note_on_c, 0, 83, 0
2, 10940, Note_on_c, 0, 84, 80
2, 11056, Note_on_c, 0, 84, 0
2, 11060, Note_on_c, 0, 83, 95
2, 11296, Note_on_c, 0, 83, 0
2, 11300, Note_on_c, 0, 81, 93
2, 11536, Note_on_c, 0, 81, 0
2, 11540, Note_on_c, 0, 79, 82
2, 11656, Note_on_c, 0, 79, 0
2, 11660, Note_on_c, 0, 77, 91
2, 11776, Note_on_c, 0, 77, 0
2, 11780, Note_on_c, 0, 76, 88
2, 12020, Note_on_c, 0, 76, 0
2, 12020, Note_on_c, 0, 77, 89
2, 12080, Note_on_c, 0, 77, 0
2, 12080, Note_on_c, 0, 76, 89
2, 12140, Note_on_c, 0, 76, 0
2, 12140, Note_on_c, 0, 77, 89
2, 12500, Note_on_c, 0, 77, 0
2, 12620, Note_on_c, 0, 74, 78
2, 12736, Note_on_c, 0, 74, 0
2, 12740, Note_on_c, 0, 79, 86
2, 12856, Note_on_c, 0, 79, 0
2, 12860, Note_on_c, 0, 81, 83
2, 12976, Note_on_c, 0, 81, 0
2, 12980, Note_on_c, 0, 83, 86
2, 13096, Note_on_c, 0, 83, 0
2, 13100, Note_on_c, 0, 84, 88
2, 13216, Note_on_c, 0, 84, 0
2, 13220, Note_on_c, 0, 86, 66
2, 13456, Note_on_c, 0, 86, 0
2, 13460, Note_on_c, 0, 84, 92
2, 13696, Note_on_c, 0, 84, 0
2, 13700, Note_on_c, 0, 83, 86
2, 13936, Note_on_c, 0, 83, 0
2, 13940, Note_on_c, 0, 81, 90
2, 14176, Note_on_c, 0, 81, 0
2, 14180, Note_on_c, 0, 79, 83
2, 14416, Note_on_c, 0, 79, 0
2, 14420, Note_on_c, 0, 77, 85
2, 14536, Note_on_c, 0, 77, 0
2, 14540, Note_on_c, 0, 76, 76
2, 14656, Note_on_c, 0, 76, 0
2, 14660, Note_on_c, 0, 74, 75
2, 14896, Note_on_c, 0, 74, 0
2, 14900, Note_on_c, 0, 76, 100
2, 15496, Note_on_c, 0, 76, 0
2, 15500, Note_on_c, 0, 74, 90
2, 15616, Note_on_c, 0, 74, 0
2, 15620, Note_on_c, 0, 72, 77
2, 15736, Note_on_c, 0, 72, 0
2, 15740, Note_on_c, 0, 71, 84
2, 15856, Note_on_c, 0, 71, 0
2, 15860, Note_on_c, 0, 72, 88
2, 15976, Note_on_c, 0, 72, 0
2, 15980, Note_on_c, 0, 74, 76
2, 16096, Note_on_c, 0, 74, 0
2, 16100, Note_on_c, 0, 76, 92
2, 16336, Note_on_c, 0, 76, 0
2, 16340, Note_on_c, 0, 74, 86
2, 16576, Note_on_c, 0, 74, 0
2, 16580, Note_on_c, 0, 79, 93
2, 16816, Note_on_c, 0, 79, 0
2, 16820, Note_on_c, 0, 76, 89
2, 17056, Note_on_c, 0, 76, 0
2, 17060, Note_on_c, 0, 72, 92
2, 17296, Note_on_c, 0, 72, 0
2, 17300, Note_on_c, 0, 71, 83
2, 17416, Note_on_c, 0, 71, 0
2, 17420, Note_on_c, 0, 69, 72
2, 17536, Note_on_c, 0, 69, 0
2, 17540, Note_on_c, 0, 67, 66
2, 17776, Note_on_c, 0, 67, 0
2, 17780, Note_on_c, 0, 69, 66
2, 18376, Note_on_c, 0, 69, 0
2, 18380, Note_on_c, 0, 67, 86
2, 18496, Note_on_c, 0, 67, 0
2, 18500, Note_on_c, 0, 69, 78
2, 18616, Note_on_c, 0, 69, 0
2, 18620, Note_on_c, 0, 71, 80
2, 18736, Note_on_c, 0, 71, 0
2, 18740, Note_on_c, 0, 72, 96
2, 18856, Note_on_c, 0, 72, 0
2, 18860, Note_on_c, 0, 66, 79
2, 18976, Note_on_c, 0, 66, 0
2, 18980, Note_on_c, 0, 67, 85
2, 19096, Note_on_c, 0, 67, 0
2, 19100, Note_on_c, 0, 69, 69
2, 19216, Note_on_c, 0, 69, 0
2, 19220, Note_on_c, 0, 62, 73
2, 19336, Note_on_c, 0, 62, 0
2, 19340, Note_on_c, 0, 66, 80
2, 19456, Note_on_c, 0, 66, 0
2, 19460, Note_on_c, 0, 64, 81
2, 19576, Note_on_c, 0, 64, 0
2, 19580, Note_on_c, 0, 62, 78
2, 19696, Note_on_c, 0, 62, 0
2, 19700, Note_on_c, 0, 69, 85
2, 19816, Note_on_c, 0, 69, 0
2, 19820, Note_on_c, 0, 67, 83
2, 19936, Note_on_c, 0, 67, 0
2, 19940, Note_on_c, 0, 66, 75
2, 20056, Note_on_c, 0, 66, 0
2, 20060, Note_on_c, 0, 72, 93
2, 20176, Note_on_c, 0, 72, 0
2, 20180, Note_on_c, 0, 72, 102
2, 20296, Note_on_c, 0, 72, 0
2, 20300, Note_on_c, 0, 71, 88
2, 20416, Note_on_c, 0, 71, 0
2, 20420, Note_on_c, 0, 69, 83
2, 20656, Note_on_c, 0, 69, 0
2, 20660, Note_on_c, 0, 71, 83
2, 21256, Note_on_c, 0, 71, 0
2, 21260, Note_on_c, 0, 69, 78
2, 21376, Note_on_c, 0, 69, 0
2, 21380, Note_on_c, 0, 67, 64
2, 21496, Note_on_c, 0, 67, 0
2, 21500, Note_on_c, 0, 66, 92
2, 21616, Note_on_c, 0, 66, 0
2, 21620, Note_on_c, 0, 67, 82
2, 21736, Note_on_c, 0, 67, 0
2, 21740, Note_on_c, 0, 71, 92
2, 21856, Note_on_c, 0, 71, 0
2, 21860, Note_on_c, 0, 74, 92
2, 21976, Note_on_c, 0, 74, 0
2, 21980, Note_on_c, 0, 78, 79
2, 22096, Note_on_c, 0, 78, 0
2, 22100, Note_on_c, 0, 79, 89
2, 22216, Note_on_c, 0, 79, 0
2, 22220, Note_on_c, 0, 78, 84
2, 22336, Note_on_c, 0, 78, 0
2, 22340, Note_on_c, 0, 76, 83
2, 22456, Note_on_c, 0, 76, 0
2, 22460, Note_on_c, 0, 74, 90
2, 22576, Note_on_c, 0, 74, 0
2, 22580, Note_on_c, 0, 78, 85
2, 22696, Note_on_c, 0, 78, 0
2, 22700, Note_on_c, 0, 81, 86
2, 22816, Note_on_c, 0, 81, 0
2, 22820, Note_on_c, 0, 83, 86
2, 22936, Note_on_c, 0, 83, 0
2, 22940, Note_on_c, 0, 84, 88
2, 23056, Note_on_c, 0, 84, 0
2, 23060, Note_on_c, 0, 83, 88
2, 23176, Note_on_c, 0, 83, 0
2, 23180, Note_on_c, 0, 81, 82
2, 23296, Note_on_c, 0, 81, 0
2, 23300, Note_on_c, 0, 79, 81
2, 23656, Note_on_c, 0, 79, 0
2, 23660, Note_on_c, 0, 78, 88
2, 23776, Note_on_c, 0, 78, 0
2, 23780, Note_on_c, 0, 76, 97
2, 24136, Note_on_c, 0, 76, 0
2, 24140, Note_on_c, 0, 75, 84
2, 24256, Note_on_c, 0, 75, 0
2, 24260, Note_on_c, 0, 76, 95
2, 24616, Note_on_c, 0, 76, 0
2, 24620, Note_on_c, 0, 78, 79
2, 24736, Note_on_c, 0, 78, 0
2, 24740, Note_on_c, 0, 79, 89
2, 25096, Note_on_c, 0, 79, 0
2, 25100, Note_on_c, 0, 81, 89
2, 25216, Note_on_c, 0, 81, 0
2, 25220, Note_on_c, 0, 83, 100
2, 25576, Note_on_c, 0, 83, 0
2, 25580, Note_on_c, 0, 79, 92
2, 25696, Note_on_c, 0, 79, 0
2, 25700, Note_on_c, 0, 78, 86
2, 25816, Note_on_c, 0, 78, 0
2, 25820, Note_on_c, 0, 76, 89
2, 25936, Note_on_c, 0, 76, 0
2, 25940, Note_on_c, 0, 81, 91
2, 26056, Note_on_c, 0, 81, 0
2, 26060, Note_on_c, 0, 79, 92
2, 26176, Note_on_c, 0, 79, 0
2, 26180, Note_on_c, 0, 78, 86
2, 26536, Note_on_c, 0, 78, 0
2, 26540, Note_on_c, 0, 76, 82
2, 26656, Note_on_c, 0, 76, 0
2, 26660, Note_on_c, 0, 74, 83
2, 27016, Note_on_c, 0, 74, 0
2, 27020, Note_on_c, 0, 73, 77
2, 27136, Note_on_c, 0, 73, 0
2, 27140, Note_on_c, 0, 74, 92
2, 27496, Note_on_c, 0, 74, 0
2, 27500, Note_on_c, 0, 76, 90
2, 27616, Note_on_c, 0, 76, 0
2, 27620, Note_on_c, 0, 78, 86
2, 27976, Note_on_c, 0, 78, 0
2, 27980, Note_on_c, 0, 79, 90
2, 28096, Note_on_c, 0, 79, 0
2, 28100, Note_on_c, 0, 81, 101
2, 28456, Note_on_c, 0, 81, 0
2, 28460, Note_on_c, 0, 78, 89
2, 28576, Note_on_c, 0, 78, 0
2, 28580, Note_on_c, 0, 76, 81
2, 28696, Note_on_c, 0, 76, 0
2, 28700, Note_on_c, 0, 74, 81
2, 28816, Note_on_c, 0, 74, 0
2, 28820, Note_on_c, 0, 79, 85
2, 28936, Note_on_c, 0, 79, 0
2, 28940, Note_on_c, 0, 81, 82
2, 29056, Note_on_c, 0, 81, 0
2, 29060, Note_on_c, 0, 83, 91
2, 29176, Note_on_c, 0, 83, 0
2, 29180, Note_on_c, 0, 81, 76
2, 29296, Note_on_c, 0, 81, 0
2, 29300, Note_on_c, 0, 79, 84
2, 29416, Note_on_c, 0, 79, 0
2, 29540, Note_on_c, 0, 78, 79
2, 29656, Note_on_c, 0, 78, 0
2, 29780, Note_on_c, 0, 76, 76
2, 29896, Note_on_c, 0, 76, 0
2, 29900, Note_on_c, 0, 78, 73
2, 30016, Note_on_c, 0, 78, 0
2, 30020, Note_on_c, 0, 79, 76
2, 30136, Note_on_c, 0, 79, 0
2, 30140, Note_on_c, 0, 78, 68
2, 30256, Note_on_c, 0, 78, 0
2, 30260, Note_on_c, 0, 76, 66
2, 30376, Note_on_c, 0, 76, 0
2, 30500, Note_on_c, 0, 74, 66
2, 30616, Note_on_c, 0, 74, 0
2, 30740, Note_on_c, 0, 73, 67
2, 30856, Note_on_c, 0, 73, 0
2, 30860, Note_on_c, 0, 74, 70
2, 30976, Note_on_c, 0, 74, 0
2, 30980, Note_on_c, 0, 76, 69
2, 31096, Note_on_c, 0, 76, 0
2, 31100, Note_on_c, 0, 74, 69
2, 31216, Note_on_c, 0, 74, 0
2, 31220, Note_on_c, 0, 73, 71
2, 31336, Note_on_c, 0, 73, 0
2, 31460, Note_on_c, 0, 71, 76
2, 31576, Note_on_c, 0, 71, 0
2, 31700, Note_on_c, 0, 71, 89
2, 31820, Note_on_c, 0, 71, 0
2, 31820, Note_on_c, 0, 69, 66
2, 31880, Note_on_c, 0, 69, 0
2, 31880, Note_on_c, 0, 71, 66
2, 31940, Note_on_c, 0, 71, 0
2, 31940, Note_on_c, 0, 69, 76
2, 32900, Note_on_c, 0, 69, 0
2, 33260, Note_on_c, 0, 73, 80
2, 33376, Note_on_c, 0, 73, 0
2, 33380, Note_on_c, 0, 71, 75
2, 33496, Note_on_c, 0, 71, 0
2, 33500, Note_on_c, 0, 69, 74
2, 33616, Note_on_c, 0, 69, 0
2, 33620, Note_on_c, 0, 71, 78
2, 33736, Note_on_c, 0, 71, 0
2, 33740, Note_on_c, 0, 73, 69
2, 33856, Note_on_c, 0, 73, 0
2, 33860, Note_on_c, 0, 74, 62
2, 33976, Note_on_c, 0, 74, 0
2, 33980, Note_on_c, 0, 76, 82
2, 34096, Note_on_c, 0, 76, 0
2, 34100, Note_on_c, 0, 78, 75
2, 34216, Note_on_c, 0, 78, 0
2, 34220, Note_on_c, 0, 79, 78
2, 34336, Note_on_c, 0, 79, 0
2, 34340, Note_on_c, 0, 81, 92
2, 34400, Note_on_c, 0, 81, 0
2, 34400, Note_on_c, 0, 79, 80
2, 34460, Note_on_c, 0, 79, 0
2, 34460, Note_on_c, 0, 78, 76
2, 34520, Note_on_c, 0, 78, 0
2, 34520, Note_on_c, 0, 79, 78
2, 34580, Note_on_c, 0, 79, 0
2, 34580, Note_on_c, 0, 81, 97
2, 34696, Note_on_c, 0, 81, 0
2, 34700, Note_on_c, 0, 74, 71
2, 34816, Note_on_c, 0, 74, 0
2, 34820, Note_on_c, 0, 73, 53
2, 34936, Note_on_c, 0, 73, 0
2, 34940, Note_on_c, 0, 74, 65
2, 35056, Note_on_c, 0, 74, 0
2, 35060, Note_on_c, 0, 76, 83
2, 35176, Note_on_c, 0, 76, 0
2, 35180, Note_on_c, 0, 74, 73
2, 35296, Note_on_c, 0, 74, 0
2, 35300, Note_on_c, 0, 73, 86
2, 35416, Note_on_c, 0, 73, 0
2, 35420, Note_on_c, 0, 74, 86
2, 35536, Note_on_c, 0, 74, 0
2, 35536, Note_on_c, 0, 69, 82
2, 35652, Note_on_c, 0, 74, 78
2, 35664, Note_on_c, 0, 69, 0
2, 35764, Note_on_c, 0, 74, 0
2, 35768, Note_on_c, 0, 67, 82
2, 35880, Note_on_c, 0, 74, 85
2, 35892, Note_on_c, 0, 67, 0
2, 36000, Note_on_c, 0, 66, 84
2, 36012, Note_on_c, 0, 74, 0
2, 36128, Note_on_c, 0, 74, 90
2, 36136, Note_on_c, 0, 66, 0
2, 36240, Note_on_c, 0, 74, 0
2, 36248, Note_on_c, 0, 64, 83
2, 36364, Note_on_c, 0, 74, 89
2, 36380, Note_on_c, 0, 64, 0
2, 36484, Note_on_c, 0, 66, 85
2, 36488, Note_on_c, 0, 74, 0
2, 36608, Note_on_c, 0, 74, 88
2, 36612, Note_on_c, 0, 66, 0
2, 36724, Note_on_c, 0, 69, 86
2, 36736, Note_on_c, 0, 74, 0
2, 36844, Note_on_c, 0, 74, 93
2, 36852, Note_on_c, 0, 69, 0
2, 36972, Note_on_c, 0, 66, 89
2, 36976, Note_on_c, 0, 74, 0
2, 37092, Note_on_c, 0, 74, 92
2, 37112, Note_on_c, 0, 66, 0
2, 37208, Note_on_c, 0, 74, 0
2, 37212, Note_on_c, 0, 62, 84
2, 37332, Note_on_c, 0, 72, 93
2, 37344, Note_on_c, 0, 62, 0
2, 37460, Note_on_c, 0, 71, 95
2, 37468, Note_on_c, 0, 72, 0
2, 37576, Note_on_c, 0, 71, 0
2, 37580, Note_on_c, 0, 74, 90
2, 37696, Note_on_c, 0, 74, 0
2, 37700, Note_on_c, 0, 73, 82
2, 37816, Note_on_c, 0, 73, 0
2, 37820, Note_on_c, 0, 74, 88
2, 37936, Note_on_c, 0, 74, 0
2, 37940, Note_on_c, 0, 76, 86
2, 38056, Note_on_c, 0, 76, 0
2, 38060, Note_on_c, 0, 74, 74
2, 38176, Note_on_c, 0, 74, 0
2, 38180, Note_on_c, 0, 73, 75
2, 38296, Note_on_c, 0, 73, 0
2, 38300, Note_on_c, 0, 74, 78
2, 38416, Note_on_c, 0, 74, 0
2, 38420, Note_on_c, 0, 71, 85
2, 38536, Note_on_c, 0, 71, 0
2, 38540, Note_on_c, 0, 74, 82
2, 38656, Note_on_c, 0, 74, 0
2, 38660, Note_on_c, 0, 69, 64
2, 38776, Note_on_c, 0, 69, 0
2, 38780, Note_on_c, 0, 74, 80
2, 38896, Note_on_c, 0, 74, 0
2, 38900, Note_on_c, 0, 67, 71
2, 39016, Note_on_c, 0, 67, 0
2, 39020, Note_on_c, 0, 74, 76
2, 39136, Note_on_c, 0, 74, 0
2, 39140, Note_on_c, 0, 66, 84
2, 39256, Note_on_c, 0, 66, 0
2, 39260, Note_on_c, 0, 74, 80
2, 39376, Note_on_c, 0, 74, 0
2, 39380, Note_on_c, 0, 67, 78
2, 39496, Note_on_c, 0, 67, 0
2, 39500, Note_on_c, 0, 74, 72
2, 39616, Note_on_c, 0, 74, 0
2, 39620, Note_on_c, 0, 71, 80
2, 39736, Note_on_c, 0, 71, 0
2, 39740, Note_on_c, 0, 74, 78
2, 39856, Note_on_c, 0, 74, 0
2, 39860, Note_on_c, 0, 67, 72
2, 39976, Note_on_c, 0, 67, 0
2, 39980, Note_on_c, 0, 74, 82
2, 40096, Note_on_c, 0, 74, 0
2, 40100, Note_on_c, 0, 64, 62
2, 40216, Note_on_c, 0, 64, 0
2, 40220, Note_on_c, 0, 74, 68
2, 40336, Note_on_c, 0, 74, 0
2, 40340, Note_on_c, 0, 73, 84
2, 40400, Note_on_c, 0, 73, 0
2, 40460, Note_on_c, 0, 67, 85
2, 40576, Note_on_c, 0, 67, 0
2, 40580, Note_on_c, 0, 66, 83
2, 40696, Note_on_c, 0, 66, 0
2, 40700, Note_on_c, 0, 67, 82
2, 40816, Note_on_c, 0, 67, 0
2, 40820, Note_on_c, 0, 69, 81
2, 40936, Note_on_c, 0, 69, 0
2, 40940, Note_on_c, 0, 67, 75
2, 41056, Note_on_c, 0, 67, 0
2, 41060, Note_on_c, 0, 66, 88
2, 41180, Note_on_c, 0, 66, 0
2, 41180, Note_on_c, 0, 67, 88
2, 41300, Note_on_c, 0, 67, 0
2, 41300, Note_on_c, 0, 76, 88
2, 41416, Note_on_c, 0, 76, 0
2, 41420, Note_on_c, 0, 73, 89
2, 41536, Note_on_c, 0, 73, 0
2, 41540, Note_on_c, 0, 71, 59
2, 41656, Note_on_c, 0, 71, 0
2, 41660, Note_on_c, 0, 73, 64
2, 41776, Note_on_c, 0, 73, 0
2, 41780, Note_on_c, 0, 74, 92
2, 41896, Note_on_c, 0, 74, 0
2, 41900, Note_on_c, 0, 73, 76
2, 42016, Note_on_c, 0, 73, 0
2, 42020, Note_on_c, 0, 71, 92
2, 42136, Note_on_c, 0, 71, 0
2, 42140, Note_on_c, 0, 73, 77
2, 42256, Note_on_c, 0, 73, 0
2, 42260, Note_on_c, 0, 79, 93
2, 42320, Note_on_c, 0, 79, 0
2, 42380, Note_on_c, 0, 76, 95
2, 42496, Note_on_c, 0, 76, 0
2, 42500, Note_on_c, 0, 74, 75
2, 42616, Note_on_c, 0, 74, 0
2, 42620, Note_on_c, 0, 76, 84
2, 42736, Note_on_c, 0, 76, 0
2, 42740, Note_on_c, 0, 81, 86
2, 42860, Note_on_c, 0, 81, 0
2, 42860, Note_on_c, 0, 79, 86
2, 42980, Note_on_c, 0, 79, 0
2, 42980, Note_on_c, 0, 78, 74
2, 43096, Note_on_c, 0, 78, 0
2, 43100, Note_on_c, 0, 76, 74
2, 43216, Note_on_c, 0, 76, 0
2, 43220, Note_on_c, 0, 78, 85
2, 43456, Note_on_c, 0, 78, 0
2, 43460, Note_on_c, 0, 73, 75
2, 43696, Note_on_c, 0, 73, 0
2, 43700, Note_on_c, 0, 73, 86
2, 43936, Note_on_c, 0, 73, 0
2, 43940, Note_on_c, 0, 74, 67
2, 44176, Note_on_c, 0, 74, 0
2, 44180, Note_on_c, 0, 74, 98
2, 44416, Note_on_c, 0, 74, 0
2, 44420, Note_on_c, 0, 67, 79
2, 44656, Note_on_c, 0, 67, 0
2, 44660, Note_on_c, 0, 67, 79
2, 44896, Note_on_c, 0, 67, 0
2, 44900, Note_on_c, 0, 66, 79
2, 45136, Note_on_c, 0, 66, 0
2, 45140, Note_on_c, 0, 66, 84
2, 46100, Note_on_c, 0, 66, 0
2, 46100, Note_on_c, 0, 71, 86
2, 46216, Note_on_c, 0, 71, 0
2, 46220, Note_on_c, 0, 72, 100
2, 46336, Note_on_c, 0, 72, 0
2, 46340, Note_on_c, 0, 71, 88
2, 46456, Note_on_c, 0, 71, 0
2, 46460, Note_on_c, 0, 69, 80
2, 46576, Note_on_c, 0, 69, 0
2, 46580, Note_on_c, 0, 71, 95
2, 47176, Note_on_c, 0, 71, 0
2, 47180, Note_on_c, 0, 66, 82
2, 47296, Note_on_c, 0, 66, 0
2, 47300, Note_on_c, 0, 67, 81
2, 47416, Note_on_c, 0, 67, 0
2, 47420, Note_on_c, 0, 69, 86
2, 47536, Note_on_c, 0, 69, 0
2, 47540, Note_on_c, 0, 71, 93
2, 47776, Note_on_c, 0, 71, 0
2, 47780, Note_on_c, 0, 72, 91
2, 48016, Note_on_c, 0, 72, 0
2, 48020, Note_on_c, 0, 74, 90
2, 48136, Note_on_c, 0, 74, 0
2, 48140, Note_on_c, 0, 72, 85
2, 48256, Note_on_c, 0, 72, 0
2, 48260, Note_on_c, 0, 71, 88
2, 48496, Note_on_c, 0, 71, 0
2, 48500, Note_on_c, 0, 69, 88
2, 48736, Note_on_c, 0, 69, 0
2, 48740, Note_on_c, 0, 67, 88
2, 48976, Note_on_c, 0, 67, 0
2, 48980, Note_on_c, 0, 74, 97
2, 49096, Note_on_c, 0, 74, 0
2, 49100, Note_on_c, 0, 76, 93
2, 49216, Note_on_c, 0, 76, 0
2, 49220, Note_on_c, 0, 74, 91
2, 49336, Note_on_c, 0, 74, 0
2, 49340, Note_on_c, 0, 73, 89
2, 49456, Note_on_c, 0, 73, 0
2, 49460, Note_on_c, 0, 74, 96
2, 50056, Note_on_c, 0, 74, 0
2, 50060, Note_on_c, 0, 73, 92
2, 50176, Note_on_c, 0, 73, 0
2, 50180, Note_on_c, 0, 74, 90
2, 50296, Note_on_c, 0, 74, 0
2, 50300, Note_on_c, 0, 76, 86
2, 50416, Note_on_c, 0, 76, 0
2, 50420, Note_on_c, 0, 78, 85
2, 50656, Note_on_c, 0, 78, 0
2, 50660, Note_on_c, 0, 79, 98
2, 50896, Note_on_c, 0, 79, 0
2, 50900, Note_on_c, 0, 81, 78
2, 51016, Note_on_c, 0, 81, 0
2, 51020, Note_on_c, 0, 79, 75
2, 51136, Note_on_c, 0, 79, 0
2, 51140, Note_on_c, 0, 78, 82
2, 51376, Note_on_c, 0, 78, 0
2, 51380, Note_on_c, 0, 76, 86
2, 51616, Note_on_c, 0, 76, 0
2, 51620, Note_on_c, 0, 74, 89
2, 51856, Note_on_c, 0, 74, 0
2, 51860, Note_on_c, 0, 79, 97
2, 51976, Note_on_c, 0, 79, 0
2, 51980, Note_on_c, 0, 81, 96
2, 52096, Note_on_c, 0, 81, 0
2, 52100, Note_on_c, 0, 79, 93
2, 52216, Note_on_c, 0, 79, 0
2, 52220, Note_on_c, 0, 78, 93
2, 52336, Note_on_c, 0, 78, 0
2, 52340, Note_on_c, 0, 79, 102
2, 52936, Note_on_c, 0, 79, 0
2, 52940, Note_on_c, 0, 78, 97
2, 53056, Note_on_c, 0, 78, 0
2, 53060, Note_on_c, 0, 76, 89
2, 53176, Note_on_c, 0, 76, 0
2, 53180, Note_on_c, 0, 78, 89
2, 53296, Note_on_c, 0, 78, 0
2, 53300, Note_on_c, 0, 79, 92
2, 53536, Note_on_c, 0, 79, 0
2, 53540, Note_on_c, 0, 76, 89
2, 53776, Note_on_c, 0, 76, 0
2, 53780, Note_on_c, 0, 69, 85
2, 54016, Note_on_c, 0, 69, 0
2, 54020, Note_on_c, 0, 83, 100
2, 54256, Note_on_c, 0, 83, 0
2, 54260, Note_on_c, 0, 81, 90
2, 54496, Note_on_c, 0, 81, 0
2, 54500, Note_on_c, 0, 79, 89
2, 54736, Note_on_c, 0, 79, 0
2, 54740, Note_on_c, 0, 79, 89
2, 54800, Note_on_c, 0, 79, 0
2, 54800, Note_on_c, 0, 78, 79
2, 54860, Note_on_c, 0, 78, 0
2, 54860, Note_on_c, 0, 76, 86
2, 54976, Note_on_c, 0, 76, 0
2, 54980, Note_on_c, 0, 78, 94
2, 55096, Note_on_c, 0, 78, 0
2, 55100, Note_on_c, 0, 76, 80
2, 55216, Note_on_c, 0, 76, 0
2, 55220, Note_on_c, 0, 74, 86
2, 55816, Note_on_c, 0, 74, 0
2, 55820, Note_on_c, 0, 73, 96
2, 55936, Note_on_c, 0, 73, 0
2, 55940, Note_on_c, 0, 74, 85
2, 56056, Note_on_c, 0, 74, 0
2, 56060, Note_on_c, 0, 76, 95
2, 56176, Note_on_c, 0, 76, 0
2, 56180, Note_on_c, 0, 78, 89
2, 56416, Note_on_c, 0, 78, 0
2, 56420, Note_on_c, 0, 79, 88
2, 56656, Note_on_c, 0, 79, 0
2, 56660, Note_on_c, 0, 81, 92
2, 56896, Note_on_c, 0, 81, 0
2, 56900, Note_on_c, 0, 83, 84
2, 57016, Note_on_c, 0, 83, 0
2, 57020, Note_on_c, 0, 84, 80
2, 57136, Note_on_c, 0, 84, 0
2, 57140, Note_on_c, 0, 83, 95
2, 57376, Note_on_c, 0, 83, 0
2, 57380, Note_on_c, 0, 81, 93
2, 57616, Note_on_c, 0, 81, 0
2, 57620, Note_on_c, 0, 79, 82
2, 57736, Note_on_c, 0, 79, 0
2, 57740, Note_on_c, 0, 77, 91
2, 57856, Note_on_c, 0, 77, 0
2, 57860, Note_on_c, 0, 76, 88
2, 58100, Note_on_c, 0, 76, 0
2, 58100, Note_on_c, 0, 77, 89
2, 58160, Note_on_c, 0, 77, 0
2, 58160, Note_on_c, 0, 76, 89
2, 58220, Note_on_c, 0, 76, 0
2, 58220, Note_on_c, 0, 77, 89
2, 58580, Note_on_c, 0, 77, 0
2, 58700, Note_on_c, 0, 74, 78
2, 58816, Note_on_c, 0, 74, 0
2, 58820, Note_on_c, 0, 79, 86
2, 58936, Note_on_c, 0, 79, 0
2, 58940, Note_on_c, 0, 81, 83
2, 59056, Note_on_c, 0, 81, 0
2, 59060, Note_on_c, 0, 83, 86
2, 59176, Note_on_c, 0, 83, 0
2, 59180, Note_on_c, 0, 84, 88
2, 59296, Note_on_c, 0, 84, 0
2, 59300, Note_on_c, 0, 86, 66
2, 59536, Note_on_c, 0, 86, 0
2, 59540, Note_on_c, 0, 84, 92
2, 59776, Note_on_c, 0, 84, 0
2, 59780, Note_on_c, 0, 83, 86
2, 60016, Note_on_c, 0, 83, 0
2, 60020, Note_on_c, 0, 81, 90
2, 60256, Note_on_c, 0, 81, 0
2, 60260, Note_on_c, 0, 79, 83
2, 60496, Note_on_c, 0, 79, 0
2, 60500, Note_on_c, 0, 77, 85
2, 60616, Note_on_c, 0, 77, 0
2, 60620, Note_on_c, 0, 76, 76
2, 60736, Note_on_c, 0, 76, 0
2, 60740, Note_on_c, 0, 74, 75
2, 60976, Note_on_c, 0, 74, 0
2, 60980, Note_on_c, 0, 76, 100
2, 61576, Note_on_c, 0, 76, 0
2, 61580, Note_on_c, 0, 74, 90
2, 61696, Note_on_c, 0, 74, 0
2, 61700, Note_on_c, 0, 72, 77
2, 61816, Note_on_c, 0, 72, 0
2, 61820, Note_on_c, 0, 71, 84
2, 61936, Note_on_c, 0, 71, 0
2, 61940, Note_on_c, 0, 72, 88
2, 62056, Note_on_c, 0, 72, 0
2, 62060, Note_on_c, 0, 74, 76
2, 62176, Note_on_c, 0, 74, 0
2, 62180, Note_on_c, 0, 76, 92
2, 62416, Note_on_c, 0, 76, 0
2, 62420, Note_on_c, 0, 74, 86
2, 62656, Note_on_c, 0, 74, 0
2, 62660, Note_on_c, 0, 79, 93
2, 62896, Note_on_c, 0, 79, 0
2, 62900, Note_on_c, 0, 76, 89
2, 63136, Note_on_c, 0, 76, 0
2, 63140, Note_on_c, 0, 72, 92
2, 63376, Note_on_c, 0, 72, 0
2, 63380, Note_on_c, 0, 71, 83
2, 63496, Note_on_c, 0, 71, 0
2, 63500, Note_on_c, 0, 69, 72
2, 63616, Note_on_c, 0, 69, 0
2, 63620, Note_on_c, 0, 67, 66
2, 63856, Note_on_c, 0, 67, 0
2, 63860, Note_on_c, 0, 69, 66
2, 64456, Note_on_c, 0, 69, 0
2, 64460, Note_on_c, 0, 67, 86
2, 64576, Note_on_c, 0, 67, 0
2, 64580, Note_on_c, 0, 69, 78
2, 64696, Note_on_c, 0, 69, 0
2, 64700, Note_on_c, 0, 71, 80
2, 64816, Note_on_c, 0, 71, 0
2, 64820, Note_on_c, 0, 72, 96
2, 64936, Note_on_c, 0, 72, 0
2, 64940, Note_on_c, 0, 66, 79
2, 65056, Note_on_c, 0, 66, 0
2, 65060, Note_on_c, 0, 67, 85
2, 65176, Note_on_c, 0, 67, 0
2, 65180, Note_on_c, 0, 69, 69
2, 65296, Note_on_c, 0, 69, 0
2, 65300, Note_on_c, 0, 62, 73
2, 65416, Note_on_c, 0, 62, 0
2, 65420, Note_on_c, 0, 66, 80
2, 65536, Note_on_c, 0, 66, 0
2, 65540, Note_on_c, 0, 64, 81
2, 65656, Note_on_c, 0, 64, 0
2, 65660, Note_on_c, 0, 62, 78
2, 65776, Note_on_c, 0, 62, 0
2, 65780, Note_on_c, 0, 69, 85
2, 65896, Note_on_c, 0, 69, 0
2, 65900, Note_on_c, 0, 67, 83
2, 66016, Note_on_c, 0, 67, 0
2, 66020, Note_on_c, 0, 66, 75
2, 66136, Note_on_c, 0, 66, 0
2, 66140, Note_on_c, 0, 72, 93
2, 66256, Note_on_c, 0, 72, 0
2, 66260, Note_on_c, 0, 72, 102
2, 66376, Note_on_c, 0, 72, 0
2, 66380, Note_on_c, 0, 71, 88
2, 66496, Note_on_c, 0, 71, 0
2, 66500, Note_on_c, 0, 69, 83
2, 66736, Note_on_c, 0, 69, 0
2, 66740, Note_on_c, 0, 71, 83
2, 67336, Note_on_c, 0, 71, 0
2, 67340, Note_on_c, 0, 69, 78
2, 67456, Note_on_c, 0, 69, 0
2, 67460, Note_on_c, 0, 67, 64
2, 67576, Note_on_c, 0, 67, 0
2, 67580, Note_on_c, 0, 66, 92
2, 67696, Note_on_c, 0, 66, 0
2, 67700, Note_on_c, 0, 67, 82
2, 67816, Note_on_c, 0, 67, 0
2, 67820, Note_on_c, 0, 71, 92
2, 67936, Note_on_c, 0, 71, 0
2, 67940, Note_on_c, 0, 74, 92
2, 68056, Note_on_c, 0, 74, 0
2, 68060, Note_on_c, 0, 78, 79
2, 68176, Note_on_c, 0, 78, 0
2, 68180, Note_on_c, 0, 79, 89
2, 68296, Note_on_c, 0, 79, 0
2, 68300, Note_on_c, 0, 78, 84
2, 68416, Note_on_c, 0, 78, 0
2, 68420, Note_on_c, 0, 76, 83
2, 68536, Note_on_c, 0, 76, 0
2, 68540, Note_on_c, 0, 74, 90
2, 68656, Note_on_c, 0, 74, 0
2, 68660, Note_on_c, 0, 78, 85
2, 68776, Note_on_c, 0, 78, 0
2, 68780, Note_on_c, 0, 81, 86
2, 68896, Note_on_c, 0, 81, 0
2, 68900, Note_on_c, 0, 83, 86
2, 69016, Note_on_c, 0, 83, 0
2, 69020, Note_on_c, 0, 84, 88
2, 69136, Note_on_c, 0, 84, 0
2, 69140, Note_on_c, 0, 83, 88
2, 69256, Note_on_c, 0, 83, 0
2, 69260, Note_on_c, 0, 81, 82
2, 69376, Note_on_c, 0, 81, 0
2, 69380, Note_on_c, 0, 79, 81
2, 69736, Note_on_c, 0, 79, 0
2, 69740, Note_on_c, 0, 78, 88
2, 69856, Note_on_c, 0, 78, 0
2, 69860, Note_on_c, 0, 76, 97
2, 70216, Note_on_c, 0, 76, 0
2, 70220, Note_on_c, 0, 75, 84
2, 70336, Note_on_c, 0, 75, 0
2, 70340, Note_on_c, 0, 76, 95
2, 70696, Note_on_c, 0, 76, 0
2, 70700, Note_on_c, 0, 78, 79
2, 70816, Note_on_c, 0, 78, 0
2, 70820, Note_on_c, 0, 79, 89
2, 71176, Note_on_c, 0, 79, 0
2, 71180, Note_on_c, 0, 81, 89
2, 71296, Note_on_c, 0, 81, 0
2, 71300, Note_on_c, 0, 83, 100
2, 71656, Note_on_c, 0, 83, 0
2, 71660, Note_on_c, 0, 79, 92
2, 71776, Note_on_c, 0, 79, 0
2, 71780, Note_on_c, 0, 78, 86
2, 71896, Note_on_c, 0, 78, 0
2, 71900, Note_on_c, 0, 76, 89
2, 72016, Note_on_c, 0, 76, 0
2, 72020, Note_on_c, 0, 81, 91
2, 72136, Note_on_c, 0, 81, 0
2, 72140, Note_on_c, 0, 79, 92
2, 72256, Note_on_c, 0, 79, 0
2, 72260, Note_on_c, 0, 78, 86
2, 72616, Note_on_c, 0, 78, 0
2, 72620, Note_on_c, 0, 76, 82
2, 72736, Note_on_c, 0, 76, 0
2, 72740, Note_on_c, 0, 74, 83
2, 73096, Note_on_c, 0, 74, 0
2, 73100, Note_on_c, 0, 73, 77
2, 73216, Note_on_c, 0, 73, 0
2, 73220, Note_on_c, 0, 74, 92
2, 73576, Note_on_c, 0, 74, 0
2, 73580, Note_on_c, 0, 76, 90
2, 73696, Note_on_c, 0, 76, 0
2, 73700, Note_on_c, 0, 78, 86
2, 74056, Note_on_c, 0, 78, 0
2, 74060, Note_on_c, 0, 79, 90
2, 74176, Note_on_c, 0, 79, 0
2, 74180, Note_on_c, 0, 81, 101
2, 74536, Note_on_c, 0, 81, 0
2, 74540, Note_on_c, 0, 78, 89
2, 74656, Note_on_c, 0, 78, 0
2, 74660, Note_on_c, 0, 76, 81
2, 74776, Note_on_c, 0, 76, 0
2, 74780, Note_on_c, 0, 74, 81
2, 74896, Note_on_c, 0, 74, 0
2, 74900, Note_on_c, 0, 79, 85
2, 75016, Note_on_c, 0, 79, 0
2, 75020, Note_on_c, 0, 81, 82
2, 75136, Note_on_c, 0, 81, 0
2, 75140, Note_on_c, 0, 83, 91
2, 75256, Note_on_c, 0, 83, 0
2, 75260, Note_on_c, 0, 81, 76
2, 75376, Note_on_c, 0, 81, 0
2, 75380, Note_on_c, 0, 79, 84
2, 75496, Note_on_c, 0, 79, 0
2, 75620, Note_on_c, 0, 78, 79
2, 75736, Note_on_c, 0, 78, 0
2, 75860, Note_on_c, 0, 76, 76
2, 75976, Note_on_c, 0, 76, 0
2, 75980, Note_on_c, 0, 78, 73
2, 76096, Note_on_c, 0, 78, 0
2, 76100, Note_on_c, 0, 79, 76
2, 76216, Note_on_c, 0, 79, 0
2, 76220, Note_on_c, 0, 78, 68
2, 76336, Note_on_c, 0, 78, 0
2, 76340, Note_on_c, 0, 76, 66
2, 76456, Note_on_c, 0, 76, 0
2, 76580, Note_on_c, 0, 74, 66
2, 76696, Note_on_c, 0, 74, 0
2, 76820, Note_on_c, 0, 73, 67
2, 76936, Note_on_c, 0, 73, 0
2, 76940, Note_on_c, 0, 74, 70
2, 77056, Note_on_c, 0, 74, 0
2, 77060, Note_on_c, 0, 76, 69
2, 77176, Note_on_c, 0, 76, 0
2, 77180, Note_on_c, 0, 74, 69
2, 77296, Note_on_c, 0, 74, 0
2, 77300, Note_on_c, 0, 73, 71
2, 77416, Note_on_c, 0, 73, 0
2, 77540, Note_on_c, 0, 71, 76
2, 77656, Note_on_c, 0, 71, 0
2, 77780, Note_on_c, 0, 71, 89
2, 77900, Note_on_c, 0, 71, 0
2, 77900, Note_on_c, 0, 69, 66
2, 77960, Note_on_c, 0, 69, 0
2, 77960, Note_on_c, 0, 71, 66
2, 78020, Note_on_c, 0, 71, 0
2, 78020, Note_on_c, 0, 69, 76
2, 78980, Note_on_c, 0, 69, 0
2, 79340, Note_on_c, 0, 73, 80
2, 79456, Note_on_c, 0, 73, 0
2, 79460, Note_on_c, 0, 71, 75
2, 79576, Note_on_c, 0, 71, 0
2, 79580, Note_on_c, 0, 69, 74
2, 79696, Note_on_c, 0, 69, 0
2, 79700, Note_on_c, 0, 71, 78
2, 79816, Note_on_c, 0, 71, 0
2, 79820, Note_on_c, 0, 73, 69
2, 79936, Note_on_c, 0, 73, 0
2, 79940, Note_on_c, 0, 74, 62
2, 80056, Note_on_c, 0, 74, 0
2, 80060, Note_on_c, 0, 76, 82
2, 80176, Note_on_c, 0, 76, 0
2, 80180, Note_on_c, 0, 78, 75
2, 80296, Note_on_c, 0, 78, 0
2, 80300, Note_on_c, 0, 79, 78
2, 80416, Note_on_c, 0, 79, 0
2, 80420, Note_on_c, 0, 81, 92
2, 80480, Note_on_c, 0, 81, 0
2, 80480, Note_on_c, 0, 79, 80
2, 80540, Note_on_c, 0, 79, 0
2, 80540, Note_on_c, 0, 78, 76
2, 80600, Note_on_c, 0, 78, 0
2, 80600, Note_on_c, 0, 79, 78
2, 80660, Note_on_c, 0, 79, 0
2, 80660, Note_on_c, 0, 81, 97
2, 80776, Note_on_c, 0, 81, 0
2, 80780, Note_on_c, 0, 74, 71
2, 80896, Note_on_c, 0, 74, 0
2, 80900, Note_on_c, 0, 73, 53
2, 81016, Note_on_c, 0, 73, 0
2, 81020, Note_on_c, 0, 74, 65
2, 81136, Note_on_c, 0, 74, 0
2, 81140, Note_on_c, 0, 76, 83
2, 81256, Note_on_c, 0, 76, 0
2, 81260, Note_on_c, 0, 74, 73
2, 81376, Note_on_c, 0, 74, 0
2, 81380, Note_on_c, 0, 73, 86
2, 81496, Note_on_c, 0, 73, 0
2, 81500, Note_on_c, 0, 74, 86
2, 81616, Note_on_c, 0, 74, 0
2, 81616, Note_on_c, 0, 69, 82
2, 81732, Note_on_c, 0, 74, 78
2, 81744, Note_on_c, 0, 69, 0
2, 81844, Note_on_c, 0, 74, 0
2, 81848, Note_on_c, 0, 67, 82
2, 81960, Note_on_c, 0, 74, 85
2, 81972, Note_on_c, 0, 67, 0
2, 82080, Note_on_c, 0, 66, 84
2, 82092, Note_on_c, 0, 74, 0
2, 82208, Note_on_c, 0, 74, 90
2, 82216, Note_on_c, 0, 66, 0
2, 82320, Note_on_c, 0, 74, 0
2, 82328, Note_on_c, 0, 64, 83
2, 82444, Note_on_c, 0, 74, 89
2, 82460, Note_on_c, 0, 64, 0
2, 82564, Note_on_c, 0, 66, 85
2, 82568, Note_on_c, 0, 74, 0
2, 82688, Note_on_c, 0, 74, 88
2, 82692, Note_on_c, 0, 66, 0
2, 82804, Note_on_c, 0, 69, 86
2, 82816, Note_on_c, 0, 74, 0
2, 82924, Note_on_c, 0, 74, 93
2, 82932, Note_on_c, 0, 69, 0
2, 83052, Note_on_c, 0, 66, 89
2, 83056, Note_on_c, 0, 74, 0
2, 83172, Note_on_c, 0, 74, 92
2, 83192, Note_on_c, 0, 66, 0
2, 83288, Note_on_c, 0, 74, 0
2, 83292, Note_on_c, 0, 62, 84
2, 83412, Note_on_c, 0, 72, 93
2, 83424, Note_on_c, 0, 62, 0
2, 83540, Note_on_c, 0, 71, 95
2, 83548, Note_on_c, 0, 72, 0
2, 83656, Note_on_c, 0, 71, 0
2, 83660, Note_on_c, 0, 74, 90
2, 83776, Note_on_c, 0, 74, 0
2, 83780, Note_on_c, 0, 73, 82
2, 83896, Note_on_c, 0, 73, 0
2, 83900, Note_on_c, 0, 74, 88
2, 84016, Note_on_c, 0, 74, 0
2, 84020, Note_on_c, 0, 76, 86
2, 84136, Note_on_c, 0, 76, 0
2, 84140, Note_on_c, 0, 74, 74
2, 84256, Note_on_c, 0, 74, 0
2, 84260, Note_on_c, 0, 73, 75
2, 84376, Note_on_c, 0, 73, 0
2, 84380, Note_on_c, 0, 74, 78
2, 84496, Note_on_c, 0, 74, 0
2, 84500, Note_on_c, 0, 71, 85
2, 84616, Note_on_c, 0, 71, 0
2, 84620, Note_on_c, 0, 74, 82
2, 84736, Note_on_c, 0, 74, 0
2, 84740, Note_on_c, 0, 69, 64
2, 84856, Note_on_c, 0, 69, 0
2, 84860, Note_on_c, 0, 74, 80
2, 84976, Note_on_c, 0, 74, 0
2, 84980, Note_on_c, 0, 67, 71
2, 85096, Note_on_c, 0, 67, 0
2, 85100, Note_on_c, 0, 74, 76
2, 85216, Note_on_c, 0, 74, 0
2, 85220, Note_on_c, 0, 66, 84
2, 85336, Note_on_c, 0, 66, 0
2, 85340, Note_on_c, 0, 74, 80
2, 85456, Note_on_c, 0, 74, 0
2, 85460, Note_on_c, 0, 67, 78
2, 85576, Note_on_c, 0, 67, 0
2, 85580, Note_on_c, 0, 74, 72
2, 85696, Note_on_c, 0, 74, 0
2, 85700, Note_on_c, 0, 71, 80
2, 85816, Note_on_c, 0, 71, 0
2, 85820, Note_on_c, 0, 74, 78
2, 85936, Note_on_c, 0, 74, 0
2, 85940, Note_on_c, 0, 67, 72
2, 86056, Note_on_c, 0, 67, 0
2, 86060, Note_on_c, 0, 74, 82
2, 86176, Note_on_c, 0, 74, 0
2, 86180, Note_on_c, 0, 64, 62
2, 86296, Note_on_c, 0, 64, 0
2, 86300, Note_on_c, 0, 74, 68
2, 86416, Note_on_c, 0, 74, 0
2, 86420, Note_on_c, 0, 73, 84
2, 86480, Note_on_c, 0, 73, 0
2, 86540, Note_on_c, 0, 67, 85
2, 86656, Note_on_c, 0, 67, 0
2, 86660, Note_on_c, 0, 66, 83
2, 86776, Note_on_c, 0, 66, 0
2, 86780, Note_on_c, 0, 67, 82
2, 86896, Note_on_c, 0, 67, 0
2, 86900, Note_on_c, 0, 69, 81
2, 87016, Note_on_c, 0, 69, 0
2, 87020, Note_on_c, 0, 67, 75
2, 87136, Note_on_c, 0, 67, 0
2, 87140, Note_on_c, 0, 66, 88
2, 87260, Note_on_c, 0, 66, 0
2, 87260, Note_on_c, 0, 67, 88
2, 87380, Note_on_c, 0, 67, 0
2, 87380, Note_on_c, 0, 76, 88
2, 87496, Note_on_c, 0, 76, 0
2, 87500, Note_on_c, 0, 73, 89
2, 87616, Note_on_c, 0, 73, 0
2, 87620, Note_on_c, 0, 71, 59
2, 87736, Note_on_c, 0, 71, 0
2, 87740, Note_on_c, 0, 73, 64
2, 87856, Note_on_c, 0, 73, 0
2, 87860, Note_on_c, 0, 74, 92
2, 87976, Note_on_c, 0, 74, 0
2, 87980, Note_on_c, 0, 73, 76
2, 88096, Note_on_c, 0, 73, 0
2, 88100, Note_on_c, 0, 71, 92
2, 88216, Note_on_c, 0, 71, 0
2, 88220, Note_on_c, 0, 73, 77
2, 88336, Note_on_c, 0, 73, 0
2, 88340, Note_on_c, 0, 79, 93
2, 88400, Note_on_c, 0, 79, 0
2, 88460, Note_on_c, 0, 76, 95
2, 88576, Note_on_c, 0, 76, 0
2, 88580, Note_on_c, 0, 74, 75
2, 88696, Note_on_c, 0, 74, 0
2, 88700, Note_on_c, 0, 76, 84
2, 88816, Note_on_c, 0, 76, 0
2, 88820, Note_on_c, 0, 81, 86
2, 88940, Note_on_c, 0, 81, 0
2, 88940, Note_on_c, 0, 79, 86
2, 89060, Note_on_c, 0, 79, 0
2, 89060, Note_on_c, 0, 78, 74
2, 89176, Note_on_c, 0, 78, 0
2, 89180, Note_on_c, 0, 76, 74
2, 89296, Note_on_c, 0, 76, 0
2, 89300, Note_on_c, 0, 78, 85
2, 89536, Note_on_c, 0, 78, 0
2, 89540, Note_on_c, 0, 73, 75
2, 89776, Note_on_c, 0, 73, 0
2, 89780, Note_on_c, 0, 73, 86
2, 90016, Note_on_c, 0, 73, 0
2, 90020, Note_on_c, 0, 74, 67
2, 90256, Note_on_c, 0, 74, 0
2, 90260, Note_on_c, 0, 74, 98
2, 90496, Note_on_c, 0, 74, 0
2, 90500, Note_on_c, 0, 67, 79
2, 90736, Note_on_c, 0, 67, 0
2, 90740, Note_on_c, 0, 67, 79
2, 90976, Note_on_c, 0, 67, 0
2, 90980, Note_on_c, 0, 66, 79
2, 91216, Note_on_c, 0, 66, 0
2, 91220, Note_on_c, 0, 66, 84
2, 92180, Note_on_c, 0, 66, 0
2, 92180, Note_on_c, 0, 79, 106
2, 92296, Note_on_c, 0, 79, 0
2, 92300, Note_on_c, 0, 81, 93
2, 92416, Note_on_c, 0, 81, 0
2, 92420, Note_on_c, 0, 79, 73
2, 92536, Note_on_c, 0, 79, 0
2, 92540, Note_on_c, 0, 78, 88
2, 92656, Note_on_c, 0, 78, 0
2, 92660, Note_on_c, 0, 79, 95
2, 93136, Note_on_c, 0, 79, 0
2, 93260, Note_on_c, 0, 66, 96
2, 93376, Note_on_c, 0, 66, 0
2, 93380, Note_on_c, 0, 67, 85
2, 93496, Note_on_c, 0, 67, 0
2, 93500, Note_on_c, 0, 69, 82
2, 93616, Note_on_c, 0, 69, 0
2, 93620, Note_on_c, 0, 71, 91
2, 93856, Note_on_c, 0, 71, 0
2, 93860, Note_on_c, 0, 72, 92
2, 94096, Note_on_c, 0, 72, 0
2, 94100, Note_on_c, 0, 74, 85
2, 94216, Note_on_c, 0, 74, 0
2, 94220, Note_on_c, 0, 72, 81
2, 94336, Note_on_c, 0, 72, 0
2, 94340, Note_on_c, 0, 71, 78
2, 94576, Note_on_c, 0, 71, 0
2, 94580, Note_on_c, 0, 69, 77
2, 94816, Note_on_c, 0, 69, 0
2, 94820, Note_on_c, 0, 67, 95
2, 95056, Note_on_c, 0, 67, 0
2, 95060, Note_on_c, 0, 76, 88
2, 95176, Note_on_c, 0, 76, 0
2, 95180, Note_on_c, 0, 78, 85
2, 95296, Note_on_c, 0, 78, 0
2, 95300, Note_on_c, 0, 76, 86
2, 95416, Note_on_c, 0, 76, 0
2, 95420, Note_on_c, 0, 75, 89
2, 95536, Note_on_c, 0, 75, 0
2, 95540, Note_on_c, 0, 76, 91
2, 96256, Note_on_c, 0, 76, 0
2, 96260, Note_on_c, 0, 80, 92
2, 96496, Note_on_c, 0, 80, 0
2, 96500, Note_on_c, 0, 80, 93
2, 96736, Note_on_c, 0, 80, 0
2, 96740, Note_on_c, 0, 81, 95
2, 96976, Note_on_c, 0, 81, 0
2, 96980, Note_on_c, 0, 81, 86
2, 97216, Note_on_c, 0, 81, 0
2, 97220, Note_on_c, 0, 83, 89
2, 97460, Note_on_c, 0, 83, 0
2, 97460, Note_on_c, 0, 83, 91
2, 97696, Note_on_c, 0, 83, 0
2, 97700, Note_on_c, 0, 84, 85
2, 97936, Note_on_c, 0, 84, 0
2, 97940, Note_on_c, 0, 76, 102
2, 98060, Note_on_c, 0, 76, 0
2, 98060, Note_on_c, 0, 75, 68
2, 98180, Note_on_c, 0, 75, 0
2, 98180, Note_on_c, 0, 73, 99
2, 98284, Note_on_c, 0, 75, 75
2, 98300, Note_on_c, 0, 73, 0
2, 98332, Note_on_c, 0, 75, 0
2, 98332, Note_on_c, 0, 73, 97
2, 98396, Note_on_c, 0, 75, 104
2, 98400, Note_on_c, 0, 73, 0
2, 99416, Note_on_c, 0, 75, 0
2, 99500, Note_on_c, 0, 75, 84
2, 99620, Note_on_c, 0, 75, 0
2, 99620, Note_on_c, 0, 76, 57
2, 99740, Note_on_c, 0, 76, 0
2, 99740, Note_on_c, 0, 78, 65
2, 99860, Note_on_c, 0, 78, 0
2, 99860, Note_on_c, 0, 76, 77
2, 99980, Note_on_c, 0, 76, 0
2, 99980, Note_on_c, 0, 75, 62
2, 100100, Note_on_c, 0, 75, 0
2, 100100, Note_on_c, 0, 73, 47
2, 100220, Note_on_c, 0, 73, 0
2, 100220, Note_on_c, 0, 71, 49
2, 100340, Note_on_c, 0, 71, 0
2, 100340, Note_on_c, 0, 69, 47
2, 100460, Note_on_c, 0, 69, 0
2, 100460, Note_on_c, 0, 67, 71
2, 100580, Note_on_c, 0, 67, 0
2, 100580, Note_on_c, 0, 69, 71
2, 100700, Note_on_c, 0, 69, 0
2, 100700, Note_on_c, 0, 78, 71
2, 100820, Note_on_c, 0, 78, 0
2, 100820, Note_on_c, 0, 67, 80
2, 100880, Note_on_c, 0, 67, 0
2, 100940, Note_on_c, 0, 76, 101
2, 101056, Note_on_c, 0, 76, 0
2, 101060, Note_on_c, 0, 75, 78
2, 101176, Note_on_c, 0, 75, 0
2, 101180, Note_on_c, 0, 76, 88
2, 101296, Note_on_c, 0, 76, 0
2, 101300, Note_on_c, 0, 77, 93
2, 101420, Note_on_c, 0, 77, 0
2, 101420, Note_on_c, 0, 76, 91
2, 101536, Note_on_c, 0, 76, 0
2, 101540, Note_on_c, 0, 75, 85
2, 101656, Note_on_c, 0, 75, 0
2, 101660, Note_on_c, 0, 76, 85
2, 101776, Note_on_c, 0, 76, 0
2, 101780, Note_on_c, 0, 78, 102
2, 101896, Note_on_c, 0, 78, 0
2, 101900, Note_on_c, 0, 76, 76
2, 102016, Note_on_c, 0, 76, 0
2, 102020, Note_on_c, 0, 79, 88
2, 102136, Note_on_c, 0, 79, 0
2, 102140, Note_on_c, 0, 76, 84
2, 102256, Note_on_c, 0, 76, 0
2, 102260, Note_on_c, 0, 81, 93
2, 102376, Note_on_c, 0, 81, 0
2, 102380, Note_on_c, 0, 76, 78
2, 102496, Note_on_c, 0, 76, 0
2, 102500, Note_on_c, 0, 83, 97
2, 102616, Note_on_c, 0, 83, 0
2, 102620, Note_on_c, 0, 76, 84
2, 102736, Note_on_c, 0, 76, 0
2, 102740, Note_on_c, 0, 84, 73
2, 102856, Note_on_c, 0, 84, 0
2, 102860, Note_on_c, 0, 76, 83
2, 102976, Note_on_c, 0, 76, 0
2, 102980, Note_on_c, 0, 86, 89
2, 103096, Note_on_c, 0, 86, 0
2, 103100, Note_on_c, 0, 76, 75
2, 103216, Note_on_c, 0, 76, 0
2, 103220, Note_on_c, 0, 84, 91
2, 103336, Note_on_c, 0, 84, 0
2, 103340, Note_on_c, 0, 76, 72
2, 103456, Note_on_c, 0, 76, 0
2, 103460, Note_on_c, 0, 83, 95
2, 103576, Note_on_c, 0, 83, 0
2, 103580, Note_on_c, 0, 76, 82
2, 103696, Note_on_c, 0, 76, 0
2, 103700, Note_on_c, 0, 84, 102
2, 103760, Note_on_c, 0, 84, 0
2, 103820, Note_on_c, 0, 76, 93
2, 103936, Note_on_c, 0, 76, 0
2, 103940, Note_on_c, 0, 75, 84
2, 104056, Note_on_c, 0, 75, 0
2, 104060, Note_on_c, 0, 76, 85
2, 104176, Note_on_c, 0, 76, 0
2, 104180, Note_on_c, 0, 77, 93
2, 104296, Note_on_c, 0, 77, 0
2, 104300, Note_on_c, 0, 76, 81
2, 104416, Note_on_c, 0, 76, 0
2, 104420, Note_on_c, 0, 75, 92
2, 104536, Note_on_c, 0, 75, 0
2, 104540, Note_on_c, 0, 76, 95
2, 104656, Note_on_c, 0, 76, 0
2, 104660, Note_on_c, 0, 84, 97
2, 104776, Note_on_c, 0, 84, 0
2, 104780, Note_on_c, 0, 76, 78
2, 104896, Note_on_c, 0, 76, 0
2, 104900, Note_on_c, 0, 83, 92
2, 105016, Note_on_c, 0, 83, 0
2, 105020, Note_on_c, 0, 76, 74
2, 105136, Note_on_c, 0, 76, 0
2, 105140, Note_on_c, 0, 81, 95
2, 105256, Note_on_c, 0, 81, 0
2, 105260, Note_on_c, 0, 76, 80
2, 105376, Note_on_c, 0, 76, 0
2, 105380, Note_on_c, 0, 79, 86
2, 105496, Note_on_c, 0, 79, 0
2, 105500, Note_on_c, 0, 76, 72
2, 105616, Note_on_c, 0, 76, 0
2, 105620, Note_on_c, 0, 78, 89
2, 105736, Note_on_c, 0, 78, 0
2, 105740, Note_on_c, 0, 76, 74
2, 105856, Note_on_c, 0, 76, 0
2, 105860, Note_on_c, 0, 79, 81
2, 105976, Note_on_c, 0, 79, 0
2, 105980, Note_on_c, 0, 76, 80
2, 106096, Note_on_c, 0, 76, 0
2, 106100, Note_on_c, 0, 81, 92
2, 106216, Note_on_c, 0, 81, 0
2, 106220, Note_on_c, 0, 76, 80
2, 106336, Note_on_c, 0, 76, 0
2, 106340, Note_on_c, 0, 75, 90
2, 106456, Note_on_c, 0, 75, 0
2, 106460, Note_on_c, 0, 73, 90
2, 106576, Note_on_c, 0, 73, 0
2, 106580, Note_on_c, 0, 75, 94
2, 106640, Note_on_c, 0, 75, 0
2, 106700, Note_on_c, 0, 81, 92
2, 106816, Note_on_c, 0, 81, 0
2, 106820, Note_on_c, 0, 79, 94
2, 106936, Note_on_c, 0, 79, 0
2, 106940, Note_on_c, 0, 81, 88
2, 107056, Note_on_c, 0, 81, 0
2, 107060, Note_on_c, 0, 83, 100
2, 107176, Note_on_c, 0, 83, 0
2, 107180, Note_on_c, 0, 81, 95
2, 107296, Note_on_c, 0, 81, 0
2, 107300, Note_on_c, 0, 79, 91
2, 107416, Note_on_c, 0, 79, 0
2, 107420, Note_on_c, 0, 81, 98
2, 107536, Note_on_c, 0, 81, 0
2, 107540, Note_on_c, 0, 71, 65
2, 107600, Note_on_c, 0, 71, 0
2, 107660, Note_on_c, 0, 79, 90
2, 107776, Note_on_c, 0, 79, 0
2, 107780, Note_on_c, 0, 78, 77
2, 107896, Note_on_c, 0, 78, 0
2, 107900, Note_on_c, 0, 79, 82
2, 108016, Note_on_c, 0, 79, 0
2, 108020, Note_on_c, 0, 81, 91
2, 108136, Note_on_c, 0, 81, 0
2, 108140, Note_on_c, 0, 79, 85
2, 108256, Note_on_c, 0, 79, 0
2, 108260, Note_on_c, 0, 78, 64
2, 108376, Note_on_c, 0, 78, 0
2, 108380, Note_on_c, 0, 79, 91
2, 108496, Note_on_c, 0, 79, 0
2, 108500, Note_on_c, 0, 69, 90
2, 108560, Note_on_c, 0, 69, 0
2, 108620, Note_on_c, 0, 78, 97
2, 108736, Note_on_c, 0, 78, 0
2, 108740, Note_on_c, 0, 76, 95
2, 108856, Note_on_c, 0, 76, 0
2, 108860, Note_on_c, 0, 78, 84
2, 108976, Note_on_c, 0, 78, 0
2, 108980, Note_on_c, 0, 79, 88
2, 109096, Note_on_c, 0, 79, 0
2, 109100, Note_on_c, 0, 81, 93
2, 109216, Note_on_c, 0, 81, 0
2, 109220, Note_on_c, 0, 79, 83
2, 109336, Note_on_c, 0, 79, 0
2, 109340, Note_on_c, 0, 78, 85
2, 109456, Note_on_c, 0, 78, 0
2, 109460, Note_on_c, 0, 79, 96
2, 109696, Note_on_c, 0, 79, 0
2, 109700, Note_on_c, 0, 75, 94
2, 109936, Note_on_c, 0, 75, 0
2, 109940, Note_on_c, 0, 75, 81
2, 110176, Note_on_c, 0, 75, 0
2, 110180, Note_on_c, 0, 76, 93
2, 110416, Note_on_c, 0, 76, 0
2, 110420, Note_on_c, 0, 76, 89
2, 110656, Note_on_c, 0, 76, 0
2, 110660, Note_on_c, 0, 69, 85
2, 110896, Note_on_c, 0, 69, 0
2, 110900, Note_on_c, 0, 69, 92
2, 111136, Note_on_c, 0, 69, 0
2, 111140, Note_on_c, 0, 67, 84
2, 111376, Note_on_c, 0, 67, 0
2, 111380, Note_on_c, 0, 67, 100
2, 111976, Note_on_c, 0, 67, 0
2, 111980, Note_on_c, 0, 71, 101
2, 112096, Note_on_c, 0, 71, 0
2, 112100, Note_on_c, 0, 72, 93
2, 112216, Note_on_c, 0, 72, 0
2, 112220, Note_on_c, 0, 74, 93
2, 112336, Note_on_c, 0, 74, 0
2, 112340, Note_on_c, 0, 76, 70
2, 112456, Note_on_c, 0, 76, 0
2, 112460, Note_on_c, 0, 77, 92
2, 112576, Note_on_c, 0, 77, 0
2, 112580, Note_on_c, 0, 76, 91
2, 112696, Note_on_c, 0, 76, 0
2, 112700, Note_on_c, 0, 75, 91
2, 112816, Note_on_c, 0, 75, 0
2, 112820, Note_on_c, 0, 76, 100
2, 113300, Note_on_c, 0, 76, 0
2, 113540, Note_on_c, 0, 69, 98
2, 113776, Note_on_c, 0, 69, 0
2, 113780, Note_on_c, 0, 71, 78
2, 113900, Note_on_c, 0, 71, 0
2, 113900, Note_on_c, 0, 69, 78
2, 114020, Note_on_c, 0, 69, 0
2, 114020, Note_on_c, 0, 67, 93
2, 114260, Note_on_c, 0, 67, 0
2, 114260, Note_on_c, 0, 69, 81
2, 114380, Note_on_c, 0, 69, 0
2, 114380, Note_on_c, 0, 67, 75
2, 114496, Note_on_c, 0, 67, 0
2, 114500, Note_on_c, 0, 66, 75
2, 114740, Note_on_c, 0, 66, 0
2, 114740, Note_on_c, 0, 66, 102
2, 114976, Note_on_c, 0, 66, 0
2, 114980, Note_on_c, 0, 76, 119
2, 115216, Note_on_c, 0, 76, 0
2, 115220, Note_on_c, 0, 74, 101
2, 115336, Note_on_c, 0, 74, 0
2, 115340, Note_on_c, 0, 76, 78
2, 115456, Note_on_c, 0, 76, 0
2, 115460, Note_on_c, 0, 74, 83
2, 115576, Note_on_c, 0, 74, 0
2, 115580, Note_on_c, 0, 73, 94
2, 115696, Note_on_c, 0, 73, 0
2, 115700, Note_on_c, 0, 74, 85
2, 116296, Note_on_c, 0, 74, 0
2, 116420, Note_on_c, 0, 67, 98
2, 116656, Note_on_c, 0, 67, 0
2, 116660, Note_on_c, 0, 69, 68
2, 116776, Note_on_c, 0, 69, 0
2, 116780, Note_on_c, 0, 67, 83
2, 116896, Note_on_c, 0, 67, 0
2, 116900, Note_on_c, 0, 65, 90
2, 117136, Note_on_c, 0, 65, 0
2, 117140, Note_on_c, 0, 67, 84
2, 117256, Note_on_c, 0, 67, 0
2, 117260, Note_on_c, 0, 65, 61
2, 117376, Note_on_c, 0, 65, 0
2, 117380, Note_on_c, 0, 64, 93
2, 117616, Note_on_c, 0, 64, 0
2, 117620, Note_on_c, 0, 64, 92
2, 117856, Note_on_c, 0, 64, 0
2, 117860, Note_on_c, 0, 74, 97
2, 118096, Note_on_c, 0, 74, 0
2, 118100, Note_on_c, 0, 72, 91
2, 118160, Note_on_c, 0, 72, 0
2, 118220, Note_on_c, 0, 71, 57
2, 118280, Note_on_c, 0, 71, 0
2, 118340, Note_on_c, 0, 69, 73
2, 118696, Note_on_c, 0, 69, 0
2, 118700, Note_on_c, 0, 67, 74
2, 118816, Note_on_c, 0, 67, 0
2, 118820, Note_on_c, 0, 66, 70
2, 119176, Note_on_c, 0, 66, 0
2, 119180, Note_on_c, 0, 64, 73
2, 119296, Note_on_c, 0, 64, 0
2, 119300, Note_on_c, 0, 62, 78
2, 119656, Note_on_c, 0, 62, 0
2, 119660, Note_on_c, 0, 64, 82
2, 119776, Note_on_c, 0, 64, 0
2, 119780, Note_on_c, 0, 66, 77
2, 120136, Note_on_c, 0, 66, 0
2, 120140, Note_on_c, 0, 67, 80
2, 120256, Note_on_c, 0, 67, 0
2, 120260, Note_on_c, 0, 69, 80
2, 120616, Note_on_c, 0, 69, 0
2, 120620, Note_on_c, 0, 71, 89
2, 120736, Note_on_c, 0, 71, 0
2, 120740, Note_on_c, 0, 72, 91
2, 121096, Note_on_c, 0, 72, 0
2, 121100, Note_on_c, 0, 74, 85
2, 121216, Note_on_c, 0, 74, 0
2, 121220, Note_on_c, 0, 72, 81
2, 121336, Note_on_c, 0, 72, 0
2, 121340, Note_on_c, 0, 71, 77
2, 121456, Note_on_c, 0, 71, 0
2, 121460, Note_on_c, 0, 72, 81
2, 121576, Note_on_c, 0, 72, 0
2, 121580, Note_on_c, 0, 79, 13
2, 121696, Note_on_c, 0, 79, 0
2, 121700, Note_on_c, 0, 78, 84
2, 121816, Note_on_c, 0, 78, 0
2, 121820, Note_on_c, 0, 76, 65
2, 121936, Note_on_c, 0, 76, 0
2, 121940, Note_on_c, 0, 78, 68
2, 122056, Note_on_c, 0, 78, 0
2, 122060, Note_on_c, 0, 83, 93
2, 122176, Note_on_c, 0, 83, 0
2, 122180, Note_on_c, 0, 81, 92
2, 122296, Note_on_c, 0, 81, 0
2, 122300, Note_on_c, 0, 79, 81
2, 122416, Note_on_c, 0, 79, 0
2, 122420, Note_on_c, 0, 81, 84
2, 122536, Note_on_c, 0, 81, 0
2, 122540, Note_on_c, 0, 86, 93
2, 122656, Note_on_c, 0, 86, 0
2, 122660, Note_on_c, 0, 84, 82
2, 122776, Note_on_c, 0, 84, 0
2, 122780, Note_on_c, 0, 83, 90
2, 122896, Note_on_c, 0, 83, 0
2, 122900, Note_on_c, 0, 84, 92
2, 123016, Note_on_c, 0, 84, 0
2, 123020, Note_on_c, 0, 83, 95
2, 123136, Note_on_c, 0, 83, 0
2, 123140, Note_on_c, 0, 81, 93
2, 123256, Note_on_c, 0, 81, 0
2, 123260, Note_on_c, 0, 79, 70
2, 123376, Note_on_c, 0, 79, 0
2, 123380, Note_on_c, 0, 78, 93
2, 123496, Note_on_c, 0, 78, 0
2, 123500, Note_on_c, 0, 76, 88
2, 123616, Note_on_c, 0, 76, 0
2, 123620, Note_on_c, 0, 74, 58
2, 123736, Note_on_c, 0, 74, 0
2, 123740, Note_on_c, 0, 72, 66
2, 123856, Note_on_c, 0, 72, 0
2, 123860, Note_on_c, 0, 71, 81
2, 123920, Note_on_c, 0, 71, 0
2, 123980, Note_on_c, 0, 79, 93
2, 124096, Note_on_c, 0, 79, 0
2, 124100, Note_on_c, 0, 78, 99
2, 124216, Note_on_c, 0, 78, 0
2, 124220, Note_on_c, 0, 79, 100
2, 124336, Note_on_c, 0, 79, 0
2, 124340, Note_on_c, 0, 81, 104
2, 124456, Note_on_c, 0, 81, 0
2, 124460, Note_on_c, 0, 79, 96
2, 124576, Note_on_c, 0, 79, 0
2, 124580, Note_on_c, 0, 78, 94
2, 124696, Note_on_c, 0, 78, 0
2, 124700, Note_on_c, 0, 79, 90
2, 124816, Note_on_c, 0, 79, 0
2, 124820, Note_on_c, 0, 72, 91
2, 124880, Note_on_c, 0, 72, 0
2, 124940, Note_on_c, 0, 78, 88
2, 125056, Note_on_c, 0, 78, 0
2, 125060, Note_on_c, 0, 76, 91
2, 125176, Note_on_c, 0, 76, 0
2, 125180, Note_on_c, 0, 78, 79
2, 125296, Note_on_c, 0, 78, 0
2, 125300, Note_on_c, 0, 79, 91
2, 125416, Note_on_c, 0, 79, 0
2, 125420, Note_on_c, 0, 78, 77
2, 125536, Note_on_c, 0, 78, 0
2, 125540, Note_on_c, 0, 76, 54
2, 125656, Note_on_c, 0, 76, 0
2, 125660, Note_on_c, 0, 78, 69
2, 125776, Note_on_c, 0, 78, 0
2, 125780, Note_on_c, 0, 74, 81
2, 125840, Note_on_c, 0, 74, 0
2, 125900, Note_on_c, 0, 77, 91
2, 126016, Note_on_c, 0, 77, 0
2, 126020, Note_on_c, 0, 76, 86
2, 126136, Note_on_c, 0, 76, 0
2, 126140, Note_on_c, 0, 77, 86
2, 126256, Note_on_c, 0, 77, 0
2, 126260, Note_on_c, 0, 79, 89
2, 126376, Note_on_c, 0, 79, 0
2, 126380, Note_on_c, 0, 77, 91
2, 126496, Note_on_c, 0, 77, 0
2, 126500, Note_on_c, 0, 76, 80
2, 126616, Note_on_c, 0, 76, 0
2, 126620, Note_on_c, 0, 74, 64
2, 126736, Note_on_c, 0, 74, 0
2, 126740, Note_on_c, 0, 76, 71
2, 126800, Note_on_c, 0, 76, 0
2, 126860, Note_on_c, 0, 72, 82
2, 126976, Note_on_c, 0, 72, 0
2, 126980, Note_on_c, 0, 71, 80
2, 127096, Note_on_c, 0, 71, 0
2, 127100, Note_on_c, 0, 72, 88
2, 127216, Note_on_c, 0, 72, 0
2, 127220, Note_on_c, 0, 74, 81
2, 127336, Note_on_c, 0, 74, 0
2, 127340, Note_on_c, 0, 72, 68
2, 127456, Note_on_c, 0, 72, 0
2, 127460, Note_on_c, 0, 71, 59
2, 127576, Note_on_c, 0, 71, 0
2, 127580, Note_on_c, 0, 72, 80
2, 127696, Note_on_c, 0, 72, 0
2, 127700, Note_on_c, 0, 74, 86
2, 127816, Note_on_c, 0, 74, 0
2, 127820, Note_on_c, 0, 71, 75
2, 127936, Note_on_c, 0, 71, 0
2, 127940, Note_on_c, 0, 69, 53
2, 128056, Note_on_c, 0, 69, 0
2, 128060, Note_on_c, 0, 71, 60
2, 128176, Note_on_c, 0, 71, 0
2, 128180, Note_on_c, 0, 72, 78
2, 128296, Note_on_c, 0, 72, 0
2, 128300, Note_on_c, 0, 71, 63
2, 128416, Note_on_c, 0, 71, 0
2, 128420, Note_on_c, 0, 69, 30
2, 128536, Note_on_c, 0, 69, 0
2, 128540, Note_on_c, 0, 71, 57
2, 128656, Note_on_c, 0, 71, 0
2, 128660, Note_on_c, 0, 73, 101
2, 128720, Note_on_c, 0, 73, 0
2, 128780, Note_on_c, 0, 70, 66
2, 128896, Note_on_c, 0, 70, 0
2, 128900, Note_on_c, 0, 69, 57
2, 129016, Note_on_c, 0, 69, 0
2, 129020, Note_on_c, 0, 70, 63
2, 129136, Note_on_c, 0, 70, 0
2, 129140, Note_on_c, 0, 72, 83
2, 129256, Note_on_c, 0, 72, 0
2, 129260, Note_on_c, 0, 70, 67
2, 129376, Note_on_c, 0, 70, 0
2, 129380, Note_on_c, 0, 69, 70
2, 129496, Note_on_c, 0, 69, 0
2, 129500, Note_on_c, 0, 67, 57
2, 129616, Note_on_c, 0, 67, 0
2, 129620, Note_on_c, 0, 66, 81
2, 129680, Note_on_c, 0, 66, 0
2, 129740, Note_on_c, 0, 72, 63
2, 129856, Note_on_c, 0, 72, 0
2, 129860, Note_on_c, 0, 71, 77
2, 129976, Note_on_c, 0, 71, 0
2, 129980, Note_on_c, 0, 72, 91
2, 130096, Note_on_c, 0, 72, 0
2, 130100, Note_on_c, 0, 74, 93
2, 130216, Note_on_c, 0, 74, 0
2, 130220, Note_on_c, 0, 72, 86
2, 130336, Note_on_c, 0, 72, 0
2, 130340, Note_on_c, 0, 71, 80
2, 130456, Note_on_c, 0, 71, 0
2, 130460, Note_on_c, 0, 72, 102
2, 130576, Note_on_c, 0, 72, 0
2, 130580, Note_on_c, 0, 78, 106
2, 130640, Note_on_c, 0, 78, 0
2, 130700, Note_on_c, 0, 72, 68
2, 130816, Note_on_c, 0, 72, 0
2, 130820, Note_on_c, 0, 71, 83
2, 130936, Note_on_c, 0, 71, 0
2, 130940, Note_on_c, 0, 72, 77
2, 131056, Note_on_c, 0, 72, 0
2, 131060, Note_on_c, 0, 74, 77
2, 131176, Note_on_c, 0, 74, 0
2, 131180, Note_on_c, 0, 72, 50
2, 131296, Note_on_c, 0, 72, 0
2, 131300, Note_on_c, 0, 71, 71
2, 131416, Note_on_c, 0, 71, 0
2, 131420, Note_on_c, 0, 72, 68
2, 131536, Note_on_c, 0, 72, 0
2, 131540, Note_on_c, 0, 81, 77
2, 131600, Note_on_c, 0, 81, 0
2, 131660, Note_on_c, 0, 72, 77
2, 131780, Note_on_c, 0, 72, 0
2, 131780, Note_on_c, 0, 71, 77
2, 131900, Note_on_c, 0, 71, 0
2, 131900, Note_on_c, 0, 72, 77
2, 132020, Note_on_c, 0, 72, 0
2, 132020, Note_on_c, 0, 74, 77
2, 132140, Note_on_c, 0, 74, 0
2, 132140, Note_on_c, 0, 72, 77
2, 132260, Note_on_c, 0, 72, 0
2, 132260, Note_on_c, 0, 71, 77
2, 132380, Note_on_c, 0, 71, 0
2, 132380, Note_on_c, 0, 69, 77
2, 132500, Note_on_c, 0, 69, 0
2, 132500, Note_on_c, 0, 71, 100
2, 132740, Note_on_c, 0, 71, 0
2, 132740, Note_on_c, 0, 66, 84
2, 132980, Note_on_c, 0, 66, 0
2, 132980, Note_on_c, 0, 66, 69
2, 133216, Note_on_c, 0, 66, 0
2, 133220, Note_on_c, 0, 67, 82
2, 133460, Note_on_c, 0, 67, 0
2, 133460, Note_on_c, 0, 67, 91
2, 133700, Note_on_c, 0, 67, 0
2, 133700, Note_on_c, 0, 60, 77
2, 133940, Note_on_c, 0, 60, 0
2, 133940, Note_on_c, 0, 60, 71
2, 134176, Note_on_c, 0, 60, 0
2, 134180, Note_on_c, 0, 59, 68
2, 134416, Note_on_c, 0, 59, 0
2, 134420, Note_on_c, 0, 59, 85
2, 135380, Note_on_c, 0, 59, 0
2, 136800, End_track
3, 0, Start_track
3, 0, Title_t, "goldberg.mid"
3, 740, Note_on_c, 2, 59, 96
3, 976, Note_on_c, 2, 59, 0
3, 980, Note_on_c, 2, 62, 96
3, 3616, Note_on_c, 2, 62, 0
3, 3620, Note_on_c, 2, 57, 97
3, 3856, Note_on_c, 2, 57, 0
3, 3860, Note_on_c, 2, 62, 93
3, 6496, Note_on_c, 2, 62, 0
3, 6500, Note_on_c, 2, 59, 102
3, 6736, Note_on_c, 2, 59, 0
3, 6740, Note_on_c, 2, 61, 97
3, 8660, Note_on_c, 2, 61, 0
3, 9380, Note_on_c, 2, 54, 110
3, 9616, Note_on_c, 2, 54, 0
3, 9620, Note_on_c, 2, 57, 106
3, 11540, Note_on_c, 2, 57, 0
3, 12260, Note_on_c, 2, 50, 93
3, 12496, Note_on_c, 2, 50, 0
3, 12500, Note_on_c, 2, 55, 100
3, 15136, Note_on_c, 2, 55, 0
3, 15140, Note_on_c, 2, 54, 115
3, 15376, Note_on_c, 2, 54, 0
3, 15380, Note_on_c, 2, 55, 96
3, 18016, Note_on_c, 2, 55, 0
3, 18020, Note_on_c, 2, 52, 101
3, 18256, Note_on_c, 2, 52, 0
3, 18260, Note_on_c, 2, 54, 110
3, 20416, Note_on_c, 2, 54, 0
3, 20900, Note_on_c, 2, 50, 97
3, 21136, Note_on_c, 2, 50, 0
3, 21140, Note_on_c, 2, 55, 86
3, 22100, Note_on_c, 2, 55, 0
3, 23540, Note_on_c, 2, 59, 111
3, 24016, Note_on_c, 2, 59, 0
3, 24020, Note_on_c, 2, 64, 109
3, 26416, Note_on_c, 2, 64, 0
3, 26420, Note_on_c, 2, 57, 97
3, 26896, Note_on_c, 2, 57, 0
3, 26900, Note_on_c, 2, 62, 90
3, 29296, Note_on_c, 2, 62, 0
3, 29300, Note_on_c, 2, 59, 98
3, 29776, Note_on_c, 2, 59, 0
3, 29780, Note_on_c, 2, 55, 101
3, 31936, Note_on_c, 2, 55, 0
3, 31940, Note_on_c, 2, 57, 97
3, 32176, Note_on_c, 2, 57, 0
3, 32180, Note_on_c, 2, 55, 91
3, 32416, Note_on_c, 2, 55, 0
3, 32420, Note_on_c, 2, 54, 97
3, 32656, Note_on_c, 2, 54, 0
3, 32660, Note_on_c, 2, 55, 91
3, 33140, Note_on_c, 2, 55, 0
3, 35060, Note_on_c, 2, 57, 90
3, 35540, Note_on_c, 2, 57, 0
3, 35540, Note_on_c, 2, 62, 104
3, 36976, Note_on_c, 2, 62, 0
3, 36980, Note_on_c, 2, 57, 104
3, 37456, Note_on_c, 2, 57, 0
3, 37460, Note_on_c, 2, 55, 102
3, 37936, Note_on_c, 2, 55, 0
3, 37940, Note_on_c, 2, 59, 109
3, 38416, Note_on_c, 2, 59, 0
3, 38420, Note_on_c, 2, 64, 115
3, 39856, Note_on_c, 2, 64, 0
3, 39860, Note_on_c, 2, 62, 98
3, 40336, Note_on_c, 2, 62, 0
3, 40340, Note_on_c, 2, 57, 106
3, 40816, Note_on_c, 2, 57, 0
3, 40820, Note_on_c, 2, 61, 110
3, 41296, Note_on_c, 2, 61, 0
3, 41300, Note_on_c, 2, 67, 117
3, 41776, Note_on_c, 2, 67, 0
3, 41780, Note_on_c, 2, 64, 90
3, 42256, Note_on_c, 2, 64, 0
3, 42260, Note_on_c, 2, 61, 84
3, 43220, Note_on_c, 2, 61, 0
3, 43220, Note_on_c, 2, 62, 100
3, 43696, Note_on_c, 2, 62, 0
3, 43700, Note_on_c, 2, 52, 90
3, 44176, Note_on_c, 2, 52, 0
3, 44180, Note_on_c, 2, 54, 94
3, 44656, Note_on_c, 2, 54, 0
3, 44660, Note_on_c, 2, 58, 90
3, 45136, Note_on_c, 2, 58, 0
3, 45140, Note_on_c, 2, 57, 88
3, 46100, Note_on_c, 2, 57, 0
3, 46820, Note_on_c, 2, 59, 96
3, 47056, Note_on_c, 2, 59, 0
3, 47060, Note_on_c, 2, 62, 96
3, 49696, Note_on_c, 2, 62, 0
3, 49700, Note_on_c, 2, 57, 97
3, 49936, Note_on_c, 2, 57, 0
3, 49940, Note_on_c, 2, 62, 93
3, 52576, Note_on_c, 2, 62, 0
3, 52580, Note_on_c, 2, 59, 102
3, 52816, Note_on_c, 2, 59, 0
3, 52820, Note_on_c, 2, 61, 97
3, 54740, Note_on_c, 2, 61, 0
3, 55460, Note_on_c, 2, 54, 110
3, 55696, Note_on_c, 2, 54, 0
3, 55700, Note_on_c, 2, 57, 106
3, 57620, Note_on_c, 2, 57, 0
3, 58340, Note_on_c, 2, 50, 93
3, 58576, Note_on_c, 2, 50, 0
3, 58580, Note_on_c, 2, 55, 100
3, 61216, Note_on_c, 2, 55, 0
3, 61220, Note_on_c, 2, 54, 115
3, 61456, Note_on_c, 2, 54, 0
3, 61460, Note_on_c, 2, 55, 96
3, 64096, Note_on_c, 2, 55, 0
3, 64100, Note_on_c, 2, 52, 101
3, 64336, Note_on_c, 2, 52, 0
3, 64340, Note_on_c, 2, 54, 110
3, 66496, Note_on_c, 2, 54, 0
3, 66980, Note_on_c, 2, 50, 97
3, 67216, Note_on_c, 2, 50, 0
3, 67220, Note_on_c, 2, 55, 86
3, 68180, Note_on_c, 2, 55, 0
3, 69620, Note_on_c, 2, 59, 111
3, 70096, Note_on_c, 2, 59, 0
3, 70100, Note_on_c, 2, 64, 109
3, 72496, Note_on_c, 2, 64, 0
3, 72500, Note_on_c, 2, 57, 97
3, 72976, Note_on_c, 2, 57, 0
3, 72980, Note_on_c, 2, 62, 90
3, 75376, Note_on_c, 2, 62, 0
3, 75380, Note_on_c, 2, 59, 98
3, 75856, Note_on_c, 2, 59, 0
3, 75860, Note_on_c, 2, 55, 101
3, 78016, Note_on_c, 2, 55, 0
3, 78020, Note_on_c, 2, 57, 97
3, 78256, Note_on_c, 2, 57, 0
3, 78260, Note_on_c, 2, 55, 91
3, 78496, Note_on_c, 2, 55, 0
3, 78500, Note_on_c, 2, 54, 97
3, 78736, Note_on_c, 2, 54, 0
3, 78740, Note_on_c, 2, 55, 91
3, 79220, Note_on_c, 2, 55, 0
3, 81140, Note_on_c, 2, 57, 90
3, 81620, Note_on_c, 2, 57, 0
3, 81620, Note_on_c, 2, 62, 104
3, 83056, Note_on_c, 2, 62, 0
3, 83060, Note_on_c, 2, 57, 104
3, 83536, Note_on_c, 2, 57, 0
3, 83540, Note_on_c, 2, 55, 102
3, 84016, Note_on_c, 2, 55, 0
3, 84020, Note_on_c, 2, 59, 109
3, 84496, Note_on_c, 2, 59, 0
3, 84500, Note_on_c, 2, 64, 115
3, 85936, Note_on_c, 2, 64, 0
3, 85940, Note_on_c, 2, 62, 98
3, 86416, Note_on_c, 2, 62, 0
3, 86420, Note_on_c, 2, 57, 106
3, 86896, Note_on_c, 2, 57, 0
3, 86900, Note_on_c, 2, 61, 110
3, 87376, Note_on_c, 2, 61, 0
3, 87380, Note_on_c, 2, 67, 117
3, 87856, Note_on_c, 2, 67, 0
3, 87860, Note_on_c, 2, 64, 90
3, 88336, Note_on_c, 2, 64, 0
3, 88340, Note_on_c, 2, 61, 84
3, 89300, Note_on_c, 2, 61, 0
3, 89300, Note_on_c, 2, 62, 100
3, 89776, Note_on_c, 2, 62, 0
3, 89780, Note_on_c, 2, 52, 90
3, 90256, Note_on_c, 2, 52, 0
3, 90260, Note_on_c, 2, 54, 94
3, 90736, Note_on_c, 2, 54, 0
3, 90740, Note_on_c, 2, 58, 90
3, 91216, Note_on_c, 2, 58, 0
3, 91220, Note_on_c, 2, 57, 88
3, 92180, Note_on_c, 2, 57, 0
3, 92900, Note_on_c, 2, 62, 101
3, 93136, Note_on_c, 2, 62, 0
3, 93140, Note_on_c, 2, 67, 100
3, 95776, Note_on_c, 2, 67, 0
3, 95780, Note_on_c, 2, 66, 108
3, 96016, Note_on_c, 2, 66, 0
3, 96020, Note_on_c, 2, 67, 100
3, 96496, Note_on_c, 2, 67, 0
3, 96500, Note_on_c, 2, 59, 100
3, 96976, Note_on_c, 2, 59, 0
3, 96980, Note_on_c, 2, 64, 102
3, 97456, Note_on_c, 2, 64, 0
3, 97460, Note_on_c, 2, 67, 107
3, 98416, Note_on_c, 2, 67, 0
3, 98420, Note_on_c, 2, 66, 110
3, 98656, Note_on_c, 2, 66, 0
3, 98660, Note_on_c, 2, 64, 104
3, 98896, Note_on_c, 2, 64, 0
3, 98900, Note_on_c, 2, 66, 97
3, 99616, Note_on_c, 2, 66, 0
3, 101300, Note_on_c, 2, 59, 113
3, 102256, Note_on_c, 2, 59, 0
3, 102260, Note_on_c, 2, 57, 106
3, 103216, Note_on_c, 2, 57, 0
3, 103220, Note_on_c, 2, 56, 102
3, 103696, Note_on_c, 2, 56, 0
3, 104180, Note_on_c, 2, 60, 117
3, 105136, Note_on_c, 2, 60, 0
3, 105140, Note_on_c, 2, 64, 98
3, 105616, Note_on_c, 2, 64, 0
3, 105620, Note_on_c, 2, 60, 97
3, 106096, Note_on_c, 2, 60, 0
3, 106100, Note_on_c, 2, 57, 107
3, 106576, Note_on_c, 2, 57, 0
3, 107060, Note_on_c, 2, 54, 112
3, 107536, Note_on_c, 2, 54, 0
3, 107540, Note_on_c, 2, 55, 107
3, 108016, Note_on_c, 2, 55, 0
3, 108020, Note_on_c, 2, 64, 115
3, 108976, Note_on_c, 2, 64, 0
3, 108980, Note_on_c, 2, 63, 119
3, 109456, Note_on_c, 2, 63, 0
3, 109460, Note_on_c, 2, 64, 104
3, 109936, Note_on_c, 2, 64, 0
3, 109940, Note_on_c, 2, 54, 106
3, 110416, Note_on_c, 2, 54, 0
3, 110420, Note_on_c, 2, 55, 91
3, 110896, Note_on_c, 2, 55, 0
3, 110900, Note_on_c, 2, 60, 98
3, 111376, Note_on_c, 2, 60, 0
3, 111380, Note_on_c, 2, 59, 84
3, 111860, Note_on_c, 2, 59, 0
3, 113060, Note_on_c, 2, 55, 96
3, 113296, Note_on_c, 2, 55, 0
3, 113300, Note_on_c, 2, 60, 97
3, 113536, Note_on_c, 2, 60, 0
3, 113540, Note_on_c, 2, 62, 98
3, 113776, Note_on_c, 2, 62, 0
3, 113780, Note_on_c, 2, 64, 100
3, 114256, Note_on_c, 2, 64, 0
3, 114260, Note_on_c, 2, 62, 102
3, 114736, Note_on_c, 2, 62, 0
3, 114740, Note_on_c, 2, 61, 101
3, 115216, Note_on_c, 2, 61, 0
3, 115220, Note_on_c, 2, 59, 106
3, 115936, Note_on_c, 2, 59, 0
3, 115940, Note_on_c, 2, 54, 94
3, 116176, Note_on_c, 2, 54, 0
3, 116180, Note_on_c, 2, 59, 91
3, 116416, Note_on_c, 2, 59, 0
3, 116420, Note_on_c, 2, 60, 102
3, 116656, Note_on_c, 2, 60, 0
3, 116660, Note_on_c, 2, 62, 100
3, 117136, Note_on_c, 2, 62, 0
3, 117140, Note_on_c, 2, 60, 100
3, 117616, Note_on_c, 2, 60, 0
3, 117620, Note_on_c, 2, 59, 98
3, 118096, Note_on_c, 2, 59, 0
3, 118100, Note_on_c, 2, 57, 97
3, 118576, Note_on_c, 2, 57, 0
3, 118580, Note_on_c, 2, 52, 111
3, 119056, Note_on_c, 2, 52, 0
3, 119060, Note_on_c, 2, 57, 107
3, 119536, Note_on_c, 2, 57, 0
3, 119540, Note_on_c, 2, 60, 104
3, 120016, Note_on_c, 2, 60, 0
3, 120020, Note_on_c, 2, 57, 107
3, 120496, Note_on_c, 2, 57, 0
3, 120500, Note_on_c, 2, 54, 108
3, 120976, Note_on_c, 2, 54, 0
3, 120980, Note_on_c, 2, 50, 113
3, 121940, Note_on_c, 2, 50, 0
3, 124340, Note_on_c, 2, 64, 111
3, 124816, Note_on_c, 2, 64, 0
3, 124820, Note_on_c, 2, 63, 108
3, 125296, Note_on_c, 2, 63, 0
3, 125300, Note_on_c, 2, 62, 106
3, 125776, Note_on_c, 2, 62, 0
3, 125780, Note_on_c, 2, 67, 100
3, 126256, Note_on_c, 2, 67, 0
3, 126260, Note_on_c, 2, 59, 107
3, 126736, Note_on_c, 2, 59, 0
3, 126740, Note_on_c, 2, 60, 100
3, 127216, Note_on_c, 2, 60, 0
3, 127220, Note_on_c, 2, 55, 104
3, 127696, Note_on_c, 2, 55, 0
3, 127700, Note_on_c, 2, 57, 106
3, 128176, Note_on_c, 2, 57, 0
3, 128180, Note_on_c, 2, 62, 115
3, 128656, Note_on_c, 2, 62, 0
3, 128660, Note_on_c, 2, 64, 109
3, 129136, Note_on_c, 2, 64, 0
3, 129140, Note_on_c, 2, 57, 102
3, 130096, Note_on_c, 2, 57, 0
3, 130100, Note_on_c, 2, 57, 104
3, 130336, Note_on_c, 2, 57, 0
3, 130340, Note_on_c, 2, 55, 104
3, 130576, Note_on_c, 2, 55, 0
3, 130580, Note_on_c, 2, 57, 101
3, 131540, Note_on_c, 2, 57, 0
3, 131540, Note_on_c, 2, 55, 98
3, 132016, Note_on_c, 2, 55, 0
3, 132020, Note_on_c, 2, 54, 110
3, 132496, Note_on_c, 2, 54, 0
3, 132500, Note_on_c, 2, 55, 96
3, 132976, Note_on_c, 2, 55, 0
3, 132980, Note_on_c, 2, 57, 97
3, 133456, Note_on_c, 2, 57, 0
3, 133460, Note_on_c, 2, 59, 104
3, 133936, Note_on_c, 2, 59, 0
3, 133940, Note_on_c, 2, 54, 97
3, 134416, Note_on_c, 2, 54, 0
3, 134420, Note_on_c, 2, 50, 52
3, 134420, Note_on_c, 2, 55, 96
3, 135380, Note_on_c, 2, 50, 0
3, 135380, Note_on_c, 2, 55, 0
3, 136800, End_track
4, 0, Start_track
4, 0, Title_t, "goldberg.mid"
4, 20, Note_on_c, 3, 55, 91
4, 1460, Note_on_c, 3, 55, 0
4, 1460, Note_on_c, 3, 55, 84
4, 1936, Note_on_c, 3, 55, 0
4, 1940, Note_on_c, 3, 54, 89
4, 2416, Note_on_c, 3, 54, 0
4, 2420, Note_on_c, 3, 52, 92
4, 2896, Note_on_c, 3, 52, 0
4, 2900, Note_on_c, 3, 54, 90
4, 4336, Note_on_c, 3, 54, 0
4, 4340, Note_on_c, 3, 59, 97
4, 4816, Note_on_c, 3, 59, 0
4, 4820, Note_on_c, 3, 57, 95
4, 5296, Note_on_c, 3, 57, 0
4, 5300, Note_on_c, 3, 59, 98
4, 5776, Note_on_c, 3, 59, 0
4, 5780, Note_on_c, 3, 52, 97
4, 7216, Note_on_c, 3, 52, 0
4, 7220, Note_on_c, 3, 57, 93
4, 7696, Note_on_c, 3, 57, 0
4, 7700, Note_on_c, 3, 55, 91
4, 8176, Note_on_c, 3, 55, 0
4, 8180, Note_on_c, 3, 57, 96
4, 8656, Note_on_c, 3, 57, 0
4, 8660, Note_on_c, 3, 50, 97
4, 10096, Note_on_c, 3, 50, 0
4, 10100, Note_on_c, 3, 52, 98
4, 10576, Note_on_c, 3, 52, 0
4, 10580, Note_on_c, 3, 50, 97
4, 11056, Note_on_c, 3, 50, 0
4, 11060, Note_on_c, 3, 48, 96
4, 11536, Note_on_c, 3, 48, 0
4, 11540, Note_on_c, 3, 47, 102
4, 12976, Note_on_c, 3, 47, 0
4, 12980, Note_on_c, 3, 43, 86
4, 13460, Note_on_c, 3, 43, 0
4, 13460, Note_on_c, 3, 45, 97
4, 13936, Note_on_c, 3, 45, 0
4, 13940, Note_on_c, 3, 47, 102
4, 14416, Note_on_c, 3, 47, 0
4, 14420, Note_on_c, 3, 48, 100
4, 15856, Note_on_c, 3, 48, 0
4, 15860, Note_on_c, 3, 45, 96
4, 16336, Note_on_c, 3, 45, 0
4, 16340, Note_on_c, 3, 47, 102
4, 16816, Note_on_c, 3, 47, 0
4, 16820, Note_on_c, 3, 48, 107
4, 17296, Note_on_c, 3, 48, 0
4, 17300, Note_on_c, 3, 50, 101
4, 18736, Note_on_c, 3, 50, 0
4, 18740, Note_on_c, 3, 50, 96
4, 19216, Note_on_c, 3, 50, 0
4, 19220, Note_on_c, 3, 48, 102
4, 19696, Note_on_c, 3, 48, 0
4, 19700, Note_on_c, 3, 50, 100
4, 20176, Note_on_c, 3, 50, 0
4, 20180, Note_on_c, 3, 43, 117
4, 21616, Note_on_c, 3, 43, 0
4, 21620, Note_on_c, 3, 43, 106
4, 22096, Note_on_c, 3, 43, 0
4, 22100, Note_on_c, 3, 47, 102
4, 22576, Note_on_c, 3, 47, 0
4, 22580, Note_on_c, 3, 50, 100
4, 23056, Note_on_c, 3, 50, 0
4, 23060, Note_on_c, 3, 55, 100
4, 24500, Note_on_c, 3, 55, 0
4, 24500, Note_on_c, 3, 55, 104
4, 24976, Note_on_c, 3, 55, 0
4, 24980, Note_on_c, 3, 54, 112
4, 25456, Note_on_c, 3, 54, 0
4, 25460, Note_on_c, 3, 52, 102
4, 25936, Note_on_c, 3, 52, 0
4, 25940, Note_on_c, 3, 54, 92
4, 27376, Note_on_c, 3, 54, 0
4, 27380, Note_on_c, 3, 59, 109
4, 27856, Note_on_c, 3, 59, 0
4, 27860, Note_on_c, 3, 57, 97
4, 28336, Note_on_c, 3, 57, 0
4, 28340, Note_on_c, 3, 59, 101
4, 28816, Note_on_c, 3, 59, 0
4, 28820, Note_on_c, 3, 52, 101
4, 30256, Note_on_c, 3, 52, 0
4, 30260, Note_on_c, 3, 54, 104
4, 30736, Note_on_c, 3, 54, 0
4, 30740, Note_on_c, 3, 52, 100
4, 31216, Note_on_c, 3, 52, 0
4, 31220, Note_on_c, 3, 50, 88
4, 31696, Note_on_c, 3, 50, 0
4, 31700, Note_on_c, 3, 49, 94
4, 33136, Note_on_c, 3, 49, 0
4, 33140, Note_on_c, 3, 52, 115
4, 33616, Note_on_c, 3, 52, 0
4, 33620, Note_on_c, 3, 45, 113
4, 34096, Note_on_c, 3, 45, 0
4, 34100, Note_on_c, 3, 43, 104
4, 34576, Note_on_c, 3, 43, 0
4, 34580, Note_on_c, 3, 42, 115
4, 35056, Note_on_c, 3, 42, 0
4, 35060, Note_on_c, 3, 54, 119
4, 35420, Note_on_c, 3, 54, 0
4, 35420, Note_on_c, 3, 52, 107
4, 35536, Note_on_c, 3, 52, 0
4, 35540, Note_on_c, 3, 54, 117
4, 36016, Note_on_c, 3, 54, 0
4, 36020, Note_on_c, 3, 57, 109
4, 36496, Note_on_c, 3, 57, 0
4, 36500, Note_on_c, 3, 50, 109
4, 36976, Note_on_c, 3, 50, 0
4, 36980, Note_on_c, 3, 54, 115
4, 37456, Note_on_c, 3, 54, 0
4, 37460, Note_on_c, 3, 43, 115
4, 37936, Note_on_c, 3, 43, 0
4, 37940, Note_on_c, 3, 55, 113
4, 38296, Note_on_c, 3, 55, 0
4, 38300, Note_on_c, 3, 54, 117
4, 38416, Note_on_c, 3, 54, 0
4, 38420, Note_on_c, 3, 55, 113
4, 38896, Note_on_c, 3, 55, 0
4, 38900, Note_on_c, 3, 59, 109
4, 39376, Note_on_c, 3, 59, 0
4, 39380, Note_on_c, 3, 52, 98
4, 39856, Note_on_c, 3, 52, 0
4, 39860, Note_on_c, 3, 55, 102
4, 40336, Note_on_c, 3, 55, 0
4, 40340, Note_on_c, 3, 45, 107
4, 40816, Note_on_c, 3, 45, 0
4, 40820, Note_on_c, 3, 57, 117
4, 41172, Note_on_c, 3, 57, 0
4, 41180, Note_on_c, 3, 55, 117
4, 41300, Note_on_c, 3, 55, 0
4, 41300, Note_on_c, 3, 57, 106
4, 42736, Note_on_c, 3, 57, 0
4, 42740, Note_on_c, 3, 57, 96
4, 43216, Note_on_c, 3, 57, 0
4, 43220, Note_on_c, 3, 50, 96
4, 46100, Note_on_c, 3, 50, 0
4, 46100, Note_on_c, 3, 55, 91
4, 47540, Note_on_c, 3, 55, 0
4, 47540, Note_on_c, 3, 55, 84
4, 48016, Note_on_c, 3, 55, 0
4, 48020, Note_on_c, 3, 54, 89
4, 48496, Note_on_c, 3, 54, 0
4, 48500, Note_on_c, 3, 52, 92
4, 48976, Note_on_c, 3, 52, 0
4, 48980, Note_on_c, 3, 54, 90
4, 50416, Note_on_c, 3, 54, 0
4, 50420, Note_on_c, 3, 59, 97
4, 50896, Note_on_c, 3, 59, 0
4, 50900, Note_on_c, 3, 57, 95
4, 51376, Note_on_c, 3, 57, 0
4, 51380, Note_on_c, 3, 59, 98
4, 51856, Note_on_c, 3, 59, 0
4, 51860, Note_on_c, 3, 52, 97
4, 53296, Note_on_c, 3, 52, 0
4, 53300, Note_on_c, 3, 57, 93
4, 53776, Note_on_c, 3, 57, 0
4, 53780, Note_on_c, 3, 55, 91
4, 54256, Note_on_c, 3, 55, 0
4, 54260, Note_on_c, 3, 57, 96
4, 54736, Note_on_c, 3, 57, 0
4, 54740, Note_on_c, 3, 50, 97
4, 56176, Note_on_c, 3, 50, 0
4, 56180, Note_on_c, 3, 52, 98
4, 56656, Note_on_c, 3, 52, 0
4, 56660, Note_on_c, 3, 50, 97
4, 57136, Note_on_c, 3, 50, 0
4, 57140, Note_on_c, 3, 48, 96
4, 57616, Note_on_c, 3, 48, 0
4, 57620, Note_on_c, 3, 47, 102
4, 59056, Note_on_c, 3, 47, 0
4, 59060, Note_on_c, 3, 43, 86
4, 59540, Note_on_c, 3, 43, 0
4, 59540, Note_on_c, 3, 45, 97
4, 60016, Note_on_c, 3, 45, 0
4, 60020, Note_on_c, 3, 47, 102
4, 60496, Note_on_c, 3, 47, 0
4, 60500, Note_on_c, 3, 48, 100
4, 61936, Note_on_c, 3, 48, 0
4, 61940, Note_on_c, 3, 45, 96
4, 62416, Note_on_c, 3, 45, 0
4, 62420, Note_on_c, 3, 47, 102
4, 62896, Note_on_c, 3, 47, 0
4, 62900, Note_on_c, 3, 48, 107
4, 63376, Note_on_c, 3, 48, 0
4, 63380, Note_on_c, 3, 50, 101
4, 64816, Note_on_c, 3, 50, 0
4, 64820, Note_on_c, 3, 50, 96
4, 65296, Note_on_c, 3, 50, 0
4, 65300, Note_on_c, 3, 48, 102
4, 65776, Note_on_c, 3, 48, 0
4, 65780, Note_on_c, 3, 50, 100
4, 66256, Note_on_c, 3, 50, 0
4, 66260, Note_on_c, 3, 43, 117
4, 67696, Note_on_c, 3, 43, 0
4, 67700, Note_on_c, 3, 43, 106
4, 68176, Note_on_c, 3, 43, 0
4, 68180, Note_on_c, 3, 47, 102
4, 68656, Note_on_c, 3, 47, 0
4, 68660, Note_on_c, 3, 50, 100
4, 69136, Note_on_c, 3, 50, 0
4, 69140, Note_on_c, 3, 55, 100
4, 70580, Note_on_c, 3, 55, 0
4, 70580, Note_on_c, 3, 55, 104
4, 71056, Note_on_c, 3, 55, 0
4, 71060, Note_on_c, 3, 54, 112
4, 71536, Note_on_c, 3, 54, 0
4, 71540, Note_on_c, 3, 52, 102
4, 72016, Note_on_c, 3, 52, 0
4, 72020, Note_on_c, 3, 54, 92
4, 73456, Note_on_c, 3, 54, 0
4, 73460, Note_on_c, 3, 59, 109
4, 73936, Note_on_c, 3, 59, 0
4, 73940, Note_on_c, 3, 57, 97
4, 74416, Note_on_c, 3, 57, 0
4, 74420, Note_on_c, 3, 59, 101
4, 74896, Note_on_c, 3, 59, 0
4, 74900, Note_on_c, 3, 52, 101
4, 76336, Note_on_c, 3, 52, 0
4, 76340, Note_on_c, 3, 54, 104
4, 76816, Note_on_c, 3, 54, 0
4, 76820, Note_on_c, 3, 52, 100
4, 77296, Note_on_c, 3, 52, 0
4, 77300, Note_on_c, 3, 50, 88
4, 77776, Note_on_c, 3, 50, 0
4, 77780, Note_on_c, 3, 49, 94
4, 79216, Note_on_c, 3, 49, 0
4, 79220, Note_on_c, 3, 52, 115
4, 79696, Note_on_c, 3, 52, 0
4, 79700, Note_on_c, 3, 45, 113
4, 80176, Note_on_c, 3, 45, 0
4, 80180, Note_on_c, 3, 43, 104
4, 80656, Note_on_c, 3, 43, 0
4, 80660, Note_on_c, 3, 42, 115
4, 81136, Note_on_c, 3, 42, 0
4, 81140, Note_on_c, 3, 54, 119
4, 81500, Note_on_c, 3, 54, 0
4, 81500, Note_on_c, 3, 52, 107
4, 81616, Note_on_c, 3, 52, 0
4, 81620, Note_on_c, 3, 54, 117
4, 82096, Note_on_c, 3, 54, 0
4, 82100, Note_on_c, 3, 57, 109
4, 82576, Note_on_c, 3, 57, 0
4, 82580, Note_on_c, 3, 50, 109
4, 83056, Note_on_c, 3, 50, 0
4, 83060, Note_on_c, 3, 54, 115
4, 83536, Note_on_c, 3, 54, 0
4, 83540, Note_on_c, 3, 43, 115
4, 84016, Note_on_c, 3, 43, 0
4, 84020, Note_on_c, 3, 55, 113
4, 84376, Note_on_c, 3, 55, 0
4, 84380, Note_on_c, 3, 54, 117
4, 84496, Note_on_c, 3, 54, 0
4, 84500, Note_on_c, 3, 55, 113
4, 84976, Note_on_c, 3, 55, 0
4, 84980, Note_on_c, 3, 59, 109
4, 85456, Note_on_c, 3, 59, 0
4, 85460, Note_on_c, 3, 52, 98
4, 85936, Note_on_c, 3, 52, 0
4, 85940, Note_on_c, 3, 55, 102
4, 86416, Note_on_c, 3, 55, 0
4, 86420, Note_on_c, 3, 45, 107
4, 86896, Note_on_c, 3, 45, 0
4, 86900, Note_on_c, 3, 57, 117
4, 87252, Note_on_c, 3, 57, 0
4, 87260, Note_on_c, 3, 55, 117
4, 87380, Note_on_c, 3, 55, 0
4, 87380, Note_on_c, 3, 57, 106
4, 88816, Note_on_c, 3, 57, 0
4, 88820, Note_on_c, 3, 57, 96
4, 89296, Note_on_c, 3, 57, 0
4, 89300, Note_on_c, 3, 50, 96
4, 92180, Note_on_c, 3, 50, 0
4, 92180, Note_on_c, 3, 59, 97
4, 93616, Note_on_c, 3, 59, 0
4, 93620, Note_on_c, 3, 62, 106
4, 94096, Note_on_c, 3, 62, 0
4, 94100, Note_on_c, 3, 55, 97
4, 94576, Note_on_c, 3, 55, 0
4, 94580, Note_on_c, 3, 59, 92
4, 95056, Note_on_c, 3, 59, 0
4, 95060, Note_on_c, 3, 60, 100
4, 96496, Note_on_c, 3, 60, 0
4, 96500, Note_on_c, 3, 59, 101
4, 96976, Note_on_c, 3, 59, 0
4, 96980, Note_on_c, 3, 60, 93
4, 97456, Note_on_c, 3, 60, 0
4, 97460, Note_on_c, 3, 57, 100
4, 97936, Note_on_c, 3, 57, 0
4, 97940, Note_on_c, 3, 59, 100
4, 99376, Note_on_c, 3, 59, 0
4, 99380, Note_on_c, 3, 47, 124
4, 99856, Note_on_c, 3, 47, 0
4, 99860, Note_on_c, 3, 49, 121
4, 100336, Note_on_c, 3, 49, 0
4, 100340, Note_on_c, 3, 51, 112
4, 100816, Note_on_c, 3, 51, 0
4, 100820, Note_on_c, 3, 40, 119
4, 101296, Note_on_c, 3, 40, 0
4, 101300, Note_on_c, 3, 55, 98
4, 101536, Note_on_c, 3, 55, 0
4, 101540, Note_on_c, 3, 57, 97
4, 101776, Note_on_c, 3, 57, 0
4, 101780, Note_on_c, 3, 55, 93
4, 102256, Note_on_c, 3, 55, 0
4, 102260, Note_on_c, 3, 54, 94
4, 102736, Note_on_c, 3, 54, 0
4, 102740, Note_on_c, 3, 52, 98
4, 103696, Note_on_c, 3, 52, 0
4, 103700, Note_on_c, 3, 45, 113
4, 104176, Note_on_c, 3, 45, 0
4, 104180, Note_on_c, 3, 57, 106
4, 104416, Note_on_c, 3, 57, 0
4, 104420, Note_on_c, 3, 55, 102
4, 104656, Note_on_c, 3, 55, 0
4, 104660, Note_on_c, 3, 57, 101
4, 105136, Note_on_c, 3, 57, 0
4, 105140, Note_on_c, 3, 60, 104
4, 105616, Note_on_c, 3, 60, 0
4, 105620, Note_on_c, 3, 57, 92
4, 106096, Note_on_c, 3, 57, 0
4, 106100, Note_on_c, 3, 54, 99
4, 106576, Note_on_c, 3, 54, 0
4, 106580, Note_on_c, 3, 47, 119
4, 107056, Note_on_c, 3, 47, 0
4, 107060, Note_on_c, 3, 51, 110
4, 107536, Note_on_c, 3, 51, 0
4, 107540, Note_on_c, 3, 52, 104
4, 108016, Note_on_c, 3, 52, 0
4, 108020, Note_on_c, 3, 55, 100
4, 108496, Note_on_c, 3, 55, 0
4, 108500, Note_on_c, 3, 59, 104
4, 109456, Note_on_c, 3, 59, 0
4, 109460, Note_on_c, 3, 52, 100
4, 111856, Note_on_c, 3, 52, 0
4, 111860, Note_on_c, 3, 50, 93
4, 112336, Note_on_c, 3, 50, 0
4, 112340, Note_on_c, 3, 48, 101
4, 113776, Note_on_c, 3, 48, 0
4, 113780, Note_on_c, 3, 60, 107
4, 114256, Note_on_c, 3, 60, 0
4, 114260, Note_on_c, 3, 59, 93
4, 114736, Note_on_c, 3, 59, 0
4, 114740, Note_on_c, 3, 58, 115
4, 115216, Note_on_c, 3, 58, 0
4, 115220, Note_on_c, 3, 59, 102
4, 115696, Note_on_c, 3, 59, 0
4, 115700, Note_on_c, 3, 47, 113
4, 116180, Note_on_c, 3, 47, 0
4, 116660, Note_on_c, 3, 59, 107
4, 117136, Note_on_c, 3, 59, 0
4, 117140, Note_on_c, 3, 57, 98
4, 117616, Note_on_c, 3, 57, 0
4, 117620, Note_on_c, 3, 56, 106
4, 118096, Note_on_c, 3, 56, 0
4, 118100, Note_on_c, 3, 57, 109
4, 118576, Note_on_c, 3, 57, 0
4, 118580, Note_on_c, 3, 45, 111
4, 119056, Note_on_c, 3, 45, 0
4, 121460, Note_on_c, 3, 45, 113
4, 121936, Note_on_c, 3, 45, 0
4, 121940, Note_on_c, 3, 38, 113
4, 122416, Note_on_c, 3, 38, 0
4, 122420, Note_on_c, 3, 42, 112
4, 122896, Note_on_c, 3, 42, 0
4, 122900, Note_on_c, 3, 45, 115
4, 123376, Note_on_c, 3, 45, 0
4, 123380, Note_on_c, 3, 50, 117
4, 123856, Note_on_c, 3, 50, 0
4, 123860, Note_on_c, 3, 43, 104
4, 124336, Note_on_c, 3, 43, 0
4, 124340, Note_on_c, 3, 55, 109
4, 124816, Note_on_c, 3, 55, 0
4, 124820, Note_on_c, 3, 57, 107
4, 125296, Note_on_c, 3, 57, 0
4, 125300, Note_on_c, 3, 59, 104
4, 125776, Note_on_c, 3, 59, 0
4, 126260, Note_on_c, 3, 55, 100
4, 126736, Note_on_c, 3, 55, 0
4, 126740, Note_on_c, 3, 48, 119
4, 127216, Note_on_c, 3, 48, 0
4, 127220, Note_on_c, 3, 52, 115
4, 127696, Note_on_c, 3, 52, 0
4, 127700, Note_on_c, 3, 53, 115
4, 128176, Note_on_c, 3, 53, 0
4, 128180, Note_on_c, 3, 54, 112
4, 128656, Note_on_c, 3, 54, 0
4, 128660, Note_on_c, 3, 55, 97
4, 129136, Note_on_c, 3, 55, 0
4, 129140, Note_on_c, 3, 54, 108
4, 129376, Note_on_c, 3, 54, 0
4, 129380, Note_on_c, 3, 52, 107
4, 129616, Note_on_c, 3, 52, 0
4, 129620, Note_on_c, 3, 50, 98
4, 131052, Note_on_c, 3, 50, 0
4, 131060, Note_on_c, 3, 54, 102
4, 131536, Note_on_c, 3, 54, 0
4, 131540, Note_on_c, 3, 52, 109
4, 132016, Note_on_c, 3, 52, 0
4, 132020, Note_on_c, 3, 50, 104
4, 132496, Note_on_c, 3, 50, 0
4, 132500, Note_on_c, 3, 43, 109
4, 133456, Note_on_c, 3, 43, 0
4, 134420, Note_on_c, 3, 43, 84
4, 135376, Note_on_c, 3, 43, 0
4, 136800, End_track
0, 0, End_of_file
