0, 0, Header, 1, 4, 480
1, 0, Start_track
1, 0, SMPTE_offset, 96, 0, 0, 0, 0
1, 0, Time_signature, 3, 2, 24, 8
1, 40, Tempo, 705882
1, 93600, End_track
2, 0, Start_track
2, 0, Title_t, "goldberg.mid"
2, 280, Note_on_c, 0, 67, 107
2, 396, Note_on_c, 0, 67, 0
2, 400, Note_on_c, 0, 66, 106
2, 516, Note_on_c, 0, 66, 0
2, 520, Note_on_c, 0, 67, 111
2, 756, Note_on_c, 0, 67, 0
2, 760, Note_on_c, 0, 69, 98
2, 876, Note_on_c, 0, 69, 0
2, 880, Note_on_c, 0, 71, 109
2, 996, Note_on_c, 0, 71, 0
2, 1000, Note_on_c, 0, 72, 106
2, 1116, Note_on_c, 0, 72, 0
2, 1120, Note_on_c, 0, 71, 104
2, 1236, Note_on_c, 0, 71, 0
2, 1240, Note_on_c, 0, 69, 96
2, 1356, Note_on_c, 0, 69, 0
2, 1360, Note_on_c, 0, 67, 91
2, 1476, Note_on_c, 0, 67, 0
2, 1480, Note_on_c, 0, 74, 97
2, 1596, Note_on_c, 0, 74, 0
2, 1600, Note_on_c, 0, 69, 88
2, 1716, Note_on_c, 0, 69, 0
2, 1720, Note_on_c, 0, 71, 91
2, 1836, Note_on_c, 0, 71, 0
2, 1840, Note_on_c, 0, 73, 108
2, 1956, Note_on_c, 0, 73, 0
2, 1960, Note_on_c, 0, 74, 101
2, 2076, Note_on_c, 0, 74, 0
2, 2080, Note_on_c, 0, 76, 106
2, 2196, Note_on_c, 0, 76, 0
2, 2200, Note_on_c, 0, 78, 104
2, 2316, Note_on_c, 0, 78, 0
2, 2320, Note_on_c, 0, 79, 115
2, 2436, Note_on_c, 0, 79, 0
2, 2440, Note_on_c, 0, 81, 109
2, 2680, Note_on_c, 0, 81, 0
2, 3160, Note_on_c, 0, 79, 101
2, 3276, Note_on_c, 0, 79, 0
2, 3280, Note_on_c, 0, 78, 82
2, 3396, Note_on_c, 0, 78, 0
2, 3400, Note_on_c, 0, 76, 100
2, 3516, Note_on_c, 0, 76, 0
2, 3520, Note_on_c, 0, 74, 95
2, 3636, Note_on_c, 0, 74, 0
2, 3640, Note_on_c, 0, 73, 92
2, 3756, Note_on_c, 0, 73, 0
2, 3760, Note_on_c, 0, 71, 95
2, 3876, Note_on_c, 0, 71, 0
2, 3880, Note_on_c, 0, 69, 93
2, 3996, Note_on_c, 0, 69, 0
2, 4000, Note_on_c, 0, 67, 101
2, 4116, Note_on_c, 0, 67, 0
2, 4120, Note_on_c, 0, 66, 108
2, 4236, Note_on_c, 0, 66, 0
2, 4240, Note_on_c, 0, 67, 96
2, 4356, Note_on_c, 0, 67, 0
2, 4360, Note_on_c, 0, 67, 89
2, 4420, Note_on_c, 0, 67, 0
2, 4420, Note_on_c, 0, 66, 89
2, 4480, Note_on_c, 0, 66, 0
2, 4480, Note_on_c, 0, 64, 71
2, 4540, Note_on_c, 0, 64, 0
2, 4540, Note_on_c, 0, 66, 93
2, 4600, Note_on_c, 0, 66, 0
2, 4600, Note_on_c, 0, 62, 109
2, 4840, Note_on_c, 0, 62, 0
2, 6040, Note_on_c, 0, 74, 115
2, 6400, Note_on_c, 0, 74, 0
2, 6400, Note_on_c, 0, 71, 101
2, 6516, Note_on_c, 0, 71, 0
2, 6520, Note_on_c, 0, 69, 90
2, 6636, Note_on_c, 0, 69, 0
2, 6640, Note_on_c, 0, 67, 88
2, 6756, Note_on_c, 0, 67, 0
2, 6760, Note_on_c, 0, 65, 97
2, 6876, Note_on_c, 0, 65, 0
2, 6880, Note_on_c, 0, 64, 90
2, 6996, Note_on_c, 0, 64, 0
2, 7000, Note_on_c, 0, 62, 93
2, 7116, Note_on_c, 0, 62, 0
2, 7120, Note_on_c, 0, 65, 91
2, 7236, Note_on_c, 0, 65, 0
2, 7240, Note_on_c, 0, 64, 102
2, 7356, Note_on_c, 0, 64, 0
2, 7360, Note_on_c, 0, 67, 101
2, 7476, Note_on_c, 0, 67, 0
2, 7480, Note_on_c, 0, 72, 95
2, 7596, Note_on_c, 0, 72, 0
2, 7600, Note_on_c, 0, 74, 104
2, 7716, Note_on_c, 0, 74, 0
2, 7720, Note_on_c, 0, 76, 107
2, 7956, Note_on_c, 0, 76, 0
2, 7960, Note_on_c, 0, 69, 107
2, 8436, Note_on_c, 0, 69, 0
2, 8440, Note_on_c, 0, 69, 83
2, 8796, Note_on_c, 0, 69, 0
2, 8800, Note_on_c, 0, 71, 83
2, 8916, Note_on_c, 0, 71, 0
2, 8920, Note_on_c, 0, 66, 68
2, 9036, Note_on_c, 0, 66, 0
2, 9040, Note_on_c, 0, 67, 72
2, 9156, Note_on_c, 0, 67, 0
2, 9160, Note_on_c, 0, 69, 73
2, 9276, Note_on_c, 0, 69, 0
2, 9280, Note_on_c, 0, 67, 69
2, 9396, Note_on_c, 0, 67, 0
2, 9400, Note_on_c, 0, 66, 84
2, 9516, Note_on_c, 0, 66, 0
2, 9520, Note_on_c, 0, 76, 109
2, 9636, Note_on_c, 0, 76, 0
2, 9640, Note_on_c, 0, 74, 109
2, 9756, Note_on_c, 0, 74, 0
2, 9760, Note_on_c, 0, 72, 109
2, 9876, Note_on_c, 0, 72, 0
2, 9880, Note_on_c, 0, 71, 88
2, 9996, Note_on_c, 0, 71, 0
2, 10000, Note_on_c, 0, 69, 83
2, 10116, Note_on_c, 0, 69, 0
2, 10120, Note_on_c, 0, 67, 98
2, 10600, Note_on_c, 0, 67, 0
2, 11680, Note_on_c, 0, 66, 121
2, 11796, Note_on_c, 0, 66, 0
2, 11800, Note_on_c, 0, 67, 104
2, 11916, Note_on_c, 0, 67, 0
2, 11920, Note_on_c, 0, 69, 101
2, 12036, Note_on_c, 0, 69, 0
2, 12040, Note_on_c, 0, 71, 101
2, 12156, Note_on_c, 0, 71, 0
2, 12160, Note_on_c, 0, 73, 101
2, 12276, Note_on_c, 0, 73, 0
2, 12280, Note_on_c, 0, 74, 97
2, 12396, Note_on_c, 0, 74, 0
2, 12400, Note_on_c, 0, 78, 110
2, 12516, Note_on_c, 0, 78, 0
2, 12520, Note_on_c, 0, 76, 113
2, 12636, Note_on_c, 0, 76, 0
2, 12640, Note_on_c, 0, 74, 102
2, 12756, Note_on_c, 0, 74, 0
2, 12760, Note_on_c, 0, 73, 94
2, 12876, Note_on_c, 0, 73, 0
2, 12880, Note_on_c, 0, 71, 106
2, 12996, Note_on_c, 0, 71, 0
2, 13000, Note_on_c, 0, 69, 111
2, 13116, Note_on_c, 0, 69, 0
2, 13120, Note_on_c, 0, 67, 89
2, 13236, Note_on_c, 0, 67, 0
2, 13240, Note_on_c, 0, 66, 101
2, 13356, Note_on_c, 0, 66, 0
2, 13360, Note_on_c, 0, 64, 96
2, 13476, Note_on_c, 0, 64, 0
2, 13480, Note_on_c, 0, 62, 107
2, 13720, Note_on_c, 0, 62, 0
2, 14680, Note_on_c, 0, 73, 127
2, 15036, Note_on_c, 0, 73, 0
2, 15040, Note_on_c, 0, 71, 104
2, 15156, Note_on_c, 0, 71, 0
2, 15160, Note_on_c, 0, 69, 102
2, 15276, Note_on_c, 0, 69, 0
2, 15280, Note_on_c, 0, 71, 113
2, 15396, Note_on_c, 0, 71, 0
2, 15400, Note_on_c, 0, 73, 119
2, 15516, Note_on_c, 0, 73, 0
2, 15520, Note_on_c, 0, 74, 98
2, 15636, Note_on_c, 0, 74, 0
2, 15640, Note_on_c, 0, 76, 111
2, 15756, Note_on_c, 0, 76, 0
2, 15760, Note_on_c, 0, 78, 99
2, 15876, Note_on_c, 0, 78, 0
2, 15880, Note_on_c, 0, 79, 117
2, 16116, Note_on_c, 0, 79, 0
2, 16120, Note_on_c, 0, 67, 106
2, 16236, Note_on_c, 0, 67, 0
2, 16240, Note_on_c, 0, 66, 106
2, 16356, Note_on_c, 0, 66, 0
2, 16360, Note_on_c, 0, 67, 113
2, 16956, Note_on_c, 0, 67, 0
2, 16960, Note_on_c, 0, 71, 123
2, 17076, Note_on_c, 0, 71, 0
2, 17080, Note_on_c, 0, 69, 102
2, 17196, Note_on_c, 0, 69, 0
2, 17200, Note_on_c, 0, 67, 96
2, 17316, Note_on_c, 0, 67, 0
2, 17320, Note_on_c, 0, 66, 110
2, 17436, Note_on_c, 0, 66, 0
2, 17440, Note_on_c, 0, 64, 104
2, 17556, Note_on_c, 0, 64, 0
2, 17560, Note_on_c, 0, 66, 106
2, 17676, Note_on_c, 0, 66, 0
2, 17680, Note_on_c, 0, 67, 91
2, 17796, Note_on_c, 0, 67, 0
2, 17800, Note_on_c, 0, 66, 104
2, 17916, Note_on_c, 0, 66, 0
2, 17920, Note_on_c, 0, 69, 92
2, 18036, Note_on_c, 0, 69, 0
2, 18040, Note_on_c, 0, 67, 99
2, 18156, Note_on_c, 0, 67, 0
2, 18160, Note_on_c, 0, 66, 88
2, 18276, Note_on_c, 0, 66, 0
2, 18280, Note_on_c, 0, 64, 117
2, 18996, Note_on_c, 0, 64, 0
2, 19000, Note_on_c, 0, 74, 117
2, 19236, Note_on_c, 0, 74, 0
2, 19240, Note_on_c, 0, 73, 115
2, 19476, Note_on_c, 0, 73, 0
2, 19480, Note_on_c, 0, 71, 109
2, 19716, Note_on_c, 0, 71, 0
2, 19720, Note_on_c, 0, 69, 109
2, 19956, Note_on_c, 0, 69, 0
2, 19960, Note_on_c, 0, 78, 123
2, 20196, Note_on_c, 0, 78, 0
2, 20200, Note_on_c, 0, 67, 117
2, 20916, Note_on_c, 0, 67, 0
2, 20920, Note_on_c, 0, 66, 104
2, 21156, Note_on_c, 0, 66, 0
2, 21160, Note_on_c, 0, 64, 106
2, 21276, Note_on_c, 0, 64, 0
2, 21280, Note_on_c, 0, 69, 100
2, 21396, Note_on_c, 0, 69, 0
2, 21400, Note_on_c, 0, 67, 117
2, 21880, Note_on_c, 0, 67, 0
2, 21880, Note_on_c, 0, 66, 101
2, 21996, Note_on_c, 0, 66, 0
2, 22000, Note_on_c, 0, 64, 102
2, 22116, Note_on_c, 0, 64, 0
2, 22120, Note_on_c, 0, 66, 108
2, 22240, Note_on_c, 0, 66, 0
2, 22240, Note_on_c, 0, 74, 123
2, 22480, Note_on_c, 0, 74, 0
2, 22480, Note_on_c, 0, 73, 108
2, 22596, Note_on_c, 0, 73, 0
2, 22600, Note_on_c, 0, 74, 123
2, 22840, Note_on_c, 0, 74, 0
2, 23320, Note_on_c, 0, 67, 107
2, 23436, Note_on_c, 0, 67, 0
2, 23440, Note_on_c, 0, 66, 106
2, 23556, Note_on_c, 0, 66, 0
2, 23560, Note_on_c, 0, 67, 111
2, 23796, Note_on_c, 0, 67, 0
2, 23800, Note_on_c, 0, 69, 98
2, 23916, Note_on_c, 0, 69, 0
2, 23920, Note_on_c, 0, 71, 109
2, 24036, Note_on_c, 0, 71, 0
2, 24040, Note_on_c, 0, 72, 106
2, 24156, Note_on_c, 0, 72, 0
2, 24160, Note_on_c, 0, 71, 104
2, 24276, Note_on_c, 0, 71, 0
2, 24280, Note_on_c, 0, 69, 96
2, 24396, Note_on_c, 0, 69, 0
2, 24400, Note_on_c, 0, 67, 91
2, 24516, Note_on_c, 0, 67, 0
2, 24520, Note_on_c, 0, 74, 97
2, 24636, Note_on_c, 0, 74, 0
2, 24640, Note_on_c, 0, 69, 88
2, 24756, Note_on_c, 0, 69, 0
2, 24760, Note_on_c, 0, 71, 91
2, 24876, Note_on_c, 0, 71, 0
2, 24880, Note_on_c, 0, 73, 108
2, 24996, Note_on_c, 0, 73, 0
2, 25000, Note_on_c, 0, 74, 101
2, 25116, Note_on_c, 0, 74, 0
2, 25120, Note_on_c, 0, 76, 106
2, 25236, Note_on_c, 0, 76, 0
2, 25240, Note_on_c, 0, 78, 104
2, 25356, Note_on_c, 0, 78, 0
2, 25360, Note_on_c, 0, 79, 115
2, 25476, Note_on_c, 0, 79, 0
2, 25480, Note_on_c, 0, 81, 109
2, 25720, Note_on_c, 0, 81, 0
2, 26200, Note_on_c, 0, 79, 101
2, 26316, Note_on_c, 0, 79, 0
2, 26320, Note_on_c, 0, 78, 82
2, 26436, Note_on_c, 0, 78, 0
2, 26440, Note_on_c, 0, 76, 100
2, 26556, Note_on_c, 0, 76, 0
2, 26560, Note_on_c, 0, 74, 95
2, 26676, Note_on_c, 0, 74, 0
2, 26680, Note_on_c, 0, 73, 92
2, 26796, Note_on_c, 0, 73, 0
2, 26800, Note_on_c, 0, 71, 95
2, 26916, Note_on_c, 0, 71, 0
2, 26920, Note_on_c, 0, 69, 93
2, 27036, Note_on_c, 0, 69, 0
2, 27040, Note_on_c, 0, 67, 101
2, 27156, Note_on_c, 0, 67, 0
2, 27160, Note_on_c, 0, 66, 108
2, 27276, Note_on_c, 0, 66, 0
2, 27280, Note_on_c, 0, 67, 96
2, 27396, Note_on_c, 0, 67, 0
2, 27400, Note_on_c, 0, 67, 89
2, 27460, Note_on_c, 0, 67, 0
2, 27460, Note_on_c, 0, 66, 89
2, 27520, Note_on_c, 0, 66, 0
2, 27520, Note_on_c, 0, 64, 71
2, 27580, Note_on_c, 0, 64, 0
2, 27580, Note_on_c, 0, 66, 93
2, 27640, Note_on_c, 0, 66, 0
2, 27640, Note_on_c, 0, 62, 109
2, 27880, Note_on_c, 0, 62, 0
2, 29080, Note_on_c, 0, 74, 115
2, 29440, Note_on_c, 0, 74, 0
2, 29440, Note_on_c, 0, 71, 101
2, 29556, Note_on_c, 0, 71, 0
2, 29560, Note_on_c, 0, 69, 90
2, 29676, Note_on_c, 0, 69, 0
2, 29680, Note_on_c, 0, 67, 88
2, 29796, Note_on_c, 0, 67, 0
2, 29800, Note_on_c, 0, 65, 97
2, 29916, Note_on_c, 0, 65, 0
2, 29920, Note_on_c, 0, 64, 90
2, 30036, Note_on_c, 0, 64, 0
2, 30040, Note_on_c, 0, 62, 93
2, 30156, Note_on_c, 0, 62, 0
2, 30160, Note_on_c, 0, 65, 91
2, 30276, Note_on_c, 0, 65, 0
2, 30280, Note_on_c, 0, 64, 102
2, 30396, Note_on_c, 0, 64, 0
2, 30400, Note_on_c, 0, 67, 101
2, 30516, Note_on_c, 0, 67, 0
2, 30520, Note_on_c, 0, 72, 95
2, 30636, Note_on_c, 0, 72, 0
2, 30640, Note_on_c, 0, 74, 104
2, 30756, Note_on_c, 0, 74, 0
2, 30760, Note_on_c, 0, 76, 107
2, 30996, Note_on_c, 0, 76, 0
2, 31000, Note_on_c, 0, 69, 107
2, 31476, Note_on_c, 0, 69, 0
2, 31480, Note_on_c, 0, 69, 83
2, 31836, Note_on_c, 0, 69, 0
2, 31840, Note_on_c, 0, 71, 83
2, 31956, Note_on_c, 0, 71, 0
2, 31960, Note_on_c, 0, 66, 68
2, 32076, Note_on_c, 0, 66, 0
2, 32080, Note_on_c, 0, 67, 72
2, 32196, Note_on_c, 0, 67, 0
2, 32200, Note_on_c, 0, 69, 73
2, 32316, Note_on_c, 0, 69, 0
2, 32320, Note_on_c, 0, 67, 69
2, 32436, Note_on_c, 0, 67, 0
2, 32440, Note_on_c, 0, 66, 84
2, 32556, Note_on_c, 0, 66, 0
2, 32560, Note_on_c, 0, 76, 109
2, 32676, Note_on_c, 0, 76, 0
2, 32680, Note_on_c, 0, 74, 109
2, 32796, Note_on_c, 0, 74, 0
2, 32800, Note_on_c, 0, 72, 109
2, 32916, Note_on_c, 0, 72, 0
2, 32920, Note_on_c, 0, 71, 88
2, 33036, Note_on_c, 0, 71, 0
2, 33040, Note_on_c, 0, 69, 83
2, 33156, Note_on_c, 0, 69, 0
2, 33160, Note_on_c, 0, 67, 98
2, 33640, Note_on_c, 0, 67, 0
2, 34720, Note_on_c, 0, 66, 121
2, 34836, Note_on_c, 0, 66, 0
2, 34840, Note_on_c, 0, 67, 104
2, 34956, Note_on_c, 0, 67, 0
2, 34960, Note_on_c, 0, 69, 101
2, 35076, Note_on_c, 0, 69, 0
2, 35080, Note_on_c, 0, 71, 101
2, 35196, Note_on_c, 0, 71, 0
2, 35200, Note_on_c, 0, 73, 101
2, 35316, Note_on_c, 0, 73, 0
2, 35320, Note_on_c, 0, 74, 97
2, 35436, Note_on_c, 0, 74, 0
2, 35440, Note_on_c, 0, 78, 110
2, 35556, Note_on_c, 0, 78, 0
2, 35560, Note_on_c, 0, 76, 113
2, 35676, Note_on_c, 0, 76, 0
2, 35680, Note_on_c, 0, 74, 102
2, 35796, Note_on_c, 0, 74, 0
2, 35800, Note_on_c, 0, 73, 94
2, 35916, Note_on_c, 0, 73, 0
2, 35920, Note_on_c, 0, 71, 106
2, 36036, Note_on_c, 0, 71, 0
2, 36040, Note_on_c, 0, 69, 111
2, 36156, Note_on_c, 0, 69, 0
2, 36160, Note_on_c, 0, 67, 89
2, 36276, Note_on_c, 0, 67, 0
2, 36280, Note_on_c, 0, 66, 101
2, 36396, Note_on_c, 0, 66, 0
2, 36400, Note_on_c, 0, 64, 96
2, 36516, Note_on_c, 0, 64, 0
2, 36520, Note_on_c, 0, 62, 107
2, 36760, Note_on_c, 0, 62, 0
2, 37720, Note_on_c, 0, 73, 127
2, 38076, Note_on_c, 0, 73, 0
2, 38080, Note_on_c, 0, 71, 104
2, 38196, Note_on_c, 0, 71, 0
2, 38200, Note_on_c, 0, 69, 102
2, 38316, Note_on_c, 0, 69, 0
2, 38320, Note_on_c, 0, 71, 113
2, 38436, Note_on_c, 0, 71, 0
2, 38440, Note_on_c, 0, 73, 119
2, 38556, Note_on_c, 0, 73, 0
2, 38560, Note_on_c, 0, 74, 98
2, 38676, Note_on_c, 0, 74, 0
2, 38680, Note_on_c, 0, 76, 111
2, 38796, Note_on_c, 0, 76, 0
2, 38800, Note_on_c, 0, 78, 99
2, 38916, Note_on_c, 0, 78, 0
2, 38920, Note_on_c, 0, 79, 117
2, 39156, Note_on_c, 0, 79, 0
2, 39160, Note_on_c, 0, 67, 106
2, 39276, Note_on_c, 0, 67, 0
2, 39280, Note_on_c, 0, 66, 106
2, 39396, Note_on_c, 0, 66, 0
2, 39400, Note_on_c, 0, 67, 113
2, 39996, Note_on_c, 0, 67, 0
2, 40000, Note_on_c, 0, 71, 123
2, 40116, Note_on_c, 0, 71, 0
2, 40120, Note_on_c, 0, 69, 102
2, 40236, Note_on_c, 0, 69, 0
2, 40240, Note_on_c, 0, 67, 96
2, 40356, Note_on_c, 0, 67, 0
2, 40360, Note_on_c, 0, 66, 110
2, 40476, Note_on_c, 0, 66, 0
2, 40480, Note_on_c, 0, 64, 104
2, 40596, Note_on_c, 0, 64, 0
2, 40600, Note_on_c, 0, 66, 106
2, 40716, Note_on_c, 0, 66, 0
2, 40720, Note_on_c, 0, 67, 91
2, 40836, Note_on_c, 0, 67, 0
2, 40840, Note_on_c, 0, 66, 104
2, 40956, Note_on_c, 0, 66, 0
2, 40960, Note_on_c, 0, 69, 92
2, 41076, Note_on_c, 0, 69, 0
2, 41080, Note_on_c, 0, 67, 99
2, 41196, Note_on_c, 0, 67, 0
2, 41200, Note_on_c, 0, 66, 88
2, 41316, Note_on_c, 0, 66, 0
2, 41320, Note_on_c, 0, 64, 117
2, 42036, Note_on_c, 0, 64, 0
2, 42040, Note_on_c, 0, 74, 117
2, 42276, Note_on_c, 0, 74, 0
2, 42280, Note_on_c, 0, 73, 115
2, 42516, Note_on_c, 0, 73, 0
2, 42520, Note_on_c, 0, 71, 109
2, 42756, Note_on_c, 0, 71, 0
2, 42760, Note_on_c, 0, 69, 109
2, 42996, Note_on_c, 0, 69, 0
2, 43000, Note_on_c, 0, 78, 123
2, 43236, Note_on_c, 0, 78, 0
2, 43240, Note_on_c, 0, 67, 117
2, 43956, Note_on_c, 0, 67, 0
2, 43960, Note_on_c, 0, 66, 104
2, 44196, Note_on_c, 0, 66, 0
2, 44200, Note_on_c, 0, 64, 106
2, 44316, Note_on_c, 0, 64, 0
2, 44320, Note_on_c, 0, 69, 100
2, 44436, Note_on_c, 0, 69, 0
2, 44440, Note_on_c, 0, 67, 117
2, 44920, Note_on_c, 0, 67, 0
2, 44920, Note_on_c, 0, 66, 101
2, 45036, Note_on_c, 0, 66, 0
2, 45040, Note_on_c, 0, 64, 102
2, 45156, Note_on_c, 0, 64, 0
2, 45160, Note_on_c, 0, 66, 108
2, 45280, Note_on_c, 0, 66, 0
2, 45280, Note_on_c, 0, 74, 123
2, 45520, Note_on_c, 0, 74, 0
2, 45520, Note_on_c, 0, 73, 108
2, 45636, Note_on_c, 0, 73, 0
2, 45640, Note_on_c, 0, 74, 123
2, 45880, Note_on_c, 0, 74, 0
2, 47800, Note_on_c, 0, 67, 100
2, 47916, Note_on_c, 0, 67, 0
2, 47920, Note_on_c, 0, 66, 100
2, 48036, Note_on_c, 0, 66, 0
2, 48040, Note_on_c, 0, 67, 97
2, 48276, Note_on_c, 0, 67, 0
2, 48280, Note_on_c, 0, 69, 82
2, 48396, Note_on_c, 0, 69, 0
2, 48400, Note_on_c, 0, 71, 106
2, 48516, Note_on_c, 0, 71, 0
2, 48520, Note_on_c, 0, 72, 98
2, 48636, Note_on_c, 0, 72, 0
2, 48640, Note_on_c, 0, 71, 81
2, 48756, Note_on_c, 0, 71, 0
2, 48760, Note_on_c, 0, 69, 69
2, 48876, Note_on_c, 0, 69, 0
2, 48880, Note_on_c, 0, 67, 96
2, 48996, Note_on_c, 0, 67, 0
2, 49000, Note_on_c, 0, 79, 91
2, 49596, Note_on_c, 0, 79, 0
2, 49600, Note_on_c, 0, 78, 97
2, 49716, Note_on_c, 0, 78, 0
2, 49720, Note_on_c, 0, 81, 106
2, 49836, Note_on_c, 0, 81, 0
2, 49840, Note_on_c, 0, 79, 98
2, 49956, Note_on_c, 0, 79, 0
2, 49960, Note_on_c, 0, 78, 86
2, 50076, Note_on_c, 0, 78, 0
2, 50080, Note_on_c, 0, 79, 92
2, 50196, Note_on_c, 0, 79, 0
2, 50200, Note_on_c, 0, 76, 106
2, 50440, Note_on_c, 0, 76, 0
2, 50440, Note_on_c, 0, 76, 101
2, 50560, Note_on_c, 0, 76, 0
2, 50560, Note_on_c, 0, 78, 101
2, 50740, Note_on_c, 0, 78, 0
2, 50740, Note_on_c, 0, 77, 101
2, 50800, Note_on_c, 0, 77, 0
2, 50800, Note_on_c, 0, 78, 101
2, 50860, Note_on_c, 0, 78, 0
2, 50860, Note_on_c, 0, 79, 101
2, 50920, Note_on_c, 0, 79, 0
2, 50920, Note_on_c, 0, 78, 84
2, 51156, Note_on_c, 0, 78, 0
2, 51160, Note_on_c, 0, 69, 86
2, 51396, Note_on_c, 0, 69, 0
2, 51640, Note_on_c, 0, 78, 81
2, 51876, Note_on_c, 0, 78, 0
2, 51880, Note_on_c, 0, 79, 89
2, 52000, Note_on_c, 0, 79, 0
2, 52000, Note_on_c, 0, 78, 90
2, 52116, Note_on_c, 0, 78, 0
2, 52120, Note_on_c, 0, 79, 89
2, 52236, Note_on_c, 0, 79, 0
2, 52240, Note_on_c, 0, 81, 82
2, 52356, Note_on_c, 0, 81, 0
2, 52360, Note_on_c, 0, 79, 98
2, 52476, Note_on_c, 0, 79, 0
2, 52480, Note_on_c, 0, 78, 90
2, 52596, Note_on_c, 0, 78, 0
2, 52600, Note_on_c, 0, 76, 93
2, 52716, Note_on_c, 0, 76, 0
2, 52720, Note_on_c, 0, 74, 73
2, 52836, Note_on_c, 0, 74, 0
2, 52840, Note_on_c, 0, 72, 98
2, 52956, Note_on_c, 0, 72, 0
2, 52960, Note_on_c, 0, 71, 83
2, 53076, Note_on_c, 0, 71, 0
2, 53080, Note_on_c, 0, 69, 88
2, 53196, Note_on_c, 0, 69, 0
2, 53200, Note_on_c, 0, 67, 89
2, 53316, Note_on_c, 0, 67, 0
2, 53320, Note_on_c, 0, 66, 127
2, 54876, Note_on_c, 0, 66, 0
2, 55000, Note_on_c, 0, 66, 108
2, 55116, Note_on_c, 0, 66, 0
2, 55120, Note_on_c, 0, 67, 101
2, 55236, Note_on_c, 0, 67, 0
2, 55240, Note_on_c, 0, 66, 108
2, 55480, Note_on_c, 0, 66, 0
2, 55480, Note_on_c, 0, 66, 108
2, 55720, Note_on_c, 0, 66, 0
2, 55720, Note_on_c, 0, 66, 108
2, 55956, Note_on_c, 0, 66, 0
2, 55960, Note_on_c, 0, 67, 85
2, 56076, Note_on_c, 0, 67, 0
2, 56080, Note_on_c, 0, 69, 71
2, 56200, Note_on_c, 0, 69, 0
2, 56200, Note_on_c, 0, 67, 109
2, 56680, Note_on_c, 0, 67, 0
2, 57160, Note_on_c, 0, 64, 104
2, 57756, Note_on_c, 0, 64, 0
2, 57760, Note_on_c, 0, 66, 94
2, 57876, Note_on_c, 0, 66, 0
2, 57880, Note_on_c, 0, 67, 86
2, 57996, Note_on_c, 0, 67, 0
2, 58000, Note_on_c, 0, 64, 90
2, 58116, Note_on_c, 0, 64, 0
2, 58120, Note_on_c, 0, 66, 88
2, 58236, Note_on_c, 0, 66, 0
2, 58240, Note_on_c, 0, 67, 91
2, 58356, Note_on_c, 0, 67, 0
2, 58360, Note_on_c, 0, 68, 94
2, 58476, Note_on_c, 0, 68, 0
2, 58480, Note_on_c, 0, 69, 83
2, 58596, Note_on_c, 0, 69, 0
2, 58600, Note_on_c, 0, 71, 98
2, 58716, Note_on_c, 0, 71, 0
2, 58720, Note_on_c, 0, 72, 92
2, 58836, Note_on_c, 0, 72, 0
2, 58840, Note_on_c, 0, 74, 86
2, 58956, Note_on_c, 0, 74, 0
2, 58960, Note_on_c, 0, 76, 109
2, 59076, Note_on_c, 0, 76, 0
2, 59080, Note_on_c, 0, 74, 113
2, 59320, Note_on_c, 0, 74, 0
2, 60640, Note_on_c, 0, 60, 101
2, 60756, Note_on_c, 0, 60, 0
2, 60760, Note_on_c, 0, 62, 98
2, 60876, Note_on_c, 0, 62, 0
2, 60880, Note_on_c, 0, 64, 104
2, 60996, Note_on_c, 0, 64, 0
2, 61000, Note_on_c, 0, 62, 98
2, 61116, Note_on_c, 0, 62, 0
2, 61120, Note_on_c, 0, 63, 99
2, 61236, Note_on_c, 0, 63, 0
2, 61240, Note_on_c, 0, 66, 93
2, 61356, Note_on_c, 0, 66, 0
2, 61360, Note_on_c, 0, 67, 97
2, 61476, Note_on_c, 0, 67, 0
2, 61480, Note_on_c, 0, 66, 96
2, 61596, Note_on_c, 0, 66, 0
2, 61600, Note_on_c, 0, 67, 86
2, 61716, Note_on_c, 0, 67, 0
2, 61720, Note_on_c, 0, 69, 82
2, 61836, Note_on_c, 0, 69, 0
2, 61840, Note_on_c, 0, 71, 92
2, 61956, Note_on_c, 0, 71, 0
2, 61960, Note_on_c, 0, 69, 102
2, 63636, Note_on_c, 0, 69, 0
2, 63640, Note_on_c, 0, 62, 98
2, 63876, Note_on_c, 0, 62, 0
2, 63880, Note_on_c, 0, 64, 101
2, 64116, Note_on_c, 0, 64, 0
2, 64120, Note_on_c, 0, 66, 93
2, 64356, Note_on_c, 0, 66, 0
2, 64360, Note_on_c, 0, 67, 95
2, 64476, Note_on_c, 0, 67, 0
2, 64480, Note_on_c, 0, 71, 91
2, 64596, Note_on_c, 0, 71, 0
2, 64600, Note_on_c, 0, 69, 83
2, 64716, Note_on_c, 0, 69, 0
2, 64720, Note_on_c, 0, 72, 89
2, 64836, Note_on_c, 0, 72, 0
2, 64840, Note_on_c, 0, 71, 104
2, 65076, Note_on_c, 0, 71, 0
2, 65080, Note_on_c, 0, 69, 86
2, 65316, Note_on_c, 0, 69, 0
2, 65320, Note_on_c, 0, 71, 93
2, 65556, Note_on_c, 0, 71, 0
2, 65560, Note_on_c, 0, 72, 100
2, 65796, Note_on_c, 0, 72, 0
2, 65800, Note_on_c, 0, 74, 73
2, 65860, Note_on_c, 0, 74, 0
2, 65860, Note_on_c, 0, 72, 101
2, 65920, Note_on_c, 0, 72, 0
2, 65920, Note_on_c, 0, 74, 96
2, 66160, Note_on_c, 0, 74, 0
2, 66160, Note_on_c, 0, 76, 95
2, 66276, Note_on_c, 0, 76, 0
2, 66280, Note_on_c, 0, 74, 111
2, 66876, Note_on_c, 0, 74, 0
2, 66880, Note_on_c, 0, 71, 93
2, 66996, Note_on_c, 0, 71, 0
2, 67000, Note_on_c, 0, 72, 100
2, 67116, Note_on_c, 0, 72, 0
2, 67120, Note_on_c, 0, 74, 92
2, 67236, Note_on_c, 0, 74, 0
2, 67240, Note_on_c, 0, 76, 104
2, 67360, Note_on_c, 0, 76, 0
2, 67360, Note_on_c, 0, 78, 98
2, 67476, Note_on_c, 0, 78, 0
2, 67480, Note_on_c, 0, 79, 100
2, 67596, Note_on_c, 0, 79, 0
2, 67600, Note_on_c, 0, 81, 89
2, 67716, Note_on_c, 0, 81, 0
2, 67720, Note_on_c, 0, 83, 83
2, 67836, Note_on_c, 0, 83, 0
2, 67840, Note_on_c, 0, 79, 77
2, 67956, Note_on_c, 0, 79, 0
2, 67960, Note_on_c, 0, 74, 73
2, 68076, Note_on_c, 0, 74, 0
2, 68080, Note_on_c, 0, 71, 86
2, 68196, Note_on_c, 0, 71, 0
2, 68200, Note_on_c, 0, 67, 115
2, 68440, Note_on_c, 0, 67, 0
2, 70840, Note_on_c, 0, 67, 100
2, 70956, Note_on_c, 0, 67, 0
2, 70960, Note_on_c, 0, 66, 100
2, 71076, Note_on_c, 0, 66, 0
2, 71080, Note_on_c, 0, 67, 97
2, 71316, Note_on_c, 0, 67, 0
2, 71320, Note_on_c, 0, 69, 82
2, 71436, Note_on_c, 0, 69, 0
2, 71440, Note_on_c, 0, 71, 106
2, 71556, Note_on_c, 0, 71, 0
2, 71560, Note_on_c, 0, 72, 98
2, 71676, Note_on_c, 0, 72, 0
2, 71680, Note_on_c, 0, 71, 81
2, 71796, Note_on_c, 0, 71, 0
2, 71800, Note_on_c, 0, 69, 69
2, 71916, Note_on_c, 0, 69, 0
2, 71920, Note_on_c, 0, 67, 96
2, 72036, Note_on_c, 0, 67, 0
2, 72040, Note_on_c, 0, 79, 91
2, 72636, Note_on_c, 0, 79, 0
2, 72640, Note_on_c, 0, 78, 97
2, 72756, Note_on_c, 0, 78, 0
2, 72760, Note_on_c, 0, 81, 106
2, 72876, Note_on_c, 0, 81, 0
2, 72880, Note_on_c, 0, 79, 98
2, 72996, Note_on_c, 0, 79, 0
2, 73000, Note_on_c, 0, 78, 86
2, 73116, Note_on_c, 0, 78, 0
2, 73120, Note_on_c, 0, 79, 92
2, 73236, Note_on_c, 0, 79, 0
2, 73240, Note_on_c, 0, 76, 106
2, 73480, Note_on_c, 0, 76, 0
2, 73480, Note_on_c, 0, 76, 101
2, 73600, Note_on_c, 0, 76, 0
2, 73600, Note_on_c, 0, 78, 101
2, 73780, Note_on_c, 0, 78, 0
2, 73780, Note_on_c, 0, 77, 101
2, 73840, Note_on_c, 0, 77, 0
2, 73840, Note_on_c, 0, 78, 101
2, 73900, Note_on_c, 0, 78, 0
2, 73900, Note_on_c, 0, 79, 101
2, 73960, Note_on_c, 0, 79, 0
2, 73960, Note_on_c, 0, 78, 84
2, 74196, Note_on_c, 0, 78, 0
2, 74200, Note_on_c, 0, 69, 86
2, 74436, Note_on_c, 0, 69, 0
2, 74680, Note_on_c, 0, 78, 81
2, 74916, Note_on_c, 0, 78, 0
2, 74920, Note_on_c, 0, 79, 89
2, 75040, Note_on_c, 0, 79, 0
2, 75040, Note_on_c, 0, 78, 90
2, 75156, Note_on_c, 0, 78, 0
2, 75160, Note_on_c, 0, 79, 89
2, 75276, Note_on_c, 0, 79, 0
2, 75280, Note_on_c, 0, 81, 82
2, 75396, Note_on_c, 0, 81, 0
2, 75400, Note_on_c, 0, 79, 98
2, 75516, Note_on_c, 0, 79, 0
2, 75520, Note_on_c, 0, 78, 90
2, 75636, Note_on_c, 0, 78, 0
2, 75640, Note_on_c, 0, 76, 93
2, 75756, Note_on_c, 0, 76, 0
2, 75760, Note_on_c, 0, 74, 73
2, 75876, Note_on_c, 0, 74, 0
2, 75880, Note_on_c, 0, 72, 98
2, 75996, Note_on_c, 0, 72, 0
2, 76000, Note_on_c, 0, 71, 83
2, 76116, Note_on_c, 0, 71, 0
2, 76120, Note_on_c, 0, 69, 88
2, 76236, Note_on_c, 0, 69, 0
2, 76240, Note_on_c, 0, 67, 89
2, 76356, Note_on_c, 0, 67, 0
2, 76360, Note_on_c, 0, 66, 127
2, 77916, Note_on_c, 0, 66, 0
2, 78040, Note_on_c, 0, 66, 108
2, 78156, Note_on_c, 0, 66, 0
2, 78160, Note_on_c, 0, 67, 101
2, 78276, Note_on_c, 0, 67, 0
2, 78280, Note_on_c, 0, 66, 108
2, 78520, Note_on_c, 0, 66, 0
2, 78520, Note_on_c, 0, 66, 108
2, 78760, Note_on_c, 0, 66, 0
2, 78760, Note_on_c, 0, 66, 108
2, 78996, Note_on_c, 0, 66, 0
2, 79000, Note_on_c, 0, 67, 85
2, 79116, Note_on_c, 0, 67, 0
2, 79120, Note_on_c, 0, 69, 71
2, 79240, Note_on_c, 0, 69, 0
2, 79240, Note_on_c, 0, 67, 109
2, 79720, Note_on_c, 0, 67, 0
2, 80200, Note_on_c, 0, 64, 104
2, 80796, Note_on_c, 0, 64, 0
2, 80800, Note_on_c, 0, 66, 94
2, 80916, Note_on_c, 0, 66, 0
2, 80920, Note_on_c, 0, 67, 86
2, 81036, Note_on_c, 0, 67, 0
2, 81040, Note_on_c, 0, 64, 90
2, 81156, Note_on_c, 0, 64, 0
2, 81160, Note_on_c, 0, 66, 88
2, 81276, Note_on_c, 0, 66, 0
2, 81280, Note_on_c, 0, 67, 91
2, 81396, Note_on_c, 0, 67, 0
2, 81400, Note_on_c, 0, 68, 94
2, 81516, Note_on_c, 0, 68, 0
2, 81520, Note_on_c, 0, 69, 83
2, 81636, Note_on_c, 0, 69, 0
2, 81640, Note_on_c, 0, 71, 98
2, 81756, Note_on_c, 0, 71, 0
2, 81760, Note_on_c, 0, 72, 92
2, 81876, Note_on_c, 0, 72, 0
2, 81880, Note_on_c, 0, 74, 86
2, 81996, Note_on_c, 0, 74, 0
2, 82000, Note_on_c, 0, 76, 109
2, 82116, Note_on_c, 0, 76, 0
2, 82120, Note_on_c, 0, 74, 113
2, 82360, Note_on_c, 0, 74, 0
2, 83680, Note_on_c, 0, 60, 101
2, 83796, Note_on_c, 0, 60, 0
2, 83800, Note_on_c, 0, 62, 98
2, 83916, Note_on_c, 0, 62, 0
2, 83920, Note_on_c, 0, 64, 104
2, 84036, Note_on_c, 0, 64, 0
2, 84040, Note_on_c, 0, 62, 98
2, 84156, Note_on_c, 0, 62, 0
2, 84160, Note_on_c, 0, 63, 99
2, 84276, Note_on_c, 0, 63, 0
2, 84280, Note_on_c, 0, 66, 93
2, 84396, Note_on_c, 0, 66, 0
2, 84400, Note_on_c, 0, 67, 97
2, 84516, Note_on_c, 0, 67, 0
2, 84520, Note_on_c, 0, 66, 96
2, 84636, Note_on_c, 0, 66, 0
2, 84640, Note_on_c, 0, 67, 86
2, 84756, Note_on_c, 0, 67, 0
2, 84760, Note_on_c, 0, 69, 82
2, 84876, Note_on_c, 0, 69, 0
2, 84880, Note_on_c, 0, 71, 92
2, 84996, Note_on_c, 0, 71, 0
2, 85000, Note_on_c, 0, 69, 102
2, 86676, Note_on_c, 0, 69, 0
2, 86680, Note_on_c, 0, 62, 98
2, 86916, Note_on_c, 0, 62, 0
2, 86920, Note_on_c, 0, 64, 101
2, 87156, Note_on_c, 0, 64, 0
2, 87160, Note_on_c, 0, 66, 93
2, 87396, Note_on_c, 0, 66, 0
2, 87400, Note_on_c, 0, 67, 95
2, 87516, Note_on_c, 0, 67, 0
2, 87520, Note_on_c, 0, 71, 91
2, 87636, Note_on_c, 0, 71, 0
2, 87640, Note_on_c, 0, 69, 83
2, 87756, Note_on_c, 0, 69, 0
2, 87760, Note_on_c, 0, 72, 89
2, 87876, Note_on_c, 0, 72, 0
2, 87880, Note_on_c, 0, 71, 104
2, 88116, Note_on_c, 0, 71, 0
2, 88120, Note_on_c, 0, 69, 86
2, 88356, Note_on_c, 0, 69, 0
2, 88360, Note_on_c, 0, 71, 93
2, 88596, Note_on_c, 0, 71, 0
2, 88600, Note_on_c, 0, 72, 100
2, 88836, Note_on_c, 0, 72, 0
2, 88840, Note_on_c, 0, 74, 73
2, 88900, Note_on_c, 0, 74, 0
2, 88900, Note_on_c, 0, 72, 101
2, 88960, Note_on_c, 0, 72, 0
2, 88960, Note_on_c, 0, 74, 96
2, 89200, Note_on_c, 0, 74, 0
2, 89200, Note_on_c, 0, 76, 95
2, 89316, Note_on_c, 0, 76, 0
2, 89320, Note_on_c, 0, 74, 111
2, 89916, Note_on_c, 0, 74, 0
2, 89920, Note_on_c, 0, 71, 93
2, 90036, Note_on_c, 0, 71, 0
2, 90040, Note_on_c, 0, 72, 100
2, 90156, Note_on_c, 0, 72, 0
2, 90160, Note_on_c, 0, 74, 92
2, 90276, Note_on_c, 0, 74, 0
2, 90280, Note_on_c, 0, 76, 104
2, 90400, Note_on_c, 0, 76, 0
2, 90400, Note_on_c, 0, 78, 98
2, 90516, Note_on_c, 0, 78, 0
2, 90520, Note_on_c, 0, 79, 100
2, 90636, Note_on_c, 0, 79, 0
2, 90640, Note_on_c, 0, 81, 89
2, 90756, Note_on_c, 0, 81, 0
2, 90760, Note_on_c, 0, 83, 83
2, 90876, Note_on_c, 0, 83, 0
2, 90880, Note_on_c, 0, 79, 77
2, 90996, Note_on_c, 0, 79, 0
2, 91000, Note_on_c, 0, 74, 73
2, 91116, Note_on_c, 0, 74, 0
2, 91120, Note_on_c, 0, 71, 86
2, 91236, Note_on_c, 0, 71, 0
2, 91240, Note_on_c, 0, 67, 115
2, 91480, Note_on_c, 0, 67, 0
2, 93600, End_track
3, 0, Start_track
3, 0, Title_t, "goldberg.mid"
3, 1720, Note_on_c, 2, 62, 101
3, 1836, Note_on_c, 2, 62, 0
3, 1840, Note_on_c, 2, 64, 89
3, 1956, Note_on_c, 2, 64, 0
3, 1960, Note_on_c, 2, 62, 97
3, 2196, Note_on_c, 2, 62, 0
3, 2200, Note_on_c, 2, 60, 91
3, 2316, Note_on_c, 2, 60, 0
3, 2320, Note_on_c, 2, 59, 63
3, 2436, Note_on_c, 2, 59, 0
3, 2440, Note_on_c, 2, 57, 71
3, 2556, Note_on_c, 2, 57, 0
3, 2560, Note_on_c, 2, 59, 78
3, 2676, Note_on_c, 2, 59, 0
3, 2680, Note_on_c, 2, 60, 73
3, 2796, Note_on_c, 2, 60, 0
3, 2800, Note_on_c, 2, 62, 89
3, 2916, Note_on_c, 2, 62, 0
3, 2920, Note_on_c, 2, 55, 76
3, 3036, Note_on_c, 2, 55, 0
3, 3040, Note_on_c, 2, 60, 76
3, 3156, Note_on_c, 2, 60, 0
3, 3160, Note_on_c, 2, 59, 76
3, 3276, Note_on_c, 2, 59, 0
3, 3280, Note_on_c, 2, 57, 88
3, 3400, Note_on_c, 2, 57, 0
3, 3400, Note_on_c, 2, 55, 90
3, 3520, Note_on_c, 2, 55, 0
3, 3520, Note_on_c, 2, 54, 70
3, 3640, Note_on_c, 2, 54, 0
3, 3640, Note_on_c, 2, 52, 70
3, 3760, Note_on_c, 2, 52, 0
3, 3760, Note_on_c, 2, 50, 70
3, 3880, Note_on_c, 2, 50, 0
3, 3880, Note_on_c, 2, 49, 109
3, 4356, Note_on_c, 2, 49, 0
3, 4600, Note_on_c, 2, 50, 97
3, 4716, Note_on_c, 2, 50, 0
3, 4720, Note_on_c, 2, 52, 101
3, 4836, Note_on_c, 2, 52, 0
3, 4840, Note_on_c, 2, 54, 102
3, 4956, Note_on_c, 2, 54, 0
3, 4960, Note_on_c, 2, 55, 86
3, 5076, Note_on_c, 2, 55, 0
3, 5080, Note_on_c, 2, 57, 91
3, 5196, Note_on_c, 2, 57, 0
3, 5200, Note_on_c, 2, 59, 86
3, 5316, Note_on_c, 2, 59, 0
3, 5320, Note_on_c, 2, 60, 96
3, 5436, Note_on_c, 2, 60, 0
3, 5440, Note_on_c, 2, 62, 77
3, 5556, Note_on_c, 2, 62, 0
3, 5560, Note_on_c, 2, 64, 97
3, 5676, Note_on_c, 2, 64, 0
3, 5680, Note_on_c, 2, 62, 86
3, 5796, Note_on_c, 2, 62, 0
3, 5800, Note_on_c, 2, 62, 106
3, 6036, Note_on_c, 2, 62, 0
3, 6040, Note_on_c, 2, 64, 98
3, 6156, Note_on_c, 2, 64, 0
3, 6160, Note_on_c, 2, 66, 86
3, 6276, Note_on_c, 2, 66, 0
3, 6280, Note_on_c, 2, 67, 115
3, 6756, Note_on_c, 2, 67, 0
3, 7360, Note_on_c, 2, 55, 117
3, 7840, Note_on_c, 2, 55, 0
3, 7840, Note_on_c, 2, 59, 84
3, 7956, Note_on_c, 2, 59, 0
3, 7960, Note_on_c, 2, 60, 86
3, 8076, Note_on_c, 2, 60, 0
3, 8080, Note_on_c, 2, 62, 81
3, 8196, Note_on_c, 2, 62, 0
3, 8200, Note_on_c, 2, 64, 82
3, 8316, Note_on_c, 2, 64, 0
3, 8320, Note_on_c, 2, 66, 107
3, 8436, Note_on_c, 2, 66, 0
3, 8440, Note_on_c, 2, 67, 104
3, 8556, Note_on_c, 2, 67, 0
3, 8560, Note_on_c, 2, 64, 91
3, 8676, Note_on_c, 2, 64, 0
3, 8680, Note_on_c, 2, 66, 96
3, 8800, Note_on_c, 2, 66, 0
3, 8800, Note_on_c, 2, 62, 91
3, 8920, Note_on_c, 2, 62, 0
3, 8920, Note_on_c, 2, 57, 91
3, 9040, Note_on_c, 2, 57, 0
3, 9040, Note_on_c, 2, 55, 91
3, 9160, Note_on_c, 2, 55, 0
3, 9160, Note_on_c, 2, 54, 91
3, 9400, Note_on_c, 2, 54, 0
3, 9400, Note_on_c, 2, 60, 117
3, 9880, Note_on_c, 2, 60, 0
3, 9880, Note_on_c, 2, 60, 121
3, 10236, Note_on_c, 2, 60, 0
3, 10240, Note_on_c, 2, 59, 106
3, 10356, Note_on_c, 2, 59, 0
3, 10360, Note_on_c, 2, 64, 92
3, 10476, Note_on_c, 2, 64, 0
3, 10480, Note_on_c, 2, 62, 106
3, 10596, Note_on_c, 2, 62, 0
3, 10600, Note_on_c, 2, 60, 97
3, 10716, Note_on_c, 2, 60, 0
3, 10720, Note_on_c, 2, 62, 86
3, 10836, Note_on_c, 2, 62, 0
3, 10840, Note_on_c, 2, 64, 66
3, 10956, Note_on_c, 2, 64, 0
3, 10960, Note_on_c, 2, 54, 66
3, 11076, Note_on_c, 2, 54, 0
3, 11080, Note_on_c, 2, 55, 101
3, 11196, Note_on_c, 2, 55, 0
3, 11200, Note_on_c, 2, 57, 104
3, 11316, Note_on_c, 2, 57, 0
3, 11320, Note_on_c, 2, 59, 96
3, 11436, Note_on_c, 2, 59, 0
3, 11440, Note_on_c, 2, 60, 97
3, 11556, Note_on_c, 2, 60, 0
3, 11560, Note_on_c, 2, 62, 111
3, 12036, Note_on_c, 2, 62, 0
3, 13120, Note_on_c, 2, 64, 70
3, 13236, Note_on_c, 2, 64, 0
3, 13240, Note_on_c, 2, 62, 76
3, 13356, Note_on_c, 2, 62, 0
3, 13360, Note_on_c, 2, 61, 79
3, 13476, Note_on_c, 2, 61, 0
3, 13480, Note_on_c, 2, 59, 79
3, 13600, Note_on_c, 2, 59, 0
3, 13600, Note_on_c, 2, 57, 75
3, 13720, Note_on_c, 2, 57, 0
3, 13720, Note_on_c, 2, 55, 70
3, 13840, Note_on_c, 2, 55, 0
3, 13840, Note_on_c, 2, 52, 66
3, 13960, Note_on_c, 2, 52, 0
3, 13960, Note_on_c, 2, 54, 62
3, 14080, Note_on_c, 2, 54, 0
3, 14080, Note_on_c, 2, 55, 59
3, 14196, Note_on_c, 2, 55, 0
3, 14200, Note_on_c, 2, 57, 57
3, 14316, Note_on_c, 2, 57, 0
3, 14320, Note_on_c, 2, 59, 56
3, 14436, Note_on_c, 2, 59, 0
3, 14440, Note_on_c, 2, 61, 58
3, 14556, Note_on_c, 2, 61, 0
3, 14560, Note_on_c, 2, 62, 61
3, 14676, Note_on_c, 2, 62, 0
3, 14680, Note_on_c, 2, 64, 67
3, 14796, Note_on_c, 2, 64, 0
3, 14800, Note_on_c, 2, 66, 78
3, 14916, Note_on_c, 2, 66, 0
3, 14920, Note_on_c, 2, 67, 86
3, 15160, Note_on_c, 2, 67, 0
3, 16120, Note_on_c, 2, 57, 103
3, 16476, Note_on_c, 2, 57, 0
3, 16480, Note_on_c, 2, 59, 89
3, 16596, Note_on_c, 2, 59, 0
3, 16600, Note_on_c, 2, 61, 86
3, 16716, Note_on_c, 2, 61, 0
3, 16720, Note_on_c, 2, 59, 88
3, 16836, Note_on_c, 2, 59, 0
3, 16840, Note_on_c, 2, 57, 90
3, 16956, Note_on_c, 2, 57, 0
3, 16960, Note_on_c, 2, 55, 91
3, 17076, Note_on_c, 2, 55, 0
3, 17080, Note_on_c, 2, 54, 90
3, 17196, Note_on_c, 2, 54, 0
3, 17200, Note_on_c, 2, 52, 87
3, 17316, Note_on_c, 2, 52, 0
3, 17320, Note_on_c, 2, 50, 86
3, 17556, Note_on_c, 2, 50, 0
3, 17560, Note_on_c, 2, 62, 85
3, 17680, Note_on_c, 2, 62, 0
3, 17680, Note_on_c, 2, 64, 97
3, 17800, Note_on_c, 2, 64, 0
3, 17800, Note_on_c, 2, 62, 97
3, 18280, Note_on_c, 2, 62, 0
3, 18400, Note_on_c, 2, 59, 82
3, 18516, Note_on_c, 2, 59, 0
3, 18520, Note_on_c, 2, 61, 92
3, 18636, Note_on_c, 2, 61, 0
3, 18640, Note_on_c, 2, 62, 106
3, 18756, Note_on_c, 2, 62, 0
3, 18760, Note_on_c, 2, 64, 84
3, 18876, Note_on_c, 2, 64, 0
3, 18880, Note_on_c, 2, 66, 108
3, 18996, Note_on_c, 2, 66, 0
3, 19000, Note_on_c, 2, 64, 100
3, 19116, Note_on_c, 2, 64, 0
3, 19120, Note_on_c, 2, 62, 100
3, 19236, Note_on_c, 2, 62, 0
3, 19240, Note_on_c, 2, 64, 111
3, 19356, Note_on_c, 2, 64, 0
3, 19360, Note_on_c, 2, 61, 93
3, 19476, Note_on_c, 2, 61, 0
3, 19480, Note_on_c, 2, 62, 89
3, 19596, Note_on_c, 2, 62, 0
3, 19600, Note_on_c, 2, 64, 106
3, 19716, Note_on_c, 2, 64, 0
3, 19720, Note_on_c, 2, 66, 117
3, 20440, Note_on_c, 2, 66, 0
3, 20440, Note_on_c, 2, 55, 101
3, 20676, Note_on_c, 2, 55, 0
3, 20680, Note_on_c, 2, 57, 97
3, 20916, Note_on_c, 2, 57, 0
3, 20920, Note_on_c, 2, 59, 111
3, 21160, Note_on_c, 2, 59, 0
3, 21160, Note_on_c, 2, 61, 119
3, 21396, Note_on_c, 2, 61, 0
3, 21400, Note_on_c, 2, 52, 119
3, 21640, Note_on_c, 2, 52, 0
3, 21640, Note_on_c, 2, 62, 123
3, 22360, Note_on_c, 2, 62, 0
3, 22360, Note_on_c, 2, 64, 95
3, 22600, Note_on_c, 2, 64, 0
3, 22600, Note_on_c, 2, 66, 110
3, 22716, Note_on_c, 2, 66, 0
3, 22720, Note_on_c, 2, 61, 93
3, 22836, Note_on_c, 2, 61, 0
3, 22840, Note_on_c, 2, 62, 115
3, 23076, Note_on_c, 2, 62, 0
3, 24760, Note_on_c, 2, 62, 101
3, 24876, Note_on_c, 2, 62, 0
3, 24880, Note_on_c, 2, 64, 89
3, 24996, Note_on_c, 2, 64, 0
3, 25000, Note_on_c, 2, 62, 97
3, 25236, Note_on_c, 2, 62, 0
3, 25240, Note_on_c, 2, 60, 91
3, 25356, Note_on_c, 2, 60, 0
3, 25360, Note_on_c, 2, 59, 63
3, 25476, Note_on_c, 2, 59, 0
3, 25480, Note_on_c, 2, 57, 71
3, 25596, Note_on_c, 2, 57, 0
3, 25600, Note_on_c, 2, 59, 78
3, 25716, Note_on_c, 2, 59, 0
3, 25720, Note_on_c, 2, 60, 73
3, 25836, Note_on_c, 2, 60, 0
3, 25840, Note_on_c, 2, 62, 89
3, 25956, Note_on_c, 2, 62, 0
3, 25960, Note_on_c, 2, 55, 76
3, 26076, Note_on_c, 2, 55, 0
3, 26080, Note_on_c, 2, 60, 76
3, 26196, Note_on_c, 2, 60, 0
3, 26200, Note_on_c, 2, 59, 76
3, 26316, Note_on_c, 2, 59, 0
3, 26320, Note_on_c, 2, 57, 88
3, 26440, Note_on_c, 2, 57, 0
3, 26440, Note_on_c, 2, 55, 90
3, 26560, Note_on_c, 2, 55, 0
3, 26560, Note_on_c, 2, 54, 70
3, 26680, Note_on_c, 2, 54, 0
3, 26680, Note_on_c, 2, 52, 70
3, 26800, Note_on_c, 2, 52, 0
3, 26800, Note_on_c, 2, 50, 70
3, 26920, Note_on_c, 2, 50, 0
3, 26920, Note_on_c, 2, 49, 109
3, 27396, Note_on_c, 2, 49, 0
3, 27640, Note_on_c, 2, 50, 97
3, 27756, Note_on_c, 2, 50, 0
3, 27760, Note_on_c, 2, 52, 101
3, 27876, Note_on_c, 2, 52, 0
3, 27880, Note_on_c, 2, 54, 102
3, 27996, Note_on_c, 2, 54, 0
3, 28000, Note_on_c, 2, 55, 86
3, 28116, Note_on_c, 2, 55, 0
3, 28120, Note_on_c, 2, 57, 91
3, 28236, Note_on_c, 2, 57, 0
3, 28240, Note_on_c, 2, 59, 86
3, 28356, Note_on_c, 2, 59, 0
3, 28360, Note_on_c, 2, 60, 96
3, 28476, Note_on_c, 2, 60, 0
3, 28480, Note_on_c, 2, 62, 77
3, 28596, Note_on_c, 2, 62, 0
3, 28600, Note_on_c, 2, 64, 97
3, 28716, Note_on_c, 2, 64, 0
3, 28720, Note_on_c, 2, 62, 86
3, 28836, Note_on_c, 2, 62, 0
3, 28840, Note_on_c, 2, 62, 106
3, 29076, Note_on_c, 2, 62, 0
3, 29080, Note_on_c, 2, 64, 98
3, 29196, Note_on_c, 2, 64, 0
3, 29200, Note_on_c, 2, 66, 86
3, 29316, Note_on_c, 2, 66, 0
3, 29320, Note_on_c, 2, 67, 115
3, 29796, Note_on_c, 2, 67, 0
3, 30400, Note_on_c, 2, 55, 97
3, 30880, Note_on_c, 2, 55, 0
3, 30880, Note_on_c, 2, 59, 84
3, 30996, Note_on_c, 2, 59, 0
3, 31000, Note_on_c, 2, 60, 86
3, 31116, Note_on_c, 2, 60, 0
3, 31120, Note_on_c, 2, 62, 81
3, 31236, Note_on_c, 2, 62, 0
3, 31240, Note_on_c, 2, 64, 82
3, 31356, Note_on_c, 2, 64, 0
3, 31360, Note_on_c, 2, 66, 107
3, 31476, Note_on_c, 2, 66, 0
3, 31480, Note_on_c, 2, 67, 104
3, 31596, Note_on_c, 2, 67, 0
3, 31600, Note_on_c, 2, 64, 91
3, 31716, Note_on_c, 2, 64, 0
3, 31720, Note_on_c, 2, 66, 96
3, 31840, Note_on_c, 2, 66, 0
3, 31840, Note_on_c, 2, 62, 91
3, 31960, Note_on_c, 2, 62, 0
3, 31960, Note_on_c, 2, 57, 91
3, 32080, Note_on_c, 2, 57, 0
3, 32080, Note_on_c, 2, 55, 91
3, 32200, Note_on_c, 2, 55, 0
3, 32200, Note_on_c, 2, 54, 91
3, 32440, Note_on_c, 2, 54, 0
3, 32440, Note_on_c, 2, 60, 117
3, 32920, Note_on_c, 2, 60, 0
3, 32920, Note_on_c, 2, 60, 121
3, 33276, Note_on_c, 2, 60, 0
3, 33280, Note_on_c, 2, 59, 106
3, 33396, Note_on_c, 2, 59, 0
3, 33400, Note_on_c, 2, 64, 92
3, 33516, Note_on_c, 2, 64, 0
3, 33520, Note_on_c, 2, 62, 106
3, 33636, Note_on_c, 2, 62, 0
3, 33640, Note_on_c, 2, 60, 97
3, 33756, Note_on_c, 2, 60, 0
3, 33760, Note_on_c, 2, 62, 86
3, 33876, Note_on_c, 2, 62, 0
3, 33880, Note_on_c, 2, 64, 66
3, 33996, Note_on_c, 2, 64, 0
3, 34000, Note_on_c, 2, 54, 66
3, 34116, Note_on_c, 2, 54, 0
3, 34120, Note_on_c, 2, 55, 101
3, 34236, Note_on_c, 2, 55, 0
3, 34240, Note_on_c, 2, 57, 104
3, 34356, Note_on_c, 2, 57, 0
3, 34360, Note_on_c, 2, 59, 96
3, 34476, Note_on_c, 2, 59, 0
3, 34480, Note_on_c, 2, 60, 97
3, 34596, Note_on_c, 2, 60, 0
3, 34600, Note_on_c, 2, 62, 111
3, 35076, Note_on_c, 2, 62, 0
3, 36160, Note_on_c, 2, 64, 87
3, 36276, Note_on_c, 2, 64, 0
3, 36280, Note_on_c, 2, 62, 90
3, 36396, Note_on_c, 2, 62, 0
3, 36400, Note_on_c, 2, 61, 91
3, 36516, Note_on_c, 2, 61, 0
3, 36520, Note_on_c, 2, 59, 91
3, 36640, Note_on_c, 2, 59, 0
3, 36640, Note_on_c, 2, 57, 93
3, 36760, Note_on_c, 2, 57, 0
3, 36760, Note_on_c, 2, 55, 93
3, 36880, Note_on_c, 2, 55, 0
3, 36880, Note_on_c, 2, 52, 90
3, 37000, Note_on_c, 2, 52, 0
3, 37000, Note_on_c, 2, 54, 89
3, 37120, Note_on_c, 2, 54, 0
3, 37120, Note_on_c, 2, 55, 85
3, 37236, Note_on_c, 2, 55, 0
3, 37240, Note_on_c, 2, 57, 86
3, 37356, Note_on_c, 2, 57, 0
3, 37360, Note_on_c, 2, 59, 93
3, 37476, Note_on_c, 2, 59, 0
3, 37480, Note_on_c, 2, 61, 95
3, 37596, Note_on_c, 2, 61, 0
3, 37600, Note_on_c, 2, 62, 98
3, 37716, Note_on_c, 2, 62, 0
3, 37720, Note_on_c, 2, 64, 105
3, 37836, Note_on_c, 2, 64, 0
3, 37840, Note_on_c, 2, 66, 105
3, 37956, Note_on_c, 2, 66, 0
3, 37960, Note_on_c, 2, 67, 104
3, 38200, Note_on_c, 2, 67, 0
3, 39160, Note_on_c, 2, 57, 107
3, 39516, Note_on_c, 2, 57, 0
3, 39520, Note_on_c, 2, 59, 80
3, 39636, Note_on_c, 2, 59, 0
3, 39640, Note_on_c, 2, 61, 91
3, 39756, Note_on_c, 2, 61, 0
3, 39760, Note_on_c, 2, 59, 90
3, 39876, Note_on_c, 2, 59, 0
3, 39880, Note_on_c, 2, 57, 100
3, 39996, Note_on_c, 2, 57, 0
3, 40000, Note_on_c, 2, 55, 94
3, 40116, Note_on_c, 2, 55, 0
3, 40120, Note_on_c, 2, 54, 88
3, 40236, Note_on_c, 2, 54, 0
3, 40240, Note_on_c, 2, 52, 89
3, 40356, Note_on_c, 2, 52, 0
3, 40360, Note_on_c, 2, 50, 88
3, 40596, Note_on_c, 2, 50, 0
3, 40600, Note_on_c, 2, 62, 96
3, 40720, Note_on_c, 2, 62, 0
3, 40720, Note_on_c, 2, 64, 96
3, 40840, Note_on_c, 2, 64, 0
3, 40840, Note_on_c, 2, 62, 97
3, 41320, Note_on_c, 2, 62, 0
3, 41440, Note_on_c, 2, 59, 82
3, 41556, Note_on_c, 2, 59, 0
3, 41560, Note_on_c, 2, 61, 92
3, 41676, Note_on_c, 2, 61, 0
3, 41680, Note_on_c, 2, 62, 106
3, 41796, Note_on_c, 2, 62, 0
3, 41800, Note_on_c, 2, 64, 84
3, 41916, Note_on_c, 2, 64, 0
3, 41920, Note_on_c, 2, 66, 108
3, 42036, Note_on_c, 2, 66, 0
3, 42040, Note_on_c, 2, 64, 100
3, 42156, Note_on_c, 2, 64, 0
3, 42160, Note_on_c, 2, 62, 100
3, 42276, Note_on_c, 2, 62, 0
3, 42280, Note_on_c, 2, 64, 111
3, 42396, Note_on_c, 2, 64, 0
3, 42400, Note_on_c, 2, 61, 93
3, 42516, Note_on_c, 2, 61, 0
3, 42520, Note_on_c, 2, 62, 89
3, 42636, Note_on_c, 2, 62, 0
3, 42640, Note_on_c, 2, 64, 106
3, 42756, Note_on_c, 2, 64, 0
3, 42760, Note_on_c, 2, 66, 117
3, 43480, Note_on_c, 2, 66, 0
3, 43480, Note_on_c, 2, 55, 91
3, 43716, Note_on_c, 2, 55, 0
3, 43720, Note_on_c, 2, 57, 89
3, 43956, Note_on_c, 2, 57, 0
3, 43960, Note_on_c, 2, 59, 92
3, 44200, Note_on_c, 2, 59, 0
3, 44200, Note_on_c, 2, 61, 97
3, 44436, Note_on_c, 2, 61, 0
3, 44440, Note_on_c, 2, 52, 106
3, 44680, Note_on_c, 2, 52, 0
3, 44680, Note_on_c, 2, 62, 108
3, 45400, Note_on_c, 2, 62, 0
3, 45400, Note_on_c, 2, 64, 95
3, 45640, Note_on_c, 2, 64, 0
3, 45640, Note_on_c, 2, 66, 110
3, 45756, Note_on_c, 2, 66, 0
3, 45760, Note_on_c, 2, 61, 93
3, 45876, Note_on_c, 2, 61, 0
3, 45880, Note_on_c, 2, 62, 115
3, 46116, Note_on_c, 2, 62, 0
3, 46360, Note_on_c, 2, 62, 115
3, 46476, Note_on_c, 2, 62, 0
3, 46480, Note_on_c, 2, 64, 104
3, 46596, Note_on_c, 2, 64, 0
3, 46600, Note_on_c, 2, 62, 104
3, 46840, Note_on_c, 2, 62, 0
3, 46840, Note_on_c, 2, 60, 102
3, 46956, Note_on_c, 2, 60, 0
3, 46960, Note_on_c, 2, 59, 90
3, 47076, Note_on_c, 2, 59, 0
3, 47080, Note_on_c, 2, 57, 98
3, 47196, Note_on_c, 2, 57, 0
3, 47200, Note_on_c, 2, 59, 98
3, 47316, Note_on_c, 2, 59, 0
3, 47320, Note_on_c, 2, 60, 106
3, 47436, Note_on_c, 2, 60, 0
3, 47440, Note_on_c, 2, 62, 109
3, 47556, Note_on_c, 2, 62, 0
3, 47560, Note_on_c, 2, 50, 121
3, 48156, Note_on_c, 2, 50, 0
3, 48160, Note_on_c, 2, 52, 109
3, 48276, Note_on_c, 2, 52, 0
3, 48280, Note_on_c, 2, 48, 100
3, 48396, Note_on_c, 2, 48, 0
3, 48400, Note_on_c, 2, 50, 107
3, 48516, Note_on_c, 2, 50, 0
3, 48520, Note_on_c, 2, 52, 111
3, 48636, Note_on_c, 2, 52, 0
3, 48640, Note_on_c, 2, 50, 104
3, 48756, Note_on_c, 2, 50, 0
3, 48760, Note_on_c, 2, 53, 123
3, 48996, Note_on_c, 2, 53, 0
3, 49000, Note_on_c, 2, 53, 123
3, 49120, Note_on_c, 2, 53, 0
3, 49120, Note_on_c, 2, 52, 111
3, 49300, Note_on_c, 2, 52, 0
3, 49300, Note_on_c, 2, 53, 111
3, 49360, Note_on_c, 2, 53, 0
3, 49360, Note_on_c, 2, 52, 111
3, 49420, Note_on_c, 2, 52, 0
3, 49420, Note_on_c, 2, 51, 111
3, 49480, Note_on_c, 2, 51, 0
3, 49480, Note_on_c, 2, 52, 111
3, 49720, Note_on_c, 2, 52, 0
3, 49720, Note_on_c, 2, 60, 111
3, 49960, Note_on_c, 2, 60, 0
3, 50200, Note_on_c, 2, 52, 111
3, 50440, Note_on_c, 2, 52, 0
3, 50440, Note_on_c, 2, 51, 111
3, 50560, Note_on_c, 2, 51, 0
3, 50560, Note_on_c, 2, 52, 96
3, 50676, Note_on_c, 2, 52, 0
3, 50680, Note_on_c, 2, 51, 96
3, 50800, Note_on_c, 2, 51, 0
3, 50800, Note_on_c, 2, 49, 90
3, 50916, Note_on_c, 2, 49, 0
3, 50920, Note_on_c, 2, 51, 117
3, 51036, Note_on_c, 2, 51, 0
3, 51040, Note_on_c, 2, 52, 94
3, 51156, Note_on_c, 2, 52, 0
3, 51160, Note_on_c, 2, 54, 115
3, 51276, Note_on_c, 2, 54, 0
3, 51280, Note_on_c, 2, 55, 101
3, 51396, Note_on_c, 2, 55, 0
3, 51400, Note_on_c, 2, 57, 104
3, 51516, Note_on_c, 2, 57, 0
3, 51520, Note_on_c, 2, 59, 102
3, 51636, Note_on_c, 2, 59, 0
3, 51640, Note_on_c, 2, 61, 88
3, 51756, Note_on_c, 2, 61, 0
3, 51760, Note_on_c, 2, 63, 112
3, 51876, Note_on_c, 2, 63, 0
3, 51880, Note_on_c, 2, 64, 117
3, 53556, Note_on_c, 2, 64, 0
3, 53560, Note_on_c, 2, 64, 119
3, 53676, Note_on_c, 2, 64, 0
3, 53680, Note_on_c, 2, 63, 117
3, 53796, Note_on_c, 2, 63, 0
3, 53800, Note_on_c, 2, 64, 113
3, 54036, Note_on_c, 2, 64, 0
3, 54040, Note_on_c, 2, 64, 113
3, 54276, Note_on_c, 2, 64, 0
3, 54280, Note_on_c, 2, 64, 111
3, 54516, Note_on_c, 2, 64, 0
3, 54520, Note_on_c, 2, 63, 121
3, 54636, Note_on_c, 2, 63, 0
3, 54640, Note_on_c, 2, 61, 110
3, 54756, Note_on_c, 2, 61, 0
3, 54760, Note_on_c, 2, 63, 115
3, 55236, Note_on_c, 2, 63, 0
3, 55720, Note_on_c, 2, 66, 123
3, 56316, Note_on_c, 2, 66, 0
3, 56320, Note_on_c, 2, 64, 121
3, 56436, Note_on_c, 2, 64, 0
3, 56440, Note_on_c, 2, 63, 112
3, 56556, Note_on_c, 2, 63, 0
3, 56560, Note_on_c, 2, 66, 110
3, 56676, Note_on_c, 2, 66, 0
3, 56680, Note_on_c, 2, 64, 119
3, 56796, Note_on_c, 2, 64, 0
3, 56800, Note_on_c, 2, 62, 102
3, 56916, Note_on_c, 2, 62, 0
3, 56920, Note_on_c, 2, 61, 117
3, 57036, Note_on_c, 2, 61, 0
3, 57040, Note_on_c, 2, 60, 102
3, 57156, Note_on_c, 2, 60, 0
3, 57160, Note_on_c, 2, 59, 101
3, 57276, Note_on_c, 2, 59, 0
3, 57280, Note_on_c, 2, 57, 97
3, 57396, Note_on_c, 2, 57, 0
3, 57400, Note_on_c, 2, 55, 95
3, 57516, Note_on_c, 2, 55, 0
3, 57520, Note_on_c, 2, 54, 101
3, 57636, Note_on_c, 2, 54, 0
3, 57640, Note_on_c, 2, 55, 101
3, 58116, Note_on_c, 2, 55, 0
3, 59200, Note_on_c, 2, 69, 117
3, 59316, Note_on_c, 2, 69, 0
3, 59320, Note_on_c, 2, 68, 104
3, 59436, Note_on_c, 2, 68, 0
3, 59440, Note_on_c, 2, 66, 112
3, 59556, Note_on_c, 2, 66, 0
3, 59560, Note_on_c, 2, 68, 85
3, 59676, Note_on_c, 2, 68, 0
3, 59680, Note_on_c, 2, 65, 112
3, 59796, Note_on_c, 2, 65, 0
3, 59800, Note_on_c, 2, 64, 96
3, 59916, Note_on_c, 2, 64, 0
3, 59920, Note_on_c, 2, 62, 97
3, 60036, Note_on_c, 2, 62, 0
3, 60040, Note_on_c, 2, 64, 106
3, 60156, Note_on_c, 2, 64, 0
3, 60160, Note_on_c, 2, 62, 104
3, 60276, Note_on_c, 2, 62, 0
3, 60280, Note_on_c, 2, 60, 96
3, 60396, Note_on_c, 2, 60, 0
3, 60400, Note_on_c, 2, 59, 92
3, 60516, Note_on_c, 2, 59, 0
3, 60520, Note_on_c, 2, 60, 93
3, 62196, Note_on_c, 2, 60, 0
3, 62200, Note_on_c, 2, 67, 107
3, 62436, Note_on_c, 2, 67, 0
3, 62440, Note_on_c, 2, 66, 101
3, 62676, Note_on_c, 2, 66, 0
3, 62680, Note_on_c, 2, 64, 102
3, 62916, Note_on_c, 2, 64, 0
3, 62920, Note_on_c, 2, 62, 111
3, 63036, Note_on_c, 2, 62, 0
3, 63040, Note_on_c, 2, 59, 101
3, 63156, Note_on_c, 2, 59, 0
3, 63160, Note_on_c, 2, 60, 102
3, 63276, Note_on_c, 2, 60, 0
3, 63280, Note_on_c, 2, 57, 95
3, 63396, Note_on_c, 2, 57, 0
3, 63400, Note_on_c, 2, 59, 106
3, 63636, Note_on_c, 2, 59, 0
3, 63640, Note_on_c, 2, 60, 104
3, 63876, Note_on_c, 2, 60, 0
3, 63880, Note_on_c, 2, 59, 109
3, 64116, Note_on_c, 2, 59, 0
3, 64120, Note_on_c, 2, 57, 111
3, 64356, Note_on_c, 2, 57, 0
3, 64360, Note_on_c, 2, 57, 101
3, 64420, Note_on_c, 2, 57, 0
3, 64420, Note_on_c, 2, 55, 101
3, 64480, Note_on_c, 2, 55, 0
3, 64480, Note_on_c, 2, 57, 101
3, 64540, Note_on_c, 2, 57, 0
3, 64540, Note_on_c, 2, 55, 101
3, 64720, Note_on_c, 2, 55, 0
3, 64720, Note_on_c, 2, 54, 101
3, 64840, Note_on_c, 2, 54, 0
3, 64840, Note_on_c, 2, 55, 115
3, 65436, Note_on_c, 2, 55, 0
3, 65440, Note_on_c, 2, 59, 115
3, 65556, Note_on_c, 2, 59, 0
3, 65560, Note_on_c, 2, 57, 106
3, 65676, Note_on_c, 2, 57, 0
3, 65680, Note_on_c, 2, 55, 101
3, 65796, Note_on_c, 2, 55, 0
3, 65800, Note_on_c, 2, 54, 121
3, 65916, Note_on_c, 2, 54, 0
3, 65920, Note_on_c, 2, 52, 113
3, 66036, Note_on_c, 2, 52, 0
3, 66040, Note_on_c, 2, 50, 100
3, 66156, Note_on_c, 2, 50, 0
3, 66160, Note_on_c, 2, 48, 95
3, 66276, Note_on_c, 2, 48, 0
3, 66280, Note_on_c, 2, 47, 106
3, 66396, Note_on_c, 2, 47, 0
3, 66400, Note_on_c, 2, 50, 109
3, 66516, Note_on_c, 2, 50, 0
3, 66520, Note_on_c, 2, 55, 100
3, 66636, Note_on_c, 2, 55, 0
3, 66640, Note_on_c, 2, 59, 101
3, 66756, Note_on_c, 2, 59, 0
3, 66760, Note_on_c, 2, 62, 123
3, 66996, Note_on_c, 2, 62, 0
3, 67000, Note_on_c, 2, 55, 100
3, 67356, Note_on_c, 2, 55, 0
3, 67360, Note_on_c, 2, 57, 102
3, 67476, Note_on_c, 2, 57, 0
3, 67480, Note_on_c, 2, 54, 110
3, 67716, Note_on_c, 2, 54, 0
3, 67720, Note_on_c, 2, 55, 106
3, 68200, Note_on_c, 2, 55, 0
3, 69400, Note_on_c, 2, 62, 115
3, 69516, Note_on_c, 2, 62, 0
3, 69520, Note_on_c, 2, 64, 104
3, 69636, Note_on_c, 2, 64, 0
3, 69640, Note_on_c, 2, 62, 104
3, 69880, Note_on_c, 2, 62, 0
3, 69880, Note_on_c, 2, 60, 102
3, 69996, Note_on_c, 2, 60, 0
3, 70000, Note_on_c, 2, 59, 90
3, 70116, Note_on_c, 2, 59, 0
3, 70120, Note_on_c, 2, 57, 98
3, 70236, Note_on_c, 2, 57, 0
3, 70240, Note_on_c, 2, 59, 98
3, 70356, Note_on_c, 2, 59, 0
3, 70360, Note_on_c, 2, 60, 106
3, 70476, Note_on_c, 2, 60, 0
3, 70480, Note_on_c, 2, 62, 109
3, 70596, Note_on_c, 2, 62, 0
3, 70600, Note_on_c, 2, 50, 121
3, 71196, Note_on_c, 2, 50, 0
3, 71200, Note_on_c, 2, 52, 109
3, 71316, Note_on_c, 2, 52, 0
3, 71320, Note_on_c, 2, 48, 100
3, 71436, Note_on_c, 2, 48, 0
3, 71440, Note_on_c, 2, 50, 107
3, 71556, Note_on_c, 2, 50, 0
3, 71560, Note_on_c, 2, 52, 111
3, 71676, Note_on_c, 2, 52, 0
3, 71680, Note_on_c, 2, 50, 104
3, 71796, Note_on_c, 2, 50, 0
3, 71800, Note_on_c, 2, 53, 123
3, 72036, Note_on_c, 2, 53, 0
3, 72040, Note_on_c, 2, 53, 123
3, 72160, Note_on_c, 2, 53, 0
3, 72160, Note_on_c, 2, 52, 111
3, 72340, Note_on_c, 2, 52, 0
3, 72340, Note_on_c, 2, 53, 111
3, 72400, Note_on_c, 2, 53, 0
3, 72400, Note_on_c, 2, 52, 111
3, 72460, Note_on_c, 2, 52, 0
3, 72460, Note_on_c, 2, 51, 111
3, 72520, Note_on_c, 2, 51, 0
3, 72520, Note_on_c, 2, 52, 111
3, 72760, Note_on_c, 2, 52, 0
3, 72760, Note_on_c, 2, 60, 111
3, 73000, Note_on_c, 2, 60, 0
3, 73240, Note_on_c, 2, 52, 111
3, 73480, Note_on_c, 2, 52, 0
3, 73480, Note_on_c, 2, 51, 111
3, 73600, Note_on_c, 2, 51, 0
3, 73600, Note_on_c, 2, 52, 96
3, 73716, Note_on_c, 2, 52, 0
3, 73720, Note_on_c, 2, 51, 96
3, 73840, Note_on_c, 2, 51, 0
3, 73840, Note_on_c, 2, 49, 90
3, 73956, Note_on_c, 2, 49, 0
3, 73960, Note_on_c, 2, 51, 117
3, 74076, Note_on_c, 2, 51, 0
3, 74080, Note_on_c, 2, 52, 94
3, 74196, Note_on_c, 2, 52, 0
3, 74200, Note_on_c, 2, 54, 115
3, 74316, Note_on_c, 2, 54, 0
3, 74320, Note_on_c, 2, 55, 101
3, 74436, Note_on_c, 2, 55, 0
3, 74440, Note_on_c, 2, 57, 104
3, 74556, Note_on_c, 2, 57, 0
3, 74560, Note_on_c, 2, 59, 102
3, 74676, Note_on_c, 2, 59, 0
3, 74680, Note_on_c, 2, 61, 88
3, 74796, Note_on_c, 2, 61, 0
3, 74800, Note_on_c, 2, 63, 112
3, 74916, Note_on_c, 2, 63, 0
3, 74920, Note_on_c, 2, 64, 117
3, 76596, Note_on_c, 2, 64, 0
3, 76600, Note_on_c, 2, 64, 119
3, 76716, Note_on_c, 2, 64, 0
3, 76720, Note_on_c, 2, 63, 117
3, 76836, Note_on_c, 2, 63, 0
3, 76840, Note_on_c, 2, 64, 113
3, 77076, Note_on_c, 2, 64, 0
3, 77080, Note_on_c, 2, 64, 113
3, 77316, Note_on_c, 2, 64, 0
3, 77320, Note_on_c, 2, 64, 111
3, 77556, Note_on_c, 2, 64, 0
3, 77560, Note_on_c, 2, 63, 121
3, 77676, Note_on_c, 2, 63, 0
3, 77680, Note_on_c, 2, 61, 110
3, 77796, Note_on_c, 2, 61, 0
3, 77800, Note_on_c, 2, 63, 115
3, 78276, Note_on_c, 2, 63, 0
3, 78760, Note_on_c, 2, 66, 123
3, 79356, Note_on_c, 2, 66, 0
3, 79360, Note_on_c, 2, 64, 121
3, 79476, Note_on_c, 2, 64, 0
3, 79480, Note_on_c, 2, 63, 112
3, 79596, Note_on_c, 2, 63, 0
3, 79600, Note_on_c, 2, 66, 110
3, 79716, Note_on_c, 2, 66, 0
3, 79720, Note_on_c, 2, 64, 119
3, 79836, Note_on_c, 2, 64, 0
3, 79840, Note_on_c, 2, 62, 102
3, 79956, Note_on_c, 2, 62, 0
3, 79960, Note_on_c, 2, 61, 117
3, 80076, Note_on_c, 2, 61, 0
3, 80080, Note_on_c, 2, 60, 102
3, 80196, Note_on_c, 2, 60, 0
3, 80200, Note_on_c, 2, 59, 101
3, 80316, Note_on_c, 2, 59, 0
3, 80320, Note_on_c, 2, 57, 97
3, 80436, Note_on_c, 2, 57, 0
3, 80440, Note_on_c, 2, 55, 95
3, 80556, Note_on_c, 2, 55, 0
3, 80560, Note_on_c, 2, 54, 101
3, 80676, Note_on_c, 2, 54, 0
3, 80680, Note_on_c, 2, 55, 101
3, 81156, Note_on_c, 2, 55, 0
3, 82240, Note_on_c, 2, 69, 117
3, 82356, Note_on_c, 2, 69, 0
3, 82360, Note_on_c, 2, 68, 104
3, 82476, Note_on_c, 2, 68, 0
3, 82480, Note_on_c, 2, 66, 112
3, 82596, Note_on_c, 2, 66, 0
3, 82600, Note_on_c, 2, 68, 85
3, 82716, Note_on_c, 2, 68, 0
3, 82720, Note_on_c, 2, 65, 112
3, 82836, Note_on_c, 2, 65, 0
3, 82840, Note_on_c, 2, 64, 96
3, 82956, Note_on_c, 2, 64, 0
3, 82960, Note_on_c, 2, 62, 97
3, 83076, Note_on_c, 2, 62, 0
3, 83080, Note_on_c, 2, 64, 106
3, 83196, Note_on_c, 2, 64, 0
3, 83200, Note_on_c, 2, 62, 104
3, 83316, Note_on_c, 2, 62, 0
3, 83320, Note_on_c, 2, 60, 96
3, 83436, Note_on_c, 2, 60, 0
3, 83440, Note_on_c, 2, 59, 92
3, 83556, Note_on_c, 2, 59, 0
3, 83560, Note_on_c, 2, 60, 93
3, 85236, Note_on_c, 2, 60, 0
3, 85240, Note_on_c, 2, 67, 107
3, 85476, Note_on_c, 2, 67, 0
3, 85480, Note_on_c, 2, 66, 101
3, 85716, Note_on_c, 2, 66, 0
3, 85720, Note_on_c, 2, 64, 102
3, 85956, Note_on_c, 2, 64, 0
3, 85960, Note_on_c, 2, 62, 111
3, 86076, Note_on_c, 2, 62, 0
3, 86080, Note_on_c, 2, 59, 101
3, 86196, Note_on_c, 2, 59, 0
3, 86200, Note_on_c, 2, 60, 102
3, 86316, Note_on_c, 2, 60, 0
3, 86320, Note_on_c, 2, 57, 95
3, 86436, Note_on_c, 2, 57, 0
3, 86440, Note_on_c, 2, 59, 106
3, 86676, Note_on_c, 2, 59, 0
3, 86680, Note_on_c, 2, 60, 104
3, 86916, Note_on_c, 2, 60, 0
3, 86920, Note_on_c, 2, 59, 109
3, 87156, Note_on_c, 2, 59, 0
3, 87160, Note_on_c, 2, 57, 111
3, 87396, Note_on_c, 2, 57, 0
3, 87400, Note_on_c, 2, 57, 101
3, 87460, Note_on_c, 2, 57, 0
3, 87460, Note_on_c, 2, 55, 101
3, 87520, Note_on_c, 2, 55, 0
3, 87520, Note_on_c, 2, 57, 101
3, 87580, Note_on_c, 2, 57, 0
3, 87580, Note_on_c, 2, 55, 101
3, 87760, Note_on_c, 2, 55, 0
3, 87760, Note_on_c, 2, 54, 101
3, 87880, Note_on_c, 2, 54, 0
3, 87880, Note_on_c, 2, 55, 115
3, 88476, Note_on_c, 2, 55, 0
3, 88480, Note_on_c, 2, 59, 115
3, 88596, Note_on_c, 2, 59, 0
3, 88600, Note_on_c, 2, 57, 106
3, 88716, Note_on_c, 2, 57, 0
3, 88720, Note_on_c, 2, 55, 101
3, 88836, Note_on_c, 2, 55, 0
3, 88840, Note_on_c, 2, 54, 121
3, 88956, Note_on_c, 2, 54, 0
3, 88960, Note_on_c, 2, 52, 113
3, 89076, Note_on_c, 2, 52, 0
3, 89080, Note_on_c, 2, 50, 100
3, 89196, Note_on_c, 2, 50, 0
3, 89200, Note_on_c, 2, 48, 95
3, 89316, Note_on_c, 2, 48, 0
3, 89320, Note_on_c, 2, 47, 106
3, 89436, Note_on_c, 2, 47, 0
3, 89440, Note_on_c, 2, 50, 109
3, 89556, Note_on_c, 2, 50, 0
3, 89560, Note_on_c, 2, 55, 100
3, 89676, Note_on_c, 2, 55, 0
3, 89680, Note_on_c, 2, 59, 101
3, 89796, Note_on_c, 2, 59, 0
3, 89800, Note_on_c, 2, 62, 123
3, 90036, Note_on_c, 2, 62, 0
3, 90040, Note_on_c, 2, 55, 100
3, 90396, Note_on_c, 2, 55, 0
3, 90400, Note_on_c, 2, 57, 102
3, 90516, Note_on_c, 2, 57, 0
3, 90520, Note_on_c, 2, 54, 110
3, 90756, Note_on_c, 2, 54, 0
3, 90760, Note_on_c, 2, 55, 106
3, 91240, Note_on_c, 2, 55, 0
3, 93600, End_track
4, 0, Start_track
4, 0, Title_t, "goldberg.mid"
4, 40, Note_on_c, 3, 55, 109
4, 280, Note_on_c, 3, 55, 0
4, 520, Note_on_c, 3, 55, 98
4, 760, Note_on_c, 3, 55, 0
4, 1000, Note_on_c, 3, 55, 102
4, 1360, Note_on_c, 3, 55, 0
4, 1480, Note_on_c, 3, 54, 108
4, 1716, Note_on_c, 3, 54, 0
4, 1960, Note_on_c, 3, 54, 110
4, 2196, Note_on_c, 3, 54, 0
4, 2440, Note_on_c, 3, 54, 108
4, 2796, Note_on_c, 3, 54, 0
4, 2920, Note_on_c, 3, 52, 106
4, 3156, Note_on_c, 3, 52, 0
4, 3400, Note_on_c, 3, 52, 106
4, 3756, Note_on_c, 3, 52, 0
4, 3880, Note_on_c, 3, 52, 100
4, 4360, Note_on_c, 3, 52, 0
4, 4360, Note_on_c, 3, 50, 104
4, 4480, Note_on_c, 3, 50, 0
4, 4480, Note_on_c, 3, 38, 92
4, 4600, Note_on_c, 3, 38, 0
4, 4600, Note_on_c, 3, 50, 92
4, 4840, Note_on_c, 3, 50, 0
4, 5080, Note_on_c, 3, 48, 98
4, 5196, Note_on_c, 3, 48, 0
4, 5200, Note_on_c, 3, 47, 77
4, 5316, Note_on_c, 3, 47, 0
4, 5320, Note_on_c, 3, 45, 95
4, 5560, Note_on_c, 3, 45, 0
4, 5560, Note_on_c, 3, 48, 95
4, 5800, Note_on_c, 3, 48, 0
4, 5800, Note_on_c, 3, 47, 104
4, 6040, Note_on_c, 3, 47, 0
4, 6280, Note_on_c, 3, 47, 111
4, 6516, Note_on_c, 3, 47, 0
4, 6760, Note_on_c, 3, 47, 106
4, 7236, Note_on_c, 3, 47, 0
4, 7240, Note_on_c, 3, 48, 101
4, 7480, Note_on_c, 3, 48, 0
4, 7720, Note_on_c, 3, 48, 97
4, 7956, Note_on_c, 3, 48, 0
4, 8200, Note_on_c, 3, 48, 101
4, 8556, Note_on_c, 3, 48, 0
4, 8680, Note_on_c, 3, 50, 95
4, 8916, Note_on_c, 3, 50, 0
4, 9160, Note_on_c, 3, 50, 98
4, 9396, Note_on_c, 3, 50, 0
4, 9640, Note_on_c, 3, 50, 88
4, 10116, Note_on_c, 3, 50, 0
4, 10120, Note_on_c, 3, 55, 104
4, 10476, Note_on_c, 3, 55, 0
4, 10480, Note_on_c, 3, 47, 88
4, 10596, Note_on_c, 3, 47, 0
4, 10600, Note_on_c, 3, 52, 96
4, 10716, Note_on_c, 3, 52, 0
4, 10720, Note_on_c, 3, 50, 84
4, 10836, Note_on_c, 3, 50, 0
4, 10840, Note_on_c, 3, 48, 100
4, 10956, Note_on_c, 3, 48, 0
4, 10960, Note_on_c, 3, 52, 100
4, 11076, Note_on_c, 3, 52, 0
4, 11080, Note_on_c, 3, 50, 95
4, 11196, Note_on_c, 3, 50, 0
4, 11200, Note_on_c, 3, 48, 92
4, 11316, Note_on_c, 3, 48, 0
4, 11320, Note_on_c, 3, 47, 91
4, 11436, Note_on_c, 3, 47, 0
4, 11440, Note_on_c, 3, 45, 89
4, 11556, Note_on_c, 3, 45, 0
4, 11560, Note_on_c, 3, 47, 111
4, 11796, Note_on_c, 3, 47, 0
4, 11800, Note_on_c, 3, 43, 98
4, 12040, Note_on_c, 3, 43, 0
4, 12280, Note_on_c, 3, 55, 104
4, 12396, Note_on_c, 3, 55, 0
4, 12400, Note_on_c, 3, 54, 102
4, 12516, Note_on_c, 3, 54, 0
4, 12520, Note_on_c, 3, 55, 102
4, 12756, Note_on_c, 3, 55, 0
4, 12760, Note_on_c, 3, 52, 100
4, 12996, Note_on_c, 3, 52, 0
4, 13000, Note_on_c, 3, 54, 119
4, 13236, Note_on_c, 3, 54, 0
4, 13240, Note_on_c, 3, 59, 113
4, 13476, Note_on_c, 3, 59, 0
4, 13720, Note_on_c, 3, 47, 102
4, 13836, Note_on_c, 3, 47, 0
4, 13840, Note_on_c, 3, 49, 99
4, 13956, Note_on_c, 3, 49, 0
4, 13960, Note_on_c, 3, 50, 98
4, 14196, Note_on_c, 3, 50, 0
4, 14200, Note_on_c, 3, 47, 107
4, 14440, Note_on_c, 3, 47, 0
4, 14440, Note_on_c, 3, 52, 81
4, 14556, Note_on_c, 3, 52, 0
4, 14560, Note_on_c, 3, 54, 90
4, 14676, Note_on_c, 3, 54, 0
4, 14680, Note_on_c, 3, 55, 119
4, 14796, Note_on_c, 3, 55, 0
4, 14800, Note_on_c, 3, 54, 95
4, 14916, Note_on_c, 3, 54, 0
4, 14920, Note_on_c, 3, 52, 101
4, 15156, Note_on_c, 3, 52, 0
4, 15160, Note_on_c, 3, 54, 110
4, 15396, Note_on_c, 3, 54, 0
4, 15400, Note_on_c, 3, 52, 97
4, 15636, Note_on_c, 3, 52, 0
4, 15640, Note_on_c, 3, 50, 90
4, 15876, Note_on_c, 3, 50, 0
4, 15880, Note_on_c, 3, 49, 96
4, 15996, Note_on_c, 3, 49, 0
4, 16000, Note_on_c, 3, 50, 91
4, 16116, Note_on_c, 3, 50, 0
4, 16120, Note_on_c, 3, 52, 92
4, 16236, Note_on_c, 3, 52, 0
4, 16240, Note_on_c, 3, 50, 85
4, 16356, Note_on_c, 3, 50, 0
4, 16360, Note_on_c, 3, 49, 92
4, 16596, Note_on_c, 3, 49, 0
4, 16600, Note_on_c, 3, 52, 100
4, 16836, Note_on_c, 3, 52, 0
4, 16840, Note_on_c, 3, 49, 94
4, 17076, Note_on_c, 3, 49, 0
4, 17080, Note_on_c, 3, 45, 91
4, 17316, Note_on_c, 3, 45, 0
4, 17320, Note_on_c, 3, 50, 100
4, 17796, Note_on_c, 3, 50, 0
4, 17920, Note_on_c, 3, 50, 97
4, 18036, Note_on_c, 3, 50, 0
4, 18040, Note_on_c, 3, 52, 100
4, 18156, Note_on_c, 3, 52, 0
4, 18160, Note_on_c, 3, 54, 96
4, 18276, Note_on_c, 3, 54, 0
4, 18280, Note_on_c, 3, 55, 91
4, 18396, Note_on_c, 3, 55, 0
4, 18400, Note_on_c, 3, 57, 93
4, 18516, Note_on_c, 3, 57, 0
4, 18520, Note_on_c, 3, 55, 92
4, 18636, Note_on_c, 3, 55, 0
4, 18640, Note_on_c, 3, 54, 92
4, 18756, Note_on_c, 3, 54, 0
4, 18760, Note_on_c, 3, 55, 100
4, 18996, Note_on_c, 3, 55, 0
4, 19000, Note_on_c, 3, 43, 98
4, 19236, Note_on_c, 3, 43, 0
4, 19360, Note_on_c, 3, 52, 71
4, 19476, Note_on_c, 3, 52, 0
4, 19480, Note_on_c, 3, 54, 89
4, 19596, Note_on_c, 3, 54, 0
4, 19600, Note_on_c, 3, 55, 85
4, 19716, Note_on_c, 3, 55, 0
4, 19720, Note_on_c, 3, 57, 101
4, 19836, Note_on_c, 3, 57, 0
4, 19840, Note_on_c, 3, 54, 101
4, 19956, Note_on_c, 3, 54, 0
4, 19960, Note_on_c, 3, 52, 89
4, 20076, Note_on_c, 3, 52, 0
4, 20080, Note_on_c, 3, 50, 81
4, 20196, Note_on_c, 3, 50, 0
4, 20200, Note_on_c, 3, 59, 101
4, 20316, Note_on_c, 3, 59, 0
4, 20320, Note_on_c, 3, 47, 91
4, 20436, Note_on_c, 3, 47, 0
4, 20440, Note_on_c, 3, 52, 70
4, 20556, Note_on_c, 3, 52, 0
4, 20560, Note_on_c, 3, 50, 80
4, 20676, Note_on_c, 3, 50, 0
4, 20680, Note_on_c, 3, 49, 101
4, 20796, Note_on_c, 3, 49, 0
4, 20800, Note_on_c, 3, 45, 83
4, 20916, Note_on_c, 3, 45, 0
4, 20920, Note_on_c, 3, 50, 90
4, 21040, Note_on_c, 3, 50, 0
4, 21040, Note_on_c, 3, 55, 90
4, 21160, Note_on_c, 3, 55, 0
4, 21160, Note_on_c, 3, 57, 117
4, 21276, Note_on_c, 3, 57, 0
4, 21280, Note_on_c, 3, 52, 75
4, 21396, Note_on_c, 3, 52, 0
4, 21400, Note_on_c, 3, 49, 93
4, 21516, Note_on_c, 3, 49, 0
4, 21520, Note_on_c, 3, 45, 99
4, 21636, Note_on_c, 3, 45, 0
4, 21640, Note_on_c, 3, 50, 106
4, 21756, Note_on_c, 3, 50, 0
4, 21760, Note_on_c, 3, 52, 90
4, 21876, Note_on_c, 3, 52, 0
4, 21880, Note_on_c, 3, 50, 97
4, 21996, Note_on_c, 3, 50, 0
4, 22000, Note_on_c, 3, 49, 86
4, 22116, Note_on_c, 3, 49, 0
4, 22120, Note_on_c, 3, 50, 106
4, 22356, Note_on_c, 3, 50, 0
4, 22360, Note_on_c, 3, 45, 111
4, 22596, Note_on_c, 3, 45, 0
4, 22600, Note_on_c, 3, 38, 102
4, 22840, Note_on_c, 3, 38, 0
4, 23080, Note_on_c, 3, 55, 109
4, 23320, Note_on_c, 3, 55, 0
4, 23560, Note_on_c, 3, 55, 98
4, 23800, Note_on_c, 3, 55, 0
4, 24040, Note_on_c, 3, 55, 102
4, 24400, Note_on_c, 3, 55, 0
4, 24520, Note_on_c, 3, 54, 108
4, 24756, Note_on_c, 3, 54, 0
4, 25000, Note_on_c, 3, 54, 110
4, 25236, Note_on_c, 3, 54, 0
4, 25480, Note_on_c, 3, 54, 108
4, 25836, Note_on_c, 3, 54, 0
4, 25960, Note_on_c, 3, 52, 106
4, 26196, Note_on_c, 3, 52, 0
4, 26440, Note_on_c, 3, 52, 106
4, 26796, Note_on_c, 3, 52, 0
4, 26920, Note_on_c, 3, 49, 100
4, 27160, Note_on_c, 3, 49, 0
4, 27400, Note_on_c, 3, 50, 104
4, 27520, Note_on_c, 3, 50, 0
4, 27520, Note_on_c, 3, 38, 92
4, 27640, Note_on_c, 3, 38, 0
4, 27640, Note_on_c, 3, 50, 92
4, 27880, Note_on_c, 3, 50, 0
4, 28120, Note_on_c, 3, 48, 98
4, 28236, Note_on_c, 3, 48, 0
4, 28240, Note_on_c, 3, 47, 77
4, 28356, Note_on_c, 3, 47, 0
4, 28360, Note_on_c, 3, 45, 95
4, 28600, Note_on_c, 3, 45, 0
4, 28600, Note_on_c, 3, 48, 95
4, 28840, Note_on_c, 3, 48, 0
4, 28840, Note_on_c, 3, 47, 104
4, 29080, Note_on_c, 3, 47, 0
4, 29320, Note_on_c, 3, 47, 111
4, 29556, Note_on_c, 3, 47, 0
4, 29800, Note_on_c, 3, 47, 106
4, 30276, Note_on_c, 3, 47, 0
4, 30280, Note_on_c, 3, 48, 101
4, 30520, Note_on_c, 3, 48, 0
4, 30760, Note_on_c, 3, 48, 97
4, 30996, Note_on_c, 3, 48, 0
4, 31240, Note_on_c, 3, 48, 101
4, 31596, Note_on_c, 3, 48, 0
4, 31720, Note_on_c, 3, 50, 95
4, 31956, Note_on_c, 3, 50, 0
4, 32200, Note_on_c, 3, 50, 98
4, 32436, Note_on_c, 3, 50, 0
4, 32680, Note_on_c, 3, 50, 88
4, 33156, Note_on_c, 3, 50, 0
4, 33160, Note_on_c, 3, 55, 104
4, 33516, Note_on_c, 3, 55, 0
4, 33520, Note_on_c, 3, 47, 88
4, 33636, Note_on_c, 3, 47, 0
4, 33640, Note_on_c, 3, 52, 96
4, 33756, Note_on_c, 3, 52, 0
4, 33760, Note_on_c, 3, 50, 84
4, 33876, Note_on_c, 3, 50, 0
4, 33880, Note_on_c, 3, 48, 100
4, 33996, Note_on_c, 3, 48, 0
4, 34000, Note_on_c, 3, 52, 100
4, 34116, Note_on_c, 3, 52, 0
4, 34120, Note_on_c, 3, 50, 95
4, 34236, Note_on_c, 3, 50, 0
4, 34240, Note_on_c, 3, 48, 92
4, 34356, Note_on_c, 3, 48, 0
4, 34360, Note_on_c, 3, 47, 91
4, 34476, Note_on_c, 3, 47, 0
4, 34480, Note_on_c, 3, 45, 89
4, 34596, Note_on_c, 3, 45, 0
4, 34600, Note_on_c, 3, 47, 111
4, 34836, Note_on_c, 3, 47, 0
4, 34840, Note_on_c, 3, 43, 98
4, 35080, Note_on_c, 3, 43, 0
4, 35320, Note_on_c, 3, 55, 104
4, 35436, Note_on_c, 3, 55, 0
4, 35440, Note_on_c, 3, 54, 102
4, 35556, Note_on_c, 3, 54, 0
4, 35560, Note_on_c, 3, 55, 102
4, 35796, Note_on_c, 3, 55, 0
4, 35800, Note_on_c, 3, 52, 100
4, 36036, Note_on_c, 3, 52, 0
4, 36040, Note_on_c, 3, 54, 119
4, 36276, Note_on_c, 3, 54, 0
4, 36280, Note_on_c, 3, 59, 113
4, 36516, Note_on_c, 3, 59, 0
4, 36760, Note_on_c, 3, 47, 102
4, 36876, Note_on_c, 3, 47, 0
4, 36880, Note_on_c, 3, 49, 99
4, 36996, Note_on_c, 3, 49, 0
4, 37000, Note_on_c, 3, 50, 98
4, 37236, Note_on_c, 3, 50, 0
4, 37240, Note_on_c, 3, 47, 107
4, 37480, Note_on_c, 3, 47, 0
4, 37480, Note_on_c, 3, 52, 81
4, 37596, Note_on_c, 3, 52, 0
4, 37600, Note_on_c, 3, 54, 90
4, 37716, Note_on_c, 3, 54, 0
4, 37720, Note_on_c, 3, 55, 119
4, 37836, Note_on_c, 3, 55, 0
4, 37840, Note_on_c, 3, 54, 95
4, 37956, Note_on_c, 3, 54, 0
4, 37960, Note_on_c, 3, 52, 101
4, 38196, Note_on_c, 3, 52, 0
4, 38200, Note_on_c, 3, 54, 110
4, 38436, Note_on_c, 3, 54, 0
4, 38440, Note_on_c, 3, 52, 97
4, 38676, Note_on_c, 3, 52, 0
4, 38680, Note_on_c, 3, 50, 90
4, 38916, Note_on_c, 3, 50, 0
4, 38920, Note_on_c, 3, 49, 96
4, 39036, Note_on_c, 3, 49, 0
4, 39040, Note_on_c, 3, 50, 91
4, 39156, Note_on_c, 3, 50, 0
4, 39160, Note_on_c, 3, 52, 92
4, 39276, Note_on_c, 3, 52, 0
4, 39280, Note_on_c, 3, 50, 85
4, 39396, Note_on_c, 3, 50, 0
4, 39400, Note_on_c, 3, 49, 92
4, 39636, Note_on_c, 3, 49, 0
4, 39640, Note_on_c, 3, 52, 100
4, 39876, Note_on_c, 3, 52, 0
4, 39880, Note_on_c, 3, 49, 94
4, 40116, Note_on_c, 3, 49, 0
4, 40120, Note_on_c, 3, 45, 91
4, 40356, Note_on_c, 3, 45, 0
4, 40360, Note_on_c, 3, 50, 100
4, 40836, Note_on_c, 3, 50, 0
4, 40960, Note_on_c, 3, 50, 97
4, 41076, Note_on_c, 3, 50, 0
4, 41080, Note_on_c, 3, 52, 100
4, 41196, Note_on_c, 3, 52, 0
4, 41200, Note_on_c, 3, 54, 96
4, 41316, Note_on_c, 3, 54, 0
4, 41320, Note_on_c, 3, 55, 91
4, 41436, Note_on_c, 3, 55, 0
4, 41440, Note_on_c, 3, 57, 93
4, 41556, Note_on_c, 3, 57, 0
4, 41560, Note_on_c, 3, 55, 92
4, 41676, Note_on_c, 3, 55, 0
4, 41680, Note_on_c, 3, 54, 92
4, 41796, Note_on_c, 3, 54, 0
4, 41800, Note_on_c, 3, 55, 100
4, 42036, Note_on_c, 3, 55, 0
4, 42040, Note_on_c, 3, 43, 98
4, 42276, Note_on_c, 3, 43, 0
4, 42400, Note_on_c, 3, 52, 71
4, 42516, Note_on_c, 3, 52, 0
4, 42520, Note_on_c, 3, 54, 89
4, 42636, Note_on_c, 3, 54, 0
4, 42640, Note_on_c, 3, 55, 85
4, 42756, Note_on_c, 3, 55, 0
4, 42760, Note_on_c, 3, 57, 101
4, 42876, Note_on_c, 3, 57, 0
4, 42880, Note_on_c, 3, 54, 101
4, 42996, Note_on_c, 3, 54, 0
4, 43000, Note_on_c, 3, 52, 89
4, 43116, Note_on_c, 3, 52, 0
4, 43120, Note_on_c, 3, 50, 81
4, 43236, Note_on_c, 3, 50, 0
4, 43240, Note_on_c, 3, 59, 101
4, 43356, Note_on_c, 3, 59, 0
4, 43360, Note_on_c, 3, 47, 91
4, 43476, Note_on_c, 3, 47, 0
4, 43480, Note_on_c, 3, 52, 70
4, 43596, Note_on_c, 3, 52, 0
4, 43600, Note_on_c, 3, 50, 80
4, 43716, Note_on_c, 3, 50, 0
4, 43720, Note_on_c, 3, 49, 101
4, 43836, Note_on_c, 3, 49, 0
4, 43840, Note_on_c, 3, 45, 83
4, 43956, Note_on_c, 3, 45, 0
4, 43960, Note_on_c, 3, 50, 90
4, 44080, Note_on_c, 3, 50, 0
4, 44080, Note_on_c, 3, 55, 90
4, 44200, Note_on_c, 3, 55, 0
4, 44200, Note_on_c, 3, 57, 117
4, 44316, Note_on_c, 3, 57, 0
4, 44320, Note_on_c, 3, 52, 75
4, 44436, Note_on_c, 3, 52, 0
4, 44440, Note_on_c, 3, 49, 93
4, 44556, Note_on_c, 3, 49, 0
4, 44560, Note_on_c, 3, 45, 99
4, 44676, Note_on_c, 3, 45, 0
4, 44680, Note_on_c, 3, 50, 106
4, 44796, Note_on_c, 3, 50, 0
4, 44800, Note_on_c, 3, 52, 90
4, 44916, Note_on_c, 3, 52, 0
4, 44920, Note_on_c, 3, 50, 97
4, 45036, Note_on_c, 3, 50, 0
4, 45040, Note_on_c, 3, 49, 86
4, 45156, Note_on_c, 3, 49, 0
4, 45160, Note_on_c, 3, 50, 106
4, 45396, Note_on_c, 3, 50, 0
4, 45400, Note_on_c, 3, 45, 111
4, 45636, Note_on_c, 3, 45, 0
4, 45640, Note_on_c, 3, 38, 102
4, 45880, Note_on_c, 3, 38, 0
4, 46120, Note_on_c, 3, 50, 102
4, 46356, Note_on_c, 3, 50, 0
4, 46600, Note_on_c, 3, 50, 115
4, 46836, Note_on_c, 3, 50, 0
4, 47080, Note_on_c, 3, 48, 119
4, 47556, Note_on_c, 3, 48, 0
4, 47560, Note_on_c, 3, 47, 104
4, 47796, Note_on_c, 3, 47, 0
4, 47800, Note_on_c, 3, 48, 111
4, 48036, Note_on_c, 3, 48, 0
4, 48040, Note_on_c, 3, 47, 102
4, 48280, Note_on_c, 3, 47, 0
4, 48280, Note_on_c, 3, 45, 78
4, 48516, Note_on_c, 3, 45, 0
4, 48520, Note_on_c, 3, 43, 90
4, 48756, Note_on_c, 3, 43, 0
4, 48760, Note_on_c, 3, 45, 88
4, 48876, Note_on_c, 3, 45, 0
4, 48880, Note_on_c, 3, 47, 92
4, 48996, Note_on_c, 3, 47, 0
4, 49000, Note_on_c, 3, 48, 98
4, 49236, Note_on_c, 3, 48, 0
4, 49240, Note_on_c, 3, 47, 98
4, 49476, Note_on_c, 3, 47, 0
4, 49480, Note_on_c, 3, 48, 91
4, 49716, Note_on_c, 3, 48, 0
4, 49720, Note_on_c, 3, 52, 98
4, 49956, Note_on_c, 3, 52, 0
4, 49960, Note_on_c, 3, 45, 95
4, 50196, Note_on_c, 3, 45, 0
4, 50200, Note_on_c, 3, 48, 95
4, 50436, Note_on_c, 3, 48, 0
4, 50440, Note_on_c, 3, 47, 98
4, 50920, Note_on_c, 3, 47, 0
4, 52120, Note_on_c, 3, 52, 84
4, 52356, Note_on_c, 3, 52, 0
4, 52360, Note_on_c, 3, 54, 84
4, 52596, Note_on_c, 3, 54, 0
4, 52600, Note_on_c, 3, 55, 89
4, 52836, Note_on_c, 3, 55, 0
4, 52840, Note_on_c, 3, 57, 90
4, 53076, Note_on_c, 3, 57, 0
4, 53080, Note_on_c, 3, 59, 89
4, 53316, Note_on_c, 3, 59, 0
4, 53320, Note_on_c, 3, 60, 83
4, 53436, Note_on_c, 3, 60, 0
4, 53440, Note_on_c, 3, 62, 89
4, 53556, Note_on_c, 3, 62, 0
4, 53560, Note_on_c, 3, 60, 80
4, 53676, Note_on_c, 3, 60, 0
4, 53680, Note_on_c, 3, 59, 88
4, 53796, Note_on_c, 3, 59, 0
4, 53800, Note_on_c, 3, 60, 86
4, 53916, Note_on_c, 3, 60, 0
4, 53920, Note_on_c, 3, 59, 81
4, 54036, Note_on_c, 3, 59, 0
4, 54040, Note_on_c, 3, 57, 75
4, 54156, Note_on_c, 3, 57, 0
4, 54160, Note_on_c, 3, 55, 68
4, 54276, Note_on_c, 3, 55, 0
4, 54280, Note_on_c, 3, 57, 88
4, 54396, Note_on_c, 3, 57, 0
4, 54400, Note_on_c, 3, 54, 96
4, 54516, Note_on_c, 3, 54, 0
4, 54520, Note_on_c, 3, 55, 75
4, 54636, Note_on_c, 3, 55, 0
4, 54640, Note_on_c, 3, 57, 83
4, 54756, Note_on_c, 3, 57, 0
4, 54760, Note_on_c, 3, 59, 96
4, 54876, Note_on_c, 3, 59, 0
4, 54880, Note_on_c, 3, 60, 80
4, 54996, Note_on_c, 3, 60, 0
4, 55000, Note_on_c, 3, 59, 80
4, 55116, Note_on_c, 3, 59, 0
4, 55120, Note_on_c, 3, 57, 61
4, 55236, Note_on_c, 3, 57, 0
4, 55240, Note_on_c, 3, 59, 82
4, 55356, Note_on_c, 3, 59, 0
4, 55360, Note_on_c, 3, 54, 90
4, 55476, Note_on_c, 3, 54, 0
4, 55480, Note_on_c, 3, 51, 84
4, 55596, Note_on_c, 3, 51, 0
4, 55600, Note_on_c, 3, 54, 93
4, 55716, Note_on_c, 3, 54, 0
4, 55720, Note_on_c, 3, 47, 88
4, 55836, Note_on_c, 3, 47, 0
4, 55840, Note_on_c, 3, 51, 57
4, 55956, Note_on_c, 3, 51, 0
4, 55960, Note_on_c, 3, 48, 71
4, 56076, Note_on_c, 3, 48, 0
4, 56080, Note_on_c, 3, 47, 69
4, 56196, Note_on_c, 3, 47, 0
4, 56200, Note_on_c, 3, 52, 80
4, 56316, Note_on_c, 3, 52, 0
4, 56320, Note_on_c, 3, 48, 57
4, 56436, Note_on_c, 3, 48, 0
4, 56440, Note_on_c, 3, 47, 66
4, 56556, Note_on_c, 3, 47, 0
4, 56560, Note_on_c, 3, 45, 69
4, 56676, Note_on_c, 3, 45, 0
4, 56680, Note_on_c, 3, 43, 70
4, 56796, Note_on_c, 3, 43, 0
4, 56800, Note_on_c, 3, 47, 86
4, 56916, Note_on_c, 3, 47, 0
4, 56920, Note_on_c, 3, 52, 81
4, 57036, Note_on_c, 3, 52, 0
4, 57040, Note_on_c, 3, 51, 93
4, 57156, Note_on_c, 3, 51, 0
4, 57160, Note_on_c, 3, 52, 91
4, 57396, Note_on_c, 3, 52, 0
4, 57400, Note_on_c, 3, 50, 97
4, 57636, Note_on_c, 3, 50, 0
4, 57640, Note_on_c, 3, 48, 107
4, 57876, Note_on_c, 3, 48, 0
4, 57880, Note_on_c, 3, 60, 119
4, 58116, Note_on_c, 3, 60, 0
4, 58240, Note_on_c, 3, 52, 119
4, 58356, Note_on_c, 3, 52, 0
4, 58360, Note_on_c, 3, 50, 96
4, 58476, Note_on_c, 3, 50, 0
4, 58480, Note_on_c, 3, 48, 67
4, 58596, Note_on_c, 3, 48, 0
4, 58600, Note_on_c, 3, 50, 91
4, 58716, Note_on_c, 3, 50, 0
4, 58720, Note_on_c, 3, 48, 91
4, 58836, Note_on_c, 3, 48, 0
4, 58840, Note_on_c, 3, 47, 91
4, 58956, Note_on_c, 3, 47, 0
4, 58960, Note_on_c, 3, 45, 91
4, 59076, Note_on_c, 3, 45, 0
4, 59080, Note_on_c, 3, 47, 107
4, 59316, Note_on_c, 3, 47, 0
4, 59320, Note_on_c, 3, 59, 126
4, 59556, Note_on_c, 3, 59, 0
4, 59680, Note_on_c, 3, 50, 96
4, 59796, Note_on_c, 3, 50, 0
4, 59800, Note_on_c, 3, 48, 95
4, 59916, Note_on_c, 3, 48, 0
4, 59920, Note_on_c, 3, 47, 85
4, 60036, Note_on_c, 3, 47, 0
4, 60040, Note_on_c, 3, 48, 109
4, 60156, Note_on_c, 3, 48, 0
4, 60160, Note_on_c, 3, 47, 74
4, 60276, Note_on_c, 3, 47, 0
4, 60280, Note_on_c, 3, 45, 52
4, 60396, Note_on_c, 3, 45, 0
4, 60400, Note_on_c, 3, 44, 90
4, 60516, Note_on_c, 3, 44, 0
4, 60520, Note_on_c, 3, 45, 96
4, 60756, Note_on_c, 3, 45, 0
4, 60760, Note_on_c, 3, 57, 107
4, 60996, Note_on_c, 3, 57, 0
4, 61120, Note_on_c, 3, 59, 111
4, 61236, Note_on_c, 3, 59, 0
4, 61240, Note_on_c, 3, 57, 82
4, 61356, Note_on_c, 3, 57, 0
4, 61360, Note_on_c, 3, 55, 76
4, 61476, Note_on_c, 3, 55, 0
4, 61480, Note_on_c, 3, 57, 83
4, 61596, Note_on_c, 3, 57, 0
4, 61600, Note_on_c, 3, 55, 76
4, 61716, Note_on_c, 3, 55, 0
4, 61720, Note_on_c, 3, 54, 84
4, 61836, Note_on_c, 3, 54, 0
4, 61840, Note_on_c, 3, 52, 77
4, 61956, Note_on_c, 3, 52, 0
4, 61960, Note_on_c, 3, 54, 82
4, 62076, Note_on_c, 3, 54, 0
4, 62080, Note_on_c, 3, 52, 83
4, 62196, Note_on_c, 3, 52, 0
4, 62200, Note_on_c, 3, 50, 59
4, 62316, Note_on_c, 3, 50, 0
4, 62320, Note_on_c, 3, 49, 85
4, 62436, Note_on_c, 3, 49, 0
4, 62440, Note_on_c, 3, 50, 85
4, 62556, Note_on_c, 3, 50, 0
4, 62560, Note_on_c, 3, 48, 79
4, 62676, Note_on_c, 3, 48, 0
4, 62680, Note_on_c, 3, 47, 79
4, 62796, Note_on_c, 3, 47, 0
4, 62800, Note_on_c, 3, 45, 79
4, 62916, Note_on_c, 3, 45, 0
4, 62920, Note_on_c, 3, 47, 76
4, 63036, Note_on_c, 3, 47, 0
4, 63040, Note_on_c, 3, 45, 90
4, 63156, Note_on_c, 3, 45, 0
4, 63160, Note_on_c, 3, 43, 61
4, 63276, Note_on_c, 3, 43, 0
4, 63280, Note_on_c, 3, 42, 75
4, 63396, Note_on_c, 3, 42, 0
4, 63400, Note_on_c, 3, 43, 89
4, 63520, Note_on_c, 3, 43, 0
4, 63520, Note_on_c, 3, 57, 96
4, 63640, Note_on_c, 3, 57, 0
4, 63640, Note_on_c, 3, 55, 86
4, 63760, Note_on_c, 3, 55, 0
4, 63760, Note_on_c, 3, 54, 86
4, 63880, Note_on_c, 3, 54, 0
4, 63880, Note_on_c, 3, 55, 93
4, 64000, Note_on_c, 3, 55, 0
4, 64000, Note_on_c, 3, 54, 93
4, 64120, Note_on_c, 3, 54, 0
4, 64120, Note_on_c, 3, 52, 93
4, 64240, Note_on_c, 3, 52, 0
4, 64240, Note_on_c, 3, 51, 93
4, 64360, Note_on_c, 3, 51, 0
4, 64360, Note_on_c, 3, 52, 92
4, 64840, Note_on_c, 3, 52, 0
4, 64960, Note_on_c, 3, 50, 101
4, 65076, Note_on_c, 3, 50, 0
4, 65080, Note_on_c, 3, 48, 68
4, 65196, Note_on_c, 3, 48, 0
4, 65200, Note_on_c, 3, 52, 83
4, 65316, Note_on_c, 3, 52, 0
4, 65320, Note_on_c, 3, 50, 101
4, 66036, Note_on_c, 3, 50, 0
4, 66040, Note_on_c, 3, 45, 102
4, 66276, Note_on_c, 3, 45, 0
4, 66280, Note_on_c, 3, 47, 113
4, 66520, Note_on_c, 3, 47, 0
4, 67000, Note_on_c, 3, 52, 91
4, 67236, Note_on_c, 3, 52, 0
4, 67240, Note_on_c, 3, 48, 95
4, 67476, Note_on_c, 3, 48, 0
4, 67480, Note_on_c, 3, 50, 95
4, 67716, Note_on_c, 3, 50, 0
4, 67720, Note_on_c, 3, 43, 123
4, 68316, Note_on_c, 3, 43, 0
4, 68320, Note_on_c, 3, 47, 102
4, 68436, Note_on_c, 3, 47, 0
4, 68440, Note_on_c, 3, 50, 90
4, 68556, Note_on_c, 3, 50, 0
4, 68560, Note_on_c, 3, 54, 93
4, 68676, Note_on_c, 3, 54, 0
4, 68680, Note_on_c, 3, 55, 90
4, 69160, Note_on_c, 3, 55, 0
4, 69160, Note_on_c, 3, 50, 102
4, 69396, Note_on_c, 3, 50, 0
4, 69640, Note_on_c, 3, 50, 115
4, 69876, Note_on_c, 3, 50, 0
4, 70120, Note_on_c, 3, 48, 119
4, 70596, Note_on_c, 3, 48, 0
4, 70600, Note_on_c, 3, 47, 104
4, 70836, Note_on_c, 3, 47, 0
4, 70840, Note_on_c, 3, 48, 111
4, 71076, Note_on_c, 3, 48, 0
4, 71080, Note_on_c, 3, 47, 102
4, 71320, Note_on_c, 3, 47, 0
4, 71320, Note_on_c, 3, 45, 78
4, 71556, Note_on_c, 3, 45, 0
4, 71560, Note_on_c, 3, 43, 90
4, 71796, Note_on_c, 3, 43, 0
4, 71800, Note_on_c, 3, 45, 88
4, 71916, Note_on_c, 3, 45, 0
4, 71920, Note_on_c, 3, 47, 92
4, 72036, Note_on_c, 3, 47, 0
4, 72040, Note_on_c, 3, 48, 98
4, 72276, Note_on_c, 3, 48, 0
4, 72280, Note_on_c, 3, 47, 98
4, 72516, Note_on_c, 3, 47, 0
4, 72520, Note_on_c, 3, 48, 91
4, 72756, Note_on_c, 3, 48, 0
4, 72760, Note_on_c, 3, 52, 98
4, 72996, Note_on_c, 3, 52, 0
4, 73000, Note_on_c, 3, 45, 95
4, 73236, Note_on_c, 3, 45, 0
4, 73240, Note_on_c, 3, 48, 95
4, 73476, Note_on_c, 3, 48, 0
4, 73480, Note_on_c, 3, 47, 98
4, 73960, Note_on_c, 3, 47, 0
4, 75160, Note_on_c, 3, 52, 84
4, 75396, Note_on_c, 3, 52, 0
4, 75400, Note_on_c, 3, 54, 84
4, 75636, Note_on_c, 3, 54, 0
4, 75640, Note_on_c, 3, 55, 89
4, 75876, Note_on_c, 3, 55, 0
4, 75880, Note_on_c, 3, 57, 90
4, 76116, Note_on_c, 3, 57, 0
4, 76120, Note_on_c, 3, 59, 89
4, 76356, Note_on_c, 3, 59, 0
4, 76360, Note_on_c, 3, 60, 83
4, 76476, Note_on_c, 3, 60, 0
4, 76480, Note_on_c, 3, 62, 89
4, 76596, Note_on_c, 3, 62, 0
4, 76600, Note_on_c, 3, 60, 80
4, 76716, Note_on_c, 3, 60, 0
4, 76720, Note_on_c, 3, 59, 88
4, 76836, Note_on_c, 3, 59, 0
4, 76840, Note_on_c, 3, 60, 86
4, 76956, Note_on_c, 3, 60, 0
4, 76960, Note_on_c, 3, 59, 81
4, 77076, Note_on_c, 3, 59, 0
4, 77080, Note_on_c, 3, 57, 75
4, 77196, Note_on_c, 3, 57, 0
4, 77200, Note_on_c, 3, 55, 68
4, 77316, Note_on_c, 3, 55, 0
4, 77320, Note_on_c, 3, 57, 88
4, 77436, Note_on_c, 3, 57, 0
4, 77440, Note_on_c, 3, 54, 96
4, 77556, Note_on_c, 3, 54, 0
4, 77560, Note_on_c, 3, 55, 75
4, 77676, Note_on_c, 3, 55, 0
4, 77680, Note_on_c, 3, 57, 83
4, 77796, Note_on_c, 3, 57, 0
4, 77800, Note_on_c, 3, 59, 96
4, 77916, Note_on_c, 3, 59, 0
4, 77920, Note_on_c, 3, 60, 80
4, 78036, Note_on_c, 3, 60, 0
4, 78040, Note_on_c, 3, 59, 80
4, 78156, Note_on_c, 3, 59, 0
4, 78160, Note_on_c, 3, 57, 61
4, 78276, Note_on_c, 3, 57, 0
4, 78280, Note_on_c, 3, 59, 82
4, 78396, Note_on_c, 3, 59, 0
4, 78400, Note_on_c, 3, 54, 90
4, 78516, Note_on_c, 3, 54, 0
4, 78520, Note_on_c, 3, 51, 84
4, 78636, Note_on_c, 3, 51, 0
4, 78640, Note_on_c, 3, 54, 93
4, 78756, Note_on_c, 3, 54, 0
4, 78760, Note_on_c, 3, 47, 88
4, 78876, Note_on_c, 3, 47, 0
4, 78880, Note_on_c, 3, 51, 57
4, 78996, Note_on_c, 3, 51, 0
4, 79000, Note_on_c, 3, 48, 71
4, 79116, Note_on_c, 3, 48, 0
4, 79120, Note_on_c, 3, 47, 69
4, 79236, Note_on_c, 3, 47, 0
4, 79240, Note_on_c, 3, 52, 80
4, 79356, Note_on_c, 3, 52, 0
4, 79360, Note_on_c, 3, 48, 57
4, 79476, Note_on_c, 3, 48, 0
4, 79480, Note_on_c, 3, 47, 66
4, 79596, Note_on_c, 3, 47, 0
4, 79600, Note_on_c, 3, 45, 69
4, 79716, Note_on_c, 3, 45, 0
4, 79720, Note_on_c, 3, 43, 70
4, 79836, Note_on_c, 3, 43, 0
4, 79840, Note_on_c, 3, 47, 86
4, 79956, Note_on_c, 3, 47, 0
4, 79960, Note_on_c, 3, 52, 81
4, 80076, Note_on_c, 3, 52, 0
4, 80080, Note_on_c, 3, 51, 93
4, 80196, Note_on_c, 3, 51, 0
4, 80200, Note_on_c, 3, 52, 91
4, 80436, Note_on_c, 3, 52, 0
4, 80440, Note_on_c, 3, 50, 97
4, 80676, Note_on_c, 3, 50, 0
4, 80680, Note_on_c, 3, 48, 107
4, 80916, Note_on_c, 3, 48, 0
4, 80920, Note_on_c, 3, 60, 119
4, 81156, Note_on_c, 3, 60, 0
4, 81280, Note_on_c, 3, 52, 119
4, 81396, Note_on_c, 3, 52, 0
4, 81400, Note_on_c, 3, 50, 96
4, 81516, Note_on_c, 3, 50, 0
4, 81520, Note_on_c, 3, 48, 67
4, 81636, Note_on_c, 3, 48, 0
4, 81640, Note_on_c, 3, 50, 91
4, 81756, Note_on_c, 3, 50, 0
4, 81760, Note_on_c, 3, 48, 91
4, 81876, Note_on_c, 3, 48, 0
4, 81880, Note_on_c, 3, 47, 91
4, 81996, Note_on_c, 3, 47, 0
4, 82000, Note_on_c, 3, 45, 91
4, 82116, Note_on_c, 3, 45, 0
4, 82120, Note_on_c, 3, 47, 107
4, 82356, Note_on_c, 3, 47, 0
4, 82360, Note_on_c, 3, 59, 126
4, 82596, Note_on_c, 3, 59, 0
4, 82720, Note_on_c, 3, 50, 96
4, 82836, Note_on_c, 3, 50, 0
4, 82840, Note_on_c, 3, 48, 95
4, 82956, Note_on_c, 3, 48, 0
4, 82960, Note_on_c, 3, 47, 85
4, 83076, Note_on_c, 3, 47, 0
4, 83080, Note_on_c, 3, 48, 109
4, 83196, Note_on_c, 3, 48, 0
4, 83200, Note_on_c, 3, 47, 74
4, 83316, Note_on_c, 3, 47, 0
4, 83320, Note_on_c, 3, 45, 52
4, 83436, Note_on_c, 3, 45, 0
4, 83440, Note_on_c, 3, 44, 90
4, 83556, Note_on_c, 3, 44, 0
4, 83560, Note_on_c, 3, 45, 96
4, 83796, Note_on_c, 3, 45, 0
4, 83800, Note_on_c, 3, 57, 107
4, 84036, Note_on_c, 3, 57, 0
4, 84160, Note_on_c, 3, 59, 111
4, 84276, Note_on_c, 3, 59, 0
4, 84280, Note_on_c, 3, 57, 82
4, 84396, Note_on_c, 3, 57, 0
4, 84400, Note_on_c, 3, 55, 76
4, 84516, Note_on_c, 3, 55, 0
4, 84520, Note_on_c, 3, 57, 83
4, 84636, Note_on_c, 3, 57, 0
4, 84640, Note_on_c, 3, 55, 76
4, 84756, Note_on_c, 3, 55, 0
4, 84760, Note_on_c, 3, 54, 84
4, 84876, Note_on_c, 3, 54, 0
4, 84880, Note_on_c, 3, 52, 77
4, 84996, Note_on_c, 3, 52, 0
4, 85000, Note_on_c, 3, 54, 82
4, 85116, Note_on_c, 3, 54, 0
4, 85120, Note_on_c, 3, 52, 83
4, 85236, Note_on_c, 3, 52, 0
4, 85240, Note_on_c, 3, 50, 59
4, 85356, Note_on_c, 3, 50, 0
4, 85360, Note_on_c, 3, 49, 85
4, 85476, Note_on_c, 3, 49, 0
4, 85480, Note_on_c, 3, 50, 85
4, 85596, Note_on_c, 3, 50, 0
4, 85600, Note_on_c, 3, 48, 79
4, 85716, Note_on_c, 3, 48, 0
4, 85720, Note_on_c, 3, 47, 79
4, 85836, Note_on_c, 3, 47, 0
4, 85840, Note_on_c, 3, 45, 79
4, 85956, Note_on_c, 3, 45, 0
4, 85960, Note_on_c, 3, 47, 76
4, 86076, Note_on_c, 3, 47, 0
4, 86080, Note_on_c, 3, 45, 90
4, 86196, Note_on_c, 3, 45, 0
4, 86200, Note_on_c, 3, 43, 61
4, 86316, Note_on_c, 3, 43, 0
4, 86320, Note_on_c, 3, 42, 75
4, 86436, Note_on_c, 3, 42, 0
4, 86440, Note_on_c, 3, 43, 89
4, 86560, Note_on_c, 3, 43, 0
4, 86560, Note_on_c, 3, 57, 96
4, 86680, Note_on_c, 3, 57, 0
4, 86680, Note_on_c, 3, 55, 86
4, 86800, Note_on_c, 3, 55, 0
4, 86800, Note_on_c, 3, 54, 86
4, 86920, Note_on_c, 3, 54, 0
4, 86920, Note_on_c, 3, 55, 93
4, 87040, Note_on_c, 3, 55, 0
4, 87040, Note_on_c, 3, 54, 93
4, 87160, Note_on_c, 3, 54, 0
4, 87160, Note_on_c, 3, 52, 93
4, 87280, Note_on_c, 3, 52, 0
4, 87280, Note_on_c, 3, 51, 93
4, 87400, Note_on_c, 3, 51, 0
4, 87400, Note_on_c, 3, 52, 92
4, 87880, Note_on_c, 3, 52, 0
4, 88000, Note_on_c, 3, 50, 101
4, 88116, Note_on_c, 3, 50, 0
4, 88120, Note_on_c, 3, 48, 68
4, 88236, Note_on_c, 3, 48, 0
4, 88240, Note_on_c, 3, 52, 83
4, 88356, Note_on_c, 3, 52, 0
4, 88360, Note_on_c, 3, 50, 101
4, 89076, Note_on_c, 3, 50, 0
4, 89080, Note_on_c, 3, 45, 102
4, 89316, Note_on_c, 3, 45, 0
4, 89320, Note_on_c, 3, 47, 113
4, 89560, Note_on_c, 3, 47, 0
4, 90040, Note_on_c, 3, 52, 91
4, 90276, Note_on_c, 3, 52, 0
4, 90280, Note_on_c, 3, 48, 95
4, 90516, Note_on_c, 3, 48, 0
4, 90520, Note_on_c, 3, 50, 95
4, 90756, Note_on_c, 3, 50, 0
4, 90760, Note_on_c, 3, 43, 123
4, 91356, Note_on_c, 3, 43, 0
4, 91360, Note_on_c, 3, 47, 102
4, 91476, Note_on_c, 3, 47, 0
4, 91480, Note_on_c, 3, 50, 90
4, 91596, Note_on_c, 3, 50, 0
4, 91600, Note_on_c, 3, 54, 93
4, 91716, Note_on_c, 3, 54, 0
4, 91720, Note_on_c, 3, 55, 90
4, 92200, Note_on_c, 3, 55, 0
4, 93600, End_track
0, 0, End_of_file
