0, 0, Header, 1, 4, 480
1, 0, Start_track
1, 0, SMPTE_offset, 96, 0, 0, 0, 0
1, 0, Time_signature, 3, 2, 24, 8
1, 20, Tempo, 400000
1, 123840, End_track
2, 0, Start_track
2, 0, Title_t, "goldberg.mid"
2, 980, Note_on_c, 0, 79, 113
2, 2896, Note_on_c, 0, 79, 0
2, 2900, Note_on_c, 0, 78, 117
2, 4336, Note_on_c, 0, 78, 0
2, 4340, Note_on_c, 0, 79, 107
2, 4576, Note_on_c, 0, 79, 0
2, 4580, Note_on_c, 0, 78, 115
2, 4816, Note_on_c, 0, 78, 0
2, 4820, Note_on_c, 0, 76, 111
2, 6256, Note_on_c, 0, 76, 0
2, 6260, Note_on_c, 0, 74, 100
2, 6496, Note_on_c, 0, 74, 0
2, 6500, Note_on_c, 0, 73, 110
2, 6736, Note_on_c, 0, 73, 0
2, 6740, Note_on_c, 0, 74, 92
2, 7696, Note_on_c, 0, 74, 0
2, 8660, Note_on_c, 0, 76, 111
2, 10096, Note_on_c, 0, 76, 0
2, 10100, Note_on_c, 0, 74, 97
2, 10336, Note_on_c, 0, 74, 0
2, 10340, Note_on_c, 0, 76, 104
2, 10576, Note_on_c, 0, 76, 0
2, 10580, Note_on_c, 0, 78, 108
2, 12016, Note_on_c, 0, 78, 0
2, 12020, Note_on_c, 0, 81, 104
2, 12256, Note_on_c, 0, 81, 0
2, 12260, Note_on_c, 0, 79, 102
2, 12496, Note_on_c, 0, 79, 0
2, 12500, Note_on_c, 0, 81, 107
2, 13696, Note_on_c, 0, 81, 0
2, 13700, Note_on_c, 0, 79, 96
2, 13936, Note_on_c, 0, 79, 0
2, 13940, Note_on_c, 0, 81, 109
2, 14176, Note_on_c, 0, 81, 0
2, 14180, Note_on_c, 0, 78, 101
2, 14416, Note_on_c, 0, 78, 0
2, 14420, Note_on_c, 0, 79, 102
2, 15856, Note_on_c, 0, 79, 0
2, 16340, Note_on_c, 0, 76, 117
2, 18256, Note_on_c, 0, 76, 0
2, 18260, Note_on_c, 0, 74, 104
2, 19696, Note_on_c, 0, 74, 0
2, 19700, Note_on_c, 0, 76, 113
2, 19936, Note_on_c, 0, 76, 0
2, 19940, Note_on_c, 0, 78, 101
2, 20176, Note_on_c, 0, 78, 0
2, 20180, Note_on_c, 0, 79, 107
2, 21376, Note_on_c, 0, 79, 0
2, 21380, Note_on_c, 0, 78, 110
2, 21616, Note_on_c, 0, 78, 0
2, 21620, Note_on_c, 0, 79, 93
2, 21856, Note_on_c, 0, 79, 0
2, 21860, Note_on_c, 0, 76, 104
2, 22096, Note_on_c, 0, 76, 0
2, 22100, Note_on_c, 0, 78, 102
2, 23536, Note_on_c, 0, 78, 0
2, 23540, Note_on_c, 0, 78, 117
2, 24016, Note_on_c, 0, 78, 0
2, 24020, Note_on_c, 0, 76, 104
2, 25460, Note_on_c, 0, 76, 0
2, 25460, Note_on_c, 0, 76, 117
2, 25936, Note_on_c, 0, 76, 0
2, 25940, Note_on_c, 0, 74, 107
2, 27380, Note_on_c, 0, 74, 0
2, 27380, Note_on_c, 0, 79, 100
2, 27860, Note_on_c, 0, 79, 0
2, 27860, Note_on_c, 0, 73, 90
2, 28096, Note_on_c, 0, 73, 0
2, 28100, Note_on_c, 0, 74, 90
2, 28336, Note_on_c, 0, 74, 0
2, 28340, Note_on_c, 0, 76, 102
2, 29780, Note_on_c, 0, 76, 0
2, 29780, Note_on_c, 0, 74, 95
2, 30740, Note_on_c, 0, 74, 0
2, 31700, Note_on_c, 0, 79, 113
2, 33616, Note_on_c, 0, 79, 0
2, 33620, Note_on_c, 0, 78, 117
2, 35056, Note_on_c, 0, 78, 0
2, 35060, Note_on_c, 0, 79, 107
2, 35296, Note_on_c, 0, 79, 0
2, 35300, Note_on_c, 0, 78, 115
2, 35536, Note_on_c, 0, 78, 0
2, 35540, Note_on_c, 0, 76, 111
2, 36976, Note_on_c, 0, 76, 0
2, 36980, Note_on_c, 0, 74, 100
2, 37216, Note_on_c, 0, 74, 0
2, 37220, Note_on_c, 0, 73, 110
2, 37456, Note_on_c, 0, 73, 0
2, 37460, Note_on_c, 0, 74, 92
2, 38416, Note_on_c, 0, 74, 0
2, 39380, Note_on_c, 0, 76, 111
2, 40816, Note_on_c, 0, 76, 0
2, 40820, Note_on_c, 0, 74, 97
2, 41056, Note_on_c, 0, 74, 0
2, 41060, Note_on_c, 0, 76, 104
2, 41296, Note_on_c, 0, 76, 0
2, 41300, Note_on_c, 0, 78, 108
2, 42736, Note_on_c, 0, 78, 0
2, 42740, Note_on_c, 0, 81, 104
2, 42976, Note_on_c, 0, 81, 0
2, 42980, Note_on_c, 0, 79, 102
2, 43216, Note_on_c, 0, 79, 0
2, 43220, Note_on_c, 0, 81, 107
2, 44416, Note_on_c, 0, 81, 0
2, 44420, Note_on_c, 0, 79, 96
2, 44656, Note_on_c, 0, 79, 0
2, 44660, Note_on_c, 0, 81, 109
2, 44896, Note_on_c, 0, 81, 0
2, 44900, Note_on_c, 0, 78, 101
2, 45136, Note_on_c, 0, 78, 0
2, 45140, Note_on_c, 0, 79, 102
2, 46576, Note_on_c, 0, 79, 0
2, 47060, Note_on_c, 0, 76, 117
2, 48976, Note_on_c, 0, 76, 0
2, 48980, Note_on_c, 0, 74, 104
2, 50416, Note_on_c, 0, 74, 0
2, 50420, Note_on_c, 0, 76, 113
2, 50656, Note_on_c, 0, 76, 0
2, 50660, Note_on_c, 0, 78, 101
2, 50896, Note_on_c, 0, 78, 0
2, 50900, Note_on_c, 0, 79, 107
2, 52096, Note_on_c, 0, 79, 0
2, 52100, Note_on_c, 0, 78, 110
2, 52336, Note_on_c, 0, 78, 0
2, 52340, Note_on_c, 0, 79, 93
2, 52576, Note_on_c, 0, 79, 0
2, 52580, Note_on_c, 0, 76, 104
2, 52816, Note_on_c, 0, 76, 0
2, 52820, Note_on_c, 0, 78, 102
2, 54256, Note_on_c, 0, 78, 0
2, 54260, Note_on_c, 0, 78, 117
2, 54736, Note_on_c, 0, 78, 0
2, 54740, Note_on_c, 0, 76, 104
2, 56180, Note_on_c, 0, 76, 0
2, 56180, Note_on_c, 0, 76, 117
2, 56656, Note_on_c, 0, 76, 0
2, 56660, Note_on_c, 0, 74, 107
2, 58100, Note_on_c, 0, 74, 0
2, 58100, Note_on_c, 0, 79, 100
2, 58580, Note_on_c, 0, 79, 0
2, 58580, Note_on_c, 0, 73, 90
2, 58816, Note_on_c, 0, 73, 0
2, 58820, Note_on_c, 0, 74, 90
2, 59056, Note_on_c, 0, 74, 0
2, 59060, Note_on_c, 0, 76, 102
2, 60500, Note_on_c, 0, 76, 0
2, 60500, Note_on_c, 0, 74, 95
2, 61460, Note_on_c, 0, 74, 0
2, 62420, Note_on_c, 0, 81, 101
2, 64336, Note_on_c, 0, 81, 0
2, 64340, Note_on_c, 0, 79, 85
2, 65776, Note_on_c, 0, 79, 0
2, 65780, Note_on_c, 0, 81, 90
2, 66016, Note_on_c, 0, 81, 0
2, 66020, Note_on_c, 0, 83, 92
2, 66256, Note_on_c, 0, 83, 0
2, 66260, Note_on_c, 0, 84, 88
2, 67456, Note_on_c, 0, 84, 0
2, 67460, Note_on_c, 0, 83, 84
2, 67696, Note_on_c, 0, 83, 0
2, 67700, Note_on_c, 0, 84, 86
2, 68176, Note_on_c, 0, 84, 0
2, 68180, Note_on_c, 0, 83, 100
2, 69140, Note_on_c, 0, 83, 0
2, 70100, Note_on_c, 0, 76, 104
2, 72016, Note_on_c, 0, 76, 0
2, 72020, Note_on_c, 0, 75, 96
2, 72496, Note_on_c, 0, 75, 0
2, 72500, Note_on_c, 0, 76, 97
2, 72976, Note_on_c, 0, 76, 0
2, 72980, Note_on_c, 0, 78, 92
2, 74416, Note_on_c, 0, 78, 0
2, 74420, Note_on_c, 0, 76, 77
2, 74656, Note_on_c, 0, 76, 0
2, 74660, Note_on_c, 0, 78, 89
2, 74896, Note_on_c, 0, 78, 0
2, 74900, Note_on_c, 0, 79, 106
2, 76096, Note_on_c, 0, 79, 0
2, 76100, Note_on_c, 0, 78, 99
2, 76336, Note_on_c, 0, 78, 0
2, 76340, Note_on_c, 0, 76, 93
2, 76576, Note_on_c, 0, 76, 0
2, 76580, Note_on_c, 0, 74, 91
2, 76816, Note_on_c, 0, 74, 0
2, 76820, Note_on_c, 0, 72, 100
2, 77300, Note_on_c, 0, 72, 0
2, 77780, Note_on_c, 0, 81, 111
2, 79696, Note_on_c, 0, 81, 0
2, 79700, Note_on_c, 0, 79, 92
2, 81136, Note_on_c, 0, 79, 0
2, 81140, Note_on_c, 0, 81, 101
2, 81376, Note_on_c, 0, 81, 0
2, 81380, Note_on_c, 0, 83, 92
2, 81616, Note_on_c, 0, 83, 0
2, 81620, Note_on_c, 0, 84, 93
2, 82816, Note_on_c, 0, 84, 0
2, 82820, Note_on_c, 0, 83, 97
2, 83056, Note_on_c, 0, 83, 0
2, 83060, Note_on_c, 0, 84, 97
2, 83296, Note_on_c, 0, 84, 0
2, 83300, Note_on_c, 0, 81, 92
2, 83536, Note_on_c, 0, 81, 0
2, 83540, Note_on_c, 0, 83, 100
2, 84976, Note_on_c, 0, 83, 0
2, 84980, Note_on_c, 0, 83, 100
2, 85456, Note_on_c, 0, 83, 0
2, 85460, Note_on_c, 0, 81, 104
2, 86900, Note_on_c, 0, 81, 0
2, 86900, Note_on_c, 0, 81, 96
2, 87376, Note_on_c, 0, 81, 0
2, 87380, Note_on_c, 0, 79, 98
2, 88816, Note_on_c, 0, 79, 0
2, 88820, Note_on_c, 0, 84, 102
2, 89296, Note_on_c, 0, 84, 0
2, 89300, Note_on_c, 0, 78, 94
2, 89536, Note_on_c, 0, 78, 0
2, 89540, Note_on_c, 0, 79, 92
2, 89776, Note_on_c, 0, 79, 0
2, 89780, Note_on_c, 0, 81, 102
2, 91220, Note_on_c, 0, 81, 0
2, 91220, Note_on_c, 0, 79, 100
2, 92176, Note_on_c, 0, 79, 0
2, 93140, Note_on_c, 0, 81, 101
2, 95056, Note_on_c, 0, 81, 0
2, 95060, Note_on_c, 0, 79, 85
2, 96496, Note_on_c, 0, 79, 0
2, 96500, Note_on_c, 0, 81, 90
2, 96736, Note_on_c, 0, 81, 0
2, 96740, Note_on_c, 0, 83, 92
2, 96976, Note_on_c, 0, 83, 0
2, 96980, Note_on_c, 0, 84, 88
2, 98176, Note_on_c, 0, 84, 0
2, 98180, Note_on_c, 0, 83, 84
2, 98416, Note_on_c, 0, 83, 0
2, 98420, Note_on_c, 0, 84, 86
2, 98896, Note_on_c, 0, 84, 0
2, 98900, Note_on_c, 0, 83, 100
2, 99860, Note_on_c, 0, 83, 0
2, 100820, Note_on_c, 0, 76, 104
2, 102736, Note_on_c, 0, 76, 0
2, 102740, Note_on_c, 0, 75, 96
2, 103216, Note_on_c, 0, 75, 0
2, 103220, Note_on_c, 0, 76, 97
2, 103696, Note_on_c, 0, 76, 0
2, 103700, Note_on_c, 0, 78, 92
2, 105136, Note_on_c, 0, 78, 0
2, 105140, Note_on_c, 0, 76, 77
2, 105376, Note_on_c, 0, 76, 0
2, 105380, Note_on_c, 0, 78, 89
2, 105616, Note_on_c, 0, 78, 0
2, 105620, Note_on_c, 0, 79, 106
2, 106816, Note_on_c, 0, 79, 0
2, 106820, Note_on_c, 0, 78, 99
2, 107056, Note_on_c, 0, 78, 0
2, 107060, Note_on_c, 0, 76, 93
2, 107296, Note_on_c, 0, 76, 0
2, 107300, Note_on_c, 0, 74, 91
2, 107536, Note_on_c, 0, 74, 0
2, 107540, Note_on_c, 0, 72, 100
2, 108020, Note_on_c, 0, 72, 0
2, 108500, Note_on_c, 0, 81, 111
2, 110416, Note_on_c, 0, 81, 0
2, 110420, Note_on_c, 0, 79, 92
2, 111856, Note_on_c, 0, 79, 0
2, 111860, Note_on_c, 0, 81, 101
2, 112096, Note_on_c, 0, 81, 0
2, 112100, Note_on_c, 0, 83, 92
2, 112336, Note_on_c, 0, 83, 0
2, 112340, Note_on_c, 0, 84, 93
2, 113536, Note_on_c, 0, 84, 0
2, 113540, Note_on_c, 0, 83, 97
2, 113776, Note_on_c, 0, 83, 0
2, 113780, Note_on_c, 0, 84, 97
2, 114016, Note_on_c, 0, 84, 0
2, 114020, Note_on_c, 0, 81, 92
2, 114256, Note_on_c, 0, 81, 0
2, 114260, Note_on_c, 0, 83, 100
2, 115696, Note_on_c, 0, 83, 0
2, 115700, Note_on_c, 0, 83, 100
2, 116176, Note_on_c, 0, 83, 0
2, 116180, Note_on_c, 0, 81, 104
2, 117620, Note_on_c, 0, 81, 0
2, 117620, Note_on_c, 0, 81, 96
2, 118096, Note_on_c, 0, 81, 0
2, 118100, Note_on_c, 0, 79, 98
2, 119536, Note_on_c, 0, 79, 0
2, 119540, Note_on_c, 0, 84, 102
2, 120016, Note_on_c, 0, 84, 0
2, 120020, Note_on_c, 0, 78, 94
2, 120256, Note_on_c, 0, 78, 0
2, 120260, Note_on_c, 0, 79, 92
2, 120496, Note_on_c, 0, 79, 0
2, 120500, Note_on_c, 0, 81, 102
2, 121940, Note_on_c, 0, 81, 0
2, 121940, Note_on_c, 0, 79, 100
2, 122896, Note_on_c, 0, 79, 0
2, 123840, End_track
3, 0, Start_track
3, 0, Title_t, "goldberg.mid"
3, 20, Note_on_c, 1, 71, 85
3, 1936, Note_on_c, 1, 71, 0
3, 1940, Note_on_c, 1, 69, 88
3, 3376, Note_on_c, 1, 69, 0
3, 3380, Note_on_c, 1, 71, 89
3, 3616, Note_on_c, 1, 71, 0
3, 3620, Note_on_c, 1, 69, 85
3, 3856, Note_on_c, 1, 69, 0
3, 3860, Note_on_c, 1, 67, 88
3, 5296, Note_on_c, 1, 67, 0
3, 5300, Note_on_c, 1, 66, 108
3, 5536, Note_on_c, 1, 66, 0
3, 5540, Note_on_c, 1, 64, 91
3, 5776, Note_on_c, 1, 64, 0
3, 5780, Note_on_c, 1, 66, 96
3, 6736, Note_on_c, 1, 66, 0
3, 7700, Note_on_c, 1, 67, 107
3, 9136, Note_on_c, 1, 67, 0
3, 9140, Note_on_c, 1, 66, 104
3, 9376, Note_on_c, 1, 66, 0
3, 9380, Note_on_c, 1, 67, 102
3, 9616, Note_on_c, 1, 67, 0
3, 9620, Note_on_c, 1, 69, 96
3, 11056, Note_on_c, 1, 69, 0
3, 11060, Note_on_c, 1, 72, 113
3, 11296, Note_on_c, 1, 72, 0
3, 11300, Note_on_c, 1, 71, 98
3, 11536, Note_on_c, 1, 71, 0
3, 11540, Note_on_c, 1, 72, 102
3, 12736, Note_on_c, 1, 72, 0
3, 12740, Note_on_c, 1, 71, 104
3, 12976, Note_on_c, 1, 71, 0
3, 12980, Note_on_c, 1, 72, 97
3, 13216, Note_on_c, 1, 72, 0
3, 13220, Note_on_c, 1, 69, 97
3, 13456, Note_on_c, 1, 69, 0
3, 13460, Note_on_c, 1, 71, 98
3, 15136, Note_on_c, 1, 71, 0
3, 15380, Note_on_c, 1, 67, 85
3, 17296, Note_on_c, 1, 67, 0
3, 17300, Note_on_c, 1, 66, 79
3, 18736, Note_on_c, 1, 66, 0
3, 18740, Note_on_c, 1, 67, 90
3, 18976, Note_on_c, 1, 67, 0
3, 18980, Note_on_c, 1, 69, 90
3, 19216, Note_on_c, 1, 69, 0
3, 19220, Note_on_c, 1, 71, 90
3, 20416, Note_on_c, 1, 71, 0
3, 20420, Note_on_c, 1, 69, 82
3, 20656, Note_on_c, 1, 69, 0
3, 20660, Note_on_c, 1, 71, 77
3, 20896, Note_on_c, 1, 71, 0
3, 20900, Note_on_c, 1, 67, 81
3, 21136, Note_on_c, 1, 67, 0
3, 21140, Note_on_c, 1, 69, 90
3, 22576, Note_on_c, 1, 69, 0
3, 22580, Note_on_c, 1, 69, 92
3, 23056, Note_on_c, 1, 69, 0
3, 23060, Note_on_c, 1, 67, 95
3, 24496, Note_on_c, 1, 67, 0
3, 24500, Note_on_c, 1, 67, 93
3, 24976, Note_on_c, 1, 67, 0
3, 24980, Note_on_c, 1, 66, 81
3, 26416, Note_on_c, 1, 66, 0
3, 26420, Note_on_c, 1, 71, 106
3, 26896, Note_on_c, 1, 71, 0
3, 26900, Note_on_c, 1, 64, 101
3, 27136, Note_on_c, 1, 64, 0
3, 27140, Note_on_c, 1, 66, 89
3, 27376, Note_on_c, 1, 66, 0
3, 27380, Note_on_c, 1, 67, 100
3, 28816, Note_on_c, 1, 67, 0
3, 28820, Note_on_c, 1, 66, 88
3, 30736, Note_on_c, 1, 66, 0
3, 30740, Note_on_c, 1, 71, 85
3, 32656, Note_on_c, 1, 71, 0
3, 32660, Note_on_c, 1, 69, 88
3, 34096, Note_on_c, 1, 69, 0
3, 34100, Note_on_c, 1, 71, 89
3, 34336, Note_on_c, 1, 71, 0
3, 34340, Note_on_c, 1, 69, 85
3, 34576, Note_on_c, 1, 69, 0
3, 34580, Note_on_c, 1, 67, 88
3, 36016, Note_on_c, 1, 67, 0
3, 36020, Note_on_c, 1, 66, 108
3, 36256, Note_on_c, 1, 66, 0
3, 36260, Note_on_c, 1, 64, 91
3, 36496, Note_on_c, 1, 64, 0
3, 36500, Note_on_c, 1, 66, 96
3, 37456, Note_on_c, 1, 66, 0
3, 38420, Note_on_c, 1, 67, 107
3, 39856, Note_on_c, 1, 67, 0
3, 39860, Note_on_c, 1, 66, 104
3, 40096, Note_on_c, 1, 66, 0
3, 40100, Note_on_c, 1, 67, 102
3, 40336, Note_on_c, 1, 67, 0
3, 40340, Note_on_c, 1, 69, 96
3, 41776, Note_on_c, 1, 69, 0
3, 41780, Note_on_c, 1, 72, 113
3, 42016, Note_on_c, 1, 72, 0
3, 42020, Note_on_c, 1, 71, 98
3, 42256, Note_on_c, 1, 71, 0
3, 42260, Note_on_c, 1, 72, 102
3, 43456, Note_on_c, 1, 72, 0
3, 43460, Note_on_c, 1, 71, 104
3, 43696, Note_on_c, 1, 71, 0
3, 43700, Note_on_c, 1, 72, 97
3, 43936, Note_on_c, 1, 72, 0
3, 43940, Note_on_c, 1, 69, 97
3, 44176, Note_on_c, 1, 69, 0
3, 44180, Note_on_c, 1, 71, 98
3, 45856, Note_on_c, 1, 71, 0
3, 46100, Note_on_c, 1, 67, 85
3, 48016, Note_on_c, 1, 67, 0
3, 48020, Note_on_c, 1, 66, 79
3, 49456, Note_on_c, 1, 66, 0
3, 49460, Note_on_c, 1, 67, 90
3, 49696, Note_on_c, 1, 67, 0
3, 49700, Note_on_c, 1, 69, 90
3, 49936, Note_on_c, 1, 69, 0
3, 49940, Note_on_c, 1, 71, 90
3, 51136, Note_on_c, 1, 71, 0
3, 51140, Note_on_c, 1, 69, 82
3, 51376, Note_on_c, 1, 69, 0
3, 51380, Note_on_c, 1, 71, 77
3, 51616, Note_on_c, 1, 71, 0
3, 51620, Note_on_c, 1, 67, 81
3, 51856, Note_on_c, 1, 67, 0
3, 51860, Note_on_c, 1, 69, 90
3, 53296, Note_on_c, 1, 69, 0
3, 53300, Note_on_c, 1, 69, 92
3, 53776, Note_on_c, 1, 69, 0
3, 53780, Note_on_c, 1, 67, 95
3, 55216, Note_on_c, 1, 67, 0
3, 55220, Note_on_c, 1, 67, 93
3, 55696, Note_on_c, 1, 67, 0
3, 55700, Note_on_c, 1, 66, 81
3, 57136, Note_on_c, 1, 66, 0
3, 57140, Note_on_c, 1, 71, 106
3, 57616, Note_on_c, 1, 71, 0
3, 57620, Note_on_c, 1, 64, 101
3, 57856, Note_on_c, 1, 64, 0
3, 57860, Note_on_c, 1, 66, 89
3, 58096, Note_on_c, 1, 66, 0
3, 58100, Note_on_c, 1, 67, 100
3, 59536, Note_on_c, 1, 67, 0
3, 59540, Note_on_c, 1, 66, 88
3, 61456, Note_on_c, 1, 66, 0
3, 61460, Note_on_c, 1, 72, 113
3, 63376, Note_on_c, 1, 72, 0
3, 63380, Note_on_c, 1, 71, 104
3, 64816, Note_on_c, 1, 71, 0
3, 64820, Note_on_c, 1, 72, 101
3, 65056, Note_on_c, 1, 72, 0
3, 65060, Note_on_c, 1, 74, 88
3, 65296, Note_on_c, 1, 74, 0
3, 65300, Note_on_c, 1, 76, 97
3, 66496, Note_on_c, 1, 76, 0
3, 66500, Note_on_c, 1, 75, 92
3, 66736, Note_on_c, 1, 75, 0
3, 66740, Note_on_c, 1, 76, 100
3, 67216, Note_on_c, 1, 76, 0
3, 67220, Note_on_c, 1, 75, 99
3, 69136, Note_on_c, 1, 75, 0
3, 69140, Note_on_c, 1, 67, 97
3, 71056, Note_on_c, 1, 67, 0
3, 71060, Note_on_c, 1, 66, 104
3, 71536, Note_on_c, 1, 66, 0
3, 71540, Note_on_c, 1, 67, 91
3, 72016, Note_on_c, 1, 67, 0
3, 72020, Note_on_c, 1, 69, 101
3, 73456, Note_on_c, 1, 69, 0
3, 73460, Note_on_c, 1, 67, 91
3, 73696, Note_on_c, 1, 67, 0
3, 73700, Note_on_c, 1, 69, 95
3, 73936, Note_on_c, 1, 69, 0
3, 73940, Note_on_c, 1, 71, 93
3, 75136, Note_on_c, 1, 71, 0
3, 75140, Note_on_c, 1, 69, 80
3, 75376, Note_on_c, 1, 69, 0
3, 75380, Note_on_c, 1, 67, 72
3, 75616, Note_on_c, 1, 67, 0
3, 75620, Note_on_c, 1, 66, 89
3, 75856, Note_on_c, 1, 66, 0
3, 75860, Note_on_c, 1, 64, 93
3, 76816, Note_on_c, 1, 64, 0
3, 76820, Note_on_c, 1, 72, 111
3, 78736, Note_on_c, 1, 72, 0
3, 78740, Note_on_c, 1, 71, 91
3, 80176, Note_on_c, 1, 71, 0
3, 80180, Note_on_c, 1, 72, 98
3, 80416, Note_on_c, 1, 72, 0
3, 80420, Note_on_c, 1, 74, 84
3, 80656, Note_on_c, 1, 74, 0
3, 80660, Note_on_c, 1, 76, 97
3, 81856, Note_on_c, 1, 76, 0
3, 81860, Note_on_c, 1, 74, 95
3, 82096, Note_on_c, 1, 74, 0
3, 82100, Note_on_c, 1, 76, 86
3, 82336, Note_on_c, 1, 76, 0
3, 82340, Note_on_c, 1, 72, 90
3, 82576, Note_on_c, 1, 72, 0
3, 82580, Note_on_c, 1, 74, 92
3, 84016, Note_on_c, 1, 74, 0
3, 84020, Note_on_c, 1, 74, 91
3, 84496, Note_on_c, 1, 74, 0
3, 84500, Note_on_c, 1, 72, 100
3, 85696, Note_on_c, 1, 72, 0
3, 85940, Note_on_c, 1, 72, 97
3, 86416, Note_on_c, 1, 72, 0
3, 86420, Note_on_c, 1, 71, 95
3, 87856, Note_on_c, 1, 71, 0
3, 87860, Note_on_c, 1, 76, 95
3, 88336, Note_on_c, 1, 76, 0
3, 88340, Note_on_c, 1, 69, 78
3, 88576, Note_on_c, 1, 69, 0
3, 88580, Note_on_c, 1, 71, 83
3, 88816, Note_on_c, 1, 71, 0
3, 88820, Note_on_c, 1, 72, 92
3, 90256, Note_on_c, 1, 72, 0
3, 90260, Note_on_c, 1, 71, 85
3, 91936, Note_on_c, 1, 71, 0
3, 92180, Note_on_c, 1, 72, 113
3, 94096, Note_on_c, 1, 72, 0
3, 94100, Note_on_c, 1, 71, 104
3, 95536, Note_on_c, 1, 71, 0
3, 95540, Note_on_c, 1, 72, 101
3, 95776, Note_on_c, 1, 72, 0
3, 95780, Note_on_c, 1, 74, 88
3, 96016, Note_on_c, 1, 74, 0
3, 96020, Note_on_c, 1, 76, 97
3, 97216, Note_on_c, 1, 76, 0
3, 97220, Note_on_c, 1, 75, 92
3, 97456, Note_on_c, 1, 75, 0
3, 97460, Note_on_c, 1, 76, 100
3, 97936, Note_on_c, 1, 76, 0
3, 97940, Note_on_c, 1, 75, 99
3, 99856, Note_on_c, 1, 75, 0
3, 99860, Note_on_c, 1, 67, 97
3, 101776, Note_on_c, 1, 67, 0
3, 101780, Note_on_c, 1, 66, 104
3, 102256, Note_on_c, 1, 66, 0
3, 102260, Note_on_c, 1, 67, 91
3, 102736, Note_on_c, 1, 67, 0
3, 102740, Note_on_c, 1, 69, 101
3, 104176, Note_on_c, 1, 69, 0
3, 104180, Note_on_c, 1, 67, 91
3, 104416, Note_on_c, 1, 67, 0
3, 104420, Note_on_c, 1, 69, 95
3, 104656, Note_on_c, 1, 69, 0
3, 104660, Note_on_c, 1, 71, 93
3, 105856, Note_on_c, 1, 71, 0
3, 105860, Note_on_c, 1, 69, 80
3, 106096, Note_on_c, 1, 69, 0
3, 106100, Note_on_c, 1, 67, 72
3, 106336, Note_on_c, 1, 67, 0
3, 106340, Note_on_c, 1, 66, 89
3, 106576, Note_on_c, 1, 66, 0
3, 106580, Note_on_c, 1, 64, 93
3, 107536, Note_on_c, 1, 64, 0
3, 107540, Note_on_c, 1, 72, 111
3, 109456, Note_on_c, 1, 72, 0
3, 109460, Note_on_c, 1, 71, 91
3, 110896, Note_on_c, 1, 71, 0
3, 110900, Note_on_c, 1, 72, 98
3, 111136, Note_on_c, 1, 72, 0
3, 111140, Note_on_c, 1, 74, 84
3, 111376, Note_on_c, 1, 74, 0
3, 111380, Note_on_c, 1, 76, 97
3, 112576, Note_on_c, 1, 76, 0
3, 112580, Note_on_c, 1, 74, 95
3, 112816, Note_on_c, 1, 74, 0
3, 112820, Note_on_c, 1, 76, 86
3, 113056, Note_on_c, 1, 76, 0
3, 113060, Note_on_c, 1, 72, 90
3, 113296, Note_on_c, 1, 72, 0
3, 113300, Note_on_c, 1, 74, 92
3, 114736, Note_on_c, 1, 74, 0
3, 114740, Note_on_c, 1, 74, 91
3, 115216, Note_on_c, 1, 74, 0
3, 115220, Note_on_c, 1, 72, 100
3, 116416, Note_on_c, 1, 72, 0
3, 116660, Note_on_c, 1, 72, 97
3, 117136, Note_on_c, 1, 72, 0
3, 117140, Note_on_c, 1, 71, 95
3, 118576, Note_on_c, 1, 71, 0
3, 118580, Note_on_c, 1, 76, 95
3, 119056, Note_on_c, 1, 76, 0
3, 119060, Note_on_c, 1, 69, 78
3, 119296, Note_on_c, 1, 69, 0
3, 119300, Note_on_c, 1, 71, 83
3, 119536, Note_on_c, 1, 71, 0
3, 119540, Note_on_c, 1, 72, 92
3, 120976, Note_on_c, 1, 72, 0
3, 120980, Note_on_c, 1, 71, 85
3, 122900, Note_on_c, 1, 71, 0
3, 123840, End_track
4, 0, Start_track
4, 0, Title_t, "goldberg.mid"
4, 500, Note_on_c, 3, 55, 93
4, 736, Note_on_c, 3, 55, 0
4, 740, Note_on_c, 3, 57, 102
4, 976, Note_on_c, 3, 57, 0
4, 980, Note_on_c, 3, 59, 100
4, 1456, Note_on_c, 3, 59, 0
4, 1460, Note_on_c, 3, 60, 106
4, 1936, Note_on_c, 3, 60, 0
4, 1940, Note_on_c, 3, 62, 115
4, 2416, Note_on_c, 3, 62, 0
4, 2420, Note_on_c, 3, 50, 91
4, 2896, Note_on_c, 3, 50, 0
4, 2900, Note_on_c, 3, 62, 102
4, 4336, Note_on_c, 3, 62, 0
4, 4340, Note_on_c, 3, 64, 35
4, 4576, Note_on_c, 3, 64, 0
4, 4580, Note_on_c, 3, 62, 106
4, 4816, Note_on_c, 3, 62, 0
4, 4820, Note_on_c, 3, 61, 110
4, 5296, Note_on_c, 3, 61, 0
4, 5300, Note_on_c, 3, 57, 100
4, 5776, Note_on_c, 3, 57, 0
4, 5780, Note_on_c, 3, 62, 100
4, 6256, Note_on_c, 3, 62, 0
4, 6260, Note_on_c, 3, 50, 96
4, 6736, Note_on_c, 3, 50, 0
4, 6740, Note_on_c, 3, 62, 97
4, 7216, Note_on_c, 3, 62, 0
4, 7220, Note_on_c, 3, 60, 102
4, 7696, Note_on_c, 3, 60, 0
4, 7700, Note_on_c, 3, 59, 97
4, 7760, Note_on_c, 3, 59, 0
4, 7760, Note_on_c, 3, 60, 97
4, 7820, Note_on_c, 3, 60, 0
4, 7820, Note_on_c, 3, 59, 97
4, 8180, Note_on_c, 3, 59, 0
4, 8180, Note_on_c, 3, 57, 90
4, 8416, Note_on_c, 3, 57, 0
4, 8420, Note_on_c, 3, 59, 96
4, 8656, Note_on_c, 3, 59, 0
4, 8660, Note_on_c, 3, 60, 104
4, 9136, Note_on_c, 3, 60, 0
4, 9140, Note_on_c, 3, 48, 81
4, 9616, Note_on_c, 3, 48, 0
4, 9620, Note_on_c, 3, 60, 101
4, 10096, Note_on_c, 3, 60, 0
4, 10100, Note_on_c, 3, 59, 95
4, 10336, Note_on_c, 3, 59, 0
4, 10340, Note_on_c, 3, 60, 89
4, 10576, Note_on_c, 3, 60, 0
4, 10580, Note_on_c, 3, 62, 98
4, 11056, Note_on_c, 3, 62, 0
4, 11060, Note_on_c, 3, 57, 92
4, 11536, Note_on_c, 3, 57, 0
4, 11540, Note_on_c, 3, 50, 101
4, 12016, Note_on_c, 3, 50, 0
4, 12020, Note_on_c, 3, 54, 106
4, 12256, Note_on_c, 3, 54, 0
4, 12260, Note_on_c, 3, 52, 95
4, 12496, Note_on_c, 3, 52, 0
4, 12500, Note_on_c, 3, 54, 99
4, 12976, Note_on_c, 3, 54, 0
4, 12980, Note_on_c, 3, 50, 96
4, 13456, Note_on_c, 3, 50, 0
4, 13460, Note_on_c, 3, 55, 102
4, 13936, Note_on_c, 3, 55, 0
4, 13940, Note_on_c, 3, 50, 96
4, 14416, Note_on_c, 3, 50, 0
4, 14420, Note_on_c, 3, 43, 92
4, 14896, Note_on_c, 3, 43, 0
4, 14900, Note_on_c, 3, 55, 85
4, 15136, Note_on_c, 3, 55, 0
4, 15140, Note_on_c, 3, 57, 93
4, 15376, Note_on_c, 3, 57, 0
4, 15380, Note_on_c, 3, 59, 101
4, 15856, Note_on_c, 3, 59, 0
4, 15860, Note_on_c, 3, 57, 51
4, 16096, Note_on_c, 3, 57, 0
4, 16100, Note_on_c, 3, 59, 81
4, 16336, Note_on_c, 3, 59, 0
4, 16340, Note_on_c, 3, 61, 92
4, 16816, Note_on_c, 3, 61, 0
4, 16820, Note_on_c, 3, 59, 91
4, 17056, Note_on_c, 3, 59, 0
4, 17060, Note_on_c, 3, 61, 84
4, 17296, Note_on_c, 3, 61, 0
4, 17300, Note_on_c, 3, 62, 88
4, 17776, Note_on_c, 3, 62, 0
4, 17780, Note_on_c, 3, 61, 97
4, 18256, Note_on_c, 3, 61, 0
4, 18260, Note_on_c, 3, 59, 88
4, 18736, Note_on_c, 3, 59, 0
4, 18740, Note_on_c, 3, 57, 98
4, 19216, Note_on_c, 3, 57, 0
4, 19220, Note_on_c, 3, 55, 97
4, 19696, Note_on_c, 3, 55, 0
4, 19700, Note_on_c, 3, 54, 92
4, 20176, Note_on_c, 3, 54, 0
4, 20180, Note_on_c, 3, 52, 90
4, 20656, Note_on_c, 3, 52, 0
4, 20660, Note_on_c, 3, 50, 95
4, 21136, Note_on_c, 3, 50, 0
4, 21140, Note_on_c, 3, 49, 101
4, 21616, Note_on_c, 3, 49, 0
4, 21620, Note_on_c, 3, 47, 106
4, 21856, Note_on_c, 3, 47, 0
4, 21860, Note_on_c, 3, 49, 94
4, 22096, Note_on_c, 3, 49, 0
4, 22100, Note_on_c, 3, 50, 102
4, 22576, Note_on_c, 3, 50, 0
4, 22580, Note_on_c, 3, 49, 97
4, 22816, Note_on_c, 3, 49, 0
4, 22820, Note_on_c, 3, 50, 92
4, 23056, Note_on_c, 3, 50, 0
4, 23060, Note_on_c, 3, 47, 101
4, 23536, Note_on_c, 3, 47, 0
4, 23540, Note_on_c, 3, 45, 95
4, 23776, Note_on_c, 3, 45, 0
4, 23780, Note_on_c, 3, 47, 104
4, 24016, Note_on_c, 3, 47, 0
4, 24020, Note_on_c, 3, 49, 97
4, 24496, Note_on_c, 3, 49, 0
4, 24500, Note_on_c, 3, 47, 98
4, 24736, Note_on_c, 3, 47, 0
4, 24740, Note_on_c, 3, 49, 96
4, 24976, Note_on_c, 3, 49, 0
4, 24980, Note_on_c, 3, 46, 106
4, 25456, Note_on_c, 3, 46, 0
4, 25460, Note_on_c, 3, 44, 106
4, 25696, Note_on_c, 3, 44, 0
4, 25700, Note_on_c, 3, 46, 104
4, 25936, Note_on_c, 3, 46, 0
4, 25940, Note_on_c, 3, 47, 106
4, 26176, Note_on_c, 3, 47, 0
4, 26180, Note_on_c, 3, 45, 96
4, 26416, Note_on_c, 3, 45, 0
4, 26420, Note_on_c, 3, 43, 86
4, 26656, Note_on_c, 3, 43, 0
4, 26660, Note_on_c, 3, 42, 89
4, 26896, Note_on_c, 3, 42, 0
4, 26900, Note_on_c, 3, 43, 104
4, 27376, Note_on_c, 3, 43, 0
4, 27380, Note_on_c, 3, 40, 96
4, 27856, Note_on_c, 3, 40, 0
4, 27860, Note_on_c, 3, 45, 104
4, 28336, Note_on_c, 3, 45, 0
4, 28340, Note_on_c, 3, 33, 109
4, 28816, Note_on_c, 3, 33, 0
4, 28820, Note_on_c, 3, 38, 74
4, 29296, Note_on_c, 3, 38, 0
4, 29300, Note_on_c, 3, 45, 90
4, 29776, Note_on_c, 3, 45, 0
4, 29780, Note_on_c, 3, 50, 101
4, 30496, Note_on_c, 3, 50, 0
4, 31220, Note_on_c, 3, 55, 93
4, 31456, Note_on_c, 3, 55, 0
4, 31460, Note_on_c, 3, 57, 102
4, 31696, Note_on_c, 3, 57, 0
4, 31700, Note_on_c, 3, 59, 100
4, 32060, Note_on_c, 3, 59, 0
4, 32180, Note_on_c, 3, 60, 106
4, 32540, Note_on_c, 3, 60, 0
4, 32660, Note_on_c, 3, 62, 115
4, 33020, Note_on_c, 3, 62, 0
4, 33140, Note_on_c, 3, 50, 91
4, 33616, Note_on_c, 3, 50, 0
4, 33620, Note_on_c, 3, 62, 102
4, 35056, Note_on_c, 3, 62, 0
4, 35060, Note_on_c, 3, 64, 35
4, 35296, Note_on_c, 3, 64, 0
4, 35300, Note_on_c, 3, 62, 106
4, 35536, Note_on_c, 3, 62, 0
4, 35540, Note_on_c, 3, 61, 110
4, 36016, Note_on_c, 3, 61, 0
4, 36020, Note_on_c, 3, 57, 100
4, 36496, Note_on_c, 3, 57, 0
4, 36500, Note_on_c, 3, 62, 100
4, 36976, Note_on_c, 3, 62, 0
4, 36980, Note_on_c, 3, 50, 96
4, 37456, Note_on_c, 3, 50, 0
4, 37460, Note_on_c, 3, 62, 97
4, 37936, Note_on_c, 3, 62, 0
4, 37940, Note_on_c, 3, 60, 102
4, 38416, Note_on_c, 3, 60, 0
4, 38420, Note_on_c, 3, 59, 97
4, 38480, Note_on_c, 3, 59, 0
4, 38480, Note_on_c, 3, 60, 97
4, 38540, Note_on_c, 3, 60, 0
4, 38540, Note_on_c, 3, 59, 97
4, 38900, Note_on_c, 3, 59, 0
4, 38900, Note_on_c, 3, 57, 90
4, 39136, Note_on_c, 3, 57, 0
4, 39140, Note_on_c, 3, 59, 96
4, 39376, Note_on_c, 3, 59, 0
4, 39380, Note_on_c, 3, 60, 104
4, 39856, Note_on_c, 3, 60, 0
4, 39860, Note_on_c, 3, 48, 81
4, 40336, Note_on_c, 3, 48, 0
4, 40340, Note_on_c, 3, 60, 101
4, 40816, Note_on_c, 3, 60, 0
4, 40820, Note_on_c, 3, 59, 95
4, 41056, Note_on_c, 3, 59, 0
4, 41060, Note_on_c, 3, 60, 89
4, 41296, Note_on_c, 3, 60, 0
4, 41300, Note_on_c, 3, 62, 98
4, 41776, Note_on_c, 3, 62, 0
4, 41780, Note_on_c, 3, 57, 92
4, 42256, Note_on_c, 3, 57, 0
4, 42260, Note_on_c, 3, 50, 101
4, 42736, Note_on_c, 3, 50, 0
4, 42740, Note_on_c, 3, 54, 106
4, 42976, Note_on_c, 3, 54, 0
4, 42980, Note_on_c, 3, 52, 95
4, 43216, Note_on_c, 3, 52, 0
4, 43220, Note_on_c, 3, 54, 99
4, 43696, Note_on_c, 3, 54, 0
4, 43700, Note_on_c, 3, 50, 96
4, 44176, Note_on_c, 3, 50, 0
4, 44180, Note_on_c, 3, 55, 102
4, 44540, Note_on_c, 3, 55, 0
4, 44660, Note_on_c, 3, 50, 96
4, 45020, Note_on_c, 3, 50, 0
4, 45140, Note_on_c, 3, 43, 92
4, 45616, Note_on_c, 3, 43, 0
4, 45620, Note_on_c, 3, 55, 85
4, 45856, Note_on_c, 3, 55, 0
4, 45860, Note_on_c, 3, 57, 93
4, 46096, Note_on_c, 3, 57, 0
4, 46100, Note_on_c, 3, 59, 101
4, 46576, Note_on_c, 3, 59, 0
4, 46580, Note_on_c, 3, 57, 51
4, 46816, Note_on_c, 3, 57, 0
4, 46820, Note_on_c, 3, 59, 81
4, 47056, Note_on_c, 3, 59, 0
4, 47060, Note_on_c, 3, 61, 92
4, 47536, Note_on_c, 3, 61, 0
4, 47540, Note_on_c, 3, 59, 91
4, 47776, Note_on_c, 3, 59, 0
4, 47780, Note_on_c, 3, 61, 84
4, 48016, Note_on_c, 3, 61, 0
4, 48020, Note_on_c, 3, 62, 88
4, 48496, Note_on_c, 3, 62, 0
4, 48500, Note_on_c, 3, 61, 97
4, 48976, Note_on_c, 3, 61, 0
4, 48980, Note_on_c, 3, 59, 88
4, 49456, Note_on_c, 3, 59, 0
4, 49460, Note_on_c, 3, 57, 98
4, 49936, Note_on_c, 3, 57, 0
4, 49940, Note_on_c, 3, 55, 97
4, 50416, Note_on_c, 3, 55, 0
4, 50420, Note_on_c, 3, 54, 92
4, 50896, Note_on_c, 3, 54, 0
4, 50900, Note_on_c, 3, 52, 90
4, 51376, Note_on_c, 3, 52, 0
4, 51380, Note_on_c, 3, 50, 95
4, 51856, Note_on_c, 3, 50, 0
4, 51860, Note_on_c, 3, 49, 101
4, 52336, Note_on_c, 3, 49, 0
4, 52340, Note_on_c, 3, 47, 106
4, 52576, Note_on_c, 3, 47, 0
4, 52580, Note_on_c, 3, 49, 94
4, 52816, Note_on_c, 3, 49, 0
4, 52820, Note_on_c, 3, 50, 102
4, 53296, Note_on_c, 3, 50, 0
4, 53300, Note_on_c, 3, 49, 97
4, 53536, Note_on_c, 3, 49, 0
4, 53540, Note_on_c, 3, 50, 92
4, 53776, Note_on_c, 3, 50, 0
4, 53780, Note_on_c, 3, 47, 101
4, 54256, Note_on_c, 3, 47, 0
4, 54260, Note_on_c, 3, 45, 95
4, 54496, Note_on_c, 3, 45, 0
4, 54500, Note_on_c, 3, 47, 104
4, 54736, Note_on_c, 3, 47, 0
4, 54740, Note_on_c, 3, 49, 97
4, 55216, Note_on_c, 3, 49, 0
4, 55220, Note_on_c, 3, 47, 98
4, 55456, Note_on_c, 3, 47, 0
4, 55460, Note_on_c, 3, 49, 96
4, 55696, Note_on_c, 3, 49, 0
4, 55700, Note_on_c, 3, 46, 106
4, 56176, Note_on_c, 3, 46, 0
4, 56180, Note_on_c, 3, 44, 106
4, 56416, Note_on_c, 3, 44, 0
4, 56420, Note_on_c, 3, 46, 104
4, 56656, Note_on_c, 3, 46, 0
4, 56660, Note_on_c, 3, 47, 106
4, 56896, Note_on_c, 3, 47, 0
4, 56900, Note_on_c, 3, 45, 96
4, 57136, Note_on_c, 3, 45, 0
4, 57140, Note_on_c, 3, 43, 86
4, 57376, Note_on_c, 3, 43, 0
4, 57380, Note_on_c, 3, 42, 89
4, 57616, Note_on_c, 3, 42, 0
4, 57620, Note_on_c, 3, 43, 104
4, 58096, Note_on_c, 3, 43, 0
4, 58100, Note_on_c, 3, 40, 96
4, 58576, Note_on_c, 3, 40, 0
4, 58580, Note_on_c, 3, 45, 104
4, 58820, Note_on_c, 3, 45, 0
4, 59060, Note_on_c, 3, 33, 109
4, 59536, Note_on_c, 3, 33, 0
4, 59540, Note_on_c, 3, 38, 74
4, 60016, Note_on_c, 3, 38, 0
4, 60020, Note_on_c, 3, 45, 90
4, 60496, Note_on_c, 3, 45, 0
4, 60500, Note_on_c, 3, 50, 101
4, 61216, Note_on_c, 3, 50, 0
4, 61940, Note_on_c, 3, 50, 96
4, 62176, Note_on_c, 3, 50, 0
4, 62180, Note_on_c, 3, 52, 97
4, 62416, Note_on_c, 3, 52, 0
4, 62420, Note_on_c, 3, 54, 97
4, 62896, Note_on_c, 3, 54, 0
4, 62900, Note_on_c, 3, 50, 90
4, 63376, Note_on_c, 3, 50, 0
4, 63380, Note_on_c, 3, 55, 98
4, 63856, Note_on_c, 3, 55, 0
4, 63860, Note_on_c, 3, 43, 84
4, 64336, Note_on_c, 3, 43, 0
4, 64340, Note_on_c, 3, 55, 95
4, 64816, Note_on_c, 3, 55, 0
4, 64820, Note_on_c, 3, 57, 37
4, 65056, Note_on_c, 3, 57, 0
4, 65060, Note_on_c, 3, 59, 93
4, 65296, Note_on_c, 3, 59, 0
4, 65300, Note_on_c, 3, 60, 101
4, 65776, Note_on_c, 3, 60, 0
4, 65780, Note_on_c, 3, 59, 83
4, 66256, Note_on_c, 3, 59, 0
4, 66260, Note_on_c, 3, 57, 96
4, 66736, Note_on_c, 3, 57, 0
4, 66740, Note_on_c, 3, 55, 88
4, 66976, Note_on_c, 3, 55, 0
4, 66980, Note_on_c, 3, 57, 86
4, 67216, Note_on_c, 3, 57, 0
4, 67220, Note_on_c, 3, 59, 92
4, 67936, Note_on_c, 3, 59, 0
4, 67940, Note_on_c, 3, 57, 97
4, 68176, Note_on_c, 3, 57, 0
4, 68180, Note_on_c, 3, 55, 83
4, 68416, Note_on_c, 3, 55, 0
4, 68420, Note_on_c, 3, 54, 101
4, 68656, Note_on_c, 3, 54, 0
4, 68660, Note_on_c, 3, 52, 83
4, 68896, Note_on_c, 3, 52, 0
4, 68900, Note_on_c, 3, 51, 90
4, 69136, Note_on_c, 3, 51, 0
4, 69140, Note_on_c, 3, 52, 104
4, 69616, Note_on_c, 3, 52, 0
4, 69620, Note_on_c, 3, 64, 101
4, 69856, Note_on_c, 3, 64, 0
4, 69860, Note_on_c, 3, 62, 83
4, 70096, Note_on_c, 3, 62, 0
4, 70100, Note_on_c, 3, 60, 97
4, 70576, Note_on_c, 3, 60, 0
4, 70580, Note_on_c, 3, 59, 88
4, 71056, Note_on_c, 3, 59, 0
4, 71060, Note_on_c, 3, 57, 96
4, 71536, Note_on_c, 3, 57, 0
4, 71540, Note_on_c, 3, 59, 85
4, 71776, Note_on_c, 3, 59, 0
4, 71780, Note_on_c, 3, 60, 92
4, 72016, Note_on_c, 3, 60, 0
4, 72020, Note_on_c, 3, 54, 117
4, 72500, Note_on_c, 3, 54, 0
4, 72500, Note_on_c, 3, 55, 96
4, 72736, Note_on_c, 3, 55, 0
4, 72740, Note_on_c, 3, 57, 82
4, 72976, Note_on_c, 3, 57, 0
4, 72980, Note_on_c, 3, 51, 94
4, 73456, Note_on_c, 3, 51, 0
4, 73460, Note_on_c, 3, 52, 85
4, 73696, Note_on_c, 3, 52, 0
4, 73700, Note_on_c, 3, 54, 92
4, 73936, Note_on_c, 3, 54, 0
4, 73940, Note_on_c, 3, 47, 95
4, 74416, Note_on_c, 3, 47, 0
4, 74420, Note_on_c, 3, 49, 85
4, 74656, Note_on_c, 3, 49, 0
4, 74660, Note_on_c, 3, 51, 89
4, 74896, Note_on_c, 3, 51, 0
4, 74900, Note_on_c, 3, 52, 82
4, 75380, Note_on_c, 3, 52, 0
4, 75380, Note_on_c, 3, 64, 111
4, 75616, Note_on_c, 3, 64, 0
4, 75620, Note_on_c, 3, 63, 102
4, 75856, Note_on_c, 3, 63, 0
4, 75860, Note_on_c, 3, 64, 97
4, 76336, Note_on_c, 3, 64, 0
4, 76340, Note_on_c, 3, 66, 110
4, 76576, Note_on_c, 3, 66, 0
4, 76580, Note_on_c, 3, 67, 77
4, 76816, Note_on_c, 3, 67, 0
4, 76820, Note_on_c, 3, 69, 104
4, 77296, Note_on_c, 3, 69, 0
4, 77300, Note_on_c, 3, 67, 85
4, 77536, Note_on_c, 3, 67, 0
4, 77540, Note_on_c, 3, 69, 84
4, 77776, Note_on_c, 3, 69, 0
4, 77780, Note_on_c, 3, 66, 96
4, 78256, Note_on_c, 3, 66, 0
4, 78260, Note_on_c, 3, 64, 81
4, 78496, Note_on_c, 3, 64, 0
4, 78500, Note_on_c, 3, 66, 75
4, 78736, Note_on_c, 3, 66, 0
4, 78740, Note_on_c, 3, 67, 67
4, 78976, Note_on_c, 3, 67, 0
4, 79220, Note_on_c, 3, 66, 81
4, 79456, Note_on_c, 3, 66, 0
4, 79700, Note_on_c, 3, 64, 88
4, 79936, Note_on_c, 3, 64, 0
4, 80180, Note_on_c, 3, 62, 70
4, 80416, Note_on_c, 3, 62, 0
4, 80660, Note_on_c, 3, 60, 93
4, 80896, Note_on_c, 3, 60, 0
4, 81140, Note_on_c, 3, 59, 66
4, 81376, Note_on_c, 3, 59, 0
4, 81620, Note_on_c, 3, 57, 71
4, 81856, Note_on_c, 3, 57, 0
4, 82100, Note_on_c, 3, 55, 69
4, 82580, Note_on_c, 3, 55, 0
4, 82580, Note_on_c, 3, 54, 93
4, 83056, Note_on_c, 3, 54, 0
4, 83060, Note_on_c, 3, 52, 84
4, 83296, Note_on_c, 3, 52, 0
4, 83300, Note_on_c, 3, 54, 85
4, 83536, Note_on_c, 3, 54, 0
4, 83540, Note_on_c, 3, 55, 86
4, 84016, Note_on_c, 3, 55, 0
4, 84020, Note_on_c, 3, 54, 84
4, 84256, Note_on_c, 3, 54, 0
4, 84260, Note_on_c, 3, 55, 78
4, 84496, Note_on_c, 3, 55, 0
4, 84500, Note_on_c, 3, 52, 85
4, 84976, Note_on_c, 3, 52, 0
4, 84980, Note_on_c, 3, 50, 69
4, 85216, Note_on_c, 3, 50, 0
4, 85220, Note_on_c, 3, 52, 85
4, 85456, Note_on_c, 3, 52, 0
4, 85460, Note_on_c, 3, 54, 96
4, 85936, Note_on_c, 3, 54, 0
4, 85940, Note_on_c, 3, 52, 83
4, 86176, Note_on_c, 3, 52, 0
4, 86180, Note_on_c, 3, 54, 97
4, 86416, Note_on_c, 3, 54, 0
4, 86420, Note_on_c, 3, 51, 102
4, 86896, Note_on_c, 3, 51, 0
4, 86900, Note_on_c, 3, 49, 84
4, 87136, Note_on_c, 3, 49, 0
4, 87140, Note_on_c, 3, 51, 93
4, 87376, Note_on_c, 3, 51, 0
4, 87380, Note_on_c, 3, 52, 98
4, 87616, Note_on_c, 3, 52, 0
4, 87620, Note_on_c, 3, 50, 92
4, 87856, Note_on_c, 3, 50, 0
4, 87860, Note_on_c, 3, 48, 90
4, 88096, Note_on_c, 3, 48, 0
4, 88100, Note_on_c, 3, 47, 88
4, 88336, Note_on_c, 3, 47, 0
4, 88340, Note_on_c, 3, 48, 88
4, 88816, Note_on_c, 3, 48, 0
4, 88820, Note_on_c, 3, 45, 76
4, 89296, Note_on_c, 3, 45, 0
4, 89300, Note_on_c, 3, 50, 93
4, 89540, Note_on_c, 3, 50, 0
4, 89780, Note_on_c, 3, 38, 61
4, 90256, Note_on_c, 3, 38, 0
4, 90260, Note_on_c, 3, 43, 84
4, 90736, Note_on_c, 3, 43, 0
4, 90740, Note_on_c, 3, 50, 102
4, 91216, Note_on_c, 3, 50, 0
4, 91220, Note_on_c, 3, 55, 101
4, 92176, Note_on_c, 3, 55, 0
4, 92660, Note_on_c, 3, 50, 96
4, 92896, Note_on_c, 3, 50, 0
4, 92900, Note_on_c, 3, 52, 97
4, 93136, Note_on_c, 3, 52, 0
4, 93140, Note_on_c, 3, 54, 97
4, 93616, Note_on_c, 3, 54, 0
4, 93620, Note_on_c, 3, 50, 90
4, 94096, Note_on_c, 3, 50, 0
4, 94100, Note_on_c, 3, 55, 98
4, 94576, Note_on_c, 3, 55, 0
4, 94580, Note_on_c, 3, 43, 84
4, 95056, Note_on_c, 3, 43, 0
4, 95060, Note_on_c, 3, 55, 95
4, 95536, Note_on_c, 3, 55, 0
4, 95540, Note_on_c, 3, 57, 37
4, 95776, Note_on_c, 3, 57, 0
4, 95780, Note_on_c, 3, 59, 93
4, 96016, Note_on_c, 3, 59, 0
4, 96020, Note_on_c, 3, 60, 101
4, 96496, Note_on_c, 3, 60, 0
4, 96500, Note_on_c, 3, 59, 83
4, 96976, Note_on_c, 3, 59, 0
4, 96980, Note_on_c, 3, 57, 96
4, 97456, Note_on_c, 3, 57, 0
4, 97460, Note_on_c, 3, 55, 88
4, 97696, Note_on_c, 3, 55, 0
4, 97700, Note_on_c, 3, 57, 86
4, 97936, Note_on_c, 3, 57, 0
4, 97940, Note_on_c, 3, 59, 92
4, 98656, Note_on_c, 3, 59, 0
4, 98660, Note_on_c, 3, 57, 97
4, 98896, Note_on_c, 3, 57, 0
4, 98900, Note_on_c, 3, 55, 83
4, 99136, Note_on_c, 3, 55, 0
4, 99140, Note_on_c, 3, 54, 101
4, 99376, Note_on_c, 3, 54, 0
4, 99380, Note_on_c, 3, 52, 83
4, 99616, Note_on_c, 3, 52, 0
4, 99620, Note_on_c, 3, 51, 90
4, 99856, Note_on_c, 3, 51, 0
4, 99860, Note_on_c, 3, 52, 104
4, 100336, Note_on_c, 3, 52, 0
4, 100340, Note_on_c, 3, 64, 101
4, 100576, Note_on_c, 3, 64, 0
4, 100580, Note_on_c, 3, 62, 83
4, 100816, Note_on_c, 3, 62, 0
4, 100820, Note_on_c, 3, 60, 97
4, 101296, Note_on_c, 3, 60, 0
4, 101300, Note_on_c, 3, 59, 88
4, 101776, Note_on_c, 3, 59, 0
4, 101780, Note_on_c, 3, 57, 96
4, 102256, Note_on_c, 3, 57, 0
4, 102260, Note_on_c, 3, 59, 85
4, 102496, Note_on_c, 3, 59, 0
4, 102500, Note_on_c, 3, 60, 92
4, 102736, Note_on_c, 3, 60, 0
4, 102740, Note_on_c, 3, 54, 117
4, 103220, Note_on_c, 3, 54, 0
4, 103220, Note_on_c, 3, 55, 96
4, 103456, Note_on_c, 3, 55, 0
4, 103460, Note_on_c, 3, 57, 82
4, 103696, Note_on_c, 3, 57, 0
4, 103700, Note_on_c, 3, 51, 94
4, 104176, Note_on_c, 3, 51, 0
4, 104180, Note_on_c, 3, 52, 85
4, 104416, Note_on_c, 3, 52, 0
4, 104420, Note_on_c, 3, 54, 92
4, 104656, Note_on_c, 3, 54, 0
4, 104660, Note_on_c, 3, 47, 95
4, 105136, Note_on_c, 3, 47, 0
4, 105140, Note_on_c, 3, 49, 85
4, 105376, Note_on_c, 3, 49, 0
4, 105380, Note_on_c, 3, 51, 89
4, 105616, Note_on_c, 3, 51, 0
4, 105620, Note_on_c, 3, 52, 82
4, 106100, Note_on_c, 3, 52, 0
4, 106100, Note_on_c, 3, 64, 111
4, 106336, Note_on_c, 3, 64, 0
4, 106340, Note_on_c, 3, 63, 102
4, 106576, Note_on_c, 3, 63, 0
4, 106580, Note_on_c, 3, 64, 97
4, 107056, Note_on_c, 3, 64, 0
4, 107060, Note_on_c, 3, 66, 110
4, 107296, Note_on_c, 3, 66, 0
4, 107300, Note_on_c, 3, 67, 77
4, 107536, Note_on_c, 3, 67, 0
4, 107540, Note_on_c, 3, 69, 104
4, 108016, Note_on_c, 3, 69, 0
4, 108020, Note_on_c, 3, 67, 85
4, 108256, Note_on_c, 3, 67, 0
4, 108260, Note_on_c, 3, 69, 84
4, 108496, Note_on_c, 3, 69, 0
4, 108500, Note_on_c, 3, 66, 96
4, 108976, Note_on_c, 3, 66, 0
4, 108980, Note_on_c, 3, 64, 81
4, 109216, Note_on_c, 3, 64, 0
4, 109220, Note_on_c, 3, 66, 75
4, 109456, Note_on_c, 3, 66, 0
4, 109460, Note_on_c, 3, 67, 67
4, 109696, Note_on_c, 3, 67, 0
4, 109940, Note_on_c, 3, 66, 81
4, 110176, Note_on_c, 3, 66, 0
4, 110420, Note_on_c, 3, 64, 88
4, 110656, Note_on_c, 3, 64, 0
4, 110900, Note_on_c, 3, 62, 70
4, 111136, Note_on_c, 3, 62, 0
4, 111380, Note_on_c, 3, 60, 93
4, 111616, Note_on_c, 3, 60, 0
4, 111860, Note_on_c, 3, 59, 66
4, 112096, Note_on_c, 3, 59, 0
4, 112340, Note_on_c, 3, 57, 71
4, 112576, Note_on_c, 3, 57, 0
4, 112820, Note_on_c, 3, 55, 69
4, 113300, Note_on_c, 3, 55, 0
4, 113300, Note_on_c, 3, 54, 93
4, 113776, Note_on_c, 3, 54, 0
4, 113780, Note_on_c, 3, 52, 84
4, 114016, Note_on_c, 3, 52, 0
4, 114020, Note_on_c, 3, 54, 85
4, 114256, Note_on_c, 3, 54, 0
4, 114260, Note_on_c, 3, 55, 86
4, 114736, Note_on_c, 3, 55, 0
4, 114740, Note_on_c, 3, 54, 84
4, 114976, Note_on_c, 3, 54, 0
4, 114980, Note_on_c, 3, 55, 78
4, 115216, Note_on_c, 3, 55, 0
4, 115220, Note_on_c, 3, 52, 85
4, 115696, Note_on_c, 3, 52, 0
4, 115700, Note_on_c, 3, 50, 69
4, 115936, Note_on_c, 3, 50, 0
4, 115940, Note_on_c, 3, 52, 85
4, 116176, Note_on_c, 3, 52, 0
4, 116180, Note_on_c, 3, 54, 96
4, 116656, Note_on_c, 3, 54, 0
4, 116660, Note_on_c, 3, 52, 83
4, 116896, Note_on_c, 3, 52, 0
4, 116900, Note_on_c, 3, 54, 97
4, 117136, Note_on_c, 3, 54, 0
4, 117140, Note_on_c, 3, 51, 102
4, 117616, Note_on_c, 3, 51, 0
4, 117620, Note_on_c, 3, 49, 84
4, 117856, Note_on_c, 3, 49, 0
4, 117860, Note_on_c, 3, 51, 93
4, 118096, Note_on_c, 3, 51, 0
4, 118100, Note_on_c, 3, 52, 98
4, 118336, Note_on_c, 3, 52, 0
4, 118340, Note_on_c, 3, 50, 92
4, 118576, Note_on_c, 3, 50, 0
4, 118580, Note_on_c, 3, 48, 90
4, 118816, Note_on_c, 3, 48, 0
4, 118820, Note_on_c, 3, 47, 88
4, 119056, Note_on_c, 3, 47, 0
4, 119060, Note_on_c, 3, 48, 88
4, 119536, Note_on_c, 3, 48, 0
4, 119540, Note_on_c, 3, 45, 76
4, 120016, Note_on_c, 3, 45, 0
4, 120020, Note_on_c, 3, 50, 93
4, 120260, Note_on_c, 3, 50, 0
4, 120500, Note_on_c, 3, 38, 61
4, 120976, Note_on_c, 3, 38, 0
4, 120980, Note_on_c, 3, 43, 84
4, 121456, Note_on_c, 3, 43, 0
4, 121460, Note_on_c, 3, 50, 102
4, 121936, Note_on_c, 3, 50, 0
4, 121940, Note_on_c, 3, 55, 101
4, 122896, Note_on_c, 3, 55, 0
4, 123840, End_track
0, 0, End_of_file
