0, 0, Header, 1, 4, 480
1, 0, Start_track
1, 0, SMPTE_offset, 96, 0, 0, 0, 0
1, 0, Time_signature, 3, 2, 24, 8
1, 20, Tempo, 666666
1, 32, Control_c, 2, 7, 114
1, 54784, Control_c, 2, 7, 104
1, 61460, Tempo, 666666
1, 61920, End_track
2, 0, Start_track
2, 0, Title_t, "goldberg.mid"
2, 16, Control_c, 0, 7, 104
2, 1940, Note_on_c, 0, 79, 121
2, 2408, Note_on_c, 0, 84, 106
2, 2412, Note_on_c, 0, 79, 0
2, 2444, Note_on_c, 0, 83, 106
2, 2448, Note_on_c, 0, 84, 0
2, 2492, Note_on_c, 0, 83, 0
2, 2492, Note_on_c, 0, 84, 81
2, 3148, Note_on_c, 0, 83, 96
2, 3156, Note_on_c, 0, 84, 0
2, 3268, Note_on_c, 0, 81, 83
2, 3276, Note_on_c, 0, 83, 0
2, 3384, Note_on_c, 0, 83, 83
2, 3392, Note_on_c, 0, 81, 0
2, 3496, Note_on_c, 0, 81, 78
2, 3508, Note_on_c, 0, 83, 0
2, 3620, Note_on_c, 0, 81, 0
2, 3620, Note_on_c, 0, 79, 72
2, 3740, Note_on_c, 0, 78, 96
2, 3760, Note_on_c, 0, 79, 0
2, 3864, Note_on_c, 0, 78, 0
2, 3864, Note_on_c, 0, 79, 85
2, 4460, Note_on_c, 0, 79, 0
2, 4460, Note_on_c, 0, 77, 77
2, 4580, Note_on_c, 0, 76, 72
2, 4584, Note_on_c, 0, 77, 0
2, 4696, Note_on_c, 0, 76, 0
2, 4700, Note_on_c, 0, 74, 56
2, 4828, Note_on_c, 0, 76, 83
2, 4832, Note_on_c, 0, 74, 0
2, 5420, Note_on_c, 0, 74, 73
2, 5424, Note_on_c, 0, 76, 0
2, 5532, Note_on_c, 0, 72, 71
2, 5548, Note_on_c, 0, 74, 0
2, 5648, Note_on_c, 0, 71, 66
2, 5652, Note_on_c, 0, 72, 0
2, 5780, Note_on_c, 0, 69, 64
2, 5804, Note_on_c, 0, 71, 0
2, 6376, Note_on_c, 0, 72, 86
2, 6392, Note_on_c, 0, 69, 0
2, 6500, Note_on_c, 0, 71, 70
2, 6512, Note_on_c, 0, 72, 0
2, 6616, Note_on_c, 0, 71, 0
2, 6616, Note_on_c, 0, 69, 66
2, 6740, Note_on_c, 0, 69, 0
2, 6744, Note_on_c, 0, 71, 72
2, 6864, Note_on_c, 0, 79, 84
2, 6868, Note_on_c, 0, 71, 0
2, 6976, Note_on_c, 0, 78, 88
2, 6980, Note_on_c, 0, 79, 0
2, 7088, Note_on_c, 0, 78, 0
2, 7096, Note_on_c, 0, 81, 91
2, 7224, Note_on_c, 0, 79, 80
2, 7232, Note_on_c, 0, 81, 0
2, 7332, Note_on_c, 0, 78, 74
2, 7348, Note_on_c, 0, 79, 0
2, 7452, Note_on_c, 0, 76, 75
2, 7456, Note_on_c, 0, 78, 0
2, 7564, Note_on_c, 0, 74, 74
2, 7572, Note_on_c, 0, 76, 0
2, 7700, Note_on_c, 0, 84, 92
2, 7728, Note_on_c, 0, 74, 0
2, 7936, Note_on_c, 0, 83, 85
2, 7948, Note_on_c, 0, 84, 0
2, 8648, Note_on_c, 0, 83, 0
2, 9632, Note_on_c, 0, 71, 75
2, 9740, Note_on_c, 0, 75, 79
2, 9764, Note_on_c, 0, 71, 0
2, 9856, Note_on_c, 0, 76, 91
2, 9876, Note_on_c, 0, 75, 0
2, 9972, Note_on_c, 0, 79, 86
2, 9992, Note_on_c, 0, 76, 0
2, 10100, Note_on_c, 0, 83, 95
2, 10112, Note_on_c, 0, 79, 0
2, 10696, Note_on_c, 0, 81, 80
2, 10708, Note_on_c, 0, 83, 0
2, 10812, Note_on_c, 0, 81, 0
2, 10812, Note_on_c, 0, 79, 68
2, 10928, Note_on_c, 0, 79, 0
2, 10928, Note_on_c, 0, 83, 91
2, 11056, Note_on_c, 0, 81, 83
2, 11068, Note_on_c, 0, 83, 0
2, 11168, Note_on_c, 0, 79, 70
2, 11172, Note_on_c, 0, 81, 0
2, 11296, Note_on_c, 0, 78, 56
2, 11312, Note_on_c, 0, 79, 0
2, 11404, Note_on_c, 0, 76, 73
2, 11408, Note_on_c, 0, 78, 0
2, 11532, Note_on_c, 0, 74, 84
2, 11552, Note_on_c, 0, 76, 0
2, 12136, Note_on_c, 0, 74, 0
2, 12136, Note_on_c, 0, 72, 75
2, 12252, Note_on_c, 0, 71, 66
2, 12264, Note_on_c, 0, 72, 0
2, 12364, Note_on_c, 0, 69, 61
2, 12368, Note_on_c, 0, 71, 0
2, 12484, Note_on_c, 0, 71, 80
2, 12492, Note_on_c, 0, 69, 0
2, 13100, Note_on_c, 0, 69, 71
2, 13116, Note_on_c, 0, 71, 0
2, 13216, Note_on_c, 0, 67, 74
2, 13224, Note_on_c, 0, 69, 0
2, 13336, Note_on_c, 0, 66, 81
2, 13352, Note_on_c, 0, 67, 0
2, 13460, Note_on_c, 0, 66, 0
2, 13460, Note_on_c, 0, 64, 63
2, 14056, Note_on_c, 0, 67, 73
2, 14068, Note_on_c, 0, 64, 0
2, 14176, Note_on_c, 0, 66, 67
2, 14192, Note_on_c, 0, 67, 0
2, 14288, Note_on_c, 0, 64, 74
2, 14304, Note_on_c, 0, 66, 0
2, 14416, Note_on_c, 0, 62, 82
2, 14420, Note_on_c, 0, 64, 0
2, 15080, Note_on_c, 0, 62, 0
2, 17292, Note_on_c, 0, 79, 86
2, 17780, Note_on_c, 0, 84, 89
2, 17796, Note_on_c, 0, 79, 0
2, 17812, Note_on_c, 0, 83, 93
2, 17820, Note_on_c, 0, 84, 0
2, 17860, Note_on_c, 0, 84, 85
2, 17864, Note_on_c, 0, 83, 0
2, 18508, Note_on_c, 0, 83, 89
2, 18524, Note_on_c, 0, 84, 0
2, 18624, Note_on_c, 0, 81, 75
2, 18644, Note_on_c, 0, 83, 0
2, 18744, Note_on_c, 0, 83, 81
2, 18764, Note_on_c, 0, 81, 0
2, 18856, Note_on_c, 0, 81, 76
2, 18880, Note_on_c, 0, 83, 0
2, 18972, Note_on_c, 0, 81, 0
2, 18972, Note_on_c, 0, 79, 76
2, 19088, Note_on_c, 0, 78, 76
2, 19100, Note_on_c, 0, 79, 0
2, 19216, Note_on_c, 0, 79, 82
2, 19224, Note_on_c, 0, 78, 0
2, 19824, Note_on_c, 0, 77, 75
2, 19836, Note_on_c, 0, 79, 0
2, 19948, Note_on_c, 0, 76, 67
2, 19964, Note_on_c, 0, 77, 0
2, 20060, Note_on_c, 0, 76, 0
2, 20060, Note_on_c, 0, 74, 67
2, 20180, Note_on_c, 0, 76, 84
2, 20188, Note_on_c, 0, 74, 0
2, 20792, Note_on_c, 0, 74, 90
2, 20800, Note_on_c, 0, 76, 0
2, 20916, Note_on_c, 0, 72, 80
2, 20932, Note_on_c, 0, 74, 0
2, 21032, Note_on_c, 0, 71, 70
2, 21048, Note_on_c, 0, 72, 0
2, 21156, Note_on_c, 0, 69, 60
2, 21172, Note_on_c, 0, 71, 0
2, 21740, Note_on_c, 0, 72, 80
2, 21768, Note_on_c, 0, 69, 0
2, 21856, Note_on_c, 0, 71, 73
2, 21872, Note_on_c, 0, 72, 0
2, 21984, Note_on_c, 0, 69, 68
2, 21992, Note_on_c, 0, 71, 0
2, 22108, Note_on_c, 0, 71, 83
2, 22140, Note_on_c, 0, 69, 0
2, 22224, Note_on_c, 0, 71, 0
2, 22224, Note_on_c, 0, 79, 85
2, 22340, Note_on_c, 0, 78, 85
2, 22356, Note_on_c, 0, 79, 0
2, 22456, Note_on_c, 0, 81, 81
2, 22460, Note_on_c, 0, 78, 0
2, 22584, Note_on_c, 0, 79, 84
2, 22592, Note_on_c, 0, 81, 0
2, 22700, Note_on_c, 0, 78, 81
2, 22708, Note_on_c, 0, 79, 0
2, 22820, Note_on_c, 0, 78, 0
2, 22820, Note_on_c, 0, 76, 71
2, 22940, Note_on_c, 0, 76, 0
2, 22940, Note_on_c, 0, 74, 77
2, 23068, Note_on_c, 0, 84, 80
2, 23072, Note_on_c, 0, 74, 0
2, 23296, Note_on_c, 0, 83, 89
2, 23316, Note_on_c, 0, 84, 0
2, 23876, Note_on_c, 0, 83, 0
2, 24980, Note_on_c, 0, 71, 73
2, 25088, Note_on_c, 0, 75, 73
2, 25116, Note_on_c, 0, 71, 0
2, 25208, Note_on_c, 0, 76, 90
2, 25216, Note_on_c, 0, 75, 0
2, 25324, Note_on_c, 0, 79, 90
2, 25340, Note_on_c, 0, 76, 0
2, 25456, Note_on_c, 0, 79, 0
2, 25456, Note_on_c, 0, 83, 97
2, 26056, Note_on_c, 0, 81, 83
2, 26072, Note_on_c, 0, 83, 0
2, 26176, Note_on_c, 0, 79, 62
2, 26180, Note_on_c, 0, 81, 0
2, 26304, Note_on_c, 0, 83, 90
2, 26308, Note_on_c, 0, 79, 0
2, 26416, Note_on_c, 0, 81, 86
2, 26428, Note_on_c, 0, 83, 0
2, 26524, Note_on_c, 0, 79, 78
2, 26532, Note_on_c, 0, 81, 0
2, 26656, Note_on_c, 0, 78, 74
2, 26672, Note_on_c, 0, 79, 0
2, 26764, Note_on_c, 0, 76, 80
2, 26768, Note_on_c, 0, 78, 0
2, 26896, Note_on_c, 0, 74, 88
2, 26908, Note_on_c, 0, 76, 0
2, 27492, Note_on_c, 0, 72, 81
2, 27508, Note_on_c, 0, 74, 0
2, 27608, Note_on_c, 0, 71, 68
2, 27628, Note_on_c, 0, 72, 0
2, 27724, Note_on_c, 0, 69, 58
2, 27740, Note_on_c, 0, 71, 0
2, 27852, Note_on_c, 0, 71, 78
2, 27868, Note_on_c, 0, 69, 0
2, 28456, Note_on_c, 0, 69, 77
2, 28472, Note_on_c, 0, 71, 0
2, 28568, Note_on_c, 0, 67, 77
2, 28584, Note_on_c, 0, 69, 0
2, 28680, Note_on_c, 0, 66, 76
2, 28696, Note_on_c, 0, 67, 0
2, 28804, Note_on_c, 0, 64, 82
2, 28816, Note_on_c, 0, 66, 0
2, 29416, Note_on_c, 0, 67, 71
2, 29440, Note_on_c, 0, 64, 0
2, 29544, Note_on_c, 0, 66, 74
2, 29556, Note_on_c, 0, 67, 0
2, 29660, Note_on_c, 0, 64, 78
2, 29664, Note_on_c, 0, 66, 0
2, 29788, Note_on_c, 0, 62, 81
2, 29792, Note_on_c, 0, 64, 0
2, 30408, Note_on_c, 0, 62, 0
2, 30740, Note_on_c, 0, 69, 88
2, 31216, Note_on_c, 0, 69, 0
2, 31216, Note_on_c, 0, 81, 113
2, 31820, Note_on_c, 0, 79, 93
2, 31828, Note_on_c, 0, 81, 0
2, 31936, Note_on_c, 0, 78, 90
2, 31948, Note_on_c, 0, 79, 0
2, 32052, Note_on_c, 0, 81, 89
2, 32060, Note_on_c, 0, 78, 0
2, 32172, Note_on_c, 0, 79, 78
2, 32184, Note_on_c, 0, 81, 0
2, 32292, Note_on_c, 0, 78, 81
2, 32312, Note_on_c, 0, 79, 0
2, 32416, Note_on_c, 0, 76, 69
2, 32424, Note_on_c, 0, 78, 0
2, 32532, Note_on_c, 0, 75, 90
2, 32548, Note_on_c, 0, 76, 0
2, 32664, Note_on_c, 0, 75, 0
2, 32664, Note_on_c, 0, 76, 84
2, 33376, Note_on_c, 0, 78, 79
2, 33380, Note_on_c, 0, 76, 0
2, 33612, Note_on_c, 0, 75, 70
2, 33624, Note_on_c, 0, 78, 0
2, 33856, Note_on_c, 0, 75, 0
2, 33856, Note_on_c, 0, 71, 83
2, 34288, Note_on_c, 0, 71, 0
2, 34572, Note_on_c, 0, 76, 98
2, 35180, Note_on_c, 0, 74, 81
2, 35192, Note_on_c, 0, 76, 0
2, 35300, Note_on_c, 0, 72, 72
2, 35320, Note_on_c, 0, 74, 0
2, 35412, Note_on_c, 0, 71, 68
2, 35420, Note_on_c, 0, 72, 0
2, 35532, Note_on_c, 0, 72, 81
2, 35552, Note_on_c, 0, 71, 0
2, 36136, Note_on_c, 0, 71, 81
2, 36144, Note_on_c, 0, 72, 0
2, 36256, Note_on_c, 0, 69, 68
2, 36276, Note_on_c, 0, 71, 0
2, 36368, Note_on_c, 0, 69, 0
2, 36368, Note_on_c, 0, 67, 73
2, 36500, Note_on_c, 0, 66, 84
2, 36512, Note_on_c, 0, 67, 0
2, 37092, Note_on_c, 0, 69, 78
2, 37116, Note_on_c, 0, 66, 0
2, 37212, Note_on_c, 0, 67, 73
2, 37228, Note_on_c, 0, 69, 0
2, 37316, Note_on_c, 0, 66, 81
2, 37332, Note_on_c, 0, 67, 0
2, 37440, Note_on_c, 0, 67, 86
2, 37456, Note_on_c, 0, 66, 0
2, 38020, Note_on_c, 0, 67, 0
2, 38420, Note_on_c, 0, 64, 109
2, 38900, Note_on_c, 0, 69, 88
2, 38916, Note_on_c, 0, 64, 0
2, 39492, Note_on_c, 0, 67, 89
2, 39512, Note_on_c, 0, 69, 0
2, 39608, Note_on_c, 0, 66, 75
2, 39620, Note_on_c, 0, 67, 0
2, 39724, Note_on_c, 0, 69, 81
2, 39736, Note_on_c, 0, 66, 0
2, 39848, Note_on_c, 0, 67, 85
2, 39864, Note_on_c, 0, 69, 0
2, 39960, Note_on_c, 0, 66, 84
2, 39980, Note_on_c, 0, 67, 0
2, 40084, Note_on_c, 0, 64, 89
2, 40088, Note_on_c, 0, 66, 0
2, 40212, Note_on_c, 0, 62, 91
2, 40220, Note_on_c, 0, 64, 0
2, 40340, Note_on_c, 0, 60, 83
2, 40348, Note_on_c, 0, 62, 0
2, 40820, Note_on_c, 0, 72, 111
2, 40824, Note_on_c, 0, 60, 0
2, 41412, Note_on_c, 0, 71, 90
2, 41432, Note_on_c, 0, 72, 0
2, 41536, Note_on_c, 0, 69, 64
2, 41552, Note_on_c, 0, 71, 0
2, 41640, Note_on_c, 0, 72, 77
2, 41652, Note_on_c, 0, 69, 0
2, 41760, Note_on_c, 0, 71, 67
2, 41772, Note_on_c, 0, 72, 0
2, 41884, Note_on_c, 0, 69, 54
2, 41900, Note_on_c, 0, 71, 0
2, 42016, Note_on_c, 0, 69, 0
2, 42016, Note_on_c, 0, 67, 55
2, 42136, Note_on_c, 0, 66, 65
2, 42148, Note_on_c, 0, 67, 0
2, 42260, Note_on_c, 0, 66, 0
2, 42260, Note_on_c, 0, 71, 83
2, 42500, Note_on_c, 0, 71, 0
2, 42500, Note_on_c, 0, 67, 83
2, 42740, Note_on_c, 0, 67, 0
2, 42740, Note_on_c, 0, 71, 78
2, 42960, Note_on_c, 0, 71, 0
2, 42980, Note_on_c, 0, 74, 95
2, 43228, Note_on_c, 0, 79, 104
2, 43232, Note_on_c, 0, 74, 0
2, 43692, Note_on_c, 0, 79, 0
2, 43696, Note_on_c, 0, 84, 80
2, 44288, Note_on_c, 0, 83, 73
2, 44308, Note_on_c, 0, 84, 0
2, 44400, Note_on_c, 0, 81, 78
2, 44404, Note_on_c, 0, 83, 0
2, 44520, Note_on_c, 0, 84, 84
2, 44536, Note_on_c, 0, 81, 0
2, 44640, Note_on_c, 0, 83, 85
2, 44660, Note_on_c, 0, 84, 0
2, 44760, Note_on_c, 0, 81, 90
2, 44772, Note_on_c, 0, 83, 0
2, 44880, Note_on_c, 0, 81, 0
2, 44880, Note_on_c, 0, 79, 74
2, 45004, Note_on_c, 0, 78, 88
2, 45020, Note_on_c, 0, 79, 0
2, 45132, Note_on_c, 0, 79, 77
2, 45140, Note_on_c, 0, 78, 0
2, 45620, Note_on_c, 0, 79, 0
2, 46100, Note_on_c, 0, 69, 91
2, 46580, Note_on_c, 0, 81, 91
2, 46584, Note_on_c, 0, 69, 0
2, 47180, Note_on_c, 0, 79, 54
2, 47196, Note_on_c, 0, 81, 0
2, 47292, Note_on_c, 0, 78, 72
2, 47300, Note_on_c, 0, 79, 0
2, 47408, Note_on_c, 0, 81, 86
2, 47424, Note_on_c, 0, 78, 0
2, 47532, Note_on_c, 0, 79, 69
2, 47556, Note_on_c, 0, 81, 0
2, 47648, Note_on_c, 0, 78, 71
2, 47672, Note_on_c, 0, 79, 0
2, 47768, Note_on_c, 0, 76, 46
2, 47784, Note_on_c, 0, 78, 0
2, 47892, Note_on_c, 0, 75, 61
2, 47908, Note_on_c, 0, 76, 0
2, 48024, Note_on_c, 0, 76, 72
2, 48032, Note_on_c, 0, 75, 0
2, 48732, Note_on_c, 0, 78, 77
2, 48736, Note_on_c, 0, 76, 0
2, 48976, Note_on_c, 0, 75, 74
2, 48988, Note_on_c, 0, 78, 0
2, 49220, Note_on_c, 0, 71, 83
2, 49224, Note_on_c, 0, 75, 0
2, 49736, Note_on_c, 0, 71, 0
2, 49932, Note_on_c, 0, 76, 93
2, 50540, Note_on_c, 0, 74, 78
2, 50548, Note_on_c, 0, 76, 0
2, 50660, Note_on_c, 0, 72, 77
2, 50676, Note_on_c, 0, 74, 0
2, 50772, Note_on_c, 0, 71, 75
2, 50784, Note_on_c, 0, 72, 0
2, 50896, Note_on_c, 0, 72, 82
2, 50908, Note_on_c, 0, 71, 0
2, 51500, Note_on_c, 0, 71, 66
2, 51520, Note_on_c, 0, 72, 0
2, 51620, Note_on_c, 0, 69, 68
2, 51640, Note_on_c, 0, 71, 0
2, 51736, Note_on_c, 0, 67, 64
2, 51740, Note_on_c, 0, 69, 0
2, 51860, Note_on_c, 0, 67, 0
2, 51860, Note_on_c, 0, 66, 79
2, 52468, Note_on_c, 0, 69, 76
2, 52484, Note_on_c, 0, 66, 0
2, 52592, Note_on_c, 0, 67, 72
2, 52608, Note_on_c, 0, 69, 0
2, 52700, Note_on_c, 0, 66, 71
2, 52716, Note_on_c, 0, 67, 0
2, 52820, Note_on_c, 0, 67, 81
2, 52832, Note_on_c, 0, 66, 0
2, 53348, Note_on_c, 0, 67, 0
2, 53776, Note_on_c, 0, 64, 100
2, 54248, Note_on_c, 0, 69, 91
2, 54272, Note_on_c, 0, 64, 0
2, 54768, Control_c, 0, 7, 96
2, 54860, Note_on_c, 0, 67, 75
2, 54884, Note_on_c, 0, 69, 0
2, 54980, Note_on_c, 0, 67, 0
2, 54980, Note_on_c, 0, 66, 76
2, 55100, Note_on_c, 0, 66, 0
2, 55100, Note_on_c, 0, 69, 72
2, 55220, Note_on_c, 0, 69, 0
2, 55220, Note_on_c, 0, 67, 91
2, 55340, Note_on_c, 0, 67, 0
2, 55340, Note_on_c, 0, 66, 69
2, 55460, Note_on_c, 0, 66, 0
2, 55460, Note_on_c, 0, 64, 85
2, 55580, Note_on_c, 0, 64, 0
2, 55580, Note_on_c, 0, 62, 90
2, 55700, Note_on_c, 0, 62, 0
2, 55712, Note_on_c, 0, 60, 93
2, 56172, Note_on_c, 0, 72, 119
2, 56180, Note_on_c, 0, 60, 0
2, 56776, Note_on_c, 0, 71, 78
2, 56796, Note_on_c, 0, 72, 0
2, 56896, Note_on_c, 0, 69, 62
2, 56916, Note_on_c, 0, 71, 0
2, 57000, Note_on_c, 0, 72, 86
2, 57008, Note_on_c, 0, 69, 0
2, 57120, Note_on_c, 0, 71, 83
2, 57140, Note_on_c, 0, 72, 0
2, 57240, Note_on_c, 0, 69, 69
2, 57260, Note_on_c, 0, 71, 0
2, 57372, Note_on_c, 0, 69, 0
2, 57372, Note_on_c, 0, 67, 82
2, 57488, Note_on_c, 0, 66, 86
2, 57496, Note_on_c, 0, 67, 0
2, 57620, Note_on_c, 0, 66, 0
2, 57620, Note_on_c, 0, 71, 88
2, 57860, Note_on_c, 0, 71, 0
2, 57860, Note_on_c, 0, 67, 88
2, 58100, Note_on_c, 0, 67, 0
2, 58108, Note_on_c, 0, 71, 102
2, 58348, Note_on_c, 0, 74, 89
2, 58368, Note_on_c, 0, 71, 0
2, 58576, Note_on_c, 0, 74, 0
2, 58584, Note_on_c, 0, 79, 111
2, 59048, Note_on_c, 0, 79, 0
2, 59056, Note_on_c, 0, 84, 104
2, 59660, Note_on_c, 0, 83, 65
2, 59680, Note_on_c, 0, 84, 0
2, 59776, Note_on_c, 0, 83, 0
2, 59780, Note_on_c, 0, 81, 88
2, 59904, Note_on_c, 0, 84, 83
2, 59912, Note_on_c, 0, 81, 0
2, 60016, Note_on_c, 0, 83, 85
2, 60040, Note_on_c, 0, 84, 0
2, 60132, Note_on_c, 0, 81, 75
2, 60144, Note_on_c, 0, 83, 0
2, 60248, Note_on_c, 0, 79, 77
2, 60252, Note_on_c, 0, 81, 0
2, 60368, Note_on_c, 0, 78, 88
2, 60384, Note_on_c, 0, 79, 0
2, 60500, Note_on_c, 0, 78, 0
2, 60508, Note_on_c, 0, 79, 71
2, 61056, Note_on_c, 0, 79, 0
2, 61920, End_track
3, 0, Start_track
3, 0, Title_t, "goldberg.mid"
3, 20, Note_on_c, 1, 71, 124
3, 32, Control_c, 1, 7, 107
3, 500, Note_on_c, 1, 71, 0
3, 500, Note_on_c, 1, 76, 124
3, 536, Note_on_c, 1, 74, 107
3, 552, Note_on_c, 1, 76, 0
3, 596, Note_on_c, 1, 76, 101
3, 608, Note_on_c, 1, 74, 0
3, 1224, Note_on_c, 1, 76, 0
3, 1224, Note_on_c, 1, 74, 92
3, 1332, Note_on_c, 1, 72, 101
3, 1356, Note_on_c, 1, 74, 0
3, 1448, Note_on_c, 1, 74, 97
3, 1468, Note_on_c, 1, 72, 0
3, 1560, Note_on_c, 1, 72, 102
3, 1584, Note_on_c, 1, 74, 0
3, 1684, Note_on_c, 1, 71, 96
3, 1688, Note_on_c, 1, 72, 0
3, 1800, Note_on_c, 1, 69, 88
3, 1808, Note_on_c, 1, 71, 0
3, 1928, Note_on_c, 1, 69, 0
3, 1940, Note_on_c, 1, 67, 91
3, 2420, Note_on_c, 1, 67, 0
3, 2660, Note_on_c, 1, 81, 75
3, 2892, Note_on_c, 1, 81, 0
3, 2908, Note_on_c, 1, 78, 75
3, 3140, Note_on_c, 1, 78, 0
3, 3140, Note_on_c, 1, 74, 106
3, 3380, Note_on_c, 1, 74, 0
3, 3988, Note_on_c, 1, 74, 101
3, 4092, Note_on_c, 1, 72, 93
3, 4112, Note_on_c, 1, 74, 0
3, 4212, Note_on_c, 1, 76, 109
3, 4220, Note_on_c, 1, 72, 0
3, 4332, Note_on_c, 1, 74, 109
3, 4348, Note_on_c, 1, 76, 0
3, 4568, Note_on_c, 1, 74, 0
3, 4580, Note_on_c, 1, 71, 119
3, 4940, Note_on_c, 1, 71, 0
3, 4940, Note_on_c, 1, 69, 96
3, 5052, Note_on_c, 1, 67, 98
3, 5072, Note_on_c, 1, 69, 0
3, 5168, Note_on_c, 1, 71, 104
3, 5180, Note_on_c, 1, 67, 0
3, 5288, Note_on_c, 1, 69, 107
3, 5304, Note_on_c, 1, 71, 0
3, 5524, Note_on_c, 1, 69, 0
3, 5524, Note_on_c, 1, 67, 115
3, 5892, Note_on_c, 1, 66, 106
3, 5924, Note_on_c, 1, 67, 0
3, 6008, Note_on_c, 1, 64, 92
3, 6028, Note_on_c, 1, 66, 0
3, 6128, Note_on_c, 1, 64, 0
3, 6128, Note_on_c, 1, 67, 106
3, 6248, Note_on_c, 1, 67, 0
3, 6252, Note_on_c, 1, 66, 119
3, 6740, Note_on_c, 1, 66, 0
3, 6740, Note_on_c, 1, 67, 96
3, 6980, Note_on_c, 1, 67, 0
3, 7692, Note_on_c, 1, 67, 107
3, 7808, Note_on_c, 1, 69, 100
3, 7824, Note_on_c, 1, 67, 0
3, 7928, Note_on_c, 1, 71, 95
3, 7940, Note_on_c, 1, 69, 0
3, 8040, Note_on_c, 1, 74, 82
3, 8048, Note_on_c, 1, 71, 0
3, 8160, Note_on_c, 1, 74, 0
3, 8172, Note_on_c, 1, 76, 117
3, 8772, Note_on_c, 1, 76, 0
3, 8784, Note_on_c, 1, 74, 95
3, 8904, Note_on_c, 1, 74, 0
3, 8904, Note_on_c, 1, 73, 90
3, 9012, Note_on_c, 1, 73, 0
3, 9020, Note_on_c, 1, 76, 104
3, 9140, Note_on_c, 1, 74, 93
3, 9156, Note_on_c, 1, 76, 0
3, 9260, Note_on_c, 1, 73, 104
3, 9276, Note_on_c, 1, 74, 0
3, 9372, Note_on_c, 1, 71, 92
3, 9392, Note_on_c, 1, 73, 0
3, 9492, Note_on_c, 1, 71, 0
3, 9492, Note_on_c, 1, 69, 91
3, 9612, Note_on_c, 1, 67, 98
3, 9624, Note_on_c, 1, 69, 0
3, 10332, Note_on_c, 1, 67, 0
3, 10344, Note_on_c, 1, 79, 117
3, 10580, Note_on_c, 1, 79, 0
3, 10588, Note_on_c, 1, 76, 119
3, 10812, Note_on_c, 1, 76, 0
3, 10820, Note_on_c, 1, 73, 110
3, 11060, Note_on_c, 1, 73, 0
3, 11652, Note_on_c, 1, 69, 97
3, 11768, Note_on_c, 1, 67, 98
3, 11788, Note_on_c, 1, 69, 0
3, 11880, Note_on_c, 1, 71, 95
3, 11884, Note_on_c, 1, 67, 0
3, 12000, Note_on_c, 1, 71, 0
3, 12004, Note_on_c, 1, 69, 101
3, 12252, Note_on_c, 1, 66, 99
3, 12268, Note_on_c, 1, 69, 0
3, 12624, Note_on_c, 1, 64, 91
3, 12632, Note_on_c, 1, 66, 0
3, 12732, Note_on_c, 1, 64, 0
3, 12740, Note_on_c, 1, 62, 91
3, 12852, Note_on_c, 1, 62, 0
3, 12852, Note_on_c, 1, 66, 81
3, 12972, Note_on_c, 1, 64, 93
3, 12980, Note_on_c, 1, 66, 0
3, 13224, Note_on_c, 1, 62, 91
3, 13232, Note_on_c, 1, 64, 0
3, 13580, Note_on_c, 1, 61, 99
3, 13596, Note_on_c, 1, 62, 0
3, 13700, Note_on_c, 1, 59, 72
3, 13716, Note_on_c, 1, 61, 0
3, 13808, Note_on_c, 1, 59, 0
3, 13808, Note_on_c, 1, 62, 84
3, 13928, Note_on_c, 1, 61, 86
3, 13940, Note_on_c, 1, 62, 0
3, 14420, Note_on_c, 1, 62, 83
3, 14444, Note_on_c, 1, 61, 0
3, 14660, Note_on_c, 1, 62, 0
3, 15380, Note_on_c, 1, 71, 126
3, 15852, Note_on_c, 1, 71, 0
3, 15852, Note_on_c, 1, 76, 117
3, 15900, Note_on_c, 1, 74, 107
3, 15908, Note_on_c, 1, 76, 0
3, 15960, Note_on_c, 1, 76, 106
3, 15964, Note_on_c, 1, 74, 0
3, 16568, Note_on_c, 1, 76, 0
3, 16588, Note_on_c, 1, 74, 100
3, 16688, Note_on_c, 1, 72, 96
3, 16712, Note_on_c, 1, 74, 0
3, 16812, Note_on_c, 1, 74, 100
3, 16828, Note_on_c, 1, 72, 0
3, 16928, Note_on_c, 1, 72, 104
3, 16948, Note_on_c, 1, 74, 0
3, 17044, Note_on_c, 1, 71, 93
3, 17048, Note_on_c, 1, 72, 0
3, 17168, Note_on_c, 1, 69, 84
3, 17180, Note_on_c, 1, 71, 0
3, 17292, Note_on_c, 1, 69, 0
3, 17292, Note_on_c, 1, 67, 97
3, 17988, Note_on_c, 1, 67, 0
3, 18012, Note_on_c, 1, 81, 121
3, 18248, Note_on_c, 1, 81, 0
3, 18248, Note_on_c, 1, 78, 92
3, 18488, Note_on_c, 1, 78, 0
3, 18500, Note_on_c, 1, 74, 106
3, 18740, Note_on_c, 1, 74, 0
3, 19344, Note_on_c, 1, 74, 93
3, 19448, Note_on_c, 1, 74, 0
3, 19464, Note_on_c, 1, 72, 90
3, 19584, Note_on_c, 1, 72, 0
3, 19584, Note_on_c, 1, 76, 83
3, 19704, Note_on_c, 1, 74, 84
3, 19724, Note_on_c, 1, 76, 0
3, 19948, Note_on_c, 1, 71, 83
3, 19952, Note_on_c, 1, 74, 0
3, 20300, Note_on_c, 1, 69, 83
3, 20324, Note_on_c, 1, 71, 0
3, 20420, Note_on_c, 1, 67, 83
3, 20440, Note_on_c, 1, 69, 0
3, 20540, Note_on_c, 1, 71, 84
3, 20560, Note_on_c, 1, 67, 0
3, 20652, Note_on_c, 1, 71, 0
3, 20660, Note_on_c, 1, 69, 98
3, 20900, Note_on_c, 1, 69, 0
3, 20900, Note_on_c, 1, 67, 104
3, 21260, Note_on_c, 1, 67, 0
3, 21260, Note_on_c, 1, 66, 98
3, 21380, Note_on_c, 1, 64, 94
3, 21396, Note_on_c, 1, 66, 0
3, 21496, Note_on_c, 1, 64, 0
3, 21500, Note_on_c, 1, 67, 94
3, 21616, Note_on_c, 1, 67, 0
3, 21620, Note_on_c, 1, 66, 95
3, 22100, Note_on_c, 1, 66, 0
3, 22100, Note_on_c, 1, 67, 98
3, 22340, Note_on_c, 1, 67, 0
3, 23064, Note_on_c, 1, 67, 95
3, 23184, Note_on_c, 1, 69, 86
3, 23212, Note_on_c, 1, 67, 0
3, 23304, Note_on_c, 1, 71, 89
3, 23324, Note_on_c, 1, 69, 0
3, 23412, Note_on_c, 1, 74, 83
3, 23424, Note_on_c, 1, 71, 0
3, 23528, Note_on_c, 1, 74, 0
3, 23548, Note_on_c, 1, 76, 113
3, 24144, Note_on_c, 1, 74, 74
3, 24152, Note_on_c, 1, 76, 0
3, 24260, Note_on_c, 1, 73, 82
3, 24264, Note_on_c, 1, 74, 0
3, 24380, Note_on_c, 1, 76, 92
3, 24384, Note_on_c, 1, 73, 0
3, 24504, Note_on_c, 1, 74, 91
3, 24516, Note_on_c, 1, 76, 0
3, 24620, Note_on_c, 1, 73, 94
3, 24644, Note_on_c, 1, 74, 0
3, 24740, Note_on_c, 1, 71, 89
3, 24752, Note_on_c, 1, 73, 0
3, 24848, Note_on_c, 1, 69, 80
3, 24860, Note_on_c, 1, 71, 0
3, 24980, Note_on_c, 1, 67, 83
3, 24988, Note_on_c, 1, 69, 0
3, 25460, Note_on_c, 1, 67, 0
3, 25692, Note_on_c, 1, 79, 109
3, 25932, Note_on_c, 1, 76, 85
3, 25964, Note_on_c, 1, 79, 0
3, 26180, Note_on_c, 1, 73, 99
3, 26184, Note_on_c, 1, 76, 0
3, 26420, Note_on_c, 1, 73, 0
3, 27020, Note_on_c, 1, 69, 89
3, 27132, Note_on_c, 1, 69, 0
3, 27132, Note_on_c, 1, 67, 77
3, 27248, Note_on_c, 1, 71, 90
3, 27268, Note_on_c, 1, 67, 0
3, 27372, Note_on_c, 1, 69, 96
3, 27380, Note_on_c, 1, 71, 0
3, 27604, Note_on_c, 1, 69, 0
3, 27604, Note_on_c, 1, 66, 93
3, 27980, Note_on_c, 1, 64, 95
3, 27992, Note_on_c, 1, 66, 0
3, 28092, Note_on_c, 1, 64, 0
3, 28100, Note_on_c, 1, 62, 88
3, 28208, Note_on_c, 1, 66, 92
3, 28220, Note_on_c, 1, 62, 0
3, 28332, Note_on_c, 1, 64, 98
3, 28340, Note_on_c, 1, 66, 0
3, 28568, Note_on_c, 1, 62, 101
3, 28580, Note_on_c, 1, 64, 0
3, 28932, Note_on_c, 1, 61, 99
3, 28964, Note_on_c, 1, 62, 0
3, 29048, Note_on_c, 1, 59, 85
3, 29072, Note_on_c, 1, 61, 0
3, 29168, Note_on_c, 1, 59, 0
3, 29168, Note_on_c, 1, 62, 98
3, 29300, Note_on_c, 1, 62, 0
3, 29300, Note_on_c, 1, 61, 104
3, 29780, Note_on_c, 1, 61, 0
3, 29780, Note_on_c, 1, 62, 96
3, 30260, Note_on_c, 1, 62, 0
3, 30860, Note_on_c, 1, 78, 96
3, 30976, Note_on_c, 1, 78, 0
3, 30980, Note_on_c, 1, 76, 84
3, 31096, Note_on_c, 1, 76, 0
3, 31100, Note_on_c, 1, 79, 90
3, 31216, Note_on_c, 1, 79, 0
3, 31220, Note_on_c, 1, 78, 96
3, 31336, Note_on_c, 1, 78, 0
3, 31340, Note_on_c, 1, 76, 84
3, 31456, Note_on_c, 1, 76, 0
3, 31460, Note_on_c, 1, 74, 82
3, 31576, Note_on_c, 1, 74, 0
3, 31580, Note_on_c, 1, 73, 90
3, 31696, Note_on_c, 1, 73, 0
3, 31700, Note_on_c, 1, 74, 86
3, 32416, Note_on_c, 1, 74, 0
3, 32420, Note_on_c, 1, 71, 82
3, 32656, Note_on_c, 1, 71, 0
3, 32660, Note_on_c, 1, 67, 85
3, 32896, Note_on_c, 1, 67, 0
3, 32900, Note_on_c, 1, 64, 97
3, 33136, Note_on_c, 1, 64, 0
3, 33140, Note_on_c, 1, 69, 89
3, 33736, Note_on_c, 1, 69, 0
3, 33740, Note_on_c, 1, 67, 89
3, 33856, Note_on_c, 1, 67, 0
3, 33860, Note_on_c, 1, 66, 94
3, 33976, Note_on_c, 1, 66, 0
3, 33980, Note_on_c, 1, 69, 102
3, 34096, Note_on_c, 1, 69, 0
3, 34100, Note_on_c, 1, 67, 96
3, 34216, Note_on_c, 1, 67, 0
3, 34220, Note_on_c, 1, 66, 93
3, 34336, Note_on_c, 1, 66, 0
3, 34340, Note_on_c, 1, 64, 97
3, 34456, Note_on_c, 1, 64, 0
3, 34460, Note_on_c, 1, 63, 101
3, 34576, Note_on_c, 1, 63, 0
3, 34580, Note_on_c, 1, 64, 109
3, 34696, Note_on_c, 1, 64, 0
3, 34700, Note_on_c, 1, 71, 111
3, 34816, Note_on_c, 1, 71, 0
3, 34820, Note_on_c, 1, 69, 101
3, 34936, Note_on_c, 1, 69, 0
3, 34940, Note_on_c, 1, 72, 104
3, 35056, Note_on_c, 1, 72, 0
3, 35060, Note_on_c, 1, 71, 100
3, 35296, Note_on_c, 1, 71, 0
3, 35300, Note_on_c, 1, 67, 95
3, 35656, Note_on_c, 1, 67, 0
3, 35660, Note_on_c, 1, 66, 99
3, 35776, Note_on_c, 1, 66, 0
3, 35780, Note_on_c, 1, 64, 104
3, 35896, Note_on_c, 1, 64, 0
3, 35900, Note_on_c, 1, 67, 96
3, 36016, Note_on_c, 1, 67, 0
3, 36020, Note_on_c, 1, 66, 104
3, 36256, Note_on_c, 1, 66, 0
3, 36260, Note_on_c, 1, 64, 111
3, 36616, Note_on_c, 1, 64, 0
3, 36620, Note_on_c, 1, 63, 106
3, 36736, Note_on_c, 1, 63, 0
3, 36740, Note_on_c, 1, 61, 106
3, 36856, Note_on_c, 1, 61, 0
3, 36860, Note_on_c, 1, 64, 101
3, 36976, Note_on_c, 1, 64, 0
3, 36980, Note_on_c, 1, 63, 106
3, 37456, Note_on_c, 1, 63, 0
3, 37460, Note_on_c, 1, 64, 121
3, 37936, Note_on_c, 1, 64, 0
3, 37940, Note_on_c, 1, 71, 121
3, 38536, Note_on_c, 1, 71, 0
3, 38540, Note_on_c, 1, 69, 97
3, 38656, Note_on_c, 1, 69, 0
3, 38660, Note_on_c, 1, 67, 97
3, 38776, Note_on_c, 1, 67, 0
3, 38780, Note_on_c, 1, 71, 100
3, 38896, Note_on_c, 1, 71, 0
3, 38900, Note_on_c, 1, 69, 107
3, 39016, Note_on_c, 1, 69, 0
3, 39020, Note_on_c, 1, 67, 81
3, 39136, Note_on_c, 1, 67, 0
3, 39140, Note_on_c, 1, 66, 121
3, 39256, Note_on_c, 1, 66, 0
3, 39260, Note_on_c, 1, 64, 106
3, 39376, Note_on_c, 1, 64, 0
3, 39380, Note_on_c, 1, 62, 113
3, 39856, Note_on_c, 1, 62, 0
3, 39860, Note_on_c, 1, 67, 106
3, 40456, Note_on_c, 1, 67, 0
3, 40460, Note_on_c, 1, 66, 106
3, 40576, Note_on_c, 1, 66, 0
3, 40580, Note_on_c, 1, 64, 96
3, 40696, Note_on_c, 1, 64, 0
3, 40700, Note_on_c, 1, 67, 104
3, 40816, Note_on_c, 1, 67, 0
3, 40820, Note_on_c, 1, 66, 106
3, 40936, Note_on_c, 1, 66, 0
3, 40940, Note_on_c, 1, 64, 97
3, 41056, Note_on_c, 1, 64, 0
3, 41060, Note_on_c, 1, 62, 97
3, 41176, Note_on_c, 1, 62, 0
3, 41180, Note_on_c, 1, 60, 107
3, 41296, Note_on_c, 1, 60, 0
3, 41300, Note_on_c, 1, 62, 107
3, 42256, Note_on_c, 1, 62, 0
3, 42260, Note_on_c, 1, 74, 93
3, 42736, Note_on_c, 1, 74, 0
3, 42740, Note_on_c, 1, 77, 107
3, 43336, Note_on_c, 1, 77, 0
3, 43340, Note_on_c, 1, 76, 113
3, 43456, Note_on_c, 1, 76, 0
3, 43460, Note_on_c, 1, 74, 100
3, 43576, Note_on_c, 1, 74, 0
3, 43580, Note_on_c, 1, 77, 98
3, 43696, Note_on_c, 1, 77, 0
3, 43700, Note_on_c, 1, 76, 100
3, 43816, Note_on_c, 1, 76, 0
3, 43820, Note_on_c, 1, 79, 104
3, 43936, Note_on_c, 1, 79, 0
3, 43940, Note_on_c, 1, 78, 108
3, 44056, Note_on_c, 1, 78, 0
3, 44060, Note_on_c, 1, 79, 104
3, 44176, Note_on_c, 1, 79, 0
3, 44180, Note_on_c, 1, 81, 106
3, 44416, Note_on_c, 1, 81, 0
3, 44420, Note_on_c, 1, 74, 102
3, 44656, Note_on_c, 1, 74, 0
3, 44660, Note_on_c, 1, 74, 95
3, 44776, Note_on_c, 1, 74, 0
3, 44780, Note_on_c, 1, 72, 109
3, 44896, Note_on_c, 1, 72, 0
3, 44900, Note_on_c, 1, 71, 95
3, 45016, Note_on_c, 1, 71, 0
3, 45020, Note_on_c, 1, 69, 83
3, 45136, Note_on_c, 1, 69, 0
3, 45140, Note_on_c, 1, 71, 98
3, 45620, Note_on_c, 1, 71, 0
3, 46220, Note_on_c, 1, 78, 97
3, 46336, Note_on_c, 1, 78, 0
3, 46340, Note_on_c, 1, 76, 84
3, 46456, Note_on_c, 1, 76, 0
3, 46460, Note_on_c, 1, 79, 91
3, 46576, Note_on_c, 1, 79, 0
3, 46580, Note_on_c, 1, 78, 93
3, 46696, Note_on_c, 1, 78, 0
3, 46700, Note_on_c, 1, 76, 88
3, 46816, Note_on_c, 1, 76, 0
3, 46820, Note_on_c, 1, 74, 90
3, 46936, Note_on_c, 1, 74, 0
3, 46940, Note_on_c, 1, 73, 92
3, 47056, Note_on_c, 1, 73, 0
3, 47060, Note_on_c, 1, 74, 97
3, 47536, Note_on_c, 1, 74, 0
3, 47780, Note_on_c, 1, 71, 109
3, 48016, Note_on_c, 1, 71, 0
3, 48020, Note_on_c, 1, 67, 106
3, 48256, Note_on_c, 1, 67, 0
3, 48260, Note_on_c, 1, 64, 100
3, 48496, Note_on_c, 1, 64, 0
3, 48500, Note_on_c, 1, 69, 97
3, 49096, Note_on_c, 1, 69, 0
3, 49100, Note_on_c, 1, 67, 97
3, 49216, Note_on_c, 1, 67, 0
3, 49220, Note_on_c, 1, 66, 92
3, 49336, Note_on_c, 1, 66, 0
3, 49340, Note_on_c, 1, 69, 91
3, 49456, Note_on_c, 1, 69, 0
3, 49460, Note_on_c, 1, 67, 97
3, 49576, Note_on_c, 1, 67, 0
3, 49580, Note_on_c, 1, 66, 90
3, 49696, Note_on_c, 1, 66, 0
3, 49700, Note_on_c, 1, 64, 97
3, 49816, Note_on_c, 1, 64, 0
3, 49820, Note_on_c, 1, 63, 101
3, 49936, Note_on_c, 1, 63, 0
3, 49940, Note_on_c, 1, 64, 111
3, 50056, Note_on_c, 1, 64, 0
3, 50060, Note_on_c, 1, 71, 97
3, 50176, Note_on_c, 1, 71, 0
3, 50180, Note_on_c, 1, 69, 98
3, 50296, Note_on_c, 1, 69, 0
3, 50300, Note_on_c, 1, 72, 101
3, 50416, Note_on_c, 1, 72, 0
3, 50420, Note_on_c, 1, 71, 97
3, 50660, Note_on_c, 1, 71, 0
3, 50660, Note_on_c, 1, 67, 92
3, 51020, Note_on_c, 1, 67, 0
3, 51020, Note_on_c, 1, 66, 93
3, 51140, Note_on_c, 1, 66, 0
3, 51140, Note_on_c, 1, 64, 63
3, 51260, Note_on_c, 1, 64, 0
3, 51260, Note_on_c, 1, 67, 89
3, 51380, Note_on_c, 1, 67, 0
3, 51380, Note_on_c, 1, 66, 77
3, 51616, Note_on_c, 1, 66, 0
3, 51620, Note_on_c, 1, 64, 104
3, 51976, Note_on_c, 1, 64, 0
3, 51980, Note_on_c, 1, 63, 101
3, 52096, Note_on_c, 1, 63, 0
3, 52100, Note_on_c, 1, 61, 108
3, 52216, Note_on_c, 1, 61, 0
3, 52220, Note_on_c, 1, 64, 98
3, 52336, Note_on_c, 1, 64, 0
3, 52340, Note_on_c, 1, 63, 106
3, 52816, Note_on_c, 1, 63, 0
3, 52820, Note_on_c, 1, 64, 123
3, 53296, Note_on_c, 1, 64, 0
3, 53300, Note_on_c, 1, 71, 124
3, 53896, Note_on_c, 1, 71, 0
3, 53900, Note_on_c, 1, 69, 98
3, 54016, Note_on_c, 1, 69, 0
3, 54020, Note_on_c, 1, 67, 97
3, 54136, Note_on_c, 1, 67, 0
3, 54140, Note_on_c, 1, 71, 95
3, 54256, Note_on_c, 1, 71, 0
3, 54260, Note_on_c, 1, 69, 92
3, 54376, Note_on_c, 1, 69, 0
3, 54380, Note_on_c, 1, 67, 81
3, 54496, Note_on_c, 1, 67, 0
3, 54500, Note_on_c, 1, 66, 96
3, 54616, Note_on_c, 1, 66, 0
3, 54620, Note_on_c, 1, 64, 93
3, 54736, Note_on_c, 1, 64, 0
3, 54740, Note_on_c, 1, 62, 104
3, 54784, Control_c, 1, 7, 104
3, 55216, Note_on_c, 1, 62, 0
3, 55220, Note_on_c, 1, 67, 101
3, 55816, Note_on_c, 1, 67, 0
3, 55820, Note_on_c, 1, 66, 110
3, 55936, Note_on_c, 1, 66, 0
3, 55940, Note_on_c, 1, 64, 96
3, 56056, Note_on_c, 1, 64, 0
3, 56060, Note_on_c, 1, 67, 95
3, 56176, Note_on_c, 1, 67, 0
3, 56180, Note_on_c, 1, 66, 106
3, 56296, Note_on_c, 1, 66, 0
3, 56300, Note_on_c, 1, 64, 98
3, 56416, Note_on_c, 1, 64, 0
3, 56420, Note_on_c, 1, 62, 91
3, 56536, Note_on_c, 1, 62, 0
3, 56540, Note_on_c, 1, 60, 102
3, 56656, Note_on_c, 1, 60, 0
3, 56660, Note_on_c, 1, 62, 106
3, 57376, Note_on_c, 1, 62, 0
3, 57620, Note_on_c, 1, 74, 106
3, 58096, Note_on_c, 1, 74, 0
3, 58100, Note_on_c, 1, 77, 113
3, 58696, Note_on_c, 1, 77, 0
3, 58700, Note_on_c, 1, 76, 109
3, 58816, Note_on_c, 1, 76, 0
3, 58820, Note_on_c, 1, 74, 97
3, 58936, Note_on_c, 1, 74, 0
3, 58940, Note_on_c, 1, 77, 96
3, 59056, Note_on_c, 1, 77, 0
3, 59060, Note_on_c, 1, 76, 97
3, 59176, Note_on_c, 1, 76, 0
3, 59180, Note_on_c, 1, 79, 100
3, 59296, Note_on_c, 1, 79, 0
3, 59300, Note_on_c, 1, 78, 92
3, 59416, Note_on_c, 1, 78, 0
3, 59420, Note_on_c, 1, 79, 102
3, 59536, Note_on_c, 1, 79, 0
3, 59540, Note_on_c, 1, 81, 119
3, 59776, Note_on_c, 1, 81, 0
3, 59780, Note_on_c, 1, 74, 107
3, 60016, Note_on_c, 1, 74, 0
3, 60020, Note_on_c, 1, 74, 111
3, 60136, Note_on_c, 1, 74, 0
3, 60140, Note_on_c, 1, 72, 109
3, 60256, Note_on_c, 1, 72, 0
3, 60260, Note_on_c, 1, 71, 100
3, 60376, Note_on_c, 1, 71, 0
3, 60380, Note_on_c, 1, 69, 88
3, 60496, Note_on_c, 1, 69, 0
3, 60500, Note_on_c, 1, 71, 80
3, 60980, Note_on_c, 1, 71, 0
3, 61920, End_track
4, 0, Start_track
4, 0, Title_t, "goldberg.mid"
4, 20, Note_on_c, 3, 55, 85
4, 48, Control_c, 3, 7, 118
4, 256, Note_on_c, 3, 55, 0
4, 260, Note_on_c, 3, 54, 99
4, 496, Note_on_c, 3, 54, 0
4, 500, Note_on_c, 3, 55, 80
4, 736, Note_on_c, 3, 55, 0
4, 740, Note_on_c, 3, 52, 93
4, 976, Note_on_c, 3, 52, 0
4, 980, Note_on_c, 3, 54, 88
4, 1216, Note_on_c, 3, 54, 0
4, 1220, Note_on_c, 3, 52, 83
4, 1456, Note_on_c, 3, 52, 0
4, 1460, Note_on_c, 3, 54, 90
4, 1696, Note_on_c, 3, 54, 0
4, 1700, Note_on_c, 3, 50, 73
4, 1936, Note_on_c, 3, 50, 0
4, 1940, Note_on_c, 3, 52, 95
4, 2176, Note_on_c, 3, 52, 0
4, 2180, Note_on_c, 3, 50, 73
4, 2416, Note_on_c, 3, 50, 0
4, 2420, Note_on_c, 3, 52, 81
4, 2656, Note_on_c, 3, 52, 0
4, 2660, Note_on_c, 3, 48, 89
4, 2896, Note_on_c, 3, 48, 0
4, 2900, Note_on_c, 3, 50, 66
4, 3136, Note_on_c, 3, 50, 0
4, 3140, Note_on_c, 3, 38, 77
4, 3376, Note_on_c, 3, 38, 0
4, 3380, Note_on_c, 3, 50, 81
4, 3496, Note_on_c, 3, 50, 0
4, 3500, Note_on_c, 3, 48, 76
4, 3616, Note_on_c, 3, 48, 0
4, 3620, Note_on_c, 3, 47, 69
4, 3736, Note_on_c, 3, 47, 0
4, 3740, Note_on_c, 3, 45, 55
4, 3856, Note_on_c, 3, 45, 0
4, 3860, Note_on_c, 3, 47, 84
4, 4096, Note_on_c, 3, 47, 0
4, 4100, Note_on_c, 3, 45, 64
4, 4336, Note_on_c, 3, 45, 0
4, 4340, Note_on_c, 3, 47, 78
4, 4576, Note_on_c, 3, 47, 0
4, 4580, Note_on_c, 3, 43, 76
4, 4816, Note_on_c, 3, 43, 0
4, 4820, Note_on_c, 3, 48, 83
4, 5056, Note_on_c, 3, 48, 0
4, 5060, Note_on_c, 3, 47, 74
4, 5296, Note_on_c, 3, 47, 0
4, 5300, Note_on_c, 3, 48, 81
4, 5536, Note_on_c, 3, 48, 0
4, 5540, Note_on_c, 3, 45, 81
4, 5776, Note_on_c, 3, 45, 0
4, 5780, Note_on_c, 3, 50, 85
4, 6016, Note_on_c, 3, 50, 0
4, 6020, Note_on_c, 3, 48, 74
4, 6256, Note_on_c, 3, 48, 0
4, 6260, Note_on_c, 3, 50, 91
4, 6496, Note_on_c, 3, 50, 0
4, 6500, Note_on_c, 3, 38, 88
4, 6736, Note_on_c, 3, 38, 0
4, 6740, Note_on_c, 3, 43, 45
4, 6980, Note_on_c, 3, 43, 0
4, 6980, Note_on_c, 3, 55, 89
4, 7216, Note_on_c, 3, 55, 0
4, 7220, Note_on_c, 3, 59, 55
4, 7456, Note_on_c, 3, 59, 0
4, 7460, Note_on_c, 3, 62, 93
4, 7700, Note_on_c, 3, 62, 0
4, 7700, Note_on_c, 3, 67, 102
4, 7936, Note_on_c, 3, 67, 0
4, 7940, Note_on_c, 3, 66, 84
4, 8176, Note_on_c, 3, 66, 0
4, 8180, Note_on_c, 3, 67, 75
4, 8416, Note_on_c, 3, 67, 0
4, 8420, Note_on_c, 3, 64, 73
4, 8656, Note_on_c, 3, 64, 0
4, 8660, Note_on_c, 3, 66, 99
4, 8896, Note_on_c, 3, 66, 0
4, 8900, Note_on_c, 3, 64, 81
4, 9136, Note_on_c, 3, 64, 0
4, 9140, Note_on_c, 3, 66, 84
4, 9376, Note_on_c, 3, 66, 0
4, 9380, Note_on_c, 3, 62, 85
4, 9616, Note_on_c, 3, 62, 0
4, 9620, Note_on_c, 3, 64, 85
4, 9856, Note_on_c, 3, 64, 0
4, 9860, Note_on_c, 3, 62, 81
4, 10096, Note_on_c, 3, 62, 0
4, 10100, Note_on_c, 3, 64, 85
4, 10336, Note_on_c, 3, 64, 0
4, 10340, Note_on_c, 3, 59, 90
4, 10576, Note_on_c, 3, 59, 0
4, 10580, Note_on_c, 3, 61, 96
4, 10820, Note_on_c, 3, 61, 0
4, 10820, Note_on_c, 3, 64, 93
4, 10936, Note_on_c, 3, 64, 0
4, 10940, Note_on_c, 3, 62, 70
4, 11056, Note_on_c, 3, 62, 0
4, 11060, Note_on_c, 3, 61, 90
4, 11176, Note_on_c, 3, 61, 0
4, 11180, Note_on_c, 3, 59, 83
4, 11296, Note_on_c, 3, 59, 0
4, 11300, Note_on_c, 3, 57, 71
4, 11416, Note_on_c, 3, 57, 0
4, 11420, Note_on_c, 3, 55, 78
4, 11536, Note_on_c, 3, 55, 0
4, 11540, Note_on_c, 3, 54, 101
4, 11776, Note_on_c, 3, 54, 0
4, 11780, Note_on_c, 3, 52, 91
4, 12016, Note_on_c, 3, 52, 0
4, 12020, Note_on_c, 3, 54, 93
4, 12256, Note_on_c, 3, 54, 0
4, 12260, Note_on_c, 3, 50, 83
4, 12496, Note_on_c, 3, 50, 0
4, 12500, Note_on_c, 3, 55, 59
4, 12736, Note_on_c, 3, 55, 0
4, 12740, Note_on_c, 3, 54, 82
4, 12976, Note_on_c, 3, 54, 0
4, 12980, Note_on_c, 3, 55, 60
4, 13216, Note_on_c, 3, 55, 0
4, 13220, Note_on_c, 3, 52, 63
4, 13456, Note_on_c, 3, 52, 0
4, 13460, Note_on_c, 3, 57, 64
4, 13696, Note_on_c, 3, 57, 0
4, 13700, Note_on_c, 3, 55, 73
4, 13936, Note_on_c, 3, 55, 0
4, 13940, Note_on_c, 3, 57, 10
4, 14176, Note_on_c, 3, 57, 0
4, 14180, Note_on_c, 3, 45, 46
4, 14416, Note_on_c, 3, 45, 0
4, 14420, Note_on_c, 3, 50, 81
4, 14660, Note_on_c, 3, 50, 0
4, 14660, Note_on_c, 3, 62, 81
4, 14776, Note_on_c, 3, 62, 0
4, 14780, Note_on_c, 3, 60, 73
4, 14896, Note_on_c, 3, 60, 0
4, 14900, Note_on_c, 3, 62, 81
4, 15016, Note_on_c, 3, 62, 0
4, 15020, Note_on_c, 3, 60, 77
4, 15136, Note_on_c, 3, 60, 0
4, 15140, Note_on_c, 3, 59, 69
4, 15256, Note_on_c, 3, 59, 0
4, 15260, Note_on_c, 3, 57, 76
4, 15376, Note_on_c, 3, 57, 0
4, 15380, Note_on_c, 3, 55, 76
4, 15616, Note_on_c, 3, 55, 0
4, 15620, Note_on_c, 3, 54, 82
4, 15856, Note_on_c, 3, 54, 0
4, 15860, Note_on_c, 3, 55, 62
4, 16096, Note_on_c, 3, 55, 0
4, 16100, Note_on_c, 3, 52, 76
4, 16336, Note_on_c, 3, 52, 0
4, 16340, Note_on_c, 3, 54, 77
4, 16576, Note_on_c, 3, 54, 0
4, 16580, Note_on_c, 3, 52, 67
4, 16816, Note_on_c, 3, 52, 0
4, 16820, Note_on_c, 3, 54, 90
4, 17056, Note_on_c, 3, 54, 0
4, 17060, Note_on_c, 3, 50, 81
4, 17296, Note_on_c, 3, 50, 0
4, 17300, Note_on_c, 3, 52, 93
4, 17536, Note_on_c, 3, 52, 0
4, 17540, Note_on_c, 3, 50, 88
4, 17776, Note_on_c, 3, 50, 0
4, 17780, Note_on_c, 3, 52, 82
4, 18016, Note_on_c, 3, 52, 0
4, 18020, Note_on_c, 3, 48, 89
4, 18256, Note_on_c, 3, 48, 0
4, 18260, Note_on_c, 3, 50, 97
4, 18496, Note_on_c, 3, 50, 0
4, 18500, Note_on_c, 3, 38, 93
4, 18736, Note_on_c, 3, 38, 0
4, 18740, Note_on_c, 3, 50, 109
4, 18856, Note_on_c, 3, 50, 0
4, 18860, Note_on_c, 3, 48, 106
4, 18976, Note_on_c, 3, 48, 0
4, 18980, Note_on_c, 3, 47, 117
4, 19096, Note_on_c, 3, 47, 0
4, 19100, Note_on_c, 3, 45, 106
4, 19216, Note_on_c, 3, 45, 0
4, 19220, Note_on_c, 3, 47, 96
4, 19456, Note_on_c, 3, 47, 0
4, 19460, Note_on_c, 3, 45, 71
4, 19696, Note_on_c, 3, 45, 0
4, 19700, Note_on_c, 3, 47, 76
4, 19936, Note_on_c, 3, 47, 0
4, 19940, Note_on_c, 3, 43, 66
4, 20176, Note_on_c, 3, 43, 0
4, 20180, Note_on_c, 3, 48, 83
4, 20416, Note_on_c, 3, 48, 0
4, 20420, Note_on_c, 3, 47, 81
4, 20656, Note_on_c, 3, 47, 0
4, 20660, Note_on_c, 3, 48, 76
4, 20896, Note_on_c, 3, 48, 0
4, 20900, Note_on_c, 3, 45, 85
4, 21136, Note_on_c, 3, 45, 0
4, 21140, Note_on_c, 3, 50, 86
4, 21376, Note_on_c, 3, 50, 0
4, 21380, Note_on_c, 3, 48, 85
4, 21616, Note_on_c, 3, 48, 0
4, 21620, Note_on_c, 3, 50, 77
4, 21856, Note_on_c, 3, 50, 0
4, 21860, Note_on_c, 3, 38, 81
4, 22096, Note_on_c, 3, 38, 0
4, 22100, Note_on_c, 3, 43, 91
4, 22336, Note_on_c, 3, 43, 0
4, 22340, Note_on_c, 3, 55, 119
4, 22576, Note_on_c, 3, 55, 0
4, 22580, Note_on_c, 3, 59, 84
4, 22820, Note_on_c, 3, 59, 0
4, 22820, Note_on_c, 3, 62, 80
4, 23060, Note_on_c, 3, 62, 0
4, 23060, Note_on_c, 3, 67, 88
4, 23296, Note_on_c, 3, 67, 0
4, 23300, Note_on_c, 3, 66, 88
4, 23536, Note_on_c, 3, 66, 0
4, 23540, Note_on_c, 3, 67, 76
4, 23776, Note_on_c, 3, 67, 0
4, 23780, Note_on_c, 3, 64, 48
4, 24016, Note_on_c, 3, 64, 0
4, 24020, Note_on_c, 3, 66, 75
4, 24256, Note_on_c, 3, 66, 0
4, 24260, Note_on_c, 3, 64, 74
4, 24496, Note_on_c, 3, 64, 0
4, 24500, Note_on_c, 3, 66, 67
4, 24736, Note_on_c, 3, 66, 0
4, 24740, Note_on_c, 3, 62, 71
4, 24976, Note_on_c, 3, 62, 0
4, 24980, Note_on_c, 3, 64, 84
4, 25216, Note_on_c, 3, 64, 0
4, 25220, Note_on_c, 3, 62, 80
4, 25456, Note_on_c, 3, 62, 0
4, 25460, Note_on_c, 3, 64, 86
4, 25696, Note_on_c, 3, 64, 0
4, 25700, Note_on_c, 3, 59, 92
4, 25936, Note_on_c, 3, 59, 0
4, 25940, Note_on_c, 3, 61, 101
4, 26176, Note_on_c, 3, 61, 0
4, 26180, Note_on_c, 3, 64, 97
4, 26296, Note_on_c, 3, 64, 0
4, 26300, Note_on_c, 3, 62, 88
4, 26416, Note_on_c, 3, 62, 0
4, 26420, Note_on_c, 3, 61, 96
4, 26536, Note_on_c, 3, 61, 0
4, 26540, Note_on_c, 3, 59, 77
4, 26656, Note_on_c, 3, 59, 0
4, 26660, Note_on_c, 3, 57, 80
4, 26776, Note_on_c, 3, 57, 0
4, 26780, Note_on_c, 3, 55, 84
4, 26896, Note_on_c, 3, 55, 0
4, 26900, Note_on_c, 3, 54, 102
4, 27136, Note_on_c, 3, 54, 0
4, 27140, Note_on_c, 3, 52, 81
4, 27376, Note_on_c, 3, 52, 0
4, 27380, Note_on_c, 3, 54, 85
4, 27616, Note_on_c, 3, 54, 0
4, 27620, Note_on_c, 3, 50, 73
4, 27856, Note_on_c, 3, 50, 0
4, 27860, Note_on_c, 3, 55, 86
4, 28096, Note_on_c, 3, 55, 0
4, 28100, Note_on_c, 3, 54, 69
4, 28336, Note_on_c, 3, 54, 0
4, 28340, Note_on_c, 3, 55, 60
4, 28576, Note_on_c, 3, 55, 0
4, 28580, Note_on_c, 3, 52, 71
4, 28820, Note_on_c, 3, 52, 0
4, 28820, Note_on_c, 3, 57, 84
4, 29056, Note_on_c, 3, 57, 0
4, 29060, Note_on_c, 3, 55, 71
4, 29296, Note_on_c, 3, 55, 0
4, 29300, Note_on_c, 3, 57, 73
4, 29540, Note_on_c, 3, 57, 0
4, 29540, Note_on_c, 3, 45, 55
4, 29780, Note_on_c, 3, 45, 0
4, 29780, Note_on_c, 3, 50, 90
4, 30016, Note_on_c, 3, 50, 0
4, 30020, Note_on_c, 3, 45, 81
4, 30256, Note_on_c, 3, 45, 0
4, 30260, Note_on_c, 3, 38, 68
4, 30740, Note_on_c, 3, 38, 0
4, 30740, Note_on_c, 3, 62, 77
4, 30976, Note_on_c, 3, 62, 0
4, 30980, Note_on_c, 3, 61, 85
4, 31216, Note_on_c, 3, 61, 0
4, 31220, Note_on_c, 3, 62, 78
4, 31456, Note_on_c, 3, 62, 0
4, 31460, Note_on_c, 3, 57, 80
4, 31696, Note_on_c, 3, 57, 0
4, 31700, Note_on_c, 3, 59, 72
4, 31936, Note_on_c, 3, 59, 0
4, 31940, Note_on_c, 3, 57, 60
4, 32176, Note_on_c, 3, 57, 0
4, 32180, Note_on_c, 3, 59, 67
4, 32416, Note_on_c, 3, 59, 0
4, 32420, Note_on_c, 3, 55, 61
4, 32656, Note_on_c, 3, 55, 0
4, 32660, Note_on_c, 3, 60, 90
4, 32776, Note_on_c, 3, 60, 0
4, 32780, Note_on_c, 3, 48, 77
4, 32896, Note_on_c, 3, 48, 0
4, 32900, Note_on_c, 3, 47, 70
4, 33016, Note_on_c, 3, 47, 0
4, 33020, Note_on_c, 3, 50, 68
4, 33140, Note_on_c, 3, 50, 0
4, 33140, Note_on_c, 3, 48, 68
4, 33260, Note_on_c, 3, 48, 0
4, 33260, Note_on_c, 3, 47, 65
4, 33376, Note_on_c, 3, 47, 0
4, 33380, Note_on_c, 3, 45, 59
4, 33496, Note_on_c, 3, 45, 0
4, 33500, Note_on_c, 3, 48, 65
4, 33616, Note_on_c, 3, 48, 0
4, 33620, Note_on_c, 3, 47, 49
4, 33736, Note_on_c, 3, 47, 0
4, 33740, Note_on_c, 3, 59, 77
4, 33856, Note_on_c, 3, 59, 0
4, 33860, Note_on_c, 3, 57, 77
4, 33976, Note_on_c, 3, 57, 0
4, 33980, Note_on_c, 3, 60, 77
4, 34096, Note_on_c, 3, 60, 0
4, 34100, Note_on_c, 3, 59, 77
4, 34216, Note_on_c, 3, 59, 0
4, 34220, Note_on_c, 3, 57, 77
4, 34336, Note_on_c, 3, 57, 0
4, 34340, Note_on_c, 3, 55, 77
4, 34456, Note_on_c, 3, 55, 0
4, 34460, Note_on_c, 3, 54, 77
4, 34576, Note_on_c, 3, 54, 0
4, 34580, Note_on_c, 3, 55, 92
4, 34820, Note_on_c, 3, 55, 0
4, 34820, Note_on_c, 3, 54, 94
4, 35060, Note_on_c, 3, 54, 0
4, 35060, Note_on_c, 3, 55, 75
4, 35300, Note_on_c, 3, 55, 0
4, 35300, Note_on_c, 3, 52, 81
4, 35540, Note_on_c, 3, 52, 0
4, 35540, Note_on_c, 3, 57, 80
4, 35780, Note_on_c, 3, 57, 0
4, 35780, Note_on_c, 3, 55, 75
4, 36020, Note_on_c, 3, 55, 0
4, 36020, Note_on_c, 3, 57, 86
4, 36260, Note_on_c, 3, 57, 0
4, 36260, Note_on_c, 3, 54, 92
4, 36500, Note_on_c, 3, 54, 0
4, 36500, Note_on_c, 3, 59, 100
4, 36740, Note_on_c, 3, 59, 0
4, 36740, Note_on_c, 3, 58, 101
4, 36980, Note_on_c, 3, 58, 0
4, 36980, Note_on_c, 3, 59, 102
4, 37220, Note_on_c, 3, 59, 0
4, 37220, Note_on_c, 3, 47, 66
4, 37460, Note_on_c, 3, 47, 0
4, 37460, Note_on_c, 3, 40, 89
4, 37580, Note_on_c, 3, 40, 0
4, 37580, Note_on_c, 3, 52, 84
4, 37700, Note_on_c, 3, 52, 0
4, 37700, Note_on_c, 3, 51, 90
4, 37820, Note_on_c, 3, 51, 0
4, 37820, Note_on_c, 3, 54, 90
4, 37940, Note_on_c, 3, 54, 0
4, 37940, Note_on_c, 3, 52, 80
4, 38060, Note_on_c, 3, 52, 0
4, 38060, Note_on_c, 3, 50, 70
4, 38180, Note_on_c, 3, 50, 0
4, 38180, Note_on_c, 3, 48, 67
4, 38300, Note_on_c, 3, 48, 0
4, 38300, Note_on_c, 3, 47, 73
4, 38420, Note_on_c, 3, 47, 0
4, 38420, Note_on_c, 3, 48, 93
4, 38660, Note_on_c, 3, 48, 0
4, 38660, Note_on_c, 3, 47, 85
4, 38900, Note_on_c, 3, 47, 0
4, 38900, Note_on_c, 3, 48, 100
4, 39140, Note_on_c, 3, 48, 0
4, 39140, Note_on_c, 3, 57, 117
4, 39380, Note_on_c, 3, 57, 0
4, 39380, Note_on_c, 3, 47, 78
4, 39620, Note_on_c, 3, 47, 0
4, 39620, Note_on_c, 3, 45, 76
4, 39860, Note_on_c, 3, 45, 0
4, 39860, Note_on_c, 3, 47, 85
4, 40100, Note_on_c, 3, 47, 0
4, 40100, Note_on_c, 3, 55, 106
4, 40340, Note_on_c, 3, 55, 0
4, 40340, Note_on_c, 3, 45, 68
4, 40580, Note_on_c, 3, 45, 0
4, 40580, Note_on_c, 3, 43, 69
4, 40820, Note_on_c, 3, 43, 0
4, 40820, Note_on_c, 3, 45, 76
4, 41060, Note_on_c, 3, 45, 0
4, 41060, Note_on_c, 3, 55, 88
4, 41300, Note_on_c, 3, 55, 0
4, 41300, Note_on_c, 3, 54, 80
4, 41420, Note_on_c, 3, 54, 0
4, 41420, Note_on_c, 3, 50, 61
4, 41540, Note_on_c, 3, 50, 0
4, 41540, Note_on_c, 3, 48, 70
4, 41660, Note_on_c, 3, 48, 0
4, 41660, Note_on_c, 3, 52, 86
4, 41780, Note_on_c, 3, 52, 0
4, 41780, Note_on_c, 3, 50, 76
4, 41900, Note_on_c, 3, 50, 0
4, 41900, Note_on_c, 3, 48, 73
4, 42020, Note_on_c, 3, 48, 0
4, 42020, Note_on_c, 3, 47, 51
4, 42140, Note_on_c, 3, 47, 0
4, 42140, Note_on_c, 3, 45, 58
4, 42260, Note_on_c, 3, 45, 0
4, 42260, Note_on_c, 3, 43, 66
4, 42380, Note_on_c, 3, 43, 0
4, 42380, Note_on_c, 3, 55, 66
4, 42500, Note_on_c, 3, 55, 0
4, 42500, Note_on_c, 3, 53, 66
4, 42620, Note_on_c, 3, 53, 0
4, 42620, Note_on_c, 3, 57, 66
4, 42740, Note_on_c, 3, 57, 0
4, 42740, Note_on_c, 3, 55, 66
4, 42860, Note_on_c, 3, 55, 0
4, 42860, Note_on_c, 3, 53, 66
4, 42980, Note_on_c, 3, 53, 0
4, 42980, Note_on_c, 3, 52, 66
4, 43100, Note_on_c, 3, 52, 0
4, 43100, Note_on_c, 3, 50, 66
4, 43220, Note_on_c, 3, 50, 0
4, 43220, Note_on_c, 3, 48, 66
4, 43340, Note_on_c, 3, 48, 0
4, 43340, Note_on_c, 3, 60, 66
4, 43460, Note_on_c, 3, 60, 0
4, 43460, Note_on_c, 3, 59, 66
4, 43580, Note_on_c, 3, 59, 0
4, 43580, Note_on_c, 3, 62, 66
4, 43700, Note_on_c, 3, 62, 0
4, 43700, Note_on_c, 3, 60, 66
4, 43820, Note_on_c, 3, 60, 0
4, 43820, Note_on_c, 3, 59, 66
4, 43940, Note_on_c, 3, 59, 0
4, 43940, Note_on_c, 3, 57, 66
4, 44060, Note_on_c, 3, 57, 0
4, 44060, Note_on_c, 3, 55, 66
4, 44180, Note_on_c, 3, 55, 0
4, 44180, Note_on_c, 3, 54, 66
4, 44300, Note_on_c, 3, 54, 0
4, 44300, Note_on_c, 3, 55, 66
4, 44420, Note_on_c, 3, 55, 0
4, 44420, Note_on_c, 3, 54, 66
4, 44540, Note_on_c, 3, 54, 0
4, 44540, Note_on_c, 3, 57, 66
4, 44660, Note_on_c, 3, 57, 0
4, 44660, Note_on_c, 3, 50, 66
4, 44900, Note_on_c, 3, 50, 0
4, 44900, Note_on_c, 3, 54, 66
4, 45140, Note_on_c, 3, 54, 0
4, 45140, Note_on_c, 3, 43, 66
4, 45380, Note_on_c, 3, 43, 0
4, 45380, Note_on_c, 3, 55, 66
4, 45500, Note_on_c, 3, 55, 0
4, 45500, Note_on_c, 3, 54, 66
4, 45620, Note_on_c, 3, 54, 0
4, 45620, Note_on_c, 3, 55, 66
4, 45740, Note_on_c, 3, 55, 0
4, 45740, Note_on_c, 3, 57, 66
4, 45860, Note_on_c, 3, 57, 0
4, 45860, Note_on_c, 3, 59, 66
4, 45980, Note_on_c, 3, 59, 0
4, 45980, Note_on_c, 3, 60, 66
4, 46100, Note_on_c, 3, 60, 0
4, 46100, Note_on_c, 3, 62, 77
4, 46336, Note_on_c, 3, 62, 0
4, 46340, Note_on_c, 3, 61, 85
4, 46576, Note_on_c, 3, 61, 0
4, 46580, Note_on_c, 3, 62, 78
4, 46816, Note_on_c, 3, 62, 0
4, 46820, Note_on_c, 3, 57, 80
4, 47056, Note_on_c, 3, 57, 0
4, 47060, Note_on_c, 3, 59, 72
4, 47296, Note_on_c, 3, 59, 0
4, 47300, Note_on_c, 3, 57, 60
4, 47536, Note_on_c, 3, 57, 0
4, 47540, Note_on_c, 3, 59, 67
4, 47776, Note_on_c, 3, 59, 0
4, 47780, Note_on_c, 3, 55, 61
4, 48016, Note_on_c, 3, 55, 0
4, 48020, Note_on_c, 3, 60, 90
4, 48136, Note_on_c, 3, 60, 0
4, 48140, Note_on_c, 3, 48, 77
4, 48256, Note_on_c, 3, 48, 0
4, 48260, Note_on_c, 3, 47, 70
4, 48376, Note_on_c, 3, 47, 0
4, 48380, Note_on_c, 3, 50, 68
4, 48500, Note_on_c, 3, 50, 0
4, 48500, Note_on_c, 3, 48, 68
4, 48620, Note_on_c, 3, 48, 0
4, 48620, Note_on_c, 3, 47, 65
4, 48736, Note_on_c, 3, 47, 0
4, 48740, Note_on_c, 3, 45, 59
4, 48856, Note_on_c, 3, 45, 0
4, 48860, Note_on_c, 3, 48, 65
4, 48976, Note_on_c, 3, 48, 0
4, 48980, Note_on_c, 3, 47, 49
4, 49096, Note_on_c, 3, 47, 0
4, 49100, Note_on_c, 3, 59, 77
4, 49216, Note_on_c, 3, 59, 0
4, 49220, Note_on_c, 3, 57, 77
4, 49336, Note_on_c, 3, 57, 0
4, 49340, Note_on_c, 3, 60, 77
4, 49456, Note_on_c, 3, 60, 0
4, 49460, Note_on_c, 3, 59, 77
4, 49576, Note_on_c, 3, 59, 0
4, 49580, Note_on_c, 3, 57, 77
4, 49696, Note_on_c, 3, 57, 0
4, 49700, Note_on_c, 3, 55, 77
4, 49816, Note_on_c, 3, 55, 0
4, 49820, Note_on_c, 3, 54, 77
4, 49936, Note_on_c, 3, 54, 0
4, 49940, Note_on_c, 3, 55, 92
4, 50180, Note_on_c, 3, 55, 0
4, 50180, Note_on_c, 3, 54, 94
4, 50420, Note_on_c, 3, 54, 0
4, 50420, Note_on_c, 3, 55, 75
4, 50660, Note_on_c, 3, 55, 0
4, 50660, Note_on_c, 3, 52, 81
4, 50900, Note_on_c, 3, 52, 0
4, 50900, Note_on_c, 3, 57, 80
4, 51140, Note_on_c, 3, 57, 0
4, 51140, Note_on_c, 3, 55, 75
4, 51380, Note_on_c, 3, 55, 0
4, 51380, Note_on_c, 3, 57, 86
4, 51620, Note_on_c, 3, 57, 0
4, 51620, Note_on_c, 3, 54, 92
4, 51860, Note_on_c, 3, 54, 0
4, 51860, Note_on_c, 3, 59, 100
4, 52100, Note_on_c, 3, 59, 0
4, 52100, Note_on_c, 3, 58, 101
4, 52340, Note_on_c, 3, 58, 0
4, 52340, Note_on_c, 3, 59, 102
4, 52580, Note_on_c, 3, 59, 0
4, 52580, Note_on_c, 3, 47, 66
4, 52820, Note_on_c, 3, 47, 0
4, 52820, Note_on_c, 3, 40, 89
4, 52940, Note_on_c, 3, 40, 0
4, 52940, Note_on_c, 3, 52, 84
4, 53060, Note_on_c, 3, 52, 0
4, 53060, Note_on_c, 3, 51, 90
4, 53180, Note_on_c, 3, 51, 0
4, 53180, Note_on_c, 3, 54, 90
4, 53300, Note_on_c, 3, 54, 0
4, 53300, Note_on_c, 3, 52, 80
4, 53420, Note_on_c, 3, 52, 0
4, 53420, Note_on_c, 3, 50, 70
4, 53540, Note_on_c, 3, 50, 0
4, 53540, Note_on_c, 3, 48, 67
4, 53660, Note_on_c, 3, 48, 0
4, 53660, Note_on_c, 3, 47, 73
4, 53780, Note_on_c, 3, 47, 0
4, 53780, Note_on_c, 3, 48, 93
4, 54020, Note_on_c, 3, 48, 0
4, 54020, Note_on_c, 3, 47, 85
4, 54260, Note_on_c, 3, 47, 0
4, 54260, Note_on_c, 3, 48, 100
4, 54500, Note_on_c, 3, 48, 0
4, 54500, Note_on_c, 3, 57, 117
4, 54740, Note_on_c, 3, 57, 0
4, 54740, Note_on_c, 3, 47, 78
4, 54800, Control_c, 3, 7, 107
4, 54980, Note_on_c, 3, 47, 0
4, 54980, Note_on_c, 3, 45, 76
4, 55220, Note_on_c, 3, 45, 0
4, 55220, Note_on_c, 3, 47, 85
4, 55460, Note_on_c, 3, 47, 0
4, 55460, Note_on_c, 3, 55, 106
4, 55700, Note_on_c, 3, 55, 0
4, 55700, Note_on_c, 3, 45, 68
4, 55940, Note_on_c, 3, 45, 0
4, 55940, Note_on_c, 3, 43, 69
4, 56180, Note_on_c, 3, 43, 0
4, 56180, Note_on_c, 3, 45, 76
4, 56420, Note_on_c, 3, 45, 0
4, 56420, Note_on_c, 3, 55, 88
4, 56660, Note_on_c, 3, 55, 0
4, 56660, Note_on_c, 3, 54, 80
4, 56780, Note_on_c, 3, 54, 0
4, 56780, Note_on_c, 3, 50, 61
4, 56900, Note_on_c, 3, 50, 0
4, 56900, Note_on_c, 3, 48, 70
4, 57020, Note_on_c, 3, 48, 0
4, 57020, Note_on_c, 3, 52, 86
4, 57140, Note_on_c, 3, 52, 0
4, 57140, Note_on_c, 3, 50, 76
4, 57260, Note_on_c, 3, 50, 0
4, 57260, Note_on_c, 3, 48, 73
4, 57380, Note_on_c, 3, 48, 0
4, 57380, Note_on_c, 3, 47, 51
4, 57500, Note_on_c, 3, 47, 0
4, 57500, Note_on_c, 3, 45, 58
4, 57620, Note_on_c, 3, 45, 0
4, 57620, Note_on_c, 3, 43, 66
4, 57740, Note_on_c, 3, 43, 0
4, 57740, Note_on_c, 3, 55, 66
4, 57860, Note_on_c, 3, 55, 0
4, 57860, Note_on_c, 3, 53, 66
4, 57980, Note_on_c, 3, 53, 0
4, 57980, Note_on_c, 3, 57, 66
4, 58100, Note_on_c, 3, 57, 0
4, 58100, Note_on_c, 3, 55, 66
4, 58220, Note_on_c, 3, 55, 0
4, 58220, Note_on_c, 3, 53, 66
4, 58340, Note_on_c, 3, 53, 0
4, 58340, Note_on_c, 3, 52, 66
4, 58460, Note_on_c, 3, 52, 0
4, 58460, Note_on_c, 3, 50, 66
4, 58580, Note_on_c, 3, 50, 0
4, 58580, Note_on_c, 3, 48, 66
4, 58700, Note_on_c, 3, 48, 0
4, 58700, Note_on_c, 3, 60, 66
4, 58820, Note_on_c, 3, 60, 0
4, 58820, Note_on_c, 3, 59, 66
4, 58940, Note_on_c, 3, 59, 0
4, 58940, Note_on_c, 3, 62, 66
4, 59060, Note_on_c, 3, 62, 0
4, 59060, Note_on_c, 3, 60, 66
4, 59180, Note_on_c, 3, 60, 0
4, 59180, Note_on_c, 3, 59, 66
4, 59300, Note_on_c, 3, 59, 0
4, 59300, Note_on_c, 3, 57, 66
4, 59420, Note_on_c, 3, 57, 0
4, 59420, Note_on_c, 3, 55, 66
4, 59540, Note_on_c, 3, 55, 0
4, 59540, Note_on_c, 3, 54, 66
4, 59660, Note_on_c, 3, 54, 0
4, 59660, Note_on_c, 3, 55, 66
4, 59780, Note_on_c, 3, 55, 0
4, 59780, Note_on_c, 3, 54, 66
4, 59900, Note_on_c, 3, 54, 0
4, 59900, Note_on_c, 3, 57, 66
4, 60020, Note_on_c, 3, 57, 0
4, 60020, Note_on_c, 3, 50, 66
4, 60260, Note_on_c, 3, 50, 0
4, 60260, Note_on_c, 3, 54, 66
4, 60500, Note_on_c, 3, 54, 0
4, 60500, Note_on_c, 3, 55, 107
4, 60620, Note_on_c, 3, 55, 0
4, 60740, Note_on_c, 3, 50, 102
4, 60860, Note_on_c, 3, 50, 0
4, 60980, Note_on_c, 3, 43, 111
4, 61460, Note_on_c, 3, 43, 0
4, 61920, End_track
0, 0, End_of_file
