0, 0, Header, 1, 4, 480
1, 0, Start_track
1, 0, SMPTE_offset, 96, 0, 0, 0, 0
1, 0, Time_signature, 3, 2, 24, 8
1, 20, Tempo, 666666
1, 47520, End_track
2, 0, Start_track
2, 0, Title_t, "goldberg.mid"
2, 2892, Note_on_c, 0, 67, 101
2, 3612, Note_on_c, 0, 79, 102
2, 3628, Note_on_c, 0, 67, 0
2, 4588, Note_on_c, 0, 81, 100
2, 4616, Note_on_c, 0, 79, 0
2, 4704, Note_on_c, 0, 79, 86
2, 4728, Note_on_c, 0, 81, 0
2, 4828, Note_on_c, 0, 78, 90
2, 4836, Note_on_c, 0, 79, 0
2, 4944, Note_on_c, 0, 79, 88
2, 4964, Note_on_c, 0, 78, 0
2, 5060, Note_on_c, 0, 81, 97
2, 5076, Note_on_c, 0, 79, 0
2, 5300, Note_on_c, 0, 81, 0
2, 6012, Note_on_c, 0, 74, 96
2, 6140, Note_on_c, 0, 72, 90
2, 6148, Note_on_c, 0, 74, 0
2, 6260, Note_on_c, 0, 71, 75
2, 6272, Note_on_c, 0, 72, 0
2, 6364, Note_on_c, 0, 71, 0
2, 6368, Note_on_c, 0, 69, 58
2, 6500, Note_on_c, 0, 71, 81
2, 6508, Note_on_c, 0, 69, 0
2, 6740, Note_on_c, 0, 72, 86
2, 6752, Note_on_c, 0, 71, 0
2, 6860, Note_on_c, 0, 71, 97
2, 6876, Note_on_c, 0, 72, 0
2, 6984, Note_on_c, 0, 69, 78
2, 7004, Note_on_c, 0, 71, 0
2, 7100, Note_on_c, 0, 71, 73
2, 7112, Note_on_c, 0, 69, 0
2, 7220, Note_on_c, 0, 67, 90
2, 7228, Note_on_c, 0, 71, 0
2, 7460, Note_on_c, 0, 67, 0
2, 7460, Note_on_c, 0, 76, 90
2, 7700, Note_on_c, 0, 76, 0
2, 7700, Note_on_c, 0, 74, 90
2, 7940, Note_on_c, 0, 74, 0
2, 7940, Note_on_c, 0, 72, 90
2, 8180, Note_on_c, 0, 72, 0
2, 8180, Note_on_c, 0, 78, 88
2, 8420, Note_on_c, 0, 78, 0
2, 8420, Note_on_c, 0, 81, 88
2, 8660, Note_on_c, 0, 81, 0
2, 8660, Note_on_c, 0, 71, 102
2, 9140, Note_on_c, 0, 71, 0
2, 9140, Note_on_c, 0, 79, 91
2, 9380, Note_on_c, 0, 79, 0
2, 9380, Note_on_c, 0, 79, 101
2, 9840, Note_on_c, 0, 79, 0
2, 9860, Note_on_c, 0, 78, 85
2, 10100, Note_on_c, 0, 78, 0
2, 10588, Note_on_c, 0, 83, 101
2, 10808, Note_on_c, 0, 81, 100
2, 10824, Note_on_c, 0, 83, 0
2, 11300, Note_on_c, 0, 74, 100
2, 11308, Note_on_c, 0, 81, 0
2, 11660, Note_on_c, 0, 76, 88
2, 11668, Note_on_c, 0, 74, 0
2, 11784, Note_on_c, 0, 74, 77
2, 11788, Note_on_c, 0, 76, 0
2, 11892, Note_on_c, 0, 72, 77
2, 11904, Note_on_c, 0, 74, 0
2, 12012, Note_on_c, 0, 72, 0
2, 12012, Note_on_c, 0, 71, 86
2, 12248, Note_on_c, 0, 76, 92
2, 12268, Note_on_c, 0, 71, 0
2, 12504, Note_on_c, 0, 76, 0
2, 12508, Note_on_c, 0, 71, 84
2, 12740, Note_on_c, 0, 74, 91
2, 12764, Note_on_c, 0, 71, 0
2, 12980, Note_on_c, 0, 73, 90
2, 12996, Note_on_c, 0, 74, 0
2, 13232, Note_on_c, 0, 74, 93
2, 13236, Note_on_c, 0, 73, 0
2, 13460, Note_on_c, 0, 74, 0
2, 13460, Note_on_c, 0, 76, 95
2, 13940, Note_on_c, 0, 73, 92
2, 13956, Note_on_c, 0, 76, 0
2, 14180, Note_on_c, 0, 73, 0
2, 14180, Note_on_c, 0, 69, 81
2, 14420, Note_on_c, 0, 69, 0
2, 14900, Note_on_c, 0, 74, 96
2, 15140, Note_on_c, 0, 74, 0
2, 15140, Note_on_c, 0, 67, 96
2, 15860, Note_on_c, 0, 67, 0
2, 16100, Note_on_c, 0, 66, 88
2, 16340, Note_on_c, 0, 66, 0
2, 16340, Note_on_c, 0, 67, 88
2, 16580, Note_on_c, 0, 67, 0
2, 16580, Note_on_c, 0, 64, 85
2, 16820, Note_on_c, 0, 69, 76
2, 16864, Note_on_c, 0, 64, 0
2, 16940, Note_on_c, 0, 69, 0
2, 16940, Note_on_c, 0, 67, 84
2, 17060, Note_on_c, 0, 67, 0
2, 17060, Note_on_c, 0, 66, 63
2, 17180, Note_on_c, 0, 66, 0
2, 17180, Note_on_c, 0, 64, 61
2, 17300, Note_on_c, 0, 64, 0
2, 17300, Note_on_c, 0, 62, 61
2, 17540, Note_on_c, 0, 62, 0
2, 17540, Note_on_c, 0, 64, 61
2, 17660, Note_on_c, 0, 64, 0
2, 17660, Note_on_c, 0, 66, 61
2, 17780, Note_on_c, 0, 66, 0
2, 17780, Note_on_c, 0, 67, 61
2, 17900, Note_on_c, 0, 67, 0
2, 17900, Note_on_c, 0, 69, 61
2, 18020, Note_on_c, 0, 69, 0
2, 18020, Note_on_c, 0, 71, 61
2, 18260, Note_on_c, 0, 71, 0
2, 18260, Note_on_c, 0, 74, 61
2, 18500, Note_on_c, 0, 74, 0
2, 18500, Note_on_c, 0, 73, 61
2, 18740, Note_on_c, 0, 73, 0
2, 18740, Note_on_c, 0, 74, 95
2, 19460, Note_on_c, 0, 74, 0
2, 19700, Note_on_c, 0, 73, 67
2, 19940, Note_on_c, 0, 73, 0
2, 20180, Note_on_c, 0, 74, 84
2, 20900, Note_on_c, 0, 74, 0
2, 21020, Note_on_c, 0, 69, 84
2, 21140, Note_on_c, 0, 69, 0
2, 21140, Note_on_c, 0, 67, 84
2, 21260, Note_on_c, 0, 67, 0
2, 21260, Note_on_c, 0, 66, 84
2, 21380, Note_on_c, 0, 66, 0
2, 21380, Note_on_c, 0, 67, 84
2, 21500, Note_on_c, 0, 67, 0
2, 21500, Note_on_c, 0, 64, 84
2, 21620, Note_on_c, 0, 64, 0
2, 21620, Note_on_c, 0, 66, 84
2, 23060, Note_on_c, 0, 66, 0
2, 25932, Note_on_c, 0, 67, 101
2, 26652, Note_on_c, 0, 79, 102
2, 26668, Note_on_c, 0, 67, 0
2, 27628, Note_on_c, 0, 81, 100
2, 27656, Note_on_c, 0, 79, 0
2, 27744, Note_on_c, 0, 79, 86
2, 27768, Note_on_c, 0, 81, 0
2, 27868, Note_on_c, 0, 78, 90
2, 27876, Note_on_c, 0, 79, 0
2, 27984, Note_on_c, 0, 79, 88
2, 28004, Note_on_c, 0, 78, 0
2, 28100, Note_on_c, 0, 81, 97
2, 28116, Note_on_c, 0, 79, 0
2, 28340, Note_on_c, 0, 81, 0
2, 29052, Note_on_c, 0, 74, 96
2, 29180, Note_on_c, 0, 72, 90
2, 29188, Note_on_c, 0, 74, 0
2, 29300, Note_on_c, 0, 71, 75
2, 29312, Note_on_c, 0, 72, 0
2, 29404, Note_on_c, 0, 71, 0
2, 29408, Note_on_c, 0, 69, 58
2, 29540, Note_on_c, 0, 71, 81
2, 29548, Note_on_c, 0, 69, 0
2, 29780, Note_on_c, 0, 72, 86
2, 29792, Note_on_c, 0, 71, 0
2, 29900, Note_on_c, 0, 71, 97
2, 29916, Note_on_c, 0, 72, 0
2, 30024, Note_on_c, 0, 69, 78
2, 30044, Note_on_c, 0, 71, 0
2, 30140, Note_on_c, 0, 71, 73
2, 30152, Note_on_c, 0, 69, 0
2, 30260, Note_on_c, 0, 67, 90
2, 30268, Note_on_c, 0, 71, 0
2, 30500, Note_on_c, 0, 67, 0
2, 30500, Note_on_c, 0, 76, 90
2, 30740, Note_on_c, 0, 76, 0
2, 30740, Note_on_c, 0, 74, 90
2, 30980, Note_on_c, 0, 74, 0
2, 30980, Note_on_c, 0, 72, 90
2, 31220, Note_on_c, 0, 72, 0
2, 31220, Note_on_c, 0, 78, 88
2, 31460, Note_on_c, 0, 78, 0
2, 31460, Note_on_c, 0, 81, 102
2, 31700, Note_on_c, 0, 81, 0
2, 32180, Note_on_c, 0, 79, 91
2, 32420, Note_on_c, 0, 79, 0
2, 32420, Note_on_c, 0, 79, 101
2, 32880, Note_on_c, 0, 79, 0
2, 32900, Note_on_c, 0, 78, 85
2, 33140, Note_on_c, 0, 78, 0
2, 33628, Note_on_c, 0, 83, 101
2, 33848, Note_on_c, 0, 81, 100
2, 33864, Note_on_c, 0, 83, 0
2, 34340, Note_on_c, 0, 74, 100
2, 34348, Note_on_c, 0, 81, 0
2, 34700, Note_on_c, 0, 76, 88
2, 34708, Note_on_c, 0, 74, 0
2, 34824, Note_on_c, 0, 74, 77
2, 34828, Note_on_c, 0, 76, 0
2, 34932, Note_on_c, 0, 72, 77
2, 34944, Note_on_c, 0, 74, 0
2, 35052, Note_on_c, 0, 72, 0
2, 35052, Note_on_c, 0, 71, 86
2, 35288, Note_on_c, 0, 76, 92
2, 35308, Note_on_c, 0, 71, 0
2, 35544, Note_on_c, 0, 76, 0
2, 35548, Note_on_c, 0, 71, 84
2, 35780, Note_on_c, 0, 74, 91
2, 35804, Note_on_c, 0, 71, 0
2, 36020, Note_on_c, 0, 73, 90
2, 36036, Note_on_c, 0, 74, 0
2, 36272, Note_on_c, 0, 74, 93
2, 36276, Note_on_c, 0, 73, 0
2, 36500, Note_on_c, 0, 74, 0
2, 36500, Note_on_c, 0, 76, 95
2, 36980, Note_on_c, 0, 73, 92
2, 36996, Note_on_c, 0, 76, 0
2, 37220, Note_on_c, 0, 73, 0
2, 37220, Note_on_c, 0, 69, 81
2, 37460, Note_on_c, 0, 69, 0
2, 37940, Note_on_c, 0, 74, 96
2, 38180, Note_on_c, 0, 74, 0
2, 38180, Note_on_c, 0, 67, 96
2, 39140, Note_on_c, 0, 67, 0
2, 39140, Note_on_c, 0, 66, 88
2, 39380, Note_on_c, 0, 66, 0
2, 39380, Note_on_c, 0, 67, 88
2, 39620, Note_on_c, 0, 67, 0
2, 39620, Note_on_c, 0, 64, 85
2, 39860, Note_on_c, 0, 69, 76
2, 39904, Note_on_c, 0, 64, 0
2, 39980, Note_on_c, 0, 69, 0
2, 39980, Note_on_c, 0, 67, 84
2, 40100, Note_on_c, 0, 67, 0
2, 40100, Note_on_c, 0, 66, 63
2, 40220, Note_on_c, 0, 66, 0
2, 40220, Note_on_c, 0, 64, 61
2, 40340, Note_on_c, 0, 64, 0
2, 40340, Note_on_c, 0, 62, 61
2, 40580, Note_on_c, 0, 62, 0
2, 40580, Note_on_c, 0, 64, 61
2, 40700, Note_on_c, 0, 64, 0
2, 40700, Note_on_c, 0, 66, 61
2, 40820, Note_on_c, 0, 66, 0
2, 40820, Note_on_c, 0, 67, 61
2, 40940, Note_on_c, 0, 67, 0
2, 40940, Note_on_c, 0, 69, 61
2, 41060, Note_on_c, 0, 69, 0
2, 41060, Note_on_c, 0, 71, 61
2, 41300, Note_on_c, 0, 71, 0
2, 41300, Note_on_c, 0, 74, 61
2, 41540, Note_on_c, 0, 74, 0
2, 41540, Note_on_c, 0, 73, 61
2, 41780, Note_on_c, 0, 73, 0
2, 41780, Note_on_c, 0, 74, 95
2, 42740, Note_on_c, 0, 74, 0
2, 42740, Note_on_c, 0, 73, 67
2, 42980, Note_on_c, 0, 73, 0
2, 43220, Note_on_c, 0, 74, 84
2, 43940, Note_on_c, 0, 74, 0
2, 44060, Note_on_c, 0, 69, 84
2, 44180, Note_on_c, 0, 69, 0
2, 44180, Note_on_c, 0, 67, 84
2, 44300, Note_on_c, 0, 67, 0
2, 44300, Note_on_c, 0, 66, 84
2, 44420, Note_on_c, 0, 66, 0
2, 44420, Note_on_c, 0, 67, 84
2, 44540, Note_on_c, 0, 67, 0
2, 44540, Note_on_c, 0, 64, 84
2, 44660, Note_on_c, 0, 64, 0
2, 44660, Note_on_c, 0, 66, 84
2, 46100, Note_on_c, 0, 66, 0
2, 47520, End_track
3, 0, Start_track
3, 0, Title_t, "goldberg.mid"
3, 20, Note_on_c, 1, 71, 121
3, 852, Note_on_c, 1, 72, 88
3, 856, Note_on_c, 1, 71, 0
3, 972, Note_on_c, 1, 74, 81
3, 996, Note_on_c, 1, 72, 0
3, 1088, Note_on_c, 1, 72, 89
3, 1100, Note_on_c, 1, 74, 0
3, 1204, Note_on_c, 1, 74, 83
3, 1224, Note_on_c, 1, 72, 0
3, 1328, Note_on_c, 1, 76, 92
3, 1344, Note_on_c, 1, 74, 0
3, 1460, Note_on_c, 1, 76, 0
3, 1460, Note_on_c, 1, 69, 93
3, 2292, Note_on_c, 1, 71, 92
3, 2300, Note_on_c, 1, 69, 0
3, 2412, Note_on_c, 1, 72, 97
3, 2436, Note_on_c, 1, 71, 0
3, 2540, Note_on_c, 1, 71, 96
3, 2544, Note_on_c, 1, 72, 0
3, 2652, Note_on_c, 1, 72, 96
3, 2668, Note_on_c, 1, 71, 0
3, 2772, Note_on_c, 1, 72, 0
3, 2780, Note_on_c, 1, 74, 97
3, 2900, Note_on_c, 1, 74, 0
3, 2900, Note_on_c, 1, 71, 121
3, 3736, Note_on_c, 1, 71, 0
3, 3740, Note_on_c, 1, 72, 100
3, 3856, Note_on_c, 1, 72, 0
3, 3860, Note_on_c, 1, 74, 93
3, 3976, Note_on_c, 1, 74, 0
3, 3980, Note_on_c, 1, 72, 101
3, 4096, Note_on_c, 1, 72, 0
3, 4100, Note_on_c, 1, 74, 96
3, 4216, Note_on_c, 1, 74, 0
3, 4220, Note_on_c, 1, 76, 98
3, 4336, Note_on_c, 1, 76, 0
3, 4340, Note_on_c, 1, 69, 111
3, 5176, Note_on_c, 1, 69, 0
3, 5180, Note_on_c, 1, 71, 107
3, 5296, Note_on_c, 1, 71, 0
3, 5300, Note_on_c, 1, 72, 93
3, 5416, Note_on_c, 1, 72, 0
3, 5420, Note_on_c, 1, 71, 88
3, 5536, Note_on_c, 1, 71, 0
3, 5540, Note_on_c, 1, 72, 98
3, 5656, Note_on_c, 1, 72, 0
3, 5660, Note_on_c, 1, 74, 95
3, 5776, Note_on_c, 1, 74, 0
3, 5780, Note_on_c, 1, 67, 107
3, 6496, Note_on_c, 1, 67, 0
3, 6500, Note_on_c, 1, 79, 123
3, 7456, Note_on_c, 1, 79, 0
3, 7460, Note_on_c, 1, 81, 101
3, 7576, Note_on_c, 1, 81, 0
3, 7580, Note_on_c, 1, 79, 95
3, 7696, Note_on_c, 1, 79, 0
3, 7700, Note_on_c, 1, 78, 99
3, 7816, Note_on_c, 1, 78, 0
3, 7820, Note_on_c, 1, 79, 104
3, 7936, Note_on_c, 1, 79, 0
3, 7940, Note_on_c, 1, 81, 107
3, 8656, Note_on_c, 1, 81, 0
3, 8900, Note_on_c, 1, 74, 106
3, 9016, Note_on_c, 1, 74, 0
3, 9020, Note_on_c, 1, 72, 107
3, 9136, Note_on_c, 1, 72, 0
3, 9140, Note_on_c, 1, 71, 95
3, 9256, Note_on_c, 1, 71, 0
3, 9260, Note_on_c, 1, 69, 89
3, 9376, Note_on_c, 1, 69, 0
3, 9380, Note_on_c, 1, 71, 109
3, 9616, Note_on_c, 1, 71, 0
3, 9620, Note_on_c, 1, 72, 107
3, 9736, Note_on_c, 1, 72, 0
3, 9740, Note_on_c, 1, 71, 98
3, 9856, Note_on_c, 1, 71, 0
3, 9860, Note_on_c, 1, 69, 86
3, 9976, Note_on_c, 1, 69, 0
3, 9980, Note_on_c, 1, 71, 91
3, 10096, Note_on_c, 1, 71, 0
3, 10100, Note_on_c, 1, 67, 107
3, 10336, Note_on_c, 1, 67, 0
3, 10340, Note_on_c, 1, 76, 121
3, 10576, Note_on_c, 1, 76, 0
3, 10580, Note_on_c, 1, 74, 92
3, 10816, Note_on_c, 1, 74, 0
3, 10820, Note_on_c, 1, 72, 119
3, 11056, Note_on_c, 1, 72, 0
3, 11060, Note_on_c, 1, 78, 115
3, 11296, Note_on_c, 1, 78, 0
3, 11300, Note_on_c, 1, 81, 121
3, 11536, Note_on_c, 1, 81, 0
3, 11540, Note_on_c, 1, 71, 84
3, 12016, Note_on_c, 1, 71, 0
3, 12020, Note_on_c, 1, 79, 119
3, 12256, Note_on_c, 1, 79, 0
3, 12260, Note_on_c, 1, 79, 77
3, 12736, Note_on_c, 1, 79, 0
3, 12740, Note_on_c, 1, 78, 85
3, 12976, Note_on_c, 1, 78, 0
3, 13460, Note_on_c, 1, 83, 124
3, 13696, Note_on_c, 1, 83, 0
3, 13700, Note_on_c, 1, 81, 117
3, 14176, Note_on_c, 1, 81, 0
3, 14180, Note_on_c, 1, 74, 100
3, 14536, Note_on_c, 1, 74, 0
3, 14540, Note_on_c, 1, 76, 107
3, 14656, Note_on_c, 1, 76, 0
3, 14660, Note_on_c, 1, 74, 98
3, 14776, Note_on_c, 1, 74, 0
3, 14780, Note_on_c, 1, 72, 72
3, 14896, Note_on_c, 1, 72, 0
3, 14900, Note_on_c, 1, 71, 109
3, 15136, Note_on_c, 1, 71, 0
3, 15140, Note_on_c, 1, 76, 111
3, 15376, Note_on_c, 1, 76, 0
3, 15380, Note_on_c, 1, 71, 107
3, 15616, Note_on_c, 1, 71, 0
3, 15620, Note_on_c, 1, 74, 111
3, 15856, Note_on_c, 1, 74, 0
3, 15860, Note_on_c, 1, 73, 108
3, 16096, Note_on_c, 1, 73, 0
3, 16100, Note_on_c, 1, 74, 109
3, 16336, Note_on_c, 1, 74, 0
3, 16340, Note_on_c, 1, 76, 104
3, 16816, Note_on_c, 1, 76, 0
3, 16820, Note_on_c, 1, 73, 102
3, 17056, Note_on_c, 1, 73, 0
3, 17060, Note_on_c, 1, 69, 117
3, 17296, Note_on_c, 1, 69, 0
3, 17780, Note_on_c, 1, 74, 96
3, 18016, Note_on_c, 1, 74, 0
3, 18020, Note_on_c, 1, 67, 96
3, 18976, Note_on_c, 1, 67, 0
3, 18980, Note_on_c, 1, 66, 96
3, 19216, Note_on_c, 1, 66, 0
3, 19220, Note_on_c, 1, 67, 96
3, 19456, Note_on_c, 1, 67, 0
3, 19460, Note_on_c, 1, 64, 107
3, 19696, Note_on_c, 1, 64, 0
3, 19700, Note_on_c, 1, 69, 100
3, 19816, Note_on_c, 1, 69, 0
3, 19820, Note_on_c, 1, 67, 106
3, 19936, Note_on_c, 1, 67, 0
3, 19940, Note_on_c, 1, 66, 97
3, 20056, Note_on_c, 1, 66, 0
3, 20060, Note_on_c, 1, 64, 97
3, 20176, Note_on_c, 1, 64, 0
3, 20180, Note_on_c, 1, 62, 109
3, 20416, Note_on_c, 1, 62, 0
3, 20420, Note_on_c, 1, 64, 115
3, 20536, Note_on_c, 1, 64, 0
3, 20540, Note_on_c, 1, 66, 92
3, 20656, Note_on_c, 1, 66, 0
3, 20660, Note_on_c, 1, 67, 101
3, 20776, Note_on_c, 1, 67, 0
3, 20780, Note_on_c, 1, 69, 91
3, 20896, Note_on_c, 1, 69, 0
3, 20900, Note_on_c, 1, 71, 107
3, 21136, Note_on_c, 1, 71, 0
3, 21140, Note_on_c, 1, 74, 101
3, 21376, Note_on_c, 1, 74, 0
3, 21380, Note_on_c, 1, 73, 97
3, 21616, Note_on_c, 1, 73, 0
3, 21620, Note_on_c, 1, 74, 115
3, 23056, Note_on_c, 1, 74, 0
3, 23064, Note_on_c, 1, 71, 107
3, 23888, Note_on_c, 1, 72, 92
3, 23892, Note_on_c, 1, 71, 0
3, 24008, Note_on_c, 1, 74, 92
3, 24036, Note_on_c, 1, 72, 0
3, 24124, Note_on_c, 1, 72, 97
3, 24144, Note_on_c, 1, 74, 0
3, 24248, Note_on_c, 1, 74, 89
3, 24272, Note_on_c, 1, 72, 0
3, 24368, Note_on_c, 1, 76, 101
3, 24392, Note_on_c, 1, 74, 0
3, 24500, Note_on_c, 1, 69, 104
3, 24504, Note_on_c, 1, 76, 0
3, 25332, Note_on_c, 1, 71, 98
3, 25348, Note_on_c, 1, 69, 0
3, 25452, Note_on_c, 1, 72, 92
3, 25472, Note_on_c, 1, 71, 0
3, 25564, Note_on_c, 1, 71, 93
3, 25592, Note_on_c, 1, 72, 0
3, 25688, Note_on_c, 1, 72, 97
3, 25708, Note_on_c, 1, 71, 0
3, 25800, Note_on_c, 1, 74, 98
3, 25812, Note_on_c, 1, 72, 0
3, 25940, Note_on_c, 1, 71, 121
3, 25948, Note_on_c, 1, 74, 0
3, 26776, Note_on_c, 1, 71, 0
3, 26780, Note_on_c, 1, 72, 100
3, 26896, Note_on_c, 1, 72, 0
3, 26900, Note_on_c, 1, 74, 93
3, 27016, Note_on_c, 1, 74, 0
3, 27020, Note_on_c, 1, 72, 101
3, 27136, Note_on_c, 1, 72, 0
3, 27140, Note_on_c, 1, 74, 96
3, 27256, Note_on_c, 1, 74, 0
3, 27260, Note_on_c, 1, 76, 98
3, 27376, Note_on_c, 1, 76, 0
3, 27380, Note_on_c, 1, 69, 111
3, 28216, Note_on_c, 1, 69, 0
3, 28220, Note_on_c, 1, 71, 107
3, 28336, Note_on_c, 1, 71, 0
3, 28340, Note_on_c, 1, 72, 93
3, 28456, Note_on_c, 1, 72, 0
3, 28460, Note_on_c, 1, 71, 88
3, 28576, Note_on_c, 1, 71, 0
3, 28580, Note_on_c, 1, 72, 98
3, 28696, Note_on_c, 1, 72, 0
3, 28700, Note_on_c, 1, 74, 95
3, 28816, Note_on_c, 1, 74, 0
3, 28820, Note_on_c, 1, 67, 107
3, 29536, Note_on_c, 1, 67, 0
3, 29540, Note_on_c, 1, 79, 123
3, 30496, Note_on_c, 1, 79, 0
3, 30500, Note_on_c, 1, 81, 101
3, 30616, Note_on_c, 1, 81, 0
3, 30620, Note_on_c, 1, 79, 95
3, 30736, Note_on_c, 1, 79, 0
3, 30740, Note_on_c, 1, 78, 99
3, 30856, Note_on_c, 1, 78, 0
3, 30860, Note_on_c, 1, 79, 104
3, 30976, Note_on_c, 1, 79, 0
3, 30980, Note_on_c, 1, 81, 107
3, 31696, Note_on_c, 1, 81, 0
3, 31940, Note_on_c, 1, 74, 106
3, 32056, Note_on_c, 1, 74, 0
3, 32060, Note_on_c, 1, 72, 107
3, 32176, Note_on_c, 1, 72, 0
3, 32180, Note_on_c, 1, 71, 95
3, 32296, Note_on_c, 1, 71, 0
3, 32300, Note_on_c, 1, 69, 89
3, 32416, Note_on_c, 1, 69, 0
3, 32420, Note_on_c, 1, 71, 109
3, 32656, Note_on_c, 1, 71, 0
3, 32660, Note_on_c, 1, 72, 107
3, 32776, Note_on_c, 1, 72, 0
3, 32780, Note_on_c, 1, 71, 98
3, 32896, Note_on_c, 1, 71, 0
3, 32900, Note_on_c, 1, 69, 86
3, 33016, Note_on_c, 1, 69, 0
3, 33020, Note_on_c, 1, 71, 91
3, 33136, Note_on_c, 1, 71, 0
3, 33140, Note_on_c, 1, 67, 107
3, 33376, Note_on_c, 1, 67, 0
3, 33380, Note_on_c, 1, 76, 121
3, 33616, Note_on_c, 1, 76, 0
3, 33620, Note_on_c, 1, 74, 92
3, 33856, Note_on_c, 1, 74, 0
3, 33860, Note_on_c, 1, 72, 119
3, 34096, Note_on_c, 1, 72, 0
3, 34100, Note_on_c, 1, 78, 115
3, 34336, Note_on_c, 1, 78, 0
3, 34340, Note_on_c, 1, 81, 121
3, 34576, Note_on_c, 1, 81, 0
3, 34580, Note_on_c, 1, 71, 84
3, 35056, Note_on_c, 1, 71, 0
3, 35060, Note_on_c, 1, 79, 119
3, 35296, Note_on_c, 1, 79, 0
3, 35300, Note_on_c, 1, 79, 77
3, 35776, Note_on_c, 1, 79, 0
3, 35780, Note_on_c, 1, 78, 85
3, 36016, Note_on_c, 1, 78, 0
3, 36500, Note_on_c, 1, 83, 124
3, 36736, Note_on_c, 1, 83, 0
3, 36740, Note_on_c, 1, 81, 117
3, 37216, Note_on_c, 1, 81, 0
3, 37220, Note_on_c, 1, 74, 100
3, 37576, Note_on_c, 1, 74, 0
3, 37580, Note_on_c, 1, 76, 107
3, 37696, Note_on_c, 1, 76, 0
3, 37700, Note_on_c, 1, 74, 98
3, 37816, Note_on_c, 1, 74, 0
3, 37820, Note_on_c, 1, 72, 72
3, 37936, Note_on_c, 1, 72, 0
3, 37940, Note_on_c, 1, 71, 109
3, 38176, Note_on_c, 1, 71, 0
3, 38180, Note_on_c, 1, 76, 111
3, 38416, Note_on_c, 1, 76, 0
3, 38420, Note_on_c, 1, 71, 107
3, 38656, Note_on_c, 1, 71, 0
3, 38660, Note_on_c, 1, 74, 111
3, 38896, Note_on_c, 1, 74, 0
3, 38900, Note_on_c, 1, 73, 108
3, 39136, Note_on_c, 1, 73, 0
3, 39140, Note_on_c, 1, 74, 109
3, 39376, Note_on_c, 1, 74, 0
3, 39380, Note_on_c, 1, 76, 104
3, 39856, Note_on_c, 1, 76, 0
3, 39860, Note_on_c, 1, 73, 102
3, 40096, Note_on_c, 1, 73, 0
3, 40100, Note_on_c, 1, 69, 117
3, 40336, Note_on_c, 1, 69, 0
3, 40820, Note_on_c, 1, 74, 96
3, 41056, Note_on_c, 1, 74, 0
3, 41060, Note_on_c, 1, 67, 96
3, 42016, Note_on_c, 1, 67, 0
3, 42020, Note_on_c, 1, 66, 96
3, 42256, Note_on_c, 1, 66, 0
3, 42260, Note_on_c, 1, 67, 96
3, 42496, Note_on_c, 1, 67, 0
3, 42500, Note_on_c, 1, 64, 107
3, 42736, Note_on_c, 1, 64, 0
3, 42740, Note_on_c, 1, 69, 100
3, 42856, Note_on_c, 1, 69, 0
3, 42860, Note_on_c, 1, 67, 106
3, 42976, Note_on_c, 1, 67, 0
3, 42980, Note_on_c, 1, 66, 97
3, 43096, Note_on_c, 1, 66, 0
3, 43100, Note_on_c, 1, 64, 97
3, 43216, Note_on_c, 1, 64, 0
3, 43220, Note_on_c, 1, 62, 109
3, 43456, Note_on_c, 1, 62, 0
3, 43460, Note_on_c, 1, 64, 115
3, 43576, Note_on_c, 1, 64, 0
3, 43580, Note_on_c, 1, 66, 92
3, 43696, Note_on_c, 1, 66, 0
3, 43700, Note_on_c, 1, 67, 101
3, 43816, Note_on_c, 1, 67, 0
3, 43820, Note_on_c, 1, 69, 91
3, 43936, Note_on_c, 1, 69, 0
3, 43940, Note_on_c, 1, 71, 107
3, 44176, Note_on_c, 1, 71, 0
3, 44180, Note_on_c, 1, 74, 101
3, 44416, Note_on_c, 1, 74, 0
3, 44420, Note_on_c, 1, 73, 97
3, 44656, Note_on_c, 1, 73, 0
3, 44660, Note_on_c, 1, 74, 115
3, 46096, Note_on_c, 1, 74, 0
3, 47520, End_track
4, 0, Start_track
4, 0, Title_t, "goldberg.mid"
4, 20, Note_on_c, 3, 43, 92
4, 256, Note_on_c, 3, 43, 0
4, 260, Note_on_c, 3, 47, 95
4, 496, Note_on_c, 3, 47, 0
4, 500, Note_on_c, 3, 50, 90
4, 736, Note_on_c, 3, 50, 0
4, 740, Note_on_c, 3, 55, 84
4, 976, Note_on_c, 3, 55, 0
4, 980, Note_on_c, 3, 59, 93
4, 1216, Note_on_c, 3, 59, 0
4, 1220, Note_on_c, 3, 52, 98
4, 1456, Note_on_c, 3, 52, 0
4, 1460, Note_on_c, 3, 42, 92
4, 1696, Note_on_c, 3, 42, 0
4, 1700, Note_on_c, 3, 45, 97
4, 1936, Note_on_c, 3, 45, 0
4, 1940, Note_on_c, 3, 50, 93
4, 2176, Note_on_c, 3, 50, 0
4, 2180, Note_on_c, 3, 54, 99
4, 2416, Note_on_c, 3, 54, 0
4, 2420, Note_on_c, 3, 57, 89
4, 2656, Note_on_c, 3, 57, 0
4, 2660, Note_on_c, 3, 50, 85
4, 2896, Note_on_c, 3, 50, 0
4, 2900, Note_on_c, 3, 40, 107
4, 3136, Note_on_c, 3, 40, 0
4, 3140, Note_on_c, 3, 43, 101
4, 3376, Note_on_c, 3, 43, 0
4, 3380, Note_on_c, 3, 47, 92
4, 3616, Note_on_c, 3, 47, 0
4, 3620, Note_on_c, 3, 52, 97
4, 3856, Note_on_c, 3, 52, 0
4, 3860, Note_on_c, 3, 47, 95
4, 4096, Note_on_c, 3, 47, 0
4, 4100, Note_on_c, 3, 49, 99
4, 4336, Note_on_c, 3, 49, 0
4, 4340, Note_on_c, 3, 38, 94
4, 4576, Note_on_c, 3, 38, 0
4, 4580, Note_on_c, 3, 42, 66
4, 4816, Note_on_c, 3, 42, 0
4, 4820, Note_on_c, 3, 45, 66
4, 5056, Note_on_c, 3, 45, 0
4, 5060, Note_on_c, 3, 50, 94
4, 5296, Note_on_c, 3, 50, 0
4, 5300, Note_on_c, 3, 54, 94
4, 5536, Note_on_c, 3, 54, 0
4, 5540, Note_on_c, 3, 45, 94
4, 5776, Note_on_c, 3, 45, 0
4, 5780, Note_on_c, 3, 47, 101
4, 5896, Note_on_c, 3, 47, 0
4, 5900, Note_on_c, 3, 45, 88
4, 6016, Note_on_c, 3, 45, 0
4, 6020, Note_on_c, 3, 47, 92
4, 6136, Note_on_c, 3, 47, 0
4, 6140, Note_on_c, 3, 48, 86
4, 6256, Note_on_c, 3, 48, 0
4, 6260, Note_on_c, 3, 50, 93
4, 6616, Note_on_c, 3, 50, 0
4, 6620, Note_on_c, 3, 43, 88
4, 6736, Note_on_c, 3, 43, 0
4, 6740, Note_on_c, 3, 45, 85
4, 6856, Note_on_c, 3, 45, 0
4, 6860, Note_on_c, 3, 47, 89
4, 6976, Note_on_c, 3, 47, 0
4, 6980, Note_on_c, 3, 48, 97
4, 7096, Note_on_c, 3, 48, 0
4, 7100, Note_on_c, 3, 50, 88
4, 7216, Note_on_c, 3, 50, 0
4, 7220, Note_on_c, 3, 52, 93
4, 7336, Note_on_c, 3, 52, 0
4, 7340, Note_on_c, 3, 50, 88
4, 7456, Note_on_c, 3, 50, 0
4, 7460, Note_on_c, 3, 48, 74
4, 7576, Note_on_c, 3, 48, 0
4, 7580, Note_on_c, 3, 47, 74
4, 7696, Note_on_c, 3, 47, 0
4, 7700, Note_on_c, 3, 48, 80
4, 7816, Note_on_c, 3, 48, 0
4, 7820, Note_on_c, 3, 52, 97
4, 7936, Note_on_c, 3, 52, 0
4, 7940, Note_on_c, 3, 42, 47
4, 8056, Note_on_c, 3, 42, 0
4, 8060, Note_on_c, 3, 45, 85
4, 8176, Note_on_c, 3, 45, 0
4, 8180, Note_on_c, 3, 43, 85
4, 8296, Note_on_c, 3, 43, 0
4, 8300, Note_on_c, 3, 42, 101
4, 8416, Note_on_c, 3, 42, 0
4, 8420, Note_on_c, 3, 40, 57
4, 8536, Note_on_c, 3, 40, 0
4, 8540, Note_on_c, 3, 38, 82
4, 8656, Note_on_c, 3, 38, 0
4, 8660, Note_on_c, 3, 43, 92
4, 8776, Note_on_c, 3, 43, 0
4, 8780, Note_on_c, 3, 42, 65
4, 8896, Note_on_c, 3, 42, 0
4, 8900, Note_on_c, 3, 43, 63
4, 9016, Note_on_c, 3, 43, 0
4, 9020, Note_on_c, 3, 45, 84
4, 9136, Note_on_c, 3, 45, 0
4, 9140, Note_on_c, 3, 47, 76
4, 9256, Note_on_c, 3, 47, 0
4, 9260, Note_on_c, 3, 48, 88
4, 9376, Note_on_c, 3, 48, 0
4, 9380, Note_on_c, 3, 50, 66
4, 9496, Note_on_c, 3, 50, 0
4, 9500, Note_on_c, 3, 52, 100
4, 9620, Note_on_c, 3, 52, 0
4, 9620, Note_on_c, 3, 45, 66
4, 9736, Note_on_c, 3, 45, 0
4, 9740, Note_on_c, 3, 47, 91
4, 9856, Note_on_c, 3, 47, 0
4, 9860, Note_on_c, 3, 48, 86
4, 9976, Note_on_c, 3, 48, 0
4, 9980, Note_on_c, 3, 45, 78
4, 10096, Note_on_c, 3, 45, 0
4, 10100, Note_on_c, 3, 47, 86
4, 10216, Note_on_c, 3, 47, 0
4, 10220, Note_on_c, 3, 45, 89
4, 10336, Note_on_c, 3, 45, 0
4, 10340, Note_on_c, 3, 43, 72
4, 10456, Note_on_c, 3, 43, 0
4, 10460, Note_on_c, 3, 42, 97
4, 10576, Note_on_c, 3, 42, 0
4, 10580, Note_on_c, 3, 43, 97
4, 10936, Note_on_c, 3, 43, 0
4, 10940, Note_on_c, 3, 42, 90
4, 11056, Note_on_c, 3, 42, 0
4, 11060, Note_on_c, 3, 40, 66
4, 11176, Note_on_c, 3, 40, 0
4, 11180, Note_on_c, 3, 38, 76
4, 11296, Note_on_c, 3, 38, 0
4, 11300, Note_on_c, 3, 40, 83
4, 11416, Note_on_c, 3, 40, 0
4, 11420, Note_on_c, 3, 42, 81
4, 11536, Note_on_c, 3, 42, 0
4, 11540, Note_on_c, 3, 43, 69
4, 11656, Note_on_c, 3, 43, 0
4, 11660, Note_on_c, 3, 42, 85
4, 11776, Note_on_c, 3, 42, 0
4, 11780, Note_on_c, 3, 43, 81
4, 11896, Note_on_c, 3, 43, 0
4, 11900, Note_on_c, 3, 45, 89
4, 12016, Note_on_c, 3, 45, 0
4, 12020, Note_on_c, 3, 43, 75
4, 12136, Note_on_c, 3, 43, 0
4, 12140, Note_on_c, 3, 42, 77
4, 12256, Note_on_c, 3, 42, 0
4, 12260, Note_on_c, 3, 40, 78
4, 12376, Note_on_c, 3, 40, 0
4, 12380, Note_on_c, 3, 42, 81
4, 12496, Note_on_c, 3, 42, 0
4, 12500, Note_on_c, 3, 43, 65
4, 12616, Note_on_c, 3, 43, 0
4, 12620, Note_on_c, 3, 40, 73
4, 12736, Note_on_c, 3, 40, 0
4, 12740, Note_on_c, 3, 42, 80
4, 12856, Note_on_c, 3, 42, 0
4, 12860, Note_on_c, 3, 43, 71
4, 12976, Note_on_c, 3, 43, 0
4, 12980, Note_on_c, 3, 45, 86
4, 13096, Note_on_c, 3, 45, 0
4, 13100, Note_on_c, 3, 43, 92
4, 13216, Note_on_c, 3, 43, 0
4, 13220, Note_on_c, 3, 45, 84
4, 13336, Note_on_c, 3, 45, 0
4, 13340, Note_on_c, 3, 47, 80
4, 13456, Note_on_c, 3, 47, 0
4, 13460, Note_on_c, 3, 45, 76
4, 13576, Note_on_c, 3, 45, 0
4, 13580, Note_on_c, 3, 43, 77
4, 13696, Note_on_c, 3, 43, 0
4, 13700, Note_on_c, 3, 42, 86
4, 13816, Note_on_c, 3, 42, 0
4, 13820, Note_on_c, 3, 54, 86
4, 13936, Note_on_c, 3, 54, 0
4, 13940, Note_on_c, 3, 55, 89
4, 14056, Note_on_c, 3, 55, 0
4, 14060, Note_on_c, 3, 54, 92
4, 14176, Note_on_c, 3, 54, 0
4, 14180, Note_on_c, 3, 52, 70
4, 14296, Note_on_c, 3, 52, 0
4, 14300, Note_on_c, 3, 54, 88
4, 14416, Note_on_c, 3, 54, 0
4, 14420, Note_on_c, 3, 47, 96
4, 14536, Note_on_c, 3, 47, 0
4, 14540, Note_on_c, 3, 45, 72
4, 14656, Note_on_c, 3, 45, 0
4, 14660, Note_on_c, 3, 47, 77
4, 14776, Note_on_c, 3, 47, 0
4, 14780, Note_on_c, 3, 48, 90
4, 14896, Note_on_c, 3, 48, 0
4, 14900, Note_on_c, 3, 50, 82
4, 15016, Note_on_c, 3, 50, 0
4, 15020, Note_on_c, 3, 47, 58
4, 15136, Note_on_c, 3, 47, 0
4, 15140, Note_on_c, 3, 49, 85
4, 15256, Note_on_c, 3, 49, 0
4, 15260, Note_on_c, 3, 50, 83
4, 15376, Note_on_c, 3, 50, 0
4, 15380, Note_on_c, 3, 52, 96
4, 15496, Note_on_c, 3, 52, 0
4, 15500, Note_on_c, 3, 50, 83
4, 15616, Note_on_c, 3, 50, 0
4, 15620, Note_on_c, 3, 49, 84
4, 15736, Note_on_c, 3, 49, 0
4, 15740, Note_on_c, 3, 47, 85
4, 15856, Note_on_c, 3, 47, 0
4, 15860, Note_on_c, 3, 45, 76
4, 15976, Note_on_c, 3, 45, 0
4, 15980, Note_on_c, 3, 52, 92
4, 16096, Note_on_c, 3, 52, 0
4, 16100, Note_on_c, 3, 50, 76
4, 16216, Note_on_c, 3, 50, 0
4, 16220, Note_on_c, 3, 49, 81
4, 16336, Note_on_c, 3, 49, 0
4, 16340, Note_on_c, 3, 50, 80
4, 16456, Note_on_c, 3, 50, 0
4, 16460, Note_on_c, 3, 47, 83
4, 16576, Note_on_c, 3, 47, 0
4, 16580, Note_on_c, 3, 49, 79
4, 16696, Note_on_c, 3, 49, 0
4, 16700, Note_on_c, 3, 45, 72
4, 16816, Note_on_c, 3, 45, 0
4, 16820, Note_on_c, 3, 47, 85
4, 16936, Note_on_c, 3, 47, 0
4, 16940, Note_on_c, 3, 49, 79
4, 17056, Note_on_c, 3, 49, 0
4, 17060, Note_on_c, 3, 50, 80
4, 17176, Note_on_c, 3, 50, 0
4, 17180, Note_on_c, 3, 52, 88
4, 17296, Note_on_c, 3, 52, 0
4, 17300, Note_on_c, 3, 54, 84
4, 17416, Note_on_c, 3, 54, 0
4, 17420, Note_on_c, 3, 47, 75
4, 17536, Note_on_c, 3, 47, 0
4, 17540, Note_on_c, 3, 49, 72
4, 17656, Note_on_c, 3, 49, 0
4, 17660, Note_on_c, 3, 50, 59
4, 17776, Note_on_c, 3, 50, 0
4, 17780, Note_on_c, 3, 52, 86
4, 17896, Note_on_c, 3, 52, 0
4, 17900, Note_on_c, 3, 54, 77
4, 18016, Note_on_c, 3, 54, 0
4, 18020, Note_on_c, 3, 55, 83
4, 18136, Note_on_c, 3, 55, 0
4, 18140, Note_on_c, 3, 54, 81
4, 18256, Note_on_c, 3, 54, 0
4, 18260, Note_on_c, 3, 52, 73
4, 18376, Note_on_c, 3, 52, 0
4, 18380, Note_on_c, 3, 50, 83
4, 18496, Note_on_c, 3, 50, 0
4, 18500, Note_on_c, 3, 52, 82
4, 18616, Note_on_c, 3, 52, 0
4, 18620, Note_on_c, 3, 46, 82
4, 18736, Note_on_c, 3, 46, 0
4, 18740, Note_on_c, 3, 47, 100
4, 18856, Note_on_c, 3, 47, 0
4, 18860, Note_on_c, 3, 49, 76
4, 18976, Note_on_c, 3, 49, 0
4, 18980, Note_on_c, 3, 50, 72
4, 19096, Note_on_c, 3, 50, 0
4, 19100, Note_on_c, 3, 49, 81
4, 19216, Note_on_c, 3, 49, 0
4, 19220, Note_on_c, 3, 47, 81
4, 19336, Note_on_c, 3, 47, 0
4, 19340, Note_on_c, 3, 45, 83
4, 19456, Note_on_c, 3, 45, 0
4, 19460, Note_on_c, 3, 43, 76
4, 19576, Note_on_c, 3, 43, 0
4, 19580, Note_on_c, 3, 42, 75
4, 19696, Note_on_c, 3, 42, 0
4, 19700, Note_on_c, 3, 43, 83
4, 19816, Note_on_c, 3, 43, 0
4, 19820, Note_on_c, 3, 47, 92
4, 19936, Note_on_c, 3, 47, 0
4, 19940, Note_on_c, 3, 45, 82
4, 20056, Note_on_c, 3, 45, 0
4, 20060, Note_on_c, 3, 43, 86
4, 20176, Note_on_c, 3, 43, 0
4, 20180, Note_on_c, 3, 42, 92
4, 20300, Note_on_c, 3, 42, 0
4, 20300, Note_on_c, 3, 45, 90
4, 20420, Note_on_c, 3, 45, 0
4, 20420, Note_on_c, 3, 43, 84
4, 20540, Note_on_c, 3, 43, 0
4, 20540, Note_on_c, 3, 42, 84
4, 20660, Note_on_c, 3, 42, 0
4, 20660, Note_on_c, 3, 40, 71
4, 20780, Note_on_c, 3, 40, 0
4, 20780, Note_on_c, 3, 38, 83
4, 20900, Note_on_c, 3, 38, 0
4, 20900, Note_on_c, 3, 43, 107
4, 21140, Note_on_c, 3, 43, 0
4, 21140, Note_on_c, 3, 40, 95
4, 21376, Note_on_c, 3, 40, 0
4, 21380, Note_on_c, 3, 45, 101
4, 21616, Note_on_c, 3, 45, 0
4, 21620, Note_on_c, 3, 38, 95
4, 21736, Note_on_c, 3, 38, 0
4, 21740, Note_on_c, 3, 42, 80
4, 21856, Note_on_c, 3, 42, 0
4, 21860, Note_on_c, 3, 45, 49
4, 21976, Note_on_c, 3, 45, 0
4, 21980, Note_on_c, 3, 50, 84
4, 22096, Note_on_c, 3, 50, 0
4, 22100, Note_on_c, 3, 45, 84
4, 22216, Note_on_c, 3, 45, 0
4, 22220, Note_on_c, 3, 42, 80
4, 22336, Note_on_c, 3, 42, 0
4, 22340, Note_on_c, 3, 38, 78
4, 23052, Note_on_c, 3, 38, 0
4, 23060, Note_on_c, 3, 43, 89
4, 23296, Note_on_c, 3, 43, 0
4, 23300, Note_on_c, 3, 47, 96
4, 23536, Note_on_c, 3, 47, 0
4, 23540, Note_on_c, 3, 50, 91
4, 23776, Note_on_c, 3, 50, 0
4, 23780, Note_on_c, 3, 55, 95
4, 24016, Note_on_c, 3, 55, 0
4, 24020, Note_on_c, 3, 59, 88
4, 24256, Note_on_c, 3, 59, 0
4, 24260, Note_on_c, 3, 52, 84
4, 24496, Note_on_c, 3, 52, 0
4, 24500, Note_on_c, 3, 42, 104
4, 24736, Note_on_c, 3, 42, 0
4, 24740, Note_on_c, 3, 45, 97
4, 24976, Note_on_c, 3, 45, 0
4, 24980, Note_on_c, 3, 50, 102
4, 25216, Note_on_c, 3, 50, 0
4, 25220, Note_on_c, 3, 54, 101
4, 25456, Note_on_c, 3, 54, 0
4, 25460, Note_on_c, 3, 57, 98
4, 25696, Note_on_c, 3, 57, 0
4, 25700, Note_on_c, 3, 50, 97
4, 25936, Note_on_c, 3, 50, 0
4, 25940, Note_on_c, 3, 40, 75
4, 26176, Note_on_c, 3, 40, 0
4, 26180, Note_on_c, 3, 43, 92
4, 26416, Note_on_c, 3, 43, 0
4, 26420, Note_on_c, 3, 47, 95
4, 26656, Note_on_c, 3, 47, 0
4, 26660, Note_on_c, 3, 52, 93
4, 26900, Note_on_c, 3, 52, 0
4, 26900, Note_on_c, 3, 47, 92
4, 27140, Note_on_c, 3, 47, 0
4, 27140, Note_on_c, 3, 49, 106
4, 27380, Note_on_c, 3, 49, 0
4, 27380, Note_on_c, 3, 38, 89
4, 27620, Note_on_c, 3, 38, 0
4, 27620, Note_on_c, 3, 42, 94
4, 27860, Note_on_c, 3, 42, 0
4, 27860, Note_on_c, 3, 45, 90
4, 28100, Note_on_c, 3, 45, 0
4, 28100, Note_on_c, 3, 50, 82
4, 28340, Note_on_c, 3, 50, 0
4, 28340, Note_on_c, 3, 54, 93
4, 28576, Note_on_c, 3, 54, 0
4, 28580, Note_on_c, 3, 45, 92
4, 28820, Note_on_c, 3, 45, 0
4, 28820, Note_on_c, 3, 47, 98
4, 28936, Note_on_c, 3, 47, 0
4, 28940, Note_on_c, 3, 45, 96
4, 29056, Note_on_c, 3, 45, 0
4, 29060, Note_on_c, 3, 47, 88
4, 29176, Note_on_c, 3, 47, 0
4, 29180, Note_on_c, 3, 48, 66
4, 29296, Note_on_c, 3, 48, 0
4, 29300, Note_on_c, 3, 50, 106
4, 29656, Note_on_c, 3, 50, 0
4, 29660, Note_on_c, 3, 43, 86
4, 29776, Note_on_c, 3, 43, 0
4, 29780, Note_on_c, 3, 45, 86
4, 29896, Note_on_c, 3, 45, 0
4, 29900, Note_on_c, 3, 47, 89
4, 30016, Note_on_c, 3, 47, 0
4, 30020, Note_on_c, 3, 48, 91
4, 30136, Note_on_c, 3, 48, 0
4, 30140, Note_on_c, 3, 50, 83
4, 30256, Note_on_c, 3, 50, 0
4, 30260, Note_on_c, 3, 52, 93
4, 30376, Note_on_c, 3, 52, 0
4, 30380, Note_on_c, 3, 50, 84
4, 30496, Note_on_c, 3, 50, 0
4, 30500, Note_on_c, 3, 48, 75
4, 30616, Note_on_c, 3, 48, 0
4, 30620, Note_on_c, 3, 47, 73
4, 30736, Note_on_c, 3, 47, 0
4, 30740, Note_on_c, 3, 48, 67
4, 30856, Note_on_c, 3, 48, 0
4, 30860, Note_on_c, 3, 52, 90
4, 30976, Note_on_c, 3, 52, 0
4, 30980, Note_on_c, 3, 42, 90
4, 31096, Note_on_c, 3, 42, 0
4, 31100, Note_on_c, 3, 45, 92
4, 31216, Note_on_c, 3, 45, 0
4, 31220, Note_on_c, 3, 43, 74
4, 31336, Note_on_c, 3, 43, 0
4, 31340, Note_on_c, 3, 42, 96
4, 31456, Note_on_c, 3, 42, 0
4, 31460, Note_on_c, 3, 40, 67
4, 31576, Note_on_c, 3, 40, 0
4, 31580, Note_on_c, 3, 38, 88
4, 31696, Note_on_c, 3, 38, 0
4, 31700, Note_on_c, 3, 43, 100
4, 31816, Note_on_c, 3, 43, 0
4, 31820, Note_on_c, 3, 42, 81
4, 31936, Note_on_c, 3, 42, 0
4, 31940, Note_on_c, 3, 43, 80
4, 32056, Note_on_c, 3, 43, 0
4, 32060, Note_on_c, 3, 45, 77
4, 32176, Note_on_c, 3, 45, 0
4, 32180, Note_on_c, 3, 47, 86
4, 32296, Note_on_c, 3, 47, 0
4, 32300, Note_on_c, 3, 48, 84
4, 32416, Note_on_c, 3, 48, 0
4, 32420, Note_on_c, 3, 50, 97
4, 32536, Note_on_c, 3, 50, 0
4, 32540, Note_on_c, 3, 52, 76
4, 32656, Note_on_c, 3, 52, 0
4, 32660, Note_on_c, 3, 45, 84
4, 32776, Note_on_c, 3, 45, 0
4, 32780, Note_on_c, 3, 47, 83
4, 32896, Note_on_c, 3, 47, 0
4, 32900, Note_on_c, 3, 48, 88
4, 33016, Note_on_c, 3, 48, 0
4, 33020, Note_on_c, 3, 45, 75
4, 33136, Note_on_c, 3, 45, 0
4, 33140, Note_on_c, 3, 47, 88
4, 33256, Note_on_c, 3, 47, 0
4, 33260, Note_on_c, 3, 45, 83
4, 33376, Note_on_c, 3, 45, 0
4, 33380, Note_on_c, 3, 43, 69
4, 33496, Note_on_c, 3, 43, 0
4, 33500, Note_on_c, 3, 42, 81
4, 33616, Note_on_c, 3, 42, 0
4, 33620, Note_on_c, 3, 43, 90
4, 33976, Note_on_c, 3, 43, 0
4, 33980, Note_on_c, 3, 42, 92
4, 34096, Note_on_c, 3, 42, 0
4, 34100, Note_on_c, 3, 40, 76
4, 34216, Note_on_c, 3, 40, 0
4, 34220, Note_on_c, 3, 38, 84
4, 34336, Note_on_c, 3, 38, 0
4, 34340, Note_on_c, 3, 40, 91
4, 34456, Note_on_c, 3, 40, 0
4, 34460, Note_on_c, 3, 42, 85
4, 34576, Note_on_c, 3, 42, 0
4, 34580, Note_on_c, 3, 43, 80
4, 34696, Note_on_c, 3, 43, 0
4, 34700, Note_on_c, 3, 42, 88
4, 34816, Note_on_c, 3, 42, 0
4, 34820, Note_on_c, 3, 43, 80
4, 34936, Note_on_c, 3, 43, 0
4, 34940, Note_on_c, 3, 45, 78
4, 35056, Note_on_c, 3, 45, 0
4, 35060, Note_on_c, 3, 43, 78
4, 35176, Note_on_c, 3, 43, 0
4, 35180, Note_on_c, 3, 42, 88
4, 35296, Note_on_c, 3, 42, 0
4, 35300, Note_on_c, 3, 40, 77
4, 35416, Note_on_c, 3, 40, 0
4, 35420, Note_on_c, 3, 42, 71
4, 35536, Note_on_c, 3, 42, 0
4, 35540, Note_on_c, 3, 43, 77
4, 35656, Note_on_c, 3, 43, 0
4, 35660, Note_on_c, 3, 40, 71
4, 35776, Note_on_c, 3, 40, 0
4, 35780, Note_on_c, 3, 42, 75
4, 35896, Note_on_c, 3, 42, 0
4, 35900, Note_on_c, 3, 43, 70
4, 36016, Note_on_c, 3, 43, 0
4, 36020, Note_on_c, 3, 45, 89
4, 36136, Note_on_c, 3, 45, 0
4, 36140, Note_on_c, 3, 43, 80
4, 36256, Note_on_c, 3, 43, 0
4, 36260, Note_on_c, 3, 45, 84
4, 36376, Note_on_c, 3, 45, 0
4, 36380, Note_on_c, 3, 47, 75
4, 36496, Note_on_c, 3, 47, 0
4, 36500, Note_on_c, 3, 45, 68
4, 36616, Note_on_c, 3, 45, 0
4, 36620, Note_on_c, 3, 43, 78
4, 36736, Note_on_c, 3, 43, 0
4, 36740, Note_on_c, 3, 42, 92
4, 36856, Note_on_c, 3, 42, 0
4, 36860, Note_on_c, 3, 54, 86
4, 36976, Note_on_c, 3, 54, 0
4, 36980, Note_on_c, 3, 55, 82
4, 37096, Note_on_c, 3, 55, 0
4, 37100, Note_on_c, 3, 54, 94
4, 37216, Note_on_c, 3, 54, 0
4, 37220, Note_on_c, 3, 52, 69
4, 37336, Note_on_c, 3, 52, 0
4, 37340, Note_on_c, 3, 54, 88
4, 37456, Note_on_c, 3, 54, 0
4, 37460, Note_on_c, 3, 47, 95
4, 37576, Note_on_c, 3, 47, 0
4, 37580, Note_on_c, 3, 45, 73
4, 37696, Note_on_c, 3, 45, 0
4, 37700, Note_on_c, 3, 47, 80
4, 37816, Note_on_c, 3, 47, 0
4, 37820, Note_on_c, 3, 48, 80
4, 37936, Note_on_c, 3, 48, 0
4, 37940, Note_on_c, 3, 50, 77
4, 38056, Note_on_c, 3, 50, 0
4, 38060, Note_on_c, 3, 47, 77
4, 38176, Note_on_c, 3, 47, 0
4, 38180, Note_on_c, 3, 49, 79
4, 38296, Note_on_c, 3, 49, 0
4, 38300, Note_on_c, 3, 50, 80
4, 38416, Note_on_c, 3, 50, 0
4, 38420, Note_on_c, 3, 52, 85
4, 38536, Note_on_c, 3, 52, 0
4, 38540, Note_on_c, 3, 50, 78
4, 38656, Note_on_c, 3, 50, 0
4, 38660, Note_on_c, 3, 49, 77
4, 38776, Note_on_c, 3, 49, 0
4, 38780, Note_on_c, 3, 47, 80
4, 38896, Note_on_c, 3, 47, 0
4, 38900, Note_on_c, 3, 45, 80
4, 39016, Note_on_c, 3, 45, 0
4, 39020, Note_on_c, 3, 52, 93
4, 39136, Note_on_c, 3, 52, 0
4, 39140, Note_on_c, 3, 50, 84
4, 39256, Note_on_c, 3, 50, 0
4, 39260, Note_on_c, 3, 49, 77
4, 39376, Note_on_c, 3, 49, 0
4, 39380, Note_on_c, 3, 50, 74
4, 39496, Note_on_c, 3, 50, 0
4, 39500, Note_on_c, 3, 47, 80
4, 39616, Note_on_c, 3, 47, 0
4, 39620, Note_on_c, 3, 49, 85
4, 39736, Note_on_c, 3, 49, 0
4, 39740, Note_on_c, 3, 45, 49
4, 39856, Note_on_c, 3, 45, 0
4, 39860, Note_on_c, 3, 47, 85
4, 39976, Note_on_c, 3, 47, 0
4, 39980, Note_on_c, 3, 49, 85
4, 40096, Note_on_c, 3, 49, 0
4, 40100, Note_on_c, 3, 50, 80
4, 40216, Note_on_c, 3, 50, 0
4, 40220, Note_on_c, 3, 52, 95
4, 40336, Note_on_c, 3, 52, 0
4, 40340, Note_on_c, 3, 54, 97
4, 40456, Note_on_c, 3, 54, 0
4, 40460, Note_on_c, 3, 47, 93
4, 40576, Note_on_c, 3, 47, 0
4, 40580, Note_on_c, 3, 49, 88
4, 40696, Note_on_c, 3, 49, 0
4, 40700, Note_on_c, 3, 50, 68
4, 40816, Note_on_c, 3, 50, 0
4, 40820, Note_on_c, 3, 52, 88
4, 40936, Note_on_c, 3, 52, 0
4, 40940, Note_on_c, 3, 54, 76
4, 41056, Note_on_c, 3, 54, 0
4, 41060, Note_on_c, 3, 55, 81
4, 41176, Note_on_c, 3, 55, 0
4, 41180, Note_on_c, 3, 54, 97
4, 41296, Note_on_c, 3, 54, 0
4, 41300, Note_on_c, 3, 52, 78
4, 41416, Note_on_c, 3, 52, 0
4, 41420, Note_on_c, 3, 50, 63
4, 41536, Note_on_c, 3, 50, 0
4, 41540, Note_on_c, 3, 52, 70
4, 41656, Note_on_c, 3, 52, 0
4, 41660, Note_on_c, 3, 46, 84
4, 41776, Note_on_c, 3, 46, 0
4, 41780, Note_on_c, 3, 47, 91
4, 41896, Note_on_c, 3, 47, 0
4, 41900, Note_on_c, 3, 49, 84
4, 42016, Note_on_c, 3, 49, 0
4, 42020, Note_on_c, 3, 50, 76
4, 42136, Note_on_c, 3, 50, 0
4, 42140, Note_on_c, 3, 49, 89
4, 42256, Note_on_c, 3, 49, 0
4, 42260, Note_on_c, 3, 47, 85
4, 42376, Note_on_c, 3, 47, 0
4, 42380, Note_on_c, 3, 45, 74
4, 42496, Note_on_c, 3, 45, 0
4, 42500, Note_on_c, 3, 43, 86
4, 42616, Note_on_c, 3, 43, 0
4, 42620, Note_on_c, 3, 42, 90
4, 42736, Note_on_c, 3, 42, 0
4, 42740, Note_on_c, 3, 43, 83
4, 42856, Note_on_c, 3, 43, 0
4, 42860, Note_on_c, 3, 47, 91
4, 42976, Note_on_c, 3, 47, 0
4, 42980, Note_on_c, 3, 45, 83
4, 43096, Note_on_c, 3, 45, 0
4, 43100, Note_on_c, 3, 43, 80
4, 43216, Note_on_c, 3, 43, 0
4, 43220, Note_on_c, 3, 42, 92
4, 43336, Note_on_c, 3, 42, 0
4, 43340, Note_on_c, 3, 45, 89
4, 43456, Note_on_c, 3, 45, 0
4, 43460, Note_on_c, 3, 43, 80
4, 43576, Note_on_c, 3, 43, 0
4, 43580, Note_on_c, 3, 42, 84
4, 43696, Note_on_c, 3, 42, 0
4, 43700, Note_on_c, 3, 40, 61
4, 43820, Note_on_c, 3, 40, 0
4, 43820, Note_on_c, 3, 38, 85
4, 43940, Note_on_c, 3, 38, 0
4, 43940, Note_on_c, 3, 43, 97
4, 44180, Note_on_c, 3, 43, 0
4, 44180, Note_on_c, 3, 40, 86
4, 44420, Note_on_c, 3, 40, 0
4, 44420, Note_on_c, 3, 45, 91
4, 44660, Note_on_c, 3, 45, 0
4, 44660, Note_on_c, 3, 38, 92
4, 44780, Note_on_c, 3, 38, 0
4, 44780, Note_on_c, 3, 42, 89
4, 44900, Note_on_c, 3, 42, 0
4, 44900, Note_on_c, 3, 45, 61
4, 45020, Note_on_c, 3, 45, 0
4, 45020, Note_on_c, 3, 50, 81
4, 45140, Note_on_c, 3, 50, 0
4, 45140, Note_on_c, 3, 45, 84
4, 45260, Note_on_c, 3, 45, 0
4, 45260, Note_on_c, 3, 42, 82
4, 45380, Note_on_c, 3, 42, 0
4, 45380, Note_on_c, 3, 38, 69
4, 46100, Note_on_c, 3, 38, 0
4, 46100, Note_on_c, 3, 50, 82
4, 46336, Note_on_c, 3, 50, 0
4, 47520, End_track
0, 0, End_of_file
