0, 0, Header, 1, 3, 480
1, 0, Start_track
1, 0, SMPTE_offset, 96, 0, 0, 0, 0
1, 0, Time_signature, 3, 2, 24, 8
1, 40, Tempo, 666666
1, 47520, End_track
2, 0, Start_track
2, 0, Title_t, "goldberg.mid"
2, 400, Note_on_c, 0, 59, 100
2, 400, Note_on_c, 0, 67, 117
2, 400, Note_on_c, 0, 62, 107
2, 516, Note_on_c, 0, 59, 0
2, 516, Note_on_c, 0, 67, 0
2, 516, Note_on_c, 0, 62, 0
2, 640, Note_on_c, 0, 62, 111
2, 640, Note_on_c, 0, 59, 107
2, 640, Note_on_c, 0, 67, 117
2, 756, Note_on_c, 0, 62, 0
2, 756, Note_on_c, 0, 59, 0
2, 756, Note_on_c, 0, 67, 0
2, 880, Note_on_c, 0, 59, 101
2, 880, Note_on_c, 0, 62, 109
2, 880, Note_on_c, 0, 67, 113
2, 996, Note_on_c, 0, 59, 0
2, 996, Note_on_c, 0, 62, 0
2, 996, Note_on_c, 0, 67, 0
2, 1120, Note_on_c, 0, 62, 109
2, 1120, Note_on_c, 0, 59, 106
2, 1120, Note_on_c, 0, 67, 113
2, 1236, Note_on_c, 0, 62, 0
2, 1236, Note_on_c, 0, 59, 0
2, 1236, Note_on_c, 0, 67, 0
2, 1360, Note_on_c, 0, 67, 121
2, 1360, Note_on_c, 0, 62, 117
2, 1360, Note_on_c, 0, 59, 115
2, 1476, Note_on_c, 0, 67, 0
2, 1476, Note_on_c, 0, 62, 0
2, 1476, Note_on_c, 0, 59, 0
2, 1840, Note_on_c, 0, 66, 99
2, 1840, Note_on_c, 0, 69, 111
2, 1840, Note_on_c, 0, 74, 119
2, 1956, Note_on_c, 0, 66, 0
2, 1956, Note_on_c, 0, 69, 0
2, 1956, Note_on_c, 0, 74, 0
2, 2080, Note_on_c, 0, 69, 106
2, 2080, Note_on_c, 0, 66, 94
2, 2080, Note_on_c, 0, 74, 117
2, 2196, Note_on_c, 0, 69, 0
2, 2196, Note_on_c, 0, 66, 0
2, 2196, Note_on_c, 0, 74, 0
2, 2320, Note_on_c, 0, 69, 109
2, 2320, Note_on_c, 0, 66, 104
2, 2320, Note_on_c, 0, 74, 113
2, 2436, Note_on_c, 0, 69, 0
2, 2436, Note_on_c, 0, 66, 0
2, 2436, Note_on_c, 0, 74, 0
2, 2560, Note_on_c, 0, 66, 104
2, 2560, Note_on_c, 0, 69, 111
2, 2560, Note_on_c, 0, 74, 119
2, 2676, Note_on_c, 0, 66, 0
2, 2676, Note_on_c, 0, 69, 0
2, 2676, Note_on_c, 0, 74, 0
2, 2800, Note_on_c, 0, 66, 102
2, 2800, Note_on_c, 0, 74, 113
2, 2800, Note_on_c, 0, 69, 106
2, 2916, Note_on_c, 0, 66, 0
2, 2916, Note_on_c, 0, 74, 0
2, 2916, Note_on_c, 0, 69, 0
2, 3280, Note_on_c, 0, 76, 113
2, 3280, Note_on_c, 0, 71, 100
2, 3280, Note_on_c, 0, 79, 113
2, 3396, Note_on_c, 0, 76, 0
2, 3396, Note_on_c, 0, 71, 0
2, 3396, Note_on_c, 0, 79, 0
2, 3520, Note_on_c, 0, 79, 109
2, 3520, Note_on_c, 0, 76, 111
2, 3520, Note_on_c, 0, 71, 106
2, 3636, Note_on_c, 0, 79, 0
2, 3636, Note_on_c, 0, 76, 0
2, 3636, Note_on_c, 0, 71, 0
2, 3760, Note_on_c, 0, 79, 109
2, 3760, Note_on_c, 0, 76, 113
2, 3760, Note_on_c, 0, 71, 102
2, 3876, Note_on_c, 0, 79, 0
2, 3876, Note_on_c, 0, 76, 0
2, 3876, Note_on_c, 0, 71, 0
2, 4000, Note_on_c, 0, 79, 113
2, 4000, Note_on_c, 0, 76, 111
2, 4000, Note_on_c, 0, 71, 107
2, 4116, Note_on_c, 0, 79, 0
2, 4116, Note_on_c, 0, 76, 0
2, 4116, Note_on_c, 0, 71, 0
2, 4240, Note_on_c, 0, 73, 115
2, 4240, Note_on_c, 0, 76, 119
2, 4240, Note_on_c, 0, 79, 119
2, 4356, Note_on_c, 0, 73, 0
2, 4356, Note_on_c, 0, 76, 0
2, 4356, Note_on_c, 0, 79, 0
2, 4360, Note_on_c, 0, 74, 102
2, 4360, Note_on_c, 0, 69, 82
2, 4360, Note_on_c, 0, 78, 112
2, 4476, Note_on_c, 0, 74, 0
2, 4476, Note_on_c, 0, 69, 0
2, 4476, Note_on_c, 0, 78, 0
2, 4920, Note_on_c, 0, 84, 95
2, 4996, Note_on_c, 0, 84, 0
2, 5000, Note_on_c, 0, 83, 109
2, 5076, Note_on_c, 0, 83, 0
2, 5080, Note_on_c, 0, 72, 104
2, 5156, Note_on_c, 0, 72, 0
2, 5160, Note_on_c, 0, 83, 107
2, 5236, Note_on_c, 0, 83, 0
2, 5240, Note_on_c, 0, 81, 97
2, 5316, Note_on_c, 0, 81, 0
2, 5320, Note_on_c, 0, 71, 84
2, 5396, Note_on_c, 0, 71, 0
2, 5400, Note_on_c, 0, 81, 106
2, 5476, Note_on_c, 0, 81, 0
2, 5480, Note_on_c, 0, 79, 95
2, 5556, Note_on_c, 0, 79, 0
2, 5560, Note_on_c, 0, 69, 93
2, 5636, Note_on_c, 0, 69, 0
2, 5640, Note_on_c, 0, 79, 107
2, 5716, Note_on_c, 0, 79, 0
2, 5720, Note_on_c, 0, 78, 102
2, 5796, Note_on_c, 0, 78, 0
2, 5800, Note_on_c, 0, 74, 113
2, 5800, Note_on_c, 0, 79, 113
2, 5800, Note_on_c, 0, 71, 107
2, 6036, Note_on_c, 0, 74, 0
2, 6036, Note_on_c, 0, 79, 0
2, 6036, Note_on_c, 0, 71, 0
2, 6160, Note_on_c, 0, 71, 104
2, 6160, Note_on_c, 0, 74, 106
2, 6160, Note_on_c, 0, 79, 107
2, 6276, Note_on_c, 0, 71, 0
2, 6276, Note_on_c, 0, 74, 0
2, 6276, Note_on_c, 0, 79, 0
2, 6400, Note_on_c, 0, 71, 96
2, 6400, Note_on_c, 0, 79, 109
2, 6400, Note_on_c, 0, 74, 106
2, 6516, Note_on_c, 0, 71, 0
2, 6516, Note_on_c, 0, 79, 0
2, 6516, Note_on_c, 0, 74, 0
2, 6640, Note_on_c, 0, 74, 102
2, 6640, Note_on_c, 0, 71, 98
2, 6640, Note_on_c, 0, 79, 102
2, 6756, Note_on_c, 0, 74, 0
2, 6756, Note_on_c, 0, 71, 0
2, 6756, Note_on_c, 0, 79, 0
2, 6880, Note_on_c, 0, 79, 106
2, 6880, Note_on_c, 0, 71, 100
2, 6880, Note_on_c, 0, 74, 104
2, 6996, Note_on_c, 0, 79, 0
2, 6996, Note_on_c, 0, 71, 0
2, 6996, Note_on_c, 0, 74, 0
2, 7120, Note_on_c, 0, 74, 109
2, 7120, Note_on_c, 0, 71, 109
2, 7120, Note_on_c, 0, 77, 111
2, 7236, Note_on_c, 0, 74, 0
2, 7236, Note_on_c, 0, 71, 0
2, 7236, Note_on_c, 0, 77, 0
2, 7600, Note_on_c, 0, 72, 102
2, 7600, Note_on_c, 0, 67, 104
2, 7600, Note_on_c, 0, 76, 117
2, 7716, Note_on_c, 0, 72, 0
2, 7716, Note_on_c, 0, 67, 0
2, 7716, Note_on_c, 0, 76, 0
2, 7840, Note_on_c, 0, 72, 102
2, 7840, Note_on_c, 0, 67, 97
2, 7840, Note_on_c, 0, 76, 109
2, 7956, Note_on_c, 0, 72, 0
2, 7956, Note_on_c, 0, 67, 0
2, 7956, Note_on_c, 0, 76, 0
2, 8080, Note_on_c, 0, 72, 101
2, 8080, Note_on_c, 0, 76, 102
2, 8080, Note_on_c, 0, 67, 97
2, 8196, Note_on_c, 0, 72, 0
2, 8196, Note_on_c, 0, 76, 0
2, 8196, Note_on_c, 0, 67, 0
2, 8320, Note_on_c, 0, 72, 111
2, 8320, Note_on_c, 0, 67, 101
2, 8320, Note_on_c, 0, 76, 104
2, 8436, Note_on_c, 0, 72, 0
2, 8436, Note_on_c, 0, 67, 0
2, 8436, Note_on_c, 0, 76, 0
2, 8560, Note_on_c, 0, 72, 107
2, 8560, Note_on_c, 0, 76, 111
2, 8560, Note_on_c, 0, 67, 104
2, 8676, Note_on_c, 0, 72, 0
2, 8676, Note_on_c, 0, 76, 0
2, 8676, Note_on_c, 0, 67, 0
2, 9040, Note_on_c, 0, 66, 115
2, 9040, Note_on_c, 0, 69, 107
2, 9040, Note_on_c, 0, 74, 104
2, 9156, Note_on_c, 0, 66, 0
2, 9156, Note_on_c, 0, 69, 0
2, 9156, Note_on_c, 0, 74, 0
2, 9280, Note_on_c, 0, 66, 108
2, 9280, Note_on_c, 0, 74, 104
2, 9280, Note_on_c, 0, 69, 106
2, 9396, Note_on_c, 0, 66, 0
2, 9396, Note_on_c, 0, 74, 0
2, 9396, Note_on_c, 0, 69, 0
2, 9520, Note_on_c, 0, 74, 96
2, 9520, Note_on_c, 0, 66, 108
2, 9520, Note_on_c, 0, 69, 102
2, 9636, Note_on_c, 0, 74, 0
2, 9636, Note_on_c, 0, 66, 0
2, 9636, Note_on_c, 0, 69, 0
2, 9760, Note_on_c, 0, 66, 117
2, 9760, Note_on_c, 0, 74, 95
2, 9760, Note_on_c, 0, 69, 109
2, 9876, Note_on_c, 0, 66, 0
2, 9876, Note_on_c, 0, 74, 0
2, 9876, Note_on_c, 0, 69, 0
2, 10000, Note_on_c, 0, 69, 106
2, 10000, Note_on_c, 0, 66, 110
2, 10000, Note_on_c, 0, 72, 111
2, 10116, Note_on_c, 0, 69, 0
2, 10116, Note_on_c, 0, 66, 0
2, 10116, Note_on_c, 0, 72, 0
2, 10120, Note_on_c, 0, 67, 101
2, 10120, Note_on_c, 0, 71, 107
2, 10120, Note_on_c, 0, 62, 106
2, 10236, Note_on_c, 0, 67, 0
2, 10236, Note_on_c, 0, 71, 0
2, 10236, Note_on_c, 0, 62, 0
2, 10680, Note_on_c, 0, 69, 101
2, 10756, Note_on_c, 0, 69, 0
2, 10760, Note_on_c, 0, 71, 111
2, 10836, Note_on_c, 0, 71, 0
2, 10840, Note_on_c, 0, 72, 102
2, 10916, Note_on_c, 0, 72, 0
2, 10920, Note_on_c, 0, 71, 100
2, 10996, Note_on_c, 0, 71, 0
2, 11000, Note_on_c, 0, 69, 98
2, 11076, Note_on_c, 0, 69, 0
2, 11080, Note_on_c, 0, 71, 106
2, 11156, Note_on_c, 0, 71, 0
2, 11160, Note_on_c, 0, 69, 97
2, 11236, Note_on_c, 0, 69, 0
2, 11240, Note_on_c, 0, 67, 95
2, 11316, Note_on_c, 0, 67, 0
2, 11320, Note_on_c, 0, 76, 109
2, 11396, Note_on_c, 0, 76, 0
2, 11400, Note_on_c, 0, 74, 100
2, 11476, Note_on_c, 0, 74, 0
2, 11480, Note_on_c, 0, 72, 117
2, 11556, Note_on_c, 0, 72, 0
2, 11560, Note_on_c, 0, 74, 106
2, 11636, Note_on_c, 0, 74, 0
2, 11720, Note_on_c, 0, 67, 96
2, 11796, Note_on_c, 0, 67, 0
2, 11800, Note_on_c, 0, 66, 106
2, 11876, Note_on_c, 0, 66, 0
2, 11880, Note_on_c, 0, 60, 111
2, 11956, Note_on_c, 0, 60, 0
2, 12200, Note_on_c, 0, 67, 117
2, 12276, Note_on_c, 0, 67, 0
2, 12280, Note_on_c, 0, 69, 113
2, 12356, Note_on_c, 0, 69, 0
2, 12360, Note_on_c, 0, 66, 101
2, 12436, Note_on_c, 0, 66, 0
2, 12680, Note_on_c, 0, 71, 113
2, 12756, Note_on_c, 0, 71, 0
2, 12760, Note_on_c, 0, 73, 119
2, 12836, Note_on_c, 0, 73, 0
2, 12840, Note_on_c, 0, 69, 109
2, 12916, Note_on_c, 0, 69, 0
2, 13160, Note_on_c, 0, 74, 117
2, 13236, Note_on_c, 0, 74, 0
2, 13240, Note_on_c, 0, 73, 115
2, 13316, Note_on_c, 0, 73, 0
2, 13320, Note_on_c, 0, 67, 104
2, 13396, Note_on_c, 0, 67, 0
2, 13640, Note_on_c, 0, 74, 107
2, 13716, Note_on_c, 0, 74, 0
2, 13720, Note_on_c, 0, 76, 107
2, 13796, Note_on_c, 0, 76, 0
2, 13800, Note_on_c, 0, 73, 115
2, 13876, Note_on_c, 0, 73, 0
2, 14120, Note_on_c, 0, 78, 108
2, 14196, Note_on_c, 0, 78, 0
2, 14200, Note_on_c, 0, 74, 104
2, 14276, Note_on_c, 0, 74, 0
2, 14280, Note_on_c, 0, 71, 107
2, 14356, Note_on_c, 0, 71, 0
2, 14600, Note_on_c, 0, 72, 109
2, 14676, Note_on_c, 0, 72, 0
2, 14680, Note_on_c, 0, 71, 107
2, 14756, Note_on_c, 0, 71, 0
2, 14760, Note_on_c, 0, 67, 102
2, 14836, Note_on_c, 0, 67, 0
2, 15080, Note_on_c, 0, 69, 111
2, 15156, Note_on_c, 0, 69, 0
2, 15160, Note_on_c, 0, 67, 102
2, 15236, Note_on_c, 0, 67, 0
2, 15240, Note_on_c, 0, 64, 111
2, 15316, Note_on_c, 0, 64, 0
2, 15560, Note_on_c, 0, 66, 110
2, 15636, Note_on_c, 0, 66, 0
2, 15640, Note_on_c, 0, 64, 109
2, 15716, Note_on_c, 0, 64, 0
2, 15720, Note_on_c, 0, 61, 121
2, 15796, Note_on_c, 0, 61, 0
2, 16040, Note_on_c, 0, 66, 115
2, 16116, Note_on_c, 0, 66, 0
2, 16120, Note_on_c, 0, 64, 109
2, 16196, Note_on_c, 0, 64, 0
2, 16200, Note_on_c, 0, 61, 119
2, 16276, Note_on_c, 0, 61, 0
2, 16520, Note_on_c, 0, 62, 117
2, 16596, Note_on_c, 0, 62, 0
2, 16600, Note_on_c, 0, 61, 110
2, 16676, Note_on_c, 0, 61, 0
2, 16680, Note_on_c, 0, 57, 109
2, 16756, Note_on_c, 0, 57, 0
2, 17000, Note_on_c, 0, 59, 104
2, 17076, Note_on_c, 0, 59, 0
2, 17080, Note_on_c, 0, 57, 100
2, 17156, Note_on_c, 0, 57, 0
2, 17160, Note_on_c, 0, 54, 117
2, 17236, Note_on_c, 0, 54, 0
2, 17480, Note_on_c, 0, 59, 115
2, 17556, Note_on_c, 0, 59, 0
2, 17560, Note_on_c, 0, 57, 106
2, 17636, Note_on_c, 0, 57, 0
2, 17640, Note_on_c, 0, 54, 117
2, 17716, Note_on_c, 0, 54, 0
2, 17960, Note_on_c, 0, 55, 90
2, 18036, Note_on_c, 0, 55, 0
2, 18040, Note_on_c, 0, 54, 101
2, 18116, Note_on_c, 0, 54, 0
2, 18120, Note_on_c, 0, 50, 100
2, 18196, Note_on_c, 0, 50, 0
2, 18440, Note_on_c, 0, 52, 113
2, 18516, Note_on_c, 0, 52, 0
2, 18520, Note_on_c, 0, 50, 101
2, 18596, Note_on_c, 0, 50, 0
2, 18600, Note_on_c, 0, 47, 115
2, 18676, Note_on_c, 0, 47, 0
2, 18920, Note_on_c, 0, 52, 107
2, 18996, Note_on_c, 0, 52, 0
2, 19000, Note_on_c, 0, 50, 102
2, 19076, Note_on_c, 0, 50, 0
2, 19080, Note_on_c, 0, 47, 104
2, 19156, Note_on_c, 0, 47, 0
2, 19400, Note_on_c, 0, 48, 113
2, 19476, Note_on_c, 0, 48, 0
2, 19480, Note_on_c, 0, 47, 106
2, 19556, Note_on_c, 0, 47, 0
2, 19560, Note_on_c, 0, 43, 100
2, 19636, Note_on_c, 0, 43, 0
2, 19880, Note_on_c, 0, 45, 100
2, 19956, Note_on_c, 0, 45, 0
2, 19960, Note_on_c, 0, 43, 98
2, 20036, Note_on_c, 0, 43, 0
2, 20040, Note_on_c, 0, 40, 101
2, 20116, Note_on_c, 0, 40, 0
2, 20280, Note_on_c, 0, 55, 113
2, 20356, Note_on_c, 0, 55, 0
2, 20360, Note_on_c, 0, 57, 104
2, 20436, Note_on_c, 0, 57, 0
2, 20440, Note_on_c, 0, 64, 121
2, 20516, Note_on_c, 0, 64, 0
2, 20520, Note_on_c, 0, 57, 102
2, 20596, Note_on_c, 0, 57, 0
2, 20600, Note_on_c, 0, 55, 111
2, 20676, Note_on_c, 0, 55, 0
2, 20760, Note_on_c, 0, 54, 110
2, 20836, Note_on_c, 0, 54, 0
2, 20840, Note_on_c, 0, 57, 111
2, 20916, Note_on_c, 0, 57, 0
2, 20920, Note_on_c, 0, 62, 113
2, 20996, Note_on_c, 0, 62, 0
2, 21000, Note_on_c, 0, 57, 102
2, 21076, Note_on_c, 0, 57, 0
2, 21080, Note_on_c, 0, 54, 119
2, 21156, Note_on_c, 0, 54, 0
2, 21240, Note_on_c, 0, 52, 102
2, 21316, Note_on_c, 0, 52, 0
2, 21320, Note_on_c, 0, 55, 107
2, 21396, Note_on_c, 0, 55, 0
2, 21400, Note_on_c, 0, 61, 106
2, 21476, Note_on_c, 0, 61, 0
2, 21480, Note_on_c, 0, 55, 100
2, 21556, Note_on_c, 0, 55, 0
2, 21560, Note_on_c, 0, 52, 111
2, 21636, Note_on_c, 0, 52, 0
2, 22000, Note_on_c, 0, 62, 106
2, 22000, Note_on_c, 0, 54, 115
2, 22000, Note_on_c, 0, 57, 107
2, 22116, Note_on_c, 0, 62, 0
2, 22116, Note_on_c, 0, 54, 0
2, 22116, Note_on_c, 0, 57, 0
2, 22240, Note_on_c, 0, 54, 115
2, 22240, Note_on_c, 0, 62, 111
2, 22240, Note_on_c, 0, 57, 111
2, 22356, Note_on_c, 0, 54, 0
2, 22356, Note_on_c, 0, 62, 0
2, 22356, Note_on_c, 0, 57, 0
2, 22480, Note_on_c, 0, 62, 106
2, 22480, Note_on_c, 0, 54, 112
2, 22480, Note_on_c, 0, 57, 113
2, 22596, Note_on_c, 0, 62, 0
2, 22596, Note_on_c, 0, 54, 0
2, 22596, Note_on_c, 0, 57, 0
2, 23240, Note_on_c, 0, 83, 111
2, 23316, Note_on_c, 0, 83, 0
2, 23320, Note_on_c, 0, 81, 98
2, 23396, Note_on_c, 0, 81, 0
2, 23400, Note_on_c, 0, 78, 102
2, 23476, Note_on_c, 0, 78, 0
2, 23720, Note_on_c, 0, 79, 100
2, 23796, Note_on_c, 0, 79, 0
2, 23800, Note_on_c, 0, 78, 97
2, 23876, Note_on_c, 0, 78, 0
2, 23880, Note_on_c, 0, 74, 100
2, 23956, Note_on_c, 0, 74, 0
2, 24200, Note_on_c, 0, 76, 97
2, 24276, Note_on_c, 0, 76, 0
2, 24280, Note_on_c, 0, 74, 97
2, 24356, Note_on_c, 0, 74, 0
2, 24360, Note_on_c, 0, 71, 98
2, 24436, Note_on_c, 0, 71, 0
2, 24680, Note_on_c, 0, 76, 97
2, 24756, Note_on_c, 0, 76, 0
2, 24760, Note_on_c, 0, 74, 93
2, 24836, Note_on_c, 0, 74, 0
2, 24840, Note_on_c, 0, 71, 107
2, 24916, Note_on_c, 0, 71, 0
2, 25160, Note_on_c, 0, 72, 100
2, 25236, Note_on_c, 0, 72, 0
2, 25240, Note_on_c, 0, 71, 95
2, 25316, Note_on_c, 0, 71, 0
2, 25320, Note_on_c, 0, 67, 102
2, 25396, Note_on_c, 0, 67, 0
2, 25640, Note_on_c, 0, 69, 96
2, 25716, Note_on_c, 0, 69, 0
2, 25720, Note_on_c, 0, 67, 96
2, 25796, Note_on_c, 0, 67, 0
2, 25800, Note_on_c, 0, 64, 89
2, 25876, Note_on_c, 0, 64, 0
2, 26120, Note_on_c, 0, 65, 93
2, 26196, Note_on_c, 0, 65, 0
2, 26200, Note_on_c, 0, 64, 102
2, 26276, Note_on_c, 0, 64, 0
2, 26280, Note_on_c, 0, 60, 102
2, 26356, Note_on_c, 0, 60, 0
2, 26600, Note_on_c, 0, 62, 96
2, 26676, Note_on_c, 0, 62, 0
2, 26680, Note_on_c, 0, 60, 102
2, 26756, Note_on_c, 0, 60, 0
2, 26760, Note_on_c, 0, 57, 106
2, 26836, Note_on_c, 0, 57, 0
2, 27080, Note_on_c, 0, 59, 101
2, 27156, Note_on_c, 0, 59, 0
2, 27160, Note_on_c, 0, 57, 97
2, 27236, Note_on_c, 0, 57, 0
2, 27240, Note_on_c, 0, 54, 112
2, 27316, Note_on_c, 0, 54, 0
2, 27560, Note_on_c, 0, 55, 97
2, 27636, Note_on_c, 0, 55, 0
2, 27640, Note_on_c, 0, 54, 110
2, 27716, Note_on_c, 0, 54, 0
2, 27720, Note_on_c, 0, 51, 117
2, 27796, Note_on_c, 0, 51, 0
2, 28040, Note_on_c, 0, 52, 104
2, 28116, Note_on_c, 0, 52, 0
2, 28120, Note_on_c, 0, 51, 108
2, 28196, Note_on_c, 0, 51, 0
2, 28200, Note_on_c, 0, 47, 121
2, 28276, Note_on_c, 0, 47, 0
2, 28520, Note_on_c, 0, 48, 113
2, 28596, Note_on_c, 0, 48, 0
2, 28600, Note_on_c, 0, 47, 109
2, 28676, Note_on_c, 0, 47, 0
2, 28680, Note_on_c, 0, 43, 113
2, 28756, Note_on_c, 0, 43, 0
2, 29200, Note_on_c, 0, 71, 102
2, 29200, Note_on_c, 0, 67, 101
2, 29200, Note_on_c, 0, 76, 109
2, 29316, Note_on_c, 0, 71, 0
2, 29316, Note_on_c, 0, 67, 0
2, 29316, Note_on_c, 0, 76, 0
2, 29440, Note_on_c, 0, 71, 102
2, 29440, Note_on_c, 0, 67, 95
2, 29440, Note_on_c, 0, 76, 102
2, 29556, Note_on_c, 0, 71, 0
2, 29556, Note_on_c, 0, 67, 0
2, 29556, Note_on_c, 0, 76, 0
2, 29680, Note_on_c, 0, 67, 100
2, 29680, Note_on_c, 0, 71, 106
2, 29680, Note_on_c, 0, 76, 97
2, 29796, Note_on_c, 0, 67, 0
2, 29796, Note_on_c, 0, 71, 0
2, 29796, Note_on_c, 0, 76, 0
2, 29920, Note_on_c, 0, 71, 104
2, 29920, Note_on_c, 0, 76, 101
2, 29920, Note_on_c, 0, 67, 97
2, 30036, Note_on_c, 0, 71, 0
2, 30036, Note_on_c, 0, 76, 0
2, 30036, Note_on_c, 0, 67, 0
2, 30160, Note_on_c, 0, 71, 111
2, 30160, Note_on_c, 0, 67, 101
2, 30160, Note_on_c, 0, 76, 107
2, 30276, Note_on_c, 0, 71, 0
2, 30276, Note_on_c, 0, 67, 0
2, 30276, Note_on_c, 0, 76, 0
2, 30640, Note_on_c, 0, 71, 104
2, 30640, Note_on_c, 0, 76, 98
2, 30640, Note_on_c, 0, 67, 90
2, 30756, Note_on_c, 0, 71, 0
2, 30756, Note_on_c, 0, 76, 0
2, 30756, Note_on_c, 0, 67, 0
2, 30880, Note_on_c, 0, 76, 90
2, 30880, Note_on_c, 0, 67, 96
2, 30880, Note_on_c, 0, 71, 102
2, 30996, Note_on_c, 0, 76, 0
2, 30996, Note_on_c, 0, 67, 0
2, 30996, Note_on_c, 0, 71, 0
2, 31120, Note_on_c, 0, 71, 101
2, 31120, Note_on_c, 0, 76, 93
2, 31120, Note_on_c, 0, 67, 98
2, 31236, Note_on_c, 0, 71, 0
2, 31236, Note_on_c, 0, 76, 0
2, 31236, Note_on_c, 0, 67, 0
2, 31360, Note_on_c, 0, 71, 102
2, 31360, Note_on_c, 0, 76, 106
2, 31360, Note_on_c, 0, 67, 100
2, 31476, Note_on_c, 0, 71, 0
2, 31476, Note_on_c, 0, 76, 0
2, 31476, Note_on_c, 0, 67, 0
2, 31600, Note_on_c, 0, 67, 102
2, 31600, Note_on_c, 0, 71, 107
2, 31600, Note_on_c, 0, 76, 111
2, 31716, Note_on_c, 0, 67, 0
2, 31716, Note_on_c, 0, 71, 0
2, 31716, Note_on_c, 0, 76, 0
2, 31800, Note_on_c, 0, 78, 101
2, 31876, Note_on_c, 0, 78, 0
2, 31880, Note_on_c, 0, 79, 104
2, 31956, Note_on_c, 0, 79, 0
2, 31960, Note_on_c, 0, 81, 106
2, 32036, Note_on_c, 0, 81, 0
2, 32040, Note_on_c, 0, 83, 117
2, 32116, Note_on_c, 0, 83, 0
2, 32120, Note_on_c, 0, 84, 102
2, 32276, Note_on_c, 0, 84, 0
2, 32280, Note_on_c, 0, 83, 111
2, 32356, Note_on_c, 0, 83, 0
2, 32360, Note_on_c, 0, 81, 104
2, 32436, Note_on_c, 0, 81, 0
2, 32440, Note_on_c, 0, 79, 102
2, 32516, Note_on_c, 0, 79, 0
2, 32520, Note_on_c, 0, 78, 106
2, 32596, Note_on_c, 0, 78, 0
2, 32600, Note_on_c, 0, 76, 111
2, 32676, Note_on_c, 0, 76, 0
2, 32680, Note_on_c, 0, 75, 104
2, 32756, Note_on_c, 0, 75, 0
2, 32760, Note_on_c, 0, 72, 113
2, 32836, Note_on_c, 0, 72, 0
2, 32840, Note_on_c, 0, 71, 104
2, 32916, Note_on_c, 0, 71, 0
2, 32920, Note_on_c, 0, 69, 101
2, 32996, Note_on_c, 0, 69, 0
2, 33000, Note_on_c, 0, 67, 111
2, 33076, Note_on_c, 0, 67, 0
2, 33080, Note_on_c, 0, 66, 108
2, 33156, Note_on_c, 0, 66, 0
2, 33160, Note_on_c, 0, 64, 119
2, 33276, Note_on_c, 0, 64, 0
2, 33280, Note_on_c, 0, 67, 102
2, 33280, Note_on_c, 0, 71, 109
2, 33280, Note_on_c, 0, 76, 117
2, 33396, Note_on_c, 0, 67, 0
2, 33396, Note_on_c, 0, 71, 0
2, 33396, Note_on_c, 0, 76, 0
2, 33520, Note_on_c, 0, 71, 91
2, 33520, Note_on_c, 0, 67, 93
2, 33520, Note_on_c, 0, 76, 100
2, 33636, Note_on_c, 0, 71, 0
2, 33636, Note_on_c, 0, 67, 0
2, 33636, Note_on_c, 0, 76, 0
2, 33760, Note_on_c, 0, 72, 104
2, 33760, Note_on_c, 0, 67, 106
2, 33760, Note_on_c, 0, 64, 104
2, 33876, Note_on_c, 0, 72, 0
2, 33876, Note_on_c, 0, 67, 0
2, 33876, Note_on_c, 0, 64, 0
2, 34000, Note_on_c, 0, 72, 107
2, 34000, Note_on_c, 0, 67, 102
2, 34000, Note_on_c, 0, 64, 106
2, 34116, Note_on_c, 0, 72, 0
2, 34116, Note_on_c, 0, 67, 0
2, 34116, Note_on_c, 0, 64, 0
2, 34240, Note_on_c, 0, 64, 115
2, 34240, Note_on_c, 0, 59, 113
2, 34240, Note_on_c, 0, 67, 111
2, 34356, Note_on_c, 0, 64, 0
2, 34356, Note_on_c, 0, 59, 0
2, 34356, Note_on_c, 0, 67, 0
2, 34480, Note_on_c, 0, 64, 107
2, 34480, Note_on_c, 0, 59, 107
2, 34480, Note_on_c, 0, 67, 104
2, 34596, Note_on_c, 0, 64, 0
2, 34596, Note_on_c, 0, 59, 0
2, 34596, Note_on_c, 0, 67, 0
2, 34680, Note_on_c, 0, 52, 119
2, 34756, Note_on_c, 0, 52, 0
2, 34760, Note_on_c, 0, 53, 113
2, 34836, Note_on_c, 0, 53, 0
2, 34840, Note_on_c, 0, 54, 112
2, 34916, Note_on_c, 0, 54, 0
2, 34920, Note_on_c, 0, 55, 113
2, 34996, Note_on_c, 0, 55, 0
2, 35000, Note_on_c, 0, 56, 115
2, 35076, Note_on_c, 0, 56, 0
2, 35160, Note_on_c, 0, 59, 104
2, 35236, Note_on_c, 0, 59, 0
2, 35240, Note_on_c, 0, 60, 111
2, 35316, Note_on_c, 0, 60, 0
2, 35320, Note_on_c, 0, 62, 111
2, 35396, Note_on_c, 0, 62, 0
2, 35400, Note_on_c, 0, 60, 115
2, 35476, Note_on_c, 0, 60, 0
2, 35480, Note_on_c, 0, 59, 113
2, 35556, Note_on_c, 0, 59, 0
2, 35560, Note_on_c, 0, 60, 117
2, 35636, Note_on_c, 0, 60, 0
2, 35640, Note_on_c, 0, 62, 107
2, 35716, Note_on_c, 0, 62, 0
2, 35720, Note_on_c, 0, 64, 115
2, 35796, Note_on_c, 0, 64, 0
2, 35800, Note_on_c, 0, 66, 108
2, 35876, Note_on_c, 0, 66, 0
2, 35880, Note_on_c, 0, 67, 107
2, 35956, Note_on_c, 0, 67, 0
2, 35960, Note_on_c, 0, 69, 109
2, 36036, Note_on_c, 0, 69, 0
2, 36120, Note_on_c, 0, 50, 117
2, 36196, Note_on_c, 0, 50, 0
2, 36200, Note_on_c, 0, 51, 115
2, 36276, Note_on_c, 0, 51, 0
2, 36280, Note_on_c, 0, 52, 113
2, 36356, Note_on_c, 0, 52, 0
2, 36360, Note_on_c, 0, 53, 107
2, 36436, Note_on_c, 0, 53, 0
2, 36440, Note_on_c, 0, 54, 121
2, 36516, Note_on_c, 0, 54, 0
2, 36600, Note_on_c, 0, 57, 107
2, 36676, Note_on_c, 0, 57, 0
2, 36680, Note_on_c, 0, 59, 115
2, 36756, Note_on_c, 0, 59, 0
2, 36760, Note_on_c, 0, 60, 119
2, 36836, Note_on_c, 0, 60, 0
2, 36840, Note_on_c, 0, 59, 113
2, 36916, Note_on_c, 0, 59, 0
2, 36920, Note_on_c, 0, 57, 107
2, 36996, Note_on_c, 0, 57, 0
2, 37000, Note_on_c, 0, 59, 121
2, 37076, Note_on_c, 0, 59, 0
2, 37080, Note_on_c, 0, 60, 106
2, 37156, Note_on_c, 0, 60, 0
2, 37160, Note_on_c, 0, 62, 117
2, 37236, Note_on_c, 0, 62, 0
2, 37240, Note_on_c, 0, 64, 113
2, 37316, Note_on_c, 0, 64, 0
2, 37320, Note_on_c, 0, 66, 110
2, 37396, Note_on_c, 0, 66, 0
2, 37400, Note_on_c, 0, 67, 113
2, 37476, Note_on_c, 0, 67, 0
2, 37480, Note_on_c, 0, 60, 115
2, 37556, Note_on_c, 0, 60, 0
2, 37640, Note_on_c, 0, 65, 90
2, 37716, Note_on_c, 0, 65, 0
2, 37720, Note_on_c, 0, 64, 104
2, 37796, Note_on_c, 0, 64, 0
2, 37800, Note_on_c, 0, 60, 101
2, 37876, Note_on_c, 0, 60, 0
2, 38120, Note_on_c, 0, 62, 104
2, 38196, Note_on_c, 0, 62, 0
2, 38200, Note_on_c, 0, 60, 101
2, 38276, Note_on_c, 0, 60, 0
2, 38280, Note_on_c, 0, 57, 101
2, 38356, Note_on_c, 0, 57, 0
2, 38600, Note_on_c, 0, 59, 98
2, 38676, Note_on_c, 0, 59, 0
2, 38680, Note_on_c, 0, 57, 107
2, 38756, Note_on_c, 0, 57, 0
2, 38760, Note_on_c, 0, 54, 117
2, 38836, Note_on_c, 0, 54, 0
2, 39080, Note_on_c, 0, 71, 101
2, 39156, Note_on_c, 0, 71, 0
2, 39160, Note_on_c, 0, 69, 93
2, 39236, Note_on_c, 0, 69, 0
2, 39240, Note_on_c, 0, 66, 106
2, 39316, Note_on_c, 0, 66, 0
2, 39560, Note_on_c, 0, 67, 98
2, 39636, Note_on_c, 0, 67, 0
2, 39640, Note_on_c, 0, 66, 97
2, 39716, Note_on_c, 0, 66, 0
2, 39720, Note_on_c, 0, 62, 102
2, 39796, Note_on_c, 0, 62, 0
2, 40040, Note_on_c, 0, 64, 107
2, 40116, Note_on_c, 0, 64, 0
2, 40120, Note_on_c, 0, 62, 106
2, 40196, Note_on_c, 0, 62, 0
2, 40200, Note_on_c, 0, 59, 104
2, 40276, Note_on_c, 0, 59, 0
2, 40520, Note_on_c, 0, 76, 115
2, 40596, Note_on_c, 0, 76, 0
2, 40600, Note_on_c, 0, 74, 101
2, 40676, Note_on_c, 0, 74, 0
2, 40680, Note_on_c, 0, 71, 109
2, 40756, Note_on_c, 0, 71, 0
2, 41000, Note_on_c, 0, 72, 102
2, 41076, Note_on_c, 0, 72, 0
2, 41080, Note_on_c, 0, 71, 104
2, 41156, Note_on_c, 0, 71, 0
2, 41160, Note_on_c, 0, 67, 111
2, 41236, Note_on_c, 0, 67, 0
2, 41480, Note_on_c, 0, 69, 113
2, 41556, Note_on_c, 0, 69, 0
2, 41560, Note_on_c, 0, 67, 102
2, 41636, Note_on_c, 0, 67, 0
2, 41640, Note_on_c, 0, 64, 109
2, 41716, Note_on_c, 0, 64, 0
2, 41960, Note_on_c, 0, 81, 119
2, 42036, Note_on_c, 0, 81, 0
2, 42040, Note_on_c, 0, 79, 104
2, 42116, Note_on_c, 0, 79, 0
2, 42120, Note_on_c, 0, 76, 117
2, 42196, Note_on_c, 0, 76, 0
2, 42440, Note_on_c, 0, 77, 106
2, 42516, Note_on_c, 0, 77, 0
2, 42520, Note_on_c, 0, 76, 109
2, 42596, Note_on_c, 0, 76, 0
2, 42600, Note_on_c, 0, 72, 109
2, 42676, Note_on_c, 0, 72, 0
2, 42920, Note_on_c, 0, 74, 106
2, 42996, Note_on_c, 0, 74, 0
2, 43000, Note_on_c, 0, 72, 107
2, 43076, Note_on_c, 0, 72, 0
2, 43080, Note_on_c, 0, 69, 107
2, 43156, Note_on_c, 0, 69, 0
2, 43320, Note_on_c, 0, 69, 109
2, 43396, Note_on_c, 0, 69, 0
2, 43400, Note_on_c, 0, 71, 102
2, 43476, Note_on_c, 0, 71, 0
2, 43480, Note_on_c, 0, 72, 113
2, 43556, Note_on_c, 0, 72, 0
2, 43560, Note_on_c, 0, 74, 115
2, 43636, Note_on_c, 0, 74, 0
2, 43640, Note_on_c, 0, 76, 124
2, 43796, Note_on_c, 0, 76, 0
2, 43800, Note_on_c, 0, 74, 101
2, 43876, Note_on_c, 0, 74, 0
2, 43880, Note_on_c, 0, 72, 100
2, 43956, Note_on_c, 0, 72, 0
2, 43960, Note_on_c, 0, 71, 102
2, 44036, Note_on_c, 0, 71, 0
2, 44040, Note_on_c, 0, 69, 113
2, 44116, Note_on_c, 0, 69, 0
2, 44120, Note_on_c, 0, 67, 123
2, 44276, Note_on_c, 0, 67, 0
2, 44280, Note_on_c, 0, 66, 108
2, 44356, Note_on_c, 0, 66, 0
2, 44360, Note_on_c, 0, 67, 100
2, 44436, Note_on_c, 0, 67, 0
2, 44440, Note_on_c, 0, 69, 107
2, 44516, Note_on_c, 0, 69, 0
2, 44520, Note_on_c, 0, 71, 113
2, 44596, Note_on_c, 0, 71, 0
2, 44600, Note_on_c, 0, 72, 113
2, 44676, Note_on_c, 0, 72, 0
2, 44680, Note_on_c, 0, 71, 106
2, 44916, Note_on_c, 0, 71, 0
2, 45040, Note_on_c, 0, 71, 102
2, 45040, Note_on_c, 0, 74, 106
2, 45040, Note_on_c, 0, 79, 113
2, 45156, Note_on_c, 0, 71, 0
2, 45156, Note_on_c, 0, 74, 0
2, 45156, Note_on_c, 0, 79, 0
2, 45280, Note_on_c, 0, 71, 102
2, 45280, Note_on_c, 0, 74, 102
2, 45280, Note_on_c, 0, 79, 100
2, 45396, Note_on_c, 0, 71, 0
2, 45396, Note_on_c, 0, 74, 0
2, 45396, Note_on_c, 0, 79, 0
2, 45520, Note_on_c, 0, 74, 104
2, 45520, Note_on_c, 0, 71, 106
2, 45520, Note_on_c, 0, 79, 102
2, 45636, Note_on_c, 0, 74, 0
2, 45636, Note_on_c, 0, 71, 0
2, 45636, Note_on_c, 0, 79, 0
2, 47520, End_track
3, 0, Start_track
3, 0, Title_t, "goldberg.mid"
3, 40, Note_on_c, 3, 55, 111
3, 276, Note_on_c, 3, 55, 0
3, 280, Note_on_c, 3, 43, 121
3, 516, Note_on_c, 3, 43, 0
3, 520, Note_on_c, 3, 66, 106
3, 520, Note_on_c, 3, 60, 115
3, 520, Note_on_c, 3, 57, 109
3, 636, Note_on_c, 3, 66, 0
3, 636, Note_on_c, 3, 60, 0
3, 636, Note_on_c, 3, 57, 0
3, 760, Note_on_c, 3, 66, 99
3, 760, Note_on_c, 3, 60, 117
3, 760, Note_on_c, 3, 57, 119
3, 876, Note_on_c, 3, 66, 0
3, 876, Note_on_c, 3, 60, 0
3, 876, Note_on_c, 3, 57, 0
3, 1000, Note_on_c, 3, 66, 104
3, 1000, Note_on_c, 3, 60, 115
3, 1000, Note_on_c, 3, 57, 119
3, 1116, Note_on_c, 3, 66, 0
3, 1116, Note_on_c, 3, 60, 0
3, 1116, Note_on_c, 3, 57, 0
3, 1240, Note_on_c, 3, 66, 106
3, 1240, Note_on_c, 3, 57, 121
3, 1240, Note_on_c, 3, 60, 121
3, 1356, Note_on_c, 3, 66, 0
3, 1356, Note_on_c, 3, 57, 0
3, 1356, Note_on_c, 3, 60, 0
3, 1480, Note_on_c, 3, 54, 121
3, 1716, Note_on_c, 3, 54, 0
3, 1720, Note_on_c, 3, 42, 123
3, 1836, Note_on_c, 3, 42, 0
3, 1960, Note_on_c, 3, 64, 111
3, 1960, Note_on_c, 3, 67, 106
3, 1960, Note_on_c, 3, 73, 102
3, 2076, Note_on_c, 3, 64, 0
3, 2076, Note_on_c, 3, 67, 0
3, 2076, Note_on_c, 3, 73, 0
3, 2200, Note_on_c, 3, 64, 115
3, 2200, Note_on_c, 3, 67, 117
3, 2200, Note_on_c, 3, 73, 108
3, 2316, Note_on_c, 3, 64, 0
3, 2316, Note_on_c, 3, 67, 0
3, 2316, Note_on_c, 3, 73, 0
3, 2440, Note_on_c, 3, 73, 108
3, 2440, Note_on_c, 3, 64, 123
3, 2440, Note_on_c, 3, 67, 119
3, 2556, Note_on_c, 3, 73, 0
3, 2556, Note_on_c, 3, 64, 0
3, 2556, Note_on_c, 3, 67, 0
3, 2680, Note_on_c, 3, 64, 119
3, 2680, Note_on_c, 3, 73, 108
3, 2680, Note_on_c, 3, 67, 119
3, 2796, Note_on_c, 3, 64, 0
3, 2796, Note_on_c, 3, 73, 0
3, 2796, Note_on_c, 3, 67, 0
3, 2920, Note_on_c, 3, 52, 115
3, 3156, Note_on_c, 3, 52, 0
3, 3160, Note_on_c, 3, 40, 117
3, 3276, Note_on_c, 3, 40, 0
3, 3400, Note_on_c, 3, 74, 117
3, 3400, Note_on_c, 3, 78, 112
3, 3400, Note_on_c, 3, 69, 115
3, 3516, Note_on_c, 3, 74, 0
3, 3516, Note_on_c, 3, 78, 0
3, 3516, Note_on_c, 3, 69, 0
3, 3640, Note_on_c, 3, 73, 106
3, 3640, Note_on_c, 3, 67, 107
3, 3640, Note_on_c, 3, 76, 107
3, 3756, Note_on_c, 3, 73, 0
3, 3756, Note_on_c, 3, 67, 0
3, 3756, Note_on_c, 3, 76, 0
3, 3880, Note_on_c, 3, 78, 104
3, 3880, Note_on_c, 3, 74, 113
3, 3880, Note_on_c, 3, 69, 111
3, 3996, Note_on_c, 3, 78, 0
3, 3996, Note_on_c, 3, 74, 0
3, 3996, Note_on_c, 3, 69, 0
3, 4120, Note_on_c, 3, 73, 108
3, 4120, Note_on_c, 3, 76, 109
3, 4120, Note_on_c, 3, 67, 111
3, 4236, Note_on_c, 3, 73, 0
3, 4236, Note_on_c, 3, 76, 0
3, 4236, Note_on_c, 3, 67, 0
3, 4480, Note_on_c, 3, 62, 104
3, 4596, Note_on_c, 3, 62, 0
3, 4600, Note_on_c, 3, 57, 104
3, 4716, Note_on_c, 3, 57, 0
3, 4720, Note_on_c, 3, 54, 96
3, 4836, Note_on_c, 3, 54, 0
3, 4840, Note_on_c, 3, 50, 89
3, 5020, Note_on_c, 3, 50, 0
3, 5020, Note_on_c, 3, 62, 89
3, 5080, Note_on_c, 3, 62, 0
3, 5080, Note_on_c, 3, 52, 89
3, 5260, Note_on_c, 3, 52, 0
3, 5260, Note_on_c, 3, 60, 108
3, 5320, Note_on_c, 3, 60, 0
3, 5320, Note_on_c, 3, 50, 101
3, 5500, Note_on_c, 3, 50, 0
3, 5500, Note_on_c, 3, 59, 115
3, 5560, Note_on_c, 3, 59, 0
3, 5560, Note_on_c, 3, 48, 101
3, 5740, Note_on_c, 3, 48, 0
3, 5740, Note_on_c, 3, 57, 115
3, 5800, Note_on_c, 3, 57, 0
3, 5800, Note_on_c, 3, 47, 107
3, 6036, Note_on_c, 3, 47, 0
3, 6040, Note_on_c, 3, 59, 111
3, 6276, Note_on_c, 3, 59, 0
3, 6280, Note_on_c, 3, 72, 109
3, 6280, Note_on_c, 3, 69, 92
3, 6280, Note_on_c, 3, 78, 108
3, 6396, Note_on_c, 3, 72, 0
3, 6396, Note_on_c, 3, 69, 0
3, 6396, Note_on_c, 3, 78, 0
3, 6520, Note_on_c, 3, 78, 96
3, 6520, Note_on_c, 3, 69, 95
3, 6520, Note_on_c, 3, 72, 111
3, 6636, Note_on_c, 3, 78, 0
3, 6636, Note_on_c, 3, 69, 0
3, 6636, Note_on_c, 3, 72, 0
3, 6760, Note_on_c, 3, 72, 101
3, 6760, Note_on_c, 3, 69, 88
3, 6760, Note_on_c, 3, 78, 88
3, 6876, Note_on_c, 3, 72, 0
3, 6876, Note_on_c, 3, 69, 0
3, 6876, Note_on_c, 3, 78, 0
3, 7000, Note_on_c, 3, 67, 96
3, 7000, Note_on_c, 3, 71, 104
3, 7000, Note_on_c, 3, 74, 113
3, 7116, Note_on_c, 3, 67, 0
3, 7116, Note_on_c, 3, 71, 0
3, 7116, Note_on_c, 3, 74, 0
3, 7240, Note_on_c, 3, 48, 121
3, 7476, Note_on_c, 3, 48, 0
3, 7480, Note_on_c, 3, 60, 113
3, 7716, Note_on_c, 3, 60, 0
3, 7720, Note_on_c, 3, 74, 115
3, 7720, Note_on_c, 3, 65, 109
3, 7720, Note_on_c, 3, 71, 119
3, 7836, Note_on_c, 3, 74, 0
3, 7836, Note_on_c, 3, 65, 0
3, 7836, Note_on_c, 3, 71, 0
3, 7960, Note_on_c, 3, 65, 107
3, 7960, Note_on_c, 3, 74, 119
3, 7960, Note_on_c, 3, 71, 119
3, 8076, Note_on_c, 3, 65, 0
3, 8076, Note_on_c, 3, 74, 0
3, 8076, Note_on_c, 3, 71, 0
3, 8200, Note_on_c, 3, 65, 104
3, 8200, Note_on_c, 3, 74, 115
3, 8200, Note_on_c, 3, 71, 107
3, 8316, Note_on_c, 3, 65, 0
3, 8316, Note_on_c, 3, 74, 0
3, 8316, Note_on_c, 3, 71, 0
3, 8440, Note_on_c, 3, 69, 117
3, 8440, Note_on_c, 3, 72, 121
3, 8440, Note_on_c, 3, 64, 109
3, 8556, Note_on_c, 3, 69, 0
3, 8556, Note_on_c, 3, 72, 0
3, 8556, Note_on_c, 3, 64, 0
3, 8680, Note_on_c, 3, 50, 119
3, 8916, Note_on_c, 3, 50, 0
3, 8920, Note_on_c, 3, 62, 126
3, 9156, Note_on_c, 3, 62, 0
3, 9160, Note_on_c, 3, 64, 104
3, 9160, Note_on_c, 3, 67, 111
3, 9160, Note_on_c, 3, 73, 121
3, 9276, Note_on_c, 3, 64, 0
3, 9276, Note_on_c, 3, 67, 0
3, 9276, Note_on_c, 3, 73, 0
3, 9400, Note_on_c, 3, 73, 104
3, 9400, Note_on_c, 3, 67, 102
3, 9400, Note_on_c, 3, 64, 98
3, 9516, Note_on_c, 3, 73, 0
3, 9516, Note_on_c, 3, 67, 0
3, 9516, Note_on_c, 3, 64, 0
3, 9640, Note_on_c, 3, 73, 106
3, 9640, Note_on_c, 3, 67, 102
3, 9640, Note_on_c, 3, 64, 97
3, 9756, Note_on_c, 3, 73, 0
3, 9756, Note_on_c, 3, 67, 0
3, 9756, Note_on_c, 3, 64, 0
3, 9880, Note_on_c, 3, 66, 110
3, 9880, Note_on_c, 3, 62, 101
3, 9880, Note_on_c, 3, 69, 121
3, 9996, Note_on_c, 3, 66, 0
3, 9996, Note_on_c, 3, 62, 0
3, 9996, Note_on_c, 3, 69, 0
3, 10240, Note_on_c, 3, 55, 126
3, 10360, Note_on_c, 3, 55, 0
3, 10360, Note_on_c, 3, 50, 126
3, 10480, Note_on_c, 3, 50, 0
3, 10480, Note_on_c, 3, 47, 126
3, 10600, Note_on_c, 3, 47, 0
3, 10600, Note_on_c, 3, 43, 126
3, 10780, Note_on_c, 3, 43, 0
3, 10780, Note_on_c, 3, 55, 126
3, 10840, Note_on_c, 3, 55, 0
3, 10840, Note_on_c, 3, 54, 126
3, 11020, Note_on_c, 3, 54, 0
3, 11020, Note_on_c, 3, 62, 126
3, 11080, Note_on_c, 3, 62, 0
3, 11080, Note_on_c, 3, 55, 126
3, 11260, Note_on_c, 3, 55, 0
3, 11260, Note_on_c, 3, 64, 126
3, 11320, Note_on_c, 3, 64, 0
3, 11320, Note_on_c, 3, 57, 126
3, 11500, Note_on_c, 3, 57, 0
3, 11500, Note_on_c, 3, 66, 126
3, 11560, Note_on_c, 3, 66, 0
3, 11560, Note_on_c, 3, 59, 113
3, 11636, Note_on_c, 3, 59, 0
3, 11640, Note_on_c, 3, 62, 102
3, 11716, Note_on_c, 3, 62, 0
3, 11960, Note_on_c, 3, 57, 97
3, 12036, Note_on_c, 3, 57, 0
3, 12040, Note_on_c, 3, 59, 107
3, 12116, Note_on_c, 3, 59, 0
3, 12120, Note_on_c, 3, 62, 107
3, 12196, Note_on_c, 3, 62, 0
3, 12440, Note_on_c, 3, 60, 119
3, 12516, Note_on_c, 3, 60, 0
3, 12520, Note_on_c, 3, 62, 113
3, 12596, Note_on_c, 3, 62, 0
3, 12600, Note_on_c, 3, 67, 113
3, 12676, Note_on_c, 3, 67, 0
3, 12920, Note_on_c, 3, 64, 121
3, 12996, Note_on_c, 3, 64, 0
3, 13000, Note_on_c, 3, 66, 106
3, 13076, Note_on_c, 3, 66, 0
3, 13080, Note_on_c, 3, 69, 109
3, 13156, Note_on_c, 3, 69, 0
3, 13400, Note_on_c, 3, 64, 107
3, 13476, Note_on_c, 3, 64, 0
3, 13480, Note_on_c, 3, 66, 102
3, 13556, Note_on_c, 3, 66, 0
3, 13560, Note_on_c, 3, 69, 101
3, 13636, Note_on_c, 3, 69, 0
3, 13880, Note_on_c, 3, 67, 107
3, 13956, Note_on_c, 3, 67, 0
3, 13960, Note_on_c, 3, 69, 95
3, 14036, Note_on_c, 3, 69, 0
3, 14040, Note_on_c, 3, 74, 117
3, 14116, Note_on_c, 3, 74, 0
3, 14360, Note_on_c, 3, 69, 109
3, 14436, Note_on_c, 3, 69, 0
3, 14440, Note_on_c, 3, 67, 115
3, 14516, Note_on_c, 3, 67, 0
3, 14520, Note_on_c, 3, 71, 113
3, 14596, Note_on_c, 3, 71, 0
3, 14840, Note_on_c, 3, 66, 108
3, 14916, Note_on_c, 3, 66, 0
3, 14920, Note_on_c, 3, 64, 107
3, 14996, Note_on_c, 3, 64, 0
3, 15000, Note_on_c, 3, 67, 107
3, 15076, Note_on_c, 3, 67, 0
3, 15320, Note_on_c, 3, 62, 106
3, 15396, Note_on_c, 3, 62, 0
3, 15400, Note_on_c, 3, 61, 102
3, 15476, Note_on_c, 3, 61, 0
3, 15480, Note_on_c, 3, 64, 109
3, 15556, Note_on_c, 3, 64, 0
3, 15800, Note_on_c, 3, 59, 107
3, 15876, Note_on_c, 3, 59, 0
3, 15880, Note_on_c, 3, 57, 104
3, 15956, Note_on_c, 3, 57, 0
3, 15960, Note_on_c, 3, 61, 119
3, 16036, Note_on_c, 3, 61, 0
3, 16280, Note_on_c, 3, 59, 113
3, 16356, Note_on_c, 3, 59, 0
3, 16360, Note_on_c, 3, 57, 102
3, 16436, Note_on_c, 3, 57, 0
3, 16440, Note_on_c, 3, 61, 119
3, 16516, Note_on_c, 3, 61, 0
3, 16760, Note_on_c, 3, 55, 101
3, 16836, Note_on_c, 3, 55, 0
3, 16840, Note_on_c, 3, 54, 108
3, 16916, Note_on_c, 3, 54, 0
3, 16920, Note_on_c, 3, 57, 113
3, 16996, Note_on_c, 3, 57, 0
3, 17240, Note_on_c, 3, 52, 106
3, 17316, Note_on_c, 3, 52, 0
3, 17320, Note_on_c, 3, 50, 106
3, 17396, Note_on_c, 3, 50, 0
3, 17400, Note_on_c, 3, 54, 123
3, 17476, Note_on_c, 3, 54, 0
3, 17720, Note_on_c, 3, 52, 109
3, 17796, Note_on_c, 3, 52, 0
3, 17800, Note_on_c, 3, 50, 104
3, 17876, Note_on_c, 3, 50, 0
3, 17880, Note_on_c, 3, 54, 112
3, 17956, Note_on_c, 3, 54, 0
3, 18200, Note_on_c, 3, 48, 107
3, 18276, Note_on_c, 3, 48, 0
3, 18280, Note_on_c, 3, 47, 113
3, 18356, Note_on_c, 3, 47, 0
3, 18360, Note_on_c, 3, 50, 101
3, 18436, Note_on_c, 3, 50, 0
3, 18680, Note_on_c, 3, 45, 113
3, 18756, Note_on_c, 3, 45, 0
3, 18760, Note_on_c, 3, 43, 102
3, 18836, Note_on_c, 3, 43, 0
3, 18840, Note_on_c, 3, 47, 111
3, 18916, Note_on_c, 3, 47, 0
3, 19160, Note_on_c, 3, 45, 106
3, 19236, Note_on_c, 3, 45, 0
3, 19240, Note_on_c, 3, 43, 102
3, 19316, Note_on_c, 3, 43, 0
3, 19320, Note_on_c, 3, 47, 107
3, 19396, Note_on_c, 3, 47, 0
3, 19640, Note_on_c, 3, 42, 104
3, 19716, Note_on_c, 3, 42, 0
3, 19720, Note_on_c, 3, 40, 97
3, 19796, Note_on_c, 3, 40, 0
3, 19800, Note_on_c, 3, 43, 119
3, 19876, Note_on_c, 3, 43, 0
3, 20120, Note_on_c, 3, 38, 119
3, 20196, Note_on_c, 3, 38, 0
3, 20200, Note_on_c, 3, 37, 125
3, 20436, Note_on_c, 3, 37, 0
3, 20440, Note_on_c, 3, 49, 112
3, 20676, Note_on_c, 3, 49, 0
3, 20680, Note_on_c, 3, 50, 106
3, 20916, Note_on_c, 3, 50, 0
3, 20920, Note_on_c, 3, 42, 121
3, 21156, Note_on_c, 3, 42, 0
3, 21160, Note_on_c, 3, 43, 115
3, 21396, Note_on_c, 3, 43, 0
3, 21400, Note_on_c, 3, 45, 121
3, 21636, Note_on_c, 3, 45, 0
3, 21640, Note_on_c, 3, 38, 117
3, 21876, Note_on_c, 3, 38, 0
3, 21880, Note_on_c, 3, 50, 115
3, 22116, Note_on_c, 3, 50, 0
3, 22120, Note_on_c, 3, 61, 115
3, 22120, Note_on_c, 3, 52, 106
3, 22120, Note_on_c, 3, 55, 109
3, 22236, Note_on_c, 3, 61, 0
3, 22236, Note_on_c, 3, 52, 0
3, 22236, Note_on_c, 3, 55, 0
3, 22360, Note_on_c, 3, 61, 110
3, 22360, Note_on_c, 3, 55, 101
3, 22360, Note_on_c, 3, 52, 100
3, 22476, Note_on_c, 3, 61, 0
3, 22476, Note_on_c, 3, 55, 0
3, 22476, Note_on_c, 3, 52, 0
3, 22600, Note_on_c, 3, 38, 124
3, 23076, Note_on_c, 3, 38, 0
3, 23080, Note_on_c, 3, 78, 115
3, 23156, Note_on_c, 3, 78, 0
3, 23160, Note_on_c, 3, 81, 109
3, 23236, Note_on_c, 3, 81, 0
3, 23480, Note_on_c, 3, 76, 102
3, 23556, Note_on_c, 3, 76, 0
3, 23560, Note_on_c, 3, 74, 107
3, 23636, Note_on_c, 3, 74, 0
3, 23640, Note_on_c, 3, 78, 121
3, 23716, Note_on_c, 3, 78, 0
3, 23960, Note_on_c, 3, 72, 113
3, 24036, Note_on_c, 3, 72, 0
3, 24040, Note_on_c, 3, 71, 102
3, 24116, Note_on_c, 3, 71, 0
3, 24120, Note_on_c, 3, 74, 102
3, 24196, Note_on_c, 3, 74, 0
3, 24440, Note_on_c, 3, 69, 109
3, 24516, Note_on_c, 3, 69, 0
3, 24520, Note_on_c, 3, 67, 96
3, 24596, Note_on_c, 3, 67, 0
3, 24600, Note_on_c, 3, 71, 104
3, 24676, Note_on_c, 3, 71, 0
3, 24920, Note_on_c, 3, 69, 106
3, 24996, Note_on_c, 3, 69, 0
3, 25000, Note_on_c, 3, 67, 101
3, 25076, Note_on_c, 3, 67, 0
3, 25080, Note_on_c, 3, 71, 107
3, 25156, Note_on_c, 3, 71, 0
3, 25400, Note_on_c, 3, 66, 119
3, 25476, Note_on_c, 3, 66, 0
3, 25480, Note_on_c, 3, 64, 102
3, 25556, Note_on_c, 3, 64, 0
3, 25560, Note_on_c, 3, 67, 107
3, 25636, Note_on_c, 3, 67, 0
3, 25880, Note_on_c, 3, 62, 109
3, 25956, Note_on_c, 3, 62, 0
3, 25960, Note_on_c, 3, 60, 113
3, 26036, Note_on_c, 3, 60, 0
3, 26040, Note_on_c, 3, 64, 104
3, 26116, Note_on_c, 3, 64, 0
3, 26360, Note_on_c, 3, 59, 115
3, 26436, Note_on_c, 3, 59, 0
3, 26440, Note_on_c, 3, 57, 107
3, 26516, Note_on_c, 3, 57, 0
3, 26520, Note_on_c, 3, 60, 107
3, 26596, Note_on_c, 3, 60, 0
3, 26840, Note_on_c, 3, 55, 104
3, 26916, Note_on_c, 3, 55, 0
3, 26920, Note_on_c, 3, 54, 112
3, 26996, Note_on_c, 3, 54, 0
3, 27000, Note_on_c, 3, 57, 113
3, 27076, Note_on_c, 3, 57, 0
3, 27320, Note_on_c, 3, 52, 113
3, 27396, Note_on_c, 3, 52, 0
3, 27400, Note_on_c, 3, 51, 115
3, 27476, Note_on_c, 3, 51, 0
3, 27480, Note_on_c, 3, 54, 123
3, 27556, Note_on_c, 3, 54, 0
3, 27800, Note_on_c, 3, 49, 106
3, 27876, Note_on_c, 3, 49, 0
3, 27880, Note_on_c, 3, 47, 111
3, 27940, Note_on_c, 3, 51, 117
3, 27956, Note_on_c, 3, 47, 0
3, 28016, Note_on_c, 3, 51, 0
3, 28280, Note_on_c, 3, 45, 111
3, 28356, Note_on_c, 3, 45, 0
3, 28360, Note_on_c, 3, 43, 101
3, 28436, Note_on_c, 3, 43, 0
3, 28440, Note_on_c, 3, 47, 113
3, 28516, Note_on_c, 3, 47, 0
3, 28760, Note_on_c, 3, 42, 121
3, 28836, Note_on_c, 3, 42, 0
3, 28840, Note_on_c, 3, 40, 117
3, 29076, Note_on_c, 3, 40, 0
3, 29080, Note_on_c, 3, 52, 124
3, 29316, Note_on_c, 3, 52, 0
3, 29320, Note_on_c, 3, 66, 104
3, 29320, Note_on_c, 3, 69, 111
3, 29320, Note_on_c, 3, 75, 106
3, 29436, Note_on_c, 3, 66, 0
3, 29436, Note_on_c, 3, 69, 0
3, 29436, Note_on_c, 3, 75, 0
3, 29560, Note_on_c, 3, 75, 102
3, 29560, Note_on_c, 3, 66, 115
3, 29560, Note_on_c, 3, 69, 111
3, 29676, Note_on_c, 3, 75, 0
3, 29676, Note_on_c, 3, 66, 0
3, 29676, Note_on_c, 3, 69, 0
3, 29800, Note_on_c, 3, 55, 113
3, 29800, Note_on_c, 3, 67, 126
3, 29916, Note_on_c, 3, 55, 0
3, 29916, Note_on_c, 3, 67, 0
3, 30040, Note_on_c, 3, 75, 99
3, 30040, Note_on_c, 3, 66, 102
3, 30040, Note_on_c, 3, 69, 107
3, 30156, Note_on_c, 3, 75, 0
3, 30156, Note_on_c, 3, 66, 0
3, 30156, Note_on_c, 3, 69, 0
3, 30280, Note_on_c, 3, 48, 127
3, 30516, Note_on_c, 3, 48, 0
3, 30520, Note_on_c, 3, 60, 126
3, 30756, Note_on_c, 3, 60, 0
3, 30760, Note_on_c, 3, 75, 108
3, 30760, Note_on_c, 3, 66, 117
3, 30760, Note_on_c, 3, 69, 113
3, 30876, Note_on_c, 3, 75, 0
3, 30876, Note_on_c, 3, 66, 0
3, 30876, Note_on_c, 3, 69, 0
3, 31000, Note_on_c, 3, 75, 110
3, 31000, Note_on_c, 3, 66, 108
3, 31000, Note_on_c, 3, 69, 113
3, 31116, Note_on_c, 3, 75, 0
3, 31116, Note_on_c, 3, 66, 0
3, 31116, Note_on_c, 3, 69, 0
3, 31240, Note_on_c, 3, 71, 123
3, 31240, Note_on_c, 3, 59, 113
3, 31356, Note_on_c, 3, 71, 0
3, 31356, Note_on_c, 3, 59, 0
3, 31480, Note_on_c, 3, 69, 113
3, 31480, Note_on_c, 3, 66, 112
3, 31480, Note_on_c, 3, 75, 110
3, 31596, Note_on_c, 3, 69, 0
3, 31596, Note_on_c, 3, 66, 0
3, 31596, Note_on_c, 3, 75, 0
3, 31720, Note_on_c, 3, 57, 107
3, 31956, Note_on_c, 3, 57, 0
3, 31960, Note_on_c, 3, 51, 117
3, 32196, Note_on_c, 3, 51, 0
3, 32200, Note_on_c, 3, 52, 121
3, 32436, Note_on_c, 3, 52, 0
3, 32440, Note_on_c, 3, 57, 124
3, 32676, Note_on_c, 3, 57, 0
3, 32680, Note_on_c, 3, 59, 126
3, 32916, Note_on_c, 3, 59, 0
3, 32920, Note_on_c, 3, 47, 117
3, 33156, Note_on_c, 3, 47, 0
3, 33160, Note_on_c, 3, 52, 127
3, 33396, Note_on_c, 3, 52, 0
3, 33400, Note_on_c, 3, 75, 110
3, 33400, Note_on_c, 3, 66, 117
3, 33400, Note_on_c, 3, 69, 109
3, 33516, Note_on_c, 3, 75, 0
3, 33516, Note_on_c, 3, 66, 0
3, 33516, Note_on_c, 3, 69, 0
3, 33640, Note_on_c, 3, 66, 112
3, 33640, Note_on_c, 3, 63, 117
3, 33640, Note_on_c, 3, 71, 113
3, 33756, Note_on_c, 3, 66, 0
3, 33756, Note_on_c, 3, 63, 0
3, 33756, Note_on_c, 3, 71, 0
3, 33880, Note_on_c, 3, 63, 110
3, 33880, Note_on_c, 3, 66, 110
3, 33880, Note_on_c, 3, 71, 121
3, 33996, Note_on_c, 3, 63, 0
3, 33996, Note_on_c, 3, 66, 0
3, 33996, Note_on_c, 3, 71, 0
3, 34120, Note_on_c, 3, 57, 102
3, 34120, Note_on_c, 3, 66, 117
3, 34120, Note_on_c, 3, 63, 121
3, 34236, Note_on_c, 3, 57, 0
3, 34236, Note_on_c, 3, 66, 0
3, 34236, Note_on_c, 3, 63, 0
3, 34360, Note_on_c, 3, 57, 107
3, 34360, Note_on_c, 3, 63, 110
3, 34360, Note_on_c, 3, 66, 119
3, 34476, Note_on_c, 3, 57, 0
3, 34476, Note_on_c, 3, 63, 0
3, 34476, Note_on_c, 3, 66, 0
3, 34600, Note_on_c, 3, 48, 127
3, 34836, Note_on_c, 3, 48, 0
3, 34840, Note_on_c, 3, 59, 107
3, 35076, Note_on_c, 3, 59, 0
3, 35080, Note_on_c, 3, 57, 119
3, 35316, Note_on_c, 3, 57, 0
3, 35320, Note_on_c, 3, 56, 125
3, 35556, Note_on_c, 3, 56, 0
3, 35560, Note_on_c, 3, 57, 124
3, 35796, Note_on_c, 3, 57, 0
3, 35800, Note_on_c, 3, 48, 121
3, 36036, Note_on_c, 3, 48, 0
3, 36040, Note_on_c, 3, 47, 124
3, 36276, Note_on_c, 3, 47, 0
3, 36280, Note_on_c, 3, 57, 127
3, 36516, Note_on_c, 3, 57, 0
3, 36520, Note_on_c, 3, 55, 115
3, 36756, Note_on_c, 3, 55, 0
3, 36760, Note_on_c, 3, 54, 115
3, 36996, Note_on_c, 3, 54, 0
3, 37000, Note_on_c, 3, 55, 119
3, 37236, Note_on_c, 3, 55, 0
3, 37240, Note_on_c, 3, 47, 126
3, 37476, Note_on_c, 3, 47, 0
3, 37480, Note_on_c, 3, 45, 123
3, 37556, Note_on_c, 3, 45, 0
3, 37560, Note_on_c, 3, 57, 121
3, 37636, Note_on_c, 3, 57, 0
3, 37880, Note_on_c, 3, 59, 113
3, 37956, Note_on_c, 3, 59, 0
3, 37960, Note_on_c, 3, 57, 115
3, 38036, Note_on_c, 3, 57, 0
3, 38040, Note_on_c, 3, 60, 115
3, 38116, Note_on_c, 3, 60, 0
3, 38360, Note_on_c, 3, 55, 106
3, 38436, Note_on_c, 3, 55, 0
3, 38440, Note_on_c, 3, 54, 112
3, 38516, Note_on_c, 3, 54, 0
3, 38520, Note_on_c, 3, 57, 115
3, 38596, Note_on_c, 3, 57, 0
3, 38840, Note_on_c, 3, 52, 113
3, 38916, Note_on_c, 3, 52, 0
3, 38920, Note_on_c, 3, 50, 113
3, 38996, Note_on_c, 3, 50, 0
3, 39000, Note_on_c, 3, 62, 123
3, 39076, Note_on_c, 3, 62, 0
3, 39320, Note_on_c, 3, 64, 107
3, 39396, Note_on_c, 3, 64, 0
3, 39400, Note_on_c, 3, 62, 96
3, 39476, Note_on_c, 3, 62, 0
3, 39480, Note_on_c, 3, 66, 117
3, 39556, Note_on_c, 3, 66, 0
3, 39800, Note_on_c, 3, 60, 113
3, 39876, Note_on_c, 3, 60, 0
3, 39880, Note_on_c, 3, 59, 115
3, 39956, Note_on_c, 3, 59, 0
3, 39960, Note_on_c, 3, 62, 107
3, 40036, Note_on_c, 3, 62, 0
3, 40280, Note_on_c, 3, 57, 107
3, 40356, Note_on_c, 3, 57, 0
3, 40360, Note_on_c, 3, 55, 109
3, 40436, Note_on_c, 3, 55, 0
3, 40440, Note_on_c, 3, 67, 123
3, 40516, Note_on_c, 3, 67, 0
3, 40760, Note_on_c, 3, 69, 100
3, 40836, Note_on_c, 3, 69, 0
3, 40840, Note_on_c, 3, 67, 109
3, 40916, Note_on_c, 3, 67, 0
3, 40920, Note_on_c, 3, 71, 111
3, 40996, Note_on_c, 3, 71, 0
3, 41240, Note_on_c, 3, 65, 111
3, 41316, Note_on_c, 3, 65, 0
3, 41320, Note_on_c, 3, 64, 107
3, 41396, Note_on_c, 3, 64, 0
3, 41400, Note_on_c, 3, 67, 104
3, 41476, Note_on_c, 3, 67, 0
3, 41720, Note_on_c, 3, 62, 115
3, 41796, Note_on_c, 3, 62, 0
3, 41800, Note_on_c, 3, 60, 111
3, 41876, Note_on_c, 3, 60, 0
3, 41880, Note_on_c, 3, 72, 127
3, 41956, Note_on_c, 3, 72, 0
3, 42200, Note_on_c, 3, 74, 102
3, 42276, Note_on_c, 3, 74, 0
3, 42280, Note_on_c, 3, 72, 115
3, 42356, Note_on_c, 3, 72, 0
3, 42360, Note_on_c, 3, 76, 117
3, 42436, Note_on_c, 3, 76, 0
3, 42680, Note_on_c, 3, 71, 113
3, 42756, Note_on_c, 3, 71, 0
3, 42760, Note_on_c, 3, 69, 107
3, 42836, Note_on_c, 3, 69, 0
3, 42840, Note_on_c, 3, 72, 123
3, 42916, Note_on_c, 3, 72, 0
3, 43160, Note_on_c, 3, 67, 117
3, 43236, Note_on_c, 3, 67, 0
3, 43240, Note_on_c, 3, 66, 127
3, 43476, Note_on_c, 3, 66, 0
3, 43480, Note_on_c, 3, 57, 115
3, 43716, Note_on_c, 3, 57, 0
3, 43720, Note_on_c, 3, 59, 115
3, 43956, Note_on_c, 3, 59, 0
3, 43960, Note_on_c, 3, 60, 121
3, 44196, Note_on_c, 3, 60, 0
3, 44200, Note_on_c, 3, 62, 119
3, 44436, Note_on_c, 3, 62, 0
3, 44440, Note_on_c, 3, 50, 115
3, 44676, Note_on_c, 3, 50, 0
3, 44680, Note_on_c, 3, 55, 121
3, 44916, Note_on_c, 3, 55, 0
3, 44920, Note_on_c, 3, 43, 121
3, 45156, Note_on_c, 3, 43, 0
3, 45160, Note_on_c, 3, 72, 113
3, 45160, Note_on_c, 3, 69, 97
3, 45160, Note_on_c, 3, 78, 115
3, 45276, Note_on_c, 3, 72, 0
3, 45276, Note_on_c, 3, 69, 0
3, 45276, Note_on_c, 3, 78, 0
3, 45400, Note_on_c, 3, 72, 115
3, 45400, Note_on_c, 3, 78, 106
3, 45400, Note_on_c, 3, 69, 102
3, 45516, Note_on_c, 3, 72, 0
3, 45516, Note_on_c, 3, 78, 0
3, 45516, Note_on_c, 3, 69, 0
3, 45640, Note_on_c, 3, 55, 124
3, 46116, Note_on_c, 3, 55, 0
3, 47520, End_track
0, 0, End_of_file
