0, 0, Header, 1, 5, 480
1, 0, Start_track
1, 0, SMPTE_offset, 96, 0, 0, 0, 0
1, 0, Time_signature, 3, 2, 24, 8
1, 20, Tempo, 600000
1, 46100, Tempo, 705882
1, 93600, End_track
2, 0, Start_track
2, 0, Title_t, "goldberg.mid"
2, 1460, Note_on_c, 0, 69, 106
2, 1696, Note_on_c, 0, 69, 0
2, 1700, Note_on_c, 0, 71, 102
2, 1816, Note_on_c, 0, 71, 0
2, 1820, Note_on_c, 0, 73, 89
2, 1936, Note_on_c, 0, 73, 0
2, 1940, Note_on_c, 0, 74, 95
2, 2056, Note_on_c, 0, 74, 0
2, 2060, Note_on_c, 0, 76, 97
2, 2176, Note_on_c, 0, 76, 0
2, 2180, Note_on_c, 0, 78, 97
2, 2296, Note_on_c, 0, 78, 0
2, 2300, Note_on_c, 0, 76, 100
2, 2416, Note_on_c, 0, 76, 0
2, 2420, Note_on_c, 0, 74, 101
2, 2536, Note_on_c, 0, 74, 0
2, 2540, Note_on_c, 0, 76, 97
2, 2656, Note_on_c, 0, 76, 0
2, 2660, Note_on_c, 0, 78, 110
2, 2896, Note_on_c, 0, 78, 0
2, 2900, Note_on_c, 0, 67, 109
2, 3140, Note_on_c, 0, 67, 0
2, 3620, Note_on_c, 0, 76, 109
2, 3856, Note_on_c, 0, 76, 0
2, 4340, Note_on_c, 0, 66, 110
2, 4576, Note_on_c, 0, 66, 0
2, 4580, Note_on_c, 0, 67, 95
2, 4696, Note_on_c, 0, 67, 0
2, 4700, Note_on_c, 0, 69, 100
2, 4816, Note_on_c, 0, 69, 0
2, 4820, Note_on_c, 0, 71, 97
2, 4936, Note_on_c, 0, 71, 0
2, 4940, Note_on_c, 0, 72, 92
2, 5056, Note_on_c, 0, 72, 0
2, 5060, Note_on_c, 0, 74, 92
2, 5176, Note_on_c, 0, 74, 0
2, 5180, Note_on_c, 0, 76, 96
2, 5296, Note_on_c, 0, 76, 0
2, 5300, Note_on_c, 0, 74, 100
2, 5416, Note_on_c, 0, 74, 0
2, 5420, Note_on_c, 0, 72, 91
2, 5536, Note_on_c, 0, 72, 0
2, 5540, Note_on_c, 0, 74, 101
2, 5776, Note_on_c, 0, 74, 0
2, 5780, Note_on_c, 0, 74, 109
2, 6020, Note_on_c, 0, 74, 0
2, 6500, Note_on_c, 0, 67, 109
2, 6736, Note_on_c, 0, 67, 0
2, 7220, Note_on_c, 0, 72, 113
2, 7336, Note_on_c, 0, 72, 0
2, 7340, Note_on_c, 0, 74, 89
2, 7456, Note_on_c, 0, 74, 0
2, 7460, Note_on_c, 0, 72, 102
2, 7576, Note_on_c, 0, 72, 0
2, 7580, Note_on_c, 0, 71, 96
2, 7696, Note_on_c, 0, 71, 0
2, 7700, Note_on_c, 0, 69, 90
2, 7816, Note_on_c, 0, 69, 0
2, 7820, Note_on_c, 0, 67, 95
2, 7936, Note_on_c, 0, 67, 0
2, 7940, Note_on_c, 0, 66, 93
2, 8056, Note_on_c, 0, 66, 0
2, 8060, Note_on_c, 0, 69, 88
2, 8176, Note_on_c, 0, 69, 0
2, 8180, Note_on_c, 0, 72, 101
2, 8296, Note_on_c, 0, 72, 0
2, 8300, Note_on_c, 0, 76, 93
2, 8416, Note_on_c, 0, 76, 0
2, 8420, Note_on_c, 0, 74, 91
2, 8536, Note_on_c, 0, 74, 0
2, 8540, Note_on_c, 0, 72, 90
2, 8656, Note_on_c, 0, 72, 0
2, 8660, Note_on_c, 0, 71, 91
2, 8776, Note_on_c, 0, 71, 0
2, 8780, Note_on_c, 0, 72, 97
2, 8896, Note_on_c, 0, 72, 0
2, 8900, Note_on_c, 0, 71, 91
2, 9016, Note_on_c, 0, 71, 0
2, 9020, Note_on_c, 0, 69, 92
2, 9136, Note_on_c, 0, 69, 0
2, 9140, Note_on_c, 0, 67, 97
2, 9256, Note_on_c, 0, 67, 0
2, 9260, Note_on_c, 0, 66, 92
2, 9376, Note_on_c, 0, 66, 0
2, 9380, Note_on_c, 0, 64, 102
2, 9496, Note_on_c, 0, 64, 0
2, 9500, Note_on_c, 0, 67, 101
2, 9616, Note_on_c, 0, 67, 0
2, 9620, Note_on_c, 0, 71, 91
2, 9736, Note_on_c, 0, 71, 0
2, 9740, Note_on_c, 0, 74, 100
2, 9856, Note_on_c, 0, 74, 0
2, 9860, Note_on_c, 0, 72, 97
2, 9976, Note_on_c, 0, 72, 0
2, 9980, Note_on_c, 0, 71, 102
2, 10096, Note_on_c, 0, 71, 0
2, 10100, Note_on_c, 0, 69, 98
2, 10336, Note_on_c, 0, 69, 0
2, 10340, Note_on_c, 0, 72, 107
2, 10400, Note_on_c, 0, 72, 0
2, 10400, Note_on_c, 0, 71, 92
2, 10460, Note_on_c, 0, 71, 0
2, 10460, Note_on_c, 0, 69, 88
2, 10520, Note_on_c, 0, 69, 0
2, 10520, Note_on_c, 0, 71, 95
2, 10580, Note_on_c, 0, 71, 0
2, 10580, Note_on_c, 0, 72, 104
2, 10816, Note_on_c, 0, 72, 0
2, 10820, Note_on_c, 0, 62, 101
2, 11056, Note_on_c, 0, 62, 0
2, 11060, Note_on_c, 0, 74, 113
2, 11656, Note_on_c, 0, 74, 0
2, 11660, Note_on_c, 0, 78, 115
2, 11776, Note_on_c, 0, 78, 0
2, 11780, Note_on_c, 0, 76, 107
2, 11896, Note_on_c, 0, 76, 0
2, 11900, Note_on_c, 0, 74, 86
2, 12016, Note_on_c, 0, 74, 0
2, 12020, Note_on_c, 0, 73, 106
2, 12136, Note_on_c, 0, 73, 0
2, 12140, Note_on_c, 0, 71, 96
2, 12256, Note_on_c, 0, 71, 0
2, 12260, Note_on_c, 0, 73, 99
2, 12376, Note_on_c, 0, 73, 0
2, 12380, Note_on_c, 0, 74, 98
2, 12496, Note_on_c, 0, 74, 0
2, 12500, Note_on_c, 0, 76, 93
2, 12616, Note_on_c, 0, 76, 0
2, 12620, Note_on_c, 0, 73, 92
2, 12736, Note_on_c, 0, 73, 0
2, 12740, Note_on_c, 0, 74, 102
2, 12856, Note_on_c, 0, 74, 0
2, 12860, Note_on_c, 0, 76, 100
2, 12976, Note_on_c, 0, 76, 0
2, 12980, Note_on_c, 0, 71, 113
2, 13040, Note_on_c, 0, 71, 0
2, 13040, Note_on_c, 0, 69, 78
2, 13100, Note_on_c, 0, 69, 0
2, 13100, Note_on_c, 0, 71, 85
2, 13160, Note_on_c, 0, 71, 0
2, 13160, Note_on_c, 0, 69, 95
2, 13220, Note_on_c, 0, 69, 0
2, 13220, Note_on_c, 0, 71, 81
2, 13280, Note_on_c, 0, 71, 0
2, 13280, Note_on_c, 0, 69, 81
2, 13340, Note_on_c, 0, 69, 0
2, 13340, Note_on_c, 0, 71, 74
2, 13400, Note_on_c, 0, 71, 0
2, 13400, Note_on_c, 0, 69, 80
2, 13460, Note_on_c, 0, 69, 0
2, 13460, Note_on_c, 0, 71, 84
2, 13520, Note_on_c, 0, 71, 0
2, 13520, Note_on_c, 0, 69, 73
2, 13580, Note_on_c, 0, 69, 0
2, 13580, Note_on_c, 0, 71, 78
2, 13640, Note_on_c, 0, 71, 0
2, 13640, Note_on_c, 0, 69, 76
2, 13700, Note_on_c, 0, 69, 0
2, 13700, Note_on_c, 0, 71, 86
2, 13760, Note_on_c, 0, 71, 0
2, 13760, Note_on_c, 0, 69, 77
2, 13820, Note_on_c, 0, 69, 0
2, 13820, Note_on_c, 0, 71, 84
2, 13880, Note_on_c, 0, 71, 0
2, 13880, Note_on_c, 0, 69, 77
2, 13940, Note_on_c, 0, 69, 0
2, 13940, Note_on_c, 0, 71, 84
2, 14000, Note_on_c, 0, 71, 0
2, 14000, Note_on_c, 0, 69, 70
2, 14060, Note_on_c, 0, 69, 0
2, 14060, Note_on_c, 0, 71, 81
2, 14120, Note_on_c, 0, 71, 0
2, 14120, Note_on_c, 0, 69, 74
2, 14180, Note_on_c, 0, 69, 0
2, 14180, Note_on_c, 0, 71, 82
2, 14240, Note_on_c, 0, 71, 0
2, 14240, Note_on_c, 0, 69, 72
2, 14300, Note_on_c, 0, 69, 0
2, 14300, Note_on_c, 0, 67, 85
2, 14360, Note_on_c, 0, 67, 0
2, 14360, Note_on_c, 0, 69, 77
2, 14420, Note_on_c, 0, 69, 0
2, 14420, Note_on_c, 0, 71, 97
2, 14480, Note_on_c, 0, 71, 0
2, 14480, Note_on_c, 0, 69, 97
2, 14540, Note_on_c, 0, 69, 0
2, 14540, Note_on_c, 0, 69, 93
2, 14656, Note_on_c, 0, 69, 0
2, 14660, Note_on_c, 0, 67, 88
2, 14776, Note_on_c, 0, 67, 0
2, 14780, Note_on_c, 0, 66, 96
2, 14896, Note_on_c, 0, 66, 0
2, 14900, Note_on_c, 0, 64, 93
2, 15016, Note_on_c, 0, 64, 0
2, 15020, Note_on_c, 0, 62, 89
2, 15136, Note_on_c, 0, 62, 0
2, 15140, Note_on_c, 0, 61, 94
2, 15256, Note_on_c, 0, 61, 0
2, 15260, Note_on_c, 0, 62, 91
2, 15376, Note_on_c, 0, 62, 0
2, 15380, Note_on_c, 0, 64, 90
2, 15496, Note_on_c, 0, 64, 0
2, 15500, Note_on_c, 0, 62, 95
2, 15616, Note_on_c, 0, 62, 0
2, 15620, Note_on_c, 0, 64, 92
2, 15736, Note_on_c, 0, 64, 0
2, 15740, Note_on_c, 0, 61, 88
2, 15856, Note_on_c, 0, 61, 0
2, 15860, Note_on_c, 0, 66, 117
2, 16100, Note_on_c, 0, 66, 0
2, 16580, Note_on_c, 0, 59, 119
2, 16816, Note_on_c, 0, 59, 0
2, 17300, Note_on_c, 0, 71, 115
2, 17416, Note_on_c, 0, 71, 0
2, 17420, Note_on_c, 0, 72, 101
2, 17536, Note_on_c, 0, 72, 0
2, 17540, Note_on_c, 0, 71, 95
2, 17656, Note_on_c, 0, 71, 0
2, 17660, Note_on_c, 0, 69, 98
2, 17776, Note_on_c, 0, 69, 0
2, 17780, Note_on_c, 0, 67, 88
2, 17896, Note_on_c, 0, 67, 0
2, 17900, Note_on_c, 0, 66, 94
2, 18016, Note_on_c, 0, 66, 0
2, 18020, Note_on_c, 0, 64, 78
2, 18136, Note_on_c, 0, 64, 0
2, 18140, Note_on_c, 0, 67, 80
2, 18256, Note_on_c, 0, 67, 0
2, 18260, Note_on_c, 0, 71, 86
2, 18376, Note_on_c, 0, 71, 0
2, 18380, Note_on_c, 0, 74, 96
2, 18496, Note_on_c, 0, 74, 0
2, 18500, Note_on_c, 0, 73, 88
2, 18616, Note_on_c, 0, 73, 0
2, 18620, Note_on_c, 0, 71, 101
2, 18736, Note_on_c, 0, 71, 0
2, 18740, Note_on_c, 0, 69, 95
2, 18856, Note_on_c, 0, 69, 0
2, 18860, Note_on_c, 0, 71, 80
2, 18976, Note_on_c, 0, 71, 0
2, 18980, Note_on_c, 0, 69, 92
2, 19096, Note_on_c, 0, 69, 0
2, 19100, Note_on_c, 0, 67, 88
2, 19216, Note_on_c, 0, 67, 0
2, 19220, Note_on_c, 0, 66, 97
2, 19336, Note_on_c, 0, 66, 0
2, 19340, Note_on_c, 0, 64, 85
2, 19456, Note_on_c, 0, 64, 0
2, 19460, Note_on_c, 0, 63, 94
2, 19576, Note_on_c, 0, 63, 0
2, 19580, Note_on_c, 0, 66, 85
2, 19696, Note_on_c, 0, 66, 0
2, 19700, Note_on_c, 0, 69, 88
2, 19816, Note_on_c, 0, 69, 0
2, 19820, Note_on_c, 0, 72, 95
2, 19936, Note_on_c, 0, 72, 0
2, 19940, Note_on_c, 0, 71, 95
2, 20056, Note_on_c, 0, 71, 0
2, 20060, Note_on_c, 0, 69, 92
2, 20176, Note_on_c, 0, 69, 0
2, 20180, Note_on_c, 0, 67, 100
2, 20416, Note_on_c, 0, 67, 0
2, 20420, Note_on_c, 0, 71, 104
2, 20480, Note_on_c, 0, 71, 0
2, 20480, Note_on_c, 0, 69, 91
2, 20540, Note_on_c, 0, 69, 0
2, 20540, Note_on_c, 0, 67, 99
2, 20600, Note_on_c, 0, 67, 0
2, 20600, Note_on_c, 0, 69, 85
2, 20660, Note_on_c, 0, 69, 0
2, 20660, Note_on_c, 0, 71, 66
2, 21140, Note_on_c, 0, 71, 0
2, 21140, Note_on_c, 0, 69, 106
2, 21376, Note_on_c, 0, 69, 0
2, 21380, Note_on_c, 0, 67, 104
2, 21736, Note_on_c, 0, 67, 0
2, 21740, Note_on_c, 0, 66, 97
2, 21856, Note_on_c, 0, 66, 0
2, 21860, Note_on_c, 0, 64, 104
2, 21976, Note_on_c, 0, 64, 0
2, 21980, Note_on_c, 0, 62, 97
2, 22096, Note_on_c, 0, 62, 0
2, 22100, Note_on_c, 0, 64, 98
2, 22216, Note_on_c, 0, 64, 0
2, 22220, Note_on_c, 0, 61, 97
2, 22336, Note_on_c, 0, 61, 0
2, 22340, Note_on_c, 0, 62, 107
2, 22816, Note_on_c, 0, 62, 0
2, 23060, Note_on_c, 0, 81, 92
2, 23300, Note_on_c, 0, 81, 0
2, 23300, Note_on_c, 0, 79, 96
2, 23416, Note_on_c, 0, 79, 0
2, 23420, Note_on_c, 0, 78, 99
2, 23536, Note_on_c, 0, 78, 0
2, 23540, Note_on_c, 0, 76, 104
2, 23656, Note_on_c, 0, 76, 0
2, 23660, Note_on_c, 0, 74, 93
2, 23776, Note_on_c, 0, 74, 0
2, 23780, Note_on_c, 0, 72, 104
2, 23896, Note_on_c, 0, 72, 0
2, 23900, Note_on_c, 0, 74, 97
2, 24016, Note_on_c, 0, 74, 0
2, 24020, Note_on_c, 0, 76, 90
2, 24136, Note_on_c, 0, 76, 0
2, 24140, Note_on_c, 0, 74, 88
2, 24256, Note_on_c, 0, 74, 0
2, 24260, Note_on_c, 0, 72, 93
2, 24376, Note_on_c, 0, 72, 0
2, 24380, Note_on_c, 0, 81, 98
2, 24496, Note_on_c, 0, 81, 0
2, 24500, Note_on_c, 0, 71, 111
2, 24740, Note_on_c, 0, 71, 0
2, 25220, Note_on_c, 0, 79, 113
2, 25460, Note_on_c, 0, 79, 0
2, 25940, Note_on_c, 0, 84, 97
2, 26056, Note_on_c, 0, 84, 0
2, 26060, Note_on_c, 0, 86, 91
2, 26176, Note_on_c, 0, 86, 0
2, 26180, Note_on_c, 0, 84, 90
2, 26296, Note_on_c, 0, 84, 0
2, 26300, Note_on_c, 0, 83, 100
2, 26416, Note_on_c, 0, 83, 0
2, 26420, Note_on_c, 0, 81, 100
2, 26536, Note_on_c, 0, 81, 0
2, 26540, Note_on_c, 0, 79, 92
2, 26656, Note_on_c, 0, 79, 0
2, 26660, Note_on_c, 0, 81, 102
2, 26776, Note_on_c, 0, 81, 0
2, 26780, Note_on_c, 0, 83, 102
2, 26896, Note_on_c, 0, 83, 0
2, 26900, Note_on_c, 0, 81, 97
2, 27016, Note_on_c, 0, 81, 0
2, 27020, Note_on_c, 0, 79, 95
2, 27136, Note_on_c, 0, 79, 0
2, 27140, Note_on_c, 0, 78, 99
2, 27256, Note_on_c, 0, 78, 0
2, 27260, Note_on_c, 0, 76, 93
2, 27376, Note_on_c, 0, 76, 0
2, 27380, Note_on_c, 0, 75, 104
2, 27616, Note_on_c, 0, 75, 0
2, 27620, Note_on_c, 0, 78, 97
2, 27680, Note_on_c, 0, 78, 0
2, 27680, Note_on_c, 0, 76, 78
2, 27740, Note_on_c, 0, 76, 0
2, 27740, Note_on_c, 0, 75, 96
2, 27800, Note_on_c, 0, 75, 0
2, 27800, Note_on_c, 0, 76, 80
2, 27860, Note_on_c, 0, 76, 0
2, 27860, Note_on_c, 0, 78, 99
2, 28096, Note_on_c, 0, 78, 0
2, 28100, Note_on_c, 0, 71, 106
2, 28820, Note_on_c, 0, 71, 0
2, 28940, Note_on_c, 0, 69, 97
2, 29056, Note_on_c, 0, 69, 0
2, 29060, Note_on_c, 0, 71, 90
2, 29176, Note_on_c, 0, 71, 0
2, 29180, Note_on_c, 0, 74, 95
2, 29296, Note_on_c, 0, 74, 0
2, 29300, Note_on_c, 0, 72, 95
2, 29416, Note_on_c, 0, 72, 0
2, 29420, Note_on_c, 0, 71, 76
2, 29536, Note_on_c, 0, 71, 0
2, 29540, Note_on_c, 0, 72, 97
2, 29656, Note_on_c, 0, 72, 0
2, 29660, Note_on_c, 0, 77, 100
2, 29776, Note_on_c, 0, 77, 0
2, 29780, Note_on_c, 0, 72, 91
2, 29896, Note_on_c, 0, 72, 0
2, 29900, Note_on_c, 0, 69, 88
2, 30016, Note_on_c, 0, 69, 0
2, 30020, Note_on_c, 0, 65, 70
2, 30136, Note_on_c, 0, 65, 0
2, 30140, Note_on_c, 0, 69, 90
2, 30256, Note_on_c, 0, 69, 0
2, 30260, Note_on_c, 0, 63, 92
2, 30376, Note_on_c, 0, 63, 0
2, 30380, Note_on_c, 0, 64, 101
2, 30496, Note_on_c, 0, 64, 0
2, 30500, Note_on_c, 0, 66, 94
2, 30616, Note_on_c, 0, 66, 0
2, 30620, Note_on_c, 0, 69, 95
2, 30736, Note_on_c, 0, 69, 0
2, 30740, Note_on_c, 0, 67, 98
2, 30856, Note_on_c, 0, 67, 0
2, 30860, Note_on_c, 0, 66, 90
2, 30976, Note_on_c, 0, 66, 0
2, 30980, Note_on_c, 0, 67, 115
2, 31216, Note_on_c, 0, 67, 0
2, 31220, Note_on_c, 0, 69, 92
2, 31280, Note_on_c, 0, 69, 0
2, 31280, Note_on_c, 0, 67, 98
2, 31340, Note_on_c, 0, 67, 0
2, 31340, Note_on_c, 0, 69, 93
2, 31400, Note_on_c, 0, 69, 0
2, 31400, Note_on_c, 0, 67, 86
2, 31580, Note_on_c, 0, 67, 0
2, 31580, Note_on_c, 0, 66, 97
2, 31640, Note_on_c, 0, 66, 0
2, 31640, Note_on_c, 0, 67, 97
2, 31700, Note_on_c, 0, 67, 0
2, 31700, Note_on_c, 0, 69, 104
2, 31816, Note_on_c, 0, 69, 0
2, 31820, Note_on_c, 0, 71, 102
2, 31936, Note_on_c, 0, 71, 0
2, 31940, Note_on_c, 0, 72, 95
2, 32056, Note_on_c, 0, 72, 0
2, 32060, Note_on_c, 0, 71, 95
2, 32176, Note_on_c, 0, 71, 0
2, 32180, Note_on_c, 0, 69, 104
2, 32416, Note_on_c, 0, 69, 0
2, 32420, Note_on_c, 0, 71, 100
2, 32480, Note_on_c, 0, 71, 0
2, 32480, Note_on_c, 0, 69, 83
2, 32540, Note_on_c, 0, 69, 0
2, 32540, Note_on_c, 0, 67, 88
2, 32600, Note_on_c, 0, 67, 0
2, 32600, Note_on_c, 0, 69, 101
2, 33260, Note_on_c, 0, 66, 85
2, 33376, Note_on_c, 0, 66, 0
2, 33380, Note_on_c, 0, 67, 95
2, 33496, Note_on_c, 0, 67, 0
2, 33500, Note_on_c, 0, 69, 97
2, 33560, Note_on_c, 0, 69, 0
2, 33560, Note_on_c, 0, 69, 0
2, 33620, Note_on_c, 0, 71, 93
2, 33736, Note_on_c, 0, 71, 0
2, 33740, Note_on_c, 0, 72, 93
2, 33856, Note_on_c, 0, 72, 0
2, 33860, Note_on_c, 0, 74, 101
2, 33976, Note_on_c, 0, 74, 0
2, 33980, Note_on_c, 0, 72, 91
2, 34096, Note_on_c, 0, 72, 0
2, 34100, Note_on_c, 0, 71, 95
2, 34220, Note_on_c, 0, 71, 0
2, 34220, Note_on_c, 0, 69, 75
2, 34336, Note_on_c, 0, 69, 0
2, 34340, Note_on_c, 0, 68, 75
2, 34456, Note_on_c, 0, 68, 0
2, 34460, Note_on_c, 0, 66, 75
2, 34576, Note_on_c, 0, 66, 0
2, 34580, Note_on_c, 0, 64, 106
2, 34696, Note_on_c, 0, 64, 0
2, 34700, Note_on_c, 0, 68, 93
2, 34816, Note_on_c, 0, 68, 0
2, 34820, Note_on_c, 0, 69, 93
2, 34936, Note_on_c, 0, 69, 0
2, 34940, Note_on_c, 0, 71, 93
2, 35056, Note_on_c, 0, 71, 0
2, 35060, Note_on_c, 0, 72, 106
2, 35176, Note_on_c, 0, 72, 0
2, 35180, Note_on_c, 0, 74, 97
2, 35296, Note_on_c, 0, 74, 0
2, 35300, Note_on_c, 0, 76, 101
2, 35416, Note_on_c, 0, 76, 0
2, 35420, Note_on_c, 0, 74, 98
2, 35536, Note_on_c, 0, 74, 0
2, 35540, Note_on_c, 0, 72, 102
2, 35656, Note_on_c, 0, 72, 0
2, 35660, Note_on_c, 0, 74, 92
2, 35776, Note_on_c, 0, 74, 0
2, 35780, Note_on_c, 0, 76, 104
2, 36016, Note_on_c, 0, 76, 0
2, 36020, Note_on_c, 0, 69, 109
2, 36260, Note_on_c, 0, 69, 0
2, 36740, Note_on_c, 0, 78, 125
2, 36980, Note_on_c, 0, 78, 0
2, 37460, Note_on_c, 0, 71, 113
2, 37696, Note_on_c, 0, 71, 0
2, 37700, Note_on_c, 0, 72, 100
2, 37816, Note_on_c, 0, 72, 0
2, 37820, Note_on_c, 0, 74, 97
2, 37936, Note_on_c, 0, 74, 0
2, 37940, Note_on_c, 0, 76, 102
2, 38056, Note_on_c, 0, 76, 0
2, 38060, Note_on_c, 0, 78, 94
2, 38176, Note_on_c, 0, 78, 0
2, 38180, Note_on_c, 0, 79, 98
2, 38296, Note_on_c, 0, 79, 0
2, 38300, Note_on_c, 0, 81, 104
2, 38416, Note_on_c, 0, 81, 0
2, 38420, Note_on_c, 0, 79, 97
2, 38536, Note_on_c, 0, 79, 0
2, 38540, Note_on_c, 0, 78, 104
2, 38656, Note_on_c, 0, 78, 0
2, 38660, Note_on_c, 0, 79, 96
2, 38776, Note_on_c, 0, 79, 0
2, 38780, Note_on_c, 0, 76, 97
2, 38896, Note_on_c, 0, 76, 0
2, 38900, Note_on_c, 0, 84, 101
2, 39016, Note_on_c, 0, 84, 0
2, 39020, Note_on_c, 0, 83, 98
2, 39136, Note_on_c, 0, 83, 0
2, 39140, Note_on_c, 0, 81, 98
2, 39256, Note_on_c, 0, 81, 0
2, 39260, Note_on_c, 0, 79, 91
2, 39376, Note_on_c, 0, 79, 0
2, 39380, Note_on_c, 0, 78, 93
2, 39496, Note_on_c, 0, 78, 0
2, 39500, Note_on_c, 0, 76, 101
2, 39616, Note_on_c, 0, 76, 0
2, 39620, Note_on_c, 0, 74, 111
2, 40456, Note_on_c, 0, 74, 0
2, 40460, Note_on_c, 0, 72, 97
2, 40576, Note_on_c, 0, 72, 0
2, 40580, Note_on_c, 0, 74, 72
2, 40696, Note_on_c, 0, 74, 0
2, 40700, Note_on_c, 0, 76, 101
2, 40816, Note_on_c, 0, 76, 0
2, 40820, Note_on_c, 0, 78, 92
2, 40936, Note_on_c, 0, 78, 0
2, 40940, Note_on_c, 0, 79, 95
2, 41056, Note_on_c, 0, 79, 0
2, 41060, Note_on_c, 0, 81, 107
2, 41176, Note_on_c, 0, 81, 0
2, 41180, Note_on_c, 0, 76, 95
2, 41296, Note_on_c, 0, 76, 0
2, 41300, Note_on_c, 0, 72, 89
2, 41416, Note_on_c, 0, 72, 0
2, 41420, Note_on_c, 0, 69, 96
2, 41536, Note_on_c, 0, 69, 0
2, 41540, Note_on_c, 0, 71, 93
2, 41656, Note_on_c, 0, 71, 0
2, 41660, Note_on_c, 0, 72, 107
2, 41776, Note_on_c, 0, 72, 0
2, 41780, Note_on_c, 0, 66, 93
2, 41896, Note_on_c, 0, 66, 0
2, 41900, Note_on_c, 0, 67, 80
2, 42016, Note_on_c, 0, 67, 0
2, 42020, Note_on_c, 0, 69, 88
2, 42136, Note_on_c, 0, 69, 0
2, 42140, Note_on_c, 0, 71, 95
2, 42256, Note_on_c, 0, 71, 0
2, 42260, Note_on_c, 0, 72, 93
2, 42376, Note_on_c, 0, 72, 0
2, 42380, Note_on_c, 0, 69, 84
2, 42496, Note_on_c, 0, 69, 0
2, 42500, Note_on_c, 0, 71, 93
2, 42616, Note_on_c, 0, 71, 0
2, 42620, Note_on_c, 0, 74, 82
2, 42736, Note_on_c, 0, 74, 0
2, 42740, Note_on_c, 0, 79, 111
2, 43216, Note_on_c, 0, 79, 0
2, 43460, Note_on_c, 0, 76, 115
2, 43696, Note_on_c, 0, 76, 0
2, 43700, Note_on_c, 0, 74, 101
2, 43936, Note_on_c, 0, 74, 0
2, 43940, Note_on_c, 0, 72, 100
2, 44176, Note_on_c, 0, 72, 0
2, 44180, Note_on_c, 0, 74, 98
2, 44296, Note_on_c, 0, 74, 0
2, 44300, Note_on_c, 0, 72, 100
2, 44416, Note_on_c, 0, 72, 0
2, 44420, Note_on_c, 0, 71, 97
2, 44536, Note_on_c, 0, 71, 0
2, 44540, Note_on_c, 0, 69, 90
2, 44656, Note_on_c, 0, 69, 0
2, 44660, Note_on_c, 0, 71, 107
2, 44776, Note_on_c, 0, 71, 0
2, 44780, Note_on_c, 0, 74, 78
2, 44896, Note_on_c, 0, 74, 0
2, 44900, Note_on_c, 0, 71, 95
2, 45016, Note_on_c, 0, 71, 0
2, 45020, Note_on_c, 0, 67, 85
2, 45136, Note_on_c, 0, 67, 0
2, 45140, Note_on_c, 0, 69, 81
2, 45256, Note_on_c, 0, 69, 0
2, 45260, Note_on_c, 0, 66, 89
2, 45376, Note_on_c, 0, 66, 0
2, 45380, Note_on_c, 0, 67, 107
2, 46100, Note_on_c, 0, 67, 0
2, 46100, Note_on_c, 0, 83, 109
2, 46216, Note_on_c, 0, 83, 0
2, 46580, Note_on_c, 0, 86, 97
2, 46696, Note_on_c, 0, 86, 0
2, 47060, Note_on_c, 0, 79, 97
2, 47176, Note_on_c, 0, 79, 0
2, 47540, Note_on_c, 0, 81, 100
2, 47656, Note_on_c, 0, 81, 0
2, 48020, Note_on_c, 0, 86, 90
2, 48136, Note_on_c, 0, 86, 0
2, 48500, Note_on_c, 0, 78, 88
2, 48616, Note_on_c, 0, 78, 0
2, 48980, Note_on_c, 0, 79, 92
2, 49096, Note_on_c, 0, 79, 0
2, 49460, Note_on_c, 0, 83, 98
2, 49576, Note_on_c, 0, 83, 0
2, 49940, Note_on_c, 0, 81, 96
2, 50056, Note_on_c, 0, 81, 0
2, 50420, Note_on_c, 0, 78, 89
2, 50536, Note_on_c, 0, 78, 0
2, 50900, Note_on_c, 0, 85, 89
2, 51016, Note_on_c, 0, 85, 0
2, 51380, Note_on_c, 0, 86, 95
2, 51496, Note_on_c, 0, 86, 0
2, 51860, Note_on_c, 0, 79, 90
2, 52100, Note_on_c, 0, 79, 0
2, 52100, Note_on_c, 0, 55, 90
2, 52340, Note_on_c, 0, 55, 0
2, 52340, Note_on_c, 0, 57, 90
2, 52580, Note_on_c, 0, 57, 0
2, 52580, Note_on_c, 0, 76, 90
2, 52820, Note_on_c, 0, 76, 0
2, 52820, Note_on_c, 0, 77, 90
2, 53060, Note_on_c, 0, 77, 0
2, 53060, Note_on_c, 0, 74, 90
2, 53300, Note_on_c, 0, 74, 0
2, 53300, Note_on_c, 0, 76, 90
2, 53540, Note_on_c, 0, 76, 0
2, 53540, Note_on_c, 0, 57, 90
2, 53780, Note_on_c, 0, 57, 0
2, 53780, Note_on_c, 0, 59, 90
2, 54020, Note_on_c, 0, 59, 0
2, 54020, Note_on_c, 0, 78, 90
2, 54260, Note_on_c, 0, 78, 0
2, 54500, Note_on_c, 0, 81, 90
2, 54740, Note_on_c, 0, 81, 0
2, 54740, Note_on_c, 0, 83, 90
2, 54980, Note_on_c, 0, 83, 0
2, 54980, Note_on_c, 0, 78, 90
2, 55220, Note_on_c, 0, 78, 0
2, 55220, Note_on_c, 0, 57, 90
2, 55460, Note_on_c, 0, 57, 0
2, 55460, Note_on_c, 0, 52, 90
2, 55700, Note_on_c, 0, 52, 0
2, 55700, Note_on_c, 0, 54, 90
2, 55940, Note_on_c, 0, 54, 0
2, 56420, Note_on_c, 0, 84, 90
2, 56660, Note_on_c, 0, 84, 0
2, 56660, Note_on_c, 0, 83, 90
2, 56900, Note_on_c, 0, 83, 0
2, 56900, Note_on_c, 0, 81, 90
2, 57140, Note_on_c, 0, 81, 0
2, 57140, Note_on_c, 0, 79, 90
2, 57380, Note_on_c, 0, 79, 0
2, 57380, Note_on_c, 0, 78, 90
2, 57620, Note_on_c, 0, 78, 0
2, 57620, Note_on_c, 0, 83, 90
2, 57736, Note_on_c, 0, 83, 0
2, 57740, Note_on_c, 0, 79, 90
2, 57856, Note_on_c, 0, 79, 0
2, 57860, Note_on_c, 0, 78, 90
2, 57976, Note_on_c, 0, 78, 0
2, 57980, Note_on_c, 0, 79, 90
2, 58096, Note_on_c, 0, 79, 0
2, 58100, Note_on_c, 0, 76, 104
2, 58216, Note_on_c, 0, 76, 0
2, 58220, Note_on_c, 0, 71, 90
2, 58336, Note_on_c, 0, 71, 0
2, 58340, Note_on_c, 0, 69, 74
2, 58456, Note_on_c, 0, 69, 0
2, 58460, Note_on_c, 0, 71, 88
2, 58576, Note_on_c, 0, 71, 0
2, 58580, Note_on_c, 0, 67, 90
2, 58696, Note_on_c, 0, 67, 0
2, 58700, Note_on_c, 0, 71, 91
2, 58816, Note_on_c, 0, 71, 0
2, 58820, Note_on_c, 0, 76, 89
2, 58936, Note_on_c, 0, 76, 0
2, 58940, Note_on_c, 0, 79, 80
2, 59056, Note_on_c, 0, 79, 0
2, 59060, Note_on_c, 0, 81, 97
2, 59176, Note_on_c, 0, 81, 0
2, 59180, Note_on_c, 0, 78, 86
2, 59296, Note_on_c, 0, 78, 0
2, 59300, Note_on_c, 0, 76, 78
2, 59416, Note_on_c, 0, 76, 0
2, 59420, Note_on_c, 0, 78, 84
2, 59536, Note_on_c, 0, 78, 0
2, 59540, Note_on_c, 0, 74, 83
2, 59656, Note_on_c, 0, 74, 0
2, 59660, Note_on_c, 0, 69, 71
2, 59776, Note_on_c, 0, 69, 0
2, 59780, Note_on_c, 0, 67, 82
2, 59896, Note_on_c, 0, 67, 0
2, 59900, Note_on_c, 0, 69, 73
2, 60016, Note_on_c, 0, 69, 0
2, 60020, Note_on_c, 0, 66, 90
2, 60136, Note_on_c, 0, 66, 0
2, 60140, Note_on_c, 0, 69, 96
2, 60256, Note_on_c, 0, 69, 0
2, 60260, Note_on_c, 0, 74, 81
2, 60376, Note_on_c, 0, 74, 0
2, 60380, Note_on_c, 0, 78, 74
2, 60496, Note_on_c, 0, 78, 0
2, 60500, Note_on_c, 0, 79, 72
2, 60616, Note_on_c, 0, 79, 0
2, 60620, Note_on_c, 0, 76, 89
2, 60736, Note_on_c, 0, 76, 0
2, 60740, Note_on_c, 0, 75, 92
2, 60856, Note_on_c, 0, 75, 0
2, 60860, Note_on_c, 0, 76, 91
2, 60976, Note_on_c, 0, 76, 0
2, 60980, Note_on_c, 0, 71, 92
2, 61096, Note_on_c, 0, 71, 0
2, 61100, Note_on_c, 0, 67, 77
2, 61216, Note_on_c, 0, 67, 0
2, 61220, Note_on_c, 0, 66, 84
2, 61336, Note_on_c, 0, 66, 0
2, 61340, Note_on_c, 0, 67, 90
2, 61456, Note_on_c, 0, 67, 0
2, 61460, Note_on_c, 0, 64, 89
2, 61576, Note_on_c, 0, 64, 0
2, 61580, Note_on_c, 0, 67, 89
2, 61696, Note_on_c, 0, 67, 0
2, 61700, Note_on_c, 0, 71, 93
2, 61816, Note_on_c, 0, 71, 0
2, 61820, Note_on_c, 0, 74, 96
2, 61936, Note_on_c, 0, 74, 0
2, 61940, Note_on_c, 0, 73, 84
2, 62056, Note_on_c, 0, 73, 0
2, 62060, Note_on_c, 0, 67, 74
2, 62176, Note_on_c, 0, 67, 0
2, 62180, Note_on_c, 0, 66, 86
2, 62296, Note_on_c, 0, 66, 0
2, 62300, Note_on_c, 0, 67, 86
2, 62416, Note_on_c, 0, 67, 0
2, 62420, Note_on_c, 0, 64, 92
2, 62536, Note_on_c, 0, 64, 0
2, 62540, Note_on_c, 0, 61, 86
2, 62656, Note_on_c, 0, 61, 0
2, 62660, Note_on_c, 0, 59, 84
2, 62776, Note_on_c, 0, 59, 0
2, 62780, Note_on_c, 0, 61, 89
2, 62896, Note_on_c, 0, 61, 0
2, 62900, Note_on_c, 0, 57, 89
2, 63016, Note_on_c, 0, 57, 0
2, 63020, Note_on_c, 0, 61, 92
2, 63136, Note_on_c, 0, 61, 0
2, 63140, Note_on_c, 0, 64, 89
2, 63256, Note_on_c, 0, 64, 0
2, 63260, Note_on_c, 0, 67, 96
2, 63376, Note_on_c, 0, 67, 0
2, 63380, Note_on_c, 0, 66, 101
2, 63496, Note_on_c, 0, 66, 0
2, 63860, Note_on_c, 0, 67, 96
2, 63976, Note_on_c, 0, 67, 0
2, 64340, Note_on_c, 0, 69, 95
2, 64456, Note_on_c, 0, 69, 0
2, 64820, Note_on_c, 0, 71, 95
2, 64936, Note_on_c, 0, 71, 0
2, 65300, Note_on_c, 0, 69, 92
2, 65416, Note_on_c, 0, 69, 0
2, 65780, Note_on_c, 0, 67, 95
2, 65896, Note_on_c, 0, 67, 0
2, 66260, Note_on_c, 0, 69, 90
2, 66376, Note_on_c, 0, 69, 0
2, 66740, Note_on_c, 0, 71, 95
2, 66856, Note_on_c, 0, 71, 0
2, 67220, Note_on_c, 0, 69, 95
2, 67336, Note_on_c, 0, 69, 0
2, 67700, Note_on_c, 0, 66, 97
2, 67816, Note_on_c, 0, 66, 0
2, 67820, Note_on_c, 0, 62, 93
2, 67936, Note_on_c, 0, 62, 0
2, 67940, Note_on_c, 0, 61, 93
2, 68056, Note_on_c, 0, 61, 0
2, 68060, Note_on_c, 0, 62, 96
2, 68176, Note_on_c, 0, 62, 0
2, 68180, Note_on_c, 0, 57, 81
2, 68296, Note_on_c, 0, 57, 0
2, 68300, Note_on_c, 0, 54, 99
2, 68416, Note_on_c, 0, 54, 0
2, 68420, Note_on_c, 0, 52, 96
2, 68536, Note_on_c, 0, 52, 0
2, 68540, Note_on_c, 0, 54, 99
2, 68656, Note_on_c, 0, 54, 0
2, 68660, Note_on_c, 0, 50, 101
2, 68896, Note_on_c, 0, 50, 0
2, 69140, Note_on_c, 0, 66, 81
2, 69256, Note_on_c, 0, 66, 0
2, 69260, Note_on_c, 0, 69, 90
2, 69376, Note_on_c, 0, 69, 0
2, 69380, Note_on_c, 0, 67, 93
2, 69496, Note_on_c, 0, 67, 0
2, 69500, Note_on_c, 0, 69, 90
2, 69616, Note_on_c, 0, 69, 0
2, 69620, Note_on_c, 0, 74, 100
2, 69736, Note_on_c, 0, 74, 0
2, 69740, Note_on_c, 0, 78, 102
2, 69856, Note_on_c, 0, 78, 0
2, 69860, Note_on_c, 0, 76, 97
2, 69976, Note_on_c, 0, 76, 0
2, 69980, Note_on_c, 0, 78, 88
2, 70096, Note_on_c, 0, 78, 0
2, 70100, Note_on_c, 0, 81, 109
2, 70216, Note_on_c, 0, 81, 0
2, 70220, Note_on_c, 0, 78, 92
2, 70336, Note_on_c, 0, 78, 0
2, 70340, Note_on_c, 0, 72, 90
2, 70456, Note_on_c, 0, 72, 0
2, 70460, Note_on_c, 0, 69, 83
2, 70576, Note_on_c, 0, 69, 0
2, 70580, Note_on_c, 0, 71, 85
2, 70696, Note_on_c, 0, 71, 0
2, 70700, Note_on_c, 0, 74, 84
2, 70816, Note_on_c, 0, 74, 0
2, 70820, Note_on_c, 0, 72, 91
2, 70936, Note_on_c, 0, 72, 0
2, 70940, Note_on_c, 0, 74, 96
2, 71056, Note_on_c, 0, 74, 0
2, 71060, Note_on_c, 0, 79, 92
2, 71176, Note_on_c, 0, 79, 0
2, 71180, Note_on_c, 0, 83, 100
2, 71296, Note_on_c, 0, 83, 0
2, 71300, Note_on_c, 0, 81, 92
2, 71416, Note_on_c, 0, 81, 0
2, 71420, Note_on_c, 0, 83, 95
2, 71536, Note_on_c, 0, 83, 0
2, 71540, Note_on_c, 0, 86, 88
2, 71660, Note_on_c, 0, 86, 0
2, 71660, Note_on_c, 0, 83, 36
2, 71776, Note_on_c, 0, 83, 0
2, 71780, Note_on_c, 0, 77, 88
2, 71896, Note_on_c, 0, 77, 0
2, 71900, Note_on_c, 0, 74, 75
2, 72016, Note_on_c, 0, 74, 0
2, 72020, Note_on_c, 0, 76, 89
2, 72256, Note_on_c, 0, 76, 0
2, 72260, Note_on_c, 0, 71, 93
2, 72496, Note_on_c, 0, 71, 0
2, 72500, Note_on_c, 0, 72, 89
2, 72736, Note_on_c, 0, 72, 0
2, 72740, Note_on_c, 0, 63, 96
2, 72976, Note_on_c, 0, 63, 0
2, 72980, Note_on_c, 0, 64, 86
2, 73216, Note_on_c, 0, 64, 0
2, 73220, Note_on_c, 0, 55, 88
2, 73456, Note_on_c, 0, 55, 0
2, 73460, Note_on_c, 0, 54, 91
2, 73700, Note_on_c, 0, 54, 0
2, 73700, Note_on_c, 0, 76, 93
2, 73936, Note_on_c, 0, 76, 0
2, 73940, Note_on_c, 0, 75, 76
2, 74056, Note_on_c, 0, 75, 0
2, 74060, Note_on_c, 0, 78, 85
2, 74176, Note_on_c, 0, 78, 0
2, 74180, Note_on_c, 0, 76, 91
2, 74296, Note_on_c, 0, 76, 0
2, 74300, Note_on_c, 0, 78, 88
2, 74416, Note_on_c, 0, 78, 0
2, 74420, Note_on_c, 0, 81, 82
2, 74536, Note_on_c, 0, 81, 0
2, 74540, Note_on_c, 0, 78, 86
2, 74656, Note_on_c, 0, 78, 0
2, 74660, Note_on_c, 0, 75, 78
2, 74776, Note_on_c, 0, 75, 0
2, 74780, Note_on_c, 0, 78, 92
2, 74896, Note_on_c, 0, 78, 0
2, 74900, Note_on_c, 0, 71, 92
2, 75016, Note_on_c, 0, 71, 0
2, 75380, Note_on_c, 0, 73, 92
2, 75496, Note_on_c, 0, 73, 0
2, 75860, Note_on_c, 0, 75, 92
2, 75976, Note_on_c, 0, 75, 0
2, 76340, Note_on_c, 0, 76, 92
2, 76456, Note_on_c, 0, 76, 0
2, 76820, Note_on_c, 0, 75, 92
2, 76936, Note_on_c, 0, 75, 0
2, 77300, Note_on_c, 0, 76, 92
2, 77416, Note_on_c, 0, 76, 0
2, 77780, Note_on_c, 0, 73, 92
2, 77896, Note_on_c, 0, 73, 0
2, 78260, Note_on_c, 0, 71, 92
2, 78376, Note_on_c, 0, 71, 0
2, 78740, Note_on_c, 0, 69, 92
2, 78856, Note_on_c, 0, 69, 0
2, 79220, Note_on_c, 0, 76, 111
2, 79336, Note_on_c, 0, 76, 0
2, 79340, Note_on_c, 0, 67, 101
2, 79456, Note_on_c, 0, 67, 0
2, 79460, Note_on_c, 0, 66, 93
2, 79576, Note_on_c, 0, 66, 0
2, 79580, Note_on_c, 0, 67, 113
2, 79696, Note_on_c, 0, 67, 0
2, 79700, Note_on_c, 0, 71, 101
2, 79816, Note_on_c, 0, 71, 0
2, 79820, Note_on_c, 0, 76, 106
2, 79936, Note_on_c, 0, 76, 0
2, 79940, Note_on_c, 0, 75, 88
2, 80056, Note_on_c, 0, 75, 0
2, 80060, Note_on_c, 0, 76, 92
2, 80176, Note_on_c, 0, 76, 0
2, 80180, Note_on_c, 0, 79, 102
2, 80236, Note_on_c, 0, 79, 0
2, 80240, Note_on_c, 0, 77, 104
2, 80296, Note_on_c, 0, 77, 0
2, 80300, Note_on_c, 0, 76, 113
2, 80416, Note_on_c, 0, 76, 0
2, 80420, Note_on_c, 0, 77, 102
2, 80476, Note_on_c, 0, 77, 0
2, 80480, Note_on_c, 0, 76, 113
2, 80536, Note_on_c, 0, 76, 0
2, 80540, Note_on_c, 0, 74, 111
2, 80656, Note_on_c, 0, 74, 0
2, 80660, Note_on_c, 0, 76, 106
2, 80896, Note_on_c, 0, 76, 0
2, 80900, Note_on_c, 0, 64, 107
2, 81136, Note_on_c, 0, 64, 0
2, 81140, Note_on_c, 0, 63, 101
2, 81376, Note_on_c, 0, 63, 0
2, 81380, Note_on_c, 0, 62, 107
2, 81616, Note_on_c, 0, 62, 0
2, 81620, Note_on_c, 0, 61, 119
2, 81856, Note_on_c, 0, 61, 0
2, 81860, Note_on_c, 0, 76, 119
2, 82096, Note_on_c, 0, 76, 0
2, 82100, Note_on_c, 0, 74, 97
2, 82336, Note_on_c, 0, 74, 0
2, 82340, Note_on_c, 0, 62, 88
2, 82576, Note_on_c, 0, 62, 0
2, 82580, Note_on_c, 0, 61, 102
2, 82816, Note_on_c, 0, 61, 0
2, 82820, Note_on_c, 0, 60, 102
2, 83056, Note_on_c, 0, 60, 0
2, 83060, Note_on_c, 0, 59, 95
2, 83296, Note_on_c, 0, 59, 0
2, 83300, Note_on_c, 0, 74, 106
2, 83536, Note_on_c, 0, 74, 0
2, 83540, Note_on_c, 0, 64, 123
2, 83656, Note_on_c, 0, 64, 0
2, 84020, Note_on_c, 0, 62, 123
2, 84136, Note_on_c, 0, 62, 0
2, 84500, Note_on_c, 0, 64, 123
2, 84616, Note_on_c, 0, 64, 0
2, 84980, Note_on_c, 0, 66, 123
2, 85096, Note_on_c, 0, 66, 0
2, 85460, Note_on_c, 0, 64, 123
2, 85576, Note_on_c, 0, 64, 0
2, 85940, Note_on_c, 0, 66, 123
2, 86056, Note_on_c, 0, 66, 0
2, 86420, Note_on_c, 0, 71, 123
2, 86536, Note_on_c, 0, 71, 0
2, 86900, Note_on_c, 0, 72, 123
2, 87016, Note_on_c, 0, 72, 0
2, 87380, Note_on_c, 0, 74, 123
2, 87496, Note_on_c, 0, 74, 0
2, 87860, Note_on_c, 0, 64, 119
2, 88096, Note_on_c, 0, 64, 0
2, 88100, Note_on_c, 0, 76, 115
2, 88336, Note_on_c, 0, 76, 0
2, 88340, Note_on_c, 0, 77, 107
2, 88576, Note_on_c, 0, 77, 0
2, 88580, Note_on_c, 0, 78, 94
2, 88816, Note_on_c, 0, 78, 0
2, 88820, Note_on_c, 0, 79, 97
2, 89056, Note_on_c, 0, 79, 0
2, 89060, Note_on_c, 0, 80, 97
2, 89296, Note_on_c, 0, 80, 0
2, 89300, Note_on_c, 0, 81, 119
2, 89416, Note_on_c, 0, 81, 0
2, 89420, Note_on_c, 0, 66, 104
2, 89536, Note_on_c, 0, 66, 0
2, 89540, Note_on_c, 0, 64, 101
2, 89656, Note_on_c, 0, 64, 0
2, 89660, Note_on_c, 0, 66, 93
2, 89776, Note_on_c, 0, 66, 0
2, 89780, Note_on_c, 0, 67, 100
2, 89896, Note_on_c, 0, 67, 0
2, 89900, Note_on_c, 0, 71, 97
2, 90016, Note_on_c, 0, 71, 0
2, 90020, Note_on_c, 0, 69, 96
2, 90136, Note_on_c, 0, 69, 0
2, 90140, Note_on_c, 0, 71, 96
2, 90256, Note_on_c, 0, 71, 0
2, 90260, Note_on_c, 0, 72, 100
2, 90376, Note_on_c, 0, 72, 0
2, 90380, Note_on_c, 0, 69, 90
2, 90496, Note_on_c, 0, 69, 0
2, 90500, Note_on_c, 0, 66, 102
2, 90616, Note_on_c, 0, 66, 0
2, 90620, Note_on_c, 0, 62, 83
2, 90736, Note_on_c, 0, 62, 0
2, 90740, Note_on_c, 0, 67, 102
2, 90856, Note_on_c, 0, 67, 0
2, 90860, Note_on_c, 0, 71, 102
2, 90976, Note_on_c, 0, 71, 0
2, 90980, Note_on_c, 0, 69, 102
2, 91096, Note_on_c, 0, 69, 0
2, 91100, Note_on_c, 0, 71, 102
2, 91216, Note_on_c, 0, 71, 0
2, 91220, Note_on_c, 0, 74, 102
2, 91336, Note_on_c, 0, 74, 0
2, 91340, Note_on_c, 0, 79, 102
2, 91456, Note_on_c, 0, 79, 0
2, 91460, Note_on_c, 0, 78, 102
2, 91576, Note_on_c, 0, 78, 0
2, 91580, Note_on_c, 0, 79, 102
2, 91696, Note_on_c, 0, 79, 0
2, 91700, Note_on_c, 0, 83, 102
2, 92180, Note_on_c, 0, 83, 0
2, 93600, End_track
3, 0, Start_track
3, 0, Title_t, "goldberg.mid"
3, 46160, Note_on_c, 1, 74, 101
3, 46216, Note_on_c, 1, 74, 0
3, 46220, Note_on_c, 1, 76, 90
3, 46276, Note_on_c, 1, 76, 0
3, 46280, Note_on_c, 1, 74, 95
3, 46336, Note_on_c, 1, 74, 0
3, 46340, Note_on_c, 1, 76, 90
3, 46396, Note_on_c, 1, 76, 0
3, 46400, Note_on_c, 1, 74, 93
3, 46456, Note_on_c, 1, 74, 0
3, 46460, Note_on_c, 1, 76, 95
3, 46516, Note_on_c, 1, 76, 0
3, 46520, Note_on_c, 1, 74, 92
3, 46576, Note_on_c, 1, 74, 0
3, 46640, Note_on_c, 1, 74, 95
3, 46696, Note_on_c, 1, 74, 0
3, 46700, Note_on_c, 1, 76, 93
3, 46756, Note_on_c, 1, 76, 0
3, 46760, Note_on_c, 1, 74, 90
3, 46816, Note_on_c, 1, 74, 0
3, 46820, Note_on_c, 1, 76, 95
3, 46876, Note_on_c, 1, 76, 0
3, 46880, Note_on_c, 1, 74, 92
3, 46936, Note_on_c, 1, 74, 0
3, 46940, Note_on_c, 1, 76, 92
3, 46996, Note_on_c, 1, 76, 0
3, 47000, Note_on_c, 1, 74, 97
3, 47056, Note_on_c, 1, 74, 0
3, 47120, Note_on_c, 1, 74, 97
3, 47176, Note_on_c, 1, 74, 0
3, 47180, Note_on_c, 1, 76, 91
3, 47236, Note_on_c, 1, 76, 0
3, 47240, Note_on_c, 1, 74, 91
3, 47296, Note_on_c, 1, 74, 0
3, 47300, Note_on_c, 1, 76, 90
3, 47356, Note_on_c, 1, 76, 0
3, 47360, Note_on_c, 1, 74, 97
3, 47416, Note_on_c, 1, 74, 0
3, 47420, Note_on_c, 1, 76, 93
3, 47476, Note_on_c, 1, 76, 0
3, 47480, Note_on_c, 1, 74, 96
3, 47536, Note_on_c, 1, 74, 0
3, 47600, Note_on_c, 1, 74, 100
3, 47656, Note_on_c, 1, 74, 0
3, 47660, Note_on_c, 1, 76, 84
3, 47716, Note_on_c, 1, 76, 0
3, 47720, Note_on_c, 1, 74, 89
3, 47776, Note_on_c, 1, 74, 0
3, 47780, Note_on_c, 1, 76, 89
3, 47836, Note_on_c, 1, 76, 0
3, 47840, Note_on_c, 1, 74, 95
3, 47896, Note_on_c, 1, 74, 0
3, 47900, Note_on_c, 1, 76, 92
3, 47956, Note_on_c, 1, 76, 0
3, 47960, Note_on_c, 1, 74, 92
3, 48016, Note_on_c, 1, 74, 0
3, 48080, Note_on_c, 1, 74, 91
3, 48136, Note_on_c, 1, 74, 0
3, 48140, Note_on_c, 1, 76, 89
3, 48196, Note_on_c, 1, 76, 0
3, 48200, Note_on_c, 1, 74, 92
3, 48256, Note_on_c, 1, 74, 0
3, 48260, Note_on_c, 1, 76, 91
3, 48316, Note_on_c, 1, 76, 0
3, 48320, Note_on_c, 1, 74, 91
3, 48376, Note_on_c, 1, 74, 0
3, 48380, Note_on_c, 1, 76, 92
3, 48436, Note_on_c, 1, 76, 0
3, 48440, Note_on_c, 1, 74, 93
3, 48496, Note_on_c, 1, 74, 0
3, 48560, Note_on_c, 1, 74, 95
3, 48616, Note_on_c, 1, 74, 0
3, 48620, Note_on_c, 1, 76, 88
3, 48676, Note_on_c, 1, 76, 0
3, 48680, Note_on_c, 1, 74, 90
3, 48736, Note_on_c, 1, 74, 0
3, 48740, Note_on_c, 1, 76, 92
3, 48796, Note_on_c, 1, 76, 0
3, 48800, Note_on_c, 1, 74, 91
3, 48856, Note_on_c, 1, 74, 0
3, 48860, Note_on_c, 1, 76, 90
3, 48916, Note_on_c, 1, 76, 0
3, 48920, Note_on_c, 1, 74, 90
3, 48976, Note_on_c, 1, 74, 0
3, 49040, Note_on_c, 1, 74, 96
3, 49096, Note_on_c, 1, 74, 0
3, 49100, Note_on_c, 1, 76, 91
3, 49156, Note_on_c, 1, 76, 0
3, 49160, Note_on_c, 1, 74, 92
3, 49216, Note_on_c, 1, 74, 0
3, 49220, Note_on_c, 1, 76, 96
3, 49276, Note_on_c, 1, 76, 0
3, 49280, Note_on_c, 1, 74, 90
3, 49336, Note_on_c, 1, 74, 0
3, 49340, Note_on_c, 1, 76, 93
3, 49396, Note_on_c, 1, 76, 0
3, 49400, Note_on_c, 1, 74, 93
3, 49456, Note_on_c, 1, 74, 0
3, 49520, Note_on_c, 1, 74, 97
3, 49576, Note_on_c, 1, 74, 0
3, 49580, Note_on_c, 1, 76, 86
3, 49636, Note_on_c, 1, 76, 0
3, 49640, Note_on_c, 1, 74, 90
3, 49696, Note_on_c, 1, 74, 0
3, 49700, Note_on_c, 1, 76, 92
3, 49756, Note_on_c, 1, 76, 0
3, 49760, Note_on_c, 1, 74, 95
3, 49816, Note_on_c, 1, 74, 0
3, 49820, Note_on_c, 1, 76, 88
3, 49876, Note_on_c, 1, 76, 0
3, 49880, Note_on_c, 1, 74, 93
3, 49936, Note_on_c, 1, 74, 0
3, 50000, Note_on_c, 1, 73, 92
3, 50056, Note_on_c, 1, 73, 0
3, 50060, Note_on_c, 1, 74, 84
3, 50116, Note_on_c, 1, 74, 0
3, 50120, Note_on_c, 1, 73, 85
3, 50176, Note_on_c, 1, 73, 0
3, 50180, Note_on_c, 1, 74, 89
3, 50236, Note_on_c, 1, 74, 0
3, 50240, Note_on_c, 1, 73, 94
3, 50296, Note_on_c, 1, 73, 0
3, 50300, Note_on_c, 1, 74, 93
3, 50356, Note_on_c, 1, 74, 0
3, 50360, Note_on_c, 1, 73, 93
3, 50416, Note_on_c, 1, 73, 0
3, 50480, Note_on_c, 1, 74, 86
3, 50536, Note_on_c, 1, 74, 0
3, 50540, Note_on_c, 1, 76, 89
3, 50596, Note_on_c, 1, 76, 0
3, 50600, Note_on_c, 1, 74, 86
3, 50656, Note_on_c, 1, 74, 0
3, 50660, Note_on_c, 1, 76, 90
3, 50716, Note_on_c, 1, 76, 0
3, 50720, Note_on_c, 1, 74, 86
3, 50776, Note_on_c, 1, 74, 0
3, 50780, Note_on_c, 1, 76, 92
3, 50836, Note_on_c, 1, 76, 0
3, 50840, Note_on_c, 1, 74, 84
3, 50896, Note_on_c, 1, 74, 0
3, 50960, Note_on_c, 1, 74, 90
3, 51016, Note_on_c, 1, 74, 0
3, 51020, Note_on_c, 1, 76, 90
3, 51076, Note_on_c, 1, 76, 0
3, 51080, Note_on_c, 1, 74, 85
3, 51136, Note_on_c, 1, 74, 0
3, 51140, Note_on_c, 1, 76, 92
3, 51196, Note_on_c, 1, 76, 0
3, 51200, Note_on_c, 1, 74, 88
3, 51256, Note_on_c, 1, 74, 0
3, 51260, Note_on_c, 1, 76, 72
3, 51316, Note_on_c, 1, 76, 0
3, 51320, Note_on_c, 1, 74, 90
3, 51376, Note_on_c, 1, 74, 0
3, 51440, Note_on_c, 1, 74, 93
3, 51496, Note_on_c, 1, 74, 0
3, 51500, Note_on_c, 1, 76, 92
3, 51556, Note_on_c, 1, 76, 0
3, 51560, Note_on_c, 1, 74, 90
3, 51616, Note_on_c, 1, 74, 0
3, 51620, Note_on_c, 1, 76, 93
3, 51676, Note_on_c, 1, 76, 0
3, 51680, Note_on_c, 1, 74, 92
3, 51736, Note_on_c, 1, 74, 0
3, 51740, Note_on_c, 1, 76, 95
3, 51796, Note_on_c, 1, 76, 0
3, 51800, Note_on_c, 1, 74, 96
3, 51856, Note_on_c, 1, 74, 0
3, 53060, Note_on_c, 1, 71, 101
3, 53296, Note_on_c, 1, 71, 0
3, 53300, Note_on_c, 1, 72, 111
3, 53536, Note_on_c, 1, 72, 0
3, 54260, Note_on_c, 1, 79, 112
3, 54496, Note_on_c, 1, 79, 0
3, 54500, Note_on_c, 1, 73, 112
3, 54736, Note_on_c, 1, 73, 0
3, 54740, Note_on_c, 1, 74, 104
3, 54976, Note_on_c, 1, 74, 0
3, 54980, Note_on_c, 1, 54, 104
3, 55216, Note_on_c, 1, 54, 0
3, 55220, Note_on_c, 1, 55, 104
3, 55456, Note_on_c, 1, 55, 0
3, 55460, Note_on_c, 1, 49, 104
3, 55696, Note_on_c, 1, 49, 0
3, 55700, Note_on_c, 1, 50, 104
3, 55936, Note_on_c, 1, 50, 0
3, 55940, Note_on_c, 1, 38, 104
3, 56176, Note_on_c, 1, 38, 0
3, 56180, Note_on_c, 1, 43, 104
3, 56416, Note_on_c, 1, 43, 0
3, 56420, Note_on_c, 1, 76, 104
3, 56656, Note_on_c, 1, 76, 0
3, 56660, Note_on_c, 1, 74, 104
3, 56896, Note_on_c, 1, 74, 0
3, 56900, Note_on_c, 1, 72, 104
3, 57136, Note_on_c, 1, 72, 0
3, 57140, Note_on_c, 1, 71, 104
3, 57376, Note_on_c, 1, 71, 0
3, 57380, Note_on_c, 1, 69, 104
3, 57380, Note_on_c, 1, 72, 104
3, 57616, Note_on_c, 1, 69, 0
3, 57616, Note_on_c, 1, 72, 0
3, 57620, Note_on_c, 1, 74, 104
3, 57620, Note_on_c, 1, 71, 104
3, 57740, Note_on_c, 1, 74, 0
3, 57740, Note_on_c, 1, 71, 0
3, 63440, Note_on_c, 1, 62, 88
3, 63496, Note_on_c, 1, 62, 0
3, 63500, Note_on_c, 1, 64, 93
3, 63556, Note_on_c, 1, 64, 0
3, 63560, Note_on_c, 1, 62, 93
3, 63616, Note_on_c, 1, 62, 0
3, 63620, Note_on_c, 1, 64, 100
3, 63676, Note_on_c, 1, 64, 0
3, 63680, Note_on_c, 1, 62, 90
3, 63736, Note_on_c, 1, 62, 0
3, 63740, Note_on_c, 1, 64, 91
3, 63796, Note_on_c, 1, 64, 0
3, 63800, Note_on_c, 1, 62, 98
3, 63856, Note_on_c, 1, 62, 0
3, 63920, Note_on_c, 1, 62, 90
3, 63976, Note_on_c, 1, 62, 0
3, 63980, Note_on_c, 1, 64, 89
3, 64036, Note_on_c, 1, 64, 0
3, 64040, Note_on_c, 1, 62, 90
3, 64096, Note_on_c, 1, 62, 0
3, 64100, Note_on_c, 1, 64, 91
3, 64156, Note_on_c, 1, 64, 0
3, 64160, Note_on_c, 1, 62, 91
3, 64216, Note_on_c, 1, 62, 0
3, 64220, Note_on_c, 1, 64, 93
3, 64276, Note_on_c, 1, 64, 0
3, 64280, Note_on_c, 1, 62, 95
3, 64336, Note_on_c, 1, 62, 0
3, 64400, Note_on_c, 1, 62, 98
3, 64456, Note_on_c, 1, 62, 0
3, 64460, Note_on_c, 1, 64, 93
3, 64516, Note_on_c, 1, 64, 0
3, 64520, Note_on_c, 1, 62, 92
3, 64576, Note_on_c, 1, 62, 0
3, 64580, Note_on_c, 1, 64, 92
3, 64636, Note_on_c, 1, 64, 0
3, 64640, Note_on_c, 1, 62, 85
3, 64696, Note_on_c, 1, 62, 0
3, 64700, Note_on_c, 1, 64, 92
3, 64756, Note_on_c, 1, 64, 0
3, 64760, Note_on_c, 1, 62, 102
3, 64816, Note_on_c, 1, 62, 0
3, 64880, Note_on_c, 1, 62, 100
3, 64936, Note_on_c, 1, 62, 0
3, 64940, Note_on_c, 1, 64, 96
3, 64996, Note_on_c, 1, 64, 0
3, 65000, Note_on_c, 1, 62, 90
3, 65056, Note_on_c, 1, 62, 0
3, 65060, Note_on_c, 1, 64, 97
3, 65116, Note_on_c, 1, 64, 0
3, 65120, Note_on_c, 1, 62, 91
3, 65176, Note_on_c, 1, 62, 0
3, 65180, Note_on_c, 1, 64, 97
3, 65236, Note_on_c, 1, 64, 0
3, 65240, Note_on_c, 1, 62, 97
3, 65296, Note_on_c, 1, 62, 0
3, 65360, Note_on_c, 1, 62, 100
3, 65416, Note_on_c, 1, 62, 0
3, 65420, Note_on_c, 1, 64, 96
3, 65476, Note_on_c, 1, 64, 0
3, 65480, Note_on_c, 1, 62, 89
3, 65536, Note_on_c, 1, 62, 0
3, 65540, Note_on_c, 1, 64, 95
3, 65596, Note_on_c, 1, 64, 0
3, 65600, Note_on_c, 1, 62, 90
3, 65656, Note_on_c, 1, 62, 0
3, 65660, Note_on_c, 1, 64, 96
3, 65716, Note_on_c, 1, 64, 0
3, 65720, Note_on_c, 1, 62, 97
3, 65776, Note_on_c, 1, 62, 0
3, 65840, Note_on_c, 1, 62, 101
3, 65896, Note_on_c, 1, 62, 0
3, 65900, Note_on_c, 1, 64, 91
3, 65956, Note_on_c, 1, 64, 0
3, 65960, Note_on_c, 1, 62, 86
3, 66016, Note_on_c, 1, 62, 0
3, 66020, Note_on_c, 1, 64, 91
3, 66076, Note_on_c, 1, 64, 0
3, 66080, Note_on_c, 1, 62, 83
3, 66136, Note_on_c, 1, 62, 0
3, 66140, Note_on_c, 1, 64, 92
3, 66196, Note_on_c, 1, 64, 0
3, 66200, Note_on_c, 1, 62, 88
3, 66256, Note_on_c, 1, 62, 0
3, 66320, Note_on_c, 1, 62, 97
3, 66376, Note_on_c, 1, 62, 0
3, 66380, Note_on_c, 1, 64, 97
3, 66436, Note_on_c, 1, 64, 0
3, 66440, Note_on_c, 1, 62, 91
3, 66496, Note_on_c, 1, 62, 0
3, 66500, Note_on_c, 1, 64, 93
3, 66556, Note_on_c, 1, 64, 0
3, 66560, Note_on_c, 1, 62, 78
3, 66616, Note_on_c, 1, 62, 0
3, 66620, Note_on_c, 1, 64, 96
3, 66676, Note_on_c, 1, 64, 0
3, 66680, Note_on_c, 1, 62, 92
3, 66736, Note_on_c, 1, 62, 0
3, 66800, Note_on_c, 1, 62, 101
3, 66856, Note_on_c, 1, 62, 0
3, 66860, Note_on_c, 1, 64, 92
3, 66916, Note_on_c, 1, 64, 0
3, 66920, Note_on_c, 1, 62, 91
3, 66976, Note_on_c, 1, 62, 0
3, 66980, Note_on_c, 1, 64, 93
3, 67036, Note_on_c, 1, 64, 0
3, 67040, Note_on_c, 1, 62, 88
3, 67096, Note_on_c, 1, 62, 0
3, 67100, Note_on_c, 1, 64, 101
3, 67156, Note_on_c, 1, 64, 0
3, 67160, Note_on_c, 1, 62, 97
3, 67216, Note_on_c, 1, 62, 0
3, 67280, Note_on_c, 1, 61, 96
3, 67336, Note_on_c, 1, 61, 0
3, 67340, Note_on_c, 1, 62, 92
3, 67396, Note_on_c, 1, 62, 0
3, 67400, Note_on_c, 1, 61, 102
3, 67456, Note_on_c, 1, 61, 0
3, 67460, Note_on_c, 1, 62, 91
3, 67516, Note_on_c, 1, 62, 0
3, 67520, Note_on_c, 1, 61, 88
3, 67576, Note_on_c, 1, 61, 0
3, 67580, Note_on_c, 1, 62, 92
3, 67636, Note_on_c, 1, 62, 0
3, 67640, Note_on_c, 1, 61, 101
3, 67696, Note_on_c, 1, 61, 0
3, 74960, Note_on_c, 1, 79, 97
3, 75016, Note_on_c, 1, 79, 0
3, 75020, Note_on_c, 1, 81, 78
3, 75076, Note_on_c, 1, 81, 0
3, 75080, Note_on_c, 1, 79, 76
3, 75136, Note_on_c, 1, 79, 0
3, 75140, Note_on_c, 1, 81, 82
3, 75196, Note_on_c, 1, 81, 0
3, 75200, Note_on_c, 1, 79, 80
3, 75256, Note_on_c, 1, 79, 0
3, 75260, Note_on_c, 1, 81, 84
3, 75316, Note_on_c, 1, 81, 0
3, 75320, Note_on_c, 1, 79, 81
3, 75376, Note_on_c, 1, 79, 0
3, 75440, Note_on_c, 1, 79, 81
3, 75496, Note_on_c, 1, 79, 0
3, 75500, Note_on_c, 1, 81, 80
3, 75556, Note_on_c, 1, 81, 0
3, 75560, Note_on_c, 1, 79, 71
3, 75616, Note_on_c, 1, 79, 0
3, 75620, Note_on_c, 1, 81, 82
3, 75676, Note_on_c, 1, 81, 0
3, 75680, Note_on_c, 1, 79, 71
3, 75736, Note_on_c, 1, 79, 0
3, 75740, Note_on_c, 1, 81, 90
3, 75796, Note_on_c, 1, 81, 0
3, 75800, Note_on_c, 1, 79, 77
3, 75856, Note_on_c, 1, 79, 0
3, 75920, Note_on_c, 1, 79, 96
3, 75976, Note_on_c, 1, 79, 0
3, 75980, Note_on_c, 1, 81, 83
3, 76036, Note_on_c, 1, 81, 0
3, 76040, Note_on_c, 1, 79, 85
3, 76096, Note_on_c, 1, 79, 0
3, 76100, Note_on_c, 1, 81, 84
3, 76156, Note_on_c, 1, 81, 0
3, 76160, Note_on_c, 1, 79, 71
3, 76216, Note_on_c, 1, 79, 0
3, 76220, Note_on_c, 1, 81, 89
3, 76276, Note_on_c, 1, 81, 0
3, 76280, Note_on_c, 1, 79, 91
3, 76336, Note_on_c, 1, 79, 0
3, 76400, Note_on_c, 1, 79, 98
3, 76456, Note_on_c, 1, 79, 0
3, 76460, Note_on_c, 1, 81, 89
3, 76516, Note_on_c, 1, 81, 0
3, 76520, Note_on_c, 1, 79, 86
3, 76576, Note_on_c, 1, 79, 0
3, 76580, Note_on_c, 1, 81, 84
3, 76636, Note_on_c, 1, 81, 0
3, 76640, Note_on_c, 1, 79, 85
3, 76696, Note_on_c, 1, 79, 0
3, 76700, Note_on_c, 1, 81, 80
3, 76756, Note_on_c, 1, 81, 0
3, 76760, Note_on_c, 1, 79, 91
3, 76816, Note_on_c, 1, 79, 0
3, 76880, Note_on_c, 1, 79, 100
3, 76936, Note_on_c, 1, 79, 0
3, 76940, Note_on_c, 1, 81, 91
3, 76996, Note_on_c, 1, 81, 0
3, 77000, Note_on_c, 1, 79, 80
3, 77056, Note_on_c, 1, 79, 0
3, 77060, Note_on_c, 1, 81, 85
3, 77116, Note_on_c, 1, 81, 0
3, 77120, Note_on_c, 1, 79, 66
3, 77176, Note_on_c, 1, 79, 0
3, 77180, Note_on_c, 1, 81, 86
3, 77236, Note_on_c, 1, 81, 0
3, 77240, Note_on_c, 1, 79, 88
3, 77296, Note_on_c, 1, 79, 0
3, 77360, Note_on_c, 1, 79, 101
3, 77416, Note_on_c, 1, 79, 0
3, 77420, Note_on_c, 1, 81, 88
3, 77476, Note_on_c, 1, 81, 0
3, 77480, Note_on_c, 1, 79, 88
3, 77536, Note_on_c, 1, 79, 0
3, 77540, Note_on_c, 1, 81, 85
3, 77596, Note_on_c, 1, 81, 0
3, 77600, Note_on_c, 1, 79, 82
3, 77656, Note_on_c, 1, 79, 0
3, 77660, Note_on_c, 1, 81, 90
3, 77716, Note_on_c, 1, 81, 0
3, 77720, Note_on_c, 1, 79, 88
3, 77776, Note_on_c, 1, 79, 0
3, 77840, Note_on_c, 1, 79, 97
3, 77896, Note_on_c, 1, 79, 0
3, 77900, Note_on_c, 1, 81, 85
3, 77956, Note_on_c, 1, 81, 0
3, 77960, Note_on_c, 1, 79, 86
3, 78016, Note_on_c, 1, 79, 0
3, 78020, Note_on_c, 1, 81, 88
3, 78076, Note_on_c, 1, 81, 0
3, 78080, Note_on_c, 1, 79, 78
3, 78136, Note_on_c, 1, 79, 0
3, 78140, Note_on_c, 1, 81, 90
3, 78196, Note_on_c, 1, 81, 0
3, 78200, Note_on_c, 1, 79, 86
3, 78256, Note_on_c, 1, 79, 0
3, 78320, Note_on_c, 1, 79, 98
3, 78376, Note_on_c, 1, 79, 0
3, 78380, Note_on_c, 1, 81, 89
3, 78436, Note_on_c, 1, 81, 0
3, 78440, Note_on_c, 1, 79, 91
3, 78496, Note_on_c, 1, 79, 0
3, 78500, Note_on_c, 1, 81, 89
3, 78556, Note_on_c, 1, 81, 0
3, 78560, Note_on_c, 1, 79, 80
3, 78616, Note_on_c, 1, 79, 0
3, 78620, Note_on_c, 1, 81, 101
3, 78676, Note_on_c, 1, 81, 0
3, 78680, Note_on_c, 1, 79, 95
3, 78736, Note_on_c, 1, 79, 0
3, 78800, Note_on_c, 1, 78, 82
3, 78856, Note_on_c, 1, 78, 0
3, 78860, Note_on_c, 1, 79, 89
3, 78916, Note_on_c, 1, 79, 0
3, 78920, Note_on_c, 1, 78, 86
3, 78976, Note_on_c, 1, 78, 0
3, 78980, Note_on_c, 1, 79, 91
3, 79036, Note_on_c, 1, 79, 0
3, 79040, Note_on_c, 1, 78, 92
3, 79096, Note_on_c, 1, 78, 0
3, 79100, Note_on_c, 1, 79, 83
3, 79156, Note_on_c, 1, 79, 0
3, 79160, Note_on_c, 1, 78, 94
3, 79216, Note_on_c, 1, 78, 0
3, 83600, Note_on_c, 1, 72, 97
3, 83656, Note_on_c, 1, 72, 0
3, 83660, Note_on_c, 1, 74, 85
3, 83716, Note_on_c, 1, 74, 0
3, 83720, Note_on_c, 1, 72, 86
3, 83776, Note_on_c, 1, 72, 0
3, 83780, Note_on_c, 1, 74, 80
3, 83836, Note_on_c, 1, 74, 0
3, 83840, Note_on_c, 1, 72, 88
3, 83896, Note_on_c, 1, 72, 0
3, 83900, Note_on_c, 1, 74, 86
3, 83956, Note_on_c, 1, 74, 0
3, 83960, Note_on_c, 1, 72, 100
3, 84016, Note_on_c, 1, 72, 0
3, 84080, Note_on_c, 1, 72, 102
3, 84136, Note_on_c, 1, 72, 0
3, 84140, Note_on_c, 1, 74, 84
3, 84196, Note_on_c, 1, 74, 0
3, 84200, Note_on_c, 1, 72, 95
3, 84256, Note_on_c, 1, 72, 0
3, 84260, Note_on_c, 1, 74, 82
3, 84316, Note_on_c, 1, 74, 0
3, 84320, Note_on_c, 1, 72, 91
3, 84376, Note_on_c, 1, 72, 0
3, 84380, Note_on_c, 1, 74, 86
3, 84436, Note_on_c, 1, 74, 0
3, 84440, Note_on_c, 1, 72, 93
3, 84496, Note_on_c, 1, 72, 0
3, 84560, Note_on_c, 1, 72, 98
3, 84616, Note_on_c, 1, 72, 0
3, 84620, Note_on_c, 1, 74, 80
3, 84676, Note_on_c, 1, 74, 0
3, 84680, Note_on_c, 1, 72, 97
3, 84736, Note_on_c, 1, 72, 0
3, 84740, Note_on_c, 1, 74, 85
3, 84796, Note_on_c, 1, 74, 0
3, 84800, Note_on_c, 1, 72, 78
3, 84856, Note_on_c, 1, 72, 0
3, 84860, Note_on_c, 1, 74, 85
3, 84916, Note_on_c, 1, 74, 0
3, 84920, Note_on_c, 1, 72, 98
3, 84976, Note_on_c, 1, 72, 0
3, 85040, Note_on_c, 1, 72, 111
3, 85096, Note_on_c, 1, 72, 0
3, 85100, Note_on_c, 1, 74, 91
3, 85156, Note_on_c, 1, 74, 0
3, 85160, Note_on_c, 1, 72, 90
3, 85216, Note_on_c, 1, 72, 0
3, 85220, Note_on_c, 1, 74, 88
3, 85276, Note_on_c, 1, 74, 0
3, 85280, Note_on_c, 1, 72, 98
3, 85336, Note_on_c, 1, 72, 0
3, 85340, Note_on_c, 1, 74, 91
3, 85396, Note_on_c, 1, 74, 0
3, 85400, Note_on_c, 1, 72, 95
3, 85456, Note_on_c, 1, 72, 0
3, 85520, Note_on_c, 1, 72, 109
3, 85576, Note_on_c, 1, 72, 0
3, 85580, Note_on_c, 1, 74, 88
3, 85636, Note_on_c, 1, 74, 0
3, 85640, Note_on_c, 1, 72, 97
3, 85696, Note_on_c, 1, 72, 0
3, 85700, Note_on_c, 1, 74, 95
3, 85756, Note_on_c, 1, 74, 0
3, 85760, Note_on_c, 1, 72, 98
3, 85816, Note_on_c, 1, 72, 0
3, 85820, Note_on_c, 1, 74, 89
3, 85876, Note_on_c, 1, 74, 0
3, 85880, Note_on_c, 1, 72, 100
3, 85936, Note_on_c, 1, 72, 0
3, 86000, Note_on_c, 1, 72, 106
3, 86056, Note_on_c, 1, 72, 0
3, 86060, Note_on_c, 1, 74, 86
3, 86116, Note_on_c, 1, 74, 0
3, 86120, Note_on_c, 1, 72, 97
3, 86176, Note_on_c, 1, 72, 0
3, 86180, Note_on_c, 1, 74, 89
3, 86236, Note_on_c, 1, 74, 0
3, 86240, Note_on_c, 1, 72, 97
3, 86296, Note_on_c, 1, 72, 0
3, 86300, Note_on_c, 1, 74, 95
3, 86356, Note_on_c, 1, 74, 0
3, 86360, Note_on_c, 1, 72, 104
3, 86416, Note_on_c, 1, 72, 0
3, 86480, Note_on_c, 1, 67, 93
3, 86536, Note_on_c, 1, 67, 0
3, 86540, Note_on_c, 1, 69, 76
3, 86596, Note_on_c, 1, 69, 0
3, 86600, Note_on_c, 1, 67, 93
3, 86656, Note_on_c, 1, 67, 0
3, 86660, Note_on_c, 1, 69, 90
3, 86716, Note_on_c, 1, 69, 0
3, 86720, Note_on_c, 1, 67, 98
3, 86776, Note_on_c, 1, 67, 0
3, 86780, Note_on_c, 1, 69, 89
3, 86836, Note_on_c, 1, 69, 0
3, 86840, Note_on_c, 1, 67, 100
3, 86896, Note_on_c, 1, 67, 0
3, 86960, Note_on_c, 1, 66, 110
3, 87016, Note_on_c, 1, 66, 0
3, 87020, Note_on_c, 1, 67, 84
3, 87076, Note_on_c, 1, 67, 0
3, 87080, Note_on_c, 1, 66, 97
3, 87136, Note_on_c, 1, 66, 0
3, 87140, Note_on_c, 1, 67, 100
3, 87196, Note_on_c, 1, 67, 0
3, 87200, Note_on_c, 1, 66, 102
3, 87256, Note_on_c, 1, 66, 0
3, 87260, Note_on_c, 1, 67, 93
3, 87316, Note_on_c, 1, 67, 0
3, 87320, Note_on_c, 1, 66, 98
3, 87376, Note_on_c, 1, 66, 0
3, 87440, Note_on_c, 1, 65, 106
3, 87496, Note_on_c, 1, 65, 0
3, 87500, Note_on_c, 1, 67, 90
3, 87556, Note_on_c, 1, 67, 0
3, 87560, Note_on_c, 1, 65, 90
3, 87616, Note_on_c, 1, 65, 0
3, 87620, Note_on_c, 1, 67, 95
3, 87676, Note_on_c, 1, 67, 0
3, 87680, Note_on_c, 1, 65, 93
3, 87736, Note_on_c, 1, 65, 0
3, 87740, Note_on_c, 1, 67, 93
3, 87796, Note_on_c, 1, 67, 0
3, 87800, Note_on_c, 1, 65, 98
3, 87856, Note_on_c, 1, 65, 0
3, 93600, End_track
4, 0, Start_track
4, 0, Title_t, "goldberg.mid"
4, 51920, Note_on_c, 2, 67, 106
4, 51976, Note_on_c, 2, 67, 0
4, 51980, Note_on_c, 2, 69, 85
4, 52036, Note_on_c, 2, 69, 0
4, 52040, Note_on_c, 2, 67, 100
4, 52096, Note_on_c, 2, 67, 0
4, 52100, Note_on_c, 2, 69, 91
4, 52156, Note_on_c, 2, 69, 0
4, 52160, Note_on_c, 2, 67, 92
4, 52216, Note_on_c, 2, 67, 0
4, 52220, Note_on_c, 2, 69, 92
4, 52276, Note_on_c, 2, 69, 0
4, 52280, Note_on_c, 2, 67, 102
4, 52336, Note_on_c, 2, 67, 0
4, 52400, Note_on_c, 2, 67, 107
4, 52456, Note_on_c, 2, 67, 0
4, 52460, Note_on_c, 2, 69, 86
4, 52516, Note_on_c, 2, 69, 0
4, 52520, Note_on_c, 2, 67, 95
4, 52576, Note_on_c, 2, 67, 0
4, 52580, Note_on_c, 2, 69, 95
4, 52636, Note_on_c, 2, 69, 0
4, 52640, Note_on_c, 2, 67, 96
4, 52696, Note_on_c, 2, 67, 0
4, 52700, Note_on_c, 2, 69, 91
4, 52756, Note_on_c, 2, 69, 0
4, 52760, Note_on_c, 2, 67, 101
4, 52816, Note_on_c, 2, 67, 0
4, 52880, Note_on_c, 2, 67, 101
4, 52936, Note_on_c, 2, 67, 0
4, 52940, Note_on_c, 2, 69, 81
4, 52996, Note_on_c, 2, 69, 0
4, 53000, Note_on_c, 2, 67, 95
4, 53056, Note_on_c, 2, 67, 0
4, 53060, Note_on_c, 2, 69, 88
4, 53116, Note_on_c, 2, 69, 0
4, 53120, Note_on_c, 2, 67, 98
4, 53176, Note_on_c, 2, 67, 0
4, 53180, Note_on_c, 2, 69, 89
4, 53236, Note_on_c, 2, 69, 0
4, 53240, Note_on_c, 2, 67, 100
4, 53296, Note_on_c, 2, 67, 0
4, 53360, Note_on_c, 2, 67, 106
4, 53416, Note_on_c, 2, 67, 0
4, 53420, Note_on_c, 2, 69, 91
4, 53476, Note_on_c, 2, 69, 0
4, 53480, Note_on_c, 2, 67, 100
4, 53536, Note_on_c, 2, 67, 0
4, 53540, Note_on_c, 2, 69, 90
4, 53596, Note_on_c, 2, 69, 0
4, 53600, Note_on_c, 2, 67, 97
4, 53656, Note_on_c, 2, 67, 0
4, 53660, Note_on_c, 2, 69, 89
4, 53716, Note_on_c, 2, 69, 0
4, 53720, Note_on_c, 2, 67, 100
4, 53776, Note_on_c, 2, 67, 0
4, 53840, Note_on_c, 2, 67, 107
4, 53896, Note_on_c, 2, 67, 0
4, 53900, Note_on_c, 2, 69, 91
4, 53956, Note_on_c, 2, 69, 0
4, 53960, Note_on_c, 2, 67, 100
4, 54016, Note_on_c, 2, 67, 0
4, 54020, Note_on_c, 2, 69, 91
4, 54076, Note_on_c, 2, 69, 0
4, 54080, Note_on_c, 2, 67, 93
4, 54136, Note_on_c, 2, 67, 0
4, 54140, Note_on_c, 2, 69, 89
4, 54196, Note_on_c, 2, 69, 0
4, 54200, Note_on_c, 2, 67, 102
4, 54256, Note_on_c, 2, 67, 0
4, 54320, Note_on_c, 2, 67, 107
4, 54376, Note_on_c, 2, 67, 0
4, 54380, Note_on_c, 2, 69, 88
4, 54436, Note_on_c, 2, 69, 0
4, 54440, Note_on_c, 2, 67, 96
4, 54496, Note_on_c, 2, 67, 0
4, 54500, Note_on_c, 2, 69, 91
4, 54556, Note_on_c, 2, 69, 0
4, 54560, Note_on_c, 2, 67, 93
4, 54616, Note_on_c, 2, 67, 0
4, 54620, Note_on_c, 2, 69, 93
4, 54676, Note_on_c, 2, 69, 0
4, 54680, Note_on_c, 2, 67, 109
4, 54736, Note_on_c, 2, 67, 0
4, 54800, Note_on_c, 2, 67, 106
4, 54856, Note_on_c, 2, 67, 0
4, 54860, Note_on_c, 2, 69, 86
4, 54916, Note_on_c, 2, 69, 0
4, 54920, Note_on_c, 2, 67, 100
4, 54976, Note_on_c, 2, 67, 0
4, 54980, Note_on_c, 2, 69, 86
4, 55036, Note_on_c, 2, 69, 0
4, 55040, Note_on_c, 2, 67, 100
4, 55096, Note_on_c, 2, 67, 0
4, 55100, Note_on_c, 2, 69, 86
4, 55156, Note_on_c, 2, 69, 0
4, 55160, Note_on_c, 2, 67, 98
4, 55216, Note_on_c, 2, 67, 0
4, 55280, Note_on_c, 2, 67, 101
4, 55336, Note_on_c, 2, 67, 0
4, 55340, Note_on_c, 2, 69, 82
4, 55396, Note_on_c, 2, 69, 0
4, 55400, Note_on_c, 2, 67, 90
4, 55456, Note_on_c, 2, 67, 0
4, 55460, Note_on_c, 2, 69, 84
4, 55516, Note_on_c, 2, 69, 0
4, 55520, Note_on_c, 2, 67, 90
4, 55576, Note_on_c, 2, 67, 0
4, 55580, Note_on_c, 2, 69, 85
4, 55636, Note_on_c, 2, 69, 0
4, 55640, Note_on_c, 2, 67, 104
4, 55696, Note_on_c, 2, 67, 0
4, 55760, Note_on_c, 2, 66, 96
4, 55816, Note_on_c, 2, 66, 0
4, 55820, Note_on_c, 2, 67, 93
4, 55876, Note_on_c, 2, 67, 0
4, 55880, Note_on_c, 2, 66, 96
4, 55936, Note_on_c, 2, 66, 0
4, 55940, Note_on_c, 2, 67, 95
4, 55996, Note_on_c, 2, 67, 0
4, 56000, Note_on_c, 2, 66, 93
4, 56056, Note_on_c, 2, 66, 0
4, 56060, Note_on_c, 2, 67, 93
4, 56116, Note_on_c, 2, 67, 0
4, 56120, Note_on_c, 2, 66, 101
4, 56176, Note_on_c, 2, 66, 0
4, 56240, Note_on_c, 2, 67, 102
4, 56296, Note_on_c, 2, 67, 0
4, 56300, Note_on_c, 2, 69, 81
4, 56356, Note_on_c, 2, 69, 0
4, 56360, Note_on_c, 2, 67, 93
4, 56416, Note_on_c, 2, 67, 0
4, 56420, Note_on_c, 2, 69, 84
4, 56476, Note_on_c, 2, 69, 0
4, 56480, Note_on_c, 2, 67, 83
4, 56536, Note_on_c, 2, 67, 0
4, 56540, Note_on_c, 2, 69, 85
4, 56596, Note_on_c, 2, 69, 0
4, 56600, Note_on_c, 2, 67, 100
4, 56656, Note_on_c, 2, 67, 0
4, 56720, Note_on_c, 2, 67, 101
4, 56776, Note_on_c, 2, 67, 0
4, 56780, Note_on_c, 2, 69, 82
4, 56836, Note_on_c, 2, 69, 0
4, 56840, Note_on_c, 2, 67, 93
4, 56896, Note_on_c, 2, 67, 0
4, 56900, Note_on_c, 2, 69, 88
4, 56956, Note_on_c, 2, 69, 0
4, 56960, Note_on_c, 2, 67, 88
4, 57016, Note_on_c, 2, 67, 0
4, 57020, Note_on_c, 2, 69, 90
4, 57076, Note_on_c, 2, 69, 0
4, 57080, Note_on_c, 2, 67, 100
4, 57136, Note_on_c, 2, 67, 0
4, 57200, Note_on_c, 2, 67, 98
4, 57256, Note_on_c, 2, 67, 0
4, 57260, Note_on_c, 2, 69, 85
4, 57316, Note_on_c, 2, 69, 0
4, 57320, Note_on_c, 2, 67, 92
4, 57376, Note_on_c, 2, 67, 0
4, 57380, Note_on_c, 2, 69, 92
4, 57436, Note_on_c, 2, 69, 0
4, 57440, Note_on_c, 2, 67, 86
4, 57496, Note_on_c, 2, 67, 0
4, 57500, Note_on_c, 2, 69, 88
4, 57556, Note_on_c, 2, 69, 0
4, 57560, Note_on_c, 2, 67, 97
4, 57616, Note_on_c, 2, 67, 0
4, 63440, Note_on_c, 2, 54, 104
4, 63496, Note_on_c, 2, 54, 0
4, 63500, Note_on_c, 2, 55, 86
4, 63556, Note_on_c, 2, 55, 0
4, 63560, Note_on_c, 2, 54, 86
4, 63616, Note_on_c, 2, 54, 0
4, 63620, Note_on_c, 2, 55, 86
4, 63676, Note_on_c, 2, 55, 0
4, 63680, Note_on_c, 2, 54, 82
4, 63736, Note_on_c, 2, 54, 0
4, 63740, Note_on_c, 2, 55, 84
4, 63796, Note_on_c, 2, 55, 0
4, 63800, Note_on_c, 2, 54, 89
4, 63856, Note_on_c, 2, 54, 0
4, 63920, Note_on_c, 2, 54, 93
4, 63976, Note_on_c, 2, 54, 0
4, 63980, Note_on_c, 2, 55, 83
4, 64036, Note_on_c, 2, 55, 0
4, 64040, Note_on_c, 2, 54, 81
4, 64096, Note_on_c, 2, 54, 0
4, 64100, Note_on_c, 2, 55, 83
4, 64156, Note_on_c, 2, 55, 0
4, 64160, Note_on_c, 2, 54, 88
4, 64216, Note_on_c, 2, 54, 0
4, 64220, Note_on_c, 2, 55, 89
4, 64276, Note_on_c, 2, 55, 0
4, 64280, Note_on_c, 2, 54, 90
4, 64336, Note_on_c, 2, 54, 0
4, 64400, Note_on_c, 2, 54, 104
4, 64456, Note_on_c, 2, 54, 0
4, 64460, Note_on_c, 2, 55, 83
4, 64516, Note_on_c, 2, 55, 0
4, 64520, Note_on_c, 2, 54, 92
4, 64576, Note_on_c, 2, 54, 0
4, 64580, Note_on_c, 2, 55, 86
4, 64636, Note_on_c, 2, 55, 0
4, 64640, Note_on_c, 2, 54, 88
4, 64696, Note_on_c, 2, 54, 0
4, 64700, Note_on_c, 2, 55, 84
4, 64756, Note_on_c, 2, 55, 0
4, 64760, Note_on_c, 2, 54, 93
4, 64816, Note_on_c, 2, 54, 0
4, 64880, Note_on_c, 2, 54, 106
4, 64936, Note_on_c, 2, 54, 0
4, 64940, Note_on_c, 2, 55, 82
4, 64996, Note_on_c, 2, 55, 0
4, 65000, Note_on_c, 2, 54, 89
4, 65056, Note_on_c, 2, 54, 0
4, 65060, Note_on_c, 2, 55, 85
4, 65116, Note_on_c, 2, 55, 0
4, 65120, Note_on_c, 2, 54, 88
4, 65176, Note_on_c, 2, 54, 0
4, 65180, Note_on_c, 2, 55, 81
4, 65236, Note_on_c, 2, 55, 0
4, 65240, Note_on_c, 2, 54, 99
4, 65296, Note_on_c, 2, 54, 0
4, 65360, Note_on_c, 2, 54, 96
4, 65416, Note_on_c, 2, 54, 0
4, 65420, Note_on_c, 2, 55, 82
4, 65476, Note_on_c, 2, 55, 0
4, 65480, Note_on_c, 2, 54, 88
4, 65536, Note_on_c, 2, 54, 0
4, 65540, Note_on_c, 2, 55, 83
4, 65596, Note_on_c, 2, 55, 0
4, 65600, Note_on_c, 2, 54, 85
4, 65656, Note_on_c, 2, 54, 0
4, 65660, Note_on_c, 2, 55, 88
4, 65716, Note_on_c, 2, 55, 0
4, 65720, Note_on_c, 2, 54, 92
4, 65776, Note_on_c, 2, 54, 0
4, 65840, Note_on_c, 2, 54, 106
4, 65896, Note_on_c, 2, 54, 0
4, 65900, Note_on_c, 2, 55, 82
4, 65956, Note_on_c, 2, 55, 0
4, 65960, Note_on_c, 2, 54, 94
4, 66016, Note_on_c, 2, 54, 0
4, 66020, Note_on_c, 2, 55, 91
4, 66076, Note_on_c, 2, 55, 0
4, 66080, Note_on_c, 2, 54, 90
4, 66136, Note_on_c, 2, 54, 0
4, 66140, Note_on_c, 2, 55, 90
4, 66196, Note_on_c, 2, 55, 0
4, 66200, Note_on_c, 2, 54, 101
4, 66256, Note_on_c, 2, 54, 0
4, 66320, Note_on_c, 2, 54, 104
4, 66376, Note_on_c, 2, 54, 0
4, 66380, Note_on_c, 2, 55, 88
4, 66436, Note_on_c, 2, 55, 0
4, 66440, Note_on_c, 2, 54, 93
4, 66496, Note_on_c, 2, 54, 0
4, 66500, Note_on_c, 2, 55, 88
4, 66556, Note_on_c, 2, 55, 0
4, 66560, Note_on_c, 2, 54, 94
4, 66616, Note_on_c, 2, 54, 0
4, 66620, Note_on_c, 2, 55, 89
4, 66676, Note_on_c, 2, 55, 0
4, 66680, Note_on_c, 2, 54, 97
4, 66736, Note_on_c, 2, 54, 0
4, 66800, Note_on_c, 2, 54, 106
4, 66856, Note_on_c, 2, 54, 0
4, 66860, Note_on_c, 2, 55, 89
4, 66916, Note_on_c, 2, 55, 0
4, 66920, Note_on_c, 2, 54, 93
4, 66976, Note_on_c, 2, 54, 0
4, 66980, Note_on_c, 2, 55, 86
4, 67036, Note_on_c, 2, 55, 0
4, 67040, Note_on_c, 2, 54, 89
4, 67096, Note_on_c, 2, 54, 0
4, 67100, Note_on_c, 2, 55, 86
4, 67156, Note_on_c, 2, 55, 0
4, 67160, Note_on_c, 2, 54, 93
4, 67216, Note_on_c, 2, 54, 0
4, 67280, Note_on_c, 2, 52, 102
4, 67336, Note_on_c, 2, 52, 0
4, 67340, Note_on_c, 2, 54, 96
4, 67396, Note_on_c, 2, 54, 0
4, 67400, Note_on_c, 2, 52, 95
4, 67456, Note_on_c, 2, 52, 0
4, 67460, Note_on_c, 2, 54, 93
4, 67516, Note_on_c, 2, 54, 0
4, 67520, Note_on_c, 2, 52, 90
4, 67576, Note_on_c, 2, 52, 0
4, 67580, Note_on_c, 2, 54, 90
4, 67636, Note_on_c, 2, 54, 0
4, 67640, Note_on_c, 2, 52, 91
4, 67696, Note_on_c, 2, 52, 0
4, 74960, Note_on_c, 2, 64, 97
4, 75016, Note_on_c, 2, 64, 0
4, 75020, Note_on_c, 2, 66, 90
4, 75076, Note_on_c, 2, 66, 0
4, 75080, Note_on_c, 2, 64, 101
4, 75136, Note_on_c, 2, 64, 0
4, 75140, Note_on_c, 2, 66, 99
4, 75196, Note_on_c, 2, 66, 0
4, 75200, Note_on_c, 2, 64, 98
4, 75256, Note_on_c, 2, 64, 0
4, 75260, Note_on_c, 2, 66, 92
4, 75316, Note_on_c, 2, 66, 0
4, 75320, Note_on_c, 2, 64, 93
4, 75376, Note_on_c, 2, 64, 0
4, 75440, Note_on_c, 2, 64, 104
4, 75496, Note_on_c, 2, 64, 0
4, 75500, Note_on_c, 2, 66, 89
4, 75556, Note_on_c, 2, 66, 0
4, 75560, Note_on_c, 2, 64, 101
4, 75616, Note_on_c, 2, 64, 0
4, 75620, Note_on_c, 2, 66, 94
4, 75676, Note_on_c, 2, 66, 0
4, 75680, Note_on_c, 2, 64, 97
4, 75736, Note_on_c, 2, 64, 0
4, 75740, Note_on_c, 2, 66, 96
4, 75796, Note_on_c, 2, 66, 0
4, 75800, Note_on_c, 2, 64, 97
4, 75856, Note_on_c, 2, 64, 0
4, 75920, Note_on_c, 2, 64, 102
4, 75976, Note_on_c, 2, 64, 0
4, 75980, Note_on_c, 2, 66, 88
4, 76036, Note_on_c, 2, 66, 0
4, 76040, Note_on_c, 2, 64, 102
4, 76096, Note_on_c, 2, 64, 0
4, 76100, Note_on_c, 2, 66, 93
4, 76156, Note_on_c, 2, 66, 0
4, 76160, Note_on_c, 2, 64, 96
4, 76216, Note_on_c, 2, 64, 0
4, 76220, Note_on_c, 2, 66, 92
4, 76276, Note_on_c, 2, 66, 0
4, 76280, Note_on_c, 2, 64, 101
4, 76336, Note_on_c, 2, 64, 0
4, 76400, Note_on_c, 2, 64, 106
4, 76456, Note_on_c, 2, 64, 0
4, 76460, Note_on_c, 2, 66, 92
4, 76516, Note_on_c, 2, 66, 0
4, 76520, Note_on_c, 2, 64, 101
4, 76576, Note_on_c, 2, 64, 0
4, 76580, Note_on_c, 2, 66, 96
4, 76636, Note_on_c, 2, 66, 0
4, 76640, Note_on_c, 2, 64, 98
4, 76696, Note_on_c, 2, 64, 0
4, 76700, Note_on_c, 2, 66, 96
4, 76756, Note_on_c, 2, 66, 0
4, 76760, Note_on_c, 2, 64, 97
4, 76816, Note_on_c, 2, 64, 0
4, 76880, Note_on_c, 2, 64, 107
4, 76936, Note_on_c, 2, 64, 0
4, 76940, Note_on_c, 2, 66, 90
4, 76996, Note_on_c, 2, 66, 0
4, 77000, Note_on_c, 2, 64, 98
4, 77056, Note_on_c, 2, 64, 0
4, 77060, Note_on_c, 2, 66, 96
4, 77116, Note_on_c, 2, 66, 0
4, 77120, Note_on_c, 2, 64, 97
4, 77176, Note_on_c, 2, 64, 0
4, 77180, Note_on_c, 2, 66, 94
4, 77236, Note_on_c, 2, 66, 0
4, 77240, Note_on_c, 2, 64, 96
4, 77296, Note_on_c, 2, 64, 0
4, 77360, Note_on_c, 2, 64, 104
4, 77416, Note_on_c, 2, 64, 0
4, 77420, Note_on_c, 2, 66, 93
4, 77476, Note_on_c, 2, 66, 0
4, 77480, Note_on_c, 2, 64, 98
4, 77536, Note_on_c, 2, 64, 0
4, 77540, Note_on_c, 2, 66, 96
4, 77596, Note_on_c, 2, 66, 0
4, 77600, Note_on_c, 2, 64, 97
4, 77656, Note_on_c, 2, 64, 0
4, 77660, Note_on_c, 2, 66, 97
4, 77716, Note_on_c, 2, 66, 0
4, 77720, Note_on_c, 2, 64, 102
4, 77776, Note_on_c, 2, 64, 0
4, 77840, Note_on_c, 2, 64, 101
4, 77896, Note_on_c, 2, 64, 0
4, 77900, Note_on_c, 2, 66, 96
4, 77956, Note_on_c, 2, 66, 0
4, 77960, Note_on_c, 2, 64, 113
4, 78016, Note_on_c, 2, 64, 0
4, 78020, Note_on_c, 2, 66, 96
4, 78076, Note_on_c, 2, 66, 0
4, 78080, Note_on_c, 2, 64, 96
4, 78136, Note_on_c, 2, 64, 0
4, 78140, Note_on_c, 2, 66, 93
4, 78196, Note_on_c, 2, 66, 0
4, 78200, Note_on_c, 2, 64, 101
4, 78256, Note_on_c, 2, 64, 0
4, 78320, Note_on_c, 2, 64, 107
4, 78376, Note_on_c, 2, 64, 0
4, 78380, Note_on_c, 2, 66, 93
4, 78436, Note_on_c, 2, 66, 0
4, 78440, Note_on_c, 2, 64, 101
4, 78496, Note_on_c, 2, 64, 0
4, 78500, Note_on_c, 2, 66, 90
4, 78556, Note_on_c, 2, 66, 0
4, 78560, Note_on_c, 2, 64, 101
4, 78616, Note_on_c, 2, 64, 0
4, 78620, Note_on_c, 2, 66, 94
4, 78676, Note_on_c, 2, 66, 0
4, 78680, Note_on_c, 2, 64, 104
4, 78736, Note_on_c, 2, 64, 0
4, 78800, Note_on_c, 2, 63, 99
4, 78856, Note_on_c, 2, 63, 0
4, 78860, Note_on_c, 2, 64, 96
4, 78916, Note_on_c, 2, 64, 0
4, 78920, Note_on_c, 2, 63, 90
4, 78976, Note_on_c, 2, 63, 0
4, 78980, Note_on_c, 2, 64, 102
4, 79036, Note_on_c, 2, 64, 0
4, 79040, Note_on_c, 2, 63, 99
4, 79096, Note_on_c, 2, 63, 0
4, 79100, Note_on_c, 2, 64, 102
4, 79156, Note_on_c, 2, 64, 0
4, 79160, Note_on_c, 2, 63, 106
4, 79216, Note_on_c, 2, 63, 0
4, 80720, Note_on_c, 2, 67, 95
4, 80776, Note_on_c, 2, 67, 0
4, 80780, Note_on_c, 2, 69, 84
4, 80836, Note_on_c, 2, 69, 0
4, 80840, Note_on_c, 2, 67, 95
4, 80896, Note_on_c, 2, 67, 0
4, 80900, Note_on_c, 2, 69, 86
4, 80956, Note_on_c, 2, 69, 0
4, 80960, Note_on_c, 2, 67, 91
4, 81016, Note_on_c, 2, 67, 0
4, 81020, Note_on_c, 2, 69, 86
4, 81076, Note_on_c, 2, 69, 0
4, 81080, Note_on_c, 2, 67, 90
4, 81136, Note_on_c, 2, 67, 0
4, 81200, Note_on_c, 2, 67, 98
4, 81256, Note_on_c, 2, 67, 0
4, 81260, Note_on_c, 2, 69, 84
4, 81316, Note_on_c, 2, 69, 0
4, 81320, Note_on_c, 2, 67, 92
4, 81376, Note_on_c, 2, 67, 0
4, 81380, Note_on_c, 2, 69, 83
4, 81436, Note_on_c, 2, 69, 0
4, 81440, Note_on_c, 2, 67, 89
4, 81496, Note_on_c, 2, 67, 0
4, 81500, Note_on_c, 2, 69, 84
4, 81556, Note_on_c, 2, 69, 0
4, 81560, Note_on_c, 2, 67, 95
4, 81616, Note_on_c, 2, 67, 0
4, 81680, Note_on_c, 2, 67, 102
4, 81736, Note_on_c, 2, 67, 0
4, 81740, Note_on_c, 2, 69, 82
4, 81796, Note_on_c, 2, 69, 0
4, 81800, Note_on_c, 2, 67, 92
4, 81856, Note_on_c, 2, 67, 0
4, 81860, Note_on_c, 2, 69, 88
4, 81916, Note_on_c, 2, 69, 0
4, 81920, Note_on_c, 2, 67, 88
4, 81976, Note_on_c, 2, 67, 0
4, 81980, Note_on_c, 2, 69, 88
4, 82036, Note_on_c, 2, 69, 0
4, 82040, Note_on_c, 2, 67, 89
4, 82096, Note_on_c, 2, 67, 0
4, 82160, Note_on_c, 2, 67, 107
4, 82216, Note_on_c, 2, 67, 0
4, 82220, Note_on_c, 2, 69, 78
4, 82276, Note_on_c, 2, 69, 0
4, 82280, Note_on_c, 2, 67, 88
4, 82336, Note_on_c, 2, 67, 0
4, 82340, Note_on_c, 2, 69, 91
4, 82396, Note_on_c, 2, 69, 0
4, 82400, Note_on_c, 2, 67, 90
4, 82456, Note_on_c, 2, 67, 0
4, 82460, Note_on_c, 2, 69, 89
4, 82516, Note_on_c, 2, 69, 0
4, 82520, Note_on_c, 2, 67, 93
4, 82576, Note_on_c, 2, 67, 0
4, 82640, Note_on_c, 2, 67, 109
4, 82696, Note_on_c, 2, 67, 0
4, 82700, Note_on_c, 2, 69, 91
4, 82756, Note_on_c, 2, 69, 0
4, 82760, Note_on_c, 2, 67, 98
4, 82816, Note_on_c, 2, 67, 0
4, 82820, Note_on_c, 2, 69, 85
4, 82876, Note_on_c, 2, 69, 0
4, 82880, Note_on_c, 2, 67, 85
4, 82936, Note_on_c, 2, 67, 0
4, 82940, Note_on_c, 2, 69, 88
4, 82996, Note_on_c, 2, 69, 0
4, 83000, Note_on_c, 2, 67, 89
4, 83056, Note_on_c, 2, 67, 0
4, 83120, Note_on_c, 2, 67, 106
4, 83176, Note_on_c, 2, 67, 0
4, 83180, Note_on_c, 2, 69, 88
4, 83236, Note_on_c, 2, 69, 0
4, 83240, Note_on_c, 2, 67, 92
4, 83296, Note_on_c, 2, 67, 0
4, 83300, Note_on_c, 2, 69, 86
4, 83356, Note_on_c, 2, 69, 0
4, 83360, Note_on_c, 2, 67, 88
4, 83416, Note_on_c, 2, 67, 0
4, 83420, Note_on_c, 2, 69, 85
4, 83476, Note_on_c, 2, 69, 0
4, 83480, Note_on_c, 2, 67, 97
4, 83536, Note_on_c, 2, 67, 0
4, 87920, Note_on_c, 2, 60, 104
4, 87976, Note_on_c, 2, 60, 0
4, 87980, Note_on_c, 2, 62, 88
4, 88036, Note_on_c, 2, 62, 0
4, 88040, Note_on_c, 2, 60, 98
4, 88096, Note_on_c, 2, 60, 0
4, 88100, Note_on_c, 2, 62, 98
4, 88156, Note_on_c, 2, 62, 0
4, 88160, Note_on_c, 2, 60, 100
4, 88216, Note_on_c, 2, 60, 0
4, 88220, Note_on_c, 2, 62, 92
4, 88276, Note_on_c, 2, 62, 0
4, 88280, Note_on_c, 2, 60, 102
4, 88336, Note_on_c, 2, 60, 0
4, 88400, Note_on_c, 2, 59, 91
4, 88456, Note_on_c, 2, 59, 0
4, 88460, Note_on_c, 2, 60, 67
4, 88516, Note_on_c, 2, 60, 0
4, 88520, Note_on_c, 2, 59, 93
4, 88576, Note_on_c, 2, 59, 0
4, 88580, Note_on_c, 2, 60, 100
4, 88636, Note_on_c, 2, 60, 0
4, 88640, Note_on_c, 2, 59, 96
4, 88696, Note_on_c, 2, 59, 0
4, 88700, Note_on_c, 2, 60, 93
4, 88756, Note_on_c, 2, 60, 0
4, 88760, Note_on_c, 2, 59, 100
4, 88816, Note_on_c, 2, 59, 0
4, 88880, Note_on_c, 2, 58, 99
4, 88936, Note_on_c, 2, 58, 0
4, 88940, Note_on_c, 2, 60, 96
4, 88996, Note_on_c, 2, 60, 0
4, 89000, Note_on_c, 2, 58, 97
4, 89056, Note_on_c, 2, 58, 0
4, 89060, Note_on_c, 2, 60, 101
4, 89116, Note_on_c, 2, 60, 0
4, 89120, Note_on_c, 2, 58, 97
4, 89176, Note_on_c, 2, 58, 0
4, 89180, Note_on_c, 2, 60, 95
4, 89236, Note_on_c, 2, 60, 0
4, 89240, Note_on_c, 2, 58, 101
4, 89296, Note_on_c, 2, 58, 0
4, 93600, End_track
5, 0, Start_track
5, 0, Title_t, "goldberg.mid"
5, 20, Note_on_c, 3, 55, 117
5, 256, Note_on_c, 3, 55, 0
5, 260, Note_on_c, 3, 57, 107
5, 376, Note_on_c, 3, 57, 0
5, 380, Note_on_c, 3, 59, 104
5, 496, Note_on_c, 3, 59, 0
5, 500, Note_on_c, 3, 60, 97
5, 616, Note_on_c, 3, 60, 0
5, 620, Note_on_c, 3, 62, 101
5, 736, Note_on_c, 3, 62, 0
5, 740, Note_on_c, 3, 64, 101
5, 856, Note_on_c, 3, 64, 0
5, 860, Note_on_c, 3, 62, 102
5, 976, Note_on_c, 3, 62, 0
5, 980, Note_on_c, 3, 60, 102
5, 1096, Note_on_c, 3, 60, 0
5, 1100, Note_on_c, 3, 62, 96
5, 1216, Note_on_c, 3, 62, 0
5, 1220, Note_on_c, 3, 64, 101
5, 1456, Note_on_c, 3, 64, 0
5, 1460, Note_on_c, 3, 54, 115
5, 1700, Note_on_c, 3, 54, 0
5, 2180, Note_on_c, 3, 62, 109
5, 2416, Note_on_c, 3, 62, 0
5, 2900, Note_on_c, 3, 52, 113
5, 3136, Note_on_c, 3, 52, 0
5, 3140, Note_on_c, 3, 54, 104
5, 3256, Note_on_c, 3, 54, 0
5, 3260, Note_on_c, 3, 55, 100
5, 3376, Note_on_c, 3, 55, 0
5, 3380, Note_on_c, 3, 57, 90
5, 3496, Note_on_c, 3, 57, 0
5, 3500, Note_on_c, 3, 59, 97
5, 3616, Note_on_c, 3, 59, 0
5, 3620, Note_on_c, 3, 60, 93
5, 3736, Note_on_c, 3, 60, 0
5, 3740, Note_on_c, 3, 59, 95
5, 3856, Note_on_c, 3, 59, 0
5, 3860, Note_on_c, 3, 57, 89
5, 3976, Note_on_c, 3, 57, 0
5, 3980, Note_on_c, 3, 59, 91
5, 4096, Note_on_c, 3, 59, 0
5, 4100, Note_on_c, 3, 60, 101
5, 4336, Note_on_c, 3, 60, 0
5, 4340, Note_on_c, 3, 60, 107
5, 4696, Note_on_c, 3, 60, 0
5, 5060, Note_on_c, 3, 54, 112
5, 5296, Note_on_c, 3, 54, 0
5, 5780, Note_on_c, 3, 59, 104
5, 5896, Note_on_c, 3, 59, 0
5, 5900, Note_on_c, 3, 60, 92
5, 6016, Note_on_c, 3, 60, 0
5, 6020, Note_on_c, 3, 59, 100
5, 6136, Note_on_c, 3, 59, 0
5, 6140, Note_on_c, 3, 57, 92
5, 6256, Note_on_c, 3, 57, 0
5, 6260, Note_on_c, 3, 55, 84
5, 6376, Note_on_c, 3, 55, 0
5, 6380, Note_on_c, 3, 54, 89
5, 6496, Note_on_c, 3, 54, 0
5, 6500, Note_on_c, 3, 52, 82
5, 6616, Note_on_c, 3, 52, 0
5, 6620, Note_on_c, 3, 55, 92
5, 6736, Note_on_c, 3, 55, 0
5, 6740, Note_on_c, 3, 59, 96
5, 6856, Note_on_c, 3, 59, 0
5, 6860, Note_on_c, 3, 62, 81
5, 6976, Note_on_c, 3, 62, 0
5, 6980, Note_on_c, 3, 60, 90
5, 7096, Note_on_c, 3, 60, 0
5, 7100, Note_on_c, 3, 59, 98
5, 7216, Note_on_c, 3, 59, 0
5, 7220, Note_on_c, 3, 57, 73
5, 7336, Note_on_c, 3, 57, 0
5, 7340, Note_on_c, 3, 59, 83
5, 7456, Note_on_c, 3, 59, 0
5, 7460, Note_on_c, 3, 57, 93
5, 7576, Note_on_c, 3, 57, 0
5, 7580, Note_on_c, 3, 55, 89
5, 7696, Note_on_c, 3, 55, 0
5, 7700, Note_on_c, 3, 54, 102
5, 7816, Note_on_c, 3, 54, 0
5, 7820, Note_on_c, 3, 52, 96
5, 7936, Note_on_c, 3, 52, 0
5, 7940, Note_on_c, 3, 50, 88
5, 8056, Note_on_c, 3, 50, 0
5, 8060, Note_on_c, 3, 54, 93
5, 8176, Note_on_c, 3, 54, 0
5, 8180, Note_on_c, 3, 57, 92
5, 8296, Note_on_c, 3, 57, 0
5, 8300, Note_on_c, 3, 60, 104
5, 8416, Note_on_c, 3, 60, 0
5, 8420, Note_on_c, 3, 59, 93
5, 8536, Note_on_c, 3, 59, 0
5, 8540, Note_on_c, 3, 57, 89
5, 8656, Note_on_c, 3, 57, 0
5, 8660, Note_on_c, 3, 55, 93
5, 8896, Note_on_c, 3, 55, 0
5, 8900, Note_on_c, 3, 57, 101
5, 8960, Note_on_c, 3, 57, 0
5, 8960, Note_on_c, 3, 55, 91
5, 9020, Note_on_c, 3, 55, 0
5, 9020, Note_on_c, 3, 54, 104
5, 9080, Note_on_c, 3, 54, 0
5, 9080, Note_on_c, 3, 55, 96
5, 9140, Note_on_c, 3, 55, 0
5, 9140, Note_on_c, 3, 57, 106
5, 9376, Note_on_c, 3, 57, 0
5, 9380, Note_on_c, 3, 48, 111
5, 9616, Note_on_c, 3, 48, 0
5, 9620, Note_on_c, 3, 60, 117
5, 10216, Note_on_c, 3, 60, 0
5, 10220, Note_on_c, 3, 64, 104
5, 10336, Note_on_c, 3, 64, 0
5, 10340, Note_on_c, 3, 62, 95
5, 10456, Note_on_c, 3, 62, 0
5, 10460, Note_on_c, 3, 60, 101
5, 10576, Note_on_c, 3, 60, 0
5, 10580, Note_on_c, 3, 59, 100
5, 10696, Note_on_c, 3, 59, 0
5, 10700, Note_on_c, 3, 57, 93
5, 10816, Note_on_c, 3, 57, 0
5, 10820, Note_on_c, 3, 59, 96
5, 10936, Note_on_c, 3, 59, 0
5, 10940, Note_on_c, 3, 60, 95
5, 11056, Note_on_c, 3, 60, 0
5, 11060, Note_on_c, 3, 62, 93
5, 11176, Note_on_c, 3, 62, 0
5, 11180, Note_on_c, 3, 59, 96
5, 11296, Note_on_c, 3, 59, 0
5, 11300, Note_on_c, 3, 60, 101
5, 11416, Note_on_c, 3, 60, 0
5, 11420, Note_on_c, 3, 62, 100
5, 11536, Note_on_c, 3, 62, 0
5, 11540, Note_on_c, 3, 57, 100
5, 11600, Note_on_c, 3, 57, 0
5, 11600, Note_on_c, 3, 55, 100
5, 11660, Note_on_c, 3, 55, 0
5, 11660, Note_on_c, 3, 54, 67
5, 11720, Note_on_c, 3, 54, 0
5, 11720, Note_on_c, 3, 55, 67
5, 11780, Note_on_c, 3, 55, 0
5, 11780, Note_on_c, 3, 57, 82
5, 11840, Note_on_c, 3, 57, 0
5, 11840, Note_on_c, 3, 55, 64
5, 11900, Note_on_c, 3, 55, 0
5, 11900, Note_on_c, 3, 57, 77
5, 11960, Note_on_c, 3, 57, 0
5, 11960, Note_on_c, 3, 55, 60
5, 12020, Note_on_c, 3, 55, 0
5, 12020, Note_on_c, 3, 57, 85
5, 12080, Note_on_c, 3, 57, 0
5, 12080, Note_on_c, 3, 55, 63
5, 12140, Note_on_c, 3, 55, 0
5, 12140, Note_on_c, 3, 57, 81
5, 12200, Note_on_c, 3, 57, 0
5, 12200, Note_on_c, 3, 55, 56
5, 12260, Note_on_c, 3, 55, 0
5, 12260, Note_on_c, 3, 57, 81
5, 12320, Note_on_c, 3, 57, 0
5, 12320, Note_on_c, 3, 55, 62
5, 12380, Note_on_c, 3, 55, 0
5, 12380, Note_on_c, 3, 57, 82
5, 12440, Note_on_c, 3, 57, 0
5, 12440, Note_on_c, 3, 55, 59
5, 12500, Note_on_c, 3, 55, 0
5, 12500, Note_on_c, 3, 57, 78
5, 12560, Note_on_c, 3, 57, 0
5, 12560, Note_on_c, 3, 55, 51
5, 12620, Note_on_c, 3, 55, 0
5, 12620, Note_on_c, 3, 57, 83
5, 12680, Note_on_c, 3, 57, 0
5, 12680, Note_on_c, 3, 55, 63
5, 12740, Note_on_c, 3, 55, 0
5, 12740, Note_on_c, 3, 57, 81
5, 12800, Note_on_c, 3, 57, 0
5, 12800, Note_on_c, 3, 55, 67
5, 12860, Note_on_c, 3, 55, 0
5, 12860, Note_on_c, 3, 57, 71
5, 12920, Note_on_c, 3, 57, 0
5, 12920, Note_on_c, 3, 55, 63
5, 12980, Note_on_c, 3, 55, 0
5, 12980, Note_on_c, 3, 54, 63
5, 13100, Note_on_c, 3, 54, 0
5, 13100, Note_on_c, 3, 55, 86
5, 13216, Note_on_c, 3, 55, 0
5, 13220, Note_on_c, 3, 54, 96
5, 13336, Note_on_c, 3, 54, 0
5, 13340, Note_on_c, 3, 52, 95
5, 13456, Note_on_c, 3, 52, 0
5, 13460, Note_on_c, 3, 50, 89
5, 13576, Note_on_c, 3, 50, 0
5, 13580, Note_on_c, 3, 49, 102
5, 13700, Note_on_c, 3, 49, 0
5, 13700, Note_on_c, 3, 47, 60
5, 13816, Note_on_c, 3, 47, 0
5, 13820, Note_on_c, 3, 49, 70
5, 13936, Note_on_c, 3, 49, 0
5, 13940, Note_on_c, 3, 50, 70
5, 14056, Note_on_c, 3, 50, 0
5, 14060, Note_on_c, 3, 49, 70
5, 14176, Note_on_c, 3, 49, 0
5, 14180, Note_on_c, 3, 50, 70
5, 14296, Note_on_c, 3, 50, 0
5, 14300, Note_on_c, 3, 47, 90
5, 14416, Note_on_c, 3, 47, 0
5, 14420, Note_on_c, 3, 52, 123
5, 14660, Note_on_c, 3, 52, 0
5, 15140, Note_on_c, 3, 45, 100
5, 15376, Note_on_c, 3, 45, 0
5, 15860, Note_on_c, 3, 57, 104
5, 15976, Note_on_c, 3, 57, 0
5, 15980, Note_on_c, 3, 59, 100
5, 16096, Note_on_c, 3, 59, 0
5, 16100, Note_on_c, 3, 57, 95
5, 16216, Note_on_c, 3, 57, 0
5, 16220, Note_on_c, 3, 55, 90
5, 16336, Note_on_c, 3, 55, 0
5, 16340, Note_on_c, 3, 54, 93
5, 16456, Note_on_c, 3, 54, 0
5, 16460, Note_on_c, 3, 52, 86
5, 16576, Note_on_c, 3, 52, 0
5, 16580, Note_on_c, 3, 50, 98
5, 16696, Note_on_c, 3, 50, 0
5, 16700, Note_on_c, 3, 54, 93
5, 16816, Note_on_c, 3, 54, 0
5, 16820, Note_on_c, 3, 57, 96
5, 16936, Note_on_c, 3, 57, 0
5, 16940, Note_on_c, 3, 60, 100
5, 17056, Note_on_c, 3, 60, 0
5, 17060, Note_on_c, 3, 59, 96
5, 17176, Note_on_c, 3, 59, 0
5, 17180, Note_on_c, 3, 57, 90
5, 17296, Note_on_c, 3, 57, 0
5, 17300, Note_on_c, 3, 55, 95
5, 17416, Note_on_c, 3, 55, 0
5, 17420, Note_on_c, 3, 57, 90
5, 17536, Note_on_c, 3, 57, 0
5, 17540, Note_on_c, 3, 55, 89
5, 17656, Note_on_c, 3, 55, 0
5, 17660, Note_on_c, 3, 54, 90
5, 17776, Note_on_c, 3, 54, 0
5, 17780, Note_on_c, 3, 52, 89
5, 17896, Note_on_c, 3, 52, 0
5, 17900, Note_on_c, 3, 50, 89
5, 18016, Note_on_c, 3, 50, 0
5, 18020, Note_on_c, 3, 49, 84
5, 18136, Note_on_c, 3, 49, 0
5, 18140, Note_on_c, 3, 52, 83
5, 18256, Note_on_c, 3, 52, 0
5, 18260, Note_on_c, 3, 55, 84
5, 18376, Note_on_c, 3, 55, 0
5, 18380, Note_on_c, 3, 59, 90
5, 18496, Note_on_c, 3, 59, 0
5, 18500, Note_on_c, 3, 57, 89
5, 18616, Note_on_c, 3, 57, 0
5, 18620, Note_on_c, 3, 55, 88
5, 18736, Note_on_c, 3, 55, 0
5, 18740, Note_on_c, 3, 54, 97
5, 18976, Note_on_c, 3, 54, 0
5, 18980, Note_on_c, 3, 57, 96
5, 19040, Note_on_c, 3, 57, 0
5, 19040, Note_on_c, 3, 55, 86
5, 19100, Note_on_c, 3, 55, 0
5, 19100, Note_on_c, 3, 54, 85
5, 19160, Note_on_c, 3, 54, 0
5, 19160, Note_on_c, 3, 55, 85
5, 19220, Note_on_c, 3, 55, 0
5, 19220, Note_on_c, 3, 57, 102
5, 19696, Note_on_c, 3, 57, 0
5, 19700, Note_on_c, 3, 55, 101
5, 19936, Note_on_c, 3, 55, 0
5, 19940, Note_on_c, 3, 54, 106
5, 20296, Note_on_c, 3, 54, 0
5, 20300, Note_on_c, 3, 52, 93
5, 20416, Note_on_c, 3, 52, 0
5, 20420, Note_on_c, 3, 50, 95
5, 20536, Note_on_c, 3, 50, 0
5, 20540, Note_on_c, 3, 49, 102
5, 20656, Note_on_c, 3, 49, 0
5, 20660, Note_on_c, 3, 50, 91
5, 20776, Note_on_c, 3, 50, 0
5, 20780, Note_on_c, 3, 47, 91
5, 20896, Note_on_c, 3, 47, 0
5, 20900, Note_on_c, 3, 50, 100
5, 21016, Note_on_c, 3, 50, 0
5, 21020, Note_on_c, 3, 49, 90
5, 21080, Note_on_c, 3, 49, 0
5, 21080, Note_on_c, 3, 50, 99
5, 21140, Note_on_c, 3, 50, 0
5, 21140, Note_on_c, 3, 49, 90
5, 21500, Note_on_c, 3, 49, 0
5, 21500, Note_on_c, 3, 47, 92
5, 21560, Note_on_c, 3, 47, 0
5, 21560, Note_on_c, 3, 49, 96
5, 21620, Note_on_c, 3, 49, 0
5, 21620, Note_on_c, 3, 50, 101
5, 21856, Note_on_c, 3, 50, 0
5, 21860, Note_on_c, 3, 42, 101
5, 22096, Note_on_c, 3, 42, 0
5, 22100, Note_on_c, 3, 45, 115
5, 22340, Note_on_c, 3, 45, 0
5, 22340, Note_on_c, 3, 38, 101
5, 23060, Note_on_c, 3, 38, 0
5, 24500, Note_on_c, 3, 67, 111
5, 24736, Note_on_c, 3, 67, 0
5, 24740, Note_on_c, 3, 66, 102
5, 24856, Note_on_c, 3, 66, 0
5, 24860, Note_on_c, 3, 64, 97
5, 24976, Note_on_c, 3, 64, 0
5, 24980, Note_on_c, 3, 62, 85
5, 25096, Note_on_c, 3, 62, 0
5, 25100, Note_on_c, 3, 60, 97
5, 25216, Note_on_c, 3, 60, 0
5, 25220, Note_on_c, 3, 59, 100
5, 25336, Note_on_c, 3, 59, 0
5, 25340, Note_on_c, 3, 60, 93
5, 25456, Note_on_c, 3, 60, 0
5, 25460, Note_on_c, 3, 62, 93
5, 25576, Note_on_c, 3, 62, 0
5, 25580, Note_on_c, 3, 60, 83
5, 25696, Note_on_c, 3, 60, 0
5, 25700, Note_on_c, 3, 59, 85
5, 25816, Note_on_c, 3, 59, 0
5, 25820, Note_on_c, 3, 67, 97
5, 25936, Note_on_c, 3, 67, 0
5, 25940, Note_on_c, 3, 57, 115
5, 26180, Note_on_c, 3, 57, 0
5, 26660, Note_on_c, 3, 66, 109
5, 26900, Note_on_c, 3, 66, 0
5, 27380, Note_on_c, 3, 71, 98
5, 27496, Note_on_c, 3, 71, 0
5, 27500, Note_on_c, 3, 72, 93
5, 27616, Note_on_c, 3, 72, 0
5, 27620, Note_on_c, 3, 71, 89
5, 27736, Note_on_c, 3, 71, 0
5, 27740, Note_on_c, 3, 69, 97
5, 27856, Note_on_c, 3, 69, 0
5, 27860, Note_on_c, 3, 67, 88
5, 27976, Note_on_c, 3, 67, 0
5, 27980, Note_on_c, 3, 66, 80
5, 28096, Note_on_c, 3, 66, 0
5, 28100, Note_on_c, 3, 67, 96
5, 28216, Note_on_c, 3, 67, 0
5, 28220, Note_on_c, 3, 69, 86
5, 28336, Note_on_c, 3, 69, 0
5, 28340, Note_on_c, 3, 67, 85
5, 28456, Note_on_c, 3, 67, 0
5, 28460, Note_on_c, 3, 66, 93
5, 28576, Note_on_c, 3, 66, 0
5, 28580, Note_on_c, 3, 64, 96
5, 28696, Note_on_c, 3, 64, 0
5, 28700, Note_on_c, 3, 62, 91
5, 28816, Note_on_c, 3, 62, 0
5, 28820, Note_on_c, 3, 60, 98
5, 29056, Note_on_c, 3, 60, 0
5, 29060, Note_on_c, 3, 64, 92
5, 29120, Note_on_c, 3, 64, 0
5, 29120, Note_on_c, 3, 62, 104
5, 29180, Note_on_c, 3, 62, 0
5, 29180, Note_on_c, 3, 60, 97
5, 29240, Note_on_c, 3, 60, 0
5, 29240, Note_on_c, 3, 62, 97
5, 29300, Note_on_c, 3, 62, 0
5, 29300, Note_on_c, 3, 64, 106
5, 29536, Note_on_c, 3, 64, 0
5, 29540, Note_on_c, 3, 57, 107
5, 30376, Note_on_c, 3, 57, 0
5, 30380, Note_on_c, 3, 55, 89
5, 30496, Note_on_c, 3, 55, 0
5, 30500, Note_on_c, 3, 57, 95
5, 30616, Note_on_c, 3, 57, 0
5, 30620, Note_on_c, 3, 60, 95
5, 30736, Note_on_c, 3, 60, 0
5, 30740, Note_on_c, 3, 59, 93
5, 30856, Note_on_c, 3, 59, 0
5, 30860, Note_on_c, 3, 57, 89
5, 30976, Note_on_c, 3, 57, 0
5, 30980, Note_on_c, 3, 59, 92
5, 31096, Note_on_c, 3, 59, 0
5, 31100, Note_on_c, 3, 64, 93
5, 31216, Note_on_c, 3, 64, 0
5, 31220, Note_on_c, 3, 59, 86
5, 31336, Note_on_c, 3, 59, 0
5, 31340, Note_on_c, 3, 55, 81
5, 31456, Note_on_c, 3, 55, 0
5, 31460, Note_on_c, 3, 52, 62
5, 31576, Note_on_c, 3, 52, 0
5, 31580, Note_on_c, 3, 55, 81
5, 31696, Note_on_c, 3, 55, 0
5, 31700, Note_on_c, 3, 49, 97
5, 31816, Note_on_c, 3, 49, 0
5, 31820, Note_on_c, 3, 51, 92
5, 31936, Note_on_c, 3, 51, 0
5, 31940, Note_on_c, 3, 52, 97
5, 32056, Note_on_c, 3, 52, 0
5, 32060, Note_on_c, 3, 55, 93
5, 32176, Note_on_c, 3, 55, 0
5, 32180, Note_on_c, 3, 54, 94
5, 32296, Note_on_c, 3, 54, 0
5, 32300, Note_on_c, 3, 52, 93
5, 32416, Note_on_c, 3, 52, 0
5, 32420, Note_on_c, 3, 55, 101
5, 32656, Note_on_c, 3, 55, 0
5, 32660, Note_on_c, 3, 54, 88
5, 32720, Note_on_c, 3, 54, 0
5, 32720, Note_on_c, 3, 55, 86
5, 32780, Note_on_c, 3, 55, 0
5, 32780, Note_on_c, 3, 54, 89
5, 33020, Note_on_c, 3, 54, 0
5, 33020, Note_on_c, 3, 52, 77
5, 33080, Note_on_c, 3, 52, 0
5, 33080, Note_on_c, 3, 54, 92
5, 33140, Note_on_c, 3, 54, 0
5, 33140, Note_on_c, 3, 55, 98
5, 33260, Note_on_c, 3, 55, 0
5, 33260, Note_on_c, 3, 57, 97
5, 33376, Note_on_c, 3, 57, 0
5, 33380, Note_on_c, 3, 59, 98
5, 33496, Note_on_c, 3, 59, 0
5, 33500, Note_on_c, 3, 57, 98
5, 33616, Note_on_c, 3, 57, 0
5, 33620, Note_on_c, 3, 55, 100
5, 33860, Note_on_c, 3, 55, 0
5, 33860, Note_on_c, 3, 56, 98
5, 33920, Note_on_c, 3, 56, 0
5, 33920, Note_on_c, 3, 57, 106
5, 33980, Note_on_c, 3, 57, 0
5, 33980, Note_on_c, 3, 56, 106
5, 34040, Note_on_c, 3, 56, 0
5, 34040, Note_on_c, 3, 54, 106
5, 34100, Note_on_c, 3, 54, 0
5, 34100, Note_on_c, 3, 56, 106
5, 34580, Note_on_c, 3, 56, 0
5, 34700, Note_on_c, 3, 52, 86
5, 34816, Note_on_c, 3, 52, 0
5, 34820, Note_on_c, 3, 54, 99
5, 34936, Note_on_c, 3, 54, 0
5, 34940, Note_on_c, 3, 56, 93
5, 35056, Note_on_c, 3, 56, 0
5, 35060, Note_on_c, 3, 57, 92
5, 35176, Note_on_c, 3, 57, 0
5, 35180, Note_on_c, 3, 59, 97
5, 35296, Note_on_c, 3, 59, 0
5, 35300, Note_on_c, 3, 60, 106
5, 35416, Note_on_c, 3, 60, 0
5, 35420, Note_on_c, 3, 59, 96
5, 35536, Note_on_c, 3, 59, 0
5, 35540, Note_on_c, 3, 57, 96
5, 35656, Note_on_c, 3, 57, 0
5, 35660, Note_on_c, 3, 55, 88
5, 35776, Note_on_c, 3, 55, 0
5, 35780, Note_on_c, 3, 54, 96
5, 35896, Note_on_c, 3, 54, 0
5, 35900, Note_on_c, 3, 52, 85
5, 36016, Note_on_c, 3, 52, 0
5, 36020, Note_on_c, 3, 50, 44
5, 36136, Note_on_c, 3, 50, 0
5, 36140, Note_on_c, 3, 54, 94
5, 36256, Note_on_c, 3, 54, 0
5, 36260, Note_on_c, 3, 55, 68
5, 36376, Note_on_c, 3, 55, 0
5, 36380, Note_on_c, 3, 57, 89
5, 36496, Note_on_c, 3, 57, 0
5, 36500, Note_on_c, 3, 59, 90
5, 36616, Note_on_c, 3, 59, 0
5, 36620, Note_on_c, 3, 60, 91
5, 36736, Note_on_c, 3, 60, 0
5, 36740, Note_on_c, 3, 62, 102
5, 36856, Note_on_c, 3, 62, 0
5, 36860, Note_on_c, 3, 60, 97
5, 36976, Note_on_c, 3, 60, 0
5, 36980, Note_on_c, 3, 59, 93
5, 37096, Note_on_c, 3, 59, 0
5, 37100, Note_on_c, 3, 60, 92
5, 37216, Note_on_c, 3, 60, 0
5, 37220, Note_on_c, 3, 62, 97
5, 37456, Note_on_c, 3, 62, 0
5, 37460, Note_on_c, 3, 55, 109
5, 37936, Note_on_c, 3, 55, 0
5, 38180, Note_on_c, 3, 64, 119
5, 38420, Note_on_c, 3, 64, 0
5, 38900, Note_on_c, 3, 57, 106
5, 39136, Note_on_c, 3, 57, 0
5, 39140, Note_on_c, 3, 59, 102
5, 39256, Note_on_c, 3, 59, 0
5, 39260, Note_on_c, 3, 60, 101
5, 39376, Note_on_c, 3, 60, 0
5, 39380, Note_on_c, 3, 62, 92
5, 39496, Note_on_c, 3, 62, 0
5, 39500, Note_on_c, 3, 64, 101
5, 39616, Note_on_c, 3, 64, 0
5, 39620, Note_on_c, 3, 66, 90
5, 39736, Note_on_c, 3, 66, 0
5, 39740, Note_on_c, 3, 67, 92
5, 39856, Note_on_c, 3, 67, 0
5, 39860, Note_on_c, 3, 66, 97
5, 39976, Note_on_c, 3, 66, 0
5, 39980, Note_on_c, 3, 64, 93
5, 40096, Note_on_c, 3, 64, 0
5, 40100, Note_on_c, 3, 66, 84
5, 40216, Note_on_c, 3, 66, 0
5, 40220, Note_on_c, 3, 62, 90
5, 40336, Note_on_c, 3, 62, 0
5, 40340, Note_on_c, 3, 71, 102
5, 40456, Note_on_c, 3, 71, 0
5, 40460, Note_on_c, 3, 69, 82
5, 40576, Note_on_c, 3, 69, 0
5, 40580, Note_on_c, 3, 67, 89
5, 40696, Note_on_c, 3, 67, 0
5, 40700, Note_on_c, 3, 66, 89
5, 40816, Note_on_c, 3, 66, 0
5, 40820, Note_on_c, 3, 64, 95
5, 40936, Note_on_c, 3, 64, 0
5, 40940, Note_on_c, 3, 62, 86
5, 41056, Note_on_c, 3, 62, 0
5, 41060, Note_on_c, 3, 60, 106
5, 41896, Note_on_c, 3, 60, 0
5, 41900, Note_on_c, 3, 59, 104
5, 42016, Note_on_c, 3, 59, 0
5, 42020, Note_on_c, 3, 60, 96
5, 42136, Note_on_c, 3, 60, 0
5, 42140, Note_on_c, 3, 62, 97
5, 42256, Note_on_c, 3, 62, 0
5, 42260, Note_on_c, 3, 64, 93
5, 42376, Note_on_c, 3, 64, 0
5, 42380, Note_on_c, 3, 66, 90
5, 42496, Note_on_c, 3, 66, 0
5, 42500, Note_on_c, 3, 67, 97
5, 42616, Note_on_c, 3, 67, 0
5, 42620, Note_on_c, 3, 62, 85
5, 42736, Note_on_c, 3, 62, 0
5, 42740, Note_on_c, 3, 59, 74
5, 42856, Note_on_c, 3, 59, 0
5, 42860, Note_on_c, 3, 55, 86
5, 42976, Note_on_c, 3, 55, 0
5, 42980, Note_on_c, 3, 57, 90
5, 43096, Note_on_c, 3, 57, 0
5, 43100, Note_on_c, 3, 59, 95
5, 43216, Note_on_c, 3, 59, 0
5, 43220, Note_on_c, 3, 52, 95
5, 43336, Note_on_c, 3, 52, 0
5, 43340, Note_on_c, 3, 54, 94
5, 43456, Note_on_c, 3, 54, 0
5, 43460, Note_on_c, 3, 55, 91
5, 43576, Note_on_c, 3, 55, 0
5, 43580, Note_on_c, 3, 57, 92
5, 43696, Note_on_c, 3, 57, 0
5, 43700, Note_on_c, 3, 59, 95
5, 43816, Note_on_c, 3, 59, 0
5, 43820, Note_on_c, 3, 55, 81
5, 43936, Note_on_c, 3, 55, 0
5, 43940, Note_on_c, 3, 59, 104
5, 44056, Note_on_c, 3, 59, 0
5, 44060, Note_on_c, 3, 62, 81
5, 44176, Note_on_c, 3, 62, 0
5, 44180, Note_on_c, 3, 67, 107
5, 44420, Note_on_c, 3, 67, 0
5, 44900, Note_on_c, 3, 62, 111
5, 45136, Note_on_c, 3, 62, 0
5, 45140, Note_on_c, 3, 60, 101
5, 45376, Note_on_c, 3, 60, 0
5, 45380, Note_on_c, 3, 59, 100
5, 45616, Note_on_c, 3, 59, 0
5, 45620, Note_on_c, 3, 60, 100
5, 45736, Note_on_c, 3, 60, 0
5, 45740, Note_on_c, 3, 59, 101
5, 45856, Note_on_c, 3, 59, 0
5, 45860, Note_on_c, 3, 57, 91
5, 45976, Note_on_c, 3, 57, 0
5, 45980, Note_on_c, 3, 55, 102
5, 46096, Note_on_c, 3, 55, 0
5, 46100, Note_on_c, 3, 55, 97
5, 46336, Note_on_c, 3, 55, 0
5, 46340, Note_on_c, 3, 71, 106
5, 46576, Note_on_c, 3, 71, 0
5, 46580, Note_on_c, 3, 69, 101
5, 46816, Note_on_c, 3, 69, 0
5, 46820, Note_on_c, 3, 54, 99
5, 47056, Note_on_c, 3, 54, 0
5, 47060, Note_on_c, 3, 52, 101
5, 47296, Note_on_c, 3, 52, 0
5, 47300, Note_on_c, 3, 67, 102
5, 47536, Note_on_c, 3, 67, 0
5, 47540, Note_on_c, 3, 54, 96
5, 47780, Note_on_c, 3, 54, 0
5, 47780, Note_on_c, 3, 69, 96
5, 48020, Note_on_c, 3, 69, 0
5, 48020, Note_on_c, 3, 67, 96
5, 48260, Note_on_c, 3, 67, 0
5, 48260, Note_on_c, 3, 52, 96
5, 48500, Note_on_c, 3, 52, 0
5, 48500, Note_on_c, 3, 50, 96
5, 48740, Note_on_c, 3, 50, 0
5, 48740, Note_on_c, 3, 66, 96
5, 48980, Note_on_c, 3, 66, 0
5, 48980, Note_on_c, 3, 52, 96
5, 49220, Note_on_c, 3, 52, 0
5, 49220, Note_on_c, 3, 67, 96
5, 49460, Note_on_c, 3, 67, 0
5, 49460, Note_on_c, 3, 66, 96
5, 49700, Note_on_c, 3, 66, 0
5, 49700, Note_on_c, 3, 55, 96
5, 49940, Note_on_c, 3, 55, 0
5, 49940, Note_on_c, 3, 57, 96
5, 50180, Note_on_c, 3, 57, 0
5, 50180, Note_on_c, 3, 64, 96
5, 50420, Note_on_c, 3, 64, 0
5, 50420, Note_on_c, 3, 50, 96
5, 50660, Note_on_c, 3, 50, 0
5, 50660, Note_on_c, 3, 66, 96
5, 50900, Note_on_c, 3, 66, 0
5, 50900, Note_on_c, 3, 64, 96
5, 51140, Note_on_c, 3, 64, 0
5, 51140, Note_on_c, 3, 55, 96
5, 51380, Note_on_c, 3, 55, 0
5, 51380, Note_on_c, 3, 54, 96
5, 51620, Note_on_c, 3, 54, 0
5, 51620, Note_on_c, 3, 60, 96
5, 51860, Note_on_c, 3, 60, 0
5, 51860, Note_on_c, 3, 59, 96
5, 51980, Note_on_c, 3, 59, 0
5, 52340, Note_on_c, 3, 60, 96
5, 52460, Note_on_c, 3, 60, 0
5, 52820, Note_on_c, 3, 62, 96
5, 52940, Note_on_c, 3, 62, 0
5, 53300, Note_on_c, 3, 60, 96
5, 53420, Note_on_c, 3, 60, 0
5, 53780, Note_on_c, 3, 62, 96
5, 53900, Note_on_c, 3, 62, 0
5, 54260, Note_on_c, 3, 64, 96
5, 54380, Note_on_c, 3, 64, 0
5, 54740, Note_on_c, 3, 62, 96
5, 54860, Note_on_c, 3, 62, 0
5, 55220, Note_on_c, 3, 64, 96
5, 55340, Note_on_c, 3, 64, 0
5, 55700, Note_on_c, 3, 57, 96
5, 55820, Note_on_c, 3, 57, 0
5, 56180, Note_on_c, 3, 59, 96
5, 56300, Note_on_c, 3, 59, 0
5, 56660, Note_on_c, 3, 60, 96
5, 56780, Note_on_c, 3, 60, 0
5, 57140, Note_on_c, 3, 62, 96
5, 57260, Note_on_c, 3, 62, 0
5, 57620, Note_on_c, 3, 55, 86
5, 57736, Note_on_c, 3, 55, 0
5, 57740, Note_on_c, 3, 59, 92
5, 57856, Note_on_c, 3, 59, 0
5, 57860, Note_on_c, 3, 57, 89
5, 57976, Note_on_c, 3, 57, 0
5, 57980, Note_on_c, 3, 59, 95
5, 58096, Note_on_c, 3, 59, 0
5, 58100, Note_on_c, 3, 64, 96
5, 58216, Note_on_c, 3, 64, 0
5, 58220, Note_on_c, 3, 67, 102
5, 58336, Note_on_c, 3, 67, 0
5, 58340, Note_on_c, 3, 66, 79
5, 58456, Note_on_c, 3, 66, 0
5, 58460, Note_on_c, 3, 67, 96
5, 58576, Note_on_c, 3, 67, 0
5, 58580, Note_on_c, 3, 71, 101
5, 58696, Note_on_c, 3, 71, 0
5, 58700, Note_on_c, 3, 67, 90
5, 58816, Note_on_c, 3, 67, 0
5, 58820, Note_on_c, 3, 64, 75
5, 58936, Note_on_c, 3, 64, 0
5, 58940, Note_on_c, 3, 61, 96
5, 59056, Note_on_c, 3, 61, 0
5, 59060, Note_on_c, 3, 54, 86
5, 59176, Note_on_c, 3, 54, 0
5, 59180, Note_on_c, 3, 57, 86
5, 59296, Note_on_c, 3, 57, 0
5, 59300, Note_on_c, 3, 55, 91
5, 59416, Note_on_c, 3, 55, 0
5, 59420, Note_on_c, 3, 57, 95
5, 59536, Note_on_c, 3, 57, 0
5, 59540, Note_on_c, 3, 62, 100
5, 59656, Note_on_c, 3, 62, 0
5, 59660, Note_on_c, 3, 66, 90
5, 59776, Note_on_c, 3, 66, 0
5, 59780, Note_on_c, 3, 64, 90
5, 59896, Note_on_c, 3, 64, 0
5, 59900, Note_on_c, 3, 66, 81
5, 60016, Note_on_c, 3, 66, 0
5, 60020, Note_on_c, 3, 69, 96
5, 60136, Note_on_c, 3, 69, 0
5, 60140, Note_on_c, 3, 66, 79
5, 60256, Note_on_c, 3, 66, 0
5, 60260, Note_on_c, 3, 62, 81
5, 60376, Note_on_c, 3, 62, 0
5, 60380, Note_on_c, 3, 59, 86
5, 60496, Note_on_c, 3, 59, 0
5, 60500, Note_on_c, 3, 52, 90
5, 60616, Note_on_c, 3, 52, 0
5, 60620, Note_on_c, 3, 55, 83
5, 60736, Note_on_c, 3, 55, 0
5, 60740, Note_on_c, 3, 54, 84
5, 60856, Note_on_c, 3, 54, 0
5, 60860, Note_on_c, 3, 55, 70
5, 60980, Note_on_c, 3, 55, 0
5, 60980, Note_on_c, 3, 59, 100
5, 61096, Note_on_c, 3, 59, 0
5, 61100, Note_on_c, 3, 64, 97
5, 61216, Note_on_c, 3, 64, 0
5, 61220, Note_on_c, 3, 63, 93
5, 61336, Note_on_c, 3, 63, 0
5, 61340, Note_on_c, 3, 64, 93
5, 61456, Note_on_c, 3, 64, 0
5, 61460, Note_on_c, 3, 67, 91
5, 61576, Note_on_c, 3, 67, 0
5, 61580, Note_on_c, 3, 64, 88
5, 61696, Note_on_c, 3, 64, 0
5, 61700, Note_on_c, 3, 59, 85
5, 61816, Note_on_c, 3, 59, 0
5, 61820, Note_on_c, 3, 55, 73
5, 61936, Note_on_c, 3, 55, 0
5, 61940, Note_on_c, 3, 57, 95
5, 62056, Note_on_c, 3, 57, 0
5, 62060, Note_on_c, 3, 64, 98
5, 62176, Note_on_c, 3, 64, 0
5, 62180, Note_on_c, 3, 62, 88
5, 62296, Note_on_c, 3, 62, 0
5, 62300, Note_on_c, 3, 64, 95
5, 62416, Note_on_c, 3, 64, 0
5, 62420, Note_on_c, 3, 67, 88
5, 62536, Note_on_c, 3, 67, 0
5, 62540, Note_on_c, 3, 69, 84
5, 62656, Note_on_c, 3, 69, 0
5, 62660, Note_on_c, 3, 67, 80
5, 62776, Note_on_c, 3, 67, 0
5, 62780, Note_on_c, 3, 69, 91
5, 62896, Note_on_c, 3, 69, 0
5, 62900, Note_on_c, 3, 67, 66
5, 63016, Note_on_c, 3, 67, 0
5, 63020, Note_on_c, 3, 64, 85
5, 63136, Note_on_c, 3, 64, 0
5, 63140, Note_on_c, 3, 61, 85
5, 63256, Note_on_c, 3, 61, 0
5, 63260, Note_on_c, 3, 57, 84
5, 63376, Note_on_c, 3, 57, 0
5, 63380, Note_on_c, 3, 50, 117
5, 63496, Note_on_c, 3, 50, 0
5, 63860, Note_on_c, 3, 47, 93
5, 63976, Note_on_c, 3, 47, 0
5, 64340, Note_on_c, 3, 45, 107
5, 64456, Note_on_c, 3, 45, 0
5, 64820, Note_on_c, 3, 43, 106
5, 64936, Note_on_c, 3, 43, 0
5, 65300, Note_on_c, 3, 45, 107
5, 65416, Note_on_c, 3, 45, 0
5, 65780, Note_on_c, 3, 47, 111
5, 65896, Note_on_c, 3, 47, 0
5, 66260, Note_on_c, 3, 45, 109
5, 66376, Note_on_c, 3, 45, 0
5, 66740, Note_on_c, 3, 43, 101
5, 66856, Note_on_c, 3, 43, 0
5, 67220, Note_on_c, 3, 45, 98
5, 67336, Note_on_c, 3, 45, 0
5, 67700, Note_on_c, 3, 38, 89
5, 67816, Note_on_c, 3, 38, 0
5, 67820, Note_on_c, 3, 42, 82
5, 67936, Note_on_c, 3, 42, 0
5, 67940, Note_on_c, 3, 40, 82
5, 68056, Note_on_c, 3, 40, 0
5, 68060, Note_on_c, 3, 42, 82
5, 68176, Note_on_c, 3, 42, 0
5, 68180, Note_on_c, 3, 45, 102
5, 68296, Note_on_c, 3, 45, 0
5, 68300, Note_on_c, 3, 50, 102
5, 68416, Note_on_c, 3, 50, 0
5, 68420, Note_on_c, 3, 49, 90
5, 68536, Note_on_c, 3, 49, 0
5, 68540, Note_on_c, 3, 50, 91
5, 68656, Note_on_c, 3, 50, 0
5, 68660, Note_on_c, 3, 54, 101
5, 69140, Note_on_c, 3, 54, 0
5, 69140, Note_on_c, 3, 62, 100
5, 69376, Note_on_c, 3, 62, 0
5, 69380, Note_on_c, 3, 52, 72
5, 69616, Note_on_c, 3, 52, 0
5, 69620, Note_on_c, 3, 54, 108
5, 69856, Note_on_c, 3, 54, 0
5, 69860, Note_on_c, 3, 60, 111
5, 70100, Note_on_c, 3, 60, 0
5, 70100, Note_on_c, 3, 50, 88
5, 70340, Note_on_c, 3, 50, 0
5, 70340, Note_on_c, 3, 66, 92
5, 70580, Note_on_c, 3, 66, 0
5, 70580, Note_on_c, 3, 67, 86
5, 70816, Note_on_c, 3, 67, 0
5, 70820, Note_on_c, 3, 57, 90
5, 71056, Note_on_c, 3, 57, 0
5, 71060, Note_on_c, 3, 59, 104
5, 71296, Note_on_c, 3, 59, 0
5, 71300, Note_on_c, 3, 65, 95
5, 71536, Note_on_c, 3, 65, 0
5, 71540, Note_on_c, 3, 55, 96
5, 71776, Note_on_c, 3, 55, 0
5, 71780, Note_on_c, 3, 71, 101
5, 72020, Note_on_c, 3, 71, 0
5, 72020, Note_on_c, 3, 72, 100
5, 72136, Note_on_c, 3, 72, 0
5, 72140, Note_on_c, 3, 67, 78
5, 72256, Note_on_c, 3, 67, 0
5, 72260, Note_on_c, 3, 65, 92
5, 72376, Note_on_c, 3, 65, 0
5, 72380, Note_on_c, 3, 67, 90
5, 72496, Note_on_c, 3, 67, 0
5, 72500, Note_on_c, 3, 64, 86
5, 72616, Note_on_c, 3, 64, 0
5, 72620, Note_on_c, 3, 60, 91
5, 72736, Note_on_c, 3, 60, 0
5, 72740, Note_on_c, 3, 59, 97
5, 72856, Note_on_c, 3, 59, 0
5, 72860, Note_on_c, 3, 60, 92
5, 72976, Note_on_c, 3, 60, 0
5, 72980, Note_on_c, 3, 57, 73
5, 73096, Note_on_c, 3, 57, 0
5, 73100, Note_on_c, 3, 60, 88
5, 73220, Note_on_c, 3, 60, 0
5, 73220, Note_on_c, 3, 64, 88
5, 73340, Note_on_c, 3, 64, 0
5, 73340, Note_on_c, 3, 69, 88
5, 73460, Note_on_c, 3, 69, 0
5, 73460, Note_on_c, 3, 63, 110
5, 73576, Note_on_c, 3, 63, 0
5, 73580, Note_on_c, 3, 59, 89
5, 73696, Note_on_c, 3, 59, 0
5, 73700, Note_on_c, 3, 58, 96
5, 73816, Note_on_c, 3, 58, 0
5, 73820, Note_on_c, 3, 59, 96
5, 73936, Note_on_c, 3, 59, 0
5, 73940, Note_on_c, 3, 54, 90
5, 74056, Note_on_c, 3, 54, 0
5, 74060, Note_on_c, 3, 51, 99
5, 74176, Note_on_c, 3, 51, 0
5, 74180, Note_on_c, 3, 49, 96
5, 74296, Note_on_c, 3, 49, 0
5, 74300, Note_on_c, 3, 51, 90
5, 74416, Note_on_c, 3, 51, 0
5, 74420, Note_on_c, 3, 47, 91
5, 74536, Note_on_c, 3, 47, 0
5, 74540, Note_on_c, 3, 51, 95
5, 74660, Note_on_c, 3, 51, 0
5, 74660, Note_on_c, 3, 54, 101
5, 74776, Note_on_c, 3, 54, 0
5, 74780, Note_on_c, 3, 57, 88
5, 74896, Note_on_c, 3, 57, 0
5, 74900, Note_on_c, 3, 55, 110
5, 75016, Note_on_c, 3, 55, 0
5, 75380, Note_on_c, 3, 57, 110
5, 75496, Note_on_c, 3, 57, 0
5, 75860, Note_on_c, 3, 59, 110
5, 75976, Note_on_c, 3, 59, 0
5, 76340, Note_on_c, 3, 60, 110
5, 76456, Note_on_c, 3, 60, 0
5, 76820, Note_on_c, 3, 59, 110
5, 76936, Note_on_c, 3, 59, 0
5, 77300, Note_on_c, 3, 60, 110
5, 77416, Note_on_c, 3, 60, 0
5, 77780, Note_on_c, 3, 58, 110
5, 77896, Note_on_c, 3, 58, 0
5, 78260, Note_on_c, 3, 59, 110
5, 78376, Note_on_c, 3, 59, 0
5, 78740, Note_on_c, 3, 59, 110
5, 78856, Note_on_c, 3, 59, 0
5, 79220, Note_on_c, 3, 52, 101
5, 79336, Note_on_c, 3, 52, 0
5, 79340, Note_on_c, 3, 64, 101
5, 79456, Note_on_c, 3, 64, 0
5, 79460, Note_on_c, 3, 63, 92
5, 79576, Note_on_c, 3, 63, 0
5, 79580, Note_on_c, 3, 64, 104
5, 79696, Note_on_c, 3, 64, 0
5, 79700, Note_on_c, 3, 59, 104
5, 79816, Note_on_c, 3, 59, 0
5, 79820, Note_on_c, 3, 55, 95
5, 79936, Note_on_c, 3, 55, 0
5, 79940, Note_on_c, 3, 54, 99
5, 80056, Note_on_c, 3, 54, 0
5, 80060, Note_on_c, 3, 55, 93
5, 80176, Note_on_c, 3, 55, 0
5, 80180, Note_on_c, 3, 52, 100
5, 80296, Note_on_c, 3, 52, 0
5, 80300, Note_on_c, 3, 55, 92
5, 80416, Note_on_c, 3, 55, 0
5, 80420, Note_on_c, 3, 59, 102
5, 80536, Note_on_c, 3, 59, 0
5, 80540, Note_on_c, 3, 62, 104
5, 80656, Note_on_c, 3, 62, 0
5, 80660, Note_on_c, 3, 61, 102
5, 80776, Note_on_c, 3, 61, 0
5, 81140, Note_on_c, 3, 59, 102
5, 81256, Note_on_c, 3, 59, 0
5, 81620, Note_on_c, 3, 57, 102
5, 81736, Note_on_c, 3, 57, 0
5, 82100, Note_on_c, 3, 59, 102
5, 82216, Note_on_c, 3, 59, 0
5, 82580, Note_on_c, 3, 57, 102
5, 82696, Note_on_c, 3, 57, 0
5, 83060, Note_on_c, 3, 55, 102
5, 83176, Note_on_c, 3, 55, 0
5, 83540, Note_on_c, 3, 57, 102
5, 83780, Note_on_c, 3, 57, 0
5, 83780, Note_on_c, 3, 76, 102
5, 84020, Note_on_c, 3, 76, 0
5, 84020, Note_on_c, 3, 77, 102
5, 84260, Note_on_c, 3, 77, 0
5, 84260, Note_on_c, 3, 78, 102
5, 84500, Note_on_c, 3, 78, 0
5, 84500, Note_on_c, 3, 79, 102
5, 84740, Note_on_c, 3, 79, 0
5, 84740, Note_on_c, 3, 57, 102
5, 84980, Note_on_c, 3, 57, 0
5, 84980, Note_on_c, 3, 50, 102
5, 85220, Note_on_c, 3, 50, 0
5, 85220, Note_on_c, 3, 78, 102
5, 85460, Note_on_c, 3, 78, 0
5, 85460, Note_on_c, 3, 79, 102
5, 85700, Note_on_c, 3, 79, 0
5, 85700, Note_on_c, 3, 80, 102
5, 85940, Note_on_c, 3, 80, 0
5, 85940, Note_on_c, 3, 81, 102
5, 86180, Note_on_c, 3, 81, 0
5, 86180, Note_on_c, 3, 62, 102
5, 86420, Note_on_c, 3, 62, 0
5, 86420, Note_on_c, 3, 55, 102
5, 86660, Note_on_c, 3, 55, 0
5, 86660, Note_on_c, 3, 43, 102
5, 86900, Note_on_c, 3, 43, 0
5, 86900, Note_on_c, 3, 44, 102
5, 87140, Note_on_c, 3, 44, 0
5, 87140, Note_on_c, 3, 45, 102
5, 87380, Note_on_c, 3, 45, 0
5, 87380, Note_on_c, 3, 46, 102
5, 87620, Note_on_c, 3, 46, 0
5, 87620, Note_on_c, 3, 47, 102
5, 87860, Note_on_c, 3, 47, 0
5, 87860, Note_on_c, 3, 48, 102
5, 87980, Note_on_c, 3, 48, 0
5, 88340, Note_on_c, 3, 50, 102
5, 88460, Note_on_c, 3, 50, 0
5, 88820, Note_on_c, 3, 52, 102
5, 88940, Note_on_c, 3, 52, 0
5, 89300, Note_on_c, 3, 54, 101
5, 89416, Note_on_c, 3, 54, 0
5, 89420, Note_on_c, 3, 62, 95
5, 89536, Note_on_c, 3, 62, 0
5, 89540, Note_on_c, 3, 60, 100
5, 89656, Note_on_c, 3, 60, 0
5, 89660, Note_on_c, 3, 62, 102
5, 89776, Note_on_c, 3, 62, 0
5, 89780, Note_on_c, 3, 59, 98
5, 89896, Note_on_c, 3, 59, 0
5, 89900, Note_on_c, 3, 55, 101
5, 90016, Note_on_c, 3, 55, 0
5, 90020, Note_on_c, 3, 54, 101
5, 90136, Note_on_c, 3, 54, 0
5, 90140, Note_on_c, 3, 55, 97
5, 90256, Note_on_c, 3, 55, 0
5, 90260, Note_on_c, 3, 50, 100
5, 90376, Note_on_c, 3, 50, 0
5, 90380, Note_on_c, 3, 54, 99
5, 90496, Note_on_c, 3, 54, 0
5, 90500, Note_on_c, 3, 57, 98
5, 90616, Note_on_c, 3, 57, 0
5, 90620, Note_on_c, 3, 60, 104
5, 90736, Note_on_c, 3, 60, 0
5, 90740, Note_on_c, 3, 59, 100
5, 90856, Note_on_c, 3, 59, 0
5, 90860, Note_on_c, 3, 55, 91
5, 90976, Note_on_c, 3, 55, 0
5, 90980, Note_on_c, 3, 54, 106
5, 91096, Note_on_c, 3, 54, 0
5, 91100, Note_on_c, 3, 55, 101
5, 91216, Note_on_c, 3, 55, 0
5, 91220, Note_on_c, 3, 50, 104
5, 91336, Note_on_c, 3, 50, 0
5, 91340, Note_on_c, 3, 47, 115
5, 91456, Note_on_c, 3, 47, 0
5, 91460, Note_on_c, 3, 45, 101
5, 91576, Note_on_c, 3, 45, 0
5, 91580, Note_on_c, 3, 47, 117
5, 91696, Note_on_c, 3, 47, 0
5, 91700, Note_on_c, 3, 43, 124
5, 92176, Note_on_c, 3, 43, 0
5, 93600, End_track
0, 0, End_of_file
