0, 0, Header, 1, 4, 480
1, 0, Start_track
1, 0, SMPTE_offset, 96, 0, 0, 0, 0
1, 0, Time_signature, 3, 2, 24, 8
1, 20, Tempo, 666666
1, 47520, End_track
2, 0, Start_track
2, 0, Title_t, "goldberg.mid"
2, 20, Note_on_c, 0, 71, 119
2, 496, Note_on_c, 0, 71, 0
2, 500, Note_on_c, 0, 71, 119
2, 976, Note_on_c, 0, 71, 0
2, 1220, Note_on_c, 0, 71, 119
2, 1456, Note_on_c, 0, 71, 0
2, 1460, Note_on_c, 0, 69, 111
2, 1936, Note_on_c, 0, 69, 0
2, 1940, Note_on_c, 0, 69, 121
2, 2416, Note_on_c, 0, 69, 0
2, 2660, Note_on_c, 0, 74, 121
2, 2896, Note_on_c, 0, 74, 0
2, 2900, Note_on_c, 0, 74, 119
2, 3376, Note_on_c, 0, 74, 0
2, 3380, Note_on_c, 0, 73, 125
2, 3856, Note_on_c, 0, 73, 0
2, 4100, Note_on_c, 0, 67, 123
2, 4336, Note_on_c, 0, 67, 0
2, 4340, Note_on_c, 0, 67, 119
2, 4696, Note_on_c, 0, 67, 0
2, 4700, Note_on_c, 0, 64, 124
2, 4816, Note_on_c, 0, 64, 0
2, 4820, Note_on_c, 0, 66, 127
2, 5296, Note_on_c, 0, 66, 0
2, 5540, Note_on_c, 0, 69, 123
2, 5776, Note_on_c, 0, 69, 0
2, 5780, Note_on_c, 0, 62, 124
2, 6136, Note_on_c, 0, 62, 0
2, 6140, Note_on_c, 0, 64, 127
2, 6256, Note_on_c, 0, 64, 0
2, 6260, Note_on_c, 0, 65, 126
2, 6736, Note_on_c, 0, 65, 0
2, 6980, Note_on_c, 0, 67, 119
2, 7216, Note_on_c, 0, 67, 0
2, 7220, Note_on_c, 0, 67, 119
2, 7572, Note_on_c, 0, 67, 0
2, 7580, Note_on_c, 0, 64, 119
2, 7700, Note_on_c, 0, 64, 0
2, 7700, Note_on_c, 0, 62, 119
2, 7820, Note_on_c, 0, 62, 0
2, 7820, Note_on_c, 0, 60, 119
2, 8180, Note_on_c, 0, 60, 0
2, 8420, Note_on_c, 0, 64, 119
2, 8660, Note_on_c, 0, 64, 0
2, 8660, Note_on_c, 0, 57, 119
2, 9020, Note_on_c, 0, 57, 0
2, 9020, Note_on_c, 0, 59, 119
2, 9140, Note_on_c, 0, 59, 0
2, 9140, Note_on_c, 0, 60, 119
2, 9620, Note_on_c, 0, 60, 0
2, 9860, Note_on_c, 0, 62, 119
2, 10100, Note_on_c, 0, 62, 0
2, 10100, Note_on_c, 0, 62, 119
2, 10460, Note_on_c, 0, 62, 0
2, 10460, Note_on_c, 0, 59, 119
2, 10580, Note_on_c, 0, 59, 0
2, 10580, Note_on_c, 0, 55, 119
2, 11060, Note_on_c, 0, 55, 0
2, 11540, Note_on_c, 0, 79, 119
2, 11900, Note_on_c, 0, 79, 0
2, 11900, Note_on_c, 0, 78, 119
2, 11960, Note_on_c, 0, 78, 0
2, 11960, Note_on_c, 0, 76, 119
2, 12020, Note_on_c, 0, 76, 0
2, 12020, Note_on_c, 0, 74, 119
2, 12500, Note_on_c, 0, 74, 0
2, 12740, Note_on_c, 0, 83, 119
2, 12980, Note_on_c, 0, 83, 0
2, 12980, Note_on_c, 0, 81, 119
2, 13460, Note_on_c, 0, 81, 0
2, 13460, Note_on_c, 0, 81, 119
2, 13940, Note_on_c, 0, 81, 0
2, 14180, Note_on_c, 0, 81, 119
2, 14420, Note_on_c, 0, 81, 0
2, 14420, Note_on_c, 0, 81, 119
2, 14900, Note_on_c, 0, 81, 0
2, 14900, Note_on_c, 0, 79, 119
2, 15380, Note_on_c, 0, 79, 0
2, 15620, Note_on_c, 0, 79, 119
2, 15860, Note_on_c, 0, 79, 0
2, 15860, Note_on_c, 0, 79, 119
2, 16220, Note_on_c, 0, 79, 0
2, 16220, Note_on_c, 0, 76, 119
2, 16340, Note_on_c, 0, 76, 0
2, 16340, Note_on_c, 0, 71, 119
2, 16460, Note_on_c, 0, 71, 0
2, 16460, Note_on_c, 0, 69, 119
2, 16820, Note_on_c, 0, 69, 0
2, 17060, Note_on_c, 0, 79, 119
2, 17300, Note_on_c, 0, 79, 0
2, 17300, Note_on_c, 0, 79, 119
2, 17660, Note_on_c, 0, 79, 0
2, 17660, Note_on_c, 0, 76, 119
2, 17780, Note_on_c, 0, 76, 0
2, 17780, Note_on_c, 0, 76, 119
2, 17900, Note_on_c, 0, 76, 0
2, 17900, Note_on_c, 0, 78, 119
2, 18260, Note_on_c, 0, 78, 0
2, 18500, Note_on_c, 0, 81, 119
2, 18740, Note_on_c, 0, 81, 0
2, 18740, Note_on_c, 0, 83, 119
2, 19100, Note_on_c, 0, 83, 0
2, 19100, Note_on_c, 0, 78, 119
2, 19220, Note_on_c, 0, 78, 0
2, 19220, Note_on_c, 0, 78, 119
2, 19340, Note_on_c, 0, 78, 0
2, 19340, Note_on_c, 0, 79, 119
2, 19700, Note_on_c, 0, 79, 0
2, 19940, Note_on_c, 0, 79, 119
2, 20180, Note_on_c, 0, 79, 0
2, 20180, Note_on_c, 0, 79, 119
2, 20660, Note_on_c, 0, 79, 0
2, 20660, Note_on_c, 0, 73, 119
2, 21140, Note_on_c, 0, 73, 0
2, 21380, Note_on_c, 0, 69, 119
2, 21620, Note_on_c, 0, 69, 0
2, 21620, Note_on_c, 0, 69, 119
2, 21980, Note_on_c, 0, 69, 0
2, 21980, Note_on_c, 0, 64, 119
2, 22100, Note_on_c, 0, 64, 0
2, 22100, Note_on_c, 0, 64, 119
2, 22220, Note_on_c, 0, 64, 0
2, 22220, Note_on_c, 0, 66, 119
2, 22580, Note_on_c, 0, 66, 0
2, 23060, Note_on_c, 0, 66, 123
2, 23416, Note_on_c, 0, 66, 0
2, 23420, Note_on_c, 0, 64, 106
2, 23536, Note_on_c, 0, 64, 0
2, 23540, Note_on_c, 0, 66, 106
2, 24020, Note_on_c, 0, 66, 0
2, 24260, Note_on_c, 0, 62, 104
2, 24496, Note_on_c, 0, 62, 0
2, 24500, Note_on_c, 0, 67, 109
2, 24856, Note_on_c, 0, 67, 0
2, 24860, Note_on_c, 0, 69, 97
2, 24976, Note_on_c, 0, 69, 0
2, 24980, Note_on_c, 0, 69, 106
2, 25096, Note_on_c, 0, 69, 0
2, 25100, Note_on_c, 0, 71, 102
2, 25460, Note_on_c, 0, 71, 0
2, 25700, Note_on_c, 0, 79, 104
2, 25936, Note_on_c, 0, 79, 0
2, 25940, Note_on_c, 0, 76, 104
2, 26300, Note_on_c, 0, 76, 0
2, 26300, Note_on_c, 0, 83, 113
2, 26420, Note_on_c, 0, 83, 0
2, 26420, Note_on_c, 0, 81, 106
2, 26900, Note_on_c, 0, 81, 0
2, 27140, Note_on_c, 0, 81, 109
2, 27380, Note_on_c, 0, 81, 0
2, 27380, Note_on_c, 0, 81, 119
2, 27736, Note_on_c, 0, 81, 0
2, 27740, Note_on_c, 0, 78, 109
2, 27856, Note_on_c, 0, 78, 0
2, 27860, Note_on_c, 0, 75, 108
2, 28340, Note_on_c, 0, 75, 0
2, 28580, Note_on_c, 0, 78, 112
2, 28816, Note_on_c, 0, 78, 0
2, 28820, Note_on_c, 0, 79, 119
2, 29176, Note_on_c, 0, 79, 0
2, 29180, Note_on_c, 0, 78, 117
2, 29296, Note_on_c, 0, 78, 0
2, 29300, Note_on_c, 0, 76, 124
2, 30016, Note_on_c, 0, 76, 0
2, 30020, Note_on_c, 0, 79, 104
2, 30260, Note_on_c, 0, 79, 0
2, 30260, Note_on_c, 0, 79, 104
2, 30740, Note_on_c, 0, 79, 0
2, 30740, Note_on_c, 0, 77, 104
2, 31220, Note_on_c, 0, 77, 0
2, 31460, Note_on_c, 0, 81, 104
2, 31700, Note_on_c, 0, 81, 0
2, 31700, Note_on_c, 0, 81, 104
2, 32060, Note_on_c, 0, 81, 0
2, 32060, Note_on_c, 0, 78, 104
2, 32180, Note_on_c, 0, 78, 0
2, 32180, Note_on_c, 0, 75, 104
2, 32660, Note_on_c, 0, 75, 0
2, 32900, Note_on_c, 0, 78, 104
2, 33140, Note_on_c, 0, 78, 0
2, 33140, Note_on_c, 0, 78, 104
2, 33500, Note_on_c, 0, 78, 0
2, 33500, Note_on_c, 0, 75, 104
2, 33620, Note_on_c, 0, 75, 0
2, 33620, Note_on_c, 0, 76, 104
2, 33680, Note_on_c, 0, 76, 0
2, 33680, Note_on_c, 0, 75, 104
2, 33740, Note_on_c, 0, 75, 0
2, 33740, Note_on_c, 0, 76, 104
2, 34100, Note_on_c, 0, 76, 0
2, 34180, Note_on_c, 0, 52, 92
2, 34256, Note_on_c, 0, 52, 0
2, 34260, Note_on_c, 0, 54, 90
2, 34336, Note_on_c, 0, 54, 0
2, 34340, Note_on_c, 0, 55, 101
2, 34416, Note_on_c, 0, 55, 0
2, 34420, Note_on_c, 0, 57, 104
2, 34496, Note_on_c, 0, 57, 0
2, 34500, Note_on_c, 0, 59, 117
2, 34576, Note_on_c, 0, 59, 0
2, 34580, Note_on_c, 0, 64, 104
2, 34820, Note_on_c, 0, 64, 0
2, 34940, Note_on_c, 0, 68, 104
2, 35060, Note_on_c, 0, 68, 0
2, 35060, Note_on_c, 0, 69, 104
2, 35420, Note_on_c, 0, 69, 0
2, 35420, Note_on_c, 0, 71, 104
2, 35540, Note_on_c, 0, 71, 0
2, 35540, Note_on_c, 0, 72, 104
2, 36260, Note_on_c, 0, 72, 0
2, 36380, Note_on_c, 0, 66, 104
2, 36500, Note_on_c, 0, 66, 0
2, 36500, Note_on_c, 0, 67, 104
2, 36860, Note_on_c, 0, 67, 0
2, 36860, Note_on_c, 0, 69, 104
2, 36980, Note_on_c, 0, 69, 0
2, 36980, Note_on_c, 0, 71, 104
2, 37700, Note_on_c, 0, 71, 0
2, 37820, Note_on_c, 0, 64, 104
2, 37940, Note_on_c, 0, 64, 0
2, 37940, Note_on_c, 0, 66, 104
2, 38300, Note_on_c, 0, 66, 0
2, 38300, Note_on_c, 0, 67, 104
2, 38420, Note_on_c, 0, 67, 0
2, 38420, Note_on_c, 0, 69, 104
2, 38780, Note_on_c, 0, 69, 0
2, 38780, Note_on_c, 0, 67, 104
2, 38900, Note_on_c, 0, 67, 0
2, 38900, Note_on_c, 0, 66, 104
2, 38976, Note_on_c, 0, 66, 0
2, 38980, Note_on_c, 0, 67, 90
2, 39056, Note_on_c, 0, 67, 0
2, 39060, Note_on_c, 0, 66, 102
2, 39136, Note_on_c, 0, 66, 0
2, 39140, Note_on_c, 0, 61, 104
2, 39216, Note_on_c, 0, 61, 0
2, 39220, Note_on_c, 0, 62, 84
2, 39296, Note_on_c, 0, 62, 0
2, 39300, Note_on_c, 0, 64, 104
2, 39376, Note_on_c, 0, 64, 0
2, 39380, Note_on_c, 0, 66, 94
2, 39456, Note_on_c, 0, 66, 0
2, 39460, Note_on_c, 0, 64, 93
2, 39536, Note_on_c, 0, 64, 0
2, 39540, Note_on_c, 0, 66, 90
2, 39616, Note_on_c, 0, 66, 0
2, 39620, Note_on_c, 0, 67, 104
2, 39696, Note_on_c, 0, 67, 0
2, 39700, Note_on_c, 0, 66, 93
2, 39776, Note_on_c, 0, 66, 0
2, 39780, Note_on_c, 0, 67, 104
2, 39856, Note_on_c, 0, 67, 0
2, 39860, Note_on_c, 0, 69, 98
2, 39936, Note_on_c, 0, 69, 0
2, 39940, Note_on_c, 0, 67, 85
2, 40016, Note_on_c, 0, 67, 0
2, 40020, Note_on_c, 0, 69, 88
2, 40096, Note_on_c, 0, 69, 0
2, 40100, Note_on_c, 0, 71, 91
2, 40176, Note_on_c, 0, 71, 0
2, 40180, Note_on_c, 0, 67, 95
2, 40256, Note_on_c, 0, 67, 0
2, 40260, Note_on_c, 0, 69, 93
2, 40336, Note_on_c, 0, 69, 0
2, 40340, Note_on_c, 0, 71, 93
2, 40416, Note_on_c, 0, 71, 0
2, 40420, Note_on_c, 0, 72, 98
2, 40496, Note_on_c, 0, 72, 0
2, 40500, Note_on_c, 0, 71, 88
2, 40576, Note_on_c, 0, 71, 0
2, 40580, Note_on_c, 0, 66, 90
2, 40656, Note_on_c, 0, 66, 0
2, 40660, Note_on_c, 0, 67, 92
2, 40736, Note_on_c, 0, 67, 0
2, 40740, Note_on_c, 0, 69, 88
2, 40816, Note_on_c, 0, 69, 0
2, 40820, Note_on_c, 0, 71, 104
2, 40896, Note_on_c, 0, 71, 0
2, 40900, Note_on_c, 0, 69, 92
2, 40976, Note_on_c, 0, 69, 0
2, 40980, Note_on_c, 0, 71, 96
2, 41056, Note_on_c, 0, 71, 0
2, 41060, Note_on_c, 0, 72, 100
2, 41136, Note_on_c, 0, 72, 0
2, 41140, Note_on_c, 0, 71, 106
2, 41216, Note_on_c, 0, 71, 0
2, 41220, Note_on_c, 0, 72, 107
2, 41296, Note_on_c, 0, 72, 0
2, 41300, Note_on_c, 0, 74, 96
2, 41376, Note_on_c, 0, 74, 0
2, 41380, Note_on_c, 0, 72, 90
2, 41456, Note_on_c, 0, 72, 0
2, 41460, Note_on_c, 0, 74, 90
2, 41536, Note_on_c, 0, 74, 0
2, 41540, Note_on_c, 0, 76, 100
2, 41616, Note_on_c, 0, 76, 0
2, 41620, Note_on_c, 0, 72, 104
2, 41696, Note_on_c, 0, 72, 0
2, 41700, Note_on_c, 0, 74, 101
2, 41776, Note_on_c, 0, 74, 0
2, 41780, Note_on_c, 0, 76, 104
2, 41856, Note_on_c, 0, 76, 0
2, 41860, Note_on_c, 0, 77, 102
2, 41936, Note_on_c, 0, 77, 0
2, 41940, Note_on_c, 0, 76, 106
2, 42016, Note_on_c, 0, 76, 0
2, 42020, Note_on_c, 0, 71, 100
2, 42096, Note_on_c, 0, 71, 0
2, 42100, Note_on_c, 0, 72, 102
2, 42176, Note_on_c, 0, 72, 0
2, 42180, Note_on_c, 0, 74, 92
2, 42256, Note_on_c, 0, 74, 0
2, 42260, Note_on_c, 0, 76, 98
2, 42336, Note_on_c, 0, 76, 0
2, 42340, Note_on_c, 0, 74, 100
2, 42416, Note_on_c, 0, 74, 0
2, 42420, Note_on_c, 0, 76, 107
2, 42496, Note_on_c, 0, 76, 0
2, 42500, Note_on_c, 0, 78, 99
2, 42576, Note_on_c, 0, 78, 0
2, 42580, Note_on_c, 0, 76, 96
2, 42656, Note_on_c, 0, 76, 0
2, 42660, Note_on_c, 0, 78, 101
2, 42736, Note_on_c, 0, 78, 0
2, 42740, Note_on_c, 0, 79, 101
2, 42816, Note_on_c, 0, 79, 0
2, 42820, Note_on_c, 0, 78, 93
2, 42896, Note_on_c, 0, 78, 0
2, 42900, Note_on_c, 0, 79, 98
2, 42976, Note_on_c, 0, 79, 0
2, 42980, Note_on_c, 0, 81, 104
2, 43056, Note_on_c, 0, 81, 0
2, 43060, Note_on_c, 0, 78, 93
2, 43136, Note_on_c, 0, 78, 0
2, 43140, Note_on_c, 0, 79, 102
2, 43216, Note_on_c, 0, 79, 0
2, 43220, Note_on_c, 0, 81, 102
2, 43296, Note_on_c, 0, 81, 0
2, 43300, Note_on_c, 0, 83, 106
2, 43376, Note_on_c, 0, 83, 0
2, 43380, Note_on_c, 0, 81, 100
2, 43456, Note_on_c, 0, 81, 0
2, 43460, Note_on_c, 0, 78, 96
2, 43536, Note_on_c, 0, 78, 0
2, 43540, Note_on_c, 0, 79, 97
2, 43616, Note_on_c, 0, 79, 0
2, 43620, Note_on_c, 0, 81, 90
2, 43696, Note_on_c, 0, 81, 0
2, 43700, Note_on_c, 0, 83, 107
2, 43776, Note_on_c, 0, 83, 0
2, 43780, Note_on_c, 0, 81, 90
2, 43856, Note_on_c, 0, 81, 0
2, 43860, Note_on_c, 0, 83, 107
2, 43936, Note_on_c, 0, 83, 0
2, 43940, Note_on_c, 0, 86, 100
2, 44016, Note_on_c, 0, 86, 0
2, 44020, Note_on_c, 0, 84, 86
2, 44096, Note_on_c, 0, 84, 0
2, 44100, Note_on_c, 0, 83, 102
2, 44176, Note_on_c, 0, 83, 0
2, 44180, Note_on_c, 0, 81, 98
2, 44256, Note_on_c, 0, 81, 0
2, 44260, Note_on_c, 0, 79, 85
2, 44336, Note_on_c, 0, 79, 0
2, 44340, Note_on_c, 0, 78, 93
2, 44416, Note_on_c, 0, 78, 0
2, 44420, Note_on_c, 0, 76, 85
2, 44496, Note_on_c, 0, 76, 0
2, 44500, Note_on_c, 0, 74, 85
2, 44576, Note_on_c, 0, 74, 0
2, 44580, Note_on_c, 0, 72, 93
2, 44656, Note_on_c, 0, 72, 0
2, 44660, Note_on_c, 0, 71, 97
2, 44736, Note_on_c, 0, 71, 0
2, 44740, Note_on_c, 0, 69, 84
2, 44816, Note_on_c, 0, 69, 0
2, 44820, Note_on_c, 0, 67, 98
2, 44896, Note_on_c, 0, 67, 0
2, 44900, Note_on_c, 0, 66, 94
2, 44976, Note_on_c, 0, 66, 0
2, 44980, Note_on_c, 0, 67, 97
2, 45056, Note_on_c, 0, 67, 0
2, 45060, Note_on_c, 0, 62, 97
2, 45136, Note_on_c, 0, 62, 0
2, 45140, Note_on_c, 0, 59, 121
2, 45376, Note_on_c, 0, 59, 0
2, 47520, End_track
3, 0, Start_track
3, 0, Title_t, "goldberg.mid"
3, 20, Note_on_c, 1, 67, 89
3, 500, Note_on_c, 1, 67, 0
3, 500, Note_on_c, 1, 62, 117
3, 980, Note_on_c, 1, 62, 0
3, 1220, Note_on_c, 1, 67, 115
3, 1460, Note_on_c, 1, 67, 0
3, 1460, Note_on_c, 1, 67, 113
3, 1816, Note_on_c, 1, 67, 0
3, 1820, Note_on_c, 1, 64, 102
3, 1936, Note_on_c, 1, 64, 0
3, 1940, Note_on_c, 1, 64, 106
3, 2056, Note_on_c, 1, 64, 0
3, 2060, Note_on_c, 1, 66, 106
3, 2420, Note_on_c, 1, 66, 0
3, 2660, Note_on_c, 1, 69, 104
3, 2896, Note_on_c, 1, 69, 0
3, 2900, Note_on_c, 1, 71, 117
3, 3256, Note_on_c, 1, 71, 0
3, 3260, Note_on_c, 1, 67, 101
3, 3376, Note_on_c, 1, 67, 0
3, 3380, Note_on_c, 1, 64, 113
3, 3856, Note_on_c, 1, 64, 0
3, 4100, Note_on_c, 1, 57, 113
3, 4336, Note_on_c, 1, 57, 0
3, 4340, Note_on_c, 1, 62, 121
3, 4820, Note_on_c, 1, 62, 0
3, 4820, Note_on_c, 1, 62, 117
3, 5296, Note_on_c, 1, 62, 0
3, 5540, Note_on_c, 1, 60, 121
3, 5776, Note_on_c, 1, 60, 0
3, 5780, Note_on_c, 1, 59, 107
3, 6136, Note_on_c, 1, 59, 0
3, 6140, Note_on_c, 1, 60, 109
3, 6256, Note_on_c, 1, 60, 0
3, 6260, Note_on_c, 1, 62, 119
3, 6736, Note_on_c, 1, 62, 0
3, 6980, Note_on_c, 1, 55, 107
3, 7216, Note_on_c, 1, 55, 0
3, 7220, Note_on_c, 1, 60, 104
3, 7700, Note_on_c, 1, 60, 0
3, 7700, Note_on_c, 1, 52, 96
3, 8176, Note_on_c, 1, 52, 0
3, 8420, Note_on_c, 1, 55, 111
3, 8656, Note_on_c, 1, 55, 0
3, 8660, Note_on_c, 1, 54, 115
3, 9016, Note_on_c, 1, 54, 0
3, 9020, Note_on_c, 1, 55, 113
3, 9136, Note_on_c, 1, 55, 0
3, 9140, Note_on_c, 1, 57, 123
3, 9616, Note_on_c, 1, 57, 0
3, 9860, Note_on_c, 1, 50, 111
3, 10096, Note_on_c, 1, 50, 0
3, 10100, Note_on_c, 1, 55, 117
3, 10576, Note_on_c, 1, 55, 0
3, 10580, Note_on_c, 1, 43, 123
3, 11056, Note_on_c, 1, 43, 0
3, 11540, Note_on_c, 1, 71, 117
3, 12020, Note_on_c, 1, 71, 0
3, 12020, Note_on_c, 1, 71, 109
3, 12500, Note_on_c, 1, 71, 0
3, 12740, Note_on_c, 1, 79, 109
3, 12976, Note_on_c, 1, 79, 0
3, 12980, Note_on_c, 1, 79, 109
3, 13340, Note_on_c, 1, 79, 0
3, 13340, Note_on_c, 1, 76, 113
3, 13456, Note_on_c, 1, 76, 0
3, 13460, Note_on_c, 1, 78, 104
3, 13520, Note_on_c, 1, 78, 0
3, 13520, Note_on_c, 1, 76, 104
3, 13580, Note_on_c, 1, 76, 0
3, 13580, Note_on_c, 1, 78, 104
3, 13940, Note_on_c, 1, 78, 0
3, 14180, Note_on_c, 1, 72, 111
3, 14416, Note_on_c, 1, 72, 0
3, 14420, Note_on_c, 1, 71, 113
3, 14776, Note_on_c, 1, 71, 0
3, 14780, Note_on_c, 1, 75, 121
3, 14896, Note_on_c, 1, 75, 0
3, 14900, Note_on_c, 1, 76, 117
3, 15376, Note_on_c, 1, 76, 0
3, 15620, Note_on_c, 1, 76, 119
3, 15856, Note_on_c, 1, 76, 0
3, 15860, Note_on_c, 1, 69, 117
3, 16216, Note_on_c, 1, 69, 0
3, 16220, Note_on_c, 1, 73, 101
3, 16340, Note_on_c, 1, 73, 0
3, 16340, Note_on_c, 1, 64, 107
3, 16816, Note_on_c, 1, 64, 0
3, 17060, Note_on_c, 1, 73, 109
3, 17300, Note_on_c, 1, 73, 0
3, 17300, Note_on_c, 1, 73, 110
3, 17536, Note_on_c, 1, 73, 0
3, 17780, Note_on_c, 1, 74, 96
3, 18260, Note_on_c, 1, 74, 0
3, 18500, Note_on_c, 1, 74, 104
3, 18736, Note_on_c, 1, 74, 0
3, 18740, Note_on_c, 1, 74, 109
3, 19220, Note_on_c, 1, 74, 0
3, 19220, Note_on_c, 1, 74, 107
3, 19700, Note_on_c, 1, 74, 0
3, 19940, Note_on_c, 1, 76, 98
3, 20176, Note_on_c, 1, 76, 0
3, 20180, Note_on_c, 1, 69, 102
3, 20532, Note_on_c, 1, 69, 0
3, 20540, Note_on_c, 1, 67, 86
3, 20600, Note_on_c, 1, 67, 0
3, 20600, Note_on_c, 1, 66, 112
3, 20660, Note_on_c, 1, 66, 0
3, 20660, Note_on_c, 1, 64, 121
3, 21140, Note_on_c, 1, 64, 0
3, 21380, Note_on_c, 1, 57, 102
3, 21616, Note_on_c, 1, 57, 0
3, 21620, Note_on_c, 1, 62, 119
3, 22100, Note_on_c, 1, 62, 0
3, 22100, Note_on_c, 1, 62, 119
3, 22580, Note_on_c, 1, 62, 0
3, 23060, Note_on_c, 1, 62, 123
3, 23540, Note_on_c, 1, 62, 0
3, 23540, Note_on_c, 1, 60, 123
3, 24020, Note_on_c, 1, 60, 0
3, 24260, Note_on_c, 1, 60, 123
3, 24500, Note_on_c, 1, 60, 0
3, 24500, Note_on_c, 1, 59, 123
3, 24860, Note_on_c, 1, 59, 0
3, 24860, Note_on_c, 1, 62, 123
3, 24980, Note_on_c, 1, 62, 0
3, 24980, Note_on_c, 1, 67, 123
3, 25460, Note_on_c, 1, 67, 0
3, 25700, Note_on_c, 1, 74, 123
3, 25940, Note_on_c, 1, 74, 0
3, 25940, Note_on_c, 1, 73, 123
3, 26420, Note_on_c, 1, 73, 0
3, 26420, Note_on_c, 1, 75, 123
3, 26900, Note_on_c, 1, 75, 0
3, 27140, Note_on_c, 1, 76, 123
3, 27380, Note_on_c, 1, 76, 0
3, 27380, Note_on_c, 1, 75, 123
3, 27860, Note_on_c, 1, 75, 0
3, 27860, Note_on_c, 1, 66, 123
3, 28340, Note_on_c, 1, 66, 0
3, 28580, Note_on_c, 1, 75, 123
3, 28820, Note_on_c, 1, 75, 0
3, 28820, Note_on_c, 1, 76, 123
3, 29300, Note_on_c, 1, 76, 0
3, 29300, Note_on_c, 1, 71, 123
3, 29780, Note_on_c, 1, 71, 0
3, 30020, Note_on_c, 1, 69, 123
3, 30260, Note_on_c, 1, 69, 0
3, 30260, Note_on_c, 1, 69, 123
3, 30620, Note_on_c, 1, 69, 0
3, 30620, Note_on_c, 1, 71, 123
3, 30740, Note_on_c, 1, 71, 0
3, 30740, Note_on_c, 1, 72, 123
3, 31220, Note_on_c, 1, 72, 0
3, 31460, Note_on_c, 1, 72, 123
3, 31700, Note_on_c, 1, 72, 0
3, 31700, Note_on_c, 1, 71, 123
3, 32180, Note_on_c, 1, 71, 0
3, 32180, Note_on_c, 1, 69, 123
3, 32660, Note_on_c, 1, 69, 0
3, 32900, Note_on_c, 1, 69, 123
3, 33140, Note_on_c, 1, 69, 0
3, 33140, Note_on_c, 1, 69, 123
3, 33500, Note_on_c, 1, 69, 0
3, 33500, Note_on_c, 1, 66, 123
3, 33620, Note_on_c, 1, 66, 0
3, 33620, Note_on_c, 1, 67, 123
3, 34100, Note_on_c, 1, 67, 0
3, 35420, Note_on_c, 1, 79, 123
3, 35540, Note_on_c, 1, 79, 0
3, 35540, Note_on_c, 1, 78, 123
3, 35900, Note_on_c, 1, 78, 0
3, 35900, Note_on_c, 1, 76, 123
3, 36020, Note_on_c, 1, 76, 0
3, 36020, Note_on_c, 1, 74, 123
3, 36740, Note_on_c, 1, 74, 0
3, 36860, Note_on_c, 1, 77, 123
3, 36980, Note_on_c, 1, 77, 0
3, 36980, Note_on_c, 1, 76, 123
3, 37340, Note_on_c, 1, 76, 0
3, 37340, Note_on_c, 1, 74, 123
3, 37460, Note_on_c, 1, 74, 0
3, 37460, Note_on_c, 1, 72, 123
3, 38780, Note_on_c, 1, 69, 123
3, 38900, Note_on_c, 1, 72, 0
3, 38900, Note_on_c, 1, 69, 0
3, 38900, Note_on_c, 1, 72, 123
3, 39140, Note_on_c, 1, 72, 0
3, 39860, Note_on_c, 1, 66, 123
3, 40100, Note_on_c, 1, 66, 0
3, 40340, Note_on_c, 1, 67, 123
3, 40580, Note_on_c, 1, 67, 0
3, 41300, Note_on_c, 1, 74, 123
3, 41540, Note_on_c, 1, 74, 0
3, 41780, Note_on_c, 1, 72, 123
3, 42020, Note_on_c, 1, 72, 0
3, 47520, End_track
4, 0, Start_track
4, 0, Title_t, "goldberg.mid"
4, 20, Note_on_c, 3, 55, 90
4, 96, Note_on_c, 3, 55, 0
4, 100, Note_on_c, 3, 57, 95
4, 176, Note_on_c, 3, 57, 0
4, 180, Note_on_c, 3, 55, 86
4, 256, Note_on_c, 3, 55, 0
4, 260, Note_on_c, 3, 50, 90
4, 336, Note_on_c, 3, 50, 0
4, 340, Note_on_c, 3, 52, 92
4, 416, Note_on_c, 3, 52, 0
4, 420, Note_on_c, 3, 54, 85
4, 496, Note_on_c, 3, 54, 0
4, 500, Note_on_c, 3, 55, 96
4, 576, Note_on_c, 3, 55, 0
4, 580, Note_on_c, 3, 54, 96
4, 656, Note_on_c, 3, 54, 0
4, 660, Note_on_c, 3, 55, 91
4, 736, Note_on_c, 3, 55, 0
4, 740, Note_on_c, 3, 57, 95
4, 816, Note_on_c, 3, 57, 0
4, 820, Note_on_c, 3, 55, 85
4, 896, Note_on_c, 3, 55, 0
4, 900, Note_on_c, 3, 57, 100
4, 976, Note_on_c, 3, 57, 0
4, 980, Note_on_c, 3, 59, 96
4, 1056, Note_on_c, 3, 59, 0
4, 1060, Note_on_c, 3, 57, 90
4, 1136, Note_on_c, 3, 57, 0
4, 1140, Note_on_c, 3, 59, 93
4, 1216, Note_on_c, 3, 59, 0
4, 1220, Note_on_c, 3, 60, 98
4, 1296, Note_on_c, 3, 60, 0
4, 1300, Note_on_c, 3, 59, 98
4, 1376, Note_on_c, 3, 59, 0
4, 1380, Note_on_c, 3, 61, 102
4, 1456, Note_on_c, 3, 61, 0
4, 1460, Note_on_c, 3, 62, 100
4, 1536, Note_on_c, 3, 62, 0
4, 1540, Note_on_c, 3, 64, 106
4, 1616, Note_on_c, 3, 64, 0
4, 1620, Note_on_c, 3, 62, 97
4, 1696, Note_on_c, 3, 62, 0
4, 1700, Note_on_c, 3, 57, 80
4, 1776, Note_on_c, 3, 57, 0
4, 1780, Note_on_c, 3, 59, 89
4, 1856, Note_on_c, 3, 59, 0
4, 1860, Note_on_c, 3, 61, 94
4, 1936, Note_on_c, 3, 61, 0
4, 1940, Note_on_c, 3, 62, 91
4, 2016, Note_on_c, 3, 62, 0
4, 2020, Note_on_c, 3, 61, 90
4, 2096, Note_on_c, 3, 61, 0
4, 2100, Note_on_c, 3, 62, 98
4, 2176, Note_on_c, 3, 62, 0
4, 2180, Note_on_c, 3, 64, 96
4, 2256, Note_on_c, 3, 64, 0
4, 2260, Note_on_c, 3, 62, 90
4, 2336, Note_on_c, 3, 62, 0
4, 2340, Note_on_c, 3, 64, 97
4, 2416, Note_on_c, 3, 64, 0
4, 2420, Note_on_c, 3, 66, 104
4, 2496, Note_on_c, 3, 66, 0
4, 2500, Note_on_c, 3, 64, 97
4, 2576, Note_on_c, 3, 64, 0
4, 2580, Note_on_c, 3, 66, 97
4, 2656, Note_on_c, 3, 66, 0
4, 2660, Note_on_c, 3, 67, 98
4, 2736, Note_on_c, 3, 67, 0
4, 2740, Note_on_c, 3, 64, 93
4, 2816, Note_on_c, 3, 64, 0
4, 2820, Note_on_c, 3, 66, 93
4, 2896, Note_on_c, 3, 66, 0
4, 2900, Note_on_c, 3, 67, 95
4, 2976, Note_on_c, 3, 67, 0
4, 2980, Note_on_c, 3, 69, 90
4, 3056, Note_on_c, 3, 69, 0
4, 3060, Note_on_c, 3, 67, 101
4, 3136, Note_on_c, 3, 67, 0
4, 3140, Note_on_c, 3, 59, 90
4, 3216, Note_on_c, 3, 59, 0
4, 3220, Note_on_c, 3, 64, 101
4, 3296, Note_on_c, 3, 64, 0
4, 3300, Note_on_c, 3, 66, 88
4, 3376, Note_on_c, 3, 66, 0
4, 3380, Note_on_c, 3, 67, 91
4, 3456, Note_on_c, 3, 67, 0
4, 3460, Note_on_c, 3, 66, 89
4, 3536, Note_on_c, 3, 66, 0
4, 3540, Note_on_c, 3, 67, 95
4, 3616, Note_on_c, 3, 67, 0
4, 3620, Note_on_c, 3, 69, 90
4, 3696, Note_on_c, 3, 69, 0
4, 3700, Note_on_c, 3, 67, 93
4, 3776, Note_on_c, 3, 67, 0
4, 3780, Note_on_c, 3, 69, 92
4, 3856, Note_on_c, 3, 69, 0
4, 3860, Note_on_c, 3, 71, 77
4, 3936, Note_on_c, 3, 71, 0
4, 3940, Note_on_c, 3, 69, 92
4, 4016, Note_on_c, 3, 69, 0
4, 4020, Note_on_c, 3, 71, 95
4, 4096, Note_on_c, 3, 71, 0
4, 4100, Note_on_c, 3, 73, 101
4, 4176, Note_on_c, 3, 73, 0
4, 4180, Note_on_c, 3, 71, 98
4, 4256, Note_on_c, 3, 71, 0
4, 4260, Note_on_c, 3, 73, 110
4, 4336, Note_on_c, 3, 73, 0
4, 4340, Note_on_c, 3, 74, 95
4, 4416, Note_on_c, 3, 74, 0
4, 4420, Note_on_c, 3, 76, 97
4, 4496, Note_on_c, 3, 76, 0
4, 4500, Note_on_c, 3, 74, 95
4, 4576, Note_on_c, 3, 74, 0
4, 4580, Note_on_c, 3, 69, 93
4, 4656, Note_on_c, 3, 69, 0
4, 4660, Note_on_c, 3, 71, 96
4, 4736, Note_on_c, 3, 71, 0
4, 4740, Note_on_c, 3, 73, 88
4, 4816, Note_on_c, 3, 73, 0
4, 4820, Note_on_c, 3, 74, 102
4, 4896, Note_on_c, 3, 74, 0
4, 4900, Note_on_c, 3, 73, 97
4, 4976, Note_on_c, 3, 73, 0
4, 4980, Note_on_c, 3, 74, 100
4, 5056, Note_on_c, 3, 74, 0
4, 5060, Note_on_c, 3, 76, 95
4, 5136, Note_on_c, 3, 76, 0
4, 5140, Note_on_c, 3, 74, 96
4, 5216, Note_on_c, 3, 74, 0
4, 5220, Note_on_c, 3, 76, 97
4, 5296, Note_on_c, 3, 76, 0
4, 5300, Note_on_c, 3, 78, 101
4, 5376, Note_on_c, 3, 78, 0
4, 5380, Note_on_c, 3, 76, 90
4, 5456, Note_on_c, 3, 76, 0
4, 5460, Note_on_c, 3, 78, 93
4, 5536, Note_on_c, 3, 78, 0
4, 5540, Note_on_c, 3, 79, 100
4, 5616, Note_on_c, 3, 79, 0
4, 5620, Note_on_c, 3, 76, 96
4, 5696, Note_on_c, 3, 76, 0
4, 5700, Note_on_c, 3, 78, 93
4, 5776, Note_on_c, 3, 78, 0
4, 5780, Note_on_c, 3, 79, 101
4, 5856, Note_on_c, 3, 79, 0
4, 5860, Note_on_c, 3, 78, 97
4, 5936, Note_on_c, 3, 78, 0
4, 5940, Note_on_c, 3, 79, 111
4, 6016, Note_on_c, 3, 79, 0
4, 6020, Note_on_c, 3, 74, 96
4, 6096, Note_on_c, 3, 74, 0
4, 6100, Note_on_c, 3, 72, 97
4, 6176, Note_on_c, 3, 72, 0
4, 6180, Note_on_c, 3, 74, 100
4, 6256, Note_on_c, 3, 74, 0
4, 6260, Note_on_c, 3, 71, 83
4, 6336, Note_on_c, 3, 71, 0
4, 6340, Note_on_c, 3, 67, 85
4, 6416, Note_on_c, 3, 67, 0
4, 6420, Note_on_c, 3, 66, 94
4, 6496, Note_on_c, 3, 66, 0
4, 6500, Note_on_c, 3, 67, 88
4, 6576, Note_on_c, 3, 67, 0
4, 6580, Note_on_c, 3, 71, 84
4, 6656, Note_on_c, 3, 71, 0
4, 6660, Note_on_c, 3, 74, 95
4, 6736, Note_on_c, 3, 74, 0
4, 6740, Note_on_c, 3, 77, 101
4, 6816, Note_on_c, 3, 77, 0
4, 6820, Note_on_c, 3, 76, 95
4, 6896, Note_on_c, 3, 76, 0
4, 6900, Note_on_c, 3, 77, 91
4, 6976, Note_on_c, 3, 77, 0
4, 6980, Note_on_c, 3, 74, 102
4, 7056, Note_on_c, 3, 74, 0
4, 7060, Note_on_c, 3, 71, 101
4, 7136, Note_on_c, 3, 71, 0
4, 7140, Note_on_c, 3, 74, 101
4, 7216, Note_on_c, 3, 74, 0
4, 7220, Note_on_c, 3, 76, 90
4, 7296, Note_on_c, 3, 76, 0
4, 7300, Note_on_c, 3, 74, 102
4, 7376, Note_on_c, 3, 74, 0
4, 7380, Note_on_c, 3, 76, 100
4, 7456, Note_on_c, 3, 76, 0
4, 7460, Note_on_c, 3, 72, 104
4, 7536, Note_on_c, 3, 72, 0
4, 7540, Note_on_c, 3, 71, 100
4, 7616, Note_on_c, 3, 71, 0
4, 7620, Note_on_c, 3, 72, 100
4, 7696, Note_on_c, 3, 72, 0
4, 7700, Note_on_c, 3, 67, 104
4, 7776, Note_on_c, 3, 67, 0
4, 7780, Note_on_c, 3, 64, 96
4, 7856, Note_on_c, 3, 64, 0
4, 7860, Note_on_c, 3, 62, 95
4, 7936, Note_on_c, 3, 62, 0
4, 7940, Note_on_c, 3, 64, 100
4, 8016, Note_on_c, 3, 64, 0
4, 8020, Note_on_c, 3, 67, 100
4, 8096, Note_on_c, 3, 67, 0
4, 8100, Note_on_c, 3, 72, 106
4, 8176, Note_on_c, 3, 72, 0
4, 8180, Note_on_c, 3, 76, 104
4, 8256, Note_on_c, 3, 76, 0
4, 8260, Note_on_c, 3, 74, 96
4, 8336, Note_on_c, 3, 74, 0
4, 8340, Note_on_c, 3, 76, 97
4, 8416, Note_on_c, 3, 76, 0
4, 8420, Note_on_c, 3, 72, 109
4, 8496, Note_on_c, 3, 72, 0
4, 8500, Note_on_c, 3, 69, 92
4, 8576, Note_on_c, 3, 69, 0
4, 8580, Note_on_c, 3, 72, 101
4, 8656, Note_on_c, 3, 72, 0
4, 8660, Note_on_c, 3, 74, 93
4, 8736, Note_on_c, 3, 74, 0
4, 8740, Note_on_c, 3, 72, 96
4, 8816, Note_on_c, 3, 72, 0
4, 8820, Note_on_c, 3, 74, 97
4, 8896, Note_on_c, 3, 74, 0
4, 8900, Note_on_c, 3, 69, 96
4, 8976, Note_on_c, 3, 69, 0
4, 8980, Note_on_c, 3, 67, 88
4, 9056, Note_on_c, 3, 67, 0
4, 9060, Note_on_c, 3, 69, 93
4, 9136, Note_on_c, 3, 69, 0
4, 9140, Note_on_c, 3, 66, 86
4, 9216, Note_on_c, 3, 66, 0
4, 9220, Note_on_c, 3, 62, 98
4, 9296, Note_on_c, 3, 62, 0
4, 9300, Note_on_c, 3, 61, 92
4, 9376, Note_on_c, 3, 61, 0
4, 9380, Note_on_c, 3, 62, 100
4, 9456, Note_on_c, 3, 62, 0
4, 9460, Note_on_c, 3, 66, 86
4, 9536, Note_on_c, 3, 66, 0
4, 9540, Note_on_c, 3, 69, 81
4, 9616, Note_on_c, 3, 69, 0
4, 9620, Note_on_c, 3, 72, 100
4, 9696, Note_on_c, 3, 72, 0
4, 9700, Note_on_c, 3, 71, 84
4, 9776, Note_on_c, 3, 71, 0
4, 9780, Note_on_c, 3, 72, 100
4, 9856, Note_on_c, 3, 72, 0
4, 9860, Note_on_c, 3, 69, 90
4, 9936, Note_on_c, 3, 69, 0
4, 9940, Note_on_c, 3, 66, 90
4, 10016, Note_on_c, 3, 66, 0
4, 10020, Note_on_c, 3, 69, 90
4, 10096, Note_on_c, 3, 69, 0
4, 10100, Note_on_c, 3, 71, 96
4, 10176, Note_on_c, 3, 71, 0
4, 10180, Note_on_c, 3, 69, 73
4, 10256, Note_on_c, 3, 69, 0
4, 10260, Note_on_c, 3, 71, 97
4, 10336, Note_on_c, 3, 71, 0
4, 10340, Note_on_c, 3, 67, 93
4, 10416, Note_on_c, 3, 67, 0
4, 10420, Note_on_c, 3, 66, 93
4, 10496, Note_on_c, 3, 66, 0
4, 10500, Note_on_c, 3, 67, 98
4, 10576, Note_on_c, 3, 67, 0
4, 10580, Note_on_c, 3, 62, 92
4, 10656, Note_on_c, 3, 62, 0
4, 10660, Note_on_c, 3, 59, 93
4, 10736, Note_on_c, 3, 59, 0
4, 10740, Note_on_c, 3, 57, 88
4, 10816, Note_on_c, 3, 57, 0
4, 10820, Note_on_c, 3, 59, 93
4, 10896, Note_on_c, 3, 59, 0
4, 10900, Note_on_c, 3, 62, 92
4, 10976, Note_on_c, 3, 62, 0
4, 10980, Note_on_c, 3, 67, 95
4, 11056, Note_on_c, 3, 67, 0
4, 11060, Note_on_c, 3, 71, 98
4, 11136, Note_on_c, 3, 71, 0
4, 11140, Note_on_c, 3, 67, 88
4, 11216, Note_on_c, 3, 67, 0
4, 11220, Note_on_c, 3, 66, 93
4, 11296, Note_on_c, 3, 66, 0
4, 11300, Note_on_c, 3, 67, 92
4, 11376, Note_on_c, 3, 67, 0
4, 11380, Note_on_c, 3, 71, 90
4, 11456, Note_on_c, 3, 71, 0
4, 11460, Note_on_c, 3, 74, 95
4, 11536, Note_on_c, 3, 74, 0
4, 11540, Note_on_c, 3, 43, 98
4, 11616, Note_on_c, 3, 43, 0
4, 11620, Note_on_c, 3, 45, 90
4, 11696, Note_on_c, 3, 45, 0
4, 11700, Note_on_c, 3, 43, 102
4, 11776, Note_on_c, 3, 43, 0
4, 11780, Note_on_c, 3, 38, 90
4, 11856, Note_on_c, 3, 38, 0
4, 11860, Note_on_c, 3, 40, 91
4, 11936, Note_on_c, 3, 40, 0
4, 11940, Note_on_c, 3, 42, 82
4, 12016, Note_on_c, 3, 42, 0
4, 12020, Note_on_c, 3, 43, 93
4, 12096, Note_on_c, 3, 43, 0
4, 12100, Note_on_c, 3, 42, 75
4, 12176, Note_on_c, 3, 42, 0
4, 12180, Note_on_c, 3, 43, 85
4, 12256, Note_on_c, 3, 43, 0
4, 12260, Note_on_c, 3, 45, 100
4, 12336, Note_on_c, 3, 45, 0
4, 12340, Note_on_c, 3, 43, 55
4, 12416, Note_on_c, 3, 43, 0
4, 12420, Note_on_c, 3, 45, 97
4, 12496, Note_on_c, 3, 45, 0
4, 12500, Note_on_c, 3, 47, 97
4, 12576, Note_on_c, 3, 47, 0
4, 12580, Note_on_c, 3, 45, 62
4, 12656, Note_on_c, 3, 45, 0
4, 12660, Note_on_c, 3, 47, 97
4, 12736, Note_on_c, 3, 47, 0
4, 12740, Note_on_c, 3, 48, 96
4, 12816, Note_on_c, 3, 48, 0
4, 12820, Note_on_c, 3, 47, 82
4, 12896, Note_on_c, 3, 47, 0
4, 12900, Note_on_c, 3, 49, 86
4, 12976, Note_on_c, 3, 49, 0
4, 12980, Note_on_c, 3, 50, 93
4, 13056, Note_on_c, 3, 50, 0
4, 13060, Note_on_c, 3, 52, 93
4, 13136, Note_on_c, 3, 52, 0
4, 13140, Note_on_c, 3, 50, 90
4, 13216, Note_on_c, 3, 50, 0
4, 13220, Note_on_c, 3, 45, 76
4, 13296, Note_on_c, 3, 45, 0
4, 13300, Note_on_c, 3, 47, 86
4, 13376, Note_on_c, 3, 47, 0
4, 13380, Note_on_c, 3, 49, 85
4, 13456, Note_on_c, 3, 49, 0
4, 13460, Note_on_c, 3, 50, 92
4, 13536, Note_on_c, 3, 50, 0
4, 13540, Note_on_c, 3, 49, 79
4, 13616, Note_on_c, 3, 49, 0
4, 13620, Note_on_c, 3, 50, 90
4, 13696, Note_on_c, 3, 50, 0
4, 13700, Note_on_c, 3, 52, 102
4, 13776, Note_on_c, 3, 52, 0
4, 13780, Note_on_c, 3, 50, 72
4, 13856, Note_on_c, 3, 50, 0
4, 13860, Note_on_c, 3, 52, 96
4, 13936, Note_on_c, 3, 52, 0
4, 13940, Note_on_c, 3, 54, 93
4, 14016, Note_on_c, 3, 54, 0
4, 14020, Note_on_c, 3, 52, 84
4, 14096, Note_on_c, 3, 52, 0
4, 14100, Note_on_c, 3, 54, 93
4, 14176, Note_on_c, 3, 54, 0
4, 14180, Note_on_c, 3, 55, 89
4, 14256, Note_on_c, 3, 55, 0
4, 14260, Note_on_c, 3, 52, 86
4, 14336, Note_on_c, 3, 52, 0
4, 14340, Note_on_c, 3, 54, 90
4, 14416, Note_on_c, 3, 54, 0
4, 14420, Note_on_c, 3, 55, 91
4, 14496, Note_on_c, 3, 55, 0
4, 14500, Note_on_c, 3, 57, 100
4, 14576, Note_on_c, 3, 57, 0
4, 14580, Note_on_c, 3, 55, 98
4, 14656, Note_on_c, 3, 55, 0
4, 14660, Note_on_c, 3, 47, 101
4, 14736, Note_on_c, 3, 47, 0
4, 14740, Note_on_c, 3, 52, 96
4, 14816, Note_on_c, 3, 52, 0
4, 14820, Note_on_c, 3, 54, 93
4, 14896, Note_on_c, 3, 54, 0
4, 14900, Note_on_c, 3, 55, 92
4, 14976, Note_on_c, 3, 55, 0
4, 14980, Note_on_c, 3, 54, 90
4, 15056, Note_on_c, 3, 54, 0
4, 15060, Note_on_c, 3, 55, 88
4, 15136, Note_on_c, 3, 55, 0
4, 15140, Note_on_c, 3, 57, 101
4, 15216, Note_on_c, 3, 57, 0
4, 15220, Note_on_c, 3, 55, 85
4, 15296, Note_on_c, 3, 55, 0
4, 15300, Note_on_c, 3, 57, 95
4, 15376, Note_on_c, 3, 57, 0
4, 15380, Note_on_c, 3, 59, 100
4, 15456, Note_on_c, 3, 59, 0
4, 15460, Note_on_c, 3, 57, 83
4, 15536, Note_on_c, 3, 57, 0
4, 15540, Note_on_c, 3, 59, 98
4, 15616, Note_on_c, 3, 59, 0
4, 15620, Note_on_c, 3, 61, 108
4, 15696, Note_on_c, 3, 61, 0
4, 15700, Note_on_c, 3, 57, 91
4, 15776, Note_on_c, 3, 57, 0
4, 15780, Note_on_c, 3, 59, 96
4, 15856, Note_on_c, 3, 59, 0
4, 15860, Note_on_c, 3, 61, 101
4, 15936, Note_on_c, 3, 61, 0
4, 15940, Note_on_c, 3, 62, 92
4, 16016, Note_on_c, 3, 62, 0
4, 16020, Note_on_c, 3, 61, 94
4, 16096, Note_on_c, 3, 61, 0
4, 16100, Note_on_c, 3, 52, 95
4, 16176, Note_on_c, 3, 52, 0
4, 16180, Note_on_c, 3, 57, 95
4, 16256, Note_on_c, 3, 57, 0
4, 16260, Note_on_c, 3, 59, 98
4, 16336, Note_on_c, 3, 59, 0
4, 16340, Note_on_c, 3, 61, 94
4, 16416, Note_on_c, 3, 61, 0
4, 16420, Note_on_c, 3, 59, 89
4, 16496, Note_on_c, 3, 59, 0
4, 16500, Note_on_c, 3, 61, 85
4, 16576, Note_on_c, 3, 61, 0
4, 16580, Note_on_c, 3, 62, 97
4, 16656, Note_on_c, 3, 62, 0
4, 16660, Note_on_c, 3, 61, 93
4, 16736, Note_on_c, 3, 61, 0
4, 16740, Note_on_c, 3, 62, 90
4, 16816, Note_on_c, 3, 62, 0
4, 16820, Note_on_c, 3, 64, 96
4, 16896, Note_on_c, 3, 64, 0
4, 16900, Note_on_c, 3, 62, 84
4, 16976, Note_on_c, 3, 62, 0
4, 16980, Note_on_c, 3, 64, 89
4, 17056, Note_on_c, 3, 64, 0
4, 17060, Note_on_c, 3, 66, 89
4, 17136, Note_on_c, 3, 66, 0
4, 17140, Note_on_c, 3, 62, 88
4, 17216, Note_on_c, 3, 62, 0
4, 17220, Note_on_c, 3, 64, 92
4, 17296, Note_on_c, 3, 64, 0
4, 17300, Note_on_c, 3, 66, 94
4, 17376, Note_on_c, 3, 66, 0
4, 17380, Note_on_c, 3, 64, 85
4, 17456, Note_on_c, 3, 64, 0
4, 17460, Note_on_c, 3, 66, 92
4, 17536, Note_on_c, 3, 66, 0
4, 17540, Note_on_c, 3, 69, 97
4, 17616, Note_on_c, 3, 69, 0
4, 17620, Note_on_c, 3, 67, 93
4, 17696, Note_on_c, 3, 67, 0
4, 17700, Note_on_c, 3, 69, 97
4, 17776, Note_on_c, 3, 69, 0
4, 17780, Note_on_c, 3, 62, 97
4, 17856, Note_on_c, 3, 62, 0
4, 17860, Note_on_c, 3, 61, 90
4, 17936, Note_on_c, 3, 61, 0
4, 17940, Note_on_c, 3, 62, 84
4, 18016, Note_on_c, 3, 62, 0
4, 18020, Note_on_c, 3, 66, 92
4, 18096, Note_on_c, 3, 66, 0
4, 18100, Note_on_c, 3, 69, 89
4, 18176, Note_on_c, 3, 69, 0
4, 18180, Note_on_c, 3, 71, 91
4, 18256, Note_on_c, 3, 71, 0
4, 18260, Note_on_c, 3, 72, 100
4, 18336, Note_on_c, 3, 72, 0
4, 18340, Note_on_c, 3, 71, 90
4, 18416, Note_on_c, 3, 71, 0
4, 18420, Note_on_c, 3, 72, 98
4, 18496, Note_on_c, 3, 72, 0
4, 18500, Note_on_c, 3, 69, 89
4, 18576, Note_on_c, 3, 69, 0
4, 18580, Note_on_c, 3, 66, 96
4, 18656, Note_on_c, 3, 66, 0
4, 18660, Note_on_c, 3, 69, 100
4, 18736, Note_on_c, 3, 69, 0
4, 18740, Note_on_c, 3, 67, 107
4, 18816, Note_on_c, 3, 67, 0
4, 18820, Note_on_c, 3, 66, 93
4, 18896, Note_on_c, 3, 66, 0
4, 18900, Note_on_c, 3, 67, 93
4, 18976, Note_on_c, 3, 67, 0
4, 18980, Note_on_c, 3, 71, 96
4, 19056, Note_on_c, 3, 71, 0
4, 19060, Note_on_c, 3, 69, 95
4, 19136, Note_on_c, 3, 69, 0
4, 19140, Note_on_c, 3, 71, 95
4, 19216, Note_on_c, 3, 71, 0
4, 19220, Note_on_c, 3, 64, 95
4, 19296, Note_on_c, 3, 64, 0
4, 19300, Note_on_c, 3, 63, 92
4, 19376, Note_on_c, 3, 63, 0
4, 19380, Note_on_c, 3, 64, 98
4, 19456, Note_on_c, 3, 64, 0
4, 19460, Note_on_c, 3, 67, 81
4, 19536, Note_on_c, 3, 67, 0
4, 19540, Note_on_c, 3, 71, 95
4, 19616, Note_on_c, 3, 71, 0
4, 19620, Note_on_c, 3, 73, 97
4, 19696, Note_on_c, 3, 73, 0
4, 19700, Note_on_c, 3, 74, 97
4, 19776, Note_on_c, 3, 74, 0
4, 19780, Note_on_c, 3, 73, 90
4, 19856, Note_on_c, 3, 73, 0
4, 19860, Note_on_c, 3, 74, 91
4, 19936, Note_on_c, 3, 74, 0
4, 19940, Note_on_c, 3, 71, 95
4, 20016, Note_on_c, 3, 71, 0
4, 20020, Note_on_c, 3, 67, 83
4, 20096, Note_on_c, 3, 67, 0
4, 20100, Note_on_c, 3, 71, 95
4, 20176, Note_on_c, 3, 71, 0
4, 20180, Note_on_c, 3, 73, 93
4, 20256, Note_on_c, 3, 73, 0
4, 20260, Note_on_c, 3, 71, 92
4, 20336, Note_on_c, 3, 71, 0
4, 20340, Note_on_c, 3, 73, 86
4, 20416, Note_on_c, 3, 73, 0
4, 20420, Note_on_c, 3, 76, 97
4, 20496, Note_on_c, 3, 76, 0
4, 20500, Note_on_c, 3, 74, 89
4, 20576, Note_on_c, 3, 74, 0
4, 20580, Note_on_c, 3, 76, 101
4, 20656, Note_on_c, 3, 76, 0
4, 20660, Note_on_c, 3, 69, 96
4, 20736, Note_on_c, 3, 69, 0
4, 20740, Note_on_c, 3, 68, 89
4, 20816, Note_on_c, 3, 68, 0
4, 20820, Note_on_c, 3, 69, 90
4, 20896, Note_on_c, 3, 69, 0
4, 20900, Note_on_c, 3, 73, 90
4, 20976, Note_on_c, 3, 73, 0
4, 20980, Note_on_c, 3, 76, 95
4, 21056, Note_on_c, 3, 76, 0
4, 21060, Note_on_c, 3, 78, 89
4, 21136, Note_on_c, 3, 78, 0
4, 21140, Note_on_c, 3, 79, 97
4, 21216, Note_on_c, 3, 79, 0
4, 21220, Note_on_c, 3, 78, 89
4, 21296, Note_on_c, 3, 78, 0
4, 21300, Note_on_c, 3, 79, 95
4, 21376, Note_on_c, 3, 79, 0
4, 21380, Note_on_c, 3, 76, 92
4, 21456, Note_on_c, 3, 76, 0
4, 21460, Note_on_c, 3, 73, 82
4, 21536, Note_on_c, 3, 73, 0
4, 21540, Note_on_c, 3, 76, 92
4, 21616, Note_on_c, 3, 76, 0
4, 21620, Note_on_c, 3, 78, 89
4, 21696, Note_on_c, 3, 78, 0
4, 21700, Note_on_c, 3, 76, 86
4, 21776, Note_on_c, 3, 76, 0
4, 21780, Note_on_c, 3, 78, 86
4, 21856, Note_on_c, 3, 78, 0
4, 21860, Note_on_c, 3, 81, 96
4, 21936, Note_on_c, 3, 81, 0
4, 21940, Note_on_c, 3, 79, 91
4, 22016, Note_on_c, 3, 79, 0
4, 22020, Note_on_c, 3, 81, 100
4, 22096, Note_on_c, 3, 81, 0
4, 22100, Note_on_c, 3, 74, 90
4, 22176, Note_on_c, 3, 74, 0
4, 22180, Note_on_c, 3, 73, 81
4, 22256, Note_on_c, 3, 73, 0
4, 22260, Note_on_c, 3, 74, 89
4, 22336, Note_on_c, 3, 74, 0
4, 22340, Note_on_c, 3, 78, 92
4, 22416, Note_on_c, 3, 78, 0
4, 22420, Note_on_c, 3, 81, 96
4, 22496, Note_on_c, 3, 81, 0
4, 22500, Note_on_c, 3, 85, 99
4, 22576, Note_on_c, 3, 85, 0
4, 22580, Note_on_c, 3, 86, 104
4, 23056, Note_on_c, 3, 86, 0
4, 23060, Note_on_c, 3, 81, 100
4, 23136, Note_on_c, 3, 81, 0
4, 23140, Note_on_c, 3, 79, 93
4, 23216, Note_on_c, 3, 79, 0
4, 23220, Note_on_c, 3, 81, 97
4, 23296, Note_on_c, 3, 81, 0
4, 23300, Note_on_c, 3, 86, 93
4, 23376, Note_on_c, 3, 86, 0
4, 23380, Note_on_c, 3, 84, 85
4, 23456, Note_on_c, 3, 84, 0
4, 23460, Note_on_c, 3, 83, 100
4, 23536, Note_on_c, 3, 83, 0
4, 23540, Note_on_c, 3, 81, 100
4, 23616, Note_on_c, 3, 81, 0
4, 23620, Note_on_c, 3, 83, 90
4, 23696, Note_on_c, 3, 83, 0
4, 23700, Note_on_c, 3, 81, 97
4, 23776, Note_on_c, 3, 81, 0
4, 23780, Note_on_c, 3, 79, 95
4, 23856, Note_on_c, 3, 79, 0
4, 23860, Note_on_c, 3, 81, 89
4, 23936, Note_on_c, 3, 81, 0
4, 23940, Note_on_c, 3, 79, 81
4, 24016, Note_on_c, 3, 79, 0
4, 24020, Note_on_c, 3, 78, 93
4, 24096, Note_on_c, 3, 78, 0
4, 24100, Note_on_c, 3, 79, 96
4, 24176, Note_on_c, 3, 79, 0
4, 24180, Note_on_c, 3, 78, 86
4, 24256, Note_on_c, 3, 78, 0
4, 24260, Note_on_c, 3, 76, 97
4, 24336, Note_on_c, 3, 76, 0
4, 24340, Note_on_c, 3, 78, 96
4, 24416, Note_on_c, 3, 78, 0
4, 24420, Note_on_c, 3, 76, 91
4, 24496, Note_on_c, 3, 76, 0
4, 24500, Note_on_c, 3, 74, 100
4, 24576, Note_on_c, 3, 74, 0
4, 24580, Note_on_c, 3, 72, 102
4, 24656, Note_on_c, 3, 72, 0
4, 24660, Note_on_c, 3, 74, 100
4, 24736, Note_on_c, 3, 74, 0
4, 24740, Note_on_c, 3, 79, 102
4, 24816, Note_on_c, 3, 79, 0
4, 24820, Note_on_c, 3, 78, 97
4, 24896, Note_on_c, 3, 78, 0
4, 24900, Note_on_c, 3, 76, 93
4, 24976, Note_on_c, 3, 76, 0
4, 24980, Note_on_c, 3, 74, 96
4, 25056, Note_on_c, 3, 74, 0
4, 25060, Note_on_c, 3, 76, 97
4, 25136, Note_on_c, 3, 76, 0
4, 25140, Note_on_c, 3, 74, 98
4, 25216, Note_on_c, 3, 74, 0
4, 25220, Note_on_c, 3, 72, 100
4, 25296, Note_on_c, 3, 72, 0
4, 25300, Note_on_c, 3, 74, 89
4, 25376, Note_on_c, 3, 74, 0
4, 25380, Note_on_c, 3, 72, 97
4, 25456, Note_on_c, 3, 72, 0
4, 25460, Note_on_c, 3, 71, 98
4, 25536, Note_on_c, 3, 71, 0
4, 25540, Note_on_c, 3, 72, 93
4, 25616, Note_on_c, 3, 72, 0
4, 25620, Note_on_c, 3, 71, 91
4, 25696, Note_on_c, 3, 71, 0
4, 25700, Note_on_c, 3, 69, 86
4, 25776, Note_on_c, 3, 69, 0
4, 25780, Note_on_c, 3, 71, 89
4, 25856, Note_on_c, 3, 71, 0
4, 25860, Note_on_c, 3, 69, 86
4, 25936, Note_on_c, 3, 69, 0
4, 25940, Note_on_c, 3, 67, 102
4, 26016, Note_on_c, 3, 67, 0
4, 26020, Note_on_c, 3, 66, 93
4, 26096, Note_on_c, 3, 66, 0
4, 26100, Note_on_c, 3, 67, 98
4, 26176, Note_on_c, 3, 67, 0
4, 26180, Note_on_c, 3, 71, 98
4, 26256, Note_on_c, 3, 71, 0
4, 26260, Note_on_c, 3, 69, 84
4, 26336, Note_on_c, 3, 69, 0
4, 26340, Note_on_c, 3, 67, 96
4, 26416, Note_on_c, 3, 67, 0
4, 26420, Note_on_c, 3, 66, 92
4, 26496, Note_on_c, 3, 66, 0
4, 26500, Note_on_c, 3, 67, 91
4, 26576, Note_on_c, 3, 67, 0
4, 26580, Note_on_c, 3, 66, 89
4, 26656, Note_on_c, 3, 66, 0
4, 26660, Note_on_c, 3, 64, 85
4, 26736, Note_on_c, 3, 64, 0
4, 26740, Note_on_c, 3, 66, 85
4, 26816, Note_on_c, 3, 66, 0
4, 26820, Note_on_c, 3, 64, 89
4, 26896, Note_on_c, 3, 64, 0
4, 26900, Note_on_c, 3, 63, 97
4, 26976, Note_on_c, 3, 63, 0
4, 26980, Note_on_c, 3, 64, 100
4, 27056, Note_on_c, 3, 64, 0
4, 27060, Note_on_c, 3, 63, 86
4, 27136, Note_on_c, 3, 63, 0
4, 27140, Note_on_c, 3, 61, 97
4, 27216, Note_on_c, 3, 61, 0
4, 27220, Note_on_c, 3, 63, 101
4, 27296, Note_on_c, 3, 63, 0
4, 27300, Note_on_c, 3, 61, 99
4, 27376, Note_on_c, 3, 61, 0
4, 27380, Note_on_c, 3, 59, 90
4, 27456, Note_on_c, 3, 59, 0
4, 27460, Note_on_c, 3, 58, 93
4, 27536, Note_on_c, 3, 58, 0
4, 27540, Note_on_c, 3, 59, 93
4, 27616, Note_on_c, 3, 59, 0
4, 27620, Note_on_c, 3, 64, 96
4, 27696, Note_on_c, 3, 64, 0
4, 27700, Note_on_c, 3, 63, 97
4, 27776, Note_on_c, 3, 63, 0
4, 27780, Note_on_c, 3, 61, 99
4, 27856, Note_on_c, 3, 61, 0
4, 27860, Note_on_c, 3, 59, 70
4, 27936, Note_on_c, 3, 59, 0
4, 27940, Note_on_c, 3, 60, 101
4, 28016, Note_on_c, 3, 60, 0
4, 28020, Note_on_c, 3, 59, 92
4, 28096, Note_on_c, 3, 59, 0
4, 28100, Note_on_c, 3, 57, 93
4, 28176, Note_on_c, 3, 57, 0
4, 28180, Note_on_c, 3, 59, 96
4, 28256, Note_on_c, 3, 59, 0
4, 28260, Note_on_c, 3, 57, 91
4, 28336, Note_on_c, 3, 57, 0
4, 28340, Note_on_c, 3, 55, 88
4, 28416, Note_on_c, 3, 55, 0
4, 28420, Note_on_c, 3, 57, 97
4, 28496, Note_on_c, 3, 57, 0
4, 28500, Note_on_c, 3, 55, 88
4, 28576, Note_on_c, 3, 55, 0
4, 28580, Note_on_c, 3, 54, 90
4, 28656, Note_on_c, 3, 54, 0
4, 28660, Note_on_c, 3, 55, 93
4, 28736, Note_on_c, 3, 55, 0
4, 28740, Note_on_c, 3, 54, 96
4, 28816, Note_on_c, 3, 54, 0
4, 28820, Note_on_c, 3, 52, 89
4, 28896, Note_on_c, 3, 52, 0
4, 28900, Note_on_c, 3, 51, 90
4, 28976, Note_on_c, 3, 51, 0
4, 28980, Note_on_c, 3, 52, 92
4, 29056, Note_on_c, 3, 52, 0
4, 29060, Note_on_c, 3, 59, 98
4, 29136, Note_on_c, 3, 59, 0
4, 29140, Note_on_c, 3, 57, 88
4, 29216, Note_on_c, 3, 57, 0
4, 29220, Note_on_c, 3, 59, 98
4, 29296, Note_on_c, 3, 59, 0
4, 29300, Note_on_c, 3, 55, 95
4, 29376, Note_on_c, 3, 55, 0
4, 29380, Note_on_c, 3, 54, 93
4, 29456, Note_on_c, 3, 54, 0
4, 29460, Note_on_c, 3, 55, 95
4, 29536, Note_on_c, 3, 55, 0
4, 29540, Note_on_c, 3, 59, 96
4, 29616, Note_on_c, 3, 59, 0
4, 29620, Note_on_c, 3, 64, 96
4, 29696, Note_on_c, 3, 64, 0
4, 29700, Note_on_c, 3, 66, 89
4, 29776, Note_on_c, 3, 66, 0
4, 29780, Note_on_c, 3, 67, 98
4, 29856, Note_on_c, 3, 67, 0
4, 29860, Note_on_c, 3, 66, 96
4, 29936, Note_on_c, 3, 66, 0
4, 29940, Note_on_c, 3, 67, 98
4, 30016, Note_on_c, 3, 67, 0
4, 30020, Note_on_c, 3, 64, 101
4, 30096, Note_on_c, 3, 64, 0
4, 30100, Note_on_c, 3, 63, 97
4, 30176, Note_on_c, 3, 63, 0
4, 30180, Note_on_c, 3, 64, 107
4, 30256, Note_on_c, 3, 64, 0
4, 30260, Note_on_c, 3, 60, 95
4, 30336, Note_on_c, 3, 60, 0
4, 30340, Note_on_c, 3, 59, 89
4, 30416, Note_on_c, 3, 59, 0
4, 30420, Note_on_c, 3, 60, 90
4, 30496, Note_on_c, 3, 60, 0
4, 30500, Note_on_c, 3, 64, 98
4, 30576, Note_on_c, 3, 64, 0
4, 30580, Note_on_c, 3, 62, 93
4, 30656, Note_on_c, 3, 62, 0
4, 30660, Note_on_c, 3, 64, 101
4, 30736, Note_on_c, 3, 64, 0
4, 30740, Note_on_c, 3, 57, 95
4, 30816, Note_on_c, 3, 57, 0
4, 30820, Note_on_c, 3, 56, 88
4, 30896, Note_on_c, 3, 56, 0
4, 30900, Note_on_c, 3, 57, 100
4, 30976, Note_on_c, 3, 57, 0
4, 30980, Note_on_c, 3, 60, 91
4, 31056, Note_on_c, 3, 60, 0
4, 31060, Note_on_c, 3, 65, 98
4, 31136, Note_on_c, 3, 65, 0
4, 31140, Note_on_c, 3, 69, 100
4, 31216, Note_on_c, 3, 69, 0
4, 31220, Note_on_c, 3, 72, 107
4, 31296, Note_on_c, 3, 72, 0
4, 31300, Note_on_c, 3, 71, 95
4, 31376, Note_on_c, 3, 71, 0
4, 31380, Note_on_c, 3, 72, 104
4, 31456, Note_on_c, 3, 72, 0
4, 31460, Note_on_c, 3, 69, 91
4, 31536, Note_on_c, 3, 69, 0
4, 31540, Note_on_c, 3, 65, 102
4, 31616, Note_on_c, 3, 65, 0
4, 31620, Note_on_c, 3, 69, 101
4, 31696, Note_on_c, 3, 69, 0
4, 31700, Note_on_c, 3, 63, 96
4, 31776, Note_on_c, 3, 63, 0
4, 31780, Note_on_c, 3, 61, 97
4, 31856, Note_on_c, 3, 61, 0
4, 31860, Note_on_c, 3, 63, 110
4, 31936, Note_on_c, 3, 63, 0
4, 31940, Note_on_c, 3, 66, 99
4, 32016, Note_on_c, 3, 66, 0
4, 32020, Note_on_c, 3, 64, 100
4, 32096, Note_on_c, 3, 64, 0
4, 32100, Note_on_c, 3, 66, 101
4, 32176, Note_on_c, 3, 66, 0
4, 32180, Note_on_c, 3, 59, 98
4, 32256, Note_on_c, 3, 59, 0
4, 32260, Note_on_c, 3, 58, 97
4, 32336, Note_on_c, 3, 58, 0
4, 32340, Note_on_c, 3, 59, 102
4, 32416, Note_on_c, 3, 59, 0
4, 32420, Note_on_c, 3, 63, 106
4, 32496, Note_on_c, 3, 63, 0
4, 32500, Note_on_c, 3, 66, 99
4, 32576, Note_on_c, 3, 66, 0
4, 32580, Note_on_c, 3, 67, 96
4, 32656, Note_on_c, 3, 67, 0
4, 32660, Note_on_c, 3, 69, 98
4, 32736, Note_on_c, 3, 69, 0
4, 32740, Note_on_c, 3, 67, 90
4, 32816, Note_on_c, 3, 67, 0
4, 32820, Note_on_c, 3, 69, 93
4, 32896, Note_on_c, 3, 69, 0
4, 32900, Note_on_c, 3, 66, 101
4, 32976, Note_on_c, 3, 66, 0
4, 32980, Note_on_c, 3, 63, 104
4, 33056, Note_on_c, 3, 63, 0
4, 33060, Note_on_c, 3, 66, 106
4, 33136, Note_on_c, 3, 66, 0
4, 33140, Note_on_c, 3, 67, 104
4, 33216, Note_on_c, 3, 67, 0
4, 33220, Note_on_c, 3, 66, 96
4, 33296, Note_on_c, 3, 66, 0
4, 33300, Note_on_c, 3, 67, 97
4, 33376, Note_on_c, 3, 67, 0
4, 33380, Note_on_c, 3, 71, 107
4, 33456, Note_on_c, 3, 71, 0
4, 33460, Note_on_c, 3, 69, 90
4, 33536, Note_on_c, 3, 69, 0
4, 33540, Note_on_c, 3, 71, 106
4, 33616, Note_on_c, 3, 71, 0
4, 33620, Note_on_c, 3, 64, 98
4, 33696, Note_on_c, 3, 64, 0
4, 33700, Note_on_c, 3, 63, 102
4, 33776, Note_on_c, 3, 63, 0
4, 33780, Note_on_c, 3, 64, 102
4, 33856, Note_on_c, 3, 64, 0
4, 33860, Note_on_c, 3, 67, 96
4, 33936, Note_on_c, 3, 67, 0
4, 33940, Note_on_c, 3, 71, 97
4, 34016, Note_on_c, 3, 71, 0
4, 34020, Note_on_c, 3, 75, 108
4, 34096, Note_on_c, 3, 75, 0
4, 34100, Note_on_c, 3, 76, 102
4, 34176, Note_on_c, 3, 76, 0
4, 34180, Note_on_c, 3, 72, 102
4, 34256, Note_on_c, 3, 72, 0
4, 34260, Note_on_c, 3, 71, 93
4, 34336, Note_on_c, 3, 71, 0
4, 34340, Note_on_c, 3, 69, 96
4, 34416, Note_on_c, 3, 69, 0
4, 34420, Note_on_c, 3, 67, 90
4, 34496, Note_on_c, 3, 67, 0
4, 34500, Note_on_c, 3, 66, 108
4, 34576, Note_on_c, 3, 66, 0
4, 34580, Note_on_c, 3, 60, 102
4, 34656, Note_on_c, 3, 60, 0
4, 34660, Note_on_c, 3, 59, 92
4, 34736, Note_on_c, 3, 59, 0
4, 34740, Note_on_c, 3, 60, 98
4, 34816, Note_on_c, 3, 60, 0
4, 34820, Note_on_c, 3, 65, 106
4, 34896, Note_on_c, 3, 65, 0
4, 34900, Note_on_c, 3, 64, 95
4, 34976, Note_on_c, 3, 64, 0
4, 34980, Note_on_c, 3, 62, 89
4, 35056, Note_on_c, 3, 62, 0
4, 35060, Note_on_c, 3, 60, 91
4, 35136, Note_on_c, 3, 60, 0
4, 35140, Note_on_c, 3, 62, 88
4, 35216, Note_on_c, 3, 62, 0
4, 35220, Note_on_c, 3, 60, 98
4, 35296, Note_on_c, 3, 60, 0
4, 35300, Note_on_c, 3, 59, 89
4, 35376, Note_on_c, 3, 59, 0
4, 35380, Note_on_c, 3, 60, 96
4, 35456, Note_on_c, 3, 60, 0
4, 35460, Note_on_c, 3, 59, 90
4, 35536, Note_on_c, 3, 59, 0
4, 35540, Note_on_c, 3, 57, 81
4, 35616, Note_on_c, 3, 57, 0
4, 35620, Note_on_c, 3, 59, 92
4, 35696, Note_on_c, 3, 59, 0
4, 35700, Note_on_c, 3, 57, 82
4, 35776, Note_on_c, 3, 57, 0
4, 35780, Note_on_c, 3, 55, 81
4, 35856, Note_on_c, 3, 55, 0
4, 35860, Note_on_c, 3, 57, 91
4, 35936, Note_on_c, 3, 57, 0
4, 35940, Note_on_c, 3, 54, 102
4, 36016, Note_on_c, 3, 54, 0
4, 36020, Note_on_c, 3, 59, 97
4, 36096, Note_on_c, 3, 59, 0
4, 36100, Note_on_c, 3, 57, 97
4, 36176, Note_on_c, 3, 57, 0
4, 36180, Note_on_c, 3, 59, 91
4, 36256, Note_on_c, 3, 59, 0
4, 36260, Note_on_c, 3, 64, 106
4, 36336, Note_on_c, 3, 64, 0
4, 36340, Note_on_c, 3, 62, 86
4, 36416, Note_on_c, 3, 62, 0
4, 36420, Note_on_c, 3, 60, 95
4, 36496, Note_on_c, 3, 60, 0
4, 36500, Note_on_c, 3, 59, 92
4, 36576, Note_on_c, 3, 59, 0
4, 36580, Note_on_c, 3, 60, 93
4, 36656, Note_on_c, 3, 60, 0
4, 36660, Note_on_c, 3, 59, 92
4, 36736, Note_on_c, 3, 59, 0
4, 36740, Note_on_c, 3, 57, 93
4, 36816, Note_on_c, 3, 57, 0
4, 36820, Note_on_c, 3, 59, 97
4, 36896, Note_on_c, 3, 59, 0
4, 36900, Note_on_c, 3, 57, 90
4, 36976, Note_on_c, 3, 57, 0
4, 36980, Note_on_c, 3, 55, 89
4, 37056, Note_on_c, 3, 55, 0
4, 37060, Note_on_c, 3, 57, 100
4, 37136, Note_on_c, 3, 57, 0
4, 37140, Note_on_c, 3, 55, 89
4, 37216, Note_on_c, 3, 55, 0
4, 37220, Note_on_c, 3, 54, 99
4, 37296, Note_on_c, 3, 54, 0
4, 37300, Note_on_c, 3, 55, 90
4, 37376, Note_on_c, 3, 55, 0
4, 37380, Note_on_c, 3, 52, 101
4, 37456, Note_on_c, 3, 52, 0
4, 37460, Note_on_c, 3, 57, 104
4, 37536, Note_on_c, 3, 57, 0
4, 37540, Note_on_c, 3, 55, 95
4, 37616, Note_on_c, 3, 55, 0
4, 37620, Note_on_c, 3, 57, 92
4, 37696, Note_on_c, 3, 57, 0
4, 37700, Note_on_c, 3, 62, 100
4, 37776, Note_on_c, 3, 62, 0
4, 37780, Note_on_c, 3, 60, 92
4, 37856, Note_on_c, 3, 60, 0
4, 37860, Note_on_c, 3, 59, 95
4, 37936, Note_on_c, 3, 59, 0
4, 37940, Note_on_c, 3, 57, 89
4, 38016, Note_on_c, 3, 57, 0
4, 38020, Note_on_c, 3, 59, 95
4, 38096, Note_on_c, 3, 59, 0
4, 38100, Note_on_c, 3, 57, 86
4, 38176, Note_on_c, 3, 57, 0
4, 38180, Note_on_c, 3, 55, 85
4, 38256, Note_on_c, 3, 55, 0
4, 38260, Note_on_c, 3, 57, 95
4, 38336, Note_on_c, 3, 57, 0
4, 38340, Note_on_c, 3, 55, 76
4, 38416, Note_on_c, 3, 55, 0
4, 38420, Note_on_c, 3, 54, 102
4, 38496, Note_on_c, 3, 54, 0
4, 38500, Note_on_c, 3, 55, 92
4, 38576, Note_on_c, 3, 55, 0
4, 38580, Note_on_c, 3, 54, 94
4, 38656, Note_on_c, 3, 54, 0
4, 38660, Note_on_c, 3, 52, 93
4, 38736, Note_on_c, 3, 52, 0
4, 38740, Note_on_c, 3, 54, 94
4, 38816, Note_on_c, 3, 54, 0
4, 38820, Note_on_c, 3, 52, 93
4, 38896, Note_on_c, 3, 52, 0
4, 38900, Note_on_c, 3, 50, 85
4, 38976, Note_on_c, 3, 50, 0
4, 38980, Note_on_c, 3, 49, 88
4, 39056, Note_on_c, 3, 49, 0
4, 39060, Note_on_c, 3, 50, 82
4, 39136, Note_on_c, 3, 50, 0
4, 39140, Note_on_c, 3, 55, 95
4, 39216, Note_on_c, 3, 55, 0
4, 39220, Note_on_c, 3, 54, 85
4, 39296, Note_on_c, 3, 54, 0
4, 39300, Note_on_c, 3, 52, 93
4, 39376, Note_on_c, 3, 52, 0
4, 39380, Note_on_c, 3, 50, 89
4, 39456, Note_on_c, 3, 50, 0
4, 39460, Note_on_c, 3, 52, 97
4, 39536, Note_on_c, 3, 52, 0
4, 39540, Note_on_c, 3, 50, 90
4, 39616, Note_on_c, 3, 50, 0
4, 39620, Note_on_c, 3, 48, 91
4, 39696, Note_on_c, 3, 48, 0
4, 39700, Note_on_c, 3, 50, 91
4, 39776, Note_on_c, 3, 50, 0
4, 39780, Note_on_c, 3, 48, 93
4, 39856, Note_on_c, 3, 48, 0
4, 39860, Note_on_c, 3, 47, 96
4, 39936, Note_on_c, 3, 47, 0
4, 39940, Note_on_c, 3, 48, 95
4, 40016, Note_on_c, 3, 48, 0
4, 40020, Note_on_c, 3, 47, 89
4, 40096, Note_on_c, 3, 47, 0
4, 40100, Note_on_c, 3, 45, 82
4, 40176, Note_on_c, 3, 45, 0
4, 40180, Note_on_c, 3, 47, 89
4, 40256, Note_on_c, 3, 47, 0
4, 40260, Note_on_c, 3, 45, 88
4, 40336, Note_on_c, 3, 45, 0
4, 40340, Note_on_c, 3, 43, 86
4, 40416, Note_on_c, 3, 43, 0
4, 40420, Note_on_c, 3, 42, 93
4, 40496, Note_on_c, 3, 42, 0
4, 40500, Note_on_c, 3, 43, 82
4, 40576, Note_on_c, 3, 43, 0
4, 40580, Note_on_c, 3, 48, 91
4, 40656, Note_on_c, 3, 48, 0
4, 40660, Note_on_c, 3, 47, 91
4, 40736, Note_on_c, 3, 47, 0
4, 40740, Note_on_c, 3, 45, 85
4, 40816, Note_on_c, 3, 45, 0
4, 40820, Note_on_c, 3, 43, 84
4, 40896, Note_on_c, 3, 43, 0
4, 40900, Note_on_c, 3, 45, 86
4, 40976, Note_on_c, 3, 45, 0
4, 40980, Note_on_c, 3, 43, 88
4, 41056, Note_on_c, 3, 43, 0
4, 41060, Note_on_c, 3, 41, 92
4, 41136, Note_on_c, 3, 41, 0
4, 41140, Note_on_c, 3, 43, 90
4, 41216, Note_on_c, 3, 43, 0
4, 41220, Note_on_c, 3, 41, 90
4, 41296, Note_on_c, 3, 41, 0
4, 41300, Note_on_c, 3, 40, 100
4, 41376, Note_on_c, 3, 40, 0
4, 41380, Note_on_c, 3, 41, 107
4, 41456, Note_on_c, 3, 41, 0
4, 41460, Note_on_c, 3, 40, 106
4, 41536, Note_on_c, 3, 40, 0
4, 41540, Note_on_c, 3, 38, 101
4, 41616, Note_on_c, 3, 38, 0
4, 41620, Note_on_c, 3, 40, 102
4, 41696, Note_on_c, 3, 40, 0
4, 41700, Note_on_c, 3, 38, 104
4, 41776, Note_on_c, 3, 38, 0
4, 41780, Note_on_c, 3, 36, 127
4, 42016, Note_on_c, 3, 36, 0
4, 42020, Note_on_c, 3, 43, 109
4, 42096, Note_on_c, 3, 43, 0
4, 42100, Note_on_c, 3, 45, 101
4, 42176, Note_on_c, 3, 45, 0
4, 42180, Note_on_c, 3, 47, 107
4, 42256, Note_on_c, 3, 47, 0
4, 42260, Note_on_c, 3, 48, 111
4, 42336, Note_on_c, 3, 48, 0
4, 42340, Note_on_c, 3, 47, 107
4, 42416, Note_on_c, 3, 47, 0
4, 42420, Note_on_c, 3, 48, 98
4, 42496, Note_on_c, 3, 48, 0
4, 42500, Note_on_c, 3, 50, 104
4, 42576, Note_on_c, 3, 50, 0
4, 42580, Note_on_c, 3, 48, 96
4, 42656, Note_on_c, 3, 48, 0
4, 42660, Note_on_c, 3, 50, 107
4, 42736, Note_on_c, 3, 50, 0
4, 42740, Note_on_c, 3, 52, 107
4, 42816, Note_on_c, 3, 52, 0
4, 42820, Note_on_c, 3, 50, 91
4, 42896, Note_on_c, 3, 50, 0
4, 42900, Note_on_c, 3, 48, 97
4, 42976, Note_on_c, 3, 48, 0
4, 42980, Note_on_c, 3, 47, 98
4, 43056, Note_on_c, 3, 47, 0
4, 43060, Note_on_c, 3, 45, 90
4, 43136, Note_on_c, 3, 45, 0
4, 43140, Note_on_c, 3, 43, 90
4, 43216, Note_on_c, 3, 43, 0
4, 43220, Note_on_c, 3, 42, 104
4, 43296, Note_on_c, 3, 42, 0
4, 43300, Note_on_c, 3, 40, 93
4, 43376, Note_on_c, 3, 40, 0
4, 43380, Note_on_c, 3, 42, 102
4, 43456, Note_on_c, 3, 42, 0
4, 43460, Note_on_c, 3, 38, 91
4, 43536, Note_on_c, 3, 38, 0
4, 43540, Note_on_c, 3, 40, 102
4, 43616, Note_on_c, 3, 40, 0
4, 43620, Note_on_c, 3, 42, 89
4, 43696, Note_on_c, 3, 42, 0
4, 43700, Note_on_c, 3, 43, 102
4, 43776, Note_on_c, 3, 43, 0
4, 43780, Note_on_c, 3, 42, 90
4, 43856, Note_on_c, 3, 42, 0
4, 43860, Note_on_c, 3, 43, 86
4, 43936, Note_on_c, 3, 43, 0
4, 43940, Note_on_c, 3, 45, 100
4, 44016, Note_on_c, 3, 45, 0
4, 44020, Note_on_c, 3, 47, 101
4, 44096, Note_on_c, 3, 47, 0
4, 44100, Note_on_c, 3, 48, 96
4, 44176, Note_on_c, 3, 48, 0
4, 44180, Note_on_c, 3, 50, 97
4, 44256, Note_on_c, 3, 50, 0
4, 44260, Note_on_c, 3, 49, 101
4, 44336, Note_on_c, 3, 49, 0
4, 44340, Note_on_c, 3, 50, 96
4, 44416, Note_on_c, 3, 50, 0
4, 44420, Note_on_c, 3, 52, 98
4, 44496, Note_on_c, 3, 52, 0
4, 44500, Note_on_c, 3, 54, 97
4, 44576, Note_on_c, 3, 54, 0
4, 44580, Note_on_c, 3, 50, 83
4, 44656, Note_on_c, 3, 50, 0
4, 44660, Note_on_c, 3, 55, 117
4, 45136, Note_on_c, 3, 55, 0
4, 45220, Note_on_c, 3, 57, 104
4, 45296, Note_on_c, 3, 57, 0
4, 45300, Note_on_c, 3, 55, 106
4, 45376, Note_on_c, 3, 55, 0
4, 45380, Note_on_c, 3, 54, 110
4, 45456, Note_on_c, 3, 54, 0
4, 45460, Note_on_c, 3, 55, 104
4, 45536, Note_on_c, 3, 55, 0
4, 45540, Note_on_c, 3, 50, 111
4, 45616, Note_on_c, 3, 50, 0
4, 45620, Note_on_c, 3, 43, 124
4, 46096, Note_on_c, 3, 43, 0
4, 47520, End_track
0, 0, End_of_file
