0, 0, Header, 1, 4, 480
1, 0, Start_track
1, 0, SMPTE_offset, 96, 0, 0, 0, 0
1, 0, Time_signature, 3, 2, 24, 8
1, 20, Tempo, 500000
1, 70560, End_track
2, 0, Start_track
2, 0, Title_t, "goldberg.mid"
2, 20, Note_on_c, 0, 67, 98
2, 496, Note_on_c, 0, 67, 0
2, 500, Note_on_c, 0, 66, 88
2, 736, Note_on_c, 0, 66, 0
2, 740, Note_on_c, 0, 67, 93
2, 1216, Note_on_c, 0, 67, 0
2, 1220, Note_on_c, 0, 69, 90
2, 1456, Note_on_c, 0, 69, 0
2, 1460, Note_on_c, 0, 71, 81
2, 1696, Note_on_c, 0, 71, 0
2, 1700, Note_on_c, 0, 74, 85
2, 1936, Note_on_c, 0, 74, 0
2, 1940, Note_on_c, 0, 73, 88
2, 2176, Note_on_c, 0, 73, 0
2, 2180, Note_on_c, 0, 74, 102
2, 2656, Note_on_c, 0, 74, 0
2, 2660, Note_on_c, 0, 69, 91
2, 2896, Note_on_c, 0, 69, 0
2, 2900, Note_on_c, 0, 74, 98
2, 3376, Note_on_c, 0, 74, 0
2, 3380, Note_on_c, 0, 76, 73
2, 3496, Note_on_c, 0, 76, 0
2, 3500, Note_on_c, 0, 76, 83
2, 3616, Note_on_c, 0, 76, 0
2, 3620, Note_on_c, 0, 78, 93
2, 3736, Note_on_c, 0, 78, 0
2, 3740, Note_on_c, 0, 79, 89
2, 3856, Note_on_c, 0, 79, 0
2, 3860, Note_on_c, 0, 78, 88
2, 3976, Note_on_c, 0, 78, 0
2, 3980, Note_on_c, 0, 76, 85
2, 4096, Note_on_c, 0, 76, 0
2, 4100, Note_on_c, 0, 74, 92
2, 4336, Note_on_c, 0, 74, 0
2, 4340, Note_on_c, 0, 79, 96
2, 4576, Note_on_c, 0, 79, 0
2, 4580, Note_on_c, 0, 83, 95
2, 4816, Note_on_c, 0, 83, 0
2, 4820, Note_on_c, 0, 81, 98
2, 5056, Note_on_c, 0, 81, 0
2, 5060, Note_on_c, 0, 83, 84
2, 5296, Note_on_c, 0, 83, 0
2, 5300, Note_on_c, 0, 79, 77
2, 5536, Note_on_c, 0, 79, 0
2, 5540, Note_on_c, 0, 78, 63
2, 5780, Note_on_c, 0, 78, 0
2, 5780, Note_on_c, 0, 79, 102
2, 6736, Note_on_c, 0, 79, 0
2, 6740, Note_on_c, 0, 78, 101
2, 6976, Note_on_c, 0, 78, 0
2, 6980, Note_on_c, 0, 76, 97
2, 7216, Note_on_c, 0, 76, 0
2, 7220, Note_on_c, 0, 78, 90
2, 7456, Note_on_c, 0, 78, 0
2, 7460, Note_on_c, 0, 79, 95
2, 7696, Note_on_c, 0, 79, 0
2, 7700, Note_on_c, 0, 81, 98
2, 7936, Note_on_c, 0, 81, 0
2, 7940, Note_on_c, 0, 74, 92
2, 8896, Note_on_c, 0, 74, 0
2, 8900, Note_on_c, 0, 79, 82
2, 9136, Note_on_c, 0, 79, 0
2, 9140, Note_on_c, 0, 78, 80
2, 9376, Note_on_c, 0, 78, 0
2, 9380, Note_on_c, 0, 79, 85
2, 9616, Note_on_c, 0, 79, 0
2, 9620, Note_on_c, 0, 83, 92
2, 9856, Note_on_c, 0, 83, 0
2, 9860, Note_on_c, 0, 81, 98
2, 10096, Note_on_c, 0, 81, 0
2, 10100, Note_on_c, 0, 83, 96
2, 10336, Note_on_c, 0, 83, 0
2, 10340, Note_on_c, 0, 86, 86
2, 10456, Note_on_c, 0, 86, 0
2, 10460, Note_on_c, 0, 84, 81
2, 10576, Note_on_c, 0, 84, 0
2, 10580, Note_on_c, 0, 83, 83
2, 10696, Note_on_c, 0, 83, 0
2, 10700, Note_on_c, 0, 81, 77
2, 10816, Note_on_c, 0, 81, 0
2, 10820, Note_on_c, 0, 83, 95
2, 11056, Note_on_c, 0, 83, 0
2, 11060, Note_on_c, 0, 84, 84
2, 11176, Note_on_c, 0, 84, 0
2, 11180, Note_on_c, 0, 83, 88
2, 11296, Note_on_c, 0, 83, 0
2, 11300, Note_on_c, 0, 81, 73
2, 11416, Note_on_c, 0, 81, 0
2, 11420, Note_on_c, 0, 79, 67
2, 11536, Note_on_c, 0, 79, 0
2, 11540, Note_on_c, 0, 81, 96
2, 11776, Note_on_c, 0, 81, 0
2, 11780, Note_on_c, 0, 83, 90
2, 11896, Note_on_c, 0, 83, 0
2, 11900, Note_on_c, 0, 81, 78
2, 12016, Note_on_c, 0, 81, 0
2, 12020, Note_on_c, 0, 79, 71
2, 12136, Note_on_c, 0, 79, 0
2, 12140, Note_on_c, 0, 78, 97
2, 12256, Note_on_c, 0, 78, 0
2, 12260, Note_on_c, 0, 79, 75
2, 12496, Note_on_c, 0, 79, 0
2, 12500, Note_on_c, 0, 81, 86
2, 12616, Note_on_c, 0, 81, 0
2, 12620, Note_on_c, 0, 79, 83
2, 12736, Note_on_c, 0, 79, 0
2, 12740, Note_on_c, 0, 78, 94
2, 12856, Note_on_c, 0, 78, 0
2, 12860, Note_on_c, 0, 76, 81
2, 12980, Note_on_c, 0, 76, 0
2, 12980, Note_on_c, 0, 74, 102
2, 13220, Note_on_c, 0, 74, 0
2, 13700, Note_on_c, 0, 79, 101
2, 13940, Note_on_c, 0, 79, 0
2, 14420, Note_on_c, 0, 78, 97
2, 14660, Note_on_c, 0, 78, 0
2, 15140, Note_on_c, 0, 79, 100
2, 15380, Note_on_c, 0, 79, 0
2, 15860, Note_on_c, 0, 72, 100
2, 16100, Note_on_c, 0, 72, 0
2, 16580, Note_on_c, 0, 71, 93
2, 16820, Note_on_c, 0, 71, 0
2, 21860, Note_on_c, 0, 83, 113
2, 22096, Note_on_c, 0, 83, 0
2, 22100, Note_on_c, 0, 81, 98
2, 22336, Note_on_c, 0, 81, 0
2, 22340, Note_on_c, 0, 79, 86
2, 22576, Note_on_c, 0, 79, 0
2, 22580, Note_on_c, 0, 81, 98
2, 22820, Note_on_c, 0, 81, 0
2, 22820, Note_on_c, 0, 78, 90
2, 23056, Note_on_c, 0, 78, 0
2, 23060, Note_on_c, 0, 76, 73
2, 23180, Note_on_c, 0, 76, 0
2, 23180, Note_on_c, 0, 74, 96
2, 23300, Note_on_c, 0, 74, 0
2, 23300, Note_on_c, 0, 73, 104
2, 23536, Note_on_c, 0, 73, 0
2, 23540, Note_on_c, 0, 74, 93
2, 23780, Note_on_c, 0, 74, 0
2, 23780, Note_on_c, 0, 74, 93
2, 24020, Note_on_c, 0, 74, 0
2, 24020, Note_on_c, 0, 73, 96
2, 24740, Note_on_c, 0, 73, 0
2, 24740, Note_on_c, 0, 74, 86
2, 24976, Note_on_c, 0, 74, 0
2, 24980, Note_on_c, 0, 76, 84
2, 25216, Note_on_c, 0, 76, 0
2, 25220, Note_on_c, 0, 69, 73
2, 25456, Note_on_c, 0, 69, 0
2, 25460, Note_on_c, 0, 71, 85
2, 25696, Note_on_c, 0, 71, 0
2, 25700, Note_on_c, 0, 73, 89
2, 25936, Note_on_c, 0, 73, 0
2, 25940, Note_on_c, 0, 74, 98
2, 26416, Note_on_c, 0, 74, 0
2, 26420, Note_on_c, 0, 78, 90
2, 26656, Note_on_c, 0, 78, 0
2, 26660, Note_on_c, 0, 79, 102
2, 27136, Note_on_c, 0, 79, 0
2, 27140, Note_on_c, 0, 81, 101
2, 27376, Note_on_c, 0, 81, 0
2, 27380, Note_on_c, 0, 71, 88
2, 28336, Note_on_c, 0, 71, 0
2, 28340, Note_on_c, 0, 69, 92
2, 28576, Note_on_c, 0, 69, 0
2, 28580, Note_on_c, 0, 67, 95
2, 28816, Note_on_c, 0, 67, 0
2, 28820, Note_on_c, 0, 69, 102
2, 30500, Note_on_c, 0, 74, 98
2, 30616, Note_on_c, 0, 69, 0
2, 30736, Note_on_c, 0, 74, 0
2, 30740, Note_on_c, 0, 73, 97
2, 30976, Note_on_c, 0, 73, 0
2, 30980, Note_on_c, 0, 74, 95
2, 31096, Note_on_c, 0, 74, 0
2, 31100, Note_on_c, 0, 76, 98
2, 31216, Note_on_c, 0, 76, 0
2, 31220, Note_on_c, 0, 78, 93
2, 31456, Note_on_c, 0, 78, 0
2, 31460, Note_on_c, 0, 76, 95
2, 31696, Note_on_c, 0, 76, 0
2, 31700, Note_on_c, 0, 78, 93
2, 31936, Note_on_c, 0, 78, 0
2, 31940, Note_on_c, 0, 81, 96
2, 32056, Note_on_c, 0, 81, 0
2, 32060, Note_on_c, 0, 79, 89
2, 32176, Note_on_c, 0, 79, 0
2, 32180, Note_on_c, 0, 78, 74
2, 32296, Note_on_c, 0, 78, 0
2, 32300, Note_on_c, 0, 76, 74
2, 32416, Note_on_c, 0, 76, 0
2, 32420, Note_on_c, 0, 78, 94
2, 32656, Note_on_c, 0, 78, 0
2, 32660, Note_on_c, 0, 79, 90
2, 32776, Note_on_c, 0, 79, 0
2, 32780, Note_on_c, 0, 78, 81
2, 32896, Note_on_c, 0, 78, 0
2, 32900, Note_on_c, 0, 76, 65
2, 33016, Note_on_c, 0, 76, 0
2, 33020, Note_on_c, 0, 74, 80
2, 33136, Note_on_c, 0, 74, 0
2, 33140, Note_on_c, 0, 76, 101
2, 33376, Note_on_c, 0, 76, 0
2, 33380, Note_on_c, 0, 78, 94
2, 33496, Note_on_c, 0, 78, 0
2, 33500, Note_on_c, 0, 76, 82
2, 33616, Note_on_c, 0, 76, 0
2, 33620, Note_on_c, 0, 74, 86
2, 33736, Note_on_c, 0, 74, 0
2, 33740, Note_on_c, 0, 73, 101
2, 33856, Note_on_c, 0, 73, 0
2, 33860, Note_on_c, 0, 74, 95
2, 34580, Note_on_c, 0, 74, 0
2, 34580, Note_on_c, 0, 71, 106
2, 34700, Note_on_c, 0, 71, 0
2, 34700, Note_on_c, 0, 69, 106
2, 34820, Note_on_c, 0, 69, 0
2, 34820, Note_on_c, 0, 67, 106
2, 34940, Note_on_c, 0, 67, 0
2, 34940, Note_on_c, 0, 69, 106
2, 35060, Note_on_c, 0, 69, 0
2, 35060, Note_on_c, 0, 71, 106
2, 35180, Note_on_c, 0, 71, 0
2, 35180, Note_on_c, 0, 69, 106
2, 35300, Note_on_c, 0, 69, 0
2, 35300, Note_on_c, 0, 71, 106
2, 35360, Note_on_c, 0, 71, 0
2, 35360, Note_on_c, 0, 69, 106
2, 35420, Note_on_c, 0, 69, 0
2, 35420, Note_on_c, 0, 71, 106
2, 35480, Note_on_c, 0, 71, 0
2, 35480, Note_on_c, 0, 69, 106
2, 35540, Note_on_c, 0, 69, 0
2, 35540, Note_on_c, 0, 71, 106
2, 35600, Note_on_c, 0, 71, 0
2, 35600, Note_on_c, 0, 69, 106
2, 35660, Note_on_c, 0, 69, 0
2, 35660, Note_on_c, 0, 71, 106
2, 35720, Note_on_c, 0, 71, 0
2, 35720, Note_on_c, 0, 69, 106
2, 35780, Note_on_c, 0, 69, 0
2, 35780, Note_on_c, 0, 71, 106
2, 35840, Note_on_c, 0, 71, 0
2, 35840, Note_on_c, 0, 69, 106
2, 35900, Note_on_c, 0, 69, 0
2, 35900, Note_on_c, 0, 71, 106
2, 35960, Note_on_c, 0, 71, 0
2, 35960, Note_on_c, 0, 69, 106
2, 36020, Note_on_c, 0, 69, 0
2, 36020, Note_on_c, 0, 71, 106
2, 36080, Note_on_c, 0, 71, 0
2, 36080, Note_on_c, 0, 69, 106
2, 36140, Note_on_c, 0, 69, 0
2, 36140, Note_on_c, 0, 71, 106
2, 36200, Note_on_c, 0, 71, 0
2, 36200, Note_on_c, 0, 69, 106
2, 36260, Note_on_c, 0, 69, 0
2, 36260, Note_on_c, 0, 71, 106
2, 36320, Note_on_c, 0, 71, 0
2, 36320, Note_on_c, 0, 69, 106
2, 36380, Note_on_c, 0, 69, 0
2, 36380, Note_on_c, 0, 71, 106
2, 36440, Note_on_c, 0, 71, 0
2, 36440, Note_on_c, 0, 69, 106
2, 36500, Note_on_c, 0, 69, 0
2, 36500, Note_on_c, 0, 71, 106
2, 36560, Note_on_c, 0, 71, 0
2, 36560, Note_on_c, 0, 69, 106
2, 36620, Note_on_c, 0, 69, 0
2, 36620, Note_on_c, 0, 71, 106
2, 36680, Note_on_c, 0, 71, 0
2, 36680, Note_on_c, 0, 69, 106
2, 36740, Note_on_c, 0, 69, 0
2, 36740, Note_on_c, 0, 71, 106
2, 36860, Note_on_c, 0, 71, 0
2, 36860, Note_on_c, 0, 69, 106
2, 36980, Note_on_c, 0, 69, 0
2, 36980, Note_on_c, 0, 67, 95
2, 37216, Note_on_c, 0, 67, 0
2, 37220, Note_on_c, 0, 66, 93
2, 37456, Note_on_c, 0, 66, 0
2, 37460, Note_on_c, 0, 67, 96
2, 37696, Note_on_c, 0, 67, 0
2, 37700, Note_on_c, 0, 71, 96
2, 37936, Note_on_c, 0, 71, 0
2, 37940, Note_on_c, 0, 69, 93
2, 38176, Note_on_c, 0, 69, 0
2, 38180, Note_on_c, 0, 71, 93
2, 38896, Note_on_c, 0, 71, 0
2, 38900, Note_on_c, 0, 83, 119
2, 39020, Note_on_c, 0, 83, 0
2, 39020, Note_on_c, 0, 81, 119
2, 39140, Note_on_c, 0, 81, 0
2, 39140, Note_on_c, 0, 79, 119
2, 39260, Note_on_c, 0, 79, 0
2, 39260, Note_on_c, 0, 81, 119
2, 39380, Note_on_c, 0, 81, 0
2, 39380, Note_on_c, 0, 83, 119
2, 39440, Note_on_c, 0, 83, 0
2, 39440, Note_on_c, 0, 81, 119
2, 39500, Note_on_c, 0, 81, 0
2, 39500, Note_on_c, 0, 83, 119
2, 39560, Note_on_c, 0, 83, 0
2, 39560, Note_on_c, 0, 81, 119
2, 39620, Note_on_c, 0, 81, 0
2, 39620, Note_on_c, 0, 83, 119
2, 39680, Note_on_c, 0, 83, 0
2, 39680, Note_on_c, 0, 81, 119
2, 39740, Note_on_c, 0, 81, 0
2, 39740, Note_on_c, 0, 83, 119
2, 39800, Note_on_c, 0, 83, 0
2, 39800, Note_on_c, 0, 81, 119
2, 39860, Note_on_c, 0, 81, 0
2, 39860, Note_on_c, 0, 83, 119
2, 39920, Note_on_c, 0, 83, 0
2, 39920, Note_on_c, 0, 81, 119
2, 39980, Note_on_c, 0, 81, 0
2, 39980, Note_on_c, 0, 83, 119
2, 40040, Note_on_c, 0, 83, 0
2, 40040, Note_on_c, 0, 81, 119
2, 40100, Note_on_c, 0, 81, 0
2, 40100, Note_on_c, 0, 83, 119
2, 40160, Note_on_c, 0, 83, 0
2, 40160, Note_on_c, 0, 81, 119
2, 40220, Note_on_c, 0, 81, 0
2, 40220, Note_on_c, 0, 83, 119
2, 40280, Note_on_c, 0, 83, 0
2, 40280, Note_on_c, 0, 81, 119
2, 40340, Note_on_c, 0, 81, 0
2, 40340, Note_on_c, 0, 83, 119
2, 40400, Note_on_c, 0, 83, 0
2, 40400, Note_on_c, 0, 81, 119
2, 40460, Note_on_c, 0, 81, 0
2, 40460, Note_on_c, 0, 83, 119
2, 40520, Note_on_c, 0, 83, 0
2, 40520, Note_on_c, 0, 81, 119
2, 40580, Note_on_c, 0, 81, 0
2, 40580, Note_on_c, 0, 83, 119
2, 40640, Note_on_c, 0, 83, 0
2, 40640, Note_on_c, 0, 81, 119
2, 40700, Note_on_c, 0, 81, 0
2, 40700, Note_on_c, 0, 83, 119
2, 40760, Note_on_c, 0, 83, 0
2, 40760, Note_on_c, 0, 81, 119
2, 40820, Note_on_c, 0, 81, 0
2, 40820, Note_on_c, 0, 83, 119
2, 40880, Note_on_c, 0, 83, 0
2, 40880, Note_on_c, 0, 81, 119
2, 40940, Note_on_c, 0, 81, 0
2, 40940, Note_on_c, 0, 83, 119
2, 41000, Note_on_c, 0, 83, 0
2, 41000, Note_on_c, 0, 81, 119
2, 41060, Note_on_c, 0, 81, 0
2, 41060, Note_on_c, 0, 83, 119
2, 41180, Note_on_c, 0, 83, 0
2, 41180, Note_on_c, 0, 81, 119
2, 41300, Note_on_c, 0, 81, 0
2, 41300, Note_on_c, 0, 79, 102
2, 41536, Note_on_c, 0, 79, 0
2, 41540, Note_on_c, 0, 78, 101
2, 41776, Note_on_c, 0, 78, 0
2, 41780, Note_on_c, 0, 79, 95
2, 42016, Note_on_c, 0, 79, 0
2, 42020, Note_on_c, 0, 83, 101
2, 42256, Note_on_c, 0, 83, 0
2, 42260, Note_on_c, 0, 81, 102
2, 42496, Note_on_c, 0, 81, 0
2, 42500, Note_on_c, 0, 83, 102
2, 42976, Note_on_c, 0, 83, 0
2, 42980, Note_on_c, 0, 75, 102
2, 43216, Note_on_c, 0, 75, 0
2, 43220, Note_on_c, 0, 76, 96
2, 43456, Note_on_c, 0, 76, 0
2, 43460, Note_on_c, 0, 79, 97
2, 43576, Note_on_c, 0, 79, 0
2, 43580, Note_on_c, 0, 78, 88
2, 43696, Note_on_c, 0, 78, 0
2, 43700, Note_on_c, 0, 76, 83
2, 43816, Note_on_c, 0, 76, 0
2, 43820, Note_on_c, 0, 74, 82
2, 43940, Note_on_c, 0, 74, 0
2, 43940, Note_on_c, 0, 72, 106
2, 44176, Note_on_c, 0, 72, 0
2, 44180, Note_on_c, 0, 76, 91
2, 44296, Note_on_c, 0, 76, 0
2, 44300, Note_on_c, 0, 74, 90
2, 44416, Note_on_c, 0, 74, 0
2, 44420, Note_on_c, 0, 72, 97
2, 44536, Note_on_c, 0, 72, 0
2, 44540, Note_on_c, 0, 71, 85
2, 44656, Note_on_c, 0, 71, 0
2, 44660, Note_on_c, 0, 69, 89
2, 44896, Note_on_c, 0, 69, 0
2, 44900, Note_on_c, 0, 72, 104
2, 45016, Note_on_c, 0, 72, 0
2, 45020, Note_on_c, 0, 71, 90
2, 45136, Note_on_c, 0, 71, 0
2, 45140, Note_on_c, 0, 69, 75
2, 45256, Note_on_c, 0, 69, 0
2, 45260, Note_on_c, 0, 67, 80
2, 45376, Note_on_c, 0, 67, 0
2, 45380, Note_on_c, 0, 66, 93
2, 45856, Note_on_c, 0, 66, 0
2, 45860, Note_on_c, 0, 76, 106
2, 46096, Note_on_c, 0, 76, 0
2, 46100, Note_on_c, 0, 75, 77
2, 46336, Note_on_c, 0, 75, 0
2, 46340, Note_on_c, 0, 78, 82
2, 46400, Note_on_c, 0, 78, 0
2, 46400, Note_on_c, 0, 76, 86
2, 46460, Note_on_c, 0, 76, 0
2, 46460, Note_on_c, 0, 75, 58
2, 46520, Note_on_c, 0, 75, 0
2, 46520, Note_on_c, 0, 76, 84
2, 46580, Note_on_c, 0, 76, 0
2, 46580, Note_on_c, 0, 78, 97
2, 46816, Note_on_c, 0, 78, 0
2, 46820, Note_on_c, 0, 71, 117
2, 47776, Note_on_c, 0, 71, 0
2, 47780, Note_on_c, 0, 75, 110
2, 48016, Note_on_c, 0, 75, 0
2, 48020, Note_on_c, 0, 76, 100
2, 48380, Note_on_c, 0, 76, 0
2, 48380, Note_on_c, 0, 74, 97
2, 48496, Note_on_c, 0, 74, 0
2, 48500, Note_on_c, 0, 72, 92
2, 48616, Note_on_c, 0, 72, 0
2, 48620, Note_on_c, 0, 71, 93
2, 48740, Note_on_c, 0, 71, 0
2, 48740, Note_on_c, 0, 72, 106
2, 49100, Note_on_c, 0, 72, 0
2, 49100, Note_on_c, 0, 71, 88
2, 49216, Note_on_c, 0, 71, 0
2, 49220, Note_on_c, 0, 69, 86
2, 49336, Note_on_c, 0, 69, 0
2, 49340, Note_on_c, 0, 67, 102
2, 49460, Note_on_c, 0, 67, 0
2, 49460, Note_on_c, 0, 69, 97
2, 49940, Note_on_c, 0, 69, 0
2, 49940, Note_on_c, 0, 66, 101
2, 50180, Note_on_c, 0, 66, 0
2, 50180, Note_on_c, 0, 67, 101
2, 50420, Note_on_c, 0, 67, 0
2, 50420, Note_on_c, 0, 71, 95
2, 50540, Note_on_c, 0, 71, 0
2, 50540, Note_on_c, 0, 69, 95
2, 50660, Note_on_c, 0, 69, 0
2, 50660, Note_on_c, 0, 71, 95
2, 51380, Note_on_c, 0, 71, 0
2, 51380, Note_on_c, 0, 72, 117
2, 51616, Note_on_c, 0, 72, 0
2, 51620, Note_on_c, 0, 74, 104
2, 51856, Note_on_c, 0, 74, 0
2, 51860, Note_on_c, 0, 76, 91
2, 52096, Note_on_c, 0, 76, 0
2, 52100, Note_on_c, 0, 68, 99
2, 52336, Note_on_c, 0, 68, 0
2, 52340, Note_on_c, 0, 71, 104
2, 52576, Note_on_c, 0, 71, 0
2, 52580, Note_on_c, 0, 69, 104
2, 53536, Note_on_c, 0, 69, 0
2, 53540, Note_on_c, 0, 71, 101
2, 53776, Note_on_c, 0, 71, 0
2, 53780, Note_on_c, 0, 72, 100
2, 54016, Note_on_c, 0, 72, 0
2, 54020, Note_on_c, 0, 74, 97
2, 54256, Note_on_c, 0, 74, 0
2, 54260, Note_on_c, 0, 66, 104
2, 54496, Note_on_c, 0, 66, 0
2, 54500, Note_on_c, 0, 69, 97
2, 54736, Note_on_c, 0, 69, 0
2, 54740, Note_on_c, 0, 62, 101
2, 55220, Note_on_c, 0, 62, 0
2, 55220, Note_on_c, 0, 66, 93
2, 55460, Note_on_c, 0, 66, 0
2, 55460, Note_on_c, 0, 74, 97
2, 56656, Note_on_c, 0, 74, 0
2, 56660, Note_on_c, 0, 63, 110
2, 56896, Note_on_c, 0, 63, 0
2, 56900, Note_on_c, 0, 64, 93
2, 57136, Note_on_c, 0, 64, 0
2, 57140, Note_on_c, 0, 66, 94
2, 57376, Note_on_c, 0, 66, 0
2, 57380, Note_on_c, 0, 67, 93
2, 57616, Note_on_c, 0, 67, 0
2, 57620, Note_on_c, 0, 66, 112
2, 57856, Note_on_c, 0, 66, 0
2, 57860, Note_on_c, 0, 67, 95
2, 58096, Note_on_c, 0, 67, 0
2, 58100, Note_on_c, 0, 69, 90
2, 58336, Note_on_c, 0, 69, 0
2, 58340, Note_on_c, 0, 62, 104
2, 59060, Note_on_c, 0, 62, 0
2, 59060, Note_on_c, 0, 62, 104
2, 59780, Note_on_c, 0, 62, 0
2, 59780, Note_on_c, 0, 62, 109
2, 60736, Note_on_c, 0, 62, 0
2, 60740, Note_on_c, 0, 67, 101
2, 60976, Note_on_c, 0, 67, 0
2, 60980, Note_on_c, 0, 66, 101
2, 61216, Note_on_c, 0, 66, 0
2, 61220, Note_on_c, 0, 67, 96
2, 61456, Note_on_c, 0, 67, 0
2, 61460, Note_on_c, 0, 69, 93
2, 61696, Note_on_c, 0, 69, 0
2, 61700, Note_on_c, 0, 71, 102
2, 61936, Note_on_c, 0, 71, 0
2, 61940, Note_on_c, 0, 72, 101
2, 62176, Note_on_c, 0, 72, 0
2, 62180, Note_on_c, 0, 74, 91
2, 62296, Note_on_c, 0, 74, 0
2, 62300, Note_on_c, 0, 72, 93
2, 62416, Note_on_c, 0, 72, 0
2, 62420, Note_on_c, 0, 71, 97
2, 62536, Note_on_c, 0, 71, 0
2, 62540, Note_on_c, 0, 69, 83
2, 62656, Note_on_c, 0, 69, 0
2, 62660, Note_on_c, 0, 71, 93
2, 62896, Note_on_c, 0, 71, 0
2, 62900, Note_on_c, 0, 72, 97
2, 63016, Note_on_c, 0, 72, 0
2, 63020, Note_on_c, 0, 71, 98
2, 63136, Note_on_c, 0, 71, 0
2, 63140, Note_on_c, 0, 69, 82
2, 63256, Note_on_c, 0, 69, 0
2, 63260, Note_on_c, 0, 67, 89
2, 63376, Note_on_c, 0, 67, 0
2, 63380, Note_on_c, 0, 69, 97
2, 63616, Note_on_c, 0, 69, 0
2, 63620, Note_on_c, 0, 71, 92
2, 63736, Note_on_c, 0, 71, 0
2, 63740, Note_on_c, 0, 69, 83
2, 63856, Note_on_c, 0, 69, 0
2, 63860, Note_on_c, 0, 67, 82
2, 63976, Note_on_c, 0, 67, 0
2, 63980, Note_on_c, 0, 66, 51
2, 64096, Note_on_c, 0, 66, 0
2, 64100, Note_on_c, 0, 67, 98
2, 64336, Note_on_c, 0, 67, 0
2, 64340, Note_on_c, 0, 71, 96
2, 64456, Note_on_c, 0, 71, 0
2, 64460, Note_on_c, 0, 69, 80
2, 64576, Note_on_c, 0, 69, 0
2, 64580, Note_on_c, 0, 67, 89
2, 64696, Note_on_c, 0, 67, 0
2, 64700, Note_on_c, 0, 66, 96
2, 64816, Note_on_c, 0, 66, 0
2, 64820, Note_on_c, 0, 67, 101
2, 65060, Note_on_c, 0, 67, 0
2, 65540, Note_on_c, 0, 62, 86
2, 65780, Note_on_c, 0, 62, 0
2, 66260, Note_on_c, 0, 66, 93
2, 66500, Note_on_c, 0, 66, 0
2, 66980, Note_on_c, 0, 67, 102
2, 67220, Note_on_c, 0, 67, 0
2, 67700, Note_on_c, 0, 60, 97
2, 67940, Note_on_c, 0, 60, 0
2, 68420, Note_on_c, 0, 59, 100
2, 69140, Note_on_c, 0, 59, 0
2, 70560, End_track
3, 0, Start_track
3, 0, Title_t, "goldberg.mid"
3, 4340, Note_on_c, 2, 55, 104
3, 4816, Note_on_c, 2, 55, 0
3, 4820, Note_on_c, 2, 54, 104
3, 5056, Note_on_c, 2, 54, 0
3, 5060, Note_on_c, 2, 55, 102
3, 5536, Note_on_c, 2, 55, 0
3, 5540, Note_on_c, 2, 57, 101
3, 5776, Note_on_c, 2, 57, 0
3, 5780, Note_on_c, 2, 59, 97
3, 6016, Note_on_c, 2, 59, 0
3, 6020, Note_on_c, 2, 62, 96
3, 6256, Note_on_c, 2, 62, 0
3, 6260, Note_on_c, 2, 61, 96
3, 6496, Note_on_c, 2, 61, 0
3, 6500, Note_on_c, 2, 62, 101
3, 6976, Note_on_c, 2, 62, 0
3, 6980, Note_on_c, 2, 57, 89
3, 7216, Note_on_c, 2, 57, 0
3, 7220, Note_on_c, 2, 62, 95
3, 7696, Note_on_c, 2, 62, 0
3, 7700, Note_on_c, 2, 64, 98
3, 7816, Note_on_c, 2, 64, 0
3, 7820, Note_on_c, 2, 64, 91
3, 7936, Note_on_c, 2, 64, 0
3, 7940, Note_on_c, 2, 66, 90
3, 8056, Note_on_c, 2, 66, 0
3, 8060, Note_on_c, 2, 67, 89
3, 8176, Note_on_c, 2, 67, 0
3, 8180, Note_on_c, 2, 66, 90
3, 8296, Note_on_c, 2, 66, 0
3, 8300, Note_on_c, 2, 64, 93
3, 8416, Note_on_c, 2, 64, 0
3, 8420, Note_on_c, 2, 62, 95
3, 8660, Note_on_c, 2, 62, 0
3, 8660, Note_on_c, 2, 67, 95
3, 8900, Note_on_c, 2, 67, 0
3, 8900, Note_on_c, 2, 71, 93
3, 9140, Note_on_c, 2, 71, 0
3, 9140, Note_on_c, 2, 69, 100
3, 9380, Note_on_c, 2, 69, 0
3, 9380, Note_on_c, 2, 71, 100
3, 9620, Note_on_c, 2, 71, 0
3, 9620, Note_on_c, 2, 67, 88
3, 9856, Note_on_c, 2, 67, 0
3, 9860, Note_on_c, 2, 66, 104
3, 10096, Note_on_c, 2, 66, 0
3, 10100, Note_on_c, 2, 67, 104
3, 11056, Note_on_c, 2, 67, 0
3, 11060, Note_on_c, 2, 66, 104
3, 11296, Note_on_c, 2, 66, 0
3, 11300, Note_on_c, 2, 64, 98
3, 11536, Note_on_c, 2, 64, 0
3, 11540, Note_on_c, 2, 66, 96
3, 11776, Note_on_c, 2, 66, 0
3, 11780, Note_on_c, 2, 67, 97
3, 12016, Note_on_c, 2, 67, 0
3, 12020, Note_on_c, 2, 69, 91
3, 12256, Note_on_c, 2, 69, 0
3, 12260, Note_on_c, 2, 62, 101
3, 13216, Note_on_c, 2, 62, 0
3, 13220, Note_on_c, 2, 67, 98
3, 13456, Note_on_c, 2, 67, 0
3, 13460, Note_on_c, 2, 66, 99
3, 13696, Note_on_c, 2, 66, 0
3, 13700, Note_on_c, 2, 67, 93
3, 13936, Note_on_c, 2, 67, 0
3, 13940, Note_on_c, 2, 71, 100
3, 14176, Note_on_c, 2, 71, 0
3, 14180, Note_on_c, 2, 69, 93
3, 14416, Note_on_c, 2, 69, 0
3, 14420, Note_on_c, 2, 71, 92
3, 14656, Note_on_c, 2, 71, 0
3, 14660, Note_on_c, 2, 74, 90
3, 14776, Note_on_c, 2, 74, 0
3, 14780, Note_on_c, 2, 72, 88
3, 14896, Note_on_c, 2, 72, 0
3, 14900, Note_on_c, 2, 71, 83
3, 15016, Note_on_c, 2, 71, 0
3, 15020, Note_on_c, 2, 69, 80
3, 15136, Note_on_c, 2, 69, 0
3, 15140, Note_on_c, 2, 71, 90
3, 15376, Note_on_c, 2, 71, 0
3, 15380, Note_on_c, 2, 72, 91
3, 15496, Note_on_c, 2, 72, 0
3, 15500, Note_on_c, 2, 71, 86
3, 15616, Note_on_c, 2, 71, 0
3, 15620, Note_on_c, 2, 69, 80
3, 15736, Note_on_c, 2, 69, 0
3, 15740, Note_on_c, 2, 67, 76
3, 15856, Note_on_c, 2, 67, 0
3, 15860, Note_on_c, 2, 69, 98
3, 16096, Note_on_c, 2, 69, 0
3, 16100, Note_on_c, 2, 71, 88
3, 16216, Note_on_c, 2, 71, 0
3, 16220, Note_on_c, 2, 69, 88
3, 16336, Note_on_c, 2, 69, 0
3, 16340, Note_on_c, 2, 67, 82
3, 16456, Note_on_c, 2, 67, 0
3, 16460, Note_on_c, 2, 66, 82
3, 16576, Note_on_c, 2, 66, 0
3, 16580, Note_on_c, 2, 67, 104
3, 16816, Note_on_c, 2, 67, 0
3, 16820, Note_on_c, 2, 69, 83
3, 16936, Note_on_c, 2, 69, 0
3, 16940, Note_on_c, 2, 67, 91
3, 17056, Note_on_c, 2, 67, 0
3, 17060, Note_on_c, 2, 66, 92
3, 17176, Note_on_c, 2, 66, 0
3, 17180, Note_on_c, 2, 64, 93
3, 17296, Note_on_c, 2, 64, 0
3, 17300, Note_on_c, 2, 62, 90
3, 17536, Note_on_c, 2, 62, 0
3, 17540, Note_on_c, 2, 71, 102
3, 17776, Note_on_c, 2, 71, 0
3, 17780, Note_on_c, 2, 69, 86
3, 18016, Note_on_c, 2, 69, 0
3, 18020, Note_on_c, 2, 67, 91
3, 18256, Note_on_c, 2, 67, 0
3, 18260, Note_on_c, 2, 69, 84
3, 18496, Note_on_c, 2, 69, 0
3, 18500, Note_on_c, 2, 66, 90
3, 18736, Note_on_c, 2, 66, 0
3, 18740, Note_on_c, 2, 64, 89
3, 18856, Note_on_c, 2, 64, 0
3, 18860, Note_on_c, 2, 62, 101
3, 18976, Note_on_c, 2, 62, 0
3, 18980, Note_on_c, 2, 61, 115
3, 19216, Note_on_c, 2, 61, 0
3, 19220, Note_on_c, 2, 62, 102
3, 19456, Note_on_c, 2, 62, 0
3, 19460, Note_on_c, 2, 62, 98
3, 19696, Note_on_c, 2, 62, 0
3, 19700, Note_on_c, 2, 61, 101
3, 20416, Note_on_c, 2, 61, 0
3, 20420, Note_on_c, 2, 62, 93
3, 20656, Note_on_c, 2, 62, 0
3, 20660, Note_on_c, 2, 64, 100
3, 20896, Note_on_c, 2, 64, 0
3, 20900, Note_on_c, 2, 57, 89
3, 21136, Note_on_c, 2, 57, 0
3, 21140, Note_on_c, 2, 59, 98
3, 21376, Note_on_c, 2, 59, 0
3, 21380, Note_on_c, 2, 61, 102
3, 21616, Note_on_c, 2, 61, 0
3, 21620, Note_on_c, 2, 62, 104
3, 22096, Note_on_c, 2, 62, 0
3, 22100, Note_on_c, 2, 66, 108
3, 22336, Note_on_c, 2, 66, 0
3, 22340, Note_on_c, 2, 67, 101
3, 22816, Note_on_c, 2, 67, 0
3, 22820, Note_on_c, 2, 69, 95
3, 23056, Note_on_c, 2, 69, 0
3, 23060, Note_on_c, 2, 59, 102
3, 24016, Note_on_c, 2, 59, 0
3, 24020, Note_on_c, 2, 57, 97
3, 24256, Note_on_c, 2, 57, 0
3, 24260, Note_on_c, 2, 56, 94
3, 24496, Note_on_c, 2, 56, 0
3, 24500, Note_on_c, 2, 57, 93
3, 26176, Note_on_c, 2, 57, 0
3, 26180, Note_on_c, 2, 62, 104
3, 26416, Note_on_c, 2, 62, 0
3, 26420, Note_on_c, 2, 61, 102
3, 26656, Note_on_c, 2, 61, 0
3, 26660, Note_on_c, 2, 62, 100
3, 26776, Note_on_c, 2, 62, 0
3, 26780, Note_on_c, 2, 64, 102
3, 26896, Note_on_c, 2, 64, 0
3, 26900, Note_on_c, 2, 66, 96
3, 27136, Note_on_c, 2, 66, 0
3, 27140, Note_on_c, 2, 64, 100
3, 27376, Note_on_c, 2, 64, 0
3, 27380, Note_on_c, 2, 66, 102
3, 27616, Note_on_c, 2, 66, 0
3, 27620, Note_on_c, 2, 69, 95
3, 27736, Note_on_c, 2, 69, 0
3, 27740, Note_on_c, 2, 67, 88
3, 27856, Note_on_c, 2, 67, 0
3, 27860, Note_on_c, 2, 66, 80
3, 27976, Note_on_c, 2, 66, 0
3, 27980, Note_on_c, 2, 64, 84
3, 28096, Note_on_c, 2, 64, 0
3, 28100, Note_on_c, 2, 66, 94
3, 28336, Note_on_c, 2, 66, 0
3, 28340, Note_on_c, 2, 67, 95
3, 28456, Note_on_c, 2, 67, 0
3, 28460, Note_on_c, 2, 66, 97
3, 28576, Note_on_c, 2, 66, 0
3, 28580, Note_on_c, 2, 64, 93
3, 28696, Note_on_c, 2, 64, 0
3, 28700, Note_on_c, 2, 62, 85
3, 28816, Note_on_c, 2, 62, 0
3, 28820, Note_on_c, 2, 64, 106
3, 29056, Note_on_c, 2, 64, 0
3, 29060, Note_on_c, 2, 66, 99
3, 29176, Note_on_c, 2, 66, 0
3, 29180, Note_on_c, 2, 64, 84
3, 29296, Note_on_c, 2, 64, 0
3, 29300, Note_on_c, 2, 62, 96
3, 29416, Note_on_c, 2, 62, 0
3, 29420, Note_on_c, 2, 61, 102
3, 29536, Note_on_c, 2, 61, 0
3, 29540, Note_on_c, 2, 62, 92
3, 29776, Note_on_c, 2, 62, 0
3, 29780, Note_on_c, 2, 64, 102
3, 29896, Note_on_c, 2, 64, 0
3, 29900, Note_on_c, 2, 62, 83
3, 30016, Note_on_c, 2, 62, 0
3, 30020, Note_on_c, 2, 61, 106
3, 30136, Note_on_c, 2, 61, 0
3, 30140, Note_on_c, 2, 59, 89
3, 30256, Note_on_c, 2, 59, 0
3, 30260, Note_on_c, 2, 57, 100
3, 30500, Note_on_c, 2, 57, 0
3, 30980, Note_on_c, 2, 62, 106
3, 31220, Note_on_c, 2, 62, 0
3, 31700, Note_on_c, 2, 61, 102
3, 31940, Note_on_c, 2, 61, 0
3, 32420, Note_on_c, 2, 62, 98
3, 32660, Note_on_c, 2, 62, 0
3, 33140, Note_on_c, 2, 67, 93
3, 33380, Note_on_c, 2, 67, 0
3, 33860, Note_on_c, 2, 66, 77
3, 34580, Note_on_c, 2, 66, 0
3, 38660, Note_on_c, 2, 63, 102
3, 38896, Note_on_c, 2, 63, 0
3, 38900, Note_on_c, 2, 64, 95
3, 39136, Note_on_c, 2, 64, 0
3, 39140, Note_on_c, 2, 67, 101
3, 39256, Note_on_c, 2, 67, 0
3, 39260, Note_on_c, 2, 66, 101
3, 39376, Note_on_c, 2, 66, 0
3, 39380, Note_on_c, 2, 64, 96
3, 39496, Note_on_c, 2, 64, 0
3, 39500, Note_on_c, 2, 62, 89
3, 39616, Note_on_c, 2, 62, 0
3, 39620, Note_on_c, 2, 60, 109
3, 39856, Note_on_c, 2, 60, 0
3, 39860, Note_on_c, 2, 64, 101
3, 39976, Note_on_c, 2, 64, 0
3, 39980, Note_on_c, 2, 62, 95
3, 40096, Note_on_c, 2, 62, 0
3, 40100, Note_on_c, 2, 60, 101
3, 40216, Note_on_c, 2, 60, 0
3, 40220, Note_on_c, 2, 59, 100
3, 40336, Note_on_c, 2, 59, 0
3, 40340, Note_on_c, 2, 57, 95
3, 40576, Note_on_c, 2, 57, 0
3, 40580, Note_on_c, 2, 60, 100
3, 40696, Note_on_c, 2, 60, 0
3, 40700, Note_on_c, 2, 59, 91
3, 40816, Note_on_c, 2, 59, 0
3, 40820, Note_on_c, 2, 57, 93
3, 40936, Note_on_c, 2, 57, 0
3, 40940, Note_on_c, 2, 55, 81
3, 41056, Note_on_c, 2, 55, 0
3, 41060, Note_on_c, 2, 54, 115
3, 41540, Note_on_c, 2, 54, 0
3, 41540, Note_on_c, 2, 64, 115
3, 41776, Note_on_c, 2, 64, 0
3, 41780, Note_on_c, 2, 63, 104
3, 42016, Note_on_c, 2, 63, 0
3, 42020, Note_on_c, 2, 66, 99
3, 42080, Note_on_c, 2, 66, 0
3, 42080, Note_on_c, 2, 64, 100
3, 42140, Note_on_c, 2, 64, 0
3, 42140, Note_on_c, 2, 63, 104
3, 42200, Note_on_c, 2, 63, 0
3, 42200, Note_on_c, 2, 64, 106
3, 42260, Note_on_c, 2, 64, 0
3, 42260, Note_on_c, 2, 66, 108
3, 42496, Note_on_c, 2, 66, 0
3, 42500, Note_on_c, 2, 59, 117
3, 43456, Note_on_c, 2, 59, 0
3, 43460, Note_on_c, 2, 63, 112
3, 43696, Note_on_c, 2, 63, 0
3, 43700, Note_on_c, 2, 64, 115
3, 44060, Note_on_c, 2, 64, 0
3, 44060, Note_on_c, 2, 62, 102
3, 44176, Note_on_c, 2, 62, 0
3, 44180, Note_on_c, 2, 60, 97
3, 44296, Note_on_c, 2, 60, 0
3, 44300, Note_on_c, 2, 59, 92
3, 44416, Note_on_c, 2, 59, 0
3, 44420, Note_on_c, 2, 60, 104
3, 44776, Note_on_c, 2, 60, 0
3, 44780, Note_on_c, 2, 59, 98
3, 44896, Note_on_c, 2, 59, 0
3, 44900, Note_on_c, 2, 57, 82
3, 45016, Note_on_c, 2, 57, 0
3, 45020, Note_on_c, 2, 55, 86
3, 45136, Note_on_c, 2, 55, 0
3, 45140, Note_on_c, 2, 57, 102
3, 45620, Note_on_c, 2, 57, 0
3, 45620, Note_on_c, 2, 54, 106
3, 45860, Note_on_c, 2, 54, 0
3, 45860, Note_on_c, 2, 55, 104
3, 46100, Note_on_c, 2, 55, 0
3, 54740, Note_on_c, 2, 59, 115
3, 55696, Note_on_c, 2, 59, 0
3, 55700, Note_on_c, 2, 60, 104
3, 55936, Note_on_c, 2, 60, 0
3, 55940, Note_on_c, 2, 62, 97
3, 56176, Note_on_c, 2, 62, 0
3, 56180, Note_on_c, 2, 64, 102
3, 56416, Note_on_c, 2, 64, 0
3, 56420, Note_on_c, 2, 56, 96
3, 56656, Note_on_c, 2, 56, 0
3, 56660, Note_on_c, 2, 59, 96
3, 56896, Note_on_c, 2, 59, 0
3, 56900, Note_on_c, 2, 57, 104
3, 57856, Note_on_c, 2, 57, 0
3, 57860, Note_on_c, 2, 59, 96
3, 58096, Note_on_c, 2, 59, 0
3, 58100, Note_on_c, 2, 60, 96
3, 58336, Note_on_c, 2, 60, 0
3, 58340, Note_on_c, 2, 62, 102
3, 58576, Note_on_c, 2, 62, 0
3, 58580, Note_on_c, 2, 54, 101
3, 58816, Note_on_c, 2, 54, 0
3, 58820, Note_on_c, 2, 57, 111
3, 59056, Note_on_c, 2, 57, 0
3, 59060, Note_on_c, 2, 50, 98
3, 59536, Note_on_c, 2, 50, 0
3, 59540, Note_on_c, 2, 54, 106
3, 59776, Note_on_c, 2, 54, 0
3, 59780, Note_on_c, 2, 59, 109
3, 60976, Note_on_c, 2, 59, 0
3, 60980, Note_on_c, 2, 51, 110
3, 61216, Note_on_c, 2, 51, 0
3, 61220, Note_on_c, 2, 52, 101
3, 61456, Note_on_c, 2, 52, 0
3, 61460, Note_on_c, 2, 54, 99
3, 61696, Note_on_c, 2, 54, 0
3, 61700, Note_on_c, 2, 55, 96
3, 61936, Note_on_c, 2, 55, 0
3, 61940, Note_on_c, 2, 54, 104
3, 62176, Note_on_c, 2, 54, 0
3, 62180, Note_on_c, 2, 55, 98
3, 62416, Note_on_c, 2, 55, 0
3, 62420, Note_on_c, 2, 57, 96
3, 62656, Note_on_c, 2, 57, 0
3, 62660, Note_on_c, 2, 50, 107
3, 63376, Note_on_c, 2, 50, 0
3, 63380, Note_on_c, 2, 50, 101
3, 64096, Note_on_c, 2, 50, 0
3, 64100, Note_on_c, 2, 50, 98
3, 65056, Note_on_c, 2, 50, 0
3, 65060, Note_on_c, 2, 55, 95
3, 65296, Note_on_c, 2, 55, 0
3, 65300, Note_on_c, 2, 54, 106
3, 65536, Note_on_c, 2, 54, 0
3, 65540, Note_on_c, 2, 55, 104
3, 65776, Note_on_c, 2, 55, 0
3, 65780, Note_on_c, 2, 57, 92
3, 66016, Note_on_c, 2, 57, 0
3, 66020, Note_on_c, 2, 59, 101
3, 66256, Note_on_c, 2, 59, 0
3, 66260, Note_on_c, 2, 60, 104
3, 66496, Note_on_c, 2, 60, 0
3, 66500, Note_on_c, 2, 62, 97
3, 66616, Note_on_c, 2, 62, 0
3, 66620, Note_on_c, 2, 60, 100
3, 66736, Note_on_c, 2, 60, 0
3, 66740, Note_on_c, 2, 59, 100
3, 66856, Note_on_c, 2, 59, 0
3, 66860, Note_on_c, 2, 57, 97
3, 66976, Note_on_c, 2, 57, 0
3, 66980, Note_on_c, 2, 59, 107
3, 67216, Note_on_c, 2, 59, 0
3, 67220, Note_on_c, 2, 60, 106
3, 67336, Note_on_c, 2, 60, 0
3, 67340, Note_on_c, 2, 59, 102
3, 67456, Note_on_c, 2, 59, 0
3, 67460, Note_on_c, 2, 57, 98
3, 67576, Note_on_c, 2, 57, 0
3, 67580, Note_on_c, 2, 55, 82
3, 67696, Note_on_c, 2, 55, 0
3, 67700, Note_on_c, 2, 57, 102
3, 67936, Note_on_c, 2, 57, 0
3, 67940, Note_on_c, 2, 59, 97
3, 68056, Note_on_c, 2, 59, 0
3, 68060, Note_on_c, 2, 57, 95
3, 68176, Note_on_c, 2, 57, 0
3, 68180, Note_on_c, 2, 55, 86
3, 68296, Note_on_c, 2, 55, 0
3, 68300, Note_on_c, 2, 54, 99
3, 68416, Note_on_c, 2, 54, 0
3, 68420, Note_on_c, 2, 55, 90
3, 69136, Note_on_c, 2, 55, 0
3, 70560, End_track
4, 0, Start_track
4, 0, Title_t, "goldberg.mid"
4, 20, Note_on_c, 3, 55, 98
4, 740, Note_on_c, 3, 55, 0
4, 1220, Note_on_c, 3, 54, 93
4, 1456, Note_on_c, 3, 54, 0
4, 1460, Note_on_c, 3, 55, 92
4, 1936, Note_on_c, 3, 55, 0
4, 1940, Note_on_c, 3, 52, 98
4, 2176, Note_on_c, 3, 52, 0
4, 2180, Note_on_c, 3, 54, 112
4, 2900, Note_on_c, 3, 54, 0
4, 3380, Note_on_c, 3, 57, 106
4, 3616, Note_on_c, 3, 57, 0
4, 3620, Note_on_c, 3, 50, 90
4, 4096, Note_on_c, 3, 50, 0
4, 4100, Note_on_c, 3, 54, 97
4, 4336, Note_on_c, 3, 54, 0
4, 4340, Note_on_c, 3, 52, 101
4, 6256, Note_on_c, 3, 52, 0
4, 6260, Note_on_c, 3, 57, 100
4, 6496, Note_on_c, 3, 57, 0
4, 6500, Note_on_c, 3, 50, 93
4, 7220, Note_on_c, 3, 50, 0
4, 8660, Note_on_c, 3, 59, 109
4, 9380, Note_on_c, 3, 59, 0
4, 9860, Note_on_c, 3, 62, 101
4, 10096, Note_on_c, 3, 62, 0
4, 10100, Note_on_c, 3, 55, 100
4, 10576, Note_on_c, 3, 55, 0
4, 10580, Note_on_c, 3, 59, 93
4, 10816, Note_on_c, 3, 59, 0
4, 10820, Note_on_c, 3, 64, 109
4, 11540, Note_on_c, 3, 64, 0
4, 12020, Note_on_c, 3, 57, 96
4, 12256, Note_on_c, 3, 57, 0
4, 12260, Note_on_c, 3, 59, 86
4, 12496, Note_on_c, 3, 59, 0
4, 12500, Note_on_c, 3, 57, 85
4, 12736, Note_on_c, 3, 57, 0
4, 12740, Note_on_c, 3, 59, 93
4, 12976, Note_on_c, 3, 59, 0
4, 12980, Note_on_c, 3, 60, 97
4, 13216, Note_on_c, 3, 60, 0
4, 13220, Note_on_c, 3, 59, 91
4, 13456, Note_on_c, 3, 59, 0
4, 13460, Note_on_c, 3, 57, 90
4, 13696, Note_on_c, 3, 57, 0
4, 13700, Note_on_c, 3, 59, 96
4, 13936, Note_on_c, 3, 59, 0
4, 13940, Note_on_c, 3, 62, 96
4, 14176, Note_on_c, 3, 62, 0
4, 14180, Note_on_c, 3, 60, 97
4, 14416, Note_on_c, 3, 60, 0
4, 14420, Note_on_c, 3, 62, 93
4, 14896, Note_on_c, 3, 62, 0
4, 14900, Note_on_c, 3, 50, 93
4, 15136, Note_on_c, 3, 50, 0
4, 15140, Note_on_c, 3, 55, 98
4, 15616, Note_on_c, 3, 55, 0
4, 15620, Note_on_c, 3, 43, 93
4, 15856, Note_on_c, 3, 43, 0
4, 15860, Note_on_c, 3, 43, 92
4, 16336, Note_on_c, 3, 43, 0
4, 16340, Note_on_c, 3, 55, 98
4, 16580, Note_on_c, 3, 55, 0
4, 16580, Note_on_c, 3, 55, 89
4, 16816, Note_on_c, 3, 55, 0
4, 16820, Note_on_c, 3, 54, 85
4, 16936, Note_on_c, 3, 54, 0
4, 16940, Note_on_c, 3, 52, 84
4, 17056, Note_on_c, 3, 52, 0
4, 17060, Note_on_c, 3, 50, 83
4, 17176, Note_on_c, 3, 50, 0
4, 17180, Note_on_c, 3, 48, 81
4, 17296, Note_on_c, 3, 48, 0
4, 17300, Note_on_c, 3, 47, 93
4, 17536, Note_on_c, 3, 47, 0
4, 17540, Note_on_c, 3, 43, 80
4, 17776, Note_on_c, 3, 43, 0
4, 17780, Note_on_c, 3, 45, 83
4, 18016, Note_on_c, 3, 45, 0
4, 18020, Note_on_c, 3, 47, 77
4, 18256, Note_on_c, 3, 47, 0
4, 18260, Note_on_c, 3, 48, 83
4, 18496, Note_on_c, 3, 48, 0
4, 18500, Note_on_c, 3, 50, 88
4, 18736, Note_on_c, 3, 50, 0
4, 18740, Note_on_c, 3, 43, 69
4, 19216, Note_on_c, 3, 43, 0
4, 19220, Note_on_c, 3, 55, 106
4, 19696, Note_on_c, 3, 55, 0
4, 19700, Note_on_c, 3, 54, 93
4, 19936, Note_on_c, 3, 54, 0
4, 19940, Note_on_c, 3, 52, 92
4, 20176, Note_on_c, 3, 52, 0
4, 20180, Note_on_c, 3, 57, 106
4, 20656, Note_on_c, 3, 57, 0
4, 20660, Note_on_c, 3, 55, 95
4, 20896, Note_on_c, 3, 55, 0
4, 20900, Note_on_c, 3, 54, 89
4, 21136, Note_on_c, 3, 54, 0
4, 21140, Note_on_c, 3, 55, 81
4, 21376, Note_on_c, 3, 55, 0
4, 21380, Note_on_c, 3, 57, 98
4, 21616, Note_on_c, 3, 57, 0
4, 21620, Note_on_c, 3, 59, 102
4, 22816, Note_on_c, 3, 59, 0
4, 22820, Note_on_c, 3, 57, 92
4, 23056, Note_on_c, 3, 57, 0
4, 23060, Note_on_c, 3, 55, 93
4, 23536, Note_on_c, 3, 55, 0
4, 23540, Note_on_c, 3, 52, 95
4, 23776, Note_on_c, 3, 52, 0
4, 23780, Note_on_c, 3, 45, 101
4, 24260, Note_on_c, 3, 45, 0
4, 24980, Note_on_c, 3, 55, 83
4, 25216, Note_on_c, 3, 55, 0
4, 25220, Note_on_c, 3, 54, 110
4, 25696, Note_on_c, 3, 54, 0
4, 25700, Note_on_c, 3, 52, 93
4, 25936, Note_on_c, 3, 52, 0
4, 25940, Note_on_c, 3, 54, 96
4, 26416, Note_on_c, 3, 54, 0
4, 26420, Note_on_c, 3, 57, 90
4, 26656, Note_on_c, 3, 57, 0
4, 26660, Note_on_c, 3, 59, 96
4, 27136, Note_on_c, 3, 59, 0
4, 27140, Note_on_c, 3, 61, 102
4, 27376, Note_on_c, 3, 61, 0
4, 27380, Note_on_c, 3, 62, 97
4, 27856, Note_on_c, 3, 62, 0
4, 27860, Note_on_c, 3, 50, 90
4, 28096, Note_on_c, 3, 50, 0
4, 28100, Note_on_c, 3, 55, 100
4, 28580, Note_on_c, 3, 55, 0
4, 28580, Note_on_c, 3, 47, 100
4, 28820, Note_on_c, 3, 47, 0
4, 28820, Note_on_c, 3, 49, 100
4, 29060, Note_on_c, 3, 49, 0
4, 29060, Note_on_c, 3, 50, 100
4, 29300, Note_on_c, 3, 50, 0
4, 29300, Note_on_c, 3, 52, 100
4, 29536, Note_on_c, 3, 52, 0
4, 29540, Note_on_c, 3, 54, 90
4, 29776, Note_on_c, 3, 54, 0
4, 29780, Note_on_c, 3, 52, 88
4, 30016, Note_on_c, 3, 52, 0
4, 30020, Note_on_c, 3, 54, 90
4, 30256, Note_on_c, 3, 54, 0
4, 30260, Note_on_c, 3, 55, 95
4, 30500, Note_on_c, 3, 55, 0
4, 30500, Note_on_c, 3, 54, 102
4, 30736, Note_on_c, 3, 54, 0
4, 30740, Note_on_c, 3, 52, 88
4, 30976, Note_on_c, 3, 52, 0
4, 30980, Note_on_c, 3, 54, 94
4, 31216, Note_on_c, 3, 54, 0
4, 31220, Note_on_c, 3, 57, 100
4, 31456, Note_on_c, 3, 57, 0
4, 31460, Note_on_c, 3, 55, 93
4, 31696, Note_on_c, 3, 55, 0
4, 31700, Note_on_c, 3, 57, 96
4, 32176, Note_on_c, 3, 57, 0
4, 32180, Note_on_c, 3, 45, 92
4, 32416, Note_on_c, 3, 45, 0
4, 32420, Note_on_c, 3, 50, 104
4, 32900, Note_on_c, 3, 50, 0
4, 32900, Note_on_c, 3, 38, 83
4, 33136, Note_on_c, 3, 38, 0
4, 33140, Note_on_c, 3, 38, 89
4, 33620, Note_on_c, 3, 38, 0
4, 33620, Note_on_c, 3, 50, 101
4, 33856, Note_on_c, 3, 50, 0
4, 33860, Note_on_c, 3, 50, 101
4, 34580, Note_on_c, 3, 50, 0
4, 34580, Note_on_c, 3, 50, 93
4, 34816, Note_on_c, 3, 50, 0
4, 34820, Note_on_c, 3, 54, 93
4, 35056, Note_on_c, 3, 54, 0
4, 35060, Note_on_c, 3, 57, 93
4, 35296, Note_on_c, 3, 57, 0
4, 35300, Note_on_c, 3, 62, 101
4, 35536, Note_on_c, 3, 62, 0
4, 35540, Note_on_c, 3, 64, 104
4, 35656, Note_on_c, 3, 64, 0
4, 35660, Note_on_c, 3, 62, 98
4, 35776, Note_on_c, 3, 62, 0
4, 35780, Note_on_c, 3, 60, 95
4, 35896, Note_on_c, 3, 60, 0
4, 35900, Note_on_c, 3, 59, 92
4, 36016, Note_on_c, 3, 59, 0
4, 36020, Note_on_c, 3, 60, 96
4, 36256, Note_on_c, 3, 60, 0
4, 36260, Note_on_c, 3, 62, 97
4, 36376, Note_on_c, 3, 62, 0
4, 36380, Note_on_c, 3, 60, 95
4, 36496, Note_on_c, 3, 60, 0
4, 36500, Note_on_c, 3, 59, 82
4, 36616, Note_on_c, 3, 59, 0
4, 36620, Note_on_c, 3, 57, 78
4, 36736, Note_on_c, 3, 57, 0
4, 36740, Note_on_c, 3, 59, 96
4, 37696, Note_on_c, 3, 59, 0
4, 37700, Note_on_c, 3, 60, 97
4, 37936, Note_on_c, 3, 60, 0
4, 37940, Note_on_c, 3, 62, 102
4, 38176, Note_on_c, 3, 62, 0
4, 38180, Note_on_c, 3, 55, 89
4, 38416, Note_on_c, 3, 55, 0
4, 38420, Note_on_c, 3, 57, 90
4, 38656, Note_on_c, 3, 57, 0
4, 38660, Note_on_c, 3, 59, 93
4, 38896, Note_on_c, 3, 59, 0
4, 38900, Note_on_c, 3, 60, 93
4, 39136, Note_on_c, 3, 60, 0
4, 39620, Note_on_c, 3, 57, 97
4, 39856, Note_on_c, 3, 57, 0
4, 40340, Note_on_c, 3, 54, 108
4, 40580, Note_on_c, 3, 54, 0
4, 41060, Note_on_c, 3, 51, 101
4, 41540, Note_on_c, 3, 51, 0
4, 41540, Note_on_c, 3, 54, 101
4, 41780, Note_on_c, 3, 54, 0
4, 41780, Note_on_c, 3, 57, 101
4, 42740, Note_on_c, 3, 57, 0
4, 42740, Note_on_c, 3, 55, 101
4, 42980, Note_on_c, 3, 55, 0
4, 42980, Note_on_c, 3, 57, 101
4, 43220, Note_on_c, 3, 57, 0
4, 43220, Note_on_c, 3, 55, 101
4, 43460, Note_on_c, 3, 55, 0
4, 43940, Note_on_c, 3, 52, 89
4, 44176, Note_on_c, 3, 52, 0
4, 44660, Note_on_c, 3, 48, 101
4, 44900, Note_on_c, 3, 48, 0
4, 45380, Note_on_c, 3, 45, 89
4, 45860, Note_on_c, 3, 45, 0
4, 45860, Note_on_c, 3, 46, 73
4, 46096, Note_on_c, 3, 46, 0
4, 46100, Note_on_c, 3, 47, 56
4, 46340, Note_on_c, 3, 47, 0
4, 46340, Note_on_c, 3, 60, 83
4, 46456, Note_on_c, 3, 60, 0
4, 46460, Note_on_c, 3, 59, 83
4, 46576, Note_on_c, 3, 59, 0
4, 46580, Note_on_c, 3, 57, 83
4, 46696, Note_on_c, 3, 57, 0
4, 46700, Note_on_c, 3, 55, 83
4, 46816, Note_on_c, 3, 55, 0
4, 46820, Note_on_c, 3, 57, 83
4, 47060, Note_on_c, 3, 57, 0
4, 47060, Note_on_c, 3, 59, 83
4, 47180, Note_on_c, 3, 59, 0
4, 47180, Note_on_c, 3, 57, 83
4, 47300, Note_on_c, 3, 57, 0
4, 47300, Note_on_c, 3, 55, 73
4, 47420, Note_on_c, 3, 55, 0
4, 47420, Note_on_c, 3, 54, 73
4, 47540, Note_on_c, 3, 54, 0
4, 47540, Note_on_c, 3, 55, 95
4, 47780, Note_on_c, 3, 55, 0
4, 47780, Note_on_c, 3, 57, 89
4, 47896, Note_on_c, 3, 57, 0
4, 47900, Note_on_c, 3, 55, 93
4, 48016, Note_on_c, 3, 55, 0
4, 48020, Note_on_c, 3, 54, 89
4, 48136, Note_on_c, 3, 54, 0
4, 48140, Note_on_c, 3, 52, 104
4, 48260, Note_on_c, 3, 52, 0
4, 48260, Note_on_c, 3, 60, 97
4, 48496, Note_on_c, 3, 60, 0
4, 48500, Note_on_c, 3, 51, 100
4, 48736, Note_on_c, 3, 51, 0
4, 48740, Note_on_c, 3, 52, 89
4, 48976, Note_on_c, 3, 52, 0
4, 48980, Note_on_c, 3, 47, 100
4, 49216, Note_on_c, 3, 47, 0
4, 49220, Note_on_c, 3, 52, 94
4, 49456, Note_on_c, 3, 52, 0
4, 49460, Note_on_c, 3, 51, 93
4, 49700, Note_on_c, 3, 51, 0
4, 49700, Note_on_c, 3, 52, 96
4, 50660, Note_on_c, 3, 52, 0
4, 50660, Note_on_c, 3, 55, 90
4, 50896, Note_on_c, 3, 55, 0
4, 50900, Note_on_c, 3, 59, 93
4, 51136, Note_on_c, 3, 59, 0
4, 51140, Note_on_c, 3, 64, 104
4, 51616, Note_on_c, 3, 64, 0
4, 51620, Note_on_c, 3, 62, 90
4, 51856, Note_on_c, 3, 62, 0
4, 51860, Note_on_c, 3, 60, 97
4, 52816, Note_on_c, 3, 60, 0
4, 52820, Note_on_c, 3, 59, 102
4, 53056, Note_on_c, 3, 59, 0
4, 53060, Note_on_c, 3, 60, 96
4, 53296, Note_on_c, 3, 60, 0
4, 53300, Note_on_c, 3, 54, 101
4, 53536, Note_on_c, 3, 54, 0
4, 53540, Note_on_c, 3, 55, 93
4, 53776, Note_on_c, 3, 55, 0
4, 53780, Note_on_c, 3, 57, 96
4, 54016, Note_on_c, 3, 57, 0
4, 54020, Note_on_c, 3, 59, 98
4, 54256, Note_on_c, 3, 59, 0
4, 54260, Note_on_c, 3, 50, 92
4, 54496, Note_on_c, 3, 50, 0
4, 54500, Note_on_c, 3, 54, 110
4, 54736, Note_on_c, 3, 54, 0
4, 54740, Note_on_c, 3, 47, 101
4, 54976, Note_on_c, 3, 47, 0
4, 54980, Note_on_c, 3, 48, 98
4, 55216, Note_on_c, 3, 48, 0
4, 55220, Note_on_c, 3, 50, 93
4, 55456, Note_on_c, 3, 50, 0
4, 55460, Note_on_c, 3, 43, 96
4, 55696, Note_on_c, 3, 43, 0
4, 55700, Note_on_c, 3, 45, 92
4, 55936, Note_on_c, 3, 45, 0
4, 55940, Note_on_c, 3, 47, 92
4, 56176, Note_on_c, 3, 47, 0
4, 56180, Note_on_c, 3, 48, 100
4, 56900, Note_on_c, 3, 48, 0
4, 56900, Note_on_c, 3, 48, 90
4, 57620, Note_on_c, 3, 48, 0
4, 57620, Note_on_c, 3, 48, 85
4, 58576, Note_on_c, 3, 48, 0
4, 58580, Note_on_c, 3, 50, 92
4, 58696, Note_on_c, 3, 50, 0
4, 58700, Note_on_c, 3, 48, 93
4, 58816, Note_on_c, 3, 48, 0
4, 58820, Note_on_c, 3, 47, 78
4, 58936, Note_on_c, 3, 47, 0
4, 58940, Note_on_c, 3, 45, 80
4, 59056, Note_on_c, 3, 45, 0
4, 59060, Note_on_c, 3, 47, 91
4, 59296, Note_on_c, 3, 47, 0
4, 59300, Note_on_c, 3, 48, 93
4, 59536, Note_on_c, 3, 48, 0
4, 59540, Note_on_c, 3, 50, 92
4, 59776, Note_on_c, 3, 50, 0
4, 59780, Note_on_c, 3, 43, 92
4, 60016, Note_on_c, 3, 43, 0
4, 60020, Note_on_c, 3, 45, 92
4, 60256, Note_on_c, 3, 45, 0
4, 60260, Note_on_c, 3, 47, 95
4, 60496, Note_on_c, 3, 47, 0
4, 60500, Note_on_c, 3, 40, 109
4, 60740, Note_on_c, 3, 40, 0
4, 61220, Note_on_c, 3, 52, 121
4, 61460, Note_on_c, 3, 52, 0
4, 61940, Note_on_c, 3, 45, 101
4, 62180, Note_on_c, 3, 45, 0
4, 62660, Note_on_c, 3, 43, 100
4, 62896, Note_on_c, 3, 43, 0
4, 62900, Note_on_c, 3, 45, 91
4, 63136, Note_on_c, 3, 45, 0
4, 63140, Note_on_c, 3, 47, 98
4, 63376, Note_on_c, 3, 47, 0
4, 63380, Note_on_c, 3, 48, 96
4, 63616, Note_on_c, 3, 48, 0
4, 63620, Note_on_c, 3, 47, 96
4, 63856, Note_on_c, 3, 47, 0
4, 63860, Note_on_c, 3, 45, 82
4, 64096, Note_on_c, 3, 45, 0
4, 64100, Note_on_c, 3, 47, 93
4, 64336, Note_on_c, 3, 47, 0
4, 64340, Note_on_c, 3, 43, 96
4, 64576, Note_on_c, 3, 43, 0
4, 64580, Note_on_c, 3, 45, 102
4, 64816, Note_on_c, 3, 45, 0
4, 64820, Note_on_c, 3, 47, 104
4, 65776, Note_on_c, 3, 47, 0
4, 65780, Note_on_c, 3, 45, 91
4, 66016, Note_on_c, 3, 45, 0
4, 66020, Note_on_c, 3, 43, 91
4, 66256, Note_on_c, 3, 43, 0
4, 66260, Note_on_c, 3, 50, 106
4, 66736, Note_on_c, 3, 50, 0
4, 66740, Note_on_c, 3, 38, 98
4, 66976, Note_on_c, 3, 38, 0
4, 66980, Note_on_c, 3, 43, 98
4, 67460, Note_on_c, 3, 43, 0
4, 67460, Note_on_c, 3, 31, 97
4, 67696, Note_on_c, 3, 31, 0
4, 67700, Note_on_c, 3, 31, 92
4, 68180, Note_on_c, 3, 31, 0
4, 68180, Note_on_c, 3, 43, 91
4, 68416, Note_on_c, 3, 43, 0
4, 68420, Note_on_c, 3, 43, 97
4, 69140, Note_on_c, 3, 43, 0
4, 70560, End_track
0, 0, End_of_file
