0, 0, Header, 1, 4, 480
1, 0, Start_track
1, 0, SMPTE_offset, 96, 0, 0, 0, 0
1, 0, Time_signature, 3, 2, 24, 8
1, 20, Tempo, 2727272
1, 70560, End_track
2, 0, Start_track
2, 0, Title_t, "goldberg.mid"
2, 140, Note_on_c, 0, 74, 91
2, 256, Note_on_c, 0, 74, 0
2, 260, Note_on_c, 0, 74, 68
2, 316, Note_on_c, 0, 74, 0
2, 320, Note_on_c, 0, 73, 68
2, 376, Note_on_c, 0, 73, 0
2, 380, Note_on_c, 0, 74, 86
2, 496, Note_on_c, 0, 74, 0
2, 500, Note_on_c, 0, 74, 91
2, 616, Note_on_c, 0, 74, 0
2, 620, Note_on_c, 0, 82, 92
2, 796, Note_on_c, 0, 82, 0
2, 800, Note_on_c, 0, 81, 96
2, 856, Note_on_c, 0, 81, 0
2, 860, Note_on_c, 0, 79, 71
2, 916, Note_on_c, 0, 79, 0
2, 920, Note_on_c, 0, 77, 71
2, 976, Note_on_c, 0, 77, 0
2, 980, Note_on_c, 0, 75, 97
2, 1096, Note_on_c, 0, 75, 0
2, 1100, Note_on_c, 0, 74, 91
2, 1336, Note_on_c, 0, 74, 0
2, 1340, Note_on_c, 0, 73, 115
2, 1576, Note_on_c, 0, 73, 0
2, 1580, Note_on_c, 0, 72, 95
2, 1696, Note_on_c, 0, 72, 0
2, 1700, Note_on_c, 0, 72, 95
2, 1756, Note_on_c, 0, 72, 0
2, 1760, Note_on_c, 0, 71, 95
2, 1816, Note_on_c, 0, 71, 0
2, 1820, Note_on_c, 0, 72, 95
2, 1936, Note_on_c, 0, 72, 0
2, 1940, Note_on_c, 0, 72, 95
2, 2056, Note_on_c, 0, 72, 0
2, 2060, Note_on_c, 0, 80, 102
2, 2236, Note_on_c, 0, 80, 0
2, 2240, Note_on_c, 0, 79, 89
2, 2296, Note_on_c, 0, 79, 0
2, 2300, Note_on_c, 0, 77, 101
2, 2356, Note_on_c, 0, 77, 0
2, 2360, Note_on_c, 0, 75, 92
2, 2416, Note_on_c, 0, 75, 0
2, 2420, Note_on_c, 0, 73, 66
2, 2536, Note_on_c, 0, 73, 0
2, 2540, Note_on_c, 0, 72, 66
2, 2776, Note_on_c, 0, 72, 0
2, 2780, Note_on_c, 0, 71, 66
2, 3020, Note_on_c, 0, 71, 0
2, 3020, Note_on_c, 0, 70, 66
2, 3136, Note_on_c, 0, 70, 0
2, 3140, Note_on_c, 0, 70, 66
2, 3200, Note_on_c, 0, 70, 0
2, 3200, Note_on_c, 0, 69, 66
2, 3260, Note_on_c, 0, 69, 0
2, 3260, Note_on_c, 0, 70, 66
2, 3376, Note_on_c, 0, 70, 0
2, 3380, Note_on_c, 0, 78, 66
2, 3496, Note_on_c, 0, 78, 0
2, 3500, Note_on_c, 0, 79, 66
2, 3740, Note_on_c, 0, 79, 0
2, 3740, Note_on_c, 0, 73, 66
2, 3980, Note_on_c, 0, 73, 0
2, 3980, Note_on_c, 0, 74, 66
2, 4220, Note_on_c, 0, 74, 0
2, 4220, Note_on_c, 0, 67, 66
2, 4340, Note_on_c, 0, 67, 0
2, 4340, Note_on_c, 0, 67, 66
2, 4460, Note_on_c, 0, 67, 0
2, 4460, Note_on_c, 0, 69, 66
2, 4520, Note_on_c, 0, 69, 0
2, 4520, Note_on_c, 0, 70, 66
2, 4580, Note_on_c, 0, 70, 0
2, 4580, Note_on_c, 0, 69, 66
2, 4820, Note_on_c, 0, 69, 0
2, 5900, Note_on_c, 0, 62, 98
2, 6000, Note_on_c, 0, 62, 0
2, 6008, Note_on_c, 0, 63, 90
2, 6024, Note_on_c, 0, 63, 0
2, 6024, Note_on_c, 0, 62, 88
2, 6076, Note_on_c, 0, 61, 102
2, 6084, Note_on_c, 0, 62, 0
2, 6124, Note_on_c, 0, 61, 0
2, 6132, Note_on_c, 0, 62, 111
2, 6232, Note_on_c, 0, 62, 0
2, 6252, Note_on_c, 0, 62, 82
2, 6368, Note_on_c, 0, 62, 0
2, 6368, Note_on_c, 0, 74, 90
2, 6552, Note_on_c, 0, 74, 0
2, 6560, Note_on_c, 0, 72, 78
2, 6620, Note_on_c, 0, 70, 71
2, 6624, Note_on_c, 0, 72, 0
2, 6680, Note_on_c, 0, 69, 91
2, 6684, Note_on_c, 0, 70, 0
2, 6740, Note_on_c, 0, 67, 85
2, 6744, Note_on_c, 0, 69, 0
2, 6800, Note_on_c, 0, 67, 0
2, 6800, Note_on_c, 0, 65, 76
2, 6860, Note_on_c, 0, 68, 106
2, 6864, Note_on_c, 0, 65, 0
2, 7032, Note_on_c, 0, 62, 95
2, 7036, Note_on_c, 0, 68, 0
2, 7092, Note_on_c, 0, 62, 0
2, 7092, Note_on_c, 0, 65, 100
2, 7336, Note_on_c, 0, 65, 0
2, 7336, Note_on_c, 0, 63, 108
2, 7432, Note_on_c, 0, 63, 0
2, 7440, Note_on_c, 0, 65, 82
2, 7456, Note_on_c, 0, 63, 57
2, 7496, Note_on_c, 0, 65, 0
2, 7516, Note_on_c, 0, 62, 83
2, 7524, Note_on_c, 0, 63, 0
2, 7572, Note_on_c, 0, 63, 102
2, 7580, Note_on_c, 0, 62, 0
2, 7672, Note_on_c, 0, 63, 0
2, 7688, Note_on_c, 0, 63, 106
2, 7804, Note_on_c, 0, 63, 0
2, 7820, Note_on_c, 0, 75, 99
2, 7988, Note_on_c, 0, 74, 95
2, 8000, Note_on_c, 0, 75, 0
2, 8044, Note_on_c, 0, 72, 104
2, 8056, Note_on_c, 0, 74, 0
2, 8104, Note_on_c, 0, 70, 102
2, 8112, Note_on_c, 0, 72, 0
2, 8164, Note_on_c, 0, 70, 0
2, 8164, Note_on_c, 0, 69, 84
2, 8224, Note_on_c, 0, 67, 83
2, 8232, Note_on_c, 0, 69, 0
2, 8284, Note_on_c, 0, 67, 0
2, 8284, Note_on_c, 0, 70, 110
2, 8476, Note_on_c, 0, 70, 0
2, 8476, Note_on_c, 0, 64, 97
2, 8532, Note_on_c, 0, 64, 0
2, 8536, Note_on_c, 0, 67, 109
2, 8784, Note_on_c, 0, 66, 108
2, 8792, Note_on_c, 0, 67, 0
2, 8868, Note_on_c, 0, 66, 0
2, 8876, Note_on_c, 0, 67, 91
2, 8888, Note_on_c, 0, 66, 96
2, 8896, Note_on_c, 0, 67, 0
2, 8956, Note_on_c, 0, 64, 101
2, 8964, Note_on_c, 0, 66, 0
2, 9016, Note_on_c, 0, 64, 0
2, 9020, Note_on_c, 0, 66, 104
2, 9140, Note_on_c, 0, 66, 0
2, 9140, Note_on_c, 0, 71, 107
2, 9216, Note_on_c, 0, 71, 0
2, 9220, Note_on_c, 0, 72, 111
2, 9296, Note_on_c, 0, 72, 0
2, 9300, Note_on_c, 0, 75, 110
2, 9376, Note_on_c, 0, 75, 0
2, 9380, Note_on_c, 0, 73, 108
2, 9460, Note_on_c, 0, 73, 0
2, 9464, Note_on_c, 0, 74, 100
2, 9536, Note_on_c, 0, 74, 0
2, 9536, Note_on_c, 0, 66, 97
2, 9612, Note_on_c, 0, 70, 108
2, 9616, Note_on_c, 0, 66, 0
2, 9688, Note_on_c, 0, 70, 0
2, 9692, Note_on_c, 0, 69, 88
2, 9764, Note_on_c, 0, 69, 0
2, 9772, Note_on_c, 0, 62, 78
2, 9856, Note_on_c, 0, 63, 119
2, 9860, Note_on_c, 0, 62, 0
2, 9936, Note_on_c, 0, 63, 0
2, 9940, Note_on_c, 0, 59, 91
2, 10016, Note_on_c, 0, 60, 101
2, 10020, Note_on_c, 0, 59, 0
2, 10216, Note_on_c, 0, 58, 108
2, 10228, Note_on_c, 0, 60, 0
2, 10276, Note_on_c, 0, 57, 102
2, 10284, Note_on_c, 0, 58, 0
2, 10336, Note_on_c, 0, 58, 106
2, 10340, Note_on_c, 0, 57, 0
2, 10604, Note_on_c, 0, 58, 0
2, 11600, Note_on_c, 0, 62, 98
2, 11660, Note_on_c, 0, 64, 102
2, 11676, Note_on_c, 0, 62, 0
2, 11720, Note_on_c, 0, 64, 0
2, 11720, Note_on_c, 0, 66, 94
2, 11776, Note_on_c, 0, 66, 0
2, 11780, Note_on_c, 0, 67, 89
2, 11840, Note_on_c, 0, 67, 0
2, 11840, Note_on_c, 0, 70, 85
2, 11900, Note_on_c, 0, 69, 102
2, 11904, Note_on_c, 0, 70, 0
2, 12140, Note_on_c, 0, 69, 0
2, 12140, Note_on_c, 0, 70, 101
2, 12376, Note_on_c, 0, 71, 104
2, 12388, Note_on_c, 0, 70, 0
2, 12496, Note_on_c, 0, 72, 104
2, 12500, Note_on_c, 0, 71, 0
2, 12616, Note_on_c, 0, 73, 110
2, 12620, Note_on_c, 0, 72, 0
2, 12856, Note_on_c, 0, 73, 0
2, 12860, Note_on_c, 0, 74, 107
2, 12980, Note_on_c, 0, 75, 99
2, 12984, Note_on_c, 0, 74, 0
2, 13096, Note_on_c, 0, 75, 0
2, 13096, Note_on_c, 0, 76, 106
2, 13276, Note_on_c, 0, 76, 0
2, 13276, Note_on_c, 0, 82, 115
2, 13340, Note_on_c, 0, 82, 0
2, 13340, Note_on_c, 0, 81, 127
2, 13396, Note_on_c, 0, 79, 106
2, 13400, Note_on_c, 0, 81, 0
2, 13460, Note_on_c, 0, 78, 106
2, 13464, Note_on_c, 0, 79, 0
2, 13516, Note_on_c, 0, 78, 0
2, 13516, Note_on_c, 0, 76, 104
2, 13580, Note_on_c, 0, 74, 106
2, 13584, Note_on_c, 0, 76, 0
2, 13820, Note_on_c, 0, 74, 0
2, 13820, Note_on_c, 0, 74, 96
2, 13940, Note_on_c, 0, 74, 0
2, 13940, Note_on_c, 0, 86, 100
2, 14060, Note_on_c, 0, 86, 0
2, 14060, Note_on_c, 0, 85, 94
2, 14300, Note_on_c, 0, 85, 0
2, 14300, Note_on_c, 0, 84, 102
2, 14416, Note_on_c, 0, 84, 0
2, 14420, Note_on_c, 0, 83, 101
2, 14540, Note_on_c, 0, 83, 0
2, 14540, Note_on_c, 0, 82, 95
2, 14720, Note_on_c, 0, 82, 0
2, 14720, Note_on_c, 0, 81, 102
2, 14780, Note_on_c, 0, 81, 0
2, 14780, Note_on_c, 0, 80, 102
2, 15020, Note_on_c, 0, 80, 0
2, 15020, Note_on_c, 0, 81, 98
2, 15200, Note_on_c, 0, 81, 0
2, 15200, Note_on_c, 0, 74, 96
2, 15260, Note_on_c, 0, 74, 0
2, 15260, Note_on_c, 0, 72, 95
2, 15320, Note_on_c, 0, 72, 0
2, 15320, Note_on_c, 0, 70, 91
2, 15380, Note_on_c, 0, 72, 86
2, 15384, Note_on_c, 0, 70, 0
2, 15440, Note_on_c, 0, 69, 80
2, 15452, Note_on_c, 0, 72, 0
2, 15500, Note_on_c, 0, 69, 0
2, 15500, Note_on_c, 0, 70, 82
2, 15560, Note_on_c, 0, 70, 0
2, 15560, Note_on_c, 0, 67, 89
2, 15620, Note_on_c, 0, 65, 95
2, 15624, Note_on_c, 0, 67, 0
2, 15680, Note_on_c, 0, 65, 0
2, 15680, Note_on_c, 0, 64, 95
2, 15740, Note_on_c, 0, 64, 0
2, 15740, Note_on_c, 0, 65, 109
2, 15800, Note_on_c, 0, 65, 0
2, 15800, Note_on_c, 0, 74, 109
2, 15860, Note_on_c, 0, 74, 0
2, 15860, Note_on_c, 0, 65, 90
2, 15920, Note_on_c, 0, 65, 0
2, 15920, Note_on_c, 0, 64, 84
2, 15980, Note_on_c, 0, 64, 0
2, 15980, Note_on_c, 0, 65, 97
2, 16100, Note_on_c, 0, 65, 0
2, 16100, Note_on_c, 0, 64, 97
2, 16340, Note_on_c, 0, 64, 0
2, 16400, Note_on_c, 0, 62, 94
2, 16456, Note_on_c, 0, 62, 0
2, 16460, Note_on_c, 0, 61, 82
2, 16516, Note_on_c, 0, 61, 0
2, 16520, Note_on_c, 0, 62, 72
2, 16580, Note_on_c, 0, 64, 81
2, 16592, Note_on_c, 0, 62, 0
2, 16640, Note_on_c, 0, 64, 0
2, 16640, Note_on_c, 0, 65, 88
2, 16700, Note_on_c, 0, 67, 97
2, 16704, Note_on_c, 0, 65, 0
2, 16760, Note_on_c, 0, 67, 0
2, 16760, Note_on_c, 0, 69, 97
2, 16820, Note_on_c, 0, 69, 0
2, 16820, Note_on_c, 0, 70, 93
2, 16880, Note_on_c, 0, 69, 93
2, 16896, Note_on_c, 0, 70, 0
2, 16940, Note_on_c, 0, 74, 97
2, 16956, Note_on_c, 0, 69, 0
2, 17120, Note_on_c, 0, 74, 0
2, 17120, Note_on_c, 0, 73, 89
2, 17180, Note_on_c, 0, 76, 109
2, 17188, Note_on_c, 0, 73, 0
2, 17412, Note_on_c, 0, 76, 0
2, 17420, Note_on_c, 0, 69, 106
2, 17532, Note_on_c, 0, 69, 0
2, 17540, Note_on_c, 0, 70, 117
2, 17592, Note_on_c, 0, 70, 0
2, 17600, Note_on_c, 0, 69, 84
2, 17652, Note_on_c, 0, 69, 0
2, 17660, Note_on_c, 0, 68, 100
2, 17688, Note_on_c, 0, 68, 0
2, 17720, Note_on_c, 0, 69, 55
2, 17772, Note_on_c, 0, 69, 0
2, 17780, Note_on_c, 0, 69, 97
2, 17892, Note_on_c, 0, 81, 111
2, 17896, Note_on_c, 0, 69, 0
2, 18076, Note_on_c, 0, 82, 104
2, 18080, Note_on_c, 0, 81, 0
2, 18124, Note_on_c, 0, 82, 0
2, 18132, Note_on_c, 0, 81, 100
2, 18188, Note_on_c, 0, 81, 0
2, 18188, Note_on_c, 0, 80, 106
2, 18252, Note_on_c, 0, 80, 0
2, 18252, Note_on_c, 0, 81, 104
2, 18308, Note_on_c, 0, 81, 0
2, 18308, Note_on_c, 0, 74, 96
2, 18364, Note_on_c, 0, 72, 96
2, 18372, Note_on_c, 0, 74, 0
2, 18424, Note_on_c, 0, 70, 102
2, 18432, Note_on_c, 0, 72, 0
2, 18492, Note_on_c, 0, 72, 97
2, 18496, Note_on_c, 0, 70, 0
2, 18504, Note_on_c, 0, 72, 0
2, 18548, Note_on_c, 0, 72, 111
2, 18604, Note_on_c, 0, 70, 84
2, 18616, Note_on_c, 0, 72, 0
2, 18668, Note_on_c, 0, 70, 0
2, 18668, Note_on_c, 0, 69, 88
2, 18724, Note_on_c, 0, 69, 0
2, 18736, Note_on_c, 0, 69, 90
2, 18856, Note_on_c, 0, 70, 106
2, 18868, Note_on_c, 0, 69, 0
2, 18944, Note_on_c, 0, 70, 0
2, 18952, Note_on_c, 0, 72, 86
2, 18964, Note_on_c, 0, 70, 89
2, 18980, Note_on_c, 0, 72, 0
2, 19032, Note_on_c, 0, 70, 0
2, 19032, Note_on_c, 0, 69, 97
2, 19088, Note_on_c, 0, 70, 86
2, 19096, Note_on_c, 0, 69, 0
2, 19180, Note_on_c, 0, 70, 0
2, 19196, Note_on_c, 0, 70, 108
2, 19316, Note_on_c, 0, 70, 0
2, 19320, Note_on_c, 0, 82, 117
2, 19516, Note_on_c, 0, 75, 112
2, 19532, Note_on_c, 0, 82, 0
2, 19576, Note_on_c, 0, 75, 0
2, 19576, Note_on_c, 0, 74, 101
2, 19636, Note_on_c, 0, 73, 97
2, 19640, Note_on_c, 0, 74, 0
2, 19700, Note_on_c, 0, 73, 0
2, 19700, Note_on_c, 0, 74, 100
2, 19756, Note_on_c, 0, 84, 96
2, 19760, Note_on_c, 0, 74, 0
2, 19816, Note_on_c, 0, 83, 109
2, 19828, Note_on_c, 0, 84, 0
2, 20052, Note_on_c, 0, 83, 0
2, 20060, Note_on_c, 0, 74, 77
2, 20180, Note_on_c, 0, 74, 0
2, 20180, Note_on_c, 0, 73, 77
2, 20300, Note_on_c, 0, 73, 0
2, 20300, Note_on_c, 0, 70, 99
2, 20540, Note_on_c, 0, 70, 0
2, 20540, Note_on_c, 0, 69, 95
2, 20640, Note_on_c, 0, 69, 0
2, 20660, Note_on_c, 0, 75, 77
2, 20780, Note_on_c, 0, 75, 0
2, 20780, Note_on_c, 0, 74, 89
2, 20960, Note_on_c, 0, 74, 0
2, 20960, Note_on_c, 0, 73, 89
2, 21020, Note_on_c, 0, 73, 0
2, 21020, Note_on_c, 0, 76, 89
2, 21080, Note_on_c, 0, 76, 0
2, 21080, Note_on_c, 0, 79, 85
2, 21140, Note_on_c, 0, 79, 0
2, 21140, Note_on_c, 0, 82, 104
2, 21260, Note_on_c, 0, 82, 0
2, 21260, Note_on_c, 0, 81, 113
2, 21440, Note_on_c, 0, 81, 0
2, 21440, Note_on_c, 0, 79, 115
2, 21500, Note_on_c, 0, 79, 0
2, 21500, Note_on_c, 0, 77, 115
2, 21560, Note_on_c, 0, 77, 0
2, 21560, Note_on_c, 0, 76, 115
2, 21620, Note_on_c, 0, 76, 0
2, 21620, Note_on_c, 0, 73, 115
2, 21860, Note_on_c, 0, 73, 0
2, 21860, Note_on_c, 0, 74, 104
2, 22100, Note_on_c, 0, 74, 0
2, 23180, Note_on_c, 0, 74, 91
2, 23296, Note_on_c, 0, 74, 0
2, 23300, Note_on_c, 0, 74, 68
2, 23356, Note_on_c, 0, 74, 0
2, 23360, Note_on_c, 0, 73, 68
2, 23416, Note_on_c, 0, 73, 0
2, 23420, Note_on_c, 0, 74, 86
2, 23536, Note_on_c, 0, 74, 0
2, 23540, Note_on_c, 0, 74, 91
2, 23656, Note_on_c, 0, 74, 0
2, 23660, Note_on_c, 0, 82, 92
2, 23836, Note_on_c, 0, 82, 0
2, 23840, Note_on_c, 0, 81, 96
2, 23896, Note_on_c, 0, 81, 0
2, 23900, Note_on_c, 0, 79, 71
2, 23956, Note_on_c, 0, 79, 0
2, 23960, Note_on_c, 0, 77, 71
2, 24016, Note_on_c, 0, 77, 0
2, 24020, Note_on_c, 0, 75, 97
2, 24136, Note_on_c, 0, 75, 0
2, 24140, Note_on_c, 0, 74, 91
2, 24376, Note_on_c, 0, 74, 0
2, 24380, Note_on_c, 0, 73, 115
2, 24616, Note_on_c, 0, 73, 0
2, 24620, Note_on_c, 0, 72, 95
2, 24736, Note_on_c, 0, 72, 0
2, 24740, Note_on_c, 0, 72, 95
2, 24796, Note_on_c, 0, 72, 0
2, 24800, Note_on_c, 0, 71, 95
2, 24856, Note_on_c, 0, 71, 0
2, 24860, Note_on_c, 0, 72, 95
2, 24976, Note_on_c, 0, 72, 0
2, 24980, Note_on_c, 0, 72, 95
2, 25096, Note_on_c, 0, 72, 0
2, 25100, Note_on_c, 0, 80, 102
2, 25276, Note_on_c, 0, 80, 0
2, 25280, Note_on_c, 0, 79, 89
2, 25336, Note_on_c, 0, 79, 0
2, 25340, Note_on_c, 0, 77, 101
2, 25396, Note_on_c, 0, 77, 0
2, 25400, Note_on_c, 0, 75, 92
2, 25456, Note_on_c, 0, 75, 0
2, 25460, Note_on_c, 0, 73, 66
2, 25576, Note_on_c, 0, 73, 0
2, 25580, Note_on_c, 0, 72, 66
2, 25816, Note_on_c, 0, 72, 0
2, 25820, Note_on_c, 0, 71, 66
2, 26060, Note_on_c, 0, 71, 0
2, 26060, Note_on_c, 0, 70, 66
2, 26176, Note_on_c, 0, 70, 0
2, 26180, Note_on_c, 0, 70, 66
2, 26240, Note_on_c, 0, 70, 0
2, 26240, Note_on_c, 0, 69, 66
2, 26300, Note_on_c, 0, 69, 0
2, 26300, Note_on_c, 0, 70, 66
2, 26416, Note_on_c, 0, 70, 0
2, 26420, Note_on_c, 0, 78, 66
2, 26536, Note_on_c, 0, 78, 0
2, 26540, Note_on_c, 0, 79, 66
2, 26780, Note_on_c, 0, 79, 0
2, 26780, Note_on_c, 0, 73, 66
2, 27020, Note_on_c, 0, 73, 0
2, 27020, Note_on_c, 0, 74, 66
2, 27260, Note_on_c, 0, 74, 0
2, 27260, Note_on_c, 0, 67, 66
2, 27380, Note_on_c, 0, 67, 0
2, 27380, Note_on_c, 0, 67, 66
2, 27500, Note_on_c, 0, 67, 0
2, 27500, Note_on_c, 0, 69, 66
2, 27560, Note_on_c, 0, 69, 0
2, 27560, Note_on_c, 0, 70, 66
2, 27620, Note_on_c, 0, 70, 0
2, 27620, Note_on_c, 0, 69, 66
2, 27860, Note_on_c, 0, 69, 0
2, 28940, Note_on_c, 0, 62, 98
2, 29040, Note_on_c, 0, 62, 0
2, 29048, Note_on_c, 0, 63, 90
2, 29064, Note_on_c, 0, 63, 0
2, 29064, Note_on_c, 0, 62, 88
2, 29116, Note_on_c, 0, 61, 102
2, 29124, Note_on_c, 0, 62, 0
2, 29164, Note_on_c, 0, 61, 0
2, 29172, Note_on_c, 0, 62, 111
2, 29272, Note_on_c, 0, 62, 0
2, 29292, Note_on_c, 0, 62, 82
2, 29408, Note_on_c, 0, 62, 0
2, 29408, Note_on_c, 0, 74, 90
2, 29592, Note_on_c, 0, 74, 0
2, 29600, Note_on_c, 0, 72, 78
2, 29660, Note_on_c, 0, 70, 71
2, 29664, Note_on_c, 0, 72, 0
2, 29720, Note_on_c, 0, 69, 91
2, 29724, Note_on_c, 0, 70, 0
2, 29780, Note_on_c, 0, 67, 85
2, 29784, Note_on_c, 0, 69, 0
2, 29840, Note_on_c, 0, 67, 0
2, 29840, Note_on_c, 0, 65, 76
2, 29900, Note_on_c, 0, 68, 106
2, 29904, Note_on_c, 0, 65, 0
2, 30072, Note_on_c, 0, 62, 95
2, 30076, Note_on_c, 0, 68, 0
2, 30132, Note_on_c, 0, 62, 0
2, 30132, Note_on_c, 0, 65, 100
2, 30376, Note_on_c, 0, 65, 0
2, 30376, Note_on_c, 0, 63, 108
2, 30472, Note_on_c, 0, 63, 0
2, 30480, Note_on_c, 0, 65, 82
2, 30496, Note_on_c, 0, 63, 57
2, 30536, Note_on_c, 0, 65, 0
2, 30556, Note_on_c, 0, 62, 83
2, 30564, Note_on_c, 0, 63, 0
2, 30612, Note_on_c, 0, 63, 102
2, 30620, Note_on_c, 0, 62, 0
2, 30712, Note_on_c, 0, 63, 0
2, 30728, Note_on_c, 0, 63, 106
2, 30844, Note_on_c, 0, 63, 0
2, 30860, Note_on_c, 0, 75, 99
2, 31028, Note_on_c, 0, 74, 95
2, 31040, Note_on_c, 0, 75, 0
2, 31084, Note_on_c, 0, 72, 104
2, 31096, Note_on_c, 0, 74, 0
2, 31144, Note_on_c, 0, 70, 102
2, 31152, Note_on_c, 0, 72, 0
2, 31204, Note_on_c, 0, 70, 0
2, 31204, Note_on_c, 0, 69, 84
2, 31264, Note_on_c, 0, 67, 83
2, 31272, Note_on_c, 0, 69, 0
2, 31324, Note_on_c, 0, 67, 0
2, 31324, Note_on_c, 0, 70, 110
2, 31516, Note_on_c, 0, 70, 0
2, 31516, Note_on_c, 0, 64, 97
2, 31572, Note_on_c, 0, 64, 0
2, 31576, Note_on_c, 0, 67, 109
2, 31824, Note_on_c, 0, 66, 108
2, 31832, Note_on_c, 0, 67, 0
2, 31908, Note_on_c, 0, 66, 0
2, 31916, Note_on_c, 0, 67, 91
2, 31928, Note_on_c, 0, 66, 96
2, 31936, Note_on_c, 0, 67, 0
2, 31996, Note_on_c, 0, 64, 101
2, 32004, Note_on_c, 0, 66, 0
2, 32056, Note_on_c, 0, 64, 0
2, 32060, Note_on_c, 0, 66, 104
2, 32180, Note_on_c, 0, 66, 0
2, 32180, Note_on_c, 0, 71, 107
2, 32256, Note_on_c, 0, 71, 0
2, 32260, Note_on_c, 0, 72, 111
2, 32336, Note_on_c, 0, 72, 0
2, 32340, Note_on_c, 0, 75, 110
2, 32416, Note_on_c, 0, 75, 0
2, 32420, Note_on_c, 0, 73, 108
2, 32500, Note_on_c, 0, 73, 0
2, 32504, Note_on_c, 0, 74, 100
2, 32576, Note_on_c, 0, 74, 0
2, 32576, Note_on_c, 0, 66, 97
2, 32652, Note_on_c, 0, 70, 108
2, 32656, Note_on_c, 0, 66, 0
2, 32728, Note_on_c, 0, 70, 0
2, 32732, Note_on_c, 0, 69, 88
2, 32804, Note_on_c, 0, 69, 0
2, 32812, Note_on_c, 0, 62, 78
2, 32896, Note_on_c, 0, 63, 119
2, 32900, Note_on_c, 0, 62, 0
2, 32976, Note_on_c, 0, 63, 0
2, 32980, Note_on_c, 0, 59, 91
2, 33056, Note_on_c, 0, 60, 101
2, 33060, Note_on_c, 0, 59, 0
2, 33256, Note_on_c, 0, 58, 108
2, 33268, Note_on_c, 0, 60, 0
2, 33316, Note_on_c, 0, 57, 102
2, 33324, Note_on_c, 0, 58, 0
2, 33376, Note_on_c, 0, 58, 106
2, 33380, Note_on_c, 0, 57, 0
2, 33644, Note_on_c, 0, 58, 0
2, 34640, Note_on_c, 0, 62, 98
2, 34700, Note_on_c, 0, 64, 102
2, 34716, Note_on_c, 0, 62, 0
2, 34760, Note_on_c, 0, 64, 0
2, 34760, Note_on_c, 0, 66, 94
2, 34816, Note_on_c, 0, 66, 0
2, 34820, Note_on_c, 0, 67, 89
2, 34880, Note_on_c, 0, 67, 0
2, 34880, Note_on_c, 0, 70, 85
2, 34940, Note_on_c, 0, 69, 102
2, 34944, Note_on_c, 0, 70, 0
2, 35180, Note_on_c, 0, 69, 0
2, 35180, Note_on_c, 0, 70, 101
2, 35416, Note_on_c, 0, 71, 104
2, 35428, Note_on_c, 0, 70, 0
2, 35536, Note_on_c, 0, 72, 104
2, 35540, Note_on_c, 0, 71, 0
2, 35656, Note_on_c, 0, 73, 110
2, 35660, Note_on_c, 0, 72, 0
2, 35896, Note_on_c, 0, 73, 0
2, 35900, Note_on_c, 0, 74, 107
2, 36020, Note_on_c, 0, 75, 99
2, 36024, Note_on_c, 0, 74, 0
2, 36136, Note_on_c, 0, 75, 0
2, 36136, Note_on_c, 0, 76, 106
2, 36316, Note_on_c, 0, 76, 0
2, 36316, Note_on_c, 0, 82, 115
2, 36380, Note_on_c, 0, 82, 0
2, 36380, Note_on_c, 0, 81, 127
2, 36436, Note_on_c, 0, 79, 106
2, 36440, Note_on_c, 0, 81, 0
2, 36500, Note_on_c, 0, 78, 106
2, 36504, Note_on_c, 0, 79, 0
2, 36556, Note_on_c, 0, 78, 0
2, 36556, Note_on_c, 0, 76, 104
2, 36620, Note_on_c, 0, 74, 106
2, 36624, Note_on_c, 0, 76, 0
2, 36860, Note_on_c, 0, 74, 0
2, 36860, Note_on_c, 0, 74, 96
2, 36980, Note_on_c, 0, 74, 0
2, 36980, Note_on_c, 0, 86, 100
2, 37100, Note_on_c, 0, 86, 0
2, 37100, Note_on_c, 0, 85, 94
2, 37340, Note_on_c, 0, 85, 0
2, 37340, Note_on_c, 0, 84, 102
2, 37456, Note_on_c, 0, 84, 0
2, 37460, Note_on_c, 0, 83, 101
2, 37580, Note_on_c, 0, 83, 0
2, 37580, Note_on_c, 0, 82, 95
2, 37760, Note_on_c, 0, 82, 0
2, 37760, Note_on_c, 0, 81, 102
2, 37820, Note_on_c, 0, 81, 0
2, 37820, Note_on_c, 0, 80, 102
2, 38060, Note_on_c, 0, 80, 0
2, 38060, Note_on_c, 0, 81, 98
2, 38240, Note_on_c, 0, 81, 0
2, 38240, Note_on_c, 0, 74, 96
2, 38300, Note_on_c, 0, 74, 0
2, 38300, Note_on_c, 0, 72, 95
2, 38360, Note_on_c, 0, 72, 0
2, 38360, Note_on_c, 0, 70, 91
2, 38420, Note_on_c, 0, 72, 86
2, 38424, Note_on_c, 0, 70, 0
2, 38480, Note_on_c, 0, 69, 80
2, 38492, Note_on_c, 0, 72, 0
2, 38540, Note_on_c, 0, 69, 0
2, 38540, Note_on_c, 0, 70, 82
2, 38600, Note_on_c, 0, 70, 0
2, 38600, Note_on_c, 0, 67, 89
2, 38660, Note_on_c, 0, 65, 95
2, 38664, Note_on_c, 0, 67, 0
2, 38720, Note_on_c, 0, 65, 0
2, 38720, Note_on_c, 0, 64, 95
2, 38780, Note_on_c, 0, 64, 0
2, 38780, Note_on_c, 0, 65, 109
2, 38840, Note_on_c, 0, 65, 0
2, 38840, Note_on_c, 0, 74, 109
2, 38900, Note_on_c, 0, 74, 0
2, 38900, Note_on_c, 0, 65, 90
2, 38960, Note_on_c, 0, 65, 0
2, 38960, Note_on_c, 0, 64, 84
2, 39020, Note_on_c, 0, 64, 0
2, 39020, Note_on_c, 0, 65, 97
2, 39140, Note_on_c, 0, 65, 0
2, 39140, Note_on_c, 0, 64, 97
2, 39380, Note_on_c, 0, 64, 0
2, 39440, Note_on_c, 0, 62, 94
2, 39496, Note_on_c, 0, 62, 0
2, 39500, Note_on_c, 0, 61, 82
2, 39556, Note_on_c, 0, 61, 0
2, 39560, Note_on_c, 0, 62, 72
2, 39620, Note_on_c, 0, 64, 81
2, 39632, Note_on_c, 0, 62, 0
2, 39680, Note_on_c, 0, 64, 0
2, 39680, Note_on_c, 0, 65, 88
2, 39740, Note_on_c, 0, 67, 97
2, 39744, Note_on_c, 0, 65, 0
2, 39800, Note_on_c, 0, 67, 0
2, 39800, Note_on_c, 0, 69, 97
2, 39860, Note_on_c, 0, 69, 0
2, 39860, Note_on_c, 0, 70, 93
2, 39920, Note_on_c, 0, 69, 93
2, 39936, Note_on_c, 0, 70, 0
2, 39980, Note_on_c, 0, 74, 97
2, 39996, Note_on_c, 0, 69, 0
2, 40160, Note_on_c, 0, 74, 0
2, 40160, Note_on_c, 0, 73, 89
2, 40220, Note_on_c, 0, 76, 109
2, 40228, Note_on_c, 0, 73, 0
2, 40452, Note_on_c, 0, 76, 0
2, 40460, Note_on_c, 0, 69, 106
2, 40572, Note_on_c, 0, 69, 0
2, 40580, Note_on_c, 0, 70, 117
2, 40632, Note_on_c, 0, 70, 0
2, 40640, Note_on_c, 0, 69, 84
2, 40692, Note_on_c, 0, 69, 0
2, 40700, Note_on_c, 0, 68, 100
2, 40728, Note_on_c, 0, 68, 0
2, 40760, Note_on_c, 0, 69, 55
2, 40812, Note_on_c, 0, 69, 0
2, 40820, Note_on_c, 0, 69, 97
2, 40932, Note_on_c, 0, 81, 111
2, 40936, Note_on_c, 0, 69, 0
2, 41116, Note_on_c, 0, 82, 104
2, 41120, Note_on_c, 0, 81, 0
2, 41164, Note_on_c, 0, 82, 0
2, 41172, Note_on_c, 0, 81, 100
2, 41228, Note_on_c, 0, 81, 0
2, 41228, Note_on_c, 0, 80, 106
2, 41292, Note_on_c, 0, 80, 0
2, 41292, Note_on_c, 0, 81, 104
2, 41348, Note_on_c, 0, 81, 0
2, 41348, Note_on_c, 0, 74, 96
2, 41404, Note_on_c, 0, 72, 96
2, 41412, Note_on_c, 0, 74, 0
2, 41464, Note_on_c, 0, 70, 102
2, 41472, Note_on_c, 0, 72, 0
2, 41532, Note_on_c, 0, 72, 97
2, 41536, Note_on_c, 0, 70, 0
2, 41544, Note_on_c, 0, 72, 0
2, 41588, Note_on_c, 0, 72, 111
2, 41644, Note_on_c, 0, 70, 84
2, 41656, Note_on_c, 0, 72, 0
2, 41708, Note_on_c, 0, 70, 0
2, 41708, Note_on_c, 0, 69, 88
2, 41764, Note_on_c, 0, 69, 0
2, 41776, Note_on_c, 0, 69, 90
2, 41896, Note_on_c, 0, 70, 106
2, 41908, Note_on_c, 0, 69, 0
2, 41984, Note_on_c, 0, 70, 0
2, 41992, Note_on_c, 0, 72, 86
2, 42004, Note_on_c, 0, 70, 89
2, 42020, Note_on_c, 0, 72, 0
2, 42072, Note_on_c, 0, 70, 0
2, 42072, Note_on_c, 0, 69, 97
2, 42128, Note_on_c, 0, 70, 86
2, 42136, Note_on_c, 0, 69, 0
2, 42220, Note_on_c, 0, 70, 0
2, 42236, Note_on_c, 0, 70, 108
2, 42356, Note_on_c, 0, 70, 0
2, 42360, Note_on_c, 0, 82, 117
2, 42556, Note_on_c, 0, 75, 112
2, 42572, Note_on_c, 0, 82, 0
2, 42616, Note_on_c, 0, 75, 0
2, 42616, Note_on_c, 0, 74, 101
2, 42676, Note_on_c, 0, 73, 97
2, 42680, Note_on_c, 0, 74, 0
2, 42740, Note_on_c, 0, 73, 0
2, 42740, Note_on_c, 0, 74, 100
2, 42796, Note_on_c, 0, 84, 96
2, 42800, Note_on_c, 0, 74, 0
2, 42856, Note_on_c, 0, 83, 109
2, 42868, Note_on_c, 0, 84, 0
2, 43092, Note_on_c, 0, 83, 0
2, 43100, Note_on_c, 0, 74, 77
2, 43220, Note_on_c, 0, 74, 0
2, 43220, Note_on_c, 0, 73, 77
2, 43340, Note_on_c, 0, 73, 0
2, 43340, Note_on_c, 0, 70, 99
2, 43580, Note_on_c, 0, 70, 0
2, 43580, Note_on_c, 0, 69, 95
2, 43680, Note_on_c, 0, 69, 0
2, 43700, Note_on_c, 0, 75, 77
2, 43820, Note_on_c, 0, 75, 0
2, 43820, Note_on_c, 0, 74, 89
2, 44000, Note_on_c, 0, 74, 0
2, 44000, Note_on_c, 0, 73, 89
2, 44060, Note_on_c, 0, 73, 0
2, 44060, Note_on_c, 0, 76, 89
2, 44120, Note_on_c, 0, 76, 0
2, 44120, Note_on_c, 0, 79, 85
2, 44180, Note_on_c, 0, 79, 0
2, 44180, Note_on_c, 0, 82, 104
2, 44300, Note_on_c, 0, 82, 0
2, 44300, Note_on_c, 0, 81, 113
2, 44480, Note_on_c, 0, 81, 0
2, 44480, Note_on_c, 0, 79, 115
2, 44540, Note_on_c, 0, 79, 0
2, 44540, Note_on_c, 0, 77, 115
2, 44600, Note_on_c, 0, 77, 0
2, 44600, Note_on_c, 0, 76, 115
2, 44660, Note_on_c, 0, 76, 0
2, 44660, Note_on_c, 0, 73, 115
2, 44900, Note_on_c, 0, 73, 0
2, 44900, Note_on_c, 0, 74, 104
2, 45140, Note_on_c, 0, 74, 0
2, 46220, Note_on_c, 0, 81, 109
2, 46312, Note_on_c, 0, 81, 0
2, 46336, Note_on_c, 0, 82, 96
2, 46348, Note_on_c, 0, 81, 100
2, 46356, Note_on_c, 0, 82, 0
2, 46400, Note_on_c, 0, 80, 96
2, 46404, Note_on_c, 0, 81, 0
2, 46452, Note_on_c, 0, 80, 0
2, 46456, Note_on_c, 0, 81, 97
2, 46564, Note_on_c, 0, 81, 0
2, 46568, Note_on_c, 0, 75, 108
2, 46684, Note_on_c, 0, 75, 0
2, 46688, Note_on_c, 0, 74, 115
2, 46876, Note_on_c, 0, 74, 0
2, 46880, Note_on_c, 0, 76, 106
2, 46932, Note_on_c, 0, 78, 99
2, 46936, Note_on_c, 0, 76, 0
2, 46992, Note_on_c, 0, 79, 102
2, 47000, Note_on_c, 0, 78, 0
2, 47056, Note_on_c, 0, 81, 106
2, 47060, Note_on_c, 0, 79, 0
2, 47108, Note_on_c, 0, 81, 0
2, 47112, Note_on_c, 0, 72, 101
2, 47176, Note_on_c, 0, 72, 0
2, 47176, Note_on_c, 0, 75, 117
2, 47424, Note_on_c, 0, 75, 0
2, 47424, Note_on_c, 0, 74, 104
2, 47660, Note_on_c, 0, 77, 119
2, 47664, Note_on_c, 0, 74, 0
2, 47760, Note_on_c, 0, 77, 0
2, 47780, Note_on_c, 0, 77, 86
2, 47840, Note_on_c, 0, 75, 99
2, 47848, Note_on_c, 0, 77, 0
2, 47900, Note_on_c, 0, 75, 0
2, 47900, Note_on_c, 0, 77, 104
2, 48008, Note_on_c, 0, 77, 0
2, 48020, Note_on_c, 0, 68, 112
2, 48140, Note_on_c, 0, 68, 0
2, 48140, Note_on_c, 0, 67, 96
2, 48320, Note_on_c, 0, 67, 0
2, 48320, Note_on_c, 0, 69, 93
2, 48376, Note_on_c, 0, 69, 0
2, 48380, Note_on_c, 0, 71, 84
2, 48428, Note_on_c, 0, 71, 0
2, 48440, Note_on_c, 0, 72, 90
2, 48496, Note_on_c, 0, 72, 0
2, 48500, Note_on_c, 0, 74, 89
2, 48552, Note_on_c, 0, 74, 0
2, 48560, Note_on_c, 0, 65, 69
2, 48616, Note_on_c, 0, 65, 0
2, 48620, Note_on_c, 0, 68, 119
2, 48856, Note_on_c, 0, 68, 0
2, 48860, Note_on_c, 0, 67, 115
2, 49100, Note_on_c, 0, 67, 0
2, 49100, Note_on_c, 0, 72, 102
2, 49340, Note_on_c, 0, 72, 0
2, 49340, Note_on_c, 0, 72, 101
2, 49456, Note_on_c, 0, 72, 0
2, 49460, Note_on_c, 0, 72, 113
2, 49520, Note_on_c, 0, 75, 94
2, 49528, Note_on_c, 0, 72, 0
2, 49580, Note_on_c, 0, 75, 0
2, 49580, Note_on_c, 0, 73, 113
2, 49820, Note_on_c, 0, 73, 0
2, 49820, Note_on_c, 0, 72, 113
2, 49940, Note_on_c, 0, 72, 0
2, 49940, Note_on_c, 0, 72, 113
2, 49992, Note_on_c, 0, 77, 101
2, 50000, Note_on_c, 0, 72, 0
2, 50052, Note_on_c, 0, 75, 110
2, 50060, Note_on_c, 0, 77, 0
2, 50240, Note_on_c, 0, 77, 106
2, 50248, Note_on_c, 0, 75, 0
2, 50300, Note_on_c, 0, 75, 104
2, 50308, Note_on_c, 0, 77, 0
2, 50356, Note_on_c, 0, 74, 106
2, 50364, Note_on_c, 0, 75, 0
2, 50420, Note_on_c, 0, 75, 96
2, 50432, Note_on_c, 0, 74, 0
2, 50476, Note_on_c, 0, 75, 0
2, 50480, Note_on_c, 0, 81, 96
2, 50524, Note_on_c, 0, 81, 0
2, 50540, Note_on_c, 0, 82, 98
2, 50660, Note_on_c, 0, 82, 0
2, 50660, Note_on_c, 0, 75, 85
2, 50780, Note_on_c, 0, 75, 0
2, 50780, Note_on_c, 0, 74, 113
2, 50900, Note_on_c, 0, 74, 0
2, 51980, Note_on_c, 0, 70, 115
2, 52068, Note_on_c, 0, 70, 0
2, 52084, Note_on_c, 0, 72, 95
2, 52092, Note_on_c, 0, 70, 85
2, 52104, Note_on_c, 0, 72, 0
2, 52148, Note_on_c, 0, 69, 81
2, 52164, Note_on_c, 0, 70, 0
2, 52208, Note_on_c, 0, 69, 0
2, 52220, Note_on_c, 0, 70, 96
2, 52340, Note_on_c, 0, 70, 0
2, 52340, Note_on_c, 0, 70, 99
2, 52444, Note_on_c, 0, 70, 0
2, 52460, Note_on_c, 0, 82, 115
2, 52640, Note_on_c, 0, 82, 0
2, 52640, Note_on_c, 0, 83, 100
2, 52692, Note_on_c, 0, 83, 0
2, 52700, Note_on_c, 0, 82, 90
2, 52760, Note_on_c, 0, 80, 97
2, 52764, Note_on_c, 0, 82, 0
2, 52820, Note_on_c, 0, 82, 82
2, 52824, Note_on_c, 0, 80, 0
2, 52940, Note_on_c, 0, 82, 0
2, 52940, Note_on_c, 0, 73, 80
2, 53120, Note_on_c, 0, 73, 0
2, 53120, Note_on_c, 0, 71, 99
2, 53180, Note_on_c, 0, 71, 0
2, 53180, Note_on_c, 0, 70, 99
2, 53420, Note_on_c, 0, 70, 0
2, 53420, Note_on_c, 0, 71, 106
2, 53540, Note_on_c, 0, 71, 0
2, 53540, Note_on_c, 0, 71, 93
2, 53600, Note_on_c, 0, 71, 0
2, 53600, Note_on_c, 0, 70, 93
2, 53660, Note_on_c, 0, 70, 0
2, 53660, Note_on_c, 0, 71, 93
2, 53780, Note_on_c, 0, 71, 0
2, 53780, Note_on_c, 0, 71, 93
2, 53900, Note_on_c, 0, 71, 0
2, 53900, Note_on_c, 0, 83, 93
2, 54080, Note_on_c, 0, 83, 0
2, 54080, Note_on_c, 0, 76, 93
2, 54140, Note_on_c, 0, 76, 0
2, 54140, Note_on_c, 0, 75, 93
2, 54200, Note_on_c, 0, 75, 0
2, 54200, Note_on_c, 0, 74, 93
2, 54260, Note_on_c, 0, 74, 0
2, 54260, Note_on_c, 0, 75, 93
2, 54320, Note_on_c, 0, 75, 0
2, 54320, Note_on_c, 0, 85, 93
2, 54380, Note_on_c, 0, 85, 0
2, 54380, Note_on_c, 0, 84, 93
2, 54620, Note_on_c, 0, 84, 0
2, 54620, Note_on_c, 0, 75, 93
2, 54740, Note_on_c, 0, 75, 0
2, 54740, Note_on_c, 0, 74, 93
2, 54860, Note_on_c, 0, 74, 0
2, 54860, Note_on_c, 0, 71, 93
2, 55100, Note_on_c, 0, 71, 0
2, 55100, Note_on_c, 0, 70, 93
2, 55220, Note_on_c, 0, 70, 0
2, 55220, Note_on_c, 0, 76, 93
2, 55340, Note_on_c, 0, 76, 0
2, 55340, Note_on_c, 0, 75, 93
2, 55520, Note_on_c, 0, 75, 0
2, 55520, Note_on_c, 0, 74, 93
2, 55580, Note_on_c, 0, 74, 0
2, 55580, Note_on_c, 0, 77, 93
2, 55640, Note_on_c, 0, 77, 0
2, 55640, Note_on_c, 0, 80, 93
2, 55700, Note_on_c, 0, 80, 0
2, 55700, Note_on_c, 0, 83, 93
2, 55820, Note_on_c, 0, 83, 0
2, 55820, Note_on_c, 0, 82, 93
2, 56000, Note_on_c, 0, 82, 0
2, 56000, Note_on_c, 0, 80, 93
2, 56060, Note_on_c, 0, 80, 0
2, 56060, Note_on_c, 0, 78, 93
2, 56120, Note_on_c, 0, 78, 0
2, 56120, Note_on_c, 0, 77, 93
2, 56180, Note_on_c, 0, 77, 0
2, 56180, Note_on_c, 0, 74, 93
2, 56420, Note_on_c, 0, 74, 0
2, 56420, Note_on_c, 0, 75, 93
2, 56660, Note_on_c, 0, 75, 0
2, 57740, Note_on_c, 0, 67, 93
2, 57860, Note_on_c, 0, 67, 0
2, 57860, Note_on_c, 0, 67, 93
2, 57920, Note_on_c, 0, 67, 0
2, 57920, Note_on_c, 0, 66, 93
2, 57980, Note_on_c, 0, 66, 0
2, 57980, Note_on_c, 0, 67, 93
2, 58100, Note_on_c, 0, 67, 0
2, 58100, Note_on_c, 0, 67, 93
2, 58220, Note_on_c, 0, 67, 0
2, 58220, Note_on_c, 0, 75, 93
2, 58400, Note_on_c, 0, 75, 0
2, 58400, Note_on_c, 0, 74, 93
2, 58460, Note_on_c, 0, 74, 0
2, 58460, Note_on_c, 0, 72, 93
2, 58520, Note_on_c, 0, 72, 0
2, 58520, Note_on_c, 0, 70, 93
2, 58580, Note_on_c, 0, 70, 0
2, 58580, Note_on_c, 0, 68, 93
2, 58700, Note_on_c, 0, 68, 0
2, 58700, Note_on_c, 0, 67, 93
2, 58940, Note_on_c, 0, 67, 0
2, 58940, Note_on_c, 0, 66, 93
2, 59180, Note_on_c, 0, 66, 0
2, 59180, Note_on_c, 0, 65, 93
2, 59300, Note_on_c, 0, 65, 0
2, 59300, Note_on_c, 0, 65, 93
2, 59360, Note_on_c, 0, 65, 0
2, 59360, Note_on_c, 0, 64, 93
2, 59420, Note_on_c, 0, 64, 0
2, 59420, Note_on_c, 0, 65, 93
2, 59540, Note_on_c, 0, 65, 0
2, 59540, Note_on_c, 0, 73, 93
2, 59780, Note_on_c, 0, 73, 0
2, 59840, Note_on_c, 0, 72, 93
2, 59900, Note_on_c, 0, 72, 0
2, 59900, Note_on_c, 0, 70, 93
2, 59960, Note_on_c, 0, 70, 0
2, 59960, Note_on_c, 0, 68, 93
2, 60020, Note_on_c, 0, 68, 0
2, 60020, Note_on_c, 0, 66, 93
2, 60140, Note_on_c, 0, 66, 0
2, 60140, Note_on_c, 0, 65, 93
2, 60380, Note_on_c, 0, 65, 0
2, 60380, Note_on_c, 0, 63, 93
2, 60620, Note_on_c, 0, 63, 0
2, 60620, Note_on_c, 0, 63, 93
2, 60740, Note_on_c, 0, 63, 0
2, 60740, Note_on_c, 0, 63, 93
2, 60800, Note_on_c, 0, 63, 0
2, 60800, Note_on_c, 0, 62, 93
2, 60860, Note_on_c, 0, 62, 0
2, 60860, Note_on_c, 0, 63, 93
2, 60980, Note_on_c, 0, 63, 0
2, 60980, Note_on_c, 0, 72, 93
2, 61220, Note_on_c, 0, 72, 0
2, 61280, Note_on_c, 0, 70, 93
2, 61340, Note_on_c, 0, 70, 0
2, 61340, Note_on_c, 0, 68, 93
2, 61400, Note_on_c, 0, 68, 0
2, 61400, Note_on_c, 0, 67, 93
2, 61460, Note_on_c, 0, 67, 0
2, 61460, Note_on_c, 0, 66, 93
2, 61580, Note_on_c, 0, 66, 0
2, 61580, Note_on_c, 0, 75, 93
2, 61760, Note_on_c, 0, 75, 0
2, 61760, Note_on_c, 0, 74, 93
2, 61820, Note_on_c, 0, 74, 0
2, 61820, Note_on_c, 0, 73, 93
2, 61940, Note_on_c, 0, 73, 0
2, 61940, Note_on_c, 0, 73, 93
2, 62060, Note_on_c, 0, 73, 0
2, 62060, Note_on_c, 0, 74, 93
2, 62180, Note_on_c, 0, 74, 0
2, 62180, Note_on_c, 0, 63, 93
2, 62300, Note_on_c, 0, 63, 0
2, 62300, Note_on_c, 0, 62, 93
2, 62420, Note_on_c, 0, 62, 0
2, 62480, Note_on_c, 0, 64, 93
2, 62540, Note_on_c, 0, 64, 0
2, 62540, Note_on_c, 0, 66, 93
2, 62600, Note_on_c, 0, 66, 0
2, 62600, Note_on_c, 0, 67, 93
2, 62660, Note_on_c, 0, 67, 0
2, 62660, Note_on_c, 0, 69, 93
2, 62720, Note_on_c, 0, 69, 0
2, 62720, Note_on_c, 0, 70, 93
2, 62780, Note_on_c, 0, 70, 0
2, 62780, Note_on_c, 0, 72, 93
2, 62840, Note_on_c, 0, 72, 0
2, 62840, Note_on_c, 0, 74, 93
2, 62900, Note_on_c, 0, 74, 0
2, 62900, Note_on_c, 0, 75, 93
2, 62960, Note_on_c, 0, 75, 0
2, 62960, Note_on_c, 0, 74, 93
2, 63020, Note_on_c, 0, 74, 0
2, 63020, Note_on_c, 0, 79, 93
2, 63200, Note_on_c, 0, 79, 0
2, 63200, Note_on_c, 0, 78, 93
2, 63260, Note_on_c, 0, 78, 0
2, 63260, Note_on_c, 0, 81, 93
2, 63500, Note_on_c, 0, 81, 0
2, 63500, Note_on_c, 0, 74, 93
2, 63620, Note_on_c, 0, 74, 0
2, 63620, Note_on_c, 0, 74, 93
2, 63680, Note_on_c, 0, 74, 0
2, 63680, Note_on_c, 0, 73, 93
2, 63740, Note_on_c, 0, 73, 0
2, 63740, Note_on_c, 0, 74, 93
2, 63860, Note_on_c, 0, 74, 0
2, 63860, Note_on_c, 0, 86, 93
2, 64100, Note_on_c, 0, 86, 0
2, 64160, Note_on_c, 0, 84, 93
2, 64220, Note_on_c, 0, 84, 0
2, 64220, Note_on_c, 0, 82, 93
2, 64280, Note_on_c, 0, 82, 0
2, 64280, Note_on_c, 0, 81, 93
2, 64340, Note_on_c, 0, 81, 0
2, 64340, Note_on_c, 0, 79, 93
2, 64400, Note_on_c, 0, 79, 0
2, 64400, Note_on_c, 0, 86, 93
2, 64460, Note_on_c, 0, 86, 0
2, 64460, Note_on_c, 0, 77, 93
2, 64640, Note_on_c, 0, 77, 0
2, 64640, Note_on_c, 0, 75, 93
2, 64700, Note_on_c, 0, 75, 0
2, 64700, Note_on_c, 0, 74, 93
2, 64760, Note_on_c, 0, 74, 0
2, 64760, Note_on_c, 0, 72, 93
2, 64820, Note_on_c, 0, 72, 0
2, 64820, Note_on_c, 0, 74, 93
2, 64880, Note_on_c, 0, 74, 0
2, 64880, Note_on_c, 0, 80, 93
2, 64940, Note_on_c, 0, 80, 0
2, 64940, Note_on_c, 0, 79, 93
2, 65000, Note_on_c, 0, 79, 0
2, 65000, Note_on_c, 0, 77, 93
2, 65060, Note_on_c, 0, 77, 0
2, 65060, Note_on_c, 0, 75, 93
2, 65120, Note_on_c, 0, 75, 0
2, 65120, Note_on_c, 0, 74, 93
2, 65180, Note_on_c, 0, 74, 0
2, 65180, Note_on_c, 0, 72, 93
2, 65240, Note_on_c, 0, 72, 0
2, 65240, Note_on_c, 0, 71, 93
2, 65300, Note_on_c, 0, 71, 0
2, 65300, Note_on_c, 0, 72, 93
2, 65360, Note_on_c, 0, 72, 0
2, 65360, Note_on_c, 0, 77, 93
2, 65420, Note_on_c, 0, 77, 0
2, 65420, Note_on_c, 0, 75, 93
2, 65480, Note_on_c, 0, 75, 0
2, 65480, Note_on_c, 0, 74, 93
2, 65540, Note_on_c, 0, 74, 0
2, 65540, Note_on_c, 0, 72, 93
2, 65600, Note_on_c, 0, 72, 0
2, 65600, Note_on_c, 0, 70, 93
2, 65660, Note_on_c, 0, 70, 0
2, 65660, Note_on_c, 0, 69, 93
2, 65720, Note_on_c, 0, 69, 0
2, 65720, Note_on_c, 0, 67, 93
2, 65780, Note_on_c, 0, 67, 0
2, 65780, Note_on_c, 0, 69, 93
2, 65840, Note_on_c, 0, 69, 0
2, 65840, Note_on_c, 0, 74, 93
2, 65900, Note_on_c, 0, 74, 0
2, 65900, Note_on_c, 0, 72, 93
2, 65960, Note_on_c, 0, 72, 0
2, 65960, Note_on_c, 0, 70, 93
2, 66020, Note_on_c, 0, 70, 0
2, 66020, Note_on_c, 0, 69, 93
2, 66080, Note_on_c, 0, 69, 0
2, 66080, Note_on_c, 0, 67, 93
2, 66140, Note_on_c, 0, 67, 0
2, 66140, Note_on_c, 0, 66, 93
2, 66200, Note_on_c, 0, 66, 0
2, 66200, Note_on_c, 0, 64, 93
2, 66260, Note_on_c, 0, 64, 0
2, 66260, Note_on_c, 0, 66, 93
2, 66320, Note_on_c, 0, 66, 0
2, 66320, Note_on_c, 0, 70, 93
2, 66380, Note_on_c, 0, 70, 0
2, 66380, Note_on_c, 0, 69, 93
2, 66440, Note_on_c, 0, 69, 0
2, 66440, Note_on_c, 0, 67, 93
2, 66500, Note_on_c, 0, 67, 0
2, 66500, Note_on_c, 0, 66, 93
2, 66560, Note_on_c, 0, 66, 0
2, 66560, Note_on_c, 0, 64, 93
2, 66620, Note_on_c, 0, 64, 0
2, 66620, Note_on_c, 0, 62, 93
2, 66680, Note_on_c, 0, 62, 0
2, 66680, Note_on_c, 0, 61, 93
2, 66740, Note_on_c, 0, 61, 0
2, 66740, Note_on_c, 0, 62, 93
2, 66800, Note_on_c, 0, 62, 0
2, 66800, Note_on_c, 0, 67, 93
2, 66860, Note_on_c, 0, 67, 0
2, 66860, Note_on_c, 0, 66, 93
2, 66920, Note_on_c, 0, 66, 0
2, 66920, Note_on_c, 0, 64, 93
2, 66980, Note_on_c, 0, 64, 0
2, 66980, Note_on_c, 0, 62, 93
2, 67040, Note_on_c, 0, 62, 0
2, 67040, Note_on_c, 0, 60, 93
2, 67100, Note_on_c, 0, 60, 0
2, 67100, Note_on_c, 0, 58, 93
2, 67160, Note_on_c, 0, 58, 0
2, 67160, Note_on_c, 0, 57, 93
2, 67220, Note_on_c, 0, 57, 0
2, 67220, Note_on_c, 0, 58, 93
2, 67280, Note_on_c, 0, 58, 0
2, 67280, Note_on_c, 0, 63, 93
2, 67340, Note_on_c, 0, 63, 0
2, 67340, Note_on_c, 0, 62, 93
2, 67400, Note_on_c, 0, 62, 0
2, 67400, Note_on_c, 0, 60, 93
2, 67460, Note_on_c, 0, 60, 0
2, 67460, Note_on_c, 0, 58, 93
2, 67520, Note_on_c, 0, 58, 0
2, 67520, Note_on_c, 0, 57, 93
2, 67580, Note_on_c, 0, 57, 0
2, 67580, Note_on_c, 0, 55, 93
2, 67640, Note_on_c, 0, 55, 0
2, 67640, Note_on_c, 0, 54, 93
2, 67700, Note_on_c, 0, 54, 0
2, 67700, Note_on_c, 0, 54, 93
2, 67940, Note_on_c, 0, 54, 0
2, 67940, Note_on_c, 0, 55, 93
2, 68420, Note_on_c, 0, 55, 0
2, 70560, End_track
3, 0, Start_track
3, 0, Title_t, "goldberg.mid"
3, 20, Note_on_c, 2, 58, 94
3, 500, Note_on_c, 2, 58, 0
3, 740, Note_on_c, 2, 62, 90
3, 976, Note_on_c, 2, 62, 0
3, 980, Note_on_c, 2, 60, 93
3, 1216, Note_on_c, 2, 60, 0
3, 1220, Note_on_c, 2, 58, 93
3, 1456, Note_on_c, 2, 58, 0
3, 1460, Note_on_c, 2, 57, 90
3, 1936, Note_on_c, 2, 57, 0
3, 2180, Note_on_c, 2, 60, 98
3, 2416, Note_on_c, 2, 60, 0
3, 2420, Note_on_c, 2, 58, 99
3, 2656, Note_on_c, 2, 58, 0
3, 2660, Note_on_c, 2, 56, 90
3, 2896, Note_on_c, 2, 56, 0
3, 2900, Note_on_c, 2, 55, 85
3, 3380, Note_on_c, 2, 55, 0
3, 3620, Note_on_c, 2, 58, 96
3, 3856, Note_on_c, 2, 58, 0
3, 3860, Note_on_c, 2, 57, 97
3, 4096, Note_on_c, 2, 57, 0
3, 4100, Note_on_c, 2, 55, 93
3, 4576, Note_on_c, 2, 55, 0
3, 4580, Note_on_c, 2, 54, 97
3, 4696, Note_on_c, 2, 54, 0
3, 4700, Note_on_c, 2, 52, 89
3, 4816, Note_on_c, 2, 52, 0
3, 4820, Note_on_c, 2, 54, 99
3, 4936, Note_on_c, 2, 54, 0
3, 4940, Note_on_c, 2, 57, 102
3, 5176, Note_on_c, 2, 57, 0
3, 5180, Note_on_c, 2, 60, 107
3, 5416, Note_on_c, 2, 60, 0
3, 5420, Note_on_c, 2, 54, 110
3, 5656, Note_on_c, 2, 54, 0
3, 5660, Note_on_c, 2, 57, 107
3, 5896, Note_on_c, 2, 57, 0
3, 5900, Note_on_c, 2, 54, 97
3, 6020, Note_on_c, 2, 54, 0
3, 6020, Note_on_c, 2, 55, 96
3, 6260, Note_on_c, 2, 55, 0
3, 6500, Note_on_c, 2, 55, 100
3, 6736, Note_on_c, 2, 55, 0
3, 6740, Note_on_c, 2, 50, 83
3, 6856, Note_on_c, 2, 50, 0
3, 6860, Note_on_c, 2, 53, 111
3, 6976, Note_on_c, 2, 53, 0
3, 6980, Note_on_c, 2, 55, 100
3, 7096, Note_on_c, 2, 55, 0
3, 7100, Note_on_c, 2, 56, 106
3, 7216, Note_on_c, 2, 56, 0
3, 7220, Note_on_c, 2, 56, 108
3, 7456, Note_on_c, 2, 56, 0
3, 7460, Note_on_c, 2, 55, 109
3, 7696, Note_on_c, 2, 55, 0
3, 7940, Note_on_c, 2, 57, 111
3, 8176, Note_on_c, 2, 57, 0
3, 8180, Note_on_c, 2, 52, 97
3, 8296, Note_on_c, 2, 52, 0
3, 8300, Note_on_c, 2, 55, 98
3, 8416, Note_on_c, 2, 55, 0
3, 8420, Note_on_c, 2, 57, 100
3, 8536, Note_on_c, 2, 57, 0
3, 8540, Note_on_c, 2, 58, 112
3, 8656, Note_on_c, 2, 58, 0
3, 8660, Note_on_c, 2, 58, 112
3, 8896, Note_on_c, 2, 58, 0
3, 8900, Note_on_c, 2, 57, 107
3, 9136, Note_on_c, 2, 57, 0
3, 9380, Note_on_c, 2, 57, 97
3, 9616, Note_on_c, 2, 57, 0
3, 9620, Note_on_c, 2, 55, 93
3, 9856, Note_on_c, 2, 55, 0
3, 9860, Note_on_c, 2, 54, 108
3, 10340, Note_on_c, 2, 54, 0
3, 10340, Note_on_c, 2, 55, 98
3, 10456, Note_on_c, 2, 55, 0
3, 10460, Note_on_c, 2, 54, 104
3, 10576, Note_on_c, 2, 54, 0
3, 10580, Note_on_c, 2, 55, 104
3, 10696, Note_on_c, 2, 55, 0
3, 10700, Note_on_c, 2, 50, 107
3, 10936, Note_on_c, 2, 50, 0
3, 10940, Note_on_c, 2, 51, 115
3, 11120, Note_on_c, 2, 51, 0
3, 11120, Note_on_c, 2, 50, 90
3, 11176, Note_on_c, 2, 50, 0
3, 11180, Note_on_c, 2, 55, 106
3, 11360, Note_on_c, 2, 55, 0
3, 11360, Note_on_c, 2, 54, 96
3, 11416, Note_on_c, 2, 54, 0
3, 11420, Note_on_c, 2, 60, 113
3, 11656, Note_on_c, 2, 60, 0
3, 11660, Note_on_c, 2, 58, 92
3, 11716, Note_on_c, 2, 58, 0
3, 11720, Note_on_c, 2, 57, 85
3, 11776, Note_on_c, 2, 57, 0
3, 11780, Note_on_c, 2, 58, 102
3, 12016, Note_on_c, 2, 58, 0
3, 12260, Note_on_c, 2, 67, 102
3, 12496, Note_on_c, 2, 67, 0
3, 12500, Note_on_c, 2, 67, 102
3, 12736, Note_on_c, 2, 67, 0
3, 12740, Note_on_c, 2, 67, 102
3, 12976, Note_on_c, 2, 67, 0
3, 12980, Note_on_c, 2, 67, 102
3, 13216, Note_on_c, 2, 67, 0
3, 13220, Note_on_c, 2, 66, 102
3, 13456, Note_on_c, 2, 66, 0
3, 13700, Note_on_c, 2, 65, 102
3, 13936, Note_on_c, 2, 65, 0
3, 13940, Note_on_c, 2, 65, 102
3, 14176, Note_on_c, 2, 65, 0
3, 14180, Note_on_c, 2, 65, 102
3, 14416, Note_on_c, 2, 65, 0
3, 14420, Note_on_c, 2, 65, 102
3, 14656, Note_on_c, 2, 65, 0
3, 14660, Note_on_c, 2, 64, 102
3, 14896, Note_on_c, 2, 64, 0
3, 15140, Note_on_c, 2, 63, 102
3, 15376, Note_on_c, 2, 63, 0
3, 15380, Note_on_c, 2, 63, 102
3, 15616, Note_on_c, 2, 63, 0
3, 15620, Note_on_c, 2, 62, 102
3, 15856, Note_on_c, 2, 62, 0
3, 15860, Note_on_c, 2, 62, 102
3, 16096, Note_on_c, 2, 62, 0
3, 16100, Note_on_c, 2, 61, 102
3, 16336, Note_on_c, 2, 61, 0
3, 17540, Note_on_c, 2, 62, 102
3, 17776, Note_on_c, 2, 62, 0
3, 17780, Note_on_c, 2, 62, 102
3, 18016, Note_on_c, 2, 62, 0
3, 18020, Note_on_c, 2, 63, 102
3, 18256, Note_on_c, 2, 63, 0
3, 18260, Note_on_c, 2, 63, 102
3, 18740, Note_on_c, 2, 63, 0
3, 18980, Note_on_c, 2, 64, 102
3, 19220, Note_on_c, 2, 64, 0
3, 19220, Note_on_c, 2, 64, 102
3, 19460, Note_on_c, 2, 64, 0
3, 19460, Note_on_c, 2, 65, 102
3, 19700, Note_on_c, 2, 65, 0
3, 19700, Note_on_c, 2, 65, 102
3, 20180, Note_on_c, 2, 65, 0
3, 20420, Note_on_c, 2, 66, 102
3, 20660, Note_on_c, 2, 66, 0
3, 20660, Note_on_c, 2, 66, 102
3, 20900, Note_on_c, 2, 66, 0
3, 20900, Note_on_c, 2, 67, 102
3, 21140, Note_on_c, 2, 67, 0
3, 21140, Note_on_c, 2, 67, 102
3, 21860, Note_on_c, 2, 67, 0
3, 21860, Note_on_c, 2, 66, 102
3, 21980, Note_on_c, 2, 66, 0
3, 21980, Note_on_c, 2, 64, 102
3, 22100, Note_on_c, 2, 64, 0
3, 22100, Note_on_c, 2, 66, 102
3, 22580, Note_on_c, 2, 66, 0
3, 23060, Note_on_c, 2, 58, 94
3, 23540, Note_on_c, 2, 58, 0
3, 23780, Note_on_c, 2, 62, 90
3, 24016, Note_on_c, 2, 62, 0
3, 24020, Note_on_c, 2, 60, 93
3, 24256, Note_on_c, 2, 60, 0
3, 24260, Note_on_c, 2, 58, 93
3, 24496, Note_on_c, 2, 58, 0
3, 24500, Note_on_c, 2, 57, 90
3, 24976, Note_on_c, 2, 57, 0
3, 25220, Note_on_c, 2, 60, 98
3, 25456, Note_on_c, 2, 60, 0
3, 25460, Note_on_c, 2, 58, 99
3, 25696, Note_on_c, 2, 58, 0
3, 25700, Note_on_c, 2, 56, 90
3, 25936, Note_on_c, 2, 56, 0
3, 25940, Note_on_c, 2, 55, 85
3, 26420, Note_on_c, 2, 55, 0
3, 26660, Note_on_c, 2, 58, 96
3, 26896, Note_on_c, 2, 58, 0
3, 26900, Note_on_c, 2, 57, 97
3, 27136, Note_on_c, 2, 57, 0
3, 27140, Note_on_c, 2, 55, 93
3, 27616, Note_on_c, 2, 55, 0
3, 27620, Note_on_c, 2, 54, 97
3, 27736, Note_on_c, 2, 54, 0
3, 27740, Note_on_c, 2, 52, 89
3, 27856, Note_on_c, 2, 52, 0
3, 27860, Note_on_c, 2, 54, 99
3, 27976, Note_on_c, 2, 54, 0
3, 27980, Note_on_c, 2, 57, 102
3, 28216, Note_on_c, 2, 57, 0
3, 28220, Note_on_c, 2, 60, 107
3, 28456, Note_on_c, 2, 60, 0
3, 28460, Note_on_c, 2, 54, 110
3, 28696, Note_on_c, 2, 54, 0
3, 28700, Note_on_c, 2, 57, 107
3, 28936, Note_on_c, 2, 57, 0
3, 28940, Note_on_c, 2, 54, 97
3, 29060, Note_on_c, 2, 54, 0
3, 29060, Note_on_c, 2, 55, 96
3, 29300, Note_on_c, 2, 55, 0
3, 29540, Note_on_c, 2, 55, 100
3, 29776, Note_on_c, 2, 55, 0
3, 29780, Note_on_c, 2, 50, 83
3, 29896, Note_on_c, 2, 50, 0
3, 29900, Note_on_c, 2, 53, 111
3, 30016, Note_on_c, 2, 53, 0
3, 30020, Note_on_c, 2, 55, 100
3, 30136, Note_on_c, 2, 55, 0
3, 30140, Note_on_c, 2, 56, 106
3, 30256, Note_on_c, 2, 56, 0
3, 30260, Note_on_c, 2, 56, 108
3, 30496, Note_on_c, 2, 56, 0
3, 30500, Note_on_c, 2, 55, 109
3, 30736, Note_on_c, 2, 55, 0
3, 30980, Note_on_c, 2, 57, 111
3, 31216, Note_on_c, 2, 57, 0
3, 31220, Note_on_c, 2, 52, 97
3, 31336, Note_on_c, 2, 52, 0
3, 31340, Note_on_c, 2, 55, 98
3, 31456, Note_on_c, 2, 55, 0
3, 31460, Note_on_c, 2, 57, 100
3, 31576, Note_on_c, 2, 57, 0
3, 31580, Note_on_c, 2, 58, 112
3, 31696, Note_on_c, 2, 58, 0
3, 31700, Note_on_c, 2, 58, 112
3, 31936, Note_on_c, 2, 58, 0
3, 31940, Note_on_c, 2, 57, 107
3, 32176, Note_on_c, 2, 57, 0
3, 32420, Note_on_c, 2, 57, 97
3, 32656, Note_on_c, 2, 57, 0
3, 32660, Note_on_c, 2, 55, 93
3, 32896, Note_on_c, 2, 55, 0
3, 32900, Note_on_c, 2, 54, 108
3, 33380, Note_on_c, 2, 54, 0
3, 33380, Note_on_c, 2, 55, 98
3, 33496, Note_on_c, 2, 55, 0
3, 33500, Note_on_c, 2, 54, 104
3, 33616, Note_on_c, 2, 54, 0
3, 33620, Note_on_c, 2, 55, 104
3, 33736, Note_on_c, 2, 55, 0
3, 33740, Note_on_c, 2, 50, 107
3, 33976, Note_on_c, 2, 50, 0
3, 33980, Note_on_c, 2, 51, 115
3, 34160, Note_on_c, 2, 51, 0
3, 34160, Note_on_c, 2, 50, 90
3, 34216, Note_on_c, 2, 50, 0
3, 34220, Note_on_c, 2, 55, 106
3, 34400, Note_on_c, 2, 55, 0
3, 34400, Note_on_c, 2, 54, 96
3, 34456, Note_on_c, 2, 54, 0
3, 34460, Note_on_c, 2, 60, 113
3, 34696, Note_on_c, 2, 60, 0
3, 34700, Note_on_c, 2, 58, 92
3, 34756, Note_on_c, 2, 58, 0
3, 34760, Note_on_c, 2, 57, 85
3, 34816, Note_on_c, 2, 57, 0
3, 34820, Note_on_c, 2, 58, 102
3, 35056, Note_on_c, 2, 58, 0
3, 35300, Note_on_c, 2, 67, 102
3, 35536, Note_on_c, 2, 67, 0
3, 35540, Note_on_c, 2, 67, 102
3, 35776, Note_on_c, 2, 67, 0
3, 35780, Note_on_c, 2, 67, 102
3, 36016, Note_on_c, 2, 67, 0
3, 36020, Note_on_c, 2, 67, 102
3, 36256, Note_on_c, 2, 67, 0
3, 36260, Note_on_c, 2, 66, 102
3, 36496, Note_on_c, 2, 66, 0
3, 36740, Note_on_c, 2, 65, 102
3, 36976, Note_on_c, 2, 65, 0
3, 36980, Note_on_c, 2, 65, 102
3, 37216, Note_on_c, 2, 65, 0
3, 37220, Note_on_c, 2, 65, 102
3, 37456, Note_on_c, 2, 65, 0
3, 37460, Note_on_c, 2, 65, 102
3, 37696, Note_on_c, 2, 65, 0
3, 37700, Note_on_c, 2, 64, 102
3, 37936, Note_on_c, 2, 64, 0
3, 38180, Note_on_c, 2, 63, 102
3, 38416, Note_on_c, 2, 63, 0
3, 38420, Note_on_c, 2, 63, 102
3, 38656, Note_on_c, 2, 63, 0
3, 38660, Note_on_c, 2, 62, 102
3, 38896, Note_on_c, 2, 62, 0
3, 38900, Note_on_c, 2, 62, 102
3, 39136, Note_on_c, 2, 62, 0
3, 39140, Note_on_c, 2, 61, 102
3, 39376, Note_on_c, 2, 61, 0
3, 40580, Note_on_c, 2, 62, 102
3, 40816, Note_on_c, 2, 62, 0
3, 40820, Note_on_c, 2, 62, 102
3, 41056, Note_on_c, 2, 62, 0
3, 41060, Note_on_c, 2, 63, 102
3, 41296, Note_on_c, 2, 63, 0
3, 41300, Note_on_c, 2, 63, 102
3, 41780, Note_on_c, 2, 63, 0
3, 42020, Note_on_c, 2, 64, 102
3, 42260, Note_on_c, 2, 64, 0
3, 42260, Note_on_c, 2, 64, 102
3, 42500, Note_on_c, 2, 64, 0
3, 42500, Note_on_c, 2, 65, 102
3, 42740, Note_on_c, 2, 65, 0
3, 42740, Note_on_c, 2, 65, 102
3, 43220, Note_on_c, 2, 65, 0
3, 43460, Note_on_c, 2, 66, 102
3, 43700, Note_on_c, 2, 66, 0
3, 43700, Note_on_c, 2, 66, 102
3, 43940, Note_on_c, 2, 66, 0
3, 43940, Note_on_c, 2, 67, 102
3, 44180, Note_on_c, 2, 67, 0
3, 44180, Note_on_c, 2, 67, 102
3, 44900, Note_on_c, 2, 67, 0
3, 44900, Note_on_c, 2, 66, 102
3, 45020, Note_on_c, 2, 66, 0
3, 45020, Note_on_c, 2, 64, 102
3, 45140, Note_on_c, 2, 64, 0
3, 45140, Note_on_c, 2, 66, 102
3, 45620, Note_on_c, 2, 66, 0
3, 46340, Note_on_c, 2, 65, 113
3, 46576, Note_on_c, 2, 65, 0
3, 46580, Note_on_c, 2, 65, 98
3, 46820, Note_on_c, 2, 65, 0
3, 46820, Note_on_c, 2, 66, 101
3, 47060, Note_on_c, 2, 66, 0
3, 47060, Note_on_c, 2, 66, 104
3, 47300, Note_on_c, 2, 66, 0
3, 47300, Note_on_c, 2, 67, 113
3, 47536, Note_on_c, 2, 67, 0
3, 47540, Note_on_c, 2, 67, 107
3, 47776, Note_on_c, 2, 67, 0
3, 47780, Note_on_c, 2, 62, 109
3, 48020, Note_on_c, 2, 62, 0
3, 48260, Note_on_c, 2, 65, 113
3, 48496, Note_on_c, 2, 65, 0
3, 48500, Note_on_c, 2, 65, 109
3, 48736, Note_on_c, 2, 65, 0
3, 48740, Note_on_c, 2, 63, 115
3, 48976, Note_on_c, 2, 63, 0
3, 48980, Note_on_c, 2, 63, 117
3, 49216, Note_on_c, 2, 63, 0
3, 49220, Note_on_c, 2, 62, 109
3, 49456, Note_on_c, 2, 62, 0
3, 49460, Note_on_c, 2, 63, 119
3, 49696, Note_on_c, 2, 63, 0
3, 49700, Note_on_c, 2, 64, 107
3, 49936, Note_on_c, 2, 64, 0
3, 49940, Note_on_c, 2, 65, 106
3, 50176, Note_on_c, 2, 65, 0
3, 50180, Note_on_c, 2, 66, 108
3, 50656, Note_on_c, 2, 66, 0
3, 50660, Note_on_c, 2, 65, 107
3, 50776, Note_on_c, 2, 65, 0
3, 50780, Note_on_c, 2, 66, 106
3, 50896, Note_on_c, 2, 66, 0
3, 50900, Note_on_c, 2, 68, 115
3, 51020, Note_on_c, 2, 68, 0
3, 51020, Note_on_c, 2, 62, 92
3, 51260, Note_on_c, 2, 62, 0
3, 51260, Note_on_c, 2, 63, 92
3, 51320, Note_on_c, 2, 63, 0
3, 51320, Note_on_c, 2, 65, 92
3, 51380, Note_on_c, 2, 65, 0
3, 51380, Note_on_c, 2, 66, 92
3, 51440, Note_on_c, 2, 66, 0
3, 51440, Note_on_c, 2, 63, 92
3, 51500, Note_on_c, 2, 63, 0
3, 51500, Note_on_c, 2, 65, 106
3, 51740, Note_on_c, 2, 65, 0
3, 51740, Note_on_c, 2, 59, 106
3, 51860, Note_on_c, 2, 59, 0
3, 51860, Note_on_c, 2, 59, 101
3, 51980, Note_on_c, 2, 59, 0
3, 51980, Note_on_c, 2, 58, 101
3, 52100, Note_on_c, 2, 58, 0
3, 52100, Note_on_c, 2, 63, 101
3, 52340, Note_on_c, 2, 63, 0
3, 52340, Note_on_c, 2, 63, 121
3, 52580, Note_on_c, 2, 63, 0
3, 52580, Note_on_c, 2, 64, 121
3, 52820, Note_on_c, 2, 64, 0
3, 52820, Note_on_c, 2, 64, 102
3, 53300, Note_on_c, 2, 64, 0
3, 53540, Note_on_c, 2, 65, 109
3, 53776, Note_on_c, 2, 65, 0
3, 53780, Note_on_c, 2, 65, 121
3, 54016, Note_on_c, 2, 65, 0
3, 54020, Note_on_c, 2, 66, 117
3, 54256, Note_on_c, 2, 66, 0
3, 54260, Note_on_c, 2, 66, 110
3, 54740, Note_on_c, 2, 66, 0
3, 54980, Note_on_c, 2, 67, 115
3, 55216, Note_on_c, 2, 67, 0
3, 55220, Note_on_c, 2, 67, 111
3, 55456, Note_on_c, 2, 67, 0
3, 55460, Note_on_c, 2, 68, 123
3, 55700, Note_on_c, 2, 68, 0
3, 55700, Note_on_c, 2, 68, 121
3, 56416, Note_on_c, 2, 68, 0
3, 56420, Note_on_c, 2, 67, 117
3, 56536, Note_on_c, 2, 67, 0
3, 56540, Note_on_c, 2, 65, 111
3, 56656, Note_on_c, 2, 65, 0
3, 56660, Note_on_c, 2, 67, 111
3, 57020, Note_on_c, 2, 67, 0
3, 57020, Note_on_c, 2, 69, 92
3, 57076, Note_on_c, 2, 69, 0
3, 57080, Note_on_c, 2, 71, 95
3, 57136, Note_on_c, 2, 71, 0
3, 57140, Note_on_c, 2, 72, 107
3, 57200, Note_on_c, 2, 72, 0
3, 57200, Note_on_c, 2, 65, 102
3, 57260, Note_on_c, 2, 65, 0
3, 57260, Note_on_c, 2, 68, 119
3, 57500, Note_on_c, 2, 68, 0
3, 57500, Note_on_c, 2, 67, 119
3, 57620, Note_on_c, 2, 67, 0
3, 57620, Note_on_c, 2, 65, 115
3, 57860, Note_on_c, 2, 65, 0
3, 57860, Note_on_c, 2, 63, 113
3, 58100, Note_on_c, 2, 63, 0
3, 58340, Note_on_c, 2, 67, 109
3, 58576, Note_on_c, 2, 67, 0
3, 58580, Note_on_c, 2, 65, 111
3, 58816, Note_on_c, 2, 65, 0
3, 58820, Note_on_c, 2, 63, 112
3, 59056, Note_on_c, 2, 63, 0
3, 59060, Note_on_c, 2, 62, 111
3, 59540, Note_on_c, 2, 62, 0
3, 59780, Note_on_c, 2, 65, 104
3, 60016, Note_on_c, 2, 65, 0
3, 60020, Note_on_c, 2, 63, 117
3, 60256, Note_on_c, 2, 63, 0
3, 60260, Note_on_c, 2, 61, 112
3, 60496, Note_on_c, 2, 61, 0
3, 60500, Note_on_c, 2, 60, 107
3, 60976, Note_on_c, 2, 60, 0
3, 61220, Note_on_c, 2, 63, 117
3, 61336, Note_on_c, 2, 63, 0
3, 61340, Note_on_c, 2, 62, 104
3, 61456, Note_on_c, 2, 62, 0
3, 61460, Note_on_c, 2, 60, 107
3, 61696, Note_on_c, 2, 60, 0
3, 61700, Note_on_c, 2, 58, 119
3, 61936, Note_on_c, 2, 58, 0
3, 61940, Note_on_c, 2, 57, 115
3, 62296, Note_on_c, 2, 57, 0
3, 62300, Note_on_c, 2, 57, 104
3, 62416, Note_on_c, 2, 57, 0
3, 62420, Note_on_c, 2, 62, 119
3, 62656, Note_on_c, 2, 62, 0
3, 62660, Note_on_c, 2, 60, 107
3, 62896, Note_on_c, 2, 60, 0
3, 62900, Note_on_c, 2, 58, 110
3, 63136, Note_on_c, 2, 58, 0
3, 63140, Note_on_c, 2, 57, 104
3, 63376, Note_on_c, 2, 57, 0
3, 63380, Note_on_c, 2, 50, 109
3, 63616, Note_on_c, 2, 50, 0
3, 63620, Note_on_c, 2, 54, 108
3, 63856, Note_on_c, 2, 54, 0
3, 63860, Note_on_c, 2, 54, 101
3, 64096, Note_on_c, 2, 54, 0
3, 64100, Note_on_c, 2, 55, 104
3, 64336, Note_on_c, 2, 55, 0
3, 64340, Note_on_c, 2, 55, 91
3, 64576, Note_on_c, 2, 55, 0
3, 64580, Note_on_c, 2, 56, 117
3, 64816, Note_on_c, 2, 56, 0
3, 65060, Note_on_c, 2, 55, 109
3, 65296, Note_on_c, 2, 55, 0
3, 65300, Note_on_c, 2, 55, 102
3, 65536, Note_on_c, 2, 55, 0
3, 65540, Note_on_c, 2, 57, 106
3, 65776, Note_on_c, 2, 57, 0
3, 65780, Note_on_c, 2, 57, 113
3, 66016, Note_on_c, 2, 57, 0
3, 66020, Note_on_c, 2, 58, 110
3, 66256, Note_on_c, 2, 58, 0
3, 66500, Note_on_c, 2, 57, 102
3, 66736, Note_on_c, 2, 57, 0
3, 66740, Note_on_c, 2, 57, 92
3, 66976, Note_on_c, 2, 57, 0
3, 66980, Note_on_c, 2, 58, 117
3, 67220, Note_on_c, 2, 58, 0
3, 67220, Note_on_c, 2, 58, 115
3, 67456, Note_on_c, 2, 58, 0
3, 67460, Note_on_c, 2, 60, 115
3, 67936, Note_on_c, 2, 60, 0
3, 67940, Note_on_c, 2, 58, 112
3, 68056, Note_on_c, 2, 58, 0
3, 68060, Note_on_c, 2, 57, 106
3, 68176, Note_on_c, 2, 57, 0
3, 68180, Note_on_c, 2, 58, 108
3, 68660, Note_on_c, 2, 58, 0
3, 70560, End_track
4, 0, Start_track
4, 0, Title_t, "goldberg.mid"
4, 20, Note_on_c, 3, 55, 74
4, 500, Note_on_c, 3, 55, 0
4, 596, Control_c, 3, 64, 127
4, 644, Control_c, 3, 64, 0
4, 740, Note_on_c, 3, 55, 101
4, 980, Note_on_c, 3, 55, 0
4, 980, Note_on_c, 3, 55, 93
4, 1220, Note_on_c, 3, 55, 0
4, 1220, Note_on_c, 3, 55, 98
4, 1460, Note_on_c, 3, 55, 0
4, 1460, Note_on_c, 3, 55, 101
4, 1700, Note_on_c, 3, 55, 0
4, 1700, Note_on_c, 3, 54, 99
4, 1940, Note_on_c, 3, 54, 0
4, 2180, Note_on_c, 3, 53, 99
4, 2420, Note_on_c, 3, 53, 0
4, 2420, Note_on_c, 3, 53, 99
4, 2660, Note_on_c, 3, 53, 0
4, 2660, Note_on_c, 3, 53, 99
4, 2900, Note_on_c, 3, 53, 0
4, 2900, Note_on_c, 3, 53, 99
4, 3140, Note_on_c, 3, 53, 0
4, 3140, Note_on_c, 3, 52, 99
4, 3380, Note_on_c, 3, 52, 0
4, 3620, Note_on_c, 3, 51, 99
4, 3860, Note_on_c, 3, 51, 0
4, 3860, Note_on_c, 3, 51, 99
4, 4100, Note_on_c, 3, 51, 0
4, 4100, Note_on_c, 3, 51, 99
4, 4340, Note_on_c, 3, 51, 0
4, 4340, Note_on_c, 3, 50, 99
4, 4820, Note_on_c, 3, 50, 0
4, 5060, Note_on_c, 3, 51, 99
4, 5300, Note_on_c, 3, 51, 0
4, 5300, Note_on_c, 3, 50, 99
4, 5540, Note_on_c, 3, 50, 0
4, 5540, Note_on_c, 3, 48, 99
4, 5780, Note_on_c, 3, 48, 0
4, 5780, Note_on_c, 3, 46, 99
4, 6260, Note_on_c, 3, 46, 0
4, 6500, Note_on_c, 3, 46, 99
4, 6740, Note_on_c, 3, 46, 0
4, 6740, Note_on_c, 3, 47, 99
4, 6980, Note_on_c, 3, 47, 0
4, 6980, Note_on_c, 3, 47, 99
4, 7220, Note_on_c, 3, 47, 0
4, 7220, Note_on_c, 3, 47, 99
4, 7460, Note_on_c, 3, 47, 0
4, 7460, Note_on_c, 3, 48, 99
4, 7700, Note_on_c, 3, 48, 0
4, 7940, Note_on_c, 3, 48, 99
4, 8180, Note_on_c, 3, 48, 0
4, 8180, Note_on_c, 3, 49, 99
4, 8420, Note_on_c, 3, 49, 0
4, 8420, Note_on_c, 3, 49, 99
4, 8660, Note_on_c, 3, 49, 0
4, 8660, Note_on_c, 3, 49, 99
4, 8900, Note_on_c, 3, 49, 0
4, 8900, Note_on_c, 3, 50, 99
4, 9140, Note_on_c, 3, 50, 0
4, 9380, Note_on_c, 3, 50, 99
4, 9620, Note_on_c, 3, 50, 0
4, 9620, Note_on_c, 3, 50, 99
4, 9860, Note_on_c, 3, 50, 0
4, 9860, Note_on_c, 3, 50, 99
4, 10100, Note_on_c, 3, 50, 0
4, 10100, Note_on_c, 3, 43, 99
4, 10580, Note_on_c, 3, 43, 0
4, 10820, Note_on_c, 3, 43, 99
4, 11060, Note_on_c, 3, 43, 0
4, 11060, Note_on_c, 3, 46, 99
4, 11300, Note_on_c, 3, 46, 0
4, 11300, Note_on_c, 3, 50, 99
4, 11540, Note_on_c, 3, 50, 0
4, 11540, Note_on_c, 3, 55, 99
4, 11900, Note_on_c, 3, 55, 0
4, 11900, Note_on_c, 3, 58, 99
4, 12020, Note_on_c, 3, 58, 0
4, 12020, Note_on_c, 3, 67, 99
4, 12260, Note_on_c, 3, 67, 0
4, 12260, Note_on_c, 3, 65, 99
4, 12500, Note_on_c, 3, 65, 0
4, 12500, Note_on_c, 3, 63, 99
4, 12740, Note_on_c, 3, 63, 0
4, 12740, Note_on_c, 3, 62, 99
4, 12980, Note_on_c, 3, 62, 0
4, 12980, Note_on_c, 3, 61, 99
4, 13220, Note_on_c, 3, 61, 0
4, 13220, Note_on_c, 3, 57, 99
4, 13460, Note_on_c, 3, 57, 0
4, 13460, Note_on_c, 3, 62, 99
4, 13700, Note_on_c, 3, 62, 0
4, 13700, Note_on_c, 3, 60, 99
4, 13940, Note_on_c, 3, 60, 0
4, 13940, Note_on_c, 3, 58, 99
4, 14180, Note_on_c, 3, 58, 0
4, 14180, Note_on_c, 3, 57, 99
4, 14420, Note_on_c, 3, 57, 0
4, 14420, Note_on_c, 3, 55, 99
4, 14660, Note_on_c, 3, 55, 0
4, 14660, Note_on_c, 3, 60, 99
4, 14900, Note_on_c, 3, 60, 0
4, 14900, Note_on_c, 3, 53, 99
4, 15140, Note_on_c, 3, 53, 0
4, 15140, Note_on_c, 3, 54, 99
4, 15380, Note_on_c, 3, 54, 0
4, 15380, Note_on_c, 3, 55, 99
4, 15620, Note_on_c, 3, 55, 0
4, 15620, Note_on_c, 3, 56, 99
4, 15860, Note_on_c, 3, 56, 0
4, 15860, Note_on_c, 3, 57, 99
4, 16100, Note_on_c, 3, 57, 0
4, 16100, Note_on_c, 3, 58, 99
4, 16340, Note_on_c, 3, 58, 0
4, 16340, Note_on_c, 3, 57, 99
4, 16580, Note_on_c, 3, 57, 0
4, 16580, Note_on_c, 3, 55, 99
4, 16820, Note_on_c, 3, 55, 0
4, 16820, Note_on_c, 3, 53, 99
4, 17060, Note_on_c, 3, 53, 0
4, 17060, Note_on_c, 3, 52, 99
4, 17300, Note_on_c, 3, 52, 0
4, 17300, Note_on_c, 3, 53, 99
4, 17780, Note_on_c, 3, 53, 0
4, 18020, Note_on_c, 3, 54, 99
4, 18260, Note_on_c, 3, 54, 0
4, 18260, Note_on_c, 3, 54, 99
4, 18500, Note_on_c, 3, 54, 0
4, 18500, Note_on_c, 3, 55, 99
4, 18740, Note_on_c, 3, 55, 0
4, 18740, Note_on_c, 3, 55, 99
4, 19220, Note_on_c, 3, 55, 0
4, 19460, Note_on_c, 3, 56, 99
4, 19700, Note_on_c, 3, 56, 0
4, 19700, Note_on_c, 3, 56, 99
4, 19940, Note_on_c, 3, 56, 0
4, 19940, Note_on_c, 3, 57, 99
4, 20180, Note_on_c, 3, 57, 0
4, 20180, Note_on_c, 3, 57, 99
4, 20660, Note_on_c, 3, 57, 0
4, 20900, Note_on_c, 3, 57, 99
4, 21140, Note_on_c, 3, 57, 0
4, 21140, Note_on_c, 3, 61, 99
4, 21380, Note_on_c, 3, 61, 0
4, 21380, Note_on_c, 3, 57, 99
4, 21620, Note_on_c, 3, 57, 0
4, 21620, Note_on_c, 3, 62, 99
4, 22340, Note_on_c, 3, 62, 0
4, 22340, Note_on_c, 3, 60, 99
4, 22580, Note_on_c, 3, 60, 0
4, 22580, Note_on_c, 3, 58, 99
4, 22820, Note_on_c, 3, 58, 0
4, 22820, Note_on_c, 3, 57, 99
4, 23060, Note_on_c, 3, 57, 0
4, 23060, Note_on_c, 3, 55, 74
4, 23540, Note_on_c, 3, 55, 0
4, 23636, Control_c, 3, 64, 127
4, 23684, Control_c, 3, 64, 0
4, 23780, Note_on_c, 3, 55, 101
4, 24020, Note_on_c, 3, 55, 0
4, 24020, Note_on_c, 3, 55, 93
4, 24260, Note_on_c, 3, 55, 0
4, 24260, Note_on_c, 3, 55, 98
4, 24500, Note_on_c, 3, 55, 0
4, 24500, Note_on_c, 3, 55, 101
4, 24740, Note_on_c, 3, 55, 0
4, 24740, Note_on_c, 3, 54, 99
4, 24980, Note_on_c, 3, 54, 0
4, 25220, Note_on_c, 3, 53, 99
4, 25460, Note_on_c, 3, 53, 0
4, 25460, Note_on_c, 3, 53, 99
4, 25700, Note_on_c, 3, 53, 0
4, 25700, Note_on_c, 3, 53, 99
4, 25940, Note_on_c, 3, 53, 0
4, 25940, Note_on_c, 3, 53, 99
4, 26180, Note_on_c, 3, 53, 0
4, 26180, Note_on_c, 3, 52, 99
4, 26420, Note_on_c, 3, 52, 0
4, 26660, Note_on_c, 3, 51, 99
4, 26900, Note_on_c, 3, 51, 0
4, 26900, Note_on_c, 3, 51, 99
4, 27140, Note_on_c, 3, 51, 0
4, 27140, Note_on_c, 3, 51, 99
4, 27380, Note_on_c, 3, 51, 0
4, 27380, Note_on_c, 3, 50, 99
4, 27860, Note_on_c, 3, 50, 0
4, 28100, Note_on_c, 3, 51, 99
4, 28340, Note_on_c, 3, 51, 0
4, 28340, Note_on_c, 3, 50, 99
4, 28580, Note_on_c, 3, 50, 0
4, 28580, Note_on_c, 3, 48, 99
4, 28820, Note_on_c, 3, 48, 0
4, 28820, Note_on_c, 3, 46, 99
4, 29300, Note_on_c, 3, 46, 0
4, 29540, Note_on_c, 3, 46, 99
4, 29780, Note_on_c, 3, 46, 0
4, 29780, Note_on_c, 3, 47, 99
4, 30020, Note_on_c, 3, 47, 0
4, 30020, Note_on_c, 3, 47, 99
4, 30260, Note_on_c, 3, 47, 0
4, 30260, Note_on_c, 3, 47, 99
4, 30500, Note_on_c, 3, 47, 0
4, 30500, Note_on_c, 3, 48, 99
4, 30740, Note_on_c, 3, 48, 0
4, 30980, Note_on_c, 3, 48, 99
4, 31220, Note_on_c, 3, 48, 0
4, 31220, Note_on_c, 3, 49, 99
4, 31460, Note_on_c, 3, 49, 0
4, 31460, Note_on_c, 3, 49, 99
4, 31700, Note_on_c, 3, 49, 0
4, 31700, Note_on_c, 3, 49, 99
4, 31940, Note_on_c, 3, 49, 0
4, 31940, Note_on_c, 3, 50, 99
4, 32180, Note_on_c, 3, 50, 0
4, 32420, Note_on_c, 3, 50, 99
4, 32660, Note_on_c, 3, 50, 0
4, 32660, Note_on_c, 3, 50, 99
4, 32900, Note_on_c, 3, 50, 0
4, 32900, Note_on_c, 3, 50, 99
4, 33140, Note_on_c, 3, 50, 0
4, 33140, Note_on_c, 3, 43, 99
4, 33620, Note_on_c, 3, 43, 0
4, 33860, Note_on_c, 3, 43, 99
4, 34100, Note_on_c, 3, 43, 0
4, 34100, Note_on_c, 3, 46, 99
4, 34340, Note_on_c, 3, 46, 0
4, 34340, Note_on_c, 3, 50, 99
4, 34580, Note_on_c, 3, 50, 0
4, 34580, Note_on_c, 3, 55, 99
4, 34940, Note_on_c, 3, 55, 0
4, 34940, Note_on_c, 3, 58, 99
4, 35060, Note_on_c, 3, 58, 0
4, 35060, Note_on_c, 3, 67, 99
4, 35300, Note_on_c, 3, 67, 0
4, 35300, Note_on_c, 3, 65, 99
4, 35540, Note_on_c, 3, 65, 0
4, 35540, Note_on_c, 3, 63, 99
4, 35780, Note_on_c, 3, 63, 0
4, 35780, Note_on_c, 3, 62, 99
4, 36020, Note_on_c, 3, 62, 0
4, 36020, Note_on_c, 3, 61, 99
4, 36260, Note_on_c, 3, 61, 0
4, 36260, Note_on_c, 3, 57, 99
4, 36500, Note_on_c, 3, 57, 0
4, 36500, Note_on_c, 3, 62, 99
4, 36740, Note_on_c, 3, 62, 0
4, 36740, Note_on_c, 3, 60, 99
4, 36980, Note_on_c, 3, 60, 0
4, 36980, Note_on_c, 3, 58, 99
4, 37220, Note_on_c, 3, 58, 0
4, 37220, Note_on_c, 3, 57, 99
4, 37460, Note_on_c, 3, 57, 0
4, 37460, Note_on_c, 3, 55, 99
4, 37700, Note_on_c, 3, 55, 0
4, 37700, Note_on_c, 3, 60, 99
4, 37940, Note_on_c, 3, 60, 0
4, 37940, Note_on_c, 3, 53, 99
4, 38180, Note_on_c, 3, 53, 0
4, 38180, Note_on_c, 3, 54, 99
4, 38420, Note_on_c, 3, 54, 0
4, 38420, Note_on_c, 3, 55, 99
4, 38660, Note_on_c, 3, 55, 0
4, 38660, Note_on_c, 3, 56, 99
4, 38900, Note_on_c, 3, 56, 0
4, 38900, Note_on_c, 3, 57, 99
4, 39140, Note_on_c, 3, 57, 0
4, 39140, Note_on_c, 3, 58, 99
4, 39380, Note_on_c, 3, 58, 0
4, 39380, Note_on_c, 3, 57, 99
4, 39620, Note_on_c, 3, 57, 0
4, 39620, Note_on_c, 3, 55, 99
4, 39860, Note_on_c, 3, 55, 0
4, 39860, Note_on_c, 3, 53, 99
4, 40100, Note_on_c, 3, 53, 0
4, 40100, Note_on_c, 3, 52, 99
4, 40340, Note_on_c, 3, 52, 0
4, 40340, Note_on_c, 3, 53, 99
4, 40820, Note_on_c, 3, 53, 0
4, 41060, Note_on_c, 3, 54, 99
4, 41300, Note_on_c, 3, 54, 0
4, 41300, Note_on_c, 3, 54, 99
4, 41540, Note_on_c, 3, 54, 0
4, 41540, Note_on_c, 3, 55, 99
4, 41780, Note_on_c, 3, 55, 0
4, 41780, Note_on_c, 3, 55, 99
4, 42260, Note_on_c, 3, 55, 0
4, 42500, Note_on_c, 3, 56, 99
4, 42740, Note_on_c, 3, 56, 0
4, 42740, Note_on_c, 3, 56, 99
4, 42980, Note_on_c, 3, 56, 0
4, 42980, Note_on_c, 3, 57, 99
4, 43220, Note_on_c, 3, 57, 0
4, 43220, Note_on_c, 3, 57, 99
4, 43700, Note_on_c, 3, 57, 0
4, 43940, Note_on_c, 3, 57, 99
4, 44180, Note_on_c, 3, 57, 0
4, 44180, Note_on_c, 3, 61, 99
4, 44420, Note_on_c, 3, 61, 0
4, 44420, Note_on_c, 3, 57, 99
4, 44660, Note_on_c, 3, 57, 0
4, 44660, Note_on_c, 3, 62, 99
4, 45380, Note_on_c, 3, 62, 0
4, 45380, Note_on_c, 3, 57, 99
4, 45620, Note_on_c, 3, 57, 0
4, 45620, Note_on_c, 3, 50, 99
4, 46100, Note_on_c, 3, 50, 0
4, 46100, Note_on_c, 3, 62, 99
4, 46580, Note_on_c, 3, 62, 0
4, 46820, Note_on_c, 3, 60, 99
4, 47060, Note_on_c, 3, 60, 0
4, 47060, Note_on_c, 3, 60, 99
4, 47300, Note_on_c, 3, 60, 0
4, 47300, Note_on_c, 3, 58, 99
4, 47540, Note_on_c, 3, 58, 0
4, 47540, Note_on_c, 3, 58, 99
4, 47780, Note_on_c, 3, 58, 0
4, 47780, Note_on_c, 3, 55, 99
4, 47900, Note_on_c, 3, 55, 0
4, 47900, Note_on_c, 3, 57, 99
4, 48020, Note_on_c, 3, 57, 0
4, 48020, Note_on_c, 3, 58, 99
4, 48260, Note_on_c, 3, 58, 0
4, 48260, Note_on_c, 3, 59, 99
4, 48500, Note_on_c, 3, 59, 0
4, 48500, Note_on_c, 3, 59, 99
4, 48740, Note_on_c, 3, 59, 0
4, 48740, Note_on_c, 3, 60, 99
4, 48980, Note_on_c, 3, 60, 0
4, 48980, Note_on_c, 3, 60, 99
4, 49460, Note_on_c, 3, 60, 0
4, 49700, Note_on_c, 3, 55, 99
4, 49940, Note_on_c, 3, 55, 0
4, 49940, Note_on_c, 3, 56, 99
4, 50180, Note_on_c, 3, 56, 0
4, 50180, Note_on_c, 3, 57, 99
4, 50420, Note_on_c, 3, 57, 0
4, 50420, Note_on_c, 3, 58, 99
4, 50900, Note_on_c, 3, 58, 0
4, 51140, Note_on_c, 3, 59, 99
4, 51380, Note_on_c, 3, 59, 0
4, 51380, Note_on_c, 3, 58, 99
4, 51620, Note_on_c, 3, 58, 0
4, 51620, Note_on_c, 3, 56, 99
4, 51860, Note_on_c, 3, 56, 0
4, 51860, Note_on_c, 3, 54, 99
4, 52340, Note_on_c, 3, 54, 0
4, 52580, Note_on_c, 3, 55, 99
4, 52820, Note_on_c, 3, 55, 0
4, 52820, Note_on_c, 3, 55, 99
4, 53060, Note_on_c, 3, 55, 0
4, 53060, Note_on_c, 3, 56, 99
4, 53300, Note_on_c, 3, 56, 0
4, 53300, Note_on_c, 3, 56, 110
4, 53776, Note_on_c, 3, 56, 0
4, 54020, Note_on_c, 3, 57, 104
4, 54256, Note_on_c, 3, 57, 0
4, 54260, Note_on_c, 3, 57, 104
4, 54496, Note_on_c, 3, 57, 0
4, 54500, Note_on_c, 3, 58, 106
4, 54736, Note_on_c, 3, 58, 0
4, 54740, Note_on_c, 3, 58, 108
4, 55216, Note_on_c, 3, 58, 0
4, 55460, Note_on_c, 3, 58, 97
4, 55696, Note_on_c, 3, 58, 0
4, 55700, Note_on_c, 3, 62, 101
4, 55936, Note_on_c, 3, 62, 0
4, 55940, Note_on_c, 3, 58, 96
4, 56176, Note_on_c, 3, 58, 0
4, 56180, Note_on_c, 3, 63, 117
4, 56656, Note_on_c, 3, 63, 0
4, 56900, Note_on_c, 3, 65, 98
4, 57136, Note_on_c, 3, 65, 0
4, 57140, Note_on_c, 3, 63, 108
4, 57376, Note_on_c, 3, 63, 0
4, 57380, Note_on_c, 3, 62, 100
4, 57616, Note_on_c, 3, 62, 0
4, 57620, Note_on_c, 3, 60, 95
4, 58096, Note_on_c, 3, 60, 0
4, 58340, Note_on_c, 3, 60, 104
4, 58576, Note_on_c, 3, 60, 0
4, 58580, Note_on_c, 3, 60, 96
4, 58820, Note_on_c, 3, 60, 0
4, 58820, Note_on_c, 3, 60, 96
4, 59060, Note_on_c, 3, 60, 0
4, 59060, Note_on_c, 3, 60, 98
4, 59296, Note_on_c, 3, 60, 0
4, 59300, Note_on_c, 3, 59, 102
4, 59540, Note_on_c, 3, 59, 0
4, 59780, Note_on_c, 3, 58, 110
4, 60016, Note_on_c, 3, 58, 0
4, 60020, Note_on_c, 3, 58, 102
4, 60256, Note_on_c, 3, 58, 0
4, 60260, Note_on_c, 3, 58, 99
4, 60496, Note_on_c, 3, 58, 0
4, 60500, Note_on_c, 3, 58, 106
4, 60736, Note_on_c, 3, 58, 0
4, 60740, Note_on_c, 3, 57, 109
4, 60980, Note_on_c, 3, 57, 0
4, 61220, Note_on_c, 3, 56, 110
4, 61456, Note_on_c, 3, 56, 0
4, 61460, Note_on_c, 3, 56, 104
4, 61696, Note_on_c, 3, 56, 0
4, 61700, Note_on_c, 3, 55, 98
4, 61936, Note_on_c, 3, 55, 0
4, 61940, Note_on_c, 3, 55, 102
4, 62176, Note_on_c, 3, 55, 0
4, 62180, Note_on_c, 3, 54, 108
4, 62420, Note_on_c, 3, 54, 0
4, 62660, Note_on_c, 3, 54, 102
4, 62896, Note_on_c, 3, 54, 0
4, 62900, Note_on_c, 3, 55, 104
4, 63136, Note_on_c, 3, 55, 0
4, 63140, Note_on_c, 3, 48, 109
4, 63376, Note_on_c, 3, 48, 0
4, 63380, Note_on_c, 3, 46, 108
4, 63856, Note_on_c, 3, 46, 0
4, 64100, Note_on_c, 3, 46, 106
4, 64336, Note_on_c, 3, 46, 0
4, 64340, Note_on_c, 3, 46, 108
4, 64576, Note_on_c, 3, 46, 0
4, 64580, Note_on_c, 3, 47, 100
4, 64816, Note_on_c, 3, 47, 0
4, 64820, Note_on_c, 3, 47, 96
4, 64936, Note_on_c, 3, 47, 0
4, 64940, Note_on_c, 3, 50, 98
4, 65056, Note_on_c, 3, 50, 0
4, 65060, Note_on_c, 3, 48, 106
4, 65300, Note_on_c, 3, 48, 0
4, 65540, Note_on_c, 3, 48, 115
4, 65776, Note_on_c, 3, 48, 0
4, 65780, Note_on_c, 3, 48, 104
4, 66016, Note_on_c, 3, 48, 0
4, 66020, Note_on_c, 3, 49, 110
4, 66256, Note_on_c, 3, 49, 0
4, 66260, Note_on_c, 3, 49, 99
4, 66376, Note_on_c, 3, 49, 0
4, 66380, Note_on_c, 3, 52, 102
4, 66496, Note_on_c, 3, 52, 0
4, 66500, Note_on_c, 3, 50, 117
4, 66740, Note_on_c, 3, 50, 0
4, 66980, Note_on_c, 3, 50, 107
4, 67220, Note_on_c, 3, 50, 0
4, 67220, Note_on_c, 3, 50, 106
4, 67460, Note_on_c, 3, 50, 0
4, 67460, Note_on_c, 3, 50, 98
4, 67696, Note_on_c, 3, 50, 0
4, 67700, Note_on_c, 3, 55, 115
4, 68180, Note_on_c, 3, 55, 0
4, 68300, Note_on_c, 3, 54, 101
4, 68420, Note_on_c, 3, 54, 0
4, 68420, Note_on_c, 3, 55, 83
4, 68540, Note_on_c, 3, 55, 0
4, 68540, Note_on_c, 3, 50, 93
4, 68656, Note_on_c, 3, 50, 0
4, 68660, Note_on_c, 3, 43, 115
4, 69110, Control_c, 3, 64, 0
4, 69140, Note_on_c, 3, 43, 0
4, 70560, End_track
0, 0, End_of_file
