0, 0, Header, 1, 3, 480
1, 0, Start_track
1, 0, SMPTE_offset, 96, 0, 0, 0, 0
1, 0, Time_signature, 3, 2, 24, 8
1, 20, Tempo, 571428
1, 46080, End_track
2, 0, Start_track
2, 0, Title_t, "goldberg.mid"
2, 140, Note_on_c, 0, 71, 106
2, 256, Note_on_c, 0, 71, 0
2, 380, Note_on_c, 0, 67, 97
2, 496, Note_on_c, 0, 67, 0
2, 620, Note_on_c, 0, 62, 100
2, 736, Note_on_c, 0, 62, 0
2, 860, Note_on_c, 0, 59, 101
2, 976, Note_on_c, 0, 59, 0
2, 1100, Note_on_c, 0, 55, 95
2, 1216, Note_on_c, 0, 55, 0
2, 1220, Note_on_c, 0, 54, 93
2, 1336, Note_on_c, 0, 54, 0
2, 1340, Note_on_c, 0, 52, 85
2, 1456, Note_on_c, 0, 52, 0
2, 1460, Note_on_c, 0, 54, 102
2, 1700, Note_on_c, 0, 54, 0
2, 1700, Note_on_c, 0, 57, 100
2, 1940, Note_on_c, 0, 57, 0
2, 1940, Note_on_c, 0, 62, 97
2, 2176, Note_on_c, 0, 62, 0
2, 2180, Note_on_c, 0, 66, 94
2, 2416, Note_on_c, 0, 66, 0
2, 2420, Note_on_c, 0, 69, 95
2, 2656, Note_on_c, 0, 69, 0
2, 2660, Note_on_c, 0, 74, 115
2, 2896, Note_on_c, 0, 74, 0
2, 3020, Note_on_c, 0, 67, 92
2, 3136, Note_on_c, 0, 67, 0
2, 3260, Note_on_c, 0, 64, 101
2, 3376, Note_on_c, 0, 64, 0
2, 3500, Note_on_c, 0, 61, 104
2, 3616, Note_on_c, 0, 61, 0
2, 3740, Note_on_c, 0, 57, 101
2, 3856, Note_on_c, 0, 57, 0
2, 3980, Note_on_c, 0, 55, 92
2, 4096, Note_on_c, 0, 55, 0
2, 4100, Note_on_c, 0, 54, 86
2, 4216, Note_on_c, 0, 54, 0
2, 4220, Note_on_c, 0, 52, 88
2, 4336, Note_on_c, 0, 52, 0
2, 4340, Note_on_c, 0, 50, 78
2, 4580, Note_on_c, 0, 50, 0
2, 4580, Note_on_c, 0, 54, 96
2, 4816, Note_on_c, 0, 54, 0
2, 4820, Note_on_c, 0, 57, 97
2, 5056, Note_on_c, 0, 57, 0
2, 5060, Note_on_c, 0, 62, 102
2, 5296, Note_on_c, 0, 62, 0
2, 5300, Note_on_c, 0, 66, 94
2, 5536, Note_on_c, 0, 66, 0
2, 5540, Note_on_c, 0, 69, 90
2, 5776, Note_on_c, 0, 69, 0
2, 5900, Note_on_c, 0, 67, 83
2, 6016, Note_on_c, 0, 67, 0
2, 6140, Note_on_c, 0, 62, 95
2, 6256, Note_on_c, 0, 62, 0
2, 6380, Note_on_c, 0, 59, 90
2, 6496, Note_on_c, 0, 59, 0
2, 6620, Note_on_c, 0, 55, 92
2, 6736, Note_on_c, 0, 55, 0
2, 6860, Note_on_c, 0, 53, 92
2, 6976, Note_on_c, 0, 53, 0
2, 6980, Note_on_c, 0, 52, 83
2, 7096, Note_on_c, 0, 52, 0
2, 7100, Note_on_c, 0, 50, 82
2, 7216, Note_on_c, 0, 50, 0
2, 7220, Note_on_c, 0, 48, 92
2, 7456, Note_on_c, 0, 48, 0
2, 7460, Note_on_c, 0, 52, 100
2, 7696, Note_on_c, 0, 52, 0
2, 7700, Note_on_c, 0, 55, 93
2, 7936, Note_on_c, 0, 55, 0
2, 7940, Note_on_c, 0, 60, 93
2, 8176, Note_on_c, 0, 60, 0
2, 8180, Note_on_c, 0, 64, 98
2, 8416, Note_on_c, 0, 64, 0
2, 8420, Note_on_c, 0, 67, 100
2, 8656, Note_on_c, 0, 67, 0
2, 8780, Note_on_c, 0, 66, 99
2, 8896, Note_on_c, 0, 66, 0
2, 9020, Note_on_c, 0, 62, 98
2, 9136, Note_on_c, 0, 62, 0
2, 9260, Note_on_c, 0, 57, 98
2, 9376, Note_on_c, 0, 57, 0
2, 9500, Note_on_c, 0, 54, 106
2, 9616, Note_on_c, 0, 54, 0
2, 9740, Note_on_c, 0, 50, 102
2, 9856, Note_on_c, 0, 50, 0
2, 9860, Note_on_c, 0, 48, 104
2, 9976, Note_on_c, 0, 48, 0
2, 9980, Note_on_c, 0, 50, 92
2, 10096, Note_on_c, 0, 50, 0
2, 10100, Note_on_c, 0, 43, 72
2, 10336, Note_on_c, 0, 43, 0
2, 10340, Note_on_c, 0, 47, 95
2, 10576, Note_on_c, 0, 47, 0
2, 10580, Note_on_c, 0, 50, 86
2, 10816, Note_on_c, 0, 50, 0
2, 10820, Note_on_c, 0, 55, 98
2, 11056, Note_on_c, 0, 55, 0
2, 11060, Note_on_c, 0, 54, 108
2, 11296, Note_on_c, 0, 54, 0
2, 11300, Note_on_c, 0, 60, 96
2, 11536, Note_on_c, 0, 60, 0
2, 11540, Note_on_c, 0, 59, 96
2, 11620, Note_on_c, 0, 59, 0
2, 11620, Note_on_c, 0, 57, 96
2, 11700, Note_on_c, 0, 57, 0
2, 11700, Note_on_c, 0, 59, 96
2, 11776, Note_on_c, 0, 60, 96
2, 11780, Note_on_c, 0, 59, 0
2, 11856, Note_on_c, 0, 60, 0
2, 11856, Note_on_c, 0, 59, 96
2, 11936, Note_on_c, 0, 59, 0
2, 11936, Note_on_c, 0, 60, 96
2, 12016, Note_on_c, 0, 60, 0
2, 12016, Note_on_c, 0, 62, 96
2, 12096, Note_on_c, 0, 62, 0
2, 12096, Note_on_c, 0, 60, 96
2, 12172, Note_on_c, 0, 62, 96
2, 12176, Note_on_c, 0, 60, 0
2, 12252, Note_on_c, 0, 62, 0
2, 12252, Note_on_c, 0, 64, 96
2, 12332, Note_on_c, 0, 64, 0
2, 12332, Note_on_c, 0, 62, 96
2, 12412, Note_on_c, 0, 62, 0
2, 12412, Note_on_c, 0, 64, 96
2, 12492, Note_on_c, 0, 64, 0
2, 12492, Note_on_c, 0, 66, 96
2, 12568, Note_on_c, 0, 64, 96
2, 12572, Note_on_c, 0, 66, 0
2, 12648, Note_on_c, 0, 64, 0
2, 12648, Note_on_c, 0, 66, 96
2, 12728, Note_on_c, 0, 66, 0
2, 12728, Note_on_c, 0, 67, 96
2, 12808, Note_on_c, 0, 67, 0
2, 12808, Note_on_c, 0, 66, 96
2, 12888, Note_on_c, 0, 66, 0
2, 12888, Note_on_c, 0, 67, 96
2, 12964, Note_on_c, 0, 69, 96
2, 12968, Note_on_c, 0, 67, 0
2, 13044, Note_on_c, 0, 69, 0
2, 13044, Note_on_c, 0, 67, 96
2, 13124, Note_on_c, 0, 67, 0
2, 13124, Note_on_c, 0, 69, 96
2, 13204, Note_on_c, 0, 69, 0
2, 13204, Note_on_c, 0, 71, 96
2, 13284, Note_on_c, 0, 71, 0
2, 13284, Note_on_c, 0, 69, 96
2, 13360, Note_on_c, 0, 71, 96
2, 13364, Note_on_c, 0, 69, 0
2, 13440, Note_on_c, 0, 71, 0
2, 13440, Note_on_c, 0, 73, 96
2, 13520, Note_on_c, 0, 73, 0
2, 13520, Note_on_c, 0, 71, 96
2, 13600, Note_on_c, 0, 71, 0
2, 13600, Note_on_c, 0, 73, 96
2, 13680, Note_on_c, 0, 73, 0
2, 13680, Note_on_c, 0, 74, 96
2, 13756, Note_on_c, 0, 73, 96
2, 13760, Note_on_c, 0, 74, 0
2, 13836, Note_on_c, 0, 73, 0
2, 13836, Note_on_c, 0, 74, 96
2, 13916, Note_on_c, 0, 74, 0
2, 13916, Note_on_c, 0, 76, 96
2, 13996, Note_on_c, 0, 76, 0
2, 13996, Note_on_c, 0, 74, 96
2, 14076, Note_on_c, 0, 74, 0
2, 14076, Note_on_c, 0, 76, 96
2, 14152, Note_on_c, 0, 78, 96
2, 14156, Note_on_c, 0, 76, 0
2, 14232, Note_on_c, 0, 78, 0
2, 14232, Note_on_c, 0, 76, 96
2, 14312, Note_on_c, 0, 76, 0
2, 14312, Note_on_c, 0, 78, 96
2, 14392, Note_on_c, 0, 78, 0
2, 14420, Note_on_c, 0, 79, 96
2, 14656, Note_on_c, 0, 79, 0
2, 14896, Note_on_c, 0, 52, 96
2, 14976, Note_on_c, 0, 52, 0
2, 14976, Note_on_c, 0, 50, 96
2, 15052, Note_on_c, 0, 52, 96
2, 15056, Note_on_c, 0, 50, 0
2, 15368, Note_on_c, 0, 52, 0
2, 15620, Note_on_c, 0, 71, 96
2, 15856, Note_on_c, 0, 71, 0
2, 15860, Note_on_c, 0, 79, 96
2, 16096, Note_on_c, 0, 79, 0
2, 16336, Note_on_c, 0, 49, 96
2, 16416, Note_on_c, 0, 49, 0
2, 16416, Note_on_c, 0, 47, 96
2, 16492, Note_on_c, 0, 49, 96
2, 16496, Note_on_c, 0, 47, 0
2, 16808, Note_on_c, 0, 49, 0
2, 17048, Note_on_c, 0, 79, 96
2, 17284, Note_on_c, 0, 79, 0
2, 17300, Note_on_c, 0, 78, 96
2, 17380, Note_on_c, 0, 78, 0
2, 17380, Note_on_c, 0, 81, 96
2, 17460, Note_on_c, 0, 81, 0
2, 17460, Note_on_c, 0, 74, 96
2, 17536, Note_on_c, 0, 76, 96
2, 17540, Note_on_c, 0, 74, 0
2, 17616, Note_on_c, 0, 76, 0
2, 17616, Note_on_c, 0, 79, 96
2, 17696, Note_on_c, 0, 79, 0
2, 17696, Note_on_c, 0, 73, 96
2, 17776, Note_on_c, 0, 73, 0
2, 17776, Note_on_c, 0, 74, 96
2, 17856, Note_on_c, 0, 74, 0
2, 17856, Note_on_c, 0, 78, 96
2, 17932, Note_on_c, 0, 71, 96
2, 17936, Note_on_c, 0, 78, 0
2, 18012, Note_on_c, 0, 71, 0
2, 18012, Note_on_c, 0, 72, 96
2, 18092, Note_on_c, 0, 72, 0
2, 18092, Note_on_c, 0, 76, 96
2, 18172, Note_on_c, 0, 76, 0
2, 18172, Note_on_c, 0, 69, 96
2, 18252, Note_on_c, 0, 69, 0
2, 18252, Note_on_c, 0, 71, 96
2, 18328, Note_on_c, 0, 74, 96
2, 18332, Note_on_c, 0, 71, 0
2, 18408, Note_on_c, 0, 74, 0
2, 18408, Note_on_c, 0, 67, 96
2, 18488, Note_on_c, 0, 67, 0
2, 18488, Note_on_c, 0, 69, 96
2, 18568, Note_on_c, 0, 69, 0
2, 18568, Note_on_c, 0, 72, 96
2, 18648, Note_on_c, 0, 72, 0
2, 18648, Note_on_c, 0, 66, 96
2, 18728, Note_on_c, 0, 66, 0
2, 18740, Note_on_c, 0, 67, 96
2, 18980, Note_on_c, 0, 67, 0
2, 18980, Note_on_c, 0, 55, 96
2, 19220, Note_on_c, 0, 55, 0
2, 19220, Note_on_c, 0, 54, 96
2, 19460, Note_on_c, 0, 54, 0
2, 19460, Note_on_c, 0, 57, 96
2, 19700, Note_on_c, 0, 57, 0
2, 19700, Note_on_c, 0, 50, 96
2, 19940, Note_on_c, 0, 50, 0
2, 19940, Note_on_c, 0, 62, 96
2, 20180, Note_on_c, 0, 62, 0
2, 20180, Note_on_c, 0, 61, 96
2, 20260, Note_on_c, 0, 61, 0
2, 20260, Note_on_c, 0, 57, 96
2, 20340, Note_on_c, 0, 57, 0
2, 20340, Note_on_c, 0, 59, 96
2, 20416, Note_on_c, 0, 61, 96
2, 20420, Note_on_c, 0, 59, 0
2, 20496, Note_on_c, 0, 61, 0
2, 20496, Note_on_c, 0, 62, 96
2, 20576, Note_on_c, 0, 62, 0
2, 20576, Note_on_c, 0, 64, 96
2, 20656, Note_on_c, 0, 64, 0
2, 20656, Note_on_c, 0, 66, 96
2, 20972, Note_on_c, 0, 66, 0
2, 20972, Note_on_c, 0, 64, 96
2, 21052, Note_on_c, 0, 64, 0
2, 21052, Note_on_c, 0, 62, 96
2, 21132, Note_on_c, 0, 62, 0
2, 21132, Note_on_c, 0, 71, 96
2, 21368, Note_on_c, 0, 71, 0
2, 21368, Note_on_c, 0, 73, 96
2, 21408, Note_on_c, 0, 73, 0
2, 21408, Note_on_c, 0, 74, 96
2, 21448, Note_on_c, 0, 74, 0
2, 21448, Note_on_c, 0, 73, 96
2, 21488, Note_on_c, 0, 73, 0
2, 21488, Note_on_c, 0, 71, 96
2, 21528, Note_on_c, 0, 71, 0
2, 21528, Note_on_c, 0, 73, 96
2, 21604, Note_on_c, 0, 74, 96
2, 21608, Note_on_c, 0, 73, 0
2, 21684, Note_on_c, 0, 74, 0
2, 21684, Note_on_c, 0, 69, 96
2, 21764, Note_on_c, 0, 69, 0
2, 21764, Note_on_c, 0, 66, 96
2, 21844, Note_on_c, 0, 66, 0
2, 21844, Note_on_c, 0, 62, 96
2, 21924, Note_on_c, 0, 62, 0
2, 21924, Note_on_c, 0, 57, 96
2, 22000, Note_on_c, 0, 54, 96
2, 22004, Note_on_c, 0, 57, 0
2, 22080, Note_on_c, 0, 54, 0
2, 22080, Note_on_c, 0, 50, 96
2, 22316, Note_on_c, 0, 50, 0
2, 23172, Note_on_c, 0, 81, 100
2, 23220, Note_on_c, 0, 81, 0
2, 23404, Note_on_c, 0, 78, 86
2, 23448, Note_on_c, 0, 78, 0
2, 23652, Note_on_c, 0, 74, 91
2, 23704, Note_on_c, 0, 74, 0
2, 23888, Note_on_c, 0, 69, 88
2, 23940, Note_on_c, 0, 69, 0
2, 24132, Note_on_c, 0, 66, 102
2, 24180, Note_on_c, 0, 66, 0
2, 24372, Note_on_c, 0, 62, 93
2, 24424, Note_on_c, 0, 62, 0
2, 24620, Note_on_c, 0, 59, 95
2, 24672, Note_on_c, 0, 59, 0
2, 24852, Note_on_c, 0, 55, 85
2, 24900, Note_on_c, 0, 55, 0
2, 25084, Note_on_c, 0, 50, 90
2, 25132, Note_on_c, 0, 50, 0
2, 25328, Note_on_c, 0, 47, 92
2, 25376, Note_on_c, 0, 47, 0
2, 25572, Note_on_c, 0, 43, 76
2, 25684, Note_on_c, 0, 45, 86
2, 25692, Note_on_c, 0, 43, 0
2, 25796, Note_on_c, 0, 47, 91
2, 25800, Note_on_c, 0, 45, 0
2, 25904, Note_on_c, 0, 47, 0
2, 25916, Note_on_c, 0, 48, 82
2, 26124, Note_on_c, 0, 48, 0
2, 26132, Note_on_c, 0, 52, 93
2, 26380, Note_on_c, 0, 52, 0
2, 26380, Note_on_c, 0, 60, 98
2, 26628, Note_on_c, 0, 60, 0
2, 26636, Note_on_c, 0, 64, 104
2, 26884, Note_on_c, 0, 64, 0
2, 26892, Note_on_c, 0, 57, 96
2, 27128, Note_on_c, 0, 57, 0
2, 27152, Note_on_c, 0, 72, 121
2, 27456, Note_on_c, 0, 71, 104
2, 27468, Note_on_c, 0, 72, 0
2, 27528, Note_on_c, 0, 71, 0
2, 27532, Note_on_c, 0, 70, 90
2, 27592, Note_on_c, 0, 70, 0
2, 27604, Note_on_c, 0, 71, 100
2, 27688, Note_on_c, 0, 73, 96
2, 27708, Note_on_c, 0, 71, 0
2, 27756, Note_on_c, 0, 73, 0
2, 27760, Note_on_c, 0, 75, 93
2, 27840, Note_on_c, 0, 76, 97
2, 27848, Note_on_c, 0, 75, 0
2, 27920, Note_on_c, 0, 75, 80
2, 27936, Note_on_c, 0, 76, 0
2, 27992, Note_on_c, 0, 73, 102
2, 28004, Note_on_c, 0, 75, 0
2, 28080, Note_on_c, 0, 75, 96
2, 28088, Note_on_c, 0, 73, 0
2, 28144, Note_on_c, 0, 75, 0
2, 28152, Note_on_c, 0, 76, 93
2, 28232, Note_on_c, 0, 78, 90
2, 28248, Note_on_c, 0, 76, 0
2, 28328, Note_on_c, 0, 79, 91
2, 28332, Note_on_c, 0, 78, 0
2, 28408, Note_on_c, 0, 78, 102
2, 28424, Note_on_c, 0, 79, 0
2, 28492, Note_on_c, 0, 76, 101
2, 28508, Note_on_c, 0, 78, 0
2, 28572, Note_on_c, 0, 78, 101
2, 28580, Note_on_c, 0, 76, 0
2, 28632, Note_on_c, 0, 78, 0
2, 28644, Note_on_c, 0, 79, 88
2, 28720, Note_on_c, 0, 79, 0
2, 28724, Note_on_c, 0, 81, 104
2, 28816, Note_on_c, 0, 83, 102
2, 28828, Note_on_c, 0, 81, 0
2, 28904, Note_on_c, 0, 81, 92
2, 28912, Note_on_c, 0, 83, 0
2, 28980, Note_on_c, 0, 79, 102
2, 28984, Note_on_c, 0, 81, 0
2, 29060, Note_on_c, 0, 81, 102
2, 29076, Note_on_c, 0, 79, 0
2, 29140, Note_on_c, 0, 81, 0
2, 29140, Note_on_c, 0, 83, 104
2, 29220, Note_on_c, 0, 83, 0
2, 29220, Note_on_c, 0, 84, 95
2, 29300, Note_on_c, 0, 84, 0
2, 29300, Note_on_c, 0, 75, 104
2, 29540, Note_on_c, 0, 75, 0
2, 29540, Note_on_c, 0, 84, 100
2, 29780, Note_on_c, 0, 84, 0
2, 29780, Note_on_c, 0, 83, 111
2, 30020, Note_on_c, 0, 83, 0
2, 30020, Note_on_c, 0, 74, 102
2, 30296, Note_on_c, 0, 73, 101
2, 30320, Note_on_c, 0, 74, 0
2, 30372, Note_on_c, 0, 75, 88
2, 30376, Note_on_c, 0, 73, 0
2, 30452, Note_on_c, 0, 75, 0
2, 30456, Note_on_c, 0, 76, 97
2, 30516, Note_on_c, 0, 76, 0
2, 30528, Note_on_c, 0, 78, 102
2, 30612, Note_on_c, 0, 78, 0
2, 30612, Note_on_c, 0, 79, 100
2, 30700, Note_on_c, 0, 79, 0
2, 30740, Note_on_c, 0, 70, 115
2, 30980, Note_on_c, 0, 70, 0
2, 30980, Note_on_c, 0, 79, 94
2, 31220, Note_on_c, 0, 79, 0
2, 31220, Note_on_c, 0, 78, 106
2, 31460, Note_on_c, 0, 78, 0
2, 31460, Note_on_c, 0, 69, 92
2, 31700, Note_on_c, 0, 67, 101
2, 31704, Note_on_c, 0, 69, 0
2, 31936, Note_on_c, 0, 67, 0
2, 31940, Note_on_c, 0, 63, 106
2, 32180, Note_on_c, 0, 63, 0
2, 32180, Note_on_c, 0, 64, 104
2, 32420, Note_on_c, 0, 64, 0
2, 32420, Note_on_c, 0, 60, 113
2, 32660, Note_on_c, 0, 60, 0
2, 32660, Note_on_c, 0, 51, 113
2, 32900, Note_on_c, 0, 51, 0
2, 32900, Note_on_c, 0, 75, 113
2, 33140, Note_on_c, 0, 75, 0
2, 33140, Note_on_c, 0, 76, 113
2, 33380, Note_on_c, 0, 76, 0
2, 33380, Note_on_c, 0, 64, 113
2, 33620, Note_on_c, 0, 64, 0
2, 33700, Note_on_c, 0, 67, 91
2, 33776, Note_on_c, 0, 67, 0
2, 33780, Note_on_c, 0, 71, 90
2, 33856, Note_on_c, 0, 71, 0
2, 33860, Note_on_c, 0, 76, 86
2, 33936, Note_on_c, 0, 76, 0
2, 33940, Note_on_c, 0, 79, 92
2, 34016, Note_on_c, 0, 79, 0
2, 34020, Note_on_c, 0, 75, 84
2, 34096, Note_on_c, 0, 75, 0
2, 34100, Note_on_c, 0, 76, 92
2, 34176, Note_on_c, 0, 76, 0
2, 34180, Note_on_c, 0, 71, 91
2, 34256, Note_on_c, 0, 71, 0
2, 34260, Note_on_c, 0, 67, 93
2, 34336, Note_on_c, 0, 67, 0
2, 34420, Note_on_c, 0, 68, 92
2, 34496, Note_on_c, 0, 68, 0
2, 34500, Note_on_c, 0, 77, 111
2, 34576, Note_on_c, 0, 77, 0
2, 34580, Note_on_c, 0, 76, 92
2, 34656, Note_on_c, 0, 76, 0
2, 34660, Note_on_c, 0, 72, 95
2, 34736, Note_on_c, 0, 72, 0
2, 34740, Note_on_c, 0, 69, 71
2, 34816, Note_on_c, 0, 69, 0
2, 34900, Note_on_c, 0, 62, 81
2, 34976, Note_on_c, 0, 62, 0
2, 34980, Note_on_c, 0, 71, 106
2, 35056, Note_on_c, 0, 71, 0
2, 35140, Note_on_c, 0, 60, 95
2, 35216, Note_on_c, 0, 60, 0
2, 35220, Note_on_c, 0, 69, 102
2, 35296, Note_on_c, 0, 69, 0
2, 35380, Note_on_c, 0, 59, 98
2, 35456, Note_on_c, 0, 59, 0
2, 35460, Note_on_c, 0, 67, 113
2, 35536, Note_on_c, 0, 67, 0
2, 35620, Note_on_c, 0, 60, 83
2, 35696, Note_on_c, 0, 60, 0
2, 35700, Note_on_c, 0, 69, 111
2, 35776, Note_on_c, 0, 69, 0
2, 35860, Note_on_c, 0, 66, 88
2, 35936, Note_on_c, 0, 66, 0
2, 35940, Note_on_c, 0, 75, 101
2, 36016, Note_on_c, 0, 75, 0
2, 36020, Note_on_c, 0, 74, 89
2, 36096, Note_on_c, 0, 74, 0
2, 36100, Note_on_c, 0, 71, 100
2, 36176, Note_on_c, 0, 71, 0
2, 36180, Note_on_c, 0, 67, 86
2, 36256, Note_on_c, 0, 67, 0
2, 36340, Note_on_c, 0, 60, 93
2, 36416, Note_on_c, 0, 60, 0
2, 36420, Note_on_c, 0, 69, 107
2, 36496, Note_on_c, 0, 69, 0
2, 36580, Note_on_c, 0, 59, 100
2, 36656, Note_on_c, 0, 59, 0
2, 36660, Note_on_c, 0, 67, 109
2, 36736, Note_on_c, 0, 67, 0
2, 36820, Note_on_c, 0, 57, 83
2, 36896, Note_on_c, 0, 57, 0
2, 36900, Note_on_c, 0, 66, 101
2, 36976, Note_on_c, 0, 66, 0
2, 37060, Note_on_c, 0, 59, 95
2, 37136, Note_on_c, 0, 59, 0
2, 37140, Note_on_c, 0, 67, 107
2, 37216, Note_on_c, 0, 67, 0
2, 37300, Note_on_c, 0, 64, 93
2, 37376, Note_on_c, 0, 64, 0
2, 37380, Note_on_c, 0, 74, 109
2, 37456, Note_on_c, 0, 74, 0
2, 37460, Note_on_c, 0, 72, 104
2, 37536, Note_on_c, 0, 72, 0
2, 37540, Note_on_c, 0, 69, 92
2, 37616, Note_on_c, 0, 69, 0
2, 37620, Note_on_c, 0, 64, 97
2, 37696, Note_on_c, 0, 64, 0
2, 37700, Note_on_c, 0, 60, 113
2, 37816, Note_on_c, 0, 60, 0
2, 37940, Note_on_c, 0, 60, 113
2, 38056, Note_on_c, 0, 60, 0
2, 38180, Note_on_c, 0, 60, 113
2, 38296, Note_on_c, 0, 60, 0
2, 38420, Note_on_c, 0, 60, 113
2, 38536, Note_on_c, 0, 60, 0
2, 38660, Note_on_c, 0, 72, 113
2, 38776, Note_on_c, 0, 72, 0
2, 38900, Note_on_c, 0, 72, 111
2, 38976, Note_on_c, 0, 72, 0
2, 38980, Note_on_c, 0, 69, 97
2, 39056, Note_on_c, 0, 69, 0
2, 39060, Note_on_c, 0, 66, 112
2, 39136, Note_on_c, 0, 66, 0
2, 39140, Note_on_c, 0, 62, 113
2, 39256, Note_on_c, 0, 62, 0
2, 39380, Note_on_c, 0, 62, 113
2, 39496, Note_on_c, 0, 62, 0
2, 39620, Note_on_c, 0, 62, 113
2, 39736, Note_on_c, 0, 62, 0
2, 39860, Note_on_c, 0, 62, 113
2, 39976, Note_on_c, 0, 62, 0
2, 40100, Note_on_c, 0, 72, 113
2, 40216, Note_on_c, 0, 72, 0
2, 40340, Note_on_c, 0, 71, 91
2, 40416, Note_on_c, 0, 71, 0
2, 40420, Note_on_c, 0, 67, 90
2, 40496, Note_on_c, 0, 67, 0
2, 40500, Note_on_c, 0, 74, 97
2, 40576, Note_on_c, 0, 74, 0
2, 40580, Note_on_c, 0, 72, 96
2, 40656, Note_on_c, 0, 72, 0
2, 40660, Note_on_c, 0, 69, 95
2, 40736, Note_on_c, 0, 69, 0
2, 40740, Note_on_c, 0, 76, 107
2, 40816, Note_on_c, 0, 76, 0
2, 40820, Note_on_c, 0, 74, 113
2, 41060, Note_on_c, 0, 74, 0
2, 41060, Note_on_c, 0, 59, 113
2, 41300, Note_on_c, 0, 59, 0
2, 41300, Note_on_c, 0, 55, 113
2, 41540, Note_on_c, 0, 55, 0
2, 41540, Note_on_c, 0, 77, 113
2, 41780, Note_on_c, 0, 77, 0
2, 41780, Note_on_c, 0, 76, 97
2, 41856, Note_on_c, 0, 76, 0
2, 41860, Note_on_c, 0, 79, 104
2, 41936, Note_on_c, 0, 79, 0
2, 41940, Note_on_c, 0, 72, 92
2, 42016, Note_on_c, 0, 72, 0
2, 42020, Note_on_c, 0, 74, 69
2, 42096, Note_on_c, 0, 74, 0
2, 42100, Note_on_c, 0, 77, 101
2, 42176, Note_on_c, 0, 77, 0
2, 42180, Note_on_c, 0, 71, 86
2, 42256, Note_on_c, 0, 71, 0
2, 42260, Note_on_c, 0, 72, 85
2, 42336, Note_on_c, 0, 72, 0
2, 42340, Note_on_c, 0, 76, 93
2, 42416, Note_on_c, 0, 76, 0
2, 42420, Note_on_c, 0, 69, 81
2, 42496, Note_on_c, 0, 69, 0
2, 42500, Note_on_c, 0, 71, 88
2, 42576, Note_on_c, 0, 71, 0
2, 42580, Note_on_c, 0, 74, 96
2, 42656, Note_on_c, 0, 74, 0
2, 42660, Note_on_c, 0, 67, 84
2, 42736, Note_on_c, 0, 67, 0
2, 42740, Note_on_c, 0, 69, 88
2, 42816, Note_on_c, 0, 69, 0
2, 42820, Note_on_c, 0, 72, 102
2, 42896, Note_on_c, 0, 72, 0
2, 42900, Note_on_c, 0, 66, 92
2, 42976, Note_on_c, 0, 66, 0
2, 42980, Note_on_c, 0, 67, 92
2, 43056, Note_on_c, 0, 67, 0
2, 43060, Note_on_c, 0, 71, 100
2, 43136, Note_on_c, 0, 71, 0
2, 43140, Note_on_c, 0, 64, 91
2, 43216, Note_on_c, 0, 64, 0
2, 43220, Note_on_c, 0, 66, 86
2, 43296, Note_on_c, 0, 66, 0
2, 43300, Note_on_c, 0, 62, 84
2, 43376, Note_on_c, 0, 62, 0
2, 43380, Note_on_c, 0, 64, 89
2, 43456, Note_on_c, 0, 64, 0
2, 43460, Note_on_c, 0, 66, 82
2, 43536, Note_on_c, 0, 66, 0
2, 43540, Note_on_c, 0, 67, 91
2, 43616, Note_on_c, 0, 67, 0
2, 43620, Note_on_c, 0, 69, 101
2, 43696, Note_on_c, 0, 69, 0
2, 43700, Note_on_c, 0, 59, 98
2, 43936, Note_on_c, 0, 59, 0
2, 44020, Note_on_c, 0, 57, 98
2, 44096, Note_on_c, 0, 57, 0
2, 44100, Note_on_c, 0, 55, 92
2, 44176, Note_on_c, 0, 55, 0
2, 44180, Note_on_c, 0, 64, 98
2, 44360, Note_on_c, 0, 64, 0
2, 44360, Note_on_c, 0, 66, 98
2, 44420, Note_on_c, 0, 66, 0
2, 44420, Note_on_c, 0, 67, 98
2, 44480, Note_on_c, 0, 67, 0
2, 44480, Note_on_c, 0, 66, 98
2, 44540, Note_on_c, 0, 66, 0
2, 44540, Note_on_c, 0, 64, 98
2, 44600, Note_on_c, 0, 64, 0
2, 44600, Note_on_c, 0, 66, 98
2, 44660, Note_on_c, 0, 66, 0
2, 44660, Note_on_c, 0, 67, 101
2, 44736, Note_on_c, 0, 67, 0
2, 44740, Note_on_c, 0, 62, 95
2, 44816, Note_on_c, 0, 62, 0
2, 44820, Note_on_c, 0, 59, 100
2, 44896, Note_on_c, 0, 59, 0
2, 44900, Note_on_c, 0, 55, 96
2, 44976, Note_on_c, 0, 55, 0
2, 44980, Note_on_c, 0, 50, 95
2, 45056, Note_on_c, 0, 50, 0
2, 45060, Note_on_c, 0, 47, 92
2, 45136, Note_on_c, 0, 47, 0
2, 45140, Note_on_c, 0, 43, 97
2, 45376, Note_on_c, 0, 43, 0
2, 46080, End_track
3, 0, Start_track
3, 0, Title_t, "goldberg.mid"
3, 20, Note_on_c, 3, 55, 86
3, 256, Note_on_c, 3, 55, 0
3, 260, Note_on_c, 3, 59, 90
3, 496, Note_on_c, 3, 59, 0
3, 500, Note_on_c, 3, 62, 82
3, 736, Note_on_c, 3, 62, 0
3, 740, Note_on_c, 3, 67, 89
3, 976, Note_on_c, 3, 67, 0
3, 980, Note_on_c, 3, 71, 90
3, 1216, Note_on_c, 3, 71, 0
3, 1220, Note_on_c, 3, 73, 88
3, 1456, Note_on_c, 3, 73, 0
3, 1580, Note_on_c, 3, 74, 98
3, 1700, Note_on_c, 3, 74, 0
3, 1820, Note_on_c, 3, 69, 85
3, 1940, Note_on_c, 3, 69, 0
3, 2060, Note_on_c, 3, 66, 93
3, 2180, Note_on_c, 3, 66, 0
3, 2300, Note_on_c, 3, 62, 89
3, 2420, Note_on_c, 3, 62, 0
3, 2540, Note_on_c, 3, 57, 89
3, 2660, Note_on_c, 3, 57, 0
3, 2660, Note_on_c, 3, 55, 76
3, 2780, Note_on_c, 3, 55, 0
3, 2780, Note_on_c, 3, 54, 79
3, 2900, Note_on_c, 3, 54, 0
3, 2900, Note_on_c, 3, 52, 90
3, 3136, Note_on_c, 3, 52, 0
3, 3140, Note_on_c, 3, 55, 86
3, 3376, Note_on_c, 3, 55, 0
3, 3380, Note_on_c, 3, 57, 100
3, 3616, Note_on_c, 3, 57, 0
3, 3620, Note_on_c, 3, 61, 77
3, 3856, Note_on_c, 3, 61, 0
3, 3860, Note_on_c, 3, 64, 98
3, 4096, Note_on_c, 3, 64, 0
3, 4100, Note_on_c, 3, 67, 96
3, 4336, Note_on_c, 3, 67, 0
3, 4460, Note_on_c, 3, 66, 101
3, 4580, Note_on_c, 3, 66, 0
3, 4700, Note_on_c, 3, 62, 93
3, 4820, Note_on_c, 3, 62, 0
3, 4940, Note_on_c, 3, 57, 91
3, 5060, Note_on_c, 3, 57, 0
3, 5180, Note_on_c, 3, 54, 104
3, 5300, Note_on_c, 3, 54, 0
3, 5420, Note_on_c, 3, 52, 97
3, 5540, Note_on_c, 3, 52, 0
3, 5540, Note_on_c, 3, 50, 85
3, 5660, Note_on_c, 3, 50, 0
3, 5660, Note_on_c, 3, 48, 78
3, 5780, Note_on_c, 3, 48, 0
3, 5780, Note_on_c, 3, 47, 93
3, 6016, Note_on_c, 3, 47, 0
3, 6020, Note_on_c, 3, 50, 93
3, 6256, Note_on_c, 3, 50, 0
3, 6260, Note_on_c, 3, 55, 101
3, 6496, Note_on_c, 3, 55, 0
3, 6500, Note_on_c, 3, 59, 97
3, 6736, Note_on_c, 3, 59, 0
3, 6740, Note_on_c, 3, 62, 97
3, 6976, Note_on_c, 3, 62, 0
3, 6980, Note_on_c, 3, 65, 96
3, 7216, Note_on_c, 3, 65, 0
3, 7340, Note_on_c, 3, 64, 88
3, 7460, Note_on_c, 3, 64, 0
3, 7580, Note_on_c, 3, 60, 89
3, 7700, Note_on_c, 3, 60, 0
3, 7820, Note_on_c, 3, 55, 92
3, 7940, Note_on_c, 3, 55, 0
3, 8060, Note_on_c, 3, 52, 98
3, 8180, Note_on_c, 3, 52, 0
3, 8300, Note_on_c, 3, 48, 93
3, 8420, Note_on_c, 3, 48, 0
3, 8420, Note_on_c, 3, 47, 89
3, 8540, Note_on_c, 3, 47, 0
3, 8540, Note_on_c, 3, 45, 71
3, 8660, Note_on_c, 3, 45, 0
3, 8660, Note_on_c, 3, 50, 88
3, 8896, Note_on_c, 3, 50, 0
3, 8900, Note_on_c, 3, 54, 97
3, 9136, Note_on_c, 3, 54, 0
3, 9140, Note_on_c, 3, 57, 90
3, 9376, Note_on_c, 3, 57, 0
3, 9380, Note_on_c, 3, 62, 97
3, 9616, Note_on_c, 3, 62, 0
3, 9620, Note_on_c, 3, 66, 86
3, 9856, Note_on_c, 3, 66, 0
3, 9860, Note_on_c, 3, 69, 97
3, 10096, Note_on_c, 3, 69, 0
3, 10220, Note_on_c, 3, 71, 100
3, 10340, Note_on_c, 3, 71, 0
3, 10460, Note_on_c, 3, 67, 91
3, 10580, Note_on_c, 3, 67, 0
3, 10700, Note_on_c, 3, 62, 90
3, 10820, Note_on_c, 3, 62, 0
3, 10940, Note_on_c, 3, 59, 86
3, 11060, Note_on_c, 3, 59, 0
3, 11180, Note_on_c, 3, 57, 83
3, 11300, Note_on_c, 3, 57, 0
3, 11300, Note_on_c, 3, 55, 83
3, 11420, Note_on_c, 3, 55, 0
3, 11420, Note_on_c, 3, 54, 79
3, 11540, Note_on_c, 3, 54, 0
3, 11540, Note_on_c, 3, 55, 96
3, 11780, Note_on_c, 3, 55, 0
3, 12020, Note_on_c, 3, 83, 123
3, 12080, Note_on_c, 3, 83, 0
3, 12080, Note_on_c, 3, 81, 123
3, 12140, Note_on_c, 3, 81, 0
3, 12140, Note_on_c, 3, 83, 123
3, 12500, Note_on_c, 3, 83, 0
3, 12740, Note_on_c, 3, 64, 102
3, 12980, Note_on_c, 3, 64, 0
3, 12980, Note_on_c, 3, 54, 88
3, 13216, Note_on_c, 3, 54, 0
3, 13460, Note_on_c, 3, 81, 119
3, 13520, Note_on_c, 3, 81, 0
3, 13520, Note_on_c, 3, 79, 119
3, 13580, Note_on_c, 3, 79, 0
3, 13580, Note_on_c, 3, 81, 119
3, 13940, Note_on_c, 3, 81, 0
3, 14180, Note_on_c, 3, 62, 111
3, 14420, Note_on_c, 3, 62, 0
3, 14420, Note_on_c, 3, 71, 101
3, 14500, Note_on_c, 3, 71, 0
3, 14500, Note_on_c, 3, 72, 77
3, 14580, Note_on_c, 3, 72, 0
3, 14580, Note_on_c, 3, 71, 85
3, 14656, Note_on_c, 3, 69, 81
3, 14660, Note_on_c, 3, 71, 0
3, 14736, Note_on_c, 3, 69, 0
3, 14736, Note_on_c, 3, 71, 81
3, 14816, Note_on_c, 3, 71, 0
3, 14816, Note_on_c, 3, 69, 81
3, 14896, Note_on_c, 3, 69, 0
3, 14896, Note_on_c, 3, 67, 81
3, 14976, Note_on_c, 3, 67, 0
3, 14976, Note_on_c, 3, 69, 81
3, 15052, Note_on_c, 3, 67, 89
3, 15056, Note_on_c, 3, 69, 0
3, 15132, Note_on_c, 3, 67, 0
3, 15132, Note_on_c, 3, 66, 79
3, 15212, Note_on_c, 3, 66, 0
3, 15212, Note_on_c, 3, 67, 91
3, 15292, Note_on_c, 3, 67, 0
3, 15292, Note_on_c, 3, 66, 72
3, 15372, Note_on_c, 3, 66, 0
3, 15372, Note_on_c, 3, 64, 72
3, 15448, Note_on_c, 3, 66, 72
3, 15452, Note_on_c, 3, 64, 0
3, 15528, Note_on_c, 3, 66, 0
3, 15528, Note_on_c, 3, 64, 91
3, 15608, Note_on_c, 3, 64, 0
3, 15608, Note_on_c, 3, 62, 91
3, 15688, Note_on_c, 3, 62, 0
3, 15688, Note_on_c, 3, 64, 91
3, 15768, Note_on_c, 3, 64, 0
3, 15768, Note_on_c, 3, 62, 91
3, 15844, Note_on_c, 3, 61, 91
3, 15848, Note_on_c, 3, 62, 0
3, 15924, Note_on_c, 3, 61, 0
3, 15924, Note_on_c, 3, 62, 91
3, 16004, Note_on_c, 3, 62, 0
3, 16004, Note_on_c, 3, 61, 91
3, 16084, Note_on_c, 3, 61, 0
3, 16084, Note_on_c, 3, 59, 91
3, 16164, Note_on_c, 3, 59, 0
3, 16164, Note_on_c, 3, 61, 91
3, 16240, Note_on_c, 3, 59, 91
3, 16244, Note_on_c, 3, 61, 0
3, 16320, Note_on_c, 3, 59, 0
3, 16320, Note_on_c, 3, 57, 91
3, 16400, Note_on_c, 3, 57, 0
3, 16400, Note_on_c, 3, 59, 91
3, 16480, Note_on_c, 3, 59, 0
3, 16480, Note_on_c, 3, 57, 91
3, 16560, Note_on_c, 3, 57, 0
3, 16560, Note_on_c, 3, 55, 91
3, 16636, Note_on_c, 3, 57, 91
3, 16640, Note_on_c, 3, 55, 0
3, 16716, Note_on_c, 3, 57, 0
3, 16716, Note_on_c, 3, 55, 91
3, 16796, Note_on_c, 3, 55, 0
3, 16796, Note_on_c, 3, 54, 91
3, 16876, Note_on_c, 3, 54, 0
3, 16876, Note_on_c, 3, 55, 91
3, 16956, Note_on_c, 3, 55, 0
3, 16956, Note_on_c, 3, 54, 91
3, 17032, Note_on_c, 3, 52, 91
3, 17036, Note_on_c, 3, 54, 0
3, 17112, Note_on_c, 3, 52, 0
3, 17112, Note_on_c, 3, 54, 91
3, 17192, Note_on_c, 3, 54, 0
3, 17192, Note_on_c, 3, 52, 91
3, 17272, Note_on_c, 3, 52, 0
3, 17300, Note_on_c, 3, 50, 91
3, 17540, Note_on_c, 3, 50, 0
3, 17540, Note_on_c, 3, 57, 91
3, 17780, Note_on_c, 3, 57, 0
3, 17780, Note_on_c, 3, 66, 91
3, 18020, Note_on_c, 3, 66, 0
3, 18020, Note_on_c, 3, 57, 91
3, 18260, Note_on_c, 3, 57, 0
3, 18260, Note_on_c, 3, 50, 91
3, 18500, Note_on_c, 3, 50, 0
3, 18500, Note_on_c, 3, 60, 91
3, 18740, Note_on_c, 3, 60, 0
3, 18740, Note_on_c, 3, 59, 91
3, 18820, Note_on_c, 3, 59, 0
3, 18820, Note_on_c, 3, 55, 91
3, 18900, Note_on_c, 3, 55, 0
3, 18900, Note_on_c, 3, 62, 91
3, 18976, Note_on_c, 3, 61, 91
3, 18980, Note_on_c, 3, 62, 0
3, 19056, Note_on_c, 3, 61, 0
3, 19056, Note_on_c, 3, 57, 91
3, 19136, Note_on_c, 3, 57, 0
3, 19136, Note_on_c, 3, 64, 91
3, 19216, Note_on_c, 3, 64, 0
3, 19216, Note_on_c, 3, 62, 91
3, 19296, Note_on_c, 3, 62, 0
3, 19296, Note_on_c, 3, 59, 91
3, 19372, Note_on_c, 3, 66, 91
3, 19376, Note_on_c, 3, 59, 0
3, 19452, Note_on_c, 3, 66, 0
3, 19452, Note_on_c, 3, 64, 91
3, 19532, Note_on_c, 3, 64, 0
3, 19532, Note_on_c, 3, 61, 91
3, 19612, Note_on_c, 3, 61, 0
3, 19612, Note_on_c, 3, 67, 91
3, 19692, Note_on_c, 3, 67, 0
3, 19692, Note_on_c, 3, 66, 91
3, 19768, Note_on_c, 3, 62, 91
3, 19772, Note_on_c, 3, 66, 0
3, 19848, Note_on_c, 3, 62, 0
3, 19848, Note_on_c, 3, 69, 91
3, 19928, Note_on_c, 3, 69, 0
3, 19928, Note_on_c, 3, 67, 91
3, 20008, Note_on_c, 3, 67, 0
3, 20008, Note_on_c, 3, 64, 91
3, 20088, Note_on_c, 3, 64, 0
3, 20088, Note_on_c, 3, 71, 91
3, 20168, Note_on_c, 3, 71, 0
3, 20180, Note_on_c, 3, 69, 91
3, 20496, Note_on_c, 3, 69, 0
3, 20496, Note_on_c, 3, 71, 91
3, 20576, Note_on_c, 3, 71, 0
3, 20576, Note_on_c, 3, 73, 91
3, 20656, Note_on_c, 3, 73, 0
3, 20656, Note_on_c, 3, 74, 91
3, 20736, Note_on_c, 3, 74, 0
3, 20736, Note_on_c, 3, 73, 91
3, 20812, Note_on_c, 3, 71, 91
3, 20816, Note_on_c, 3, 73, 0
3, 20892, Note_on_c, 3, 71, 0
3, 20892, Note_on_c, 3, 69, 91
3, 21208, Note_on_c, 3, 69, 0
3, 21208, Note_on_c, 3, 67, 91
3, 21288, Note_on_c, 3, 67, 0
3, 21288, Note_on_c, 3, 66, 91
3, 21368, Note_on_c, 3, 66, 0
3, 21368, Note_on_c, 3, 64, 91
3, 21448, Note_on_c, 3, 64, 0
3, 21448, Note_on_c, 3, 66, 91
3, 21528, Note_on_c, 3, 66, 0
3, 21528, Note_on_c, 3, 67, 91
3, 21608, Note_on_c, 3, 67, 0
3, 21620, Note_on_c, 3, 66, 91
3, 21856, Note_on_c, 3, 66, 0
3, 22016, Note_on_c, 3, 66, 91
3, 22096, Note_on_c, 3, 66, 0
3, 22096, Note_on_c, 3, 69, 91
3, 22176, Note_on_c, 3, 69, 0
3, 22176, Note_on_c, 3, 74, 91
3, 22252, Note_on_c, 3, 78, 91
3, 22256, Note_on_c, 3, 74, 0
3, 22332, Note_on_c, 3, 78, 0
3, 22332, Note_on_c, 3, 81, 91
3, 22412, Note_on_c, 3, 81, 0
3, 22412, Note_on_c, 3, 86, 91
3, 22648, Note_on_c, 3, 86, 0
3, 23060, Note_on_c, 3, 50, 109
3, 23296, Note_on_c, 3, 50, 0
3, 23300, Note_on_c, 3, 38, 88
3, 23536, Note_on_c, 3, 38, 0
3, 23540, Note_on_c, 3, 42, 93
3, 23776, Note_on_c, 3, 42, 0
3, 23780, Note_on_c, 3, 45, 95
3, 24016, Note_on_c, 3, 45, 0
3, 24020, Note_on_c, 3, 50, 74
3, 24256, Note_on_c, 3, 50, 0
3, 24260, Note_on_c, 3, 54, 97
3, 24496, Note_on_c, 3, 54, 0
3, 24500, Note_on_c, 3, 55, 92
3, 24736, Note_on_c, 3, 55, 0
3, 24740, Note_on_c, 3, 59, 86
3, 24976, Note_on_c, 3, 59, 0
3, 24980, Note_on_c, 3, 62, 98
3, 25216, Note_on_c, 3, 62, 0
3, 25220, Note_on_c, 3, 67, 95
3, 25456, Note_on_c, 3, 67, 0
3, 25460, Note_on_c, 3, 71, 97
3, 25520, Note_on_c, 3, 71, 0
3, 25520, Note_on_c, 3, 69, 90
3, 25580, Note_on_c, 3, 69, 0
3, 25580, Note_on_c, 3, 71, 88
3, 25936, Note_on_c, 3, 71, 0
3, 26024, Note_on_c, 3, 64, 98
3, 26092, Note_on_c, 3, 64, 0
3, 26100, Note_on_c, 3, 63, 94
3, 26160, Note_on_c, 3, 63, 0
3, 26176, Note_on_c, 3, 64, 96
3, 26252, Note_on_c, 3, 66, 85
3, 26260, Note_on_c, 3, 64, 0
3, 26324, Note_on_c, 3, 67, 98
3, 26332, Note_on_c, 3, 66, 0
3, 26416, Note_on_c, 3, 69, 101
3, 26420, Note_on_c, 3, 67, 0
3, 26496, Note_on_c, 3, 67, 93
3, 26512, Note_on_c, 3, 69, 0
3, 26568, Note_on_c, 3, 66, 99
3, 26580, Note_on_c, 3, 67, 0
3, 26652, Note_on_c, 3, 67, 90
3, 26656, Note_on_c, 3, 66, 0
3, 26728, Note_on_c, 3, 69, 91
3, 26732, Note_on_c, 3, 67, 0
3, 26804, Note_on_c, 3, 69, 0
3, 26808, Note_on_c, 3, 71, 96
3, 26864, Note_on_c, 3, 71, 0
3, 26900, Note_on_c, 3, 72, 111
3, 26980, Note_on_c, 3, 71, 88
3, 27000, Note_on_c, 3, 72, 0
3, 27064, Note_on_c, 3, 71, 0
3, 27064, Note_on_c, 3, 69, 77
3, 27140, Note_on_c, 3, 69, 0
3, 27148, Note_on_c, 3, 67, 81
3, 27228, Note_on_c, 3, 66, 86
3, 27236, Note_on_c, 3, 67, 0
3, 27296, Note_on_c, 3, 66, 0
3, 27304, Note_on_c, 3, 64, 85
3, 27392, Note_on_c, 3, 63, 108
3, 27400, Note_on_c, 3, 64, 0
3, 27700, Note_on_c, 3, 63, 0
3, 27708, Note_on_c, 3, 64, 101
3, 27780, Note_on_c, 3, 66, 101
3, 27796, Note_on_c, 3, 64, 0
3, 27852, Note_on_c, 3, 67, 102
3, 27856, Note_on_c, 3, 66, 0
3, 27928, Note_on_c, 3, 66, 102
3, 27948, Note_on_c, 3, 67, 0
3, 27996, Note_on_c, 3, 66, 0
3, 28004, Note_on_c, 3, 64, 96
3, 28088, Note_on_c, 3, 66, 92
3, 28108, Note_on_c, 3, 64, 0
3, 28160, Note_on_c, 3, 67, 92
3, 28164, Note_on_c, 3, 66, 0
3, 28236, Note_on_c, 3, 69, 89
3, 28244, Note_on_c, 3, 67, 0
3, 28320, Note_on_c, 3, 69, 0
3, 28336, Note_on_c, 3, 59, 102
3, 28576, Note_on_c, 3, 57, 104
3, 28600, Note_on_c, 3, 59, 0
3, 28812, Note_on_c, 3, 57, 0
3, 28816, Note_on_c, 3, 55, 97
3, 28888, Note_on_c, 3, 54, 97
3, 28896, Note_on_c, 3, 55, 0
3, 28968, Note_on_c, 3, 54, 0
3, 28968, Note_on_c, 3, 52, 104
3, 29148, Note_on_c, 3, 51, 97
3, 29164, Note_on_c, 3, 52, 0
3, 29224, Note_on_c, 3, 51, 0
3, 29228, Note_on_c, 3, 52, 101
3, 29296, Note_on_c, 3, 52, 0
3, 29304, Note_on_c, 3, 53, 102
3, 29372, Note_on_c, 3, 53, 0
3, 29380, Note_on_c, 3, 52, 91
3, 29452, Note_on_c, 3, 53, 98
3, 29468, Note_on_c, 3, 52, 0
3, 29532, Note_on_c, 3, 54, 93
3, 29540, Note_on_c, 3, 53, 0
3, 29592, Note_on_c, 3, 54, 0
3, 29604, Note_on_c, 3, 52, 74
3, 29684, Note_on_c, 3, 54, 96
3, 29704, Note_on_c, 3, 52, 0
3, 29756, Note_on_c, 3, 54, 0
3, 29756, Note_on_c, 3, 55, 93
3, 29832, Note_on_c, 3, 54, 104
3, 29844, Note_on_c, 3, 55, 0
3, 29908, Note_on_c, 3, 54, 0
3, 29908, Note_on_c, 3, 55, 95
3, 29988, Note_on_c, 3, 56, 99
3, 29992, Note_on_c, 3, 55, 0
3, 30052, Note_on_c, 3, 56, 0
3, 30060, Note_on_c, 3, 54, 89
3, 30140, Note_on_c, 3, 56, 96
3, 30144, Note_on_c, 3, 54, 0
3, 30216, Note_on_c, 3, 56, 0
3, 30224, Note_on_c, 3, 57, 121
3, 30544, Note_on_c, 3, 58, 104
3, 30552, Note_on_c, 3, 57, 0
3, 30612, Note_on_c, 3, 58, 0
3, 30616, Note_on_c, 3, 59, 98
3, 30708, Note_on_c, 3, 60, 111
3, 30720, Note_on_c, 3, 59, 0
3, 30792, Note_on_c, 3, 60, 0
3, 30792, Note_on_c, 3, 59, 93
3, 30868, Note_on_c, 3, 59, 0
3, 30868, Note_on_c, 3, 60, 106
3, 30952, Note_on_c, 3, 61, 106
3, 30956, Note_on_c, 3, 60, 0
3, 31028, Note_on_c, 3, 61, 0
3, 31032, Note_on_c, 3, 59, 96
3, 31104, Note_on_c, 3, 61, 94
3, 31116, Note_on_c, 3, 59, 0
3, 31188, Note_on_c, 3, 62, 107
3, 31196, Note_on_c, 3, 61, 0
3, 31256, Note_on_c, 3, 62, 0
3, 31264, Note_on_c, 3, 61, 104
3, 31340, Note_on_c, 3, 62, 77
3, 31348, Note_on_c, 3, 61, 0
3, 31404, Note_on_c, 3, 62, 0
3, 31424, Note_on_c, 3, 63, 121
3, 31504, Note_on_c, 3, 61, 99
3, 31520, Note_on_c, 3, 63, 0
3, 31576, Note_on_c, 3, 63, 102
3, 31584, Note_on_c, 3, 61, 0
3, 31640, Note_on_c, 3, 64, 107
3, 31660, Note_on_c, 3, 63, 0
3, 31740, Note_on_c, 3, 64, 0
3, 31740, Note_on_c, 3, 63, 89
3, 31824, Note_on_c, 3, 63, 0
3, 31824, Note_on_c, 3, 64, 95
3, 31920, Note_on_c, 3, 64, 0
3, 31920, Note_on_c, 3, 66, 106
3, 31996, Note_on_c, 3, 66, 0
3, 32004, Note_on_c, 3, 64, 98
3, 32084, Note_on_c, 3, 66, 108
3, 32100, Note_on_c, 3, 64, 0
3, 32172, Note_on_c, 3, 67, 107
3, 32188, Note_on_c, 3, 66, 0
3, 32248, Note_on_c, 3, 66, 101
3, 32252, Note_on_c, 3, 67, 0
3, 32324, Note_on_c, 3, 67, 102
3, 32336, Note_on_c, 3, 66, 0
3, 32416, Note_on_c, 3, 69, 101
3, 32420, Note_on_c, 3, 67, 0
3, 32496, Note_on_c, 3, 67, 107
3, 32508, Note_on_c, 3, 69, 0
3, 32580, Note_on_c, 3, 67, 0
3, 32580, Note_on_c, 3, 69, 101
3, 32628, Note_on_c, 3, 69, 0
3, 32660, Note_on_c, 3, 71, 86
3, 32736, Note_on_c, 3, 71, 0
3, 32744, Note_on_c, 3, 69, 85
3, 32816, Note_on_c, 3, 71, 92
3, 32836, Note_on_c, 3, 69, 0
3, 32908, Note_on_c, 3, 72, 111
3, 32916, Note_on_c, 3, 71, 0
3, 32984, Note_on_c, 3, 71, 100
3, 33000, Note_on_c, 3, 72, 0
3, 33072, Note_on_c, 3, 71, 0
3, 33080, Note_on_c, 3, 69, 95
3, 33148, Note_on_c, 3, 67, 104
3, 33188, Note_on_c, 3, 69, 0
3, 33224, Note_on_c, 3, 67, 0
3, 33224, Note_on_c, 3, 66, 93
3, 33288, Note_on_c, 3, 67, 91
3, 33292, Note_on_c, 3, 66, 0
3, 33368, Note_on_c, 3, 69, 84
3, 33372, Note_on_c, 3, 67, 0
3, 33452, Note_on_c, 3, 67, 91
3, 33464, Note_on_c, 3, 69, 0
3, 33532, Note_on_c, 3, 66, 97
3, 33540, Note_on_c, 3, 67, 0
3, 33624, Note_on_c, 3, 66, 0
3, 33624, Note_on_c, 3, 64, 111
3, 34108, Note_on_c, 3, 64, 0
3, 34328, Note_on_c, 3, 50, 102
3, 34572, Note_on_c, 3, 50, 0
3, 34572, Note_on_c, 3, 48, 107
3, 34688, Note_on_c, 3, 48, 0
3, 34820, Note_on_c, 3, 64, 107
3, 34936, Note_on_c, 3, 64, 0
3, 35060, Note_on_c, 3, 64, 119
3, 35176, Note_on_c, 3, 64, 0
3, 35300, Note_on_c, 3, 64, 121
3, 35416, Note_on_c, 3, 64, 0
3, 35540, Note_on_c, 3, 64, 121
3, 35656, Note_on_c, 3, 64, 0
3, 35780, Note_on_c, 3, 48, 109
3, 36016, Note_on_c, 3, 48, 0
3, 36020, Note_on_c, 3, 47, 115
3, 36136, Note_on_c, 3, 47, 0
3, 36260, Note_on_c, 3, 62, 121
3, 36376, Note_on_c, 3, 62, 0
3, 36500, Note_on_c, 3, 62, 121
3, 36616, Note_on_c, 3, 62, 0
3, 36740, Note_on_c, 3, 62, 111
3, 36856, Note_on_c, 3, 62, 0
3, 36980, Note_on_c, 3, 62, 113
3, 37096, Note_on_c, 3, 62, 0
3, 37220, Note_on_c, 3, 47, 111
3, 37456, Note_on_c, 3, 47, 0
3, 37460, Note_on_c, 3, 45, 111
3, 37696, Note_on_c, 3, 45, 0
3, 37780, Note_on_c, 3, 59, 100
3, 37856, Note_on_c, 3, 59, 0
3, 37860, Note_on_c, 3, 67, 111
3, 37936, Note_on_c, 3, 67, 0
3, 38020, Note_on_c, 3, 57, 97
3, 38096, Note_on_c, 3, 57, 0
3, 38100, Note_on_c, 3, 66, 110
3, 38176, Note_on_c, 3, 66, 0
3, 38260, Note_on_c, 3, 55, 96
3, 38336, Note_on_c, 3, 55, 0
3, 38340, Note_on_c, 3, 64, 115
3, 38416, Note_on_c, 3, 64, 0
3, 38500, Note_on_c, 3, 54, 102
3, 38576, Note_on_c, 3, 54, 0
3, 38580, Note_on_c, 3, 62, 117
3, 38656, Note_on_c, 3, 62, 0
3, 38740, Note_on_c, 3, 55, 92
3, 38816, Note_on_c, 3, 55, 0
3, 38820, Note_on_c, 3, 64, 104
3, 38896, Note_on_c, 3, 64, 0
3, 38900, Note_on_c, 3, 50, 111
3, 39136, Note_on_c, 3, 50, 0
3, 39220, Note_on_c, 3, 57, 96
3, 39296, Note_on_c, 3, 57, 0
3, 39300, Note_on_c, 3, 66, 115
3, 39376, Note_on_c, 3, 66, 0
3, 39460, Note_on_c, 3, 59, 102
3, 39536, Note_on_c, 3, 59, 0
3, 39540, Note_on_c, 3, 67, 111
3, 39616, Note_on_c, 3, 67, 0
3, 39700, Note_on_c, 3, 60, 106
3, 39776, Note_on_c, 3, 60, 0
3, 39780, Note_on_c, 3, 69, 101
3, 39856, Note_on_c, 3, 69, 0
3, 39940, Note_on_c, 3, 59, 91
3, 40016, Note_on_c, 3, 59, 0
3, 40020, Note_on_c, 3, 67, 113
3, 40096, Note_on_c, 3, 67, 0
3, 40180, Note_on_c, 3, 57, 101
3, 40256, Note_on_c, 3, 57, 0
3, 40260, Note_on_c, 3, 66, 102
3, 40336, Note_on_c, 3, 66, 0
3, 40340, Note_on_c, 3, 55, 98
3, 40576, Note_on_c, 3, 55, 0
3, 40580, Note_on_c, 3, 67, 109
3, 40816, Note_on_c, 3, 67, 0
3, 40900, Note_on_c, 3, 71, 117
3, 40976, Note_on_c, 3, 71, 0
3, 40980, Note_on_c, 3, 64, 104
3, 41056, Note_on_c, 3, 64, 0
3, 41060, Note_on_c, 3, 65, 98
3, 41136, Note_on_c, 3, 65, 0
3, 41140, Note_on_c, 3, 69, 109
3, 41216, Note_on_c, 3, 69, 0
3, 41220, Note_on_c, 3, 62, 98
3, 41296, Note_on_c, 3, 62, 0
3, 41300, Note_on_c, 3, 64, 98
3, 41376, Note_on_c, 3, 64, 0
3, 41380, Note_on_c, 3, 67, 109
3, 41456, Note_on_c, 3, 67, 0
3, 41460, Note_on_c, 3, 60, 95
3, 41536, Note_on_c, 3, 60, 0
3, 41540, Note_on_c, 3, 62, 100
3, 41616, Note_on_c, 3, 62, 0
3, 41620, Note_on_c, 3, 65, 106
3, 41696, Note_on_c, 3, 65, 0
3, 41700, Note_on_c, 3, 59, 100
3, 41776, Note_on_c, 3, 59, 0
3, 41780, Note_on_c, 3, 60, 100
3, 41856, Note_on_c, 3, 60, 0
3, 41860, Note_on_c, 3, 55, 92
3, 41936, Note_on_c, 3, 55, 0
3, 41940, Note_on_c, 3, 64, 100
3, 42016, Note_on_c, 3, 64, 0
3, 42020, Note_on_c, 3, 62, 98
3, 42096, Note_on_c, 3, 62, 0
3, 42100, Note_on_c, 3, 59, 100
3, 42176, Note_on_c, 3, 59, 0
3, 42180, Note_on_c, 3, 65, 102
3, 42256, Note_on_c, 3, 65, 0
3, 42260, Note_on_c, 3, 64, 101
3, 42496, Note_on_c, 3, 64, 0
3, 42500, Note_on_c, 3, 79, 106
3, 42736, Note_on_c, 3, 79, 0
3, 42740, Note_on_c, 3, 84, 117
3, 42976, Note_on_c, 3, 84, 0
3, 42980, Note_on_c, 3, 76, 107
3, 43216, Note_on_c, 3, 76, 0
3, 43220, Note_on_c, 3, 74, 117
3, 43456, Note_on_c, 3, 74, 0
3, 43540, Note_on_c, 3, 76, 98
3, 43616, Note_on_c, 3, 76, 0
3, 43620, Note_on_c, 3, 78, 97
3, 43696, Note_on_c, 3, 78, 0
3, 43700, Note_on_c, 3, 79, 104
3, 43776, Note_on_c, 3, 79, 0
3, 43780, Note_on_c, 3, 78, 102
3, 43856, Note_on_c, 3, 78, 0
3, 43860, Note_on_c, 3, 76, 109
3, 43936, Note_on_c, 3, 76, 0
3, 43940, Note_on_c, 3, 74, 113
3, 44176, Note_on_c, 3, 74, 0
3, 44180, Note_on_c, 3, 72, 104
3, 44256, Note_on_c, 3, 72, 0
3, 44260, Note_on_c, 3, 71, 101
3, 44336, Note_on_c, 3, 71, 0
3, 44340, Note_on_c, 3, 69, 96
3, 44416, Note_on_c, 3, 69, 0
3, 44420, Note_on_c, 3, 71, 106
3, 44496, Note_on_c, 3, 71, 0
3, 44500, Note_on_c, 3, 72, 109
3, 44576, Note_on_c, 3, 72, 0
3, 44580, Note_on_c, 3, 71, 117
3, 44816, Note_on_c, 3, 71, 0
3, 45140, Note_on_c, 3, 59, 102
3, 45216, Note_on_c, 3, 59, 0
3, 45220, Note_on_c, 3, 62, 109
3, 45296, Note_on_c, 3, 62, 0
3, 45300, Note_on_c, 3, 67, 102
3, 45376, Note_on_c, 3, 67, 0
3, 45380, Note_on_c, 3, 71, 98
3, 45456, Note_on_c, 3, 71, 0
3, 45460, Note_on_c, 3, 74, 107
3, 45536, Note_on_c, 3, 74, 0
3, 45540, Note_on_c, 3, 79, 111
3, 45776, Note_on_c, 3, 79, 0
3, 46080, End_track
0, 0, End_of_file
