0, 0, Header, 1, 5, 480
1, 0, Start_track
1, 0, SMPTE_offset, 96, 0, 0, 0, 0
1, 0, Time_signature, 3, 2, 24, 8
1, 20, Tempo, 521739
1, 46080, End_track
2, 0, Start_track
2, 0, Title_t, "goldberg.mid"
2, 260, Note_on_c, 0, 67, 104
2, 500, Note_on_c, 0, 67, 0
2, 500, Note_on_c, 0, 83, 106
2, 616, Note_on_c, 0, 83, 0
2, 620, Note_on_c, 0, 81, 91
2, 736, Note_on_c, 0, 81, 0
2, 740, Note_on_c, 0, 79, 96
2, 856, Note_on_c, 0, 79, 0
2, 860, Note_on_c, 0, 78, 97
2, 976, Note_on_c, 0, 78, 0
2, 980, Note_on_c, 0, 76, 96
2, 1096, Note_on_c, 0, 76, 0
2, 1100, Note_on_c, 0, 74, 98
2, 1216, Note_on_c, 0, 74, 0
2, 1220, Note_on_c, 0, 73, 102
2, 1336, Note_on_c, 0, 73, 0
2, 1340, Note_on_c, 0, 71, 96
2, 1456, Note_on_c, 0, 71, 0
2, 1460, Note_on_c, 0, 69, 95
2, 1576, Note_on_c, 0, 69, 0
2, 1580, Note_on_c, 0, 67, 100
2, 1696, Note_on_c, 0, 67, 0
2, 1700, Note_on_c, 0, 66, 115
2, 1940, Note_on_c, 0, 66, 0
2, 1940, Note_on_c, 0, 81, 106
2, 2056, Note_on_c, 0, 81, 0
2, 2060, Note_on_c, 0, 79, 97
2, 2176, Note_on_c, 0, 79, 0
2, 2180, Note_on_c, 0, 78, 92
2, 2296, Note_on_c, 0, 78, 0
2, 2300, Note_on_c, 0, 76, 93
2, 2416, Note_on_c, 0, 76, 0
2, 2420, Note_on_c, 0, 74, 89
2, 2536, Note_on_c, 0, 74, 0
2, 2540, Note_on_c, 0, 73, 102
2, 2656, Note_on_c, 0, 73, 0
2, 2660, Note_on_c, 0, 71, 98
2, 2776, Note_on_c, 0, 71, 0
2, 2780, Note_on_c, 0, 69, 84
2, 2896, Note_on_c, 0, 69, 0
2, 2900, Note_on_c, 0, 67, 102
2, 3016, Note_on_c, 0, 67, 0
2, 3020, Note_on_c, 0, 66, 104
2, 3136, Note_on_c, 0, 66, 0
2, 3140, Note_on_c, 0, 64, 115
2, 3256, Note_on_c, 0, 64, 0
2, 3380, Note_on_c, 0, 79, 100
2, 3496, Note_on_c, 0, 79, 0
2, 3500, Note_on_c, 0, 78, 92
2, 3616, Note_on_c, 0, 78, 0
2, 3620, Note_on_c, 0, 76, 104
2, 3736, Note_on_c, 0, 76, 0
2, 3740, Note_on_c, 0, 74, 98
2, 3856, Note_on_c, 0, 74, 0
2, 3860, Note_on_c, 0, 73, 104
2, 3976, Note_on_c, 0, 73, 0
2, 3980, Note_on_c, 0, 71, 97
2, 4096, Note_on_c, 0, 71, 0
2, 4100, Note_on_c, 0, 69, 90
2, 4216, Note_on_c, 0, 69, 0
2, 4220, Note_on_c, 0, 67, 86
2, 4336, Note_on_c, 0, 67, 0
2, 4340, Note_on_c, 0, 66, 106
2, 4456, Note_on_c, 0, 66, 0
2, 4460, Note_on_c, 0, 64, 98
2, 4576, Note_on_c, 0, 64, 0
2, 4580, Note_on_c, 0, 62, 106
2, 4820, Note_on_c, 0, 62, 0
2, 5180, Note_on_c, 0, 64, 100
2, 5236, Note_on_c, 0, 64, 0
2, 5240, Note_on_c, 0, 66, 102
2, 5296, Note_on_c, 0, 66, 0
2, 5300, Note_on_c, 0, 67, 98
2, 5356, Note_on_c, 0, 67, 0
2, 5360, Note_on_c, 0, 69, 100
2, 5416, Note_on_c, 0, 69, 0
2, 5420, Note_on_c, 0, 71, 95
2, 5476, Note_on_c, 0, 71, 0
2, 5480, Note_on_c, 0, 73, 88
2, 5536, Note_on_c, 0, 73, 0
2, 5540, Note_on_c, 0, 74, 115
2, 6020, Note_on_c, 0, 74, 0
2, 6020, Note_on_c, 0, 59, 101
2, 6136, Note_on_c, 0, 59, 0
2, 6140, Note_on_c, 0, 60, 101
2, 6256, Note_on_c, 0, 60, 0
2, 6260, Note_on_c, 0, 62, 96
2, 6376, Note_on_c, 0, 62, 0
2, 6380, Note_on_c, 0, 64, 97
2, 6496, Note_on_c, 0, 64, 0
2, 6500, Note_on_c, 0, 66, 101
2, 6616, Note_on_c, 0, 66, 0
2, 6620, Note_on_c, 0, 67, 88
2, 6740, Note_on_c, 0, 67, 0
2, 6740, Note_on_c, 0, 69, 98
2, 6856, Note_on_c, 0, 69, 0
2, 6860, Note_on_c, 0, 71, 97
2, 6976, Note_on_c, 0, 71, 0
2, 6980, Note_on_c, 0, 72, 101
2, 7096, Note_on_c, 0, 72, 0
2, 7100, Note_on_c, 0, 74, 100
2, 7216, Note_on_c, 0, 74, 0
2, 7220, Note_on_c, 0, 76, 109
2, 7460, Note_on_c, 0, 76, 0
2, 7460, Note_on_c, 0, 60, 102
2, 7576, Note_on_c, 0, 60, 0
2, 7580, Note_on_c, 0, 62, 97
2, 7696, Note_on_c, 0, 62, 0
2, 7700, Note_on_c, 0, 64, 96
2, 7816, Note_on_c, 0, 64, 0
2, 7820, Note_on_c, 0, 66, 93
2, 7936, Note_on_c, 0, 66, 0
2, 7940, Note_on_c, 0, 67, 96
2, 8056, Note_on_c, 0, 67, 0
2, 8060, Note_on_c, 0, 69, 100
2, 8176, Note_on_c, 0, 69, 0
2, 8180, Note_on_c, 0, 71, 98
2, 8296, Note_on_c, 0, 71, 0
2, 8300, Note_on_c, 0, 72, 97
2, 8416, Note_on_c, 0, 72, 0
2, 8420, Note_on_c, 0, 74, 96
2, 8536, Note_on_c, 0, 74, 0
2, 8540, Note_on_c, 0, 76, 106
2, 8656, Note_on_c, 0, 76, 0
2, 8660, Note_on_c, 0, 78, 99
2, 8900, Note_on_c, 0, 78, 0
2, 8900, Note_on_c, 0, 62, 107
2, 9016, Note_on_c, 0, 62, 0
2, 9020, Note_on_c, 0, 64, 102
2, 9136, Note_on_c, 0, 64, 0
2, 9140, Note_on_c, 0, 66, 94
2, 9256, Note_on_c, 0, 66, 0
2, 9260, Note_on_c, 0, 67, 96
2, 9376, Note_on_c, 0, 67, 0
2, 9380, Note_on_c, 0, 69, 98
2, 9496, Note_on_c, 0, 69, 0
2, 9500, Note_on_c, 0, 71, 96
2, 9616, Note_on_c, 0, 71, 0
2, 9620, Note_on_c, 0, 72, 100
2, 9736, Note_on_c, 0, 72, 0
2, 9740, Note_on_c, 0, 74, 96
2, 9856, Note_on_c, 0, 74, 0
2, 9860, Note_on_c, 0, 76, 102
2, 9976, Note_on_c, 0, 76, 0
2, 9980, Note_on_c, 0, 78, 97
2, 10096, Note_on_c, 0, 78, 0
2, 10100, Note_on_c, 0, 79, 109
2, 10340, Note_on_c, 0, 79, 0
2, 10700, Note_on_c, 0, 78, 96
2, 10756, Note_on_c, 0, 78, 0
2, 10760, Note_on_c, 0, 76, 97
2, 10816, Note_on_c, 0, 76, 0
2, 10820, Note_on_c, 0, 74, 76
2, 10876, Note_on_c, 0, 74, 0
2, 10880, Note_on_c, 0, 72, 94
2, 10940, Note_on_c, 0, 72, 0
2, 10940, Note_on_c, 0, 71, 86
2, 10996, Note_on_c, 0, 71, 0
2, 11000, Note_on_c, 0, 69, 88
2, 11056, Note_on_c, 0, 69, 0
2, 11060, Note_on_c, 0, 67, 109
2, 11180, Note_on_c, 0, 67, 0
2, 11660, Note_on_c, 0, 83, 113
2, 11780, Note_on_c, 0, 83, 0
2, 11780, Note_on_c, 0, 83, 115
2, 11900, Note_on_c, 0, 83, 0
2, 12080, Note_on_c, 0, 79, 93
2, 12136, Note_on_c, 0, 79, 0
2, 12140, Note_on_c, 0, 78, 104
2, 12196, Note_on_c, 0, 78, 0
2, 12200, Note_on_c, 0, 76, 68
2, 12256, Note_on_c, 0, 76, 0
2, 12260, Note_on_c, 0, 74, 77
2, 12380, Note_on_c, 0, 74, 0
2, 12560, Note_on_c, 0, 72, 96
2, 12620, Note_on_c, 0, 72, 0
2, 12620, Note_on_c, 0, 71, 96
2, 12680, Note_on_c, 0, 71, 0
2, 12680, Note_on_c, 0, 69, 90
2, 12740, Note_on_c, 0, 69, 0
2, 12740, Note_on_c, 0, 67, 90
2, 12860, Note_on_c, 0, 67, 0
2, 13100, Note_on_c, 0, 81, 106
2, 13220, Note_on_c, 0, 81, 0
2, 13220, Note_on_c, 0, 81, 113
2, 13340, Note_on_c, 0, 81, 0
2, 13520, Note_on_c, 0, 74, 102
2, 13576, Note_on_c, 0, 74, 0
2, 13580, Note_on_c, 0, 73, 84
2, 13636, Note_on_c, 0, 73, 0
2, 13640, Note_on_c, 0, 71, 84
2, 13696, Note_on_c, 0, 71, 0
2, 13700, Note_on_c, 0, 69, 95
2, 13820, Note_on_c, 0, 69, 0
2, 14000, Note_on_c, 0, 67, 100
2, 14056, Note_on_c, 0, 67, 0
2, 14060, Note_on_c, 0, 66, 96
2, 14116, Note_on_c, 0, 66, 0
2, 14120, Note_on_c, 0, 64, 88
2, 14176, Note_on_c, 0, 64, 0
2, 14180, Note_on_c, 0, 62, 109
2, 14296, Note_on_c, 0, 62, 0
2, 14540, Note_on_c, 0, 79, 107
2, 14660, Note_on_c, 0, 79, 0
2, 14660, Note_on_c, 0, 79, 104
2, 14780, Note_on_c, 0, 79, 0
2, 14960, Note_on_c, 0, 72, 113
2, 15016, Note_on_c, 0, 72, 0
2, 15020, Note_on_c, 0, 71, 91
2, 15076, Note_on_c, 0, 71, 0
2, 15080, Note_on_c, 0, 69, 83
2, 15136, Note_on_c, 0, 69, 0
2, 15140, Note_on_c, 0, 67, 98
2, 15256, Note_on_c, 0, 67, 0
2, 15440, Note_on_c, 0, 69, 106
2, 15496, Note_on_c, 0, 69, 0
2, 15500, Note_on_c, 0, 67, 91
2, 15556, Note_on_c, 0, 67, 0
2, 15560, Note_on_c, 0, 66, 94
2, 15616, Note_on_c, 0, 66, 0
2, 15620, Note_on_c, 0, 64, 111
2, 15736, Note_on_c, 0, 64, 0
2, 15980, Note_on_c, 0, 79, 107
2, 16100, Note_on_c, 0, 79, 0
2, 16100, Note_on_c, 0, 79, 111
2, 16220, Note_on_c, 0, 79, 0
2, 16400, Note_on_c, 0, 66, 106
2, 16456, Note_on_c, 0, 66, 0
2, 16460, Note_on_c, 0, 64, 100
2, 16516, Note_on_c, 0, 64, 0
2, 16520, Note_on_c, 0, 62, 91
2, 16576, Note_on_c, 0, 62, 0
2, 16580, Note_on_c, 0, 61, 106
2, 16696, Note_on_c, 0, 61, 0
2, 16880, Note_on_c, 0, 62, 104
2, 16936, Note_on_c, 0, 62, 0
2, 16940, Note_on_c, 0, 61, 101
2, 16996, Note_on_c, 0, 61, 0
2, 17000, Note_on_c, 0, 59, 93
2, 17056, Note_on_c, 0, 59, 0
2, 17060, Note_on_c, 0, 57, 107
2, 17116, Note_on_c, 0, 57, 0
2, 17420, Note_on_c, 0, 69, 101
2, 17536, Note_on_c, 0, 69, 0
2, 17540, Note_on_c, 0, 81, 113
2, 17656, Note_on_c, 0, 81, 0
2, 17660, Note_on_c, 0, 79, 101
2, 17776, Note_on_c, 0, 79, 0
2, 17780, Note_on_c, 0, 78, 99
2, 17896, Note_on_c, 0, 78, 0
2, 17900, Note_on_c, 0, 76, 95
2, 18016, Note_on_c, 0, 76, 0
2, 18020, Note_on_c, 0, 74, 92
2, 18136, Note_on_c, 0, 74, 0
2, 18140, Note_on_c, 0, 72, 95
2, 18256, Note_on_c, 0, 72, 0
2, 18260, Note_on_c, 0, 71, 101
2, 18376, Note_on_c, 0, 71, 0
2, 18380, Note_on_c, 0, 69, 84
2, 18496, Note_on_c, 0, 69, 0
2, 18500, Note_on_c, 0, 67, 93
2, 18616, Note_on_c, 0, 67, 0
2, 18620, Note_on_c, 0, 66, 110
2, 18736, Note_on_c, 0, 66, 0
2, 18740, Note_on_c, 0, 71, 107
2, 18856, Note_on_c, 0, 71, 0
2, 18860, Note_on_c, 0, 67, 96
2, 18976, Note_on_c, 0, 67, 0
2, 18980, Note_on_c, 0, 66, 93
2, 19096, Note_on_c, 0, 66, 0
2, 19100, Note_on_c, 0, 64, 96
2, 19216, Note_on_c, 0, 64, 0
2, 19220, Note_on_c, 0, 62, 98
2, 19336, Note_on_c, 0, 62, 0
2, 19340, Note_on_c, 0, 60, 104
2, 19456, Note_on_c, 0, 60, 0
2, 19460, Note_on_c, 0, 59, 96
2, 19576, Note_on_c, 0, 59, 0
2, 19580, Note_on_c, 0, 57, 97
2, 19696, Note_on_c, 0, 57, 0
2, 19700, Note_on_c, 0, 55, 85
2, 19816, Note_on_c, 0, 55, 0
2, 19820, Note_on_c, 0, 59, 98
2, 19936, Note_on_c, 0, 59, 0
2, 19940, Note_on_c, 0, 64, 101
2, 20056, Note_on_c, 0, 64, 0
2, 20060, Note_on_c, 0, 62, 100
2, 20176, Note_on_c, 0, 62, 0
2, 20180, Note_on_c, 0, 61, 104
2, 20296, Note_on_c, 0, 61, 0
2, 20300, Note_on_c, 0, 59, 97
2, 20416, Note_on_c, 0, 59, 0
2, 20420, Note_on_c, 0, 57, 98
2, 20536, Note_on_c, 0, 57, 0
2, 20540, Note_on_c, 0, 59, 107
2, 20656, Note_on_c, 0, 59, 0
2, 20660, Note_on_c, 0, 61, 108
2, 20776, Note_on_c, 0, 61, 0
2, 20780, Note_on_c, 0, 62, 101
2, 20896, Note_on_c, 0, 62, 0
2, 20900, Note_on_c, 0, 64, 101
2, 21016, Note_on_c, 0, 64, 0
2, 21020, Note_on_c, 0, 66, 92
2, 21136, Note_on_c, 0, 66, 0
2, 21140, Note_on_c, 0, 67, 101
2, 21256, Note_on_c, 0, 67, 0
2, 21260, Note_on_c, 0, 69, 101
2, 21376, Note_on_c, 0, 69, 0
2, 21380, Note_on_c, 0, 71, 109
2, 21496, Note_on_c, 0, 71, 0
2, 21500, Note_on_c, 0, 73, 104
2, 21616, Note_on_c, 0, 73, 0
2, 21620, Note_on_c, 0, 74, 109
2, 21736, Note_on_c, 0, 74, 0
2, 21740, Note_on_c, 0, 73, 88
2, 21796, Note_on_c, 0, 73, 0
2, 21800, Note_on_c, 0, 71, 98
2, 21856, Note_on_c, 0, 71, 0
2, 21860, Note_on_c, 0, 69, 92
2, 21916, Note_on_c, 0, 69, 0
2, 21920, Note_on_c, 0, 67, 89
2, 21976, Note_on_c, 0, 67, 0
2, 21980, Note_on_c, 0, 66, 99
2, 22036, Note_on_c, 0, 66, 0
2, 22040, Note_on_c, 0, 64, 86
2, 22096, Note_on_c, 0, 64, 0
2, 22100, Note_on_c, 0, 62, 98
2, 22340, Note_on_c, 0, 62, 0
2, 23060, Note_on_c, 0, 81, 96
2, 23116, Note_on_c, 0, 81, 0
2, 23120, Note_on_c, 0, 79, 80
2, 23176, Note_on_c, 0, 79, 0
2, 23180, Note_on_c, 0, 81, 95
2, 23296, Note_on_c, 0, 81, 0
2, 23420, Note_on_c, 0, 79, 100
2, 23536, Note_on_c, 0, 79, 0
2, 23540, Note_on_c, 0, 79, 97
2, 23656, Note_on_c, 0, 79, 0
2, 23660, Note_on_c, 0, 78, 97
2, 23896, Note_on_c, 0, 78, 0
2, 23900, Note_on_c, 0, 76, 80
2, 24016, Note_on_c, 0, 76, 0
2, 24020, Note_on_c, 0, 76, 80
2, 24136, Note_on_c, 0, 76, 0
2, 24140, Note_on_c, 0, 74, 96
2, 24376, Note_on_c, 0, 74, 0
2, 24380, Note_on_c, 0, 72, 89
2, 24500, Note_on_c, 0, 72, 0
2, 24500, Note_on_c, 0, 71, 89
2, 24560, Note_on_c, 0, 71, 0
2, 24560, Note_on_c, 0, 69, 68
2, 24620, Note_on_c, 0, 69, 0
2, 24620, Note_on_c, 0, 71, 68
2, 24740, Note_on_c, 0, 71, 0
2, 24860, Note_on_c, 0, 69, 83
2, 24980, Note_on_c, 0, 69, 0
2, 24980, Note_on_c, 0, 69, 78
2, 25100, Note_on_c, 0, 69, 0
2, 25100, Note_on_c, 0, 67, 78
2, 25336, Note_on_c, 0, 67, 0
2, 25340, Note_on_c, 0, 66, 92
2, 25460, Note_on_c, 0, 66, 0
2, 25460, Note_on_c, 0, 66, 92
2, 25580, Note_on_c, 0, 66, 0
2, 25580, Note_on_c, 0, 64, 88
2, 25816, Note_on_c, 0, 64, 0
2, 25820, Note_on_c, 0, 62, 85
2, 25940, Note_on_c, 0, 62, 0
2, 25940, Note_on_c, 0, 60, 89
2, 26176, Note_on_c, 0, 60, 0
2, 26300, Note_on_c, 0, 59, 90
2, 26420, Note_on_c, 0, 59, 0
2, 26420, Note_on_c, 0, 59, 93
2, 26540, Note_on_c, 0, 59, 0
2, 26540, Note_on_c, 0, 57, 92
2, 26780, Note_on_c, 0, 57, 0
2, 26780, Note_on_c, 0, 55, 88
2, 26900, Note_on_c, 0, 55, 0
2, 26900, Note_on_c, 0, 55, 85
2, 27020, Note_on_c, 0, 55, 0
2, 27020, Note_on_c, 0, 54, 90
2, 27260, Note_on_c, 0, 54, 0
2, 27260, Note_on_c, 0, 52, 89
2, 27380, Note_on_c, 0, 52, 0
2, 27380, Note_on_c, 0, 52, 96
2, 27500, Note_on_c, 0, 52, 0
2, 27500, Note_on_c, 0, 51, 90
2, 27736, Note_on_c, 0, 51, 0
2, 27740, Note_on_c, 0, 54, 97
2, 27856, Note_on_c, 0, 54, 0
2, 27860, Note_on_c, 0, 57, 109
2, 28100, Note_on_c, 0, 57, 0
2, 28220, Note_on_c, 0, 60, 97
2, 28336, Note_on_c, 0, 60, 0
2, 28340, Note_on_c, 0, 59, 106
2, 28400, Note_on_c, 0, 59, 0
2, 28400, Note_on_c, 0, 57, 97
2, 28460, Note_on_c, 0, 57, 0
2, 28460, Note_on_c, 0, 59, 97
2, 28700, Note_on_c, 0, 59, 0
2, 28700, Note_on_c, 0, 57, 83
2, 28816, Note_on_c, 0, 57, 0
2, 28820, Note_on_c, 0, 55, 89
2, 29060, Note_on_c, 0, 55, 0
2, 29420, Note_on_c, 0, 75, 80
2, 29536, Note_on_c, 0, 75, 0
2, 29540, Note_on_c, 0, 76, 80
2, 29656, Note_on_c, 0, 76, 0
2, 29660, Note_on_c, 0, 78, 106
2, 29776, Note_on_c, 0, 78, 0
2, 29780, Note_on_c, 0, 79, 100
2, 29896, Note_on_c, 0, 79, 0
2, 29900, Note_on_c, 0, 80, 98
2, 30016, Note_on_c, 0, 80, 0
2, 30020, Note_on_c, 0, 81, 78
2, 30136, Note_on_c, 0, 81, 0
2, 30140, Note_on_c, 0, 83, 81
2, 30256, Note_on_c, 0, 83, 0
2, 30260, Note_on_c, 0, 84, 92
2, 30376, Note_on_c, 0, 84, 0
2, 30380, Note_on_c, 0, 81, 89
2, 30496, Note_on_c, 0, 81, 0
2, 30500, Note_on_c, 0, 79, 85
2, 30620, Note_on_c, 0, 79, 0
2, 30620, Note_on_c, 0, 78, 85
2, 30736, Note_on_c, 0, 78, 0
2, 30740, Note_on_c, 0, 76, 108
2, 30860, Note_on_c, 0, 76, 0
2, 30860, Note_on_c, 0, 74, 113
2, 30980, Note_on_c, 0, 74, 0
2, 30980, Note_on_c, 0, 72, 97
2, 31100, Note_on_c, 0, 72, 0
2, 31100, Note_on_c, 0, 71, 97
2, 31220, Note_on_c, 0, 71, 0
2, 31220, Note_on_c, 0, 69, 97
2, 31340, Note_on_c, 0, 69, 0
2, 31340, Note_on_c, 0, 67, 97
2, 31460, Note_on_c, 0, 67, 0
2, 31460, Note_on_c, 0, 66, 90
2, 31580, Note_on_c, 0, 66, 0
2, 31580, Note_on_c, 0, 64, 89
2, 31700, Note_on_c, 0, 64, 0
2, 31700, Note_on_c, 0, 63, 115
2, 31820, Note_on_c, 0, 63, 0
2, 31820, Note_on_c, 0, 72, 115
2, 31940, Note_on_c, 0, 72, 0
2, 31940, Note_on_c, 0, 71, 85
2, 32180, Note_on_c, 0, 71, 0
2, 32240, Note_on_c, 0, 71, 97
2, 32300, Note_on_c, 0, 71, 0
2, 32300, Note_on_c, 0, 73, 97
2, 32360, Note_on_c, 0, 73, 0
2, 32360, Note_on_c, 0, 75, 97
2, 32420, Note_on_c, 0, 75, 0
2, 32420, Note_on_c, 0, 76, 101
2, 32480, Note_on_c, 0, 76, 0
2, 32480, Note_on_c, 0, 78, 93
2, 32540, Note_on_c, 0, 78, 0
2, 32540, Note_on_c, 0, 79, 93
2, 32780, Note_on_c, 0, 79, 0
2, 32780, Note_on_c, 0, 78, 106
2, 32900, Note_on_c, 0, 78, 0
2, 32900, Note_on_c, 0, 78, 85
2, 32960, Note_on_c, 0, 78, 0
2, 32960, Note_on_c, 0, 76, 85
2, 33020, Note_on_c, 0, 76, 0
2, 33020, Note_on_c, 0, 75, 85
2, 33140, Note_on_c, 0, 75, 0
2, 33140, Note_on_c, 0, 76, 107
2, 33196, Note_on_c, 0, 76, 0
2, 33200, Note_on_c, 0, 72, 75
2, 33256, Note_on_c, 0, 72, 0
2, 33260, Note_on_c, 0, 71, 66
2, 33316, Note_on_c, 0, 71, 0
2, 33320, Note_on_c, 0, 69, 92
2, 33376, Note_on_c, 0, 69, 0
2, 33380, Note_on_c, 0, 71, 88
2, 33436, Note_on_c, 0, 71, 0
2, 33680, Note_on_c, 0, 66, 88
2, 33736, Note_on_c, 0, 66, 0
2, 33740, Note_on_c, 0, 64, 88
2, 33796, Note_on_c, 0, 64, 0
2, 33800, Note_on_c, 0, 63, 88
2, 33856, Note_on_c, 0, 63, 0
2, 33860, Note_on_c, 0, 64, 88
2, 33916, Note_on_c, 0, 64, 0
2, 34160, Note_on_c, 0, 57, 88
2, 34216, Note_on_c, 0, 57, 0
2, 34220, Note_on_c, 0, 55, 88
2, 34276, Note_on_c, 0, 55, 0
2, 34280, Note_on_c, 0, 54, 88
2, 34336, Note_on_c, 0, 54, 0
2, 34340, Note_on_c, 0, 55, 88
2, 34396, Note_on_c, 0, 55, 0
2, 34700, Note_on_c, 0, 64, 88
2, 34820, Note_on_c, 0, 64, 0
2, 34820, Note_on_c, 0, 66, 88
2, 34940, Note_on_c, 0, 66, 0
2, 34940, Note_on_c, 0, 67, 88
2, 35060, Note_on_c, 0, 67, 0
2, 35060, Note_on_c, 0, 69, 88
2, 35180, Note_on_c, 0, 69, 0
2, 35180, Note_on_c, 0, 71, 88
2, 35300, Note_on_c, 0, 71, 0
2, 35300, Note_on_c, 0, 72, 88
2, 35420, Note_on_c, 0, 72, 0
2, 35420, Note_on_c, 0, 74, 88
2, 35540, Note_on_c, 0, 74, 0
2, 35540, Note_on_c, 0, 76, 88
2, 35780, Note_on_c, 0, 76, 0
2, 36140, Note_on_c, 0, 74, 88
2, 36260, Note_on_c, 0, 74, 0
2, 36260, Note_on_c, 0, 72, 88
2, 36380, Note_on_c, 0, 72, 0
2, 36380, Note_on_c, 0, 71, 88
2, 36500, Note_on_c, 0, 71, 0
2, 36500, Note_on_c, 0, 69, 88
2, 36620, Note_on_c, 0, 69, 0
2, 36620, Note_on_c, 0, 67, 88
2, 36740, Note_on_c, 0, 67, 0
2, 36740, Note_on_c, 0, 66, 88
2, 36860, Note_on_c, 0, 66, 0
2, 36860, Note_on_c, 0, 64, 88
2, 36980, Note_on_c, 0, 64, 0
2, 36980, Note_on_c, 0, 62, 88
2, 37220, Note_on_c, 0, 62, 0
2, 37580, Note_on_c, 0, 62, 86
2, 37696, Note_on_c, 0, 62, 0
2, 37820, Note_on_c, 0, 59, 90
2, 37936, Note_on_c, 0, 59, 0
2, 38060, Note_on_c, 0, 62, 92
2, 38176, Note_on_c, 0, 62, 0
2, 38300, Note_on_c, 0, 59, 91
2, 38416, Note_on_c, 0, 59, 0
2, 38540, Note_on_c, 0, 59, 98
2, 38656, Note_on_c, 0, 59, 0
2, 38780, Note_on_c, 0, 55, 91
2, 38896, Note_on_c, 0, 55, 0
2, 39020, Note_on_c, 0, 55, 96
2, 39136, Note_on_c, 0, 55, 0
2, 39260, Note_on_c, 0, 52, 93
2, 39376, Note_on_c, 0, 52, 0
2, 39500, Note_on_c, 0, 55, 85
2, 39616, Note_on_c, 0, 55, 0
2, 39740, Note_on_c, 0, 52, 97
2, 39856, Note_on_c, 0, 52, 0
2, 39980, Note_on_c, 0, 52, 93
2, 40096, Note_on_c, 0, 52, 0
2, 40220, Note_on_c, 0, 48, 95
2, 40336, Note_on_c, 0, 48, 0
2, 40460, Note_on_c, 0, 48, 93
2, 40576, Note_on_c, 0, 48, 0
2, 40700, Note_on_c, 0, 45, 84
2, 40816, Note_on_c, 0, 45, 0
2, 40940, Note_on_c, 0, 48, 98
2, 41056, Note_on_c, 0, 48, 0
2, 41180, Note_on_c, 0, 52, 96
2, 41296, Note_on_c, 0, 52, 0
2, 41420, Note_on_c, 0, 55, 95
2, 41536, Note_on_c, 0, 55, 0
2, 41660, Note_on_c, 0, 59, 93
2, 41776, Note_on_c, 0, 59, 0
2, 41900, Note_on_c, 0, 62, 101
2, 42016, Note_on_c, 0, 62, 0
2, 42140, Note_on_c, 0, 59, 92
2, 42256, Note_on_c, 0, 59, 0
2, 42380, Note_on_c, 0, 62, 98
2, 42496, Note_on_c, 0, 62, 0
2, 42620, Note_on_c, 0, 66, 110
2, 42736, Note_on_c, 0, 66, 0
2, 42860, Note_on_c, 0, 69, 96
2, 42976, Note_on_c, 0, 69, 0
2, 43100, Note_on_c, 0, 72, 107
2, 43216, Note_on_c, 0, 72, 0
2, 43340, Note_on_c, 0, 73, 82
2, 43456, Note_on_c, 0, 73, 0
2, 43460, Note_on_c, 0, 74, 92
2, 43576, Note_on_c, 0, 74, 0
2, 43580, Note_on_c, 0, 76, 91
2, 43696, Note_on_c, 0, 76, 0
2, 43700, Note_on_c, 0, 78, 73
2, 43816, Note_on_c, 0, 78, 0
2, 43820, Note_on_c, 0, 79, 83
2, 43936, Note_on_c, 0, 79, 0
2, 43940, Note_on_c, 0, 81, 93
2, 44056, Note_on_c, 0, 81, 0
2, 44060, Note_on_c, 0, 83, 100
2, 44176, Note_on_c, 0, 83, 0
2, 44180, Note_on_c, 0, 84, 97
2, 44416, Note_on_c, 0, 84, 0
2, 44780, Note_on_c, 0, 83, 96
2, 44896, Note_on_c, 0, 83, 0
2, 44900, Note_on_c, 0, 81, 92
2, 45016, Note_on_c, 0, 81, 0
2, 45020, Note_on_c, 0, 79, 67
2, 45136, Note_on_c, 0, 79, 0
2, 45140, Note_on_c, 0, 78, 85
2, 45256, Note_on_c, 0, 78, 0
2, 45260, Note_on_c, 0, 76, 80
2, 45376, Note_on_c, 0, 76, 0
2, 45380, Note_on_c, 0, 74, 74
2, 45496, Note_on_c, 0, 74, 0
2, 45500, Note_on_c, 0, 72, 93
2, 45616, Note_on_c, 0, 72, 0
2, 45620, Note_on_c, 0, 71, 97
2, 45856, Note_on_c, 0, 71, 0
2, 46080, End_track
3, 0, Start_track
3, 0, Title_t, "goldberg.mid"
3, 11660, Note_on_c, 1, 74, 102
3, 11776, Note_on_c, 1, 74, 0
3, 11780, Note_on_c, 1, 74, 107
3, 11896, Note_on_c, 1, 74, 0
3, 13100, Note_on_c, 1, 74, 104
3, 13216, Note_on_c, 1, 74, 0
3, 13220, Note_on_c, 1, 74, 104
3, 13336, Note_on_c, 1, 74, 0
3, 14540, Note_on_c, 1, 71, 101
3, 14656, Note_on_c, 1, 71, 0
3, 14660, Note_on_c, 1, 71, 104
3, 14776, Note_on_c, 1, 71, 0
3, 15980, Note_on_c, 1, 69, 102
3, 16096, Note_on_c, 1, 69, 0
3, 16100, Note_on_c, 1, 69, 100
3, 16216, Note_on_c, 1, 69, 0
3, 34700, Note_on_c, 1, 60, 96
3, 34816, Note_on_c, 1, 60, 0
3, 34820, Note_on_c, 1, 62, 95
3, 34936, Note_on_c, 1, 62, 0
3, 34940, Note_on_c, 1, 64, 102
3, 35056, Note_on_c, 1, 64, 0
3, 35060, Note_on_c, 1, 65, 97
3, 35176, Note_on_c, 1, 65, 0
3, 35180, Note_on_c, 1, 67, 83
3, 35296, Note_on_c, 1, 67, 0
3, 35300, Note_on_c, 1, 69, 96
3, 35416, Note_on_c, 1, 69, 0
3, 35420, Note_on_c, 1, 71, 100
3, 35536, Note_on_c, 1, 71, 0
3, 35540, Note_on_c, 1, 72, 115
3, 35776, Note_on_c, 1, 72, 0
3, 36140, Note_on_c, 1, 71, 104
3, 36256, Note_on_c, 1, 71, 0
3, 36260, Note_on_c, 1, 69, 96
3, 36376, Note_on_c, 1, 69, 0
3, 36380, Note_on_c, 1, 67, 102
3, 36496, Note_on_c, 1, 67, 0
3, 36500, Note_on_c, 1, 66, 93
3, 36616, Note_on_c, 1, 66, 0
3, 36620, Note_on_c, 1, 64, 95
3, 36736, Note_on_c, 1, 64, 0
3, 36740, Note_on_c, 1, 62, 86
3, 36856, Note_on_c, 1, 62, 0
3, 36860, Note_on_c, 1, 60, 102
3, 36976, Note_on_c, 1, 60, 0
3, 36980, Note_on_c, 1, 59, 104
3, 37216, Note_on_c, 1, 59, 0
3, 37580, Note_on_c, 1, 59, 96
3, 37696, Note_on_c, 1, 59, 0
3, 37820, Note_on_c, 1, 56, 82
3, 37936, Note_on_c, 1, 56, 0
3, 38060, Note_on_c, 1, 59, 84
3, 38176, Note_on_c, 1, 59, 0
3, 38300, Note_on_c, 1, 55, 97
3, 38416, Note_on_c, 1, 55, 0
3, 38540, Note_on_c, 1, 55, 95
3, 38656, Note_on_c, 1, 55, 0
3, 38780, Note_on_c, 1, 52, 104
3, 38896, Note_on_c, 1, 52, 0
3, 39020, Note_on_c, 1, 52, 102
3, 39136, Note_on_c, 1, 52, 0
3, 39260, Note_on_c, 1, 49, 96
3, 39376, Note_on_c, 1, 49, 0
3, 39500, Note_on_c, 1, 52, 102
3, 39616, Note_on_c, 1, 52, 0
3, 39740, Note_on_c, 1, 48, 101
3, 39856, Note_on_c, 1, 48, 0
3, 39980, Note_on_c, 1, 48, 101
3, 40096, Note_on_c, 1, 48, 0
3, 40220, Note_on_c, 1, 45, 102
3, 40336, Note_on_c, 1, 45, 0
3, 40460, Note_on_c, 1, 45, 100
3, 40576, Note_on_c, 1, 45, 0
3, 40700, Note_on_c, 1, 42, 92
3, 40816, Note_on_c, 1, 42, 0
3, 40940, Note_on_c, 1, 45, 92
3, 41056, Note_on_c, 1, 45, 0
3, 41180, Note_on_c, 1, 48, 92
3, 41296, Note_on_c, 1, 48, 0
3, 41420, Note_on_c, 1, 52, 92
3, 41536, Note_on_c, 1, 52, 0
3, 41660, Note_on_c, 1, 55, 92
3, 41776, Note_on_c, 1, 55, 0
3, 41900, Note_on_c, 1, 53, 107
3, 42016, Note_on_c, 1, 53, 0
3, 42140, Note_on_c, 1, 50, 72
3, 42256, Note_on_c, 1, 50, 0
3, 42380, Note_on_c, 1, 53, 107
3, 42496, Note_on_c, 1, 53, 0
3, 42620, Note_on_c, 1, 57, 102
3, 42736, Note_on_c, 1, 57, 0
3, 42860, Note_on_c, 1, 60, 106
3, 42976, Note_on_c, 1, 60, 0
3, 43100, Note_on_c, 1, 64, 102
3, 43216, Note_on_c, 1, 64, 0
3, 43340, Note_on_c, 1, 69, 92
3, 43456, Note_on_c, 1, 69, 0
3, 43460, Note_on_c, 1, 71, 85
3, 43576, Note_on_c, 1, 71, 0
3, 43580, Note_on_c, 1, 72, 95
3, 43696, Note_on_c, 1, 72, 0
3, 43700, Note_on_c, 1, 74, 84
3, 43820, Note_on_c, 1, 74, 0
3, 43820, Note_on_c, 1, 76, 95
3, 43936, Note_on_c, 1, 76, 0
3, 43940, Note_on_c, 1, 78, 85
3, 44056, Note_on_c, 1, 78, 0
3, 44060, Note_on_c, 1, 79, 100
3, 44176, Note_on_c, 1, 79, 0
3, 44180, Note_on_c, 1, 81, 113
3, 44416, Note_on_c, 1, 81, 0
3, 44780, Note_on_c, 1, 74, 92
3, 44896, Note_on_c, 1, 74, 0
3, 44900, Note_on_c, 1, 72, 102
3, 45016, Note_on_c, 1, 72, 0
3, 45020, Note_on_c, 1, 71, 91
3, 45136, Note_on_c, 1, 71, 0
3, 45140, Note_on_c, 1, 69, 83
3, 45256, Note_on_c, 1, 69, 0
3, 45260, Note_on_c, 1, 67, 92
3, 45376, Note_on_c, 1, 67, 0
3, 45380, Note_on_c, 1, 66, 106
3, 45496, Note_on_c, 1, 66, 0
3, 45500, Note_on_c, 1, 64, 102
3, 45616, Note_on_c, 1, 64, 0
3, 45620, Note_on_c, 1, 62, 109
3, 45856, Note_on_c, 1, 62, 0
3, 46080, End_track
4, 0, Start_track
4, 0, Title_t, "goldberg.mid"
4, 23180, Note_on_c, 2, 50, 100
4, 23296, Note_on_c, 2, 50, 0
4, 23300, Note_on_c, 2, 50, 107
4, 23416, Note_on_c, 2, 50, 0
4, 24620, Note_on_c, 2, 55, 98
4, 24736, Note_on_c, 2, 55, 0
4, 24740, Note_on_c, 2, 55, 109
4, 24856, Note_on_c, 2, 55, 0
4, 26060, Note_on_c, 2, 69, 106
4, 26176, Note_on_c, 2, 69, 0
4, 26180, Note_on_c, 2, 69, 102
4, 26296, Note_on_c, 2, 69, 0
4, 27500, Note_on_c, 2, 81, 100
4, 27616, Note_on_c, 2, 81, 0
4, 27620, Note_on_c, 2, 81, 107
4, 27736, Note_on_c, 2, 81, 0
4, 35180, Note_on_c, 2, 62, 104
4, 35296, Note_on_c, 2, 62, 0
4, 35300, Note_on_c, 2, 60, 106
4, 35416, Note_on_c, 2, 60, 0
4, 35420, Note_on_c, 2, 59, 100
4, 35536, Note_on_c, 2, 59, 0
4, 35540, Note_on_c, 2, 57, 97
4, 35656, Note_on_c, 2, 57, 0
4, 35660, Note_on_c, 2, 55, 100
4, 35776, Note_on_c, 2, 55, 0
4, 35780, Note_on_c, 2, 54, 110
4, 35896, Note_on_c, 2, 54, 0
4, 35900, Note_on_c, 2, 52, 97
4, 36016, Note_on_c, 2, 52, 0
4, 36020, Note_on_c, 2, 50, 107
4, 36136, Note_on_c, 2, 50, 0
4, 36620, Note_on_c, 2, 48, 104
4, 36736, Note_on_c, 2, 48, 0
4, 36740, Note_on_c, 2, 50, 98
4, 36856, Note_on_c, 2, 50, 0
4, 36860, Note_on_c, 2, 52, 100
4, 36976, Note_on_c, 2, 52, 0
4, 36980, Note_on_c, 2, 54, 104
4, 37096, Note_on_c, 2, 54, 0
4, 37100, Note_on_c, 2, 55, 102
4, 37216, Note_on_c, 2, 55, 0
4, 37220, Note_on_c, 2, 57, 109
4, 37336, Note_on_c, 2, 57, 0
4, 37340, Note_on_c, 2, 59, 104
4, 37456, Note_on_c, 2, 59, 0
4, 37460, Note_on_c, 2, 60, 109
4, 37700, Note_on_c, 2, 60, 0
4, 37700, Note_on_c, 2, 60, 115
4, 37940, Note_on_c, 2, 60, 0
4, 37940, Note_on_c, 2, 60, 109
4, 38176, Note_on_c, 2, 60, 0
4, 38180, Note_on_c, 2, 60, 100
4, 38416, Note_on_c, 2, 60, 0
4, 38420, Note_on_c, 2, 57, 106
4, 38656, Note_on_c, 2, 57, 0
4, 38660, Note_on_c, 2, 57, 107
4, 38896, Note_on_c, 2, 57, 0
4, 38900, Note_on_c, 2, 54, 112
4, 39136, Note_on_c, 2, 54, 0
4, 39140, Note_on_c, 2, 54, 108
4, 39376, Note_on_c, 2, 54, 0
4, 39380, Note_on_c, 2, 54, 104
4, 39616, Note_on_c, 2, 54, 0
4, 39620, Note_on_c, 2, 54, 102
4, 39856, Note_on_c, 2, 54, 0
4, 39860, Note_on_c, 2, 50, 101
4, 40096, Note_on_c, 2, 50, 0
4, 40100, Note_on_c, 2, 50, 106
4, 40336, Note_on_c, 2, 50, 0
4, 40340, Note_on_c, 2, 47, 113
4, 40576, Note_on_c, 2, 47, 0
4, 40580, Note_on_c, 2, 47, 101
4, 40816, Note_on_c, 2, 47, 0
4, 40820, Note_on_c, 2, 47, 111
4, 41056, Note_on_c, 2, 47, 0
4, 41060, Note_on_c, 2, 50, 109
4, 41296, Note_on_c, 2, 50, 0
4, 41300, Note_on_c, 2, 53, 109
4, 41536, Note_on_c, 2, 53, 0
4, 41540, Note_on_c, 2, 57, 113
4, 41776, Note_on_c, 2, 57, 0
4, 41780, Note_on_c, 2, 60, 121
4, 42016, Note_on_c, 2, 60, 0
4, 42020, Note_on_c, 2, 60, 107
4, 42256, Note_on_c, 2, 60, 0
4, 42260, Note_on_c, 2, 60, 106
4, 42496, Note_on_c, 2, 60, 0
4, 42500, Note_on_c, 2, 64, 119
4, 42736, Note_on_c, 2, 64, 0
4, 42740, Note_on_c, 2, 67, 106
4, 42976, Note_on_c, 2, 67, 0
4, 42980, Note_on_c, 2, 71, 107
4, 43216, Note_on_c, 2, 71, 0
4, 43220, Note_on_c, 2, 74, 109
4, 43456, Note_on_c, 2, 74, 0
4, 43820, Note_on_c, 2, 64, 102
4, 43936, Note_on_c, 2, 64, 0
4, 43940, Note_on_c, 2, 62, 96
4, 44056, Note_on_c, 2, 62, 0
4, 44060, Note_on_c, 2, 60, 96
4, 44176, Note_on_c, 2, 60, 0
4, 44180, Note_on_c, 2, 59, 90
4, 44296, Note_on_c, 2, 59, 0
4, 44300, Note_on_c, 2, 57, 78
4, 44416, Note_on_c, 2, 57, 0
4, 44420, Note_on_c, 2, 55, 86
4, 44536, Note_on_c, 2, 55, 0
4, 44540, Note_on_c, 2, 54, 88
4, 44656, Note_on_c, 2, 54, 0
4, 44660, Note_on_c, 2, 55, 98
4, 44780, Note_on_c, 2, 55, 0
4, 44780, Note_on_c, 2, 47, 106
4, 44896, Note_on_c, 2, 47, 0
4, 44900, Note_on_c, 2, 48, 90
4, 45016, Note_on_c, 2, 48, 0
4, 45020, Note_on_c, 2, 50, 104
4, 45136, Note_on_c, 2, 50, 0
4, 45140, Note_on_c, 2, 52, 97
4, 45256, Note_on_c, 2, 52, 0
4, 45260, Note_on_c, 2, 54, 106
4, 45376, Note_on_c, 2, 54, 0
4, 45380, Note_on_c, 2, 55, 56
4, 45496, Note_on_c, 2, 55, 0
4, 45500, Note_on_c, 2, 57, 102
4, 45616, Note_on_c, 2, 57, 0
4, 45620, Note_on_c, 2, 59, 121
4, 45860, Note_on_c, 2, 59, 0
4, 46080, End_track
5, 0, Start_track
5, 0, Title_t, "goldberg.mid"
5, 20, Note_on_c, 3, 67, 104
5, 256, Note_on_c, 3, 67, 0
5, 260, Note_on_c, 3, 83, 111
5, 380, Note_on_c, 3, 83, 0
5, 380, Note_on_c, 3, 81, 98
5, 496, Note_on_c, 3, 81, 0
5, 500, Note_on_c, 3, 79, 97
5, 616, Note_on_c, 3, 79, 0
5, 620, Note_on_c, 3, 78, 104
5, 736, Note_on_c, 3, 78, 0
5, 740, Note_on_c, 3, 76, 102
5, 856, Note_on_c, 3, 76, 0
5, 860, Note_on_c, 3, 74, 97
5, 976, Note_on_c, 3, 74, 0
5, 980, Note_on_c, 3, 73, 102
5, 1096, Note_on_c, 3, 73, 0
5, 1100, Note_on_c, 3, 71, 96
5, 1216, Note_on_c, 3, 71, 0
5, 1220, Note_on_c, 3, 69, 85
5, 1336, Note_on_c, 3, 69, 0
5, 1340, Note_on_c, 3, 67, 100
5, 1456, Note_on_c, 3, 67, 0
5, 1460, Note_on_c, 3, 66, 108
5, 1700, Note_on_c, 3, 66, 0
5, 1700, Note_on_c, 3, 81, 106
5, 1816, Note_on_c, 3, 81, 0
5, 1820, Note_on_c, 3, 79, 97
5, 1936, Note_on_c, 3, 79, 0
5, 1940, Note_on_c, 3, 78, 96
5, 2056, Note_on_c, 3, 78, 0
5, 2060, Note_on_c, 3, 76, 93
5, 2176, Note_on_c, 3, 76, 0
5, 2180, Note_on_c, 3, 74, 81
5, 2296, Note_on_c, 3, 74, 0
5, 2300, Note_on_c, 3, 73, 102
5, 2416, Note_on_c, 3, 73, 0
5, 2420, Note_on_c, 3, 71, 106
5, 2536, Note_on_c, 3, 71, 0
5, 2540, Note_on_c, 3, 69, 91
5, 2656, Note_on_c, 3, 69, 0
5, 2660, Note_on_c, 3, 67, 100
5, 2776, Note_on_c, 3, 67, 0
5, 2780, Note_on_c, 3, 66, 104
5, 2896, Note_on_c, 3, 66, 0
5, 2900, Note_on_c, 3, 64, 109
5, 3140, Note_on_c, 3, 64, 0
5, 3140, Note_on_c, 3, 79, 115
5, 3256, Note_on_c, 3, 79, 0
5, 3260, Note_on_c, 3, 78, 102
5, 3376, Note_on_c, 3, 78, 0
5, 3380, Note_on_c, 3, 76, 92
5, 3496, Note_on_c, 3, 76, 0
5, 3500, Note_on_c, 3, 74, 92
5, 3616, Note_on_c, 3, 74, 0
5, 3620, Note_on_c, 3, 73, 108
5, 3736, Note_on_c, 3, 73, 0
5, 3740, Note_on_c, 3, 71, 98
5, 3856, Note_on_c, 3, 71, 0
5, 3860, Note_on_c, 3, 69, 98
5, 3976, Note_on_c, 3, 69, 0
5, 3980, Note_on_c, 3, 67, 91
5, 4096, Note_on_c, 3, 67, 0
5, 4100, Note_on_c, 3, 66, 97
5, 4216, Note_on_c, 3, 66, 0
5, 4220, Note_on_c, 3, 64, 95
5, 4336, Note_on_c, 3, 64, 0
5, 4340, Note_on_c, 3, 62, 102
5, 4576, Note_on_c, 3, 62, 0
5, 4700, Note_on_c, 3, 60, 98
5, 4756, Note_on_c, 3, 60, 0
5, 4760, Note_on_c, 3, 59, 75
5, 4816, Note_on_c, 3, 59, 0
5, 4820, Note_on_c, 3, 57, 104
5, 4876, Note_on_c, 3, 57, 0
5, 4880, Note_on_c, 3, 55, 93
5, 4940, Note_on_c, 3, 55, 0
5, 4940, Note_on_c, 3, 54, 104
5, 5000, Note_on_c, 3, 54, 0
5, 5000, Note_on_c, 3, 52, 104
5, 5060, Note_on_c, 3, 52, 0
5, 5060, Note_on_c, 3, 50, 104
5, 5300, Note_on_c, 3, 50, 0
5, 5660, Note_on_c, 3, 48, 109
5, 5776, Note_on_c, 3, 48, 0
5, 5780, Note_on_c, 3, 47, 117
5, 6020, Note_on_c, 3, 47, 0
5, 6260, Note_on_c, 3, 59, 104
5, 6380, Note_on_c, 3, 59, 0
5, 6380, Note_on_c, 3, 60, 88
5, 6496, Note_on_c, 3, 60, 0
5, 6500, Note_on_c, 3, 62, 93
5, 6616, Note_on_c, 3, 62, 0
5, 6620, Note_on_c, 3, 64, 100
5, 6736, Note_on_c, 3, 64, 0
5, 6740, Note_on_c, 3, 66, 97
5, 6860, Note_on_c, 3, 66, 0
5, 6860, Note_on_c, 3, 67, 101
5, 6976, Note_on_c, 3, 67, 0
5, 6980, Note_on_c, 3, 69, 101
5, 7096, Note_on_c, 3, 69, 0
5, 7100, Note_on_c, 3, 71, 101
5, 7216, Note_on_c, 3, 71, 0
5, 7220, Note_on_c, 3, 72, 101
5, 7336, Note_on_c, 3, 72, 0
5, 7340, Note_on_c, 3, 74, 96
5, 7456, Note_on_c, 3, 74, 0
5, 7460, Note_on_c, 3, 76, 106
5, 7700, Note_on_c, 3, 76, 0
5, 7700, Note_on_c, 3, 60, 106
5, 7816, Note_on_c, 3, 60, 0
5, 7820, Note_on_c, 3, 62, 97
5, 7936, Note_on_c, 3, 62, 0
5, 7940, Note_on_c, 3, 64, 102
5, 8056, Note_on_c, 3, 64, 0
5, 8060, Note_on_c, 3, 66, 81
5, 8176, Note_on_c, 3, 66, 0
5, 8180, Note_on_c, 3, 67, 115
5, 8296, Note_on_c, 3, 67, 0
5, 8300, Note_on_c, 3, 69, 102
5, 8416, Note_on_c, 3, 69, 0
5, 8420, Note_on_c, 3, 71, 107
5, 8536, Note_on_c, 3, 71, 0
5, 8540, Note_on_c, 3, 72, 104
5, 8656, Note_on_c, 3, 72, 0
5, 8660, Note_on_c, 3, 74, 101
5, 8776, Note_on_c, 3, 74, 0
5, 8780, Note_on_c, 3, 76, 107
5, 8896, Note_on_c, 3, 76, 0
5, 8900, Note_on_c, 3, 78, 99
5, 9140, Note_on_c, 3, 78, 0
5, 9140, Note_on_c, 3, 62, 106
5, 9256, Note_on_c, 3, 62, 0
5, 9260, Note_on_c, 3, 64, 106
5, 9376, Note_on_c, 3, 64, 0
5, 9380, Note_on_c, 3, 66, 94
5, 9496, Note_on_c, 3, 66, 0
5, 9500, Note_on_c, 3, 67, 92
5, 9616, Note_on_c, 3, 67, 0
5, 9620, Note_on_c, 3, 69, 98
5, 9736, Note_on_c, 3, 69, 0
5, 9740, Note_on_c, 3, 71, 97
5, 9856, Note_on_c, 3, 71, 0
5, 9860, Note_on_c, 3, 72, 100
5, 9976, Note_on_c, 3, 72, 0
5, 9980, Note_on_c, 3, 69, 93
5, 10096, Note_on_c, 3, 69, 0
5, 10100, Note_on_c, 3, 71, 98
5, 10156, Note_on_c, 3, 71, 0
5, 10160, Note_on_c, 3, 67, 84
5, 10216, Note_on_c, 3, 67, 0
5, 10220, Note_on_c, 3, 69, 95
5, 10276, Note_on_c, 3, 69, 0
5, 10280, Note_on_c, 3, 71, 100
5, 10336, Note_on_c, 3, 71, 0
5, 10340, Note_on_c, 3, 72, 92
5, 10396, Note_on_c, 3, 72, 0
5, 10400, Note_on_c, 3, 74, 95
5, 10456, Note_on_c, 3, 74, 0
5, 10460, Note_on_c, 3, 76, 88
5, 10516, Note_on_c, 3, 76, 0
5, 10520, Note_on_c, 3, 78, 93
5, 10576, Note_on_c, 3, 78, 0
5, 10580, Note_on_c, 3, 79, 113
5, 10700, Note_on_c, 3, 79, 0
5, 11180, Note_on_c, 3, 66, 106
5, 11236, Note_on_c, 3, 66, 0
5, 11240, Note_on_c, 3, 64, 98
5, 11296, Note_on_c, 3, 64, 0
5, 11300, Note_on_c, 3, 62, 95
5, 11356, Note_on_c, 3, 62, 0
5, 11360, Note_on_c, 3, 60, 96
5, 11416, Note_on_c, 3, 60, 0
5, 11420, Note_on_c, 3, 59, 97
5, 11476, Note_on_c, 3, 59, 0
5, 11480, Note_on_c, 3, 57, 84
5, 11536, Note_on_c, 3, 57, 0
5, 11540, Note_on_c, 3, 55, 127
5, 11776, Note_on_c, 3, 55, 0
5, 11900, Note_on_c, 3, 57, 98
5, 12016, Note_on_c, 3, 57, 0
5, 12020, Note_on_c, 3, 59, 106
5, 12080, Note_on_c, 3, 59, 0
5, 12080, Note_on_c, 3, 57, 106
5, 12140, Note_on_c, 3, 57, 0
5, 12140, Note_on_c, 3, 59, 106
5, 12260, Note_on_c, 3, 59, 0
5, 12380, Note_on_c, 3, 60, 102
5, 12500, Note_on_c, 3, 60, 0
5, 12500, Note_on_c, 3, 62, 102
5, 12560, Note_on_c, 3, 62, 0
5, 12560, Note_on_c, 3, 60, 102
5, 12620, Note_on_c, 3, 60, 0
5, 12620, Note_on_c, 3, 62, 102
5, 12740, Note_on_c, 3, 62, 0
5, 12860, Note_on_c, 3, 64, 96
5, 12980, Note_on_c, 3, 64, 0
5, 12980, Note_on_c, 3, 66, 104
5, 13040, Note_on_c, 3, 66, 0
5, 13040, Note_on_c, 3, 64, 104
5, 13100, Note_on_c, 3, 64, 0
5, 13100, Note_on_c, 3, 66, 104
5, 13220, Note_on_c, 3, 66, 0
5, 13340, Note_on_c, 3, 67, 101
5, 13456, Note_on_c, 3, 67, 0
5, 13460, Note_on_c, 3, 69, 92
5, 13520, Note_on_c, 3, 69, 0
5, 13520, Note_on_c, 3, 67, 92
5, 13580, Note_on_c, 3, 67, 0
5, 13580, Note_on_c, 3, 69, 92
5, 13700, Note_on_c, 3, 69, 0
5, 13820, Note_on_c, 3, 71, 109
5, 13936, Note_on_c, 3, 71, 0
5, 13940, Note_on_c, 3, 73, 110
5, 14000, Note_on_c, 3, 73, 0
5, 14000, Note_on_c, 3, 71, 110
5, 14060, Note_on_c, 3, 71, 0
5, 14060, Note_on_c, 3, 73, 110
5, 14180, Note_on_c, 3, 73, 0
5, 14300, Note_on_c, 3, 74, 100
5, 14420, Note_on_c, 3, 74, 0
5, 14420, Note_on_c, 3, 76, 111
5, 14480, Note_on_c, 3, 76, 0
5, 14480, Note_on_c, 3, 74, 97
5, 14540, Note_on_c, 3, 74, 0
5, 14540, Note_on_c, 3, 76, 95
5, 14660, Note_on_c, 3, 76, 0
5, 14780, Note_on_c, 3, 78, 102
5, 14896, Note_on_c, 3, 78, 0
5, 14900, Note_on_c, 3, 79, 102
5, 14960, Note_on_c, 3, 79, 0
5, 14960, Note_on_c, 3, 78, 101
5, 15020, Note_on_c, 3, 78, 0
5, 15020, Note_on_c, 3, 79, 106
5, 15140, Note_on_c, 3, 79, 0
5, 15260, Note_on_c, 3, 81, 107
5, 15376, Note_on_c, 3, 81, 0
5, 15380, Note_on_c, 3, 83, 104
5, 15440, Note_on_c, 3, 83, 0
5, 15440, Note_on_c, 3, 81, 102
5, 15500, Note_on_c, 3, 81, 0
5, 15500, Note_on_c, 3, 83, 104
5, 15620, Note_on_c, 3, 83, 0
5, 15740, Note_on_c, 3, 74, 92
5, 15860, Note_on_c, 3, 74, 0
5, 15860, Note_on_c, 3, 73, 102
5, 16096, Note_on_c, 3, 73, 0
5, 16220, Note_on_c, 3, 76, 100
5, 16336, Note_on_c, 3, 76, 0
5, 16340, Note_on_c, 3, 67, 102
5, 16576, Note_on_c, 3, 67, 0
5, 16700, Note_on_c, 3, 71, 101
5, 16816, Note_on_c, 3, 71, 0
5, 16820, Note_on_c, 3, 69, 97
5, 16880, Note_on_c, 3, 69, 0
5, 16880, Note_on_c, 3, 71, 82
5, 16940, Note_on_c, 3, 71, 0
5, 16940, Note_on_c, 3, 69, 82
5, 17060, Note_on_c, 3, 69, 0
5, 17180, Note_on_c, 3, 67, 89
5, 17296, Note_on_c, 3, 67, 0
5, 17300, Note_on_c, 3, 66, 92
5, 17540, Note_on_c, 3, 66, 0
5, 17660, Note_on_c, 3, 57, 92
5, 17776, Note_on_c, 3, 57, 0
5, 17780, Note_on_c, 3, 69, 97
5, 17900, Note_on_c, 3, 69, 0
5, 17900, Note_on_c, 3, 67, 104
5, 18016, Note_on_c, 3, 67, 0
5, 18020, Note_on_c, 3, 66, 89
5, 18136, Note_on_c, 3, 66, 0
5, 18140, Note_on_c, 3, 64, 101
5, 18256, Note_on_c, 3, 64, 0
5, 18260, Note_on_c, 3, 62, 90
5, 18376, Note_on_c, 3, 62, 0
5, 18380, Note_on_c, 3, 60, 102
5, 18496, Note_on_c, 3, 60, 0
5, 18500, Note_on_c, 3, 59, 102
5, 18616, Note_on_c, 3, 59, 0
5, 18620, Note_on_c, 3, 57, 98
5, 18736, Note_on_c, 3, 57, 0
5, 18740, Note_on_c, 3, 55, 98
5, 18856, Note_on_c, 3, 55, 0
5, 18860, Note_on_c, 3, 59, 101
5, 18976, Note_on_c, 3, 59, 0
5, 18980, Note_on_c, 3, 62, 104
5, 19096, Note_on_c, 3, 62, 0
5, 19100, Note_on_c, 3, 60, 98
5, 19216, Note_on_c, 3, 60, 0
5, 19220, Note_on_c, 3, 59, 102
5, 19336, Note_on_c, 3, 59, 0
5, 19340, Note_on_c, 3, 57, 88
5, 19456, Note_on_c, 3, 57, 0
5, 19460, Note_on_c, 3, 55, 89
5, 19576, Note_on_c, 3, 55, 0
5, 19580, Note_on_c, 3, 54, 108
5, 19696, Note_on_c, 3, 54, 0
5, 19700, Note_on_c, 3, 52, 96
5, 19816, Note_on_c, 3, 52, 0
5, 19820, Note_on_c, 3, 50, 84
5, 19936, Note_on_c, 3, 50, 0
5, 19940, Note_on_c, 3, 49, 96
5, 20056, Note_on_c, 3, 49, 0
5, 20060, Note_on_c, 3, 47, 93
5, 20176, Note_on_c, 3, 47, 0
5, 20180, Note_on_c, 3, 45, 93
5, 20296, Note_on_c, 3, 45, 0
5, 20300, Note_on_c, 3, 52, 97
5, 20416, Note_on_c, 3, 52, 0
5, 20420, Note_on_c, 3, 55, 101
5, 20536, Note_on_c, 3, 55, 0
5, 20540, Note_on_c, 3, 54, 93
5, 20656, Note_on_c, 3, 54, 0
5, 20660, Note_on_c, 3, 52, 101
5, 20776, Note_on_c, 3, 52, 0
5, 20780, Note_on_c, 3, 50, 95
5, 20896, Note_on_c, 3, 50, 0
5, 20900, Note_on_c, 3, 49, 96
5, 21016, Note_on_c, 3, 49, 0
5, 21020, Note_on_c, 3, 47, 101
5, 21136, Note_on_c, 3, 47, 0
5, 21140, Note_on_c, 3, 45, 80
5, 21256, Note_on_c, 3, 45, 0
5, 21260, Note_on_c, 3, 43, 86
5, 21376, Note_on_c, 3, 43, 0
5, 21380, Note_on_c, 3, 42, 96
5, 21496, Note_on_c, 3, 42, 0
5, 21500, Note_on_c, 3, 40, 97
5, 21616, Note_on_c, 3, 40, 0
5, 21620, Note_on_c, 3, 38, 106
5, 22100, Note_on_c, 3, 38, 0
5, 22220, Note_on_c, 3, 40, 89
5, 22276, Note_on_c, 3, 40, 0
5, 22280, Note_on_c, 3, 42, 97
5, 22336, Note_on_c, 3, 42, 0
5, 22340, Note_on_c, 3, 43, 80
5, 22396, Note_on_c, 3, 43, 0
5, 22400, Note_on_c, 3, 45, 83
5, 22456, Note_on_c, 3, 45, 0
5, 22460, Note_on_c, 3, 47, 69
5, 22516, Note_on_c, 3, 47, 0
5, 22520, Note_on_c, 3, 49, 93
5, 22576, Note_on_c, 3, 49, 0
5, 22580, Note_on_c, 3, 50, 109
5, 22820, Note_on_c, 3, 50, 0
5, 23180, Note_on_c, 3, 38, 106
5, 23300, Note_on_c, 3, 38, 0
5, 23300, Note_on_c, 3, 38, 107
5, 23420, Note_on_c, 3, 38, 0
5, 23600, Note_on_c, 3, 52, 106
5, 23656, Note_on_c, 3, 52, 0
5, 23660, Note_on_c, 3, 54, 97
5, 23716, Note_on_c, 3, 54, 0
5, 23720, Note_on_c, 3, 55, 88
5, 23776, Note_on_c, 3, 55, 0
5, 23780, Note_on_c, 3, 57, 109
5, 23896, Note_on_c, 3, 57, 0
5, 24080, Note_on_c, 3, 57, 88
5, 24136, Note_on_c, 3, 57, 0
5, 24140, Note_on_c, 3, 59, 101
5, 24196, Note_on_c, 3, 59, 0
5, 24200, Note_on_c, 3, 60, 97
5, 24256, Note_on_c, 3, 60, 0
5, 24260, Note_on_c, 3, 62, 113
5, 24376, Note_on_c, 3, 62, 0
5, 24620, Note_on_c, 3, 43, 109
5, 24740, Note_on_c, 3, 43, 0
5, 24740, Note_on_c, 3, 43, 115
5, 24856, Note_on_c, 3, 43, 0
5, 25040, Note_on_c, 3, 62, 97
5, 25096, Note_on_c, 3, 62, 0
5, 25100, Note_on_c, 3, 64, 72
5, 25156, Note_on_c, 3, 64, 0
5, 25160, Note_on_c, 3, 66, 84
5, 25216, Note_on_c, 3, 66, 0
5, 25220, Note_on_c, 3, 67, 121
5, 25336, Note_on_c, 3, 67, 0
5, 25520, Note_on_c, 3, 66, 106
5, 25576, Note_on_c, 3, 66, 0
5, 25580, Note_on_c, 3, 67, 85
5, 25636, Note_on_c, 3, 67, 0
5, 25640, Note_on_c, 3, 69, 96
5, 25696, Note_on_c, 3, 69, 0
5, 25700, Note_on_c, 3, 71, 113
5, 25816, Note_on_c, 3, 71, 0
5, 26060, Note_on_c, 3, 64, 117
5, 26180, Note_on_c, 3, 64, 0
5, 26180, Note_on_c, 3, 64, 117
5, 26300, Note_on_c, 3, 64, 0
5, 26480, Note_on_c, 3, 71, 107
5, 26536, Note_on_c, 3, 71, 0
5, 26540, Note_on_c, 3, 72, 101
5, 26596, Note_on_c, 3, 72, 0
5, 26600, Note_on_c, 3, 74, 96
5, 26656, Note_on_c, 3, 74, 0
5, 26660, Note_on_c, 3, 76, 117
5, 26776, Note_on_c, 3, 76, 0
5, 26960, Note_on_c, 3, 76, 107
5, 27016, Note_on_c, 3, 76, 0
5, 27020, Note_on_c, 3, 78, 101
5, 27076, Note_on_c, 3, 78, 0
5, 27080, Note_on_c, 3, 79, 98
5, 27136, Note_on_c, 3, 79, 0
5, 27140, Note_on_c, 3, 81, 113
5, 27256, Note_on_c, 3, 81, 0
5, 27500, Note_on_c, 3, 84, 104
5, 27620, Note_on_c, 3, 84, 0
5, 27620, Note_on_c, 3, 84, 119
5, 27736, Note_on_c, 3, 84, 0
5, 27920, Note_on_c, 3, 83, 95
5, 27976, Note_on_c, 3, 83, 0
5, 27980, Note_on_c, 3, 81, 90
5, 28036, Note_on_c, 3, 81, 0
5, 28040, Note_on_c, 3, 79, 90
5, 28096, Note_on_c, 3, 79, 0
5, 28100, Note_on_c, 3, 78, 108
5, 28216, Note_on_c, 3, 78, 0
5, 28400, Note_on_c, 3, 79, 106
5, 28456, Note_on_c, 3, 79, 0
5, 28460, Note_on_c, 3, 78, 110
5, 28516, Note_on_c, 3, 78, 0
5, 28520, Note_on_c, 3, 76, 86
5, 28576, Note_on_c, 3, 76, 0
5, 28580, Note_on_c, 3, 75, 101
5, 28696, Note_on_c, 3, 75, 0
5, 28940, Note_on_c, 3, 76, 84
5, 29060, Note_on_c, 3, 76, 0
5, 29060, Note_on_c, 3, 74, 100
5, 29176, Note_on_c, 3, 74, 0
5, 29180, Note_on_c, 3, 72, 97
5, 29296, Note_on_c, 3, 72, 0
5, 29300, Note_on_c, 3, 71, 84
5, 29416, Note_on_c, 3, 71, 0
5, 29420, Note_on_c, 3, 69, 91
5, 29536, Note_on_c, 3, 69, 0
5, 29540, Note_on_c, 3, 67, 64
5, 29660, Note_on_c, 3, 67, 0
5, 29660, Note_on_c, 3, 66, 101
5, 29780, Note_on_c, 3, 66, 0
5, 29780, Note_on_c, 3, 64, 97
5, 29900, Note_on_c, 3, 64, 0
5, 29900, Note_on_c, 3, 62, 98
5, 30016, Note_on_c, 3, 62, 0
5, 30020, Note_on_c, 3, 60, 104
5, 30136, Note_on_c, 3, 60, 0
5, 30140, Note_on_c, 3, 59, 92
5, 30256, Note_on_c, 3, 59, 0
5, 30260, Note_on_c, 3, 57, 109
5, 30500, Note_on_c, 3, 57, 0
5, 30860, Note_on_c, 3, 56, 110
5, 30976, Note_on_c, 3, 56, 0
5, 30980, Note_on_c, 3, 57, 100
5, 31096, Note_on_c, 3, 57, 0
5, 31100, Note_on_c, 3, 59, 85
5, 31216, Note_on_c, 3, 59, 0
5, 31220, Note_on_c, 3, 60, 84
5, 31340, Note_on_c, 3, 60, 0
5, 31340, Note_on_c, 3, 61, 84
5, 31460, Note_on_c, 3, 61, 0
5, 31460, Note_on_c, 3, 63, 102
5, 31580, Note_on_c, 3, 63, 0
5, 31580, Note_on_c, 3, 64, 97
5, 31700, Note_on_c, 3, 64, 0
5, 31700, Note_on_c, 3, 66, 96
5, 31940, Note_on_c, 3, 66, 0
5, 32060, Note_on_c, 3, 57, 91
5, 32180, Note_on_c, 3, 57, 0
5, 32180, Note_on_c, 3, 55, 91
5, 32416, Note_on_c, 3, 55, 0
5, 32420, Note_on_c, 3, 60, 107
5, 32660, Note_on_c, 3, 60, 0
5, 32660, Note_on_c, 3, 57, 90
5, 32900, Note_on_c, 3, 57, 0
5, 32900, Note_on_c, 3, 59, 88
5, 33140, Note_on_c, 3, 59, 0
5, 33140, Note_on_c, 3, 52, 111
5, 33380, Note_on_c, 3, 52, 0
5, 33440, Note_on_c, 3, 69, 97
5, 33496, Note_on_c, 3, 69, 0
5, 33500, Note_on_c, 3, 67, 92
5, 33556, Note_on_c, 3, 67, 0
5, 33560, Note_on_c, 3, 66, 94
5, 33616, Note_on_c, 3, 66, 0
5, 33620, Note_on_c, 3, 67, 102
5, 33736, Note_on_c, 3, 67, 0
5, 33920, Note_on_c, 3, 60, 104
5, 33976, Note_on_c, 3, 60, 0
5, 33980, Note_on_c, 3, 59, 96
5, 34036, Note_on_c, 3, 59, 0
5, 34040, Note_on_c, 3, 57, 92
5, 34096, Note_on_c, 3, 57, 0
5, 34100, Note_on_c, 3, 59, 101
5, 34156, Note_on_c, 3, 59, 0
5, 34400, Note_on_c, 3, 53, 113
5, 34456, Note_on_c, 3, 53, 0
5, 34460, Note_on_c, 3, 52, 100
5, 34516, Note_on_c, 3, 52, 0
5, 34520, Note_on_c, 3, 50, 96
5, 34576, Note_on_c, 3, 50, 0
5, 34580, Note_on_c, 3, 48, 121
5, 34696, Note_on_c, 3, 48, 0
5, 35180, Note_on_c, 3, 59, 100
5, 35296, Note_on_c, 3, 59, 0
5, 35300, Note_on_c, 3, 57, 96
5, 35416, Note_on_c, 3, 57, 0
5, 35420, Note_on_c, 3, 55, 97
5, 35540, Note_on_c, 3, 55, 0
5, 35540, Note_on_c, 3, 54, 91
5, 35656, Note_on_c, 3, 54, 0
5, 35660, Note_on_c, 3, 52, 80
5, 35776, Note_on_c, 3, 52, 0
5, 35780, Note_on_c, 3, 50, 97
5, 35896, Note_on_c, 3, 50, 0
5, 35900, Note_on_c, 3, 48, 98
5, 36016, Note_on_c, 3, 48, 0
5, 36020, Note_on_c, 3, 47, 113
5, 36260, Note_on_c, 3, 47, 0
5, 36620, Note_on_c, 3, 45, 98
5, 36736, Note_on_c, 3, 45, 0
5, 36740, Note_on_c, 3, 47, 101
5, 36856, Note_on_c, 3, 47, 0
5, 36860, Note_on_c, 3, 48, 98
5, 36976, Note_on_c, 3, 48, 0
5, 36980, Note_on_c, 3, 50, 95
5, 37096, Note_on_c, 3, 50, 0
5, 37100, Note_on_c, 3, 52, 100
5, 37216, Note_on_c, 3, 52, 0
5, 37220, Note_on_c, 3, 54, 108
5, 37336, Note_on_c, 3, 54, 0
5, 37340, Note_on_c, 3, 55, 102
5, 37456, Note_on_c, 3, 55, 0
5, 37460, Note_on_c, 3, 57, 106
5, 37700, Note_on_c, 3, 57, 0
5, 37700, Note_on_c, 3, 57, 117
5, 37940, Note_on_c, 3, 57, 0
5, 37940, Note_on_c, 3, 57, 102
5, 38180, Note_on_c, 3, 57, 0
5, 38180, Note_on_c, 3, 57, 107
5, 38420, Note_on_c, 3, 57, 0
5, 38420, Note_on_c, 3, 54, 108
5, 38660, Note_on_c, 3, 54, 0
5, 38660, Note_on_c, 3, 54, 110
5, 38900, Note_on_c, 3, 54, 0
5, 38900, Note_on_c, 3, 50, 106
5, 39140, Note_on_c, 3, 50, 0
5, 39140, Note_on_c, 3, 50, 95
5, 39380, Note_on_c, 3, 50, 0
5, 39380, Note_on_c, 3, 50, 102
5, 39620, Note_on_c, 3, 50, 0
5, 39620, Note_on_c, 3, 50, 102
5, 39860, Note_on_c, 3, 50, 0
5, 39860, Note_on_c, 3, 47, 111
5, 40100, Note_on_c, 3, 47, 0
5, 40100, Note_on_c, 3, 47, 102
5, 40340, Note_on_c, 3, 47, 0
5, 40340, Note_on_c, 3, 43, 98
5, 40580, Note_on_c, 3, 43, 0
5, 40580, Note_on_c, 3, 43, 89
5, 40820, Note_on_c, 3, 43, 0
5, 40820, Note_on_c, 3, 43, 97
5, 41060, Note_on_c, 3, 43, 0
5, 41060, Note_on_c, 3, 47, 95
5, 41300, Note_on_c, 3, 47, 0
5, 41300, Note_on_c, 3, 50, 92
5, 41540, Note_on_c, 3, 50, 0
5, 41540, Note_on_c, 3, 53, 101
5, 41780, Note_on_c, 3, 53, 0
5, 41780, Note_on_c, 3, 52, 96
5, 42020, Note_on_c, 3, 52, 0
5, 42020, Note_on_c, 3, 52, 100
5, 42260, Note_on_c, 3, 52, 0
5, 42260, Note_on_c, 3, 52, 101
5, 42500, Note_on_c, 3, 52, 0
5, 42500, Note_on_c, 3, 55, 96
5, 42740, Note_on_c, 3, 55, 0
5, 42740, Note_on_c, 3, 59, 101
5, 42980, Note_on_c, 3, 59, 0
5, 42980, Note_on_c, 3, 62, 97
5, 43220, Note_on_c, 3, 62, 0
5, 43220, Note_on_c, 3, 66, 112
5, 43340, Note_on_c, 3, 66, 0
5, 43820, Note_on_c, 3, 55, 93
5, 43936, Note_on_c, 3, 55, 0
5, 43940, Note_on_c, 3, 54, 110
5, 44056, Note_on_c, 3, 54, 0
5, 44060, Note_on_c, 3, 52, 104
5, 44176, Note_on_c, 3, 52, 0
5, 44180, Note_on_c, 3, 50, 98
5, 44296, Note_on_c, 3, 50, 0
5, 44300, Note_on_c, 3, 48, 102
5, 44416, Note_on_c, 3, 48, 0
5, 44420, Note_on_c, 3, 47, 101
5, 44536, Note_on_c, 3, 47, 0
5, 44540, Note_on_c, 3, 45, 98
5, 44656, Note_on_c, 3, 45, 0
5, 44660, Note_on_c, 3, 43, 111
5, 44896, Note_on_c, 3, 43, 0
5, 44900, Note_on_c, 3, 45, 101
5, 45016, Note_on_c, 3, 45, 0
5, 45020, Note_on_c, 3, 47, 102
5, 45136, Note_on_c, 3, 47, 0
5, 45140, Note_on_c, 3, 48, 102
5, 45256, Note_on_c, 3, 48, 0
5, 45260, Note_on_c, 3, 50, 92
5, 45376, Note_on_c, 3, 50, 0
5, 45380, Note_on_c, 3, 52, 100
5, 45496, Note_on_c, 3, 52, 0
5, 45500, Note_on_c, 3, 54, 101
5, 45616, Note_on_c, 3, 54, 0
5, 45620, Note_on_c, 3, 55, 109
5, 45856, Note_on_c, 3, 55, 0
5, 46080, End_track
0, 0, End_of_file
