0, 0, Header, 1, 5, 480
1, 0, Start_track
1, 0, SMPTE_offset, 96, 0, 0, 0, 0
1, 0, Time_signature, 3, 2, 24, 8
1, 20, Tempo, 857142
1, 59112, Tempo, 857142
1, 59192, Tempo, 882352
1, 59204, Tempo, 895522
1, 59224, Tempo, 909090
1, 59240, Tempo, 923076
1, 59244, Tempo, 937500
1, 59256, Tempo, 952380
1, 59272, Tempo, 967741
1, 59292, Tempo, 1000000
1, 59304, Tempo, 1016949
1, 59316, Tempo, 1034482
1, 59336, Tempo, 1016949
1, 59348, Tempo, 1034482
1, 62584, Tempo, 1016949
1, 62588, Tempo, 1034482
1, 62624, Tempo, 1052631
1, 62644, Tempo, 1071428
1, 62668, Tempo, 1111111
1, 62676, Tempo, 1132075
1, 62684, Tempo, 1153846
1, 62700, Tempo, 1176470
1, 62708, Tempo, 1200000
1, 62716, Tempo, 1224489
1, 62724, Tempo, 1250000
1, 62732, Tempo, 1304347
1, 62748, Tempo, 1333333
1, 62764, Tempo, 1363636
1, 62780, Tempo, 1395348
1, 62792, Tempo, 1428571
1, 62796, Tempo, 1463414
1, 64800, End_track
2, 0, Start_track
2, 0, Title_t, "goldberg.mid"
2, 3632, Note_on_c, 0, 62, 111
2, 3864, Note_on_c, 0, 67, 115
2, 3868, Note_on_c, 0, 62, 0
2, 4108, Note_on_c, 0, 69, 115
2, 4116, Note_on_c, 0, 67, 0
2, 4324, Note_on_c, 0, 69, 0
2, 4336, Note_on_c, 0, 71, 106
2, 4576, Note_on_c, 0, 72, 117
2, 4584, Note_on_c, 0, 71, 0
2, 4816, Note_on_c, 0, 72, 0
2, 4816, Note_on_c, 0, 74, 117
2, 5064, Note_on_c, 0, 72, 117
2, 5072, Note_on_c, 0, 74, 0
2, 5172, Note_on_c, 0, 71, 111
2, 5184, Note_on_c, 0, 72, 0
2, 5296, Note_on_c, 0, 71, 0
2, 5300, Note_on_c, 0, 69, 119
2, 5540, Note_on_c, 0, 69, 0
2, 5780, Note_on_c, 0, 74, 115
2, 6256, Note_on_c, 0, 74, 109
2, 6260, Note_on_c, 0, 74, 0
2, 6260, Note_on_c, 0, 74, 0
2, 6740, Note_on_c, 0, 76, 123
2, 7220, Note_on_c, 0, 76, 0
2, 7220, Note_on_c, 0, 76, 119
2, 7704, Note_on_c, 0, 74, 113
2, 7708, Note_on_c, 0, 76, 0
2, 7940, Note_on_c, 0, 76, 115
2, 7944, Note_on_c, 0, 74, 0
2, 8168, Note_on_c, 0, 74, 111
2, 8176, Note_on_c, 0, 76, 0
2, 8404, Note_on_c, 0, 74, 0
2, 8404, Note_on_c, 0, 72, 109
2, 8644, Note_on_c, 0, 72, 0
2, 8660, Note_on_c, 0, 71, 111
2, 8720, Note_on_c, 0, 71, 0
2, 8720, Note_on_c, 0, 72, 96
2, 8780, Note_on_c, 0, 72, 0
2, 8780, Note_on_c, 0, 71, 84
2, 8896, Note_on_c, 0, 69, 104
2, 8900, Note_on_c, 0, 71, 0
2, 9016, Note_on_c, 0, 69, 0
2, 9016, Note_on_c, 0, 71, 107
2, 9140, Note_on_c, 0, 67, 102
2, 9148, Note_on_c, 0, 71, 0
2, 9620, Note_on_c, 0, 67, 0
2, 9620, Note_on_c, 0, 67, 111
2, 9884, Note_on_c, 0, 69, 107
2, 9896, Note_on_c, 0, 67, 0
2, 10108, Note_on_c, 0, 69, 0
2, 10108, Note_on_c, 0, 71, 102
2, 10336, Note_on_c, 0, 72, 113
2, 10348, Note_on_c, 0, 71, 0
2, 10588, Note_on_c, 0, 74, 104
2, 10592, Note_on_c, 0, 72, 0
2, 10844, Note_on_c, 0, 72, 106
2, 10856, Note_on_c, 0, 74, 0
2, 10948, Note_on_c, 0, 71, 101
2, 10964, Note_on_c, 0, 72, 0
2, 11060, Note_on_c, 0, 71, 0
2, 11068, Note_on_c, 0, 69, 102
2, 11308, Note_on_c, 0, 69, 0
2, 11308, Note_on_c, 0, 74, 111
2, 11544, Note_on_c, 0, 74, 0
2, 11544, Note_on_c, 0, 79, 121
2, 11784, Note_on_c, 0, 78, 110
2, 11796, Note_on_c, 0, 79, 0
2, 12008, Note_on_c, 0, 76, 115
2, 12020, Note_on_c, 0, 78, 0
2, 12272, Note_on_c, 0, 76, 0
2, 12272, Note_on_c, 0, 74, 109
2, 12500, Note_on_c, 0, 74, 0
2, 12500, Note_on_c, 0, 73, 100
2, 12548, Note_on_c, 0, 73, 0
2, 12560, Note_on_c, 0, 74, 115
2, 12592, Note_on_c, 0, 74, 0
2, 12620, Note_on_c, 0, 73, 106
2, 12740, Note_on_c, 0, 73, 0
2, 12744, Note_on_c, 0, 71, 106
2, 12856, Note_on_c, 0, 73, 112
2, 12868, Note_on_c, 0, 71, 0
2, 12980, Note_on_c, 0, 73, 0
2, 12980, Note_on_c, 0, 69, 115
2, 13220, Note_on_c, 0, 69, 0
2, 13460, Note_on_c, 0, 81, 127
2, 13936, Note_on_c, 0, 81, 0
2, 13940, Note_on_c, 0, 81, 121
2, 14416, Note_on_c, 0, 81, 0
2, 14420, Note_on_c, 0, 83, 126
2, 14896, Note_on_c, 0, 83, 0
2, 14900, Note_on_c, 0, 83, 102
2, 15376, Note_on_c, 0, 83, 0
2, 15380, Note_on_c, 0, 81, 117
2, 15616, Note_on_c, 0, 81, 0
2, 15620, Note_on_c, 0, 83, 109
2, 15856, Note_on_c, 0, 83, 0
2, 15860, Note_on_c, 0, 81, 107
2, 16096, Note_on_c, 0, 81, 0
2, 16100, Note_on_c, 0, 79, 115
2, 16336, Note_on_c, 0, 79, 0
2, 16340, Note_on_c, 0, 78, 121
2, 16576, Note_on_c, 0, 78, 0
2, 16580, Note_on_c, 0, 76, 102
2, 16816, Note_on_c, 0, 76, 0
2, 16820, Note_on_c, 0, 74, 111
2, 17056, Note_on_c, 0, 74, 0
2, 18980, Note_on_c, 0, 62, 117
2, 19216, Note_on_c, 0, 62, 0
2, 19228, Note_on_c, 0, 67, 117
2, 19472, Note_on_c, 0, 69, 113
2, 19484, Note_on_c, 0, 67, 0
2, 19696, Note_on_c, 0, 69, 0
2, 19704, Note_on_c, 0, 71, 106
2, 19936, Note_on_c, 0, 72, 119
2, 19948, Note_on_c, 0, 71, 0
2, 20168, Note_on_c, 0, 74, 117
2, 20172, Note_on_c, 0, 72, 0
2, 20412, Note_on_c, 0, 72, 109
2, 20420, Note_on_c, 0, 74, 0
2, 20516, Note_on_c, 0, 71, 115
2, 20528, Note_on_c, 0, 72, 0
2, 20640, Note_on_c, 0, 71, 0
2, 20660, Note_on_c, 0, 69, 115
2, 20900, Note_on_c, 0, 69, 0
2, 21140, Note_on_c, 0, 74, 111
2, 21620, Note_on_c, 0, 74, 0
2, 21620, Note_on_c, 0, 74, 115
2, 22100, Note_on_c, 0, 74, 0
2, 22100, Note_on_c, 0, 76, 117
2, 22580, Note_on_c, 0, 76, 0
2, 22580, Note_on_c, 0, 76, 117
2, 23068, Note_on_c, 0, 74, 111
2, 23080, Note_on_c, 0, 76, 0
2, 23288, Note_on_c, 0, 76, 106
2, 23304, Note_on_c, 0, 74, 0
2, 23520, Note_on_c, 0, 74, 106
2, 23536, Note_on_c, 0, 76, 0
2, 23768, Note_on_c, 0, 74, 0
2, 23772, Note_on_c, 0, 72, 117
2, 24000, Note_on_c, 0, 72, 0
2, 24000, Note_on_c, 0, 71, 109
2, 24032, Note_on_c, 0, 72, 101
2, 24036, Note_on_c, 0, 71, 0
2, 24068, Note_on_c, 0, 71, 102
2, 24076, Note_on_c, 0, 72, 0
2, 24244, Note_on_c, 0, 69, 106
2, 24252, Note_on_c, 0, 71, 0
2, 24360, Note_on_c, 0, 71, 109
2, 24368, Note_on_c, 0, 69, 0
2, 24484, Note_on_c, 0, 71, 0
2, 24500, Note_on_c, 0, 67, 117
2, 24972, Note_on_c, 0, 67, 109
2, 24980, Note_on_c, 0, 67, 0
2, 24980, Note_on_c, 0, 67, 0
2, 25224, Note_on_c, 0, 69, 101
2, 25452, Note_on_c, 0, 71, 113
2, 25460, Note_on_c, 0, 69, 0
2, 25680, Note_on_c, 0, 71, 0
2, 25688, Note_on_c, 0, 72, 107
2, 25932, Note_on_c, 0, 72, 0
2, 25936, Note_on_c, 0, 74, 121
2, 26176, Note_on_c, 0, 72, 115
2, 26184, Note_on_c, 0, 74, 0
2, 26280, Note_on_c, 0, 71, 107
2, 26296, Note_on_c, 0, 72, 0
2, 26404, Note_on_c, 0, 71, 0
2, 26404, Note_on_c, 0, 69, 107
2, 26648, Note_on_c, 0, 69, 0
2, 26652, Note_on_c, 0, 74, 117
2, 26896, Note_on_c, 0, 74, 0
2, 26896, Note_on_c, 0, 79, 119
2, 27120, Note_on_c, 0, 79, 0
2, 27140, Note_on_c, 0, 78, 121
2, 27356, Note_on_c, 0, 78, 0
2, 27368, Note_on_c, 0, 76, 119
2, 27612, Note_on_c, 0, 76, 0
2, 27616, Note_on_c, 0, 74, 113
2, 27856, Note_on_c, 0, 73, 119
2, 27864, Note_on_c, 0, 74, 0
2, 27880, Note_on_c, 0, 73, 0
2, 27888, Note_on_c, 0, 74, 111
2, 27920, Note_on_c, 0, 73, 121
2, 27936, Note_on_c, 0, 74, 0
2, 28088, Note_on_c, 0, 71, 121
2, 28108, Note_on_c, 0, 73, 0
2, 28204, Note_on_c, 0, 73, 117
2, 28216, Note_on_c, 0, 71, 0
2, 28324, Note_on_c, 0, 73, 0
2, 28340, Note_on_c, 0, 69, 119
2, 28580, Note_on_c, 0, 69, 0
2, 28820, Note_on_c, 0, 81, 123
2, 29300, Note_on_c, 0, 81, 0
2, 29304, Note_on_c, 0, 81, 124
2, 29760, Note_on_c, 0, 81, 0
2, 29780, Note_on_c, 0, 83, 123
2, 30260, Note_on_c, 0, 83, 0
2, 30264, Note_on_c, 0, 83, 121
2, 30740, Note_on_c, 0, 81, 119
2, 30748, Note_on_c, 0, 83, 0
2, 30976, Note_on_c, 0, 81, 0
2, 30980, Note_on_c, 0, 83, 117
2, 31216, Note_on_c, 0, 83, 0
2, 31220, Note_on_c, 0, 81, 121
2, 31456, Note_on_c, 0, 81, 0
2, 31460, Note_on_c, 0, 79, 107
2, 31696, Note_on_c, 0, 79, 0
2, 31700, Note_on_c, 0, 78, 117
2, 31936, Note_on_c, 0, 78, 0
2, 31940, Note_on_c, 0, 76, 119
2, 32176, Note_on_c, 0, 76, 0
2, 32180, Note_on_c, 0, 74, 115
2, 32416, Note_on_c, 0, 74, 0
2, 32420, Note_on_c, 0, 81, 119
2, 32656, Note_on_c, 0, 81, 0
2, 32660, Note_on_c, 0, 78, 115
2, 32896, Note_on_c, 0, 78, 0
2, 32900, Note_on_c, 0, 81, 111
2, 33136, Note_on_c, 0, 81, 0
2, 33140, Note_on_c, 0, 78, 112
2, 33376, Note_on_c, 0, 78, 0
2, 33380, Note_on_c, 0, 81, 106
2, 33616, Note_on_c, 0, 81, 0
2, 33620, Note_on_c, 0, 74, 121
2, 33856, Note_on_c, 0, 74, 0
2, 33860, Note_on_c, 0, 76, 117
2, 33976, Note_on_c, 0, 76, 0
2, 33980, Note_on_c, 0, 78, 108
2, 34096, Note_on_c, 0, 78, 0
2, 34100, Note_on_c, 0, 79, 115
2, 34336, Note_on_c, 0, 79, 0
2, 34340, Note_on_c, 0, 76, 111
2, 34576, Note_on_c, 0, 76, 0
2, 34580, Note_on_c, 0, 81, 113
2, 34816, Note_on_c, 0, 81, 0
2, 34824, Note_on_c, 0, 79, 111
2, 35064, Note_on_c, 0, 78, 121
2, 35072, Note_on_c, 0, 79, 0
2, 35284, Note_on_c, 0, 78, 0
2, 35288, Note_on_c, 0, 76, 111
2, 35520, Note_on_c, 0, 75, 106
2, 35532, Note_on_c, 0, 76, 0
2, 35548, Note_on_c, 0, 75, 0
2, 35548, Note_on_c, 0, 76, 104
2, 35580, Note_on_c, 0, 75, 110
2, 35592, Note_on_c, 0, 76, 0
2, 35768, Note_on_c, 0, 73, 117
2, 35772, Note_on_c, 0, 75, 0
2, 35880, Note_on_c, 0, 75, 112
2, 35888, Note_on_c, 0, 73, 0
2, 36000, Note_on_c, 0, 75, 0
2, 36004, Note_on_c, 0, 71, 113
2, 36240, Note_on_c, 0, 71, 0
2, 36244, Note_on_c, 0, 83, 126
2, 36500, Note_on_c, 0, 76, 106
2, 36504, Note_on_c, 0, 83, 0
2, 36732, Note_on_c, 0, 83, 121
2, 36752, Note_on_c, 0, 76, 0
2, 36968, Note_on_c, 0, 83, 0
2, 36972, Note_on_c, 0, 76, 107
2, 37220, Note_on_c, 0, 76, 0
2, 37220, Note_on_c, 0, 83, 102
2, 37448, Note_on_c, 0, 75, 110
2, 37468, Note_on_c, 0, 83, 0
2, 37564, Note_on_c, 0, 75, 0
2, 37568, Note_on_c, 0, 76, 111
2, 37688, Note_on_c, 0, 78, 97
2, 37700, Note_on_c, 0, 76, 0
2, 37800, Note_on_c, 0, 79, 106
2, 37808, Note_on_c, 0, 78, 0
2, 37928, Note_on_c, 0, 81, 107
2, 37940, Note_on_c, 0, 79, 0
2, 38176, Note_on_c, 0, 79, 109
2, 38188, Note_on_c, 0, 81, 0
2, 38288, Note_on_c, 0, 78, 119
2, 38300, Note_on_c, 0, 79, 0
2, 38408, Note_on_c, 0, 79, 111
2, 38416, Note_on_c, 0, 78, 0
2, 38652, Note_on_c, 0, 78, 119
2, 38668, Note_on_c, 0, 79, 0
2, 38768, Note_on_c, 0, 76, 104
2, 38776, Note_on_c, 0, 78, 0
2, 38896, Note_on_c, 0, 75, 93
2, 38916, Note_on_c, 0, 76, 0
2, 39012, Note_on_c, 0, 75, 0
2, 39012, Note_on_c, 0, 76, 97
2, 39124, Note_on_c, 0, 78, 110
2, 39144, Note_on_c, 0, 76, 0
2, 39232, Note_on_c, 0, 75, 104
2, 39236, Note_on_c, 0, 78, 0
2, 39356, Note_on_c, 0, 76, 107
2, 39360, Note_on_c, 0, 75, 0
2, 40440, Note_on_c, 0, 75, 99
2, 40444, Note_on_c, 0, 76, 0
2, 40560, Note_on_c, 0, 78, 106
2, 40576, Note_on_c, 0, 75, 0
2, 40680, Note_on_c, 0, 76, 101
2, 40696, Note_on_c, 0, 78, 0
2, 40792, Note_on_c, 0, 76, 0
2, 40804, Note_on_c, 0, 79, 102
2, 40920, Note_on_c, 0, 78, 96
2, 40928, Note_on_c, 0, 79, 0
2, 41048, Note_on_c, 0, 78, 0
2, 41052, Note_on_c, 0, 81, 119
2, 41268, Note_on_c, 0, 81, 0
2, 41276, Note_on_c, 0, 74, 109
2, 42032, Note_on_c, 0, 72, 115
2, 42048, Note_on_c, 0, 74, 0
2, 42144, Note_on_c, 0, 74, 102
2, 42148, Note_on_c, 0, 72, 0
2, 42268, Note_on_c, 0, 74, 0
2, 42272, Note_on_c, 0, 76, 104
2, 42508, Note_on_c, 0, 78, 108
2, 42520, Note_on_c, 0, 76, 0
2, 42612, Note_on_c, 0, 79, 102
2, 42624, Note_on_c, 0, 78, 0
2, 42728, Note_on_c, 0, 81, 109
2, 42740, Note_on_c, 0, 79, 0
2, 42988, Note_on_c, 0, 79, 104
2, 43004, Note_on_c, 0, 81, 0
2, 43208, Note_on_c, 0, 79, 0
2, 43220, Note_on_c, 0, 79, 97
2, 43280, Note_on_c, 0, 79, 0
2, 43280, Note_on_c, 0, 78, 108
2, 43320, Note_on_c, 0, 78, 0
2, 43340, Note_on_c, 0, 76, 80
2, 43400, Note_on_c, 0, 76, 0
2, 43400, Note_on_c, 0, 78, 80
2, 43460, Note_on_c, 0, 78, 0
2, 43460, Note_on_c, 0, 74, 98
2, 43700, Note_on_c, 0, 74, 0
2, 44164, Note_on_c, 0, 83, 123
2, 44412, Note_on_c, 0, 83, 0
2, 44416, Note_on_c, 0, 84, 117
2, 44664, Note_on_c, 0, 86, 98
2, 44672, Note_on_c, 0, 84, 0
2, 44896, Note_on_c, 0, 83, 113
2, 44912, Note_on_c, 0, 86, 0
2, 45128, Note_on_c, 0, 83, 0
2, 45128, Note_on_c, 0, 84, 111
2, 45360, Note_on_c, 0, 84, 0
2, 45360, Note_on_c, 0, 83, 115
2, 45596, Note_on_c, 0, 81, 113
2, 45604, Note_on_c, 0, 83, 0
2, 45836, Note_on_c, 0, 81, 0
2, 45836, Note_on_c, 0, 79, 111
2, 46084, Note_on_c, 0, 78, 123
2, 46108, Note_on_c, 0, 79, 0
2, 46324, Note_on_c, 0, 79, 113
2, 46332, Note_on_c, 0, 78, 0
2, 46564, Note_on_c, 0, 81, 107
2, 46572, Note_on_c, 0, 79, 0
2, 46800, Note_on_c, 0, 78, 115
2, 46820, Note_on_c, 0, 81, 0
2, 47052, Note_on_c, 0, 79, 115
2, 47068, Note_on_c, 0, 78, 0
2, 47524, Note_on_c, 0, 79, 0
2, 47540, Note_on_c, 0, 79, 102
2, 47780, Note_on_c, 0, 79, 0
2, 47780, Note_on_c, 0, 81, 102
2, 48020, Note_on_c, 0, 81, 0
2, 48020, Note_on_c, 0, 78, 115
2, 48256, Note_on_c, 0, 78, 0
2, 48260, Note_on_c, 0, 81, 111
2, 48496, Note_on_c, 0, 81, 0
2, 48500, Note_on_c, 0, 78, 112
2, 48736, Note_on_c, 0, 78, 0
2, 48740, Note_on_c, 0, 81, 106
2, 48976, Note_on_c, 0, 81, 0
2, 48980, Note_on_c, 0, 74, 121
2, 49216, Note_on_c, 0, 74, 0
2, 49220, Note_on_c, 0, 76, 117
2, 49336, Note_on_c, 0, 76, 0
2, 49340, Note_on_c, 0, 78, 108
2, 49456, Note_on_c, 0, 78, 0
2, 49460, Note_on_c, 0, 79, 115
2, 49696, Note_on_c, 0, 79, 0
2, 49700, Note_on_c, 0, 76, 111
2, 49936, Note_on_c, 0, 76, 0
2, 49940, Note_on_c, 0, 81, 113
2, 50176, Note_on_c, 0, 81, 0
2, 50184, Note_on_c, 0, 79, 111
2, 50424, Note_on_c, 0, 78, 121
2, 50432, Note_on_c, 0, 79, 0
2, 50644, Note_on_c, 0, 78, 0
2, 50648, Note_on_c, 0, 76, 111
2, 50880, Note_on_c, 0, 75, 106
2, 50892, Note_on_c, 0, 76, 0
2, 50908, Note_on_c, 0, 75, 0
2, 50908, Note_on_c, 0, 76, 104
2, 50940, Note_on_c, 0, 75, 110
2, 50952, Note_on_c, 0, 76, 0
2, 51128, Note_on_c, 0, 73, 117
2, 51132, Note_on_c, 0, 75, 0
2, 51240, Note_on_c, 0, 75, 112
2, 51248, Note_on_c, 0, 73, 0
2, 51360, Note_on_c, 0, 75, 0
2, 51364, Note_on_c, 0, 71, 113
2, 51600, Note_on_c, 0, 71, 0
2, 51604, Note_on_c, 0, 83, 126
2, 51860, Note_on_c, 0, 76, 106
2, 51864, Note_on_c, 0, 83, 0
2, 52092, Note_on_c, 0, 83, 121
2, 52112, Note_on_c, 0, 76, 0
2, 52328, Note_on_c, 0, 83, 0
2, 52332, Note_on_c, 0, 76, 107
2, 52580, Note_on_c, 0, 76, 0
2, 52580, Note_on_c, 0, 83, 102
2, 52808, Note_on_c, 0, 75, 110
2, 52828, Note_on_c, 0, 83, 0
2, 52924, Note_on_c, 0, 75, 0
2, 52928, Note_on_c, 0, 76, 111
2, 53048, Note_on_c, 0, 78, 97
2, 53060, Note_on_c, 0, 76, 0
2, 53160, Note_on_c, 0, 79, 106
2, 53168, Note_on_c, 0, 78, 0
2, 53288, Note_on_c, 0, 81, 107
2, 53300, Note_on_c, 0, 79, 0
2, 53536, Note_on_c, 0, 79, 109
2, 53548, Note_on_c, 0, 81, 0
2, 53648, Note_on_c, 0, 78, 119
2, 53660, Note_on_c, 0, 79, 0
2, 53768, Note_on_c, 0, 79, 111
2, 53776, Note_on_c, 0, 78, 0
2, 54012, Note_on_c, 0, 78, 119
2, 54028, Note_on_c, 0, 79, 0
2, 54128, Note_on_c, 0, 76, 104
2, 54136, Note_on_c, 0, 78, 0
2, 54256, Note_on_c, 0, 75, 93
2, 54276, Note_on_c, 0, 76, 0
2, 54372, Note_on_c, 0, 75, 0
2, 54372, Note_on_c, 0, 76, 97
2, 54484, Note_on_c, 0, 78, 110
2, 54504, Note_on_c, 0, 76, 0
2, 54592, Note_on_c, 0, 75, 104
2, 54596, Note_on_c, 0, 78, 0
2, 54716, Note_on_c, 0, 76, 107
2, 54720, Note_on_c, 0, 75, 0
2, 55800, Note_on_c, 0, 75, 99
2, 55804, Note_on_c, 0, 76, 0
2, 55920, Note_on_c, 0, 78, 106
2, 55936, Note_on_c, 0, 75, 0
2, 56040, Note_on_c, 0, 76, 101
2, 56056, Note_on_c, 0, 78, 0
2, 56152, Note_on_c, 0, 76, 0
2, 56164, Note_on_c, 0, 79, 102
2, 56280, Note_on_c, 0, 78, 96
2, 56288, Note_on_c, 0, 79, 0
2, 56408, Note_on_c, 0, 78, 0
2, 56412, Note_on_c, 0, 81, 119
2, 56628, Note_on_c, 0, 81, 0
2, 56636, Note_on_c, 0, 74, 109
2, 57392, Note_on_c, 0, 72, 115
2, 57408, Note_on_c, 0, 74, 0
2, 57504, Note_on_c, 0, 74, 102
2, 57508, Note_on_c, 0, 72, 0
2, 57628, Note_on_c, 0, 74, 0
2, 57632, Note_on_c, 0, 76, 104
2, 57868, Note_on_c, 0, 78, 108
2, 57880, Note_on_c, 0, 76, 0
2, 57972, Note_on_c, 0, 79, 102
2, 57984, Note_on_c, 0, 78, 0
2, 58088, Note_on_c, 0, 81, 109
2, 58100, Note_on_c, 0, 79, 0
2, 58348, Note_on_c, 0, 79, 104
2, 58364, Note_on_c, 0, 81, 0
2, 58568, Note_on_c, 0, 79, 0
2, 58580, Note_on_c, 0, 79, 97
2, 58640, Note_on_c, 0, 79, 0
2, 58640, Note_on_c, 0, 78, 108
2, 58680, Note_on_c, 0, 78, 0
2, 58700, Note_on_c, 0, 76, 80
2, 58760, Note_on_c, 0, 76, 0
2, 58760, Note_on_c, 0, 78, 80
2, 58820, Note_on_c, 0, 78, 0
2, 58820, Note_on_c, 0, 74, 98
2, 59060, Note_on_c, 0, 74, 0
2, 59524, Note_on_c, 0, 83, 123
2, 59772, Note_on_c, 0, 83, 0
2, 59776, Note_on_c, 0, 84, 117
2, 60024, Note_on_c, 0, 86, 98
2, 60032, Note_on_c, 0, 84, 0
2, 60256, Note_on_c, 0, 83, 113
2, 60272, Note_on_c, 0, 86, 0
2, 60488, Note_on_c, 0, 83, 0
2, 60488, Note_on_c, 0, 84, 111
2, 60720, Note_on_c, 0, 84, 0
2, 60720, Note_on_c, 0, 83, 115
2, 60956, Note_on_c, 0, 81, 113
2, 60964, Note_on_c, 0, 83, 0
2, 61196, Note_on_c, 0, 81, 0
2, 61196, Note_on_c, 0, 79, 111
2, 61444, Note_on_c, 0, 78, 123
2, 61468, Note_on_c, 0, 79, 0
2, 61684, Note_on_c, 0, 79, 113
2, 61692, Note_on_c, 0, 78, 0
2, 61924, Note_on_c, 0, 81, 107
2, 61932, Note_on_c, 0, 79, 0
2, 62160, Note_on_c, 0, 78, 115
2, 62180, Note_on_c, 0, 81, 0
2, 62412, Note_on_c, 0, 79, 115
2, 62428, Note_on_c, 0, 78, 0
2, 62884, Note_on_c, 0, 79, 0
2, 62900, Note_on_c, 0, 79, 102
2, 63860, Note_on_c, 0, 79, 0
2, 64800, End_track
3, 0, Start_track
3, 0, Title_t, "goldberg.mid"
3, 3860, Note_on_c, 1, 67, 100
3, 4336, Note_on_c, 1, 67, 0
3, 4340, Note_on_c, 1, 67, 104
3, 4816, Note_on_c, 1, 67, 0
3, 4820, Note_on_c, 1, 69, 101
3, 5296, Note_on_c, 1, 69, 0
3, 5300, Note_on_c, 1, 69, 104
3, 5776, Note_on_c, 1, 69, 0
3, 5780, Note_on_c, 1, 67, 111
3, 6016, Note_on_c, 1, 67, 0
3, 6020, Note_on_c, 1, 69, 96
3, 6256, Note_on_c, 1, 69, 0
3, 6260, Note_on_c, 1, 67, 104
3, 6496, Note_on_c, 1, 67, 0
3, 6500, Note_on_c, 1, 65, 102
3, 6736, Note_on_c, 1, 65, 0
3, 6740, Note_on_c, 1, 64, 97
3, 6976, Note_on_c, 1, 64, 0
3, 6980, Note_on_c, 1, 62, 97
3, 7216, Note_on_c, 1, 62, 0
3, 7220, Note_on_c, 1, 60, 113
3, 7456, Note_on_c, 1, 60, 0
3, 7460, Note_on_c, 1, 71, 113
3, 7696, Note_on_c, 1, 71, 0
3, 7700, Note_on_c, 1, 69, 106
3, 7936, Note_on_c, 1, 69, 0
3, 7940, Note_on_c, 1, 67, 107
3, 8176, Note_on_c, 1, 67, 0
3, 8180, Note_on_c, 1, 69, 101
3, 8416, Note_on_c, 1, 69, 0
3, 8420, Note_on_c, 1, 66, 106
3, 8656, Note_on_c, 1, 66, 0
3, 8660, Note_on_c, 1, 67, 115
3, 9136, Note_on_c, 1, 67, 0
3, 9140, Note_on_c, 1, 67, 109
3, 9376, Note_on_c, 1, 67, 0
3, 9380, Note_on_c, 1, 62, 100
3, 9616, Note_on_c, 1, 62, 0
3, 9620, Note_on_c, 1, 67, 104
3, 10096, Note_on_c, 1, 67, 0
3, 10100, Note_on_c, 1, 67, 111
3, 10576, Note_on_c, 1, 67, 0
3, 10580, Note_on_c, 1, 69, 107
3, 11056, Note_on_c, 1, 69, 0
3, 11060, Note_on_c, 1, 69, 109
3, 11536, Note_on_c, 1, 69, 0
3, 11540, Note_on_c, 1, 67, 107
3, 11776, Note_on_c, 1, 67, 0
3, 11780, Note_on_c, 1, 69, 100
3, 12016, Note_on_c, 1, 69, 0
3, 12020, Note_on_c, 1, 67, 101
3, 12256, Note_on_c, 1, 67, 0
3, 12260, Note_on_c, 1, 66, 110
3, 12496, Note_on_c, 1, 66, 0
3, 12500, Note_on_c, 1, 64, 100
3, 12740, Note_on_c, 1, 64, 0
3, 12740, Note_on_c, 1, 62, 100
3, 12980, Note_on_c, 1, 62, 0
3, 12980, Note_on_c, 1, 61, 104
3, 13216, Note_on_c, 1, 61, 0
3, 13220, Note_on_c, 1, 71, 104
3, 13336, Note_on_c, 1, 71, 0
3, 13340, Note_on_c, 1, 73, 115
3, 13456, Note_on_c, 1, 73, 0
3, 13460, Note_on_c, 1, 74, 106
3, 13696, Note_on_c, 1, 74, 0
3, 13700, Note_on_c, 1, 76, 104
3, 13936, Note_on_c, 1, 76, 0
3, 13940, Note_on_c, 1, 78, 104
3, 14176, Note_on_c, 1, 78, 0
3, 14180, Note_on_c, 1, 74, 101
3, 14416, Note_on_c, 1, 74, 0
3, 14420, Note_on_c, 1, 71, 98
3, 14656, Note_on_c, 1, 71, 0
3, 14660, Note_on_c, 1, 74, 107
3, 14896, Note_on_c, 1, 74, 0
3, 14900, Note_on_c, 1, 79, 101
3, 15136, Note_on_c, 1, 79, 0
3, 15140, Note_on_c, 1, 78, 117
3, 15376, Note_on_c, 1, 78, 0
3, 15380, Note_on_c, 1, 76, 107
3, 15740, Note_on_c, 1, 76, 0
3, 15740, Note_on_c, 1, 74, 109
3, 15980, Note_on_c, 1, 74, 0
3, 15980, Note_on_c, 1, 73, 117
3, 16100, Note_on_c, 1, 73, 0
3, 16100, Note_on_c, 1, 69, 107
3, 16100, Note_on_c, 1, 76, 98
3, 16460, Note_on_c, 1, 76, 0
3, 16460, Note_on_c, 1, 74, 89
3, 16580, Note_on_c, 1, 69, 0
3, 16580, Note_on_c, 1, 67, 107
3, 16700, Note_on_c, 1, 74, 0
3, 16700, Note_on_c, 1, 73, 101
3, 16820, Note_on_c, 1, 67, 0
3, 16820, Note_on_c, 1, 73, 0
3, 16820, Note_on_c, 1, 66, 107
3, 17060, Note_on_c, 1, 66, 0
3, 19220, Note_on_c, 1, 67, 115
3, 19696, Note_on_c, 1, 67, 0
3, 19700, Note_on_c, 1, 67, 107
3, 20176, Note_on_c, 1, 67, 0
3, 20180, Note_on_c, 1, 69, 107
3, 20656, Note_on_c, 1, 69, 0
3, 20660, Note_on_c, 1, 69, 106
3, 21136, Note_on_c, 1, 69, 0
3, 21140, Note_on_c, 1, 67, 109
3, 21376, Note_on_c, 1, 67, 0
3, 21380, Note_on_c, 1, 69, 107
3, 21616, Note_on_c, 1, 69, 0
3, 21620, Note_on_c, 1, 67, 107
3, 21856, Note_on_c, 1, 67, 0
3, 21860, Note_on_c, 1, 65, 100
3, 22096, Note_on_c, 1, 65, 0
3, 22100, Note_on_c, 1, 64, 102
3, 22336, Note_on_c, 1, 64, 0
3, 22340, Note_on_c, 1, 62, 100
3, 22576, Note_on_c, 1, 62, 0
3, 22580, Note_on_c, 1, 60, 104
3, 22816, Note_on_c, 1, 60, 0
3, 22820, Note_on_c, 1, 71, 113
3, 23056, Note_on_c, 1, 71, 0
3, 23060, Note_on_c, 1, 69, 98
3, 23296, Note_on_c, 1, 69, 0
3, 23300, Note_on_c, 1, 67, 102
3, 23536, Note_on_c, 1, 67, 0
3, 23540, Note_on_c, 1, 69, 102
3, 23776, Note_on_c, 1, 69, 0
3, 23780, Note_on_c, 1, 66, 108
3, 24016, Note_on_c, 1, 66, 0
3, 24020, Note_on_c, 1, 67, 101
3, 24496, Note_on_c, 1, 67, 0
3, 24500, Note_on_c, 1, 67, 117
3, 24740, Note_on_c, 1, 67, 0
3, 24740, Note_on_c, 1, 62, 117
3, 24980, Note_on_c, 1, 62, 0
3, 24980, Note_on_c, 1, 67, 95
3, 25456, Note_on_c, 1, 67, 0
3, 25460, Note_on_c, 1, 67, 109
3, 25936, Note_on_c, 1, 67, 0
3, 25940, Note_on_c, 1, 69, 106
3, 26416, Note_on_c, 1, 69, 0
3, 26420, Note_on_c, 1, 69, 100
3, 26896, Note_on_c, 1, 69, 0
3, 26900, Note_on_c, 1, 67, 107
3, 27140, Note_on_c, 1, 67, 0
3, 27140, Note_on_c, 1, 69, 98
3, 27376, Note_on_c, 1, 69, 0
3, 27380, Note_on_c, 1, 67, 102
3, 27620, Note_on_c, 1, 67, 0
3, 27620, Note_on_c, 1, 66, 102
3, 27860, Note_on_c, 1, 66, 0
3, 27860, Note_on_c, 1, 64, 109
3, 28100, Note_on_c, 1, 64, 0
3, 28100, Note_on_c, 1, 62, 109
3, 28340, Note_on_c, 1, 62, 0
3, 28340, Note_on_c, 1, 61, 100
3, 28576, Note_on_c, 1, 61, 0
3, 28580, Note_on_c, 1, 71, 113
3, 28696, Note_on_c, 1, 71, 0
3, 28700, Note_on_c, 1, 73, 107
3, 28816, Note_on_c, 1, 73, 0
3, 28820, Note_on_c, 1, 74, 104
3, 29056, Note_on_c, 1, 74, 0
3, 29060, Note_on_c, 1, 76, 107
3, 29296, Note_on_c, 1, 76, 0
3, 29300, Note_on_c, 1, 78, 67
3, 29536, Note_on_c, 1, 78, 0
3, 29540, Note_on_c, 1, 74, 101
3, 29776, Note_on_c, 1, 74, 0
3, 29780, Note_on_c, 1, 71, 109
3, 30016, Note_on_c, 1, 71, 0
3, 30020, Note_on_c, 1, 74, 109
3, 30256, Note_on_c, 1, 74, 0
3, 30260, Note_on_c, 1, 79, 111
3, 30496, Note_on_c, 1, 79, 0
3, 30500, Note_on_c, 1, 78, 110
3, 30736, Note_on_c, 1, 78, 0
3, 30740, Note_on_c, 1, 76, 113
3, 31096, Note_on_c, 1, 76, 0
3, 31100, Note_on_c, 1, 74, 106
3, 31336, Note_on_c, 1, 74, 0
3, 31340, Note_on_c, 1, 73, 112
3, 31456, Note_on_c, 1, 73, 0
3, 31460, Note_on_c, 1, 69, 113
3, 31460, Note_on_c, 1, 76, 111
3, 31816, Note_on_c, 1, 76, 0
3, 31820, Note_on_c, 1, 74, 102
3, 31940, Note_on_c, 1, 69, 0
3, 31940, Note_on_c, 1, 67, 113
3, 32056, Note_on_c, 1, 74, 0
3, 32060, Note_on_c, 1, 73, 108
3, 32176, Note_on_c, 1, 73, 0
3, 32180, Note_on_c, 1, 67, 0
3, 32180, Note_on_c, 1, 66, 113
3, 32420, Note_on_c, 1, 66, 0
3, 32660, Note_on_c, 1, 69, 91
3, 33136, Note_on_c, 1, 69, 0
3, 33140, Note_on_c, 1, 69, 98
3, 33616, Note_on_c, 1, 69, 0
3, 33620, Note_on_c, 1, 71, 98
3, 34096, Note_on_c, 1, 71, 0
3, 34100, Note_on_c, 1, 71, 109
3, 34576, Note_on_c, 1, 71, 0
3, 34580, Note_on_c, 1, 69, 107
3, 34816, Note_on_c, 1, 69, 0
3, 34820, Note_on_c, 1, 71, 104
3, 35056, Note_on_c, 1, 71, 0
3, 35060, Note_on_c, 1, 69, 109
3, 35296, Note_on_c, 1, 69, 0
3, 35300, Note_on_c, 1, 67, 101
3, 35536, Note_on_c, 1, 67, 0
3, 35540, Note_on_c, 1, 66, 110
3, 35776, Note_on_c, 1, 66, 0
3, 35780, Note_on_c, 1, 64, 111
3, 36016, Note_on_c, 1, 64, 0
3, 36020, Note_on_c, 1, 63, 104
3, 36496, Note_on_c, 1, 63, 0
3, 36500, Note_on_c, 1, 71, 117
3, 36980, Note_on_c, 1, 71, 0
3, 36980, Note_on_c, 1, 71, 121
3, 37456, Note_on_c, 1, 71, 0
3, 37460, Note_on_c, 1, 72, 123
3, 37936, Note_on_c, 1, 72, 0
3, 37940, Note_on_c, 1, 72, 119
3, 38416, Note_on_c, 1, 72, 0
3, 38420, Note_on_c, 1, 71, 107
3, 38656, Note_on_c, 1, 71, 0
3, 38660, Note_on_c, 1, 72, 100
3, 38896, Note_on_c, 1, 72, 0
3, 38900, Note_on_c, 1, 71, 102
3, 39136, Note_on_c, 1, 71, 0
3, 39140, Note_on_c, 1, 69, 101
3, 39376, Note_on_c, 1, 69, 0
3, 39380, Note_on_c, 1, 67, 91
3, 39616, Note_on_c, 1, 67, 0
3, 39620, Note_on_c, 1, 66, 108
3, 39736, Note_on_c, 1, 66, 0
3, 39740, Note_on_c, 1, 67, 95
3, 39856, Note_on_c, 1, 67, 0
3, 39860, Note_on_c, 1, 64, 109
3, 40336, Note_on_c, 1, 64, 0
3, 41300, Note_on_c, 1, 67, 115
3, 41776, Note_on_c, 1, 67, 0
3, 41780, Note_on_c, 1, 67, 111
3, 42256, Note_on_c, 1, 67, 0
3, 42260, Note_on_c, 1, 72, 121
3, 42616, Note_on_c, 1, 72, 0
3, 42620, Note_on_c, 1, 74, 113
3, 42736, Note_on_c, 1, 74, 0
3, 42740, Note_on_c, 1, 72, 109
3, 42976, Note_on_c, 1, 72, 0
3, 42980, Note_on_c, 1, 71, 106
3, 43216, Note_on_c, 1, 71, 0
3, 43220, Note_on_c, 1, 69, 106
3, 43456, Note_on_c, 1, 69, 0
3, 43460, Note_on_c, 1, 71, 96
3, 43696, Note_on_c, 1, 71, 0
3, 43700, Note_on_c, 1, 72, 109
3, 43936, Note_on_c, 1, 72, 0
3, 43940, Note_on_c, 1, 74, 111
3, 44176, Note_on_c, 1, 74, 0
3, 44180, Note_on_c, 1, 71, 98
3, 44416, Note_on_c, 1, 71, 0
3, 44420, Note_on_c, 1, 69, 95
3, 44536, Note_on_c, 1, 69, 0
3, 44540, Note_on_c, 1, 71, 101
3, 44656, Note_on_c, 1, 71, 0
3, 44660, Note_on_c, 1, 67, 109
3, 45136, Note_on_c, 1, 67, 0
3, 45380, Note_on_c, 1, 76, 119
3, 45496, Note_on_c, 1, 76, 0
3, 45500, Note_on_c, 1, 74, 102
3, 45616, Note_on_c, 1, 74, 0
3, 45620, Note_on_c, 1, 72, 111
3, 45856, Note_on_c, 1, 72, 0
3, 45860, Note_on_c, 1, 76, 117
3, 46096, Note_on_c, 1, 76, 0
3, 46100, Note_on_c, 1, 69, 104
3, 46216, Note_on_c, 1, 69, 0
3, 46220, Note_on_c, 1, 74, 111
3, 46336, Note_on_c, 1, 74, 0
3, 46340, Note_on_c, 1, 72, 115
3, 46456, Note_on_c, 1, 72, 0
3, 46460, Note_on_c, 1, 71, 113
3, 46576, Note_on_c, 1, 71, 0
3, 46580, Note_on_c, 1, 72, 107
3, 46696, Note_on_c, 1, 72, 0
3, 46700, Note_on_c, 1, 69, 98
3, 46816, Note_on_c, 1, 69, 0
3, 46820, Note_on_c, 1, 74, 119
3, 47296, Note_on_c, 1, 74, 0
3, 47300, Note_on_c, 1, 72, 115
3, 47416, Note_on_c, 1, 72, 0
3, 47420, Note_on_c, 1, 74, 101
3, 47536, Note_on_c, 1, 74, 0
3, 47540, Note_on_c, 1, 71, 104
3, 47780, Note_on_c, 1, 71, 0
3, 48020, Note_on_c, 1, 69, 91
3, 48496, Note_on_c, 1, 69, 0
3, 48500, Note_on_c, 1, 69, 98
3, 48976, Note_on_c, 1, 69, 0
3, 48980, Note_on_c, 1, 71, 98
3, 49456, Note_on_c, 1, 71, 0
3, 49460, Note_on_c, 1, 71, 109
3, 49936, Note_on_c, 1, 71, 0
3, 49940, Note_on_c, 1, 69, 107
3, 50176, Note_on_c, 1, 69, 0
3, 50180, Note_on_c, 1, 71, 104
3, 50416, Note_on_c, 1, 71, 0
3, 50420, Note_on_c, 1, 69, 109
3, 50656, Note_on_c, 1, 69, 0
3, 50660, Note_on_c, 1, 67, 101
3, 50896, Note_on_c, 1, 67, 0
3, 50900, Note_on_c, 1, 66, 110
3, 51136, Note_on_c, 1, 66, 0
3, 51140, Note_on_c, 1, 64, 111
3, 51376, Note_on_c, 1, 64, 0
3, 51380, Note_on_c, 1, 63, 104
3, 51856, Note_on_c, 1, 63, 0
3, 51860, Note_on_c, 1, 71, 117
3, 52340, Note_on_c, 1, 71, 0
3, 52340, Note_on_c, 1, 71, 121
3, 52816, Note_on_c, 1, 71, 0
3, 52820, Note_on_c, 1, 72, 123
3, 53296, Note_on_c, 1, 72, 0
3, 53300, Note_on_c, 1, 72, 119
3, 53776, Note_on_c, 1, 72, 0
3, 53780, Note_on_c, 1, 71, 107
3, 54016, Note_on_c, 1, 71, 0
3, 54020, Note_on_c, 1, 72, 100
3, 54256, Note_on_c, 1, 72, 0
3, 54260, Note_on_c, 1, 71, 102
3, 54496, Note_on_c, 1, 71, 0
3, 54500, Note_on_c, 1, 69, 101
3, 54736, Note_on_c, 1, 69, 0
3, 54740, Note_on_c, 1, 67, 91
3, 54976, Note_on_c, 1, 67, 0
3, 54980, Note_on_c, 1, 66, 108
3, 55096, Note_on_c, 1, 66, 0
3, 55100, Note_on_c, 1, 67, 95
3, 55216, Note_on_c, 1, 67, 0
3, 55220, Note_on_c, 1, 64, 109
3, 55696, Note_on_c, 1, 64, 0
3, 56660, Note_on_c, 1, 67, 115
3, 57136, Note_on_c, 1, 67, 0
3, 57140, Note_on_c, 1, 67, 111
3, 57616, Note_on_c, 1, 67, 0
3, 57620, Note_on_c, 1, 72, 121
3, 57976, Note_on_c, 1, 72, 0
3, 57980, Note_on_c, 1, 74, 113
3, 58096, Note_on_c, 1, 74, 0
3, 58100, Note_on_c, 1, 72, 109
3, 58336, Note_on_c, 1, 72, 0
3, 58340, Note_on_c, 1, 71, 106
3, 58576, Note_on_c, 1, 71, 0
3, 58580, Note_on_c, 1, 69, 106
3, 58816, Note_on_c, 1, 69, 0
3, 58820, Note_on_c, 1, 71, 96
3, 59056, Note_on_c, 1, 71, 0
3, 59060, Note_on_c, 1, 72, 109
3, 59296, Note_on_c, 1, 72, 0
3, 59300, Note_on_c, 1, 74, 111
3, 59536, Note_on_c, 1, 74, 0
3, 59540, Note_on_c, 1, 71, 98
3, 59776, Note_on_c, 1, 71, 0
3, 59780, Note_on_c, 1, 69, 95
3, 59896, Note_on_c, 1, 69, 0
3, 59900, Note_on_c, 1, 71, 101
3, 60016, Note_on_c, 1, 71, 0
3, 60020, Note_on_c, 1, 67, 109
3, 60496, Note_on_c, 1, 67, 0
3, 60740, Note_on_c, 1, 76, 119
3, 60856, Note_on_c, 1, 76, 0
3, 60860, Note_on_c, 1, 74, 102
3, 60976, Note_on_c, 1, 74, 0
3, 60980, Note_on_c, 1, 72, 111
3, 61216, Note_on_c, 1, 72, 0
3, 61220, Note_on_c, 1, 76, 117
3, 61456, Note_on_c, 1, 76, 0
3, 61460, Note_on_c, 1, 69, 104
3, 61576, Note_on_c, 1, 69, 0
3, 61580, Note_on_c, 1, 74, 111
3, 61696, Note_on_c, 1, 74, 0
3, 61700, Note_on_c, 1, 72, 115
3, 61816, Note_on_c, 1, 72, 0
3, 61820, Note_on_c, 1, 71, 113
3, 61936, Note_on_c, 1, 71, 0
3, 61940, Note_on_c, 1, 72, 107
3, 62056, Note_on_c, 1, 72, 0
3, 62060, Note_on_c, 1, 69, 98
3, 62176, Note_on_c, 1, 69, 0
3, 62180, Note_on_c, 1, 74, 119
3, 62656, Note_on_c, 1, 74, 0
3, 62660, Note_on_c, 1, 72, 115
3, 62776, Note_on_c, 1, 72, 0
3, 62780, Note_on_c, 1, 74, 101
3, 62896, Note_on_c, 1, 74, 0
3, 62900, Note_on_c, 1, 71, 104
3, 63860, Note_on_c, 1, 71, 0
3, 64800, End_track
4, 0, Start_track
4, 0, Title_t, "goldberg.mid"
4, 1700, Note_on_c, 2, 50, 106
4, 1936, Note_on_c, 2, 50, 0
4, 1940, Note_on_c, 2, 55, 102
4, 2176, Note_on_c, 2, 55, 0
4, 2180, Note_on_c, 2, 57, 106
4, 2416, Note_on_c, 2, 57, 0
4, 2420, Note_on_c, 2, 59, 98
4, 2656, Note_on_c, 2, 59, 0
4, 2660, Note_on_c, 2, 60, 107
4, 2896, Note_on_c, 2, 60, 0
4, 2900, Note_on_c, 2, 62, 101
4, 3136, Note_on_c, 2, 62, 0
4, 3140, Note_on_c, 2, 60, 95
4, 3256, Note_on_c, 2, 60, 0
4, 3260, Note_on_c, 2, 59, 95
4, 3376, Note_on_c, 2, 59, 0
4, 3380, Note_on_c, 2, 57, 96
4, 3616, Note_on_c, 2, 57, 0
4, 3620, Note_on_c, 2, 55, 91
4, 3736, Note_on_c, 2, 55, 0
4, 3740, Note_on_c, 2, 57, 95
4, 3856, Note_on_c, 2, 57, 0
4, 3860, Note_on_c, 2, 59, 91
4, 4096, Note_on_c, 2, 59, 0
4, 4100, Note_on_c, 2, 57, 104
4, 4336, Note_on_c, 2, 57, 0
4, 4340, Note_on_c, 2, 55, 98
4, 5296, Note_on_c, 2, 55, 0
4, 5300, Note_on_c, 2, 54, 101
4, 5360, Note_on_c, 2, 54, 0
4, 5360, Note_on_c, 2, 55, 98
4, 5420, Note_on_c, 2, 55, 0
4, 5420, Note_on_c, 2, 54, 93
4, 5536, Note_on_c, 2, 54, 0
4, 5540, Note_on_c, 2, 52, 100
4, 5656, Note_on_c, 2, 52, 0
4, 5660, Note_on_c, 2, 54, 108
4, 5776, Note_on_c, 2, 54, 0
4, 5780, Note_on_c, 2, 55, 100
4, 6496, Note_on_c, 2, 55, 0
4, 6500, Note_on_c, 2, 62, 113
4, 6736, Note_on_c, 2, 62, 0
4, 6740, Note_on_c, 2, 60, 107
4, 6976, Note_on_c, 2, 60, 0
4, 6980, Note_on_c, 2, 59, 115
4, 7216, Note_on_c, 2, 59, 0
4, 7220, Note_on_c, 2, 57, 104
4, 7456, Note_on_c, 2, 57, 0
4, 7460, Note_on_c, 2, 55, 98
4, 7696, Note_on_c, 2, 55, 0
4, 7700, Note_on_c, 2, 55, 110
4, 7760, Note_on_c, 2, 55, 0
4, 7760, Note_on_c, 2, 54, 110
4, 7820, Note_on_c, 2, 54, 0
4, 7820, Note_on_c, 2, 55, 110
4, 7880, Note_on_c, 2, 55, 0
4, 7880, Note_on_c, 2, 54, 110
4, 7940, Note_on_c, 2, 54, 0
4, 7940, Note_on_c, 2, 55, 110
4, 8000, Note_on_c, 2, 55, 0
4, 8000, Note_on_c, 2, 54, 110
4, 8060, Note_on_c, 2, 54, 0
4, 8060, Note_on_c, 2, 55, 110
4, 8120, Note_on_c, 2, 55, 0
4, 8120, Note_on_c, 2, 54, 110
4, 8180, Note_on_c, 2, 54, 0
4, 8180, Note_on_c, 2, 55, 110
4, 8240, Note_on_c, 2, 55, 0
4, 8240, Note_on_c, 2, 54, 110
4, 8300, Note_on_c, 2, 54, 0
4, 8300, Note_on_c, 2, 52, 110
4, 8360, Note_on_c, 2, 52, 0
4, 8360, Note_on_c, 2, 54, 110
4, 8420, Note_on_c, 2, 54, 0
4, 8420, Note_on_c, 2, 50, 107
4, 9140, Note_on_c, 2, 50, 0
4, 11300, Note_on_c, 2, 74, 106
4, 11780, Note_on_c, 2, 74, 0
4, 11780, Note_on_c, 2, 72, 106
4, 12020, Note_on_c, 2, 72, 0
4, 12020, Note_on_c, 2, 71, 106
4, 12500, Note_on_c, 2, 71, 0
4, 12500, Note_on_c, 2, 69, 106
4, 12980, Note_on_c, 2, 69, 0
4, 13460, Note_on_c, 2, 54, 102
4, 13696, Note_on_c, 2, 54, 0
4, 13700, Note_on_c, 2, 55, 102
4, 13936, Note_on_c, 2, 55, 0
4, 13940, Note_on_c, 2, 57, 102
4, 14176, Note_on_c, 2, 57, 0
4, 14180, Note_on_c, 2, 54, 106
4, 14416, Note_on_c, 2, 54, 0
4, 14420, Note_on_c, 2, 55, 113
4, 14656, Note_on_c, 2, 55, 0
4, 14660, Note_on_c, 2, 54, 117
4, 14896, Note_on_c, 2, 54, 0
4, 14900, Note_on_c, 2, 52, 111
4, 15136, Note_on_c, 2, 52, 0
4, 15140, Note_on_c, 2, 50, 111
4, 15376, Note_on_c, 2, 50, 0
4, 15380, Note_on_c, 2, 49, 117
4, 15616, Note_on_c, 2, 49, 0
4, 15620, Note_on_c, 2, 50, 107
4, 15856, Note_on_c, 2, 50, 0
4, 15860, Note_on_c, 2, 52, 109
4, 16096, Note_on_c, 2, 52, 0
4, 16100, Note_on_c, 2, 49, 101
4, 16336, Note_on_c, 2, 49, 0
4, 16340, Note_on_c, 2, 50, 107
4, 16820, Note_on_c, 2, 50, 0
4, 17060, Note_on_c, 2, 50, 106
4, 17296, Note_on_c, 2, 50, 0
4, 17300, Note_on_c, 2, 55, 100
4, 17536, Note_on_c, 2, 55, 0
4, 17540, Note_on_c, 2, 57, 109
4, 17776, Note_on_c, 2, 57, 0
4, 17780, Note_on_c, 2, 59, 97
4, 18016, Note_on_c, 2, 59, 0
4, 18020, Note_on_c, 2, 60, 113
4, 18256, Note_on_c, 2, 60, 0
4, 18260, Note_on_c, 2, 62, 102
4, 18496, Note_on_c, 2, 62, 0
4, 18500, Note_on_c, 2, 60, 106
4, 18616, Note_on_c, 2, 60, 0
4, 18620, Note_on_c, 2, 59, 101
4, 18736, Note_on_c, 2, 59, 0
4, 18740, Note_on_c, 2, 57, 100
4, 18976, Note_on_c, 2, 57, 0
4, 18980, Note_on_c, 2, 55, 101
4, 19096, Note_on_c, 2, 55, 0
4, 19100, Note_on_c, 2, 57, 100
4, 19216, Note_on_c, 2, 57, 0
4, 19220, Note_on_c, 2, 59, 102
4, 19456, Note_on_c, 2, 59, 0
4, 19460, Note_on_c, 2, 57, 100
4, 19696, Note_on_c, 2, 57, 0
4, 19700, Note_on_c, 2, 55, 107
4, 20656, Note_on_c, 2, 55, 0
4, 20660, Note_on_c, 2, 54, 104
4, 20660, Note_on_c, 2, 55, 100
4, 20776, Note_on_c, 2, 54, 0
4, 20776, Note_on_c, 2, 55, 0
4, 20780, Note_on_c, 2, 54, 68
4, 20896, Note_on_c, 2, 54, 0
4, 20900, Note_on_c, 2, 52, 92
4, 21016, Note_on_c, 2, 52, 0
4, 21020, Note_on_c, 2, 54, 108
4, 21136, Note_on_c, 2, 54, 0
4, 21140, Note_on_c, 2, 55, 106
4, 21856, Note_on_c, 2, 55, 0
4, 21860, Note_on_c, 2, 62, 109
4, 22096, Note_on_c, 2, 62, 0
4, 22100, Note_on_c, 2, 60, 101
4, 22336, Note_on_c, 2, 60, 0
4, 22340, Note_on_c, 2, 59, 102
4, 22576, Note_on_c, 2, 59, 0
4, 22580, Note_on_c, 2, 57, 107
4, 22816, Note_on_c, 2, 57, 0
4, 22820, Note_on_c, 2, 55, 98
4, 23060, Note_on_c, 2, 55, 0
4, 23060, Note_on_c, 2, 55, 110
4, 23120, Note_on_c, 2, 55, 0
4, 23120, Note_on_c, 2, 54, 100
4, 23180, Note_on_c, 2, 54, 0
4, 23180, Note_on_c, 2, 55, 106
4, 23240, Note_on_c, 2, 55, 0
4, 23240, Note_on_c, 2, 54, 106
4, 23300, Note_on_c, 2, 54, 0
4, 23300, Note_on_c, 2, 55, 106
4, 23360, Note_on_c, 2, 55, 0
4, 23360, Note_on_c, 2, 54, 106
4, 23420, Note_on_c, 2, 54, 0
4, 23420, Note_on_c, 2, 55, 106
4, 23480, Note_on_c, 2, 55, 0
4, 23480, Note_on_c, 2, 54, 106
4, 23540, Note_on_c, 2, 54, 0
4, 23540, Note_on_c, 2, 55, 106
4, 23600, Note_on_c, 2, 55, 0
4, 23600, Note_on_c, 2, 54, 106
4, 23660, Note_on_c, 2, 54, 0
4, 23660, Note_on_c, 2, 52, 106
4, 23720, Note_on_c, 2, 52, 0
4, 23720, Note_on_c, 2, 54, 106
4, 23780, Note_on_c, 2, 54, 0
4, 23780, Note_on_c, 2, 50, 106
4, 24500, Note_on_c, 2, 50, 0
4, 26660, Note_on_c, 2, 74, 109
4, 27140, Note_on_c, 2, 74, 0
4, 27140, Note_on_c, 2, 72, 84
4, 27376, Note_on_c, 2, 72, 0
4, 27380, Note_on_c, 2, 71, 106
4, 27860, Note_on_c, 2, 71, 0
4, 27860, Note_on_c, 2, 69, 119
4, 28340, Note_on_c, 2, 69, 0
4, 28820, Note_on_c, 2, 54, 106
4, 29056, Note_on_c, 2, 54, 0
4, 29060, Note_on_c, 2, 55, 106
4, 29296, Note_on_c, 2, 55, 0
4, 29300, Note_on_c, 2, 57, 106
4, 29536, Note_on_c, 2, 57, 0
4, 29540, Note_on_c, 2, 54, 110
4, 29776, Note_on_c, 2, 54, 0
4, 29780, Note_on_c, 2, 55, 104
4, 30016, Note_on_c, 2, 55, 0
4, 30020, Note_on_c, 2, 54, 108
4, 30256, Note_on_c, 2, 54, 0
4, 30260, Note_on_c, 2, 52, 111
4, 30496, Note_on_c, 2, 52, 0
4, 30500, Note_on_c, 2, 50, 104
4, 30736, Note_on_c, 2, 50, 0
4, 30740, Note_on_c, 2, 49, 108
4, 30976, Note_on_c, 2, 49, 0
4, 30980, Note_on_c, 2, 50, 107
4, 31216, Note_on_c, 2, 50, 0
4, 31220, Note_on_c, 2, 52, 106
4, 31456, Note_on_c, 2, 52, 0
4, 31460, Note_on_c, 2, 49, 104
4, 31696, Note_on_c, 2, 49, 0
4, 31700, Note_on_c, 2, 50, 102
4, 32416, Note_on_c, 2, 50, 0
4, 32420, Note_on_c, 2, 66, 109
4, 32656, Note_on_c, 2, 66, 0
4, 32660, Note_on_c, 2, 62, 109
4, 32896, Note_on_c, 2, 62, 0
4, 32900, Note_on_c, 2, 66, 109
4, 33136, Note_on_c, 2, 66, 0
4, 33140, Note_on_c, 2, 62, 109
4, 33376, Note_on_c, 2, 62, 0
4, 33380, Note_on_c, 2, 66, 108
4, 33616, Note_on_c, 2, 66, 0
4, 33620, Note_on_c, 2, 67, 96
4, 33856, Note_on_c, 2, 67, 0
4, 33860, Note_on_c, 2, 62, 97
4, 34096, Note_on_c, 2, 62, 0
4, 34100, Note_on_c, 2, 62, 97
4, 34336, Note_on_c, 2, 62, 0
4, 34340, Note_on_c, 2, 67, 96
4, 34576, Note_on_c, 2, 67, 0
4, 34580, Note_on_c, 2, 64, 109
4, 34820, Note_on_c, 2, 64, 0
4, 35540, Note_on_c, 2, 66, 121
4, 36016, Note_on_c, 2, 66, 0
4, 36020, Note_on_c, 2, 66, 112
4, 36496, Note_on_c, 2, 66, 0
4, 36500, Note_on_c, 2, 67, 107
4, 36976, Note_on_c, 2, 67, 0
4, 36980, Note_on_c, 2, 67, 113
4, 37456, Note_on_c, 2, 67, 0
4, 37460, Note_on_c, 2, 66, 110
4, 37696, Note_on_c, 2, 66, 0
4, 37700, Note_on_c, 2, 67, 95
4, 37936, Note_on_c, 2, 67, 0
4, 37940, Note_on_c, 2, 66, 108
4, 38176, Note_on_c, 2, 66, 0
4, 38180, Note_on_c, 2, 64, 101
4, 38416, Note_on_c, 2, 64, 0
4, 38420, Note_on_c, 2, 63, 112
4, 38656, Note_on_c, 2, 63, 0
4, 38660, Note_on_c, 2, 64, 106
4, 38776, Note_on_c, 2, 64, 0
4, 38780, Note_on_c, 2, 66, 94
4, 38896, Note_on_c, 2, 66, 0
4, 38900, Note_on_c, 2, 59, 104
4, 39616, Note_on_c, 2, 59, 0
4, 39620, Note_on_c, 2, 57, 107
4, 39736, Note_on_c, 2, 57, 0
4, 39740, Note_on_c, 2, 59, 92
4, 39856, Note_on_c, 2, 59, 0
4, 39860, Note_on_c, 2, 55, 101
4, 40096, Note_on_c, 2, 55, 0
4, 40100, Note_on_c, 2, 57, 104
4, 40216, Note_on_c, 2, 57, 0
4, 40220, Note_on_c, 2, 59, 95
4, 40336, Note_on_c, 2, 59, 0
4, 40340, Note_on_c, 2, 60, 97
4, 40576, Note_on_c, 2, 60, 0
4, 40580, Note_on_c, 2, 62, 84
4, 40816, Note_on_c, 2, 62, 0
4, 40820, Note_on_c, 2, 64, 102
4, 41056, Note_on_c, 2, 64, 0
4, 41060, Note_on_c, 2, 66, 94
4, 41296, Note_on_c, 2, 66, 0
4, 41300, Note_on_c, 2, 67, 100
4, 41536, Note_on_c, 2, 67, 0
4, 41540, Note_on_c, 2, 66, 99
4, 41656, Note_on_c, 2, 66, 0
4, 41660, Note_on_c, 2, 64, 96
4, 41776, Note_on_c, 2, 64, 0
4, 41780, Note_on_c, 2, 62, 98
4, 42020, Note_on_c, 2, 62, 0
4, 42500, Note_on_c, 2, 69, 104
4, 42740, Note_on_c, 2, 69, 0
4, 42740, Note_on_c, 2, 64, 102
4, 42980, Note_on_c, 2, 64, 0
4, 42980, Note_on_c, 2, 62, 81
4, 43100, Note_on_c, 2, 62, 0
4, 43100, Note_on_c, 2, 64, 102
4, 43220, Note_on_c, 2, 64, 0
4, 43220, Note_on_c, 2, 66, 88
4, 43456, Note_on_c, 2, 66, 0
4, 43460, Note_on_c, 2, 67, 92
4, 43936, Note_on_c, 2, 67, 0
4, 43940, Note_on_c, 2, 66, 93
4, 44176, Note_on_c, 2, 66, 0
4, 44180, Note_on_c, 2, 62, 109
4, 44656, Note_on_c, 2, 62, 0
4, 44660, Note_on_c, 2, 62, 106
4, 45136, Note_on_c, 2, 62, 0
4, 45140, Note_on_c, 2, 64, 109
4, 45616, Note_on_c, 2, 64, 0
4, 45620, Note_on_c, 2, 64, 113
4, 46096, Note_on_c, 2, 64, 0
4, 46100, Note_on_c, 2, 62, 109
4, 46336, Note_on_c, 2, 62, 0
4, 46340, Note_on_c, 2, 64, 109
4, 46576, Note_on_c, 2, 64, 0
4, 46580, Note_on_c, 2, 62, 98
4, 46816, Note_on_c, 2, 62, 0
4, 46820, Note_on_c, 2, 60, 107
4, 47056, Note_on_c, 2, 60, 0
4, 47060, Note_on_c, 2, 59, 97
4, 47296, Note_on_c, 2, 59, 0
4, 47300, Note_on_c, 2, 57, 104
4, 47536, Note_on_c, 2, 57, 0
4, 47540, Note_on_c, 2, 55, 102
4, 47776, Note_on_c, 2, 55, 0
4, 47780, Note_on_c, 2, 66, 102
4, 48016, Note_on_c, 2, 66, 0
4, 48020, Note_on_c, 2, 62, 109
4, 48256, Note_on_c, 2, 62, 0
4, 48260, Note_on_c, 2, 66, 109
4, 48496, Note_on_c, 2, 66, 0
4, 48500, Note_on_c, 2, 62, 109
4, 48736, Note_on_c, 2, 62, 0
4, 48740, Note_on_c, 2, 66, 108
4, 48976, Note_on_c, 2, 66, 0
4, 48980, Note_on_c, 2, 67, 96
4, 49216, Note_on_c, 2, 67, 0
4, 49220, Note_on_c, 2, 62, 97
4, 49456, Note_on_c, 2, 62, 0
4, 49460, Note_on_c, 2, 62, 97
4, 49696, Note_on_c, 2, 62, 0
4, 49700, Note_on_c, 2, 67, 96
4, 49936, Note_on_c, 2, 67, 0
4, 49940, Note_on_c, 2, 64, 109
4, 50180, Note_on_c, 2, 64, 0
4, 50900, Note_on_c, 2, 66, 121
4, 51376, Note_on_c, 2, 66, 0
4, 51380, Note_on_c, 2, 66, 112
4, 51856, Note_on_c, 2, 66, 0
4, 51860, Note_on_c, 2, 67, 107
4, 52336, Note_on_c, 2, 67, 0
4, 52340, Note_on_c, 2, 67, 113
4, 52816, Note_on_c, 2, 67, 0
4, 52820, Note_on_c, 2, 66, 110
4, 53056, Note_on_c, 2, 66, 0
4, 53060, Note_on_c, 2, 67, 95
4, 53296, Note_on_c, 2, 67, 0
4, 53300, Note_on_c, 2, 66, 108
4, 53536, Note_on_c, 2, 66, 0
4, 53540, Note_on_c, 2, 64, 101
4, 53776, Note_on_c, 2, 64, 0
4, 53780, Note_on_c, 2, 63, 112
4, 54016, Note_on_c, 2, 63, 0
4, 54020, Note_on_c, 2, 64, 106
4, 54136, Note_on_c, 2, 64, 0
4, 54140, Note_on_c, 2, 66, 94
4, 54256, Note_on_c, 2, 66, 0
4, 54260, Note_on_c, 2, 59, 104
4, 54976, Note_on_c, 2, 59, 0
4, 54980, Note_on_c, 2, 57, 107
4, 55096, Note_on_c, 2, 57, 0
4, 55100, Note_on_c, 2, 59, 92
4, 55216, Note_on_c, 2, 59, 0
4, 55220, Note_on_c, 2, 55, 101
4, 55456, Note_on_c, 2, 55, 0
4, 55460, Note_on_c, 2, 57, 104
4, 55576, Note_on_c, 2, 57, 0
4, 55580, Note_on_c, 2, 59, 95
4, 55696, Note_on_c, 2, 59, 0
4, 55700, Note_on_c, 2, 60, 97
4, 55936, Note_on_c, 2, 60, 0
4, 55940, Note_on_c, 2, 62, 84
4, 56176, Note_on_c, 2, 62, 0
4, 56180, Note_on_c, 2, 64, 102
4, 56416, Note_on_c, 2, 64, 0
4, 56420, Note_on_c, 2, 66, 94
4, 56656, Note_on_c, 2, 66, 0
4, 56660, Note_on_c, 2, 67, 100
4, 56896, Note_on_c, 2, 67, 0
4, 56900, Note_on_c, 2, 66, 99
4, 57016, Note_on_c, 2, 66, 0
4, 57020, Note_on_c, 2, 64, 96
4, 57136, Note_on_c, 2, 64, 0
4, 57140, Note_on_c, 2, 62, 98
4, 57380, Note_on_c, 2, 62, 0
4, 57860, Note_on_c, 2, 69, 104
4, 58100, Note_on_c, 2, 69, 0
4, 58100, Note_on_c, 2, 64, 102
4, 58340, Note_on_c, 2, 64, 0
4, 58340, Note_on_c, 2, 62, 81
4, 58460, Note_on_c, 2, 62, 0
4, 58460, Note_on_c, 2, 64, 102
4, 58580, Note_on_c, 2, 64, 0
4, 58580, Note_on_c, 2, 66, 88
4, 58816, Note_on_c, 2, 66, 0
4, 58820, Note_on_c, 2, 67, 92
4, 59296, Note_on_c, 2, 67, 0
4, 59300, Note_on_c, 2, 66, 93
4, 59536, Note_on_c, 2, 66, 0
4, 59540, Note_on_c, 2, 62, 109
4, 60016, Note_on_c, 2, 62, 0
4, 60020, Note_on_c, 2, 62, 106
4, 60496, Note_on_c, 2, 62, 0
4, 60500, Note_on_c, 2, 64, 109
4, 60976, Note_on_c, 2, 64, 0
4, 60980, Note_on_c, 2, 64, 113
4, 61456, Note_on_c, 2, 64, 0
4, 61460, Note_on_c, 2, 62, 109
4, 61696, Note_on_c, 2, 62, 0
4, 61700, Note_on_c, 2, 64, 109
4, 61936, Note_on_c, 2, 64, 0
4, 61940, Note_on_c, 2, 62, 98
4, 62176, Note_on_c, 2, 62, 0
4, 62180, Note_on_c, 2, 60, 107
4, 62416, Note_on_c, 2, 60, 0
4, 62420, Note_on_c, 2, 59, 97
4, 62656, Note_on_c, 2, 59, 0
4, 62660, Note_on_c, 2, 57, 104
4, 62896, Note_on_c, 2, 57, 0
4, 62900, Note_on_c, 2, 55, 102
4, 63860, Note_on_c, 2, 55, 0
4, 64800, End_track
5, 0, Start_track
5, 0, Title_t, "goldberg.mid"
5, 1940, Note_on_c, 3, 55, 111
5, 2896, Note_on_c, 3, 55, 0
5, 2900, Note_on_c, 3, 54, 117
5, 3856, Note_on_c, 3, 54, 0
5, 3860, Note_on_c, 3, 52, 119
5, 4816, Note_on_c, 3, 52, 0
5, 4820, Note_on_c, 3, 50, 106
5, 5536, Note_on_c, 3, 50, 0
5, 5540, Note_on_c, 3, 48, 111
5, 5776, Note_on_c, 3, 48, 0
5, 5780, Note_on_c, 3, 47, 113
5, 6736, Note_on_c, 3, 47, 0
5, 6740, Note_on_c, 3, 48, 109
5, 7696, Note_on_c, 3, 48, 0
5, 7700, Note_on_c, 3, 50, 104
5, 8656, Note_on_c, 3, 50, 0
5, 8660, Note_on_c, 3, 43, 115
5, 9136, Note_on_c, 3, 43, 0
5, 9380, Note_on_c, 3, 59, 106
5, 9496, Note_on_c, 3, 59, 0
5, 9500, Note_on_c, 3, 57, 101
5, 9616, Note_on_c, 3, 57, 0
5, 9620, Note_on_c, 3, 55, 102
5, 9856, Note_on_c, 3, 55, 0
5, 9860, Note_on_c, 3, 54, 106
5, 9976, Note_on_c, 3, 54, 0
5, 9980, Note_on_c, 3, 55, 97
5, 10096, Note_on_c, 3, 55, 0
5, 10100, Note_on_c, 3, 52, 111
5, 10336, Note_on_c, 3, 52, 0
5, 10340, Note_on_c, 3, 50, 100
5, 10456, Note_on_c, 3, 50, 0
5, 10460, Note_on_c, 3, 52, 109
5, 10576, Note_on_c, 3, 52, 0
5, 10580, Note_on_c, 3, 54, 110
5, 11296, Note_on_c, 3, 54, 0
5, 11300, Note_on_c, 3, 59, 115
5, 11536, Note_on_c, 3, 59, 0
5, 11540, Note_on_c, 3, 52, 102
5, 12256, Note_on_c, 3, 52, 0
5, 12260, Note_on_c, 3, 54, 106
5, 12376, Note_on_c, 3, 54, 0
5, 12380, Note_on_c, 3, 55, 98
5, 12496, Note_on_c, 3, 55, 0
5, 12500, Note_on_c, 3, 57, 100
5, 13096, Note_on_c, 3, 57, 0
5, 13100, Note_on_c, 3, 55, 102
5, 13216, Note_on_c, 3, 55, 0
5, 13220, Note_on_c, 3, 54, 115
5, 13336, Note_on_c, 3, 54, 0
5, 13340, Note_on_c, 3, 52, 102
5, 13456, Note_on_c, 3, 52, 0
5, 13460, Note_on_c, 3, 54, 121
5, 13936, Note_on_c, 3, 54, 0
5, 13940, Note_on_c, 3, 50, 106
5, 14416, Note_on_c, 3, 50, 0
5, 14420, Note_on_c, 3, 55, 115
5, 14896, Note_on_c, 3, 55, 0
5, 14900, Note_on_c, 3, 43, 117
5, 15376, Note_on_c, 3, 43, 0
5, 15380, Note_on_c, 3, 45, 121
5, 16336, Note_on_c, 3, 45, 0
5, 16340, Note_on_c, 3, 38, 106
5, 17056, Note_on_c, 3, 38, 0
5, 17300, Note_on_c, 3, 55, 115
5, 18256, Note_on_c, 3, 55, 0
5, 18260, Note_on_c, 3, 54, 101
5, 19216, Note_on_c, 3, 54, 0
5, 19220, Note_on_c, 3, 52, 111
5, 20176, Note_on_c, 3, 52, 0
5, 20180, Note_on_c, 3, 50, 113
5, 20896, Note_on_c, 3, 50, 0
5, 20900, Note_on_c, 3, 48, 111
5, 21136, Note_on_c, 3, 48, 0
5, 21140, Note_on_c, 3, 47, 107
5, 22096, Note_on_c, 3, 47, 0
5, 22100, Note_on_c, 3, 48, 104
5, 23056, Note_on_c, 3, 48, 0
5, 23060, Note_on_c, 3, 50, 111
5, 24016, Note_on_c, 3, 50, 0
5, 24020, Note_on_c, 3, 43, 104
5, 24496, Note_on_c, 3, 43, 0
5, 24740, Note_on_c, 3, 59, 102
5, 24856, Note_on_c, 3, 59, 0
5, 24860, Note_on_c, 3, 57, 101
5, 24976, Note_on_c, 3, 57, 0
5, 24980, Note_on_c, 3, 55, 101
5, 25216, Note_on_c, 3, 55, 0
5, 25220, Note_on_c, 3, 54, 99
5, 25336, Note_on_c, 3, 54, 0
5, 25340, Note_on_c, 3, 55, 93
5, 25456, Note_on_c, 3, 55, 0
5, 25460, Note_on_c, 3, 52, 109
5, 25696, Note_on_c, 3, 52, 0
5, 25700, Note_on_c, 3, 50, 100
5, 25816, Note_on_c, 3, 50, 0
5, 25820, Note_on_c, 3, 52, 104
5, 25936, Note_on_c, 3, 52, 0
5, 25940, Note_on_c, 3, 54, 106
5, 26656, Note_on_c, 3, 54, 0
5, 26660, Note_on_c, 3, 59, 109
5, 26896, Note_on_c, 3, 59, 0
5, 26900, Note_on_c, 3, 52, 109
5, 27616, Note_on_c, 3, 52, 0
5, 27620, Note_on_c, 3, 54, 112
5, 27736, Note_on_c, 3, 54, 0
5, 27740, Note_on_c, 3, 55, 100
5, 27856, Note_on_c, 3, 55, 0
5, 27860, Note_on_c, 3, 57, 106
5, 28456, Note_on_c, 3, 57, 0
5, 28460, Note_on_c, 3, 55, 97
5, 28576, Note_on_c, 3, 55, 0
5, 28580, Note_on_c, 3, 54, 110
5, 28696, Note_on_c, 3, 54, 0
5, 28700, Note_on_c, 3, 52, 98
5, 28816, Note_on_c, 3, 52, 0
5, 28820, Note_on_c, 3, 54, 121
5, 29296, Note_on_c, 3, 54, 0
5, 29300, Note_on_c, 3, 50, 107
5, 29776, Note_on_c, 3, 50, 0
5, 29780, Note_on_c, 3, 55, 115
5, 30256, Note_on_c, 3, 55, 0
5, 30260, Note_on_c, 3, 43, 111
5, 30736, Note_on_c, 3, 43, 0
5, 30740, Note_on_c, 3, 45, 106
5, 31696, Note_on_c, 3, 45, 0
5, 31700, Note_on_c, 3, 38, 115
5, 32176, Note_on_c, 3, 38, 0
5, 32660, Note_on_c, 3, 62, 106
5, 33136, Note_on_c, 3, 62, 0
5, 33140, Note_on_c, 3, 60, 100
5, 33616, Note_on_c, 3, 60, 0
5, 33620, Note_on_c, 3, 59, 104
5, 34096, Note_on_c, 3, 59, 0
5, 34100, Note_on_c, 3, 55, 102
5, 34576, Note_on_c, 3, 55, 0
5, 34580, Note_on_c, 3, 60, 106
5, 34816, Note_on_c, 3, 60, 0
5, 34820, Note_on_c, 3, 59, 104
5, 35056, Note_on_c, 3, 59, 0
5, 35060, Note_on_c, 3, 60, 107
5, 35296, Note_on_c, 3, 60, 0
5, 35300, Note_on_c, 3, 57, 101
5, 35536, Note_on_c, 3, 57, 0
5, 35540, Note_on_c, 3, 59, 113
5, 36256, Note_on_c, 3, 59, 0
5, 36260, Note_on_c, 3, 57, 109
5, 36496, Note_on_c, 3, 57, 0
5, 36500, Note_on_c, 3, 55, 107
5, 36736, Note_on_c, 3, 55, 0
5, 36740, Note_on_c, 3, 64, 98
5, 36976, Note_on_c, 3, 64, 0
5, 36980, Note_on_c, 3, 55, 97
5, 37216, Note_on_c, 3, 55, 0
5, 37220, Note_on_c, 3, 64, 109
5, 37456, Note_on_c, 3, 64, 0
5, 37460, Note_on_c, 3, 57, 106
5, 38176, Note_on_c, 3, 57, 0
5, 38180, Note_on_c, 3, 58, 115
5, 38416, Note_on_c, 3, 58, 0
5, 38420, Note_on_c, 3, 59, 100
5, 38896, Note_on_c, 3, 59, 0
5, 38900, Note_on_c, 3, 47, 123
5, 39376, Note_on_c, 3, 47, 0
5, 39380, Note_on_c, 3, 52, 115
5, 40096, Note_on_c, 3, 52, 0
5, 40100, Note_on_c, 3, 50, 106
5, 40336, Note_on_c, 3, 50, 0
5, 40340, Note_on_c, 3, 48, 113
5, 40816, Note_on_c, 3, 48, 0
5, 40820, Note_on_c, 3, 60, 117
5, 41296, Note_on_c, 3, 60, 0
5, 41300, Note_on_c, 3, 59, 100
5, 42016, Note_on_c, 3, 59, 0
5, 42020, Note_on_c, 3, 60, 102
5, 42136, Note_on_c, 3, 60, 0
5, 42140, Note_on_c, 3, 59, 101
5, 42256, Note_on_c, 3, 59, 0
5, 42260, Note_on_c, 3, 57, 107
5, 42976, Note_on_c, 3, 57, 0
5, 42980, Note_on_c, 3, 59, 104
5, 43096, Note_on_c, 3, 59, 0
5, 43100, Note_on_c, 3, 60, 95
5, 43216, Note_on_c, 3, 60, 0
5, 43220, Note_on_c, 3, 62, 107
5, 43936, Note_on_c, 3, 62, 0
5, 43940, Note_on_c, 3, 60, 102
5, 44056, Note_on_c, 3, 60, 0
5, 44060, Note_on_c, 3, 62, 102
5, 44176, Note_on_c, 3, 62, 0
5, 44180, Note_on_c, 3, 55, 96
5, 44416, Note_on_c, 3, 55, 0
5, 44420, Note_on_c, 3, 57, 96
5, 44656, Note_on_c, 3, 57, 0
5, 44660, Note_on_c, 3, 59, 104
5, 44896, Note_on_c, 3, 59, 0
5, 44900, Note_on_c, 3, 55, 101
5, 45136, Note_on_c, 3, 55, 0
5, 45140, Note_on_c, 3, 60, 115
5, 45856, Note_on_c, 3, 60, 0
5, 45860, Note_on_c, 3, 61, 108
5, 46096, Note_on_c, 3, 61, 0
5, 46100, Note_on_c, 3, 62, 107
5, 46576, Note_on_c, 3, 62, 0
5, 46580, Note_on_c, 3, 50, 107
5, 47056, Note_on_c, 3, 50, 0
5, 47060, Note_on_c, 3, 55, 104
5, 47536, Note_on_c, 3, 55, 0
5, 47540, Note_on_c, 3, 43, 111
5, 47780, Note_on_c, 3, 43, 0
5, 48020, Note_on_c, 3, 62, 106
5, 48496, Note_on_c, 3, 62, 0
5, 48500, Note_on_c, 3, 60, 100
5, 48976, Note_on_c, 3, 60, 0
5, 48980, Note_on_c, 3, 59, 104
5, 49456, Note_on_c, 3, 59, 0
5, 49460, Note_on_c, 3, 55, 102
5, 49936, Note_on_c, 3, 55, 0
5, 49940, Note_on_c, 3, 60, 106
5, 50176, Note_on_c, 3, 60, 0
5, 50180, Note_on_c, 3, 59, 104
5, 50416, Note_on_c, 3, 59, 0
5, 50420, Note_on_c, 3, 60, 107
5, 50656, Note_on_c, 3, 60, 0
5, 50660, Note_on_c, 3, 57, 101
5, 50896, Note_on_c, 3, 57, 0
5, 50900, Note_on_c, 3, 59, 113
5, 51616, Note_on_c, 3, 59, 0
5, 51620, Note_on_c, 3, 57, 109
5, 51856, Note_on_c, 3, 57, 0
5, 51860, Note_on_c, 3, 55, 107
5, 52096, Note_on_c, 3, 55, 0
5, 52100, Note_on_c, 3, 64, 98
5, 52336, Note_on_c, 3, 64, 0
5, 52340, Note_on_c, 3, 55, 97
5, 52576, Note_on_c, 3, 55, 0
5, 52580, Note_on_c, 3, 64, 109
5, 52816, Note_on_c, 3, 64, 0
5, 52820, Note_on_c, 3, 57, 106
5, 53536, Note_on_c, 3, 57, 0
5, 53540, Note_on_c, 3, 58, 115
5, 53776, Note_on_c, 3, 58, 0
5, 53780, Note_on_c, 3, 59, 100
5, 54256, Note_on_c, 3, 59, 0
5, 54260, Note_on_c, 3, 47, 123
5, 54736, Note_on_c, 3, 47, 0
5, 54740, Note_on_c, 3, 52, 115
5, 55456, Note_on_c, 3, 52, 0
5, 55460, Note_on_c, 3, 50, 106
5, 55696, Note_on_c, 3, 50, 0
5, 55700, Note_on_c, 3, 48, 113
5, 56176, Note_on_c, 3, 48, 0
5, 56180, Note_on_c, 3, 60, 117
5, 56656, Note_on_c, 3, 60, 0
5, 56660, Note_on_c, 3, 59, 100
5, 57376, Note_on_c, 3, 59, 0
5, 57380, Note_on_c, 3, 60, 102
5, 57496, Note_on_c, 3, 60, 0
5, 57500, Note_on_c, 3, 59, 101
5, 57616, Note_on_c, 3, 59, 0
5, 57620, Note_on_c, 3, 57, 107
5, 58336, Note_on_c, 3, 57, 0
5, 58340, Note_on_c, 3, 59, 104
5, 58456, Note_on_c, 3, 59, 0
5, 58460, Note_on_c, 3, 60, 95
5, 58576, Note_on_c, 3, 60, 0
5, 58580, Note_on_c, 3, 62, 107
5, 59296, Note_on_c, 3, 62, 0
5, 59300, Note_on_c, 3, 60, 102
5, 59416, Note_on_c, 3, 60, 0
5, 59420, Note_on_c, 3, 62, 102
5, 59536, Note_on_c, 3, 62, 0
5, 59540, Note_on_c, 3, 55, 96
5, 59776, Note_on_c, 3, 55, 0
5, 59780, Note_on_c, 3, 57, 96
5, 60016, Note_on_c, 3, 57, 0
5, 60020, Note_on_c, 3, 59, 104
5, 60256, Note_on_c, 3, 59, 0
5, 60260, Note_on_c, 3, 55, 101
5, 60496, Note_on_c, 3, 55, 0
5, 60500, Note_on_c, 3, 60, 115
5, 61216, Note_on_c, 3, 60, 0
5, 61220, Note_on_c, 3, 61, 108
5, 61456, Note_on_c, 3, 61, 0
5, 61460, Note_on_c, 3, 62, 107
5, 61936, Note_on_c, 3, 62, 0
5, 61940, Note_on_c, 3, 50, 107
5, 62416, Note_on_c, 3, 50, 0
5, 62420, Note_on_c, 3, 55, 104
5, 62896, Note_on_c, 3, 55, 0
5, 62900, Note_on_c, 3, 43, 111
5, 63860, Note_on_c, 3, 43, 0
5, 64800, End_track
0, 0, End_of_file
