0, 0, Header, 1, 4, 480
1, 0, Start_track
1, 0, SMPTE_offset, 96, 0, 0, 0, 0
1, 0, Tempo, 666666
1, 0, Time_signature, 3, 2, 24, 8
1, 47520, End_track
2, 0, Start_track
2, 0, Title_t, "goldberg.mid"
2, 744, Note_on_c, 0, 81, 115
2, 1580, Note_on_c, 0, 83, 102
2, 1584, Note_on_c, 0, 81, 0
2, 1700, Note_on_c, 0, 84, 93
2, 1712, Note_on_c, 0, 83, 0
2, 1820, Note_on_c, 0, 81, 93
2, 1836, Note_on_c, 0, 84, 0
2, 1944, Note_on_c, 0, 83, 92
2, 1948, Note_on_c, 0, 81, 0
2, 2052, Note_on_c, 0, 84, 84
2, 2068, Note_on_c, 0, 83, 0
2, 2184, Note_on_c, 0, 83, 101
2, 2212, Note_on_c, 0, 84, 0
2, 2304, Note_on_c, 0, 81, 92
2, 2324, Note_on_c, 0, 83, 0
2, 2420, Note_on_c, 0, 81, 0
2, 2424, Note_on_c, 0, 79, 76
2, 2528, Note_on_c, 0, 79, 0
2, 2532, Note_on_c, 0, 78, 101
2, 2660, Note_on_c, 0, 78, 0
2, 2660, Note_on_c, 0, 76, 88
2, 2780, Note_on_c, 0, 75, 85
2, 2792, Note_on_c, 0, 76, 0
2, 2904, Note_on_c, 0, 76, 89
2, 2908, Note_on_c, 0, 75, 0
2, 3144, Note_on_c, 0, 78, 86
2, 3164, Note_on_c, 0, 76, 0
2, 3368, Note_on_c, 0, 78, 0
2, 3368, Note_on_c, 0, 79, 91
2, 3868, Note_on_c, 0, 78, 93
2, 3892, Note_on_c, 0, 79, 0
2, 4100, Note_on_c, 0, 78, 0
2, 4100, Note_on_c, 0, 76, 98
2, 4340, Note_on_c, 0, 75, 99
2, 4348, Note_on_c, 0, 76, 0
2, 5316, Note_on_c, 0, 75, 0
2, 6504, Note_on_c, 0, 69, 106
2, 7460, Note_on_c, 0, 69, 0
2, 7460, Note_on_c, 0, 71, 92
2, 7580, Note_on_c, 0, 71, 0
2, 7580, Note_on_c, 0, 69, 83
2, 7700, Note_on_c, 0, 69, 0
2, 7700, Note_on_c, 0, 67, 85
2, 7820, Note_on_c, 0, 67, 0
2, 7820, Note_on_c, 0, 66, 81
2, 7940, Note_on_c, 0, 66, 0
2, 7940, Note_on_c, 0, 67, 81
2, 8060, Note_on_c, 0, 67, 0
2, 8060, Note_on_c, 0, 69, 80
2, 8180, Note_on_c, 0, 69, 0
2, 8180, Note_on_c, 0, 71, 90
2, 8300, Note_on_c, 0, 71, 0
2, 8300, Note_on_c, 0, 67, 81
2, 8420, Note_on_c, 0, 67, 0
2, 8420, Note_on_c, 0, 69, 86
2, 8540, Note_on_c, 0, 69, 0
2, 8540, Note_on_c, 0, 71, 92
2, 8660, Note_on_c, 0, 71, 0
2, 8668, Note_on_c, 0, 64, 92
2, 8900, Note_on_c, 0, 66, 92
2, 8904, Note_on_c, 0, 64, 0
2, 9012, Note_on_c, 0, 66, 0
2, 9020, Note_on_c, 0, 67, 80
2, 9140, Note_on_c, 0, 67, 0
2, 9148, Note_on_c, 0, 69, 78
2, 9260, Note_on_c, 0, 71, 82
2, 9272, Note_on_c, 0, 69, 0
2, 9380, Note_on_c, 0, 71, 0
2, 9388, Note_on_c, 0, 72, 98
2, 9620, Note_on_c, 0, 72, 0
2, 9632, Note_on_c, 0, 64, 100
2, 9860, Note_on_c, 0, 63, 97
2, 9876, Note_on_c, 0, 64, 0
2, 10100, Note_on_c, 0, 63, 0
2, 10100, Note_on_c, 0, 64, 98
2, 10820, Note_on_c, 0, 64, 0
2, 11548, Note_on_c, 0, 76, 104
2, 12368, Note_on_c, 0, 78, 82
2, 12372, Note_on_c, 0, 76, 0
2, 12488, Note_on_c, 0, 79, 88
2, 12504, Note_on_c, 0, 78, 0
2, 12608, Note_on_c, 0, 79, 0
2, 12612, Note_on_c, 0, 76, 77
2, 12732, Note_on_c, 0, 78, 77
2, 12752, Note_on_c, 0, 76, 0
2, 12852, Note_on_c, 0, 79, 89
2, 12868, Note_on_c, 0, 78, 0
2, 12972, Note_on_c, 0, 79, 0
2, 12980, Note_on_c, 0, 72, 84
2, 13100, Note_on_c, 0, 74, 85
2, 13108, Note_on_c, 0, 72, 0
2, 13220, Note_on_c, 0, 76, 81
2, 13232, Note_on_c, 0, 74, 0
2, 13332, Note_on_c, 0, 72, 82
2, 13344, Note_on_c, 0, 76, 0
2, 13452, Note_on_c, 0, 74, 78
2, 13460, Note_on_c, 0, 72, 0
2, 13580, Note_on_c, 0, 76, 77
2, 13604, Note_on_c, 0, 74, 0
2, 13688, Note_on_c, 0, 76, 0
2, 13700, Note_on_c, 0, 69, 81
2, 13820, Note_on_c, 0, 71, 77
2, 13832, Note_on_c, 0, 69, 0
2, 13940, Note_on_c, 0, 72, 80
2, 13964, Note_on_c, 0, 71, 0
2, 14052, Note_on_c, 0, 72, 0
2, 14060, Note_on_c, 0, 69, 64
2, 14180, Note_on_c, 0, 71, 76
2, 14204, Note_on_c, 0, 69, 0
2, 14304, Note_on_c, 0, 72, 78
2, 14324, Note_on_c, 0, 71, 0
2, 14432, Note_on_c, 0, 71, 74
2, 14456, Note_on_c, 0, 72, 0
2, 14540, Note_on_c, 0, 72, 69
2, 14552, Note_on_c, 0, 71, 0
2, 14660, Note_on_c, 0, 72, 0
2, 14660, Note_on_c, 0, 74, 71
2, 14780, Note_on_c, 0, 71, 68
2, 14784, Note_on_c, 0, 74, 0
2, 14888, Note_on_c, 0, 72, 83
2, 14900, Note_on_c, 0, 71, 0
2, 15004, Note_on_c, 0, 74, 70
2, 15020, Note_on_c, 0, 72, 0
2, 15124, Note_on_c, 0, 74, 0
2, 15132, Note_on_c, 0, 67, 85
2, 16100, Note_on_c, 0, 67, 0
2, 16100, Note_on_c, 0, 79, 117
2, 16820, Note_on_c, 0, 78, 96
2, 16828, Note_on_c, 0, 79, 0
2, 17060, Note_on_c, 0, 81, 104
2, 17068, Note_on_c, 0, 78, 0
2, 17552, Note_on_c, 0, 81, 0
2, 17556, Note_on_c, 0, 79, 83
2, 17780, Note_on_c, 0, 77, 104
2, 17792, Note_on_c, 0, 79, 0
2, 18020, Note_on_c, 0, 77, 0
2, 18020, Note_on_c, 0, 76, 83
2, 18140, Note_on_c, 0, 76, 0
2, 18140, Note_on_c, 0, 74, 75
2, 18260, Note_on_c, 0, 74, 0
2, 18260, Note_on_c, 0, 72, 85
2, 18380, Note_on_c, 0, 72, 0
2, 18380, Note_on_c, 0, 76, 83
2, 18500, Note_on_c, 0, 76, 0
2, 18500, Note_on_c, 0, 74, 75
2, 18620, Note_on_c, 0, 74, 0
2, 18620, Note_on_c, 0, 72, 78
2, 18740, Note_on_c, 0, 72, 0
2, 18740, Note_on_c, 0, 71, 97
2, 19220, Note_on_c, 0, 71, 0
2, 19220, Note_on_c, 0, 83, 115
2, 19460, Note_on_c, 0, 83, 0
2, 19460, Note_on_c, 0, 81, 102
2, 19940, Note_on_c, 0, 81, 0
2, 19940, Note_on_c, 0, 84, 102
2, 20180, Note_on_c, 0, 84, 0
2, 20180, Note_on_c, 0, 83, 104
2, 20648, Note_on_c, 0, 83, 0
2, 20668, Note_on_c, 0, 86, 100
2, 20892, Note_on_c, 0, 79, 91
2, 20900, Note_on_c, 0, 86, 0
2, 21132, Note_on_c, 0, 79, 0
2, 21132, Note_on_c, 0, 81, 95
2, 21372, Note_on_c, 0, 78, 84
2, 21388, Note_on_c, 0, 81, 0
2, 21620, Note_on_c, 0, 79, 90
2, 21632, Note_on_c, 0, 78, 0
2, 23060, Note_on_c, 0, 79, 0
2, 23784, Note_on_c, 0, 81, 115
2, 24620, Note_on_c, 0, 83, 102
2, 24624, Note_on_c, 0, 81, 0
2, 24740, Note_on_c, 0, 84, 93
2, 24752, Note_on_c, 0, 83, 0
2, 24860, Note_on_c, 0, 81, 93
2, 24876, Note_on_c, 0, 84, 0
2, 24984, Note_on_c, 0, 83, 92
2, 24988, Note_on_c, 0, 81, 0
2, 25092, Note_on_c, 0, 84, 84
2, 25108, Note_on_c, 0, 83, 0
2, 25224, Note_on_c, 0, 83, 101
2, 25252, Note_on_c, 0, 84, 0
2, 25344, Note_on_c, 0, 81, 92
2, 25364, Note_on_c, 0, 83, 0
2, 25460, Note_on_c, 0, 81, 0
2, 25464, Note_on_c, 0, 79, 76
2, 25568, Note_on_c, 0, 79, 0
2, 25572, Note_on_c, 0, 78, 101
2, 25700, Note_on_c, 0, 78, 0
2, 25700, Note_on_c, 0, 76, 88
2, 25820, Note_on_c, 0, 75, 85
2, 25832, Note_on_c, 0, 76, 0
2, 25944, Note_on_c, 0, 76, 89
2, 25948, Note_on_c, 0, 75, 0
2, 26184, Note_on_c, 0, 78, 86
2, 26204, Note_on_c, 0, 76, 0
2, 26408, Note_on_c, 0, 78, 0
2, 26408, Note_on_c, 0, 79, 91
2, 26908, Note_on_c, 0, 78, 93
2, 26932, Note_on_c, 0, 79, 0
2, 27140, Note_on_c, 0, 78, 0
2, 27140, Note_on_c, 0, 76, 98
2, 27380, Note_on_c, 0, 75, 99
2, 27388, Note_on_c, 0, 76, 0
2, 28356, Note_on_c, 0, 75, 0
2, 29544, Note_on_c, 0, 69, 106
2, 30500, Note_on_c, 0, 69, 0
2, 30500, Note_on_c, 0, 71, 92
2, 30620, Note_on_c, 0, 71, 0
2, 30620, Note_on_c, 0, 69, 83
2, 30740, Note_on_c, 0, 69, 0
2, 30740, Note_on_c, 0, 67, 85
2, 30860, Note_on_c, 0, 67, 0
2, 30860, Note_on_c, 0, 66, 81
2, 30980, Note_on_c, 0, 66, 0
2, 30980, Note_on_c, 0, 67, 81
2, 31100, Note_on_c, 0, 67, 0
2, 31100, Note_on_c, 0, 69, 80
2, 31220, Note_on_c, 0, 69, 0
2, 31220, Note_on_c, 0, 71, 90
2, 31340, Note_on_c, 0, 71, 0
2, 31340, Note_on_c, 0, 67, 81
2, 31460, Note_on_c, 0, 67, 0
2, 31460, Note_on_c, 0, 69, 86
2, 31580, Note_on_c, 0, 69, 0
2, 31580, Note_on_c, 0, 71, 92
2, 31700, Note_on_c, 0, 71, 0
2, 31708, Note_on_c, 0, 64, 92
2, 31940, Note_on_c, 0, 66, 92
2, 31944, Note_on_c, 0, 64, 0
2, 32052, Note_on_c, 0, 66, 0
2, 32060, Note_on_c, 0, 67, 80
2, 32180, Note_on_c, 0, 67, 0
2, 32188, Note_on_c, 0, 69, 78
2, 32300, Note_on_c, 0, 71, 82
2, 32312, Note_on_c, 0, 69, 0
2, 32420, Note_on_c, 0, 71, 0
2, 32428, Note_on_c, 0, 72, 98
2, 32660, Note_on_c, 0, 72, 0
2, 32672, Note_on_c, 0, 64, 100
2, 32900, Note_on_c, 0, 63, 97
2, 32916, Note_on_c, 0, 64, 0
2, 33140, Note_on_c, 0, 63, 0
2, 33140, Note_on_c, 0, 64, 98
2, 33860, Note_on_c, 0, 64, 0
2, 34588, Note_on_c, 0, 76, 104
2, 35408, Note_on_c, 0, 78, 82
2, 35412, Note_on_c, 0, 76, 0
2, 35528, Note_on_c, 0, 79, 88
2, 35544, Note_on_c, 0, 78, 0
2, 35648, Note_on_c, 0, 79, 0
2, 35652, Note_on_c, 0, 76, 77
2, 35772, Note_on_c, 0, 78, 77
2, 35792, Note_on_c, 0, 76, 0
2, 35892, Note_on_c, 0, 79, 89
2, 35908, Note_on_c, 0, 78, 0
2, 36012, Note_on_c, 0, 79, 0
2, 36020, Note_on_c, 0, 72, 84
2, 36140, Note_on_c, 0, 74, 85
2, 36148, Note_on_c, 0, 72, 0
2, 36260, Note_on_c, 0, 76, 81
2, 36272, Note_on_c, 0, 74, 0
2, 36372, Note_on_c, 0, 72, 82
2, 36384, Note_on_c, 0, 76, 0
2, 36492, Note_on_c, 0, 74, 78
2, 36500, Note_on_c, 0, 72, 0
2, 36620, Note_on_c, 0, 76, 77
2, 36644, Note_on_c, 0, 74, 0
2, 36728, Note_on_c, 0, 76, 0
2, 36740, Note_on_c, 0, 69, 81
2, 36860, Note_on_c, 0, 71, 77
2, 36872, Note_on_c, 0, 69, 0
2, 36980, Note_on_c, 0, 72, 80
2, 37004, Note_on_c, 0, 71, 0
2, 37092, Note_on_c, 0, 72, 0
2, 37100, Note_on_c, 0, 69, 64
2, 37220, Note_on_c, 0, 71, 76
2, 37244, Note_on_c, 0, 69, 0
2, 37344, Note_on_c, 0, 72, 78
2, 37364, Note_on_c, 0, 71, 0
2, 37472, Note_on_c, 0, 71, 74
2, 37496, Note_on_c, 0, 72, 0
2, 37580, Note_on_c, 0, 72, 69
2, 37592, Note_on_c, 0, 71, 0
2, 37700, Note_on_c, 0, 72, 0
2, 37700, Note_on_c, 0, 74, 71
2, 37820, Note_on_c, 0, 71, 68
2, 37824, Note_on_c, 0, 74, 0
2, 37928, Note_on_c, 0, 72, 83
2, 37940, Note_on_c, 0, 71, 0
2, 38044, Note_on_c, 0, 74, 70
2, 38060, Note_on_c, 0, 72, 0
2, 38164, Note_on_c, 0, 74, 0
2, 38172, Note_on_c, 0, 67, 85
2, 39140, Note_on_c, 0, 67, 0
2, 39140, Note_on_c, 0, 79, 117
2, 39860, Note_on_c, 0, 78, 96
2, 39868, Note_on_c, 0, 79, 0
2, 40100, Note_on_c, 0, 81, 104
2, 40108, Note_on_c, 0, 78, 0
2, 40592, Note_on_c, 0, 81, 0
2, 40596, Note_on_c, 0, 79, 83
2, 40820, Note_on_c, 0, 77, 104
2, 40832, Note_on_c, 0, 79, 0
2, 41060, Note_on_c, 0, 77, 0
2, 41060, Note_on_c, 0, 76, 83
2, 41180, Note_on_c, 0, 76, 0
2, 41180, Note_on_c, 0, 74, 75
2, 41300, Note_on_c, 0, 74, 0
2, 41300, Note_on_c, 0, 72, 85
2, 41420, Note_on_c, 0, 72, 0
2, 41420, Note_on_c, 0, 76, 83
2, 41540, Note_on_c, 0, 76, 0
2, 41540, Note_on_c, 0, 74, 75
2, 41660, Note_on_c, 0, 74, 0
2, 41660, Note_on_c, 0, 72, 78
2, 41780, Note_on_c, 0, 72, 0
2, 41780, Note_on_c, 0, 71, 97
2, 42260, Note_on_c, 0, 71, 0
2, 42260, Note_on_c, 0, 83, 115
2, 42500, Note_on_c, 0, 83, 0
2, 42500, Note_on_c, 0, 81, 102
2, 42980, Note_on_c, 0, 81, 0
2, 42980, Note_on_c, 0, 84, 102
2, 43220, Note_on_c, 0, 84, 0
2, 43220, Note_on_c, 0, 83, 104
2, 43688, Note_on_c, 0, 83, 0
2, 43708, Note_on_c, 0, 86, 100
2, 43932, Note_on_c, 0, 79, 91
2, 43940, Note_on_c, 0, 86, 0
2, 44172, Note_on_c, 0, 79, 0
2, 44172, Note_on_c, 0, 81, 95
2, 44412, Note_on_c, 0, 78, 84
2, 44428, Note_on_c, 0, 81, 0
2, 44660, Note_on_c, 0, 79, 90
2, 44672, Note_on_c, 0, 78, 0
2, 46100, Note_on_c, 0, 79, 0
2, 47520, End_track
3, 0, Start_track
3, 0, Title_t, "goldberg.mid"
3, 3620, Note_on_c, 1, 81, 115
3, 4456, Note_on_c, 1, 81, 0
3, 4460, Note_on_c, 1, 83, 101
3, 4576, Note_on_c, 1, 83, 0
3, 4580, Note_on_c, 1, 84, 96
3, 4696, Note_on_c, 1, 84, 0
3, 4700, Note_on_c, 1, 81, 102
3, 4816, Note_on_c, 1, 81, 0
3, 4820, Note_on_c, 1, 83, 97
3, 4936, Note_on_c, 1, 83, 0
3, 4940, Note_on_c, 1, 84, 109
3, 5056, Note_on_c, 1, 84, 0
3, 5060, Note_on_c, 1, 83, 96
3, 5176, Note_on_c, 1, 83, 0
3, 5180, Note_on_c, 1, 81, 107
3, 5296, Note_on_c, 1, 81, 0
3, 5300, Note_on_c, 1, 79, 96
3, 5416, Note_on_c, 1, 79, 0
3, 5420, Note_on_c, 1, 78, 96
3, 5536, Note_on_c, 1, 78, 0
3, 5540, Note_on_c, 1, 76, 78
3, 5656, Note_on_c, 1, 76, 0
3, 5660, Note_on_c, 1, 75, 84
3, 5776, Note_on_c, 1, 75, 0
3, 5780, Note_on_c, 1, 76, 84
3, 6016, Note_on_c, 1, 76, 0
3, 6020, Note_on_c, 1, 78, 102
3, 6256, Note_on_c, 1, 78, 0
3, 6260, Note_on_c, 1, 79, 104
3, 6736, Note_on_c, 1, 79, 0
3, 6740, Note_on_c, 1, 78, 112
3, 6976, Note_on_c, 1, 78, 0
3, 6980, Note_on_c, 1, 76, 102
3, 7216, Note_on_c, 1, 76, 0
3, 7220, Note_on_c, 1, 75, 112
3, 8296, Note_on_c, 1, 75, 0
3, 9380, Note_on_c, 1, 69, 109
3, 10100, Note_on_c, 1, 69, 0
3, 10340, Note_on_c, 1, 71, 101
3, 10456, Note_on_c, 1, 71, 0
3, 10460, Note_on_c, 1, 69, 97
3, 10576, Note_on_c, 1, 69, 0
3, 10580, Note_on_c, 1, 67, 86
3, 10696, Note_on_c, 1, 67, 0
3, 10700, Note_on_c, 1, 66, 82
3, 10820, Note_on_c, 1, 66, 0
3, 10820, Note_on_c, 1, 67, 81
3, 10936, Note_on_c, 1, 67, 0
3, 10940, Note_on_c, 1, 69, 96
3, 11056, Note_on_c, 1, 69, 0
3, 11060, Note_on_c, 1, 71, 100
3, 11176, Note_on_c, 1, 71, 0
3, 11180, Note_on_c, 1, 67, 90
3, 11296, Note_on_c, 1, 67, 0
3, 11300, Note_on_c, 1, 69, 85
3, 11416, Note_on_c, 1, 69, 0
3, 11420, Note_on_c, 1, 71, 96
3, 11540, Note_on_c, 1, 71, 0
3, 11540, Note_on_c, 1, 64, 96
3, 11780, Note_on_c, 1, 64, 0
3, 11780, Note_on_c, 1, 66, 77
3, 11896, Note_on_c, 1, 66, 0
3, 11900, Note_on_c, 1, 67, 86
3, 12016, Note_on_c, 1, 67, 0
3, 12020, Note_on_c, 1, 69, 88
3, 12136, Note_on_c, 1, 69, 0
3, 12140, Note_on_c, 1, 71, 90
3, 12256, Note_on_c, 1, 71, 0
3, 12260, Note_on_c, 1, 72, 111
3, 12496, Note_on_c, 1, 72, 0
3, 12500, Note_on_c, 1, 64, 91
3, 12736, Note_on_c, 1, 64, 0
3, 12740, Note_on_c, 1, 63, 115
3, 12976, Note_on_c, 1, 63, 0
3, 12980, Note_on_c, 1, 64, 111
3, 13700, Note_on_c, 1, 64, 0
3, 14420, Note_on_c, 1, 76, 117
3, 15256, Note_on_c, 1, 76, 0
3, 15260, Note_on_c, 1, 78, 112
3, 15376, Note_on_c, 1, 78, 0
3, 15380, Note_on_c, 1, 79, 100
3, 15496, Note_on_c, 1, 79, 0
3, 15500, Note_on_c, 1, 76, 85
3, 15616, Note_on_c, 1, 76, 0
3, 15620, Note_on_c, 1, 78, 101
3, 15736, Note_on_c, 1, 78, 0
3, 15740, Note_on_c, 1, 79, 93
3, 15856, Note_on_c, 1, 79, 0
3, 15860, Note_on_c, 1, 72, 101
3, 15980, Note_on_c, 1, 74, 86
3, 16096, Note_on_c, 1, 72, 0
3, 16096, Note_on_c, 1, 74, 0
3, 16100, Note_on_c, 1, 76, 96
3, 16216, Note_on_c, 1, 76, 0
3, 16220, Note_on_c, 1, 72, 96
3, 16336, Note_on_c, 1, 72, 0
3, 16340, Note_on_c, 1, 74, 89
3, 16456, Note_on_c, 1, 74, 0
3, 16460, Note_on_c, 1, 76, 95
3, 16576, Note_on_c, 1, 76, 0
3, 16580, Note_on_c, 1, 69, 82
3, 16696, Note_on_c, 1, 69, 0
3, 16700, Note_on_c, 1, 71, 95
3, 16816, Note_on_c, 1, 71, 0
3, 16820, Note_on_c, 1, 72, 95
3, 16936, Note_on_c, 1, 72, 0
3, 16940, Note_on_c, 1, 69, 91
3, 17056, Note_on_c, 1, 69, 0
3, 17060, Note_on_c, 1, 71, 89
3, 17176, Note_on_c, 1, 71, 0
3, 17180, Note_on_c, 1, 72, 96
3, 17296, Note_on_c, 1, 72, 0
3, 17300, Note_on_c, 1, 71, 85
3, 17416, Note_on_c, 1, 71, 0
3, 17420, Note_on_c, 1, 72, 90
3, 17536, Note_on_c, 1, 72, 0
3, 17540, Note_on_c, 1, 74, 85
3, 17656, Note_on_c, 1, 74, 0
3, 17660, Note_on_c, 1, 71, 96
3, 17776, Note_on_c, 1, 71, 0
3, 17780, Note_on_c, 1, 72, 95
3, 17896, Note_on_c, 1, 72, 0
3, 17900, Note_on_c, 1, 74, 89
3, 18016, Note_on_c, 1, 74, 0
3, 18020, Note_on_c, 1, 67, 113
3, 18856, Note_on_c, 1, 67, 0
3, 18980, Note_on_c, 1, 79, 88
3, 19696, Note_on_c, 1, 79, 0
3, 19700, Note_on_c, 1, 78, 96
3, 19936, Note_on_c, 1, 78, 0
3, 19940, Note_on_c, 1, 81, 113
3, 20416, Note_on_c, 1, 81, 0
3, 20420, Note_on_c, 1, 79, 104
3, 20656, Note_on_c, 1, 79, 0
3, 20660, Note_on_c, 1, 77, 113
3, 20896, Note_on_c, 1, 77, 0
3, 20900, Note_on_c, 1, 76, 97
3, 21016, Note_on_c, 1, 76, 0
3, 21020, Note_on_c, 1, 74, 89
3, 21136, Note_on_c, 1, 74, 0
3, 21140, Note_on_c, 1, 72, 104
3, 21256, Note_on_c, 1, 72, 0
3, 21260, Note_on_c, 1, 76, 82
3, 21376, Note_on_c, 1, 76, 0
3, 21380, Note_on_c, 1, 74, 97
3, 21496, Note_on_c, 1, 74, 0
3, 21500, Note_on_c, 1, 72, 97
3, 21616, Note_on_c, 1, 72, 0
3, 21620, Note_on_c, 1, 71, 121
3, 23060, Note_on_c, 1, 71, 0
3, 26660, Note_on_c, 1, 81, 115
3, 27496, Note_on_c, 1, 81, 0
3, 27500, Note_on_c, 1, 83, 101
3, 27616, Note_on_c, 1, 83, 0
3, 27620, Note_on_c, 1, 84, 96
3, 27736, Note_on_c, 1, 84, 0
3, 27740, Note_on_c, 1, 81, 102
3, 27856, Note_on_c, 1, 81, 0
3, 27860, Note_on_c, 1, 83, 97
3, 27976, Note_on_c, 1, 83, 0
3, 27980, Note_on_c, 1, 84, 109
3, 28096, Note_on_c, 1, 84, 0
3, 28100, Note_on_c, 1, 83, 96
3, 28216, Note_on_c, 1, 83, 0
3, 28220, Note_on_c, 1, 81, 107
3, 28336, Note_on_c, 1, 81, 0
3, 28340, Note_on_c, 1, 79, 96
3, 28456, Note_on_c, 1, 79, 0
3, 28460, Note_on_c, 1, 78, 96
3, 28576, Note_on_c, 1, 78, 0
3, 28580, Note_on_c, 1, 76, 78
3, 28696, Note_on_c, 1, 76, 0
3, 28700, Note_on_c, 1, 75, 84
3, 28816, Note_on_c, 1, 75, 0
3, 28820, Note_on_c, 1, 76, 84
3, 29056, Note_on_c, 1, 76, 0
3, 29060, Note_on_c, 1, 78, 102
3, 29296, Note_on_c, 1, 78, 0
3, 29300, Note_on_c, 1, 79, 104
3, 29776, Note_on_c, 1, 79, 0
3, 29780, Note_on_c, 1, 78, 112
3, 30016, Note_on_c, 1, 78, 0
3, 30020, Note_on_c, 1, 76, 102
3, 30256, Note_on_c, 1, 76, 0
3, 30260, Note_on_c, 1, 75, 112
3, 31336, Note_on_c, 1, 75, 0
3, 32420, Note_on_c, 1, 69, 109
3, 33140, Note_on_c, 1, 69, 0
3, 33380, Note_on_c, 1, 71, 101
3, 33496, Note_on_c, 1, 71, 0
3, 33500, Note_on_c, 1, 69, 97
3, 33616, Note_on_c, 1, 69, 0
3, 33620, Note_on_c, 1, 67, 86
3, 33736, Note_on_c, 1, 67, 0
3, 33740, Note_on_c, 1, 66, 82
3, 33860, Note_on_c, 1, 66, 0
3, 33860, Note_on_c, 1, 67, 81
3, 33976, Note_on_c, 1, 67, 0
3, 33980, Note_on_c, 1, 69, 96
3, 34096, Note_on_c, 1, 69, 0
3, 34100, Note_on_c, 1, 71, 100
3, 34216, Note_on_c, 1, 71, 0
3, 34220, Note_on_c, 1, 67, 90
3, 34336, Note_on_c, 1, 67, 0
3, 34340, Note_on_c, 1, 69, 85
3, 34456, Note_on_c, 1, 69, 0
3, 34460, Note_on_c, 1, 71, 96
3, 34580, Note_on_c, 1, 71, 0
3, 34580, Note_on_c, 1, 64, 96
3, 34820, Note_on_c, 1, 64, 0
3, 34820, Note_on_c, 1, 66, 77
3, 34936, Note_on_c, 1, 66, 0
3, 34940, Note_on_c, 1, 67, 86
3, 35056, Note_on_c, 1, 67, 0
3, 35060, Note_on_c, 1, 69, 88
3, 35176, Note_on_c, 1, 69, 0
3, 35180, Note_on_c, 1, 71, 90
3, 35296, Note_on_c, 1, 71, 0
3, 35300, Note_on_c, 1, 72, 111
3, 35536, Note_on_c, 1, 72, 0
3, 35540, Note_on_c, 1, 64, 91
3, 35776, Note_on_c, 1, 64, 0
3, 35780, Note_on_c, 1, 63, 115
3, 36016, Note_on_c, 1, 63, 0
3, 36020, Note_on_c, 1, 64, 111
3, 36740, Note_on_c, 1, 64, 0
3, 37460, Note_on_c, 1, 76, 117
3, 38296, Note_on_c, 1, 76, 0
3, 38300, Note_on_c, 1, 78, 112
3, 38416, Note_on_c, 1, 78, 0
3, 38420, Note_on_c, 1, 79, 100
3, 38536, Note_on_c, 1, 79, 0
3, 38540, Note_on_c, 1, 76, 85
3, 38656, Note_on_c, 1, 76, 0
3, 38660, Note_on_c, 1, 78, 101
3, 38776, Note_on_c, 1, 78, 0
3, 38780, Note_on_c, 1, 79, 93
3, 38896, Note_on_c, 1, 79, 0
3, 38900, Note_on_c, 1, 72, 101
3, 39020, Note_on_c, 1, 74, 86
3, 39136, Note_on_c, 1, 72, 0
3, 39136, Note_on_c, 1, 74, 0
3, 39140, Note_on_c, 1, 76, 96
3, 39256, Note_on_c, 1, 76, 0
3, 39260, Note_on_c, 1, 72, 96
3, 39376, Note_on_c, 1, 72, 0
3, 39380, Note_on_c, 1, 74, 89
3, 39496, Note_on_c, 1, 74, 0
3, 39500, Note_on_c, 1, 76, 95
3, 39616, Note_on_c, 1, 76, 0
3, 39620, Note_on_c, 1, 69, 82
3, 39736, Note_on_c, 1, 69, 0
3, 39740, Note_on_c, 1, 71, 95
3, 39856, Note_on_c, 1, 71, 0
3, 39860, Note_on_c, 1, 72, 95
3, 39976, Note_on_c, 1, 72, 0
3, 39980, Note_on_c, 1, 69, 91
3, 40096, Note_on_c, 1, 69, 0
3, 40100, Note_on_c, 1, 71, 89
3, 40216, Note_on_c, 1, 71, 0
3, 40220, Note_on_c, 1, 72, 96
3, 40336, Note_on_c, 1, 72, 0
3, 40340, Note_on_c, 1, 71, 85
3, 40456, Note_on_c, 1, 71, 0
3, 40460, Note_on_c, 1, 72, 90
3, 40576, Note_on_c, 1, 72, 0
3, 40580, Note_on_c, 1, 74, 85
3, 40696, Note_on_c, 1, 74, 0
3, 40700, Note_on_c, 1, 71, 96
3, 40816, Note_on_c, 1, 71, 0
3, 40820, Note_on_c, 1, 72, 95
3, 40936, Note_on_c, 1, 72, 0
3, 40940, Note_on_c, 1, 74, 89
3, 41056, Note_on_c, 1, 74, 0
3, 41060, Note_on_c, 1, 67, 113
3, 41896, Note_on_c, 1, 67, 0
3, 42020, Note_on_c, 1, 79, 88
3, 42736, Note_on_c, 1, 79, 0
3, 42740, Note_on_c, 1, 78, 96
3, 42976, Note_on_c, 1, 78, 0
3, 42980, Note_on_c, 1, 81, 113
3, 43456, Note_on_c, 1, 81, 0
3, 43460, Note_on_c, 1, 79, 104
3, 43696, Note_on_c, 1, 79, 0
3, 43700, Note_on_c, 1, 77, 113
3, 43936, Note_on_c, 1, 77, 0
3, 43940, Note_on_c, 1, 76, 97
3, 44056, Note_on_c, 1, 76, 0
3, 44060, Note_on_c, 1, 74, 89
3, 44176, Note_on_c, 1, 74, 0
3, 44180, Note_on_c, 1, 72, 104
3, 44296, Note_on_c, 1, 72, 0
3, 44300, Note_on_c, 1, 76, 82
3, 44416, Note_on_c, 1, 76, 0
3, 44420, Note_on_c, 1, 74, 97
3, 44536, Note_on_c, 1, 74, 0
3, 44540, Note_on_c, 1, 72, 97
3, 44656, Note_on_c, 1, 72, 0
3, 44660, Note_on_c, 1, 71, 121
3, 46100, Note_on_c, 1, 71, 0
3, 47520, End_track
4, 0, Start_track
4, 0, Title_t, "goldberg.mid"
4, 20, Note_on_c, 3, 50, 82
4, 256, Note_on_c, 3, 50, 0
4, 260, Note_on_c, 3, 54, 97
4, 496, Note_on_c, 3, 54, 0
4, 500, Note_on_c, 3, 57, 100
4, 736, Note_on_c, 3, 57, 0
4, 740, Note_on_c, 3, 62, 101
4, 976, Note_on_c, 3, 62, 0
4, 980, Note_on_c, 3, 60, 93
4, 1096, Note_on_c, 3, 60, 0
4, 1100, Note_on_c, 3, 59, 86
4, 1216, Note_on_c, 3, 59, 0
4, 1220, Note_on_c, 3, 57, 78
4, 1336, Note_on_c, 3, 57, 0
4, 1340, Note_on_c, 3, 55, 71
4, 1456, Note_on_c, 3, 55, 0
4, 1460, Note_on_c, 3, 54, 99
4, 1696, Note_on_c, 3, 54, 0
4, 1700, Note_on_c, 3, 57, 92
4, 1936, Note_on_c, 3, 57, 0
4, 1940, Note_on_c, 3, 50, 78
4, 2176, Note_on_c, 3, 50, 0
4, 2180, Note_on_c, 3, 55, 93
4, 2416, Note_on_c, 3, 55, 0
4, 2420, Note_on_c, 3, 57, 89
4, 2656, Note_on_c, 3, 57, 0
4, 2660, Note_on_c, 3, 59, 85
4, 2896, Note_on_c, 3, 59, 0
4, 2900, Note_on_c, 3, 60, 97
4, 3016, Note_on_c, 3, 60, 0
4, 3020, Note_on_c, 3, 62, 92
4, 3136, Note_on_c, 3, 62, 0
4, 3140, Note_on_c, 3, 60, 84
4, 3256, Note_on_c, 3, 60, 0
4, 3260, Note_on_c, 3, 59, 90
4, 3376, Note_on_c, 3, 59, 0
4, 3380, Note_on_c, 3, 57, 69
4, 3496, Note_on_c, 3, 57, 0
4, 3500, Note_on_c, 3, 55, 65
4, 3616, Note_on_c, 3, 55, 0
4, 3620, Note_on_c, 3, 54, 90
4, 3736, Note_on_c, 3, 54, 0
4, 3740, Note_on_c, 3, 52, 85
4, 3856, Note_on_c, 3, 52, 0
4, 3860, Note_on_c, 3, 54, 84
4, 3976, Note_on_c, 3, 54, 0
4, 3980, Note_on_c, 3, 55, 75
4, 4096, Note_on_c, 3, 55, 0
4, 4100, Note_on_c, 3, 57, 66
4, 4216, Note_on_c, 3, 57, 0
4, 4220, Note_on_c, 3, 54, 85
4, 4336, Note_on_c, 3, 54, 0
4, 4340, Note_on_c, 3, 59, 92
4, 4576, Note_on_c, 3, 59, 0
4, 4580, Note_on_c, 3, 54, 90
4, 4816, Note_on_c, 3, 54, 0
4, 4820, Note_on_c, 3, 55, 89
4, 5056, Note_on_c, 3, 55, 0
4, 5060, Note_on_c, 3, 57, 89
4, 5176, Note_on_c, 3, 57, 0
4, 5180, Note_on_c, 3, 60, 98
4, 5296, Note_on_c, 3, 60, 0
4, 5300, Note_on_c, 3, 59, 82
4, 5416, Note_on_c, 3, 59, 0
4, 5420, Note_on_c, 3, 57, 78
4, 5536, Note_on_c, 3, 57, 0
4, 5540, Note_on_c, 3, 55, 59
4, 5656, Note_on_c, 3, 55, 0
4, 5660, Note_on_c, 3, 54, 85
4, 5776, Note_on_c, 3, 54, 0
4, 5780, Note_on_c, 3, 55, 86
4, 5896, Note_on_c, 3, 55, 0
4, 5900, Note_on_c, 3, 57, 89
4, 6016, Note_on_c, 3, 57, 0
4, 6020, Note_on_c, 3, 55, 82
4, 6136, Note_on_c, 3, 55, 0
4, 6140, Note_on_c, 3, 54, 88
4, 6256, Note_on_c, 3, 54, 0
4, 6260, Note_on_c, 3, 52, 77
4, 6376, Note_on_c, 3, 52, 0
4, 6380, Note_on_c, 3, 50, 73
4, 6496, Note_on_c, 3, 50, 0
4, 6500, Note_on_c, 3, 48, 93
4, 6616, Note_on_c, 3, 48, 0
4, 6620, Note_on_c, 3, 47, 84
4, 6736, Note_on_c, 3, 47, 0
4, 6740, Note_on_c, 3, 45, 68
4, 6856, Note_on_c, 3, 45, 0
4, 6860, Note_on_c, 3, 47, 81
4, 6976, Note_on_c, 3, 47, 0
4, 6980, Note_on_c, 3, 48, 85
4, 7096, Note_on_c, 3, 48, 0
4, 7100, Note_on_c, 3, 45, 53
4, 7216, Note_on_c, 3, 45, 0
4, 7220, Note_on_c, 3, 47, 89
4, 7456, Note_on_c, 3, 47, 0
4, 7460, Note_on_c, 3, 54, 99
4, 7696, Note_on_c, 3, 54, 0
4, 7700, Note_on_c, 3, 59, 101
4, 8176, Note_on_c, 3, 59, 0
4, 8180, Note_on_c, 3, 55, 84
4, 8416, Note_on_c, 3, 55, 0
4, 8420, Note_on_c, 3, 52, 91
4, 8656, Note_on_c, 3, 52, 0
4, 8660, Note_on_c, 3, 60, 95
4, 8776, Note_on_c, 3, 60, 0
4, 8780, Note_on_c, 3, 62, 86
4, 8896, Note_on_c, 3, 62, 0
4, 8900, Note_on_c, 3, 60, 83
4, 9016, Note_on_c, 3, 60, 0
4, 9020, Note_on_c, 3, 59, 86
4, 9136, Note_on_c, 3, 59, 0
4, 9140, Note_on_c, 3, 57, 68
4, 9256, Note_on_c, 3, 57, 0
4, 9260, Note_on_c, 3, 55, 59
4, 9376, Note_on_c, 3, 55, 0
4, 9380, Note_on_c, 3, 54, 72
4, 9496, Note_on_c, 3, 54, 0
4, 9500, Note_on_c, 3, 52, 61
4, 9616, Note_on_c, 3, 52, 0
4, 9620, Note_on_c, 3, 54, 82
4, 9736, Note_on_c, 3, 54, 0
4, 9740, Note_on_c, 3, 59, 93
4, 9856, Note_on_c, 3, 59, 0
4, 9860, Note_on_c, 3, 57, 86
4, 9976, Note_on_c, 3, 57, 0
4, 9980, Note_on_c, 3, 59, 97
4, 10096, Note_on_c, 3, 59, 0
4, 10100, Note_on_c, 3, 52, 86
4, 10336, Note_on_c, 3, 52, 0
4, 10340, Note_on_c, 3, 55, 97
4, 10576, Note_on_c, 3, 55, 0
4, 10580, Note_on_c, 3, 59, 107
4, 10816, Note_on_c, 3, 59, 0
4, 10820, Note_on_c, 3, 64, 123
4, 11056, Note_on_c, 3, 64, 0
4, 11060, Note_on_c, 3, 52, 62
4, 11296, Note_on_c, 3, 52, 0
4, 11300, Note_on_c, 3, 50, 80
4, 11536, Note_on_c, 3, 50, 0
4, 11540, Note_on_c, 3, 48, 83
4, 11776, Note_on_c, 3, 48, 0
4, 11780, Note_on_c, 3, 60, 71
4, 12016, Note_on_c, 3, 60, 0
4, 12020, Note_on_c, 3, 59, 71
4, 12256, Note_on_c, 3, 59, 0
4, 12260, Note_on_c, 3, 57, 83
4, 13216, Note_on_c, 3, 57, 0
4, 13220, Note_on_c, 3, 60, 90
4, 13456, Note_on_c, 3, 60, 0
4, 13460, Note_on_c, 3, 57, 92
4, 13696, Note_on_c, 3, 57, 0
4, 13700, Note_on_c, 3, 54, 90
4, 13940, Note_on_c, 3, 54, 0
4, 13940, Note_on_c, 3, 50, 88
4, 14180, Note_on_c, 3, 50, 0
4, 14180, Note_on_c, 3, 62, 100
4, 14420, Note_on_c, 3, 62, 0
4, 14420, Note_on_c, 3, 55, 82
4, 14536, Note_on_c, 3, 55, 0
4, 14540, Note_on_c, 3, 57, 86
4, 14656, Note_on_c, 3, 57, 0
4, 14660, Note_on_c, 3, 55, 82
4, 14776, Note_on_c, 3, 55, 0
4, 14780, Note_on_c, 3, 53, 88
4, 14896, Note_on_c, 3, 53, 0
4, 14900, Note_on_c, 3, 52, 81
4, 15016, Note_on_c, 3, 52, 0
4, 15020, Note_on_c, 3, 50, 81
4, 15136, Note_on_c, 3, 50, 0
4, 15140, Note_on_c, 3, 48, 80
4, 15376, Note_on_c, 3, 48, 0
4, 15380, Note_on_c, 3, 52, 61
4, 15616, Note_on_c, 3, 52, 0
4, 15620, Note_on_c, 3, 48, 83
4, 15856, Note_on_c, 3, 48, 0
4, 15860, Note_on_c, 3, 45, 83
4, 15980, Note_on_c, 3, 45, 0
4, 15980, Note_on_c, 3, 47, 92
4, 16100, Note_on_c, 3, 47, 0
4, 16100, Note_on_c, 3, 48, 88
4, 16220, Note_on_c, 3, 48, 0
4, 16220, Note_on_c, 3, 45, 86
4, 16336, Note_on_c, 3, 45, 0
4, 16340, Note_on_c, 3, 47, 90
4, 16456, Note_on_c, 3, 47, 0
4, 16460, Note_on_c, 3, 48, 89
4, 16576, Note_on_c, 3, 48, 0
4, 16580, Note_on_c, 3, 50, 106
4, 16820, Note_on_c, 3, 50, 0
4, 16820, Note_on_c, 3, 38, 97
4, 17060, Note_on_c, 3, 38, 0
4, 17060, Note_on_c, 3, 54, 112
4, 17300, Note_on_c, 3, 54, 0
4, 17300, Note_on_c, 3, 55, 76
4, 17416, Note_on_c, 3, 55, 0
4, 17420, Note_on_c, 3, 57, 89
4, 17536, Note_on_c, 3, 57, 0
4, 17540, Note_on_c, 3, 59, 96
4, 17656, Note_on_c, 3, 59, 0
4, 17660, Note_on_c, 3, 55, 59
4, 17776, Note_on_c, 3, 55, 0
4, 17780, Note_on_c, 3, 57, 62
4, 17896, Note_on_c, 3, 57, 0
4, 17900, Note_on_c, 3, 59, 88
4, 18016, Note_on_c, 3, 59, 0
4, 18020, Note_on_c, 3, 60, 14
4, 18256, Note_on_c, 3, 60, 0
4, 18260, Note_on_c, 3, 64, 98
4, 18496, Note_on_c, 3, 64, 0
4, 18500, Note_on_c, 3, 57, 89
4, 18736, Note_on_c, 3, 57, 0
4, 18740, Note_on_c, 3, 62, 75
4, 18856, Note_on_c, 3, 62, 0
4, 18860, Note_on_c, 3, 60, 96
4, 18976, Note_on_c, 3, 60, 0
4, 18980, Note_on_c, 3, 59, 90
4, 19096, Note_on_c, 3, 59, 0
4, 19100, Note_on_c, 3, 62, 89
4, 19216, Note_on_c, 3, 62, 0
4, 19220, Note_on_c, 3, 60, 78
4, 19336, Note_on_c, 3, 60, 0
4, 19340, Note_on_c, 3, 59, 83
4, 19456, Note_on_c, 3, 59, 0
4, 19460, Note_on_c, 3, 60, 81
4, 19576, Note_on_c, 3, 60, 0
4, 19580, Note_on_c, 3, 59, 83
4, 19696, Note_on_c, 3, 59, 0
4, 19700, Note_on_c, 3, 57, 77
4, 19816, Note_on_c, 3, 57, 0
4, 19820, Note_on_c, 3, 55, 73
4, 19936, Note_on_c, 3, 55, 0
4, 19940, Note_on_c, 3, 54, 82
4, 20056, Note_on_c, 3, 54, 0
4, 20060, Note_on_c, 3, 57, 84
4, 20176, Note_on_c, 3, 57, 0
4, 20180, Note_on_c, 3, 55, 82
4, 20296, Note_on_c, 3, 55, 0
4, 20300, Note_on_c, 3, 54, 88
4, 20416, Note_on_c, 3, 54, 0
4, 20420, Note_on_c, 3, 52, 68
4, 20536, Note_on_c, 3, 52, 0
4, 20540, Note_on_c, 3, 50, 68
4, 20656, Note_on_c, 3, 50, 0
4, 20660, Note_on_c, 3, 48, 89
4, 20776, Note_on_c, 3, 48, 0
4, 20780, Note_on_c, 3, 47, 88
4, 20896, Note_on_c, 3, 47, 0
4, 20900, Note_on_c, 3, 48, 89
4, 21136, Note_on_c, 3, 48, 0
4, 21140, Note_on_c, 3, 45, 80
4, 21376, Note_on_c, 3, 45, 0
4, 21380, Note_on_c, 3, 50, 98
4, 21616, Note_on_c, 3, 50, 0
4, 21620, Note_on_c, 3, 43, 72
4, 21736, Note_on_c, 3, 43, 0
4, 21740, Note_on_c, 3, 47, 100
4, 21856, Note_on_c, 3, 47, 0
4, 21860, Note_on_c, 3, 50, 69
4, 21976, Note_on_c, 3, 50, 0
4, 21980, Note_on_c, 3, 55, 91
4, 22096, Note_on_c, 3, 55, 0
4, 22100, Note_on_c, 3, 50, 96
4, 22216, Note_on_c, 3, 50, 0
4, 22220, Note_on_c, 3, 47, 88
4, 22336, Note_on_c, 3, 47, 0
4, 22340, Note_on_c, 3, 43, 90
4, 23060, Note_on_c, 3, 43, 0
4, 23060, Note_on_c, 3, 50, 69
4, 23296, Note_on_c, 3, 50, 0
4, 23300, Note_on_c, 3, 54, 88
4, 23536, Note_on_c, 3, 54, 0
4, 23540, Note_on_c, 3, 57, 92
4, 23776, Note_on_c, 3, 57, 0
4, 23780, Note_on_c, 3, 62, 96
4, 24016, Note_on_c, 3, 62, 0
4, 24020, Note_on_c, 3, 60, 86
4, 24136, Note_on_c, 3, 60, 0
4, 24140, Note_on_c, 3, 59, 76
4, 24256, Note_on_c, 3, 59, 0
4, 24260, Note_on_c, 3, 57, 66
4, 24376, Note_on_c, 3, 57, 0
4, 24380, Note_on_c, 3, 55, 66
4, 24496, Note_on_c, 3, 55, 0
4, 24500, Note_on_c, 3, 54, 90
4, 24736, Note_on_c, 3, 54, 0
4, 24740, Note_on_c, 3, 57, 92
4, 24976, Note_on_c, 3, 57, 0
4, 24980, Note_on_c, 3, 50, 88
4, 25216, Note_on_c, 3, 50, 0
4, 25220, Note_on_c, 3, 55, 89
4, 25456, Note_on_c, 3, 55, 0
4, 25460, Note_on_c, 3, 57, 90
4, 25696, Note_on_c, 3, 57, 0
4, 25700, Note_on_c, 3, 59, 91
4, 25936, Note_on_c, 3, 59, 0
4, 25940, Note_on_c, 3, 60, 89
4, 26056, Note_on_c, 3, 60, 0
4, 26060, Note_on_c, 3, 62, 82
4, 26176, Note_on_c, 3, 62, 0
4, 26180, Note_on_c, 3, 60, 84
4, 26296, Note_on_c, 3, 60, 0
4, 26300, Note_on_c, 3, 59, 73
4, 26416, Note_on_c, 3, 59, 0
4, 26420, Note_on_c, 3, 57, 71
4, 26536, Note_on_c, 3, 57, 0
4, 26540, Note_on_c, 3, 55, 68
4, 26656, Note_on_c, 3, 55, 0
4, 26660, Note_on_c, 3, 54, 79
4, 26776, Note_on_c, 3, 54, 0
4, 26780, Note_on_c, 3, 52, 73
4, 26896, Note_on_c, 3, 52, 0
4, 26900, Note_on_c, 3, 54, 85
4, 27016, Note_on_c, 3, 54, 0
4, 27020, Note_on_c, 3, 55, 83
4, 27136, Note_on_c, 3, 55, 0
4, 27140, Note_on_c, 3, 57, 88
4, 27256, Note_on_c, 3, 57, 0
4, 27260, Note_on_c, 3, 54, 90
4, 27376, Note_on_c, 3, 54, 0
4, 27380, Note_on_c, 3, 59, 97
4, 27616, Note_on_c, 3, 59, 0
4, 27620, Note_on_c, 3, 54, 81
4, 27856, Note_on_c, 3, 54, 0
4, 27860, Note_on_c, 3, 55, 83
4, 28096, Note_on_c, 3, 55, 0
4, 28100, Note_on_c, 3, 57, 74
4, 28216, Note_on_c, 3, 57, 0
4, 28220, Note_on_c, 3, 60, 95
4, 28336, Note_on_c, 3, 60, 0
4, 28340, Note_on_c, 3, 59, 77
4, 28456, Note_on_c, 3, 59, 0
4, 28460, Note_on_c, 3, 57, 76
4, 28576, Note_on_c, 3, 57, 0
4, 28580, Note_on_c, 3, 55, 66
4, 28696, Note_on_c, 3, 55, 0
4, 28700, Note_on_c, 3, 54, 88
4, 28816, Note_on_c, 3, 54, 0
4, 28820, Note_on_c, 3, 55, 80
4, 28936, Note_on_c, 3, 55, 0
4, 28940, Note_on_c, 3, 57, 84
4, 29056, Note_on_c, 3, 57, 0
4, 29060, Note_on_c, 3, 55, 71
4, 29176, Note_on_c, 3, 55, 0
4, 29180, Note_on_c, 3, 54, 81
4, 29296, Note_on_c, 3, 54, 0
4, 29300, Note_on_c, 3, 52, 61
4, 29416, Note_on_c, 3, 52, 0
4, 29420, Note_on_c, 3, 50, 67
4, 29536, Note_on_c, 3, 50, 0
4, 29540, Note_on_c, 3, 48, 73
4, 29656, Note_on_c, 3, 48, 0
4, 29660, Note_on_c, 3, 47, 72
4, 29776, Note_on_c, 3, 47, 0
4, 29780, Note_on_c, 3, 45, 70
4, 29896, Note_on_c, 3, 45, 0
4, 29900, Note_on_c, 3, 47, 80
4, 30016, Note_on_c, 3, 47, 0
4, 30020, Note_on_c, 3, 48, 70
4, 30136, Note_on_c, 3, 48, 0
4, 30140, Note_on_c, 3, 45, 70
4, 30256, Note_on_c, 3, 45, 0
4, 30260, Note_on_c, 3, 47, 91
4, 30496, Note_on_c, 3, 47, 0
4, 30500, Note_on_c, 3, 54, 90
4, 30736, Note_on_c, 3, 54, 0
4, 30740, Note_on_c, 3, 59, 104
4, 31216, Note_on_c, 3, 59, 0
4, 31220, Note_on_c, 3, 55, 85
4, 31456, Note_on_c, 3, 55, 0
4, 31460, Note_on_c, 3, 52, 90
4, 31696, Note_on_c, 3, 52, 0
4, 31700, Note_on_c, 3, 60, 90
4, 31816, Note_on_c, 3, 60, 0
4, 31820, Note_on_c, 3, 62, 72
4, 31936, Note_on_c, 3, 62, 0
4, 31940, Note_on_c, 3, 60, 78
4, 32056, Note_on_c, 3, 60, 0
4, 32060, Note_on_c, 3, 59, 76
4, 32176, Note_on_c, 3, 59, 0
4, 32180, Note_on_c, 3, 57, 59
4, 32296, Note_on_c, 3, 57, 0
4, 32300, Note_on_c, 3, 55, 63
4, 32416, Note_on_c, 3, 55, 0
4, 32420, Note_on_c, 3, 54, 77
4, 32536, Note_on_c, 3, 54, 0
4, 32540, Note_on_c, 3, 52, 78
4, 32656, Note_on_c, 3, 52, 0
4, 32660, Note_on_c, 3, 54, 82
4, 32776, Note_on_c, 3, 54, 0
4, 32780, Note_on_c, 3, 59, 84
4, 32896, Note_on_c, 3, 59, 0
4, 32900, Note_on_c, 3, 57, 65
4, 33016, Note_on_c, 3, 57, 0
4, 33020, Note_on_c, 3, 59, 90
4, 33136, Note_on_c, 3, 59, 0
4, 33140, Note_on_c, 3, 52, 83
4, 33376, Note_on_c, 3, 52, 0
4, 33380, Note_on_c, 3, 55, 91
4, 33616, Note_on_c, 3, 55, 0
4, 33620, Note_on_c, 3, 59, 90
4, 33856, Note_on_c, 3, 59, 0
4, 33860, Note_on_c, 3, 64, 106
4, 34096, Note_on_c, 3, 64, 0
4, 34100, Note_on_c, 3, 52, 88
4, 34336, Note_on_c, 3, 52, 0
4, 34340, Note_on_c, 3, 50, 81
4, 34576, Note_on_c, 3, 50, 0
4, 34580, Note_on_c, 3, 48, 93
4, 34816, Note_on_c, 3, 48, 0
4, 34820, Note_on_c, 3, 60, 102
4, 35056, Note_on_c, 3, 60, 0
4, 35060, Note_on_c, 3, 59, 90
4, 35296, Note_on_c, 3, 59, 0
4, 35300, Note_on_c, 3, 57, 92
4, 36256, Note_on_c, 3, 57, 0
4, 36260, Note_on_c, 3, 60, 96
4, 36496, Note_on_c, 3, 60, 0
4, 36500, Note_on_c, 3, 57, 89
4, 36736, Note_on_c, 3, 57, 0
4, 36740, Note_on_c, 3, 54, 90
4, 36976, Note_on_c, 3, 54, 0
4, 36980, Note_on_c, 3, 50, 85
4, 37216, Note_on_c, 3, 50, 0
4, 37220, Note_on_c, 3, 62, 102
4, 37456, Note_on_c, 3, 62, 0
4, 37460, Note_on_c, 3, 55, 71
4, 37576, Note_on_c, 3, 55, 0
4, 37580, Note_on_c, 3, 57, 83
4, 37696, Note_on_c, 3, 57, 0
4, 37700, Note_on_c, 3, 55, 75
4, 37816, Note_on_c, 3, 55, 0
4, 37820, Note_on_c, 3, 53, 82
4, 37936, Note_on_c, 3, 53, 0
4, 37940, Note_on_c, 3, 52, 80
4, 38056, Note_on_c, 3, 52, 0
4, 38060, Note_on_c, 3, 50, 70
4, 38176, Note_on_c, 3, 50, 0
4, 38180, Note_on_c, 3, 48, 90
4, 38416, Note_on_c, 3, 48, 0
4, 38420, Note_on_c, 3, 52, 85
4, 38656, Note_on_c, 3, 52, 0
4, 38660, Note_on_c, 3, 48, 90
4, 38896, Note_on_c, 3, 48, 0
4, 38900, Note_on_c, 3, 45, 86
4, 39016, Note_on_c, 3, 45, 0
4, 39020, Note_on_c, 3, 47, 90
4, 39136, Note_on_c, 3, 47, 0
4, 39140, Note_on_c, 3, 48, 86
4, 39256, Note_on_c, 3, 48, 0
4, 39260, Note_on_c, 3, 45, 80
4, 39376, Note_on_c, 3, 45, 0
4, 39380, Note_on_c, 3, 47, 92
4, 39496, Note_on_c, 3, 47, 0
4, 39500, Note_on_c, 3, 48, 86
4, 39616, Note_on_c, 3, 48, 0
4, 39620, Note_on_c, 3, 50, 93
4, 39856, Note_on_c, 3, 50, 0
4, 39860, Note_on_c, 3, 38, 84
4, 40096, Note_on_c, 3, 38, 0
4, 40100, Note_on_c, 3, 54, 110
4, 40336, Note_on_c, 3, 54, 0
4, 40340, Note_on_c, 3, 55, 85
4, 40456, Note_on_c, 3, 55, 0
4, 40460, Note_on_c, 3, 57, 82
4, 40576, Note_on_c, 3, 57, 0
4, 40580, Note_on_c, 3, 59, 54
4, 40696, Note_on_c, 3, 59, 0
4, 40700, Note_on_c, 3, 55, 82
4, 40816, Note_on_c, 3, 55, 0
4, 40820, Note_on_c, 3, 57, 70
4, 40936, Note_on_c, 3, 57, 0
4, 40940, Note_on_c, 3, 59, 78
4, 41056, Note_on_c, 3, 59, 0
4, 41060, Note_on_c, 3, 60, 89
4, 41296, Note_on_c, 3, 60, 0
4, 41300, Note_on_c, 3, 64, 95
4, 41536, Note_on_c, 3, 64, 0
4, 41540, Note_on_c, 3, 57, 85
4, 41776, Note_on_c, 3, 57, 0
4, 41780, Note_on_c, 3, 62, 96
4, 41896, Note_on_c, 3, 62, 0
4, 41900, Note_on_c, 3, 60, 83
4, 42016, Note_on_c, 3, 60, 0
4, 42020, Note_on_c, 3, 59, 74
4, 42136, Note_on_c, 3, 59, 0
4, 42140, Note_on_c, 3, 62, 85
4, 42256, Note_on_c, 3, 62, 0
4, 42260, Note_on_c, 3, 60, 84
4, 42376, Note_on_c, 3, 60, 0
4, 42380, Note_on_c, 3, 59, 76
4, 42496, Note_on_c, 3, 59, 0
4, 42500, Note_on_c, 3, 60, 86
4, 42616, Note_on_c, 3, 60, 0
4, 42620, Note_on_c, 3, 59, 88
4, 42736, Note_on_c, 3, 59, 0
4, 42740, Note_on_c, 3, 57, 72
4, 42856, Note_on_c, 3, 57, 0
4, 42860, Note_on_c, 3, 55, 61
4, 42976, Note_on_c, 3, 55, 0
4, 42980, Note_on_c, 3, 54, 80
4, 43096, Note_on_c, 3, 54, 0
4, 43100, Note_on_c, 3, 57, 89
4, 43216, Note_on_c, 3, 57, 0
4, 43220, Note_on_c, 3, 55, 84
4, 43336, Note_on_c, 3, 55, 0
4, 43340, Note_on_c, 3, 54, 90
4, 43456, Note_on_c, 3, 54, 0
4, 43460, Note_on_c, 3, 52, 81
4, 43576, Note_on_c, 3, 52, 0
4, 43580, Note_on_c, 3, 50, 72
4, 43696, Note_on_c, 3, 50, 0
4, 43700, Note_on_c, 3, 48, 89
4, 43816, Note_on_c, 3, 48, 0
4, 43820, Note_on_c, 3, 47, 84
4, 43936, Note_on_c, 3, 47, 0
4, 43940, Note_on_c, 3, 48, 92
4, 44176, Note_on_c, 3, 48, 0
4, 44180, Note_on_c, 3, 45, 82
4, 44416, Note_on_c, 3, 45, 0
4, 44420, Note_on_c, 3, 50, 98
4, 44660, Note_on_c, 3, 50, 0
4, 44660, Note_on_c, 3, 43, 61
4, 44780, Note_on_c, 3, 43, 0
4, 44780, Note_on_c, 3, 47, 90
4, 44896, Note_on_c, 3, 47, 0
4, 44900, Note_on_c, 3, 50, 93
4, 45016, Note_on_c, 3, 50, 0
4, 45020, Note_on_c, 3, 55, 83
4, 45136, Note_on_c, 3, 55, 0
4, 45140, Note_on_c, 3, 50, 76
4, 45256, Note_on_c, 3, 50, 0
4, 45260, Note_on_c, 3, 47, 90
4, 45376, Note_on_c, 3, 47, 0
4, 45380, Note_on_c, 3, 43, 109
4, 46100, Note_on_c, 3, 43, 0
4, 47520, End_track
0, 0, End_of_file
