0, 0, Header, 1, 5, 480
1, 0, Start_track
1, 0, SMPTE_offset, 96, 0, 0, 0, 0
1, 0, Time_signature, 3, 2, 24, 8
1, 20, Tempo, 1200000
1, 22848, Tempo, 1224489
1, 22852, Tempo, 1250000
1, 22876, Tempo, 1276595
1, 22912, Tempo, 1304347
1, 22948, Tempo, 1333333
1, 22956, Tempo, 1363636
1, 23008, Tempo, 1395348
1, 23056, Tempo, 1153846
1, 23064, Tempo, 1200000
1, 33660, Tempo, 1200000
1, 33692, Tempo, 1224489
1, 33696, Tempo, 1250000
1, 33708, Tempo, 1276595
1, 33716, Tempo, 1304347
1, 33740, Tempo, 1363636
1, 33760, Tempo, 1395348
1, 33788, Tempo, 1428571
1, 33856, Tempo, 1463414
1, 33868, Tempo, 1500000
1, 33936, Tempo, 1463414
1, 33944, Tempo, 1428571
1, 33952, Tempo, 1395348
1, 33964, Tempo, 1363636
1, 33980, Tempo, 1304347
1, 33996, Tempo, 1276595
1, 34012, Tempo, 1250000
1, 34032, Tempo, 1224489
1, 34044, Tempo, 1200000
1, 44944, Tempo, 1200000
1, 44992, Tempo, 1224489
1, 45000, Tempo, 1250000
1, 45048, Tempo, 1276595
1, 45156, Tempo, 1304347
1, 45368, Tempo, 1333333
1, 45384, Tempo, 1363636
1, 45400, Tempo, 1395348
1, 45448, Tempo, 1428571
1, 45496, Tempo, 1463414
1, 45504, Tempo, 1500000
1, 45524, Tempo, 1538461
1, 45536, Tempo, 1578947
1, 45556, Tempo, 1666666
1, 45568, Tempo, 1714285
1, 45576, Tempo, 1764705
1, 45596, Tempo, 1818181
1, 45600, Tempo, 1875000
1, 45608, Tempo, 1935483
1, 45624, Tempo, 2000000
1, 45640, Tempo, 2142857
1, 45656, Tempo, 2222222
1, 45672, Tempo, 2307692
1, 45696, Tempo, 2400000
1, 45704, Tempo, 2500000
1, 86400, End_track
2, 0, Start_track
2, 0, Title_t, "goldberg.mid"
2, 20, Note_on_c, 0, 79, 93
2, 496, Note_on_c, 0, 79, 0
2, 500, Note_on_c, 0, 79, 85
2, 976, Note_on_c, 0, 79, 0
2, 980, Note_on_c, 0, 81, 82
2, 1036, Note_on_c, 0, 81, 0
2, 1040, Note_on_c, 0, 79, 85
2, 1096, Note_on_c, 0, 79, 0
2, 1100, Note_on_c, 0, 81, 80
2, 1336, Note_on_c, 0, 81, 0
2, 1340, Note_on_c, 0, 83, 92
2, 1456, Note_on_c, 0, 83, 0
2, 1460, Note_on_c, 0, 81, 88
2, 1696, Note_on_c, 0, 81, 0
2, 1700, Note_on_c, 0, 79, 86
2, 1816, Note_on_c, 0, 79, 0
2, 1820, Note_on_c, 0, 78, 76
2, 1936, Note_on_c, 0, 78, 0
2, 1940, Note_on_c, 0, 76, 82
2, 2176, Note_on_c, 0, 76, 0
2, 2180, Note_on_c, 0, 74, 75
2, 2900, Note_on_c, 0, 74, 0
2, 2900, Note_on_c, 0, 67, 88
2, 2960, Note_on_c, 0, 67, 0
2, 2960, Note_on_c, 0, 66, 88
2, 3020, Note_on_c, 0, 66, 0
2, 3020, Note_on_c, 0, 67, 88
2, 3380, Note_on_c, 0, 67, 0
2, 3380, Note_on_c, 0, 69, 88
2, 3440, Note_on_c, 0, 69, 0
2, 3440, Note_on_c, 0, 67, 88
2, 3500, Note_on_c, 0, 67, 0
2, 3500, Note_on_c, 0, 66, 88
2, 3560, Note_on_c, 0, 66, 0
2, 3560, Note_on_c, 0, 67, 88
2, 3620, Note_on_c, 0, 67, 0
2, 3620, Note_on_c, 0, 69, 88
2, 3680, Note_on_c, 0, 69, 0
2, 3680, Note_on_c, 0, 67, 88
2, 3740, Note_on_c, 0, 67, 0
2, 3740, Note_on_c, 0, 69, 88
2, 3800, Note_on_c, 0, 69, 0
2, 3800, Note_on_c, 0, 67, 88
2, 3860, Note_on_c, 0, 67, 0
2, 3860, Note_on_c, 0, 69, 88
2, 3920, Note_on_c, 0, 69, 0
2, 3920, Note_on_c, 0, 67, 88
2, 3980, Note_on_c, 0, 67, 0
2, 3980, Note_on_c, 0, 69, 88
2, 4040, Note_on_c, 0, 69, 0
2, 4040, Note_on_c, 0, 67, 88
2, 4100, Note_on_c, 0, 67, 0
2, 4100, Note_on_c, 0, 66, 88
2, 4220, Note_on_c, 0, 66, 0
2, 4220, Note_on_c, 0, 67, 88
2, 4340, Note_on_c, 0, 67, 0
2, 4340, Note_on_c, 0, 69, 69
2, 4396, Note_on_c, 0, 69, 0
2, 4400, Note_on_c, 0, 67, 71
2, 4456, Note_on_c, 0, 67, 0
2, 4460, Note_on_c, 0, 66, 62
2, 4576, Note_on_c, 0, 66, 0
2, 4580, Note_on_c, 0, 67, 80
2, 4636, Note_on_c, 0, 67, 0
2, 4640, Note_on_c, 0, 66, 81
2, 4700, Note_on_c, 0, 66, 0
2, 4700, Note_on_c, 0, 64, 72
2, 4820, Note_on_c, 0, 64, 0
2, 4820, Note_on_c, 0, 64, 84
2, 5056, Note_on_c, 0, 64, 0
2, 5060, Note_on_c, 0, 62, 75
2, 5776, Note_on_c, 0, 62, 0
2, 5780, Note_on_c, 0, 74, 92
2, 6256, Note_on_c, 0, 74, 0
2, 6260, Note_on_c, 0, 74, 88
2, 6736, Note_on_c, 0, 74, 0
2, 6740, Note_on_c, 0, 76, 83
2, 6796, Note_on_c, 0, 76, 0
2, 6800, Note_on_c, 0, 74, 73
2, 6856, Note_on_c, 0, 74, 0
2, 6860, Note_on_c, 0, 76, 74
2, 7096, Note_on_c, 0, 76, 0
2, 7100, Note_on_c, 0, 77, 85
2, 7216, Note_on_c, 0, 77, 0
2, 7220, Note_on_c, 0, 76, 69
2, 7456, Note_on_c, 0, 76, 0
2, 7460, Note_on_c, 0, 74, 74
2, 7576, Note_on_c, 0, 74, 0
2, 7580, Note_on_c, 0, 72, 81
2, 7696, Note_on_c, 0, 72, 0
2, 7700, Note_on_c, 0, 71, 73
2, 7936, Note_on_c, 0, 71, 0
2, 7940, Note_on_c, 0, 69, 64
2, 8420, Note_on_c, 0, 69, 0
2, 8420, Note_on_c, 0, 79, 98
2, 8476, Note_on_c, 0, 79, 0
2, 8480, Note_on_c, 0, 78, 90
2, 8536, Note_on_c, 0, 78, 0
2, 8540, Note_on_c, 0, 76, 85
2, 8596, Note_on_c, 0, 76, 0
2, 8600, Note_on_c, 0, 78, 81
2, 8656, Note_on_c, 0, 78, 0
2, 8660, Note_on_c, 0, 79, 97
2, 8716, Note_on_c, 0, 79, 0
2, 8720, Note_on_c, 0, 78, 102
2, 8896, Note_on_c, 0, 78, 0
2, 8900, Note_on_c, 0, 81, 96
2, 8956, Note_on_c, 0, 81, 0
2, 8960, Note_on_c, 0, 79, 96
2, 9136, Note_on_c, 0, 79, 0
2, 9140, Note_on_c, 0, 78, 101
2, 9196, Note_on_c, 0, 78, 0
2, 9200, Note_on_c, 0, 76, 82
2, 9380, Note_on_c, 0, 76, 0
2, 9380, Note_on_c, 0, 74, 72
2, 9436, Note_on_c, 0, 74, 0
2, 9440, Note_on_c, 0, 72, 92
2, 9620, Note_on_c, 0, 72, 0
2, 9620, Note_on_c, 0, 72, 86
2, 9740, Note_on_c, 0, 72, 0
2, 9740, Note_on_c, 0, 81, 90
2, 9976, Note_on_c, 0, 81, 0
2, 9980, Note_on_c, 0, 72, 83
2, 10096, Note_on_c, 0, 72, 0
2, 10100, Note_on_c, 0, 71, 68
2, 10156, Note_on_c, 0, 71, 0
2, 10160, Note_on_c, 0, 67, 71
2, 10340, Note_on_c, 0, 67, 0
2, 10340, Note_on_c, 0, 66, 84
2, 10580, Note_on_c, 0, 66, 0
2, 10580, Note_on_c, 0, 66, 90
2, 10820, Note_on_c, 0, 66, 0
2, 10820, Note_on_c, 0, 67, 73
2, 11536, Note_on_c, 0, 67, 0
2, 11540, Note_on_c, 0, 71, 82
2, 12016, Note_on_c, 0, 71, 0
2, 12020, Note_on_c, 0, 71, 88
2, 12496, Note_on_c, 0, 71, 0
2, 12500, Note_on_c, 0, 73, 77
2, 12556, Note_on_c, 0, 73, 0
2, 12560, Note_on_c, 0, 71, 74
2, 12616, Note_on_c, 0, 71, 0
2, 12620, Note_on_c, 0, 73, 82
2, 12856, Note_on_c, 0, 73, 0
2, 12860, Note_on_c, 0, 74, 89
2, 12976, Note_on_c, 0, 74, 0
2, 12980, Note_on_c, 0, 74, 95
2, 13096, Note_on_c, 0, 74, 0
2, 13100, Note_on_c, 0, 73, 92
2, 13216, Note_on_c, 0, 73, 0
2, 13220, Note_on_c, 0, 71, 91
2, 13336, Note_on_c, 0, 71, 0
2, 13340, Note_on_c, 0, 69, 75
2, 14300, Note_on_c, 0, 69, 0
2, 14420, Note_on_c, 0, 67, 93
2, 14480, Note_on_c, 0, 71, 93
2, 14540, Note_on_c, 0, 76, 93
2, 14600, Note_on_c, 0, 79, 93
2, 14720, Note_on_c, 0, 71, 0
2, 14780, Note_on_c, 0, 76, 0
2, 14840, Note_on_c, 0, 79, 0
2, 14900, Note_on_c, 0, 67, 0
2, 14900, Note_on_c, 0, 81, 117
2, 14960, Note_on_c, 0, 81, 0
2, 14960, Note_on_c, 0, 79, 90
2, 15016, Note_on_c, 0, 79, 0
2, 15020, Note_on_c, 0, 78, 70
2, 15080, Note_on_c, 0, 78, 0
2, 15080, Note_on_c, 0, 79, 86
2, 15136, Note_on_c, 0, 79, 0
2, 15140, Note_on_c, 0, 81, 83
2, 15196, Note_on_c, 0, 81, 0
2, 15200, Note_on_c, 0, 79, 81
2, 15256, Note_on_c, 0, 79, 0
2, 15260, Note_on_c, 0, 81, 77
2, 15316, Note_on_c, 0, 81, 0
2, 15320, Note_on_c, 0, 79, 85
2, 15376, Note_on_c, 0, 79, 0
2, 15380, Note_on_c, 0, 81, 81
2, 15436, Note_on_c, 0, 81, 0
2, 15440, Note_on_c, 0, 79, 90
2, 15496, Note_on_c, 0, 79, 0
2, 15500, Note_on_c, 0, 81, 80
2, 15556, Note_on_c, 0, 81, 0
2, 15560, Note_on_c, 0, 79, 79
2, 15620, Note_on_c, 0, 79, 0
2, 15620, Note_on_c, 0, 78, 85
2, 15740, Note_on_c, 0, 78, 0
2, 15740, Note_on_c, 0, 79, 85
2, 15860, Note_on_c, 0, 79, 0
2, 15860, Note_on_c, 0, 79, 93
2, 16096, Note_on_c, 0, 79, 0
2, 16100, Note_on_c, 0, 78, 80
2, 16216, Note_on_c, 0, 78, 0
2, 16220, Note_on_c, 0, 76, 73
2, 16340, Note_on_c, 0, 76, 0
2, 16340, Note_on_c, 0, 74, 80
2, 16576, Note_on_c, 0, 74, 0
2, 16580, Note_on_c, 0, 73, 85
2, 17056, Note_on_c, 0, 73, 0
2, 17060, Note_on_c, 0, 76, 90
2, 17300, Note_on_c, 0, 76, 0
2, 17300, Note_on_c, 0, 81, 93
2, 17416, Note_on_c, 0, 81, 0
2, 17420, Note_on_c, 0, 79, 88
2, 17540, Note_on_c, 0, 79, 0
2, 17540, Note_on_c, 0, 78, 88
2, 17656, Note_on_c, 0, 78, 0
2, 17660, Note_on_c, 0, 76, 86
2, 17776, Note_on_c, 0, 76, 0
2, 17780, Note_on_c, 0, 74, 80
2, 18016, Note_on_c, 0, 74, 0
2, 18020, Note_on_c, 0, 69, 81
2, 18556, Note_on_c, 0, 69, 0
2, 18560, Note_on_c, 0, 71, 78
2, 18616, Note_on_c, 0, 71, 0
2, 18620, Note_on_c, 0, 72, 90
2, 18740, Note_on_c, 0, 72, 0
2, 18740, Note_on_c, 0, 71, 86
2, 18856, Note_on_c, 0, 71, 0
2, 18860, Note_on_c, 0, 69, 65
2, 18976, Note_on_c, 0, 69, 0
2, 18980, Note_on_c, 0, 67, 70
2, 19096, Note_on_c, 0, 67, 0
2, 19100, Note_on_c, 0, 66, 80
2, 19216, Note_on_c, 0, 66, 0
2, 19220, Note_on_c, 0, 64, 89
2, 19460, Note_on_c, 0, 64, 0
2, 19460, Note_on_c, 0, 74, 85
2, 19576, Note_on_c, 0, 74, 0
2, 19580, Note_on_c, 0, 73, 80
2, 19996, Note_on_c, 0, 73, 0
2, 20000, Note_on_c, 0, 74, 78
2, 20056, Note_on_c, 0, 74, 0
2, 20060, Note_on_c, 0, 76, 77
2, 20176, Note_on_c, 0, 76, 0
2, 20180, Note_on_c, 0, 74, 83
2, 20296, Note_on_c, 0, 74, 0
2, 20300, Note_on_c, 0, 73, 89
2, 20416, Note_on_c, 0, 73, 0
2, 20420, Note_on_c, 0, 71, 84
2, 20536, Note_on_c, 0, 71, 0
2, 20540, Note_on_c, 0, 69, 80
2, 20656, Note_on_c, 0, 69, 0
2, 20660, Note_on_c, 0, 79, 97
2, 20896, Note_on_c, 0, 79, 0
2, 20900, Note_on_c, 0, 71, 86
2, 21380, Note_on_c, 0, 71, 0
2, 21380, Note_on_c, 0, 73, 85
2, 21616, Note_on_c, 0, 73, 0
2, 21620, Note_on_c, 0, 73, 88
2, 21740, Note_on_c, 0, 73, 0
2, 21740, Note_on_c, 0, 74, 85
2, 21920, Note_on_c, 0, 74, 0
2, 21920, Note_on_c, 0, 76, 78
2, 21976, Note_on_c, 0, 76, 0
2, 21980, Note_on_c, 0, 74, 83
2, 22036, Note_on_c, 0, 74, 0
2, 22040, Note_on_c, 0, 73, 80
2, 22100, Note_on_c, 0, 73, 0
2, 22100, Note_on_c, 0, 73, 84
2, 22336, Note_on_c, 0, 73, 0
2, 22340, Note_on_c, 0, 74, 75
2, 23060, Note_on_c, 0, 74, 0
2, 23060, Note_on_c, 0, 69, 113
2, 23120, Note_on_c, 0, 69, 0
2, 23120, Note_on_c, 0, 67, 113
2, 23180, Note_on_c, 0, 67, 0
2, 23180, Note_on_c, 0, 69, 113
2, 23540, Note_on_c, 0, 69, 0
2, 23540, Note_on_c, 0, 71, 75
2, 23600, Note_on_c, 0, 71, 0
2, 23600, Note_on_c, 0, 69, 75
2, 23660, Note_on_c, 0, 69, 0
2, 23660, Note_on_c, 0, 67, 75
2, 23720, Note_on_c, 0, 67, 0
2, 23720, Note_on_c, 0, 69, 75
2, 23780, Note_on_c, 0, 69, 0
2, 23780, Note_on_c, 0, 71, 75
2, 23840, Note_on_c, 0, 71, 0
2, 23840, Note_on_c, 0, 69, 75
2, 23900, Note_on_c, 0, 69, 0
2, 23900, Note_on_c, 0, 71, 75
2, 23960, Note_on_c, 0, 71, 0
2, 23960, Note_on_c, 0, 69, 75
2, 24020, Note_on_c, 0, 69, 0
2, 24020, Note_on_c, 0, 71, 75
2, 24080, Note_on_c, 0, 71, 0
2, 24080, Note_on_c, 0, 69, 75
2, 24200, Note_on_c, 0, 69, 0
2, 24200, Note_on_c, 0, 71, 75
2, 24260, Note_on_c, 0, 71, 0
2, 24260, Note_on_c, 0, 72, 75
2, 24320, Note_on_c, 0, 72, 0
2, 24320, Note_on_c, 0, 74, 75
2, 24380, Note_on_c, 0, 74, 0
2, 24380, Note_on_c, 0, 76, 75
2, 24500, Note_on_c, 0, 76, 0
2, 24500, Note_on_c, 0, 76, 113
2, 24616, Note_on_c, 0, 76, 0
2, 24620, Note_on_c, 0, 74, 85
2, 24736, Note_on_c, 0, 74, 0
2, 24740, Note_on_c, 0, 72, 96
2, 24856, Note_on_c, 0, 72, 0
2, 24860, Note_on_c, 0, 71, 75
2, 24976, Note_on_c, 0, 71, 0
2, 24980, Note_on_c, 0, 69, 73
2, 25216, Note_on_c, 0, 69, 0
2, 25220, Note_on_c, 0, 67, 85
2, 25700, Note_on_c, 0, 67, 0
2, 25700, Note_on_c, 0, 79, 102
2, 25936, Note_on_c, 0, 79, 0
2, 25940, Note_on_c, 0, 78, 101
2, 26056, Note_on_c, 0, 78, 0
2, 26060, Note_on_c, 0, 76, 102
2, 26300, Note_on_c, 0, 76, 0
2, 26300, Note_on_c, 0, 78, 86
2, 26360, Note_on_c, 0, 78, 0
2, 26360, Note_on_c, 0, 75, 92
2, 26420, Note_on_c, 0, 75, 0
2, 26420, Note_on_c, 0, 75, 93
2, 26656, Note_on_c, 0, 75, 0
2, 26660, Note_on_c, 0, 76, 92
2, 27136, Note_on_c, 0, 76, 0
2, 27140, Note_on_c, 0, 81, 101
2, 27196, Note_on_c, 0, 81, 0
2, 27200, Note_on_c, 0, 83, 109
2, 27256, Note_on_c, 0, 83, 0
2, 27260, Note_on_c, 0, 81, 97
2, 27316, Note_on_c, 0, 81, 0
2, 27320, Note_on_c, 0, 79, 92
2, 27376, Note_on_c, 0, 79, 0
2, 27380, Note_on_c, 0, 81, 111
2, 27736, Note_on_c, 0, 81, 0
2, 27740, Note_on_c, 0, 78, 96
2, 27856, Note_on_c, 0, 78, 0
2, 27860, Note_on_c, 0, 76, 93
2, 28096, Note_on_c, 0, 76, 0
2, 28100, Note_on_c, 0, 75, 101
2, 28576, Note_on_c, 0, 75, 0
2, 28580, Note_on_c, 0, 71, 101
2, 28820, Note_on_c, 0, 71, 0
2, 28820, Note_on_c, 0, 76, 90
2, 28880, Note_on_c, 0, 76, 0
2, 28880, Note_on_c, 0, 78, 90
2, 28940, Note_on_c, 0, 78, 0
2, 28940, Note_on_c, 0, 79, 101
2, 29180, Note_on_c, 0, 79, 0
2, 29180, Note_on_c, 0, 78, 102
2, 29296, Note_on_c, 0, 78, 0
2, 29300, Note_on_c, 0, 78, 106
2, 29536, Note_on_c, 0, 78, 0
2, 29540, Note_on_c, 0, 76, 97
2, 29896, Note_on_c, 0, 76, 0
2, 29900, Note_on_c, 0, 71, 85
2, 30016, Note_on_c, 0, 71, 0
2, 30020, Note_on_c, 0, 72, 95
2, 30076, Note_on_c, 0, 72, 0
2, 30080, Note_on_c, 0, 71, 88
2, 30136, Note_on_c, 0, 71, 0
2, 30140, Note_on_c, 0, 69, 84
2, 30196, Note_on_c, 0, 69, 0
2, 30200, Note_on_c, 0, 71, 80
2, 30256, Note_on_c, 0, 71, 0
2, 30260, Note_on_c, 0, 79, 109
2, 30316, Note_on_c, 0, 79, 0
2, 30320, Note_on_c, 0, 76, 90
2, 30496, Note_on_c, 0, 76, 0
2, 30500, Note_on_c, 0, 78, 99
2, 30556, Note_on_c, 0, 78, 0
2, 30560, Note_on_c, 0, 75, 101
2, 30676, Note_on_c, 0, 75, 0
2, 30740, Note_on_c, 0, 75, 117
2, 30976, Note_on_c, 0, 75, 0
2, 30980, Note_on_c, 0, 76, 102
2, 31336, Note_on_c, 0, 76, 0
2, 31340, Note_on_c, 0, 67, 92
2, 31456, Note_on_c, 0, 67, 0
2, 31460, Note_on_c, 0, 66, 86
2, 31576, Note_on_c, 0, 66, 0
2, 31580, Note_on_c, 0, 64, 80
2, 31696, Note_on_c, 0, 64, 0
2, 31700, Note_on_c, 0, 66, 97
2, 32060, Note_on_c, 0, 66, 0
2, 32060, Note_on_c, 0, 76, 121
2, 32180, Note_on_c, 0, 76, 0
2, 32180, Note_on_c, 0, 75, 117
2, 32240, Note_on_c, 0, 75, 0
2, 32240, Note_on_c, 0, 76, 75
2, 32300, Note_on_c, 0, 76, 0
2, 32300, Note_on_c, 0, 78, 75
2, 32360, Note_on_c, 0, 78, 0
2, 32360, Note_on_c, 0, 79, 85
2, 32416, Note_on_c, 0, 79, 0
2, 32420, Note_on_c, 0, 81, 117
2, 32656, Note_on_c, 0, 81, 0
2, 32660, Note_on_c, 0, 79, 109
2, 32896, Note_on_c, 0, 79, 0
2, 32900, Note_on_c, 0, 78, 117
2, 33136, Note_on_c, 0, 78, 0
2, 33140, Note_on_c, 0, 78, 102
2, 33256, Note_on_c, 0, 78, 0
2, 33260, Note_on_c, 0, 76, 117
2, 33500, Note_on_c, 0, 76, 0
2, 33500, Note_on_c, 0, 78, 89
2, 33556, Note_on_c, 0, 78, 0
2, 33560, Note_on_c, 0, 75, 99
2, 33616, Note_on_c, 0, 75, 0
2, 33620, Note_on_c, 0, 75, 88
2, 33856, Note_on_c, 0, 75, 0
2, 33860, Note_on_c, 0, 76, 91
2, 34576, Note_on_c, 0, 76, 0
2, 34580, Note_on_c, 0, 76, 91
2, 34816, Note_on_c, 0, 76, 0
2, 34820, Note_on_c, 0, 74, 78
2, 34936, Note_on_c, 0, 74, 0
2, 34940, Note_on_c, 0, 72, 72
2, 35056, Note_on_c, 0, 72, 0
2, 35060, Note_on_c, 0, 71, 72
2, 35296, Note_on_c, 0, 71, 0
2, 35300, Note_on_c, 0, 69, 59
2, 35776, Note_on_c, 0, 69, 0
2, 35780, Note_on_c, 0, 71, 69
2, 35896, Note_on_c, 0, 71, 0
2, 35900, Note_on_c, 0, 72, 75
2, 36016, Note_on_c, 0, 72, 0
2, 36020, Note_on_c, 0, 74, 74
2, 36076, Note_on_c, 0, 74, 0
2, 36080, Note_on_c, 0, 72, 74
2, 36136, Note_on_c, 0, 72, 0
2, 36140, Note_on_c, 0, 71, 65
2, 36256, Note_on_c, 0, 71, 0
2, 36260, Note_on_c, 0, 72, 71
2, 36316, Note_on_c, 0, 72, 0
2, 36320, Note_on_c, 0, 71, 78
2, 36376, Note_on_c, 0, 71, 0
2, 36380, Note_on_c, 0, 69, 67
2, 36436, Note_on_c, 0, 69, 0
2, 36500, Note_on_c, 0, 69, 68
2, 36736, Note_on_c, 0, 69, 0
2, 36740, Note_on_c, 0, 67, 72
2, 37216, Note_on_c, 0, 67, 0
2, 37220, Note_on_c, 0, 69, 68
2, 37336, Note_on_c, 0, 69, 0
2, 37340, Note_on_c, 0, 71, 62
2, 37456, Note_on_c, 0, 71, 0
2, 37460, Note_on_c, 0, 72, 73
2, 37576, Note_on_c, 0, 72, 0
2, 37580, Note_on_c, 0, 74, 73
2, 37696, Note_on_c, 0, 74, 0
2, 37700, Note_on_c, 0, 72, 82
2, 37816, Note_on_c, 0, 72, 0
2, 37820, Note_on_c, 0, 71, 82
2, 37936, Note_on_c, 0, 71, 0
2, 37940, Note_on_c, 0, 72, 74
2, 38056, Note_on_c, 0, 72, 0
2, 38060, Note_on_c, 0, 69, 76
2, 38176, Note_on_c, 0, 69, 0
2, 38180, Note_on_c, 0, 64, 76
2, 38296, Note_on_c, 0, 64, 0
2, 38300, Note_on_c, 0, 69, 69
2, 38416, Note_on_c, 0, 69, 0
2, 38420, Note_on_c, 0, 72, 83
2, 38896, Note_on_c, 0, 72, 0
2, 39020, Note_on_c, 0, 74, 81
2, 39136, Note_on_c, 0, 74, 0
2, 39140, Note_on_c, 0, 72, 83
2, 39256, Note_on_c, 0, 72, 0
2, 39260, Note_on_c, 0, 71, 71
2, 39376, Note_on_c, 0, 71, 0
2, 39380, Note_on_c, 0, 72, 72
2, 39496, Note_on_c, 0, 72, 0
2, 39500, Note_on_c, 0, 69, 68
2, 39616, Note_on_c, 0, 69, 0
2, 39620, Note_on_c, 0, 66, 72
2, 39736, Note_on_c, 0, 66, 0
2, 39740, Note_on_c, 0, 69, 88
2, 39856, Note_on_c, 0, 69, 0
2, 39860, Note_on_c, 0, 72, 90
2, 39976, Note_on_c, 0, 72, 0
2, 39980, Note_on_c, 0, 76, 86
2, 40096, Note_on_c, 0, 76, 0
2, 40100, Note_on_c, 0, 74, 84
2, 40216, Note_on_c, 0, 74, 0
2, 40220, Note_on_c, 0, 72, 83
2, 40336, Note_on_c, 0, 72, 0
2, 40340, Note_on_c, 0, 71, 78
2, 40456, Note_on_c, 0, 71, 0
2, 40460, Note_on_c, 0, 72, 77
2, 40576, Note_on_c, 0, 72, 0
2, 40580, Note_on_c, 0, 71, 72
2, 40696, Note_on_c, 0, 71, 0
2, 40700, Note_on_c, 0, 69, 71
2, 40816, Note_on_c, 0, 69, 0
2, 40820, Note_on_c, 0, 71, 77
2, 40936, Note_on_c, 0, 71, 0
2, 40940, Note_on_c, 0, 67, 81
2, 41056, Note_on_c, 0, 67, 0
2, 41060, Note_on_c, 0, 62, 72
2, 41176, Note_on_c, 0, 62, 0
2, 41180, Note_on_c, 0, 67, 80
2, 41296, Note_on_c, 0, 67, 0
2, 41300, Note_on_c, 0, 71, 81
2, 41416, Note_on_c, 0, 71, 0
2, 41420, Note_on_c, 0, 67, 72
2, 41536, Note_on_c, 0, 67, 0
2, 41540, Note_on_c, 0, 72, 88
2, 41656, Note_on_c, 0, 72, 0
2, 41660, Note_on_c, 0, 74, 88
2, 41776, Note_on_c, 0, 74, 0
2, 41780, Note_on_c, 0, 76, 88
2, 41896, Note_on_c, 0, 76, 0
2, 41900, Note_on_c, 0, 77, 84
2, 42016, Note_on_c, 0, 77, 0
2, 42020, Note_on_c, 0, 76, 86
2, 42136, Note_on_c, 0, 76, 0
2, 42140, Note_on_c, 0, 74, 78
2, 42256, Note_on_c, 0, 74, 0
2, 42260, Note_on_c, 0, 76, 85
2, 42376, Note_on_c, 0, 76, 0
2, 42380, Note_on_c, 0, 72, 75
2, 42496, Note_on_c, 0, 72, 0
2, 42500, Note_on_c, 0, 67, 73
2, 42620, Note_on_c, 0, 67, 0
2, 42620, Note_on_c, 0, 72, 88
2, 42736, Note_on_c, 0, 72, 0
2, 42740, Note_on_c, 0, 76, 93
2, 42856, Note_on_c, 0, 76, 0
2, 42860, Note_on_c, 0, 72, 77
2, 42976, Note_on_c, 0, 72, 0
2, 42980, Note_on_c, 0, 78, 76
2, 43096, Note_on_c, 0, 78, 0
2, 43100, Note_on_c, 0, 79, 91
2, 43216, Note_on_c, 0, 79, 0
2, 43220, Note_on_c, 0, 81, 98
2, 43336, Note_on_c, 0, 81, 0
2, 43340, Note_on_c, 0, 72, 81
2, 43456, Note_on_c, 0, 72, 0
2, 43460, Note_on_c, 0, 71, 80
2, 43576, Note_on_c, 0, 71, 0
2, 43580, Note_on_c, 0, 69, 71
2, 43696, Note_on_c, 0, 69, 0
2, 43700, Note_on_c, 0, 71, 76
2, 43816, Note_on_c, 0, 71, 0
2, 43820, Note_on_c, 0, 72, 80
2, 43936, Note_on_c, 0, 72, 0
2, 43940, Note_on_c, 0, 74, 84
2, 44056, Note_on_c, 0, 74, 0
2, 44060, Note_on_c, 0, 67, 76
2, 44176, Note_on_c, 0, 67, 0
2, 44180, Note_on_c, 0, 71, 88
2, 44296, Note_on_c, 0, 71, 0
2, 44300, Note_on_c, 0, 69, 75
2, 44416, Note_on_c, 0, 69, 0
2, 44420, Note_on_c, 0, 67, 82
2, 44536, Note_on_c, 0, 67, 0
2, 44540, Note_on_c, 0, 66, 86
2, 44656, Note_on_c, 0, 66, 0
2, 44660, Note_on_c, 0, 67, 90
2, 45256, Note_on_c, 0, 67, 0
2, 45260, Note_on_c, 0, 62, 76
2, 45380, Note_on_c, 0, 62, 0
2, 45380, Note_on_c, 0, 67, 97
2, 45496, Note_on_c, 0, 67, 0
2, 45500, Note_on_c, 0, 66, 94
2, 45616, Note_on_c, 0, 66, 0
2, 45620, Note_on_c, 0, 66, 92
2, 45740, Note_on_c, 0, 66, 0
2, 45740, Note_on_c, 0, 67, 92
2, 46080, Note_on_c, 0, 67, 0
2, 86400, End_track
3, 0, Start_track
3, 0, Title_t, "goldberg.mid"
3, 980, Note_on_c, 1, 62, 106
3, 1456, Note_on_c, 1, 62, 0
3, 2420, Note_on_c, 1, 62, 97
3, 2896, Note_on_c, 1, 62, 0
3, 3860, Note_on_c, 1, 61, 92
3, 4336, Note_on_c, 1, 61, 0
3, 5300, Note_on_c, 1, 57, 97
3, 5776, Note_on_c, 1, 57, 0
3, 6740, Note_on_c, 1, 55, 98
3, 7216, Note_on_c, 1, 55, 0
3, 8180, Note_on_c, 1, 57, 102
3, 8656, Note_on_c, 1, 57, 0
3, 12500, Note_on_c, 1, 64, 101
3, 12976, Note_on_c, 1, 64, 0
3, 13460, Note_on_c, 1, 74, 101
3, 14420, Note_on_c, 1, 74, 0
3, 18260, Note_on_c, 1, 62, 98
3, 18736, Note_on_c, 1, 62, 0
3, 19700, Note_on_c, 1, 64, 101
3, 20176, Note_on_c, 1, 64, 0
3, 20180, Note_on_c, 1, 66, 104
3, 20656, Note_on_c, 1, 66, 0
3, 20660, Note_on_c, 1, 64, 107
3, 21020, Note_on_c, 1, 64, 0
3, 21020, Note_on_c, 1, 66, 104
3, 21140, Note_on_c, 1, 66, 0
3, 21140, Note_on_c, 1, 67, 104
3, 22096, Note_on_c, 1, 67, 0
3, 22100, Note_on_c, 1, 66, 94
3, 23056, Note_on_c, 1, 66, 0
3, 31700, Note_on_c, 1, 66, 83
3, 32180, Note_on_c, 1, 66, 0
3, 32420, Note_on_c, 1, 72, 83
3, 32660, Note_on_c, 1, 72, 0
3, 32660, Note_on_c, 1, 71, 83
3, 32900, Note_on_c, 1, 71, 0
3, 32900, Note_on_c, 1, 69, 83
3, 33620, Note_on_c, 1, 69, 0
3, 33620, Note_on_c, 1, 67, 83
3, 34580, Note_on_c, 1, 67, 0
3, 35540, Note_on_c, 1, 57, 83
3, 36260, Note_on_c, 1, 57, 0
3, 38180, Note_on_c, 1, 64, 83
3, 38540, Note_on_c, 1, 64, 0
3, 38540, Note_on_c, 1, 71, 83
3, 38660, Note_on_c, 1, 71, 0
3, 38660, Note_on_c, 1, 69, 83
3, 38780, Note_on_c, 1, 69, 0
3, 38780, Note_on_c, 1, 67, 83
3, 38900, Note_on_c, 1, 67, 0
3, 38900, Note_on_c, 1, 66, 83
3, 39380, Note_on_c, 1, 66, 0
3, 39620, Note_on_c, 1, 66, 83
3, 40340, Note_on_c, 1, 66, 0
3, 40340, Note_on_c, 1, 67, 83
3, 40580, Note_on_c, 1, 67, 0
3, 41060, Note_on_c, 1, 62, 83
3, 41420, Note_on_c, 1, 62, 0
3, 41420, Note_on_c, 1, 67, 83
3, 42380, Note_on_c, 1, 67, 0
3, 42500, Note_on_c, 1, 67, 83
3, 42860, Note_on_c, 1, 67, 0
3, 42860, Note_on_c, 1, 72, 83
3, 43200, Note_on_c, 1, 72, 0
3, 86400, End_track
4, 0, Start_track
4, 0, Title_t, "goldberg.mid"
4, 500, Note_on_c, 2, 59, 86
4, 1456, Note_on_c, 2, 59, 0
4, 1940, Note_on_c, 2, 57, 81
4, 2896, Note_on_c, 2, 57, 0
4, 3380, Note_on_c, 2, 55, 78
4, 4336, Note_on_c, 2, 55, 0
4, 4820, Note_on_c, 2, 54, 93
4, 5776, Note_on_c, 2, 54, 0
4, 6260, Note_on_c, 2, 50, 81
4, 7216, Note_on_c, 2, 50, 0
4, 7700, Note_on_c, 2, 52, 86
4, 8420, Note_on_c, 2, 52, 0
4, 8900, Note_on_c, 2, 60, 97
4, 9380, Note_on_c, 2, 60, 0
4, 9380, Note_on_c, 2, 59, 74
4, 9496, Note_on_c, 2, 59, 0
4, 9500, Note_on_c, 2, 57, 74
4, 9616, Note_on_c, 2, 57, 0
4, 9620, Note_on_c, 2, 55, 70
4, 9736, Note_on_c, 2, 55, 0
4, 9740, Note_on_c, 2, 54, 86
4, 9856, Note_on_c, 2, 54, 0
4, 9860, Note_on_c, 2, 52, 78
4, 9976, Note_on_c, 2, 52, 0
4, 9980, Note_on_c, 2, 54, 89
4, 10096, Note_on_c, 2, 54, 0
4, 10100, Note_on_c, 2, 55, 75
4, 10336, Note_on_c, 2, 55, 0
4, 10340, Note_on_c, 2, 57, 92
4, 10576, Note_on_c, 2, 57, 0
4, 10580, Note_on_c, 2, 59, 91
4, 11540, Note_on_c, 2, 59, 0
4, 12020, Note_on_c, 2, 59, 96
4, 12976, Note_on_c, 2, 59, 0
4, 12980, Note_on_c, 2, 57, 97
4, 13460, Note_on_c, 2, 57, 0
4, 14660, Note_on_c, 2, 59, 90
4, 14900, Note_on_c, 2, 59, 0
4, 14900, Note_on_c, 2, 64, 92
4, 15620, Note_on_c, 2, 64, 0
4, 15620, Note_on_c, 2, 62, 85
4, 15860, Note_on_c, 2, 62, 0
4, 15860, Note_on_c, 2, 61, 88
4, 16096, Note_on_c, 2, 61, 0
4, 16100, Note_on_c, 2, 62, 85
4, 16336, Note_on_c, 2, 62, 0
4, 16340, Note_on_c, 2, 64, 93
4, 17296, Note_on_c, 2, 64, 0
4, 17780, Note_on_c, 2, 57, 86
4, 18736, Note_on_c, 2, 57, 0
4, 19220, Note_on_c, 2, 59, 96
4, 19700, Note_on_c, 2, 59, 0
4, 22340, Note_on_c, 2, 57, 96
4, 22580, Note_on_c, 2, 57, 0
4, 22580, Note_on_c, 2, 62, 96
4, 23060, Note_on_c, 2, 62, 0
4, 23300, Note_on_c, 2, 64, 98
4, 23540, Note_on_c, 2, 64, 0
4, 23540, Note_on_c, 2, 66, 92
4, 23600, Note_on_c, 2, 66, 0
4, 23600, Note_on_c, 2, 64, 92
4, 23660, Note_on_c, 2, 64, 0
4, 23660, Note_on_c, 2, 66, 92
4, 24380, Note_on_c, 2, 66, 0
4, 24740, Note_on_c, 2, 60, 100
4, 24976, Note_on_c, 2, 60, 0
4, 24980, Note_on_c, 2, 62, 83
4, 25936, Note_on_c, 2, 62, 0
4, 26180, Note_on_c, 2, 64, 98
4, 26416, Note_on_c, 2, 64, 0
4, 26420, Note_on_c, 2, 67, 111
4, 26900, Note_on_c, 2, 67, 0
4, 26900, Note_on_c, 2, 66, 88
4, 26960, Note_on_c, 2, 66, 0
4, 26960, Note_on_c, 2, 67, 88
4, 27020, Note_on_c, 2, 67, 0
4, 27020, Note_on_c, 2, 66, 88
4, 27140, Note_on_c, 2, 66, 0
4, 27140, Note_on_c, 2, 64, 88
4, 27376, Note_on_c, 2, 64, 0
4, 27380, Note_on_c, 2, 63, 102
4, 27616, Note_on_c, 2, 63, 0
4, 27620, Note_on_c, 2, 64, 100
4, 27856, Note_on_c, 2, 64, 0
4, 27860, Note_on_c, 2, 66, 86
4, 28816, Note_on_c, 2, 66, 0
4, 29060, Note_on_c, 2, 57, 106
4, 29300, Note_on_c, 2, 57, 0
4, 29300, Note_on_c, 2, 55, 92
4, 29360, Note_on_c, 2, 55, 0
4, 29360, Note_on_c, 2, 57, 92
4, 29420, Note_on_c, 2, 57, 0
4, 29420, Note_on_c, 2, 55, 92
4, 29540, Note_on_c, 2, 55, 0
4, 29540, Note_on_c, 2, 54, 92
4, 29776, Note_on_c, 2, 54, 0
4, 29780, Note_on_c, 2, 55, 84
4, 30260, Note_on_c, 2, 55, 0
4, 30500, Note_on_c, 2, 57, 97
4, 30740, Note_on_c, 2, 57, 0
4, 30740, Note_on_c, 2, 55, 85
4, 30800, Note_on_c, 2, 55, 0
4, 30800, Note_on_c, 2, 57, 85
4, 30860, Note_on_c, 2, 57, 0
4, 30860, Note_on_c, 2, 55, 85
4, 30980, Note_on_c, 2, 55, 0
4, 30980, Note_on_c, 2, 54, 80
4, 31216, Note_on_c, 2, 54, 0
4, 31220, Note_on_c, 2, 55, 86
4, 31456, Note_on_c, 2, 55, 0
4, 31460, Note_on_c, 2, 59, 97
4, 31700, Note_on_c, 2, 59, 0
4, 32900, Note_on_c, 2, 51, 107
4, 33140, Note_on_c, 2, 51, 0
4, 33140, Note_on_c, 2, 52, 107
4, 33620, Note_on_c, 2, 52, 0
4, 35060, Note_on_c, 2, 52, 71
4, 36016, Note_on_c, 2, 52, 0
4, 36260, Note_on_c, 2, 54, 99
4, 36496, Note_on_c, 2, 54, 0
4, 36500, Note_on_c, 2, 52, 90
4, 36616, Note_on_c, 2, 52, 0
4, 36620, Note_on_c, 2, 50, 85
4, 36736, Note_on_c, 2, 50, 0
4, 36740, Note_on_c, 2, 52, 83
4, 36856, Note_on_c, 2, 52, 0
4, 36860, Note_on_c, 2, 54, 76
4, 36976, Note_on_c, 2, 54, 0
4, 36980, Note_on_c, 2, 55, 76
4, 37096, Note_on_c, 2, 55, 0
4, 37100, Note_on_c, 2, 54, 81
4, 37216, Note_on_c, 2, 54, 0
4, 37220, Note_on_c, 2, 55, 80
4, 37696, Note_on_c, 2, 55, 0
4, 37700, Note_on_c, 2, 52, 81
4, 37936, Note_on_c, 2, 52, 0
4, 37940, Note_on_c, 2, 57, 77
4, 38176, Note_on_c, 2, 57, 0
4, 44780, Note_on_c, 2, 60, 75
4, 44896, Note_on_c, 2, 60, 0
4, 44900, Note_on_c, 2, 59, 66
4, 45016, Note_on_c, 2, 59, 0
4, 45020, Note_on_c, 2, 57, 69
4, 45136, Note_on_c, 2, 57, 0
4, 45140, Note_on_c, 2, 59, 80
4, 46080, Note_on_c, 2, 59, 0
4, 86400, End_track
5, 0, Start_track
5, 0, Title_t, "goldberg.mid"
5, 20, Note_on_c, 3, 55, 78
5, 1456, Note_on_c, 3, 55, 0
5, 1460, Note_on_c, 3, 54, 80
5, 2896, Note_on_c, 3, 54, 0
5, 2900, Note_on_c, 3, 52, 85
5, 4336, Note_on_c, 3, 52, 0
5, 4340, Note_on_c, 3, 50, 82
5, 5296, Note_on_c, 3, 50, 0
5, 5540, Note_on_c, 3, 48, 80
5, 5776, Note_on_c, 3, 48, 0
5, 5780, Note_on_c, 3, 47, 85
5, 7216, Note_on_c, 3, 47, 0
5, 7220, Note_on_c, 3, 48, 96
5, 8416, Note_on_c, 3, 48, 0
5, 8420, Note_on_c, 3, 50, 89
5, 8656, Note_on_c, 3, 50, 0
5, 8660, Note_on_c, 3, 52, 82
5, 8896, Note_on_c, 3, 52, 0
5, 8900, Note_on_c, 3, 48, 77
5, 9136, Note_on_c, 3, 48, 0
5, 9140, Note_on_c, 3, 50, 92
5, 10096, Note_on_c, 3, 50, 0
5, 10100, Note_on_c, 3, 43, 82
5, 10816, Note_on_c, 3, 43, 0
5, 10820, Note_on_c, 3, 50, 85
5, 11056, Note_on_c, 3, 50, 0
5, 11060, Note_on_c, 3, 52, 86
5, 11120, Note_on_c, 3, 52, 0
5, 11120, Note_on_c, 3, 50, 86
5, 11180, Note_on_c, 3, 50, 0
5, 11180, Note_on_c, 3, 52, 86
5, 11420, Note_on_c, 3, 52, 0
5, 11420, Note_on_c, 3, 54, 80
5, 11540, Note_on_c, 3, 54, 0
5, 11540, Note_on_c, 3, 55, 90
5, 13460, Note_on_c, 3, 55, 0
5, 13460, Note_on_c, 3, 55, 77
5, 13520, Note_on_c, 3, 55, 0
5, 13520, Note_on_c, 3, 54, 77
5, 13580, Note_on_c, 3, 54, 0
5, 13580, Note_on_c, 3, 55, 77
5, 13640, Note_on_c, 3, 55, 0
5, 13640, Note_on_c, 3, 54, 77
5, 13700, Note_on_c, 3, 54, 0
5, 13700, Note_on_c, 3, 52, 71
5, 13936, Note_on_c, 3, 52, 0
5, 13940, Note_on_c, 3, 54, 96
5, 14180, Note_on_c, 3, 54, 0
5, 14180, Note_on_c, 3, 59, 92
5, 14420, Note_on_c, 3, 59, 0
5, 14420, Note_on_c, 3, 52, 88
5, 15136, Note_on_c, 3, 52, 0
5, 15140, Note_on_c, 3, 52, 109
5, 15376, Note_on_c, 3, 52, 0
5, 15380, Note_on_c, 3, 54, 96
5, 15616, Note_on_c, 3, 54, 0
5, 15620, Note_on_c, 3, 55, 81
5, 15856, Note_on_c, 3, 55, 0
5, 15860, Note_on_c, 3, 57, 80
5, 16580, Note_on_c, 3, 57, 0
5, 16580, Note_on_c, 3, 59, 100
5, 16816, Note_on_c, 3, 59, 0
5, 16820, Note_on_c, 3, 57, 66
5, 17056, Note_on_c, 3, 57, 0
5, 17060, Note_on_c, 3, 55, 73
5, 17296, Note_on_c, 3, 55, 0
5, 17300, Note_on_c, 3, 54, 70
5, 18740, Note_on_c, 3, 54, 0
5, 18740, Note_on_c, 3, 55, 83
5, 20176, Note_on_c, 3, 55, 0
5, 20180, Note_on_c, 3, 57, 89
5, 21616, Note_on_c, 3, 57, 0
5, 21620, Note_on_c, 3, 50, 96
5, 23056, Note_on_c, 3, 50, 0
5, 23060, Note_on_c, 3, 62, 98
5, 24020, Note_on_c, 3, 62, 0
5, 24020, Note_on_c, 3, 60, 86
5, 24496, Note_on_c, 3, 60, 0
5, 24500, Note_on_c, 3, 59, 82
5, 25216, Note_on_c, 3, 59, 0
5, 25220, Note_on_c, 3, 57, 90
5, 25456, Note_on_c, 3, 57, 0
5, 25460, Note_on_c, 3, 59, 89
5, 25936, Note_on_c, 3, 59, 0
5, 25940, Note_on_c, 3, 60, 96
5, 26656, Note_on_c, 3, 60, 0
5, 26660, Note_on_c, 3, 59, 88
5, 26896, Note_on_c, 3, 59, 0
5, 26900, Note_on_c, 3, 57, 82
5, 27376, Note_on_c, 3, 57, 0
5, 27380, Note_on_c, 3, 59, 89
5, 28096, Note_on_c, 3, 59, 0
5, 28100, Note_on_c, 3, 57, 80
5, 28336, Note_on_c, 3, 57, 0
5, 28340, Note_on_c, 3, 55, 79
5, 28576, Note_on_c, 3, 55, 0
5, 28580, Note_on_c, 3, 54, 93
5, 28816, Note_on_c, 3, 54, 0
5, 28820, Note_on_c, 3, 52, 89
5, 29780, Note_on_c, 3, 52, 0
5, 29780, Note_on_c, 3, 50, 90
5, 30256, Note_on_c, 3, 50, 0
5, 30260, Note_on_c, 3, 48, 97
5, 31216, Note_on_c, 3, 48, 0
5, 31220, Note_on_c, 3, 47, 100
5, 31696, Note_on_c, 3, 47, 0
5, 31700, Note_on_c, 3, 45, 96
5, 31936, Note_on_c, 3, 45, 0
5, 31940, Note_on_c, 3, 48, 91
5, 32176, Note_on_c, 3, 48, 0
5, 32180, Note_on_c, 3, 47, 102
5, 32416, Note_on_c, 3, 47, 0
5, 32420, Note_on_c, 3, 45, 88
5, 32656, Note_on_c, 3, 45, 0
5, 32660, Note_on_c, 3, 47, 107
5, 33136, Note_on_c, 3, 47, 0
5, 33140, Note_on_c, 3, 52, 117
5, 33376, Note_on_c, 3, 52, 0
5, 33380, Note_on_c, 3, 47, 117
5, 33616, Note_on_c, 3, 47, 0
5, 33620, Note_on_c, 3, 40, 100
5, 33856, Note_on_c, 3, 40, 0
5, 33860, Note_on_c, 3, 47, 96
5, 34096, Note_on_c, 3, 47, 0
5, 34100, Note_on_c, 3, 52, 90
5, 34336, Note_on_c, 3, 52, 0
5, 34340, Note_on_c, 3, 50, 80
5, 34576, Note_on_c, 3, 50, 0
5, 34580, Note_on_c, 3, 48, 85
5, 36016, Note_on_c, 3, 48, 0
5, 36020, Note_on_c, 3, 47, 90
5, 37456, Note_on_c, 3, 47, 0
5, 37460, Note_on_c, 3, 45, 85
5, 38176, Note_on_c, 3, 45, 0
5, 38180, Note_on_c, 3, 43, 71
5, 38416, Note_on_c, 3, 43, 0
5, 38420, Note_on_c, 3, 42, 96
5, 38656, Note_on_c, 3, 42, 0
5, 38660, Note_on_c, 3, 40, 77
5, 38896, Note_on_c, 3, 40, 0
5, 38900, Note_on_c, 3, 38, 91
5, 39136, Note_on_c, 3, 38, 0
5, 39140, Note_on_c, 3, 45, 93
5, 39376, Note_on_c, 3, 45, 0
5, 39380, Note_on_c, 3, 50, 102
5, 39616, Note_on_c, 3, 50, 0
5, 39620, Note_on_c, 3, 48, 95
5, 39856, Note_on_c, 3, 48, 0
5, 39860, Note_on_c, 3, 47, 91
5, 40096, Note_on_c, 3, 47, 0
5, 40100, Note_on_c, 3, 45, 86
5, 40336, Note_on_c, 3, 45, 0
5, 40340, Note_on_c, 3, 43, 96
5, 40576, Note_on_c, 3, 43, 0
5, 40580, Note_on_c, 3, 50, 96
5, 40816, Note_on_c, 3, 50, 0
5, 40820, Note_on_c, 3, 55, 104
5, 41056, Note_on_c, 3, 55, 0
5, 41060, Note_on_c, 3, 53, 81
5, 41296, Note_on_c, 3, 53, 0
5, 41300, Note_on_c, 3, 52, 91
5, 41536, Note_on_c, 3, 52, 0
5, 41540, Note_on_c, 3, 50, 80
5, 41776, Note_on_c, 3, 50, 0
5, 41780, Note_on_c, 3, 48, 95
5, 42016, Note_on_c, 3, 48, 0
5, 42020, Note_on_c, 3, 55, 88
5, 42256, Note_on_c, 3, 55, 0
5, 42260, Note_on_c, 3, 60, 101
5, 42496, Note_on_c, 3, 60, 0
5, 42500, Note_on_c, 3, 59, 93
5, 42736, Note_on_c, 3, 59, 0
5, 42740, Note_on_c, 3, 57, 95
5, 42976, Note_on_c, 3, 57, 0
5, 42980, Note_on_c, 3, 55, 80
5, 43216, Note_on_c, 3, 55, 0
5, 43220, Note_on_c, 3, 54, 96
5, 43456, Note_on_c, 3, 54, 0
5, 43460, Note_on_c, 3, 50, 88
5, 43696, Note_on_c, 3, 50, 0
5, 43700, Note_on_c, 3, 55, 88
5, 43936, Note_on_c, 3, 55, 0
5, 43940, Note_on_c, 3, 59, 98
5, 44176, Note_on_c, 3, 59, 0
5, 44180, Note_on_c, 3, 62, 106
5, 44416, Note_on_c, 3, 62, 0
5, 44420, Note_on_c, 3, 50, 90
5, 44656, Note_on_c, 3, 50, 0
5, 44660, Note_on_c, 3, 55, 91
5, 45380, Note_on_c, 3, 55, 0
5, 45380, Note_on_c, 3, 50, 88
5, 45616, Note_on_c, 3, 50, 0
5, 45620, Note_on_c, 3, 43, 81
5, 46080, Note_on_c, 3, 43, 0
5, 86400, End_track
0, 0, End_of_file
