0, 0, Header, 1, 5, 480
1, 0, Start_track
1, 0, SMPTE_offset, 96, 0, 0, 0, 0
1, 0, Time_signature, 3, 2, 24, 8
1, 20, Tempo, 800000
1, 45324, Tempo, 810810
1, 45340, Tempo, 845070
1, 45356, Tempo, 857142
1, 45368, Tempo, 882352
1, 45408, Tempo, 909090
1, 45424, Tempo, 952380
1, 45436, Tempo, 967741
1, 45444, Tempo, 1000000
1, 45452, Tempo, 1016949
1, 45456, Tempo, 1034482
1, 45728, Tempo, 1016949
1, 45736, Tempo, 1034482
1, 45748, Tempo, 1071428
1, 45760, Tempo, 1090909
1, 45776, Tempo, 1111111
1, 45784, Tempo, 6000000
1, 45796, Tempo, 5000000
1, 46080, End_track
2, 0, Start_track
2, 0, Title_t, "goldberg.mid"
2, 260, Note_on_c, 0, 71, 113
2, 496, Note_on_c, 0, 71, 0
2, 500, Note_on_c, 0, 67, 111
2, 736, Note_on_c, 0, 67, 0
2, 740, Note_on_c, 0, 74, 101
2, 976, Note_on_c, 0, 74, 0
2, 980, Note_on_c, 0, 69, 104
2, 1216, Note_on_c, 0, 69, 0
2, 1220, Note_on_c, 0, 74, 101
2, 1456, Note_on_c, 0, 74, 0
2, 1460, Note_on_c, 0, 79, 121
2, 2416, Note_on_c, 0, 79, 0
2, 2420, Note_on_c, 0, 78, 102
2, 2656, Note_on_c, 0, 78, 0
2, 4580, Note_on_c, 0, 69, 104
2, 4816, Note_on_c, 0, 69, 0
2, 4820, Note_on_c, 0, 72, 117
2, 5176, Note_on_c, 0, 72, 0
2, 5180, Note_on_c, 0, 69, 102
2, 5296, Note_on_c, 0, 69, 0
2, 5300, Note_on_c, 0, 71, 106
2, 5776, Note_on_c, 0, 71, 0
2, 6020, Note_on_c, 0, 76, 117
2, 6256, Note_on_c, 0, 76, 0
2, 6260, Note_on_c, 0, 79, 107
2, 6496, Note_on_c, 0, 79, 0
2, 6500, Note_on_c, 0, 73, 121
2, 6736, Note_on_c, 0, 73, 0
2, 6740, Note_on_c, 0, 81, 126
2, 7216, Note_on_c, 0, 81, 0
2, 7220, Note_on_c, 0, 74, 107
2, 7456, Note_on_c, 0, 74, 0
2, 7460, Note_on_c, 0, 79, 115
2, 8176, Note_on_c, 0, 79, 0
2, 8180, Note_on_c, 0, 78, 108
2, 8416, Note_on_c, 0, 78, 0
2, 8420, Note_on_c, 0, 76, 117
2, 8896, Note_on_c, 0, 76, 0
2, 8900, Note_on_c, 0, 74, 106
2, 9136, Note_on_c, 0, 74, 0
2, 9140, Note_on_c, 0, 72, 111
2, 9616, Note_on_c, 0, 72, 0
2, 9620, Note_on_c, 0, 71, 115
2, 10096, Note_on_c, 0, 71, 0
2, 10100, Note_on_c, 0, 69, 101
2, 10336, Note_on_c, 0, 69, 0
2, 10340, Note_on_c, 0, 74, 97
2, 10576, Note_on_c, 0, 74, 0
2, 10580, Note_on_c, 0, 73, 125
2, 11056, Note_on_c, 0, 73, 0
2, 11060, Note_on_c, 0, 74, 119
2, 11416, Note_on_c, 0, 74, 0
2, 11780, Note_on_c, 0, 71, 115
2, 12016, Note_on_c, 0, 71, 0
2, 12020, Note_on_c, 0, 67, 101
2, 12256, Note_on_c, 0, 67, 0
2, 12260, Note_on_c, 0, 74, 111
2, 12496, Note_on_c, 0, 74, 0
2, 12500, Note_on_c, 0, 69, 96
2, 12736, Note_on_c, 0, 69, 0
2, 12740, Note_on_c, 0, 74, 104
2, 12976, Note_on_c, 0, 74, 0
2, 12980, Note_on_c, 0, 79, 123
2, 13936, Note_on_c, 0, 79, 0
2, 13940, Note_on_c, 0, 78, 127
2, 14296, Note_on_c, 0, 78, 0
2, 16100, Note_on_c, 0, 69, 107
2, 16336, Note_on_c, 0, 69, 0
2, 16340, Note_on_c, 0, 72, 126
2, 16696, Note_on_c, 0, 72, 0
2, 16700, Note_on_c, 0, 69, 100
2, 16816, Note_on_c, 0, 69, 0
2, 16820, Note_on_c, 0, 71, 106
2, 17296, Note_on_c, 0, 71, 0
2, 17540, Note_on_c, 0, 76, 115
2, 17776, Note_on_c, 0, 76, 0
2, 17780, Note_on_c, 0, 79, 115
2, 18016, Note_on_c, 0, 79, 0
2, 18020, Note_on_c, 0, 73, 117
2, 18256, Note_on_c, 0, 73, 0
2, 18260, Note_on_c, 0, 81, 126
2, 18736, Note_on_c, 0, 81, 0
2, 18740, Note_on_c, 0, 74, 106
2, 18976, Note_on_c, 0, 74, 0
2, 18980, Note_on_c, 0, 79, 119
2, 19696, Note_on_c, 0, 79, 0
2, 19700, Note_on_c, 0, 78, 112
2, 19936, Note_on_c, 0, 78, 0
2, 19940, Note_on_c, 0, 76, 113
2, 20420, Note_on_c, 0, 76, 0
2, 20420, Note_on_c, 0, 74, 107
2, 20656, Note_on_c, 0, 74, 0
2, 20660, Note_on_c, 0, 72, 113
2, 21140, Note_on_c, 0, 72, 0
2, 21140, Note_on_c, 0, 71, 117
2, 21616, Note_on_c, 0, 71, 0
2, 21620, Note_on_c, 0, 69, 107
2, 21856, Note_on_c, 0, 69, 0
2, 21860, Note_on_c, 0, 74, 115
2, 22096, Note_on_c, 0, 74, 0
2, 22100, Note_on_c, 0, 73, 115
2, 22576, Note_on_c, 0, 73, 0
2, 22580, Note_on_c, 0, 74, 119
2, 22936, Note_on_c, 0, 74, 0
2, 23300, Note_on_c, 0, 78, 125
2, 23536, Note_on_c, 0, 78, 0
2, 23540, Note_on_c, 0, 74, 102
2, 23776, Note_on_c, 0, 74, 0
2, 23780, Note_on_c, 0, 79, 117
2, 24016, Note_on_c, 0, 79, 0
2, 24020, Note_on_c, 0, 83, 126
2, 24736, Note_on_c, 0, 83, 0
2, 24740, Note_on_c, 0, 81, 111
2, 24856, Note_on_c, 0, 81, 0
2, 24860, Note_on_c, 0, 79, 104
2, 24976, Note_on_c, 0, 79, 0
2, 24980, Note_on_c, 0, 78, 110
2, 25096, Note_on_c, 0, 78, 0
2, 25100, Note_on_c, 0, 76, 92
2, 25216, Note_on_c, 0, 76, 0
2, 25220, Note_on_c, 0, 75, 99
2, 25336, Note_on_c, 0, 75, 0
2, 25340, Note_on_c, 0, 76, 95
2, 25456, Note_on_c, 0, 76, 0
2, 25460, Note_on_c, 0, 78, 119
2, 26176, Note_on_c, 0, 78, 0
2, 26180, Note_on_c, 0, 76, 115
2, 26416, Note_on_c, 0, 76, 0
2, 26420, Note_on_c, 0, 79, 101
2, 26656, Note_on_c, 0, 79, 0
2, 26660, Note_on_c, 0, 73, 117
2, 26900, Note_on_c, 0, 73, 0
2, 26900, Note_on_c, 0, 75, 112
2, 27140, Note_on_c, 0, 75, 0
2, 27140, Note_on_c, 0, 76, 115
2, 27612, Note_on_c, 0, 75, 123
2, 27620, Note_on_c, 0, 76, 0
2, 27720, Note_on_c, 0, 75, 0
2, 27724, Note_on_c, 0, 73, 123
2, 27840, Note_on_c, 0, 73, 0
2, 27840, Note_on_c, 0, 71, 104
2, 27948, Note_on_c, 0, 69, 100
2, 28008, Note_on_c, 0, 71, 0
2, 28032, Note_on_c, 0, 69, 0
2, 28036, Note_on_c, 0, 67, 109
2, 28068, Note_on_c, 0, 67, 0
2, 28068, Note_on_c, 0, 69, 98
2, 28108, Note_on_c, 0, 67, 107
2, 28116, Note_on_c, 0, 69, 0
2, 28196, Note_on_c, 0, 67, 0
2, 28208, Note_on_c, 0, 66, 106
2, 28320, Note_on_c, 0, 66, 0
2, 28328, Note_on_c, 0, 64, 123
2, 28756, Note_on_c, 0, 64, 0
2, 29060, Note_on_c, 0, 72, 106
2, 29296, Note_on_c, 0, 72, 0
2, 29300, Note_on_c, 0, 76, 104
2, 29536, Note_on_c, 0, 76, 0
2, 29540, Note_on_c, 0, 69, 107
2, 29776, Note_on_c, 0, 69, 0
2, 29780, Note_on_c, 0, 71, 98
2, 30016, Note_on_c, 0, 71, 0
2, 30020, Note_on_c, 0, 74, 104
2, 30256, Note_on_c, 0, 74, 0
2, 30260, Note_on_c, 0, 67, 109
2, 30496, Note_on_c, 0, 67, 0
2, 30500, Note_on_c, 0, 72, 113
2, 31216, Note_on_c, 0, 72, 0
2, 31220, Note_on_c, 0, 74, 111
2, 31456, Note_on_c, 0, 74, 0
2, 31460, Note_on_c, 0, 72, 104
2, 31696, Note_on_c, 0, 72, 0
2, 31700, Note_on_c, 0, 71, 104
2, 31816, Note_on_c, 0, 71, 0
2, 31820, Note_on_c, 0, 72, 104
2, 31936, Note_on_c, 0, 72, 0
2, 31940, Note_on_c, 0, 74, 106
2, 32536, Note_on_c, 0, 74, 0
2, 32540, Note_on_c, 0, 72, 102
2, 32656, Note_on_c, 0, 72, 0
2, 32660, Note_on_c, 0, 74, 95
2, 32776, Note_on_c, 0, 74, 0
2, 32780, Note_on_c, 0, 72, 104
2, 32896, Note_on_c, 0, 72, 0
2, 32900, Note_on_c, 0, 71, 83
2, 33016, Note_on_c, 0, 71, 0
2, 33020, Note_on_c, 0, 69, 76
2, 33136, Note_on_c, 0, 69, 0
2, 33140, Note_on_c, 0, 74, 102
2, 33380, Note_on_c, 0, 74, 0
2, 33380, Note_on_c, 0, 67, 106
2, 33616, Note_on_c, 0, 67, 0
2, 33620, Note_on_c, 0, 66, 108
2, 34096, Note_on_c, 0, 66, 0
2, 34100, Note_on_c, 0, 67, 109
2, 34340, Note_on_c, 0, 67, 0
2, 34820, Note_on_c, 0, 78, 115
2, 35056, Note_on_c, 0, 78, 0
2, 35060, Note_on_c, 0, 74, 101
2, 35296, Note_on_c, 0, 74, 0
2, 35300, Note_on_c, 0, 79, 109
2, 35536, Note_on_c, 0, 79, 0
2, 35540, Note_on_c, 0, 83, 124
2, 36256, Note_on_c, 0, 83, 0
2, 36260, Note_on_c, 0, 81, 106
2, 36376, Note_on_c, 0, 81, 0
2, 36380, Note_on_c, 0, 79, 104
2, 36496, Note_on_c, 0, 79, 0
2, 36500, Note_on_c, 0, 78, 110
2, 36616, Note_on_c, 0, 78, 0
2, 36620, Note_on_c, 0, 76, 95
2, 36736, Note_on_c, 0, 76, 0
2, 36740, Note_on_c, 0, 75, 108
2, 36856, Note_on_c, 0, 75, 0
2, 36860, Note_on_c, 0, 76, 92
2, 36976, Note_on_c, 0, 76, 0
2, 36980, Note_on_c, 0, 78, 108
2, 37696, Note_on_c, 0, 78, 0
2, 37700, Note_on_c, 0, 76, 111
2, 37936, Note_on_c, 0, 76, 0
2, 37940, Note_on_c, 0, 79, 102
2, 38176, Note_on_c, 0, 79, 0
2, 38180, Note_on_c, 0, 73, 112
2, 38416, Note_on_c, 0, 73, 0
2, 38420, Note_on_c, 0, 75, 115
2, 38656, Note_on_c, 0, 75, 0
2, 38660, Note_on_c, 0, 76, 109
2, 39136, Note_on_c, 0, 76, 0
2, 39144, Note_on_c, 0, 75, 117
2, 39260, Note_on_c, 0, 75, 0
2, 39260, Note_on_c, 0, 73, 121
2, 39368, Note_on_c, 0, 73, 0
2, 39368, Note_on_c, 0, 71, 102
2, 39480, Note_on_c, 0, 69, 95
2, 39488, Note_on_c, 0, 71, 0
2, 39572, Note_on_c, 0, 69, 0
2, 39572, Note_on_c, 0, 67, 104
2, 39608, Note_on_c, 0, 67, 0
2, 39608, Note_on_c, 0, 69, 106
2, 39644, Note_on_c, 0, 67, 97
2, 39652, Note_on_c, 0, 69, 0
2, 39728, Note_on_c, 0, 67, 0
2, 39744, Note_on_c, 0, 66, 110
2, 39864, Note_on_c, 0, 66, 0
2, 39868, Note_on_c, 0, 64, 121
2, 40300, Note_on_c, 0, 64, 0
2, 40580, Note_on_c, 0, 72, 109
2, 40816, Note_on_c, 0, 72, 0
2, 40820, Note_on_c, 0, 76, 102
2, 41056, Note_on_c, 0, 76, 0
2, 41060, Note_on_c, 0, 69, 101
2, 41296, Note_on_c, 0, 69, 0
2, 41300, Note_on_c, 0, 71, 98
2, 41536, Note_on_c, 0, 71, 0
2, 41540, Note_on_c, 0, 74, 98
2, 41776, Note_on_c, 0, 74, 0
2, 41780, Note_on_c, 0, 67, 100
2, 42016, Note_on_c, 0, 67, 0
2, 42020, Note_on_c, 0, 72, 109
2, 42736, Note_on_c, 0, 72, 0
2, 42740, Note_on_c, 0, 74, 111
2, 42976, Note_on_c, 0, 74, 0
2, 42980, Note_on_c, 0, 72, 109
2, 43216, Note_on_c, 0, 72, 0
2, 43220, Note_on_c, 0, 71, 106
2, 43336, Note_on_c, 0, 71, 0
2, 43340, Note_on_c, 0, 72, 101
2, 43456, Note_on_c, 0, 72, 0
2, 43460, Note_on_c, 0, 74, 102
2, 44056, Note_on_c, 0, 74, 0
2, 44060, Note_on_c, 0, 72, 96
2, 44176, Note_on_c, 0, 72, 0
2, 44180, Note_on_c, 0, 74, 104
2, 44296, Note_on_c, 0, 74, 0
2, 44300, Note_on_c, 0, 72, 96
2, 44416, Note_on_c, 0, 72, 0
2, 44420, Note_on_c, 0, 71, 97
2, 44536, Note_on_c, 0, 71, 0
2, 44540, Note_on_c, 0, 69, 102
2, 44656, Note_on_c, 0, 69, 0
2, 44660, Note_on_c, 0, 74, 109
2, 44896, Note_on_c, 0, 74, 0
2, 44900, Note_on_c, 0, 67, 111
2, 45136, Note_on_c, 0, 67, 0
2, 45140, Note_on_c, 0, 66, 117
2, 45616, Note_on_c, 0, 66, 0
2, 45620, Note_on_c, 0, 67, 98
2, 45856, Note_on_c, 0, 67, 0
2, 46080, End_track
3, 0, Start_track
3, 0, Title_t, "goldberg.mid"
3, 980, Note_on_c, 1, 62, 113
3, 1216, Note_on_c, 1, 62, 0
3, 1220, Note_on_c, 1, 66, 112
3, 1456, Note_on_c, 1, 66, 0
3, 1460, Note_on_c, 1, 59, 107
3, 1696, Note_on_c, 1, 59, 0
3, 1700, Note_on_c, 1, 67, 109
3, 1936, Note_on_c, 1, 67, 0
3, 1940, Note_on_c, 1, 72, 113
3, 2176, Note_on_c, 1, 72, 0
3, 2180, Note_on_c, 1, 71, 106
3, 2296, Note_on_c, 1, 71, 0
3, 2300, Note_on_c, 1, 67, 107
3, 2416, Note_on_c, 1, 67, 0
3, 2420, Note_on_c, 1, 69, 104
3, 2656, Note_on_c, 1, 69, 0
3, 3860, Note_on_c, 1, 60, 117
3, 4096, Note_on_c, 1, 60, 0
3, 4100, Note_on_c, 1, 64, 111
3, 4336, Note_on_c, 1, 64, 0
3, 4340, Note_on_c, 1, 57, 117
3, 4576, Note_on_c, 1, 57, 0
3, 4580, Note_on_c, 1, 62, 117
3, 5296, Note_on_c, 1, 62, 0
3, 5300, Note_on_c, 1, 67, 117
3, 5536, Note_on_c, 1, 67, 0
3, 7460, Note_on_c, 1, 73, 125
3, 7696, Note_on_c, 1, 73, 0
3, 7700, Note_on_c, 1, 76, 124
3, 7936, Note_on_c, 1, 76, 0
3, 7940, Note_on_c, 1, 69, 126
3, 8416, Note_on_c, 1, 69, 0
3, 8420, Note_on_c, 1, 67, 123
3, 8896, Note_on_c, 1, 67, 0
3, 8900, Note_on_c, 1, 66, 117
3, 9136, Note_on_c, 1, 66, 0
3, 9140, Note_on_c, 1, 69, 115
3, 9376, Note_on_c, 1, 69, 0
3, 9380, Note_on_c, 1, 62, 115
3, 9616, Note_on_c, 1, 62, 0
3, 9620, Note_on_c, 1, 64, 115
3, 9856, Note_on_c, 1, 64, 0
3, 9860, Note_on_c, 1, 67, 115
3, 10096, Note_on_c, 1, 67, 0
3, 10100, Note_on_c, 1, 61, 119
3, 10336, Note_on_c, 1, 61, 0
3, 10340, Note_on_c, 1, 69, 113
3, 10576, Note_on_c, 1, 69, 0
3, 10580, Note_on_c, 1, 67, 115
3, 10936, Note_on_c, 1, 67, 0
3, 10940, Note_on_c, 1, 64, 111
3, 11056, Note_on_c, 1, 64, 0
3, 11060, Note_on_c, 1, 66, 117
3, 11536, Note_on_c, 1, 66, 0
3, 12500, Note_on_c, 1, 62, 113
3, 12736, Note_on_c, 1, 62, 0
3, 12740, Note_on_c, 1, 66, 110
3, 12976, Note_on_c, 1, 66, 0
3, 12980, Note_on_c, 1, 59, 117
3, 13216, Note_on_c, 1, 59, 0
3, 13220, Note_on_c, 1, 67, 119
3, 13456, Note_on_c, 1, 67, 0
3, 13460, Note_on_c, 1, 72, 121
3, 13696, Note_on_c, 1, 72, 0
3, 13700, Note_on_c, 1, 71, 106
3, 13816, Note_on_c, 1, 71, 0
3, 13820, Note_on_c, 1, 67, 107
3, 13936, Note_on_c, 1, 67, 0
3, 13940, Note_on_c, 1, 69, 104
3, 14176, Note_on_c, 1, 69, 0
3, 15380, Note_on_c, 1, 60, 117
3, 15616, Note_on_c, 1, 60, 0
3, 15620, Note_on_c, 1, 64, 119
3, 15856, Note_on_c, 1, 64, 0
3, 15860, Note_on_c, 1, 57, 115
3, 16096, Note_on_c, 1, 57, 0
3, 16100, Note_on_c, 1, 62, 121
3, 16816, Note_on_c, 1, 62, 0
3, 16820, Note_on_c, 1, 67, 117
3, 17056, Note_on_c, 1, 67, 0
3, 18980, Note_on_c, 1, 73, 125
3, 19216, Note_on_c, 1, 73, 0
3, 19220, Note_on_c, 1, 76, 123
3, 19456, Note_on_c, 1, 76, 0
3, 19460, Note_on_c, 1, 69, 117
3, 19936, Note_on_c, 1, 69, 0
3, 19940, Note_on_c, 1, 67, 121
3, 20416, Note_on_c, 1, 67, 0
3, 20420, Note_on_c, 1, 66, 125
3, 20656, Note_on_c, 1, 66, 0
3, 20660, Note_on_c, 1, 69, 113
3, 20896, Note_on_c, 1, 69, 0
3, 20900, Note_on_c, 1, 62, 113
3, 21136, Note_on_c, 1, 62, 0
3, 21140, Note_on_c, 1, 64, 107
3, 21376, Note_on_c, 1, 64, 0
3, 21380, Note_on_c, 1, 67, 113
3, 21616, Note_on_c, 1, 67, 0
3, 21620, Note_on_c, 1, 61, 121
3, 21856, Note_on_c, 1, 61, 0
3, 21860, Note_on_c, 1, 69, 113
3, 22096, Note_on_c, 1, 69, 0
3, 22100, Note_on_c, 1, 67, 117
3, 22456, Note_on_c, 1, 67, 0
3, 22460, Note_on_c, 1, 64, 113
3, 22576, Note_on_c, 1, 64, 0
3, 22580, Note_on_c, 1, 66, 115
3, 22816, Note_on_c, 1, 66, 0
3, 24020, Note_on_c, 1, 74, 107
3, 24256, Note_on_c, 1, 74, 0
3, 24260, Note_on_c, 1, 71, 115
3, 24496, Note_on_c, 1, 71, 0
3, 24500, Note_on_c, 1, 67, 115
3, 24736, Note_on_c, 1, 67, 0
3, 24740, Note_on_c, 1, 69, 104
3, 24976, Note_on_c, 1, 69, 0
3, 24980, Note_on_c, 1, 72, 117
3, 25216, Note_on_c, 1, 72, 0
3, 25220, Note_on_c, 1, 66, 119
3, 25696, Note_on_c, 1, 66, 0
3, 26180, Note_on_c, 1, 71, 113
3, 26416, Note_on_c, 1, 71, 0
3, 26420, Note_on_c, 1, 67, 111
3, 26656, Note_on_c, 1, 67, 0
3, 26660, Note_on_c, 1, 64, 117
3, 26896, Note_on_c, 1, 64, 0
3, 26900, Note_on_c, 1, 66, 115
3, 27136, Note_on_c, 1, 66, 0
3, 27140, Note_on_c, 1, 67, 111
3, 27376, Note_on_c, 1, 67, 0
3, 27380, Note_on_c, 1, 66, 121
3, 28096, Note_on_c, 1, 66, 0
3, 28100, Note_on_c, 1, 64, 115
3, 28816, Note_on_c, 1, 64, 0
3, 29060, Note_on_c, 1, 69, 95
3, 29296, Note_on_c, 1, 69, 0
3, 29300, Note_on_c, 1, 72, 96
3, 29536, Note_on_c, 1, 72, 0
3, 29540, Note_on_c, 1, 66, 93
3, 29776, Note_on_c, 1, 66, 0
3, 29780, Note_on_c, 1, 67, 100
3, 30016, Note_on_c, 1, 67, 0
3, 30020, Note_on_c, 1, 71, 107
3, 30256, Note_on_c, 1, 71, 0
3, 30260, Note_on_c, 1, 64, 113
3, 30496, Note_on_c, 1, 64, 0
3, 30500, Note_on_c, 1, 69, 109
3, 31216, Note_on_c, 1, 69, 0
3, 31220, Note_on_c, 1, 66, 104
3, 31456, Note_on_c, 1, 66, 0
3, 31460, Note_on_c, 1, 69, 107
3, 31936, Note_on_c, 1, 69, 0
3, 31940, Note_on_c, 1, 67, 107
3, 32176, Note_on_c, 1, 67, 0
3, 32180, Note_on_c, 1, 71, 109
3, 32416, Note_on_c, 1, 71, 0
3, 32420, Note_on_c, 1, 64, 123
3, 33136, Note_on_c, 1, 64, 0
3, 33140, Note_on_c, 1, 57, 107
3, 33376, Note_on_c, 1, 57, 0
3, 33380, Note_on_c, 1, 62, 111
3, 33616, Note_on_c, 1, 62, 0
3, 33620, Note_on_c, 1, 60, 113
3, 33976, Note_on_c, 1, 60, 0
3, 33980, Note_on_c, 1, 57, 107
3, 34096, Note_on_c, 1, 57, 0
3, 34100, Note_on_c, 1, 59, 109
3, 34336, Note_on_c, 1, 59, 0
3, 35540, Note_on_c, 1, 74, 104
3, 35776, Note_on_c, 1, 74, 0
3, 35780, Note_on_c, 1, 71, 106
3, 36016, Note_on_c, 1, 71, 0
3, 36020, Note_on_c, 1, 67, 102
3, 36256, Note_on_c, 1, 67, 0
3, 36260, Note_on_c, 1, 69, 97
3, 36496, Note_on_c, 1, 69, 0
3, 36500, Note_on_c, 1, 72, 107
3, 36736, Note_on_c, 1, 72, 0
3, 36740, Note_on_c, 1, 66, 119
3, 37216, Note_on_c, 1, 66, 0
3, 37700, Note_on_c, 1, 71, 101
3, 37936, Note_on_c, 1, 71, 0
3, 37940, Note_on_c, 1, 67, 119
3, 38176, Note_on_c, 1, 67, 0
3, 38180, Note_on_c, 1, 64, 109
3, 38416, Note_on_c, 1, 64, 0
3, 38420, Note_on_c, 1, 66, 112
3, 38656, Note_on_c, 1, 66, 0
3, 38660, Note_on_c, 1, 67, 104
3, 38896, Note_on_c, 1, 67, 0
3, 38900, Note_on_c, 1, 66, 119
3, 39616, Note_on_c, 1, 66, 0
3, 39620, Note_on_c, 1, 64, 127
3, 40336, Note_on_c, 1, 64, 0
3, 40580, Note_on_c, 1, 69, 101
3, 40816, Note_on_c, 1, 69, 0
3, 40820, Note_on_c, 1, 72, 104
3, 41056, Note_on_c, 1, 72, 0
3, 41060, Note_on_c, 1, 66, 104
3, 41296, Note_on_c, 1, 66, 0
3, 41300, Note_on_c, 1, 67, 101
3, 41536, Note_on_c, 1, 67, 0
3, 41540, Note_on_c, 1, 71, 107
3, 41776, Note_on_c, 1, 71, 0
3, 41780, Note_on_c, 1, 64, 106
3, 42016, Note_on_c, 1, 64, 0
3, 42020, Note_on_c, 1, 69, 107
3, 42736, Note_on_c, 1, 69, 0
3, 42740, Note_on_c, 1, 66, 110
3, 42976, Note_on_c, 1, 66, 0
3, 42980, Note_on_c, 1, 69, 102
3, 43456, Note_on_c, 1, 69, 0
3, 43460, Note_on_c, 1, 67, 115
3, 43696, Note_on_c, 1, 67, 0
3, 43700, Note_on_c, 1, 71, 119
3, 43936, Note_on_c, 1, 71, 0
3, 43940, Note_on_c, 1, 64, 123
3, 44656, Note_on_c, 1, 64, 0
3, 44660, Note_on_c, 1, 57, 107
3, 44896, Note_on_c, 1, 57, 0
3, 44900, Note_on_c, 1, 62, 111
3, 45136, Note_on_c, 1, 62, 0
3, 45140, Note_on_c, 1, 60, 117
3, 45496, Note_on_c, 1, 60, 0
3, 45500, Note_on_c, 1, 57, 96
3, 45616, Note_on_c, 1, 57, 0
3, 45620, Note_on_c, 1, 59, 117
3, 45856, Note_on_c, 1, 59, 0
3, 46080, End_track
4, 0, Start_track
4, 0, Title_t, "goldberg.mid"
4, 1704, Note_on_c, 2, 59, 121
4, 1928, Note_on_c, 2, 59, 0
4, 1932, Note_on_c, 2, 55, 113
4, 2160, Note_on_c, 2, 55, 0
4, 2180, Note_on_c, 2, 62, 117
4, 2660, Note_on_c, 2, 62, 0
4, 3128, Note_on_c, 2, 55, 106
4, 3360, Note_on_c, 2, 55, 0
4, 3380, Note_on_c, 2, 59, 117
4, 3600, Note_on_c, 2, 52, 107
4, 3620, Note_on_c, 2, 59, 0
4, 3840, Note_on_c, 2, 52, 0
4, 3840, Note_on_c, 2, 57, 107
4, 4076, Note_on_c, 2, 57, 0
4, 4084, Note_on_c, 2, 55, 121
4, 4584, Note_on_c, 2, 54, 119
4, 4592, Note_on_c, 2, 55, 0
4, 4692, Note_on_c, 2, 52, 111
4, 4700, Note_on_c, 2, 54, 0
4, 4820, Note_on_c, 2, 54, 121
4, 4832, Note_on_c, 2, 52, 0
4, 5044, Note_on_c, 2, 54, 0
4, 5052, Note_on_c, 2, 55, 115
4, 5276, Note_on_c, 2, 55, 0
4, 5284, Note_on_c, 2, 50, 115
4, 5772, Note_on_c, 2, 50, 0
4, 6732, Note_on_c, 2, 62, 119
4, 6980, Note_on_c, 2, 66, 125
4, 6984, Note_on_c, 2, 62, 0
4, 7208, Note_on_c, 2, 66, 0
4, 7220, Note_on_c, 2, 59, 119
4, 7448, Note_on_c, 2, 59, 0
4, 7460, Note_on_c, 2, 64, 111
4, 7700, Note_on_c, 2, 64, 0
4, 8188, Note_on_c, 2, 61, 127
4, 8404, Note_on_c, 2, 61, 0
4, 8420, Note_on_c, 2, 64, 121
4, 8640, Note_on_c, 2, 64, 0
4, 8660, Note_on_c, 2, 57, 121
4, 9620, Note_on_c, 2, 57, 0
4, 9632, Note_on_c, 2, 55, 113
4, 9852, Note_on_c, 2, 55, 0
4, 9852, Note_on_c, 2, 59, 115
4, 10080, Note_on_c, 2, 59, 0
4, 10088, Note_on_c, 2, 52, 107
4, 10324, Note_on_c, 2, 52, 0
4, 10332, Note_on_c, 2, 54, 117
4, 10572, Note_on_c, 2, 54, 0
4, 10572, Note_on_c, 2, 52, 113
4, 10820, Note_on_c, 2, 52, 0
4, 10820, Note_on_c, 2, 50, 119
4, 11172, Note_on_c, 2, 50, 0
4, 13232, Note_on_c, 2, 59, 123
4, 13448, Note_on_c, 2, 59, 0
4, 13460, Note_on_c, 2, 55, 115
4, 13684, Note_on_c, 2, 55, 0
4, 13704, Note_on_c, 2, 62, 123
4, 14396, Note_on_c, 2, 62, 0
4, 14652, Note_on_c, 2, 55, 109
4, 14884, Note_on_c, 2, 59, 115
4, 14888, Note_on_c, 2, 55, 0
4, 15116, Note_on_c, 2, 59, 0
4, 15124, Note_on_c, 2, 52, 111
4, 15360, Note_on_c, 2, 52, 0
4, 15364, Note_on_c, 2, 57, 106
4, 15596, Note_on_c, 2, 57, 0
4, 15604, Note_on_c, 2, 55, 111
4, 16100, Note_on_c, 2, 54, 123
4, 16108, Note_on_c, 2, 55, 0
4, 16204, Note_on_c, 2, 52, 101
4, 16212, Note_on_c, 2, 54, 0
4, 16340, Note_on_c, 2, 54, 127
4, 16344, Note_on_c, 2, 52, 0
4, 16568, Note_on_c, 2, 54, 0
4, 16584, Note_on_c, 2, 55, 117
4, 16800, Note_on_c, 2, 55, 0
4, 16808, Note_on_c, 2, 50, 113
4, 17324, Note_on_c, 2, 50, 0
4, 18260, Note_on_c, 2, 62, 117
4, 18508, Note_on_c, 2, 62, 0
4, 18508, Note_on_c, 2, 66, 125
4, 18740, Note_on_c, 2, 66, 0
4, 18748, Note_on_c, 2, 59, 117
4, 18968, Note_on_c, 2, 59, 0
4, 18980, Note_on_c, 2, 64, 119
4, 19244, Note_on_c, 2, 64, 0
4, 19708, Note_on_c, 2, 61, 127
4, 19928, Note_on_c, 2, 61, 0
4, 19940, Note_on_c, 2, 64, 111
4, 20172, Note_on_c, 2, 64, 0
4, 20180, Note_on_c, 2, 57, 119
4, 21148, Note_on_c, 2, 55, 104
4, 21164, Note_on_c, 2, 57, 0
4, 21372, Note_on_c, 2, 59, 107
4, 21380, Note_on_c, 2, 55, 0
4, 21600, Note_on_c, 2, 59, 0
4, 21608, Note_on_c, 2, 52, 106
4, 21824, Note_on_c, 2, 52, 0
4, 21836, Note_on_c, 2, 54, 121
4, 22080, Note_on_c, 2, 54, 0
4, 22084, Note_on_c, 2, 52, 113
4, 22328, Note_on_c, 2, 52, 0
4, 22340, Note_on_c, 2, 50, 124
4, 22820, Note_on_c, 2, 50, 0
4, 24024, Note_on_c, 2, 62, 115
4, 24260, Note_on_c, 2, 67, 115
4, 24268, Note_on_c, 2, 62, 0
4, 24480, Note_on_c, 2, 67, 0
4, 24500, Note_on_c, 2, 64, 121
4, 24740, Note_on_c, 2, 64, 0
4, 24740, Note_on_c, 2, 60, 104
4, 25448, Note_on_c, 2, 59, 115
4, 25460, Note_on_c, 2, 60, 0
4, 25568, Note_on_c, 2, 59, 0
4, 25568, Note_on_c, 2, 57, 107
4, 25684, Note_on_c, 2, 55, 95
4, 25700, Note_on_c, 2, 57, 0
4, 25800, Note_on_c, 2, 55, 0
4, 25804, Note_on_c, 2, 54, 115
4, 25932, Note_on_c, 2, 55, 106
4, 25940, Note_on_c, 2, 54, 0
4, 26048, Note_on_c, 2, 57, 98
4, 26064, Note_on_c, 2, 55, 0
4, 26164, Note_on_c, 2, 57, 0
4, 26168, Note_on_c, 2, 59, 109
4, 26900, Note_on_c, 2, 59, 0
4, 26912, Note_on_c, 2, 57, 111
4, 27116, Note_on_c, 2, 57, 0
4, 27152, Note_on_c, 2, 59, 117
4, 27380, Note_on_c, 2, 59, 0
4, 27380, Note_on_c, 2, 60, 121
4, 27620, Note_on_c, 2, 60, 0
4, 27620, Note_on_c, 2, 59, 121
4, 28340, Note_on_c, 2, 59, 0
4, 28340, Note_on_c, 2, 55, 121
4, 28580, Note_on_c, 2, 55, 0
4, 28580, Note_on_c, 2, 59, 121
4, 28820, Note_on_c, 2, 59, 0
4, 28820, Note_on_c, 2, 52, 109
4, 29060, Note_on_c, 2, 57, 100
4, 29068, Note_on_c, 2, 52, 0
4, 29180, Note_on_c, 2, 57, 0
4, 29180, Note_on_c, 2, 55, 88
4, 29300, Note_on_c, 2, 55, 0
4, 29300, Note_on_c, 2, 54, 102
4, 29420, Note_on_c, 2, 54, 0
4, 29420, Note_on_c, 2, 55, 92
4, 29540, Note_on_c, 2, 55, 0
4, 29540, Note_on_c, 2, 62, 123
4, 30256, Note_on_c, 2, 62, 0
4, 30260, Note_on_c, 2, 60, 121
4, 30492, Note_on_c, 2, 60, 0
4, 30508, Note_on_c, 2, 54, 110
4, 30732, Note_on_c, 2, 54, 0
4, 30740, Note_on_c, 2, 57, 109
4, 30968, Note_on_c, 2, 57, 0
4, 30984, Note_on_c, 2, 50, 119
4, 32172, Note_on_c, 2, 55, 121
4, 32188, Note_on_c, 2, 50, 0
4, 32648, Note_on_c, 2, 57, 115
4, 32652, Note_on_c, 2, 55, 0
4, 32884, Note_on_c, 2, 57, 0
4, 32900, Note_on_c, 2, 60, 117
4, 33124, Note_on_c, 2, 54, 117
4, 33140, Note_on_c, 2, 60, 0
4, 33364, Note_on_c, 2, 55, 106
4, 33380, Note_on_c, 2, 54, 0
4, 33608, Note_on_c, 2, 55, 0
4, 33612, Note_on_c, 2, 57, 111
4, 33848, Note_on_c, 2, 57, 0
4, 33864, Note_on_c, 2, 55, 115
4, 34492, Note_on_c, 2, 55, 0
4, 35540, Note_on_c, 2, 62, 113
4, 35788, Note_on_c, 2, 67, 117
4, 35804, Note_on_c, 2, 62, 0
4, 36028, Note_on_c, 2, 67, 0
4, 36028, Note_on_c, 2, 64, 113
4, 36260, Note_on_c, 2, 64, 0
4, 36268, Note_on_c, 2, 60, 109
4, 36968, Note_on_c, 2, 60, 0
4, 36980, Note_on_c, 2, 59, 111
4, 37100, Note_on_c, 2, 57, 113
4, 37112, Note_on_c, 2, 59, 0
4, 37212, Note_on_c, 2, 57, 0
4, 37224, Note_on_c, 2, 55, 107
4, 37340, Note_on_c, 2, 54, 117
4, 37348, Note_on_c, 2, 55, 0
4, 37460, Note_on_c, 2, 54, 0
4, 37460, Note_on_c, 2, 55, 106
4, 37572, Note_on_c, 2, 57, 111
4, 37580, Note_on_c, 2, 55, 0
4, 37700, Note_on_c, 2, 59, 115
4, 37708, Note_on_c, 2, 57, 0
4, 38420, Note_on_c, 2, 59, 0
4, 38432, Note_on_c, 2, 57, 111
4, 38668, Note_on_c, 2, 57, 0
4, 38672, Note_on_c, 2, 59, 115
4, 38876, Note_on_c, 2, 59, 0
4, 38900, Note_on_c, 2, 60, 113
4, 39140, Note_on_c, 2, 60, 0
4, 39140, Note_on_c, 2, 59, 113
4, 39860, Note_on_c, 2, 59, 0
4, 39860, Note_on_c, 2, 55, 113
4, 40100, Note_on_c, 2, 55, 0
4, 40100, Note_on_c, 2, 59, 113
4, 40340, Note_on_c, 2, 59, 0
4, 40340, Note_on_c, 2, 52, 113
4, 40580, Note_on_c, 2, 52, 0
4, 40580, Note_on_c, 2, 57, 90
4, 40700, Note_on_c, 2, 57, 0
4, 40700, Note_on_c, 2, 55, 59
4, 40820, Note_on_c, 2, 55, 0
4, 40820, Note_on_c, 2, 54, 96
4, 40940, Note_on_c, 2, 54, 0
4, 40940, Note_on_c, 2, 55, 97
4, 41060, Note_on_c, 2, 55, 0
4, 41060, Note_on_c, 2, 62, 111
4, 41768, Note_on_c, 2, 60, 107
4, 41772, Note_on_c, 2, 62, 0
4, 42020, Note_on_c, 2, 54, 107
4, 42028, Note_on_c, 2, 60, 0
4, 42260, Note_on_c, 2, 54, 0
4, 42260, Note_on_c, 2, 57, 107
4, 42500, Note_on_c, 2, 50, 102
4, 42520, Note_on_c, 2, 57, 0
4, 43700, Note_on_c, 2, 55, 111
4, 43940, Note_on_c, 2, 50, 0
4, 44180, Note_on_c, 2, 55, 0
4, 44180, Note_on_c, 2, 57, 112
4, 44408, Note_on_c, 2, 60, 115
4, 44436, Note_on_c, 2, 57, 0
4, 44648, Note_on_c, 2, 54, 115
4, 44660, Note_on_c, 2, 60, 0
4, 44888, Note_on_c, 2, 55, 113
4, 44900, Note_on_c, 2, 54, 0
4, 45148, Note_on_c, 2, 55, 0
4, 45148, Note_on_c, 2, 57, 111
4, 45380, Note_on_c, 2, 55, 106
4, 45392, Note_on_c, 2, 57, 0
4, 45860, Note_on_c, 2, 55, 0
4, 46080, End_track
5, 0, Start_track
5, 0, Title_t, "goldberg.mid"
5, 20, Note_on_c, 3, 55, 109
5, 736, Note_on_c, 3, 55, 0
5, 740, Note_on_c, 3, 54, 121
5, 1456, Note_on_c, 3, 54, 0
5, 1460, Note_on_c, 3, 52, 124
5, 2176, Note_on_c, 3, 52, 0
5, 2420, Note_on_c, 3, 50, 106
5, 2656, Note_on_c, 3, 50, 0
5, 2660, Note_on_c, 3, 54, 117
5, 2896, Note_on_c, 3, 54, 0
5, 2900, Note_on_c, 3, 47, 123
5, 3616, Note_on_c, 3, 47, 0
5, 3620, Note_on_c, 3, 48, 111
5, 4336, Note_on_c, 3, 48, 0
5, 4340, Note_on_c, 3, 50, 117
5, 5056, Note_on_c, 3, 50, 0
5, 5300, Note_on_c, 3, 47, 111
5, 5536, Note_on_c, 3, 47, 0
5, 5540, Note_on_c, 3, 50, 115
5, 5776, Note_on_c, 3, 50, 0
5, 5780, Note_on_c, 3, 43, 109
5, 6016, Note_on_c, 3, 43, 0
5, 6020, Note_on_c, 3, 55, 113
5, 6736, Note_on_c, 3, 55, 0
5, 6740, Note_on_c, 3, 54, 123
5, 7456, Note_on_c, 3, 54, 0
5, 7460, Note_on_c, 3, 52, 111
5, 7696, Note_on_c, 3, 52, 0
5, 7700, Note_on_c, 3, 55, 101
5, 7936, Note_on_c, 3, 55, 0
5, 7940, Note_on_c, 3, 49, 110
5, 8176, Note_on_c, 3, 49, 0
5, 8180, Note_on_c, 3, 57, 95
5, 8416, Note_on_c, 3, 57, 0
5, 8420, Note_on_c, 3, 61, 119
5, 8656, Note_on_c, 3, 61, 0
5, 8660, Note_on_c, 3, 54, 117
5, 9376, Note_on_c, 3, 54, 0
5, 9380, Note_on_c, 3, 55, 86
5, 9616, Note_on_c, 3, 55, 0
5, 9620, Note_on_c, 3, 43, 119
5, 10336, Note_on_c, 3, 43, 0
5, 10340, Note_on_c, 3, 42, 117
5, 10576, Note_on_c, 3, 42, 0
5, 10580, Note_on_c, 3, 45, 113
5, 10816, Note_on_c, 3, 45, 0
5, 10820, Note_on_c, 3, 38, 109
5, 11176, Note_on_c, 3, 38, 0
5, 11180, Note_on_c, 3, 50, 80
5, 11296, Note_on_c, 3, 50, 0
5, 11300, Note_on_c, 3, 52, 85
5, 11416, Note_on_c, 3, 52, 0
5, 11420, Note_on_c, 3, 54, 86
5, 11536, Note_on_c, 3, 54, 0
5, 11540, Note_on_c, 3, 55, 102
5, 12256, Note_on_c, 3, 55, 0
5, 12260, Note_on_c, 3, 54, 121
5, 12976, Note_on_c, 3, 54, 0
5, 12980, Note_on_c, 3, 52, 113
5, 13696, Note_on_c, 3, 52, 0
5, 13940, Note_on_c, 3, 50, 107
5, 14176, Note_on_c, 3, 50, 0
5, 14180, Note_on_c, 3, 54, 127
5, 14416, Note_on_c, 3, 54, 0
5, 14420, Note_on_c, 3, 47, 119
5, 15136, Note_on_c, 3, 47, 0
5, 15140, Note_on_c, 3, 48, 115
5, 15856, Note_on_c, 3, 48, 0
5, 15860, Note_on_c, 3, 50, 109
5, 16576, Note_on_c, 3, 50, 0
5, 16820, Note_on_c, 3, 47, 119
5, 17056, Note_on_c, 3, 47, 0
5, 17060, Note_on_c, 3, 50, 117
5, 17296, Note_on_c, 3, 50, 0
5, 17300, Note_on_c, 3, 43, 107
5, 17536, Note_on_c, 3, 43, 0
5, 17540, Note_on_c, 3, 55, 117
5, 18256, Note_on_c, 3, 55, 0
5, 18260, Note_on_c, 3, 54, 127
5, 18976, Note_on_c, 3, 54, 0
5, 18980, Note_on_c, 3, 52, 106
5, 19216, Note_on_c, 3, 52, 0
5, 19220, Note_on_c, 3, 55, 101
5, 19456, Note_on_c, 3, 55, 0
5, 19460, Note_on_c, 3, 49, 101
5, 19696, Note_on_c, 3, 49, 0
5, 19700, Note_on_c, 3, 57, 104
5, 19936, Note_on_c, 3, 57, 0
5, 19940, Note_on_c, 3, 61, 117
5, 20176, Note_on_c, 3, 61, 0
5, 20180, Note_on_c, 3, 54, 123
5, 20896, Note_on_c, 3, 54, 0
5, 20900, Note_on_c, 3, 55, 106
5, 21136, Note_on_c, 3, 55, 0
5, 21140, Note_on_c, 3, 43, 124
5, 21856, Note_on_c, 3, 43, 0
5, 21860, Note_on_c, 3, 42, 112
5, 22096, Note_on_c, 3, 42, 0
5, 22100, Note_on_c, 3, 45, 104
5, 22336, Note_on_c, 3, 45, 0
5, 22340, Note_on_c, 3, 38, 107
5, 22696, Note_on_c, 3, 38, 0
5, 22700, Note_on_c, 3, 57, 117
5, 22816, Note_on_c, 3, 57, 0
5, 22820, Note_on_c, 3, 59, 101
5, 22936, Note_on_c, 3, 59, 0
5, 22940, Note_on_c, 3, 61, 101
5, 23056, Note_on_c, 3, 61, 0
5, 23060, Note_on_c, 3, 62, 113
5, 23536, Note_on_c, 3, 62, 0
5, 23540, Note_on_c, 3, 60, 102
5, 23776, Note_on_c, 3, 60, 0
5, 23780, Note_on_c, 3, 59, 107
5, 24256, Note_on_c, 3, 59, 0
5, 24260, Note_on_c, 3, 55, 98
5, 24496, Note_on_c, 3, 55, 0
5, 24500, Note_on_c, 3, 60, 102
5, 24736, Note_on_c, 3, 60, 0
5, 24740, Note_on_c, 3, 54, 108
5, 24976, Note_on_c, 3, 54, 0
5, 24980, Note_on_c, 3, 57, 101
5, 25216, Note_on_c, 3, 57, 0
5, 25220, Note_on_c, 3, 59, 107
5, 25456, Note_on_c, 3, 59, 0
5, 25460, Note_on_c, 3, 51, 123
5, 25696, Note_on_c, 3, 51, 0
5, 25700, Note_on_c, 3, 47, 109
5, 25936, Note_on_c, 3, 47, 0
5, 25940, Note_on_c, 3, 52, 123
5, 26176, Note_on_c, 3, 52, 0
5, 26180, Note_on_c, 3, 55, 106
5, 26416, Note_on_c, 3, 55, 0
5, 26420, Note_on_c, 3, 52, 106
5, 26656, Note_on_c, 3, 52, 0
5, 26660, Note_on_c, 3, 57, 109
5, 26896, Note_on_c, 3, 57, 0
5, 26900, Note_on_c, 3, 54, 108
5, 27136, Note_on_c, 3, 54, 0
5, 27140, Note_on_c, 3, 52, 111
5, 27376, Note_on_c, 3, 52, 0
5, 27380, Note_on_c, 3, 57, 98
5, 27616, Note_on_c, 3, 57, 0
5, 27620, Note_on_c, 3, 59, 121
5, 27856, Note_on_c, 3, 59, 0
5, 27860, Note_on_c, 3, 47, 115
5, 28096, Note_on_c, 3, 47, 0
5, 28100, Note_on_c, 3, 52, 115
5, 28576, Note_on_c, 3, 52, 0
5, 28580, Note_on_c, 3, 50, 104
5, 28816, Note_on_c, 3, 50, 0
5, 28820, Note_on_c, 3, 48, 113
5, 29776, Note_on_c, 3, 48, 0
5, 29780, Note_on_c, 3, 47, 113
5, 30496, Note_on_c, 3, 47, 0
5, 30500, Note_on_c, 3, 45, 104
5, 30736, Note_on_c, 3, 45, 0
5, 30740, Note_on_c, 3, 48, 97
5, 30976, Note_on_c, 3, 48, 0
5, 30980, Note_on_c, 3, 42, 115
5, 31216, Note_on_c, 3, 42, 0
5, 31220, Note_on_c, 3, 38, 102
5, 31456, Note_on_c, 3, 38, 0
5, 31460, Note_on_c, 3, 42, 110
5, 31696, Note_on_c, 3, 42, 0
5, 31700, Note_on_c, 3, 43, 111
5, 31936, Note_on_c, 3, 43, 0
5, 31940, Note_on_c, 3, 47, 100
5, 32176, Note_on_c, 3, 47, 0
5, 32180, Note_on_c, 3, 43, 100
5, 32416, Note_on_c, 3, 43, 0
5, 32420, Note_on_c, 3, 48, 113
5, 33376, Note_on_c, 3, 48, 0
5, 33380, Note_on_c, 3, 47, 100
5, 33616, Note_on_c, 3, 47, 0
5, 33620, Note_on_c, 3, 50, 100
5, 33856, Note_on_c, 3, 50, 0
5, 33860, Note_on_c, 3, 43, 100
5, 34216, Note_on_c, 3, 43, 0
5, 34220, Note_on_c, 3, 57, 84
5, 34336, Note_on_c, 3, 57, 0
5, 34340, Note_on_c, 3, 59, 104
5, 34456, Note_on_c, 3, 59, 0
5, 34460, Note_on_c, 3, 60, 106
5, 34576, Note_on_c, 3, 60, 0
5, 34580, Note_on_c, 3, 62, 107
5, 35056, Note_on_c, 3, 62, 0
5, 35060, Note_on_c, 3, 60, 113
5, 35296, Note_on_c, 3, 60, 0
5, 35300, Note_on_c, 3, 59, 121
5, 35776, Note_on_c, 3, 59, 0
5, 35780, Note_on_c, 3, 55, 100
5, 36016, Note_on_c, 3, 55, 0
5, 36020, Note_on_c, 3, 60, 123
5, 36256, Note_on_c, 3, 60, 0
5, 36260, Note_on_c, 3, 54, 108
5, 36496, Note_on_c, 3, 54, 0
5, 36500, Note_on_c, 3, 57, 106
5, 36736, Note_on_c, 3, 57, 0
5, 36740, Note_on_c, 3, 59, 109
5, 36976, Note_on_c, 3, 59, 0
5, 36980, Note_on_c, 3, 51, 125
5, 37216, Note_on_c, 3, 51, 0
5, 37220, Note_on_c, 3, 47, 119
5, 37456, Note_on_c, 3, 47, 0
5, 37460, Note_on_c, 3, 52, 106
5, 37696, Note_on_c, 3, 52, 0
5, 37700, Note_on_c, 3, 55, 101
5, 37936, Note_on_c, 3, 55, 0
5, 37940, Note_on_c, 3, 52, 104
5, 38176, Note_on_c, 3, 52, 0
5, 38180, Note_on_c, 3, 57, 109
5, 38416, Note_on_c, 3, 57, 0
5, 38420, Note_on_c, 3, 54, 93
5, 38656, Note_on_c, 3, 54, 0
5, 38660, Note_on_c, 3, 52, 93
5, 38896, Note_on_c, 3, 52, 0
5, 38900, Note_on_c, 3, 57, 98
5, 39136, Note_on_c, 3, 57, 0
5, 39140, Note_on_c, 3, 59, 111
5, 39376, Note_on_c, 3, 59, 0
5, 39380, Note_on_c, 3, 47, 111
5, 39616, Note_on_c, 3, 47, 0
5, 39620, Note_on_c, 3, 52, 111
5, 40096, Note_on_c, 3, 52, 0
5, 40100, Note_on_c, 3, 50, 115
5, 40336, Note_on_c, 3, 50, 0
5, 40340, Note_on_c, 3, 48, 107
5, 41296, Note_on_c, 3, 48, 0
5, 41300, Note_on_c, 3, 47, 119
5, 42016, Note_on_c, 3, 47, 0
5, 42020, Note_on_c, 3, 45, 107
5, 42256, Note_on_c, 3, 45, 0
5, 42260, Note_on_c, 3, 48, 111
5, 42496, Note_on_c, 3, 48, 0
5, 42500, Note_on_c, 3, 42, 110
5, 42736, Note_on_c, 3, 42, 0
5, 42740, Note_on_c, 3, 38, 101
5, 42976, Note_on_c, 3, 38, 0
5, 42980, Note_on_c, 3, 42, 112
5, 43216, Note_on_c, 3, 42, 0
5, 43220, Note_on_c, 3, 43, 109
5, 43456, Note_on_c, 3, 43, 0
5, 43460, Note_on_c, 3, 47, 107
5, 43696, Note_on_c, 3, 47, 0
5, 43700, Note_on_c, 3, 43, 93
5, 43936, Note_on_c, 3, 43, 0
5, 43940, Note_on_c, 3, 48, 106
5, 44896, Note_on_c, 3, 48, 0
5, 44900, Note_on_c, 3, 47, 107
5, 45136, Note_on_c, 3, 47, 0
5, 45140, Note_on_c, 3, 50, 109
5, 45376, Note_on_c, 3, 50, 0
5, 45380, Note_on_c, 3, 43, 109
5, 45856, Note_on_c, 3, 43, 0
5, 46080, End_track
0, 0, End_of_file
