0, 0, Header, 1, 3, 480
1, 0, Start_track
1, 0, SMPTE_offset, 96, 0, 0, 0, 0
1, 0, Time_signature, 3, 2, 24, 8
1, 20, Tempo, 545454
1, 70560, End_track
2, 0, Start_track
2, 0, Title_t, "goldberg.mid"
2, 140, Note_on_c, 0, 62, 97
2, 256, Note_on_c, 0, 62, 0
2, 260, Note_on_c, 0, 64, 97
2, 376, Note_on_c, 0, 64, 0
2, 380, Note_on_c, 0, 66, 80
2, 496, Note_on_c, 0, 66, 0
2, 500, Note_on_c, 0, 67, 89
2, 616, Note_on_c, 0, 67, 0
2, 620, Note_on_c, 0, 66, 108
2, 736, Note_on_c, 0, 66, 0
2, 740, Note_on_c, 0, 67, 83
2, 856, Note_on_c, 0, 67, 0
2, 860, Note_on_c, 0, 69, 93
2, 976, Note_on_c, 0, 69, 0
2, 980, Note_on_c, 0, 71, 97
2, 1096, Note_on_c, 0, 71, 0
2, 1100, Note_on_c, 0, 69, 85
2, 1216, Note_on_c, 0, 69, 0
2, 1220, Note_on_c, 0, 67, 84
2, 1336, Note_on_c, 0, 67, 0
2, 1340, Note_on_c, 0, 71, 89
2, 1456, Note_on_c, 0, 71, 0
2, 1460, Note_on_c, 0, 69, 90
2, 1576, Note_on_c, 0, 69, 0
2, 1580, Note_on_c, 0, 67, 81
2, 1696, Note_on_c, 0, 67, 0
2, 1700, Note_on_c, 0, 66, 99
2, 1816, Note_on_c, 0, 66, 0
2, 1820, Note_on_c, 0, 64, 91
2, 1936, Note_on_c, 0, 64, 0
2, 1940, Note_on_c, 0, 62, 82
2, 2056, Note_on_c, 0, 62, 0
2, 2060, Note_on_c, 0, 64, 97
2, 2176, Note_on_c, 0, 64, 0
2, 2180, Note_on_c, 0, 66, 82
2, 2296, Note_on_c, 0, 66, 0
2, 2300, Note_on_c, 0, 67, 92
2, 2416, Note_on_c, 0, 67, 0
2, 2420, Note_on_c, 0, 69, 88
2, 2536, Note_on_c, 0, 69, 0
2, 2540, Note_on_c, 0, 66, 108
2, 2656, Note_on_c, 0, 66, 0
2, 2660, Note_on_c, 0, 64, 92
2, 2776, Note_on_c, 0, 64, 0
2, 2780, Note_on_c, 0, 62, 81
2, 2896, Note_on_c, 0, 62, 0
2, 2900, Note_on_c, 0, 67, 95
2, 3016, Note_on_c, 0, 67, 0
2, 3020, Note_on_c, 0, 66, 92
2, 3136, Note_on_c, 0, 66, 0
2, 3140, Note_on_c, 0, 64, 92
2, 3256, Note_on_c, 0, 64, 0
2, 3260, Note_on_c, 0, 62, 81
2, 3376, Note_on_c, 0, 62, 0
2, 3380, Note_on_c, 0, 61, 94
2, 3496, Note_on_c, 0, 61, 0
2, 3500, Note_on_c, 0, 62, 93
2, 3616, Note_on_c, 0, 62, 0
2, 3620, Note_on_c, 0, 64, 93
2, 3736, Note_on_c, 0, 64, 0
2, 3740, Note_on_c, 0, 66, 88
2, 3856, Note_on_c, 0, 66, 0
2, 3860, Note_on_c, 0, 67, 89
2, 3976, Note_on_c, 0, 67, 0
2, 3980, Note_on_c, 0, 71, 89
2, 4096, Note_on_c, 0, 71, 0
2, 4100, Note_on_c, 0, 69, 81
2, 4216, Note_on_c, 0, 69, 0
2, 4220, Note_on_c, 0, 67, 92
2, 4336, Note_on_c, 0, 67, 0
2, 4340, Note_on_c, 0, 66, 93
2, 4456, Note_on_c, 0, 66, 0
2, 4460, Note_on_c, 0, 64, 85
2, 4576, Note_on_c, 0, 64, 0
2, 4580, Note_on_c, 0, 62, 72
2, 4696, Note_on_c, 0, 62, 0
2, 4700, Note_on_c, 0, 61, 81
2, 4816, Note_on_c, 0, 61, 0
2, 4820, Note_on_c, 0, 62, 85
2, 4936, Note_on_c, 0, 62, 0
2, 4940, Note_on_c, 0, 57, 75
2, 5056, Note_on_c, 0, 57, 0
2, 5060, Note_on_c, 0, 62, 86
2, 5176, Note_on_c, 0, 62, 0
2, 5180, Note_on_c, 0, 64, 86
2, 5296, Note_on_c, 0, 64, 0
2, 5300, Note_on_c, 0, 66, 68
2, 5416, Note_on_c, 0, 66, 0
2, 5420, Note_on_c, 0, 62, 63
2, 5536, Note_on_c, 0, 62, 0
2, 5540, Note_on_c, 0, 66, 89
2, 5656, Note_on_c, 0, 66, 0
2, 5660, Note_on_c, 0, 69, 74
2, 5776, Note_on_c, 0, 69, 0
2, 5780, Note_on_c, 0, 74, 98
2, 5896, Note_on_c, 0, 74, 0
2, 5900, Note_on_c, 0, 71, 98
2, 6016, Note_on_c, 0, 71, 0
2, 6020, Note_on_c, 0, 69, 85
2, 6136, Note_on_c, 0, 69, 0
2, 6140, Note_on_c, 0, 71, 82
2, 6256, Note_on_c, 0, 71, 0
2, 6260, Note_on_c, 0, 67, 82
2, 6376, Note_on_c, 0, 67, 0
2, 6380, Note_on_c, 0, 71, 78
2, 6496, Note_on_c, 0, 71, 0
2, 6500, Note_on_c, 0, 69, 58
2, 6616, Note_on_c, 0, 69, 0
2, 6620, Note_on_c, 0, 71, 61
2, 6736, Note_on_c, 0, 71, 0
2, 6740, Note_on_c, 0, 62, 76
2, 6856, Note_on_c, 0, 62, 0
2, 6860, Note_on_c, 0, 67, 29
2, 6976, Note_on_c, 0, 67, 0
2, 6980, Note_on_c, 0, 66, 79
2, 7096, Note_on_c, 0, 66, 0
2, 7100, Note_on_c, 0, 67, 73
2, 7216, Note_on_c, 0, 67, 0
2, 7220, Note_on_c, 0, 64, 85
2, 7336, Note_on_c, 0, 64, 0
2, 7340, Note_on_c, 0, 67, 76
2, 7456, Note_on_c, 0, 67, 0
2, 7460, Note_on_c, 0, 62, 55
2, 7576, Note_on_c, 0, 62, 0
2, 7580, Note_on_c, 0, 67, 72
2, 7696, Note_on_c, 0, 67, 0
2, 7700, Note_on_c, 0, 60, 80
2, 7816, Note_on_c, 0, 60, 0
2, 7820, Note_on_c, 0, 67, 81
2, 7936, Note_on_c, 0, 67, 0
2, 7940, Note_on_c, 0, 59, 72
2, 8056, Note_on_c, 0, 59, 0
2, 8060, Note_on_c, 0, 67, 77
2, 8176, Note_on_c, 0, 67, 0
2, 8180, Note_on_c, 0, 57, 68
2, 8296, Note_on_c, 0, 57, 0
2, 8300, Note_on_c, 0, 67, 89
2, 8416, Note_on_c, 0, 67, 0
2, 8420, Note_on_c, 0, 59, 75
2, 8536, Note_on_c, 0, 59, 0
2, 8540, Note_on_c, 0, 67, 85
2, 8656, Note_on_c, 0, 67, 0
2, 8660, Note_on_c, 0, 60, 76
2, 8776, Note_on_c, 0, 60, 0
2, 8780, Note_on_c, 0, 67, 91
2, 8896, Note_on_c, 0, 67, 0
2, 8900, Note_on_c, 0, 59, 83
2, 9016, Note_on_c, 0, 59, 0
2, 9020, Note_on_c, 0, 67, 88
2, 9136, Note_on_c, 0, 67, 0
2, 9140, Note_on_c, 0, 60, 83
2, 9256, Note_on_c, 0, 60, 0
2, 9260, Note_on_c, 0, 66, 93
2, 9376, Note_on_c, 0, 66, 0
2, 9380, Note_on_c, 0, 64, 104
2, 9496, Note_on_c, 0, 64, 0
2, 9500, Note_on_c, 0, 66, 93
2, 9616, Note_on_c, 0, 66, 0
2, 9620, Note_on_c, 0, 62, 96
2, 9736, Note_on_c, 0, 62, 0
2, 9740, Note_on_c, 0, 66, 94
2, 9856, Note_on_c, 0, 66, 0
2, 9860, Note_on_c, 0, 60, 93
2, 9976, Note_on_c, 0, 60, 0
2, 9980, Note_on_c, 0, 66, 84
2, 10096, Note_on_c, 0, 66, 0
2, 10100, Note_on_c, 0, 59, 90
2, 10216, Note_on_c, 0, 59, 0
2, 10220, Note_on_c, 0, 67, 95
2, 10336, Note_on_c, 0, 67, 0
2, 10340, Note_on_c, 0, 66, 82
2, 10456, Note_on_c, 0, 66, 0
2, 10460, Note_on_c, 0, 64, 95
2, 10576, Note_on_c, 0, 64, 0
2, 10580, Note_on_c, 0, 62, 81
2, 10696, Note_on_c, 0, 62, 0
2, 10700, Note_on_c, 0, 60, 77
2, 10816, Note_on_c, 0, 60, 0
2, 10820, Note_on_c, 0, 59, 78
2, 10936, Note_on_c, 0, 59, 0
2, 10940, Note_on_c, 0, 57, 74
2, 11056, Note_on_c, 0, 57, 0
2, 11060, Note_on_c, 0, 55, 92
2, 11300, Note_on_c, 0, 55, 0
2, 11540, Note_on_c, 0, 83, 104
2, 11780, Note_on_c, 0, 83, 0
2, 12020, Note_on_c, 0, 67, 93
2, 12260, Note_on_c, 0, 67, 0
2, 12500, Note_on_c, 0, 83, 101
2, 12980, Note_on_c, 0, 83, 0
2, 12980, Note_on_c, 0, 81, 111
2, 13220, Note_on_c, 0, 81, 0
2, 13460, Note_on_c, 0, 66, 112
2, 13700, Note_on_c, 0, 66, 0
2, 13940, Note_on_c, 0, 81, 117
2, 14420, Note_on_c, 0, 81, 0
2, 14420, Note_on_c, 0, 79, 121
2, 14536, Note_on_c, 0, 79, 0
2, 14540, Note_on_c, 0, 78, 96
2, 14656, Note_on_c, 0, 78, 0
2, 14660, Note_on_c, 0, 76, 52
2, 14776, Note_on_c, 0, 76, 0
2, 14780, Note_on_c, 0, 75, 90
2, 14896, Note_on_c, 0, 75, 0
2, 14900, Note_on_c, 0, 76, 90
2, 15016, Note_on_c, 0, 76, 0
2, 15020, Note_on_c, 0, 79, 93
2, 15136, Note_on_c, 0, 79, 0
2, 15140, Note_on_c, 0, 74, 82
2, 15256, Note_on_c, 0, 74, 0
2, 15260, Note_on_c, 0, 79, 90
2, 15376, Note_on_c, 0, 79, 0
2, 15380, Note_on_c, 0, 73, 102
2, 15496, Note_on_c, 0, 73, 0
2, 15500, Note_on_c, 0, 79, 92
2, 15616, Note_on_c, 0, 79, 0
2, 15620, Note_on_c, 0, 71, 93
2, 15740, Note_on_c, 0, 71, 0
2, 15740, Note_on_c, 0, 79, 85
2, 15856, Note_on_c, 0, 79, 0
2, 15860, Note_on_c, 0, 73, 102
2, 15976, Note_on_c, 0, 73, 0
2, 15980, Note_on_c, 0, 79, 97
2, 16096, Note_on_c, 0, 79, 0
2, 16100, Note_on_c, 0, 76, 91
2, 16216, Note_on_c, 0, 76, 0
2, 16220, Note_on_c, 0, 79, 101
2, 16336, Note_on_c, 0, 79, 0
2, 16340, Note_on_c, 0, 69, 113
2, 16584, Note_on_c, 0, 69, 0
2, 16588, Note_on_c, 0, 79, 117
2, 16824, Note_on_c, 0, 79, 0
2, 16832, Note_on_c, 0, 78, 106
2, 17084, Note_on_c, 0, 81, 107
2, 17092, Note_on_c, 0, 78, 0
2, 17144, Note_on_c, 0, 79, 97
2, 17156, Note_on_c, 0, 81, 0
2, 17200, Note_on_c, 0, 78, 99
2, 17204, Note_on_c, 0, 79, 0
2, 17256, Note_on_c, 0, 79, 104
2, 17268, Note_on_c, 0, 78, 0
2, 17300, Note_on_c, 0, 81, 113
2, 17304, Note_on_c, 0, 79, 0
2, 17536, Note_on_c, 0, 81, 0
2, 17540, Note_on_c, 0, 64, 124
2, 17776, Note_on_c, 0, 64, 0
2, 17780, Note_on_c, 0, 66, 125
2, 18016, Note_on_c, 0, 66, 0
2, 18020, Note_on_c, 0, 78, 108
2, 18256, Note_on_c, 0, 78, 0
2, 18260, Note_on_c, 0, 79, 109
2, 18496, Note_on_c, 0, 79, 0
2, 18500, Note_on_c, 0, 81, 109
2, 18736, Note_on_c, 0, 81, 0
2, 18740, Note_on_c, 0, 83, 109
2, 18976, Note_on_c, 0, 83, 0
2, 18980, Note_on_c, 0, 66, 127
2, 19216, Note_on_c, 0, 66, 0
2, 19220, Note_on_c, 0, 64, 127
2, 19456, Note_on_c, 0, 64, 0
2, 19460, Note_on_c, 0, 79, 115
2, 19696, Note_on_c, 0, 79, 0
2, 19700, Note_on_c, 0, 81, 117
2, 19936, Note_on_c, 0, 81, 0
2, 19940, Note_on_c, 0, 83, 123
2, 20176, Note_on_c, 0, 83, 0
2, 20180, Note_on_c, 0, 76, 117
2, 20416, Note_on_c, 0, 76, 0
2, 20420, Note_on_c, 0, 67, 93
2, 20660, Note_on_c, 0, 67, 0
2, 20660, Note_on_c, 0, 57, 127
2, 20896, Note_on_c, 0, 57, 0
2, 20900, Note_on_c, 0, 64, 127
2, 21136, Note_on_c, 0, 64, 0
2, 21140, Note_on_c, 0, 61, 119
2, 21376, Note_on_c, 0, 61, 0
2, 21380, Note_on_c, 0, 57, 109
2, 21616, Note_on_c, 0, 57, 0
2, 21620, Note_on_c, 0, 50, 127
2, 21856, Note_on_c, 0, 50, 0
2, 21860, Note_on_c, 0, 62, 108
2, 22096, Note_on_c, 0, 62, 0
2, 22100, Note_on_c, 0, 66, 108
2, 22340, Note_on_c, 0, 66, 0
2, 22340, Note_on_c, 0, 69, 90
2, 22580, Note_on_c, 0, 69, 0
2, 22580, Note_on_c, 0, 74, 119
2, 23060, Note_on_c, 0, 74, 0
2, 23180, Note_on_c, 0, 62, 97
2, 23296, Note_on_c, 0, 62, 0
2, 23300, Note_on_c, 0, 64, 97
2, 23416, Note_on_c, 0, 64, 0
2, 23420, Note_on_c, 0, 66, 80
2, 23536, Note_on_c, 0, 66, 0
2, 23540, Note_on_c, 0, 67, 89
2, 23656, Note_on_c, 0, 67, 0
2, 23660, Note_on_c, 0, 66, 108
2, 23776, Note_on_c, 0, 66, 0
2, 23780, Note_on_c, 0, 67, 83
2, 23896, Note_on_c, 0, 67, 0
2, 23900, Note_on_c, 0, 69, 93
2, 24016, Note_on_c, 0, 69, 0
2, 24020, Note_on_c, 0, 71, 97
2, 24136, Note_on_c, 0, 71, 0
2, 24140, Note_on_c, 0, 69, 85
2, 24256, Note_on_c, 0, 69, 0
2, 24260, Note_on_c, 0, 67, 84
2, 24376, Note_on_c, 0, 67, 0
2, 24380, Note_on_c, 0, 71, 89
2, 24496, Note_on_c, 0, 71, 0
2, 24500, Note_on_c, 0, 69, 90
2, 24616, Note_on_c, 0, 69, 0
2, 24620, Note_on_c, 0, 67, 81
2, 24736, Note_on_c, 0, 67, 0
2, 24740, Note_on_c, 0, 66, 99
2, 24856, Note_on_c, 0, 66, 0
2, 24860, Note_on_c, 0, 64, 91
2, 24976, Note_on_c, 0, 64, 0
2, 24980, Note_on_c, 0, 62, 82
2, 25096, Note_on_c, 0, 62, 0
2, 25100, Note_on_c, 0, 64, 97
2, 25216, Note_on_c, 0, 64, 0
2, 25220, Note_on_c, 0, 66, 82
2, 25336, Note_on_c, 0, 66, 0
2, 25340, Note_on_c, 0, 67, 92
2, 25456, Note_on_c, 0, 67, 0
2, 25460, Note_on_c, 0, 69, 88
2, 25576, Note_on_c, 0, 69, 0
2, 25580, Note_on_c, 0, 66, 108
2, 25696, Note_on_c, 0, 66, 0
2, 25700, Note_on_c, 0, 64, 92
2, 25816, Note_on_c, 0, 64, 0
2, 25820, Note_on_c, 0, 62, 81
2, 25936, Note_on_c, 0, 62, 0
2, 25940, Note_on_c, 0, 67, 95
2, 26056, Note_on_c, 0, 67, 0
2, 26060, Note_on_c, 0, 66, 92
2, 26176, Note_on_c, 0, 66, 0
2, 26180, Note_on_c, 0, 64, 92
2, 26296, Note_on_c, 0, 64, 0
2, 26300, Note_on_c, 0, 62, 81
2, 26416, Note_on_c, 0, 62, 0
2, 26420, Note_on_c, 0, 61, 94
2, 26536, Note_on_c, 0, 61, 0
2, 26540, Note_on_c, 0, 62, 93
2, 26656, Note_on_c, 0, 62, 0
2, 26660, Note_on_c, 0, 64, 93
2, 26776, Note_on_c, 0, 64, 0
2, 26780, Note_on_c, 0, 66, 88
2, 26896, Note_on_c, 0, 66, 0
2, 26900, Note_on_c, 0, 67, 89
2, 27016, Note_on_c, 0, 67, 0
2, 27020, Note_on_c, 0, 71, 89
2, 27136, Note_on_c, 0, 71, 0
2, 27140, Note_on_c, 0, 69, 81
2, 27256, Note_on_c, 0, 69, 0
2, 27260, Note_on_c, 0, 67, 92
2, 27376, Note_on_c, 0, 67, 0
2, 27380, Note_on_c, 0, 66, 93
2, 27496, Note_on_c, 0, 66, 0
2, 27500, Note_on_c, 0, 64, 85
2, 27616, Note_on_c, 0, 64, 0
2, 27620, Note_on_c, 0, 62, 72
2, 27736, Note_on_c, 0, 62, 0
2, 27740, Note_on_c, 0, 61, 81
2, 27856, Note_on_c, 0, 61, 0
2, 27860, Note_on_c, 0, 62, 85
2, 27976, Note_on_c, 0, 62, 0
2, 27980, Note_on_c, 0, 57, 75
2, 28096, Note_on_c, 0, 57, 0
2, 28100, Note_on_c, 0, 62, 86
2, 28216, Note_on_c, 0, 62, 0
2, 28220, Note_on_c, 0, 64, 86
2, 28336, Note_on_c, 0, 64, 0
2, 28340, Note_on_c, 0, 66, 68
2, 28456, Note_on_c, 0, 66, 0
2, 28460, Note_on_c, 0, 62, 63
2, 28576, Note_on_c, 0, 62, 0
2, 28580, Note_on_c, 0, 66, 89
2, 28696, Note_on_c, 0, 66, 0
2, 28700, Note_on_c, 0, 69, 74
2, 28816, Note_on_c, 0, 69, 0
2, 28820, Note_on_c, 0, 74, 98
2, 28936, Note_on_c, 0, 74, 0
2, 28940, Note_on_c, 0, 71, 98
2, 29056, Note_on_c, 0, 71, 0
2, 29060, Note_on_c, 0, 69, 85
2, 29176, Note_on_c, 0, 69, 0
2, 29180, Note_on_c, 0, 71, 82
2, 29296, Note_on_c, 0, 71, 0
2, 29300, Note_on_c, 0, 67, 82
2, 29416, Note_on_c, 0, 67, 0
2, 29420, Note_on_c, 0, 71, 78
2, 29536, Note_on_c, 0, 71, 0
2, 29540, Note_on_c, 0, 69, 58
2, 29656, Note_on_c, 0, 69, 0
2, 29660, Note_on_c, 0, 71, 61
2, 29776, Note_on_c, 0, 71, 0
2, 29780, Note_on_c, 0, 62, 76
2, 29896, Note_on_c, 0, 62, 0
2, 29900, Note_on_c, 0, 67, 29
2, 30016, Note_on_c, 0, 67, 0
2, 30020, Note_on_c, 0, 66, 79
2, 30136, Note_on_c, 0, 66, 0
2, 30140, Note_on_c, 0, 67, 73
2, 30256, Note_on_c, 0, 67, 0
2, 30260, Note_on_c, 0, 64, 85
2, 30376, Note_on_c, 0, 64, 0
2, 30380, Note_on_c, 0, 67, 76
2, 30496, Note_on_c, 0, 67, 0
2, 30500, Note_on_c, 0, 62, 55
2, 30616, Note_on_c, 0, 62, 0
2, 30620, Note_on_c, 0, 67, 72
2, 30736, Note_on_c, 0, 67, 0
2, 30740, Note_on_c, 0, 60, 80
2, 30856, Note_on_c, 0, 60, 0
2, 30860, Note_on_c, 0, 67, 81
2, 30976, Note_on_c, 0, 67, 0
2, 30980, Note_on_c, 0, 59, 72
2, 31096, Note_on_c, 0, 59, 0
2, 31100, Note_on_c, 0, 67, 77
2, 31216, Note_on_c, 0, 67, 0
2, 31220, Note_on_c, 0, 57, 68
2, 31336, Note_on_c, 0, 57, 0
2, 31340, Note_on_c, 0, 67, 89
2, 31456, Note_on_c, 0, 67, 0
2, 31460, Note_on_c, 0, 59, 75
2, 31576, Note_on_c, 0, 59, 0
2, 31580, Note_on_c, 0, 67, 85
2, 31696, Note_on_c, 0, 67, 0
2, 31700, Note_on_c, 0, 60, 76
2, 31816, Note_on_c, 0, 60, 0
2, 31820, Note_on_c, 0, 67, 91
2, 31936, Note_on_c, 0, 67, 0
2, 31940, Note_on_c, 0, 59, 83
2, 32056, Note_on_c, 0, 59, 0
2, 32060, Note_on_c, 0, 67, 88
2, 32176, Note_on_c, 0, 67, 0
2, 32180, Note_on_c, 0, 60, 83
2, 32296, Note_on_c, 0, 60, 0
2, 32300, Note_on_c, 0, 66, 93
2, 32416, Note_on_c, 0, 66, 0
2, 32420, Note_on_c, 0, 64, 104
2, 32536, Note_on_c, 0, 64, 0
2, 32540, Note_on_c, 0, 66, 93
2, 32656, Note_on_c, 0, 66, 0
2, 32660, Note_on_c, 0, 62, 96
2, 32776, Note_on_c, 0, 62, 0
2, 32780, Note_on_c, 0, 66, 94
2, 32896, Note_on_c, 0, 66, 0
2, 32900, Note_on_c, 0, 60, 93
2, 33016, Note_on_c, 0, 60, 0
2, 33020, Note_on_c, 0, 66, 84
2, 33136, Note_on_c, 0, 66, 0
2, 33140, Note_on_c, 0, 59, 90
2, 33256, Note_on_c, 0, 59, 0
2, 33260, Note_on_c, 0, 67, 95
2, 33376, Note_on_c, 0, 67, 0
2, 33380, Note_on_c, 0, 66, 82
2, 33496, Note_on_c, 0, 66, 0
2, 33500, Note_on_c, 0, 64, 95
2, 33616, Note_on_c, 0, 64, 0
2, 33620, Note_on_c, 0, 62, 81
2, 33736, Note_on_c, 0, 62, 0
2, 33740, Note_on_c, 0, 60, 77
2, 33856, Note_on_c, 0, 60, 0
2, 33860, Note_on_c, 0, 59, 78
2, 33976, Note_on_c, 0, 59, 0
2, 33980, Note_on_c, 0, 57, 74
2, 34096, Note_on_c, 0, 57, 0
2, 34100, Note_on_c, 0, 55, 92
2, 34340, Note_on_c, 0, 55, 0
2, 34580, Note_on_c, 0, 83, 104
2, 34820, Note_on_c, 0, 83, 0
2, 35060, Note_on_c, 0, 67, 93
2, 35300, Note_on_c, 0, 67, 0
2, 35540, Note_on_c, 0, 83, 101
2, 36020, Note_on_c, 0, 83, 0
2, 36020, Note_on_c, 0, 81, 111
2, 36260, Note_on_c, 0, 81, 0
2, 36500, Note_on_c, 0, 66, 112
2, 36740, Note_on_c, 0, 66, 0
2, 36980, Note_on_c, 0, 81, 117
2, 37460, Note_on_c, 0, 81, 0
2, 37460, Note_on_c, 0, 79, 121
2, 37576, Note_on_c, 0, 79, 0
2, 37580, Note_on_c, 0, 78, 96
2, 37696, Note_on_c, 0, 78, 0
2, 37700, Note_on_c, 0, 76, 52
2, 37816, Note_on_c, 0, 76, 0
2, 37820, Note_on_c, 0, 75, 90
2, 37936, Note_on_c, 0, 75, 0
2, 37940, Note_on_c, 0, 76, 90
2, 38056, Note_on_c, 0, 76, 0
2, 38060, Note_on_c, 0, 79, 93
2, 38176, Note_on_c, 0, 79, 0
2, 38180, Note_on_c, 0, 74, 82
2, 38296, Note_on_c, 0, 74, 0
2, 38300, Note_on_c, 0, 79, 90
2, 38416, Note_on_c, 0, 79, 0
2, 38420, Note_on_c, 0, 73, 102
2, 38536, Note_on_c, 0, 73, 0
2, 38540, Note_on_c, 0, 79, 92
2, 38656, Note_on_c, 0, 79, 0
2, 38660, Note_on_c, 0, 71, 93
2, 38780, Note_on_c, 0, 71, 0
2, 38780, Note_on_c, 0, 79, 85
2, 38896, Note_on_c, 0, 79, 0
2, 38900, Note_on_c, 0, 73, 102
2, 39016, Note_on_c, 0, 73, 0
2, 39020, Note_on_c, 0, 79, 97
2, 39136, Note_on_c, 0, 79, 0
2, 39140, Note_on_c, 0, 76, 91
2, 39256, Note_on_c, 0, 76, 0
2, 39260, Note_on_c, 0, 79, 101
2, 39376, Note_on_c, 0, 79, 0
2, 39380, Note_on_c, 0, 69, 113
2, 39624, Note_on_c, 0, 69, 0
2, 39628, Note_on_c, 0, 79, 117
2, 39864, Note_on_c, 0, 79, 0
2, 39872, Note_on_c, 0, 78, 106
2, 40124, Note_on_c, 0, 81, 107
2, 40132, Note_on_c, 0, 78, 0
2, 40184, Note_on_c, 0, 79, 97
2, 40196, Note_on_c, 0, 81, 0
2, 40240, Note_on_c, 0, 78, 99
2, 40244, Note_on_c, 0, 79, 0
2, 40296, Note_on_c, 0, 79, 104
2, 40308, Note_on_c, 0, 78, 0
2, 40340, Note_on_c, 0, 81, 113
2, 40344, Note_on_c, 0, 79, 0
2, 40576, Note_on_c, 0, 81, 0
2, 40580, Note_on_c, 0, 64, 124
2, 40816, Note_on_c, 0, 64, 0
2, 40820, Note_on_c, 0, 66, 125
2, 41056, Note_on_c, 0, 66, 0
2, 41060, Note_on_c, 0, 78, 108
2, 41296, Note_on_c, 0, 78, 0
2, 41300, Note_on_c, 0, 79, 109
2, 41536, Note_on_c, 0, 79, 0
2, 41540, Note_on_c, 0, 81, 109
2, 41776, Note_on_c, 0, 81, 0
2, 41780, Note_on_c, 0, 83, 109
2, 42016, Note_on_c, 0, 83, 0
2, 42020, Note_on_c, 0, 66, 127
2, 42256, Note_on_c, 0, 66, 0
2, 42260, Note_on_c, 0, 64, 127
2, 42496, Note_on_c, 0, 64, 0
2, 42500, Note_on_c, 0, 79, 115
2, 42736, Note_on_c, 0, 79, 0
2, 42740, Note_on_c, 0, 81, 117
2, 42976, Note_on_c, 0, 81, 0
2, 42980, Note_on_c, 0, 83, 123
2, 43216, Note_on_c, 0, 83, 0
2, 43220, Note_on_c, 0, 76, 117
2, 43456, Note_on_c, 0, 76, 0
2, 43460, Note_on_c, 0, 67, 93
2, 43700, Note_on_c, 0, 67, 0
2, 43700, Note_on_c, 0, 57, 127
2, 43936, Note_on_c, 0, 57, 0
2, 43940, Note_on_c, 0, 64, 127
2, 44176, Note_on_c, 0, 64, 0
2, 44180, Note_on_c, 0, 61, 119
2, 44416, Note_on_c, 0, 61, 0
2, 44420, Note_on_c, 0, 57, 109
2, 44656, Note_on_c, 0, 57, 0
2, 44660, Note_on_c, 0, 50, 127
2, 44896, Note_on_c, 0, 50, 0
2, 44900, Note_on_c, 0, 62, 108
2, 45136, Note_on_c, 0, 62, 0
2, 45140, Note_on_c, 0, 66, 108
2, 45380, Note_on_c, 0, 66, 0
2, 45380, Note_on_c, 0, 69, 90
2, 45620, Note_on_c, 0, 69, 0
2, 45620, Note_on_c, 0, 74, 119
2, 46100, Note_on_c, 0, 74, 0
2, 46100, Note_on_c, 0, 78, 127
2, 46340, Note_on_c, 0, 78, 0
2, 46580, Note_on_c, 0, 62, 119
2, 46820, Note_on_c, 0, 62, 0
2, 47044, Note_on_c, 0, 78, 112
2, 47072, Note_on_c, 0, 79, 107
2, 47076, Note_on_c, 0, 78, 0
2, 47104, Note_on_c, 0, 78, 85
2, 47120, Note_on_c, 0, 79, 0
2, 47132, Note_on_c, 0, 76, 97
2, 47140, Note_on_c, 0, 78, 0
2, 47176, Note_on_c, 0, 78, 112
2, 47188, Note_on_c, 0, 76, 0
2, 47520, Note_on_c, 0, 78, 0
2, 47536, Note_on_c, 0, 79, 117
2, 47780, Note_on_c, 0, 79, 0
2, 47784, Note_on_c, 0, 74, 96
2, 47904, Note_on_c, 0, 79, 113
2, 47908, Note_on_c, 0, 74, 0
2, 48016, Note_on_c, 0, 81, 113
2, 48020, Note_on_c, 0, 79, 0
2, 48248, Note_on_c, 0, 81, 0
2, 48252, Note_on_c, 0, 74, 93
2, 48372, Note_on_c, 0, 81, 115
2, 48380, Note_on_c, 0, 74, 0
2, 48496, Note_on_c, 0, 83, 119
2, 48508, Note_on_c, 0, 81, 0
2, 48728, Note_on_c, 0, 79, 102
2, 48736, Note_on_c, 0, 83, 0
2, 48980, Note_on_c, 0, 76, 104
2, 48992, Note_on_c, 0, 79, 0
2, 49216, Note_on_c, 0, 76, 0
2, 49216, Note_on_c, 0, 72, 101
2, 49464, Note_on_c, 0, 72, 0
2, 49464, Note_on_c, 0, 69, 102
2, 49700, Note_on_c, 0, 79, 106
2, 49708, Note_on_c, 0, 69, 0
2, 49940, Note_on_c, 0, 78, 115
2, 49956, Note_on_c, 0, 79, 0
2, 50000, Note_on_c, 0, 78, 0
2, 50000, Note_on_c, 0, 76, 80
2, 50060, Note_on_c, 0, 76, 0
2, 50060, Note_on_c, 0, 75, 93
2, 50180, Note_on_c, 0, 75, 0
2, 50180, Note_on_c, 0, 76, 98
2, 50608, Note_on_c, 0, 75, 88
2, 50628, Note_on_c, 0, 75, 0
2, 50640, Note_on_c, 0, 76, 100
2, 50660, Note_on_c, 0, 76, 0
2, 50660, Note_on_c, 0, 76, 0
2, 50660, Note_on_c, 0, 75, 92
2, 50940, Note_on_c, 0, 75, 0
2, 51140, Note_on_c, 0, 57, 107
2, 51336, Note_on_c, 0, 57, 0
2, 51340, Note_on_c, 0, 55, 85
2, 51364, Note_on_c, 0, 55, 0
2, 51372, Note_on_c, 0, 57, 93
2, 51392, Note_on_c, 0, 55, 97
2, 51408, Note_on_c, 0, 57, 0
2, 51620, Note_on_c, 0, 54, 106
2, 51632, Note_on_c, 0, 55, 0
2, 51856, Note_on_c, 0, 54, 0
2, 51856, Note_on_c, 0, 52, 113
2, 52036, Note_on_c, 0, 52, 0
2, 52340, Note_on_c, 0, 79, 117
2, 52540, Note_on_c, 0, 79, 0
2, 52808, Note_on_c, 0, 50, 111
2, 52900, Note_on_c, 0, 52, 92
2, 52908, Note_on_c, 0, 50, 0
2, 52948, Note_on_c, 0, 52, 0
2, 52948, Note_on_c, 0, 50, 80
2, 52980, Note_on_c, 0, 50, 0
2, 52980, Note_on_c, 0, 52, 91
2, 53008, Note_on_c, 0, 50, 88
2, 53012, Note_on_c, 0, 52, 0
2, 53036, Note_on_c, 0, 50, 0
2, 53036, Note_on_c, 0, 52, 90
2, 53064, Note_on_c, 0, 52, 0
2, 53064, Note_on_c, 0, 50, 90
2, 53092, Note_on_c, 0, 50, 0
2, 53092, Note_on_c, 0, 52, 91
2, 53116, Note_on_c, 0, 50, 86
2, 53124, Note_on_c, 0, 52, 0
2, 53148, Note_on_c, 0, 50, 0
2, 53148, Note_on_c, 0, 52, 93
2, 53184, Note_on_c, 0, 50, 92
2, 53192, Note_on_c, 0, 52, 0
2, 53220, Note_on_c, 0, 48, 89
2, 53224, Note_on_c, 0, 50, 0
2, 53252, Note_on_c, 0, 50, 98
2, 53260, Note_on_c, 0, 48, 0
2, 53296, Note_on_c, 0, 50, 0
2, 53300, Note_on_c, 0, 48, 121
2, 53508, Note_on_c, 0, 48, 0
2, 53768, Note_on_c, 0, 76, 123
2, 53924, Note_on_c, 0, 76, 0
2, 54244, Note_on_c, 0, 45, 113
2, 54280, Note_on_c, 0, 47, 84
2, 54284, Note_on_c, 0, 45, 0
2, 54320, Note_on_c, 0, 45, 77
2, 54324, Note_on_c, 0, 47, 0
2, 54356, Note_on_c, 0, 47, 80
2, 54360, Note_on_c, 0, 45, 0
2, 54388, Note_on_c, 0, 47, 0
2, 54388, Note_on_c, 0, 45, 82
2, 54420, Note_on_c, 0, 45, 0
2, 54420, Note_on_c, 0, 47, 77
2, 54444, Note_on_c, 0, 45, 82
2, 54452, Note_on_c, 0, 47, 0
2, 54484, Note_on_c, 0, 45, 0
2, 54484, Note_on_c, 0, 47, 98
2, 54512, Note_on_c, 0, 45, 85
2, 54516, Note_on_c, 0, 47, 0
2, 54548, Note_on_c, 0, 45, 0
2, 54548, Note_on_c, 0, 47, 97
2, 54576, Note_on_c, 0, 45, 88
2, 54588, Note_on_c, 0, 47, 0
2, 54612, Note_on_c, 0, 43, 88
2, 54616, Note_on_c, 0, 45, 0
2, 54652, Note_on_c, 0, 45, 95
2, 54660, Note_on_c, 0, 43, 0
2, 54704, Note_on_c, 0, 45, 0
2, 54740, Note_on_c, 0, 47, 127
2, 54980, Note_on_c, 0, 47, 0
2, 55220, Note_on_c, 0, 79, 117
2, 55456, Note_on_c, 0, 78, 102
2, 55460, Note_on_c, 0, 79, 0
2, 55696, Note_on_c, 0, 78, 0
2, 55700, Note_on_c, 0, 76, 106
2, 55928, Note_on_c, 0, 75, 102
2, 55944, Note_on_c, 0, 76, 0
2, 56180, Note_on_c, 0, 76, 98
2, 56184, Note_on_c, 0, 75, 0
2, 56420, Note_on_c, 0, 76, 0
2, 56664, Note_on_c, 0, 52, 119
2, 57252, Note_on_c, 0, 52, 0
2, 57252, Note_on_c, 0, 50, 104
2, 57372, Note_on_c, 0, 48, 100
2, 57384, Note_on_c, 0, 50, 0
2, 57484, Note_on_c, 0, 47, 101
2, 57488, Note_on_c, 0, 48, 0
2, 57608, Note_on_c, 0, 47, 0
2, 57620, Note_on_c, 0, 48, 100
2, 57740, Note_on_c, 0, 48, 0
2, 57740, Note_on_c, 0, 52, 109
2, 57860, Note_on_c, 0, 52, 0
2, 57860, Note_on_c, 0, 50, 111
2, 57980, Note_on_c, 0, 50, 0
2, 57980, Note_on_c, 0, 52, 98
2, 58100, Note_on_c, 0, 52, 0
2, 58100, Note_on_c, 0, 57, 121
2, 58220, Note_on_c, 0, 57, 0
2, 58220, Note_on_c, 0, 52, 101
2, 58340, Note_on_c, 0, 52, 0
2, 58340, Note_on_c, 0, 50, 90
2, 58460, Note_on_c, 0, 50, 0
2, 58460, Note_on_c, 0, 52, 109
2, 58580, Note_on_c, 0, 52, 0
2, 58580, Note_on_c, 0, 60, 91
2, 58700, Note_on_c, 0, 60, 0
2, 58700, Note_on_c, 0, 57, 98
2, 58820, Note_on_c, 0, 57, 0
2, 58820, Note_on_c, 0, 55, 95
2, 58940, Note_on_c, 0, 55, 0
2, 58940, Note_on_c, 0, 57, 96
2, 59060, Note_on_c, 0, 57, 0
2, 59060, Note_on_c, 0, 66, 102
2, 59180, Note_on_c, 0, 66, 0
2, 59180, Note_on_c, 0, 57, 101
2, 59300, Note_on_c, 0, 57, 0
2, 59300, Note_on_c, 0, 55, 91
2, 59420, Note_on_c, 0, 55, 0
2, 59420, Note_on_c, 0, 57, 101
2, 59540, Note_on_c, 0, 57, 0
2, 59540, Note_on_c, 0, 67, 117
2, 59660, Note_on_c, 0, 67, 0
2, 59660, Note_on_c, 0, 62, 74
2, 59780, Note_on_c, 0, 62, 0
2, 59780, Note_on_c, 0, 60, 89
2, 59900, Note_on_c, 0, 60, 0
2, 59900, Note_on_c, 0, 62, 97
2, 60020, Note_on_c, 0, 62, 0
2, 60020, Note_on_c, 0, 71, 117
2, 60140, Note_on_c, 0, 71, 0
2, 60140, Note_on_c, 0, 67, 102
2, 60260, Note_on_c, 0, 67, 0
2, 60260, Note_on_c, 0, 66, 99
2, 60380, Note_on_c, 0, 66, 0
2, 60380, Note_on_c, 0, 67, 109
2, 60500, Note_on_c, 0, 67, 0
2, 60500, Note_on_c, 0, 76, 107
2, 60620, Note_on_c, 0, 76, 0
2, 60620, Note_on_c, 0, 74, 84
2, 60740, Note_on_c, 0, 74, 0
2, 60740, Note_on_c, 0, 72, 111
2, 60860, Note_on_c, 0, 72, 0
2, 60860, Note_on_c, 0, 74, 107
2, 60980, Note_on_c, 0, 74, 0
2, 60980, Note_on_c, 0, 78, 115
2, 61100, Note_on_c, 0, 78, 0
2, 61100, Note_on_c, 0, 74, 98
2, 61220, Note_on_c, 0, 74, 0
2, 61220, Note_on_c, 0, 72, 100
2, 61340, Note_on_c, 0, 72, 0
2, 61340, Note_on_c, 0, 74, 96
2, 61460, Note_on_c, 0, 74, 0
2, 61460, Note_on_c, 0, 79, 101
2, 61580, Note_on_c, 0, 79, 0
2, 61580, Note_on_c, 0, 74, 91
2, 61700, Note_on_c, 0, 74, 0
2, 61700, Note_on_c, 0, 72, 102
2, 61820, Note_on_c, 0, 72, 0
2, 61820, Note_on_c, 0, 74, 93
2, 61940, Note_on_c, 0, 74, 0
2, 61940, Note_on_c, 0, 81, 113
2, 62060, Note_on_c, 0, 81, 0
2, 62060, Note_on_c, 0, 74, 89
2, 62180, Note_on_c, 0, 74, 0
2, 62180, Note_on_c, 0, 72, 98
2, 62300, Note_on_c, 0, 72, 0
2, 62300, Note_on_c, 0, 71, 97
2, 62420, Note_on_c, 0, 71, 0
2, 62420, Note_on_c, 0, 72, 102
2, 62540, Note_on_c, 0, 72, 0
2, 62540, Note_on_c, 0, 71, 98
2, 62660, Note_on_c, 0, 71, 0
2, 62660, Note_on_c, 0, 69, 89
2, 62780, Note_on_c, 0, 69, 0
2, 62780, Note_on_c, 0, 67, 95
2, 62900, Note_on_c, 0, 67, 0
2, 62900, Note_on_c, 0, 66, 81
2, 63020, Note_on_c, 0, 66, 0
2, 63020, Note_on_c, 0, 81, 126
2, 63140, Note_on_c, 0, 81, 0
2, 63140, Note_on_c, 0, 79, 104
2, 63260, Note_on_c, 0, 79, 0
2, 63260, Note_on_c, 0, 78, 119
2, 63380, Note_on_c, 0, 78, 0
2, 63380, Note_on_c, 0, 79, 115
2, 63620, Note_on_c, 0, 79, 0
2, 63620, Note_on_c, 0, 71, 109
2, 63860, Note_on_c, 0, 71, 0
2, 64100, Note_on_c, 0, 53, 106
2, 64340, Note_on_c, 0, 53, 0
2, 64340, Note_on_c, 0, 52, 107
2, 64580, Note_on_c, 0, 52, 0
2, 64580, Note_on_c, 0, 50, 95
2, 64820, Note_on_c, 0, 50, 0
2, 64820, Note_on_c, 0, 48, 109
2, 64940, Note_on_c, 0, 48, 0
2, 64940, Note_on_c, 0, 60, 106
2, 65060, Note_on_c, 0, 60, 0
2, 65060, Note_on_c, 0, 59, 90
2, 65180, Note_on_c, 0, 59, 0
2, 65180, Note_on_c, 0, 60, 100
2, 65300, Note_on_c, 0, 60, 0
2, 65300, Note_on_c, 0, 62, 104
2, 65420, Note_on_c, 0, 62, 0
2, 65420, Note_on_c, 0, 60, 96
2, 65540, Note_on_c, 0, 60, 0
2, 65540, Note_on_c, 0, 64, 100
2, 65660, Note_on_c, 0, 64, 0
2, 65660, Note_on_c, 0, 60, 91
2, 65780, Note_on_c, 0, 60, 0
2, 65780, Note_on_c, 0, 66, 108
2, 65900, Note_on_c, 0, 66, 0
2, 65900, Note_on_c, 0, 60, 89
2, 66020, Note_on_c, 0, 60, 0
2, 66020, Note_on_c, 0, 67, 93
2, 66140, Note_on_c, 0, 67, 0
2, 66140, Note_on_c, 0, 60, 86
2, 66260, Note_on_c, 0, 60, 0
2, 66260, Note_on_c, 0, 69, 104
2, 66380, Note_on_c, 0, 69, 0
2, 66380, Note_on_c, 0, 60, 100
2, 66500, Note_on_c, 0, 60, 0
2, 66500, Note_on_c, 0, 59, 101
2, 66620, Note_on_c, 0, 59, 0
2, 66620, Note_on_c, 0, 57, 84
2, 66740, Note_on_c, 0, 57, 0
2, 66740, Note_on_c, 0, 59, 102
2, 66980, Note_on_c, 0, 59, 0
2, 66980, Note_on_c, 0, 74, 113
2, 67220, Note_on_c, 0, 74, 0
2, 67220, Note_on_c, 0, 50, 113
2, 67460, Note_on_c, 0, 50, 0
2, 67460, Note_on_c, 0, 72, 106
2, 67700, Note_on_c, 0, 72, 0
2, 67700, Note_on_c, 0, 71, 86
2, 67820, Note_on_c, 0, 71, 0
2, 67820, Note_on_c, 0, 67, 62
2, 67940, Note_on_c, 0, 67, 0
2, 67940, Note_on_c, 0, 62, 97
2, 68060, Note_on_c, 0, 62, 0
2, 68060, Note_on_c, 0, 67, 97
2, 68180, Note_on_c, 0, 67, 0
2, 68180, Note_on_c, 0, 71, 88
2, 68300, Note_on_c, 0, 71, 0
2, 68300, Note_on_c, 0, 67, 97
2, 68420, Note_on_c, 0, 67, 0
2, 68420, Note_on_c, 0, 74, 109
2, 68540, Note_on_c, 0, 74, 0
2, 68540, Note_on_c, 0, 71, 100
2, 68660, Note_on_c, 0, 71, 0
2, 68660, Note_on_c, 0, 79, 113
2, 69140, Note_on_c, 0, 79, 0
2, 70560, End_track
3, 0, Start_track
3, 0, Title_t, "goldberg.mid"
3, 24, Note_on_c, 3, 55, 107
3, 272, Note_on_c, 3, 55, 0
3, 500, Note_on_c, 3, 71, 102
3, 740, Note_on_c, 3, 71, 0
3, 968, Note_on_c, 3, 55, 106
3, 1432, Note_on_c, 3, 55, 0
3, 1460, Note_on_c, 3, 54, 112
3, 1700, Note_on_c, 3, 54, 0
3, 1940, Note_on_c, 3, 69, 101
3, 2180, Note_on_c, 3, 69, 0
3, 2416, Note_on_c, 3, 54, 121
3, 2876, Note_on_c, 3, 54, 0
3, 2888, Note_on_c, 3, 52, 107
3, 3156, Note_on_c, 3, 52, 0
3, 3380, Note_on_c, 3, 67, 101
3, 3620, Note_on_c, 3, 67, 0
3, 3860, Note_on_c, 3, 52, 109
3, 4340, Note_on_c, 3, 52, 0
3, 4344, Note_on_c, 3, 50, 107
3, 4596, Note_on_c, 3, 50, 0
3, 4820, Note_on_c, 3, 66, 102
3, 5060, Note_on_c, 3, 66, 0
3, 5300, Note_on_c, 3, 50, 97
3, 5540, Note_on_c, 3, 50, 0
3, 5540, Note_on_c, 3, 48, 101
3, 5780, Note_on_c, 3, 48, 0
3, 5780, Note_on_c, 3, 47, 115
3, 6016, Note_on_c, 3, 47, 0
3, 6260, Note_on_c, 3, 74, 123
3, 6500, Note_on_c, 3, 74, 0
3, 6728, Note_on_c, 3, 47, 121
3, 7204, Note_on_c, 3, 47, 0
3, 7216, Note_on_c, 3, 48, 113
3, 7472, Note_on_c, 3, 48, 0
3, 7700, Note_on_c, 3, 76, 121
3, 7940, Note_on_c, 3, 76, 0
3, 8160, Note_on_c, 3, 48, 123
3, 8648, Note_on_c, 3, 48, 0
3, 8660, Note_on_c, 3, 50, 107
3, 8900, Note_on_c, 3, 50, 0
3, 9140, Note_on_c, 3, 69, 113
3, 9352, Note_on_c, 3, 69, 0
3, 9620, Note_on_c, 3, 50, 107
3, 10084, Note_on_c, 3, 50, 0
3, 10100, Note_on_c, 3, 43, 119
3, 10340, Note_on_c, 3, 43, 0
3, 10580, Note_on_c, 3, 71, 106
3, 11172, Note_on_c, 3, 69, 102
3, 11196, Note_on_c, 3, 71, 0
3, 11296, Note_on_c, 3, 69, 0
3, 11296, Note_on_c, 3, 67, 81
3, 11416, Note_on_c, 3, 66, 101
3, 11428, Note_on_c, 3, 67, 0
3, 11512, Note_on_c, 3, 66, 0
3, 11540, Note_on_c, 3, 67, 90
3, 11660, Note_on_c, 3, 67, 0
3, 11660, Note_on_c, 3, 71, 65
3, 11780, Note_on_c, 3, 73, 94
3, 11804, Note_on_c, 3, 71, 0
3, 11888, Note_on_c, 3, 73, 0
3, 11900, Note_on_c, 3, 74, 81
3, 12012, Note_on_c, 3, 76, 88
3, 12028, Note_on_c, 3, 74, 0
3, 12124, Note_on_c, 3, 78, 89
3, 12140, Note_on_c, 3, 76, 0
3, 12248, Note_on_c, 3, 76, 91
3, 12252, Note_on_c, 3, 78, 0
3, 12364, Note_on_c, 3, 74, 75
3, 12368, Note_on_c, 3, 76, 0
3, 12484, Note_on_c, 3, 73, 84
3, 12496, Note_on_c, 3, 74, 0
3, 12616, Note_on_c, 3, 73, 0
3, 12624, Note_on_c, 3, 71, 47
3, 12740, Note_on_c, 3, 69, 80
3, 12792, Note_on_c, 3, 71, 0
3, 12860, Note_on_c, 3, 69, 0
3, 12860, Note_on_c, 3, 67, 72
3, 12980, Note_on_c, 3, 67, 0
3, 12980, Note_on_c, 3, 66, 108
3, 13100, Note_on_c, 3, 69, 84
3, 13112, Note_on_c, 3, 66, 0
3, 13220, Note_on_c, 3, 69, 0
3, 13220, Note_on_c, 3, 71, 96
3, 13340, Note_on_c, 3, 71, 0
3, 13340, Note_on_c, 3, 73, 112
3, 13460, Note_on_c, 3, 73, 0
3, 13460, Note_on_c, 3, 74, 113
3, 13576, Note_on_c, 3, 74, 0
3, 13592, Note_on_c, 3, 76, 101
3, 13704, Note_on_c, 3, 74, 98
3, 13716, Note_on_c, 3, 76, 0
3, 13820, Note_on_c, 3, 73, 108
3, 13828, Note_on_c, 3, 74, 0
3, 13932, Note_on_c, 3, 71, 97
3, 13944, Note_on_c, 3, 73, 0
3, 14040, Note_on_c, 3, 71, 0
3, 14040, Note_on_c, 3, 69, 88
3, 14164, Note_on_c, 3, 67, 96
3, 14172, Note_on_c, 3, 69, 0
3, 14276, Note_on_c, 3, 66, 90
3, 14280, Note_on_c, 3, 67, 0
3, 14404, Note_on_c, 3, 66, 0
3, 14420, Note_on_c, 3, 64, 101
3, 14660, Note_on_c, 3, 66, 110
3, 14672, Note_on_c, 3, 64, 0
3, 14896, Note_on_c, 3, 66, 0
3, 14900, Note_on_c, 3, 67, 92
3, 15140, Note_on_c, 3, 71, 106
3, 15152, Note_on_c, 3, 67, 0
3, 15380, Note_on_c, 3, 76, 117
3, 15384, Note_on_c, 3, 71, 0
3, 15428, Note_on_c, 3, 74, 107
3, 15436, Note_on_c, 3, 76, 0
3, 15488, Note_on_c, 3, 76, 113
3, 15500, Note_on_c, 3, 74, 0
3, 16100, Note_on_c, 3, 74, 109
3, 16112, Note_on_c, 3, 76, 0
3, 16332, Note_on_c, 3, 73, 101
3, 16352, Note_on_c, 3, 74, 0
3, 16448, Note_on_c, 3, 76, 104
3, 16464, Note_on_c, 3, 73, 0
3, 16572, Note_on_c, 3, 71, 95
3, 16576, Note_on_c, 3, 76, 0
3, 16680, Note_on_c, 3, 76, 96
3, 16700, Note_on_c, 3, 71, 0
3, 16816, Note_on_c, 3, 69, 95
3, 16840, Note_on_c, 3, 76, 0
3, 16936, Note_on_c, 3, 76, 101
3, 16948, Note_on_c, 3, 69, 0
3, 17064, Note_on_c, 3, 76, 0
3, 17064, Note_on_c, 3, 67, 82
3, 17180, Note_on_c, 3, 76, 89
3, 17200, Note_on_c, 3, 67, 0
3, 17300, Note_on_c, 3, 66, 90
3, 17308, Note_on_c, 3, 76, 0
3, 17420, Note_on_c, 3, 66, 0
3, 17420, Note_on_c, 3, 76, 98
3, 17540, Note_on_c, 3, 76, 0
3, 17540, Note_on_c, 3, 74, 93
3, 17660, Note_on_c, 3, 74, 0
3, 17660, Note_on_c, 3, 73, 84
3, 17780, Note_on_c, 3, 73, 0
3, 17780, Note_on_c, 3, 74, 98
3, 17900, Note_on_c, 3, 74, 0
3, 17900, Note_on_c, 3, 69, 98
3, 18020, Note_on_c, 3, 69, 0
3, 18020, Note_on_c, 3, 62, 86
3, 18140, Note_on_c, 3, 74, 85
3, 18164, Note_on_c, 3, 62, 0
3, 18272, Note_on_c, 3, 74, 0
3, 18272, Note_on_c, 3, 64, 60
3, 18376, Note_on_c, 3, 74, 86
3, 18416, Note_on_c, 3, 64, 0
3, 18496, Note_on_c, 3, 66, 96
3, 18504, Note_on_c, 3, 74, 0
3, 18612, Note_on_c, 3, 74, 102
3, 18628, Note_on_c, 3, 66, 0
3, 18728, Note_on_c, 3, 74, 0
3, 18740, Note_on_c, 3, 67, 90
3, 18860, Note_on_c, 3, 76, 102
3, 18872, Note_on_c, 3, 67, 0
3, 18976, Note_on_c, 3, 74, 100
3, 18988, Note_on_c, 3, 76, 0
3, 19092, Note_on_c, 3, 73, 96
3, 19100, Note_on_c, 3, 74, 0
3, 19224, Note_on_c, 3, 74, 97
3, 19240, Note_on_c, 3, 73, 0
3, 19344, Note_on_c, 3, 71, 93
3, 19360, Note_on_c, 3, 74, 0
3, 19472, Note_on_c, 3, 64, 86
3, 19484, Note_on_c, 3, 71, 0
3, 19580, Note_on_c, 3, 74, 92
3, 19596, Note_on_c, 3, 64, 0
3, 19700, Note_on_c, 3, 74, 0
3, 19700, Note_on_c, 3, 66, 101
3, 19820, Note_on_c, 3, 66, 0
3, 19832, Note_on_c, 3, 74, 100
3, 19948, Note_on_c, 3, 74, 0
3, 19948, Note_on_c, 3, 67, 97
3, 20060, Note_on_c, 3, 74, 101
3, 20076, Note_on_c, 3, 67, 0
3, 20180, Note_on_c, 3, 74, 0
3, 20188, Note_on_c, 3, 69, 86
3, 20300, Note_on_c, 3, 74, 101
3, 20316, Note_on_c, 3, 69, 0
3, 20412, Note_on_c, 3, 74, 0
3, 20412, Note_on_c, 3, 73, 89
3, 20520, Note_on_c, 3, 73, 0
3, 20520, Note_on_c, 3, 71, 100
3, 20636, Note_on_c, 3, 73, 90
3, 20648, Note_on_c, 3, 71, 0
3, 20760, Note_on_c, 3, 73, 0
3, 20760, Note_on_c, 3, 76, 104
3, 20896, Note_on_c, 3, 69, 81
3, 20912, Note_on_c, 3, 76, 0
3, 20992, Note_on_c, 3, 69, 0
3, 21004, Note_on_c, 3, 73, 93
3, 21124, Note_on_c, 3, 73, 0
3, 21132, Note_on_c, 3, 64, 97
3, 21244, Note_on_c, 3, 67, 97
3, 21260, Note_on_c, 3, 64, 0
3, 21368, Note_on_c, 3, 66, 97
3, 21388, Note_on_c, 3, 67, 0
3, 21476, Note_on_c, 3, 64, 89
3, 21480, Note_on_c, 3, 66, 0
3, 21616, Note_on_c, 3, 64, 0
3, 21620, Note_on_c, 3, 66, 90
3, 21740, Note_on_c, 3, 69, 85
3, 21748, Note_on_c, 3, 66, 0
3, 21860, Note_on_c, 3, 62, 88
3, 21868, Note_on_c, 3, 69, 0
3, 21980, Note_on_c, 3, 62, 0
3, 21980, Note_on_c, 3, 66, 96
3, 22100, Note_on_c, 3, 66, 0
3, 22100, Note_on_c, 3, 62, 97
3, 22220, Note_on_c, 3, 66, 96
3, 22232, Note_on_c, 3, 62, 0
3, 22332, Note_on_c, 3, 66, 0
3, 22340, Note_on_c, 3, 57, 91
3, 22440, Note_on_c, 3, 57, 0
3, 22460, Note_on_c, 3, 62, 68
3, 22564, Note_on_c, 3, 62, 0
3, 22580, Note_on_c, 3, 50, 104
3, 23060, Note_on_c, 3, 50, 0
3, 23064, Note_on_c, 3, 55, 107
3, 23312, Note_on_c, 3, 55, 0
3, 23540, Note_on_c, 3, 71, 102
3, 23780, Note_on_c, 3, 71, 0
3, 24008, Note_on_c, 3, 55, 106
3, 24472, Note_on_c, 3, 55, 0
3, 24500, Note_on_c, 3, 54, 112
3, 24740, Note_on_c, 3, 54, 0
3, 24980, Note_on_c, 3, 69, 101
3, 25220, Note_on_c, 3, 69, 0
3, 25456, Note_on_c, 3, 54, 121
3, 25916, Note_on_c, 3, 54, 0
3, 25928, Note_on_c, 3, 52, 107
3, 26196, Note_on_c, 3, 52, 0
3, 26420, Note_on_c, 3, 67, 101
3, 26660, Note_on_c, 3, 67, 0
3, 26900, Note_on_c, 3, 52, 109
3, 27380, Note_on_c, 3, 52, 0
3, 27384, Note_on_c, 3, 50, 107
3, 27636, Note_on_c, 3, 50, 0
3, 27860, Note_on_c, 3, 66, 102
3, 28100, Note_on_c, 3, 66, 0
3, 28340, Note_on_c, 3, 50, 97
3, 28580, Note_on_c, 3, 50, 0
3, 28580, Note_on_c, 3, 48, 101
3, 28820, Note_on_c, 3, 48, 0
3, 28820, Note_on_c, 3, 47, 115
3, 29056, Note_on_c, 3, 47, 0
3, 29300, Note_on_c, 3, 74, 123
3, 29540, Note_on_c, 3, 74, 0
3, 29768, Note_on_c, 3, 47, 121
3, 30244, Note_on_c, 3, 47, 0
3, 30256, Note_on_c, 3, 48, 113
3, 30512, Note_on_c, 3, 48, 0
3, 30740, Note_on_c, 3, 76, 121
3, 30980, Note_on_c, 3, 76, 0
3, 31200, Note_on_c, 3, 48, 123
3, 31688, Note_on_c, 3, 48, 0
3, 31700, Note_on_c, 3, 50, 107
3, 31940, Note_on_c, 3, 50, 0
3, 32180, Note_on_c, 3, 69, 113
3, 32392, Note_on_c, 3, 69, 0
3, 32660, Note_on_c, 3, 50, 107
3, 33124, Note_on_c, 3, 50, 0
3, 33140, Note_on_c, 3, 43, 119
3, 33380, Note_on_c, 3, 43, 0
3, 33620, Note_on_c, 3, 71, 106
3, 34212, Note_on_c, 3, 69, 102
3, 34236, Note_on_c, 3, 71, 0
3, 34336, Note_on_c, 3, 69, 0
3, 34336, Note_on_c, 3, 67, 81
3, 34456, Note_on_c, 3, 66, 101
3, 34468, Note_on_c, 3, 67, 0
3, 34552, Note_on_c, 3, 66, 0
3, 34580, Note_on_c, 3, 67, 90
3, 34700, Note_on_c, 3, 67, 0
3, 34700, Note_on_c, 3, 71, 65
3, 34820, Note_on_c, 3, 73, 94
3, 34844, Note_on_c, 3, 71, 0
3, 34928, Note_on_c, 3, 73, 0
3, 34940, Note_on_c, 3, 74, 81
3, 35052, Note_on_c, 3, 76, 88
3, 35068, Note_on_c, 3, 74, 0
3, 35164, Note_on_c, 3, 78, 89
3, 35180, Note_on_c, 3, 76, 0
3, 35288, Note_on_c, 3, 76, 91
3, 35292, Note_on_c, 3, 78, 0
3, 35404, Note_on_c, 3, 74, 75
3, 35408, Note_on_c, 3, 76, 0
3, 35524, Note_on_c, 3, 73, 84
3, 35536, Note_on_c, 3, 74, 0
3, 35656, Note_on_c, 3, 73, 0
3, 35664, Note_on_c, 3, 71, 47
3, 35780, Note_on_c, 3, 69, 80
3, 35832, Note_on_c, 3, 71, 0
3, 35900, Note_on_c, 3, 69, 0
3, 35900, Note_on_c, 3, 67, 72
3, 36020, Note_on_c, 3, 67, 0
3, 36020, Note_on_c, 3, 66, 108
3, 36140, Note_on_c, 3, 69, 84
3, 36152, Note_on_c, 3, 66, 0
3, 36260, Note_on_c, 3, 69, 0
3, 36260, Note_on_c, 3, 71, 96
3, 36380, Note_on_c, 3, 71, 0
3, 36380, Note_on_c, 3, 73, 112
3, 36500, Note_on_c, 3, 73, 0
3, 36500, Note_on_c, 3, 74, 113
3, 36616, Note_on_c, 3, 74, 0
3, 36632, Note_on_c, 3, 76, 101
3, 36744, Note_on_c, 3, 74, 98
3, 36756, Note_on_c, 3, 76, 0
3, 36860, Note_on_c, 3, 73, 108
3, 36868, Note_on_c, 3, 74, 0
3, 36972, Note_on_c, 3, 71, 97
3, 36984, Note_on_c, 3, 73, 0
3, 37080, Note_on_c, 3, 71, 0
3, 37080, Note_on_c, 3, 69, 88
3, 37204, Note_on_c, 3, 67, 96
3, 37212, Note_on_c, 3, 69, 0
3, 37316, Note_on_c, 3, 66, 90
3, 37320, Note_on_c, 3, 67, 0
3, 37444, Note_on_c, 3, 66, 0
3, 37460, Note_on_c, 3, 64, 101
3, 37700, Note_on_c, 3, 66, 110
3, 37712, Note_on_c, 3, 64, 0
3, 37936, Note_on_c, 3, 66, 0
3, 37940, Note_on_c, 3, 67, 92
3, 38180, Note_on_c, 3, 71, 106
3, 38192, Note_on_c, 3, 67, 0
3, 38420, Note_on_c, 3, 76, 117
3, 38424, Note_on_c, 3, 71, 0
3, 38468, Note_on_c, 3, 74, 107
3, 38476, Note_on_c, 3, 76, 0
3, 38528, Note_on_c, 3, 76, 113
3, 38540, Note_on_c, 3, 74, 0
3, 39140, Note_on_c, 3, 74, 109
3, 39152, Note_on_c, 3, 76, 0
3, 39372, Note_on_c, 3, 73, 101
3, 39392, Note_on_c, 3, 74, 0
3, 39488, Note_on_c, 3, 76, 104
3, 39504, Note_on_c, 3, 73, 0
3, 39612, Note_on_c, 3, 71, 95
3, 39616, Note_on_c, 3, 76, 0
3, 39720, Note_on_c, 3, 76, 96
3, 39740, Note_on_c, 3, 71, 0
3, 39856, Note_on_c, 3, 69, 95
3, 39880, Note_on_c, 3, 76, 0
3, 39976, Note_on_c, 3, 76, 101
3, 39988, Note_on_c, 3, 69, 0
3, 40104, Note_on_c, 3, 76, 0
3, 40104, Note_on_c, 3, 67, 82
3, 40220, Note_on_c, 3, 76, 89
3, 40240, Note_on_c, 3, 67, 0
3, 40340, Note_on_c, 3, 66, 90
3, 40348, Note_on_c, 3, 76, 0
3, 40460, Note_on_c, 3, 66, 0
3, 40460, Note_on_c, 3, 76, 98
3, 40580, Note_on_c, 3, 76, 0
3, 40580, Note_on_c, 3, 74, 93
3, 40700, Note_on_c, 3, 74, 0
3, 40700, Note_on_c, 3, 73, 84
3, 40820, Note_on_c, 3, 73, 0
3, 40820, Note_on_c, 3, 74, 98
3, 40940, Note_on_c, 3, 74, 0
3, 40940, Note_on_c, 3, 69, 98
3, 41060, Note_on_c, 3, 69, 0
3, 41060, Note_on_c, 3, 62, 86
3, 41180, Note_on_c, 3, 74, 85
3, 41204, Note_on_c, 3, 62, 0
3, 41312, Note_on_c, 3, 74, 0
3, 41312, Note_on_c, 3, 64, 60
3, 41416, Note_on_c, 3, 74, 86
3, 41456, Note_on_c, 3, 64, 0
3, 41536, Note_on_c, 3, 66, 96
3, 41544, Note_on_c, 3, 74, 0
3, 41652, Note_on_c, 3, 74, 102
3, 41668, Note_on_c, 3, 66, 0
3, 41768, Note_on_c, 3, 74, 0
3, 41780, Note_on_c, 3, 67, 90
3, 41900, Note_on_c, 3, 76, 102
3, 41912, Note_on_c, 3, 67, 0
3, 42016, Note_on_c, 3, 74, 100
3, 42028, Note_on_c, 3, 76, 0
3, 42132, Note_on_c, 3, 73, 96
3, 42140, Note_on_c, 3, 74, 0
3, 42264, Note_on_c, 3, 74, 97
3, 42280, Note_on_c, 3, 73, 0
3, 42384, Note_on_c, 3, 71, 93
3, 42400, Note_on_c, 3, 74, 0
3, 42512, Note_on_c, 3, 64, 86
3, 42524, Note_on_c, 3, 71, 0
3, 42620, Note_on_c, 3, 74, 92
3, 42636, Note_on_c, 3, 64, 0
3, 42740, Note_on_c, 3, 74, 0
3, 42740, Note_on_c, 3, 66, 101
3, 42860, Note_on_c, 3, 66, 0
3, 42872, Note_on_c, 3, 74, 100
3, 42988, Note_on_c, 3, 74, 0
3, 42988, Note_on_c, 3, 67, 97
3, 43100, Note_on_c, 3, 74, 101
3, 43116, Note_on_c, 3, 67, 0
3, 43220, Note_on_c, 3, 74, 0
3, 43228, Note_on_c, 3, 69, 86
3, 43340, Note_on_c, 3, 74, 101
3, 43356, Note_on_c, 3, 69, 0
3, 43452, Note_on_c, 3, 74, 0
3, 43452, Note_on_c, 3, 73, 89
3, 43560, Note_on_c, 3, 73, 0
3, 43560, Note_on_c, 3, 71, 100
3, 43676, Note_on_c, 3, 73, 90
3, 43688, Note_on_c, 3, 71, 0
3, 43800, Note_on_c, 3, 73, 0
3, 43800, Note_on_c, 3, 76, 104
3, 43936, Note_on_c, 3, 69, 81
3, 43952, Note_on_c, 3, 76, 0
3, 44032, Note_on_c, 3, 69, 0
3, 44044, Note_on_c, 3, 73, 93
3, 44164, Note_on_c, 3, 73, 0
3, 44172, Note_on_c, 3, 64, 97
3, 44284, Note_on_c, 3, 67, 97
3, 44300, Note_on_c, 3, 64, 0
3, 44408, Note_on_c, 3, 66, 97
3, 44428, Note_on_c, 3, 67, 0
3, 44516, Note_on_c, 3, 64, 89
3, 44520, Note_on_c, 3, 66, 0
3, 44656, Note_on_c, 3, 64, 0
3, 44660, Note_on_c, 3, 66, 90
3, 44780, Note_on_c, 3, 69, 85
3, 44788, Note_on_c, 3, 66, 0
3, 44900, Note_on_c, 3, 62, 88
3, 44908, Note_on_c, 3, 69, 0
3, 45020, Note_on_c, 3, 62, 0
3, 45020, Note_on_c, 3, 66, 96
3, 45140, Note_on_c, 3, 66, 0
3, 45140, Note_on_c, 3, 62, 97
3, 45260, Note_on_c, 3, 66, 96
3, 45272, Note_on_c, 3, 62, 0
3, 45372, Note_on_c, 3, 66, 0
3, 45380, Note_on_c, 3, 57, 91
3, 45480, Note_on_c, 3, 57, 0
3, 45500, Note_on_c, 3, 62, 68
3, 45604, Note_on_c, 3, 62, 0
3, 45620, Note_on_c, 3, 50, 104
3, 46100, Note_on_c, 3, 50, 0
3, 46220, Note_on_c, 3, 74, 117
3, 46336, Note_on_c, 3, 74, 0
3, 46340, Note_on_c, 3, 72, 98
3, 46456, Note_on_c, 3, 72, 0
3, 46460, Note_on_c, 3, 71, 104
3, 46576, Note_on_c, 3, 71, 0
3, 46580, Note_on_c, 3, 69, 101
3, 46696, Note_on_c, 3, 69, 0
3, 46700, Note_on_c, 3, 67, 89
3, 46816, Note_on_c, 3, 67, 0
3, 46820, Note_on_c, 3, 66, 101
3, 46936, Note_on_c, 3, 66, 0
3, 46940, Note_on_c, 3, 64, 98
3, 47056, Note_on_c, 3, 64, 0
3, 47060, Note_on_c, 3, 62, 106
3, 47176, Note_on_c, 3, 62, 0
3, 47180, Note_on_c, 3, 72, 123
3, 47296, Note_on_c, 3, 72, 0
3, 47300, Note_on_c, 3, 71, 111
3, 47416, Note_on_c, 3, 71, 0
3, 47420, Note_on_c, 3, 69, 107
3, 47536, Note_on_c, 3, 69, 0
3, 47540, Note_on_c, 3, 71, 107
3, 47656, Note_on_c, 3, 71, 0
3, 47660, Note_on_c, 3, 67, 97
3, 47776, Note_on_c, 3, 67, 0
3, 47780, Note_on_c, 3, 66, 117
3, 47896, Note_on_c, 3, 66, 0
3, 47900, Note_on_c, 3, 64, 115
3, 48016, Note_on_c, 3, 64, 0
3, 48020, Note_on_c, 3, 62, 106
3, 48136, Note_on_c, 3, 62, 0
3, 48140, Note_on_c, 3, 60, 98
3, 48256, Note_on_c, 3, 60, 0
3, 48260, Note_on_c, 3, 59, 93
3, 48376, Note_on_c, 3, 59, 0
3, 48380, Note_on_c, 3, 57, 102
3, 48496, Note_on_c, 3, 57, 0
3, 48500, Note_on_c, 3, 55, 111
3, 48616, Note_on_c, 3, 55, 0
3, 48620, Note_on_c, 3, 67, 92
3, 48736, Note_on_c, 3, 67, 0
3, 48740, Note_on_c, 3, 69, 97
3, 48856, Note_on_c, 3, 69, 0
3, 48860, Note_on_c, 3, 71, 106
3, 48976, Note_on_c, 3, 71, 0
3, 48980, Note_on_c, 3, 72, 75
3, 49096, Note_on_c, 3, 72, 0
3, 49100, Note_on_c, 3, 74, 104
3, 49216, Note_on_c, 3, 74, 0
3, 49220, Note_on_c, 3, 76, 98
3, 49336, Note_on_c, 3, 76, 0
3, 49340, Note_on_c, 3, 74, 88
3, 49456, Note_on_c, 3, 74, 0
3, 49460, Note_on_c, 3, 72, 100
3, 49576, Note_on_c, 3, 72, 0
3, 49580, Note_on_c, 3, 71, 85
3, 49696, Note_on_c, 3, 71, 0
3, 49700, Note_on_c, 3, 69, 75
3, 49816, Note_on_c, 3, 69, 0
3, 49820, Note_on_c, 3, 67, 59
3, 49936, Note_on_c, 3, 67, 0
3, 49940, Note_on_c, 3, 69, 66
3, 50056, Note_on_c, 3, 69, 0
3, 50060, Note_on_c, 3, 71, 88
3, 50176, Note_on_c, 3, 71, 0
3, 50180, Note_on_c, 3, 72, 84
3, 50296, Note_on_c, 3, 72, 0
3, 50300, Note_on_c, 3, 69, 69
3, 50416, Note_on_c, 3, 69, 0
3, 50420, Note_on_c, 3, 71, 83
3, 50536, Note_on_c, 3, 71, 0
3, 50540, Note_on_c, 3, 69, 85
3, 50656, Note_on_c, 3, 69, 0
3, 50660, Note_on_c, 3, 71, 97
3, 50776, Note_on_c, 3, 71, 0
3, 50780, Note_on_c, 3, 66, 102
3, 50896, Note_on_c, 3, 66, 0
3, 50900, Note_on_c, 3, 59, 96
3, 51016, Note_on_c, 3, 59, 0
3, 51020, Note_on_c, 3, 61, 94
3, 51136, Note_on_c, 3, 61, 0
3, 51140, Note_on_c, 3, 63, 110
3, 51256, Note_on_c, 3, 63, 0
3, 51260, Note_on_c, 3, 64, 104
3, 51376, Note_on_c, 3, 64, 0
3, 51380, Note_on_c, 3, 66, 108
3, 51496, Note_on_c, 3, 66, 0
3, 51500, Note_on_c, 3, 67, 89
3, 51616, Note_on_c, 3, 67, 0
3, 51620, Note_on_c, 3, 69, 88
3, 51736, Note_on_c, 3, 69, 0
3, 51740, Note_on_c, 3, 66, 77
3, 51856, Note_on_c, 3, 66, 0
3, 51860, Note_on_c, 3, 67, 85
3, 51976, Note_on_c, 3, 67, 0
3, 51980, Note_on_c, 3, 71, 84
3, 52096, Note_on_c, 3, 71, 0
3, 52100, Note_on_c, 3, 67, 82
3, 52216, Note_on_c, 3, 67, 0
3, 52220, Note_on_c, 3, 64, 81
3, 52336, Note_on_c, 3, 64, 0
3, 52340, Note_on_c, 3, 67, 92
3, 52456, Note_on_c, 3, 67, 0
3, 52460, Note_on_c, 3, 71, 89
3, 52576, Note_on_c, 3, 71, 0
3, 52580, Note_on_c, 3, 67, 88
3, 52696, Note_on_c, 3, 67, 0
3, 52700, Note_on_c, 3, 64, 75
3, 52816, Note_on_c, 3, 64, 0
3, 52820, Note_on_c, 3, 67, 83
3, 52936, Note_on_c, 3, 67, 0
3, 52940, Note_on_c, 3, 71, 91
3, 53056, Note_on_c, 3, 71, 0
3, 53060, Note_on_c, 3, 67, 89
3, 53176, Note_on_c, 3, 67, 0
3, 53180, Note_on_c, 3, 64, 93
3, 53296, Note_on_c, 3, 64, 0
3, 53300, Note_on_c, 3, 69, 98
3, 53416, Note_on_c, 3, 69, 0
3, 53420, Note_on_c, 3, 72, 101
3, 53536, Note_on_c, 3, 72, 0
3, 53540, Note_on_c, 3, 69, 93
3, 53656, Note_on_c, 3, 69, 0
3, 53660, Note_on_c, 3, 64, 96
3, 53776, Note_on_c, 3, 64, 0
3, 53780, Note_on_c, 3, 67, 97
3, 53896, Note_on_c, 3, 67, 0
3, 53900, Note_on_c, 3, 72, 100
3, 54016, Note_on_c, 3, 72, 0
3, 54020, Note_on_c, 3, 67, 90
3, 54136, Note_on_c, 3, 67, 0
3, 54140, Note_on_c, 3, 64, 90
3, 54256, Note_on_c, 3, 64, 0
3, 54260, Note_on_c, 3, 66, 101
3, 54376, Note_on_c, 3, 66, 0
3, 54380, Note_on_c, 3, 72, 104
3, 54496, Note_on_c, 3, 72, 0
3, 54500, Note_on_c, 3, 66, 99
3, 54616, Note_on_c, 3, 66, 0
3, 54620, Note_on_c, 3, 64, 93
3, 54736, Note_on_c, 3, 64, 0
3, 54740, Note_on_c, 3, 67, 95
3, 54856, Note_on_c, 3, 67, 0
3, 54860, Note_on_c, 3, 71, 100
3, 54976, Note_on_c, 3, 71, 0
3, 54980, Note_on_c, 3, 67, 93
3, 55096, Note_on_c, 3, 67, 0
3, 55100, Note_on_c, 3, 64, 98
3, 55216, Note_on_c, 3, 64, 0
3, 55220, Note_on_c, 3, 59, 100
3, 55336, Note_on_c, 3, 59, 0
3, 55340, Note_on_c, 3, 71, 104
3, 55456, Note_on_c, 3, 71, 0
3, 55460, Note_on_c, 3, 69, 96
3, 55576, Note_on_c, 3, 69, 0
3, 55580, Note_on_c, 3, 71, 106
3, 55696, Note_on_c, 3, 71, 0
3, 55700, Note_on_c, 3, 67, 106
3, 55816, Note_on_c, 3, 67, 0
3, 55820, Note_on_c, 3, 71, 100
3, 55936, Note_on_c, 3, 71, 0
3, 55940, Note_on_c, 3, 66, 96
3, 56056, Note_on_c, 3, 66, 0
3, 56060, Note_on_c, 3, 71, 104
3, 56176, Note_on_c, 3, 71, 0
3, 56180, Note_on_c, 3, 67, 98
3, 56300, Note_on_c, 3, 67, 0
3, 56300, Note_on_c, 3, 64, 101
3, 56420, Note_on_c, 3, 64, 0
3, 56420, Note_on_c, 3, 67, 99
3, 56540, Note_on_c, 3, 67, 0
3, 56540, Note_on_c, 3, 71, 83
3, 56660, Note_on_c, 3, 71, 0
3, 56660, Note_on_c, 3, 76, 121
3, 56780, Note_on_c, 3, 76, 0
3, 56780, Note_on_c, 3, 71, 80
3, 56900, Note_on_c, 3, 71, 0
3, 56900, Note_on_c, 3, 67, 76
3, 57020, Note_on_c, 3, 67, 0
3, 57020, Note_on_c, 3, 71, 97
3, 57140, Note_on_c, 3, 71, 0
3, 57140, Note_on_c, 3, 64, 107
3, 57380, Note_on_c, 3, 64, 0
3, 57620, Note_on_c, 3, 64, 111
3, 57860, Note_on_c, 3, 64, 0
3, 58100, Note_on_c, 3, 48, 119
3, 58340, Note_on_c, 3, 48, 0
3, 58580, Note_on_c, 3, 64, 107
3, 59056, Note_on_c, 3, 64, 0
3, 59060, Note_on_c, 3, 62, 113
3, 59296, Note_on_c, 3, 62, 0
3, 59540, Note_on_c, 3, 47, 121
3, 59776, Note_on_c, 3, 47, 0
3, 60020, Note_on_c, 3, 62, 115
3, 60496, Note_on_c, 3, 62, 0
3, 60500, Note_on_c, 3, 60, 115
3, 60736, Note_on_c, 3, 60, 0
3, 60740, Note_on_c, 3, 59, 101
3, 60976, Note_on_c, 3, 59, 0
3, 60980, Note_on_c, 3, 57, 104
3, 61216, Note_on_c, 3, 57, 0
3, 61220, Note_on_c, 3, 55, 100
3, 61456, Note_on_c, 3, 55, 0
3, 61460, Note_on_c, 3, 54, 115
3, 61696, Note_on_c, 3, 54, 0
3, 61700, Note_on_c, 3, 52, 119
3, 61936, Note_on_c, 3, 52, 0
3, 61940, Note_on_c, 3, 54, 115
3, 62176, Note_on_c, 3, 54, 0
3, 62180, Note_on_c, 3, 55, 104
3, 62296, Note_on_c, 3, 55, 0
3, 62300, Note_on_c, 3, 57, 111
3, 62416, Note_on_c, 3, 57, 0
3, 62420, Note_on_c, 3, 50, 113
3, 63016, Note_on_c, 3, 50, 0
3, 63020, Note_on_c, 3, 60, 115
3, 63136, Note_on_c, 3, 60, 0
3, 63140, Note_on_c, 3, 59, 113
3, 63256, Note_on_c, 3, 59, 0
3, 63260, Note_on_c, 3, 57, 106
3, 63376, Note_on_c, 3, 57, 0
3, 63380, Note_on_c, 3, 59, 101
3, 63496, Note_on_c, 3, 59, 0
3, 63500, Note_on_c, 3, 55, 92
3, 63616, Note_on_c, 3, 55, 0
3, 63620, Note_on_c, 3, 54, 119
3, 63736, Note_on_c, 3, 54, 0
3, 63740, Note_on_c, 3, 55, 102
3, 63856, Note_on_c, 3, 55, 0
3, 63860, Note_on_c, 3, 57, 102
3, 63976, Note_on_c, 3, 57, 0
3, 63980, Note_on_c, 3, 55, 90
3, 64096, Note_on_c, 3, 55, 0
3, 64100, Note_on_c, 3, 59, 109
3, 64216, Note_on_c, 3, 59, 0
3, 64220, Note_on_c, 3, 55, 98
3, 64336, Note_on_c, 3, 55, 0
3, 64340, Note_on_c, 3, 60, 104
3, 64456, Note_on_c, 3, 60, 0
3, 64460, Note_on_c, 3, 55, 88
3, 64576, Note_on_c, 3, 55, 0
3, 64580, Note_on_c, 3, 62, 97
3, 64696, Note_on_c, 3, 62, 0
3, 64700, Note_on_c, 3, 55, 91
3, 64816, Note_on_c, 3, 55, 0
3, 64820, Note_on_c, 3, 64, 119
3, 65056, Note_on_c, 3, 64, 0
3, 65060, Note_on_c, 3, 55, 107
3, 65296, Note_on_c, 3, 55, 0
3, 65540, Note_on_c, 3, 59, 106
3, 65776, Note_on_c, 3, 59, 0
3, 65780, Note_on_c, 3, 57, 115
3, 66016, Note_on_c, 3, 57, 0
3, 66020, Note_on_c, 3, 55, 100
3, 66256, Note_on_c, 3, 55, 0
3, 66260, Note_on_c, 3, 54, 106
3, 66376, Note_on_c, 3, 54, 0
3, 66380, Note_on_c, 3, 62, 92
3, 66496, Note_on_c, 3, 62, 0
3, 66500, Note_on_c, 3, 64, 98
3, 66616, Note_on_c, 3, 64, 0
3, 66620, Note_on_c, 3, 66, 99
3, 66736, Note_on_c, 3, 66, 0
3, 66740, Note_on_c, 3, 67, 106
3, 66856, Note_on_c, 3, 67, 0
3, 66860, Note_on_c, 3, 62, 77
3, 66976, Note_on_c, 3, 62, 0
3, 66980, Note_on_c, 3, 59, 89
3, 67096, Note_on_c, 3, 59, 0
3, 67100, Note_on_c, 3, 55, 84
3, 67216, Note_on_c, 3, 55, 0
3, 67220, Note_on_c, 3, 57, 98
3, 67336, Note_on_c, 3, 57, 0
3, 67340, Note_on_c, 3, 60, 95
3, 67456, Note_on_c, 3, 60, 0
3, 67460, Note_on_c, 3, 67, 85
3, 67576, Note_on_c, 3, 67, 0
3, 67580, Note_on_c, 3, 66, 97
3, 67700, Note_on_c, 3, 66, 0
3, 67700, Note_on_c, 3, 67, 115
3, 67940, Note_on_c, 3, 67, 0
3, 67940, Note_on_c, 3, 55, 115
3, 68180, Note_on_c, 3, 55, 0
3, 68180, Note_on_c, 3, 50, 115
3, 68420, Note_on_c, 3, 50, 0
3, 68420, Note_on_c, 3, 47, 115
3, 68660, Note_on_c, 3, 47, 0
3, 68660, Note_on_c, 3, 43, 115
3, 69140, Note_on_c, 3, 43, 0
3, 70560, End_track
0, 0, End_of_file
