0, 0, Header, 1, 3, 480
1, 0, Start_track
1, 0, SMPTE_offset, 96, 0, 0, 0, 0
1, 0, Time_signature, 3, 2, 24, 8
1, 40, Tempo, 600000
1, 47520, End_track
2, 0, Start_track
2, 0, Title_t, "goldberg.mid"
2, 40, Note_on_c, 0, 62, 89
2, 156, Note_on_c, 0, 62, 0
2, 160, Note_on_c, 0, 67, 91
2, 276, Note_on_c, 0, 67, 0
2, 280, Note_on_c, 0, 71, 100
2, 396, Note_on_c, 0, 71, 0
2, 400, Note_on_c, 0, 69, 89
2, 516, Note_on_c, 0, 69, 0
2, 520, Note_on_c, 0, 67, 85
2, 636, Note_on_c, 0, 67, 0
2, 640, Note_on_c, 0, 71, 90
2, 756, Note_on_c, 0, 71, 0
2, 760, Note_on_c, 0, 74, 91
2, 876, Note_on_c, 0, 74, 0
2, 880, Note_on_c, 0, 72, 88
2, 996, Note_on_c, 0, 72, 0
2, 1000, Note_on_c, 0, 71, 77
2, 1116, Note_on_c, 0, 71, 0
2, 1120, Note_on_c, 0, 74, 85
2, 1236, Note_on_c, 0, 74, 0
2, 1240, Note_on_c, 0, 79, 89
2, 1416, Note_on_c, 0, 79, 0
2, 1480, Note_on_c, 0, 62, 61
2, 1596, Note_on_c, 0, 62, 0
2, 1600, Note_on_c, 0, 66, 82
2, 1716, Note_on_c, 0, 66, 0
2, 1720, Note_on_c, 0, 69, 85
2, 1836, Note_on_c, 0, 69, 0
2, 1840, Note_on_c, 0, 67, 82
2, 1956, Note_on_c, 0, 67, 0
2, 1960, Note_on_c, 0, 66, 84
2, 2076, Note_on_c, 0, 66, 0
2, 2080, Note_on_c, 0, 69, 61
2, 2196, Note_on_c, 0, 69, 0
2, 2200, Note_on_c, 0, 72, 86
2, 2320, Note_on_c, 0, 72, 0
2, 2320, Note_on_c, 0, 71, 88
2, 2436, Note_on_c, 0, 71, 0
2, 2440, Note_on_c, 0, 69, 91
2, 2556, Note_on_c, 0, 69, 0
2, 2560, Note_on_c, 0, 74, 89
2, 2676, Note_on_c, 0, 74, 0
2, 2680, Note_on_c, 0, 78, 108
2, 2856, Note_on_c, 0, 78, 0
2, 2920, Note_on_c, 0, 59, 76
2, 3036, Note_on_c, 0, 59, 0
2, 3040, Note_on_c, 0, 62, 89
2, 3156, Note_on_c, 0, 62, 0
2, 3160, Note_on_c, 0, 67, 77
2, 3276, Note_on_c, 0, 67, 0
2, 3280, Note_on_c, 0, 66, 93
2, 3396, Note_on_c, 0, 66, 0
2, 3400, Note_on_c, 0, 64, 92
2, 3516, Note_on_c, 0, 64, 0
2, 3520, Note_on_c, 0, 67, 82
2, 3636, Note_on_c, 0, 67, 0
2, 3640, Note_on_c, 0, 71, 86
2, 3756, Note_on_c, 0, 71, 0
2, 3760, Note_on_c, 0, 69, 95
2, 3876, Note_on_c, 0, 69, 0
2, 3880, Note_on_c, 0, 67, 90
2, 3996, Note_on_c, 0, 67, 0
2, 4000, Note_on_c, 0, 73, 88
2, 4116, Note_on_c, 0, 73, 0
2, 4120, Note_on_c, 0, 76, 100
2, 4236, Note_on_c, 0, 76, 0
2, 4360, Note_on_c, 0, 57, 40
2, 4476, Note_on_c, 0, 57, 0
2, 4480, Note_on_c, 0, 62, 88
2, 4596, Note_on_c, 0, 62, 0
2, 4600, Note_on_c, 0, 66, 93
2, 4720, Note_on_c, 0, 66, 0
2, 4720, Note_on_c, 0, 64, 92
2, 4840, Note_on_c, 0, 64, 0
2, 4840, Note_on_c, 0, 62, 89
2, 4960, Note_on_c, 0, 62, 0
2, 4960, Note_on_c, 0, 66, 71
2, 5076, Note_on_c, 0, 66, 0
2, 5080, Note_on_c, 0, 69, 76
2, 5196, Note_on_c, 0, 69, 0
2, 5200, Note_on_c, 0, 67, 86
2, 5316, Note_on_c, 0, 67, 0
2, 5320, Note_on_c, 0, 66, 92
2, 5436, Note_on_c, 0, 66, 0
2, 5440, Note_on_c, 0, 69, 84
2, 5556, Note_on_c, 0, 69, 0
2, 5560, Note_on_c, 0, 74, 92
2, 5920, Note_on_c, 0, 74, 0
2, 5920, Note_on_c, 0, 71, 88
2, 6036, Note_on_c, 0, 71, 0
2, 6040, Note_on_c, 0, 67, 72
2, 6156, Note_on_c, 0, 67, 0
2, 6160, Note_on_c, 0, 69, 84
2, 6276, Note_on_c, 0, 69, 0
2, 6280, Note_on_c, 0, 71, 72
2, 6396, Note_on_c, 0, 71, 0
2, 6400, Note_on_c, 0, 67, 78
2, 6516, Note_on_c, 0, 67, 0
2, 6520, Note_on_c, 0, 62, 76
2, 6636, Note_on_c, 0, 62, 0
2, 6640, Note_on_c, 0, 64, 85
2, 6756, Note_on_c, 0, 64, 0
2, 6760, Note_on_c, 0, 65, 92
2, 6876, Note_on_c, 0, 65, 0
2, 6880, Note_on_c, 0, 62, 89
2, 6996, Note_on_c, 0, 62, 0
2, 7000, Note_on_c, 0, 59, 90
2, 7120, Note_on_c, 0, 59, 0
2, 7240, Note_on_c, 0, 76, 93
2, 7356, Note_on_c, 0, 76, 0
2, 7360, Note_on_c, 0, 72, 72
2, 7476, Note_on_c, 0, 72, 0
2, 7480, Note_on_c, 0, 69, 57
2, 7596, Note_on_c, 0, 69, 0
2, 7600, Note_on_c, 0, 71, 86
2, 7716, Note_on_c, 0, 71, 0
2, 7720, Note_on_c, 0, 72, 92
2, 7836, Note_on_c, 0, 72, 0
2, 7840, Note_on_c, 0, 69, 82
2, 7956, Note_on_c, 0, 69, 0
2, 7960, Note_on_c, 0, 64, 89
2, 8076, Note_on_c, 0, 64, 0
2, 8080, Note_on_c, 0, 66, 75
2, 8200, Note_on_c, 0, 66, 0
2, 8200, Note_on_c, 0, 67, 74
2, 8320, Note_on_c, 0, 67, 0
2, 8320, Note_on_c, 0, 64, 89
2, 8436, Note_on_c, 0, 64, 0
2, 8440, Note_on_c, 0, 60, 91
2, 8560, Note_on_c, 0, 60, 0
2, 8680, Note_on_c, 0, 81, 119
2, 8796, Note_on_c, 0, 81, 0
2, 8800, Note_on_c, 0, 78, 89
2, 8916, Note_on_c, 0, 78, 0
2, 8920, Note_on_c, 0, 74, 85
2, 9040, Note_on_c, 0, 74, 0
2, 9040, Note_on_c, 0, 76, 95
2, 9156, Note_on_c, 0, 76, 0
2, 9160, Note_on_c, 0, 78, 85
2, 9276, Note_on_c, 0, 78, 0
2, 9280, Note_on_c, 0, 74, 82
2, 9396, Note_on_c, 0, 74, 0
2, 9400, Note_on_c, 0, 69, 61
2, 9516, Note_on_c, 0, 69, 0
2, 9520, Note_on_c, 0, 71, 80
2, 9636, Note_on_c, 0, 71, 0
2, 9640, Note_on_c, 0, 72, 86
2, 9756, Note_on_c, 0, 72, 0
2, 9760, Note_on_c, 0, 69, 86
2, 9876, Note_on_c, 0, 69, 0
2, 9880, Note_on_c, 0, 66, 92
2, 9996, Note_on_c, 0, 66, 0
2, 10000, Note_on_c, 0, 72, 76
2, 10116, Note_on_c, 0, 72, 0
2, 10120, Note_on_c, 0, 71, 63
2, 10236, Note_on_c, 0, 71, 0
2, 10240, Note_on_c, 0, 67, 51
2, 10356, Note_on_c, 0, 67, 0
2, 10360, Note_on_c, 0, 62, 66
2, 10476, Note_on_c, 0, 62, 0
2, 10480, Note_on_c, 0, 66, 106
2, 10596, Note_on_c, 0, 66, 0
2, 10600, Note_on_c, 0, 67, 90
2, 10716, Note_on_c, 0, 67, 0
2, 10720, Note_on_c, 0, 62, 70
2, 10836, Note_on_c, 0, 62, 0
2, 10840, Note_on_c, 0, 59, 75
2, 10956, Note_on_c, 0, 59, 0
2, 10960, Note_on_c, 0, 60, 93
2, 11076, Note_on_c, 0, 60, 0
2, 11080, Note_on_c, 0, 62, 86
2, 11196, Note_on_c, 0, 62, 0
2, 11200, Note_on_c, 0, 59, 86
2, 11316, Note_on_c, 0, 59, 0
2, 11320, Note_on_c, 0, 55, 76
2, 11436, Note_on_c, 0, 55, 0
2, 11440, Note_on_c, 0, 57, 85
2, 11556, Note_on_c, 0, 57, 0
2, 11560, Note_on_c, 0, 59, 72
2, 11800, Note_on_c, 0, 59, 0
2, 11800, Note_on_c, 0, 83, 119
2, 11916, Note_on_c, 0, 83, 0
2, 11920, Note_on_c, 0, 81, 97
2, 12036, Note_on_c, 0, 81, 0
2, 12040, Note_on_c, 0, 79, 97
2, 12156, Note_on_c, 0, 79, 0
2, 12160, Note_on_c, 0, 78, 97
2, 12276, Note_on_c, 0, 78, 0
2, 12280, Note_on_c, 0, 76, 102
2, 12396, Note_on_c, 0, 76, 0
2, 12400, Note_on_c, 0, 74, 100
2, 12516, Note_on_c, 0, 74, 0
2, 12520, Note_on_c, 0, 73, 101
2, 12636, Note_on_c, 0, 73, 0
2, 12640, Note_on_c, 0, 76, 89
2, 12756, Note_on_c, 0, 76, 0
2, 12760, Note_on_c, 0, 74, 89
2, 12876, Note_on_c, 0, 74, 0
2, 12880, Note_on_c, 0, 76, 82
2, 12996, Note_on_c, 0, 76, 0
2, 13000, Note_on_c, 0, 69, 86
2, 13236, Note_on_c, 0, 69, 0
2, 13240, Note_on_c, 0, 81, 107
2, 13356, Note_on_c, 0, 81, 0
2, 13360, Note_on_c, 0, 79, 82
2, 13476, Note_on_c, 0, 79, 0
2, 13480, Note_on_c, 0, 78, 60
2, 13596, Note_on_c, 0, 78, 0
2, 13600, Note_on_c, 0, 76, 78
2, 13716, Note_on_c, 0, 76, 0
2, 13720, Note_on_c, 0, 74, 70
2, 13836, Note_on_c, 0, 74, 0
2, 13840, Note_on_c, 0, 73, 80
2, 13956, Note_on_c, 0, 73, 0
2, 13960, Note_on_c, 0, 71, 48
2, 14076, Note_on_c, 0, 71, 0
2, 14080, Note_on_c, 0, 74, 67
2, 14196, Note_on_c, 0, 74, 0
2, 14200, Note_on_c, 0, 73, 69
2, 14316, Note_on_c, 0, 73, 0
2, 14320, Note_on_c, 0, 74, 77
2, 14436, Note_on_c, 0, 74, 0
2, 14440, Note_on_c, 0, 67, 45
2, 14676, Note_on_c, 0, 67, 0
2, 14680, Note_on_c, 0, 79, 91
2, 14796, Note_on_c, 0, 79, 0
2, 14800, Note_on_c, 0, 78, 93
2, 14916, Note_on_c, 0, 78, 0
2, 14920, Note_on_c, 0, 76, 88
2, 15036, Note_on_c, 0, 76, 0
2, 15040, Note_on_c, 0, 74, 51
2, 15156, Note_on_c, 0, 74, 0
2, 15160, Note_on_c, 0, 73, 79
2, 15276, Note_on_c, 0, 73, 0
2, 15280, Note_on_c, 0, 71, 70
2, 15396, Note_on_c, 0, 71, 0
2, 15400, Note_on_c, 0, 69, 61
2, 15516, Note_on_c, 0, 69, 0
2, 15520, Note_on_c, 0, 73, 63
2, 15636, Note_on_c, 0, 73, 0
2, 15640, Note_on_c, 0, 71, 64
2, 15756, Note_on_c, 0, 71, 0
2, 15760, Note_on_c, 0, 74, 61
2, 15876, Note_on_c, 0, 74, 0
2, 15880, Note_on_c, 0, 73, 92
2, 15996, Note_on_c, 0, 73, 0
2, 16000, Note_on_c, 0, 76, 98
2, 16116, Note_on_c, 0, 76, 0
2, 16120, Note_on_c, 0, 69, 90
2, 16236, Note_on_c, 0, 69, 0
2, 16240, Note_on_c, 0, 71, 90
2, 16356, Note_on_c, 0, 71, 0
2, 16360, Note_on_c, 0, 73, 117
2, 16480, Note_on_c, 0, 73, 0
2, 16480, Note_on_c, 0, 69, 85
2, 16596, Note_on_c, 0, 69, 0
2, 16600, Note_on_c, 0, 64, 61
2, 16716, Note_on_c, 0, 64, 0
2, 16720, Note_on_c, 0, 66, 85
2, 16836, Note_on_c, 0, 66, 0
2, 16840, Note_on_c, 0, 67, 98
2, 16956, Note_on_c, 0, 67, 0
2, 16960, Note_on_c, 0, 64, 69
2, 17076, Note_on_c, 0, 64, 0
2, 17080, Note_on_c, 0, 61, 88
2, 17196, Note_on_c, 0, 61, 0
2, 17200, Note_on_c, 0, 64, 91
2, 17316, Note_on_c, 0, 64, 0
2, 17320, Note_on_c, 0, 62, 73
2, 17556, Note_on_c, 0, 62, 0
2, 17560, Note_on_c, 0, 66, 64
2, 17796, Note_on_c, 0, 66, 0
2, 17800, Note_on_c, 0, 69, 67
2, 18036, Note_on_c, 0, 69, 0
2, 18040, Note_on_c, 0, 74, 57
2, 18276, Note_on_c, 0, 74, 0
2, 18400, Note_on_c, 0, 72, 76
2, 18516, Note_on_c, 0, 72, 0
2, 18520, Note_on_c, 0, 69, 71
2, 18636, Note_on_c, 0, 69, 0
2, 18640, Note_on_c, 0, 66, 79
2, 18756, Note_on_c, 0, 66, 0
2, 18760, Note_on_c, 0, 67, 83
2, 18996, Note_on_c, 0, 67, 0
2, 19000, Note_on_c, 0, 71, 83
2, 19236, Note_on_c, 0, 71, 0
2, 19240, Note_on_c, 0, 74, 91
2, 19476, Note_on_c, 0, 74, 0
2, 19480, Note_on_c, 0, 79, 86
2, 19776, Note_on_c, 0, 79, 0
2, 19840, Note_on_c, 0, 79, 88
2, 19956, Note_on_c, 0, 79, 0
2, 19960, Note_on_c, 0, 78, 89
2, 20076, Note_on_c, 0, 78, 0
2, 20080, Note_on_c, 0, 79, 89
2, 20196, Note_on_c, 0, 79, 0
2, 20200, Note_on_c, 0, 69, 65
2, 20436, Note_on_c, 0, 69, 0
2, 20440, Note_on_c, 0, 73, 70
2, 20676, Note_on_c, 0, 73, 0
2, 20680, Note_on_c, 0, 76, 76
2, 20916, Note_on_c, 0, 76, 0
2, 20920, Note_on_c, 0, 79, 44
2, 21216, Note_on_c, 0, 79, 0
2, 21280, Note_on_c, 0, 79, 85
2, 21396, Note_on_c, 0, 79, 0
2, 21400, Note_on_c, 0, 81, 92
2, 21516, Note_on_c, 0, 81, 0
2, 21520, Note_on_c, 0, 73, 77
2, 21636, Note_on_c, 0, 73, 0
2, 21640, Note_on_c, 0, 74, 101
2, 21756, Note_on_c, 0, 74, 0
2, 21760, Note_on_c, 0, 78, 73
2, 21876, Note_on_c, 0, 78, 0
2, 21880, Note_on_c, 0, 81, 84
2, 21996, Note_on_c, 0, 81, 0
2, 22000, Note_on_c, 0, 85, 25
2, 22056, Note_on_c, 0, 85, 0
2, 22120, Note_on_c, 0, 86, 106
2, 22236, Note_on_c, 0, 86, 0
2, 22240, Note_on_c, 0, 85, 80
2, 22296, Note_on_c, 0, 85, 0
2, 22300, Note_on_c, 0, 83, 89
2, 22356, Note_on_c, 0, 83, 0
2, 22360, Note_on_c, 0, 81, 85
2, 22416, Note_on_c, 0, 81, 0
2, 22420, Note_on_c, 0, 79, 69
2, 22476, Note_on_c, 0, 79, 0
2, 22480, Note_on_c, 0, 78, 99
2, 22536, Note_on_c, 0, 78, 0
2, 22540, Note_on_c, 0, 76, 73
2, 22596, Note_on_c, 0, 76, 0
2, 22600, Note_on_c, 0, 74, 84
2, 23076, Note_on_c, 0, 74, 0
2, 23080, Note_on_c, 0, 69, 102
2, 23196, Note_on_c, 0, 69, 0
2, 23200, Note_on_c, 0, 74, 97
2, 23316, Note_on_c, 0, 74, 0
2, 23320, Note_on_c, 0, 78, 104
2, 23436, Note_on_c, 0, 78, 0
2, 23440, Note_on_c, 0, 76, 109
2, 23556, Note_on_c, 0, 76, 0
2, 23560, Note_on_c, 0, 74, 111
2, 23676, Note_on_c, 0, 74, 0
2, 23680, Note_on_c, 0, 78, 96
2, 23796, Note_on_c, 0, 78, 0
2, 23800, Note_on_c, 0, 81, 107
2, 23916, Note_on_c, 0, 81, 0
2, 23920, Note_on_c, 0, 79, 81
2, 24036, Note_on_c, 0, 79, 0
2, 24040, Note_on_c, 0, 78, 101
2, 24156, Note_on_c, 0, 78, 0
2, 24160, Note_on_c, 0, 81, 107
2, 24276, Note_on_c, 0, 81, 0
2, 24280, Note_on_c, 0, 84, 117
2, 24396, Note_on_c, 0, 84, 0
2, 24520, Note_on_c, 0, 62, 98
2, 24636, Note_on_c, 0, 62, 0
2, 24640, Note_on_c, 0, 67, 98
2, 24756, Note_on_c, 0, 67, 0
2, 24760, Note_on_c, 0, 71, 90
2, 24876, Note_on_c, 0, 71, 0
2, 24880, Note_on_c, 0, 69, 93
2, 24996, Note_on_c, 0, 69, 0
2, 25000, Note_on_c, 0, 67, 97
2, 25116, Note_on_c, 0, 67, 0
2, 25120, Note_on_c, 0, 71, 93
2, 25236, Note_on_c, 0, 71, 0
2, 25240, Note_on_c, 0, 74, 90
2, 25356, Note_on_c, 0, 74, 0
2, 25360, Note_on_c, 0, 72, 100
2, 25476, Note_on_c, 0, 72, 0
2, 25480, Note_on_c, 0, 71, 100
2, 25596, Note_on_c, 0, 71, 0
2, 25600, Note_on_c, 0, 74, 95
2, 25716, Note_on_c, 0, 74, 0
2, 25720, Note_on_c, 0, 77, 113
2, 25836, Note_on_c, 0, 77, 0
2, 25960, Note_on_c, 0, 76, 98
2, 26076, Note_on_c, 0, 76, 0
2, 26080, Note_on_c, 0, 72, 93
2, 26196, Note_on_c, 0, 72, 0
2, 26200, Note_on_c, 0, 69, 86
2, 26316, Note_on_c, 0, 69, 0
2, 26320, Note_on_c, 0, 71, 95
2, 26436, Note_on_c, 0, 71, 0
2, 26440, Note_on_c, 0, 72, 104
2, 26556, Note_on_c, 0, 72, 0
2, 26560, Note_on_c, 0, 69, 95
2, 26676, Note_on_c, 0, 69, 0
2, 26680, Note_on_c, 0, 66, 85
2, 26796, Note_on_c, 0, 66, 0
2, 26800, Note_on_c, 0, 67, 89
2, 26916, Note_on_c, 0, 67, 0
2, 26920, Note_on_c, 0, 69, 89
2, 27036, Note_on_c, 0, 69, 0
2, 27040, Note_on_c, 0, 66, 104
2, 27156, Note_on_c, 0, 66, 0
2, 27160, Note_on_c, 0, 63, 93
2, 27276, Note_on_c, 0, 63, 0
2, 27280, Note_on_c, 0, 64, 89
2, 27400, Note_on_c, 0, 64, 0
2, 27400, Note_on_c, 0, 66, 112
2, 27516, Note_on_c, 0, 66, 0
2, 27520, Note_on_c, 0, 63, 112
2, 27636, Note_on_c, 0, 63, 0
2, 27640, Note_on_c, 0, 59, 112
2, 27756, Note_on_c, 0, 59, 0
2, 27760, Note_on_c, 0, 61, 108
2, 27876, Note_on_c, 0, 61, 0
2, 27880, Note_on_c, 0, 63, 85
2, 28000, Note_on_c, 0, 59, 94
2, 28028, Note_on_c, 0, 63, 0
2, 28116, Note_on_c, 0, 59, 0
2, 28120, Note_on_c, 0, 54, 108
2, 28236, Note_on_c, 0, 54, 0
2, 28240, Note_on_c, 0, 55, 97
2, 28356, Note_on_c, 0, 55, 0
2, 28360, Note_on_c, 0, 57, 100
2, 28476, Note_on_c, 0, 57, 0
2, 28480, Note_on_c, 0, 54, 93
2, 28596, Note_on_c, 0, 54, 0
2, 28600, Note_on_c, 0, 51, 92
2, 28716, Note_on_c, 0, 51, 0
2, 28720, Note_on_c, 0, 54, 99
2, 28836, Note_on_c, 0, 54, 0
2, 28840, Note_on_c, 0, 55, 100
2, 28956, Note_on_c, 0, 55, 0
2, 28960, Note_on_c, 0, 59, 102
2, 29076, Note_on_c, 0, 59, 0
2, 29080, Note_on_c, 0, 64, 88
2, 29200, Note_on_c, 0, 63, 94
2, 29220, Note_on_c, 0, 64, 0
2, 29316, Note_on_c, 0, 63, 0
2, 29320, Note_on_c, 0, 64, 96
2, 29436, Note_on_c, 0, 64, 0
2, 29440, Note_on_c, 0, 67, 95
2, 29560, Note_on_c, 0, 67, 0
2, 29560, Note_on_c, 0, 71, 92
2, 29676, Note_on_c, 0, 71, 0
2, 29680, Note_on_c, 0, 69, 84
2, 29796, Note_on_c, 0, 69, 0
2, 29800, Note_on_c, 0, 67, 100
2, 29916, Note_on_c, 0, 67, 0
2, 29920, Note_on_c, 0, 71, 86
2, 30036, Note_on_c, 0, 71, 0
2, 30040, Note_on_c, 0, 76, 98
2, 30156, Note_on_c, 0, 76, 0
2, 30280, Note_on_c, 0, 64, 89
2, 30396, Note_on_c, 0, 64, 0
2, 30400, Note_on_c, 0, 67, 81
2, 30516, Note_on_c, 0, 67, 0
2, 30520, Note_on_c, 0, 72, 97
2, 30636, Note_on_c, 0, 72, 0
2, 30640, Note_on_c, 0, 71, 83
2, 30756, Note_on_c, 0, 71, 0
2, 30760, Note_on_c, 0, 69, 83
2, 30876, Note_on_c, 0, 69, 0
2, 30880, Note_on_c, 0, 72, 93
2, 30996, Note_on_c, 0, 72, 0
2, 31000, Note_on_c, 0, 76, 60
2, 31116, Note_on_c, 0, 76, 0
2, 31120, Note_on_c, 0, 74, 93
2, 31236, Note_on_c, 0, 74, 0
2, 31240, Note_on_c, 0, 72, 93
2, 31356, Note_on_c, 0, 72, 0
2, 31360, Note_on_c, 0, 76, 91
2, 31476, Note_on_c, 0, 76, 0
2, 31480, Note_on_c, 0, 81, 111
2, 31596, Note_on_c, 0, 81, 0
2, 31840, Note_on_c, 0, 72, 106
2, 31956, Note_on_c, 0, 72, 0
2, 31960, Note_on_c, 0, 71, 101
2, 32076, Note_on_c, 0, 71, 0
2, 32080, Note_on_c, 0, 78, 86
2, 32196, Note_on_c, 0, 78, 0
2, 32200, Note_on_c, 0, 79, 100
2, 32316, Note_on_c, 0, 79, 0
2, 32320, Note_on_c, 0, 75, 112
2, 32436, Note_on_c, 0, 75, 0
2, 32440, Note_on_c, 0, 76, 107
2, 32556, Note_on_c, 0, 76, 0
2, 32560, Note_on_c, 0, 67, 101
2, 32676, Note_on_c, 0, 67, 0
2, 32680, Note_on_c, 0, 66, 94
2, 32796, Note_on_c, 0, 66, 0
2, 32800, Note_on_c, 0, 76, 89
2, 32916, Note_on_c, 0, 76, 0
2, 32920, Note_on_c, 0, 75, 110
2, 33036, Note_on_c, 0, 75, 0
2, 33040, Note_on_c, 0, 81, 100
2, 33156, Note_on_c, 0, 81, 0
2, 33160, Note_on_c, 0, 79, 90
2, 33220, Note_on_c, 0, 79, 0
2, 33220, Note_on_c, 0, 81, 76
2, 33280, Note_on_c, 0, 81, 0
2, 33280, Note_on_c, 0, 79, 102
2, 33340, Note_on_c, 0, 79, 0
2, 33340, Note_on_c, 0, 78, 95
2, 33400, Note_on_c, 0, 78, 0
2, 33400, Note_on_c, 0, 76, 101
2, 33640, Note_on_c, 0, 76, 0
2, 33760, Note_on_c, 0, 69, 101
2, 33876, Note_on_c, 0, 69, 0
2, 33880, Note_on_c, 0, 67, 95
2, 33996, Note_on_c, 0, 67, 0
2, 34000, Note_on_c, 0, 66, 97
2, 34116, Note_on_c, 0, 66, 0
2, 34120, Note_on_c, 0, 66, 119
2, 34356, Note_on_c, 0, 66, 0
2, 34360, Note_on_c, 0, 64, 111
2, 34836, Note_on_c, 0, 64, 0
2, 34840, Note_on_c, 0, 76, 121
2, 34956, Note_on_c, 0, 76, 0
2, 34960, Note_on_c, 0, 74, 101
2, 35076, Note_on_c, 0, 74, 0
2, 35080, Note_on_c, 0, 73, 106
2, 35196, Note_on_c, 0, 73, 0
2, 35200, Note_on_c, 0, 71, 96
2, 35316, Note_on_c, 0, 71, 0
2, 35320, Note_on_c, 0, 69, 80
2, 35436, Note_on_c, 0, 69, 0
2, 35440, Note_on_c, 0, 67, 91
2, 35556, Note_on_c, 0, 67, 0
2, 35560, Note_on_c, 0, 66, 97
2, 35676, Note_on_c, 0, 66, 0
2, 35680, Note_on_c, 0, 70, 94
2, 35796, Note_on_c, 0, 70, 0
2, 35800, Note_on_c, 0, 73, 86
2, 35916, Note_on_c, 0, 73, 0
2, 35920, Note_on_c, 0, 76, 98
2, 36036, Note_on_c, 0, 76, 0
2, 36040, Note_on_c, 0, 74, 74
2, 36156, Note_on_c, 0, 74, 0
2, 36160, Note_on_c, 0, 66, 61
2, 36276, Note_on_c, 0, 66, 0
2, 36280, Note_on_c, 0, 74, 91
2, 36396, Note_on_c, 0, 74, 0
2, 36400, Note_on_c, 0, 72, 101
2, 36516, Note_on_c, 0, 72, 0
2, 36520, Note_on_c, 0, 71, 93
2, 36636, Note_on_c, 0, 71, 0
2, 36640, Note_on_c, 0, 69, 91
2, 36756, Note_on_c, 0, 69, 0
2, 36760, Note_on_c, 0, 68, 92
2, 36876, Note_on_c, 0, 68, 0
2, 36880, Note_on_c, 0, 66, 71
2, 36996, Note_on_c, 0, 66, 0
2, 37000, Note_on_c, 0, 64, 90
2, 37116, Note_on_c, 0, 64, 0
2, 37120, Note_on_c, 0, 68, 92
2, 37236, Note_on_c, 0, 68, 0
2, 37240, Note_on_c, 0, 71, 75
2, 37356, Note_on_c, 0, 71, 0
2, 37360, Note_on_c, 0, 74, 96
2, 37476, Note_on_c, 0, 74, 0
2, 37480, Note_on_c, 0, 72, 85
2, 37596, Note_on_c, 0, 72, 0
2, 37600, Note_on_c, 0, 64, 54
2, 37716, Note_on_c, 0, 64, 0
2, 37720, Note_on_c, 0, 72, 82
2, 37836, Note_on_c, 0, 72, 0
2, 37840, Note_on_c, 0, 71, 88
2, 37956, Note_on_c, 0, 71, 0
2, 37960, Note_on_c, 0, 69, 89
2, 38076, Note_on_c, 0, 69, 0
2, 38080, Note_on_c, 0, 72, 93
2, 38196, Note_on_c, 0, 72, 0
2, 38200, Note_on_c, 0, 76, 92
2, 38316, Note_on_c, 0, 76, 0
2, 38320, Note_on_c, 0, 74, 98
2, 38436, Note_on_c, 0, 74, 0
2, 38440, Note_on_c, 0, 72, 98
2, 38556, Note_on_c, 0, 72, 0
2, 38560, Note_on_c, 0, 76, 91
2, 38676, Note_on_c, 0, 76, 0
2, 38680, Note_on_c, 0, 81, 98
2, 38796, Note_on_c, 0, 81, 0
2, 38800, Note_on_c, 0, 79, 91
2, 38916, Note_on_c, 0, 79, 0
2, 38920, Note_on_c, 0, 78, 85
2, 39036, Note_on_c, 0, 78, 0
2, 39040, Note_on_c, 0, 81, 92
2, 39156, Note_on_c, 0, 81, 0
2, 39160, Note_on_c, 0, 84, 97
2, 39276, Note_on_c, 0, 84, 0
2, 39280, Note_on_c, 0, 83, 81
2, 39396, Note_on_c, 0, 83, 0
2, 39400, Note_on_c, 0, 81, 104
2, 39516, Note_on_c, 0, 81, 0
2, 39520, Note_on_c, 0, 79, 85
2, 39636, Note_on_c, 0, 79, 0
2, 39640, Note_on_c, 0, 78, 85
2, 39756, Note_on_c, 0, 78, 0
2, 39760, Note_on_c, 0, 76, 92
2, 39876, Note_on_c, 0, 76, 0
2, 39880, Note_on_c, 0, 74, 107
2, 39996, Note_on_c, 0, 74, 0
2, 40000, Note_on_c, 0, 78, 90
2, 40116, Note_on_c, 0, 78, 0
2, 40120, Note_on_c, 0, 81, 100
2, 40236, Note_on_c, 0, 81, 0
2, 40240, Note_on_c, 0, 84, 95
2, 40356, Note_on_c, 0, 84, 0
2, 40360, Note_on_c, 0, 83, 101
2, 40476, Note_on_c, 0, 83, 0
2, 40480, Note_on_c, 0, 86, 84
2, 40596, Note_on_c, 0, 86, 0
2, 40600, Note_on_c, 0, 79, 93
2, 40716, Note_on_c, 0, 79, 0
2, 40720, Note_on_c, 0, 81, 89
2, 40836, Note_on_c, 0, 81, 0
2, 40840, Note_on_c, 0, 83, 95
2, 40956, Note_on_c, 0, 83, 0
2, 40960, Note_on_c, 0, 79, 88
2, 41076, Note_on_c, 0, 79, 0
2, 41080, Note_on_c, 0, 74, 90
2, 41196, Note_on_c, 0, 74, 0
2, 41200, Note_on_c, 0, 76, 90
2, 41316, Note_on_c, 0, 76, 0
2, 41320, Note_on_c, 0, 77, 93
2, 41436, Note_on_c, 0, 77, 0
2, 41440, Note_on_c, 0, 74, 89
2, 41556, Note_on_c, 0, 74, 0
2, 41560, Note_on_c, 0, 71, 72
2, 41676, Note_on_c, 0, 71, 0
2, 41680, Note_on_c, 0, 74, 83
2, 41796, Note_on_c, 0, 74, 0
2, 41800, Note_on_c, 0, 76, 92
2, 41916, Note_on_c, 0, 76, 0
2, 41920, Note_on_c, 0, 79, 96
2, 42036, Note_on_c, 0, 79, 0
2, 42040, Note_on_c, 0, 72, 78
2, 42156, Note_on_c, 0, 72, 0
2, 42160, Note_on_c, 0, 74, 88
2, 42276, Note_on_c, 0, 74, 0
2, 42280, Note_on_c, 0, 76, 91
2, 42396, Note_on_c, 0, 76, 0
2, 42400, Note_on_c, 0, 72, 90
2, 42516, Note_on_c, 0, 72, 0
2, 42520, Note_on_c, 0, 69, 84
2, 42636, Note_on_c, 0, 69, 0
2, 42640, Note_on_c, 0, 71, 85
2, 42756, Note_on_c, 0, 71, 0
2, 42760, Note_on_c, 0, 72, 72
2, 42876, Note_on_c, 0, 72, 0
2, 42880, Note_on_c, 0, 69, 82
2, 42996, Note_on_c, 0, 69, 0
2, 43000, Note_on_c, 0, 64, 85
2, 43116, Note_on_c, 0, 64, 0
2, 43120, Note_on_c, 0, 67, 88
2, 43236, Note_on_c, 0, 67, 0
2, 43240, Note_on_c, 0, 66, 86
2, 43356, Note_on_c, 0, 66, 0
2, 43360, Note_on_c, 0, 69, 80
2, 43476, Note_on_c, 0, 69, 0
2, 43480, Note_on_c, 0, 62, 80
2, 43596, Note_on_c, 0, 62, 0
2, 43600, Note_on_c, 0, 64, 92
2, 43716, Note_on_c, 0, 64, 0
2, 43720, Note_on_c, 0, 66, 96
2, 43836, Note_on_c, 0, 66, 0
2, 43840, Note_on_c, 0, 62, 89
2, 43956, Note_on_c, 0, 62, 0
2, 43960, Note_on_c, 0, 57, 111
2, 44080, Note_on_c, 0, 57, 0
2, 44080, Note_on_c, 0, 59, 111
2, 44200, Note_on_c, 0, 59, 0
2, 44200, Note_on_c, 0, 60, 111
2, 44320, Note_on_c, 0, 60, 0
2, 44320, Note_on_c, 0, 57, 101
2, 44432, Note_on_c, 0, 57, 0
2, 44440, Note_on_c, 0, 54, 98
2, 44552, Note_on_c, 0, 54, 0
2, 44560, Note_on_c, 0, 57, 92
2, 44680, Note_on_c, 0, 57, 0
2, 44680, Note_on_c, 0, 59, 119
2, 44796, Note_on_c, 0, 59, 0
2, 44800, Note_on_c, 0, 62, 93
2, 44916, Note_on_c, 0, 62, 0
2, 44920, Note_on_c, 0, 55, 91
2, 45036, Note_on_c, 0, 55, 0
2, 45040, Note_on_c, 0, 57, 95
2, 45156, Note_on_c, 0, 57, 0
2, 45160, Note_on_c, 0, 59, 102
2, 45276, Note_on_c, 0, 59, 0
2, 45280, Note_on_c, 0, 55, 84
2, 45396, Note_on_c, 0, 55, 0
2, 45400, Note_on_c, 0, 59, 89
2, 45516, Note_on_c, 0, 59, 0
2, 45520, Note_on_c, 0, 62, 76
2, 45636, Note_on_c, 0, 62, 0
2, 45640, Note_on_c, 0, 67, 76
2, 46116, Note_on_c, 0, 67, 0
2, 47520, End_track
3, 0, Start_track
3, 0, Title_t, "goldberg.mid"
3, 40, Note_on_c, 3, 55, 113
3, 276, Note_on_c, 3, 55, 0
3, 280, Note_on_c, 3, 50, 109
3, 516, Note_on_c, 3, 50, 0
3, 520, Note_on_c, 3, 47, 107
3, 756, Note_on_c, 3, 47, 0
3, 760, Note_on_c, 3, 43, 119
3, 996, Note_on_c, 3, 43, 0
3, 1120, Note_on_c, 3, 55, 106
3, 1236, Note_on_c, 3, 55, 0
3, 1240, Note_on_c, 3, 54, 104
3, 1356, Note_on_c, 3, 54, 0
3, 1360, Note_on_c, 3, 52, 115
3, 1476, Note_on_c, 3, 52, 0
3, 1480, Note_on_c, 3, 54, 110
3, 1716, Note_on_c, 3, 54, 0
3, 1720, Note_on_c, 3, 50, 111
3, 1956, Note_on_c, 3, 50, 0
3, 1960, Note_on_c, 3, 45, 109
3, 2196, Note_on_c, 3, 45, 0
3, 2200, Note_on_c, 3, 42, 117
3, 2436, Note_on_c, 3, 42, 0
3, 2560, Note_on_c, 3, 54, 119
3, 2676, Note_on_c, 3, 54, 0
3, 2680, Note_on_c, 3, 52, 113
3, 2796, Note_on_c, 3, 52, 0
3, 2800, Note_on_c, 3, 50, 111
3, 2916, Note_on_c, 3, 50, 0
3, 2920, Note_on_c, 3, 52, 115
3, 3156, Note_on_c, 3, 52, 0
3, 3160, Note_on_c, 3, 47, 111
3, 3396, Note_on_c, 3, 47, 0
3, 3400, Note_on_c, 3, 43, 111
3, 3636, Note_on_c, 3, 43, 0
3, 3640, Note_on_c, 3, 40, 121
3, 3876, Note_on_c, 3, 40, 0
3, 4000, Note_on_c, 3, 52, 113
3, 4116, Note_on_c, 3, 52, 0
3, 4120, Note_on_c, 3, 50, 115
3, 4236, Note_on_c, 3, 50, 0
3, 4240, Note_on_c, 3, 49, 121
3, 4356, Note_on_c, 3, 49, 0
3, 4360, Note_on_c, 3, 50, 102
3, 4596, Note_on_c, 3, 50, 0
3, 4600, Note_on_c, 3, 45, 113
3, 4836, Note_on_c, 3, 45, 0
3, 4840, Note_on_c, 3, 42, 112
3, 5076, Note_on_c, 3, 42, 0
3, 5080, Note_on_c, 3, 38, 117
3, 5316, Note_on_c, 3, 38, 0
3, 5440, Note_on_c, 3, 48, 111
3, 5556, Note_on_c, 3, 48, 0
3, 5560, Note_on_c, 3, 47, 106
3, 5676, Note_on_c, 3, 47, 0
3, 5680, Note_on_c, 3, 45, 113
3, 5796, Note_on_c, 3, 45, 0
3, 5800, Note_on_c, 3, 47, 104
3, 6036, Note_on_c, 3, 47, 0
3, 6040, Note_on_c, 3, 50, 113
3, 6276, Note_on_c, 3, 50, 0
3, 6280, Note_on_c, 3, 55, 113
3, 6516, Note_on_c, 3, 55, 0
3, 6520, Note_on_c, 3, 59, 115
3, 6756, Note_on_c, 3, 59, 0
3, 6880, Note_on_c, 3, 55, 106
3, 6996, Note_on_c, 3, 55, 0
3, 7000, Note_on_c, 3, 53, 104
3, 7116, Note_on_c, 3, 53, 0
3, 7120, Note_on_c, 3, 55, 97
3, 7236, Note_on_c, 3, 55, 0
3, 7240, Note_on_c, 3, 48, 102
3, 7476, Note_on_c, 3, 48, 0
3, 7480, Note_on_c, 3, 52, 113
3, 7716, Note_on_c, 3, 52, 0
3, 7720, Note_on_c, 3, 57, 123
3, 7956, Note_on_c, 3, 57, 0
3, 7960, Note_on_c, 3, 60, 115
3, 8196, Note_on_c, 3, 60, 0
3, 8320, Note_on_c, 3, 57, 115
3, 8436, Note_on_c, 3, 57, 0
3, 8440, Note_on_c, 3, 55, 102
3, 8556, Note_on_c, 3, 55, 0
3, 8560, Note_on_c, 3, 57, 106
3, 8676, Note_on_c, 3, 57, 0
3, 8680, Note_on_c, 3, 50, 113
3, 8916, Note_on_c, 3, 50, 0
3, 8920, Note_on_c, 3, 54, 117
3, 9156, Note_on_c, 3, 54, 0
3, 9160, Note_on_c, 3, 57, 115
3, 9396, Note_on_c, 3, 57, 0
3, 9400, Note_on_c, 3, 62, 124
3, 9636, Note_on_c, 3, 62, 0
3, 9760, Note_on_c, 3, 50, 90
3, 9876, Note_on_c, 3, 50, 0
3, 9880, Note_on_c, 3, 48, 119
3, 9996, Note_on_c, 3, 48, 0
3, 10000, Note_on_c, 3, 50, 109
3, 10116, Note_on_c, 3, 50, 0
3, 10120, Note_on_c, 3, 43, 107
3, 10356, Note_on_c, 3, 43, 0
3, 10360, Note_on_c, 3, 55, 115
3, 10596, Note_on_c, 3, 55, 0
3, 10600, Note_on_c, 3, 47, 113
3, 10836, Note_on_c, 3, 47, 0
3, 10840, Note_on_c, 3, 50, 115
3, 11076, Note_on_c, 3, 50, 0
3, 11080, Note_on_c, 3, 43, 111
3, 11316, Note_on_c, 3, 43, 0
3, 11560, Note_on_c, 3, 55, 111
3, 11676, Note_on_c, 3, 55, 0
3, 11680, Note_on_c, 3, 59, 104
3, 11796, Note_on_c, 3, 59, 0
3, 11800, Note_on_c, 3, 62, 106
3, 11916, Note_on_c, 3, 62, 0
3, 11920, Note_on_c, 3, 60, 115
3, 12036, Note_on_c, 3, 60, 0
3, 12040, Note_on_c, 3, 59, 106
3, 12156, Note_on_c, 3, 59, 0
3, 12160, Note_on_c, 3, 62, 97
3, 12276, Note_on_c, 3, 62, 0
3, 12280, Note_on_c, 3, 67, 101
3, 12396, Note_on_c, 3, 67, 0
3, 12400, Note_on_c, 3, 66, 115
3, 12516, Note_on_c, 3, 66, 0
3, 12520, Note_on_c, 3, 64, 100
3, 12636, Note_on_c, 3, 64, 0
3, 12640, Note_on_c, 3, 67, 102
3, 12756, Note_on_c, 3, 67, 0
3, 12760, Note_on_c, 3, 71, 109
3, 12876, Note_on_c, 3, 71, 0
3, 13000, Note_on_c, 3, 54, 117
3, 13116, Note_on_c, 3, 54, 0
3, 13120, Note_on_c, 3, 57, 107
3, 13236, Note_on_c, 3, 57, 0
3, 13240, Note_on_c, 3, 61, 112
3, 13356, Note_on_c, 3, 61, 0
3, 13360, Note_on_c, 3, 59, 106
3, 13476, Note_on_c, 3, 59, 0
3, 13480, Note_on_c, 3, 57, 106
3, 13596, Note_on_c, 3, 57, 0
3, 13600, Note_on_c, 3, 61, 108
3, 13716, Note_on_c, 3, 61, 0
3, 13720, Note_on_c, 3, 66, 110
3, 13836, Note_on_c, 3, 66, 0
3, 13840, Note_on_c, 3, 64, 115
3, 13956, Note_on_c, 3, 64, 0
3, 13960, Note_on_c, 3, 62, 102
3, 14076, Note_on_c, 3, 62, 0
3, 14080, Note_on_c, 3, 66, 104
3, 14196, Note_on_c, 3, 66, 0
3, 14200, Note_on_c, 3, 69, 109
3, 14316, Note_on_c, 3, 69, 0
3, 14440, Note_on_c, 3, 52, 100
3, 14556, Note_on_c, 3, 52, 0
3, 14560, Note_on_c, 3, 55, 92
3, 14676, Note_on_c, 3, 55, 0
3, 14680, Note_on_c, 3, 59, 100
3, 14796, Note_on_c, 3, 59, 0
3, 14800, Note_on_c, 3, 57, 90
3, 14916, Note_on_c, 3, 57, 0
3, 14920, Note_on_c, 3, 55, 83
3, 15036, Note_on_c, 3, 55, 0
3, 15040, Note_on_c, 3, 59, 88
3, 15156, Note_on_c, 3, 59, 0
3, 15160, Note_on_c, 3, 64, 88
3, 15276, Note_on_c, 3, 64, 0
3, 15280, Note_on_c, 3, 62, 85
3, 15396, Note_on_c, 3, 62, 0
3, 15400, Note_on_c, 3, 61, 94
3, 15516, Note_on_c, 3, 61, 0
3, 15520, Note_on_c, 3, 64, 45
3, 15636, Note_on_c, 3, 64, 0
3, 15640, Note_on_c, 3, 67, 61
3, 15756, Note_on_c, 3, 67, 0
3, 15760, Note_on_c, 3, 66, 71
3, 15876, Note_on_c, 3, 66, 0
3, 15880, Note_on_c, 3, 64, 59
3, 15996, Note_on_c, 3, 64, 0
3, 16000, Note_on_c, 3, 67, 78
3, 16116, Note_on_c, 3, 67, 0
3, 16120, Note_on_c, 3, 73, 85
3, 16236, Note_on_c, 3, 73, 0
3, 16240, Note_on_c, 3, 71, 97
3, 16356, Note_on_c, 3, 71, 0
3, 16360, Note_on_c, 3, 69, 76
3, 16476, Note_on_c, 3, 69, 0
3, 16480, Note_on_c, 3, 73, 89
3, 16596, Note_on_c, 3, 73, 0
3, 16600, Note_on_c, 3, 76, 107
3, 16716, Note_on_c, 3, 76, 0
3, 16720, Note_on_c, 3, 74, 100
3, 16836, Note_on_c, 3, 74, 0
3, 16840, Note_on_c, 3, 73, 93
3, 16956, Note_on_c, 3, 73, 0
3, 16960, Note_on_c, 3, 76, 93
3, 17076, Note_on_c, 3, 76, 0
3, 17080, Note_on_c, 3, 81, 93
3, 17196, Note_on_c, 3, 81, 0
3, 17200, Note_on_c, 3, 79, 89
3, 17316, Note_on_c, 3, 79, 0
3, 17320, Note_on_c, 3, 78, 82
3, 17436, Note_on_c, 3, 78, 0
3, 17440, Note_on_c, 3, 81, 102
3, 17556, Note_on_c, 3, 81, 0
3, 17560, Note_on_c, 3, 74, 82
3, 17676, Note_on_c, 3, 74, 0
3, 17680, Note_on_c, 3, 76, 96
3, 17796, Note_on_c, 3, 76, 0
3, 17800, Note_on_c, 3, 78, 92
3, 17916, Note_on_c, 3, 78, 0
3, 17920, Note_on_c, 3, 74, 89
3, 18036, Note_on_c, 3, 74, 0
3, 18040, Note_on_c, 3, 69, 80
3, 18156, Note_on_c, 3, 69, 0
3, 18160, Note_on_c, 3, 71, 50
3, 18276, Note_on_c, 3, 71, 0
3, 18280, Note_on_c, 3, 72, 98
3, 18396, Note_on_c, 3, 72, 0
3, 18400, Note_on_c, 3, 69, 89
3, 18516, Note_on_c, 3, 69, 0
3, 18520, Note_on_c, 3, 66, 84
3, 18636, Note_on_c, 3, 66, 0
3, 18640, Note_on_c, 3, 69, 88
3, 18756, Note_on_c, 3, 69, 0
3, 18760, Note_on_c, 3, 71, 88
3, 18876, Note_on_c, 3, 71, 0
3, 18880, Note_on_c, 3, 74, 88
3, 18996, Note_on_c, 3, 74, 0
3, 19000, Note_on_c, 3, 67, 53
3, 19116, Note_on_c, 3, 67, 0
3, 19120, Note_on_c, 3, 69, 53
3, 19236, Note_on_c, 3, 69, 0
3, 19240, Note_on_c, 3, 71, 53
3, 19356, Note_on_c, 3, 71, 0
3, 19360, Note_on_c, 3, 67, 53
3, 19476, Note_on_c, 3, 67, 0
3, 19480, Note_on_c, 3, 64, 53
3, 19596, Note_on_c, 3, 64, 0
3, 19600, Note_on_c, 3, 66, 53
3, 19716, Note_on_c, 3, 66, 0
3, 19720, Note_on_c, 3, 67, 119
3, 19836, Note_on_c, 3, 67, 0
3, 19840, Note_on_c, 3, 62, 90
3, 19956, Note_on_c, 3, 62, 0
3, 19960, Note_on_c, 3, 59, 93
3, 20076, Note_on_c, 3, 59, 0
3, 20080, Note_on_c, 3, 62, 97
3, 20196, Note_on_c, 3, 62, 0
3, 20200, Note_on_c, 3, 61, 123
3, 20316, Note_on_c, 3, 61, 0
3, 20320, Note_on_c, 3, 64, 109
3, 20436, Note_on_c, 3, 64, 0
3, 20440, Note_on_c, 3, 57, 100
3, 20556, Note_on_c, 3, 57, 0
3, 20560, Note_on_c, 3, 59, 73
3, 20676, Note_on_c, 3, 59, 0
3, 20680, Note_on_c, 3, 61, 94
3, 20796, Note_on_c, 3, 61, 0
3, 20800, Note_on_c, 3, 57, 89
3, 20916, Note_on_c, 3, 57, 0
3, 20920, Note_on_c, 3, 52, 106
3, 21036, Note_on_c, 3, 52, 0
3, 21040, Note_on_c, 3, 54, 96
3, 21156, Note_on_c, 3, 54, 0
3, 21160, Note_on_c, 3, 55, 97
3, 21276, Note_on_c, 3, 55, 0
3, 21280, Note_on_c, 3, 52, 97
3, 21396, Note_on_c, 3, 52, 0
3, 21400, Note_on_c, 3, 49, 82
3, 21516, Note_on_c, 3, 49, 0
3, 21520, Note_on_c, 3, 54, 94
3, 21636, Note_on_c, 3, 54, 0
3, 21640, Note_on_c, 3, 50, 98
3, 21756, Note_on_c, 3, 50, 0
3, 21760, Note_on_c, 3, 54, 102
3, 21876, Note_on_c, 3, 54, 0
3, 21880, Note_on_c, 3, 50, 78
3, 21996, Note_on_c, 3, 50, 0
3, 22000, Note_on_c, 3, 52, 91
3, 22116, Note_on_c, 3, 52, 0
3, 22120, Note_on_c, 3, 54, 101
3, 22236, Note_on_c, 3, 54, 0
3, 22240, Note_on_c, 3, 50, 84
3, 22356, Note_on_c, 3, 50, 0
3, 22360, Note_on_c, 3, 54, 93
3, 22476, Note_on_c, 3, 54, 0
3, 22480, Note_on_c, 3, 57, 95
3, 22596, Note_on_c, 3, 57, 0
3, 22600, Note_on_c, 3, 62, 107
3, 22836, Note_on_c, 3, 62, 0
3, 23080, Note_on_c, 3, 62, 117
3, 23316, Note_on_c, 3, 62, 0
3, 23320, Note_on_c, 3, 57, 111
3, 23556, Note_on_c, 3, 57, 0
3, 23560, Note_on_c, 3, 54, 117
3, 23796, Note_on_c, 3, 54, 0
3, 23800, Note_on_c, 3, 50, 115
3, 24036, Note_on_c, 3, 50, 0
3, 24160, Note_on_c, 3, 60, 109
3, 24276, Note_on_c, 3, 60, 0
3, 24280, Note_on_c, 3, 59, 95
3, 24396, Note_on_c, 3, 59, 0
3, 24400, Note_on_c, 3, 57, 104
3, 24516, Note_on_c, 3, 57, 0
3, 24520, Note_on_c, 3, 55, 96
3, 24756, Note_on_c, 3, 55, 0
3, 24760, Note_on_c, 3, 50, 109
3, 24996, Note_on_c, 3, 50, 0
3, 25000, Note_on_c, 3, 47, 104
3, 25236, Note_on_c, 3, 47, 0
3, 25240, Note_on_c, 3, 43, 115
3, 25476, Note_on_c, 3, 43, 0
3, 25600, Note_on_c, 3, 53, 109
3, 25716, Note_on_c, 3, 53, 0
3, 25720, Note_on_c, 3, 52, 102
3, 25836, Note_on_c, 3, 52, 0
3, 25840, Note_on_c, 3, 50, 95
3, 25956, Note_on_c, 3, 50, 0
3, 25960, Note_on_c, 3, 48, 101
3, 26076, Note_on_c, 3, 48, 0
3, 26080, Note_on_c, 3, 52, 97
3, 26196, Note_on_c, 3, 52, 0
3, 26200, Note_on_c, 3, 57, 98
3, 26316, Note_on_c, 3, 57, 0
3, 26320, Note_on_c, 3, 55, 96
3, 26436, Note_on_c, 3, 55, 0
3, 26440, Note_on_c, 3, 54, 93
3, 26556, Note_on_c, 3, 54, 0
3, 26560, Note_on_c, 3, 57, 100
3, 26676, Note_on_c, 3, 57, 0
3, 26680, Note_on_c, 3, 60, 98
3, 26796, Note_on_c, 3, 60, 0
3, 26800, Note_on_c, 3, 59, 96
3, 26916, Note_on_c, 3, 59, 0
3, 26920, Note_on_c, 3, 57, 77
3, 27036, Note_on_c, 3, 57, 0
3, 27040, Note_on_c, 3, 60, 100
3, 27156, Note_on_c, 3, 60, 0
3, 27160, Note_on_c, 3, 63, 93
3, 27276, Note_on_c, 3, 63, 0
3, 27280, Note_on_c, 3, 61, 93
3, 27396, Note_on_c, 3, 61, 0
3, 27400, Note_on_c, 3, 59, 85
3, 27516, Note_on_c, 3, 59, 0
3, 27520, Note_on_c, 3, 63, 71
3, 27636, Note_on_c, 3, 63, 0
3, 27640, Note_on_c, 3, 66, 71
3, 27756, Note_on_c, 3, 66, 0
3, 27760, Note_on_c, 3, 64, 71
3, 27876, Note_on_c, 3, 64, 0
3, 27880, Note_on_c, 3, 63, 104
3, 27996, Note_on_c, 3, 63, 0
3, 28000, Note_on_c, 3, 66, 89
3, 28116, Note_on_c, 3, 66, 0
3, 28120, Note_on_c, 3, 69, 88
3, 28236, Note_on_c, 3, 69, 0
3, 28240, Note_on_c, 3, 67, 93
3, 28356, Note_on_c, 3, 67, 0
3, 28360, Note_on_c, 3, 66, 108
3, 28476, Note_on_c, 3, 66, 0
3, 28480, Note_on_c, 3, 69, 92
3, 28596, Note_on_c, 3, 69, 0
3, 28600, Note_on_c, 3, 72, 98
3, 28716, Note_on_c, 3, 72, 0
3, 28720, Note_on_c, 3, 69, 97
3, 28836, Note_on_c, 3, 69, 0
3, 28840, Note_on_c, 3, 71, 97
3, 28956, Note_on_c, 3, 71, 0
3, 28960, Note_on_c, 3, 67, 101
3, 29076, Note_on_c, 3, 67, 0
3, 29080, Note_on_c, 3, 64, 98
3, 29196, Note_on_c, 3, 64, 0
3, 29200, Note_on_c, 3, 66, 90
3, 29316, Note_on_c, 3, 66, 0
3, 29320, Note_on_c, 3, 67, 92
3, 29436, Note_on_c, 3, 67, 0
3, 29440, Note_on_c, 3, 64, 89
3, 29556, Note_on_c, 3, 64, 0
3, 29560, Note_on_c, 3, 59, 84
3, 29676, Note_on_c, 3, 59, 0
3, 29680, Note_on_c, 3, 63, 89
3, 29796, Note_on_c, 3, 63, 0
3, 29800, Note_on_c, 3, 64, 73
3, 29916, Note_on_c, 3, 64, 0
3, 29920, Note_on_c, 3, 59, 67
3, 30036, Note_on_c, 3, 59, 0
3, 30040, Note_on_c, 3, 55, 78
3, 30156, Note_on_c, 3, 55, 0
3, 30160, Note_on_c, 3, 59, 92
3, 30276, Note_on_c, 3, 59, 0
3, 30280, Note_on_c, 3, 60, 96
3, 30396, Note_on_c, 3, 60, 0
3, 30400, Note_on_c, 3, 57, 91
3, 30516, Note_on_c, 3, 57, 0
3, 30520, Note_on_c, 3, 52, 82
3, 30636, Note_on_c, 3, 52, 0
3, 30640, Note_on_c, 3, 56, 88
3, 30756, Note_on_c, 3, 56, 0
3, 30760, Note_on_c, 3, 57, 72
3, 30876, Note_on_c, 3, 57, 0
3, 30880, Note_on_c, 3, 52, 82
3, 30996, Note_on_c, 3, 52, 0
3, 31000, Note_on_c, 3, 48, 84
3, 31116, Note_on_c, 3, 48, 0
3, 31120, Note_on_c, 3, 50, 84
3, 31236, Note_on_c, 3, 50, 0
3, 31240, Note_on_c, 3, 52, 93
3, 31356, Note_on_c, 3, 52, 0
3, 31360, Note_on_c, 3, 48, 91
3, 31476, Note_on_c, 3, 48, 0
3, 31480, Note_on_c, 3, 45, 76
3, 31596, Note_on_c, 3, 45, 0
3, 31600, Note_on_c, 3, 48, 90
3, 31716, Note_on_c, 3, 48, 0
3, 31720, Note_on_c, 3, 39, 119
3, 31956, Note_on_c, 3, 39, 0
3, 31960, Note_on_c, 3, 51, 108
3, 32196, Note_on_c, 3, 51, 0
3, 32200, Note_on_c, 3, 52, 115
3, 32436, Note_on_c, 3, 52, 0
3, 32440, Note_on_c, 3, 48, 111
3, 32676, Note_on_c, 3, 48, 0
3, 32680, Note_on_c, 3, 45, 98
3, 32916, Note_on_c, 3, 45, 0
3, 32920, Note_on_c, 3, 47, 121
3, 33156, Note_on_c, 3, 47, 0
3, 33160, Note_on_c, 3, 40, 115
3, 33396, Note_on_c, 3, 40, 0
3, 33400, Note_on_c, 3, 43, 106
3, 33636, Note_on_c, 3, 43, 0
3, 33640, Note_on_c, 3, 47, 109
3, 33876, Note_on_c, 3, 47, 0
3, 33880, Note_on_c, 3, 52, 102
3, 34116, Note_on_c, 3, 52, 0
3, 34240, Note_on_c, 3, 50, 98
3, 34356, Note_on_c, 3, 50, 0
3, 34360, Note_on_c, 3, 48, 106
3, 34476, Note_on_c, 3, 48, 0
3, 34480, Note_on_c, 3, 47, 95
3, 34596, Note_on_c, 3, 47, 0
3, 34600, Note_on_c, 3, 48, 100
3, 34716, Note_on_c, 3, 48, 0
3, 34720, Note_on_c, 3, 52, 98
3, 34836, Note_on_c, 3, 52, 0
3, 34840, Note_on_c, 3, 55, 93
3, 34956, Note_on_c, 3, 55, 0
3, 34960, Note_on_c, 3, 53, 93
3, 35076, Note_on_c, 3, 53, 0
3, 35080, Note_on_c, 3, 52, 98
3, 35196, Note_on_c, 3, 52, 0
3, 35200, Note_on_c, 3, 55, 92
3, 35316, Note_on_c, 3, 55, 0
3, 35320, Note_on_c, 3, 60, 97
3, 35436, Note_on_c, 3, 60, 0
3, 35440, Note_on_c, 3, 59, 93
3, 35556, Note_on_c, 3, 59, 0
3, 35560, Note_on_c, 3, 58, 101
3, 35676, Note_on_c, 3, 58, 0
3, 35680, Note_on_c, 3, 61, 102
3, 35796, Note_on_c, 3, 61, 0
3, 35800, Note_on_c, 3, 66, 106
3, 35916, Note_on_c, 3, 66, 0
3, 36040, Note_on_c, 3, 47, 52
3, 36156, Note_on_c, 3, 47, 0
3, 36160, Note_on_c, 3, 50, 97
3, 36276, Note_on_c, 3, 50, 0
3, 36280, Note_on_c, 3, 54, 46
3, 36396, Note_on_c, 3, 54, 0
3, 36400, Note_on_c, 3, 52, 46
3, 36516, Note_on_c, 3, 52, 0
3, 36520, Note_on_c, 3, 50, 90
3, 36636, Note_on_c, 3, 50, 0
3, 36640, Note_on_c, 3, 54, 88
3, 36756, Note_on_c, 3, 54, 0
3, 36760, Note_on_c, 3, 59, 100
3, 36876, Note_on_c, 3, 59, 0
3, 36880, Note_on_c, 3, 57, 100
3, 36996, Note_on_c, 3, 57, 0
3, 37000, Note_on_c, 3, 56, 96
3, 37116, Note_on_c, 3, 56, 0
3, 37120, Note_on_c, 3, 59, 91
3, 37236, Note_on_c, 3, 59, 0
3, 37240, Note_on_c, 3, 64, 121
3, 37356, Note_on_c, 3, 64, 0
3, 37480, Note_on_c, 3, 45, 96
3, 37596, Note_on_c, 3, 45, 0
3, 37600, Note_on_c, 3, 48, 98
3, 37716, Note_on_c, 3, 48, 0
3, 37720, Note_on_c, 3, 52, 104
3, 37836, Note_on_c, 3, 52, 0
3, 37840, Note_on_c, 3, 50, 92
3, 37956, Note_on_c, 3, 50, 0
3, 37960, Note_on_c, 3, 48, 97
3, 38076, Note_on_c, 3, 48, 0
3, 38080, Note_on_c, 3, 45, 89
3, 38196, Note_on_c, 3, 45, 0
3, 38200, Note_on_c, 3, 48, 100
3, 38316, Note_on_c, 3, 48, 0
3, 38320, Note_on_c, 3, 52, 95
3, 38436, Note_on_c, 3, 52, 0
3, 38440, Note_on_c, 3, 57, 100
3, 38556, Note_on_c, 3, 57, 0
3, 38560, Note_on_c, 3, 60, 117
3, 38676, Note_on_c, 3, 60, 0
3, 38680, Note_on_c, 3, 54, 108
3, 38796, Note_on_c, 3, 54, 0
3, 38800, Note_on_c, 3, 55, 104
3, 38916, Note_on_c, 3, 55, 0
3, 38920, Note_on_c, 3, 57, 107
3, 39036, Note_on_c, 3, 57, 0
3, 39040, Note_on_c, 3, 54, 117
3, 39156, Note_on_c, 3, 54, 0
3, 39160, Note_on_c, 3, 50, 95
3, 39276, Note_on_c, 3, 50, 0
3, 39280, Note_on_c, 3, 52, 102
3, 39396, Note_on_c, 3, 52, 0
3, 39400, Note_on_c, 3, 54, 99
3, 39516, Note_on_c, 3, 54, 0
3, 39520, Note_on_c, 3, 50, 100
3, 39636, Note_on_c, 3, 50, 0
3, 39640, Note_on_c, 3, 45, 98
3, 39756, Note_on_c, 3, 45, 0
3, 39760, Note_on_c, 3, 47, 100
3, 39876, Note_on_c, 3, 47, 0
3, 39880, Note_on_c, 3, 48, 106
3, 39996, Note_on_c, 3, 48, 0
3, 40000, Note_on_c, 3, 45, 100
3, 40116, Note_on_c, 3, 45, 0
3, 40120, Note_on_c, 3, 42, 94
3, 40236, Note_on_c, 3, 42, 0
3, 40240, Note_on_c, 3, 38, 98
3, 40356, Note_on_c, 3, 38, 0
3, 40360, Note_on_c, 3, 43, 89
3, 40596, Note_on_c, 3, 43, 0
3, 40600, Note_on_c, 3, 47, 111
3, 40836, Note_on_c, 3, 47, 0
3, 40840, Note_on_c, 3, 50, 93
3, 41076, Note_on_c, 3, 50, 0
3, 41080, Note_on_c, 3, 53, 117
3, 41316, Note_on_c, 3, 53, 0
3, 41440, Note_on_c, 3, 53, 109
3, 41556, Note_on_c, 3, 53, 0
3, 41560, Note_on_c, 3, 52, 86
3, 41676, Note_on_c, 3, 52, 0
3, 41680, Note_on_c, 3, 50, 100
3, 41796, Note_on_c, 3, 50, 0
3, 41800, Note_on_c, 3, 48, 113
3, 42036, Note_on_c, 3, 48, 0
3, 42040, Note_on_c, 3, 52, 119
3, 42276, Note_on_c, 3, 52, 0
3, 42280, Note_on_c, 3, 55, 102
3, 42516, Note_on_c, 3, 55, 0
3, 42520, Note_on_c, 3, 60, 117
3, 42756, Note_on_c, 3, 60, 0
3, 42880, Note_on_c, 3, 60, 107
3, 42996, Note_on_c, 3, 60, 0
3, 43000, Note_on_c, 3, 59, 104
3, 43116, Note_on_c, 3, 59, 0
3, 43120, Note_on_c, 3, 60, 111
3, 43236, Note_on_c, 3, 60, 0
3, 43240, Note_on_c, 3, 50, 104
3, 43476, Note_on_c, 3, 50, 0
3, 43480, Note_on_c, 3, 54, 115
3, 43716, Note_on_c, 3, 54, 0
3, 43720, Note_on_c, 3, 57, 107
3, 43956, Note_on_c, 3, 57, 0
3, 43960, Note_on_c, 3, 60, 106
3, 44196, Note_on_c, 3, 60, 0
3, 44320, Note_on_c, 3, 60, 109
3, 44436, Note_on_c, 3, 60, 0
3, 44440, Note_on_c, 3, 62, 101
3, 44556, Note_on_c, 3, 62, 0
3, 44560, Note_on_c, 3, 54, 106
3, 44676, Note_on_c, 3, 54, 0
3, 44680, Note_on_c, 3, 55, 106
3, 44796, Note_on_c, 3, 55, 0
3, 44800, Note_on_c, 3, 59, 106
3, 44916, Note_on_c, 3, 59, 0
3, 44920, Note_on_c, 3, 62, 101
3, 45036, Note_on_c, 3, 62, 0
3, 45040, Note_on_c, 3, 66, 66
3, 45156, Note_on_c, 3, 66, 0
3, 45160, Note_on_c, 3, 67, 95
3, 45276, Note_on_c, 3, 67, 0
3, 45280, Note_on_c, 3, 66, 101
3, 45340, Note_on_c, 3, 66, 0
3, 45340, Note_on_c, 3, 64, 101
3, 45400, Note_on_c, 3, 64, 0
3, 45400, Note_on_c, 3, 62, 101
3, 45460, Note_on_c, 3, 62, 0
3, 45460, Note_on_c, 3, 60, 101
3, 45520, Note_on_c, 3, 60, 0
3, 45520, Note_on_c, 3, 59, 101
3, 45580, Note_on_c, 3, 59, 0
3, 45580, Note_on_c, 3, 57, 101
3, 45640, Note_on_c, 3, 57, 0
3, 45640, Note_on_c, 3, 55, 106
3, 46120, Note_on_c, 3, 55, 0
3, 47520, End_track
0, 0, End_of_file
