0, 0, Header, 1, 4, 480
1, 0, Start_track
1, 0, SMPTE_offset, 96, 0, 0, 0, 0
1, 0, Time_signature, 3, 2, 24, 8
1, 40, Tempo, 666666
1, 47520, End_track
2, 0, Start_track
2, 0, Title_t, "goldberg.mid"
2, 40, Note_on_c, 0, 71, 98
2, 276, Note_on_c, 0, 71, 0
2, 280, Note_on_c, 0, 69, 104
2, 516, Note_on_c, 0, 69, 0
2, 520, Note_on_c, 0, 71, 104
2, 756, Note_on_c, 0, 71, 0
2, 760, Note_on_c, 0, 72, 106
2, 996, Note_on_c, 0, 72, 0
2, 1000, Note_on_c, 0, 74, 98
2, 1236, Note_on_c, 0, 74, 0
2, 1240, Note_on_c, 0, 69, 84
2, 1476, Note_on_c, 0, 69, 0
2, 1480, Note_on_c, 0, 74, 85
2, 1716, Note_on_c, 0, 74, 0
2, 1720, Note_on_c, 0, 72, 90
2, 1956, Note_on_c, 0, 72, 0
2, 1960, Note_on_c, 0, 71, 93
2, 2196, Note_on_c, 0, 71, 0
2, 2200, Note_on_c, 0, 74, 86
2, 2436, Note_on_c, 0, 74, 0
2, 2440, Note_on_c, 0, 79, 101
2, 3156, Note_on_c, 0, 79, 0
2, 3160, Note_on_c, 0, 81, 80
2, 3276, Note_on_c, 0, 81, 0
2, 3280, Note_on_c, 0, 79, 91
2, 3396, Note_on_c, 0, 79, 0
2, 3400, Note_on_c, 0, 78, 92
2, 3876, Note_on_c, 0, 78, 0
2, 3880, Note_on_c, 0, 79, 92
2, 4116, Note_on_c, 0, 79, 0
2, 4120, Note_on_c, 0, 78, 92
2, 4356, Note_on_c, 0, 78, 0
2, 4360, Note_on_c, 0, 79, 95
2, 4596, Note_on_c, 0, 79, 0
2, 4600, Note_on_c, 0, 81, 92
2, 4836, Note_on_c, 0, 81, 0
2, 4840, Note_on_c, 0, 83, 97
2, 5076, Note_on_c, 0, 83, 0
2, 5080, Note_on_c, 0, 78, 88
2, 5316, Note_on_c, 0, 78, 0
2, 5320, Note_on_c, 0, 83, 102
2, 5560, Note_on_c, 0, 83, 0
2, 5560, Note_on_c, 0, 81, 90
2, 5796, Note_on_c, 0, 81, 0
2, 5800, Note_on_c, 0, 79, 92
2, 6036, Note_on_c, 0, 79, 0
2, 6040, Note_on_c, 0, 81, 100
2, 6156, Note_on_c, 0, 81, 0
2, 6160, Note_on_c, 0, 83, 97
2, 6276, Note_on_c, 0, 83, 0
2, 6280, Note_on_c, 0, 84, 102
2, 6996, Note_on_c, 0, 84, 0
2, 7000, Note_on_c, 0, 83, 90
2, 7116, Note_on_c, 0, 83, 0
2, 7120, Note_on_c, 0, 81, 88
2, 7236, Note_on_c, 0, 81, 0
2, 7240, Note_on_c, 0, 83, 102
2, 7476, Note_on_c, 0, 83, 0
2, 7480, Note_on_c, 0, 71, 96
2, 7716, Note_on_c, 0, 71, 0
2, 7720, Note_on_c, 0, 73, 104
2, 7960, Note_on_c, 0, 73, 0
2, 7960, Note_on_c, 0, 71, 95
2, 8196, Note_on_c, 0, 71, 0
2, 8200, Note_on_c, 0, 73, 101
2, 8436, Note_on_c, 0, 73, 0
2, 8440, Note_on_c, 0, 75, 96
2, 8676, Note_on_c, 0, 75, 0
2, 8680, Note_on_c, 0, 76, 98
2, 8916, Note_on_c, 0, 76, 0
2, 8920, Note_on_c, 0, 71, 81
2, 9156, Note_on_c, 0, 71, 0
2, 9160, Note_on_c, 0, 76, 96
2, 9396, Note_on_c, 0, 76, 0
2, 9400, Note_on_c, 0, 74, 101
2, 9636, Note_on_c, 0, 74, 0
2, 9640, Note_on_c, 0, 72, 110
2, 9876, Note_on_c, 0, 72, 0
2, 9880, Note_on_c, 0, 74, 101
2, 9996, Note_on_c, 0, 74, 0
2, 10000, Note_on_c, 0, 76, 104
2, 10116, Note_on_c, 0, 76, 0
2, 10120, Note_on_c, 0, 77, 107
2, 10836, Note_on_c, 0, 77, 0
2, 10840, Note_on_c, 0, 76, 97
2, 10956, Note_on_c, 0, 76, 0
2, 10960, Note_on_c, 0, 74, 85
2, 11076, Note_on_c, 0, 74, 0
2, 11080, Note_on_c, 0, 76, 97
2, 11196, Note_on_c, 0, 76, 0
2, 11200, Note_on_c, 0, 78, 89
2, 11316, Note_on_c, 0, 78, 0
2, 11320, Note_on_c, 0, 79, 104
2, 11796, Note_on_c, 0, 79, 0
2, 11800, Note_on_c, 0, 78, 112
2, 12276, Note_on_c, 0, 78, 0
2, 12280, Note_on_c, 0, 76, 100
2, 12516, Note_on_c, 0, 76, 0
2, 12520, Note_on_c, 0, 78, 96
2, 12756, Note_on_c, 0, 78, 0
2, 12760, Note_on_c, 0, 79, 97
2, 12996, Note_on_c, 0, 79, 0
2, 13000, Note_on_c, 0, 81, 96
2, 13236, Note_on_c, 0, 81, 0
2, 13240, Note_on_c, 0, 79, 85
2, 13476, Note_on_c, 0, 79, 0
2, 13480, Note_on_c, 0, 78, 82
2, 13956, Note_on_c, 0, 78, 0
2, 13960, Note_on_c, 0, 76, 98
2, 14440, Note_on_c, 0, 76, 0
2, 14440, Note_on_c, 0, 74, 89
2, 15400, Note_on_c, 0, 74, 0
2, 15400, Note_on_c, 0, 71, 63
2, 15636, Note_on_c, 0, 71, 0
2, 15640, Note_on_c, 0, 69, 41
2, 15876, Note_on_c, 0, 69, 0
2, 15880, Note_on_c, 0, 71, 65
2, 16116, Note_on_c, 0, 71, 0
2, 16120, Note_on_c, 0, 72, 80
2, 16356, Note_on_c, 0, 72, 0
2, 16360, Note_on_c, 0, 74, 65
2, 16596, Note_on_c, 0, 74, 0
2, 16600, Note_on_c, 0, 69, 40
2, 16836, Note_on_c, 0, 69, 0
2, 16840, Note_on_c, 0, 74, 73
2, 17076, Note_on_c, 0, 74, 0
2, 17080, Note_on_c, 0, 72, 84
2, 17316, Note_on_c, 0, 72, 0
2, 17320, Note_on_c, 0, 71, 72
2, 17556, Note_on_c, 0, 71, 0
2, 17560, Note_on_c, 0, 74, 77
2, 17796, Note_on_c, 0, 74, 0
2, 17800, Note_on_c, 0, 79, 78
2, 18516, Note_on_c, 0, 79, 0
2, 18520, Note_on_c, 0, 81, 46
2, 18636, Note_on_c, 0, 81, 0
2, 18640, Note_on_c, 0, 79, 64
2, 18756, Note_on_c, 0, 79, 0
2, 18760, Note_on_c, 0, 78, 74
2, 19236, Note_on_c, 0, 78, 0
2, 19240, Note_on_c, 0, 79, 61
2, 19476, Note_on_c, 0, 79, 0
2, 19480, Note_on_c, 0, 78, 73
2, 19716, Note_on_c, 0, 78, 0
2, 19720, Note_on_c, 0, 79, 66
2, 19956, Note_on_c, 0, 79, 0
2, 19960, Note_on_c, 0, 81, 78
2, 20196, Note_on_c, 0, 81, 0
2, 20200, Note_on_c, 0, 83, 77
2, 20436, Note_on_c, 0, 83, 0
2, 20440, Note_on_c, 0, 78, 80
2, 20676, Note_on_c, 0, 78, 0
2, 20680, Note_on_c, 0, 83, 84
2, 20916, Note_on_c, 0, 83, 0
2, 20920, Note_on_c, 0, 81, 80
2, 21156, Note_on_c, 0, 81, 0
2, 21160, Note_on_c, 0, 79, 76
2, 21396, Note_on_c, 0, 79, 0
2, 21400, Note_on_c, 0, 81, 77
2, 21516, Note_on_c, 0, 81, 0
2, 21520, Note_on_c, 0, 83, 77
2, 21636, Note_on_c, 0, 83, 0
2, 21640, Note_on_c, 0, 84, 77
2, 22356, Note_on_c, 0, 84, 0
2, 22360, Note_on_c, 0, 83, 63
2, 22476, Note_on_c, 0, 83, 0
2, 22480, Note_on_c, 0, 81, 74
2, 22596, Note_on_c, 0, 81, 0
2, 22600, Note_on_c, 0, 83, 92
2, 22836, Note_on_c, 0, 83, 0
2, 22840, Note_on_c, 0, 71, 72
2, 23076, Note_on_c, 0, 71, 0
2, 23080, Note_on_c, 0, 73, 77
2, 23316, Note_on_c, 0, 73, 0
2, 23320, Note_on_c, 0, 71, 75
2, 23556, Note_on_c, 0, 71, 0
2, 23560, Note_on_c, 0, 73, 79
2, 23796, Note_on_c, 0, 73, 0
2, 23800, Note_on_c, 0, 75, 85
2, 24036, Note_on_c, 0, 75, 0
2, 24040, Note_on_c, 0, 76, 85
2, 24276, Note_on_c, 0, 76, 0
2, 24280, Note_on_c, 0, 71, 76
2, 24516, Note_on_c, 0, 71, 0
2, 24520, Note_on_c, 0, 76, 84
2, 24756, Note_on_c, 0, 76, 0
2, 24760, Note_on_c, 0, 74, 75
2, 24996, Note_on_c, 0, 74, 0
2, 25000, Note_on_c, 0, 72, 90
2, 25236, Note_on_c, 0, 72, 0
2, 25240, Note_on_c, 0, 74, 86
2, 25356, Note_on_c, 0, 74, 0
2, 25360, Note_on_c, 0, 76, 88
2, 25476, Note_on_c, 0, 76, 0
2, 25480, Note_on_c, 0, 77, 89
2, 26196, Note_on_c, 0, 77, 0
2, 26200, Note_on_c, 0, 76, 72
2, 26316, Note_on_c, 0, 76, 0
2, 26320, Note_on_c, 0, 74, 69
2, 26436, Note_on_c, 0, 74, 0
2, 26440, Note_on_c, 0, 76, 76
2, 26556, Note_on_c, 0, 76, 0
2, 26560, Note_on_c, 0, 78, 75
2, 26676, Note_on_c, 0, 78, 0
2, 26680, Note_on_c, 0, 79, 89
2, 27156, Note_on_c, 0, 79, 0
2, 27160, Note_on_c, 0, 78, 74
2, 27636, Note_on_c, 0, 78, 0
2, 27640, Note_on_c, 0, 76, 90
2, 27876, Note_on_c, 0, 76, 0
2, 27880, Note_on_c, 0, 78, 82
2, 28116, Note_on_c, 0, 78, 0
2, 28120, Note_on_c, 0, 79, 83
2, 28356, Note_on_c, 0, 79, 0
2, 28360, Note_on_c, 0, 81, 90
2, 28596, Note_on_c, 0, 81, 0
2, 28600, Note_on_c, 0, 79, 77
2, 28836, Note_on_c, 0, 79, 0
2, 28840, Note_on_c, 0, 78, 76
2, 29316, Note_on_c, 0, 78, 0
2, 29320, Note_on_c, 0, 76, 92
2, 29796, Note_on_c, 0, 76, 0
2, 29800, Note_on_c, 0, 74, 93
2, 30756, Note_on_c, 0, 74, 0
2, 30760, Note_on_c, 0, 78, 88
2, 30996, Note_on_c, 0, 78, 0
2, 31000, Note_on_c, 0, 74, 77
2, 31236, Note_on_c, 0, 74, 0
2, 31240, Note_on_c, 0, 76, 88
2, 31476, Note_on_c, 0, 76, 0
2, 31480, Note_on_c, 0, 78, 85
2, 31716, Note_on_c, 0, 78, 0
2, 31720, Note_on_c, 0, 79, 85
2, 31956, Note_on_c, 0, 79, 0
2, 31960, Note_on_c, 0, 74, 71
2, 32196, Note_on_c, 0, 74, 0
2, 32200, Note_on_c, 0, 79, 83
2, 32436, Note_on_c, 0, 79, 0
2, 32440, Note_on_c, 0, 81, 81
2, 32676, Note_on_c, 0, 81, 0
2, 32680, Note_on_c, 0, 83, 100
2, 32916, Note_on_c, 0, 83, 0
2, 32920, Note_on_c, 0, 76, 82
2, 33156, Note_on_c, 0, 76, 0
2, 33160, Note_on_c, 0, 81, 86
2, 33876, Note_on_c, 0, 81, 0
2, 33880, Note_on_c, 0, 79, 90
2, 33996, Note_on_c, 0, 79, 0
2, 34000, Note_on_c, 0, 78, 75
2, 34116, Note_on_c, 0, 78, 0
2, 34120, Note_on_c, 0, 79, 91
2, 34596, Note_on_c, 0, 79, 0
2, 34840, Note_on_c, 0, 76, 100
2, 35316, Note_on_c, 0, 76, 0
2, 35320, Note_on_c, 0, 74, 82
2, 35436, Note_on_c, 0, 74, 0
2, 35440, Note_on_c, 0, 72, 66
2, 35556, Note_on_c, 0, 72, 0
2, 35560, Note_on_c, 0, 71, 80
2, 35676, Note_on_c, 0, 71, 0
2, 35680, Note_on_c, 0, 69, 68
2, 35796, Note_on_c, 0, 69, 0
2, 35800, Note_on_c, 0, 67, 81
2, 35916, Note_on_c, 0, 67, 0
2, 35920, Note_on_c, 0, 66, 82
2, 36036, Note_on_c, 0, 66, 0
2, 36040, Note_on_c, 0, 67, 89
2, 36156, Note_on_c, 0, 67, 0
2, 36160, Note_on_c, 0, 69, 72
2, 36276, Note_on_c, 0, 69, 0
2, 36280, Note_on_c, 0, 71, 88
2, 36396, Note_on_c, 0, 71, 0
2, 36400, Note_on_c, 0, 67, 101
2, 36516, Note_on_c, 0, 67, 0
2, 36520, Note_on_c, 0, 66, 102
2, 36636, Note_on_c, 0, 66, 0
2, 36640, Note_on_c, 0, 64, 104
2, 36876, Note_on_c, 0, 64, 0
2, 36880, Note_on_c, 0, 66, 104
2, 36996, Note_on_c, 0, 66, 0
2, 37000, Note_on_c, 0, 63, 90
2, 37476, Note_on_c, 0, 63, 0
2, 37480, Note_on_c, 0, 64, 90
2, 37716, Note_on_c, 0, 64, 0
2, 37960, Note_on_c, 0, 71, 100
2, 38676, Note_on_c, 0, 71, 0
2, 38680, Note_on_c, 0, 69, 100
2, 39156, Note_on_c, 0, 69, 0
2, 39160, Note_on_c, 0, 68, 100
2, 39396, Note_on_c, 0, 68, 0
2, 39400, Note_on_c, 0, 69, 100
2, 39636, Note_on_c, 0, 69, 0
2, 39640, Note_on_c, 0, 72, 100
2, 39756, Note_on_c, 0, 72, 0
2, 39760, Note_on_c, 0, 71, 100
2, 39876, Note_on_c, 0, 71, 0
2, 39880, Note_on_c, 0, 72, 100
2, 39996, Note_on_c, 0, 72, 0
2, 40000, Note_on_c, 0, 76, 100
2, 40116, Note_on_c, 0, 76, 0
2, 40120, Note_on_c, 0, 74, 100
2, 40236, Note_on_c, 0, 74, 0
2, 40240, Note_on_c, 0, 72, 100
2, 40356, Note_on_c, 0, 72, 0
2, 40360, Note_on_c, 0, 71, 117
2, 40836, Note_on_c, 0, 71, 0
2, 40840, Note_on_c, 0, 73, 92
2, 41316, Note_on_c, 0, 73, 0
2, 41320, Note_on_c, 0, 74, 98
2, 42516, Note_on_c, 0, 74, 0
2, 42520, Note_on_c, 0, 79, 97
2, 42756, Note_on_c, 0, 79, 0
2, 42760, Note_on_c, 0, 78, 108
2, 42996, Note_on_c, 0, 78, 0
2, 43000, Note_on_c, 0, 76, 104
2, 43236, Note_on_c, 0, 76, 0
2, 43240, Note_on_c, 0, 74, 95
2, 43476, Note_on_c, 0, 74, 0
2, 43480, Note_on_c, 0, 79, 97
2, 43596, Note_on_c, 0, 79, 0
2, 43600, Note_on_c, 0, 78, 99
2, 43716, Note_on_c, 0, 78, 0
2, 43720, Note_on_c, 0, 79, 100
2, 43836, Note_on_c, 0, 79, 0
2, 43840, Note_on_c, 0, 81, 91
2, 43956, Note_on_c, 0, 81, 0
2, 43960, Note_on_c, 0, 83, 104
2, 44196, Note_on_c, 0, 83, 0
2, 44200, Note_on_c, 0, 76, 99
2, 44420, Note_on_c, 0, 81, 100
2, 44444, Note_on_c, 0, 76, 0
2, 44612, Note_on_c, 0, 78, 73
2, 44616, Note_on_c, 0, 81, 0
2, 44644, Note_on_c, 0, 79, 101
2, 44648, Note_on_c, 0, 78, 0
2, 44680, Note_on_c, 0, 78, 102
2, 44692, Note_on_c, 0, 79, 0
2, 45020, Note_on_c, 0, 79, 100
2, 45028, Note_on_c, 0, 78, 0
2, 45088, Note_on_c, 0, 79, 0
2, 45160, Note_on_c, 0, 79, 107
2, 46120, Note_on_c, 0, 79, 0
2, 47520, End_track
3, 0, Start_track
3, 0, Title_t, "goldberg.mid"
3, 1960, Note_on_c, 1, 67, 102
3, 2196, Note_on_c, 1, 67, 0
3, 2200, Note_on_c, 1, 66, 102
3, 2436, Note_on_c, 1, 66, 0
3, 2440, Note_on_c, 1, 67, 85
3, 2676, Note_on_c, 1, 67, 0
3, 2680, Note_on_c, 1, 69, 93
3, 2916, Note_on_c, 1, 69, 0
3, 2920, Note_on_c, 1, 71, 97
3, 3156, Note_on_c, 1, 71, 0
3, 3160, Note_on_c, 1, 66, 97
3, 3396, Note_on_c, 1, 66, 0
3, 3400, Note_on_c, 1, 71, 96
3, 3636, Note_on_c, 1, 71, 0
3, 3640, Note_on_c, 1, 69, 90
3, 3876, Note_on_c, 1, 69, 0
3, 3880, Note_on_c, 1, 67, 89
3, 4116, Note_on_c, 1, 67, 0
3, 4120, Note_on_c, 1, 71, 100
3, 4356, Note_on_c, 1, 71, 0
3, 4360, Note_on_c, 1, 76, 100
3, 5076, Note_on_c, 1, 76, 0
3, 5080, Note_on_c, 1, 78, 96
3, 5196, Note_on_c, 1, 78, 0
3, 5200, Note_on_c, 1, 76, 97
3, 5316, Note_on_c, 1, 76, 0
3, 5320, Note_on_c, 1, 74, 95
3, 5796, Note_on_c, 1, 74, 0
3, 5800, Note_on_c, 1, 76, 98
3, 6036, Note_on_c, 1, 76, 0
3, 6040, Note_on_c, 1, 74, 91
3, 6276, Note_on_c, 1, 74, 0
3, 6280, Note_on_c, 1, 76, 98
3, 6516, Note_on_c, 1, 76, 0
3, 6520, Note_on_c, 1, 78, 86
3, 6756, Note_on_c, 1, 78, 0
3, 6760, Note_on_c, 1, 79, 93
3, 6996, Note_on_c, 1, 79, 0
3, 7000, Note_on_c, 1, 74, 85
3, 7236, Note_on_c, 1, 74, 0
3, 7240, Note_on_c, 1, 79, 96
3, 7476, Note_on_c, 1, 79, 0
3, 7480, Note_on_c, 1, 78, 97
3, 7716, Note_on_c, 1, 78, 0
3, 7720, Note_on_c, 1, 76, 96
3, 7956, Note_on_c, 1, 76, 0
3, 7960, Note_on_c, 1, 78, 86
3, 8076, Note_on_c, 1, 78, 0
3, 8080, Note_on_c, 1, 79, 104
3, 8196, Note_on_c, 1, 79, 0
3, 8200, Note_on_c, 1, 81, 100
3, 8916, Note_on_c, 1, 81, 0
3, 8920, Note_on_c, 1, 79, 97
3, 9036, Note_on_c, 1, 79, 0
3, 9040, Note_on_c, 1, 78, 97
3, 9156, Note_on_c, 1, 78, 0
3, 9160, Note_on_c, 1, 79, 86
3, 9396, Note_on_c, 1, 79, 0
3, 9400, Note_on_c, 1, 67, 78
3, 9636, Note_on_c, 1, 67, 0
3, 9640, Note_on_c, 1, 69, 84
3, 9876, Note_on_c, 1, 69, 0
3, 9880, Note_on_c, 1, 67, 82
3, 10116, Note_on_c, 1, 67, 0
3, 10120, Note_on_c, 1, 69, 91
3, 10356, Note_on_c, 1, 69, 0
3, 10360, Note_on_c, 1, 71, 95
3, 10596, Note_on_c, 1, 71, 0
3, 10600, Note_on_c, 1, 72, 96
3, 10836, Note_on_c, 1, 72, 0
3, 10840, Note_on_c, 1, 67, 91
3, 11076, Note_on_c, 1, 67, 0
3, 11080, Note_on_c, 1, 72, 104
3, 11316, Note_on_c, 1, 72, 0
3, 11320, Note_on_c, 1, 71, 101
3, 11556, Note_on_c, 1, 71, 0
3, 11560, Note_on_c, 1, 69, 93
3, 11796, Note_on_c, 1, 69, 0
3, 11800, Note_on_c, 1, 71, 96
3, 11916, Note_on_c, 1, 71, 0
3, 11920, Note_on_c, 1, 73, 102
3, 12036, Note_on_c, 1, 73, 0
3, 12040, Note_on_c, 1, 74, 102
3, 12756, Note_on_c, 1, 74, 0
3, 12760, Note_on_c, 1, 73, 117
3, 12876, Note_on_c, 1, 73, 0
3, 12880, Note_on_c, 1, 71, 97
3, 12996, Note_on_c, 1, 71, 0
3, 13000, Note_on_c, 1, 73, 94
3, 13116, Note_on_c, 1, 73, 0
3, 13120, Note_on_c, 1, 74, 102
3, 13236, Note_on_c, 1, 74, 0
3, 13240, Note_on_c, 1, 76, 109
3, 13716, Note_on_c, 1, 76, 0
3, 13720, Note_on_c, 1, 74, 98
3, 14196, Note_on_c, 1, 74, 0
3, 14200, Note_on_c, 1, 73, 90
3, 14436, Note_on_c, 1, 73, 0
3, 14440, Note_on_c, 1, 74, 78
3, 15400, Note_on_c, 1, 74, 0
3, 17320, Note_on_c, 1, 67, 77
3, 17556, Note_on_c, 1, 67, 0
3, 17560, Note_on_c, 1, 66, 74
3, 17796, Note_on_c, 1, 66, 0
3, 17800, Note_on_c, 1, 67, 73
3, 18036, Note_on_c, 1, 67, 0
3, 18040, Note_on_c, 1, 69, 70
3, 18276, Note_on_c, 1, 69, 0
3, 18280, Note_on_c, 1, 71, 81
3, 18516, Note_on_c, 1, 71, 0
3, 18520, Note_on_c, 1, 66, 82
3, 18756, Note_on_c, 1, 66, 0
3, 18760, Note_on_c, 1, 71, 80
3, 18996, Note_on_c, 1, 71, 0
3, 19000, Note_on_c, 1, 69, 72
3, 19236, Note_on_c, 1, 69, 0
3, 19240, Note_on_c, 1, 67, 67
3, 19476, Note_on_c, 1, 67, 0
3, 19480, Note_on_c, 1, 71, 85
3, 19716, Note_on_c, 1, 71, 0
3, 19720, Note_on_c, 1, 76, 90
3, 20436, Note_on_c, 1, 76, 0
3, 20440, Note_on_c, 1, 78, 89
3, 20556, Note_on_c, 1, 78, 0
3, 20560, Note_on_c, 1, 76, 90
3, 20676, Note_on_c, 1, 76, 0
3, 20680, Note_on_c, 1, 74, 78
3, 21156, Note_on_c, 1, 74, 0
3, 21160, Note_on_c, 1, 76, 81
3, 21396, Note_on_c, 1, 76, 0
3, 21400, Note_on_c, 1, 74, 66
3, 21636, Note_on_c, 1, 74, 0
3, 21640, Note_on_c, 1, 76, 81
3, 21876, Note_on_c, 1, 76, 0
3, 21880, Note_on_c, 1, 78, 72
3, 22116, Note_on_c, 1, 78, 0
3, 22120, Note_on_c, 1, 79, 83
3, 22356, Note_on_c, 1, 79, 0
3, 22360, Note_on_c, 1, 74, 75
3, 22596, Note_on_c, 1, 74, 0
3, 22600, Note_on_c, 1, 79, 91
3, 22836, Note_on_c, 1, 79, 0
3, 22840, Note_on_c, 1, 78, 92
3, 23076, Note_on_c, 1, 78, 0
3, 23080, Note_on_c, 1, 76, 80
3, 23316, Note_on_c, 1, 76, 0
3, 23320, Note_on_c, 1, 78, 75
3, 23436, Note_on_c, 1, 78, 0
3, 23440, Note_on_c, 1, 79, 90
3, 23556, Note_on_c, 1, 79, 0
3, 23560, Note_on_c, 1, 81, 95
3, 24276, Note_on_c, 1, 81, 0
3, 24280, Note_on_c, 1, 79, 80
3, 24396, Note_on_c, 1, 79, 0
3, 24400, Note_on_c, 1, 78, 74
3, 24516, Note_on_c, 1, 78, 0
3, 24520, Note_on_c, 1, 79, 81
3, 24756, Note_on_c, 1, 79, 0
3, 24760, Note_on_c, 1, 67, 84
3, 24996, Note_on_c, 1, 67, 0
3, 25000, Note_on_c, 1, 69, 73
3, 25236, Note_on_c, 1, 69, 0
3, 25240, Note_on_c, 1, 67, 70
3, 25476, Note_on_c, 1, 67, 0
3, 25480, Note_on_c, 1, 69, 75
3, 25716, Note_on_c, 1, 69, 0
3, 25720, Note_on_c, 1, 71, 80
3, 25956, Note_on_c, 1, 71, 0
3, 25960, Note_on_c, 1, 72, 85
3, 26196, Note_on_c, 1, 72, 0
3, 26200, Note_on_c, 1, 67, 81
3, 26436, Note_on_c, 1, 67, 0
3, 26440, Note_on_c, 1, 72, 88
3, 26676, Note_on_c, 1, 72, 0
3, 26680, Note_on_c, 1, 71, 86
3, 26916, Note_on_c, 1, 71, 0
3, 26920, Note_on_c, 1, 69, 78
3, 27156, Note_on_c, 1, 69, 0
3, 27160, Note_on_c, 1, 71, 83
3, 27276, Note_on_c, 1, 71, 0
3, 27280, Note_on_c, 1, 73, 93
3, 27396, Note_on_c, 1, 73, 0
3, 27400, Note_on_c, 1, 74, 90
3, 28116, Note_on_c, 1, 74, 0
3, 28120, Note_on_c, 1, 73, 102
3, 28236, Note_on_c, 1, 73, 0
3, 28240, Note_on_c, 1, 71, 91
3, 28356, Note_on_c, 1, 71, 0
3, 28360, Note_on_c, 1, 73, 88
3, 28476, Note_on_c, 1, 73, 0
3, 28480, Note_on_c, 1, 74, 92
3, 28596, Note_on_c, 1, 74, 0
3, 28600, Note_on_c, 1, 76, 86
3, 29076, Note_on_c, 1, 76, 0
3, 29080, Note_on_c, 1, 74, 93
3, 29556, Note_on_c, 1, 74, 0
3, 29560, Note_on_c, 1, 73, 70
3, 29796, Note_on_c, 1, 73, 0
3, 29800, Note_on_c, 1, 74, 73
3, 30760, Note_on_c, 1, 74, 0
3, 32680, Note_on_c, 1, 74, 98
3, 32916, Note_on_c, 1, 74, 0
3, 32920, Note_on_c, 1, 71, 91
3, 33156, Note_on_c, 1, 71, 0
3, 33160, Note_on_c, 1, 73, 99
3, 33396, Note_on_c, 1, 73, 0
3, 33400, Note_on_c, 1, 75, 90
3, 33636, Note_on_c, 1, 75, 0
3, 33640, Note_on_c, 1, 76, 97
3, 33876, Note_on_c, 1, 76, 0
3, 33880, Note_on_c, 1, 71, 86
3, 34116, Note_on_c, 1, 71, 0
3, 34120, Note_on_c, 1, 76, 95
3, 34356, Note_on_c, 1, 76, 0
3, 34360, Note_on_c, 1, 78, 82
3, 34596, Note_on_c, 1, 78, 0
3, 34600, Note_on_c, 1, 79, 97
3, 34836, Note_on_c, 1, 79, 0
3, 34840, Note_on_c, 1, 73, 104
3, 35076, Note_on_c, 1, 73, 0
3, 35080, Note_on_c, 1, 77, 96
3, 35796, Note_on_c, 1, 77, 0
3, 35800, Note_on_c, 1, 76, 85
3, 35920, Note_on_c, 1, 76, 0
3, 35920, Note_on_c, 1, 75, 85
3, 36040, Note_on_c, 1, 75, 0
3, 36040, Note_on_c, 1, 76, 85
3, 36280, Note_on_c, 1, 76, 0
3, 36760, Note_on_c, 1, 72, 85
3, 37240, Note_on_c, 1, 72, 0
3, 37240, Note_on_c, 1, 71, 85
3, 37360, Note_on_c, 1, 71, 0
3, 37360, Note_on_c, 1, 69, 85
3, 37480, Note_on_c, 1, 69, 0
3, 37480, Note_on_c, 1, 67, 100
3, 37596, Note_on_c, 1, 67, 0
3, 37600, Note_on_c, 1, 66, 95
3, 37716, Note_on_c, 1, 66, 0
3, 37720, Note_on_c, 1, 64, 80
3, 37836, Note_on_c, 1, 64, 0
3, 37840, Note_on_c, 1, 63, 73
3, 37960, Note_on_c, 1, 63, 0
3, 37960, Note_on_c, 1, 64, 73
3, 38080, Note_on_c, 1, 64, 0
3, 38080, Note_on_c, 1, 66, 61
3, 38196, Note_on_c, 1, 66, 0
3, 38200, Note_on_c, 1, 67, 92
3, 38316, Note_on_c, 1, 67, 0
3, 38320, Note_on_c, 1, 64, 92
3, 38436, Note_on_c, 1, 64, 0
3, 38440, Note_on_c, 1, 62, 83
3, 38560, Note_on_c, 1, 62, 0
3, 38560, Note_on_c, 1, 60, 67
3, 38800, Note_on_c, 1, 60, 0
3, 38800, Note_on_c, 1, 62, 71
3, 38916, Note_on_c, 1, 62, 0
3, 38920, Note_on_c, 1, 59, 82
3, 38980, Note_on_c, 1, 59, 0
3, 38980, Note_on_c, 1, 60, 82
3, 39040, Note_on_c, 1, 60, 0
3, 39040, Note_on_c, 1, 59, 82
3, 39400, Note_on_c, 1, 59, 0
3, 39400, Note_on_c, 1, 60, 74
3, 39640, Note_on_c, 1, 60, 0
3, 39880, Note_on_c, 1, 67, 74
3, 40600, Note_on_c, 1, 67, 0
3, 40600, Note_on_c, 1, 66, 119
3, 41076, Note_on_c, 1, 66, 0
3, 41080, Note_on_c, 1, 64, 102
3, 41316, Note_on_c, 1, 64, 0
3, 41320, Note_on_c, 1, 66, 94
3, 41556, Note_on_c, 1, 66, 0
3, 41560, Note_on_c, 1, 69, 89
3, 41676, Note_on_c, 1, 69, 0
3, 41680, Note_on_c, 1, 67, 89
3, 41796, Note_on_c, 1, 67, 0
3, 41800, Note_on_c, 1, 69, 81
3, 41916, Note_on_c, 1, 69, 0
3, 41920, Note_on_c, 1, 72, 96
3, 42036, Note_on_c, 1, 72, 0
3, 42040, Note_on_c, 1, 71, 78
3, 42156, Note_on_c, 1, 71, 0
3, 42160, Note_on_c, 1, 69, 82
3, 42276, Note_on_c, 1, 69, 0
3, 42280, Note_on_c, 1, 67, 97
3, 42756, Note_on_c, 1, 67, 0
3, 42760, Note_on_c, 1, 69, 106
3, 43236, Note_on_c, 1, 69, 0
3, 43240, Note_on_c, 1, 71, 109
3, 44436, Note_on_c, 1, 71, 0
3, 44440, Note_on_c, 1, 76, 96
3, 44676, Note_on_c, 1, 76, 0
3, 44680, Note_on_c, 1, 74, 91
3, 44916, Note_on_c, 1, 74, 0
3, 44920, Note_on_c, 1, 72, 96
3, 45156, Note_on_c, 1, 72, 0
3, 45160, Note_on_c, 1, 71, 80
3, 46120, Note_on_c, 1, 71, 0
3, 47520, End_track
4, 0, Start_track
4, 0, Title_t, "goldberg.mid"
4, 40, Note_on_c, 3, 43, 106
4, 516, Note_on_c, 3, 43, 0
4, 520, Note_on_c, 3, 55, 102
4, 1236, Note_on_c, 3, 55, 0
4, 1240, Note_on_c, 3, 54, 93
4, 1356, Note_on_c, 3, 54, 0
4, 1360, Note_on_c, 3, 52, 85
4, 1476, Note_on_c, 3, 52, 0
4, 1480, Note_on_c, 3, 54, 86
4, 1716, Note_on_c, 3, 54, 0
4, 1720, Note_on_c, 3, 50, 90
4, 1956, Note_on_c, 3, 50, 0
4, 1960, Note_on_c, 3, 55, 90
4, 2196, Note_on_c, 3, 55, 0
4, 2200, Note_on_c, 3, 57, 83
4, 2436, Note_on_c, 3, 57, 0
4, 2440, Note_on_c, 3, 59, 86
4, 2676, Note_on_c, 3, 59, 0
4, 2680, Note_on_c, 3, 60, 78
4, 2916, Note_on_c, 3, 60, 0
4, 2920, Note_on_c, 3, 62, 61
4, 3636, Note_on_c, 3, 62, 0
4, 3640, Note_on_c, 3, 63, 82
4, 3876, Note_on_c, 3, 63, 0
4, 3880, Note_on_c, 3, 64, 85
4, 4476, Note_on_c, 3, 64, 0
4, 4600, Note_on_c, 3, 60, 82
4, 4836, Note_on_c, 3, 60, 0
4, 4840, Note_on_c, 3, 55, 84
4, 5076, Note_on_c, 3, 55, 0
4, 5080, Note_on_c, 3, 62, 93
4, 5316, Note_on_c, 3, 62, 0
4, 5320, Note_on_c, 3, 67, 90
4, 5556, Note_on_c, 3, 67, 0
4, 5560, Note_on_c, 3, 69, 71
4, 5676, Note_on_c, 3, 69, 0
4, 5680, Note_on_c, 3, 71, 68
4, 5796, Note_on_c, 3, 71, 0
4, 5800, Note_on_c, 3, 72, 81
4, 6036, Note_on_c, 3, 72, 0
4, 6040, Note_on_c, 3, 71, 75
4, 6276, Note_on_c, 3, 71, 0
4, 6280, Note_on_c, 3, 69, 66
4, 6516, Note_on_c, 3, 69, 0
4, 6520, Note_on_c, 3, 74, 85
4, 6756, Note_on_c, 3, 74, 0
4, 6760, Note_on_c, 3, 67, 65
4, 7716, Note_on_c, 3, 67, 0
4, 7960, Note_on_c, 3, 55, 102
4, 8436, Note_on_c, 3, 55, 0
4, 8440, Note_on_c, 3, 54, 108
4, 8676, Note_on_c, 3, 54, 0
4, 8680, Note_on_c, 3, 52, 89
4, 8916, Note_on_c, 3, 52, 0
4, 8920, Note_on_c, 3, 64, 101
4, 9036, Note_on_c, 3, 64, 0
4, 9040, Note_on_c, 3, 63, 88
4, 9156, Note_on_c, 3, 63, 0
4, 9160, Note_on_c, 3, 64, 96
4, 9636, Note_on_c, 3, 64, 0
4, 9880, Note_on_c, 3, 52, 107
4, 10356, Note_on_c, 3, 52, 0
4, 10360, Note_on_c, 3, 50, 91
4, 10596, Note_on_c, 3, 50, 0
4, 10600, Note_on_c, 3, 48, 97
4, 10836, Note_on_c, 3, 48, 0
4, 10840, Note_on_c, 3, 60, 93
4, 10956, Note_on_c, 3, 60, 0
4, 10960, Note_on_c, 3, 59, 84
4, 11076, Note_on_c, 3, 59, 0
4, 11080, Note_on_c, 3, 60, 83
4, 11196, Note_on_c, 3, 60, 0
4, 11200, Note_on_c, 3, 62, 82
4, 11316, Note_on_c, 3, 62, 0
4, 11320, Note_on_c, 3, 64, 74
4, 11436, Note_on_c, 3, 64, 0
4, 11440, Note_on_c, 3, 62, 78
4, 11556, Note_on_c, 3, 62, 0
4, 11560, Note_on_c, 3, 61, 89
4, 11676, Note_on_c, 3, 61, 0
4, 11680, Note_on_c, 3, 57, 82
4, 11796, Note_on_c, 3, 57, 0
4, 11800, Note_on_c, 3, 62, 81
4, 11916, Note_on_c, 3, 62, 0
4, 11920, Note_on_c, 3, 61, 82
4, 12036, Note_on_c, 3, 61, 0
4, 12040, Note_on_c, 3, 59, 78
4, 12156, Note_on_c, 3, 59, 0
4, 12160, Note_on_c, 3, 57, 77
4, 12276, Note_on_c, 3, 57, 0
4, 12280, Note_on_c, 3, 59, 78
4, 12396, Note_on_c, 3, 59, 0
4, 12400, Note_on_c, 3, 56, 77
4, 12516, Note_on_c, 3, 56, 0
4, 12520, Note_on_c, 3, 57, 75
4, 12636, Note_on_c, 3, 57, 0
4, 12640, Note_on_c, 3, 59, 74
4, 12756, Note_on_c, 3, 59, 0
4, 12760, Note_on_c, 3, 57, 74
4, 12876, Note_on_c, 3, 57, 0
4, 12880, Note_on_c, 3, 55, 82
4, 12996, Note_on_c, 3, 55, 0
4, 13000, Note_on_c, 3, 54, 82
4, 13116, Note_on_c, 3, 54, 0
4, 13120, Note_on_c, 3, 52, 93
4, 13236, Note_on_c, 3, 52, 0
4, 13240, Note_on_c, 3, 50, 92
4, 13356, Note_on_c, 3, 50, 0
4, 13360, Note_on_c, 3, 49, 89
4, 13476, Note_on_c, 3, 49, 0
4, 13480, Note_on_c, 3, 50, 85
4, 13596, Note_on_c, 3, 50, 0
4, 13600, Note_on_c, 3, 49, 94
4, 13716, Note_on_c, 3, 49, 0
4, 13720, Note_on_c, 3, 47, 88
4, 13836, Note_on_c, 3, 47, 0
4, 13840, Note_on_c, 3, 45, 72
4, 13956, Note_on_c, 3, 45, 0
4, 13960, Note_on_c, 3, 43, 80
4, 14076, Note_on_c, 3, 43, 0
4, 14080, Note_on_c, 3, 40, 56
4, 14196, Note_on_c, 3, 40, 0
4, 14200, Note_on_c, 3, 45, 86
4, 14440, Note_on_c, 3, 45, 0
4, 14440, Note_on_c, 3, 38, 95
4, 14676, Note_on_c, 3, 38, 0
4, 14680, Note_on_c, 3, 42, 82
4, 14796, Note_on_c, 3, 42, 0
4, 14800, Note_on_c, 3, 45, 84
4, 14916, Note_on_c, 3, 45, 0
4, 14920, Note_on_c, 3, 50, 77
4, 15400, Note_on_c, 3, 50, 0
4, 15400, Note_on_c, 3, 43, 55
4, 15876, Note_on_c, 3, 43, 0
4, 15880, Note_on_c, 3, 55, 49
4, 16596, Note_on_c, 3, 55, 0
4, 16600, Note_on_c, 3, 54, 59
4, 16716, Note_on_c, 3, 54, 0
4, 16720, Note_on_c, 3, 52, 65
4, 16836, Note_on_c, 3, 52, 0
4, 16840, Note_on_c, 3, 54, 72
4, 17076, Note_on_c, 3, 54, 0
4, 17080, Note_on_c, 3, 50, 72
4, 17316, Note_on_c, 3, 50, 0
4, 17320, Note_on_c, 3, 55, 55
4, 17556, Note_on_c, 3, 55, 0
4, 17560, Note_on_c, 3, 57, 75
4, 17796, Note_on_c, 3, 57, 0
4, 17800, Note_on_c, 3, 59, 68
4, 18036, Note_on_c, 3, 59, 0
4, 18040, Note_on_c, 3, 60, 71
4, 18276, Note_on_c, 3, 60, 0
4, 18280, Note_on_c, 3, 62, 55
4, 18996, Note_on_c, 3, 62, 0
4, 19000, Note_on_c, 3, 63, 71
4, 19236, Note_on_c, 3, 63, 0
4, 19240, Note_on_c, 3, 64, 73
4, 19960, Note_on_c, 3, 64, 0
4, 19960, Note_on_c, 3, 60, 95
4, 20200, Note_on_c, 3, 60, 0
4, 20200, Note_on_c, 3, 55, 68
4, 20436, Note_on_c, 3, 55, 0
4, 20440, Note_on_c, 3, 62, 86
4, 20676, Note_on_c, 3, 62, 0
4, 20680, Note_on_c, 3, 67, 81
4, 20916, Note_on_c, 3, 67, 0
4, 20920, Note_on_c, 3, 69, 66
4, 21036, Note_on_c, 3, 69, 0
4, 21040, Note_on_c, 3, 71, 72
4, 21156, Note_on_c, 3, 71, 0
4, 21160, Note_on_c, 3, 72, 85
4, 21396, Note_on_c, 3, 72, 0
4, 21400, Note_on_c, 3, 71, 74
4, 21636, Note_on_c, 3, 71, 0
4, 21640, Note_on_c, 3, 69, 70
4, 21876, Note_on_c, 3, 69, 0
4, 21880, Note_on_c, 3, 74, 88
4, 22116, Note_on_c, 3, 74, 0
4, 22120, Note_on_c, 3, 67, 71
4, 23316, Note_on_c, 3, 67, 0
4, 23320, Note_on_c, 3, 55, 77
4, 23796, Note_on_c, 3, 55, 0
4, 23800, Note_on_c, 3, 54, 89
4, 24036, Note_on_c, 3, 54, 0
4, 24040, Note_on_c, 3, 52, 91
4, 24276, Note_on_c, 3, 52, 0
4, 24280, Note_on_c, 3, 64, 90
4, 24396, Note_on_c, 3, 64, 0
4, 24400, Note_on_c, 3, 63, 86
4, 24516, Note_on_c, 3, 63, 0
4, 24520, Note_on_c, 3, 64, 95
4, 25236, Note_on_c, 3, 64, 0
4, 25240, Note_on_c, 3, 52, 75
4, 25716, Note_on_c, 3, 52, 0
4, 25720, Note_on_c, 3, 50, 66
4, 25956, Note_on_c, 3, 50, 0
4, 25960, Note_on_c, 3, 48, 80
4, 26196, Note_on_c, 3, 48, 0
4, 26200, Note_on_c, 3, 60, 72
4, 26316, Note_on_c, 3, 60, 0
4, 26320, Note_on_c, 3, 59, 90
4, 26436, Note_on_c, 3, 59, 0
4, 26440, Note_on_c, 3, 60, 81
4, 26556, Note_on_c, 3, 60, 0
4, 26560, Note_on_c, 3, 62, 60
4, 26676, Note_on_c, 3, 62, 0
4, 26680, Note_on_c, 3, 64, 80
4, 26796, Note_on_c, 3, 64, 0
4, 26800, Note_on_c, 3, 62, 68
4, 26916, Note_on_c, 3, 62, 0
4, 26920, Note_on_c, 3, 61, 77
4, 27036, Note_on_c, 3, 61, 0
4, 27040, Note_on_c, 3, 57, 77
4, 27160, Note_on_c, 3, 57, 0
4, 27160, Note_on_c, 3, 62, 76
4, 27276, Note_on_c, 3, 62, 0
4, 27280, Note_on_c, 3, 61, 75
4, 27396, Note_on_c, 3, 61, 0
4, 27400, Note_on_c, 3, 59, 76
4, 27516, Note_on_c, 3, 59, 0
4, 27520, Note_on_c, 3, 57, 74
4, 27640, Note_on_c, 3, 57, 0
4, 27640, Note_on_c, 3, 59, 68
4, 27756, Note_on_c, 3, 59, 0
4, 27760, Note_on_c, 3, 56, 68
4, 27876, Note_on_c, 3, 56, 0
4, 27880, Note_on_c, 3, 57, 78
4, 27996, Note_on_c, 3, 57, 0
4, 28000, Note_on_c, 3, 59, 82
4, 28116, Note_on_c, 3, 59, 0
4, 28120, Note_on_c, 3, 57, 82
4, 28240, Note_on_c, 3, 57, 0
4, 28240, Note_on_c, 3, 55, 68
4, 28356, Note_on_c, 3, 55, 0
4, 28360, Note_on_c, 3, 54, 79
4, 28476, Note_on_c, 3, 54, 0
4, 28480, Note_on_c, 3, 52, 86
4, 28596, Note_on_c, 3, 52, 0
4, 28600, Note_on_c, 3, 50, 81
4, 28716, Note_on_c, 3, 50, 0
4, 28720, Note_on_c, 3, 49, 89
4, 28836, Note_on_c, 3, 49, 0
4, 28840, Note_on_c, 3, 50, 84
4, 28956, Note_on_c, 3, 50, 0
4, 28960, Note_on_c, 3, 49, 92
4, 29076, Note_on_c, 3, 49, 0
4, 29080, Note_on_c, 3, 47, 89
4, 29196, Note_on_c, 3, 47, 0
4, 29200, Note_on_c, 3, 45, 92
4, 29316, Note_on_c, 3, 45, 0
4, 29320, Note_on_c, 3, 43, 74
4, 29436, Note_on_c, 3, 43, 0
4, 29440, Note_on_c, 3, 40, 47
4, 29556, Note_on_c, 3, 40, 0
4, 29560, Note_on_c, 3, 45, 77
4, 29796, Note_on_c, 3, 45, 0
4, 29800, Note_on_c, 3, 38, 61
4, 30040, Note_on_c, 3, 38, 0
4, 30040, Note_on_c, 3, 42, 66
4, 30156, Note_on_c, 3, 42, 0
4, 30160, Note_on_c, 3, 45, 72
4, 30276, Note_on_c, 3, 45, 0
4, 30280, Note_on_c, 3, 50, 62
4, 30760, Note_on_c, 3, 50, 0
4, 30760, Note_on_c, 3, 50, 100
4, 30996, Note_on_c, 3, 50, 0
4, 31000, Note_on_c, 3, 62, 113
4, 31476, Note_on_c, 3, 62, 0
4, 31480, Note_on_c, 3, 60, 85
4, 31716, Note_on_c, 3, 60, 0
4, 31720, Note_on_c, 3, 59, 72
4, 31836, Note_on_c, 3, 59, 0
4, 31840, Note_on_c, 3, 57, 64
4, 31956, Note_on_c, 3, 57, 0
4, 31960, Note_on_c, 3, 59, 76
4, 32076, Note_on_c, 3, 59, 0
4, 32080, Note_on_c, 3, 60, 69
4, 32196, Note_on_c, 3, 60, 0
4, 32200, Note_on_c, 3, 59, 65
4, 32316, Note_on_c, 3, 59, 0
4, 32320, Note_on_c, 3, 57, 59
4, 32436, Note_on_c, 3, 57, 0
4, 32440, Note_on_c, 3, 55, 62
4, 32556, Note_on_c, 3, 55, 0
4, 32560, Note_on_c, 3, 54, 60
4, 32676, Note_on_c, 3, 54, 0
4, 32680, Note_on_c, 3, 55, 81
4, 32916, Note_on_c, 3, 55, 0
4, 32920, Note_on_c, 3, 67, 109
4, 33400, Note_on_c, 3, 67, 0
4, 33400, Note_on_c, 3, 66, 81
4, 33636, Note_on_c, 3, 66, 0
4, 33640, Note_on_c, 3, 64, 97
4, 33756, Note_on_c, 3, 64, 0
4, 33760, Note_on_c, 3, 63, 54
4, 33876, Note_on_c, 3, 63, 0
4, 33880, Note_on_c, 3, 64, 81
4, 33996, Note_on_c, 3, 64, 0
4, 34000, Note_on_c, 3, 66, 82
4, 34116, Note_on_c, 3, 66, 0
4, 34120, Note_on_c, 3, 64, 63
4, 34236, Note_on_c, 3, 64, 0
4, 34240, Note_on_c, 3, 62, 65
4, 34356, Note_on_c, 3, 62, 0
4, 34360, Note_on_c, 3, 60, 76
4, 34476, Note_on_c, 3, 60, 0
4, 34480, Note_on_c, 3, 59, 78
4, 34596, Note_on_c, 3, 59, 0
4, 34600, Note_on_c, 3, 58, 78
4, 34716, Note_on_c, 3, 58, 0
4, 34720, Note_on_c, 3, 64, 78
4, 34836, Note_on_c, 3, 64, 0
4, 34840, Note_on_c, 3, 66, 78
4, 34956, Note_on_c, 3, 66, 0
4, 34960, Note_on_c, 3, 67, 78
4, 35076, Note_on_c, 3, 67, 0
4, 35080, Note_on_c, 3, 69, 78
4, 35320, Note_on_c, 3, 69, 0
4, 35320, Note_on_c, 3, 57, 78
4, 35560, Note_on_c, 3, 57, 0
4, 35560, Note_on_c, 3, 55, 77
4, 35680, Note_on_c, 3, 55, 0
4, 35680, Note_on_c, 3, 57, 93
4, 35796, Note_on_c, 3, 57, 0
4, 35800, Note_on_c, 3, 59, 73
4, 35916, Note_on_c, 3, 59, 0
4, 35920, Note_on_c, 3, 55, 73
4, 36036, Note_on_c, 3, 55, 0
4, 36040, Note_on_c, 3, 52, 81
4, 36156, Note_on_c, 3, 52, 0
4, 36160, Note_on_c, 3, 54, 90
4, 36276, Note_on_c, 3, 54, 0
4, 36280, Note_on_c, 3, 55, 82
4, 36396, Note_on_c, 3, 55, 0
4, 36400, Note_on_c, 3, 52, 71
4, 36516, Note_on_c, 3, 52, 0
4, 36520, Note_on_c, 3, 60, 81
4, 36756, Note_on_c, 3, 60, 0
4, 36760, Note_on_c, 3, 57, 88
4, 36996, Note_on_c, 3, 57, 0
4, 37000, Note_on_c, 3, 59, 92
4, 37236, Note_on_c, 3, 59, 0
4, 37240, Note_on_c, 3, 47, 92
4, 37476, Note_on_c, 3, 47, 0
4, 37480, Note_on_c, 3, 40, 115
4, 37960, Note_on_c, 3, 40, 0
4, 38200, Note_on_c, 3, 52, 123
4, 38676, Note_on_c, 3, 52, 0
4, 38680, Note_on_c, 3, 48, 92
4, 38916, Note_on_c, 3, 48, 0
4, 38920, Note_on_c, 3, 50, 83
4, 39156, Note_on_c, 3, 50, 0
4, 39160, Note_on_c, 3, 52, 81
4, 39396, Note_on_c, 3, 52, 0
4, 39400, Note_on_c, 3, 45, 88
4, 39640, Note_on_c, 3, 45, 0
4, 39640, Note_on_c, 3, 57, 76
4, 39880, Note_on_c, 3, 57, 0
4, 39880, Note_on_c, 3, 52, 82
4, 40000, Note_on_c, 3, 52, 0
4, 40000, Note_on_c, 3, 50, 80
4, 40116, Note_on_c, 3, 50, 0
4, 40120, Note_on_c, 3, 52, 81
4, 40236, Note_on_c, 3, 52, 0
4, 40240, Note_on_c, 3, 54, 78
4, 40356, Note_on_c, 3, 54, 0
4, 40360, Note_on_c, 3, 55, 66
4, 40476, Note_on_c, 3, 55, 0
4, 40480, Note_on_c, 3, 57, 81
4, 40596, Note_on_c, 3, 57, 0
4, 40600, Note_on_c, 3, 59, 80
4, 40716, Note_on_c, 3, 59, 0
4, 40720, Note_on_c, 3, 55, 69
4, 40836, Note_on_c, 3, 55, 0
4, 40840, Note_on_c, 3, 57, 75
4, 40956, Note_on_c, 3, 57, 0
4, 40960, Note_on_c, 3, 54, 77
4, 41076, Note_on_c, 3, 54, 0
4, 41080, Note_on_c, 3, 55, 75
4, 41196, Note_on_c, 3, 55, 0
4, 41200, Note_on_c, 3, 57, 74
4, 41316, Note_on_c, 3, 57, 0
4, 41320, Note_on_c, 3, 50, 77
4, 41436, Note_on_c, 3, 50, 0
4, 41440, Note_on_c, 3, 52, 78
4, 41556, Note_on_c, 3, 52, 0
4, 41560, Note_on_c, 3, 54, 88
4, 41676, Note_on_c, 3, 54, 0
4, 41680, Note_on_c, 3, 55, 73
4, 41796, Note_on_c, 3, 55, 0
4, 41800, Note_on_c, 3, 54, 84
4, 41916, Note_on_c, 3, 54, 0
4, 41920, Note_on_c, 3, 52, 81
4, 42036, Note_on_c, 3, 52, 0
4, 42040, Note_on_c, 3, 50, 83
4, 42156, Note_on_c, 3, 50, 0
4, 42160, Note_on_c, 3, 48, 84
4, 42276, Note_on_c, 3, 48, 0
4, 42280, Note_on_c, 3, 47, 73
4, 42396, Note_on_c, 3, 47, 0
4, 42400, Note_on_c, 3, 43, 73
4, 42516, Note_on_c, 3, 43, 0
4, 42520, Note_on_c, 3, 45, 85
4, 42636, Note_on_c, 3, 45, 0
4, 42640, Note_on_c, 3, 47, 95
4, 42756, Note_on_c, 3, 47, 0
4, 42760, Note_on_c, 3, 48, 81
4, 42876, Note_on_c, 3, 48, 0
4, 42880, Note_on_c, 3, 50, 85
4, 42996, Note_on_c, 3, 50, 0
4, 43000, Note_on_c, 3, 52, 93
4, 43116, Note_on_c, 3, 52, 0
4, 43120, Note_on_c, 3, 54, 96
4, 43236, Note_on_c, 3, 54, 0
4, 43240, Note_on_c, 3, 55, 88
4, 43356, Note_on_c, 3, 55, 0
4, 43360, Note_on_c, 3, 57, 91
4, 43476, Note_on_c, 3, 57, 0
4, 43480, Note_on_c, 3, 59, 81
4, 43596, Note_on_c, 3, 59, 0
4, 43600, Note_on_c, 3, 57, 85
4, 43716, Note_on_c, 3, 57, 0
4, 43720, Note_on_c, 3, 55, 70
4, 43836, Note_on_c, 3, 55, 0
4, 43840, Note_on_c, 3, 54, 82
4, 43956, Note_on_c, 3, 54, 0
4, 43960, Note_on_c, 3, 52, 81
4, 44076, Note_on_c, 3, 52, 0
4, 44080, Note_on_c, 3, 50, 66
4, 44196, Note_on_c, 3, 50, 0
4, 44200, Note_on_c, 3, 48, 86
4, 44316, Note_on_c, 3, 48, 0
4, 44320, Note_on_c, 3, 47, 84
4, 44436, Note_on_c, 3, 47, 0
4, 44440, Note_on_c, 3, 48, 84
4, 44556, Note_on_c, 3, 48, 0
4, 44560, Note_on_c, 3, 45, 78
4, 44676, Note_on_c, 3, 45, 0
4, 44680, Note_on_c, 3, 50, 102
4, 44916, Note_on_c, 3, 50, 0
4, 44920, Note_on_c, 3, 38, 88
4, 45156, Note_on_c, 3, 38, 0
4, 45160, Note_on_c, 3, 43, 61
4, 45400, Note_on_c, 3, 43, 0
4, 45400, Note_on_c, 3, 47, 37
4, 45516, Note_on_c, 3, 47, 0
4, 45520, Note_on_c, 3, 50, 91
4, 45636, Note_on_c, 3, 50, 0
4, 45640, Note_on_c, 3, 55, 106
4, 46120, Note_on_c, 3, 55, 0
4, 47520, End_track
0, 0, End_of_file
