0, 0, Header, 1, 2, 240
1, 0, Start_track
1, 0, Time_signature, 3, 2, 24, 8
1, 0, Tempo, 1363636
1, 0, SMPTE_offset, 64, 0, 0, 0, 0
1, 22560, Tempo, 1428571
1, 22800, Tempo, 1714286
1, 22800, End_track
2, 0, Start_track
2, 0, Title_t, "Cello"
2, 0, Note_on_c, 0, 43, 64
2, 20, Note_on_c, 0, 50, 64
2, 35, Note_on_c, 0, 59, 64
2, 220, Note_off_c, 0, 59, 64
2, 230, Note_off_c, 0, 50, 64
2, 230, Note_off_c, 0, 43, 64
2, 240, Note_on_c, 0, 43, 64
2, 255, Note_on_c, 0, 52, 64
2, 270, Note_on_c, 0, 60, 64
2, 600, Note_off_c, 0, 60, 64
2, 600, Note_on_c, 0, 59, 64
2, 710, Note_off_c, 0, 52, 64
2, 710, Note_off_c, 0, 43, 64
2, 720, Note_off_c, 0, 59, 64
2, 720, Note_on_c, 0, 54, 64
2, 780, Note_off_c, 0, 54, 64
2, 780, Note_on_c, 0, 57, 64
2, 840, Note_off_c, 0, 57, 64
2, 840, Note_on_c, 0, 59, 64
2, 900, Note_off_c, 0, 59, 64
2, 900, Note_on_c, 0, 60, 64
2, 945, Note_off_c, 0, 60, 64
2, 960, Note_on_c, 0, 43, 64
2, 960, Note_on_c, 0, 60, 64
2, 975, Note_off_c, 0, 60, 64
2, 975, Note_on_c, 0, 50, 64
2, 975, Note_on_c, 0, 59, 64
2, 990, Note_off_c, 0, 59, 64
2, 990, Note_on_c, 0, 60, 64
2, 1005, Note_off_c, 0, 60, 64
2, 1005, Note_on_c, 0, 59, 64
2, 1020, Note_off_c, 0, 59, 64
2, 1020, Note_on_c, 0, 60, 64
2, 1035, Note_off_c, 0, 60, 64
2, 1035, Note_on_c, 0, 59, 64
2, 1050, Note_off_c, 0, 59, 64
2, 1050, Note_on_c, 0, 60, 64
2, 1065, Note_off_c, 0, 60, 64
2, 1065, Note_on_c, 0, 59, 64
2, 1080, Note_off_c, 0, 59, 64
2, 1080, Note_on_c, 0, 60, 64
2, 1099, Note_off_c, 0, 60, 64
2, 1099, Note_on_c, 0, 59, 64
2, 1119, Note_off_c, 0, 59, 64
2, 1119, Note_on_c, 0, 60, 64
2, 1139, Note_off_c, 0, 60, 64
2, 1139, Note_on_c, 0, 59, 64
2, 1159, Note_off_c, 0, 59, 64
2, 1159, Note_on_c, 0, 60, 64
2, 1179, Note_off_c, 0, 60, 64
2, 1179, Note_on_c, 0, 59, 64
2, 1199, Note_off_c, 0, 59, 64
2, 1200, Note_off_c, 0, 50, 64
2, 1200, Note_off_c, 0, 43, 64
2, 1200, Note_on_c, 0, 57, 64
2, 1320, Note_off_c, 0, 57, 64
2, 1320, Note_on_c, 0, 55, 64
2, 1440, Note_off_c, 0, 55, 64
2, 1440, Note_on_c, 0, 62, 64
2, 1560, Note_off_c, 0, 62, 64
2, 1560, Note_on_c, 0, 53, 64
2, 1680, Note_off_c, 0, 53, 64
2, 1680, Note_on_c, 0, 52, 64
2, 1860, Note_off_c, 0, 52, 64
2, 1860, Note_on_c, 0, 50, 64
2, 1879, Note_off_c, 0, 50, 64
2, 1879, Note_on_c, 0, 48, 64
2, 1899, Note_off_c, 0, 48, 64
2, 1899, Note_on_c, 0, 47, 64
2, 1919, Note_off_c, 0, 47, 64
2, 1920, Note_on_c, 0, 48, 64
2, 2040, Note_off_c, 0, 48, 64
2, 2040, Note_on_c, 0, 52, 64
2, 2160, Note_off_c, 0, 52, 64
2, 2160, Note_on_c, 0, 54, 64
2, 2220, Note_off_c, 0, 54, 64
2, 2220, Note_on_c, 0, 60, 64
2, 2280, Note_off_c, 0, 60, 64
2, 2280, Note_on_c, 0, 59, 64
2, 2340, Note_off_c, 0, 59, 64
2, 2340, Note_on_c, 0, 55, 64
2, 2400, Note_off_c, 0, 55, 64
2, 2400, Note_on_c, 0, 38, 64
2, 2400, Note_on_c, 0, 55, 64
2, 2415, Note_off_c, 0, 55, 64
2, 2415, Note_on_c, 0, 54, 64
2, 2420, Note_on_c, 0, 45, 64
2, 2430, Note_off_c, 0, 54, 64
2, 2430, Note_on_c, 0, 55, 64
2, 2445, Note_off_c, 0, 55, 64
2, 2445, Note_on_c, 0, 54, 64
2, 2460, Note_off_c, 0, 54, 64
2, 2460, Note_on_c, 0, 55, 64
2, 2475, Note_off_c, 0, 55, 64
2, 2475, Note_on_c, 0, 54, 64
2, 2490, Note_off_c, 0, 54, 64
2, 2490, Note_on_c, 0, 55, 64
2, 2505, Note_off_c, 0, 55, 64
2, 2505, Note_on_c, 0, 54, 64
2, 2520, Note_off_c, 0, 54, 64
2, 2520, Note_on_c, 0, 55, 64
2, 2539, Note_off_c, 0, 55, 64
2, 2539, Note_on_c, 0, 54, 64
2, 2559, Note_off_c, 0, 54, 64
2, 2559, Note_on_c, 0, 55, 64
2, 2579, Note_off_c, 0, 55, 64
2, 2579, Note_on_c, 0, 54, 64
2, 2599, Note_off_c, 0, 54, 64
2, 2599, Note_on_c, 0, 55, 64
2, 2619, Note_off_c, 0, 55, 64
2, 2619, Note_on_c, 0, 54, 64
2, 2639, Note_off_c, 0, 54, 64
2, 2640, Note_off_c, 0, 45, 64
2, 2640, Note_off_c, 0, 38, 64
2, 2640, Note_on_c, 0, 52, 64
2, 2760, Note_off_c, 0, 52, 64
2, 2760, Note_on_c, 0, 50, 64
2, 2880, Note_off_c, 0, 50, 64
2, 2880, Note_on_c, 0, 57, 64
2, 2940, Note_off_c, 0, 57, 64
2, 2940, Note_on_c, 0, 54, 64
2, 3000, Note_off_c, 0, 54, 64
2, 3000, Note_on_c, 0, 50, 64
2, 3060, Note_off_c, 0, 50, 64
2, 3060, Note_on_c, 0, 48, 64
2, 3120, Note_off_c, 0, 48, 64
2, 3120, Note_on_c, 0, 47, 64
2, 3300, Note_off_c, 0, 47, 64
2, 3300, Note_on_c, 0, 43, 64
2, 3360, Note_off_c, 0, 43, 64
2, 3360, Note_on_c, 0, 47, 64
2, 3420, Note_off_c, 0, 47, 64
2, 3420, Note_on_c, 0, 50, 64
2, 3480, Note_off_c, 0, 50, 64
2, 3480, Note_on_c, 0, 55, 64
2, 3540, Note_off_c, 0, 55, 64
2, 3540, Note_on_c, 0, 57, 64
2, 3600, Note_off_c, 0, 57, 64
2, 3600, Note_on_c, 0, 59, 64
2, 3660, Note_off_c, 0, 59, 64
2, 3660, Note_on_c, 0, 55, 64
2, 3720, Note_off_c, 0, 55, 64
2, 3720, Note_on_c, 0, 52, 64
2, 3780, Note_off_c, 0, 52, 64
2, 3780, Note_on_c, 0, 50, 64
2, 3825, Note_off_c, 0, 50, 64
2, 3840, Note_on_c, 0, 50, 64
2, 3855, Note_off_c, 0, 50, 64
2, 3855, Note_on_c, 0, 49, 64
2, 3870, Note_off_c, 0, 49, 64
2, 3870, Note_on_c, 0, 50, 64
2, 3885, Note_off_c, 0, 50, 64
2, 3885, Note_on_c, 0, 49, 64
2, 3900, Note_off_c, 0, 49, 64
2, 3900, Note_on_c, 0, 50, 64
2, 3915, Note_off_c, 0, 50, 64
2, 3915, Note_on_c, 0, 49, 64
2, 3930, Note_off_c, 0, 49, 64
2, 3930, Note_on_c, 0, 50, 64
2, 3945, Note_off_c, 0, 50, 64
2, 3945, Note_on_c, 0, 49, 64
2, 3960, Note_off_c, 0, 49, 64
2, 3960, Note_on_c, 0, 50, 64
2, 3975, Note_off_c, 0, 50, 64
2, 3975, Note_on_c, 0, 49, 64
2, 3990, Note_off_c, 0, 49, 64
2, 3990, Note_on_c, 0, 50, 64
2, 4005, Note_off_c, 0, 50, 64
2, 4005, Note_on_c, 0, 49, 64
2, 4020, Note_off_c, 0, 49, 64
2, 4020, Note_on_c, 0, 45, 64
2, 4050, Note_off_c, 0, 45, 64
2, 4050, Note_on_c, 0, 47, 64
2, 4080, Note_off_c, 0, 47, 64
2, 4080, Note_on_c, 0, 49, 64
2, 4140, Note_off_c, 0, 49, 64
2, 4140, Note_on_c, 0, 50, 64
2, 4200, Note_off_c, 0, 50, 64
2, 4200, Note_on_c, 0, 52, 64
2, 4260, Note_off_c, 0, 52, 64
2, 4260, Note_on_c, 0, 54, 64
2, 4320, Note_off_c, 0, 54, 64
2, 4320, Note_on_c, 0, 55, 64
2, 4380, Note_off_c, 0, 55, 64
2, 4380, Note_on_c, 0, 61, 64
2, 4440, Note_off_c, 0, 61, 64
2, 4440, Note_on_c, 0, 62, 64
2, 4500, Note_off_c, 0, 62, 64
2, 4500, Note_on_c, 0, 61, 64
2, 4560, Note_off_c, 0, 61, 64
2, 4560, Note_on_c, 0, 62, 64
2, 4620, Note_off_c, 0, 62, 64
2, 4620, Note_on_c, 0, 57, 64
2, 4680, Note_off_c, 0, 57, 64
2, 4680, Note_on_c, 0, 55, 64
2, 4740, Note_off_c, 0, 55, 64
2, 4740, Note_on_c, 0, 54, 64
2, 4800, Note_off_c, 0, 54, 64
2, 4800, Note_on_c, 0, 52, 64
2, 4860, Note_off_c, 0, 52, 64
2, 4860, Note_on_c, 0, 55, 64
2, 4920, Note_off_c, 0, 55, 64
2, 4920, Note_on_c, 0, 54, 64
2, 4980, Note_off_c, 0, 54, 64
2, 4980, Note_on_c, 0, 50, 64
2, 5040, Note_off_c, 0, 50, 64
2, 5040, Note_on_c, 0, 45, 64
2, 5100, Note_off_c, 0, 45, 64
2, 5100, Note_on_c, 0, 50, 64
2, 5160, Note_off_c, 0, 50, 64
2, 5160, Note_on_c, 0, 52, 64
2, 5220, Note_off_c, 0, 52, 64
2, 5220, Note_on_c, 0, 49, 64
2, 5280, Note_off_c, 0, 49, 64
2, 5280, Note_on_c, 0, 50, 64
2, 5520, Note_off_c, 0, 50, 64
2, 5520, Note_on_c, 0, 38, 64
2, 5760, Note_off_c, 0, 38, 64
2, 5760, Note_on_c, 0, 43, 64
2, 5780, Note_on_c, 0, 50, 64
2, 5795, Note_on_c, 0, 59, 64
2, 5980, Note_off_c, 0, 59, 64
2, 5990, Note_off_c, 0, 50, 64
2, 5990, Note_off_c, 0, 43, 64
2, 6000, Note_on_c, 0, 43, 64
2, 6015, Note_on_c, 0, 52, 64
2, 6030, Note_on_c, 0, 60, 64
2, 6360, Note_off_c, 0, 60, 64
2, 6360, Note_on_c, 0, 59, 64
2, 6470, Note_off_c, 0, 52, 64
2, 6470, Note_off_c, 0, 43, 64
2, 6480, Note_off_c, 0, 59, 64
2, 6480, Note_on_c, 0, 54, 64
2, 6540, Note_off_c, 0, 54, 64
2, 6540, Note_on_c, 0, 57, 64
2, 6600, Note_off_c, 0, 57, 64
2, 6600, Note_on_c, 0, 59, 64
2, 6660, Note_off_c, 0, 59, 64
2, 6660, Note_on_c, 0, 60, 64
2, 6705, Note_off_c, 0, 60, 64
2, 6720, Note_on_c, 0, 43, 64
2, 6720, Note_on_c, 0, 60, 64
2, 6735, Note_off_c, 0, 60, 64
2, 6735, Note_on_c, 0, 50, 64
2, 6735, Note_on_c, 0, 59, 64
2, 6750, Note_off_c, 0, 59, 64
2, 6750, Note_on_c, 0, 60, 64
2, 6765, Note_off_c, 0, 60, 64
2, 6765, Note_on_c, 0, 59, 64
2, 6780, Note_off_c, 0, 59, 64
2, 6780, Note_on_c, 0, 60, 64
2, 6795, Note_off_c, 0, 60, 64
2, 6795, Note_on_c, 0, 59, 64
2, 6810, Note_off_c, 0, 59, 64
2, 6810, Note_on_c, 0, 60, 64
2, 6825, Note_off_c, 0, 60, 64
2, 6825, Note_on_c, 0, 59, 64
2, 6840, Note_off_c, 0, 59, 64
2, 6840, Note_on_c, 0, 60, 64
2, 6859, Note_off_c, 0, 60, 64
2, 6859, Note_on_c, 0, 59, 64
2, 6879, Note_off_c, 0, 59, 64
2, 6879, Note_on_c, 0, 60, 64
2, 6899, Note_off_c, 0, 60, 64
2, 6899, Note_on_c, 0, 59, 64
2, 6919, Note_off_c, 0, 59, 64
2, 6919, Note_on_c, 0, 60, 64
2, 6939, Note_off_c, 0, 60, 64
2, 6939, Note_on_c, 0, 59, 64
2, 6959, Note_off_c, 0, 59, 64
2, 6960, Note_off_c, 0, 50, 64
2, 6960, Note_off_c, 0, 43, 64
2, 6960, Note_on_c, 0, 57, 64
2, 7080, Note_off_c, 0, 57, 64
2, 7080, Note_on_c, 0, 55, 64
2, 7200, Note_off_c, 0, 55, 64
2, 7200, Note_on_c, 0, 62, 64
2, 7320, Note_off_c, 0, 62, 64
2, 7320, Note_on_c, 0, 53, 64
2, 7440, Note_off_c, 0, 53, 64
2, 7440, Note_on_c, 0, 52, 64
2, 7620, Note_off_c, 0, 52, 64
2, 7620, Note_on_c, 0, 50, 64
2, 7639, Note_off_c, 0, 50, 64
2, 7639, Note_on_c, 0, 48, 64
2, 7659, Note_off_c, 0, 48, 64
2, 7659, Note_on_c, 0, 47, 64
2, 7679, Note_off_c, 0, 47, 64
2, 7680, Note_on_c, 0, 48, 64
2, 7800, Note_off_c, 0, 48, 64
2, 7800, Note_on_c, 0, 52, 64
2, 7920, Note_off_c, 0, 52, 64
2, 7920, Note_on_c, 0, 54, 64
2, 7980, Note_off_c, 0, 54, 64
2, 7980, Note_on_c, 0, 60, 64
2, 8040, Note_off_c, 0, 60, 64
2, 8040, Note_on_c, 0, 59, 64
2, 8100, Note_off_c, 0, 59, 64
2, 8100, Note_on_c, 0, 55, 64
2, 8145, Note_off_c, 0, 55, 64
2, 8160, Note_on_c, 0, 38, 64
2, 8160, Note_on_c, 0, 55, 64
2, 8175, Note_off_c, 0, 55, 64
2, 8175, Note_on_c, 0, 54, 64
2, 8180, Note_on_c, 0, 45, 64
2, 8190, Note_off_c, 0, 54, 64
2, 8190, Note_on_c, 0, 55, 64
2, 8205, Note_off_c, 0, 55, 64
2, 8205, Note_on_c, 0, 54, 64
2, 8220, Note_off_c, 0, 54, 64
2, 8220, Note_on_c, 0, 55, 64
2, 8235, Note_off_c, 0, 55, 64
2, 8235, Note_on_c, 0, 54, 64
2, 8250, Note_off_c, 0, 54, 64
2, 8250, Note_on_c, 0, 55, 64
2, 8265, Note_off_c, 0, 55, 64
2, 8265, Note_on_c, 0, 54, 64
2, 8280, Note_off_c, 0, 54, 64
2, 8280, Note_on_c, 0, 55, 64
2, 8299, Note_off_c, 0, 55, 64
2, 8299, Note_on_c, 0, 54, 64
2, 8319, Note_off_c, 0, 54, 64
2, 8319, Note_on_c, 0, 55, 64
2, 8339, Note_off_c, 0, 55, 64
2, 8339, Note_on_c, 0, 54, 64
2, 8359, Note_off_c, 0, 54, 64
2, 8359, Note_on_c, 0, 55, 64
2, 8379, Note_off_c, 0, 55, 64
2, 8379, Note_on_c, 0, 54, 64
2, 8399, Note_off_c, 0, 54, 64
2, 8400, Note_off_c, 0, 45, 64
2, 8400, Note_off_c, 0, 38, 64
2, 8400, Note_on_c, 0, 52, 64
2, 8520, Note_off_c, 0, 52, 64
2, 8520, Note_on_c, 0, 50, 64
2, 8640, Note_off_c, 0, 50, 64
2, 8640, Note_on_c, 0, 57, 64
2, 8700, Note_off_c, 0, 57, 64
2, 8700, Note_on_c, 0, 54, 64
2, 8760, Note_off_c, 0, 54, 64
2, 8760, Note_on_c, 0, 50, 64
2, 8820, Note_off_c, 0, 50, 64
2, 8820, Note_on_c, 0, 48, 64
2, 8880, Note_off_c, 0, 48, 64
2, 8880, Note_on_c, 0, 47, 64
2, 9060, Note_off_c, 0, 47, 64
2, 9060, Note_on_c, 0, 43, 64
2, 9120, Note_off_c, 0, 43, 64
2, 9120, Note_on_c, 0, 47, 64
2, 9180, Note_off_c, 0, 47, 64
2, 9180, Note_on_c, 0, 50, 64
2, 9240, Note_off_c, 0, 50, 64
2, 9240, Note_on_c, 0, 55, 64
2, 9300, Note_off_c, 0, 55, 64
2, 9300, Note_on_c, 0, 57, 64
2, 9360, Note_off_c, 0, 57, 64
2, 9360, Note_on_c, 0, 59, 64
2, 9420, Note_off_c, 0, 59, 64
2, 9420, Note_on_c, 0, 55, 64
2, 9480, Note_off_c, 0, 55, 64
2, 9480, Note_on_c, 0, 52, 64
2, 9540, Note_off_c, 0, 52, 64
2, 9540, Note_on_c, 0, 50, 64
2, 9590, Note_off_c, 0, 50, 64
2, 9600, Note_on_c, 0, 50, 64
2, 9615, Note_off_c, 0, 50, 64
2, 9615, Note_on_c, 0, 49, 64
2, 9630, Note_off_c, 0, 49, 64
2, 9630, Note_on_c, 0, 50, 64
2, 9645, Note_off_c, 0, 50, 64
2, 9645, Note_on_c, 0, 49, 64
2, 9660, Note_off_c, 0, 49, 64
2, 9660, Note_on_c, 0, 50, 64
2, 9675, Note_off_c, 0, 50, 64
2, 9675, Note_on_c, 0, 49, 64
2, 9690, Note_off_c, 0, 49, 64
2, 9690, Note_on_c, 0, 50, 64
2, 9705, Note_off_c, 0, 50, 64
2, 9705, Note_on_c, 0, 49, 64
2, 9720, Note_off_c, 0, 49, 64
2, 9720, Note_on_c, 0, 50, 64
2, 9735, Note_off_c, 0, 50, 64
2, 9735, Note_on_c, 0, 49, 64
2, 9750, Note_off_c, 0, 49, 64
2, 9750, Note_on_c, 0, 50, 64
2, 9765, Note_off_c, 0, 50, 64
2, 9765, Note_on_c, 0, 49, 64
2, 9780, Note_off_c, 0, 49, 64
2, 9780, Note_on_c, 0, 45, 64
2, 9810, Note_off_c, 0, 45, 64
2, 9810, Note_on_c, 0, 47, 64
2, 9840, Note_off_c, 0, 47, 64
2, 9840, Note_on_c, 0, 49, 64
2, 9900, Note_off_c, 0, 49, 64
2, 9900, Note_on_c, 0, 50, 64
2, 9960, Note_off_c, 0, 50, 64
2, 9960, Note_on_c, 0, 52, 64
2, 10020, Note_off_c, 0, 52, 64
2, 10020, Note_on_c, 0, 54, 64
2, 10080, Note_off_c, 0, 54, 64
2, 10080, Note_on_c, 0, 55, 64
2, 10140, Note_off_c, 0, 55, 64
2, 10140, Note_on_c, 0, 61, 64
2, 10200, Note_off_c, 0, 61, 64
2, 10200, Note_on_c, 0, 62, 64
2, 10260, Note_off_c, 0, 62, 64
2, 10260, Note_on_c, 0, 61, 64
2, 10320, Note_off_c, 0, 61, 64
2, 10320, Note_on_c, 0, 62, 64
2, 10380, Note_off_c, 0, 62, 64
2, 10380, Note_on_c, 0, 57, 64
2, 10440, Note_off_c, 0, 57, 64
2, 10440, Note_on_c, 0, 55, 64
2, 10500, Note_off_c, 0, 55, 64
2, 10500, Note_on_c, 0, 54, 64
2, 10560, Note_off_c, 0, 54, 64
2, 10560, Note_on_c, 0, 52, 64
2, 10620, Note_off_c, 0, 52, 64
2, 10620, Note_on_c, 0, 55, 64
2, 10680, Note_off_c, 0, 55, 64
2, 10680, Note_on_c, 0, 54, 64
2, 10740, Note_off_c, 0, 54, 64
2, 10740, Note_on_c, 0, 50, 64
2, 10800, Note_off_c, 0, 50, 64
2, 10800, Note_on_c, 0, 45, 64
2, 10860, Note_off_c, 0, 45, 64
2, 10860, Note_on_c, 0, 50, 64
2, 10920, Note_off_c, 0, 50, 64
2, 10920, Note_on_c, 0, 52, 64
2, 10980, Note_off_c, 0, 52, 64
2, 10980, Note_on_c, 0, 49, 64
2, 11040, Note_off_c, 0, 49, 64
2, 11040, Note_on_c, 0, 50, 64
2, 11280, Note_off_c, 0, 50, 64
2, 11280, Note_on_c, 0, 38, 64
2, 11500, Note_off_c, 0, 38, 64
2, 11520, Note_on_c, 0, 38, 64
2, 11535, Note_on_c, 0, 45, 64
2, 11550, Note_on_c, 0, 54, 64
2, 11640, Note_off_c, 0, 54, 64
2, 11640, Note_off_c, 0, 45, 64
2, 11640, Note_off_c, 0, 38, 64
2, 11640, Note_on_c, 0, 52, 64
2, 11700, Note_off_c, 0, 52, 64
2, 11700, Note_on_c, 0, 50, 64
2, 11760, Note_off_c, 0, 50, 64
2, 11760, Note_on_c, 0, 38, 64
2, 11775, Note_on_c, 0, 45, 64
2, 11790, Note_on_c, 0, 54, 64
2, 11795, Note_on_c, 0, 60, 64
2, 12120, Note_off_c, 0, 60, 64
2, 12120, Note_off_c, 0, 54, 64
2, 12120, Note_off_c, 0, 45, 64
2, 12120, Note_off_c, 0, 38, 64
2, 12120, Note_on_c, 0, 59, 64
2, 12180, Note_off_c, 0, 59, 64
2, 12180, Note_on_c, 0, 57, 64
2, 12240, Note_off_c, 0, 57, 64
2, 12240, Note_on_c, 0, 43, 64
2, 12255, Note_on_c, 0, 50, 64
2, 12265, Note_on_c, 0, 59, 64
2, 12300, Note_off_c, 0, 59, 64
2, 12300, Note_off_c, 0, 50, 64
2, 12300, Note_off_c, 0, 43, 64
2, 12300, Note_on_c, 0, 54, 64
2, 12360, Note_off_c, 0, 54, 64
2, 12360, Note_on_c, 0, 55, 64
2, 12420, Note_off_c, 0, 55, 64
2, 12420, Note_on_c, 0, 52, 64
2, 12465, Note_off_c, 0, 52, 64
2, 12480, Note_on_c, 0, 45, 64
2, 12480, Note_on_c, 0, 52, 64
2, 12495, Note_off_c, 0, 52, 64
2, 12495, Note_on_c, 0, 51, 64
2, 12510, Note_off_c, 0, 51, 64
2, 12510, Note_on_c, 0, 52, 64
2, 12525, Note_off_c, 0, 52, 64
2, 12525, Note_on_c, 0, 51, 64
2, 12540, Note_off_c, 0, 51, 64
2, 12540, Note_on_c, 0, 52, 64
2, 12555, Note_off_c, 0, 52, 64
2, 12555, Note_on_c, 0, 51, 64
2, 12570, Note_off_c, 0, 51, 64
2, 12570, Note_on_c, 0, 52, 64
2, 12585, Note_off_c, 0, 52, 64
2, 12585, Note_on_c, 0, 51, 64
2, 12600, Note_off_c, 0, 51, 64
2, 12600, Note_on_c, 0, 52, 64
2, 12615, Note_off_c, 0, 52, 64
2, 12615, Note_on_c, 0, 51, 64
2, 12630, Note_off_c, 0, 51, 64
2, 12630, Note_on_c, 0, 52, 64
2, 12645, Note_off_c, 0, 52, 64
2, 12645, Note_on_c, 0, 51, 64
2, 12660, Note_off_c, 0, 51, 64
2, 12660, Note_off_c, 0, 45, 64
2, 12660, Note_on_c, 0, 52, 64
2, 12720, Note_off_c, 0, 52, 64
2, 12720, Note_on_c, 0, 54, 64
2, 12780, Note_off_c, 0, 54, 64
2, 12780, Note_on_c, 0, 55, 64
2, 12840, Note_off_c, 0, 55, 64
2, 12840, Note_on_c, 0, 57, 64
2, 12900, Note_off_c, 0, 57, 64
2, 12900, Note_on_c, 0, 59, 64
2, 12960, Note_off_c, 0, 59, 64
2, 12960, Note_on_c, 0, 51, 64
2, 13020, Note_off_c, 0, 51, 64
2, 13020, Note_on_c, 0, 57, 64
2, 13080, Note_off_c, 0, 57, 64
2, 13080, Note_on_c, 0, 59, 64
2, 13140, Note_off_c, 0, 59, 64
2, 13140, Note_on_c, 0, 60, 64
2, 13190, Note_off_c, 0, 60, 64
2, 13200, Note_on_c, 0, 60, 64
2, 13215, Note_off_c, 0, 60, 64
2, 13215, Note_on_c, 0, 59, 64
2, 13230, Note_off_c, 0, 59, 64
2, 13230, Note_on_c, 0, 60, 64
2, 13245, Note_off_c, 0, 60, 64
2, 13245, Note_on_c, 0, 59, 64
2, 13260, Note_off_c, 0, 59, 64
2, 13260, Note_on_c, 0, 60, 64
2, 13275, Note_off_c, 0, 60, 64
2, 13275, Note_on_c, 0, 59, 64
2, 13290, Note_off_c, 0, 59, 64
2, 13290, Note_on_c, 0, 60, 64
2, 13305, Note_off_c, 0, 60, 64
2, 13305, Note_on_c, 0, 59, 64
2, 13320, Note_off_c, 0, 59, 64
2, 13320, Note_on_c, 0, 57, 64
2, 13380, Note_off_c, 0, 57, 64
2, 13380, Note_on_c, 0, 55, 64
2, 13440, Note_off_c, 0, 55, 64
2, 13440, Note_on_c, 0, 54, 64
2, 13500, Note_off_c, 0, 54, 64
2, 13500, Note_on_c, 0, 52, 64
2, 13560, Note_off_c, 0, 52, 64
2, 13560, Note_on_c, 0, 57, 64
2, 13620, Note_off_c, 0, 57, 64
2, 13620, Note_on_c, 0, 54, 64
2, 13680, Note_off_c, 0, 54, 64
2, 13680, Note_on_c, 0, 55, 64
2, 13740, Note_off_c, 0, 55, 64
2, 13740, Note_on_c, 0, 52, 64
2, 13800, Note_off_c, 0, 52, 64
2, 13800, Note_on_c, 0, 54, 64
2, 13860, Note_off_c, 0, 54, 64
2, 13860, Note_on_c, 0, 51, 64
2, 13920, Note_off_c, 0, 51, 64
2, 13920, Note_on_c, 0, 52, 64
2, 14160, Note_off_c, 0, 52, 64
2, 14160, Note_on_c, 0, 40, 64
2, 14400, Note_off_c, 0, 40, 64
2, 14400, Note_on_c, 0, 50, 64
2, 14400, Note_on_c, 0, 53, 64
2, 14580, Note_off_c, 0, 53, 64
2, 14580, Note_off_c, 0, 50, 64
2, 14580, Note_on_c, 0, 52, 64
2, 14610, Note_off_c, 0, 52, 64
2, 14610, Note_on_c, 0, 53, 64
2, 14640, Note_off_c, 0, 53, 64
2, 14640, Note_on_c, 0, 36, 64
2, 14660, Note_on_c, 0, 43, 64
2, 14675, Note_on_c, 0, 52, 64
2, 14820, Note_off_c, 0, 52, 64
2, 14820, Note_off_c, 0, 43, 64
2, 14820, Note_off_c, 0, 36, 64
2, 14820, Note_on_c, 0, 54, 64
2, 14880, Note_off_c, 0, 54, 64
2, 14880, Note_on_c, 0, 56, 64
2, 14940, Note_off_c, 0, 56, 64
2, 14940, Note_on_c, 0, 57, 64
2, 15000, Note_off_c, 0, 57, 64
2, 15000, Note_on_c, 0, 59, 64
2, 15060, Note_off_c, 0, 59, 64
2, 15060, Note_on_c, 0, 60, 64
2, 15120, Note_off_c, 0, 60, 64
2, 15120, Note_on_c, 0, 44, 64
2, 15180, Note_off_c, 0, 44, 64
2, 15180, Note_on_c, 0, 62, 64
2, 15240, Note_off_c, 0, 62, 64
2, 15240, Note_on_c, 0, 60, 64
2, 15300, Note_off_c, 0, 60, 64
2, 15300, Note_on_c, 0, 59, 64
2, 15360, Note_off_c, 0, 59, 64
2, 15360, Note_on_c, 0, 45, 64
2, 15360, Note_on_c, 0, 52, 64
2, 15360, Note_on_c, 0, 60, 64
2, 15540, Note_off_c, 0, 60, 64
2, 15540, Note_off_c, 0, 52, 64
2, 15540, Note_off_c, 0, 45, 64
2, 15540, Note_on_c, 0, 59, 64
2, 15600, Note_off_c, 0, 59, 64
2, 15600, Note_on_c, 0, 57, 64
2, 15660, Note_off_c, 0, 57, 64
2, 15660, Note_on_c, 0, 55, 64
2, 15720, Note_off_c, 0, 55, 64
2, 15720, Note_on_c, 0, 53, 64
2, 15780, Note_off_c, 0, 53, 64
2, 15780, Note_on_c, 0, 52, 64
2, 15840, Note_off_c, 0, 52, 64
2, 15840, Note_on_c, 0, 50, 64
2, 15900, Note_on_c, 0, 47, 64
2, 15960, Note_off_c, 0, 47, 64
2, 15960, Note_on_c, 0, 48, 64
2, 16020, Note_off_c, 0, 48, 64
2, 16020, Note_on_c, 0, 45, 64
2, 16060, Note_off_c, 0, 50, 64
2, 16080, Note_off_c, 0, 45, 64
2, 16080, Note_on_c, 0, 47, 64
2, 16080, Note_on_c, 0, 50, 64
2, 16140, Note_off_c, 0, 50, 64
2, 16140, Note_off_c, 0, 47, 64
2, 16140, Note_on_c, 0, 52, 64
2, 16200, Note_off_c, 0, 52, 64
2, 16200, Note_on_c, 0, 54, 64
2, 16260, Note_off_c, 0, 54, 64
2, 16260, Note_on_c, 0, 55, 64
2, 16320, Note_off_c, 0, 55, 64
2, 16320, Note_on_c, 0, 57, 64
2, 16380, Note_off_c, 0, 57, 64
2, 16380, Note_on_c, 0, 60, 64
2, 16440, Note_off_c, 0, 60, 64
2, 16440, Note_on_c, 0, 59, 64
2, 16500, Note_off_c, 0, 59, 64
2, 16500, Note_on_c, 0, 55, 64
2, 16560, Note_off_c, 0, 55, 64
2, 16560, Note_on_c, 0, 50, 64
2, 16620, Note_off_c, 0, 50, 64
2, 16620, Note_on_c, 0, 55, 64
2, 16680, Note_off_c, 0, 55, 64
2, 16680, Note_on_c, 0, 57, 64
2, 16740, Note_off_c, 0, 57, 64
2, 16740, Note_on_c, 0, 54, 64
2, 16800, Note_off_c, 0, 54, 64
2, 16800, Note_on_c, 0, 55, 64
2, 17040, Note_off_c, 0, 55, 64
2, 17040, Note_on_c, 0, 43, 64
2, 17280, Note_off_c, 0, 43, 64
2, 17280, Note_on_c, 0, 38, 64
2, 17295, Note_on_c, 0, 45, 64
2, 17310, Note_on_c, 0, 54, 64
2, 17400, Note_off_c, 0, 54, 64
2, 17400, Note_off_c, 0, 45, 64
2, 17400, Note_off_c, 0, 38, 64
2, 17400, Note_on_c, 0, 52, 64
2, 17460, Note_off_c, 0, 52, 64
2, 17460, Note_on_c, 0, 50, 64
2, 17520, Note_off_c, 0, 50, 64
2, 17520, Note_on_c, 0, 38, 64
2, 17535, Note_on_c, 0, 45, 64
2, 17550, Note_on_c, 0, 54, 64
2, 17555, Note_on_c, 0, 60, 64
2, 17880, Note_off_c, 0, 60, 64
2, 17880, Note_off_c, 0, 54, 64
2, 17880, Note_off_c, 0, 45, 64
2, 17880, Note_off_c, 0, 38, 64
2, 17880, Note_on_c, 0, 59, 64
2, 17940, Note_off_c, 0, 59, 64
2, 17940, Note_on_c, 0, 57, 64
2, 18000, Note_off_c, 0, 57, 64
2, 18000, Note_on_c, 0, 43, 64
2, 18015, Note_on_c, 0, 50, 64
2, 18025, Note_on_c, 0, 59, 64
2, 18060, Note_off_c, 0, 59, 64
2, 18060, Note_off_c, 0, 50, 64
2, 18060, Note_off_c, 0, 43, 64
2, 18060, Note_on_c, 0, 54, 64
2, 18120, Note_off_c, 0, 54, 64
2, 18120, Note_on_c, 0, 55, 64
2, 18180, Note_off_c, 0, 55, 64
2, 18180, Note_on_c, 0, 52, 64
2, 18225, Note_off_c, 0, 52, 64
2, 18240, Note_on_c, 0, 45, 64
2, 18240, Note_on_c, 0, 52, 64
2, 18255, Note_off_c, 0, 52, 64
2, 18255, Note_on_c, 0, 51, 64
2, 18270, Note_off_c, 0, 51, 64
2, 18270, Note_on_c, 0, 52, 64
2, 18285, Note_off_c, 0, 52, 64
2, 18285, Note_on_c, 0, 51, 64
2, 18300, Note_off_c, 0, 51, 64
2, 18300, Note_on_c, 0, 52, 64
2, 18315, Note_off_c, 0, 52, 64
2, 18315, Note_on_c, 0, 51, 64
2, 18330, Note_off_c, 0, 51, 64
2, 18330, Note_on_c, 0, 52, 64
2, 18345, Note_off_c, 0, 52, 64
2, 18345, Note_on_c, 0, 51, 64
2, 18360, Note_off_c, 0, 51, 64
2, 18360, Note_on_c, 0, 52, 64
2, 18375, Note_off_c, 0, 52, 64
2, 18375, Note_on_c, 0, 51, 64
2, 18390, Note_off_c, 0, 51, 64
2, 18390, Note_on_c, 0, 52, 64
2, 18405, Note_off_c, 0, 52, 64
2, 18405, Note_on_c, 0, 51, 64
2, 18420, Note_off_c, 0, 51, 64
2, 18420, Note_off_c, 0, 45, 64
2, 18420, Note_on_c, 0, 52, 64
2, 18480, Note_off_c, 0, 52, 64
2, 18480, Note_on_c, 0, 54, 64
2, 18540, Note_off_c, 0, 54, 64
2, 18540, Note_on_c, 0, 55, 64
2, 18600, Note_off_c, 0, 55, 64
2, 18600, Note_on_c, 0, 57, 64
2, 18660, Note_off_c, 0, 57, 64
2, 18660, Note_on_c, 0, 59, 64
2, 18720, Note_off_c, 0, 59, 64
2, 18720, Note_on_c, 0, 51, 64
2, 18780, Note_off_c, 0, 51, 64
2, 18780, Note_on_c, 0, 57, 64
2, 18840, Note_off_c, 0, 57, 64
2, 18840, Note_on_c, 0, 59, 64
2, 18900, Note_off_c, 0, 59, 64
2, 18900, Note_on_c, 0, 60, 64
2, 18950, Note_off_c, 0, 60, 64
2, 18960, Note_on_c, 0, 60, 64
2, 18975, Note_off_c, 0, 60, 64
2, 18975, Note_on_c, 0, 59, 64
2, 18990, Note_off_c, 0, 59, 64
2, 18990, Note_on_c, 0, 60, 64
2, 19005, Note_off_c, 0, 60, 64
2, 19005, Note_on_c, 0, 59, 64
2, 19020, Note_off_c, 0, 59, 64
2, 19020, Note_on_c, 0, 60, 64
2, 19035, Note_off_c, 0, 60, 64
2, 19035, Note_on_c, 0, 59, 64
2, 19050, Note_off_c, 0, 59, 64
2, 19050, Note_on_c, 0, 60, 64
2, 19065, Note_off_c, 0, 60, 64
2, 19065, Note_on_c, 0, 59, 64
2, 19080, Note_off_c, 0, 59, 64
2, 19080, Note_on_c, 0, 57, 64
2, 19140, Note_off_c, 0, 57, 64
2, 19140, Note_on_c, 0, 55, 64
2, 19200, Note_off_c, 0, 55, 64
2, 19200, Note_on_c, 0, 54, 64
2, 19260, Note_off_c, 0, 54, 64
2, 19260, Note_on_c, 0, 52, 64
2, 19320, Note_off_c, 0, 52, 64
2, 19320, Note_on_c, 0, 57, 64
2, 19380, Note_off_c, 0, 57, 64
2, 19380, Note_on_c, 0, 54, 64
2, 19440, Note_off_c, 0, 54, 64
2, 19440, Note_on_c, 0, 55, 64
2, 19500, Note_off_c, 0, 55, 64
2, 19500, Note_on_c, 0, 52, 64
2, 19560, Note_off_c, 0, 52, 64
2, 19560, Note_on_c, 0, 54, 64
2, 19620, Note_off_c, 0, 54, 64
2, 19620, Note_on_c, 0, 51, 64
2, 19680, Note_off_c, 0, 51, 64
2, 19680, Note_on_c, 0, 52, 64
2, 19920, Note_off_c, 0, 52, 64
2, 19920, Note_on_c, 0, 40, 64
2, 20160, Note_off_c, 0, 40, 64
2, 20160, Note_on_c, 0, 50, 64
2, 20160, Note_on_c, 0, 53, 64
2, 20340, Note_off_c, 0, 53, 64
2, 20340, Note_off_c, 0, 50, 64
2, 20340, Note_on_c, 0, 52, 64
2, 20370, Note_off_c, 0, 52, 64
2, 20370, Note_on_c, 0, 53, 64
2, 20400, Note_off_c, 0, 53, 64
2, 20400, Note_on_c, 0, 36, 64
2, 20420, Note_on_c, 0, 43, 64
2, 20435, Note_on_c, 0, 52, 64
2, 20580, Note_off_c, 0, 52, 64
2, 20580, Note_off_c, 0, 43, 64
2, 20580, Note_off_c, 0, 36, 64
2, 20580, Note_on_c, 0, 54, 64
2, 20640, Note_off_c, 0, 54, 64
2, 20640, Note_on_c, 0, 56, 64
2, 20700, Note_off_c, 0, 56, 64
2, 20700, Note_on_c, 0, 57, 64
2, 20760, Note_off_c, 0, 57, 64
2, 20760, Note_on_c, 0, 59, 64
2, 20820, Note_off_c, 0, 59, 64
2, 20820, Note_on_c, 0, 60, 64
2, 20880, Note_off_c, 0, 60, 64
2, 20880, Note_on_c, 0, 44, 64
2, 20940, Note_off_c, 0, 44, 64
2, 20940, Note_on_c, 0, 62, 64
2, 21000, Note_off_c, 0, 62, 64
2, 21000, Note_on_c, 0, 60, 64
2, 21060, Note_off_c, 0, 60, 64
2, 21060, Note_on_c, 0, 59, 64
2, 21120, Note_off_c, 0, 59, 64
2, 21120, Note_on_c, 0, 45, 64
2, 21120, Note_on_c, 0, 52, 64
2, 21120, Note_on_c, 0, 60, 64
2, 21300, Note_off_c, 0, 60, 64
2, 21300, Note_off_c, 0, 52, 64
2, 21300, Note_off_c, 0, 45, 64
2, 21300, Note_on_c, 0, 59, 64
2, 21360, Note_off_c, 0, 59, 64
2, 21360, Note_on_c, 0, 57, 64
2, 21420, Note_off_c, 0, 57, 64
2, 21420, Note_on_c, 0, 55, 64
2, 21480, Note_off_c, 0, 55, 64
2, 21480, Note_on_c, 0, 53, 64
2, 21540, Note_off_c, 0, 53, 64
2, 21540, Note_on_c, 0, 52, 64
2, 21600, Note_off_c, 0, 52, 64
2, 21600, Note_on_c, 0, 50, 64
2, 21660, Note_on_c, 0, 47, 64
2, 21720, Note_off_c, 0, 47, 64
2, 21720, Note_on_c, 0, 48, 64
2, 21780, Note_off_c, 0, 48, 64
2, 21780, Note_on_c, 0, 45, 64
2, 21820, Note_off_c, 0, 50, 64
2, 21840, Note_off_c, 0, 45, 64
2, 21840, Note_on_c, 0, 47, 64
2, 21840, Note_on_c, 0, 50, 64
2, 21900, Note_off_c, 0, 50, 64
2, 21900, Note_off_c, 0, 47, 64
2, 21900, Note_on_c, 0, 52, 64
2, 21960, Note_off_c, 0, 52, 64
2, 21960, Note_on_c, 0, 54, 64
2, 22020, Note_off_c, 0, 54, 64
2, 22020, Note_on_c, 0, 55, 64
2, 22080, Note_off_c, 0, 55, 64
2, 22080, Note_on_c, 0, 57, 64
2, 22140, Note_off_c, 0, 57, 64
2, 22140, Note_on_c, 0, 60, 64
2, 22200, Note_off_c, 0, 60, 64
2, 22200, Note_on_c, 0, 59, 64
2, 22260, Note_off_c, 0, 59, 64
2, 22260, Note_on_c, 0, 55, 64
2, 22320, Note_off_c, 0, 55, 64
2, 22320, Note_on_c, 0, 50, 64
2, 22380, Note_off_c, 0, 50, 64
2, 22380, Note_on_c, 0, 55, 64
2, 22440, Note_off_c, 0, 55, 64
2, 22440, Note_on_c, 0, 57, 64
2, 22500, Note_off_c, 0, 57, 64
2, 22500, Note_on_c, 0, 54, 64
2, 22560, Note_off_c, 0, 54, 64
2, 22560, Note_on_c, 0, 55, 64
2, 22800, Note_off_c, 0, 55, 64
2, 22800, Note_on_c, 0, 43, 64
2, 23040, Note_off_c, 0, 43, 64
2, 23167, End_track
0, 0, End_of_file
