0, 0, Header, 1, 2, 240
1, 0, Start_track
1, 0, Time_signature, 2, 1, 48, 8
1, 0, Tempo, 357143
1, 0, SMPTE_offset, 0, 0, 0, 0, 0
1, 12480, Marker_t, "I A'"
1, 24000, Marker_t, "B"
1, 58560, Marker_t, "I B'"
1, 93120, Marker_t, "II A"
1, 100800, Marker_t, "II B"
1, 108480, Marker_t, "II B'"
1, 116160, Marker_t, "I A''"
1, 160320, Time_signature, 2, 1, 12, 8
1, 160440, Tempo, 363636
1, 160560, Tempo, 370370
1, 160680, Tempo, 375000
1, 160800, Tempo, 387097
1, 160920, Tempo, 400000
1, 161040, Tempo, 431655
1, 161160, Tempo, 468750
1, 161280, Time_signature, 2, 1, 48, 8
1, 161280, Tempo, 566038
1, 162240, Tempo, 357143
1, 162240, End_track
2, 0, Start_track
2, 720, Note_on_c, 0, 51, 64
2, 780, Note_off_c, 0, 51, 64
2, 780, Note_on_c, 0, 53, 64
2, 840, Note_off_c, 0, 53, 64
2, 840, Note_on_c, 0, 55, 64
2, 900, Note_off_c, 0, 55, 64
2, 900, Note_on_c, 0, 56, 64
2, 960, Note_off_c, 0, 56, 64
2, 960, Note_on_c, 0, 58, 64
2, 1140, Note_off_c, 0, 58, 64
2, 1200, Note_on_c, 0, 60, 64
2, 1320, Note_off_c, 0, 60, 64
2, 1320, Note_on_c, 0, 56, 64
2, 1440, Note_off_c, 0, 56, 64
2, 1440, Note_on_c, 0, 58, 64
2, 1590, Note_off_c, 0, 58, 64
2, 1680, Note_on_c, 0, 60, 64
2, 1800, Note_off_c, 0, 60, 64
2, 1800, Note_on_c, 0, 55, 64
2, 1920, Note_off_c, 0, 55, 64
2, 1920, Note_on_c, 0, 56, 64
2, 2100, Note_off_c, 0, 56, 64
2, 2160, Note_on_c, 0, 53, 64
2, 2340, Note_off_c, 0, 53, 64
2, 2400, Note_on_c, 0, 41, 64
2, 2580, Note_off_c, 0, 41, 64
2, 2640, Note_on_c, 0, 50, 64
2, 2700, Note_off_c, 0, 50, 64
2, 2700, Note_on_c, 0, 51, 64
2, 2760, Note_off_c, 0, 51, 64
2, 2760, Note_on_c, 0, 53, 64
2, 2820, Note_off_c, 0, 53, 64
2, 2820, Note_on_c, 0, 55, 64
2, 2880, Note_off_c, 0, 55, 64
2, 2880, Note_on_c, 0, 56, 64
2, 3030, Note_off_c, 0, 56, 64
2, 3120, Note_on_c, 0, 58, 64
2, 3240, Note_off_c, 0, 58, 64
2, 3240, Note_on_c, 0, 55, 64
2, 3360, Note_off_c, 0, 55, 64
2, 3360, Note_on_c, 0, 56, 64
2, 3510, Note_off_c, 0, 56, 64
2, 3600, Note_on_c, 0, 58, 64
2, 3720, Note_off_c, 0, 58, 64
2, 3720, Note_on_c, 0, 53, 64
2, 3840, Note_off_c, 0, 53, 64
2, 3840, Note_on_c, 0, 55, 64
2, 4020, Note_off_c, 0, 55, 64
2, 4080, Note_on_c, 0, 51, 64
2, 4260, Note_off_c, 0, 51, 64
2, 4320, Note_on_c, 0, 39, 64
2, 4500, Note_off_c, 0, 39, 64
2, 4560, Note_on_c, 0, 51, 64
2, 4620, Note_off_c, 0, 51, 64
2, 4620, Note_on_c, 0, 53, 64
2, 4680, Note_off_c, 0, 53, 64
2, 4680, Note_on_c, 0, 55, 64
2, 4740, Note_off_c, 0, 55, 64
2, 4740, Note_on_c, 0, 56, 64
2, 4800, Note_off_c, 0, 56, 64
2, 4800, Note_on_c, 0, 58, 64
2, 4950, Note_off_c, 0, 58, 64
2, 5040, Note_on_c, 0, 46, 64
2, 5100, Note_off_c, 0, 46, 64
2, 5100, Note_on_c, 0, 48, 64
2, 5160, Note_off_c, 0, 48, 64
2, 5160, Note_on_c, 0, 50, 64
2, 5220, Note_off_c, 0, 50, 64
2, 5220, Note_on_c, 0, 51, 64
2, 5280, Note_off_c, 0, 51, 64
2, 5280, Note_on_c, 0, 53, 64
2, 5430, Note_off_c, 0, 53, 64
2, 5520, Note_on_c, 0, 56, 64
2, 5670, Note_off_c, 0, 56, 64
2, 5760, Note_on_c, 0, 56, 64
2, 5880, Note_off_c, 0, 56, 64
2, 5880, Note_on_c, 0, 55, 64
2, 6000, Note_off_c, 0, 55, 64
2, 6000, Note_on_c, 0, 53, 64
2, 6120, Note_off_c, 0, 53, 64
2, 6120, Note_on_c, 0, 51, 64
2, 6240, Note_off_c, 0, 51, 64
2, 6240, Note_on_c, 0, 53, 64
2, 6420, Note_off_c, 0, 53, 64
2, 6480, Note_on_c, 0, 51, 64
2, 6540, Note_off_c, 0, 51, 64
2, 6540, Note_on_c, 0, 53, 64
2, 6600, Note_off_c, 0, 53, 64
2, 6600, Note_on_c, 0, 55, 64
2, 6660, Note_off_c, 0, 55, 64
2, 6660, Note_on_c, 0, 56, 64
2, 6720, Note_off_c, 0, 56, 64
2, 6720, Note_on_c, 0, 58, 64
2, 6870, Note_off_c, 0, 58, 64
2, 6960, Note_on_c, 0, 46, 64
2, 7020, Note_off_c, 0, 46, 64
2, 7020, Note_on_c, 0, 48, 64
2, 7080, Note_off_c, 0, 48, 64
2, 7080, Note_on_c, 0, 50, 64
2, 7140, Note_off_c, 0, 50, 64
2, 7140, Note_on_c, 0, 51, 64
2, 7200, Note_off_c, 0, 51, 64
2, 7200, Note_on_c, 0, 53, 64
2, 7350, Note_off_c, 0, 53, 64
2, 7440, Note_on_c, 0, 56, 64
2, 7590, Note_off_c, 0, 56, 64
2, 7680, Note_on_c, 0, 56, 64
2, 7800, Note_off_c, 0, 56, 64
2, 7800, Note_on_c, 0, 55, 64
2, 7920, Note_off_c, 0, 55, 64
2, 7920, Note_on_c, 0, 53, 64
2, 8040, Note_off_c, 0, 53, 64
2, 8040, Note_on_c, 0, 51, 64
2, 8160, Note_off_c, 0, 51, 64
2, 8160, Note_on_c, 0, 53, 64
2, 8340, Note_off_c, 0, 53, 64
2, 8400, Note_on_c, 0, 53, 64
2, 8460, Note_off_c, 0, 53, 64
2, 8460, Note_on_c, 0, 55, 64
2, 8520, Note_off_c, 0, 55, 64
2, 8520, Note_on_c, 0, 57, 64
2, 8580, Note_off_c, 0, 57, 64
2, 8580, Note_on_c, 0, 58, 64
2, 8640, Note_off_c, 0, 58, 64
2, 8640, Note_on_c, 0, 60, 64
2, 8790, Note_off_c, 0, 60, 64
2, 8880, Note_on_c, 0, 57, 64
2, 8940, Note_off_c, 0, 57, 64
2, 8940, Note_on_c, 0, 58, 64
2, 9000, Note_off_c, 0, 58, 64
2, 9000, Note_on_c, 0, 60, 64
2, 9060, Note_off_c, 0, 60, 64
2, 9060, Note_on_c, 0, 62, 64
2, 9120, Note_off_c, 0, 62, 64
2, 9120, Note_on_c, 0, 63, 64
2, 9270, Note_off_c, 0, 63, 64
2, 9360, Note_on_c, 0, 53, 64
2, 9420, Note_off_c, 0, 53, 64
2, 9420, Note_on_c, 0, 55, 64
2, 9480, Note_off_c, 0, 55, 64
2, 9480, Note_on_c, 0, 57, 64
2, 9540, Note_off_c, 0, 57, 64
2, 9540, Note_on_c, 0, 58, 64
2, 9600, Note_off_c, 0, 58, 64
2, 9600, Note_on_c, 0, 60, 64
2, 9750, Note_off_c, 0, 60, 64
2, 9840, Note_on_c, 0, 57, 64
2, 9900, Note_off_c, 0, 57, 64
2, 9900, Note_on_c, 0, 58, 64
2, 9960, Note_off_c, 0, 58, 64
2, 9960, Note_on_c, 0, 60, 64
2, 10020, Note_off_c, 0, 60, 64
2, 10020, Note_on_c, 0, 62, 64
2, 10080, Note_off_c, 0, 62, 64
2, 10080, Note_on_c, 0, 63, 64
2, 10230, Note_off_c, 0, 63, 64
2, 10320, Note_on_c, 0, 62, 64
2, 10440, Note_off_c, 0, 62, 64
2, 10440, Note_on_c, 0, 60, 64
2, 10560, Note_off_c, 0, 60, 64
2, 10560, Note_on_c, 0, 62, 64
2, 10650, Note_off_c, 0, 62, 64
2, 10680, Note_on_c, 0, 58, 64
2, 10770, Note_off_c, 0, 58, 64
2, 10800, Note_on_c, 0, 55, 64
2, 10890, Note_off_c, 0, 55, 64
2, 10920, Note_on_c, 0, 58, 64
2, 11010, Note_off_c, 0, 58, 64
2, 11040, Note_on_c, 0, 51, 64
2, 11130, Note_off_c, 0, 51, 64
2, 11160, Note_on_c, 0, 60, 64
2, 11250, Note_off_c, 0, 60, 64
2, 11280, Note_on_c, 0, 53, 64
2, 11370, Note_off_c, 0, 53, 64
2, 11400, Note_on_c, 0, 57, 64
2, 11490, Note_off_c, 0, 57, 64
2, 11520, Note_on_c, 0, 58, 64
2, 11700, Note_off_c, 0, 58, 64
2, 11760, Note_on_c, 0, 53, 64
2, 11940, Note_off_c, 0, 53, 64
2, 12000, Note_on_c, 0, 46, 64
2, 12180, Note_off_c, 0, 46, 64
2, 12240, Note_on_c, 0, 51, 64
2, 12300, Note_off_c, 0, 51, 64
2, 12300, Note_on_c, 0, 53, 64
2, 12360, Note_off_c, 0, 53, 64
2, 12360, Note_on_c, 0, 55, 64
2, 12420, Note_off_c, 0, 55, 64
2, 12420, Note_on_c, 0, 56, 64
2, 12480, Note_off_c, 0, 56, 64
2, 12480, Note_on_c, 0, 58, 64
2, 12660, Note_off_c, 0, 58, 64
2, 12720, Note_on_c, 0, 60, 64
2, 12840, Note_off_c, 0, 60, 64
2, 12840, Note_on_c, 0, 56, 64
2, 12960, Note_off_c, 0, 56, 64
2, 12960, Note_on_c, 0, 58, 64
2, 13110, Note_off_c, 0, 58, 64
2, 13200, Note_on_c, 0, 60, 64
2, 13320, Note_off_c, 0, 60, 64
2, 13320, Note_on_c, 0, 55, 64
2, 13440, Note_off_c, 0, 55, 64
2, 13440, Note_on_c, 0, 56, 64
2, 13620, Note_off_c, 0, 56, 64
2, 13680, Note_on_c, 0, 53, 64
2, 13860, Note_off_c, 0, 53, 64
2, 13920, Note_on_c, 0, 41, 64
2, 14100, Note_off_c, 0, 41, 64
2, 14160, Note_on_c, 0, 50, 64
2, 14220, Note_off_c, 0, 50, 64
2, 14220, Note_on_c, 0, 51, 64
2, 14280, Note_off_c, 0, 51, 64
2, 14280, Note_on_c, 0, 53, 64
2, 14340, Note_off_c, 0, 53, 64
2, 14340, Note_on_c, 0, 55, 64
2, 14400, Note_off_c, 0, 55, 64
2, 14400, Note_on_c, 0, 56, 64
2, 14550, Note_off_c, 0, 56, 64
2, 14640, Note_on_c, 0, 58, 64
2, 14760, Note_off_c, 0, 58, 64
2, 14760, Note_on_c, 0, 55, 64
2, 14880, Note_off_c, 0, 55, 64
2, 14880, Note_on_c, 0, 56, 64
2, 15030, Note_off_c, 0, 56, 64
2, 15120, Note_on_c, 0, 58, 64
2, 15240, Note_off_c, 0, 58, 64
2, 15240, Note_on_c, 0, 53, 64
2, 15360, Note_off_c, 0, 53, 64
2, 15360, Note_on_c, 0, 55, 64
2, 15540, Note_off_c, 0, 55, 64
2, 15600, Note_on_c, 0, 51, 64
2, 15780, Note_off_c, 0, 51, 64
2, 15840, Note_on_c, 0, 39, 64
2, 16020, Note_off_c, 0, 39, 64
2, 16080, Note_on_c, 0, 51, 64
2, 16140, Note_off_c, 0, 51, 64
2, 16140, Note_on_c, 0, 53, 64
2, 16200, Note_off_c, 0, 53, 64
2, 16200, Note_on_c, 0, 55, 64
2, 16260, Note_off_c, 0, 55, 64
2, 16260, Note_on_c, 0, 56, 64
2, 16320, Note_off_c, 0, 56, 64
2, 16320, Note_on_c, 0, 58, 64
2, 16470, Note_off_c, 0, 58, 64
2, 16560, Note_on_c, 0, 46, 64
2, 16620, Note_off_c, 0, 46, 64
2, 16620, Note_on_c, 0, 48, 64
2, 16680, Note_off_c, 0, 48, 64
2, 16680, Note_on_c, 0, 50, 64
2, 16740, Note_off_c, 0, 50, 64
2, 16740, Note_on_c, 0, 51, 64
2, 16800, Note_off_c, 0, 51, 64
2, 16800, Note_on_c, 0, 53, 64
2, 16950, Note_off_c, 0, 53, 64
2, 17040, Note_on_c, 0, 56, 64
2, 17190, Note_off_c, 0, 56, 64
2, 17280, Note_on_c, 0, 56, 64
2, 17400, Note_off_c, 0, 56, 64
2, 17400, Note_on_c, 0, 55, 64
2, 17520, Note_off_c, 0, 55, 64
2, 17520, Note_on_c, 0, 53, 64
2, 17640, Note_off_c, 0, 53, 64
2, 17640, Note_on_c, 0, 51, 64
2, 17760, Note_off_c, 0, 51, 64
2, 17760, Note_on_c, 0, 53, 64
2, 17940, Note_off_c, 0, 53, 64
2, 18000, Note_on_c, 0, 51, 64
2, 18060, Note_off_c, 0, 51, 64
2, 18060, Note_on_c, 0, 53, 64
2, 18120, Note_off_c, 0, 53, 64
2, 18120, Note_on_c, 0, 55, 64
2, 18180, Note_off_c, 0, 55, 64
2, 18180, Note_on_c, 0, 56, 64
2, 18240, Note_off_c, 0, 56, 64
2, 18240, Note_on_c, 0, 58, 64
2, 18390, Note_off_c, 0, 58, 64
2, 18480, Note_on_c, 0, 46, 64
2, 18540, Note_off_c, 0, 46, 64
2, 18540, Note_on_c, 0, 48, 64
2, 18600, Note_off_c, 0, 48, 64
2, 18600, Note_on_c, 0, 50, 64
2, 18660, Note_off_c, 0, 50, 64
2, 18660, Note_on_c, 0, 51, 64
2, 18720, Note_off_c, 0, 51, 64
2, 18720, Note_on_c, 0, 53, 64
2, 18870, Note_off_c, 0, 53, 64
2, 18960, Note_on_c, 0, 56, 64
2, 19110, Note_off_c, 0, 56, 64
2, 19200, Note_on_c, 0, 56, 64
2, 19320, Note_off_c, 0, 56, 64
2, 19320, Note_on_c, 0, 55, 64
2, 19440, Note_off_c, 0, 55, 64
2, 19440, Note_on_c, 0, 53, 64
2, 19560, Note_off_c, 0, 53, 64
2, 19560, Note_on_c, 0, 51, 64
2, 19680, Note_off_c, 0, 51, 64
2, 19680, Note_on_c, 0, 53, 64
2, 19860, Note_off_c, 0, 53, 64
2, 19920, Note_on_c, 0, 53, 64
2, 19980, Note_off_c, 0, 53, 64
2, 19980, Note_on_c, 0, 55, 64
2, 20040, Note_off_c, 0, 55, 64
2, 20040, Note_on_c, 0, 57, 64
2, 20100, Note_off_c, 0, 57, 64
2, 20100, Note_on_c, 0, 58, 64
2, 20160, Note_off_c, 0, 58, 64
2, 20160, Note_on_c, 0, 60, 64
2, 20310, Note_off_c, 0, 60, 64
2, 20400, Note_on_c, 0, 57, 64
2, 20460, Note_off_c, 0, 57, 64
2, 20460, Note_on_c, 0, 58, 64
2, 20520, Note_off_c, 0, 58, 64
2, 20520, Note_on_c, 0, 60, 64
2, 20580, Note_off_c, 0, 60, 64
2, 20580, Note_on_c, 0, 62, 64
2, 20640, Note_off_c, 0, 62, 64
2, 20640, Note_on_c, 0, 63, 64
2, 20790, Note_off_c, 0, 63, 64
2, 20880, Note_on_c, 0, 53, 64
2, 20940, Note_off_c, 0, 53, 64
2, 20940, Note_on_c, 0, 55, 64
2, 21000, Note_off_c, 0, 55, 64
2, 21000, Note_on_c, 0, 57, 64
2, 21060, Note_off_c, 0, 57, 64
2, 21060, Note_on_c, 0, 58, 64
2, 21120, Note_off_c, 0, 58, 64
2, 21120, Note_on_c, 0, 60, 64
2, 21270, Note_off_c, 0, 60, 64
2, 21360, Note_on_c, 0, 57, 64
2, 21420, Note_off_c, 0, 57, 64
2, 21420, Note_on_c, 0, 58, 64
2, 21480, Note_off_c, 0, 58, 64
2, 21480, Note_on_c, 0, 60, 64
2, 21540, Note_off_c, 0, 60, 64
2, 21540, Note_on_c, 0, 62, 64
2, 21600, Note_off_c, 0, 62, 64
2, 21600, Note_on_c, 0, 63, 64
2, 21750, Note_off_c, 0, 63, 64
2, 21840, Note_on_c, 0, 62, 64
2, 21960, Note_off_c, 0, 62, 64
2, 21960, Note_on_c, 0, 60, 64
2, 22080, Note_off_c, 0, 60, 64
2, 22080, Note_on_c, 0, 62, 64
2, 22170, Note_off_c, 0, 62, 64
2, 22200, Note_on_c, 0, 58, 64
2, 22290, Note_off_c, 0, 58, 64
2, 22320, Note_on_c, 0, 55, 64
2, 22410, Note_off_c, 0, 55, 64
2, 22440, Note_on_c, 0, 58, 64
2, 22530, Note_off_c, 0, 58, 64
2, 22560, Note_on_c, 0, 51, 64
2, 22650, Note_off_c, 0, 51, 64
2, 22680, Note_on_c, 0, 60, 64
2, 22770, Note_off_c, 0, 60, 64
2, 22800, Note_on_c, 0, 53, 64
2, 22890, Note_off_c, 0, 53, 64
2, 22920, Note_on_c, 0, 57, 64
2, 23010, Note_off_c, 0, 57, 64
2, 23040, Note_on_c, 0, 58, 64
2, 23220, Note_off_c, 0, 58, 64
2, 23280, Note_on_c, 0, 53, 64
2, 23460, Note_off_c, 0, 53, 64
2, 23520, Note_on_c, 0, 46, 64
2, 23700, Note_off_c, 0, 46, 64
2, 23760, Note_on_c, 0, 46, 64
2, 23820, Note_off_c, 0, 46, 64
2, 23820, Note_on_c, 0, 48, 64
2, 23880, Note_off_c, 0, 48, 64
2, 23880, Note_on_c, 0, 50, 64
2, 23940, Note_off_c, 0, 50, 64
2, 23940, Note_on_c, 0, 51, 64
2, 24000, Note_off_c, 0, 51, 64
2, 24000, Note_on_c, 0, 53, 64
2, 24180, Note_off_c, 0, 53, 64
2, 24240, Note_on_c, 0, 55, 64
2, 24360, Note_off_c, 0, 55, 64
2, 24360, Note_on_c, 0, 51, 64
2, 24480, Note_off_c, 0, 51, 64
2, 24480, Note_on_c, 0, 53, 64
2, 24660, Note_off_c, 0, 53, 64
2, 24720, Note_on_c, 0, 58, 64
2, 24840, Note_off_c, 0, 58, 64
2, 24840, Note_on_c, 0, 53, 64
2, 24960, Note_off_c, 0, 53, 64
2, 24960, Note_on_c, 0, 55, 64
2, 25140, Note_off_c, 0, 55, 64
2, 25200, Note_on_c, 0, 51, 64
2, 25380, Note_off_c, 0, 51, 64
2, 25440, Note_on_c, 0, 63, 64
2, 25620, Note_off_c, 0, 63, 64
2, 25680, Note_on_c, 0, 56, 64
2, 25740, Note_off_c, 0, 56, 64
2, 25740, Note_on_c, 0, 55, 64
2, 25800, Note_off_c, 0, 55, 64
2, 25800, Note_on_c, 0, 53, 64
2, 25860, Note_off_c, 0, 53, 64
2, 25860, Note_on_c, 0, 51, 64
2, 25920, Note_off_c, 0, 51, 64
2, 25920, Note_on_c, 0, 50, 64
2, 26070, Note_off_c, 0, 50, 64
2, 26160, Note_on_c, 0, 53, 64
2, 26220, Note_off_c, 0, 53, 64
2, 26220, Note_on_c, 0, 51, 64
2, 26280, Note_off_c, 0, 51, 64
2, 26280, Note_on_c, 0, 50, 64
2, 26340, Note_off_c, 0, 50, 64
2, 26340, Note_on_c, 0, 48, 64
2, 26400, Note_off_c, 0, 48, 64
2, 26400, Note_on_c, 0, 47, 64
2, 26550, Note_off_c, 0, 47, 64
2, 26640, Note_on_c, 0, 50, 64
2, 26700, Note_off_c, 0, 50, 64
2, 26700, Note_on_c, 0, 48, 64
2, 26760, Note_off_c, 0, 48, 64
2, 26760, Note_on_c, 0, 47, 64
2, 26820, Note_off_c, 0, 47, 64
2, 26820, Note_on_c, 0, 45, 64
2, 26880, Note_off_c, 0, 45, 64
2, 26880, Note_on_c, 0, 43, 64
2, 26970, Note_off_c, 0, 43, 64
2, 27000, Note_on_c, 0, 50, 64
2, 27090, Note_off_c, 0, 50, 64
2, 27120, Note_on_c, 0, 53, 64
2, 27210, Note_off_c, 0, 53, 64
2, 27240, Note_on_c, 0, 59, 64
2, 27330, Note_off_c, 0, 59, 64
2, 27360, Note_on_c, 0, 62, 64
2, 27600, Note_off_c, 0, 62, 64
2, 27600, Note_on_c, 0, 55, 64
2, 27660, Note_off_c, 0, 55, 64
2, 27660, Note_on_c, 0, 53, 64
2, 27720, Note_off_c, 0, 53, 64
2, 27720, Note_on_c, 0, 51, 64
2, 27780, Note_off_c, 0, 51, 64
2, 27780, Note_on_c, 0, 50, 64
2, 27840, Note_off_c, 0, 50, 64
2, 27840, Note_on_c, 0, 51, 64
2, 28020, Note_off_c, 0, 51, 64
2, 28080, Note_on_c, 0, 36, 64
2, 28140, Note_off_c, 0, 36, 64
2, 28140, Note_on_c, 0, 38, 64
2, 28200, Note_off_c, 0, 38, 64
2, 28200, Note_on_c, 0, 39, 64
2, 28260, Note_off_c, 0, 39, 64
2, 28260, Note_on_c, 0, 41, 64
2, 28320, Note_off_c, 0, 41, 64
2, 28320, Note_on_c, 0, 43, 64
2, 28500, Note_off_c, 0, 43, 64
2, 28560, Note_on_c, 0, 62, 64
2, 28620, Note_off_c, 0, 62, 64
2, 28620, Note_on_c, 0, 60, 64
2, 28680, Note_off_c, 0, 60, 64
2, 28680, Note_on_c, 0, 59, 64
2, 28740, Note_off_c, 0, 59, 64
2, 28740, Note_on_c, 0, 57, 64
2, 28800, Note_off_c, 0, 57, 64
2, 28800, Note_on_c, 0, 55, 64
2, 28980, Note_off_c, 0, 55, 64
2, 29040, Note_on_c, 0, 43, 64
2, 29100, Note_off_c, 0, 43, 64
2, 29100, Note_on_c, 0, 45, 64
2, 29160, Note_off_c, 0, 45, 64
2, 29160, Note_on_c, 0, 47, 64
2, 29220, Note_off_c, 0, 47, 64
2, 29220, Note_on_c, 0, 48, 64
2, 29280, Note_off_c, 0, 48, 64
2, 29280, Note_on_c, 0, 50, 64
2, 29460, Note_off_c, 0, 50, 64
2, 29520, Note_on_c, 0, 67, 64
2, 29580, Note_off_c, 0, 67, 64
2, 29580, Note_on_c, 0, 65, 64
2, 29640, Note_off_c, 0, 65, 64
2, 29640, Note_on_c, 0, 63, 64
2, 29700, Note_off_c, 0, 63, 64
2, 29700, Note_on_c, 0, 62, 64
2, 29760, Note_off_c, 0, 62, 64
2, 29760, Note_on_c, 0, 63, 64
2, 29940, Note_off_c, 0, 63, 64
2, 30000, Note_on_c, 0, 63, 64
2, 30060, Note_off_c, 0, 63, 64
2, 30060, Note_on_c, 0, 62, 64
2, 30120, Note_off_c, 0, 62, 64
2, 30120, Note_on_c, 0, 60, 64
2, 30180, Note_off_c, 0, 60, 64
2, 30180, Note_on_c, 0, 59, 64
2, 30240, Note_off_c, 0, 59, 64
2, 30240, Note_on_c, 0, 60, 64
2, 30420, Note_off_c, 0, 60, 64
2, 30480, Note_on_c, 0, 60, 64
2, 30540, Note_off_c, 0, 60, 64
2, 30540, Note_on_c, 0, 58, 64
2, 30600, Note_off_c, 0, 58, 64
2, 30600, Note_on_c, 0, 56, 64
2, 30660, Note_off_c, 0, 56, 64
2, 30660, Note_on_c, 0, 55, 64
2, 30720, Note_off_c, 0, 55, 64
2, 30720, Note_on_c, 0, 56, 64
2, 30900, Note_off_c, 0, 56, 64
2, 30960, Note_on_c, 0, 56, 64
2, 31020, Note_off_c, 0, 56, 64
2, 31020, Note_on_c, 0, 55, 64
2, 31080, Note_off_c, 0, 55, 64
2, 31080, Note_on_c, 0, 53, 64
2, 31140, Note_off_c, 0, 53, 64
2, 31140, Note_on_c, 0, 51, 64
2, 31200, Note_off_c, 0, 51, 64
2, 31200, Note_on_c, 0, 50, 64
2, 31380, Note_off_c, 0, 50, 64
2, 31440, Note_on_c, 0, 60, 64
2, 31530, Note_off_c, 0, 60, 64
2, 31560, Note_on_c, 0, 59, 64
2, 31650, Note_off_c, 0, 59, 64
2, 31680, Note_on_c, 0, 60, 64
2, 31770, Note_off_c, 0, 60, 64
2, 31800, Note_on_c, 0, 56, 64
2, 31890, Note_off_c, 0, 56, 64
2, 31920, Note_on_c, 0, 53, 64
2, 32010, Note_off_c, 0, 53, 64
2, 32040, Note_on_c, 0, 56, 64
2, 32130, Note_off_c, 0, 56, 64
2, 32160, Note_on_c, 0, 50, 64
2, 32250, Note_off_c, 0, 50, 64
2, 32280, Note_on_c, 0, 60, 64
2, 32370, Note_off_c, 0, 60, 64
2, 32400, Note_on_c, 0, 55, 64
2, 32490, Note_off_c, 0, 55, 64
2, 32520, Note_on_c, 0, 59, 64
2, 32610, Note_off_c, 0, 59, 64
2, 32640, Note_on_c, 0, 60, 64
2, 32820, Note_off_c, 0, 60, 64
2, 32880, Note_on_c, 0, 43, 64
2, 33060, Note_off_c, 0, 43, 64
2, 33120, Note_on_c, 0, 36, 64
2, 33300, Note_off_c, 0, 36, 64
2, 33360, Note_on_c, 0, 48, 64
2, 33420, Note_off_c, 0, 48, 64
2, 33420, Note_on_c, 0, 50, 64
2, 33480, Note_off_c, 0, 50, 64
2, 33480, Note_on_c, 0, 52, 64
2, 33540, Note_off_c, 0, 52, 64
2, 33540, Note_on_c, 0, 53, 64
2, 33600, Note_off_c, 0, 53, 64
2, 33600, Note_on_c, 0, 55, 64
2, 33780, Note_off_c, 0, 55, 64
2, 33840, Note_on_c, 0, 56, 64
2, 33960, Note_off_c, 0, 56, 64
2, 33960, Note_on_c, 0, 53, 64
2, 34080, Note_off_c, 0, 53, 64
2, 34080, Note_on_c, 0, 55, 64
2, 34230, Note_off_c, 0, 55, 64
2, 34320, Note_on_c, 0, 60, 64
2, 34440, Note_off_c, 0, 60, 64
2, 34440, Note_on_c, 0, 55, 64
2, 34560, Note_off_c, 0, 55, 64
2, 34560, Note_on_c, 0, 58, 64
2, 34680, Note_off_c, 0, 58, 64
2, 34680, Note_on_c, 0, 56, 64
2, 34800, Note_off_c, 0, 56, 64
2, 34800, Note_on_c, 0, 55, 64
2, 34920, Note_off_c, 0, 55, 64
2, 34920, Note_on_c, 0, 53, 64
2, 35040, Note_off_c, 0, 53, 64
2, 35040, Note_on_c, 0, 63, 64
2, 35160, Note_off_c, 0, 63, 64
2, 35160, Note_on_c, 0, 62, 64
2, 35280, Note_off_c, 0, 62, 64
2, 35280, Note_on_c, 0, 60, 64
2, 35400, Note_off_c, 0, 60, 64
2, 35400, Note_on_c, 0, 58, 64
2, 35520, Note_off_c, 0, 58, 64
2, 35520, Note_on_c, 0, 63, 64
2, 35700, Note_off_c, 0, 63, 64
2, 35760, Note_on_c, 0, 51, 64
2, 35820, Note_off_c, 0, 51, 64
2, 35820, Note_on_c, 0, 53, 64
2, 35880, Note_off_c, 0, 53, 64
2, 35880, Note_on_c, 0, 55, 64
2, 35940, Note_off_c, 0, 55, 64
2, 35940, Note_on_c, 0, 56, 64
2, 36000, Note_off_c, 0, 56, 64
2, 36000, Note_on_c, 0, 58, 64
2, 36180, Note_off_c, 0, 58, 64
2, 36240, Note_on_c, 0, 60, 64
2, 36420, Note_off_c, 0, 60, 64
2, 36480, Note_on_c, 0, 51, 64
2, 36600, Note_off_c, 0, 51, 64
2, 36600, Note_on_c, 0, 50, 64
2, 36720, Note_off_c, 0, 50, 64
2, 36720, Note_on_c, 0, 48, 64
2, 36840, Note_off_c, 0, 48, 64
2, 36840, Note_on_c, 0, 50, 64
2, 36960, Note_off_c, 0, 50, 64
2, 36960, Note_on_c, 0, 46, 64
2, 37140, Note_off_c, 0, 46, 64
2, 37200, Note_on_c, 0, 46, 64
2, 37260, Note_off_c, 0, 46, 64
2, 37260, Note_on_c, 0, 48, 64
2, 37320, Note_off_c, 0, 48, 64
2, 37320, Note_on_c, 0, 50, 64
2, 37380, Note_off_c, 0, 50, 64
2, 37380, Note_on_c, 0, 51, 64
2, 37440, Note_off_c, 0, 51, 64
2, 37440, Note_on_c, 0, 53, 64
2, 37620, Note_off_c, 0, 53, 64
2, 37680, Note_on_c, 0, 50, 64
2, 37740, Note_off_c, 0, 50, 64
2, 37740, Note_on_c, 0, 51, 64
2, 37800, Note_off_c, 0, 51, 64
2, 37800, Note_on_c, 0, 53, 64
2, 37860, Note_off_c, 0, 53, 64
2, 37860, Note_on_c, 0, 55, 64
2, 37920, Note_off_c, 0, 55, 64
2, 37920, Note_on_c, 0, 56, 64
2, 38100, Note_off_c, 0, 56, 64
2, 38160, Note_on_c, 0, 46, 64
2, 38220, Note_off_c, 0, 46, 64
2, 38220, Note_on_c, 0, 48, 64
2, 38280, Note_off_c, 0, 48, 64
2, 38280, Note_on_c, 0, 50, 64
2, 38340, Note_off_c, 0, 50, 64
2, 38340, Note_on_c, 0, 51, 64
2, 38400, Note_off_c, 0, 51, 64
2, 38400, Note_on_c, 0, 53, 64
2, 38580, Note_off_c, 0, 53, 64
2, 38640, Note_on_c, 0, 50, 64
2, 38700, Note_off_c, 0, 50, 64
2, 38700, Note_on_c, 0, 51, 64
2, 38760, Note_off_c, 0, 51, 64
2, 38760, Note_on_c, 0, 53, 64
2, 38820, Note_off_c, 0, 53, 64
2, 38820, Note_on_c, 0, 55, 64
2, 38880, Note_off_c, 0, 55, 64
2, 38880, Note_on_c, 0, 56, 64
2, 39060, Note_off_c, 0, 56, 64
2, 39120, Note_on_c, 0, 51, 64
2, 39180, Note_off_c, 0, 51, 64
2, 39180, Note_on_c, 0, 53, 64
2, 39240, Note_off_c, 0, 53, 64
2, 39240, Note_on_c, 0, 55, 64
2, 39300, Note_off_c, 0, 55, 64
2, 39300, Note_on_c, 0, 56, 64
2, 39360, Note_off_c, 0, 56, 64
2, 39360, Note_on_c, 0, 58, 64
2, 39540, Note_off_c, 0, 58, 64
2, 39600, Note_on_c, 0, 55, 64
2, 39660, Note_off_c, 0, 55, 64
2, 39660, Note_on_c, 0, 56, 64
2, 39720, Note_off_c, 0, 56, 64
2, 39720, Note_on_c, 0, 58, 64
2, 39780, Note_off_c, 0, 58, 64
2, 39780, Note_on_c, 0, 60, 64
2, 39840, Note_off_c, 0, 60, 64
2, 39840, Note_on_c, 0, 61, 64
2, 40020, Note_off_c, 0, 61, 64
2, 40080, Note_on_c, 0, 51, 64
2, 40140, Note_off_c, 0, 51, 64
2, 40140, Note_on_c, 0, 53, 64
2, 40200, Note_off_c, 0, 53, 64
2, 40200, Note_on_c, 0, 55, 64
2, 40260, Note_off_c, 0, 55, 64
2, 40260, Note_on_c, 0, 56, 64
2, 40320, Note_off_c, 0, 56, 64
2, 40320, Note_on_c, 0, 58, 64
2, 40500, Note_off_c, 0, 58, 64
2, 40560, Note_on_c, 0, 55, 64
2, 40620, Note_off_c, 0, 55, 64
2, 40620, Note_on_c, 0, 56, 64
2, 40680, Note_off_c, 0, 56, 64
2, 40680, Note_on_c, 0, 58, 64
2, 40740, Note_off_c, 0, 58, 64
2, 40740, Note_on_c, 0, 60, 64
2, 40800, Note_off_c, 0, 60, 64
2, 40800, Note_on_c, 0, 61, 64
2, 41040, Note_off_c, 0, 61, 64
2, 41040, Note_on_c, 0, 60, 64
2, 41160, Note_off_c, 0, 60, 64
2, 41160, Note_on_c, 0, 58, 64
2, 41280, Note_off_c, 0, 58, 64
2, 41280, Note_on_c, 0, 60, 64
2, 41400, Note_off_c, 0, 60, 64
2, 41400, Note_on_c, 0, 58, 64
2, 41520, Note_off_c, 0, 58, 64
2, 41520, Note_on_c, 0, 58, 64
2, 41640, Note_off_c, 0, 58, 64
2, 41640, Note_on_c, 0, 56, 64
2, 41760, Note_off_c, 0, 56, 64
2, 41760, Note_on_c, 0, 58, 64
2, 41850, Note_off_c, 0, 58, 64
2, 41880, Note_on_c, 0, 55, 64
2, 41970, Note_off_c, 0, 55, 64
2, 42000, Note_on_c, 0, 43, 64
2, 42090, Note_off_c, 0, 43, 64
2, 42120, Note_on_c, 0, 55, 64
2, 42180, Note_off_c, 0, 55, 64
2, 42180, Note_on_c, 0, 56, 64
2, 42240, Note_off_c, 0, 56, 64
2, 42240, Note_on_c, 0, 58, 64
2, 42360, Note_off_c, 0, 58, 64
2, 42360, Note_on_c, 0, 55, 64
2, 42420, Note_off_c, 0, 55, 64
2, 42420, Note_on_c, 0, 56, 64
2, 42480, Note_off_c, 0, 56, 64
2, 42480, Note_on_c, 0, 58, 64
2, 42600, Note_off_c, 0, 58, 64
2, 42600, Note_on_c, 0, 56, 64
2, 42660, Note_off_c, 0, 56, 64
2, 42660, Note_on_c, 0, 55, 64
2, 42720, Note_off_c, 0, 55, 64
2, 42720, Note_on_c, 0, 56, 64
2, 42840, Note_off_c, 0, 56, 64
2, 42840, Note_on_c, 0, 53, 64
2, 42930, Note_off_c, 0, 53, 64
2, 42960, Note_on_c, 0, 41, 64
2, 43050, Note_off_c, 0, 41, 64
2, 43080, Note_on_c, 0, 56, 64
2, 43170, Note_off_c, 0, 56, 64
2, 43200, Note_on_c, 0, 55, 64
2, 43260, Note_off_c, 0, 55, 64
2, 43260, Note_on_c, 0, 53, 64
2, 43320, Note_off_c, 0, 53, 64
2, 43320, Note_on_c, 0, 51, 64
2, 43380, Note_off_c, 0, 51, 64
2, 43380, Note_on_c, 0, 50, 64
2, 43440, Note_off_c, 0, 50, 64
2, 43440, Note_on_c, 0, 51, 64
2, 43560, Note_off_c, 0, 51, 64
2, 43560, Note_on_c, 0, 58, 64
2, 43650, Note_off_c, 0, 58, 64
2, 43680, Note_on_c, 0, 55, 64
2, 43740, Note_off_c, 0, 55, 64
2, 43740, Note_on_c, 0, 53, 64
2, 43800, Note_off_c, 0, 53, 64
2, 43800, Note_on_c, 0, 51, 64
2, 43860, Note_off_c, 0, 51, 64
2, 43860, Note_on_c, 0, 50, 64
2, 43920, Note_off_c, 0, 50, 64
2, 43920, Note_on_c, 0, 51, 64
2, 44040, Note_off_c, 0, 51, 64
2, 44040, Note_on_c, 0, 63, 64
2, 44130, Note_off_c, 0, 63, 64
2, 44160, Note_on_c, 0, 56, 64
2, 44220, Note_off_c, 0, 56, 64
2, 44220, Note_on_c, 0, 55, 64
2, 44280, Note_off_c, 0, 55, 64
2, 44280, Note_on_c, 0, 53, 64
2, 44340, Note_off_c, 0, 53, 64
2, 44340, Note_on_c, 0, 55, 64
2, 44400, Note_off_c, 0, 55, 64
2, 44400, Note_on_c, 0, 56, 64
2, 44460, Note_off_c, 0, 56, 64
2, 44460, Note_on_c, 0, 55, 64
2, 44520, Note_off_c, 0, 55, 64
2, 44520, Note_on_c, 0, 53, 64
2, 44580, Note_off_c, 0, 53, 64
2, 44580, Note_on_c, 0, 55, 64
2, 44640, Note_off_c, 0, 55, 64
2, 44640, Note_on_c, 0, 56, 64
2, 44700, Note_off_c, 0, 56, 64
2, 44700, Note_on_c, 0, 55, 64
2, 44760, Note_off_c, 0, 55, 64
2, 44760, Note_on_c, 0, 53, 64
2, 44820, Note_off_c, 0, 53, 64
2, 44820, Note_on_c, 0, 51, 64
2, 44880, Note_off_c, 0, 51, 64
2, 44880, Note_on_c, 0, 50, 64
2, 44940, Note_off_c, 0, 50, 64
2, 44940, Note_on_c, 0, 48, 64
2, 45000, Note_off_c, 0, 48, 64
2, 45000, Note_on_c, 0, 46, 64
2, 45060, Note_off_c, 0, 46, 64
2, 45060, Note_on_c, 0, 44, 64
2, 45120, Note_off_c, 0, 44, 64
2, 45120, Note_on_c, 0, 43, 64
2, 45210, Note_off_c, 0, 43, 64
2, 45240, Note_on_c, 0, 51, 64
2, 45330, Note_off_c, 0, 51, 64
2, 45360, Note_on_c, 0, 60, 64
2, 45450, Note_off_c, 0, 60, 64
2, 45480, Note_on_c, 0, 56, 64
2, 45570, Note_off_c, 0, 56, 64
2, 45600, Note_on_c, 0, 58, 64
2, 45750, Note_off_c, 0, 58, 64
2, 45840, Note_on_c, 0, 60, 64
2, 45930, Note_off_c, 0, 60, 64
2, 45960, Note_on_c, 0, 55, 64
2, 46050, Note_off_c, 0, 55, 64
2, 46080, Note_on_c, 0, 56, 64
2, 46260, Note_off_c, 0, 56, 64
2, 46320, Note_on_c, 0, 53, 64
2, 46500, Note_off_c, 0, 53, 64
2, 46560, Note_on_c, 0, 41, 64
2, 46740, Note_off_c, 0, 41, 64
2, 46800, Note_on_c, 0, 60, 64
2, 46860, Note_off_c, 0, 60, 64
2, 46860, Note_on_c, 0, 58, 64
2, 46920, Note_off_c, 0, 58, 64
2, 46920, Note_on_c, 0, 56, 64
2, 46980, Note_off_c, 0, 56, 64
2, 46980, Note_on_c, 0, 55, 64
2, 47040, Note_off_c, 0, 55, 64
2, 47040, Note_on_c, 0, 53, 64
2, 47220, Note_off_c, 0, 53, 64
2, 47280, Note_on_c, 0, 56, 64
2, 47340, Note_off_c, 0, 56, 64
2, 47340, Note_on_c, 0, 55, 64
2, 47400, Note_off_c, 0, 55, 64
2, 47400, Note_on_c, 0, 53, 64
2, 47460, Note_off_c, 0, 53, 64
2, 47460, Note_on_c, 0, 51, 64
2, 47520, Note_off_c, 0, 51, 64
2, 47520, Note_on_c, 0, 50, 64
2, 47700, Note_off_c, 0, 50, 64
2, 47760, Note_on_c, 0, 53, 64
2, 47820, Note_off_c, 0, 53, 64
2, 47820, Note_on_c, 0, 51, 64
2, 47880, Note_off_c, 0, 51, 64
2, 47880, Note_on_c, 0, 50, 64
2, 47940, Note_off_c, 0, 50, 64
2, 47940, Note_on_c, 0, 48, 64
2, 48000, Note_off_c, 0, 48, 64
2, 48000, Note_on_c, 0, 46, 64
2, 48090, Note_off_c, 0, 46, 64
2, 48120, Note_on_c, 0, 50, 64
2, 48210, Note_off_c, 0, 50, 64
2, 48240, Note_on_c, 0, 53, 64
2, 48330, Note_off_c, 0, 53, 64
2, 48360, Note_on_c, 0, 56, 64
2, 48450, Note_off_c, 0, 56, 64
2, 48480, Note_on_c, 0, 65, 64
2, 48720, Note_off_c, 0, 65, 64
2, 48720, Note_on_c, 0, 63, 64
2, 48780, Note_off_c, 0, 63, 64
2, 48780, Note_on_c, 0, 62, 64
2, 48840, Note_off_c, 0, 62, 64
2, 48840, Note_on_c, 0, 60, 64
2, 48900, Note_off_c, 0, 60, 64
2, 48900, Note_on_c, 0, 58, 64
2, 48960, Note_off_c, 0, 58, 64
2, 48960, Note_on_c, 0, 63, 64
2, 49140, Note_off_c, 0, 63, 64
2, 49200, Note_on_c, 0, 51, 64
2, 49260, Note_off_c, 0, 51, 64
2, 49260, Note_on_c, 0, 53, 64
2, 49320, Note_off_c, 0, 53, 64
2, 49320, Note_on_c, 0, 55, 64
2, 49380, Note_off_c, 0, 55, 64
2, 49380, Note_on_c, 0, 56, 64
2, 49440, Note_off_c, 0, 56, 64
2, 49440, Note_on_c, 0, 58, 64
2, 49620, Note_off_c, 0, 58, 64
2, 49680, Note_on_c, 0, 60, 64
2, 49860, Note_off_c, 0, 60, 64
2, 49920, Note_on_c, 0, 51, 64
2, 50040, Note_off_c, 0, 51, 64
2, 50040, Note_on_c, 0, 50, 64
2, 50160, Note_off_c, 0, 50, 64
2, 50160, Note_on_c, 0, 48, 64
2, 50280, Note_off_c, 0, 48, 64
2, 50280, Note_on_c, 0, 50, 64
2, 50400, Note_off_c, 0, 50, 64
2, 50400, Note_on_c, 0, 46, 64
2, 50640, Note_off_c, 0, 46, 64
2, 50640, Note_on_c, 0, 63, 64
2, 50700, Note_off_c, 0, 63, 64
2, 50700, Note_on_c, 0, 62, 64
2, 50760, Note_off_c, 0, 62, 64
2, 50760, Note_on_c, 0, 60, 64
2, 50820, Note_off_c, 0, 60, 64
2, 50820, Note_on_c, 0, 58, 64
2, 50880, Note_off_c, 0, 58, 64
2, 50880, Note_on_c, 0, 63, 64
2, 51120, Note_off_c, 0, 63, 64
2, 51120, Note_on_c, 0, 51, 64
2, 51180, Note_off_c, 0, 51, 64
2, 51180, Note_on_c, 0, 53, 64
2, 51240, Note_off_c, 0, 53, 64
2, 51240, Note_on_c, 0, 55, 64
2, 51300, Note_off_c, 0, 55, 64
2, 51300, Note_on_c, 0, 56, 64
2, 51360, Note_off_c, 0, 56, 64
2, 51360, Note_on_c, 0, 58, 64
2, 51540, Note_off_c, 0, 58, 64
2, 51600, Note_on_c, 0, 60, 64
2, 51840, Note_off_c, 0, 60, 64
2, 51840, Note_on_c, 0, 61, 64
2, 51900, Note_off_c, 0, 61, 64
2, 51900, Note_on_c, 0, 60, 64
2, 51960, Note_off_c, 0, 60, 64
2, 51960, Note_on_c, 0, 58, 64
2, 52080, Note_off_c, 0, 58, 64
2, 52080, Note_on_c, 0, 60, 64
2, 52440, Note_off_c, 0, 60, 64
2, 52440, Note_on_c, 0, 58, 64
2, 52500, Note_off_c, 0, 58, 64
2, 52500, Note_on_c, 0, 56, 64
2, 52560, Note_off_c, 0, 56, 64
2, 52560, Note_on_c, 0, 58, 64
2, 52620, Note_off_c, 0, 58, 64
2, 52620, Note_on_c, 0, 56, 64
2, 52680, Note_off_c, 0, 56, 64
2, 52680, Note_on_c, 0, 55, 64
2, 52800, Note_off_c, 0, 55, 64
2, 52800, Note_on_c, 0, 56, 64
2, 52860, Note_off_c, 0, 56, 64
2, 52860, Note_on_c, 0, 55, 64
2, 52920, Note_off_c, 0, 55, 64
2, 52920, Note_on_c, 0, 53, 64
2, 53040, Note_off_c, 0, 53, 64
2, 53040, Note_on_c, 0, 55, 64
2, 53400, Note_off_c, 0, 55, 64
2, 53400, Note_on_c, 0, 53, 64
2, 53460, Note_off_c, 0, 53, 64
2, 53460, Note_on_c, 0, 51, 64
2, 53520, Note_off_c, 0, 51, 64
2, 53520, Note_on_c, 0, 53, 64
2, 53580, Note_off_c, 0, 53, 64
2, 53580, Note_on_c, 0, 51, 64
2, 53640, Note_off_c, 0, 51, 64
2, 53640, Note_on_c, 0, 50, 64
2, 53760, Note_off_c, 0, 50, 64
2, 53760, Note_on_c, 0, 51, 64
2, 53850, Note_off_c, 0, 51, 64
2, 53880, Note_on_c, 0, 46, 64
2, 53970, Note_off_c, 0, 46, 64
2, 54000, Note_on_c, 0, 43, 64
2, 54090, Note_off_c, 0, 43, 64
2, 54120, Note_on_c, 0, 46, 64
2, 54210, Note_off_c, 0, 46, 64
2, 54240, Note_on_c, 0, 39, 64
2, 54480, Note_off_c, 0, 39, 64
2, 54480, Note_on_c, 0, 46, 64
2, 54540, Note_off_c, 0, 46, 64
2, 54540, Note_on_c, 0, 48, 64
2, 54600, Note_off_c, 0, 48, 64
2, 54600, Note_on_c, 0, 50, 64
2, 54660, Note_off_c, 0, 50, 64
2, 54660, Note_on_c, 0, 51, 64
2, 54720, Note_off_c, 0, 51, 64
2, 54720, Note_on_c, 0, 53, 64
2, 54960, Note_off_c, 0, 53, 64
2, 54960, Note_on_c, 0, 50, 64
2, 55020, Note_off_c, 0, 50, 64
2, 55020, Note_on_c, 0, 51, 64
2, 55080, Note_off_c, 0, 51, 64
2, 55080, Note_on_c, 0, 53, 64
2, 55140, Note_off_c, 0, 53, 64
2, 55140, Note_on_c, 0, 55, 64
2, 55200, Note_off_c, 0, 55, 64
2, 55200, Note_on_c, 0, 56, 64
2, 55440, Note_off_c, 0, 56, 64
2, 55440, Note_on_c, 0, 46, 64
2, 55500, Note_off_c, 0, 46, 64
2, 55500, Note_on_c, 0, 48, 64
2, 55560, Note_off_c, 0, 48, 64
2, 55560, Note_on_c, 0, 50, 64
2, 55620, Note_off_c, 0, 50, 64
2, 55620, Note_on_c, 0, 51, 64
2, 55680, Note_off_c, 0, 51, 64
2, 55680, Note_on_c, 0, 53, 64
2, 55920, Note_off_c, 0, 53, 64
2, 55920, Note_on_c, 0, 50, 64
2, 55980, Note_off_c, 0, 50, 64
2, 55980, Note_on_c, 0, 51, 64
2, 56040, Note_off_c, 0, 51, 64
2, 56040, Note_on_c, 0, 53, 64
2, 56100, Note_off_c, 0, 53, 64
2, 56100, Note_on_c, 0, 55, 64
2, 56160, Note_off_c, 0, 55, 64
2, 56160, Note_on_c, 0, 56, 64
2, 56400, Note_off_c, 0, 56, 64
2, 56400, Note_on_c, 0, 55, 64
2, 56490, Note_off_c, 0, 55, 64
2, 56520, Note_on_c, 0, 53, 64
2, 56610, Note_off_c, 0, 53, 64
2, 56640, Note_on_c, 0, 55, 64
2, 56730, Note_off_c, 0, 55, 64
2, 56760, Note_on_c, 0, 58, 64
2, 56850, Note_off_c, 0, 58, 64
2, 56880, Note_on_c, 0, 63, 64
2, 56970, Note_off_c, 0, 63, 64
2, 57000, Note_on_c, 0, 55, 64
2, 57090, Note_off_c, 0, 55, 64
2, 57120, Note_on_c, 0, 53, 64
2, 57210, Note_off_c, 0, 53, 64
2, 57240, Note_on_c, 0, 51, 64
2, 57330, Note_off_c, 0, 51, 64
2, 57360, Note_on_c, 0, 46, 64
2, 57450, Note_off_c, 0, 46, 64
2, 57480, Note_on_c, 0, 62, 64
2, 57570, Note_off_c, 0, 62, 64
2, 57580, Note_on_c, 0, 39, 46
2, 57600, Note_on_c, 0, 46, 49
2, 57630, Note_on_c, 0, 55, 52
2, 57660, Note_on_c, 0, 63, 59
2, 57768, Note_off_c, 0, 39, 66
2, 57960, Note_off_c, 0, 46, 74
2, 58320, Note_off_c, 0, 63, 65
2, 58320, Note_off_c, 0, 55, 68
2, 58320, Note_on_c, 0, 46, 64
2, 58380, Note_off_c, 0, 46, 64
2, 58380, Note_on_c, 0, 48, 64
2, 58440, Note_off_c, 0, 48, 64
2, 58440, Note_on_c, 0, 50, 64
2, 58500, Note_off_c, 0, 50, 64
2, 58500, Note_on_c, 0, 51, 64
2, 58560, Note_off_c, 0, 51, 64
2, 58560, Note_on_c, 0, 53, 64
2, 58740, Note_off_c, 0, 53, 64
2, 58800, Note_on_c, 0, 55, 64
2, 58920, Note_off_c, 0, 55, 64
2, 58920, Note_on_c, 0, 51, 64
2, 59040, Note_off_c, 0, 51, 64
2, 59040, Note_on_c, 0, 53, 64
2, 59220, Note_off_c, 0, 53, 64
2, 59280, Note_on_c, 0, 58, 64
2, 59400, Note_off_c, 0, 58, 64
2, 59400, Note_on_c, 0, 53, 64
2, 59520, Note_off_c, 0, 53, 64
2, 59520, Note_on_c, 0, 55, 64
2, 59700, Note_off_c, 0, 55, 64
2, 59760, Note_on_c, 0, 51, 64
2, 59940, Note_off_c, 0, 51, 64
2, 60000, Note_on_c, 0, 39, 64
2, 60180, Note_off_c, 0, 39, 64
2, 60240, Note_on_c, 0, 56, 64
2, 60300, Note_off_c, 0, 56, 64
2, 60300, Note_on_c, 0, 55, 64
2, 60360, Note_off_c, 0, 55, 64
2, 60360, Note_on_c, 0, 53, 64
2, 60420, Note_off_c, 0, 53, 64
2, 60420, Note_on_c, 0, 51, 64
2, 60480, Note_off_c, 0, 51, 64
2, 60480, Note_on_c, 0, 50, 64
2, 60630, Note_off_c, 0, 50, 64
2, 60720, Note_on_c, 0, 53, 64
2, 60780, Note_off_c, 0, 53, 64
2, 60780, Note_on_c, 0, 51, 64
2, 60840, Note_off_c, 0, 51, 64
2, 60840, Note_on_c, 0, 50, 64
2, 60900, Note_off_c, 0, 50, 64
2, 60900, Note_on_c, 0, 48, 64
2, 60960, Note_off_c, 0, 48, 64
2, 60960, Note_on_c, 0, 47, 64
2, 61110, Note_off_c, 0, 47, 64
2, 61200, Note_on_c, 0, 50, 64
2, 61260, Note_off_c, 0, 50, 64
2, 61260, Note_on_c, 0, 48, 64
2, 61320, Note_off_c, 0, 48, 64
2, 61320, Note_on_c, 0, 47, 64
2, 61380, Note_off_c, 0, 47, 64
2, 61380, Note_on_c, 0, 45, 64
2, 61440, Note_off_c, 0, 45, 64
2, 61440, Note_on_c, 0, 43, 64
2, 61530, Note_off_c, 0, 43, 64
2, 61560, Note_on_c, 0, 50, 64
2, 61650, Note_off_c, 0, 50, 64
2, 61680, Note_on_c, 0, 53, 64
2, 61770, Note_off_c, 0, 53, 64
2, 61800, Note_on_c, 0, 59, 64
2, 61890, Note_off_c, 0, 59, 64
2, 61920, Note_on_c, 0, 62, 64
2, 62160, Note_off_c, 0, 62, 64
2, 62160, Note_on_c, 0, 55, 64
2, 62220, Note_off_c, 0, 55, 64
2, 62220, Note_on_c, 0, 53, 64
2, 62280, Note_off_c, 0, 53, 64
2, 62280, Note_on_c, 0, 51, 64
2, 62340, Note_off_c, 0, 51, 64
2, 62340, Note_on_c, 0, 50, 64
2, 62400, Note_off_c, 0, 50, 64
2, 62400, Note_on_c, 0, 51, 64
2, 62580, Note_off_c, 0, 51, 64
2, 62640, Note_on_c, 0, 36, 64
2, 62700, Note_off_c, 0, 36, 64
2, 62700, Note_on_c, 0, 38, 64
2, 62760, Note_off_c, 0, 38, 64
2, 62760, Note_on_c, 0, 39, 64
2, 62820, Note_off_c, 0, 39, 64
2, 62820, Note_on_c, 0, 41, 64
2, 62880, Note_off_c, 0, 41, 64
2, 62880, Note_on_c, 0, 43, 64
2, 63060, Note_off_c, 0, 43, 64
2, 63120, Note_on_c, 0, 62, 64
2, 63180, Note_off_c, 0, 62, 64
2, 63180, Note_on_c, 0, 60, 64
2, 63240, Note_off_c, 0, 60, 64
2, 63240, Note_on_c, 0, 59, 64
2, 63300, Note_off_c, 0, 59, 64
2, 63300, Note_on_c, 0, 57, 64
2, 63360, Note_off_c, 0, 57, 64
2, 63360, Note_on_c, 0, 55, 64
2, 63540, Note_off_c, 0, 55, 64
2, 63600, Note_on_c, 0, 43, 64
2, 63660, Note_off_c, 0, 43, 64
2, 63660, Note_on_c, 0, 45, 64
2, 63720, Note_off_c, 0, 45, 64
2, 63720, Note_on_c, 0, 47, 64
2, 63780, Note_off_c, 0, 47, 64
2, 63780, Note_on_c, 0, 48, 64
2, 63840, Note_off_c, 0, 48, 64
2, 63840, Note_on_c, 0, 50, 64
2, 64020, Note_off_c, 0, 50, 64
2, 64080, Note_on_c, 0, 67, 64
2, 64140, Note_off_c, 0, 67, 64
2, 64140, Note_on_c, 0, 65, 64
2, 64200, Note_off_c, 0, 65, 64
2, 64200, Note_on_c, 0, 63, 64
2, 64260, Note_off_c, 0, 63, 64
2, 64260, Note_on_c, 0, 62, 64
2, 64320, Note_off_c, 0, 62, 64
2, 64320, Note_on_c, 0, 63, 64
2, 64500, Note_off_c, 0, 63, 64
2, 64560, Note_on_c, 0, 63, 64
2, 64620, Note_off_c, 0, 63, 64
2, 64620, Note_on_c, 0, 62, 64
2, 64680, Note_off_c, 0, 62, 64
2, 64680, Note_on_c, 0, 60, 64
2, 64740, Note_off_c, 0, 60, 64
2, 64740, Note_on_c, 0, 59, 64
2, 64800, Note_off_c, 0, 59, 64
2, 64800, Note_on_c, 0, 60, 64
2, 64980, Note_off_c, 0, 60, 64
2, 65040, Note_on_c, 0, 60, 64
2, 65100, Note_off_c, 0, 60, 64
2, 65100, Note_on_c, 0, 58, 64
2, 65160, Note_off_c, 0, 58, 64
2, 65160, Note_on_c, 0, 56, 64
2, 65220, Note_off_c, 0, 56, 64
2, 65220, Note_on_c, 0, 55, 64
2, 65280, Note_off_c, 0, 55, 64
2, 65280, Note_on_c, 0, 56, 64
2, 65460, Note_off_c, 0, 56, 64
2, 65520, Note_on_c, 0, 56, 64
2, 65580, Note_off_c, 0, 56, 64
2, 65580, Note_on_c, 0, 55, 64
2, 65640, Note_off_c, 0, 55, 64
2, 65640, Note_on_c, 0, 53, 64
2, 65700, Note_off_c, 0, 53, 64
2, 65700, Note_on_c, 0, 51, 64
2, 65760, Note_off_c, 0, 51, 64
2, 65760, Note_on_c, 0, 50, 64
2, 65940, Note_off_c, 0, 50, 64
2, 66000, Note_on_c, 0, 60, 64
2, 66090, Note_off_c, 0, 60, 64
2, 66120, Note_on_c, 0, 59, 64
2, 66210, Note_off_c, 0, 59, 64
2, 66240, Note_on_c, 0, 60, 64
2, 66330, Note_off_c, 0, 60, 64
2, 66360, Note_on_c, 0, 56, 64
2, 66450, Note_off_c, 0, 56, 64
2, 66480, Note_on_c, 0, 53, 64
2, 66570, Note_off_c, 0, 53, 64
2, 66600, Note_on_c, 0, 56, 64
2, 66690, Note_off_c, 0, 56, 64
2, 66720, Note_on_c, 0, 50, 64
2, 66810, Note_off_c, 0, 50, 64
2, 66840, Note_on_c, 0, 60, 64
2, 66930, Note_off_c, 0, 60, 64
2, 66960, Note_on_c, 0, 55, 64
2, 67050, Note_off_c, 0, 55, 64
2, 67080, Note_on_c, 0, 59, 64
2, 67170, Note_off_c, 0, 59, 64
2, 67200, Note_on_c, 0, 60, 64
2, 67380, Note_off_c, 0, 60, 64
2, 67440, Note_on_c, 0, 43, 64
2, 67620, Note_off_c, 0, 43, 64
2, 67680, Note_on_c, 0, 36, 64
2, 67860, Note_off_c, 0, 36, 64
2, 67920, Note_on_c, 0, 48, 64
2, 67980, Note_off_c, 0, 48, 64
2, 67980, Note_on_c, 0, 50, 64
2, 68040, Note_off_c, 0, 50, 64
2, 68040, Note_on_c, 0, 52, 64
2, 68100, Note_off_c, 0, 52, 64
2, 68100, Note_on_c, 0, 53, 64
2, 68160, Note_off_c, 0, 53, 64
2, 68160, Note_on_c, 0, 55, 64
2, 68340, Note_off_c, 0, 55, 64
2, 68400, Note_on_c, 0, 56, 64
2, 68520, Note_off_c, 0, 56, 64
2, 68520, Note_on_c, 0, 53, 64
2, 68640, Note_off_c, 0, 53, 64
2, 68640, Note_on_c, 0, 55, 64
2, 68790, Note_off_c, 0, 55, 64
2, 68880, Note_on_c, 0, 60, 64
2, 69000, Note_off_c, 0, 60, 64
2, 69000, Note_on_c, 0, 55, 64
2, 69120, Note_off_c, 0, 55, 64
2, 69120, Note_on_c, 0, 58, 64
2, 69240, Note_off_c, 0, 58, 64
2, 69240, Note_on_c, 0, 56, 64
2, 69360, Note_off_c, 0, 56, 64
2, 69360, Note_on_c, 0, 55, 64
2, 69480, Note_off_c, 0, 55, 64
2, 69480, Note_on_c, 0, 53, 64
2, 69600, Note_off_c, 0, 53, 64
2, 69600, Note_on_c, 0, 63, 64
2, 69720, Note_off_c, 0, 63, 64
2, 69720, Note_on_c, 0, 62, 64
2, 69840, Note_off_c, 0, 62, 64
2, 69840, Note_on_c, 0, 60, 64
2, 69960, Note_off_c, 0, 60, 64
2, 69960, Note_on_c, 0, 58, 64
2, 70080, Note_off_c, 0, 58, 64
2, 70080, Note_on_c, 0, 63, 64
2, 70260, Note_off_c, 0, 63, 64
2, 70320, Note_on_c, 0, 51, 64
2, 70380, Note_off_c, 0, 51, 64
2, 70380, Note_on_c, 0, 53, 64
2, 70440, Note_off_c, 0, 53, 64
2, 70440, Note_on_c, 0, 55, 64
2, 70500, Note_off_c, 0, 55, 64
2, 70500, Note_on_c, 0, 56, 64
2, 70560, Note_off_c, 0, 56, 64
2, 70560, Note_on_c, 0, 58, 64
2, 70740, Note_off_c, 0, 58, 64
2, 70800, Note_on_c, 0, 60, 64
2, 70980, Note_off_c, 0, 60, 64
2, 71040, Note_on_c, 0, 51, 64
2, 71160, Note_off_c, 0, 51, 64
2, 71160, Note_on_c, 0, 50, 64
2, 71280, Note_off_c, 0, 50, 64
2, 71280, Note_on_c, 0, 48, 64
2, 71400, Note_off_c, 0, 48, 64
2, 71400, Note_on_c, 0, 50, 64
2, 71520, Note_off_c, 0, 50, 64
2, 71520, Note_on_c, 0, 46, 64
2, 71700, Note_off_c, 0, 46, 64
2, 71760, Note_on_c, 0, 46, 64
2, 71820, Note_off_c, 0, 46, 64
2, 71820, Note_on_c, 0, 48, 64
2, 71880, Note_off_c, 0, 48, 64
2, 71880, Note_on_c, 0, 50, 64
2, 71940, Note_off_c, 0, 50, 64
2, 71940, Note_on_c, 0, 51, 64
2, 72000, Note_off_c, 0, 51, 64
2, 72000, Note_on_c, 0, 53, 64
2, 72180, Note_off_c, 0, 53, 64
2, 72240, Note_on_c, 0, 50, 64
2, 72300, Note_off_c, 0, 50, 64
2, 72300, Note_on_c, 0, 51, 64
2, 72360, Note_off_c, 0, 51, 64
2, 72360, Note_on_c, 0, 53, 64
2, 72420, Note_off_c, 0, 53, 64
2, 72420, Note_on_c, 0, 55, 64
2, 72480, Note_off_c, 0, 55, 64
2, 72480, Note_on_c, 0, 56, 64
2, 72660, Note_off_c, 0, 56, 64
2, 72720, Note_on_c, 0, 46, 64
2, 72780, Note_off_c, 0, 46, 64
2, 72780, Note_on_c, 0, 48, 64
2, 72840, Note_off_c, 0, 48, 64
2, 72840, Note_on_c, 0, 50, 64
2, 72900, Note_off_c, 0, 50, 64
2, 72900, Note_on_c, 0, 51, 64
2, 72960, Note_off_c, 0, 51, 64
2, 72960, Note_on_c, 0, 53, 64
2, 73140, Note_off_c, 0, 53, 64
2, 73200, Note_on_c, 0, 50, 64
2, 73260, Note_off_c, 0, 50, 64
2, 73260, Note_on_c, 0, 51, 64
2, 73320, Note_off_c, 0, 51, 64
2, 73320, Note_on_c, 0, 53, 64
2, 73380, Note_off_c, 0, 53, 64
2, 73380, Note_on_c, 0, 55, 64
2, 73440, Note_off_c, 0, 55, 64
2, 73440, Note_on_c, 0, 56, 64
2, 73620, Note_off_c, 0, 56, 64
2, 73680, Note_on_c, 0, 51, 64
2, 73740, Note_off_c, 0, 51, 64
2, 73740, Note_on_c, 0, 53, 64
2, 73800, Note_off_c, 0, 53, 64
2, 73800, Note_on_c, 0, 55, 64
2, 73860, Note_off_c, 0, 55, 64
2, 73860, Note_on_c, 0, 56, 64
2, 73920, Note_off_c, 0, 56, 64
2, 73920, Note_on_c, 0, 58, 64
2, 74100, Note_off_c, 0, 58, 64
2, 74160, Note_on_c, 0, 55, 64
2, 74220, Note_off_c, 0, 55, 64
2, 74220, Note_on_c, 0, 56, 64
2, 74280, Note_off_c, 0, 56, 64
2, 74280, Note_on_c, 0, 58, 64
2, 74340, Note_off_c, 0, 58, 64
2, 74340, Note_on_c, 0, 60, 64
2, 74400, Note_off_c, 0, 60, 64
2, 74400, Note_on_c, 0, 61, 64
2, 74580, Note_off_c, 0, 61, 64
2, 74640, Note_on_c, 0, 51, 64
2, 74700, Note_off_c, 0, 51, 64
2, 74700, Note_on_c, 0, 53, 64
2, 74760, Note_off_c, 0, 53, 64
2, 74760, Note_on_c, 0, 55, 64
2, 74820, Note_off_c, 0, 55, 64
2, 74820, Note_on_c, 0, 56, 64
2, 74880, Note_off_c, 0, 56, 64
2, 74880, Note_on_c, 0, 58, 64
2, 75060, Note_off_c, 0, 58, 64
2, 75120, Note_on_c, 0, 55, 64
2, 75180, Note_off_c, 0, 55, 64
2, 75180, Note_on_c, 0, 56, 64
2, 75240, Note_off_c, 0, 56, 64
2, 75240, Note_on_c, 0, 58, 64
2, 75300, Note_off_c, 0, 58, 64
2, 75300, Note_on_c, 0, 60, 64
2, 75360, Note_off_c, 0, 60, 64
2, 75360, Note_on_c, 0, 61, 64
2, 75600, Note_off_c, 0, 61, 64
2, 75600, Note_on_c, 0, 60, 64
2, 75720, Note_off_c, 0, 60, 64
2, 75720, Note_on_c, 0, 58, 64
2, 75840, Note_off_c, 0, 58, 64
2, 75840, Note_on_c, 0, 60, 64
2, 75960, Note_off_c, 0, 60, 64
2, 75960, Note_on_c, 0, 58, 64
2, 76080, Note_off_c, 0, 58, 64
2, 76080, Note_on_c, 0, 58, 64
2, 76200, Note_off_c, 0, 58, 64
2, 76200, Note_on_c, 0, 56, 64
2, 76320, Note_off_c, 0, 56, 64
2, 76320, Note_on_c, 0, 58, 64
2, 76410, Note_off_c, 0, 58, 64
2, 76440, Note_on_c, 0, 55, 64
2, 76530, Note_off_c, 0, 55, 64
2, 76560, Note_on_c, 0, 43, 64
2, 76650, Note_off_c, 0, 43, 64
2, 76680, Note_on_c, 0, 55, 64
2, 76740, Note_off_c, 0, 55, 64
2, 76740, Note_on_c, 0, 56, 64
2, 76800, Note_off_c, 0, 56, 64
2, 76800, Note_on_c, 0, 58, 64
2, 76920, Note_off_c, 0, 58, 64
2, 76920, Note_on_c, 0, 55, 64
2, 76980, Note_off_c, 0, 55, 64
2, 76980, Note_on_c, 0, 56, 64
2, 77040, Note_off_c, 0, 56, 64
2, 77040, Note_on_c, 0, 58, 64
2, 77160, Note_off_c, 0, 58, 64
2, 77160, Note_on_c, 0, 56, 64
2, 77220, Note_off_c, 0, 56, 64
2, 77220, Note_on_c, 0, 55, 64
2, 77280, Note_off_c, 0, 55, 64
2, 77280, Note_on_c, 0, 56, 64
2, 77400, Note_off_c, 0, 56, 64
2, 77400, Note_on_c, 0, 53, 64
2, 77490, Note_off_c, 0, 53, 64
2, 77520, Note_on_c, 0, 41, 64
2, 77610, Note_off_c, 0, 41, 64
2, 77640, Note_on_c, 0, 56, 64
2, 77730, Note_off_c, 0, 56, 64
2, 77760, Note_on_c, 0, 55, 64
2, 77820, Note_off_c, 0, 55, 64
2, 77820, Note_on_c, 0, 53, 64
2, 77880, Note_off_c, 0, 53, 64
2, 77880, Note_on_c, 0, 51, 64
2, 77940, Note_off_c, 0, 51, 64
2, 77940, Note_on_c, 0, 50, 64
2, 78000, Note_off_c, 0, 50, 64
2, 78000, Note_on_c, 0, 51, 64
2, 78120, Note_off_c, 0, 51, 64
2, 78120, Note_on_c, 0, 58, 64
2, 78210, Note_off_c, 0, 58, 64
2, 78240, Note_on_c, 0, 55, 64
2, 78300, Note_off_c, 0, 55, 64
2, 78300, Note_on_c, 0, 53, 64
2, 78360, Note_off_c, 0, 53, 64
2, 78360, Note_on_c, 0, 51, 64
2, 78420, Note_off_c, 0, 51, 64
2, 78420, Note_on_c, 0, 50, 64
2, 78480, Note_off_c, 0, 50, 64
2, 78480, Note_on_c, 0, 51, 64
2, 78600, Note_off_c, 0, 51, 64
2, 78600, Note_on_c, 0, 63, 64
2, 78690, Note_off_c, 0, 63, 64
2, 78720, Note_on_c, 0, 56, 64
2, 78780, Note_off_c, 0, 56, 64
2, 78780, Note_on_c, 0, 55, 64
2, 78840, Note_off_c, 0, 55, 64
2, 78840, Note_on_c, 0, 53, 64
2, 78900, Note_off_c, 0, 53, 64
2, 78900, Note_on_c, 0, 55, 64
2, 78960, Note_off_c, 0, 55, 64
2, 78960, Note_on_c, 0, 56, 64
2, 79020, Note_off_c, 0, 56, 64
2, 79020, Note_on_c, 0, 55, 64
2, 79080, Note_off_c, 0, 55, 64
2, 79080, Note_on_c, 0, 53, 64
2, 79140, Note_off_c, 0, 53, 64
2, 79140, Note_on_c, 0, 55, 64
2, 79200, Note_off_c, 0, 55, 64
2, 79200, Note_on_c, 0, 56, 64
2, 79260, Note_off_c, 0, 56, 64
2, 79260, Note_on_c, 0, 55, 64
2, 79320, Note_off_c, 0, 55, 64
2, 79320, Note_on_c, 0, 53, 64
2, 79380, Note_off_c, 0, 53, 64
2, 79380, Note_on_c, 0, 51, 64
2, 79440, Note_off_c, 0, 51, 64
2, 79440, Note_on_c, 0, 50, 64
2, 79500, Note_off_c, 0, 50, 64
2, 79500, Note_on_c, 0, 48, 64
2, 79560, Note_off_c, 0, 48, 64
2, 79560, Note_on_c, 0, 46, 64
2, 79620, Note_off_c, 0, 46, 64
2, 79620, Note_on_c, 0, 44, 64
2, 79680, Note_off_c, 0, 44, 64
2, 79680, Note_on_c, 0, 43, 64
2, 79770, Note_off_c, 0, 43, 64
2, 79800, Note_on_c, 0, 51, 64
2, 79890, Note_off_c, 0, 51, 64
2, 79920, Note_on_c, 0, 60, 64
2, 80010, Note_off_c, 0, 60, 64
2, 80040, Note_on_c, 0, 56, 64
2, 80130, Note_off_c, 0, 56, 64
2, 80160, Note_on_c, 0, 58, 64
2, 80310, Note_off_c, 0, 58, 64
2, 80400, Note_on_c, 0, 60, 64
2, 80490, Note_off_c, 0, 60, 64
2, 80520, Note_on_c, 0, 55, 64
2, 80610, Note_off_c, 0, 55, 64
2, 80640, Note_on_c, 0, 56, 64
2, 80820, Note_off_c, 0, 56, 64
2, 80880, Note_on_c, 0, 53, 64
2, 81060, Note_off_c, 0, 53, 64
2, 81120, Note_on_c, 0, 41, 64
2, 81300, Note_off_c, 0, 41, 64
2, 81360, Note_on_c, 0, 60, 64
2, 81420, Note_off_c, 0, 60, 64
2, 81420, Note_on_c, 0, 58, 64
2, 81480, Note_off_c, 0, 58, 64
2, 81480, Note_on_c, 0, 56, 64
2, 81540, Note_off_c, 0, 56, 64
2, 81540, Note_on_c, 0, 55, 64
2, 81600, Note_off_c, 0, 55, 64
2, 81600, Note_on_c, 0, 53, 64
2, 81780, Note_off_c, 0, 53, 64
2, 81840, Note_on_c, 0, 56, 64
2, 81900, Note_off_c, 0, 56, 64
2, 81900, Note_on_c, 0, 55, 64
2, 81960, Note_off_c, 0, 55, 64
2, 81960, Note_on_c, 0, 53, 64
2, 82020, Note_off_c, 0, 53, 64
2, 82020, Note_on_c, 0, 51, 64
2, 82080, Note_off_c, 0, 51, 64
2, 82080, Note_on_c, 0, 50, 64
2, 82260, Note_off_c, 0, 50, 64
2, 82320, Note_on_c, 0, 53, 64
2, 82380, Note_off_c, 0, 53, 64
2, 82380, Note_on_c, 0, 51, 64
2, 82440, Note_off_c, 0, 51, 64
2, 82440, Note_on_c, 0, 50, 64
2, 82500, Note_off_c, 0, 50, 64
2, 82500, Note_on_c, 0, 48, 64
2, 82560, Note_off_c, 0, 48, 64
2, 82560, Note_on_c, 0, 46, 64
2, 82650, Note_off_c, 0, 46, 64
2, 82680, Note_on_c, 0, 50, 64
2, 82770, Note_off_c, 0, 50, 64
2, 82800, Note_on_c, 0, 53, 64
2, 82890, Note_off_c, 0, 53, 64
2, 82920, Note_on_c, 0, 56, 64
2, 83010, Note_off_c, 0, 56, 64
2, 83040, Note_on_c, 0, 65, 64
2, 83280, Note_off_c, 0, 65, 64
2, 83280, Note_on_c, 0, 63, 64
2, 83340, Note_off_c, 0, 63, 64
2, 83340, Note_on_c, 0, 62, 64
2, 83400, Note_off_c, 0, 62, 64
2, 83400, Note_on_c, 0, 60, 64
2, 83460, Note_off_c, 0, 60, 64
2, 83460, Note_on_c, 0, 58, 64
2, 83520, Note_off_c, 0, 58, 64
2, 83520, Note_on_c, 0, 63, 64
2, 83700, Note_off_c, 0, 63, 64
2, 83760, Note_on_c, 0, 51, 64
2, 83820, Note_off_c, 0, 51, 64
2, 83820, Note_on_c, 0, 53, 64
2, 83880, Note_off_c, 0, 53, 64
2, 83880, Note_on_c, 0, 55, 64
2, 83940, Note_off_c, 0, 55, 64
2, 83940, Note_on_c, 0, 56, 64
2, 84000, Note_off_c, 0, 56, 64
2, 84000, Note_on_c, 0, 58, 64
2, 84180, Note_off_c, 0, 58, 64
2, 84240, Note_on_c, 0, 60, 64
2, 84420, Note_off_c, 0, 60, 64
2, 84480, Note_on_c, 0, 51, 64
2, 84600, Note_off_c, 0, 51, 64
2, 84600, Note_on_c, 0, 50, 64
2, 84720, Note_off_c, 0, 50, 64
2, 84720, Note_on_c, 0, 48, 64
2, 84840, Note_off_c, 0, 48, 64
2, 84840, Note_on_c, 0, 50, 64
2, 84960, Note_off_c, 0, 50, 64
2, 84960, Note_on_c, 0, 46, 64
2, 85200, Note_off_c, 0, 46, 64
2, 85200, Note_on_c, 0, 63, 64
2, 85260, Note_off_c, 0, 63, 64
2, 85260, Note_on_c, 0, 62, 64
2, 85320, Note_off_c, 0, 62, 64
2, 85320, Note_on_c, 0, 60, 64
2, 85380, Note_off_c, 0, 60, 64
2, 85380, Note_on_c, 0, 58, 64
2, 85440, Note_off_c, 0, 58, 64
2, 85440, Note_on_c, 0, 63, 64
2, 85680, Note_off_c, 0, 63, 64
2, 85680, Note_on_c, 0, 51, 64
2, 85740, Note_off_c, 0, 51, 64
2, 85740, Note_on_c, 0, 53, 64
2, 85800, Note_off_c, 0, 53, 64
2, 85800, Note_on_c, 0, 55, 64
2, 85860, Note_off_c, 0, 55, 64
2, 85860, Note_on_c, 0, 56, 64
2, 85920, Note_off_c, 0, 56, 64
2, 85920, Note_on_c, 0, 58, 64
2, 86100, Note_off_c, 0, 58, 64
2, 86160, Note_on_c, 0, 60, 64
2, 86400, Note_off_c, 0, 60, 64
2, 86400, Note_on_c, 0, 61, 64
2, 86460, Note_off_c, 0, 61, 64
2, 86460, Note_on_c, 0, 60, 64
2, 86520, Note_off_c, 0, 60, 64
2, 86520, Note_on_c, 0, 58, 64
2, 86640, Note_off_c, 0, 58, 64
2, 86640, Note_on_c, 0, 60, 64
2, 87000, Note_off_c, 0, 60, 64
2, 87000, Note_on_c, 0, 58, 64
2, 87060, Note_off_c, 0, 58, 64
2, 87060, Note_on_c, 0, 56, 64
2, 87120, Note_off_c, 0, 56, 64
2, 87120, Note_on_c, 0, 58, 64
2, 87180, Note_off_c, 0, 58, 64
2, 87180, Note_on_c, 0, 56, 64
2, 87240, Note_off_c, 0, 56, 64
2, 87240, Note_on_c, 0, 55, 64
2, 87360, Note_off_c, 0, 55, 64
2, 87360, Note_on_c, 0, 56, 64
2, 87420, Note_off_c, 0, 56, 64
2, 87420, Note_on_c, 0, 55, 64
2, 87480, Note_off_c, 0, 55, 64
2, 87480, Note_on_c, 0, 53, 64
2, 87600, Note_off_c, 0, 53, 64
2, 87600, Note_on_c, 0, 55, 64
2, 87960, Note_off_c, 0, 55, 64
2, 87960, Note_on_c, 0, 53, 64
2, 88020, Note_off_c, 0, 53, 64
2, 88020, Note_on_c, 0, 51, 64
2, 88080, Note_off_c, 0, 51, 64
2, 88080, Note_on_c, 0, 53, 64
2, 88140, Note_off_c, 0, 53, 64
2, 88140, Note_on_c, 0, 51, 64
2, 88200, Note_off_c, 0, 51, 64
2, 88200, Note_on_c, 0, 50, 64
2, 88320, Note_off_c, 0, 50, 64
2, 88320, Note_on_c, 0, 51, 64
2, 88410, Note_off_c, 0, 51, 64
2, 88440, Note_on_c, 0, 46, 64
2, 88530, Note_off_c, 0, 46, 64
2, 88560, Note_on_c, 0, 43, 64
2, 88650, Note_off_c, 0, 43, 64
2, 88680, Note_on_c, 0, 46, 64
2, 88770, Note_off_c, 0, 46, 64
2, 88800, Note_on_c, 0, 39, 64
2, 89040, Note_off_c, 0, 39, 64
2, 89040, Note_on_c, 0, 46, 64
2, 89100, Note_off_c, 0, 46, 64
2, 89100, Note_on_c, 0, 48, 64
2, 89160, Note_off_c, 0, 48, 64
2, 89160, Note_on_c, 0, 50, 64
2, 89220, Note_off_c, 0, 50, 64
2, 89220, Note_on_c, 0, 51, 64
2, 89280, Note_off_c, 0, 51, 64
2, 89280, Note_on_c, 0, 53, 64
2, 89520, Note_off_c, 0, 53, 64
2, 89520, Note_on_c, 0, 50, 64
2, 89580, Note_off_c, 0, 50, 64
2, 89580, Note_on_c, 0, 51, 64
2, 89640, Note_off_c, 0, 51, 64
2, 89640, Note_on_c, 0, 53, 64
2, 89700, Note_off_c, 0, 53, 64
2, 89700, Note_on_c, 0, 55, 64
2, 89760, Note_off_c, 0, 55, 64
2, 89760, Note_on_c, 0, 56, 64
2, 90000, Note_off_c, 0, 56, 64
2, 90000, Note_on_c, 0, 46, 64
2, 90060, Note_off_c, 0, 46, 64
2, 90060, Note_on_c, 0, 48, 64
2, 90120, Note_off_c, 0, 48, 64
2, 90120, Note_on_c, 0, 50, 64
2, 90180, Note_off_c, 0, 50, 64
2, 90180, Note_on_c, 0, 51, 64
2, 90240, Note_off_c, 0, 51, 64
2, 90240, Note_on_c, 0, 53, 64
2, 90480, Note_off_c, 0, 53, 64
2, 90480, Note_on_c, 0, 50, 64
2, 90540, Note_off_c, 0, 50, 64
2, 90540, Note_on_c, 0, 51, 64
2, 90600, Note_off_c, 0, 51, 64
2, 90600, Note_on_c, 0, 53, 64
2, 90660, Note_off_c, 0, 53, 64
2, 90660, Note_on_c, 0, 55, 64
2, 90720, Note_off_c, 0, 55, 64
2, 90720, Note_on_c, 0, 56, 64
2, 90960, Note_off_c, 0, 56, 64
2, 90960, Note_on_c, 0, 55, 64
2, 91050, Note_off_c, 0, 55, 64
2, 91080, Note_on_c, 0, 53, 64
2, 91170, Note_off_c, 0, 53, 64
2, 91200, Note_on_c, 0, 55, 64
2, 91290, Note_off_c, 0, 55, 64
2, 91320, Note_on_c, 0, 58, 64
2, 91410, Note_off_c, 0, 58, 64
2, 91440, Note_on_c, 0, 63, 64
2, 91530, Note_off_c, 0, 63, 64
2, 91560, Note_on_c, 0, 55, 64
2, 91650, Note_off_c, 0, 55, 64
2, 91680, Note_on_c, 0, 53, 64
2, 91770, Note_off_c, 0, 53, 64
2, 91800, Note_on_c, 0, 51, 64
2, 91890, Note_off_c, 0, 51, 64
2, 91920, Note_on_c, 0, 46, 64
2, 92010, Note_off_c, 0, 46, 64
2, 92040, Note_on_c, 0, 62, 64
2, 92130, Note_off_c, 0, 62, 64
2, 92140, Note_on_c, 0, 39, 46
2, 92160, Note_on_c, 0, 46, 49
2, 92190, Note_on_c, 0, 55, 52
2, 92220, Note_on_c, 0, 63, 59
2, 92328, Note_off_c, 0, 39, 66
2, 92520, Note_off_c, 0, 46, 74
2, 92860, Note_off_c, 0, 55, 68
2, 92880, Note_off_c, 0, 63, 65
2, 92880, Note_on_c, 0, 55, 64
2, 92880, Note_on_c, 0, 43, 64
2, 93120, Note_off_c, 0, 43, 64
2, 93120, Note_off_c, 0, 55, 64
2, 93120, Note_on_c, 0, 44, 64
2, 93120, Note_on_c, 0, 51, 64
2, 93360, Note_off_c, 0, 51, 64
2, 93360, Note_off_c, 0, 44, 64
2, 93360, Note_on_c, 0, 53, 64
2, 93600, Note_on_c, 0, 46, 64
2, 93840, Note_off_c, 0, 46, 64
2, 93840, Note_off_c, 0, 53, 64
2, 93840, Note_on_c, 0, 50, 64
2, 94080, Note_off_c, 0, 50, 64
2, 94080, Note_on_c, 0, 48, 64
2, 94080, Note_on_c, 0, 51, 64
2, 94200, Note_off_c, 0, 51, 64
2, 94200, Note_on_c, 0, 53, 64
2, 94320, Note_off_c, 0, 53, 64
2, 94320, Note_off_c, 0, 48, 64
2, 94320, Note_on_c, 0, 55, 64
2, 94560, Note_on_c, 0, 43, 64
2, 94800, Note_off_c, 0, 43, 64
2, 94800, Note_off_c, 0, 55, 64
2, 94800, Note_on_c, 0, 51, 64
2, 95040, Note_off_c, 0, 51, 64
2, 95040, Note_on_c, 0, 44, 64
2, 95220, Note_off_c, 0, 44, 64
2, 95280, Note_on_c, 0, 53, 64
2, 95460, Note_off_c, 0, 53, 64
2, 95520, Note_on_c, 0, 46, 64
2, 95700, Note_off_c, 0, 46, 64
2, 95760, Note_on_c, 0, 50, 64
2, 95940, Note_off_c, 0, 50, 64
2, 96000, Note_on_c, 0, 51, 64
2, 96180, Note_off_c, 0, 51, 64
2, 96240, Note_on_c, 0, 46, 64
2, 96420, Note_off_c, 0, 46, 64
2, 96480, Note_on_c, 0, 39, 64
2, 96660, Note_off_c, 0, 39, 64
2, 96720, Note_on_c, 0, 51, 64
2, 96720, Note_on_c, 0, 43, 64
2, 96960, Note_off_c, 0, 43, 64
2, 96960, Note_off_c, 0, 51, 64
2, 96960, Note_on_c, 0, 44, 64
2, 96960, Note_on_c, 0, 51, 64
2, 97200, Note_off_c, 0, 51, 64
2, 97200, Note_off_c, 0, 44, 64
2, 97200, Note_on_c, 0, 53, 64
2, 97440, Note_on_c, 0, 46, 64
2, 97680, Note_off_c, 0, 46, 64
2, 97680, Note_off_c, 0, 53, 64
2, 97680, Note_on_c, 0, 50, 64
2, 97920, Note_off_c, 0, 50, 64
2, 97920, Note_on_c, 0, 48, 64
2, 97920, Note_on_c, 0, 51, 64
2, 98040, Note_off_c, 0, 51, 64
2, 98040, Note_on_c, 0, 53, 64
2, 98160, Note_off_c, 0, 53, 64
2, 98160, Note_off_c, 0, 48, 64
2, 98160, Note_on_c, 0, 55, 64
2, 98400, Note_on_c, 0, 43, 64
2, 98640, Note_off_c, 0, 43, 64
2, 98640, Note_off_c, 0, 55, 64
2, 98640, Note_on_c, 0, 51, 64
2, 98880, Note_off_c, 0, 51, 64
2, 98880, Note_on_c, 0, 44, 64
2, 99060, Note_off_c, 0, 44, 64
2, 99120, Note_on_c, 0, 53, 64
2, 99300, Note_off_c, 0, 53, 64
2, 99360, Note_on_c, 0, 46, 64
2, 99540, Note_off_c, 0, 46, 64
2, 99600, Note_on_c, 0, 50, 64
2, 99780, Note_off_c, 0, 50, 64
2, 99840, Note_on_c, 0, 51, 64
2, 100020, Note_off_c, 0, 51, 64
2, 100080, Note_on_c, 0, 46, 64
2, 100260, Note_off_c, 0, 46, 64
2, 100320, Note_on_c, 0, 39, 64
2, 100500, Note_off_c, 0, 39, 64
2, 100560, Note_on_c, 0, 58, 64
2, 100560, Note_on_c, 0, 51, 64
2, 100800, Note_off_c, 0, 51, 64
2, 100800, Note_on_c, 0, 56, 64
2, 101040, Note_off_c, 0, 56, 64
2, 101040, Note_off_c, 0, 58, 64
2, 101040, Note_on_c, 0, 60, 64
2, 101280, Note_on_c, 0, 55, 64
2, 101520, Note_off_c, 0, 55, 64
2, 101520, Note_off_c, 0, 60, 64
2, 101520, Note_on_c, 0, 58, 64
2, 101760, Note_off_c, 0, 58, 64
2, 101760, Note_on_c, 0, 56, 64
2, 101880, Note_off_c, 0, 56, 64
2, 101880, Note_on_c, 0, 55, 64
2, 102000, Note_off_c, 0, 55, 64
2, 102000, Note_on_c, 0, 56, 64
2, 102240, Note_off_c, 0, 56, 64
2, 102240, Note_on_c, 0, 53, 64
2, 102480, Note_off_c, 0, 53, 64
2, 102480, Note_on_c, 0, 56, 64
2, 102720, Note_off_c, 0, 56, 64
2, 102720, Note_on_c, 0, 50, 64
2, 102720, Note_on_c, 0, 58, 64
2, 102960, Note_off_c, 0, 58, 64
2, 102960, Note_off_c, 0, 50, 64
2, 102960, Note_on_c, 0, 56, 64
2, 103200, Note_on_c, 0, 51, 64
2, 103440, Note_off_c, 0, 51, 64
2, 103440, Note_off_c, 0, 56, 64
2, 103440, Note_on_c, 0, 55, 64
2, 103680, Note_off_c, 0, 55, 64
2, 103680, Note_on_c, 0, 53, 64
2, 103800, Note_off_c, 0, 53, 64
2, 103800, Note_on_c, 0, 51, 64
2, 103920, Note_off_c, 0, 51, 64
2, 103920, Note_on_c, 0, 50, 64
2, 104040, Note_off_c, 0, 50, 64
2, 104040, Note_on_c, 0, 48, 64
2, 104160, Note_off_c, 0, 48, 64
2, 104160, Note_on_c, 0, 46, 64
2, 104280, Note_off_c, 0, 46, 64
2, 104280, Note_on_c, 0, 44, 64
2, 104400, Note_off_c, 0, 44, 64
2, 104400, Note_on_c, 0, 51, 64
2, 104400, Note_on_c, 0, 43, 64
2, 104640, Note_off_c, 0, 43, 64
2, 104640, Note_on_c, 0, 44, 64
2, 104880, Note_off_c, 0, 51, 64
2, 104880, Note_off_c, 0, 44, 64
2, 104880, Note_on_c, 0, 53, 64
2, 105120, Note_on_c, 0, 46, 64
2, 105360, Note_off_c, 0, 46, 64
2, 105360, Note_off_c, 0, 53, 64
2, 105360, Note_on_c, 0, 50, 64
2, 105600, Note_off_c, 0, 50, 64
2, 105600, Note_on_c, 0, 48, 64
2, 105600, Note_on_c, 0, 51, 64
2, 105720, Note_off_c, 0, 51, 64
2, 105720, Note_on_c, 0, 53, 64
2, 105840, Note_off_c, 0, 53, 64
2, 105840, Note_off_c, 0, 48, 64
2, 105840, Note_on_c, 0, 55, 64
2, 106080, Note_on_c, 0, 43, 64
2, 106320, Note_off_c, 0, 43, 64
2, 106320, Note_off_c, 0, 55, 64
2, 106320, Note_on_c, 0, 51, 64
2, 106560, Note_off_c, 0, 51, 64
2, 106560, Note_on_c, 0, 44, 64
2, 106740, Note_off_c, 0, 44, 64
2, 106800, Note_on_c, 0, 53, 64
2, 106980, Note_off_c, 0, 53, 64
2, 107040, Note_on_c, 0, 46, 64
2, 107220, Note_off_c, 0, 46, 64
2, 107280, Note_on_c, 0, 50, 64
2, 107460, Note_off_c, 0, 50, 64
2, 107504, Note_on_c, 0, 27, 64
2, 107520, Note_on_c, 0, 34, 64
2, 107550, Note_on_c, 0, 51, 64
2, 107684, Note_off_c, 0, 27, 64
2, 108180, Note_off_c, 0, 34, 64
2, 108230, Note_off_c, 0, 51, 64
2, 108240, Note_on_c, 0, 58, 64
2, 108240, Note_on_c, 0, 51, 64
2, 108480, Note_off_c, 0, 51, 64
2, 108480, Note_on_c, 0, 56, 64
2, 108720, Note_off_c, 0, 56, 64
2, 108720, Note_off_c, 0, 58, 64
2, 108720, Note_on_c, 0, 60, 64
2, 108960, Note_on_c, 0, 55, 64
2, 109200, Note_off_c, 0, 55, 64
2, 109200, Note_off_c, 0, 60, 64
2, 109200, Note_on_c, 0, 58, 64
2, 109440, Note_off_c, 0, 58, 64
2, 109440, Note_on_c, 0, 56, 64
2, 109560, Note_off_c, 0, 56, 64
2, 109560, Note_on_c, 0, 55, 64
2, 109680, Note_off_c, 0, 55, 64
2, 109680, Note_on_c, 0, 56, 64
2, 109920, Note_off_c, 0, 56, 64
2, 109920, Note_on_c, 0, 53, 64
2, 110160, Note_off_c, 0, 53, 64
2, 110160, Note_on_c, 0, 56, 64
2, 110400, Note_off_c, 0, 56, 64
2, 110400, Note_on_c, 0, 50, 64
2, 110400, Note_on_c, 0, 58, 64
2, 110640, Note_off_c, 0, 58, 64
2, 110640, Note_off_c, 0, 50, 64
2, 110640, Note_on_c, 0, 56, 64
2, 110880, Note_on_c, 0, 51, 64
2, 111120, Note_off_c, 0, 51, 64
2, 111120, Note_off_c, 0, 56, 64
2, 111120, Note_on_c, 0, 55, 64
2, 111360, Note_off_c, 0, 55, 64
2, 111360, Note_on_c, 0, 53, 64
2, 111480, Note_off_c, 0, 53, 64
2, 111480, Note_on_c, 0, 51, 64
2, 111600, Note_off_c, 0, 51, 64
2, 111600, Note_on_c, 0, 50, 64
2, 111720, Note_off_c, 0, 50, 64
2, 111720, Note_on_c, 0, 48, 64
2, 111840, Note_off_c, 0, 48, 64
2, 111840, Note_on_c, 0, 46, 64
2, 111960, Note_off_c, 0, 46, 64
2, 111960, Note_on_c, 0, 44, 64
2, 112080, Note_off_c, 0, 44, 64
2, 112080, Note_on_c, 0, 51, 64
2, 112080, Note_on_c, 0, 43, 64
2, 112320, Note_off_c, 0, 43, 64
2, 112320, Note_on_c, 0, 44, 64
2, 112560, Note_off_c, 0, 51, 64
2, 112560, Note_off_c, 0, 44, 64
2, 112560, Note_on_c, 0, 53, 64
2, 112800, Note_on_c, 0, 46, 64
2, 113040, Note_off_c, 0, 46, 64
2, 113040, Note_off_c, 0, 53, 64
2, 113040, Note_on_c, 0, 50, 64
2, 113280, Note_off_c, 0, 50, 64
2, 113280, Note_on_c, 0, 48, 64
2, 113280, Note_on_c, 0, 51, 64
2, 113400, Note_off_c, 0, 51, 64
2, 113400, Note_on_c, 0, 53, 64
2, 113520, Note_off_c, 0, 53, 64
2, 113520, Note_off_c, 0, 48, 64
2, 113520, Note_on_c, 0, 55, 64
2, 113760, Note_on_c, 0, 43, 64
2, 114000, Note_off_c, 0, 43, 64
2, 114000, Note_off_c, 0, 55, 64
2, 114000, Note_on_c, 0, 51, 64
2, 114240, Note_off_c, 0, 51, 64
2, 114240, Note_on_c, 0, 44, 64
2, 114420, Note_off_c, 0, 44, 64
2, 114480, Note_on_c, 0, 53, 64
2, 114660, Note_off_c, 0, 53, 64
2, 114720, Note_on_c, 0, 46, 64
2, 114900, Note_off_c, 0, 46, 64
2, 114960, Note_on_c, 0, 50, 64
2, 115140, Note_off_c, 0, 50, 64
2, 115184, Note_on_c, 0, 27, 64
2, 115200, Note_on_c, 0, 34, 64
2, 115230, Note_on_c, 0, 51, 64
2, 115364, Note_off_c, 0, 27, 64
2, 115860, Note_off_c, 0, 34, 64
2, 115910, Note_off_c, 0, 51, 64
2, 115920, Note_on_c, 0, 51, 69
2, 115980, Note_off_c, 0, 51, 57
2, 115980, Note_on_c, 0, 53, 69
2, 116040, Note_off_c, 0, 53, 46
2, 116040, Note_on_c, 0, 55, 86
2, 116100, Note_off_c, 0, 55, 50
2, 116100, Note_on_c, 0, 56, 89
2, 116160, Note_off_c, 0, 56, 85
2, 116160, Note_on_c, 0, 58, 64
2, 116340, Note_off_c, 0, 58, 64
2, 116400, Note_on_c, 0, 60, 64
2, 116520, Note_off_c, 0, 60, 64
2, 116520, Note_on_c, 0, 56, 64
2, 116640, Note_off_c, 0, 56, 64
2, 116640, Note_on_c, 0, 58, 64
2, 116790, Note_off_c, 0, 58, 64
2, 116880, Note_on_c, 0, 60, 64
2, 117000, Note_off_c, 0, 60, 64
2, 117000, Note_on_c, 0, 55, 64
2, 117120, Note_off_c, 0, 55, 64
2, 117120, Note_on_c, 0, 56, 64
2, 117300, Note_off_c, 0, 56, 64
2, 117360, Note_on_c, 0, 53, 64
2, 117540, Note_off_c, 0, 53, 64
2, 117600, Note_on_c, 0, 41, 64
2, 117780, Note_off_c, 0, 41, 64
2, 117840, Note_on_c, 0, 50, 64
2, 117900, Note_off_c, 0, 50, 64
2, 117900, Note_on_c, 0, 51, 64
2, 117960, Note_off_c, 0, 51, 64
2, 117960, Note_on_c, 0, 53, 64
2, 118020, Note_off_c, 0, 53, 64
2, 118020, Note_on_c, 0, 55, 64
2, 118080, Note_off_c, 0, 55, 64
2, 118080, Note_on_c, 0, 56, 64
2, 118230, Note_off_c, 0, 56, 64
2, 118320, Note_on_c, 0, 58, 64
2, 118440, Note_off_c, 0, 58, 64
2, 118440, Note_on_c, 0, 55, 64
2, 118560, Note_off_c, 0, 55, 64
2, 118560, Note_on_c, 0, 56, 64
2, 118710, Note_off_c, 0, 56, 64
2, 118800, Note_on_c, 0, 58, 64
2, 118920, Note_off_c, 0, 58, 64
2, 118920, Note_on_c, 0, 53, 64
2, 119040, Note_off_c, 0, 53, 64
2, 119040, Note_on_c, 0, 55, 64
2, 119220, Note_off_c, 0, 55, 64
2, 119280, Note_on_c, 0, 51, 64
2, 119460, Note_off_c, 0, 51, 64
2, 119520, Note_on_c, 0, 39, 64
2, 119700, Note_off_c, 0, 39, 64
2, 119760, Note_on_c, 0, 51, 64
2, 119820, Note_off_c, 0, 51, 64
2, 119820, Note_on_c, 0, 53, 64
2, 119880, Note_off_c, 0, 53, 64
2, 119880, Note_on_c, 0, 55, 64
2, 119940, Note_off_c, 0, 55, 64
2, 119940, Note_on_c, 0, 56, 64
2, 120000, Note_off_c, 0, 56, 64
2, 120000, Note_on_c, 0, 58, 64
2, 120150, Note_off_c, 0, 58, 64
2, 120240, Note_on_c, 0, 46, 64
2, 120300, Note_off_c, 0, 46, 64
2, 120300, Note_on_c, 0, 48, 64
2, 120360, Note_off_c, 0, 48, 64
2, 120360, Note_on_c, 0, 50, 64
2, 120420, Note_off_c, 0, 50, 64
2, 120420, Note_on_c, 0, 51, 64
2, 120480, Note_off_c, 0, 51, 64
2, 120480, Note_on_c, 0, 53, 64
2, 120630, Note_off_c, 0, 53, 64
2, 120720, Note_on_c, 0, 56, 64
2, 120870, Note_off_c, 0, 56, 64
2, 120960, Note_on_c, 0, 56, 64
2, 121080, Note_off_c, 0, 56, 64
2, 121080, Note_on_c, 0, 55, 64
2, 121200, Note_off_c, 0, 55, 64
2, 121200, Note_on_c, 0, 53, 64
2, 121320, Note_off_c, 0, 53, 64
2, 121320, Note_on_c, 0, 51, 64
2, 121440, Note_off_c, 0, 51, 64
2, 121440, Note_on_c, 0, 53, 64
2, 121620, Note_off_c, 0, 53, 64
2, 121680, Note_on_c, 0, 51, 64
2, 121740, Note_off_c, 0, 51, 64
2, 121740, Note_on_c, 0, 53, 64
2, 121800, Note_off_c, 0, 53, 64
2, 121800, Note_on_c, 0, 55, 64
2, 121860, Note_off_c, 0, 55, 64
2, 121860, Note_on_c, 0, 56, 64
2, 121920, Note_off_c, 0, 56, 64
2, 121920, Note_on_c, 0, 58, 64
2, 122070, Note_off_c, 0, 58, 64
2, 122160, Note_on_c, 0, 46, 64
2, 122220, Note_off_c, 0, 46, 64
2, 122220, Note_on_c, 0, 48, 64
2, 122280, Note_off_c, 0, 48, 64
2, 122280, Note_on_c, 0, 50, 64
2, 122340, Note_off_c, 0, 50, 64
2, 122340, Note_on_c, 0, 51, 64
2, 122400, Note_off_c, 0, 51, 64
2, 122400, Note_on_c, 0, 53, 64
2, 122550, Note_off_c, 0, 53, 64
2, 122640, Note_on_c, 0, 56, 64
2, 122790, Note_off_c, 0, 56, 64
2, 122880, Note_on_c, 0, 56, 64
2, 123000, Note_off_c, 0, 56, 64
2, 123000, Note_on_c, 0, 55, 64
2, 123120, Note_off_c, 0, 55, 64
2, 123120, Note_on_c, 0, 53, 64
2, 123240, Note_off_c, 0, 53, 64
2, 123240, Note_on_c, 0, 51, 64
2, 123360, Note_off_c, 0, 51, 64
2, 123360, Note_on_c, 0, 53, 64
2, 123540, Note_off_c, 0, 53, 64
2, 123600, Note_on_c, 0, 53, 64
2, 123660, Note_off_c, 0, 53, 64
2, 123660, Note_on_c, 0, 55, 64
2, 123720, Note_off_c, 0, 55, 64
2, 123720, Note_on_c, 0, 57, 64
2, 123780, Note_off_c, 0, 57, 64
2, 123780, Note_on_c, 0, 58, 64
2, 123840, Note_off_c, 0, 58, 64
2, 123840, Note_on_c, 0, 60, 64
2, 123990, Note_off_c, 0, 60, 64
2, 124080, Note_on_c, 0, 57, 64
2, 124140, Note_off_c, 0, 57, 64
2, 124140, Note_on_c, 0, 58, 64
2, 124200, Note_off_c, 0, 58, 64
2, 124200, Note_on_c, 0, 60, 64
2, 124260, Note_off_c, 0, 60, 64
2, 124260, Note_on_c, 0, 62, 64
2, 124320, Note_off_c, 0, 62, 64
2, 124320, Note_on_c, 0, 63, 64
2, 124470, Note_off_c, 0, 63, 64
2, 124560, Note_on_c, 0, 53, 64
2, 124620, Note_off_c, 0, 53, 64
2, 124620, Note_on_c, 0, 55, 64
2, 124680, Note_off_c, 0, 55, 64
2, 124680, Note_on_c, 0, 57, 64
2, 124740, Note_off_c, 0, 57, 64
2, 124740, Note_on_c, 0, 58, 64
2, 124800, Note_off_c, 0, 58, 64
2, 124800, Note_on_c, 0, 60, 64
2, 124950, Note_off_c, 0, 60, 64
2, 125040, Note_on_c, 0, 57, 64
2, 125100, Note_off_c, 0, 57, 64
2, 125100, Note_on_c, 0, 58, 64
2, 125160, Note_off_c, 0, 58, 64
2, 125160, Note_on_c, 0, 60, 64
2, 125220, Note_off_c, 0, 60, 64
2, 125220, Note_on_c, 0, 62, 64
2, 125280, Note_off_c, 0, 62, 64
2, 125280, Note_on_c, 0, 63, 64
2, 125430, Note_off_c, 0, 63, 64
2, 125520, Note_on_c, 0, 62, 64
2, 125640, Note_off_c, 0, 62, 64
2, 125640, Note_on_c, 0, 60, 64
2, 125760, Note_off_c, 0, 60, 64
2, 125760, Note_on_c, 0, 62, 64
2, 125850, Note_off_c, 0, 62, 64
2, 125880, Note_on_c, 0, 58, 64
2, 125970, Note_off_c, 0, 58, 64
2, 126000, Note_on_c, 0, 55, 64
2, 126090, Note_off_c, 0, 55, 64
2, 126120, Note_on_c, 0, 58, 64
2, 126210, Note_off_c, 0, 58, 64
2, 126240, Note_on_c, 0, 51, 64
2, 126330, Note_off_c, 0, 51, 64
2, 126360, Note_on_c, 0, 60, 64
2, 126450, Note_off_c, 0, 60, 64
2, 126480, Note_on_c, 0, 53, 64
2, 126570, Note_off_c, 0, 53, 64
2, 126600, Note_on_c, 0, 57, 64
2, 126690, Note_off_c, 0, 57, 64
2, 126720, Note_on_c, 0, 58, 64
2, 126900, Note_off_c, 0, 58, 64
2, 126960, Note_on_c, 0, 53, 64
2, 127140, Note_off_c, 0, 53, 64
2, 127200, Note_on_c, 0, 46, 64
2, 127380, Note_off_c, 0, 46, 64
2, 127440, Note_on_c, 0, 46, 64
2, 127500, Note_off_c, 0, 46, 64
2, 127500, Note_on_c, 0, 48, 64
2, 127560, Note_off_c, 0, 48, 64
2, 127560, Note_on_c, 0, 50, 64
2, 127620, Note_off_c, 0, 50, 64
2, 127620, Note_on_c, 0, 51, 64
2, 127680, Note_off_c, 0, 51, 64
2, 127680, Note_on_c, 0, 53, 64
2, 127860, Note_off_c, 0, 53, 64
2, 127920, Note_on_c, 0, 55, 64
2, 128040, Note_off_c, 0, 55, 64
2, 128040, Note_on_c, 0, 51, 64
2, 128160, Note_off_c, 0, 51, 64
2, 128160, Note_on_c, 0, 53, 64
2, 128340, Note_off_c, 0, 53, 64
2, 128400, Note_on_c, 0, 58, 64
2, 128520, Note_off_c, 0, 58, 64
2, 128520, Note_on_c, 0, 53, 64
2, 128640, Note_off_c, 0, 53, 64
2, 128640, Note_on_c, 0, 55, 64
2, 128820, Note_off_c, 0, 55, 64
2, 128880, Note_on_c, 0, 51, 64
2, 129060, Note_off_c, 0, 51, 64
2, 129120, Note_on_c, 0, 39, 64
2, 129300, Note_off_c, 0, 39, 64
2, 129360, Note_on_c, 0, 56, 64
2, 129420, Note_off_c, 0, 56, 64
2, 129420, Note_on_c, 0, 55, 64
2, 129480, Note_off_c, 0, 55, 64
2, 129480, Note_on_c, 0, 53, 64
2, 129540, Note_off_c, 0, 53, 64
2, 129540, Note_on_c, 0, 51, 64
2, 129600, Note_off_c, 0, 51, 64
2, 129600, Note_on_c, 0, 50, 64
2, 129750, Note_off_c, 0, 50, 64
2, 129840, Note_on_c, 0, 53, 64
2, 129900, Note_off_c, 0, 53, 64
2, 129900, Note_on_c, 0, 51, 64
2, 129960, Note_off_c, 0, 51, 64
2, 129960, Note_on_c, 0, 50, 64
2, 130020, Note_off_c, 0, 50, 64
2, 130020, Note_on_c, 0, 48, 64
2, 130080, Note_off_c, 0, 48, 64
2, 130080, Note_on_c, 0, 47, 64
2, 130230, Note_off_c, 0, 47, 64
2, 130320, Note_on_c, 0, 50, 64
2, 130380, Note_off_c, 0, 50, 64
2, 130380, Note_on_c, 0, 48, 64
2, 130440, Note_off_c, 0, 48, 64
2, 130440, Note_on_c, 0, 47, 64
2, 130500, Note_off_c, 0, 47, 64
2, 130500, Note_on_c, 0, 45, 64
2, 130560, Note_off_c, 0, 45, 64
2, 130560, Note_on_c, 0, 43, 64
2, 130650, Note_off_c, 0, 43, 64
2, 130680, Note_on_c, 0, 50, 64
2, 130770, Note_off_c, 0, 50, 64
2, 130800, Note_on_c, 0, 53, 64
2, 130890, Note_off_c, 0, 53, 64
2, 130920, Note_on_c, 0, 59, 64
2, 131010, Note_off_c, 0, 59, 64
2, 131040, Note_on_c, 0, 62, 64
2, 131280, Note_off_c, 0, 62, 64
2, 131280, Note_on_c, 0, 55, 64
2, 131340, Note_off_c, 0, 55, 64
2, 131340, Note_on_c, 0, 53, 64
2, 131400, Note_off_c, 0, 53, 64
2, 131400, Note_on_c, 0, 51, 64
2, 131460, Note_off_c, 0, 51, 64
2, 131460, Note_on_c, 0, 50, 64
2, 131520, Note_off_c, 0, 50, 64
2, 131520, Note_on_c, 0, 51, 64
2, 131700, Note_off_c, 0, 51, 64
2, 131760, Note_on_c, 0, 36, 64
2, 131820, Note_off_c, 0, 36, 64
2, 131820, Note_on_c, 0, 38, 64
2, 131880, Note_off_c, 0, 38, 64
2, 131880, Note_on_c, 0, 39, 64
2, 131940, Note_off_c, 0, 39, 64
2, 131940, Note_on_c, 0, 41, 64
2, 132000, Note_off_c, 0, 41, 64
2, 132000, Note_on_c, 0, 43, 64
2, 132180, Note_off_c, 0, 43, 64
2, 132240, Note_on_c, 0, 62, 64
2, 132300, Note_off_c, 0, 62, 64
2, 132300, Note_on_c, 0, 60, 64
2, 132360, Note_off_c, 0, 60, 64
2, 132360, Note_on_c, 0, 59, 64
2, 132420, Note_off_c, 0, 59, 64
2, 132420, Note_on_c, 0, 57, 64
2, 132480, Note_off_c, 0, 57, 64
2, 132480, Note_on_c, 0, 55, 64
2, 132660, Note_off_c, 0, 55, 64
2, 132720, Note_on_c, 0, 43, 64
2, 132780, Note_off_c, 0, 43, 64
2, 132780, Note_on_c, 0, 45, 64
2, 132840, Note_off_c, 0, 45, 64
2, 132840, Note_on_c, 0, 47, 64
2, 132900, Note_off_c, 0, 47, 64
2, 132900, Note_on_c, 0, 48, 64
2, 132960, Note_off_c, 0, 48, 64
2, 132960, Note_on_c, 0, 50, 64
2, 133140, Note_off_c, 0, 50, 64
2, 133200, Note_on_c, 0, 67, 64
2, 133260, Note_off_c, 0, 67, 64
2, 133260, Note_on_c, 0, 65, 64
2, 133320, Note_off_c, 0, 65, 64
2, 133320, Note_on_c, 0, 63, 64
2, 133380, Note_off_c, 0, 63, 64
2, 133380, Note_on_c, 0, 62, 64
2, 133440, Note_off_c, 0, 62, 64
2, 133440, Note_on_c, 0, 63, 64
2, 133620, Note_off_c, 0, 63, 64
2, 133680, Note_on_c, 0, 63, 64
2, 133740, Note_off_c, 0, 63, 64
2, 133740, Note_on_c, 0, 62, 64
2, 133800, Note_off_c, 0, 62, 64
2, 133800, Note_on_c, 0, 60, 64
2, 133860, Note_off_c, 0, 60, 64
2, 133860, Note_on_c, 0, 59, 64
2, 133920, Note_off_c, 0, 59, 64
2, 133920, Note_on_c, 0, 60, 64
2, 134100, Note_off_c, 0, 60, 64
2, 134160, Note_on_c, 0, 60, 64
2, 134220, Note_off_c, 0, 60, 64
2, 134220, Note_on_c, 0, 58, 64
2, 134280, Note_off_c, 0, 58, 64
2, 134280, Note_on_c, 0, 56, 64
2, 134340, Note_off_c, 0, 56, 64
2, 134340, Note_on_c, 0, 55, 64
2, 134400, Note_off_c, 0, 55, 64
2, 134400, Note_on_c, 0, 56, 64
2, 134580, Note_off_c, 0, 56, 64
2, 134640, Note_on_c, 0, 56, 64
2, 134700, Note_off_c, 0, 56, 64
2, 134700, Note_on_c, 0, 55, 64
2, 134760, Note_off_c, 0, 55, 64
2, 134760, Note_on_c, 0, 53, 64
2, 134820, Note_off_c, 0, 53, 64
2, 134820, Note_on_c, 0, 51, 64
2, 134880, Note_off_c, 0, 51, 64
2, 134880, Note_on_c, 0, 50, 64
2, 135060, Note_off_c, 0, 50, 64
2, 135120, Note_on_c, 0, 60, 64
2, 135210, Note_off_c, 0, 60, 64
2, 135240, Note_on_c, 0, 59, 64
2, 135330, Note_off_c, 0, 59, 64
2, 135360, Note_on_c, 0, 60, 64
2, 135450, Note_off_c, 0, 60, 64
2, 135480, Note_on_c, 0, 56, 64
2, 135570, Note_off_c, 0, 56, 64
2, 135600, Note_on_c, 0, 53, 64
2, 135690, Note_off_c, 0, 53, 64
2, 135720, Note_on_c, 0, 56, 64
2, 135810, Note_off_c, 0, 56, 64
2, 135840, Note_on_c, 0, 50, 64
2, 135930, Note_off_c, 0, 50, 64
2, 135960, Note_on_c, 0, 60, 64
2, 136050, Note_off_c, 0, 60, 64
2, 136080, Note_on_c, 0, 55, 64
2, 136170, Note_off_c, 0, 55, 64
2, 136200, Note_on_c, 0, 59, 64
2, 136290, Note_off_c, 0, 59, 64
2, 136320, Note_on_c, 0, 60, 64
2, 136500, Note_off_c, 0, 60, 64
2, 136560, Note_on_c, 0, 43, 64
2, 136740, Note_off_c, 0, 43, 64
2, 136800, Note_on_c, 0, 36, 64
2, 136980, Note_off_c, 0, 36, 64
2, 137040, Note_on_c, 0, 48, 64
2, 137100, Note_off_c, 0, 48, 64
2, 137100, Note_on_c, 0, 50, 64
2, 137160, Note_off_c, 0, 50, 64
2, 137160, Note_on_c, 0, 52, 64
2, 137220, Note_off_c, 0, 52, 64
2, 137220, Note_on_c, 0, 53, 64
2, 137280, Note_off_c, 0, 53, 64
2, 137280, Note_on_c, 0, 55, 64
2, 137460, Note_off_c, 0, 55, 64
2, 137520, Note_on_c, 0, 56, 64
2, 137640, Note_off_c, 0, 56, 64
2, 137640, Note_on_c, 0, 53, 64
2, 137760, Note_off_c, 0, 53, 64
2, 137760, Note_on_c, 0, 55, 64
2, 137910, Note_off_c, 0, 55, 64
2, 138000, Note_on_c, 0, 60, 64
2, 138120, Note_off_c, 0, 60, 64
2, 138120, Note_on_c, 0, 55, 64
2, 138240, Note_off_c, 0, 55, 64
2, 138240, Note_on_c, 0, 58, 64
2, 138360, Note_off_c, 0, 58, 64
2, 138360, Note_on_c, 0, 56, 64
2, 138480, Note_off_c, 0, 56, 64
2, 138480, Note_on_c, 0, 55, 64
2, 138600, Note_off_c, 0, 55, 64
2, 138600, Note_on_c, 0, 53, 64
2, 138720, Note_off_c, 0, 53, 64
2, 138720, Note_on_c, 0, 63, 64
2, 138840, Note_off_c, 0, 63, 64
2, 138840, Note_on_c, 0, 62, 64
2, 138960, Note_off_c, 0, 62, 64
2, 138960, Note_on_c, 0, 60, 64
2, 139080, Note_off_c, 0, 60, 64
2, 139080, Note_on_c, 0, 58, 64
2, 139200, Note_off_c, 0, 58, 64
2, 139200, Note_on_c, 0, 63, 64
2, 139380, Note_off_c, 0, 63, 64
2, 139440, Note_on_c, 0, 51, 64
2, 139500, Note_off_c, 0, 51, 64
2, 139500, Note_on_c, 0, 53, 64
2, 139560, Note_off_c, 0, 53, 64
2, 139560, Note_on_c, 0, 55, 64
2, 139620, Note_off_c, 0, 55, 64
2, 139620, Note_on_c, 0, 56, 64
2, 139680, Note_off_c, 0, 56, 64
2, 139680, Note_on_c, 0, 58, 64
2, 139860, Note_off_c, 0, 58, 64
2, 139920, Note_on_c, 0, 60, 64
2, 140100, Note_off_c, 0, 60, 64
2, 140160, Note_on_c, 0, 51, 64
2, 140280, Note_off_c, 0, 51, 64
2, 140280, Note_on_c, 0, 50, 64
2, 140400, Note_off_c, 0, 50, 64
2, 140400, Note_on_c, 0, 48, 64
2, 140520, Note_off_c, 0, 48, 64
2, 140520, Note_on_c, 0, 50, 64
2, 140640, Note_off_c, 0, 50, 64
2, 140640, Note_on_c, 0, 46, 64
2, 140820, Note_off_c, 0, 46, 64
2, 140880, Note_on_c, 0, 46, 64
2, 140940, Note_off_c, 0, 46, 64
2, 140940, Note_on_c, 0, 48, 64
2, 141000, Note_off_c, 0, 48, 64
2, 141000, Note_on_c, 0, 50, 64
2, 141060, Note_off_c, 0, 50, 64
2, 141060, Note_on_c, 0, 51, 64
2, 141120, Note_off_c, 0, 51, 64
2, 141120, Note_on_c, 0, 53, 64
2, 141300, Note_off_c, 0, 53, 64
2, 141360, Note_on_c, 0, 50, 64
2, 141420, Note_off_c, 0, 50, 64
2, 141420, Note_on_c, 0, 51, 64
2, 141480, Note_off_c, 0, 51, 64
2, 141480, Note_on_c, 0, 53, 64
2, 141540, Note_off_c, 0, 53, 64
2, 141540, Note_on_c, 0, 55, 64
2, 141600, Note_off_c, 0, 55, 64
2, 141600, Note_on_c, 0, 56, 64
2, 141780, Note_off_c, 0, 56, 64
2, 141840, Note_on_c, 0, 46, 64
2, 141900, Note_off_c, 0, 46, 64
2, 141900, Note_on_c, 0, 48, 64
2, 141960, Note_off_c, 0, 48, 64
2, 141960, Note_on_c, 0, 50, 64
2, 142020, Note_off_c, 0, 50, 64
2, 142020, Note_on_c, 0, 51, 64
2, 142080, Note_off_c, 0, 51, 64
2, 142080, Note_on_c, 0, 53, 64
2, 142260, Note_off_c, 0, 53, 64
2, 142320, Note_on_c, 0, 50, 64
2, 142380, Note_off_c, 0, 50, 64
2, 142380, Note_on_c, 0, 51, 64
2, 142440, Note_off_c, 0, 51, 64
2, 142440, Note_on_c, 0, 53, 64
2, 142500, Note_off_c, 0, 53, 64
2, 142500, Note_on_c, 0, 55, 64
2, 142560, Note_off_c, 0, 55, 64
2, 142560, Note_on_c, 0, 56, 64
2, 142740, Note_off_c, 0, 56, 64
2, 142800, Note_on_c, 0, 51, 64
2, 142860, Note_off_c, 0, 51, 64
2, 142860, Note_on_c, 0, 53, 64
2, 142920, Note_off_c, 0, 53, 64
2, 142920, Note_on_c, 0, 55, 64
2, 142980, Note_off_c, 0, 55, 64
2, 142980, Note_on_c, 0, 56, 64
2, 143040, Note_off_c, 0, 56, 64
2, 143040, Note_on_c, 0, 58, 64
2, 143220, Note_off_c, 0, 58, 64
2, 143280, Note_on_c, 0, 55, 64
2, 143340, Note_off_c, 0, 55, 64
2, 143340, Note_on_c, 0, 56, 64
2, 143400, Note_off_c, 0, 56, 64
2, 143400, Note_on_c, 0, 58, 64
2, 143460, Note_off_c, 0, 58, 64
2, 143460, Note_on_c, 0, 60, 64
2, 143520, Note_off_c, 0, 60, 64
2, 143520, Note_on_c, 0, 61, 64
2, 143700, Note_off_c, 0, 61, 64
2, 143760, Note_on_c, 0, 51, 64
2, 143820, Note_off_c, 0, 51, 64
2, 143820, Note_on_c, 0, 53, 64
2, 143880, Note_off_c, 0, 53, 64
2, 143880, Note_on_c, 0, 55, 64
2, 143940, Note_off_c, 0, 55, 64
2, 143940, Note_on_c, 0, 56, 64
2, 144000, Note_off_c, 0, 56, 64
2, 144000, Note_on_c, 0, 58, 64
2, 144180, Note_off_c, 0, 58, 64
2, 144240, Note_on_c, 0, 55, 64
2, 144300, Note_off_c, 0, 55, 64
2, 144300, Note_on_c, 0, 56, 64
2, 144360, Note_off_c, 0, 56, 64
2, 144360, Note_on_c, 0, 58, 64
2, 144420, Note_off_c, 0, 58, 64
2, 144420, Note_on_c, 0, 60, 64
2, 144480, Note_off_c, 0, 60, 64
2, 144480, Note_on_c, 0, 61, 64
2, 144720, Note_off_c, 0, 61, 64
2, 144720, Note_on_c, 0, 60, 64
2, 144840, Note_off_c, 0, 60, 64
2, 144840, Note_on_c, 0, 58, 64
2, 144960, Note_off_c, 0, 58, 64
2, 144960, Note_on_c, 0, 60, 64
2, 145080, Note_off_c, 0, 60, 64
2, 145080, Note_on_c, 0, 58, 64
2, 145200, Note_off_c, 0, 58, 64
2, 145200, Note_on_c, 0, 58, 64
2, 145320, Note_off_c, 0, 58, 64
2, 145320, Note_on_c, 0, 56, 64
2, 145440, Note_off_c, 0, 56, 64
2, 145440, Note_on_c, 0, 58, 64
2, 145530, Note_off_c, 0, 58, 64
2, 145560, Note_on_c, 0, 55, 64
2, 145650, Note_off_c, 0, 55, 64
2, 145680, Note_on_c, 0, 43, 64
2, 145770, Note_off_c, 0, 43, 64
2, 145800, Note_on_c, 0, 55, 64
2, 145860, Note_off_c, 0, 55, 64
2, 145860, Note_on_c, 0, 56, 64
2, 145920, Note_off_c, 0, 56, 64
2, 145920, Note_on_c, 0, 58, 64
2, 146040, Note_off_c, 0, 58, 64
2, 146040, Note_on_c, 0, 55, 64
2, 146100, Note_off_c, 0, 55, 64
2, 146100, Note_on_c, 0, 56, 64
2, 146160, Note_off_c, 0, 56, 64
2, 146160, Note_on_c, 0, 58, 64
2, 146280, Note_off_c, 0, 58, 64
2, 146280, Note_on_c, 0, 56, 64
2, 146340, Note_off_c, 0, 56, 64
2, 146340, Note_on_c, 0, 55, 64
2, 146400, Note_off_c, 0, 55, 64
2, 146400, Note_on_c, 0, 56, 64
2, 146520, Note_off_c, 0, 56, 64
2, 146520, Note_on_c, 0, 53, 64
2, 146610, Note_off_c, 0, 53, 64
2, 146640, Note_on_c, 0, 41, 64
2, 146730, Note_off_c, 0, 41, 64
2, 146760, Note_on_c, 0, 56, 64
2, 146850, Note_off_c, 0, 56, 64
2, 146880, Note_on_c, 0, 55, 64
2, 146940, Note_off_c, 0, 55, 64
2, 146940, Note_on_c, 0, 53, 64
2, 147000, Note_off_c, 0, 53, 64
2, 147000, Note_on_c, 0, 51, 64
2, 147060, Note_off_c, 0, 51, 64
2, 147060, Note_on_c, 0, 50, 64
2, 147120, Note_off_c, 0, 50, 64
2, 147120, Note_on_c, 0, 51, 64
2, 147240, Note_off_c, 0, 51, 64
2, 147240, Note_on_c, 0, 58, 64
2, 147330, Note_off_c, 0, 58, 64
2, 147360, Note_on_c, 0, 55, 64
2, 147420, Note_off_c, 0, 55, 64
2, 147420, Note_on_c, 0, 53, 64
2, 147480, Note_off_c, 0, 53, 64
2, 147480, Note_on_c, 0, 51, 64
2, 147540, Note_off_c, 0, 51, 64
2, 147540, Note_on_c, 0, 50, 64
2, 147600, Note_off_c, 0, 50, 64
2, 147600, Note_on_c, 0, 51, 64
2, 147720, Note_off_c, 0, 51, 64
2, 147720, Note_on_c, 0, 63, 64
2, 147810, Note_off_c, 0, 63, 64
2, 147840, Note_on_c, 0, 56, 64
2, 147900, Note_off_c, 0, 56, 64
2, 147900, Note_on_c, 0, 55, 64
2, 147960, Note_off_c, 0, 55, 64
2, 147960, Note_on_c, 0, 53, 64
2, 148020, Note_off_c, 0, 53, 64
2, 148020, Note_on_c, 0, 55, 64
2, 148080, Note_off_c, 0, 55, 64
2, 148080, Note_on_c, 0, 56, 64
2, 148140, Note_off_c, 0, 56, 64
2, 148140, Note_on_c, 0, 55, 64
2, 148200, Note_off_c, 0, 55, 64
2, 148200, Note_on_c, 0, 53, 64
2, 148260, Note_off_c, 0, 53, 64
2, 148260, Note_on_c, 0, 55, 64
2, 148320, Note_off_c, 0, 55, 64
2, 148320, Note_on_c, 0, 56, 64
2, 148380, Note_off_c, 0, 56, 64
2, 148380, Note_on_c, 0, 55, 64
2, 148440, Note_off_c, 0, 55, 64
2, 148440, Note_on_c, 0, 53, 64
2, 148500, Note_off_c, 0, 53, 64
2, 148500, Note_on_c, 0, 51, 64
2, 148560, Note_off_c, 0, 51, 64
2, 148560, Note_on_c, 0, 50, 64
2, 148620, Note_off_c, 0, 50, 64
2, 148620, Note_on_c, 0, 48, 64
2, 148680, Note_off_c, 0, 48, 64
2, 148680, Note_on_c, 0, 46, 64
2, 148740, Note_off_c, 0, 46, 64
2, 148740, Note_on_c, 0, 44, 64
2, 148800, Note_off_c, 0, 44, 64
2, 148800, Note_on_c, 0, 43, 64
2, 148890, Note_off_c, 0, 43, 64
2, 148920, Note_on_c, 0, 51, 64
2, 149010, Note_off_c, 0, 51, 64
2, 149040, Note_on_c, 0, 60, 64
2, 149130, Note_off_c, 0, 60, 64
2, 149160, Note_on_c, 0, 56, 64
2, 149250, Note_off_c, 0, 56, 64
2, 149280, Note_on_c, 0, 58, 64
2, 149430, Note_off_c, 0, 58, 64
2, 149520, Note_on_c, 0, 60, 64
2, 149610, Note_off_c, 0, 60, 64
2, 149640, Note_on_c, 0, 55, 64
2, 149730, Note_off_c, 0, 55, 64
2, 149760, Note_on_c, 0, 56, 64
2, 149940, Note_off_c, 0, 56, 64
2, 150000, Note_on_c, 0, 53, 64
2, 150180, Note_off_c, 0, 53, 64
2, 150240, Note_on_c, 0, 41, 64
2, 150420, Note_off_c, 0, 41, 64
2, 150480, Note_on_c, 0, 60, 64
2, 150540, Note_off_c, 0, 60, 64
2, 150540, Note_on_c, 0, 58, 64
2, 150600, Note_off_c, 0, 58, 64
2, 150600, Note_on_c, 0, 56, 64
2, 150660, Note_off_c, 0, 56, 64
2, 150660, Note_on_c, 0, 55, 64
2, 150720, Note_off_c, 0, 55, 64
2, 150720, Note_on_c, 0, 53, 64
2, 150900, Note_off_c, 0, 53, 64
2, 150960, Note_on_c, 0, 56, 64
2, 151020, Note_off_c, 0, 56, 64
2, 151020, Note_on_c, 0, 55, 64
2, 151080, Note_off_c, 0, 55, 64
2, 151080, Note_on_c, 0, 53, 64
2, 151140, Note_off_c, 0, 53, 64
2, 151140, Note_on_c, 0, 51, 64
2, 151200, Note_off_c, 0, 51, 64
2, 151200, Note_on_c, 0, 50, 64
2, 151380, Note_off_c, 0, 50, 64
2, 151440, Note_on_c, 0, 53, 64
2, 151500, Note_off_c, 0, 53, 64
2, 151500, Note_on_c, 0, 51, 64
2, 151560, Note_off_c, 0, 51, 64
2, 151560, Note_on_c, 0, 50, 64
2, 151620, Note_off_c, 0, 50, 64
2, 151620, Note_on_c, 0, 48, 64
2, 151680, Note_off_c, 0, 48, 64
2, 151680, Note_on_c, 0, 46, 64
2, 151770, Note_off_c, 0, 46, 64
2, 151800, Note_on_c, 0, 50, 64
2, 151890, Note_off_c, 0, 50, 64
2, 151920, Note_on_c, 0, 53, 64
2, 152010, Note_off_c, 0, 53, 64
2, 152040, Note_on_c, 0, 56, 64
2, 152130, Note_off_c, 0, 56, 64
2, 152160, Note_on_c, 0, 65, 64
2, 152400, Note_off_c, 0, 65, 64
2, 152400, Note_on_c, 0, 63, 64
2, 152460, Note_off_c, 0, 63, 64
2, 152460, Note_on_c, 0, 62, 64
2, 152520, Note_off_c, 0, 62, 64
2, 152520, Note_on_c, 0, 60, 64
2, 152580, Note_off_c, 0, 60, 64
2, 152580, Note_on_c, 0, 58, 64
2, 152640, Note_off_c, 0, 58, 64
2, 152640, Note_on_c, 0, 63, 64
2, 152820, Note_off_c, 0, 63, 64
2, 152880, Note_on_c, 0, 51, 64
2, 152940, Note_off_c, 0, 51, 64
2, 152940, Note_on_c, 0, 53, 64
2, 153000, Note_off_c, 0, 53, 64
2, 153000, Note_on_c, 0, 55, 64
2, 153060, Note_off_c, 0, 55, 64
2, 153060, Note_on_c, 0, 56, 64
2, 153120, Note_off_c, 0, 56, 64
2, 153120, Note_on_c, 0, 58, 64
2, 153300, Note_off_c, 0, 58, 64
2, 153360, Note_on_c, 0, 60, 64
2, 153540, Note_off_c, 0, 60, 64
2, 153600, Note_on_c, 0, 51, 64
2, 153720, Note_off_c, 0, 51, 64
2, 153720, Note_on_c, 0, 50, 64
2, 153840, Note_off_c, 0, 50, 64
2, 153840, Note_on_c, 0, 48, 64
2, 153960, Note_off_c, 0, 48, 64
2, 153960, Note_on_c, 0, 50, 64
2, 154080, Note_off_c, 0, 50, 64
2, 154080, Note_on_c, 0, 46, 64
2, 154320, Note_off_c, 0, 46, 64
2, 154320, Note_on_c, 0, 63, 64
2, 154380, Note_off_c, 0, 63, 64
2, 154380, Note_on_c, 0, 62, 64
2, 154440, Note_off_c, 0, 62, 64
2, 154440, Note_on_c, 0, 60, 64
2, 154500, Note_off_c, 0, 60, 64
2, 154500, Note_on_c, 0, 58, 64
2, 154560, Note_off_c, 0, 58, 64
2, 154560, Note_on_c, 0, 63, 64
2, 154800, Note_off_c, 0, 63, 64
2, 154800, Note_on_c, 0, 51, 64
2, 154860, Note_off_c, 0, 51, 64
2, 154860, Note_on_c, 0, 53, 64
2, 154920, Note_off_c, 0, 53, 64
2, 154920, Note_on_c, 0, 55, 64
2, 154980, Note_off_c, 0, 55, 64
2, 154980, Note_on_c, 0, 56, 64
2, 155040, Note_off_c, 0, 56, 64
2, 155040, Note_on_c, 0, 58, 64
2, 155220, Note_off_c, 0, 58, 64
2, 155280, Note_on_c, 0, 60, 64
2, 155520, Note_off_c, 0, 60, 64
2, 155520, Note_on_c, 0, 61, 64
2, 155580, Note_off_c, 0, 61, 64
2, 155580, Note_on_c, 0, 60, 64
2, 155640, Note_off_c, 0, 60, 64
2, 155640, Note_on_c, 0, 58, 64
2, 155760, Note_off_c, 0, 58, 64
2, 155760, Note_on_c, 0, 60, 64
2, 156120, Note_off_c, 0, 60, 64
2, 156120, Note_on_c, 0, 58, 64
2, 156180, Note_off_c, 0, 58, 64
2, 156180, Note_on_c, 0, 56, 64
2, 156240, Note_off_c, 0, 56, 64
2, 156240, Note_on_c, 0, 58, 64
2, 156300, Note_off_c, 0, 58, 64
2, 156300, Note_on_c, 0, 56, 64
2, 156360, Note_off_c, 0, 56, 64
2, 156360, Note_on_c, 0, 55, 64
2, 156480, Note_off_c, 0, 55, 64
2, 156480, Note_on_c, 0, 56, 64
2, 156540, Note_off_c, 0, 56, 64
2, 156540, Note_on_c, 0, 55, 64
2, 156600, Note_off_c, 0, 55, 64
2, 156600, Note_on_c, 0, 53, 64
2, 156720, Note_off_c, 0, 53, 64
2, 156720, Note_on_c, 0, 55, 64
2, 157080, Note_off_c, 0, 55, 64
2, 157080, Note_on_c, 0, 53, 64
2, 157140, Note_off_c, 0, 53, 64
2, 157140, Note_on_c, 0, 51, 64
2, 157200, Note_off_c, 0, 51, 64
2, 157200, Note_on_c, 0, 53, 64
2, 157260, Note_off_c, 0, 53, 64
2, 157260, Note_on_c, 0, 51, 64
2, 157320, Note_off_c, 0, 51, 64
2, 157320, Note_on_c, 0, 50, 64
2, 157440, Note_off_c, 0, 50, 64
2, 157440, Note_on_c, 0, 51, 64
2, 157530, Note_off_c, 0, 51, 64
2, 157560, Note_on_c, 0, 46, 64
2, 157650, Note_off_c, 0, 46, 64
2, 157680, Note_on_c, 0, 43, 64
2, 157770, Note_off_c, 0, 43, 64
2, 157800, Note_on_c, 0, 46, 64
2, 157890, Note_off_c, 0, 46, 64
2, 157920, Note_on_c, 0, 39, 64
2, 158160, Note_off_c, 0, 39, 64
2, 158160, Note_on_c, 0, 46, 64
2, 158220, Note_off_c, 0, 46, 64
2, 158220, Note_on_c, 0, 48, 64
2, 158280, Note_off_c, 0, 48, 64
2, 158280, Note_on_c, 0, 50, 64
2, 158340, Note_off_c, 0, 50, 64
2, 158340, Note_on_c, 0, 51, 64
2, 158400, Note_off_c, 0, 51, 64
2, 158400, Note_on_c, 0, 53, 64
2, 158640, Note_off_c, 0, 53, 64
2, 158640, Note_on_c, 0, 50, 64
2, 158700, Note_off_c, 0, 50, 64
2, 158700, Note_on_c, 0, 51, 64
2, 158760, Note_off_c, 0, 51, 64
2, 158760, Note_on_c, 0, 53, 64
2, 158820, Note_off_c, 0, 53, 64
2, 158820, Note_on_c, 0, 55, 64
2, 158880, Note_off_c, 0, 55, 64
2, 158880, Note_on_c, 0, 56, 64
2, 159120, Note_off_c, 0, 56, 64
2, 159120, Note_on_c, 0, 46, 64
2, 159180, Note_off_c, 0, 46, 64
2, 159180, Note_on_c, 0, 48, 64
2, 159240, Note_off_c, 0, 48, 64
2, 159240, Note_on_c, 0, 50, 64
2, 159300, Note_off_c, 0, 50, 64
2, 159300, Note_on_c, 0, 51, 64
2, 159360, Note_off_c, 0, 51, 64
2, 159360, Note_on_c, 0, 53, 64
2, 159600, Note_off_c, 0, 53, 64
2, 159600, Note_on_c, 0, 50, 64
2, 159660, Note_off_c, 0, 50, 64
2, 159660, Note_on_c, 0, 51, 64
2, 159720, Note_off_c, 0, 51, 64
2, 159720, Note_on_c, 0, 53, 64
2, 159780, Note_off_c, 0, 53, 64
2, 159780, Note_on_c, 0, 55, 64
2, 159840, Note_off_c, 0, 55, 64
2, 159840, Note_on_c, 0, 56, 64
2, 160080, Note_off_c, 0, 56, 64
2, 160080, Note_on_c, 0, 55, 64
2, 160170, Note_off_c, 0, 55, 64
2, 160200, Note_on_c, 0, 53, 64
2, 160290, Note_off_c, 0, 53, 64
2, 160320, Note_on_c, 0, 55, 64
2, 160410, Note_off_c, 0, 55, 64
2, 160440, Note_on_c, 0, 58, 64
2, 160530, Note_off_c, 0, 58, 64
2, 160560, Note_on_c, 0, 63, 64
2, 160650, Note_off_c, 0, 63, 64
2, 160680, Note_on_c, 0, 55, 64
2, 160770, Note_off_c, 0, 55, 64
2, 160800, Note_on_c, 0, 53, 64
2, 160890, Note_off_c, 0, 53, 64
2, 160920, Note_on_c, 0, 51, 64
2, 161010, Note_off_c, 0, 51, 64
2, 161040, Note_on_c, 0, 46, 64
2, 161130, Note_off_c, 0, 46, 64
2, 161160, Note_on_c, 0, 62, 64
2, 161250, Note_off_c, 0, 62, 64
2, 161260, Note_on_c, 0, 39, 46
2, 161280, Note_on_c, 0, 46, 49
2, 161310, Note_on_c, 0, 55, 52
2, 161340, Note_on_c, 0, 63, 59
2, 161448, Note_off_c, 0, 39, 66
2, 161640, Note_off_c, 0, 46, 74
2, 162000, Note_off_c, 0, 63, 65
2, 162000, Note_off_c, 0, 55, 68
2, 162047, End_track
0, 0, End_of_file
