0, 0, Header, 1, 2, 240
1, 0, Start_track
1, 0, Time_signature, 4, 2, 24, 8
1, 0, Tempo, 625000
1, 0, SMPTE_offset, 0, 0, 0, 0, 0
1, 46080, Tempo, 681818
1, 48960, Tempo, 625000
1, 52560, Tempo, 659341
1, 52800, Tempo, 681818
1, 55680, Time_signature, 4, 2, 12, 8
1, 55800, Tempo, 1111111
1, 55920, Tempo, 681818
1, 56640, Time_signature, 4, 2, 6, 8
1, 56760, Tempo, 1200000
1, 56820, Tempo, 681818
1, 57120, Tempo, 1200000
1, 57180, Tempo, 689655
1, 57600, Time_signature, 4, 2, 12, 8
1, 57600, Tempo, 845070
1, 57720, Tempo, 697674
1, 57960, Tempo, 722892
1, 58080, Tempo, 759494
1, 58200, Tempo, 800000
1, 58320, Tempo, 845070
1, 58440, Tempo, 952381
1, 58560, Time_signature, 4, 2, 24, 8
1, 58560, Tempo, 625000
1, 83520, Tempo, 681818
1, 85440, Time_signature, 4, 2, 12, 8
1, 86040, Tempo, 714286
1, 86160, Tempo, 789474
1, 86280, Tempo, 857143
1, 86400, Time_signature, 4, 2, 24, 8
1, 86400, Tempo, 1200000
1, 86400, End_track
2, 0, Start_track
2, 0, Control_c, 0, 7, 127
2, 0, Note_on_c, 0, 39, 64
2, 120, Note_off_c, 0, 39, 64
2, 120, Note_on_c, 0, 63, 64
2, 240, Note_off_c, 0, 63, 64
2, 240, Note_on_c, 0, 58, 64
2, 360, Note_off_c, 0, 58, 64
2, 360, Note_on_c, 0, 55, 64
2, 480, Note_off_c, 0, 55, 64
2, 480, Note_on_c, 0, 58, 64
2, 600, Note_off_c, 0, 58, 64
2, 600, Note_on_c, 0, 51, 64
2, 720, Note_off_c, 0, 51, 64
2, 720, Note_on_c, 0, 55, 64
2, 840, Note_off_c, 0, 55, 64
2, 840, Note_on_c, 0, 46, 64
2, 960, Note_off_c, 0, 46, 64
2, 960, Note_on_c, 0, 39, 64
2, 1080, Note_off_c, 0, 39, 64
2, 1080, Note_on_c, 0, 63, 64
2, 1200, Note_off_c, 0, 63, 64
2, 1200, Note_on_c, 0, 58, 64
2, 1320, Note_off_c, 0, 58, 64
2, 1320, Note_on_c, 0, 55, 64
2, 1440, Note_off_c, 0, 55, 64
2, 1440, Note_on_c, 0, 58, 64
2, 1560, Note_off_c, 0, 58, 64
2, 1560, Note_on_c, 0, 51, 64
2, 1680, Note_off_c, 0, 51, 64
2, 1680, Note_on_c, 0, 55, 64
2, 1800, Note_off_c, 0, 55, 64
2, 1800, Note_on_c, 0, 46, 64
2, 1920, Note_off_c, 0, 46, 64
2, 1920, Note_on_c, 0, 39, 64
2, 2040, Note_off_c, 0, 39, 64
2, 2040, Note_on_c, 0, 61, 64
2, 2160, Note_off_c, 0, 61, 64
2, 2160, Note_on_c, 0, 58, 64
2, 2280, Note_off_c, 0, 58, 64
2, 2280, Note_on_c, 0, 55, 64
2, 2400, Note_off_c, 0, 55, 64
2, 2400, Note_on_c, 0, 58, 64
2, 2520, Note_off_c, 0, 58, 64
2, 2520, Note_on_c, 0, 51, 64
2, 2640, Note_off_c, 0, 51, 64
2, 2640, Note_on_c, 0, 55, 64
2, 2760, Note_off_c, 0, 55, 64
2, 2760, Note_on_c, 0, 46, 64
2, 2880, Note_off_c, 0, 46, 64
2, 2880, Note_on_c, 0, 39, 64
2, 3000, Note_off_c, 0, 39, 64
2, 3000, Note_on_c, 0, 61, 64
2, 3120, Note_off_c, 0, 61, 64
2, 3120, Note_on_c, 0, 58, 64
2, 3240, Note_off_c, 0, 58, 64
2, 3240, Note_on_c, 0, 55, 64
2, 3360, Note_off_c, 0, 55, 64
2, 3360, Note_on_c, 0, 58, 64
2, 3480, Note_off_c, 0, 58, 64
2, 3480, Note_on_c, 0, 51, 64
2, 3600, Note_off_c, 0, 51, 64
2, 3600, Note_on_c, 0, 55, 64
2, 3720, Note_off_c, 0, 55, 64
2, 3720, Note_on_c, 0, 46, 64
2, 3840, Note_off_c, 0, 46, 64
2, 3840, Note_on_c, 0, 39, 64
2, 3960, Note_off_c, 0, 39, 64
2, 3960, Note_on_c, 0, 60, 64
2, 4080, Note_off_c, 0, 60, 64
2, 4080, Note_on_c, 0, 56, 64
2, 4200, Note_off_c, 0, 56, 64
2, 4200, Note_on_c, 0, 51, 64
2, 4320, Note_off_c, 0, 51, 64
2, 4320, Note_on_c, 0, 56, 64
2, 4440, Note_off_c, 0, 56, 64
2, 4440, Note_on_c, 0, 48, 64
2, 4560, Note_off_c, 0, 48, 64
2, 4560, Note_on_c, 0, 51, 64
2, 4680, Note_off_c, 0, 51, 64
2, 4680, Note_on_c, 0, 44, 64
2, 4800, Note_off_c, 0, 44, 64
2, 4800, Note_on_c, 0, 39, 64
2, 4920, Note_off_c, 0, 39, 64
2, 4920, Note_on_c, 0, 60, 64
2, 5040, Note_off_c, 0, 60, 64
2, 5040, Note_on_c, 0, 56, 64
2, 5160, Note_off_c, 0, 56, 64
2, 5160, Note_on_c, 0, 51, 64
2, 5280, Note_off_c, 0, 51, 64
2, 5280, Note_on_c, 0, 56, 64
2, 5400, Note_off_c, 0, 56, 64
2, 5400, Note_on_c, 0, 48, 64
2, 5520, Note_off_c, 0, 48, 64
2, 5520, Note_on_c, 0, 51, 64
2, 5640, Note_off_c, 0, 51, 64
2, 5640, Note_on_c, 0, 44, 64
2, 5760, Note_off_c, 0, 44, 64
2, 5760, Note_on_c, 0, 39, 64
2, 5880, Note_off_c, 0, 39, 64
2, 5880, Note_on_c, 0, 56, 64
2, 6000, Note_off_c, 0, 56, 64
2, 6000, Note_on_c, 0, 53, 64
2, 6120, Note_off_c, 0, 53, 64
2, 6120, Note_on_c, 0, 50, 64
2, 6240, Note_off_c, 0, 50, 64
2, 6240, Note_on_c, 0, 53, 64
2, 6360, Note_off_c, 0, 53, 64
2, 6360, Note_on_c, 0, 46, 64
2, 6480, Note_off_c, 0, 46, 64
2, 6480, Note_on_c, 0, 50, 64
2, 6600, Note_off_c, 0, 50, 64
2, 6600, Note_on_c, 0, 44, 64
2, 6720, Note_off_c, 0, 44, 64
2, 6720, Note_on_c, 0, 39, 64
2, 6840, Note_off_c, 0, 39, 64
2, 6840, Note_on_c, 0, 56, 64
2, 6960, Note_off_c, 0, 56, 64
2, 6960, Note_on_c, 0, 53, 64
2, 7080, Note_off_c, 0, 53, 64
2, 7080, Note_on_c, 0, 50, 64
2, 7200, Note_off_c, 0, 50, 64
2, 7200, Note_on_c, 0, 53, 64
2, 7320, Note_off_c, 0, 53, 64
2, 7320, Note_on_c, 0, 46, 64
2, 7440, Note_off_c, 0, 46, 64
2, 7440, Note_on_c, 0, 50, 64
2, 7560, Note_off_c, 0, 50, 64
2, 7560, Note_on_c, 0, 44, 64
2, 7680, Note_off_c, 0, 44, 64
2, 7680, Note_on_c, 0, 39, 64
2, 7800, Note_off_c, 0, 39, 64
2, 7800, Note_on_c, 0, 55, 64
2, 7920, Note_off_c, 0, 55, 64
2, 7920, Note_on_c, 0, 51, 64
2, 8040, Note_off_c, 0, 51, 64
2, 8040, Note_on_c, 0, 46, 64
2, 8160, Note_off_c, 0, 46, 64
2, 8160, Note_on_c, 0, 51, 64
2, 8280, Note_off_c, 0, 51, 64
2, 8280, Note_on_c, 0, 43, 64
2, 8400, Note_off_c, 0, 43, 64
2, 8400, Note_on_c, 0, 46, 64
2, 8520, Note_off_c, 0, 46, 64
2, 8520, Note_on_c, 0, 39, 64
2, 8640, Note_off_c, 0, 39, 64
2, 8640, Note_on_c, 0, 38, 64
2, 8760, Note_off_c, 0, 38, 64
2, 8760, Note_on_c, 0, 55, 64
2, 8880, Note_off_c, 0, 55, 64
2, 8880, Note_on_c, 0, 51, 64
2, 9000, Note_off_c, 0, 51, 64
2, 9000, Note_on_c, 0, 46, 64
2, 9120, Note_off_c, 0, 46, 64
2, 9120, Note_on_c, 0, 51, 64
2, 9240, Note_off_c, 0, 51, 64
2, 9240, Note_on_c, 0, 43, 64
2, 9360, Note_off_c, 0, 43, 64
2, 9360, Note_on_c, 0, 46, 64
2, 9480, Note_off_c, 0, 46, 64
2, 9480, Note_on_c, 0, 38, 64
2, 9600, Note_off_c, 0, 38, 64
2, 9600, Note_on_c, 0, 36, 64
2, 9720, Note_off_c, 0, 36, 64
2, 9720, Note_on_c, 0, 63, 64
2, 9840, Note_off_c, 0, 63, 64
2, 9840, Note_on_c, 0, 60, 64
2, 9960, Note_off_c, 0, 60, 64
2, 9960, Note_on_c, 0, 55, 64
2, 10080, Note_off_c, 0, 55, 64
2, 10080, Note_on_c, 0, 60, 64
2, 10200, Note_off_c, 0, 60, 64
2, 10200, Note_on_c, 0, 51, 64
2, 10320, Note_off_c, 0, 51, 64
2, 10320, Note_on_c, 0, 55, 64
2, 10440, Note_off_c, 0, 55, 64
2, 10440, Note_on_c, 0, 48, 64
2, 10560, Note_off_c, 0, 48, 64
2, 10560, Note_on_c, 0, 46, 64
2, 10680, Note_off_c, 0, 46, 64
2, 10680, Note_on_c, 0, 63, 64
2, 10800, Note_off_c, 0, 63, 64
2, 10800, Note_on_c, 0, 60, 64
2, 10920, Note_off_c, 0, 60, 64
2, 10920, Note_on_c, 0, 55, 64
2, 11040, Note_off_c, 0, 55, 64
2, 11040, Note_on_c, 0, 60, 64
2, 11160, Note_off_c, 0, 60, 64
2, 11160, Note_on_c, 0, 51, 64
2, 11280, Note_off_c, 0, 51, 64
2, 11280, Note_on_c, 0, 55, 64
2, 11400, Note_off_c, 0, 55, 64
2, 11400, Note_on_c, 0, 46, 64
2, 11520, Note_off_c, 0, 46, 64
2, 11520, Note_on_c, 0, 45, 64
2, 11640, Note_off_c, 0, 45, 64
2, 11640, Note_on_c, 0, 63, 64
2, 11760, Note_off_c, 0, 63, 64
2, 11760, Note_on_c, 0, 60, 64
2, 11880, Note_off_c, 0, 60, 64
2, 11880, Note_on_c, 0, 53, 64
2, 12000, Note_off_c, 0, 53, 64
2, 12000, Note_on_c, 0, 57, 64
2, 12120, Note_off_c, 0, 57, 64
2, 12120, Note_on_c, 0, 48, 64
2, 12240, Note_off_c, 0, 48, 64
2, 12240, Note_on_c, 0, 51, 64
2, 12360, Note_off_c, 0, 51, 64
2, 12360, Note_on_c, 0, 45, 64
2, 12480, Note_off_c, 0, 45, 64
2, 12480, Note_on_c, 0, 41, 64
2, 12600, Note_off_c, 0, 41, 64
2, 12600, Note_on_c, 0, 63, 64
2, 12720, Note_off_c, 0, 63, 64
2, 12720, Note_on_c, 0, 60, 64
2, 12840, Note_off_c, 0, 60, 64
2, 12840, Note_on_c, 0, 57, 64
2, 12960, Note_off_c, 0, 57, 64
2, 12960, Note_on_c, 0, 60, 64
2, 13080, Note_off_c, 0, 60, 64
2, 13080, Note_on_c, 0, 53, 64
2, 13200, Note_off_c, 0, 53, 64
2, 13200, Note_on_c, 0, 57, 64
2, 13320, Note_off_c, 0, 57, 64
2, 13320, Note_on_c, 0, 51, 64
2, 13440, Note_off_c, 0, 51, 64
2, 13440, Note_on_c, 0, 46, 64
2, 13560, Note_off_c, 0, 46, 64
2, 13560, Note_on_c, 0, 62, 64
2, 13680, Note_off_c, 0, 62, 64
2, 13680, Note_on_c, 0, 58, 64
2, 13800, Note_off_c, 0, 58, 64
2, 13800, Note_on_c, 0, 53, 64
2, 13920, Note_off_c, 0, 53, 64
2, 13920, Note_on_c, 0, 58, 64
2, 14040, Note_off_c, 0, 58, 64
2, 14040, Note_on_c, 0, 50, 64
2, 14160, Note_off_c, 0, 50, 64
2, 14160, Note_on_c, 0, 53, 64
2, 14280, Note_off_c, 0, 53, 64
2, 14280, Note_on_c, 0, 46, 64
2, 14400, Note_off_c, 0, 46, 64
2, 14400, Note_on_c, 0, 44, 64
2, 14520, Note_off_c, 0, 44, 64
2, 14520, Note_on_c, 0, 61, 64
2, 14640, Note_off_c, 0, 61, 64
2, 14640, Note_on_c, 0, 58, 64
2, 14760, Note_off_c, 0, 58, 64
2, 14760, Note_on_c, 0, 53, 64
2, 14880, Note_off_c, 0, 53, 64
2, 14880, Note_on_c, 0, 58, 64
2, 15000, Note_off_c, 0, 58, 64
2, 15000, Note_on_c, 0, 49, 64
2, 15120, Note_off_c, 0, 49, 64
2, 15120, Note_on_c, 0, 53, 64
2, 15240, Note_off_c, 0, 53, 64
2, 15240, Note_on_c, 0, 44, 64
2, 15360, Note_off_c, 0, 44, 64
2, 15360, Note_on_c, 0, 43, 64
2, 15480, Note_off_c, 0, 43, 64
2, 15480, Note_on_c, 0, 61, 64
2, 15600, Note_off_c, 0, 61, 64
2, 15600, Note_on_c, 0, 58, 64
2, 15720, Note_off_c, 0, 58, 64
2, 15720, Note_on_c, 0, 51, 64
2, 15840, Note_off_c, 0, 51, 64
2, 15840, Note_on_c, 0, 55, 64
2, 15960, Note_off_c, 0, 55, 64
2, 15960, Note_on_c, 0, 46, 64
2, 16080, Note_off_c, 0, 46, 64
2, 16080, Note_on_c, 0, 51, 64
2, 16200, Note_off_c, 0, 51, 64
2, 16200, Note_on_c, 0, 43, 64
2, 16320, Note_off_c, 0, 43, 64
2, 16320, Note_on_c, 0, 39, 64
2, 16440, Note_off_c, 0, 39, 64
2, 16440, Note_on_c, 0, 61, 64
2, 16560, Note_off_c, 0, 61, 64
2, 16560, Note_on_c, 0, 58, 64
2, 16680, Note_off_c, 0, 58, 64
2, 16680, Note_on_c, 0, 55, 64
2, 16800, Note_off_c, 0, 55, 64
2, 16800, Note_on_c, 0, 58, 64
2, 16920, Note_off_c, 0, 58, 64
2, 16920, Note_on_c, 0, 51, 64
2, 17040, Note_off_c, 0, 51, 64
2, 17040, Note_on_c, 0, 55, 64
2, 17160, Note_off_c, 0, 55, 64
2, 17160, Note_on_c, 0, 49, 64
2, 17280, Note_off_c, 0, 49, 64
2, 17280, Note_on_c, 0, 44, 64
2, 17400, Note_off_c, 0, 44, 64
2, 17400, Note_on_c, 0, 60, 64
2, 17520, Note_off_c, 0, 60, 64
2, 17520, Note_on_c, 0, 56, 64
2, 17640, Note_off_c, 0, 56, 64
2, 17640, Note_on_c, 0, 51, 64
2, 17760, Note_off_c, 0, 51, 64
2, 17760, Note_on_c, 0, 56, 64
2, 17880, Note_off_c, 0, 56, 64
2, 17880, Note_on_c, 0, 48, 64
2, 18000, Note_off_c, 0, 48, 64
2, 18000, Note_on_c, 0, 51, 64
2, 18120, Note_off_c, 0, 51, 64
2, 18120, Note_on_c, 0, 44, 64
2, 18240, Note_off_c, 0, 44, 64
2, 18240, Note_on_c, 0, 43, 64
2, 18360, Note_off_c, 0, 43, 64
2, 18360, Note_on_c, 0, 60, 64
2, 18480, Note_off_c, 0, 60, 64
2, 18480, Note_on_c, 0, 56, 64
2, 18600, Note_off_c, 0, 56, 64
2, 18600, Note_on_c, 0, 51, 64
2, 18720, Note_off_c, 0, 51, 64
2, 18720, Note_on_c, 0, 56, 64
2, 18840, Note_off_c, 0, 56, 64
2, 18840, Note_on_c, 0, 48, 64
2, 18960, Note_off_c, 0, 48, 64
2, 18960, Note_on_c, 0, 51, 64
2, 19080, Note_off_c, 0, 51, 64
2, 19080, Note_on_c, 0, 43, 64
2, 19200, Note_off_c, 0, 43, 64
2, 19200, Note_on_c, 0, 41, 64
2, 19320, Note_off_c, 0, 41, 64
2, 19320, Note_on_c, 0, 56, 64
2, 19440, Note_off_c, 0, 56, 64
2, 19440, Note_on_c, 0, 50, 64
2, 19560, Note_off_c, 0, 50, 64
2, 19560, Note_on_c, 0, 47, 64
2, 19680, Note_off_c, 0, 47, 64
2, 19680, Note_on_c, 0, 50, 64
2, 19800, Note_off_c, 0, 50, 64
2, 19800, Note_on_c, 0, 44, 64
2, 19920, Note_off_c, 0, 44, 64
2, 19920, Note_on_c, 0, 47, 64
2, 20040, Note_off_c, 0, 47, 64
2, 20040, Note_on_c, 0, 41, 64
2, 20160, Note_off_c, 0, 41, 64
2, 20160, Note_on_c, 0, 39, 64
2, 20280, Note_off_c, 0, 39, 64
2, 20280, Note_on_c, 0, 56, 64
2, 20400, Note_off_c, 0, 56, 64
2, 20400, Note_on_c, 0, 53, 64
2, 20520, Note_off_c, 0, 53, 64
2, 20520, Note_on_c, 0, 48, 64
2, 20640, Note_off_c, 0, 48, 64
2, 20640, Note_on_c, 0, 53, 64
2, 20760, Note_off_c, 0, 53, 64
2, 20760, Note_on_c, 0, 44, 64
2, 20880, Note_off_c, 0, 44, 64
2, 20880, Note_on_c, 0, 48, 64
2, 21000, Note_off_c, 0, 48, 64
2, 21000, Note_on_c, 0, 39, 64
2, 21120, Note_off_c, 0, 39, 64
2, 21120, Note_on_c, 0, 38, 64
2, 21240, Note_off_c, 0, 38, 64
2, 21240, Note_on_c, 0, 56, 64
2, 21360, Note_off_c, 0, 56, 64
2, 21360, Note_on_c, 0, 53, 64
2, 21480, Note_off_c, 0, 53, 64
2, 21480, Note_on_c, 0, 47, 64
2, 21600, Note_off_c, 0, 47, 64
2, 21600, Note_on_c, 0, 53, 64
2, 21720, Note_off_c, 0, 53, 64
2, 21720, Note_on_c, 0, 43, 64
2, 21840, Note_off_c, 0, 43, 64
2, 21840, Note_on_c, 0, 44, 64
2, 21960, Note_off_c, 0, 44, 64
2, 21960, Note_on_c, 0, 38, 64
2, 22080, Note_off_c, 0, 38, 64
2, 22080, Note_on_c, 0, 36, 64
2, 22200, Note_off_c, 0, 36, 64
2, 22200, Note_on_c, 0, 56, 64
2, 22320, Note_off_c, 0, 56, 64
2, 22320, Note_on_c, 0, 53, 64
2, 22440, Note_off_c, 0, 53, 64
2, 22440, Note_on_c, 0, 48, 64
2, 22560, Note_off_c, 0, 48, 64
2, 22560, Note_on_c, 0, 53, 64
2, 22680, Note_off_c, 0, 53, 64
2, 22680, Note_on_c, 0, 44, 64
2, 22800, Note_off_c, 0, 44, 64
2, 22800, Note_on_c, 0, 48, 64
2, 22920, Note_off_c, 0, 48, 64
2, 22920, Note_on_c, 0, 41, 64
2, 23040, Note_off_c, 0, 41, 64
2, 23040, Note_on_c, 0, 47, 64
2, 23160, Note_off_c, 0, 47, 64
2, 23160, Note_on_c, 0, 62, 64
2, 23280, Note_off_c, 0, 62, 64
2, 23280, Note_on_c, 0, 56, 64
2, 23400, Note_off_c, 0, 56, 64
2, 23400, Note_on_c, 0, 53, 64
2, 23520, Note_off_c, 0, 53, 64
2, 23520, Note_on_c, 0, 56, 64
2, 23640, Note_off_c, 0, 56, 64
2, 23640, Note_on_c, 0, 50, 64
2, 23760, Note_off_c, 0, 50, 64
2, 23760, Note_on_c, 0, 53, 64
2, 23880, Note_off_c, 0, 53, 64
2, 23880, Note_on_c, 0, 47, 64
2, 24000, Note_off_c, 0, 47, 64
2, 24000, Note_on_c, 0, 43, 64
2, 24120, Note_off_c, 0, 43, 64
2, 24120, Note_on_c, 0, 62, 64
2, 24240, Note_off_c, 0, 62, 64
2, 24240, Note_on_c, 0, 59, 64
2, 24360, Note_off_c, 0, 59, 64
2, 24360, Note_on_c, 0, 53, 64
2, 24480, Note_off_c, 0, 53, 64
2, 24480, Note_on_c, 0, 56, 64
2, 24600, Note_off_c, 0, 56, 64
2, 24600, Note_on_c, 0, 50, 64
2, 24720, Note_off_c, 0, 50, 64
2, 24720, Note_on_c, 0, 53, 64
2, 24840, Note_off_c, 0, 53, 64
2, 24840, Note_on_c, 0, 47, 64
2, 24960, Note_off_c, 0, 47, 64
2, 24960, Note_on_c, 0, 36, 64
2, 25080, Note_off_c, 0, 36, 64
2, 25080, Note_on_c, 0, 63, 64
2, 25200, Note_off_c, 0, 63, 64
2, 25200, Note_on_c, 0, 60, 64
2, 25320, Note_off_c, 0, 60, 64
2, 25320, Note_on_c, 0, 55, 64
2, 25440, Note_off_c, 0, 55, 64
2, 25440, Note_on_c, 0, 60, 64
2, 25560, Note_off_c, 0, 60, 64
2, 25560, Note_on_c, 0, 51, 64
2, 25680, Note_off_c, 0, 51, 64
2, 25680, Note_on_c, 0, 55, 64
2, 25800, Note_off_c, 0, 55, 64
2, 25800, Note_on_c, 0, 48, 64
2, 25920, Note_off_c, 0, 48, 64
2, 25920, Note_on_c, 0, 36, 64
2, 26040, Note_off_c, 0, 36, 64
2, 26040, Note_on_c, 0, 63, 64
2, 26160, Note_off_c, 0, 63, 64
2, 26160, Note_on_c, 0, 60, 64
2, 26280, Note_off_c, 0, 60, 64
2, 26280, Note_on_c, 0, 55, 64
2, 26400, Note_off_c, 0, 55, 64
2, 26400, Note_on_c, 0, 60, 64
2, 26520, Note_off_c, 0, 60, 64
2, 26520, Note_on_c, 0, 51, 64
2, 26640, Note_off_c, 0, 51, 64
2, 26640, Note_on_c, 0, 48, 64
2, 26880, Note_off_c, 0, 48, 64
2, 26880, Note_on_c, 0, 46, 64
2, 27000, Note_off_c, 0, 46, 64
2, 27000, Note_on_c, 0, 64, 64
2, 27120, Note_off_c, 0, 64, 64
2, 27120, Note_on_c, 0, 60, 64
2, 27240, Note_off_c, 0, 60, 64
2, 27240, Note_on_c, 0, 55, 64
2, 27360, Note_off_c, 0, 55, 64
2, 27360, Note_on_c, 0, 60, 64
2, 27480, Note_off_c, 0, 60, 64
2, 27480, Note_on_c, 0, 52, 64
2, 27600, Note_off_c, 0, 52, 64
2, 27600, Note_on_c, 0, 55, 64
2, 27720, Note_off_c, 0, 55, 64
2, 27720, Note_on_c, 0, 48, 64
2, 27840, Note_off_c, 0, 48, 64
2, 27840, Note_on_c, 0, 46, 64
2, 27960, Note_off_c, 0, 46, 64
2, 27960, Note_on_c, 0, 64, 64
2, 28080, Note_off_c, 0, 64, 64
2, 28080, Note_on_c, 0, 60, 64
2, 28200, Note_off_c, 0, 60, 64
2, 28200, Note_on_c, 0, 55, 64
2, 28320, Note_off_c, 0, 55, 64
2, 28320, Note_on_c, 0, 60, 64
2, 28440, Note_off_c, 0, 60, 64
2, 28440, Note_on_c, 0, 52, 64
2, 28560, Note_off_c, 0, 52, 64
2, 28560, Note_on_c, 0, 55, 64
2, 28680, Note_off_c, 0, 55, 64
2, 28680, Note_on_c, 0, 46, 64
2, 28800, Note_off_c, 0, 46, 64
2, 28800, Note_on_c, 0, 44, 64
2, 28920, Note_off_c, 0, 44, 64
2, 28920, Note_on_c, 0, 65, 64
2, 29040, Note_off_c, 0, 65, 64
2, 29040, Note_on_c, 0, 60, 64
2, 29160, Note_off_c, 0, 60, 64
2, 29160, Note_on_c, 0, 56, 64
2, 29280, Note_off_c, 0, 56, 64
2, 29280, Note_on_c, 0, 60, 64
2, 29400, Note_off_c, 0, 60, 64
2, 29400, Note_on_c, 0, 53, 64
2, 29520, Note_off_c, 0, 53, 64
2, 29520, Note_on_c, 0, 56, 64
2, 29640, Note_off_c, 0, 56, 64
2, 29640, Note_on_c, 0, 52, 64
2, 29760, Note_off_c, 0, 52, 64
2, 29760, Note_on_c, 0, 53, 64
2, 29880, Note_off_c, 0, 53, 64
2, 29880, Note_on_c, 0, 60, 64
2, 30000, Note_off_c, 0, 60, 64
2, 30000, Note_on_c, 0, 56, 64
2, 30120, Note_off_c, 0, 56, 64
2, 30120, Note_on_c, 0, 52, 64
2, 30240, Note_off_c, 0, 52, 64
2, 30240, Note_on_c, 0, 53, 64
2, 30360, Note_off_c, 0, 53, 64
2, 30360, Note_on_c, 0, 48, 64
2, 30480, Note_off_c, 0, 48, 64
2, 30480, Note_on_c, 0, 53, 64
2, 30600, Note_off_c, 0, 53, 64
2, 30600, Note_on_c, 0, 44, 64
2, 30720, Note_off_c, 0, 44, 64
2, 30720, Note_on_c, 0, 40, 64
2, 30840, Note_off_c, 0, 40, 64
2, 30840, Note_on_c, 0, 61, 64
2, 30960, Note_off_c, 0, 61, 64
2, 30960, Note_on_c, 0, 58, 64
2, 31080, Note_off_c, 0, 58, 64
2, 31080, Note_on_c, 0, 55, 64
2, 31200, Note_off_c, 0, 55, 64
2, 31200, Note_on_c, 0, 58, 64
2, 31320, Note_off_c, 0, 58, 64
2, 31320, Note_on_c, 0, 52, 64
2, 31440, Note_off_c, 0, 52, 64
2, 31440, Note_on_c, 0, 55, 64
2, 31560, Note_off_c, 0, 55, 64
2, 31560, Note_on_c, 0, 48, 64
2, 31680, Note_off_c, 0, 48, 64
2, 31680, Note_on_c, 0, 49, 64
2, 31800, Note_off_c, 0, 49, 64
2, 31800, Note_on_c, 0, 58, 64
2, 31920, Note_off_c, 0, 58, 64
2, 31920, Note_on_c, 0, 55, 64
2, 32040, Note_off_c, 0, 55, 64
2, 32040, Note_on_c, 0, 52, 64
2, 32160, Note_off_c, 0, 52, 64
2, 32160, Note_on_c, 0, 55, 64
2, 32280, Note_off_c, 0, 55, 64
2, 32280, Note_on_c, 0, 46, 64
2, 32400, Note_off_c, 0, 46, 64
2, 32400, Note_on_c, 0, 49, 64
2, 32520, Note_off_c, 0, 49, 64
2, 32520, Note_on_c, 0, 40, 64
2, 32640, Note_off_c, 0, 40, 64
2, 32640, Note_on_c, 0, 41, 64
2, 32760, Note_off_c, 0, 41, 64
2, 32760, Note_on_c, 0, 58, 64
2, 32880, Note_off_c, 0, 58, 64
2, 32880, Note_on_c, 0, 56, 64
2, 33000, Note_off_c, 0, 56, 64
2, 33000, Note_on_c, 0, 52, 64
2, 33120, Note_off_c, 0, 52, 64
2, 33120, Note_on_c, 0, 53, 64
2, 33240, Note_off_c, 0, 53, 64
2, 33240, Note_on_c, 0, 44, 64
2, 33360, Note_off_c, 0, 44, 64
2, 33360, Note_on_c, 0, 48, 64
2, 33480, Note_off_c, 0, 48, 64
2, 33480, Note_on_c, 0, 41, 64
2, 33600, Note_off_c, 0, 41, 64
2, 33600, Note_on_c, 0, 39, 64
2, 33720, Note_off_c, 0, 39, 64
2, 33720, Note_on_c, 0, 56, 64
2, 33840, Note_off_c, 0, 56, 64
2, 33840, Note_on_c, 0, 53, 64
2, 33960, Note_off_c, 0, 53, 64
2, 33960, Note_on_c, 0, 48, 64
2, 34080, Note_off_c, 0, 48, 64
2, 34080, Note_on_c, 0, 53, 64
2, 34200, Note_off_c, 0, 53, 64
2, 34200, Note_on_c, 0, 44, 64
2, 34320, Note_off_c, 0, 44, 64
2, 34320, Note_on_c, 0, 48, 64
2, 34440, Note_off_c, 0, 48, 64
2, 34440, Note_on_c, 0, 39, 64
2, 34560, Note_off_c, 0, 39, 64
2, 34560, Note_on_c, 0, 38, 64
2, 34680, Note_off_c, 0, 38, 64
2, 34680, Note_on_c, 0, 56, 64
2, 34800, Note_off_c, 0, 56, 64
2, 34800, Note_on_c, 0, 53, 64
2, 34920, Note_off_c, 0, 53, 64
2, 34920, Note_on_c, 0, 50, 64
2, 35040, Note_off_c, 0, 50, 64
2, 35040, Note_on_c, 0, 53, 64
2, 35160, Note_off_c, 0, 53, 64
2, 35160, Note_on_c, 0, 46, 64
2, 35280, Note_off_c, 0, 46, 64
2, 35280, Note_on_c, 0, 50, 64
2, 35400, Note_off_c, 0, 50, 64
2, 35400, Note_on_c, 0, 53, 64
2, 35520, Note_off_c, 0, 53, 64
2, 35520, Note_on_c, 0, 56, 64
2, 35640, Note_off_c, 0, 56, 64
2, 35640, Note_on_c, 0, 38, 64
2, 35760, Note_off_c, 0, 38, 64
2, 35760, Note_on_c, 0, 41, 64
2, 35880, Note_off_c, 0, 41, 64
2, 35880, Note_on_c, 0, 46, 64
2, 36000, Note_off_c, 0, 46, 64
2, 36000, Note_on_c, 0, 50, 64
2, 36120, Note_off_c, 0, 50, 64
2, 36120, Note_on_c, 0, 46, 64
2, 36240, Note_off_c, 0, 46, 64
2, 36240, Note_on_c, 0, 56, 64
2, 36360, Note_off_c, 0, 56, 64
2, 36360, Note_on_c, 0, 53, 64
2, 36480, Note_off_c, 0, 53, 64
2, 36480, Note_on_c, 0, 39, 64
2, 36600, Note_off_c, 0, 39, 64
2, 36600, Note_on_c, 0, 55, 64
2, 36720, Note_off_c, 0, 55, 64
2, 36720, Note_on_c, 0, 51, 64
2, 36840, Note_off_c, 0, 51, 64
2, 36840, Note_on_c, 0, 46, 64
2, 36960, Note_off_c, 0, 46, 64
2, 36960, Note_on_c, 0, 51, 64
2, 37080, Note_off_c, 0, 51, 64
2, 37080, Note_on_c, 0, 43, 64
2, 37200, Note_off_c, 0, 43, 64
2, 37200, Note_on_c, 0, 46, 64
2, 37320, Note_off_c, 0, 46, 64
2, 37320, Note_on_c, 0, 39, 64
2, 37440, Note_off_c, 0, 39, 64
2, 37440, Note_on_c, 0, 43, 64
2, 37560, Note_off_c, 0, 43, 64
2, 37560, Note_on_c, 0, 46, 64
2, 37680, Note_off_c, 0, 46, 64
2, 37680, Note_on_c, 0, 51, 64
2, 37800, Note_off_c, 0, 51, 64
2, 37800, Note_on_c, 0, 46, 64
2, 37920, Note_off_c, 0, 46, 64
2, 37920, Note_on_c, 0, 55, 64
2, 38040, Note_off_c, 0, 55, 64
2, 38040, Note_on_c, 0, 51, 64
2, 38160, Note_off_c, 0, 51, 64
2, 38160, Note_on_c, 0, 58, 64
2, 38280, Note_off_c, 0, 58, 64
2, 38280, Note_on_c, 0, 55, 64
2, 38400, Note_off_c, 0, 55, 64
2, 38400, Note_on_c, 0, 60, 64
2, 38520, Note_off_c, 0, 60, 64
2, 38520, Note_on_c, 0, 45, 64
2, 38640, Note_off_c, 0, 45, 64
2, 38640, Note_on_c, 0, 48, 64
2, 38760, Note_off_c, 0, 48, 64
2, 38760, Note_on_c, 0, 54, 64
2, 38880, Note_off_c, 0, 54, 64
2, 38880, Note_on_c, 0, 57, 64
2, 39000, Note_off_c, 0, 57, 64
2, 39000, Note_on_c, 0, 54, 64
2, 39120, Note_off_c, 0, 54, 64
2, 39120, Note_on_c, 0, 60, 64
2, 39240, Note_off_c, 0, 60, 64
2, 39240, Note_on_c, 0, 57, 64
2, 39360, Note_off_c, 0, 57, 64
2, 39360, Note_on_c, 0, 63, 64
2, 39480, Note_off_c, 0, 63, 64
2, 39480, Note_on_c, 0, 43, 64
2, 39600, Note_off_c, 0, 43, 64
2, 39600, Note_on_c, 0, 48, 64
2, 39720, Note_off_c, 0, 48, 64
2, 39720, Note_on_c, 0, 51, 64
2, 39840, Note_off_c, 0, 51, 64
2, 39840, Note_on_c, 0, 55, 64
2, 39960, Note_off_c, 0, 55, 64
2, 39960, Note_on_c, 0, 51, 64
2, 40080, Note_off_c, 0, 51, 64
2, 40080, Note_on_c, 0, 60, 64
2, 40200, Note_off_c, 0, 60, 64
2, 40200, Note_on_c, 0, 55, 64
2, 40320, Note_off_c, 0, 55, 64
2, 40320, Note_on_c, 0, 63, 64
2, 40440, Note_off_c, 0, 63, 64
2, 40440, Note_on_c, 0, 42, 64
2, 40560, Note_off_c, 0, 42, 64
2, 40560, Note_on_c, 0, 45, 64
2, 40680, Note_off_c, 0, 45, 64
2, 40680, Note_on_c, 0, 48, 64
2, 40800, Note_off_c, 0, 48, 64
2, 40800, Note_on_c, 0, 51, 64
2, 40920, Note_off_c, 0, 51, 64
2, 40920, Note_on_c, 0, 48, 64
2, 41040, Note_off_c, 0, 48, 64
2, 41040, Note_on_c, 0, 54, 64
2, 41160, Note_off_c, 0, 54, 64
2, 41160, Note_on_c, 0, 48, 64
2, 41280, Note_off_c, 0, 48, 64
2, 41280, Note_on_c, 0, 57, 64
2, 41400, Note_off_c, 0, 57, 64
2, 41400, Note_on_c, 0, 50, 64
2, 41520, Note_off_c, 0, 50, 64
2, 41520, Note_on_c, 0, 54, 64
2, 41640, Note_off_c, 0, 54, 64
2, 41640, Note_on_c, 0, 57, 64
2, 41760, Note_off_c, 0, 57, 64
2, 41760, Note_on_c, 0, 60, 64
2, 41880, Note_off_c, 0, 60, 64
2, 41880, Note_on_c, 0, 57, 64
2, 42000, Note_off_c, 0, 57, 64
2, 42000, Note_on_c, 0, 62, 64
2, 42120, Note_off_c, 0, 62, 64
2, 42120, Note_on_c, 0, 57, 64
2, 42240, Note_off_c, 0, 57, 64
2, 42240, Note_on_c, 0, 43, 64
2, 42360, Note_off_c, 0, 43, 64
2, 42360, Note_on_c, 0, 58, 64
2, 42480, Note_off_c, 0, 58, 64
2, 42480, Note_on_c, 0, 55, 64
2, 42600, Note_off_c, 0, 55, 64
2, 42600, Note_on_c, 0, 50, 64
2, 42720, Note_off_c, 0, 50, 64
2, 42720, Note_on_c, 0, 55, 64
2, 42840, Note_off_c, 0, 55, 64
2, 42840, Note_on_c, 0, 46, 64
2, 42960, Note_off_c, 0, 46, 64
2, 42960, Note_on_c, 0, 50, 64
2, 43080, Note_off_c, 0, 50, 64
2, 43080, Note_on_c, 0, 43, 64
2, 43200, Note_off_c, 0, 43, 64
2, 43200, Note_on_c, 0, 41, 64
2, 43320, Note_off_c, 0, 41, 64
2, 43320, Note_on_c, 0, 58, 64
2, 43440, Note_off_c, 0, 58, 64
2, 43440, Note_on_c, 0, 55, 64
2, 43560, Note_off_c, 0, 55, 64
2, 43560, Note_on_c, 0, 50, 64
2, 43680, Note_off_c, 0, 50, 64
2, 43680, Note_on_c, 0, 55, 64
2, 43800, Note_off_c, 0, 55, 64
2, 43800, Note_on_c, 0, 46, 64
2, 43920, Note_off_c, 0, 46, 64
2, 43920, Note_on_c, 0, 50, 64
2, 44040, Note_off_c, 0, 50, 64
2, 44040, Note_on_c, 0, 43, 64
2, 44160, Note_off_c, 0, 43, 64
2, 44160, Note_on_c, 0, 39, 64
2, 44280, Note_off_c, 0, 39, 64
2, 44280, Note_on_c, 0, 58, 64
2, 44400, Note_off_c, 0, 58, 64
2, 44400, Note_on_c, 0, 55, 64
2, 44520, Note_off_c, 0, 55, 64
2, 44520, Note_on_c, 0, 50, 64
2, 44640, Note_off_c, 0, 50, 64
2, 44640, Note_on_c, 0, 55, 64
2, 44760, Note_off_c, 0, 55, 64
2, 44760, Note_on_c, 0, 46, 64
2, 44880, Note_off_c, 0, 46, 64
2, 44880, Note_on_c, 0, 50, 64
2, 45000, Note_off_c, 0, 50, 64
2, 45000, Note_on_c, 0, 43, 64
2, 45120, Note_off_c, 0, 43, 64
2, 45120, Note_on_c, 0, 38, 64
2, 45240, Note_off_c, 0, 38, 64
2, 45240, Note_on_c, 0, 58, 64
2, 45360, Note_off_c, 0, 58, 64
2, 45360, Note_on_c, 0, 55, 64
2, 45480, Note_off_c, 0, 55, 64
2, 45480, Note_on_c, 0, 50, 64
2, 45600, Note_off_c, 0, 50, 64
2, 45600, Note_on_c, 0, 55, 64
2, 45720, Note_off_c, 0, 55, 64
2, 45720, Note_on_c, 0, 46, 64
2, 45840, Note_off_c, 0, 46, 64
2, 45840, Note_on_c, 0, 50, 64
2, 45960, Note_off_c, 0, 50, 64
2, 45960, Note_on_c, 0, 43, 64
2, 46080, Note_off_c, 0, 43, 64
2, 46080, Note_on_c, 0, 37, 64
2, 46560, Note_off_c, 0, 37, 64
2, 46680, Note_on_c, 0, 49, 64
2, 46740, Note_off_c, 0, 49, 64
2, 46740, Note_on_c, 0, 50, 64
2, 46800, Note_off_c, 0, 50, 64
2, 46800, Note_on_c, 0, 52, 64
2, 46860, Note_off_c, 0, 52, 64
2, 46860, Note_on_c, 0, 54, 64
2, 46920, Note_off_c, 0, 54, 64
2, 46920, Note_on_c, 0, 55, 64
2, 46980, Note_off_c, 0, 55, 64
2, 46980, Note_on_c, 0, 57, 64
2, 47040, Note_off_c, 0, 57, 64
2, 47040, Note_on_c, 0, 58, 64
2, 47100, Note_off_c, 0, 58, 64
2, 47100, Note_on_c, 0, 57, 64
2, 47160, Note_off_c, 0, 57, 64
2, 47160, Note_on_c, 0, 55, 64
2, 47220, Note_off_c, 0, 55, 64
2, 47220, Note_on_c, 0, 54, 64
2, 47280, Note_off_c, 0, 54, 64
2, 47280, Note_on_c, 0, 55, 64
2, 47340, Note_off_c, 0, 55, 64
2, 47340, Note_on_c, 0, 52, 64
2, 47400, Note_off_c, 0, 52, 64
2, 47400, Note_on_c, 0, 49, 64
2, 47460, Note_off_c, 0, 49, 64
2, 47460, Note_on_c, 0, 50, 64
2, 47520, Note_off_c, 0, 50, 64
2, 47520, Note_on_c, 0, 52, 64
2, 47580, Note_off_c, 0, 52, 64
2, 47580, Note_on_c, 0, 54, 64
2, 47640, Note_off_c, 0, 54, 64
2, 47640, Note_on_c, 0, 55, 64
2, 47700, Note_off_c, 0, 55, 64
2, 47700, Note_on_c, 0, 57, 64
2, 47760, Note_off_c, 0, 57, 64
2, 47760, Note_on_c, 0, 58, 64
2, 47820, Note_off_c, 0, 58, 64
2, 47820, Note_on_c, 0, 57, 64
2, 47880, Note_off_c, 0, 57, 64
2, 47880, Note_on_c, 0, 55, 64
2, 47940, Note_off_c, 0, 55, 64
2, 47940, Note_on_c, 0, 57, 64
2, 48000, Note_off_c, 0, 57, 64
2, 48000, Note_on_c, 0, 58, 64
2, 48060, Note_off_c, 0, 58, 64
2, 48060, Note_on_c, 0, 60, 64
2, 48120, Note_off_c, 0, 60, 64
2, 48120, Note_on_c, 0, 62, 64
2, 48180, Note_off_c, 0, 62, 64
2, 48180, Note_on_c, 0, 60, 64
2, 48240, Note_off_c, 0, 60, 64
2, 48240, Note_on_c, 0, 63, 64
2, 48300, Note_off_c, 0, 63, 64
2, 48300, Note_on_c, 0, 62, 64
2, 48360, Note_off_c, 0, 62, 64
2, 48360, Note_on_c, 0, 60, 64
2, 48420, Note_off_c, 0, 60, 64
2, 48420, Note_on_c, 0, 58, 64
2, 48480, Note_off_c, 0, 58, 64
2, 48480, Note_on_c, 0, 57, 64
2, 48540, Note_off_c, 0, 57, 64
2, 48540, Note_on_c, 0, 58, 64
2, 48600, Note_off_c, 0, 58, 64
2, 48600, Note_on_c, 0, 60, 64
2, 48660, Note_off_c, 0, 60, 64
2, 48660, Note_on_c, 0, 58, 64
2, 48720, Note_off_c, 0, 58, 64
2, 48720, Note_on_c, 0, 57, 64
2, 48780, Note_off_c, 0, 57, 64
2, 48780, Note_on_c, 0, 55, 64
2, 48840, Note_off_c, 0, 55, 64
2, 48840, Note_on_c, 0, 54, 64
2, 48900, Note_off_c, 0, 54, 64
2, 48900, Note_on_c, 0, 55, 64
2, 48960, Note_off_c, 0, 55, 64
2, 48960, Note_on_c, 0, 38, 64
2, 49080, Note_off_c, 0, 38, 64
2, 49080, Note_on_c, 0, 60, 64
2, 49200, Note_off_c, 0, 60, 64
2, 49200, Note_on_c, 0, 57, 64
2, 49320, Note_off_c, 0, 57, 64
2, 49320, Note_on_c, 0, 54, 64
2, 49440, Note_off_c, 0, 54, 64
2, 49440, Note_on_c, 0, 57, 64
2, 49560, Note_off_c, 0, 57, 64
2, 49560, Note_on_c, 0, 50, 64
2, 49680, Note_off_c, 0, 50, 64
2, 49680, Note_on_c, 0, 54, 64
2, 49800, Note_off_c, 0, 54, 64
2, 49800, Note_on_c, 0, 45, 64
2, 49920, Note_off_c, 0, 45, 64
2, 49920, Note_on_c, 0, 38, 64
2, 50040, Note_off_c, 0, 38, 64
2, 50040, Note_on_c, 0, 60, 64
2, 50160, Note_off_c, 0, 60, 64
2, 50160, Note_on_c, 0, 57, 64
2, 50280, Note_off_c, 0, 57, 64
2, 50280, Note_on_c, 0, 54, 64
2, 50400, Note_off_c, 0, 54, 64
2, 50400, Note_on_c, 0, 57, 64
2, 50520, Note_off_c, 0, 57, 64
2, 50520, Note_on_c, 0, 50, 64
2, 50640, Note_off_c, 0, 50, 64
2, 50640, Note_on_c, 0, 54, 64
2, 50760, Note_off_c, 0, 54, 64
2, 50760, Note_on_c, 0, 45, 64
2, 50880, Note_off_c, 0, 45, 64
2, 50880, Note_on_c, 0, 38, 64
2, 51000, Note_off_c, 0, 38, 64
2, 51000, Note_on_c, 0, 58, 64
2, 51120, Note_off_c, 0, 58, 64
2, 51120, Note_on_c, 0, 55, 64
2, 51240, Note_off_c, 0, 55, 64
2, 51240, Note_on_c, 0, 50, 64
2, 51360, Note_off_c, 0, 50, 64
2, 51360, Note_on_c, 0, 55, 64
2, 51480, Note_off_c, 0, 55, 64
2, 51480, Note_on_c, 0, 46, 64
2, 51600, Note_off_c, 0, 46, 64
2, 51600, Note_on_c, 0, 50, 64
2, 51720, Note_off_c, 0, 50, 64
2, 51720, Note_on_c, 0, 43, 64
2, 51840, Note_off_c, 0, 43, 64
2, 51840, Note_on_c, 0, 38, 64
2, 51960, Note_off_c, 0, 38, 64
2, 51960, Note_on_c, 0, 58, 64
2, 52080, Note_off_c, 0, 58, 64
2, 52080, Note_on_c, 0, 55, 64
2, 52200, Note_off_c, 0, 55, 64
2, 52200, Note_on_c, 0, 50, 64
2, 52320, Note_off_c, 0, 50, 64
2, 52320, Note_on_c, 0, 55, 64
2, 52440, Note_off_c, 0, 55, 64
2, 52440, Note_on_c, 0, 46, 64
2, 52560, Note_off_c, 0, 46, 64
2, 52560, Note_on_c, 0, 50, 64
2, 52680, Note_off_c, 0, 50, 64
2, 52680, Note_on_c, 0, 43, 64
2, 52800, Note_off_c, 0, 43, 64
2, 52800, Note_on_c, 0, 38, 64
2, 52860, Note_off_c, 0, 38, 64
2, 52860, Note_on_c, 0, 61, 64
2, 52920, Note_off_c, 0, 61, 64
2, 52920, Note_on_c, 0, 58, 64
2, 52980, Note_off_c, 0, 58, 64
2, 52980, Note_on_c, 0, 57, 64
2, 53040, Note_off_c, 0, 57, 64
2, 53040, Note_on_c, 0, 58, 64
2, 53100, Note_off_c, 0, 58, 64
2, 53100, Note_on_c, 0, 61, 64
2, 53160, Note_off_c, 0, 61, 64
2, 53160, Note_on_c, 0, 58, 64
2, 53220, Note_off_c, 0, 58, 64
2, 53220, Note_on_c, 0, 57, 64
2, 53280, Note_off_c, 0, 57, 64
2, 53280, Note_on_c, 0, 58, 64
2, 53340, Note_off_c, 0, 58, 64
2, 53340, Note_on_c, 0, 61, 64
2, 53400, Note_off_c, 0, 61, 64
2, 53400, Note_on_c, 0, 58, 64
2, 53460, Note_off_c, 0, 58, 64
2, 53460, Note_on_c, 0, 57, 64
2, 53520, Note_off_c, 0, 57, 64
2, 53520, Note_on_c, 0, 58, 64
2, 53580, Note_off_c, 0, 58, 64
2, 53580, Note_on_c, 0, 61, 64
2, 53640, Note_off_c, 0, 61, 64
2, 53640, Note_on_c, 0, 58, 64
2, 53700, Note_off_c, 0, 58, 64
2, 53700, Note_on_c, 0, 57, 64
2, 53760, Note_off_c, 0, 57, 64
2, 53760, Note_on_c, 0, 55, 64
2, 53820, Note_off_c, 0, 55, 64
2, 53820, Note_on_c, 0, 58, 64
2, 53880, Note_off_c, 0, 58, 64
2, 53880, Note_on_c, 0, 55, 64
2, 53940, Note_off_c, 0, 55, 64
2, 53940, Note_on_c, 0, 54, 64
2, 54000, Note_off_c, 0, 54, 64
2, 54000, Note_on_c, 0, 55, 64
2, 54060, Note_off_c, 0, 55, 64
2, 54060, Note_on_c, 0, 58, 64
2, 54120, Note_off_c, 0, 58, 64
2, 54120, Note_on_c, 0, 55, 64
2, 54180, Note_off_c, 0, 55, 64
2, 54180, Note_on_c, 0, 54, 64
2, 54240, Note_off_c, 0, 54, 64
2, 54240, Note_on_c, 0, 55, 64
2, 54300, Note_off_c, 0, 55, 64
2, 54300, Note_on_c, 0, 58, 64
2, 54360, Note_off_c, 0, 58, 64
2, 54360, Note_on_c, 0, 55, 64
2, 54420, Note_off_c, 0, 55, 64
2, 54420, Note_on_c, 0, 54, 64
2, 54480, Note_off_c, 0, 54, 64
2, 54480, Note_on_c, 0, 55, 64
2, 54540, Note_off_c, 0, 55, 64
2, 54540, Note_on_c, 0, 58, 64
2, 54600, Note_off_c, 0, 58, 64
2, 54600, Note_on_c, 0, 55, 64
2, 54660, Note_off_c, 0, 55, 64
2, 54660, Note_on_c, 0, 54, 64
2, 54720, Note_off_c, 0, 54, 64
2, 54720, Note_on_c, 0, 52, 64
2, 54780, Note_off_c, 0, 52, 64
2, 54780, Note_on_c, 0, 55, 64
2, 54840, Note_off_c, 0, 55, 64
2, 54840, Note_on_c, 0, 52, 64
2, 54900, Note_off_c, 0, 52, 64
2, 54900, Note_on_c, 0, 50, 64
2, 54960, Note_off_c, 0, 50, 64
2, 54960, Note_on_c, 0, 49, 64
2, 55020, Note_off_c, 0, 49, 64
2, 55020, Note_on_c, 0, 52, 64
2, 55080, Note_off_c, 0, 52, 64
2, 55080, Note_on_c, 0, 49, 64
2, 55140, Note_off_c, 0, 49, 64
2, 55140, Note_on_c, 0, 47, 64
2, 55200, Note_off_c, 0, 47, 64
2, 55200, Note_on_c, 0, 45, 64
2, 55260, Note_off_c, 0, 45, 64
2, 55260, Note_on_c, 0, 49, 64
2, 55320, Note_off_c, 0, 49, 64
2, 55320, Note_on_c, 0, 45, 64
2, 55380, Note_off_c, 0, 45, 64
2, 55380, Note_on_c, 0, 43, 64
2, 55440, Note_off_c, 0, 43, 64
2, 55440, Note_on_c, 0, 42, 64
2, 55500, Note_off_c, 0, 42, 64
2, 55500, Note_on_c, 0, 45, 64
2, 55560, Note_off_c, 0, 45, 64
2, 55560, Note_on_c, 0, 42, 64
2, 55620, Note_off_c, 0, 42, 64
2, 55620, Note_on_c, 0, 51, 64
2, 55680, Note_off_c, 0, 51, 64
2, 55680, Note_on_c, 0, 38, 80
2, 55710, Note_on_c, 0, 50, 64
2, 55740, Note_on_c, 0, 54, 64
2, 55770, Note_off_c, 0, 38, 64
2, 55800, Note_off_c, 0, 50, 64
2, 55800, Note_on_c, 0, 63, 64
2, 55860, Note_off_c, 0, 54, 64
2, 55950, Note_off_c, 0, 63, 64
2, 55980, Note_on_c, 0, 62, 64
2, 56040, Note_off_c, 0, 62, 64
2, 56040, Note_on_c, 0, 60, 64
2, 56100, Note_off_c, 0, 60, 64
2, 56100, Note_on_c, 0, 58, 64
2, 56160, Note_off_c, 0, 58, 64
2, 56160, Note_on_c, 0, 57, 64
2, 56220, Note_off_c, 0, 57, 64
2, 56220, Note_on_c, 0, 55, 64
2, 56280, Note_off_c, 0, 55, 64
2, 56280, Note_on_c, 0, 54, 64
2, 56340, Note_off_c, 0, 54, 64
2, 56340, Note_on_c, 0, 52, 64
2, 56400, Note_off_c, 0, 52, 64
2, 56400, Note_on_c, 0, 50, 64
2, 56460, Note_off_c, 0, 50, 64
2, 56460, Note_on_c, 0, 48, 64
2, 56520, Note_off_c, 0, 48, 64
2, 56520, Note_on_c, 0, 46, 64
2, 56580, Note_off_c, 0, 46, 64
2, 56580, Note_on_c, 0, 45, 64
2, 56640, Note_off_c, 0, 45, 64
2, 56640, Note_on_c, 0, 38, 64
2, 56670, Note_on_c, 0, 46, 64
2, 56685, Note_on_c, 0, 55, 64
2, 56700, Note_on_c, 0, 62, 64
2, 56775, Note_off_c, 0, 38, 64
2, 56790, Note_off_c, 0, 46, 64
2, 56805, Note_off_c, 0, 55, 64
2, 56820, Note_off_c, 0, 62, 64
2, 56820, Note_on_c, 0, 60, 64
2, 56880, Note_off_c, 0, 60, 64
2, 56880, Note_on_c, 0, 58, 64
2, 56940, Note_off_c, 0, 58, 64
2, 56940, Note_on_c, 0, 57, 64
2, 57000, Note_off_c, 0, 57, 64
2, 57000, Note_on_c, 0, 58, 64
2, 57060, Note_off_c, 0, 58, 64
2, 57060, Note_on_c, 0, 55, 64
2, 57110, Note_off_c, 0, 55, 64
2, 57120, Note_on_c, 0, 49, 64
2, 57130, Note_on_c, 0, 55, 64
2, 57144, Note_on_c, 0, 58, 64
2, 57240, Note_off_c, 0, 49, 64
2, 57250, Note_off_c, 0, 55, 64
2, 57294, Note_off_c, 0, 58, 64
2, 57300, Note_on_c, 0, 57, 64
2, 57360, Note_off_c, 0, 57, 64
2, 57360, Note_on_c, 0, 55, 64
2, 57420, Note_off_c, 0, 55, 64
2, 57420, Note_on_c, 0, 54, 64
2, 57480, Note_off_c, 0, 54, 64
2, 57480, Note_on_c, 0, 55, 64
2, 57540, Note_off_c, 0, 55, 64
2, 57540, Note_on_c, 0, 49, 64
2, 57600, Note_off_c, 0, 49, 64
2, 57600, Note_on_c, 0, 50, 64
2, 57600, Note_on_c, 0, 55, 64
2, 57600, Note_on_c, 0, 57, 64
2, 57765, Note_off_c, 0, 57, 64
2, 57765, Note_off_c, 0, 55, 64
2, 57765, Note_off_c, 0, 50, 64
2, 57780, Note_on_c, 0, 57, 64
2, 57840, Note_off_c, 0, 57, 64
2, 57840, Note_on_c, 0, 55, 64
2, 57900, Note_off_c, 0, 55, 64
2, 57900, Note_on_c, 0, 54, 64
2, 57960, Note_off_c, 0, 54, 64
2, 57960, Note_on_c, 0, 55, 64
2, 58020, Note_off_c, 0, 55, 64
2, 58020, Note_on_c, 0, 52, 64
2, 58080, Note_off_c, 0, 52, 64
2, 58080, Note_on_c, 0, 55, 76
2, 58105, Note_off_c, 0, 55, 57
2, 58105, Note_on_c, 0, 54, 48
2, 58135, Note_off_c, 0, 54, 49
2, 58135, Note_on_c, 0, 55, 49
2, 58155, Note_off_c, 0, 55, 46
2, 58155, Note_on_c, 0, 54, 50
2, 58170, Note_off_c, 0, 54, 51
2, 58170, Note_on_c, 0, 55, 51
2, 58185, Note_off_c, 0, 55, 42
2, 58185, Note_on_c, 0, 54, 51
2, 58200, Note_off_c, 0, 54, 51
2, 58200, Note_on_c, 0, 55, 52
2, 58215, Note_off_c, 0, 55, 48
2, 58215, Note_on_c, 0, 54, 53
2, 58230, Note_off_c, 0, 54, 52
2, 58230, Note_on_c, 0, 55, 54
2, 58245, Note_off_c, 0, 55, 46
2, 58245, Note_on_c, 0, 54, 55
2, 58260, Note_off_c, 0, 54, 49
2, 58260, Note_on_c, 0, 55, 56
2, 58275, Note_off_c, 0, 55, 46
2, 58275, Note_on_c, 0, 54, 56
2, 58290, Note_off_c, 0, 54, 53
2, 58290, Note_on_c, 0, 55, 57
2, 58305, Note_off_c, 0, 55, 39
2, 58305, Note_on_c, 0, 54, 58
2, 58320, Note_off_c, 0, 54, 49
2, 58320, Note_on_c, 0, 55, 59
2, 58335, Note_off_c, 0, 55, 46
2, 58335, Note_on_c, 0, 54, 60
2, 58350, Note_off_c, 0, 54, 52
2, 58350, Note_on_c, 0, 55, 61
2, 58365, Note_off_c, 0, 55, 50
2, 58365, Note_on_c, 0, 54, 61
2, 58380, Note_off_c, 0, 54, 49
2, 58380, Note_on_c, 0, 55, 62
2, 58395, Note_off_c, 0, 55, 46
2, 58395, Note_on_c, 0, 54, 63
2, 58430, Note_off_c, 0, 54, 63
2, 58440, Note_on_c, 0, 55, 68
2, 58560, Note_off_c, 0, 55, 64
2, 58560, Note_on_c, 0, 43, 64
2, 58680, Note_off_c, 0, 43, 64
2, 58680, Note_on_c, 0, 58, 64
2, 58800, Note_off_c, 0, 58, 64
2, 58800, Note_on_c, 0, 55, 64
2, 58920, Note_off_c, 0, 55, 64
2, 58920, Note_on_c, 0, 50, 64
2, 59040, Note_off_c, 0, 50, 64
2, 59040, Note_on_c, 0, 55, 64
2, 59160, Note_off_c, 0, 55, 64
2, 59160, Note_on_c, 0, 46, 64
2, 59280, Note_off_c, 0, 46, 64
2, 59280, Note_on_c, 0, 50, 64
2, 59400, Note_off_c, 0, 50, 64
2, 59400, Note_on_c, 0, 42, 64
2, 59520, Note_off_c, 0, 42, 64
2, 59520, Note_on_c, 0, 43, 64
2, 59640, Note_off_c, 0, 43, 64
2, 59640, Note_on_c, 0, 46, 64
2, 59760, Note_off_c, 0, 46, 64
2, 59760, Note_on_c, 0, 50, 64
2, 59880, Note_off_c, 0, 50, 64
2, 59880, Note_on_c, 0, 55, 64
2, 60000, Note_off_c, 0, 55, 64
2, 60000, Note_on_c, 0, 58, 64
2, 60120, Note_off_c, 0, 58, 64
2, 60120, Note_on_c, 0, 55, 64
2, 60240, Note_off_c, 0, 55, 64
2, 60240, Note_on_c, 0, 62, 64
2, 60360, Note_off_c, 0, 62, 64
2, 60360, Note_on_c, 0, 53, 64
2, 60480, Note_off_c, 0, 53, 64
2, 60480, Note_on_c, 0, 43, 64
2, 60600, Note_off_c, 0, 43, 64
2, 60600, Note_on_c, 0, 61, 64
2, 60720, Note_off_c, 0, 61, 64
2, 60720, Note_on_c, 0, 58, 64
2, 60840, Note_off_c, 0, 58, 64
2, 60840, Note_on_c, 0, 55, 64
2, 60960, Note_off_c, 0, 55, 64
2, 60960, Note_on_c, 0, 58, 64
2, 61080, Note_off_c, 0, 58, 64
2, 61080, Note_on_c, 0, 52, 64
2, 61200, Note_off_c, 0, 52, 64
2, 61200, Note_on_c, 0, 55, 64
2, 61320, Note_off_c, 0, 55, 64
2, 61320, Note_on_c, 0, 46, 64
2, 61440, Note_off_c, 0, 46, 64
2, 61440, Note_on_c, 0, 49, 64
2, 61560, Note_off_c, 0, 49, 64
2, 61560, Note_on_c, 0, 43, 64
2, 61680, Note_off_c, 0, 43, 64
2, 61680, Note_on_c, 0, 46, 64
2, 61800, Note_off_c, 0, 46, 64
2, 61800, Note_on_c, 0, 52, 64
2, 61920, Note_off_c, 0, 52, 64
2, 61920, Note_on_c, 0, 55, 64
2, 62040, Note_off_c, 0, 55, 64
2, 62040, Note_on_c, 0, 52, 64
2, 62160, Note_off_c, 0, 52, 64
2, 62160, Note_on_c, 0, 61, 64
2, 62280, Note_off_c, 0, 61, 64
2, 62280, Note_on_c, 0, 52, 64
2, 62400, Note_off_c, 0, 52, 64
2, 62400, Note_on_c, 0, 44, 64
2, 62520, Note_off_c, 0, 44, 64
2, 62520, Note_on_c, 0, 60, 64
2, 62640, Note_off_c, 0, 60, 64
2, 62640, Note_on_c, 0, 56, 64
2, 62760, Note_off_c, 0, 56, 64
2, 62760, Note_on_c, 0, 53, 64
2, 62880, Note_off_c, 0, 53, 64
2, 62880, Note_on_c, 0, 56, 64
2, 63000, Note_off_c, 0, 56, 64
2, 63000, Note_on_c, 0, 48, 64
2, 63120, Note_off_c, 0, 48, 64
2, 63120, Note_on_c, 0, 53, 64
2, 63240, Note_off_c, 0, 53, 64
2, 63240, Note_on_c, 0, 44, 64
2, 63360, Note_off_c, 0, 44, 64
2, 63360, Note_on_c, 0, 48, 64
2, 63480, Note_off_c, 0, 48, 64
2, 63480, Note_on_c, 0, 53, 64
2, 63600, Note_off_c, 0, 53, 64
2, 63600, Note_on_c, 0, 56, 64
2, 63720, Note_off_c, 0, 56, 64
2, 63720, Note_on_c, 0, 53, 64
2, 63840, Note_off_c, 0, 53, 64
2, 63840, Note_on_c, 0, 60, 64
2, 63960, Note_off_c, 0, 60, 64
2, 63960, Note_on_c, 0, 53, 64
2, 64080, Note_off_c, 0, 53, 64
2, 64080, Note_on_c, 0, 62, 64
2, 64200, Note_off_c, 0, 62, 64
2, 64200, Note_on_c, 0, 53, 64
2, 64320, Note_off_c, 0, 53, 64
2, 64320, Note_on_c, 0, 45, 64
2, 64440, Note_off_c, 0, 45, 64
2, 64440, Note_on_c, 0, 63, 64
2, 64560, Note_off_c, 0, 63, 64
2, 64560, Note_on_c, 0, 60, 64
2, 64680, Note_off_c, 0, 60, 64
2, 64680, Note_on_c, 0, 57, 64
2, 64800, Note_off_c, 0, 57, 64
2, 64800, Note_on_c, 0, 60, 64
2, 64920, Note_off_c, 0, 60, 64
2, 64920, Note_on_c, 0, 51, 64
2, 65040, Note_off_c, 0, 51, 64
2, 65040, Note_on_c, 0, 54, 64
2, 65160, Note_off_c, 0, 54, 64
2, 65160, Note_on_c, 0, 48, 64
2, 65280, Note_off_c, 0, 48, 64
2, 65280, Note_on_c, 0, 51, 64
2, 65400, Note_off_c, 0, 51, 64
2, 65400, Note_on_c, 0, 45, 64
2, 65520, Note_off_c, 0, 45, 64
2, 65520, Note_on_c, 0, 48, 64
2, 65640, Note_off_c, 0, 48, 64
2, 65640, Note_on_c, 0, 51, 64
2, 65760, Note_off_c, 0, 51, 64
2, 65760, Note_on_c, 0, 54, 64
2, 65880, Note_off_c, 0, 54, 64
2, 65880, Note_on_c, 0, 57, 64
2, 66000, Note_off_c, 0, 57, 64
2, 66000, Note_on_c, 0, 60, 64
2, 66120, Note_off_c, 0, 60, 64
2, 66120, Note_on_c, 0, 63, 64
2, 66240, Note_off_c, 0, 63, 64
2, 66240, Note_on_c, 0, 46, 64
2, 66360, Note_off_c, 0, 46, 64
2, 66360, Note_on_c, 0, 62, 64
2, 66480, Note_off_c, 0, 62, 64
2, 66480, Note_on_c, 0, 59, 64
2, 66540, Note_off_c, 0, 59, 64
2, 66540, Note_on_c, 0, 58, 64
2, 66600, Note_off_c, 0, 58, 64
2, 66600, Note_on_c, 0, 57, 64
2, 66720, Note_off_c, 0, 57, 64
2, 66720, Note_on_c, 0, 58, 64
2, 66840, Note_off_c, 0, 58, 64
2, 66840, Note_on_c, 0, 62, 64
2, 66960, Note_off_c, 0, 62, 64
2, 66960, Note_on_c, 0, 59, 64
2, 67020, Note_off_c, 0, 59, 64
2, 67020, Note_on_c, 0, 58, 64
2, 67080, Note_off_c, 0, 58, 64
2, 67080, Note_on_c, 0, 57, 64
2, 67200, Note_off_c, 0, 57, 64
2, 67200, Note_on_c, 0, 58, 64
2, 67320, Note_off_c, 0, 58, 64
2, 67320, Note_on_c, 0, 59, 64
2, 67440, Note_off_c, 0, 59, 64
2, 67440, Note_on_c, 0, 58, 64
2, 67500, Note_off_c, 0, 58, 64
2, 67500, Note_on_c, 0, 56, 64
2, 67560, Note_off_c, 0, 56, 64
2, 67560, Note_on_c, 0, 55, 64
2, 67680, Note_off_c, 0, 55, 64
2, 67680, Note_on_c, 0, 56, 64
2, 67800, Note_off_c, 0, 56, 64
2, 67800, Note_on_c, 0, 59, 64
2, 67920, Note_off_c, 0, 59, 64
2, 67920, Note_on_c, 0, 58, 64
2, 67980, Note_off_c, 0, 58, 64
2, 67980, Note_on_c, 0, 56, 64
2, 68040, Note_off_c, 0, 56, 64
2, 68040, Note_on_c, 0, 55, 64
2, 68160, Note_off_c, 0, 55, 64
2, 68160, Note_on_c, 0, 56, 64
2, 68280, Note_off_c, 0, 56, 64
2, 68280, Note_on_c, 0, 58, 64
2, 68400, Note_off_c, 0, 58, 64
2, 68400, Note_on_c, 0, 56, 64
2, 68460, Note_off_c, 0, 56, 64
2, 68460, Note_on_c, 0, 54, 64
2, 68520, Note_off_c, 0, 54, 64
2, 68520, Note_on_c, 0, 53, 64
2, 68640, Note_off_c, 0, 53, 64
2, 68640, Note_on_c, 0, 54, 64
2, 68760, Note_off_c, 0, 54, 64
2, 68760, Note_on_c, 0, 58, 64
2, 68880, Note_off_c, 0, 58, 64
2, 68880, Note_on_c, 0, 56, 64
2, 68940, Note_off_c, 0, 56, 64
2, 68940, Note_on_c, 0, 54, 64
2, 69000, Note_off_c, 0, 54, 64
2, 69000, Note_on_c, 0, 53, 64
2, 69120, Note_off_c, 0, 53, 64
2, 69120, Note_on_c, 0, 54, 64
2, 69240, Note_off_c, 0, 54, 64
2, 69240, Note_on_c, 0, 54, 64
2, 69360, Note_off_c, 0, 54, 64
2, 69360, Note_on_c, 0, 52, 64
2, 69420, Note_off_c, 0, 52, 64
2, 69420, Note_on_c, 0, 51, 64
2, 69480, Note_off_c, 0, 51, 64
2, 69480, Note_on_c, 0, 50, 64
2, 69600, Note_off_c, 0, 50, 64
2, 69600, Note_on_c, 0, 51, 64
2, 69720, Note_off_c, 0, 51, 64
2, 69720, Note_on_c, 0, 54, 64
2, 69840, Note_off_c, 0, 54, 64
2, 69840, Note_on_c, 0, 52, 64
2, 69900, Note_off_c, 0, 52, 64
2, 69900, Note_on_c, 0, 51, 64
2, 69960, Note_off_c, 0, 51, 64
2, 69960, Note_on_c, 0, 50, 64
2, 70080, Note_off_c, 0, 50, 64
2, 70080, Note_on_c, 0, 51, 64
2, 70200, Note_off_c, 0, 51, 64
2, 70200, Note_on_c, 0, 47, 64
2, 70320, Note_off_c, 0, 47, 64
2, 70320, Note_on_c, 0, 51, 64
2, 70440, Note_off_c, 0, 51, 64
2, 70440, Note_on_c, 0, 56, 64
2, 70560, Note_off_c, 0, 56, 64
2, 70560, Note_on_c, 0, 59, 64
2, 70680, Note_off_c, 0, 59, 64
2, 70680, Note_on_c, 0, 56, 64
2, 70800, Note_off_c, 0, 56, 64
2, 70800, Note_on_c, 0, 63, 64
2, 70920, Note_off_c, 0, 63, 64
2, 70920, Note_on_c, 0, 59, 64
2, 71040, Note_off_c, 0, 59, 64
2, 71040, Note_on_c, 0, 56, 64
2, 71160, Note_off_c, 0, 56, 64
2, 71160, Note_on_c, 0, 59, 64
2, 71280, Note_off_c, 0, 59, 64
2, 71280, Note_on_c, 0, 56, 64
2, 71400, Note_off_c, 0, 56, 64
2, 71400, Note_on_c, 0, 51, 64
2, 71520, Note_off_c, 0, 51, 64
2, 71520, Note_on_c, 0, 47, 64
2, 71640, Note_off_c, 0, 47, 64
2, 71640, Note_on_c, 0, 44, 64
2, 71760, Note_off_c, 0, 44, 64
2, 71760, Note_on_c, 0, 53, 64
2, 71880, Note_off_c, 0, 53, 64
2, 71880, Note_on_c, 0, 44, 64
2, 72000, Note_off_c, 0, 44, 64
2, 72000, Note_on_c, 0, 36, 64
2, 72120, Note_off_c, 0, 36, 64
2, 72120, Note_on_c, 0, 45, 64
2, 72240, Note_off_c, 0, 45, 64
2, 72240, Note_on_c, 0, 54, 64
2, 72360, Note_off_c, 0, 54, 64
2, 72360, Note_on_c, 0, 50, 64
2, 72480, Note_off_c, 0, 50, 64
2, 72480, Note_on_c, 0, 51, 64
2, 72540, Note_off_c, 0, 51, 64
2, 72540, Note_on_c, 0, 54, 64
2, 72600, Note_off_c, 0, 54, 64
2, 72600, Note_on_c, 0, 51, 64
2, 72660, Note_off_c, 0, 51, 64
2, 72660, Note_on_c, 0, 50, 64
2, 72720, Note_off_c, 0, 50, 64
2, 72720, Note_on_c, 0, 51, 64
2, 72780, Note_off_c, 0, 51, 64
2, 72780, Note_on_c, 0, 54, 64
2, 72840, Note_off_c, 0, 54, 64
2, 72840, Note_on_c, 0, 51, 64
2, 72900, Note_off_c, 0, 51, 64
2, 72900, Note_on_c, 0, 50, 64
2, 72960, Note_off_c, 0, 50, 64
2, 72960, Note_on_c, 0, 51, 64
2, 73020, Note_off_c, 0, 51, 64
2, 73020, Note_on_c, 0, 57, 64
2, 73080, Note_off_c, 0, 57, 64
2, 73080, Note_on_c, 0, 54, 64
2, 73140, Note_off_c, 0, 54, 64
2, 73140, Note_on_c, 0, 53, 64
2, 73200, Note_off_c, 0, 53, 64
2, 73200, Note_on_c, 0, 54, 64
2, 73260, Note_off_c, 0, 54, 64
2, 73260, Note_on_c, 0, 57, 64
2, 73320, Note_off_c, 0, 57, 64
2, 73320, Note_on_c, 0, 54, 64
2, 73380, Note_off_c, 0, 54, 64
2, 73380, Note_on_c, 0, 53, 64
2, 73440, Note_off_c, 0, 53, 64
2, 73440, Note_on_c, 0, 54, 64
2, 73500, Note_off_c, 0, 54, 64
2, 73500, Note_on_c, 0, 60, 64
2, 73560, Note_off_c, 0, 60, 64
2, 73560, Note_on_c, 0, 54, 64
2, 73620, Note_off_c, 0, 54, 64
2, 73620, Note_on_c, 0, 53, 64
2, 73680, Note_off_c, 0, 53, 64
2, 73680, Note_on_c, 0, 54, 64
2, 73740, Note_off_c, 0, 54, 64
2, 73740, Note_on_c, 0, 63, 64
2, 73800, Note_off_c, 0, 63, 64
2, 73800, Note_on_c, 0, 54, 64
2, 73860, Note_off_c, 0, 54, 64
2, 73860, Note_on_c, 0, 53, 64
2, 73920, Note_off_c, 0, 53, 64
2, 73920, Note_on_c, 0, 54, 64
2, 74040, Note_off_c, 0, 54, 64
2, 74040, Note_on_c, 0, 46, 64
2, 74160, Note_off_c, 0, 46, 64
2, 74160, Note_on_c, 0, 51, 64
2, 74280, Note_off_c, 0, 51, 64
2, 74280, Note_on_c, 0, 54, 64
2, 74400, Note_off_c, 0, 54, 64
2, 74400, Note_on_c, 0, 58, 64
2, 74520, Note_off_c, 0, 58, 64
2, 74520, Note_on_c, 0, 54, 64
2, 74640, Note_off_c, 0, 54, 64
2, 74640, Note_on_c, 0, 63, 64
2, 74760, Note_off_c, 0, 63, 64
2, 74760, Note_on_c, 0, 58, 64
2, 74880, Note_off_c, 0, 58, 64
2, 74880, Note_on_c, 0, 54, 64
2, 75000, Note_off_c, 0, 54, 64
2, 75000, Note_on_c, 0, 51, 64
2, 75120, Note_off_c, 0, 51, 64
2, 75120, Note_on_c, 0, 58, 64
2, 75240, Note_off_c, 0, 58, 64
2, 75240, Note_on_c, 0, 54, 64
2, 75360, Note_off_c, 0, 54, 64
2, 75360, Note_on_c, 0, 51, 64
2, 75480, Note_off_c, 0, 51, 64
2, 75480, Note_on_c, 0, 46, 64
2, 75600, Note_off_c, 0, 46, 64
2, 75600, Note_on_c, 0, 54, 64
2, 75720, Note_off_c, 0, 54, 64
2, 75720, Note_on_c, 0, 51, 64
2, 75840, Note_off_c, 0, 51, 64
2, 75840, Note_on_c, 0, 44, 64
2, 75840, Note_on_c, 0, 52, 64
2, 75840, Note_on_c, 0, 59, 64
2, 76060, Note_off_c, 0, 59, 64
2, 76060, Note_off_c, 0, 52, 64
2, 76060, Note_off_c, 0, 44, 64
2, 76080, Note_on_c, 0, 52, 64
2, 76140, Note_off_c, 0, 52, 64
2, 76140, Note_on_c, 0, 54, 64
2, 76200, Note_off_c, 0, 54, 64
2, 76200, Note_on_c, 0, 52, 64
2, 76260, Note_off_c, 0, 52, 64
2, 76260, Note_on_c, 0, 54, 64
2, 76320, Note_off_c, 0, 54, 64
2, 76320, Note_on_c, 0, 56, 64
2, 76380, Note_off_c, 0, 56, 64
2, 76380, Note_on_c, 0, 57, 64
2, 76440, Note_off_c, 0, 57, 64
2, 76440, Note_on_c, 0, 56, 64
2, 76500, Note_off_c, 0, 56, 64
2, 76500, Note_on_c, 0, 57, 64
2, 76560, Note_off_c, 0, 57, 64
2, 76560, Note_on_c, 0, 59, 64
2, 76620, Note_off_c, 0, 59, 64
2, 76620, Note_on_c, 0, 57, 64
2, 76680, Note_off_c, 0, 57, 64
2, 76680, Note_on_c, 0, 59, 64
2, 76740, Note_off_c, 0, 59, 64
2, 76740, Note_on_c, 0, 57, 64
2, 76800, Note_off_c, 0, 57, 64
2, 76800, Note_on_c, 0, 56, 64
2, 76860, Note_off_c, 0, 56, 64
2, 76860, Note_on_c, 0, 54, 64
2, 76920, Note_off_c, 0, 54, 64
2, 76920, Note_on_c, 0, 56, 64
2, 76980, Note_off_c, 0, 56, 64
2, 76980, Note_on_c, 0, 54, 64
2, 77040, Note_off_c, 0, 54, 64
2, 77040, Note_on_c, 0, 52, 64
2, 77100, Note_off_c, 0, 52, 64
2, 77100, Note_on_c, 0, 51, 64
2, 77160, Note_off_c, 0, 51, 64
2, 77160, Note_on_c, 0, 50, 64
2, 77220, Note_off_c, 0, 50, 64
2, 77220, Note_on_c, 0, 51, 64
2, 77280, Note_off_c, 0, 51, 64
2, 77280, Note_on_c, 0, 46, 64
2, 77280, Note_on_c, 0, 50, 64
2, 77620, Note_off_c, 0, 50, 64
2, 77640, Note_on_c, 0, 51, 64
2, 77760, Note_off_c, 0, 51, 64
2, 77760, Note_off_c, 0, 46, 64
2, 77760, Note_on_c, 0, 39, 64
2, 77880, Note_off_c, 0, 39, 64
2, 77880, Note_on_c, 0, 63, 64
2, 78000, Note_off_c, 0, 63, 64
2, 78000, Note_on_c, 0, 58, 64
2, 78120, Note_off_c, 0, 58, 64
2, 78120, Note_on_c, 0, 55, 64
2, 78240, Note_off_c, 0, 55, 64
2, 78240, Note_on_c, 0, 58, 64
2, 78360, Note_off_c, 0, 58, 64
2, 78360, Note_on_c, 0, 51, 64
2, 78480, Note_off_c, 0, 51, 64
2, 78480, Note_on_c, 0, 55, 64
2, 78600, Note_off_c, 0, 55, 64
2, 78600, Note_on_c, 0, 46, 64
2, 78720, Note_off_c, 0, 46, 64
2, 78720, Note_on_c, 0, 39, 64
2, 78840, Note_off_c, 0, 39, 64
2, 78840, Note_on_c, 0, 63, 64
2, 78960, Note_off_c, 0, 63, 64
2, 78960, Note_on_c, 0, 58, 64
2, 79080, Note_off_c, 0, 58, 64
2, 79080, Note_on_c, 0, 55, 64
2, 79200, Note_off_c, 0, 55, 64
2, 79200, Note_on_c, 0, 58, 64
2, 79320, Note_off_c, 0, 58, 64
2, 79320, Note_on_c, 0, 51, 64
2, 79440, Note_off_c, 0, 51, 64
2, 79440, Note_on_c, 0, 55, 64
2, 79560, Note_off_c, 0, 55, 64
2, 79560, Note_on_c, 0, 46, 64
2, 79680, Note_off_c, 0, 46, 64
2, 79680, Note_on_c, 0, 39, 64
2, 79800, Note_off_c, 0, 39, 64
2, 79800, Note_on_c, 0, 61, 64
2, 79920, Note_off_c, 0, 61, 64
2, 79920, Note_on_c, 0, 58, 64
2, 80040, Note_off_c, 0, 58, 64
2, 80040, Note_on_c, 0, 55, 64
2, 80160, Note_off_c, 0, 55, 64
2, 80160, Note_on_c, 0, 58, 64
2, 80280, Note_off_c, 0, 58, 64
2, 80280, Note_on_c, 0, 51, 64
2, 80400, Note_off_c, 0, 51, 64
2, 80400, Note_on_c, 0, 55, 64
2, 80520, Note_off_c, 0, 55, 64
2, 80520, Note_on_c, 0, 46, 64
2, 80640, Note_off_c, 0, 46, 64
2, 80640, Note_on_c, 0, 39, 64
2, 80760, Note_off_c, 0, 39, 64
2, 80760, Note_on_c, 0, 61, 64
2, 80880, Note_off_c, 0, 61, 64
2, 80880, Note_on_c, 0, 58, 64
2, 81000, Note_off_c, 0, 58, 64
2, 81000, Note_on_c, 0, 55, 64
2, 81120, Note_off_c, 0, 55, 64
2, 81120, Note_on_c, 0, 58, 64
2, 81240, Note_off_c, 0, 58, 64
2, 81240, Note_on_c, 0, 51, 64
2, 81360, Note_off_c, 0, 51, 64
2, 81360, Note_on_c, 0, 55, 64
2, 81480, Note_off_c, 0, 55, 64
2, 81480, Note_on_c, 0, 46, 64
2, 81600, Note_off_c, 0, 46, 64
2, 81600, Note_on_c, 0, 39, 64
2, 81720, Note_off_c, 0, 39, 64
2, 81720, Note_on_c, 0, 60, 64
2, 81840, Note_off_c, 0, 60, 64
2, 81840, Note_on_c, 0, 56, 64
2, 81960, Note_off_c, 0, 56, 64
2, 81960, Note_on_c, 0, 51, 64
2, 82080, Note_off_c, 0, 51, 64
2, 82080, Note_on_c, 0, 56, 64
2, 82200, Note_off_c, 0, 56, 64
2, 82200, Note_on_c, 0, 48, 64
2, 82320, Note_off_c, 0, 48, 64
2, 82320, Note_on_c, 0, 51, 64
2, 82440, Note_off_c, 0, 51, 64
2, 82440, Note_on_c, 0, 44, 64
2, 82560, Note_off_c, 0, 44, 64
2, 82560, Note_on_c, 0, 39, 64
2, 82680, Note_off_c, 0, 39, 64
2, 82680, Note_on_c, 0, 60, 64
2, 82800, Note_off_c, 0, 60, 64
2, 82800, Note_on_c, 0, 56, 64
2, 82920, Note_off_c, 0, 56, 64
2, 82920, Note_on_c, 0, 51, 64
2, 83040, Note_off_c, 0, 51, 64
2, 83040, Note_on_c, 0, 56, 64
2, 83160, Note_off_c, 0, 56, 64
2, 83160, Note_on_c, 0, 48, 64
2, 83280, Note_off_c, 0, 48, 64
2, 83280, Note_on_c, 0, 51, 64
2, 83400, Note_off_c, 0, 51, 64
2, 83400, Note_on_c, 0, 44, 64
2, 83520, Note_off_c, 0, 44, 64
2, 83520, Note_on_c, 0, 50, 64
2, 83820, Note_off_c, 0, 50, 64
2, 83820, Note_on_c, 0, 48, 64
2, 83880, Note_off_c, 0, 48, 64
2, 83880, Note_on_c, 0, 46, 64
2, 83940, Note_off_c, 0, 46, 64
2, 83940, Note_on_c, 0, 48, 64
2, 84000, Note_off_c, 0, 48, 64
2, 84000, Note_on_c, 0, 50, 64
2, 84060, Note_off_c, 0, 50, 64
2, 84060, Note_on_c, 0, 51, 64
2, 84120, Note_off_c, 0, 51, 64
2, 84120, Note_on_c, 0, 53, 64
2, 84180, Note_off_c, 0, 53, 64
2, 84180, Note_on_c, 0, 55, 64
2, 84240, Note_off_c, 0, 55, 64
2, 84240, Note_on_c, 0, 56, 64
2, 84300, Note_off_c, 0, 56, 64
2, 84300, Note_on_c, 0, 53, 64
2, 84360, Note_off_c, 0, 53, 64
2, 84360, Note_on_c, 0, 55, 64
2, 84420, Note_off_c, 0, 55, 64
2, 84420, Note_on_c, 0, 56, 64
2, 84480, Note_off_c, 0, 56, 64
2, 84480, Note_on_c, 0, 50, 64
2, 84540, Note_off_c, 0, 50, 64
2, 84540, Note_on_c, 0, 51, 64
2, 84600, Note_off_c, 0, 51, 64
2, 84600, Note_on_c, 0, 53, 64
2, 84660, Note_off_c, 0, 53, 64
2, 84660, Note_on_c, 0, 46, 64
2, 84720, Note_off_c, 0, 46, 64
2, 84720, Note_on_c, 0, 48, 64
2, 84780, Note_off_c, 0, 48, 64
2, 84780, Note_on_c, 0, 50, 64
2, 84840, Note_off_c, 0, 50, 64
2, 84840, Note_on_c, 0, 51, 64
2, 84900, Note_off_c, 0, 51, 64
2, 84900, Note_on_c, 0, 53, 64
2, 84960, Note_off_c, 0, 53, 64
2, 84960, Note_on_c, 0, 55, 64
2, 85020, Note_off_c, 0, 55, 64
2, 85020, Note_on_c, 0, 56, 64
2, 85080, Note_off_c, 0, 56, 64
2, 85080, Note_on_c, 0, 58, 64
2, 85140, Note_off_c, 0, 58, 64
2, 85140, Note_on_c, 0, 60, 64
2, 85200, Note_off_c, 0, 60, 64
2, 85200, Note_on_c, 0, 62, 64
2, 85260, Note_off_c, 0, 62, 64
2, 85260, Note_on_c, 0, 60, 64
2, 85320, Note_off_c, 0, 60, 64
2, 85320, Note_on_c, 0, 63, 64
2, 85380, Note_off_c, 0, 63, 64
2, 85380, Note_on_c, 0, 62, 64
2, 85440, Note_off_c, 0, 62, 64
2, 85440, Note_on_c, 0, 63, 64
2, 85468, Note_on_c, 0, 62, 64
2, 85470, Note_off_c, 0, 63, 64
2, 85498, Note_off_c, 0, 62, 64
2, 85500, Note_on_c, 0, 63, 55
2, 85522, Note_off_c, 0, 63, 29
2, 85522, Note_on_c, 0, 62, 69
2, 85544, Note_off_c, 0, 62, 45
2, 85544, Note_on_c, 0, 63, 55
2, 85566, Note_off_c, 0, 63, 1
2, 85566, Note_on_c, 0, 62, 55
2, 85588, Note_off_c, 0, 62, 50
2, 85588, Note_on_c, 0, 63, 53
2, 85603, Note_off_c, 0, 63, 23
2, 85603, Note_on_c, 0, 62, 69
2, 85618, Note_off_c, 0, 62, 52
2, 85618, Note_on_c, 0, 63, 59
2, 85633, Note_off_c, 0, 63, 42
2, 85633, Note_on_c, 0, 62, 63
2, 85648, Note_off_c, 0, 62, 50
2, 85648, Note_on_c, 0, 63, 59
2, 85663, Note_off_c, 0, 63, 44
2, 85663, Note_on_c, 0, 62, 58
2, 85678, Note_off_c, 0, 62, 34
2, 85678, Note_on_c, 0, 63, 68
2, 85693, Note_off_c, 0, 63, 38
2, 85693, Note_on_c, 0, 62, 74
2, 85708, Note_off_c, 0, 62, 51
2, 85708, Note_on_c, 0, 63, 72
2, 85738, Note_off_c, 0, 63, 46
2, 85740, Note_on_c, 0, 58, 64
2, 85800, Note_off_c, 0, 58, 64
2, 85800, Note_on_c, 0, 56, 64
2, 85860, Note_off_c, 0, 56, 64
2, 85860, Note_on_c, 0, 55, 64
2, 85920, Note_off_c, 0, 55, 64
2, 85920, Note_on_c, 0, 53, 64
2, 85980, Note_off_c, 0, 53, 64
2, 85980, Note_on_c, 0, 51, 64
2, 86040, Note_off_c, 0, 51, 64
2, 86040, Note_on_c, 0, 50, 64
2, 86100, Note_off_c, 0, 50, 64
2, 86100, Note_on_c, 0, 48, 64
2, 86160, Note_off_c, 0, 48, 64
2, 86160, Note_on_c, 0, 46, 64
2, 86220, Note_off_c, 0, 46, 64
2, 86220, Note_on_c, 0, 44, 64
2, 86280, Note_off_c, 0, 44, 64
2, 86280, Note_on_c, 0, 43, 64
2, 86340, Note_off_c, 0, 43, 64
2, 86340, Note_on_c, 0, 41, 64
2, 86400, Note_off_c, 0, 41, 64
2, 86400, Note_on_c, 0, 39, 64
2, 86420, Note_on_c, 0, 46, 64
2, 86440, Note_on_c, 0, 55, 64
2, 86460, Note_off_c, 0, 39, 64
2, 86460, Note_on_c, 0, 63, 64
2, 86480, Note_off_c, 0, 46, 64
2, 86640, Note_off_c, 0, 63, 64
2, 86640, Note_off_c, 0, 55, 64
2, 86719, End_track
0, 0, End_of_file
