0, 0, Header, 1, 3, 240
1, 0, Start_track
1, 0, Time_signature, 3, 3, 36, 8
1, 0, Tempo, 606061
1, 0, End_track
2, 0, Start_track
2, 0, Text_t, "RH"
2, 0, Note_on_c, 0, 62, 64
2, 60, Note_off_c, 0, 62, 64
2, 60, Note_on_c, 0, 64, 64
2, 120, Note_off_c, 0, 64, 64
2, 120, Note_on_c, 0, 65, 64
2, 180, Note_off_c, 0, 65, 64
2, 180, Note_on_c, 0, 67, 64
2, 240, Note_off_c, 0, 67, 64
2, 240, Note_on_c, 0, 69, 64
2, 300, Note_off_c, 0, 69, 64
2, 300, Note_on_c, 0, 70, 64
2, 360, Note_off_c, 0, 70, 64
2, 360, Note_on_c, 0, 61, 64
2, 420, Note_off_c, 0, 61, 64
2, 420, Note_on_c, 0, 70, 64
2, 480, Note_off_c, 0, 70, 64
2, 480, Note_on_c, 0, 69, 64
2, 540, Note_off_c, 0, 69, 64
2, 540, Note_on_c, 0, 67, 64
2, 600, Note_off_c, 0, 67, 64
2, 600, Note_on_c, 0, 65, 64
2, 660, Note_off_c, 0, 65, 64
2, 660, Note_on_c, 0, 64, 64
2, 720, Note_off_c, 0, 64, 64
2, 720, Note_on_c, 0, 65, 64
2, 840, Note_off_c, 0, 65, 64
2, 840, Note_on_c, 0, 69, 64
2, 960, Note_off_c, 0, 69, 64
2, 960, Note_on_c, 0, 74, 64
2, 1080, Note_off_c, 0, 74, 64
2, 1080, Note_on_c, 0, 67, 64
2, 1200, Note_off_c, 0, 67, 64
2, 1200, Note_on_c, 0, 70, 64
2, 1320, Note_off_c, 0, 70, 64
2, 1320, Note_on_c, 0, 76, 64
2, 1440, Note_off_c, 0, 76, 64
2, 1440, Note_on_c, 0, 74, 64
2, 1500, Note_off_c, 0, 74, 64
2, 1500, Note_on_c, 0, 76, 64
2, 1560, Note_off_c, 0, 76, 64
2, 1560, Note_on_c, 0, 77, 64
2, 1620, Note_off_c, 0, 77, 64
2, 1620, Note_on_c, 0, 79, 64
2, 1680, Note_off_c, 0, 79, 64
2, 1680, Note_on_c, 0, 81, 64
2, 1740, Note_off_c, 0, 81, 64
2, 1740, Note_on_c, 0, 82, 64
2, 1800, Note_off_c, 0, 82, 64
2, 1800, Note_on_c, 0, 73, 64
2, 1860, Note_off_c, 0, 73, 64
2, 1860, Note_on_c, 0, 82, 64
2, 1920, Note_off_c, 0, 82, 64
2, 1920, Note_on_c, 0, 81, 64
2, 1980, Note_off_c, 0, 81, 64
2, 1980, Note_on_c, 0, 79, 64
2, 2040, Note_off_c, 0, 79, 64
2, 2040, Note_on_c, 0, 77, 64
2, 2100, Note_off_c, 0, 77, 64
2, 2100, Note_on_c, 0, 76, 64
2, 2160, Note_off_c, 0, 76, 64
2, 2160, Note_on_c, 0, 77, 64
2, 2220, Note_off_c, 0, 77, 64
2, 2220, Note_on_c, 0, 74, 64
2, 2280, Note_off_c, 0, 74, 64
2, 2280, Note_on_c, 0, 76, 64
2, 2340, Note_off_c, 0, 76, 64
2, 2340, Note_on_c, 0, 77, 64
2, 2400, Note_off_c, 0, 77, 64
2, 2400, Note_on_c, 0, 79, 64
2, 2460, Note_off_c, 0, 79, 64
2, 2460, Note_on_c, 0, 81, 64
2, 2520, Note_off_c, 0, 81, 64
2, 2520, Note_on_c, 0, 70, 64
2, 2580, Note_off_c, 0, 70, 64
2, 2580, Note_on_c, 0, 81, 64
2, 2640, Note_off_c, 0, 81, 64
2, 2640, Note_on_c, 0, 79, 64
2, 2700, Note_off_c, 0, 79, 64
2, 2700, Note_on_c, 0, 77, 64
2, 2760, Note_off_c, 0, 77, 64
2, 2760, Note_on_c, 0, 76, 64
2, 2820, Note_off_c, 0, 76, 64
2, 2820, Note_on_c, 0, 74, 64
2, 2880, Note_off_c, 0, 74, 64
2, 2880, Note_on_c, 0, 76, 64
2, 2940, Note_off_c, 0, 76, 64
2, 2940, Note_on_c, 0, 72, 64
2, 3000, Note_off_c, 0, 72, 64
2, 3000, Note_on_c, 0, 74, 64
2, 3060, Note_off_c, 0, 74, 64
2, 3060, Note_on_c, 0, 76, 64
2, 3120, Note_off_c, 0, 76, 64
2, 3120, Note_on_c, 0, 77, 64
2, 3180, Note_off_c, 0, 77, 64
2, 3180, Note_on_c, 0, 79, 64
2, 3240, Note_off_c, 0, 79, 64
2, 3240, Note_on_c, 0, 69, 64
2, 3300, Note_off_c, 0, 69, 64
2, 3300, Note_on_c, 0, 79, 64
2, 3360, Note_off_c, 0, 79, 64
2, 3360, Note_on_c, 0, 77, 64
2, 3420, Note_off_c, 0, 77, 64
2, 3420, Note_on_c, 0, 76, 64
2, 3480, Note_off_c, 0, 76, 64
2, 3480, Note_on_c, 0, 74, 64
2, 3540, Note_off_c, 0, 74, 64
2, 3540, Note_on_c, 0, 72, 64
2, 3600, Note_off_c, 0, 72, 64
2, 3600, Note_on_c, 0, 74, 64
2, 3660, Note_off_c, 0, 74, 64
2, 3660, Note_on_c, 0, 76, 64
2, 3720, Note_off_c, 0, 76, 64
2, 3720, Note_on_c, 0, 77, 64
2, 3780, Note_off_c, 0, 77, 64
2, 3780, Note_on_c, 0, 74, 64
2, 3840, Note_off_c, 0, 74, 64
2, 3840, Note_on_c, 0, 76, 64
2, 3900, Note_off_c, 0, 76, 64
2, 3900, Note_on_c, 0, 77, 64
2, 3960, Note_off_c, 0, 77, 64
2, 3960, Note_on_c, 0, 67, 64
2, 4080, Note_off_c, 0, 67, 64
2, 4320, Note_on_c, 0, 72, 64
2, 4380, Note_off_c, 0, 72, 64
2, 4380, Note_on_c, 0, 74, 64
2, 4440, Note_off_c, 0, 74, 64
2, 4440, Note_on_c, 0, 76, 64
2, 4500, Note_off_c, 0, 76, 64
2, 4500, Note_on_c, 0, 72, 64
2, 4560, Note_off_c, 0, 72, 64
2, 4560, Note_on_c, 0, 74, 64
2, 4620, Note_off_c, 0, 74, 64
2, 4620, Note_on_c, 0, 76, 64
2, 4680, Note_off_c, 0, 76, 64
2, 4680, Note_on_c, 0, 65, 64
2, 4800, Note_off_c, 0, 65, 64
2, 4920, Note_on_c, 0, 70, 64
2, 5160, Note_off_c, 0, 70, 64
2, 5160, Note_on_c, 0, 69, 64
2, 5280, Note_off_c, 0, 69, 64
2, 5280, Note_on_c, 0, 67, 64
2, 5400, Note_off_c, 0, 67, 64
2, 5400, Note_on_c, 0, 72, 64
2, 5460, Note_off_c, 0, 72, 64
2, 5460, Note_on_c, 0, 70, 64
2, 5520, Note_off_c, 0, 70, 64
2, 5520, Note_on_c, 0, 69, 64
2, 5580, Note_off_c, 0, 69, 64
2, 5580, Note_on_c, 0, 67, 64
2, 5640, Note_off_c, 0, 67, 64
2, 5640, Note_on_c, 0, 65, 64
2, 5700, Note_off_c, 0, 65, 64
2, 5700, Note_on_c, 0, 64, 64
2, 5760, Note_off_c, 0, 64, 64
2, 5760, Note_on_c, 0, 65, 64
2, 5820, Note_off_c, 0, 65, 64
2, 5820, Note_on_c, 0, 67, 64
2, 5880, Note_off_c, 0, 67, 64
2, 5880, Note_on_c, 0, 67, 64
2, 5910, Note_off_c, 0, 67, 64
2, 5910, Note_on_c, 0, 69, 64
2, 5940, Note_off_c, 0, 69, 64
2, 5940, Note_on_c, 0, 67, 64
2, 6060, Note_off_c, 0, 67, 64
2, 6060, Note_on_c, 0, 65, 64
2, 6120, Note_off_c, 0, 65, 64
2, 6120, Note_on_c, 0, 65, 64
2, 6240, Note_off_c, 0, 65, 64
2, 6240, Note_on_c, 0, 72, 64
2, 6360, Note_off_c, 0, 72, 64
2, 6360, Note_on_c, 0, 72, 64
2, 6480, Note_off_c, 0, 72, 64
2, 6480, Note_on_c, 0, 72, 64
2, 6510, Note_off_c, 0, 72, 64
2, 6510, Note_on_c, 0, 74, 64
2, 6540, Note_on_c, 0, 72, 48
2, 6543, Note_off_c, 0, 74, 64
2, 6570, Note_on_c, 0, 74, 48
2, 6573, Note_off_c, 0, 72, 64
2, 6600, Note_on_c, 0, 72, 48
2, 6603, Note_off_c, 0, 74, 64
2, 6630, Note_on_c, 0, 74, 49
2, 6633, Note_off_c, 0, 72, 64
2, 6660, Note_on_c, 0, 72, 49
2, 6663, Note_off_c, 0, 74, 64
2, 6690, Note_on_c, 0, 74, 49
2, 6693, Note_off_c, 0, 72, 64
2, 6720, Note_on_c, 0, 72, 50
2, 6723, Note_off_c, 0, 74, 64
2, 6750, Note_on_c, 0, 74, 50
2, 6753, Note_off_c, 0, 72, 64
2, 6780, Note_on_c, 0, 72, 51
2, 6783, Note_off_c, 0, 74, 64
2, 6810, Note_on_c, 0, 74, 51
2, 6813, Note_off_c, 0, 72, 64
2, 6840, Note_on_c, 0, 72, 51
2, 6843, Note_off_c, 0, 74, 64
2, 6870, Note_on_c, 0, 74, 52
2, 6873, Note_off_c, 0, 72, 64
2, 6900, Note_on_c, 0, 72, 52
2, 6903, Note_off_c, 0, 74, 64
2, 6930, Note_on_c, 0, 74, 52
2, 6933, Note_off_c, 0, 72, 64
2, 6960, Note_on_c, 0, 72, 53
2, 6963, Note_off_c, 0, 74, 64
2, 6990, Note_on_c, 0, 74, 53
2, 6993, Note_off_c, 0, 72, 64
2, 7020, Note_on_c, 0, 72, 53
2, 7023, Note_off_c, 0, 74, 64
2, 7050, Note_on_c, 0, 74, 54
2, 7053, Note_off_c, 0, 72, 64
2, 7080, Note_on_c, 0, 72, 54
2, 7083, Note_off_c, 0, 74, 64
2, 7110, Note_on_c, 0, 74, 54
2, 7113, Note_off_c, 0, 72, 64
2, 7140, Note_on_c, 0, 72, 55
2, 7143, Note_off_c, 0, 74, 64
2, 7170, Note_on_c, 0, 74, 55
2, 7173, Note_off_c, 0, 72, 64
2, 7200, Note_on_c, 0, 72, 55
2, 7203, Note_off_c, 0, 74, 64
2, 7230, Note_on_c, 0, 74, 56
2, 7233, Note_off_c, 0, 72, 64
2, 7260, Note_on_c, 0, 72, 56
2, 7263, Note_off_c, 0, 74, 64
2, 7290, Note_on_c, 0, 74, 57
2, 7293, Note_off_c, 0, 72, 64
2, 7320, Note_on_c, 0, 72, 57
2, 7323, Note_off_c, 0, 74, 64
2, 7350, Note_on_c, 0, 74, 57
2, 7353, Note_off_c, 0, 72, 64
2, 7380, Note_on_c, 0, 72, 58
2, 7383, Note_off_c, 0, 74, 64
2, 7410, Note_on_c, 0, 74, 58
2, 7413, Note_off_c, 0, 72, 64
2, 7440, Note_on_c, 0, 72, 58
2, 7443, Note_off_c, 0, 74, 64
2, 7470, Note_on_c, 0, 74, 59
2, 7473, Note_off_c, 0, 72, 64
2, 7500, Note_on_c, 0, 72, 59
2, 7503, Note_off_c, 0, 74, 64
2, 7530, Note_on_c, 0, 74, 59
2, 7533, Note_off_c, 0, 72, 64
2, 7560, Note_on_c, 0, 72, 64
2, 7563, Note_off_c, 0, 74, 64
2, 7620, Note_off_c, 0, 72, 64
2, 7620, Note_on_c, 0, 70, 64
2, 7680, Note_off_c, 0, 70, 64
2, 7680, Note_on_c, 0, 69, 64
2, 7740, Note_off_c, 0, 69, 64
2, 7740, Note_on_c, 0, 67, 64
2, 7800, Note_off_c, 0, 67, 64
2, 7800, Note_on_c, 0, 65, 64
2, 7860, Note_off_c, 0, 65, 64
2, 7860, Note_on_c, 0, 64, 64
2, 7920, Note_off_c, 0, 64, 64
2, 7920, Note_on_c, 0, 72, 64
2, 7980, Note_off_c, 0, 72, 64
2, 7980, Note_on_c, 0, 62, 64
2, 8040, Note_off_c, 0, 62, 64
2, 8040, Note_on_c, 0, 64, 64
2, 8100, Note_off_c, 0, 64, 64
2, 8100, Note_on_c, 0, 66, 64
2, 8160, Note_off_c, 0, 66, 64
2, 8160, Note_on_c, 0, 67, 64
2, 8220, Note_off_c, 0, 67, 64
2, 8220, Note_on_c, 0, 69, 64
2, 8280, Note_off_c, 0, 69, 64
2, 8280, Note_on_c, 0, 70, 64
2, 8340, Note_off_c, 0, 70, 64
2, 8340, Note_on_c, 0, 69, 64
2, 8400, Note_off_c, 0, 69, 64
2, 8400, Note_on_c, 0, 67, 64
2, 8460, Note_off_c, 0, 67, 64
2, 8460, Note_on_c, 0, 65, 64
2, 8520, Note_off_c, 0, 65, 64
2, 8520, Note_on_c, 0, 64, 64
2, 8580, Note_off_c, 0, 64, 64
2, 8580, Note_on_c, 0, 62, 64
2, 8640, Note_off_c, 0, 62, 64
2, 8640, Note_on_c, 0, 70, 64
2, 8700, Note_off_c, 0, 70, 64
2, 8700, Note_on_c, 0, 60, 64
2, 8760, Note_off_c, 0, 60, 64
2, 8760, Note_on_c, 0, 62, 64
2, 8820, Note_off_c, 0, 62, 64
2, 8820, Note_on_c, 0, 64, 64
2, 8880, Note_off_c, 0, 64, 64
2, 8880, Note_on_c, 0, 65, 64
2, 8940, Note_off_c, 0, 65, 64
2, 8940, Note_on_c, 0, 67, 64
2, 9000, Note_off_c, 0, 67, 64
2, 9000, Note_on_c, 0, 69, 64
2, 9060, Note_off_c, 0, 69, 64
2, 9060, Note_on_c, 0, 71, 64
2, 9120, Note_off_c, 0, 71, 64
2, 9120, Note_on_c, 0, 72, 64
2, 9180, Note_off_c, 0, 72, 64
2, 9180, Note_on_c, 0, 74, 64
2, 9240, Note_off_c, 0, 74, 64
2, 9240, Note_on_c, 0, 76, 64
2, 9300, Note_off_c, 0, 76, 64
2, 9300, Note_on_c, 0, 77, 64
2, 9360, Note_off_c, 0, 77, 64
2, 9360, Note_on_c, 0, 68, 64
2, 9420, Note_off_c, 0, 68, 64
2, 9420, Note_on_c, 0, 77, 64
2, 9480, Note_off_c, 0, 77, 64
2, 9480, Note_on_c, 0, 76, 64
2, 9540, Note_off_c, 0, 76, 64
2, 9540, Note_on_c, 0, 74, 64
2, 9600, Note_off_c, 0, 74, 64
2, 9600, Note_on_c, 0, 72, 64
2, 9660, Note_off_c, 0, 72, 64
2, 9660, Note_on_c, 0, 71, 64
2, 9720, Note_off_c, 0, 71, 64
2, 9720, Note_on_c, 0, 72, 64
2, 9780, Note_off_c, 0, 72, 64
2, 9780, Note_on_c, 0, 71, 64
2, 9840, Note_off_c, 0, 71, 64
2, 9840, Note_on_c, 0, 74, 64
2, 9900, Note_off_c, 0, 74, 64
2, 9900, Note_on_c, 0, 72, 64
2, 9960, Note_off_c, 0, 72, 64
2, 9960, Note_on_c, 0, 71, 64
2, 10020, Note_off_c, 0, 71, 64
2, 10020, Note_on_c, 0, 69, 64
2, 10080, Note_off_c, 0, 69, 64
2, 10080, Note_on_c, 0, 68, 64
2, 10140, Note_off_c, 0, 68, 64
2, 10140, Note_on_c, 0, 69, 64
2, 10200, Note_off_c, 0, 69, 64
2, 10200, Note_on_c, 0, 68, 64
2, 10260, Note_off_c, 0, 68, 64
2, 10260, Note_on_c, 0, 66, 64
2, 10320, Note_off_c, 0, 66, 64
2, 10320, Note_on_c, 0, 64, 64
2, 10380, Note_off_c, 0, 64, 64
2, 10380, Note_on_c, 0, 62, 64
2, 10440, Note_off_c, 0, 62, 64
2, 10440, Note_on_c, 0, 60, 64
2, 10500, Note_off_c, 0, 60, 64
2, 10500, Note_on_c, 0, 62, 64
2, 10560, Note_off_c, 0, 62, 64
2, 10560, Note_on_c, 0, 64, 64
2, 10620, Note_off_c, 0, 64, 64
2, 10620, Note_on_c, 0, 66, 64
2, 10680, Note_off_c, 0, 66, 64
2, 10680, Note_on_c, 0, 68, 64
2, 10740, Note_off_c, 0, 68, 64
2, 10740, Note_on_c, 0, 69, 64
2, 10800, Note_off_c, 0, 69, 64
2, 10800, Note_on_c, 0, 62, 64
2, 10860, Note_off_c, 0, 62, 64
2, 10860, Note_on_c, 0, 72, 64
2, 10920, Note_off_c, 0, 72, 64
2, 10920, Note_on_c, 0, 71, 64
2, 10980, Note_off_c, 0, 71, 64
2, 10980, Note_on_c, 0, 69, 64
2, 11040, Note_off_c, 0, 69, 64
2, 11040, Note_on_c, 0, 68, 64
2, 11100, Note_off_c, 0, 68, 64
2, 11100, Note_on_c, 0, 66, 64
2, 11160, Note_off_c, 0, 66, 64
2, 11160, Note_on_c, 0, 64, 64
2, 11220, Note_off_c, 0, 64, 64
2, 11220, Note_on_c, 0, 66, 64
2, 11280, Note_off_c, 0, 66, 64
2, 11280, Note_on_c, 0, 68, 64
2, 11340, Note_off_c, 0, 68, 64
2, 11340, Note_on_c, 0, 69, 64
2, 11400, Note_off_c, 0, 69, 64
2, 11400, Note_on_c, 0, 71, 64
2, 11460, Note_off_c, 0, 71, 64
2, 11460, Note_on_c, 0, 72, 64
2, 11520, Note_off_c, 0, 72, 64
2, 11520, Note_on_c, 0, 66, 64
2, 11580, Note_off_c, 0, 66, 64
2, 11580, Note_on_c, 0, 76, 64
2, 11640, Note_off_c, 0, 76, 64
2, 11640, Note_on_c, 0, 74, 64
2, 11700, Note_off_c, 0, 74, 64
2, 11700, Note_on_c, 0, 72, 64
2, 11760, Note_off_c, 0, 72, 64
2, 11760, Note_on_c, 0, 71, 64
2, 11820, Note_off_c, 0, 71, 64
2, 11820, Note_on_c, 0, 69, 64
2, 11880, Note_off_c, 0, 69, 64
2, 11880, Note_on_c, 0, 68, 64
2, 11940, Note_off_c, 0, 68, 64
2, 11940, Note_on_c, 0, 69, 64
2, 12000, Note_off_c, 0, 69, 64
2, 12000, Note_on_c, 0, 71, 64
2, 12060, Note_off_c, 0, 71, 64
2, 12060, Note_on_c, 0, 72, 64
2, 12120, Note_off_c, 0, 72, 64
2, 12120, Note_on_c, 0, 74, 64
2, 12180, Note_off_c, 0, 74, 64
2, 12180, Note_on_c, 0, 76, 64
2, 12240, Note_off_c, 0, 76, 64
2, 12240, Note_on_c, 0, 69, 64
2, 12300, Note_off_c, 0, 69, 64
2, 12300, Note_on_c, 0, 77, 64
2, 12360, Note_off_c, 0, 77, 64
2, 12360, Note_on_c, 0, 76, 64
2, 12420, Note_off_c, 0, 76, 64
2, 12420, Note_on_c, 0, 74, 64
2, 12480, Note_off_c, 0, 74, 64
2, 12480, Note_on_c, 0, 72, 64
2, 12540, Note_off_c, 0, 72, 64
2, 12540, Note_on_c, 0, 71, 64
2, 12600, Note_off_c, 0, 71, 64
2, 12600, Note_on_c, 0, 81, 64
2, 12660, Note_off_c, 0, 81, 64
2, 12660, Note_on_c, 0, 80, 64
2, 12720, Note_off_c, 0, 80, 64
2, 12720, Note_on_c, 0, 78, 64
2, 12780, Note_off_c, 0, 78, 64
2, 12780, Note_on_c, 0, 76, 64
2, 12840, Note_off_c, 0, 76, 64
2, 12840, Note_on_c, 0, 81, 64
2, 13020, Note_off_c, 0, 81, 64
2, 13020, Note_on_c, 0, 74, 64
2, 13080, Note_off_c, 0, 74, 64
2, 13080, Note_on_c, 0, 71, 64
2, 13110, Note_off_c, 0, 71, 64
2, 13110, Note_on_c, 0, 72, 64
2, 13140, Note_off_c, 0, 72, 64
2, 13140, Note_on_c, 0, 71, 64
2, 13260, Note_off_c, 0, 71, 64
2, 13260, Note_on_c, 0, 69, 64
2, 13320, Note_off_c, 0, 69, 64
2, 13320, Note_on_c, 0, 69, 64
2, 13500, Note_off_c, 0, 69, 64
2, 13500, Note_on_c, 0, 69, 64
2, 13560, Note_off_c, 0, 69, 64
2, 13560, Note_on_c, 0, 70, 64
2, 13620, Note_off_c, 0, 70, 64
2, 13620, Note_on_c, 0, 72, 64
2, 13680, Note_off_c, 0, 72, 64
2, 13680, Note_on_c, 0, 62, 64
2, 13800, Note_off_c, 0, 62, 64
2, 13800, Note_on_c, 0, 66, 64
2, 13920, Note_off_c, 0, 66, 64
2, 13920, Note_on_c, 0, 69, 64
2, 14040, Note_off_c, 0, 69, 64
2, 14040, Note_on_c, 0, 70, 64
2, 14100, Note_off_c, 0, 70, 64
2, 14100, Note_on_c, 0, 67, 64
2, 14160, Note_off_c, 0, 67, 64
2, 14160, Note_on_c, 0, 69, 64
2, 14220, Note_off_c, 0, 69, 64
2, 14220, Note_on_c, 0, 70, 64
2, 14280, Note_off_c, 0, 70, 64
2, 14280, Note_on_c, 0, 72, 64
2, 14340, Note_off_c, 0, 72, 64
2, 14340, Note_on_c, 0, 74, 64
2, 14400, Note_off_c, 0, 74, 64
2, 14400, Note_on_c, 0, 64, 64
2, 14460, Note_off_c, 0, 64, 64
2, 14460, Note_on_c, 0, 74, 64
2, 14520, Note_off_c, 0, 74, 64
2, 14520, Note_on_c, 0, 72, 64
2, 14580, Note_off_c, 0, 72, 64
2, 14580, Note_on_c, 0, 70, 64
2, 14640, Note_off_c, 0, 70, 64
2, 14640, Note_on_c, 0, 69, 64
2, 14700, Note_off_c, 0, 69, 64
2, 14700, Note_on_c, 0, 67, 64
2, 14760, Note_off_c, 0, 67, 64
2, 14760, Note_on_c, 0, 69, 64
2, 14880, Note_off_c, 0, 69, 64
2, 14880, Note_on_c, 0, 77, 64
2, 14940, Note_off_c, 0, 77, 64
2, 14940, Note_on_c, 0, 76, 64
2, 15000, Note_off_c, 0, 76, 64
2, 15000, Note_on_c, 0, 77, 64
2, 15120, Note_off_c, 0, 77, 64
2, 15120, Note_on_c, 0, 67, 64
2, 15240, Note_off_c, 0, 67, 64
2, 15240, Note_on_c, 0, 76, 64
2, 15360, Note_off_c, 0, 76, 64
2, 15480, Note_on_c, 0, 74, 64
2, 15540, Note_off_c, 0, 74, 64
2, 15540, Note_on_c, 0, 76, 64
2, 15600, Note_off_c, 0, 76, 64
2, 15600, Note_on_c, 0, 77, 64
2, 15660, Note_off_c, 0, 77, 64
2, 15660, Note_on_c, 0, 79, 64
2, 15720, Note_off_c, 0, 79, 64
2, 15720, Note_on_c, 0, 81, 64
2, 15780, Note_off_c, 0, 81, 64
2, 15780, Note_on_c, 0, 82, 64
2, 15840, Note_off_c, 0, 82, 64
2, 15840, Note_on_c, 0, 73, 64
2, 15900, Note_off_c, 0, 73, 64
2, 15900, Note_on_c, 0, 82, 64
2, 15960, Note_off_c, 0, 82, 64
2, 15960, Note_on_c, 0, 81, 64
2, 16020, Note_off_c, 0, 81, 64
2, 16020, Note_on_c, 0, 79, 64
2, 16080, Note_off_c, 0, 79, 64
2, 16080, Note_on_c, 0, 77, 64
2, 16140, Note_off_c, 0, 77, 64
2, 16140, Note_on_c, 0, 76, 64
2, 16200, Note_off_c, 0, 76, 64
2, 16200, Note_on_c, 0, 77, 64
2, 16320, Note_off_c, 0, 77, 64
2, 16320, Note_on_c, 0, 74, 64
2, 16440, Note_off_c, 0, 74, 64
2, 16440, Note_on_c, 0, 67, 64
2, 16620, Note_off_c, 0, 67, 64
2, 16620, Note_on_c, 0, 74, 64
2, 16680, Note_off_c, 0, 74, 64
2, 16680, Note_on_c, 0, 73, 64
2, 16740, Note_off_c, 0, 73, 64
2, 16740, Note_on_c, 0, 76, 64
2, 16800, Note_off_c, 0, 76, 64
2, 16800, Note_on_c, 0, 69, 64
2, 16860, Note_off_c, 0, 69, 64
2, 16860, Note_on_c, 0, 73, 64
2, 16920, Note_off_c, 0, 73, 64
2, 16920, Note_on_c, 0, 74, 64
2, 16980, Note_off_c, 0, 74, 64
2, 16980, Note_on_c, 0, 71, 64
2, 17040, Note_off_c, 0, 71, 64
2, 17040, Note_on_c, 0, 73, 64
2, 17220, Note_off_c, 0, 73, 64
2, 17220, Note_on_c, 0, 74, 64
2, 17280, Note_off_c, 0, 74, 64
2, 17280, Note_on_c, 0, 74, 64
2, 17340, Note_off_c, 0, 74, 64
2, 17340, Note_on_c, 0, 72, 64
2, 17400, Note_off_c, 0, 72, 64
2, 17400, Note_on_c, 0, 70, 64
2, 17460, Note_off_c, 0, 70, 64
2, 17460, Note_on_c, 0, 69, 64
2, 17520, Note_off_c, 0, 69, 64
2, 17520, Note_on_c, 0, 67, 64
2, 17580, Note_off_c, 0, 67, 64
2, 17580, Note_on_c, 0, 65, 64
2, 17640, Note_off_c, 0, 65, 64
2, 17640, Note_on_c, 0, 70, 64
2, 17700, Note_off_c, 0, 70, 64
2, 17700, Note_on_c, 0, 61, 64
2, 17760, Note_off_c, 0, 61, 64
2, 17760, Note_on_c, 0, 62, 64
2, 17820, Note_off_c, 0, 62, 64
2, 17820, Note_on_c, 0, 64, 64
2, 17880, Note_off_c, 0, 64, 64
2, 17880, Note_on_c, 0, 65, 64
2, 17940, Note_off_c, 0, 65, 64
2, 17940, Note_on_c, 0, 67, 64
2, 18000, Note_off_c, 0, 67, 64
2, 18000, Note_on_c, 0, 69, 64
2, 18060, Note_off_c, 0, 69, 64
2, 18060, Note_on_c, 0, 74, 64
2, 18120, Note_off_c, 0, 74, 64
2, 18120, Note_on_c, 0, 65, 64
2, 18240, Note_off_c, 0, 65, 64
2, 18240, Note_on_c, 0, 64, 64
2, 18300, Note_off_c, 0, 64, 64
2, 18300, Note_on_c, 0, 62, 64
2, 18360, Note_off_c, 0, 62, 64
2, 18360, Note_on_c, 0, 62, 64
2, 19080, Note_off_c, 0, 62, 64
2, 19080, End_track
3, 0, Start_track
3, 0, Text_t, "LH"
3, 720, Note_on_c, 1, 50, 64
3, 780, Note_off_c, 1, 50, 64
3, 780, Note_on_c, 1, 52, 64
3, 840, Note_off_c, 1, 52, 64
3, 840, Note_on_c, 1, 53, 64
3, 900, Note_off_c, 1, 53, 64
3, 900, Note_on_c, 1, 55, 64
3, 960, Note_off_c, 1, 55, 64
3, 960, Note_on_c, 1, 57, 64
3, 1020, Note_off_c, 1, 57, 64
3, 1020, Note_on_c, 1, 58, 64
3, 1080, Note_off_c, 1, 58, 64
3, 1080, Note_on_c, 1, 49, 64
3, 1140, Note_off_c, 1, 49, 64
3, 1140, Note_on_c, 1, 58, 64
3, 1200, Note_off_c, 1, 58, 64
3, 1200, Note_on_c, 1, 57, 64
3, 1260, Note_off_c, 1, 57, 64
3, 1260, Note_on_c, 1, 55, 64
3, 1320, Note_off_c, 1, 55, 64
3, 1320, Note_on_c, 1, 53, 64
3, 1380, Note_off_c, 1, 53, 64
3, 1380, Note_on_c, 1, 52, 64
3, 1440, Note_off_c, 1, 52, 64
3, 1440, Note_on_c, 1, 53, 64
3, 1560, Note_off_c, 1, 53, 64
3, 1560, Note_on_c, 1, 57, 64
3, 1680, Note_off_c, 1, 57, 64
3, 1680, Note_on_c, 1, 62, 64
3, 1800, Note_off_c, 1, 62, 64
3, 1800, Note_on_c, 1, 52, 64
3, 1920, Note_off_c, 1, 52, 64
3, 1920, Note_on_c, 1, 55, 64
3, 2040, Note_off_c, 1, 55, 64
3, 2040, Note_on_c, 1, 61, 64
3, 2160, Note_off_c, 1, 61, 64
3, 2160, Note_on_c, 1, 50, 64
3, 2280, Note_off_c, 1, 50, 64
3, 2280, Note_on_c, 1, 62, 64
3, 2400, Note_off_c, 1, 62, 64
3, 2400, Note_on_c, 1, 53, 64
3, 2520, Note_off_c, 1, 53, 64
3, 2520, Note_on_c, 1, 55, 64
3, 2640, Note_off_c, 1, 55, 64
3, 2640, Note_on_c, 1, 57, 64
3, 2760, Note_off_c, 1, 57, 64
3, 2760, Note_on_c, 1, 58, 64
3, 2880, Note_off_c, 1, 58, 64
3, 2880, Note_on_c, 1, 48, 64
3, 3000, Note_off_c, 1, 48, 64
3, 3000, Note_on_c, 1, 60, 64
3, 3120, Note_off_c, 1, 60, 64
3, 3120, Note_on_c, 1, 52, 64
3, 3240, Note_off_c, 1, 52, 64
3, 3240, Note_on_c, 1, 53, 64
3, 3360, Note_off_c, 1, 53, 64
3, 3360, Note_on_c, 1, 55, 64
3, 3480, Note_off_c, 1, 55, 64
3, 3480, Note_on_c, 1, 57, 64
3, 3600, Note_off_c, 1, 57, 64
3, 3600, Note_on_c, 1, 58, 64
3, 3660, Note_off_c, 1, 58, 64
3, 3660, Note_on_c, 1, 55, 64
3, 3720, Note_off_c, 1, 55, 64
3, 3720, Note_on_c, 1, 57, 64
3, 3780, Note_off_c, 1, 57, 64
3, 3780, Note_on_c, 1, 58, 64
3, 3840, Note_off_c, 1, 58, 64
3, 3840, Note_on_c, 1, 60, 64
3, 3900, Note_off_c, 1, 60, 64
3, 3900, Note_on_c, 1, 62, 64
3, 3960, Note_off_c, 1, 62, 64
3, 3960, Note_on_c, 1, 52, 64
3, 4020, Note_off_c, 1, 52, 64
3, 4020, Note_on_c, 1, 62, 64
3, 4080, Note_off_c, 1, 62, 64
3, 4080, Note_on_c, 1, 60, 64
3, 4140, Note_off_c, 1, 60, 64
3, 4140, Note_on_c, 1, 58, 64
3, 4200, Note_off_c, 1, 58, 64
3, 4200, Note_on_c, 1, 57, 64
3, 4260, Note_off_c, 1, 57, 64
3, 4260, Note_on_c, 1, 55, 64
3, 4320, Note_off_c, 1, 55, 64
3, 4320, Note_on_c, 1, 57, 64
3, 4380, Note_off_c, 1, 57, 64
3, 4380, Note_on_c, 1, 53, 64
3, 4440, Note_off_c, 1, 53, 64
3, 4440, Note_on_c, 1, 55, 64
3, 4500, Note_off_c, 1, 55, 64
3, 4500, Note_on_c, 1, 57, 64
3, 4560, Note_off_c, 1, 57, 64
3, 4560, Note_on_c, 1, 58, 64
3, 4620, Note_off_c, 1, 58, 64
3, 4620, Note_on_c, 1, 60, 64
3, 4680, Note_off_c, 1, 60, 64
3, 4680, Note_on_c, 1, 50, 64
3, 4740, Note_off_c, 1, 50, 64
3, 4740, Note_on_c, 1, 60, 64
3, 4800, Note_off_c, 1, 60, 64
3, 4800, Note_on_c, 1, 58, 64
3, 4860, Note_off_c, 1, 58, 64
3, 4860, Note_on_c, 1, 57, 64
3, 4920, Note_off_c, 1, 57, 64
3, 4920, Note_on_c, 1, 55, 64
3, 4980, Note_off_c, 1, 55, 64
3, 4980, Note_on_c, 1, 53, 64
3, 5040, Note_off_c, 1, 53, 64
3, 5040, Note_on_c, 1, 52, 64
3, 5100, Note_off_c, 1, 52, 64
3, 5100, Note_on_c, 1, 48, 64
3, 5160, Note_off_c, 1, 48, 64
3, 5160, Note_on_c, 1, 50, 64
3, 5220, Note_off_c, 1, 50, 64
3, 5220, Note_on_c, 1, 52, 64
3, 5280, Note_off_c, 1, 52, 64
3, 5280, Note_on_c, 1, 53, 64
3, 5340, Note_off_c, 1, 53, 64
3, 5340, Note_on_c, 1, 55, 64
3, 5400, Note_off_c, 1, 55, 64
3, 5400, Note_on_c, 1, 45, 64
3, 5460, Note_off_c, 1, 45, 64
3, 5460, Note_on_c, 1, 55, 64
3, 5520, Note_off_c, 1, 55, 64
3, 5520, Note_on_c, 1, 53, 64
3, 5580, Note_off_c, 1, 53, 64
3, 5580, Note_on_c, 1, 52, 64
3, 5640, Note_off_c, 1, 52, 64
3, 5640, Note_on_c, 1, 50, 64
3, 5700, Note_off_c, 1, 50, 64
3, 5700, Note_on_c, 1, 48, 64
3, 5760, Note_off_c, 1, 48, 64
3, 5760, Note_on_c, 1, 50, 64
3, 5820, Note_off_c, 1, 50, 64
3, 5820, Note_on_c, 1, 46, 64
3, 5880, Note_off_c, 1, 46, 64
3, 5880, Note_on_c, 1, 48, 64
3, 6000, Note_off_c, 1, 48, 64
3, 6000, Note_on_c, 1, 36, 64
3, 6120, Note_off_c, 1, 36, 64
3, 6120, Note_on_c, 1, 41, 64
3, 6180, Note_off_c, 1, 41, 64
3, 6180, Note_on_c, 1, 43, 64
3, 6240, Note_off_c, 1, 43, 64
3, 6240, Note_on_c, 1, 45, 64
3, 6300, Note_off_c, 1, 45, 64
3, 6300, Note_on_c, 1, 46, 64
3, 6360, Note_off_c, 1, 46, 64
3, 6360, Note_on_c, 1, 48, 64
3, 6420, Note_off_c, 1, 48, 64
3, 6420, Note_on_c, 1, 50, 64
3, 6480, Note_off_c, 1, 50, 64
3, 6480, Note_on_c, 1, 40, 64
3, 6540, Note_off_c, 1, 40, 64
3, 6540, Note_on_c, 1, 50, 64
3, 6600, Note_off_c, 1, 50, 64
3, 6600, Note_on_c, 1, 48, 64
3, 6660, Note_off_c, 1, 48, 64
3, 6660, Note_on_c, 1, 46, 64
3, 6720, Note_off_c, 1, 46, 64
3, 6720, Note_on_c, 1, 45, 64
3, 6780, Note_off_c, 1, 45, 64
3, 6780, Note_on_c, 1, 43, 64
3, 6840, Note_off_c, 1, 43, 64
3, 6840, Note_on_c, 1, 45, 64
3, 6900, Note_off_c, 1, 45, 64
3, 6900, Note_on_c, 1, 46, 64
3, 6960, Note_off_c, 1, 46, 64
3, 6960, Note_on_c, 1, 48, 64
3, 7020, Note_off_c, 1, 48, 64
3, 7020, Note_on_c, 1, 50, 64
3, 7080, Note_off_c, 1, 50, 64
3, 7080, Note_on_c, 1, 52, 64
3, 7140, Note_off_c, 1, 52, 64
3, 7140, Note_on_c, 1, 53, 64
3, 7200, Note_off_c, 1, 53, 64
3, 7200, Note_on_c, 1, 43, 64
3, 7260, Note_off_c, 1, 43, 64
3, 7260, Note_on_c, 1, 53, 64
3, 7320, Note_off_c, 1, 53, 64
3, 7320, Note_on_c, 1, 52, 64
3, 7380, Note_off_c, 1, 52, 64
3, 7380, Note_on_c, 1, 50, 64
3, 7440, Note_off_c, 1, 50, 64
3, 7440, Note_on_c, 1, 48, 64
3, 7500, Note_off_c, 1, 48, 64
3, 7500, Note_on_c, 1, 46, 64
3, 7560, Note_off_c, 1, 46, 64
3, 7560, Note_on_c, 1, 45, 64
3, 7620, Note_off_c, 1, 45, 64
3, 7620, Note_on_c, 1, 46, 64
3, 7680, Note_off_c, 1, 46, 64
3, 7680, Note_on_c, 1, 48, 64
3, 7740, Note_off_c, 1, 48, 64
3, 7740, Note_on_c, 1, 45, 64
3, 7800, Note_off_c, 1, 45, 64
3, 7800, Note_on_c, 1, 46, 64
3, 7860, Note_off_c, 1, 46, 64
3, 7860, Note_on_c, 1, 48, 64
3, 7920, Note_off_c, 1, 48, 64
3, 7920, Note_on_c, 1, 42, 64
3, 8040, Note_off_c, 1, 42, 64
3, 8280, Note_on_c, 1, 43, 64
3, 8340, Note_off_c, 1, 43, 64
3, 8340, Note_on_c, 1, 45, 64
3, 8400, Note_off_c, 1, 45, 64
3, 8400, Note_on_c, 1, 46, 64
3, 8460, Note_off_c, 1, 46, 64
3, 8460, Note_on_c, 1, 43, 64
3, 8520, Note_off_c, 1, 43, 64
3, 8520, Note_on_c, 1, 45, 64
3, 8580, Note_off_c, 1, 45, 64
3, 8580, Note_on_c, 1, 46, 64
3, 8640, Note_off_c, 1, 46, 64
3, 8640, Note_on_c, 1, 40, 64
3, 8760, Note_off_c, 1, 40, 64
3, 9000, Note_on_c, 1, 41, 64
3, 9120, Note_off_c, 1, 41, 64
3, 9120, Note_on_c, 1, 53, 64
3, 9240, Note_off_c, 1, 53, 64
3, 9240, Note_on_c, 1, 50, 64
3, 9360, Note_off_c, 1, 50, 64
3, 9360, Note_on_c, 1, 47, 64
3, 9480, Note_off_c, 1, 47, 64
3, 9480, Note_on_c, 1, 44, 64
3, 9600, Note_off_c, 1, 44, 64
3, 9600, Note_on_c, 1, 40, 64
3, 9720, Note_off_c, 1, 40, 64
3, 9720, Note_on_c, 1, 45, 64
3, 9780, Note_off_c, 1, 45, 64
3, 9780, Note_on_c, 1, 44, 64
3, 9840, Note_off_c, 1, 44, 64
3, 9840, Note_on_c, 1, 45, 64
3, 9900, Note_off_c, 1, 45, 64
3, 9900, Note_on_c, 1, 47, 64
3, 9960, Note_off_c, 1, 47, 64
3, 9960, Note_on_c, 1, 48, 64
3, 10020, Note_off_c, 1, 48, 64
3, 10020, Note_on_c, 1, 50, 64
3, 10080, Note_off_c, 1, 50, 64
3, 10080, Note_on_c, 1, 52, 64
3, 10110, Note_off_c, 1, 52, 64
3, 10110, Note_on_c, 1, 53, 48
3, 10140, Note_on_c, 1, 52, 48
3, 10143, Note_off_c, 1, 53, 64
3, 10170, Note_on_c, 1, 53, 48
3, 10173, Note_off_c, 1, 52, 64
3, 10200, Note_on_c, 1, 52, 48
3, 10203, Note_off_c, 1, 53, 64
3, 10230, Note_on_c, 1, 53, 48
3, 10233, Note_off_c, 1, 52, 64
3, 10260, Note_on_c, 1, 52, 49
3, 10263, Note_off_c, 1, 53, 64
3, 10290, Note_on_c, 1, 53, 49
3, 10293, Note_off_c, 1, 52, 64
3, 10320, Note_on_c, 1, 52, 49
3, 10323, Note_off_c, 1, 53, 64
3, 10350, Note_on_c, 1, 53, 49
3, 10353, Note_off_c, 1, 52, 64
3, 10380, Note_on_c, 1, 52, 49
3, 10383, Note_off_c, 1, 53, 64
3, 10410, Note_on_c, 1, 53, 50
3, 10413, Note_off_c, 1, 52, 64
3, 10440, Note_on_c, 1, 52, 50
3, 10443, Note_off_c, 1, 53, 64
3, 10470, Note_on_c, 1, 53, 50
3, 10473, Note_off_c, 1, 52, 64
3, 10500, Note_on_c, 1, 52, 50
3, 10503, Note_off_c, 1, 53, 64
3, 10530, Note_on_c, 1, 53, 50
3, 10533, Note_off_c, 1, 52, 64
3, 10560, Note_on_c, 1, 52, 51
3, 10563, Note_off_c, 1, 53, 64
3, 10590, Note_on_c, 1, 53, 51
3, 10593, Note_off_c, 1, 52, 64
3, 10620, Note_on_c, 1, 52, 51
3, 10623, Note_off_c, 1, 53, 64
3, 10650, Note_on_c, 1, 53, 51
3, 10653, Note_off_c, 1, 52, 64
3, 10680, Note_on_c, 1, 52, 51
3, 10683, Note_off_c, 1, 53, 64
3, 10710, Note_on_c, 1, 53, 52
3, 10713, Note_off_c, 1, 52, 64
3, 10740, Note_on_c, 1, 52, 52
3, 10743, Note_off_c, 1, 53, 64
3, 10770, Note_on_c, 1, 53, 52
3, 10773, Note_off_c, 1, 52, 64
3, 10800, Note_on_c, 1, 52, 52
3, 10803, Note_off_c, 1, 53, 64
3, 10830, Note_on_c, 1, 53, 53
3, 10833, Note_off_c, 1, 52, 64
3, 10860, Note_on_c, 1, 52, 53
3, 10863, Note_off_c, 1, 53, 64
3, 10890, Note_on_c, 1, 53, 53
3, 10893, Note_off_c, 1, 52, 64
3, 10920, Note_on_c, 1, 52, 53
3, 10923, Note_off_c, 1, 53, 64
3, 10950, Note_on_c, 1, 53, 53
3, 10953, Note_off_c, 1, 52, 64
3, 10980, Note_on_c, 1, 52, 54
3, 10983, Note_off_c, 1, 53, 64
3, 11010, Note_on_c, 1, 53, 54
3, 11013, Note_off_c, 1, 52, 64
3, 11040, Note_on_c, 1, 52, 54
3, 11043, Note_off_c, 1, 53, 64
3, 11070, Note_on_c, 1, 53, 54
3, 11073, Note_off_c, 1, 52, 64
3, 11100, Note_on_c, 1, 52, 54
3, 11103, Note_off_c, 1, 53, 64
3, 11130, Note_on_c, 1, 53, 55
3, 11133, Note_off_c, 1, 52, 64
3, 11160, Note_on_c, 1, 52, 55
3, 11163, Note_off_c, 1, 53, 64
3, 11190, Note_on_c, 1, 53, 55
3, 11193, Note_off_c, 1, 52, 64
3, 11220, Note_on_c, 1, 52, 55
3, 11223, Note_off_c, 1, 53, 64
3, 11250, Note_on_c, 1, 53, 55
3, 11253, Note_off_c, 1, 52, 64
3, 11280, Note_on_c, 1, 52, 56
3, 11283, Note_off_c, 1, 53, 64
3, 11310, Note_on_c, 1, 53, 56
3, 11313, Note_off_c, 1, 52, 64
3, 11340, Note_on_c, 1, 52, 56
3, 11343, Note_off_c, 1, 53, 64
3, 11370, Note_on_c, 1, 53, 56
3, 11373, Note_off_c, 1, 52, 64
3, 11400, Note_on_c, 1, 52, 56
3, 11403, Note_off_c, 1, 53, 64
3, 11430, Note_on_c, 1, 53, 57
3, 11433, Note_off_c, 1, 52, 64
3, 11460, Note_on_c, 1, 52, 57
3, 11463, Note_off_c, 1, 53, 64
3, 11490, Note_on_c, 1, 53, 57
3, 11493, Note_off_c, 1, 52, 64
3, 11520, Note_on_c, 1, 52, 57
3, 11523, Note_off_c, 1, 53, 64
3, 11550, Note_on_c, 1, 53, 57
3, 11553, Note_off_c, 1, 52, 64
3, 11580, Note_on_c, 1, 52, 58
3, 11583, Note_off_c, 1, 53, 64
3, 11610, Note_on_c, 1, 53, 58
3, 11613, Note_off_c, 1, 52, 64
3, 11640, Note_on_c, 1, 52, 58
3, 11643, Note_off_c, 1, 53, 64
3, 11670, Note_on_c, 1, 53, 58
3, 11673, Note_off_c, 1, 52, 64
3, 11700, Note_on_c, 1, 52, 58
3, 11703, Note_off_c, 1, 53, 64
3, 11730, Note_on_c, 1, 53, 59
3, 11733, Note_off_c, 1, 52, 64
3, 11760, Note_on_c, 1, 52, 59
3, 11763, Note_off_c, 1, 53, 64
3, 11790, Note_on_c, 1, 53, 59
3, 11793, Note_off_c, 1, 52, 64
3, 11820, Note_on_c, 1, 52, 59
3, 11823, Note_off_c, 1, 53, 64
3, 11850, Note_on_c, 1, 53, 59
3, 11853, Note_off_c, 1, 52, 64
3, 11880, Note_on_c, 1, 52, 64
3, 11883, Note_off_c, 1, 53, 64
3, 12000, Note_off_c, 1, 52, 64
3, 12000, Note_on_c, 1, 64, 64
3, 12120, Note_off_c, 1, 64, 64
3, 12120, Note_on_c, 1, 62, 64
3, 12240, Note_off_c, 1, 62, 64
3, 12240, Note_on_c, 1, 60, 64
3, 12360, Note_off_c, 1, 60, 64
3, 12360, Note_on_c, 1, 59, 64
3, 12480, Note_off_c, 1, 59, 64
3, 12480, Note_on_c, 1, 57, 64
3, 12600, Note_off_c, 1, 57, 64
3, 12600, Note_on_c, 1, 62, 64
3, 12720, Note_off_c, 1, 62, 64
3, 12720, Note_on_c, 1, 64, 64
3, 12840, Note_off_c, 1, 64, 64
3, 12840, Note_on_c, 1, 65, 64
3, 12960, Note_off_c, 1, 65, 64
3, 12960, Note_on_c, 1, 62, 64
3, 13080, Note_off_c, 1, 62, 64
3, 13080, Note_on_c, 1, 64, 64
3, 13200, Note_off_c, 1, 64, 64
3, 13200, Note_on_c, 1, 52, 64
3, 13320, Note_off_c, 1, 52, 64
3, 13320, Note_on_c, 1, 57, 64
3, 13380, Note_off_c, 1, 57, 64
3, 13380, Note_on_c, 1, 45, 64
3, 13440, Note_off_c, 1, 45, 64
3, 13440, Note_on_c, 1, 46, 64
3, 13500, Note_off_c, 1, 46, 64
3, 13500, Note_on_c, 1, 48, 64
3, 13560, Note_off_c, 1, 48, 64
3, 13560, Note_on_c, 1, 50, 64
3, 13620, Note_off_c, 1, 50, 64
3, 13620, Note_on_c, 1, 51, 64
3, 13680, Note_off_c, 1, 51, 64
3, 13680, Note_on_c, 1, 42, 64
3, 13740, Note_off_c, 1, 42, 64
3, 13740, Note_on_c, 1, 51, 64
3, 13800, Note_off_c, 1, 51, 64
3, 13800, Note_on_c, 1, 50, 64
3, 13860, Note_off_c, 1, 50, 64
3, 13860, Note_on_c, 1, 48, 64
3, 13920, Note_off_c, 1, 48, 64
3, 13920, Note_on_c, 1, 46, 64
3, 13980, Note_off_c, 1, 46, 64
3, 13980, Note_on_c, 1, 45, 64
3, 14040, Note_off_c, 1, 45, 64
3, 14040, Note_on_c, 1, 43, 64
3, 14220, Note_off_c, 1, 43, 64
3, 14220, Note_on_c, 1, 43, 64
3, 14280, Note_off_c, 1, 43, 64
3, 14280, Note_on_c, 1, 45, 64
3, 14340, Note_off_c, 1, 45, 64
3, 14340, Note_on_c, 1, 46, 64
3, 14400, Note_off_c, 1, 46, 64
3, 14400, Note_on_c, 1, 36, 64
3, 14520, Note_off_c, 1, 36, 64
3, 14520, Note_on_c, 1, 43, 64
3, 14640, Note_off_c, 1, 43, 64
3, 14640, Note_on_c, 1, 48, 64
3, 14760, Note_off_c, 1, 48, 64
3, 14760, Note_on_c, 1, 53, 64
3, 14820, Note_off_c, 1, 53, 64
3, 14820, Note_on_c, 1, 55, 64
3, 14880, Note_off_c, 1, 55, 64
3, 14880, Note_on_c, 1, 57, 64
3, 14940, Note_off_c, 1, 57, 64
3, 14940, Note_on_c, 1, 59, 64
3, 15000, Note_off_c, 1, 59, 64
3, 15000, Note_on_c, 1, 61, 64
3, 15060, Note_off_c, 1, 61, 64
3, 15060, Note_on_c, 1, 62, 64
3, 15120, Note_off_c, 1, 62, 64
3, 15120, Note_on_c, 1, 52, 64
3, 15180, Note_off_c, 1, 52, 64
3, 15180, Note_on_c, 1, 62, 64
3, 15240, Note_off_c, 1, 62, 64
3, 15240, Note_on_c, 1, 61, 64
3, 15300, Note_off_c, 1, 61, 64
3, 15300, Note_on_c, 1, 59, 64
3, 15360, Note_off_c, 1, 59, 64
3, 15360, Note_on_c, 1, 57, 64
3, 15420, Note_off_c, 1, 57, 64
3, 15420, Note_on_c, 1, 55, 64
3, 15480, Note_off_c, 1, 55, 64
3, 15480, Note_on_c, 1, 53, 64
3, 15600, Note_off_c, 1, 53, 64
3, 15600, Note_on_c, 1, 57, 64
3, 15720, Note_off_c, 1, 57, 64
3, 15720, Note_on_c, 1, 62, 64
3, 15840, Note_off_c, 1, 62, 64
3, 15840, Note_on_c, 1, 52, 64
3, 15960, Note_off_c, 1, 52, 64
3, 15960, Note_on_c, 1, 55, 64
3, 16080, Note_off_c, 1, 55, 64
3, 16080, Note_on_c, 1, 61, 64
3, 16200, Note_off_c, 1, 61, 64
3, 16200, Note_on_c, 1, 50, 64
3, 16260, Note_off_c, 1, 50, 64
3, 16260, Note_on_c, 1, 52, 64
3, 16320, Note_off_c, 1, 52, 64
3, 16320, Note_on_c, 1, 53, 64
3, 16380, Note_off_c, 1, 53, 64
3, 16380, Note_on_c, 1, 55, 64
3, 16440, Note_off_c, 1, 55, 64
3, 16440, Note_on_c, 1, 57, 64
3, 16500, Note_off_c, 1, 57, 64
3, 16500, Note_on_c, 1, 58, 64
3, 16560, Note_off_c, 1, 58, 64
3, 16560, Note_on_c, 1, 49, 64
3, 16620, Note_off_c, 1, 49, 64
3, 16620, Note_on_c, 1, 58, 64
3, 16680, Note_off_c, 1, 58, 64
3, 16680, Note_on_c, 1, 57, 64
3, 16740, Note_off_c, 1, 57, 64
3, 16740, Note_on_c, 1, 55, 64
3, 16800, Note_off_c, 1, 55, 64
3, 16800, Note_on_c, 1, 53, 64
3, 16860, Note_off_c, 1, 53, 64
3, 16860, Note_on_c, 1, 52, 64
3, 16920, Note_off_c, 1, 52, 64
3, 16920, Note_on_c, 1, 53, 64
3, 16980, Note_off_c, 1, 53, 64
3, 16980, Note_on_c, 1, 55, 64
3, 17040, Note_off_c, 1, 55, 64
3, 17040, Note_on_c, 1, 57, 64
3, 17160, Note_off_c, 1, 57, 64
3, 17160, Note_on_c, 1, 45, 64
3, 17280, Note_off_c, 1, 45, 64
3, 17280, Note_on_c, 1, 46, 64
3, 17460, Note_off_c, 1, 46, 64
3, 17460, Note_on_c, 1, 48, 64
3, 17520, Note_off_c, 1, 48, 64
3, 17520, Note_on_c, 1, 46, 64
3, 17580, Note_off_c, 1, 46, 64
3, 17580, Note_on_c, 1, 45, 64
3, 17640, Note_off_c, 1, 45, 64
3, 17640, Note_on_c, 1, 43, 64
3, 17700, Note_off_c, 1, 43, 64
3, 17700, Note_on_c, 1, 58, 64
3, 17760, Note_off_c, 1, 58, 64
3, 17760, Note_on_c, 1, 57, 64
3, 17820, Note_off_c, 1, 57, 64
3, 17820, Note_on_c, 1, 55, 64
3, 17880, Note_off_c, 1, 55, 64
3, 17880, Note_on_c, 1, 53, 64
3, 17940, Note_off_c, 1, 53, 64
3, 17940, Note_on_c, 1, 52, 64
3, 18000, Note_off_c, 1, 52, 64
3, 18000, Note_on_c, 1, 53, 64
3, 18060, Note_off_c, 1, 53, 64
3, 18060, Note_on_c, 1, 55, 64
3, 18120, Note_off_c, 1, 55, 64
3, 18120, Note_on_c, 1, 57, 64
3, 18240, Note_off_c, 1, 57, 64
3, 18240, Note_on_c, 1, 45, 64
3, 18360, Note_off_c, 1, 45, 64
3, 18360, Note_on_c, 1, 38, 64
3, 19080, Note_off_c, 1, 38, 64
3, 19080, End_track
0, 0, End_of_file
