0, 0, Header, 1, 4, 240
1, 0, Start_track
1, 0, Time_signature, 4, 2, 24, 8
1, 0, Tempo, 625000
1, 28072, Tempo, 659341
1, 28304, Tempo, 681818
1, 28552, Tempo, 705882
1, 28800, Tempo, 740741
1, 28920, Tempo, 779221
1, 29048, Tempo, 821918
1, 29184, Tempo, 869565
1, 29464, Tempo, 937500
1, 29760, Tempo, 952381
1, 29760, End_track
2, 0, Start_track
2, 0, Text_t, "RH"
2, 0, Note_on_c, 0, 69, 64
2, 120, Note_off_c, 0, 69, 64
2, 120, Note_on_c, 0, 68, 64
2, 180, Note_off_c, 0, 68, 64
2, 180, Note_on_c, 0, 69, 64
2, 240, Note_off_c, 0, 69, 64
2, 240, Note_on_c, 0, 71, 64
2, 360, Note_off_c, 0, 71, 64
2, 360, Note_on_c, 0, 69, 64
2, 420, Note_off_c, 0, 69, 64
2, 420, Note_on_c, 0, 68, 64
2, 480, Note_off_c, 0, 68, 64
2, 480, Note_on_c, 0, 69, 64
2, 770, Note_off_c, 0, 69, 64
2, 780, Note_on_c, 0, 71, 64
2, 840, Note_off_c, 0, 71, 64
2, 840, Note_on_c, 0, 68, 64
2, 900, Note_off_c, 0, 68, 64
2, 900, Note_on_c, 0, 69, 64
2, 960, Note_off_c, 0, 69, 64
2, 960, Note_on_c, 0, 71, 64
2, 1020, Note_off_c, 0, 71, 64
2, 1020, Note_on_c, 0, 64, 64
2, 1080, Note_off_c, 0, 64, 64
2, 1080, Note_on_c, 0, 73, 64
2, 1140, Note_off_c, 0, 73, 64
2, 1140, Note_on_c, 0, 64, 64
2, 1200, Note_off_c, 0, 64, 64
2, 1200, Note_on_c, 0, 74, 64
2, 1260, Note_off_c, 0, 74, 64
2, 1260, Note_on_c, 0, 64, 64
2, 1320, Note_off_c, 0, 64, 64
2, 1320, Note_on_c, 0, 76, 64
2, 1440, Note_off_c, 0, 76, 64
2, 1440, Note_on_c, 0, 73, 68
2, 1460, Note_off_c, 0, 73, 64
2, 1460, Note_on_c, 0, 74, 50
2, 1480, Note_off_c, 0, 74, 64
2, 1480, Note_on_c, 0, 73, 64
2, 1500, Note_off_c, 0, 73, 64
2, 1500, Note_on_c, 0, 71, 64
2, 1560, Note_off_c, 0, 71, 64
2, 1560, Note_on_c, 0, 69, 64
2, 1620, Note_off_c, 0, 69, 64
2, 1620, Note_on_c, 0, 71, 64
2, 1680, Note_off_c, 0, 71, 64
2, 1680, Note_on_c, 0, 73, 64
2, 1740, Note_off_c, 0, 73, 64
2, 1740, Note_on_c, 0, 75, 64
2, 1800, Note_off_c, 0, 75, 64
2, 1800, Note_on_c, 0, 76, 64
2, 1860, Note_off_c, 0, 76, 64
2, 1860, Note_on_c, 0, 78, 64
2, 1920, Note_off_c, 0, 78, 64
2, 1920, Note_on_c, 0, 80, 64
2, 1980, Note_off_c, 0, 80, 64
2, 1980, Note_on_c, 0, 81, 64
2, 2040, Note_off_c, 0, 81, 64
2, 2040, Note_on_c, 0, 83, 64
2, 2220, Note_off_c, 0, 83, 64
2, 2220, Note_on_c, 0, 81, 64
2, 2280, Note_off_c, 0, 81, 64
2, 2280, Note_on_c, 0, 80, 64
2, 2340, Note_off_c, 0, 80, 64
2, 2340, Note_on_c, 0, 78, 64
2, 2400, Note_off_c, 0, 78, 64
2, 2400, Note_on_c, 0, 76, 64
2, 2460, Note_off_c, 0, 76, 64
2, 2460, Note_on_c, 0, 75, 64
2, 2520, Note_off_c, 0, 75, 64
2, 2520, Note_on_c, 0, 73, 64
2, 2580, Note_off_c, 0, 73, 64
2, 2580, Note_on_c, 0, 71, 64
2, 2640, Note_off_c, 0, 71, 64
2, 2640, Note_on_c, 0, 76, 64
2, 3120, Note_off_c, 0, 76, 64
2, 3120, Note_on_c, 0, 75, 64
2, 3360, Note_off_c, 0, 75, 64
2, 3360, Note_on_c, 0, 76, 64
2, 3480, Note_off_c, 0, 76, 64
2, 3480, Note_on_c, 0, 74, 64
2, 3540, Note_off_c, 0, 74, 64
2, 3540, Note_on_c, 0, 73, 64
2, 3600, Note_off_c, 0, 73, 64
2, 3600, Note_on_c, 0, 74, 64
2, 3660, Note_off_c, 0, 74, 64
2, 3660, Note_on_c, 0, 76, 64
2, 3720, Note_off_c, 0, 76, 64
2, 3720, Note_on_c, 0, 78, 64
2, 3780, Note_off_c, 0, 78, 64
2, 3780, Note_on_c, 0, 80, 64
2, 3840, Note_off_c, 0, 80, 64
2, 3840, Note_on_c, 0, 81, 64
2, 4020, Note_off_c, 0, 81, 64
2, 4020, Note_on_c, 0, 81, 64
2, 4080, Note_off_c, 0, 81, 64
2, 4080, Note_on_c, 0, 80, 64
2, 4260, Note_off_c, 0, 80, 64
2, 4260, Note_on_c, 0, 80, 64
2, 4320, Note_off_c, 0, 80, 64
2, 4320, Note_on_c, 0, 78, 64
2, 4500, Note_off_c, 0, 78, 64
2, 4500, Note_on_c, 0, 78, 64
2, 4560, Note_off_c, 0, 78, 64
2, 4560, Note_on_c, 0, 76, 64
2, 4740, Note_off_c, 0, 76, 64
2, 4740, Note_on_c, 0, 76, 64
2, 4800, Note_off_c, 0, 76, 64
2, 4800, Note_on_c, 0, 74, 64
2, 4920, Note_off_c, 0, 74, 64
2, 4920, Note_on_c, 0, 73, 64
2, 5030, Note_off_c, 0, 73, 64
2, 5040, Note_on_c, 0, 73, 68
2, 5060, Note_off_c, 0, 73, 64
2, 5060, Note_on_c, 0, 71, 48
2, 5080, Note_on_c, 0, 73, 51
2, 5082, Note_off_c, 0, 71, 64
2, 5100, Note_on_c, 0, 71, 54
2, 5102, Note_off_c, 0, 73, 64
2, 5120, Note_on_c, 0, 73, 57
2, 5122, Note_off_c, 0, 71, 64
2, 5140, Note_on_c, 0, 71, 60
2, 5142, Note_off_c, 0, 73, 64
2, 5294, Note_off_c, 0, 71, 64
2, 5400, Note_on_c, 0, 73, 64
2, 5520, Note_off_c, 0, 73, 64
2, 5520, Note_on_c, 0, 78, 64
2, 5880, Note_off_c, 0, 78, 64
2, 5880, Note_on_c, 0, 71, 64
2, 6000, Note_off_c, 0, 71, 64
2, 6000, Note_on_c, 0, 76, 64
2, 6360, Note_off_c, 0, 76, 64
2, 6360, Note_on_c, 0, 75, 64
2, 6420, Note_off_c, 0, 75, 64
2, 6420, Note_on_c, 0, 76, 64
2, 6480, Note_off_c, 0, 76, 64
2, 6480, Note_on_c, 0, 78, 64
2, 6600, Note_off_c, 0, 78, 64
2, 6600, Note_on_c, 0, 76, 64
2, 6660, Note_off_c, 0, 76, 64
2, 6660, Note_on_c, 0, 75, 64
2, 6720, Note_off_c, 0, 75, 64
2, 6720, Note_on_c, 0, 76, 64
2, 7010, Note_off_c, 0, 76, 64
2, 7020, Note_on_c, 0, 78, 64
2, 7080, Note_off_c, 0, 78, 64
2, 7080, Note_on_c, 0, 75, 64
2, 7140, Note_off_c, 0, 75, 64
2, 7140, Note_on_c, 0, 76, 64
2, 7200, Note_off_c, 0, 76, 64
2, 7200, Note_on_c, 0, 78, 64
2, 7260, Note_off_c, 0, 78, 64
2, 7260, Note_on_c, 0, 71, 64
2, 7320, Note_off_c, 0, 71, 64
2, 7320, Note_on_c, 0, 80, 64
2, 7380, Note_off_c, 0, 80, 64
2, 7380, Note_on_c, 0, 71, 64
2, 7440, Note_off_c, 0, 71, 64
2, 7440, Note_on_c, 0, 81, 64
2, 7500, Note_off_c, 0, 81, 64
2, 7500, Note_on_c, 0, 71, 64
2, 7560, Note_off_c, 0, 71, 64
2, 7560, Note_on_c, 0, 83, 64
2, 7680, Note_off_c, 0, 83, 64
2, 7680, Note_on_c, 0, 80, 68
2, 7700, Note_off_c, 0, 80, 64
2, 7700, Note_on_c, 0, 81, 56
2, 7720, Note_off_c, 0, 81, 64
2, 7720, Note_on_c, 0, 80, 64
2, 7740, Note_off_c, 0, 80, 64
2, 7740, Note_on_c, 0, 81, 64
2, 7800, Note_off_c, 0, 81, 64
2, 7800, Note_on_c, 0, 83, 64
2, 7860, Note_off_c, 0, 83, 64
2, 7860, Note_on_c, 0, 81, 64
2, 7920, Note_off_c, 0, 81, 64
2, 7920, Note_on_c, 0, 80, 64
2, 7980, Note_off_c, 0, 80, 64
2, 7980, Note_on_c, 0, 78, 64
2, 8040, Note_off_c, 0, 78, 64
2, 8040, Note_on_c, 0, 76, 64
2, 8100, Note_off_c, 0, 76, 64
2, 8100, Note_on_c, 0, 74, 64
2, 8160, Note_off_c, 0, 74, 64
2, 8160, Note_on_c, 0, 73, 64
2, 8750, Note_off_c, 0, 73, 64
2, 8760, Note_on_c, 0, 73, 64
2, 8820, Note_off_c, 0, 73, 64
2, 8820, Note_on_c, 0, 74, 64
2, 8880, Note_off_c, 0, 74, 64
2, 8880, Note_on_c, 0, 76, 64
2, 9000, Note_off_c, 0, 76, 64
2, 9000, Note_on_c, 0, 74, 64
2, 9060, Note_off_c, 0, 74, 64
2, 9060, Note_on_c, 0, 73, 64
2, 9120, Note_off_c, 0, 73, 64
2, 9120, Note_on_c, 0, 71, 64
2, 9710, Note_off_c, 0, 71, 64
2, 9720, Note_on_c, 0, 71, 64
2, 9780, Note_off_c, 0, 71, 64
2, 9780, Note_on_c, 0, 73, 64
2, 9840, Note_off_c, 0, 73, 64
2, 9840, Note_on_c, 0, 74, 64
2, 9960, Note_off_c, 0, 74, 64
2, 9960, Note_on_c, 0, 73, 64
2, 10020, Note_off_c, 0, 73, 64
2, 10020, Note_on_c, 0, 71, 64
2, 10080, Note_off_c, 0, 71, 64
2, 10080, Note_on_c, 0, 69, 64
2, 10670, Note_off_c, 0, 69, 64
2, 10680, Note_on_c, 0, 69, 64
2, 10740, Note_off_c, 0, 69, 64
2, 10740, Note_on_c, 0, 71, 64
2, 10800, Note_off_c, 0, 71, 64
2, 10800, Note_on_c, 0, 73, 64
2, 10920, Note_off_c, 0, 73, 64
2, 10920, Note_on_c, 0, 71, 64
2, 10980, Note_off_c, 0, 71, 64
2, 10980, Note_on_c, 0, 69, 64
2, 11040, Note_off_c, 0, 69, 64
2, 11040, Note_on_c, 0, 68, 64
2, 11630, Note_off_c, 0, 68, 64
2, 11640, Note_on_c, 0, 68, 64
2, 11700, Note_off_c, 0, 68, 64
2, 11700, Note_on_c, 0, 69, 64
2, 11760, Note_off_c, 0, 69, 64
2, 11760, Note_on_c, 0, 71, 64
2, 11880, Note_off_c, 0, 71, 64
2, 11880, Note_on_c, 0, 69, 64
2, 11940, Note_off_c, 0, 69, 64
2, 11940, Note_on_c, 0, 68, 64
2, 12000, Note_off_c, 0, 68, 64
2, 12000, Note_on_c, 0, 69, 64
2, 12120, Note_off_c, 0, 69, 64
2, 12120, Note_on_c, 0, 70, 64
2, 12180, Note_off_c, 0, 70, 64
2, 12180, Note_on_c, 0, 72, 64
2, 12240, Note_off_c, 0, 72, 64
2, 12240, Note_on_c, 0, 73, 64
2, 12360, Note_off_c, 0, 73, 64
2, 12360, Note_on_c, 0, 72, 64
2, 12420, Note_off_c, 0, 72, 64
2, 12420, Note_on_c, 0, 70, 64
2, 12480, Note_off_c, 0, 70, 64
2, 12480, Note_on_c, 0, 72, 64
2, 12600, Note_off_c, 0, 72, 64
2, 12600, Note_on_c, 0, 72, 64
2, 12660, Note_off_c, 0, 72, 64
2, 12660, Note_on_c, 0, 73, 64
2, 12720, Note_off_c, 0, 73, 64
2, 12720, Note_on_c, 0, 75, 64
2, 12840, Note_off_c, 0, 75, 64
2, 12840, Note_on_c, 0, 73, 64
2, 12900, Note_off_c, 0, 73, 64
2, 12900, Note_on_c, 0, 72, 64
2, 12960, Note_off_c, 0, 72, 64
2, 12960, Note_on_c, 0, 73, 64
2, 13080, Note_off_c, 0, 73, 64
2, 13080, Note_on_c, 0, 68, 64
2, 13140, Note_off_c, 0, 68, 64
2, 13140, Note_on_c, 0, 69, 64
2, 13200, Note_off_c, 0, 69, 64
2, 13200, Note_on_c, 0, 71, 64
2, 13320, Note_off_c, 0, 71, 64
2, 13320, Note_on_c, 0, 69, 64
2, 13380, Note_off_c, 0, 69, 64
2, 13380, Note_on_c, 0, 68, 64
2, 13440, Note_off_c, 0, 68, 64
2, 13440, Note_on_c, 0, 69, 64
2, 13500, Note_off_c, 0, 69, 64
2, 13500, Note_on_c, 0, 66, 64
2, 13560, Note_off_c, 0, 66, 64
2, 13560, Note_on_c, 0, 68, 64
2, 13620, Note_off_c, 0, 68, 64
2, 13620, Note_on_c, 0, 69, 64
2, 13680, Note_off_c, 0, 69, 64
2, 13680, Note_on_c, 0, 71, 64
2, 13740, Note_off_c, 0, 71, 64
2, 13740, Note_on_c, 0, 73, 64
2, 13800, Note_off_c, 0, 73, 64
2, 13800, Note_on_c, 0, 74, 64
2, 13860, Note_off_c, 0, 74, 64
2, 13860, Note_on_c, 0, 76, 64
2, 13920, Note_off_c, 0, 76, 64
2, 13920, Note_on_c, 0, 74, 64
2, 14100, Note_off_c, 0, 74, 64
2, 14100, Note_on_c, 0, 74, 64
2, 14160, Note_off_c, 0, 74, 64
2, 14160, Note_on_c, 0, 73, 64
2, 14340, Note_off_c, 0, 73, 64
2, 14340, Note_on_c, 0, 73, 64
2, 14400, Note_off_c, 0, 73, 64
2, 14400, Note_on_c, 0, 71, 64
2, 14520, Note_off_c, 0, 71, 64
2, 14520, Note_on_c, 0, 69, 64
2, 14640, Note_off_c, 0, 69, 64
2, 14640, Note_on_c, 0, 68, 64
2, 14880, Note_off_c, 0, 68, 64
2, 15000, Note_on_c, 0, 73, 64
2, 15120, Note_off_c, 0, 73, 64
2, 15120, Note_on_c, 0, 78, 64
2, 15480, Note_off_c, 0, 78, 64
2, 15480, Note_on_c, 0, 71, 64
2, 15600, Note_off_c, 0, 71, 64
2, 15600, Note_on_c, 0, 79, 64
2, 15960, Note_off_c, 0, 79, 64
2, 15960, Note_on_c, 0, 73, 64
2, 16080, Note_off_c, 0, 73, 64
2, 16080, Note_on_c, 0, 81, 64
2, 16440, Note_off_c, 0, 81, 64
2, 16440, Note_on_c, 0, 75, 64
2, 16560, Note_off_c, 0, 75, 64
2, 16560, Note_on_c, 0, 83, 64
2, 16680, Note_off_c, 0, 83, 64
2, 16680, Note_on_c, 0, 81, 64
2, 16800, Note_off_c, 0, 81, 64
2, 16800, Note_on_c, 0, 80, 64
2, 16920, Note_off_c, 0, 80, 64
2, 16920, Note_on_c, 0, 80, 64
2, 16980, Note_off_c, 0, 80, 64
2, 16980, Note_on_c, 0, 81, 64
2, 17040, Note_off_c, 0, 81, 64
2, 17040, Note_on_c, 0, 83, 64
2, 17160, Note_off_c, 0, 83, 64
2, 17160, Note_on_c, 0, 81, 64
2, 17220, Note_off_c, 0, 81, 64
2, 17220, Note_on_c, 0, 80, 64
2, 17280, Note_off_c, 0, 80, 64
2, 17280, Note_on_c, 0, 81, 64
2, 17520, Note_off_c, 0, 81, 64
2, 17520, Note_on_c, 0, 80, 64
2, 17760, Note_off_c, 0, 80, 64
2, 17760, Note_on_c, 0, 78, 64
2, 18000, Note_off_c, 0, 78, 64
2, 18000, Note_on_c, 0, 81, 64
2, 18360, Note_off_c, 0, 81, 64
2, 18360, Note_on_c, 0, 80, 64
2, 18420, Note_off_c, 0, 80, 64
2, 18420, Note_on_c, 0, 81, 64
2, 18480, Note_off_c, 0, 81, 64
2, 18480, Note_on_c, 0, 83, 64
2, 18540, Note_off_c, 0, 83, 64
2, 18540, Note_on_c, 0, 81, 64
2, 18600, Note_off_c, 0, 81, 64
2, 18600, Note_on_c, 0, 80, 64
2, 18660, Note_off_c, 0, 80, 64
2, 18660, Note_on_c, 0, 78, 64
2, 18720, Note_off_c, 0, 78, 64
2, 18720, Note_on_c, 0, 76, 64
2, 18780, Note_off_c, 0, 76, 64
2, 18780, Note_on_c, 0, 74, 64
2, 18840, Note_off_c, 0, 74, 64
2, 18840, Note_on_c, 0, 73, 64
2, 18900, Note_off_c, 0, 73, 64
2, 18900, Note_on_c, 0, 71, 64
2, 18960, Note_off_c, 0, 71, 64
2, 18960, Note_on_c, 0, 69, 64
2, 19020, Note_off_c, 0, 69, 64
2, 19020, Note_on_c, 0, 73, 64
2, 19080, Note_off_c, 0, 73, 64
2, 19080, Note_on_c, 0, 76, 64
2, 19140, Note_off_c, 0, 76, 64
2, 19140, Note_on_c, 0, 79, 64
2, 19200, Note_off_c, 0, 79, 64
2, 19200, Note_on_c, 0, 78, 64
2, 19790, Note_off_c, 0, 78, 64
2, 19800, Note_on_c, 0, 74, 64
2, 19860, Note_off_c, 0, 74, 64
2, 19860, Note_on_c, 0, 76, 64
2, 19920, Note_off_c, 0, 76, 64
2, 19920, Note_on_c, 0, 78, 64
2, 20040, Note_off_c, 0, 78, 64
2, 20040, Note_on_c, 0, 76, 64
2, 20100, Note_off_c, 0, 76, 64
2, 20100, Note_on_c, 0, 74, 64
2, 20160, Note_off_c, 0, 74, 64
2, 20160, Note_on_c, 0, 76, 64
2, 20750, Note_off_c, 0, 76, 64
2, 20760, Note_on_c, 0, 73, 64
2, 20820, Note_off_c, 0, 73, 64
2, 20820, Note_on_c, 0, 74, 64
2, 20880, Note_off_c, 0, 74, 64
2, 20880, Note_on_c, 0, 76, 64
2, 21000, Note_off_c, 0, 76, 64
2, 21000, Note_on_c, 0, 74, 64
2, 21060, Note_off_c, 0, 74, 64
2, 21060, Note_on_c, 0, 73, 64
2, 21120, Note_off_c, 0, 73, 64
2, 21120, Note_on_c, 0, 74, 64
2, 21710, Note_off_c, 0, 74, 64
2, 21720, Note_on_c, 0, 71, 64
2, 21780, Note_off_c, 0, 71, 64
2, 21780, Note_on_c, 0, 73, 64
2, 21840, Note_off_c, 0, 73, 64
2, 21840, Note_on_c, 0, 74, 64
2, 21960, Note_off_c, 0, 74, 64
2, 21960, Note_on_c, 0, 73, 64
2, 22020, Note_off_c, 0, 73, 64
2, 22020, Note_on_c, 0, 71, 64
2, 22080, Note_off_c, 0, 71, 64
2, 22080, Note_on_c, 0, 73, 64
2, 22140, Note_off_c, 0, 73, 64
2, 22140, Note_on_c, 0, 69, 64
2, 22200, Note_off_c, 0, 69, 64
2, 22200, Note_on_c, 0, 78, 64
2, 22380, Note_off_c, 0, 78, 64
2, 22380, Note_on_c, 0, 75, 64
2, 22440, Note_off_c, 0, 75, 64
2, 22440, Note_on_c, 0, 76, 64
2, 22620, Note_off_c, 0, 76, 64
2, 22620, Note_on_c, 0, 73, 64
2, 22680, Note_off_c, 0, 73, 64
2, 22680, Note_on_c, 0, 74, 64
2, 22860, Note_off_c, 0, 74, 64
2, 22860, Note_on_c, 0, 71, 64
2, 22920, Note_off_c, 0, 71, 64
2, 22920, Note_on_c, 0, 73, 64
2, 23040, Note_off_c, 0, 73, 64
2, 23040, Note_on_c, 0, 68, 64
2, 23160, Note_off_c, 0, 68, 64
2, 23160, Note_on_c, 0, 69, 64
2, 23400, Note_off_c, 0, 69, 64
2, 23400, Note_on_c, 0, 68, 64
2, 23520, Note_off_c, 0, 68, 64
2, 23520, Note_on_c, 0, 69, 64
2, 23640, Note_off_c, 0, 69, 64
2, 23640, Note_on_c, 0, 68, 64
2, 23700, Note_off_c, 0, 68, 64
2, 23700, Note_on_c, 0, 69, 64
2, 23760, Note_off_c, 0, 69, 64
2, 23760, Note_on_c, 0, 71, 64
2, 23880, Note_off_c, 0, 71, 64
2, 23880, Note_on_c, 0, 69, 64
2, 23940, Note_off_c, 0, 69, 64
2, 23940, Note_on_c, 0, 68, 64
2, 24000, Note_off_c, 0, 68, 64
2, 24000, Note_on_c, 0, 69, 64
2, 24020, Note_off_c, 0, 69, 64
2, 24020, Note_on_c, 0, 68, 64
2, 24040, Note_off_c, 0, 68, 64
2, 24040, Note_on_c, 0, 69, 64
2, 24290, Note_off_c, 0, 69, 64
2, 24300, Note_on_c, 0, 71, 64
2, 24360, Note_off_c, 0, 71, 64
2, 24360, Note_on_c, 0, 68, 64
2, 24420, Note_off_c, 0, 68, 64
2, 24420, Note_on_c, 0, 69, 64
2, 24480, Note_off_c, 0, 69, 64
2, 24480, Note_on_c, 0, 71, 64
2, 24540, Note_off_c, 0, 71, 64
2, 24540, Note_on_c, 0, 64, 64
2, 24600, Note_off_c, 0, 64, 64
2, 24600, Note_on_c, 0, 73, 64
2, 24660, Note_off_c, 0, 73, 64
2, 24660, Note_on_c, 0, 64, 64
2, 24720, Note_off_c, 0, 64, 64
2, 24720, Note_on_c, 0, 74, 64
2, 24780, Note_off_c, 0, 74, 64
2, 24780, Note_on_c, 0, 64, 64
2, 24840, Note_off_c, 0, 64, 64
2, 24840, Note_on_c, 0, 76, 64
2, 24960, Note_off_c, 0, 76, 64
2, 24960, Note_on_c, 0, 73, 64
2, 25020, Note_off_c, 0, 73, 64
2, 25020, Note_on_c, 0, 71, 64
2, 25080, Note_off_c, 0, 71, 64
2, 25080, Note_on_c, 0, 69, 64
2, 25140, Note_off_c, 0, 69, 64
2, 25140, Note_on_c, 0, 71, 64
2, 25200, Note_off_c, 0, 71, 64
2, 25200, Note_on_c, 0, 73, 64
2, 25260, Note_off_c, 0, 73, 64
2, 25260, Note_on_c, 0, 74, 64
2, 25320, Note_off_c, 0, 74, 64
2, 25320, Note_on_c, 0, 76, 64
2, 25380, Note_off_c, 0, 76, 64
2, 25380, Note_on_c, 0, 78, 64
2, 25440, Note_off_c, 0, 78, 64
2, 25440, Note_on_c, 0, 71, 64
2, 25500, Note_off_c, 0, 71, 64
2, 25500, Note_on_c, 0, 69, 64
2, 25560, Note_off_c, 0, 69, 64
2, 25560, Note_on_c, 0, 68, 64
2, 25620, Note_off_c, 0, 68, 64
2, 25620, Note_on_c, 0, 69, 64
2, 25680, Note_off_c, 0, 69, 64
2, 25680, Note_on_c, 0, 71, 64
2, 25740, Note_off_c, 0, 71, 64
2, 25740, Note_on_c, 0, 73, 64
2, 25800, Note_off_c, 0, 73, 64
2, 25800, Note_on_c, 0, 74, 64
2, 25860, Note_off_c, 0, 74, 64
2, 25860, Note_on_c, 0, 76, 64
2, 25920, Note_off_c, 0, 76, 64
2, 25920, Note_on_c, 0, 69, 64
2, 25980, Note_off_c, 0, 69, 64
2, 25980, Note_on_c, 0, 68, 64
2, 26040, Note_off_c, 0, 68, 64
2, 26040, Note_on_c, 0, 66, 64
2, 26100, Note_off_c, 0, 66, 64
2, 26100, Note_on_c, 0, 68, 64
2, 26160, Note_off_c, 0, 68, 64
2, 26160, Note_on_c, 0, 69, 64
2, 26220, Note_off_c, 0, 69, 64
2, 26220, Note_on_c, 0, 71, 64
2, 26280, Note_off_c, 0, 71, 64
2, 26280, Note_on_c, 0, 73, 64
2, 26340, Note_off_c, 0, 73, 64
2, 26340, Note_on_c, 0, 74, 64
2, 26400, Note_off_c, 0, 74, 64
2, 26400, Note_on_c, 0, 68, 64
2, 26460, Note_off_c, 0, 68, 64
2, 26460, Note_on_c, 0, 71, 64
2, 26520, Note_off_c, 0, 71, 64
2, 26520, Note_on_c, 0, 68, 64
2, 26580, Note_off_c, 0, 68, 64
2, 26580, Note_on_c, 0, 64, 64
2, 26640, Note_off_c, 0, 64, 64
2, 26640, Note_on_c, 0, 76, 64
2, 26930, Note_off_c, 0, 76, 64
2, 26940, Note_on_c, 0, 76, 64
2, 27000, Note_off_c, 0, 76, 64
2, 27000, Note_on_c, 0, 73, 64
2, 27060, Note_off_c, 0, 73, 64
2, 27060, Note_on_c, 0, 69, 64
2, 27120, Note_off_c, 0, 69, 64
2, 27120, Note_on_c, 0, 81, 64
2, 27410, Note_off_c, 0, 81, 64
2, 27420, Note_on_c, 0, 71, 64
2, 27480, Note_off_c, 0, 71, 64
2, 27480, Note_on_c, 0, 74, 64
2, 27540, Note_off_c, 0, 74, 64
2, 27540, Note_on_c, 0, 78, 64
2, 27600, Note_off_c, 0, 78, 64
2, 27600, Note_on_c, 0, 80, 64
2, 27890, Note_off_c, 0, 80, 64
2, 27900, Note_on_c, 0, 69, 64
2, 27960, Note_off_c, 0, 69, 64
2, 27960, Note_on_c, 0, 73, 64
2, 28020, Note_off_c, 0, 73, 64
2, 28020, Note_on_c, 0, 76, 64
2, 28080, Note_off_c, 0, 76, 64
2, 28080, Note_on_c, 0, 78, 64
2, 28370, Note_off_c, 0, 78, 64
2, 28380, Note_on_c, 0, 76, 64
2, 28440, Note_off_c, 0, 76, 64
2, 28440, Note_on_c, 0, 75, 64
2, 28500, Note_off_c, 0, 75, 64
2, 28500, Note_on_c, 0, 76, 64
2, 28560, Note_off_c, 0, 76, 64
2, 28560, Note_on_c, 0, 78, 64
2, 28680, Note_off_c, 0, 78, 64
2, 28800, Note_on_c, 0, 73, 64
2, 28980, Note_off_c, 0, 73, 64
2, 28980, Note_on_c, 0, 74, 64
2, 29040, Note_off_c, 0, 74, 64
2, 29040, Note_on_c, 0, 71, 64
2, 29220, Note_off_c, 0, 71, 64
2, 29220, Note_on_c, 0, 69, 64
2, 29270, Note_off_c, 0, 69, 64
2, 29280, Note_on_c, 0, 69, 64
2, 30240, Note_off_c, 0, 69, 64
2, 30240, End_track
3, 0, Start_track
3, 0, Text_t, "RH/LH"
3, 1920, Note_on_c, 0, 64, 64
3, 2040, Note_off_c, 0, 64, 64
3, 2040, Note_on_c, 0, 63, 64
3, 2100, Note_off_c, 0, 63, 64
3, 2100, Note_on_c, 0, 64, 64
3, 2160, Note_off_c, 0, 64, 64
3, 2160, Note_on_c, 0, 66, 64
3, 2280, Note_off_c, 0, 66, 64
3, 2280, Note_on_c, 0, 64, 64
3, 2340, Note_off_c, 0, 64, 64
3, 2340, Note_on_c, 0, 63, 64
3, 2400, Note_off_c, 0, 63, 64
3, 2400, Note_on_c, 0, 64, 64
3, 2690, Note_off_c, 0, 64, 64
3, 2700, Note_on_c, 0, 66, 64
3, 2760, Note_off_c, 0, 66, 64
3, 2760, Note_on_c, 0, 63, 64
3, 2820, Note_off_c, 0, 63, 64
3, 2820, Note_on_c, 0, 64, 64
3, 2880, Note_off_c, 0, 64, 64
3, 2880, Note_on_c, 0, 66, 64
3, 2940, Note_off_c, 0, 66, 64
3, 2940, Note_on_c, 0, 59, 64
3, 3000, Note_off_c, 0, 59, 64
3, 3000, Note_on_c, 0, 68, 64
3, 3060, Note_off_c, 0, 68, 64
3, 3060, Note_on_c, 0, 59, 64
3, 3120, Note_off_c, 0, 59, 64
3, 3120, Note_on_c, 0, 69, 64
3, 3180, Note_off_c, 0, 69, 64
3, 3180, Note_on_c, 0, 59, 64
3, 3240, Note_off_c, 0, 59, 64
3, 3240, Note_on_c, 0, 71, 64
3, 3360, Note_off_c, 0, 71, 64
3, 3360, Note_on_c, 0, 68, 64
3, 3420, Note_off_c, 0, 68, 64
3, 3420, Note_on_c, 0, 69, 64
3, 3480, Note_off_c, 0, 69, 64
3, 3480, Note_on_c, 0, 71, 64
3, 3540, Note_off_c, 0, 71, 64
3, 3540, Note_on_c, 0, 69, 64
3, 3600, Note_off_c, 0, 69, 64
3, 3600, Note_on_c, 0, 68, 64
3, 3660, Note_off_c, 0, 68, 64
3, 3660, Note_on_c, 0, 66, 64
3, 3720, Note_off_c, 0, 66, 64
3, 3720, Note_on_c, 0, 64, 64
3, 3780, Note_off_c, 0, 64, 64
3, 3780, Note_on_c, 0, 62, 64
3, 3840, Note_off_c, 0, 62, 64
3, 3840, Note_on_c, 0, 61, 64
3, 3900, Note_off_c, 0, 61, 64
3, 3900, Note_on_c, 0, 73, 64
3, 3960, Note_off_c, 0, 73, 64
3, 3960, Note_on_c, 0, 78, 64
3, 4140, Note_off_c, 0, 78, 64
3, 4140, Note_on_c, 0, 75, 64
3, 4200, Note_off_c, 0, 75, 64
3, 4200, Note_on_c, 0, 76, 64
3, 4380, Note_off_c, 0, 76, 64
3, 4380, Note_on_c, 0, 73, 64
3, 4440, Note_off_c, 0, 73, 64
3, 4440, Note_on_c, 0, 74, 64
3, 4620, Note_off_c, 0, 74, 64
3, 4620, Note_on_c, 0, 71, 64
3, 4680, Note_off_c, 0, 71, 64
3, 4680, Note_on_c, 0, 73, 64
3, 4800, Note_off_c, 0, 73, 64
3, 4800, Note_on_c, 0, 68, 64
3, 4920, Note_off_c, 0, 68, 64
3, 4920, Note_on_c, 0, 69, 64
3, 5150, Note_off_c, 0, 69, 64
3, 5160, Note_on_c, 0, 69, 68
3, 5180, Note_off_c, 0, 69, 64
3, 5180, Note_on_c, 0, 68, 57
3, 5200, Note_off_c, 0, 68, 64
3, 5200, Note_on_c, 0, 69, 51
3, 5220, Note_off_c, 0, 69, 64
3, 5220, Note_on_c, 0, 68, 56
3, 5280, Note_off_c, 0, 68, 64
3, 5280, Note_on_c, 0, 69, 64
3, 5640, Note_off_c, 0, 69, 64
3, 5640, Note_on_c, 0, 69, 64
3, 5760, Note_off_c, 0, 69, 64
3, 5760, Note_on_c, 0, 68, 64
3, 6120, Note_off_c, 0, 68, 64
3, 6120, Note_on_c, 0, 68, 64
3, 6240, Note_off_c, 0, 68, 64
3, 6240, Note_on_c, 0, 66, 64
3, 6720, Note_off_c, 0, 66, 64
3, 6780, Note_on_c, 0, 75, 64
3, 6840, Note_off_c, 0, 75, 64
3, 6840, Note_on_c, 0, 73, 64
3, 6900, Note_off_c, 0, 73, 64
3, 6900, Note_on_c, 0, 71, 64
3, 6960, Note_off_c, 0, 71, 64
3, 6960, Note_on_c, 0, 69, 64
3, 7020, Note_off_c, 0, 69, 64
3, 7020, Note_on_c, 0, 68, 64
3, 7080, Note_off_c, 0, 68, 64
3, 7080, Note_on_c, 0, 66, 64
3, 7140, Note_off_c, 0, 66, 64
3, 7140, Note_on_c, 0, 64, 64
3, 7200, Note_off_c, 0, 64, 64
3, 7200, Note_on_c, 0, 63, 64
3, 7320, Note_off_c, 0, 63, 64
3, 7320, Note_on_c, 0, 64, 64
3, 7560, Note_off_c, 0, 64, 64
3, 7560, Note_on_c, 0, 63, 64
3, 7680, Note_off_c, 0, 63, 64
3, 7680, Note_on_c, 0, 64, 64
3, 7920, Note_off_c, 0, 64, 64
3, 8280, Note_on_c, 0, 68, 64
3, 8340, Note_off_c, 0, 68, 64
3, 8340, Note_on_c, 0, 69, 64
3, 8400, Note_off_c, 0, 69, 64
3, 8400, Note_on_c, 0, 71, 64
3, 8520, Note_off_c, 0, 71, 64
3, 8520, Note_on_c, 0, 69, 64
3, 8580, Note_off_c, 0, 69, 64
3, 8580, Note_on_c, 0, 68, 64
3, 8640, Note_off_c, 0, 68, 64
3, 8640, Note_on_c, 0, 69, 64
3, 9231, Note_off_c, 0, 69, 64
3, 9240, Note_on_c, 0, 66, 64
3, 9300, Note_off_c, 0, 66, 64
3, 9300, Note_on_c, 0, 68, 64
3, 9360, Note_off_c, 0, 68, 64
3, 9360, Note_on_c, 0, 69, 64
3, 9480, Note_off_c, 0, 69, 64
3, 9480, Note_on_c, 0, 68, 64
3, 9540, Note_off_c, 0, 68, 64
3, 9540, Note_on_c, 0, 66, 64
3, 9600, Note_off_c, 0, 66, 64
3, 9600, Note_on_c, 0, 68, 64
3, 10190, Note_off_c, 0, 68, 64
3, 10200, Note_on_c, 0, 65, 64
3, 10260, Note_off_c, 0, 65, 64
3, 10260, Note_on_c, 0, 66, 64
3, 10320, Note_off_c, 0, 66, 64
3, 10320, Note_on_c, 0, 68, 64
3, 10440, Note_off_c, 0, 68, 64
3, 10440, Note_on_c, 0, 66, 64
3, 10500, Note_off_c, 0, 66, 64
3, 10500, Note_on_c, 0, 65, 64
3, 10560, Note_off_c, 0, 65, 64
3, 10560, Note_on_c, 0, 66, 64
3, 11150, Note_off_c, 0, 66, 64
3, 11160, Note_on_c, 0, 63, 64
3, 11220, Note_off_c, 0, 63, 64
3, 11220, Note_on_c, 0, 65, 64
3, 11280, Note_off_c, 0, 65, 64
3, 11280, Note_on_c, 0, 66, 64
3, 11400, Note_off_c, 0, 66, 64
3, 11400, Note_on_c, 0, 65, 64
3, 11460, Note_off_c, 0, 65, 64
3, 11460, Note_on_c, 0, 63, 64
3, 11520, Note_off_c, 0, 63, 64
3, 11520, Note_on_c, 0, 65, 64
3, 11640, Note_off_c, 0, 65, 64
3, 11640, Note_on_c, 0, 65, 64
3, 11700, Note_off_c, 0, 65, 64
3, 11700, Note_on_c, 0, 66, 64
3, 11760, Note_off_c, 0, 66, 64
3, 11760, Note_on_c, 0, 68, 64
3, 11880, Note_off_c, 0, 68, 64
3, 11880, Note_on_c, 0, 66, 64
3, 11940, Note_off_c, 0, 66, 64
3, 11940, Note_on_c, 0, 65, 64
3, 12000, Note_off_c, 0, 65, 64
3, 12000, Note_on_c, 0, 66, 64
3, 12240, Note_off_c, 0, 66, 64
3, 12240, Note_on_c, 0, 64, 64
3, 12480, Note_off_c, 0, 64, 64
3, 12480, Note_on_c, 0, 63, 64
3, 12720, Note_off_c, 0, 63, 64
3, 12720, Note_on_c, 0, 66, 64
3, 13200, Note_off_c, 0, 66, 64
3, 13200, Note_on_c, 0, 65, 64
3, 13440, Note_off_c, 0, 65, 64
3, 13440, Note_on_c, 0, 66, 64
3, 13500, Note_off_c, 0, 66, 64
3, 13980, Note_on_c, 0, 73, 64
3, 14040, Note_off_c, 0, 73, 64
3, 14040, Note_on_c, 0, 71, 64
3, 14220, Note_off_c, 0, 71, 64
3, 14220, Note_on_c, 0, 71, 64
3, 14280, Note_off_c, 0, 71, 64
3, 14280, Note_on_c, 0, 69, 64
3, 14400, Note_off_c, 0, 69, 64
3, 14400, Note_on_c, 0, 65, 64
3, 14520, Note_off_c, 0, 65, 64
3, 14520, Note_on_c, 0, 66, 64
3, 14760, Note_off_c, 0, 66, 64
3, 14760, Note_on_c, 0, 65, 64
3, 14880, Note_off_c, 0, 65, 64
3, 14880, Note_on_c, 0, 66, 64
3, 15240, Note_off_c, 0, 66, 64
3, 15240, Note_on_c, 0, 69, 64
3, 15360, Note_off_c, 0, 69, 64
3, 15360, Note_on_c, 0, 74, 64
3, 15720, Note_off_c, 0, 74, 64
3, 15720, Note_on_c, 0, 71, 64
3, 15840, Note_off_c, 0, 71, 64
3, 15840, Note_on_c, 0, 76, 64
3, 16200, Note_off_c, 0, 76, 64
3, 16200, Note_on_c, 0, 73, 64
3, 16320, Note_off_c, 0, 73, 64
3, 16320, Note_on_c, 0, 78, 64
3, 16910, Note_off_c, 0, 78, 64
3, 16920, Note_on_c, 0, 71, 64
3, 16980, Note_off_c, 0, 71, 64
3, 16980, Note_on_c, 0, 73, 64
3, 17040, Note_off_c, 0, 73, 64
3, 17040, Note_on_c, 0, 74, 64
3, 17160, Note_off_c, 0, 74, 64
3, 17160, Note_on_c, 0, 73, 64
3, 17220, Note_off_c, 0, 73, 64
3, 17220, Note_on_c, 0, 71, 64
3, 17280, Note_off_c, 0, 71, 64
3, 17280, Note_on_c, 0, 73, 64
3, 17400, Note_off_c, 0, 73, 64
3, 17400, Note_on_c, 0, 73, 64
3, 17460, Note_off_c, 0, 73, 64
3, 17460, Note_on_c, 0, 75, 64
3, 17520, Note_off_c, 0, 75, 64
3, 17520, Note_on_c, 0, 76, 64
3, 17640, Note_off_c, 0, 76, 64
3, 17640, Note_on_c, 0, 75, 64
3, 17700, Note_off_c, 0, 75, 64
3, 17700, Note_on_c, 0, 73, 64
3, 17760, Note_off_c, 0, 73, 64
3, 17760, Note_on_c, 0, 75, 64
3, 17880, Note_off_c, 0, 75, 64
3, 17880, Note_on_c, 0, 75, 64
3, 17940, Note_off_c, 0, 75, 64
3, 17940, Note_on_c, 0, 76, 64
3, 18000, Note_off_c, 0, 76, 64
3, 18000, Note_on_c, 0, 78, 64
3, 18120, Note_off_c, 0, 78, 64
3, 18120, Note_on_c, 0, 76, 64
3, 18180, Note_off_c, 0, 76, 64
3, 18180, Note_on_c, 0, 75, 64
3, 18240, Note_off_c, 0, 75, 64
3, 18240, Note_on_c, 0, 76, 64
3, 18720, Note_off_c, 0, 76, 64
3, 19320, Note_on_c, 0, 69, 64
3, 19380, Note_off_c, 0, 69, 64
3, 19380, Note_on_c, 0, 71, 64
3, 19440, Note_off_c, 0, 71, 64
3, 19440, Note_on_c, 0, 73, 64
3, 19560, Note_off_c, 0, 73, 64
3, 19560, Note_on_c, 0, 71, 64
3, 19620, Note_off_c, 0, 71, 64
3, 19620, Note_on_c, 0, 69, 64
3, 19680, Note_off_c, 0, 69, 64
3, 19680, Note_on_c, 0, 68, 64
3, 20270, Note_off_c, 0, 68, 64
3, 20280, Note_on_c, 0, 68, 64
3, 20340, Note_off_c, 0, 68, 64
3, 20340, Note_on_c, 0, 69, 64
3, 20400, Note_off_c, 0, 69, 64
3, 20400, Note_on_c, 0, 71, 64
3, 20520, Note_off_c, 0, 71, 64
3, 20520, Note_on_c, 0, 69, 64
3, 20580, Note_off_c, 0, 69, 64
3, 20580, Note_on_c, 0, 68, 64
3, 20640, Note_off_c, 0, 68, 64
3, 20640, Note_on_c, 0, 66, 64
3, 21230, Note_off_c, 0, 66, 64
3, 21240, Note_on_c, 0, 66, 64
3, 21300, Note_off_c, 0, 66, 64
3, 21300, Note_on_c, 0, 68, 64
3, 21360, Note_off_c, 0, 68, 64
3, 21360, Note_on_c, 0, 69, 64
3, 21480, Note_off_c, 0, 69, 64
3, 21480, Note_on_c, 0, 68, 64
3, 21540, Note_off_c, 0, 68, 64
3, 21540, Note_on_c, 0, 66, 64
3, 21600, Note_off_c, 0, 66, 64
3, 21600, Note_on_c, 0, 64, 64
3, 22190, Note_off_c, 0, 64, 64
3, 22260, Note_on_c, 0, 69, 64
3, 22320, Note_off_c, 0, 69, 64
3, 22320, Note_on_c, 0, 68, 64
3, 22500, Note_off_c, 0, 68, 64
3, 22500, Note_on_c, 0, 68, 64
3, 22560, Note_off_c, 0, 68, 64
3, 22560, Note_on_c, 0, 66, 64
3, 22740, Note_off_c, 0, 66, 64
3, 22740, Note_on_c, 0, 66, 64
3, 22800, Note_off_c, 0, 66, 64
3, 22800, Note_on_c, 0, 64, 64
3, 22980, Note_off_c, 0, 64, 64
3, 22980, Note_on_c, 0, 64, 64
3, 23040, Note_off_c, 0, 64, 64
3, 23040, Note_on_c, 0, 63, 64
3, 23160, Note_off_c, 0, 63, 64
3, 23160, Note_on_c, 0, 61, 64
3, 23280, Note_off_c, 0, 61, 64
3, 23280, Note_on_c, 0, 59, 64
3, 23520, Note_off_c, 0, 59, 64
3, 23520, Note_on_c, 0, 64, 64
3, 23580, Note_off_c, 0, 64, 64
3, 23580, Note_on_c, 0, 61, 64
3, 23640, Note_off_c, 0, 61, 64
3, 23640, Note_on_c, 0, 62, 64
3, 23820, Note_off_c, 0, 62, 64
3, 23820, Note_on_c, 0, 59, 64
3, 23880, Note_off_c, 0, 59, 64
3, 23880, Note_on_c, 0, 61, 64
3, 24060, Note_off_c, 0, 61, 64
3, 24060, Note_on_c, 0, 57, 64
3, 24120, Note_off_c, 0, 57, 64
3, 24120, Note_on_c, 0, 59, 64
3, 24180, Note_off_c, 0, 59, 64
3, 24180, Note_on_c, 0, 56, 64
3, 24240, Note_off_c, 0, 56, 64
3, 24240, Note_on_c, 0, 57, 64
3, 24530, Note_off_c, 0, 57, 64
3, 24540, Note_on_c, 0, 56, 64
3, 24600, Note_off_c, 0, 56, 64
3, 24600, Note_on_c, 0, 57, 64
3, 24840, Note_off_c, 0, 57, 64
3, 24840, Note_on_c, 0, 56, 64
3, 24960, Note_off_c, 0, 56, 64
3, 24960, Note_on_c, 0, 57, 64
3, 25080, Note_off_c, 0, 57, 64
3, 25080, Note_on_c, 0, 61, 64
3, 25200, Note_off_c, 0, 61, 64
3, 25200, Note_on_c, 0, 66, 64
3, 25560, Note_off_c, 0, 66, 64
3, 25560, Note_on_c, 0, 59, 64
3, 25680, Note_off_c, 0, 59, 64
3, 25680, Note_on_c, 0, 64, 64
3, 26040, Note_off_c, 0, 64, 64
3, 26040, Note_on_c, 0, 57, 64
3, 26160, Note_off_c, 0, 57, 64
3, 26160, Note_on_c, 0, 62, 64
3, 26520, Note_off_c, 0, 62, 64
3, 26520, Note_on_c, 0, 59, 64
3, 26580, Note_off_c, 0, 59, 64
3, 26580, Note_on_c, 0, 61, 64
3, 26640, Note_off_c, 0, 61, 64
3, 26640, Note_on_c, 0, 62, 64
3, 26760, Note_off_c, 0, 62, 64
3, 26760, Note_on_c, 0, 61, 64
3, 26820, Note_off_c, 0, 61, 64
3, 26820, Note_on_c, 0, 59, 64
3, 26880, Note_off_c, 0, 59, 64
3, 26880, Note_on_c, 0, 61, 64
3, 27000, Note_off_c, 0, 61, 64
3, 27000, Note_on_c, 0, 57, 64
3, 27060, Note_off_c, 0, 57, 64
3, 27060, Note_on_c, 0, 59, 64
3, 27120, Note_off_c, 0, 59, 64
3, 27120, Note_on_c, 0, 61, 64
3, 27240, Note_off_c, 0, 61, 64
3, 27240, Note_on_c, 0, 59, 64
3, 27300, Note_off_c, 0, 59, 64
3, 27300, Note_on_c, 0, 57, 64
3, 27360, Note_off_c, 0, 57, 64
3, 27360, Note_on_c, 0, 59, 64
3, 27480, Note_off_c, 0, 59, 64
3, 27480, Note_on_c, 0, 56, 64
3, 27540, Note_off_c, 0, 56, 64
3, 27540, Note_on_c, 0, 57, 64
3, 27600, Note_off_c, 0, 57, 64
3, 27600, Note_on_c, 0, 59, 64
3, 27720, Note_off_c, 0, 59, 64
3, 27720, Note_on_c, 0, 57, 64
3, 27780, Note_off_c, 0, 57, 64
3, 27780, Note_on_c, 0, 56, 64
3, 27840, Note_off_c, 0, 56, 64
3, 27840, Note_on_c, 0, 57, 64
3, 27960, Note_off_c, 0, 57, 64
3, 27960, Note_on_c, 0, 54, 64
3, 28020, Note_off_c, 0, 54, 64
3, 28020, Note_on_c, 0, 56, 64
3, 28080, Note_off_c, 0, 56, 64
3, 28080, Note_on_c, 0, 57, 64
3, 28200, Note_off_c, 0, 57, 64
3, 28200, Note_on_c, 0, 56, 64
3, 28260, Note_off_c, 0, 56, 64
3, 28260, Note_on_c, 0, 54, 64
3, 28320, Note_off_c, 0, 54, 64
3, 28320, Note_on_c, 0, 56, 64
3, 28440, Note_off_c, 0, 56, 64
3, 28560, Note_on_c, 0, 69, 64
3, 28680, Note_off_c, 0, 69, 64
3, 28800, Note_on_c, 0, 69, 64
3, 28980, Note_off_c, 0, 69, 64
3, 28980, Note_on_c, 0, 71, 64
3, 29040, Note_off_c, 0, 71, 64
3, 29040, Note_on_c, 0, 68, 64
3, 29280, Note_off_c, 0, 68, 64
3, 29280, End_track
4, 0, Start_track
4, 0, Text_t, "LH"
4, 0, Note_on_c, 0, 57, 64
4, 120, Note_off_c, 0, 57, 64
4, 240, Note_on_c, 0, 56, 64
4, 360, Note_off_c, 0, 56, 64
4, 480, Note_on_c, 0, 54, 64
4, 600, Note_off_c, 0, 54, 64
4, 720, Note_on_c, 0, 49, 64
4, 840, Note_off_c, 0, 49, 64
4, 960, Note_on_c, 0, 50, 64
4, 1080, Note_off_c, 0, 50, 64
4, 1200, Note_on_c, 0, 52, 64
4, 1320, Note_off_c, 0, 52, 64
4, 1440, Note_on_c, 0, 45, 64
4, 1560, Note_off_c, 0, 45, 64
4, 1560, Note_on_c, 0, 57, 64
4, 1680, Note_off_c, 0, 57, 64
4, 1680, Note_on_c, 0, 56, 64
4, 1800, Note_off_c, 0, 56, 64
4, 1800, Note_on_c, 0, 54, 64
4, 1920, Note_off_c, 0, 54, 64
4, 1920, Note_on_c, 0, 52, 64
4, 2040, Note_off_c, 0, 52, 64
4, 2160, Note_on_c, 0, 63, 64
4, 2280, Note_off_c, 0, 63, 64
4, 2400, Note_on_c, 0, 61, 64
4, 2520, Note_off_c, 0, 61, 64
4, 2640, Note_on_c, 0, 56, 64
4, 2760, Note_off_c, 0, 56, 64
4, 2880, Note_on_c, 0, 57, 64
4, 3000, Note_off_c, 0, 57, 64
4, 3120, Note_on_c, 0, 59, 64
4, 3240, Note_off_c, 0, 59, 64
4, 3360, Note_on_c, 0, 64, 64
4, 3480, Note_off_c, 0, 64, 64
4, 3840, Note_on_c, 0, 57, 64
4, 3960, Note_off_c, 0, 57, 64
4, 3960, Note_on_c, 0, 56, 64
4, 4020, Note_off_c, 0, 56, 64
4, 4020, Note_on_c, 0, 57, 64
4, 4080, Note_off_c, 0, 57, 64
4, 4080, Note_on_c, 0, 59, 64
4, 4200, Note_off_c, 0, 59, 64
4, 4200, Note_on_c, 0, 57, 64
4, 4260, Note_off_c, 0, 57, 64
4, 4260, Note_on_c, 0, 56, 64
4, 4320, Note_off_c, 0, 56, 64
4, 4320, Note_on_c, 0, 57, 64
4, 4610, Note_off_c, 0, 57, 64
4, 4620, Note_on_c, 0, 59, 64
4, 4680, Note_off_c, 0, 59, 64
4, 4680, Note_on_c, 0, 56, 64
4, 4740, Note_off_c, 0, 56, 64
4, 4740, Note_on_c, 0, 57, 64
4, 4800, Note_off_c, 0, 57, 64
4, 4800, Note_on_c, 0, 59, 64
4, 4860, Note_off_c, 0, 59, 64
4, 4860, Note_on_c, 0, 52, 64
4, 4920, Note_off_c, 0, 52, 64
4, 4920, Note_on_c, 0, 61, 64
4, 4980, Note_off_c, 0, 61, 64
4, 4980, Note_on_c, 0, 52, 64
4, 5040, Note_off_c, 0, 52, 64
4, 5040, Note_on_c, 0, 62, 64
4, 5100, Note_off_c, 0, 62, 64
4, 5100, Note_on_c, 0, 52, 64
4, 5160, Note_off_c, 0, 52, 64
4, 5160, Note_on_c, 0, 64, 64
4, 5280, Note_off_c, 0, 64, 64
4, 5280, Note_on_c, 0, 61, 64
4, 5340, Note_off_c, 0, 61, 64
4, 5340, Note_on_c, 0, 59, 64
4, 5400, Note_off_c, 0, 59, 64
4, 5400, Note_on_c, 0, 57, 64
4, 5460, Note_off_c, 0, 57, 64
4, 5460, Note_on_c, 0, 59, 64
4, 5520, Note_off_c, 0, 59, 64
4, 5520, Note_on_c, 0, 61, 64
4, 5580, Note_off_c, 0, 61, 64
4, 5580, Note_on_c, 0, 63, 64
4, 5640, Note_off_c, 0, 63, 64
4, 5640, Note_on_c, 0, 64, 64
4, 5700, Note_off_c, 0, 64, 64
4, 5700, Note_on_c, 0, 66, 64
4, 5760, Note_off_c, 0, 66, 64
4, 5760, Note_on_c, 0, 59, 64
4, 5820, Note_off_c, 0, 59, 64
4, 5820, Note_on_c, 0, 57, 64
4, 5880, Note_off_c, 0, 57, 64
4, 5880, Note_on_c, 0, 56, 64
4, 5940, Note_off_c, 0, 56, 64
4, 5940, Note_on_c, 0, 57, 64
4, 6000, Note_off_c, 0, 57, 64
4, 6000, Note_on_c, 0, 59, 64
4, 6060, Note_off_c, 0, 59, 64
4, 6060, Note_on_c, 0, 61, 64
4, 6120, Note_off_c, 0, 61, 64
4, 6120, Note_on_c, 0, 63, 64
4, 6180, Note_off_c, 0, 63, 64
4, 6180, Note_on_c, 0, 64, 64
4, 6240, Note_off_c, 0, 64, 64
4, 6240, Note_on_c, 0, 57, 64
4, 6300, Note_off_c, 0, 57, 64
4, 6300, Note_on_c, 0, 56, 64
4, 6360, Note_off_c, 0, 56, 64
4, 6360, Note_on_c, 0, 54, 64
4, 6420, Note_off_c, 0, 54, 64
4, 6420, Note_on_c, 0, 56, 64
4, 6480, Note_off_c, 0, 56, 64
4, 6480, Note_on_c, 0, 57, 64
4, 6540, Note_off_c, 0, 57, 64
4, 6540, Note_on_c, 0, 56, 64
4, 6600, Note_off_c, 0, 56, 64
4, 6600, Note_on_c, 0, 57, 64
4, 6660, Note_off_c, 0, 57, 64
4, 6660, Note_on_c, 0, 59, 64
4, 6720, Note_off_c, 0, 59, 64
4, 6720, Note_on_c, 0, 56, 64
4, 6840, Note_off_c, 0, 56, 64
4, 6840, Note_on_c, 0, 57, 64
4, 6900, Note_off_c, 0, 57, 64
4, 6900, Note_on_c, 0, 59, 64
4, 6960, Note_off_c, 0, 59, 64
4, 6960, Note_on_c, 0, 61, 64
4, 7250, Note_off_c, 0, 61, 64
4, 7260, Note_on_c, 0, 59, 64
4, 7320, Note_off_c, 0, 59, 64
4, 7320, Note_on_c, 0, 57, 64
4, 7380, Note_off_c, 0, 57, 64
4, 7380, Note_on_c, 0, 56, 64
4, 7440, Note_off_c, 0, 56, 64
4, 7440, Note_on_c, 0, 54, 64
4, 7560, Note_off_c, 0, 54, 64
4, 7560, Note_on_c, 0, 59, 64
4, 7680, Note_off_c, 0, 59, 64
4, 7680, Note_on_c, 0, 52, 64
4, 7920, Note_off_c, 0, 52, 64
4, 7980, Note_on_c, 0, 57, 64
4, 8040, Note_off_c, 0, 57, 64
4, 8040, Note_on_c, 0, 56, 64
4, 8100, Note_off_c, 0, 56, 64
4, 8100, Note_on_c, 0, 54, 64
4, 8160, Note_off_c, 0, 54, 64
4, 8160, Note_on_c, 0, 53, 64
4, 8220, Note_off_c, 0, 53, 64
4, 8220, Note_on_c, 0, 49, 56
4, 8280, Note_off_c, 0, 49, 64
4, 8280, Note_on_c, 0, 54, 56
4, 8340, Note_off_c, 0, 54, 64
4, 8340, Note_on_c, 0, 49, 56
4, 8400, Note_off_c, 0, 49, 64
4, 8400, Note_on_c, 0, 56, 56
4, 8460, Note_off_c, 0, 56, 64
4, 8460, Note_on_c, 0, 49, 56
4, 8520, Note_off_c, 0, 49, 64
4, 8520, Note_on_c, 0, 53, 56
4, 8580, Note_off_c, 0, 53, 64
4, 8580, Note_on_c, 0, 49, 56
4, 8640, Note_off_c, 0, 49, 64
4, 8640, Note_on_c, 0, 54, 56
4, 8700, Note_off_c, 0, 54, 64
4, 8700, Note_on_c, 0, 49, 56
4, 8760, Note_off_c, 0, 49, 64
4, 8760, Note_on_c, 0, 56, 56
4, 8820, Note_off_c, 0, 56, 64
4, 8820, Note_on_c, 0, 49, 56
4, 8880, Note_off_c, 0, 49, 64
4, 8880, Note_on_c, 0, 54, 56
4, 8940, Note_off_c, 0, 54, 64
4, 8940, Note_on_c, 0, 49, 56
4, 9000, Note_off_c, 0, 49, 64
4, 9000, Note_on_c, 0, 52, 56
4, 9060, Note_off_c, 0, 52, 64
4, 9060, Note_on_c, 0, 49, 56
4, 9120, Note_off_c, 0, 49, 64
4, 9120, Note_on_c, 0, 51, 56
4, 9180, Note_off_c, 0, 51, 64
4, 9180, Note_on_c, 0, 47, 56
4, 9240, Note_off_c, 0, 47, 64
4, 9240, Note_on_c, 0, 52, 56
4, 9300, Note_off_c, 0, 52, 64
4, 9300, Note_on_c, 0, 47, 56
4, 9360, Note_off_c, 0, 47, 64
4, 9360, Note_on_c, 0, 54, 56
4, 9420, Note_off_c, 0, 54, 64
4, 9420, Note_on_c, 0, 47, 56
4, 9480, Note_off_c, 0, 47, 64
4, 9480, Note_on_c, 0, 51, 56
4, 9540, Note_off_c, 0, 51, 64
4, 9540, Note_on_c, 0, 47, 56
4, 9600, Note_off_c, 0, 47, 64
4, 9600, Note_on_c, 0, 52, 56
4, 9660, Note_off_c, 0, 52, 64
4, 9660, Note_on_c, 0, 47, 56
4, 9720, Note_off_c, 0, 47, 64
4, 9720, Note_on_c, 0, 54, 56
4, 9780, Note_off_c, 0, 54, 64
4, 9780, Note_on_c, 0, 47, 56
4, 9840, Note_off_c, 0, 47, 64
4, 9840, Note_on_c, 0, 52, 56
4, 9900, Note_off_c, 0, 52, 64
4, 9900, Note_on_c, 0, 47, 56
4, 9960, Note_off_c, 0, 47, 64
4, 9960, Note_on_c, 0, 50, 56
4, 10020, Note_off_c, 0, 50, 64
4, 10020, Note_on_c, 0, 47, 56
4, 10080, Note_off_c, 0, 47, 64
4, 10080, Note_on_c, 0, 49, 56
4, 10140, Note_off_c, 0, 49, 64
4, 10140, Note_on_c, 0, 45, 56
4, 10200, Note_off_c, 0, 45, 64
4, 10200, Note_on_c, 0, 50, 56
4, 10260, Note_off_c, 0, 50, 64
4, 10260, Note_on_c, 0, 45, 56
4, 10320, Note_off_c, 0, 45, 64
4, 10320, Note_on_c, 0, 52, 56
4, 10380, Note_off_c, 0, 52, 64
4, 10380, Note_on_c, 0, 45, 56
4, 10440, Note_off_c, 0, 45, 64
4, 10440, Note_on_c, 0, 49, 56
4, 10500, Note_off_c, 0, 49, 64
4, 10500, Note_on_c, 0, 45, 56
4, 10560, Note_off_c, 0, 45, 64
4, 10560, Note_on_c, 0, 50, 56
4, 10620, Note_off_c, 0, 50, 64
4, 10620, Note_on_c, 0, 45, 56
4, 10680, Note_off_c, 0, 45, 64
4, 10680, Note_on_c, 0, 52, 56
4, 10740, Note_off_c, 0, 52, 64
4, 10740, Note_on_c, 0, 45, 56
4, 10800, Note_off_c, 0, 45, 64
4, 10800, Note_on_c, 0, 50, 56
4, 10860, Note_off_c, 0, 50, 64
4, 10860, Note_on_c, 0, 45, 56
4, 10920, Note_off_c, 0, 45, 64
4, 10920, Note_on_c, 0, 49, 56
4, 10980, Note_off_c, 0, 49, 64
4, 10980, Note_on_c, 0, 45, 56
4, 11040, Note_off_c, 0, 45, 64
4, 11040, Note_on_c, 0, 47, 56
4, 11100, Note_off_c, 0, 47, 64
4, 11100, Note_on_c, 0, 44, 56
4, 11160, Note_off_c, 0, 44, 64
4, 11160, Note_on_c, 0, 49, 56
4, 11220, Note_off_c, 0, 49, 64
4, 11220, Note_on_c, 0, 44, 56
4, 11280, Note_off_c, 0, 44, 64
4, 11280, Note_on_c, 0, 50, 56
4, 11340, Note_off_c, 0, 50, 64
4, 11340, Note_on_c, 0, 44, 56
4, 11400, Note_off_c, 0, 44, 64
4, 11400, Note_on_c, 0, 47, 56
4, 11460, Note_off_c, 0, 47, 64
4, 11460, Note_on_c, 0, 44, 56
4, 11520, Note_off_c, 0, 44, 64
4, 11520, Note_on_c, 0, 49, 64
4, 12960, Note_off_c, 0, 49, 64
4, 13020, Note_on_c, 0, 62, 64
4, 13080, Note_off_c, 0, 62, 64
4, 13080, Note_on_c, 0, 61, 64
4, 13140, Note_off_c, 0, 61, 64
4, 13140, Note_on_c, 0, 59, 64
4, 13200, Note_off_c, 0, 59, 64
4, 13200, Note_on_c, 0, 61, 64
4, 13260, Note_off_c, 0, 61, 64
4, 13260, Note_on_c, 0, 57, 64
4, 13320, Note_off_c, 0, 57, 64
4, 13320, Note_on_c, 0, 59, 64
4, 13380, Note_off_c, 0, 59, 64
4, 13380, Note_on_c, 0, 61, 64
4, 13440, Note_off_c, 0, 61, 64
4, 13440, Note_on_c, 0, 54, 64
4, 13560, Note_off_c, 0, 54, 64
4, 13560, Note_on_c, 0, 53, 64
4, 13620, Note_off_c, 0, 53, 64
4, 13620, Note_on_c, 0, 54, 64
4, 13680, Note_off_c, 0, 54, 64
4, 13680, Note_on_c, 0, 56, 64
4, 13800, Note_off_c, 0, 56, 64
4, 13800, Note_on_c, 0, 54, 64
4, 13860, Note_off_c, 0, 54, 64
4, 13860, Note_on_c, 0, 53, 64
4, 13920, Note_off_c, 0, 53, 64
4, 13920, Note_on_c, 0, 54, 64
4, 14210, Note_off_c, 0, 54, 64
4, 14220, Note_on_c, 0, 56, 64
4, 14280, Note_off_c, 0, 56, 64
4, 14280, Note_on_c, 0, 53, 64
4, 14340, Note_off_c, 0, 53, 64
4, 14340, Note_on_c, 0, 54, 64
4, 14400, Note_off_c, 0, 54, 64
4, 14400, Note_on_c, 0, 56, 64
4, 14460, Note_off_c, 0, 56, 64
4, 14460, Note_on_c, 0, 49, 64
4, 14520, Note_off_c, 0, 49, 64
4, 14520, Note_on_c, 0, 57, 64
4, 14580, Note_off_c, 0, 57, 64
4, 14580, Note_on_c, 0, 49, 64
4, 14640, Note_off_c, 0, 49, 64
4, 14640, Note_on_c, 0, 59, 64
4, 14700, Note_off_c, 0, 59, 64
4, 14700, Note_on_c, 0, 49, 64
4, 14760, Note_off_c, 0, 49, 64
4, 14760, Note_on_c, 0, 61, 64
4, 14820, Note_off_c, 0, 61, 64
4, 14820, Note_on_c, 0, 59, 64
4, 14880, Note_off_c, 0, 59, 64
4, 14880, Note_on_c, 0, 57, 64
4, 14940, Note_off_c, 0, 57, 64
4, 14940, Note_on_c, 0, 59, 64
4, 15000, Note_off_c, 0, 59, 64
4, 15000, Note_on_c, 0, 61, 64
4, 15060, Note_off_c, 0, 61, 64
4, 15060, Note_on_c, 0, 59, 64
4, 15120, Note_off_c, 0, 59, 64
4, 15120, Note_on_c, 0, 57, 64
4, 15180, Note_off_c, 0, 57, 64
4, 15180, Note_on_c, 0, 56, 64
4, 15240, Note_off_c, 0, 56, 64
4, 15240, Note_on_c, 0, 54, 64
4, 15300, Note_off_c, 0, 54, 64
4, 15300, Note_on_c, 0, 52, 64
4, 15360, Note_off_c, 0, 52, 64
4, 15360, Note_on_c, 0, 59, 64
4, 15420, Note_off_c, 0, 59, 64
4, 15420, Note_on_c, 0, 61, 64
4, 15480, Note_off_c, 0, 61, 64
4, 15480, Note_on_c, 0, 62, 64
4, 15540, Note_off_c, 0, 62, 64
4, 15540, Note_on_c, 0, 61, 64
4, 15600, Note_off_c, 0, 61, 64
4, 15600, Note_on_c, 0, 59, 64
4, 15660, Note_off_c, 0, 59, 64
4, 15660, Note_on_c, 0, 57, 64
4, 15720, Note_off_c, 0, 57, 64
4, 15720, Note_on_c, 0, 56, 64
4, 15780, Note_off_c, 0, 56, 64
4, 15780, Note_on_c, 0, 54, 64
4, 15840, Note_off_c, 0, 54, 64
4, 15840, Note_on_c, 0, 61, 64
4, 15900, Note_off_c, 0, 61, 64
4, 15900, Note_on_c, 0, 62, 64
4, 15960, Note_off_c, 0, 62, 64
4, 15960, Note_on_c, 0, 64, 64
4, 16020, Note_off_c, 0, 64, 64
4, 16020, Note_on_c, 0, 62, 64
4, 16080, Note_off_c, 0, 62, 64
4, 16080, Note_on_c, 0, 61, 64
4, 16140, Note_off_c, 0, 61, 64
4, 16140, Note_on_c, 0, 59, 64
4, 16200, Note_off_c, 0, 59, 64
4, 16200, Note_on_c, 0, 57, 64
4, 16260, Note_off_c, 0, 57, 64
4, 16260, Note_on_c, 0, 56, 64
4, 16320, Note_off_c, 0, 56, 64
4, 16320, Note_on_c, 0, 63, 64
4, 16380, Note_off_c, 0, 63, 64
4, 16380, Note_on_c, 0, 64, 64
4, 16440, Note_off_c, 0, 64, 64
4, 16440, Note_on_c, 0, 66, 64
4, 16500, Note_off_c, 0, 66, 64
4, 16500, Note_on_c, 0, 64, 64
4, 16560, Note_off_c, 0, 64, 64
4, 16560, Note_on_c, 0, 63, 64
4, 16620, Note_off_c, 0, 63, 64
4, 16620, Note_on_c, 0, 61, 64
4, 16680, Note_off_c, 0, 61, 64
4, 16680, Note_on_c, 0, 59, 64
4, 16740, Note_off_c, 0, 59, 64
4, 16740, Note_on_c, 0, 57, 64
4, 16800, Note_off_c, 0, 57, 64
4, 16800, Note_on_c, 0, 64, 64
4, 18290, Note_off_c, 0, 64, 64
4, 18300, Note_on_c, 0, 61, 64
4, 18360, Note_off_c, 0, 61, 64
4, 18360, Note_on_c, 0, 59, 64
4, 18420, Note_off_c, 0, 59, 64
4, 18420, Note_on_c, 0, 57, 64
4, 18480, Note_off_c, 0, 57, 64
4, 18480, Note_on_c, 0, 56, 64
4, 18540, Note_off_c, 0, 56, 64
4, 18540, Note_on_c, 0, 54, 64
4, 18600, Note_off_c, 0, 54, 64
4, 18600, Note_on_c, 0, 52, 64
4, 18660, Note_off_c, 0, 52, 64
4, 18660, Note_on_c, 0, 50, 64
4, 18720, Note_off_c, 0, 50, 64
4, 18720, Note_on_c, 0, 49, 64
4, 18780, Note_off_c, 0, 49, 64
4, 18780, Note_on_c, 0, 57, 56
4, 18840, Note_off_c, 0, 57, 64
4, 18840, Note_on_c, 0, 50, 56
4, 18900, Note_off_c, 0, 50, 64
4, 18900, Note_on_c, 0, 57, 56
4, 18960, Note_off_c, 0, 57, 64
4, 18960, Note_on_c, 0, 52, 56
4, 19020, Note_off_c, 0, 52, 64
4, 19020, Note_on_c, 0, 57, 56
4, 19080, Note_off_c, 0, 57, 64
4, 19080, Note_on_c, 0, 49, 56
4, 19140, Note_off_c, 0, 49, 64
4, 19140, Note_on_c, 0, 57, 56
4, 19200, Note_off_c, 0, 57, 64
4, 19200, Note_on_c, 0, 50, 56
4, 19260, Note_off_c, 0, 50, 64
4, 19260, Note_on_c, 0, 57, 56
4, 19320, Note_off_c, 0, 57, 64
4, 19320, Note_on_c, 0, 52, 56
4, 19380, Note_off_c, 0, 52, 64
4, 19380, Note_on_c, 0, 57, 56
4, 19440, Note_off_c, 0, 57, 64
4, 19440, Note_on_c, 0, 50, 56
4, 19500, Note_off_c, 0, 50, 64
4, 19500, Note_on_c, 0, 57, 56
4, 19560, Note_off_c, 0, 57, 64
4, 19560, Note_on_c, 0, 49, 56
4, 19620, Note_off_c, 0, 49, 64
4, 19620, Note_on_c, 0, 57, 56
4, 19680, Note_off_c, 0, 57, 64
4, 19680, Note_on_c, 0, 47, 56
4, 19740, Note_off_c, 0, 47, 64
4, 19740, Note_on_c, 0, 56, 56
4, 19800, Note_off_c, 0, 56, 64
4, 19800, Note_on_c, 0, 49, 56
4, 19860, Note_off_c, 0, 49, 64
4, 19860, Note_on_c, 0, 56, 56
4, 19920, Note_off_c, 0, 56, 64
4, 19920, Note_on_c, 0, 50, 56
4, 19980, Note_off_c, 0, 50, 64
4, 19980, Note_on_c, 0, 56, 56
4, 20040, Note_off_c, 0, 56, 64
4, 20040, Note_on_c, 0, 47, 56
4, 20100, Note_off_c, 0, 47, 64
4, 20100, Note_on_c, 0, 56, 56
4, 20160, Note_off_c, 0, 56, 64
4, 20160, Note_on_c, 0, 49, 56
4, 20220, Note_off_c, 0, 49, 64
4, 20220, Note_on_c, 0, 56, 56
4, 20280, Note_off_c, 0, 56, 64
4, 20280, Note_on_c, 0, 50, 56
4, 20340, Note_off_c, 0, 50, 64
4, 20340, Note_on_c, 0, 56, 56
4, 20400, Note_off_c, 0, 56, 64
4, 20400, Note_on_c, 0, 49, 56
4, 20460, Note_off_c, 0, 49, 64
4, 20460, Note_on_c, 0, 56, 56
4, 20520, Note_off_c, 0, 56, 64
4, 20520, Note_on_c, 0, 47, 56
4, 20580, Note_off_c, 0, 47, 64
4, 20580, Note_on_c, 0, 56, 56
4, 20640, Note_off_c, 0, 56, 64
4, 20640, Note_on_c, 0, 46, 56
4, 20700, Note_off_c, 0, 46, 64
4, 20700, Note_on_c, 0, 54, 56
4, 20760, Note_off_c, 0, 54, 64
4, 20760, Note_on_c, 0, 47, 56
4, 20820, Note_off_c, 0, 47, 64
4, 20820, Note_on_c, 0, 54, 56
4, 20880, Note_off_c, 0, 54, 64
4, 20880, Note_on_c, 0, 49, 56
4, 20940, Note_off_c, 0, 49, 64
4, 20940, Note_on_c, 0, 54, 56
4, 21000, Note_off_c, 0, 54, 64
4, 21000, Note_on_c, 0, 46, 56
4, 21060, Note_off_c, 0, 46, 64
4, 21060, Note_on_c, 0, 54, 56
4, 21120, Note_off_c, 0, 54, 64
4, 21120, Note_on_c, 0, 47, 56
4, 21180, Note_off_c, 0, 47, 64
4, 21180, Note_on_c, 0, 54, 56
4, 21240, Note_off_c, 0, 54, 64
4, 21240, Note_on_c, 0, 49, 56
4, 21300, Note_off_c, 0, 49, 64
4, 21300, Note_on_c, 0, 54, 56
4, 21360, Note_off_c, 0, 54, 64
4, 21360, Note_on_c, 0, 47, 56
4, 21420, Note_off_c, 0, 47, 64
4, 21420, Note_on_c, 0, 54, 56
4, 21480, Note_off_c, 0, 54, 64
4, 21480, Note_on_c, 0, 45, 56
4, 21540, Note_off_c, 0, 45, 64
4, 21540, Note_on_c, 0, 54, 56
4, 21600, Note_off_c, 0, 54, 64
4, 21600, Note_on_c, 0, 44, 56
4, 21660, Note_off_c, 0, 44, 64
4, 21660, Note_on_c, 0, 52, 56
4, 21720, Note_off_c, 0, 52, 64
4, 21720, Note_on_c, 0, 40, 56
4, 21780, Note_off_c, 0, 40, 64
4, 21780, Note_on_c, 0, 52, 56
4, 21840, Note_off_c, 0, 52, 64
4, 21840, Note_on_c, 0, 42, 56
4, 21900, Note_off_c, 0, 42, 64
4, 21900, Note_on_c, 0, 52, 56
4, 21960, Note_off_c, 0, 52, 64
4, 21960, Note_on_c, 0, 44, 56
4, 22020, Note_off_c, 0, 44, 64
4, 22020, Note_on_c, 0, 52, 56
4, 22080, Note_off_c, 0, 52, 64
4, 22080, Note_on_c, 0, 45, 64
4, 22200, Note_off_c, 0, 45, 64
4, 22200, Note_on_c, 0, 44, 64
4, 22260, Note_off_c, 0, 44, 64
4, 22260, Note_on_c, 0, 45, 64
4, 22320, Note_off_c, 0, 45, 64
4, 22320, Note_on_c, 0, 47, 64
4, 22440, Note_off_c, 0, 47, 64
4, 22440, Note_on_c, 0, 45, 64
4, 22500, Note_off_c, 0, 45, 64
4, 22500, Note_on_c, 0, 44, 64
4, 22560, Note_off_c, 0, 44, 64
4, 22560, Note_on_c, 0, 45, 64
4, 22850, Note_off_c, 0, 45, 64
4, 22860, Note_on_c, 0, 47, 64
4, 22920, Note_off_c, 0, 47, 64
4, 22920, Note_on_c, 0, 44, 64
4, 22980, Note_off_c, 0, 44, 64
4, 22980, Note_on_c, 0, 45, 64
4, 23040, Note_off_c, 0, 45, 64
4, 23040, Note_on_c, 0, 47, 64
4, 23100, Note_off_c, 0, 47, 64
4, 23100, Note_on_c, 0, 40, 64
4, 23160, Note_off_c, 0, 40, 64
4, 23160, Note_on_c, 0, 49, 64
4, 23220, Note_off_c, 0, 49, 64
4, 23220, Note_on_c, 0, 40, 64
4, 23280, Note_off_c, 0, 40, 64
4, 23280, Note_on_c, 0, 50, 64
4, 23340, Note_off_c, 0, 50, 64
4, 23340, Note_on_c, 0, 40, 64
4, 23400, Note_off_c, 0, 40, 64
4, 23400, Note_on_c, 0, 52, 64
4, 23520, Note_off_c, 0, 52, 64
4, 23520, Note_on_c, 0, 49, 64
4, 23640, Note_off_c, 0, 49, 64
4, 23640, Note_on_c, 0, 54, 64
4, 23880, Note_off_c, 0, 54, 64
4, 23880, Note_on_c, 0, 53, 64
4, 24000, Note_off_c, 0, 53, 64
4, 24000, Note_on_c, 0, 54, 64
4, 24360, Note_off_c, 0, 54, 64
4, 24360, Note_on_c, 0, 52, 64
4, 24480, Note_off_c, 0, 52, 64
4, 24480, Note_on_c, 0, 50, 64
4, 24600, Note_off_c, 0, 50, 64
4, 24600, Note_on_c, 0, 49, 64
4, 24720, Note_off_c, 0, 49, 64
4, 24720, Note_on_c, 0, 47, 64
4, 24840, Note_off_c, 0, 47, 64
4, 24840, Note_on_c, 0, 52, 64
4, 24960, Note_off_c, 0, 52, 64
4, 24960, Note_on_c, 0, 45, 64
4, 25200, Note_off_c, 0, 45, 64
4, 25320, Note_on_c, 0, 57, 64
4, 25440, Note_off_c, 0, 57, 64
4, 25440, Note_on_c, 0, 56, 64
4, 25800, Note_off_c, 0, 56, 64
4, 25800, Note_on_c, 0, 56, 64
4, 25920, Note_off_c, 0, 56, 64
4, 25920, Note_on_c, 0, 54, 64
4, 26280, Note_off_c, 0, 54, 64
4, 26280, Note_on_c, 0, 54, 64
4, 26400, Note_off_c, 0, 54, 64
4, 26400, Note_on_c, 0, 52, 64
4, 28370, Note_off_c, 0, 52, 64
4, 28380, Note_on_c, 0, 52, 64
4, 28440, Note_off_c, 0, 52, 64
4, 28440, Note_on_c, 0, 56, 64
4, 28500, Note_off_c, 0, 56, 64
4, 28500, Note_on_c, 0, 59, 64
4, 28560, Note_off_c, 0, 59, 64
4, 28560, Note_on_c, 0, 60, 64
4, 28620, Note_off_c, 0, 60, 64
4, 28620, Note_on_c, 0, 56, 64
4, 28680, Note_off_c, 0, 56, 64
4, 28680, Note_on_c, 0, 57, 64
4, 28740, Note_off_c, 0, 57, 64
4, 28740, Note_on_c, 0, 51, 64
4, 28800, Note_off_c, 0, 51, 64
4, 28800, Note_on_c, 0, 52, 64
4, 28920, Note_off_c, 0, 52, 64
4, 29040, Note_on_c, 0, 40, 64
4, 29160, Note_off_c, 0, 40, 64
4, 29280, Note_on_c, 0, 45, 64
4, 30240, Note_off_c, 0, 45, 64
4, 30240, End_track
0, 0, End_of_file
